[[{"note": 66, "velocity": 100, "duration": 49}, {"note": 0, "velocity": 0, "duration": 71}, {"note": 66, "velocity": 96, "duration": 62}, {"note": 71, "velocity": 102, "duration": 62}, {"note": 71, "velocity": 96, "duration": 110}, {"note": 0, "velocity": 0, "duration": 130}, {"note": 71, "velocity": 93, "duration": 58}, {"note": 0, "velocity": 0, "duration": 62}, {"note": 71, "velocity": 100, "duration": 91}, {"note": 0, "velocity": 0, "duration": 149}, {"note": 71, "velocity": 107, "duration": 66}, {"note": 69, "velocity": 83, "duration": 50}, {"note": 0, "velocity": 0, "duration": 70}, {"note": 71, "velocity": 97, "duration": 77}, {"note": 74, "velocity": 122, "duration": 115}, {"note": 0, "velocity": 0, "duration": 605}, {"note": 66, "velocity": 89, "duration": 90}, {"note": 69, "velocity": 95, "duration": 163}, {"note": 0, "velocity": 0, "duration": 77}, {"note": 66, "velocity": 99, "duration": 605}, {"note": 0, "velocity": 0, "duration": 835}, {"note": 66, "velocity": 112, "duration": 53}, {"note": 0, "velocity": 0, "duration": 67}, {"note": 66, "velocity": 102, "duration": 64}, {"note": 71, "velocity": 102, "duration": 59}, {"note": 0, "velocity": 0, "duration": 61}, {"note": 71, "velocity": 85, "duration": 59}, {"note": 0, "velocity": 0, "duration": 61}, {"note": 71, "velocity": 97, "duration": 56}, {"note": 0, "velocity": 0, "duration": 64}, {"note": 71, "velocity": 107, "duration": 57}, {"note": 0, "velocity": 0, "duration": 63}, {"note": 71, "velocity": 100, "duration": 48}, {"note": 0, "velocity": 0, "duration": 72}, {"note": 71, "velocity": 102, "duration": 59}, {"note": 0, "velocity": 0, "duration": 61}, {"note": 71, "velocity": 117, "duration": 60}, {"note": 69, "velocity": 93, "duration": 52}, {"note": 0, "velocity": 0, "duration": 68}, {"note": 71, "velocity": 127, "duration": 96}, {"note": 69, "velocity": 97, "duration": 195}, {"note": 0, "velocity": 0, "duration": 525}, {"note": 66, "velocity": 95, "duration": 65}, {"note": 69, "velocity": 97, "duration": 120}, {"note": 64, "velocity": 89, "duration": 887}, {"note": 0, "velocity": 0, "duration": 673}, {"note": 66, "velocity": 102, "duration": 51}, {"note": 0, "velocity": 0, "duration": 69}, {"note": 66, "velocity": 89, "duration": 58}, {"note": 0, "velocity": 0, "duration": 62}, {"note": 69, "velocity": 99, "duration": 51}, {"note": 0, "velocity": 0, "duration": 69}, {"note": 69, "velocity": 81, "duration": 49}, {"note": 0, "velocity": 0, "duration": 71}, {"note": 69, "velocity": 99, "duration": 47}, {"note": 0, "velocity": 0, "duration": 73}, {"note": 69, "velocity": 92, "duration": 48}, {"note": 0, "velocity": 0, "duration": 72}, {"note": 69, "velocity": 117, "duration": 119}, {"note": 0, "velocity": 0, "duration": 121}, {"note": 66, "velocity": 117, "duration": 60}, {"note": 64, "velocity": 88, "duration": 109}, {"note": 0, "velocity": 0, "duration": 131}, {"note": 66, "velocity": 100, "duration": 493}, {"note": 69, "velocity": 92, "duration": 46}, {"note": 0, "velocity": 0, "duration": 74}, {"note": 69, "velocity": 93, "duration": 47}, {"note": 0, "velocity": 0, "duration": 73}, {"note": 69, "velocity": 92, "duration": 66}, {"note": 71, "velocity": 112, "duration": 78}, {"note": 0, "velocity": 0, "duration": 402}, {"note": 71, "velocity": 93, "duration": 163}, {"note": 0, "velocity": 0, "duration": 77}, {"note": 69, "velocity": 97, "duration": 96}, {"note": 66, "velocity": 95, "duration": 624}, {"note": 0, "velocity": 0, "duration": 216}, {"note": 66, "velocity": 99, "duration": 49}, {"note": 0, "velocity": 0, "duration": 71}, {"note": 66, "velocity": 93, "duration": 60}, {"note": 69, "velocity": 96, "duration": 53}, {"note": 0, "velocity": 0, "duration": 67}, {"note": 69, "velocity": 89, "duration": 54}, {"note": 0, "velocity": 0, "duration": 66}, {"note": 69, "velocity": 88, "duration": 50}, {"note": 0, "velocity": 0, "duration": 70}, {"note": 69, "velocity": 88, "duration": 51}, {"note": 0, "velocity": 0, "duration": 69}, {"note": 69, "velocity": 97, "duration": 74}, {"note": 0, "velocity": 0, "duration": 166}, {"note": 66, "velocity": 96, "duration": 38}, {"note": 0, "velocity": 0, "duration": 82}, {"note": 64, "velocity": 85, "duration": 151}, {"note": 0, "velocity": 0, "duration": 89}, {"note": 66, "velocity": 100, "duration": 123}, {"note": 0, "velocity": 0, "duration": 117}, {"note": 66, "velocity": 93, "duration": 92}, {"note": 74, "velocity": 102, "duration": 135}, {"note": 0, "velocity": 0, "duration": 105}, {"note": 73, "velocity": 96, "duration": 73}, {"note": 73, "velocity": 112, "duration": 261}, {"note": 71, "velocity": 83, "duration": 877}, {"note": 0, "velocity": 0, "duration": 683}, {"note": 66, "velocity": 107, "duration": 47}, {"note": 0, "velocity": 0, "duration": 73}, {"note": 66, "velocity": 99, "duration": 62}, {"note": 71, "velocity": 107, "duration": 56}, {"note": 0, "velocity": 0, "duration": 64}, {"note": 71, "velocity": 88, "duration": 53}, {"note": 0, "velocity": 0, "duration": 67}, {"note": 71, "velocity": 97, "duration": 46}, {"note": 0, "velocity": 0, "duration": 74}, {"note": 71, "velocity": 100, "duration": 51}, {"note": 0, "velocity": 0, "duration": 69}, {"note": 71, "velocity": 112, "duration": 80}, {"note": 71, "velocity": 117, "duration": 102}, {"note": 0, "velocity": 0, "duration": 138}, {"note": 69, "velocity": 95, "duration": 70}, {"note": 71, "velocity": 117, "duration": 82}, {"note": 74, "velocity": 112, "duration": 192}, {"note": 0, "velocity": 0, "duration": 528}, {"note": 69, "velocity": 93, "duration": 82}, {"note": 66, "velocity": 82, "duration": 158}, {"note": 69, "velocity": 90, "duration": 144}, {"note": 0, "velocity": 0, "duration": 96}, {"note": 66, "velocity": 97, "duration": 1149}, {"note": 0, "velocity": 0, "duration": 171}, {"note": 66, "velocity": 112, "duration": 49}, {"note": 0, "velocity": 0, "duration": 71}, {"note": 66, "velocity": 97, "duration": 65}, {"note": 71, "velocity": 96, "duration": 53}, {"note": 0, "velocity": 0, "duration": 67}, {"note": 71, "velocity": 93, "duration": 54}, {"note": 0, "velocity": 0, "duration": 66}, {"note": 71, "velocity": 92, "duration": 47}, {"note": 0, "velocity": 0, "duration": 73}, {"note": 71, "velocity": 90, "duration": 48}, {"note": 0, "velocity": 0, "duration": 72}, {"note": 71, "velocity": 107, "duration": 54}, {"note": 0, "velocity": 0, "duration": 66}, {"note": 71, "velocity": 82, "duration": 49}, {"note": 0, "velocity": 0, "duration": 71}, {"note": 71, "velocity": 90, "duration": 74}, {"note": 69, "velocity": 88, "duration": 61}, {"note": 71, "velocity": 95, "duration": 152}, {"note": 69, "velocity": 112, "duration": 326}, {"note": 0, "velocity": 0, "duration": 274}, {"note": 66, "velocity": 95, "duration": 69}, {"note": 66, "velocity": 72, "duration": 72}, {"note": 69, "velocity": 97, "duration": 137}, {"note": 0, "velocity": 0, "duration": 103}, {"note": 62, "velocity": 93, "duration": 98}, {"note": 64, "velocity": 100, "duration": 1102}, {"note": 0, "velocity": 0, "duration": 218}, {"note": 66, "velocity": 102, "duration": 55}, {"note": 0, "velocity": 0, "duration": 65}, {"note": 66, "velocity": 96, "duration": 62}, {"note": 69, "velocity": 93, "duration": 52}, {"note": 0, "velocity": 0, "duration": 68}, {"note": 69, "velocity": 93, "duration": 48}, {"note": 0, "velocity": 0, "duration": 72}, {"note": 69, "velocity": 100, "duration": 49}, {"note": 0, "velocity": 0, "duration": 71}, {"note": 69, "velocity": 100, "duration": 50}, {"note": 0, "velocity": 0, "duration": 70}, {"note": 69, "velocity": 117, "duration": 78}, {"note": 0, "velocity": 0, "duration": 162}, {"note": 66, "velocity": 127, "duration": 59}, {"note": 0, "velocity": 0, "duration": 61}, {"note": 64, "velocity": 96, "duration": 195}, {"note": 66, "velocity": 112, "duration": 426}, {"note": 69, "velocity": 92, "duration": 50}, {"note": 0, "velocity": 0, "duration": 70}, {"note": 69, "velocity": 89, "duration": 52}, {"note": 0, "velocity": 0, "duration": 68}, {"note": 69, "velocity": 100, "duration": 76}, {"note": 71, "velocity": 112, "duration": 69}, {"note": 71, "velocity": 99, "duration": 118}, {"note": 0, "velocity": 0, "duration": 122}, {"note": 71, "velocity": 97, "duration": 57}, {"note": 0, "velocity": 0, "duration": 63}, {"note": 71, "velocity": 112, "duration": 149}, {"note": 0, "velocity": 0, "duration": 91}, {"note": 69, "velocity": 102, "duration": 83}, {"note": 66, "velocity": 102, "duration": 476}, {"note": 0, "velocity": 0, "duration": 364}, {"note": 66, "velocity": 112, "duration": 52}, {"note": 0, "velocity": 0, "duration": 68}, {"note": 66, "velocity": 107, "duration": 57}, {"note": 0, "velocity": 0, "duration": 63}, {"note": 69, "velocity": 102, "duration": 55}, {"note": 0, "velocity": 0, "duration": 65}, {"note": 69, "velocity": 88, "duration": 53}, {"note": 0, "velocity": 0, "duration": 67}, {"note": 69, "velocity": 86, "duration": 53}, {"note": 0, "velocity": 0, "duration": 67}, {"note": 69, "velocity": 95, "duration": 48}, {"note": 0, "velocity": 0, "duration": 72}, {"note": 69, "velocity": 107, "duration": 87}, {"note": 0, "velocity": 0, "duration": 153}, {"note": 66, "velocity": 117, "duration": 74}, {"note": 64, "velocity": 95, "duration": 140}, {"note": 0, "velocity": 0, "duration": 100}, {"note": 66, "velocity": 127, "duration": 312}, {"note": 74, "velocity": 117, "duration": 115}, {"note": 73, "velocity": 112, "duration": 127}, {"note": 0, "velocity": 0, "duration": 113}, {"note": 74, "velocity": 97, "duration": 70}, {"note": 73, "velocity": 112, "duration": 233}, {"note": 71, "velocity": 117, "duration": 735}, {"note": 0, "velocity": 0, "duration": 705}, {"note": 66, "velocity": 97, "duration": 47}, {"note": 0, "velocity": 0, "duration": 73}, {"note": 66, "velocity": 97, "duration": 51}, {"note": 0, "velocity": 0, "duration": 69}, {"note": 69, "velocity": 96, "duration": 55}, {"note": 0, "velocity": 0, "duration": 65}, {"note": 69, "velocity": 89, "duration": 56}, {"note": 0, "velocity": 0, "duration": 64}, {"note": 69, "velocity": 83, "duration": 50}, {"note": 0, "velocity": 0, "duration": 70}, {"note": 69, "velocity": 79, "duration": 47}, {"note": 0, "velocity": 0, "duration": 73}, {"note": 69, "velocity": 95, "duration": 105}, {"note": 0, "velocity": 0, "duration": 135}, {"note": 66, "velocity": 99, "duration": 65}, {"note": 64, "velocity": 93, "duration": 160}, {"note": 0, "velocity": 0, "duration": 80}, {"note": 66, "velocity": 112, "duration": 389}, {"note": 0, "velocity": 0, "duration": 91}, {"note": 69, "velocity": 93, "duration": 42}, {"note": 0, "velocity": 0, "duration": 78}, {"note": 69, "velocity": 92, "duration": 44}, {"note": 0, "velocity": 0, "duration": 76}, {"note": 69, "velocity": 95, "duration": 66}, {"note": 71, "velocity": 100, "duration": 79}, {"note": 71, "velocity": 107, "duration": 113}, {"note": 0, "velocity": 0, "duration": 127}, {"note": 71, "velocity": 100, "duration": 59}, {"note": 0, "velocity": 0, "duration": 61}, {"note": 71, "velocity": 127, "duration": 140}, {"note": 0, "velocity": 0, "duration": 100}, {"note": 69, "velocity": 102, "duration": 79}, {"note": 66, "velocity": 100, "duration": 544}, {"note": 0, "velocity": 0, "duration": 296}, {"note": 66, "velocity": 102, "duration": 35}, {"note": 0, "velocity": 0, "duration": 85}, {"note": 66, "velocity": 96, "duration": 51}, {"note": 0, "velocity": 0, "duration": 69}, {"note": 69, "velocity": 96, "duration": 50}, {"note": 0, "velocity": 0, "duration": 70}, {"note": 69, "velocity": 88, "duration": 50}, {"note": 0, "velocity": 0, "duration": 70}, {"note": 69, "velocity": 86, "duration": 45}, {"note": 0, "velocity": 0, "duration": 75}, {"note": 69, "velocity": 90, "duration": 39}, {"note": 0, "velocity": 0, "duration": 81}, {"note": 69, "velocity": 97, "duration": 97}, {"note": 0, "velocity": 0, "duration": 143}, {"note": 66, "velocity": 117, "duration": 56}, {"note": 0, "velocity": 0, "duration": 64}, {"note": 64, "velocity": 90, "duration": 125}, {"note": 0, "velocity": 0, "duration": 115}, {"note": 66, "velocity": 112, "duration": 274}, {"note": 0, "velocity": 0, "duration": 86}, {"note": 78, "velocity": 127, "duration": 57}, {"note": 0, "velocity": 0, "duration": 63}, {"note": 76, "velocity": 112, "duration": 152}, {"note": 0, "velocity": 0, "duration": 88}, {"note": 78, "velocity": 107, "duration": 57}, {"note": 0, "velocity": 0, "duration": 63}, {"note": 78, "velocity": 127, "duration": 164}, {"note": 0, "velocity": 0, "duration": 76}, {"note": 78, "velocity": 127, "duration": 1028}, {"note": 0, "velocity": 0, "duration": 652}, {"note": 78, "velocity": 117, "duration": 256}, {"note": 0, "velocity": 0, "duration": 224}, {"note": 71, "velocity": 122, "duration": 151}, {"note": 0, "velocity": 0, "duration": 89}, {"note": 74, "velocity": 122, "duration": 130}, {"note": 0, "velocity": 0, "duration": 110}, {"note": 66, "velocity": 107, "duration": 116}, {"note": 69, "velocity": 76, "duration": 132}, {"note": 66, "velocity": 112, "duration": 310}, {"note": 0, "velocity": 0, "duration": 410}, {"note": 74, "velocity": 117, "duration": 72}, {"note": 74, "velocity": 112, "duration": 117}, {"note": 0, "velocity": 0, "duration": 123}, {"note": 74, "velocity": 99, "duration": 48}, {"note": 0, "velocity": 0, "duration": 72}, {"note": 74, "velocity": 127, "duration": 119}, {"note": 71, "velocity": 96, "duration": 94}, {"note": 0, "velocity": 0, "duration": 146}, {"note": 78, "velocity": 127, "duration": 62}, {"note": 78, "velocity": 127, "duration": 524}, {"note": 0, "velocity": 0, "duration": 316}, {"note": 71, "velocity": 93, "duration": 79}, {"note": 81, "velocity": 112, "duration": 144}, {"note": 0, "velocity": 0, "duration": 96}, {"note": 71, "velocity": 112, "duration": 49}, {"note": 0, "velocity": 0, "duration": 71}, {"note": 71, "velocity": 102, "duration": 48}, {"note": 0, "velocity": 0, "duration": 72}, {"note": 71, "velocity": 112, "duration": 70}, {"note": 78, "velocity": 127, "duration": 110}, {"note": 0, "velocity": 0, "duration": 130}, {"note": 78, "velocity": 127, "duration": 49}, {"note": 0, "velocity": 0, "duration": 71}, {"note": 76, "velocity": 127, "duration": 64}, {"note": 78, "velocity": 127, "duration": 196}, {"note": 69, "velocity": 112, "duration": 171}, {"note": 0, "velocity": 0, "duration": 429}, {"note": 74, "velocity": 102, "duration": 41}, {"note": 0, "velocity": 0, "duration": 79}, {"note": 74, "velocity": 90, "duration": 42}, {"note": 0, "velocity": 0, "duration": 78}, {"note": 74, "velocity": 82, "duration": 40}, {"note": 0, "velocity": 0, "duration": 80}, {"note": 74, "velocity": 93, "duration": 36}, {"note": 0, "velocity": 0, "duration": 84}, {"note": 78, "velocity": 127, "duration": 56}, {"note": 0, "velocity": 0, "duration": 184}, {"note": 81, "velocity": 127, "duration": 88}, {"note": 78, "velocity": 127, "duration": 246}, {"note": 76, "velocity": 102, "duration": 341}, {"note": 0, "velocity": 0, "duration": 499}, {"note": 78, "velocity": 127, "duration": 343}, {"note": 0, "velocity": 0, "duration": 137}, {"note": 71, "velocity": 102, "duration": 161}, {"note": 0, "velocity": 0, "duration": 79}, {"note": 74, "velocity": 122, "duration": 156}, {"note": 0, "velocity": 0, "duration": 84}, {"note": 66, "velocity": 127, "duration": 118}, {"note": 69, "velocity": 96, "duration": 102}, {"note": 66, "velocity": 102, "duration": 393}, {"note": 0, "velocity": 0, "duration": 327}, {"note": 74, "velocity": 127, "duration": 63}, {"note": 74, "velocity": 112, "duration": 81}, {"note": 0, "velocity": 0, "duration": 159}, {"note": 74, "velocity": 107, "duration": 49}, {"note": 0, "velocity": 0, "duration": 71}, {"note": 74, "velocity": 112, "duration": 67}, {"note": 71, "velocity": 96, "duration": 123}, {"note": 0, "velocity": 0, "duration": 117}, {"note": 78, "velocity": 117, "duration": 57}, {"note": 0, "velocity": 0, "duration": 63}, {"note": 78, "velocity": 117, "duration": 367}, {"note": 0, "velocity": 0, "duration": 473}, {"note": 71, "velocity": 95, "duration": 90}, {"note": 81, "velocity": 127, "duration": 151}, {"note": 0, "velocity": 0, "duration": 89}, {"note": 71, "velocity": 107, "duration": 51}, {"note": 0, "velocity": 0, "duration": 69}, {"note": 71, "velocity": 93, "duration": 47}, {"note": 0, "velocity": 0, "duration": 73}, {"note": 71, "velocity": 112, "duration": 128}, {"note": 0, "velocity": 0, "duration": 112}, {"note": 78, "velocity": 127, "duration": 60}, {"note": 78, "velocity": 107, "duration": 99}, {"note": 76, "velocity": 127, "duration": 93}, {"note": 78, "velocity": 127, "duration": 138}, {"note": 0, "velocity": 0, "duration": 102}, {"note": 69, "velocity": 107, "duration": 308}, {"note": 0, "velocity": 0, "duration": 292}, {"note": 74, "velocity": 122, "duration": 44}, {"note": 0, "velocity": 0, "duration": 76}, {"note": 74, "velocity": 96, "duration": 50}, {"note": 0, "velocity": 0, "duration": 70}, {"note": 74, "velocity": 97, "duration": 45}, {"note": 0, "velocity": 0, "duration": 75}, {"note": 74, "velocity": 99, "duration": 46}, {"note": 0, "velocity": 0, "duration": 74}, {"note": 78, "velocity": 127, "duration": 55}, {"note": 0, "velocity": 0, "duration": 185}, {"note": 81, "velocity": 127, "duration": 72}, {"note": 78, "velocity": 117, "duration": 203}, {"note": 76, "velocity": 117, "duration": 840}, {"note": 0, "velocity": 0, "duration": 480}, {"note": 78, "velocity": 117, "duration": 161}, {"note": 0, "velocity": 0, "duration": 79}, {"note": 78, "velocity": 112, "duration": 56}, {"note": 0, "velocity": 0, "duration": 64}, {"note": 76, "velocity": 117, "duration": 226}, {"note": 74, "velocity": 99, "duration": 1415}, {"note": 0, "velocity": 0, "duration": 14545}, {"note": 66, "velocity": 107, "duration": 47}, {"note": 0, "velocity": 0, "duration": 73}, {"note": 66, "velocity": 99, "duration": 62}, {"note": 71, "velocity": 107, "duration": 56}, {"note": 0, "velocity": 0, "duration": 64}, {"note": 71, "velocity": 88, "duration": 53}, {"note": 0, "velocity": 0, "duration": 67}, {"note": 71, "velocity": 97, "duration": 46}, {"note": 0, "velocity": 0, "duration": 74}, {"note": 71, "velocity": 100, "duration": 51}, {"note": 0, "velocity": 0, "duration": 69}, {"note": 71, "velocity": 112, "duration": 80}, {"note": 71, "velocity": 117, "duration": 102}, {"note": 0, "velocity": 0, "duration": 138}, {"note": 69, "velocity": 95, "duration": 70}, {"note": 71, "velocity": 117, "duration": 82}, {"note": 74, "velocity": 112, "duration": 192}, {"note": 0, "velocity": 0, "duration": 528}, {"note": 69, "velocity": 93, "duration": 82}, {"note": 66, "velocity": 82, "duration": 158}, {"note": 69, "velocity": 90, "duration": 144}, {"note": 0, "velocity": 0, "duration": 96}, {"note": 66, "velocity": 97, "duration": 1149}, {"note": 0, "velocity": 0, "duration": 171}, {"note": 66, "velocity": 112, "duration": 49}, {"note": 0, "velocity": 0, "duration": 71}, {"note": 66, "velocity": 97, "duration": 65}, {"note": 71, "velocity": 96, "duration": 53}, {"note": 0, "velocity": 0, "duration": 67}, {"note": 71, "velocity": 93, "duration": 54}, {"note": 0, "velocity": 0, "duration": 66}, {"note": 71, "velocity": 92, "duration": 47}, {"note": 0, "velocity": 0, "duration": 73}, {"note": 71, "velocity": 90, "duration": 48}, {"note": 0, "velocity": 0, "duration": 72}, {"note": 71, "velocity": 107, "duration": 54}, {"note": 0, "velocity": 0, "duration": 66}, {"note": 71, "velocity": 82, "duration": 49}, {"note": 0, "velocity": 0, "duration": 71}, {"note": 71, "velocity": 90, "duration": 74}, {"note": 69, "velocity": 88, "duration": 61}, {"note": 71, "velocity": 95, "duration": 152}, {"note": 69, "velocity": 112, "duration": 326}, {"note": 0, "velocity": 0, "duration": 274}, {"note": 66, "velocity": 95, "duration": 69}, {"note": 66, "velocity": 72, "duration": 72}, {"note": 69, "velocity": 97, "duration": 137}, {"note": 0, "velocity": 0, "duration": 103}, {"note": 62, "velocity": 93, "duration": 98}, {"note": 64, "velocity": 100, "duration": 1102}, {"note": 0, "velocity": 0, "duration": 218}, {"note": 66, "velocity": 102, "duration": 55}, {"note": 0, "velocity": 0, "duration": 65}, {"note": 66, "velocity": 96, "duration": 62}, {"note": 69, "velocity": 93, "duration": 52}, {"note": 0, "velocity": 0, "duration": 68}, {"note": 69, "velocity": 93, "duration": 48}, {"note": 0, "velocity": 0, "duration": 72}, {"note": 69, "velocity": 100, "duration": 49}, {"note": 0, "velocity": 0, "duration": 71}, {"note": 69, "velocity": 100, "duration": 50}, {"note": 0, "velocity": 0, "duration": 70}, {"note": 69, "velocity": 117, "duration": 78}, {"note": 0, "velocity": 0, "duration": 162}, {"note": 66, "velocity": 127, "duration": 59}, {"note": 0, "velocity": 0, "duration": 61}, {"note": 64, "velocity": 96, "duration": 195}, {"note": 66, "velocity": 112, "duration": 426}, {"note": 69, "velocity": 92, "duration": 50}, {"note": 0, "velocity": 0, "duration": 70}, {"note": 69, "velocity": 89, "duration": 52}, {"note": 0, "velocity": 0, "duration": 68}, {"note": 69, "velocity": 100, "duration": 76}, {"note": 71, "velocity": 112, "duration": 69}, {"note": 71, "velocity": 99, "duration": 118}, {"note": 0, "velocity": 0, "duration": 122}, {"note": 71, "velocity": 97, "duration": 57}, {"note": 0, "velocity": 0, "duration": 63}, {"note": 71, "velocity": 112, "duration": 149}, {"note": 0, "velocity": 0, "duration": 91}, {"note": 69, "velocity": 102, "duration": 83}, {"note": 66, "velocity": 102, "duration": 476}, {"note": 0, "velocity": 0, "duration": 364}, {"note": 66, "velocity": 112, "duration": 52}, {"note": 0, "velocity": 0, "duration": 68}, {"note": 66, "velocity": 107, "duration": 57}, {"note": 0, "velocity": 0, "duration": 63}, {"note": 69, "velocity": 102, "duration": 55}, {"note": 0, "velocity": 0, "duration": 65}, {"note": 69, "velocity": 88, "duration": 53}, {"note": 0, "velocity": 0, "duration": 67}, {"note": 69, "velocity": 86, "duration": 53}, {"note": 0, "velocity": 0, "duration": 67}, {"note": 69, "velocity": 95, "duration": 48}, {"note": 0, "velocity": 0, "duration": 72}, {"note": 69, "velocity": 107, "duration": 87}, {"note": 0, "velocity": 0, "duration": 153}, {"note": 66, "velocity": 117, "duration": 74}, {"note": 64, "velocity": 95, "duration": 140}, {"note": 0, "velocity": 0, "duration": 100}, {"note": 66, "velocity": 127, "duration": 312}, {"note": 74, "velocity": 117, "duration": 115}, {"note": 73, "velocity": 112, "duration": 127}, {"note": 0, "velocity": 0, "duration": 113}, {"note": 74, "velocity": 97, "duration": 70}, {"note": 73, "velocity": 112, "duration": 233}, {"note": 71, "velocity": 117, "duration": 735}, {"note": 0, "velocity": 0, "duration": 705}, {"note": 66, "velocity": 97, "duration": 47}, {"note": 0, "velocity": 0, "duration": 73}, {"note": 66, "velocity": 97, "duration": 51}, {"note": 0, "velocity": 0, "duration": 69}, {"note": 69, "velocity": 96, "duration": 55}, {"note": 0, "velocity": 0, "duration": 65}, {"note": 69, "velocity": 89, "duration": 56}, {"note": 0, "velocity": 0, "duration": 64}, {"note": 69, "velocity": 83, "duration": 50}, {"note": 0, "velocity": 0, "duration": 70}, {"note": 69, "velocity": 79, "duration": 47}, {"note": 0, "velocity": 0, "duration": 73}, {"note": 69, "velocity": 95, "duration": 105}, {"note": 0, "velocity": 0, "duration": 135}, {"note": 66, "velocity": 99, "duration": 65}, {"note": 64, "velocity": 93, "duration": 160}, {"note": 0, "velocity": 0, "duration": 80}, {"note": 66, "velocity": 112, "duration": 389}, {"note": 0, "velocity": 0, "duration": 91}, {"note": 69, "velocity": 93, "duration": 42}, {"note": 0, "velocity": 0, "duration": 78}, {"note": 69, "velocity": 92, "duration": 44}, {"note": 0, "velocity": 0, "duration": 76}, {"note": 69, "velocity": 95, "duration": 66}, {"note": 71, "velocity": 100, "duration": 79}, {"note": 71, "velocity": 107, "duration": 113}, {"note": 0, "velocity": 0, "duration": 127}, {"note": 71, "velocity": 100, "duration": 59}, {"note": 0, "velocity": 0, "duration": 61}, {"note": 71, "velocity": 127, "duration": 140}, {"note": 0, "velocity": 0, "duration": 100}, {"note": 69, "velocity": 102, "duration": 79}, {"note": 66, "velocity": 100, "duration": 544}, {"note": 0, "velocity": 0, "duration": 296}, {"note": 66, "velocity": 102, "duration": 35}, {"note": 0, "velocity": 0, "duration": 85}, {"note": 66, "velocity": 96, "duration": 51}, {"note": 0, "velocity": 0, "duration": 69}, {"note": 69, "velocity": 96, "duration": 50}, {"note": 0, "velocity": 0, "duration": 70}, {"note": 69, "velocity": 88, "duration": 50}, {"note": 0, "velocity": 0, "duration": 70}, {"note": 69, "velocity": 86, "duration": 45}, {"note": 0, "velocity": 0, "duration": 75}, {"note": 69, "velocity": 90, "duration": 39}, {"note": 0, "velocity": 0, "duration": 81}, {"note": 69, "velocity": 97, "duration": 97}, {"note": 0, "velocity": 0, "duration": 143}, {"note": 66, "velocity": 117, "duration": 56}, {"note": 0, "velocity": 0, "duration": 64}, {"note": 64, "velocity": 90, "duration": 125}, {"note": 0, "velocity": 0, "duration": 115}, {"note": 66, "velocity": 112, "duration": 274}, {"note": 0, "velocity": 0, "duration": 86}, {"note": 78, "velocity": 127, "duration": 57}, {"note": 0, "velocity": 0, "duration": 63}, {"note": 76, "velocity": 112, "duration": 152}, {"note": 0, "velocity": 0, "duration": 88}, {"note": 78, "velocity": 107, "duration": 57}, {"note": 0, "velocity": 0, "duration": 63}, {"note": 78, "velocity": 127, "duration": 164}, {"note": 0, "velocity": 0, "duration": 76}, {"note": 78, "velocity": 127, "duration": 1028}, {"note": 0, "velocity": 0, "duration": 652}, {"note": 78, "velocity": 117, "duration": 256}, {"note": 0, "velocity": 0, "duration": 224}, {"note": 71, "velocity": 122, "duration": 151}, {"note": 0, "velocity": 0, "duration": 89}, {"note": 74, "velocity": 122, "duration": 130}, {"note": 0, "velocity": 0, "duration": 110}, {"note": 66, "velocity": 107, "duration": 116}, {"note": 69, "velocity": 76, "duration": 132}, {"note": 66, "velocity": 112, "duration": 310}, {"note": 0, "velocity": 0, "duration": 410}, {"note": 74, "velocity": 117, "duration": 72}, {"note": 74, "velocity": 112, "duration": 117}, {"note": 0, "velocity": 0, "duration": 123}, {"note": 74, "velocity": 99, "duration": 48}, {"note": 0, "velocity": 0, "duration": 72}, {"note": 74, "velocity": 127, "duration": 119}, {"note": 71, "velocity": 96, "duration": 94}, {"note": 0, "velocity": 0, "duration": 146}, {"note": 78, "velocity": 127, "duration": 62}, {"note": 78, "velocity": 127, "duration": 524}, {"note": 0, "velocity": 0, "duration": 316}, {"note": 71, "velocity": 93, "duration": 79}, {"note": 81, "velocity": 112, "duration": 144}, {"note": 0, "velocity": 0, "duration": 96}, {"note": 71, "velocity": 112, "duration": 49}, {"note": 0, "velocity": 0, "duration": 71}, {"note": 71, "velocity": 102, "duration": 48}, {"note": 0, "velocity": 0, "duration": 72}, {"note": 71, "velocity": 112, "duration": 70}, {"note": 78, "velocity": 127, "duration": 110}, {"note": 0, "velocity": 0, "duration": 130}, {"note": 78, "velocity": 127, "duration": 49}, {"note": 0, "velocity": 0, "duration": 71}, {"note": 76, "velocity": 127, "duration": 64}, {"note": 78, "velocity": 127, "duration": 196}, {"note": 69, "velocity": 112, "duration": 171}, {"note": 0, "velocity": 0, "duration": 429}, {"note": 74, "velocity": 102, "duration": 41}, {"note": 0, "velocity": 0, "duration": 79}, {"note": 74, "velocity": 90, "duration": 42}, {"note": 0, "velocity": 0, "duration": 78}, {"note": 74, "velocity": 82, "duration": 40}, {"note": 0, "velocity": 0, "duration": 80}, {"note": 74, "velocity": 93, "duration": 36}, {"note": 0, "velocity": 0, "duration": 84}, {"note": 78, "velocity": 127, "duration": 56}, {"note": 0, "velocity": 0, "duration": 184}, {"note": 81, "velocity": 127, "duration": 88}, {"note": 78, "velocity": 127, "duration": 246}, {"note": 76, "velocity": 102, "duration": 341}, {"note": 0, "velocity": 0, "duration": 499}, {"note": 78, "velocity": 127, "duration": 343}, {"note": 0, "velocity": 0, "duration": 137}, {"note": 71, "velocity": 102, "duration": 161}, {"note": 0, "velocity": 0, "duration": 79}, {"note": 74, "velocity": 122, "duration": 156}, {"note": 0, "velocity": 0, "duration": 84}, {"note": 66, "velocity": 127, "duration": 118}, {"note": 69, "velocity": 96, "duration": 102}, {"note": 66, "velocity": 102, "duration": 393}, {"note": 0, "velocity": 0, "duration": 327}, {"note": 74, "velocity": 127, "duration": 63}, {"note": 74, "velocity": 112, "duration": 81}, {"note": 0, "velocity": 0, "duration": 159}, {"note": 74, "velocity": 107, "duration": 49}, {"note": 0, "velocity": 0, "duration": 71}, {"note": 74, "velocity": 112, "duration": 67}, {"note": 71, "velocity": 96, "duration": 123}, {"note": 0, "velocity": 0, "duration": 117}, {"note": 78, "velocity": 117, "duration": 57}, {"note": 0, "velocity": 0, "duration": 63}, {"note": 78, "velocity": 117, "duration": 367}, {"note": 0, "velocity": 0, "duration": 473}, {"note": 71, "velocity": 95, "duration": 90}, {"note": 81, "velocity": 127, "duration": 151}, {"note": 0, "velocity": 0, "duration": 89}, {"note": 71, "velocity": 107, "duration": 51}, {"note": 0, "velocity": 0, "duration": 69}, {"note": 71, "velocity": 93, "duration": 47}, {"note": 0, "velocity": 0, "duration": 73}, {"note": 71, "velocity": 112, "duration": 128}, {"note": 0, "velocity": 0, "duration": 112}, {"note": 78, "velocity": 127, "duration": 60}, {"note": 78, "velocity": 107, "duration": 99}, {"note": 76, "velocity": 127, "duration": 93}, {"note": 78, "velocity": 127, "duration": 138}, {"note": 0, "velocity": 0, "duration": 102}, {"note": 69, "velocity": 107, "duration": 308}, {"note": 0, "velocity": 0, "duration": 292}, {"note": 74, "velocity": 122, "duration": 44}, {"note": 0, "velocity": 0, "duration": 76}, {"note": 74, "velocity": 96, "duration": 50}, {"note": 0, "velocity": 0, "duration": 70}, {"note": 74, "velocity": 97, "duration": 45}, {"note": 0, "velocity": 0, "duration": 75}, {"note": 74, "velocity": 99, "duration": 46}, {"note": 0, "velocity": 0, "duration": 74}, {"note": 78, "velocity": 127, "duration": 55}, {"note": 0, "velocity": 0, "duration": 185}, {"note": 81, "velocity": 127, "duration": 72}, {"note": 78, "velocity": 117, "duration": 203}, {"note": 76, "velocity": 117, "duration": 840}, {"note": 0, "velocity": 0, "duration": 480}, {"note": 78, "velocity": 117, "duration": 161}, {"note": 0, "velocity": 0, "duration": 79}, {"note": 78, "velocity": 112, "duration": 56}, {"note": 0, "velocity": 0, "duration": 64}, {"note": 76, "velocity": 117, "duration": 226}, {"note": 74, "velocity": 99, "duration": 1415}, {"note": 0, "velocity": 0, "duration": 385}, {"note": 74, "velocity": 117, "duration": 33}, {"note": 0, "velocity": 0, "duration": 87}, {"note": 74, "velocity": 100, "duration": 34}, {"note": 0, "velocity": 0, "duration": 86}, {"note": 74, "velocity": 99, "duration": 28}, {"note": 0, "velocity": 0, "duration": 92}, {"note": 74, "velocity": 90, "duration": 47}, {"note": 0, "velocity": 0, "duration": 73}, {"note": 78, "velocity": 117, "duration": 135}, {"note": 0, "velocity": 0, "duration": 105}, {"note": 81, "velocity": 117, "duration": 48}, {"note": 0, "velocity": 0, "duration": 72}, {"note": 78, "velocity": 122, "duration": 194}, {"note": 76, "velocity": 122, "duration": 1062}, {"note": 0, "velocity": 0, "duration": 1218}, {"note": 78, "velocity": 127, "duration": 113}, {"note": 78, "velocity": 112, "duration": 889}, {"note": 0, "velocity": 0, "duration": 431}, {"note": 76, "velocity": 100, "duration": 249}, {"note": 74, "velocity": 112, "duration": 1736}]]