[[{"note": 69, "velocity": 112, "duration": 199}, {"note": 0, "velocity": 0, "duration": 281}, {"note": 69, "velocity": 100, "duration": 140}, {"note": 0, "velocity": 0, "duration": 100}, {"note": 67, "velocity": 77, "duration": 120}, {"note": 0, "velocity": 0, "duration": 120}, {"note": 69, "velocity": 102, "duration": 193}, {"note": 0, "velocity": 0, "duration": 287}, {"note": 69, "velocity": 97, "duration": 130}, {"note": 0, "velocity": 0, "duration": 110}, {"note": 67, "velocity": 89, "duration": 110}, {"note": 0, "velocity": 0, "duration": 130}, {"note": 69, "velocity": 99, "duration": 92}, {"note": 0, "velocity": 0, "duration": 148}, {"note": 72, "velocity": 96, "duration": 84}, {"note": 0, "velocity": 0, "duration": 156}, {"note": 69, "velocity": 99, "duration": 85}, {"note": 0, "velocity": 0, "duration": 155}, {"note": 67, "velocity": 93, "duration": 126}, {"note": 0, "velocity": 0, "duration": 114}, {"note": 69, "velocity": 122, "duration": 226}, {"note": 0, "velocity": 0, "duration": 734}, {"note": 62, "velocity": 92, "duration": 156}, {"note": 0, "velocity": 0, "duration": 324}, {"note": 62, "velocity": 93, "duration": 133}, {"note": 0, "velocity": 0, "duration": 107}, {"note": 64, "velocity": 96, "duration": 123}, {"note": 0, "velocity": 0, "duration": 117}, {"note": 67, "velocity": 107, "duration": 164}, {"note": 0, "velocity": 0, "duration": 316}, {"note": 67, "velocity": 90, "duration": 108}, {"note": 0, "velocity": 0, "duration": 132}, {"note": 64, "velocity": 97, "duration": 147}, {"note": 0, "velocity": 0, "duration": 93}, {"note": 62, "velocity": 89, "duration": 120}, {"note": 0, "velocity": 0, "duration": 120}, {"note": 64, "velocity": 82, "duration": 145}, {"note": 0, "velocity": 0, "duration": 95}, {"note": 62, "velocity": 96, "duration": 144}, {"note": 0, "velocity": 0, "duration": 96}, {"note": 60, "velocity": 89, "duration": 105}, {"note": 0, "velocity": 0, "duration": 135}, {"note": 57, "velocity": 100, "duration": 285}, {"note": 0, "velocity": 0, "duration": 3075}, {"note": 72, "velocity": 117, "duration": 242}, {"note": 71, "velocity": 70, "duration": 322}, {"note": 72, "velocity": 102, "duration": 251}, {"note": 0, "velocity": 0, "duration": 3109}, {"note": 69, "velocity": 112, "duration": 271}, {"note": 67, "velocity": 86, "duration": 294}, {"note": 69, "velocity": 93, "duration": 571}, {"note": 0, "velocity": 0, "duration": 5669}, {"note": 72, "velocity": 107, "duration": 142}, {"note": 0, "velocity": 0, "duration": 818}, {"note": 72, "velocity": 112, "duration": 100}, {"note": 0, "velocity": 0, "duration": 140}, {"note": 72, "velocity": 97, "duration": 103}, {"note": 0, "velocity": 0, "duration": 137}, {"note": 72, "velocity": 127, "duration": 203}, {"note": 0, "velocity": 0, "duration": 277}, {"note": 72, "velocity": 122, "duration": 193}, {"note": 0, "velocity": 0, "duration": 287}, {"note": 69, "velocity": 112, "duration": 959}, {"note": 0, "velocity": 0, "duration": 481}, {"note": 64, "velocity": 107, "duration": 362}, {"note": 0, "velocity": 0, "duration": 118}, {"note": 72, "velocity": 127, "duration": 502}, {"note": 69, "velocity": 127, "duration": 194}, {"note": 72, "velocity": 88, "duration": 220}, {"note": 69, "velocity": 127, "duration": 461}, {"note": 0, "velocity": 0, "duration": 499}, {"note": 67, "velocity": 102, "duration": 315}, {"note": 0, "velocity": 0, "duration": 165}, {"note": 67, "velocity": 96, "duration": 299}, {"note": 64, "velocity": 78, "duration": 251}, {"note": 62, "velocity": 96, "duration": 349}, {"note": 60, "velocity": 102, "duration": 169}, {"note": 0, "velocity": 0, "duration": 71}, {"note": 62, "velocity": 96, "duration": 216}, {"note": 64, "velocity": 96, "duration": 227}, {"note": 57, "velocity": 100, "duration": 1021}, {"note": 0, "velocity": 0, "duration": 899}, {"note": 60, "velocity": 112, "duration": 501}, {"note": 0, "velocity": 0, "duration": 219}, {"note": 60, "velocity": 100, "duration": 158}, {"note": 0, "velocity": 0, "duration": 82}, {"note": 57, "velocity": 89, "duration": 449}, {"note": 60, "velocity": 97, "duration": 387}, {"note": 0, "velocity": 0, "duration": 93}, {"note": 62, "velocity": 96, "duration": 284}, {"note": 0, "velocity": 0, "duration": 196}, {"note": 64, "velocity": 112, "duration": 253}, {"note": 67, "velocity": 89, "duration": 248}, {"note": 64, "velocity": 100, "duration": 254}, {"note": 62, "velocity": 92, "duration": 225}, {"note": 60, "velocity": 99, "duration": 255}, {"note": 62, "velocity": 95, "duration": 220}, {"note": 64, "velocity": 100, "duration": 2000}, {"note": 0, "velocity": 0, "duration": 1840}, {"note": 69, "velocity": 127, "duration": 1095}, {"note": 0, "velocity": 0, "duration": 345}, {"note": 69, "velocity": 127, "duration": 256}, {"note": 67, "velocity": 85, "duration": 292}, {"note": 69, "velocity": 122, "duration": 434}, {"note": 72, "velocity": 112, "duration": 248}, {"note": 0, "velocity": 0, "duration": 232}, {"note": 72, "velocity": 127, "duration": 546}, {"note": 0, "velocity": 0, "duration": 414}, {"note": 69, "velocity": 122, "duration": 213}, {"note": 72, "velocity": 88, "duration": 219}, {"note": 69, "velocity": 99, "duration": 216}, {"note": 72, "velocity": 102, "duration": 237}, {"note": 69, "velocity": 112, "duration": 304}, {"note": 0, "velocity": 0, "duration": 176}, {"note": 67, "velocity": 93, "duration": 480}, {"note": 64, "velocity": 99, "duration": 596}, {"note": 0, "velocity": 0, "duration": 1324}, {"note": 62, "velocity": 107, "duration": 334}, {"note": 0, "velocity": 0, "duration": 146}, {"note": 64, "velocity": 117, "duration": 316}, {"note": 0, "velocity": 0, "duration": 164}, {"note": 60, "velocity": 102, "duration": 343}, {"note": 0, "velocity": 0, "duration": 137}, {"note": 62, "velocity": 112, "duration": 330}, {"note": 59, "velocity": 99, "duration": 635}, {"note": 0, "velocity": 0, "duration": 445}, {"note": 55, "velocity": 102, "duration": 437}, {"note": 57, "velocity": 100, "duration": 243}, {"note": 59, "velocity": 99, "duration": 377}, {"note": 0, "velocity": 0, "duration": 103}, {"note": 57, "velocity": 127, "duration": 1649}, {"note": 0, "velocity": 0, "duration": 1951}, {"note": 69, "velocity": 117, "duration": 264}, {"note": 0, "velocity": 0, "duration": 216}, {"note": 69, "velocity": 122, "duration": 198}, {"note": 67, "velocity": 93, "duration": 193}, {"note": 64, "velocity": 100, "duration": 383}, {"note": 0, "velocity": 0, "duration": 97}, {"note": 67, "velocity": 122, "duration": 333}, {"note": 0, "velocity": 0, "duration": 147}, {"note": 69, "velocity": 127, "duration": 668}, {"note": 0, "velocity": 0, "duration": 504}, {"note": 69, "velocity": 92, "duration": 145}, {"note": 72, "velocity": 86, "duration": 130}, {"note": 67, "velocity": 96, "duration": 580}, {"note": 60, "velocity": 99, "duration": 552}, {"note": 0, "velocity": 0, "duration": 168}, {"note": 64, "velocity": 97, "duration": 210}, {"note": 62, "velocity": 112, "duration": 342}, {"note": 0, "velocity": 0, "duration": 138}, {"note": 60, "velocity": 96, "duration": 314}, {"note": 0, "velocity": 0, "duration": 166}, {"note": 62, "velocity": 107, "duration": 606}, {"note": 0, "velocity": 0, "duration": 1314}, {"note": 62, "velocity": 127, "duration": 368}, {"note": 0, "velocity": 0, "duration": 112}, {"note": 64, "velocity": 127, "duration": 314}, {"note": 0, "velocity": 0, "duration": 166}, {"note": 67, "velocity": 122, "duration": 340}, {"note": 0, "velocity": 0, "duration": 140}, {"note": 67, "velocity": 117, "duration": 241}, {"note": 0, "velocity": 0, "duration": 239}, {"note": 62, "velocity": 117, "duration": 279}, {"note": 60, "velocity": 92, "duration": 179}, {"note": 0, "velocity": 0, "duration": 61}, {"note": 62, "velocity": 97, "duration": 266}, {"note": 60, "velocity": 93, "duration": 214}, {"note": 57, "velocity": 112, "duration": 959}, {"note": 67, "velocity": 112, "duration": 120}, {"note": 0, "velocity": 0, "duration": 120}, {"note": 67, "velocity": 92, "duration": 97}, {"note": 0, "velocity": 0, "duration": 143}, {"note": 67, "velocity": 96, "duration": 158}, {"note": 0, "velocity": 0, "duration": 82}, {"note": 64, "velocity": 95, "duration": 179}, {"note": 0, "velocity": 0, "duration": 61}, {"note": 67, "velocity": 122, "duration": 370}, {"note": 0, "velocity": 0, "duration": 110}, {"note": 69, "velocity": 107, "duration": 367}, {"note": 67, "velocity": 122, "duration": 213}, {"note": 69, "velocity": 117, "duration": 656}, {"note": 0, "velocity": 0, "duration": 1264}, {"note": 67, "velocity": 117, "duration": 91}, {"note": 0, "velocity": 0, "duration": 149}, {"note": 67, "velocity": 97, "duration": 84}, {"note": 0, "velocity": 0, "duration": 156}, {"note": 67, "velocity": 107, "duration": 134}, {"note": 0, "velocity": 0, "duration": 106}, {"note": 69, "velocity": 122, "duration": 141}, {"note": 0, "velocity": 0, "duration": 99}, {"note": 72, "velocity": 127, "duration": 262}, {"note": 0, "velocity": 0, "duration": 218}, {"note": 69, "velocity": 127, "duration": 229}, {"note": 67, "velocity": 95, "duration": 211}, {"note": 64, "velocity": 112, "duration": 752}, {"note": 0, "velocity": 0, "duration": 1168}, {"note": 62, "velocity": 122, "duration": 454}, {"note": 64, "velocity": 127, "duration": 466}, {"note": 60, "velocity": 107, "duration": 347}, {"note": 0, "velocity": 0, "duration": 133}, {"note": 62, "velocity": 99, "duration": 396}, {"note": 0, "velocity": 0, "duration": 84}, {"note": 59, "velocity": 99, "duration": 415}, {"note": 0, "velocity": 0, "duration": 545}, {"note": 55, "velocity": 93, "duration": 256}, {"note": 57, "velocity": 76, "duration": 264}, {"note": 59, "velocity": 83, "duration": 795}, {"note": 57, "velocity": 100, "duration": 2424}, {"note": 0, "velocity": 0, "duration": 11256}, {"note": 72, "velocity": 117, "duration": 242}, {"note": 71, "velocity": 70, "duration": 322}, {"note": 72, "velocity": 102, "duration": 251}, {"note": 0, "velocity": 0, "duration": 3109}, {"note": 69, "velocity": 112, "duration": 271}, {"note": 67, "velocity": 86, "duration": 294}, {"note": 69, "velocity": 93, "duration": 571}, {"note": 0, "velocity": 0, "duration": 5669}, {"note": 72, "velocity": 107, "duration": 142}, {"note": 0, "velocity": 0, "duration": 818}, {"note": 72, "velocity": 112, "duration": 100}, {"note": 0, "velocity": 0, "duration": 140}, {"note": 72, "velocity": 97, "duration": 103}, {"note": 0, "velocity": 0, "duration": 137}, {"note": 72, "velocity": 127, "duration": 203}, {"note": 0, "velocity": 0, "duration": 277}, {"note": 72, "velocity": 122, "duration": 193}, {"note": 0, "velocity": 0, "duration": 287}, {"note": 69, "velocity": 112, "duration": 959}, {"note": 0, "velocity": 0, "duration": 481}, {"note": 64, "velocity": 107, "duration": 362}, {"note": 0, "velocity": 0, "duration": 118}, {"note": 72, "velocity": 127, "duration": 502}, {"note": 69, "velocity": 127, "duration": 194}, {"note": 72, "velocity": 88, "duration": 220}, {"note": 69, "velocity": 127, "duration": 461}, {"note": 0, "velocity": 0, "duration": 499}, {"note": 67, "velocity": 102, "duration": 315}, {"note": 0, "velocity": 0, "duration": 165}, {"note": 67, "velocity": 96, "duration": 299}, {"note": 64, "velocity": 78, "duration": 251}, {"note": 62, "velocity": 96, "duration": 349}, {"note": 60, "velocity": 102, "duration": 169}, {"note": 0, "velocity": 0, "duration": 71}, {"note": 62, "velocity": 96, "duration": 216}, {"note": 64, "velocity": 96, "duration": 227}, {"note": 57, "velocity": 100, "duration": 1021}, {"note": 0, "velocity": 0, "duration": 899}, {"note": 60, "velocity": 112, "duration": 501}, {"note": 0, "velocity": 0, "duration": 219}, {"note": 60, "velocity": 100, "duration": 158}, {"note": 0, "velocity": 0, "duration": 82}, {"note": 57, "velocity": 89, "duration": 449}, {"note": 60, "velocity": 97, "duration": 387}, {"note": 0, "velocity": 0, "duration": 93}, {"note": 62, "velocity": 96, "duration": 284}, {"note": 0, "velocity": 0, "duration": 196}, {"note": 64, "velocity": 112, "duration": 253}, {"note": 67, "velocity": 89, "duration": 248}, {"note": 64, "velocity": 100, "duration": 254}, {"note": 62, "velocity": 92, "duration": 225}, {"note": 60, "velocity": 99, "duration": 255}, {"note": 62, "velocity": 95, "duration": 220}, {"note": 64, "velocity": 100, "duration": 2000}, {"note": 0, "velocity": 0, "duration": 1840}, {"note": 69, "velocity": 127, "duration": 1095}, {"note": 0, "velocity": 0, "duration": 345}, {"note": 69, "velocity": 127, "duration": 256}, {"note": 67, "velocity": 85, "duration": 292}, {"note": 69, "velocity": 122, "duration": 434}, {"note": 72, "velocity": 112, "duration": 248}, {"note": 0, "velocity": 0, "duration": 232}, {"note": 72, "velocity": 127, "duration": 546}, {"note": 0, "velocity": 0, "duration": 414}, {"note": 69, "velocity": 122, "duration": 213}, {"note": 72, "velocity": 88, "duration": 219}, {"note": 69, "velocity": 99, "duration": 216}, {"note": 72, "velocity": 102, "duration": 237}, {"note": 69, "velocity": 112, "duration": 304}, {"note": 0, "velocity": 0, "duration": 176}, {"note": 67, "velocity": 93, "duration": 480}, {"note": 64, "velocity": 99, "duration": 596}, {"note": 0, "velocity": 0, "duration": 1324}, {"note": 62, "velocity": 107, "duration": 334}, {"note": 0, "velocity": 0, "duration": 146}, {"note": 64, "velocity": 117, "duration": 316}, {"note": 0, "velocity": 0, "duration": 164}, {"note": 60, "velocity": 102, "duration": 343}, {"note": 0, "velocity": 0, "duration": 137}, {"note": 62, "velocity": 112, "duration": 330}, {"note": 59, "velocity": 99, "duration": 635}, {"note": 0, "velocity": 0, "duration": 445}, {"note": 55, "velocity": 102, "duration": 437}, {"note": 57, "velocity": 100, "duration": 243}, {"note": 59, "velocity": 99, "duration": 377}, {"note": 0, "velocity": 0, "duration": 103}, {"note": 57, "velocity": 127, "duration": 1649}, {"note": 0, "velocity": 0, "duration": 1951}, {"note": 69, "velocity": 117, "duration": 264}, {"note": 0, "velocity": 0, "duration": 216}, {"note": 69, "velocity": 122, "duration": 198}, {"note": 67, "velocity": 93, "duration": 193}, {"note": 64, "velocity": 100, "duration": 383}, {"note": 0, "velocity": 0, "duration": 97}, {"note": 67, "velocity": 122, "duration": 333}, {"note": 0, "velocity": 0, "duration": 147}, {"note": 69, "velocity": 127, "duration": 668}, {"note": 0, "velocity": 0, "duration": 504}, {"note": 69, "velocity": 92, "duration": 145}, {"note": 72, "velocity": 86, "duration": 130}, {"note": 67, "velocity": 96, "duration": 580}, {"note": 60, "velocity": 99, "duration": 552}, {"note": 0, "velocity": 0, "duration": 168}, {"note": 64, "velocity": 97, "duration": 210}, {"note": 62, "velocity": 112, "duration": 342}, {"note": 0, "velocity": 0, "duration": 138}, {"note": 60, "velocity": 96, "duration": 314}, {"note": 0, "velocity": 0, "duration": 166}, {"note": 62, "velocity": 107, "duration": 606}, {"note": 0, "velocity": 0, "duration": 1314}, {"note": 62, "velocity": 127, "duration": 368}, {"note": 0, "velocity": 0, "duration": 112}, {"note": 64, "velocity": 127, "duration": 314}, {"note": 0, "velocity": 0, "duration": 166}, {"note": 67, "velocity": 122, "duration": 340}, {"note": 0, "velocity": 0, "duration": 140}, {"note": 67, "velocity": 117, "duration": 241}, {"note": 0, "velocity": 0, "duration": 239}, {"note": 62, "velocity": 117, "duration": 279}, {"note": 60, "velocity": 92, "duration": 179}, {"note": 0, "velocity": 0, "duration": 61}, {"note": 62, "velocity": 97, "duration": 266}, {"note": 60, "velocity": 93, "duration": 214}, {"note": 57, "velocity": 112, "duration": 959}, {"note": 67, "velocity": 112, "duration": 120}, {"note": 0, "velocity": 0, "duration": 120}, {"note": 67, "velocity": 92, "duration": 97}, {"note": 0, "velocity": 0, "duration": 143}, {"note": 67, "velocity": 96, "duration": 158}, {"note": 0, "velocity": 0, "duration": 82}, {"note": 64, "velocity": 95, "duration": 179}, {"note": 0, "velocity": 0, "duration": 61}, {"note": 67, "velocity": 122, "duration": 370}, {"note": 0, "velocity": 0, "duration": 110}, {"note": 69, "velocity": 107, "duration": 367}, {"note": 67, "velocity": 122, "duration": 213}, {"note": 69, "velocity": 117, "duration": 656}, {"note": 0, "velocity": 0, "duration": 1264}, {"note": 67, "velocity": 117, "duration": 91}, {"note": 0, "velocity": 0, "duration": 149}, {"note": 67, "velocity": 97, "duration": 84}, {"note": 0, "velocity": 0, "duration": 156}, {"note": 67, "velocity": 107, "duration": 134}, {"note": 0, "velocity": 0, "duration": 106}, {"note": 69, "velocity": 122, "duration": 141}, {"note": 0, "velocity": 0, "duration": 99}, {"note": 72, "velocity": 127, "duration": 262}, {"note": 0, "velocity": 0, "duration": 218}, {"note": 69, "velocity": 127, "duration": 229}, {"note": 67, "velocity": 95, "duration": 211}, {"note": 64, "velocity": 112, "duration": 752}, {"note": 0, "velocity": 0, "duration": 1168}, {"note": 62, "velocity": 122, "duration": 454}, {"note": 64, "velocity": 127, "duration": 466}, {"note": 60, "velocity": 107, "duration": 347}, {"note": 0, "velocity": 0, "duration": 133}, {"note": 62, "velocity": 99, "duration": 396}, {"note": 0, "velocity": 0, "duration": 84}, {"note": 59, "velocity": 99, "duration": 415}, {"note": 0, "velocity": 0, "duration": 545}, {"note": 55, "velocity": 93, "duration": 256}, {"note": 57, "velocity": 76, "duration": 264}, {"note": 59, "velocity": 83, "duration": 795}, {"note": 57, "velocity": 100, "duration": 2424}, {"note": 0, "velocity": 0, "duration": 31896}, {"note": 69, "velocity": 117, "duration": 264}, {"note": 0, "velocity": 0, "duration": 216}, {"note": 69, "velocity": 122, "duration": 198}, {"note": 67, "velocity": 93, "duration": 193}, {"note": 64, "velocity": 100, "duration": 383}, {"note": 0, "velocity": 0, "duration": 97}, {"note": 67, "velocity": 122, "duration": 333}, {"note": 0, "velocity": 0, "duration": 147}, {"note": 69, "velocity": 127, "duration": 668}, {"note": 0, "velocity": 0, "duration": 504}, {"note": 69, "velocity": 92, "duration": 145}, {"note": 72, "velocity": 86, "duration": 130}, {"note": 67, "velocity": 96, "duration": 580}, {"note": 60, "velocity": 99, "duration": 552}, {"note": 0, "velocity": 0, "duration": 168}, {"note": 64, "velocity": 97, "duration": 210}, {"note": 62, "velocity": 112, "duration": 342}, {"note": 0, "velocity": 0, "duration": 138}, {"note": 60, "velocity": 96, "duration": 314}, {"note": 0, "velocity": 0, "duration": 166}, {"note": 62, "velocity": 107, "duration": 606}, {"note": 0, "velocity": 0, "duration": 1314}, {"note": 62, "velocity": 127, "duration": 368}, {"note": 0, "velocity": 0, "duration": 112}, {"note": 64, "velocity": 127, "duration": 314}, {"note": 0, "velocity": 0, "duration": 166}, {"note": 67, "velocity": 122, "duration": 340}, {"note": 0, "velocity": 0, "duration": 140}, {"note": 67, "velocity": 117, "duration": 241}, {"note": 0, "velocity": 0, "duration": 239}, {"note": 62, "velocity": 117, "duration": 279}, {"note": 60, "velocity": 92, "duration": 179}, {"note": 0, "velocity": 0, "duration": 61}, {"note": 62, "velocity": 97, "duration": 266}, {"note": 60, "velocity": 93, "duration": 214}, {"note": 57, "velocity": 112, "duration": 959}, {"note": 67, "velocity": 112, "duration": 120}, {"note": 0, "velocity": 0, "duration": 120}, {"note": 67, "velocity": 92, "duration": 97}, {"note": 0, "velocity": 0, "duration": 143}, {"note": 67, "velocity": 96, "duration": 158}, {"note": 0, "velocity": 0, "duration": 82}, {"note": 64, "velocity": 95, "duration": 179}, {"note": 0, "velocity": 0, "duration": 61}, {"note": 67, "velocity": 122, "duration": 370}, {"note": 0, "velocity": 0, "duration": 110}, {"note": 69, "velocity": 107, "duration": 367}, {"note": 67, "velocity": 122, "duration": 213}, {"note": 69, "velocity": 117, "duration": 656}, {"note": 0, "velocity": 0, "duration": 1264}, {"note": 67, "velocity": 117, "duration": 91}, {"note": 0, "velocity": 0, "duration": 149}, {"note": 67, "velocity": 97, "duration": 84}, {"note": 0, "velocity": 0, "duration": 156}, {"note": 67, "velocity": 107, "duration": 134}, {"note": 0, "velocity": 0, "duration": 106}, {"note": 69, "velocity": 122, "duration": 141}, {"note": 0, "velocity": 0, "duration": 99}, {"note": 72, "velocity": 127, "duration": 262}, {"note": 0, "velocity": 0, "duration": 218}, {"note": 69, "velocity": 127, "duration": 229}, {"note": 67, "velocity": 95, "duration": 211}, {"note": 64, "velocity": 112, "duration": 752}, {"note": 0, "velocity": 0, "duration": 1168}, {"note": 62, "velocity": 122, "duration": 454}, {"note": 64, "velocity": 127, "duration": 466}, {"note": 60, "velocity": 107, "duration": 347}, {"note": 0, "velocity": 0, "duration": 133}, {"note": 62, "velocity": 99, "duration": 396}, {"note": 0, "velocity": 0, "duration": 84}, {"note": 59, "velocity": 99, "duration": 415}, {"note": 0, "velocity": 0, "duration": 545}, {"note": 55, "velocity": 93, "duration": 256}, {"note": 57, "velocity": 76, "duration": 264}, {"note": 59, "velocity": 83, "duration": 795}, {"note": 57, "velocity": 100, "duration": 2424}, {"note": 0, "velocity": 0, "duration": 1176}, {"note": 69, "velocity": 112, "duration": 199}, {"note": 0, "velocity": 0, "duration": 281}, {"note": 69, "velocity": 100, "duration": 140}, {"note": 0, "velocity": 0, "duration": 100}, {"note": 67, "velocity": 77, "duration": 120}, {"note": 0, "velocity": 0, "duration": 120}, {"note": 69, "velocity": 102, "duration": 193}, {"note": 0, "velocity": 0, "duration": 287}, {"note": 69, "velocity": 97, "duration": 130}, {"note": 0, "velocity": 0, "duration": 110}, {"note": 67, "velocity": 89, "duration": 110}, {"note": 0, "velocity": 0, "duration": 130}, {"note": 69, "velocity": 99, "duration": 92}, {"note": 0, "velocity": 0, "duration": 148}, {"note": 72, "velocity": 96, "duration": 84}, {"note": 0, "velocity": 0, "duration": 156}, {"note": 69, "velocity": 99, "duration": 85}, {"note": 0, "velocity": 0, "duration": 155}, {"note": 67, "velocity": 93, "duration": 126}, {"note": 0, "velocity": 0, "duration": 114}, {"note": 69, "velocity": 122, "duration": 226}, {"note": 0, "velocity": 0, "duration": 734}, {"note": 62, "velocity": 92, "duration": 156}, {"note": 0, "velocity": 0, "duration": 324}, {"note": 62, "velocity": 93, "duration": 133}, {"note": 0, "velocity": 0, "duration": 107}, {"note": 64, "velocity": 96, "duration": 123}, {"note": 0, "velocity": 0, "duration": 117}, {"note": 67, "velocity": 107, "duration": 164}, {"note": 0, "velocity": 0, "duration": 316}, {"note": 67, "velocity": 90, "duration": 108}, {"note": 0, "velocity": 0, "duration": 132}, {"note": 64, "velocity": 97, "duration": 147}, {"note": 0, "velocity": 0, "duration": 93}, {"note": 62, "velocity": 89, "duration": 120}, {"note": 0, "velocity": 0, "duration": 120}, {"note": 64, "velocity": 82, "duration": 145}, {"note": 0, "velocity": 0, "duration": 95}, {"note": 62, "velocity": 96, "duration": 144}, {"note": 0, "velocity": 0, "duration": 96}, {"note": 60, "velocity": 89, "duration": 105}, {"note": 0, "velocity": 0, "duration": 135}, {"note": 57, "velocity": 100, "duration": 285}]]