[[{"note": 73, "velocity": 127, "duration": 295}, {"note": 0, "velocity": 0, "duration": 185}, {"note": 73, "velocity": 127, "duration": 267}, {"note": 0, "velocity": 0, "duration": 213}, {"note": 75, "velocity": 107, "duration": 187}, {"note": 0, "velocity": 0, "duration": 293}, {"note": 73, "velocity": 102, "duration": 207}, {"note": 71, "velocity": 71, "duration": 264}, {"note": 73, "velocity": 107, "duration": 1560}, {"note": 0, "velocity": 0, "duration": 360}, {"note": 78, "velocity": 107, "duration": 462}, {"note": 73, "velocity": 102, "duration": 240}, {"note": 75, "velocity": 99, "duration": 257}, {"note": 71, "velocity": 78, "duration": 376}, {"note": 71, "velocity": 95, "duration": 200}, {"note": 68, "velocity": 92, "duration": 232}, {"note": 73, "velocity": 92, "duration": 778}, {"note": 0, "velocity": 0, "duration": 1142}, {"note": 68, "velocity": 102, "duration": 461}, {"note": 0, "velocity": 0, "duration": 259}, {"note": 68, "velocity": 86, "duration": 101}, {"note": 0, "velocity": 0, "duration": 139}, {"note": 68, "velocity": 100, "duration": 350}, {"note": 0, "velocity": 0, "duration": 130}, {"note": 71, "velocity": 89, "duration": 349}, {"note": 0, "velocity": 0, "duration": 131}, {"note": 73, "velocity": 122, "duration": 507}, {"note": 75, "velocity": 117, "duration": 317}, {"note": 0, "velocity": 0, "duration": 163}, {"note": 73, "velocity": 96, "duration": 383}, {"note": 71, "velocity": 99, "duration": 264}, {"note": 0, "velocity": 0, "duration": 216}, {"note": 68, "velocity": 107, "duration": 341}, {"note": 0, "velocity": 0, "duration": 139}, {"note": 68, "velocity": 117, "duration": 331}, {"note": 0, "velocity": 0, "duration": 149}, {"note": 71, "velocity": 107, "duration": 362}, {"note": 68, "velocity": 102, "duration": 240}, {"note": 66, "velocity": 85, "duration": 124}, {"note": 66, "velocity": 122, "duration": 1831}, {"note": 71, "velocity": 85, "duration": 333}, {"note": 0, "velocity": 0, "duration": 147}, {"note": 71, "velocity": 78, "duration": 97}, {"note": 0, "velocity": 0, "duration": 143}, {"note": 71, "velocity": 72, "duration": 97}, {"note": 0, "velocity": 0, "duration": 143}, {"note": 71, "velocity": 88, "duration": 401}, {"note": 68, "velocity": 102, "duration": 244}, {"note": 66, "velocity": 88, "duration": 217}, {"note": 73, "velocity": 99, "duration": 1311}, {"note": 0, "velocity": 0, "duration": 609}, {"note": 75, "velocity": 112, "duration": 346}, {"note": 0, "velocity": 0, "duration": 134}, {"note": 73, "velocity": 122, "duration": 244}, {"note": 75, "velocity": 93, "duration": 279}, {"note": 73, "velocity": 122, "duration": 236}, {"note": 0, "velocity": 0, "duration": 244}, {"note": 71, "velocity": 96, "duration": 231}, {"note": 73, "velocity": 96, "duration": 262}, {"note": 68, "velocity": 97, "duration": 1288}, {"note": 0, "velocity": 0, "duration": 632}, {"note": 71, "velocity": 92, "duration": 475}, {"note": 0, "velocity": 0, "duration": 245}, {"note": 71, "velocity": 73, "duration": 191}, {"note": 68, "velocity": 97, "duration": 364}, {"note": 71, "velocity": 86, "duration": 341}, {"note": 0, "velocity": 0, "duration": 139}, {"note": 73, "velocity": 122, "duration": 575}, {"note": 73, "velocity": 127, "duration": 95}, {"note": 0, "velocity": 0, "duration": 145}, {"note": 75, "velocity": 92, "duration": 210}, {"note": 73, "velocity": 112, "duration": 424}, {"note": 71, "velocity": 97, "duration": 392}, {"note": 68, "velocity": 112, "duration": 293}, {"note": 0, "velocity": 0, "duration": 187}, {"note": 68, "velocity": 112, "duration": 281}, {"note": 0, "velocity": 0, "duration": 199}, {"note": 71, "velocity": 107, "duration": 403}, {"note": 68, "velocity": 117, "duration": 270}, {"note": 66, "velocity": 82, "duration": 118}, {"note": 0, "velocity": 0, "duration": 122}, {"note": 66, "velocity": 107, "duration": 1472}, {"note": 0, "velocity": 0, "duration": 448}, {"note": 78, "velocity": 127, "duration": 407}, {"note": 80, "velocity": 122, "duration": 387}, {"note": 78, "velocity": 127, "duration": 297}, {"note": 0, "velocity": 0, "duration": 183}, {"note": 75, "velocity": 127, "duration": 230}, {"note": 73, "velocity": 122, "duration": 117}, {"note": 0, "velocity": 0, "duration": 123}, {"note": 73, "velocity": 127, "duration": 1549}, {"note": 0, "velocity": 0, "duration": 371}, {"note": 80, "velocity": 127, "duration": 405}, {"note": 78, "velocity": 127, "duration": 344}, {"note": 0, "velocity": 0, "duration": 136}, {"note": 78, "velocity": 127, "duration": 379}, {"note": 75, "velocity": 127, "duration": 231}, {"note": 73, "velocity": 72, "duration": 147}, {"note": 73, "velocity": 122, "duration": 1844}, {"note": 75, "velocity": 122, "duration": 432}, {"note": 0, "velocity": 0, "duration": 288}, {"note": 75, "velocity": 107, "duration": 271}, {"note": 73, "velocity": 122, "duration": 312}, {"note": 0, "velocity": 0, "duration": 168}, {"note": 73, "velocity": 127, "duration": 228}, {"note": 75, "velocity": 100, "duration": 239}, {"note": 73, "velocity": 127, "duration": 903}, {"note": 71, "velocity": 93, "duration": 240}, {"note": 68, "velocity": 112, "duration": 325}, {"note": 0, "velocity": 0, "duration": 155}, {"note": 68, "velocity": 107, "duration": 177}, {"note": 71, "velocity": 82, "duration": 176}, {"note": 73, "velocity": 117, "duration": 497}, {"note": 0, "velocity": 0, "duration": 223}, {"note": 71, "velocity": 95, "duration": 259}, {"note": 73, "velocity": 117, "duration": 387}, {"note": 78, "velocity": 127, "duration": 346}, {"note": 0, "velocity": 0, "duration": 134}, {"note": 78, "velocity": 127, "duration": 1692}, {"note": 0, "velocity": 0, "duration": 228}, {"note": 78, "velocity": 127, "duration": 351}, {"note": 0, "velocity": 0, "duration": 129}, {"note": 80, "velocity": 122, "duration": 395}, {"note": 78, "velocity": 122, "duration": 292}, {"note": 0, "velocity": 0, "duration": 188}, {"note": 75, "velocity": 99, "duration": 255}, {"note": 73, "velocity": 90, "duration": 153}, {"note": 73, "velocity": 127, "duration": 1437}, {"note": 0, "velocity": 0, "duration": 483}, {"note": 80, "velocity": 127, "duration": 380}, {"note": 78, "velocity": 122, "duration": 343}, {"note": 0, "velocity": 0, "duration": 137}, {"note": 78, "velocity": 127, "duration": 318}, {"note": 0, "velocity": 0, "duration": 162}, {"note": 75, "velocity": 122, "duration": 358}, {"note": 73, "velocity": 102, "duration": 204}, {"note": 73, "velocity": 127, "duration": 749}, {"note": 0, "velocity": 0, "duration": 1171}, {"note": 75, "velocity": 122, "duration": 553}, {"note": 0, "velocity": 0, "duration": 167}, {"note": 75, "velocity": 122, "duration": 244}, {"note": 73, "velocity": 117, "duration": 300}, {"note": 0, "velocity": 0, "duration": 180}, {"note": 73, "velocity": 122, "duration": 226}, {"note": 75, "velocity": 97, "duration": 197}, {"note": 71, "velocity": 117, "duration": 521}, {"note": 73, "velocity": 100, "duration": 481}, {"note": 71, "velocity": 95, "duration": 214}, {"note": 68, "velocity": 117, "duration": 501}, {"note": 0, "velocity": 0, "duration": 459}, {"note": 68, "velocity": 117, "duration": 325}, {"note": 0, "velocity": 0, "duration": 155}, {"note": 68, "velocity": 117, "duration": 108}, {"note": 0, "velocity": 0, "duration": 132}, {"note": 68, "velocity": 112, "duration": 132}, {"note": 71, "velocity": 117, "duration": 522}, {"note": 0, "velocity": 0, "duration": 198}, {"note": 68, "velocity": 99, "duration": 234}, {"note": 66, "velocity": 112, "duration": 825}, {"note": 0, "velocity": 0, "duration": 22215}, {"note": 73, "velocity": 127, "duration": 295}, {"note": 0, "velocity": 0, "duration": 185}, {"note": 73, "velocity": 127, "duration": 267}, {"note": 73, "velocity": 99, "duration": 27}, {"note": 0, "velocity": 0, "duration": 213}, {"note": 75, "velocity": 107, "duration": 187}, {"note": 0, "velocity": 0, "duration": 293}, {"note": 73, "velocity": 102, "duration": 207}, {"note": 71, "velocity": 71, "duration": 264}, {"note": 73, "velocity": 107, "duration": 1560}, {"note": 0, "velocity": 0, "duration": 360}, {"note": 78, "velocity": 107, "duration": 462}, {"note": 73, "velocity": 102, "duration": 240}, {"note": 75, "velocity": 99, "duration": 257}, {"note": 71, "velocity": 78, "duration": 376}, {"note": 71, "velocity": 95, "duration": 200}, {"note": 68, "velocity": 92, "duration": 232}, {"note": 73, "velocity": 92, "duration": 1357}, {"note": 0, "velocity": 0, "duration": 563}, {"note": 68, "velocity": 102, "duration": 461}, {"note": 0, "velocity": 0, "duration": 259}, {"note": 68, "velocity": 86, "duration": 101}, {"note": 0, "velocity": 0, "duration": 139}, {"note": 68, "velocity": 100, "duration": 350}, {"note": 0, "velocity": 0, "duration": 130}, {"note": 71, "velocity": 89, "duration": 349}, {"note": 0, "velocity": 0, "duration": 131}, {"note": 73, "velocity": 122, "duration": 507}, {"note": 75, "velocity": 117, "duration": 317}, {"note": 0, "velocity": 0, "duration": 163}, {"note": 73, "velocity": 96, "duration": 383}, {"note": 71, "velocity": 99, "duration": 264}, {"note": 0, "velocity": 0, "duration": 216}, {"note": 68, "velocity": 107, "duration": 341}, {"note": 0, "velocity": 0, "duration": 139}, {"note": 68, "velocity": 117, "duration": 331}, {"note": 0, "velocity": 0, "duration": 149}, {"note": 71, "velocity": 107, "duration": 362}, {"note": 68, "velocity": 102, "duration": 240}, {"note": 66, "velocity": 85, "duration": 124}, {"note": 66, "velocity": 122, "duration": 1831}, {"note": 71, "velocity": 85, "duration": 333}, {"note": 0, "velocity": 0, "duration": 147}, {"note": 71, "velocity": 78, "duration": 97}, {"note": 0, "velocity": 0, "duration": 143}, {"note": 71, "velocity": 72, "duration": 97}, {"note": 0, "velocity": 0, "duration": 143}, {"note": 71, "velocity": 88, "duration": 401}, {"note": 68, "velocity": 102, "duration": 244}, {"note": 66, "velocity": 88, "duration": 217}, {"note": 73, "velocity": 99, "duration": 1311}, {"note": 0, "velocity": 0, "duration": 609}, {"note": 75, "velocity": 112, "duration": 346}, {"note": 0, "velocity": 0, "duration": 134}, {"note": 73, "velocity": 122, "duration": 244}, {"note": 75, "velocity": 93, "duration": 279}, {"note": 73, "velocity": 122, "duration": 236}, {"note": 0, "velocity": 0, "duration": 244}, {"note": 71, "velocity": 96, "duration": 231}, {"note": 73, "velocity": 96, "duration": 262}, {"note": 68, "velocity": 97, "duration": 1288}, {"note": 0, "velocity": 0, "duration": 632}, {"note": 71, "velocity": 92, "duration": 475}, {"note": 0, "velocity": 0, "duration": 245}, {"note": 71, "velocity": 73, "duration": 191}, {"note": 68, "velocity": 97, "duration": 364}, {"note": 71, "velocity": 86, "duration": 341}, {"note": 0, "velocity": 0, "duration": 139}, {"note": 73, "velocity": 122, "duration": 333}, {"note": 0, "velocity": 0, "duration": 147}, {"note": 73, "velocity": 127, "duration": 210}, {"note": 75, "velocity": 92, "duration": 210}, {"note": 73, "velocity": 112, "duration": 424}, {"note": 71, "velocity": 97, "duration": 392}, {"note": 68, "velocity": 112, "duration": 293}, {"note": 0, "velocity": 0, "duration": 187}, {"note": 68, "velocity": 112, "duration": 281}, {"note": 0, "velocity": 0, "duration": 199}, {"note": 71, "velocity": 107, "duration": 403}, {"note": 68, "velocity": 117, "duration": 270}, {"note": 66, "velocity": 82, "duration": 118}, {"note": 0, "velocity": 0, "duration": 122}, {"note": 66, "velocity": 107, "duration": 1472}, {"note": 0, "velocity": 0, "duration": 448}, {"note": 78, "velocity": 127, "duration": 407}, {"note": 80, "velocity": 122, "duration": 387}, {"note": 78, "velocity": 127, "duration": 297}, {"note": 0, "velocity": 0, "duration": 183}, {"note": 75, "velocity": 127, "duration": 230}, {"note": 73, "velocity": 122, "duration": 117}, {"note": 0, "velocity": 0, "duration": 123}, {"note": 73, "velocity": 127, "duration": 1549}, {"note": 0, "velocity": 0, "duration": 371}, {"note": 80, "velocity": 127, "duration": 405}, {"note": 78, "velocity": 127, "duration": 344}, {"note": 0, "velocity": 0, "duration": 136}, {"note": 78, "velocity": 127, "duration": 379}, {"note": 75, "velocity": 127, "duration": 231}, {"note": 73, "velocity": 72, "duration": 147}, {"note": 73, "velocity": 122, "duration": 1844}, {"note": 75, "velocity": 122, "duration": 432}, {"note": 0, "velocity": 0, "duration": 288}, {"note": 75, "velocity": 107, "duration": 271}, {"note": 73, "velocity": 122, "duration": 312}, {"note": 0, "velocity": 0, "duration": 168}, {"note": 73, "velocity": 127, "duration": 228}, {"note": 75, "velocity": 100, "duration": 239}, {"note": 73, "velocity": 127, "duration": 903}, {"note": 71, "velocity": 93, "duration": 240}, {"note": 68, "velocity": 112, "duration": 325}, {"note": 0, "velocity": 0, "duration": 155}, {"note": 68, "velocity": 107, "duration": 177}, {"note": 71, "velocity": 82, "duration": 176}, {"note": 73, "velocity": 117, "duration": 497}, {"note": 0, "velocity": 0, "duration": 223}, {"note": 71, "velocity": 95, "duration": 259}, {"note": 73, "velocity": 117, "duration": 387}, {"note": 78, "velocity": 127, "duration": 346}, {"note": 0, "velocity": 0, "duration": 134}, {"note": 78, "velocity": 127, "duration": 1692}, {"note": 0, "velocity": 0, "duration": 228}, {"note": 78, "velocity": 127, "duration": 351}, {"note": 0, "velocity": 0, "duration": 129}, {"note": 80, "velocity": 122, "duration": 395}, {"note": 78, "velocity": 122, "duration": 292}, {"note": 0, "velocity": 0, "duration": 188}, {"note": 75, "velocity": 99, "duration": 255}, {"note": 73, "velocity": 90, "duration": 153}, {"note": 73, "velocity": 127, "duration": 1437}, {"note": 0, "velocity": 0, "duration": 483}, {"note": 80, "velocity": 127, "duration": 380}, {"note": 78, "velocity": 122, "duration": 343}, {"note": 0, "velocity": 0, "duration": 137}, {"note": 78, "velocity": 127, "duration": 318}, {"note": 0, "velocity": 0, "duration": 162}, {"note": 75, "velocity": 122, "duration": 358}, {"note": 73, "velocity": 102, "duration": 204}, {"note": 73, "velocity": 127, "duration": 749}, {"note": 0, "velocity": 0, "duration": 1171}, {"note": 75, "velocity": 122, "duration": 553}, {"note": 0, "velocity": 0, "duration": 167}, {"note": 75, "velocity": 122, "duration": 244}, {"note": 73, "velocity": 117, "duration": 300}, {"note": 0, "velocity": 0, "duration": 180}, {"note": 73, "velocity": 122, "duration": 226}, {"note": 75, "velocity": 97, "duration": 197}, {"note": 71, "velocity": 117, "duration": 521}, {"note": 73, "velocity": 100, "duration": 481}, {"note": 71, "velocity": 95, "duration": 214}, {"note": 68, "velocity": 117, "duration": 501}, {"note": 0, "velocity": 0, "duration": 459}, {"note": 68, "velocity": 117, "duration": 325}, {"note": 0, "velocity": 0, "duration": 155}, {"note": 68, "velocity": 117, "duration": 108}, {"note": 0, "velocity": 0, "duration": 132}, {"note": 68, "velocity": 112, "duration": 132}, {"note": 71, "velocity": 117, "duration": 522}, {"note": 0, "velocity": 0, "duration": 198}, {"note": 68, "velocity": 99, "duration": 234}, {"note": 66, "velocity": 112, "duration": 825}, {"note": 0, "velocity": 0, "duration": 1095}, {"note": 78, "velocity": 127, "duration": 407}, {"note": 80, "velocity": 122, "duration": 387}, {"note": 78, "velocity": 127, "duration": 297}, {"note": 0, "velocity": 0, "duration": 183}, {"note": 75, "velocity": 127, "duration": 230}, {"note": 73, "velocity": 122, "duration": 117}, {"note": 0, "velocity": 0, "duration": 123}, {"note": 73, "velocity": 127, "duration": 1549}, {"note": 0, "velocity": 0, "duration": 371}, {"note": 80, "velocity": 127, "duration": 405}, {"note": 78, "velocity": 127, "duration": 344}, {"note": 0, "velocity": 0, "duration": 136}, {"note": 78, "velocity": 127, "duration": 379}, {"note": 75, "velocity": 127, "duration": 231}, {"note": 73, "velocity": 72, "duration": 147}, {"note": 73, "velocity": 122, "duration": 1844}, {"note": 75, "velocity": 122, "duration": 432}, {"note": 0, "velocity": 0, "duration": 288}, {"note": 75, "velocity": 107, "duration": 271}, {"note": 73, "velocity": 122, "duration": 312}, {"note": 0, "velocity": 0, "duration": 168}, {"note": 73, "velocity": 127, "duration": 228}, {"note": 75, "velocity": 100, "duration": 239}, {"note": 73, "velocity": 127, "duration": 903}, {"note": 71, "velocity": 93, "duration": 240}, {"note": 68, "velocity": 112, "duration": 325}, {"note": 0, "velocity": 0, "duration": 155}, {"note": 68, "velocity": 107, "duration": 177}, {"note": 71, "velocity": 82, "duration": 176}, {"note": 73, "velocity": 117, "duration": 497}, {"note": 0, "velocity": 0, "duration": 223}, {"note": 71, "velocity": 95, "duration": 259}, {"note": 73, "velocity": 117, "duration": 387}, {"note": 78, "velocity": 127, "duration": 346}, {"note": 0, "velocity": 0, "duration": 134}, {"note": 78, "velocity": 127, "duration": 1692}, {"note": 0, "velocity": 0, "duration": 228}, {"note": 78, "velocity": 127, "duration": 351}, {"note": 0, "velocity": 0, "duration": 129}, {"note": 80, "velocity": 122, "duration": 395}, {"note": 78, "velocity": 122, "duration": 292}, {"note": 0, "velocity": 0, "duration": 188}, {"note": 75, "velocity": 99, "duration": 255}, {"note": 73, "velocity": 90, "duration": 153}, {"note": 73, "velocity": 127, "duration": 1437}, {"note": 0, "velocity": 0, "duration": 483}, {"note": 80, "velocity": 127, "duration": 380}, {"note": 78, "velocity": 122, "duration": 343}, {"note": 0, "velocity": 0, "duration": 137}, {"note": 78, "velocity": 127, "duration": 318}, {"note": 0, "velocity": 0, "duration": 162}, {"note": 75, "velocity": 122, "duration": 358}, {"note": 73, "velocity": 102, "duration": 204}, {"note": 73, "velocity": 127, "duration": 749}, {"note": 0, "velocity": 0, "duration": 1171}, {"note": 75, "velocity": 122, "duration": 553}, {"note": 0, "velocity": 0, "duration": 167}, {"note": 75, "velocity": 122, "duration": 244}, {"note": 73, "velocity": 117, "duration": 300}, {"note": 0, "velocity": 0, "duration": 180}, {"note": 73, "velocity": 122, "duration": 226}, {"note": 75, "velocity": 97, "duration": 197}, {"note": 71, "velocity": 117, "duration": 521}, {"note": 73, "velocity": 100, "duration": 481}, {"note": 71, "velocity": 95, "duration": 214}, {"note": 68, "velocity": 117, "duration": 501}, {"note": 0, "velocity": 0, "duration": 459}, {"note": 68, "velocity": 117, "duration": 325}, {"note": 0, "velocity": 0, "duration": 155}, {"note": 68, "velocity": 117, "duration": 108}, {"note": 0, "velocity": 0, "duration": 132}, {"note": 68, "velocity": 112, "duration": 132}, {"note": 71, "velocity": 117, "duration": 522}, {"note": 0, "velocity": 0, "duration": 198}, {"note": 68, "velocity": 99, "duration": 234}, {"note": 66, "velocity": 112, "duration": 825}, {"note": 0, "velocity": 0, "duration": 1095}, {"note": 75, "velocity": 122, "duration": 553}, {"note": 0, "velocity": 0, "duration": 167}, {"note": 75, "velocity": 122, "duration": 244}, {"note": 73, "velocity": 117, "duration": 300}, {"note": 0, "velocity": 0, "duration": 180}, {"note": 73, "velocity": 122, "duration": 226}, {"note": 75, "velocity": 97, "duration": 197}, {"note": 71, "velocity": 117, "duration": 397}, {"note": 73, "velocity": 100, "duration": 481}, {"note": 71, "velocity": 95, "duration": 214}, {"note": 68, "velocity": 117, "duration": 501}, {"note": 0, "velocity": 0, "duration": 459}, {"note": 73, "velocity": 127, "duration": 292}, {"note": 0, "velocity": 0, "duration": 188}, {"note": 73, "velocity": 127, "duration": 619}, {"note": 0, "velocity": 0, "duration": 341}, {"note": 71, "velocity": 122, "duration": 398}, {"note": 73, "velocity": 127, "duration": 899}, {"note": 80, "velocity": 127, "duration": 4800}, {"note": 78, "velocity": 127, "duration": 5074}]]