[[{"note": 54, "velocity": 97, "duration": 155}, {"note": 59, "velocity": 70, "duration": 131}, {"note": 63, "velocity": 89, "duration": 206}, {"note": 63, "velocity": 72, "duration": 171}, {"note": 0, "velocity": 0, "duration": 69}, {"note": 63, "velocity": 100, "duration": 224}, {"note": 61, "velocity": 92, "duration": 269}, {"note": 59, "velocity": 78, "duration": 429}, {"note": 0, "velocity": 0, "duration": 291}, {"note": 59, "velocity": 89, "duration": 89}, {"note": 61, "velocity": 85, "duration": 140}, {"note": 59, "velocity": 83, "duration": 164}, {"note": 0, "velocity": 0, "duration": 76}, {"note": 59, "velocity": 77, "duration": 143}, {"note": 0, "velocity": 0, "duration": 97}, {"note": 59, "velocity": 88, "duration": 192}, {"note": 56, "velocity": 75, "duration": 275}, {"note": 54, "velocity": 83, "duration": 651}, {"note": 0, "velocity": 0, "duration": 69}, {"note": 59, "velocity": 89, "duration": 105}, {"note": 61, "velocity": 86, "duration": 105}, {"note": 63, "velocity": 97, "duration": 161}, {"note": 0, "velocity": 0, "duration": 79}, {"note": 63, "velocity": 100, "duration": 175}, {"note": 0, "velocity": 0, "duration": 65}, {"note": 63, "velocity": 100, "duration": 195}, {"note": 61, "velocity": 112, "duration": 233}, {"note": 59, "velocity": 83, "duration": 390}, {"note": 0, "velocity": 0, "duration": 330}, {"note": 63, "velocity": 95, "duration": 416}, {"note": 0, "velocity": 0, "duration": 64}, {"note": 66, "velocity": 107, "duration": 1079}, {"note": 0, "velocity": 0, "duration": 361}, {"note": 68, "velocity": 107, "duration": 79}, {"note": 70, "velocity": 93, "duration": 69}, {"note": 71, "velocity": 100, "duration": 271}, {"note": 0, "velocity": 0, "duration": 89}, {"note": 71, "velocity": 117, "duration": 269}, {"note": 0, "velocity": 0, "duration": 91}, {"note": 73, "velocity": 112, "duration": 236}, {"note": 68, "velocity": 107, "duration": 372}, {"note": 0, "velocity": 0, "duration": 348}, {"note": 71, "velocity": 95, "duration": 98}, {"note": 68, "velocity": 92, "duration": 77}, {"note": 66, "velocity": 93, "duration": 268}, {"note": 0, "velocity": 0, "duration": 92}, {"note": 66, "velocity": 96, "duration": 233}, {"note": 0, "velocity": 0, "duration": 127}, {"note": 68, "velocity": 102, "duration": 199}, {"note": 63, "velocity": 96, "duration": 461}, {"note": 0, "velocity": 0, "duration": 259}, {"note": 63, "velocity": 100, "duration": 234}, {"note": 61, "velocity": 89, "duration": 538}, {"note": 0, "velocity": 0, "duration": 182}, {"note": 61, "velocity": 99, "duration": 163}, {"note": 0, "velocity": 0, "duration": 77}, {"note": 61, "velocity": 95, "duration": 258}, {"note": 0, "velocity": 0, "duration": 222}, {"note": 63, "velocity": 93, "duration": 237}, {"note": 61, "velocity": 83, "duration": 169}, {"note": 0, "velocity": 0, "duration": 71}, {"note": 59, "velocity": 83, "duration": 285}, {"note": 61, "velocity": 74, "duration": 734}, {"note": 0, "velocity": 0, "duration": 706}, {"note": 54, "velocity": 89, "duration": 133}, {"note": 56, "velocity": 66, "duration": 145}, {"note": 63, "velocity": 86, "duration": 175}, {"note": 0, "velocity": 0, "duration": 65}, {"note": 63, "velocity": 97, "duration": 174}, {"note": 0, "velocity": 0, "duration": 66}, {"note": 63, "velocity": 96, "duration": 197}, {"note": 61, "velocity": 96, "duration": 249}, {"note": 59, "velocity": 81, "duration": 510}, {"note": 0, "velocity": 0, "duration": 210}, {"note": 59, "velocity": 82, "duration": 99}, {"note": 61, "velocity": 92, "duration": 162}, {"note": 59, "velocity": 75, "duration": 181}, {"note": 59, "velocity": 75, "duration": 161}, {"note": 0, "velocity": 0, "duration": 79}, {"note": 59, "velocity": 82, "duration": 213}, {"note": 56, "velocity": 83, "duration": 273}, {"note": 54, "velocity": 82, "duration": 530}, {"note": 0, "velocity": 0, "duration": 190}, {"note": 59, "velocity": 92, "duration": 107}, {"note": 61, "velocity": 69, "duration": 103}, {"note": 63, "velocity": 93, "duration": 170}, {"note": 0, "velocity": 0, "duration": 70}, {"note": 63, "velocity": 93, "duration": 169}, {"note": 0, "velocity": 0, "duration": 71}, {"note": 63, "velocity": 100, "duration": 203}, {"note": 61, "velocity": 93, "duration": 266}, {"note": 59, "velocity": 88, "duration": 506}, {"note": 0, "velocity": 0, "duration": 214}, {"note": 61, "velocity": 95, "duration": 187}, {"note": 63, "velocity": 92, "duration": 249}, {"note": 66, "velocity": 96, "duration": 1089}, {"note": 0, "velocity": 0, "duration": 351}, {"note": 68, "velocity": 95, "duration": 95}, {"note": 70, "velocity": 92, "duration": 68}, {"note": 71, "velocity": 99, "duration": 273}, {"note": 0, "velocity": 0, "duration": 87}, {"note": 71, "velocity": 122, "duration": 278}, {"note": 0, "velocity": 0, "duration": 82}, {"note": 73, "velocity": 107, "duration": 281}, {"note": 68, "velocity": 99, "duration": 506}, {"note": 0, "velocity": 0, "duration": 214}, {"note": 71, "velocity": 97, "duration": 137}, {"note": 68, "velocity": 88, "duration": 132}, {"note": 66, "velocity": 99, "duration": 272}, {"note": 0, "velocity": 0, "duration": 88}, {"note": 66, "velocity": 102, "duration": 295}, {"note": 0, "velocity": 0, "duration": 65}, {"note": 68, "velocity": 92, "duration": 236}, {"note": 63, "velocity": 99, "duration": 479}, {"note": 0, "velocity": 0, "duration": 241}, {"note": 63, "velocity": 102, "duration": 176}, {"note": 0, "velocity": 0, "duration": 64}, {"note": 61, "velocity": 95, "duration": 623}, {"note": 0, "velocity": 0, "duration": 97}, {"note": 61, "velocity": 99, "duration": 177}, {"note": 0, "velocity": 0, "duration": 63}, {"note": 61, "velocity": 97, "duration": 292}, {"note": 61, "velocity": 99, "duration": 52}, {"note": 0, "velocity": 0, "duration": 188}, {"note": 63, "velocity": 102, "duration": 246}, {"note": 61, "velocity": 85, "duration": 466}, {"note": 59, "velocity": 90, "duration": 973}, {"note": 0, "velocity": 0, "duration": 227}, {"note": 63, "velocity": 107, "duration": 204}, {"note": 66, "velocity": 97, "duration": 164}, {"note": 0, "velocity": 0, "duration": 76}, {"note": 66, "velocity": 100, "duration": 567}, {"note": 0, "velocity": 0, "duration": 153}, {"note": 63, "velocity": 107, "duration": 151}, {"note": 61, "velocity": 88, "duration": 128}, {"note": 59, "velocity": 86, "duration": 404}, {"note": 0, "velocity": 0, "duration": 76}, {"note": 59, "velocity": 93, "duration": 177}, {"note": 0, "velocity": 0, "duration": 63}, {"note": 71, "velocity": 102, "duration": 177}, {"note": 0, "velocity": 0, "duration": 63}, {"note": 71, "velocity": 99, "duration": 584}, {"note": 0, "velocity": 0, "duration": 136}, {"note": 68, "velocity": 112, "duration": 222}, {"note": 66, "velocity": 97, "duration": 369}, {"note": 0, "velocity": 0, "duration": 351}, {"note": 59, "velocity": 96, "duration": 106}, {"note": 61, "velocity": 92, "duration": 113}, {"note": 63, "velocity": 102, "duration": 433}, {"note": 0, "velocity": 0, "duration": 287}, {"note": 68, "velocity": 100, "duration": 184}, {"note": 66, "velocity": 107, "duration": 179}, {"note": 0, "velocity": 0, "duration": 61}, {"note": 66, "velocity": 117, "duration": 148}, {"note": 0, "velocity": 0, "duration": 92}, {"note": 63, "velocity": 112, "duration": 112}, {"note": 61, "velocity": 100, "duration": 200}, {"note": 59, "velocity": 85, "duration": 134}, {"note": 61, "velocity": 102, "duration": 786}, {"note": 0, "velocity": 0, "duration": 654}, {"note": 63, "velocity": 107, "duration": 180}, {"note": 66, "velocity": 102, "duration": 165}, {"note": 0, "velocity": 0, "duration": 75}, {"note": 66, "velocity": 102, "duration": 665}, {"note": 63, "velocity": 99, "duration": 133}, {"note": 61, "velocity": 93, "duration": 131}, {"note": 59, "velocity": 95, "duration": 346}, {"note": 0, "velocity": 0, "duration": 134}, {"note": 59, "velocity": 92, "duration": 247}, {"note": 71, "velocity": 117, "duration": 186}, {"note": 71, "velocity": 122, "duration": 670}, {"note": 73, "velocity": 117, "duration": 223}, {"note": 0, "velocity": 0, "duration": 137}, {"note": 68, "velocity": 112, "duration": 399}, {"note": 0, "velocity": 0, "duration": 201}, {"note": 71, "velocity": 102, "duration": 148}, {"note": 68, "velocity": 96, "duration": 119}, {"note": 66, "velocity": 95, "duration": 263}, {"note": 0, "velocity": 0, "duration": 97}, {"note": 71, "velocity": 95, "duration": 290}, {"note": 0, "velocity": 0, "duration": 70}, {"note": 63, "velocity": 127, "duration": 108}, {"note": 61, "velocity": 93, "duration": 74}, {"note": 61, "velocity": 100, "duration": 560}, {"note": 63, "velocity": 107, "duration": 359}, {"note": 61, "velocity": 88, "duration": 156}, {"note": 59, "velocity": 90, "duration": 1311}, {"note": 0, "velocity": 0, "duration": 17409}, {"note": 54, "velocity": 97, "duration": 155}, {"note": 0, "velocity": 0, "duration": 85}, {"note": 59, "velocity": 90, "duration": 131}, {"note": 0, "velocity": 0, "duration": 109}, {"note": 63, "velocity": 89, "duration": 206}, {"note": 63, "velocity": 72, "duration": 171}, {"note": 0, "velocity": 0, "duration": 69}, {"note": 63, "velocity": 100, "duration": 224}, {"note": 61, "velocity": 92, "duration": 269}, {"note": 59, "velocity": 78, "duration": 429}, {"note": 0, "velocity": 0, "duration": 291}, {"note": 59, "velocity": 89, "duration": 89}, {"note": 61, "velocity": 85, "duration": 140}, {"note": 59, "velocity": 83, "duration": 164}, {"note": 0, "velocity": 0, "duration": 76}, {"note": 59, "velocity": 77, "duration": 143}, {"note": 0, "velocity": 0, "duration": 97}, {"note": 59, "velocity": 88, "duration": 192}, {"note": 56, "velocity": 75, "duration": 275}, {"note": 54, "velocity": 83, "duration": 651}, {"note": 0, "velocity": 0, "duration": 69}, {"note": 59, "velocity": 89, "duration": 105}, {"note": 61, "velocity": 86, "duration": 105}, {"note": 63, "velocity": 97, "duration": 161}, {"note": 0, "velocity": 0, "duration": 79}, {"note": 63, "velocity": 100, "duration": 175}, {"note": 0, "velocity": 0, "duration": 65}, {"note": 63, "velocity": 100, "duration": 195}, {"note": 61, "velocity": 112, "duration": 233}, {"note": 59, "velocity": 83, "duration": 390}, {"note": 0, "velocity": 0, "duration": 330}, {"note": 63, "velocity": 95, "duration": 416}, {"note": 0, "velocity": 0, "duration": 64}, {"note": 66, "velocity": 107, "duration": 1079}, {"note": 0, "velocity": 0, "duration": 361}, {"note": 68, "velocity": 107, "duration": 79}, {"note": 70, "velocity": 93, "duration": 69}, {"note": 71, "velocity": 100, "duration": 271}, {"note": 0, "velocity": 0, "duration": 89}, {"note": 71, "velocity": 117, "duration": 269}, {"note": 0, "velocity": 0, "duration": 91}, {"note": 73, "velocity": 112, "duration": 236}, {"note": 68, "velocity": 107, "duration": 372}, {"note": 0, "velocity": 0, "duration": 348}, {"note": 71, "velocity": 95, "duration": 98}, {"note": 68, "velocity": 92, "duration": 77}, {"note": 66, "velocity": 93, "duration": 268}, {"note": 0, "velocity": 0, "duration": 92}, {"note": 66, "velocity": 96, "duration": 233}, {"note": 0, "velocity": 0, "duration": 127}, {"note": 68, "velocity": 102, "duration": 199}, {"note": 63, "velocity": 96, "duration": 461}, {"note": 0, "velocity": 0, "duration": 259}, {"note": 63, "velocity": 100, "duration": 234}, {"note": 61, "velocity": 89, "duration": 538}, {"note": 0, "velocity": 0, "duration": 182}, {"note": 61, "velocity": 99, "duration": 163}, {"note": 0, "velocity": 0, "duration": 77}, {"note": 61, "velocity": 95, "duration": 258}, {"note": 0, "velocity": 0, "duration": 222}, {"note": 63, "velocity": 93, "duration": 237}, {"note": 61, "velocity": 83, "duration": 169}, {"note": 0, "velocity": 0, "duration": 71}, {"note": 59, "velocity": 83, "duration": 285}, {"note": 61, "velocity": 74, "duration": 734}, {"note": 0, "velocity": 0, "duration": 706}, {"note": 54, "velocity": 89, "duration": 133}, {"note": 56, "velocity": 66, "duration": 145}, {"note": 63, "velocity": 86, "duration": 175}, {"note": 0, "velocity": 0, "duration": 65}, {"note": 63, "velocity": 97, "duration": 174}, {"note": 0, "velocity": 0, "duration": 66}, {"note": 63, "velocity": 96, "duration": 197}, {"note": 61, "velocity": 96, "duration": 249}, {"note": 59, "velocity": 81, "duration": 510}, {"note": 0, "velocity": 0, "duration": 210}, {"note": 59, "velocity": 82, "duration": 99}, {"note": 61, "velocity": 92, "duration": 162}, {"note": 59, "velocity": 75, "duration": 181}, {"note": 59, "velocity": 75, "duration": 161}, {"note": 0, "velocity": 0, "duration": 79}, {"note": 59, "velocity": 82, "duration": 213}, {"note": 56, "velocity": 83, "duration": 273}, {"note": 54, "velocity": 82, "duration": 530}, {"note": 0, "velocity": 0, "duration": 190}, {"note": 59, "velocity": 92, "duration": 107}, {"note": 61, "velocity": 69, "duration": 103}, {"note": 63, "velocity": 93, "duration": 170}, {"note": 0, "velocity": 0, "duration": 70}, {"note": 63, "velocity": 93, "duration": 169}, {"note": 0, "velocity": 0, "duration": 71}, {"note": 63, "velocity": 100, "duration": 203}, {"note": 61, "velocity": 93, "duration": 266}, {"note": 59, "velocity": 88, "duration": 506}, {"note": 0, "velocity": 0, "duration": 214}, {"note": 61, "velocity": 95, "duration": 187}, {"note": 63, "velocity": 92, "duration": 249}, {"note": 66, "velocity": 96, "duration": 1089}, {"note": 0, "velocity": 0, "duration": 351}, {"note": 68, "velocity": 95, "duration": 95}, {"note": 70, "velocity": 92, "duration": 68}, {"note": 71, "velocity": 99, "duration": 273}, {"note": 0, "velocity": 0, "duration": 87}, {"note": 71, "velocity": 122, "duration": 278}, {"note": 0, "velocity": 0, "duration": 82}, {"note": 73, "velocity": 107, "duration": 281}, {"note": 68, "velocity": 99, "duration": 506}, {"note": 0, "velocity": 0, "duration": 214}, {"note": 71, "velocity": 97, "duration": 137}, {"note": 68, "velocity": 88, "duration": 132}, {"note": 66, "velocity": 99, "duration": 272}, {"note": 0, "velocity": 0, "duration": 88}, {"note": 66, "velocity": 102, "duration": 295}, {"note": 0, "velocity": 0, "duration": 65}, {"note": 68, "velocity": 92, "duration": 236}, {"note": 63, "velocity": 99, "duration": 479}, {"note": 0, "velocity": 0, "duration": 241}, {"note": 63, "velocity": 102, "duration": 176}, {"note": 0, "velocity": 0, "duration": 64}, {"note": 61, "velocity": 95, "duration": 623}, {"note": 0, "velocity": 0, "duration": 97}, {"note": 61, "velocity": 99, "duration": 177}, {"note": 0, "velocity": 0, "duration": 63}, {"note": 61, "velocity": 97, "duration": 292}, {"note": 61, "velocity": 99, "duration": 52}, {"note": 0, "velocity": 0, "duration": 188}, {"note": 63, "velocity": 102, "duration": 246}, {"note": 61, "velocity": 85, "duration": 466}, {"note": 59, "velocity": 90, "duration": 973}, {"note": 0, "velocity": 0, "duration": 227}, {"note": 63, "velocity": 107, "duration": 204}, {"note": 66, "velocity": 97, "duration": 164}, {"note": 0, "velocity": 0, "duration": 76}, {"note": 66, "velocity": 100, "duration": 567}, {"note": 0, "velocity": 0, "duration": 153}, {"note": 63, "velocity": 107, "duration": 151}, {"note": 61, "velocity": 88, "duration": 128}, {"note": 59, "velocity": 86, "duration": 404}, {"note": 0, "velocity": 0, "duration": 76}, {"note": 59, "velocity": 93, "duration": 177}, {"note": 0, "velocity": 0, "duration": 63}, {"note": 71, "velocity": 102, "duration": 177}, {"note": 0, "velocity": 0, "duration": 63}, {"note": 71, "velocity": 99, "duration": 584}, {"note": 0, "velocity": 0, "duration": 136}, {"note": 68, "velocity": 112, "duration": 222}, {"note": 66, "velocity": 97, "duration": 369}, {"note": 0, "velocity": 0, "duration": 351}, {"note": 59, "velocity": 96, "duration": 106}, {"note": 61, "velocity": 92, "duration": 113}, {"note": 63, "velocity": 102, "duration": 433}, {"note": 0, "velocity": 0, "duration": 287}, {"note": 68, "velocity": 100, "duration": 184}, {"note": 66, "velocity": 107, "duration": 179}, {"note": 0, "velocity": 0, "duration": 61}, {"note": 66, "velocity": 117, "duration": 148}, {"note": 0, "velocity": 0, "duration": 92}, {"note": 63, "velocity": 112, "duration": 112}, {"note": 61, "velocity": 100, "duration": 200}, {"note": 59, "velocity": 85, "duration": 134}, {"note": 61, "velocity": 102, "duration": 786}, {"note": 0, "velocity": 0, "duration": 654}, {"note": 63, "velocity": 107, "duration": 180}, {"note": 66, "velocity": 102, "duration": 165}, {"note": 0, "velocity": 0, "duration": 75}, {"note": 66, "velocity": 102, "duration": 665}, {"note": 63, "velocity": 99, "duration": 133}, {"note": 61, "velocity": 93, "duration": 131}, {"note": 59, "velocity": 95, "duration": 346}, {"note": 0, "velocity": 0, "duration": 134}, {"note": 59, "velocity": 92, "duration": 247}, {"note": 71, "velocity": 117, "duration": 186}, {"note": 71, "velocity": 122, "duration": 670}, {"note": 73, "velocity": 117, "duration": 223}, {"note": 0, "velocity": 0, "duration": 137}, {"note": 68, "velocity": 112, "duration": 399}, {"note": 0, "velocity": 0, "duration": 201}, {"note": 71, "velocity": 102, "duration": 148}, {"note": 68, "velocity": 96, "duration": 119}, {"note": 66, "velocity": 95, "duration": 263}, {"note": 0, "velocity": 0, "duration": 97}, {"note": 71, "velocity": 95, "duration": 290}, {"note": 0, "velocity": 0, "duration": 70}, {"note": 63, "velocity": 127, "duration": 108}, {"note": 61, "velocity": 93, "duration": 74}, {"note": 61, "velocity": 100, "duration": 560}, {"note": 63, "velocity": 107, "duration": 359}, {"note": 61, "velocity": 88, "duration": 156}, {"note": 59, "velocity": 90, "duration": 1311}, {"note": 0, "velocity": 0, "duration": 129}, {"note": 64, "velocity": 107, "duration": 204}, {"note": 67, "velocity": 97, "duration": 164}, {"note": 0, "velocity": 0, "duration": 76}, {"note": 67, "velocity": 100, "duration": 567}, {"note": 0, "velocity": 0, "duration": 153}, {"note": 64, "velocity": 107, "duration": 151}, {"note": 62, "velocity": 88, "duration": 128}, {"note": 60, "velocity": 86, "duration": 404}, {"note": 0, "velocity": 0, "duration": 76}, {"note": 60, "velocity": 93, "duration": 177}, {"note": 0, "velocity": 0, "duration": 63}, {"note": 72, "velocity": 102, "duration": 177}, {"note": 0, "velocity": 0, "duration": 63}, {"note": 72, "velocity": 99, "duration": 584}, {"note": 0, "velocity": 0, "duration": 136}, {"note": 69, "velocity": 112, "duration": 222}, {"note": 67, "velocity": 97, "duration": 369}, {"note": 0, "velocity": 0, "duration": 351}, {"note": 60, "velocity": 96, "duration": 106}, {"note": 62, "velocity": 92, "duration": 113}, {"note": 64, "velocity": 102, "duration": 433}, {"note": 0, "velocity": 0, "duration": 287}, {"note": 69, "velocity": 100, "duration": 184}, {"note": 67, "velocity": 107, "duration": 179}, {"note": 0, "velocity": 0, "duration": 61}, {"note": 67, "velocity": 117, "duration": 148}, {"note": 0, "velocity": 0, "duration": 92}, {"note": 64, "velocity": 112, "duration": 112}, {"note": 62, "velocity": 100, "duration": 200}, {"note": 60, "velocity": 85, "duration": 134}, {"note": 62, "velocity": 102, "duration": 786}, {"note": 0, "velocity": 0, "duration": 654}, {"note": 64, "velocity": 107, "duration": 180}, {"note": 67, "velocity": 102, "duration": 165}, {"note": 0, "velocity": 0, "duration": 75}, {"note": 67, "velocity": 102, "duration": 665}, {"note": 64, "velocity": 99, "duration": 133}, {"note": 62, "velocity": 93, "duration": 131}, {"note": 60, "velocity": 95, "duration": 346}, {"note": 0, "velocity": 0, "duration": 134}, {"note": 60, "velocity": 92, "duration": 247}, {"note": 72, "velocity": 117, "duration": 186}, {"note": 72, "velocity": 122, "duration": 670}, {"note": 74, "velocity": 117, "duration": 223}, {"note": 0, "velocity": 0, "duration": 137}, {"note": 69, "velocity": 112, "duration": 399}, {"note": 0, "velocity": 0, "duration": 201}, {"note": 72, "velocity": 102, "duration": 148}, {"note": 69, "velocity": 96, "duration": 119}, {"note": 67, "velocity": 95, "duration": 263}, {"note": 0, "velocity": 0, "duration": 97}, {"note": 72, "velocity": 95, "duration": 290}, {"note": 0, "velocity": 0, "duration": 70}, {"note": 69, "velocity": 107, "duration": 220}, {"note": 72, "velocity": 127, "duration": 430}, {"note": 74, "velocity": 127, "duration": 366}, {"note": 0, "velocity": 0, "duration": 114}, {"note": 72, "velocity": 127, "duration": 1897}]]