[[{"note": 72, "velocity": 96, "duration": 223}, {"note": 64, "velocity": 85, "duration": 262}, {"note": 65, "velocity": 93, "duration": 247}, {"note": 72, "velocity": 112, "duration": 193}, {"note": 72, "velocity": 127, "duration": 435}, {"note": 70, "velocity": 112, "duration": 479}, {"note": 69, "velocity": 112, "duration": 470}, {"note": 57, "velocity": 96, "duration": 272}, {"note": 61, "velocity": 99, "duration": 279}, {"note": 67, "velocity": 95, "duration": 166}, {"note": 64, "velocity": 93, "duration": 168}, {"note": 0, "velocity": 0, "duration": 72}, {"note": 64, "velocity": 95, "duration": 307}, {"note": 67, "velocity": 99, "duration": 317}, {"note": 0, "velocity": 0, "duration": 163}, {"note": 65, "velocity": 93, "duration": 436}, {"note": 62, "velocity": 92, "duration": 442}, {"note": 67, "velocity": 100, "duration": 217}, {"note": 55, "velocity": 93, "duration": 266}, {"note": 58, "velocity": 82, "duration": 293}, {"note": 62, "velocity": 95, "duration": 228}, {"note": 67, "velocity": 100, "duration": 188}, {"note": 55, "velocity": 85, "duration": 262}, {"note": 58, "velocity": 88, "duration": 280}, {"note": 65, "velocity": 96, "duration": 170}, {"note": 0, "velocity": 0, "duration": 70}, {"note": 65, "velocity": 99, "duration": 361}, {"note": 0, "velocity": 0, "duration": 599}, {"note": 64, "velocity": 86, "duration": 477}, {"note": 0, "velocity": 0, "duration": 723}, {"note": 69, "velocity": 122, "duration": 192}, {"note": 70, "velocity": 112, "duration": 227}, {"note": 69, "velocity": 102, "duration": 201}, {"note": 67, "velocity": 100, "duration": 180}, {"note": 69, "velocity": 93, "duration": 83}, {"note": 70, "velocity": 112, "duration": 353}, {"note": 69, "velocity": 102, "duration": 328}, {"note": 0, "velocity": 0, "duration": 272}, {"note": 69, "velocity": 117, "duration": 141}, {"note": 0, "velocity": 0, "duration": 99}, {"note": 70, "velocity": 122, "duration": 150}, {"note": 0, "velocity": 0, "duration": 90}, {"note": 69, "velocity": 117, "duration": 144}, {"note": 0, "velocity": 0, "duration": 96}, {"note": 67, "velocity": 107, "duration": 202}, {"note": 69, "velocity": 99, "duration": 62}, {"note": 69, "velocity": 112, "duration": 263}, {"note": 64, "velocity": 93, "duration": 346}, {"note": 65, "velocity": 93, "duration": 470}, {"note": 74, "velocity": 127, "duration": 449}, {"note": 72, "velocity": 117, "duration": 494}, {"note": 0, "velocity": 0, "duration": 226}, {"note": 65, "velocity": 96, "duration": 206}, {"note": 70, "velocity": 122, "duration": 222}, {"note": 69, "velocity": 89, "duration": 261}, {"note": 70, "velocity": 93, "duration": 215}, {"note": 72, "velocity": 97, "duration": 41}, {"note": 0, "velocity": 0, "duration": 79}, {"note": 69, "velocity": 97, "duration": 351}, {"note": 67, "velocity": 97, "duration": 705}, {"note": 0, "velocity": 0, "duration": 255}, {"note": 69, "velocity": 122, "duration": 192}, {"note": 70, "velocity": 112, "duration": 227}, {"note": 69, "velocity": 102, "duration": 201}, {"note": 67, "velocity": 100, "duration": 180}, {"note": 69, "velocity": 93, "duration": 83}, {"note": 70, "velocity": 112, "duration": 353}, {"note": 69, "velocity": 102, "duration": 328}, {"note": 0, "velocity": 0, "duration": 272}, {"note": 69, "velocity": 117, "duration": 141}, {"note": 0, "velocity": 0, "duration": 99}, {"note": 70, "velocity": 122, "duration": 150}, {"note": 0, "velocity": 0, "duration": 90}, {"note": 69, "velocity": 117, "duration": 144}, {"note": 0, "velocity": 0, "duration": 96}, {"note": 67, "velocity": 107, "duration": 202}, {"note": 69, "velocity": 99, "duration": 62}, {"note": 69, "velocity": 112, "duration": 263}, {"note": 64, "velocity": 93, "duration": 346}, {"note": 65, "velocity": 93, "duration": 470}, {"note": 74, "velocity": 127, "duration": 449}, {"note": 72, "velocity": 117, "duration": 279}, {"note": 77, "velocity": 99, "duration": 54}, {"note": 0, "velocity": 0, "duration": 66}, {"note": 77, "velocity": 112, "duration": 322}, {"note": 0, "velocity": 0, "duration": 158}, {"note": 79, "velocity": 97, "duration": 68}, {"note": 81, "velocity": 96, "duration": 116}, {"note": 0, "velocity": 0, "duration": 124}, {"note": 81, "velocity": 117, "duration": 72}, {"note": 0, "velocity": 0, "duration": 168}, {"note": 81, "velocity": 127, "duration": 122}, {"note": 0, "velocity": 0, "duration": 118}, {"note": 77, "velocity": 96, "duration": 49}, {"note": 0, "velocity": 0, "duration": 71}, {"note": 77, "velocity": 95, "duration": 214}, {"note": 79, "velocity": 112, "duration": 602}, {"note": 77, "velocity": 112, "duration": 108}, {"note": 76, "velocity": 96, "duration": 99}, {"note": 74, "velocity": 99, "duration": 176}, {"note": 0, "velocity": 0, "duration": 64}, {"note": 74, "velocity": 97, "duration": 193}, {"note": 74, "velocity": 112, "duration": 163}, {"note": 0, "velocity": 0, "duration": 77}, {"note": 76, "velocity": 122, "duration": 56}, {"note": 0, "velocity": 0, "duration": 64}, {"note": 74, "velocity": 112, "duration": 146}, {"note": 0, "velocity": 0, "duration": 94}, {"note": 73, "velocity": 122, "duration": 364}, {"note": 0, "velocity": 0, "duration": 356}, {"note": 69, "velocity": 111, "duration": 127}, {"note": 76, "velocity": 127, "duration": 190}, {"note": 76, "velocity": 117, "duration": 173}, {"note": 0, "velocity": 0, "duration": 67}, {"note": 77, "velocity": 127, "duration": 207}, {"note": 79, "velocity": 102, "duration": 53}, {"note": 0, "velocity": 0, "duration": 67}, {"note": 79, "velocity": 127, "duration": 261}, {"note": 77, "velocity": 122, "duration": 251}, {"note": 0, "velocity": 0, "duration": 109}, {"note": 76, "velocity": 127, "duration": 68}, {"note": 77, "velocity": 122, "duration": 145}, {"note": 0, "velocity": 0, "duration": 95}, {"note": 76, "velocity": 127, "duration": 91}, {"note": 74, "velocity": 127, "duration": 166}, {"note": 0, "velocity": 0, "duration": 74}, {"note": 74, "velocity": 107, "duration": 52}, {"note": 0, "velocity": 0, "duration": 68}, {"note": 74, "velocity": 127, "duration": 207}, {"note": 0, "velocity": 0, "duration": 273}, {"note": 74, "velocity": 107, "duration": 62}, {"note": 74, "velocity": 112, "duration": 220}, {"note": 79, "velocity": 127, "duration": 139}, {"note": 0, "velocity": 0, "duration": 101}, {"note": 79, "velocity": 127, "duration": 142}, {"note": 0, "velocity": 0, "duration": 98}, {"note": 77, "velocity": 112, "duration": 79}, {"note": 79, "velocity": 127, "duration": 927}, {"note": 0, "velocity": 0, "duration": 393}, {"note": 69, "velocity": 117, "duration": 151}, {"note": 0, "velocity": 0, "duration": 89}, {"note": 72, "velocity": 127, "duration": 170}, {"note": 0, "velocity": 0, "duration": 70}, {"note": 79, "velocity": 127, "duration": 176}, {"note": 0, "velocity": 0, "duration": 64}, {"note": 77, "velocity": 122, "duration": 171}, {"note": 0, "velocity": 0, "duration": 69}, {"note": 70, "velocity": 112, "duration": 254}, {"note": 70, "velocity": 127, "duration": 14}, {"note": 0, "velocity": 0, "duration": 226}, {"note": 69, "velocity": 100, "duration": 66}, {"note": 70, "velocity": 122, "duration": 144}, {"note": 0, "velocity": 0, "duration": 96}, {"note": 67, "velocity": 100, "duration": 220}, {"note": 0, "velocity": 0, "duration": 140}, {"note": 76, "velocity": 127, "duration": 175}, {"note": 0, "velocity": 0, "duration": 65}, {"note": 77, "velocity": 127, "duration": 186}, {"note": 79, "velocity": 127, "duration": 188}, {"note": 72, "velocity": 112, "duration": 178}, {"note": 0, "velocity": 0, "duration": 62}, {"note": 72, "velocity": 117, "duration": 133}, {"note": 0, "velocity": 0, "duration": 107}, {"note": 70, "velocity": 127, "duration": 40}, {"note": 0, "velocity": 0, "duration": 80}, {"note": 70, "velocity": 122, "duration": 145}, {"note": 0, "velocity": 0, "duration": 95}, {"note": 69, "velocity": 127, "duration": 237}, {"note": 0, "velocity": 0, "duration": 123}, {"note": 69, "velocity": 107, "duration": 139}, {"note": 70, "velocity": 117, "duration": 125}, {"note": 72, "velocity": 112, "duration": 153}, {"note": 0, "velocity": 0, "duration": 87}, {"note": 72, "velocity": 127, "duration": 190}, {"note": 74, "velocity": 112, "duration": 52}, {"note": 0, "velocity": 0, "duration": 68}, {"note": 65, "velocity": 112, "duration": 330}, {"note": 0, "velocity": 0, "duration": 150}, {"note": 74, "velocity": 127, "duration": 62}, {"note": 74, "velocity": 127, "duration": 206}, {"note": 76, "velocity": 112, "duration": 187}, {"note": 72, "velocity": 122, "duration": 165}, {"note": 0, "velocity": 0, "duration": 75}, {"note": 67, "velocity": 112, "duration": 185}, {"note": 70, "velocity": 127, "duration": 177}, {"note": 0, "velocity": 0, "duration": 63}, {"note": 69, "velocity": 122, "duration": 189}, {"note": 67, "velocity": 102, "duration": 199}, {"note": 69, "velocity": 112, "duration": 388}, {"note": 0, "velocity": 0, "duration": 92}, {"note": 69, "velocity": 107, "duration": 236}, {"note": 72, "velocity": 117, "duration": 165}, {"note": 0, "velocity": 0, "duration": 75}, {"note": 79, "velocity": 122, "duration": 177}, {"note": 0, "velocity": 0, "duration": 63}, {"note": 77, "velocity": 127, "duration": 184}, {"note": 70, "velocity": 117, "duration": 121}, {"note": 0, "velocity": 0, "duration": 119}, {"note": 70, "velocity": 127, "duration": 116}, {"note": 0, "velocity": 0, "duration": 124}, {"note": 70, "velocity": 122, "duration": 61}, {"note": 69, "velocity": 102, "duration": 155}, {"note": 0, "velocity": 0, "duration": 85}, {"note": 67, "velocity": 107, "duration": 190}, {"note": 0, "velocity": 0, "duration": 170}, {"note": 76, "velocity": 127, "duration": 143}, {"note": 0, "velocity": 0, "duration": 97}, {"note": 77, "velocity": 112, "duration": 146}, {"note": 0, "velocity": 0, "duration": 94}, {"note": 79, "velocity": 122, "duration": 164}, {"note": 0, "velocity": 0, "duration": 76}, {"note": 79, "velocity": 122, "duration": 159}, {"note": 0, "velocity": 0, "duration": 81}, {"note": 79, "velocity": 127, "duration": 145}, {"note": 0, "velocity": 0, "duration": 95}, {"note": 76, "velocity": 97, "duration": 89}, {"note": 79, "velocity": 117, "duration": 135}, {"note": 0, "velocity": 0, "duration": 105}, {"note": 77, "velocity": 127, "duration": 277}, {"note": 0, "velocity": 0, "duration": 83}, {"note": 74, "velocity": 122, "duration": 160}, {"note": 0, "velocity": 0, "duration": 80}, {"note": 76, "velocity": 117, "duration": 171}, {"note": 0, "velocity": 0, "duration": 69}, {"note": 77, "velocity": 127, "duration": 174}, {"note": 0, "velocity": 0, "duration": 66}, {"note": 76, "velocity": 127, "duration": 57}, {"note": 0, "velocity": 0, "duration": 63}, {"note": 77, "velocity": 127, "duration": 220}, {"note": 0, "velocity": 0, "duration": 260}, {"note": 76, "velocity": 112, "duration": 48}, {"note": 0, "velocity": 0, "duration": 72}, {"note": 74, "velocity": 107, "duration": 158}, {"note": 0, "velocity": 0, "duration": 82}, {"note": 76, "velocity": 102, "duration": 141}, {"note": 0, "velocity": 0, "duration": 99}, {"note": 77, "velocity": 122, "duration": 137}, {"note": 0, "velocity": 0, "duration": 103}, {"note": 76, "velocity": 112, "duration": 47}, {"note": 0, "velocity": 0, "duration": 73}, {"note": 77, "velocity": 127, "duration": 1285}, {"note": 0, "velocity": 0, "duration": 10595}, {"note": 69, "velocity": 122, "duration": 192}, {"note": 70, "velocity": 112, "duration": 227}, {"note": 69, "velocity": 102, "duration": 201}, {"note": 67, "velocity": 100, "duration": 180}, {"note": 69, "velocity": 93, "duration": 83}, {"note": 70, "velocity": 112, "duration": 353}, {"note": 69, "velocity": 102, "duration": 328}, {"note": 0, "velocity": 0, "duration": 272}, {"note": 69, "velocity": 117, "duration": 141}, {"note": 0, "velocity": 0, "duration": 99}, {"note": 70, "velocity": 122, "duration": 150}, {"note": 0, "velocity": 0, "duration": 90}, {"note": 69, "velocity": 117, "duration": 144}, {"note": 0, "velocity": 0, "duration": 96}, {"note": 67, "velocity": 107, "duration": 202}, {"note": 69, "velocity": 99, "duration": 62}, {"note": 69, "velocity": 112, "duration": 263}, {"note": 64, "velocity": 93, "duration": 346}, {"note": 65, "velocity": 93, "duration": 470}, {"note": 74, "velocity": 127, "duration": 449}, {"note": 72, "velocity": 117, "duration": 494}, {"note": 0, "velocity": 0, "duration": 226}, {"note": 65, "velocity": 96, "duration": 206}, {"note": 70, "velocity": 122, "duration": 222}, {"note": 69, "velocity": 89, "duration": 261}, {"note": 70, "velocity": 93, "duration": 215}, {"note": 72, "velocity": 97, "duration": 41}, {"note": 0, "velocity": 0, "duration": 79}, {"note": 69, "velocity": 97, "duration": 351}, {"note": 67, "velocity": 97, "duration": 705}, {"note": 0, "velocity": 0, "duration": 255}, {"note": 69, "velocity": 122, "duration": 192}, {"note": 70, "velocity": 112, "duration": 227}, {"note": 69, "velocity": 102, "duration": 201}, {"note": 67, "velocity": 100, "duration": 180}, {"note": 69, "velocity": 93, "duration": 83}, {"note": 70, "velocity": 112, "duration": 353}, {"note": 69, "velocity": 102, "duration": 328}, {"note": 0, "velocity": 0, "duration": 272}, {"note": 69, "velocity": 117, "duration": 141}, {"note": 0, "velocity": 0, "duration": 99}, {"note": 70, "velocity": 122, "duration": 150}, {"note": 0, "velocity": 0, "duration": 90}, {"note": 69, "velocity": 117, "duration": 144}, {"note": 0, "velocity": 0, "duration": 96}, {"note": 67, "velocity": 107, "duration": 202}, {"note": 69, "velocity": 99, "duration": 62}, {"note": 69, "velocity": 112, "duration": 263}, {"note": 64, "velocity": 93, "duration": 346}, {"note": 65, "velocity": 93, "duration": 470}, {"note": 74, "velocity": 127, "duration": 449}, {"note": 72, "velocity": 117, "duration": 279}, {"note": 77, "velocity": 99, "duration": 54}, {"note": 0, "velocity": 0, "duration": 66}, {"note": 77, "velocity": 112, "duration": 322}, {"note": 0, "velocity": 0, "duration": 158}, {"note": 79, "velocity": 97, "duration": 68}, {"note": 81, "velocity": 96, "duration": 116}, {"note": 0, "velocity": 0, "duration": 124}, {"note": 81, "velocity": 117, "duration": 72}, {"note": 0, "velocity": 0, "duration": 168}, {"note": 81, "velocity": 127, "duration": 122}, {"note": 0, "velocity": 0, "duration": 118}, {"note": 77, "velocity": 96, "duration": 49}, {"note": 0, "velocity": 0, "duration": 71}, {"note": 77, "velocity": 95, "duration": 214}, {"note": 79, "velocity": 112, "duration": 602}, {"note": 77, "velocity": 112, "duration": 108}, {"note": 76, "velocity": 96, "duration": 99}, {"note": 74, "velocity": 99, "duration": 176}, {"note": 0, "velocity": 0, "duration": 64}, {"note": 74, "velocity": 97, "duration": 193}, {"note": 74, "velocity": 112, "duration": 163}, {"note": 0, "velocity": 0, "duration": 77}, {"note": 76, "velocity": 122, "duration": 56}, {"note": 0, "velocity": 0, "duration": 64}, {"note": 74, "velocity": 112, "duration": 146}, {"note": 0, "velocity": 0, "duration": 94}, {"note": 73, "velocity": 122, "duration": 364}, {"note": 0, "velocity": 0, "duration": 356}, {"note": 69, "velocity": 111, "duration": 127}, {"note": 76, "velocity": 127, "duration": 190}, {"note": 76, "velocity": 117, "duration": 173}, {"note": 0, "velocity": 0, "duration": 67}, {"note": 77, "velocity": 127, "duration": 207}, {"note": 79, "velocity": 102, "duration": 53}, {"note": 0, "velocity": 0, "duration": 67}, {"note": 79, "velocity": 127, "duration": 261}, {"note": 77, "velocity": 122, "duration": 251}, {"note": 0, "velocity": 0, "duration": 109}, {"note": 76, "velocity": 127, "duration": 68}, {"note": 77, "velocity": 122, "duration": 145}, {"note": 0, "velocity": 0, "duration": 95}, {"note": 76, "velocity": 127, "duration": 91}, {"note": 74, "velocity": 127, "duration": 166}, {"note": 0, "velocity": 0, "duration": 74}, {"note": 74, "velocity": 107, "duration": 52}, {"note": 0, "velocity": 0, "duration": 68}, {"note": 74, "velocity": 127, "duration": 207}, {"note": 0, "velocity": 0, "duration": 273}, {"note": 74, "velocity": 107, "duration": 62}, {"note": 74, "velocity": 112, "duration": 220}, {"note": 79, "velocity": 127, "duration": 139}, {"note": 0, "velocity": 0, "duration": 101}, {"note": 79, "velocity": 127, "duration": 142}, {"note": 0, "velocity": 0, "duration": 98}, {"note": 77, "velocity": 112, "duration": 79}, {"note": 79, "velocity": 127, "duration": 927}, {"note": 0, "velocity": 0, "duration": 393}, {"note": 69, "velocity": 117, "duration": 151}, {"note": 0, "velocity": 0, "duration": 89}, {"note": 72, "velocity": 127, "duration": 170}, {"note": 0, "velocity": 0, "duration": 70}, {"note": 79, "velocity": 127, "duration": 176}, {"note": 0, "velocity": 0, "duration": 64}, {"note": 77, "velocity": 122, "duration": 171}, {"note": 0, "velocity": 0, "duration": 69}, {"note": 70, "velocity": 112, "duration": 254}, {"note": 70, "velocity": 127, "duration": 14}, {"note": 0, "velocity": 0, "duration": 226}, {"note": 69, "velocity": 100, "duration": 66}, {"note": 70, "velocity": 122, "duration": 144}, {"note": 0, "velocity": 0, "duration": 96}, {"note": 67, "velocity": 100, "duration": 220}, {"note": 0, "velocity": 0, "duration": 140}, {"note": 76, "velocity": 127, "duration": 175}, {"note": 0, "velocity": 0, "duration": 65}, {"note": 77, "velocity": 127, "duration": 186}, {"note": 79, "velocity": 127, "duration": 188}, {"note": 72, "velocity": 112, "duration": 178}, {"note": 0, "velocity": 0, "duration": 62}, {"note": 72, "velocity": 117, "duration": 133}, {"note": 0, "velocity": 0, "duration": 107}, {"note": 70, "velocity": 127, "duration": 40}, {"note": 0, "velocity": 0, "duration": 80}, {"note": 70, "velocity": 122, "duration": 145}, {"note": 0, "velocity": 0, "duration": 95}, {"note": 69, "velocity": 127, "duration": 237}, {"note": 0, "velocity": 0, "duration": 123}, {"note": 69, "velocity": 107, "duration": 139}, {"note": 70, "velocity": 117, "duration": 125}, {"note": 72, "velocity": 112, "duration": 153}, {"note": 0, "velocity": 0, "duration": 87}, {"note": 72, "velocity": 127, "duration": 190}, {"note": 74, "velocity": 112, "duration": 52}, {"note": 0, "velocity": 0, "duration": 68}, {"note": 65, "velocity": 112, "duration": 330}, {"note": 0, "velocity": 0, "duration": 150}, {"note": 74, "velocity": 127, "duration": 62}, {"note": 74, "velocity": 127, "duration": 206}, {"note": 76, "velocity": 112, "duration": 187}, {"note": 72, "velocity": 122, "duration": 165}, {"note": 0, "velocity": 0, "duration": 75}, {"note": 67, "velocity": 112, "duration": 185}, {"note": 70, "velocity": 127, "duration": 177}, {"note": 0, "velocity": 0, "duration": 63}, {"note": 69, "velocity": 122, "duration": 189}, {"note": 67, "velocity": 102, "duration": 199}, {"note": 69, "velocity": 112, "duration": 388}, {"note": 0, "velocity": 0, "duration": 92}, {"note": 69, "velocity": 107, "duration": 236}, {"note": 72, "velocity": 117, "duration": 165}, {"note": 0, "velocity": 0, "duration": 75}, {"note": 79, "velocity": 122, "duration": 177}, {"note": 0, "velocity": 0, "duration": 63}, {"note": 77, "velocity": 127, "duration": 184}, {"note": 70, "velocity": 117, "duration": 121}, {"note": 0, "velocity": 0, "duration": 119}, {"note": 70, "velocity": 127, "duration": 116}, {"note": 0, "velocity": 0, "duration": 124}, {"note": 70, "velocity": 122, "duration": 61}, {"note": 69, "velocity": 102, "duration": 155}, {"note": 0, "velocity": 0, "duration": 85}, {"note": 67, "velocity": 107, "duration": 190}, {"note": 0, "velocity": 0, "duration": 170}, {"note": 76, "velocity": 127, "duration": 143}, {"note": 0, "velocity": 0, "duration": 97}, {"note": 77, "velocity": 112, "duration": 146}, {"note": 0, "velocity": 0, "duration": 94}, {"note": 79, "velocity": 122, "duration": 164}, {"note": 0, "velocity": 0, "duration": 76}, {"note": 79, "velocity": 122, "duration": 159}, {"note": 0, "velocity": 0, "duration": 81}, {"note": 79, "velocity": 127, "duration": 145}, {"note": 0, "velocity": 0, "duration": 95}, {"note": 76, "velocity": 97, "duration": 89}, {"note": 79, "velocity": 117, "duration": 135}, {"note": 0, "velocity": 0, "duration": 105}, {"note": 77, "velocity": 127, "duration": 277}, {"note": 0, "velocity": 0, "duration": 83}, {"note": 74, "velocity": 122, "duration": 160}, {"note": 0, "velocity": 0, "duration": 80}, {"note": 76, "velocity": 117, "duration": 171}, {"note": 0, "velocity": 0, "duration": 69}, {"note": 77, "velocity": 127, "duration": 174}, {"note": 0, "velocity": 0, "duration": 66}, {"note": 76, "velocity": 127, "duration": 57}, {"note": 0, "velocity": 0, "duration": 63}, {"note": 77, "velocity": 127, "duration": 220}, {"note": 0, "velocity": 0, "duration": 260}, {"note": 76, "velocity": 112, "duration": 48}, {"note": 0, "velocity": 0, "duration": 72}, {"note": 74, "velocity": 107, "duration": 158}, {"note": 0, "velocity": 0, "duration": 82}, {"note": 76, "velocity": 102, "duration": 141}, {"note": 0, "velocity": 0, "duration": 99}, {"note": 77, "velocity": 122, "duration": 480}, {"note": 0, "velocity": 0, "duration": 480}, {"note": 85, "velocity": 127, "duration": 346}, {"note": 0, "velocity": 0, "duration": 134}, {"note": 82, "velocity": 127, "duration": 224}, {"note": 0, "velocity": 0, "duration": 136}, {"note": 83, "velocity": 117, "duration": 105}, {"note": 82, "velocity": 122, "duration": 145}, {"note": 0, "velocity": 0, "duration": 95}, {"note": 80, "velocity": 127, "duration": 119}, {"note": 78, "velocity": 117, "duration": 90}, {"note": 78, "velocity": 122, "duration": 171}, {"note": 0, "velocity": 0, "duration": 69}, {"note": 71, "velocity": 112, "duration": 254}, {"note": 71, "velocity": 127, "duration": 14}, {"note": 0, "velocity": 0, "duration": 226}, {"note": 70, "velocity": 100, "duration": 66}, {"note": 71, "velocity": 122, "duration": 144}, {"note": 0, "velocity": 0, "duration": 96}, {"note": 68, "velocity": 100, "duration": 220}, {"note": 0, "velocity": 0, "duration": 140}, {"note": 77, "velocity": 127, "duration": 175}, {"note": 0, "velocity": 0, "duration": 65}, {"note": 78, "velocity": 127, "duration": 186}, {"note": 80, "velocity": 127, "duration": 188}, {"note": 73, "velocity": 112, "duration": 178}, {"note": 0, "velocity": 0, "duration": 62}, {"note": 73, "velocity": 117, "duration": 133}, {"note": 0, "velocity": 0, "duration": 107}, {"note": 71, "velocity": 127, "duration": 40}, {"note": 0, "velocity": 0, "duration": 80}, {"note": 71, "velocity": 122, "duration": 145}, {"note": 0, "velocity": 0, "duration": 95}, {"note": 70, "velocity": 127, "duration": 237}, {"note": 0, "velocity": 0, "duration": 123}, {"note": 70, "velocity": 107, "duration": 139}, {"note": 71, "velocity": 117, "duration": 125}, {"note": 73, "velocity": 112, "duration": 153}, {"note": 0, "velocity": 0, "duration": 87}, {"note": 73, "velocity": 127, "duration": 190}, {"note": 75, "velocity": 112, "duration": 52}, {"note": 0, "velocity": 0, "duration": 68}, {"note": 66, "velocity": 112, "duration": 330}, {"note": 0, "velocity": 0, "duration": 150}, {"note": 75, "velocity": 127, "duration": 62}, {"note": 75, "velocity": 127, "duration": 206}, {"note": 77, "velocity": 112, "duration": 187}, {"note": 73, "velocity": 122, "duration": 165}, {"note": 0, "velocity": 0, "duration": 75}, {"note": 80, "velocity": 127, "duration": 164}, {"note": 0, "velocity": 0, "duration": 76}, {"note": 83, "velocity": 127, "duration": 177}, {"note": 0, "velocity": 0, "duration": 63}, {"note": 82, "velocity": 127, "duration": 141}, {"note": 0, "velocity": 0, "duration": 99}, {"note": 82, "velocity": 127, "duration": 155}, {"note": 0, "velocity": 0, "duration": 85}, {"note": 82, "velocity": 127, "duration": 240}, {"note": 0, "velocity": 0, "duration": 240}, {"note": 80, "velocity": 127, "duration": 125}, {"note": 0, "velocity": 0, "duration": 115}, {"note": 80, "velocity": 127, "duration": 89}, {"note": 0, "velocity": 0, "duration": 151}, {"note": 82, "velocity": 127, "duration": 136}, {"note": 0, "velocity": 0, "duration": 104}, {"note": 80, "velocity": 127, "duration": 166}, {"note": 0, "velocity": 0, "duration": 74}, {"note": 78, "velocity": 117, "duration": 193}, {"note": 78, "velocity": 122, "duration": 119}, {"note": 0, "velocity": 0, "duration": 121}, {"note": 80, "velocity": 127, "duration": 45}, {"note": 0, "velocity": 0, "duration": 75}, {"note": 82, "velocity": 122, "duration": 133}, {"note": 0, "velocity": 0, "duration": 107}, {"note": 80, "velocity": 127, "duration": 157}, {"note": 0, "velocity": 0, "duration": 203}, {"note": 77, "velocity": 127, "duration": 143}, {"note": 0, "velocity": 0, "duration": 97}, {"note": 78, "velocity": 112, "duration": 146}, {"note": 0, "velocity": 0, "duration": 94}, {"note": 80, "velocity": 122, "duration": 164}, {"note": 0, "velocity": 0, "duration": 76}, {"note": 80, "velocity": 122, "duration": 159}, {"note": 0, "velocity": 0, "duration": 81}, {"note": 80, "velocity": 127, "duration": 145}, {"note": 0, "velocity": 0, "duration": 95}, {"note": 82, "velocity": 127, "duration": 39}, {"note": 0, "velocity": 0, "duration": 81}, {"note": 80, "velocity": 117, "duration": 135}, {"note": 0, "velocity": 0, "duration": 105}, {"note": 78, "velocity": 127, "duration": 277}, {"note": 0, "velocity": 0, "duration": 83}, {"note": 75, "velocity": 122, "duration": 160}, {"note": 0, "velocity": 0, "duration": 80}, {"note": 77, "velocity": 117, "duration": 171}, {"note": 0, "velocity": 0, "duration": 69}, {"note": 78, "velocity": 127, "duration": 174}, {"note": 0, "velocity": 0, "duration": 66}, {"note": 77, "velocity": 127, "duration": 57}, {"note": 0, "velocity": 0, "duration": 63}, {"note": 78, "velocity": 127, "duration": 220}, {"note": 0, "velocity": 0, "duration": 260}, {"note": 77, "velocity": 112, "duration": 48}, {"note": 0, "velocity": 0, "duration": 72}, {"note": 75, "velocity": 107, "duration": 158}, {"note": 0, "velocity": 0, "duration": 82}, {"note": 77, "velocity": 102, "duration": 141}, {"note": 0, "velocity": 0, "duration": 99}, {"note": 78, "velocity": 122, "duration": 343}, {"note": 77, "velocity": 99, "duration": 208}, {"note": 0, "velocity": 0, "duration": 152}, {"note": 78, "velocity": 127, "duration": 1643}]]