[[{"note": 70, "velocity": 127, "duration": 53}, {"note": 0, "velocity": 0, "duration": 67}, {"note": 70, "velocity": 100, "duration": 50}, {"note": 0, "velocity": 0, "duration": 70}, {"note": 70, "velocity": 122, "duration": 67}, {"note": 72, "velocity": 95, "duration": 64}, {"note": 72, "velocity": 112, "duration": 120}, {"note": 75, "velocity": 127, "duration": 244}, {"note": 72, "velocity": 99, "duration": 118}, {"note": 70, "velocity": 107, "duration": 68}, {"note": 70, "velocity": 127, "duration": 182}, {"note": 72, "velocity": 112, "duration": 100}, {"note": 67, "velocity": 100, "duration": 299}, {"note": 72, "velocity": 127, "duration": 104}, {"note": 0, "velocity": 0, "duration": 136}, {"note": 70, "velocity": 107, "duration": 35}, {"note": 0, "velocity": 0, "duration": 85}, {"note": 70, "velocity": 112, "duration": 197}, {"note": 67, "velocity": 100, "duration": 75}, {"note": 65, "velocity": 100, "duration": 179}, {"note": 0, "velocity": 0, "duration": 61}, {"note": 67, "velocity": 95, "duration": 87}, {"note": 60, "velocity": 99, "duration": 716}, {"note": 0, "velocity": 0, "duration": 364}, {"note": 70, "velocity": 127, "duration": 44}, {"note": 0, "velocity": 0, "duration": 76}, {"note": 70, "velocity": 127, "duration": 46}, {"note": 0, "velocity": 0, "duration": 74}, {"note": 70, "velocity": 127, "duration": 90}, {"note": 72, "velocity": 90, "duration": 47}, {"note": 0, "velocity": 0, "duration": 73}, {"note": 67, "velocity": 122, "duration": 227}, {"note": 65, "velocity": 107, "duration": 80}, {"note": 0, "velocity": 0, "duration": 160}, {"note": 70, "velocity": 127, "duration": 60}, {"note": 70, "velocity": 117, "duration": 184}, {"note": 72, "velocity": 100, "duration": 69}, {"note": 67, "velocity": 100, "duration": 115}, {"note": 65, "velocity": 112, "duration": 130}, {"note": 0, "velocity": 0, "duration": 110}, {"note": 60, "velocity": 102, "duration": 194}, {"note": 67, "velocity": 100, "duration": 981}, {"note": 0, "velocity": 0, "duration": 819}, {"note": 70, "velocity": 122, "duration": 40}, {"note": 0, "velocity": 0, "duration": 80}, {"note": 70, "velocity": 112, "duration": 48}, {"note": 0, "velocity": 0, "duration": 72}, {"note": 70, "velocity": 127, "duration": 82}, {"note": 72, "velocity": 100, "duration": 86}, {"note": 75, "velocity": 127, "duration": 149}, {"note": 0, "velocity": 0, "duration": 91}, {"note": 75, "velocity": 127, "duration": 140}, {"note": 72, "velocity": 112, "duration": 109}, {"note": 70, "velocity": 122, "duration": 112}, {"note": 70, "velocity": 127, "duration": 166}, {"note": 0, "velocity": 0, "duration": 74}, {"note": 72, "velocity": 117, "duration": 72}, {"note": 67, "velocity": 107, "duration": 237}, {"note": 72, "velocity": 112, "duration": 105}, {"note": 0, "velocity": 0, "duration": 135}, {"note": 70, "velocity": 117, "duration": 31}, {"note": 0, "velocity": 0, "duration": 89}, {"note": 70, "velocity": 99, "duration": 40}, {"note": 0, "velocity": 0, "duration": 80}, {"note": 70, "velocity": 127, "duration": 78}, {"note": 67, "velocity": 102, "duration": 115}, {"note": 65, "velocity": 107, "duration": 179}, {"note": 0, "velocity": 0, "duration": 61}, {"note": 67, "velocity": 112, "duration": 72}, {"note": 0, "velocity": 0, "duration": 168}, {"note": 60, "velocity": 99, "duration": 792}, {"note": 0, "velocity": 0, "duration": 168}, {"note": 70, "velocity": 112, "duration": 47}, {"note": 0, "velocity": 0, "duration": 73}, {"note": 70, "velocity": 96, "duration": 48}, {"note": 0, "velocity": 0, "duration": 72}, {"note": 70, "velocity": 112, "duration": 78}, {"note": 72, "velocity": 93, "duration": 80}, {"note": 67, "velocity": 97, "duration": 225}, {"note": 65, "velocity": 96, "duration": 90}, {"note": 0, "velocity": 0, "duration": 150}, {"note": 70, "velocity": 127, "duration": 51}, {"note": 0, "velocity": 0, "duration": 69}, {"note": 70, "velocity": 122, "duration": 175}, {"note": 0, "velocity": 0, "duration": 65}, {"note": 72, "velocity": 122, "duration": 84}, {"note": 67, "velocity": 122, "duration": 121}, {"note": 65, "velocity": 96, "duration": 105}, {"note": 0, "velocity": 0, "duration": 135}, {"note": 60, "velocity": 89, "duration": 206}, {"note": 63, "velocity": 99, "duration": 776}, {"note": 0, "velocity": 0, "duration": 544}, {"note": 75, "velocity": 127, "duration": 164}, {"note": 0, "velocity": 0, "duration": 76}, {"note": 72, "velocity": 112, "duration": 189}, {"note": 75, "velocity": 127, "duration": 47}, {"note": 0, "velocity": 0, "duration": 73}, {"note": 75, "velocity": 127, "duration": 167}, {"note": 0, "velocity": 0, "duration": 73}, {"note": 77, "velocity": 102, "duration": 94}, {"note": 75, "velocity": 127, "duration": 146}, {"note": 0, "velocity": 0, "duration": 94}, {"note": 72, "velocity": 100, "duration": 200}, {"note": 75, "velocity": 127, "duration": 186}, {"note": 75, "velocity": 127, "duration": 66}, {"note": 0, "velocity": 0, "duration": 174}, {"note": 72, "velocity": 107, "duration": 80}, {"note": 70, "velocity": 122, "duration": 153}, {"note": 0, "velocity": 0, "duration": 327}, {"note": 72, "velocity": 122, "duration": 54}, {"note": 0, "velocity": 0, "duration": 66}, {"note": 72, "velocity": 99, "duration": 56}, {"note": 0, "velocity": 0, "duration": 64}, {"note": 72, "velocity": 99, "duration": 87}, {"note": 75, "velocity": 117, "duration": 91}, {"note": 63, "velocity": 112, "duration": 193}, {"note": 65, "velocity": 102, "duration": 66}, {"note": 67, "velocity": 102, "duration": 815}, {"note": 0, "velocity": 0, "duration": 265}, {"note": 65, "velocity": 112, "duration": 49}, {"note": 0, "velocity": 0, "duration": 71}, {"note": 65, "velocity": 96, "duration": 52}, {"note": 0, "velocity": 0, "duration": 68}, {"note": 65, "velocity": 102, "duration": 78}, {"note": 67, "velocity": 97, "duration": 63}, {"note": 63, "velocity": 122, "duration": 192}, {"note": 60, "velocity": 107, "duration": 88}, {"note": 0, "velocity": 0, "duration": 152}, {"note": 65, "velocity": 102, "duration": 254}, {"note": 0, "velocity": 0, "duration": 106}, {"note": 63, "velocity": 112, "duration": 91}, {"note": 65, "velocity": 100, "duration": 209}, {"note": 0, "velocity": 0, "duration": 151}, {"note": 63, "velocity": 122, "duration": 88}, {"note": 65, "velocity": 95, "duration": 56}, {"note": 0, "velocity": 0, "duration": 64}, {"note": 65, "velocity": 97, "duration": 55}, {"note": 0, "velocity": 0, "duration": 65}, {"note": 65, "velocity": 93, "duration": 56}, {"note": 0, "velocity": 0, "duration": 64}, {"note": 63, "velocity": 112, "duration": 69}, {"note": 65, "velocity": 102, "duration": 125}, {"note": 0, "velocity": 0, "duration": 235}, {"note": 67, "velocity": 107, "duration": 102}, {"note": 70, "velocity": 127, "duration": 380}, {"note": 0, "velocity": 0, "duration": 100}, {"note": 75, "velocity": 127, "duration": 188}, {"note": 72, "velocity": 117, "duration": 113}, {"note": 0, "velocity": 0, "duration": 127}, {"note": 75, "velocity": 127, "duration": 47}, {"note": 0, "velocity": 0, "duration": 73}, {"note": 75, "velocity": 107, "duration": 53}, {"note": 0, "velocity": 0, "duration": 67}, {"note": 75, "velocity": 117, "duration": 84}, {"note": 77, "velocity": 99, "duration": 95}, {"note": 75, "velocity": 117, "duration": 174}, {"note": 0, "velocity": 0, "duration": 66}, {"note": 72, "velocity": 127, "duration": 231}, {"note": 72, "velocity": 112, "duration": 135}, {"note": 75, "velocity": 117, "duration": 162}, {"note": 0, "velocity": 0, "duration": 78}, {"note": 72, "velocity": 99, "duration": 108}, {"note": 70, "velocity": 117, "duration": 259}, {"note": 0, "velocity": 0, "duration": 221}, {"note": 72, "velocity": 122, "duration": 52}, {"note": 0, "velocity": 0, "duration": 68}, {"note": 72, "velocity": 97, "duration": 51}, {"note": 0, "velocity": 0, "duration": 69}, {"note": 72, "velocity": 107, "duration": 66}, {"note": 75, "velocity": 127, "duration": 101}, {"note": 63, "velocity": 112, "duration": 219}, {"note": 65, "velocity": 112, "duration": 112}, {"note": 67, "velocity": 93, "duration": 845}, {"note": 0, "velocity": 0, "duration": 235}, {"note": 65, "velocity": 122, "duration": 47}, {"note": 0, "velocity": 0, "duration": 73}, {"note": 65, "velocity": 96, "duration": 52}, {"note": 0, "velocity": 0, "duration": 68}, {"note": 65, "velocity": 112, "duration": 108}, {"note": 67, "velocity": 100, "duration": 90}, {"note": 63, "velocity": 117, "duration": 222}, {"note": 60, "velocity": 117, "duration": 122}, {"note": 0, "velocity": 0, "duration": 118}, {"note": 65, "velocity": 107, "duration": 258}, {"note": 0, "velocity": 0, "duration": 102}, {"note": 63, "velocity": 117, "duration": 87}, {"note": 65, "velocity": 100, "duration": 179}, {"note": 0, "velocity": 0, "duration": 181}, {"note": 63, "velocity": 127, "duration": 87}, {"note": 65, "velocity": 100, "duration": 43}, {"note": 0, "velocity": 0, "duration": 77}, {"note": 65, "velocity": 97, "duration": 48}, {"note": 0, "velocity": 0, "duration": 72}, {"note": 65, "velocity": 90, "duration": 47}, {"note": 0, "velocity": 0, "duration": 73}, {"note": 63, "velocity": 117, "duration": 51}, {"note": 0, "velocity": 0, "duration": 69}, {"note": 65, "velocity": 122, "duration": 66}, {"note": 72, "velocity": 112, "duration": 161}, {"note": 0, "velocity": 0, "duration": 79}, {"note": 67, "velocity": 99, "duration": 117}, {"note": 70, "velocity": 127, "duration": 586}, {"note": 0, "velocity": 0, "duration": 374}, {"note": 70, "velocity": 127, "duration": 40}, {"note": 0, "velocity": 0, "duration": 80}, {"note": 70, "velocity": 117, "duration": 44}, {"note": 0, "velocity": 0, "duration": 76}, {"note": 70, "velocity": 127, "duration": 68}, {"note": 72, "velocity": 95, "duration": 60}, {"note": 72, "velocity": 127, "duration": 132}, {"note": 75, "velocity": 117, "duration": 153}, {"note": 0, "velocity": 0, "duration": 87}, {"note": 72, "velocity": 99, "duration": 103}, {"note": 70, "velocity": 127, "duration": 54}, {"note": 0, "velocity": 0, "duration": 66}, {"note": 70, "velocity": 117, "duration": 160}, {"note": 0, "velocity": 0, "duration": 80}, {"note": 72, "velocity": 102, "duration": 88}, {"note": 67, "velocity": 97, "duration": 158}, {"note": 0, "velocity": 0, "duration": 82}, {"note": 72, "velocity": 112, "duration": 113}, {"note": 0, "velocity": 0, "duration": 127}, {"note": 70, "velocity": 117, "duration": 41}, {"note": 0, "velocity": 0, "duration": 79}, {"note": 70, "velocity": 95, "duration": 49}, {"note": 0, "velocity": 0, "duration": 71}, {"note": 70, "velocity": 122, "duration": 119}, {"note": 67, "velocity": 107, "duration": 105}, {"note": 65, "velocity": 97, "duration": 123}, {"note": 0, "velocity": 0, "duration": 117}, {"note": 67, "velocity": 96, "duration": 65}, {"note": 60, "velocity": 97, "duration": 714}, {"note": 0, "velocity": 0, "duration": 366}, {"note": 70, "velocity": 127, "duration": 55}, {"note": 0, "velocity": 0, "duration": 65}, {"note": 70, "velocity": 96, "duration": 51}, {"note": 0, "velocity": 0, "duration": 69}, {"note": 70, "velocity": 117, "duration": 75}, {"note": 72, "velocity": 85, "duration": 77}, {"note": 67, "velocity": 99, "duration": 219}, {"note": 65, "velocity": 102, "duration": 104}, {"note": 0, "velocity": 0, "duration": 136}, {"note": 70, "velocity": 127, "duration": 44}, {"note": 0, "velocity": 0, "duration": 76}, {"note": 70, "velocity": 127, "duration": 168}, {"note": 0, "velocity": 0, "duration": 72}, {"note": 72, "velocity": 112, "duration": 57}, {"note": 0, "velocity": 0, "duration": 63}, {"note": 67, "velocity": 117, "duration": 90}, {"note": 65, "velocity": 112, "duration": 101}, {"note": 0, "velocity": 0, "duration": 139}, {"note": 60, "velocity": 100, "duration": 200}, {"note": 67, "velocity": 107, "duration": 791}, {"note": 0, "velocity": 0, "duration": 1009}, {"note": 70, "velocity": 127, "duration": 34}, {"note": 0, "velocity": 0, "duration": 86}, {"note": 70, "velocity": 107, "duration": 40}, {"note": 0, "velocity": 0, "duration": 80}, {"note": 70, "velocity": 122, "duration": 82}, {"note": 72, "velocity": 99, "duration": 58}, {"note": 0, "velocity": 0, "duration": 62}, {"note": 72, "velocity": 107, "duration": 260}, {"note": 75, "velocity": 117, "duration": 78}, {"note": 72, "velocity": 112, "duration": 112}, {"note": 70, "velocity": 102, "duration": 57}, {"note": 0, "velocity": 0, "duration": 63}, {"note": 70, "velocity": 127, "duration": 136}, {"note": 0, "velocity": 0, "duration": 104}, {"note": 72, "velocity": 122, "duration": 100}, {"note": 67, "velocity": 107, "duration": 230}, {"note": 72, "velocity": 127, "duration": 90}, {"note": 0, "velocity": 0, "duration": 150}, {"note": 70, "velocity": 127, "duration": 45}, {"note": 0, "velocity": 0, "duration": 75}, {"note": 70, "velocity": 117, "duration": 43}, {"note": 0, "velocity": 0, "duration": 77}, {"note": 70, "velocity": 122, "duration": 131}, {"note": 67, "velocity": 112, "duration": 110}, {"note": 65, "velocity": 99, "duration": 114}, {"note": 0, "velocity": 0, "duration": 126}, {"note": 67, "velocity": 93, "duration": 69}, {"note": 60, "velocity": 97, "duration": 889}, {"note": 0, "velocity": 0, "duration": 191}, {"note": 70, "velocity": 127, "duration": 41}, {"note": 0, "velocity": 0, "duration": 79}, {"note": 70, "velocity": 122, "duration": 44}, {"note": 0, "velocity": 0, "duration": 76}, {"note": 70, "velocity": 127, "duration": 83}, {"note": 72, "velocity": 100, "duration": 73}, {"note": 67, "velocity": 117, "duration": 220}, {"note": 65, "velocity": 102, "duration": 100}, {"note": 0, "velocity": 0, "duration": 140}, {"note": 70, "velocity": 127, "duration": 52}, {"note": 0, "velocity": 0, "duration": 68}, {"note": 70, "velocity": 117, "duration": 178}, {"note": 0, "velocity": 0, "duration": 62}, {"note": 72, "velocity": 112, "duration": 50}, {"note": 0, "velocity": 0, "duration": 70}, {"note": 67, "velocity": 112, "duration": 123}, {"note": 65, "velocity": 99, "duration": 110}, {"note": 0, "velocity": 0, "duration": 130}, {"note": 60, "velocity": 99, "duration": 175}, {"note": 0, "velocity": 0, "duration": 65}, {"note": 63, "velocity": 117, "duration": 849}, {"note": 0, "velocity": 0, "duration": 8631}, {"note": 70, "velocity": 127, "duration": 53}, {"note": 0, "velocity": 0, "duration": 67}, {"note": 70, "velocity": 100, "duration": 50}, {"note": 0, "velocity": 0, "duration": 70}, {"note": 70, "velocity": 122, "duration": 67}, {"note": 72, "velocity": 95, "duration": 64}, {"note": 72, "velocity": 112, "duration": 120}, {"note": 75, "velocity": 127, "duration": 244}, {"note": 72, "velocity": 99, "duration": 118}, {"note": 70, "velocity": 107, "duration": 68}, {"note": 70, "velocity": 127, "duration": 182}, {"note": 72, "velocity": 112, "duration": 100}, {"note": 67, "velocity": 100, "duration": 299}, {"note": 72, "velocity": 127, "duration": 104}, {"note": 0, "velocity": 0, "duration": 136}, {"note": 70, "velocity": 107, "duration": 35}, {"note": 0, "velocity": 0, "duration": 85}, {"note": 70, "velocity": 112, "duration": 197}, {"note": 67, "velocity": 100, "duration": 75}, {"note": 65, "velocity": 100, "duration": 179}, {"note": 0, "velocity": 0, "duration": 61}, {"note": 67, "velocity": 95, "duration": 87}, {"note": 60, "velocity": 99, "duration": 716}, {"note": 0, "velocity": 0, "duration": 364}, {"note": 70, "velocity": 127, "duration": 44}, {"note": 0, "velocity": 0, "duration": 76}, {"note": 70, "velocity": 127, "duration": 46}, {"note": 0, "velocity": 0, "duration": 74}, {"note": 70, "velocity": 127, "duration": 90}, {"note": 72, "velocity": 90, "duration": 47}, {"note": 0, "velocity": 0, "duration": 73}, {"note": 67, "velocity": 122, "duration": 227}, {"note": 65, "velocity": 107, "duration": 80}, {"note": 0, "velocity": 0, "duration": 160}, {"note": 70, "velocity": 127, "duration": 60}, {"note": 70, "velocity": 117, "duration": 184}, {"note": 72, "velocity": 100, "duration": 69}, {"note": 67, "velocity": 100, "duration": 115}, {"note": 65, "velocity": 112, "duration": 130}, {"note": 0, "velocity": 0, "duration": 110}, {"note": 60, "velocity": 102, "duration": 194}, {"note": 67, "velocity": 100, "duration": 981}, {"note": 0, "velocity": 0, "duration": 819}, {"note": 70, "velocity": 122, "duration": 40}, {"note": 0, "velocity": 0, "duration": 80}, {"note": 70, "velocity": 112, "duration": 48}, {"note": 0, "velocity": 0, "duration": 72}, {"note": 70, "velocity": 127, "duration": 82}, {"note": 72, "velocity": 100, "duration": 86}, {"note": 75, "velocity": 127, "duration": 149}, {"note": 0, "velocity": 0, "duration": 91}, {"note": 75, "velocity": 127, "duration": 140}, {"note": 72, "velocity": 112, "duration": 109}, {"note": 70, "velocity": 122, "duration": 112}, {"note": 70, "velocity": 127, "duration": 166}, {"note": 0, "velocity": 0, "duration": 74}, {"note": 72, "velocity": 117, "duration": 72}, {"note": 67, "velocity": 107, "duration": 237}, {"note": 72, "velocity": 112, "duration": 105}, {"note": 0, "velocity": 0, "duration": 135}, {"note": 70, "velocity": 117, "duration": 31}, {"note": 0, "velocity": 0, "duration": 89}, {"note": 70, "velocity": 99, "duration": 40}, {"note": 0, "velocity": 0, "duration": 80}, {"note": 70, "velocity": 127, "duration": 78}, {"note": 67, "velocity": 102, "duration": 115}, {"note": 65, "velocity": 107, "duration": 179}, {"note": 0, "velocity": 0, "duration": 61}, {"note": 67, "velocity": 112, "duration": 72}, {"note": 0, "velocity": 0, "duration": 168}, {"note": 60, "velocity": 99, "duration": 792}, {"note": 0, "velocity": 0, "duration": 168}, {"note": 70, "velocity": 112, "duration": 47}, {"note": 0, "velocity": 0, "duration": 73}, {"note": 70, "velocity": 96, "duration": 48}, {"note": 0, "velocity": 0, "duration": 72}, {"note": 70, "velocity": 112, "duration": 78}, {"note": 72, "velocity": 93, "duration": 80}, {"note": 67, "velocity": 97, "duration": 225}, {"note": 65, "velocity": 96, "duration": 90}, {"note": 0, "velocity": 0, "duration": 150}, {"note": 70, "velocity": 127, "duration": 51}, {"note": 0, "velocity": 0, "duration": 69}, {"note": 70, "velocity": 122, "duration": 175}, {"note": 0, "velocity": 0, "duration": 65}, {"note": 72, "velocity": 122, "duration": 84}, {"note": 67, "velocity": 122, "duration": 121}, {"note": 65, "velocity": 96, "duration": 105}, {"note": 0, "velocity": 0, "duration": 135}, {"note": 60, "velocity": 89, "duration": 206}, {"note": 63, "velocity": 99, "duration": 776}, {"note": 0, "velocity": 0, "duration": 544}, {"note": 75, "velocity": 127, "duration": 164}, {"note": 0, "velocity": 0, "duration": 76}, {"note": 72, "velocity": 112, "duration": 189}, {"note": 75, "velocity": 127, "duration": 47}, {"note": 0, "velocity": 0, "duration": 73}, {"note": 75, "velocity": 127, "duration": 167}, {"note": 0, "velocity": 0, "duration": 73}, {"note": 77, "velocity": 102, "duration": 94}, {"note": 75, "velocity": 127, "duration": 146}, {"note": 0, "velocity": 0, "duration": 94}, {"note": 72, "velocity": 100, "duration": 200}, {"note": 75, "velocity": 127, "duration": 186}, {"note": 75, "velocity": 127, "duration": 66}, {"note": 0, "velocity": 0, "duration": 174}, {"note": 72, "velocity": 107, "duration": 80}, {"note": 70, "velocity": 122, "duration": 153}, {"note": 0, "velocity": 0, "duration": 327}, {"note": 72, "velocity": 122, "duration": 54}, {"note": 0, "velocity": 0, "duration": 66}, {"note": 72, "velocity": 99, "duration": 56}, {"note": 0, "velocity": 0, "duration": 64}, {"note": 72, "velocity": 99, "duration": 87}, {"note": 75, "velocity": 117, "duration": 91}, {"note": 63, "velocity": 112, "duration": 193}, {"note": 65, "velocity": 102, "duration": 66}, {"note": 67, "velocity": 102, "duration": 815}, {"note": 0, "velocity": 0, "duration": 265}, {"note": 65, "velocity": 112, "duration": 49}, {"note": 0, "velocity": 0, "duration": 71}, {"note": 65, "velocity": 96, "duration": 52}, {"note": 0, "velocity": 0, "duration": 68}, {"note": 65, "velocity": 102, "duration": 78}, {"note": 67, "velocity": 97, "duration": 63}, {"note": 63, "velocity": 122, "duration": 192}, {"note": 60, "velocity": 107, "duration": 88}, {"note": 0, "velocity": 0, "duration": 152}, {"note": 65, "velocity": 102, "duration": 254}, {"note": 0, "velocity": 0, "duration": 106}, {"note": 63, "velocity": 112, "duration": 91}, {"note": 65, "velocity": 100, "duration": 209}, {"note": 0, "velocity": 0, "duration": 151}, {"note": 63, "velocity": 122, "duration": 88}, {"note": 65, "velocity": 95, "duration": 56}, {"note": 0, "velocity": 0, "duration": 64}, {"note": 65, "velocity": 97, "duration": 55}, {"note": 0, "velocity": 0, "duration": 65}, {"note": 65, "velocity": 93, "duration": 56}, {"note": 0, "velocity": 0, "duration": 64}, {"note": 63, "velocity": 112, "duration": 69}, {"note": 65, "velocity": 102, "duration": 125}, {"note": 0, "velocity": 0, "duration": 235}, {"note": 67, "velocity": 107, "duration": 102}, {"note": 70, "velocity": 127, "duration": 380}, {"note": 0, "velocity": 0, "duration": 100}, {"note": 75, "velocity": 127, "duration": 188}, {"note": 72, "velocity": 117, "duration": 113}, {"note": 0, "velocity": 0, "duration": 127}, {"note": 75, "velocity": 127, "duration": 47}, {"note": 0, "velocity": 0, "duration": 73}, {"note": 75, "velocity": 107, "duration": 53}, {"note": 0, "velocity": 0, "duration": 67}, {"note": 75, "velocity": 117, "duration": 84}, {"note": 77, "velocity": 99, "duration": 95}, {"note": 75, "velocity": 117, "duration": 174}, {"note": 0, "velocity": 0, "duration": 66}, {"note": 72, "velocity": 127, "duration": 231}, {"note": 72, "velocity": 112, "duration": 135}, {"note": 75, "velocity": 117, "duration": 162}, {"note": 0, "velocity": 0, "duration": 78}, {"note": 72, "velocity": 99, "duration": 108}, {"note": 70, "velocity": 117, "duration": 259}, {"note": 0, "velocity": 0, "duration": 221}, {"note": 72, "velocity": 122, "duration": 52}, {"note": 0, "velocity": 0, "duration": 68}, {"note": 72, "velocity": 97, "duration": 51}, {"note": 0, "velocity": 0, "duration": 69}, {"note": 72, "velocity": 107, "duration": 66}, {"note": 75, "velocity": 127, "duration": 101}, {"note": 63, "velocity": 112, "duration": 219}, {"note": 65, "velocity": 112, "duration": 112}, {"note": 67, "velocity": 93, "duration": 845}, {"note": 0, "velocity": 0, "duration": 235}, {"note": 65, "velocity": 122, "duration": 47}, {"note": 0, "velocity": 0, "duration": 73}, {"note": 65, "velocity": 96, "duration": 52}, {"note": 0, "velocity": 0, "duration": 68}, {"note": 65, "velocity": 112, "duration": 108}, {"note": 67, "velocity": 100, "duration": 90}, {"note": 63, "velocity": 117, "duration": 222}, {"note": 60, "velocity": 117, "duration": 122}, {"note": 0, "velocity": 0, "duration": 118}, {"note": 65, "velocity": 107, "duration": 258}, {"note": 0, "velocity": 0, "duration": 102}, {"note": 63, "velocity": 117, "duration": 87}, {"note": 65, "velocity": 100, "duration": 179}, {"note": 0, "velocity": 0, "duration": 181}, {"note": 63, "velocity": 127, "duration": 87}, {"note": 65, "velocity": 100, "duration": 43}, {"note": 0, "velocity": 0, "duration": 77}, {"note": 65, "velocity": 97, "duration": 48}, {"note": 0, "velocity": 0, "duration": 72}, {"note": 65, "velocity": 90, "duration": 47}, {"note": 0, "velocity": 0, "duration": 73}, {"note": 63, "velocity": 117, "duration": 51}, {"note": 0, "velocity": 0, "duration": 69}, {"note": 65, "velocity": 122, "duration": 66}, {"note": 72, "velocity": 112, "duration": 161}, {"note": 0, "velocity": 0, "duration": 79}, {"note": 67, "velocity": 99, "duration": 117}, {"note": 70, "velocity": 127, "duration": 586}, {"note": 0, "velocity": 0, "duration": 374}, {"note": 70, "velocity": 127, "duration": 40}, {"note": 0, "velocity": 0, "duration": 80}, {"note": 70, "velocity": 117, "duration": 44}, {"note": 0, "velocity": 0, "duration": 76}, {"note": 70, "velocity": 127, "duration": 68}, {"note": 72, "velocity": 95, "duration": 60}, {"note": 72, "velocity": 127, "duration": 132}, {"note": 75, "velocity": 117, "duration": 153}, {"note": 0, "velocity": 0, "duration": 87}, {"note": 72, "velocity": 99, "duration": 103}, {"note": 70, "velocity": 127, "duration": 54}, {"note": 0, "velocity": 0, "duration": 66}, {"note": 70, "velocity": 117, "duration": 160}, {"note": 0, "velocity": 0, "duration": 80}, {"note": 72, "velocity": 102, "duration": 88}, {"note": 67, "velocity": 97, "duration": 158}, {"note": 0, "velocity": 0, "duration": 82}, {"note": 72, "velocity": 112, "duration": 113}, {"note": 0, "velocity": 0, "duration": 127}, {"note": 70, "velocity": 117, "duration": 41}, {"note": 0, "velocity": 0, "duration": 79}, {"note": 70, "velocity": 95, "duration": 49}, {"note": 0, "velocity": 0, "duration": 71}, {"note": 70, "velocity": 122, "duration": 119}, {"note": 67, "velocity": 107, "duration": 105}, {"note": 65, "velocity": 97, "duration": 123}, {"note": 0, "velocity": 0, "duration": 117}, {"note": 67, "velocity": 96, "duration": 65}, {"note": 60, "velocity": 97, "duration": 714}, {"note": 0, "velocity": 0, "duration": 366}, {"note": 70, "velocity": 127, "duration": 55}, {"note": 0, "velocity": 0, "duration": 65}, {"note": 70, "velocity": 96, "duration": 51}, {"note": 0, "velocity": 0, "duration": 69}, {"note": 70, "velocity": 117, "duration": 75}, {"note": 72, "velocity": 85, "duration": 77}, {"note": 67, "velocity": 99, "duration": 219}, {"note": 65, "velocity": 102, "duration": 104}, {"note": 0, "velocity": 0, "duration": 136}, {"note": 70, "velocity": 127, "duration": 44}, {"note": 0, "velocity": 0, "duration": 76}, {"note": 70, "velocity": 127, "duration": 168}, {"note": 0, "velocity": 0, "duration": 72}, {"note": 72, "velocity": 112, "duration": 57}, {"note": 0, "velocity": 0, "duration": 63}, {"note": 67, "velocity": 117, "duration": 90}, {"note": 65, "velocity": 112, "duration": 101}, {"note": 0, "velocity": 0, "duration": 139}, {"note": 60, "velocity": 100, "duration": 200}, {"note": 67, "velocity": 107, "duration": 791}, {"note": 0, "velocity": 0, "duration": 1009}, {"note": 70, "velocity": 127, "duration": 34}, {"note": 0, "velocity": 0, "duration": 86}, {"note": 70, "velocity": 107, "duration": 40}, {"note": 0, "velocity": 0, "duration": 80}, {"note": 70, "velocity": 122, "duration": 82}, {"note": 72, "velocity": 99, "duration": 58}, {"note": 0, "velocity": 0, "duration": 62}, {"note": 72, "velocity": 107, "duration": 260}, {"note": 75, "velocity": 117, "duration": 78}, {"note": 72, "velocity": 112, "duration": 112}, {"note": 70, "velocity": 102, "duration": 57}, {"note": 0, "velocity": 0, "duration": 63}, {"note": 70, "velocity": 127, "duration": 136}, {"note": 0, "velocity": 0, "duration": 104}, {"note": 72, "velocity": 122, "duration": 100}, {"note": 67, "velocity": 107, "duration": 230}, {"note": 72, "velocity": 127, "duration": 90}, {"note": 0, "velocity": 0, "duration": 150}, {"note": 70, "velocity": 127, "duration": 45}, {"note": 0, "velocity": 0, "duration": 75}, {"note": 70, "velocity": 117, "duration": 43}, {"note": 0, "velocity": 0, "duration": 77}, {"note": 70, "velocity": 122, "duration": 131}, {"note": 67, "velocity": 112, "duration": 110}, {"note": 65, "velocity": 99, "duration": 114}, {"note": 0, "velocity": 0, "duration": 126}, {"note": 67, "velocity": 93, "duration": 69}, {"note": 60, "velocity": 97, "duration": 889}, {"note": 0, "velocity": 0, "duration": 191}, {"note": 70, "velocity": 127, "duration": 41}, {"note": 0, "velocity": 0, "duration": 79}, {"note": 70, "velocity": 122, "duration": 44}, {"note": 0, "velocity": 0, "duration": 76}, {"note": 70, "velocity": 127, "duration": 83}, {"note": 72, "velocity": 100, "duration": 73}, {"note": 67, "velocity": 117, "duration": 220}, {"note": 65, "velocity": 102, "duration": 100}, {"note": 0, "velocity": 0, "duration": 140}, {"note": 70, "velocity": 127, "duration": 52}, {"note": 0, "velocity": 0, "duration": 68}, {"note": 70, "velocity": 117, "duration": 178}, {"note": 0, "velocity": 0, "duration": 62}, {"note": 72, "velocity": 112, "duration": 50}, {"note": 0, "velocity": 0, "duration": 70}, {"note": 67, "velocity": 112, "duration": 123}, {"note": 65, "velocity": 99, "duration": 110}, {"note": 0, "velocity": 0, "duration": 130}, {"note": 60, "velocity": 99, "duration": 175}, {"note": 0, "velocity": 0, "duration": 65}, {"note": 63, "velocity": 117, "duration": 849}]]