[[{"note": 73, "velocity": 75, "duration": 30}, {"note": 0, "velocity": 0, "duration": 90}, {"note": 73, "velocity": 83, "duration": 38}, {"note": 0, "velocity": 0, "duration": 82}, {"note": 73, "velocity": 84, "duration": 219}, {"note": 0, "velocity": 0, "duration": 141}, {"note": 73, "velocity": 82, "duration": 33}, {"note": 0, "velocity": 0, "duration": 87}, {"note": 73, "velocity": 84, "duration": 221}, {"note": 71, "velocity": 80, "duration": 206}, {"note": 0, "velocity": 0, "duration": 89}, {"note": 71, "velocity": 80, "duration": 60}, {"note": 69, "velocity": 80, "duration": 83}, {"note": 71, "velocity": 83, "duration": 128}, {"note": 0, "velocity": 0, "duration": 112}, {"note": 71, "velocity": 79, "duration": 1}, {"note": 0, "velocity": 0, "duration": 69}, {"note": 69, "velocity": 80, "duration": 72}, {"note": 71, "velocity": 81, "duration": 211}, {"note": 73, "velocity": 79, "duration": 108}, {"note": 0, "velocity": 0, "duration": 132}, {"note": 66, "velocity": 81, "duration": 353}, {"note": 0, "velocity": 0, "duration": 367}, {"note": 66, "velocity": 75, "duration": 99}, {"note": 69, "velocity": 78, "duration": 127}, {"note": 71, "velocity": 81, "duration": 129}, {"note": 0, "velocity": 0, "duration": 111}, {"note": 73, "velocity": 80, "duration": 145}, {"note": 0, "velocity": 0, "duration": 95}, {"note": 66, "velocity": 81, "duration": 150}, {"note": 0, "velocity": 0, "duration": 90}, {"note": 69, "velocity": 83, "duration": 49}, {"note": 0, "velocity": 0, "duration": 71}, {"note": 71, "velocity": 84, "duration": 235}, {"note": 73, "velocity": 81, "duration": 126}, {"note": 0, "velocity": 0, "duration": 234}, {"note": 73, "velocity": 104, "duration": 90}, {"note": 76, "velocity": 80, "duration": 102}, {"note": 71, "velocity": 84, "duration": 158}, {"note": 0, "velocity": 0, "duration": 82}, {"note": 73, "velocity": 100, "duration": 650}, {"note": 0, "velocity": 0, "duration": 1510}, {"note": 73, "velocity": 80, "duration": 35}, {"note": 0, "velocity": 0, "duration": 85}, {"note": 73, "velocity": 88, "duration": 37}, {"note": 0, "velocity": 0, "duration": 83}, {"note": 73, "velocity": 91, "duration": 251}, {"note": 0, "velocity": 0, "duration": 109}, {"note": 73, "velocity": 88, "duration": 38}, {"note": 0, "velocity": 0, "duration": 82}, {"note": 73, "velocity": 96, "duration": 227}, {"note": 71, "velocity": 89, "duration": 288}, {"note": 0, "velocity": 0, "duration": 192}, {"note": 71, "velocity": 80, "duration": 106}, {"note": 69, "velocity": 83, "duration": 87}, {"note": 71, "velocity": 80, "duration": 134}, {"note": 0, "velocity": 0, "duration": 106}, {"note": 71, "velocity": 77, "duration": 69}, {"note": 69, "velocity": 75, "duration": 84}, {"note": 71, "velocity": 84, "duration": 217}, {"note": 73, "velocity": 75, "duration": 90}, {"note": 0, "velocity": 0, "duration": 150}, {"note": 66, "velocity": 69, "duration": 587}, {"note": 0, "velocity": 0, "duration": 133}, {"note": 66, "velocity": 75, "duration": 47}, {"note": 0, "velocity": 0, "duration": 73}, {"note": 69, "velocity": 89, "duration": 137}, {"note": 71, "velocity": 77, "duration": 198}, {"note": 73, "velocity": 80, "duration": 117}, {"note": 0, "velocity": 0, "duration": 123}, {"note": 66, "velocity": 79, "duration": 146}, {"note": 0, "velocity": 0, "duration": 94}, {"note": 69, "velocity": 84, "duration": 102}, {"note": 71, "velocity": 73, "duration": 219}, {"note": 73, "velocity": 80, "duration": 246}, {"note": 0, "velocity": 0, "duration": 114}, {"note": 76, "velocity": 88, "duration": 76}, {"note": 73, "velocity": 75, "duration": 89}, {"note": 71, "velocity": 77, "duration": 204}, {"note": 69, "velocity": 85, "duration": 664}, {"note": 0, "velocity": 0, "duration": 776}, {"note": 69, "velocity": 98, "duration": 150}, {"note": 71, "velocity": 82, "duration": 113}, {"note": 73, "velocity": 91, "duration": 0}, {"note": 76, "velocity": 86, "duration": 129}, {"note": 78, "velocity": 100, "duration": 214}, {"note": 76, "velocity": 84, "duration": 94}, {"note": 78, "velocity": 104, "duration": 243}, {"note": 0, "velocity": 0, "duration": 61}, {"note": 78, "velocity": 82, "duration": 78}, {"note": 76, "velocity": 84, "duration": 132}, {"note": 78, "velocity": 91, "duration": 202}, {"note": 76, "velocity": 88, "duration": 190}, {"note": 78, "velocity": 104, "duration": 159}, {"note": 0, "velocity": 0, "duration": 81}, {"note": 81, "velocity": 89, "duration": 50}, {"note": 0, "velocity": 0, "duration": 70}, {"note": 81, "velocity": 91, "duration": 76}, {"note": 78, "velocity": 100, "duration": 217}, {"note": 76, "velocity": 91, "duration": 179}, {"note": 0, "velocity": 0, "duration": 61}, {"note": 76, "velocity": 89, "duration": 184}, {"note": 78, "velocity": 78, "duration": 99}, {"note": 73, "velocity": 95, "duration": 438}, {"note": 0, "velocity": 0, "duration": 522}, {"note": 73, "velocity": 88, "duration": 41}, {"note": 0, "velocity": 0, "duration": 79}, {"note": 73, "velocity": 83, "duration": 104}, {"note": 71, "velocity": 84, "duration": 60}, {"note": 71, "velocity": 86, "duration": 512}, {"note": 0, "velocity": 0, "duration": 88}, {"note": 73, "velocity": 82, "duration": 31}, {"note": 0, "velocity": 0, "duration": 89}, {"note": 73, "velocity": 82, "duration": 201}, {"note": 71, "velocity": 78, "duration": 45}, {"note": 0, "velocity": 0, "duration": 75}, {"note": 71, "velocity": 83, "duration": 312}, {"note": 69, "velocity": 89, "duration": 217}, {"note": 76, "velocity": 85, "duration": 201}, {"note": 73, "velocity": 95, "duration": 757}, {"note": 0, "velocity": 0, "duration": 443}, {"note": 69, "velocity": 98, "duration": 146}, {"note": 71, "velocity": 79, "duration": 97}, {"note": 73, "velocity": 88, "duration": 92}, {"note": 76, "velocity": 88, "duration": 108}, {"note": 78, "velocity": 100, "duration": 214}, {"note": 76, "velocity": 91, "duration": 94}, {"note": 78, "velocity": 88, "duration": 348}, {"note": 78, "velocity": 100, "duration": 82}, {"note": 76, "velocity": 84, "duration": 51}, {"note": 78, "velocity": 91, "duration": 205}, {"note": 76, "velocity": 91, "duration": 176}, {"note": 0, "velocity": 0, "duration": 64}, {"note": 78, "velocity": 81, "duration": 175}, {"note": 0, "velocity": 0, "duration": 65}, {"note": 81, "velocity": 84, "duration": 190}, {"note": 78, "velocity": 82, "duration": 12}, {"note": 76, "velocity": 91, "duration": 61}, {"note": 76, "velocity": 89, "duration": 359}, {"note": 78, "velocity": 79, "duration": 207}, {"note": 73, "velocity": 104, "duration": 328}, {"note": 0, "velocity": 0, "duration": 632}, {"note": 73, "velocity": 83, "duration": 34}, {"note": 0, "velocity": 0, "duration": 86}, {"note": 73, "velocity": 91, "duration": 85}, {"note": 71, "velocity": 82, "duration": 44}, {"note": 0, "velocity": 0, "duration": 76}, {"note": 71, "velocity": 83, "duration": 491}, {"note": 0, "velocity": 0, "duration": 109}, {"note": 73, "velocity": 81, "duration": 35}, {"note": 0, "velocity": 0, "duration": 85}, {"note": 73, "velocity": 88, "duration": 187}, {"note": 71, "velocity": 82, "duration": 50}, {"note": 0, "velocity": 0, "duration": 70}, {"note": 71, "velocity": 84, "duration": 345}, {"note": 69, "velocity": 86, "duration": 210}, {"note": 76, "velocity": 94, "duration": 1213}, {"note": 0, "velocity": 0, "duration": 947}, {"note": 73, "velocity": 75, "duration": 30}, {"note": 0, "velocity": 0, "duration": 90}, {"note": 73, "velocity": 83, "duration": 38}, {"note": 0, "velocity": 0, "duration": 82}, {"note": 73, "velocity": 84, "duration": 219}, {"note": 0, "velocity": 0, "duration": 141}, {"note": 73, "velocity": 82, "duration": 33}, {"note": 0, "velocity": 0, "duration": 87}, {"note": 73, "velocity": 84, "duration": 221}, {"note": 71, "velocity": 80, "duration": 206}, {"note": 0, "velocity": 0, "duration": 97}, {"note": 71, "velocity": 80, "duration": 60}, {"note": 69, "velocity": 80, "duration": 83}, {"note": 71, "velocity": 83, "duration": 128}, {"note": 0, "velocity": 0, "duration": 112}, {"note": 71, "velocity": 79, "duration": 9}, {"note": 0, "velocity": 0, "duration": 69}, {"note": 69, "velocity": 80, "duration": 72}, {"note": 71, "velocity": 81, "duration": 211}, {"note": 73, "velocity": 79, "duration": 108}, {"note": 0, "velocity": 0, "duration": 132}, {"note": 66, "velocity": 81, "duration": 327}, {"note": 0, "velocity": 0, "duration": 393}, {"note": 66, "velocity": 75, "duration": 99}, {"note": 69, "velocity": 78, "duration": 127}, {"note": 71, "velocity": 81, "duration": 129}, {"note": 0, "velocity": 0, "duration": 111}, {"note": 73, "velocity": 80, "duration": 145}, {"note": 0, "velocity": 0, "duration": 95}, {"note": 66, "velocity": 81, "duration": 150}, {"note": 0, "velocity": 0, "duration": 90}, {"note": 69, "velocity": 83, "duration": 49}, {"note": 0, "velocity": 0, "duration": 71}, {"note": 71, "velocity": 84, "duration": 235}, {"note": 73, "velocity": 81, "duration": 126}, {"note": 0, "velocity": 0, "duration": 234}, {"note": 73, "velocity": 104, "duration": 90}, {"note": 76, "velocity": 80, "duration": 102}, {"note": 71, "velocity": 84, "duration": 158}, {"note": 0, "velocity": 0, "duration": 82}, {"note": 73, "velocity": 100, "duration": 650}, {"note": 0, "velocity": 0, "duration": 1510}, {"note": 73, "velocity": 80, "duration": 35}, {"note": 0, "velocity": 0, "duration": 85}, {"note": 73, "velocity": 88, "duration": 37}, {"note": 0, "velocity": 0, "duration": 83}, {"note": 73, "velocity": 91, "duration": 251}, {"note": 0, "velocity": 0, "duration": 109}, {"note": 73, "velocity": 88, "duration": 38}, {"note": 0, "velocity": 0, "duration": 82}, {"note": 73, "velocity": 96, "duration": 227}, {"note": 71, "velocity": 89, "duration": 288}, {"note": 0, "velocity": 0, "duration": 192}, {"note": 71, "velocity": 80, "duration": 106}, {"note": 69, "velocity": 83, "duration": 87}, {"note": 71, "velocity": 80, "duration": 134}, {"note": 0, "velocity": 0, "duration": 106}, {"note": 71, "velocity": 77, "duration": 69}, {"note": 69, "velocity": 75, "duration": 84}, {"note": 71, "velocity": 84, "duration": 217}, {"note": 73, "velocity": 75, "duration": 90}, {"note": 0, "velocity": 0, "duration": 150}, {"note": 66, "velocity": 69, "duration": 587}, {"note": 0, "velocity": 0, "duration": 133}, {"note": 66, "velocity": 75, "duration": 47}, {"note": 0, "velocity": 0, "duration": 73}, {"note": 69, "velocity": 89, "duration": 137}, {"note": 71, "velocity": 77, "duration": 198}, {"note": 73, "velocity": 80, "duration": 117}, {"note": 0, "velocity": 0, "duration": 123}, {"note": 66, "velocity": 79, "duration": 146}, {"note": 0, "velocity": 0, "duration": 94}, {"note": 69, "velocity": 84, "duration": 102}, {"note": 71, "velocity": 73, "duration": 219}, {"note": 73, "velocity": 80, "duration": 246}, {"note": 0, "velocity": 0, "duration": 114}, {"note": 76, "velocity": 88, "duration": 76}, {"note": 73, "velocity": 75, "duration": 89}, {"note": 71, "velocity": 77, "duration": 204}, {"note": 69, "velocity": 85, "duration": 664}, {"note": 0, "velocity": 0, "duration": 9176}, {"note": 73, "velocity": 75, "duration": 30}, {"note": 0, "velocity": 0, "duration": 90}, {"note": 73, "velocity": 83, "duration": 38}, {"note": 0, "velocity": 0, "duration": 82}, {"note": 73, "velocity": 84, "duration": 219}, {"note": 0, "velocity": 0, "duration": 141}, {"note": 73, "velocity": 82, "duration": 33}, {"note": 0, "velocity": 0, "duration": 87}, {"note": 73, "velocity": 84, "duration": 221}, {"note": 71, "velocity": 80, "duration": 206}, {"note": 0, "velocity": 0, "duration": 87}, {"note": 71, "velocity": 80, "duration": 60}, {"note": 69, "velocity": 80, "duration": 83}, {"note": 71, "velocity": 83, "duration": 128}, {"note": 0, "velocity": 0, "duration": 112}, {"note": 71, "velocity": 79, "duration": 1}, {"note": 0, "velocity": 0, "duration": 68}, {"note": 69, "velocity": 80, "duration": 72}, {"note": 71, "velocity": 81, "duration": 211}, {"note": 73, "velocity": 79, "duration": 108}, {"note": 0, "velocity": 0, "duration": 132}, {"note": 66, "velocity": 81, "duration": 353}, {"note": 0, "velocity": 0, "duration": 367}, {"note": 66, "velocity": 75, "duration": 99}, {"note": 69, "velocity": 78, "duration": 127}, {"note": 71, "velocity": 81, "duration": 129}, {"note": 0, "velocity": 0, "duration": 111}, {"note": 73, "velocity": 80, "duration": 145}, {"note": 0, "velocity": 0, "duration": 95}, {"note": 66, "velocity": 81, "duration": 150}, {"note": 0, "velocity": 0, "duration": 90}, {"note": 69, "velocity": 83, "duration": 49}, {"note": 0, "velocity": 0, "duration": 71}, {"note": 71, "velocity": 84, "duration": 235}, {"note": 73, "velocity": 81, "duration": 126}, {"note": 0, "velocity": 0, "duration": 234}, {"note": 73, "velocity": 104, "duration": 90}, {"note": 76, "velocity": 80, "duration": 102}, {"note": 71, "velocity": 84, "duration": 158}, {"note": 0, "velocity": 0, "duration": 82}, {"note": 73, "velocity": 100, "duration": 650}, {"note": 0, "velocity": 0, "duration": 1510}, {"note": 73, "velocity": 80, "duration": 35}, {"note": 0, "velocity": 0, "duration": 85}, {"note": 73, "velocity": 88, "duration": 37}, {"note": 0, "velocity": 0, "duration": 83}, {"note": 73, "velocity": 91, "duration": 251}, {"note": 0, "velocity": 0, "duration": 109}, {"note": 73, "velocity": 88, "duration": 38}, {"note": 0, "velocity": 0, "duration": 82}, {"note": 73, "velocity": 96, "duration": 227}, {"note": 71, "velocity": 89, "duration": 288}, {"note": 0, "velocity": 0, "duration": 192}, {"note": 71, "velocity": 80, "duration": 106}, {"note": 69, "velocity": 83, "duration": 87}, {"note": 71, "velocity": 80, "duration": 134}, {"note": 0, "velocity": 0, "duration": 106}, {"note": 71, "velocity": 77, "duration": 69}, {"note": 69, "velocity": 75, "duration": 84}, {"note": 71, "velocity": 84, "duration": 217}, {"note": 73, "velocity": 75, "duration": 90}, {"note": 0, "velocity": 0, "duration": 150}, {"note": 66, "velocity": 69, "duration": 587}, {"note": 0, "velocity": 0, "duration": 133}, {"note": 66, "velocity": 75, "duration": 47}, {"note": 0, "velocity": 0, "duration": 73}, {"note": 69, "velocity": 89, "duration": 137}, {"note": 71, "velocity": 77, "duration": 198}, {"note": 73, "velocity": 80, "duration": 117}, {"note": 0, "velocity": 0, "duration": 123}, {"note": 66, "velocity": 79, "duration": 146}, {"note": 0, "velocity": 0, "duration": 94}, {"note": 69, "velocity": 84, "duration": 102}, {"note": 71, "velocity": 73, "duration": 219}, {"note": 73, "velocity": 80, "duration": 246}, {"note": 0, "velocity": 0, "duration": 114}, {"note": 76, "velocity": 88, "duration": 76}, {"note": 73, "velocity": 75, "duration": 89}, {"note": 71, "velocity": 77, "duration": 204}, {"note": 69, "velocity": 85, "duration": 664}, {"note": 0, "velocity": 0, "duration": 776}, {"note": 69, "velocity": 98, "duration": 150}, {"note": 71, "velocity": 82, "duration": 113}, {"note": 73, "velocity": 91, "duration": 81}, {"note": 76, "velocity": 86, "duration": 129}, {"note": 78, "velocity": 100, "duration": 214}, {"note": 76, "velocity": 84, "duration": 94}, {"note": 78, "velocity": 104, "duration": 243}, {"note": 78, "velocity": 82, "duration": 78}, {"note": 76, "velocity": 84, "duration": 132}, {"note": 78, "velocity": 91, "duration": 202}, {"note": 76, "velocity": 88, "duration": 190}, {"note": 78, "velocity": 104, "duration": 159}, {"note": 0, "velocity": 0, "duration": 81}, {"note": 81, "velocity": 89, "duration": 50}, {"note": 0, "velocity": 0, "duration": 70}, {"note": 81, "velocity": 91, "duration": 76}, {"note": 78, "velocity": 100, "duration": 217}, {"note": 76, "velocity": 91, "duration": 179}, {"note": 0, "velocity": 0, "duration": 61}, {"note": 76, "velocity": 89, "duration": 184}, {"note": 78, "velocity": 78, "duration": 99}, {"note": 73, "velocity": 95, "duration": 438}, {"note": 0, "velocity": 0, "duration": 522}, {"note": 73, "velocity": 88, "duration": 41}, {"note": 0, "velocity": 0, "duration": 79}, {"note": 73, "velocity": 83, "duration": 104}, {"note": 71, "velocity": 84, "duration": 60}, {"note": 71, "velocity": 86, "duration": 512}, {"note": 0, "velocity": 0, "duration": 88}, {"note": 73, "velocity": 82, "duration": 31}, {"note": 0, "velocity": 0, "duration": 89}, {"note": 73, "velocity": 82, "duration": 201}, {"note": 71, "velocity": 78, "duration": 45}, {"note": 0, "velocity": 0, "duration": 75}, {"note": 71, "velocity": 83, "duration": 312}, {"note": 69, "velocity": 89, "duration": 217}, {"note": 76, "velocity": 85, "duration": 201}, {"note": 73, "velocity": 95, "duration": 757}, {"note": 0, "velocity": 0, "duration": 443}, {"note": 69, "velocity": 98, "duration": 146}, {"note": 71, "velocity": 79, "duration": 97}, {"note": 73, "velocity": 88, "duration": 92}, {"note": 76, "velocity": 88, "duration": 108}, {"note": 78, "velocity": 100, "duration": 214}, {"note": 76, "velocity": 91, "duration": 94}, {"note": 78, "velocity": 88, "duration": 348}, {"note": 78, "velocity": 100, "duration": 82}, {"note": 76, "velocity": 84, "duration": 49}, {"note": 78, "velocity": 91, "duration": 205}, {"note": 76, "velocity": 91, "duration": 176}, {"note": 0, "velocity": 0, "duration": 64}, {"note": 78, "velocity": 81, "duration": 175}, {"note": 0, "velocity": 0, "duration": 65}, {"note": 81, "velocity": 84, "duration": 190}, {"note": 78, "velocity": 82, "duration": 10}, {"note": 76, "velocity": 91, "duration": 61}, {"note": 76, "velocity": 89, "duration": 359}, {"note": 78, "velocity": 79, "duration": 207}, {"note": 73, "velocity": 104, "duration": 328}, {"note": 0, "velocity": 0, "duration": 632}, {"note": 73, "velocity": 83, "duration": 34}, {"note": 0, "velocity": 0, "duration": 86}, {"note": 73, "velocity": 91, "duration": 85}, {"note": 71, "velocity": 82, "duration": 44}, {"note": 0, "velocity": 0, "duration": 76}, {"note": 71, "velocity": 83, "duration": 491}, {"note": 0, "velocity": 0, "duration": 109}, {"note": 73, "velocity": 81, "duration": 35}, {"note": 0, "velocity": 0, "duration": 85}, {"note": 73, "velocity": 88, "duration": 187}, {"note": 71, "velocity": 82, "duration": 50}, {"note": 0, "velocity": 0, "duration": 70}, {"note": 71, "velocity": 84, "duration": 345}, {"note": 69, "velocity": 86, "duration": 210}, {"note": 76, "velocity": 94, "duration": 1213}, {"note": 0, "velocity": 0, "duration": 227}, {"note": 69, "velocity": 98, "duration": 150}, {"note": 71, "velocity": 82, "duration": 113}, {"note": 73, "velocity": 91, "duration": 81}, {"note": 76, "velocity": 86, "duration": 129}, {"note": 78, "velocity": 100, "duration": 214}, {"note": 76, "velocity": 84, "duration": 94}, {"note": 78, "velocity": 104, "duration": 243}, {"note": 78, "velocity": 82, "duration": 78}, {"note": 76, "velocity": 84, "duration": 132}, {"note": 78, "velocity": 91, "duration": 202}, {"note": 76, "velocity": 88, "duration": 190}, {"note": 78, "velocity": 104, "duration": 159}, {"note": 0, "velocity": 0, "duration": 81}, {"note": 81, "velocity": 89, "duration": 50}, {"note": 0, "velocity": 0, "duration": 70}, {"note": 81, "velocity": 91, "duration": 76}, {"note": 78, "velocity": 100, "duration": 217}, {"note": 76, "velocity": 91, "duration": 179}, {"note": 0, "velocity": 0, "duration": 61}, {"note": 76, "velocity": 89, "duration": 184}, {"note": 78, "velocity": 78, "duration": 99}, {"note": 73, "velocity": 95, "duration": 438}, {"note": 0, "velocity": 0, "duration": 522}, {"note": 73, "velocity": 88, "duration": 41}, {"note": 0, "velocity": 0, "duration": 79}, {"note": 73, "velocity": 83, "duration": 104}, {"note": 71, "velocity": 84, "duration": 60}, {"note": 71, "velocity": 86, "duration": 512}, {"note": 0, "velocity": 0, "duration": 88}, {"note": 73, "velocity": 82, "duration": 31}, {"note": 0, "velocity": 0, "duration": 89}, {"note": 73, "velocity": 82, "duration": 201}, {"note": 71, "velocity": 78, "duration": 45}, {"note": 0, "velocity": 0, "duration": 75}, {"note": 71, "velocity": 83, "duration": 312}, {"note": 69, "velocity": 89, "duration": 217}, {"note": 76, "velocity": 85, "duration": 201}, {"note": 73, "velocity": 95, "duration": 757}, {"note": 0, "velocity": 0, "duration": 443}, {"note": 69, "velocity": 98, "duration": 146}, {"note": 71, "velocity": 79, "duration": 97}, {"note": 73, "velocity": 88, "duration": 92}, {"note": 76, "velocity": 88, "duration": 108}, {"note": 78, "velocity": 100, "duration": 214}, {"note": 76, "velocity": 91, "duration": 94}, {"note": 78, "velocity": 88, "duration": 348}, {"note": 78, "velocity": 100, "duration": 82}, {"note": 76, "velocity": 84, "duration": 38}, {"note": 78, "velocity": 91, "duration": 205}, {"note": 76, "velocity": 91, "duration": 176}, {"note": 0, "velocity": 0, "duration": 64}, {"note": 78, "velocity": 81, "duration": 175}, {"note": 0, "velocity": 0, "duration": 65}, {"note": 81, "velocity": 84, "duration": 190}, {"note": 78, "velocity": 82, "duration": 187}, {"note": 76, "velocity": 91, "duration": 61}, {"note": 76, "velocity": 89, "duration": 359}, {"note": 78, "velocity": 79, "duration": 207}, {"note": 73, "velocity": 104, "duration": 328}, {"note": 0, "velocity": 0, "duration": 632}, {"note": 73, "velocity": 83, "duration": 34}, {"note": 0, "velocity": 0, "duration": 86}, {"note": 73, "velocity": 91, "duration": 85}, {"note": 71, "velocity": 82, "duration": 44}, {"note": 0, "velocity": 0, "duration": 76}, {"note": 71, "velocity": 83, "duration": 491}, {"note": 0, "velocity": 0, "duration": 109}, {"note": 73, "velocity": 81, "duration": 35}, {"note": 0, "velocity": 0, "duration": 85}, {"note": 73, "velocity": 88, "duration": 187}, {"note": 71, "velocity": 82, "duration": 50}, {"note": 0, "velocity": 0, "duration": 70}, {"note": 71, "velocity": 84, "duration": 345}, {"note": 69, "velocity": 86, "duration": 210}, {"note": 76, "velocity": 94, "duration": 1213}, {"note": 0, "velocity": 0, "duration": 947}, {"note": 73, "velocity": 75, "duration": 30}, {"note": 0, "velocity": 0, "duration": 90}, {"note": 73, "velocity": 83, "duration": 38}, {"note": 0, "velocity": 0, "duration": 82}, {"note": 73, "velocity": 84, "duration": 219}, {"note": 0, "velocity": 0, "duration": 141}, {"note": 73, "velocity": 82, "duration": 33}, {"note": 0, "velocity": 0, "duration": 87}, {"note": 73, "velocity": 84, "duration": 221}, {"note": 71, "velocity": 80, "duration": 206}, {"note": 0, "velocity": 0, "duration": 79}, {"note": 71, "velocity": 80, "duration": 60}, {"note": 69, "velocity": 80, "duration": 83}, {"note": 71, "velocity": 83, "duration": 128}, {"note": 0, "velocity": 0, "duration": 112}, {"note": 71, "velocity": 79, "duration": 51}, {"note": 69, "velocity": 80, "duration": 72}, {"note": 71, "velocity": 81, "duration": 211}, {"note": 73, "velocity": 79, "duration": 108}, {"note": 0, "velocity": 0, "duration": 132}, {"note": 66, "velocity": 81, "duration": 353}, {"note": 0, "velocity": 0, "duration": 367}, {"note": 66, "velocity": 75, "duration": 99}, {"note": 69, "velocity": 78, "duration": 127}, {"note": 71, "velocity": 81, "duration": 129}, {"note": 0, "velocity": 0, "duration": 111}, {"note": 73, "velocity": 80, "duration": 145}, {"note": 0, "velocity": 0, "duration": 95}, {"note": 66, "velocity": 81, "duration": 150}, {"note": 0, "velocity": 0, "duration": 90}, {"note": 69, "velocity": 83, "duration": 49}, {"note": 0, "velocity": 0, "duration": 71}, {"note": 71, "velocity": 84, "duration": 235}, {"note": 73, "velocity": 81, "duration": 126}, {"note": 0, "velocity": 0, "duration": 234}, {"note": 73, "velocity": 104, "duration": 90}, {"note": 76, "velocity": 80, "duration": 102}, {"note": 71, "velocity": 84, "duration": 158}, {"note": 0, "velocity": 0, "duration": 82}, {"note": 73, "velocity": 100, "duration": 650}, {"note": 0, "velocity": 0, "duration": 1510}, {"note": 73, "velocity": 80, "duration": 35}, {"note": 0, "velocity": 0, "duration": 85}, {"note": 73, "velocity": 88, "duration": 37}, {"note": 0, "velocity": 0, "duration": 83}, {"note": 73, "velocity": 91, "duration": 251}, {"note": 0, "velocity": 0, "duration": 109}, {"note": 73, "velocity": 88, "duration": 38}, {"note": 0, "velocity": 0, "duration": 82}, {"note": 73, "velocity": 96, "duration": 227}, {"note": 71, "velocity": 89, "duration": 288}, {"note": 0, "velocity": 0, "duration": 192}, {"note": 71, "velocity": 80, "duration": 106}, {"note": 69, "velocity": 83, "duration": 87}, {"note": 71, "velocity": 80, "duration": 134}, {"note": 0, "velocity": 0, "duration": 106}, {"note": 71, "velocity": 77, "duration": 69}, {"note": 69, "velocity": 75, "duration": 84}, {"note": 71, "velocity": 84, "duration": 217}, {"note": 73, "velocity": 75, "duration": 90}, {"note": 0, "velocity": 0, "duration": 150}, {"note": 66, "velocity": 69, "duration": 587}, {"note": 0, "velocity": 0, "duration": 133}, {"note": 66, "velocity": 75, "duration": 47}, {"note": 0, "velocity": 0, "duration": 73}, {"note": 69, "velocity": 89, "duration": 137}, {"note": 71, "velocity": 77, "duration": 198}, {"note": 73, "velocity": 80, "duration": 117}, {"note": 0, "velocity": 0, "duration": 123}, {"note": 66, "velocity": 79, "duration": 146}, {"note": 0, "velocity": 0, "duration": 94}, {"note": 69, "velocity": 84, "duration": 102}, {"note": 71, "velocity": 73, "duration": 219}, {"note": 73, "velocity": 80, "duration": 246}, {"note": 0, "velocity": 0, "duration": 114}, {"note": 76, "velocity": 88, "duration": 76}, {"note": 73, "velocity": 75, "duration": 89}, {"note": 71, "velocity": 77, "duration": 204}, {"note": 69, "velocity": 85, "duration": 0}, {"note": 0, "velocity": 0, "duration": 1016}, {"note": 66, "velocity": 75, "duration": 47}, {"note": 0, "velocity": 0, "duration": 73}, {"note": 69, "velocity": 89, "duration": 137}, {"note": 71, "velocity": 77, "duration": 198}, {"note": 73, "velocity": 80, "duration": 117}, {"note": 0, "velocity": 0, "duration": 123}, {"note": 66, "velocity": 79, "duration": 146}, {"note": 0, "velocity": 0, "duration": 94}, {"note": 69, "velocity": 84, "duration": 102}, {"note": 71, "velocity": 73, "duration": 219}, {"note": 73, "velocity": 80, "duration": 704}, {"note": 0, "velocity": 0, "duration": 616}, {"note": 76, "velocity": 88, "duration": 76}, {"note": 73, "velocity": 75, "duration": 89}, {"note": 71, "velocity": 77, "duration": 204}, {"note": 69, "velocity": 85, "duration": 664}]]