[[{"note": 71, "velocity": 122, "duration": 154}, {"note": 0, "velocity": 0, "duration": 86}, {"note": 69, "velocity": 99, "duration": 78}, {"note": 71, "velocity": 107, "duration": 252}, {"note": 0, "velocity": 0, "duration": 108}, {"note": 69, "velocity": 107, "duration": 79}, {"note": 71, "velocity": 117, "duration": 704}, {"note": 0, "velocity": 0, "duration": 136}, {"note": 67, "velocity": 93, "duration": 92}, {"note": 66, "velocity": 92, "duration": 58}, {"note": 0, "velocity": 0, "duration": 62}, {"note": 66, "velocity": 99, "duration": 178}, {"note": 0, "velocity": 0, "duration": 62}, {"note": 74, "velocity": 112, "duration": 164}, {"note": 0, "velocity": 0, "duration": 76}, {"note": 74, "velocity": 112, "duration": 191}, {"note": 71, "velocity": 107, "duration": 127}, {"note": 74, "velocity": 96, "duration": 412}, {"note": 0, "velocity": 0, "duration": 428}, {"note": 71, "velocity": 107, "duration": 75}, {"note": 69, "velocity": 90, "duration": 71}, {"note": 67, "velocity": 97, "duration": 145}, {"note": 0, "velocity": 0, "duration": 95}, {"note": 67, "velocity": 96, "duration": 57}, {"note": 0, "velocity": 0, "duration": 63}, {"note": 67, "velocity": 99, "duration": 210}, {"note": 71, "velocity": 117, "duration": 259}, {"note": 0, "velocity": 0, "duration": 101}, {"note": 69, "velocity": 117, "duration": 219}, {"note": 71, "velocity": 95, "duration": 81}, {"note": 62, "velocity": 95, "duration": 379}, {"note": 0, "velocity": 0, "duration": 101}, {"note": 62, "velocity": 86, "duration": 78}, {"note": 71, "velocity": 99, "duration": 206}, {"note": 69, "velocity": 79, "duration": 63}, {"note": 69, "velocity": 100, "duration": 824}, {"note": 0, "velocity": 0, "duration": 736}, {"note": 71, "velocity": 122, "duration": 146}, {"note": 0, "velocity": 0, "duration": 94}, {"note": 69, "velocity": 93, "duration": 161}, {"note": 0, "velocity": 0, "duration": 79}, {"note": 71, "velocity": 117, "duration": 140}, {"note": 0, "velocity": 0, "duration": 100}, {"note": 69, "velocity": 95, "duration": 56}, {"note": 0, "velocity": 0, "duration": 64}, {"note": 71, "velocity": 127, "duration": 327}, {"note": 0, "velocity": 0, "duration": 513}, {"note": 67, "velocity": 99, "duration": 116}, {"note": 66, "velocity": 96, "duration": 77}, {"note": 66, "velocity": 102, "duration": 190}, {"note": 74, "velocity": 112, "duration": 173}, {"note": 0, "velocity": 0, "duration": 67}, {"note": 74, "velocity": 122, "duration": 166}, {"note": 0, "velocity": 0, "duration": 74}, {"note": 76, "velocity": 112, "duration": 60}, {"note": 76, "velocity": 99, "duration": 232}, {"note": 74, "velocity": 102, "duration": 381}, {"note": 0, "velocity": 0, "duration": 219}, {"note": 71, "velocity": 100, "duration": 113}, {"note": 74, "velocity": 102, "duration": 110}, {"note": 76, "velocity": 122, "duration": 160}, {"note": 0, "velocity": 0, "duration": 80}, {"note": 76, "velocity": 122, "duration": 205}, {"note": 0, "velocity": 0, "duration": 275}, {"note": 76, "velocity": 107, "duration": 82}, {"note": 71, "velocity": 86, "duration": 66}, {"note": 74, "velocity": 112, "duration": 136}, {"note": 0, "velocity": 0, "duration": 104}, {"note": 76, "velocity": 102, "duration": 91}, {"note": 74, "velocity": 112, "duration": 236}, {"note": 0, "velocity": 0, "duration": 124}, {"note": 74, "velocity": 107, "duration": 86}, {"note": 71, "velocity": 95, "duration": 81}, {"note": 69, "velocity": 95, "duration": 133}, {"note": 0, "velocity": 0, "duration": 107}, {"note": 69, "velocity": 99, "duration": 47}, {"note": 0, "velocity": 0, "duration": 73}, {"note": 69, "velocity": 99, "duration": 199}, {"note": 0, "velocity": 0, "duration": 401}, {"note": 74, "velocity": 107, "duration": 258}, {"note": 0, "velocity": 0, "duration": 102}, {"note": 76, "velocity": 127, "duration": 961}, {"note": 0, "velocity": 0, "duration": 1319}, {"note": 71, "velocity": 112, "duration": 122}, {"note": 74, "velocity": 99, "duration": 76}, {"note": 79, "velocity": 117, "duration": 141}, {"note": 0, "velocity": 0, "duration": 99}, {"note": 79, "velocity": 122, "duration": 64}, {"note": 78, "velocity": 100, "duration": 148}, {"note": 0, "velocity": 0, "duration": 92}, {"note": 76, "velocity": 112, "duration": 147}, {"note": 0, "velocity": 0, "duration": 213}, {"note": 78, "velocity": 127, "duration": 141}, {"note": 0, "velocity": 0, "duration": 99}, {"note": 78, "velocity": 122, "duration": 87}, {"note": 76, "velocity": 112, "duration": 141}, {"note": 0, "velocity": 0, "duration": 99}, {"note": 74, "velocity": 107, "duration": 156}, {"note": 0, "velocity": 0, "duration": 204}, {"note": 64, "velocity": 117, "duration": 149}, {"note": 0, "velocity": 0, "duration": 91}, {"note": 64, "velocity": 100, "duration": 67}, {"note": 76, "velocity": 117, "duration": 157}, {"note": 0, "velocity": 0, "duration": 203}, {"note": 74, "velocity": 127, "duration": 162}, {"note": 0, "velocity": 0, "duration": 78}, {"note": 71, "velocity": 127, "duration": 255}, {"note": 0, "velocity": 0, "duration": 465}, {"note": 71, "velocity": 122, "duration": 53}, {"note": 0, "velocity": 0, "duration": 67}, {"note": 71, "velocity": 96, "duration": 47}, {"note": 0, "velocity": 0, "duration": 73}, {"note": 69, "velocity": 127, "duration": 143}, {"note": 0, "velocity": 0, "duration": 97}, {"note": 69, "velocity": 122, "duration": 74}, {"note": 71, "velocity": 127, "duration": 177}, {"note": 0, "velocity": 0, "duration": 63}, {"note": 72, "velocity": 127, "duration": 158}, {"note": 0, "velocity": 0, "duration": 202}, {"note": 71, "velocity": 117, "duration": 125}, {"note": 0, "velocity": 0, "duration": 115}, {"note": 71, "velocity": 112, "duration": 77}, {"note": 79, "velocity": 112, "duration": 117}, {"note": 0, "velocity": 0, "duration": 123}, {"note": 76, "velocity": 117, "duration": 144}, {"note": 0, "velocity": 0, "duration": 216}, {"note": 72, "velocity": 102, "duration": 133}, {"note": 0, "velocity": 0, "duration": 107}, {"note": 72, "velocity": 100, "duration": 67}, {"note": 74, "velocity": 112, "duration": 141}, {"note": 0, "velocity": 0, "duration": 99}, {"note": 76, "velocity": 127, "duration": 235}, {"note": 0, "velocity": 0, "duration": 125}, {"note": 74, "velocity": 127, "duration": 143}, {"note": 0, "velocity": 0, "duration": 97}, {"note": 74, "velocity": 100, "duration": 66}, {"note": 76, "velocity": 100, "duration": 129}, {"note": 0, "velocity": 0, "duration": 111}, {"note": 78, "velocity": 122, "duration": 198}, {"note": 0, "velocity": 0, "duration": 162}, {"note": 79, "velocity": 127, "duration": 151}, {"note": 0, "velocity": 0, "duration": 89}, {"note": 79, "velocity": 96, "duration": 78}, {"note": 78, "velocity": 127, "duration": 140}, {"note": 0, "velocity": 0, "duration": 100}, {"note": 76, "velocity": 127, "duration": 156}, {"note": 0, "velocity": 0, "duration": 204}, {"note": 78, "velocity": 127, "duration": 126}, {"note": 0, "velocity": 0, "duration": 114}, {"note": 78, "velocity": 122, "duration": 52}, {"note": 0, "velocity": 0, "duration": 68}, {"note": 76, "velocity": 102, "duration": 133}, {"note": 0, "velocity": 0, "duration": 107}, {"note": 74, "velocity": 107, "duration": 147}, {"note": 0, "velocity": 0, "duration": 213}, {"note": 64, "velocity": 102, "duration": 107}, {"note": 0, "velocity": 0, "duration": 133}, {"note": 64, "velocity": 107, "duration": 60}, {"note": 76, "velocity": 127, "duration": 156}, {"note": 0, "velocity": 0, "duration": 204}, {"note": 74, "velocity": 117, "duration": 140}, {"note": 0, "velocity": 0, "duration": 100}, {"note": 71, "velocity": 117, "duration": 267}, {"note": 0, "velocity": 0, "duration": 453}, {"note": 71, "velocity": 117, "duration": 48}, {"note": 0, "velocity": 0, "duration": 72}, {"note": 71, "velocity": 112, "duration": 61}, {"note": 69, "velocity": 112, "duration": 163}, {"note": 0, "velocity": 0, "duration": 77}, {"note": 69, "velocity": 102, "duration": 72}, {"note": 71, "velocity": 102, "duration": 148}, {"note": 0, "velocity": 0, "duration": 92}, {"note": 72, "velocity": 117, "duration": 153}, {"note": 0, "velocity": 0, "duration": 207}, {"note": 71, "velocity": 112, "duration": 139}, {"note": 0, "velocity": 0, "duration": 101}, {"note": 71, "velocity": 97, "duration": 82}, {"note": 79, "velocity": 112, "duration": 172}, {"note": 0, "velocity": 0, "duration": 68}, {"note": 76, "velocity": 117, "duration": 165}, {"note": 0, "velocity": 0, "duration": 195}, {"note": 72, "velocity": 117, "duration": 133}, {"note": 0, "velocity": 0, "duration": 107}, {"note": 72, "velocity": 100, "duration": 76}, {"note": 74, "velocity": 122, "duration": 133}, {"note": 0, "velocity": 0, "duration": 107}, {"note": 76, "velocity": 127, "duration": 224}, {"note": 0, "velocity": 0, "duration": 136}, {"note": 74, "velocity": 127, "duration": 127}, {"note": 0, "velocity": 0, "duration": 113}, {"note": 74, "velocity": 112, "duration": 63}, {"note": 76, "velocity": 117, "duration": 139}, {"note": 0, "velocity": 0, "duration": 101}, {"note": 78, "velocity": 127, "duration": 374}, {"note": 0, "velocity": 0, "duration": 466}, {"note": 79, "velocity": 127, "duration": 247}, {"note": 78, "velocity": 85, "duration": 248}, {"note": 76, "velocity": 99, "duration": 1026}, {"note": 0, "velocity": 0, "duration": 894}, {"note": 64, "velocity": 97, "duration": 473}, {"note": 67, "velocity": 122, "duration": 222}, {"note": 69, "velocity": 99, "duration": 266}, {"note": 71, "velocity": 122, "duration": 803}, {"note": 0, "velocity": 0, "duration": 157}, {"note": 72, "velocity": 117, "duration": 648}, {"note": 0, "velocity": 0, "duration": 72}, {"note": 74, "velocity": 112, "duration": 152}, {"note": 76, "velocity": 100, "duration": 94}, {"note": 71, "velocity": 102, "duration": 721}, {"note": 0, "velocity": 0, "duration": 239}, {"note": 67, "velocity": 100, "duration": 451}, {"note": 69, "velocity": 107, "duration": 237}, {"note": 71, "velocity": 117, "duration": 250}, {"note": 66, "velocity": 112, "duration": 963}, {"note": 0, "velocity": 0, "duration": 1917}, {"note": 71, "velocity": 112, "duration": 170}, {"note": 0, "velocity": 0, "duration": 70}, {"note": 69, "velocity": 93, "duration": 124}, {"note": 0, "velocity": 0, "duration": 116}, {"note": 71, "velocity": 112, "duration": 124}, {"note": 0, "velocity": 0, "duration": 116}, {"note": 69, "velocity": 93, "duration": 55}, {"note": 0, "velocity": 0, "duration": 65}, {"note": 71, "velocity": 127, "duration": 597}, {"note": 0, "velocity": 0, "duration": 243}, {"note": 67, "velocity": 93, "duration": 92}, {"note": 66, "velocity": 92, "duration": 58}, {"note": 0, "velocity": 0, "duration": 62}, {"note": 66, "velocity": 99, "duration": 178}, {"note": 0, "velocity": 0, "duration": 62}, {"note": 74, "velocity": 112, "duration": 164}, {"note": 0, "velocity": 0, "duration": 76}, {"note": 74, "velocity": 112, "duration": 191}, {"note": 71, "velocity": 107, "duration": 127}, {"note": 74, "velocity": 96, "duration": 412}, {"note": 0, "velocity": 0, "duration": 428}, {"note": 71, "velocity": 107, "duration": 75}, {"note": 69, "velocity": 90, "duration": 71}, {"note": 67, "velocity": 97, "duration": 145}, {"note": 0, "velocity": 0, "duration": 95}, {"note": 67, "velocity": 96, "duration": 57}, {"note": 0, "velocity": 0, "duration": 63}, {"note": 67, "velocity": 99, "duration": 210}, {"note": 71, "velocity": 117, "duration": 259}, {"note": 0, "velocity": 0, "duration": 101}, {"note": 69, "velocity": 117, "duration": 219}, {"note": 71, "velocity": 95, "duration": 81}, {"note": 62, "velocity": 95, "duration": 379}, {"note": 0, "velocity": 0, "duration": 101}, {"note": 62, "velocity": 86, "duration": 78}, {"note": 71, "velocity": 99, "duration": 206}, {"note": 69, "velocity": 79, "duration": 63}, {"note": 69, "velocity": 100, "duration": 824}, {"note": 0, "velocity": 0, "duration": 736}, {"note": 71, "velocity": 122, "duration": 146}, {"note": 0, "velocity": 0, "duration": 94}, {"note": 69, "velocity": 93, "duration": 161}, {"note": 0, "velocity": 0, "duration": 79}, {"note": 71, "velocity": 117, "duration": 140}, {"note": 0, "velocity": 0, "duration": 100}, {"note": 69, "velocity": 95, "duration": 56}, {"note": 0, "velocity": 0, "duration": 64}, {"note": 71, "velocity": 127, "duration": 327}, {"note": 0, "velocity": 0, "duration": 513}, {"note": 67, "velocity": 99, "duration": 116}, {"note": 66, "velocity": 96, "duration": 77}, {"note": 66, "velocity": 102, "duration": 190}, {"note": 74, "velocity": 112, "duration": 173}, {"note": 0, "velocity": 0, "duration": 67}, {"note": 74, "velocity": 122, "duration": 166}, {"note": 0, "velocity": 0, "duration": 74}, {"note": 76, "velocity": 112, "duration": 60}, {"note": 76, "velocity": 99, "duration": 232}, {"note": 74, "velocity": 102, "duration": 381}, {"note": 0, "velocity": 0, "duration": 219}, {"note": 71, "velocity": 100, "duration": 113}, {"note": 74, "velocity": 102, "duration": 110}, {"note": 76, "velocity": 122, "duration": 160}, {"note": 0, "velocity": 0, "duration": 80}, {"note": 76, "velocity": 122, "duration": 205}, {"note": 0, "velocity": 0, "duration": 275}, {"note": 76, "velocity": 107, "duration": 82}, {"note": 71, "velocity": 86, "duration": 66}, {"note": 74, "velocity": 112, "duration": 136}, {"note": 0, "velocity": 0, "duration": 104}, {"note": 76, "velocity": 102, "duration": 91}, {"note": 74, "velocity": 112, "duration": 236}, {"note": 0, "velocity": 0, "duration": 124}, {"note": 74, "velocity": 107, "duration": 86}, {"note": 71, "velocity": 95, "duration": 81}, {"note": 69, "velocity": 95, "duration": 133}, {"note": 0, "velocity": 0, "duration": 107}, {"note": 69, "velocity": 99, "duration": 47}, {"note": 0, "velocity": 0, "duration": 73}, {"note": 69, "velocity": 99, "duration": 199}, {"note": 0, "velocity": 0, "duration": 401}, {"note": 74, "velocity": 107, "duration": 258}, {"note": 0, "velocity": 0, "duration": 102}, {"note": 76, "velocity": 127, "duration": 961}, {"note": 0, "velocity": 0, "duration": 359}, {"note": 71, "velocity": 112, "duration": 122}, {"note": 74, "velocity": 99, "duration": 76}, {"note": 79, "velocity": 117, "duration": 141}, {"note": 0, "velocity": 0, "duration": 99}, {"note": 79, "velocity": 122, "duration": 64}, {"note": 78, "velocity": 100, "duration": 148}, {"note": 0, "velocity": 0, "duration": 92}, {"note": 76, "velocity": 112, "duration": 147}, {"note": 0, "velocity": 0, "duration": 213}, {"note": 78, "velocity": 127, "duration": 141}, {"note": 0, "velocity": 0, "duration": 99}, {"note": 78, "velocity": 122, "duration": 87}, {"note": 76, "velocity": 112, "duration": 141}, {"note": 0, "velocity": 0, "duration": 99}, {"note": 74, "velocity": 107, "duration": 156}, {"note": 0, "velocity": 0, "duration": 204}, {"note": 64, "velocity": 117, "duration": 149}, {"note": 0, "velocity": 0, "duration": 91}, {"note": 64, "velocity": 100, "duration": 67}, {"note": 76, "velocity": 117, "duration": 157}, {"note": 0, "velocity": 0, "duration": 203}, {"note": 74, "velocity": 127, "duration": 162}, {"note": 0, "velocity": 0, "duration": 78}, {"note": 71, "velocity": 127, "duration": 255}, {"note": 0, "velocity": 0, "duration": 465}, {"note": 71, "velocity": 122, "duration": 53}, {"note": 0, "velocity": 0, "duration": 67}, {"note": 71, "velocity": 96, "duration": 47}, {"note": 0, "velocity": 0, "duration": 73}, {"note": 69, "velocity": 127, "duration": 143}, {"note": 0, "velocity": 0, "duration": 97}, {"note": 69, "velocity": 122, "duration": 74}, {"note": 71, "velocity": 127, "duration": 177}, {"note": 0, "velocity": 0, "duration": 63}, {"note": 72, "velocity": 127, "duration": 158}, {"note": 0, "velocity": 0, "duration": 202}, {"note": 71, "velocity": 117, "duration": 125}, {"note": 0, "velocity": 0, "duration": 115}, {"note": 71, "velocity": 112, "duration": 77}, {"note": 79, "velocity": 112, "duration": 117}, {"note": 0, "velocity": 0, "duration": 123}, {"note": 76, "velocity": 117, "duration": 144}, {"note": 0, "velocity": 0, "duration": 216}, {"note": 72, "velocity": 102, "duration": 133}, {"note": 0, "velocity": 0, "duration": 107}, {"note": 72, "velocity": 100, "duration": 67}, {"note": 74, "velocity": 112, "duration": 141}, {"note": 0, "velocity": 0, "duration": 99}, {"note": 76, "velocity": 127, "duration": 235}, {"note": 0, "velocity": 0, "duration": 125}, {"note": 74, "velocity": 127, "duration": 143}, {"note": 0, "velocity": 0, "duration": 97}, {"note": 74, "velocity": 100, "duration": 66}, {"note": 76, "velocity": 100, "duration": 129}, {"note": 0, "velocity": 0, "duration": 111}, {"note": 78, "velocity": 122, "duration": 198}, {"note": 0, "velocity": 0, "duration": 162}, {"note": 79, "velocity": 127, "duration": 151}, {"note": 0, "velocity": 0, "duration": 89}, {"note": 79, "velocity": 96, "duration": 78}, {"note": 78, "velocity": 127, "duration": 140}, {"note": 0, "velocity": 0, "duration": 100}, {"note": 76, "velocity": 127, "duration": 156}, {"note": 0, "velocity": 0, "duration": 204}, {"note": 78, "velocity": 127, "duration": 126}, {"note": 0, "velocity": 0, "duration": 114}, {"note": 78, "velocity": 122, "duration": 52}, {"note": 0, "velocity": 0, "duration": 68}, {"note": 76, "velocity": 102, "duration": 133}, {"note": 0, "velocity": 0, "duration": 107}, {"note": 74, "velocity": 107, "duration": 147}, {"note": 0, "velocity": 0, "duration": 213}, {"note": 64, "velocity": 102, "duration": 107}, {"note": 0, "velocity": 0, "duration": 133}, {"note": 64, "velocity": 107, "duration": 60}, {"note": 76, "velocity": 127, "duration": 156}, {"note": 0, "velocity": 0, "duration": 204}, {"note": 74, "velocity": 117, "duration": 140}, {"note": 0, "velocity": 0, "duration": 100}, {"note": 71, "velocity": 117, "duration": 267}, {"note": 0, "velocity": 0, "duration": 453}, {"note": 71, "velocity": 117, "duration": 48}, {"note": 0, "velocity": 0, "duration": 72}, {"note": 71, "velocity": 112, "duration": 61}, {"note": 69, "velocity": 112, "duration": 163}, {"note": 0, "velocity": 0, "duration": 77}, {"note": 69, "velocity": 102, "duration": 72}, {"note": 71, "velocity": 102, "duration": 148}, {"note": 0, "velocity": 0, "duration": 92}, {"note": 72, "velocity": 117, "duration": 153}, {"note": 0, "velocity": 0, "duration": 207}, {"note": 71, "velocity": 112, "duration": 139}, {"note": 0, "velocity": 0, "duration": 101}, {"note": 71, "velocity": 97, "duration": 82}, {"note": 79, "velocity": 112, "duration": 172}, {"note": 0, "velocity": 0, "duration": 68}, {"note": 76, "velocity": 117, "duration": 165}, {"note": 0, "velocity": 0, "duration": 195}, {"note": 72, "velocity": 117, "duration": 133}, {"note": 0, "velocity": 0, "duration": 107}, {"note": 72, "velocity": 100, "duration": 76}, {"note": 74, "velocity": 122, "duration": 133}, {"note": 0, "velocity": 0, "duration": 107}, {"note": 76, "velocity": 127, "duration": 224}, {"note": 0, "velocity": 0, "duration": 136}, {"note": 74, "velocity": 127, "duration": 127}, {"note": 0, "velocity": 0, "duration": 113}, {"note": 74, "velocity": 112, "duration": 63}, {"note": 76, "velocity": 117, "duration": 139}, {"note": 0, "velocity": 0, "duration": 101}, {"note": 78, "velocity": 127, "duration": 374}, {"note": 0, "velocity": 0, "duration": 466}, {"note": 79, "velocity": 127, "duration": 247}, {"note": 78, "velocity": 85, "duration": 248}, {"note": 76, "velocity": 99, "duration": 1026}, {"note": 0, "velocity": 0, "duration": 894}, {"note": 76, "velocity": 102, "duration": 631}, {"note": 0, "velocity": 0, "duration": 89}, {"note": 74, "velocity": 127, "duration": 112}, {"note": 71, "velocity": 68, "duration": 82}, {"note": 71, "velocity": 83, "duration": 695}, {"note": 0, "velocity": 0, "duration": 265}, {"note": 64, "velocity": 102, "duration": 112}, {"note": 0, "velocity": 0, "duration": 128}, {"note": 64, "velocity": 90, "duration": 86}, {"note": 76, "velocity": 122, "duration": 336}, {"note": 74, "velocity": 102, "duration": 222}, {"note": 71, "velocity": 102, "duration": 664}, {"note": 71, "velocity": 127, "duration": 55}, {"note": 0, "velocity": 0, "duration": 65}, {"note": 71, "velocity": 112, "duration": 79}, {"note": 69, "velocity": 127, "duration": 162}, {"note": 0, "velocity": 0, "duration": 78}, {"note": 69, "velocity": 122, "duration": 86}, {"note": 71, "velocity": 122, "duration": 151}, {"note": 0, "velocity": 0, "duration": 89}, {"note": 72, "velocity": 127, "duration": 183}, {"note": 0, "velocity": 0, "duration": 177}, {"note": 71, "velocity": 122, "duration": 149}, {"note": 0, "velocity": 0, "duration": 91}, {"note": 71, "velocity": 97, "duration": 84}, {"note": 79, "velocity": 122, "duration": 161}, {"note": 0, "velocity": 0, "duration": 79}, {"note": 76, "velocity": 127, "duration": 248}, {"note": 0, "velocity": 0, "duration": 112}, {"note": 72, "velocity": 107, "duration": 131}, {"note": 0, "velocity": 0, "duration": 109}, {"note": 72, "velocity": 97, "duration": 89}, {"note": 74, "velocity": 127, "duration": 160}, {"note": 0, "velocity": 0, "duration": 80}, {"note": 76, "velocity": 127, "duration": 166}, {"note": 0, "velocity": 0, "duration": 194}, {"note": 74, "velocity": 122, "duration": 132}, {"note": 0, "velocity": 0, "duration": 108}, {"note": 74, "velocity": 107, "duration": 80}, {"note": 76, "velocity": 127, "duration": 153}, {"note": 0, "velocity": 0, "duration": 87}, {"note": 78, "velocity": 127, "duration": 169}, {"note": 0, "velocity": 0, "duration": 191}, {"note": 79, "velocity": 127, "duration": 151}, {"note": 0, "velocity": 0, "duration": 89}, {"note": 79, "velocity": 96, "duration": 78}, {"note": 78, "velocity": 127, "duration": 140}, {"note": 0, "velocity": 0, "duration": 100}, {"note": 76, "velocity": 127, "duration": 156}, {"note": 0, "velocity": 0, "duration": 204}, {"note": 78, "velocity": 127, "duration": 126}, {"note": 0, "velocity": 0, "duration": 114}, {"note": 78, "velocity": 122, "duration": 52}, {"note": 0, "velocity": 0, "duration": 68}, {"note": 76, "velocity": 102, "duration": 133}, {"note": 0, "velocity": 0, "duration": 107}, {"note": 74, "velocity": 107, "duration": 147}, {"note": 0, "velocity": 0, "duration": 213}, {"note": 64, "velocity": 102, "duration": 107}, {"note": 0, "velocity": 0, "duration": 133}, {"note": 64, "velocity": 107, "duration": 60}, {"note": 76, "velocity": 127, "duration": 156}, {"note": 0, "velocity": 0, "duration": 204}, {"note": 74, "velocity": 117, "duration": 140}, {"note": 0, "velocity": 0, "duration": 100}, {"note": 71, "velocity": 117, "duration": 267}, {"note": 0, "velocity": 0, "duration": 453}, {"note": 71, "velocity": 117, "duration": 48}, {"note": 0, "velocity": 0, "duration": 72}, {"note": 71, "velocity": 112, "duration": 61}, {"note": 69, "velocity": 112, "duration": 163}, {"note": 0, "velocity": 0, "duration": 77}, {"note": 69, "velocity": 102, "duration": 72}, {"note": 71, "velocity": 102, "duration": 148}, {"note": 0, "velocity": 0, "duration": 92}, {"note": 72, "velocity": 117, "duration": 153}, {"note": 0, "velocity": 0, "duration": 207}, {"note": 71, "velocity": 112, "duration": 139}, {"note": 0, "velocity": 0, "duration": 101}, {"note": 71, "velocity": 97, "duration": 82}, {"note": 79, "velocity": 112, "duration": 172}, {"note": 0, "velocity": 0, "duration": 68}, {"note": 76, "velocity": 117, "duration": 165}, {"note": 0, "velocity": 0, "duration": 195}, {"note": 72, "velocity": 117, "duration": 133}, {"note": 0, "velocity": 0, "duration": 107}, {"note": 72, "velocity": 100, "duration": 76}, {"note": 74, "velocity": 122, "duration": 133}, {"note": 0, "velocity": 0, "duration": 107}, {"note": 76, "velocity": 127, "duration": 224}, {"note": 0, "velocity": 0, "duration": 136}, {"note": 74, "velocity": 127, "duration": 127}, {"note": 0, "velocity": 0, "duration": 113}, {"note": 74, "velocity": 112, "duration": 63}, {"note": 76, "velocity": 117, "duration": 139}, {"note": 0, "velocity": 0, "duration": 101}, {"note": 78, "velocity": 127, "duration": 374}, {"note": 0, "velocity": 0, "duration": 466}, {"note": 79, "velocity": 127, "duration": 247}, {"note": 78, "velocity": 85, "duration": 248}, {"note": 76, "velocity": 99, "duration": 1026}]]