[[{"note": 58, "velocity": 99, "duration": 176}, {"note": 0, "velocity": 0, "duration": 64}, {"note": 60, "velocity": 90, "duration": 198}, {"note": 63, "velocity": 95, "duration": 557}, {"note": 0, "velocity": 0, "duration": 163}, {"note": 65, "velocity": 95, "duration": 266}, {"note": 67, "velocity": 85, "duration": 234}, {"note": 65, "velocity": 88, "duration": 224}, {"note": 63, "velocity": 86, "duration": 247}, {"note": 60, "velocity": 85, "duration": 270}, {"note": 63, "velocity": 97, "duration": 1078}, {"note": 0, "velocity": 0, "duration": 362}, {"note": 67, "velocity": 97, "duration": 141}, {"note": 0, "velocity": 0, "duration": 99}, {"note": 70, "velocity": 102, "duration": 119}, {"note": 0, "velocity": 0, "duration": 121}, {"note": 72, "velocity": 122, "duration": 251}, {"note": 0, "velocity": 0, "duration": 229}, {"note": 72, "velocity": 107, "duration": 213}, {"note": 70, "velocity": 90, "duration": 199}, {"note": 67, "velocity": 92, "duration": 179}, {"note": 0, "velocity": 0, "duration": 61}, {"note": 60, "velocity": 90, "duration": 123}, {"note": 0, "velocity": 0, "duration": 117}, {"note": 60, "velocity": 96, "duration": 177}, {"note": 0, "velocity": 0, "duration": 63}, {"note": 63, "velocity": 93, "duration": 141}, {"note": 0, "velocity": 0, "duration": 99}, {"note": 65, "velocity": 95, "duration": 805}, {"note": 0, "velocity": 0, "duration": 1115}, {"note": 67, "velocity": 96, "duration": 299}, {"note": 0, "velocity": 0, "duration": 181}, {"note": 65, "velocity": 90, "duration": 165}, {"note": 0, "velocity": 0, "duration": 75}, {"note": 67, "velocity": 90, "duration": 154}, {"note": 0, "velocity": 0, "duration": 86}, {"note": 70, "velocity": 107, "duration": 463}, {"note": 0, "velocity": 0, "duration": 497}, {"note": 65, "velocity": 99, "duration": 231}, {"note": 0, "velocity": 0, "duration": 129}, {"note": 67, "velocity": 100, "duration": 207}, {"note": 0, "velocity": 0, "duration": 153}, {"note": 63, "velocity": 97, "duration": 225}, {"note": 60, "velocity": 95, "duration": 339}, {"note": 0, "velocity": 0, "duration": 141}, {"note": 60, "velocity": 95, "duration": 150}, {"note": 0, "velocity": 0, "duration": 90}, {"note": 63, "velocity": 102, "duration": 163}, {"note": 0, "velocity": 0, "duration": 77}, {"note": 65, "velocity": 92, "duration": 92}, {"note": 0, "velocity": 0, "duration": 148}, {"note": 65, "velocity": 99, "duration": 93}, {"note": 0, "velocity": 0, "duration": 147}, {"note": 65, "velocity": 100, "duration": 93}, {"note": 0, "velocity": 0, "duration": 147}, {"note": 67, "velocity": 102, "duration": 219}, {"note": 65, "velocity": 102, "duration": 183}, {"note": 0, "velocity": 0, "duration": 297}, {"note": 65, "velocity": 97, "duration": 218}, {"note": 63, "velocity": 90, "duration": 251}, {"note": 65, "velocity": 99, "duration": 1262}, {"note": 0, "velocity": 0, "duration": 178}, {"note": 58, "velocity": 107, "duration": 162}, {"note": 0, "velocity": 0, "duration": 78}, {"note": 60, "velocity": 93, "duration": 173}, {"note": 0, "velocity": 0, "duration": 67}, {"note": 63, "velocity": 102, "duration": 470}, {"note": 0, "velocity": 0, "duration": 250}, {"note": 65, "velocity": 102, "duration": 142}, {"note": 0, "velocity": 0, "duration": 98}, {"note": 67, "velocity": 96, "duration": 181}, {"note": 65, "velocity": 96, "duration": 148}, {"note": 0, "velocity": 0, "duration": 92}, {"note": 63, "velocity": 112, "duration": 167}, {"note": 0, "velocity": 0, "duration": 73}, {"note": 60, "velocity": 93, "duration": 172}, {"note": 0, "velocity": 0, "duration": 68}, {"note": 63, "velocity": 99, "duration": 756}, {"note": 0, "velocity": 0, "duration": 684}, {"note": 67, "velocity": 100, "duration": 93}, {"note": 0, "velocity": 0, "duration": 147}, {"note": 70, "velocity": 112, "duration": 78}, {"note": 0, "velocity": 0, "duration": 162}, {"note": 72, "velocity": 117, "duration": 257}, {"note": 0, "velocity": 0, "duration": 103}, {"note": 72, "velocity": 93, "duration": 47}, {"note": 0, "velocity": 0, "duration": 73}, {"note": 72, "velocity": 107, "duration": 101}, {"note": 0, "velocity": 0, "duration": 139}, {"note": 70, "velocity": 102, "duration": 177}, {"note": 0, "velocity": 0, "duration": 63}, {"note": 60, "velocity": 96, "duration": 218}, {"note": 70, "velocity": 112, "duration": 130}, {"note": 0, "velocity": 0, "duration": 110}, {"note": 70, "velocity": 122, "duration": 165}, {"note": 0, "velocity": 0, "duration": 75}, {"note": 67, "velocity": 99, "duration": 131}, {"note": 0, "velocity": 0, "duration": 109}, {"note": 65, "velocity": 99, "duration": 521}, {"note": 0, "velocity": 0, "duration": 1399}, {"note": 67, "velocity": 107, "duration": 374}, {"note": 0, "velocity": 0, "duration": 106}, {"note": 65, "velocity": 99, "duration": 171}, {"note": 0, "velocity": 0, "duration": 69}, {"note": 67, "velocity": 100, "duration": 169}, {"note": 0, "velocity": 0, "duration": 71}, {"note": 70, "velocity": 127, "duration": 472}, {"note": 0, "velocity": 0, "duration": 488}, {"note": 65, "velocity": 117, "duration": 259}, {"note": 67, "velocity": 93, "duration": 351}, {"note": 0, "velocity": 0, "duration": 129}, {"note": 63, "velocity": 97, "duration": 211}, {"note": 60, "velocity": 86, "duration": 354}, {"note": 0, "velocity": 0, "duration": 126}, {"note": 60, "velocity": 102, "duration": 152}, {"note": 0, "velocity": 0, "duration": 88}, {"note": 63, "velocity": 100, "duration": 108}, {"note": 0, "velocity": 0, "duration": 132}, {"note": 65, "velocity": 97, "duration": 254}, {"note": 0, "velocity": 0, "duration": 106}, {"note": 65, "velocity": 96, "duration": 54}, {"note": 0, "velocity": 0, "duration": 66}, {"note": 65, "velocity": 95, "duration": 146}, {"note": 0, "velocity": 0, "duration": 94}, {"note": 67, "velocity": 99, "duration": 178}, {"note": 0, "velocity": 0, "duration": 62}, {"note": 65, "velocity": 97, "duration": 240}, {"note": 67, "velocity": 96, "duration": 129}, {"note": 0, "velocity": 0, "duration": 111}, {"note": 58, "velocity": 99, "duration": 152}, {"note": 0, "velocity": 0, "duration": 88}, {"note": 60, "velocity": 90, "duration": 159}, {"note": 0, "velocity": 0, "duration": 81}, {"note": 63, "velocity": 112, "duration": 1088}, {"note": 0, "velocity": 0, "duration": 832}, {"note": 70, "velocity": 122, "duration": 200}, {"note": 67, "velocity": 96, "duration": 229}, {"note": 70, "velocity": 102, "duration": 188}, {"note": 72, "velocity": 97, "duration": 187}, {"note": 75, "velocity": 117, "duration": 330}, {"note": 0, "velocity": 0, "duration": 150}, {"note": 75, "velocity": 122, "duration": 104}, {"note": 0, "velocity": 0, "duration": 136}, {"note": 74, "velocity": 112, "duration": 137}, {"note": 0, "velocity": 0, "duration": 103}, {"note": 72, "velocity": 112, "duration": 132}, {"note": 0, "velocity": 0, "duration": 108}, {"note": 72, "velocity": 127, "duration": 87}, {"note": 74, "velocity": 96, "duration": 113}, {"note": 72, "velocity": 93, "duration": 158}, {"note": 0, "velocity": 0, "duration": 82}, {"note": 67, "velocity": 99, "duration": 160}, {"note": 0, "velocity": 0, "duration": 80}, {"note": 70, "velocity": 100, "duration": 665}, {"note": 0, "velocity": 0, "duration": 295}, {"note": 70, "velocity": 127, "duration": 156}, {"note": 0, "velocity": 0, "duration": 84}, {"note": 67, "velocity": 90, "duration": 104}, {"note": 0, "velocity": 0, "duration": 136}, {"note": 70, "velocity": 127, "duration": 135}, {"note": 0, "velocity": 0, "duration": 105}, {"note": 72, "velocity": 95, "duration": 129}, {"note": 0, "velocity": 0, "duration": 111}, {"note": 75, "velocity": 122, "duration": 234}, {"note": 0, "velocity": 0, "duration": 246}, {"note": 75, "velocity": 117, "duration": 161}, {"note": 0, "velocity": 0, "duration": 199}, {"note": 60, "velocity": 99, "duration": 50}, {"note": 0, "velocity": 0, "duration": 70}, {"note": 60, "velocity": 100, "duration": 180}, {"note": 70, "velocity": 112, "duration": 105}, {"note": 0, "velocity": 0, "duration": 135}, {"note": 70, "velocity": 122, "duration": 158}, {"note": 0, "velocity": 0, "duration": 82}, {"note": 67, "velocity": 100, "duration": 146}, {"note": 0, "velocity": 0, "duration": 94}, {"note": 65, "velocity": 100, "duration": 342}, {"note": 0, "velocity": 0, "duration": 618}, {"note": 67, "velocity": 100, "duration": 370}, {"note": 0, "velocity": 0, "duration": 110}, {"note": 65, "velocity": 107, "duration": 167}, {"note": 0, "velocity": 0, "duration": 73}, {"note": 67, "velocity": 100, "duration": 144}, {"note": 0, "velocity": 0, "duration": 96}, {"note": 70, "velocity": 127, "duration": 501}, {"note": 0, "velocity": 0, "duration": 459}, {"note": 65, "velocity": 99, "duration": 320}, {"note": 67, "velocity": 95, "duration": 252}, {"note": 0, "velocity": 0, "duration": 108}, {"note": 63, "velocity": 102, "duration": 160}, {"note": 0, "velocity": 0, "duration": 80}, {"note": 60, "velocity": 97, "duration": 191}, {"note": 0, "velocity": 0, "duration": 289}, {"note": 60, "velocity": 112, "duration": 154}, {"note": 0, "velocity": 0, "duration": 86}, {"note": 67, "velocity": 93, "duration": 169}, {"note": 0, "velocity": 0, "duration": 71}, {"note": 65, "velocity": 93, "duration": 238}, {"note": 0, "velocity": 0, "duration": 122}, {"note": 65, "velocity": 112, "duration": 79}, {"note": 0, "velocity": 0, "duration": 281}, {"note": 67, "velocity": 96, "duration": 161}, {"note": 0, "velocity": 0, "duration": 79}, {"note": 72, "velocity": 112, "duration": 211}, {"note": 0, "velocity": 0, "duration": 149}, {"note": 75, "velocity": 100, "duration": 223}, {"note": 0, "velocity": 0, "duration": 137}, {"note": 72, "velocity": 96, "duration": 180}, {"note": 70, "velocity": 99, "duration": 856}, {"note": 0, "velocity": 0, "duration": 1064}, {"note": 70, "velocity": 122, "duration": 200}, {"note": 67, "velocity": 96, "duration": 229}, {"note": 70, "velocity": 102, "duration": 188}, {"note": 72, "velocity": 97, "duration": 187}, {"note": 75, "velocity": 117, "duration": 330}, {"note": 0, "velocity": 0, "duration": 150}, {"note": 75, "velocity": 122, "duration": 104}, {"note": 0, "velocity": 0, "duration": 136}, {"note": 74, "velocity": 112, "duration": 137}, {"note": 0, "velocity": 0, "duration": 103}, {"note": 72, "velocity": 112, "duration": 132}, {"note": 0, "velocity": 0, "duration": 108}, {"note": 72, "velocity": 127, "duration": 87}, {"note": 74, "velocity": 96, "duration": 113}, {"note": 72, "velocity": 93, "duration": 158}, {"note": 0, "velocity": 0, "duration": 82}, {"note": 67, "velocity": 99, "duration": 160}, {"note": 0, "velocity": 0, "duration": 80}, {"note": 70, "velocity": 100, "duration": 665}, {"note": 0, "velocity": 0, "duration": 295}, {"note": 70, "velocity": 127, "duration": 156}, {"note": 0, "velocity": 0, "duration": 84}, {"note": 67, "velocity": 90, "duration": 104}, {"note": 0, "velocity": 0, "duration": 136}, {"note": 70, "velocity": 127, "duration": 135}, {"note": 0, "velocity": 0, "duration": 105}, {"note": 72, "velocity": 95, "duration": 129}, {"note": 0, "velocity": 0, "duration": 111}, {"note": 75, "velocity": 122, "duration": 234}, {"note": 0, "velocity": 0, "duration": 246}, {"note": 72, "velocity": 122, "duration": 161}, {"note": 0, "velocity": 0, "duration": 79}, {"note": 70, "velocity": 117, "duration": 154}, {"note": 0, "velocity": 0, "duration": 86}, {"note": 60, "velocity": 122, "duration": 161}, {"note": 0, "velocity": 0, "duration": 79}, {"note": 70, "velocity": 112, "duration": 105}, {"note": 0, "velocity": 0, "duration": 135}, {"note": 70, "velocity": 122, "duration": 158}, {"note": 0, "velocity": 0, "duration": 82}, {"note": 67, "velocity": 100, "duration": 146}, {"note": 0, "velocity": 0, "duration": 94}, {"note": 65, "velocity": 100, "duration": 710}, {"note": 0, "velocity": 0, "duration": 250}, {"note": 67, "velocity": 100, "duration": 370}, {"note": 0, "velocity": 0, "duration": 110}, {"note": 65, "velocity": 107, "duration": 167}, {"note": 0, "velocity": 0, "duration": 73}, {"note": 67, "velocity": 100, "duration": 144}, {"note": 0, "velocity": 0, "duration": 96}, {"note": 70, "velocity": 127, "duration": 822}, {"note": 0, "velocity": 0, "duration": 138}, {"note": 65, "velocity": 99, "duration": 320}, {"note": 67, "velocity": 95, "duration": 252}, {"note": 0, "velocity": 0, "duration": 108}, {"note": 63, "velocity": 102, "duration": 160}, {"note": 0, "velocity": 0, "duration": 80}, {"note": 60, "velocity": 97, "duration": 191}, {"note": 0, "velocity": 0, "duration": 289}, {"note": 60, "velocity": 112, "duration": 154}, {"note": 0, "velocity": 0, "duration": 86}, {"note": 67, "velocity": 93, "duration": 169}, {"note": 0, "velocity": 0, "duration": 71}, {"note": 65, "velocity": 93, "duration": 598}, {"note": 0, "velocity": 0, "duration": 122}, {"note": 67, "velocity": 112, "duration": 138}, {"note": 0, "velocity": 0, "duration": 102}, {"note": 65, "velocity": 97, "duration": 227}, {"note": 67, "velocity": 107, "duration": 86}, {"note": 0, "velocity": 0, "duration": 154}, {"note": 58, "velocity": 107, "duration": 167}, {"note": 0, "velocity": 0, "duration": 73}, {"note": 60, "velocity": 99, "duration": 169}, {"note": 0, "velocity": 0, "duration": 71}, {"note": 63, "velocity": 117, "duration": 1501}, {"note": 0, "velocity": 0, "duration": 15299}, {"note": 58, "velocity": 107, "duration": 162}, {"note": 0, "velocity": 0, "duration": 78}, {"note": 60, "velocity": 93, "duration": 173}, {"note": 0, "velocity": 0, "duration": 67}, {"note": 63, "velocity": 102, "duration": 470}, {"note": 0, "velocity": 0, "duration": 250}, {"note": 65, "velocity": 102, "duration": 142}, {"note": 0, "velocity": 0, "duration": 98}, {"note": 67, "velocity": 96, "duration": 181}, {"note": 65, "velocity": 96, "duration": 148}, {"note": 0, "velocity": 0, "duration": 92}, {"note": 63, "velocity": 112, "duration": 167}, {"note": 0, "velocity": 0, "duration": 73}, {"note": 60, "velocity": 93, "duration": 172}, {"note": 0, "velocity": 0, "duration": 68}, {"note": 63, "velocity": 99, "duration": 756}, {"note": 0, "velocity": 0, "duration": 684}, {"note": 67, "velocity": 100, "duration": 93}, {"note": 0, "velocity": 0, "duration": 147}, {"note": 70, "velocity": 112, "duration": 78}, {"note": 0, "velocity": 0, "duration": 162}, {"note": 72, "velocity": 117, "duration": 257}, {"note": 0, "velocity": 0, "duration": 103}, {"note": 72, "velocity": 93, "duration": 47}, {"note": 0, "velocity": 0, "duration": 73}, {"note": 72, "velocity": 107, "duration": 101}, {"note": 0, "velocity": 0, "duration": 139}, {"note": 70, "velocity": 102, "duration": 177}, {"note": 0, "velocity": 0, "duration": 63}, {"note": 60, "velocity": 96, "duration": 218}, {"note": 70, "velocity": 112, "duration": 130}, {"note": 0, "velocity": 0, "duration": 110}, {"note": 70, "velocity": 122, "duration": 165}, {"note": 0, "velocity": 0, "duration": 75}, {"note": 67, "velocity": 99, "duration": 131}, {"note": 0, "velocity": 0, "duration": 109}, {"note": 65, "velocity": 99, "duration": 521}, {"note": 0, "velocity": 0, "duration": 1399}, {"note": 67, "velocity": 107, "duration": 374}, {"note": 0, "velocity": 0, "duration": 106}, {"note": 65, "velocity": 99, "duration": 171}, {"note": 0, "velocity": 0, "duration": 69}, {"note": 67, "velocity": 100, "duration": 169}, {"note": 0, "velocity": 0, "duration": 71}, {"note": 70, "velocity": 127, "duration": 472}, {"note": 0, "velocity": 0, "duration": 488}, {"note": 65, "velocity": 117, "duration": 259}, {"note": 67, "velocity": 93, "duration": 351}, {"note": 0, "velocity": 0, "duration": 129}, {"note": 63, "velocity": 97, "duration": 211}, {"note": 60, "velocity": 86, "duration": 354}, {"note": 0, "velocity": 0, "duration": 126}, {"note": 60, "velocity": 102, "duration": 152}, {"note": 0, "velocity": 0, "duration": 88}, {"note": 63, "velocity": 100, "duration": 108}, {"note": 0, "velocity": 0, "duration": 132}, {"note": 65, "velocity": 97, "duration": 254}, {"note": 0, "velocity": 0, "duration": 106}, {"note": 65, "velocity": 96, "duration": 54}, {"note": 0, "velocity": 0, "duration": 66}, {"note": 65, "velocity": 95, "duration": 146}, {"note": 0, "velocity": 0, "duration": 94}, {"note": 67, "velocity": 99, "duration": 178}, {"note": 0, "velocity": 0, "duration": 62}, {"note": 65, "velocity": 97, "duration": 240}, {"note": 67, "velocity": 96, "duration": 129}, {"note": 0, "velocity": 0, "duration": 111}, {"note": 58, "velocity": 99, "duration": 152}, {"note": 0, "velocity": 0, "duration": 88}, {"note": 60, "velocity": 90, "duration": 159}, {"note": 0, "velocity": 0, "duration": 81}, {"note": 63, "velocity": 112, "duration": 1088}, {"note": 0, "velocity": 0, "duration": 832}, {"note": 70, "velocity": 122, "duration": 200}, {"note": 67, "velocity": 96, "duration": 229}, {"note": 70, "velocity": 102, "duration": 188}, {"note": 72, "velocity": 97, "duration": 187}, {"note": 75, "velocity": 117, "duration": 330}, {"note": 0, "velocity": 0, "duration": 150}, {"note": 75, "velocity": 122, "duration": 104}, {"note": 0, "velocity": 0, "duration": 136}, {"note": 74, "velocity": 112, "duration": 137}, {"note": 0, "velocity": 0, "duration": 103}, {"note": 72, "velocity": 112, "duration": 132}, {"note": 0, "velocity": 0, "duration": 108}, {"note": 72, "velocity": 127, "duration": 87}, {"note": 74, "velocity": 96, "duration": 113}, {"note": 72, "velocity": 93, "duration": 158}, {"note": 0, "velocity": 0, "duration": 82}, {"note": 67, "velocity": 99, "duration": 160}, {"note": 0, "velocity": 0, "duration": 80}, {"note": 70, "velocity": 100, "duration": 665}, {"note": 0, "velocity": 0, "duration": 295}, {"note": 70, "velocity": 127, "duration": 156}, {"note": 0, "velocity": 0, "duration": 84}, {"note": 67, "velocity": 90, "duration": 104}, {"note": 0, "velocity": 0, "duration": 136}, {"note": 70, "velocity": 127, "duration": 135}, {"note": 0, "velocity": 0, "duration": 105}, {"note": 72, "velocity": 95, "duration": 129}, {"note": 0, "velocity": 0, "duration": 111}, {"note": 75, "velocity": 122, "duration": 234}, {"note": 0, "velocity": 0, "duration": 246}, {"note": 75, "velocity": 117, "duration": 161}, {"note": 0, "velocity": 0, "duration": 199}, {"note": 60, "velocity": 99, "duration": 50}, {"note": 0, "velocity": 0, "duration": 70}, {"note": 60, "velocity": 100, "duration": 180}, {"note": 70, "velocity": 112, "duration": 105}, {"note": 0, "velocity": 0, "duration": 135}, {"note": 70, "velocity": 122, "duration": 158}, {"note": 0, "velocity": 0, "duration": 82}, {"note": 67, "velocity": 100, "duration": 146}, {"note": 0, "velocity": 0, "duration": 94}, {"note": 65, "velocity": 100, "duration": 342}, {"note": 0, "velocity": 0, "duration": 618}, {"note": 67, "velocity": 100, "duration": 370}, {"note": 0, "velocity": 0, "duration": 110}, {"note": 65, "velocity": 107, "duration": 167}, {"note": 0, "velocity": 0, "duration": 73}, {"note": 67, "velocity": 100, "duration": 144}, {"note": 0, "velocity": 0, "duration": 96}, {"note": 70, "velocity": 127, "duration": 501}, {"note": 0, "velocity": 0, "duration": 459}, {"note": 65, "velocity": 99, "duration": 320}, {"note": 67, "velocity": 95, "duration": 252}, {"note": 0, "velocity": 0, "duration": 108}, {"note": 63, "velocity": 102, "duration": 160}, {"note": 0, "velocity": 0, "duration": 80}, {"note": 60, "velocity": 97, "duration": 191}, {"note": 0, "velocity": 0, "duration": 289}, {"note": 60, "velocity": 112, "duration": 154}, {"note": 0, "velocity": 0, "duration": 86}, {"note": 67, "velocity": 93, "duration": 169}, {"note": 0, "velocity": 0, "duration": 71}, {"note": 65, "velocity": 93, "duration": 238}, {"note": 0, "velocity": 0, "duration": 122}, {"note": 65, "velocity": 112, "duration": 79}, {"note": 0, "velocity": 0, "duration": 281}, {"note": 67, "velocity": 96, "duration": 161}, {"note": 0, "velocity": 0, "duration": 79}, {"note": 72, "velocity": 112, "duration": 211}, {"note": 0, "velocity": 0, "duration": 149}, {"note": 75, "velocity": 100, "duration": 223}, {"note": 0, "velocity": 0, "duration": 137}, {"note": 72, "velocity": 96, "duration": 180}, {"note": 70, "velocity": 99, "duration": 856}, {"note": 0, "velocity": 0, "duration": 1064}, {"note": 70, "velocity": 122, "duration": 200}, {"note": 67, "velocity": 96, "duration": 229}, {"note": 70, "velocity": 102, "duration": 188}, {"note": 72, "velocity": 97, "duration": 187}, {"note": 75, "velocity": 117, "duration": 330}, {"note": 0, "velocity": 0, "duration": 150}, {"note": 75, "velocity": 122, "duration": 104}, {"note": 0, "velocity": 0, "duration": 136}, {"note": 74, "velocity": 112, "duration": 137}, {"note": 0, "velocity": 0, "duration": 103}, {"note": 72, "velocity": 112, "duration": 132}, {"note": 0, "velocity": 0, "duration": 108}, {"note": 72, "velocity": 127, "duration": 87}, {"note": 74, "velocity": 96, "duration": 113}, {"note": 72, "velocity": 93, "duration": 158}, {"note": 0, "velocity": 0, "duration": 82}, {"note": 67, "velocity": 99, "duration": 160}, {"note": 0, "velocity": 0, "duration": 80}, {"note": 70, "velocity": 100, "duration": 665}, {"note": 0, "velocity": 0, "duration": 295}, {"note": 70, "velocity": 127, "duration": 156}, {"note": 0, "velocity": 0, "duration": 84}, {"note": 67, "velocity": 90, "duration": 104}, {"note": 0, "velocity": 0, "duration": 136}, {"note": 70, "velocity": 127, "duration": 135}, {"note": 0, "velocity": 0, "duration": 105}, {"note": 72, "velocity": 95, "duration": 129}, {"note": 0, "velocity": 0, "duration": 111}, {"note": 75, "velocity": 122, "duration": 234}, {"note": 0, "velocity": 0, "duration": 246}, {"note": 72, "velocity": 122, "duration": 161}, {"note": 0, "velocity": 0, "duration": 79}, {"note": 70, "velocity": 117, "duration": 154}, {"note": 0, "velocity": 0, "duration": 86}, {"note": 60, "velocity": 122, "duration": 161}, {"note": 0, "velocity": 0, "duration": 79}, {"note": 70, "velocity": 112, "duration": 105}, {"note": 0, "velocity": 0, "duration": 135}, {"note": 70, "velocity": 122, "duration": 158}, {"note": 0, "velocity": 0, "duration": 82}, {"note": 67, "velocity": 100, "duration": 146}, {"note": 0, "velocity": 0, "duration": 94}, {"note": 65, "velocity": 100, "duration": 710}, {"note": 0, "velocity": 0, "duration": 250}, {"note": 67, "velocity": 100, "duration": 370}, {"note": 0, "velocity": 0, "duration": 110}, {"note": 65, "velocity": 107, "duration": 167}, {"note": 0, "velocity": 0, "duration": 73}, {"note": 67, "velocity": 100, "duration": 144}, {"note": 0, "velocity": 0, "duration": 96}, {"note": 70, "velocity": 127, "duration": 822}, {"note": 0, "velocity": 0, "duration": 138}, {"note": 65, "velocity": 99, "duration": 320}, {"note": 67, "velocity": 95, "duration": 252}, {"note": 0, "velocity": 0, "duration": 108}, {"note": 63, "velocity": 102, "duration": 160}, {"note": 0, "velocity": 0, "duration": 80}, {"note": 60, "velocity": 97, "duration": 191}, {"note": 0, "velocity": 0, "duration": 289}, {"note": 60, "velocity": 112, "duration": 154}, {"note": 0, "velocity": 0, "duration": 86}, {"note": 67, "velocity": 93, "duration": 169}, {"note": 0, "velocity": 0, "duration": 71}, {"note": 65, "velocity": 93, "duration": 598}, {"note": 0, "velocity": 0, "duration": 122}, {"note": 67, "velocity": 112, "duration": 138}, {"note": 0, "velocity": 0, "duration": 102}, {"note": 65, "velocity": 97, "duration": 227}, {"note": 67, "velocity": 107, "duration": 86}, {"note": 0, "velocity": 0, "duration": 154}, {"note": 58, "velocity": 107, "duration": 167}, {"note": 0, "velocity": 0, "duration": 73}, {"note": 60, "velocity": 99, "duration": 169}, {"note": 0, "velocity": 0, "duration": 71}, {"note": 63, "velocity": 117, "duration": 1501}, {"note": 0, "velocity": 0, "duration": 419}, {"note": 70, "velocity": 122, "duration": 200}, {"note": 67, "velocity": 96, "duration": 229}, {"note": 70, "velocity": 102, "duration": 188}, {"note": 72, "velocity": 97, "duration": 187}, {"note": 75, "velocity": 117, "duration": 330}, {"note": 0, "velocity": 0, "duration": 150}, {"note": 75, "velocity": 122, "duration": 104}, {"note": 0, "velocity": 0, "duration": 136}, {"note": 74, "velocity": 112, "duration": 137}, {"note": 0, "velocity": 0, "duration": 103}, {"note": 72, "velocity": 112, "duration": 132}, {"note": 0, "velocity": 0, "duration": 108}, {"note": 72, "velocity": 127, "duration": 87}, {"note": 74, "velocity": 96, "duration": 113}, {"note": 72, "velocity": 93, "duration": 158}, {"note": 0, "velocity": 0, "duration": 82}, {"note": 67, "velocity": 99, "duration": 160}, {"note": 0, "velocity": 0, "duration": 80}, {"note": 70, "velocity": 100, "duration": 665}, {"note": 0, "velocity": 0, "duration": 295}, {"note": 70, "velocity": 127, "duration": 156}, {"note": 0, "velocity": 0, "duration": 84}, {"note": 67, "velocity": 90, "duration": 104}, {"note": 0, "velocity": 0, "duration": 136}, {"note": 70, "velocity": 127, "duration": 135}, {"note": 0, "velocity": 0, "duration": 105}, {"note": 72, "velocity": 95, "duration": 129}, {"note": 0, "velocity": 0, "duration": 111}, {"note": 75, "velocity": 122, "duration": 234}, {"note": 0, "velocity": 0, "duration": 246}, {"note": 75, "velocity": 117, "duration": 161}, {"note": 0, "velocity": 0, "duration": 199}, {"note": 60, "velocity": 99, "duration": 50}, {"note": 0, "velocity": 0, "duration": 70}, {"note": 60, "velocity": 100, "duration": 180}, {"note": 70, "velocity": 112, "duration": 105}, {"note": 0, "velocity": 0, "duration": 135}, {"note": 70, "velocity": 122, "duration": 158}, {"note": 0, "velocity": 0, "duration": 82}, {"note": 67, "velocity": 100, "duration": 146}, {"note": 0, "velocity": 0, "duration": 94}, {"note": 65, "velocity": 100, "duration": 342}, {"note": 0, "velocity": 0, "duration": 618}, {"note": 67, "velocity": 100, "duration": 370}, {"note": 0, "velocity": 0, "duration": 110}, {"note": 65, "velocity": 107, "duration": 167}, {"note": 0, "velocity": 0, "duration": 73}, {"note": 67, "velocity": 100, "duration": 144}, {"note": 0, "velocity": 0, "duration": 96}, {"note": 70, "velocity": 127, "duration": 501}, {"note": 0, "velocity": 0, "duration": 459}, {"note": 65, "velocity": 99, "duration": 320}, {"note": 67, "velocity": 95, "duration": 252}, {"note": 0, "velocity": 0, "duration": 108}, {"note": 63, "velocity": 102, "duration": 160}, {"note": 0, "velocity": 0, "duration": 80}, {"note": 60, "velocity": 97, "duration": 191}, {"note": 0, "velocity": 0, "duration": 289}, {"note": 60, "velocity": 112, "duration": 154}, {"note": 0, "velocity": 0, "duration": 86}, {"note": 67, "velocity": 93, "duration": 169}, {"note": 0, "velocity": 0, "duration": 71}, {"note": 65, "velocity": 93, "duration": 238}, {"note": 0, "velocity": 0, "duration": 122}, {"note": 65, "velocity": 112, "duration": 79}, {"note": 0, "velocity": 0, "duration": 281}, {"note": 67, "velocity": 96, "duration": 161}, {"note": 0, "velocity": 0, "duration": 79}, {"note": 72, "velocity": 112, "duration": 211}, {"note": 0, "velocity": 0, "duration": 149}, {"note": 75, "velocity": 100, "duration": 223}, {"note": 0, "velocity": 0, "duration": 137}, {"note": 72, "velocity": 96, "duration": 180}, {"note": 70, "velocity": 99, "duration": 856}, {"note": 0, "velocity": 0, "duration": 1064}, {"note": 70, "velocity": 122, "duration": 200}, {"note": 67, "velocity": 96, "duration": 229}, {"note": 70, "velocity": 102, "duration": 188}, {"note": 72, "velocity": 97, "duration": 187}, {"note": 75, "velocity": 117, "duration": 330}, {"note": 0, "velocity": 0, "duration": 150}, {"note": 75, "velocity": 122, "duration": 104}, {"note": 0, "velocity": 0, "duration": 136}, {"note": 74, "velocity": 112, "duration": 137}, {"note": 0, "velocity": 0, "duration": 103}, {"note": 72, "velocity": 112, "duration": 132}, {"note": 0, "velocity": 0, "duration": 108}, {"note": 72, "velocity": 127, "duration": 87}, {"note": 74, "velocity": 96, "duration": 113}, {"note": 72, "velocity": 93, "duration": 158}, {"note": 0, "velocity": 0, "duration": 82}, {"note": 67, "velocity": 99, "duration": 160}, {"note": 0, "velocity": 0, "duration": 80}, {"note": 70, "velocity": 100, "duration": 665}, {"note": 0, "velocity": 0, "duration": 295}, {"note": 70, "velocity": 127, "duration": 156}, {"note": 0, "velocity": 0, "duration": 84}, {"note": 67, "velocity": 90, "duration": 104}, {"note": 0, "velocity": 0, "duration": 136}, {"note": 70, "velocity": 127, "duration": 135}, {"note": 0, "velocity": 0, "duration": 105}, {"note": 72, "velocity": 95, "duration": 129}, {"note": 0, "velocity": 0, "duration": 111}, {"note": 75, "velocity": 122, "duration": 234}, {"note": 0, "velocity": 0, "duration": 246}, {"note": 72, "velocity": 122, "duration": 161}, {"note": 0, "velocity": 0, "duration": 79}, {"note": 70, "velocity": 117, "duration": 154}, {"note": 0, "velocity": 0, "duration": 86}, {"note": 60, "velocity": 122, "duration": 161}, {"note": 0, "velocity": 0, "duration": 79}, {"note": 70, "velocity": 112, "duration": 105}, {"note": 0, "velocity": 0, "duration": 135}, {"note": 70, "velocity": 122, "duration": 158}, {"note": 0, "velocity": 0, "duration": 82}, {"note": 67, "velocity": 100, "duration": 146}, {"note": 0, "velocity": 0, "duration": 94}, {"note": 65, "velocity": 100, "duration": 710}, {"note": 0, "velocity": 0, "duration": 250}, {"note": 67, "velocity": 100, "duration": 370}, {"note": 0, "velocity": 0, "duration": 110}, {"note": 65, "velocity": 107, "duration": 167}, {"note": 0, "velocity": 0, "duration": 73}, {"note": 67, "velocity": 100, "duration": 144}, {"note": 0, "velocity": 0, "duration": 96}, {"note": 70, "velocity": 127, "duration": 822}, {"note": 0, "velocity": 0, "duration": 138}, {"note": 65, "velocity": 99, "duration": 320}, {"note": 67, "velocity": 95, "duration": 252}, {"note": 0, "velocity": 0, "duration": 108}, {"note": 63, "velocity": 102, "duration": 160}, {"note": 0, "velocity": 0, "duration": 80}, {"note": 60, "velocity": 97, "duration": 191}, {"note": 0, "velocity": 0, "duration": 289}, {"note": 60, "velocity": 112, "duration": 154}, {"note": 0, "velocity": 0, "duration": 86}, {"note": 67, "velocity": 93, "duration": 169}, {"note": 0, "velocity": 0, "duration": 71}, {"note": 65, "velocity": 93, "duration": 598}, {"note": 0, "velocity": 0, "duration": 122}, {"note": 67, "velocity": 112, "duration": 138}, {"note": 0, "velocity": 0, "duration": 102}, {"note": 65, "velocity": 97, "duration": 227}, {"note": 67, "velocity": 107, "duration": 86}, {"note": 0, "velocity": 0, "duration": 154}, {"note": 58, "velocity": 107, "duration": 167}, {"note": 0, "velocity": 0, "duration": 73}, {"note": 60, "velocity": 99, "duration": 169}, {"note": 0, "velocity": 0, "duration": 71}, {"note": 63, "velocity": 117, "duration": 960}, {"note": 0, "velocity": 0, "duration": 960}, {"note": 67, "velocity": 100, "duration": 370}, {"note": 0, "velocity": 0, "duration": 110}, {"note": 65, "velocity": 107, "duration": 167}, {"note": 0, "velocity": 0, "duration": 73}, {"note": 67, "velocity": 100, "duration": 144}, {"note": 0, "velocity": 0, "duration": 96}, {"note": 70, "velocity": 127, "duration": 822}, {"note": 0, "velocity": 0, "duration": 138}, {"note": 65, "velocity": 99, "duration": 320}, {"note": 67, "velocity": 95, "duration": 252}, {"note": 0, "velocity": 0, "duration": 108}, {"note": 63, "velocity": 102, "duration": 160}, {"note": 0, "velocity": 0, "duration": 80}, {"note": 60, "velocity": 97, "duration": 191}, {"note": 0, "velocity": 0, "duration": 289}, {"note": 60, "velocity": 112, "duration": 154}, {"note": 0, "velocity": 0, "duration": 86}, {"note": 67, "velocity": 93, "duration": 169}, {"note": 0, "velocity": 0, "duration": 71}, {"note": 65, "velocity": 93, "duration": 598}, {"note": 0, "velocity": 0, "duration": 122}, {"note": 67, "velocity": 112, "duration": 138}, {"note": 0, "velocity": 0, "duration": 102}, {"note": 65, "velocity": 97, "duration": 227}, {"note": 0, "velocity": 0, "duration": 178}, {"note": 67, "velocity": 107, "duration": 312}, {"note": 58, "velocity": 100, "duration": 275}, {"note": 60, "velocity": 92, "duration": 818}, {"note": 0, "velocity": 0, "duration": 246}, {"note": 60, "velocity": 100, "duration": 334}, {"note": 63, "velocity": 117, "duration": 2565}]]