[[{"note": 64, "velocity": 82, "duration": 104}, {"note": 73, "velocity": 93, "duration": 89}, {"note": 71, "velocity": 76, "duration": 78}, {"note": 73, "velocity": 97, "duration": 202}, {"note": 71, "velocity": 83, "duration": 159}, {"note": 0, "velocity": 0, "duration": 81}, {"note": 69, "velocity": 82, "duration": 134}, {"note": 64, "velocity": 73, "duration": 640}, {"note": 0, "velocity": 0, "duration": 320}, {"note": 64, "velocity": 69, "duration": 88}, {"note": 66, "velocity": 77, "duration": 99}, {"note": 69, "velocity": 63, "duration": 70}, {"note": 71, "velocity": 89, "duration": 85}, {"note": 0, "velocity": 0, "duration": 88}, {"note": 73, "velocity": 102, "duration": 85}, {"note": 0, "velocity": 0, "duration": 102}, {"note": 66, "velocity": 82, "duration": 152}, {"note": 0, "velocity": 0, "duration": 88}, {"note": 69, "velocity": 75, "duration": 751}, {"note": 0, "velocity": 0, "duration": 209}, {"note": 66, "velocity": 71, "duration": 38}, {"note": 0, "velocity": 0, "duration": 82}, {"note": 74, "velocity": 95, "duration": 85}, {"note": 73, "velocity": 99, "duration": 48}, {"note": 0, "velocity": 0, "duration": 72}, {"note": 74, "velocity": 97, "duration": 161}, {"note": 0, "velocity": 0, "duration": 79}, {"note": 69, "velocity": 88, "duration": 78}, {"note": 69, "velocity": 93, "duration": 207}, {"note": 66, "velocity": 92, "duration": 552}, {"note": 0, "velocity": 0, "duration": 408}, {"note": 64, "velocity": 77, "duration": 114}, {"note": 66, "velocity": 78, "duration": 99}, {"note": 64, "velocity": 78, "duration": 103}, {"note": 73, "velocity": 95, "duration": 151}, {"note": 0, "velocity": 0, "duration": 89}, {"note": 76, "velocity": 71, "duration": 217}, {"note": 69, "velocity": 82, "duration": 156}, {"note": 71, "velocity": 71, "duration": 749}, {"note": 0, "velocity": 0, "duration": 211}, {"note": 64, "velocity": 82, "duration": 104}, {"note": 73, "velocity": 93, "duration": 89}, {"note": 71, "velocity": 76, "duration": 78}, {"note": 73, "velocity": 97, "duration": 202}, {"note": 71, "velocity": 83, "duration": 159}, {"note": 0, "velocity": 0, "duration": 81}, {"note": 69, "velocity": 82, "duration": 134}, {"note": 64, "velocity": 73, "duration": 462}, {"note": 0, "velocity": 0, "duration": 138}, {"note": 64, "velocity": 83, "duration": 61}, {"note": 64, "velocity": 86, "duration": 70}, {"note": 73, "velocity": 112, "duration": 124}, {"note": 76, "velocity": 90, "duration": 51}, {"note": 0, "velocity": 0, "duration": 69}, {"note": 76, "velocity": 92, "duration": 60}, {"note": 73, "velocity": 96, "duration": 69}, {"note": 78, "velocity": 127, "duration": 167}, {"note": 0, "velocity": 0, "duration": 73}, {"note": 76, "velocity": 100, "duration": 52}, {"note": 0, "velocity": 0, "duration": 68}, {"note": 73, "velocity": 112, "duration": 206}, {"note": 0, "velocity": 0, "duration": 69}, {"note": 71, "velocity": 85, "duration": 46}, {"note": 0, "velocity": 0, "duration": 74}, {"note": 71, "velocity": 90, "duration": 126}, {"note": 0, "velocity": 0, "duration": 79}, {"note": 69, "velocity": 70, "duration": 178}, {"note": 0, "velocity": 0, "duration": 62}, {"note": 69, "velocity": 95, "duration": 87}, {"note": 66, "velocity": 92, "duration": 56}, {"note": 0, "velocity": 0, "duration": 64}, {"note": 71, "velocity": 99, "duration": 89}, {"note": 71, "velocity": 112, "duration": 87}, {"note": 0, "velocity": 0, "duration": 153}, {"note": 69, "velocity": 78, "duration": 74}, {"note": 71, "velocity": 89, "duration": 110}, {"note": 71, "velocity": 88, "duration": 102}, {"note": 71, "velocity": 82, "duration": 45}, {"note": 0, "velocity": 0, "duration": 75}, {"note": 73, "velocity": 90, "duration": 109}, {"note": 71, "velocity": 77, "duration": 148}, {"note": 0, "velocity": 0, "duration": 92}, {"note": 66, "velocity": 79, "duration": 264}, {"note": 0, "velocity": 0, "duration": 336}, {"note": 64, "velocity": 85, "duration": 125}, {"note": 78, "velocity": 122, "duration": 135}, {"note": 76, "velocity": 96, "duration": 143}, {"note": 0, "velocity": 0, "duration": 97}, {"note": 76, "velocity": 100, "duration": 79}, {"note": 76, "velocity": 117, "duration": 140}, {"note": 76, "velocity": 100, "duration": 20}, {"note": 0, "velocity": 0, "duration": 220}, {"note": 73, "velocity": 100, "duration": 49}, {"note": 0, "velocity": 0, "duration": 71}, {"note": 78, "velocity": 122, "duration": 269}, {"note": 0, "velocity": 0, "duration": 91}, {"note": 76, "velocity": 102, "duration": 199}, {"note": 69, "velocity": 93, "duration": 76}, {"note": 71, "velocity": 100, "duration": 66}, {"note": 73, "velocity": 112, "duration": 65}, {"note": 76, "velocity": 127, "duration": 479}, {"note": 73, "velocity": 127, "duration": 173}, {"note": 0, "velocity": 0, "duration": 67}, {"note": 71, "velocity": 83, "duration": 91}, {"note": 73, "velocity": 107, "duration": 535}, {"note": 0, "velocity": 0, "duration": 185}, {"note": 73, "velocity": 99, "duration": 56}, {"note": 0, "velocity": 0, "duration": 64}, {"note": 76, "velocity": 96, "duration": 54}, {"note": 0, "velocity": 0, "duration": 66}, {"note": 73, "velocity": 100, "duration": 46}, {"note": 0, "velocity": 0, "duration": 74}, {"note": 78, "velocity": 122, "duration": 91}, {"note": 76, "velocity": 96, "duration": 49}, {"note": 0, "velocity": 0, "duration": 71}, {"note": 76, "velocity": 93, "duration": 50}, {"note": 0, "velocity": 0, "duration": 70}, {"note": 76, "velocity": 93, "duration": 51}, {"note": 0, "velocity": 0, "duration": 69}, {"note": 73, "velocity": 117, "duration": 201}, {"note": 71, "velocity": 93, "duration": 132}, {"note": 73, "velocity": 82, "duration": 167}, {"note": 0, "velocity": 0, "duration": 73}, {"note": 69, "velocity": 82, "duration": 393}, {"note": 0, "velocity": 0, "duration": 87}, {"note": 66, "velocity": 90, "duration": 76}, {"note": 69, "velocity": 79, "duration": 87}, {"note": 66, "velocity": 95, "duration": 105}, {"note": 73, "velocity": 96, "duration": 212}, {"note": 71, "velocity": 89, "duration": 246}, {"note": 0, "velocity": 0, "duration": 114}, {"note": 69, "velocity": 85, "duration": 61}, {"note": 71, "velocity": 89, "duration": 62}, {"note": 69, "velocity": 81, "duration": 124}, {"note": 73, "velocity": 100, "duration": 205}, {"note": 76, "velocity": 89, "duration": 279}, {"note": 0, "velocity": 0, "duration": 321}, {"note": 76, "velocity": 86, "duration": 109}, {"note": 78, "velocity": 89, "duration": 57}, {"note": 0, "velocity": 0, "duration": 63}, {"note": 78, "velocity": 99, "duration": 53}, {"note": 0, "velocity": 0, "duration": 67}, {"note": 78, "velocity": 99, "duration": 75}, {"note": 76, "velocity": 76, "duration": 139}, {"note": 78, "velocity": 117, "duration": 138}, {"note": 0, "velocity": 0, "duration": 102}, {"note": 76, "velocity": 96, "duration": 56}, {"note": 0, "velocity": 0, "duration": 64}, {"note": 73, "velocity": 99, "duration": 163}, {"note": 0, "velocity": 0, "duration": 77}, {"note": 71, "velocity": 97, "duration": 363}, {"note": 0, "velocity": 0, "duration": 117}, {"note": 69, "velocity": 93, "duration": 76}, {"note": 71, "velocity": 100, "duration": 66}, {"note": 73, "velocity": 112, "duration": 65}, {"note": 76, "velocity": 127, "duration": 479}, {"note": 73, "velocity": 127, "duration": 173}, {"note": 0, "velocity": 0, "duration": 67}, {"note": 71, "velocity": 83, "duration": 91}, {"note": 73, "velocity": 107, "duration": 535}, {"note": 0, "velocity": 0, "duration": 185}, {"note": 73, "velocity": 99, "duration": 56}, {"note": 0, "velocity": 0, "duration": 64}, {"note": 76, "velocity": 96, "duration": 54}, {"note": 0, "velocity": 0, "duration": 66}, {"note": 73, "velocity": 100, "duration": 46}, {"note": 0, "velocity": 0, "duration": 74}, {"note": 78, "velocity": 122, "duration": 91}, {"note": 76, "velocity": 96, "duration": 49}, {"note": 0, "velocity": 0, "duration": 71}, {"note": 76, "velocity": 93, "duration": 50}, {"note": 0, "velocity": 0, "duration": 70}, {"note": 76, "velocity": 93, "duration": 51}, {"note": 0, "velocity": 0, "duration": 69}, {"note": 73, "velocity": 117, "duration": 201}, {"note": 71, "velocity": 93, "duration": 132}, {"note": 73, "velocity": 82, "duration": 167}, {"note": 0, "velocity": 0, "duration": 73}, {"note": 69, "velocity": 82, "duration": 393}, {"note": 0, "velocity": 0, "duration": 87}, {"note": 66, "velocity": 90, "duration": 76}, {"note": 69, "velocity": 79, "duration": 87}, {"note": 66, "velocity": 95, "duration": 105}, {"note": 73, "velocity": 96, "duration": 212}, {"note": 71, "velocity": 89, "duration": 246}, {"note": 0, "velocity": 0, "duration": 114}, {"note": 69, "velocity": 85, "duration": 61}, {"note": 71, "velocity": 89, "duration": 62}, {"note": 69, "velocity": 81, "duration": 124}, {"note": 73, "velocity": 100, "duration": 205}, {"note": 76, "velocity": 89, "duration": 279}, {"note": 0, "velocity": 0, "duration": 321}, {"note": 76, "velocity": 86, "duration": 109}, {"note": 78, "velocity": 89, "duration": 57}, {"note": 0, "velocity": 0, "duration": 63}, {"note": 78, "velocity": 99, "duration": 53}, {"note": 0, "velocity": 0, "duration": 67}, {"note": 78, "velocity": 99, "duration": 75}, {"note": 76, "velocity": 76, "duration": 139}, {"note": 78, "velocity": 117, "duration": 138}, {"note": 0, "velocity": 0, "duration": 102}, {"note": 76, "velocity": 96, "duration": 56}, {"note": 0, "velocity": 0, "duration": 64}, {"note": 73, "velocity": 99, "duration": 163}, {"note": 0, "velocity": 0, "duration": 77}, {"note": 71, "velocity": 97, "duration": 363}, {"note": 66, "velocity": 89, "duration": 205}, {"note": 69, "velocity": 85, "duration": 145}, {"note": 0, "velocity": 0, "duration": 95}, {"note": 71, "velocity": 96, "duration": 330}, {"note": 69, "velocity": 81, "duration": 760}, {"note": 0, "velocity": 0, "duration": 8600}, {"note": 64, "velocity": 82, "duration": 104}, {"note": 73, "velocity": 93, "duration": 89}, {"note": 71, "velocity": 76, "duration": 78}, {"note": 73, "velocity": 97, "duration": 202}, {"note": 71, "velocity": 83, "duration": 159}, {"note": 0, "velocity": 0, "duration": 81}, {"note": 69, "velocity": 82, "duration": 134}, {"note": 64, "velocity": 73, "duration": 462}, {"note": 0, "velocity": 0, "duration": 138}, {"note": 64, "velocity": 83, "duration": 61}, {"note": 64, "velocity": 86, "duration": 70}, {"note": 73, "velocity": 112, "duration": 124}, {"note": 76, "velocity": 90, "duration": 51}, {"note": 0, "velocity": 0, "duration": 69}, {"note": 76, "velocity": 92, "duration": 60}, {"note": 73, "velocity": 96, "duration": 69}, {"note": 78, "velocity": 127, "duration": 167}, {"note": 0, "velocity": 0, "duration": 73}, {"note": 76, "velocity": 100, "duration": 52}, {"note": 0, "velocity": 0, "duration": 68}, {"note": 73, "velocity": 112, "duration": 206}, {"note": 0, "velocity": 0, "duration": 69}, {"note": 71, "velocity": 85, "duration": 46}, {"note": 0, "velocity": 0, "duration": 74}, {"note": 71, "velocity": 90, "duration": 126}, {"note": 0, "velocity": 0, "duration": 79}, {"note": 69, "velocity": 70, "duration": 178}, {"note": 0, "velocity": 0, "duration": 62}, {"note": 69, "velocity": 95, "duration": 87}, {"note": 66, "velocity": 92, "duration": 56}, {"note": 0, "velocity": 0, "duration": 64}, {"note": 71, "velocity": 99, "duration": 89}, {"note": 71, "velocity": 112, "duration": 87}, {"note": 0, "velocity": 0, "duration": 153}, {"note": 69, "velocity": 78, "duration": 74}, {"note": 71, "velocity": 89, "duration": 110}, {"note": 71, "velocity": 88, "duration": 102}, {"note": 71, "velocity": 82, "duration": 45}, {"note": 0, "velocity": 0, "duration": 75}, {"note": 73, "velocity": 90, "duration": 109}, {"note": 71, "velocity": 77, "duration": 148}, {"note": 0, "velocity": 0, "duration": 92}, {"note": 66, "velocity": 79, "duration": 264}, {"note": 0, "velocity": 0, "duration": 336}, {"note": 64, "velocity": 85, "duration": 125}, {"note": 78, "velocity": 122, "duration": 135}, {"note": 76, "velocity": 96, "duration": 143}, {"note": 0, "velocity": 0, "duration": 97}, {"note": 76, "velocity": 100, "duration": 79}, {"note": 76, "velocity": 117, "duration": 140}, {"note": 76, "velocity": 100, "duration": 20}, {"note": 0, "velocity": 0, "duration": 220}, {"note": 73, "velocity": 100, "duration": 49}, {"note": 0, "velocity": 0, "duration": 71}, {"note": 78, "velocity": 122, "duration": 269}, {"note": 0, "velocity": 0, "duration": 91}, {"note": 76, "velocity": 102, "duration": 199}, {"note": 69, "velocity": 93, "duration": 76}, {"note": 71, "velocity": 100, "duration": 66}, {"note": 73, "velocity": 112, "duration": 65}, {"note": 76, "velocity": 127, "duration": 479}, {"note": 73, "velocity": 127, "duration": 173}, {"note": 0, "velocity": 0, "duration": 67}, {"note": 71, "velocity": 83, "duration": 91}, {"note": 73, "velocity": 107, "duration": 535}, {"note": 0, "velocity": 0, "duration": 185}, {"note": 73, "velocity": 99, "duration": 56}, {"note": 0, "velocity": 0, "duration": 64}, {"note": 76, "velocity": 96, "duration": 54}, {"note": 0, "velocity": 0, "duration": 66}, {"note": 73, "velocity": 100, "duration": 46}, {"note": 0, "velocity": 0, "duration": 74}, {"note": 78, "velocity": 122, "duration": 91}, {"note": 76, "velocity": 96, "duration": 49}, {"note": 0, "velocity": 0, "duration": 71}, {"note": 76, "velocity": 93, "duration": 50}, {"note": 0, "velocity": 0, "duration": 70}, {"note": 76, "velocity": 93, "duration": 51}, {"note": 0, "velocity": 0, "duration": 69}, {"note": 73, "velocity": 117, "duration": 201}, {"note": 71, "velocity": 93, "duration": 132}, {"note": 73, "velocity": 82, "duration": 167}, {"note": 0, "velocity": 0, "duration": 73}, {"note": 69, "velocity": 82, "duration": 393}, {"note": 0, "velocity": 0, "duration": 87}, {"note": 66, "velocity": 90, "duration": 76}, {"note": 69, "velocity": 79, "duration": 87}, {"note": 66, "velocity": 95, "duration": 105}, {"note": 73, "velocity": 96, "duration": 212}, {"note": 71, "velocity": 89, "duration": 246}, {"note": 0, "velocity": 0, "duration": 114}, {"note": 69, "velocity": 85, "duration": 61}, {"note": 71, "velocity": 89, "duration": 62}, {"note": 69, "velocity": 81, "duration": 124}, {"note": 73, "velocity": 100, "duration": 205}, {"note": 76, "velocity": 89, "duration": 279}, {"note": 0, "velocity": 0, "duration": 321}, {"note": 76, "velocity": 86, "duration": 109}, {"note": 78, "velocity": 89, "duration": 57}, {"note": 0, "velocity": 0, "duration": 63}, {"note": 78, "velocity": 99, "duration": 53}, {"note": 0, "velocity": 0, "duration": 67}, {"note": 78, "velocity": 99, "duration": 75}, {"note": 76, "velocity": 76, "duration": 139}, {"note": 78, "velocity": 117, "duration": 138}, {"note": 0, "velocity": 0, "duration": 102}, {"note": 76, "velocity": 96, "duration": 56}, {"note": 0, "velocity": 0, "duration": 64}, {"note": 73, "velocity": 99, "duration": 163}, {"note": 0, "velocity": 0, "duration": 77}, {"note": 71, "velocity": 97, "duration": 363}, {"note": 0, "velocity": 0, "duration": 117}, {"note": 69, "velocity": 93, "duration": 76}, {"note": 71, "velocity": 100, "duration": 66}, {"note": 73, "velocity": 112, "duration": 65}, {"note": 76, "velocity": 127, "duration": 479}, {"note": 73, "velocity": 127, "duration": 173}, {"note": 0, "velocity": 0, "duration": 67}, {"note": 71, "velocity": 83, "duration": 91}, {"note": 73, "velocity": 107, "duration": 535}, {"note": 0, "velocity": 0, "duration": 185}, {"note": 73, "velocity": 99, "duration": 56}, {"note": 0, "velocity": 0, "duration": 64}, {"note": 76, "velocity": 96, "duration": 54}, {"note": 0, "velocity": 0, "duration": 66}, {"note": 73, "velocity": 100, "duration": 46}, {"note": 0, "velocity": 0, "duration": 74}, {"note": 78, "velocity": 122, "duration": 91}, {"note": 76, "velocity": 96, "duration": 49}, {"note": 0, "velocity": 0, "duration": 71}, {"note": 76, "velocity": 93, "duration": 50}, {"note": 0, "velocity": 0, "duration": 70}, {"note": 76, "velocity": 93, "duration": 51}, {"note": 0, "velocity": 0, "duration": 69}, {"note": 73, "velocity": 117, "duration": 201}, {"note": 71, "velocity": 93, "duration": 132}, {"note": 73, "velocity": 82, "duration": 167}, {"note": 0, "velocity": 0, "duration": 73}, {"note": 69, "velocity": 82, "duration": 393}, {"note": 0, "velocity": 0, "duration": 87}, {"note": 66, "velocity": 90, "duration": 76}, {"note": 69, "velocity": 79, "duration": 87}, {"note": 66, "velocity": 95, "duration": 105}, {"note": 73, "velocity": 96, "duration": 212}, {"note": 71, "velocity": 89, "duration": 246}, {"note": 0, "velocity": 0, "duration": 114}, {"note": 69, "velocity": 85, "duration": 61}, {"note": 71, "velocity": 89, "duration": 62}, {"note": 69, "velocity": 81, "duration": 124}, {"note": 73, "velocity": 100, "duration": 205}, {"note": 76, "velocity": 89, "duration": 279}, {"note": 0, "velocity": 0, "duration": 321}, {"note": 76, "velocity": 86, "duration": 109}, {"note": 78, "velocity": 89, "duration": 57}, {"note": 0, "velocity": 0, "duration": 63}, {"note": 78, "velocity": 99, "duration": 53}, {"note": 0, "velocity": 0, "duration": 67}, {"note": 78, "velocity": 99, "duration": 75}, {"note": 76, "velocity": 76, "duration": 139}, {"note": 78, "velocity": 117, "duration": 138}, {"note": 0, "velocity": 0, "duration": 102}, {"note": 76, "velocity": 96, "duration": 56}, {"note": 0, "velocity": 0, "duration": 64}, {"note": 73, "velocity": 99, "duration": 163}, {"note": 0, "velocity": 0, "duration": 77}, {"note": 71, "velocity": 97, "duration": 363}, {"note": 66, "velocity": 89, "duration": 205}, {"note": 69, "velocity": 85, "duration": 145}, {"note": 0, "velocity": 0, "duration": 95}, {"note": 71, "velocity": 96, "duration": 330}, {"note": 69, "velocity": 81, "duration": 760}, {"note": 0, "velocity": 0, "duration": 440}, {"note": 69, "velocity": 93, "duration": 76}, {"note": 71, "velocity": 100, "duration": 66}, {"note": 73, "velocity": 112, "duration": 65}, {"note": 76, "velocity": 127, "duration": 479}, {"note": 73, "velocity": 127, "duration": 173}, {"note": 0, "velocity": 0, "duration": 67}, {"note": 71, "velocity": 83, "duration": 91}, {"note": 73, "velocity": 107, "duration": 535}, {"note": 0, "velocity": 0, "duration": 185}, {"note": 73, "velocity": 99, "duration": 56}, {"note": 0, "velocity": 0, "duration": 64}, {"note": 76, "velocity": 96, "duration": 54}, {"note": 0, "velocity": 0, "duration": 66}, {"note": 73, "velocity": 100, "duration": 46}, {"note": 0, "velocity": 0, "duration": 74}, {"note": 78, "velocity": 122, "duration": 91}, {"note": 76, "velocity": 96, "duration": 49}, {"note": 0, "velocity": 0, "duration": 71}, {"note": 76, "velocity": 93, "duration": 50}, {"note": 0, "velocity": 0, "duration": 70}, {"note": 76, "velocity": 93, "duration": 51}, {"note": 0, "velocity": 0, "duration": 69}, {"note": 73, "velocity": 117, "duration": 201}, {"note": 71, "velocity": 93, "duration": 132}, {"note": 73, "velocity": 82, "duration": 167}, {"note": 0, "velocity": 0, "duration": 73}, {"note": 69, "velocity": 82, "duration": 393}, {"note": 0, "velocity": 0, "duration": 87}, {"note": 66, "velocity": 90, "duration": 76}, {"note": 69, "velocity": 79, "duration": 87}, {"note": 66, "velocity": 95, "duration": 105}, {"note": 73, "velocity": 96, "duration": 212}, {"note": 71, "velocity": 89, "duration": 246}, {"note": 0, "velocity": 0, "duration": 114}, {"note": 69, "velocity": 85, "duration": 61}, {"note": 71, "velocity": 89, "duration": 62}, {"note": 69, "velocity": 81, "duration": 124}, {"note": 73, "velocity": 100, "duration": 205}, {"note": 76, "velocity": 89, "duration": 279}, {"note": 0, "velocity": 0, "duration": 321}, {"note": 76, "velocity": 86, "duration": 109}, {"note": 78, "velocity": 89, "duration": 57}, {"note": 0, "velocity": 0, "duration": 63}, {"note": 78, "velocity": 99, "duration": 53}, {"note": 0, "velocity": 0, "duration": 67}, {"note": 78, "velocity": 99, "duration": 75}, {"note": 76, "velocity": 76, "duration": 139}, {"note": 78, "velocity": 117, "duration": 138}, {"note": 0, "velocity": 0, "duration": 102}, {"note": 76, "velocity": 96, "duration": 56}, {"note": 0, "velocity": 0, "duration": 64}, {"note": 73, "velocity": 99, "duration": 163}, {"note": 0, "velocity": 0, "duration": 77}, {"note": 71, "velocity": 97, "duration": 363}, {"note": 0, "velocity": 0, "duration": 117}, {"note": 69, "velocity": 93, "duration": 76}, {"note": 71, "velocity": 100, "duration": 66}, {"note": 73, "velocity": 112, "duration": 65}, {"note": 76, "velocity": 127, "duration": 479}, {"note": 73, "velocity": 127, "duration": 173}, {"note": 0, "velocity": 0, "duration": 67}, {"note": 71, "velocity": 83, "duration": 91}, {"note": 73, "velocity": 107, "duration": 535}, {"note": 0, "velocity": 0, "duration": 185}, {"note": 73, "velocity": 99, "duration": 56}, {"note": 0, "velocity": 0, "duration": 64}, {"note": 76, "velocity": 96, "duration": 54}, {"note": 0, "velocity": 0, "duration": 66}, {"note": 73, "velocity": 100, "duration": 46}, {"note": 0, "velocity": 0, "duration": 74}, {"note": 78, "velocity": 122, "duration": 91}, {"note": 76, "velocity": 96, "duration": 49}, {"note": 0, "velocity": 0, "duration": 71}, {"note": 76, "velocity": 93, "duration": 50}, {"note": 0, "velocity": 0, "duration": 70}, {"note": 76, "velocity": 93, "duration": 51}, {"note": 0, "velocity": 0, "duration": 69}, {"note": 73, "velocity": 117, "duration": 201}, {"note": 71, "velocity": 93, "duration": 132}, {"note": 73, "velocity": 82, "duration": 167}, {"note": 0, "velocity": 0, "duration": 73}, {"note": 69, "velocity": 82, "duration": 393}, {"note": 0, "velocity": 0, "duration": 87}, {"note": 66, "velocity": 90, "duration": 76}, {"note": 69, "velocity": 79, "duration": 87}, {"note": 66, "velocity": 95, "duration": 105}, {"note": 73, "velocity": 96, "duration": 212}, {"note": 71, "velocity": 89, "duration": 246}, {"note": 0, "velocity": 0, "duration": 114}, {"note": 69, "velocity": 85, "duration": 61}, {"note": 71, "velocity": 89, "duration": 62}, {"note": 69, "velocity": 81, "duration": 124}, {"note": 73, "velocity": 100, "duration": 205}, {"note": 76, "velocity": 89, "duration": 279}, {"note": 0, "velocity": 0, "duration": 321}, {"note": 76, "velocity": 86, "duration": 109}, {"note": 78, "velocity": 89, "duration": 57}, {"note": 0, "velocity": 0, "duration": 63}, {"note": 78, "velocity": 99, "duration": 53}, {"note": 0, "velocity": 0, "duration": 67}, {"note": 78, "velocity": 99, "duration": 75}, {"note": 76, "velocity": 76, "duration": 139}, {"note": 78, "velocity": 117, "duration": 138}, {"note": 0, "velocity": 0, "duration": 102}, {"note": 76, "velocity": 96, "duration": 56}, {"note": 0, "velocity": 0, "duration": 64}, {"note": 73, "velocity": 99, "duration": 163}, {"note": 0, "velocity": 0, "duration": 77}, {"note": 71, "velocity": 97, "duration": 363}, {"note": 66, "velocity": 89, "duration": 205}, {"note": 69, "velocity": 85, "duration": 145}, {"note": 0, "velocity": 0, "duration": 95}, {"note": 71, "velocity": 96, "duration": 330}, {"note": 69, "velocity": 81, "duration": 760}, {"note": 0, "velocity": 0, "duration": 800}, {"note": 76, "velocity": 127, "duration": 2015}]]