[[{"note": 63, "velocity": 73, "duration": 114}, {"note": 68, "velocity": 79, "duration": 93}, {"note": 71, "velocity": 67, "duration": 153}, {"note": 70, "velocity": 86, "duration": 317}, {"note": 66, "velocity": 89, "duration": 366}, {"note": 63, "velocity": 79, "duration": 236}, {"note": 68, "velocity": 67, "duration": 386}, {"note": 63, "velocity": 89, "duration": 197}, {"note": 63, "velocity": 88, "duration": 989}, {"note": 0, "velocity": 0, "duration": 1051}, {"note": 63, "velocity": 72, "duration": 107}, {"note": 68, "velocity": 60, "duration": 130}, {"note": 71, "velocity": 72, "duration": 152}, {"note": 70, "velocity": 99, "duration": 319}, {"note": 66, "velocity": 90, "duration": 292}, {"note": 0, "velocity": 0, "duration": 68}, {"note": 63, "velocity": 92, "duration": 509}, {"note": 68, "velocity": 86, "duration": 862}, {"note": 0, "velocity": 0, "duration": 1418}, {"note": 63, "velocity": 69, "duration": 139}, {"note": 68, "velocity": 56, "duration": 115}, {"note": 71, "velocity": 66, "duration": 165}, {"note": 70, "velocity": 96, "duration": 423}, {"note": 75, "velocity": 97, "duration": 361}, {"note": 70, "velocity": 86, "duration": 270}, {"note": 68, "velocity": 75, "duration": 457}, {"note": 73, "velocity": 97, "duration": 270}, {"note": 0, "velocity": 0, "duration": 90}, {"note": 68, "velocity": 92, "duration": 276}, {"note": 66, "velocity": 82, "duration": 532}, {"note": 0, "velocity": 0, "duration": 308}, {"note": 63, "velocity": 90, "duration": 123}, {"note": 64, "velocity": 76, "duration": 257}, {"note": 66, "velocity": 66, "duration": 165}, {"note": 68, "velocity": 86, "duration": 837}, {"note": 0, "velocity": 0, "duration": 483}, {"note": 63, "velocity": 79, "duration": 369}, {"note": 0, "velocity": 0, "duration": 111}, {"note": 63, "velocity": 82, "duration": 1137}, {"note": 0, "velocity": 0, "duration": 1143}, {"note": 63, "velocity": 73, "duration": 114}, {"note": 68, "velocity": 79, "duration": 93}, {"note": 71, "velocity": 67, "duration": 153}, {"note": 70, "velocity": 86, "duration": 317}, {"note": 66, "velocity": 89, "duration": 366}, {"note": 63, "velocity": 79, "duration": 236}, {"note": 68, "velocity": 67, "duration": 386}, {"note": 63, "velocity": 89, "duration": 197}, {"note": 63, "velocity": 88, "duration": 989}, {"note": 0, "velocity": 0, "duration": 1051}, {"note": 63, "velocity": 72, "duration": 107}, {"note": 68, "velocity": 60, "duration": 130}, {"note": 71, "velocity": 72, "duration": 152}, {"note": 70, "velocity": 99, "duration": 319}, {"note": 66, "velocity": 90, "duration": 292}, {"note": 0, "velocity": 0, "duration": 68}, {"note": 70, "velocity": 92, "duration": 358}, {"note": 0, "velocity": 0, "duration": 122}, {"note": 68, "velocity": 97, "duration": 723}, {"note": 0, "velocity": 0, "duration": 1557}, {"note": 63, "velocity": 69, "duration": 139}, {"note": 68, "velocity": 56, "duration": 115}, {"note": 71, "velocity": 66, "duration": 165}, {"note": 70, "velocity": 96, "duration": 423}, {"note": 75, "velocity": 97, "duration": 361}, {"note": 70, "velocity": 86, "duration": 270}, {"note": 68, "velocity": 75, "duration": 192}, {"note": 66, "velocity": 93, "duration": 100}, {"note": 68, "velocity": 90, "duration": 165}, {"note": 0, "velocity": 0, "duration": 75}, {"note": 71, "velocity": 96, "duration": 216}, {"note": 0, "velocity": 0, "duration": 144}, {"note": 66, "velocity": 82, "duration": 532}, {"note": 0, "velocity": 0, "duration": 308}, {"note": 63, "velocity": 90, "duration": 123}, {"note": 64, "velocity": 76, "duration": 257}, {"note": 66, "velocity": 66, "duration": 165}, {"note": 68, "velocity": 86, "duration": 837}, {"note": 0, "velocity": 0, "duration": 603}, {"note": 63, "velocity": 78, "duration": 96}, {"note": 67, "velocity": 76, "duration": 54}, {"note": 0, "velocity": 0, "duration": 66}, {"note": 67, "velocity": 70, "duration": 53}, {"note": 0, "velocity": 0, "duration": 67}, {"note": 67, "velocity": 72, "duration": 48}, {"note": 0, "velocity": 0, "duration": 72}, {"note": 68, "velocity": 127, "duration": 156}, {"note": 0, "velocity": 0, "duration": 84}, {"note": 70, "velocity": 122, "duration": 129}, {"note": 0, "velocity": 0, "duration": 111}, {"note": 68, "velocity": 90, "duration": 81}, {"note": 75, "velocity": 100, "duration": 208}, {"note": 73, "velocity": 102, "duration": 193}, {"note": 71, "velocity": 96, "duration": 172}, {"note": 0, "velocity": 0, "duration": 68}, {"note": 73, "velocity": 117, "duration": 160}, {"note": 0, "velocity": 0, "duration": 80}, {"note": 75, "velocity": 122, "duration": 186}, {"note": 68, "velocity": 95, "duration": 189}, {"note": 75, "velocity": 112, "duration": 155}, {"note": 0, "velocity": 0, "duration": 85}, {"note": 68, "velocity": 99, "duration": 162}, {"note": 0, "velocity": 0, "duration": 78}, {"note": 75, "velocity": 127, "duration": 138}, {"note": 0, "velocity": 0, "duration": 102}, {"note": 76, "velocity": 96, "duration": 59}, {"note": 0, "velocity": 0, "duration": 61}, {"note": 76, "velocity": 95, "duration": 170}, {"note": 0, "velocity": 0, "duration": 190}, {"note": 76, "velocity": 88, "duration": 127}, {"note": 75, "velocity": 85, "duration": 154}, {"note": 73, "velocity": 100, "duration": 159}, {"note": 0, "velocity": 0, "duration": 81}, {"note": 66, "velocity": 99, "duration": 180}, {"note": 73, "velocity": 117, "duration": 125}, {"note": 0, "velocity": 0, "duration": 115}, {"note": 66, "velocity": 102, "duration": 161}, {"note": 0, "velocity": 0, "duration": 79}, {"note": 73, "velocity": 122, "duration": 195}, {"note": 75, "velocity": 112, "duration": 65}, {"note": 75, "velocity": 112, "duration": 186}, {"note": 0, "velocity": 0, "duration": 174}, {"note": 75, "velocity": 117, "duration": 87}, {"note": 73, "velocity": 107, "duration": 114}, {"note": 71, "velocity": 100, "duration": 120}, {"note": 0, "velocity": 0, "duration": 120}, {"note": 64, "velocity": 99, "duration": 190}, {"note": 71, "velocity": 122, "duration": 133}, {"note": 0, "velocity": 0, "duration": 107}, {"note": 64, "velocity": 100, "duration": 177}, {"note": 0, "velocity": 0, "duration": 63}, {"note": 73, "velocity": 127, "duration": 167}, {"note": 0, "velocity": 0, "duration": 73}, {"note": 71, "velocity": 92, "duration": 75}, {"note": 70, "velocity": 96, "duration": 216}, {"note": 71, "velocity": 102, "duration": 119}, {"note": 0, "velocity": 0, "duration": 241}, {"note": 70, "velocity": 122, "duration": 53}, {"note": 0, "velocity": 0, "duration": 67}, {"note": 70, "velocity": 95, "duration": 53}, {"note": 0, "velocity": 0, "duration": 67}, {"note": 70, "velocity": 112, "duration": 57}, {"note": 0, "velocity": 0, "duration": 63}, {"note": 68, "velocity": 102, "duration": 144}, {"note": 0, "velocity": 0, "duration": 96}, {"note": 70, "velocity": 117, "duration": 145}, {"note": 0, "velocity": 0, "duration": 95}, {"note": 63, "velocity": 99, "duration": 82}, {"note": 70, "velocity": 112, "duration": 48}, {"note": 0, "velocity": 0, "duration": 72}, {"note": 70, "velocity": 96, "duration": 49}, {"note": 0, "velocity": 0, "duration": 71}, {"note": 70, "velocity": 102, "duration": 60}, {"note": 71, "velocity": 100, "duration": 109}, {"note": 0, "velocity": 0, "duration": 131}, {"note": 73, "velocity": 127, "duration": 94}, {"note": 0, "velocity": 0, "duration": 266}, {"note": 75, "velocity": 122, "duration": 44}, {"note": 0, "velocity": 0, "duration": 76}, {"note": 75, "velocity": 82, "duration": 40}, {"note": 0, "velocity": 0, "duration": 80}, {"note": 75, "velocity": 102, "duration": 49}, {"note": 0, "velocity": 0, "duration": 71}, {"note": 75, "velocity": 107, "duration": 44}, {"note": 0, "velocity": 0, "duration": 76}, {"note": 75, "velocity": 107, "duration": 105}, {"note": 0, "velocity": 0, "duration": 135}, {"note": 68, "velocity": 107, "duration": 153}, {"note": 0, "velocity": 0, "duration": 87}, {"note": 75, "velocity": 127, "duration": 97}, {"note": 0, "velocity": 0, "duration": 143}, {"note": 76, "velocity": 95, "duration": 60}, {"note": 76, "velocity": 96, "duration": 110}, {"note": 0, "velocity": 0, "duration": 250}, {"note": 76, "velocity": 102, "duration": 104}, {"note": 75, "velocity": 95, "duration": 110}, {"note": 73, "velocity": 100, "duration": 126}, {"note": 0, "velocity": 0, "duration": 114}, {"note": 73, "velocity": 127, "duration": 58}, {"note": 0, "velocity": 0, "duration": 62}, {"note": 73, "velocity": 112, "duration": 111}, {"note": 0, "velocity": 0, "duration": 129}, {"note": 78, "velocity": 112, "duration": 262}, {"note": 0, "velocity": 0, "duration": 98}, {"note": 76, "velocity": 112, "duration": 201}, {"note": 75, "velocity": 100, "duration": 125}, {"note": 0, "velocity": 0, "duration": 115}, {"note": 73, "velocity": 112, "duration": 241}, {"note": 75, "velocity": 99, "duration": 193}, {"note": 71, "velocity": 97, "duration": 191}, {"note": 70, "velocity": 100, "duration": 144}, {"note": 71, "velocity": 86, "duration": 132}, {"note": 0, "velocity": 0, "duration": 108}, {"note": 64, "velocity": 97, "duration": 227}, {"note": 0, "velocity": 0, "duration": 493}, {"note": 64, "velocity": 96, "duration": 44}, {"note": 0, "velocity": 0, "duration": 76}, {"note": 64, "velocity": 89, "duration": 89}, {"note": 68, "velocity": 100, "duration": 111}, {"note": 71, "velocity": 82, "duration": 109}, {"note": 73, "velocity": 99, "duration": 126}, {"note": 70, "velocity": 112, "duration": 166}, {"note": 0, "velocity": 0, "duration": 74}, {"note": 70, "velocity": 112, "duration": 83}, {"note": 68, "velocity": 97, "duration": 174}, {"note": 0, "velocity": 0, "duration": 66}, {"note": 67, "velocity": 96, "duration": 1060}, {"note": 0, "velocity": 0, "duration": 9500}, {"note": 63, "velocity": 73, "duration": 114}, {"note": 68, "velocity": 79, "duration": 93}, {"note": 71, "velocity": 67, "duration": 153}, {"note": 70, "velocity": 86, "duration": 317}, {"note": 66, "velocity": 89, "duration": 366}, {"note": 63, "velocity": 79, "duration": 236}, {"note": 68, "velocity": 67, "duration": 386}, {"note": 63, "velocity": 89, "duration": 197}, {"note": 63, "velocity": 88, "duration": 989}, {"note": 0, "velocity": 0, "duration": 1051}, {"note": 63, "velocity": 72, "duration": 107}, {"note": 68, "velocity": 60, "duration": 130}, {"note": 71, "velocity": 72, "duration": 152}, {"note": 70, "velocity": 99, "duration": 319}, {"note": 66, "velocity": 90, "duration": 292}, {"note": 0, "velocity": 0, "duration": 68}, {"note": 70, "velocity": 92, "duration": 358}, {"note": 0, "velocity": 0, "duration": 122}, {"note": 68, "velocity": 97, "duration": 723}, {"note": 0, "velocity": 0, "duration": 1557}, {"note": 63, "velocity": 69, "duration": 139}, {"note": 68, "velocity": 56, "duration": 115}, {"note": 71, "velocity": 66, "duration": 165}, {"note": 70, "velocity": 96, "duration": 423}, {"note": 75, "velocity": 97, "duration": 361}, {"note": 70, "velocity": 86, "duration": 270}, {"note": 68, "velocity": 75, "duration": 192}, {"note": 66, "velocity": 93, "duration": 100}, {"note": 68, "velocity": 90, "duration": 165}, {"note": 0, "velocity": 0, "duration": 75}, {"note": 71, "velocity": 96, "duration": 216}, {"note": 0, "velocity": 0, "duration": 144}, {"note": 66, "velocity": 82, "duration": 532}, {"note": 0, "velocity": 0, "duration": 308}, {"note": 63, "velocity": 90, "duration": 123}, {"note": 64, "velocity": 76, "duration": 257}, {"note": 66, "velocity": 66, "duration": 165}, {"note": 68, "velocity": 86, "duration": 837}, {"note": 0, "velocity": 0, "duration": 603}, {"note": 63, "velocity": 78, "duration": 96}, {"note": 67, "velocity": 76, "duration": 54}, {"note": 0, "velocity": 0, "duration": 66}, {"note": 67, "velocity": 70, "duration": 53}, {"note": 0, "velocity": 0, "duration": 67}, {"note": 67, "velocity": 72, "duration": 48}, {"note": 0, "velocity": 0, "duration": 72}, {"note": 68, "velocity": 127, "duration": 156}, {"note": 0, "velocity": 0, "duration": 84}, {"note": 70, "velocity": 122, "duration": 129}, {"note": 0, "velocity": 0, "duration": 111}, {"note": 68, "velocity": 90, "duration": 81}, {"note": 75, "velocity": 100, "duration": 208}, {"note": 73, "velocity": 102, "duration": 193}, {"note": 71, "velocity": 96, "duration": 172}, {"note": 0, "velocity": 0, "duration": 68}, {"note": 73, "velocity": 117, "duration": 160}, {"note": 0, "velocity": 0, "duration": 80}, {"note": 75, "velocity": 122, "duration": 186}, {"note": 68, "velocity": 95, "duration": 189}, {"note": 75, "velocity": 112, "duration": 155}, {"note": 0, "velocity": 0, "duration": 85}, {"note": 68, "velocity": 99, "duration": 162}, {"note": 0, "velocity": 0, "duration": 78}, {"note": 75, "velocity": 127, "duration": 138}, {"note": 0, "velocity": 0, "duration": 102}, {"note": 76, "velocity": 96, "duration": 59}, {"note": 0, "velocity": 0, "duration": 61}, {"note": 76, "velocity": 95, "duration": 170}, {"note": 0, "velocity": 0, "duration": 190}, {"note": 76, "velocity": 88, "duration": 127}, {"note": 75, "velocity": 85, "duration": 154}, {"note": 73, "velocity": 100, "duration": 159}, {"note": 0, "velocity": 0, "duration": 81}, {"note": 66, "velocity": 99, "duration": 180}, {"note": 73, "velocity": 117, "duration": 125}, {"note": 0, "velocity": 0, "duration": 115}, {"note": 66, "velocity": 102, "duration": 161}, {"note": 0, "velocity": 0, "duration": 79}, {"note": 73, "velocity": 122, "duration": 195}, {"note": 75, "velocity": 112, "duration": 65}, {"note": 75, "velocity": 112, "duration": 186}, {"note": 0, "velocity": 0, "duration": 174}, {"note": 75, "velocity": 117, "duration": 87}, {"note": 73, "velocity": 107, "duration": 114}, {"note": 71, "velocity": 100, "duration": 120}, {"note": 0, "velocity": 0, "duration": 120}, {"note": 64, "velocity": 99, "duration": 190}, {"note": 71, "velocity": 122, "duration": 133}, {"note": 0, "velocity": 0, "duration": 107}, {"note": 64, "velocity": 100, "duration": 177}, {"note": 0, "velocity": 0, "duration": 63}, {"note": 73, "velocity": 127, "duration": 167}, {"note": 0, "velocity": 0, "duration": 73}, {"note": 71, "velocity": 92, "duration": 75}, {"note": 70, "velocity": 96, "duration": 216}, {"note": 71, "velocity": 102, "duration": 119}, {"note": 0, "velocity": 0, "duration": 241}, {"note": 70, "velocity": 122, "duration": 53}, {"note": 0, "velocity": 0, "duration": 67}, {"note": 70, "velocity": 95, "duration": 53}, {"note": 0, "velocity": 0, "duration": 67}, {"note": 70, "velocity": 112, "duration": 57}, {"note": 0, "velocity": 0, "duration": 63}, {"note": 68, "velocity": 102, "duration": 144}, {"note": 0, "velocity": 0, "duration": 96}, {"note": 70, "velocity": 117, "duration": 145}, {"note": 0, "velocity": 0, "duration": 95}, {"note": 63, "velocity": 99, "duration": 82}, {"note": 70, "velocity": 112, "duration": 48}, {"note": 0, "velocity": 0, "duration": 72}, {"note": 70, "velocity": 96, "duration": 49}, {"note": 0, "velocity": 0, "duration": 71}, {"note": 70, "velocity": 102, "duration": 60}, {"note": 71, "velocity": 100, "duration": 109}, {"note": 0, "velocity": 0, "duration": 131}, {"note": 73, "velocity": 127, "duration": 94}, {"note": 0, "velocity": 0, "duration": 266}, {"note": 75, "velocity": 122, "duration": 44}, {"note": 0, "velocity": 0, "duration": 76}, {"note": 75, "velocity": 82, "duration": 40}, {"note": 0, "velocity": 0, "duration": 80}, {"note": 75, "velocity": 102, "duration": 49}, {"note": 0, "velocity": 0, "duration": 71}, {"note": 75, "velocity": 107, "duration": 44}, {"note": 0, "velocity": 0, "duration": 76}, {"note": 75, "velocity": 107, "duration": 105}, {"note": 0, "velocity": 0, "duration": 135}, {"note": 68, "velocity": 107, "duration": 153}, {"note": 0, "velocity": 0, "duration": 87}, {"note": 75, "velocity": 127, "duration": 97}, {"note": 0, "velocity": 0, "duration": 143}, {"note": 76, "velocity": 95, "duration": 60}, {"note": 76, "velocity": 96, "duration": 110}, {"note": 0, "velocity": 0, "duration": 250}, {"note": 76, "velocity": 102, "duration": 104}, {"note": 75, "velocity": 95, "duration": 110}, {"note": 73, "velocity": 100, "duration": 126}, {"note": 0, "velocity": 0, "duration": 114}, {"note": 73, "velocity": 127, "duration": 58}, {"note": 0, "velocity": 0, "duration": 62}, {"note": 73, "velocity": 112, "duration": 111}, {"note": 0, "velocity": 0, "duration": 129}, {"note": 78, "velocity": 112, "duration": 262}, {"note": 0, "velocity": 0, "duration": 98}, {"note": 76, "velocity": 112, "duration": 201}, {"note": 75, "velocity": 100, "duration": 125}, {"note": 0, "velocity": 0, "duration": 115}, {"note": 73, "velocity": 112, "duration": 241}, {"note": 75, "velocity": 99, "duration": 193}, {"note": 71, "velocity": 97, "duration": 191}, {"note": 70, "velocity": 100, "duration": 144}, {"note": 71, "velocity": 86, "duration": 132}, {"note": 0, "velocity": 0, "duration": 108}, {"note": 64, "velocity": 97, "duration": 227}, {"note": 0, "velocity": 0, "duration": 493}, {"note": 64, "velocity": 96, "duration": 44}, {"note": 0, "velocity": 0, "duration": 76}, {"note": 64, "velocity": 89, "duration": 89}, {"note": 68, "velocity": 100, "duration": 111}, {"note": 71, "velocity": 82, "duration": 109}, {"note": 73, "velocity": 99, "duration": 126}, {"note": 70, "velocity": 112, "duration": 166}, {"note": 0, "velocity": 0, "duration": 74}, {"note": 70, "velocity": 112, "duration": 83}, {"note": 68, "velocity": 97, "duration": 174}, {"note": 0, "velocity": 0, "duration": 66}, {"note": 67, "velocity": 96, "duration": 1060}, {"note": 0, "velocity": 0, "duration": 260}, {"note": 80, "velocity": 112, "duration": 171}, {"note": 0, "velocity": 0, "duration": 69}, {"note": 75, "velocity": 99, "duration": 68}, {"note": 73, "velocity": 99, "duration": 142}, {"note": 0, "velocity": 0, "duration": 98}, {"note": 71, "velocity": 97, "duration": 144}, {"note": 0, "velocity": 0, "duration": 216}, {"note": 70, "velocity": 112, "duration": 39}, {"note": 0, "velocity": 0, "duration": 81}, {"note": 70, "velocity": 99, "duration": 34}, {"note": 0, "velocity": 0, "duration": 86}, {"note": 70, "velocity": 99, "duration": 12}, {"note": 0, "velocity": 0, "duration": 108}, {"note": 71, "velocity": 107, "duration": 62}, {"note": 0, "velocity": 0, "duration": 178}, {"note": 73, "velocity": 112, "duration": 116}, {"note": 0, "velocity": 0, "duration": 244}, {"note": 80, "velocity": 99, "duration": 135}, {"note": 0, "velocity": 0, "duration": 105}, {"note": 75, "velocity": 99, "duration": 96}, {"note": 73, "velocity": 89, "duration": 155}, {"note": 0, "velocity": 0, "duration": 85}, {"note": 71, "velocity": 86, "duration": 169}, {"note": 0, "velocity": 0, "duration": 191}, {"note": 80, "velocity": 122, "duration": 131}, {"note": 0, "velocity": 0, "duration": 109}, {"note": 75, "velocity": 107, "duration": 92}, {"note": 73, "velocity": 96, "duration": 144}, {"note": 0, "velocity": 0, "duration": 96}, {"note": 71, "velocity": 96, "duration": 67}, {"note": 73, "velocity": 117, "duration": 117}, {"note": 0, "velocity": 0, "duration": 123}, {"note": 80, "velocity": 107, "duration": 121}, {"note": 0, "velocity": 0, "duration": 119}, {"note": 75, "velocity": 112, "duration": 51}, {"note": 0, "velocity": 0, "duration": 69}, {"note": 73, "velocity": 107, "duration": 132}, {"note": 0, "velocity": 0, "duration": 108}, {"note": 71, "velocity": 95, "duration": 140}, {"note": 0, "velocity": 0, "duration": 220}, {"note": 70, "velocity": 112, "duration": 40}, {"note": 0, "velocity": 0, "duration": 80}, {"note": 70, "velocity": 89, "duration": 48}, {"note": 0, "velocity": 0, "duration": 72}, {"note": 70, "velocity": 112, "duration": 57}, {"note": 0, "velocity": 0, "duration": 63}, {"note": 71, "velocity": 102, "duration": 133}, {"note": 0, "velocity": 0, "duration": 107}, {"note": 73, "velocity": 117, "duration": 137}, {"note": 0, "velocity": 0, "duration": 223}, {"note": 80, "velocity": 112, "duration": 130}, {"note": 0, "velocity": 0, "duration": 110}, {"note": 75, "velocity": 97, "duration": 67}, {"note": 73, "velocity": 96, "duration": 153}, {"note": 0, "velocity": 0, "duration": 87}, {"note": 71, "velocity": 96, "duration": 331}, {"note": 70, "velocity": 99, "duration": 453}, {"note": 71, "velocity": 112, "duration": 239}, {"note": 73, "velocity": 127, "duration": 160}, {"note": 0, "velocity": 0, "duration": 80}, {"note": 75, "velocity": 127, "duration": 46}, {"note": 0, "velocity": 0, "duration": 74}, {"note": 75, "velocity": 107, "duration": 42}, {"note": 0, "velocity": 0, "duration": 78}, {"note": 75, "velocity": 127, "duration": 45}, {"note": 0, "velocity": 0, "duration": 75}, {"note": 75, "velocity": 117, "duration": 42}, {"note": 0, "velocity": 0, "duration": 78}, {"note": 75, "velocity": 127, "duration": 133}, {"note": 0, "velocity": 0, "duration": 107}, {"note": 76, "velocity": 117, "duration": 129}, {"note": 0, "velocity": 0, "duration": 111}, {"note": 78, "velocity": 127, "duration": 160}, {"note": 0, "velocity": 0, "duration": 80}, {"note": 73, "velocity": 102, "duration": 50}, {"note": 0, "velocity": 0, "duration": 70}, {"note": 73, "velocity": 127, "duration": 118}, {"note": 0, "velocity": 0, "duration": 242}, {"note": 78, "velocity": 127, "duration": 124}, {"note": 0, "velocity": 0, "duration": 116}, {"note": 76, "velocity": 112, "duration": 127}, {"note": 0, "velocity": 0, "duration": 113}, {"note": 75, "velocity": 127, "duration": 78}, {"note": 71, "velocity": 95, "duration": 122}, {"note": 0, "velocity": 0, "duration": 118}, {"note": 76, "velocity": 127, "duration": 266}, {"note": 0, "velocity": 0, "duration": 94}, {"note": 75, "velocity": 127, "duration": 242}, {"note": 0, "velocity": 0, "duration": 238}, {"note": 71, "velocity": 112, "duration": 171}, {"note": 0, "velocity": 0, "duration": 69}, {"note": 73, "velocity": 122, "duration": 146}, {"note": 0, "velocity": 0, "duration": 94}, {"note": 75, "velocity": 122, "duration": 45}, {"note": 0, "velocity": 0, "duration": 75}, {"note": 75, "velocity": 100, "duration": 48}, {"note": 0, "velocity": 0, "duration": 72}, {"note": 75, "velocity": 112, "duration": 44}, {"note": 0, "velocity": 0, "duration": 76}, {"note": 75, "velocity": 127, "duration": 43}, {"note": 0, "velocity": 0, "duration": 77}, {"note": 75, "velocity": 127, "duration": 97}, {"note": 0, "velocity": 0, "duration": 143}, {"note": 76, "velocity": 102, "duration": 121}, {"note": 0, "velocity": 0, "duration": 119}, {"note": 78, "velocity": 122, "duration": 150}, {"note": 0, "velocity": 0, "duration": 90}, {"note": 73, "velocity": 127, "duration": 50}, {"note": 0, "velocity": 0, "duration": 70}, {"note": 73, "velocity": 117, "duration": 133}, {"note": 0, "velocity": 0, "duration": 227}, {"note": 78, "velocity": 127, "duration": 146}, {"note": 0, "velocity": 0, "duration": 94}, {"note": 76, "velocity": 127, "duration": 145}, {"note": 0, "velocity": 0, "duration": 95}, {"note": 75, "velocity": 122, "duration": 84}, {"note": 71, "velocity": 107, "duration": 142}, {"note": 0, "velocity": 0, "duration": 218}, {"note": 76, "velocity": 112, "duration": 202}, {"note": 75, "velocity": 127, "duration": 527}, {"note": 71, "velocity": 122, "duration": 356}, {"note": 0, "velocity": 0, "duration": 124}, {"note": 70, "velocity": 122, "duration": 1381}, {"note": 0, "velocity": 0, "duration": 15419}, {"note": 76, "velocity": 127, "duration": 377}, {"note": 0, "velocity": 0, "duration": 103}, {"note": 76, "velocity": 122, "duration": 186}, {"note": 69, "velocity": 95, "duration": 189}, {"note": 76, "velocity": 112, "duration": 155}, {"note": 0, "velocity": 0, "duration": 85}, {"note": 69, "velocity": 99, "duration": 162}, {"note": 0, "velocity": 0, "duration": 78}, {"note": 76, "velocity": 127, "duration": 138}, {"note": 0, "velocity": 0, "duration": 102}, {"note": 77, "velocity": 96, "duration": 59}, {"note": 0, "velocity": 0, "duration": 61}, {"note": 77, "velocity": 95, "duration": 170}, {"note": 0, "velocity": 0, "duration": 190}, {"note": 77, "velocity": 88, "duration": 127}, {"note": 76, "velocity": 85, "duration": 154}, {"note": 74, "velocity": 100, "duration": 159}, {"note": 0, "velocity": 0, "duration": 81}, {"note": 67, "velocity": 99, "duration": 180}, {"note": 74, "velocity": 117, "duration": 125}, {"note": 0, "velocity": 0, "duration": 115}, {"note": 67, "velocity": 102, "duration": 161}, {"note": 0, "velocity": 0, "duration": 79}, {"note": 74, "velocity": 122, "duration": 195}, {"note": 76, "velocity": 112, "duration": 65}, {"note": 76, "velocity": 112, "duration": 186}, {"note": 0, "velocity": 0, "duration": 174}, {"note": 76, "velocity": 117, "duration": 87}, {"note": 74, "velocity": 107, "duration": 114}, {"note": 72, "velocity": 100, "duration": 120}, {"note": 0, "velocity": 0, "duration": 120}, {"note": 65, "velocity": 99, "duration": 190}, {"note": 72, "velocity": 122, "duration": 133}, {"note": 0, "velocity": 0, "duration": 107}, {"note": 65, "velocity": 100, "duration": 177}, {"note": 0, "velocity": 0, "duration": 63}, {"note": 74, "velocity": 127, "duration": 167}, {"note": 0, "velocity": 0, "duration": 73}, {"note": 72, "velocity": 92, "duration": 75}, {"note": 71, "velocity": 96, "duration": 216}, {"note": 72, "velocity": 102, "duration": 119}, {"note": 0, "velocity": 0, "duration": 241}, {"note": 71, "velocity": 122, "duration": 53}, {"note": 0, "velocity": 0, "duration": 67}, {"note": 71, "velocity": 95, "duration": 53}, {"note": 0, "velocity": 0, "duration": 67}, {"note": 71, "velocity": 112, "duration": 57}, {"note": 0, "velocity": 0, "duration": 63}, {"note": 69, "velocity": 102, "duration": 144}, {"note": 0, "velocity": 0, "duration": 96}, {"note": 71, "velocity": 117, "duration": 145}, {"note": 0, "velocity": 0, "duration": 95}, {"note": 64, "velocity": 99, "duration": 82}, {"note": 71, "velocity": 112, "duration": 48}, {"note": 0, "velocity": 0, "duration": 72}, {"note": 71, "velocity": 96, "duration": 49}, {"note": 0, "velocity": 0, "duration": 71}, {"note": 71, "velocity": 102, "duration": 60}, {"note": 72, "velocity": 100, "duration": 109}, {"note": 0, "velocity": 0, "duration": 131}, {"note": 74, "velocity": 127, "duration": 94}, {"note": 0, "velocity": 0, "duration": 266}, {"note": 76, "velocity": 122, "duration": 44}, {"note": 0, "velocity": 0, "duration": 76}, {"note": 76, "velocity": 82, "duration": 40}, {"note": 0, "velocity": 0, "duration": 80}, {"note": 76, "velocity": 102, "duration": 49}, {"note": 0, "velocity": 0, "duration": 71}, {"note": 76, "velocity": 107, "duration": 44}, {"note": 0, "velocity": 0, "duration": 76}, {"note": 76, "velocity": 107, "duration": 105}, {"note": 0, "velocity": 0, "duration": 135}, {"note": 69, "velocity": 107, "duration": 153}, {"note": 0, "velocity": 0, "duration": 87}, {"note": 76, "velocity": 127, "duration": 97}, {"note": 0, "velocity": 0, "duration": 143}, {"note": 77, "velocity": 95, "duration": 60}, {"note": 77, "velocity": 96, "duration": 110}, {"note": 0, "velocity": 0, "duration": 250}, {"note": 77, "velocity": 102, "duration": 104}, {"note": 76, "velocity": 95, "duration": 110}, {"note": 74, "velocity": 100, "duration": 126}, {"note": 0, "velocity": 0, "duration": 114}, {"note": 74, "velocity": 127, "duration": 58}, {"note": 0, "velocity": 0, "duration": 62}, {"note": 74, "velocity": 112, "duration": 111}, {"note": 0, "velocity": 0, "duration": 129}, {"note": 79, "velocity": 112, "duration": 262}, {"note": 0, "velocity": 0, "duration": 98}, {"note": 77, "velocity": 112, "duration": 201}, {"note": 76, "velocity": 100, "duration": 125}, {"note": 0, "velocity": 0, "duration": 115}, {"note": 74, "velocity": 112, "duration": 241}, {"note": 76, "velocity": 99, "duration": 193}, {"note": 72, "velocity": 97, "duration": 191}, {"note": 71, "velocity": 100, "duration": 144}, {"note": 72, "velocity": 86, "duration": 132}, {"note": 0, "velocity": 0, "duration": 108}, {"note": 65, "velocity": 97, "duration": 227}, {"note": 0, "velocity": 0, "duration": 493}, {"note": 65, "velocity": 112, "duration": 55}, {"note": 0, "velocity": 0, "duration": 65}, {"note": 65, "velocity": 107, "duration": 106}, {"note": 69, "velocity": 127, "duration": 85}, {"note": 72, "velocity": 122, "duration": 120}, {"note": 74, "velocity": 117, "duration": 121}, {"note": 71, "velocity": 127, "duration": 215}, {"note": 71, "velocity": 127, "duration": 93}, {"note": 69, "velocity": 112, "duration": 173}, {"note": 0, "velocity": 0, "duration": 67}, {"note": 68, "velocity": 112, "duration": 1332}, {"note": 0, "velocity": 0, "duration": 1788}, {"note": 72, "velocity": 90, "duration": 1070}, {"note": 69, "velocity": 81, "duration": 1024}]]