[[{"note": 53, "velocity": 83, "duration": 232}, {"note": 55, "velocity": 75, "duration": 276}, {"note": 57, "velocity": 85, "duration": 276}, {"note": 60, "velocity": 102, "duration": 249}, {"note": 62, "velocity": 93, "duration": 546}, {"note": 0, "velocity": 0, "duration": 414}, {"note": 62, "velocity": 96, "duration": 224}, {"note": 60, "velocity": 74, "duration": 228}, {"note": 57, "velocity": 79, "duration": 171}, {"note": 0, "velocity": 0, "duration": 69}, {"note": 62, "velocity": 96, "duration": 326}, {"note": 0, "velocity": 0, "duration": 154}, {"note": 60, "velocity": 92, "duration": 613}, {"note": 0, "velocity": 0, "duration": 107}, {"note": 53, "velocity": 86, "duration": 169}, {"note": 0, "velocity": 0, "duration": 71}, {"note": 55, "velocity": 78, "duration": 165}, {"note": 0, "velocity": 0, "duration": 75}, {"note": 57, "velocity": 88, "duration": 203}, {"note": 60, "velocity": 107, "duration": 261}, {"note": 62, "velocity": 100, "duration": 536}, {"note": 0, "velocity": 0, "duration": 424}, {"note": 62, "velocity": 93, "duration": 211}, {"note": 60, "velocity": 89, "duration": 208}, {"note": 57, "velocity": 90, "duration": 227}, {"note": 62, "velocity": 96, "duration": 376}, {"note": 0, "velocity": 0, "duration": 104}, {"note": 60, "velocity": 97, "duration": 579}, {"note": 0, "velocity": 0, "duration": 141}, {"note": 53, "velocity": 88, "duration": 200}, {"note": 55, "velocity": 83, "duration": 221}, {"note": 57, "velocity": 90, "duration": 209}, {"note": 60, "velocity": 89, "duration": 191}, {"note": 62, "velocity": 88, "duration": 665}, {"note": 60, "velocity": 93, "duration": 186}, {"note": 62, "velocity": 89, "duration": 172}, {"note": 0, "velocity": 0, "duration": 68}, {"note": 64, "velocity": 93, "duration": 161}, {"note": 0, "velocity": 0, "duration": 79}, {"note": 65, "velocity": 100, "duration": 159}, {"note": 0, "velocity": 0, "duration": 81}, {"note": 67, "velocity": 112, "duration": 123}, {"note": 0, "velocity": 0, "duration": 117}, {"note": 65, "velocity": 93, "duration": 122}, {"note": 0, "velocity": 0, "duration": 118}, {"note": 57, "velocity": 92, "duration": 98}, {"note": 0, "velocity": 0, "duration": 142}, {"note": 64, "velocity": 97, "duration": 82}, {"note": 0, "velocity": 0, "duration": 158}, {"note": 55, "velocity": 88, "duration": 123}, {"note": 57, "velocity": 92, "duration": 165}, {"note": 0, "velocity": 0, "duration": 195}, {"note": 65, "velocity": 93, "duration": 213}, {"note": 62, "velocity": 97, "duration": 184}, {"note": 53, "velocity": 90, "duration": 133}, {"note": 0, "velocity": 0, "duration": 107}, {"note": 62, "velocity": 95, "duration": 117}, {"note": 60, "velocity": 88, "duration": 139}, {"note": 0, "velocity": 0, "duration": 101}, {"note": 62, "velocity": 112, "duration": 268}, {"note": 0, "velocity": 0, "duration": 212}, {"note": 60, "velocity": 88, "duration": 53}, {"note": 0, "velocity": 0, "duration": 67}, {"note": 62, "velocity": 96, "duration": 119}, {"note": 0, "velocity": 0, "duration": 121}, {"note": 60, "velocity": 93, "duration": 171}, {"note": 0, "velocity": 0, "duration": 69}, {"note": 62, "velocity": 73, "duration": 182}, {"note": 64, "velocity": 92, "duration": 196}, {"note": 65, "velocity": 112, "duration": 311}, {"note": 0, "velocity": 0, "duration": 409}, {"note": 67, "velocity": 95, "duration": 58}, {"note": 0, "velocity": 0, "duration": 62}, {"note": 67, "velocity": 102, "duration": 644}, {"note": 0, "velocity": 0, "duration": 196}, {"note": 60, "velocity": 100, "duration": 165}, {"note": 0, "velocity": 0, "duration": 75}, {"note": 69, "velocity": 127, "duration": 163}, {"note": 0, "velocity": 0, "duration": 77}, {"note": 69, "velocity": 117, "duration": 57}, {"note": 0, "velocity": 0, "duration": 63}, {"note": 69, "velocity": 112, "duration": 247}, {"note": 0, "velocity": 0, "duration": 113}, {"note": 60, "velocity": 102, "duration": 217}, {"note": 67, "velocity": 117, "duration": 304}, {"note": 65, "velocity": 100, "duration": 73}, {"note": 67, "velocity": 107, "duration": 182}, {"note": 72, "velocity": 117, "duration": 265}, {"note": 0, "velocity": 0, "duration": 95}, {"note": 70, "velocity": 112, "duration": 163}, {"note": 0, "velocity": 0, "duration": 77}, {"note": 62, "velocity": 112, "duration": 54}, {"note": 0, "velocity": 0, "duration": 66}, {"note": 62, "velocity": 107, "duration": 205}, {"note": 0, "velocity": 0, "duration": 155}, {"note": 65, "velocity": 102, "duration": 275}, {"note": 64, "velocity": 96, "duration": 332}, {"note": 0, "velocity": 0, "duration": 388}, {"note": 60, "velocity": 100, "duration": 203}, {"note": 69, "velocity": 102, "duration": 162}, {"note": 0, "velocity": 0, "duration": 78}, {"note": 69, "velocity": 112, "duration": 58}, {"note": 0, "velocity": 0, "duration": 62}, {"note": 69, "velocity": 102, "duration": 145}, {"note": 0, "velocity": 0, "duration": 215}, {"note": 60, "velocity": 107, "duration": 209}, {"note": 67, "velocity": 107, "duration": 181}, {"note": 65, "velocity": 112, "duration": 79}, {"note": 67, "velocity": 117, "duration": 104}, {"note": 0, "velocity": 0, "duration": 256}, {"note": 72, "velocity": 112, "duration": 179}, {"note": 0, "velocity": 0, "duration": 61}, {"note": 70, "velocity": 107, "duration": 155}, {"note": 0, "velocity": 0, "duration": 85}, {"note": 62, "velocity": 100, "duration": 58}, {"note": 0, "velocity": 0, "duration": 62}, {"note": 62, "velocity": 97, "duration": 166}, {"note": 0, "velocity": 0, "duration": 74}, {"note": 69, "velocity": 117, "duration": 292}, {"note": 0, "velocity": 0, "duration": 68}, {"note": 67, "velocity": 107, "duration": 337}, {"note": 0, "velocity": 0, "duration": 623}, {"note": 62, "velocity": 117, "duration": 102}, {"note": 0, "velocity": 0, "duration": 138}, {"note": 62, "velocity": 97, "duration": 68}, {"note": 62, "velocity": 107, "duration": 108}, {"note": 0, "velocity": 0, "duration": 132}, {"note": 62, "velocity": 117, "duration": 56}, {"note": 0, "velocity": 0, "duration": 64}, {"note": 62, "velocity": 97, "duration": 128}, {"note": 60, "velocity": 95, "duration": 101}, {"note": 64, "velocity": 112, "duration": 203}, {"note": 64, "velocity": 102, "duration": 56}, {"note": 0, "velocity": 0, "duration": 64}, {"note": 64, "velocity": 100, "duration": 92}, {"note": 0, "velocity": 0, "duration": 148}, {"note": 64, "velocity": 97, "duration": 48}, {"note": 0, "velocity": 0, "duration": 72}, {"note": 64, "velocity": 88, "duration": 89}, {"note": 62, "velocity": 92, "duration": 68}, {"note": 65, "velocity": 112, "duration": 54}, {"note": 0, "velocity": 0, "duration": 66}, {"note": 65, "velocity": 112, "duration": 86}, {"note": 0, "velocity": 0, "duration": 274}, {"note": 67, "velocity": 117, "duration": 50}, {"note": 0, "velocity": 0, "duration": 70}, {"note": 67, "velocity": 127, "duration": 91}, {"note": 0, "velocity": 0, "duration": 269}, {"note": 69, "velocity": 127, "duration": 262}, {"note": 0, "velocity": 0, "duration": 458}, {"note": 62, "velocity": 96, "duration": 78}, {"note": 64, "velocity": 93, "duration": 62}, {"note": 65, "velocity": 95, "duration": 82}, {"note": 64, "velocity": 96, "duration": 100}, {"note": 62, "velocity": 90, "duration": 103}, {"note": 65, "velocity": 99, "duration": 87}, {"note": 0, "velocity": 0, "duration": 153}, {"note": 62, "velocity": 100, "duration": 78}, {"note": 65, "velocity": 92, "duration": 102}, {"note": 64, "velocity": 96, "duration": 93}, {"note": 62, "velocity": 102, "duration": 197}, {"note": 0, "velocity": 0, "duration": 283}, {"note": 64, "velocity": 97, "duration": 125}, {"note": 65, "velocity": 107, "duration": 263}, {"note": 0, "velocity": 0, "duration": 97}, {"note": 65, "velocity": 117, "duration": 1132}, {"note": 0, "velocity": 0, "duration": 7508}, {"note": 53, "velocity": 83, "duration": 232}, {"note": 55, "velocity": 75, "duration": 276}, {"note": 57, "velocity": 85, "duration": 276}, {"note": 60, "velocity": 102, "duration": 249}, {"note": 62, "velocity": 93, "duration": 546}, {"note": 0, "velocity": 0, "duration": 414}, {"note": 62, "velocity": 96, "duration": 224}, {"note": 60, "velocity": 74, "duration": 228}, {"note": 57, "velocity": 79, "duration": 171}, {"note": 0, "velocity": 0, "duration": 69}, {"note": 62, "velocity": 96, "duration": 326}, {"note": 0, "velocity": 0, "duration": 154}, {"note": 60, "velocity": 92, "duration": 613}, {"note": 0, "velocity": 0, "duration": 107}, {"note": 53, "velocity": 86, "duration": 169}, {"note": 0, "velocity": 0, "duration": 71}, {"note": 55, "velocity": 78, "duration": 165}, {"note": 0, "velocity": 0, "duration": 75}, {"note": 57, "velocity": 88, "duration": 203}, {"note": 60, "velocity": 107, "duration": 261}, {"note": 62, "velocity": 100, "duration": 536}, {"note": 0, "velocity": 0, "duration": 424}, {"note": 62, "velocity": 93, "duration": 211}, {"note": 60, "velocity": 89, "duration": 208}, {"note": 57, "velocity": 90, "duration": 227}, {"note": 62, "velocity": 96, "duration": 376}, {"note": 0, "velocity": 0, "duration": 104}, {"note": 60, "velocity": 97, "duration": 579}, {"note": 0, "velocity": 0, "duration": 141}, {"note": 53, "velocity": 88, "duration": 200}, {"note": 55, "velocity": 83, "duration": 221}, {"note": 57, "velocity": 90, "duration": 209}, {"note": 60, "velocity": 89, "duration": 191}, {"note": 62, "velocity": 88, "duration": 665}, {"note": 60, "velocity": 93, "duration": 186}, {"note": 62, "velocity": 89, "duration": 172}, {"note": 0, "velocity": 0, "duration": 68}, {"note": 64, "velocity": 93, "duration": 161}, {"note": 0, "velocity": 0, "duration": 79}, {"note": 65, "velocity": 100, "duration": 159}, {"note": 0, "velocity": 0, "duration": 81}, {"note": 67, "velocity": 112, "duration": 123}, {"note": 0, "velocity": 0, "duration": 117}, {"note": 65, "velocity": 93, "duration": 122}, {"note": 0, "velocity": 0, "duration": 118}, {"note": 57, "velocity": 92, "duration": 98}, {"note": 0, "velocity": 0, "duration": 142}, {"note": 64, "velocity": 97, "duration": 82}, {"note": 0, "velocity": 0, "duration": 158}, {"note": 55, "velocity": 88, "duration": 123}, {"note": 57, "velocity": 92, "duration": 165}, {"note": 0, "velocity": 0, "duration": 195}, {"note": 65, "velocity": 93, "duration": 213}, {"note": 62, "velocity": 97, "duration": 184}, {"note": 53, "velocity": 90, "duration": 133}, {"note": 0, "velocity": 0, "duration": 107}, {"note": 62, "velocity": 95, "duration": 117}, {"note": 60, "velocity": 88, "duration": 139}, {"note": 0, "velocity": 0, "duration": 101}, {"note": 62, "velocity": 112, "duration": 268}, {"note": 0, "velocity": 0, "duration": 212}, {"note": 60, "velocity": 88, "duration": 53}, {"note": 0, "velocity": 0, "duration": 67}, {"note": 62, "velocity": 96, "duration": 119}, {"note": 0, "velocity": 0, "duration": 121}, {"note": 60, "velocity": 93, "duration": 171}, {"note": 0, "velocity": 0, "duration": 69}, {"note": 62, "velocity": 73, "duration": 182}, {"note": 64, "velocity": 92, "duration": 196}, {"note": 65, "velocity": 112, "duration": 311}, {"note": 0, "velocity": 0, "duration": 409}, {"note": 67, "velocity": 95, "duration": 58}, {"note": 0, "velocity": 0, "duration": 62}, {"note": 67, "velocity": 102, "duration": 644}, {"note": 0, "velocity": 0, "duration": 196}, {"note": 60, "velocity": 100, "duration": 165}, {"note": 0, "velocity": 0, "duration": 75}, {"note": 69, "velocity": 127, "duration": 163}, {"note": 0, "velocity": 0, "duration": 77}, {"note": 69, "velocity": 117, "duration": 57}, {"note": 0, "velocity": 0, "duration": 63}, {"note": 69, "velocity": 112, "duration": 247}, {"note": 0, "velocity": 0, "duration": 113}, {"note": 60, "velocity": 102, "duration": 217}, {"note": 67, "velocity": 117, "duration": 304}, {"note": 65, "velocity": 100, "duration": 73}, {"note": 67, "velocity": 107, "duration": 182}, {"note": 72, "velocity": 117, "duration": 265}, {"note": 0, "velocity": 0, "duration": 95}, {"note": 70, "velocity": 112, "duration": 163}, {"note": 0, "velocity": 0, "duration": 77}, {"note": 62, "velocity": 112, "duration": 54}, {"note": 0, "velocity": 0, "duration": 66}, {"note": 62, "velocity": 107, "duration": 205}, {"note": 0, "velocity": 0, "duration": 155}, {"note": 65, "velocity": 102, "duration": 275}, {"note": 64, "velocity": 96, "duration": 332}, {"note": 0, "velocity": 0, "duration": 388}, {"note": 60, "velocity": 100, "duration": 203}, {"note": 69, "velocity": 102, "duration": 162}, {"note": 0, "velocity": 0, "duration": 78}, {"note": 69, "velocity": 112, "duration": 58}, {"note": 0, "velocity": 0, "duration": 62}, {"note": 69, "velocity": 102, "duration": 145}, {"note": 0, "velocity": 0, "duration": 215}, {"note": 60, "velocity": 107, "duration": 209}, {"note": 67, "velocity": 107, "duration": 181}, {"note": 65, "velocity": 112, "duration": 79}, {"note": 67, "velocity": 117, "duration": 104}, {"note": 0, "velocity": 0, "duration": 256}, {"note": 72, "velocity": 112, "duration": 179}, {"note": 0, "velocity": 0, "duration": 61}, {"note": 70, "velocity": 107, "duration": 155}, {"note": 0, "velocity": 0, "duration": 85}, {"note": 62, "velocity": 100, "duration": 58}, {"note": 0, "velocity": 0, "duration": 62}, {"note": 62, "velocity": 97, "duration": 166}, {"note": 0, "velocity": 0, "duration": 74}, {"note": 69, "velocity": 117, "duration": 292}, {"note": 0, "velocity": 0, "duration": 68}, {"note": 67, "velocity": 107, "duration": 337}, {"note": 0, "velocity": 0, "duration": 623}, {"note": 62, "velocity": 117, "duration": 102}, {"note": 0, "velocity": 0, "duration": 138}, {"note": 62, "velocity": 97, "duration": 68}, {"note": 62, "velocity": 107, "duration": 108}, {"note": 0, "velocity": 0, "duration": 132}, {"note": 62, "velocity": 117, "duration": 56}, {"note": 0, "velocity": 0, "duration": 64}, {"note": 62, "velocity": 97, "duration": 128}, {"note": 60, "velocity": 95, "duration": 101}, {"note": 64, "velocity": 112, "duration": 203}, {"note": 64, "velocity": 102, "duration": 56}, {"note": 0, "velocity": 0, "duration": 64}, {"note": 64, "velocity": 100, "duration": 92}, {"note": 0, "velocity": 0, "duration": 148}, {"note": 64, "velocity": 97, "duration": 48}, {"note": 0, "velocity": 0, "duration": 72}, {"note": 64, "velocity": 88, "duration": 89}, {"note": 62, "velocity": 92, "duration": 68}, {"note": 65, "velocity": 112, "duration": 54}, {"note": 0, "velocity": 0, "duration": 66}, {"note": 65, "velocity": 112, "duration": 86}, {"note": 0, "velocity": 0, "duration": 274}, {"note": 67, "velocity": 117, "duration": 50}, {"note": 0, "velocity": 0, "duration": 70}, {"note": 67, "velocity": 127, "duration": 91}, {"note": 0, "velocity": 0, "duration": 269}, {"note": 69, "velocity": 127, "duration": 262}, {"note": 0, "velocity": 0, "duration": 458}, {"note": 62, "velocity": 96, "duration": 78}, {"note": 64, "velocity": 93, "duration": 62}, {"note": 65, "velocity": 95, "duration": 82}, {"note": 64, "velocity": 96, "duration": 100}, {"note": 62, "velocity": 90, "duration": 103}, {"note": 65, "velocity": 99, "duration": 87}, {"note": 0, "velocity": 0, "duration": 153}, {"note": 62, "velocity": 100, "duration": 78}, {"note": 65, "velocity": 92, "duration": 102}, {"note": 64, "velocity": 96, "duration": 93}, {"note": 62, "velocity": 102, "duration": 197}, {"note": 0, "velocity": 0, "duration": 283}, {"note": 64, "velocity": 97, "duration": 125}, {"note": 65, "velocity": 107, "duration": 263}, {"note": 0, "velocity": 0, "duration": 97}, {"note": 65, "velocity": 117, "duration": 1132}, {"note": 0, "velocity": 0, "duration": 308}, {"note": 69, "velocity": 127, "duration": 79}, {"note": 67, "velocity": 112, "duration": 110}, {"note": 65, "velocity": 102, "duration": 107}, {"note": 64, "velocity": 112, "duration": 99}, {"note": 62, "velocity": 127, "duration": 164}, {"note": 0, "velocity": 0, "duration": 76}, {"note": 69, "velocity": 122, "duration": 177}, {"note": 0, "velocity": 0, "duration": 63}, {"note": 69, "velocity": 127, "duration": 143}, {"note": 0, "velocity": 0, "duration": 97}, {"note": 70, "velocity": 127, "duration": 196}, {"note": 67, "velocity": 127, "duration": 154}, {"note": 0, "velocity": 0, "duration": 326}, {"note": 67, "velocity": 127, "duration": 85}, {"note": 65, "velocity": 117, "duration": 105}, {"note": 64, "velocity": 100, "duration": 97}, {"note": 62, "velocity": 95, "duration": 122}, {"note": 60, "velocity": 100, "duration": 149}, {"note": 0, "velocity": 0, "duration": 91}, {"note": 67, "velocity": 102, "duration": 56}, {"note": 0, "velocity": 0, "duration": 64}, {"note": 60, "velocity": 99, "duration": 66}, {"note": 65, "velocity": 117, "duration": 153}, {"note": 0, "velocity": 0, "duration": 87}, {"note": 67, "velocity": 102, "duration": 51}, {"note": 0, "velocity": 0, "duration": 69}, {"note": 69, "velocity": 127, "duration": 357}, {"note": 0, "velocity": 0, "duration": 243}, {"note": 69, "velocity": 127, "duration": 83}, {"note": 67, "velocity": 88, "duration": 114}, {"note": 65, "velocity": 122, "duration": 103}, {"note": 64, "velocity": 102, "duration": 106}, {"note": 62, "velocity": 112, "duration": 156}, {"note": 0, "velocity": 0, "duration": 84}, {"note": 69, "velocity": 127, "duration": 160}, {"note": 0, "velocity": 0, "duration": 80}, {"note": 69, "velocity": 122, "duration": 126}, {"note": 0, "velocity": 0, "duration": 114}, {"note": 70, "velocity": 127, "duration": 157}, {"note": 0, "velocity": 0, "duration": 83}, {"note": 64, "velocity": 117, "duration": 254}, {"note": 0, "velocity": 0, "duration": 466}, {"note": 64, "velocity": 112, "duration": 128}, {"note": 65, "velocity": 107, "duration": 70}, {"note": 65, "velocity": 107, "duration": 480}, {"note": 0, "velocity": 0, "duration": 360}, {"note": 67, "velocity": 100, "duration": 60}, {"note": 67, "velocity": 122, "duration": 512}, {"note": 0, "velocity": 0, "duration": 208}, {"note": 60, "velocity": 100, "duration": 165}, {"note": 0, "velocity": 0, "duration": 75}, {"note": 69, "velocity": 127, "duration": 163}, {"note": 0, "velocity": 0, "duration": 77}, {"note": 69, "velocity": 117, "duration": 57}, {"note": 0, "velocity": 0, "duration": 63}, {"note": 69, "velocity": 112, "duration": 247}, {"note": 0, "velocity": 0, "duration": 113}, {"note": 60, "velocity": 102, "duration": 217}, {"note": 67, "velocity": 117, "duration": 304}, {"note": 65, "velocity": 100, "duration": 73}, {"note": 67, "velocity": 107, "duration": 182}, {"note": 72, "velocity": 117, "duration": 265}, {"note": 0, "velocity": 0, "duration": 95}, {"note": 70, "velocity": 112, "duration": 163}, {"note": 0, "velocity": 0, "duration": 77}, {"note": 62, "velocity": 112, "duration": 54}, {"note": 0, "velocity": 0, "duration": 66}, {"note": 62, "velocity": 107, "duration": 205}, {"note": 0, "velocity": 0, "duration": 155}, {"note": 65, "velocity": 102, "duration": 275}, {"note": 64, "velocity": 96, "duration": 332}, {"note": 0, "velocity": 0, "duration": 388}, {"note": 60, "velocity": 100, "duration": 203}, {"note": 69, "velocity": 102, "duration": 162}, {"note": 0, "velocity": 0, "duration": 78}, {"note": 69, "velocity": 112, "duration": 58}, {"note": 0, "velocity": 0, "duration": 62}, {"note": 69, "velocity": 102, "duration": 145}, {"note": 0, "velocity": 0, "duration": 215}, {"note": 60, "velocity": 107, "duration": 209}, {"note": 67, "velocity": 107, "duration": 181}, {"note": 65, "velocity": 112, "duration": 79}, {"note": 67, "velocity": 117, "duration": 104}, {"note": 0, "velocity": 0, "duration": 256}, {"note": 72, "velocity": 112, "duration": 179}, {"note": 0, "velocity": 0, "duration": 61}, {"note": 70, "velocity": 107, "duration": 155}, {"note": 0, "velocity": 0, "duration": 85}, {"note": 62, "velocity": 100, "duration": 58}, {"note": 0, "velocity": 0, "duration": 62}, {"note": 62, "velocity": 97, "duration": 166}, {"note": 0, "velocity": 0, "duration": 74}, {"note": 69, "velocity": 117, "duration": 292}, {"note": 0, "velocity": 0, "duration": 68}, {"note": 67, "velocity": 107, "duration": 337}, {"note": 0, "velocity": 0, "duration": 623}, {"note": 62, "velocity": 117, "duration": 102}, {"note": 0, "velocity": 0, "duration": 138}, {"note": 62, "velocity": 97, "duration": 68}, {"note": 62, "velocity": 107, "duration": 108}, {"note": 0, "velocity": 0, "duration": 132}, {"note": 62, "velocity": 117, "duration": 56}, {"note": 0, "velocity": 0, "duration": 64}, {"note": 62, "velocity": 97, "duration": 128}, {"note": 60, "velocity": 95, "duration": 101}, {"note": 64, "velocity": 112, "duration": 203}, {"note": 64, "velocity": 102, "duration": 56}, {"note": 0, "velocity": 0, "duration": 64}, {"note": 64, "velocity": 100, "duration": 92}, {"note": 0, "velocity": 0, "duration": 148}, {"note": 64, "velocity": 97, "duration": 48}, {"note": 0, "velocity": 0, "duration": 72}, {"note": 64, "velocity": 88, "duration": 89}, {"note": 62, "velocity": 92, "duration": 68}, {"note": 65, "velocity": 112, "duration": 54}, {"note": 0, "velocity": 0, "duration": 66}, {"note": 65, "velocity": 112, "duration": 86}, {"note": 0, "velocity": 0, "duration": 274}, {"note": 67, "velocity": 117, "duration": 50}, {"note": 0, "velocity": 0, "duration": 70}, {"note": 67, "velocity": 127, "duration": 91}, {"note": 0, "velocity": 0, "duration": 269}, {"note": 69, "velocity": 127, "duration": 262}, {"note": 0, "velocity": 0, "duration": 458}, {"note": 62, "velocity": 96, "duration": 78}, {"note": 64, "velocity": 93, "duration": 62}, {"note": 65, "velocity": 95, "duration": 82}, {"note": 64, "velocity": 96, "duration": 100}, {"note": 62, "velocity": 90, "duration": 103}, {"note": 65, "velocity": 99, "duration": 87}, {"note": 0, "velocity": 0, "duration": 153}, {"note": 62, "velocity": 100, "duration": 78}, {"note": 65, "velocity": 92, "duration": 102}, {"note": 64, "velocity": 96, "duration": 93}, {"note": 62, "velocity": 102, "duration": 197}, {"note": 0, "velocity": 0, "duration": 283}, {"note": 64, "velocity": 97, "duration": 125}, {"note": 65, "velocity": 107, "duration": 263}, {"note": 60, "velocity": 100, "duration": 165}, {"note": 0, "velocity": 0, "duration": 75}, {"note": 69, "velocity": 127, "duration": 163}, {"note": 65, "velocity": 117, "duration": 960}, {"note": 69, "velocity": 117, "duration": 57}, {"note": 69, "velocity": 112, "duration": 247}, {"note": 60, "velocity": 102, "duration": 217}, {"note": 67, "velocity": 117, "duration": 304}, {"note": 65, "velocity": 100, "duration": 73}, {"note": 67, "velocity": 107, "duration": 182}, {"note": 72, "velocity": 117, "duration": 265}, {"note": 0, "velocity": 0, "duration": 95}, {"note": 70, "velocity": 112, "duration": 163}, {"note": 0, "velocity": 0, "duration": 77}, {"note": 62, "velocity": 112, "duration": 54}, {"note": 0, "velocity": 0, "duration": 66}, {"note": 62, "velocity": 107, "duration": 205}, {"note": 0, "velocity": 0, "duration": 155}, {"note": 65, "velocity": 102, "duration": 275}, {"note": 64, "velocity": 96, "duration": 332}, {"note": 0, "velocity": 0, "duration": 388}, {"note": 60, "velocity": 100, "duration": 203}, {"note": 69, "velocity": 102, "duration": 162}, {"note": 0, "velocity": 0, "duration": 78}, {"note": 69, "velocity": 112, "duration": 58}, {"note": 0, "velocity": 0, "duration": 62}, {"note": 69, "velocity": 102, "duration": 145}, {"note": 0, "velocity": 0, "duration": 215}, {"note": 60, "velocity": 107, "duration": 209}, {"note": 67, "velocity": 107, "duration": 181}, {"note": 65, "velocity": 112, "duration": 79}, {"note": 67, "velocity": 117, "duration": 104}, {"note": 0, "velocity": 0, "duration": 256}, {"note": 72, "velocity": 112, "duration": 179}, {"note": 0, "velocity": 0, "duration": 61}, {"note": 70, "velocity": 107, "duration": 155}, {"note": 0, "velocity": 0, "duration": 85}, {"note": 62, "velocity": 100, "duration": 58}, {"note": 0, "velocity": 0, "duration": 62}, {"note": 62, "velocity": 97, "duration": 166}, {"note": 0, "velocity": 0, "duration": 74}, {"note": 69, "velocity": 117, "duration": 292}, {"note": 0, "velocity": 0, "duration": 68}, {"note": 67, "velocity": 107, "duration": 337}, {"note": 0, "velocity": 0, "duration": 623}, {"note": 62, "velocity": 117, "duration": 102}, {"note": 0, "velocity": 0, "duration": 138}, {"note": 62, "velocity": 97, "duration": 68}, {"note": 62, "velocity": 107, "duration": 108}, {"note": 0, "velocity": 0, "duration": 132}, {"note": 62, "velocity": 117, "duration": 56}, {"note": 0, "velocity": 0, "duration": 64}, {"note": 62, "velocity": 97, "duration": 128}, {"note": 60, "velocity": 95, "duration": 101}, {"note": 64, "velocity": 112, "duration": 203}, {"note": 64, "velocity": 102, "duration": 56}, {"note": 0, "velocity": 0, "duration": 64}, {"note": 64, "velocity": 100, "duration": 92}, {"note": 0, "velocity": 0, "duration": 148}, {"note": 64, "velocity": 97, "duration": 48}, {"note": 0, "velocity": 0, "duration": 72}, {"note": 64, "velocity": 88, "duration": 89}, {"note": 62, "velocity": 92, "duration": 68}, {"note": 65, "velocity": 112, "duration": 54}, {"note": 0, "velocity": 0, "duration": 66}, {"note": 65, "velocity": 112, "duration": 86}, {"note": 0, "velocity": 0, "duration": 274}, {"note": 67, "velocity": 117, "duration": 50}, {"note": 0, "velocity": 0, "duration": 70}, {"note": 67, "velocity": 127, "duration": 91}, {"note": 0, "velocity": 0, "duration": 269}, {"note": 69, "velocity": 127, "duration": 262}, {"note": 0, "velocity": 0, "duration": 458}, {"note": 62, "velocity": 96, "duration": 78}, {"note": 64, "velocity": 93, "duration": 62}, {"note": 65, "velocity": 95, "duration": 82}, {"note": 64, "velocity": 96, "duration": 100}, {"note": 62, "velocity": 90, "duration": 103}, {"note": 65, "velocity": 99, "duration": 87}, {"note": 0, "velocity": 0, "duration": 153}, {"note": 62, "velocity": 100, "duration": 78}, {"note": 65, "velocity": 92, "duration": 102}, {"note": 64, "velocity": 96, "duration": 93}, {"note": 62, "velocity": 102, "duration": 197}, {"note": 0, "velocity": 0, "duration": 283}, {"note": 64, "velocity": 97, "duration": 125}, {"note": 65, "velocity": 107, "duration": 263}, {"note": 0, "velocity": 0, "duration": 97}, {"note": 65, "velocity": 117, "duration": 960}]]