[[{"note": 53, "velocity": 74, "duration": 139}, {"note": 55, "velocity": 71, "duration": 101}, {"note": 60, "velocity": 93, "duration": 184}, {"note": 60, "velocity": 86, "duration": 159}, {"note": 0, "velocity": 0, "duration": 81}, {"note": 60, "velocity": 107, "duration": 143}, {"note": 0, "velocity": 0, "duration": 97}, {"note": 58, "velocity": 88, "duration": 118}, {"note": 60, "velocity": 89, "duration": 84}, {"note": 0, "velocity": 0, "duration": 156}, {"note": 60, "velocity": 96, "duration": 139}, {"note": 0, "velocity": 0, "duration": 101}, {"note": 55, "velocity": 71, "duration": 95}, {"note": 62, "velocity": 93, "duration": 171}, {"note": 0, "velocity": 0, "duration": 69}, {"note": 60, "velocity": 90, "duration": 168}, {"note": 0, "velocity": 0, "duration": 72}, {"note": 58, "velocity": 86, "duration": 398}, {"note": 0, "velocity": 0, "duration": 1522}, {"note": 60, "velocity": 92, "duration": 140}, {"note": 0, "velocity": 0, "duration": 100}, {"note": 60, "velocity": 79, "duration": 62}, {"note": 60, "velocity": 82, "duration": 62}, {"note": 60, "velocity": 75, "duration": 119}, {"note": 0, "velocity": 0, "duration": 121}, {"note": 58, "velocity": 95, "duration": 53}, {"note": 0, "velocity": 0, "duration": 67}, {"note": 58, "velocity": 85, "duration": 140}, {"note": 0, "velocity": 0, "duration": 100}, {"note": 60, "velocity": 86, "duration": 121}, {"note": 0, "velocity": 0, "duration": 119}, {"note": 53, "velocity": 73, "duration": 78}, {"note": 62, "velocity": 86, "duration": 142}, {"note": 0, "velocity": 0, "duration": 98}, {"note": 60, "velocity": 92, "duration": 136}, {"note": 58, "velocity": 70, "duration": 108}, {"note": 55, "velocity": 89, "duration": 296}, {"note": 0, "velocity": 0, "duration": 1624}, {"note": 60, "velocity": 83, "duration": 85}, {"note": 0, "velocity": 0, "duration": 155}, {"note": 60, "velocity": 79, "duration": 79}, {"note": 0, "velocity": 0, "duration": 161}, {"note": 60, "velocity": 88, "duration": 78}, {"note": 0, "velocity": 0, "duration": 162}, {"note": 58, "velocity": 89, "duration": 65}, {"note": 60, "velocity": 88, "duration": 72}, {"note": 0, "velocity": 0, "duration": 168}, {"note": 60, "velocity": 92, "duration": 86}, {"note": 0, "velocity": 0, "duration": 274}, {"note": 65, "velocity": 95, "duration": 118}, {"note": 63, "velocity": 64, "duration": 115}, {"note": 62, "velocity": 75, "duration": 130}, {"note": 0, "velocity": 0, "duration": 110}, {"note": 62, "velocity": 92, "duration": 193}, {"note": 58, "velocity": 95, "duration": 140}, {"note": 0, "velocity": 0, "duration": 100}, {"note": 58, "velocity": 96, "duration": 102}, {"note": 60, "velocity": 85, "duration": 113}, {"note": 0, "velocity": 0, "duration": 127}, {"note": 58, "velocity": 90, "duration": 334}, {"note": 0, "velocity": 0, "duration": 746}, {"note": 60, "velocity": 77, "duration": 141}, {"note": 0, "velocity": 0, "duration": 99}, {"note": 60, "velocity": 77, "duration": 89}, {"note": 0, "velocity": 0, "duration": 151}, {"note": 60, "velocity": 88, "duration": 75}, {"note": 0, "velocity": 0, "duration": 165}, {"note": 58, "velocity": 82, "duration": 56}, {"note": 0, "velocity": 0, "duration": 64}, {"note": 58, "velocity": 69, "duration": 90}, {"note": 0, "velocity": 0, "duration": 150}, {"note": 60, "velocity": 86, "duration": 123}, {"note": 0, "velocity": 0, "duration": 237}, {"note": 57, "velocity": 78, "duration": 98}, {"note": 0, "velocity": 0, "duration": 142}, {"note": 53, "velocity": 79, "duration": 98}, {"note": 57, "velocity": 82, "duration": 82}, {"note": 0, "velocity": 0, "duration": 158}, {"note": 55, "velocity": 83, "duration": 750}, {"note": 0, "velocity": 0, "duration": 810}, {"note": 53, "velocity": 74, "duration": 139}, {"note": 55, "velocity": 71, "duration": 101}, {"note": 60, "velocity": 93, "duration": 184}, {"note": 60, "velocity": 86, "duration": 159}, {"note": 0, "velocity": 0, "duration": 81}, {"note": 60, "velocity": 107, "duration": 143}, {"note": 0, "velocity": 0, "duration": 97}, {"note": 58, "velocity": 88, "duration": 118}, {"note": 58, "velocity": 89, "duration": 84}, {"note": 0, "velocity": 0, "duration": 156}, {"note": 60, "velocity": 96, "duration": 139}, {"note": 0, "velocity": 0, "duration": 101}, {"note": 55, "velocity": 71, "duration": 95}, {"note": 62, "velocity": 93, "duration": 171}, {"note": 0, "velocity": 0, "duration": 69}, {"note": 60, "velocity": 90, "duration": 168}, {"note": 0, "velocity": 0, "duration": 72}, {"note": 60, "velocity": 86, "duration": 168}, {"note": 0, "velocity": 0, "duration": 72}, {"note": 58, "velocity": 86, "duration": 720}, {"note": 0, "velocity": 0, "duration": 720}, {"note": 55, "velocity": 90, "duration": 58}, {"note": 0, "velocity": 0, "duration": 62}, {"note": 55, "velocity": 83, "duration": 62}, {"note": 60, "velocity": 92, "duration": 140}, {"note": 0, "velocity": 0, "duration": 100}, {"note": 60, "velocity": 79, "duration": 62}, {"note": 0, "velocity": 0, "duration": 178}, {"note": 60, "velocity": 75, "duration": 119}, {"note": 0, "velocity": 0, "duration": 121}, {"note": 58, "velocity": 95, "duration": 53}, {"note": 0, "velocity": 0, "duration": 67}, {"note": 58, "velocity": 85, "duration": 140}, {"note": 0, "velocity": 0, "duration": 100}, {"note": 60, "velocity": 86, "duration": 121}, {"note": 0, "velocity": 0, "duration": 119}, {"note": 53, "velocity": 73, "duration": 78}, {"note": 62, "velocity": 86, "duration": 142}, {"note": 0, "velocity": 0, "duration": 98}, {"note": 60, "velocity": 92, "duration": 136}, {"note": 58, "velocity": 70, "duration": 108}, {"note": 55, "velocity": 89, "duration": 960}, {"note": 0, "velocity": 0, "duration": 960}, {"note": 60, "velocity": 83, "duration": 85}, {"note": 0, "velocity": 0, "duration": 155}, {"note": 60, "velocity": 79, "duration": 79}, {"note": 0, "velocity": 0, "duration": 161}, {"note": 60, "velocity": 88, "duration": 78}, {"note": 0, "velocity": 0, "duration": 162}, {"note": 58, "velocity": 89, "duration": 65}, {"note": 60, "velocity": 88, "duration": 72}, {"note": 0, "velocity": 0, "duration": 168}, {"note": 60, "velocity": 92, "duration": 86}, {"note": 0, "velocity": 0, "duration": 274}, {"note": 65, "velocity": 95, "duration": 118}, {"note": 63, "velocity": 64, "duration": 115}, {"note": 62, "velocity": 75, "duration": 130}, {"note": 0, "velocity": 0, "duration": 110}, {"note": 62, "velocity": 92, "duration": 193}, {"note": 58, "velocity": 95, "duration": 140}, {"note": 0, "velocity": 0, "duration": 100}, {"note": 58, "velocity": 96, "duration": 102}, {"note": 60, "velocity": 85, "duration": 113}, {"note": 0, "velocity": 0, "duration": 127}, {"note": 58, "velocity": 90, "duration": 334}, {"note": 0, "velocity": 0, "duration": 746}, {"note": 60, "velocity": 77, "duration": 141}, {"note": 0, "velocity": 0, "duration": 99}, {"note": 60, "velocity": 77, "duration": 89}, {"note": 0, "velocity": 0, "duration": 151}, {"note": 60, "velocity": 88, "duration": 75}, {"note": 0, "velocity": 0, "duration": 165}, {"note": 58, "velocity": 82, "duration": 56}, {"note": 0, "velocity": 0, "duration": 64}, {"note": 58, "velocity": 69, "duration": 90}, {"note": 0, "velocity": 0, "duration": 150}, {"note": 60, "velocity": 86, "duration": 123}, {"note": 0, "velocity": 0, "duration": 237}, {"note": 57, "velocity": 78, "duration": 98}, {"note": 0, "velocity": 0, "duration": 142}, {"note": 53, "velocity": 79, "duration": 98}, {"note": 57, "velocity": 82, "duration": 82}, {"note": 0, "velocity": 0, "duration": 158}, {"note": 55, "velocity": 83, "duration": 750}, {"note": 0, "velocity": 0, "duration": 570}, {"note": 58, "velocity": 107, "duration": 154}, {"note": 0, "velocity": 0, "duration": 86}, {"note": 65, "velocity": 112, "duration": 155}, {"note": 0, "velocity": 0, "duration": 85}, {"note": 65, "velocity": 107, "duration": 714}, {"note": 63, "velocity": 117, "duration": 115}, {"note": 62, "velocity": 72, "duration": 121}, {"note": 60, "velocity": 100, "duration": 396}, {"note": 0, "velocity": 0, "duration": 84}, {"note": 60, "velocity": 95, "duration": 49}, {"note": 0, "velocity": 0, "duration": 71}, {"note": 60, "velocity": 88, "duration": 49}, {"note": 0, "velocity": 0, "duration": 71}, {"note": 60, "velocity": 88, "duration": 68}, {"note": 58, "velocity": 100, "duration": 128}, {"note": 62, "velocity": 100, "duration": 132}, {"note": 0, "velocity": 0, "duration": 108}, {"note": 62, "velocity": 122, "duration": 123}, {"note": 0, "velocity": 0, "duration": 117}, {"note": 58, "velocity": 96, "duration": 62}, {"note": 60, "velocity": 89, "duration": 129}, {"note": 0, "velocity": 0, "duration": 111}, {"note": 58, "velocity": 102, "duration": 206}, {"note": 0, "velocity": 0, "duration": 394}, {"note": 58, "velocity": 102, "duration": 137}, {"note": 0, "velocity": 0, "duration": 103}, {"note": 65, "velocity": 97, "duration": 117}, {"note": 0, "velocity": 0, "duration": 123}, {"note": 65, "velocity": 112, "duration": 519}, {"note": 0, "velocity": 0, "duration": 201}, {"note": 63, "velocity": 122, "duration": 124}, {"note": 62, "velocity": 71, "duration": 118}, {"note": 60, "velocity": 97, "duration": 314}, {"note": 0, "velocity": 0, "duration": 166}, {"note": 60, "velocity": 92, "duration": 56}, {"note": 0, "velocity": 0, "duration": 64}, {"note": 60, "velocity": 79, "duration": 49}, {"note": 0, "velocity": 0, "duration": 71}, {"note": 60, "velocity": 82, "duration": 83}, {"note": 58, "velocity": 86, "duration": 70}, {"note": 60, "velocity": 95, "duration": 112}, {"note": 0, "velocity": 0, "duration": 128}, {"note": 58, "velocity": 102, "duration": 622}, {"note": 0, "velocity": 0, "duration": 578}, {"note": 58, "velocity": 100, "duration": 145}, {"note": 0, "velocity": 0, "duration": 95}, {"note": 65, "velocity": 107, "duration": 105}, {"note": 0, "velocity": 0, "duration": 135}, {"note": 65, "velocity": 112, "duration": 552}, {"note": 0, "velocity": 0, "duration": 168}, {"note": 63, "velocity": 122, "duration": 135}, {"note": 62, "velocity": 82, "duration": 125}, {"note": 60, "velocity": 96, "duration": 321}, {"note": 0, "velocity": 0, "duration": 159}, {"note": 60, "velocity": 93, "duration": 49}, {"note": 0, "velocity": 0, "duration": 71}, {"note": 60, "velocity": 92, "duration": 51}, {"note": 0, "velocity": 0, "duration": 69}, {"note": 60, "velocity": 92, "duration": 94}, {"note": 58, "velocity": 77, "duration": 134}, {"note": 62, "velocity": 100, "duration": 97}, {"note": 0, "velocity": 0, "duration": 143}, {"note": 62, "velocity": 97, "duration": 264}, {"note": 63, "velocity": 107, "duration": 174}, {"note": 0, "velocity": 0, "duration": 66}, {"note": 62, "velocity": 92, "duration": 59}, {"note": 0, "velocity": 0, "duration": 61}, {"note": 60, "velocity": 96, "duration": 175}, {"note": 0, "velocity": 0, "duration": 65}, {"note": 58, "velocity": 83, "duration": 241}, {"note": 0, "velocity": 0, "duration": 119}, {"note": 58, "velocity": 99, "duration": 114}, {"note": 0, "velocity": 0, "duration": 126}, {"note": 62, "velocity": 93, "duration": 116}, {"note": 0, "velocity": 0, "duration": 124}, {"note": 62, "velocity": 97, "duration": 356}, {"note": 0, "velocity": 0, "duration": 364}, {"note": 65, "velocity": 79, "duration": 86}, {"note": 63, "velocity": 97, "duration": 84}, {"note": 60, "velocity": 85, "duration": 164}, {"note": 0, "velocity": 0, "duration": 76}, {"note": 60, "velocity": 90, "duration": 243}, {"note": 0, "velocity": 0, "duration": 117}, {"note": 57, "velocity": 96, "duration": 143}, {"note": 0, "velocity": 0, "duration": 97}, {"note": 58, "velocity": 83, "duration": 80}, {"note": 60, "velocity": 95, "duration": 187}, {"note": 58, "velocity": 75, "duration": 465}, {"note": 0, "velocity": 0, "duration": 735}, {"note": 58, "velocity": 96, "duration": 156}, {"note": 0, "velocity": 0, "duration": 84}, {"note": 62, "velocity": 100, "duration": 227}, {"note": 57, "velocity": 112, "duration": 1056}, {"note": 0, "velocity": 0, "duration": 384}, {"note": 57, "velocity": 92, "duration": 113}, {"note": 58, "velocity": 92, "duration": 213}, {"note": 0, "velocity": 0, "duration": 147}, {"note": 60, "velocity": 95, "duration": 235}, {"note": 58, "velocity": 70, "duration": 1013}, {"note": 0, "velocity": 0, "duration": 187}, {"note": 58, "velocity": 117, "duration": 169}, {"note": 0, "velocity": 0, "duration": 71}, {"note": 62, "velocity": 96, "duration": 182}, {"note": 57, "velocity": 96, "duration": 688}, {"note": 0, "velocity": 0, "duration": 632}, {"note": 57, "velocity": 82, "duration": 62}, {"note": 57, "velocity": 90, "duration": 129}, {"note": 0, "velocity": 0, "duration": 111}, {"note": 53, "velocity": 82, "duration": 70}, {"note": 57, "velocity": 86, "duration": 137}, {"note": 0, "velocity": 0, "duration": 103}, {"note": 55, "velocity": 86, "duration": 1326}, {"note": 0, "velocity": 0, "duration": 15834}, {"note": 60, "velocity": 89, "duration": 51}, {"note": 0, "velocity": 0, "duration": 69}, {"note": 60, "velocity": 85, "duration": 49}, {"note": 0, "velocity": 0, "duration": 71}, {"note": 60, "velocity": 92, "duration": 67}, {"note": 58, "velocity": 92, "duration": 48}, {"note": 0, "velocity": 0, "duration": 72}, {"note": 60, "velocity": 96, "duration": 116}, {"note": 0, "velocity": 0, "duration": 124}, {"note": 58, "velocity": 97, "duration": 66}, {"note": 60, "velocity": 93, "duration": 117}, {"note": 0, "velocity": 0, "duration": 123}, {"note": 60, "velocity": 95, "duration": 156}, {"note": 0, "velocity": 0, "duration": 204}, {"note": 62, "velocity": 95, "duration": 149}, {"note": 0, "velocity": 0, "duration": 91}, {"note": 60, "velocity": 95, "duration": 144}, {"note": 0, "velocity": 0, "duration": 96}, {"note": 58, "velocity": 92, "duration": 496}, {"note": 0, "velocity": 0, "duration": 1184}, {"note": 55, "velocity": 89, "duration": 55}, {"note": 0, "velocity": 0, "duration": 65}, {"note": 55, "velocity": 75, "duration": 99}, {"note": 60, "velocity": 93, "duration": 144}, {"note": 0, "velocity": 0, "duration": 96}, {"note": 60, "velocity": 88, "duration": 128}, {"note": 0, "velocity": 0, "duration": 112}, {"note": 60, "velocity": 100, "duration": 101}, {"note": 0, "velocity": 0, "duration": 139}, {"note": 58, "velocity": 96, "duration": 51}, {"note": 0, "velocity": 0, "duration": 69}, {"note": 58, "velocity": 88, "duration": 161}, {"note": 0, "velocity": 0, "duration": 79}, {"note": 60, "velocity": 97, "duration": 169}, {"note": 0, "velocity": 0, "duration": 71}, {"note": 53, "velocity": 86, "duration": 73}, {"note": 62, "velocity": 95, "duration": 165}, {"note": 0, "velocity": 0, "duration": 75}, {"note": 60, "velocity": 93, "duration": 95}, {"note": 58, "velocity": 92, "duration": 111}, {"note": 55, "velocity": 90, "duration": 1145}, {"note": 0, "velocity": 0, "duration": 775}, {"note": 60, "velocity": 89, "duration": 142}, {"note": 0, "velocity": 0, "duration": 98}, {"note": 60, "velocity": 88, "duration": 78}, {"note": 0, "velocity": 0, "duration": 162}, {"note": 60, "velocity": 93, "duration": 93}, {"note": 0, "velocity": 0, "duration": 147}, {"note": 58, "velocity": 97, "duration": 98}, {"note": 60, "velocity": 90, "duration": 113}, {"note": 0, "velocity": 0, "duration": 127}, {"note": 60, "velocity": 99, "duration": 142}, {"note": 0, "velocity": 0, "duration": 218}, {"note": 65, "velocity": 85, "duration": 102}, {"note": 63, "velocity": 81, "duration": 134}, {"note": 62, "velocity": 93, "duration": 165}, {"note": 0, "velocity": 0, "duration": 75}, {"note": 62, "velocity": 96, "duration": 134}, {"note": 0, "velocity": 0, "duration": 106}, {"note": 58, "velocity": 96, "duration": 126}, {"note": 0, "velocity": 0, "duration": 114}, {"note": 58, "velocity": 107, "duration": 145}, {"note": 60, "velocity": 93, "duration": 153}, {"note": 0, "velocity": 0, "duration": 87}, {"note": 58, "velocity": 90, "duration": 425}, {"note": 0, "velocity": 0, "duration": 655}, {"note": 60, "velocity": 92, "duration": 146}, {"note": 0, "velocity": 0, "duration": 94}, {"note": 60, "velocity": 86, "duration": 139}, {"note": 0, "velocity": 0, "duration": 101}, {"note": 60, "velocity": 90, "duration": 118}, {"note": 0, "velocity": 0, "duration": 122}, {"note": 58, "velocity": 95, "duration": 62}, {"note": 58, "velocity": 90, "duration": 163}, {"note": 0, "velocity": 0, "duration": 77}, {"note": 60, "velocity": 89, "duration": 160}, {"note": 0, "velocity": 0, "duration": 200}, {"note": 57, "velocity": 95, "duration": 197}, {"note": 53, "velocity": 83, "duration": 97}, {"note": 57, "velocity": 92, "duration": 142}, {"note": 0, "velocity": 0, "duration": 98}, {"note": 55, "velocity": 92, "duration": 1248}, {"note": 0, "velocity": 0, "duration": 72}, {"note": 58, "velocity": 107, "duration": 154}, {"note": 0, "velocity": 0, "duration": 86}, {"note": 65, "velocity": 112, "duration": 155}, {"note": 0, "velocity": 0, "duration": 85}, {"note": 65, "velocity": 107, "duration": 714}, {"note": 63, "velocity": 117, "duration": 115}, {"note": 62, "velocity": 72, "duration": 121}, {"note": 60, "velocity": 100, "duration": 396}, {"note": 0, "velocity": 0, "duration": 84}, {"note": 60, "velocity": 95, "duration": 49}, {"note": 0, "velocity": 0, "duration": 71}, {"note": 60, "velocity": 88, "duration": 49}, {"note": 0, "velocity": 0, "duration": 71}, {"note": 60, "velocity": 88, "duration": 68}, {"note": 58, "velocity": 100, "duration": 128}, {"note": 62, "velocity": 100, "duration": 132}, {"note": 0, "velocity": 0, "duration": 108}, {"note": 62, "velocity": 122, "duration": 123}, {"note": 0, "velocity": 0, "duration": 117}, {"note": 58, "velocity": 96, "duration": 62}, {"note": 60, "velocity": 89, "duration": 129}, {"note": 0, "velocity": 0, "duration": 111}, {"note": 58, "velocity": 102, "duration": 206}, {"note": 0, "velocity": 0, "duration": 394}, {"note": 58, "velocity": 102, "duration": 137}, {"note": 0, "velocity": 0, "duration": 103}, {"note": 65, "velocity": 97, "duration": 117}, {"note": 0, "velocity": 0, "duration": 123}, {"note": 65, "velocity": 112, "duration": 519}, {"note": 0, "velocity": 0, "duration": 201}, {"note": 63, "velocity": 122, "duration": 124}, {"note": 62, "velocity": 71, "duration": 118}, {"note": 60, "velocity": 97, "duration": 314}, {"note": 0, "velocity": 0, "duration": 166}, {"note": 60, "velocity": 92, "duration": 56}, {"note": 0, "velocity": 0, "duration": 64}, {"note": 60, "velocity": 79, "duration": 49}, {"note": 0, "velocity": 0, "duration": 71}, {"note": 60, "velocity": 82, "duration": 83}, {"note": 58, "velocity": 86, "duration": 70}, {"note": 60, "velocity": 95, "duration": 112}, {"note": 0, "velocity": 0, "duration": 128}, {"note": 58, "velocity": 102, "duration": 622}, {"note": 0, "velocity": 0, "duration": 578}, {"note": 58, "velocity": 100, "duration": 145}, {"note": 0, "velocity": 0, "duration": 95}, {"note": 65, "velocity": 107, "duration": 105}, {"note": 0, "velocity": 0, "duration": 135}, {"note": 65, "velocity": 112, "duration": 552}, {"note": 0, "velocity": 0, "duration": 168}, {"note": 63, "velocity": 122, "duration": 135}, {"note": 62, "velocity": 82, "duration": 125}, {"note": 60, "velocity": 96, "duration": 321}, {"note": 0, "velocity": 0, "duration": 159}, {"note": 60, "velocity": 93, "duration": 49}, {"note": 0, "velocity": 0, "duration": 71}, {"note": 60, "velocity": 92, "duration": 51}, {"note": 0, "velocity": 0, "duration": 69}, {"note": 60, "velocity": 92, "duration": 94}, {"note": 58, "velocity": 77, "duration": 134}, {"note": 62, "velocity": 100, "duration": 97}, {"note": 0, "velocity": 0, "duration": 143}, {"note": 62, "velocity": 97, "duration": 264}, {"note": 63, "velocity": 107, "duration": 174}, {"note": 0, "velocity": 0, "duration": 66}, {"note": 62, "velocity": 92, "duration": 59}, {"note": 0, "velocity": 0, "duration": 61}, {"note": 60, "velocity": 96, "duration": 175}, {"note": 0, "velocity": 0, "duration": 65}, {"note": 58, "velocity": 83, "duration": 241}, {"note": 0, "velocity": 0, "duration": 119}, {"note": 58, "velocity": 99, "duration": 114}, {"note": 0, "velocity": 0, "duration": 126}, {"note": 62, "velocity": 93, "duration": 116}, {"note": 0, "velocity": 0, "duration": 124}, {"note": 62, "velocity": 97, "duration": 356}, {"note": 0, "velocity": 0, "duration": 364}, {"note": 65, "velocity": 79, "duration": 86}, {"note": 63, "velocity": 97, "duration": 84}, {"note": 60, "velocity": 85, "duration": 164}, {"note": 0, "velocity": 0, "duration": 76}, {"note": 60, "velocity": 90, "duration": 243}, {"note": 0, "velocity": 0, "duration": 117}, {"note": 57, "velocity": 96, "duration": 143}, {"note": 0, "velocity": 0, "duration": 97}, {"note": 58, "velocity": 83, "duration": 80}, {"note": 60, "velocity": 95, "duration": 187}, {"note": 58, "velocity": 75, "duration": 465}, {"note": 0, "velocity": 0, "duration": 735}, {"note": 58, "velocity": 96, "duration": 156}, {"note": 0, "velocity": 0, "duration": 84}, {"note": 62, "velocity": 100, "duration": 227}, {"note": 57, "velocity": 112, "duration": 1056}, {"note": 0, "velocity": 0, "duration": 384}, {"note": 57, "velocity": 92, "duration": 113}, {"note": 58, "velocity": 92, "duration": 213}, {"note": 0, "velocity": 0, "duration": 147}, {"note": 60, "velocity": 95, "duration": 235}, {"note": 58, "velocity": 70, "duration": 1013}, {"note": 0, "velocity": 0, "duration": 187}, {"note": 58, "velocity": 117, "duration": 169}, {"note": 0, "velocity": 0, "duration": 71}, {"note": 62, "velocity": 96, "duration": 182}, {"note": 57, "velocity": 96, "duration": 688}, {"note": 0, "velocity": 0, "duration": 632}, {"note": 57, "velocity": 82, "duration": 62}, {"note": 57, "velocity": 90, "duration": 129}, {"note": 0, "velocity": 0, "duration": 111}, {"note": 53, "velocity": 82, "duration": 70}, {"note": 57, "velocity": 86, "duration": 137}, {"note": 0, "velocity": 0, "duration": 103}, {"note": 55, "velocity": 86, "duration": 1326}, {"note": 58, "velocity": 107, "duration": 154}, {"note": 0, "velocity": 0, "duration": 86}, {"note": 65, "velocity": 112, "duration": 155}, {"note": 0, "velocity": 0, "duration": 85}, {"note": 65, "velocity": 107, "duration": 714}, {"note": 63, "velocity": 117, "duration": 115}, {"note": 62, "velocity": 72, "duration": 121}, {"note": 60, "velocity": 100, "duration": 396}, {"note": 0, "velocity": 0, "duration": 84}, {"note": 60, "velocity": 95, "duration": 49}, {"note": 0, "velocity": 0, "duration": 71}, {"note": 60, "velocity": 88, "duration": 49}, {"note": 0, "velocity": 0, "duration": 71}, {"note": 60, "velocity": 88, "duration": 68}, {"note": 58, "velocity": 100, "duration": 128}, {"note": 62, "velocity": 100, "duration": 132}, {"note": 0, "velocity": 0, "duration": 108}, {"note": 62, "velocity": 122, "duration": 123}, {"note": 0, "velocity": 0, "duration": 117}, {"note": 58, "velocity": 96, "duration": 62}, {"note": 60, "velocity": 89, "duration": 129}, {"note": 0, "velocity": 0, "duration": 111}, {"note": 58, "velocity": 102, "duration": 206}, {"note": 0, "velocity": 0, "duration": 394}, {"note": 58, "velocity": 102, "duration": 137}, {"note": 0, "velocity": 0, "duration": 103}, {"note": 65, "velocity": 97, "duration": 117}, {"note": 0, "velocity": 0, "duration": 123}, {"note": 65, "velocity": 112, "duration": 519}, {"note": 0, "velocity": 0, "duration": 201}, {"note": 63, "velocity": 122, "duration": 124}, {"note": 62, "velocity": 71, "duration": 118}, {"note": 60, "velocity": 97, "duration": 314}, {"note": 0, "velocity": 0, "duration": 166}, {"note": 60, "velocity": 92, "duration": 56}, {"note": 0, "velocity": 0, "duration": 64}, {"note": 60, "velocity": 79, "duration": 49}, {"note": 0, "velocity": 0, "duration": 71}, {"note": 60, "velocity": 82, "duration": 83}, {"note": 58, "velocity": 86, "duration": 70}, {"note": 60, "velocity": 95, "duration": 112}, {"note": 0, "velocity": 0, "duration": 128}, {"note": 58, "velocity": 102, "duration": 622}, {"note": 0, "velocity": 0, "duration": 578}, {"note": 58, "velocity": 100, "duration": 145}, {"note": 0, "velocity": 0, "duration": 95}, {"note": 65, "velocity": 107, "duration": 105}, {"note": 0, "velocity": 0, "duration": 135}, {"note": 65, "velocity": 112, "duration": 552}, {"note": 0, "velocity": 0, "duration": 168}, {"note": 63, "velocity": 122, "duration": 135}, {"note": 62, "velocity": 82, "duration": 125}, {"note": 60, "velocity": 96, "duration": 321}, {"note": 0, "velocity": 0, "duration": 159}, {"note": 60, "velocity": 93, "duration": 49}, {"note": 0, "velocity": 0, "duration": 71}, {"note": 60, "velocity": 92, "duration": 51}, {"note": 0, "velocity": 0, "duration": 69}, {"note": 60, "velocity": 92, "duration": 94}, {"note": 58, "velocity": 77, "duration": 134}, {"note": 62, "velocity": 100, "duration": 97}, {"note": 0, "velocity": 0, "duration": 143}, {"note": 62, "velocity": 97, "duration": 264}, {"note": 63, "velocity": 107, "duration": 174}, {"note": 0, "velocity": 0, "duration": 66}, {"note": 62, "velocity": 92, "duration": 59}, {"note": 0, "velocity": 0, "duration": 61}, {"note": 60, "velocity": 96, "duration": 175}, {"note": 0, "velocity": 0, "duration": 65}, {"note": 58, "velocity": 83, "duration": 241}, {"note": 0, "velocity": 0, "duration": 119}, {"note": 58, "velocity": 99, "duration": 114}, {"note": 0, "velocity": 0, "duration": 126}, {"note": 62, "velocity": 93, "duration": 116}, {"note": 0, "velocity": 0, "duration": 124}, {"note": 62, "velocity": 97, "duration": 356}, {"note": 0, "velocity": 0, "duration": 364}, {"note": 65, "velocity": 79, "duration": 86}, {"note": 63, "velocity": 97, "duration": 84}, {"note": 60, "velocity": 85, "duration": 164}, {"note": 0, "velocity": 0, "duration": 76}, {"note": 60, "velocity": 90, "duration": 243}, {"note": 0, "velocity": 0, "duration": 117}, {"note": 57, "velocity": 96, "duration": 143}, {"note": 0, "velocity": 0, "duration": 97}, {"note": 58, "velocity": 83, "duration": 80}, {"note": 60, "velocity": 95, "duration": 187}, {"note": 58, "velocity": 75, "duration": 465}, {"note": 0, "velocity": 0, "duration": 735}, {"note": 58, "velocity": 96, "duration": 156}, {"note": 0, "velocity": 0, "duration": 84}, {"note": 62, "velocity": 100, "duration": 227}, {"note": 57, "velocity": 112, "duration": 1056}, {"note": 0, "velocity": 0, "duration": 384}, {"note": 57, "velocity": 92, "duration": 113}, {"note": 58, "velocity": 92, "duration": 213}, {"note": 0, "velocity": 0, "duration": 147}, {"note": 60, "velocity": 95, "duration": 235}, {"note": 58, "velocity": 70, "duration": 1013}, {"note": 0, "velocity": 0, "duration": 187}, {"note": 58, "velocity": 117, "duration": 169}, {"note": 0, "velocity": 0, "duration": 71}, {"note": 62, "velocity": 96, "duration": 182}, {"note": 57, "velocity": 96, "duration": 688}, {"note": 0, "velocity": 0, "duration": 632}, {"note": 57, "velocity": 82, "duration": 62}, {"note": 57, "velocity": 90, "duration": 129}, {"note": 0, "velocity": 0, "duration": 111}, {"note": 53, "velocity": 82, "duration": 70}, {"note": 57, "velocity": 86, "duration": 137}, {"note": 0, "velocity": 0, "duration": 103}, {"note": 55, "velocity": 86, "duration": 1326}]]