[[{"note": 58, "velocity": 83, "duration": 209}, {"note": 63, "velocity": 82, "duration": 160}, {"note": 0, "velocity": 0, "duration": 80}, {"note": 63, "velocity": 90, "duration": 411}, {"note": 0, "velocity": 0, "duration": 69}, {"note": 65, "velocity": 86, "duration": 365}, {"note": 0, "velocity": 0, "duration": 115}, {"note": 65, "velocity": 83, "duration": 380}, {"note": 0, "velocity": 0, "duration": 100}, {"note": 65, "velocity": 75, "duration": 227}, {"note": 70, "velocity": 97, "duration": 254}, {"note": 67, "velocity": 76, "duration": 400}, {"note": 65, "velocity": 81, "duration": 229}, {"note": 63, "velocity": 58, "duration": 654}, {"note": 0, "velocity": 0, "duration": 546}, {"note": 58, "velocity": 73, "duration": 180}, {"note": 63, "velocity": 82, "duration": 164}, {"note": 0, "velocity": 0, "duration": 76}, {"note": 63, "velocity": 88, "duration": 327}, {"note": 0, "velocity": 0, "duration": 153}, {"note": 63, "velocity": 58, "duration": 275}, {"note": 65, "velocity": 66, "duration": 292}, {"note": 0, "velocity": 0, "duration": 68}, {"note": 65, "velocity": 66, "duration": 395}, {"note": 68, "velocity": 90, "duration": 414}, {"note": 0, "velocity": 0, "duration": 66}, {"note": 67, "velocity": 79, "duration": 617}, {"note": 0, "velocity": 0, "duration": 583}, {"note": 58, "velocity": 62, "duration": 252}, {"note": 63, "velocity": 75, "duration": 167}, {"note": 0, "velocity": 0, "duration": 73}, {"note": 63, "velocity": 79, "duration": 431}, {"note": 63, "velocity": 63, "duration": 200}, {"note": 65, "velocity": 69, "duration": 173}, {"note": 0, "velocity": 0, "duration": 67}, {"note": 65, "velocity": 78, "duration": 398}, {"note": 0, "velocity": 0, "duration": 82}, {"note": 65, "velocity": 77, "duration": 173}, {"note": 0, "velocity": 0, "duration": 67}, {"note": 70, "velocity": 72, "duration": 221}, {"note": 67, "velocity": 59, "duration": 180}, {"note": 67, "velocity": 27, "duration": 186}, {"note": 63, "velocity": 72, "duration": 693}, {"note": 0, "velocity": 0, "duration": 507}, {"note": 67, "velocity": 86, "duration": 115}, {"note": 70, "velocity": 77, "duration": 140}, {"note": 72, "velocity": 85, "duration": 322}, {"note": 72, "velocity": 90, "duration": 244}, {"note": 0, "velocity": 0, "duration": 116}, {"note": 75, "velocity": 92, "duration": 324}, {"note": 0, "velocity": 0, "duration": 156}, {"note": 75, "velocity": 92, "duration": 151}, {"note": 0, "velocity": 0, "duration": 89}, {"note": 75, "velocity": 100, "duration": 158}, {"note": 0, "velocity": 0, "duration": 82}, {"note": 75, "velocity": 90, "duration": 185}, {"note": 72, "velocity": 81, "duration": 371}, {"note": 70, "velocity": 74, "duration": 670}, {"note": 0, "velocity": 0, "duration": 410}, {"note": 70, "velocity": 89, "duration": 178}, {"note": 0, "velocity": 0, "duration": 62}, {"note": 77, "velocity": 96, "duration": 410}, {"note": 0, "velocity": 0, "duration": 70}, {"note": 75, "velocity": 92, "duration": 815}, {"note": 0, "velocity": 0, "duration": 385}, {"note": 63, "velocity": 85, "duration": 185}, {"note": 72, "velocity": 78, "duration": 470}, {"note": 70, "velocity": 83, "duration": 792}, {"note": 0, "velocity": 0, "duration": 408}, {"note": 58, "velocity": 79, "duration": 301}, {"note": 67, "velocity": 69, "duration": 265}, {"note": 65, "velocity": 69, "duration": 624}, {"note": 0, "velocity": 0, "duration": 96}, {"note": 65, "velocity": 79, "duration": 138}, {"note": 0, "velocity": 0, "duration": 102}, {"note": 65, "velocity": 79, "duration": 422}, {"note": 0, "velocity": 0, "duration": 298}, {"note": 63, "velocity": 86, "duration": 227}, {"note": 62, "velocity": 67, "duration": 330}, {"note": 60, "velocity": 66, "duration": 919}, {"note": 0, "velocity": 0, "duration": 281}, {"note": 70, "velocity": 99, "duration": 196}, {"note": 77, "velocity": 97, "duration": 282}, {"note": 0, "velocity": 0, "duration": 198}, {"note": 75, "velocity": 107, "duration": 668}, {"note": 0, "velocity": 0, "duration": 532}, {"note": 63, "velocity": 90, "duration": 294}, {"note": 72, "velocity": 70, "duration": 477}, {"note": 70, "velocity": 73, "duration": 920}, {"note": 0, "velocity": 0, "duration": 280}, {"note": 58, "velocity": 79, "duration": 333}, {"note": 67, "velocity": 67, "duration": 285}, {"note": 65, "velocity": 65, "duration": 706}, {"note": 65, "velocity": 72, "duration": 165}, {"note": 0, "velocity": 0, "duration": 75}, {"note": 65, "velocity": 88, "duration": 582}, {"note": 63, "velocity": 93, "duration": 220}, {"note": 65, "velocity": 66, "duration": 263}, {"note": 63, "velocity": 67, "duration": 1281}, {"note": 0, "velocity": 0, "duration": 159}, {"note": 58, "velocity": 86, "duration": 187}, {"note": 63, "velocity": 71, "duration": 121}, {"note": 0, "velocity": 0, "duration": 119}, {"note": 63, "velocity": 85, "duration": 413}, {"note": 0, "velocity": 0, "duration": 67}, {"note": 63, "velocity": 81, "duration": 246}, {"note": 65, "velocity": 81, "duration": 140}, {"note": 0, "velocity": 0, "duration": 100}, {"note": 65, "velocity": 90, "duration": 374}, {"note": 0, "velocity": 0, "duration": 106}, {"note": 65, "velocity": 93, "duration": 202}, {"note": 70, "velocity": 92, "duration": 197}, {"note": 67, "velocity": 88, "duration": 210}, {"note": 65, "velocity": 75, "duration": 285}, {"note": 63, "velocity": 90, "duration": 585}, {"note": 0, "velocity": 0, "duration": 615}, {"note": 58, "velocity": 64, "duration": 247}, {"note": 63, "velocity": 89, "duration": 216}, {"note": 63, "velocity": 89, "duration": 347}, {"note": 0, "velocity": 0, "duration": 133}, {"note": 63, "velocity": 75, "duration": 256}, {"note": 65, "velocity": 85, "duration": 192}, {"note": 65, "velocity": 88, "duration": 361}, {"note": 0, "velocity": 0, "duration": 119}, {"note": 67, "velocity": 65, "duration": 254}, {"note": 68, "velocity": 86, "duration": 334}, {"note": 67, "velocity": 77, "duration": 1064}, {"note": 0, "velocity": 0, "duration": 136}, {"note": 58, "velocity": 82, "duration": 235}, {"note": 63, "velocity": 78, "duration": 160}, {"note": 0, "velocity": 0, "duration": 80}, {"note": 63, "velocity": 89, "duration": 397}, {"note": 0, "velocity": 0, "duration": 83}, {"note": 63, "velocity": 92, "duration": 213}, {"note": 65, "velocity": 75, "duration": 204}, {"note": 65, "velocity": 90, "duration": 332}, {"note": 0, "velocity": 0, "duration": 148}, {"note": 65, "velocity": 70, "duration": 267}, {"note": 70, "velocity": 88, "duration": 244}, {"note": 67, "velocity": 74, "duration": 239}, {"note": 65, "velocity": 68, "duration": 275}, {"note": 63, "velocity": 82, "duration": 714}, {"note": 0, "velocity": 0, "duration": 486}, {"note": 67, "velocity": 76, "duration": 139}, {"note": 70, "velocity": 83, "duration": 146}, {"note": 72, "velocity": 85, "duration": 284}, {"note": 0, "velocity": 0, "duration": 76}, {"note": 72, "velocity": 77, "duration": 260}, {"note": 0, "velocity": 0, "duration": 100}, {"note": 75, "velocity": 96, "duration": 302}, {"note": 0, "velocity": 0, "duration": 178}, {"note": 75, "velocity": 97, "duration": 147}, {"note": 0, "velocity": 0, "duration": 93}, {"note": 75, "velocity": 93, "duration": 100}, {"note": 0, "velocity": 0, "duration": 140}, {"note": 75, "velocity": 89, "duration": 369}, {"note": 0, "velocity": 0, "duration": 111}, {"note": 72, "velocity": 88, "duration": 240}, {"note": 70, "velocity": 95, "duration": 734}, {"note": 0, "velocity": 0, "duration": 226}, {"note": 70, "velocity": 99, "duration": 196}, {"note": 77, "velocity": 97, "duration": 282}, {"note": 0, "velocity": 0, "duration": 198}, {"note": 75, "velocity": 107, "duration": 668}, {"note": 0, "velocity": 0, "duration": 532}, {"note": 63, "velocity": 90, "duration": 294}, {"note": 72, "velocity": 70, "duration": 477}, {"note": 70, "velocity": 73, "duration": 920}, {"note": 0, "velocity": 0, "duration": 280}, {"note": 58, "velocity": 79, "duration": 333}, {"note": 67, "velocity": 67, "duration": 285}, {"note": 65, "velocity": 65, "duration": 706}, {"note": 65, "velocity": 72, "duration": 165}, {"note": 0, "velocity": 0, "duration": 75}, {"note": 65, "velocity": 88, "duration": 582}, {"note": 0, "velocity": 0, "duration": 138}, {"note": 63, "velocity": 99, "duration": 236}, {"note": 62, "velocity": 71, "duration": 261}, {"note": 60, "velocity": 79, "duration": 870}, {"note": 0, "velocity": 0, "duration": 330}, {"note": 70, "velocity": 99, "duration": 196}, {"note": 77, "velocity": 97, "duration": 282}, {"note": 0, "velocity": 0, "duration": 198}, {"note": 75, "velocity": 107, "duration": 668}, {"note": 0, "velocity": 0, "duration": 532}, {"note": 63, "velocity": 90, "duration": 294}, {"note": 72, "velocity": 70, "duration": 477}, {"note": 70, "velocity": 73, "duration": 920}, {"note": 0, "velocity": 0, "duration": 280}, {"note": 58, "velocity": 79, "duration": 333}, {"note": 67, "velocity": 67, "duration": 285}, {"note": 65, "velocity": 65, "duration": 706}, {"note": 65, "velocity": 72, "duration": 165}, {"note": 0, "velocity": 0, "duration": 75}, {"note": 65, "velocity": 88, "duration": 582}, {"note": 63, "velocity": 93, "duration": 220}, {"note": 65, "velocity": 66, "duration": 263}, {"note": 63, "velocity": 67, "duration": 1281}, {"note": 0, "velocity": 0, "duration": 639}, {"note": 67, "velocity": 112, "duration": 1103}, {"note": 0, "velocity": 0, "duration": 217}, {"note": 67, "velocity": 100, "duration": 125}, {"note": 65, "velocity": 95, "duration": 227}, {"note": 63, "velocity": 93, "duration": 229}, {"note": 65, "velocity": 95, "duration": 256}, {"note": 70, "velocity": 112, "duration": 90}, {"note": 0, "velocity": 0, "duration": 150}, {"note": 70, "velocity": 122, "duration": 615}, {"note": 0, "velocity": 0, "duration": 345}, {"note": 72, "velocity": 97, "duration": 218}, {"note": 74, "velocity": 100, "duration": 179}, {"note": 0, "velocity": 0, "duration": 61}, {"note": 75, "velocity": 122, "duration": 597}, {"note": 0, "velocity": 0, "duration": 603}, {"note": 75, "velocity": 102, "duration": 269}, {"note": 0, "velocity": 0, "duration": 211}, {"note": 74, "velocity": 112, "duration": 204}, {"note": 72, "velocity": 100, "duration": 232}, {"note": 67, "velocity": 96, "duration": 592}, {"note": 0, "velocity": 0, "duration": 368}, {"note": 70, "velocity": 82, "duration": 59}, {"note": 0, "velocity": 0, "duration": 61}, {"note": 70, "velocity": 78, "duration": 67}, {"note": 70, "velocity": 77, "duration": 113}, {"note": 0, "velocity": 0, "duration": 127}, {"note": 77, "velocity": 102, "duration": 390}, {"note": 0, "velocity": 0, "duration": 90}, {"note": 75, "velocity": 99, "duration": 758}, {"note": 0, "velocity": 0, "duration": 202}, {"note": 63, "velocity": 90, "duration": 40}, {"note": 0, "velocity": 0, "duration": 80}, {"note": 63, "velocity": 75, "duration": 48}, {"note": 0, "velocity": 0, "duration": 72}, {"note": 63, "velocity": 117, "duration": 91}, {"note": 0, "velocity": 0, "duration": 149}, {"note": 72, "velocity": 107, "duration": 411}, {"note": 0, "velocity": 0, "duration": 69}, {"note": 70, "velocity": 97, "duration": 675}, {"note": 0, "velocity": 0, "duration": 525}, {"note": 68, "velocity": 107, "duration": 197}, {"note": 67, "velocity": 88, "duration": 213}, {"note": 65, "velocity": 102, "duration": 929}, {"note": 0, "velocity": 0, "duration": 271}, {"note": 65, "velocity": 102, "duration": 168}, {"note": 0, "velocity": 0, "duration": 72}, {"note": 67, "velocity": 97, "duration": 294}, {"note": 65, "velocity": 72, "duration": 102}, {"note": 0, "velocity": 0, "duration": 138}, {"note": 65, "velocity": 100, "duration": 959}, {"note": 0, "velocity": 0, "duration": 961}, {"note": 67, "velocity": 112, "duration": 1103}, {"note": 0, "velocity": 0, "duration": 97}, {"note": 67, "velocity": 107, "duration": 58}, {"note": 0, "velocity": 0, "duration": 62}, {"note": 67, "velocity": 100, "duration": 125}, {"note": 65, "velocity": 95, "duration": 227}, {"note": 63, "velocity": 93, "duration": 229}, {"note": 65, "velocity": 95, "duration": 256}, {"note": 70, "velocity": 112, "duration": 90}, {"note": 0, "velocity": 0, "duration": 150}, {"note": 70, "velocity": 122, "duration": 615}, {"note": 0, "velocity": 0, "duration": 345}, {"note": 72, "velocity": 97, "duration": 218}, {"note": 74, "velocity": 100, "duration": 179}, {"note": 0, "velocity": 0, "duration": 61}, {"note": 75, "velocity": 122, "duration": 960}, {"note": 0, "velocity": 0, "duration": 240}, {"note": 75, "velocity": 102, "duration": 269}, {"note": 0, "velocity": 0, "duration": 211}, {"note": 74, "velocity": 112, "duration": 204}, {"note": 72, "velocity": 100, "duration": 232}, {"note": 70, "velocity": 112, "duration": 80}, {"note": 0, "velocity": 0, "duration": 160}, {"note": 67, "velocity": 100, "duration": 429}, {"note": 0, "velocity": 0, "duration": 291}, {"note": 70, "velocity": 82, "duration": 59}, {"note": 0, "velocity": 0, "duration": 61}, {"note": 70, "velocity": 78, "duration": 67}, {"note": 70, "velocity": 77, "duration": 113}, {"note": 0, "velocity": 0, "duration": 127}, {"note": 77, "velocity": 102, "duration": 390}, {"note": 0, "velocity": 0, "duration": 90}, {"note": 75, "velocity": 99, "duration": 758}, {"note": 0, "velocity": 0, "duration": 202}, {"note": 63, "velocity": 90, "duration": 40}, {"note": 0, "velocity": 0, "duration": 80}, {"note": 63, "velocity": 75, "duration": 48}, {"note": 0, "velocity": 0, "duration": 72}, {"note": 63, "velocity": 117, "duration": 91}, {"note": 0, "velocity": 0, "duration": 149}, {"note": 72, "velocity": 107, "duration": 411}, {"note": 0, "velocity": 0, "duration": 69}, {"note": 70, "velocity": 97, "duration": 1200}, {"note": 68, "velocity": 107, "duration": 197}, {"note": 67, "velocity": 88, "duration": 213}, {"note": 65, "velocity": 102, "duration": 690}, {"note": 65, "velocity": 102, "duration": 116}, {"note": 0, "velocity": 0, "duration": 124}, {"note": 65, "velocity": 97, "duration": 300}, {"note": 0, "velocity": 0, "duration": 180}, {"note": 63, "velocity": 100, "duration": 257}, {"note": 65, "velocity": 97, "duration": 239}, {"note": 63, "velocity": 102, "duration": 1335}, {"note": 0, "velocity": 0, "duration": 105}, {"note": 58, "velocity": 117, "duration": 115}, {"note": 0, "velocity": 0, "duration": 125}, {"note": 63, "velocity": 99, "duration": 109}, {"note": 0, "velocity": 0, "duration": 131}, {"note": 63, "velocity": 96, "duration": 325}, {"note": 0, "velocity": 0, "duration": 155}, {"note": 63, "velocity": 102, "duration": 255}, {"note": 0, "velocity": 0, "duration": 105}, {"note": 65, "velocity": 89, "duration": 70}, {"note": 65, "velocity": 97, "duration": 364}, {"note": 0, "velocity": 0, "duration": 116}, {"note": 70, "velocity": 117, "duration": 172}, {"note": 0, "velocity": 0, "duration": 188}, {"note": 67, "velocity": 92, "duration": 66}, {"note": 67, "velocity": 83, "duration": 183}, {"note": 63, "velocity": 95, "duration": 671}, {"note": 0, "velocity": 0, "duration": 529}, {"note": 58, "velocity": 96, "duration": 266}, {"note": 0, "velocity": 0, "duration": 214}, {"note": 63, "velocity": 117, "duration": 330}, {"note": 0, "velocity": 0, "duration": 150}, {"note": 63, "velocity": 97, "duration": 214}, {"note": 0, "velocity": 0, "duration": 146}, {"note": 63, "velocity": 99, "duration": 85}, {"note": 65, "velocity": 97, "duration": 277}, {"note": 0, "velocity": 0, "duration": 203}, {"note": 67, "velocity": 107, "duration": 190}, {"note": 0, "velocity": 0, "duration": 170}, {"note": 68, "velocity": 99, "duration": 125}, {"note": 67, "velocity": 89, "duration": 1440}, {"note": 58, "velocity": 96, "duration": 266}, {"note": 0, "velocity": 0, "duration": 214}, {"note": 63, "velocity": 117, "duration": 330}, {"note": 0, "velocity": 0, "duration": 150}, {"note": 63, "velocity": 97, "duration": 214}, {"note": 0, "velocity": 0, "duration": 146}, {"note": 63, "velocity": 99, "duration": 85}, {"note": 65, "velocity": 97, "duration": 277}, {"note": 0, "velocity": 0, "duration": 203}, {"note": 70, "velocity": 97, "duration": 173}, {"note": 0, "velocity": 0, "duration": 187}, {"note": 67, "velocity": 95, "duration": 58}, {"note": 0, "velocity": 0, "duration": 62}, {"note": 67, "velocity": 85, "duration": 151}, {"note": 0, "velocity": 0, "duration": 89}, {"note": 63, "velocity": 97, "duration": 718}, {"note": 0, "velocity": 0, "duration": 482}, {"note": 67, "velocity": 102, "duration": 219}, {"note": 70, "velocity": 100, "duration": 221}, {"note": 72, "velocity": 112, "duration": 236}, {"note": 0, "velocity": 0, "duration": 244}, {"note": 72, "velocity": 107, "duration": 203}, {"note": 75, "velocity": 107, "duration": 43}, {"note": 0, "velocity": 0, "duration": 197}, {"note": 75, "velocity": 112, "duration": 249}, {"note": 0, "velocity": 0, "duration": 231}, {"note": 75, "velocity": 107, "duration": 274}, {"note": 0, "velocity": 0, "duration": 86}, {"note": 72, "velocity": 102, "duration": 75}, {"note": 74, "velocity": 112, "duration": 141}, {"note": 0, "velocity": 0, "duration": 99}, {"note": 70, "velocity": 102, "duration": 832}, {"note": 0, "velocity": 0, "duration": 368}, {"note": 70, "velocity": 99, "duration": 196}, {"note": 77, "velocity": 97, "duration": 282}, {"note": 0, "velocity": 0, "duration": 198}, {"note": 75, "velocity": 107, "duration": 668}, {"note": 0, "velocity": 0, "duration": 532}, {"note": 63, "velocity": 90, "duration": 294}, {"note": 72, "velocity": 70, "duration": 477}, {"note": 70, "velocity": 73, "duration": 920}, {"note": 0, "velocity": 0, "duration": 280}, {"note": 58, "velocity": 79, "duration": 333}, {"note": 67, "velocity": 67, "duration": 285}, {"note": 65, "velocity": 65, "duration": 706}, {"note": 65, "velocity": 72, "duration": 165}, {"note": 0, "velocity": 0, "duration": 75}, {"note": 65, "velocity": 88, "duration": 582}, {"note": 0, "velocity": 0, "duration": 138}, {"note": 63, "velocity": 99, "duration": 236}, {"note": 62, "velocity": 71, "duration": 261}, {"note": 60, "velocity": 79, "duration": 870}, {"note": 0, "velocity": 0, "duration": 330}, {"note": 70, "velocity": 99, "duration": 196}, {"note": 77, "velocity": 97, "duration": 282}, {"note": 0, "velocity": 0, "duration": 198}, {"note": 75, "velocity": 107, "duration": 668}, {"note": 0, "velocity": 0, "duration": 532}, {"note": 63, "velocity": 90, "duration": 294}, {"note": 72, "velocity": 70, "duration": 477}, {"note": 70, "velocity": 73, "duration": 920}, {"note": 0, "velocity": 0, "duration": 280}, {"note": 58, "velocity": 79, "duration": 333}, {"note": 67, "velocity": 67, "duration": 285}, {"note": 65, "velocity": 65, "duration": 706}, {"note": 65, "velocity": 72, "duration": 165}, {"note": 0, "velocity": 0, "duration": 75}, {"note": 65, "velocity": 88, "duration": 582}, {"note": 63, "velocity": 93, "duration": 220}, {"note": 65, "velocity": 66, "duration": 263}, {"note": 63, "velocity": 67, "duration": 1281}, {"note": 0, "velocity": 0, "duration": 639}, {"note": 67, "velocity": 112, "duration": 1103}, {"note": 0, "velocity": 0, "duration": 217}, {"note": 67, "velocity": 100, "duration": 125}, {"note": 65, "velocity": 95, "duration": 227}, {"note": 63, "velocity": 93, "duration": 229}, {"note": 65, "velocity": 95, "duration": 256}, {"note": 70, "velocity": 112, "duration": 90}, {"note": 0, "velocity": 0, "duration": 150}, {"note": 70, "velocity": 122, "duration": 615}, {"note": 0, "velocity": 0, "duration": 345}, {"note": 72, "velocity": 97, "duration": 218}, {"note": 74, "velocity": 100, "duration": 179}, {"note": 0, "velocity": 0, "duration": 61}, {"note": 75, "velocity": 122, "duration": 597}, {"note": 0, "velocity": 0, "duration": 603}, {"note": 75, "velocity": 102, "duration": 269}, {"note": 0, "velocity": 0, "duration": 211}, {"note": 74, "velocity": 112, "duration": 204}, {"note": 72, "velocity": 100, "duration": 232}, {"note": 67, "velocity": 96, "duration": 592}, {"note": 0, "velocity": 0, "duration": 368}, {"note": 70, "velocity": 82, "duration": 59}, {"note": 0, "velocity": 0, "duration": 61}, {"note": 70, "velocity": 78, "duration": 67}, {"note": 70, "velocity": 77, "duration": 113}, {"note": 0, "velocity": 0, "duration": 127}, {"note": 77, "velocity": 102, "duration": 390}, {"note": 0, "velocity": 0, "duration": 90}, {"note": 75, "velocity": 99, "duration": 758}, {"note": 0, "velocity": 0, "duration": 202}, {"note": 63, "velocity": 90, "duration": 40}, {"note": 0, "velocity": 0, "duration": 80}, {"note": 63, "velocity": 75, "duration": 48}, {"note": 0, "velocity": 0, "duration": 72}, {"note": 63, "velocity": 117, "duration": 91}, {"note": 0, "velocity": 0, "duration": 149}, {"note": 72, "velocity": 107, "duration": 411}, {"note": 0, "velocity": 0, "duration": 69}, {"note": 70, "velocity": 97, "duration": 675}, {"note": 0, "velocity": 0, "duration": 525}, {"note": 68, "velocity": 107, "duration": 197}, {"note": 67, "velocity": 88, "duration": 213}, {"note": 65, "velocity": 102, "duration": 929}, {"note": 0, "velocity": 0, "duration": 271}, {"note": 65, "velocity": 102, "duration": 168}, {"note": 0, "velocity": 0, "duration": 72}, {"note": 67, "velocity": 97, "duration": 294}, {"note": 65, "velocity": 72, "duration": 102}, {"note": 0, "velocity": 0, "duration": 138}, {"note": 65, "velocity": 100, "duration": 959}, {"note": 0, "velocity": 0, "duration": 961}, {"note": 67, "velocity": 112, "duration": 1103}, {"note": 0, "velocity": 0, "duration": 97}, {"note": 67, "velocity": 107, "duration": 58}, {"note": 0, "velocity": 0, "duration": 62}, {"note": 67, "velocity": 100, "duration": 125}, {"note": 65, "velocity": 95, "duration": 227}, {"note": 63, "velocity": 93, "duration": 229}, {"note": 65, "velocity": 95, "duration": 256}, {"note": 70, "velocity": 112, "duration": 90}, {"note": 0, "velocity": 0, "duration": 150}, {"note": 70, "velocity": 122, "duration": 615}, {"note": 0, "velocity": 0, "duration": 345}, {"note": 72, "velocity": 97, "duration": 218}, {"note": 74, "velocity": 100, "duration": 179}, {"note": 0, "velocity": 0, "duration": 61}, {"note": 75, "velocity": 122, "duration": 960}, {"note": 0, "velocity": 0, "duration": 240}, {"note": 75, "velocity": 102, "duration": 269}, {"note": 0, "velocity": 0, "duration": 211}, {"note": 74, "velocity": 112, "duration": 204}, {"note": 72, "velocity": 100, "duration": 232}, {"note": 70, "velocity": 112, "duration": 80}, {"note": 0, "velocity": 0, "duration": 160}, {"note": 67, "velocity": 100, "duration": 429}, {"note": 0, "velocity": 0, "duration": 291}, {"note": 70, "velocity": 82, "duration": 59}, {"note": 0, "velocity": 0, "duration": 61}, {"note": 70, "velocity": 78, "duration": 67}, {"note": 70, "velocity": 77, "duration": 113}, {"note": 0, "velocity": 0, "duration": 127}, {"note": 77, "velocity": 102, "duration": 390}, {"note": 0, "velocity": 0, "duration": 90}, {"note": 75, "velocity": 99, "duration": 758}, {"note": 0, "velocity": 0, "duration": 202}, {"note": 63, "velocity": 90, "duration": 40}, {"note": 0, "velocity": 0, "duration": 80}, {"note": 63, "velocity": 75, "duration": 48}, {"note": 0, "velocity": 0, "duration": 72}, {"note": 63, "velocity": 117, "duration": 91}, {"note": 0, "velocity": 0, "duration": 149}, {"note": 72, "velocity": 107, "duration": 411}, {"note": 0, "velocity": 0, "duration": 69}, {"note": 70, "velocity": 97, "duration": 1200}, {"note": 58, "velocity": 107, "duration": 197}, {"note": 67, "velocity": 88, "duration": 213}, {"note": 65, "velocity": 102, "duration": 690}, {"note": 65, "velocity": 102, "duration": 116}, {"note": 0, "velocity": 0, "duration": 124}, {"note": 65, "velocity": 97, "duration": 300}, {"note": 0, "velocity": 0, "duration": 180}, {"note": 63, "velocity": 100, "duration": 257}, {"note": 65, "velocity": 97, "duration": 239}, {"note": 63, "velocity": 102, "duration": 1335}, {"note": 70, "velocity": 112, "duration": 46}, {"note": 70, "velocity": 93, "duration": 47}, {"note": 0, "velocity": 0, "duration": 73}, {"note": 70, "velocity": 107, "duration": 99}, {"note": 0, "velocity": 0, "duration": 141}, {"note": 77, "velocity": 100, "duration": 280}, {"note": 0, "velocity": 0, "duration": 200}, {"note": 75, "velocity": 112, "duration": 527}, {"note": 0, "velocity": 0, "duration": 433}, {"note": 63, "velocity": 99, "duration": 59}, {"note": 0, "velocity": 0, "duration": 61}, {"note": 63, "velocity": 72, "duration": 60}, {"note": 63, "velocity": 71, "duration": 99}, {"note": 0, "velocity": 0, "duration": 141}, {"note": 72, "velocity": 102, "duration": 385}, {"note": 0, "velocity": 0, "duration": 95}, {"note": 70, "velocity": 107, "duration": 747}, {"note": 0, "velocity": 0, "duration": 453}, {"note": 58, "velocity": 112, "duration": 198}, {"note": 67, "velocity": 100, "duration": 238}, {"note": 0, "velocity": 0, "duration": 122}, {"note": 65, "velocity": 127, "duration": 602}, {"note": 0, "velocity": 0, "duration": 262}, {"note": 65, "velocity": 107, "duration": 179}, {"note": 0, "velocity": 0, "duration": 133}, {"note": 65, "velocity": 112, "duration": 1031}, {"note": 63, "velocity": 102, "duration": 404}, {"note": 65, "velocity": 82, "duration": 860}, {"note": 63, "velocity": 97, "duration": 3078}]]