[[{"note": 63, "velocity": 102, "duration": 169}, {"note": 0, "velocity": 0, "duration": 71}, {"note": 63, "velocity": 112, "duration": 47}, {"note": 0, "velocity": 0, "duration": 73}, {"note": 63, "velocity": 107, "duration": 144}, {"note": 61, "velocity": 122, "duration": 29}, {"note": 0, "velocity": 0, "duration": 91}, {"note": 61, "velocity": 112, "duration": 98}, {"note": 63, "velocity": 107, "duration": 46}, {"note": 0, "velocity": 0, "duration": 74}, {"note": 61, "velocity": 102, "duration": 110}, {"note": 59, "velocity": 78, "duration": 44}, {"note": 0, "velocity": 0, "duration": 76}, {"note": 58, "velocity": 100, "duration": 124}, {"note": 59, "velocity": 83, "duration": 342}, {"note": 0, "velocity": 0, "duration": 138}, {"note": 59, "velocity": 83, "duration": 89}, {"note": 54, "velocity": 75, "duration": 131}, {"note": 54, "velocity": 86, "duration": 11}, {"note": 0, "velocity": 0, "duration": 229}, {"note": 59, "velocity": 99, "duration": 236}, {"note": 0, "velocity": 0, "duration": 244}, {"note": 59, "velocity": 78, "duration": 107}, {"note": 54, "velocity": 72, "duration": 45}, {"note": 0, "velocity": 0, "duration": 75}, {"note": 54, "velocity": 70, "duration": 48}, {"note": 0, "velocity": 0, "duration": 72}, {"note": 54, "velocity": 85, "duration": 57}, {"note": 0, "velocity": 0, "duration": 63}, {"note": 59, "velocity": 93, "duration": 112}, {"note": 61, "velocity": 99, "duration": 202}, {"note": 0, "velocity": 0, "duration": 398}, {"note": 63, "velocity": 107, "duration": 36}, {"note": 0, "velocity": 0, "duration": 84}, {"note": 63, "velocity": 99, "duration": 39}, {"note": 0, "velocity": 0, "duration": 81}, {"note": 63, "velocity": 100, "duration": 29}, {"note": 0, "velocity": 0, "duration": 91}, {"note": 63, "velocity": 122, "duration": 105}, {"note": 61, "velocity": 89, "duration": 34}, {"note": 0, "velocity": 0, "duration": 86}, {"note": 61, "velocity": 117, "duration": 117}, {"note": 63, "velocity": 112, "duration": 42}, {"note": 0, "velocity": 0, "duration": 78}, {"note": 61, "velocity": 112, "duration": 109}, {"note": 59, "velocity": 86, "duration": 68}, {"note": 58, "velocity": 96, "duration": 106}, {"note": 59, "velocity": 88, "duration": 196}, {"note": 0, "velocity": 0, "duration": 284}, {"note": 59, "velocity": 83, "duration": 111}, {"note": 54, "velocity": 75, "duration": 88}, {"note": 54, "velocity": 92, "duration": 48}, {"note": 0, "velocity": 0, "duration": 192}, {"note": 59, "velocity": 93, "duration": 230}, {"note": 0, "velocity": 0, "duration": 130}, {"note": 59, "velocity": 88, "duration": 55}, {"note": 0, "velocity": 0, "duration": 65}, {"note": 59, "velocity": 82, "duration": 73}, {"note": 54, "velocity": 90, "duration": 104}, {"note": 54, "velocity": 86, "duration": 74}, {"note": 0, "velocity": 0, "duration": 166}, {"note": 61, "velocity": 107, "duration": 294}, {"note": 0, "velocity": 0, "duration": 426}, {"note": 63, "velocity": 93, "duration": 40}, {"note": 0, "velocity": 0, "duration": 80}, {"note": 63, "velocity": 97, "duration": 42}, {"note": 0, "velocity": 0, "duration": 78}, {"note": 63, "velocity": 100, "duration": 39}, {"note": 0, "velocity": 0, "duration": 81}, {"note": 63, "velocity": 122, "duration": 42}, {"note": 0, "velocity": 0, "duration": 78}, {"note": 61, "velocity": 90, "duration": 41}, {"note": 0, "velocity": 0, "duration": 79}, {"note": 61, "velocity": 100, "duration": 46}, {"note": 0, "velocity": 0, "duration": 74}, {"note": 63, "velocity": 89, "duration": 51}, {"note": 0, "velocity": 0, "duration": 69}, {"note": 61, "velocity": 100, "duration": 60}, {"note": 59, "velocity": 85, "duration": 43}, {"note": 0, "velocity": 0, "duration": 77}, {"note": 58, "velocity": 93, "duration": 110}, {"note": 59, "velocity": 89, "duration": 206}, {"note": 0, "velocity": 0, "duration": 274}, {"note": 59, "velocity": 83, "duration": 42}, {"note": 0, "velocity": 0, "duration": 78}, {"note": 54, "velocity": 95, "duration": 144}, {"note": 0, "velocity": 0, "duration": 96}, {"note": 54, "velocity": 96, "duration": 87}, {"note": 59, "velocity": 95, "duration": 215}, {"note": 59, "velocity": 107, "duration": 68}, {"note": 0, "velocity": 0, "duration": 172}, {"note": 59, "velocity": 92, "duration": 71}, {"note": 54, "velocity": 86, "duration": 170}, {"note": 0, "velocity": 0, "duration": 70}, {"note": 54, "velocity": 86, "duration": 94}, {"note": 61, "velocity": 107, "duration": 188}, {"note": 61, "velocity": 127, "duration": 87}, {"note": 0, "velocity": 0, "duration": 393}, {"note": 63, "velocity": 112, "duration": 44}, {"note": 0, "velocity": 0, "duration": 76}, {"note": 63, "velocity": 95, "duration": 45}, {"note": 0, "velocity": 0, "duration": 75}, {"note": 63, "velocity": 107, "duration": 46}, {"note": 0, "velocity": 0, "duration": 74}, {"note": 63, "velocity": 107, "duration": 59}, {"note": 0, "velocity": 0, "duration": 61}, {"note": 61, "velocity": 96, "duration": 42}, {"note": 0, "velocity": 0, "duration": 78}, {"note": 61, "velocity": 100, "duration": 74}, {"note": 63, "velocity": 89, "duration": 57}, {"note": 0, "velocity": 0, "duration": 63}, {"note": 61, "velocity": 112, "duration": 65}, {"note": 59, "velocity": 93, "duration": 136}, {"note": 58, "velocity": 93, "duration": 109}, {"note": 59, "velocity": 95, "duration": 233}, {"note": 0, "velocity": 0, "duration": 247}, {"note": 59, "velocity": 89, "duration": 81}, {"note": 54, "velocity": 89, "duration": 113}, {"note": 54, "velocity": 88, "duration": 61}, {"note": 0, "velocity": 0, "duration": 179}, {"note": 59, "velocity": 92, "duration": 303}, {"note": 0, "velocity": 0, "duration": 177}, {"note": 54, "velocity": 92, "duration": 42}, {"note": 0, "velocity": 0, "duration": 78}, {"note": 61, "velocity": 100, "duration": 43}, {"note": 0, "velocity": 0, "duration": 77}, {"note": 61, "velocity": 107, "duration": 39}, {"note": 0, "velocity": 0, "duration": 81}, {"note": 61, "velocity": 122, "duration": 56}, {"note": 0, "velocity": 0, "duration": 64}, {"note": 59, "velocity": 95, "duration": 77}, {"note": 63, "velocity": 107, "duration": 127}, {"note": 61, "velocity": 102, "duration": 73}, {"note": 61, "velocity": 112, "duration": 232}, {"note": 59, "velocity": 96, "duration": 271}, {"note": 63, "velocity": 127, "duration": 43}, {"note": 0, "velocity": 0, "duration": 77}, {"note": 63, "velocity": 102, "duration": 77}, {"note": 61, "velocity": 107, "duration": 108}, {"note": 59, "velocity": 83, "duration": 55}, {"note": 0, "velocity": 0, "duration": 65}, {"note": 59, "velocity": 97, "duration": 242}, {"note": 0, "velocity": 0, "duration": 238}, {"note": 63, "velocity": 112, "duration": 40}, {"note": 0, "velocity": 0, "duration": 80}, {"note": 63, "velocity": 100, "duration": 62}, {"note": 66, "velocity": 100, "duration": 105}, {"note": 61, "velocity": 95, "duration": 116}, {"note": 59, "velocity": 100, "duration": 269}, {"note": 59, "velocity": 99, "duration": 29}, {"note": 0, "velocity": 0, "duration": 211}, {"note": 56, "velocity": 97, "duration": 98}, {"note": 59, "velocity": 97, "duration": 181}, {"note": 59, "velocity": 92, "duration": 84}, {"note": 54, "velocity": 88, "duration": 61}, {"note": 54, "velocity": 70, "duration": 66}, {"note": 61, "velocity": 97, "duration": 113}, {"note": 61, "velocity": 107, "duration": 35}, {"note": 0, "velocity": 0, "duration": 85}, {"note": 61, "velocity": 112, "duration": 60}, {"note": 59, "velocity": 86, "duration": 67}, {"note": 63, "velocity": 112, "duration": 174}, {"note": 0, "velocity": 0, "duration": 66}, {"note": 63, "velocity": 112, "duration": 302}, {"note": 0, "velocity": 0, "duration": 178}, {"note": 63, "velocity": 102, "duration": 51}, {"note": 0, "velocity": 0, "duration": 69}, {"note": 63, "velocity": 99, "duration": 48}, {"note": 0, "velocity": 0, "duration": 72}, {"note": 61, "velocity": 112, "duration": 103}, {"note": 59, "velocity": 82, "duration": 49}, {"note": 0, "velocity": 0, "duration": 71}, {"note": 59, "velocity": 96, "duration": 162}, {"note": 0, "velocity": 0, "duration": 318}, {"note": 63, "velocity": 102, "duration": 40}, {"note": 0, "velocity": 0, "duration": 80}, {"note": 63, "velocity": 112, "duration": 43}, {"note": 0, "velocity": 0, "duration": 77}, {"note": 66, "velocity": 117, "duration": 65}, {"note": 63, "velocity": 97, "duration": 69}, {"note": 59, "velocity": 96, "duration": 219}, {"note": 0, "velocity": 0, "duration": 141}, {"note": 54, "velocity": 92, "duration": 40}, {"note": 0, "velocity": 0, "duration": 80}, {"note": 59, "velocity": 112, "duration": 60}, {"note": 59, "velocity": 89, "duration": 49}, {"note": 0, "velocity": 0, "duration": 71}, {"note": 59, "velocity": 92, "duration": 40}, {"note": 0, "velocity": 0, "duration": 80}, {"note": 59, "velocity": 127, "duration": 76}, {"note": 0, "velocity": 0, "duration": 164}, {"note": 54, "velocity": 96, "duration": 50}, {"note": 0, "velocity": 0, "duration": 70}, {"note": 61, "velocity": 97, "duration": 36}, {"note": 0, "velocity": 0, "duration": 84}, {"note": 61, "velocity": 107, "duration": 39}, {"note": 0, "velocity": 0, "duration": 81}, {"note": 61, "velocity": 117, "duration": 35}, {"note": 0, "velocity": 0, "duration": 85}, {"note": 59, "velocity": 90, "duration": 60}, {"note": 63, "velocity": 122, "duration": 168}, {"note": 0, "velocity": 0, "duration": 72}, {"note": 63, "velocity": 127, "duration": 200}, {"note": 64, "velocity": 102, "duration": 42}, {"note": 0, "velocity": 0, "duration": 78}, {"note": 64, "velocity": 93, "duration": 44}, {"note": 0, "velocity": 0, "duration": 76}, {"note": 64, "velocity": 93, "duration": 44}, {"note": 0, "velocity": 0, "duration": 76}, {"note": 64, "velocity": 97, "duration": 55}, {"note": 0, "velocity": 0, "duration": 65}, {"note": 66, "velocity": 117, "duration": 184}, {"note": 66, "velocity": 117, "duration": 155}, {"note": 0, "velocity": 0, "duration": 85}, {"note": 63, "velocity": 117, "duration": 113}, {"note": 61, "velocity": 100, "duration": 48}, {"note": 0, "velocity": 0, "duration": 72}, {"note": 61, "velocity": 127, "duration": 68}, {"note": 59, "velocity": 99, "duration": 67}, {"note": 61, "velocity": 122, "duration": 156}, {"note": 0, "velocity": 0, "duration": 324}, {"note": 63, "velocity": 122, "duration": 33}, {"note": 0, "velocity": 0, "duration": 87}, {"note": 63, "velocity": 102, "duration": 36}, {"note": 0, "velocity": 0, "duration": 84}, {"note": 63, "velocity": 97, "duration": 35}, {"note": 0, "velocity": 0, "duration": 85}, {"note": 63, "velocity": 112, "duration": 40}, {"note": 0, "velocity": 0, "duration": 80}, {"note": 66, "velocity": 127, "duration": 233}, {"note": 68, "velocity": 127, "duration": 146}, {"note": 0, "velocity": 0, "duration": 94}, {"note": 59, "velocity": 122, "duration": 166}, {"note": 0, "velocity": 0, "duration": 74}, {"note": 58, "velocity": 112, "duration": 193}, {"note": 56, "velocity": 112, "duration": 216}, {"note": 0, "velocity": 0, "duration": 264}, {"note": 64, "velocity": 99, "duration": 42}, {"note": 0, "velocity": 0, "duration": 78}, {"note": 64, "velocity": 86, "duration": 43}, {"note": 0, "velocity": 0, "duration": 77}, {"note": 64, "velocity": 95, "duration": 43}, {"note": 0, "velocity": 0, "duration": 77}, {"note": 64, "velocity": 93, "duration": 43}, {"note": 0, "velocity": 0, "duration": 77}, {"note": 66, "velocity": 127, "duration": 183}, {"note": 66, "velocity": 127, "duration": 46}, {"note": 0, "velocity": 0, "duration": 74}, {"note": 66, "velocity": 117, "duration": 48}, {"note": 0, "velocity": 0, "duration": 72}, {"note": 63, "velocity": 122, "duration": 126}, {"note": 61, "velocity": 79, "duration": 52}, {"note": 0, "velocity": 0, "duration": 68}, {"note": 61, "velocity": 112, "duration": 116}, {"note": 59, "velocity": 82, "duration": 138}, {"note": 61, "velocity": 112, "duration": 182}, {"note": 59, "velocity": 99, "duration": 101}, {"note": 61, "velocity": 99, "duration": 53}, {"note": 0, "velocity": 0, "duration": 67}, {"note": 63, "velocity": 122, "duration": 185}, {"note": 66, "velocity": 100, "duration": 163}, {"note": 0, "velocity": 0, "duration": 77}, {"note": 61, "velocity": 112, "duration": 251}, {"note": 66, "velocity": 122, "duration": 218}, {"note": 0, "velocity": 0, "duration": 142}, {"note": 59, "velocity": 95, "duration": 623}, {"note": 0, "velocity": 0, "duration": 9937}, {"note": 63, "velocity": 102, "duration": 169}, {"note": 0, "velocity": 0, "duration": 71}, {"note": 63, "velocity": 112, "duration": 47}, {"note": 0, "velocity": 0, "duration": 73}, {"note": 63, "velocity": 107, "duration": 144}, {"note": 61, "velocity": 122, "duration": 29}, {"note": 0, "velocity": 0, "duration": 91}, {"note": 61, "velocity": 112, "duration": 98}, {"note": 63, "velocity": 107, "duration": 46}, {"note": 0, "velocity": 0, "duration": 74}, {"note": 61, "velocity": 102, "duration": 110}, {"note": 59, "velocity": 78, "duration": 44}, {"note": 0, "velocity": 0, "duration": 76}, {"note": 58, "velocity": 100, "duration": 124}, {"note": 59, "velocity": 83, "duration": 342}, {"note": 0, "velocity": 0, "duration": 138}, {"note": 59, "velocity": 83, "duration": 89}, {"note": 54, "velocity": 75, "duration": 131}, {"note": 54, "velocity": 86, "duration": 11}, {"note": 0, "velocity": 0, "duration": 229}, {"note": 59, "velocity": 99, "duration": 236}, {"note": 0, "velocity": 0, "duration": 244}, {"note": 59, "velocity": 78, "duration": 107}, {"note": 54, "velocity": 72, "duration": 45}, {"note": 0, "velocity": 0, "duration": 75}, {"note": 54, "velocity": 70, "duration": 48}, {"note": 0, "velocity": 0, "duration": 72}, {"note": 54, "velocity": 85, "duration": 57}, {"note": 0, "velocity": 0, "duration": 63}, {"note": 59, "velocity": 93, "duration": 112}, {"note": 61, "velocity": 99, "duration": 202}, {"note": 0, "velocity": 0, "duration": 398}, {"note": 63, "velocity": 107, "duration": 36}, {"note": 0, "velocity": 0, "duration": 84}, {"note": 63, "velocity": 99, "duration": 39}, {"note": 0, "velocity": 0, "duration": 81}, {"note": 63, "velocity": 100, "duration": 29}, {"note": 0, "velocity": 0, "duration": 91}, {"note": 63, "velocity": 122, "duration": 105}, {"note": 61, "velocity": 89, "duration": 34}, {"note": 0, "velocity": 0, "duration": 86}, {"note": 61, "velocity": 117, "duration": 117}, {"note": 63, "velocity": 112, "duration": 42}, {"note": 0, "velocity": 0, "duration": 78}, {"note": 61, "velocity": 112, "duration": 109}, {"note": 59, "velocity": 86, "duration": 68}, {"note": 58, "velocity": 96, "duration": 106}, {"note": 59, "velocity": 88, "duration": 196}, {"note": 0, "velocity": 0, "duration": 284}, {"note": 59, "velocity": 83, "duration": 111}, {"note": 54, "velocity": 75, "duration": 88}, {"note": 54, "velocity": 92, "duration": 48}, {"note": 0, "velocity": 0, "duration": 192}, {"note": 59, "velocity": 93, "duration": 230}, {"note": 0, "velocity": 0, "duration": 130}, {"note": 59, "velocity": 88, "duration": 55}, {"note": 0, "velocity": 0, "duration": 65}, {"note": 59, "velocity": 82, "duration": 73}, {"note": 54, "velocity": 90, "duration": 104}, {"note": 54, "velocity": 86, "duration": 74}, {"note": 0, "velocity": 0, "duration": 166}, {"note": 61, "velocity": 107, "duration": 294}, {"note": 0, "velocity": 0, "duration": 426}, {"note": 63, "velocity": 93, "duration": 40}, {"note": 0, "velocity": 0, "duration": 80}, {"note": 63, "velocity": 97, "duration": 42}, {"note": 0, "velocity": 0, "duration": 78}, {"note": 63, "velocity": 100, "duration": 39}, {"note": 0, "velocity": 0, "duration": 81}, {"note": 63, "velocity": 122, "duration": 42}, {"note": 0, "velocity": 0, "duration": 78}, {"note": 61, "velocity": 90, "duration": 41}, {"note": 0, "velocity": 0, "duration": 79}, {"note": 61, "velocity": 100, "duration": 46}, {"note": 0, "velocity": 0, "duration": 74}, {"note": 63, "velocity": 89, "duration": 51}, {"note": 0, "velocity": 0, "duration": 69}, {"note": 61, "velocity": 100, "duration": 60}, {"note": 59, "velocity": 85, "duration": 43}, {"note": 0, "velocity": 0, "duration": 77}, {"note": 58, "velocity": 93, "duration": 110}, {"note": 59, "velocity": 89, "duration": 206}, {"note": 0, "velocity": 0, "duration": 274}, {"note": 59, "velocity": 83, "duration": 42}, {"note": 0, "velocity": 0, "duration": 78}, {"note": 54, "velocity": 95, "duration": 144}, {"note": 0, "velocity": 0, "duration": 96}, {"note": 54, "velocity": 96, "duration": 87}, {"note": 59, "velocity": 95, "duration": 215}, {"note": 59, "velocity": 107, "duration": 68}, {"note": 0, "velocity": 0, "duration": 172}, {"note": 59, "velocity": 92, "duration": 71}, {"note": 54, "velocity": 86, "duration": 170}, {"note": 0, "velocity": 0, "duration": 70}, {"note": 54, "velocity": 86, "duration": 94}, {"note": 61, "velocity": 107, "duration": 188}, {"note": 61, "velocity": 127, "duration": 87}, {"note": 0, "velocity": 0, "duration": 393}, {"note": 63, "velocity": 112, "duration": 44}, {"note": 0, "velocity": 0, "duration": 76}, {"note": 63, "velocity": 95, "duration": 45}, {"note": 0, "velocity": 0, "duration": 75}, {"note": 63, "velocity": 107, "duration": 46}, {"note": 0, "velocity": 0, "duration": 74}, {"note": 63, "velocity": 107, "duration": 59}, {"note": 0, "velocity": 0, "duration": 61}, {"note": 61, "velocity": 96, "duration": 42}, {"note": 0, "velocity": 0, "duration": 78}, {"note": 61, "velocity": 100, "duration": 74}, {"note": 63, "velocity": 89, "duration": 57}, {"note": 0, "velocity": 0, "duration": 63}, {"note": 61, "velocity": 112, "duration": 65}, {"note": 59, "velocity": 93, "duration": 136}, {"note": 58, "velocity": 93, "duration": 109}, {"note": 59, "velocity": 95, "duration": 233}, {"note": 0, "velocity": 0, "duration": 247}, {"note": 59, "velocity": 89, "duration": 81}, {"note": 54, "velocity": 89, "duration": 113}, {"note": 54, "velocity": 88, "duration": 61}, {"note": 0, "velocity": 0, "duration": 179}, {"note": 59, "velocity": 92, "duration": 303}, {"note": 0, "velocity": 0, "duration": 177}, {"note": 54, "velocity": 92, "duration": 42}, {"note": 0, "velocity": 0, "duration": 78}, {"note": 61, "velocity": 100, "duration": 43}, {"note": 0, "velocity": 0, "duration": 77}, {"note": 61, "velocity": 107, "duration": 39}, {"note": 0, "velocity": 0, "duration": 81}, {"note": 61, "velocity": 122, "duration": 56}, {"note": 0, "velocity": 0, "duration": 64}, {"note": 59, "velocity": 95, "duration": 77}, {"note": 63, "velocity": 107, "duration": 127}, {"note": 61, "velocity": 102, "duration": 73}, {"note": 61, "velocity": 112, "duration": 232}, {"note": 59, "velocity": 96, "duration": 271}, {"note": 63, "velocity": 127, "duration": 43}, {"note": 0, "velocity": 0, "duration": 77}, {"note": 63, "velocity": 102, "duration": 77}, {"note": 61, "velocity": 107, "duration": 108}, {"note": 59, "velocity": 83, "duration": 55}, {"note": 0, "velocity": 0, "duration": 65}, {"note": 59, "velocity": 97, "duration": 242}, {"note": 0, "velocity": 0, "duration": 238}, {"note": 63, "velocity": 112, "duration": 40}, {"note": 0, "velocity": 0, "duration": 80}, {"note": 63, "velocity": 100, "duration": 62}, {"note": 66, "velocity": 100, "duration": 105}, {"note": 61, "velocity": 95, "duration": 116}, {"note": 59, "velocity": 100, "duration": 269}, {"note": 59, "velocity": 99, "duration": 29}, {"note": 0, "velocity": 0, "duration": 211}, {"note": 56, "velocity": 97, "duration": 98}, {"note": 59, "velocity": 97, "duration": 181}, {"note": 59, "velocity": 92, "duration": 84}, {"note": 54, "velocity": 88, "duration": 61}, {"note": 54, "velocity": 70, "duration": 66}, {"note": 61, "velocity": 97, "duration": 113}, {"note": 61, "velocity": 107, "duration": 35}, {"note": 0, "velocity": 0, "duration": 85}, {"note": 61, "velocity": 112, "duration": 60}, {"note": 59, "velocity": 86, "duration": 67}, {"note": 63, "velocity": 112, "duration": 174}, {"note": 0, "velocity": 0, "duration": 66}, {"note": 63, "velocity": 112, "duration": 302}, {"note": 0, "velocity": 0, "duration": 178}, {"note": 63, "velocity": 102, "duration": 51}, {"note": 0, "velocity": 0, "duration": 69}, {"note": 63, "velocity": 99, "duration": 48}, {"note": 0, "velocity": 0, "duration": 72}, {"note": 61, "velocity": 112, "duration": 103}, {"note": 59, "velocity": 82, "duration": 49}, {"note": 0, "velocity": 0, "duration": 71}, {"note": 59, "velocity": 96, "duration": 162}, {"note": 0, "velocity": 0, "duration": 318}, {"note": 63, "velocity": 102, "duration": 40}, {"note": 0, "velocity": 0, "duration": 80}, {"note": 63, "velocity": 112, "duration": 43}, {"note": 0, "velocity": 0, "duration": 77}, {"note": 66, "velocity": 117, "duration": 65}, {"note": 63, "velocity": 97, "duration": 69}, {"note": 59, "velocity": 96, "duration": 219}, {"note": 0, "velocity": 0, "duration": 141}, {"note": 54, "velocity": 92, "duration": 40}, {"note": 0, "velocity": 0, "duration": 80}, {"note": 59, "velocity": 112, "duration": 60}, {"note": 59, "velocity": 89, "duration": 49}, {"note": 0, "velocity": 0, "duration": 71}, {"note": 59, "velocity": 92, "duration": 40}, {"note": 0, "velocity": 0, "duration": 80}, {"note": 59, "velocity": 127, "duration": 76}, {"note": 0, "velocity": 0, "duration": 164}, {"note": 54, "velocity": 96, "duration": 50}, {"note": 0, "velocity": 0, "duration": 70}, {"note": 61, "velocity": 97, "duration": 36}, {"note": 0, "velocity": 0, "duration": 84}, {"note": 61, "velocity": 107, "duration": 39}, {"note": 0, "velocity": 0, "duration": 81}, {"note": 61, "velocity": 117, "duration": 35}, {"note": 0, "velocity": 0, "duration": 85}, {"note": 59, "velocity": 90, "duration": 60}, {"note": 63, "velocity": 122, "duration": 168}, {"note": 0, "velocity": 0, "duration": 72}, {"note": 63, "velocity": 127, "duration": 200}, {"note": 64, "velocity": 102, "duration": 42}, {"note": 0, "velocity": 0, "duration": 78}, {"note": 64, "velocity": 93, "duration": 44}, {"note": 0, "velocity": 0, "duration": 76}, {"note": 64, "velocity": 93, "duration": 44}, {"note": 0, "velocity": 0, "duration": 76}, {"note": 64, "velocity": 97, "duration": 55}, {"note": 0, "velocity": 0, "duration": 65}, {"note": 66, "velocity": 117, "duration": 184}, {"note": 66, "velocity": 117, "duration": 155}, {"note": 0, "velocity": 0, "duration": 85}, {"note": 63, "velocity": 117, "duration": 113}, {"note": 61, "velocity": 100, "duration": 48}, {"note": 0, "velocity": 0, "duration": 72}, {"note": 61, "velocity": 127, "duration": 68}, {"note": 59, "velocity": 99, "duration": 67}, {"note": 61, "velocity": 122, "duration": 156}, {"note": 0, "velocity": 0, "duration": 324}, {"note": 63, "velocity": 122, "duration": 33}, {"note": 0, "velocity": 0, "duration": 87}, {"note": 63, "velocity": 102, "duration": 36}, {"note": 0, "velocity": 0, "duration": 84}, {"note": 63, "velocity": 97, "duration": 35}, {"note": 0, "velocity": 0, "duration": 85}, {"note": 63, "velocity": 112, "duration": 40}, {"note": 0, "velocity": 0, "duration": 80}, {"note": 66, "velocity": 127, "duration": 233}, {"note": 68, "velocity": 127, "duration": 146}, {"note": 0, "velocity": 0, "duration": 94}, {"note": 59, "velocity": 122, "duration": 166}, {"note": 0, "velocity": 0, "duration": 74}, {"note": 58, "velocity": 112, "duration": 193}, {"note": 56, "velocity": 112, "duration": 216}, {"note": 0, "velocity": 0, "duration": 264}, {"note": 64, "velocity": 99, "duration": 42}, {"note": 0, "velocity": 0, "duration": 78}, {"note": 64, "velocity": 86, "duration": 43}, {"note": 0, "velocity": 0, "duration": 77}, {"note": 64, "velocity": 95, "duration": 43}, {"note": 0, "velocity": 0, "duration": 77}, {"note": 64, "velocity": 93, "duration": 43}, {"note": 0, "velocity": 0, "duration": 77}, {"note": 66, "velocity": 127, "duration": 183}, {"note": 66, "velocity": 127, "duration": 46}, {"note": 0, "velocity": 0, "duration": 74}, {"note": 66, "velocity": 117, "duration": 48}, {"note": 0, "velocity": 0, "duration": 72}, {"note": 63, "velocity": 122, "duration": 126}, {"note": 61, "velocity": 79, "duration": 52}, {"note": 0, "velocity": 0, "duration": 68}, {"note": 61, "velocity": 112, "duration": 116}, {"note": 59, "velocity": 82, "duration": 138}, {"note": 61, "velocity": 112, "duration": 182}, {"note": 59, "velocity": 99, "duration": 101}, {"note": 61, "velocity": 99, "duration": 53}, {"note": 0, "velocity": 0, "duration": 67}, {"note": 63, "velocity": 122, "duration": 185}, {"note": 66, "velocity": 100, "duration": 163}, {"note": 0, "velocity": 0, "duration": 77}, {"note": 61, "velocity": 112, "duration": 251}, {"note": 66, "velocity": 122, "duration": 218}, {"note": 0, "velocity": 0, "duration": 142}, {"note": 59, "velocity": 95, "duration": 360}, {"note": 59, "velocity": 97, "duration": 120}, {"note": 61, "velocity": 97, "duration": 130}, {"note": 63, "velocity": 122, "duration": 214}, {"note": 64, "velocity": 112, "duration": 39}, {"note": 0, "velocity": 0, "duration": 81}, {"note": 64, "velocity": 83, "duration": 45}, {"note": 0, "velocity": 0, "duration": 75}, {"note": 64, "velocity": 89, "duration": 45}, {"note": 0, "velocity": 0, "duration": 75}, {"note": 64, "velocity": 97, "duration": 50}, {"note": 0, "velocity": 0, "duration": 70}, {"note": 66, "velocity": 117, "duration": 187}, {"note": 66, "velocity": 112, "duration": 103}, {"note": 66, "velocity": 112, "duration": 78}, {"note": 63, "velocity": 127, "duration": 102}, {"note": 61, "velocity": 96, "duration": 43}, {"note": 0, "velocity": 0, "duration": 77}, {"note": 61, "velocity": 117, "duration": 140}, {"note": 59, "velocity": 96, "duration": 108}, {"note": 63, "velocity": 100, "duration": 173}, {"note": 61, "velocity": 107, "duration": 322}, {"note": 63, "velocity": 122, "duration": 40}, {"note": 0, "velocity": 0, "duration": 80}, {"note": 63, "velocity": 107, "duration": 42}, {"note": 0, "velocity": 0, "duration": 78}, {"note": 63, "velocity": 100, "duration": 45}, {"note": 0, "velocity": 0, "duration": 75}, {"note": 63, "velocity": 107, "duration": 52}, {"note": 0, "velocity": 0, "duration": 68}, {"note": 66, "velocity": 127, "duration": 210}, {"note": 68, "velocity": 127, "duration": 114}, {"note": 0, "velocity": 0, "duration": 126}, {"note": 59, "velocity": 107, "duration": 178}, {"note": 0, "velocity": 0, "duration": 62}, {"note": 58, "velocity": 117, "duration": 237}, {"note": 56, "velocity": 107, "duration": 319}, {"note": 0, "velocity": 0, "duration": 161}, {"note": 64, "velocity": 112, "duration": 32}, {"note": 0, "velocity": 0, "duration": 88}, {"note": 64, "velocity": 99, "duration": 33}, {"note": 0, "velocity": 0, "duration": 87}, {"note": 64, "velocity": 93, "duration": 39}, {"note": 0, "velocity": 0, "duration": 81}, {"note": 64, "velocity": 96, "duration": 41}, {"note": 0, "velocity": 0, "duration": 79}, {"note": 66, "velocity": 127, "duration": 146}, {"note": 0, "velocity": 0, "duration": 94}, {"note": 66, "velocity": 117, "duration": 56}, {"note": 0, "velocity": 0, "duration": 64}, {"note": 66, "velocity": 117, "duration": 65}, {"note": 63, "velocity": 127, "duration": 112}, {"note": 61, "velocity": 88, "duration": 59}, {"note": 0, "velocity": 0, "duration": 61}, {"note": 61, "velocity": 107, "duration": 111}, {"note": 59, "velocity": 92, "duration": 138}, {"note": 63, "velocity": 127, "duration": 132}, {"note": 61, "velocity": 112, "duration": 347}, {"note": 0, "velocity": 0, "duration": 253}, {"note": 63, "velocity": 127, "duration": 34}, {"note": 0, "velocity": 0, "duration": 86}, {"note": 63, "velocity": 117, "duration": 55}, {"note": 0, "velocity": 0, "duration": 65}, {"note": 61, "velocity": 117, "duration": 153}, {"note": 0, "velocity": 0, "duration": 87}, {"note": 63, "velocity": 127, "duration": 128}, {"note": 0, "velocity": 0, "duration": 112}, {"note": 61, "velocity": 127, "duration": 165}, {"note": 0, "velocity": 0, "duration": 75}, {"note": 59, "velocity": 99, "duration": 140}, {"note": 56, "velocity": 102, "duration": 119}, {"note": 59, "velocity": 90, "duration": 364}, {"note": 0, "velocity": 0, "duration": 356}, {"note": 68, "velocity": 117, "duration": 33}, {"note": 0, "velocity": 0, "duration": 87}, {"note": 66, "velocity": 122, "duration": 231}, {"note": 0, "velocity": 0, "duration": 129}, {"note": 63, "velocity": 127, "duration": 108}, {"note": 61, "velocity": 96, "duration": 228}, {"note": 0, "velocity": 0, "duration": 132}, {"note": 59, "velocity": 96, "duration": 34}, {"note": 0, "velocity": 0, "duration": 86}, {"note": 59, "velocity": 99, "duration": 423}, {"note": 0, "velocity": 0, "duration": 417}, {"note": 54, "velocity": 96, "duration": 96}, {"note": 56, "velocity": 92, "duration": 158}, {"note": 0, "velocity": 0, "duration": 82}, {"note": 59, "velocity": 93, "duration": 157}, {"note": 54, "velocity": 83, "duration": 137}, {"note": 0, "velocity": 0, "duration": 103}, {"note": 61, "velocity": 97, "duration": 312}, {"note": 63, "velocity": 102, "duration": 67}, {"note": 61, "velocity": 82, "duration": 56}, {"note": 59, "velocity": 78, "duration": 111}, {"note": 61, "velocity": 100, "duration": 124}, {"note": 63, "velocity": 107, "duration": 181}, {"note": 0, "velocity": 0, "duration": 239}, {"note": 56, "velocity": 83, "duration": 52}, {"note": 0, "velocity": 0, "duration": 68}, {"note": 68, "velocity": 112, "duration": 55}, {"note": 0, "velocity": 0, "duration": 65}, {"note": 66, "velocity": 112, "duration": 294}, {"note": 0, "velocity": 0, "duration": 66}, {"note": 63, "velocity": 107, "duration": 42}, {"note": 0, "velocity": 0, "duration": 78}, {"note": 61, "velocity": 112, "duration": 371}, {"note": 0, "velocity": 0, "duration": 109}, {"note": 59, "velocity": 112, "duration": 296}, {"note": 0, "velocity": 0, "duration": 544}, {"note": 66, "velocity": 117, "duration": 47}, {"note": 0, "velocity": 0, "duration": 73}, {"note": 66, "velocity": 100, "duration": 42}, {"note": 0, "velocity": 0, "duration": 78}, {"note": 66, "velocity": 127, "duration": 93}, {"note": 63, "velocity": 100, "duration": 36}, {"note": 0, "velocity": 0, "duration": 84}, {"note": 63, "velocity": 122, "duration": 122}, {"note": 66, "velocity": 127, "duration": 1024}, {"note": 64, "velocity": 107, "duration": 40}, {"note": 0, "velocity": 0, "duration": 80}, {"note": 64, "velocity": 99, "duration": 47}, {"note": 0, "velocity": 0, "duration": 73}, {"note": 64, "velocity": 96, "duration": 50}, {"note": 0, "velocity": 0, "duration": 70}, {"note": 64, "velocity": 102, "duration": 49}, {"note": 0, "velocity": 0, "duration": 71}, {"note": 66, "velocity": 127, "duration": 160}, {"note": 0, "velocity": 0, "duration": 80}, {"note": 66, "velocity": 127, "duration": 47}, {"note": 0, "velocity": 0, "duration": 73}, {"note": 66, "velocity": 122, "duration": 78}, {"note": 63, "velocity": 127, "duration": 96}, {"note": 61, "velocity": 97, "duration": 45}, {"note": 0, "velocity": 0, "duration": 75}, {"note": 61, "velocity": 127, "duration": 112}, {"note": 59, "velocity": 92, "duration": 77}, {"note": 61, "velocity": 127, "duration": 195}, {"note": 0, "velocity": 0, "duration": 285}, {"note": 63, "velocity": 122, "duration": 40}, {"note": 0, "velocity": 0, "duration": 80}, {"note": 63, "velocity": 112, "duration": 42}, {"note": 0, "velocity": 0, "duration": 78}, {"note": 63, "velocity": 100, "duration": 34}, {"note": 0, "velocity": 0, "duration": 86}, {"note": 63, "velocity": 112, "duration": 37}, {"note": 0, "velocity": 0, "duration": 83}, {"note": 66, "velocity": 127, "duration": 148}, {"note": 0, "velocity": 0, "duration": 92}, {"note": 68, "velocity": 112, "duration": 155}, {"note": 0, "velocity": 0, "duration": 85}, {"note": 59, "velocity": 117, "duration": 308}, {"note": 58, "velocity": 117, "duration": 168}, {"note": 0, "velocity": 0, "duration": 72}, {"note": 68, "velocity": 127, "duration": 104}, {"note": 56, "velocity": 99, "duration": 254}, {"note": 66, "velocity": 97, "duration": 53}, {"note": 66, "velocity": 117, "duration": 78}, {"note": 61, "velocity": 107, "duration": 374}, {"note": 64, "velocity": 112, "duration": 49}, {"note": 64, "velocity": 95, "duration": 54}, {"note": 64, "velocity": 95, "duration": 48}, {"note": 0, "velocity": 0, "duration": 72}, {"note": 64, "velocity": 96, "duration": 63}, {"note": 66, "velocity": 127, "duration": 160}, {"note": 0, "velocity": 0, "duration": 80}, {"note": 66, "velocity": 127, "duration": 47}, {"note": 0, "velocity": 0, "duration": 73}, {"note": 66, "velocity": 122, "duration": 78}, {"note": 63, "velocity": 127, "duration": 96}, {"note": 61, "velocity": 97, "duration": 45}, {"note": 0, "velocity": 0, "duration": 75}, {"note": 61, "velocity": 127, "duration": 112}, {"note": 59, "velocity": 92, "duration": 77}, {"note": 71, "velocity": 122, "duration": 110}, {"note": 61, "velocity": 127, "duration": 195}, {"note": 70, "velocity": 96, "duration": 61}, {"note": 68, "velocity": 112, "duration": 71}, {"note": 59, "velocity": 107, "duration": 91}, {"note": 61, "velocity": 117, "duration": 59}, {"note": 70, "velocity": 112, "duration": 130}, {"note": 63, "velocity": 117, "duration": 163}, {"note": 66, "velocity": 117, "duration": 91}, {"note": 66, "velocity": 122, "duration": 186}, {"note": 61, "velocity": 117, "duration": 195}, {"note": 66, "velocity": 117, "duration": 202}, {"note": 59, "velocity": 107, "duration": 302}, {"note": 66, "velocity": 112, "duration": 77}, {"note": 63, "velocity": 107, "duration": 107}, {"note": 59, "velocity": 100, "duration": 151}, {"note": 61, "velocity": 102, "duration": 92}, {"note": 64, "velocity": 93, "duration": 144}, {"note": 66, "velocity": 117, "duration": 99}, {"note": 63, "velocity": 112, "duration": 119}, {"note": 66, "velocity": 102, "duration": 123}, {"note": 71, "velocity": 127, "duration": 650}, {"note": 64, "velocity": 102, "duration": 65}, {"note": 64, "velocity": 93, "duration": 57}, {"note": 64, "velocity": 99, "duration": 65}, {"note": 64, "velocity": 102, "duration": 84}, {"note": 66, "velocity": 122, "duration": 167}, {"note": 0, "velocity": 0, "duration": 73}, {"note": 66, "velocity": 127, "duration": 49}, {"note": 68, "velocity": 100, "duration": 132}, {"note": 66, "velocity": 117, "duration": 64}, {"note": 75, "velocity": 112, "duration": 279}, {"note": 63, "velocity": 122, "duration": 88}, {"note": 61, "velocity": 100, "duration": 53}, {"note": 0, "velocity": 0, "duration": 67}, {"note": 68, "velocity": 100, "duration": 98}, {"note": 61, "velocity": 117, "duration": 103}, {"note": 59, "velocity": 99, "duration": 91}, {"note": 71, "velocity": 95, "duration": 193}, {"note": 63, "velocity": 127, "duration": 116}, {"note": 73, "velocity": 127, "duration": 144}, {"note": 61, "velocity": 112, "duration": 247}, {"note": 0, "velocity": 0, "duration": 113}, {"note": 63, "velocity": 127, "duration": 36}, {"note": 0, "velocity": 0, "duration": 84}, {"note": 63, "velocity": 107, "duration": 39}, {"note": 0, "velocity": 0, "duration": 81}, {"note": 63, "velocity": 112, "duration": 36}, {"note": 75, "velocity": 102, "duration": 140}, {"note": 63, "velocity": 112, "duration": 39}, {"note": 73, "velocity": 95, "duration": 220}, {"note": 66, "velocity": 127, "duration": 141}, {"note": 0, "velocity": 0, "duration": 99}, {"note": 73, "velocity": 127, "duration": 121}, {"note": 68, "velocity": 112, "duration": 141}, {"note": 71, "velocity": 93, "duration": 509}, {"note": 59, "velocity": 117, "duration": 207}, {"note": 58, "velocity": 112, "duration": 179}, {"note": 0, "velocity": 0, "duration": 61}, {"note": 63, "velocity": 117, "duration": 90}, {"note": 56, "velocity": 112, "duration": 231}, {"note": 64, "velocity": 97, "duration": 100}, {"note": 63, "velocity": 112, "duration": 68}, {"note": 64, "velocity": 100, "duration": 64}, {"note": 64, "velocity": 102, "duration": 65}, {"note": 66, "velocity": 122, "duration": 480}, {"note": 64, "velocity": 93, "duration": 57}, {"note": 64, "velocity": 99, "duration": 65}, {"note": 64, "velocity": 102, "duration": 84}, {"note": 66, "velocity": 122, "duration": 167}, {"note": 0, "velocity": 0, "duration": 73}, {"note": 66, "velocity": 127, "duration": 49}, {"note": 0, "velocity": 0, "duration": 71}, {"note": 66, "velocity": 117, "duration": 64}, {"note": 63, "velocity": 122, "duration": 88}, {"note": 61, "velocity": 100, "duration": 53}, {"note": 0, "velocity": 0, "duration": 67}, {"note": 61, "velocity": 117, "duration": 103}, {"note": 59, "velocity": 99, "duration": 91}, {"note": 61, "velocity": 112, "duration": 74}, {"note": 59, "velocity": 90, "duration": 107}, {"note": 68, "velocity": 117, "duration": 93}, {"note": 66, "velocity": 117, "duration": 73}, {"note": 63, "velocity": 112, "duration": 41}, {"note": 63, "velocity": 107, "duration": 38}, {"note": 61, "velocity": 90, "duration": 61}, {"note": 61, "velocity": 112, "duration": 97}, {"note": 59, "velocity": 67, "duration": 44}, {"note": 64, "velocity": 88, "duration": 52}, {"note": 64, "velocity": 76, "duration": 47}, {"note": 64, "velocity": 82, "duration": 7}, {"note": 0, "velocity": 0, "duration": 64}, {"note": 64, "velocity": 77, "duration": 87}, {"note": 66, "velocity": 89, "duration": 47}, {"note": 66, "velocity": 112, "duration": 57}, {"note": 66, "velocity": 107, "duration": 49}, {"note": 63, "velocity": 102, "duration": 94}, {"note": 61, "velocity": 93, "duration": 47}, {"note": 61, "velocity": 99, "duration": 37}, {"note": 59, "velocity": 81, "duration": 63}, {"note": 61, "velocity": 96, "duration": 9}, {"note": 63, "velocity": 92, "duration": 47}, {"note": 63, "velocity": 77, "duration": 47}, {"note": 0, "velocity": 0, "duration": 71}, {"note": 63, "velocity": 73, "duration": 27}, {"note": 0, "velocity": 0, "duration": 64}, {"note": 63, "velocity": 81, "duration": 61}, {"note": 66, "velocity": 90, "duration": 8}, {"note": 68, "velocity": 90, "duration": 85}, {"note": 59, "velocity": 69, "duration": 98}, {"note": 58, "velocity": 76, "duration": 74}, {"note": 56, "velocity": 73, "duration": 75}, {"note": 64, "velocity": 72, "duration": 1}, {"note": 0, "velocity": 0, "duration": 70}, {"note": 64, "velocity": 59, "duration": 20}, {"note": 0, "velocity": 0, "duration": 71}, {"note": 64, "velocity": 61, "duration": 40}, {"note": 64, "velocity": 55, "duration": 48}, {"note": 66, "velocity": 77, "duration": 86}, {"note": 0, "velocity": 0, "duration": 71}, {"note": 66, "velocity": 90, "duration": 31}, {"note": 66, "velocity": 37, "duration": 53}, {"note": 63, "velocity": 70, "duration": 43}, {"note": 61, "velocity": 50, "duration": 62}, {"note": 61, "velocity": 35, "duration": 73}, {"note": 59, "velocity": 55, "duration": 97}, {"note": 61, "velocity": 62, "duration": 65}, {"note": 0, "velocity": 0, "duration": 71}, {"note": 63, "velocity": 56, "duration": 28}, {"note": 0, "velocity": 0, "duration": 63}, {"note": 63, "velocity": 46, "duration": 45}, {"note": 63, "velocity": 49, "duration": 61}, {"note": 63, "velocity": 39, "duration": 4}]]