[[{"note": 64, "velocity": 88, "duration": 232}, {"note": 57, "velocity": 88, "duration": 493}, {"note": 64, "velocity": 88, "duration": 228}, {"note": 62, "velocity": 88, "duration": 857}, {"note": 60, "velocity": 88, "duration": 147}, {"note": 64, "velocity": 88, "duration": 103}, {"note": 64, "velocity": 88, "duration": 469}, {"note": 60, "velocity": 88, "duration": 110}, {"note": 59, "velocity": 88, "duration": 116}, {"note": 60, "velocity": 88, "duration": 937}, {"note": 57, "velocity": 88, "duration": 144}, {"note": 64, "velocity": 88, "duration": 220}, {"note": 57, "velocity": 88, "duration": 236}, {"note": 64, "velocity": 88, "duration": 230}, {"note": 62, "velocity": 88, "duration": 506}, {"note": 60, "velocity": 88, "duration": 251}, {"note": 67, "velocity": 88, "duration": 344}, {"note": 62, "velocity": 88, "duration": 143}, {"note": 64, "velocity": 88, "duration": 938}, {"note": 0, "velocity": 0, "duration": 862}, {"note": 57, "velocity": 88, "duration": 128}, {"note": 64, "velocity": 88, "duration": 206}, {"note": 57, "velocity": 88, "duration": 240}, {"note": 64, "velocity": 88, "duration": 194}, {"note": 64, "velocity": 88, "duration": 121}, {"note": 62, "velocity": 88, "duration": 374}, {"note": 62, "velocity": 88, "duration": 14}, {"note": 0, "velocity": 0, "duration": 706}, {"note": 62, "velocity": 91, "duration": 398}, {"note": 0, "velocity": 0, "duration": 82}, {"note": 60, "velocity": 91, "duration": 230}, {"note": 59, "velocity": 91, "duration": 124}, {"note": 60, "velocity": 91, "duration": 868}, {"note": 0, "velocity": 0, "duration": 92}, {"note": 57, "velocity": 88, "duration": 104}, {"note": 64, "velocity": 88, "duration": 215}, {"note": 57, "velocity": 88, "duration": 228}, {"note": 64, "velocity": 88, "duration": 189}, {"note": 64, "velocity": 88, "duration": 125}, {"note": 62, "velocity": 88, "duration": 260}, {"note": 0, "velocity": 0, "duration": 100}, {"note": 59, "velocity": 88, "duration": 445}, {"note": 60, "velocity": 88, "duration": 222}, {"note": 57, "velocity": 88, "duration": 450}, {"note": 0, "velocity": 0, "duration": 1470}, {"note": 64, "velocity": 86, "duration": 209}, {"note": 57, "velocity": 86, "duration": 472}, {"note": 64, "velocity": 86, "duration": 237}, {"note": 62, "velocity": 86, "duration": 828}, {"note": 60, "velocity": 86, "duration": 111}, {"note": 64, "velocity": 86, "duration": 158}, {"note": 0, "velocity": 0, "duration": 82}, {"note": 64, "velocity": 86, "duration": 87}, {"note": 59, "velocity": 86, "duration": 68}, {"note": 59, "velocity": 86, "duration": 140}, {"note": 0, "velocity": 0, "duration": 100}, {"note": 59, "velocity": 86, "duration": 92}, {"note": 60, "velocity": 82, "duration": 701}, {"note": 0, "velocity": 0, "duration": 139}, {"note": 57, "velocity": 82, "duration": 56}, {"note": 0, "velocity": 0, "duration": 64}, {"note": 57, "velocity": 82, "duration": 67}, {"note": 64, "velocity": 82, "duration": 222}, {"note": 64, "velocity": 82, "duration": 101}, {"note": 0, "velocity": 0, "duration": 139}, {"note": 64, "velocity": 82, "duration": 197}, {"note": 57, "velocity": 82, "duration": 214}, {"note": 62, "velocity": 82, "duration": 215}, {"note": 60, "velocity": 82, "duration": 132}, {"note": 0, "velocity": 0, "duration": 108}, {"note": 60, "velocity": 82, "duration": 240}, {"note": 67, "velocity": 82, "duration": 233}, {"note": 64, "velocity": 82, "duration": 993}, {"note": 0, "velocity": 0, "duration": 807}, {"note": 57, "velocity": 82, "duration": 57}, {"note": 0, "velocity": 0, "duration": 63}, {"note": 57, "velocity": 82, "duration": 108}, {"note": 64, "velocity": 82, "duration": 57}, {"note": 0, "velocity": 0, "duration": 183}, {"note": 64, "velocity": 82, "duration": 116}, {"note": 0, "velocity": 0, "duration": 124}, {"note": 64, "velocity": 82, "duration": 223}, {"note": 57, "velocity": 82, "duration": 237}, {"note": 64, "velocity": 82, "duration": 218}, {"note": 62, "velocity": 82, "duration": 180}, {"note": 62, "velocity": 82, "duration": 60}, {"note": 0, "velocity": 0, "duration": 540}, {"note": 62, "velocity": 82, "duration": 231}, {"note": 59, "velocity": 82, "duration": 135}, {"note": 0, "velocity": 0, "duration": 105}, {"note": 59, "velocity": 82, "duration": 209}, {"note": 60, "velocity": 82, "duration": 124}, {"note": 60, "velocity": 82, "duration": 4}, {"note": 0, "velocity": 0, "duration": 956}, {"note": 57, "velocity": 82, "duration": 207}, {"note": 64, "velocity": 82, "duration": 181}, {"note": 64, "velocity": 82, "duration": 123}, {"note": 0, "velocity": 0, "duration": 117}, {"note": 64, "velocity": 82, "duration": 212}, {"note": 57, "velocity": 82, "duration": 257}, {"note": 62, "velocity": 82, "duration": 363}, {"note": 62, "velocity": 82, "duration": 363}, {"note": 59, "velocity": 82, "duration": 389}, {"note": 60, "velocity": 82, "duration": 206}, {"note": 57, "velocity": 82, "duration": 732}, {"note": 0, "velocity": 0, "duration": 1188}, {"note": 64, "velocity": 82, "duration": 125}, {"note": 0, "velocity": 0, "duration": 115}, {"note": 64, "velocity": 82, "duration": 433}, {"note": 69, "velocity": 82, "duration": 264}, {"note": 67, "velocity": 82, "duration": 613}, {"note": 0, "velocity": 0, "duration": 107}, {"note": 62, "velocity": 82, "duration": 40}, {"note": 0, "velocity": 0, "duration": 80}, {"note": 62, "velocity": 82, "duration": 62}, {"note": 64, "velocity": 82, "duration": 477}, {"note": 62, "velocity": 82, "duration": 228}, {"note": 59, "velocity": 82, "duration": 242}, {"note": 60, "velocity": 82, "duration": 497}, {"note": 0, "velocity": 0, "duration": 223}, {"note": 57, "velocity": 82, "duration": 65}, {"note": 57, "velocity": 82, "duration": 87}, {"note": 69, "velocity": 82, "duration": 169}, {"note": 0, "velocity": 0, "duration": 191}, {"note": 69, "velocity": 82, "duration": 121}, {"note": 69, "velocity": 82, "duration": 1}, {"note": 67, "velocity": 82, "duration": 405}, {"note": 0, "velocity": 0, "duration": 75}, {"note": 64, "velocity": 82, "duration": 489}, {"note": 62, "velocity": 82, "duration": 252}, {"note": 64, "velocity": 84, "duration": 568}, {"note": 0, "velocity": 0, "duration": 1592}, {"note": 64, "velocity": 84, "duration": 127}, {"note": 0, "velocity": 0, "duration": 113}, {"note": 64, "velocity": 84, "duration": 404}, {"note": 0, "velocity": 0, "duration": 76}, {"note": 69, "velocity": 84, "duration": 205}, {"note": 67, "velocity": 84, "duration": 707}, {"note": 62, "velocity": 84, "duration": 229}, {"note": 64, "velocity": 84, "duration": 479}, {"note": 67, "velocity": 84, "duration": 196}, {"note": 59, "velocity": 84, "duration": 240}, {"note": 60, "velocity": 84, "duration": 536}, {"note": 0, "velocity": 0, "duration": 184}, {"note": 57, "velocity": 84, "duration": 59}, {"note": 0, "velocity": 0, "duration": 61}, {"note": 57, "velocity": 84, "duration": 84}, {"note": 64, "velocity": 84, "duration": 223}, {"note": 57, "velocity": 84, "duration": 256}, {"note": 64, "velocity": 84, "duration": 258}, {"note": 62, "velocity": 84, "duration": 144}, {"note": 0, "velocity": 0, "duration": 96}, {"note": 62, "velocity": 84, "duration": 486}, {"note": 59, "velocity": 84, "duration": 241}, {"note": 55, "velocity": 84, "duration": 243}, {"note": 60, "velocity": 84, "duration": 1005}, {"note": 0, "velocity": 0, "duration": 915}, {"note": 64, "velocity": 84, "duration": 220}, {"note": 57, "velocity": 84, "duration": 453}, {"note": 64, "velocity": 84, "duration": 258}, {"note": 62, "velocity": 84, "duration": 632}, {"note": 0, "velocity": 0, "duration": 88}, {"note": 60, "velocity": 84, "duration": 39}, {"note": 60, "velocity": 84, "duration": 39}, {"note": 0, "velocity": 0, "duration": 81}, {"note": 60, "velocity": 84, "duration": 71}, {"note": 60, "velocity": 84, "duration": 71}, {"note": 64, "velocity": 84, "duration": 211}, {"note": 64, "velocity": 84, "duration": 211}, {"note": 65, "velocity": 84, "duration": 255}, {"note": 62, "velocity": 84, "duration": 228}, {"note": 59, "velocity": 84, "duration": 247}, {"note": 60, "velocity": 84, "duration": 491}, {"note": 0, "velocity": 0, "duration": 229}, {"note": 57, "velocity": 84, "duration": 56}, {"note": 0, "velocity": 0, "duration": 64}, {"note": 57, "velocity": 84, "duration": 93}, {"note": 69, "velocity": 84, "duration": 131}, {"note": 0, "velocity": 0, "duration": 109}, {"note": 69, "velocity": 84, "duration": 125}, {"note": 0, "velocity": 0, "duration": 115}, {"note": 69, "velocity": 84, "duration": 50}, {"note": 0, "velocity": 0, "duration": 70}, {"note": 69, "velocity": 84, "duration": 372}, {"note": 67, "velocity": 84, "duration": 390}, {"note": 62, "velocity": 84, "duration": 146}, {"note": 67, "velocity": 84, "duration": 219}, {"note": 62, "velocity": 84, "duration": 143}, {"note": 64, "velocity": 84, "duration": 1017}, {"note": 0, "velocity": 0, "duration": 1023}, {"note": 64, "velocity": 84, "duration": 127}, {"note": 0, "velocity": 0, "duration": 113}, {"note": 64, "velocity": 84, "duration": 473}, {"note": 69, "velocity": 84, "duration": 267}, {"note": 67, "velocity": 84, "duration": 682}, {"note": 62, "velocity": 84, "duration": 265}, {"note": 64, "velocity": 84, "duration": 461}, {"note": 67, "velocity": 84, "duration": 202}, {"note": 59, "velocity": 84, "duration": 266}, {"note": 60, "velocity": 84, "duration": 713}, {"note": 57, "velocity": 84, "duration": 56}, {"note": 0, "velocity": 0, "duration": 64}, {"note": 57, "velocity": 84, "duration": 108}, {"note": 64, "velocity": 84, "duration": 221}, {"note": 57, "velocity": 84, "duration": 240}, {"note": 64, "velocity": 84, "duration": 256}, {"note": 62, "velocity": 84, "duration": 130}, {"note": 0, "velocity": 0, "duration": 110}, {"note": 62, "velocity": 84, "duration": 357}, {"note": 60, "velocity": 84, "duration": 76}, {"note": 60, "velocity": 84, "duration": 231}, {"note": 59, "velocity": 84, "duration": 255}, {"note": 60, "velocity": 84, "duration": 1415}, {"note": 0, "velocity": 0, "duration": 505}, {"note": 64, "velocity": 84, "duration": 256}, {"note": 57, "velocity": 82, "duration": 464}, {"note": 64, "velocity": 82, "duration": 236}, {"note": 62, "velocity": 82, "duration": 628}, {"note": 0, "velocity": 0, "duration": 92}, {"note": 60, "velocity": 82, "duration": 61}, {"note": 60, "velocity": 82, "duration": 83}, {"note": 64, "velocity": 82, "duration": 362}, {"note": 65, "velocity": 82, "duration": 117}, {"note": 62, "velocity": 82, "duration": 231}, {"note": 59, "velocity": 82, "duration": 272}, {"note": 60, "velocity": 82, "duration": 611}, {"note": 0, "velocity": 0, "duration": 109}, {"note": 57, "velocity": 82, "duration": 62}, {"note": 57, "velocity": 82, "duration": 71}, {"note": 69, "velocity": 82, "duration": 123}, {"note": 0, "velocity": 0, "duration": 117}, {"note": 69, "velocity": 82, "duration": 114}, {"note": 0, "velocity": 0, "duration": 126}, {"note": 69, "velocity": 82, "duration": 53}, {"note": 0, "velocity": 0, "duration": 67}, {"note": 69, "velocity": 82, "duration": 326}, {"note": 67, "velocity": 82, "duration": 507}, {"note": 62, "velocity": 82, "duration": 232}, {"note": 67, "velocity": 82, "duration": 232}, {"note": 0, "velocity": 0, "duration": 128}, {"note": 64, "velocity": 82, "duration": 1264}, {"note": 0, "velocity": 0, "duration": 656}, {"note": 64, "velocity": 82, "duration": 145}, {"note": 0, "velocity": 0, "duration": 95}, {"note": 64, "velocity": 82, "duration": 489}, {"note": 69, "velocity": 82, "duration": 254}, {"note": 67, "velocity": 82, "duration": 733}, {"note": 62, "velocity": 81, "duration": 257}, {"note": 64, "velocity": 81, "duration": 490}, {"note": 67, "velocity": 81, "duration": 240}, {"note": 59, "velocity": 81, "duration": 249}, {"note": 60, "velocity": 81, "duration": 651}, {"note": 57, "velocity": 81, "duration": 92}, {"note": 57, "velocity": 81, "duration": 77}, {"note": 64, "velocity": 81, "duration": 231}, {"note": 57, "velocity": 81, "duration": 163}, {"note": 0, "velocity": 0, "duration": 77}, {"note": 57, "velocity": 81, "duration": 100}, {"note": 0, "velocity": 0, "duration": 140}, {"note": 57, "velocity": 81, "duration": 209}, {"note": 0, "velocity": 0, "duration": 151}, {"note": 62, "velocity": 81, "duration": 303}, {"note": 64, "velocity": 81, "duration": 293}, {"note": 62, "velocity": 81, "duration": 2043}, {"note": 0, "velocity": 0, "duration": 357}, {"note": 62, "velocity": 81, "duration": 499}, {"note": 59, "velocity": 81, "duration": 482}, {"note": 60, "velocity": 81, "duration": 378}, {"note": 0, "velocity": 0, "duration": 102}, {"note": 60, "velocity": 82, "duration": 1891}, {"note": 59, "velocity": 82, "duration": 486}, {"note": 60, "velocity": 82, "duration": 151}, {"note": 59, "velocity": 82, "duration": 315}, {"note": 57, "velocity": 81, "duration": 1771}]]