[[{"note": 71, "velocity": 86, "duration": 231}, {"note": 69, "velocity": 63, "duration": 177}, {"note": 67, "velocity": 59, "duration": 199}, {"note": 71, "velocity": 72, "duration": 1069}, {"note": 0, "velocity": 0, "duration": 196}, {"note": 71, "velocity": 89, "duration": 162}, {"note": 69, "velocity": 73, "duration": 132}, {"note": 67, "velocity": 69, "duration": 220}, {"note": 66, "velocity": 61, "duration": 936}, {"note": 0, "velocity": 0, "duration": 70}, {"note": 67, "velocity": 71, "duration": 95}, {"note": 0, "velocity": 0, "duration": 71}, {"note": 64, "velocity": 73, "duration": 560}, {"note": 76, "velocity": 75, "duration": 86}, {"note": 0, "velocity": 0, "duration": 94}, {"note": 76, "velocity": 76, "duration": 328}, {"note": 0, "velocity": 0, "duration": 153}, {"note": 76, "velocity": 77, "duration": 66}, {"note": 0, "velocity": 0, "duration": 133}, {"note": 74, "velocity": 77, "duration": 126}, {"note": 71, "velocity": 53, "duration": 178}, {"note": 74, "velocity": 63, "duration": 646}, {"note": 0, "velocity": 0, "duration": 220}, {"note": 74, "velocity": 79, "duration": 106}, {"note": 78, "velocity": 77, "duration": 135}, {"note": 79, "velocity": 78, "duration": 204}, {"note": 72, "velocity": 74, "duration": 493}, {"note": 0, "velocity": 0, "duration": 393}, {"note": 71, "velocity": 71, "duration": 103}, {"note": 76, "velocity": 67, "duration": 169}, {"note": 78, "velocity": 77, "duration": 232}, {"note": 74, "velocity": 67, "duration": 853}, {"note": 74, "velocity": 72, "duration": 129}, {"note": 72, "velocity": 74, "duration": 130}, {"note": 71, "velocity": 70, "duration": 145}, {"note": 76, "velocity": 74, "duration": 696}, {"note": 0, "velocity": 0, "duration": 406}, {"note": 76, "velocity": 79, "duration": 163}, {"note": 74, "velocity": 74, "duration": 161}, {"note": 72, "velocity": 73, "duration": 113}, {"note": 71, "velocity": 69, "duration": 444}, {"note": 0, "velocity": 0, "duration": 174}, {"note": 69, "velocity": 78, "duration": 298}, {"note": 71, "velocity": 76, "duration": 94}, {"note": 69, "velocity": 58, "duration": 89}, {"note": 67, "velocity": 61, "duration": 115}, {"note": 71, "velocity": 63, "duration": 654}, {"note": 0, "velocity": 0, "duration": 491}, {"note": 71, "velocity": 75, "duration": 137}, {"note": 69, "velocity": 74, "duration": 129}, {"note": 67, "velocity": 68, "duration": 234}, {"note": 66, "velocity": 66, "duration": 649}, {"note": 0, "velocity": 0, "duration": 364}, {"note": 66, "velocity": 66, "duration": 178}, {"note": 67, "velocity": 59, "duration": 104}, {"note": 67, "velocity": 69, "duration": 188}, {"note": 64, "velocity": 71, "duration": 396}, {"note": 76, "velocity": 73, "duration": 117}, {"note": 76, "velocity": 79, "duration": 179}, {"note": 0, "velocity": 0, "duration": 179}, {"note": 76, "velocity": 76, "duration": 131}, {"note": 0, "velocity": 0, "duration": 77}, {"note": 74, "velocity": 74, "duration": 125}, {"note": 71, "velocity": 63, "duration": 155}, {"note": 74, "velocity": 60, "duration": 673}, {"note": 0, "velocity": 0, "duration": 172}, {"note": 74, "velocity": 69, "duration": 139}, {"note": 78, "velocity": 88, "duration": 120}, {"note": 79, "velocity": 62, "duration": 186}, {"note": 72, "velocity": 74, "duration": 506}, {"note": 0, "velocity": 0, "duration": 445}, {"note": 69, "velocity": 79, "duration": 105}, {"note": 76, "velocity": 74, "duration": 103}, {"note": 78, "velocity": 95, "duration": 164}, {"note": 74, "velocity": 73, "duration": 326}, {"note": 0, "velocity": 0, "duration": 111}, {"note": 81, "velocity": 77, "duration": 128}, {"note": 79, "velocity": 72, "duration": 365}, {"note": 76, "velocity": 71, "duration": 116}, {"note": 78, "velocity": 65, "duration": 107}, {"note": 79, "velocity": 71, "duration": 68}, {"note": 0, "velocity": 0, "duration": 62}, {"note": 79, "velocity": 82, "duration": 207}, {"note": 0, "velocity": 0, "duration": 378}, {"note": 72, "velocity": 72, "duration": 63}, {"note": 0, "velocity": 0, "duration": 63}, {"note": 72, "velocity": 77, "duration": 283}, {"note": 0, "velocity": 0, "duration": 91}, {"note": 76, "velocity": 72, "duration": 135}, {"note": 78, "velocity": 79, "duration": 122}, {"note": 79, "velocity": 89, "duration": 80}, {"note": 0, "velocity": 0, "duration": 72}, {"note": 81, "velocity": 90, "duration": 849}, {"note": 0, "velocity": 0, "duration": 125}, {"note": 74, "velocity": 92, "duration": 206}, {"note": 0, "velocity": 0, "duration": 163}, {"note": 83, "velocity": 88, "duration": 431}, {"note": 0, "velocity": 0, "duration": 289}, {"note": 76, "velocity": 88, "duration": 86}, {"note": 0, "velocity": 0, "duration": 154}, {"note": 76, "velocity": 95, "duration": 372}, {"note": 0, "velocity": 0, "duration": 113}, {"note": 76, "velocity": 85, "duration": 105}, {"note": 78, "velocity": 88, "duration": 98}, {"note": 0, "velocity": 0, "duration": 65}, {"note": 79, "velocity": 66, "duration": 84}, {"note": 0, "velocity": 0, "duration": 64}, {"note": 81, "velocity": 89, "duration": 202}, {"note": 83, "velocity": 86, "duration": 211}, {"note": 81, "velocity": 89, "duration": 173}, {"note": 0, "velocity": 0, "duration": 65}, {"note": 74, "velocity": 79, "duration": 136}, {"note": 79, "velocity": 79, "duration": 608}, {"note": 0, "velocity": 0, "duration": 213}, {"note": 76, "velocity": 86, "duration": 103}, {"note": 78, "velocity": 79, "duration": 94}, {"note": 79, "velocity": 90, "duration": 442}, {"note": 0, "velocity": 0, "duration": 242}, {"note": 72, "velocity": 85, "duration": 156}, {"note": 0, "velocity": 0, "duration": 86}, {"note": 72, "velocity": 89, "duration": 316}, {"note": 0, "velocity": 0, "duration": 175}, {"note": 79, "velocity": 92, "duration": 132}, {"note": 78, "velocity": 83, "duration": 195}, {"note": 76, "velocity": 67, "duration": 74}, {"note": 0, "velocity": 0, "duration": 85}, {"note": 76, "velocity": 83, "duration": 465}, {"note": 74, "velocity": 82, "duration": 431}, {"note": 84, "velocity": 107, "duration": 355}, {"note": 0, "velocity": 0, "duration": 133}, {"note": 83, "velocity": 97, "duration": 149}, {"note": 0, "velocity": 0, "duration": 90}, {"note": 86, "velocity": 112, "duration": 119}, {"note": 0, "velocity": 0, "duration": 127}, {"note": 83, "velocity": 107, "duration": 317}, {"note": 76, "velocity": 85, "duration": 59}, {"note": 76, "velocity": 95, "duration": 302}, {"note": 0, "velocity": 0, "duration": 753}, {"note": 83, "velocity": 100, "duration": 109}, {"note": 0, "velocity": 0, "duration": 66}, {"note": 81, "velocity": 90, "duration": 117}, {"note": 79, "velocity": 74, "duration": 82}, {"note": 0, "velocity": 0, "duration": 65}, {"note": 81, "velocity": 95, "duration": 180}, {"note": 74, "velocity": 96, "duration": 56}, {"note": 0, "velocity": 0, "duration": 70}, {"note": 74, "velocity": 99, "duration": 363}, {"note": 81, "velocity": 102, "duration": 194}, {"note": 79, "velocity": 99, "duration": 367}, {"note": 0, "velocity": 0, "duration": 267}, {"note": 76, "velocity": 102, "duration": 97}, {"note": 0, "velocity": 0, "duration": 108}, {"note": 78, "velocity": 96, "duration": 74}, {"note": 0, "velocity": 0, "duration": 62}, {"note": 79, "velocity": 96, "duration": 334}, {"note": 0, "velocity": 0, "duration": 1291}, {"note": 76, "velocity": 92, "duration": 86}, {"note": 0, "velocity": 0, "duration": 104}, {"note": 78, "velocity": 92, "duration": 111}, {"note": 0, "velocity": 0, "duration": 92}, {"note": 79, "velocity": 85, "duration": 548}, {"note": 0, "velocity": 0, "duration": 16157}, {"note": 71, "velocity": 82, "duration": 186}, {"note": 69, "velocity": 66, "duration": 162}, {"note": 67, "velocity": 66, "duration": 157}, {"note": 71, "velocity": 71, "duration": 974}, {"note": 0, "velocity": 0, "duration": 466}, {"note": 71, "velocity": 92, "duration": 104}, {"note": 69, "velocity": 79, "duration": 97}, {"note": 0, "velocity": 0, "duration": 223}, {"note": 67, "velocity": 77, "duration": 170}, {"note": 66, "velocity": 74, "duration": 995}, {"note": 0, "velocity": 0, "duration": 445}, {"note": 67, "velocity": 70, "duration": 88}, {"note": 0, "velocity": 0, "duration": 232}, {"note": 64, "velocity": 75, "duration": 732}, {"note": 76, "velocity": 75, "duration": 95}, {"note": 0, "velocity": 0, "duration": 225}, {"note": 76, "velocity": 81, "duration": 464}, {"note": 76, "velocity": 88, "duration": 97}, {"note": 0, "velocity": 0, "duration": 223}, {"note": 74, "velocity": 78, "duration": 122}, {"note": 71, "velocity": 79, "duration": 234}, {"note": 0, "velocity": 0, "duration": 86}, {"note": 74, "velocity": 70, "duration": 742}, {"note": 0, "velocity": 0, "duration": 378}, {"note": 74, "velocity": 85, "duration": 159}, {"note": 78, "velocity": 93, "duration": 155}, {"note": 79, "velocity": 83, "duration": 220}, {"note": 0, "velocity": 0, "duration": 100}, {"note": 72, "velocity": 83, "duration": 697}, {"note": 0, "velocity": 0, "duration": 583}, {"note": 69, "velocity": 83, "duration": 295}, {"note": 76, "velocity": 76, "duration": 152}, {"note": 0, "velocity": 0, "duration": 168}, {"note": 78, "velocity": 82, "duration": 330}, {"note": 74, "velocity": 76, "duration": 595}, {"note": 0, "velocity": 0, "duration": 525}, {"note": 74, "velocity": 96, "duration": 156}, {"note": 72, "velocity": 78, "duration": 149}, {"note": 71, "velocity": 82, "duration": 166}, {"note": 76, "velocity": 86, "duration": 681}, {"note": 0, "velocity": 0, "duration": 759}, {"note": 76, "velocity": 96, "duration": 102}, {"note": 74, "velocity": 79, "duration": 136}, {"note": 72, "velocity": 59, "duration": 94}, {"note": 0, "velocity": 0, "duration": 66}, {"note": 71, "velocity": 90, "duration": 793}, {"note": 69, "velocity": 78, "duration": 114}, {"note": 69, "velocity": 78, "duration": 184}, {"note": 0, "velocity": 0, "duration": 316}, {"note": 71, "velocity": 95, "duration": 158}, {"note": 69, "velocity": 71, "duration": 126}, {"note": 67, "velocity": 85, "duration": 323}, {"note": 71, "velocity": 75, "duration": 669}, {"note": 0, "velocity": 0, "duration": 521}, {"note": 71, "velocity": 92, "duration": 104}, {"note": 69, "velocity": 79, "duration": 97}, {"note": 0, "velocity": 0, "duration": 223}, {"note": 67, "velocity": 77, "duration": 170}, {"note": 66, "velocity": 74, "duration": 995}, {"note": 0, "velocity": 0, "duration": 283}, {"note": 66, "velocity": 86, "duration": 208}, {"note": 0, "velocity": 0, "duration": 97}, {"note": 67, "velocity": 89, "duration": 150}, {"note": 64, "velocity": 75, "duration": 732}, {"note": 76, "velocity": 83, "duration": 107}, {"note": 0, "velocity": 0, "duration": 79}, {"note": 76, "velocity": 88, "duration": 171}, {"note": 0, "velocity": 0, "duration": 314}, {"note": 76, "velocity": 88, "duration": 97}, {"note": 0, "velocity": 0, "duration": 223}, {"note": 74, "velocity": 78, "duration": 122}, {"note": 71, "velocity": 79, "duration": 234}, {"note": 0, "velocity": 0, "duration": 86}, {"note": 74, "velocity": 70, "duration": 742}, {"note": 0, "velocity": 0, "duration": 378}, {"note": 74, "velocity": 85, "duration": 159}, {"note": 78, "velocity": 93, "duration": 155}, {"note": 79, "velocity": 83, "duration": 220}, {"note": 0, "velocity": 0, "duration": 100}, {"note": 72, "velocity": 83, "duration": 697}, {"note": 0, "velocity": 0, "duration": 583}, {"note": 69, "velocity": 83, "duration": 295}, {"note": 76, "velocity": 76, "duration": 152}, {"note": 78, "velocity": 82, "duration": 330}, {"note": 74, "velocity": 76, "duration": 595}, {"note": 81, "velocity": 81, "duration": 233}, {"note": 79, "velocity": 90, "duration": 329}, {"note": 0, "velocity": 0, "duration": 114}, {"note": 76, "velocity": 89, "duration": 155}, {"note": 78, "velocity": 88, "duration": 123}, {"note": 79, "velocity": 90, "duration": 85}, {"note": 0, "velocity": 0, "duration": 77}, {"note": 79, "velocity": 95, "duration": 476}, {"note": 0, "velocity": 0, "duration": 306}, {"note": 72, "velocity": 92, "duration": 77}, {"note": 0, "velocity": 0, "duration": 100}, {"note": 72, "velocity": 96, "duration": 196}, {"note": 0, "velocity": 0, "duration": 287}, {"note": 76, "velocity": 97, "duration": 122}, {"note": 78, "velocity": 92, "duration": 87}, {"note": 0, "velocity": 0, "duration": 75}, {"note": 79, "velocity": 92, "duration": 73}, {"note": 0, "velocity": 0, "duration": 93}, {"note": 81, "velocity": 107, "duration": 1071}, {"note": 0, "velocity": 0, "duration": 374}, {"note": 74, "velocity": 107, "duration": 455}, {"note": 83, "velocity": 88, "duration": 431}, {"note": 0, "velocity": 0, "duration": 289}, {"note": 76, "velocity": 88, "duration": 86}, {"note": 0, "velocity": 0, "duration": 154}, {"note": 76, "velocity": 95, "duration": 372}, {"note": 0, "velocity": 0, "duration": 113}, {"note": 76, "velocity": 85, "duration": 105}, {"note": 78, "velocity": 88, "duration": 98}, {"note": 0, "velocity": 0, "duration": 65}, {"note": 79, "velocity": 66, "duration": 84}, {"note": 0, "velocity": 0, "duration": 64}, {"note": 81, "velocity": 89, "duration": 202}, {"note": 83, "velocity": 86, "duration": 211}, {"note": 81, "velocity": 89, "duration": 173}, {"note": 0, "velocity": 0, "duration": 65}, {"note": 74, "velocity": 79, "duration": 136}, {"note": 79, "velocity": 79, "duration": 608}, {"note": 0, "velocity": 0, "duration": 213}, {"note": 76, "velocity": 86, "duration": 103}, {"note": 78, "velocity": 79, "duration": 94}, {"note": 79, "velocity": 90, "duration": 442}, {"note": 0, "velocity": 0, "duration": 242}, {"note": 72, "velocity": 85, "duration": 156}, {"note": 0, "velocity": 0, "duration": 86}, {"note": 72, "velocity": 89, "duration": 316}, {"note": 0, "velocity": 0, "duration": 175}, {"note": 79, "velocity": 92, "duration": 132}, {"note": 78, "velocity": 83, "duration": 195}, {"note": 76, "velocity": 67, "duration": 74}, {"note": 0, "velocity": 0, "duration": 85}, {"note": 76, "velocity": 83, "duration": 465}, {"note": 74, "velocity": 82, "duration": 431}, {"note": 84, "velocity": 107, "duration": 355}, {"note": 0, "velocity": 0, "duration": 133}, {"note": 83, "velocity": 97, "duration": 149}, {"note": 0, "velocity": 0, "duration": 90}, {"note": 86, "velocity": 112, "duration": 119}, {"note": 0, "velocity": 0, "duration": 127}, {"note": 83, "velocity": 107, "duration": 317}, {"note": 76, "velocity": 85, "duration": 59}, {"note": 76, "velocity": 95, "duration": 302}, {"note": 0, "velocity": 0, "duration": 753}, {"note": 83, "velocity": 100, "duration": 109}, {"note": 0, "velocity": 0, "duration": 66}, {"note": 81, "velocity": 90, "duration": 117}, {"note": 79, "velocity": 74, "duration": 82}, {"note": 0, "velocity": 0, "duration": 65}, {"note": 81, "velocity": 95, "duration": 180}, {"note": 74, "velocity": 96, "duration": 56}, {"note": 0, "velocity": 0, "duration": 70}, {"note": 74, "velocity": 99, "duration": 363}, {"note": 81, "velocity": 102, "duration": 194}, {"note": 79, "velocity": 99, "duration": 367}, {"note": 0, "velocity": 0, "duration": 267}, {"note": 76, "velocity": 102, "duration": 97}, {"note": 0, "velocity": 0, "duration": 108}, {"note": 78, "velocity": 96, "duration": 74}, {"note": 0, "velocity": 0, "duration": 62}, {"note": 79, "velocity": 96, "duration": 334}, {"note": 0, "velocity": 0, "duration": 1090}, {"note": 76, "velocity": 97, "duration": 260}, {"note": 78, "velocity": 78, "duration": 248}, {"note": 79, "velocity": 96, "duration": 1408}, {"note": 74, "velocity": 117, "duration": 338}, {"note": 0, "velocity": 0, "duration": 141}, {"note": 83, "velocity": 88, "duration": 431}, {"note": 0, "velocity": 0, "duration": 289}, {"note": 76, "velocity": 88, "duration": 86}, {"note": 0, "velocity": 0, "duration": 154}, {"note": 76, "velocity": 95, "duration": 372}, {"note": 0, "velocity": 0, "duration": 113}, {"note": 76, "velocity": 85, "duration": 105}, {"note": 78, "velocity": 88, "duration": 98}, {"note": 0, "velocity": 0, "duration": 65}, {"note": 79, "velocity": 66, "duration": 84}, {"note": 0, "velocity": 0, "duration": 64}, {"note": 81, "velocity": 89, "duration": 202}, {"note": 83, "velocity": 86, "duration": 211}, {"note": 81, "velocity": 89, "duration": 173}, {"note": 0, "velocity": 0, "duration": 65}, {"note": 74, "velocity": 79, "duration": 136}, {"note": 79, "velocity": 79, "duration": 608}, {"note": 0, "velocity": 0, "duration": 213}, {"note": 76, "velocity": 86, "duration": 103}, {"note": 78, "velocity": 79, "duration": 94}, {"note": 79, "velocity": 90, "duration": 442}, {"note": 0, "velocity": 0, "duration": 242}, {"note": 72, "velocity": 85, "duration": 156}, {"note": 0, "velocity": 0, "duration": 86}, {"note": 72, "velocity": 89, "duration": 316}, {"note": 0, "velocity": 0, "duration": 175}, {"note": 79, "velocity": 92, "duration": 132}, {"note": 78, "velocity": 83, "duration": 195}, {"note": 76, "velocity": 67, "duration": 74}, {"note": 0, "velocity": 0, "duration": 85}, {"note": 76, "velocity": 83, "duration": 465}, {"note": 74, "velocity": 82, "duration": 431}, {"note": 84, "velocity": 107, "duration": 355}, {"note": 0, "velocity": 0, "duration": 133}, {"note": 83, "velocity": 97, "duration": 149}, {"note": 0, "velocity": 0, "duration": 90}, {"note": 86, "velocity": 112, "duration": 119}, {"note": 0, "velocity": 0, "duration": 127}, {"note": 83, "velocity": 107, "duration": 317}, {"note": 76, "velocity": 85, "duration": 59}, {"note": 76, "velocity": 95, "duration": 302}, {"note": 0, "velocity": 0, "duration": 753}, {"note": 83, "velocity": 100, "duration": 109}, {"note": 0, "velocity": 0, "duration": 66}, {"note": 81, "velocity": 90, "duration": 117}, {"note": 79, "velocity": 74, "duration": 82}, {"note": 0, "velocity": 0, "duration": 65}, {"note": 81, "velocity": 95, "duration": 180}, {"note": 74, "velocity": 96, "duration": 56}, {"note": 0, "velocity": 0, "duration": 70}, {"note": 74, "velocity": 99, "duration": 363}, {"note": 81, "velocity": 102, "duration": 194}, {"note": 79, "velocity": 99, "duration": 367}, {"note": 0, "velocity": 0, "duration": 267}, {"note": 76, "velocity": 102, "duration": 97}, {"note": 0, "velocity": 0, "duration": 108}, {"note": 78, "velocity": 96, "duration": 74}, {"note": 0, "velocity": 0, "duration": 62}, {"note": 79, "velocity": 96, "duration": 334}, {"note": 0, "velocity": 0, "duration": 1552}, {"note": 76, "velocity": 81, "duration": 500}, {"note": 78, "velocity": 82, "duration": 1234}, {"note": 79, "velocity": 81, "duration": 2635}]]