[[{"note": 60, "velocity": 81, "duration": 225}, {"note": 63, "velocity": 86, "duration": 86}, {"note": 63, "velocity": 79, "duration": 291}, {"note": 0, "velocity": 0, "duration": 69}, {"note": 65, "velocity": 86, "duration": 241}, {"note": 63, "velocity": 90, "duration": 592}, {"note": 0, "velocity": 0, "duration": 368}, {"note": 58, "velocity": 95, "duration": 216}, {"note": 60, "velocity": 77, "duration": 407}, {"note": 0, "velocity": 0, "duration": 73}, {"note": 58, "velocity": 77, "duration": 255}, {"note": 56, "velocity": 65, "duration": 693}, {"note": 0, "velocity": 0, "duration": 267}, {"note": 56, "velocity": 92, "duration": 216}, {"note": 58, "velocity": 72, "duration": 221}, {"note": 60, "velocity": 78, "duration": 268}, {"note": 68, "velocity": 99, "duration": 239}, {"note": 67, "velocity": 93, "duration": 377}, {"note": 65, "velocity": 89, "duration": 436}, {"note": 67, "velocity": 96, "duration": 138}, {"note": 65, "velocity": 76, "duration": 121}, {"note": 63, "velocity": 83, "duration": 1051}, {"note": 0, "velocity": 0, "duration": 869}, {"note": 65, "velocity": 93, "duration": 246}, {"note": 68, "velocity": 97, "duration": 423}, {"note": 70, "velocity": 99, "duration": 265}, {"note": 68, "velocity": 90, "duration": 486}, {"note": 0, "velocity": 0, "duration": 474}, {"note": 63, "velocity": 92, "duration": 227}, {"note": 65, "velocity": 78, "duration": 467}, {"note": 63, "velocity": 88, "duration": 241}, {"note": 60, "velocity": 75, "duration": 551}, {"note": 0, "velocity": 0, "duration": 409}, {"note": 58, "velocity": 96, "duration": 143}, {"note": 0, "velocity": 0, "duration": 97}, {"note": 60, "velocity": 77, "duration": 160}, {"note": 0, "velocity": 0, "duration": 80}, {"note": 63, "velocity": 92, "duration": 173}, {"note": 0, "velocity": 0, "duration": 67}, {"note": 60, "velocity": 88, "duration": 209}, {"note": 60, "velocity": 92, "duration": 251}, {"note": 58, "velocity": 72, "duration": 439}, {"note": 56, "velocity": 89, "duration": 248}, {"note": 58, "velocity": 78, "duration": 1367}, {"note": 0, "velocity": 0, "duration": 553}, {"note": 60, "velocity": 97, "duration": 246}, {"note": 63, "velocity": 93, "duration": 409}, {"note": 0, "velocity": 0, "duration": 71}, {"note": 65, "velocity": 100, "duration": 234}, {"note": 63, "velocity": 95, "duration": 557}, {"note": 0, "velocity": 0, "duration": 403}, {"note": 58, "velocity": 95, "duration": 216}, {"note": 60, "velocity": 77, "duration": 407}, {"note": 0, "velocity": 0, "duration": 73}, {"note": 58, "velocity": 77, "duration": 255}, {"note": 56, "velocity": 65, "duration": 693}, {"note": 0, "velocity": 0, "duration": 267}, {"note": 56, "velocity": 92, "duration": 216}, {"note": 58, "velocity": 72, "duration": 221}, {"note": 60, "velocity": 78, "duration": 268}, {"note": 68, "velocity": 99, "duration": 239}, {"note": 67, "velocity": 93, "duration": 377}, {"note": 65, "velocity": 89, "duration": 436}, {"note": 60, "velocity": 97, "duration": 238}, {"note": 63, "velocity": 117, "duration": 1232}, {"note": 0, "velocity": 0, "duration": 688}, {"note": 65, "velocity": 93, "duration": 246}, {"note": 68, "velocity": 97, "duration": 423}, {"note": 70, "velocity": 99, "duration": 265}, {"note": 68, "velocity": 90, "duration": 486}, {"note": 0, "velocity": 0, "duration": 474}, {"note": 63, "velocity": 92, "duration": 227}, {"note": 65, "velocity": 78, "duration": 467}, {"note": 63, "velocity": 88, "duration": 241}, {"note": 60, "velocity": 75, "duration": 551}, {"note": 0, "velocity": 0, "duration": 409}, {"note": 58, "velocity": 96, "duration": 143}, {"note": 0, "velocity": 0, "duration": 97}, {"note": 60, "velocity": 77, "duration": 160}, {"note": 0, "velocity": 0, "duration": 80}, {"note": 63, "velocity": 92, "duration": 173}, {"note": 0, "velocity": 0, "duration": 67}, {"note": 65, "velocity": 96, "duration": 173}, {"note": 0, "velocity": 0, "duration": 67}, {"note": 60, "velocity": 92, "duration": 216}, {"note": 58, "velocity": 78, "duration": 375}, {"note": 0, "velocity": 0, "duration": 105}, {"note": 60, "velocity": 95, "duration": 236}, {"note": 56, "velocity": 76, "duration": 1175}, {"note": 0, "velocity": 0, "duration": 265}, {"note": 70, "velocity": 127, "duration": 249}, {"note": 72, "velocity": 102, "duration": 132}, {"note": 70, "velocity": 122, "duration": 110}, {"note": 68, "velocity": 127, "duration": 625}, {"note": 0, "velocity": 0, "duration": 95}, {"note": 70, "velocity": 127, "duration": 152}, {"note": 0, "velocity": 0, "duration": 88}, {"note": 72, "velocity": 127, "duration": 136}, {"note": 0, "velocity": 0, "duration": 104}, {"note": 67, "velocity": 127, "duration": 210}, {"note": 65, "velocity": 127, "duration": 157}, {"note": 0, "velocity": 0, "duration": 83}, {"note": 60, "velocity": 107, "duration": 233}, {"note": 63, "velocity": 122, "duration": 714}, {"note": 0, "velocity": 0, "duration": 726}, {"note": 68, "velocity": 127, "duration": 183}, {"note": 67, "velocity": 112, "duration": 235}, {"note": 65, "velocity": 99, "duration": 409}, {"note": 0, "velocity": 0, "duration": 71}, {"note": 65, "velocity": 99, "duration": 185}, {"note": 63, "velocity": 99, "duration": 197}, {"note": 65, "velocity": 102, "duration": 217}, {"note": 60, "velocity": 102, "duration": 232}, {"note": 63, "velocity": 117, "duration": 346}, {"note": 60, "velocity": 95, "duration": 199}, {"note": 58, "velocity": 97, "duration": 791}, {"note": 0, "velocity": 0, "duration": 649}, {"note": 60, "velocity": 100, "duration": 210}, {"note": 58, "velocity": 122, "duration": 231}, {"note": 56, "velocity": 107, "duration": 356}, {"note": 0, "velocity": 0, "duration": 364}, {"note": 58, "velocity": 99, "duration": 164}, {"note": 0, "velocity": 0, "duration": 76}, {"note": 60, "velocity": 102, "duration": 169}, {"note": 0, "velocity": 0, "duration": 71}, {"note": 68, "velocity": 112, "duration": 173}, {"note": 0, "velocity": 0, "duration": 67}, {"note": 67, "velocity": 99, "duration": 202}, {"note": 63, "velocity": 107, "duration": 187}, {"note": 65, "velocity": 102, "duration": 945}, {"note": 0, "velocity": 0, "duration": 495}, {"note": 70, "velocity": 122, "duration": 185}, {"note": 68, "velocity": 117, "duration": 174}, {"note": 0, "velocity": 0, "duration": 66}, {"note": 70, "velocity": 127, "duration": 368}, {"note": 0, "velocity": 0, "duration": 112}, {"note": 70, "velocity": 112, "duration": 164}, {"note": 0, "velocity": 0, "duration": 76}, {"note": 68, "velocity": 122, "duration": 177}, {"note": 0, "velocity": 0, "duration": 63}, {"note": 60, "velocity": 112, "duration": 207}, {"note": 60, "velocity": 107, "duration": 172}, {"note": 0, "velocity": 0, "duration": 68}, {"note": 67, "velocity": 99, "duration": 174}, {"note": 0, "velocity": 0, "duration": 66}, {"note": 65, "velocity": 97, "duration": 202}, {"note": 63, "velocity": 99, "duration": 848}, {"note": 0, "velocity": 0, "duration": 592}, {"note": 70, "velocity": 127, "duration": 215}, {"note": 72, "velocity": 107, "duration": 105}, {"note": 70, "velocity": 107, "duration": 118}, {"note": 68, "velocity": 117, "duration": 555}, {"note": 0, "velocity": 0, "duration": 165}, {"note": 70, "velocity": 127, "duration": 161}, {"note": 0, "velocity": 0, "duration": 79}, {"note": 72, "velocity": 122, "duration": 166}, {"note": 0, "velocity": 0, "duration": 74}, {"note": 67, "velocity": 122, "duration": 202}, {"note": 65, "velocity": 112, "duration": 190}, {"note": 63, "velocity": 112, "duration": 201}, {"note": 65, "velocity": 107, "duration": 590}, {"note": 0, "velocity": 0, "duration": 850}, {"note": 65, "velocity": 100, "duration": 190}, {"note": 68, "velocity": 117, "duration": 188}, {"note": 70, "velocity": 122, "duration": 197}, {"note": 0, "velocity": 0, "duration": 283}, {"note": 70, "velocity": 127, "duration": 156}, {"note": 0, "velocity": 0, "duration": 84}, {"note": 72, "velocity": 117, "duration": 172}, {"note": 0, "velocity": 0, "duration": 68}, {"note": 70, "velocity": 127, "duration": 157}, {"note": 0, "velocity": 0, "duration": 83}, {"note": 67, "velocity": 100, "duration": 162}, {"note": 0, "velocity": 0, "duration": 78}, {"note": 60, "velocity": 107, "duration": 193}, {"note": 65, "velocity": 100, "duration": 214}, {"note": 63, "velocity": 122, "duration": 474}, {"note": 0, "velocity": 0, "duration": 966}, {"note": 56, "velocity": 97, "duration": 180}, {"note": 58, "velocity": 112, "duration": 151}, {"note": 0, "velocity": 0, "duration": 89}, {"note": 60, "velocity": 122, "duration": 548}, {"note": 0, "velocity": 0, "duration": 172}, {"note": 63, "velocity": 122, "duration": 173}, {"note": 0, "velocity": 0, "duration": 67}, {"note": 63, "velocity": 117, "duration": 183}, {"note": 68, "velocity": 117, "duration": 143}, {"note": 0, "velocity": 0, "duration": 97}, {"note": 67, "velocity": 107, "duration": 143}, {"note": 0, "velocity": 0, "duration": 97}, {"note": 63, "velocity": 102, "duration": 143}, {"note": 0, "velocity": 0, "duration": 97}, {"note": 65, "velocity": 117, "duration": 800}, {"note": 0, "velocity": 0, "duration": 640}, {"note": 65, "velocity": 102, "duration": 174}, {"note": 0, "velocity": 0, "duration": 66}, {"note": 68, "velocity": 107, "duration": 158}, {"note": 0, "velocity": 0, "duration": 82}, {"note": 70, "velocity": 122, "duration": 1}, {"note": 0, "velocity": 0, "duration": 239}, {"note": 70, "velocity": 127, "duration": 165}, {"note": 0, "velocity": 0, "duration": 315}, {"note": 67, "velocity": 99, "duration": 162}, {"note": 0, "velocity": 0, "duration": 78}, {"note": 65, "velocity": 99, "duration": 379}, {"note": 0, "velocity": 0, "duration": 101}, {"note": 63, "velocity": 95, "duration": 176}, {"note": 0, "velocity": 0, "duration": 64}, {"note": 65, "velocity": 99, "duration": 194}, {"note": 68, "velocity": 112, "duration": 1245}, {"note": 0, "velocity": 0, "duration": 16035}, {"note": 60, "velocity": 97, "duration": 246}, {"note": 63, "velocity": 93, "duration": 409}, {"note": 0, "velocity": 0, "duration": 71}, {"note": 65, "velocity": 100, "duration": 234}, {"note": 63, "velocity": 95, "duration": 557}, {"note": 0, "velocity": 0, "duration": 403}, {"note": 58, "velocity": 95, "duration": 216}, {"note": 60, "velocity": 77, "duration": 407}, {"note": 0, "velocity": 0, "duration": 73}, {"note": 58, "velocity": 77, "duration": 255}, {"note": 56, "velocity": 65, "duration": 693}, {"note": 0, "velocity": 0, "duration": 267}, {"note": 56, "velocity": 92, "duration": 216}, {"note": 58, "velocity": 72, "duration": 221}, {"note": 60, "velocity": 78, "duration": 268}, {"note": 68, "velocity": 99, "duration": 239}, {"note": 67, "velocity": 93, "duration": 377}, {"note": 65, "velocity": 89, "duration": 436}, {"note": 60, "velocity": 97, "duration": 238}, {"note": 63, "velocity": 117, "duration": 1232}, {"note": 0, "velocity": 0, "duration": 688}, {"note": 65, "velocity": 93, "duration": 246}, {"note": 68, "velocity": 97, "duration": 423}, {"note": 70, "velocity": 99, "duration": 265}, {"note": 68, "velocity": 90, "duration": 486}, {"note": 0, "velocity": 0, "duration": 474}, {"note": 63, "velocity": 92, "duration": 227}, {"note": 65, "velocity": 78, "duration": 467}, {"note": 63, "velocity": 88, "duration": 241}, {"note": 60, "velocity": 75, "duration": 551}, {"note": 0, "velocity": 0, "duration": 409}, {"note": 58, "velocity": 96, "duration": 143}, {"note": 0, "velocity": 0, "duration": 97}, {"note": 60, "velocity": 77, "duration": 160}, {"note": 0, "velocity": 0, "duration": 80}, {"note": 63, "velocity": 92, "duration": 173}, {"note": 0, "velocity": 0, "duration": 67}, {"note": 65, "velocity": 96, "duration": 173}, {"note": 0, "velocity": 0, "duration": 67}, {"note": 60, "velocity": 92, "duration": 216}, {"note": 58, "velocity": 78, "duration": 375}, {"note": 0, "velocity": 0, "duration": 105}, {"note": 60, "velocity": 95, "duration": 236}, {"note": 56, "velocity": 76, "duration": 1175}, {"note": 0, "velocity": 0, "duration": 265}, {"note": 70, "velocity": 127, "duration": 249}, {"note": 72, "velocity": 102, "duration": 132}, {"note": 70, "velocity": 122, "duration": 110}, {"note": 68, "velocity": 127, "duration": 625}, {"note": 0, "velocity": 0, "duration": 95}, {"note": 70, "velocity": 127, "duration": 152}, {"note": 0, "velocity": 0, "duration": 88}, {"note": 72, "velocity": 127, "duration": 136}, {"note": 0, "velocity": 0, "duration": 104}, {"note": 67, "velocity": 127, "duration": 210}, {"note": 65, "velocity": 127, "duration": 157}, {"note": 0, "velocity": 0, "duration": 83}, {"note": 60, "velocity": 107, "duration": 233}, {"note": 63, "velocity": 122, "duration": 714}, {"note": 0, "velocity": 0, "duration": 726}, {"note": 68, "velocity": 127, "duration": 183}, {"note": 67, "velocity": 112, "duration": 235}, {"note": 65, "velocity": 99, "duration": 409}, {"note": 0, "velocity": 0, "duration": 71}, {"note": 65, "velocity": 99, "duration": 185}, {"note": 63, "velocity": 99, "duration": 197}, {"note": 65, "velocity": 102, "duration": 217}, {"note": 60, "velocity": 102, "duration": 232}, {"note": 63, "velocity": 117, "duration": 346}, {"note": 60, "velocity": 95, "duration": 199}, {"note": 58, "velocity": 97, "duration": 791}, {"note": 0, "velocity": 0, "duration": 649}, {"note": 60, "velocity": 100, "duration": 210}, {"note": 58, "velocity": 122, "duration": 231}, {"note": 56, "velocity": 107, "duration": 356}, {"note": 0, "velocity": 0, "duration": 364}, {"note": 58, "velocity": 99, "duration": 164}, {"note": 0, "velocity": 0, "duration": 76}, {"note": 60, "velocity": 102, "duration": 169}, {"note": 0, "velocity": 0, "duration": 71}, {"note": 68, "velocity": 112, "duration": 173}, {"note": 0, "velocity": 0, "duration": 67}, {"note": 67, "velocity": 99, "duration": 202}, {"note": 63, "velocity": 107, "duration": 187}, {"note": 65, "velocity": 102, "duration": 945}, {"note": 0, "velocity": 0, "duration": 495}, {"note": 70, "velocity": 122, "duration": 185}, {"note": 68, "velocity": 117, "duration": 174}, {"note": 0, "velocity": 0, "duration": 66}, {"note": 70, "velocity": 127, "duration": 368}, {"note": 0, "velocity": 0, "duration": 112}, {"note": 70, "velocity": 112, "duration": 164}, {"note": 0, "velocity": 0, "duration": 76}, {"note": 68, "velocity": 122, "duration": 177}, {"note": 0, "velocity": 0, "duration": 63}, {"note": 60, "velocity": 112, "duration": 207}, {"note": 60, "velocity": 107, "duration": 172}, {"note": 0, "velocity": 0, "duration": 68}, {"note": 67, "velocity": 99, "duration": 174}, {"note": 0, "velocity": 0, "duration": 66}, {"note": 65, "velocity": 97, "duration": 202}, {"note": 63, "velocity": 99, "duration": 848}, {"note": 0, "velocity": 0, "duration": 592}, {"note": 70, "velocity": 127, "duration": 215}, {"note": 72, "velocity": 107, "duration": 105}, {"note": 70, "velocity": 107, "duration": 118}, {"note": 68, "velocity": 117, "duration": 555}, {"note": 0, "velocity": 0, "duration": 165}, {"note": 70, "velocity": 127, "duration": 161}, {"note": 0, "velocity": 0, "duration": 79}, {"note": 72, "velocity": 122, "duration": 166}, {"note": 0, "velocity": 0, "duration": 74}, {"note": 67, "velocity": 122, "duration": 202}, {"note": 65, "velocity": 112, "duration": 190}, {"note": 63, "velocity": 112, "duration": 201}, {"note": 65, "velocity": 107, "duration": 590}, {"note": 0, "velocity": 0, "duration": 850}, {"note": 65, "velocity": 100, "duration": 190}, {"note": 68, "velocity": 117, "duration": 188}, {"note": 70, "velocity": 122, "duration": 197}, {"note": 0, "velocity": 0, "duration": 283}, {"note": 70, "velocity": 127, "duration": 156}, {"note": 0, "velocity": 0, "duration": 84}, {"note": 72, "velocity": 117, "duration": 172}, {"note": 0, "velocity": 0, "duration": 68}, {"note": 70, "velocity": 127, "duration": 157}, {"note": 0, "velocity": 0, "duration": 83}, {"note": 67, "velocity": 100, "duration": 162}, {"note": 0, "velocity": 0, "duration": 78}, {"note": 60, "velocity": 107, "duration": 193}, {"note": 65, "velocity": 100, "duration": 214}, {"note": 63, "velocity": 122, "duration": 474}, {"note": 0, "velocity": 0, "duration": 966}, {"note": 56, "velocity": 97, "duration": 180}, {"note": 58, "velocity": 112, "duration": 151}, {"note": 0, "velocity": 0, "duration": 89}, {"note": 60, "velocity": 122, "duration": 548}, {"note": 0, "velocity": 0, "duration": 172}, {"note": 63, "velocity": 122, "duration": 173}, {"note": 0, "velocity": 0, "duration": 67}, {"note": 63, "velocity": 117, "duration": 183}, {"note": 68, "velocity": 117, "duration": 143}, {"note": 0, "velocity": 0, "duration": 97}, {"note": 67, "velocity": 107, "duration": 143}, {"note": 0, "velocity": 0, "duration": 97}, {"note": 63, "velocity": 102, "duration": 143}, {"note": 0, "velocity": 0, "duration": 97}, {"note": 65, "velocity": 117, "duration": 800}, {"note": 0, "velocity": 0, "duration": 640}, {"note": 65, "velocity": 102, "duration": 174}, {"note": 0, "velocity": 0, "duration": 66}, {"note": 68, "velocity": 107, "duration": 158}, {"note": 0, "velocity": 0, "duration": 82}, {"note": 70, "velocity": 122, "duration": 1}, {"note": 0, "velocity": 0, "duration": 239}, {"note": 70, "velocity": 122, "duration": 127}, {"note": 0, "velocity": 0, "duration": 353}, {"note": 67, "velocity": 99, "duration": 162}, {"note": 0, "velocity": 0, "duration": 78}, {"note": 65, "velocity": 99, "duration": 379}, {"note": 0, "velocity": 0, "duration": 101}, {"note": 63, "velocity": 95, "duration": 176}, {"note": 0, "velocity": 0, "duration": 64}, {"note": 65, "velocity": 99, "duration": 194}, {"note": 68, "velocity": 112, "duration": 1245}, {"note": 0, "velocity": 0, "duration": 195}, {"note": 70, "velocity": 127, "duration": 249}, {"note": 72, "velocity": 102, "duration": 132}, {"note": 70, "velocity": 122, "duration": 110}, {"note": 68, "velocity": 127, "duration": 625}, {"note": 0, "velocity": 0, "duration": 95}, {"note": 70, "velocity": 127, "duration": 152}, {"note": 0, "velocity": 0, "duration": 88}, {"note": 72, "velocity": 127, "duration": 136}, {"note": 0, "velocity": 0, "duration": 104}, {"note": 67, "velocity": 127, "duration": 210}, {"note": 65, "velocity": 127, "duration": 157}, {"note": 0, "velocity": 0, "duration": 83}, {"note": 60, "velocity": 107, "duration": 233}, {"note": 63, "velocity": 122, "duration": 714}, {"note": 0, "velocity": 0, "duration": 726}, {"note": 68, "velocity": 127, "duration": 183}, {"note": 67, "velocity": 112, "duration": 235}, {"note": 65, "velocity": 99, "duration": 409}, {"note": 0, "velocity": 0, "duration": 71}, {"note": 65, "velocity": 99, "duration": 185}, {"note": 63, "velocity": 99, "duration": 197}, {"note": 65, "velocity": 102, "duration": 217}, {"note": 60, "velocity": 102, "duration": 232}, {"note": 63, "velocity": 117, "duration": 346}, {"note": 60, "velocity": 95, "duration": 199}, {"note": 58, "velocity": 97, "duration": 791}, {"note": 0, "velocity": 0, "duration": 649}, {"note": 60, "velocity": 100, "duration": 210}, {"note": 58, "velocity": 122, "duration": 231}, {"note": 56, "velocity": 107, "duration": 356}, {"note": 0, "velocity": 0, "duration": 364}, {"note": 58, "velocity": 99, "duration": 164}, {"note": 0, "velocity": 0, "duration": 76}, {"note": 60, "velocity": 102, "duration": 169}, {"note": 0, "velocity": 0, "duration": 71}, {"note": 68, "velocity": 112, "duration": 173}, {"note": 0, "velocity": 0, "duration": 67}, {"note": 67, "velocity": 99, "duration": 202}, {"note": 63, "velocity": 107, "duration": 187}, {"note": 65, "velocity": 102, "duration": 945}, {"note": 0, "velocity": 0, "duration": 495}, {"note": 70, "velocity": 122, "duration": 185}, {"note": 68, "velocity": 117, "duration": 174}, {"note": 0, "velocity": 0, "duration": 66}, {"note": 70, "velocity": 127, "duration": 368}, {"note": 0, "velocity": 0, "duration": 112}, {"note": 70, "velocity": 112, "duration": 164}, {"note": 0, "velocity": 0, "duration": 76}, {"note": 68, "velocity": 122, "duration": 177}, {"note": 0, "velocity": 0, "duration": 63}, {"note": 60, "velocity": 112, "duration": 207}, {"note": 60, "velocity": 107, "duration": 172}, {"note": 0, "velocity": 0, "duration": 68}, {"note": 67, "velocity": 99, "duration": 174}, {"note": 0, "velocity": 0, "duration": 66}, {"note": 65, "velocity": 97, "duration": 202}, {"note": 63, "velocity": 99, "duration": 848}, {"note": 0, "velocity": 0, "duration": 592}, {"note": 70, "velocity": 127, "duration": 215}, {"note": 72, "velocity": 107, "duration": 105}, {"note": 70, "velocity": 107, "duration": 118}, {"note": 68, "velocity": 117, "duration": 555}, {"note": 0, "velocity": 0, "duration": 165}, {"note": 70, "velocity": 127, "duration": 161}, {"note": 0, "velocity": 0, "duration": 79}, {"note": 72, "velocity": 122, "duration": 166}, {"note": 0, "velocity": 0, "duration": 74}, {"note": 67, "velocity": 122, "duration": 202}, {"note": 65, "velocity": 112, "duration": 190}, {"note": 63, "velocity": 112, "duration": 201}, {"note": 65, "velocity": 107, "duration": 590}, {"note": 0, "velocity": 0, "duration": 850}, {"note": 65, "velocity": 100, "duration": 190}, {"note": 68, "velocity": 117, "duration": 188}, {"note": 70, "velocity": 122, "duration": 197}, {"note": 0, "velocity": 0, "duration": 283}, {"note": 70, "velocity": 127, "duration": 156}, {"note": 0, "velocity": 0, "duration": 84}, {"note": 72, "velocity": 117, "duration": 172}, {"note": 0, "velocity": 0, "duration": 68}, {"note": 70, "velocity": 127, "duration": 157}, {"note": 0, "velocity": 0, "duration": 83}, {"note": 67, "velocity": 100, "duration": 162}, {"note": 0, "velocity": 0, "duration": 78}, {"note": 60, "velocity": 107, "duration": 193}, {"note": 65, "velocity": 100, "duration": 214}, {"note": 63, "velocity": 122, "duration": 474}, {"note": 0, "velocity": 0, "duration": 966}, {"note": 56, "velocity": 97, "duration": 180}, {"note": 58, "velocity": 112, "duration": 151}, {"note": 0, "velocity": 0, "duration": 89}, {"note": 60, "velocity": 122, "duration": 548}, {"note": 0, "velocity": 0, "duration": 172}, {"note": 63, "velocity": 122, "duration": 173}, {"note": 0, "velocity": 0, "duration": 67}, {"note": 63, "velocity": 117, "duration": 183}, {"note": 68, "velocity": 117, "duration": 143}, {"note": 0, "velocity": 0, "duration": 97}, {"note": 67, "velocity": 107, "duration": 143}, {"note": 0, "velocity": 0, "duration": 97}, {"note": 63, "velocity": 102, "duration": 143}, {"note": 0, "velocity": 0, "duration": 97}, {"note": 65, "velocity": 117, "duration": 800}, {"note": 0, "velocity": 0, "duration": 640}, {"note": 65, "velocity": 102, "duration": 174}, {"note": 0, "velocity": 0, "duration": 66}, {"note": 68, "velocity": 107, "duration": 158}, {"note": 0, "velocity": 0, "duration": 82}, {"note": 70, "velocity": 122, "duration": 134}, {"note": 0, "velocity": 0, "duration": 106}, {"note": 70, "velocity": 127, "duration": 130}, {"note": 0, "velocity": 0, "duration": 350}, {"note": 67, "velocity": 99, "duration": 162}, {"note": 0, "velocity": 0, "duration": 78}, {"note": 65, "velocity": 99, "duration": 379}, {"note": 0, "velocity": 0, "duration": 101}, {"note": 63, "velocity": 95, "duration": 176}, {"note": 0, "velocity": 0, "duration": 64}, {"note": 65, "velocity": 99, "duration": 194}, {"note": 68, "velocity": 112, "duration": 1245}, {"note": 0, "velocity": 0, "duration": 195}, {"note": 65, "velocity": 112, "duration": 206}, {"note": 68, "velocity": 122, "duration": 193}, {"note": 70, "velocity": 127, "duration": 183}, {"note": 70, "velocity": 127, "duration": 183}, {"note": 0, "velocity": 0, "duration": 297}, {"note": 67, "velocity": 97, "duration": 200}, {"note": 65, "velocity": 112, "duration": 484}, {"note": 0, "velocity": 0, "duration": 144}, {"note": 63, "velocity": 96, "duration": 342}, {"note": 65, "velocity": 85, "duration": 799}, {"note": 0, "velocity": 0, "duration": 152}, {"note": 65, "velocity": 83, "duration": 196}, {"note": 68, "velocity": 100, "duration": 1583}]]