[[{"note": 75, "velocity": 117, "duration": 127}, {"note": 0, "velocity": 0, "duration": 113}, {"note": 75, "velocity": 127, "duration": 64}, {"note": 75, "velocity": 112, "duration": 135}, {"note": 0, "velocity": 0, "duration": 225}, {"note": 74, "velocity": 127, "duration": 154}, {"note": 0, "velocity": 0, "duration": 86}, {"note": 75, "velocity": 122, "duration": 99}, {"note": 74, "velocity": 96, "duration": 125}, {"note": 0, "velocity": 0, "duration": 115}, {"note": 70, "velocity": 112, "duration": 236}, {"note": 0, "velocity": 0, "duration": 124}, {"note": 72, "velocity": 127, "duration": 141}, {"note": 0, "velocity": 0, "duration": 99}, {"note": 70, "velocity": 112, "duration": 55}, {"note": 0, "velocity": 0, "duration": 65}, {"note": 70, "velocity": 102, "duration": 118}, {"note": 0, "velocity": 0, "duration": 242}, {"note": 72, "velocity": 112, "duration": 209}, {"note": 67, "velocity": 102, "duration": 258}, {"note": 0, "velocity": 0, "duration": 942}, {"note": 75, "velocity": 127, "duration": 151}, {"note": 0, "velocity": 0, "duration": 89}, {"note": 75, "velocity": 127, "duration": 60}, {"note": 75, "velocity": 127, "duration": 168}, {"note": 0, "velocity": 0, "duration": 192}, {"note": 74, "velocity": 127, "duration": 150}, {"note": 0, "velocity": 0, "duration": 90}, {"note": 75, "velocity": 122, "duration": 105}, {"note": 74, "velocity": 102, "duration": 123}, {"note": 0, "velocity": 0, "duration": 117}, {"note": 70, "velocity": 127, "duration": 236}, {"note": 0, "velocity": 0, "duration": 124}, {"note": 72, "velocity": 117, "duration": 193}, {"note": 79, "velocity": 117, "duration": 121}, {"note": 0, "velocity": 0, "duration": 119}, {"note": 79, "velocity": 122, "duration": 117}, {"note": 0, "velocity": 0, "duration": 123}, {"note": 70, "velocity": 112, "duration": 162}, {"note": 0, "velocity": 0, "duration": 78}, {"note": 72, "velocity": 122, "duration": 619}, {"note": 0, "velocity": 0, "duration": 581}, {"note": 75, "velocity": 127, "duration": 50}, {"note": 0, "velocity": 0, "duration": 70}, {"note": 75, "velocity": 112, "duration": 50}, {"note": 0, "velocity": 0, "duration": 70}, {"note": 75, "velocity": 122, "duration": 114}, {"note": 0, "velocity": 0, "duration": 366}, {"note": 74, "velocity": 127, "duration": 154}, {"note": 0, "velocity": 0, "duration": 86}, {"note": 75, "velocity": 117, "duration": 81}, {"note": 74, "velocity": 106, "duration": 131}, {"note": 0, "velocity": 0, "duration": 109}, {"note": 70, "velocity": 117, "duration": 205}, {"note": 0, "velocity": 0, "duration": 155}, {"note": 72, "velocity": 122, "duration": 130}, {"note": 0, "velocity": 0, "duration": 110}, {"note": 70, "velocity": 117, "duration": 54}, {"note": 0, "velocity": 0, "duration": 66}, {"note": 70, "velocity": 107, "duration": 141}, {"note": 0, "velocity": 0, "duration": 219}, {"note": 72, "velocity": 127, "duration": 295}, {"note": 67, "velocity": 97, "duration": 285}, {"note": 0, "velocity": 0, "duration": 75}, {"note": 68, "velocity": 102, "duration": 74}, {"note": 67, "velocity": 90, "duration": 68}, {"note": 65, "velocity": 92, "duration": 297}, {"note": 0, "velocity": 0, "duration": 423}, {"note": 63, "velocity": 100, "duration": 50}, {"note": 0, "velocity": 0, "duration": 70}, {"note": 63, "velocity": 90, "duration": 25}, {"note": 0, "velocity": 0, "duration": 95}, {"note": 63, "velocity": 96, "duration": 49}, {"note": 0, "velocity": 0, "duration": 71}, {"note": 75, "velocity": 127, "duration": 268}, {"note": 0, "velocity": 0, "duration": 92}, {"note": 74, "velocity": 127, "duration": 185}, {"note": 75, "velocity": 122, "duration": 84}, {"note": 74, "velocity": 122, "duration": 173}, {"note": 0, "velocity": 0, "duration": 187}, {"note": 70, "velocity": 127, "duration": 167}, {"note": 0, "velocity": 0, "duration": 73}, {"note": 72, "velocity": 117, "duration": 169}, {"note": 0, "velocity": 0, "duration": 191}, {"note": 79, "velocity": 127, "duration": 204}, {"note": 0, "velocity": 0, "duration": 156}, {"note": 70, "velocity": 127, "duration": 175}, {"note": 0, "velocity": 0, "duration": 65}, {"note": 72, "velocity": 117, "duration": 588}, {"note": 0, "velocity": 0, "duration": 612}, {"note": 75, "velocity": 112, "duration": 60}, {"note": 75, "velocity": 122, "duration": 57}, {"note": 0, "velocity": 0, "duration": 63}, {"note": 75, "velocity": 127, "duration": 108}, {"note": 0, "velocity": 0, "duration": 372}, {"note": 74, "velocity": 127, "duration": 156}, {"note": 0, "velocity": 0, "duration": 84}, {"note": 74, "velocity": 127, "duration": 180}, {"note": 74, "velocity": 127, "duration": 107}, {"note": 0, "velocity": 0, "duration": 133}, {"note": 72, "velocity": 122, "duration": 85}, {"note": 70, "velocity": 112, "duration": 68}, {"note": 72, "velocity": 117, "duration": 186}, {"note": 70, "velocity": 122, "duration": 49}, {"note": 0, "velocity": 0, "duration": 71}, {"note": 70, "velocity": 100, "duration": 143}, {"note": 0, "velocity": 0, "duration": 217}, {"note": 72, "velocity": 117, "duration": 199}, {"note": 67, "velocity": 107, "duration": 441}, {"note": 0, "velocity": 0, "duration": 759}, {"note": 75, "velocity": 127, "duration": 49}, {"note": 0, "velocity": 0, "duration": 71}, {"note": 75, "velocity": 99, "duration": 51}, {"note": 0, "velocity": 0, "duration": 69}, {"note": 75, "velocity": 127, "duration": 54}, {"note": 0, "velocity": 0, "duration": 66}, {"note": 75, "velocity": 127, "duration": 126}, {"note": 0, "velocity": 0, "duration": 114}, {"note": 75, "velocity": 127, "duration": 75}, {"note": 74, "velocity": 127, "duration": 141}, {"note": 0, "velocity": 0, "duration": 99}, {"note": 75, "velocity": 127, "duration": 85}, {"note": 74, "velocity": 127, "duration": 157}, {"note": 0, "velocity": 0, "duration": 83}, {"note": 70, "velocity": 127, "duration": 284}, {"note": 0, "velocity": 0, "duration": 76}, {"note": 72, "velocity": 127, "duration": 233}, {"note": 0, "velocity": 0, "duration": 127}, {"note": 79, "velocity": 122, "duration": 172}, {"note": 0, "velocity": 0, "duration": 188}, {"note": 70, "velocity": 117, "duration": 179}, {"note": 0, "velocity": 0, "duration": 61}, {"note": 72, "velocity": 117, "duration": 756}, {"note": 0, "velocity": 0, "duration": 444}, {"note": 75, "velocity": 112, "duration": 60}, {"note": 75, "velocity": 122, "duration": 57}, {"note": 0, "velocity": 0, "duration": 63}, {"note": 75, "velocity": 127, "duration": 108}, {"note": 0, "velocity": 0, "duration": 372}, {"note": 74, "velocity": 122, "duration": 166}, {"note": 0, "velocity": 0, "duration": 74}, {"note": 75, "velocity": 122, "duration": 81}, {"note": 74, "velocity": 99, "duration": 151}, {"note": 0, "velocity": 0, "duration": 89}, {"note": 70, "velocity": 127, "duration": 209}, {"note": 0, "velocity": 0, "duration": 151}, {"note": 72, "velocity": 117, "duration": 186}, {"note": 70, "velocity": 122, "duration": 49}, {"note": 0, "velocity": 0, "duration": 71}, {"note": 70, "velocity": 100, "duration": 143}, {"note": 0, "velocity": 0, "duration": 217}, {"note": 72, "velocity": 117, "duration": 199}, {"note": 67, "velocity": 107, "duration": 441}, {"note": 0, "velocity": 0, "duration": 759}, {"note": 63, "velocity": 127, "duration": 33}, {"note": 0, "velocity": 0, "duration": 87}, {"note": 63, "velocity": 90, "duration": 47}, {"note": 0, "velocity": 0, "duration": 73}, {"note": 63, "velocity": 127, "duration": 59}, {"note": 0, "velocity": 0, "duration": 61}, {"note": 75, "velocity": 117, "duration": 162}, {"note": 0, "velocity": 0, "duration": 198}, {"note": 74, "velocity": 127, "duration": 129}, {"note": 0, "velocity": 0, "duration": 111}, {"note": 75, "velocity": 127, "duration": 100}, {"note": 74, "velocity": 122, "duration": 107}, {"note": 0, "velocity": 0, "duration": 133}, {"note": 70, "velocity": 127, "duration": 266}, {"note": 0, "velocity": 0, "duration": 94}, {"note": 72, "velocity": 112, "duration": 221}, {"note": 0, "velocity": 0, "duration": 139}, {"note": 79, "velocity": 112, "duration": 197}, {"note": 0, "velocity": 0, "duration": 163}, {"note": 70, "velocity": 127, "duration": 163}, {"note": 0, "velocity": 0, "duration": 77}, {"note": 72, "velocity": 122, "duration": 472}, {"note": 0, "velocity": 0, "duration": 1928}, {"note": 79, "velocity": 117, "duration": 233}, {"note": 82, "velocity": 127, "duration": 171}, {"note": 0, "velocity": 0, "duration": 69}, {"note": 84, "velocity": 127, "duration": 341}, {"note": 0, "velocity": 0, "duration": 139}, {"note": 87, "velocity": 127, "duration": 348}, {"note": 0, "velocity": 0, "duration": 132}, {"note": 86, "velocity": 127, "duration": 355}, {"note": 0, "velocity": 0, "duration": 125}, {"note": 82, "velocity": 127, "duration": 210}, {"note": 86, "velocity": 127, "duration": 200}, {"note": 86, "velocity": 127, "duration": 480}, {"note": 84, "velocity": 127, "duration": 495}, {"note": 0, "velocity": 0, "duration": 465}, {"note": 79, "velocity": 112, "duration": 185}, {"note": 82, "velocity": 122, "duration": 185}, {"note": 84, "velocity": 127, "duration": 327}, {"note": 0, "velocity": 0, "duration": 153}, {"note": 87, "velocity": 127, "duration": 292}, {"note": 0, "velocity": 0, "duration": 188}, {"note": 84, "velocity": 127, "duration": 315}, {"note": 0, "velocity": 0, "duration": 165}, {"note": 77, "velocity": 127, "duration": 212}, {"note": 82, "velocity": 127, "duration": 133}, {"note": 0, "velocity": 0, "duration": 107}, {"note": 82, "velocity": 127, "duration": 480}, {"note": 79, "velocity": 122, "duration": 649}, {"note": 0, "velocity": 0, "duration": 791}, {"note": 84, "velocity": 127, "duration": 389}, {"note": 0, "velocity": 0, "duration": 91}, {"note": 91, "velocity": 127, "duration": 393}, {"note": 0, "velocity": 0, "duration": 87}, {"note": 89, "velocity": 127, "duration": 289}, {"note": 0, "velocity": 0, "duration": 191}, {"note": 84, "velocity": 122, "duration": 165}, {"note": 0, "velocity": 0, "duration": 75}, {"note": 87, "velocity": 127, "duration": 114}, {"note": 84, "velocity": 97, "duration": 116}, {"note": 82, "velocity": 127, "duration": 247}, {"note": 79, "velocity": 117, "duration": 246}, {"note": 82, "velocity": 127, "duration": 689}, {"note": 0, "velocity": 0, "duration": 751}, {"note": 91, "velocity": 112, "duration": 303}, {"note": 0, "velocity": 0, "duration": 177}, {"note": 89, "velocity": 127, "duration": 323}, {"note": 0, "velocity": 0, "duration": 157}, {"note": 87, "velocity": 127, "duration": 259}, {"note": 0, "velocity": 0, "duration": 221}, {"note": 82, "velocity": 127, "duration": 214}, {"note": 87, "velocity": 127, "duration": 227}, {"note": 84, "velocity": 127, "duration": 1445}, {"note": 79, "velocity": 117, "duration": 233}, {"note": 82, "velocity": 127, "duration": 171}, {"note": 0, "velocity": 0, "duration": 69}, {"note": 84, "velocity": 127, "duration": 341}, {"note": 0, "velocity": 0, "duration": 139}, {"note": 87, "velocity": 127, "duration": 348}, {"note": 0, "velocity": 0, "duration": 132}, {"note": 86, "velocity": 127, "duration": 355}, {"note": 0, "velocity": 0, "duration": 125}, {"note": 82, "velocity": 127, "duration": 210}, {"note": 86, "velocity": 127, "duration": 200}, {"note": 86, "velocity": 127, "duration": 480}, {"note": 84, "velocity": 127, "duration": 713}, {"note": 0, "velocity": 0, "duration": 247}, {"note": 79, "velocity": 112, "duration": 185}, {"note": 82, "velocity": 122, "duration": 185}, {"note": 84, "velocity": 127, "duration": 327}, {"note": 0, "velocity": 0, "duration": 153}, {"note": 87, "velocity": 127, "duration": 292}, {"note": 0, "velocity": 0, "duration": 188}, {"note": 84, "velocity": 127, "duration": 315}, {"note": 0, "velocity": 0, "duration": 165}, {"note": 77, "velocity": 127, "duration": 212}, {"note": 82, "velocity": 127, "duration": 133}, {"note": 0, "velocity": 0, "duration": 107}, {"note": 82, "velocity": 127, "duration": 480}, {"note": 79, "velocity": 122, "duration": 960}, {"note": 0, "velocity": 0, "duration": 480}, {"note": 84, "velocity": 127, "duration": 389}, {"note": 0, "velocity": 0, "duration": 91}, {"note": 91, "velocity": 127, "duration": 393}, {"note": 0, "velocity": 0, "duration": 87}, {"note": 89, "velocity": 127, "duration": 289}, {"note": 0, "velocity": 0, "duration": 191}, {"note": 84, "velocity": 122, "duration": 165}, {"note": 0, "velocity": 0, "duration": 75}, {"note": 87, "velocity": 127, "duration": 114}, {"note": 84, "velocity": 97, "duration": 116}, {"note": 82, "velocity": 127, "duration": 247}, {"note": 79, "velocity": 117, "duration": 246}, {"note": 82, "velocity": 127, "duration": 1243}, {"note": 0, "velocity": 0, "duration": 197}, {"note": 91, "velocity": 112, "duration": 303}, {"note": 0, "velocity": 0, "duration": 177}, {"note": 89, "velocity": 127, "duration": 323}, {"note": 0, "velocity": 0, "duration": 157}, {"note": 87, "velocity": 127, "duration": 259}, {"note": 0, "velocity": 0, "duration": 221}, {"note": 82, "velocity": 127, "duration": 214}, {"note": 87, "velocity": 127, "duration": 227}, {"note": 84, "velocity": 127, "duration": 1445}, {"note": 0, "velocity": 0, "duration": 16075}, {"note": 75, "velocity": 112, "duration": 60}, {"note": 75, "velocity": 122, "duration": 57}, {"note": 0, "velocity": 0, "duration": 63}, {"note": 75, "velocity": 127, "duration": 108}, {"note": 0, "velocity": 0, "duration": 372}, {"note": 74, "velocity": 127, "duration": 156}, {"note": 0, "velocity": 0, "duration": 84}, {"note": 74, "velocity": 127, "duration": 180}, {"note": 74, "velocity": 127, "duration": 107}, {"note": 0, "velocity": 0, "duration": 133}, {"note": 72, "velocity": 122, "duration": 85}, {"note": 70, "velocity": 112, "duration": 68}, {"note": 72, "velocity": 117, "duration": 186}, {"note": 70, "velocity": 122, "duration": 49}, {"note": 0, "velocity": 0, "duration": 71}, {"note": 70, "velocity": 100, "duration": 143}, {"note": 0, "velocity": 0, "duration": 217}, {"note": 72, "velocity": 117, "duration": 199}, {"note": 67, "velocity": 107, "duration": 441}, {"note": 0, "velocity": 0, "duration": 759}, {"note": 75, "velocity": 127, "duration": 49}, {"note": 0, "velocity": 0, "duration": 71}, {"note": 75, "velocity": 99, "duration": 51}, {"note": 0, "velocity": 0, "duration": 69}, {"note": 75, "velocity": 127, "duration": 54}, {"note": 0, "velocity": 0, "duration": 66}, {"note": 75, "velocity": 127, "duration": 126}, {"note": 0, "velocity": 0, "duration": 114}, {"note": 75, "velocity": 127, "duration": 75}, {"note": 74, "velocity": 127, "duration": 141}, {"note": 0, "velocity": 0, "duration": 99}, {"note": 75, "velocity": 127, "duration": 85}, {"note": 74, "velocity": 127, "duration": 157}, {"note": 0, "velocity": 0, "duration": 83}, {"note": 70, "velocity": 127, "duration": 284}, {"note": 0, "velocity": 0, "duration": 76}, {"note": 72, "velocity": 127, "duration": 233}, {"note": 0, "velocity": 0, "duration": 127}, {"note": 79, "velocity": 122, "duration": 172}, {"note": 0, "velocity": 0, "duration": 188}, {"note": 70, "velocity": 117, "duration": 179}, {"note": 0, "velocity": 0, "duration": 61}, {"note": 72, "velocity": 117, "duration": 756}, {"note": 0, "velocity": 0, "duration": 444}, {"note": 75, "velocity": 112, "duration": 60}, {"note": 75, "velocity": 122, "duration": 57}, {"note": 0, "velocity": 0, "duration": 63}, {"note": 75, "velocity": 127, "duration": 108}, {"note": 0, "velocity": 0, "duration": 372}, {"note": 74, "velocity": 122, "duration": 166}, {"note": 0, "velocity": 0, "duration": 74}, {"note": 75, "velocity": 122, "duration": 81}, {"note": 74, "velocity": 99, "duration": 151}, {"note": 0, "velocity": 0, "duration": 89}, {"note": 70, "velocity": 127, "duration": 209}, {"note": 0, "velocity": 0, "duration": 151}, {"note": 72, "velocity": 117, "duration": 186}, {"note": 70, "velocity": 122, "duration": 49}, {"note": 0, "velocity": 0, "duration": 71}, {"note": 70, "velocity": 100, "duration": 143}, {"note": 0, "velocity": 0, "duration": 217}, {"note": 72, "velocity": 117, "duration": 199}, {"note": 67, "velocity": 107, "duration": 441}, {"note": 0, "velocity": 0, "duration": 759}, {"note": 63, "velocity": 127, "duration": 33}, {"note": 0, "velocity": 0, "duration": 87}, {"note": 63, "velocity": 90, "duration": 47}, {"note": 0, "velocity": 0, "duration": 73}, {"note": 63, "velocity": 127, "duration": 59}, {"note": 0, "velocity": 0, "duration": 61}, {"note": 75, "velocity": 117, "duration": 162}, {"note": 0, "velocity": 0, "duration": 198}, {"note": 74, "velocity": 127, "duration": 129}, {"note": 0, "velocity": 0, "duration": 111}, {"note": 75, "velocity": 127, "duration": 100}, {"note": 74, "velocity": 122, "duration": 107}, {"note": 0, "velocity": 0, "duration": 133}, {"note": 70, "velocity": 127, "duration": 266}, {"note": 0, "velocity": 0, "duration": 94}, {"note": 72, "velocity": 112, "duration": 221}, {"note": 0, "velocity": 0, "duration": 139}, {"note": 79, "velocity": 112, "duration": 197}, {"note": 0, "velocity": 0, "duration": 163}, {"note": 70, "velocity": 127, "duration": 163}, {"note": 0, "velocity": 0, "duration": 77}, {"note": 72, "velocity": 122, "duration": 472}, {"note": 0, "velocity": 0, "duration": 968}, {"note": 79, "velocity": 117, "duration": 233}, {"note": 82, "velocity": 127, "duration": 171}, {"note": 0, "velocity": 0, "duration": 69}, {"note": 84, "velocity": 127, "duration": 341}, {"note": 0, "velocity": 0, "duration": 139}, {"note": 87, "velocity": 127, "duration": 348}, {"note": 0, "velocity": 0, "duration": 132}, {"note": 86, "velocity": 127, "duration": 355}, {"note": 0, "velocity": 0, "duration": 125}, {"note": 82, "velocity": 127, "duration": 210}, {"note": 86, "velocity": 127, "duration": 200}, {"note": 86, "velocity": 127, "duration": 480}, {"note": 84, "velocity": 127, "duration": 495}, {"note": 0, "velocity": 0, "duration": 465}, {"note": 79, "velocity": 112, "duration": 185}, {"note": 82, "velocity": 122, "duration": 185}, {"note": 84, "velocity": 127, "duration": 327}, {"note": 0, "velocity": 0, "duration": 153}, {"note": 87, "velocity": 127, "duration": 292}, {"note": 0, "velocity": 0, "duration": 188}, {"note": 84, "velocity": 127, "duration": 315}, {"note": 0, "velocity": 0, "duration": 165}, {"note": 77, "velocity": 127, "duration": 212}, {"note": 82, "velocity": 127, "duration": 133}, {"note": 0, "velocity": 0, "duration": 107}, {"note": 82, "velocity": 127, "duration": 480}, {"note": 79, "velocity": 122, "duration": 649}, {"note": 0, "velocity": 0, "duration": 791}, {"note": 84, "velocity": 127, "duration": 389}, {"note": 0, "velocity": 0, "duration": 91}, {"note": 91, "velocity": 127, "duration": 393}, {"note": 0, "velocity": 0, "duration": 87}, {"note": 89, "velocity": 127, "duration": 289}, {"note": 0, "velocity": 0, "duration": 191}, {"note": 84, "velocity": 122, "duration": 165}, {"note": 0, "velocity": 0, "duration": 75}, {"note": 87, "velocity": 127, "duration": 114}, {"note": 84, "velocity": 97, "duration": 116}, {"note": 82, "velocity": 127, "duration": 247}, {"note": 79, "velocity": 117, "duration": 246}, {"note": 82, "velocity": 127, "duration": 689}, {"note": 0, "velocity": 0, "duration": 751}, {"note": 91, "velocity": 112, "duration": 303}, {"note": 0, "velocity": 0, "duration": 177}, {"note": 89, "velocity": 127, "duration": 323}, {"note": 0, "velocity": 0, "duration": 157}, {"note": 87, "velocity": 127, "duration": 259}, {"note": 0, "velocity": 0, "duration": 221}, {"note": 82, "velocity": 127, "duration": 214}, {"note": 87, "velocity": 127, "duration": 227}, {"note": 84, "velocity": 127, "duration": 1445}, {"note": 79, "velocity": 117, "duration": 233}, {"note": 82, "velocity": 127, "duration": 171}, {"note": 0, "velocity": 0, "duration": 69}, {"note": 84, "velocity": 127, "duration": 341}, {"note": 0, "velocity": 0, "duration": 139}, {"note": 87, "velocity": 127, "duration": 348}, {"note": 0, "velocity": 0, "duration": 132}, {"note": 86, "velocity": 127, "duration": 355}, {"note": 0, "velocity": 0, "duration": 125}, {"note": 82, "velocity": 127, "duration": 210}, {"note": 86, "velocity": 127, "duration": 200}, {"note": 86, "velocity": 127, "duration": 480}, {"note": 84, "velocity": 127, "duration": 713}, {"note": 0, "velocity": 0, "duration": 247}, {"note": 79, "velocity": 112, "duration": 185}, {"note": 82, "velocity": 122, "duration": 185}, {"note": 84, "velocity": 127, "duration": 327}, {"note": 0, "velocity": 0, "duration": 153}, {"note": 87, "velocity": 127, "duration": 292}, {"note": 0, "velocity": 0, "duration": 188}, {"note": 84, "velocity": 127, "duration": 315}, {"note": 0, "velocity": 0, "duration": 165}, {"note": 77, "velocity": 127, "duration": 212}, {"note": 82, "velocity": 127, "duration": 133}, {"note": 0, "velocity": 0, "duration": 107}, {"note": 82, "velocity": 127, "duration": 480}, {"note": 79, "velocity": 122, "duration": 960}, {"note": 0, "velocity": 0, "duration": 480}, {"note": 84, "velocity": 127, "duration": 389}, {"note": 0, "velocity": 0, "duration": 91}, {"note": 91, "velocity": 127, "duration": 393}, {"note": 0, "velocity": 0, "duration": 87}, {"note": 89, "velocity": 127, "duration": 289}, {"note": 0, "velocity": 0, "duration": 191}, {"note": 84, "velocity": 122, "duration": 165}, {"note": 0, "velocity": 0, "duration": 75}, {"note": 87, "velocity": 127, "duration": 114}, {"note": 84, "velocity": 97, "duration": 116}, {"note": 82, "velocity": 127, "duration": 247}, {"note": 79, "velocity": 117, "duration": 246}, {"note": 82, "velocity": 127, "duration": 1243}, {"note": 0, "velocity": 0, "duration": 197}, {"note": 91, "velocity": 112, "duration": 303}, {"note": 0, "velocity": 0, "duration": 177}, {"note": 89, "velocity": 127, "duration": 323}, {"note": 0, "velocity": 0, "duration": 157}, {"note": 87, "velocity": 127, "duration": 259}, {"note": 0, "velocity": 0, "duration": 221}, {"note": 82, "velocity": 127, "duration": 214}, {"note": 87, "velocity": 127, "duration": 227}, {"note": 84, "velocity": 127, "duration": 960}, {"note": 0, "velocity": 0, "duration": 480}, {"note": 79, "velocity": 112, "duration": 185}, {"note": 82, "velocity": 122, "duration": 185}, {"note": 84, "velocity": 127, "duration": 327}, {"note": 0, "velocity": 0, "duration": 153}, {"note": 87, "velocity": 127, "duration": 292}, {"note": 0, "velocity": 0, "duration": 188}, {"note": 84, "velocity": 127, "duration": 315}, {"note": 0, "velocity": 0, "duration": 165}, {"note": 77, "velocity": 127, "duration": 212}, {"note": 82, "velocity": 127, "duration": 133}, {"note": 0, "velocity": 0, "duration": 107}, {"note": 82, "velocity": 127, "duration": 480}, {"note": 79, "velocity": 122, "duration": 649}, {"note": 0, "velocity": 0, "duration": 791}, {"note": 84, "velocity": 127, "duration": 389}, {"note": 0, "velocity": 0, "duration": 91}, {"note": 91, "velocity": 127, "duration": 393}, {"note": 0, "velocity": 0, "duration": 87}, {"note": 89, "velocity": 127, "duration": 289}, {"note": 0, "velocity": 0, "duration": 191}, {"note": 84, "velocity": 122, "duration": 165}, {"note": 0, "velocity": 0, "duration": 75}, {"note": 87, "velocity": 127, "duration": 114}, {"note": 84, "velocity": 97, "duration": 116}, {"note": 82, "velocity": 127, "duration": 247}, {"note": 79, "velocity": 117, "duration": 246}, {"note": 82, "velocity": 127, "duration": 689}, {"note": 0, "velocity": 0, "duration": 751}, {"note": 91, "velocity": 112, "duration": 303}, {"note": 0, "velocity": 0, "duration": 177}, {"note": 89, "velocity": 127, "duration": 323}, {"note": 0, "velocity": 0, "duration": 157}, {"note": 87, "velocity": 127, "duration": 259}, {"note": 0, "velocity": 0, "duration": 221}, {"note": 82, "velocity": 127, "duration": 214}, {"note": 87, "velocity": 127, "duration": 227}, {"note": 84, "velocity": 127, "duration": 1445}, {"note": 79, "velocity": 117, "duration": 233}, {"note": 82, "velocity": 127, "duration": 171}, {"note": 0, "velocity": 0, "duration": 69}, {"note": 84, "velocity": 127, "duration": 341}, {"note": 0, "velocity": 0, "duration": 139}, {"note": 87, "velocity": 127, "duration": 348}, {"note": 0, "velocity": 0, "duration": 132}, {"note": 86, "velocity": 127, "duration": 355}, {"note": 0, "velocity": 0, "duration": 125}, {"note": 82, "velocity": 127, "duration": 210}, {"note": 86, "velocity": 127, "duration": 200}, {"note": 86, "velocity": 127, "duration": 480}, {"note": 84, "velocity": 127, "duration": 713}]]