[[{"note": 66, "velocity": 99, "duration": 187}, {"note": 66, "velocity": 81, "duration": 163}, {"note": 0, "velocity": 0, "duration": 77}, {"note": 66, "velocity": 79, "duration": 167}, {"note": 0, "velocity": 0, "duration": 73}, {"note": 70, "velocity": 92, "duration": 193}, {"note": 68, "velocity": 93, "duration": 220}, {"note": 66, "velocity": 81, "duration": 226}, {"note": 65, "velocity": 74, "duration": 259}, {"note": 65, "velocity": 70, "duration": 19}, {"note": 0, "velocity": 0, "duration": 221}, {"note": 63, "velocity": 97, "duration": 1502}, {"note": 0, "velocity": 0, "duration": 418}, {"note": 68, "velocity": 93, "duration": 155}, {"note": 0, "velocity": 0, "duration": 85}, {"note": 63, "velocity": 93, "duration": 158}, {"note": 0, "velocity": 0, "duration": 82}, {"note": 68, "velocity": 99, "duration": 143}, {"note": 0, "velocity": 0, "duration": 97}, {"note": 71, "velocity": 102, "duration": 148}, {"note": 0, "velocity": 0, "duration": 92}, {"note": 70, "velocity": 102, "duration": 197}, {"note": 68, "velocity": 102, "duration": 102}, {"note": 0, "velocity": 0, "duration": 138}, {"note": 66, "velocity": 92, "duration": 131}, {"note": 0, "velocity": 0, "duration": 109}, {"note": 66, "velocity": 95, "duration": 134}, {"note": 0, "velocity": 0, "duration": 106}, {"note": 65, "velocity": 100, "duration": 121}, {"note": 63, "velocity": 73, "duration": 117}, {"note": 61, "velocity": 95, "duration": 1081}, {"note": 0, "velocity": 0, "duration": 599}, {"note": 70, "velocity": 97, "duration": 98}, {"note": 0, "velocity": 0, "duration": 142}, {"note": 70, "velocity": 100, "duration": 110}, {"note": 0, "velocity": 0, "duration": 130}, {"note": 70, "velocity": 99, "duration": 104}, {"note": 0, "velocity": 0, "duration": 136}, {"note": 73, "velocity": 99, "duration": 104}, {"note": 0, "velocity": 0, "duration": 136}, {"note": 71, "velocity": 102, "duration": 137}, {"note": 0, "velocity": 0, "duration": 103}, {"note": 70, "velocity": 100, "duration": 76}, {"note": 0, "velocity": 0, "duration": 164}, {"note": 70, "velocity": 96, "duration": 139}, {"note": 0, "velocity": 0, "duration": 101}, {"note": 69, "velocity": 96, "duration": 140}, {"note": 0, "velocity": 0, "duration": 100}, {"note": 68, "velocity": 90, "duration": 239}, {"note": 0, "velocity": 0, "duration": 1201}, {"note": 63, "velocity": 89, "duration": 117}, {"note": 66, "velocity": 78, "duration": 63}, {"note": 66, "velocity": 89, "duration": 120}, {"note": 0, "velocity": 0, "duration": 120}, {"note": 65, "velocity": 90, "duration": 385}, {"note": 0, "velocity": 0, "duration": 95}, {"note": 63, "velocity": 71, "duration": 801}, {"note": 0, "velocity": 0, "duration": 159}, {"note": 63, "velocity": 88, "duration": 459}, {"note": 58, "velocity": 92, "duration": 1145}, {"note": 0, "velocity": 0, "duration": 775}, {"note": 66, "velocity": 102, "duration": 216}, {"note": 61, "velocity": 86, "duration": 225}, {"note": 66, "velocity": 97, "duration": 221}, {"note": 70, "velocity": 117, "duration": 197}, {"note": 68, "velocity": 107, "duration": 225}, {"note": 66, "velocity": 92, "duration": 177}, {"note": 0, "velocity": 0, "duration": 63}, {"note": 65, "velocity": 107, "duration": 292}, {"note": 65, "velocity": 112, "duration": 52}, {"note": 0, "velocity": 0, "duration": 188}, {"note": 63, "velocity": 100, "duration": 835}, {"note": 0, "velocity": 0, "duration": 1085}, {"note": 68, "velocity": 122, "duration": 124}, {"note": 0, "velocity": 0, "duration": 116}, {"note": 68, "velocity": 107, "duration": 133}, {"note": 0, "velocity": 0, "duration": 107}, {"note": 68, "velocity": 112, "duration": 158}, {"note": 0, "velocity": 0, "duration": 82}, {"note": 71, "velocity": 127, "duration": 168}, {"note": 0, "velocity": 0, "duration": 72}, {"note": 70, "velocity": 122, "duration": 206}, {"note": 68, "velocity": 117, "duration": 114}, {"note": 0, "velocity": 0, "duration": 126}, {"note": 66, "velocity": 102, "duration": 103}, {"note": 0, "velocity": 0, "duration": 137}, {"note": 66, "velocity": 99, "duration": 140}, {"note": 0, "velocity": 0, "duration": 100}, {"note": 65, "velocity": 100, "duration": 188}, {"note": 63, "velocity": 95, "duration": 91}, {"note": 61, "velocity": 86, "duration": 578}, {"note": 0, "velocity": 0, "duration": 1102}, {"note": 70, "velocity": 112, "duration": 97}, {"note": 0, "velocity": 0, "duration": 143}, {"note": 70, "velocity": 102, "duration": 116}, {"note": 0, "velocity": 0, "duration": 124}, {"note": 70, "velocity": 112, "duration": 128}, {"note": 0, "velocity": 0, "duration": 112}, {"note": 73, "velocity": 122, "duration": 128}, {"note": 0, "velocity": 0, "duration": 112}, {"note": 71, "velocity": 112, "duration": 105}, {"note": 0, "velocity": 0, "duration": 135}, {"note": 70, "velocity": 122, "duration": 195}, {"note": 70, "velocity": 117, "duration": 106}, {"note": 0, "velocity": 0, "duration": 134}, {"note": 69, "velocity": 112, "duration": 101}, {"note": 0, "velocity": 0, "duration": 139}, {"note": 68, "velocity": 112, "duration": 770}, {"note": 0, "velocity": 0, "duration": 670}, {"note": 66, "velocity": 92, "duration": 39}, {"note": 0, "velocity": 0, "duration": 81}, {"note": 66, "velocity": 85, "duration": 50}, {"note": 0, "velocity": 0, "duration": 70}, {"note": 66, "velocity": 97, "duration": 76}, {"note": 0, "velocity": 0, "duration": 164}, {"note": 65, "velocity": 117, "duration": 241}, {"note": 61, "velocity": 75, "duration": 132}, {"note": 63, "velocity": 85, "duration": 999}, {"note": 0, "velocity": 0, "duration": 81}, {"note": 66, "velocity": 93, "duration": 449}, {"note": 63, "velocity": 96, "duration": 1266}, {"note": 0, "velocity": 0, "duration": 174}, {"note": 70, "velocity": 107, "duration": 105}, {"note": 71, "velocity": 95, "duration": 89}, {"note": 73, "velocity": 112, "duration": 160}, {"note": 0, "velocity": 0, "duration": 80}, {"note": 75, "velocity": 127, "duration": 583}, {"note": 0, "velocity": 0, "duration": 137}, {"note": 78, "velocity": 127, "duration": 147}, {"note": 0, "velocity": 0, "duration": 93}, {"note": 77, "velocity": 127, "duration": 396}, {"note": 0, "velocity": 0, "duration": 324}, {"note": 73, "velocity": 127, "duration": 195}, {"note": 70, "velocity": 112, "duration": 288}, {"note": 70, "velocity": 107, "duration": 48}, {"note": 0, "velocity": 0, "duration": 192}, {"note": 70, "velocity": 102, "duration": 132}, {"note": 0, "velocity": 0, "duration": 108}, {"note": 77, "velocity": 127, "duration": 234}, {"note": 75, "velocity": 127, "duration": 512}, {"note": 0, "velocity": 0, "duration": 208}, {"note": 68, "velocity": 122, "duration": 78}, {"note": 70, "velocity": 97, "duration": 72}, {"note": 71, "velocity": 117, "duration": 529}, {"note": 0, "velocity": 0, "duration": 191}, {"note": 75, "velocity": 127, "duration": 115}, {"note": 0, "velocity": 0, "duration": 125}, {"note": 73, "velocity": 122, "duration": 172}, {"note": 0, "velocity": 0, "duration": 68}, {"note": 71, "velocity": 112, "duration": 269}, {"note": 0, "velocity": 0, "duration": 211}, {"note": 70, "velocity": 127, "duration": 115}, {"note": 68, "velocity": 102, "duration": 128}, {"note": 70, "velocity": 127, "duration": 134}, {"note": 71, "velocity": 112, "duration": 101}, {"note": 70, "velocity": 99, "duration": 831}, {"note": 0, "velocity": 0, "duration": 369}, {"note": 70, "velocity": 112, "duration": 102}, {"note": 71, "velocity": 112, "duration": 95}, {"note": 73, "velocity": 117, "duration": 170}, {"note": 0, "velocity": 0, "duration": 70}, {"note": 75, "velocity": 127, "duration": 496}, {"note": 0, "velocity": 0, "duration": 224}, {"note": 78, "velocity": 127, "duration": 166}, {"note": 0, "velocity": 0, "duration": 74}, {"note": 77, "velocity": 127, "duration": 537}, {"note": 0, "velocity": 0, "duration": 183}, {"note": 73, "velocity": 122, "duration": 140}, {"note": 0, "velocity": 0, "duration": 100}, {"note": 70, "velocity": 112, "duration": 141}, {"note": 0, "velocity": 0, "duration": 99}, {"note": 70, "velocity": 102, "duration": 151}, {"note": 0, "velocity": 0, "duration": 89}, {"note": 70, "velocity": 102, "duration": 132}, {"note": 0, "velocity": 0, "duration": 108}, {"note": 77, "velocity": 127, "duration": 197}, {"note": 75, "velocity": 127, "duration": 329}, {"note": 0, "velocity": 0, "duration": 391}, {"note": 68, "velocity": 102, "duration": 84}, {"note": 70, "velocity": 100, "duration": 70}, {"note": 71, "velocity": 117, "duration": 467}, {"note": 0, "velocity": 0, "duration": 253}, {"note": 75, "velocity": 127, "duration": 183}, {"note": 73, "velocity": 127, "duration": 270}, {"note": 71, "velocity": 122, "duration": 276}, {"note": 0, "velocity": 0, "duration": 204}, {"note": 70, "velocity": 122, "duration": 115}, {"note": 68, "velocity": 99, "duration": 92}, {"note": 70, "velocity": 117, "duration": 290}, {"note": 70, "velocity": 127, "duration": 50}, {"note": 0, "velocity": 0, "duration": 1150}, {"note": 70, "velocity": 122, "duration": 81}, {"note": 71, "velocity": 127, "duration": 86}, {"note": 73, "velocity": 122, "duration": 143}, {"note": 0, "velocity": 0, "duration": 97}, {"note": 75, "velocity": 127, "duration": 402}, {"note": 0, "velocity": 0, "duration": 318}, {"note": 71, "velocity": 127, "duration": 131}, {"note": 70, "velocity": 102, "duration": 99}, {"note": 68, "velocity": 112, "duration": 393}, {"note": 0, "velocity": 0, "duration": 567}, {"note": 73, "velocity": 127, "duration": 156}, {"note": 0, "velocity": 0, "duration": 84}, {"note": 73, "velocity": 102, "duration": 168}, {"note": 0, "velocity": 0, "duration": 72}, {"note": 73, "velocity": 112, "duration": 160}, {"note": 0, "velocity": 0, "duration": 80}, {"note": 77, "velocity": 127, "duration": 191}, {"note": 75, "velocity": 127, "duration": 612}, {"note": 0, "velocity": 0, "duration": 108}, {"note": 68, "velocity": 102, "duration": 83}, {"note": 70, "velocity": 97, "duration": 75}, {"note": 71, "velocity": 127, "duration": 391}, {"note": 0, "velocity": 0, "duration": 329}, {"note": 75, "velocity": 127, "duration": 118}, {"note": 0, "velocity": 0, "duration": 122}, {"note": 73, "velocity": 127, "duration": 175}, {"note": 0, "velocity": 0, "duration": 65}, {"note": 71, "velocity": 127, "duration": 136}, {"note": 0, "velocity": 0, "duration": 344}, {"note": 70, "velocity": 127, "duration": 116}, {"note": 68, "velocity": 117, "duration": 97}, {"note": 66, "velocity": 112, "duration": 1059}, {"note": 0, "velocity": 0, "duration": 18141}, {"note": 66, "velocity": 102, "duration": 216}, {"note": 61, "velocity": 86, "duration": 225}, {"note": 66, "velocity": 97, "duration": 221}, {"note": 70, "velocity": 117, "duration": 197}, {"note": 68, "velocity": 107, "duration": 225}, {"note": 66, "velocity": 92, "duration": 177}, {"note": 0, "velocity": 0, "duration": 63}, {"note": 65, "velocity": 107, "duration": 292}, {"note": 65, "velocity": 112, "duration": 52}, {"note": 0, "velocity": 0, "duration": 188}, {"note": 63, "velocity": 100, "duration": 835}, {"note": 0, "velocity": 0, "duration": 1085}, {"note": 68, "velocity": 122, "duration": 124}, {"note": 0, "velocity": 0, "duration": 116}, {"note": 68, "velocity": 107, "duration": 133}, {"note": 0, "velocity": 0, "duration": 107}, {"note": 68, "velocity": 112, "duration": 158}, {"note": 0, "velocity": 0, "duration": 82}, {"note": 71, "velocity": 127, "duration": 168}, {"note": 0, "velocity": 0, "duration": 72}, {"note": 70, "velocity": 122, "duration": 206}, {"note": 68, "velocity": 117, "duration": 114}, {"note": 0, "velocity": 0, "duration": 126}, {"note": 66, "velocity": 102, "duration": 103}, {"note": 0, "velocity": 0, "duration": 137}, {"note": 66, "velocity": 99, "duration": 140}, {"note": 0, "velocity": 0, "duration": 100}, {"note": 65, "velocity": 100, "duration": 188}, {"note": 63, "velocity": 95, "duration": 91}, {"note": 61, "velocity": 86, "duration": 578}, {"note": 0, "velocity": 0, "duration": 1102}, {"note": 70, "velocity": 112, "duration": 97}, {"note": 0, "velocity": 0, "duration": 143}, {"note": 70, "velocity": 102, "duration": 116}, {"note": 0, "velocity": 0, "duration": 124}, {"note": 70, "velocity": 112, "duration": 128}, {"note": 0, "velocity": 0, "duration": 112}, {"note": 73, "velocity": 122, "duration": 128}, {"note": 0, "velocity": 0, "duration": 112}, {"note": 71, "velocity": 112, "duration": 105}, {"note": 0, "velocity": 0, "duration": 135}, {"note": 70, "velocity": 122, "duration": 195}, {"note": 70, "velocity": 117, "duration": 106}, {"note": 0, "velocity": 0, "duration": 134}, {"note": 69, "velocity": 112, "duration": 101}, {"note": 0, "velocity": 0, "duration": 139}, {"note": 68, "velocity": 112, "duration": 770}, {"note": 0, "velocity": 0, "duration": 670}, {"note": 66, "velocity": 92, "duration": 39}, {"note": 0, "velocity": 0, "duration": 81}, {"note": 66, "velocity": 85, "duration": 50}, {"note": 0, "velocity": 0, "duration": 70}, {"note": 66, "velocity": 97, "duration": 76}, {"note": 0, "velocity": 0, "duration": 164}, {"note": 65, "velocity": 117, "duration": 241}, {"note": 61, "velocity": 75, "duration": 132}, {"note": 63, "velocity": 85, "duration": 999}, {"note": 0, "velocity": 0, "duration": 81}, {"note": 66, "velocity": 93, "duration": 449}, {"note": 63, "velocity": 96, "duration": 1266}, {"note": 0, "velocity": 0, "duration": 174}, {"note": 70, "velocity": 107, "duration": 105}, {"note": 71, "velocity": 95, "duration": 89}, {"note": 73, "velocity": 112, "duration": 160}, {"note": 0, "velocity": 0, "duration": 80}, {"note": 75, "velocity": 127, "duration": 583}, {"note": 0, "velocity": 0, "duration": 137}, {"note": 78, "velocity": 127, "duration": 147}, {"note": 0, "velocity": 0, "duration": 93}, {"note": 77, "velocity": 127, "duration": 396}, {"note": 0, "velocity": 0, "duration": 324}, {"note": 73, "velocity": 127, "duration": 195}, {"note": 70, "velocity": 112, "duration": 288}, {"note": 70, "velocity": 107, "duration": 48}, {"note": 0, "velocity": 0, "duration": 192}, {"note": 70, "velocity": 102, "duration": 132}, {"note": 0, "velocity": 0, "duration": 108}, {"note": 77, "velocity": 127, "duration": 234}, {"note": 75, "velocity": 127, "duration": 512}, {"note": 0, "velocity": 0, "duration": 208}, {"note": 68, "velocity": 122, "duration": 78}, {"note": 70, "velocity": 97, "duration": 72}, {"note": 71, "velocity": 117, "duration": 529}, {"note": 0, "velocity": 0, "duration": 191}, {"note": 75, "velocity": 127, "duration": 115}, {"note": 0, "velocity": 0, "duration": 125}, {"note": 73, "velocity": 122, "duration": 172}, {"note": 0, "velocity": 0, "duration": 68}, {"note": 71, "velocity": 112, "duration": 269}, {"note": 0, "velocity": 0, "duration": 211}, {"note": 70, "velocity": 127, "duration": 115}, {"note": 68, "velocity": 102, "duration": 128}, {"note": 70, "velocity": 127, "duration": 134}, {"note": 71, "velocity": 112, "duration": 101}, {"note": 70, "velocity": 99, "duration": 831}, {"note": 0, "velocity": 0, "duration": 369}, {"note": 70, "velocity": 112, "duration": 102}, {"note": 71, "velocity": 112, "duration": 95}, {"note": 73, "velocity": 117, "duration": 170}, {"note": 0, "velocity": 0, "duration": 70}, {"note": 75, "velocity": 127, "duration": 496}, {"note": 0, "velocity": 0, "duration": 224}, {"note": 78, "velocity": 127, "duration": 166}, {"note": 0, "velocity": 0, "duration": 74}, {"note": 77, "velocity": 127, "duration": 537}, {"note": 0, "velocity": 0, "duration": 183}, {"note": 73, "velocity": 122, "duration": 140}, {"note": 0, "velocity": 0, "duration": 100}, {"note": 70, "velocity": 112, "duration": 141}, {"note": 0, "velocity": 0, "duration": 99}, {"note": 70, "velocity": 102, "duration": 151}, {"note": 0, "velocity": 0, "duration": 89}, {"note": 70, "velocity": 102, "duration": 132}, {"note": 0, "velocity": 0, "duration": 108}, {"note": 77, "velocity": 127, "duration": 197}, {"note": 75, "velocity": 127, "duration": 329}, {"note": 0, "velocity": 0, "duration": 391}, {"note": 68, "velocity": 102, "duration": 84}, {"note": 70, "velocity": 100, "duration": 70}, {"note": 71, "velocity": 117, "duration": 467}, {"note": 0, "velocity": 0, "duration": 253}, {"note": 75, "velocity": 127, "duration": 183}, {"note": 73, "velocity": 127, "duration": 270}, {"note": 71, "velocity": 122, "duration": 276}, {"note": 0, "velocity": 0, "duration": 204}, {"note": 70, "velocity": 122, "duration": 115}, {"note": 68, "velocity": 99, "duration": 92}, {"note": 70, "velocity": 117, "duration": 290}, {"note": 70, "velocity": 127, "duration": 50}, {"note": 0, "velocity": 0, "duration": 1150}, {"note": 70, "velocity": 122, "duration": 81}, {"note": 71, "velocity": 127, "duration": 86}, {"note": 73, "velocity": 122, "duration": 143}, {"note": 0, "velocity": 0, "duration": 97}, {"note": 75, "velocity": 127, "duration": 402}, {"note": 0, "velocity": 0, "duration": 318}, {"note": 71, "velocity": 127, "duration": 131}, {"note": 70, "velocity": 102, "duration": 99}, {"note": 68, "velocity": 112, "duration": 393}, {"note": 0, "velocity": 0, "duration": 567}, {"note": 73, "velocity": 127, "duration": 156}, {"note": 0, "velocity": 0, "duration": 84}, {"note": 73, "velocity": 102, "duration": 168}, {"note": 0, "velocity": 0, "duration": 72}, {"note": 73, "velocity": 112, "duration": 160}, {"note": 0, "velocity": 0, "duration": 80}, {"note": 77, "velocity": 127, "duration": 191}, {"note": 75, "velocity": 127, "duration": 612}, {"note": 0, "velocity": 0, "duration": 108}, {"note": 68, "velocity": 102, "duration": 83}, {"note": 70, "velocity": 97, "duration": 75}, {"note": 71, "velocity": 127, "duration": 391}, {"note": 0, "velocity": 0, "duration": 329}, {"note": 75, "velocity": 127, "duration": 118}, {"note": 0, "velocity": 0, "duration": 122}, {"note": 73, "velocity": 127, "duration": 175}, {"note": 0, "velocity": 0, "duration": 65}, {"note": 71, "velocity": 127, "duration": 136}, {"note": 0, "velocity": 0, "duration": 344}, {"note": 70, "velocity": 127, "duration": 116}, {"note": 68, "velocity": 117, "duration": 97}, {"note": 66, "velocity": 112, "duration": 1059}]]