[[{"note": 57, "velocity": 72, "duration": 218}, {"note": 64, "velocity": 79, "duration": 218}, {"note": 66, "velocity": 97, "duration": 78}, {"note": 66, "velocity": 96, "duration": 294}, {"note": 0, "velocity": 0, "duration": 66}, {"note": 64, "velocity": 92, "duration": 159}, {"note": 66, "velocity": 112, "duration": 253}, {"note": 64, "velocity": 83, "duration": 155}, {"note": 0, "velocity": 0, "duration": 85}, {"note": 57, "velocity": 92, "duration": 349}, {"note": 0, "velocity": 0, "duration": 131}, {"note": 54, "velocity": 79, "duration": 104}, {"note": 61, "velocity": 81, "duration": 237}, {"note": 62, "velocity": 69, "duration": 83}, {"note": 62, "velocity": 82, "duration": 307}, {"note": 61, "velocity": 95, "duration": 158}, {"note": 62, "velocity": 93, "duration": 307}, {"note": 61, "velocity": 107, "duration": 225}, {"note": 54, "velocity": 83, "duration": 328}, {"note": 0, "velocity": 0, "duration": 152}, {"note": 54, "velocity": 92, "duration": 110}, {"note": 66, "velocity": 96, "duration": 202}, {"note": 67, "velocity": 90, "duration": 63}, {"note": 67, "velocity": 95, "duration": 341}, {"note": 66, "velocity": 95, "duration": 52}, {"note": 0, "velocity": 0, "duration": 68}, {"note": 67, "velocity": 88, "duration": 232}, {"note": 0, "velocity": 0, "duration": 128}, {"note": 66, "velocity": 93, "duration": 154}, {"note": 0, "velocity": 0, "duration": 86}, {"note": 59, "velocity": 89, "duration": 197}, {"note": 62, "velocity": 95, "duration": 124}, {"note": 0, "velocity": 0, "duration": 116}, {"note": 62, "velocity": 99, "duration": 97}, {"note": 0, "velocity": 0, "duration": 143}, {"note": 62, "velocity": 89, "duration": 49}, {"note": 0, "velocity": 0, "duration": 71}, {"note": 62, "velocity": 90, "duration": 64}, {"note": 0, "velocity": 0, "duration": 176}, {"note": 64, "velocity": 90, "duration": 46}, {"note": 0, "velocity": 0, "duration": 74}, {"note": 66, "velocity": 100, "duration": 240}, {"note": 64, "velocity": 92, "duration": 507}, {"note": 0, "velocity": 0, "duration": 333}, {"note": 57, "velocity": 86, "duration": 84}, {"note": 64, "velocity": 93, "duration": 200}, {"note": 66, "velocity": 92, "duration": 206}, {"note": 66, "velocity": 100, "duration": 86}, {"note": 0, "velocity": 0, "duration": 274}, {"note": 64, "velocity": 93, "duration": 64}, {"note": 66, "velocity": 99, "duration": 175}, {"note": 0, "velocity": 0, "duration": 65}, {"note": 64, "velocity": 89, "duration": 157}, {"note": 0, "velocity": 0, "duration": 83}, {"note": 57, "velocity": 86, "duration": 193}, {"note": 0, "velocity": 0, "duration": 287}, {"note": 54, "velocity": 83, "duration": 90}, {"note": 61, "velocity": 96, "duration": 200}, {"note": 62, "velocity": 89, "duration": 150}, {"note": 0, "velocity": 0, "duration": 90}, {"note": 62, "velocity": 95, "duration": 146}, {"note": 0, "velocity": 0, "duration": 94}, {"note": 61, "velocity": 97, "duration": 100}, {"note": 62, "velocity": 92, "duration": 213}, {"note": 64, "velocity": 99, "duration": 130}, {"note": 0, "velocity": 0, "duration": 110}, {"note": 66, "velocity": 102, "duration": 292}, {"note": 0, "velocity": 0, "duration": 188}, {"note": 59, "velocity": 92, "duration": 58}, {"note": 0, "velocity": 0, "duration": 62}, {"note": 66, "velocity": 107, "duration": 191}, {"note": 67, "velocity": 92, "duration": 61}, {"note": 67, "velocity": 100, "duration": 212}, {"note": 0, "velocity": 0, "duration": 148}, {"note": 66, "velocity": 102, "duration": 65}, {"note": 67, "velocity": 97, "duration": 221}, {"note": 0, "velocity": 0, "duration": 139}, {"note": 66, "velocity": 97, "duration": 218}, {"note": 59, "velocity": 95, "duration": 191}, {"note": 62, "velocity": 107, "duration": 169}, {"note": 0, "velocity": 0, "duration": 71}, {"note": 62, "velocity": 100, "duration": 184}, {"note": 62, "velocity": 89, "duration": 33}, {"note": 0, "velocity": 0, "duration": 87}, {"note": 62, "velocity": 97, "duration": 115}, {"note": 0, "velocity": 0, "duration": 125}, {"note": 64, "velocity": 89, "duration": 41}, {"note": 0, "velocity": 0, "duration": 79}, {"note": 66, "velocity": 117, "duration": 319}, {"note": 64, "velocity": 97, "duration": 363}, {"note": 0, "velocity": 0, "duration": 117}, {"note": 66, "velocity": 102, "duration": 167}, {"note": 0, "velocity": 0, "duration": 73}, {"note": 67, "velocity": 96, "duration": 165}, {"note": 0, "velocity": 0, "duration": 75}, {"note": 69, "velocity": 107, "duration": 354}, {"note": 69, "velocity": 102, "duration": 225}, {"note": 0, "velocity": 0, "duration": 135}, {"note": 69, "velocity": 117, "duration": 46}, {"note": 0, "velocity": 0, "duration": 74}, {"note": 69, "velocity": 117, "duration": 210}, {"note": 0, "velocity": 0, "duration": 150}, {"note": 67, "velocity": 95, "duration": 44}, {"note": 0, "velocity": 0, "duration": 76}, {"note": 67, "velocity": 100, "duration": 219}, {"note": 66, "velocity": 97, "duration": 266}, {"note": 0, "velocity": 0, "duration": 94}, {"note": 66, "velocity": 107, "duration": 656}, {"note": 0, "velocity": 0, "duration": 784}, {"note": 64, "velocity": 93, "duration": 161}, {"note": 0, "velocity": 0, "duration": 79}, {"note": 66, "velocity": 100, "duration": 154}, {"note": 0, "velocity": 0, "duration": 86}, {"note": 67, "velocity": 112, "duration": 187}, {"note": 0, "velocity": 0, "duration": 173}, {"note": 67, "velocity": 112, "duration": 230}, {"note": 0, "velocity": 0, "duration": 130}, {"note": 67, "velocity": 100, "duration": 37}, {"note": 0, "velocity": 0, "duration": 83}, {"note": 67, "velocity": 107, "duration": 242}, {"note": 0, "velocity": 0, "duration": 118}, {"note": 66, "velocity": 99, "duration": 210}, {"note": 59, "velocity": 96, "duration": 239}, {"note": 62, "velocity": 99, "duration": 189}, {"note": 62, "velocity": 95, "duration": 309}, {"note": 64, "velocity": 102, "duration": 284}, {"note": 0, "velocity": 0, "duration": 76}, {"note": 66, "velocity": 96, "duration": 261}, {"note": 64, "velocity": 92, "duration": 277}, {"note": 0, "velocity": 0, "duration": 203}, {"note": 66, "velocity": 127, "duration": 160}, {"note": 0, "velocity": 0, "duration": 80}, {"note": 67, "velocity": 93, "duration": 138}, {"note": 0, "velocity": 0, "duration": 102}, {"note": 69, "velocity": 117, "duration": 198}, {"note": 0, "velocity": 0, "duration": 162}, {"note": 69, "velocity": 102, "duration": 243}, {"note": 0, "velocity": 0, "duration": 117}, {"note": 69, "velocity": 102, "duration": 51}, {"note": 0, "velocity": 0, "duration": 69}, {"note": 69, "velocity": 112, "duration": 176}, {"note": 0, "velocity": 0, "duration": 184}, {"note": 67, "velocity": 93, "duration": 46}, {"note": 0, "velocity": 0, "duration": 74}, {"note": 67, "velocity": 100, "duration": 164}, {"note": 0, "velocity": 0, "duration": 76}, {"note": 66, "velocity": 102, "duration": 122}, {"note": 0, "velocity": 0, "duration": 118}, {"note": 66, "velocity": 102, "duration": 47}, {"note": 0, "velocity": 0, "duration": 73}, {"note": 66, "velocity": 117, "duration": 164}, {"note": 0, "velocity": 0, "duration": 76}, {"note": 66, "velocity": 102, "duration": 75}, {"note": 66, "velocity": 112, "duration": 212}, {"note": 67, "velocity": 97, "duration": 295}, {"note": 0, "velocity": 0, "duration": 65}, {"note": 66, "velocity": 102, "duration": 216}, {"note": 0, "velocity": 0, "duration": 264}, {"note": 64, "velocity": 99, "duration": 158}, {"note": 0, "velocity": 0, "duration": 82}, {"note": 66, "velocity": 95, "duration": 38}, {"note": 0, "velocity": 0, "duration": 82}, {"note": 67, "velocity": 86, "duration": 332}, {"note": 0, "velocity": 0, "duration": 268}, {"note": 59, "velocity": 95, "duration": 203}, {"note": 62, "velocity": 92, "duration": 153}, {"note": 0, "velocity": 0, "duration": 87}, {"note": 62, "velocity": 100, "duration": 357}, {"note": 0, "velocity": 0, "duration": 123}, {"note": 61, "velocity": 96, "duration": 436}, {"note": 62, "velocity": 96, "duration": 708}, {"note": 0, "velocity": 0, "duration": 2892}, {"note": 57, "velocity": 72, "duration": 218}, {"note": 64, "velocity": 79, "duration": 218}, {"note": 66, "velocity": 97, "duration": 78}, {"note": 66, "velocity": 96, "duration": 294}, {"note": 0, "velocity": 0, "duration": 66}, {"note": 64, "velocity": 92, "duration": 159}, {"note": 66, "velocity": 112, "duration": 253}, {"note": 64, "velocity": 83, "duration": 155}, {"note": 0, "velocity": 0, "duration": 85}, {"note": 57, "velocity": 92, "duration": 349}, {"note": 0, "velocity": 0, "duration": 131}, {"note": 54, "velocity": 79, "duration": 104}, {"note": 61, "velocity": 81, "duration": 237}, {"note": 62, "velocity": 69, "duration": 83}, {"note": 62, "velocity": 82, "duration": 307}, {"note": 61, "velocity": 95, "duration": 158}, {"note": 62, "velocity": 93, "duration": 307}, {"note": 61, "velocity": 107, "duration": 225}, {"note": 54, "velocity": 83, "duration": 328}, {"note": 0, "velocity": 0, "duration": 152}, {"note": 54, "velocity": 92, "duration": 110}, {"note": 66, "velocity": 96, "duration": 202}, {"note": 67, "velocity": 90, "duration": 63}, {"note": 67, "velocity": 95, "duration": 341}, {"note": 66, "velocity": 95, "duration": 52}, {"note": 0, "velocity": 0, "duration": 68}, {"note": 67, "velocity": 88, "duration": 232}, {"note": 0, "velocity": 0, "duration": 128}, {"note": 66, "velocity": 93, "duration": 154}, {"note": 0, "velocity": 0, "duration": 86}, {"note": 59, "velocity": 89, "duration": 197}, {"note": 62, "velocity": 95, "duration": 124}, {"note": 0, "velocity": 0, "duration": 116}, {"note": 62, "velocity": 99, "duration": 97}, {"note": 0, "velocity": 0, "duration": 143}, {"note": 62, "velocity": 89, "duration": 49}, {"note": 0, "velocity": 0, "duration": 71}, {"note": 62, "velocity": 90, "duration": 64}, {"note": 0, "velocity": 0, "duration": 176}, {"note": 64, "velocity": 90, "duration": 46}, {"note": 0, "velocity": 0, "duration": 74}, {"note": 66, "velocity": 100, "duration": 240}, {"note": 64, "velocity": 92, "duration": 507}, {"note": 0, "velocity": 0, "duration": 333}, {"note": 57, "velocity": 86, "duration": 84}, {"note": 64, "velocity": 93, "duration": 200}, {"note": 66, "velocity": 92, "duration": 206}, {"note": 66, "velocity": 100, "duration": 86}, {"note": 0, "velocity": 0, "duration": 274}, {"note": 64, "velocity": 93, "duration": 64}, {"note": 66, "velocity": 99, "duration": 175}, {"note": 0, "velocity": 0, "duration": 65}, {"note": 64, "velocity": 89, "duration": 157}, {"note": 0, "velocity": 0, "duration": 83}, {"note": 57, "velocity": 86, "duration": 193}, {"note": 0, "velocity": 0, "duration": 287}, {"note": 54, "velocity": 83, "duration": 90}, {"note": 61, "velocity": 96, "duration": 200}, {"note": 62, "velocity": 89, "duration": 150}, {"note": 0, "velocity": 0, "duration": 90}, {"note": 62, "velocity": 95, "duration": 146}, {"note": 0, "velocity": 0, "duration": 94}, {"note": 61, "velocity": 97, "duration": 100}, {"note": 62, "velocity": 92, "duration": 213}, {"note": 64, "velocity": 99, "duration": 130}, {"note": 0, "velocity": 0, "duration": 110}, {"note": 66, "velocity": 102, "duration": 292}, {"note": 0, "velocity": 0, "duration": 188}, {"note": 59, "velocity": 92, "duration": 58}, {"note": 0, "velocity": 0, "duration": 62}, {"note": 66, "velocity": 107, "duration": 191}, {"note": 67, "velocity": 92, "duration": 61}, {"note": 67, "velocity": 100, "duration": 212}, {"note": 0, "velocity": 0, "duration": 148}, {"note": 66, "velocity": 102, "duration": 65}, {"note": 67, "velocity": 97, "duration": 221}, {"note": 0, "velocity": 0, "duration": 139}, {"note": 66, "velocity": 97, "duration": 218}, {"note": 59, "velocity": 95, "duration": 191}, {"note": 62, "velocity": 107, "duration": 169}, {"note": 0, "velocity": 0, "duration": 71}, {"note": 62, "velocity": 100, "duration": 184}, {"note": 62, "velocity": 89, "duration": 33}, {"note": 0, "velocity": 0, "duration": 87}, {"note": 62, "velocity": 97, "duration": 115}, {"note": 0, "velocity": 0, "duration": 125}, {"note": 64, "velocity": 89, "duration": 41}, {"note": 0, "velocity": 0, "duration": 79}, {"note": 66, "velocity": 117, "duration": 319}, {"note": 64, "velocity": 97, "duration": 363}, {"note": 0, "velocity": 0, "duration": 117}, {"note": 66, "velocity": 102, "duration": 167}, {"note": 0, "velocity": 0, "duration": 73}, {"note": 67, "velocity": 96, "duration": 165}, {"note": 0, "velocity": 0, "duration": 75}, {"note": 69, "velocity": 107, "duration": 354}, {"note": 69, "velocity": 102, "duration": 225}, {"note": 0, "velocity": 0, "duration": 135}, {"note": 69, "velocity": 117, "duration": 46}, {"note": 0, "velocity": 0, "duration": 74}, {"note": 69, "velocity": 117, "duration": 210}, {"note": 0, "velocity": 0, "duration": 150}, {"note": 67, "velocity": 95, "duration": 44}, {"note": 0, "velocity": 0, "duration": 76}, {"note": 67, "velocity": 100, "duration": 219}, {"note": 66, "velocity": 97, "duration": 266}, {"note": 0, "velocity": 0, "duration": 94}, {"note": 66, "velocity": 107, "duration": 656}, {"note": 0, "velocity": 0, "duration": 784}, {"note": 64, "velocity": 93, "duration": 161}, {"note": 0, "velocity": 0, "duration": 79}, {"note": 66, "velocity": 100, "duration": 154}, {"note": 0, "velocity": 0, "duration": 86}, {"note": 67, "velocity": 112, "duration": 187}, {"note": 0, "velocity": 0, "duration": 173}, {"note": 67, "velocity": 112, "duration": 230}, {"note": 0, "velocity": 0, "duration": 130}, {"note": 67, "velocity": 100, "duration": 37}, {"note": 0, "velocity": 0, "duration": 83}, {"note": 67, "velocity": 107, "duration": 242}, {"note": 0, "velocity": 0, "duration": 118}, {"note": 66, "velocity": 99, "duration": 210}, {"note": 59, "velocity": 96, "duration": 239}, {"note": 62, "velocity": 99, "duration": 189}, {"note": 62, "velocity": 95, "duration": 309}, {"note": 64, "velocity": 102, "duration": 284}, {"note": 0, "velocity": 0, "duration": 76}, {"note": 66, "velocity": 96, "duration": 261}, {"note": 64, "velocity": 92, "duration": 277}, {"note": 0, "velocity": 0, "duration": 203}, {"note": 66, "velocity": 127, "duration": 160}, {"note": 0, "velocity": 0, "duration": 80}, {"note": 67, "velocity": 93, "duration": 138}, {"note": 0, "velocity": 0, "duration": 102}, {"note": 69, "velocity": 117, "duration": 198}, {"note": 0, "velocity": 0, "duration": 162}, {"note": 69, "velocity": 102, "duration": 243}, {"note": 0, "velocity": 0, "duration": 117}, {"note": 69, "velocity": 102, "duration": 51}, {"note": 0, "velocity": 0, "duration": 69}, {"note": 69, "velocity": 112, "duration": 176}, {"note": 0, "velocity": 0, "duration": 184}, {"note": 67, "velocity": 93, "duration": 46}, {"note": 0, "velocity": 0, "duration": 74}, {"note": 67, "velocity": 100, "duration": 164}, {"note": 0, "velocity": 0, "duration": 76}, {"note": 66, "velocity": 102, "duration": 122}, {"note": 0, "velocity": 0, "duration": 118}, {"note": 66, "velocity": 102, "duration": 47}, {"note": 0, "velocity": 0, "duration": 73}, {"note": 66, "velocity": 117, "duration": 164}, {"note": 0, "velocity": 0, "duration": 76}, {"note": 66, "velocity": 102, "duration": 75}, {"note": 66, "velocity": 112, "duration": 212}, {"note": 67, "velocity": 97, "duration": 295}, {"note": 0, "velocity": 0, "duration": 65}, {"note": 66, "velocity": 102, "duration": 216}, {"note": 0, "velocity": 0, "duration": 264}, {"note": 64, "velocity": 99, "duration": 158}, {"note": 0, "velocity": 0, "duration": 82}, {"note": 66, "velocity": 95, "duration": 38}, {"note": 0, "velocity": 0, "duration": 82}, {"note": 67, "velocity": 86, "duration": 332}, {"note": 0, "velocity": 0, "duration": 268}, {"note": 59, "velocity": 95, "duration": 203}, {"note": 62, "velocity": 92, "duration": 153}, {"note": 0, "velocity": 0, "duration": 87}, {"note": 62, "velocity": 100, "duration": 357}, {"note": 0, "velocity": 0, "duration": 123}, {"note": 61, "velocity": 96, "duration": 436}, {"note": 62, "velocity": 96, "duration": 708}, {"note": 0, "velocity": 0, "duration": 17772}, {"note": 57, "velocity": 97, "duration": 153}, {"note": 0, "velocity": 0, "duration": 87}, {"note": 66, "velocity": 97, "duration": 185}, {"note": 67, "velocity": 112, "duration": 192}, {"note": 69, "velocity": 100, "duration": 409}, {"note": 69, "velocity": 107, "duration": 49}, {"note": 0, "velocity": 0, "duration": 311}, {"note": 69, "velocity": 117, "duration": 66}, {"note": 69, "velocity": 117, "duration": 256}, {"note": 0, "velocity": 0, "duration": 104}, {"note": 67, "velocity": 100, "duration": 57}, {"note": 0, "velocity": 0, "duration": 63}, {"note": 67, "velocity": 107, "duration": 271}, {"note": 0, "velocity": 0, "duration": 89}, {"note": 66, "velocity": 99, "duration": 170}, {"note": 0, "velocity": 0, "duration": 70}, {"note": 66, "velocity": 112, "duration": 196}, {"note": 0, "velocity": 0, "duration": 1244}, {"note": 64, "velocity": 112, "duration": 187}, {"note": 66, "velocity": 117, "duration": 167}, {"note": 0, "velocity": 0, "duration": 73}, {"note": 67, "velocity": 122, "duration": 196}, {"note": 0, "velocity": 0, "duration": 164}, {"note": 67, "velocity": 107, "duration": 308}, {"note": 67, "velocity": 96, "duration": 48}, {"note": 0, "velocity": 0, "duration": 72}, {"note": 67, "velocity": 102, "duration": 230}, {"note": 0, "velocity": 0, "duration": 130}, {"note": 66, "velocity": 100, "duration": 225}, {"note": 59, "velocity": 97, "duration": 228}, {"note": 62, "velocity": 107, "duration": 197}, {"note": 62, "velocity": 122, "duration": 341}, {"note": 64, "velocity": 102, "duration": 157}, {"note": 0, "velocity": 0, "duration": 83}, {"note": 66, "velocity": 107, "duration": 217}, {"note": 0, "velocity": 0, "duration": 143}, {"note": 64, "velocity": 100, "duration": 239}, {"note": 0, "velocity": 0, "duration": 241}, {"note": 57, "velocity": 93, "duration": 100}, {"note": 66, "velocity": 102, "duration": 167}, {"note": 0, "velocity": 0, "duration": 73}, {"note": 67, "velocity": 96, "duration": 165}, {"note": 0, "velocity": 0, "duration": 75}, {"note": 69, "velocity": 107, "duration": 354}, {"note": 69, "velocity": 102, "duration": 225}, {"note": 0, "velocity": 0, "duration": 135}, {"note": 69, "velocity": 117, "duration": 46}, {"note": 0, "velocity": 0, "duration": 74}, {"note": 69, "velocity": 117, "duration": 210}, {"note": 0, "velocity": 0, "duration": 150}, {"note": 67, "velocity": 95, "duration": 44}, {"note": 0, "velocity": 0, "duration": 76}, {"note": 67, "velocity": 100, "duration": 219}, {"note": 66, "velocity": 99, "duration": 149}, {"note": 0, "velocity": 0, "duration": 91}, {"note": 66, "velocity": 102, "duration": 57}, {"note": 0, "velocity": 0, "duration": 63}, {"note": 66, "velocity": 117, "duration": 194}, {"note": 60, "velocity": 97, "duration": 541}, {"note": 66, "velocity": 97, "duration": 56}, {"note": 66, "velocity": 90, "duration": 177}, {"note": 67, "velocity": 95, "duration": 250}, {"note": 0, "velocity": 0, "duration": 110}, {"note": 66, "velocity": 95, "duration": 379}, {"note": 0, "velocity": 0, "duration": 101}, {"note": 64, "velocity": 93, "duration": 161}, {"note": 0, "velocity": 0, "duration": 79}, {"note": 66, "velocity": 100, "duration": 154}, {"note": 67, "velocity": 89, "duration": 484}, {"note": 59, "velocity": 86, "duration": 63}, {"note": 59, "velocity": 90, "duration": 217}, {"note": 62, "velocity": 82, "duration": 181}, {"note": 62, "velocity": 97, "duration": 246}, {"note": 0, "velocity": 0, "duration": 234}, {"note": 65, "velocity": 112, "duration": 106}, {"note": 64, "velocity": 89, "duration": 298}, {"note": 0, "velocity": 0, "duration": 62}, {"note": 62, "velocity": 90, "duration": 1290}, {"note": 0, "velocity": 0, "duration": 150}, {"note": 66, "velocity": 127, "duration": 160}, {"note": 0, "velocity": 0, "duration": 80}, {"note": 67, "velocity": 93, "duration": 138}, {"note": 0, "velocity": 0, "duration": 102}, {"note": 69, "velocity": 117, "duration": 198}, {"note": 0, "velocity": 0, "duration": 162}, {"note": 69, "velocity": 102, "duration": 243}, {"note": 0, "velocity": 0, "duration": 117}, {"note": 69, "velocity": 102, "duration": 51}, {"note": 0, "velocity": 0, "duration": 69}, {"note": 69, "velocity": 112, "duration": 176}, {"note": 0, "velocity": 0, "duration": 184}, {"note": 67, "velocity": 93, "duration": 46}, {"note": 0, "velocity": 0, "duration": 74}, {"note": 67, "velocity": 100, "duration": 164}, {"note": 0, "velocity": 0, "duration": 76}, {"note": 66, "velocity": 102, "duration": 205}, {"note": 0, "velocity": 0, "duration": 155}, {"note": 66, "velocity": 117, "duration": 164}, {"note": 0, "velocity": 0, "duration": 76}, {"note": 66, "velocity": 102, "duration": 75}, {"note": 66, "velocity": 112, "duration": 212}, {"note": 67, "velocity": 97, "duration": 295}, {"note": 0, "velocity": 0, "duration": 65}, {"note": 66, "velocity": 102, "duration": 216}, {"note": 0, "velocity": 0, "duration": 264}, {"note": 64, "velocity": 99, "duration": 158}, {"note": 0, "velocity": 0, "duration": 82}, {"note": 66, "velocity": 95, "duration": 38}, {"note": 0, "velocity": 0, "duration": 82}, {"note": 67, "velocity": 86, "duration": 332}, {"note": 0, "velocity": 0, "duration": 148}, {"note": 59, "velocity": 95, "duration": 123}, {"note": 59, "velocity": 95, "duration": 3}, {"note": 0, "velocity": 0, "duration": 237}, {"note": 62, "velocity": 92, "duration": 153}, {"note": 0, "velocity": 0, "duration": 87}, {"note": 62, "velocity": 100, "duration": 357}, {"note": 0, "velocity": 0, "duration": 123}, {"note": 61, "velocity": 96, "duration": 436}, {"note": 69, "velocity": 117, "duration": 352}, {"note": 0, "velocity": 0, "duration": 128}, {"note": 64, "velocity": 100, "duration": 185}, {"note": 69, "velocity": 102, "duration": 168}, {"note": 0, "velocity": 0, "duration": 72}, {"note": 67, "velocity": 117, "duration": 333}, {"note": 0, "velocity": 0, "duration": 147}, {"note": 66, "velocity": 122, "duration": 235}, {"note": 0, "velocity": 0, "duration": 245}, {"note": 67, "velocity": 99, "duration": 184}, {"note": 66, "velocity": 107, "duration": 164}, {"note": 0, "velocity": 0, "duration": 76}, {"note": 59, "velocity": 100, "duration": 180}, {"note": 62, "velocity": 122, "duration": 137}, {"note": 0, "velocity": 0, "duration": 103}, {"note": 62, "velocity": 107, "duration": 361}, {"note": 0, "velocity": 0, "duration": 119}, {"note": 66, "velocity": 112, "duration": 177}, {"note": 64, "velocity": 88, "duration": 155}, {"note": 0, "velocity": 0, "duration": 205}, {"note": 62, "velocity": 96, "duration": 692}]]