[[{"note": 69, "velocity": 94, "duration": 67}, {"note": 76, "velocity": 94, "duration": 100}, {"note": 74, "velocity": 97, "duration": 65}, {"note": 76, "velocity": 98, "duration": 99}, {"note": 74, "velocity": 99, "duration": 59}, {"note": 0, "velocity": 0, "duration": 61}, {"note": 76, "velocity": 97, "duration": 75}, {"note": 81, "velocity": 97, "duration": 67}, {"note": 76, "velocity": 94, "duration": 68}, {"note": 74, "velocity": 99, "duration": 54}, {"note": 0, "velocity": 0, "duration": 66}, {"note": 73, "velocity": 93, "duration": 78}, {"note": 74, "velocity": 95, "duration": 70}, {"note": 73, "velocity": 97, "duration": 80}, {"note": 69, "velocity": 94, "duration": 347}, {"note": 0, "velocity": 0, "duration": 133}, {"note": 66, "velocity": 99, "duration": 73}, {"note": 73, "velocity": 94, "duration": 79}, {"note": 73, "velocity": 95, "duration": 64}, {"note": 73, "velocity": 92, "duration": 67}, {"note": 73, "velocity": 92, "duration": 66}, {"note": 73, "velocity": 99, "duration": 81}, {"note": 71, "velocity": 96, "duration": 65}, {"note": 71, "velocity": 98, "duration": 73}, {"note": 73, "velocity": 95, "duration": 62}, {"note": 74, "velocity": 84, "duration": 80}, {"note": 76, "velocity": 101, "duration": 238}, {"note": 78, "velocity": 94, "duration": 358}, {"note": 0, "velocity": 0, "duration": 122}, {"note": 74, "velocity": 98, "duration": 103}, {"note": 71, "velocity": 99, "duration": 70}, {"note": 71, "velocity": 92, "duration": 59}, {"note": 0, "velocity": 0, "duration": 61}, {"note": 71, "velocity": 94, "duration": 62}, {"note": 71, "velocity": 93, "duration": 63}, {"note": 71, "velocity": 96, "duration": 90}, {"note": 79, "velocity": 96, "duration": 327}, {"note": 78, "velocity": 96, "duration": 195}, {"note": 76, "velocity": 92, "duration": 77}, {"note": 78, "velocity": 94, "duration": 310}, {"note": 0, "velocity": 0, "duration": 170}, {"note": 69, "velocity": 94, "duration": 54}, {"note": 0, "velocity": 0, "duration": 66}, {"note": 76, "velocity": 101, "duration": 82}, {"note": 78, "velocity": 97, "duration": 83}, {"note": 76, "velocity": 103, "duration": 58}, {"note": 0, "velocity": 0, "duration": 62}, {"note": 78, "velocity": 92, "duration": 105}, {"note": 76, "velocity": 108, "duration": 55}, {"note": 0, "velocity": 0, "duration": 65}, {"note": 74, "velocity": 97, "duration": 238}, {"note": 74, "velocity": 92, "duration": 63}, {"note": 71, "velocity": 103, "duration": 184}, {"note": 78, "velocity": 99, "duration": 90}, {"note": 76, "velocity": 103, "duration": 374}, {"note": 0, "velocity": 0, "duration": 106}, {"note": 69, "velocity": 96, "duration": 78}, {"note": 76, "velocity": 98, "duration": 73}, {"note": 74, "velocity": 91, "duration": 69}, {"note": 76, "velocity": 96, "duration": 70}, {"note": 74, "velocity": 96, "duration": 57}, {"note": 0, "velocity": 0, "duration": 63}, {"note": 76, "velocity": 93, "duration": 73}, {"note": 81, "velocity": 92, "duration": 62}, {"note": 76, "velocity": 93, "duration": 61}, {"note": 74, "velocity": 96, "duration": 54}, {"note": 0, "velocity": 0, "duration": 66}, {"note": 73, "velocity": 92, "duration": 66}, {"note": 74, "velocity": 95, "duration": 65}, {"note": 73, "velocity": 103, "duration": 75}, {"note": 69, "velocity": 95, "duration": 270}, {"note": 0, "velocity": 0, "duration": 210}, {"note": 66, "velocity": 94, "duration": 51}, {"note": 0, "velocity": 0, "duration": 69}, {"note": 73, "velocity": 80, "duration": 36}, {"note": 0, "velocity": 0, "duration": 84}, {"note": 73, "velocity": 94, "duration": 57}, {"note": 0, "velocity": 0, "duration": 63}, {"note": 73, "velocity": 94, "duration": 62}, {"note": 73, "velocity": 96, "duration": 47}, {"note": 0, "velocity": 0, "duration": 73}, {"note": 73, "velocity": 103, "duration": 81}, {"note": 71, "velocity": 94, "duration": 67}, {"note": 71, "velocity": 93, "duration": 75}, {"note": 73, "velocity": 93, "duration": 60}, {"note": 74, "velocity": 97, "duration": 60}, {"note": 76, "velocity": 98, "duration": 123}, {"note": 0, "velocity": 0, "duration": 117}, {"note": 78, "velocity": 96, "duration": 233}, {"note": 0, "velocity": 0, "duration": 247}, {"note": 74, "velocity": 101, "duration": 64}, {"note": 71, "velocity": 98, "duration": 57}, {"note": 0, "velocity": 0, "duration": 63}, {"note": 71, "velocity": 94, "duration": 68}, {"note": 71, "velocity": 92, "duration": 69}, {"note": 71, "velocity": 93, "duration": 55}, {"note": 0, "velocity": 0, "duration": 65}, {"note": 71, "velocity": 88, "duration": 57}, {"note": 0, "velocity": 0, "duration": 63}, {"note": 79, "velocity": 94, "duration": 326}, {"note": 78, "velocity": 98, "duration": 156}, {"note": 0, "velocity": 0, "duration": 84}, {"note": 76, "velocity": 96, "duration": 69}, {"note": 78, "velocity": 98, "duration": 245}, {"note": 0, "velocity": 0, "duration": 235}, {"note": 69, "velocity": 94, "duration": 69}, {"note": 76, "velocity": 93, "duration": 82}, {"note": 74, "velocity": 103, "duration": 63}, {"note": 76, "velocity": 98, "duration": 75}, {"note": 74, "velocity": 98, "duration": 65}, {"note": 77, "velocity": 93, "duration": 159}, {"note": 0, "velocity": 0, "duration": 81}, {"note": 76, "velocity": 93, "duration": 77}, {"note": 74, "velocity": 99, "duration": 103}, {"note": 74, "velocity": 81, "duration": 43}, {"note": 0, "velocity": 0, "duration": 77}, {"note": 78, "velocity": 96, "duration": 159}, {"note": 0, "velocity": 0, "duration": 81}, {"note": 74, "velocity": 98, "duration": 598}, {"note": 0, "velocity": 0, "duration": 722}, {"note": 76, "velocity": 93, "duration": 98}, {"note": 74, "velocity": 99, "duration": 74}, {"note": 81, "velocity": 96, "duration": 238}, {"note": 78, "velocity": 93, "duration": 52}, {"note": 0, "velocity": 0, "duration": 68}, {"note": 78, "velocity": 89, "duration": 238}, {"note": 0, "velocity": 0, "duration": 122}, {"note": 78, "velocity": 94, "duration": 73}, {"note": 78, "velocity": 92, "duration": 59}, {"note": 0, "velocity": 0, "duration": 61}, {"note": 78, "velocity": 98, "duration": 99}, {"note": 76, "velocity": 95, "duration": 78}, {"note": 74, "velocity": 96, "duration": 60}, {"note": 69, "velocity": 93, "duration": 238}, {"note": 0, "velocity": 0, "duration": 242}, {"note": 69, "velocity": 94, "duration": 75}, {"note": 74, "velocity": 96, "duration": 70}, {"note": 73, "velocity": 101, "duration": 80}, {"note": 71, "velocity": 93, "duration": 80}, {"note": 73, "velocity": 97, "duration": 64}, {"note": 74, "velocity": 94, "duration": 108}, {"note": 0, "velocity": 0, "duration": 132}, {"note": 73, "velocity": 92, "duration": 77}, {"note": 71, "velocity": 94, "duration": 57}, {"note": 0, "velocity": 0, "duration": 63}, {"note": 69, "velocity": 94, "duration": 163}, {"note": 0, "velocity": 0, "duration": 77}, {"note": 78, "velocity": 95, "duration": 78}, {"note": 78, "velocity": 89, "duration": 271}, {"note": 0, "velocity": 0, "duration": 209}, {"note": 78, "velocity": 99, "duration": 54}, {"note": 0, "velocity": 0, "duration": 66}, {"note": 76, "velocity": 94, "duration": 177}, {"note": 0, "velocity": 0, "duration": 63}, {"note": 78, "velocity": 99, "duration": 68}, {"note": 79, "velocity": 95, "duration": 157}, {"note": 0, "velocity": 0, "duration": 83}, {"note": 76, "velocity": 94, "duration": 253}, {"note": 0, "velocity": 0, "duration": 107}, {"note": 78, "velocity": 94, "duration": 194}, {"note": 76, "velocity": 94, "duration": 64}, {"note": 76, "velocity": 97, "duration": 166}, {"note": 0, "velocity": 0, "duration": 74}, {"note": 74, "velocity": 103, "duration": 154}, {"note": 0, "velocity": 0, "duration": 231}, {"note": 79, "velocity": 96, "duration": 110}, {"note": 78, "velocity": 95, "duration": 116}, {"note": 74, "velocity": 103, "duration": 76}, {"note": 0, "velocity": 0, "duration": 61}, {"note": 71, "velocity": 99, "duration": 151}, {"note": 0, "velocity": 0, "duration": 71}, {"note": 69, "velocity": 94, "duration": 69}, {"note": 78, "velocity": 95, "duration": 179}, {"note": 76, "velocity": 99, "duration": 312}, {"note": 0, "velocity": 0, "duration": 321}, {"note": 76, "velocity": 93, "duration": 98}, {"note": 74, "velocity": 99, "duration": 74}, {"note": 81, "velocity": 96, "duration": 238}, {"note": 78, "velocity": 93, "duration": 52}, {"note": 0, "velocity": 0, "duration": 68}, {"note": 78, "velocity": 89, "duration": 238}, {"note": 0, "velocity": 0, "duration": 242}, {"note": 78, "velocity": 96, "duration": 85}, {"note": 76, "velocity": 96, "duration": 90}, {"note": 78, "velocity": 93, "duration": 179}, {"note": 0, "velocity": 0, "duration": 61}, {"note": 78, "velocity": 98, "duration": 358}, {"note": 0, "velocity": 0, "duration": 122}, {"note": 69, "velocity": 94, "duration": 75}, {"note": 74, "velocity": 96, "duration": 70}, {"note": 73, "velocity": 101, "duration": 80}, {"note": 71, "velocity": 93, "duration": 80}, {"note": 73, "velocity": 97, "duration": 64}, {"note": 74, "velocity": 94, "duration": 108}, {"note": 0, "velocity": 0, "duration": 132}, {"note": 73, "velocity": 92, "duration": 77}, {"note": 71, "velocity": 94, "duration": 57}, {"note": 0, "velocity": 0, "duration": 63}, {"note": 69, "velocity": 94, "duration": 163}, {"note": 0, "velocity": 0, "duration": 77}, {"note": 78, "velocity": 95, "duration": 78}, {"note": 78, "velocity": 89, "duration": 271}, {"note": 0, "velocity": 0, "duration": 209}, {"note": 78, "velocity": 99, "duration": 54}, {"note": 0, "velocity": 0, "duration": 66}, {"note": 76, "velocity": 94, "duration": 177}, {"note": 0, "velocity": 0, "duration": 63}, {"note": 78, "velocity": 99, "duration": 68}, {"note": 79, "velocity": 95, "duration": 157}, {"note": 0, "velocity": 0, "duration": 83}, {"note": 76, "velocity": 94, "duration": 253}, {"note": 0, "velocity": 0, "duration": 107}, {"note": 78, "velocity": 94, "duration": 194}, {"note": 76, "velocity": 94, "duration": 64}, {"note": 76, "velocity": 97, "duration": 166}, {"note": 0, "velocity": 0, "duration": 74}, {"note": 74, "velocity": 103, "duration": 154}, {"note": 0, "velocity": 0, "duration": 231}, {"note": 79, "velocity": 96, "duration": 110}, {"note": 78, "velocity": 95, "duration": 116}, {"note": 79, "velocity": 103, "duration": 76}, {"note": 0, "velocity": 0, "duration": 76}, {"note": 74, "velocity": 99, "duration": 238}, {"note": 73, "velocity": 94, "duration": 238}, {"note": 74, "velocity": 99, "duration": 958}, {"note": 0, "velocity": 0, "duration": 16202}, {"note": 69, "velocity": 96, "duration": 78}, {"note": 76, "velocity": 98, "duration": 73}, {"note": 74, "velocity": 91, "duration": 69}, {"note": 76, "velocity": 96, "duration": 70}, {"note": 74, "velocity": 96, "duration": 57}, {"note": 0, "velocity": 0, "duration": 63}, {"note": 76, "velocity": 93, "duration": 73}, {"note": 81, "velocity": 92, "duration": 62}, {"note": 76, "velocity": 93, "duration": 61}, {"note": 74, "velocity": 96, "duration": 54}, {"note": 0, "velocity": 0, "duration": 66}, {"note": 73, "velocity": 92, "duration": 66}, {"note": 74, "velocity": 95, "duration": 65}, {"note": 73, "velocity": 103, "duration": 75}, {"note": 69, "velocity": 95, "duration": 270}, {"note": 0, "velocity": 0, "duration": 210}, {"note": 66, "velocity": 94, "duration": 51}, {"note": 0, "velocity": 0, "duration": 69}, {"note": 73, "velocity": 80, "duration": 36}, {"note": 0, "velocity": 0, "duration": 84}, {"note": 73, "velocity": 94, "duration": 57}, {"note": 0, "velocity": 0, "duration": 63}, {"note": 73, "velocity": 94, "duration": 62}, {"note": 73, "velocity": 96, "duration": 47}, {"note": 0, "velocity": 0, "duration": 73}, {"note": 73, "velocity": 103, "duration": 81}, {"note": 71, "velocity": 94, "duration": 67}, {"note": 71, "velocity": 93, "duration": 75}, {"note": 73, "velocity": 93, "duration": 60}, {"note": 74, "velocity": 97, "duration": 60}, {"note": 76, "velocity": 98, "duration": 123}, {"note": 0, "velocity": 0, "duration": 117}, {"note": 78, "velocity": 96, "duration": 233}, {"note": 0, "velocity": 0, "duration": 247}, {"note": 74, "velocity": 101, "duration": 64}, {"note": 71, "velocity": 98, "duration": 57}, {"note": 0, "velocity": 0, "duration": 63}, {"note": 71, "velocity": 94, "duration": 68}, {"note": 71, "velocity": 92, "duration": 69}, {"note": 71, "velocity": 93, "duration": 55}, {"note": 0, "velocity": 0, "duration": 65}, {"note": 71, "velocity": 88, "duration": 57}, {"note": 0, "velocity": 0, "duration": 63}, {"note": 79, "velocity": 94, "duration": 326}, {"note": 78, "velocity": 98, "duration": 156}, {"note": 0, "velocity": 0, "duration": 84}, {"note": 76, "velocity": 96, "duration": 69}, {"note": 78, "velocity": 98, "duration": 245}, {"note": 0, "velocity": 0, "duration": 235}, {"note": 69, "velocity": 94, "duration": 69}, {"note": 76, "velocity": 93, "duration": 82}, {"note": 74, "velocity": 103, "duration": 63}, {"note": 76, "velocity": 98, "duration": 75}, {"note": 74, "velocity": 98, "duration": 65}, {"note": 77, "velocity": 93, "duration": 159}, {"note": 0, "velocity": 0, "duration": 81}, {"note": 76, "velocity": 93, "duration": 77}, {"note": 74, "velocity": 99, "duration": 103}, {"note": 74, "velocity": 81, "duration": 43}, {"note": 0, "velocity": 0, "duration": 77}, {"note": 78, "velocity": 96, "duration": 159}, {"note": 0, "velocity": 0, "duration": 81}, {"note": 74, "velocity": 98, "duration": 598}, {"note": 0, "velocity": 0, "duration": 722}, {"note": 76, "velocity": 93, "duration": 98}, {"note": 74, "velocity": 99, "duration": 74}, {"note": 81, "velocity": 96, "duration": 238}, {"note": 78, "velocity": 93, "duration": 52}, {"note": 0, "velocity": 0, "duration": 68}, {"note": 78, "velocity": 89, "duration": 238}, {"note": 0, "velocity": 0, "duration": 122}, {"note": 78, "velocity": 94, "duration": 73}, {"note": 78, "velocity": 92, "duration": 59}, {"note": 0, "velocity": 0, "duration": 61}, {"note": 78, "velocity": 98, "duration": 99}, {"note": 76, "velocity": 95, "duration": 78}, {"note": 74, "velocity": 96, "duration": 60}, {"note": 69, "velocity": 93, "duration": 238}, {"note": 0, "velocity": 0, "duration": 242}, {"note": 69, "velocity": 94, "duration": 75}, {"note": 74, "velocity": 96, "duration": 70}, {"note": 73, "velocity": 101, "duration": 80}, {"note": 71, "velocity": 93, "duration": 80}, {"note": 73, "velocity": 97, "duration": 64}, {"note": 74, "velocity": 94, "duration": 108}, {"note": 0, "velocity": 0, "duration": 132}, {"note": 73, "velocity": 92, "duration": 77}, {"note": 71, "velocity": 94, "duration": 57}, {"note": 0, "velocity": 0, "duration": 63}, {"note": 69, "velocity": 94, "duration": 163}, {"note": 0, "velocity": 0, "duration": 77}, {"note": 78, "velocity": 95, "duration": 78}, {"note": 78, "velocity": 89, "duration": 271}, {"note": 0, "velocity": 0, "duration": 209}, {"note": 78, "velocity": 99, "duration": 54}, {"note": 0, "velocity": 0, "duration": 66}, {"note": 76, "velocity": 94, "duration": 177}, {"note": 0, "velocity": 0, "duration": 63}, {"note": 78, "velocity": 99, "duration": 68}, {"note": 79, "velocity": 95, "duration": 157}, {"note": 0, "velocity": 0, "duration": 83}, {"note": 76, "velocity": 94, "duration": 253}, {"note": 0, "velocity": 0, "duration": 107}, {"note": 78, "velocity": 94, "duration": 194}, {"note": 76, "velocity": 94, "duration": 64}, {"note": 76, "velocity": 97, "duration": 166}, {"note": 0, "velocity": 0, "duration": 74}, {"note": 74, "velocity": 103, "duration": 154}, {"note": 0, "velocity": 0, "duration": 231}, {"note": 79, "velocity": 96, "duration": 110}, {"note": 78, "velocity": 95, "duration": 116}, {"note": 74, "velocity": 103, "duration": 76}, {"note": 0, "velocity": 0, "duration": 61}, {"note": 71, "velocity": 99, "duration": 151}, {"note": 0, "velocity": 0, "duration": 71}, {"note": 69, "velocity": 94, "duration": 69}, {"note": 78, "velocity": 95, "duration": 179}, {"note": 76, "velocity": 99, "duration": 312}, {"note": 0, "velocity": 0, "duration": 321}, {"note": 76, "velocity": 93, "duration": 98}, {"note": 74, "velocity": 99, "duration": 74}, {"note": 81, "velocity": 96, "duration": 238}, {"note": 78, "velocity": 93, "duration": 52}, {"note": 0, "velocity": 0, "duration": 68}, {"note": 78, "velocity": 89, "duration": 238}, {"note": 0, "velocity": 0, "duration": 242}, {"note": 78, "velocity": 96, "duration": 85}, {"note": 76, "velocity": 96, "duration": 90}, {"note": 78, "velocity": 93, "duration": 179}, {"note": 0, "velocity": 0, "duration": 61}, {"note": 78, "velocity": 98, "duration": 358}, {"note": 0, "velocity": 0, "duration": 122}, {"note": 69, "velocity": 94, "duration": 75}, {"note": 74, "velocity": 96, "duration": 70}, {"note": 73, "velocity": 101, "duration": 80}, {"note": 71, "velocity": 93, "duration": 80}, {"note": 73, "velocity": 97, "duration": 64}, {"note": 74, "velocity": 94, "duration": 108}, {"note": 0, "velocity": 0, "duration": 132}, {"note": 73, "velocity": 92, "duration": 77}, {"note": 71, "velocity": 94, "duration": 57}, {"note": 0, "velocity": 0, "duration": 63}, {"note": 69, "velocity": 94, "duration": 163}, {"note": 0, "velocity": 0, "duration": 77}, {"note": 78, "velocity": 95, "duration": 78}, {"note": 78, "velocity": 89, "duration": 271}, {"note": 0, "velocity": 0, "duration": 209}, {"note": 78, "velocity": 99, "duration": 54}, {"note": 0, "velocity": 0, "duration": 66}, {"note": 76, "velocity": 94, "duration": 177}, {"note": 0, "velocity": 0, "duration": 63}, {"note": 78, "velocity": 99, "duration": 68}, {"note": 79, "velocity": 95, "duration": 157}, {"note": 0, "velocity": 0, "duration": 83}, {"note": 76, "velocity": 94, "duration": 253}, {"note": 0, "velocity": 0, "duration": 107}, {"note": 78, "velocity": 94, "duration": 194}, {"note": 76, "velocity": 94, "duration": 64}, {"note": 76, "velocity": 97, "duration": 166}, {"note": 0, "velocity": 0, "duration": 74}, {"note": 74, "velocity": 103, "duration": 154}, {"note": 0, "velocity": 0, "duration": 231}, {"note": 79, "velocity": 96, "duration": 110}, {"note": 78, "velocity": 95, "duration": 116}, {"note": 79, "velocity": 103, "duration": 76}, {"note": 0, "velocity": 0, "duration": 76}, {"note": 74, "velocity": 99, "duration": 238}, {"note": 73, "velocity": 94, "duration": 238}, {"note": 74, "velocity": 99, "duration": 958}, {"note": 0, "velocity": 0, "duration": 722}, {"note": 76, "velocity": 93, "duration": 98}, {"note": 74, "velocity": 99, "duration": 74}, {"note": 81, "velocity": 96, "duration": 238}, {"note": 78, "velocity": 93, "duration": 52}, {"note": 0, "velocity": 0, "duration": 68}, {"note": 78, "velocity": 89, "duration": 238}, {"note": 0, "velocity": 0, "duration": 122}, {"note": 78, "velocity": 94, "duration": 73}, {"note": 78, "velocity": 92, "duration": 59}, {"note": 0, "velocity": 0, "duration": 61}, {"note": 78, "velocity": 98, "duration": 99}, {"note": 76, "velocity": 95, "duration": 78}, {"note": 74, "velocity": 96, "duration": 60}, {"note": 69, "velocity": 93, "duration": 238}, {"note": 0, "velocity": 0, "duration": 242}, {"note": 69, "velocity": 94, "duration": 75}, {"note": 74, "velocity": 96, "duration": 70}, {"note": 73, "velocity": 101, "duration": 80}, {"note": 71, "velocity": 93, "duration": 80}, {"note": 73, "velocity": 97, "duration": 64}, {"note": 74, "velocity": 94, "duration": 108}, {"note": 0, "velocity": 0, "duration": 132}, {"note": 73, "velocity": 92, "duration": 77}, {"note": 71, "velocity": 94, "duration": 57}, {"note": 0, "velocity": 0, "duration": 63}, {"note": 69, "velocity": 94, "duration": 163}, {"note": 0, "velocity": 0, "duration": 77}, {"note": 78, "velocity": 95, "duration": 78}, {"note": 78, "velocity": 89, "duration": 271}, {"note": 0, "velocity": 0, "duration": 209}, {"note": 78, "velocity": 99, "duration": 54}, {"note": 0, "velocity": 0, "duration": 66}, {"note": 76, "velocity": 94, "duration": 177}, {"note": 0, "velocity": 0, "duration": 63}, {"note": 78, "velocity": 99, "duration": 68}, {"note": 79, "velocity": 95, "duration": 157}, {"note": 0, "velocity": 0, "duration": 83}, {"note": 76, "velocity": 94, "duration": 253}, {"note": 0, "velocity": 0, "duration": 107}, {"note": 78, "velocity": 94, "duration": 194}, {"note": 76, "velocity": 94, "duration": 64}, {"note": 76, "velocity": 97, "duration": 166}, {"note": 0, "velocity": 0, "duration": 74}, {"note": 74, "velocity": 103, "duration": 154}, {"note": 0, "velocity": 0, "duration": 231}, {"note": 79, "velocity": 96, "duration": 110}, {"note": 78, "velocity": 95, "duration": 116}, {"note": 74, "velocity": 103, "duration": 76}, {"note": 0, "velocity": 0, "duration": 61}, {"note": 71, "velocity": 99, "duration": 151}, {"note": 0, "velocity": 0, "duration": 71}, {"note": 69, "velocity": 94, "duration": 69}, {"note": 78, "velocity": 95, "duration": 179}, {"note": 76, "velocity": 99, "duration": 312}, {"note": 0, "velocity": 0, "duration": 321}, {"note": 76, "velocity": 93, "duration": 98}, {"note": 74, "velocity": 99, "duration": 74}, {"note": 81, "velocity": 96, "duration": 238}, {"note": 78, "velocity": 93, "duration": 52}, {"note": 0, "velocity": 0, "duration": 68}, {"note": 78, "velocity": 89, "duration": 238}, {"note": 0, "velocity": 0, "duration": 242}, {"note": 78, "velocity": 96, "duration": 85}, {"note": 76, "velocity": 96, "duration": 90}, {"note": 78, "velocity": 93, "duration": 179}, {"note": 0, "velocity": 0, "duration": 61}, {"note": 78, "velocity": 98, "duration": 358}, {"note": 0, "velocity": 0, "duration": 122}, {"note": 69, "velocity": 94, "duration": 75}, {"note": 74, "velocity": 96, "duration": 70}, {"note": 73, "velocity": 101, "duration": 80}, {"note": 71, "velocity": 93, "duration": 80}, {"note": 73, "velocity": 97, "duration": 64}, {"note": 74, "velocity": 94, "duration": 108}, {"note": 0, "velocity": 0, "duration": 132}, {"note": 73, "velocity": 92, "duration": 77}, {"note": 71, "velocity": 94, "duration": 57}, {"note": 0, "velocity": 0, "duration": 63}, {"note": 69, "velocity": 94, "duration": 163}, {"note": 0, "velocity": 0, "duration": 77}, {"note": 78, "velocity": 95, "duration": 78}, {"note": 78, "velocity": 89, "duration": 271}, {"note": 0, "velocity": 0, "duration": 209}, {"note": 78, "velocity": 99, "duration": 54}, {"note": 0, "velocity": 0, "duration": 66}, {"note": 76, "velocity": 94, "duration": 177}, {"note": 0, "velocity": 0, "duration": 63}, {"note": 78, "velocity": 99, "duration": 68}, {"note": 79, "velocity": 95, "duration": 157}, {"note": 0, "velocity": 0, "duration": 83}, {"note": 76, "velocity": 94, "duration": 253}, {"note": 0, "velocity": 0, "duration": 107}, {"note": 78, "velocity": 94, "duration": 194}, {"note": 76, "velocity": 94, "duration": 64}, {"note": 76, "velocity": 97, "duration": 166}, {"note": 0, "velocity": 0, "duration": 74}, {"note": 74, "velocity": 103, "duration": 154}, {"note": 0, "velocity": 0, "duration": 231}, {"note": 79, "velocity": 96, "duration": 110}, {"note": 78, "velocity": 95, "duration": 116}, {"note": 79, "velocity": 103, "duration": 76}, {"note": 0, "velocity": 0, "duration": 76}, {"note": 74, "velocity": 99, "duration": 238}, {"note": 73, "velocity": 94, "duration": 238}, {"note": 74, "velocity": 99, "duration": 958}]]