[[{"note": 65, "velocity": 96, "duration": 415}, {"note": 0, "velocity": 0, "duration": 65}, {"note": 72, "velocity": 92, "duration": 204}, {"note": 70, "velocity": 90, "duration": 162}, {"note": 0, "velocity": 0, "duration": 78}, {"note": 72, "velocity": 93, "duration": 705}, {"note": 0, "velocity": 0, "duration": 255}, {"note": 77, "velocity": 91, "duration": 364}, {"note": 0, "velocity": 0, "duration": 116}, {"note": 72, "velocity": 89, "duration": 181}, {"note": 70, "velocity": 93, "duration": 166}, {"note": 0, "velocity": 0, "duration": 74}, {"note": 72, "velocity": 93, "duration": 778}, {"note": 0, "velocity": 0, "duration": 182}, {"note": 68, "velocity": 91, "duration": 166}, {"note": 0, "velocity": 0, "duration": 74}, {"note": 68, "velocity": 89, "duration": 186}, {"note": 68, "velocity": 93, "duration": 158}, {"note": 0, "velocity": 0, "duration": 82}, {"note": 68, "velocity": 92, "duration": 178}, {"note": 0, "velocity": 0, "duration": 62}, {"note": 70, "velocity": 91, "duration": 158}, {"note": 0, "velocity": 0, "duration": 82}, {"note": 70, "velocity": 91, "duration": 161}, {"note": 0, "velocity": 0, "duration": 79}, {"note": 68, "velocity": 100, "duration": 150}, {"note": 0, "velocity": 0, "duration": 90}, {"note": 70, "velocity": 93, "duration": 167}, {"note": 0, "velocity": 0, "duration": 71}, {"note": 72, "velocity": 97, "duration": 120}, {"note": 70, "velocity": 97, "duration": 120}, {"note": 72, "velocity": 90, "duration": 1051}, {"note": 0, "velocity": 0, "duration": 8549}, {"note": 72, "velocity": 96, "duration": 121}, {"note": 0, "velocity": 0, "duration": 119}, {"note": 72, "velocity": 94, "duration": 125}, {"note": 0, "velocity": 0, "duration": 115}, {"note": 70, "velocity": 91, "duration": 158}, {"note": 0, "velocity": 0, "duration": 82}, {"note": 72, "velocity": 93, "duration": 380}, {"note": 0, "velocity": 0, "duration": 100}, {"note": 75, "velocity": 93, "duration": 174}, {"note": 0, "velocity": 0, "duration": 66}, {"note": 77, "velocity": 91, "duration": 186}, {"note": 72, "velocity": 97, "duration": 116}, {"note": 70, "velocity": 97, "duration": 106}, {"note": 72, "velocity": 100, "duration": 859}, {"note": 0, "velocity": 0, "duration": 824}, {"note": 80, "velocity": 98, "duration": 148}, {"note": 0, "velocity": 0, "duration": 92}, {"note": 77, "velocity": 91, "duration": 129}, {"note": 0, "velocity": 0, "duration": 111}, {"note": 75, "velocity": 100, "duration": 163}, {"note": 0, "velocity": 0, "duration": 77}, {"note": 72, "velocity": 91, "duration": 165}, {"note": 0, "velocity": 0, "duration": 75}, {"note": 70, "velocity": 95, "duration": 146}, {"note": 0, "velocity": 0, "duration": 94}, {"note": 68, "velocity": 91, "duration": 176}, {"note": 0, "velocity": 0, "duration": 64}, {"note": 65, "velocity": 93, "duration": 191}, {"note": 75, "velocity": 95, "duration": 336}, {"note": 72, "velocity": 97, "duration": 148}, {"note": 70, "velocity": 95, "duration": 1076}, {"note": 0, "velocity": 0, "duration": 604}, {"note": 77, "velocity": 98, "duration": 539}, {"note": 0, "velocity": 0, "duration": 181}, {"note": 72, "velocity": 93, "duration": 161}, {"note": 0, "velocity": 0, "duration": 79}, {"note": 70, "velocity": 95, "duration": 341}, {"note": 0, "velocity": 0, "duration": 139}, {"note": 65, "velocity": 95, "duration": 192}, {"note": 75, "velocity": 95, "duration": 400}, {"note": 0, "velocity": 0, "duration": 81}, {"note": 70, "velocity": 97, "duration": 237}, {"note": 72, "velocity": 90, "duration": 911}, {"note": 0, "velocity": 0, "duration": 535}, {"note": 70, "velocity": 103, "duration": 102}, {"note": 0, "velocity": 0, "duration": 138}, {"note": 70, "velocity": 95, "duration": 127}, {"note": 0, "velocity": 0, "duration": 113}, {"note": 70, "velocity": 100, "duration": 137}, {"note": 0, "velocity": 0, "duration": 103}, {"note": 72, "velocity": 93, "duration": 143}, {"note": 0, "velocity": 0, "duration": 97}, {"note": 75, "velocity": 94, "duration": 377}, {"note": 0, "velocity": 0, "duration": 103}, {"note": 72, "velocity": 93, "duration": 135}, {"note": 0, "velocity": 0, "duration": 105}, {"note": 75, "velocity": 95, "duration": 154}, {"note": 0, "velocity": 0, "duration": 86}, {"note": 77, "velocity": 93, "duration": 1762}, {"note": 0, "velocity": 0, "duration": 158}, {"note": 77, "velocity": 91, "duration": 339}, {"note": 0, "velocity": 0, "duration": 141}, {"note": 72, "velocity": 94, "duration": 162}, {"note": 0, "velocity": 0, "duration": 78}, {"note": 77, "velocity": 94, "duration": 121}, {"note": 0, "velocity": 0, "duration": 119}, {"note": 75, "velocity": 103, "duration": 79}, {"note": 0, "velocity": 0, "duration": 161}, {"note": 72, "velocity": 91, "duration": 84}, {"note": 70, "velocity": 94, "duration": 56}, {"note": 0, "velocity": 0, "duration": 64}, {"note": 72, "velocity": 93, "duration": 382}, {"note": 0, "velocity": 0, "duration": 98}, {"note": 80, "velocity": 93, "duration": 321}, {"note": 0, "velocity": 0, "duration": 159}, {"note": 72, "velocity": 96, "duration": 162}, {"note": 0, "velocity": 0, "duration": 78}, {"note": 80, "velocity": 100, "duration": 121}, {"note": 0, "velocity": 0, "duration": 119}, {"note": 77, "velocity": 96, "duration": 84}, {"note": 80, "velocity": 100, "duration": 88}, {"note": 77, "velocity": 93, "duration": 57}, {"note": 0, "velocity": 0, "duration": 63}, {"note": 75, "velocity": 100, "duration": 57}, {"note": 0, "velocity": 0, "duration": 63}, {"note": 77, "velocity": 93, "duration": 343}, {"note": 0, "velocity": 0, "duration": 137}, {"note": 80, "velocity": 91, "duration": 104}, {"note": 0, "velocity": 0, "duration": 136}, {"note": 80, "velocity": 94, "duration": 124}, {"note": 0, "velocity": 0, "duration": 116}, {"note": 80, "velocity": 100, "duration": 132}, {"note": 0, "velocity": 0, "duration": 108}, {"note": 80, "velocity": 95, "duration": 147}, {"note": 0, "velocity": 0, "duration": 93}, {"note": 82, "velocity": 93, "duration": 210}, {"note": 84, "velocity": 84, "duration": 107}, {"note": 82, "velocity": 98, "duration": 77}, {"note": 80, "velocity": 106, "duration": 87}, {"note": 0, "velocity": 0, "duration": 153}, {"note": 82, "velocity": 96, "duration": 124}, {"note": 0, "velocity": 0, "duration": 114}, {"note": 84, "velocity": 97, "duration": 108}, {"note": 82, "velocity": 97, "duration": 138}, {"note": 84, "velocity": 98, "duration": 1347}, {"note": 0, "velocity": 0, "duration": 349}, {"note": 72, "velocity": 96, "duration": 184}, {"note": 80, "velocity": 94, "duration": 140}, {"note": 0, "velocity": 0, "duration": 100}, {"note": 77, "velocity": 89, "duration": 181}, {"note": 75, "velocity": 95, "duration": 188}, {"note": 75, "velocity": 97, "duration": 120}, {"note": 72, "velocity": 96, "duration": 634}, {"note": 0, "velocity": 0, "duration": 217}, {"note": 77, "velocity": 92, "duration": 204}, {"note": 84, "velocity": 95, "duration": 142}, {"note": 0, "velocity": 0, "duration": 98}, {"note": 82, "velocity": 95, "duration": 168}, {"note": 0, "velocity": 0, "duration": 72}, {"note": 80, "velocity": 93, "duration": 155}, {"note": 0, "velocity": 0, "duration": 79}, {"note": 80, "velocity": 97, "duration": 107}, {"note": 77, "velocity": 95, "duration": 673}, {"note": 0, "velocity": 0, "duration": 170}, {"note": 80, "velocity": 93, "duration": 96}, {"note": 0, "velocity": 0, "duration": 144}, {"note": 80, "velocity": 94, "duration": 136}, {"note": 0, "velocity": 0, "duration": 104}, {"note": 80, "velocity": 94, "duration": 135}, {"note": 0, "velocity": 0, "duration": 105}, {"note": 80, "velocity": 96, "duration": 147}, {"note": 0, "velocity": 0, "duration": 93}, {"note": 82, "velocity": 93, "duration": 142}, {"note": 0, "velocity": 0, "duration": 98}, {"note": 82, "velocity": 80, "duration": 135}, {"note": 0, "velocity": 0, "duration": 105}, {"note": 80, "velocity": 93, "duration": 158}, {"note": 0, "velocity": 0, "duration": 82}, {"note": 82, "velocity": 93, "duration": 150}, {"note": 0, "velocity": 0, "duration": 88}, {"note": 84, "velocity": 97, "duration": 120}, {"note": 82, "velocity": 97, "duration": 92}, {"note": 84, "velocity": 93, "duration": 1429}, {"note": 82, "velocity": 97, "duration": 77}, {"note": 80, "velocity": 97, "duration": 69}, {"note": 82, "velocity": 100, "duration": 127}, {"note": 0, "velocity": 0, "duration": 113}, {"note": 82, "velocity": 91, "duration": 576}, {"note": 0, "velocity": 0, "duration": 144}, {"note": 79, "velocity": 91, "duration": 127}, {"note": 0, "velocity": 0, "duration": 113}, {"note": 79, "velocity": 98, "duration": 716}, {"note": 0, "velocity": 0, "duration": 244}, {"note": 75, "velocity": 96, "duration": 362}, {"note": 0, "velocity": 0, "duration": 118}, {"note": 75, "velocity": 93, "duration": 142}, {"note": 0, "velocity": 0, "duration": 98}, {"note": 75, "velocity": 96, "duration": 402}, {"note": 0, "velocity": 0, "duration": 78}, {"note": 72, "velocity": 93, "duration": 196}, {"note": 75, "velocity": 92, "duration": 156}, {"note": 0, "velocity": 0, "duration": 82}, {"note": 77, "velocity": 97, "duration": 120}, {"note": 75, "velocity": 97, "duration": 108}, {"note": 77, "velocity": 90, "duration": 1688}, {"note": 0, "velocity": 0, "duration": 15607}, {"note": 72, "velocity": 96, "duration": 121}, {"note": 0, "velocity": 0, "duration": 119}, {"note": 72, "velocity": 94, "duration": 125}, {"note": 0, "velocity": 0, "duration": 115}, {"note": 70, "velocity": 91, "duration": 158}, {"note": 0, "velocity": 0, "duration": 82}, {"note": 72, "velocity": 93, "duration": 380}, {"note": 0, "velocity": 0, "duration": 100}, {"note": 75, "velocity": 93, "duration": 174}, {"note": 0, "velocity": 0, "duration": 66}, {"note": 77, "velocity": 91, "duration": 186}, {"note": 72, "velocity": 97, "duration": 120}, {"note": 70, "velocity": 97, "duration": 107}, {"note": 72, "velocity": 100, "duration": 873}, {"note": 0, "velocity": 0, "duration": 824}, {"note": 80, "velocity": 98, "duration": 148}, {"note": 0, "velocity": 0, "duration": 92}, {"note": 77, "velocity": 91, "duration": 129}, {"note": 0, "velocity": 0, "duration": 111}, {"note": 75, "velocity": 100, "duration": 163}, {"note": 0, "velocity": 0, "duration": 77}, {"note": 72, "velocity": 91, "duration": 165}, {"note": 0, "velocity": 0, "duration": 75}, {"note": 70, "velocity": 95, "duration": 146}, {"note": 0, "velocity": 0, "duration": 94}, {"note": 68, "velocity": 91, "duration": 176}, {"note": 0, "velocity": 0, "duration": 64}, {"note": 65, "velocity": 93, "duration": 191}, {"note": 75, "velocity": 95, "duration": 474}, {"note": 72, "velocity": 95, "duration": 1076}, {"note": 0, "velocity": 0, "duration": 604}, {"note": 77, "velocity": 98, "duration": 539}, {"note": 0, "velocity": 0, "duration": 181}, {"note": 72, "velocity": 93, "duration": 161}, {"note": 0, "velocity": 0, "duration": 79}, {"note": 70, "velocity": 95, "duration": 341}, {"note": 0, "velocity": 0, "duration": 139}, {"note": 65, "velocity": 95, "duration": 192}, {"note": 75, "velocity": 95, "duration": 202}, {"note": 72, "velocity": 97, "duration": 120}, {"note": 70, "velocity": 97, "duration": 80}, {"note": 72, "velocity": 90, "duration": 1145}, {"note": 0, "velocity": 0, "duration": 535}, {"note": 70, "velocity": 103, "duration": 102}, {"note": 0, "velocity": 0, "duration": 138}, {"note": 70, "velocity": 95, "duration": 127}, {"note": 0, "velocity": 0, "duration": 113}, {"note": 70, "velocity": 100, "duration": 137}, {"note": 0, "velocity": 0, "duration": 103}, {"note": 72, "velocity": 93, "duration": 143}, {"note": 0, "velocity": 0, "duration": 97}, {"note": 75, "velocity": 94, "duration": 377}, {"note": 0, "velocity": 0, "duration": 103}, {"note": 72, "velocity": 93, "duration": 135}, {"note": 0, "velocity": 0, "duration": 105}, {"note": 75, "velocity": 95, "duration": 154}, {"note": 0, "velocity": 0, "duration": 85}, {"note": 75, "velocity": 97, "duration": 96}, {"note": 77, "velocity": 93, "duration": 1640}, {"note": 0, "velocity": 0, "duration": 158}, {"note": 77, "velocity": 91, "duration": 339}, {"note": 0, "velocity": 0, "duration": 141}, {"note": 72, "velocity": 94, "duration": 162}, {"note": 0, "velocity": 0, "duration": 78}, {"note": 77, "velocity": 94, "duration": 121}, {"note": 0, "velocity": 0, "duration": 119}, {"note": 75, "velocity": 103, "duration": 79}, {"note": 0, "velocity": 0, "duration": 161}, {"note": 72, "velocity": 91, "duration": 84}, {"note": 70, "velocity": 94, "duration": 56}, {"note": 0, "velocity": 0, "duration": 64}, {"note": 72, "velocity": 93, "duration": 382}, {"note": 0, "velocity": 0, "duration": 98}, {"note": 80, "velocity": 93, "duration": 321}, {"note": 0, "velocity": 0, "duration": 159}, {"note": 72, "velocity": 96, "duration": 162}, {"note": 0, "velocity": 0, "duration": 78}, {"note": 80, "velocity": 100, "duration": 121}, {"note": 0, "velocity": 0, "duration": 119}, {"note": 77, "velocity": 96, "duration": 84}, {"note": 80, "velocity": 100, "duration": 88}, {"note": 77, "velocity": 93, "duration": 57}, {"note": 0, "velocity": 0, "duration": 63}, {"note": 75, "velocity": 100, "duration": 57}, {"note": 0, "velocity": 0, "duration": 63}, {"note": 77, "velocity": 93, "duration": 343}, {"note": 0, "velocity": 0, "duration": 137}, {"note": 80, "velocity": 91, "duration": 104}, {"note": 0, "velocity": 0, "duration": 136}, {"note": 80, "velocity": 94, "duration": 124}, {"note": 0, "velocity": 0, "duration": 116}, {"note": 80, "velocity": 100, "duration": 132}, {"note": 0, "velocity": 0, "duration": 108}, {"note": 80, "velocity": 95, "duration": 147}, {"note": 0, "velocity": 0, "duration": 93}, {"note": 82, "velocity": 93, "duration": 210}, {"note": 84, "velocity": 84, "duration": 107}, {"note": 82, "velocity": 98, "duration": 77}, {"note": 80, "velocity": 106, "duration": 87}, {"note": 0, "velocity": 0, "duration": 153}, {"note": 82, "velocity": 96, "duration": 124}, {"note": 0, "velocity": 0, "duration": 114}, {"note": 84, "velocity": 97, "duration": 120}, {"note": 82, "velocity": 97, "duration": 107}, {"note": 84, "velocity": 98, "duration": 1342}, {"note": 0, "velocity": 0, "duration": 349}, {"note": 72, "velocity": 96, "duration": 184}, {"note": 80, "velocity": 94, "duration": 140}, {"note": 0, "velocity": 0, "duration": 100}, {"note": 77, "velocity": 89, "duration": 181}, {"note": 75, "velocity": 95, "duration": 188}, {"note": 75, "velocity": 97, "duration": 101}, {"note": 72, "velocity": 96, "duration": 641}, {"note": 0, "velocity": 0, "duration": 201}, {"note": 77, "velocity": 92, "duration": 204}, {"note": 84, "velocity": 95, "duration": 142}, {"note": 0, "velocity": 0, "duration": 98}, {"note": 82, "velocity": 95, "duration": 168}, {"note": 0, "velocity": 0, "duration": 72}, {"note": 80, "velocity": 93, "duration": 155}, {"note": 0, "velocity": 0, "duration": 83}, {"note": 80, "velocity": 97, "duration": 120}, {"note": 77, "velocity": 95, "duration": 672}, {"note": 0, "velocity": 0, "duration": 170}, {"note": 80, "velocity": 93, "duration": 96}, {"note": 0, "velocity": 0, "duration": 144}, {"note": 80, "velocity": 94, "duration": 136}, {"note": 0, "velocity": 0, "duration": 104}, {"note": 80, "velocity": 94, "duration": 135}, {"note": 0, "velocity": 0, "duration": 105}, {"note": 80, "velocity": 96, "duration": 147}, {"note": 0, "velocity": 0, "duration": 93}, {"note": 82, "velocity": 93, "duration": 142}, {"note": 0, "velocity": 0, "duration": 98}, {"note": 82, "velocity": 80, "duration": 135}, {"note": 0, "velocity": 0, "duration": 105}, {"note": 80, "velocity": 93, "duration": 158}, {"note": 0, "velocity": 0, "duration": 82}, {"note": 82, "velocity": 93, "duration": 150}, {"note": 0, "velocity": 0, "duration": 88}, {"note": 84, "velocity": 97, "duration": 120}, {"note": 82, "velocity": 97, "duration": 120}, {"note": 84, "velocity": 93, "duration": 1440}, {"note": 82, "velocity": 97, "duration": 120}, {"note": 80, "velocity": 97, "duration": 120}, {"note": 82, "velocity": 100, "duration": 127}, {"note": 0, "velocity": 0, "duration": 113}, {"note": 82, "velocity": 91, "duration": 576}, {"note": 0, "velocity": 0, "duration": 144}, {"note": 79, "velocity": 91, "duration": 127}, {"note": 0, "velocity": 0, "duration": 113}, {"note": 79, "velocity": 98, "duration": 716}, {"note": 0, "velocity": 0, "duration": 244}, {"note": 75, "velocity": 96, "duration": 362}, {"note": 0, "velocity": 0, "duration": 118}, {"note": 75, "velocity": 93, "duration": 142}, {"note": 0, "velocity": 0, "duration": 98}, {"note": 75, "velocity": 96, "duration": 402}, {"note": 0, "velocity": 0, "duration": 78}, {"note": 72, "velocity": 93, "duration": 196}, {"note": 75, "velocity": 92, "duration": 156}, {"note": 0, "velocity": 0, "duration": 82}, {"note": 77, "velocity": 97, "duration": 120}, {"note": 75, "velocity": 97, "duration": 120}, {"note": 77, "velocity": 90, "duration": 1675}, {"note": 0, "velocity": 0, "duration": 15367}, {"note": 77, "velocity": 91, "duration": 339}, {"note": 0, "velocity": 0, "duration": 141}, {"note": 72, "velocity": 94, "duration": 162}, {"note": 0, "velocity": 0, "duration": 78}, {"note": 77, "velocity": 94, "duration": 121}, {"note": 0, "velocity": 0, "duration": 119}, {"note": 75, "velocity": 103, "duration": 79}, {"note": 0, "velocity": 0, "duration": 161}, {"note": 72, "velocity": 91, "duration": 84}, {"note": 70, "velocity": 94, "duration": 56}, {"note": 0, "velocity": 0, "duration": 64}, {"note": 72, "velocity": 93, "duration": 382}, {"note": 0, "velocity": 0, "duration": 98}, {"note": 80, "velocity": 93, "duration": 321}, {"note": 0, "velocity": 0, "duration": 159}, {"note": 72, "velocity": 96, "duration": 162}, {"note": 0, "velocity": 0, "duration": 78}, {"note": 80, "velocity": 100, "duration": 121}, {"note": 0, "velocity": 0, "duration": 119}, {"note": 77, "velocity": 96, "duration": 84}, {"note": 80, "velocity": 100, "duration": 88}, {"note": 77, "velocity": 93, "duration": 57}, {"note": 0, "velocity": 0, "duration": 63}, {"note": 75, "velocity": 100, "duration": 57}, {"note": 0, "velocity": 0, "duration": 63}, {"note": 77, "velocity": 93, "duration": 343}, {"note": 0, "velocity": 0, "duration": 137}, {"note": 80, "velocity": 91, "duration": 104}, {"note": 0, "velocity": 0, "duration": 136}, {"note": 80, "velocity": 94, "duration": 124}, {"note": 0, "velocity": 0, "duration": 116}, {"note": 80, "velocity": 100, "duration": 132}, {"note": 0, "velocity": 0, "duration": 108}, {"note": 80, "velocity": 95, "duration": 147}, {"note": 0, "velocity": 0, "duration": 93}, {"note": 82, "velocity": 93, "duration": 210}, {"note": 84, "velocity": 84, "duration": 107}, {"note": 82, "velocity": 98, "duration": 77}, {"note": 80, "velocity": 106, "duration": 87}, {"note": 0, "velocity": 0, "duration": 153}, {"note": 82, "velocity": 96, "duration": 124}, {"note": 0, "velocity": 0, "duration": 114}, {"note": 84, "velocity": 97, "duration": 120}, {"note": 82, "velocity": 97, "duration": 120}, {"note": 84, "velocity": 98, "duration": 1333}, {"note": 0, "velocity": 0, "duration": 349}, {"note": 72, "velocity": 96, "duration": 184}, {"note": 80, "velocity": 94, "duration": 140}, {"note": 0, "velocity": 0, "duration": 100}, {"note": 77, "velocity": 89, "duration": 181}, {"note": 75, "velocity": 95, "duration": 188}, {"note": 75, "velocity": 97, "duration": 120}, {"note": 72, "velocity": 96, "duration": 625}, {"note": 0, "velocity": 0, "duration": 217}, {"note": 77, "velocity": 92, "duration": 204}, {"note": 84, "velocity": 95, "duration": 142}, {"note": 0, "velocity": 0, "duration": 98}, {"note": 82, "velocity": 95, "duration": 168}, {"note": 0, "velocity": 0, "duration": 72}, {"note": 80, "velocity": 93, "duration": 155}, {"note": 0, "velocity": 0, "duration": 83}, {"note": 80, "velocity": 97, "duration": 120}, {"note": 77, "velocity": 95, "duration": 672}, {"note": 0, "velocity": 0, "duration": 170}, {"note": 80, "velocity": 93, "duration": 96}, {"note": 0, "velocity": 0, "duration": 144}, {"note": 80, "velocity": 94, "duration": 136}, {"note": 0, "velocity": 0, "duration": 104}, {"note": 80, "velocity": 94, "duration": 135}, {"note": 0, "velocity": 0, "duration": 105}, {"note": 80, "velocity": 96, "duration": 147}, {"note": 0, "velocity": 0, "duration": 93}, {"note": 82, "velocity": 93, "duration": 142}, {"note": 0, "velocity": 0, "duration": 98}, {"note": 82, "velocity": 80, "duration": 135}, {"note": 0, "velocity": 0, "duration": 105}, {"note": 80, "velocity": 93, "duration": 158}, {"note": 0, "velocity": 0, "duration": 82}, {"note": 82, "velocity": 93, "duration": 150}, {"note": 0, "velocity": 0, "duration": 88}, {"note": 84, "velocity": 97, "duration": 120}, {"note": 82, "velocity": 97, "duration": 120}, {"note": 84, "velocity": 93, "duration": 1531}, {"note": 0, "velocity": 0, "duration": 151}, {"note": 82, "velocity": 100, "duration": 127}, {"note": 0, "velocity": 0, "duration": 113}, {"note": 82, "velocity": 91, "duration": 576}, {"note": 0, "velocity": 0, "duration": 144}, {"note": 79, "velocity": 91, "duration": 127}, {"note": 0, "velocity": 0, "duration": 113}, {"note": 79, "velocity": 98, "duration": 716}, {"note": 0, "velocity": 0, "duration": 244}, {"note": 75, "velocity": 96, "duration": 362}, {"note": 0, "velocity": 0, "duration": 118}, {"note": 75, "velocity": 93, "duration": 142}, {"note": 0, "velocity": 0, "duration": 98}, {"note": 75, "velocity": 96, "duration": 402}, {"note": 0, "velocity": 0, "duration": 78}, {"note": 72, "velocity": 93, "duration": 196}, {"note": 75, "velocity": 92, "duration": 156}, {"note": 0, "velocity": 0, "duration": 82}, {"note": 77, "velocity": 97, "duration": 120}, {"note": 75, "velocity": 97, "duration": 120}, {"note": 77, "velocity": 90, "duration": 1675}, {"note": 65, "velocity": 96, "duration": 415}, {"note": 0, "velocity": 0, "duration": 65}, {"note": 72, "velocity": 92, "duration": 204}, {"note": 70, "velocity": 90, "duration": 162}, {"note": 0, "velocity": 0, "duration": 78}, {"note": 72, "velocity": 93, "duration": 705}, {"note": 0, "velocity": 0, "duration": 255}, {"note": 77, "velocity": 91, "duration": 364}, {"note": 0, "velocity": 0, "duration": 116}, {"note": 72, "velocity": 89, "duration": 181}, {"note": 70, "velocity": 93, "duration": 166}, {"note": 0, "velocity": 0, "duration": 74}, {"note": 72, "velocity": 93, "duration": 778}, {"note": 0, "velocity": 0, "duration": 492}, {"note": 75, "velocity": 100, "duration": 440}, {"note": 0, "velocity": 0, "duration": 110}, {"note": 75, "velocity": 96, "duration": 231}, {"note": 0, "velocity": 0, "duration": 120}, {"note": 75, "velocity": 100, "duration": 691}, {"note": 72, "velocity": 96, "duration": 284}, {"note": 75, "velocity": 93, "duration": 248}, {"note": 0, "velocity": 0, "duration": 101}, {"note": 77, "velocity": 89, "duration": 1991}]]