[[{"note": 64, "velocity": 90, "duration": 182}, {"note": 66, "velocity": 85, "duration": 201}, {"note": 68, "velocity": 86, "duration": 554}, {"note": 0, "velocity": 0, "duration": 166}, {"note": 66, "velocity": 87, "duration": 166}, {"note": 0, "velocity": 0, "duration": 74}, {"note": 68, "velocity": 83, "duration": 175}, {"note": 0, "velocity": 0, "duration": 65}, {"note": 71, "velocity": 86, "duration": 177}, {"note": 0, "velocity": 0, "duration": 63}, {"note": 76, "velocity": 92, "duration": 128}, {"note": 0, "velocity": 0, "duration": 112}, {"note": 73, "velocity": 84, "duration": 404}, {"note": 0, "velocity": 0, "duration": 76}, {"note": 71, "velocity": 87, "duration": 1041}, {"note": 0, "velocity": 0, "duration": 159}, {"note": 73, "velocity": 86, "duration": 171}, {"note": 0, "velocity": 0, "duration": 69}, {"note": 76, "velocity": 83, "duration": 138}, {"note": 0, "velocity": 0, "duration": 102}, {"note": 73, "velocity": 82, "duration": 587}, {"note": 0, "velocity": 0, "duration": 133}, {"note": 73, "velocity": 88, "duration": 73}, {"note": 71, "velocity": 84, "duration": 76}, {"note": 68, "velocity": 92, "duration": 171}, {"note": 0, "velocity": 0, "duration": 69}, {"note": 71, "velocity": 84, "duration": 147}, {"note": 0, "velocity": 0, "duration": 93}, {"note": 71, "velocity": 83, "duration": 168}, {"note": 0, "velocity": 0, "duration": 72}, {"note": 68, "velocity": 87, "duration": 186}, {"note": 66, "velocity": 85, "duration": 1020}, {"note": 0, "velocity": 0, "duration": 420}, {"note": 66, "velocity": 84, "duration": 185}, {"note": 68, "velocity": 82, "duration": 145}, {"note": 0, "velocity": 0, "duration": 95}, {"note": 71, "velocity": 84, "duration": 341}, {"note": 0, "velocity": 0, "duration": 379}, {"note": 71, "velocity": 85, "duration": 80}, {"note": 68, "velocity": 88, "duration": 47}, {"note": 0, "velocity": 0, "duration": 73}, {"note": 66, "velocity": 88, "duration": 164}, {"note": 0, "velocity": 0, "duration": 76}, {"note": 68, "velocity": 86, "duration": 139}, {"note": 0, "velocity": 0, "duration": 101}, {"note": 64, "velocity": 90, "duration": 150}, {"note": 0, "velocity": 0, "duration": 90}, {"note": 66, "velocity": 82, "duration": 120}, {"note": 64, "velocity": 82, "duration": 120}, {"note": 61, "velocity": 80, "duration": 965}, {"note": 0, "velocity": 0, "duration": 475}, {"note": 61, "velocity": 92, "duration": 171}, {"note": 0, "velocity": 0, "duration": 69}, {"note": 68, "velocity": 88, "duration": 179}, {"note": 0, "velocity": 0, "duration": 61}, {"note": 66, "velocity": 83, "duration": 552}, {"note": 0, "velocity": 0, "duration": 168}, {"note": 64, "velocity": 81, "duration": 189}, {"note": 61, "velocity": 88, "duration": 204}, {"note": 64, "velocity": 83, "duration": 113}, {"note": 0, "velocity": 0, "duration": 127}, {"note": 64, "velocity": 82, "duration": 126}, {"note": 0, "velocity": 0, "duration": 114}, {"note": 68, "velocity": 85, "duration": 171}, {"note": 0, "velocity": 0, "duration": 69}, {"note": 66, "velocity": 82, "duration": 1288}, {"note": 0, "velocity": 0, "duration": 152}, {"note": 64, "velocity": 90, "duration": 182}, {"note": 66, "velocity": 85, "duration": 201}, {"note": 68, "velocity": 86, "duration": 554}, {"note": 0, "velocity": 0, "duration": 166}, {"note": 66, "velocity": 87, "duration": 166}, {"note": 0, "velocity": 0, "duration": 74}, {"note": 68, "velocity": 83, "duration": 175}, {"note": 0, "velocity": 0, "duration": 65}, {"note": 71, "velocity": 86, "duration": 177}, {"note": 0, "velocity": 0, "duration": 63}, {"note": 76, "velocity": 92, "duration": 128}, {"note": 0, "velocity": 0, "duration": 112}, {"note": 73, "velocity": 84, "duration": 404}, {"note": 0, "velocity": 0, "duration": 76}, {"note": 71, "velocity": 87, "duration": 1041}, {"note": 0, "velocity": 0, "duration": 159}, {"note": 73, "velocity": 86, "duration": 171}, {"note": 0, "velocity": 0, "duration": 69}, {"note": 76, "velocity": 83, "duration": 138}, {"note": 0, "velocity": 0, "duration": 102}, {"note": 73, "velocity": 82, "duration": 587}, {"note": 0, "velocity": 0, "duration": 133}, {"note": 73, "velocity": 88, "duration": 73}, {"note": 71, "velocity": 84, "duration": 76}, {"note": 68, "velocity": 92, "duration": 171}, {"note": 0, "velocity": 0, "duration": 69}, {"note": 71, "velocity": 84, "duration": 147}, {"note": 0, "velocity": 0, "duration": 93}, {"note": 71, "velocity": 83, "duration": 168}, {"note": 0, "velocity": 0, "duration": 72}, {"note": 68, "velocity": 87, "duration": 186}, {"note": 66, "velocity": 85, "duration": 1020}, {"note": 0, "velocity": 0, "duration": 420}, {"note": 66, "velocity": 84, "duration": 185}, {"note": 68, "velocity": 82, "duration": 145}, {"note": 0, "velocity": 0, "duration": 95}, {"note": 71, "velocity": 84, "duration": 341}, {"note": 71, "velocity": 85, "duration": 80}, {"note": 71, "velocity": 85, "duration": 240}, {"note": 68, "velocity": 88, "duration": 240}, {"note": 66, "velocity": 88, "duration": 164}, {"note": 0, "velocity": 0, "duration": 76}, {"note": 68, "velocity": 86, "duration": 360}, {"note": 0, "velocity": 0, "duration": 120}, {"note": 66, "velocity": 82, "duration": 120}, {"note": 64, "velocity": 82, "duration": 120}, {"note": 61, "velocity": 80, "duration": 965}, {"note": 0, "velocity": 0, "duration": 475}, {"note": 61, "velocity": 92, "duration": 171}, {"note": 0, "velocity": 0, "duration": 69}, {"note": 68, "velocity": 88, "duration": 179}, {"note": 0, "velocity": 0, "duration": 61}, {"note": 66, "velocity": 83, "duration": 552}, {"note": 0, "velocity": 0, "duration": 168}, {"note": 66, "velocity": 85, "duration": 74}, {"note": 64, "velocity": 84, "duration": 70}, {"note": 66, "velocity": 86, "duration": 196}, {"note": 64, "velocity": 88, "duration": 58}, {"note": 0, "velocity": 0, "duration": 62}, {"note": 66, "velocity": 83, "duration": 297}, {"note": 0, "velocity": 0, "duration": 63}, {"note": 73, "velocity": 88, "duration": 186}, {"note": 71, "velocity": 83, "duration": 1251}, {"note": 0, "velocity": 0, "duration": 189}, {"note": 71, "velocity": 88, "duration": 177}, {"note": 0, "velocity": 0, "duration": 63}, {"note": 73, "velocity": 85, "duration": 150}, {"note": 0, "velocity": 0, "duration": 90}, {"note": 80, "velocity": 97, "duration": 294}, {"note": 0, "velocity": 0, "duration": 66}, {"note": 78, "velocity": 92, "duration": 227}, {"note": 0, "velocity": 0, "duration": 133}, {"note": 76, "velocity": 87, "duration": 143}, {"note": 0, "velocity": 0, "duration": 97}, {"note": 76, "velocity": 87, "duration": 153}, {"note": 0, "velocity": 0, "duration": 87}, {"note": 68, "velocity": 92, "duration": 151}, {"note": 0, "velocity": 0, "duration": 89}, {"note": 73, "velocity": 88, "duration": 160}, {"note": 0, "velocity": 0, "duration": 80}, {"note": 75, "velocity": 86, "duration": 84}, {"note": 73, "velocity": 86, "duration": 58}, {"note": 0, "velocity": 0, "duration": 62}, {"note": 71, "velocity": 83, "duration": 1290}, {"note": 0, "velocity": 0, "duration": 150}, {"note": 71, "velocity": 88, "duration": 163}, {"note": 0, "velocity": 0, "duration": 77}, {"note": 73, "velocity": 85, "duration": 156}, {"note": 0, "velocity": 0, "duration": 84}, {"note": 76, "velocity": 85, "duration": 286}, {"note": 0, "velocity": 0, "duration": 74}, {"note": 73, "velocity": 87, "duration": 279}, {"note": 0, "velocity": 0, "duration": 81}, {"note": 73, "velocity": 85, "duration": 87}, {"note": 71, "velocity": 83, "duration": 66}, {"note": 68, "velocity": 86, "duration": 157}, {"note": 0, "velocity": 0, "duration": 83}, {"note": 71, "velocity": 84, "duration": 145}, {"note": 0, "velocity": 0, "duration": 95}, {"note": 71, "velocity": 85, "duration": 161}, {"note": 0, "velocity": 0, "duration": 79}, {"note": 68, "velocity": 83, "duration": 169}, {"note": 0, "velocity": 0, "duration": 71}, {"note": 66, "velocity": 85, "duration": 1237}, {"note": 0, "velocity": 0, "duration": 203}, {"note": 66, "velocity": 88, "duration": 175}, {"note": 0, "velocity": 0, "duration": 65}, {"note": 68, "velocity": 83, "duration": 167}, {"note": 0, "velocity": 0, "duration": 73}, {"note": 71, "velocity": 87, "duration": 262}, {"note": 0, "velocity": 0, "duration": 98}, {"note": 71, "velocity": 82, "duration": 76}, {"note": 71, "velocity": 86, "duration": 131}, {"note": 0, "velocity": 0, "duration": 109}, {"note": 68, "velocity": 82, "duration": 150}, {"note": 0, "velocity": 0, "duration": 90}, {"note": 68, "velocity": 85, "duration": 168}, {"note": 0, "velocity": 0, "duration": 72}, {"note": 71, "velocity": 83, "duration": 362}, {"note": 0, "velocity": 0, "duration": 118}, {"note": 66, "velocity": 84, "duration": 83}, {"note": 64, "velocity": 82, "duration": 59}, {"note": 0, "velocity": 0, "duration": 61}, {"note": 61, "velocity": 85, "duration": 1208}, {"note": 0, "velocity": 0, "duration": 472}, {"note": 61, "velocity": 86, "duration": 70}, {"note": 68, "velocity": 83, "duration": 77}, {"note": 66, "velocity": 88, "duration": 230}, {"note": 0, "velocity": 0, "duration": 130}, {"note": 66, "velocity": 87, "duration": 62}, {"note": 66, "velocity": 88, "duration": 148}, {"note": 0, "velocity": 0, "duration": 92}, {"note": 68, "velocity": 92, "duration": 168}, {"note": 0, "velocity": 0, "duration": 72}, {"note": 78, "velocity": 90, "duration": 164}, {"note": 0, "velocity": 0, "duration": 76}, {"note": 78, "velocity": 82, "duration": 54}, {"note": 0, "velocity": 0, "duration": 66}, {"note": 78, "velocity": 83, "duration": 277}, {"note": 0, "velocity": 0, "duration": 83}, {"note": 73, "velocity": 84, "duration": 182}, {"note": 71, "velocity": 85, "duration": 1236}, {"note": 0, "velocity": 0, "duration": 204}, {"note": 71, "velocity": 88, "duration": 177}, {"note": 0, "velocity": 0, "duration": 63}, {"note": 73, "velocity": 85, "duration": 150}, {"note": 0, "velocity": 0, "duration": 90}, {"note": 80, "velocity": 97, "duration": 294}, {"note": 0, "velocity": 0, "duration": 66}, {"note": 78, "velocity": 92, "duration": 227}, {"note": 0, "velocity": 0, "duration": 133}, {"note": 76, "velocity": 87, "duration": 143}, {"note": 0, "velocity": 0, "duration": 97}, {"note": 76, "velocity": 87, "duration": 153}, {"note": 0, "velocity": 0, "duration": 87}, {"note": 68, "velocity": 92, "duration": 151}, {"note": 0, "velocity": 0, "duration": 89}, {"note": 73, "velocity": 88, "duration": 160}, {"note": 0, "velocity": 0, "duration": 80}, {"note": 75, "velocity": 86, "duration": 84}, {"note": 73, "velocity": 86, "duration": 58}, {"note": 0, "velocity": 0, "duration": 62}, {"note": 71, "velocity": 83, "duration": 1290}, {"note": 0, "velocity": 0, "duration": 150}, {"note": 71, "velocity": 88, "duration": 163}, {"note": 0, "velocity": 0, "duration": 77}, {"note": 73, "velocity": 85, "duration": 156}, {"note": 0, "velocity": 0, "duration": 84}, {"note": 76, "velocity": 85, "duration": 286}, {"note": 0, "velocity": 0, "duration": 74}, {"note": 73, "velocity": 87, "duration": 279}, {"note": 0, "velocity": 0, "duration": 81}, {"note": 73, "velocity": 85, "duration": 87}, {"note": 71, "velocity": 83, "duration": 66}, {"note": 68, "velocity": 86, "duration": 157}, {"note": 0, "velocity": 0, "duration": 83}, {"note": 71, "velocity": 84, "duration": 145}, {"note": 0, "velocity": 0, "duration": 95}, {"note": 71, "velocity": 85, "duration": 161}, {"note": 0, "velocity": 0, "duration": 79}, {"note": 68, "velocity": 83, "duration": 169}, {"note": 0, "velocity": 0, "duration": 71}, {"note": 66, "velocity": 85, "duration": 1237}, {"note": 0, "velocity": 0, "duration": 203}, {"note": 66, "velocity": 88, "duration": 175}, {"note": 0, "velocity": 0, "duration": 65}, {"note": 68, "velocity": 83, "duration": 167}, {"note": 0, "velocity": 0, "duration": 73}, {"note": 71, "velocity": 87, "duration": 262}, {"note": 0, "velocity": 0, "duration": 98}, {"note": 71, "velocity": 82, "duration": 76}, {"note": 71, "velocity": 86, "duration": 131}, {"note": 0, "velocity": 0, "duration": 109}, {"note": 71, "velocity": 82, "duration": 120}, {"note": 68, "velocity": 82, "duration": 120}, {"note": 68, "velocity": 85, "duration": 168}, {"note": 0, "velocity": 0, "duration": 72}, {"note": 71, "velocity": 83, "duration": 362}, {"note": 0, "velocity": 0, "duration": 118}, {"note": 66, "velocity": 84, "duration": 83}, {"note": 64, "velocity": 82, "duration": 59}, {"note": 0, "velocity": 0, "duration": 61}, {"note": 61, "velocity": 85, "duration": 1208}, {"note": 0, "velocity": 0, "duration": 232}, {"note": 61, "velocity": 86, "duration": 120}, {"note": 0, "velocity": 0, "duration": 120}, {"note": 68, "velocity": 83, "duration": 127}, {"note": 0, "velocity": 0, "duration": 113}, {"note": 66, "velocity": 88, "duration": 480}, {"note": 0, "velocity": 0, "duration": 240}, {"note": 68, "velocity": 88, "duration": 102}, {"note": 71, "velocity": 82, "duration": 80}, {"note": 68, "velocity": 90, "duration": 273}, {"note": 0, "velocity": 0, "duration": 87}, {"note": 66, "velocity": 85, "duration": 275}, {"note": 0, "velocity": 0, "duration": 85}, {"note": 61, "velocity": 86, "duration": 167}, {"note": 0, "velocity": 0, "duration": 73}, {"note": 64, "velocity": 85, "duration": 1845}, {"note": 0, "velocity": 0, "duration": 14955}, {"note": 64, "velocity": 90, "duration": 182}, {"note": 66, "velocity": 85, "duration": 201}, {"note": 68, "velocity": 86, "duration": 554}, {"note": 0, "velocity": 0, "duration": 166}, {"note": 66, "velocity": 87, "duration": 166}, {"note": 0, "velocity": 0, "duration": 74}, {"note": 68, "velocity": 83, "duration": 175}, {"note": 0, "velocity": 0, "duration": 65}, {"note": 71, "velocity": 86, "duration": 177}, {"note": 0, "velocity": 0, "duration": 63}, {"note": 76, "velocity": 92, "duration": 128}, {"note": 0, "velocity": 0, "duration": 112}, {"note": 73, "velocity": 84, "duration": 404}, {"note": 0, "velocity": 0, "duration": 76}, {"note": 71, "velocity": 87, "duration": 1041}, {"note": 0, "velocity": 0, "duration": 159}, {"note": 73, "velocity": 86, "duration": 171}, {"note": 0, "velocity": 0, "duration": 69}, {"note": 76, "velocity": 83, "duration": 138}, {"note": 0, "velocity": 0, "duration": 102}, {"note": 73, "velocity": 82, "duration": 587}, {"note": 0, "velocity": 0, "duration": 133}, {"note": 73, "velocity": 88, "duration": 73}, {"note": 71, "velocity": 84, "duration": 76}, {"note": 68, "velocity": 92, "duration": 171}, {"note": 0, "velocity": 0, "duration": 69}, {"note": 71, "velocity": 84, "duration": 147}, {"note": 0, "velocity": 0, "duration": 93}, {"note": 71, "velocity": 83, "duration": 168}, {"note": 0, "velocity": 0, "duration": 72}, {"note": 68, "velocity": 87, "duration": 186}, {"note": 66, "velocity": 85, "duration": 1020}, {"note": 0, "velocity": 0, "duration": 420}, {"note": 66, "velocity": 84, "duration": 185}, {"note": 68, "velocity": 82, "duration": 145}, {"note": 0, "velocity": 0, "duration": 95}, {"note": 71, "velocity": 84, "duration": 341}, {"note": 71, "velocity": 85, "duration": 80}, {"note": 71, "velocity": 85, "duration": 240}, {"note": 68, "velocity": 88, "duration": 240}, {"note": 66, "velocity": 88, "duration": 164}, {"note": 0, "velocity": 0, "duration": 76}, {"note": 68, "velocity": 86, "duration": 360}, {"note": 0, "velocity": 0, "duration": 120}, {"note": 66, "velocity": 82, "duration": 120}, {"note": 64, "velocity": 82, "duration": 120}, {"note": 61, "velocity": 80, "duration": 965}, {"note": 0, "velocity": 0, "duration": 475}, {"note": 61, "velocity": 92, "duration": 171}, {"note": 0, "velocity": 0, "duration": 69}, {"note": 68, "velocity": 88, "duration": 179}, {"note": 0, "velocity": 0, "duration": 61}, {"note": 66, "velocity": 83, "duration": 552}, {"note": 0, "velocity": 0, "duration": 168}, {"note": 66, "velocity": 85, "duration": 74}, {"note": 64, "velocity": 84, "duration": 70}, {"note": 66, "velocity": 86, "duration": 196}, {"note": 64, "velocity": 88, "duration": 58}, {"note": 0, "velocity": 0, "duration": 62}, {"note": 66, "velocity": 83, "duration": 297}, {"note": 0, "velocity": 0, "duration": 63}, {"note": 73, "velocity": 88, "duration": 186}, {"note": 71, "velocity": 83, "duration": 1251}, {"note": 0, "velocity": 0, "duration": 189}, {"note": 71, "velocity": 88, "duration": 177}, {"note": 0, "velocity": 0, "duration": 63}, {"note": 73, "velocity": 85, "duration": 150}, {"note": 0, "velocity": 0, "duration": 90}, {"note": 80, "velocity": 97, "duration": 294}, {"note": 0, "velocity": 0, "duration": 66}, {"note": 78, "velocity": 92, "duration": 227}, {"note": 0, "velocity": 0, "duration": 133}, {"note": 76, "velocity": 87, "duration": 143}, {"note": 0, "velocity": 0, "duration": 97}, {"note": 76, "velocity": 87, "duration": 153}, {"note": 0, "velocity": 0, "duration": 87}, {"note": 68, "velocity": 92, "duration": 151}, {"note": 0, "velocity": 0, "duration": 89}, {"note": 73, "velocity": 88, "duration": 160}, {"note": 0, "velocity": 0, "duration": 80}, {"note": 75, "velocity": 86, "duration": 84}, {"note": 73, "velocity": 86, "duration": 58}, {"note": 0, "velocity": 0, "duration": 62}, {"note": 71, "velocity": 83, "duration": 1290}, {"note": 0, "velocity": 0, "duration": 150}, {"note": 71, "velocity": 88, "duration": 163}, {"note": 0, "velocity": 0, "duration": 77}, {"note": 73, "velocity": 85, "duration": 156}, {"note": 0, "velocity": 0, "duration": 84}, {"note": 76, "velocity": 85, "duration": 286}, {"note": 0, "velocity": 0, "duration": 74}, {"note": 73, "velocity": 87, "duration": 279}, {"note": 0, "velocity": 0, "duration": 81}, {"note": 73, "velocity": 85, "duration": 87}, {"note": 71, "velocity": 83, "duration": 66}, {"note": 68, "velocity": 86, "duration": 157}, {"note": 0, "velocity": 0, "duration": 83}, {"note": 71, "velocity": 84, "duration": 145}, {"note": 0, "velocity": 0, "duration": 95}, {"note": 71, "velocity": 85, "duration": 161}, {"note": 0, "velocity": 0, "duration": 79}, {"note": 68, "velocity": 83, "duration": 169}, {"note": 0, "velocity": 0, "duration": 71}, {"note": 66, "velocity": 85, "duration": 1237}, {"note": 0, "velocity": 0, "duration": 203}, {"note": 66, "velocity": 88, "duration": 175}, {"note": 0, "velocity": 0, "duration": 65}, {"note": 68, "velocity": 83, "duration": 167}, {"note": 0, "velocity": 0, "duration": 73}, {"note": 71, "velocity": 87, "duration": 262}, {"note": 0, "velocity": 0, "duration": 98}, {"note": 71, "velocity": 82, "duration": 76}, {"note": 71, "velocity": 86, "duration": 131}, {"note": 0, "velocity": 0, "duration": 109}, {"note": 68, "velocity": 82, "duration": 150}, {"note": 0, "velocity": 0, "duration": 90}, {"note": 68, "velocity": 85, "duration": 168}, {"note": 0, "velocity": 0, "duration": 72}, {"note": 71, "velocity": 83, "duration": 362}, {"note": 0, "velocity": 0, "duration": 118}, {"note": 66, "velocity": 84, "duration": 83}, {"note": 64, "velocity": 82, "duration": 59}, {"note": 0, "velocity": 0, "duration": 61}, {"note": 61, "velocity": 85, "duration": 1208}, {"note": 0, "velocity": 0, "duration": 472}, {"note": 61, "velocity": 86, "duration": 70}, {"note": 68, "velocity": 83, "duration": 77}, {"note": 66, "velocity": 88, "duration": 230}, {"note": 0, "velocity": 0, "duration": 130}, {"note": 66, "velocity": 87, "duration": 62}, {"note": 66, "velocity": 88, "duration": 148}, {"note": 0, "velocity": 0, "duration": 92}, {"note": 68, "velocity": 92, "duration": 168}, {"note": 0, "velocity": 0, "duration": 72}, {"note": 78, "velocity": 90, "duration": 164}, {"note": 0, "velocity": 0, "duration": 76}, {"note": 78, "velocity": 82, "duration": 54}, {"note": 0, "velocity": 0, "duration": 66}, {"note": 78, "velocity": 83, "duration": 277}, {"note": 0, "velocity": 0, "duration": 83}, {"note": 73, "velocity": 84, "duration": 182}, {"note": 71, "velocity": 85, "duration": 1236}, {"note": 0, "velocity": 0, "duration": 204}, {"note": 71, "velocity": 88, "duration": 177}, {"note": 0, "velocity": 0, "duration": 63}, {"note": 73, "velocity": 85, "duration": 150}, {"note": 0, "velocity": 0, "duration": 90}, {"note": 80, "velocity": 97, "duration": 294}, {"note": 0, "velocity": 0, "duration": 66}, {"note": 78, "velocity": 92, "duration": 227}, {"note": 0, "velocity": 0, "duration": 133}, {"note": 76, "velocity": 87, "duration": 143}, {"note": 0, "velocity": 0, "duration": 97}, {"note": 76, "velocity": 87, "duration": 153}, {"note": 0, "velocity": 0, "duration": 87}, {"note": 68, "velocity": 92, "duration": 151}, {"note": 0, "velocity": 0, "duration": 89}, {"note": 73, "velocity": 88, "duration": 160}, {"note": 0, "velocity": 0, "duration": 80}, {"note": 75, "velocity": 86, "duration": 84}, {"note": 73, "velocity": 86, "duration": 58}, {"note": 0, "velocity": 0, "duration": 62}, {"note": 71, "velocity": 83, "duration": 1290}, {"note": 0, "velocity": 0, "duration": 150}, {"note": 71, "velocity": 88, "duration": 163}, {"note": 0, "velocity": 0, "duration": 77}, {"note": 73, "velocity": 85, "duration": 156}, {"note": 0, "velocity": 0, "duration": 84}, {"note": 76, "velocity": 85, "duration": 286}, {"note": 0, "velocity": 0, "duration": 74}, {"note": 73, "velocity": 87, "duration": 279}, {"note": 0, "velocity": 0, "duration": 81}, {"note": 73, "velocity": 85, "duration": 87}, {"note": 71, "velocity": 83, "duration": 66}, {"note": 68, "velocity": 86, "duration": 157}, {"note": 0, "velocity": 0, "duration": 83}, {"note": 71, "velocity": 84, "duration": 145}, {"note": 0, "velocity": 0, "duration": 95}, {"note": 71, "velocity": 85, "duration": 161}, {"note": 0, "velocity": 0, "duration": 79}, {"note": 68, "velocity": 83, "duration": 169}, {"note": 0, "velocity": 0, "duration": 71}, {"note": 66, "velocity": 85, "duration": 1237}, {"note": 0, "velocity": 0, "duration": 203}, {"note": 66, "velocity": 88, "duration": 175}, {"note": 0, "velocity": 0, "duration": 65}, {"note": 68, "velocity": 83, "duration": 167}, {"note": 0, "velocity": 0, "duration": 73}, {"note": 71, "velocity": 87, "duration": 262}, {"note": 0, "velocity": 0, "duration": 98}, {"note": 71, "velocity": 82, "duration": 76}, {"note": 71, "velocity": 86, "duration": 131}, {"note": 0, "velocity": 0, "duration": 109}, {"note": 71, "velocity": 82, "duration": 120}, {"note": 68, "velocity": 82, "duration": 120}, {"note": 68, "velocity": 85, "duration": 168}, {"note": 0, "velocity": 0, "duration": 72}, {"note": 71, "velocity": 83, "duration": 362}, {"note": 0, "velocity": 0, "duration": 118}, {"note": 66, "velocity": 84, "duration": 83}, {"note": 64, "velocity": 82, "duration": 59}, {"note": 0, "velocity": 0, "duration": 61}, {"note": 61, "velocity": 85, "duration": 1208}, {"note": 0, "velocity": 0, "duration": 232}, {"note": 61, "velocity": 86, "duration": 120}, {"note": 0, "velocity": 0, "duration": 120}, {"note": 68, "velocity": 83, "duration": 127}, {"note": 0, "velocity": 0, "duration": 113}, {"note": 66, "velocity": 88, "duration": 480}, {"note": 0, "velocity": 0, "duration": 240}, {"note": 68, "velocity": 88, "duration": 102}, {"note": 71, "velocity": 82, "duration": 80}, {"note": 68, "velocity": 90, "duration": 273}, {"note": 0, "velocity": 0, "duration": 87}, {"note": 66, "velocity": 85, "duration": 275}, {"note": 0, "velocity": 0, "duration": 85}, {"note": 61, "velocity": 86, "duration": 167}, {"note": 0, "velocity": 0, "duration": 73}, {"note": 64, "velocity": 85, "duration": 1344}, {"note": 0, "velocity": 0, "duration": 96}, {"note": 71, "velocity": 88, "duration": 177}, {"note": 0, "velocity": 0, "duration": 63}, {"note": 73, "velocity": 85, "duration": 150}, {"note": 0, "velocity": 0, "duration": 90}, {"note": 80, "velocity": 97, "duration": 294}, {"note": 0, "velocity": 0, "duration": 66}, {"note": 78, "velocity": 92, "duration": 227}, {"note": 0, "velocity": 0, "duration": 133}, {"note": 76, "velocity": 87, "duration": 143}, {"note": 0, "velocity": 0, "duration": 97}, {"note": 76, "velocity": 87, "duration": 153}, {"note": 0, "velocity": 0, "duration": 87}, {"note": 68, "velocity": 92, "duration": 151}, {"note": 0, "velocity": 0, "duration": 89}, {"note": 73, "velocity": 88, "duration": 160}, {"note": 0, "velocity": 0, "duration": 80}, {"note": 75, "velocity": 86, "duration": 84}, {"note": 73, "velocity": 86, "duration": 58}, {"note": 0, "velocity": 0, "duration": 62}, {"note": 71, "velocity": 83, "duration": 1290}, {"note": 0, "velocity": 0, "duration": 150}, {"note": 71, "velocity": 88, "duration": 163}, {"note": 0, "velocity": 0, "duration": 77}, {"note": 73, "velocity": 85, "duration": 156}, {"note": 0, "velocity": 0, "duration": 84}, {"note": 76, "velocity": 85, "duration": 286}, {"note": 0, "velocity": 0, "duration": 74}, {"note": 73, "velocity": 87, "duration": 279}, {"note": 0, "velocity": 0, "duration": 81}, {"note": 73, "velocity": 85, "duration": 87}, {"note": 71, "velocity": 83, "duration": 66}, {"note": 68, "velocity": 86, "duration": 157}, {"note": 0, "velocity": 0, "duration": 83}, {"note": 71, "velocity": 84, "duration": 145}, {"note": 0, "velocity": 0, "duration": 95}, {"note": 71, "velocity": 85, "duration": 161}, {"note": 0, "velocity": 0, "duration": 79}, {"note": 68, "velocity": 83, "duration": 169}, {"note": 0, "velocity": 0, "duration": 71}, {"note": 66, "velocity": 85, "duration": 1237}, {"note": 0, "velocity": 0, "duration": 203}, {"note": 66, "velocity": 88, "duration": 175}, {"note": 0, "velocity": 0, "duration": 65}, {"note": 68, "velocity": 83, "duration": 167}, {"note": 0, "velocity": 0, "duration": 73}, {"note": 71, "velocity": 87, "duration": 262}, {"note": 0, "velocity": 0, "duration": 98}, {"note": 71, "velocity": 82, "duration": 76}, {"note": 71, "velocity": 86, "duration": 131}, {"note": 0, "velocity": 0, "duration": 109}, {"note": 68, "velocity": 82, "duration": 150}, {"note": 0, "velocity": 0, "duration": 90}, {"note": 68, "velocity": 85, "duration": 168}, {"note": 0, "velocity": 0, "duration": 72}, {"note": 71, "velocity": 83, "duration": 362}, {"note": 0, "velocity": 0, "duration": 118}, {"note": 66, "velocity": 84, "duration": 83}, {"note": 64, "velocity": 82, "duration": 59}, {"note": 0, "velocity": 0, "duration": 61}, {"note": 61, "velocity": 85, "duration": 1208}, {"note": 0, "velocity": 0, "duration": 472}, {"note": 61, "velocity": 86, "duration": 70}, {"note": 68, "velocity": 83, "duration": 77}, {"note": 66, "velocity": 88, "duration": 230}, {"note": 0, "velocity": 0, "duration": 130}, {"note": 66, "velocity": 87, "duration": 62}, {"note": 66, "velocity": 88, "duration": 148}, {"note": 0, "velocity": 0, "duration": 92}, {"note": 68, "velocity": 92, "duration": 168}, {"note": 0, "velocity": 0, "duration": 72}, {"note": 78, "velocity": 90, "duration": 164}, {"note": 0, "velocity": 0, "duration": 76}, {"note": 78, "velocity": 82, "duration": 54}, {"note": 0, "velocity": 0, "duration": 66}, {"note": 78, "velocity": 83, "duration": 277}, {"note": 0, "velocity": 0, "duration": 83}, {"note": 73, "velocity": 84, "duration": 182}, {"note": 71, "velocity": 85, "duration": 1236}, {"note": 0, "velocity": 0, "duration": 204}, {"note": 71, "velocity": 88, "duration": 177}, {"note": 0, "velocity": 0, "duration": 63}, {"note": 73, "velocity": 85, "duration": 150}, {"note": 0, "velocity": 0, "duration": 90}, {"note": 80, "velocity": 97, "duration": 294}, {"note": 0, "velocity": 0, "duration": 66}, {"note": 78, "velocity": 92, "duration": 227}, {"note": 0, "velocity": 0, "duration": 133}, {"note": 76, "velocity": 87, "duration": 143}, {"note": 0, "velocity": 0, "duration": 97}, {"note": 76, "velocity": 87, "duration": 153}, {"note": 0, "velocity": 0, "duration": 87}, {"note": 68, "velocity": 92, "duration": 151}, {"note": 0, "velocity": 0, "duration": 89}, {"note": 73, "velocity": 88, "duration": 160}, {"note": 0, "velocity": 0, "duration": 80}, {"note": 75, "velocity": 86, "duration": 84}, {"note": 73, "velocity": 86, "duration": 58}, {"note": 0, "velocity": 0, "duration": 62}, {"note": 71, "velocity": 83, "duration": 1290}, {"note": 0, "velocity": 0, "duration": 150}, {"note": 71, "velocity": 88, "duration": 163}, {"note": 0, "velocity": 0, "duration": 77}, {"note": 73, "velocity": 85, "duration": 156}, {"note": 0, "velocity": 0, "duration": 84}, {"note": 76, "velocity": 85, "duration": 286}, {"note": 0, "velocity": 0, "duration": 74}, {"note": 73, "velocity": 87, "duration": 279}, {"note": 0, "velocity": 0, "duration": 81}, {"note": 73, "velocity": 85, "duration": 87}, {"note": 71, "velocity": 83, "duration": 66}, {"note": 68, "velocity": 86, "duration": 157}, {"note": 0, "velocity": 0, "duration": 83}, {"note": 71, "velocity": 84, "duration": 145}, {"note": 0, "velocity": 0, "duration": 95}, {"note": 71, "velocity": 85, "duration": 161}, {"note": 0, "velocity": 0, "duration": 79}, {"note": 68, "velocity": 83, "duration": 169}, {"note": 0, "velocity": 0, "duration": 71}, {"note": 66, "velocity": 85, "duration": 1237}, {"note": 0, "velocity": 0, "duration": 203}, {"note": 66, "velocity": 88, "duration": 175}, {"note": 0, "velocity": 0, "duration": 65}, {"note": 68, "velocity": 83, "duration": 167}, {"note": 0, "velocity": 0, "duration": 73}, {"note": 71, "velocity": 87, "duration": 262}, {"note": 0, "velocity": 0, "duration": 98}, {"note": 71, "velocity": 82, "duration": 76}, {"note": 71, "velocity": 86, "duration": 131}, {"note": 0, "velocity": 0, "duration": 109}, {"note": 71, "velocity": 82, "duration": 120}, {"note": 68, "velocity": 82, "duration": 120}, {"note": 68, "velocity": 85, "duration": 168}, {"note": 0, "velocity": 0, "duration": 72}, {"note": 71, "velocity": 83, "duration": 362}, {"note": 0, "velocity": 0, "duration": 118}, {"note": 66, "velocity": 84, "duration": 83}, {"note": 64, "velocity": 82, "duration": 59}, {"note": 0, "velocity": 0, "duration": 61}, {"note": 61, "velocity": 85, "duration": 1208}, {"note": 0, "velocity": 0, "duration": 232}, {"note": 61, "velocity": 86, "duration": 120}, {"note": 0, "velocity": 0, "duration": 120}, {"note": 68, "velocity": 83, "duration": 127}, {"note": 0, "velocity": 0, "duration": 113}, {"note": 66, "velocity": 88, "duration": 480}, {"note": 0, "velocity": 0, "duration": 240}, {"note": 68, "velocity": 88, "duration": 102}, {"note": 71, "velocity": 82, "duration": 80}, {"note": 68, "velocity": 90, "duration": 273}, {"note": 0, "velocity": 0, "duration": 87}, {"note": 66, "velocity": 85, "duration": 275}, {"note": 0, "velocity": 0, "duration": 85}, {"note": 61, "velocity": 86, "duration": 167}, {"note": 0, "velocity": 0, "duration": 73}, {"note": 64, "velocity": 85, "duration": 1845}]]