[[{"note": 72, "velocity": 94, "duration": 153}, {"note": 0, "velocity": 0, "duration": 87}, {"note": 71, "velocity": 99, "duration": 59}, {"note": 0, "velocity": 0, "duration": 61}, {"note": 72, "velocity": 99, "duration": 992}, {"note": 0, "velocity": 0, "duration": 808}, {"note": 72, "velocity": 93, "duration": 60}, {"note": 74, "velocity": 93, "duration": 58}, {"note": 0, "velocity": 0, "duration": 62}, {"note": 71, "velocity": 89, "duration": 150}, {"note": 0, "velocity": 0, "duration": 90}, {"note": 67, "velocity": 88, "duration": 67}, {"note": 71, "velocity": 89, "duration": 772}, {"note": 0, "velocity": 0, "duration": 548}, {"note": 69, "velocity": 87, "duration": 86}, {"note": 65, "velocity": 84, "duration": 78}, {"note": 69, "velocity": 90, "duration": 678}, {"note": 0, "velocity": 0, "duration": 762}, {"note": 69, "velocity": 90, "duration": 82}, {"note": 72, "velocity": 93, "duration": 249}, {"note": 0, "velocity": 0, "duration": 111}, {"note": 67, "velocity": 86, "duration": 131}, {"note": 0, "velocity": 0, "duration": 109}, {"note": 60, "velocity": 86, "duration": 89}, {"note": 62, "velocity": 89, "duration": 893}, {"note": 0, "velocity": 0, "duration": 187}, {"note": 62, "velocity": 90, "duration": 167}, {"note": 0, "velocity": 0, "duration": 73}, {"note": 64, "velocity": 89, "duration": 85}, {"note": 62, "velocity": 88, "duration": 75}, {"note": 64, "velocity": 92, "duration": 78}, {"note": 0, "velocity": 0, "duration": 162}, {"note": 64, "velocity": 90, "duration": 762}, {"note": 0, "velocity": 0, "duration": 318}, {"note": 64, "velocity": 92, "duration": 73}, {"note": 74, "velocity": 95, "duration": 150}, {"note": 0, "velocity": 0, "duration": 90}, {"note": 72, "velocity": 88, "duration": 83}, {"note": 71, "velocity": 88, "duration": 73}, {"note": 72, "velocity": 89, "duration": 880}, {"note": 0, "velocity": 0, "duration": 800}, {"note": 74, "velocity": 93, "duration": 73}, {"note": 76, "velocity": 88, "duration": 75}, {"note": 74, "velocity": 93, "duration": 174}, {"note": 0, "velocity": 0, "duration": 66}, {"note": 72, "velocity": 91, "duration": 764}, {"note": 0, "velocity": 0, "duration": 196}, {"note": 69, "velocity": 90, "duration": 78}, {"note": 71, "velocity": 89, "duration": 238}, {"note": 72, "velocity": 89, "duration": 163}, {"note": 0, "velocity": 0, "duration": 77}, {"note": 72, "velocity": 89, "duration": 81}, {"note": 67, "velocity": 88, "duration": 887}, {"note": 0, "velocity": 0, "duration": 553}, {"note": 72, "velocity": 94, "duration": 153}, {"note": 0, "velocity": 0, "duration": 87}, {"note": 71, "velocity": 99, "duration": 59}, {"note": 0, "velocity": 0, "duration": 61}, {"note": 72, "velocity": 99, "duration": 992}, {"note": 0, "velocity": 0, "duration": 808}, {"note": 72, "velocity": 93, "duration": 60}, {"note": 74, "velocity": 93, "duration": 58}, {"note": 0, "velocity": 0, "duration": 62}, {"note": 76, "velocity": 92, "duration": 253}, {"note": 0, "velocity": 0, "duration": 107}, {"note": 71, "velocity": 90, "duration": 73}, {"note": 71, "velocity": 90, "duration": 191}, {"note": 69, "velocity": 89, "duration": 91}, {"note": 67, "velocity": 89, "duration": 96}, {"note": 71, "velocity": 89, "duration": 487}, {"note": 0, "velocity": 0, "duration": 233}, {"note": 69, "velocity": 87, "duration": 86}, {"note": 65, "velocity": 84, "duration": 78}, {"note": 69, "velocity": 90, "duration": 678}, {"note": 0, "velocity": 0, "duration": 1002}, {"note": 69, "velocity": 90, "duration": 102}, {"note": 72, "velocity": 90, "duration": 86}, {"note": 67, "velocity": 89, "duration": 133}, {"note": 0, "velocity": 0, "duration": 107}, {"note": 60, "velocity": 89, "duration": 79}, {"note": 62, "velocity": 88, "duration": 165}, {"note": 0, "velocity": 0, "duration": 75}, {"note": 64, "velocity": 90, "duration": 163}, {"note": 0, "velocity": 0, "duration": 77}, {"note": 62, "velocity": 90, "duration": 507}, {"note": 0, "velocity": 0, "duration": 93}, {"note": 62, "velocity": 90, "duration": 167}, {"note": 0, "velocity": 0, "duration": 73}, {"note": 64, "velocity": 89, "duration": 85}, {"note": 62, "velocity": 88, "duration": 75}, {"note": 62, "velocity": 92, "duration": 78}, {"note": 0, "velocity": 0, "duration": 162}, {"note": 64, "velocity": 90, "duration": 762}, {"note": 0, "velocity": 0, "duration": 318}, {"note": 64, "velocity": 92, "duration": 73}, {"note": 74, "velocity": 95, "duration": 150}, {"note": 0, "velocity": 0, "duration": 90}, {"note": 72, "velocity": 88, "duration": 83}, {"note": 71, "velocity": 88, "duration": 73}, {"note": 71, "velocity": 88, "duration": 118}, {"note": 0, "velocity": 0, "duration": 122}, {"note": 72, "velocity": 89, "duration": 880}, {"note": 0, "velocity": 0, "duration": 320}, {"note": 72, "velocity": 92, "duration": 175}, {"note": 0, "velocity": 0, "duration": 65}, {"note": 74, "velocity": 93, "duration": 73}, {"note": 76, "velocity": 88, "duration": 75}, {"note": 74, "velocity": 93, "duration": 174}, {"note": 0, "velocity": 0, "duration": 66}, {"note": 72, "velocity": 91, "duration": 764}, {"note": 0, "velocity": 0, "duration": 316}, {"note": 69, "velocity": 92, "duration": 40}, {"note": 0, "velocity": 0, "duration": 80}, {"note": 69, "velocity": 89, "duration": 196}, {"note": 71, "velocity": 91, "duration": 65}, {"note": 72, "velocity": 90, "duration": 177}, {"note": 0, "velocity": 0, "duration": 63}, {"note": 74, "velocity": 93, "duration": 813}, {"note": 0, "velocity": 0, "duration": 507}, {"note": 72, "velocity": 94, "duration": 175}, {"note": 0, "velocity": 0, "duration": 65}, {"note": 74, "velocity": 97, "duration": 72}, {"note": 76, "velocity": 94, "duration": 942}, {"note": 0, "velocity": 0, "duration": 618}, {"note": 72, "velocity": 94, "duration": 175}, {"note": 0, "velocity": 0, "duration": 65}, {"note": 74, "velocity": 97, "duration": 72}, {"note": 76, "velocity": 94, "duration": 942}, {"note": 0, "velocity": 0, "duration": 858}, {"note": 79, "velocity": 95, "duration": 63}, {"note": 79, "velocity": 93, "duration": 60}, {"note": 79, "velocity": 95, "duration": 168}, {"note": 0, "velocity": 0, "duration": 72}, {"note": 77, "velocity": 90, "duration": 63}, {"note": 77, "velocity": 92, "duration": 441}, {"note": 0, "velocity": 0, "duration": 159}, {"note": 77, "velocity": 99, "duration": 169}, {"note": 0, "velocity": 0, "duration": 71}, {"note": 76, "velocity": 95, "duration": 184}, {"note": 74, "velocity": 99, "duration": 160}, {"note": 0, "velocity": 0, "duration": 80}, {"note": 72, "velocity": 93, "duration": 86}, {"note": 74, "velocity": 99, "duration": 717}, {"note": 0, "velocity": 0, "duration": 843}, {"note": 74, "velocity": 99, "duration": 215}, {"note": 72, "velocity": 92, "duration": 98}, {"note": 76, "velocity": 90, "duration": 937}, {"note": 0, "velocity": 0, "duration": 623}, {"note": 76, "velocity": 97, "duration": 242}, {"note": 83, "velocity": 99, "duration": 490}, {"note": 79, "velocity": 84, "duration": 865}, {"note": 0, "velocity": 0, "duration": 575}, {"note": 79, "velocity": 92, "duration": 70}, {"note": 79, "velocity": 92, "duration": 66}, {"note": 79, "velocity": 97, "duration": 185}, {"note": 77, "velocity": 88, "duration": 58}, {"note": 0, "velocity": 0, "duration": 62}, {"note": 77, "velocity": 95, "duration": 532}, {"note": 0, "velocity": 0, "duration": 68}, {"note": 77, "velocity": 97, "duration": 327}, {"note": 76, "velocity": 92, "duration": 184}, {"note": 74, "velocity": 99, "duration": 195}, {"note": 72, "velocity": 87, "duration": 100}, {"note": 74, "velocity": 99, "duration": 918}, {"note": 0, "velocity": 0, "duration": 282}, {"note": 67, "velocity": 93, "duration": 155}, {"note": 0, "velocity": 0, "duration": 85}, {"note": 76, "velocity": 95, "duration": 175}, {"note": 0, "velocity": 0, "duration": 65}, {"note": 71, "velocity": 93, "duration": 94}, {"note": 74, "velocity": 104, "duration": 331}, {"note": 72, "velocity": 88, "duration": 1306}, {"note": 0, "velocity": 0, "duration": 5654}, {"note": 72, "velocity": 94, "duration": 153}, {"note": 0, "velocity": 0, "duration": 87}, {"note": 71, "velocity": 99, "duration": 59}, {"note": 0, "velocity": 0, "duration": 61}, {"note": 72, "velocity": 99, "duration": 992}, {"note": 0, "velocity": 0, "duration": 808}, {"note": 72, "velocity": 93, "duration": 60}, {"note": 74, "velocity": 93, "duration": 58}, {"note": 0, "velocity": 0, "duration": 62}, {"note": 76, "velocity": 92, "duration": 253}, {"note": 0, "velocity": 0, "duration": 107}, {"note": 71, "velocity": 90, "duration": 73}, {"note": 71, "velocity": 90, "duration": 191}, {"note": 69, "velocity": 89, "duration": 91}, {"note": 67, "velocity": 89, "duration": 96}, {"note": 71, "velocity": 89, "duration": 487}, {"note": 0, "velocity": 0, "duration": 233}, {"note": 69, "velocity": 87, "duration": 86}, {"note": 65, "velocity": 84, "duration": 78}, {"note": 69, "velocity": 90, "duration": 678}, {"note": 0, "velocity": 0, "duration": 1002}, {"note": 69, "velocity": 90, "duration": 102}, {"note": 72, "velocity": 90, "duration": 86}, {"note": 67, "velocity": 89, "duration": 133}, {"note": 0, "velocity": 0, "duration": 107}, {"note": 60, "velocity": 89, "duration": 79}, {"note": 62, "velocity": 88, "duration": 165}, {"note": 0, "velocity": 0, "duration": 75}, {"note": 64, "velocity": 90, "duration": 163}, {"note": 0, "velocity": 0, "duration": 77}, {"note": 62, "velocity": 90, "duration": 507}, {"note": 0, "velocity": 0, "duration": 93}, {"note": 62, "velocity": 90, "duration": 167}, {"note": 0, "velocity": 0, "duration": 73}, {"note": 64, "velocity": 89, "duration": 85}, {"note": 62, "velocity": 88, "duration": 75}, {"note": 62, "velocity": 92, "duration": 78}, {"note": 0, "velocity": 0, "duration": 162}, {"note": 64, "velocity": 90, "duration": 762}, {"note": 0, "velocity": 0, "duration": 318}, {"note": 64, "velocity": 92, "duration": 73}, {"note": 74, "velocity": 95, "duration": 150}, {"note": 0, "velocity": 0, "duration": 90}, {"note": 72, "velocity": 88, "duration": 83}, {"note": 71, "velocity": 88, "duration": 73}, {"note": 71, "velocity": 88, "duration": 118}, {"note": 0, "velocity": 0, "duration": 122}, {"note": 72, "velocity": 89, "duration": 880}, {"note": 0, "velocity": 0, "duration": 320}, {"note": 72, "velocity": 92, "duration": 175}, {"note": 0, "velocity": 0, "duration": 65}, {"note": 74, "velocity": 93, "duration": 73}, {"note": 76, "velocity": 88, "duration": 75}, {"note": 74, "velocity": 93, "duration": 174}, {"note": 0, "velocity": 0, "duration": 66}, {"note": 72, "velocity": 91, "duration": 764}, {"note": 0, "velocity": 0, "duration": 316}, {"note": 69, "velocity": 92, "duration": 40}, {"note": 0, "velocity": 0, "duration": 80}, {"note": 69, "velocity": 89, "duration": 196}, {"note": 71, "velocity": 91, "duration": 65}, {"note": 72, "velocity": 90, "duration": 177}, {"note": 0, "velocity": 0, "duration": 63}, {"note": 74, "velocity": 93, "duration": 813}, {"note": 0, "velocity": 0, "duration": 507}, {"note": 72, "velocity": 94, "duration": 175}, {"note": 0, "velocity": 0, "duration": 65}, {"note": 74, "velocity": 97, "duration": 72}, {"note": 76, "velocity": 94, "duration": 942}, {"note": 0, "velocity": 0, "duration": 618}, {"note": 72, "velocity": 94, "duration": 175}, {"note": 0, "velocity": 0, "duration": 65}, {"note": 74, "velocity": 97, "duration": 72}, {"note": 76, "velocity": 94, "duration": 942}, {"note": 0, "velocity": 0, "duration": 858}, {"note": 79, "velocity": 95, "duration": 63}, {"note": 79, "velocity": 93, "duration": 60}, {"note": 79, "velocity": 95, "duration": 168}, {"note": 0, "velocity": 0, "duration": 72}, {"note": 77, "velocity": 90, "duration": 63}, {"note": 77, "velocity": 92, "duration": 441}, {"note": 0, "velocity": 0, "duration": 159}, {"note": 77, "velocity": 99, "duration": 169}, {"note": 0, "velocity": 0, "duration": 71}, {"note": 76, "velocity": 95, "duration": 184}, {"note": 74, "velocity": 99, "duration": 160}, {"note": 0, "velocity": 0, "duration": 80}, {"note": 72, "velocity": 93, "duration": 86}, {"note": 74, "velocity": 99, "duration": 717}, {"note": 0, "velocity": 0, "duration": 843}, {"note": 74, "velocity": 99, "duration": 215}, {"note": 72, "velocity": 92, "duration": 98}, {"note": 76, "velocity": 90, "duration": 937}, {"note": 0, "velocity": 0, "duration": 623}, {"note": 76, "velocity": 97, "duration": 242}, {"note": 83, "velocity": 99, "duration": 490}, {"note": 79, "velocity": 84, "duration": 865}, {"note": 0, "velocity": 0, "duration": 575}, {"note": 79, "velocity": 92, "duration": 70}, {"note": 79, "velocity": 92, "duration": 66}, {"note": 79, "velocity": 97, "duration": 185}, {"note": 77, "velocity": 88, "duration": 58}, {"note": 0, "velocity": 0, "duration": 62}, {"note": 77, "velocity": 95, "duration": 532}, {"note": 0, "velocity": 0, "duration": 68}, {"note": 77, "velocity": 97, "duration": 327}, {"note": 76, "velocity": 92, "duration": 184}, {"note": 74, "velocity": 99, "duration": 195}, {"note": 72, "velocity": 87, "duration": 100}, {"note": 74, "velocity": 99, "duration": 918}, {"note": 0, "velocity": 0, "duration": 522}, {"note": 72, "velocity": 94, "duration": 175}, {"note": 0, "velocity": 0, "duration": 65}, {"note": 74, "velocity": 97, "duration": 72}, {"note": 76, "velocity": 94, "duration": 942}, {"note": 0, "velocity": 0, "duration": 618}, {"note": 72, "velocity": 94, "duration": 175}, {"note": 0, "velocity": 0, "duration": 65}, {"note": 74, "velocity": 97, "duration": 72}, {"note": 76, "velocity": 94, "duration": 942}, {"note": 0, "velocity": 0, "duration": 858}, {"note": 79, "velocity": 95, "duration": 63}, {"note": 79, "velocity": 93, "duration": 60}, {"note": 79, "velocity": 95, "duration": 168}, {"note": 0, "velocity": 0, "duration": 72}, {"note": 77, "velocity": 90, "duration": 63}, {"note": 77, "velocity": 92, "duration": 441}, {"note": 0, "velocity": 0, "duration": 159}, {"note": 77, "velocity": 99, "duration": 169}, {"note": 0, "velocity": 0, "duration": 71}, {"note": 76, "velocity": 95, "duration": 184}, {"note": 74, "velocity": 99, "duration": 160}, {"note": 0, "velocity": 0, "duration": 80}, {"note": 72, "velocity": 93, "duration": 86}, {"note": 74, "velocity": 99, "duration": 717}, {"note": 0, "velocity": 0, "duration": 843}, {"note": 74, "velocity": 99, "duration": 215}, {"note": 72, "velocity": 92, "duration": 98}, {"note": 76, "velocity": 90, "duration": 937}, {"note": 0, "velocity": 0, "duration": 623}, {"note": 76, "velocity": 97, "duration": 242}, {"note": 83, "velocity": 99, "duration": 490}, {"note": 79, "velocity": 84, "duration": 865}, {"note": 0, "velocity": 0, "duration": 575}, {"note": 79, "velocity": 92, "duration": 70}, {"note": 79, "velocity": 92, "duration": 66}, {"note": 79, "velocity": 97, "duration": 185}, {"note": 77, "velocity": 88, "duration": 58}, {"note": 0, "velocity": 0, "duration": 62}, {"note": 77, "velocity": 95, "duration": 532}, {"note": 0, "velocity": 0, "duration": 68}, {"note": 77, "velocity": 97, "duration": 327}, {"note": 76, "velocity": 92, "duration": 184}, {"note": 74, "velocity": 99, "duration": 195}, {"note": 72, "velocity": 87, "duration": 100}, {"note": 74, "velocity": 99, "duration": 918}, {"note": 0, "velocity": 0, "duration": 282}, {"note": 67, "velocity": 93, "duration": 155}, {"note": 0, "velocity": 0, "duration": 85}, {"note": 76, "velocity": 95, "duration": 175}, {"note": 0, "velocity": 0, "duration": 65}, {"note": 71, "velocity": 93, "duration": 94}, {"note": 74, "velocity": 104, "duration": 331}, {"note": 72, "velocity": 88, "duration": 1306}]]