[[{"note": 72, "velocity": 94, "duration": 940}, {"note": 0, "velocity": 0, "duration": 260}, {"note": 67, "velocity": 87, "duration": 70}, {"note": 67, "velocity": 93, "duration": 125}, {"note": 79, "velocity": 97, "duration": 84}, {"note": 76, "velocity": 92, "duration": 82}, {"note": 74, "velocity": 93, "duration": 87}, {"note": 72, "velocity": 92, "duration": 127}, {"note": 71, "velocity": 93, "duration": 898}, {"note": 0, "velocity": 0, "duration": 302}, {"note": 72, "velocity": 93, "duration": 112}, {"note": 79, "velocity": 93, "duration": 68}, {"note": 79, "velocity": 93, "duration": 68}, {"note": 79, "velocity": 93, "duration": 72}, {"note": 79, "velocity": 98, "duration": 73}, {"note": 72, "velocity": 93, "duration": 95}, {"note": 69, "velocity": 93, "duration": 877}, {"note": 0, "velocity": 0, "duration": 323}, {"note": 69, "velocity": 96, "duration": 100}, {"note": 72, "velocity": 96, "duration": 66}, {"note": 72, "velocity": 94, "duration": 70}, {"note": 72, "velocity": 88, "duration": 52}, {"note": 0, "velocity": 0, "duration": 68}, {"note": 72, "velocity": 91, "duration": 98}, {"note": 69, "velocity": 96, "duration": 84}, {"note": 76, "velocity": 93, "duration": 719}, {"note": 74, "velocity": 103, "duration": 60}, {"note": 76, "velocity": 98, "duration": 78}, {"note": 74, "velocity": 101, "duration": 68}, {"note": 72, "velocity": 92, "duration": 72}, {"note": 67, "velocity": 92, "duration": 640}, {"note": 0, "velocity": 0, "duration": 80}, {"note": 72, "velocity": 98, "duration": 546}, {"note": 0, "velocity": 0, "duration": 654}, {"note": 67, "velocity": 98, "duration": 55}, {"note": 0, "velocity": 0, "duration": 65}, {"note": 72, "velocity": 99, "duration": 80}, {"note": 79, "velocity": 96, "duration": 63}, {"note": 76, "velocity": 94, "duration": 72}, {"note": 74, "velocity": 94, "duration": 87}, {"note": 72, "velocity": 92, "duration": 58}, {"note": 0, "velocity": 0, "duration": 62}, {"note": 79, "velocity": 94, "duration": 933}, {"note": 0, "velocity": 0, "duration": 267}, {"note": 72, "velocity": 99, "duration": 71}, {"note": 72, "velocity": 103, "duration": 88}, {"note": 83, "velocity": 96, "duration": 68}, {"note": 83, "velocity": 96, "duration": 58}, {"note": 0, "velocity": 0, "duration": 62}, {"note": 83, "velocity": 95, "duration": 58}, {"note": 0, "velocity": 0, "duration": 62}, {"note": 83, "velocity": 93, "duration": 79}, {"note": 81, "velocity": 96, "duration": 802}, {"note": 0, "velocity": 0, "duration": 398}, {"note": 79, "velocity": 92, "duration": 63}, {"note": 79, "velocity": 94, "duration": 63}, {"note": 79, "velocity": 96, "duration": 72}, {"note": 79, "velocity": 94, "duration": 60}, {"note": 79, "velocity": 97, "duration": 60}, {"note": 76, "velocity": 93, "duration": 66}, {"note": 74, "velocity": 106, "duration": 963}, {"note": 0, "velocity": 0, "duration": 477}, {"note": 74, "velocity": 109, "duration": 184}, {"note": 76, "velocity": 106, "duration": 171}, {"note": 0, "velocity": 0, "duration": 69}, {"note": 77, "velocity": 96, "duration": 441}, {"note": 76, "velocity": 103, "duration": 211}, {"note": 74, "velocity": 109, "duration": 215}, {"note": 77, "velocity": 103, "duration": 247}, {"note": 76, "velocity": 99, "duration": 80}, {"note": 74, "velocity": 109, "duration": 278}, {"note": 0, "velocity": 0, "duration": 82}, {"note": 74, "velocity": 106, "duration": 71}, {"note": 77, "velocity": 99, "duration": 73}, {"note": 76, "velocity": 99, "duration": 256}, {"note": 74, "velocity": 99, "duration": 173}, {"note": 0, "velocity": 0, "duration": 67}, {"note": 74, "velocity": 99, "duration": 187}, {"note": 72, "velocity": 95, "duration": 185}, {"note": 76, "velocity": 99, "duration": 164}, {"note": 0, "velocity": 0, "duration": 76}, {"note": 74, "velocity": 99, "duration": 80}, {"note": 72, "velocity": 94, "duration": 240}, {"note": 72, "velocity": 98, "duration": 68}, {"note": 74, "velocity": 99, "duration": 67}, {"note": 76, "velocity": 95, "duration": 102}, {"note": 74, "velocity": 103, "duration": 204}, {"note": 72, "velocity": 94, "duration": 168}, {"note": 0, "velocity": 0, "duration": 72}, {"note": 72, "velocity": 93, "duration": 227}, {"note": 71, "velocity": 97, "duration": 184}, {"note": 74, "velocity": 101, "duration": 156}, {"note": 0, "velocity": 0, "duration": 84}, {"note": 72, "velocity": 93, "duration": 85}, {"note": 71, "velocity": 95, "duration": 175}, {"note": 0, "velocity": 0, "duration": 65}, {"note": 74, "velocity": 98, "duration": 69}, {"note": 72, "velocity": 93, "duration": 79}, {"note": 74, "velocity": 99, "duration": 69}, {"note": 72, "velocity": 106, "duration": 215}, {"note": 71, "velocity": 99, "duration": 201}, {"note": 72, "velocity": 99, "duration": 184}, {"note": 74, "velocity": 94, "duration": 84}, {"note": 76, "velocity": 97, "duration": 702}, {"note": 0, "velocity": 0, "duration": 138}, {"note": 74, "velocity": 109, "duration": 63}, {"note": 76, "velocity": 103, "duration": 74}, {"note": 77, "velocity": 98, "duration": 417}, {"note": 0, "velocity": 0, "duration": 63}, {"note": 76, "velocity": 113, "duration": 166}, {"note": 0, "velocity": 0, "duration": 74}, {"note": 74, "velocity": 108, "duration": 196}, {"note": 81, "velocity": 99, "duration": 169}, {"note": 0, "velocity": 0, "duration": 71}, {"note": 77, "velocity": 94, "duration": 99}, {"note": 74, "velocity": 109, "duration": 249}, {"note": 81, "velocity": 92, "duration": 99}, {"note": 83, "velocity": 90, "duration": 68}, {"note": 84, "velocity": 99, "duration": 82}, {"note": 83, "velocity": 106, "duration": 232}, {"note": 81, "velocity": 96, "duration": 161}, {"note": 0, "velocity": 0, "duration": 79}, {"note": 81, "velocity": 94, "duration": 182}, {"note": 76, "velocity": 103, "duration": 188}, {"note": 84, "velocity": 103, "duration": 196}, {"note": 83, "velocity": 99, "duration": 82}, {"note": 81, "velocity": 96, "duration": 181}, {"note": 81, "velocity": 93, "duration": 68}, {"note": 83, "velocity": 96, "duration": 69}, {"note": 84, "velocity": 96, "duration": 79}, {"note": 83, "velocity": 99, "duration": 550}, {"note": 0, "velocity": 0, "duration": 170}, {"note": 81, "velocity": 95, "duration": 163}, {"note": 0, "velocity": 0, "duration": 77}, {"note": 81, "velocity": 98, "duration": 331}, {"note": 80, "velocity": 99, "duration": 313}, {"note": 81, "velocity": 95, "duration": 175}, {"note": 0, "velocity": 0, "duration": 65}, {"note": 83, "velocity": 94, "duration": 986}, {"note": 0, "velocity": 0, "duration": 214}, {"note": 88, "velocity": 97, "duration": 185}, {"note": 76, "velocity": 106, "duration": 186}, {"note": 79, "velocity": 99, "duration": 193}, {"note": 86, "velocity": 99, "duration": 193}, {"note": 88, "velocity": 94, "duration": 149}, {"note": 0, "velocity": 0, "duration": 91}, {"note": 88, "velocity": 106, "duration": 540}, {"note": 0, "velocity": 0, "duration": 180}, {"note": 88, "velocity": 98, "duration": 158}, {"note": 0, "velocity": 0, "duration": 82}, {"note": 76, "velocity": 98, "duration": 173}, {"note": 0, "velocity": 0, "duration": 67}, {"note": 79, "velocity": 99, "duration": 169}, {"note": 0, "velocity": 0, "duration": 71}, {"note": 86, "velocity": 103, "duration": 180}, {"note": 88, "velocity": 99, "duration": 102}, {"note": 0, "velocity": 0, "duration": 138}, {"note": 88, "velocity": 103, "duration": 616}, {"note": 0, "velocity": 0, "duration": 104}, {"note": 88, "velocity": 93, "duration": 193}, {"note": 91, "velocity": 98, "duration": 174}, {"note": 0, "velocity": 0, "duration": 66}, {"note": 88, "velocity": 99, "duration": 126}, {"note": 0, "velocity": 0, "duration": 114}, {"note": 88, "velocity": 108, "duration": 197}, {"note": 89, "velocity": 96, "duration": 136}, {"note": 0, "velocity": 0, "duration": 104}, {"note": 89, "velocity": 98, "duration": 337}, {"note": 81, "velocity": 94, "duration": 98}, {"note": 88, "velocity": 108, "duration": 163}, {"note": 0, "velocity": 0, "duration": 77}, {"note": 89, "velocity": 94, "duration": 71}, {"note": 89, "velocity": 99, "duration": 291}, {"note": 0, "velocity": 0, "duration": 69}, {"note": 81, "velocity": 82, "duration": 217}, {"note": 79, "velocity": 92, "duration": 960}, {"note": 0, "velocity": 0, "duration": 240}, {"note": 88, "velocity": 97, "duration": 185}, {"note": 76, "velocity": 106, "duration": 186}, {"note": 79, "velocity": 99, "duration": 193}, {"note": 86, "velocity": 99, "duration": 193}, {"note": 88, "velocity": 94, "duration": 149}, {"note": 0, "velocity": 0, "duration": 91}, {"note": 88, "velocity": 106, "duration": 540}, {"note": 0, "velocity": 0, "duration": 180}, {"note": 88, "velocity": 98, "duration": 158}, {"note": 0, "velocity": 0, "duration": 82}, {"note": 86, "velocity": 98, "duration": 173}, {"note": 0, "velocity": 0, "duration": 67}, {"note": 84, "velocity": 99, "duration": 169}, {"note": 0, "velocity": 0, "duration": 71}, {"note": 83, "velocity": 103, "duration": 180}, {"note": 91, "velocity": 99, "duration": 102}, {"note": 0, "velocity": 0, "duration": 138}, {"note": 91, "velocity": 103, "duration": 616}, {"note": 0, "velocity": 0, "duration": 104}, {"note": 91, "velocity": 93, "duration": 193}, {"note": 89, "velocity": 98, "duration": 174}, {"note": 0, "velocity": 0, "duration": 66}, {"note": 88, "velocity": 99, "duration": 126}, {"note": 0, "velocity": 0, "duration": 114}, {"note": 91, "velocity": 108, "duration": 197}, {"note": 89, "velocity": 96, "duration": 120}, {"note": 89, "velocity": 98, "duration": 457}, {"note": 88, "velocity": 94, "duration": 98}, {"note": 91, "velocity": 108, "duration": 163}, {"note": 0, "velocity": 0, "duration": 77}, {"note": 89, "velocity": 94, "duration": 71}, {"note": 89, "velocity": 99, "duration": 291}, {"note": 0, "velocity": 0, "duration": 69}, {"note": 81, "velocity": 82, "duration": 217}, {"note": 88, "velocity": 92, "duration": 960}, {"note": 0, "velocity": 0, "duration": 240}, {"note": 86, "velocity": 103, "duration": 59}, {"note": 0, "velocity": 0, "duration": 61}, {"note": 88, "velocity": 109, "duration": 65}, {"note": 91, "velocity": 108, "duration": 85}, {"note": 88, "velocity": 106, "duration": 77}, {"note": 86, "velocity": 109, "duration": 93}, {"note": 84, "velocity": 103, "duration": 82}, {"note": 84, "velocity": 96, "duration": 1002}, {"note": 0, "velocity": 0, "duration": 6678}, {"note": 72, "velocity": 94, "duration": 940}, {"note": 0, "velocity": 0, "duration": 260}, {"note": 67, "velocity": 87, "duration": 70}, {"note": 67, "velocity": 93, "duration": 125}, {"note": 79, "velocity": 97, "duration": 84}, {"note": 76, "velocity": 92, "duration": 82}, {"note": 74, "velocity": 93, "duration": 87}, {"note": 72, "velocity": 92, "duration": 127}, {"note": 71, "velocity": 93, "duration": 898}, {"note": 0, "velocity": 0, "duration": 302}, {"note": 72, "velocity": 93, "duration": 112}, {"note": 79, "velocity": 93, "duration": 68}, {"note": 79, "velocity": 93, "duration": 68}, {"note": 79, "velocity": 93, "duration": 72}, {"note": 79, "velocity": 98, "duration": 73}, {"note": 72, "velocity": 93, "duration": 95}, {"note": 69, "velocity": 93, "duration": 877}, {"note": 0, "velocity": 0, "duration": 323}, {"note": 69, "velocity": 96, "duration": 100}, {"note": 72, "velocity": 96, "duration": 66}, {"note": 72, "velocity": 94, "duration": 70}, {"note": 72, "velocity": 88, "duration": 52}, {"note": 0, "velocity": 0, "duration": 68}, {"note": 72, "velocity": 91, "duration": 98}, {"note": 69, "velocity": 96, "duration": 84}, {"note": 76, "velocity": 93, "duration": 719}, {"note": 74, "velocity": 103, "duration": 60}, {"note": 76, "velocity": 98, "duration": 78}, {"note": 74, "velocity": 101, "duration": 68}, {"note": 72, "velocity": 92, "duration": 72}, {"note": 67, "velocity": 92, "duration": 640}, {"note": 0, "velocity": 0, "duration": 80}, {"note": 72, "velocity": 98, "duration": 546}, {"note": 0, "velocity": 0, "duration": 654}, {"note": 67, "velocity": 98, "duration": 55}, {"note": 0, "velocity": 0, "duration": 65}, {"note": 72, "velocity": 99, "duration": 80}, {"note": 79, "velocity": 96, "duration": 63}, {"note": 76, "velocity": 94, "duration": 72}, {"note": 74, "velocity": 94, "duration": 87}, {"note": 72, "velocity": 92, "duration": 58}, {"note": 0, "velocity": 0, "duration": 62}, {"note": 79, "velocity": 94, "duration": 933}, {"note": 0, "velocity": 0, "duration": 267}, {"note": 72, "velocity": 99, "duration": 71}, {"note": 72, "velocity": 103, "duration": 88}, {"note": 83, "velocity": 96, "duration": 68}, {"note": 83, "velocity": 96, "duration": 58}, {"note": 0, "velocity": 0, "duration": 62}, {"note": 83, "velocity": 95, "duration": 58}, {"note": 0, "velocity": 0, "duration": 62}, {"note": 83, "velocity": 93, "duration": 79}, {"note": 81, "velocity": 96, "duration": 802}, {"note": 0, "velocity": 0, "duration": 398}, {"note": 79, "velocity": 92, "duration": 63}, {"note": 79, "velocity": 94, "duration": 63}, {"note": 79, "velocity": 96, "duration": 72}, {"note": 79, "velocity": 94, "duration": 60}, {"note": 79, "velocity": 97, "duration": 60}, {"note": 76, "velocity": 93, "duration": 66}, {"note": 74, "velocity": 106, "duration": 963}, {"note": 0, "velocity": 0, "duration": 477}, {"note": 74, "velocity": 109, "duration": 184}, {"note": 76, "velocity": 106, "duration": 171}, {"note": 0, "velocity": 0, "duration": 69}, {"note": 77, "velocity": 96, "duration": 441}, {"note": 76, "velocity": 103, "duration": 211}, {"note": 74, "velocity": 109, "duration": 215}, {"note": 77, "velocity": 103, "duration": 247}, {"note": 76, "velocity": 99, "duration": 80}, {"note": 74, "velocity": 109, "duration": 278}, {"note": 0, "velocity": 0, "duration": 82}, {"note": 74, "velocity": 106, "duration": 71}, {"note": 77, "velocity": 99, "duration": 73}, {"note": 76, "velocity": 99, "duration": 256}, {"note": 74, "velocity": 99, "duration": 173}, {"note": 0, "velocity": 0, "duration": 67}, {"note": 74, "velocity": 99, "duration": 187}, {"note": 72, "velocity": 95, "duration": 185}, {"note": 76, "velocity": 99, "duration": 164}, {"note": 0, "velocity": 0, "duration": 76}, {"note": 74, "velocity": 99, "duration": 80}, {"note": 72, "velocity": 94, "duration": 240}, {"note": 72, "velocity": 98, "duration": 68}, {"note": 74, "velocity": 99, "duration": 67}, {"note": 76, "velocity": 95, "duration": 102}, {"note": 74, "velocity": 103, "duration": 204}, {"note": 72, "velocity": 94, "duration": 168}, {"note": 0, "velocity": 0, "duration": 72}, {"note": 72, "velocity": 93, "duration": 227}, {"note": 71, "velocity": 97, "duration": 184}, {"note": 74, "velocity": 101, "duration": 156}, {"note": 0, "velocity": 0, "duration": 84}, {"note": 72, "velocity": 93, "duration": 85}, {"note": 71, "velocity": 95, "duration": 175}, {"note": 0, "velocity": 0, "duration": 65}, {"note": 74, "velocity": 98, "duration": 69}, {"note": 72, "velocity": 93, "duration": 79}, {"note": 74, "velocity": 99, "duration": 69}, {"note": 72, "velocity": 106, "duration": 215}, {"note": 71, "velocity": 99, "duration": 201}, {"note": 72, "velocity": 99, "duration": 184}, {"note": 74, "velocity": 94, "duration": 84}, {"note": 76, "velocity": 97, "duration": 702}, {"note": 0, "velocity": 0, "duration": 138}, {"note": 74, "velocity": 109, "duration": 63}, {"note": 76, "velocity": 103, "duration": 74}, {"note": 77, "velocity": 98, "duration": 417}, {"note": 0, "velocity": 0, "duration": 63}, {"note": 76, "velocity": 113, "duration": 166}, {"note": 0, "velocity": 0, "duration": 74}, {"note": 74, "velocity": 108, "duration": 196}, {"note": 81, "velocity": 99, "duration": 169}, {"note": 0, "velocity": 0, "duration": 71}, {"note": 77, "velocity": 94, "duration": 99}, {"note": 74, "velocity": 109, "duration": 249}, {"note": 81, "velocity": 92, "duration": 99}, {"note": 83, "velocity": 90, "duration": 68}, {"note": 84, "velocity": 99, "duration": 82}, {"note": 83, "velocity": 106, "duration": 232}, {"note": 81, "velocity": 96, "duration": 161}, {"note": 0, "velocity": 0, "duration": 79}, {"note": 81, "velocity": 94, "duration": 182}, {"note": 76, "velocity": 103, "duration": 188}, {"note": 84, "velocity": 103, "duration": 196}, {"note": 83, "velocity": 99, "duration": 82}, {"note": 81, "velocity": 96, "duration": 181}, {"note": 81, "velocity": 93, "duration": 68}, {"note": 83, "velocity": 96, "duration": 69}, {"note": 84, "velocity": 96, "duration": 79}, {"note": 83, "velocity": 99, "duration": 550}, {"note": 0, "velocity": 0, "duration": 170}, {"note": 81, "velocity": 95, "duration": 163}, {"note": 0, "velocity": 0, "duration": 77}, {"note": 81, "velocity": 98, "duration": 331}, {"note": 80, "velocity": 99, "duration": 313}, {"note": 81, "velocity": 95, "duration": 175}, {"note": 0, "velocity": 0, "duration": 65}, {"note": 83, "velocity": 94, "duration": 986}, {"note": 0, "velocity": 0, "duration": 214}, {"note": 88, "velocity": 97, "duration": 185}, {"note": 76, "velocity": 106, "duration": 186}, {"note": 79, "velocity": 99, "duration": 193}, {"note": 86, "velocity": 99, "duration": 193}, {"note": 88, "velocity": 94, "duration": 149}, {"note": 0, "velocity": 0, "duration": 91}, {"note": 88, "velocity": 106, "duration": 540}, {"note": 0, "velocity": 0, "duration": 180}, {"note": 88, "velocity": 98, "duration": 158}, {"note": 0, "velocity": 0, "duration": 82}, {"note": 76, "velocity": 98, "duration": 173}, {"note": 0, "velocity": 0, "duration": 67}, {"note": 79, "velocity": 99, "duration": 169}, {"note": 0, "velocity": 0, "duration": 71}, {"note": 86, "velocity": 103, "duration": 180}, {"note": 88, "velocity": 99, "duration": 102}, {"note": 0, "velocity": 0, "duration": 138}, {"note": 88, "velocity": 103, "duration": 616}, {"note": 0, "velocity": 0, "duration": 104}, {"note": 88, "velocity": 93, "duration": 193}, {"note": 91, "velocity": 98, "duration": 174}, {"note": 0, "velocity": 0, "duration": 66}, {"note": 88, "velocity": 99, "duration": 126}, {"note": 0, "velocity": 0, "duration": 114}, {"note": 88, "velocity": 108, "duration": 197}, {"note": 89, "velocity": 96, "duration": 136}, {"note": 0, "velocity": 0, "duration": 104}, {"note": 89, "velocity": 98, "duration": 337}, {"note": 81, "velocity": 94, "duration": 98}, {"note": 88, "velocity": 108, "duration": 163}, {"note": 0, "velocity": 0, "duration": 77}, {"note": 89, "velocity": 94, "duration": 71}, {"note": 89, "velocity": 99, "duration": 291}, {"note": 0, "velocity": 0, "duration": 69}, {"note": 81, "velocity": 82, "duration": 217}, {"note": 79, "velocity": 92, "duration": 960}, {"note": 0, "velocity": 0, "duration": 240}, {"note": 88, "velocity": 97, "duration": 185}, {"note": 76, "velocity": 106, "duration": 186}, {"note": 79, "velocity": 99, "duration": 193}, {"note": 86, "velocity": 99, "duration": 193}, {"note": 88, "velocity": 94, "duration": 149}, {"note": 0, "velocity": 0, "duration": 91}, {"note": 88, "velocity": 106, "duration": 540}, {"note": 0, "velocity": 0, "duration": 180}, {"note": 88, "velocity": 98, "duration": 158}, {"note": 0, "velocity": 0, "duration": 82}, {"note": 86, "velocity": 98, "duration": 173}, {"note": 0, "velocity": 0, "duration": 67}, {"note": 84, "velocity": 99, "duration": 169}, {"note": 0, "velocity": 0, "duration": 71}, {"note": 83, "velocity": 103, "duration": 180}, {"note": 91, "velocity": 99, "duration": 102}, {"note": 0, "velocity": 0, "duration": 138}, {"note": 91, "velocity": 103, "duration": 616}, {"note": 0, "velocity": 0, "duration": 104}, {"note": 91, "velocity": 93, "duration": 193}, {"note": 89, "velocity": 98, "duration": 174}, {"note": 0, "velocity": 0, "duration": 66}, {"note": 88, "velocity": 99, "duration": 126}, {"note": 0, "velocity": 0, "duration": 114}, {"note": 91, "velocity": 108, "duration": 197}, {"note": 89, "velocity": 96, "duration": 120}, {"note": 89, "velocity": 98, "duration": 457}, {"note": 88, "velocity": 94, "duration": 98}, {"note": 91, "velocity": 108, "duration": 163}, {"note": 0, "velocity": 0, "duration": 77}, {"note": 89, "velocity": 94, "duration": 71}, {"note": 89, "velocity": 99, "duration": 291}, {"note": 0, "velocity": 0, "duration": 69}, {"note": 81, "velocity": 82, "duration": 217}, {"note": 88, "velocity": 92, "duration": 960}, {"note": 0, "velocity": 0, "duration": 240}, {"note": 86, "velocity": 103, "duration": 59}, {"note": 0, "velocity": 0, "duration": 61}, {"note": 88, "velocity": 109, "duration": 65}, {"note": 91, "velocity": 108, "duration": 85}, {"note": 88, "velocity": 106, "duration": 77}, {"note": 86, "velocity": 109, "duration": 93}, {"note": 84, "velocity": 103, "duration": 82}, {"note": 84, "velocity": 96, "duration": 1002}]]