[[{"note": 70, "velocity": 95, "duration": 409}, {"note": 0, "velocity": 0, "duration": 71}, {"note": 73, "velocity": 90, "duration": 130}, {"note": 0, "velocity": 0, "duration": 110}, {"note": 73, "velocity": 94, "duration": 182}, {"note": 70, "velocity": 90, "duration": 160}, {"note": 0, "velocity": 0, "duration": 80}, {"note": 75, "velocity": 92, "duration": 321}, {"note": 0, "velocity": 0, "duration": 159}, {"note": 75, "velocity": 94, "duration": 354}, {"note": 0, "velocity": 0, "duration": 126}, {"note": 75, "velocity": 94, "duration": 290}, {"note": 0, "velocity": 0, "duration": 190}, {"note": 73, "velocity": 91, "duration": 160}, {"note": 0, "velocity": 0, "duration": 80}, {"note": 77, "velocity": 90, "duration": 375}, {"note": 0, "velocity": 0, "duration": 105}, {"note": 75, "velocity": 99, "duration": 349}, {"note": 0, "velocity": 0, "duration": 131}, {"note": 70, "velocity": 89, "duration": 349}, {"note": 0, "velocity": 0, "duration": 131}, {"note": 73, "velocity": 87, "duration": 146}, {"note": 0, "velocity": 0, "duration": 94}, {"note": 73, "velocity": 89, "duration": 182}, {"note": 70, "velocity": 89, "duration": 160}, {"note": 0, "velocity": 0, "duration": 80}, {"note": 73, "velocity": 89, "duration": 372}, {"note": 0, "velocity": 0, "duration": 108}, {"note": 73, "velocity": 93, "duration": 406}, {"note": 0, "velocity": 0, "duration": 74}, {"note": 73, "velocity": 89, "duration": 139}, {"note": 0, "velocity": 0, "duration": 101}, {"note": 73, "velocity": 89, "duration": 243}, {"note": 0, "velocity": 0, "duration": 237}, {"note": 70, "velocity": 92, "duration": 776}, {"note": 0, "velocity": 0, "duration": 184}, {"note": 70, "velocity": 88, "duration": 415}, {"note": 0, "velocity": 0, "duration": 65}, {"note": 73, "velocity": 85, "duration": 133}, {"note": 0, "velocity": 0, "duration": 107}, {"note": 73, "velocity": 84, "duration": 182}, {"note": 70, "velocity": 88, "duration": 226}, {"note": 75, "velocity": 90, "duration": 326}, {"note": 0, "velocity": 0, "duration": 154}, {"note": 75, "velocity": 92, "duration": 348}, {"note": 0, "velocity": 0, "duration": 132}, {"note": 75, "velocity": 92, "duration": 358}, {"note": 0, "velocity": 0, "duration": 122}, {"note": 73, "velocity": 90, "duration": 149}, {"note": 0, "velocity": 0, "duration": 91}, {"note": 77, "velocity": 90, "duration": 364}, {"note": 0, "velocity": 0, "duration": 116}, {"note": 75, "velocity": 90, "duration": 353}, {"note": 0, "velocity": 0, "duration": 127}, {"note": 70, "velocity": 89, "duration": 140}, {"note": 0, "velocity": 0, "duration": 100}, {"note": 70, "velocity": 88, "duration": 182}, {"note": 73, "velocity": 89, "duration": 118}, {"note": 0, "velocity": 0, "duration": 122}, {"note": 73, "velocity": 90, "duration": 165}, {"note": 0, "velocity": 0, "duration": 75}, {"note": 70, "velocity": 88, "duration": 162}, {"note": 0, "velocity": 0, "duration": 78}, {"note": 73, "velocity": 93, "duration": 720}, {"note": 0, "velocity": 0, "duration": 1920}, {"note": 70, "velocity": 95, "duration": 409}, {"note": 0, "velocity": 0, "duration": 71}, {"note": 73, "velocity": 90, "duration": 130}, {"note": 0, "velocity": 0, "duration": 110}, {"note": 73, "velocity": 94, "duration": 182}, {"note": 70, "velocity": 90, "duration": 160}, {"note": 0, "velocity": 0, "duration": 80}, {"note": 75, "velocity": 92, "duration": 321}, {"note": 0, "velocity": 0, "duration": 159}, {"note": 75, "velocity": 94, "duration": 354}, {"note": 0, "velocity": 0, "duration": 126}, {"note": 75, "velocity": 94, "duration": 290}, {"note": 0, "velocity": 0, "duration": 190}, {"note": 73, "velocity": 91, "duration": 160}, {"note": 0, "velocity": 0, "duration": 80}, {"note": 77, "velocity": 90, "duration": 375}, {"note": 0, "velocity": 0, "duration": 105}, {"note": 75, "velocity": 99, "duration": 349}, {"note": 0, "velocity": 0, "duration": 131}, {"note": 70, "velocity": 89, "duration": 349}, {"note": 0, "velocity": 0, "duration": 131}, {"note": 73, "velocity": 87, "duration": 146}, {"note": 0, "velocity": 0, "duration": 94}, {"note": 73, "velocity": 89, "duration": 182}, {"note": 70, "velocity": 89, "duration": 160}, {"note": 0, "velocity": 0, "duration": 80}, {"note": 73, "velocity": 89, "duration": 372}, {"note": 0, "velocity": 0, "duration": 108}, {"note": 73, "velocity": 93, "duration": 406}, {"note": 0, "velocity": 0, "duration": 74}, {"note": 73, "velocity": 89, "duration": 139}, {"note": 0, "velocity": 0, "duration": 101}, {"note": 73, "velocity": 89, "duration": 243}, {"note": 0, "velocity": 0, "duration": 237}, {"note": 70, "velocity": 92, "duration": 776}, {"note": 0, "velocity": 0, "duration": 184}, {"note": 70, "velocity": 88, "duration": 415}, {"note": 0, "velocity": 0, "duration": 65}, {"note": 73, "velocity": 85, "duration": 133}, {"note": 0, "velocity": 0, "duration": 107}, {"note": 73, "velocity": 84, "duration": 182}, {"note": 70, "velocity": 88, "duration": 226}, {"note": 75, "velocity": 90, "duration": 326}, {"note": 0, "velocity": 0, "duration": 154}, {"note": 75, "velocity": 92, "duration": 348}, {"note": 0, "velocity": 0, "duration": 132}, {"note": 75, "velocity": 92, "duration": 358}, {"note": 0, "velocity": 0, "duration": 122}, {"note": 73, "velocity": 90, "duration": 149}, {"note": 0, "velocity": 0, "duration": 91}, {"note": 77, "velocity": 90, "duration": 364}, {"note": 0, "velocity": 0, "duration": 116}, {"note": 75, "velocity": 90, "duration": 353}, {"note": 0, "velocity": 0, "duration": 127}, {"note": 70, "velocity": 89, "duration": 140}, {"note": 0, "velocity": 0, "duration": 100}, {"note": 70, "velocity": 88, "duration": 182}, {"note": 73, "velocity": 89, "duration": 118}, {"note": 0, "velocity": 0, "duration": 122}, {"note": 73, "velocity": 90, "duration": 165}, {"note": 0, "velocity": 0, "duration": 75}, {"note": 70, "velocity": 88, "duration": 162}, {"note": 0, "velocity": 0, "duration": 78}, {"note": 73, "velocity": 93, "duration": 720}, {"note": 0, "velocity": 0, "duration": 1920}, {"note": 77, "velocity": 94, "duration": 398}, {"note": 0, "velocity": 0, "duration": 82}, {"note": 80, "velocity": 86, "duration": 145}, {"note": 0, "velocity": 0, "duration": 95}, {"note": 80, "velocity": 88, "duration": 170}, {"note": 0, "velocity": 0, "duration": 70}, {"note": 77, "velocity": 91, "duration": 146}, {"note": 0, "velocity": 0, "duration": 94}, {"note": 82, "velocity": 88, "duration": 348}, {"note": 0, "velocity": 0, "duration": 132}, {"note": 82, "velocity": 88, "duration": 345}, {"note": 0, "velocity": 0, "duration": 135}, {"note": 82, "velocity": 88, "duration": 359}, {"note": 0, "velocity": 0, "duration": 121}, {"note": 82, "velocity": 79, "duration": 141}, {"note": 0, "velocity": 0, "duration": 99}, {"note": 82, "velocity": 89, "duration": 381}, {"note": 0, "velocity": 0, "duration": 99}, {"note": 80, "velocity": 89, "duration": 316}, {"note": 0, "velocity": 0, "duration": 164}, {"note": 80, "velocity": 81, "duration": 342}, {"note": 0, "velocity": 0, "duration": 138}, {"note": 80, "velocity": 90, "duration": 126}, {"note": 0, "velocity": 0, "duration": 114}, {"note": 80, "velocity": 88, "duration": 154}, {"note": 0, "velocity": 0, "duration": 86}, {"note": 77, "velocity": 89, "duration": 160}, {"note": 0, "velocity": 0, "duration": 80}, {"note": 80, "velocity": 89, "duration": 337}, {"note": 0, "velocity": 0, "duration": 143}, {"note": 80, "velocity": 90, "duration": 361}, {"note": 0, "velocity": 0, "duration": 119}, {"note": 80, "velocity": 89, "duration": 375}, {"note": 0, "velocity": 0, "duration": 105}, {"note": 80, "velocity": 87, "duration": 181}, {"note": 77, "velocity": 92, "duration": 810}, {"note": 0, "velocity": 0, "duration": 150}, {"note": 77, "velocity": 94, "duration": 398}, {"note": 0, "velocity": 0, "duration": 82}, {"note": 80, "velocity": 86, "duration": 145}, {"note": 0, "velocity": 0, "duration": 95}, {"note": 80, "velocity": 88, "duration": 170}, {"note": 0, "velocity": 0, "duration": 70}, {"note": 77, "velocity": 91, "duration": 146}, {"note": 0, "velocity": 0, "duration": 94}, {"note": 82, "velocity": 88, "duration": 348}, {"note": 0, "velocity": 0, "duration": 132}, {"note": 82, "velocity": 88, "duration": 345}, {"note": 0, "velocity": 0, "duration": 135}, {"note": 82, "velocity": 88, "duration": 359}, {"note": 0, "velocity": 0, "duration": 121}, {"note": 82, "velocity": 79, "duration": 141}, {"note": 0, "velocity": 0, "duration": 99}, {"note": 82, "velocity": 89, "duration": 381}, {"note": 0, "velocity": 0, "duration": 99}, {"note": 80, "velocity": 89, "duration": 316}, {"note": 0, "velocity": 0, "duration": 164}, {"note": 80, "velocity": 81, "duration": 342}, {"note": 0, "velocity": 0, "duration": 138}, {"note": 80, "velocity": 90, "duration": 126}, {"note": 0, "velocity": 0, "duration": 114}, {"note": 80, "velocity": 88, "duration": 154}, {"note": 0, "velocity": 0, "duration": 86}, {"note": 77, "velocity": 89, "duration": 160}, {"note": 0, "velocity": 0, "duration": 80}, {"note": 80, "velocity": 89, "duration": 337}, {"note": 0, "velocity": 0, "duration": 143}, {"note": 80, "velocity": 90, "duration": 361}, {"note": 0, "velocity": 0, "duration": 119}, {"note": 80, "velocity": 89, "duration": 375}, {"note": 0, "velocity": 0, "duration": 105}, {"note": 80, "velocity": 87, "duration": 181}, {"note": 82, "velocity": 92, "duration": 810}, {"note": 0, "velocity": 0, "duration": 150}, {"note": 77, "velocity": 92, "duration": 363}, {"note": 0, "velocity": 0, "duration": 117}, {"note": 75, "velocity": 93, "duration": 139}, {"note": 0, "velocity": 0, "duration": 101}, {"note": 75, "velocity": 88, "duration": 135}, {"note": 0, "velocity": 0, "duration": 105}, {"note": 73, "velocity": 88, "duration": 137}, {"note": 0, "velocity": 0, "duration": 103}, {"note": 75, "velocity": 90, "duration": 572}, {"note": 0, "velocity": 0, "duration": 148}, {"note": 77, "velocity": 88, "duration": 374}, {"note": 0, "velocity": 0, "duration": 106}, {"note": 75, "velocity": 90, "duration": 145}, {"note": 0, "velocity": 0, "duration": 95}, {"note": 75, "velocity": 90, "duration": 169}, {"note": 0, "velocity": 0, "duration": 71}, {"note": 73, "velocity": 88, "duration": 157}, {"note": 0, "velocity": 0, "duration": 83}, {"note": 75, "velocity": 90, "duration": 534}, {"note": 0, "velocity": 0, "duration": 186}, {"note": 77, "velocity": 90, "duration": 407}, {"note": 0, "velocity": 0, "duration": 73}, {"note": 75, "velocity": 94, "duration": 130}, {"note": 0, "velocity": 0, "duration": 110}, {"note": 75, "velocity": 89, "duration": 171}, {"note": 0, "velocity": 0, "duration": 69}, {"note": 73, "velocity": 89, "duration": 149}, {"note": 0, "velocity": 0, "duration": 91}, {"note": 73, "velocity": 92, "duration": 1237}, {"note": 0, "velocity": 0, "duration": 1403}, {"note": 77, "velocity": 91, "duration": 331}, {"note": 0, "velocity": 0, "duration": 149}, {"note": 75, "velocity": 89, "duration": 136}, {"note": 0, "velocity": 0, "duration": 104}, {"note": 75, "velocity": 92, "duration": 160}, {"note": 0, "velocity": 0, "duration": 80}, {"note": 73, "velocity": 86, "duration": 170}, {"note": 0, "velocity": 0, "duration": 70}, {"note": 75, "velocity": 92, "duration": 590}, {"note": 0, "velocity": 0, "duration": 130}, {"note": 77, "velocity": 90, "duration": 380}, {"note": 0, "velocity": 0, "duration": 100}, {"note": 75, "velocity": 90, "duration": 122}, {"note": 0, "velocity": 0, "duration": 118}, {"note": 75, "velocity": 89, "duration": 155}, {"note": 0, "velocity": 0, "duration": 85}, {"note": 73, "velocity": 88, "duration": 160}, {"note": 0, "velocity": 0, "duration": 80}, {"note": 75, "velocity": 90, "duration": 550}, {"note": 0, "velocity": 0, "duration": 170}, {"note": 77, "velocity": 88, "duration": 383}, {"note": 0, "velocity": 0, "duration": 97}, {"note": 75, "velocity": 90, "duration": 128}, {"note": 0, "velocity": 0, "duration": 112}, {"note": 75, "velocity": 94, "duration": 134}, {"note": 0, "velocity": 0, "duration": 106}, {"note": 73, "velocity": 89, "duration": 141}, {"note": 0, "velocity": 0, "duration": 99}, {"note": 73, "velocity": 89, "duration": 1790}, {"note": 0, "velocity": 0, "duration": 850}, {"note": 70, "velocity": 95, "duration": 409}, {"note": 0, "velocity": 0, "duration": 71}, {"note": 73, "velocity": 90, "duration": 130}, {"note": 0, "velocity": 0, "duration": 110}, {"note": 73, "velocity": 94, "duration": 182}, {"note": 70, "velocity": 90, "duration": 160}, {"note": 0, "velocity": 0, "duration": 80}, {"note": 75, "velocity": 92, "duration": 321}, {"note": 0, "velocity": 0, "duration": 159}, {"note": 75, "velocity": 94, "duration": 354}, {"note": 0, "velocity": 0, "duration": 126}, {"note": 75, "velocity": 94, "duration": 290}, {"note": 0, "velocity": 0, "duration": 190}, {"note": 73, "velocity": 91, "duration": 160}, {"note": 0, "velocity": 0, "duration": 80}, {"note": 77, "velocity": 90, "duration": 375}, {"note": 0, "velocity": 0, "duration": 105}, {"note": 75, "velocity": 99, "duration": 349}, {"note": 0, "velocity": 0, "duration": 131}, {"note": 70, "velocity": 89, "duration": 349}, {"note": 0, "velocity": 0, "duration": 131}, {"note": 73, "velocity": 87, "duration": 146}, {"note": 0, "velocity": 0, "duration": 94}, {"note": 73, "velocity": 89, "duration": 182}, {"note": 70, "velocity": 89, "duration": 160}, {"note": 0, "velocity": 0, "duration": 80}, {"note": 73, "velocity": 89, "duration": 372}, {"note": 0, "velocity": 0, "duration": 108}, {"note": 73, "velocity": 93, "duration": 406}, {"note": 0, "velocity": 0, "duration": 74}, {"note": 73, "velocity": 89, "duration": 139}, {"note": 0, "velocity": 0, "duration": 101}, {"note": 73, "velocity": 89, "duration": 243}, {"note": 0, "velocity": 0, "duration": 237}, {"note": 70, "velocity": 92, "duration": 776}, {"note": 0, "velocity": 0, "duration": 184}, {"note": 70, "velocity": 88, "duration": 415}, {"note": 0, "velocity": 0, "duration": 65}, {"note": 73, "velocity": 85, "duration": 133}, {"note": 0, "velocity": 0, "duration": 107}, {"note": 73, "velocity": 84, "duration": 182}, {"note": 70, "velocity": 88, "duration": 226}, {"note": 75, "velocity": 90, "duration": 326}, {"note": 0, "velocity": 0, "duration": 154}, {"note": 75, "velocity": 92, "duration": 348}, {"note": 0, "velocity": 0, "duration": 132}, {"note": 75, "velocity": 92, "duration": 358}, {"note": 0, "velocity": 0, "duration": 122}, {"note": 73, "velocity": 90, "duration": 149}, {"note": 0, "velocity": 0, "duration": 91}, {"note": 77, "velocity": 90, "duration": 364}, {"note": 0, "velocity": 0, "duration": 116}, {"note": 75, "velocity": 90, "duration": 353}, {"note": 0, "velocity": 0, "duration": 127}, {"note": 70, "velocity": 89, "duration": 140}, {"note": 0, "velocity": 0, "duration": 100}, {"note": 70, "velocity": 88, "duration": 182}, {"note": 73, "velocity": 89, "duration": 118}, {"note": 0, "velocity": 0, "duration": 122}, {"note": 73, "velocity": 90, "duration": 165}, {"note": 0, "velocity": 0, "duration": 75}, {"note": 70, "velocity": 88, "duration": 162}, {"note": 0, "velocity": 0, "duration": 78}, {"note": 73, "velocity": 93, "duration": 720}, {"note": 0, "velocity": 0, "duration": 1920}, {"note": 77, "velocity": 94, "duration": 398}, {"note": 0, "velocity": 0, "duration": 82}, {"note": 80, "velocity": 86, "duration": 145}, {"note": 0, "velocity": 0, "duration": 95}, {"note": 80, "velocity": 88, "duration": 170}, {"note": 0, "velocity": 0, "duration": 70}, {"note": 77, "velocity": 91, "duration": 146}, {"note": 0, "velocity": 0, "duration": 94}, {"note": 82, "velocity": 88, "duration": 348}, {"note": 0, "velocity": 0, "duration": 132}, {"note": 82, "velocity": 88, "duration": 345}, {"note": 0, "velocity": 0, "duration": 135}, {"note": 82, "velocity": 88, "duration": 359}, {"note": 0, "velocity": 0, "duration": 121}, {"note": 82, "velocity": 79, "duration": 141}, {"note": 0, "velocity": 0, "duration": 99}, {"note": 82, "velocity": 89, "duration": 381}, {"note": 0, "velocity": 0, "duration": 99}, {"note": 80, "velocity": 89, "duration": 316}, {"note": 0, "velocity": 0, "duration": 164}, {"note": 80, "velocity": 81, "duration": 342}, {"note": 0, "velocity": 0, "duration": 138}, {"note": 80, "velocity": 90, "duration": 126}, {"note": 0, "velocity": 0, "duration": 114}, {"note": 80, "velocity": 88, "duration": 154}, {"note": 0, "velocity": 0, "duration": 86}, {"note": 77, "velocity": 89, "duration": 160}, {"note": 0, "velocity": 0, "duration": 80}, {"note": 80, "velocity": 89, "duration": 337}, {"note": 0, "velocity": 0, "duration": 143}, {"note": 80, "velocity": 90, "duration": 361}, {"note": 0, "velocity": 0, "duration": 119}, {"note": 80, "velocity": 89, "duration": 375}, {"note": 0, "velocity": 0, "duration": 105}, {"note": 80, "velocity": 87, "duration": 181}, {"note": 77, "velocity": 92, "duration": 810}, {"note": 0, "velocity": 0, "duration": 150}, {"note": 77, "velocity": 94, "duration": 398}, {"note": 0, "velocity": 0, "duration": 82}, {"note": 80, "velocity": 86, "duration": 145}, {"note": 0, "velocity": 0, "duration": 95}, {"note": 80, "velocity": 88, "duration": 170}, {"note": 0, "velocity": 0, "duration": 70}, {"note": 77, "velocity": 91, "duration": 146}, {"note": 0, "velocity": 0, "duration": 94}, {"note": 82, "velocity": 88, "duration": 348}, {"note": 0, "velocity": 0, "duration": 132}, {"note": 82, "velocity": 88, "duration": 345}, {"note": 0, "velocity": 0, "duration": 135}, {"note": 82, "velocity": 88, "duration": 359}, {"note": 0, "velocity": 0, "duration": 121}, {"note": 82, "velocity": 79, "duration": 141}, {"note": 0, "velocity": 0, "duration": 99}, {"note": 82, "velocity": 89, "duration": 381}, {"note": 0, "velocity": 0, "duration": 99}, {"note": 80, "velocity": 89, "duration": 316}, {"note": 0, "velocity": 0, "duration": 164}, {"note": 80, "velocity": 81, "duration": 342}, {"note": 0, "velocity": 0, "duration": 138}, {"note": 80, "velocity": 90, "duration": 126}, {"note": 0, "velocity": 0, "duration": 114}, {"note": 80, "velocity": 88, "duration": 154}, {"note": 0, "velocity": 0, "duration": 86}, {"note": 77, "velocity": 89, "duration": 160}, {"note": 0, "velocity": 0, "duration": 80}, {"note": 80, "velocity": 89, "duration": 337}, {"note": 0, "velocity": 0, "duration": 143}, {"note": 80, "velocity": 90, "duration": 361}, {"note": 0, "velocity": 0, "duration": 119}, {"note": 80, "velocity": 89, "duration": 375}, {"note": 0, "velocity": 0, "duration": 105}, {"note": 80, "velocity": 87, "duration": 181}, {"note": 82, "velocity": 92, "duration": 810}, {"note": 0, "velocity": 0, "duration": 150}, {"note": 77, "velocity": 92, "duration": 363}, {"note": 0, "velocity": 0, "duration": 117}, {"note": 75, "velocity": 93, "duration": 139}, {"note": 0, "velocity": 0, "duration": 101}, {"note": 75, "velocity": 88, "duration": 135}, {"note": 0, "velocity": 0, "duration": 105}, {"note": 73, "velocity": 88, "duration": 137}, {"note": 0, "velocity": 0, "duration": 103}, {"note": 75, "velocity": 90, "duration": 572}, {"note": 0, "velocity": 0, "duration": 148}, {"note": 77, "velocity": 88, "duration": 374}, {"note": 0, "velocity": 0, "duration": 106}, {"note": 75, "velocity": 90, "duration": 145}, {"note": 0, "velocity": 0, "duration": 95}, {"note": 75, "velocity": 90, "duration": 169}, {"note": 0, "velocity": 0, "duration": 71}, {"note": 73, "velocity": 88, "duration": 157}, {"note": 0, "velocity": 0, "duration": 83}, {"note": 75, "velocity": 90, "duration": 534}, {"note": 0, "velocity": 0, "duration": 186}, {"note": 77, "velocity": 90, "duration": 407}, {"note": 0, "velocity": 0, "duration": 73}, {"note": 75, "velocity": 94, "duration": 130}, {"note": 0, "velocity": 0, "duration": 110}, {"note": 75, "velocity": 89, "duration": 171}, {"note": 0, "velocity": 0, "duration": 69}, {"note": 73, "velocity": 89, "duration": 149}, {"note": 0, "velocity": 0, "duration": 91}, {"note": 73, "velocity": 92, "duration": 1237}, {"note": 0, "velocity": 0, "duration": 1403}, {"note": 77, "velocity": 91, "duration": 331}, {"note": 0, "velocity": 0, "duration": 149}, {"note": 75, "velocity": 89, "duration": 136}, {"note": 0, "velocity": 0, "duration": 104}, {"note": 75, "velocity": 92, "duration": 160}, {"note": 0, "velocity": 0, "duration": 80}, {"note": 73, "velocity": 86, "duration": 170}, {"note": 0, "velocity": 0, "duration": 70}, {"note": 75, "velocity": 92, "duration": 590}, {"note": 0, "velocity": 0, "duration": 130}, {"note": 77, "velocity": 90, "duration": 380}, {"note": 0, "velocity": 0, "duration": 100}, {"note": 75, "velocity": 90, "duration": 122}, {"note": 0, "velocity": 0, "duration": 118}, {"note": 75, "velocity": 89, "duration": 155}, {"note": 0, "velocity": 0, "duration": 85}, {"note": 73, "velocity": 88, "duration": 160}, {"note": 0, "velocity": 0, "duration": 80}, {"note": 75, "velocity": 90, "duration": 550}, {"note": 0, "velocity": 0, "duration": 170}, {"note": 77, "velocity": 88, "duration": 383}, {"note": 0, "velocity": 0, "duration": 97}, {"note": 75, "velocity": 90, "duration": 128}, {"note": 0, "velocity": 0, "duration": 112}, {"note": 75, "velocity": 94, "duration": 134}, {"note": 0, "velocity": 0, "duration": 106}, {"note": 73, "velocity": 89, "duration": 141}, {"note": 0, "velocity": 0, "duration": 99}, {"note": 73, "velocity": 89, "duration": 1790}, {"note": 0, "velocity": 0, "duration": 16210}, {"note": 70, "velocity": 95, "duration": 409}, {"note": 0, "velocity": 0, "duration": 71}, {"note": 73, "velocity": 90, "duration": 130}, {"note": 0, "velocity": 0, "duration": 110}, {"note": 73, "velocity": 94, "duration": 182}, {"note": 70, "velocity": 90, "duration": 160}, {"note": 0, "velocity": 0, "duration": 80}, {"note": 75, "velocity": 92, "duration": 321}, {"note": 0, "velocity": 0, "duration": 159}, {"note": 75, "velocity": 94, "duration": 354}, {"note": 0, "velocity": 0, "duration": 126}, {"note": 75, "velocity": 94, "duration": 290}, {"note": 0, "velocity": 0, "duration": 190}, {"note": 73, "velocity": 91, "duration": 160}, {"note": 0, "velocity": 0, "duration": 80}, {"note": 77, "velocity": 90, "duration": 375}, {"note": 0, "velocity": 0, "duration": 105}, {"note": 75, "velocity": 99, "duration": 349}, {"note": 0, "velocity": 0, "duration": 131}, {"note": 70, "velocity": 89, "duration": 349}, {"note": 0, "velocity": 0, "duration": 131}, {"note": 73, "velocity": 87, "duration": 146}, {"note": 0, "velocity": 0, "duration": 94}, {"note": 73, "velocity": 89, "duration": 182}, {"note": 70, "velocity": 89, "duration": 160}, {"note": 0, "velocity": 0, "duration": 80}, {"note": 73, "velocity": 89, "duration": 372}, {"note": 0, "velocity": 0, "duration": 108}, {"note": 73, "velocity": 93, "duration": 406}, {"note": 0, "velocity": 0, "duration": 74}, {"note": 73, "velocity": 89, "duration": 139}, {"note": 0, "velocity": 0, "duration": 101}, {"note": 73, "velocity": 89, "duration": 243}, {"note": 0, "velocity": 0, "duration": 237}, {"note": 70, "velocity": 92, "duration": 776}, {"note": 0, "velocity": 0, "duration": 184}, {"note": 70, "velocity": 88, "duration": 415}, {"note": 0, "velocity": 0, "duration": 65}, {"note": 73, "velocity": 85, "duration": 133}, {"note": 0, "velocity": 0, "duration": 107}, {"note": 73, "velocity": 84, "duration": 182}, {"note": 70, "velocity": 88, "duration": 226}, {"note": 75, "velocity": 90, "duration": 326}, {"note": 0, "velocity": 0, "duration": 154}, {"note": 75, "velocity": 92, "duration": 348}, {"note": 0, "velocity": 0, "duration": 132}, {"note": 75, "velocity": 92, "duration": 358}, {"note": 0, "velocity": 0, "duration": 122}, {"note": 73, "velocity": 90, "duration": 149}, {"note": 0, "velocity": 0, "duration": 91}, {"note": 77, "velocity": 90, "duration": 364}, {"note": 0, "velocity": 0, "duration": 116}, {"note": 75, "velocity": 90, "duration": 353}, {"note": 0, "velocity": 0, "duration": 127}, {"note": 70, "velocity": 89, "duration": 140}, {"note": 0, "velocity": 0, "duration": 100}, {"note": 70, "velocity": 88, "duration": 182}, {"note": 73, "velocity": 89, "duration": 118}, {"note": 0, "velocity": 0, "duration": 122}, {"note": 73, "velocity": 90, "duration": 165}, {"note": 0, "velocity": 0, "duration": 75}, {"note": 70, "velocity": 88, "duration": 162}, {"note": 0, "velocity": 0, "duration": 78}, {"note": 73, "velocity": 93, "duration": 720}, {"note": 0, "velocity": 0, "duration": 1920}, {"note": 77, "velocity": 94, "duration": 398}, {"note": 0, "velocity": 0, "duration": 82}, {"note": 80, "velocity": 86, "duration": 145}, {"note": 0, "velocity": 0, "duration": 95}, {"note": 80, "velocity": 88, "duration": 170}, {"note": 0, "velocity": 0, "duration": 70}, {"note": 77, "velocity": 91, "duration": 146}, {"note": 0, "velocity": 0, "duration": 94}, {"note": 82, "velocity": 88, "duration": 348}, {"note": 0, "velocity": 0, "duration": 132}, {"note": 82, "velocity": 88, "duration": 345}, {"note": 0, "velocity": 0, "duration": 135}, {"note": 82, "velocity": 88, "duration": 359}, {"note": 0, "velocity": 0, "duration": 121}, {"note": 82, "velocity": 79, "duration": 141}, {"note": 0, "velocity": 0, "duration": 99}, {"note": 82, "velocity": 89, "duration": 381}, {"note": 0, "velocity": 0, "duration": 99}, {"note": 80, "velocity": 89, "duration": 316}, {"note": 0, "velocity": 0, "duration": 164}, {"note": 80, "velocity": 81, "duration": 342}, {"note": 0, "velocity": 0, "duration": 138}, {"note": 80, "velocity": 90, "duration": 126}, {"note": 0, "velocity": 0, "duration": 114}, {"note": 80, "velocity": 88, "duration": 154}, {"note": 0, "velocity": 0, "duration": 86}, {"note": 77, "velocity": 89, "duration": 160}, {"note": 0, "velocity": 0, "duration": 80}, {"note": 80, "velocity": 89, "duration": 337}, {"note": 0, "velocity": 0, "duration": 143}, {"note": 80, "velocity": 90, "duration": 361}, {"note": 0, "velocity": 0, "duration": 119}, {"note": 80, "velocity": 89, "duration": 375}, {"note": 0, "velocity": 0, "duration": 105}, {"note": 80, "velocity": 87, "duration": 181}, {"note": 77, "velocity": 92, "duration": 810}, {"note": 0, "velocity": 0, "duration": 150}, {"note": 77, "velocity": 94, "duration": 398}, {"note": 0, "velocity": 0, "duration": 82}, {"note": 80, "velocity": 86, "duration": 145}, {"note": 0, "velocity": 0, "duration": 95}, {"note": 80, "velocity": 88, "duration": 170}, {"note": 0, "velocity": 0, "duration": 70}, {"note": 77, "velocity": 91, "duration": 146}, {"note": 0, "velocity": 0, "duration": 94}, {"note": 82, "velocity": 88, "duration": 348}, {"note": 0, "velocity": 0, "duration": 132}, {"note": 82, "velocity": 88, "duration": 345}, {"note": 0, "velocity": 0, "duration": 135}, {"note": 82, "velocity": 88, "duration": 359}, {"note": 0, "velocity": 0, "duration": 121}, {"note": 82, "velocity": 79, "duration": 141}, {"note": 0, "velocity": 0, "duration": 99}, {"note": 82, "velocity": 89, "duration": 381}, {"note": 0, "velocity": 0, "duration": 99}, {"note": 80, "velocity": 89, "duration": 316}, {"note": 0, "velocity": 0, "duration": 164}, {"note": 80, "velocity": 81, "duration": 342}, {"note": 0, "velocity": 0, "duration": 138}, {"note": 80, "velocity": 90, "duration": 126}, {"note": 0, "velocity": 0, "duration": 114}, {"note": 80, "velocity": 88, "duration": 154}, {"note": 0, "velocity": 0, "duration": 86}, {"note": 77, "velocity": 89, "duration": 160}, {"note": 0, "velocity": 0, "duration": 80}, {"note": 80, "velocity": 89, "duration": 337}, {"note": 0, "velocity": 0, "duration": 143}, {"note": 80, "velocity": 90, "duration": 361}, {"note": 0, "velocity": 0, "duration": 119}, {"note": 80, "velocity": 89, "duration": 375}, {"note": 0, "velocity": 0, "duration": 105}, {"note": 80, "velocity": 87, "duration": 181}, {"note": 82, "velocity": 92, "duration": 810}, {"note": 0, "velocity": 0, "duration": 150}, {"note": 77, "velocity": 92, "duration": 363}, {"note": 0, "velocity": 0, "duration": 117}, {"note": 75, "velocity": 93, "duration": 139}, {"note": 0, "velocity": 0, "duration": 101}, {"note": 75, "velocity": 88, "duration": 135}, {"note": 0, "velocity": 0, "duration": 105}, {"note": 73, "velocity": 88, "duration": 137}, {"note": 0, "velocity": 0, "duration": 103}, {"note": 75, "velocity": 90, "duration": 572}, {"note": 0, "velocity": 0, "duration": 148}, {"note": 77, "velocity": 88, "duration": 374}, {"note": 0, "velocity": 0, "duration": 106}, {"note": 75, "velocity": 90, "duration": 145}, {"note": 0, "velocity": 0, "duration": 95}, {"note": 75, "velocity": 90, "duration": 169}, {"note": 0, "velocity": 0, "duration": 71}, {"note": 73, "velocity": 88, "duration": 157}, {"note": 0, "velocity": 0, "duration": 83}, {"note": 75, "velocity": 90, "duration": 534}, {"note": 0, "velocity": 0, "duration": 186}, {"note": 77, "velocity": 90, "duration": 407}, {"note": 0, "velocity": 0, "duration": 73}, {"note": 75, "velocity": 94, "duration": 130}, {"note": 0, "velocity": 0, "duration": 110}, {"note": 75, "velocity": 89, "duration": 171}, {"note": 0, "velocity": 0, "duration": 69}, {"note": 73, "velocity": 89, "duration": 149}, {"note": 0, "velocity": 0, "duration": 91}, {"note": 73, "velocity": 92, "duration": 1237}, {"note": 0, "velocity": 0, "duration": 1403}, {"note": 77, "velocity": 91, "duration": 331}, {"note": 0, "velocity": 0, "duration": 149}, {"note": 75, "velocity": 89, "duration": 136}, {"note": 0, "velocity": 0, "duration": 104}, {"note": 75, "velocity": 92, "duration": 160}, {"note": 0, "velocity": 0, "duration": 80}, {"note": 73, "velocity": 86, "duration": 170}, {"note": 0, "velocity": 0, "duration": 70}, {"note": 75, "velocity": 92, "duration": 590}, {"note": 0, "velocity": 0, "duration": 130}, {"note": 77, "velocity": 90, "duration": 380}, {"note": 0, "velocity": 0, "duration": 100}, {"note": 75, "velocity": 90, "duration": 122}, {"note": 0, "velocity": 0, "duration": 118}, {"note": 75, "velocity": 89, "duration": 155}, {"note": 0, "velocity": 0, "duration": 85}, {"note": 73, "velocity": 88, "duration": 160}, {"note": 0, "velocity": 0, "duration": 80}, {"note": 75, "velocity": 90, "duration": 550}, {"note": 0, "velocity": 0, "duration": 170}, {"note": 77, "velocity": 88, "duration": 383}, {"note": 0, "velocity": 0, "duration": 97}, {"note": 75, "velocity": 90, "duration": 128}, {"note": 0, "velocity": 0, "duration": 112}, {"note": 75, "velocity": 94, "duration": 134}, {"note": 0, "velocity": 0, "duration": 106}, {"note": 73, "velocity": 89, "duration": 141}, {"note": 0, "velocity": 0, "duration": 99}, {"note": 73, "velocity": 89, "duration": 1790}, {"note": 0, "velocity": 0, "duration": 850}, {"note": 77, "velocity": 94, "duration": 398}, {"note": 0, "velocity": 0, "duration": 82}, {"note": 80, "velocity": 86, "duration": 145}, {"note": 0, "velocity": 0, "duration": 95}, {"note": 80, "velocity": 88, "duration": 170}, {"note": 0, "velocity": 0, "duration": 70}, {"note": 77, "velocity": 91, "duration": 146}, {"note": 0, "velocity": 0, "duration": 94}, {"note": 82, "velocity": 88, "duration": 348}, {"note": 0, "velocity": 0, "duration": 132}, {"note": 82, "velocity": 88, "duration": 345}, {"note": 0, "velocity": 0, "duration": 135}, {"note": 82, "velocity": 88, "duration": 359}, {"note": 0, "velocity": 0, "duration": 121}, {"note": 82, "velocity": 79, "duration": 141}, {"note": 0, "velocity": 0, "duration": 99}, {"note": 82, "velocity": 89, "duration": 381}, {"note": 0, "velocity": 0, "duration": 99}, {"note": 80, "velocity": 89, "duration": 316}, {"note": 0, "velocity": 0, "duration": 164}, {"note": 80, "velocity": 81, "duration": 342}, {"note": 0, "velocity": 0, "duration": 138}, {"note": 80, "velocity": 90, "duration": 126}, {"note": 0, "velocity": 0, "duration": 114}, {"note": 80, "velocity": 88, "duration": 154}, {"note": 0, "velocity": 0, "duration": 86}, {"note": 77, "velocity": 89, "duration": 160}, {"note": 0, "velocity": 0, "duration": 80}, {"note": 80, "velocity": 89, "duration": 337}, {"note": 0, "velocity": 0, "duration": 143}, {"note": 80, "velocity": 90, "duration": 361}, {"note": 0, "velocity": 0, "duration": 119}, {"note": 80, "velocity": 89, "duration": 375}, {"note": 0, "velocity": 0, "duration": 105}, {"note": 80, "velocity": 87, "duration": 181}, {"note": 77, "velocity": 92, "duration": 810}, {"note": 0, "velocity": 0, "duration": 150}, {"note": 77, "velocity": 94, "duration": 398}, {"note": 0, "velocity": 0, "duration": 82}, {"note": 80, "velocity": 86, "duration": 145}, {"note": 0, "velocity": 0, "duration": 95}, {"note": 80, "velocity": 88, "duration": 170}, {"note": 0, "velocity": 0, "duration": 70}, {"note": 77, "velocity": 91, "duration": 146}, {"note": 0, "velocity": 0, "duration": 94}, {"note": 82, "velocity": 88, "duration": 348}, {"note": 0, "velocity": 0, "duration": 132}, {"note": 82, "velocity": 88, "duration": 345}, {"note": 0, "velocity": 0, "duration": 135}, {"note": 82, "velocity": 88, "duration": 359}, {"note": 0, "velocity": 0, "duration": 121}, {"note": 82, "velocity": 79, "duration": 141}, {"note": 0, "velocity": 0, "duration": 99}, {"note": 82, "velocity": 89, "duration": 381}, {"note": 0, "velocity": 0, "duration": 99}, {"note": 80, "velocity": 89, "duration": 316}, {"note": 0, "velocity": 0, "duration": 164}, {"note": 80, "velocity": 81, "duration": 342}, {"note": 0, "velocity": 0, "duration": 138}, {"note": 80, "velocity": 90, "duration": 126}, {"note": 0, "velocity": 0, "duration": 114}, {"note": 80, "velocity": 88, "duration": 154}, {"note": 0, "velocity": 0, "duration": 86}, {"note": 77, "velocity": 89, "duration": 160}, {"note": 0, "velocity": 0, "duration": 80}, {"note": 80, "velocity": 89, "duration": 337}, {"note": 0, "velocity": 0, "duration": 143}, {"note": 80, "velocity": 90, "duration": 361}, {"note": 0, "velocity": 0, "duration": 119}, {"note": 80, "velocity": 89, "duration": 375}, {"note": 0, "velocity": 0, "duration": 105}, {"note": 80, "velocity": 87, "duration": 181}, {"note": 82, "velocity": 92, "duration": 810}, {"note": 0, "velocity": 0, "duration": 150}, {"note": 77, "velocity": 92, "duration": 363}, {"note": 0, "velocity": 0, "duration": 117}, {"note": 75, "velocity": 93, "duration": 139}, {"note": 0, "velocity": 0, "duration": 101}, {"note": 75, "velocity": 88, "duration": 135}, {"note": 0, "velocity": 0, "duration": 105}, {"note": 73, "velocity": 88, "duration": 137}, {"note": 0, "velocity": 0, "duration": 103}, {"note": 75, "velocity": 90, "duration": 572}, {"note": 0, "velocity": 0, "duration": 148}, {"note": 77, "velocity": 88, "duration": 374}, {"note": 0, "velocity": 0, "duration": 106}, {"note": 75, "velocity": 90, "duration": 145}, {"note": 0, "velocity": 0, "duration": 95}, {"note": 75, "velocity": 90, "duration": 169}, {"note": 0, "velocity": 0, "duration": 71}, {"note": 73, "velocity": 88, "duration": 157}, {"note": 0, "velocity": 0, "duration": 83}, {"note": 75, "velocity": 90, "duration": 534}, {"note": 0, "velocity": 0, "duration": 186}, {"note": 77, "velocity": 90, "duration": 407}, {"note": 0, "velocity": 0, "duration": 73}, {"note": 75, "velocity": 94, "duration": 130}, {"note": 0, "velocity": 0, "duration": 110}, {"note": 75, "velocity": 89, "duration": 171}, {"note": 0, "velocity": 0, "duration": 69}, {"note": 73, "velocity": 89, "duration": 149}, {"note": 0, "velocity": 0, "duration": 91}, {"note": 73, "velocity": 92, "duration": 1237}, {"note": 0, "velocity": 0, "duration": 1403}, {"note": 77, "velocity": 91, "duration": 331}, {"note": 0, "velocity": 0, "duration": 149}, {"note": 75, "velocity": 89, "duration": 136}, {"note": 0, "velocity": 0, "duration": 104}, {"note": 75, "velocity": 92, "duration": 160}, {"note": 0, "velocity": 0, "duration": 80}, {"note": 73, "velocity": 86, "duration": 170}, {"note": 0, "velocity": 0, "duration": 70}, {"note": 75, "velocity": 92, "duration": 590}, {"note": 0, "velocity": 0, "duration": 130}, {"note": 77, "velocity": 90, "duration": 380}, {"note": 0, "velocity": 0, "duration": 100}, {"note": 75, "velocity": 90, "duration": 122}, {"note": 0, "velocity": 0, "duration": 118}, {"note": 75, "velocity": 89, "duration": 155}, {"note": 0, "velocity": 0, "duration": 85}, {"note": 73, "velocity": 88, "duration": 160}, {"note": 0, "velocity": 0, "duration": 80}, {"note": 75, "velocity": 90, "duration": 550}, {"note": 0, "velocity": 0, "duration": 170}, {"note": 77, "velocity": 88, "duration": 383}, {"note": 0, "velocity": 0, "duration": 97}, {"note": 75, "velocity": 90, "duration": 128}, {"note": 0, "velocity": 0, "duration": 112}, {"note": 75, "velocity": 94, "duration": 134}, {"note": 0, "velocity": 0, "duration": 106}, {"note": 73, "velocity": 89, "duration": 141}, {"note": 0, "velocity": 0, "duration": 99}, {"note": 73, "velocity": 89, "duration": 1790}]]