[[{"note": 76, "velocity": 90, "duration": 168}, {"note": 0, "velocity": 0, "duration": 72}, {"note": 76, "velocity": 92, "duration": 173}, {"note": 0, "velocity": 0, "duration": 67}, {"note": 74, "velocity": 93, "duration": 599}, {"note": 0, "velocity": 0, "duration": 121}, {"note": 71, "velocity": 90, "duration": 519}, {"note": 72, "velocity": 92, "duration": 1113}, {"note": 0, "velocity": 0, "duration": 1047}, {"note": 76, "velocity": 89, "duration": 177}, {"note": 0, "velocity": 0, "duration": 63}, {"note": 76, "velocity": 92, "duration": 182}, {"note": 74, "velocity": 92, "duration": 186}, {"note": 72, "velocity": 92, "duration": 181}, {"note": 74, "velocity": 90, "duration": 171}, {"note": 0, "velocity": 0, "duration": 69}, {"note": 79, "velocity": 90, "duration": 380}, {"note": 0, "velocity": 0, "duration": 100}, {"note": 76, "velocity": 90, "duration": 1200}, {"note": 0, "velocity": 0, "duration": 960}, {"note": 81, "velocity": 86, "duration": 167}, {"note": 0, "velocity": 0, "duration": 73}, {"note": 81, "velocity": 84, "duration": 167}, {"note": 0, "velocity": 0, "duration": 73}, {"note": 79, "velocity": 94, "duration": 338}, {"note": 0, "velocity": 0, "duration": 142}, {"note": 76, "velocity": 89, "duration": 201}, {"note": 74, "velocity": 88, "duration": 174}, {"note": 0, "velocity": 0, "duration": 66}, {"note": 76, "velocity": 88, "duration": 433}, {"note": 74, "velocity": 88, "duration": 422}, {"note": 72, "velocity": 90, "duration": 425}, {"note": 0, "velocity": 0, "duration": 535}, {"note": 76, "velocity": 90, "duration": 359}, {"note": 0, "velocity": 0, "duration": 121}, {"note": 74, "velocity": 89, "duration": 171}, {"note": 0, "velocity": 0, "duration": 69}, {"note": 72, "velocity": 89, "duration": 166}, {"note": 0, "velocity": 0, "duration": 74}, {"note": 74, "velocity": 92, "duration": 341}, {"note": 0, "velocity": 0, "duration": 139}, {"note": 71, "velocity": 86, "duration": 403}, {"note": 0, "velocity": 0, "duration": 77}, {"note": 69, "velocity": 88, "duration": 1361}, {"note": 0, "velocity": 0, "duration": 1039}, {"note": 76, "velocity": 90, "duration": 168}, {"note": 0, "velocity": 0, "duration": 72}, {"note": 76, "velocity": 92, "duration": 173}, {"note": 0, "velocity": 0, "duration": 67}, {"note": 74, "velocity": 93, "duration": 599}, {"note": 0, "velocity": 0, "duration": 121}, {"note": 71, "velocity": 90, "duration": 519}, {"note": 72, "velocity": 92, "duration": 1113}, {"note": 0, "velocity": 0, "duration": 1047}, {"note": 76, "velocity": 89, "duration": 177}, {"note": 0, "velocity": 0, "duration": 63}, {"note": 76, "velocity": 92, "duration": 182}, {"note": 74, "velocity": 92, "duration": 186}, {"note": 72, "velocity": 92, "duration": 181}, {"note": 74, "velocity": 90, "duration": 171}, {"note": 0, "velocity": 0, "duration": 69}, {"note": 79, "velocity": 90, "duration": 380}, {"note": 0, "velocity": 0, "duration": 100}, {"note": 76, "velocity": 90, "duration": 1200}, {"note": 0, "velocity": 0, "duration": 960}, {"note": 81, "velocity": 86, "duration": 167}, {"note": 0, "velocity": 0, "duration": 73}, {"note": 81, "velocity": 84, "duration": 167}, {"note": 0, "velocity": 0, "duration": 73}, {"note": 79, "velocity": 94, "duration": 338}, {"note": 0, "velocity": 0, "duration": 142}, {"note": 76, "velocity": 89, "duration": 201}, {"note": 74, "velocity": 88, "duration": 174}, {"note": 0, "velocity": 0, "duration": 66}, {"note": 76, "velocity": 88, "duration": 433}, {"note": 74, "velocity": 88, "duration": 422}, {"note": 72, "velocity": 90, "duration": 425}, {"note": 0, "velocity": 0, "duration": 535}, {"note": 76, "velocity": 90, "duration": 359}, {"note": 0, "velocity": 0, "duration": 121}, {"note": 74, "velocity": 89, "duration": 171}, {"note": 0, "velocity": 0, "duration": 69}, {"note": 72, "velocity": 89, "duration": 166}, {"note": 0, "velocity": 0, "duration": 74}, {"note": 74, "velocity": 92, "duration": 720}, {"note": 72, "velocity": 86, "duration": 240}, {"note": 72, "velocity": 88, "duration": 1361}, {"note": 0, "velocity": 0, "duration": 2959}, {"note": 76, "velocity": 92, "duration": 207}, {"note": 79, "velocity": 89, "duration": 179}, {"note": 0, "velocity": 0, "duration": 61}, {"note": 81, "velocity": 89, "duration": 404}, {"note": 0, "velocity": 0, "duration": 76}, {"note": 84, "velocity": 90, "duration": 376}, {"note": 0, "velocity": 0, "duration": 104}, {"note": 83, "velocity": 90, "duration": 563}, {"note": 0, "velocity": 0, "duration": 157}, {"note": 79, "velocity": 89, "duration": 230}, {"note": 76, "velocity": 92, "duration": 740}, {"note": 72, "velocity": 89, "duration": 197}, {"note": 72, "velocity": 88, "duration": 654}, {"note": 0, "velocity": 0, "duration": 66}, {"note": 81, "velocity": 86, "duration": 180}, {"note": 81, "velocity": 89, "duration": 184}, {"note": 79, "velocity": 83, "duration": 152}, {"note": 0, "velocity": 0, "duration": 88}, {"note": 76, "velocity": 95, "duration": 200}, {"note": 74, "velocity": 89, "duration": 203}, {"note": 76, "velocity": 94, "duration": 1062}, {"note": 0, "velocity": 0, "duration": 1338}, {"note": 76, "velocity": 94, "duration": 165}, {"note": 0, "velocity": 0, "duration": 75}, {"note": 79, "velocity": 89, "duration": 157}, {"note": 0, "velocity": 0, "duration": 83}, {"note": 81, "velocity": 89, "duration": 413}, {"note": 0, "velocity": 0, "duration": 67}, {"note": 84, "velocity": 89, "duration": 417}, {"note": 0, "velocity": 0, "duration": 63}, {"note": 83, "velocity": 94, "duration": 388}, {"note": 0, "velocity": 0, "duration": 332}, {"note": 76, "velocity": 90, "duration": 209}, {"note": 84, "velocity": 92, "duration": 529}, {"note": 0, "velocity": 0, "duration": 191}, {"note": 76, "velocity": 90, "duration": 205}, {"note": 74, "velocity": 97, "duration": 487}, {"note": 0, "velocity": 0, "duration": 233}, {"note": 81, "velocity": 90, "duration": 160}, {"note": 0, "velocity": 0, "duration": 80}, {"note": 81, "velocity": 89, "duration": 150}, {"note": 0, "velocity": 0, "duration": 90}, {"note": 79, "velocity": 92, "duration": 142}, {"note": 0, "velocity": 0, "duration": 98}, {"note": 76, "velocity": 92, "duration": 174}, {"note": 0, "velocity": 0, "duration": 66}, {"note": 74, "velocity": 94, "duration": 398}, {"note": 0, "velocity": 0, "duration": 82}, {"note": 72, "velocity": 90, "duration": 1540}, {"note": 0, "velocity": 0, "duration": 8300}, {"note": 76, "velocity": 90, "duration": 168}, {"note": 0, "velocity": 0, "duration": 72}, {"note": 76, "velocity": 92, "duration": 173}, {"note": 0, "velocity": 0, "duration": 67}, {"note": 74, "velocity": 93, "duration": 599}, {"note": 0, "velocity": 0, "duration": 121}, {"note": 71, "velocity": 90, "duration": 519}, {"note": 72, "velocity": 92, "duration": 1113}, {"note": 0, "velocity": 0, "duration": 1047}, {"note": 76, "velocity": 89, "duration": 177}, {"note": 0, "velocity": 0, "duration": 63}, {"note": 76, "velocity": 92, "duration": 182}, {"note": 74, "velocity": 92, "duration": 186}, {"note": 72, "velocity": 92, "duration": 181}, {"note": 74, "velocity": 90, "duration": 171}, {"note": 0, "velocity": 0, "duration": 69}, {"note": 79, "velocity": 90, "duration": 380}, {"note": 0, "velocity": 0, "duration": 100}, {"note": 76, "velocity": 90, "duration": 1200}, {"note": 0, "velocity": 0, "duration": 960}, {"note": 81, "velocity": 86, "duration": 167}, {"note": 0, "velocity": 0, "duration": 73}, {"note": 81, "velocity": 84, "duration": 167}, {"note": 0, "velocity": 0, "duration": 73}, {"note": 79, "velocity": 94, "duration": 338}, {"note": 0, "velocity": 0, "duration": 142}, {"note": 76, "velocity": 89, "duration": 201}, {"note": 74, "velocity": 88, "duration": 174}, {"note": 0, "velocity": 0, "duration": 66}, {"note": 76, "velocity": 88, "duration": 433}, {"note": 74, "velocity": 88, "duration": 422}, {"note": 72, "velocity": 90, "duration": 425}, {"note": 0, "velocity": 0, "duration": 535}, {"note": 76, "velocity": 90, "duration": 359}, {"note": 0, "velocity": 0, "duration": 121}, {"note": 74, "velocity": 89, "duration": 171}, {"note": 0, "velocity": 0, "duration": 69}, {"note": 72, "velocity": 89, "duration": 166}, {"note": 0, "velocity": 0, "duration": 74}, {"note": 74, "velocity": 92, "duration": 341}, {"note": 0, "velocity": 0, "duration": 139}, {"note": 71, "velocity": 86, "duration": 403}, {"note": 0, "velocity": 0, "duration": 77}, {"note": 69, "velocity": 88, "duration": 1361}, {"note": 0, "velocity": 0, "duration": 1039}, {"note": 76, "velocity": 90, "duration": 168}, {"note": 0, "velocity": 0, "duration": 72}, {"note": 76, "velocity": 92, "duration": 173}, {"note": 0, "velocity": 0, "duration": 67}, {"note": 74, "velocity": 93, "duration": 599}, {"note": 0, "velocity": 0, "duration": 121}, {"note": 71, "velocity": 90, "duration": 519}, {"note": 72, "velocity": 92, "duration": 1113}, {"note": 0, "velocity": 0, "duration": 1047}, {"note": 76, "velocity": 89, "duration": 177}, {"note": 0, "velocity": 0, "duration": 63}, {"note": 76, "velocity": 92, "duration": 182}, {"note": 74, "velocity": 92, "duration": 186}, {"note": 72, "velocity": 92, "duration": 181}, {"note": 74, "velocity": 90, "duration": 171}, {"note": 0, "velocity": 0, "duration": 69}, {"note": 79, "velocity": 90, "duration": 380}, {"note": 0, "velocity": 0, "duration": 100}, {"note": 76, "velocity": 90, "duration": 1200}, {"note": 0, "velocity": 0, "duration": 960}, {"note": 81, "velocity": 86, "duration": 167}, {"note": 0, "velocity": 0, "duration": 73}, {"note": 81, "velocity": 84, "duration": 167}, {"note": 0, "velocity": 0, "duration": 73}, {"note": 79, "velocity": 94, "duration": 338}, {"note": 0, "velocity": 0, "duration": 142}, {"note": 76, "velocity": 89, "duration": 201}, {"note": 74, "velocity": 88, "duration": 174}, {"note": 0, "velocity": 0, "duration": 66}, {"note": 76, "velocity": 88, "duration": 433}, {"note": 74, "velocity": 88, "duration": 422}, {"note": 72, "velocity": 90, "duration": 425}, {"note": 0, "velocity": 0, "duration": 535}, {"note": 76, "velocity": 90, "duration": 359}, {"note": 0, "velocity": 0, "duration": 121}, {"note": 74, "velocity": 89, "duration": 171}, {"note": 0, "velocity": 0, "duration": 69}, {"note": 72, "velocity": 89, "duration": 166}, {"note": 0, "velocity": 0, "duration": 74}, {"note": 74, "velocity": 92, "duration": 720}, {"note": 72, "velocity": 86, "duration": 240}, {"note": 72, "velocity": 88, "duration": 1361}, {"note": 0, "velocity": 0, "duration": 2959}, {"note": 76, "velocity": 92, "duration": 207}, {"note": 79, "velocity": 89, "duration": 179}, {"note": 0, "velocity": 0, "duration": 61}, {"note": 81, "velocity": 89, "duration": 404}, {"note": 0, "velocity": 0, "duration": 76}, {"note": 84, "velocity": 90, "duration": 376}, {"note": 0, "velocity": 0, "duration": 104}, {"note": 83, "velocity": 90, "duration": 563}, {"note": 0, "velocity": 0, "duration": 157}, {"note": 79, "velocity": 89, "duration": 230}, {"note": 76, "velocity": 92, "duration": 740}, {"note": 72, "velocity": 89, "duration": 197}, {"note": 72, "velocity": 88, "duration": 654}, {"note": 0, "velocity": 0, "duration": 66}, {"note": 81, "velocity": 86, "duration": 180}, {"note": 81, "velocity": 89, "duration": 184}, {"note": 79, "velocity": 83, "duration": 152}, {"note": 0, "velocity": 0, "duration": 88}, {"note": 76, "velocity": 95, "duration": 200}, {"note": 74, "velocity": 89, "duration": 203}, {"note": 76, "velocity": 94, "duration": 1062}, {"note": 0, "velocity": 0, "duration": 1338}, {"note": 76, "velocity": 94, "duration": 165}, {"note": 0, "velocity": 0, "duration": 75}, {"note": 79, "velocity": 89, "duration": 157}, {"note": 0, "velocity": 0, "duration": 83}, {"note": 81, "velocity": 89, "duration": 413}, {"note": 0, "velocity": 0, "duration": 67}, {"note": 84, "velocity": 89, "duration": 417}, {"note": 0, "velocity": 0, "duration": 63}, {"note": 83, "velocity": 94, "duration": 388}, {"note": 0, "velocity": 0, "duration": 332}, {"note": 76, "velocity": 90, "duration": 209}, {"note": 84, "velocity": 92, "duration": 529}, {"note": 0, "velocity": 0, "duration": 191}, {"note": 76, "velocity": 90, "duration": 205}, {"note": 74, "velocity": 97, "duration": 487}, {"note": 0, "velocity": 0, "duration": 233}, {"note": 81, "velocity": 90, "duration": 160}, {"note": 0, "velocity": 0, "duration": 80}, {"note": 81, "velocity": 89, "duration": 150}, {"note": 0, "velocity": 0, "duration": 90}, {"note": 79, "velocity": 92, "duration": 142}, {"note": 0, "velocity": 0, "duration": 98}, {"note": 76, "velocity": 92, "duration": 174}, {"note": 0, "velocity": 0, "duration": 66}, {"note": 74, "velocity": 94, "duration": 398}, {"note": 0, "velocity": 0, "duration": 82}, {"note": 72, "velocity": 90, "duration": 1540}, {"note": 0, "velocity": 0, "duration": 620}, {"note": 76, "velocity": 92, "duration": 207}, {"note": 79, "velocity": 89, "duration": 179}, {"note": 0, "velocity": 0, "duration": 61}, {"note": 81, "velocity": 89, "duration": 404}, {"note": 0, "velocity": 0, "duration": 76}, {"note": 84, "velocity": 90, "duration": 376}, {"note": 0, "velocity": 0, "duration": 104}, {"note": 83, "velocity": 90, "duration": 563}, {"note": 0, "velocity": 0, "duration": 157}, {"note": 79, "velocity": 89, "duration": 230}, {"note": 76, "velocity": 92, "duration": 740}, {"note": 72, "velocity": 89, "duration": 197}, {"note": 72, "velocity": 88, "duration": 654}, {"note": 0, "velocity": 0, "duration": 66}, {"note": 81, "velocity": 86, "duration": 180}, {"note": 81, "velocity": 89, "duration": 184}, {"note": 79, "velocity": 83, "duration": 152}, {"note": 0, "velocity": 0, "duration": 88}, {"note": 76, "velocity": 95, "duration": 200}, {"note": 74, "velocity": 89, "duration": 203}, {"note": 76, "velocity": 94, "duration": 1062}, {"note": 0, "velocity": 0, "duration": 1338}, {"note": 76, "velocity": 94, "duration": 165}, {"note": 0, "velocity": 0, "duration": 75}, {"note": 79, "velocity": 89, "duration": 157}, {"note": 0, "velocity": 0, "duration": 83}, {"note": 81, "velocity": 89, "duration": 413}, {"note": 0, "velocity": 0, "duration": 67}, {"note": 84, "velocity": 89, "duration": 417}, {"note": 0, "velocity": 0, "duration": 63}, {"note": 83, "velocity": 94, "duration": 388}, {"note": 0, "velocity": 0, "duration": 332}, {"note": 76, "velocity": 90, "duration": 209}, {"note": 84, "velocity": 92, "duration": 529}, {"note": 0, "velocity": 0, "duration": 191}, {"note": 76, "velocity": 90, "duration": 205}, {"note": 74, "velocity": 97, "duration": 487}, {"note": 0, "velocity": 0, "duration": 233}, {"note": 81, "velocity": 90, "duration": 160}, {"note": 0, "velocity": 0, "duration": 80}, {"note": 81, "velocity": 89, "duration": 150}, {"note": 0, "velocity": 0, "duration": 90}, {"note": 79, "velocity": 92, "duration": 142}, {"note": 0, "velocity": 0, "duration": 98}, {"note": 76, "velocity": 92, "duration": 174}, {"note": 0, "velocity": 0, "duration": 66}, {"note": 74, "velocity": 94, "duration": 398}, {"note": 0, "velocity": 0, "duration": 82}, {"note": 72, "velocity": 90, "duration": 1540}, {"note": 0, "velocity": 0, "duration": 620}, {"note": 76, "velocity": 92, "duration": 207}, {"note": 79, "velocity": 89, "duration": 179}, {"note": 0, "velocity": 0, "duration": 61}, {"note": 81, "velocity": 89, "duration": 404}, {"note": 0, "velocity": 0, "duration": 76}, {"note": 84, "velocity": 90, "duration": 376}, {"note": 0, "velocity": 0, "duration": 104}, {"note": 83, "velocity": 90, "duration": 563}, {"note": 0, "velocity": 0, "duration": 157}, {"note": 76, "velocity": 89, "duration": 230}, {"note": 84, "velocity": 92, "duration": 740}, {"note": 76, "velocity": 89, "duration": 197}, {"note": 74, "velocity": 88, "duration": 654}, {"note": 0, "velocity": 0, "duration": 66}, {"note": 81, "velocity": 86, "duration": 180}, {"note": 81, "velocity": 89, "duration": 184}, {"note": 79, "velocity": 83, "duration": 152}, {"note": 0, "velocity": 0, "duration": 88}, {"note": 76, "velocity": 95, "duration": 200}, {"note": 74, "velocity": 89, "duration": 203}, {"note": 72, "velocity": 94, "duration": 1062}, {"note": 0, "velocity": 0, "duration": 1338}, {"note": 76, "velocity": 90, "duration": 168}, {"note": 0, "velocity": 0, "duration": 72}, {"note": 76, "velocity": 92, "duration": 173}, {"note": 0, "velocity": 0, "duration": 67}, {"note": 74, "velocity": 93, "duration": 599}, {"note": 0, "velocity": 0, "duration": 121}, {"note": 71, "velocity": 90, "duration": 519}, {"note": 72, "velocity": 92, "duration": 1113}, {"note": 0, "velocity": 0, "duration": 1047}, {"note": 76, "velocity": 89, "duration": 177}, {"note": 0, "velocity": 0, "duration": 63}, {"note": 76, "velocity": 92, "duration": 182}, {"note": 74, "velocity": 92, "duration": 480}, {"note": 0, "velocity": 0, "duration": 240}, {"note": 79, "velocity": 90, "duration": 380}, {"note": 0, "velocity": 0, "duration": 100}, {"note": 76, "velocity": 90, "duration": 1200}, {"note": 0, "velocity": 0, "duration": 960}, {"note": 81, "velocity": 86, "duration": 360}, {"note": 0, "velocity": 0, "duration": 120}, {"note": 79, "velocity": 94, "duration": 338}, {"note": 0, "velocity": 0, "duration": 142}, {"note": 76, "velocity": 89, "duration": 201}, {"note": 74, "velocity": 88, "duration": 174}, {"note": 0, "velocity": 0, "duration": 66}, {"note": 76, "velocity": 88, "duration": 433}, {"note": 74, "velocity": 88, "duration": 422}, {"note": 72, "velocity": 90, "duration": 425}, {"note": 0, "velocity": 0, "duration": 535}, {"note": 76, "velocity": 90, "duration": 359}, {"note": 0, "velocity": 0, "duration": 121}, {"note": 74, "velocity": 89, "duration": 171}, {"note": 0, "velocity": 0, "duration": 69}, {"note": 72, "velocity": 89, "duration": 166}, {"note": 0, "velocity": 0, "duration": 74}, {"note": 74, "velocity": 92, "duration": 720}, {"note": 0, "velocity": 0, "duration": 496}, {"note": 71, "velocity": 93, "duration": 376}, {"note": 0, "velocity": 0, "duration": 103}, {"note": 69, "velocity": 88, "duration": 1877}]]