[[{"note": 64, "velocity": 90, "duration": 177}, {"note": 0, "velocity": 0, "duration": 63}, {"note": 64, "velocity": 91, "duration": 382}, {"note": 0, "velocity": 0, "duration": 98}, {"note": 66, "velocity": 82, "duration": 82}, {"note": 69, "velocity": 82, "duration": 77}, {"note": 71, "velocity": 85, "duration": 187}, {"note": 71, "velocity": 85, "duration": 342}, {"note": 0, "velocity": 0, "duration": 138}, {"note": 69, "velocity": 87, "duration": 64}, {"note": 71, "velocity": 87, "duration": 80}, {"note": 73, "velocity": 85, "duration": 173}, {"note": 0, "velocity": 0, "duration": 67}, {"note": 76, "velocity": 86, "duration": 187}, {"note": 73, "velocity": 86, "duration": 123}, {"note": 71, "velocity": 80, "duration": 100}, {"note": 69, "velocity": 83, "duration": 190}, {"note": 66, "velocity": 85, "duration": 497}, {"note": 0, "velocity": 0, "duration": 463}, {"note": 64, "velocity": 89, "duration": 167}, {"note": 0, "velocity": 0, "duration": 73}, {"note": 64, "velocity": 88, "duration": 394}, {"note": 0, "velocity": 0, "duration": 86}, {"note": 66, "velocity": 85, "duration": 77}, {"note": 69, "velocity": 84, "duration": 74}, {"note": 71, "velocity": 86, "duration": 499}, {"note": 0, "velocity": 0, "duration": 221}, {"note": 69, "velocity": 85, "duration": 78}, {"note": 71, "velocity": 86, "duration": 78}, {"note": 73, "velocity": 87, "duration": 174}, {"note": 0, "velocity": 0, "duration": 66}, {"note": 76, "velocity": 86, "duration": 174}, {"note": 0, "velocity": 0, "duration": 66}, {"note": 73, "velocity": 85, "duration": 100}, {"note": 71, "velocity": 85, "duration": 92}, {"note": 69, "velocity": 82, "duration": 191}, {"note": 66, "velocity": 79, "duration": 559}, {"note": 0, "velocity": 0, "duration": 401}, {"note": 69, "velocity": 85, "duration": 183}, {"note": 69, "velocity": 86, "duration": 304}, {"note": 73, "velocity": 84, "duration": 190}, {"note": 73, "velocity": 84, "duration": 78}, {"note": 73, "velocity": 85, "duration": 187}, {"note": 71, "velocity": 88, "duration": 321}, {"note": 0, "velocity": 0, "duration": 159}, {"note": 73, "velocity": 80, "duration": 73}, {"note": 76, "velocity": 89, "duration": 69}, {"note": 78, "velocity": 87, "duration": 167}, {"note": 0, "velocity": 0, "duration": 73}, {"note": 76, "velocity": 88, "duration": 145}, {"note": 0, "velocity": 0, "duration": 95}, {"note": 76, "velocity": 85, "duration": 71}, {"note": 76, "velocity": 88, "duration": 184}, {"note": 71, "velocity": 84, "duration": 75}, {"note": 73, "velocity": 78, "duration": 520}, {"note": 0, "velocity": 0, "duration": 320}, {"note": 69, "velocity": 86, "duration": 87}, {"note": 71, "velocity": 85, "duration": 166}, {"note": 0, "velocity": 0, "duration": 74}, {"note": 71, "velocity": 87, "duration": 159}, {"note": 0, "velocity": 0, "duration": 81}, {"note": 71, "velocity": 87, "duration": 72}, {"note": 69, "velocity": 86, "duration": 218}, {"note": 73, "velocity": 85, "duration": 322}, {"note": 71, "velocity": 88, "duration": 205}, {"note": 0, "velocity": 0, "duration": 155}, {"note": 69, "velocity": 84, "duration": 223}, {"note": 66, "velocity": 82, "duration": 115}, {"note": 64, "velocity": 86, "duration": 1432}, {"note": 0, "velocity": 0, "duration": 488}, {"note": 64, "velocity": 90, "duration": 177}, {"note": 0, "velocity": 0, "duration": 63}, {"note": 64, "velocity": 91, "duration": 382}, {"note": 0, "velocity": 0, "duration": 98}, {"note": 66, "velocity": 82, "duration": 82}, {"note": 69, "velocity": 82, "duration": 77}, {"note": 71, "velocity": 85, "duration": 187}, {"note": 71, "velocity": 85, "duration": 342}, {"note": 0, "velocity": 0, "duration": 138}, {"note": 69, "velocity": 87, "duration": 64}, {"note": 71, "velocity": 87, "duration": 80}, {"note": 73, "velocity": 85, "duration": 173}, {"note": 0, "velocity": 0, "duration": 67}, {"note": 76, "velocity": 86, "duration": 187}, {"note": 73, "velocity": 86, "duration": 123}, {"note": 71, "velocity": 80, "duration": 100}, {"note": 69, "velocity": 83, "duration": 190}, {"note": 66, "velocity": 85, "duration": 497}, {"note": 0, "velocity": 0, "duration": 463}, {"note": 64, "velocity": 89, "duration": 167}, {"note": 0, "velocity": 0, "duration": 73}, {"note": 64, "velocity": 88, "duration": 394}, {"note": 0, "velocity": 0, "duration": 86}, {"note": 66, "velocity": 85, "duration": 77}, {"note": 69, "velocity": 84, "duration": 74}, {"note": 71, "velocity": 86, "duration": 240}, {"note": 71, "velocity": 86, "duration": 240}, {"note": 0, "velocity": 0, "duration": 240}, {"note": 69, "velocity": 85, "duration": 78}, {"note": 71, "velocity": 86, "duration": 78}, {"note": 73, "velocity": 87, "duration": 174}, {"note": 0, "velocity": 0, "duration": 66}, {"note": 76, "velocity": 86, "duration": 174}, {"note": 0, "velocity": 0, "duration": 66}, {"note": 73, "velocity": 85, "duration": 100}, {"note": 71, "velocity": 85, "duration": 92}, {"note": 69, "velocity": 82, "duration": 191}, {"note": 66, "velocity": 79, "duration": 559}, {"note": 0, "velocity": 0, "duration": 401}, {"note": 69, "velocity": 85, "duration": 183}, {"note": 69, "velocity": 86, "duration": 240}, {"note": 69, "velocity": 84, "duration": 78}, {"note": 73, "velocity": 84, "duration": 190}, {"note": 73, "velocity": 84, "duration": 78}, {"note": 73, "velocity": 85, "duration": 187}, {"note": 71, "velocity": 88, "duration": 321}, {"note": 0, "velocity": 0, "duration": 159}, {"note": 73, "velocity": 80, "duration": 73}, {"note": 76, "velocity": 89, "duration": 69}, {"note": 78, "velocity": 87, "duration": 167}, {"note": 0, "velocity": 0, "duration": 73}, {"note": 76, "velocity": 88, "duration": 145}, {"note": 0, "velocity": 0, "duration": 95}, {"note": 76, "velocity": 85, "duration": 71}, {"note": 76, "velocity": 88, "duration": 184}, {"note": 71, "velocity": 84, "duration": 75}, {"note": 73, "velocity": 78, "duration": 520}, {"note": 0, "velocity": 0, "duration": 320}, {"note": 69, "velocity": 86, "duration": 87}, {"note": 71, "velocity": 85, "duration": 166}, {"note": 0, "velocity": 0, "duration": 74}, {"note": 71, "velocity": 87, "duration": 159}, {"note": 0, "velocity": 0, "duration": 81}, {"note": 71, "velocity": 87, "duration": 72}, {"note": 69, "velocity": 86, "duration": 218}, {"note": 69, "velocity": 86, "duration": 120}, {"note": 73, "velocity": 85, "duration": 240}, {"note": 71, "velocity": 88, "duration": 205}, {"note": 0, "velocity": 0, "duration": 155}, {"note": 71, "velocity": 84, "duration": 360}, {"note": 69, "velocity": 86, "duration": 1432}, {"note": 0, "velocity": 0, "duration": 728}, {"note": 78, "velocity": 91, "duration": 167}, {"note": 0, "velocity": 0, "duration": 73}, {"note": 78, "velocity": 91, "duration": 153}, {"note": 0, "velocity": 0, "duration": 87}, {"note": 76, "velocity": 91, "duration": 72}, {"note": 78, "velocity": 89, "duration": 319}, {"note": 73, "velocity": 95, "duration": 297}, {"note": 0, "velocity": 0, "duration": 183}, {"note": 73, "velocity": 88, "duration": 62}, {"note": 76, "velocity": 90, "duration": 83}, {"note": 78, "velocity": 95, "duration": 178}, {"note": 0, "velocity": 0, "duration": 62}, {"note": 76, "velocity": 89, "duration": 64}, {"note": 76, "velocity": 91, "duration": 58}, {"note": 0, "velocity": 0, "duration": 62}, {"note": 76, "velocity": 88, "duration": 75}, {"note": 78, "velocity": 88, "duration": 311}, {"note": 76, "velocity": 90, "duration": 794}, {"note": 0, "velocity": 0, "duration": 406}, {"note": 78, "velocity": 90, "duration": 176}, {"note": 0, "velocity": 0, "duration": 64}, {"note": 78, "velocity": 87, "duration": 172}, {"note": 0, "velocity": 0, "duration": 68}, {"note": 76, "velocity": 88, "duration": 63}, {"note": 76, "velocity": 86, "duration": 73}, {"note": 78, "velocity": 85, "duration": 162}, {"note": 0, "velocity": 0, "duration": 78}, {"note": 76, "velocity": 93, "duration": 158}, {"note": 0, "velocity": 0, "duration": 82}, {"note": 73, "velocity": 85, "duration": 92}, {"note": 71, "velocity": 88, "duration": 58}, {"note": 0, "velocity": 0, "duration": 62}, {"note": 69, "velocity": 86, "duration": 204}, {"note": 71, "velocity": 88, "duration": 910}, {"note": 0, "velocity": 0, "duration": 1250}, {"note": 78, "velocity": 86, "duration": 157}, {"note": 0, "velocity": 0, "duration": 83}, {"note": 78, "velocity": 85, "duration": 183}, {"note": 76, "velocity": 85, "duration": 75}, {"note": 78, "velocity": 86, "duration": 287}, {"note": 0, "velocity": 0, "duration": 73}, {"note": 76, "velocity": 90, "duration": 338}, {"note": 0, "velocity": 0, "duration": 142}, {"note": 73, "velocity": 84, "duration": 85}, {"note": 76, "velocity": 89, "duration": 71}, {"note": 78, "velocity": 83, "duration": 170}, {"note": 0, "velocity": 0, "duration": 70}, {"note": 76, "velocity": 91, "duration": 117}, {"note": 0, "velocity": 0, "duration": 123}, {"note": 73, "velocity": 88, "duration": 159}, {"note": 71, "velocity": 85, "duration": 66}, {"note": 69, "velocity": 83, "duration": 65}, {"note": 69, "velocity": 88, "duration": 661}, {"note": 0, "velocity": 0, "duration": 779}, {"note": 69, "velocity": 80, "duration": 77}, {"note": 71, "velocity": 84, "duration": 179}, {"note": 0, "velocity": 0, "duration": 61}, {"note": 73, "velocity": 82, "duration": 100}, {"note": 71, "velocity": 85, "duration": 164}, {"note": 0, "velocity": 0, "duration": 76}, {"note": 69, "velocity": 85, "duration": 465}, {"note": 0, "velocity": 0, "duration": 135}, {"note": 73, "velocity": 86, "duration": 84}, {"note": 76, "velocity": 95, "duration": 54}, {"note": 0, "velocity": 0, "duration": 66}, {"note": 78, "velocity": 84, "duration": 162}, {"note": 0, "velocity": 0, "duration": 78}, {"note": 76, "velocity": 86, "duration": 136}, {"note": 0, "velocity": 0, "duration": 104}, {"note": 76, "velocity": 86, "duration": 70}, {"note": 78, "velocity": 85, "duration": 307}, {"note": 78, "velocity": 86, "duration": 235}, {"note": 76, "velocity": 85, "duration": 1272}, {"note": 0, "velocity": 0, "duration": 408}, {"note": 64, "velocity": 90, "duration": 177}, {"note": 0, "velocity": 0, "duration": 63}, {"note": 64, "velocity": 91, "duration": 382}, {"note": 0, "velocity": 0, "duration": 98}, {"note": 66, "velocity": 82, "duration": 82}, {"note": 69, "velocity": 82, "duration": 77}, {"note": 71, "velocity": 85, "duration": 187}, {"note": 71, "velocity": 85, "duration": 342}, {"note": 71, "velocity": 85, "duration": 120}, {"note": 69, "velocity": 87, "duration": 64}, {"note": 71, "velocity": 87, "duration": 80}, {"note": 73, "velocity": 85, "duration": 173}, {"note": 0, "velocity": 0, "duration": 67}, {"note": 76, "velocity": 86, "duration": 187}, {"note": 73, "velocity": 86, "duration": 123}, {"note": 71, "velocity": 80, "duration": 100}, {"note": 69, "velocity": 83, "duration": 190}, {"note": 66, "velocity": 85, "duration": 497}, {"note": 0, "velocity": 0, "duration": 463}, {"note": 64, "velocity": 89, "duration": 167}, {"note": 0, "velocity": 0, "duration": 73}, {"note": 64, "velocity": 88, "duration": 394}, {"note": 0, "velocity": 0, "duration": 86}, {"note": 66, "velocity": 85, "duration": 77}, {"note": 69, "velocity": 84, "duration": 74}, {"note": 71, "velocity": 86, "duration": 360}, {"note": 0, "velocity": 0, "duration": 240}, {"note": 71, "velocity": 86, "duration": 120}, {"note": 69, "velocity": 85, "duration": 78}, {"note": 71, "velocity": 86, "duration": 78}, {"note": 73, "velocity": 87, "duration": 174}, {"note": 0, "velocity": 0, "duration": 66}, {"note": 76, "velocity": 86, "duration": 174}, {"note": 0, "velocity": 0, "duration": 66}, {"note": 73, "velocity": 85, "duration": 100}, {"note": 71, "velocity": 85, "duration": 92}, {"note": 69, "velocity": 82, "duration": 191}, {"note": 66, "velocity": 79, "duration": 559}, {"note": 0, "velocity": 0, "duration": 401}, {"note": 69, "velocity": 85, "duration": 183}, {"note": 69, "velocity": 86, "duration": 240}, {"note": 69, "velocity": 84, "duration": 78}, {"note": 73, "velocity": 84, "duration": 190}, {"note": 73, "velocity": 84, "duration": 78}, {"note": 73, "velocity": 85, "duration": 187}, {"note": 71, "velocity": 88, "duration": 321}, {"note": 0, "velocity": 0, "duration": 159}, {"note": 73, "velocity": 80, "duration": 73}, {"note": 76, "velocity": 89, "duration": 69}, {"note": 78, "velocity": 87, "duration": 167}, {"note": 0, "velocity": 0, "duration": 73}, {"note": 76, "velocity": 88, "duration": 120}, {"note": 76, "velocity": 88, "duration": 120}, {"note": 76, "velocity": 85, "duration": 71}, {"note": 76, "velocity": 88, "duration": 184}, {"note": 71, "velocity": 84, "duration": 75}, {"note": 73, "velocity": 78, "duration": 520}, {"note": 0, "velocity": 0, "duration": 680}, {"note": 69, "velocity": 87, "duration": 120}, {"note": 69, "velocity": 87, "duration": 360}, {"note": 73, "velocity": 86, "duration": 120}, {"note": 73, "velocity": 85, "duration": 240}, {"note": 0, "velocity": 0, "duration": 120}, {"note": 71, "velocity": 88, "duration": 360}, {"note": 0, "velocity": 0, "duration": 120}, {"note": 71, "velocity": 84, "duration": 240}, {"note": 69, "velocity": 86, "duration": 1432}, {"note": 0, "velocity": 0, "duration": 16088}, {"note": 78, "velocity": 91, "duration": 167}, {"note": 0, "velocity": 0, "duration": 73}, {"note": 78, "velocity": 91, "duration": 153}, {"note": 0, "velocity": 0, "duration": 87}, {"note": 76, "velocity": 91, "duration": 72}, {"note": 78, "velocity": 89, "duration": 319}, {"note": 73, "velocity": 95, "duration": 297}, {"note": 0, "velocity": 0, "duration": 183}, {"note": 73, "velocity": 88, "duration": 62}, {"note": 76, "velocity": 90, "duration": 83}, {"note": 78, "velocity": 95, "duration": 178}, {"note": 0, "velocity": 0, "duration": 62}, {"note": 76, "velocity": 89, "duration": 64}, {"note": 76, "velocity": 91, "duration": 58}, {"note": 0, "velocity": 0, "duration": 62}, {"note": 76, "velocity": 88, "duration": 75}, {"note": 78, "velocity": 88, "duration": 311}, {"note": 76, "velocity": 90, "duration": 794}, {"note": 0, "velocity": 0, "duration": 406}, {"note": 78, "velocity": 90, "duration": 176}, {"note": 0, "velocity": 0, "duration": 64}, {"note": 78, "velocity": 87, "duration": 172}, {"note": 0, "velocity": 0, "duration": 68}, {"note": 76, "velocity": 88, "duration": 63}, {"note": 76, "velocity": 86, "duration": 73}, {"note": 78, "velocity": 85, "duration": 162}, {"note": 0, "velocity": 0, "duration": 78}, {"note": 76, "velocity": 93, "duration": 158}, {"note": 0, "velocity": 0, "duration": 82}, {"note": 73, "velocity": 85, "duration": 92}, {"note": 71, "velocity": 88, "duration": 58}, {"note": 0, "velocity": 0, "duration": 62}, {"note": 69, "velocity": 86, "duration": 204}, {"note": 71, "velocity": 88, "duration": 910}, {"note": 0, "velocity": 0, "duration": 1250}, {"note": 78, "velocity": 86, "duration": 157}, {"note": 0, "velocity": 0, "duration": 83}, {"note": 78, "velocity": 85, "duration": 183}, {"note": 76, "velocity": 85, "duration": 75}, {"note": 78, "velocity": 86, "duration": 287}, {"note": 0, "velocity": 0, "duration": 73}, {"note": 76, "velocity": 90, "duration": 338}, {"note": 0, "velocity": 0, "duration": 142}, {"note": 73, "velocity": 84, "duration": 85}, {"note": 76, "velocity": 89, "duration": 71}, {"note": 78, "velocity": 83, "duration": 170}, {"note": 0, "velocity": 0, "duration": 70}, {"note": 76, "velocity": 91, "duration": 117}, {"note": 0, "velocity": 0, "duration": 123}, {"note": 73, "velocity": 88, "duration": 159}, {"note": 71, "velocity": 85, "duration": 66}, {"note": 69, "velocity": 83, "duration": 65}, {"note": 69, "velocity": 88, "duration": 661}, {"note": 0, "velocity": 0, "duration": 779}, {"note": 69, "velocity": 80, "duration": 77}, {"note": 71, "velocity": 84, "duration": 179}, {"note": 0, "velocity": 0, "duration": 61}, {"note": 73, "velocity": 82, "duration": 100}, {"note": 71, "velocity": 85, "duration": 164}, {"note": 0, "velocity": 0, "duration": 76}, {"note": 69, "velocity": 85, "duration": 465}, {"note": 0, "velocity": 0, "duration": 135}, {"note": 73, "velocity": 86, "duration": 84}, {"note": 76, "velocity": 95, "duration": 54}, {"note": 0, "velocity": 0, "duration": 66}, {"note": 78, "velocity": 84, "duration": 162}, {"note": 0, "velocity": 0, "duration": 78}, {"note": 76, "velocity": 86, "duration": 136}, {"note": 0, "velocity": 0, "duration": 104}, {"note": 76, "velocity": 86, "duration": 70}, {"note": 78, "velocity": 85, "duration": 307}, {"note": 78, "velocity": 86, "duration": 235}, {"note": 76, "velocity": 85, "duration": 1272}, {"note": 0, "velocity": 0, "duration": 408}, {"note": 64, "velocity": 90, "duration": 177}, {"note": 0, "velocity": 0, "duration": 63}, {"note": 64, "velocity": 91, "duration": 382}, {"note": 0, "velocity": 0, "duration": 98}, {"note": 66, "velocity": 82, "duration": 82}, {"note": 69, "velocity": 82, "duration": 77}, {"note": 71, "velocity": 85, "duration": 187}, {"note": 71, "velocity": 85, "duration": 342}, {"note": 71, "velocity": 85, "duration": 120}, {"note": 69, "velocity": 87, "duration": 64}, {"note": 71, "velocity": 87, "duration": 80}, {"note": 73, "velocity": 85, "duration": 173}, {"note": 0, "velocity": 0, "duration": 67}, {"note": 76, "velocity": 86, "duration": 187}, {"note": 73, "velocity": 86, "duration": 123}, {"note": 71, "velocity": 80, "duration": 100}, {"note": 69, "velocity": 83, "duration": 190}, {"note": 66, "velocity": 85, "duration": 497}, {"note": 0, "velocity": 0, "duration": 463}, {"note": 64, "velocity": 89, "duration": 167}, {"note": 0, "velocity": 0, "duration": 73}, {"note": 64, "velocity": 88, "duration": 394}, {"note": 0, "velocity": 0, "duration": 86}, {"note": 66, "velocity": 85, "duration": 77}, {"note": 69, "velocity": 84, "duration": 74}, {"note": 71, "velocity": 86, "duration": 360}, {"note": 0, "velocity": 0, "duration": 240}, {"note": 71, "velocity": 86, "duration": 120}, {"note": 69, "velocity": 85, "duration": 78}, {"note": 71, "velocity": 86, "duration": 78}, {"note": 73, "velocity": 87, "duration": 174}, {"note": 0, "velocity": 0, "duration": 66}, {"note": 76, "velocity": 86, "duration": 174}, {"note": 0, "velocity": 0, "duration": 66}, {"note": 73, "velocity": 85, "duration": 100}, {"note": 71, "velocity": 85, "duration": 92}, {"note": 69, "velocity": 82, "duration": 191}, {"note": 66, "velocity": 79, "duration": 559}, {"note": 0, "velocity": 0, "duration": 401}, {"note": 69, "velocity": 85, "duration": 183}, {"note": 69, "velocity": 86, "duration": 240}, {"note": 69, "velocity": 84, "duration": 78}, {"note": 73, "velocity": 84, "duration": 190}, {"note": 73, "velocity": 84, "duration": 78}, {"note": 73, "velocity": 85, "duration": 187}, {"note": 71, "velocity": 88, "duration": 321}, {"note": 0, "velocity": 0, "duration": 159}, {"note": 73, "velocity": 80, "duration": 73}, {"note": 76, "velocity": 89, "duration": 69}, {"note": 78, "velocity": 87, "duration": 167}, {"note": 0, "velocity": 0, "duration": 73}, {"note": 76, "velocity": 88, "duration": 120}, {"note": 76, "velocity": 88, "duration": 120}, {"note": 76, "velocity": 85, "duration": 71}, {"note": 76, "velocity": 88, "duration": 184}, {"note": 71, "velocity": 84, "duration": 75}, {"note": 73, "velocity": 78, "duration": 520}, {"note": 0, "velocity": 0, "duration": 680}, {"note": 69, "velocity": 87, "duration": 120}, {"note": 69, "velocity": 87, "duration": 360}, {"note": 73, "velocity": 86, "duration": 120}, {"note": 73, "velocity": 85, "duration": 240}, {"note": 0, "velocity": 0, "duration": 120}, {"note": 71, "velocity": 88, "duration": 360}, {"note": 0, "velocity": 0, "duration": 120}, {"note": 71, "velocity": 84, "duration": 120}, {"note": 71, "velocity": 84, "duration": 360}, {"note": 69, "velocity": 86, "duration": 1432}, {"note": 0, "velocity": 0, "duration": 552}, {"note": 69, "velocity": 83, "duration": 142}, {"note": 0, "velocity": 0, "duration": 67}, {"note": 69, "velocity": 84, "duration": 278}, {"note": 73, "velocity": 79, "duration": 117}, {"note": 73, "velocity": 84, "duration": 180}, {"note": 0, "velocity": 0, "duration": 93}, {"note": 71, "velocity": 80, "duration": 946}, {"note": 0, "velocity": 0, "duration": 564}, {"note": 71, "velocity": 79, "duration": 170}, {"note": 71, "velocity": 85, "duration": 330}, {"note": 69, "velocity": 81, "duration": 1968}]]