[[{"note": 62, "velocity": 90, "duration": 121}, {"note": 65, "velocity": 84, "duration": 41}, {"note": 0, "velocity": 0, "duration": 79}, {"note": 65, "velocity": 84, "duration": 78}, {"note": 62, "velocity": 83, "duration": 88}, {"note": 65, "velocity": 85, "duration": 82}, {"note": 67, "velocity": 84, "duration": 189}, {"note": 67, "velocity": 85, "duration": 637}, {"note": 0, "velocity": 0, "duration": 443}, {"note": 62, "velocity": 84, "duration": 100}, {"note": 65, "velocity": 83, "duration": 70}, {"note": 65, "velocity": 84, "duration": 97}, {"note": 62, "velocity": 86, "duration": 93}, {"note": 65, "velocity": 85, "duration": 109}, {"note": 69, "velocity": 85, "duration": 185}, {"note": 69, "velocity": 87, "duration": 828}, {"note": 0, "velocity": 0, "duration": 252}, {"note": 62, "velocity": 87, "duration": 111}, {"note": 65, "velocity": 81, "duration": 64}, {"note": 65, "velocity": 82, "duration": 98}, {"note": 62, "velocity": 84, "duration": 111}, {"note": 65, "velocity": 84, "duration": 77}, {"note": 65, "velocity": 79, "duration": 77}, {"note": 67, "velocity": 78, "duration": 70}, {"note": 72, "velocity": 84, "duration": 302}, {"note": 69, "velocity": 85, "duration": 200}, {"note": 67, "velocity": 83, "duration": 235}, {"note": 65, "velocity": 83, "duration": 212}, {"note": 62, "velocity": 85, "duration": 85}, {"note": 65, "velocity": 85, "duration": 118}, {"note": 0, "velocity": 0, "duration": 122}, {"note": 62, "velocity": 85, "duration": 100}, {"note": 65, "velocity": 89, "duration": 196}, {"note": 69, "velocity": 85, "duration": 82}, {"note": 69, "velocity": 90, "duration": 252}, {"note": 67, "velocity": 83, "duration": 747}, {"note": 0, "velocity": 0, "duration": 93}, {"note": 62, "velocity": 90, "duration": 121}, {"note": 65, "velocity": 84, "duration": 41}, {"note": 0, "velocity": 0, "duration": 79}, {"note": 65, "velocity": 84, "duration": 78}, {"note": 62, "velocity": 83, "duration": 88}, {"note": 65, "velocity": 85, "duration": 82}, {"note": 67, "velocity": 84, "duration": 189}, {"note": 67, "velocity": 85, "duration": 600}, {"note": 69, "velocity": 84, "duration": 360}, {"note": 69, "velocity": 84, "duration": 120}, {"note": 67, "velocity": 84, "duration": 100}, {"note": 65, "velocity": 83, "duration": 70}, {"note": 65, "velocity": 84, "duration": 97}, {"note": 62, "velocity": 86, "duration": 93}, {"note": 65, "velocity": 85, "duration": 109}, {"note": 72, "velocity": 85, "duration": 185}, {"note": 69, "velocity": 87, "duration": 828}, {"note": 0, "velocity": 0, "duration": 252}, {"note": 62, "velocity": 87, "duration": 111}, {"note": 65, "velocity": 81, "duration": 64}, {"note": 65, "velocity": 82, "duration": 98}, {"note": 62, "velocity": 84, "duration": 111}, {"note": 65, "velocity": 84, "duration": 77}, {"note": 65, "velocity": 79, "duration": 77}, {"note": 67, "velocity": 78, "duration": 70}, {"note": 72, "velocity": 84, "duration": 302}, {"note": 69, "velocity": 85, "duration": 200}, {"note": 67, "velocity": 83, "duration": 235}, {"note": 65, "velocity": 83, "duration": 212}, {"note": 70, "velocity": 89, "duration": 95}, {"note": 69, "velocity": 87, "duration": 154}, {"note": 0, "velocity": 0, "duration": 86}, {"note": 70, "velocity": 86, "duration": 75}, {"note": 70, "velocity": 85, "duration": 98}, {"note": 69, "velocity": 89, "duration": 180}, {"note": 70, "velocity": 83, "duration": 80}, {"note": 72, "velocity": 87, "duration": 940}, {"note": 0, "velocity": 0, "duration": 500}, {"note": 69, "velocity": 94, "duration": 171}, {"note": 0, "velocity": 0, "duration": 69}, {"note": 72, "velocity": 90, "duration": 183}, {"note": 77, "velocity": 90, "duration": 95}, {"note": 76, "velocity": 85, "duration": 60}, {"note": 74, "velocity": 88, "duration": 75}, {"note": 72, "velocity": 87, "duration": 73}, {"note": 72, "velocity": 89, "duration": 139}, {"note": 0, "velocity": 0, "duration": 101}, {"note": 67, "velocity": 83, "duration": 95}, {"note": 65, "velocity": 88, "duration": 87}, {"note": 67, "velocity": 85, "duration": 71}, {"note": 67, "velocity": 82, "duration": 95}, {"note": 69, "velocity": 84, "duration": 185}, {"note": 69, "velocity": 89, "duration": 363}, {"note": 0, "velocity": 0, "duration": 117}, {"note": 77, "velocity": 90, "duration": 95}, {"note": 76, "velocity": 85, "duration": 60}, {"note": 74, "velocity": 88, "duration": 75}, {"note": 72, "velocity": 87, "duration": 73}, {"note": 72, "velocity": 89, "duration": 139}, {"note": 0, "velocity": 0, "duration": 101}, {"note": 67, "velocity": 83, "duration": 95}, {"note": 65, "velocity": 88, "duration": 87}, {"note": 67, "velocity": 85, "duration": 71}, {"note": 67, "velocity": 82, "duration": 95}, {"note": 69, "velocity": 84, "duration": 185}, {"note": 65, "velocity": 89, "duration": 363}, {"note": 0, "velocity": 0, "duration": 117}, {"note": 77, "velocity": 90, "duration": 95}, {"note": 76, "velocity": 85, "duration": 60}, {"note": 74, "velocity": 88, "duration": 75}, {"note": 72, "velocity": 87, "duration": 73}, {"note": 72, "velocity": 89, "duration": 139}, {"note": 0, "velocity": 0, "duration": 101}, {"note": 67, "velocity": 83, "duration": 95}, {"note": 65, "velocity": 88, "duration": 87}, {"note": 67, "velocity": 85, "duration": 71}, {"note": 67, "velocity": 82, "duration": 95}, {"note": 69, "velocity": 84, "duration": 185}, {"note": 69, "velocity": 89, "duration": 363}, {"note": 60, "velocity": 85, "duration": 73}, {"note": 70, "velocity": 83, "duration": 75}, {"note": 69, "velocity": 83, "duration": 85}, {"note": 70, "velocity": 89, "duration": 70}, {"note": 72, "velocity": 84, "duration": 192}, {"note": 69, "velocity": 83, "duration": 80}, {"note": 69, "velocity": 84, "duration": 97}, {"note": 69, "velocity": 84, "duration": 224}, {"note": 67, "velocity": 78, "duration": 260}, {"note": 0, "velocity": 0, "duration": 100}, {"note": 69, "velocity": 94, "duration": 171}, {"note": 0, "velocity": 0, "duration": 69}, {"note": 72, "velocity": 90, "duration": 183}, {"note": 77, "velocity": 90, "duration": 95}, {"note": 76, "velocity": 85, "duration": 60}, {"note": 74, "velocity": 88, "duration": 75}, {"note": 72, "velocity": 87, "duration": 73}, {"note": 72, "velocity": 89, "duration": 139}, {"note": 0, "velocity": 0, "duration": 101}, {"note": 67, "velocity": 83, "duration": 95}, {"note": 65, "velocity": 88, "duration": 87}, {"note": 67, "velocity": 85, "duration": 71}, {"note": 67, "velocity": 82, "duration": 95}, {"note": 69, "velocity": 84, "duration": 185}, {"note": 69, "velocity": 89, "duration": 363}, {"note": 0, "velocity": 0, "duration": 117}, {"note": 77, "velocity": 90, "duration": 95}, {"note": 76, "velocity": 85, "duration": 60}, {"note": 74, "velocity": 88, "duration": 75}, {"note": 72, "velocity": 87, "duration": 73}, {"note": 72, "velocity": 89, "duration": 139}, {"note": 0, "velocity": 0, "duration": 101}, {"note": 67, "velocity": 83, "duration": 95}, {"note": 65, "velocity": 88, "duration": 87}, {"note": 67, "velocity": 85, "duration": 71}, {"note": 67, "velocity": 82, "duration": 95}, {"note": 69, "velocity": 84, "duration": 185}, {"note": 65, "velocity": 89, "duration": 363}, {"note": 0, "velocity": 0, "duration": 117}, {"note": 77, "velocity": 90, "duration": 95}, {"note": 76, "velocity": 85, "duration": 60}, {"note": 74, "velocity": 88, "duration": 75}, {"note": 72, "velocity": 87, "duration": 73}, {"note": 72, "velocity": 89, "duration": 139}, {"note": 0, "velocity": 0, "duration": 101}, {"note": 67, "velocity": 83, "duration": 95}, {"note": 65, "velocity": 88, "duration": 87}, {"note": 67, "velocity": 85, "duration": 71}, {"note": 67, "velocity": 82, "duration": 95}, {"note": 69, "velocity": 84, "duration": 185}, {"note": 69, "velocity": 89, "duration": 363}, {"note": 60, "velocity": 85, "duration": 73}, {"note": 70, "velocity": 83, "duration": 75}, {"note": 69, "velocity": 83, "duration": 120}, {"note": 0, "velocity": 0, "duration": 120}, {"note": 65, "velocity": 85, "duration": 63}, {"note": 65, "velocity": 85, "duration": 60}, {"note": 67, "velocity": 82, "duration": 325}, {"note": 65, "velocity": 83, "duration": 952}, {"note": 0, "velocity": 0, "duration": 8648}, {"note": 62, "velocity": 90, "duration": 121}, {"note": 65, "velocity": 84, "duration": 41}, {"note": 0, "velocity": 0, "duration": 79}, {"note": 65, "velocity": 84, "duration": 78}, {"note": 62, "velocity": 83, "duration": 88}, {"note": 65, "velocity": 85, "duration": 82}, {"note": 67, "velocity": 84, "duration": 189}, {"note": 67, "velocity": 85, "duration": 637}, {"note": 0, "velocity": 0, "duration": 443}, {"note": 62, "velocity": 84, "duration": 100}, {"note": 65, "velocity": 83, "duration": 70}, {"note": 65, "velocity": 84, "duration": 97}, {"note": 62, "velocity": 86, "duration": 93}, {"note": 65, "velocity": 85, "duration": 109}, {"note": 69, "velocity": 85, "duration": 185}, {"note": 69, "velocity": 87, "duration": 828}, {"note": 0, "velocity": 0, "duration": 252}, {"note": 62, "velocity": 87, "duration": 111}, {"note": 65, "velocity": 81, "duration": 64}, {"note": 65, "velocity": 82, "duration": 98}, {"note": 62, "velocity": 84, "duration": 111}, {"note": 65, "velocity": 84, "duration": 77}, {"note": 65, "velocity": 79, "duration": 77}, {"note": 67, "velocity": 78, "duration": 70}, {"note": 72, "velocity": 84, "duration": 302}, {"note": 69, "velocity": 85, "duration": 200}, {"note": 67, "velocity": 83, "duration": 235}, {"note": 65, "velocity": 83, "duration": 212}, {"note": 62, "velocity": 85, "duration": 85}, {"note": 65, "velocity": 85, "duration": 118}, {"note": 0, "velocity": 0, "duration": 122}, {"note": 62, "velocity": 85, "duration": 100}, {"note": 65, "velocity": 89, "duration": 196}, {"note": 69, "velocity": 85, "duration": 82}, {"note": 69, "velocity": 90, "duration": 252}, {"note": 67, "velocity": 83, "duration": 747}, {"note": 0, "velocity": 0, "duration": 93}, {"note": 62, "velocity": 90, "duration": 121}, {"note": 65, "velocity": 84, "duration": 41}, {"note": 0, "velocity": 0, "duration": 79}, {"note": 65, "velocity": 84, "duration": 78}, {"note": 62, "velocity": 83, "duration": 88}, {"note": 65, "velocity": 85, "duration": 82}, {"note": 67, "velocity": 84, "duration": 189}, {"note": 67, "velocity": 85, "duration": 600}, {"note": 69, "velocity": 84, "duration": 360}, {"note": 69, "velocity": 84, "duration": 120}, {"note": 67, "velocity": 84, "duration": 100}, {"note": 65, "velocity": 83, "duration": 70}, {"note": 65, "velocity": 84, "duration": 97}, {"note": 62, "velocity": 86, "duration": 93}, {"note": 65, "velocity": 85, "duration": 109}, {"note": 72, "velocity": 85, "duration": 185}, {"note": 69, "velocity": 87, "duration": 828}, {"note": 0, "velocity": 0, "duration": 252}, {"note": 62, "velocity": 87, "duration": 111}, {"note": 65, "velocity": 81, "duration": 64}, {"note": 65, "velocity": 82, "duration": 98}, {"note": 62, "velocity": 84, "duration": 111}, {"note": 65, "velocity": 84, "duration": 77}, {"note": 65, "velocity": 79, "duration": 77}, {"note": 67, "velocity": 78, "duration": 70}, {"note": 72, "velocity": 84, "duration": 302}, {"note": 69, "velocity": 85, "duration": 200}, {"note": 67, "velocity": 83, "duration": 235}, {"note": 65, "velocity": 83, "duration": 212}, {"note": 70, "velocity": 89, "duration": 95}, {"note": 69, "velocity": 87, "duration": 154}, {"note": 0, "velocity": 0, "duration": 86}, {"note": 70, "velocity": 86, "duration": 75}, {"note": 70, "velocity": 85, "duration": 98}, {"note": 69, "velocity": 89, "duration": 180}, {"note": 70, "velocity": 83, "duration": 80}, {"note": 72, "velocity": 87, "duration": 940}, {"note": 0, "velocity": 0, "duration": 500}, {"note": 69, "velocity": 94, "duration": 171}, {"note": 0, "velocity": 0, "duration": 69}, {"note": 72, "velocity": 90, "duration": 183}, {"note": 77, "velocity": 90, "duration": 95}, {"note": 76, "velocity": 85, "duration": 60}, {"note": 74, "velocity": 88, "duration": 75}, {"note": 72, "velocity": 87, "duration": 73}, {"note": 72, "velocity": 89, "duration": 139}, {"note": 0, "velocity": 0, "duration": 101}, {"note": 67, "velocity": 83, "duration": 95}, {"note": 65, "velocity": 88, "duration": 87}, {"note": 67, "velocity": 85, "duration": 71}, {"note": 67, "velocity": 82, "duration": 95}, {"note": 69, "velocity": 84, "duration": 185}, {"note": 69, "velocity": 89, "duration": 363}, {"note": 0, "velocity": 0, "duration": 117}, {"note": 77, "velocity": 90, "duration": 95}, {"note": 76, "velocity": 85, "duration": 60}, {"note": 74, "velocity": 88, "duration": 75}, {"note": 72, "velocity": 87, "duration": 73}, {"note": 72, "velocity": 89, "duration": 139}, {"note": 0, "velocity": 0, "duration": 101}, {"note": 67, "velocity": 83, "duration": 95}, {"note": 65, "velocity": 88, "duration": 87}, {"note": 67, "velocity": 85, "duration": 71}, {"note": 67, "velocity": 82, "duration": 95}, {"note": 69, "velocity": 84, "duration": 185}, {"note": 65, "velocity": 89, "duration": 363}, {"note": 0, "velocity": 0, "duration": 117}, {"note": 77, "velocity": 90, "duration": 95}, {"note": 76, "velocity": 85, "duration": 60}, {"note": 74, "velocity": 88, "duration": 75}, {"note": 72, "velocity": 87, "duration": 73}, {"note": 72, "velocity": 89, "duration": 139}, {"note": 0, "velocity": 0, "duration": 101}, {"note": 67, "velocity": 83, "duration": 95}, {"note": 65, "velocity": 88, "duration": 87}, {"note": 67, "velocity": 85, "duration": 71}, {"note": 67, "velocity": 82, "duration": 95}, {"note": 69, "velocity": 84, "duration": 185}, {"note": 69, "velocity": 89, "duration": 363}, {"note": 60, "velocity": 85, "duration": 73}, {"note": 70, "velocity": 83, "duration": 75}, {"note": 69, "velocity": 83, "duration": 85}, {"note": 70, "velocity": 89, "duration": 70}, {"note": 72, "velocity": 84, "duration": 192}, {"note": 69, "velocity": 83, "duration": 80}, {"note": 69, "velocity": 84, "duration": 97}, {"note": 69, "velocity": 84, "duration": 224}, {"note": 67, "velocity": 78, "duration": 260}, {"note": 0, "velocity": 0, "duration": 100}, {"note": 69, "velocity": 94, "duration": 171}, {"note": 0, "velocity": 0, "duration": 69}, {"note": 72, "velocity": 90, "duration": 183}, {"note": 77, "velocity": 90, "duration": 95}, {"note": 76, "velocity": 85, "duration": 60}, {"note": 74, "velocity": 88, "duration": 75}, {"note": 72, "velocity": 87, "duration": 73}, {"note": 72, "velocity": 89, "duration": 139}, {"note": 0, "velocity": 0, "duration": 101}, {"note": 67, "velocity": 83, "duration": 95}, {"note": 65, "velocity": 88, "duration": 87}, {"note": 67, "velocity": 85, "duration": 71}, {"note": 67, "velocity": 82, "duration": 95}, {"note": 69, "velocity": 84, "duration": 185}, {"note": 69, "velocity": 89, "duration": 363}, {"note": 0, "velocity": 0, "duration": 117}, {"note": 77, "velocity": 90, "duration": 95}, {"note": 76, "velocity": 85, "duration": 60}, {"note": 74, "velocity": 88, "duration": 75}, {"note": 72, "velocity": 87, "duration": 73}, {"note": 72, "velocity": 89, "duration": 139}, {"note": 0, "velocity": 0, "duration": 101}, {"note": 67, "velocity": 83, "duration": 95}, {"note": 65, "velocity": 88, "duration": 87}, {"note": 67, "velocity": 85, "duration": 71}, {"note": 67, "velocity": 82, "duration": 95}, {"note": 69, "velocity": 84, "duration": 185}, {"note": 65, "velocity": 89, "duration": 363}, {"note": 0, "velocity": 0, "duration": 117}, {"note": 77, "velocity": 90, "duration": 95}, {"note": 76, "velocity": 85, "duration": 60}, {"note": 74, "velocity": 88, "duration": 75}, {"note": 72, "velocity": 87, "duration": 73}, {"note": 72, "velocity": 89, "duration": 139}, {"note": 0, "velocity": 0, "duration": 101}, {"note": 67, "velocity": 83, "duration": 95}, {"note": 65, "velocity": 88, "duration": 87}, {"note": 67, "velocity": 85, "duration": 71}, {"note": 67, "velocity": 82, "duration": 95}, {"note": 69, "velocity": 84, "duration": 185}, {"note": 69, "velocity": 89, "duration": 363}, {"note": 60, "velocity": 85, "duration": 73}, {"note": 70, "velocity": 83, "duration": 75}, {"note": 69, "velocity": 83, "duration": 120}, {"note": 0, "velocity": 0, "duration": 120}, {"note": 65, "velocity": 85, "duration": 63}, {"note": 65, "velocity": 85, "duration": 60}, {"note": 67, "velocity": 82, "duration": 325}, {"note": 65, "velocity": 83, "duration": 952}, {"note": 0, "velocity": 0, "duration": 488}, {"note": 69, "velocity": 94, "duration": 171}, {"note": 0, "velocity": 0, "duration": 69}, {"note": 72, "velocity": 90, "duration": 183}, {"note": 77, "velocity": 90, "duration": 95}, {"note": 76, "velocity": 85, "duration": 60}, {"note": 74, "velocity": 88, "duration": 75}, {"note": 72, "velocity": 87, "duration": 73}, {"note": 72, "velocity": 89, "duration": 139}, {"note": 0, "velocity": 0, "duration": 101}, {"note": 67, "velocity": 83, "duration": 95}, {"note": 65, "velocity": 88, "duration": 87}, {"note": 67, "velocity": 85, "duration": 71}, {"note": 67, "velocity": 82, "duration": 95}, {"note": 69, "velocity": 84, "duration": 185}, {"note": 69, "velocity": 89, "duration": 363}, {"note": 0, "velocity": 0, "duration": 117}, {"note": 77, "velocity": 90, "duration": 95}, {"note": 76, "velocity": 85, "duration": 60}, {"note": 74, "velocity": 88, "duration": 75}, {"note": 72, "velocity": 87, "duration": 73}, {"note": 72, "velocity": 89, "duration": 139}, {"note": 0, "velocity": 0, "duration": 101}, {"note": 67, "velocity": 83, "duration": 95}, {"note": 65, "velocity": 88, "duration": 87}, {"note": 67, "velocity": 85, "duration": 71}, {"note": 67, "velocity": 82, "duration": 95}, {"note": 69, "velocity": 84, "duration": 185}, {"note": 65, "velocity": 89, "duration": 363}, {"note": 0, "velocity": 0, "duration": 117}, {"note": 77, "velocity": 90, "duration": 95}, {"note": 76, "velocity": 85, "duration": 60}, {"note": 74, "velocity": 88, "duration": 75}, {"note": 72, "velocity": 87, "duration": 73}, {"note": 72, "velocity": 89, "duration": 139}, {"note": 0, "velocity": 0, "duration": 101}, {"note": 67, "velocity": 83, "duration": 95}, {"note": 65, "velocity": 88, "duration": 87}, {"note": 67, "velocity": 85, "duration": 71}, {"note": 67, "velocity": 82, "duration": 95}, {"note": 69, "velocity": 84, "duration": 185}, {"note": 69, "velocity": 89, "duration": 363}, {"note": 60, "velocity": 85, "duration": 73}, {"note": 70, "velocity": 83, "duration": 75}, {"note": 69, "velocity": 83, "duration": 85}, {"note": 70, "velocity": 89, "duration": 70}, {"note": 72, "velocity": 84, "duration": 192}, {"note": 69, "velocity": 83, "duration": 80}, {"note": 69, "velocity": 84, "duration": 97}, {"note": 69, "velocity": 84, "duration": 224}, {"note": 67, "velocity": 78, "duration": 260}, {"note": 0, "velocity": 0, "duration": 100}, {"note": 69, "velocity": 94, "duration": 171}, {"note": 0, "velocity": 0, "duration": 69}, {"note": 72, "velocity": 90, "duration": 183}, {"note": 77, "velocity": 90, "duration": 95}, {"note": 76, "velocity": 85, "duration": 60}, {"note": 74, "velocity": 88, "duration": 75}, {"note": 72, "velocity": 87, "duration": 73}, {"note": 72, "velocity": 89, "duration": 139}, {"note": 0, "velocity": 0, "duration": 101}, {"note": 67, "velocity": 83, "duration": 95}, {"note": 65, "velocity": 88, "duration": 87}, {"note": 67, "velocity": 85, "duration": 71}, {"note": 67, "velocity": 82, "duration": 95}, {"note": 69, "velocity": 84, "duration": 185}, {"note": 69, "velocity": 89, "duration": 363}, {"note": 0, "velocity": 0, "duration": 117}, {"note": 77, "velocity": 90, "duration": 95}, {"note": 76, "velocity": 85, "duration": 60}, {"note": 74, "velocity": 88, "duration": 75}, {"note": 72, "velocity": 87, "duration": 73}, {"note": 72, "velocity": 89, "duration": 139}, {"note": 0, "velocity": 0, "duration": 101}, {"note": 67, "velocity": 83, "duration": 95}, {"note": 65, "velocity": 88, "duration": 87}, {"note": 67, "velocity": 85, "duration": 71}, {"note": 67, "velocity": 82, "duration": 95}, {"note": 69, "velocity": 84, "duration": 185}, {"note": 65, "velocity": 89, "duration": 363}, {"note": 0, "velocity": 0, "duration": 117}, {"note": 77, "velocity": 90, "duration": 95}, {"note": 76, "velocity": 85, "duration": 60}, {"note": 74, "velocity": 88, "duration": 75}, {"note": 72, "velocity": 87, "duration": 73}, {"note": 72, "velocity": 89, "duration": 139}, {"note": 0, "velocity": 0, "duration": 101}, {"note": 67, "velocity": 83, "duration": 95}, {"note": 65, "velocity": 88, "duration": 87}, {"note": 67, "velocity": 85, "duration": 71}, {"note": 67, "velocity": 82, "duration": 95}, {"note": 69, "velocity": 84, "duration": 185}, {"note": 69, "velocity": 89, "duration": 363}, {"note": 60, "velocity": 85, "duration": 73}, {"note": 70, "velocity": 83, "duration": 75}, {"note": 69, "velocity": 83, "duration": 120}, {"note": 0, "velocity": 0, "duration": 120}, {"note": 65, "velocity": 85, "duration": 63}, {"note": 65, "velocity": 85, "duration": 60}, {"note": 67, "velocity": 82, "duration": 325}, {"note": 65, "velocity": 83, "duration": 720}, {"note": 0, "velocity": 0, "duration": 87}, {"note": 60, "velocity": 87, "duration": 108}, {"note": 70, "velocity": 97, "duration": 122}, {"note": 69, "velocity": 94, "duration": 254}, {"note": 65, "velocity": 87, "duration": 112}, {"note": 65, "velocity": 90, "duration": 113}, {"note": 67, "velocity": 85, "duration": 312}, {"note": 65, "velocity": 84, "duration": 1053}]]