[[{"note": 69, "velocity": 90, "duration": 67}, {"note": 71, "velocity": 88, "duration": 92}, {"note": 73, "velocity": 87, "duration": 197}, {"note": 69, "velocity": 91, "duration": 171}, {"note": 0, "velocity": 0, "duration": 69}, {"note": 71, "velocity": 92, "duration": 209}, {"note": 69, "velocity": 90, "duration": 68}, {"note": 66, "velocity": 89, "duration": 184}, {"note": 71, "velocity": 88, "duration": 330}, {"note": 0, "velocity": 0, "duration": 270}, {"note": 69, "velocity": 88, "duration": 186}, {"note": 69, "velocity": 90, "duration": 151}, {"note": 0, "velocity": 0, "duration": 89}, {"note": 66, "velocity": 90, "duration": 166}, {"note": 0, "velocity": 0, "duration": 74}, {"note": 64, "velocity": 93, "duration": 208}, {"note": 73, "velocity": 85, "duration": 88}, {"note": 73, "velocity": 88, "duration": 518}, {"note": 0, "velocity": 0, "duration": 322}, {"note": 69, "velocity": 86, "duration": 72}, {"note": 71, "velocity": 86, "duration": 85}, {"note": 73, "velocity": 88, "duration": 176}, {"note": 0, "velocity": 0, "duration": 64}, {"note": 69, "velocity": 91, "duration": 161}, {"note": 0, "velocity": 0, "duration": 79}, {"note": 71, "velocity": 90, "duration": 195}, {"note": 73, "velocity": 89, "duration": 62}, {"note": 66, "velocity": 90, "duration": 322}, {"note": 66, "velocity": 87, "duration": 97}, {"note": 68, "velocity": 90, "duration": 90}, {"note": 69, "velocity": 87, "duration": 173}, {"note": 0, "velocity": 0, "duration": 67}, {"note": 69, "velocity": 88, "duration": 64}, {"note": 69, "velocity": 90, "duration": 297}, {"note": 0, "velocity": 0, "duration": 63}, {"note": 71, "velocity": 88, "duration": 235}, {"note": 71, "velocity": 93, "duration": 546}, {"note": 0, "velocity": 0, "duration": 654}, {"note": 69, "velocity": 90, "duration": 67}, {"note": 71, "velocity": 88, "duration": 92}, {"note": 73, "velocity": 87, "duration": 197}, {"note": 69, "velocity": 91, "duration": 171}, {"note": 0, "velocity": 0, "duration": 69}, {"note": 71, "velocity": 92, "duration": 209}, {"note": 69, "velocity": 90, "duration": 68}, {"note": 66, "velocity": 89, "duration": 184}, {"note": 71, "velocity": 88, "duration": 330}, {"note": 0, "velocity": 0, "duration": 270}, {"note": 69, "velocity": 88, "duration": 186}, {"note": 69, "velocity": 90, "duration": 151}, {"note": 0, "velocity": 0, "duration": 89}, {"note": 66, "velocity": 90, "duration": 166}, {"note": 0, "velocity": 0, "duration": 74}, {"note": 64, "velocity": 93, "duration": 208}, {"note": 73, "velocity": 85, "duration": 88}, {"note": 73, "velocity": 88, "duration": 518}, {"note": 0, "velocity": 0, "duration": 322}, {"note": 69, "velocity": 86, "duration": 72}, {"note": 71, "velocity": 86, "duration": 85}, {"note": 73, "velocity": 88, "duration": 176}, {"note": 0, "velocity": 0, "duration": 64}, {"note": 69, "velocity": 91, "duration": 161}, {"note": 0, "velocity": 0, "duration": 79}, {"note": 71, "velocity": 90, "duration": 195}, {"note": 69, "velocity": 89, "duration": 62}, {"note": 71, "velocity": 90, "duration": 322}, {"note": 66, "velocity": 87, "duration": 240}, {"note": 0, "velocity": 0, "duration": 240}, {"note": 64, "velocity": 90, "duration": 120}, {"note": 0, "velocity": 0, "duration": 120}, {"note": 64, "velocity": 95, "duration": 195}, {"note": 71, "velocity": 88, "duration": 120}, {"note": 71, "velocity": 89, "duration": 480}, {"note": 0, "velocity": 0, "duration": 120}, {"note": 69, "velocity": 93, "duration": 64}, {"note": 71, "velocity": 88, "duration": 58}, {"note": 0, "velocity": 0, "duration": 62}, {"note": 73, "velocity": 93, "duration": 90}, {"note": 69, "velocity": 89, "duration": 75}, {"note": 73, "velocity": 92, "duration": 949}, {"note": 71, "velocity": 91, "duration": 431}, {"note": 69, "velocity": 88, "duration": 68}, {"note": 71, "velocity": 92, "duration": 81}, {"note": 73, "velocity": 93, "duration": 86}, {"note": 69, "velocity": 92, "duration": 67}, {"note": 73, "velocity": 92, "duration": 185}, {"note": 73, "velocity": 95, "duration": 72}, {"note": 73, "velocity": 90, "duration": 166}, {"note": 0, "velocity": 0, "duration": 74}, {"note": 80, "velocity": 90, "duration": 189}, {"note": 80, "velocity": 93, "duration": 242}, {"note": 0, "velocity": 0, "duration": 358}, {"note": 78, "velocity": 97, "duration": 81}, {"note": 80, "velocity": 93, "duration": 55}, {"note": 0, "velocity": 0, "duration": 65}, {"note": 81, "velocity": 89, "duration": 87}, {"note": 80, "velocity": 93, "duration": 66}, {"note": 81, "velocity": 92, "duration": 296}, {"note": 0, "velocity": 0, "duration": 64}, {"note": 81, "velocity": 95, "duration": 307}, {"note": 74, "velocity": 93, "duration": 69}, {"note": 74, "velocity": 102, "duration": 454}, {"note": 0, "velocity": 0, "duration": 146}, {"note": 76, "velocity": 93, "duration": 64}, {"note": 73, "velocity": 86, "duration": 94}, {"note": 69, "velocity": 88, "duration": 76}, {"note": 71, "velocity": 87, "duration": 86}, {"note": 73, "velocity": 88, "duration": 299}, {"note": 0, "velocity": 0, "duration": 61}, {"note": 73, "velocity": 91, "duration": 316}, {"note": 71, "velocity": 93, "duration": 67}, {"note": 71, "velocity": 93, "duration": 315}, {"note": 76, "velocity": 100, "duration": 193}, {"note": 76, "velocity": 91, "duration": 171}, {"note": 0, "velocity": 0, "duration": 69}, {"note": 78, "velocity": 97, "duration": 172}, {"note": 0, "velocity": 0, "duration": 68}, {"note": 76, "velocity": 93, "duration": 179}, {"note": 0, "velocity": 0, "duration": 61}, {"note": 69, "velocity": 92, "duration": 67}, {"note": 73, "velocity": 93, "duration": 314}, {"note": 74, "velocity": 97, "duration": 85}, {"note": 71, "velocity": 95, "duration": 286}, {"note": 0, "velocity": 0, "duration": 74}, {"note": 76, "velocity": 90, "duration": 193}, {"note": 76, "velocity": 95, "duration": 170}, {"note": 0, "velocity": 0, "duration": 70}, {"note": 78, "velocity": 90, "duration": 187}, {"note": 76, "velocity": 90, "duration": 179}, {"note": 0, "velocity": 0, "duration": 61}, {"note": 64, "velocity": 92, "duration": 90}, {"note": 66, "velocity": 87, "duration": 302}, {"note": 68, "velocity": 91, "duration": 63}, {"note": 69, "velocity": 87, "duration": 289}, {"note": 0, "velocity": 0, "duration": 71}, {"note": 76, "velocity": 90, "duration": 184}, {"note": 76, "velocity": 93, "duration": 175}, {"note": 0, "velocity": 0, "duration": 65}, {"note": 78, "velocity": 95, "duration": 188}, {"note": 76, "velocity": 90, "duration": 184}, {"note": 69, "velocity": 91, "duration": 71}, {"note": 69, "velocity": 91, "duration": 367}, {"note": 0, "velocity": 0, "duration": 233}, {"note": 76, "velocity": 93, "duration": 178}, {"note": 0, "velocity": 0, "duration": 62}, {"note": 69, "velocity": 88, "duration": 73}, {"note": 69, "velocity": 92, "duration": 183}, {"note": 71, "velocity": 90, "duration": 183}, {"note": 73, "velocity": 91, "duration": 1085}, {"note": 0, "velocity": 0, "duration": 235}, {"note": 76, "velocity": 100, "duration": 193}, {"note": 76, "velocity": 91, "duration": 171}, {"note": 0, "velocity": 0, "duration": 69}, {"note": 78, "velocity": 97, "duration": 172}, {"note": 0, "velocity": 0, "duration": 68}, {"note": 76, "velocity": 93, "duration": 179}, {"note": 0, "velocity": 0, "duration": 61}, {"note": 69, "velocity": 92, "duration": 67}, {"note": 73, "velocity": 93, "duration": 314}, {"note": 74, "velocity": 97, "duration": 85}, {"note": 71, "velocity": 95, "duration": 286}, {"note": 0, "velocity": 0, "duration": 74}, {"note": 76, "velocity": 90, "duration": 193}, {"note": 76, "velocity": 95, "duration": 170}, {"note": 0, "velocity": 0, "duration": 70}, {"note": 78, "velocity": 90, "duration": 187}, {"note": 80, "velocity": 90, "duration": 179}, {"note": 0, "velocity": 0, "duration": 61}, {"note": 81, "velocity": 92, "duration": 90}, {"note": 83, "velocity": 87, "duration": 302}, {"note": 80, "velocity": 91, "duration": 63}, {"note": 81, "velocity": 87, "duration": 289}, {"note": 0, "velocity": 0, "duration": 551}, {"note": 78, "velocity": 95, "duration": 188}, {"note": 76, "velocity": 90, "duration": 184}, {"note": 69, "velocity": 91, "duration": 71}, {"note": 69, "velocity": 91, "duration": 360}, {"note": 69, "velocity": 87, "duration": 67}, {"note": 71, "velocity": 85, "duration": 71}, {"note": 74, "velocity": 90, "duration": 175}, {"note": 0, "velocity": 0, "duration": 65}, {"note": 73, "velocity": 87, "duration": 88}, {"note": 69, "velocity": 91, "duration": 323}, {"note": 71, "velocity": 90, "duration": 245}, {"note": 69, "velocity": 89, "duration": 832}, {"note": 0, "velocity": 0, "duration": 7088}, {"note": 69, "velocity": 90, "duration": 67}, {"note": 71, "velocity": 88, "duration": 92}, {"note": 73, "velocity": 87, "duration": 197}, {"note": 69, "velocity": 91, "duration": 171}, {"note": 0, "velocity": 0, "duration": 69}, {"note": 71, "velocity": 92, "duration": 209}, {"note": 69, "velocity": 90, "duration": 68}, {"note": 66, "velocity": 89, "duration": 184}, {"note": 71, "velocity": 88, "duration": 330}, {"note": 0, "velocity": 0, "duration": 270}, {"note": 69, "velocity": 88, "duration": 186}, {"note": 69, "velocity": 90, "duration": 151}, {"note": 0, "velocity": 0, "duration": 89}, {"note": 66, "velocity": 90, "duration": 166}, {"note": 0, "velocity": 0, "duration": 74}, {"note": 64, "velocity": 93, "duration": 208}, {"note": 73, "velocity": 85, "duration": 88}, {"note": 73, "velocity": 88, "duration": 518}, {"note": 0, "velocity": 0, "duration": 322}, {"note": 69, "velocity": 86, "duration": 72}, {"note": 71, "velocity": 86, "duration": 85}, {"note": 73, "velocity": 88, "duration": 176}, {"note": 0, "velocity": 0, "duration": 64}, {"note": 69, "velocity": 91, "duration": 161}, {"note": 0, "velocity": 0, "duration": 79}, {"note": 71, "velocity": 90, "duration": 195}, {"note": 73, "velocity": 89, "duration": 62}, {"note": 66, "velocity": 90, "duration": 322}, {"note": 66, "velocity": 87, "duration": 97}, {"note": 68, "velocity": 90, "duration": 90}, {"note": 69, "velocity": 87, "duration": 173}, {"note": 0, "velocity": 0, "duration": 67}, {"note": 69, "velocity": 88, "duration": 64}, {"note": 69, "velocity": 90, "duration": 297}, {"note": 0, "velocity": 0, "duration": 63}, {"note": 71, "velocity": 88, "duration": 235}, {"note": 71, "velocity": 93, "duration": 546}, {"note": 0, "velocity": 0, "duration": 654}, {"note": 69, "velocity": 90, "duration": 67}, {"note": 71, "velocity": 88, "duration": 92}, {"note": 73, "velocity": 87, "duration": 197}, {"note": 69, "velocity": 91, "duration": 171}, {"note": 0, "velocity": 0, "duration": 69}, {"note": 71, "velocity": 92, "duration": 209}, {"note": 69, "velocity": 90, "duration": 68}, {"note": 66, "velocity": 89, "duration": 184}, {"note": 71, "velocity": 88, "duration": 330}, {"note": 0, "velocity": 0, "duration": 270}, {"note": 69, "velocity": 88, "duration": 186}, {"note": 69, "velocity": 90, "duration": 151}, {"note": 0, "velocity": 0, "duration": 89}, {"note": 66, "velocity": 90, "duration": 166}, {"note": 0, "velocity": 0, "duration": 74}, {"note": 64, "velocity": 93, "duration": 208}, {"note": 73, "velocity": 85, "duration": 88}, {"note": 73, "velocity": 88, "duration": 518}, {"note": 0, "velocity": 0, "duration": 322}, {"note": 69, "velocity": 86, "duration": 72}, {"note": 71, "velocity": 86, "duration": 85}, {"note": 73, "velocity": 88, "duration": 176}, {"note": 0, "velocity": 0, "duration": 64}, {"note": 69, "velocity": 91, "duration": 161}, {"note": 0, "velocity": 0, "duration": 79}, {"note": 71, "velocity": 90, "duration": 195}, {"note": 69, "velocity": 89, "duration": 62}, {"note": 71, "velocity": 90, "duration": 322}, {"note": 66, "velocity": 87, "duration": 240}, {"note": 0, "velocity": 0, "duration": 240}, {"note": 64, "velocity": 90, "duration": 120}, {"note": 0, "velocity": 0, "duration": 120}, {"note": 64, "velocity": 95, "duration": 195}, {"note": 71, "velocity": 88, "duration": 120}, {"note": 71, "velocity": 89, "duration": 480}, {"note": 0, "velocity": 0, "duration": 120}, {"note": 69, "velocity": 93, "duration": 64}, {"note": 71, "velocity": 88, "duration": 58}, {"note": 0, "velocity": 0, "duration": 62}, {"note": 73, "velocity": 93, "duration": 90}, {"note": 69, "velocity": 89, "duration": 75}, {"note": 73, "velocity": 92, "duration": 949}, {"note": 71, "velocity": 91, "duration": 431}, {"note": 69, "velocity": 88, "duration": 68}, {"note": 71, "velocity": 92, "duration": 81}, {"note": 73, "velocity": 93, "duration": 86}, {"note": 69, "velocity": 92, "duration": 67}, {"note": 73, "velocity": 92, "duration": 185}, {"note": 73, "velocity": 95, "duration": 72}, {"note": 73, "velocity": 90, "duration": 166}, {"note": 0, "velocity": 0, "duration": 74}, {"note": 80, "velocity": 90, "duration": 189}, {"note": 80, "velocity": 93, "duration": 242}, {"note": 0, "velocity": 0, "duration": 358}, {"note": 78, "velocity": 97, "duration": 81}, {"note": 80, "velocity": 93, "duration": 55}, {"note": 0, "velocity": 0, "duration": 65}, {"note": 81, "velocity": 89, "duration": 87}, {"note": 80, "velocity": 93, "duration": 66}, {"note": 81, "velocity": 92, "duration": 296}, {"note": 0, "velocity": 0, "duration": 64}, {"note": 81, "velocity": 95, "duration": 307}, {"note": 74, "velocity": 93, "duration": 69}, {"note": 74, "velocity": 102, "duration": 454}, {"note": 0, "velocity": 0, "duration": 146}, {"note": 76, "velocity": 93, "duration": 64}, {"note": 73, "velocity": 86, "duration": 94}, {"note": 69, "velocity": 88, "duration": 76}, {"note": 71, "velocity": 87, "duration": 86}, {"note": 73, "velocity": 88, "duration": 299}, {"note": 0, "velocity": 0, "duration": 61}, {"note": 73, "velocity": 91, "duration": 316}, {"note": 71, "velocity": 93, "duration": 67}, {"note": 71, "velocity": 93, "duration": 315}, {"note": 76, "velocity": 100, "duration": 193}, {"note": 76, "velocity": 91, "duration": 171}, {"note": 0, "velocity": 0, "duration": 69}, {"note": 78, "velocity": 97, "duration": 172}, {"note": 0, "velocity": 0, "duration": 68}, {"note": 76, "velocity": 93, "duration": 179}, {"note": 0, "velocity": 0, "duration": 61}, {"note": 69, "velocity": 92, "duration": 67}, {"note": 73, "velocity": 93, "duration": 314}, {"note": 74, "velocity": 97, "duration": 85}, {"note": 71, "velocity": 95, "duration": 286}, {"note": 0, "velocity": 0, "duration": 74}, {"note": 76, "velocity": 90, "duration": 193}, {"note": 76, "velocity": 95, "duration": 170}, {"note": 0, "velocity": 0, "duration": 70}, {"note": 78, "velocity": 90, "duration": 187}, {"note": 76, "velocity": 90, "duration": 179}, {"note": 0, "velocity": 0, "duration": 61}, {"note": 64, "velocity": 92, "duration": 90}, {"note": 66, "velocity": 87, "duration": 302}, {"note": 68, "velocity": 91, "duration": 63}, {"note": 69, "velocity": 87, "duration": 289}, {"note": 0, "velocity": 0, "duration": 71}, {"note": 76, "velocity": 90, "duration": 184}, {"note": 76, "velocity": 93, "duration": 175}, {"note": 0, "velocity": 0, "duration": 65}, {"note": 78, "velocity": 95, "duration": 188}, {"note": 76, "velocity": 90, "duration": 184}, {"note": 69, "velocity": 91, "duration": 71}, {"note": 69, "velocity": 91, "duration": 367}, {"note": 0, "velocity": 0, "duration": 233}, {"note": 76, "velocity": 93, "duration": 178}, {"note": 0, "velocity": 0, "duration": 62}, {"note": 69, "velocity": 88, "duration": 73}, {"note": 69, "velocity": 92, "duration": 183}, {"note": 71, "velocity": 90, "duration": 183}, {"note": 73, "velocity": 91, "duration": 1085}, {"note": 0, "velocity": 0, "duration": 235}, {"note": 76, "velocity": 100, "duration": 193}, {"note": 76, "velocity": 91, "duration": 171}, {"note": 0, "velocity": 0, "duration": 69}, {"note": 78, "velocity": 97, "duration": 172}, {"note": 0, "velocity": 0, "duration": 68}, {"note": 76, "velocity": 93, "duration": 179}, {"note": 0, "velocity": 0, "duration": 61}, {"note": 69, "velocity": 92, "duration": 67}, {"note": 73, "velocity": 93, "duration": 314}, {"note": 74, "velocity": 97, "duration": 85}, {"note": 71, "velocity": 95, "duration": 286}, {"note": 0, "velocity": 0, "duration": 74}, {"note": 76, "velocity": 90, "duration": 193}, {"note": 76, "velocity": 95, "duration": 170}, {"note": 0, "velocity": 0, "duration": 70}, {"note": 78, "velocity": 90, "duration": 187}, {"note": 80, "velocity": 90, "duration": 179}, {"note": 0, "velocity": 0, "duration": 61}, {"note": 81, "velocity": 92, "duration": 90}, {"note": 83, "velocity": 87, "duration": 302}, {"note": 80, "velocity": 91, "duration": 63}, {"note": 81, "velocity": 87, "duration": 289}, {"note": 0, "velocity": 0, "duration": 551}, {"note": 78, "velocity": 95, "duration": 188}, {"note": 76, "velocity": 90, "duration": 184}, {"note": 69, "velocity": 91, "duration": 71}, {"note": 69, "velocity": 91, "duration": 360}, {"note": 69, "velocity": 87, "duration": 67}, {"note": 71, "velocity": 85, "duration": 71}, {"note": 74, "velocity": 90, "duration": 175}, {"note": 0, "velocity": 0, "duration": 65}, {"note": 73, "velocity": 87, "duration": 88}, {"note": 69, "velocity": 91, "duration": 323}, {"note": 71, "velocity": 90, "duration": 245}, {"note": 69, "velocity": 89, "duration": 832}, {"note": 0, "velocity": 0, "duration": 7304}, {"note": 73, "velocity": 92, "duration": 140}, {"note": 73, "velocity": 97, "duration": 110}, {"note": 76, "velocity": 95, "duration": 114}, {"note": 76, "velocity": 93, "duration": 114}, {"note": 76, "velocity": 93, "duration": 118}, {"note": 81, "velocity": 90, "duration": 89}, {"note": 81, "velocity": 97, "duration": 120}, {"note": 81, "velocity": 88, "duration": 129}, {"note": 83, "velocity": 92, "duration": 118}, {"note": 85, "velocity": 97, "duration": 183}, {"note": 85, "velocity": 95, "duration": 69}, {"note": 85, "velocity": 95, "duration": 320}, {"note": 83, "velocity": 90, "duration": 59}, {"note": 0, "velocity": 0, "duration": 61}, {"note": 83, "velocity": 97, "duration": 426}, {"note": 0, "velocity": 0, "duration": 174}, {"note": 80, "velocity": 97, "duration": 167}, {"note": 0, "velocity": 0, "duration": 73}, {"note": 81, "velocity": 92, "duration": 208}, {"note": 83, "velocity": 93, "duration": 178}, {"note": 0, "velocity": 0, "duration": 62}, {"note": 80, "velocity": 89, "duration": 74}, {"note": 76, "velocity": 93, "duration": 310}, {"note": 83, "velocity": 88, "duration": 62}, {"note": 83, "velocity": 91, "duration": 320}, {"note": 81, "velocity": 87, "duration": 379}, {"note": 0, "velocity": 0, "duration": 101}, {"note": 78, "velocity": 91, "duration": 192}, {"note": 76, "velocity": 93, "duration": 175}, {"note": 0, "velocity": 0, "duration": 65}, {"note": 69, "velocity": 90, "duration": 76}, {"note": 69, "velocity": 90, "duration": 283}, {"note": 0, "velocity": 0, "duration": 77}, {"note": 69, "velocity": 92, "duration": 72}, {"note": 71, "velocity": 87, "duration": 68}, {"note": 74, "velocity": 95, "duration": 175}, {"note": 0, "velocity": 0, "duration": 65}, {"note": 73, "velocity": 88, "duration": 208}, {"note": 69, "velocity": 92, "duration": 214}, {"note": 71, "velocity": 92, "duration": 218}, {"note": 69, "velocity": 97, "duration": 962}]]