[[{"note": 76, "velocity": 90, "duration": 252}, {"note": 75, "velocity": 90, "duration": 240}, {"note": 73, "velocity": 94, "duration": 644}, {"note": 0, "velocity": 0, "duration": 76}, {"note": 71, "velocity": 85, "duration": 207}, {"note": 68, "velocity": 85, "duration": 434}, {"note": 66, "velocity": 84, "duration": 229}, {"note": 68, "velocity": 84, "duration": 296}, {"note": 0, "velocity": 0, "duration": 184}, {"note": 71, "velocity": 81, "duration": 235}, {"note": 68, "velocity": 84, "duration": 267}, {"note": 71, "velocity": 87, "duration": 256}, {"note": 73, "velocity": 97, "duration": 612}, {"note": 0, "velocity": 0, "duration": 108}, {"note": 71, "velocity": 84, "duration": 75}, {"note": 73, "velocity": 90, "duration": 97}, {"note": 64, "velocity": 84, "duration": 644}, {"note": 0, "velocity": 0, "duration": 76}, {"note": 66, "velocity": 83, "duration": 195}, {"note": 68, "velocity": 88, "duration": 217}, {"note": 71, "velocity": 83, "duration": 238}, {"note": 66, "velocity": 78, "duration": 247}, {"note": 68, "velocity": 84, "duration": 241}, {"note": 71, "velocity": 84, "duration": 1297}, {"note": 0, "velocity": 0, "duration": 143}, {"note": 68, "velocity": 87, "duration": 264}, {"note": 71, "velocity": 84, "duration": 235}, {"note": 73, "velocity": 85, "duration": 720}, {"note": 71, "velocity": 84, "duration": 249}, {"note": 73, "velocity": 92, "duration": 590}, {"note": 0, "velocity": 0, "duration": 130}, {"note": 76, "velocity": 85, "duration": 216}, {"note": 78, "velocity": 84, "duration": 436}, {"note": 78, "velocity": 87, "duration": 193}, {"note": 75, "velocity": 87, "duration": 223}, {"note": 73, "velocity": 84, "duration": 422}, {"note": 73, "velocity": 88, "duration": 166}, {"note": 0, "velocity": 0, "duration": 74}, {"note": 71, "velocity": 87, "duration": 182}, {"note": 68, "velocity": 84, "duration": 771}, {"note": 71, "velocity": 84, "duration": 214}, {"note": 66, "velocity": 79, "duration": 198}, {"note": 61, "velocity": 83, "duration": 216}, {"note": 64, "velocity": 86, "duration": 239}, {"note": 66, "velocity": 84, "duration": 231}, {"note": 68, "velocity": 83, "duration": 1365}, {"note": 0, "velocity": 0, "duration": 555}, {"note": 66, "velocity": 85, "duration": 608}, {"note": 0, "velocity": 0, "duration": 112}, {"note": 68, "velocity": 87, "duration": 222}, {"note": 71, "velocity": 84, "duration": 480}, {"note": 68, "velocity": 87, "duration": 272}, {"note": 71, "velocity": 89, "duration": 343}, {"note": 0, "velocity": 0, "duration": 137}, {"note": 71, "velocity": 89, "duration": 205}, {"note": 73, "velocity": 92, "duration": 209}, {"note": 68, "velocity": 84, "duration": 249}, {"note": 66, "velocity": 83, "duration": 479}, {"note": 68, "velocity": 90, "duration": 197}, {"note": 71, "velocity": 87, "duration": 220}, {"note": 73, "velocity": 94, "duration": 628}, {"note": 0, "velocity": 0, "duration": 92}, {"note": 75, "velocity": 87, "duration": 190}, {"note": 73, "velocity": 90, "duration": 258}, {"note": 71, "velocity": 83, "duration": 270}, {"note": 73, "velocity": 88, "duration": 507}, {"note": 0, "velocity": 0, "duration": 213}, {"note": 76, "velocity": 84, "duration": 176}, {"note": 0, "velocity": 0, "duration": 64}, {"note": 78, "velocity": 84, "duration": 185}, {"note": 75, "velocity": 83, "duration": 191}, {"note": 73, "velocity": 89, "duration": 408}, {"note": 0, "velocity": 0, "duration": 72}, {"note": 71, "velocity": 85, "duration": 175}, {"note": 0, "velocity": 0, "duration": 65}, {"note": 73, "velocity": 90, "duration": 213}, {"note": 76, "velocity": 83, "duration": 703}, {"note": 73, "velocity": 88, "duration": 197}, {"note": 76, "velocity": 82, "duration": 489}, {"note": 80, "velocity": 84, "duration": 477}, {"note": 78, "velocity": 83, "duration": 1170}, {"note": 76, "velocity": 82, "duration": 207}, {"note": 73, "velocity": 83, "duration": 153}, {"note": 0, "velocity": 0, "duration": 87}, {"note": 71, "velocity": 83, "duration": 212}, {"note": 66, "velocity": 84, "duration": 251}, {"note": 68, "velocity": 84, "duration": 444}, {"note": 71, "velocity": 85, "duration": 202}, {"note": 73, "velocity": 90, "duration": 404}, {"note": 0, "velocity": 0, "duration": 76}, {"note": 76, "velocity": 85, "duration": 160}, {"note": 0, "velocity": 0, "duration": 80}, {"note": 73, "velocity": 92, "duration": 223}, {"note": 71, "velocity": 87, "duration": 1261}, {"note": 0, "velocity": 0, "duration": 179}, {"note": 76, "velocity": 87, "duration": 203}, {"note": 75, "velocity": 94, "duration": 243}, {"note": 73, "velocity": 90, "duration": 720}, {"note": 71, "velocity": 89, "duration": 253}, {"note": 68, "velocity": 82, "duration": 270}, {"note": 66, "velocity": 84, "duration": 241}, {"note": 68, "velocity": 84, "duration": 524}, {"note": 0, "velocity": 0, "duration": 196}, {"note": 71, "velocity": 87, "duration": 227}, {"note": 68, "velocity": 84, "duration": 257}, {"note": 71, "velocity": 83, "duration": 269}, {"note": 73, "velocity": 86, "duration": 618}, {"note": 0, "velocity": 0, "duration": 102}, {"note": 73, "velocity": 92, "duration": 229}, {"note": 64, "velocity": 87, "duration": 669}, {"note": 0, "velocity": 0, "duration": 291}, {"note": 68, "velocity": 85, "duration": 226}, {"note": 71, "velocity": 86, "duration": 234}, {"note": 66, "velocity": 85, "duration": 235}, {"note": 68, "velocity": 84, "duration": 245}, {"note": 71, "velocity": 84, "duration": 1314}, {"note": 0, "velocity": 0, "duration": 126}, {"note": 68, "velocity": 89, "duration": 254}, {"note": 71, "velocity": 92, "duration": 258}, {"note": 73, "velocity": 90, "duration": 679}, {"note": 71, "velocity": 85, "duration": 264}, {"note": 73, "velocity": 97, "duration": 754}, {"note": 76, "velocity": 88, "duration": 219}, {"note": 78, "velocity": 84, "duration": 420}, {"note": 78, "velocity": 85, "duration": 194}, {"note": 75, "velocity": 87, "duration": 251}, {"note": 73, "velocity": 89, "duration": 438}, {"note": 73, "velocity": 87, "duration": 199}, {"note": 71, "velocity": 78, "duration": 245}, {"note": 68, "velocity": 85, "duration": 749}, {"note": 71, "velocity": 84, "duration": 216}, {"note": 66, "velocity": 83, "duration": 226}, {"note": 61, "velocity": 84, "duration": 282}, {"note": 64, "velocity": 84, "duration": 257}, {"note": 66, "velocity": 83, "duration": 223}, {"note": 68, "velocity": 80, "duration": 1436}, {"note": 0, "velocity": 0, "duration": 484}, {"note": 66, "velocity": 86, "duration": 636}, {"note": 0, "velocity": 0, "duration": 84}, {"note": 68, "velocity": 88, "duration": 257}, {"note": 71, "velocity": 85, "duration": 483}, {"note": 68, "velocity": 79, "duration": 264}, {"note": 71, "velocity": 85, "duration": 334}, {"note": 0, "velocity": 0, "duration": 166}, {"note": 71, "velocity": 83, "duration": 210}, {"note": 73, "velocity": 90, "duration": 237}, {"note": 68, "velocity": 84, "duration": 211}, {"note": 66, "velocity": 83, "duration": 387}, {"note": 0, "velocity": 0, "duration": 93}, {"note": 68, "velocity": 84, "duration": 187}, {"note": 71, "velocity": 90, "duration": 195}, {"note": 73, "velocity": 87, "duration": 600}, {"note": 0, "velocity": 0, "duration": 120}, {"note": 75, "velocity": 87, "duration": 207}, {"note": 73, "velocity": 92, "duration": 263}, {"note": 71, "velocity": 85, "duration": 271}, {"note": 73, "velocity": 90, "duration": 577}, {"note": 0, "velocity": 0, "duration": 143}, {"note": 76, "velocity": 85, "duration": 193}, {"note": 78, "velocity": 87, "duration": 191}, {"note": 75, "velocity": 85, "duration": 175}, {"note": 0, "velocity": 0, "duration": 65}, {"note": 73, "velocity": 94, "duration": 378}, {"note": 0, "velocity": 0, "duration": 102}, {"note": 71, "velocity": 85, "duration": 184}, {"note": 73, "velocity": 88, "duration": 208}, {"note": 76, "velocity": 86, "duration": 619}, {"note": 0, "velocity": 0, "duration": 101}, {"note": 73, "velocity": 89, "duration": 194}, {"note": 76, "velocity": 85, "duration": 477}, {"note": 80, "velocity": 87, "duration": 391}, {"note": 0, "velocity": 0, "duration": 89}, {"note": 78, "velocity": 84, "duration": 1174}, {"note": 76, "velocity": 82, "duration": 207}, {"note": 73, "velocity": 83, "duration": 153}, {"note": 0, "velocity": 0, "duration": 87}, {"note": 71, "velocity": 83, "duration": 212}, {"note": 66, "velocity": 84, "duration": 251}, {"note": 68, "velocity": 84, "duration": 444}, {"note": 71, "velocity": 85, "duration": 202}, {"note": 73, "velocity": 90, "duration": 404}, {"note": 0, "velocity": 0, "duration": 76}, {"note": 76, "velocity": 85, "duration": 160}, {"note": 0, "velocity": 0, "duration": 80}, {"note": 73, "velocity": 92, "duration": 223}, {"note": 71, "velocity": 87, "duration": 1261}, {"note": 0, "velocity": 0, "duration": 16019}, {"note": 66, "velocity": 86, "duration": 636}, {"note": 0, "velocity": 0, "duration": 84}, {"note": 68, "velocity": 88, "duration": 257}, {"note": 71, "velocity": 85, "duration": 483}, {"note": 68, "velocity": 79, "duration": 264}, {"note": 71, "velocity": 85, "duration": 334}, {"note": 0, "velocity": 0, "duration": 166}, {"note": 71, "velocity": 83, "duration": 210}, {"note": 73, "velocity": 90, "duration": 237}, {"note": 68, "velocity": 84, "duration": 211}, {"note": 66, "velocity": 83, "duration": 387}, {"note": 0, "velocity": 0, "duration": 93}, {"note": 68, "velocity": 84, "duration": 187}, {"note": 71, "velocity": 90, "duration": 195}, {"note": 73, "velocity": 87, "duration": 600}, {"note": 0, "velocity": 0, "duration": 120}, {"note": 75, "velocity": 87, "duration": 207}, {"note": 73, "velocity": 92, "duration": 263}, {"note": 71, "velocity": 85, "duration": 271}, {"note": 73, "velocity": 90, "duration": 577}, {"note": 0, "velocity": 0, "duration": 143}, {"note": 76, "velocity": 85, "duration": 193}, {"note": 78, "velocity": 87, "duration": 191}, {"note": 75, "velocity": 85, "duration": 175}, {"note": 0, "velocity": 0, "duration": 65}, {"note": 73, "velocity": 94, "duration": 378}, {"note": 0, "velocity": 0, "duration": 102}, {"note": 71, "velocity": 85, "duration": 184}, {"note": 73, "velocity": 88, "duration": 208}, {"note": 76, "velocity": 86, "duration": 619}, {"note": 0, "velocity": 0, "duration": 101}, {"note": 73, "velocity": 89, "duration": 194}, {"note": 76, "velocity": 85, "duration": 477}, {"note": 80, "velocity": 87, "duration": 391}, {"note": 0, "velocity": 0, "duration": 89}, {"note": 78, "velocity": 84, "duration": 1174}, {"note": 76, "velocity": 82, "duration": 207}, {"note": 73, "velocity": 83, "duration": 153}, {"note": 0, "velocity": 0, "duration": 87}, {"note": 71, "velocity": 83, "duration": 212}, {"note": 66, "velocity": 84, "duration": 251}, {"note": 68, "velocity": 84, "duration": 444}, {"note": 71, "velocity": 85, "duration": 202}, {"note": 73, "velocity": 90, "duration": 404}, {"note": 0, "velocity": 0, "duration": 76}, {"note": 76, "velocity": 85, "duration": 160}, {"note": 0, "velocity": 0, "duration": 80}, {"note": 73, "velocity": 92, "duration": 223}, {"note": 71, "velocity": 87, "duration": 1261}]]