[[{"note": 64, "velocity": 90, "duration": 209}, {"note": 67, "velocity": 78, "duration": 345}, {"note": 0, "velocity": 0, "duration": 135}, {"note": 71, "velocity": 87, "duration": 370}, {"note": 0, "velocity": 0, "duration": 110}, {"note": 71, "velocity": 88, "duration": 149}, {"note": 0, "velocity": 0, "duration": 91}, {"note": 69, "velocity": 83, "duration": 204}, {"note": 67, "velocity": 84, "duration": 127}, {"note": 0, "velocity": 0, "duration": 233}, {"note": 66, "velocity": 90, "duration": 150}, {"note": 66, "velocity": 78, "duration": 30}, {"note": 0, "velocity": 0, "duration": 90}, {"note": 66, "velocity": 78, "duration": 312}, {"note": 62, "velocity": 85, "duration": 251}, {"note": 0, "velocity": 0, "duration": 949}, {"note": 62, "velocity": 89, "duration": 225}, {"note": 66, "velocity": 86, "duration": 280}, {"note": 0, "velocity": 0, "duration": 200}, {"note": 69, "velocity": 84, "duration": 284}, {"note": 0, "velocity": 0, "duration": 196}, {"note": 62, "velocity": 84, "duration": 118}, {"note": 0, "velocity": 0, "duration": 122}, {"note": 66, "velocity": 82, "duration": 146}, {"note": 0, "velocity": 0, "duration": 94}, {"note": 69, "velocity": 84, "duration": 127}, {"note": 0, "velocity": 0, "duration": 113}, {"note": 71, "velocity": 85, "duration": 172}, {"note": 0, "velocity": 0, "duration": 68}, {"note": 72, "velocity": 84, "duration": 121}, {"note": 71, "velocity": 79, "duration": 156}, {"note": 0, "velocity": 0, "duration": 204}, {"note": 69, "velocity": 84, "duration": 203}, {"note": 71, "velocity": 84, "duration": 627}, {"note": 0, "velocity": 0, "duration": 333}, {"note": 64, "velocity": 90, "duration": 122}, {"note": 0, "velocity": 0, "duration": 118}, {"note": 67, "velocity": 86, "duration": 385}, {"note": 0, "velocity": 0, "duration": 95}, {"note": 71, "velocity": 87, "duration": 305}, {"note": 0, "velocity": 0, "duration": 175}, {"note": 76, "velocity": 84, "duration": 182}, {"note": 74, "velocity": 90, "duration": 108}, {"note": 0, "velocity": 0, "duration": 132}, {"note": 71, "velocity": 84, "duration": 128}, {"note": 0, "velocity": 0, "duration": 112}, {"note": 69, "velocity": 85, "duration": 198}, {"note": 0, "velocity": 0, "duration": 162}, {"note": 71, "velocity": 78, "duration": 131}, {"note": 69, "velocity": 82, "duration": 135}, {"note": 0, "velocity": 0, "duration": 105}, {"note": 67, "velocity": 86, "duration": 128}, {"note": 0, "velocity": 0, "duration": 112}, {"note": 64, "velocity": 90, "duration": 360}, {"note": 0, "velocity": 0, "duration": 120}, {"note": 64, "velocity": 88, "duration": 156}, {"note": 0, "velocity": 0, "duration": 84}, {"note": 66, "velocity": 83, "duration": 160}, {"note": 0, "velocity": 0, "duration": 80}, {"note": 67, "velocity": 82, "duration": 350}, {"note": 64, "velocity": 90, "duration": 234}, {"note": 0, "velocity": 0, "duration": 126}, {"note": 67, "velocity": 80, "duration": 139}, {"note": 0, "velocity": 0, "duration": 101}, {"note": 69, "velocity": 85, "duration": 261}, {"note": 0, "velocity": 0, "duration": 99}, {"note": 71, "velocity": 86, "duration": 251}, {"note": 0, "velocity": 0, "duration": 109}, {"note": 62, "velocity": 85, "duration": 181}, {"note": 64, "velocity": 85, "duration": 1150}, {"note": 0, "velocity": 0, "duration": 770}, {"note": 64, "velocity": 90, "duration": 209}, {"note": 67, "velocity": 78, "duration": 345}, {"note": 0, "velocity": 0, "duration": 135}, {"note": 71, "velocity": 87, "duration": 370}, {"note": 0, "velocity": 0, "duration": 110}, {"note": 71, "velocity": 88, "duration": 149}, {"note": 0, "velocity": 0, "duration": 91}, {"note": 69, "velocity": 83, "duration": 204}, {"note": 67, "velocity": 84, "duration": 127}, {"note": 0, "velocity": 0, "duration": 233}, {"note": 66, "velocity": 90, "duration": 150}, {"note": 66, "velocity": 78, "duration": 30}, {"note": 0, "velocity": 0, "duration": 90}, {"note": 66, "velocity": 78, "duration": 312}, {"note": 62, "velocity": 85, "duration": 251}, {"note": 0, "velocity": 0, "duration": 949}, {"note": 62, "velocity": 89, "duration": 225}, {"note": 66, "velocity": 86, "duration": 280}, {"note": 0, "velocity": 0, "duration": 200}, {"note": 69, "velocity": 84, "duration": 284}, {"note": 0, "velocity": 0, "duration": 196}, {"note": 62, "velocity": 84, "duration": 118}, {"note": 0, "velocity": 0, "duration": 122}, {"note": 66, "velocity": 82, "duration": 146}, {"note": 0, "velocity": 0, "duration": 94}, {"note": 69, "velocity": 84, "duration": 127}, {"note": 0, "velocity": 0, "duration": 113}, {"note": 71, "velocity": 85, "duration": 172}, {"note": 0, "velocity": 0, "duration": 68}, {"note": 72, "velocity": 84, "duration": 121}, {"note": 71, "velocity": 79, "duration": 156}, {"note": 0, "velocity": 0, "duration": 204}, {"note": 69, "velocity": 84, "duration": 203}, {"note": 71, "velocity": 84, "duration": 627}, {"note": 0, "velocity": 0, "duration": 333}, {"note": 64, "velocity": 90, "duration": 122}, {"note": 0, "velocity": 0, "duration": 118}, {"note": 67, "velocity": 86, "duration": 385}, {"note": 0, "velocity": 0, "duration": 95}, {"note": 71, "velocity": 87, "duration": 305}, {"note": 0, "velocity": 0, "duration": 175}, {"note": 76, "velocity": 84, "duration": 182}, {"note": 74, "velocity": 90, "duration": 108}, {"note": 0, "velocity": 0, "duration": 132}, {"note": 71, "velocity": 84, "duration": 128}, {"note": 0, "velocity": 0, "duration": 112}, {"note": 69, "velocity": 85, "duration": 198}, {"note": 0, "velocity": 0, "duration": 162}, {"note": 71, "velocity": 78, "duration": 131}, {"note": 69, "velocity": 82, "duration": 135}, {"note": 0, "velocity": 0, "duration": 105}, {"note": 67, "velocity": 86, "duration": 128}, {"note": 0, "velocity": 0, "duration": 112}, {"note": 64, "velocity": 90, "duration": 360}, {"note": 0, "velocity": 0, "duration": 120}, {"note": 64, "velocity": 88, "duration": 156}, {"note": 0, "velocity": 0, "duration": 84}, {"note": 66, "velocity": 83, "duration": 160}, {"note": 0, "velocity": 0, "duration": 80}, {"note": 67, "velocity": 82, "duration": 350}, {"note": 66, "velocity": 90, "duration": 234}, {"note": 0, "velocity": 0, "duration": 126}, {"note": 67, "velocity": 80, "duration": 139}, {"note": 0, "velocity": 0, "duration": 101}, {"note": 69, "velocity": 85, "duration": 261}, {"note": 0, "velocity": 0, "duration": 99}, {"note": 71, "velocity": 86, "duration": 251}, {"note": 0, "velocity": 0, "duration": 109}, {"note": 62, "velocity": 85, "duration": 181}, {"note": 64, "velocity": 85, "duration": 1150}, {"note": 71, "velocity": 92, "duration": 128}, {"note": 0, "velocity": 0, "duration": 112}, {"note": 71, "velocity": 85, "duration": 174}, {"note": 0, "velocity": 0, "duration": 66}, {"note": 74, "velocity": 89, "duration": 156}, {"note": 0, "velocity": 0, "duration": 84}, {"note": 76, "velocity": 83, "duration": 284}, {"note": 0, "velocity": 0, "duration": 76}, {"note": 74, "velocity": 88, "duration": 225}, {"note": 0, "velocity": 0, "duration": 135}, {"note": 76, "velocity": 84, "duration": 142}, {"note": 0, "velocity": 0, "duration": 98}, {"note": 78, "velocity": 84, "duration": 260}, {"note": 0, "velocity": 0, "duration": 100}, {"note": 76, "velocity": 84, "duration": 197}, {"note": 0, "velocity": 0, "duration": 163}, {"note": 78, "velocity": 87, "duration": 160}, {"note": 0, "velocity": 0, "duration": 80}, {"note": 79, "velocity": 84, "duration": 225}, {"note": 0, "velocity": 0, "duration": 135}, {"note": 78, "velocity": 84, "duration": 221}, {"note": 0, "velocity": 0, "duration": 139}, {"note": 74, "velocity": 81, "duration": 204}, {"note": 76, "velocity": 84, "duration": 261}, {"note": 0, "velocity": 0, "duration": 219}, {"note": 76, "velocity": 85, "duration": 155}, {"note": 0, "velocity": 0, "duration": 85}, {"note": 78, "velocity": 78, "duration": 140}, {"note": 0, "velocity": 0, "duration": 100}, {"note": 79, "velocity": 84, "duration": 220}, {"note": 0, "velocity": 0, "duration": 140}, {"note": 78, "velocity": 84, "duration": 187}, {"note": 0, "velocity": 0, "duration": 173}, {"note": 74, "velocity": 86, "duration": 149}, {"note": 0, "velocity": 0, "duration": 91}, {"note": 69, "velocity": 85, "duration": 288}, {"note": 0, "velocity": 0, "duration": 72}, {"note": 71, "velocity": 85, "duration": 224}, {"note": 0, "velocity": 0, "duration": 136}, {"note": 74, "velocity": 85, "duration": 182}, {"note": 71, "velocity": 87, "duration": 1039}, {"note": 0, "velocity": 0, "duration": 161}, {"note": 71, "velocity": 85, "duration": 129}, {"note": 0, "velocity": 0, "duration": 111}, {"note": 71, "velocity": 87, "duration": 150}, {"note": 0, "velocity": 0, "duration": 90}, {"note": 74, "velocity": 88, "duration": 139}, {"note": 0, "velocity": 0, "duration": 101}, {"note": 76, "velocity": 87, "duration": 274}, {"note": 0, "velocity": 0, "duration": 86}, {"note": 74, "velocity": 85, "duration": 150}, {"note": 0, "velocity": 0, "duration": 210}, {"note": 76, "velocity": 84, "duration": 170}, {"note": 0, "velocity": 0, "duration": 70}, {"note": 78, "velocity": 87, "duration": 267}, {"note": 0, "velocity": 0, "duration": 93}, {"note": 76, "velocity": 85, "duration": 173}, {"note": 0, "velocity": 0, "duration": 187}, {"note": 78, "velocity": 85, "duration": 140}, {"note": 0, "velocity": 0, "duration": 100}, {"note": 79, "velocity": 85, "duration": 226}, {"note": 0, "velocity": 0, "duration": 134}, {"note": 78, "velocity": 92, "duration": 256}, {"note": 0, "velocity": 0, "duration": 104}, {"note": 79, "velocity": 87, "duration": 152}, {"note": 0, "velocity": 0, "duration": 88}, {"note": 83, "velocity": 84, "duration": 266}, {"note": 0, "velocity": 0, "duration": 214}, {"note": 76, "velocity": 87, "duration": 164}, {"note": 0, "velocity": 0, "duration": 76}, {"note": 74, "velocity": 90, "duration": 138}, {"note": 0, "velocity": 0, "duration": 102}, {"note": 76, "velocity": 87, "duration": 160}, {"note": 0, "velocity": 0, "duration": 80}, {"note": 83, "velocity": 84, "duration": 138}, {"note": 0, "velocity": 0, "duration": 102}, {"note": 76, "velocity": 83, "duration": 113}, {"note": 0, "velocity": 0, "duration": 127}, {"note": 74, "velocity": 87, "duration": 117}, {"note": 0, "velocity": 0, "duration": 123}, {"note": 76, "velocity": 85, "duration": 343}, {"note": 0, "velocity": 0, "duration": 137}, {"note": 79, "velocity": 83, "duration": 600}, {"note": 0, "velocity": 0, "duration": 120}, {"note": 76, "velocity": 87, "duration": 1435}, {"note": 0, "velocity": 0, "duration": 15605}, {"note": 64, "velocity": 90, "duration": 209}, {"note": 67, "velocity": 78, "duration": 345}, {"note": 0, "velocity": 0, "duration": 135}, {"note": 71, "velocity": 87, "duration": 370}, {"note": 0, "velocity": 0, "duration": 110}, {"note": 71, "velocity": 88, "duration": 149}, {"note": 0, "velocity": 0, "duration": 91}, {"note": 69, "velocity": 83, "duration": 204}, {"note": 67, "velocity": 84, "duration": 127}, {"note": 0, "velocity": 0, "duration": 233}, {"note": 66, "velocity": 90, "duration": 150}, {"note": 66, "velocity": 78, "duration": 30}, {"note": 0, "velocity": 0, "duration": 90}, {"note": 66, "velocity": 78, "duration": 312}, {"note": 62, "velocity": 85, "duration": 251}, {"note": 0, "velocity": 0, "duration": 949}, {"note": 62, "velocity": 89, "duration": 225}, {"note": 66, "velocity": 86, "duration": 280}, {"note": 0, "velocity": 0, "duration": 200}, {"note": 69, "velocity": 84, "duration": 284}, {"note": 0, "velocity": 0, "duration": 196}, {"note": 62, "velocity": 84, "duration": 118}, {"note": 0, "velocity": 0, "duration": 122}, {"note": 66, "velocity": 82, "duration": 146}, {"note": 0, "velocity": 0, "duration": 94}, {"note": 69, "velocity": 84, "duration": 127}, {"note": 0, "velocity": 0, "duration": 113}, {"note": 71, "velocity": 85, "duration": 172}, {"note": 0, "velocity": 0, "duration": 68}, {"note": 72, "velocity": 84, "duration": 121}, {"note": 71, "velocity": 79, "duration": 156}, {"note": 0, "velocity": 0, "duration": 204}, {"note": 69, "velocity": 84, "duration": 203}, {"note": 71, "velocity": 84, "duration": 627}, {"note": 0, "velocity": 0, "duration": 333}, {"note": 64, "velocity": 90, "duration": 122}, {"note": 0, "velocity": 0, "duration": 118}, {"note": 67, "velocity": 86, "duration": 385}, {"note": 0, "velocity": 0, "duration": 95}, {"note": 71, "velocity": 87, "duration": 305}, {"note": 0, "velocity": 0, "duration": 175}, {"note": 76, "velocity": 84, "duration": 182}, {"note": 74, "velocity": 90, "duration": 108}, {"note": 0, "velocity": 0, "duration": 132}, {"note": 71, "velocity": 84, "duration": 128}, {"note": 0, "velocity": 0, "duration": 112}, {"note": 69, "velocity": 85, "duration": 198}, {"note": 0, "velocity": 0, "duration": 162}, {"note": 71, "velocity": 78, "duration": 131}, {"note": 69, "velocity": 82, "duration": 135}, {"note": 0, "velocity": 0, "duration": 105}, {"note": 67, "velocity": 86, "duration": 128}, {"note": 0, "velocity": 0, "duration": 112}, {"note": 64, "velocity": 90, "duration": 360}, {"note": 0, "velocity": 0, "duration": 120}, {"note": 64, "velocity": 88, "duration": 156}, {"note": 0, "velocity": 0, "duration": 84}, {"note": 66, "velocity": 83, "duration": 160}, {"note": 0, "velocity": 0, "duration": 80}, {"note": 67, "velocity": 82, "duration": 350}, {"note": 64, "velocity": 90, "duration": 234}, {"note": 0, "velocity": 0, "duration": 126}, {"note": 67, "velocity": 80, "duration": 139}, {"note": 0, "velocity": 0, "duration": 101}, {"note": 69, "velocity": 85, "duration": 261}, {"note": 0, "velocity": 0, "duration": 99}, {"note": 71, "velocity": 86, "duration": 251}, {"note": 0, "velocity": 0, "duration": 109}, {"note": 62, "velocity": 85, "duration": 181}, {"note": 64, "velocity": 85, "duration": 1150}, {"note": 0, "velocity": 0, "duration": 770}, {"note": 64, "velocity": 90, "duration": 209}, {"note": 67, "velocity": 78, "duration": 345}, {"note": 0, "velocity": 0, "duration": 135}, {"note": 71, "velocity": 87, "duration": 370}, {"note": 0, "velocity": 0, "duration": 110}, {"note": 71, "velocity": 88, "duration": 149}, {"note": 0, "velocity": 0, "duration": 91}, {"note": 69, "velocity": 83, "duration": 204}, {"note": 67, "velocity": 84, "duration": 127}, {"note": 0, "velocity": 0, "duration": 233}, {"note": 66, "velocity": 90, "duration": 150}, {"note": 66, "velocity": 78, "duration": 30}, {"note": 0, "velocity": 0, "duration": 90}, {"note": 66, "velocity": 78, "duration": 312}, {"note": 62, "velocity": 85, "duration": 251}, {"note": 0, "velocity": 0, "duration": 949}, {"note": 62, "velocity": 89, "duration": 225}, {"note": 66, "velocity": 86, "duration": 280}, {"note": 0, "velocity": 0, "duration": 200}, {"note": 69, "velocity": 84, "duration": 284}, {"note": 0, "velocity": 0, "duration": 196}, {"note": 62, "velocity": 84, "duration": 118}, {"note": 0, "velocity": 0, "duration": 122}, {"note": 66, "velocity": 82, "duration": 146}, {"note": 0, "velocity": 0, "duration": 94}, {"note": 69, "velocity": 84, "duration": 127}, {"note": 0, "velocity": 0, "duration": 113}, {"note": 71, "velocity": 85, "duration": 172}, {"note": 0, "velocity": 0, "duration": 68}, {"note": 72, "velocity": 84, "duration": 121}, {"note": 71, "velocity": 79, "duration": 156}, {"note": 0, "velocity": 0, "duration": 204}, {"note": 69, "velocity": 84, "duration": 203}, {"note": 71, "velocity": 84, "duration": 627}, {"note": 0, "velocity": 0, "duration": 333}, {"note": 64, "velocity": 90, "duration": 122}, {"note": 0, "velocity": 0, "duration": 118}, {"note": 67, "velocity": 86, "duration": 385}, {"note": 0, "velocity": 0, "duration": 95}, {"note": 71, "velocity": 87, "duration": 305}, {"note": 0, "velocity": 0, "duration": 175}, {"note": 76, "velocity": 84, "duration": 182}, {"note": 74, "velocity": 90, "duration": 108}, {"note": 0, "velocity": 0, "duration": 132}, {"note": 71, "velocity": 84, "duration": 128}, {"note": 0, "velocity": 0, "duration": 112}, {"note": 69, "velocity": 85, "duration": 198}, {"note": 0, "velocity": 0, "duration": 162}, {"note": 71, "velocity": 78, "duration": 131}, {"note": 69, "velocity": 82, "duration": 135}, {"note": 0, "velocity": 0, "duration": 105}, {"note": 67, "velocity": 86, "duration": 128}, {"note": 0, "velocity": 0, "duration": 112}, {"note": 64, "velocity": 90, "duration": 360}, {"note": 0, "velocity": 0, "duration": 120}, {"note": 64, "velocity": 88, "duration": 156}, {"note": 0, "velocity": 0, "duration": 84}, {"note": 66, "velocity": 83, "duration": 160}, {"note": 0, "velocity": 0, "duration": 80}, {"note": 67, "velocity": 82, "duration": 350}, {"note": 66, "velocity": 90, "duration": 234}, {"note": 0, "velocity": 0, "duration": 126}, {"note": 67, "velocity": 80, "duration": 139}, {"note": 0, "velocity": 0, "duration": 101}, {"note": 69, "velocity": 85, "duration": 261}, {"note": 0, "velocity": 0, "duration": 99}, {"note": 71, "velocity": 86, "duration": 251}, {"note": 0, "velocity": 0, "duration": 109}, {"note": 62, "velocity": 85, "duration": 181}, {"note": 64, "velocity": 85, "duration": 1150}, {"note": 71, "velocity": 92, "duration": 128}, {"note": 0, "velocity": 0, "duration": 112}, {"note": 71, "velocity": 85, "duration": 174}, {"note": 0, "velocity": 0, "duration": 66}, {"note": 74, "velocity": 89, "duration": 156}, {"note": 0, "velocity": 0, "duration": 84}, {"note": 76, "velocity": 83, "duration": 284}, {"note": 0, "velocity": 0, "duration": 76}, {"note": 74, "velocity": 88, "duration": 225}, {"note": 0, "velocity": 0, "duration": 135}, {"note": 76, "velocity": 84, "duration": 142}, {"note": 0, "velocity": 0, "duration": 98}, {"note": 78, "velocity": 84, "duration": 260}, {"note": 0, "velocity": 0, "duration": 100}, {"note": 76, "velocity": 84, "duration": 197}, {"note": 0, "velocity": 0, "duration": 163}, {"note": 78, "velocity": 87, "duration": 160}, {"note": 0, "velocity": 0, "duration": 80}, {"note": 79, "velocity": 84, "duration": 225}, {"note": 0, "velocity": 0, "duration": 135}, {"note": 78, "velocity": 84, "duration": 221}, {"note": 0, "velocity": 0, "duration": 139}, {"note": 74, "velocity": 81, "duration": 204}, {"note": 76, "velocity": 84, "duration": 261}, {"note": 0, "velocity": 0, "duration": 219}, {"note": 76, "velocity": 85, "duration": 155}, {"note": 0, "velocity": 0, "duration": 85}, {"note": 78, "velocity": 78, "duration": 140}, {"note": 0, "velocity": 0, "duration": 100}, {"note": 79, "velocity": 84, "duration": 220}, {"note": 0, "velocity": 0, "duration": 140}, {"note": 78, "velocity": 84, "duration": 187}, {"note": 0, "velocity": 0, "duration": 173}, {"note": 74, "velocity": 86, "duration": 149}, {"note": 0, "velocity": 0, "duration": 91}, {"note": 69, "velocity": 85, "duration": 288}, {"note": 0, "velocity": 0, "duration": 72}, {"note": 71, "velocity": 85, "duration": 224}, {"note": 0, "velocity": 0, "duration": 136}, {"note": 74, "velocity": 85, "duration": 182}, {"note": 71, "velocity": 87, "duration": 1039}, {"note": 0, "velocity": 0, "duration": 161}, {"note": 71, "velocity": 85, "duration": 129}, {"note": 0, "velocity": 0, "duration": 111}, {"note": 71, "velocity": 87, "duration": 150}, {"note": 0, "velocity": 0, "duration": 90}, {"note": 74, "velocity": 88, "duration": 139}, {"note": 0, "velocity": 0, "duration": 101}, {"note": 76, "velocity": 87, "duration": 274}, {"note": 0, "velocity": 0, "duration": 86}, {"note": 74, "velocity": 85, "duration": 150}, {"note": 0, "velocity": 0, "duration": 210}, {"note": 76, "velocity": 84, "duration": 170}, {"note": 0, "velocity": 0, "duration": 70}, {"note": 78, "velocity": 87, "duration": 267}, {"note": 0, "velocity": 0, "duration": 93}, {"note": 76, "velocity": 85, "duration": 173}, {"note": 0, "velocity": 0, "duration": 187}, {"note": 78, "velocity": 85, "duration": 140}, {"note": 0, "velocity": 0, "duration": 100}, {"note": 79, "velocity": 85, "duration": 226}, {"note": 0, "velocity": 0, "duration": 134}, {"note": 78, "velocity": 92, "duration": 256}, {"note": 0, "velocity": 0, "duration": 104}, {"note": 79, "velocity": 87, "duration": 152}, {"note": 0, "velocity": 0, "duration": 88}, {"note": 83, "velocity": 84, "duration": 266}, {"note": 0, "velocity": 0, "duration": 214}, {"note": 76, "velocity": 87, "duration": 164}, {"note": 0, "velocity": 0, "duration": 76}, {"note": 74, "velocity": 90, "duration": 138}, {"note": 0, "velocity": 0, "duration": 102}, {"note": 76, "velocity": 87, "duration": 160}, {"note": 0, "velocity": 0, "duration": 80}, {"note": 83, "velocity": 84, "duration": 138}, {"note": 0, "velocity": 0, "duration": 102}, {"note": 76, "velocity": 83, "duration": 113}, {"note": 0, "velocity": 0, "duration": 127}, {"note": 74, "velocity": 87, "duration": 117}, {"note": 0, "velocity": 0, "duration": 123}, {"note": 76, "velocity": 85, "duration": 343}, {"note": 0, "velocity": 0, "duration": 137}, {"note": 79, "velocity": 83, "duration": 600}, {"note": 0, "velocity": 0, "duration": 120}, {"note": 76, "velocity": 87, "duration": 1435}, {"note": 0, "velocity": 0, "duration": 37925}, {"note": 71, "velocity": 92, "duration": 128}, {"note": 0, "velocity": 0, "duration": 112}, {"note": 71, "velocity": 85, "duration": 174}, {"note": 0, "velocity": 0, "duration": 66}, {"note": 74, "velocity": 89, "duration": 156}, {"note": 0, "velocity": 0, "duration": 84}, {"note": 76, "velocity": 83, "duration": 284}, {"note": 0, "velocity": 0, "duration": 76}, {"note": 74, "velocity": 88, "duration": 225}, {"note": 0, "velocity": 0, "duration": 135}, {"note": 76, "velocity": 84, "duration": 142}, {"note": 0, "velocity": 0, "duration": 98}, {"note": 78, "velocity": 84, "duration": 260}, {"note": 0, "velocity": 0, "duration": 100}, {"note": 76, "velocity": 84, "duration": 197}, {"note": 0, "velocity": 0, "duration": 163}, {"note": 78, "velocity": 87, "duration": 160}, {"note": 0, "velocity": 0, "duration": 80}, {"note": 79, "velocity": 84, "duration": 225}, {"note": 0, "velocity": 0, "duration": 135}, {"note": 78, "velocity": 84, "duration": 221}, {"note": 0, "velocity": 0, "duration": 139}, {"note": 74, "velocity": 81, "duration": 204}, {"note": 76, "velocity": 84, "duration": 261}, {"note": 0, "velocity": 0, "duration": 219}, {"note": 76, "velocity": 85, "duration": 155}, {"note": 0, "velocity": 0, "duration": 85}, {"note": 78, "velocity": 78, "duration": 140}, {"note": 0, "velocity": 0, "duration": 100}, {"note": 79, "velocity": 84, "duration": 220}, {"note": 0, "velocity": 0, "duration": 140}, {"note": 78, "velocity": 84, "duration": 187}, {"note": 0, "velocity": 0, "duration": 173}, {"note": 74, "velocity": 86, "duration": 149}, {"note": 0, "velocity": 0, "duration": 91}, {"note": 69, "velocity": 85, "duration": 288}, {"note": 0, "velocity": 0, "duration": 72}, {"note": 71, "velocity": 85, "duration": 224}, {"note": 0, "velocity": 0, "duration": 136}, {"note": 74, "velocity": 85, "duration": 182}, {"note": 71, "velocity": 87, "duration": 1039}, {"note": 0, "velocity": 0, "duration": 161}, {"note": 71, "velocity": 85, "duration": 129}, {"note": 0, "velocity": 0, "duration": 111}, {"note": 71, "velocity": 87, "duration": 150}, {"note": 0, "velocity": 0, "duration": 90}, {"note": 74, "velocity": 88, "duration": 139}, {"note": 0, "velocity": 0, "duration": 101}, {"note": 76, "velocity": 87, "duration": 274}, {"note": 0, "velocity": 0, "duration": 86}, {"note": 74, "velocity": 85, "duration": 150}, {"note": 0, "velocity": 0, "duration": 210}, {"note": 76, "velocity": 84, "duration": 170}, {"note": 0, "velocity": 0, "duration": 70}, {"note": 78, "velocity": 87, "duration": 267}, {"note": 0, "velocity": 0, "duration": 93}, {"note": 76, "velocity": 85, "duration": 173}, {"note": 0, "velocity": 0, "duration": 187}, {"note": 78, "velocity": 85, "duration": 140}, {"note": 0, "velocity": 0, "duration": 100}, {"note": 79, "velocity": 85, "duration": 226}, {"note": 0, "velocity": 0, "duration": 134}, {"note": 78, "velocity": 92, "duration": 256}, {"note": 0, "velocity": 0, "duration": 104}, {"note": 79, "velocity": 87, "duration": 152}, {"note": 0, "velocity": 0, "duration": 88}, {"note": 83, "velocity": 84, "duration": 266}, {"note": 0, "velocity": 0, "duration": 214}, {"note": 76, "velocity": 87, "duration": 164}, {"note": 0, "velocity": 0, "duration": 76}, {"note": 74, "velocity": 90, "duration": 138}, {"note": 0, "velocity": 0, "duration": 102}, {"note": 76, "velocity": 87, "duration": 160}, {"note": 0, "velocity": 0, "duration": 80}, {"note": 83, "velocity": 84, "duration": 138}, {"note": 0, "velocity": 0, "duration": 102}, {"note": 76, "velocity": 83, "duration": 113}, {"note": 0, "velocity": 0, "duration": 127}, {"note": 74, "velocity": 87, "duration": 117}, {"note": 0, "velocity": 0, "duration": 123}, {"note": 76, "velocity": 85, "duration": 343}, {"note": 0, "velocity": 0, "duration": 137}, {"note": 79, "velocity": 83, "duration": 600}, {"note": 0, "velocity": 0, "duration": 120}, {"note": 76, "velocity": 87, "duration": 720}, {"note": 0, "velocity": 0, "duration": 240}, {"note": 71, "velocity": 92, "duration": 128}, {"note": 0, "velocity": 0, "duration": 112}, {"note": 71, "velocity": 85, "duration": 174}, {"note": 0, "velocity": 0, "duration": 66}, {"note": 74, "velocity": 89, "duration": 156}, {"note": 0, "velocity": 0, "duration": 84}, {"note": 76, "velocity": 83, "duration": 284}, {"note": 0, "velocity": 0, "duration": 76}, {"note": 74, "velocity": 88, "duration": 225}, {"note": 0, "velocity": 0, "duration": 135}, {"note": 76, "velocity": 84, "duration": 142}, {"note": 0, "velocity": 0, "duration": 98}, {"note": 78, "velocity": 84, "duration": 260}, {"note": 0, "velocity": 0, "duration": 100}, {"note": 76, "velocity": 84, "duration": 197}, {"note": 0, "velocity": 0, "duration": 163}, {"note": 78, "velocity": 87, "duration": 160}, {"note": 0, "velocity": 0, "duration": 80}, {"note": 79, "velocity": 84, "duration": 225}, {"note": 0, "velocity": 0, "duration": 135}, {"note": 78, "velocity": 84, "duration": 221}, {"note": 0, "velocity": 0, "duration": 139}, {"note": 74, "velocity": 81, "duration": 204}, {"note": 76, "velocity": 84, "duration": 261}, {"note": 0, "velocity": 0, "duration": 219}, {"note": 76, "velocity": 85, "duration": 155}, {"note": 0, "velocity": 0, "duration": 85}, {"note": 78, "velocity": 78, "duration": 140}, {"note": 0, "velocity": 0, "duration": 100}, {"note": 79, "velocity": 84, "duration": 220}, {"note": 0, "velocity": 0, "duration": 140}, {"note": 78, "velocity": 84, "duration": 187}, {"note": 0, "velocity": 0, "duration": 173}, {"note": 74, "velocity": 86, "duration": 149}, {"note": 0, "velocity": 0, "duration": 91}, {"note": 69, "velocity": 85, "duration": 288}, {"note": 0, "velocity": 0, "duration": 72}, {"note": 71, "velocity": 85, "duration": 224}, {"note": 0, "velocity": 0, "duration": 136}, {"note": 74, "velocity": 85, "duration": 182}, {"note": 71, "velocity": 87, "duration": 1039}, {"note": 0, "velocity": 0, "duration": 161}, {"note": 71, "velocity": 85, "duration": 129}, {"note": 0, "velocity": 0, "duration": 111}, {"note": 71, "velocity": 87, "duration": 150}, {"note": 0, "velocity": 0, "duration": 90}, {"note": 74, "velocity": 88, "duration": 139}, {"note": 0, "velocity": 0, "duration": 101}, {"note": 76, "velocity": 87, "duration": 274}, {"note": 0, "velocity": 0, "duration": 86}, {"note": 74, "velocity": 85, "duration": 150}, {"note": 0, "velocity": 0, "duration": 210}, {"note": 76, "velocity": 84, "duration": 170}, {"note": 0, "velocity": 0, "duration": 70}, {"note": 78, "velocity": 87, "duration": 267}, {"note": 0, "velocity": 0, "duration": 93}, {"note": 76, "velocity": 85, "duration": 173}, {"note": 0, "velocity": 0, "duration": 187}, {"note": 78, "velocity": 85, "duration": 140}, {"note": 0, "velocity": 0, "duration": 100}, {"note": 79, "velocity": 85, "duration": 226}, {"note": 0, "velocity": 0, "duration": 134}, {"note": 78, "velocity": 92, "duration": 256}, {"note": 0, "velocity": 0, "duration": 104}, {"note": 79, "velocity": 87, "duration": 152}, {"note": 0, "velocity": 0, "duration": 88}, {"note": 83, "velocity": 84, "duration": 266}, {"note": 0, "velocity": 0, "duration": 214}, {"note": 76, "velocity": 87, "duration": 164}, {"note": 0, "velocity": 0, "duration": 76}, {"note": 74, "velocity": 90, "duration": 138}, {"note": 0, "velocity": 0, "duration": 102}, {"note": 76, "velocity": 87, "duration": 160}, {"note": 0, "velocity": 0, "duration": 80}, {"note": 83, "velocity": 84, "duration": 138}, {"note": 0, "velocity": 0, "duration": 102}, {"note": 76, "velocity": 83, "duration": 113}, {"note": 0, "velocity": 0, "duration": 127}, {"note": 74, "velocity": 87, "duration": 117}, {"note": 0, "velocity": 0, "duration": 123}, {"note": 76, "velocity": 85, "duration": 343}, {"note": 0, "velocity": 0, "duration": 137}, {"note": 79, "velocity": 83, "duration": 600}, {"note": 0, "velocity": 0, "duration": 120}, {"note": 76, "velocity": 87, "duration": 1435}]]