[[{"note": 77, "velocity": 90, "duration": 158}, {"note": 0, "velocity": 0, "duration": 82}, {"note": 76, "velocity": 91, "duration": 123}, {"note": 0, "velocity": 0, "duration": 117}, {"note": 77, "velocity": 91, "duration": 143}, {"note": 0, "velocity": 0, "duration": 97}, {"note": 70, "velocity": 89, "duration": 115}, {"note": 0, "velocity": 0, "duration": 125}, {"note": 70, "velocity": 88, "duration": 626}, {"note": 0, "velocity": 0, "duration": 94}, {"note": 70, "velocity": 89, "duration": 134}, {"note": 0, "velocity": 0, "duration": 106}, {"note": 72, "velocity": 87, "duration": 130}, {"note": 0, "velocity": 0, "duration": 110}, {"note": 73, "velocity": 88, "duration": 149}, {"note": 0, "velocity": 0, "duration": 91}, {"note": 72, "velocity": 91, "duration": 111}, {"note": 0, "velocity": 0, "duration": 129}, {"note": 72, "velocity": 92, "duration": 101}, {"note": 0, "velocity": 0, "duration": 139}, {"note": 72, "velocity": 88, "duration": 145}, {"note": 0, "velocity": 0, "duration": 95}, {"note": 71, "velocity": 83, "duration": 164}, {"note": 0, "velocity": 0, "duration": 76}, {"note": 72, "velocity": 88, "duration": 240}, {"note": 0, "velocity": 0, "duration": 480}, {"note": 70, "velocity": 87, "duration": 137}, {"note": 0, "velocity": 0, "duration": 103}, {"note": 72, "velocity": 90, "duration": 112}, {"note": 0, "velocity": 0, "duration": 128}, {"note": 66, "velocity": 88, "duration": 125}, {"note": 0, "velocity": 0, "duration": 115}, {"note": 66, "velocity": 87, "duration": 474}, {"note": 0, "velocity": 0, "duration": 246}, {"note": 66, "velocity": 86, "duration": 158}, {"note": 0, "velocity": 0, "duration": 82}, {"note": 68, "velocity": 88, "duration": 131}, {"note": 0, "velocity": 0, "duration": 109}, {"note": 70, "velocity": 86, "duration": 172}, {"note": 0, "velocity": 0, "duration": 68}, {"note": 69, "velocity": 87, "duration": 144}, {"note": 0, "velocity": 0, "duration": 96}, {"note": 73, "velocity": 90, "duration": 129}, {"note": 0, "velocity": 0, "duration": 111}, {"note": 72, "velocity": 80, "duration": 137}, {"note": 0, "velocity": 0, "duration": 103}, {"note": 71, "velocity": 88, "duration": 154}, {"note": 0, "velocity": 0, "duration": 86}, {"note": 72, "velocity": 87, "duration": 163}, {"note": 0, "velocity": 0, "duration": 77}, {"note": 77, "velocity": 95, "duration": 431}, {"note": 75, "velocity": 93, "duration": 111}, {"note": 0, "velocity": 0, "duration": 129}, {"note": 77, "velocity": 91, "duration": 135}, {"note": 0, "velocity": 0, "duration": 105}, {"note": 70, "velocity": 88, "duration": 140}, {"note": 0, "velocity": 0, "duration": 100}, {"note": 70, "velocity": 87, "duration": 549}, {"note": 0, "velocity": 0, "duration": 171}, {"note": 70, "velocity": 90, "duration": 113}, {"note": 0, "velocity": 0, "duration": 127}, {"note": 72, "velocity": 88, "duration": 107}, {"note": 0, "velocity": 0, "duration": 133}, {"note": 73, "velocity": 87, "duration": 143}, {"note": 0, "velocity": 0, "duration": 97}, {"note": 72, "velocity": 88, "duration": 104}, {"note": 0, "velocity": 0, "duration": 136}, {"note": 72, "velocity": 88, "duration": 106}, {"note": 0, "velocity": 0, "duration": 134}, {"note": 72, "velocity": 86, "duration": 147}, {"note": 0, "velocity": 0, "duration": 93}, {"note": 71, "velocity": 86, "duration": 130}, {"note": 0, "velocity": 0, "duration": 110}, {"note": 72, "velocity": 91, "duration": 126}, {"note": 0, "velocity": 0, "duration": 114}, {"note": 72, "velocity": 87, "duration": 114}, {"note": 0, "velocity": 0, "duration": 126}, {"note": 72, "velocity": 87, "duration": 144}, {"note": 0, "velocity": 0, "duration": 96}, {"note": 70, "velocity": 88, "duration": 149}, {"note": 0, "velocity": 0, "duration": 91}, {"note": 72, "velocity": 91, "duration": 138}, {"note": 0, "velocity": 0, "duration": 102}, {"note": 66, "velocity": 88, "duration": 786}, {"note": 0, "velocity": 0, "duration": 174}, {"note": 66, "velocity": 88, "duration": 119}, {"note": 0, "velocity": 0, "duration": 121}, {"note": 68, "velocity": 87, "duration": 119}, {"note": 0, "velocity": 0, "duration": 121}, {"note": 70, "velocity": 87, "duration": 136}, {"note": 0, "velocity": 0, "duration": 104}, {"note": 75, "velocity": 91, "duration": 370}, {"note": 0, "velocity": 0, "duration": 110}, {"note": 73, "velocity": 86, "duration": 148}, {"note": 0, "velocity": 0, "duration": 92}, {"note": 72, "velocity": 70, "duration": 115}, {"note": 0, "velocity": 0, "duration": 125}, {"note": 73, "velocity": 86, "duration": 144}, {"note": 0, "velocity": 0, "duration": 96}, {"note": 70, "velocity": 87, "duration": 129}, {"note": 0, "velocity": 0, "duration": 111}, {"note": 72, "velocity": 88, "duration": 132}, {"note": 0, "velocity": 0, "duration": 108}, {"note": 73, "velocity": 88, "duration": 140}, {"note": 0, "velocity": 0, "duration": 100}, {"note": 82, "velocity": 87, "duration": 659}, {"note": 0, "velocity": 0, "duration": 541}, {"note": 82, "velocity": 87, "duration": 100}, {"note": 0, "velocity": 0, "duration": 140}, {"note": 84, "velocity": 86, "duration": 123}, {"note": 0, "velocity": 0, "duration": 117}, {"note": 82, "velocity": 87, "duration": 119}, {"note": 0, "velocity": 0, "duration": 121}, {"note": 81, "velocity": 91, "duration": 101}, {"note": 0, "velocity": 0, "duration": 139}, {"note": 77, "velocity": 92, "duration": 115}, {"note": 0, "velocity": 0, "duration": 125}, {"note": 77, "velocity": 90, "duration": 116}, {"note": 0, "velocity": 0, "duration": 124}, {"note": 75, "velocity": 90, "duration": 130}, {"note": 0, "velocity": 0, "duration": 110}, {"note": 77, "velocity": 91, "duration": 190}, {"note": 75, "velocity": 93, "duration": 125}, {"note": 0, "velocity": 0, "duration": 115}, {"note": 77, "velocity": 88, "duration": 145}, {"note": 0, "velocity": 0, "duration": 95}, {"note": 75, "velocity": 92, "duration": 110}, {"note": 0, "velocity": 0, "duration": 130}, {"note": 77, "velocity": 93, "duration": 298}, {"note": 0, "velocity": 0, "duration": 182}, {"note": 81, "velocity": 93, "duration": 375}, {"note": 0, "velocity": 0, "duration": 345}, {"note": 81, "velocity": 88, "duration": 143}, {"note": 0, "velocity": 0, "duration": 97}, {"note": 81, "velocity": 81, "duration": 148}, {"note": 0, "velocity": 0, "duration": 92}, {"note": 81, "velocity": 87, "duration": 125}, {"note": 0, "velocity": 0, "duration": 115}, {"note": 81, "velocity": 88, "duration": 138}, {"note": 0, "velocity": 0, "duration": 102}, {"note": 82, "velocity": 87, "duration": 129}, {"note": 0, "velocity": 0, "duration": 111}, {"note": 84, "velocity": 90, "duration": 120}, {"note": 0, "velocity": 0, "duration": 120}, {"note": 81, "velocity": 87, "duration": 152}, {"note": 0, "velocity": 0, "duration": 88}, {"note": 82, "velocity": 86, "duration": 149}, {"note": 0, "velocity": 0, "duration": 91}, {"note": 77, "velocity": 88, "duration": 345}, {"note": 0, "velocity": 0, "duration": 135}, {"note": 75, "velocity": 95, "duration": 119}, {"note": 0, "velocity": 0, "duration": 121}, {"note": 77, "velocity": 89, "duration": 379}, {"note": 0, "velocity": 0, "duration": 101}, {"note": 82, "velocity": 87, "duration": 508}, {"note": 0, "velocity": 0, "duration": 212}, {"note": 82, "velocity": 88, "duration": 95}, {"note": 0, "velocity": 0, "duration": 145}, {"note": 84, "velocity": 90, "duration": 125}, {"note": 0, "velocity": 0, "duration": 115}, {"note": 82, "velocity": 86, "duration": 126}, {"note": 0, "velocity": 0, "duration": 114}, {"note": 81, "velocity": 93, "duration": 113}, {"note": 0, "velocity": 0, "duration": 127}, {"note": 77, "velocity": 92, "duration": 121}, {"note": 0, "velocity": 0, "duration": 119}, {"note": 77, "velocity": 91, "duration": 129}, {"note": 0, "velocity": 0, "duration": 111}, {"note": 76, "velocity": 88, "duration": 135}, {"note": 0, "velocity": 0, "duration": 105}, {"note": 77, "velocity": 88, "duration": 177}, {"note": 0, "velocity": 0, "duration": 63}, {"note": 75, "velocity": 92, "duration": 287}, {"note": 0, "velocity": 0, "duration": 193}, {"note": 75, "velocity": 89, "duration": 128}, {"note": 0, "velocity": 0, "duration": 112}, {"note": 77, "velocity": 88, "duration": 110}, {"note": 0, "velocity": 0, "duration": 130}, {"note": 70, "velocity": 85, "duration": 303}, {"note": 0, "velocity": 0, "duration": 177}, {"note": 70, "velocity": 81, "duration": 78}, {"note": 0, "velocity": 0, "duration": 162}, {"note": 70, "velocity": 91, "duration": 139}, {"note": 0, "velocity": 0, "duration": 101}, {"note": 72, "velocity": 87, "duration": 129}, {"note": 0, "velocity": 0, "duration": 111}, {"note": 73, "velocity": 88, "duration": 139}, {"note": 0, "velocity": 0, "duration": 101}, {"note": 72, "velocity": 88, "duration": 130}, {"note": 0, "velocity": 0, "duration": 110}, {"note": 72, "velocity": 89, "duration": 144}, {"note": 0, "velocity": 0, "duration": 96}, {"note": 70, "velocity": 90, "duration": 154}, {"note": 0, "velocity": 0, "duration": 326}, {"note": 70, "velocity": 87, "duration": 162}, {"note": 0, "velocity": 0, "duration": 78}, {"note": 70, "velocity": 89, "duration": 260}, {"note": 0, "velocity": 0, "duration": 220}, {"note": 77, "velocity": 90, "duration": 158}, {"note": 0, "velocity": 0, "duration": 82}, {"note": 76, "velocity": 91, "duration": 123}, {"note": 0, "velocity": 0, "duration": 117}, {"note": 77, "velocity": 91, "duration": 143}, {"note": 0, "velocity": 0, "duration": 97}, {"note": 70, "velocity": 89, "duration": 115}, {"note": 0, "velocity": 0, "duration": 125}, {"note": 70, "velocity": 88, "duration": 626}, {"note": 0, "velocity": 0, "duration": 94}, {"note": 70, "velocity": 89, "duration": 134}, {"note": 0, "velocity": 0, "duration": 106}, {"note": 72, "velocity": 87, "duration": 130}, {"note": 0, "velocity": 0, "duration": 110}, {"note": 73, "velocity": 88, "duration": 149}, {"note": 0, "velocity": 0, "duration": 91}, {"note": 72, "velocity": 91, "duration": 111}, {"note": 0, "velocity": 0, "duration": 129}, {"note": 72, "velocity": 92, "duration": 101}, {"note": 0, "velocity": 0, "duration": 139}, {"note": 72, "velocity": 88, "duration": 145}, {"note": 0, "velocity": 0, "duration": 95}, {"note": 71, "velocity": 83, "duration": 164}, {"note": 0, "velocity": 0, "duration": 76}, {"note": 72, "velocity": 88, "duration": 240}, {"note": 0, "velocity": 0, "duration": 480}, {"note": 70, "velocity": 87, "duration": 137}, {"note": 0, "velocity": 0, "duration": 103}, {"note": 72, "velocity": 90, "duration": 112}, {"note": 0, "velocity": 0, "duration": 128}, {"note": 66, "velocity": 88, "duration": 125}, {"note": 0, "velocity": 0, "duration": 115}, {"note": 66, "velocity": 87, "duration": 474}, {"note": 0, "velocity": 0, "duration": 246}, {"note": 66, "velocity": 86, "duration": 158}, {"note": 0, "velocity": 0, "duration": 82}, {"note": 68, "velocity": 88, "duration": 131}, {"note": 0, "velocity": 0, "duration": 109}, {"note": 70, "velocity": 86, "duration": 172}, {"note": 0, "velocity": 0, "duration": 68}, {"note": 73, "velocity": 87, "duration": 144}, {"note": 0, "velocity": 0, "duration": 96}, {"note": 73, "velocity": 90, "duration": 129}, {"note": 0, "velocity": 0, "duration": 111}, {"note": 73, "velocity": 80, "duration": 137}, {"note": 0, "velocity": 0, "duration": 103}, {"note": 72, "velocity": 88, "duration": 154}, {"note": 0, "velocity": 0, "duration": 86}, {"note": 73, "velocity": 87, "duration": 163}, {"note": 0, "velocity": 0, "duration": 77}, {"note": 77, "velocity": 95, "duration": 431}, {"note": 75, "velocity": 93, "duration": 111}, {"note": 0, "velocity": 0, "duration": 129}, {"note": 77, "velocity": 91, "duration": 135}, {"note": 0, "velocity": 0, "duration": 105}, {"note": 70, "velocity": 88, "duration": 140}, {"note": 0, "velocity": 0, "duration": 100}, {"note": 70, "velocity": 87, "duration": 549}, {"note": 0, "velocity": 0, "duration": 171}, {"note": 70, "velocity": 90, "duration": 113}, {"note": 0, "velocity": 0, "duration": 127}, {"note": 72, "velocity": 88, "duration": 107}, {"note": 0, "velocity": 0, "duration": 133}, {"note": 73, "velocity": 87, "duration": 143}, {"note": 0, "velocity": 0, "duration": 97}, {"note": 77, "velocity": 88, "duration": 104}, {"note": 0, "velocity": 0, "duration": 136}, {"note": 72, "velocity": 88, "duration": 106}, {"note": 0, "velocity": 0, "duration": 134}, {"note": 72, "velocity": 86, "duration": 147}, {"note": 0, "velocity": 0, "duration": 93}, {"note": 73, "velocity": 86, "duration": 130}, {"note": 0, "velocity": 0, "duration": 110}, {"note": 72, "velocity": 91, "duration": 126}, {"note": 0, "velocity": 0, "duration": 114}, {"note": 70, "velocity": 87, "duration": 114}, {"note": 0, "velocity": 0, "duration": 126}, {"note": 72, "velocity": 87, "duration": 144}, {"note": 0, "velocity": 0, "duration": 96}, {"note": 70, "velocity": 88, "duration": 149}, {"note": 0, "velocity": 0, "duration": 91}, {"note": 73, "velocity": 91, "duration": 480}, {"note": 66, "velocity": 90, "duration": 141}, {"note": 0, "velocity": 0, "duration": 99}, {"note": 66, "velocity": 90, "duration": 289}, {"note": 0, "velocity": 0, "duration": 191}, {"note": 66, "velocity": 88, "duration": 119}, {"note": 0, "velocity": 0, "duration": 121}, {"note": 68, "velocity": 87, "duration": 119}, {"note": 0, "velocity": 0, "duration": 121}, {"note": 70, "velocity": 87, "duration": 136}, {"note": 0, "velocity": 0, "duration": 104}, {"note": 75, "velocity": 91, "duration": 240}, {"note": 73, "velocity": 86, "duration": 480}, {"note": 72, "velocity": 70, "duration": 115}, {"note": 0, "velocity": 0, "duration": 125}, {"note": 73, "velocity": 86, "duration": 144}, {"note": 0, "velocity": 0, "duration": 96}, {"note": 70, "velocity": 87, "duration": 129}, {"note": 0, "velocity": 0, "duration": 111}, {"note": 72, "velocity": 88, "duration": 132}, {"note": 0, "velocity": 0, "duration": 108}, {"note": 73, "velocity": 88, "duration": 140}, {"note": 0, "velocity": 0, "duration": 100}, {"note": 82, "velocity": 87, "duration": 659}, {"note": 0, "velocity": 0, "duration": 541}, {"note": 82, "velocity": 87, "duration": 100}, {"note": 0, "velocity": 0, "duration": 140}, {"note": 84, "velocity": 86, "duration": 123}, {"note": 0, "velocity": 0, "duration": 117}, {"note": 82, "velocity": 87, "duration": 119}, {"note": 0, "velocity": 0, "duration": 121}, {"note": 80, "velocity": 91, "duration": 101}, {"note": 0, "velocity": 0, "duration": 139}, {"note": 77, "velocity": 92, "duration": 250}, {"note": 0, "velocity": 0, "duration": 230}, {"note": 75, "velocity": 90, "duration": 130}, {"note": 0, "velocity": 0, "duration": 110}, {"note": 77, "velocity": 91, "duration": 190}, {"note": 77, "velocity": 93, "duration": 125}, {"note": 0, "velocity": 0, "duration": 115}, {"note": 77, "velocity": 88, "duration": 145}, {"note": 0, "velocity": 0, "duration": 95}, {"note": 75, "velocity": 92, "duration": 110}, {"note": 0, "velocity": 0, "duration": 130}, {"note": 77, "velocity": 93, "duration": 298}, {"note": 0, "velocity": 0, "duration": 182}, {"note": 81, "velocity": 93, "duration": 375}, {"note": 0, "velocity": 0, "duration": 345}, {"note": 81, "velocity": 88, "duration": 143}, {"note": 0, "velocity": 0, "duration": 97}, {"note": 81, "velocity": 81, "duration": 148}, {"note": 0, "velocity": 0, "duration": 92}, {"note": 81, "velocity": 87, "duration": 125}, {"note": 0, "velocity": 0, "duration": 115}, {"note": 81, "velocity": 88, "duration": 138}, {"note": 0, "velocity": 0, "duration": 102}, {"note": 82, "velocity": 87, "duration": 129}, {"note": 0, "velocity": 0, "duration": 111}, {"note": 84, "velocity": 90, "duration": 120}, {"note": 0, "velocity": 0, "duration": 120}, {"note": 81, "velocity": 87, "duration": 152}, {"note": 0, "velocity": 0, "duration": 88}, {"note": 82, "velocity": 86, "duration": 149}, {"note": 0, "velocity": 0, "duration": 91}, {"note": 77, "velocity": 88, "duration": 345}, {"note": 0, "velocity": 0, "duration": 135}, {"note": 75, "velocity": 95, "duration": 119}, {"note": 0, "velocity": 0, "duration": 121}, {"note": 77, "velocity": 89, "duration": 379}, {"note": 0, "velocity": 0, "duration": 101}, {"note": 82, "velocity": 87, "duration": 508}, {"note": 0, "velocity": 0, "duration": 212}, {"note": 82, "velocity": 88, "duration": 95}, {"note": 0, "velocity": 0, "duration": 145}, {"note": 84, "velocity": 90, "duration": 125}, {"note": 0, "velocity": 0, "duration": 115}, {"note": 82, "velocity": 86, "duration": 126}, {"note": 0, "velocity": 0, "duration": 114}, {"note": 80, "velocity": 93, "duration": 113}, {"note": 0, "velocity": 0, "duration": 127}, {"note": 77, "velocity": 92, "duration": 121}, {"note": 0, "velocity": 0, "duration": 359}, {"note": 76, "velocity": 88, "duration": 135}, {"note": 0, "velocity": 0, "duration": 105}, {"note": 77, "velocity": 88, "duration": 177}, {"note": 0, "velocity": 0, "duration": 63}, {"note": 77, "velocity": 92, "duration": 287}, {"note": 0, "velocity": 0, "duration": 193}, {"note": 75, "velocity": 89, "duration": 128}, {"note": 0, "velocity": 0, "duration": 112}, {"note": 77, "velocity": 88, "duration": 110}, {"note": 0, "velocity": 0, "duration": 130}, {"note": 72, "velocity": 85, "duration": 303}, {"note": 0, "velocity": 0, "duration": 177}, {"note": 71, "velocity": 81, "duration": 78}, {"note": 0, "velocity": 0, "duration": 162}, {"note": 72, "velocity": 91, "duration": 139}, {"note": 0, "velocity": 0, "duration": 101}, {"note": 71, "velocity": 87, "duration": 129}, {"note": 0, "velocity": 0, "duration": 111}, {"note": 72, "velocity": 88, "duration": 139}, {"note": 0, "velocity": 0, "duration": 101}, {"note": 72, "velocity": 88, "duration": 130}, {"note": 0, "velocity": 0, "duration": 110}, {"note": 77, "velocity": 89, "duration": 144}, {"note": 0, "velocity": 0, "duration": 96}, {"note": 70, "velocity": 90, "duration": 154}, {"note": 0, "velocity": 0, "duration": 326}, {"note": 69, "velocity": 87, "duration": 162}, {"note": 0, "velocity": 0, "duration": 78}, {"note": 70, "velocity": 89, "duration": 480}, {"note": 0, "velocity": 0, "duration": 15120}, {"note": 70, "velocity": 87, "duration": 129}, {"note": 0, "velocity": 0, "duration": 111}, {"note": 72, "velocity": 88, "duration": 132}, {"note": 0, "velocity": 0, "duration": 108}, {"note": 73, "velocity": 88, "duration": 140}, {"note": 0, "velocity": 0, "duration": 100}, {"note": 82, "velocity": 87, "duration": 659}, {"note": 0, "velocity": 0, "duration": 541}, {"note": 82, "velocity": 87, "duration": 100}, {"note": 0, "velocity": 0, "duration": 140}, {"note": 84, "velocity": 86, "duration": 123}, {"note": 0, "velocity": 0, "duration": 117}, {"note": 82, "velocity": 87, "duration": 119}, {"note": 0, "velocity": 0, "duration": 121}, {"note": 81, "velocity": 91, "duration": 101}, {"note": 0, "velocity": 0, "duration": 139}, {"note": 77, "velocity": 92, "duration": 115}, {"note": 0, "velocity": 0, "duration": 125}, {"note": 77, "velocity": 90, "duration": 116}, {"note": 0, "velocity": 0, "duration": 124}, {"note": 75, "velocity": 90, "duration": 130}, {"note": 0, "velocity": 0, "duration": 110}, {"note": 77, "velocity": 91, "duration": 190}, {"note": 75, "velocity": 93, "duration": 125}, {"note": 0, "velocity": 0, "duration": 115}, {"note": 77, "velocity": 88, "duration": 145}, {"note": 0, "velocity": 0, "duration": 95}, {"note": 75, "velocity": 92, "duration": 110}, {"note": 0, "velocity": 0, "duration": 130}, {"note": 77, "velocity": 93, "duration": 298}, {"note": 0, "velocity": 0, "duration": 182}, {"note": 81, "velocity": 93, "duration": 375}, {"note": 0, "velocity": 0, "duration": 345}, {"note": 81, "velocity": 88, "duration": 143}, {"note": 0, "velocity": 0, "duration": 97}, {"note": 81, "velocity": 81, "duration": 148}, {"note": 0, "velocity": 0, "duration": 92}, {"note": 81, "velocity": 87, "duration": 125}, {"note": 0, "velocity": 0, "duration": 115}, {"note": 81, "velocity": 88, "duration": 138}, {"note": 0, "velocity": 0, "duration": 102}, {"note": 82, "velocity": 87, "duration": 129}, {"note": 0, "velocity": 0, "duration": 111}, {"note": 84, "velocity": 90, "duration": 120}, {"note": 0, "velocity": 0, "duration": 120}, {"note": 81, "velocity": 87, "duration": 152}, {"note": 0, "velocity": 0, "duration": 88}, {"note": 82, "velocity": 86, "duration": 149}, {"note": 0, "velocity": 0, "duration": 91}, {"note": 77, "velocity": 88, "duration": 345}, {"note": 0, "velocity": 0, "duration": 135}, {"note": 75, "velocity": 95, "duration": 119}, {"note": 0, "velocity": 0, "duration": 121}, {"note": 77, "velocity": 89, "duration": 379}, {"note": 0, "velocity": 0, "duration": 101}, {"note": 82, "velocity": 87, "duration": 508}, {"note": 0, "velocity": 0, "duration": 212}, {"note": 82, "velocity": 88, "duration": 95}, {"note": 0, "velocity": 0, "duration": 145}, {"note": 84, "velocity": 90, "duration": 125}, {"note": 0, "velocity": 0, "duration": 115}, {"note": 82, "velocity": 86, "duration": 126}, {"note": 0, "velocity": 0, "duration": 114}, {"note": 81, "velocity": 93, "duration": 113}, {"note": 0, "velocity": 0, "duration": 127}, {"note": 77, "velocity": 92, "duration": 121}, {"note": 0, "velocity": 0, "duration": 119}, {"note": 77, "velocity": 91, "duration": 129}, {"note": 0, "velocity": 0, "duration": 111}, {"note": 76, "velocity": 88, "duration": 135}, {"note": 0, "velocity": 0, "duration": 105}, {"note": 77, "velocity": 88, "duration": 177}, {"note": 0, "velocity": 0, "duration": 63}, {"note": 75, "velocity": 92, "duration": 287}, {"note": 0, "velocity": 0, "duration": 193}, {"note": 75, "velocity": 89, "duration": 128}, {"note": 0, "velocity": 0, "duration": 112}, {"note": 77, "velocity": 88, "duration": 110}, {"note": 0, "velocity": 0, "duration": 130}, {"note": 72, "velocity": 85, "duration": 303}, {"note": 0, "velocity": 0, "duration": 177}, {"note": 72, "velocity": 81, "duration": 78}, {"note": 0, "velocity": 0, "duration": 162}, {"note": 72, "velocity": 91, "duration": 139}, {"note": 0, "velocity": 0, "duration": 101}, {"note": 71, "velocity": 87, "duration": 129}, {"note": 0, "velocity": 0, "duration": 111}, {"note": 72, "velocity": 88, "duration": 139}, {"note": 0, "velocity": 0, "duration": 101}, {"note": 72, "velocity": 88, "duration": 130}, {"note": 0, "velocity": 0, "duration": 110}, {"note": 77, "velocity": 89, "duration": 144}, {"note": 0, "velocity": 0, "duration": 96}, {"note": 70, "velocity": 90, "duration": 154}, {"note": 0, "velocity": 0, "duration": 326}, {"note": 69, "velocity": 87, "duration": 162}, {"note": 0, "velocity": 0, "duration": 78}, {"note": 70, "velocity": 89, "duration": 240}, {"note": 70, "velocity": 87, "duration": 129}, {"note": 0, "velocity": 0, "duration": 111}, {"note": 72, "velocity": 88, "duration": 132}, {"note": 0, "velocity": 0, "duration": 108}, {"note": 73, "velocity": 88, "duration": 140}, {"note": 0, "velocity": 0, "duration": 100}, {"note": 82, "velocity": 87, "duration": 659}, {"note": 0, "velocity": 0, "duration": 541}, {"note": 82, "velocity": 87, "duration": 100}, {"note": 0, "velocity": 0, "duration": 140}, {"note": 84, "velocity": 86, "duration": 123}, {"note": 0, "velocity": 0, "duration": 117}, {"note": 82, "velocity": 87, "duration": 119}, {"note": 0, "velocity": 0, "duration": 121}, {"note": 80, "velocity": 91, "duration": 101}, {"note": 0, "velocity": 0, "duration": 139}, {"note": 77, "velocity": 92, "duration": 115}, {"note": 0, "velocity": 0, "duration": 365}, {"note": 75, "velocity": 90, "duration": 130}, {"note": 0, "velocity": 0, "duration": 110}, {"note": 77, "velocity": 91, "duration": 190}, {"note": 77, "velocity": 93, "duration": 125}, {"note": 0, "velocity": 0, "duration": 115}, {"note": 77, "velocity": 88, "duration": 145}, {"note": 0, "velocity": 0, "duration": 95}, {"note": 75, "velocity": 92, "duration": 110}, {"note": 0, "velocity": 0, "duration": 130}, {"note": 77, "velocity": 93, "duration": 298}, {"note": 0, "velocity": 0, "duration": 182}, {"note": 81, "velocity": 93, "duration": 375}, {"note": 0, "velocity": 0, "duration": 345}, {"note": 81, "velocity": 88, "duration": 143}, {"note": 0, "velocity": 0, "duration": 97}, {"note": 81, "velocity": 81, "duration": 148}, {"note": 0, "velocity": 0, "duration": 92}, {"note": 81, "velocity": 87, "duration": 125}, {"note": 0, "velocity": 0, "duration": 115}, {"note": 81, "velocity": 88, "duration": 138}, {"note": 0, "velocity": 0, "duration": 102}, {"note": 82, "velocity": 87, "duration": 129}, {"note": 0, "velocity": 0, "duration": 111}, {"note": 84, "velocity": 90, "duration": 120}, {"note": 0, "velocity": 0, "duration": 120}, {"note": 81, "velocity": 87, "duration": 152}, {"note": 0, "velocity": 0, "duration": 88}, {"note": 82, "velocity": 86, "duration": 149}, {"note": 0, "velocity": 0, "duration": 91}, {"note": 77, "velocity": 88, "duration": 345}, {"note": 0, "velocity": 0, "duration": 135}, {"note": 75, "velocity": 95, "duration": 119}, {"note": 0, "velocity": 0, "duration": 121}, {"note": 77, "velocity": 89, "duration": 379}, {"note": 0, "velocity": 0, "duration": 101}, {"note": 82, "velocity": 87, "duration": 508}, {"note": 0, "velocity": 0, "duration": 212}, {"note": 82, "velocity": 88, "duration": 95}, {"note": 0, "velocity": 0, "duration": 145}, {"note": 84, "velocity": 90, "duration": 125}, {"note": 0, "velocity": 0, "duration": 115}, {"note": 82, "velocity": 86, "duration": 126}, {"note": 0, "velocity": 0, "duration": 114}, {"note": 80, "velocity": 93, "duration": 113}, {"note": 0, "velocity": 0, "duration": 127}, {"note": 77, "velocity": 92, "duration": 121}, {"note": 0, "velocity": 0, "duration": 119}, {"note": 77, "velocity": 91, "duration": 129}, {"note": 0, "velocity": 0, "duration": 111}, {"note": 76, "velocity": 88, "duration": 135}, {"note": 0, "velocity": 0, "duration": 105}, {"note": 77, "velocity": 88, "duration": 177}, {"note": 0, "velocity": 0, "duration": 63}, {"note": 77, "velocity": 92, "duration": 287}, {"note": 0, "velocity": 0, "duration": 193}, {"note": 75, "velocity": 89, "duration": 128}, {"note": 0, "velocity": 0, "duration": 112}, {"note": 77, "velocity": 88, "duration": 110}, {"note": 0, "velocity": 0, "duration": 130}, {"note": 72, "velocity": 85, "duration": 303}, {"note": 0, "velocity": 0, "duration": 177}, {"note": 71, "velocity": 81, "duration": 78}, {"note": 0, "velocity": 0, "duration": 162}, {"note": 72, "velocity": 91, "duration": 139}, {"note": 0, "velocity": 0, "duration": 101}, {"note": 72, "velocity": 87, "duration": 129}, {"note": 0, "velocity": 0, "duration": 111}, {"note": 73, "velocity": 88, "duration": 139}, {"note": 0, "velocity": 0, "duration": 101}, {"note": 72, "velocity": 88, "duration": 130}, {"note": 0, "velocity": 0, "duration": 110}, {"note": 77, "velocity": 89, "duration": 144}, {"note": 0, "velocity": 0, "duration": 96}, {"note": 70, "velocity": 90, "duration": 154}, {"note": 0, "velocity": 0, "duration": 326}, {"note": 69, "velocity": 87, "duration": 162}, {"note": 0, "velocity": 0, "duration": 78}, {"note": 70, "velocity": 89, "duration": 480}, {"note": 0, "velocity": 0, "duration": 15360}, {"note": 77, "velocity": 90, "duration": 158}, {"note": 0, "velocity": 0, "duration": 82}, {"note": 76, "velocity": 91, "duration": 123}, {"note": 0, "velocity": 0, "duration": 117}, {"note": 77, "velocity": 91, "duration": 143}, {"note": 0, "velocity": 0, "duration": 97}, {"note": 70, "velocity": 89, "duration": 115}, {"note": 0, "velocity": 0, "duration": 125}, {"note": 70, "velocity": 88, "duration": 626}, {"note": 0, "velocity": 0, "duration": 94}, {"note": 70, "velocity": 89, "duration": 134}, {"note": 0, "velocity": 0, "duration": 106}, {"note": 72, "velocity": 87, "duration": 130}, {"note": 0, "velocity": 0, "duration": 110}, {"note": 73, "velocity": 88, "duration": 149}, {"note": 0, "velocity": 0, "duration": 91}, {"note": 72, "velocity": 91, "duration": 111}, {"note": 0, "velocity": 0, "duration": 129}, {"note": 72, "velocity": 92, "duration": 101}, {"note": 0, "velocity": 0, "duration": 139}, {"note": 72, "velocity": 88, "duration": 145}, {"note": 0, "velocity": 0, "duration": 95}, {"note": 71, "velocity": 83, "duration": 164}, {"note": 0, "velocity": 0, "duration": 76}, {"note": 72, "velocity": 88, "duration": 240}, {"note": 0, "velocity": 0, "duration": 480}, {"note": 70, "velocity": 87, "duration": 137}, {"note": 0, "velocity": 0, "duration": 103}, {"note": 72, "velocity": 90, "duration": 112}, {"note": 0, "velocity": 0, "duration": 128}, {"note": 66, "velocity": 88, "duration": 125}, {"note": 0, "velocity": 0, "duration": 115}, {"note": 66, "velocity": 87, "duration": 474}, {"note": 0, "velocity": 0, "duration": 246}, {"note": 66, "velocity": 86, "duration": 158}, {"note": 0, "velocity": 0, "duration": 82}, {"note": 68, "velocity": 88, "duration": 131}, {"note": 0, "velocity": 0, "duration": 109}, {"note": 70, "velocity": 86, "duration": 172}, {"note": 0, "velocity": 0, "duration": 68}, {"note": 73, "velocity": 87, "duration": 144}, {"note": 0, "velocity": 0, "duration": 96}, {"note": 73, "velocity": 90, "duration": 129}, {"note": 0, "velocity": 0, "duration": 111}, {"note": 73, "velocity": 80, "duration": 137}, {"note": 0, "velocity": 0, "duration": 103}, {"note": 72, "velocity": 88, "duration": 154}, {"note": 0, "velocity": 0, "duration": 86}, {"note": 73, "velocity": 87, "duration": 163}, {"note": 0, "velocity": 0, "duration": 77}, {"note": 77, "velocity": 95, "duration": 431}, {"note": 75, "velocity": 93, "duration": 111}, {"note": 0, "velocity": 0, "duration": 129}, {"note": 77, "velocity": 91, "duration": 135}, {"note": 0, "velocity": 0, "duration": 105}, {"note": 70, "velocity": 88, "duration": 140}, {"note": 0, "velocity": 0, "duration": 100}, {"note": 70, "velocity": 87, "duration": 549}, {"note": 0, "velocity": 0, "duration": 171}, {"note": 70, "velocity": 90, "duration": 113}, {"note": 0, "velocity": 0, "duration": 127}, {"note": 72, "velocity": 88, "duration": 107}, {"note": 0, "velocity": 0, "duration": 133}, {"note": 73, "velocity": 87, "duration": 143}, {"note": 0, "velocity": 0, "duration": 97}, {"note": 77, "velocity": 88, "duration": 104}, {"note": 0, "velocity": 0, "duration": 136}, {"note": 72, "velocity": 88, "duration": 106}, {"note": 0, "velocity": 0, "duration": 134}, {"note": 72, "velocity": 86, "duration": 147}, {"note": 0, "velocity": 0, "duration": 93}, {"note": 73, "velocity": 86, "duration": 130}, {"note": 0, "velocity": 0, "duration": 110}, {"note": 72, "velocity": 91, "duration": 126}, {"note": 0, "velocity": 0, "duration": 114}, {"note": 70, "velocity": 87, "duration": 114}, {"note": 0, "velocity": 0, "duration": 126}, {"note": 72, "velocity": 87, "duration": 144}, {"note": 0, "velocity": 0, "duration": 96}, {"note": 70, "velocity": 88, "duration": 149}, {"note": 0, "velocity": 0, "duration": 91}, {"note": 73, "velocity": 91, "duration": 480}, {"note": 66, "velocity": 90, "duration": 141}, {"note": 0, "velocity": 0, "duration": 99}, {"note": 66, "velocity": 90, "duration": 289}, {"note": 0, "velocity": 0, "duration": 191}, {"note": 66, "velocity": 88, "duration": 119}, {"note": 0, "velocity": 0, "duration": 121}, {"note": 68, "velocity": 87, "duration": 119}, {"note": 0, "velocity": 0, "duration": 121}, {"note": 70, "velocity": 87, "duration": 136}, {"note": 0, "velocity": 0, "duration": 104}, {"note": 75, "velocity": 91, "duration": 240}, {"note": 73, "velocity": 86, "duration": 480}, {"note": 72, "velocity": 70, "duration": 115}, {"note": 0, "velocity": 0, "duration": 120}, {"note": 73, "velocity": 86, "duration": 226}, {"note": 70, "velocity": 88, "duration": 168}, {"note": 0, "velocity": 0, "duration": 93}, {"note": 70, "velocity": 87, "duration": 1776}]]