[[{"note": 65, "velocity": 94, "duration": 73}, {"note": 70, "velocity": 101, "duration": 166}, {"note": 0, "velocity": 0, "duration": 74}, {"note": 72, "velocity": 92, "duration": 89}, {"note": 74, "velocity": 97, "duration": 279}, {"note": 0, "velocity": 0, "duration": 81}, {"note": 65, "velocity": 92, "duration": 417}, {"note": 0, "velocity": 0, "duration": 63}, {"note": 74, "velocity": 99, "duration": 169}, {"note": 0, "velocity": 0, "duration": 71}, {"note": 72, "velocity": 96, "duration": 240}, {"note": 72, "velocity": 94, "duration": 170}, {"note": 0, "velocity": 0, "duration": 70}, {"note": 72, "velocity": 96, "duration": 126}, {"note": 69, "velocity": 97, "duration": 167}, {"note": 0, "velocity": 0, "duration": 73}, {"note": 67, "velocity": 90, "duration": 108}, {"note": 65, "velocity": 93, "duration": 514}, {"note": 0, "velocity": 0, "duration": 446}, {"note": 62, "velocity": 96, "duration": 202}, {"note": 70, "velocity": 91, "duration": 180}, {"note": 70, "velocity": 94, "duration": 90}, {"note": 69, "velocity": 91, "duration": 179}, {"note": 0, "velocity": 0, "duration": 61}, {"note": 70, "velocity": 93, "duration": 360}, {"note": 70, "velocity": 95, "duration": 173}, {"note": 0, "velocity": 0, "duration": 67}, {"note": 72, "velocity": 85, "duration": 176}, {"note": 0, "velocity": 0, "duration": 64}, {"note": 70, "velocity": 96, "duration": 180}, {"note": 69, "velocity": 95, "duration": 177}, {"note": 0, "velocity": 0, "duration": 183}, {"note": 69, "velocity": 94, "duration": 61}, {"note": 69, "velocity": 95, "duration": 160}, {"note": 0, "velocity": 0, "duration": 80}, {"note": 62, "velocity": 92, "duration": 73}, {"note": 65, "velocity": 93, "duration": 656}, {"note": 0, "velocity": 0, "duration": 304}, {"note": 70, "velocity": 91, "duration": 82}, {"note": 77, "velocity": 93, "duration": 182}, {"note": 70, "velocity": 97, "duration": 159}, {"note": 0, "velocity": 0, "duration": 81}, {"note": 70, "velocity": 96, "duration": 184}, {"note": 69, "velocity": 91, "duration": 84}, {"note": 70, "velocity": 92, "duration": 596}, {"note": 0, "velocity": 0, "duration": 244}, {"note": 67, "velocity": 91, "duration": 198}, {"note": 65, "velocity": 93, "duration": 169}, {"note": 0, "velocity": 0, "duration": 71}, {"note": 65, "velocity": 96, "duration": 155}, {"note": 0, "velocity": 0, "duration": 85}, {"note": 65, "velocity": 94, "duration": 90}, {"note": 74, "velocity": 101, "duration": 161}, {"note": 0, "velocity": 0, "duration": 79}, {"note": 74, "velocity": 99, "duration": 622}, {"note": 0, "velocity": 0, "duration": 218}, {"note": 74, "velocity": 99, "duration": 178}, {"note": 0, "velocity": 0, "duration": 62}, {"note": 75, "velocity": 92, "duration": 166}, {"note": 0, "velocity": 0, "duration": 74}, {"note": 74, "velocity": 92, "duration": 145}, {"note": 0, "velocity": 0, "duration": 95}, {"note": 67, "velocity": 94, "duration": 177}, {"note": 0, "velocity": 0, "duration": 63}, {"note": 70, "velocity": 93, "duration": 160}, {"note": 0, "velocity": 0, "duration": 80}, {"note": 70, "velocity": 94, "duration": 240}, {"note": 67, "velocity": 94, "duration": 170}, {"note": 0, "velocity": 0, "duration": 70}, {"note": 70, "velocity": 92, "duration": 379}, {"note": 0, "velocity": 0, "duration": 101}, {"note": 70, "velocity": 94, "duration": 163}, {"note": 0, "velocity": 0, "duration": 77}, {"note": 65, "velocity": 94, "duration": 779}, {"note": 0, "velocity": 0, "duration": 1261}, {"note": 65, "velocity": 94, "duration": 73}, {"note": 70, "velocity": 101, "duration": 166}, {"note": 0, "velocity": 0, "duration": 74}, {"note": 72, "velocity": 92, "duration": 89}, {"note": 74, "velocity": 97, "duration": 279}, {"note": 0, "velocity": 0, "duration": 81}, {"note": 65, "velocity": 92, "duration": 417}, {"note": 0, "velocity": 0, "duration": 63}, {"note": 74, "velocity": 99, "duration": 169}, {"note": 0, "velocity": 0, "duration": 71}, {"note": 72, "velocity": 96, "duration": 240}, {"note": 72, "velocity": 94, "duration": 170}, {"note": 0, "velocity": 0, "duration": 70}, {"note": 72, "velocity": 96, "duration": 126}, {"note": 69, "velocity": 97, "duration": 167}, {"note": 0, "velocity": 0, "duration": 73}, {"note": 67, "velocity": 90, "duration": 108}, {"note": 65, "velocity": 93, "duration": 514}, {"note": 0, "velocity": 0, "duration": 446}, {"note": 62, "velocity": 96, "duration": 202}, {"note": 62, "velocity": 91, "duration": 180}, {"note": 62, "velocity": 94, "duration": 90}, {"note": 70, "velocity": 91, "duration": 179}, {"note": 0, "velocity": 0, "duration": 61}, {"note": 70, "velocity": 93, "duration": 360}, {"note": 70, "velocity": 95, "duration": 173}, {"note": 0, "velocity": 0, "duration": 67}, {"note": 72, "velocity": 85, "duration": 176}, {"note": 0, "velocity": 0, "duration": 64}, {"note": 70, "velocity": 96, "duration": 180}, {"note": 69, "velocity": 95, "duration": 177}, {"note": 0, "velocity": 0, "duration": 183}, {"note": 69, "velocity": 94, "duration": 61}, {"note": 69, "velocity": 95, "duration": 160}, {"note": 0, "velocity": 0, "duration": 80}, {"note": 62, "velocity": 92, "duration": 73}, {"note": 65, "velocity": 93, "duration": 656}, {"note": 0, "velocity": 0, "duration": 304}, {"note": 70, "velocity": 91, "duration": 82}, {"note": 77, "velocity": 93, "duration": 182}, {"note": 70, "velocity": 97, "duration": 159}, {"note": 0, "velocity": 0, "duration": 81}, {"note": 70, "velocity": 96, "duration": 184}, {"note": 69, "velocity": 91, "duration": 84}, {"note": 70, "velocity": 92, "duration": 596}, {"note": 0, "velocity": 0, "duration": 244}, {"note": 67, "velocity": 91, "duration": 198}, {"note": 65, "velocity": 93, "duration": 169}, {"note": 0, "velocity": 0, "duration": 71}, {"note": 65, "velocity": 96, "duration": 155}, {"note": 0, "velocity": 0, "duration": 85}, {"note": 65, "velocity": 94, "duration": 90}, {"note": 74, "velocity": 101, "duration": 161}, {"note": 0, "velocity": 0, "duration": 79}, {"note": 74, "velocity": 99, "duration": 622}, {"note": 0, "velocity": 0, "duration": 218}, {"note": 74, "velocity": 99, "duration": 178}, {"note": 0, "velocity": 0, "duration": 62}, {"note": 75, "velocity": 92, "duration": 166}, {"note": 0, "velocity": 0, "duration": 74}, {"note": 74, "velocity": 92, "duration": 145}, {"note": 0, "velocity": 0, "duration": 95}, {"note": 67, "velocity": 94, "duration": 177}, {"note": 0, "velocity": 0, "duration": 63}, {"note": 70, "velocity": 93, "duration": 160}, {"note": 0, "velocity": 0, "duration": 80}, {"note": 70, "velocity": 94, "duration": 240}, {"note": 67, "velocity": 94, "duration": 170}, {"note": 0, "velocity": 0, "duration": 70}, {"note": 74, "velocity": 92, "duration": 379}, {"note": 0, "velocity": 0, "duration": 101}, {"note": 72, "velocity": 94, "duration": 960}, {"note": 0, "velocity": 0, "duration": 240}, {"note": 65, "velocity": 99, "duration": 174}, {"note": 0, "velocity": 0, "duration": 66}, {"note": 77, "velocity": 92, "duration": 184}, {"note": 75, "velocity": 99, "duration": 81}, {"note": 74, "velocity": 101, "duration": 421}, {"note": 74, "velocity": 96, "duration": 56}, {"note": 0, "velocity": 0, "duration": 64}, {"note": 74, "velocity": 101, "duration": 65}, {"note": 74, "velocity": 81, "duration": 110}, {"note": 75, "velocity": 96, "duration": 59}, {"note": 0, "velocity": 0, "duration": 61}, {"note": 72, "velocity": 94, "duration": 331}, {"note": 72, "velocity": 96, "duration": 53}, {"note": 0, "velocity": 0, "duration": 67}, {"note": 72, "velocity": 92, "duration": 58}, {"note": 0, "velocity": 0, "duration": 62}, {"note": 72, "velocity": 95, "duration": 61}, {"note": 74, "velocity": 106, "duration": 190}, {"note": 72, "velocity": 94, "duration": 56}, {"note": 0, "velocity": 0, "duration": 64}, {"note": 72, "velocity": 94, "duration": 223}, {"note": 70, "velocity": 99, "duration": 60}, {"note": 70, "velocity": 91, "duration": 60}, {"note": 70, "velocity": 96, "duration": 72}, {"note": 72, "velocity": 92, "duration": 74}, {"note": 0, "velocity": 0, "duration": 166}, {"note": 74, "velocity": 92, "duration": 318}, {"note": 74, "velocity": 97, "duration": 166}, {"note": 0, "velocity": 0, "duration": 74}, {"note": 74, "velocity": 93, "duration": 63}, {"note": 74, "velocity": 101, "duration": 164}, {"note": 0, "velocity": 0, "duration": 76}, {"note": 69, "velocity": 92, "duration": 84}, {"note": 67, "velocity": 92, "duration": 177}, {"note": 0, "velocity": 0, "duration": 63}, {"note": 67, "velocity": 91, "duration": 66}, {"note": 67, "velocity": 92, "duration": 58}, {"note": 0, "velocity": 0, "duration": 62}, {"note": 67, "velocity": 92, "duration": 50}, {"note": 0, "velocity": 0, "duration": 70}, {"note": 67, "velocity": 92, "duration": 84}, {"note": 77, "velocity": 94, "duration": 71}, {"note": 70, "velocity": 91, "duration": 188}, {"note": 0, "velocity": 0, "duration": 172}, {"note": 70, "velocity": 93, "duration": 60}, {"note": 70, "velocity": 92, "duration": 63}, {"note": 70, "velocity": 93, "duration": 65}, {"note": 70, "velocity": 97, "duration": 240}, {"note": 67, "velocity": 92, "duration": 66}, {"note": 70, "velocity": 97, "duration": 141}, {"note": 0, "velocity": 0, "duration": 99}, {"note": 70, "velocity": 94, "duration": 60}, {"note": 70, "velocity": 92, "duration": 170}, {"note": 0, "velocity": 0, "duration": 70}, {"note": 70, "velocity": 95, "duration": 71}, {"note": 72, "velocity": 90, "duration": 63}, {"note": 72, "velocity": 95, "duration": 284}, {"note": 0, "velocity": 0, "duration": 76}, {"note": 65, "velocity": 99, "duration": 174}, {"note": 0, "velocity": 0, "duration": 66}, {"note": 77, "velocity": 92, "duration": 184}, {"note": 75, "velocity": 99, "duration": 81}, {"note": 74, "velocity": 101, "duration": 421}, {"note": 74, "velocity": 96, "duration": 56}, {"note": 0, "velocity": 0, "duration": 64}, {"note": 74, "velocity": 101, "duration": 65}, {"note": 74, "velocity": 81, "duration": 110}, {"note": 75, "velocity": 96, "duration": 59}, {"note": 0, "velocity": 0, "duration": 61}, {"note": 72, "velocity": 94, "duration": 331}, {"note": 72, "velocity": 96, "duration": 53}, {"note": 0, "velocity": 0, "duration": 67}, {"note": 72, "velocity": 92, "duration": 58}, {"note": 0, "velocity": 0, "duration": 62}, {"note": 72, "velocity": 95, "duration": 61}, {"note": 74, "velocity": 106, "duration": 190}, {"note": 72, "velocity": 94, "duration": 56}, {"note": 0, "velocity": 0, "duration": 64}, {"note": 72, "velocity": 94, "duration": 223}, {"note": 70, "velocity": 99, "duration": 60}, {"note": 70, "velocity": 91, "duration": 60}, {"note": 70, "velocity": 96, "duration": 72}, {"note": 79, "velocity": 92, "duration": 240}, {"note": 77, "velocity": 92, "duration": 720}, {"note": 0, "velocity": 0, "duration": 240}, {"note": 70, "velocity": 92, "duration": 76}, {"note": 67, "velocity": 94, "duration": 73}, {"note": 70, "velocity": 92, "duration": 169}, {"note": 0, "velocity": 0, "duration": 71}, {"note": 75, "velocity": 94, "duration": 169}, {"note": 0, "velocity": 0, "duration": 71}, {"note": 79, "velocity": 96, "duration": 235}, {"note": 77, "velocity": 91, "duration": 207}, {"note": 74, "velocity": 97, "duration": 186}, {"note": 72, "velocity": 91, "duration": 111}, {"note": 70, "velocity": 91, "duration": 237}, {"note": 0, "velocity": 0, "duration": 123}, {"note": 67, "velocity": 91, "duration": 67}, {"note": 70, "velocity": 92, "duration": 177}, {"note": 0, "velocity": 0, "duration": 63}, {"note": 70, "velocity": 96, "duration": 75}, {"note": 70, "velocity": 94, "duration": 195}, {"note": 72, "velocity": 94, "duration": 166}, {"note": 0, "velocity": 0, "duration": 74}, {"note": 72, "velocity": 97, "duration": 262}, {"note": 0, "velocity": 0, "duration": 98}, {"note": 72, "velocity": 92, "duration": 66}, {"note": 72, "velocity": 93, "duration": 56}, {"note": 0, "velocity": 0, "duration": 64}, {"note": 72, "velocity": 96, "duration": 171}, {"note": 0, "velocity": 0, "duration": 69}, {"note": 65, "velocity": 97, "duration": 207}, {"note": 72, "velocity": 94, "duration": 310}, {"note": 70, "velocity": 91, "duration": 1436}, {"note": 0, "velocity": 0, "duration": 484}, {"note": 65, "velocity": 94, "duration": 73}, {"note": 70, "velocity": 101, "duration": 166}, {"note": 0, "velocity": 0, "duration": 74}, {"note": 72, "velocity": 92, "duration": 89}, {"note": 74, "velocity": 97, "duration": 279}, {"note": 0, "velocity": 0, "duration": 81}, {"note": 65, "velocity": 92, "duration": 417}, {"note": 0, "velocity": 0, "duration": 63}, {"note": 74, "velocity": 99, "duration": 169}, {"note": 0, "velocity": 0, "duration": 71}, {"note": 72, "velocity": 96, "duration": 240}, {"note": 72, "velocity": 94, "duration": 170}, {"note": 0, "velocity": 0, "duration": 70}, {"note": 72, "velocity": 96, "duration": 126}, {"note": 69, "velocity": 97, "duration": 167}, {"note": 0, "velocity": 0, "duration": 73}, {"note": 67, "velocity": 90, "duration": 108}, {"note": 65, "velocity": 93, "duration": 514}, {"note": 0, "velocity": 0, "duration": 446}, {"note": 62, "velocity": 96, "duration": 202}, {"note": 62, "velocity": 91, "duration": 180}, {"note": 62, "velocity": 94, "duration": 90}, {"note": 70, "velocity": 91, "duration": 179}, {"note": 0, "velocity": 0, "duration": 61}, {"note": 70, "velocity": 93, "duration": 360}, {"note": 70, "velocity": 95, "duration": 173}, {"note": 0, "velocity": 0, "duration": 67}, {"note": 72, "velocity": 85, "duration": 176}, {"note": 0, "velocity": 0, "duration": 64}, {"note": 70, "velocity": 96, "duration": 180}, {"note": 69, "velocity": 95, "duration": 177}, {"note": 0, "velocity": 0, "duration": 183}, {"note": 69, "velocity": 94, "duration": 61}, {"note": 69, "velocity": 95, "duration": 160}, {"note": 0, "velocity": 0, "duration": 80}, {"note": 62, "velocity": 92, "duration": 73}, {"note": 65, "velocity": 93, "duration": 656}, {"note": 0, "velocity": 0, "duration": 304}, {"note": 70, "velocity": 91, "duration": 82}, {"note": 77, "velocity": 93, "duration": 182}, {"note": 70, "velocity": 97, "duration": 159}, {"note": 0, "velocity": 0, "duration": 81}, {"note": 70, "velocity": 96, "duration": 184}, {"note": 69, "velocity": 91, "duration": 84}, {"note": 70, "velocity": 92, "duration": 596}, {"note": 0, "velocity": 0, "duration": 244}, {"note": 67, "velocity": 91, "duration": 198}, {"note": 65, "velocity": 93, "duration": 169}, {"note": 0, "velocity": 0, "duration": 71}, {"note": 65, "velocity": 96, "duration": 155}, {"note": 0, "velocity": 0, "duration": 85}, {"note": 65, "velocity": 94, "duration": 90}, {"note": 74, "velocity": 101, "duration": 161}, {"note": 0, "velocity": 0, "duration": 79}, {"note": 74, "velocity": 99, "duration": 622}, {"note": 0, "velocity": 0, "duration": 218}, {"note": 74, "velocity": 99, "duration": 178}, {"note": 0, "velocity": 0, "duration": 62}, {"note": 75, "velocity": 92, "duration": 166}, {"note": 0, "velocity": 0, "duration": 74}, {"note": 74, "velocity": 92, "duration": 145}, {"note": 0, "velocity": 0, "duration": 95}, {"note": 67, "velocity": 94, "duration": 177}, {"note": 0, "velocity": 0, "duration": 63}, {"note": 70, "velocity": 93, "duration": 160}, {"note": 0, "velocity": 0, "duration": 80}, {"note": 70, "velocity": 94, "duration": 240}, {"note": 67, "velocity": 94, "duration": 170}, {"note": 0, "velocity": 0, "duration": 70}, {"note": 74, "velocity": 92, "duration": 379}, {"note": 0, "velocity": 0, "duration": 101}, {"note": 72, "velocity": 94, "duration": 960}, {"note": 0, "velocity": 0, "duration": 240}, {"note": 65, "velocity": 99, "duration": 174}, {"note": 0, "velocity": 0, "duration": 66}, {"note": 77, "velocity": 92, "duration": 184}, {"note": 75, "velocity": 99, "duration": 81}, {"note": 74, "velocity": 101, "duration": 421}, {"note": 74, "velocity": 96, "duration": 56}, {"note": 0, "velocity": 0, "duration": 64}, {"note": 74, "velocity": 101, "duration": 65}, {"note": 74, "velocity": 81, "duration": 110}, {"note": 75, "velocity": 96, "duration": 59}, {"note": 0, "velocity": 0, "duration": 61}, {"note": 72, "velocity": 94, "duration": 331}, {"note": 72, "velocity": 96, "duration": 53}, {"note": 0, "velocity": 0, "duration": 67}, {"note": 72, "velocity": 92, "duration": 58}, {"note": 0, "velocity": 0, "duration": 62}, {"note": 72, "velocity": 95, "duration": 61}, {"note": 74, "velocity": 106, "duration": 190}, {"note": 72, "velocity": 94, "duration": 56}, {"note": 0, "velocity": 0, "duration": 64}, {"note": 72, "velocity": 94, "duration": 223}, {"note": 70, "velocity": 99, "duration": 60}, {"note": 70, "velocity": 91, "duration": 60}, {"note": 70, "velocity": 96, "duration": 72}, {"note": 72, "velocity": 92, "duration": 74}, {"note": 0, "velocity": 0, "duration": 166}, {"note": 74, "velocity": 92, "duration": 318}, {"note": 74, "velocity": 97, "duration": 166}, {"note": 0, "velocity": 0, "duration": 74}, {"note": 74, "velocity": 93, "duration": 63}, {"note": 74, "velocity": 101, "duration": 164}, {"note": 0, "velocity": 0, "duration": 76}, {"note": 69, "velocity": 92, "duration": 84}, {"note": 67, "velocity": 92, "duration": 177}, {"note": 0, "velocity": 0, "duration": 63}, {"note": 67, "velocity": 91, "duration": 66}, {"note": 67, "velocity": 92, "duration": 58}, {"note": 0, "velocity": 0, "duration": 62}, {"note": 67, "velocity": 92, "duration": 50}, {"note": 0, "velocity": 0, "duration": 70}, {"note": 67, "velocity": 92, "duration": 84}, {"note": 77, "velocity": 94, "duration": 71}, {"note": 70, "velocity": 91, "duration": 188}, {"note": 0, "velocity": 0, "duration": 172}, {"note": 70, "velocity": 93, "duration": 60}, {"note": 70, "velocity": 92, "duration": 63}, {"note": 70, "velocity": 93, "duration": 65}, {"note": 70, "velocity": 97, "duration": 240}, {"note": 67, "velocity": 92, "duration": 66}, {"note": 70, "velocity": 97, "duration": 141}, {"note": 0, "velocity": 0, "duration": 99}, {"note": 70, "velocity": 94, "duration": 60}, {"note": 70, "velocity": 92, "duration": 170}, {"note": 0, "velocity": 0, "duration": 70}, {"note": 70, "velocity": 95, "duration": 71}, {"note": 72, "velocity": 90, "duration": 63}, {"note": 72, "velocity": 95, "duration": 284}, {"note": 0, "velocity": 0, "duration": 76}, {"note": 65, "velocity": 99, "duration": 174}, {"note": 0, "velocity": 0, "duration": 66}, {"note": 77, "velocity": 92, "duration": 184}, {"note": 75, "velocity": 99, "duration": 81}, {"note": 74, "velocity": 101, "duration": 421}, {"note": 74, "velocity": 96, "duration": 56}, {"note": 0, "velocity": 0, "duration": 64}, {"note": 74, "velocity": 101, "duration": 65}, {"note": 74, "velocity": 81, "duration": 110}, {"note": 75, "velocity": 96, "duration": 59}, {"note": 0, "velocity": 0, "duration": 61}, {"note": 72, "velocity": 94, "duration": 331}, {"note": 72, "velocity": 96, "duration": 53}, {"note": 0, "velocity": 0, "duration": 67}, {"note": 72, "velocity": 92, "duration": 58}, {"note": 0, "velocity": 0, "duration": 62}, {"note": 72, "velocity": 95, "duration": 61}, {"note": 74, "velocity": 106, "duration": 190}, {"note": 72, "velocity": 94, "duration": 56}, {"note": 0, "velocity": 0, "duration": 64}, {"note": 72, "velocity": 94, "duration": 223}, {"note": 70, "velocity": 99, "duration": 60}, {"note": 70, "velocity": 91, "duration": 60}, {"note": 70, "velocity": 96, "duration": 72}, {"note": 79, "velocity": 92, "duration": 240}, {"note": 77, "velocity": 92, "duration": 720}, {"note": 0, "velocity": 0, "duration": 240}, {"note": 70, "velocity": 92, "duration": 76}, {"note": 67, "velocity": 94, "duration": 73}, {"note": 70, "velocity": 92, "duration": 169}, {"note": 0, "velocity": 0, "duration": 71}, {"note": 75, "velocity": 94, "duration": 169}, {"note": 0, "velocity": 0, "duration": 71}, {"note": 79, "velocity": 96, "duration": 235}, {"note": 77, "velocity": 91, "duration": 207}, {"note": 74, "velocity": 97, "duration": 186}, {"note": 72, "velocity": 91, "duration": 111}, {"note": 70, "velocity": 91, "duration": 237}, {"note": 0, "velocity": 0, "duration": 123}, {"note": 67, "velocity": 91, "duration": 67}, {"note": 70, "velocity": 92, "duration": 177}, {"note": 0, "velocity": 0, "duration": 63}, {"note": 70, "velocity": 96, "duration": 75}, {"note": 70, "velocity": 94, "duration": 195}, {"note": 0, "velocity": 0, "duration": 645}, {"note": 66, "velocity": 99, "duration": 174}, {"note": 0, "velocity": 0, "duration": 66}, {"note": 78, "velocity": 92, "duration": 184}, {"note": 76, "velocity": 99, "duration": 81}, {"note": 75, "velocity": 101, "duration": 421}, {"note": 75, "velocity": 96, "duration": 56}, {"note": 0, "velocity": 0, "duration": 64}, {"note": 75, "velocity": 101, "duration": 65}, {"note": 75, "velocity": 81, "duration": 110}, {"note": 76, "velocity": 96, "duration": 59}, {"note": 0, "velocity": 0, "duration": 61}, {"note": 73, "velocity": 94, "duration": 331}, {"note": 73, "velocity": 96, "duration": 53}, {"note": 0, "velocity": 0, "duration": 67}, {"note": 73, "velocity": 92, "duration": 58}, {"note": 0, "velocity": 0, "duration": 62}, {"note": 73, "velocity": 95, "duration": 61}, {"note": 75, "velocity": 106, "duration": 190}, {"note": 73, "velocity": 94, "duration": 56}, {"note": 0, "velocity": 0, "duration": 64}, {"note": 73, "velocity": 94, "duration": 223}, {"note": 71, "velocity": 99, "duration": 60}, {"note": 71, "velocity": 91, "duration": 60}, {"note": 71, "velocity": 96, "duration": 72}, {"note": 73, "velocity": 92, "duration": 74}, {"note": 0, "velocity": 0, "duration": 166}, {"note": 75, "velocity": 92, "duration": 318}, {"note": 75, "velocity": 97, "duration": 166}, {"note": 0, "velocity": 0, "duration": 74}, {"note": 75, "velocity": 93, "duration": 63}, {"note": 75, "velocity": 101, "duration": 164}, {"note": 0, "velocity": 0, "duration": 76}, {"note": 70, "velocity": 92, "duration": 84}, {"note": 68, "velocity": 92, "duration": 177}, {"note": 0, "velocity": 0, "duration": 63}, {"note": 68, "velocity": 91, "duration": 66}, {"note": 68, "velocity": 92, "duration": 58}, {"note": 0, "velocity": 0, "duration": 62}, {"note": 68, "velocity": 92, "duration": 50}, {"note": 0, "velocity": 0, "duration": 70}, {"note": 68, "velocity": 92, "duration": 84}, {"note": 78, "velocity": 94, "duration": 71}, {"note": 71, "velocity": 91, "duration": 188}, {"note": 0, "velocity": 0, "duration": 172}, {"note": 71, "velocity": 93, "duration": 60}, {"note": 71, "velocity": 92, "duration": 63}, {"note": 71, "velocity": 93, "duration": 65}, {"note": 71, "velocity": 97, "duration": 240}, {"note": 68, "velocity": 92, "duration": 66}, {"note": 71, "velocity": 97, "duration": 141}, {"note": 0, "velocity": 0, "duration": 99}, {"note": 71, "velocity": 94, "duration": 60}, {"note": 71, "velocity": 92, "duration": 170}, {"note": 0, "velocity": 0, "duration": 70}, {"note": 71, "velocity": 95, "duration": 71}, {"note": 73, "velocity": 90, "duration": 63}, {"note": 73, "velocity": 95, "duration": 284}, {"note": 0, "velocity": 0, "duration": 76}, {"note": 66, "velocity": 99, "duration": 174}, {"note": 0, "velocity": 0, "duration": 66}, {"note": 78, "velocity": 92, "duration": 184}, {"note": 76, "velocity": 99, "duration": 81}, {"note": 75, "velocity": 101, "duration": 421}, {"note": 75, "velocity": 96, "duration": 56}, {"note": 0, "velocity": 0, "duration": 64}, {"note": 75, "velocity": 101, "duration": 65}, {"note": 75, "velocity": 81, "duration": 110}, {"note": 76, "velocity": 96, "duration": 59}, {"note": 0, "velocity": 0, "duration": 61}, {"note": 73, "velocity": 94, "duration": 331}, {"note": 73, "velocity": 96, "duration": 53}, {"note": 0, "velocity": 0, "duration": 67}, {"note": 73, "velocity": 92, "duration": 58}, {"note": 0, "velocity": 0, "duration": 62}, {"note": 73, "velocity": 95, "duration": 61}, {"note": 75, "velocity": 106, "duration": 190}, {"note": 73, "velocity": 94, "duration": 56}, {"note": 0, "velocity": 0, "duration": 64}, {"note": 73, "velocity": 94, "duration": 223}, {"note": 71, "velocity": 99, "duration": 60}, {"note": 71, "velocity": 91, "duration": 60}, {"note": 71, "velocity": 96, "duration": 72}, {"note": 80, "velocity": 92, "duration": 240}, {"note": 78, "velocity": 92, "duration": 720}, {"note": 0, "velocity": 0, "duration": 240}, {"note": 71, "velocity": 92, "duration": 76}, {"note": 68, "velocity": 94, "duration": 73}, {"note": 71, "velocity": 92, "duration": 169}, {"note": 0, "velocity": 0, "duration": 71}, {"note": 76, "velocity": 94, "duration": 169}, {"note": 0, "velocity": 0, "duration": 71}, {"note": 80, "velocity": 96, "duration": 235}, {"note": 78, "velocity": 91, "duration": 207}, {"note": 75, "velocity": 97, "duration": 186}, {"note": 73, "velocity": 91, "duration": 111}, {"note": 71, "velocity": 91, "duration": 237}, {"note": 0, "velocity": 0, "duration": 123}, {"note": 68, "velocity": 91, "duration": 67}, {"note": 71, "velocity": 92, "duration": 177}, {"note": 0, "velocity": 0, "duration": 63}, {"note": 71, "velocity": 96, "duration": 75}, {"note": 71, "velocity": 94, "duration": 195}, {"note": 73, "velocity": 94, "duration": 166}, {"note": 0, "velocity": 0, "duration": 74}, {"note": 73, "velocity": 97, "duration": 262}, {"note": 0, "velocity": 0, "duration": 98}, {"note": 73, "velocity": 92, "duration": 66}, {"note": 73, "velocity": 93, "duration": 56}, {"note": 0, "velocity": 0, "duration": 64}, {"note": 73, "velocity": 96, "duration": 171}, {"note": 0, "velocity": 0, "duration": 69}, {"note": 66, "velocity": 97, "duration": 207}, {"note": 73, "velocity": 94, "duration": 310}, {"note": 71, "velocity": 91, "duration": 1436}]]