[[{"note": 66, "velocity": 96, "duration": 192}, {"note": 68, "velocity": 95, "duration": 145}, {"note": 0, "velocity": 0, "duration": 95}, {"note": 71, "velocity": 97, "duration": 147}, {"note": 0, "velocity": 0, "duration": 93}, {"note": 68, "velocity": 92, "duration": 185}, {"note": 66, "velocity": 94, "duration": 192}, {"note": 68, "velocity": 97, "duration": 174}, {"note": 0, "velocity": 0, "duration": 66}, {"note": 68, "velocity": 96, "duration": 196}, {"note": 59, "velocity": 96, "duration": 207}, {"note": 61, "velocity": 92, "duration": 833}, {"note": 0, "velocity": 0, "duration": 127}, {"note": 64, "velocity": 96, "duration": 150}, {"note": 0, "velocity": 0, "duration": 90}, {"note": 64, "velocity": 95, "duration": 453}, {"note": 61, "velocity": 93, "duration": 205}, {"note": 64, "velocity": 99, "duration": 473}, {"note": 66, "velocity": 93, "duration": 444}, {"note": 68, "velocity": 96, "duration": 170}, {"note": 0, "velocity": 0, "duration": 70}, {"note": 71, "velocity": 96, "duration": 155}, {"note": 0, "velocity": 0, "duration": 85}, {"note": 71, "velocity": 96, "duration": 128}, {"note": 0, "velocity": 0, "duration": 112}, {"note": 66, "velocity": 91, "duration": 194}, {"note": 68, "velocity": 91, "duration": 704}, {"note": 0, "velocity": 0, "duration": 256}, {"note": 73, "velocity": 96, "duration": 209}, {"note": 68, "velocity": 94, "duration": 179}, {"note": 0, "velocity": 0, "duration": 61}, {"note": 68, "velocity": 92, "duration": 182}, {"note": 71, "velocity": 95, "duration": 160}, {"note": 0, "velocity": 0, "duration": 80}, {"note": 73, "velocity": 97, "duration": 761}, {"note": 0, "velocity": 0, "duration": 199}, {"note": 66, "velocity": 91, "duration": 148}, {"note": 0, "velocity": 0, "duration": 92}, {"note": 66, "velocity": 90, "duration": 186}, {"note": 68, "velocity": 91, "duration": 186}, {"note": 66, "velocity": 94, "duration": 189}, {"note": 64, "velocity": 92, "duration": 833}, {"note": 0, "velocity": 0, "duration": 127}, {"note": 66, "velocity": 93, "duration": 160}, {"note": 0, "velocity": 0, "duration": 80}, {"note": 68, "velocity": 94, "duration": 156}, {"note": 0, "velocity": 0, "duration": 84}, {"note": 71, "velocity": 92, "duration": 160}, {"note": 0, "velocity": 0, "duration": 80}, {"note": 68, "velocity": 92, "duration": 196}, {"note": 66, "velocity": 96, "duration": 153}, {"note": 0, "velocity": 0, "duration": 87}, {"note": 66, "velocity": 90, "duration": 336}, {"note": 0, "velocity": 0, "duration": 144}, {"note": 68, "velocity": 91, "duration": 156}, {"note": 0, "velocity": 0, "duration": 84}, {"note": 59, "velocity": 82, "duration": 203}, {"note": 56, "velocity": 94, "duration": 209}, {"note": 64, "velocity": 91, "duration": 185}, {"note": 63, "velocity": 94, "duration": 173}, {"note": 0, "velocity": 0, "duration": 67}, {"note": 61, "velocity": 92, "duration": 935}, {"note": 0, "velocity": 0, "duration": 985}, {"note": 66, "velocity": 96, "duration": 192}, {"note": 68, "velocity": 95, "duration": 145}, {"note": 0, "velocity": 0, "duration": 95}, {"note": 71, "velocity": 97, "duration": 147}, {"note": 0, "velocity": 0, "duration": 93}, {"note": 68, "velocity": 92, "duration": 185}, {"note": 66, "velocity": 94, "duration": 192}, {"note": 68, "velocity": 97, "duration": 174}, {"note": 0, "velocity": 0, "duration": 66}, {"note": 68, "velocity": 96, "duration": 196}, {"note": 59, "velocity": 96, "duration": 207}, {"note": 61, "velocity": 92, "duration": 833}, {"note": 0, "velocity": 0, "duration": 127}, {"note": 64, "velocity": 96, "duration": 150}, {"note": 0, "velocity": 0, "duration": 90}, {"note": 64, "velocity": 95, "duration": 453}, {"note": 61, "velocity": 93, "duration": 205}, {"note": 64, "velocity": 99, "duration": 473}, {"note": 66, "velocity": 93, "duration": 444}, {"note": 68, "velocity": 96, "duration": 170}, {"note": 0, "velocity": 0, "duration": 70}, {"note": 71, "velocity": 96, "duration": 155}, {"note": 0, "velocity": 0, "duration": 85}, {"note": 71, "velocity": 96, "duration": 128}, {"note": 0, "velocity": 0, "duration": 112}, {"note": 66, "velocity": 91, "duration": 194}, {"note": 68, "velocity": 91, "duration": 704}, {"note": 0, "velocity": 0, "duration": 256}, {"note": 73, "velocity": 96, "duration": 209}, {"note": 68, "velocity": 94, "duration": 179}, {"note": 0, "velocity": 0, "duration": 61}, {"note": 68, "velocity": 92, "duration": 182}, {"note": 71, "velocity": 95, "duration": 160}, {"note": 0, "velocity": 0, "duration": 80}, {"note": 73, "velocity": 97, "duration": 761}, {"note": 0, "velocity": 0, "duration": 199}, {"note": 66, "velocity": 91, "duration": 148}, {"note": 0, "velocity": 0, "duration": 92}, {"note": 66, "velocity": 90, "duration": 186}, {"note": 68, "velocity": 91, "duration": 186}, {"note": 66, "velocity": 94, "duration": 189}, {"note": 64, "velocity": 92, "duration": 833}, {"note": 0, "velocity": 0, "duration": 127}, {"note": 66, "velocity": 93, "duration": 160}, {"note": 0, "velocity": 0, "duration": 80}, {"note": 68, "velocity": 94, "duration": 156}, {"note": 0, "velocity": 0, "duration": 84}, {"note": 71, "velocity": 92, "duration": 160}, {"note": 0, "velocity": 0, "duration": 80}, {"note": 68, "velocity": 92, "duration": 196}, {"note": 66, "velocity": 96, "duration": 153}, {"note": 0, "velocity": 0, "duration": 87}, {"note": 68, "velocity": 90, "duration": 336}, {"note": 0, "velocity": 0, "duration": 144}, {"note": 68, "velocity": 91, "duration": 156}, {"note": 0, "velocity": 0, "duration": 84}, {"note": 59, "velocity": 82, "duration": 203}, {"note": 56, "velocity": 94, "duration": 209}, {"note": 64, "velocity": 91, "duration": 185}, {"note": 63, "velocity": 94, "duration": 173}, {"note": 0, "velocity": 0, "duration": 67}, {"note": 61, "velocity": 92, "duration": 935}, {"note": 0, "velocity": 0, "duration": 745}, {"note": 68, "velocity": 96, "duration": 197}, {"note": 73, "velocity": 104, "duration": 160}, {"note": 0, "velocity": 0, "duration": 80}, {"note": 73, "velocity": 106, "duration": 135}, {"note": 0, "velocity": 0, "duration": 105}, {"note": 73, "velocity": 104, "duration": 168}, {"note": 0, "velocity": 0, "duration": 72}, {"note": 76, "velocity": 94, "duration": 188}, {"note": 68, "velocity": 101, "duration": 514}, {"note": 0, "velocity": 0, "duration": 206}, {"note": 71, "velocity": 92, "duration": 199}, {"note": 73, "velocity": 101, "duration": 153}, {"note": 0, "velocity": 0, "duration": 87}, {"note": 73, "velocity": 91, "duration": 156}, {"note": 0, "velocity": 0, "duration": 84}, {"note": 73, "velocity": 95, "duration": 205}, {"note": 71, "velocity": 96, "duration": 165}, {"note": 0, "velocity": 0, "duration": 75}, {"note": 73, "velocity": 99, "duration": 171}, {"note": 0, "velocity": 0, "duration": 69}, {"note": 71, "velocity": 101, "duration": 148}, {"note": 0, "velocity": 0, "duration": 92}, {"note": 64, "velocity": 92, "duration": 196}, {"note": 66, "velocity": 93, "duration": 173}, {"note": 0, "velocity": 0, "duration": 67}, {"note": 68, "velocity": 91, "duration": 730}, {"note": 0, "velocity": 0, "duration": 230}, {"note": 73, "velocity": 106, "duration": 83}, {"note": 0, "velocity": 0, "duration": 157}, {"note": 73, "velocity": 99, "duration": 164}, {"note": 0, "velocity": 0, "duration": 76}, {"note": 73, "velocity": 107, "duration": 156}, {"note": 0, "velocity": 0, "duration": 84}, {"note": 76, "velocity": 96, "duration": 156}, {"note": 0, "velocity": 0, "duration": 84}, {"note": 78, "velocity": 94, "duration": 370}, {"note": 0, "velocity": 0, "duration": 110}, {"note": 78, "velocity": 92, "duration": 388}, {"note": 0, "velocity": 0, "duration": 92}, {"note": 73, "velocity": 96, "duration": 148}, {"note": 0, "velocity": 0, "duration": 92}, {"note": 73, "velocity": 97, "duration": 131}, {"note": 0, "velocity": 0, "duration": 109}, {"note": 73, "velocity": 97, "duration": 183}, {"note": 76, "velocity": 91, "duration": 172}, {"note": 0, "velocity": 0, "duration": 68}, {"note": 68, "velocity": 93, "duration": 584}, {"note": 0, "velocity": 0, "duration": 376}, {"note": 66, "velocity": 92, "duration": 183}, {"note": 66, "velocity": 92, "duration": 151}, {"note": 0, "velocity": 0, "duration": 89}, {"note": 66, "velocity": 92, "duration": 151}, {"note": 0, "velocity": 0, "duration": 89}, {"note": 68, "velocity": 94, "duration": 185}, {"note": 71, "velocity": 96, "duration": 393}, {"note": 0, "velocity": 0, "duration": 87}, {"note": 71, "velocity": 92, "duration": 155}, {"note": 0, "velocity": 0, "duration": 85}, {"note": 68, "velocity": 92, "duration": 171}, {"note": 0, "velocity": 0, "duration": 69}, {"note": 66, "velocity": 94, "duration": 167}, {"note": 0, "velocity": 0, "duration": 73}, {"note": 66, "velocity": 91, "duration": 180}, {"note": 66, "velocity": 92, "duration": 157}, {"note": 0, "velocity": 0, "duration": 83}, {"note": 68, "velocity": 94, "duration": 164}, {"note": 0, "velocity": 0, "duration": 76}, {"note": 61, "velocity": 90, "duration": 732}, {"note": 0, "velocity": 0, "duration": 228}, {"note": 66, "velocity": 95, "duration": 164}, {"note": 0, "velocity": 0, "duration": 76}, {"note": 66, "velocity": 94, "duration": 122}, {"note": 0, "velocity": 0, "duration": 118}, {"note": 66, "velocity": 92, "duration": 181}, {"note": 68, "velocity": 95, "duration": 173}, {"note": 0, "velocity": 0, "duration": 67}, {"note": 71, "velocity": 97, "duration": 347}, {"note": 0, "velocity": 0, "duration": 133}, {"note": 71, "velocity": 96, "duration": 431}, {"note": 71, "velocity": 95, "duration": 187}, {"note": 75, "velocity": 97, "duration": 160}, {"note": 0, "velocity": 0, "duration": 80}, {"note": 75, "velocity": 95, "duration": 167}, {"note": 0, "velocity": 0, "duration": 73}, {"note": 71, "velocity": 97, "duration": 164}, {"note": 0, "velocity": 0, "duration": 76}, {"note": 73, "velocity": 99, "duration": 1440}, {"note": 0, "velocity": 0, "duration": 240}, {"note": 68, "velocity": 96, "duration": 197}, {"note": 73, "velocity": 104, "duration": 160}, {"note": 0, "velocity": 0, "duration": 80}, {"note": 73, "velocity": 106, "duration": 135}, {"note": 0, "velocity": 0, "duration": 105}, {"note": 73, "velocity": 104, "duration": 168}, {"note": 0, "velocity": 0, "duration": 72}, {"note": 76, "velocity": 94, "duration": 188}, {"note": 68, "velocity": 101, "duration": 514}, {"note": 0, "velocity": 0, "duration": 206}, {"note": 71, "velocity": 92, "duration": 199}, {"note": 73, "velocity": 101, "duration": 153}, {"note": 0, "velocity": 0, "duration": 87}, {"note": 73, "velocity": 91, "duration": 156}, {"note": 0, "velocity": 0, "duration": 84}, {"note": 73, "velocity": 95, "duration": 205}, {"note": 71, "velocity": 96, "duration": 165}, {"note": 0, "velocity": 0, "duration": 75}, {"note": 73, "velocity": 99, "duration": 171}, {"note": 0, "velocity": 0, "duration": 69}, {"note": 71, "velocity": 101, "duration": 148}, {"note": 0, "velocity": 0, "duration": 92}, {"note": 64, "velocity": 92, "duration": 196}, {"note": 66, "velocity": 93, "duration": 173}, {"note": 0, "velocity": 0, "duration": 67}, {"note": 68, "velocity": 91, "duration": 730}, {"note": 0, "velocity": 0, "duration": 230}, {"note": 73, "velocity": 106, "duration": 83}, {"note": 0, "velocity": 0, "duration": 157}, {"note": 73, "velocity": 99, "duration": 164}, {"note": 0, "velocity": 0, "duration": 76}, {"note": 73, "velocity": 107, "duration": 156}, {"note": 0, "velocity": 0, "duration": 84}, {"note": 76, "velocity": 96, "duration": 156}, {"note": 0, "velocity": 0, "duration": 84}, {"note": 78, "velocity": 94, "duration": 370}, {"note": 0, "velocity": 0, "duration": 110}, {"note": 78, "velocity": 92, "duration": 388}, {"note": 0, "velocity": 0, "duration": 92}, {"note": 73, "velocity": 96, "duration": 148}, {"note": 0, "velocity": 0, "duration": 92}, {"note": 73, "velocity": 97, "duration": 131}, {"note": 0, "velocity": 0, "duration": 109}, {"note": 73, "velocity": 97, "duration": 183}, {"note": 76, "velocity": 91, "duration": 172}, {"note": 0, "velocity": 0, "duration": 68}, {"note": 68, "velocity": 93, "duration": 584}, {"note": 0, "velocity": 0, "duration": 376}, {"note": 66, "velocity": 92, "duration": 183}, {"note": 66, "velocity": 92, "duration": 151}, {"note": 0, "velocity": 0, "duration": 89}, {"note": 66, "velocity": 92, "duration": 151}, {"note": 0, "velocity": 0, "duration": 89}, {"note": 68, "velocity": 94, "duration": 185}, {"note": 71, "velocity": 96, "duration": 393}, {"note": 0, "velocity": 0, "duration": 87}, {"note": 71, "velocity": 92, "duration": 155}, {"note": 0, "velocity": 0, "duration": 85}, {"note": 68, "velocity": 92, "duration": 171}, {"note": 0, "velocity": 0, "duration": 69}, {"note": 66, "velocity": 94, "duration": 167}, {"note": 0, "velocity": 0, "duration": 73}, {"note": 66, "velocity": 91, "duration": 180}, {"note": 66, "velocity": 92, "duration": 157}, {"note": 0, "velocity": 0, "duration": 83}, {"note": 68, "velocity": 94, "duration": 164}, {"note": 0, "velocity": 0, "duration": 76}, {"note": 61, "velocity": 90, "duration": 732}, {"note": 0, "velocity": 0, "duration": 228}, {"note": 66, "velocity": 95, "duration": 164}, {"note": 0, "velocity": 0, "duration": 76}, {"note": 66, "velocity": 94, "duration": 122}, {"note": 0, "velocity": 0, "duration": 118}, {"note": 66, "velocity": 92, "duration": 181}, {"note": 68, "velocity": 95, "duration": 173}, {"note": 0, "velocity": 0, "duration": 67}, {"note": 71, "velocity": 97, "duration": 347}, {"note": 0, "velocity": 0, "duration": 133}, {"note": 71, "velocity": 96, "duration": 431}, {"note": 71, "velocity": 95, "duration": 187}, {"note": 75, "velocity": 97, "duration": 160}, {"note": 0, "velocity": 0, "duration": 80}, {"note": 75, "velocity": 95, "duration": 167}, {"note": 0, "velocity": 0, "duration": 73}, {"note": 71, "velocity": 97, "duration": 164}, {"note": 0, "velocity": 0, "duration": 76}, {"note": 73, "velocity": 99, "duration": 1440}, {"note": 0, "velocity": 0, "duration": 15840}, {"note": 66, "velocity": 96, "duration": 192}, {"note": 68, "velocity": 95, "duration": 145}, {"note": 0, "velocity": 0, "duration": 95}, {"note": 71, "velocity": 97, "duration": 147}, {"note": 0, "velocity": 0, "duration": 93}, {"note": 68, "velocity": 92, "duration": 185}, {"note": 66, "velocity": 94, "duration": 192}, {"note": 68, "velocity": 97, "duration": 174}, {"note": 0, "velocity": 0, "duration": 66}, {"note": 68, "velocity": 96, "duration": 196}, {"note": 59, "velocity": 96, "duration": 207}, {"note": 61, "velocity": 92, "duration": 833}, {"note": 0, "velocity": 0, "duration": 127}, {"note": 64, "velocity": 96, "duration": 150}, {"note": 0, "velocity": 0, "duration": 90}, {"note": 64, "velocity": 95, "duration": 453}, {"note": 61, "velocity": 93, "duration": 205}, {"note": 64, "velocity": 99, "duration": 473}, {"note": 66, "velocity": 93, "duration": 444}, {"note": 68, "velocity": 96, "duration": 170}, {"note": 0, "velocity": 0, "duration": 70}, {"note": 71, "velocity": 96, "duration": 155}, {"note": 0, "velocity": 0, "duration": 85}, {"note": 71, "velocity": 96, "duration": 128}, {"note": 0, "velocity": 0, "duration": 112}, {"note": 66, "velocity": 91, "duration": 194}, {"note": 68, "velocity": 91, "duration": 704}, {"note": 0, "velocity": 0, "duration": 256}, {"note": 73, "velocity": 96, "duration": 209}, {"note": 68, "velocity": 94, "duration": 179}, {"note": 0, "velocity": 0, "duration": 61}, {"note": 68, "velocity": 92, "duration": 182}, {"note": 71, "velocity": 95, "duration": 160}, {"note": 0, "velocity": 0, "duration": 80}, {"note": 73, "velocity": 97, "duration": 761}, {"note": 0, "velocity": 0, "duration": 199}, {"note": 66, "velocity": 91, "duration": 148}, {"note": 0, "velocity": 0, "duration": 92}, {"note": 66, "velocity": 90, "duration": 186}, {"note": 68, "velocity": 91, "duration": 186}, {"note": 66, "velocity": 94, "duration": 189}, {"note": 64, "velocity": 92, "duration": 833}, {"note": 0, "velocity": 0, "duration": 127}, {"note": 66, "velocity": 93, "duration": 160}, {"note": 0, "velocity": 0, "duration": 80}, {"note": 68, "velocity": 94, "duration": 156}, {"note": 0, "velocity": 0, "duration": 84}, {"note": 71, "velocity": 92, "duration": 160}, {"note": 0, "velocity": 0, "duration": 80}, {"note": 68, "velocity": 92, "duration": 196}, {"note": 66, "velocity": 96, "duration": 153}, {"note": 0, "velocity": 0, "duration": 87}, {"note": 68, "velocity": 90, "duration": 336}, {"note": 0, "velocity": 0, "duration": 144}, {"note": 68, "velocity": 91, "duration": 156}, {"note": 0, "velocity": 0, "duration": 84}, {"note": 59, "velocity": 82, "duration": 203}, {"note": 56, "velocity": 94, "duration": 209}, {"note": 64, "velocity": 91, "duration": 185}, {"note": 63, "velocity": 94, "duration": 173}, {"note": 0, "velocity": 0, "duration": 67}, {"note": 61, "velocity": 92, "duration": 935}, {"note": 0, "velocity": 0, "duration": 745}, {"note": 68, "velocity": 96, "duration": 197}, {"note": 73, "velocity": 104, "duration": 160}, {"note": 0, "velocity": 0, "duration": 80}, {"note": 73, "velocity": 106, "duration": 135}, {"note": 0, "velocity": 0, "duration": 105}, {"note": 73, "velocity": 104, "duration": 168}, {"note": 0, "velocity": 0, "duration": 72}, {"note": 76, "velocity": 94, "duration": 188}, {"note": 68, "velocity": 101, "duration": 514}, {"note": 0, "velocity": 0, "duration": 206}, {"note": 71, "velocity": 92, "duration": 199}, {"note": 73, "velocity": 101, "duration": 153}, {"note": 0, "velocity": 0, "duration": 87}, {"note": 73, "velocity": 91, "duration": 156}, {"note": 0, "velocity": 0, "duration": 84}, {"note": 73, "velocity": 95, "duration": 205}, {"note": 71, "velocity": 96, "duration": 165}, {"note": 0, "velocity": 0, "duration": 75}, {"note": 73, "velocity": 99, "duration": 171}, {"note": 0, "velocity": 0, "duration": 69}, {"note": 71, "velocity": 101, "duration": 148}, {"note": 0, "velocity": 0, "duration": 92}, {"note": 64, "velocity": 92, "duration": 196}, {"note": 66, "velocity": 93, "duration": 173}, {"note": 0, "velocity": 0, "duration": 67}, {"note": 68, "velocity": 91, "duration": 730}, {"note": 0, "velocity": 0, "duration": 230}, {"note": 73, "velocity": 106, "duration": 83}, {"note": 0, "velocity": 0, "duration": 157}, {"note": 73, "velocity": 99, "duration": 164}, {"note": 0, "velocity": 0, "duration": 76}, {"note": 73, "velocity": 107, "duration": 156}, {"note": 0, "velocity": 0, "duration": 84}, {"note": 76, "velocity": 96, "duration": 156}, {"note": 0, "velocity": 0, "duration": 84}, {"note": 78, "velocity": 94, "duration": 370}, {"note": 0, "velocity": 0, "duration": 110}, {"note": 78, "velocity": 92, "duration": 388}, {"note": 0, "velocity": 0, "duration": 92}, {"note": 73, "velocity": 96, "duration": 148}, {"note": 0, "velocity": 0, "duration": 92}, {"note": 73, "velocity": 97, "duration": 131}, {"note": 0, "velocity": 0, "duration": 109}, {"note": 73, "velocity": 97, "duration": 183}, {"note": 76, "velocity": 91, "duration": 172}, {"note": 0, "velocity": 0, "duration": 68}, {"note": 68, "velocity": 93, "duration": 584}, {"note": 0, "velocity": 0, "duration": 376}, {"note": 66, "velocity": 92, "duration": 183}, {"note": 66, "velocity": 92, "duration": 151}, {"note": 0, "velocity": 0, "duration": 89}, {"note": 66, "velocity": 92, "duration": 151}, {"note": 0, "velocity": 0, "duration": 89}, {"note": 68, "velocity": 94, "duration": 185}, {"note": 71, "velocity": 96, "duration": 393}, {"note": 0, "velocity": 0, "duration": 87}, {"note": 71, "velocity": 92, "duration": 155}, {"note": 0, "velocity": 0, "duration": 85}, {"note": 68, "velocity": 92, "duration": 171}, {"note": 0, "velocity": 0, "duration": 69}, {"note": 66, "velocity": 94, "duration": 167}, {"note": 0, "velocity": 0, "duration": 73}, {"note": 66, "velocity": 91, "duration": 180}, {"note": 66, "velocity": 92, "duration": 157}, {"note": 0, "velocity": 0, "duration": 83}, {"note": 68, "velocity": 94, "duration": 164}, {"note": 0, "velocity": 0, "duration": 76}, {"note": 61, "velocity": 90, "duration": 732}, {"note": 0, "velocity": 0, "duration": 228}, {"note": 66, "velocity": 95, "duration": 164}, {"note": 0, "velocity": 0, "duration": 76}, {"note": 66, "velocity": 94, "duration": 122}, {"note": 0, "velocity": 0, "duration": 118}, {"note": 66, "velocity": 92, "duration": 181}, {"note": 68, "velocity": 95, "duration": 173}, {"note": 0, "velocity": 0, "duration": 67}, {"note": 71, "velocity": 97, "duration": 347}, {"note": 0, "velocity": 0, "duration": 133}, {"note": 71, "velocity": 96, "duration": 431}, {"note": 71, "velocity": 95, "duration": 187}, {"note": 75, "velocity": 97, "duration": 160}, {"note": 0, "velocity": 0, "duration": 80}, {"note": 75, "velocity": 95, "duration": 167}, {"note": 0, "velocity": 0, "duration": 73}, {"note": 71, "velocity": 97, "duration": 164}, {"note": 0, "velocity": 0, "duration": 76}, {"note": 73, "velocity": 99, "duration": 1440}, {"note": 0, "velocity": 0, "duration": 240}, {"note": 68, "velocity": 96, "duration": 197}, {"note": 73, "velocity": 104, "duration": 160}, {"note": 0, "velocity": 0, "duration": 80}, {"note": 73, "velocity": 106, "duration": 135}, {"note": 0, "velocity": 0, "duration": 105}, {"note": 73, "velocity": 104, "duration": 168}, {"note": 0, "velocity": 0, "duration": 72}, {"note": 76, "velocity": 94, "duration": 188}, {"note": 68, "velocity": 101, "duration": 514}, {"note": 0, "velocity": 0, "duration": 206}, {"note": 71, "velocity": 92, "duration": 199}, {"note": 73, "velocity": 101, "duration": 153}, {"note": 0, "velocity": 0, "duration": 87}, {"note": 73, "velocity": 91, "duration": 156}, {"note": 0, "velocity": 0, "duration": 84}, {"note": 73, "velocity": 95, "duration": 205}, {"note": 71, "velocity": 96, "duration": 165}, {"note": 0, "velocity": 0, "duration": 75}, {"note": 73, "velocity": 99, "duration": 171}, {"note": 0, "velocity": 0, "duration": 69}, {"note": 71, "velocity": 101, "duration": 148}, {"note": 0, "velocity": 0, "duration": 92}, {"note": 64, "velocity": 92, "duration": 196}, {"note": 66, "velocity": 93, "duration": 173}, {"note": 0, "velocity": 0, "duration": 67}, {"note": 68, "velocity": 91, "duration": 730}, {"note": 0, "velocity": 0, "duration": 230}, {"note": 73, "velocity": 106, "duration": 83}, {"note": 0, "velocity": 0, "duration": 157}, {"note": 73, "velocity": 99, "duration": 164}, {"note": 0, "velocity": 0, "duration": 76}, {"note": 73, "velocity": 107, "duration": 156}, {"note": 0, "velocity": 0, "duration": 84}, {"note": 76, "velocity": 96, "duration": 156}, {"note": 0, "velocity": 0, "duration": 84}, {"note": 78, "velocity": 94, "duration": 370}, {"note": 0, "velocity": 0, "duration": 110}, {"note": 78, "velocity": 92, "duration": 388}, {"note": 0, "velocity": 0, "duration": 92}, {"note": 73, "velocity": 96, "duration": 148}, {"note": 0, "velocity": 0, "duration": 92}, {"note": 73, "velocity": 97, "duration": 131}, {"note": 0, "velocity": 0, "duration": 109}, {"note": 73, "velocity": 97, "duration": 183}, {"note": 76, "velocity": 91, "duration": 172}, {"note": 0, "velocity": 0, "duration": 68}, {"note": 68, "velocity": 93, "duration": 584}, {"note": 0, "velocity": 0, "duration": 376}, {"note": 66, "velocity": 92, "duration": 183}, {"note": 66, "velocity": 92, "duration": 151}, {"note": 0, "velocity": 0, "duration": 89}, {"note": 66, "velocity": 92, "duration": 151}, {"note": 0, "velocity": 0, "duration": 89}, {"note": 68, "velocity": 94, "duration": 185}, {"note": 71, "velocity": 96, "duration": 393}, {"note": 0, "velocity": 0, "duration": 87}, {"note": 71, "velocity": 92, "duration": 155}, {"note": 0, "velocity": 0, "duration": 85}, {"note": 68, "velocity": 92, "duration": 171}, {"note": 0, "velocity": 0, "duration": 69}, {"note": 66, "velocity": 94, "duration": 167}, {"note": 0, "velocity": 0, "duration": 73}, {"note": 66, "velocity": 91, "duration": 180}, {"note": 66, "velocity": 92, "duration": 157}, {"note": 0, "velocity": 0, "duration": 83}, {"note": 68, "velocity": 94, "duration": 164}, {"note": 0, "velocity": 0, "duration": 76}, {"note": 61, "velocity": 90, "duration": 732}, {"note": 0, "velocity": 0, "duration": 228}, {"note": 66, "velocity": 95, "duration": 164}, {"note": 0, "velocity": 0, "duration": 76}, {"note": 66, "velocity": 94, "duration": 122}, {"note": 0, "velocity": 0, "duration": 118}, {"note": 66, "velocity": 92, "duration": 181}, {"note": 68, "velocity": 95, "duration": 173}, {"note": 0, "velocity": 0, "duration": 67}, {"note": 71, "velocity": 97, "duration": 347}, {"note": 0, "velocity": 0, "duration": 133}, {"note": 71, "velocity": 96, "duration": 431}, {"note": 71, "velocity": 95, "duration": 187}, {"note": 75, "velocity": 97, "duration": 160}, {"note": 0, "velocity": 0, "duration": 80}, {"note": 75, "velocity": 95, "duration": 167}, {"note": 0, "velocity": 0, "duration": 73}, {"note": 71, "velocity": 97, "duration": 164}, {"note": 0, "velocity": 0, "duration": 76}, {"note": 73, "velocity": 99, "duration": 1440}, {"note": 0, "velocity": 0, "duration": 240}, {"note": 68, "velocity": 96, "duration": 197}, {"note": 73, "velocity": 104, "duration": 160}, {"note": 0, "velocity": 0, "duration": 80}, {"note": 73, "velocity": 106, "duration": 135}, {"note": 0, "velocity": 0, "duration": 105}, {"note": 73, "velocity": 104, "duration": 168}, {"note": 0, "velocity": 0, "duration": 72}, {"note": 76, "velocity": 94, "duration": 188}, {"note": 68, "velocity": 101, "duration": 514}, {"note": 0, "velocity": 0, "duration": 206}, {"note": 71, "velocity": 92, "duration": 199}, {"note": 73, "velocity": 101, "duration": 153}, {"note": 0, "velocity": 0, "duration": 87}, {"note": 73, "velocity": 91, "duration": 156}, {"note": 0, "velocity": 0, "duration": 84}, {"note": 73, "velocity": 95, "duration": 205}, {"note": 71, "velocity": 96, "duration": 165}, {"note": 0, "velocity": 0, "duration": 75}, {"note": 73, "velocity": 99, "duration": 171}, {"note": 0, "velocity": 0, "duration": 69}, {"note": 71, "velocity": 101, "duration": 148}, {"note": 0, "velocity": 0, "duration": 92}, {"note": 64, "velocity": 92, "duration": 196}, {"note": 66, "velocity": 93, "duration": 173}, {"note": 0, "velocity": 0, "duration": 67}, {"note": 68, "velocity": 91, "duration": 730}, {"note": 0, "velocity": 0, "duration": 230}, {"note": 73, "velocity": 106, "duration": 83}, {"note": 0, "velocity": 0, "duration": 157}, {"note": 73, "velocity": 99, "duration": 164}, {"note": 0, "velocity": 0, "duration": 76}, {"note": 73, "velocity": 107, "duration": 156}, {"note": 0, "velocity": 0, "duration": 84}, {"note": 76, "velocity": 96, "duration": 156}, {"note": 0, "velocity": 0, "duration": 84}, {"note": 78, "velocity": 94, "duration": 370}, {"note": 0, "velocity": 0, "duration": 110}, {"note": 78, "velocity": 92, "duration": 388}, {"note": 0, "velocity": 0, "duration": 92}, {"note": 73, "velocity": 96, "duration": 148}, {"note": 0, "velocity": 0, "duration": 92}, {"note": 73, "velocity": 97, "duration": 131}, {"note": 0, "velocity": 0, "duration": 109}, {"note": 73, "velocity": 97, "duration": 183}, {"note": 76, "velocity": 91, "duration": 172}, {"note": 0, "velocity": 0, "duration": 68}, {"note": 68, "velocity": 93, "duration": 584}, {"note": 0, "velocity": 0, "duration": 376}, {"note": 66, "velocity": 92, "duration": 183}, {"note": 66, "velocity": 92, "duration": 151}, {"note": 0, "velocity": 0, "duration": 89}, {"note": 66, "velocity": 92, "duration": 151}, {"note": 0, "velocity": 0, "duration": 89}, {"note": 68, "velocity": 94, "duration": 185}, {"note": 71, "velocity": 96, "duration": 393}, {"note": 0, "velocity": 0, "duration": 87}, {"note": 71, "velocity": 92, "duration": 155}, {"note": 0, "velocity": 0, "duration": 85}, {"note": 68, "velocity": 92, "duration": 171}, {"note": 0, "velocity": 0, "duration": 69}, {"note": 66, "velocity": 94, "duration": 167}, {"note": 0, "velocity": 0, "duration": 73}, {"note": 66, "velocity": 91, "duration": 180}, {"note": 66, "velocity": 92, "duration": 157}, {"note": 0, "velocity": 0, "duration": 83}, {"note": 68, "velocity": 94, "duration": 164}, {"note": 0, "velocity": 0, "duration": 76}, {"note": 61, "velocity": 90, "duration": 732}, {"note": 0, "velocity": 0, "duration": 228}, {"note": 66, "velocity": 95, "duration": 164}, {"note": 0, "velocity": 0, "duration": 76}, {"note": 66, "velocity": 94, "duration": 122}, {"note": 0, "velocity": 0, "duration": 118}, {"note": 66, "velocity": 92, "duration": 181}, {"note": 68, "velocity": 95, "duration": 173}, {"note": 0, "velocity": 0, "duration": 67}, {"note": 71, "velocity": 97, "duration": 347}, {"note": 0, "velocity": 0, "duration": 133}, {"note": 71, "velocity": 96, "duration": 431}, {"note": 71, "velocity": 95, "duration": 187}, {"note": 75, "velocity": 97, "duration": 160}, {"note": 0, "velocity": 0, "duration": 80}, {"note": 75, "velocity": 95, "duration": 167}, {"note": 0, "velocity": 0, "duration": 73}, {"note": 71, "velocity": 97, "duration": 164}, {"note": 0, "velocity": 0, "duration": 76}, {"note": 73, "velocity": 99, "duration": 1440}, {"note": 0, "velocity": 0, "duration": 240}, {"note": 68, "velocity": 96, "duration": 197}, {"note": 73, "velocity": 104, "duration": 160}, {"note": 0, "velocity": 0, "duration": 80}, {"note": 73, "velocity": 106, "duration": 135}, {"note": 0, "velocity": 0, "duration": 105}, {"note": 73, "velocity": 104, "duration": 168}, {"note": 0, "velocity": 0, "duration": 72}, {"note": 76, "velocity": 94, "duration": 188}, {"note": 68, "velocity": 101, "duration": 514}, {"note": 0, "velocity": 0, "duration": 206}, {"note": 71, "velocity": 92, "duration": 199}, {"note": 73, "velocity": 101, "duration": 153}, {"note": 0, "velocity": 0, "duration": 87}, {"note": 73, "velocity": 91, "duration": 156}, {"note": 0, "velocity": 0, "duration": 84}, {"note": 73, "velocity": 95, "duration": 205}, {"note": 71, "velocity": 96, "duration": 165}, {"note": 0, "velocity": 0, "duration": 75}, {"note": 73, "velocity": 99, "duration": 171}, {"note": 0, "velocity": 0, "duration": 69}, {"note": 71, "velocity": 101, "duration": 148}, {"note": 0, "velocity": 0, "duration": 92}, {"note": 64, "velocity": 92, "duration": 196}, {"note": 66, "velocity": 93, "duration": 173}, {"note": 0, "velocity": 0, "duration": 67}, {"note": 68, "velocity": 91, "duration": 730}, {"note": 0, "velocity": 0, "duration": 230}, {"note": 73, "velocity": 106, "duration": 83}, {"note": 0, "velocity": 0, "duration": 157}, {"note": 73, "velocity": 99, "duration": 164}, {"note": 0, "velocity": 0, "duration": 76}, {"note": 73, "velocity": 107, "duration": 156}, {"note": 0, "velocity": 0, "duration": 84}, {"note": 76, "velocity": 96, "duration": 156}, {"note": 0, "velocity": 0, "duration": 84}, {"note": 78, "velocity": 94, "duration": 370}, {"note": 0, "velocity": 0, "duration": 110}, {"note": 78, "velocity": 92, "duration": 388}, {"note": 0, "velocity": 0, "duration": 92}, {"note": 73, "velocity": 96, "duration": 148}, {"note": 0, "velocity": 0, "duration": 92}, {"note": 73, "velocity": 97, "duration": 131}, {"note": 0, "velocity": 0, "duration": 109}, {"note": 73, "velocity": 97, "duration": 183}, {"note": 76, "velocity": 91, "duration": 172}, {"note": 0, "velocity": 0, "duration": 68}, {"note": 68, "velocity": 93, "duration": 584}, {"note": 0, "velocity": 0, "duration": 376}, {"note": 66, "velocity": 92, "duration": 183}, {"note": 66, "velocity": 92, "duration": 151}, {"note": 0, "velocity": 0, "duration": 89}, {"note": 66, "velocity": 92, "duration": 151}, {"note": 0, "velocity": 0, "duration": 89}, {"note": 68, "velocity": 94, "duration": 185}, {"note": 71, "velocity": 96, "duration": 393}, {"note": 0, "velocity": 0, "duration": 87}, {"note": 71, "velocity": 92, "duration": 155}, {"note": 0, "velocity": 0, "duration": 85}, {"note": 68, "velocity": 92, "duration": 171}, {"note": 0, "velocity": 0, "duration": 69}, {"note": 66, "velocity": 94, "duration": 167}, {"note": 0, "velocity": 0, "duration": 73}, {"note": 66, "velocity": 91, "duration": 180}, {"note": 66, "velocity": 92, "duration": 157}, {"note": 0, "velocity": 0, "duration": 83}, {"note": 68, "velocity": 94, "duration": 164}, {"note": 0, "velocity": 0, "duration": 76}, {"note": 61, "velocity": 90, "duration": 732}, {"note": 0, "velocity": 0, "duration": 228}, {"note": 66, "velocity": 95, "duration": 164}, {"note": 0, "velocity": 0, "duration": 76}, {"note": 66, "velocity": 94, "duration": 122}, {"note": 0, "velocity": 0, "duration": 118}, {"note": 66, "velocity": 92, "duration": 181}, {"note": 68, "velocity": 95, "duration": 173}, {"note": 0, "velocity": 0, "duration": 67}, {"note": 71, "velocity": 97, "duration": 347}, {"note": 0, "velocity": 0, "duration": 133}, {"note": 71, "velocity": 96, "duration": 431}, {"note": 71, "velocity": 95, "duration": 187}, {"note": 75, "velocity": 97, "duration": 160}, {"note": 0, "velocity": 0, "duration": 80}, {"note": 75, "velocity": 95, "duration": 167}, {"note": 0, "velocity": 0, "duration": 73}, {"note": 71, "velocity": 97, "duration": 164}, {"note": 0, "velocity": 0, "duration": 76}, {"note": 73, "velocity": 99, "duration": 1440}]]