[[{"note": 78, "velocity": 96, "duration": 409}, {"note": 0, "velocity": 0, "duration": 71}, {"note": 76, "velocity": 103, "duration": 147}, {"note": 0, "velocity": 0, "duration": 93}, {"note": 74, "velocity": 107, "duration": 170}, {"note": 0, "velocity": 0, "duration": 70}, {"note": 76, "velocity": 107, "duration": 392}, {"note": 0, "velocity": 0, "duration": 88}, {"note": 74, "velocity": 101, "duration": 171}, {"note": 0, "velocity": 0, "duration": 69}, {"note": 73, "velocity": 100, "duration": 173}, {"note": 0, "velocity": 0, "duration": 67}, {"note": 74, "velocity": 103, "duration": 446}, {"note": 73, "velocity": 98, "duration": 198}, {"note": 71, "velocity": 98, "duration": 212}, {"note": 69, "velocity": 97, "duration": 744}, {"note": 0, "velocity": 0, "duration": 216}, {"note": 71, "velocity": 98, "duration": 412}, {"note": 0, "velocity": 0, "duration": 68}, {"note": 74, "velocity": 101, "duration": 404}, {"note": 0, "velocity": 0, "duration": 76}, {"note": 73, "velocity": 98, "duration": 385}, {"note": 0, "velocity": 0, "duration": 95}, {"note": 69, "velocity": 96, "duration": 400}, {"note": 0, "velocity": 0, "duration": 80}, {"note": 66, "velocity": 96, "duration": 956}, {"note": 0, "velocity": 0, "duration": 484}, {"note": 74, "velocity": 107, "duration": 187}, {"note": 76, "velocity": 100, "duration": 191}, {"note": 78, "velocity": 100, "duration": 407}, {"note": 0, "velocity": 0, "duration": 73}, {"note": 76, "velocity": 105, "duration": 184}, {"note": 74, "velocity": 102, "duration": 198}, {"note": 76, "velocity": 100, "duration": 383}, {"note": 0, "velocity": 0, "duration": 97}, {"note": 74, "velocity": 98, "duration": 190}, {"note": 73, "velocity": 100, "duration": 196}, {"note": 74, "velocity": 101, "duration": 390}, {"note": 0, "velocity": 0, "duration": 90}, {"note": 73, "velocity": 96, "duration": 182}, {"note": 71, "velocity": 96, "duration": 135}, {"note": 0, "velocity": 0, "duration": 105}, {"note": 69, "velocity": 100, "duration": 685}, {"note": 0, "velocity": 0, "duration": 275}, {"note": 71, "velocity": 102, "duration": 371}, {"note": 0, "velocity": 0, "duration": 109}, {"note": 78, "velocity": 100, "duration": 385}, {"note": 0, "velocity": 0, "duration": 95}, {"note": 73, "velocity": 97, "duration": 425}, {"note": 74, "velocity": 102, "duration": 157}, {"note": 0, "velocity": 0, "duration": 83}, {"note": 76, "velocity": 97, "duration": 188}, {"note": 74, "velocity": 101, "duration": 1626}, {"note": 0, "velocity": 0, "duration": 294}, {"note": 71, "velocity": 103, "duration": 683}, {"note": 74, "velocity": 107, "duration": 243}, {"note": 73, "velocity": 96, "duration": 518}, {"note": 74, "velocity": 105, "duration": 237}, {"note": 76, "velocity": 100, "duration": 255}, {"note": 78, "velocity": 95, "duration": 727}, {"note": 81, "velocity": 97, "duration": 249}, {"note": 78, "velocity": 96, "duration": 810}, {"note": 0, "velocity": 0, "duration": 150}, {"note": 71, "velocity": 105, "duration": 665}, {"note": 74, "velocity": 101, "duration": 251}, {"note": 73, "velocity": 97, "duration": 457}, {"note": 74, "velocity": 96, "duration": 249}, {"note": 76, "velocity": 98, "duration": 235}, {"note": 74, "velocity": 102, "duration": 1364}, {"note": 0, "velocity": 0, "duration": 76}, {"note": 74, "velocity": 107, "duration": 216}, {"note": 76, "velocity": 101, "duration": 204}, {"note": 78, "velocity": 96, "duration": 409}, {"note": 0, "velocity": 0, "duration": 71}, {"note": 76, "velocity": 103, "duration": 147}, {"note": 0, "velocity": 0, "duration": 93}, {"note": 74, "velocity": 107, "duration": 170}, {"note": 0, "velocity": 0, "duration": 70}, {"note": 76, "velocity": 107, "duration": 392}, {"note": 0, "velocity": 0, "duration": 88}, {"note": 74, "velocity": 101, "duration": 171}, {"note": 0, "velocity": 0, "duration": 69}, {"note": 73, "velocity": 100, "duration": 173}, {"note": 0, "velocity": 0, "duration": 67}, {"note": 74, "velocity": 103, "duration": 446}, {"note": 73, "velocity": 98, "duration": 198}, {"note": 71, "velocity": 98, "duration": 212}, {"note": 69, "velocity": 97, "duration": 744}, {"note": 0, "velocity": 0, "duration": 216}, {"note": 71, "velocity": 98, "duration": 412}, {"note": 0, "velocity": 0, "duration": 68}, {"note": 74, "velocity": 101, "duration": 404}, {"note": 0, "velocity": 0, "duration": 76}, {"note": 73, "velocity": 98, "duration": 385}, {"note": 0, "velocity": 0, "duration": 95}, {"note": 74, "velocity": 110, "duration": 181}, {"note": 76, "velocity": 98, "duration": 179}, {"note": 0, "velocity": 0, "duration": 61}, {"note": 78, "velocity": 97, "duration": 937}, {"note": 76, "velocity": 99, "duration": 388}, {"note": 0, "velocity": 0, "duration": 92}, {"note": 74, "velocity": 107, "duration": 187}, {"note": 76, "velocity": 100, "duration": 191}, {"note": 78, "velocity": 100, "duration": 407}, {"note": 0, "velocity": 0, "duration": 73}, {"note": 76, "velocity": 105, "duration": 184}, {"note": 74, "velocity": 102, "duration": 198}, {"note": 76, "velocity": 100, "duration": 383}, {"note": 0, "velocity": 0, "duration": 97}, {"note": 74, "velocity": 98, "duration": 190}, {"note": 73, "velocity": 100, "duration": 196}, {"note": 74, "velocity": 101, "duration": 390}, {"note": 0, "velocity": 0, "duration": 90}, {"note": 73, "velocity": 96, "duration": 182}, {"note": 71, "velocity": 96, "duration": 135}, {"note": 0, "velocity": 0, "duration": 105}, {"note": 69, "velocity": 100, "duration": 685}, {"note": 0, "velocity": 0, "duration": 275}, {"note": 71, "velocity": 102, "duration": 371}, {"note": 0, "velocity": 0, "duration": 109}, {"note": 78, "velocity": 100, "duration": 385}, {"note": 0, "velocity": 0, "duration": 95}, {"note": 73, "velocity": 97, "duration": 425}, {"note": 74, "velocity": 102, "duration": 157}, {"note": 0, "velocity": 0, "duration": 83}, {"note": 76, "velocity": 97, "duration": 188}, {"note": 74, "velocity": 101, "duration": 1626}, {"note": 78, "velocity": 100, "duration": 174}, {"note": 81, "velocity": 98, "duration": 177}, {"note": 0, "velocity": 0, "duration": 63}, {"note": 83, "velocity": 96, "duration": 616}, {"note": 0, "velocity": 0, "duration": 104}, {"note": 83, "velocity": 100, "duration": 171}, {"note": 0, "velocity": 0, "duration": 69}, {"note": 81, "velocity": 98, "duration": 442}, {"note": 76, "velocity": 98, "duration": 173}, {"note": 0, "velocity": 0, "duration": 67}, {"note": 81, "velocity": 101, "duration": 163}, {"note": 0, "velocity": 0, "duration": 77}, {"note": 78, "velocity": 100, "duration": 405}, {"note": 0, "velocity": 0, "duration": 75}, {"note": 74, "velocity": 102, "duration": 379}, {"note": 0, "velocity": 0, "duration": 101}, {"note": 71, "velocity": 97, "duration": 386}, {"note": 0, "velocity": 0, "duration": 94}, {"note": 71, "velocity": 107, "duration": 180}, {"note": 73, "velocity": 98, "duration": 180}, {"note": 74, "velocity": 103, "duration": 411}, {"note": 0, "velocity": 0, "duration": 69}, {"note": 78, "velocity": 103, "duration": 453}, {"note": 76, "velocity": 103, "duration": 461}, {"note": 81, "velocity": 98, "duration": 379}, {"note": 0, "velocity": 0, "duration": 101}, {"note": 78, "velocity": 100, "duration": 1221}, {"note": 0, "velocity": 0, "duration": 219}, {"note": 78, "velocity": 105, "duration": 188}, {"note": 81, "velocity": 97, "duration": 161}, {"note": 0, "velocity": 0, "duration": 79}, {"note": 83, "velocity": 97, "duration": 583}, {"note": 0, "velocity": 0, "duration": 137}, {"note": 83, "velocity": 98, "duration": 170}, {"note": 0, "velocity": 0, "duration": 70}, {"note": 81, "velocity": 96, "duration": 413}, {"note": 0, "velocity": 0, "duration": 67}, {"note": 76, "velocity": 107, "duration": 240}, {"note": 81, "velocity": 98, "duration": 181}, {"note": 78, "velocity": 97, "duration": 379}, {"note": 0, "velocity": 0, "duration": 101}, {"note": 74, "velocity": 101, "duration": 443}, {"note": 71, "velocity": 102, "duration": 379}, {"note": 0, "velocity": 0, "duration": 101}, {"note": 78, "velocity": 97, "duration": 178}, {"note": 0, "velocity": 0, "duration": 62}, {"note": 76, "velocity": 97, "duration": 160}, {"note": 0, "velocity": 0, "duration": 80}, {"note": 74, "velocity": 103, "duration": 376}, {"note": 0, "velocity": 0, "duration": 104}, {"note": 78, "velocity": 98, "duration": 381}, {"note": 0, "velocity": 0, "duration": 99}, {"note": 76, "velocity": 100, "duration": 387}, {"note": 0, "velocity": 0, "duration": 93}, {"note": 78, "velocity": 102, "duration": 421}, {"note": 71, "velocity": 102, "duration": 1841}, {"note": 0, "velocity": 0, "duration": 15439}, {"note": 71, "velocity": 103, "duration": 683}, {"note": 74, "velocity": 107, "duration": 243}, {"note": 73, "velocity": 96, "duration": 518}, {"note": 74, "velocity": 105, "duration": 237}, {"note": 76, "velocity": 100, "duration": 255}, {"note": 78, "velocity": 95, "duration": 727}, {"note": 81, "velocity": 97, "duration": 249}, {"note": 78, "velocity": 96, "duration": 810}, {"note": 0, "velocity": 0, "duration": 150}, {"note": 71, "velocity": 105, "duration": 665}, {"note": 74, "velocity": 101, "duration": 251}, {"note": 73, "velocity": 97, "duration": 457}, {"note": 74, "velocity": 96, "duration": 249}, {"note": 76, "velocity": 98, "duration": 235}, {"note": 74, "velocity": 102, "duration": 1364}, {"note": 0, "velocity": 0, "duration": 76}, {"note": 74, "velocity": 107, "duration": 216}, {"note": 76, "velocity": 101, "duration": 204}, {"note": 78, "velocity": 96, "duration": 409}, {"note": 0, "velocity": 0, "duration": 71}, {"note": 76, "velocity": 103, "duration": 147}, {"note": 0, "velocity": 0, "duration": 93}, {"note": 74, "velocity": 107, "duration": 170}, {"note": 0, "velocity": 0, "duration": 70}, {"note": 76, "velocity": 107, "duration": 392}, {"note": 0, "velocity": 0, "duration": 88}, {"note": 74, "velocity": 101, "duration": 171}, {"note": 0, "velocity": 0, "duration": 69}, {"note": 73, "velocity": 100, "duration": 173}, {"note": 0, "velocity": 0, "duration": 67}, {"note": 74, "velocity": 103, "duration": 446}, {"note": 73, "velocity": 98, "duration": 198}, {"note": 71, "velocity": 98, "duration": 212}, {"note": 69, "velocity": 97, "duration": 744}, {"note": 0, "velocity": 0, "duration": 216}, {"note": 71, "velocity": 98, "duration": 412}, {"note": 0, "velocity": 0, "duration": 68}, {"note": 74, "velocity": 101, "duration": 404}, {"note": 0, "velocity": 0, "duration": 76}, {"note": 73, "velocity": 98, "duration": 385}, {"note": 0, "velocity": 0, "duration": 95}, {"note": 74, "velocity": 110, "duration": 181}, {"note": 76, "velocity": 98, "duration": 179}, {"note": 0, "velocity": 0, "duration": 61}, {"note": 78, "velocity": 97, "duration": 937}, {"note": 76, "velocity": 99, "duration": 388}, {"note": 0, "velocity": 0, "duration": 92}, {"note": 74, "velocity": 107, "duration": 187}, {"note": 76, "velocity": 100, "duration": 191}, {"note": 78, "velocity": 100, "duration": 407}, {"note": 0, "velocity": 0, "duration": 73}, {"note": 76, "velocity": 105, "duration": 184}, {"note": 74, "velocity": 102, "duration": 198}, {"note": 76, "velocity": 100, "duration": 383}, {"note": 0, "velocity": 0, "duration": 97}, {"note": 74, "velocity": 98, "duration": 190}, {"note": 73, "velocity": 100, "duration": 196}, {"note": 74, "velocity": 101, "duration": 390}, {"note": 0, "velocity": 0, "duration": 90}, {"note": 73, "velocity": 96, "duration": 182}, {"note": 71, "velocity": 96, "duration": 135}, {"note": 0, "velocity": 0, "duration": 105}, {"note": 69, "velocity": 100, "duration": 685}, {"note": 0, "velocity": 0, "duration": 275}, {"note": 71, "velocity": 102, "duration": 371}, {"note": 0, "velocity": 0, "duration": 109}, {"note": 78, "velocity": 100, "duration": 385}, {"note": 0, "velocity": 0, "duration": 95}, {"note": 73, "velocity": 97, "duration": 425}, {"note": 74, "velocity": 102, "duration": 157}, {"note": 0, "velocity": 0, "duration": 83}, {"note": 76, "velocity": 97, "duration": 188}, {"note": 74, "velocity": 101, "duration": 1626}, {"note": 78, "velocity": 100, "duration": 174}, {"note": 81, "velocity": 98, "duration": 177}, {"note": 0, "velocity": 0, "duration": 63}, {"note": 83, "velocity": 96, "duration": 616}, {"note": 0, "velocity": 0, "duration": 104}, {"note": 83, "velocity": 100, "duration": 171}, {"note": 0, "velocity": 0, "duration": 69}, {"note": 81, "velocity": 98, "duration": 442}, {"note": 76, "velocity": 98, "duration": 173}, {"note": 0, "velocity": 0, "duration": 67}, {"note": 81, "velocity": 101, "duration": 163}, {"note": 0, "velocity": 0, "duration": 77}, {"note": 78, "velocity": 100, "duration": 405}, {"note": 0, "velocity": 0, "duration": 75}, {"note": 74, "velocity": 102, "duration": 379}, {"note": 0, "velocity": 0, "duration": 101}, {"note": 71, "velocity": 97, "duration": 386}, {"note": 0, "velocity": 0, "duration": 94}, {"note": 71, "velocity": 107, "duration": 180}, {"note": 73, "velocity": 98, "duration": 180}, {"note": 74, "velocity": 103, "duration": 411}, {"note": 0, "velocity": 0, "duration": 69}, {"note": 78, "velocity": 103, "duration": 453}, {"note": 76, "velocity": 103, "duration": 461}, {"note": 81, "velocity": 98, "duration": 379}, {"note": 0, "velocity": 0, "duration": 101}, {"note": 78, "velocity": 100, "duration": 1221}, {"note": 0, "velocity": 0, "duration": 219}, {"note": 78, "velocity": 105, "duration": 188}, {"note": 81, "velocity": 97, "duration": 161}, {"note": 0, "velocity": 0, "duration": 79}, {"note": 83, "velocity": 97, "duration": 583}, {"note": 0, "velocity": 0, "duration": 137}, {"note": 83, "velocity": 98, "duration": 170}, {"note": 0, "velocity": 0, "duration": 70}, {"note": 81, "velocity": 96, "duration": 413}, {"note": 0, "velocity": 0, "duration": 67}, {"note": 76, "velocity": 107, "duration": 240}, {"note": 81, "velocity": 98, "duration": 181}, {"note": 78, "velocity": 97, "duration": 379}, {"note": 0, "velocity": 0, "duration": 101}, {"note": 74, "velocity": 101, "duration": 443}, {"note": 71, "velocity": 102, "duration": 379}, {"note": 0, "velocity": 0, "duration": 101}, {"note": 78, "velocity": 97, "duration": 178}, {"note": 0, "velocity": 0, "duration": 62}, {"note": 76, "velocity": 97, "duration": 160}, {"note": 0, "velocity": 0, "duration": 80}, {"note": 74, "velocity": 103, "duration": 376}, {"note": 0, "velocity": 0, "duration": 104}, {"note": 78, "velocity": 98, "duration": 381}, {"note": 0, "velocity": 0, "duration": 99}, {"note": 76, "velocity": 100, "duration": 387}, {"note": 0, "velocity": 0, "duration": 93}, {"note": 78, "velocity": 102, "duration": 421}, {"note": 71, "velocity": 102, "duration": 1320}, {"note": 0, "velocity": 0, "duration": 120}, {"note": 78, "velocity": 100, "duration": 174}, {"note": 0, "velocity": 0, "duration": 66}, {"note": 81, "velocity": 98, "duration": 177}, {"note": 0, "velocity": 0, "duration": 63}, {"note": 83, "velocity": 96, "duration": 616}, {"note": 0, "velocity": 0, "duration": 104}, {"note": 83, "velocity": 100, "duration": 171}, {"note": 0, "velocity": 0, "duration": 69}, {"note": 81, "velocity": 98, "duration": 442}, {"note": 76, "velocity": 98, "duration": 173}, {"note": 0, "velocity": 0, "duration": 67}, {"note": 81, "velocity": 101, "duration": 163}, {"note": 0, "velocity": 0, "duration": 77}, {"note": 78, "velocity": 100, "duration": 405}, {"note": 0, "velocity": 0, "duration": 75}, {"note": 74, "velocity": 102, "duration": 379}, {"note": 0, "velocity": 0, "duration": 101}, {"note": 71, "velocity": 97, "duration": 386}, {"note": 0, "velocity": 0, "duration": 94}, {"note": 71, "velocity": 107, "duration": 180}, {"note": 73, "velocity": 98, "duration": 180}, {"note": 74, "velocity": 103, "duration": 411}, {"note": 0, "velocity": 0, "duration": 69}, {"note": 78, "velocity": 103, "duration": 453}, {"note": 76, "velocity": 103, "duration": 461}, {"note": 81, "velocity": 98, "duration": 379}, {"note": 0, "velocity": 0, "duration": 101}, {"note": 78, "velocity": 100, "duration": 1221}, {"note": 0, "velocity": 0, "duration": 219}, {"note": 78, "velocity": 105, "duration": 188}, {"note": 81, "velocity": 97, "duration": 161}, {"note": 0, "velocity": 0, "duration": 79}, {"note": 83, "velocity": 97, "duration": 583}, {"note": 0, "velocity": 0, "duration": 137}, {"note": 83, "velocity": 98, "duration": 170}, {"note": 0, "velocity": 0, "duration": 70}, {"note": 81, "velocity": 96, "duration": 413}, {"note": 0, "velocity": 0, "duration": 67}, {"note": 76, "velocity": 107, "duration": 240}, {"note": 81, "velocity": 98, "duration": 181}, {"note": 78, "velocity": 97, "duration": 379}, {"note": 0, "velocity": 0, "duration": 101}, {"note": 74, "velocity": 101, "duration": 443}, {"note": 71, "velocity": 102, "duration": 379}, {"note": 0, "velocity": 0, "duration": 101}, {"note": 78, "velocity": 97, "duration": 178}, {"note": 0, "velocity": 0, "duration": 62}, {"note": 76, "velocity": 97, "duration": 160}, {"note": 0, "velocity": 0, "duration": 80}, {"note": 74, "velocity": 103, "duration": 376}, {"note": 0, "velocity": 0, "duration": 104}, {"note": 78, "velocity": 98, "duration": 381}, {"note": 0, "velocity": 0, "duration": 99}, {"note": 76, "velocity": 100, "duration": 387}, {"note": 0, "velocity": 0, "duration": 93}, {"note": 78, "velocity": 102, "duration": 421}, {"note": 71, "velocity": 102, "duration": 1841}]]