[[{"note": 71, "velocity": 94, "duration": 81}, {"note": 0, "velocity": 0, "duration": 159}, {"note": 71, "velocity": 99, "duration": 175}, {"note": 0, "velocity": 0, "duration": 65}, {"note": 71, "velocity": 97, "duration": 169}, {"note": 0, "velocity": 0, "duration": 71}, {"note": 73, "velocity": 94, "duration": 135}, {"note": 0, "velocity": 0, "duration": 105}, {"note": 73, "velocity": 93, "duration": 147}, {"note": 0, "velocity": 0, "duration": 93}, {"note": 73, "velocity": 94, "duration": 160}, {"note": 0, "velocity": 0, "duration": 80}, {"note": 73, "velocity": 97, "duration": 315}, {"note": 0, "velocity": 0, "duration": 165}, {"note": 74, "velocity": 97, "duration": 1592}, {"note": 0, "velocity": 0, "duration": 328}, {"note": 71, "velocity": 94, "duration": 77}, {"note": 0, "velocity": 0, "duration": 163}, {"note": 71, "velocity": 89, "duration": 140}, {"note": 0, "velocity": 0, "duration": 100}, {"note": 71, "velocity": 97, "duration": 175}, {"note": 0, "velocity": 0, "duration": 65}, {"note": 73, "velocity": 93, "duration": 384}, {"note": 0, "velocity": 0, "duration": 96}, {"note": 73, "velocity": 94, "duration": 140}, {"note": 0, "velocity": 0, "duration": 100}, {"note": 66, "velocity": 93, "duration": 1722}, {"note": 0, "velocity": 0, "duration": 678}, {"note": 71, "velocity": 94, "duration": 97}, {"note": 0, "velocity": 0, "duration": 143}, {"note": 71, "velocity": 96, "duration": 112}, {"note": 0, "velocity": 0, "duration": 128}, {"note": 71, "velocity": 97, "duration": 130}, {"note": 0, "velocity": 0, "duration": 110}, {"note": 73, "velocity": 95, "duration": 100}, {"note": 0, "velocity": 0, "duration": 140}, {"note": 73, "velocity": 95, "duration": 93}, {"note": 0, "velocity": 0, "duration": 147}, {"note": 73, "velocity": 94, "duration": 110}, {"note": 0, "velocity": 0, "duration": 130}, {"note": 73, "velocity": 97, "duration": 364}, {"note": 0, "velocity": 0, "duration": 116}, {"note": 74, "velocity": 93, "duration": 1740}, {"note": 0, "velocity": 0, "duration": 420}, {"note": 71, "velocity": 96, "duration": 159}, {"note": 0, "velocity": 0, "duration": 81}, {"note": 71, "velocity": 94, "duration": 169}, {"note": 0, "velocity": 0, "duration": 71}, {"note": 73, "velocity": 94, "duration": 408}, {"note": 0, "velocity": 0, "duration": 72}, {"note": 69, "velocity": 94, "duration": 170}, {"note": 0, "velocity": 0, "duration": 70}, {"note": 71, "velocity": 93, "duration": 2199}, {"note": 0, "velocity": 0, "duration": 23001}, {"note": 71, "velocity": 104, "duration": 660}, {"note": 74, "velocity": 104, "duration": 178}, {"note": 0, "velocity": 0, "duration": 62}, {"note": 73, "velocity": 98, "duration": 220}, {"note": 71, "velocity": 102, "duration": 219}, {"note": 69, "velocity": 100, "duration": 175}, {"note": 0, "velocity": 0, "duration": 65}, {"note": 71, "velocity": 100, "duration": 355}, {"note": 0, "velocity": 0, "duration": 125}, {"note": 66, "velocity": 94, "duration": 1146}, {"note": 71, "velocity": 98, "duration": 205}, {"note": 69, "velocity": 97, "duration": 165}, {"note": 0, "velocity": 0, "duration": 75}, {"note": 71, "velocity": 102, "duration": 661}, {"note": 74, "velocity": 102, "duration": 167}, {"note": 0, "velocity": 0, "duration": 73}, {"note": 73, "velocity": 97, "duration": 172}, {"note": 0, "velocity": 0, "duration": 68}, {"note": 73, "velocity": 97, "duration": 171}, {"note": 0, "velocity": 0, "duration": 69}, {"note": 71, "velocity": 94, "duration": 187}, {"note": 73, "velocity": 102, "duration": 169}, {"note": 0, "velocity": 0, "duration": 71}, {"note": 71, "velocity": 98, "duration": 1231}, {"note": 0, "velocity": 0, "duration": 209}, {"note": 74, "velocity": 104, "duration": 154}, {"note": 0, "velocity": 0, "duration": 86}, {"note": 76, "velocity": 99, "duration": 172}, {"note": 0, "velocity": 0, "duration": 68}, {"note": 78, "velocity": 96, "duration": 161}, {"note": 0, "velocity": 0, "duration": 79}, {"note": 78, "velocity": 99, "duration": 171}, {"note": 0, "velocity": 0, "duration": 69}, {"note": 78, "velocity": 104, "duration": 157}, {"note": 0, "velocity": 0, "duration": 83}, {"note": 78, "velocity": 102, "duration": 161}, {"note": 0, "velocity": 0, "duration": 79}, {"note": 76, "velocity": 107, "duration": 532}, {"note": 0, "velocity": 0, "duration": 428}, {"note": 74, "velocity": 99, "duration": 169}, {"note": 0, "velocity": 0, "duration": 71}, {"note": 73, "velocity": 95, "duration": 177}, {"note": 0, "velocity": 0, "duration": 63}, {"note": 71, "velocity": 97, "duration": 174}, {"note": 0, "velocity": 0, "duration": 66}, {"note": 73, "velocity": 97, "duration": 410}, {"note": 0, "velocity": 0, "duration": 70}, {"note": 69, "velocity": 97, "duration": 471}, {"note": 0, "velocity": 0, "duration": 249}, {"note": 71, "velocity": 97, "duration": 423}, {"note": 74, "velocity": 104, "duration": 370}, {"note": 0, "velocity": 0, "duration": 110}, {"note": 73, "velocity": 97, "duration": 435}, {"note": 71, "velocity": 97, "duration": 182}, {"note": 69, "velocity": 95, "duration": 183}, {"note": 71, "velocity": 99, "duration": 1934}, {"note": 0, "velocity": 0, "duration": 1906}, {"note": 71, "velocity": 104, "duration": 660}, {"note": 74, "velocity": 104, "duration": 178}, {"note": 0, "velocity": 0, "duration": 62}, {"note": 73, "velocity": 98, "duration": 220}, {"note": 71, "velocity": 102, "duration": 219}, {"note": 69, "velocity": 100, "duration": 175}, {"note": 0, "velocity": 0, "duration": 65}, {"note": 71, "velocity": 100, "duration": 355}, {"note": 0, "velocity": 0, "duration": 125}, {"note": 66, "velocity": 94, "duration": 1146}, {"note": 71, "velocity": 98, "duration": 205}, {"note": 69, "velocity": 97, "duration": 165}, {"note": 0, "velocity": 0, "duration": 75}, {"note": 71, "velocity": 102, "duration": 661}, {"note": 74, "velocity": 102, "duration": 167}, {"note": 0, "velocity": 0, "duration": 73}, {"note": 73, "velocity": 97, "duration": 172}, {"note": 0, "velocity": 0, "duration": 68}, {"note": 73, "velocity": 97, "duration": 171}, {"note": 0, "velocity": 0, "duration": 69}, {"note": 71, "velocity": 94, "duration": 187}, {"note": 73, "velocity": 102, "duration": 169}, {"note": 0, "velocity": 0, "duration": 71}, {"note": 74, "velocity": 98, "duration": 1231}, {"note": 0, "velocity": 0, "duration": 209}, {"note": 74, "velocity": 104, "duration": 154}, {"note": 0, "velocity": 0, "duration": 86}, {"note": 76, "velocity": 99, "duration": 172}, {"note": 0, "velocity": 0, "duration": 68}, {"note": 78, "velocity": 96, "duration": 161}, {"note": 0, "velocity": 0, "duration": 79}, {"note": 78, "velocity": 99, "duration": 171}, {"note": 0, "velocity": 0, "duration": 69}, {"note": 78, "velocity": 104, "duration": 157}, {"note": 0, "velocity": 0, "duration": 83}, {"note": 78, "velocity": 102, "duration": 161}, {"note": 0, "velocity": 0, "duration": 79}, {"note": 76, "velocity": 107, "duration": 532}, {"note": 0, "velocity": 0, "duration": 428}, {"note": 74, "velocity": 99, "duration": 169}, {"note": 0, "velocity": 0, "duration": 71}, {"note": 73, "velocity": 95, "duration": 177}, {"note": 0, "velocity": 0, "duration": 63}, {"note": 71, "velocity": 97, "duration": 174}, {"note": 0, "velocity": 0, "duration": 66}, {"note": 73, "velocity": 97, "duration": 410}, {"note": 0, "velocity": 0, "duration": 70}, {"note": 69, "velocity": 97, "duration": 471}, {"note": 0, "velocity": 0, "duration": 249}, {"note": 71, "velocity": 97, "duration": 423}, {"note": 71, "velocity": 92, "duration": 191}, {"note": 74, "velocity": 96, "duration": 175}, {"note": 0, "velocity": 0, "duration": 65}, {"note": 73, "velocity": 97, "duration": 435}, {"note": 69, "velocity": 97, "duration": 495}, {"note": 0, "velocity": 0, "duration": 465}, {"note": 71, "velocity": 95, "duration": 160}, {"note": 0, "velocity": 0, "duration": 80}, {"note": 74, "velocity": 104, "duration": 151}, {"note": 0, "velocity": 0, "duration": 89}, {"note": 73, "velocity": 97, "duration": 428}, {"note": 69, "velocity": 88, "duration": 419}, {"note": 0, "velocity": 0, "duration": 61}, {"note": 71, "velocity": 97, "duration": 1894}, {"note": 0, "velocity": 0, "duration": 1466}, {"note": 66, "velocity": 102, "duration": 163}, {"note": 0, "velocity": 0, "duration": 77}, {"note": 69, "velocity": 99, "duration": 201}, {"note": 71, "velocity": 107, "duration": 407}, {"note": 0, "velocity": 0, "duration": 73}, {"note": 78, "velocity": 98, "duration": 365}, {"note": 0, "velocity": 0, "duration": 115}, {"note": 76, "velocity": 107, "duration": 290}, {"note": 74, "velocity": 110, "duration": 76}, {"note": 73, "velocity": 99, "duration": 173}, {"note": 0, "velocity": 0, "duration": 99}, {"note": 74, "velocity": 106, "duration": 1419}, {"note": 0, "velocity": 0, "duration": 261}, {"note": 74, "velocity": 104, "duration": 183}, {"note": 73, "velocity": 98, "duration": 180}, {"note": 71, "velocity": 99, "duration": 162}, {"note": 0, "velocity": 0, "duration": 78}, {"note": 71, "velocity": 102, "duration": 166}, {"note": 0, "velocity": 0, "duration": 74}, {"note": 71, "velocity": 104, "duration": 221}, {"note": 71, "velocity": 94, "duration": 162}, {"note": 0, "velocity": 0, "duration": 78}, {"note": 69, "velocity": 100, "duration": 189}, {"note": 69, "velocity": 99, "duration": 181}, {"note": 71, "velocity": 99, "duration": 445}, {"note": 66, "velocity": 99, "duration": 1329}, {"note": 0, "velocity": 0, "duration": 111}, {"note": 66, "velocity": 97, "duration": 169}, {"note": 0, "velocity": 0, "duration": 71}, {"note": 69, "velocity": 97, "duration": 172}, {"note": 0, "velocity": 0, "duration": 68}, {"note": 71, "velocity": 107, "duration": 988}, {"note": 78, "velocity": 96, "duration": 368}, {"note": 76, "velocity": 110, "duration": 288}, {"note": 74, "velocity": 102, "duration": 72}, {"note": 73, "velocity": 104, "duration": 186}, {"note": 0, "velocity": 0, "duration": 64}, {"note": 74, "velocity": 104, "duration": 1535}, {"note": 0, "velocity": 0, "duration": 137}, {"note": 74, "velocity": 95, "duration": 181}, {"note": 73, "velocity": 100, "duration": 188}, {"note": 71, "velocity": 100, "duration": 620}, {"note": 0, "velocity": 0, "duration": 100}, {"note": 71, "velocity": 97, "duration": 173}, {"note": 0, "velocity": 0, "duration": 67}, {"note": 69, "velocity": 95, "duration": 418}, {"note": 0, "velocity": 0, "duration": 62}, {"note": 73, "velocity": 99, "duration": 402}, {"note": 0, "velocity": 0, "duration": 78}, {"note": 71, "velocity": 98, "duration": 1944}, {"note": 0, "velocity": 0, "duration": 1951}, {"note": 71, "velocity": 104, "duration": 660}, {"note": 74, "velocity": 104, "duration": 178}, {"note": 0, "velocity": 0, "duration": 62}, {"note": 73, "velocity": 98, "duration": 220}, {"note": 71, "velocity": 102, "duration": 219}, {"note": 69, "velocity": 100, "duration": 175}, {"note": 0, "velocity": 0, "duration": 65}, {"note": 71, "velocity": 100, "duration": 355}, {"note": 0, "velocity": 0, "duration": 125}, {"note": 66, "velocity": 94, "duration": 1146}, {"note": 71, "velocity": 98, "duration": 205}, {"note": 69, "velocity": 97, "duration": 165}, {"note": 0, "velocity": 0, "duration": 75}, {"note": 71, "velocity": 102, "duration": 661}, {"note": 74, "velocity": 102, "duration": 167}, {"note": 0, "velocity": 0, "duration": 73}, {"note": 73, "velocity": 97, "duration": 172}, {"note": 0, "velocity": 0, "duration": 68}, {"note": 73, "velocity": 97, "duration": 171}, {"note": 0, "velocity": 0, "duration": 69}, {"note": 71, "velocity": 94, "duration": 187}, {"note": 73, "velocity": 102, "duration": 169}, {"note": 0, "velocity": 0, "duration": 71}, {"note": 74, "velocity": 98, "duration": 1231}, {"note": 0, "velocity": 0, "duration": 209}, {"note": 74, "velocity": 104, "duration": 154}, {"note": 0, "velocity": 0, "duration": 86}, {"note": 76, "velocity": 99, "duration": 172}, {"note": 0, "velocity": 0, "duration": 68}, {"note": 78, "velocity": 96, "duration": 161}, {"note": 0, "velocity": 0, "duration": 79}, {"note": 78, "velocity": 99, "duration": 171}, {"note": 0, "velocity": 0, "duration": 69}, {"note": 78, "velocity": 104, "duration": 157}, {"note": 0, "velocity": 0, "duration": 83}, {"note": 78, "velocity": 102, "duration": 161}, {"note": 0, "velocity": 0, "duration": 79}, {"note": 76, "velocity": 107, "duration": 532}, {"note": 0, "velocity": 0, "duration": 428}, {"note": 74, "velocity": 99, "duration": 169}, {"note": 0, "velocity": 0, "duration": 71}, {"note": 73, "velocity": 95, "duration": 177}, {"note": 0, "velocity": 0, "duration": 63}, {"note": 71, "velocity": 97, "duration": 174}, {"note": 0, "velocity": 0, "duration": 66}, {"note": 73, "velocity": 97, "duration": 410}, {"note": 0, "velocity": 0, "duration": 70}, {"note": 69, "velocity": 97, "duration": 471}, {"note": 0, "velocity": 0, "duration": 249}, {"note": 71, "velocity": 97, "duration": 423}, {"note": 71, "velocity": 92, "duration": 191}, {"note": 74, "velocity": 96, "duration": 175}, {"note": 0, "velocity": 0, "duration": 65}, {"note": 73, "velocity": 97, "duration": 435}, {"note": 69, "velocity": 97, "duration": 495}, {"note": 0, "velocity": 0, "duration": 465}, {"note": 71, "velocity": 95, "duration": 160}, {"note": 0, "velocity": 0, "duration": 80}, {"note": 74, "velocity": 104, "duration": 151}, {"note": 0, "velocity": 0, "duration": 89}, {"note": 73, "velocity": 97, "duration": 428}, {"note": 69, "velocity": 88, "duration": 419}, {"note": 0, "velocity": 0, "duration": 61}, {"note": 71, "velocity": 97, "duration": 1894}, {"note": 0, "velocity": 0, "duration": 1466}, {"note": 66, "velocity": 102, "duration": 163}, {"note": 0, "velocity": 0, "duration": 77}, {"note": 69, "velocity": 99, "duration": 201}, {"note": 71, "velocity": 107, "duration": 407}, {"note": 0, "velocity": 0, "duration": 73}, {"note": 78, "velocity": 98, "duration": 365}, {"note": 0, "velocity": 0, "duration": 115}, {"note": 76, "velocity": 107, "duration": 290}, {"note": 74, "velocity": 110, "duration": 76}, {"note": 73, "velocity": 99, "duration": 173}, {"note": 0, "velocity": 0, "duration": 99}, {"note": 74, "velocity": 106, "duration": 1419}, {"note": 0, "velocity": 0, "duration": 261}, {"note": 74, "velocity": 104, "duration": 183}, {"note": 73, "velocity": 98, "duration": 180}, {"note": 71, "velocity": 99, "duration": 162}, {"note": 0, "velocity": 0, "duration": 78}, {"note": 71, "velocity": 102, "duration": 166}, {"note": 0, "velocity": 0, "duration": 74}, {"note": 71, "velocity": 104, "duration": 221}, {"note": 71, "velocity": 94, "duration": 162}, {"note": 0, "velocity": 0, "duration": 78}, {"note": 69, "velocity": 100, "duration": 189}, {"note": 69, "velocity": 99, "duration": 181}, {"note": 71, "velocity": 99, "duration": 445}, {"note": 66, "velocity": 99, "duration": 1329}, {"note": 0, "velocity": 0, "duration": 111}, {"note": 66, "velocity": 97, "duration": 169}, {"note": 0, "velocity": 0, "duration": 71}, {"note": 69, "velocity": 97, "duration": 172}, {"note": 0, "velocity": 0, "duration": 68}, {"note": 71, "velocity": 107, "duration": 988}, {"note": 78, "velocity": 96, "duration": 368}, {"note": 76, "velocity": 110, "duration": 288}, {"note": 74, "velocity": 102, "duration": 72}, {"note": 73, "velocity": 104, "duration": 186}, {"note": 0, "velocity": 0, "duration": 64}, {"note": 74, "velocity": 104, "duration": 1535}, {"note": 0, "velocity": 0, "duration": 137}, {"note": 74, "velocity": 95, "duration": 182}, {"note": 73, "velocity": 100, "duration": 188}, {"note": 71, "velocity": 100, "duration": 620}, {"note": 0, "velocity": 0, "duration": 100}, {"note": 71, "velocity": 97, "duration": 173}, {"note": 0, "velocity": 0, "duration": 67}, {"note": 69, "velocity": 95, "duration": 418}, {"note": 0, "velocity": 0, "duration": 62}, {"note": 73, "velocity": 99, "duration": 402}, {"note": 0, "velocity": 0, "duration": 78}, {"note": 71, "velocity": 98, "duration": 1318}, {"note": 0, "velocity": 0, "duration": 67}, {"note": 66, "velocity": 97, "duration": 168}, {"note": 0, "velocity": 0, "duration": 72}, {"note": 69, "velocity": 97, "duration": 172}, {"note": 0, "velocity": 0, "duration": 68}, {"note": 71, "velocity": 107, "duration": 988}, {"note": 78, "velocity": 96, "duration": 368}, {"note": 76, "velocity": 110, "duration": 288}, {"note": 74, "velocity": 102, "duration": 72}, {"note": 73, "velocity": 104, "duration": 186}, {"note": 0, "velocity": 0, "duration": 64}, {"note": 74, "velocity": 104, "duration": 1536}, {"note": 0, "velocity": 0, "duration": 137}, {"note": 74, "velocity": 95, "duration": 181}, {"note": 73, "velocity": 100, "duration": 188}, {"note": 71, "velocity": 100, "duration": 620}, {"note": 0, "velocity": 0, "duration": 100}, {"note": 71, "velocity": 97, "duration": 172}, {"note": 0, "velocity": 0, "duration": 68}, {"note": 69, "velocity": 95, "duration": 417}, {"note": 0, "velocity": 0, "duration": 63}, {"note": 73, "velocity": 99, "duration": 401}, {"note": 0, "velocity": 0, "duration": 79}, {"note": 71, "velocity": 98, "duration": 1943}]]