[[{"note": 65, "velocity": 91, "duration": 74}, {"note": 65, "velocity": 88, "duration": 104}, {"note": 74, "velocity": 95, "duration": 179}, {"note": 0, "velocity": 0, "duration": 61}, {"note": 74, "velocity": 97, "duration": 391}, {"note": 0, "velocity": 0, "duration": 89}, {"note": 74, "velocity": 92, "duration": 157}, {"note": 0, "velocity": 0, "duration": 83}, {"note": 74, "velocity": 92, "duration": 184}, {"note": 77, "velocity": 80, "duration": 201}, {"note": 72, "velocity": 91, "duration": 195}, {"note": 69, "velocity": 90, "duration": 185}, {"note": 70, "velocity": 87, "duration": 935}, {"note": 0, "velocity": 0, "duration": 745}, {"note": 67, "velocity": 91, "duration": 70}, {"note": 67, "velocity": 91, "duration": 99}, {"note": 75, "velocity": 89, "duration": 190}, {"note": 75, "velocity": 93, "duration": 364}, {"note": 0, "velocity": 0, "duration": 116}, {"note": 79, "velocity": 88, "duration": 158}, {"note": 0, "velocity": 0, "duration": 82}, {"note": 79, "velocity": 91, "duration": 187}, {"note": 77, "velocity": 92, "duration": 159}, {"note": 0, "velocity": 0, "duration": 81}, {"note": 72, "velocity": 91, "duration": 225}, {"note": 77, "velocity": 74, "duration": 202}, {"note": 74, "velocity": 98, "duration": 949}, {"note": 0, "velocity": 0, "duration": 731}, {"note": 74, "velocity": 96, "duration": 60}, {"note": 74, "velocity": 95, "duration": 82}, {"note": 79, "velocity": 92, "duration": 172}, {"note": 0, "velocity": 0, "duration": 68}, {"note": 79, "velocity": 91, "duration": 397}, {"note": 0, "velocity": 0, "duration": 83}, {"note": 77, "velocity": 90, "duration": 182}, {"note": 79, "velocity": 90, "duration": 451}, {"note": 77, "velocity": 80, "duration": 205}, {"note": 74, "velocity": 93, "duration": 157}, {"note": 0, "velocity": 0, "duration": 83}, {"note": 77, "velocity": 89, "duration": 164}, {"note": 0, "velocity": 0, "duration": 76}, {"note": 75, "velocity": 92, "duration": 184}, {"note": 75, "velocity": 93, "duration": 171}, {"note": 0, "velocity": 0, "duration": 69}, {"note": 74, "velocity": 93, "duration": 167}, {"note": 0, "velocity": 0, "duration": 73}, {"note": 67, "velocity": 82, "duration": 495}, {"note": 0, "velocity": 0, "duration": 225}, {"note": 67, "velocity": 91, "duration": 70}, {"note": 67, "velocity": 83, "duration": 100}, {"note": 75, "velocity": 91, "duration": 172}, {"note": 0, "velocity": 0, "duration": 68}, {"note": 75, "velocity": 92, "duration": 370}, {"note": 0, "velocity": 0, "duration": 110}, {"note": 67, "velocity": 92, "duration": 168}, {"note": 0, "velocity": 0, "duration": 72}, {"note": 74, "velocity": 95, "duration": 183}, {"note": 72, "velocity": 92, "duration": 150}, {"note": 0, "velocity": 0, "duration": 90}, {"note": 72, "velocity": 92, "duration": 208}, {"note": 69, "velocity": 92, "duration": 74}, {"note": 70, "velocity": 91, "duration": 1002}, {"note": 0, "velocity": 0, "duration": 798}, {"note": 65, "velocity": 91, "duration": 74}, {"note": 65, "velocity": 88, "duration": 104}, {"note": 74, "velocity": 95, "duration": 179}, {"note": 0, "velocity": 0, "duration": 61}, {"note": 74, "velocity": 97, "duration": 391}, {"note": 0, "velocity": 0, "duration": 89}, {"note": 74, "velocity": 92, "duration": 157}, {"note": 0, "velocity": 0, "duration": 83}, {"note": 74, "velocity": 92, "duration": 184}, {"note": 72, "velocity": 80, "duration": 201}, {"note": 70, "velocity": 91, "duration": 195}, {"note": 69, "velocity": 90, "duration": 185}, {"note": 70, "velocity": 87, "duration": 935}, {"note": 0, "velocity": 0, "duration": 745}, {"note": 67, "velocity": 91, "duration": 70}, {"note": 67, "velocity": 91, "duration": 99}, {"note": 75, "velocity": 89, "duration": 190}, {"note": 75, "velocity": 93, "duration": 364}, {"note": 0, "velocity": 0, "duration": 116}, {"note": 79, "velocity": 88, "duration": 158}, {"note": 0, "velocity": 0, "duration": 82}, {"note": 77, "velocity": 91, "duration": 187}, {"note": 0, "velocity": 0, "duration": 293}, {"note": 72, "velocity": 91, "duration": 120}, {"note": 72, "velocity": 91, "duration": 120}, {"note": 77, "velocity": 74, "duration": 202}, {"note": 74, "velocity": 98, "duration": 949}, {"note": 0, "velocity": 0, "duration": 731}, {"note": 74, "velocity": 96, "duration": 60}, {"note": 74, "velocity": 95, "duration": 82}, {"note": 79, "velocity": 92, "duration": 172}, {"note": 0, "velocity": 0, "duration": 68}, {"note": 79, "velocity": 91, "duration": 397}, {"note": 0, "velocity": 0, "duration": 83}, {"note": 77, "velocity": 90, "duration": 182}, {"note": 79, "velocity": 90, "duration": 451}, {"note": 77, "velocity": 80, "duration": 205}, {"note": 74, "velocity": 93, "duration": 157}, {"note": 0, "velocity": 0, "duration": 83}, {"note": 77, "velocity": 89, "duration": 164}, {"note": 0, "velocity": 0, "duration": 76}, {"note": 75, "velocity": 92, "duration": 184}, {"note": 75, "velocity": 93, "duration": 171}, {"note": 0, "velocity": 0, "duration": 69}, {"note": 74, "velocity": 93, "duration": 167}, {"note": 0, "velocity": 0, "duration": 73}, {"note": 67, "velocity": 82, "duration": 495}, {"note": 0, "velocity": 0, "duration": 225}, {"note": 67, "velocity": 91, "duration": 70}, {"note": 67, "velocity": 83, "duration": 100}, {"note": 75, "velocity": 91, "duration": 480}, {"note": 0, "velocity": 0, "duration": 240}, {"note": 67, "velocity": 92, "duration": 168}, {"note": 0, "velocity": 0, "duration": 72}, {"note": 74, "velocity": 95, "duration": 183}, {"note": 0, "velocity": 0, "duration": 297}, {"note": 72, "velocity": 87, "duration": 195}, {"note": 65, "velocity": 93, "duration": 65}, {"note": 65, "velocity": 82, "duration": 76}, {"note": 72, "velocity": 91, "duration": 182}, {"note": 70, "velocity": 93, "duration": 1080}, {"note": 0, "velocity": 0, "duration": 120}, {"note": 75, "velocity": 93, "duration": 176}, {"note": 0, "velocity": 0, "duration": 64}, {"note": 77, "velocity": 91, "duration": 162}, {"note": 0, "velocity": 0, "duration": 78}, {"note": 79, "velocity": 92, "duration": 165}, {"note": 0, "velocity": 0, "duration": 75}, {"note": 79, "velocity": 92, "duration": 156}, {"note": 0, "velocity": 0, "duration": 84}, {"note": 79, "velocity": 93, "duration": 148}, {"note": 0, "velocity": 0, "duration": 92}, {"note": 75, "velocity": 97, "duration": 76}, {"note": 74, "velocity": 93, "duration": 65}, {"note": 72, "velocity": 95, "duration": 473}, {"note": 0, "velocity": 0, "duration": 247}, {"note": 79, "velocity": 87, "duration": 196}, {"note": 77, "velocity": 92, "duration": 189}, {"note": 77, "velocity": 85, "duration": 66}, {"note": 77, "velocity": 83, "duration": 68}, {"note": 77, "velocity": 92, "duration": 176}, {"note": 0, "velocity": 0, "duration": 64}, {"note": 74, "velocity": 91, "duration": 75}, {"note": 72, "velocity": 87, "duration": 60}, {"note": 70, "velocity": 84, "duration": 451}, {"note": 0, "velocity": 0, "duration": 269}, {"note": 72, "velocity": 96, "duration": 65}, {"note": 74, "velocity": 96, "duration": 62}, {"note": 75, "velocity": 93, "duration": 161}, {"note": 0, "velocity": 0, "duration": 79}, {"note": 75, "velocity": 87, "duration": 76}, {"note": 75, "velocity": 87, "duration": 72}, {"note": 75, "velocity": 96, "duration": 184}, {"note": 74, "velocity": 97, "duration": 169}, {"note": 0, "velocity": 0, "duration": 71}, {"note": 72, "velocity": 90, "duration": 272}, {"note": 70, "velocity": 91, "duration": 369}, {"note": 0, "velocity": 0, "duration": 111}, {"note": 70, "velocity": 94, "duration": 127}, {"note": 72, "velocity": 92, "duration": 77}, {"note": 74, "velocity": 94, "duration": 92}, {"note": 0, "velocity": 0, "duration": 67}, {"note": 74, "velocity": 95, "duration": 80}, {"note": 74, "velocity": 92, "duration": 91}, {"note": 74, "velocity": 96, "duration": 116}, {"note": 74, "velocity": 93, "duration": 100}, {"note": 75, "velocity": 92, "duration": 108}, {"note": 77, "velocity": 92, "duration": 525}, {"note": 0, "velocity": 0, "duration": 199}, {"note": 75, "velocity": 92, "duration": 85}, {"note": 77, "velocity": 92, "duration": 72}, {"note": 79, "velocity": 86, "duration": 169}, {"note": 0, "velocity": 0, "duration": 71}, {"note": 79, "velocity": 92, "duration": 178}, {"note": 0, "velocity": 0, "duration": 62}, {"note": 79, "velocity": 91, "duration": 162}, {"note": 0, "velocity": 0, "duration": 78}, {"note": 75, "velocity": 95, "duration": 126}, {"note": 74, "velocity": 87, "duration": 83}, {"note": 72, "velocity": 91, "duration": 491}, {"note": 0, "velocity": 0, "duration": 229}, {"note": 79, "velocity": 91, "duration": 229}, {"note": 77, "velocity": 93, "duration": 159}, {"note": 0, "velocity": 0, "duration": 81}, {"note": 77, "velocity": 93, "duration": 163}, {"note": 0, "velocity": 0, "duration": 77}, {"note": 77, "velocity": 95, "duration": 110}, {"note": 0, "velocity": 0, "duration": 71}, {"note": 74, "velocity": 98, "duration": 81}, {"note": 0, "velocity": 0, "duration": 87}, {"note": 77, "velocity": 93, "duration": 96}, {"note": 0, "velocity": 0, "duration": 63}, {"note": 79, "velocity": 93, "duration": 569}, {"note": 0, "velocity": 0, "duration": 123}, {"note": 77, "velocity": 90, "duration": 168}, {"note": 0, "velocity": 0, "duration": 72}, {"note": 75, "velocity": 92, "duration": 188}, {"note": 74, "velocity": 92, "duration": 162}, {"note": 0, "velocity": 0, "duration": 78}, {"note": 75, "velocity": 87, "duration": 170}, {"note": 0, "velocity": 0, "duration": 70}, {"note": 70, "velocity": 91, "duration": 194}, {"note": 74, "velocity": 93, "duration": 395}, {"note": 0, "velocity": 0, "duration": 85}, {"note": 72, "velocity": 95, "duration": 205}, {"note": 69, "velocity": 88, "duration": 178}, {"note": 0, "velocity": 0, "duration": 62}, {"note": 70, "velocity": 93, "duration": 1504}, {"note": 0, "velocity": 0, "duration": 15536}, {"note": 65, "velocity": 91, "duration": 74}, {"note": 65, "velocity": 88, "duration": 104}, {"note": 74, "velocity": 95, "duration": 179}, {"note": 0, "velocity": 0, "duration": 61}, {"note": 74, "velocity": 97, "duration": 391}, {"note": 0, "velocity": 0, "duration": 89}, {"note": 74, "velocity": 92, "duration": 157}, {"note": 0, "velocity": 0, "duration": 83}, {"note": 74, "velocity": 92, "duration": 184}, {"note": 77, "velocity": 80, "duration": 201}, {"note": 72, "velocity": 91, "duration": 195}, {"note": 69, "velocity": 90, "duration": 185}, {"note": 70, "velocity": 87, "duration": 935}, {"note": 0, "velocity": 0, "duration": 745}, {"note": 67, "velocity": 91, "duration": 70}, {"note": 67, "velocity": 91, "duration": 99}, {"note": 75, "velocity": 89, "duration": 190}, {"note": 75, "velocity": 93, "duration": 364}, {"note": 0, "velocity": 0, "duration": 116}, {"note": 79, "velocity": 88, "duration": 158}, {"note": 0, "velocity": 0, "duration": 82}, {"note": 79, "velocity": 91, "duration": 187}, {"note": 77, "velocity": 92, "duration": 159}, {"note": 0, "velocity": 0, "duration": 81}, {"note": 72, "velocity": 91, "duration": 225}, {"note": 77, "velocity": 74, "duration": 202}, {"note": 74, "velocity": 98, "duration": 949}, {"note": 0, "velocity": 0, "duration": 731}, {"note": 74, "velocity": 96, "duration": 60}, {"note": 74, "velocity": 95, "duration": 82}, {"note": 79, "velocity": 92, "duration": 172}, {"note": 0, "velocity": 0, "duration": 68}, {"note": 79, "velocity": 91, "duration": 397}, {"note": 0, "velocity": 0, "duration": 83}, {"note": 77, "velocity": 90, "duration": 182}, {"note": 79, "velocity": 90, "duration": 451}, {"note": 77, "velocity": 80, "duration": 205}, {"note": 74, "velocity": 93, "duration": 157}, {"note": 0, "velocity": 0, "duration": 83}, {"note": 77, "velocity": 89, "duration": 164}, {"note": 0, "velocity": 0, "duration": 76}, {"note": 75, "velocity": 92, "duration": 184}, {"note": 75, "velocity": 93, "duration": 171}, {"note": 0, "velocity": 0, "duration": 69}, {"note": 74, "velocity": 93, "duration": 167}, {"note": 0, "velocity": 0, "duration": 73}, {"note": 67, "velocity": 82, "duration": 495}, {"note": 0, "velocity": 0, "duration": 225}, {"note": 67, "velocity": 91, "duration": 70}, {"note": 67, "velocity": 83, "duration": 100}, {"note": 75, "velocity": 91, "duration": 172}, {"note": 0, "velocity": 0, "duration": 68}, {"note": 75, "velocity": 92, "duration": 370}, {"note": 0, "velocity": 0, "duration": 110}, {"note": 67, "velocity": 92, "duration": 168}, {"note": 0, "velocity": 0, "duration": 72}, {"note": 74, "velocity": 95, "duration": 183}, {"note": 72, "velocity": 92, "duration": 150}, {"note": 0, "velocity": 0, "duration": 90}, {"note": 72, "velocity": 92, "duration": 208}, {"note": 69, "velocity": 92, "duration": 74}, {"note": 70, "velocity": 91, "duration": 1002}, {"note": 0, "velocity": 0, "duration": 798}, {"note": 65, "velocity": 91, "duration": 74}, {"note": 65, "velocity": 88, "duration": 104}, {"note": 74, "velocity": 95, "duration": 179}, {"note": 0, "velocity": 0, "duration": 61}, {"note": 74, "velocity": 97, "duration": 391}, {"note": 0, "velocity": 0, "duration": 89}, {"note": 74, "velocity": 92, "duration": 157}, {"note": 0, "velocity": 0, "duration": 83}, {"note": 74, "velocity": 92, "duration": 184}, {"note": 72, "velocity": 80, "duration": 201}, {"note": 70, "velocity": 91, "duration": 195}, {"note": 69, "velocity": 90, "duration": 185}, {"note": 70, "velocity": 87, "duration": 935}, {"note": 0, "velocity": 0, "duration": 745}, {"note": 67, "velocity": 91, "duration": 70}, {"note": 67, "velocity": 91, "duration": 99}, {"note": 75, "velocity": 89, "duration": 190}, {"note": 75, "velocity": 93, "duration": 364}, {"note": 0, "velocity": 0, "duration": 116}, {"note": 79, "velocity": 88, "duration": 158}, {"note": 0, "velocity": 0, "duration": 82}, {"note": 77, "velocity": 91, "duration": 187}, {"note": 0, "velocity": 0, "duration": 293}, {"note": 72, "velocity": 91, "duration": 120}, {"note": 72, "velocity": 91, "duration": 120}, {"note": 77, "velocity": 74, "duration": 202}, {"note": 74, "velocity": 98, "duration": 949}, {"note": 0, "velocity": 0, "duration": 731}, {"note": 74, "velocity": 96, "duration": 60}, {"note": 74, "velocity": 95, "duration": 82}, {"note": 79, "velocity": 92, "duration": 172}, {"note": 0, "velocity": 0, "duration": 68}, {"note": 79, "velocity": 91, "duration": 397}, {"note": 0, "velocity": 0, "duration": 83}, {"note": 77, "velocity": 90, "duration": 182}, {"note": 79, "velocity": 90, "duration": 451}, {"note": 77, "velocity": 80, "duration": 205}, {"note": 74, "velocity": 93, "duration": 157}, {"note": 0, "velocity": 0, "duration": 83}, {"note": 77, "velocity": 89, "duration": 164}, {"note": 0, "velocity": 0, "duration": 76}, {"note": 75, "velocity": 92, "duration": 184}, {"note": 75, "velocity": 93, "duration": 171}, {"note": 0, "velocity": 0, "duration": 69}, {"note": 74, "velocity": 93, "duration": 167}, {"note": 0, "velocity": 0, "duration": 73}, {"note": 67, "velocity": 82, "duration": 495}, {"note": 0, "velocity": 0, "duration": 225}, {"note": 67, "velocity": 91, "duration": 70}, {"note": 67, "velocity": 83, "duration": 100}, {"note": 75, "velocity": 91, "duration": 480}, {"note": 0, "velocity": 0, "duration": 240}, {"note": 67, "velocity": 92, "duration": 168}, {"note": 0, "velocity": 0, "duration": 72}, {"note": 74, "velocity": 95, "duration": 183}, {"note": 0, "velocity": 0, "duration": 297}, {"note": 72, "velocity": 87, "duration": 195}, {"note": 65, "velocity": 93, "duration": 65}, {"note": 65, "velocity": 82, "duration": 76}, {"note": 72, "velocity": 91, "duration": 182}, {"note": 70, "velocity": 93, "duration": 1080}, {"note": 0, "velocity": 0, "duration": 120}, {"note": 75, "velocity": 93, "duration": 176}, {"note": 0, "velocity": 0, "duration": 64}, {"note": 77, "velocity": 91, "duration": 162}, {"note": 0, "velocity": 0, "duration": 78}, {"note": 79, "velocity": 92, "duration": 165}, {"note": 0, "velocity": 0, "duration": 75}, {"note": 79, "velocity": 92, "duration": 156}, {"note": 0, "velocity": 0, "duration": 84}, {"note": 79, "velocity": 93, "duration": 148}, {"note": 0, "velocity": 0, "duration": 92}, {"note": 75, "velocity": 97, "duration": 76}, {"note": 74, "velocity": 93, "duration": 65}, {"note": 0, "velocity": 0, "duration": 305}, {"note": 72, "velocity": 95, "duration": 223}, {"note": 0, "velocity": 0, "duration": 247}, {"note": 79, "velocity": 87, "duration": 196}, {"note": 77, "velocity": 92, "duration": 189}, {"note": 77, "velocity": 85, "duration": 66}, {"note": 77, "velocity": 83, "duration": 68}, {"note": 77, "velocity": 92, "duration": 176}, {"note": 0, "velocity": 0, "duration": 64}, {"note": 74, "velocity": 91, "duration": 75}, {"note": 72, "velocity": 87, "duration": 381}, {"note": 70, "velocity": 84, "duration": 210}, {"note": 0, "velocity": 0, "duration": 269}, {"note": 72, "velocity": 96, "duration": 65}, {"note": 74, "velocity": 96, "duration": 62}, {"note": 75, "velocity": 93, "duration": 161}, {"note": 0, "velocity": 0, "duration": 79}, {"note": 75, "velocity": 87, "duration": 76}, {"note": 75, "velocity": 87, "duration": 72}, {"note": 75, "velocity": 96, "duration": 184}, {"note": 74, "velocity": 97, "duration": 169}, {"note": 72, "velocity": 90, "duration": 389}, {"note": 70, "velocity": 91, "duration": 369}, {"note": 0, "velocity": 0, "duration": 111}, {"note": 70, "velocity": 94, "duration": 127}, {"note": 72, "velocity": 92, "duration": 77}, {"note": 74, "velocity": 94, "duration": 92}, {"note": 0, "velocity": 0, "duration": 67}, {"note": 74, "velocity": 95, "duration": 80}, {"note": 74, "velocity": 92, "duration": 91}, {"note": 74, "velocity": 96, "duration": 116}, {"note": 74, "velocity": 93, "duration": 100}, {"note": 75, "velocity": 92, "duration": 108}, {"note": 77, "velocity": 92, "duration": 525}, {"note": 0, "velocity": 0, "duration": 199}, {"note": 75, "velocity": 92, "duration": 85}, {"note": 77, "velocity": 92, "duration": 72}, {"note": 79, "velocity": 86, "duration": 169}, {"note": 0, "velocity": 0, "duration": 71}, {"note": 79, "velocity": 92, "duration": 178}, {"note": 0, "velocity": 0, "duration": 62}, {"note": 79, "velocity": 91, "duration": 162}, {"note": 0, "velocity": 0, "duration": 78}, {"note": 75, "velocity": 95, "duration": 126}, {"note": 74, "velocity": 87, "duration": 361}, {"note": 72, "velocity": 91, "duration": 253}, {"note": 0, "velocity": 0, "duration": 229}, {"note": 79, "velocity": 91, "duration": 229}, {"note": 77, "velocity": 93, "duration": 159}, {"note": 0, "velocity": 0, "duration": 81}, {"note": 77, "velocity": 93, "duration": 163}, {"note": 0, "velocity": 0, "duration": 77}, {"note": 77, "velocity": 95, "duration": 110}, {"note": 0, "velocity": 0, "duration": 71}, {"note": 74, "velocity": 98, "duration": 81}, {"note": 0, "velocity": 0, "duration": 87}, {"note": 77, "velocity": 93, "duration": 96}, {"note": 0, "velocity": 0, "duration": 63}, {"note": 79, "velocity": 93, "duration": 569}, {"note": 0, "velocity": 0, "duration": 123}, {"note": 77, "velocity": 90, "duration": 168}, {"note": 0, "velocity": 0, "duration": 72}, {"note": 75, "velocity": 92, "duration": 188}, {"note": 74, "velocity": 92, "duration": 162}, {"note": 0, "velocity": 0, "duration": 78}, {"note": 75, "velocity": 87, "duration": 170}, {"note": 0, "velocity": 0, "duration": 70}, {"note": 70, "velocity": 91, "duration": 194}, {"note": 74, "velocity": 93, "duration": 395}, {"note": 0, "velocity": 0, "duration": 85}, {"note": 72, "velocity": 95, "duration": 205}, {"note": 69, "velocity": 88, "duration": 178}, {"note": 0, "velocity": 0, "duration": 62}, {"note": 70, "velocity": 93, "duration": 1200}, {"note": 0, "velocity": 0, "duration": 240}, {"note": 75, "velocity": 93, "duration": 176}, {"note": 0, "velocity": 0, "duration": 64}, {"note": 77, "velocity": 91, "duration": 162}, {"note": 0, "velocity": 0, "duration": 78}, {"note": 79, "velocity": 92, "duration": 165}, {"note": 0, "velocity": 0, "duration": 75}, {"note": 79, "velocity": 92, "duration": 156}, {"note": 0, "velocity": 0, "duration": 84}, {"note": 79, "velocity": 93, "duration": 148}, {"note": 0, "velocity": 0, "duration": 92}, {"note": 75, "velocity": 97, "duration": 76}, {"note": 74, "velocity": 93, "duration": 65}, {"note": 72, "velocity": 95, "duration": 473}, {"note": 0, "velocity": 0, "duration": 247}, {"note": 79, "velocity": 87, "duration": 196}, {"note": 77, "velocity": 92, "duration": 189}, {"note": 77, "velocity": 85, "duration": 66}, {"note": 77, "velocity": 83, "duration": 68}, {"note": 77, "velocity": 92, "duration": 176}, {"note": 0, "velocity": 0, "duration": 64}, {"note": 74, "velocity": 91, "duration": 75}, {"note": 72, "velocity": 87, "duration": 60}, {"note": 70, "velocity": 84, "duration": 451}, {"note": 0, "velocity": 0, "duration": 269}, {"note": 72, "velocity": 96, "duration": 65}, {"note": 74, "velocity": 96, "duration": 62}, {"note": 75, "velocity": 93, "duration": 161}, {"note": 0, "velocity": 0, "duration": 79}, {"note": 75, "velocity": 87, "duration": 76}, {"note": 75, "velocity": 87, "duration": 72}, {"note": 75, "velocity": 96, "duration": 184}, {"note": 74, "velocity": 97, "duration": 169}, {"note": 0, "velocity": 0, "duration": 71}, {"note": 72, "velocity": 90, "duration": 272}, {"note": 70, "velocity": 91, "duration": 369}, {"note": 0, "velocity": 0, "duration": 111}, {"note": 70, "velocity": 94, "duration": 127}, {"note": 72, "velocity": 92, "duration": 77}, {"note": 74, "velocity": 94, "duration": 92}, {"note": 0, "velocity": 0, "duration": 67}, {"note": 74, "velocity": 95, "duration": 80}, {"note": 74, "velocity": 92, "duration": 91}, {"note": 74, "velocity": 96, "duration": 116}, {"note": 74, "velocity": 93, "duration": 100}, {"note": 75, "velocity": 92, "duration": 108}, {"note": 77, "velocity": 92, "duration": 525}, {"note": 0, "velocity": 0, "duration": 199}, {"note": 75, "velocity": 92, "duration": 85}, {"note": 77, "velocity": 92, "duration": 72}, {"note": 79, "velocity": 86, "duration": 169}, {"note": 0, "velocity": 0, "duration": 71}, {"note": 79, "velocity": 92, "duration": 178}, {"note": 0, "velocity": 0, "duration": 62}, {"note": 79, "velocity": 91, "duration": 162}, {"note": 0, "velocity": 0, "duration": 78}, {"note": 75, "velocity": 95, "duration": 126}, {"note": 74, "velocity": 87, "duration": 83}, {"note": 72, "velocity": 91, "duration": 491}, {"note": 0, "velocity": 0, "duration": 229}, {"note": 79, "velocity": 91, "duration": 229}, {"note": 77, "velocity": 93, "duration": 159}, {"note": 0, "velocity": 0, "duration": 81}, {"note": 77, "velocity": 93, "duration": 163}, {"note": 0, "velocity": 0, "duration": 77}, {"note": 77, "velocity": 95, "duration": 110}, {"note": 0, "velocity": 0, "duration": 71}, {"note": 74, "velocity": 98, "duration": 81}, {"note": 0, "velocity": 0, "duration": 87}, {"note": 77, "velocity": 93, "duration": 96}, {"note": 0, "velocity": 0, "duration": 63}, {"note": 79, "velocity": 93, "duration": 569}, {"note": 0, "velocity": 0, "duration": 123}, {"note": 77, "velocity": 90, "duration": 168}, {"note": 0, "velocity": 0, "duration": 72}, {"note": 75, "velocity": 92, "duration": 188}, {"note": 74, "velocity": 92, "duration": 162}, {"note": 0, "velocity": 0, "duration": 78}, {"note": 75, "velocity": 87, "duration": 170}, {"note": 0, "velocity": 0, "duration": 70}, {"note": 70, "velocity": 91, "duration": 194}, {"note": 74, "velocity": 93, "duration": 395}, {"note": 0, "velocity": 0, "duration": 85}, {"note": 72, "velocity": 95, "duration": 205}, {"note": 69, "velocity": 88, "duration": 178}, {"note": 0, "velocity": 0, "duration": 62}, {"note": 70, "velocity": 93, "duration": 1200}, {"note": 0, "velocity": 0, "duration": 480}, {"note": 77, "velocity": 90, "duration": 168}, {"note": 0, "velocity": 0, "duration": 72}, {"note": 75, "velocity": 92, "duration": 188}, {"note": 74, "velocity": 92, "duration": 162}, {"note": 0, "velocity": 0, "duration": 78}, {"note": 75, "velocity": 87, "duration": 170}, {"note": 0, "velocity": 0, "duration": 70}, {"note": 70, "velocity": 91, "duration": 194}, {"note": 74, "velocity": 93, "duration": 240}, {"note": 72, "velocity": 87, "duration": 85}, {"note": 72, "velocity": 92, "duration": 1048}, {"note": 69, "velocity": 87, "duration": 416}, {"note": 70, "velocity": 91, "duration": 1680}, {"note": 65, "velocity": 91, "duration": 74}, {"note": 65, "velocity": 88, "duration": 104}, {"note": 74, "velocity": 95, "duration": 179}, {"note": 0, "velocity": 0, "duration": 61}, {"note": 74, "velocity": 97, "duration": 391}, {"note": 0, "velocity": 0, "duration": 89}, {"note": 74, "velocity": 92, "duration": 157}, {"note": 0, "velocity": 0, "duration": 83}, {"note": 74, "velocity": 92, "duration": 184}, {"note": 77, "velocity": 80, "duration": 201}, {"note": 77, "velocity": 91, "duration": 195}, {"note": 69, "velocity": 90, "duration": 185}, {"note": 70, "velocity": 87, "duration": 935}, {"note": 0, "velocity": 0, "duration": 745}, {"note": 67, "velocity": 91, "duration": 70}, {"note": 67, "velocity": 91, "duration": 99}, {"note": 75, "velocity": 89, "duration": 190}, {"note": 75, "velocity": 93, "duration": 364}, {"note": 0, "velocity": 0, "duration": 116}, {"note": 79, "velocity": 88, "duration": 158}, {"note": 0, "velocity": 0, "duration": 82}, {"note": 77, "velocity": 91, "duration": 187}, {"note": 0, "velocity": 0, "duration": 293}, {"note": 72, "velocity": 91, "duration": 120}, {"note": 72, "velocity": 91, "duration": 120}, {"note": 77, "velocity": 74, "duration": 202}, {"note": 74, "velocity": 98, "duration": 949}, {"note": 0, "velocity": 0, "duration": 731}, {"note": 74, "velocity": 96, "duration": 60}, {"note": 74, "velocity": 95, "duration": 82}, {"note": 79, "velocity": 92, "duration": 172}, {"note": 0, "velocity": 0, "duration": 68}, {"note": 79, "velocity": 91, "duration": 397}, {"note": 0, "velocity": 0, "duration": 83}, {"note": 77, "velocity": 90, "duration": 182}, {"note": 79, "velocity": 90, "duration": 451}, {"note": 77, "velocity": 80, "duration": 205}, {"note": 74, "velocity": 93, "duration": 157}, {"note": 0, "velocity": 0, "duration": 83}, {"note": 77, "velocity": 89, "duration": 164}, {"note": 0, "velocity": 0, "duration": 76}, {"note": 75, "velocity": 92, "duration": 184}, {"note": 75, "velocity": 93, "duration": 171}, {"note": 0, "velocity": 0, "duration": 69}, {"note": 74, "velocity": 93, "duration": 167}, {"note": 0, "velocity": 0, "duration": 73}, {"note": 67, "velocity": 82, "duration": 495}, {"note": 0, "velocity": 0, "duration": 225}, {"note": 67, "velocity": 91, "duration": 70}, {"note": 67, "velocity": 83, "duration": 100}, {"note": 75, "velocity": 91, "duration": 480}, {"note": 75, "velocity": 92, "duration": 181}, {"note": 77, "velocity": 92, "duration": 195}, {"note": 74, "velocity": 95, "duration": 241}, {"note": 72, "velocity": 85, "duration": 520}, {"note": 69, "velocity": 87, "duration": 177}, {"note": 70, "velocity": 91, "duration": 1717}]]