[[{"note": 74, "velocity": 93, "duration": 187}, {"note": 74, "velocity": 99, "duration": 175}, {"note": 0, "velocity": 0, "duration": 65}, {"note": 76, "velocity": 89, "duration": 99}, {"note": 74, "velocity": 91, "duration": 80}, {"note": 76, "velocity": 93, "duration": 237}, {"note": 74, "velocity": 89, "duration": 1724}, {"note": 0, "velocity": 0, "duration": 196}, {"note": 69, "velocity": 86, "duration": 166}, {"note": 0, "velocity": 0, "duration": 74}, {"note": 71, "velocity": 86, "duration": 174}, {"note": 0, "velocity": 0, "duration": 66}, {"note": 71, "velocity": 86, "duration": 108}, {"note": 66, "velocity": 82, "duration": 121}, {"note": 64, "velocity": 84, "duration": 135}, {"note": 66, "velocity": 71, "duration": 134}, {"note": 62, "velocity": 83, "duration": 1086}, {"note": 0, "velocity": 0, "duration": 1074}, {"note": 59, "velocity": 84, "duration": 207}, {"note": 62, "velocity": 87, "duration": 207}, {"note": 64, "velocity": 83, "duration": 188}, {"note": 67, "velocity": 83, "duration": 299}, {"note": 0, "velocity": 0, "duration": 61}, {"note": 69, "velocity": 83, "duration": 105}, {"note": 71, "velocity": 86, "duration": 106}, {"note": 74, "velocity": 93, "duration": 97}, {"note": 69, "velocity": 87, "duration": 197}, {"note": 64, "velocity": 88, "duration": 256}, {"note": 69, "velocity": 87, "duration": 258}, {"note": 67, "velocity": 77, "duration": 131}, {"note": 69, "velocity": 84, "duration": 111}, {"note": 64, "velocity": 81, "duration": 240}, {"note": 62, "velocity": 80, "duration": 859}, {"note": 0, "velocity": 0, "duration": 101}, {"note": 62, "velocity": 85, "duration": 216}, {"note": 74, "velocity": 98, "duration": 60}, {"note": 74, "velocity": 89, "duration": 62}, {"note": 74, "velocity": 88, "duration": 88}, {"note": 71, "velocity": 82, "duration": 71}, {"note": 69, "velocity": 86, "duration": 80}, {"note": 71, "velocity": 82, "duration": 68}, {"note": 67, "velocity": 79, "duration": 241}, {"note": 66, "velocity": 81, "duration": 192}, {"note": 64, "velocity": 84, "duration": 106}, {"note": 66, "velocity": 82, "duration": 87}, {"note": 62, "velocity": 84, "duration": 187}, {"note": 62, "velocity": 83, "duration": 1758}, {"note": 0, "velocity": 0, "duration": 162}, {"note": 62, "velocity": 87, "duration": 209}, {"note": 74, "velocity": 93, "duration": 164}, {"note": 0, "velocity": 0, "duration": 76}, {"note": 74, "velocity": 89, "duration": 81}, {"note": 71, "velocity": 73, "duration": 86}, {"note": 69, "velocity": 84, "duration": 215}, {"note": 67, "velocity": 82, "duration": 714}, {"note": 64, "velocity": 89, "duration": 71}, {"note": 67, "velocity": 83, "duration": 91}, {"note": 69, "velocity": 84, "duration": 299}, {"note": 0, "velocity": 0, "duration": 61}, {"note": 69, "velocity": 82, "duration": 83}, {"note": 71, "velocity": 84, "duration": 86}, {"note": 66, "velocity": 80, "duration": 74}, {"note": 64, "velocity": 86, "duration": 91}, {"note": 66, "velocity": 82, "duration": 109}, {"note": 62, "velocity": 83, "duration": 762}, {"note": 0, "velocity": 0, "duration": 198}, {"note": 64, "velocity": 87, "duration": 204}, {"note": 67, "velocity": 82, "duration": 441}, {"note": 69, "velocity": 83, "duration": 169}, {"note": 0, "velocity": 0, "duration": 71}, {"note": 71, "velocity": 83, "duration": 210}, {"note": 74, "velocity": 87, "duration": 413}, {"note": 0, "velocity": 0, "duration": 67}, {"note": 71, "velocity": 87, "duration": 204}, {"note": 76, "velocity": 84, "duration": 65}, {"note": 76, "velocity": 84, "duration": 172}, {"note": 0, "velocity": 0, "duration": 68}, {"note": 76, "velocity": 86, "duration": 78}, {"note": 74, "velocity": 87, "duration": 70}, {"note": 76, "velocity": 86, "duration": 69}, {"note": 71, "velocity": 85, "duration": 64}, {"note": 71, "velocity": 83, "duration": 69}, {"note": 69, "velocity": 81, "duration": 346}, {"note": 64, "velocity": 89, "duration": 83}, {"note": 67, "velocity": 74, "duration": 68}, {"note": 69, "velocity": 80, "duration": 71}, {"note": 71, "velocity": 83, "duration": 189}, {"note": 69, "velocity": 82, "duration": 1080}, {"note": 0, "velocity": 0, "duration": 2760}, {"note": 62, "velocity": 87, "duration": 209}, {"note": 74, "velocity": 93, "duration": 164}, {"note": 0, "velocity": 0, "duration": 76}, {"note": 74, "velocity": 89, "duration": 81}, {"note": 71, "velocity": 73, "duration": 86}, {"note": 69, "velocity": 84, "duration": 215}, {"note": 67, "velocity": 82, "duration": 714}, {"note": 64, "velocity": 89, "duration": 71}, {"note": 67, "velocity": 83, "duration": 91}, {"note": 69, "velocity": 84, "duration": 299}, {"note": 0, "velocity": 0, "duration": 61}, {"note": 69, "velocity": 82, "duration": 83}, {"note": 71, "velocity": 84, "duration": 86}, {"note": 66, "velocity": 80, "duration": 74}, {"note": 64, "velocity": 86, "duration": 91}, {"note": 66, "velocity": 82, "duration": 109}, {"note": 62, "velocity": 83, "duration": 762}, {"note": 0, "velocity": 0, "duration": 198}, {"note": 64, "velocity": 87, "duration": 204}, {"note": 67, "velocity": 82, "duration": 441}, {"note": 69, "velocity": 83, "duration": 169}, {"note": 0, "velocity": 0, "duration": 71}, {"note": 71, "velocity": 83, "duration": 210}, {"note": 74, "velocity": 87, "duration": 413}, {"note": 0, "velocity": 0, "duration": 67}, {"note": 71, "velocity": 87, "duration": 204}, {"note": 76, "velocity": 84, "duration": 65}, {"note": 76, "velocity": 84, "duration": 172}, {"note": 0, "velocity": 0, "duration": 68}, {"note": 76, "velocity": 86, "duration": 78}, {"note": 74, "velocity": 87, "duration": 70}, {"note": 76, "velocity": 86, "duration": 69}, {"note": 71, "velocity": 85, "duration": 64}, {"note": 71, "velocity": 83, "duration": 69}, {"note": 69, "velocity": 81, "duration": 346}, {"note": 64, "velocity": 89, "duration": 83}, {"note": 67, "velocity": 74, "duration": 68}, {"note": 69, "velocity": 80, "duration": 71}, {"note": 71, "velocity": 83, "duration": 189}, {"note": 69, "velocity": 82, "duration": 1080}, {"note": 0, "velocity": 0, "duration": 840}, {"note": 71, "velocity": 91, "duration": 285}, {"note": 0, "velocity": 0, "duration": 75}, {"note": 74, "velocity": 87, "duration": 73}, {"note": 74, "velocity": 87, "duration": 154}, {"note": 0, "velocity": 0, "duration": 86}, {"note": 66, "velocity": 83, "duration": 174}, {"note": 0, "velocity": 0, "duration": 66}, {"note": 64, "velocity": 89, "duration": 198}, {"note": 66, "velocity": 88, "duration": 106}, {"note": 64, "velocity": 84, "duration": 115}, {"note": 62, "velocity": 84, "duration": 374}, {"note": 0, "velocity": 0, "duration": 106}, {"note": 62, "velocity": 84, "duration": 298}, {"note": 0, "velocity": 0, "duration": 62}, {"note": 64, "velocity": 85, "duration": 92}, {"note": 66, "velocity": 83, "duration": 166}, {"note": 0, "velocity": 0, "duration": 74}, {"note": 71, "velocity": 83, "duration": 86}, {"note": 74, "velocity": 89, "duration": 88}, {"note": 69, "velocity": 84, "duration": 557}, {"note": 0, "velocity": 0, "duration": 403}, {"note": 71, "velocity": 86, "duration": 310}, {"note": 74, "velocity": 91, "duration": 68}, {"note": 74, "velocity": 96, "duration": 171}, {"note": 0, "velocity": 0, "duration": 69}, {"note": 66, "velocity": 82, "duration": 197}, {"note": 64, "velocity": 88, "duration": 194}, {"note": 66, "velocity": 83, "duration": 123}, {"note": 64, "velocity": 84, "duration": 107}, {"note": 62, "velocity": 83, "duration": 246}, {"note": 0, "velocity": 0, "duration": 234}, {"note": 66, "velocity": 83, "duration": 303}, {"note": 66, "velocity": 76, "duration": 76}, {"note": 66, "velocity": 84, "duration": 226}, {"note": 64, "velocity": 83, "duration": 242}, {"note": 62, "velocity": 84, "duration": 847}, {"note": 0, "velocity": 0, "duration": 113}, {"note": 74, "velocity": 89, "duration": 720}, {"note": 76, "velocity": 86, "duration": 184}, {"note": 76, "velocity": 84, "duration": 200}, {"note": 67, "velocity": 84, "duration": 411}, {"note": 0, "velocity": 0, "duration": 69}, {"note": 64, "velocity": 91, "duration": 153}, {"note": 0, "velocity": 0, "duration": 87}, {"note": 64, "velocity": 93, "duration": 191}, {"note": 71, "velocity": 86, "duration": 177}, {"note": 0, "velocity": 0, "duration": 63}, {"note": 74, "velocity": 86, "duration": 76}, {"note": 76, "velocity": 91, "duration": 91}, {"note": 71, "velocity": 86, "duration": 242}, {"note": 69, "velocity": 85, "duration": 840}, {"note": 0, "velocity": 0, "duration": 120}, {"note": 74, "velocity": 91, "duration": 663}, {"note": 76, "velocity": 84, "duration": 176}, {"note": 0, "velocity": 0, "duration": 64}, {"note": 76, "velocity": 88, "duration": 191}, {"note": 67, "velocity": 82, "duration": 542}, {"note": 0, "velocity": 0, "duration": 178}, {"note": 64, "velocity": 89, "duration": 222}, {"note": 76, "velocity": 91, "duration": 162}, {"note": 0, "velocity": 0, "duration": 78}, {"note": 76, "velocity": 84, "duration": 103}, {"note": 74, "velocity": 84, "duration": 88}, {"note": 76, "velocity": 86, "duration": 196}, {"note": 74, "velocity": 87, "duration": 905}, {"note": 0, "velocity": 0, "duration": 295}, {"note": 76, "velocity": 86, "duration": 199}, {"note": 76, "velocity": 86, "duration": 235}, {"note": 74, "velocity": 91, "duration": 118}, {"note": 76, "velocity": 85, "duration": 103}, {"note": 67, "velocity": 84, "duration": 435}, {"note": 0, "velocity": 0, "duration": 285}, {"note": 64, "velocity": 91, "duration": 68}, {"note": 67, "velocity": 82, "duration": 71}, {"note": 69, "velocity": 83, "duration": 290}, {"note": 0, "velocity": 0, "duration": 70}, {"note": 71, "velocity": 80, "duration": 86}, {"note": 66, "velocity": 82, "duration": 103}, {"note": 69, "velocity": 80, "duration": 79}, {"note": 64, "velocity": 81, "duration": 171}, {"note": 0, "velocity": 0, "duration": 69}, {"note": 64, "velocity": 86, "duration": 623}, {"note": 0, "velocity": 0, "duration": 577}, {"note": 59, "velocity": 83, "duration": 200}, {"note": 62, "velocity": 83, "duration": 207}, {"note": 64, "velocity": 83, "duration": 70}, {"note": 64, "velocity": 83, "duration": 89}, {"note": 67, "velocity": 83, "duration": 282}, {"note": 0, "velocity": 0, "duration": 78}, {"note": 69, "velocity": 83, "duration": 65}, {"note": 71, "velocity": 83, "duration": 176}, {"note": 0, "velocity": 0, "duration": 64}, {"note": 74, "velocity": 86, "duration": 67}, {"note": 74, "velocity": 83, "duration": 50}, {"note": 0, "velocity": 0, "duration": 70}, {"note": 74, "velocity": 87, "duration": 159}, {"note": 0, "velocity": 0, "duration": 81}, {"note": 64, "velocity": 83, "duration": 120}, {"note": 66, "velocity": 83, "duration": 123}, {"note": 62, "velocity": 84, "duration": 932}, {"note": 0, "velocity": 0, "duration": 748}, {"note": 59, "velocity": 84, "duration": 215}, {"note": 62, "velocity": 82, "duration": 229}, {"note": 64, "velocity": 82, "duration": 256}, {"note": 67, "velocity": 82, "duration": 340}, {"note": 69, "velocity": 81, "duration": 143}, {"note": 71, "velocity": 86, "duration": 255}, {"note": 78, "velocity": 84, "duration": 132}, {"note": 76, "velocity": 81, "duration": 121}, {"note": 74, "velocity": 86, "duration": 653}, {"note": 0, "velocity": 0, "duration": 67}, {"note": 71, "velocity": 86, "duration": 188}, {"note": 69, "velocity": 86, "duration": 251}, {"note": 0, "velocity": 0, "duration": 109}, {"note": 71, "velocity": 86, "duration": 83}, {"note": 74, "velocity": 88, "duration": 78}, {"note": 67, "velocity": 80, "duration": 93}, {"note": 64, "velocity": 88, "duration": 75}, {"note": 67, "velocity": 82, "duration": 75}, {"note": 69, "velocity": 83, "duration": 576}, {"note": 0, "velocity": 0, "duration": 144}, {"note": 71, "velocity": 83, "duration": 84}, {"note": 74, "velocity": 88, "duration": 66}, {"note": 62, "velocity": 84, "duration": 269}, {"note": 0, "velocity": 0, "duration": 91}, {"note": 64, "velocity": 83, "duration": 78}, {"note": 66, "velocity": 82, "duration": 158}, {"note": 0, "velocity": 0, "duration": 82}, {"note": 71, "velocity": 82, "duration": 91}, {"note": 74, "velocity": 89, "duration": 75}, {"note": 69, "velocity": 83, "duration": 194}, {"note": 66, "velocity": 83, "duration": 206}, {"note": 64, "velocity": 83, "duration": 116}, {"note": 66, "velocity": 83, "duration": 127}, {"note": 62, "velocity": 83, "duration": 191}, {"note": 62, "velocity": 82, "duration": 720}, {"note": 64, "velocity": 83, "duration": 242}, {"note": 62, "velocity": 82, "duration": 850}, {"note": 0, "velocity": 0, "duration": 110}, {"note": 74, "velocity": 93, "duration": 187}, {"note": 74, "velocity": 99, "duration": 175}, {"note": 0, "velocity": 0, "duration": 65}, {"note": 76, "velocity": 89, "duration": 99}, {"note": 74, "velocity": 91, "duration": 80}, {"note": 76, "velocity": 93, "duration": 237}, {"note": 74, "velocity": 89, "duration": 1724}, {"note": 0, "velocity": 0, "duration": 196}, {"note": 69, "velocity": 86, "duration": 166}, {"note": 0, "velocity": 0, "duration": 74}, {"note": 71, "velocity": 86, "duration": 174}, {"note": 0, "velocity": 0, "duration": 66}, {"note": 71, "velocity": 86, "duration": 108}, {"note": 66, "velocity": 82, "duration": 121}, {"note": 64, "velocity": 84, "duration": 135}, {"note": 66, "velocity": 71, "duration": 134}, {"note": 62, "velocity": 83, "duration": 1086}, {"note": 0, "velocity": 0, "duration": 1074}, {"note": 59, "velocity": 84, "duration": 207}, {"note": 62, "velocity": 87, "duration": 207}, {"note": 64, "velocity": 83, "duration": 188}, {"note": 67, "velocity": 83, "duration": 299}, {"note": 0, "velocity": 0, "duration": 61}, {"note": 69, "velocity": 83, "duration": 105}, {"note": 71, "velocity": 86, "duration": 106}, {"note": 74, "velocity": 93, "duration": 97}, {"note": 69, "velocity": 87, "duration": 197}, {"note": 69, "velocity": 97, "duration": 1732}, {"note": 0, "velocity": 0, "duration": 178}, {"note": 62, "velocity": 85, "duration": 216}, {"note": 74, "velocity": 98, "duration": 60}, {"note": 74, "velocity": 89, "duration": 62}, {"note": 74, "velocity": 88, "duration": 88}, {"note": 71, "velocity": 82, "duration": 71}, {"note": 69, "velocity": 86, "duration": 80}, {"note": 71, "velocity": 82, "duration": 68}, {"note": 67, "velocity": 79, "duration": 241}, {"note": 66, "velocity": 81, "duration": 192}, {"note": 64, "velocity": 84, "duration": 106}, {"note": 66, "velocity": 82, "duration": 87}, {"note": 62, "velocity": 84, "duration": 187}, {"note": 62, "velocity": 83, "duration": 1758}, {"note": 0, "velocity": 0, "duration": 162}, {"note": 62, "velocity": 87, "duration": 209}, {"note": 74, "velocity": 93, "duration": 164}, {"note": 0, "velocity": 0, "duration": 76}, {"note": 74, "velocity": 89, "duration": 81}, {"note": 71, "velocity": 73, "duration": 86}, {"note": 69, "velocity": 84, "duration": 215}, {"note": 67, "velocity": 82, "duration": 714}, {"note": 64, "velocity": 89, "duration": 71}, {"note": 67, "velocity": 83, "duration": 91}, {"note": 69, "velocity": 84, "duration": 299}, {"note": 0, "velocity": 0, "duration": 61}, {"note": 69, "velocity": 82, "duration": 83}, {"note": 71, "velocity": 84, "duration": 86}, {"note": 66, "velocity": 80, "duration": 74}, {"note": 64, "velocity": 86, "duration": 91}, {"note": 66, "velocity": 82, "duration": 109}, {"note": 62, "velocity": 83, "duration": 762}, {"note": 0, "velocity": 0, "duration": 198}, {"note": 64, "velocity": 87, "duration": 204}, {"note": 67, "velocity": 82, "duration": 441}, {"note": 69, "velocity": 83, "duration": 169}, {"note": 0, "velocity": 0, "duration": 71}, {"note": 71, "velocity": 83, "duration": 210}, {"note": 74, "velocity": 87, "duration": 413}, {"note": 0, "velocity": 0, "duration": 67}, {"note": 71, "velocity": 87, "duration": 204}, {"note": 76, "velocity": 84, "duration": 65}, {"note": 76, "velocity": 84, "duration": 172}, {"note": 0, "velocity": 0, "duration": 68}, {"note": 76, "velocity": 86, "duration": 78}, {"note": 74, "velocity": 87, "duration": 70}, {"note": 76, "velocity": 86, "duration": 69}, {"note": 71, "velocity": 85, "duration": 64}, {"note": 71, "velocity": 83, "duration": 69}, {"note": 69, "velocity": 81, "duration": 346}, {"note": 64, "velocity": 89, "duration": 83}, {"note": 67, "velocity": 74, "duration": 68}, {"note": 69, "velocity": 80, "duration": 71}, {"note": 71, "velocity": 83, "duration": 189}, {"note": 69, "velocity": 82, "duration": 1080}, {"note": 0, "velocity": 0, "duration": 2760}, {"note": 62, "velocity": 87, "duration": 209}, {"note": 74, "velocity": 93, "duration": 164}, {"note": 0, "velocity": 0, "duration": 76}, {"note": 74, "velocity": 89, "duration": 81}, {"note": 71, "velocity": 73, "duration": 86}, {"note": 69, "velocity": 84, "duration": 215}, {"note": 67, "velocity": 82, "duration": 714}, {"note": 64, "velocity": 89, "duration": 71}, {"note": 67, "velocity": 83, "duration": 91}, {"note": 69, "velocity": 84, "duration": 299}, {"note": 0, "velocity": 0, "duration": 61}, {"note": 69, "velocity": 82, "duration": 83}, {"note": 71, "velocity": 84, "duration": 86}, {"note": 66, "velocity": 80, "duration": 74}, {"note": 64, "velocity": 86, "duration": 91}, {"note": 66, "velocity": 82, "duration": 109}, {"note": 62, "velocity": 83, "duration": 762}, {"note": 0, "velocity": 0, "duration": 198}, {"note": 64, "velocity": 87, "duration": 204}, {"note": 67, "velocity": 82, "duration": 441}, {"note": 69, "velocity": 83, "duration": 169}, {"note": 0, "velocity": 0, "duration": 71}, {"note": 71, "velocity": 83, "duration": 210}, {"note": 74, "velocity": 87, "duration": 413}, {"note": 0, "velocity": 0, "duration": 67}, {"note": 71, "velocity": 87, "duration": 204}, {"note": 76, "velocity": 84, "duration": 65}, {"note": 76, "velocity": 84, "duration": 172}, {"note": 0, "velocity": 0, "duration": 68}, {"note": 76, "velocity": 86, "duration": 78}, {"note": 74, "velocity": 87, "duration": 70}, {"note": 76, "velocity": 86, "duration": 69}, {"note": 71, "velocity": 85, "duration": 64}, {"note": 71, "velocity": 83, "duration": 69}, {"note": 69, "velocity": 81, "duration": 346}, {"note": 64, "velocity": 89, "duration": 83}, {"note": 67, "velocity": 74, "duration": 68}, {"note": 69, "velocity": 80, "duration": 71}, {"note": 71, "velocity": 83, "duration": 189}, {"note": 69, "velocity": 82, "duration": 1080}, {"note": 0, "velocity": 0, "duration": 840}, {"note": 71, "velocity": 91, "duration": 285}, {"note": 0, "velocity": 0, "duration": 75}, {"note": 74, "velocity": 87, "duration": 73}, {"note": 74, "velocity": 87, "duration": 154}, {"note": 0, "velocity": 0, "duration": 86}, {"note": 66, "velocity": 83, "duration": 174}, {"note": 0, "velocity": 0, "duration": 66}, {"note": 64, "velocity": 89, "duration": 198}, {"note": 66, "velocity": 88, "duration": 106}, {"note": 64, "velocity": 84, "duration": 115}, {"note": 62, "velocity": 84, "duration": 374}, {"note": 0, "velocity": 0, "duration": 106}, {"note": 62, "velocity": 84, "duration": 298}, {"note": 0, "velocity": 0, "duration": 62}, {"note": 64, "velocity": 85, "duration": 92}, {"note": 66, "velocity": 83, "duration": 166}, {"note": 0, "velocity": 0, "duration": 74}, {"note": 71, "velocity": 83, "duration": 86}, {"note": 74, "velocity": 89, "duration": 88}, {"note": 69, "velocity": 84, "duration": 557}, {"note": 0, "velocity": 0, "duration": 403}, {"note": 71, "velocity": 86, "duration": 310}, {"note": 74, "velocity": 91, "duration": 68}, {"note": 74, "velocity": 96, "duration": 171}, {"note": 0, "velocity": 0, "duration": 69}, {"note": 66, "velocity": 82, "duration": 197}, {"note": 64, "velocity": 88, "duration": 194}, {"note": 66, "velocity": 83, "duration": 123}, {"note": 64, "velocity": 84, "duration": 107}, {"note": 62, "velocity": 83, "duration": 246}, {"note": 0, "velocity": 0, "duration": 234}, {"note": 66, "velocity": 83, "duration": 303}, {"note": 66, "velocity": 76, "duration": 76}, {"note": 66, "velocity": 84, "duration": 226}, {"note": 64, "velocity": 83, "duration": 242}, {"note": 62, "velocity": 84, "duration": 847}, {"note": 0, "velocity": 0, "duration": 113}, {"note": 74, "velocity": 89, "duration": 720}, {"note": 76, "velocity": 86, "duration": 184}, {"note": 76, "velocity": 84, "duration": 200}, {"note": 67, "velocity": 84, "duration": 411}, {"note": 0, "velocity": 0, "duration": 69}, {"note": 64, "velocity": 91, "duration": 153}, {"note": 0, "velocity": 0, "duration": 87}, {"note": 64, "velocity": 93, "duration": 191}, {"note": 71, "velocity": 86, "duration": 177}, {"note": 0, "velocity": 0, "duration": 63}, {"note": 74, "velocity": 86, "duration": 76}, {"note": 76, "velocity": 91, "duration": 91}, {"note": 71, "velocity": 86, "duration": 242}, {"note": 69, "velocity": 85, "duration": 840}, {"note": 0, "velocity": 0, "duration": 120}, {"note": 74, "velocity": 91, "duration": 663}, {"note": 76, "velocity": 84, "duration": 176}, {"note": 0, "velocity": 0, "duration": 64}, {"note": 76, "velocity": 88, "duration": 191}, {"note": 67, "velocity": 82, "duration": 542}, {"note": 0, "velocity": 0, "duration": 178}, {"note": 64, "velocity": 89, "duration": 222}, {"note": 76, "velocity": 91, "duration": 162}, {"note": 0, "velocity": 0, "duration": 78}, {"note": 76, "velocity": 84, "duration": 103}, {"note": 74, "velocity": 84, "duration": 88}, {"note": 76, "velocity": 86, "duration": 196}, {"note": 74, "velocity": 87, "duration": 905}, {"note": 0, "velocity": 0, "duration": 295}, {"note": 76, "velocity": 86, "duration": 199}, {"note": 76, "velocity": 86, "duration": 235}, {"note": 74, "velocity": 91, "duration": 118}, {"note": 76, "velocity": 85, "duration": 103}, {"note": 67, "velocity": 84, "duration": 435}, {"note": 0, "velocity": 0, "duration": 285}, {"note": 64, "velocity": 91, "duration": 68}, {"note": 67, "velocity": 82, "duration": 71}, {"note": 69, "velocity": 83, "duration": 290}, {"note": 0, "velocity": 0, "duration": 70}, {"note": 71, "velocity": 80, "duration": 86}, {"note": 66, "velocity": 82, "duration": 103}, {"note": 69, "velocity": 80, "duration": 79}, {"note": 64, "velocity": 81, "duration": 171}, {"note": 0, "velocity": 0, "duration": 69}, {"note": 64, "velocity": 86, "duration": 623}, {"note": 0, "velocity": 0, "duration": 577}, {"note": 59, "velocity": 83, "duration": 200}, {"note": 62, "velocity": 83, "duration": 207}, {"note": 64, "velocity": 83, "duration": 70}, {"note": 64, "velocity": 83, "duration": 89}, {"note": 67, "velocity": 83, "duration": 282}, {"note": 0, "velocity": 0, "duration": 78}, {"note": 69, "velocity": 83, "duration": 65}, {"note": 71, "velocity": 83, "duration": 176}, {"note": 0, "velocity": 0, "duration": 64}, {"note": 74, "velocity": 86, "duration": 67}, {"note": 74, "velocity": 83, "duration": 50}, {"note": 0, "velocity": 0, "duration": 70}, {"note": 74, "velocity": 87, "duration": 159}, {"note": 0, "velocity": 0, "duration": 82}, {"note": 64, "velocity": 85, "duration": 120}, {"note": 66, "velocity": 83, "duration": 120}, {"note": 62, "velocity": 84, "duration": 932}, {"note": 0, "velocity": 0, "duration": 748}, {"note": 59, "velocity": 84, "duration": 215}, {"note": 62, "velocity": 82, "duration": 229}, {"note": 64, "velocity": 82, "duration": 256}, {"note": 67, "velocity": 82, "duration": 340}, {"note": 69, "velocity": 81, "duration": 143}, {"note": 71, "velocity": 86, "duration": 255}, {"note": 78, "velocity": 84, "duration": 132}, {"note": 76, "velocity": 81, "duration": 121}, {"note": 74, "velocity": 86, "duration": 653}, {"note": 0, "velocity": 0, "duration": 67}, {"note": 71, "velocity": 86, "duration": 188}, {"note": 69, "velocity": 86, "duration": 251}, {"note": 0, "velocity": 0, "duration": 109}, {"note": 71, "velocity": 86, "duration": 83}, {"note": 74, "velocity": 88, "duration": 78}, {"note": 67, "velocity": 80, "duration": 93}, {"note": 64, "velocity": 88, "duration": 75}, {"note": 67, "velocity": 82, "duration": 75}, {"note": 69, "velocity": 83, "duration": 576}, {"note": 0, "velocity": 0, "duration": 144}, {"note": 71, "velocity": 83, "duration": 84}, {"note": 74, "velocity": 88, "duration": 66}, {"note": 62, "velocity": 84, "duration": 269}, {"note": 0, "velocity": 0, "duration": 91}, {"note": 64, "velocity": 83, "duration": 78}, {"note": 66, "velocity": 82, "duration": 158}, {"note": 0, "velocity": 0, "duration": 82}, {"note": 71, "velocity": 82, "duration": 91}, {"note": 74, "velocity": 89, "duration": 75}, {"note": 69, "velocity": 83, "duration": 194}, {"note": 66, "velocity": 83, "duration": 206}, {"note": 64, "velocity": 83, "duration": 116}, {"note": 66, "velocity": 83, "duration": 127}, {"note": 62, "velocity": 83, "duration": 191}, {"note": 62, "velocity": 82, "duration": 720}, {"note": 64, "velocity": 83, "duration": 242}, {"note": 62, "velocity": 82, "duration": 850}, {"note": 0, "velocity": 0, "duration": 110}, {"note": 74, "velocity": 93, "duration": 187}, {"note": 74, "velocity": 99, "duration": 175}, {"note": 0, "velocity": 0, "duration": 65}, {"note": 76, "velocity": 89, "duration": 99}, {"note": 74, "velocity": 91, "duration": 80}, {"note": 76, "velocity": 93, "duration": 237}, {"note": 74, "velocity": 89, "duration": 1724}, {"note": 0, "velocity": 0, "duration": 196}, {"note": 69, "velocity": 86, "duration": 166}, {"note": 0, "velocity": 0, "duration": 74}, {"note": 71, "velocity": 86, "duration": 174}, {"note": 0, "velocity": 0, "duration": 66}, {"note": 71, "velocity": 86, "duration": 108}, {"note": 66, "velocity": 82, "duration": 121}, {"note": 64, "velocity": 84, "duration": 135}, {"note": 66, "velocity": 71, "duration": 134}, {"note": 62, "velocity": 83, "duration": 1086}, {"note": 0, "velocity": 0, "duration": 834}, {"note": 74, "velocity": 93, "duration": 187}, {"note": 74, "velocity": 99, "duration": 175}, {"note": 0, "velocity": 0, "duration": 65}, {"note": 76, "velocity": 89, "duration": 99}, {"note": 74, "velocity": 91, "duration": 80}, {"note": 76, "velocity": 93, "duration": 237}, {"note": 74, "velocity": 89, "duration": 1724}, {"note": 0, "velocity": 0, "duration": 424}, {"note": 74, "velocity": 86, "duration": 73}, {"note": 74, "velocity": 88, "duration": 69}, {"note": 74, "velocity": 88, "duration": 117}, {"note": 71, "velocity": 79, "duration": 86}, {"note": 69, "velocity": 83, "duration": 76}, {"note": 71, "velocity": 82, "duration": 81}, {"note": 67, "velocity": 75, "duration": 271}, {"note": 0, "velocity": 0, "duration": 213}, {"note": 64, "velocity": 83, "duration": 118}, {"note": 66, "velocity": 70, "duration": 94}, {"note": 62, "velocity": 83, "duration": 196}, {"note": 62, "velocity": 85, "duration": 998}, {"note": 0, "velocity": 0, "duration": 994}, {"note": 78, "velocity": 88, "duration": 917}, {"note": 76, "velocity": 89, "duration": 341}, {"note": 78, "velocity": 91, "duration": 484}, {"note": 71, "velocity": 87, "duration": 600}, {"note": 74, "velocity": 93, "duration": 187}, {"note": 74, "velocity": 99, "duration": 175}, {"note": 0, "velocity": 0, "duration": 65}, {"note": 76, "velocity": 89, "duration": 99}, {"note": 74, "velocity": 91, "duration": 80}, {"note": 76, "velocity": 93, "duration": 237}, {"note": 74, "velocity": 89, "duration": 1724}, {"note": 0, "velocity": 0, "duration": 196}, {"note": 69, "velocity": 86, "duration": 166}, {"note": 0, "velocity": 0, "duration": 74}, {"note": 71, "velocity": 86, "duration": 174}, {"note": 0, "velocity": 0, "duration": 66}, {"note": 71, "velocity": 86, "duration": 108}, {"note": 66, "velocity": 82, "duration": 121}, {"note": 64, "velocity": 84, "duration": 135}, {"note": 66, "velocity": 71, "duration": 134}, {"note": 62, "velocity": 83, "duration": 1086}, {"note": 0, "velocity": 0, "duration": 834}, {"note": 74, "velocity": 93, "duration": 187}, {"note": 74, "velocity": 99, "duration": 175}, {"note": 0, "velocity": 0, "duration": 65}, {"note": 76, "velocity": 89, "duration": 99}, {"note": 74, "velocity": 91, "duration": 80}, {"note": 76, "velocity": 93, "duration": 237}, {"note": 74, "velocity": 89, "duration": 1724}]]