[[{"note": 59, "velocity": 95, "duration": 128}, {"note": 61, "velocity": 93, "duration": 122}, {"note": 64, "velocity": 91, "duration": 111}, {"note": 68, "velocity": 89, "duration": 89}, {"note": 0, "velocity": 0, "duration": 71}, {"note": 68, "velocity": 91, "duration": 108}, {"note": 68, "velocity": 91, "duration": 98}, {"note": 0, "velocity": 0, "duration": 62}, {"note": 68, "velocity": 93, "duration": 109}, {"note": 68, "velocity": 92, "duration": 119}, {"note": 66, "velocity": 84, "duration": 133}, {"note": 64, "velocity": 93, "duration": 332}, {"note": 0, "velocity": 0, "duration": 148}, {"note": 59, "velocity": 95, "duration": 128}, {"note": 61, "velocity": 93, "duration": 122}, {"note": 64, "velocity": 91, "duration": 111}, {"note": 68, "velocity": 89, "duration": 89}, {"note": 0, "velocity": 0, "duration": 71}, {"note": 68, "velocity": 91, "duration": 108}, {"note": 68, "velocity": 91, "duration": 98}, {"note": 0, "velocity": 0, "duration": 62}, {"note": 68, "velocity": 93, "duration": 109}, {"note": 68, "velocity": 92, "duration": 119}, {"note": 66, "velocity": 84, "duration": 133}, {"note": 64, "velocity": 93, "duration": 332}, {"note": 0, "velocity": 0, "duration": 148}, {"note": 68, "velocity": 95, "duration": 146}, {"note": 66, "velocity": 92, "duration": 129}, {"note": 64, "velocity": 94, "duration": 104}, {"note": 64, "velocity": 96, "duration": 111}, {"note": 64, "velocity": 93, "duration": 48}, {"note": 61, "velocity": 91, "duration": 54}, {"note": 64, "velocity": 95, "duration": 458}, {"note": 64, "velocity": 93, "duration": 56}, {"note": 61, "velocity": 86, "duration": 61}, {"note": 64, "velocity": 92, "duration": 401}, {"note": 0, "velocity": 0, "duration": 79}, {"note": 64, "velocity": 97, "duration": 114}, {"note": 64, "velocity": 97, "duration": 111}, {"note": 64, "velocity": 93, "duration": 49}, {"note": 61, "velocity": 92, "duration": 66}, {"note": 66, "velocity": 94, "duration": 88}, {"note": 0, "velocity": 0, "duration": 72}, {"note": 66, "velocity": 92, "duration": 94}, {"note": 0, "velocity": 0, "duration": 66}, {"note": 66, "velocity": 91, "duration": 89}, {"note": 0, "velocity": 0, "duration": 71}, {"note": 66, "velocity": 92, "duration": 111}, {"note": 66, "velocity": 91, "duration": 107}, {"note": 64, "velocity": 92, "duration": 114}, {"note": 66, "velocity": 91, "duration": 395}, {"note": 0, "velocity": 0, "duration": 85}, {"note": 64, "velocity": 93, "duration": 126}, {"note": 66, "velocity": 91, "duration": 136}, {"note": 68, "velocity": 95, "duration": 125}, {"note": 71, "velocity": 93, "duration": 117}, {"note": 71, "velocity": 92, "duration": 96}, {"note": 0, "velocity": 0, "duration": 64}, {"note": 71, "velocity": 91, "duration": 102}, {"note": 71, "velocity": 93, "duration": 104}, {"note": 71, "velocity": 93, "duration": 126}, {"note": 68, "velocity": 93, "duration": 114}, {"note": 68, "velocity": 93, "duration": 405}, {"note": 0, "velocity": 0, "duration": 75}, {"note": 64, "velocity": 93, "duration": 116}, {"note": 66, "velocity": 91, "duration": 116}, {"note": 68, "velocity": 93, "duration": 138}, {"note": 73, "velocity": 97, "duration": 114}, {"note": 73, "velocity": 96, "duration": 104}, {"note": 73, "velocity": 98, "duration": 104}, {"note": 73, "velocity": 97, "duration": 105}, {"note": 73, "velocity": 98, "duration": 133}, {"note": 71, "velocity": 93, "duration": 124}, {"note": 68, "velocity": 95, "duration": 356}, {"note": 0, "velocity": 0, "duration": 124}, {"note": 68, "velocity": 95, "duration": 116}, {"note": 68, "velocity": 93, "duration": 122}, {"note": 71, "velocity": 93, "duration": 122}, {"note": 73, "velocity": 93, "duration": 113}, {"note": 73, "velocity": 97, "duration": 110}, {"note": 71, "velocity": 97, "duration": 99}, {"note": 0, "velocity": 0, "duration": 61}, {"note": 73, "velocity": 95, "duration": 104}, {"note": 73, "velocity": 95, "duration": 115}, {"note": 76, "velocity": 93, "duration": 119}, {"note": 76, "velocity": 93, "duration": 375}, {"note": 0, "velocity": 0, "duration": 105}, {"note": 76, "velocity": 95, "duration": 109}, {"note": 76, "velocity": 92, "duration": 123}, {"note": 73, "velocity": 102, "duration": 122}, {"note": 78, "velocity": 93, "duration": 105}, {"note": 78, "velocity": 91, "duration": 99}, {"note": 0, "velocity": 0, "duration": 61}, {"note": 78, "velocity": 94, "duration": 114}, {"note": 78, "velocity": 93, "duration": 104}, {"note": 78, "velocity": 93, "duration": 126}, {"note": 76, "velocity": 91, "duration": 120}, {"note": 78, "velocity": 93, "duration": 396}, {"note": 0, "velocity": 0, "duration": 84}, {"note": 71, "velocity": 87, "duration": 112}, {"note": 73, "velocity": 98, "duration": 92}, {"note": 0, "velocity": 0, "duration": 68}, {"note": 76, "velocity": 93, "duration": 101}, {"note": 78, "velocity": 95, "duration": 261}, {"note": 80, "velocity": 93, "duration": 315}, {"note": 0, "velocity": 0, "duration": 805}, {"note": 71, "velocity": 87, "duration": 112}, {"note": 73, "velocity": 98, "duration": 92}, {"note": 0, "velocity": 0, "duration": 68}, {"note": 76, "velocity": 93, "duration": 101}, {"note": 78, "velocity": 95, "duration": 261}, {"note": 80, "velocity": 93, "duration": 315}, {"note": 0, "velocity": 0, "duration": 805}, {"note": 80, "velocity": 97, "duration": 114}, {"note": 78, "velocity": 92, "duration": 111}, {"note": 76, "velocity": 96, "duration": 111}, {"note": 78, "velocity": 94, "duration": 317}, {"note": 73, "velocity": 107, "duration": 696}, {"note": 0, "velocity": 0, "duration": 424}, {"note": 73, "velocity": 98, "duration": 134}, {"note": 76, "velocity": 93, "duration": 130}, {"note": 73, "velocity": 100, "duration": 167}, {"note": 78, "velocity": 91, "duration": 319}, {"note": 71, "velocity": 96, "duration": 971}, {"note": 0, "velocity": 0, "duration": 149}, {"note": 83, "velocity": 97, "duration": 101}, {"note": 83, "velocity": 93, "duration": 130}, {"note": 78, "velocity": 95, "duration": 119}, {"note": 78, "velocity": 94, "duration": 277}, {"note": 80, "velocity": 92, "duration": 636}, {"note": 0, "velocity": 0, "duration": 484}, {"note": 80, "velocity": 92, "duration": 123}, {"note": 78, "velocity": 92, "duration": 128}, {"note": 76, "velocity": 98, "duration": 117}, {"note": 78, "velocity": 94, "duration": 261}, {"note": 80, "velocity": 92, "duration": 553}, {"note": 0, "velocity": 0, "duration": 567}, {"note": 80, "velocity": 94, "duration": 111}, {"note": 78, "velocity": 94, "duration": 109}, {"note": 76, "velocity": 93, "duration": 127}, {"note": 78, "velocity": 95, "duration": 304}, {"note": 73, "velocity": 102, "duration": 631}, {"note": 0, "velocity": 0, "duration": 489}, {"note": 73, "velocity": 95, "duration": 130}, {"note": 76, "velocity": 97, "duration": 150}, {"note": 73, "velocity": 96, "duration": 134}, {"note": 78, "velocity": 93, "duration": 1083}, {"note": 0, "velocity": 0, "duration": 837}, {"note": 59, "velocity": 95, "duration": 128}, {"note": 61, "velocity": 93, "duration": 122}, {"note": 64, "velocity": 91, "duration": 111}, {"note": 68, "velocity": 89, "duration": 89}, {"note": 0, "velocity": 0, "duration": 71}, {"note": 68, "velocity": 91, "duration": 108}, {"note": 68, "velocity": 91, "duration": 98}, {"note": 0, "velocity": 0, "duration": 62}, {"note": 68, "velocity": 93, "duration": 109}, {"note": 68, "velocity": 92, "duration": 119}, {"note": 66, "velocity": 84, "duration": 133}, {"note": 64, "velocity": 93, "duration": 332}, {"note": 0, "velocity": 0, "duration": 148}, {"note": 59, "velocity": 95, "duration": 128}, {"note": 61, "velocity": 93, "duration": 122}, {"note": 64, "velocity": 91, "duration": 111}, {"note": 68, "velocity": 89, "duration": 89}, {"note": 0, "velocity": 0, "duration": 71}, {"note": 68, "velocity": 91, "duration": 108}, {"note": 68, "velocity": 91, "duration": 98}, {"note": 0, "velocity": 0, "duration": 62}, {"note": 68, "velocity": 93, "duration": 109}, {"note": 68, "velocity": 92, "duration": 119}, {"note": 66, "velocity": 84, "duration": 133}, {"note": 64, "velocity": 93, "duration": 332}, {"note": 0, "velocity": 0, "duration": 148}, {"note": 68, "velocity": 95, "duration": 146}, {"note": 66, "velocity": 92, "duration": 129}, {"note": 64, "velocity": 94, "duration": 104}, {"note": 64, "velocity": 96, "duration": 111}, {"note": 64, "velocity": 93, "duration": 48}, {"note": 61, "velocity": 91, "duration": 54}, {"note": 64, "velocity": 95, "duration": 458}, {"note": 64, "velocity": 93, "duration": 56}, {"note": 61, "velocity": 86, "duration": 61}, {"note": 64, "velocity": 92, "duration": 401}, {"note": 0, "velocity": 0, "duration": 79}, {"note": 64, "velocity": 97, "duration": 114}, {"note": 64, "velocity": 97, "duration": 111}, {"note": 64, "velocity": 93, "duration": 49}, {"note": 61, "velocity": 92, "duration": 66}, {"note": 66, "velocity": 94, "duration": 88}, {"note": 0, "velocity": 0, "duration": 72}, {"note": 66, "velocity": 92, "duration": 94}, {"note": 0, "velocity": 0, "duration": 66}, {"note": 66, "velocity": 91, "duration": 89}, {"note": 0, "velocity": 0, "duration": 71}, {"note": 66, "velocity": 92, "duration": 111}, {"note": 66, "velocity": 91, "duration": 107}, {"note": 64, "velocity": 92, "duration": 114}, {"note": 66, "velocity": 91, "duration": 395}, {"note": 0, "velocity": 0, "duration": 85}, {"note": 64, "velocity": 93, "duration": 126}, {"note": 66, "velocity": 91, "duration": 136}, {"note": 68, "velocity": 95, "duration": 125}, {"note": 71, "velocity": 93, "duration": 117}, {"note": 71, "velocity": 92, "duration": 96}, {"note": 0, "velocity": 0, "duration": 64}, {"note": 71, "velocity": 91, "duration": 102}, {"note": 71, "velocity": 93, "duration": 104}, {"note": 71, "velocity": 93, "duration": 126}, {"note": 68, "velocity": 93, "duration": 114}, {"note": 68, "velocity": 93, "duration": 405}, {"note": 0, "velocity": 0, "duration": 75}, {"note": 64, "velocity": 93, "duration": 116}, {"note": 66, "velocity": 91, "duration": 116}, {"note": 68, "velocity": 93, "duration": 138}, {"note": 73, "velocity": 97, "duration": 114}, {"note": 73, "velocity": 96, "duration": 104}, {"note": 73, "velocity": 98, "duration": 104}, {"note": 73, "velocity": 97, "duration": 105}, {"note": 73, "velocity": 98, "duration": 133}, {"note": 71, "velocity": 93, "duration": 124}, {"note": 68, "velocity": 95, "duration": 356}, {"note": 0, "velocity": 0, "duration": 124}, {"note": 68, "velocity": 95, "duration": 116}, {"note": 68, "velocity": 93, "duration": 122}, {"note": 71, "velocity": 93, "duration": 122}, {"note": 73, "velocity": 93, "duration": 113}, {"note": 73, "velocity": 97, "duration": 110}, {"note": 71, "velocity": 97, "duration": 99}, {"note": 0, "velocity": 0, "duration": 61}, {"note": 73, "velocity": 95, "duration": 104}, {"note": 73, "velocity": 95, "duration": 115}, {"note": 76, "velocity": 93, "duration": 119}, {"note": 76, "velocity": 93, "duration": 375}, {"note": 0, "velocity": 0, "duration": 105}, {"note": 76, "velocity": 95, "duration": 109}, {"note": 76, "velocity": 92, "duration": 123}, {"note": 73, "velocity": 102, "duration": 122}, {"note": 78, "velocity": 93, "duration": 105}, {"note": 78, "velocity": 91, "duration": 99}, {"note": 0, "velocity": 0, "duration": 61}, {"note": 78, "velocity": 94, "duration": 114}, {"note": 78, "velocity": 93, "duration": 104}, {"note": 78, "velocity": 93, "duration": 126}, {"note": 76, "velocity": 91, "duration": 120}, {"note": 78, "velocity": 93, "duration": 396}, {"note": 0, "velocity": 0, "duration": 84}, {"note": 71, "velocity": 87, "duration": 112}, {"note": 73, "velocity": 98, "duration": 92}, {"note": 0, "velocity": 0, "duration": 68}, {"note": 76, "velocity": 93, "duration": 101}, {"note": 78, "velocity": 95, "duration": 261}, {"note": 80, "velocity": 93, "duration": 315}, {"note": 0, "velocity": 0, "duration": 805}, {"note": 71, "velocity": 87, "duration": 112}, {"note": 73, "velocity": 98, "duration": 92}, {"note": 0, "velocity": 0, "duration": 68}, {"note": 76, "velocity": 93, "duration": 101}, {"note": 78, "velocity": 95, "duration": 261}, {"note": 80, "velocity": 93, "duration": 315}, {"note": 0, "velocity": 0, "duration": 805}, {"note": 80, "velocity": 97, "duration": 114}, {"note": 78, "velocity": 92, "duration": 111}, {"note": 76, "velocity": 96, "duration": 111}, {"note": 78, "velocity": 94, "duration": 317}, {"note": 73, "velocity": 107, "duration": 696}, {"note": 0, "velocity": 0, "duration": 424}, {"note": 73, "velocity": 98, "duration": 134}, {"note": 76, "velocity": 93, "duration": 130}, {"note": 73, "velocity": 100, "duration": 167}, {"note": 78, "velocity": 91, "duration": 319}, {"note": 71, "velocity": 96, "duration": 971}, {"note": 0, "velocity": 0, "duration": 149}, {"note": 83, "velocity": 97, "duration": 101}, {"note": 83, "velocity": 93, "duration": 130}, {"note": 78, "velocity": 95, "duration": 119}, {"note": 78, "velocity": 94, "duration": 277}, {"note": 80, "velocity": 92, "duration": 636}, {"note": 0, "velocity": 0, "duration": 484}, {"note": 80, "velocity": 92, "duration": 123}, {"note": 78, "velocity": 92, "duration": 128}, {"note": 76, "velocity": 98, "duration": 117}, {"note": 78, "velocity": 94, "duration": 261}, {"note": 80, "velocity": 92, "duration": 553}, {"note": 0, "velocity": 0, "duration": 567}, {"note": 80, "velocity": 94, "duration": 111}, {"note": 78, "velocity": 94, "duration": 109}, {"note": 76, "velocity": 93, "duration": 127}, {"note": 78, "velocity": 95, "duration": 304}, {"note": 73, "velocity": 102, "duration": 631}, {"note": 0, "velocity": 0, "duration": 489}, {"note": 73, "velocity": 95, "duration": 130}, {"note": 76, "velocity": 97, "duration": 150}, {"note": 73, "velocity": 96, "duration": 134}, {"note": 78, "velocity": 93, "duration": 318}, {"note": 71, "velocity": 96, "duration": 923}, {"note": 0, "velocity": 0, "duration": 357}, {"note": 76, "velocity": 97, "duration": 139}, {"note": 73, "velocity": 102, "duration": 124}, {"note": 76, "velocity": 95, "duration": 1527}, {"note": 0, "velocity": 0, "duration": 13353}, {"note": 59, "velocity": 95, "duration": 128}, {"note": 61, "velocity": 93, "duration": 122}, {"note": 64, "velocity": 91, "duration": 111}, {"note": 68, "velocity": 89, "duration": 89}, {"note": 0, "velocity": 0, "duration": 71}, {"note": 68, "velocity": 91, "duration": 108}, {"note": 68, "velocity": 91, "duration": 98}, {"note": 0, "velocity": 0, "duration": 62}, {"note": 68, "velocity": 93, "duration": 109}, {"note": 68, "velocity": 92, "duration": 119}, {"note": 66, "velocity": 84, "duration": 133}, {"note": 64, "velocity": 93, "duration": 332}, {"note": 0, "velocity": 0, "duration": 148}, {"note": 59, "velocity": 95, "duration": 128}, {"note": 61, "velocity": 93, "duration": 122}, {"note": 64, "velocity": 91, "duration": 111}, {"note": 68, "velocity": 89, "duration": 89}, {"note": 0, "velocity": 0, "duration": 71}, {"note": 68, "velocity": 91, "duration": 108}, {"note": 68, "velocity": 91, "duration": 98}, {"note": 0, "velocity": 0, "duration": 62}, {"note": 68, "velocity": 93, "duration": 109}, {"note": 68, "velocity": 92, "duration": 119}, {"note": 66, "velocity": 84, "duration": 133}, {"note": 64, "velocity": 93, "duration": 332}, {"note": 0, "velocity": 0, "duration": 148}, {"note": 68, "velocity": 95, "duration": 146}, {"note": 66, "velocity": 92, "duration": 129}, {"note": 64, "velocity": 94, "duration": 104}, {"note": 64, "velocity": 96, "duration": 111}, {"note": 64, "velocity": 93, "duration": 48}, {"note": 61, "velocity": 91, "duration": 54}, {"note": 64, "velocity": 95, "duration": 458}, {"note": 64, "velocity": 93, "duration": 56}, {"note": 61, "velocity": 86, "duration": 61}, {"note": 64, "velocity": 92, "duration": 401}, {"note": 0, "velocity": 0, "duration": 79}, {"note": 64, "velocity": 97, "duration": 114}, {"note": 64, "velocity": 97, "duration": 111}, {"note": 64, "velocity": 93, "duration": 49}, {"note": 61, "velocity": 92, "duration": 66}, {"note": 66, "velocity": 94, "duration": 88}, {"note": 0, "velocity": 0, "duration": 72}, {"note": 66, "velocity": 92, "duration": 94}, {"note": 0, "velocity": 0, "duration": 66}, {"note": 66, "velocity": 91, "duration": 89}, {"note": 0, "velocity": 0, "duration": 71}, {"note": 66, "velocity": 92, "duration": 111}, {"note": 66, "velocity": 91, "duration": 107}, {"note": 64, "velocity": 92, "duration": 114}, {"note": 66, "velocity": 91, "duration": 395}, {"note": 0, "velocity": 0, "duration": 85}, {"note": 64, "velocity": 93, "duration": 126}, {"note": 66, "velocity": 91, "duration": 136}, {"note": 68, "velocity": 95, "duration": 125}, {"note": 71, "velocity": 93, "duration": 117}, {"note": 71, "velocity": 92, "duration": 96}, {"note": 0, "velocity": 0, "duration": 64}, {"note": 71, "velocity": 91, "duration": 102}, {"note": 71, "velocity": 93, "duration": 104}, {"note": 71, "velocity": 93, "duration": 126}, {"note": 68, "velocity": 93, "duration": 114}, {"note": 68, "velocity": 93, "duration": 405}, {"note": 0, "velocity": 0, "duration": 75}, {"note": 64, "velocity": 93, "duration": 116}, {"note": 66, "velocity": 91, "duration": 116}, {"note": 68, "velocity": 93, "duration": 138}, {"note": 73, "velocity": 97, "duration": 114}, {"note": 73, "velocity": 96, "duration": 104}, {"note": 73, "velocity": 98, "duration": 104}, {"note": 73, "velocity": 97, "duration": 105}, {"note": 73, "velocity": 98, "duration": 133}, {"note": 71, "velocity": 93, "duration": 124}, {"note": 68, "velocity": 95, "duration": 356}, {"note": 0, "velocity": 0, "duration": 124}, {"note": 68, "velocity": 95, "duration": 116}, {"note": 68, "velocity": 93, "duration": 122}, {"note": 71, "velocity": 93, "duration": 122}, {"note": 73, "velocity": 93, "duration": 113}, {"note": 73, "velocity": 97, "duration": 110}, {"note": 71, "velocity": 97, "duration": 99}, {"note": 0, "velocity": 0, "duration": 61}, {"note": 73, "velocity": 95, "duration": 104}, {"note": 73, "velocity": 95, "duration": 115}, {"note": 76, "velocity": 93, "duration": 119}, {"note": 76, "velocity": 93, "duration": 375}, {"note": 0, "velocity": 0, "duration": 105}, {"note": 76, "velocity": 95, "duration": 109}, {"note": 76, "velocity": 92, "duration": 123}, {"note": 73, "velocity": 102, "duration": 122}, {"note": 78, "velocity": 93, "duration": 105}, {"note": 78, "velocity": 91, "duration": 99}, {"note": 0, "velocity": 0, "duration": 61}, {"note": 78, "velocity": 94, "duration": 114}, {"note": 78, "velocity": 93, "duration": 104}, {"note": 78, "velocity": 93, "duration": 126}, {"note": 76, "velocity": 91, "duration": 120}, {"note": 78, "velocity": 93, "duration": 396}, {"note": 0, "velocity": 0, "duration": 84}, {"note": 71, "velocity": 87, "duration": 112}, {"note": 73, "velocity": 98, "duration": 92}, {"note": 0, "velocity": 0, "duration": 68}, {"note": 76, "velocity": 93, "duration": 101}, {"note": 78, "velocity": 95, "duration": 261}, {"note": 80, "velocity": 93, "duration": 315}, {"note": 0, "velocity": 0, "duration": 805}, {"note": 71, "velocity": 87, "duration": 112}, {"note": 73, "velocity": 98, "duration": 92}, {"note": 0, "velocity": 0, "duration": 68}, {"note": 76, "velocity": 93, "duration": 101}, {"note": 78, "velocity": 95, "duration": 261}, {"note": 80, "velocity": 93, "duration": 315}, {"note": 0, "velocity": 0, "duration": 805}, {"note": 80, "velocity": 97, "duration": 114}, {"note": 78, "velocity": 92, "duration": 111}, {"note": 76, "velocity": 96, "duration": 111}, {"note": 78, "velocity": 94, "duration": 317}, {"note": 73, "velocity": 107, "duration": 696}, {"note": 0, "velocity": 0, "duration": 424}, {"note": 73, "velocity": 98, "duration": 134}, {"note": 76, "velocity": 93, "duration": 130}, {"note": 73, "velocity": 100, "duration": 167}, {"note": 78, "velocity": 91, "duration": 319}, {"note": 71, "velocity": 96, "duration": 971}, {"note": 0, "velocity": 0, "duration": 149}, {"note": 83, "velocity": 97, "duration": 101}, {"note": 83, "velocity": 93, "duration": 130}, {"note": 78, "velocity": 95, "duration": 119}, {"note": 78, "velocity": 94, "duration": 277}, {"note": 80, "velocity": 92, "duration": 636}, {"note": 0, "velocity": 0, "duration": 484}, {"note": 80, "velocity": 92, "duration": 123}, {"note": 78, "velocity": 92, "duration": 128}, {"note": 76, "velocity": 98, "duration": 117}, {"note": 78, "velocity": 94, "duration": 261}, {"note": 80, "velocity": 92, "duration": 553}, {"note": 0, "velocity": 0, "duration": 567}, {"note": 80, "velocity": 94, "duration": 111}, {"note": 78, "velocity": 94, "duration": 109}, {"note": 76, "velocity": 93, "duration": 127}, {"note": 78, "velocity": 95, "duration": 304}, {"note": 73, "velocity": 102, "duration": 631}, {"note": 0, "velocity": 0, "duration": 489}, {"note": 73, "velocity": 95, "duration": 130}, {"note": 76, "velocity": 97, "duration": 150}, {"note": 73, "velocity": 96, "duration": 134}, {"note": 78, "velocity": 93, "duration": 318}, {"note": 71, "velocity": 96, "duration": 923}, {"note": 0, "velocity": 0, "duration": 197}, {"note": 71, "velocity": 87, "duration": 112}, {"note": 73, "velocity": 98, "duration": 92}, {"note": 0, "velocity": 0, "duration": 68}, {"note": 76, "velocity": 93, "duration": 101}, {"note": 78, "velocity": 95, "duration": 261}, {"note": 80, "velocity": 93, "duration": 315}, {"note": 0, "velocity": 0, "duration": 805}, {"note": 71, "velocity": 87, "duration": 112}, {"note": 73, "velocity": 98, "duration": 92}, {"note": 0, "velocity": 0, "duration": 68}, {"note": 76, "velocity": 93, "duration": 101}, {"note": 78, "velocity": 95, "duration": 261}, {"note": 80, "velocity": 93, "duration": 315}, {"note": 0, "velocity": 0, "duration": 805}, {"note": 80, "velocity": 97, "duration": 114}, {"note": 78, "velocity": 92, "duration": 111}, {"note": 76, "velocity": 96, "duration": 111}, {"note": 78, "velocity": 94, "duration": 317}, {"note": 73, "velocity": 107, "duration": 696}, {"note": 0, "velocity": 0, "duration": 424}, {"note": 73, "velocity": 98, "duration": 134}, {"note": 76, "velocity": 93, "duration": 130}, {"note": 73, "velocity": 100, "duration": 167}, {"note": 78, "velocity": 91, "duration": 319}, {"note": 71, "velocity": 96, "duration": 971}, {"note": 0, "velocity": 0, "duration": 149}, {"note": 83, "velocity": 97, "duration": 101}, {"note": 83, "velocity": 93, "duration": 130}, {"note": 78, "velocity": 95, "duration": 119}, {"note": 78, "velocity": 94, "duration": 277}, {"note": 80, "velocity": 92, "duration": 636}, {"note": 0, "velocity": 0, "duration": 484}, {"note": 80, "velocity": 92, "duration": 123}, {"note": 78, "velocity": 92, "duration": 128}, {"note": 76, "velocity": 98, "duration": 117}, {"note": 78, "velocity": 94, "duration": 261}, {"note": 80, "velocity": 92, "duration": 553}, {"note": 0, "velocity": 0, "duration": 567}, {"note": 80, "velocity": 94, "duration": 111}, {"note": 78, "velocity": 94, "duration": 109}, {"note": 76, "velocity": 93, "duration": 127}, {"note": 78, "velocity": 95, "duration": 304}, {"note": 73, "velocity": 102, "duration": 631}, {"note": 0, "velocity": 0, "duration": 489}, {"note": 73, "velocity": 95, "duration": 130}, {"note": 76, "velocity": 97, "duration": 150}, {"note": 73, "velocity": 96, "duration": 134}, {"note": 78, "velocity": 93, "duration": 318}, {"note": 71, "velocity": 96, "duration": 923}, {"note": 0, "velocity": 0, "duration": 357}, {"note": 76, "velocity": 97, "duration": 139}, {"note": 73, "velocity": 102, "duration": 124}, {"note": 76, "velocity": 95, "duration": 1527}]]