[[{"note": 67, "velocity": 87, "duration": 205}, {"note": 72, "velocity": 99, "duration": 235}, {"note": 67, "velocity": 97, "duration": 247}, {"note": 74, "velocity": 100, "duration": 400}, {"note": 0, "velocity": 0, "duration": 80}, {"note": 72, "velocity": 96, "duration": 224}, {"note": 69, "velocity": 97, "duration": 173}, {"note": 0, "velocity": 0, "duration": 67}, {"note": 76, "velocity": 101, "duration": 183}, {"note": 74, "velocity": 99, "duration": 165}, {"note": 0, "velocity": 0, "duration": 75}, {"note": 72, "velocity": 98, "duration": 178}, {"note": 0, "velocity": 0, "duration": 62}, {"note": 69, "velocity": 97, "duration": 195}, {"note": 67, "velocity": 91, "duration": 834}, {"note": 0, "velocity": 0, "duration": 126}, {"note": 72, "velocity": 92, "duration": 266}, {"note": 0, "velocity": 0, "duration": 94}, {"note": 74, "velocity": 100, "duration": 240}, {"note": 0, "velocity": 0, "duration": 120}, {"note": 72, "velocity": 97, "duration": 153}, {"note": 0, "velocity": 0, "duration": 87}, {"note": 71, "velocity": 98, "duration": 299}, {"note": 0, "velocity": 0, "duration": 61}, {"note": 69, "velocity": 96, "duration": 279}, {"note": 0, "velocity": 0, "duration": 81}, {"note": 67, "velocity": 97, "duration": 198}, {"note": 69, "velocity": 96, "duration": 234}, {"note": 67, "velocity": 91, "duration": 1079}, {"note": 0, "velocity": 0, "duration": 841}, {"note": 67, "velocity": 96, "duration": 165}, {"note": 0, "velocity": 0, "duration": 75}, {"note": 72, "velocity": 96, "duration": 217}, {"note": 67, "velocity": 97, "duration": 207}, {"note": 74, "velocity": 98, "duration": 379}, {"note": 0, "velocity": 0, "duration": 101}, {"note": 72, "velocity": 99, "duration": 194}, {"note": 79, "velocity": 97, "duration": 190}, {"note": 76, "velocity": 97, "duration": 161}, {"note": 0, "velocity": 0, "duration": 79}, {"note": 74, "velocity": 99, "duration": 148}, {"note": 0, "velocity": 0, "duration": 92}, {"note": 72, "velocity": 98, "duration": 220}, {"note": 69, "velocity": 97, "duration": 165}, {"note": 0, "velocity": 0, "duration": 75}, {"note": 67, "velocity": 98, "duration": 913}, {"note": 72, "velocity": 100, "duration": 296}, {"note": 0, "velocity": 0, "duration": 64}, {"note": 74, "velocity": 98, "duration": 285}, {"note": 0, "velocity": 0, "duration": 75}, {"note": 72, "velocity": 98, "duration": 171}, {"note": 0, "velocity": 0, "duration": 69}, {"note": 71, "velocity": 97, "duration": 309}, {"note": 69, "velocity": 97, "duration": 354}, {"note": 67, "velocity": 94, "duration": 220}, {"note": 69, "velocity": 96, "duration": 1347}, {"note": 0, "velocity": 0, "duration": 93}, {"note": 69, "velocity": 97, "duration": 196}, {"note": 67, "velocity": 93, "duration": 213}, {"note": 65, "velocity": 96, "duration": 324}, {"note": 72, "velocity": 99, "duration": 302}, {"note": 65, "velocity": 98, "duration": 212}, {"note": 72, "velocity": 100, "duration": 388}, {"note": 0, "velocity": 0, "duration": 92}, {"note": 74, "velocity": 98, "duration": 160}, {"note": 0, "velocity": 0, "duration": 80}, {"note": 76, "velocity": 97, "duration": 146}, {"note": 0, "velocity": 0, "duration": 94}, {"note": 71, "velocity": 97, "duration": 285}, {"note": 0, "velocity": 0, "duration": 75}, {"note": 69, "velocity": 97, "duration": 292}, {"note": 0, "velocity": 0, "duration": 68}, {"note": 69, "velocity": 95, "duration": 188}, {"note": 67, "velocity": 97, "duration": 394}, {"note": 0, "velocity": 0, "duration": 86}, {"note": 69, "velocity": 96, "duration": 170}, {"note": 0, "velocity": 0, "duration": 70}, {"note": 67, "velocity": 97, "duration": 170}, {"note": 0, "velocity": 0, "duration": 70}, {"note": 65, "velocity": 99, "duration": 319}, {"note": 72, "velocity": 98, "duration": 298}, {"note": 0, "velocity": 0, "duration": 62}, {"note": 65, "velocity": 100, "duration": 185}, {"note": 72, "velocity": 100, "duration": 360}, {"note": 72, "velocity": 97, "duration": 73}, {"note": 74, "velocity": 98, "duration": 155}, {"note": 0, "velocity": 0, "duration": 85}, {"note": 76, "velocity": 97, "duration": 168}, {"note": 0, "velocity": 0, "duration": 72}, {"note": 71, "velocity": 97, "duration": 1061}, {"note": 0, "velocity": 0, "duration": 379}, {"note": 74, "velocity": 100, "duration": 169}, {"note": 0, "velocity": 0, "duration": 71}, {"note": 72, "velocity": 99, "duration": 169}, {"note": 0, "velocity": 0, "duration": 71}, {"note": 69, "velocity": 98, "duration": 286}, {"note": 0, "velocity": 0, "duration": 74}, {"note": 69, "velocity": 100, "duration": 321}, {"note": 76, "velocity": 96, "duration": 184}, {"note": 74, "velocity": 102, "duration": 399}, {"note": 0, "velocity": 0, "duration": 81}, {"note": 72, "velocity": 101, "duration": 159}, {"note": 0, "velocity": 0, "duration": 81}, {"note": 74, "velocity": 102, "duration": 181}, {"note": 76, "velocity": 100, "duration": 167}, {"note": 0, "velocity": 0, "duration": 73}, {"note": 74, "velocity": 97, "duration": 76}, {"note": 72, "velocity": 98, "duration": 348}, {"note": 71, "velocity": 97, "duration": 193}, {"note": 69, "velocity": 98, "duration": 413}, {"note": 0, "velocity": 0, "duration": 67}, {"note": 72, "velocity": 97, "duration": 177}, {"note": 0, "velocity": 0, "duration": 63}, {"note": 71, "velocity": 98, "duration": 199}, {"note": 69, "velocity": 100, "duration": 437}, {"note": 76, "velocity": 100, "duration": 297}, {"note": 0, "velocity": 0, "duration": 63}, {"note": 74, "velocity": 102, "duration": 492}, {"note": 0, "velocity": 0, "duration": 108}, {"note": 72, "velocity": 98, "duration": 183}, {"note": 74, "velocity": 98, "duration": 190}, {"note": 76, "velocity": 98, "duration": 291}, {"note": 74, "velocity": 100, "duration": 185}, {"note": 72, "velocity": 97, "duration": 98}, {"note": 74, "velocity": 101, "duration": 282}, {"note": 0, "velocity": 0, "duration": 78}, {"note": 76, "velocity": 97, "duration": 406}, {"note": 0, "velocity": 0, "duration": 74}, {"note": 74, "velocity": 97, "duration": 155}, {"note": 0, "velocity": 0, "duration": 85}, {"note": 72, "velocity": 99, "duration": 175}, {"note": 0, "velocity": 0, "duration": 65}, {"note": 69, "velocity": 98, "duration": 360}, {"note": 69, "velocity": 101, "duration": 286}, {"note": 0, "velocity": 0, "duration": 74}, {"note": 76, "velocity": 98, "duration": 189}, {"note": 74, "velocity": 105, "duration": 449}, {"note": 72, "velocity": 98, "duration": 163}, {"note": 0, "velocity": 0, "duration": 77}, {"note": 74, "velocity": 101, "duration": 148}, {"note": 0, "velocity": 0, "duration": 92}, {"note": 76, "velocity": 97, "duration": 213}, {"note": 79, "velocity": 92, "duration": 118}, {"note": 0, "velocity": 0, "duration": 122}, {"note": 74, "velocity": 102, "duration": 240}, {"note": 72, "velocity": 100, "duration": 207}, {"note": 69, "velocity": 96, "duration": 289}, {"note": 0, "velocity": 0, "duration": 191}, {"note": 69, "velocity": 97, "duration": 170}, {"note": 0, "velocity": 0, "duration": 70}, {"note": 67, "velocity": 91, "duration": 188}, {"note": 65, "velocity": 100, "duration": 278}, {"note": 0, "velocity": 0, "duration": 82}, {"note": 69, "velocity": 98, "duration": 310}, {"note": 72, "velocity": 98, "duration": 175}, {"note": 0, "velocity": 0, "duration": 65}, {"note": 71, "velocity": 97, "duration": 273}, {"note": 0, "velocity": 0, "duration": 87}, {"note": 69, "velocity": 96, "duration": 339}, {"note": 67, "velocity": 97, "duration": 220}, {"note": 69, "velocity": 98, "duration": 1839}, {"note": 0, "velocity": 0, "duration": 6081}, {"note": 67, "velocity": 87, "duration": 205}, {"note": 72, "velocity": 99, "duration": 235}, {"note": 67, "velocity": 97, "duration": 247}, {"note": 74, "velocity": 100, "duration": 400}, {"note": 0, "velocity": 0, "duration": 80}, {"note": 72, "velocity": 96, "duration": 224}, {"note": 69, "velocity": 97, "duration": 173}, {"note": 0, "velocity": 0, "duration": 67}, {"note": 76, "velocity": 101, "duration": 183}, {"note": 74, "velocity": 99, "duration": 165}, {"note": 0, "velocity": 0, "duration": 75}, {"note": 72, "velocity": 98, "duration": 178}, {"note": 0, "velocity": 0, "duration": 62}, {"note": 69, "velocity": 97, "duration": 195}, {"note": 67, "velocity": 91, "duration": 834}, {"note": 0, "velocity": 0, "duration": 126}, {"note": 72, "velocity": 92, "duration": 266}, {"note": 0, "velocity": 0, "duration": 94}, {"note": 74, "velocity": 100, "duration": 240}, {"note": 0, "velocity": 0, "duration": 120}, {"note": 72, "velocity": 97, "duration": 153}, {"note": 0, "velocity": 0, "duration": 87}, {"note": 71, "velocity": 98, "duration": 299}, {"note": 0, "velocity": 0, "duration": 61}, {"note": 69, "velocity": 96, "duration": 279}, {"note": 0, "velocity": 0, "duration": 81}, {"note": 67, "velocity": 97, "duration": 198}, {"note": 69, "velocity": 96, "duration": 234}, {"note": 67, "velocity": 91, "duration": 1079}, {"note": 0, "velocity": 0, "duration": 841}, {"note": 67, "velocity": 96, "duration": 165}, {"note": 0, "velocity": 0, "duration": 75}, {"note": 72, "velocity": 96, "duration": 217}, {"note": 67, "velocity": 97, "duration": 207}, {"note": 74, "velocity": 98, "duration": 379}, {"note": 0, "velocity": 0, "duration": 101}, {"note": 72, "velocity": 99, "duration": 194}, {"note": 79, "velocity": 97, "duration": 190}, {"note": 76, "velocity": 97, "duration": 161}, {"note": 0, "velocity": 0, "duration": 79}, {"note": 74, "velocity": 99, "duration": 148}, {"note": 0, "velocity": 0, "duration": 92}, {"note": 72, "velocity": 98, "duration": 220}, {"note": 69, "velocity": 97, "duration": 165}, {"note": 0, "velocity": 0, "duration": 75}, {"note": 67, "velocity": 98, "duration": 913}, {"note": 72, "velocity": 100, "duration": 296}, {"note": 0, "velocity": 0, "duration": 64}, {"note": 74, "velocity": 98, "duration": 285}, {"note": 0, "velocity": 0, "duration": 75}, {"note": 72, "velocity": 98, "duration": 171}, {"note": 0, "velocity": 0, "duration": 69}, {"note": 71, "velocity": 97, "duration": 309}, {"note": 69, "velocity": 97, "duration": 354}, {"note": 67, "velocity": 94, "duration": 220}, {"note": 69, "velocity": 96, "duration": 1347}, {"note": 0, "velocity": 0, "duration": 93}, {"note": 69, "velocity": 97, "duration": 196}, {"note": 67, "velocity": 93, "duration": 213}, {"note": 65, "velocity": 96, "duration": 324}, {"note": 72, "velocity": 99, "duration": 302}, {"note": 65, "velocity": 98, "duration": 212}, {"note": 72, "velocity": 100, "duration": 388}, {"note": 0, "velocity": 0, "duration": 92}, {"note": 74, "velocity": 98, "duration": 160}, {"note": 0, "velocity": 0, "duration": 80}, {"note": 76, "velocity": 97, "duration": 146}, {"note": 0, "velocity": 0, "duration": 94}, {"note": 71, "velocity": 97, "duration": 285}, {"note": 0, "velocity": 0, "duration": 75}, {"note": 69, "velocity": 97, "duration": 292}, {"note": 0, "velocity": 0, "duration": 68}, {"note": 69, "velocity": 95, "duration": 188}, {"note": 67, "velocity": 97, "duration": 394}, {"note": 0, "velocity": 0, "duration": 86}, {"note": 69, "velocity": 96, "duration": 170}, {"note": 0, "velocity": 0, "duration": 70}, {"note": 67, "velocity": 97, "duration": 170}, {"note": 0, "velocity": 0, "duration": 70}, {"note": 65, "velocity": 99, "duration": 319}, {"note": 72, "velocity": 98, "duration": 298}, {"note": 0, "velocity": 0, "duration": 62}, {"note": 65, "velocity": 100, "duration": 185}, {"note": 72, "velocity": 100, "duration": 360}, {"note": 72, "velocity": 97, "duration": 73}, {"note": 74, "velocity": 98, "duration": 155}, {"note": 0, "velocity": 0, "duration": 85}, {"note": 76, "velocity": 97, "duration": 168}, {"note": 0, "velocity": 0, "duration": 72}, {"note": 71, "velocity": 97, "duration": 1061}, {"note": 0, "velocity": 0, "duration": 379}, {"note": 74, "velocity": 100, "duration": 169}, {"note": 0, "velocity": 0, "duration": 71}, {"note": 72, "velocity": 99, "duration": 169}, {"note": 0, "velocity": 0, "duration": 71}, {"note": 69, "velocity": 98, "duration": 286}, {"note": 0, "velocity": 0, "duration": 74}, {"note": 69, "velocity": 100, "duration": 321}, {"note": 76, "velocity": 96, "duration": 184}, {"note": 74, "velocity": 102, "duration": 399}, {"note": 0, "velocity": 0, "duration": 81}, {"note": 72, "velocity": 101, "duration": 159}, {"note": 0, "velocity": 0, "duration": 81}, {"note": 74, "velocity": 102, "duration": 181}, {"note": 76, "velocity": 100, "duration": 167}, {"note": 0, "velocity": 0, "duration": 73}, {"note": 74, "velocity": 97, "duration": 76}, {"note": 72, "velocity": 98, "duration": 348}, {"note": 71, "velocity": 97, "duration": 193}, {"note": 69, "velocity": 98, "duration": 413}, {"note": 0, "velocity": 0, "duration": 67}, {"note": 72, "velocity": 97, "duration": 177}, {"note": 0, "velocity": 0, "duration": 63}, {"note": 71, "velocity": 98, "duration": 199}, {"note": 69, "velocity": 100, "duration": 437}, {"note": 76, "velocity": 100, "duration": 297}, {"note": 0, "velocity": 0, "duration": 63}, {"note": 74, "velocity": 102, "duration": 492}, {"note": 0, "velocity": 0, "duration": 108}, {"note": 72, "velocity": 98, "duration": 183}, {"note": 74, "velocity": 98, "duration": 190}, {"note": 76, "velocity": 98, "duration": 291}, {"note": 74, "velocity": 100, "duration": 185}, {"note": 72, "velocity": 97, "duration": 98}, {"note": 74, "velocity": 101, "duration": 282}, {"note": 0, "velocity": 0, "duration": 78}, {"note": 76, "velocity": 97, "duration": 406}, {"note": 0, "velocity": 0, "duration": 74}, {"note": 74, "velocity": 97, "duration": 155}, {"note": 0, "velocity": 0, "duration": 85}, {"note": 72, "velocity": 99, "duration": 175}, {"note": 0, "velocity": 0, "duration": 65}, {"note": 69, "velocity": 98, "duration": 360}, {"note": 69, "velocity": 101, "duration": 286}, {"note": 0, "velocity": 0, "duration": 74}, {"note": 76, "velocity": 98, "duration": 189}, {"note": 74, "velocity": 105, "duration": 449}, {"note": 72, "velocity": 98, "duration": 163}, {"note": 0, "velocity": 0, "duration": 77}, {"note": 74, "velocity": 101, "duration": 148}, {"note": 0, "velocity": 0, "duration": 92}, {"note": 76, "velocity": 97, "duration": 213}, {"note": 79, "velocity": 92, "duration": 118}, {"note": 0, "velocity": 0, "duration": 122}, {"note": 74, "velocity": 102, "duration": 240}, {"note": 72, "velocity": 100, "duration": 207}, {"note": 69, "velocity": 96, "duration": 289}, {"note": 0, "velocity": 0, "duration": 191}, {"note": 69, "velocity": 97, "duration": 170}, {"note": 0, "velocity": 0, "duration": 70}, {"note": 67, "velocity": 91, "duration": 188}, {"note": 65, "velocity": 100, "duration": 278}, {"note": 0, "velocity": 0, "duration": 82}, {"note": 69, "velocity": 98, "duration": 310}, {"note": 72, "velocity": 98, "duration": 175}, {"note": 0, "velocity": 0, "duration": 65}, {"note": 71, "velocity": 97, "duration": 273}, {"note": 0, "velocity": 0, "duration": 87}, {"note": 69, "velocity": 96, "duration": 339}, {"note": 67, "velocity": 97, "duration": 220}, {"note": 69, "velocity": 98, "duration": 1839}, {"note": 0, "velocity": 0, "duration": 13041}, {"note": 74, "velocity": 100, "duration": 169}, {"note": 0, "velocity": 0, "duration": 71}, {"note": 72, "velocity": 99, "duration": 169}, {"note": 0, "velocity": 0, "duration": 71}, {"note": 69, "velocity": 98, "duration": 286}, {"note": 0, "velocity": 0, "duration": 74}, {"note": 69, "velocity": 100, "duration": 321}, {"note": 76, "velocity": 96, "duration": 184}, {"note": 74, "velocity": 102, "duration": 399}, {"note": 0, "velocity": 0, "duration": 81}, {"note": 72, "velocity": 101, "duration": 159}, {"note": 0, "velocity": 0, "duration": 81}, {"note": 74, "velocity": 102, "duration": 181}, {"note": 76, "velocity": 100, "duration": 167}, {"note": 0, "velocity": 0, "duration": 73}, {"note": 74, "velocity": 97, "duration": 76}, {"note": 72, "velocity": 98, "duration": 348}, {"note": 71, "velocity": 97, "duration": 193}, {"note": 69, "velocity": 98, "duration": 413}, {"note": 0, "velocity": 0, "duration": 67}, {"note": 72, "velocity": 97, "duration": 177}, {"note": 0, "velocity": 0, "duration": 63}, {"note": 71, "velocity": 98, "duration": 199}, {"note": 69, "velocity": 100, "duration": 437}, {"note": 76, "velocity": 100, "duration": 297}, {"note": 0, "velocity": 0, "duration": 63}, {"note": 74, "velocity": 102, "duration": 492}, {"note": 0, "velocity": 0, "duration": 108}, {"note": 72, "velocity": 98, "duration": 183}, {"note": 74, "velocity": 98, "duration": 190}, {"note": 76, "velocity": 98, "duration": 291}, {"note": 74, "velocity": 100, "duration": 185}, {"note": 72, "velocity": 97, "duration": 98}, {"note": 74, "velocity": 101, "duration": 282}, {"note": 0, "velocity": 0, "duration": 78}, {"note": 76, "velocity": 97, "duration": 406}, {"note": 0, "velocity": 0, "duration": 74}, {"note": 74, "velocity": 97, "duration": 155}, {"note": 0, "velocity": 0, "duration": 85}, {"note": 72, "velocity": 99, "duration": 175}, {"note": 0, "velocity": 0, "duration": 65}, {"note": 69, "velocity": 98, "duration": 360}, {"note": 69, "velocity": 101, "duration": 286}, {"note": 0, "velocity": 0, "duration": 74}, {"note": 76, "velocity": 98, "duration": 189}, {"note": 74, "velocity": 105, "duration": 449}, {"note": 72, "velocity": 98, "duration": 163}, {"note": 0, "velocity": 0, "duration": 77}, {"note": 74, "velocity": 101, "duration": 148}, {"note": 0, "velocity": 0, "duration": 92}, {"note": 76, "velocity": 97, "duration": 213}, {"note": 79, "velocity": 92, "duration": 118}, {"note": 0, "velocity": 0, "duration": 122}, {"note": 74, "velocity": 102, "duration": 240}, {"note": 72, "velocity": 100, "duration": 207}, {"note": 69, "velocity": 96, "duration": 289}, {"note": 0, "velocity": 0, "duration": 191}, {"note": 69, "velocity": 97, "duration": 170}, {"note": 0, "velocity": 0, "duration": 70}, {"note": 67, "velocity": 91, "duration": 188}, {"note": 65, "velocity": 100, "duration": 278}, {"note": 0, "velocity": 0, "duration": 82}, {"note": 69, "velocity": 98, "duration": 310}, {"note": 72, "velocity": 98, "duration": 175}, {"note": 0, "velocity": 0, "duration": 65}, {"note": 71, "velocity": 97, "duration": 273}, {"note": 0, "velocity": 0, "duration": 87}, {"note": 69, "velocity": 96, "duration": 339}, {"note": 67, "velocity": 97, "duration": 220}, {"note": 69, "velocity": 98, "duration": 1320}, {"note": 0, "velocity": 0, "duration": 120}, {"note": 74, "velocity": 100, "duration": 169}, {"note": 0, "velocity": 0, "duration": 71}, {"note": 72, "velocity": 99, "duration": 169}, {"note": 0, "velocity": 0, "duration": 71}, {"note": 69, "velocity": 98, "duration": 286}, {"note": 0, "velocity": 0, "duration": 74}, {"note": 69, "velocity": 100, "duration": 321}, {"note": 76, "velocity": 96, "duration": 184}, {"note": 74, "velocity": 102, "duration": 399}, {"note": 0, "velocity": 0, "duration": 81}, {"note": 72, "velocity": 101, "duration": 159}, {"note": 0, "velocity": 0, "duration": 81}, {"note": 74, "velocity": 102, "duration": 181}, {"note": 76, "velocity": 100, "duration": 167}, {"note": 0, "velocity": 0, "duration": 73}, {"note": 74, "velocity": 97, "duration": 76}, {"note": 72, "velocity": 98, "duration": 348}, {"note": 71, "velocity": 97, "duration": 193}, {"note": 69, "velocity": 98, "duration": 413}, {"note": 0, "velocity": 0, "duration": 67}, {"note": 72, "velocity": 97, "duration": 177}, {"note": 0, "velocity": 0, "duration": 63}, {"note": 71, "velocity": 98, "duration": 199}, {"note": 69, "velocity": 100, "duration": 437}, {"note": 76, "velocity": 100, "duration": 297}, {"note": 0, "velocity": 0, "duration": 63}, {"note": 74, "velocity": 102, "duration": 492}, {"note": 0, "velocity": 0, "duration": 108}, {"note": 72, "velocity": 98, "duration": 183}, {"note": 74, "velocity": 98, "duration": 190}, {"note": 76, "velocity": 98, "duration": 291}, {"note": 74, "velocity": 100, "duration": 185}, {"note": 72, "velocity": 97, "duration": 98}, {"note": 74, "velocity": 101, "duration": 282}, {"note": 0, "velocity": 0, "duration": 78}, {"note": 76, "velocity": 97, "duration": 406}, {"note": 0, "velocity": 0, "duration": 74}, {"note": 74, "velocity": 97, "duration": 155}, {"note": 0, "velocity": 0, "duration": 85}, {"note": 72, "velocity": 99, "duration": 175}, {"note": 0, "velocity": 0, "duration": 65}, {"note": 69, "velocity": 98, "duration": 360}, {"note": 69, "velocity": 101, "duration": 286}, {"note": 0, "velocity": 0, "duration": 74}, {"note": 76, "velocity": 98, "duration": 189}, {"note": 74, "velocity": 105, "duration": 449}, {"note": 72, "velocity": 98, "duration": 163}, {"note": 0, "velocity": 0, "duration": 77}, {"note": 74, "velocity": 101, "duration": 148}, {"note": 0, "velocity": 0, "duration": 92}, {"note": 76, "velocity": 97, "duration": 213}, {"note": 79, "velocity": 92, "duration": 118}, {"note": 0, "velocity": 0, "duration": 122}, {"note": 81, "velocity": 102, "duration": 240}, {"note": 79, "velocity": 100, "duration": 207}, {"note": 72, "velocity": 96, "duration": 240}, {"note": 69, "velocity": 97, "duration": 960}, {"note": 0, "velocity": 0, "duration": 271}, {"note": 69, "velocity": 96, "duration": 197}, {"note": 67, "velocity": 94, "duration": 240}, {"note": 0, "velocity": 0, "duration": 75}, {"note": 65, "velocity": 97, "duration": 390}, {"note": 0, "velocity": 0, "duration": 76}, {"note": 69, "velocity": 98, "duration": 249}, {"note": 0, "velocity": 0, "duration": 72}, {"note": 72, "velocity": 100, "duration": 225}, {"note": 0, "velocity": 0, "duration": 85}, {"note": 71, "velocity": 97, "duration": 390}, {"note": 69, "velocity": 96, "duration": 392}, {"note": 67, "velocity": 91, "duration": 288}, {"note": 69, "velocity": 100, "duration": 1193}, {"note": 69, "velocity": 90, "duration": 207}, {"note": 67, "velocity": 86, "duration": 161}, {"note": 0, "velocity": 0, "duration": 75}, {"note": 65, "velocity": 92, "duration": 372}, {"note": 69, "velocity": 93, "duration": 359}, {"note": 72, "velocity": 96, "duration": 287}, {"note": 74, "velocity": 98, "duration": 544}, {"note": 71, "velocity": 94, "duration": 441}, {"note": 67, "velocity": 88, "duration": 472}, {"note": 69, "velocity": 96, "duration": 1572}]]