[[{"note": 64, "velocity": 93, "duration": 112}, {"note": 66, "velocity": 85, "duration": 272}, {"note": 0, "velocity": 0, "duration": 88}, {"note": 68, "velocity": 96, "duration": 105}, {"note": 68, "velocity": 94, "duration": 302}, {"note": 68, "velocity": 99, "duration": 98}, {"note": 66, "velocity": 90, "duration": 71}, {"note": 66, "velocity": 91, "duration": 85}, {"note": 68, "velocity": 96, "duration": 421}, {"note": 0, "velocity": 0, "duration": 539}, {"note": 59, "velocity": 90, "duration": 114}, {"note": 64, "velocity": 92, "duration": 137}, {"note": 61, "velocity": 88, "duration": 785}, {"note": 0, "velocity": 0, "duration": 775}, {"note": 64, "velocity": 95, "duration": 72}, {"note": 66, "velocity": 92, "duration": 76}, {"note": 66, "velocity": 81, "duration": 91}, {"note": 68, "velocity": 91, "duration": 320}, {"note": 68, "velocity": 95, "duration": 93}, {"note": 66, "velocity": 85, "duration": 70}, {"note": 71, "velocity": 92, "duration": 87}, {"note": 68, "velocity": 91, "duration": 446}, {"note": 0, "velocity": 0, "duration": 154}, {"note": 71, "velocity": 93, "duration": 228}, {"note": 68, "velocity": 89, "duration": 115}, {"note": 64, "velocity": 90, "duration": 79}, {"note": 61, "velocity": 85, "duration": 1080}, {"note": 0, "velocity": 0, "duration": 480}, {"note": 71, "velocity": 92, "duration": 65}, {"note": 71, "velocity": 94, "duration": 81}, {"note": 68, "velocity": 94, "duration": 69}, {"note": 71, "velocity": 92, "duration": 425}, {"note": 71, "velocity": 95, "duration": 176}, {"note": 0, "velocity": 0, "duration": 64}, {"note": 73, "velocity": 92, "duration": 93}, {"note": 71, "velocity": 91, "duration": 480}, {"note": 0, "velocity": 0, "duration": 360}, {"note": 64, "velocity": 93, "duration": 80}, {"note": 66, "velocity": 91, "duration": 148}, {"note": 0, "velocity": 0, "duration": 92}, {"note": 61, "velocity": 87, "duration": 602}, {"note": 0, "velocity": 0, "duration": 958}, {"note": 64, "velocity": 94, "duration": 79}, {"note": 66, "velocity": 91, "duration": 71}, {"note": 68, "velocity": 93, "duration": 85}, {"note": 66, "velocity": 95, "duration": 69}, {"note": 68, "velocity": 94, "duration": 70}, {"note": 59, "velocity": 92, "duration": 414}, {"note": 0, "velocity": 0, "duration": 546}, {"note": 59, "velocity": 91, "duration": 83}, {"note": 59, "velocity": 92, "duration": 85}, {"note": 66, "velocity": 90, "duration": 360}, {"note": 64, "velocity": 93, "duration": 965}, {"note": 0, "velocity": 0, "duration": 475}, {"note": 64, "velocity": 93, "duration": 112}, {"note": 66, "velocity": 85, "duration": 272}, {"note": 0, "velocity": 0, "duration": 88}, {"note": 66, "velocity": 96, "duration": 105}, {"note": 68, "velocity": 94, "duration": 240}, {"note": 68, "velocity": 91, "duration": 70}, {"note": 68, "velocity": 91, "duration": 64}, {"note": 0, "velocity": 0, "duration": 176}, {"note": 66, "velocity": 93, "duration": 65}, {"note": 71, "velocity": 96, "duration": 246}, {"note": 0, "velocity": 0, "duration": 114}, {"note": 68, "velocity": 93, "duration": 120}, {"note": 68, "velocity": 93, "duration": 120}, {"note": 68, "velocity": 92, "duration": 203}, {"note": 66, "velocity": 92, "duration": 76}, {"note": 64, "velocity": 96, "duration": 237}, {"note": 61, "velocity": 92, "duration": 599}, {"note": 0, "velocity": 0, "duration": 961}, {"note": 64, "velocity": 95, "duration": 72}, {"note": 66, "velocity": 92, "duration": 76}, {"note": 66, "velocity": 81, "duration": 91}, {"note": 68, "velocity": 91, "duration": 320}, {"note": 68, "velocity": 95, "duration": 93}, {"note": 59, "velocity": 85, "duration": 240}, {"note": 0, "velocity": 0, "duration": 120}, {"note": 71, "velocity": 92, "duration": 87}, {"note": 68, "velocity": 91, "duration": 446}, {"note": 0, "velocity": 0, "duration": 274}, {"note": 59, "velocity": 92, "duration": 77}, {"note": 64, "velocity": 92, "duration": 83}, {"note": 61, "velocity": 90, "duration": 543}, {"note": 0, "velocity": 0, "duration": 897}, {"note": 71, "velocity": 92, "duration": 65}, {"note": 71, "velocity": 94, "duration": 81}, {"note": 68, "velocity": 94, "duration": 69}, {"note": 71, "velocity": 92, "duration": 425}, {"note": 71, "velocity": 95, "duration": 176}, {"note": 0, "velocity": 0, "duration": 64}, {"note": 68, "velocity": 91, "duration": 88}, {"note": 68, "velocity": 90, "duration": 205}, {"note": 71, "velocity": 91, "duration": 456}, {"note": 0, "velocity": 0, "duration": 264}, {"note": 59, "velocity": 93, "duration": 80}, {"note": 64, "velocity": 91, "duration": 148}, {"note": 0, "velocity": 0, "duration": 92}, {"note": 61, "velocity": 87, "duration": 602}, {"note": 0, "velocity": 0, "duration": 838}, {"note": 64, "velocity": 94, "duration": 79}, {"note": 66, "velocity": 91, "duration": 71}, {"note": 68, "velocity": 93, "duration": 85}, {"note": 59, "velocity": 92, "duration": 720}, {"note": 0, "velocity": 0, "duration": 600}, {"note": 59, "velocity": 92, "duration": 85}, {"note": 66, "velocity": 90, "duration": 360}, {"note": 64, "velocity": 93, "duration": 965}, {"note": 0, "velocity": 0, "duration": 355}, {"note": 68, "velocity": 94, "duration": 74}, {"note": 68, "velocity": 89, "duration": 84}, {"note": 71, "velocity": 92, "duration": 193}, {"note": 71, "velocity": 91, "duration": 63}, {"note": 71, "velocity": 96, "duration": 77}, {"note": 73, "velocity": 94, "duration": 579}, {"note": 0, "velocity": 0, "duration": 141}, {"note": 71, "velocity": 94, "duration": 63}, {"note": 73, "velocity": 94, "duration": 93}, {"note": 76, "velocity": 92, "duration": 123}, {"note": 0, "velocity": 0, "duration": 117}, {"note": 76, "velocity": 92, "duration": 64}, {"note": 76, "velocity": 93, "duration": 158}, {"note": 0, "velocity": 0, "duration": 82}, {"note": 73, "velocity": 92, "duration": 65}, {"note": 68, "velocity": 96, "duration": 73}, {"note": 71, "velocity": 92, "duration": 490}, {"note": 0, "velocity": 0, "duration": 830}, {"note": 68, "velocity": 94, "duration": 68}, {"note": 68, "velocity": 91, "duration": 87}, {"note": 0, "velocity": 0, "duration": 153}, {"note": 71, "velocity": 92, "duration": 78}, {"note": 71, "velocity": 94, "duration": 73}, {"note": 71, "velocity": 94, "duration": 91}, {"note": 73, "velocity": 90, "duration": 71}, {"note": 73, "velocity": 86, "duration": 70}, {"note": 73, "velocity": 86, "duration": 65}, {"note": 73, "velocity": 96, "duration": 177}, {"note": 0, "velocity": 0, "duration": 63}, {"note": 71, "velocity": 92, "duration": 82}, {"note": 78, "velocity": 93, "duration": 173}, {"note": 0, "velocity": 0, "duration": 67}, {"note": 76, "velocity": 97, "duration": 185}, {"note": 0, "velocity": 0, "duration": 175}, {"note": 73, "velocity": 94, "duration": 166}, {"note": 0, "velocity": 0, "duration": 74}, {"note": 71, "velocity": 94, "duration": 79}, {"note": 66, "velocity": 94, "duration": 64}, {"note": 68, "velocity": 92, "duration": 729}, {"note": 0, "velocity": 0, "duration": 831}, {"note": 68, "velocity": 90, "duration": 81}, {"note": 66, "velocity": 99, "duration": 84}, {"note": 64, "velocity": 94, "duration": 68}, {"note": 66, "velocity": 96, "duration": 160}, {"note": 0, "velocity": 0, "duration": 80}, {"note": 68, "velocity": 96, "duration": 71}, {"note": 66, "velocity": 97, "duration": 360}, {"note": 64, "velocity": 94, "duration": 71}, {"note": 66, "velocity": 91, "duration": 261}, {"note": 0, "velocity": 0, "duration": 99}, {"note": 59, "velocity": 90, "duration": 56}, {"note": 0, "velocity": 0, "duration": 64}, {"note": 59, "velocity": 93, "duration": 95}, {"note": 73, "velocity": 94, "duration": 149}, {"note": 0, "velocity": 0, "duration": 91}, {"note": 71, "velocity": 92, "duration": 68}, {"note": 68, "velocity": 92, "duration": 87}, {"note": 66, "velocity": 94, "duration": 120}, {"note": 68, "velocity": 94, "duration": 559}, {"note": 0, "velocity": 0, "duration": 881}, {"note": 68, "velocity": 101, "duration": 62}, {"note": 66, "velocity": 94, "duration": 69}, {"note": 64, "velocity": 91, "duration": 68}, {"note": 66, "velocity": 91, "duration": 72}, {"note": 66, "velocity": 85, "duration": 206}, {"note": 0, "velocity": 0, "duration": 154}, {"note": 66, "velocity": 95, "duration": 149}, {"note": 64, "velocity": 93, "duration": 67}, {"note": 66, "velocity": 94, "duration": 480}, {"note": 0, "velocity": 0, "duration": 240}, {"note": 61, "velocity": 94, "duration": 191}, {"note": 64, "velocity": 96, "duration": 94}, {"note": 66, "velocity": 91, "duration": 88}, {"note": 64, "velocity": 96, "duration": 1308}, {"note": 0, "velocity": 0, "duration": 15492}, {"note": 64, "velocity": 93, "duration": 112}, {"note": 66, "velocity": 85, "duration": 272}, {"note": 0, "velocity": 0, "duration": 88}, {"note": 66, "velocity": 96, "duration": 105}, {"note": 68, "velocity": 94, "duration": 240}, {"note": 68, "velocity": 91, "duration": 70}, {"note": 68, "velocity": 91, "duration": 64}, {"note": 0, "velocity": 0, "duration": 176}, {"note": 66, "velocity": 93, "duration": 65}, {"note": 71, "velocity": 96, "duration": 246}, {"note": 0, "velocity": 0, "duration": 114}, {"note": 68, "velocity": 93, "duration": 120}, {"note": 68, "velocity": 93, "duration": 120}, {"note": 68, "velocity": 92, "duration": 203}, {"note": 66, "velocity": 92, "duration": 76}, {"note": 64, "velocity": 96, "duration": 237}, {"note": 61, "velocity": 92, "duration": 599}, {"note": 0, "velocity": 0, "duration": 961}, {"note": 64, "velocity": 95, "duration": 72}, {"note": 66, "velocity": 92, "duration": 76}, {"note": 66, "velocity": 81, "duration": 91}, {"note": 68, "velocity": 91, "duration": 320}, {"note": 68, "velocity": 95, "duration": 93}, {"note": 59, "velocity": 85, "duration": 240}, {"note": 0, "velocity": 0, "duration": 120}, {"note": 71, "velocity": 92, "duration": 87}, {"note": 68, "velocity": 91, "duration": 446}, {"note": 0, "velocity": 0, "duration": 274}, {"note": 59, "velocity": 92, "duration": 77}, {"note": 64, "velocity": 92, "duration": 83}, {"note": 61, "velocity": 90, "duration": 543}, {"note": 0, "velocity": 0, "duration": 897}, {"note": 71, "velocity": 92, "duration": 65}, {"note": 71, "velocity": 94, "duration": 81}, {"note": 68, "velocity": 94, "duration": 69}, {"note": 71, "velocity": 92, "duration": 425}, {"note": 71, "velocity": 95, "duration": 176}, {"note": 0, "velocity": 0, "duration": 64}, {"note": 68, "velocity": 91, "duration": 88}, {"note": 68, "velocity": 90, "duration": 205}, {"note": 71, "velocity": 91, "duration": 456}, {"note": 0, "velocity": 0, "duration": 264}, {"note": 59, "velocity": 93, "duration": 80}, {"note": 64, "velocity": 91, "duration": 148}, {"note": 0, "velocity": 0, "duration": 92}, {"note": 61, "velocity": 87, "duration": 602}, {"note": 0, "velocity": 0, "duration": 838}, {"note": 64, "velocity": 94, "duration": 79}, {"note": 66, "velocity": 91, "duration": 71}, {"note": 68, "velocity": 93, "duration": 85}, {"note": 59, "velocity": 92, "duration": 720}, {"note": 0, "velocity": 0, "duration": 600}, {"note": 59, "velocity": 92, "duration": 85}, {"note": 66, "velocity": 90, "duration": 360}, {"note": 64, "velocity": 93, "duration": 965}, {"note": 0, "velocity": 0, "duration": 355}, {"note": 68, "velocity": 94, "duration": 74}, {"note": 68, "velocity": 89, "duration": 84}, {"note": 71, "velocity": 92, "duration": 193}, {"note": 71, "velocity": 91, "duration": 63}, {"note": 71, "velocity": 96, "duration": 77}, {"note": 73, "velocity": 94, "duration": 579}, {"note": 0, "velocity": 0, "duration": 141}, {"note": 71, "velocity": 94, "duration": 63}, {"note": 73, "velocity": 94, "duration": 93}, {"note": 76, "velocity": 92, "duration": 123}, {"note": 0, "velocity": 0, "duration": 117}, {"note": 76, "velocity": 92, "duration": 64}, {"note": 76, "velocity": 93, "duration": 158}, {"note": 0, "velocity": 0, "duration": 82}, {"note": 73, "velocity": 92, "duration": 65}, {"note": 68, "velocity": 96, "duration": 73}, {"note": 71, "velocity": 92, "duration": 490}, {"note": 0, "velocity": 0, "duration": 830}, {"note": 68, "velocity": 94, "duration": 68}, {"note": 68, "velocity": 91, "duration": 87}, {"note": 0, "velocity": 0, "duration": 153}, {"note": 71, "velocity": 92, "duration": 78}, {"note": 71, "velocity": 94, "duration": 73}, {"note": 71, "velocity": 94, "duration": 91}, {"note": 73, "velocity": 90, "duration": 71}, {"note": 73, "velocity": 86, "duration": 70}, {"note": 73, "velocity": 86, "duration": 65}, {"note": 73, "velocity": 96, "duration": 177}, {"note": 0, "velocity": 0, "duration": 63}, {"note": 71, "velocity": 92, "duration": 82}, {"note": 78, "velocity": 93, "duration": 173}, {"note": 0, "velocity": 0, "duration": 67}, {"note": 76, "velocity": 97, "duration": 185}, {"note": 0, "velocity": 0, "duration": 175}, {"note": 73, "velocity": 94, "duration": 166}, {"note": 0, "velocity": 0, "duration": 74}, {"note": 71, "velocity": 94, "duration": 79}, {"note": 66, "velocity": 94, "duration": 64}, {"note": 68, "velocity": 92, "duration": 729}, {"note": 0, "velocity": 0, "duration": 831}, {"note": 68, "velocity": 90, "duration": 81}, {"note": 66, "velocity": 99, "duration": 84}, {"note": 64, "velocity": 94, "duration": 68}, {"note": 66, "velocity": 96, "duration": 160}, {"note": 0, "velocity": 0, "duration": 80}, {"note": 68, "velocity": 96, "duration": 71}, {"note": 66, "velocity": 97, "duration": 360}, {"note": 64, "velocity": 94, "duration": 71}, {"note": 66, "velocity": 91, "duration": 261}, {"note": 0, "velocity": 0, "duration": 99}, {"note": 59, "velocity": 90, "duration": 56}, {"note": 0, "velocity": 0, "duration": 64}, {"note": 59, "velocity": 93, "duration": 95}, {"note": 73, "velocity": 94, "duration": 149}, {"note": 0, "velocity": 0, "duration": 91}, {"note": 71, "velocity": 92, "duration": 68}, {"note": 68, "velocity": 92, "duration": 87}, {"note": 66, "velocity": 94, "duration": 120}, {"note": 68, "velocity": 94, "duration": 559}, {"note": 0, "velocity": 0, "duration": 881}, {"note": 68, "velocity": 101, "duration": 62}, {"note": 66, "velocity": 94, "duration": 69}, {"note": 64, "velocity": 91, "duration": 68}, {"note": 66, "velocity": 91, "duration": 72}, {"note": 66, "velocity": 85, "duration": 206}, {"note": 0, "velocity": 0, "duration": 154}, {"note": 66, "velocity": 95, "duration": 149}, {"note": 64, "velocity": 93, "duration": 67}, {"note": 66, "velocity": 94, "duration": 480}, {"note": 0, "velocity": 0, "duration": 240}, {"note": 61, "velocity": 94, "duration": 191}, {"note": 64, "velocity": 96, "duration": 94}, {"note": 66, "velocity": 91, "duration": 88}, {"note": 64, "velocity": 96, "duration": 1308}, {"note": 0, "velocity": 0, "duration": 30732}, {"note": 68, "velocity": 94, "duration": 74}, {"note": 68, "velocity": 89, "duration": 84}, {"note": 71, "velocity": 92, "duration": 193}, {"note": 71, "velocity": 91, "duration": 63}, {"note": 71, "velocity": 96, "duration": 77}, {"note": 73, "velocity": 94, "duration": 579}, {"note": 0, "velocity": 0, "duration": 141}, {"note": 71, "velocity": 94, "duration": 63}, {"note": 73, "velocity": 94, "duration": 93}, {"note": 76, "velocity": 92, "duration": 123}, {"note": 0, "velocity": 0, "duration": 117}, {"note": 76, "velocity": 92, "duration": 64}, {"note": 76, "velocity": 93, "duration": 158}, {"note": 0, "velocity": 0, "duration": 82}, {"note": 73, "velocity": 92, "duration": 65}, {"note": 68, "velocity": 96, "duration": 73}, {"note": 71, "velocity": 92, "duration": 490}, {"note": 0, "velocity": 0, "duration": 830}, {"note": 68, "velocity": 94, "duration": 68}, {"note": 68, "velocity": 91, "duration": 87}, {"note": 0, "velocity": 0, "duration": 153}, {"note": 71, "velocity": 92, "duration": 78}, {"note": 71, "velocity": 94, "duration": 73}, {"note": 71, "velocity": 94, "duration": 91}, {"note": 73, "velocity": 90, "duration": 71}, {"note": 73, "velocity": 86, "duration": 70}, {"note": 73, "velocity": 86, "duration": 65}, {"note": 73, "velocity": 96, "duration": 177}, {"note": 0, "velocity": 0, "duration": 63}, {"note": 71, "velocity": 92, "duration": 82}, {"note": 78, "velocity": 93, "duration": 173}, {"note": 0, "velocity": 0, "duration": 67}, {"note": 76, "velocity": 97, "duration": 185}, {"note": 0, "velocity": 0, "duration": 175}, {"note": 73, "velocity": 94, "duration": 166}, {"note": 0, "velocity": 0, "duration": 74}, {"note": 71, "velocity": 94, "duration": 79}, {"note": 66, "velocity": 94, "duration": 64}, {"note": 68, "velocity": 92, "duration": 729}, {"note": 0, "velocity": 0, "duration": 831}, {"note": 68, "velocity": 90, "duration": 81}, {"note": 66, "velocity": 99, "duration": 84}, {"note": 64, "velocity": 94, "duration": 68}, {"note": 66, "velocity": 96, "duration": 160}, {"note": 0, "velocity": 0, "duration": 80}, {"note": 68, "velocity": 96, "duration": 71}, {"note": 66, "velocity": 97, "duration": 360}, {"note": 64, "velocity": 94, "duration": 71}, {"note": 66, "velocity": 91, "duration": 261}, {"note": 0, "velocity": 0, "duration": 99}, {"note": 59, "velocity": 90, "duration": 56}, {"note": 0, "velocity": 0, "duration": 64}, {"note": 59, "velocity": 93, "duration": 95}, {"note": 73, "velocity": 94, "duration": 149}, {"note": 0, "velocity": 0, "duration": 91}, {"note": 71, "velocity": 92, "duration": 68}, {"note": 68, "velocity": 92, "duration": 87}, {"note": 66, "velocity": 94, "duration": 120}, {"note": 68, "velocity": 94, "duration": 559}, {"note": 0, "velocity": 0, "duration": 881}, {"note": 68, "velocity": 101, "duration": 62}, {"note": 66, "velocity": 94, "duration": 69}, {"note": 64, "velocity": 91, "duration": 68}, {"note": 66, "velocity": 91, "duration": 72}, {"note": 66, "velocity": 85, "duration": 206}, {"note": 0, "velocity": 0, "duration": 154}, {"note": 66, "velocity": 95, "duration": 149}, {"note": 64, "velocity": 93, "duration": 67}, {"note": 66, "velocity": 94, "duration": 480}, {"note": 0, "velocity": 0, "duration": 240}, {"note": 61, "velocity": 94, "duration": 191}, {"note": 64, "velocity": 96, "duration": 94}, {"note": 66, "velocity": 91, "duration": 88}, {"note": 64, "velocity": 96, "duration": 1308}, {"note": 0, "velocity": 0, "duration": 132}, {"note": 64, "velocity": 93, "duration": 112}, {"note": 66, "velocity": 85, "duration": 272}, {"note": 0, "velocity": 0, "duration": 88}, {"note": 68, "velocity": 96, "duration": 105}, {"note": 68, "velocity": 94, "duration": 302}, {"note": 68, "velocity": 99, "duration": 98}, {"note": 66, "velocity": 90, "duration": 71}, {"note": 66, "velocity": 91, "duration": 85}, {"note": 68, "velocity": 96, "duration": 421}, {"note": 0, "velocity": 0, "duration": 539}, {"note": 59, "velocity": 90, "duration": 114}, {"note": 64, "velocity": 92, "duration": 137}, {"note": 61, "velocity": 88, "duration": 785}, {"note": 0, "velocity": 0, "duration": 775}, {"note": 64, "velocity": 95, "duration": 72}, {"note": 66, "velocity": 92, "duration": 76}, {"note": 66, "velocity": 81, "duration": 91}, {"note": 68, "velocity": 91, "duration": 320}, {"note": 68, "velocity": 95, "duration": 93}, {"note": 66, "velocity": 85, "duration": 70}, {"note": 71, "velocity": 92, "duration": 87}, {"note": 68, "velocity": 91, "duration": 446}, {"note": 0, "velocity": 0, "duration": 154}, {"note": 71, "velocity": 93, "duration": 228}, {"note": 68, "velocity": 89, "duration": 115}, {"note": 64, "velocity": 90, "duration": 79}, {"note": 61, "velocity": 85, "duration": 1080}, {"note": 0, "velocity": 0, "duration": 480}, {"note": 71, "velocity": 92, "duration": 65}, {"note": 71, "velocity": 94, "duration": 81}, {"note": 68, "velocity": 94, "duration": 69}, {"note": 71, "velocity": 92, "duration": 425}, {"note": 71, "velocity": 95, "duration": 176}, {"note": 0, "velocity": 0, "duration": 64}, {"note": 73, "velocity": 92, "duration": 93}, {"note": 71, "velocity": 91, "duration": 480}, {"note": 0, "velocity": 0, "duration": 360}, {"note": 64, "velocity": 93, "duration": 80}, {"note": 66, "velocity": 91, "duration": 148}, {"note": 0, "velocity": 0, "duration": 92}, {"note": 61, "velocity": 87, "duration": 602}, {"note": 0, "velocity": 0, "duration": 1024}, {"note": 64, "velocity": 90, "duration": 135}, {"note": 66, "velocity": 90, "duration": 84}, {"note": 68, "velocity": 90, "duration": 120}, {"note": 66, "velocity": 90, "duration": 92}, {"note": 0, "velocity": 0, "duration": 66}, {"note": 68, "velocity": 97, "duration": 105}, {"note": 0, "velocity": 0, "duration": 78}, {"note": 59, "velocity": 92, "duration": 742}, {"note": 0, "velocity": 0, "duration": 657}, {"note": 59, "velocity": 92, "duration": 144}, {"note": 59, "velocity": 94, "duration": 130}, {"note": 66, "velocity": 80, "duration": 509}, {"note": 64, "velocity": 92, "duration": 1316}]]