[[{"note": 82, "velocity": 91, "duration": 156}, {"note": 0, "velocity": 0, "duration": 84}, {"note": 82, "velocity": 93, "duration": 148}, {"note": 0, "velocity": 0, "duration": 92}, {"note": 82, "velocity": 100, "duration": 632}, {"note": 0, "velocity": 0, "duration": 328}, {"note": 82, "velocity": 93, "duration": 204}, {"note": 84, "velocity": 96, "duration": 177}, {"note": 0, "velocity": 0, "duration": 63}, {"note": 82, "velocity": 90, "duration": 137}, {"note": 0, "velocity": 0, "duration": 103}, {"note": 79, "velocity": 93, "duration": 440}, {"note": 77, "velocity": 103, "duration": 516}, {"note": 75, "velocity": 95, "duration": 470}, {"note": 0, "velocity": 0, "duration": 250}, {"note": 67, "velocity": 85, "duration": 181}, {"note": 72, "velocity": 89, "duration": 227}, {"note": 75, "velocity": 87, "duration": 211}, {"note": 72, "velocity": 86, "duration": 725}, {"note": 70, "velocity": 89, "duration": 1347}, {"note": 0, "velocity": 0, "duration": 2973}, {"note": 72, "velocity": 95, "duration": 137}, {"note": 0, "velocity": 0, "duration": 103}, {"note": 72, "velocity": 98, "duration": 128}, {"note": 0, "velocity": 0, "duration": 112}, {"note": 72, "velocity": 93, "duration": 211}, {"note": 75, "velocity": 95, "duration": 628}, {"note": 0, "velocity": 0, "duration": 332}, {"note": 77, "velocity": 105, "duration": 251}, {"note": 84, "velocity": 96, "duration": 378}, {"note": 0, "velocity": 0, "duration": 102}, {"note": 82, "velocity": 91, "duration": 142}, {"note": 0, "velocity": 0, "duration": 98}, {"note": 79, "velocity": 91, "duration": 186}, {"note": 77, "velocity": 96, "duration": 170}, {"note": 0, "velocity": 0, "duration": 70}, {"note": 79, "velocity": 100, "duration": 1192}, {"note": 0, "velocity": 0, "duration": 3368}, {"note": 77, "velocity": 95, "duration": 141}, {"note": 0, "velocity": 0, "duration": 99}, {"note": 77, "velocity": 94, "duration": 124}, {"note": 0, "velocity": 0, "duration": 116}, {"note": 77, "velocity": 95, "duration": 158}, {"note": 0, "velocity": 0, "duration": 82}, {"note": 82, "velocity": 91, "duration": 578}, {"note": 0, "velocity": 0, "duration": 382}, {"note": 79, "velocity": 90, "duration": 146}, {"note": 0, "velocity": 0, "duration": 94}, {"note": 79, "velocity": 89, "duration": 186}, {"note": 77, "velocity": 94, "duration": 141}, {"note": 0, "velocity": 0, "duration": 99}, {"note": 79, "velocity": 93, "duration": 187}, {"note": 77, "velocity": 96, "duration": 223}, {"note": 75, "velocity": 89, "duration": 188}, {"note": 72, "velocity": 84, "duration": 2640}, {"note": 0, "velocity": 0, "duration": 720}, {"note": 70, "velocity": 95, "duration": 158}, {"note": 0, "velocity": 0, "duration": 82}, {"note": 70, "velocity": 90, "duration": 174}, {"note": 0, "velocity": 0, "duration": 66}, {"note": 72, "velocity": 100, "duration": 1280}, {"note": 0, "velocity": 0, "duration": 160}, {"note": 72, "velocity": 100, "duration": 224}, {"note": 79, "velocity": 91, "duration": 205}, {"note": 77, "velocity": 93, "duration": 743}, {"note": 79, "velocity": 93, "duration": 169}, {"note": 0, "velocity": 0, "duration": 71}, {"note": 70, "velocity": 93, "duration": 128}, {"note": 0, "velocity": 0, "duration": 112}, {"note": 67, "velocity": 93, "duration": 169}, {"note": 0, "velocity": 0, "duration": 71}, {"note": 70, "velocity": 89, "duration": 168}, {"note": 0, "velocity": 0, "duration": 72}, {"note": 77, "velocity": 93, "duration": 179}, {"note": 0, "velocity": 0, "duration": 61}, {"note": 75, "velocity": 95, "duration": 2012}, {"note": 0, "velocity": 0, "duration": 1828}, {"note": 72, "velocity": 96, "duration": 608}, {"note": 0, "velocity": 0, "duration": 112}, {"note": 72, "velocity": 93, "duration": 159}, {"note": 0, "velocity": 0, "duration": 81}, {"note": 72, "velocity": 96, "duration": 174}, {"note": 0, "velocity": 0, "duration": 66}, {"note": 75, "velocity": 96, "duration": 125}, {"note": 0, "velocity": 0, "duration": 115}, {"note": 77, "velocity": 95, "duration": 127}, {"note": 0, "velocity": 0, "duration": 113}, {"note": 79, "velocity": 96, "duration": 401}, {"note": 0, "velocity": 0, "duration": 79}, {"note": 72, "velocity": 103, "duration": 1474}, {"note": 0, "velocity": 0, "duration": 206}, {"note": 72, "velocity": 96, "duration": 584}, {"note": 0, "velocity": 0, "duration": 136}, {"note": 72, "velocity": 100, "duration": 133}, {"note": 0, "velocity": 0, "duration": 107}, {"note": 72, "velocity": 93, "duration": 163}, {"note": 0, "velocity": 0, "duration": 77}, {"note": 75, "velocity": 100, "duration": 132}, {"note": 0, "velocity": 0, "duration": 108}, {"note": 77, "velocity": 93, "duration": 159}, {"note": 0, "velocity": 0, "duration": 81}, {"note": 79, "velocity": 96, "duration": 333}, {"note": 0, "velocity": 0, "duration": 147}, {"note": 79, "velocity": 96, "duration": 1323}, {"note": 0, "velocity": 0, "duration": 357}, {"note": 79, "velocity": 93, "duration": 323}, {"note": 0, "velocity": 0, "duration": 157}, {"note": 79, "velocity": 96, "duration": 170}, {"note": 0, "velocity": 0, "duration": 70}, {"note": 77, "velocity": 95, "duration": 141}, {"note": 0, "velocity": 0, "duration": 99}, {"note": 79, "velocity": 98, "duration": 421}, {"note": 77, "velocity": 91, "duration": 182}, {"note": 79, "velocity": 96, "duration": 806}, {"note": 0, "velocity": 0, "duration": 154}, {"note": 79, "velocity": 96, "duration": 172}, {"note": 0, "velocity": 0, "duration": 68}, {"note": 84, "velocity": 95, "duration": 328}, {"note": 0, "velocity": 0, "duration": 152}, {"note": 84, "velocity": 93, "duration": 159}, {"note": 0, "velocity": 0, "duration": 81}, {"note": 82, "velocity": 94, "duration": 407}, {"note": 0, "velocity": 0, "duration": 73}, {"note": 79, "velocity": 90, "duration": 200}, {"note": 82, "velocity": 91, "duration": 3085}, {"note": 0, "velocity": 0, "duration": 275}, {"note": 79, "velocity": 96, "duration": 166}, {"note": 0, "velocity": 0, "duration": 74}, {"note": 82, "velocity": 98, "duration": 350}, {"note": 0, "velocity": 0, "duration": 130}, {"note": 82, "velocity": 91, "duration": 138}, {"note": 0, "velocity": 0, "duration": 102}, {"note": 82, "velocity": 93, "duration": 155}, {"note": 0, "velocity": 0, "duration": 85}, {"note": 79, "velocity": 94, "duration": 192}, {"note": 77, "velocity": 96, "duration": 165}, {"note": 0, "velocity": 0, "duration": 75}, {"note": 79, "velocity": 100, "duration": 1178}, {"note": 79, "velocity": 100, "duration": 364}, {"note": 0, "velocity": 0, "duration": 116}, {"note": 75, "velocity": 100, "duration": 151}, {"note": 0, "velocity": 0, "duration": 89}, {"note": 77, "velocity": 93, "duration": 209}, {"note": 75, "velocity": 93, "duration": 220}, {"note": 72, "velocity": 95, "duration": 2040}, {"note": 0, "velocity": 0, "duration": 1560}, {"note": 67, "velocity": 91, "duration": 209}, {"note": 70, "velocity": 89, "duration": 251}, {"note": 72, "velocity": 91, "duration": 233}, {"note": 70, "velocity": 95, "duration": 278}, {"note": 72, "velocity": 96, "duration": 220}, {"note": 75, "velocity": 96, "duration": 228}, {"note": 77, "velocity": 90, "duration": 260}, {"note": 79, "velocity": 93, "duration": 282}, {"note": 77, "velocity": 105, "duration": 493}, {"note": 0, "velocity": 0, "duration": 227}, {"note": 77, "velocity": 93, "duration": 150}, {"note": 0, "velocity": 0, "duration": 90}, {"note": 77, "velocity": 95, "duration": 220}, {"note": 79, "velocity": 95, "duration": 237}, {"note": 75, "velocity": 103, "duration": 240}, {"note": 72, "velocity": 91, "duration": 276}, {"note": 75, "velocity": 98, "duration": 2430}, {"note": 0, "velocity": 0, "duration": 15570}, {"note": 82, "velocity": 91, "duration": 156}, {"note": 0, "velocity": 0, "duration": 84}, {"note": 82, "velocity": 93, "duration": 148}, {"note": 0, "velocity": 0, "duration": 92}, {"note": 82, "velocity": 100, "duration": 632}, {"note": 0, "velocity": 0, "duration": 328}, {"note": 82, "velocity": 93, "duration": 204}, {"note": 84, "velocity": 96, "duration": 177}, {"note": 0, "velocity": 0, "duration": 63}, {"note": 82, "velocity": 90, "duration": 137}, {"note": 0, "velocity": 0, "duration": 103}, {"note": 79, "velocity": 93, "duration": 440}, {"note": 77, "velocity": 103, "duration": 516}, {"note": 75, "velocity": 95, "duration": 470}, {"note": 0, "velocity": 0, "duration": 250}, {"note": 67, "velocity": 85, "duration": 181}, {"note": 72, "velocity": 89, "duration": 227}, {"note": 75, "velocity": 87, "duration": 211}, {"note": 72, "velocity": 86, "duration": 725}, {"note": 70, "velocity": 89, "duration": 1347}, {"note": 0, "velocity": 0, "duration": 2973}, {"note": 72, "velocity": 95, "duration": 137}, {"note": 0, "velocity": 0, "duration": 103}, {"note": 72, "velocity": 98, "duration": 128}, {"note": 0, "velocity": 0, "duration": 112}, {"note": 72, "velocity": 93, "duration": 211}, {"note": 75, "velocity": 95, "duration": 628}, {"note": 0, "velocity": 0, "duration": 332}, {"note": 77, "velocity": 105, "duration": 251}, {"note": 84, "velocity": 96, "duration": 378}, {"note": 0, "velocity": 0, "duration": 102}, {"note": 82, "velocity": 91, "duration": 142}, {"note": 0, "velocity": 0, "duration": 98}, {"note": 79, "velocity": 91, "duration": 186}, {"note": 77, "velocity": 96, "duration": 170}, {"note": 0, "velocity": 0, "duration": 70}, {"note": 79, "velocity": 100, "duration": 1192}, {"note": 0, "velocity": 0, "duration": 3368}, {"note": 77, "velocity": 95, "duration": 141}, {"note": 0, "velocity": 0, "duration": 99}, {"note": 77, "velocity": 94, "duration": 124}, {"note": 0, "velocity": 0, "duration": 116}, {"note": 77, "velocity": 95, "duration": 158}, {"note": 0, "velocity": 0, "duration": 82}, {"note": 82, "velocity": 91, "duration": 578}, {"note": 0, "velocity": 0, "duration": 382}, {"note": 79, "velocity": 90, "duration": 146}, {"note": 0, "velocity": 0, "duration": 94}, {"note": 79, "velocity": 89, "duration": 186}, {"note": 77, "velocity": 94, "duration": 141}, {"note": 0, "velocity": 0, "duration": 99}, {"note": 79, "velocity": 93, "duration": 187}, {"note": 77, "velocity": 96, "duration": 223}, {"note": 75, "velocity": 89, "duration": 188}, {"note": 72, "velocity": 84, "duration": 2640}, {"note": 0, "velocity": 0, "duration": 720}, {"note": 70, "velocity": 95, "duration": 158}, {"note": 0, "velocity": 0, "duration": 82}, {"note": 70, "velocity": 90, "duration": 174}, {"note": 0, "velocity": 0, "duration": 66}, {"note": 72, "velocity": 100, "duration": 1280}, {"note": 0, "velocity": 0, "duration": 160}, {"note": 72, "velocity": 100, "duration": 224}, {"note": 79, "velocity": 91, "duration": 205}, {"note": 77, "velocity": 93, "duration": 743}, {"note": 79, "velocity": 93, "duration": 169}, {"note": 0, "velocity": 0, "duration": 71}, {"note": 70, "velocity": 93, "duration": 128}, {"note": 0, "velocity": 0, "duration": 112}, {"note": 67, "velocity": 93, "duration": 169}, {"note": 0, "velocity": 0, "duration": 71}, {"note": 70, "velocity": 89, "duration": 168}, {"note": 0, "velocity": 0, "duration": 72}, {"note": 77, "velocity": 93, "duration": 179}, {"note": 0, "velocity": 0, "duration": 61}, {"note": 75, "velocity": 95, "duration": 2012}, {"note": 0, "velocity": 0, "duration": 1828}, {"note": 72, "velocity": 96, "duration": 608}, {"note": 0, "velocity": 0, "duration": 112}, {"note": 72, "velocity": 93, "duration": 159}, {"note": 0, "velocity": 0, "duration": 81}, {"note": 72, "velocity": 96, "duration": 174}, {"note": 0, "velocity": 0, "duration": 66}, {"note": 75, "velocity": 96, "duration": 125}, {"note": 0, "velocity": 0, "duration": 115}, {"note": 77, "velocity": 95, "duration": 127}, {"note": 0, "velocity": 0, "duration": 113}, {"note": 79, "velocity": 96, "duration": 401}, {"note": 0, "velocity": 0, "duration": 79}, {"note": 72, "velocity": 103, "duration": 1474}, {"note": 0, "velocity": 0, "duration": 206}, {"note": 72, "velocity": 96, "duration": 584}, {"note": 0, "velocity": 0, "duration": 136}, {"note": 72, "velocity": 100, "duration": 133}, {"note": 0, "velocity": 0, "duration": 107}, {"note": 72, "velocity": 93, "duration": 163}, {"note": 0, "velocity": 0, "duration": 77}, {"note": 75, "velocity": 100, "duration": 132}, {"note": 0, "velocity": 0, "duration": 108}, {"note": 77, "velocity": 93, "duration": 159}, {"note": 0, "velocity": 0, "duration": 81}, {"note": 79, "velocity": 96, "duration": 333}, {"note": 0, "velocity": 0, "duration": 147}, {"note": 79, "velocity": 96, "duration": 1323}, {"note": 0, "velocity": 0, "duration": 357}, {"note": 79, "velocity": 93, "duration": 323}, {"note": 0, "velocity": 0, "duration": 157}, {"note": 79, "velocity": 96, "duration": 170}, {"note": 0, "velocity": 0, "duration": 70}, {"note": 77, "velocity": 95, "duration": 141}, {"note": 0, "velocity": 0, "duration": 99}, {"note": 79, "velocity": 98, "duration": 421}, {"note": 77, "velocity": 91, "duration": 182}, {"note": 79, "velocity": 96, "duration": 806}, {"note": 0, "velocity": 0, "duration": 154}, {"note": 79, "velocity": 96, "duration": 172}, {"note": 0, "velocity": 0, "duration": 68}, {"note": 84, "velocity": 95, "duration": 328}, {"note": 0, "velocity": 0, "duration": 152}, {"note": 84, "velocity": 93, "duration": 159}, {"note": 0, "velocity": 0, "duration": 81}, {"note": 82, "velocity": 94, "duration": 407}, {"note": 0, "velocity": 0, "duration": 73}, {"note": 79, "velocity": 90, "duration": 200}, {"note": 82, "velocity": 91, "duration": 3085}, {"note": 0, "velocity": 0, "duration": 275}, {"note": 79, "velocity": 96, "duration": 166}, {"note": 0, "velocity": 0, "duration": 74}, {"note": 82, "velocity": 98, "duration": 350}, {"note": 0, "velocity": 0, "duration": 130}, {"note": 82, "velocity": 91, "duration": 138}, {"note": 0, "velocity": 0, "duration": 102}, {"note": 82, "velocity": 93, "duration": 155}, {"note": 0, "velocity": 0, "duration": 85}, {"note": 79, "velocity": 94, "duration": 192}, {"note": 77, "velocity": 96, "duration": 165}, {"note": 0, "velocity": 0, "duration": 75}, {"note": 79, "velocity": 100, "duration": 1178}, {"note": 79, "velocity": 100, "duration": 364}, {"note": 0, "velocity": 0, "duration": 116}, {"note": 75, "velocity": 100, "duration": 151}, {"note": 0, "velocity": 0, "duration": 89}, {"note": 77, "velocity": 93, "duration": 209}, {"note": 75, "velocity": 93, "duration": 220}, {"note": 72, "velocity": 95, "duration": 2040}, {"note": 0, "velocity": 0, "duration": 1560}, {"note": 67, "velocity": 91, "duration": 209}, {"note": 70, "velocity": 89, "duration": 251}, {"note": 72, "velocity": 91, "duration": 233}, {"note": 70, "velocity": 95, "duration": 278}, {"note": 72, "velocity": 96, "duration": 220}, {"note": 75, "velocity": 96, "duration": 228}, {"note": 77, "velocity": 90, "duration": 260}, {"note": 79, "velocity": 93, "duration": 282}, {"note": 77, "velocity": 105, "duration": 493}, {"note": 0, "velocity": 0, "duration": 227}, {"note": 77, "velocity": 93, "duration": 150}, {"note": 0, "velocity": 0, "duration": 90}, {"note": 77, "velocity": 95, "duration": 220}, {"note": 79, "velocity": 95, "duration": 237}, {"note": 75, "velocity": 103, "duration": 240}, {"note": 72, "velocity": 91, "duration": 276}, {"note": 75, "velocity": 98, "duration": 2430}]]