[[{"note": 67, "velocity": 60, "duration": 204}, {"note": 65, "velocity": 60, "duration": 63}, {"note": 67, "velocity": 67, "duration": 258}, {"note": 0, "velocity": 0, "duration": 102}, {"note": 67, "velocity": 69, "duration": 399}, {"note": 0, "velocity": 0, "duration": 81}, {"note": 65, "velocity": 72, "duration": 134}, {"note": 0, "velocity": 0, "duration": 106}, {"note": 67, "velocity": 61, "duration": 430}, {"note": 69, "velocity": 65, "duration": 100}, {"note": 0, "velocity": 0, "duration": 140}, {"note": 69, "velocity": 62, "duration": 729}, {"note": 0, "velocity": 0, "duration": 951}, {"note": 72, "velocity": 65, "duration": 164}, {"note": 0, "velocity": 0, "duration": 76}, {"note": 70, "velocity": 58, "duration": 67}, {"note": 70, "velocity": 59, "duration": 287}, {"note": 0, "velocity": 0, "duration": 73}, {"note": 69, "velocity": 62, "duration": 178}, {"note": 0, "velocity": 0, "duration": 62}, {"note": 67, "velocity": 60, "duration": 188}, {"note": 65, "velocity": 63, "duration": 182}, {"note": 69, "velocity": 56, "duration": 478}, {"note": 70, "velocity": 65, "duration": 60}, {"note": 69, "velocity": 62, "duration": 350}, {"note": 67, "velocity": 58, "duration": 504}, {"note": 0, "velocity": 0, "duration": 936}, {"note": 67, "velocity": 61, "duration": 172}, {"note": 0, "velocity": 0, "duration": 68}, {"note": 65, "velocity": 61, "duration": 63}, {"note": 67, "velocity": 63, "duration": 262}, {"note": 0, "velocity": 0, "duration": 98}, {"note": 67, "velocity": 60, "duration": 373}, {"note": 0, "velocity": 0, "duration": 107}, {"note": 65, "velocity": 62, "duration": 150}, {"note": 0, "velocity": 0, "duration": 90}, {"note": 67, "velocity": 64, "duration": 417}, {"note": 0, "velocity": 0, "duration": 63}, {"note": 69, "velocity": 59, "duration": 93}, {"note": 0, "velocity": 0, "duration": 147}, {"note": 69, "velocity": 60, "duration": 698}, {"note": 0, "velocity": 0, "duration": 982}, {"note": 72, "velocity": 62, "duration": 171}, {"note": 0, "velocity": 0, "duration": 69}, {"note": 70, "velocity": 58, "duration": 60}, {"note": 70, "velocity": 62, "duration": 277}, {"note": 0, "velocity": 0, "duration": 83}, {"note": 69, "velocity": 62, "duration": 189}, {"note": 67, "velocity": 59, "duration": 67}, {"note": 65, "velocity": 60, "duration": 271}, {"note": 0, "velocity": 0, "duration": 89}, {"note": 69, "velocity": 60, "duration": 365}, {"note": 0, "velocity": 0, "duration": 115}, {"note": 70, "velocity": 59, "duration": 109}, {"note": 69, "velocity": 61, "duration": 219}, {"note": 0, "velocity": 0, "duration": 141}, {"note": 67, "velocity": 60, "duration": 490}, {"note": 0, "velocity": 0, "duration": 710}, {"note": 77, "velocity": 59, "duration": 64}, {"note": 77, "velocity": 54, "duration": 60}, {"note": 77, "velocity": 65, "duration": 205}, {"note": 76, "velocity": 60, "duration": 51}, {"note": 0, "velocity": 0, "duration": 69}, {"note": 76, "velocity": 67, "duration": 316}, {"note": 74, "velocity": 60, "duration": 197}, {"note": 72, "velocity": 60, "duration": 78}, {"note": 69, "velocity": 60, "duration": 317}, {"note": 74, "velocity": 64, "duration": 165}, {"note": 0, "velocity": 0, "duration": 75}, {"note": 72, "velocity": 60, "duration": 306}, {"note": 74, "velocity": 59, "duration": 83}, {"note": 72, "velocity": 59, "duration": 172}, {"note": 0, "velocity": 0, "duration": 68}, {"note": 70, "velocity": 58, "duration": 605}, {"note": 0, "velocity": 0, "duration": 595}, {"note": 77, "velocity": 62, "duration": 141}, {"note": 0, "velocity": 0, "duration": 99}, {"note": 77, "velocity": 63, "duration": 153}, {"note": 0, "velocity": 0, "duration": 87}, {"note": 77, "velocity": 62, "duration": 59}, {"note": 0, "velocity": 0, "duration": 61}, {"note": 76, "velocity": 64, "duration": 262}, {"note": 0, "velocity": 0, "duration": 98}, {"note": 74, "velocity": 65, "duration": 172}, {"note": 0, "velocity": 0, "duration": 68}, {"note": 72, "velocity": 63, "duration": 73}, {"note": 69, "velocity": 60, "duration": 293}, {"note": 0, "velocity": 0, "duration": 67}, {"note": 74, "velocity": 62, "duration": 1103}, {"note": 0, "velocity": 0, "duration": 577}, {"note": 77, "velocity": 65, "duration": 72}, {"note": 79, "velocity": 62, "duration": 66}, {"note": 81, "velocity": 63, "duration": 840}, {"note": 0, "velocity": 0, "duration": 120}, {"note": 81, "velocity": 61, "duration": 181}, {"note": 82, "velocity": 62, "duration": 187}, {"note": 81, "velocity": 59, "duration": 82}, {"note": 79, "velocity": 55, "duration": 85}, {"note": 77, "velocity": 63, "duration": 178}, {"note": 0, "velocity": 0, "duration": 62}, {"note": 79, "velocity": 64, "duration": 765}, {"note": 0, "velocity": 0, "duration": 1395}, {"note": 79, "velocity": 62, "duration": 150}, {"note": 0, "velocity": 0, "duration": 90}, {"note": 79, "velocity": 64, "duration": 150}, {"note": 0, "velocity": 0, "duration": 90}, {"note": 77, "velocity": 60, "duration": 79}, {"note": 74, "velocity": 69, "duration": 488}, {"note": 72, "velocity": 62, "duration": 60}, {"note": 74, "velocity": 62, "duration": 57}, {"note": 0, "velocity": 0, "duration": 63}, {"note": 77, "velocity": 67, "duration": 261}, {"note": 0, "velocity": 0, "duration": 99}, {"note": 77, "velocity": 60, "duration": 204}, {"note": 74, "velocity": 69, "duration": 82}, {"note": 79, "velocity": 62, "duration": 288}, {"note": 0, "velocity": 0, "duration": 72}, {"note": 74, "velocity": 74, "duration": 200}, {"note": 72, "velocity": 61, "duration": 369}, {"note": 0, "velocity": 0, "duration": 111}, {"note": 77, "velocity": 60, "duration": 44}, {"note": 0, "velocity": 0, "duration": 76}, {"note": 79, "velocity": 65, "duration": 306}, {"note": 81, "velocity": 63, "duration": 840}, {"note": 0, "velocity": 0, "duration": 120}, {"note": 81, "velocity": 61, "duration": 181}, {"note": 82, "velocity": 62, "duration": 187}, {"note": 81, "velocity": 59, "duration": 82}, {"note": 79, "velocity": 55, "duration": 85}, {"note": 77, "velocity": 63, "duration": 178}, {"note": 0, "velocity": 0, "duration": 62}, {"note": 79, "velocity": 64, "duration": 765}, {"note": 0, "velocity": 0, "duration": 1395}, {"note": 79, "velocity": 62, "duration": 150}, {"note": 0, "velocity": 0, "duration": 90}, {"note": 79, "velocity": 64, "duration": 150}, {"note": 0, "velocity": 0, "duration": 90}, {"note": 77, "velocity": 60, "duration": 79}, {"note": 74, "velocity": 69, "duration": 488}, {"note": 72, "velocity": 62, "duration": 60}, {"note": 74, "velocity": 62, "duration": 57}, {"note": 0, "velocity": 0, "duration": 63}, {"note": 77, "velocity": 67, "duration": 261}, {"note": 0, "velocity": 0, "duration": 99}, {"note": 79, "velocity": 62, "duration": 171}, {"note": 0, "velocity": 0, "duration": 69}, {"note": 81, "velocity": 63, "duration": 171}, {"note": 0, "velocity": 0, "duration": 69}, {"note": 79, "velocity": 64, "duration": 193}, {"note": 77, "velocity": 62, "duration": 1208}, {"note": 0, "velocity": 0, "duration": 6232}, {"note": 67, "velocity": 60, "duration": 204}, {"note": 65, "velocity": 60, "duration": 63}, {"note": 67, "velocity": 67, "duration": 258}, {"note": 0, "velocity": 0, "duration": 102}, {"note": 67, "velocity": 69, "duration": 399}, {"note": 0, "velocity": 0, "duration": 81}, {"note": 65, "velocity": 72, "duration": 134}, {"note": 0, "velocity": 0, "duration": 106}, {"note": 67, "velocity": 61, "duration": 430}, {"note": 69, "velocity": 65, "duration": 100}, {"note": 0, "velocity": 0, "duration": 140}, {"note": 69, "velocity": 62, "duration": 729}, {"note": 0, "velocity": 0, "duration": 951}, {"note": 72, "velocity": 65, "duration": 164}, {"note": 0, "velocity": 0, "duration": 76}, {"note": 70, "velocity": 58, "duration": 67}, {"note": 70, "velocity": 59, "duration": 287}, {"note": 0, "velocity": 0, "duration": 73}, {"note": 69, "velocity": 62, "duration": 178}, {"note": 0, "velocity": 0, "duration": 62}, {"note": 67, "velocity": 60, "duration": 188}, {"note": 65, "velocity": 63, "duration": 182}, {"note": 69, "velocity": 56, "duration": 478}, {"note": 70, "velocity": 65, "duration": 60}, {"note": 69, "velocity": 62, "duration": 350}, {"note": 67, "velocity": 58, "duration": 504}, {"note": 0, "velocity": 0, "duration": 936}, {"note": 67, "velocity": 61, "duration": 172}, {"note": 0, "velocity": 0, "duration": 68}, {"note": 65, "velocity": 61, "duration": 63}, {"note": 67, "velocity": 63, "duration": 262}, {"note": 0, "velocity": 0, "duration": 98}, {"note": 67, "velocity": 60, "duration": 373}, {"note": 0, "velocity": 0, "duration": 107}, {"note": 65, "velocity": 62, "duration": 150}, {"note": 0, "velocity": 0, "duration": 90}, {"note": 67, "velocity": 64, "duration": 417}, {"note": 0, "velocity": 0, "duration": 63}, {"note": 69, "velocity": 59, "duration": 93}, {"note": 0, "velocity": 0, "duration": 147}, {"note": 69, "velocity": 60, "duration": 698}, {"note": 0, "velocity": 0, "duration": 982}, {"note": 72, "velocity": 62, "duration": 171}, {"note": 0, "velocity": 0, "duration": 69}, {"note": 70, "velocity": 58, "duration": 60}, {"note": 70, "velocity": 62, "duration": 277}, {"note": 0, "velocity": 0, "duration": 83}, {"note": 69, "velocity": 62, "duration": 189}, {"note": 67, "velocity": 59, "duration": 67}, {"note": 65, "velocity": 60, "duration": 271}, {"note": 0, "velocity": 0, "duration": 89}, {"note": 69, "velocity": 60, "duration": 365}, {"note": 0, "velocity": 0, "duration": 115}, {"note": 70, "velocity": 59, "duration": 109}, {"note": 69, "velocity": 61, "duration": 219}, {"note": 0, "velocity": 0, "duration": 141}, {"note": 67, "velocity": 60, "duration": 490}, {"note": 0, "velocity": 0, "duration": 710}, {"note": 77, "velocity": 59, "duration": 64}, {"note": 77, "velocity": 54, "duration": 60}, {"note": 77, "velocity": 65, "duration": 205}, {"note": 76, "velocity": 60, "duration": 51}, {"note": 0, "velocity": 0, "duration": 69}, {"note": 76, "velocity": 67, "duration": 316}, {"note": 74, "velocity": 60, "duration": 197}, {"note": 72, "velocity": 60, "duration": 78}, {"note": 69, "velocity": 60, "duration": 317}, {"note": 74, "velocity": 64, "duration": 165}, {"note": 0, "velocity": 0, "duration": 75}, {"note": 72, "velocity": 60, "duration": 306}, {"note": 74, "velocity": 59, "duration": 83}, {"note": 72, "velocity": 59, "duration": 172}, {"note": 0, "velocity": 0, "duration": 68}, {"note": 70, "velocity": 58, "duration": 605}, {"note": 0, "velocity": 0, "duration": 595}, {"note": 77, "velocity": 62, "duration": 141}, {"note": 0, "velocity": 0, "duration": 99}, {"note": 77, "velocity": 63, "duration": 153}, {"note": 0, "velocity": 0, "duration": 87}, {"note": 77, "velocity": 62, "duration": 59}, {"note": 0, "velocity": 0, "duration": 61}, {"note": 76, "velocity": 64, "duration": 262}, {"note": 0, "velocity": 0, "duration": 98}, {"note": 74, "velocity": 65, "duration": 172}, {"note": 0, "velocity": 0, "duration": 68}, {"note": 72, "velocity": 63, "duration": 73}, {"note": 69, "velocity": 60, "duration": 293}, {"note": 0, "velocity": 0, "duration": 67}, {"note": 74, "velocity": 62, "duration": 1103}, {"note": 0, "velocity": 0, "duration": 577}, {"note": 77, "velocity": 65, "duration": 72}, {"note": 79, "velocity": 62, "duration": 66}, {"note": 81, "velocity": 63, "duration": 840}, {"note": 0, "velocity": 0, "duration": 120}, {"note": 81, "velocity": 61, "duration": 181}, {"note": 82, "velocity": 62, "duration": 187}, {"note": 81, "velocity": 59, "duration": 82}, {"note": 79, "velocity": 55, "duration": 85}, {"note": 77, "velocity": 63, "duration": 178}, {"note": 0, "velocity": 0, "duration": 62}, {"note": 79, "velocity": 64, "duration": 765}, {"note": 0, "velocity": 0, "duration": 1395}, {"note": 79, "velocity": 62, "duration": 150}, {"note": 0, "velocity": 0, "duration": 90}, {"note": 79, "velocity": 64, "duration": 150}, {"note": 0, "velocity": 0, "duration": 90}, {"note": 77, "velocity": 60, "duration": 79}, {"note": 74, "velocity": 69, "duration": 488}, {"note": 72, "velocity": 62, "duration": 60}, {"note": 74, "velocity": 62, "duration": 57}, {"note": 0, "velocity": 0, "duration": 63}, {"note": 77, "velocity": 67, "duration": 261}, {"note": 0, "velocity": 0, "duration": 99}, {"note": 77, "velocity": 60, "duration": 204}, {"note": 74, "velocity": 69, "duration": 82}, {"note": 79, "velocity": 62, "duration": 288}, {"note": 0, "velocity": 0, "duration": 72}, {"note": 74, "velocity": 74, "duration": 200}, {"note": 72, "velocity": 61, "duration": 369}, {"note": 0, "velocity": 0, "duration": 111}, {"note": 77, "velocity": 60, "duration": 44}, {"note": 0, "velocity": 0, "duration": 76}, {"note": 79, "velocity": 65, "duration": 306}, {"note": 81, "velocity": 63, "duration": 840}, {"note": 0, "velocity": 0, "duration": 120}, {"note": 81, "velocity": 61, "duration": 181}, {"note": 82, "velocity": 62, "duration": 187}, {"note": 81, "velocity": 59, "duration": 82}, {"note": 79, "velocity": 55, "duration": 85}, {"note": 77, "velocity": 63, "duration": 178}, {"note": 0, "velocity": 0, "duration": 62}, {"note": 79, "velocity": 64, "duration": 765}, {"note": 0, "velocity": 0, "duration": 1395}, {"note": 79, "velocity": 62, "duration": 150}, {"note": 0, "velocity": 0, "duration": 90}, {"note": 79, "velocity": 64, "duration": 150}, {"note": 0, "velocity": 0, "duration": 90}, {"note": 77, "velocity": 60, "duration": 79}, {"note": 74, "velocity": 69, "duration": 488}, {"note": 72, "velocity": 62, "duration": 60}, {"note": 74, "velocity": 62, "duration": 57}, {"note": 0, "velocity": 0, "duration": 63}, {"note": 77, "velocity": 67, "duration": 261}, {"note": 0, "velocity": 0, "duration": 99}, {"note": 79, "velocity": 62, "duration": 171}, {"note": 0, "velocity": 0, "duration": 69}, {"note": 81, "velocity": 63, "duration": 171}, {"note": 0, "velocity": 0, "duration": 69}, {"note": 79, "velocity": 64, "duration": 193}, {"note": 77, "velocity": 62, "duration": 1208}, {"note": 0, "velocity": 0, "duration": 13192}, {"note": 77, "velocity": 65, "duration": 72}, {"note": 79, "velocity": 62, "duration": 66}, {"note": 81, "velocity": 63, "duration": 840}, {"note": 0, "velocity": 0, "duration": 120}, {"note": 81, "velocity": 61, "duration": 181}, {"note": 82, "velocity": 62, "duration": 187}, {"note": 81, "velocity": 59, "duration": 82}, {"note": 79, "velocity": 55, "duration": 85}, {"note": 77, "velocity": 63, "duration": 178}, {"note": 0, "velocity": 0, "duration": 62}, {"note": 79, "velocity": 64, "duration": 765}, {"note": 0, "velocity": 0, "duration": 1395}, {"note": 79, "velocity": 62, "duration": 150}, {"note": 0, "velocity": 0, "duration": 90}, {"note": 79, "velocity": 64, "duration": 150}, {"note": 0, "velocity": 0, "duration": 90}, {"note": 77, "velocity": 60, "duration": 79}, {"note": 74, "velocity": 69, "duration": 488}, {"note": 72, "velocity": 62, "duration": 60}, {"note": 74, "velocity": 62, "duration": 57}, {"note": 0, "velocity": 0, "duration": 63}, {"note": 77, "velocity": 67, "duration": 261}, {"note": 0, "velocity": 0, "duration": 99}, {"note": 77, "velocity": 60, "duration": 204}, {"note": 74, "velocity": 69, "duration": 82}, {"note": 79, "velocity": 62, "duration": 288}, {"note": 0, "velocity": 0, "duration": 72}, {"note": 74, "velocity": 74, "duration": 200}, {"note": 72, "velocity": 61, "duration": 369}, {"note": 0, "velocity": 0, "duration": 111}, {"note": 77, "velocity": 60, "duration": 44}, {"note": 0, "velocity": 0, "duration": 76}, {"note": 79, "velocity": 65, "duration": 306}, {"note": 81, "velocity": 63, "duration": 840}, {"note": 0, "velocity": 0, "duration": 120}, {"note": 81, "velocity": 61, "duration": 181}, {"note": 82, "velocity": 62, "duration": 187}, {"note": 81, "velocity": 59, "duration": 82}, {"note": 79, "velocity": 55, "duration": 85}, {"note": 77, "velocity": 63, "duration": 178}, {"note": 0, "velocity": 0, "duration": 62}, {"note": 79, "velocity": 64, "duration": 765}, {"note": 0, "velocity": 0, "duration": 1395}, {"note": 79, "velocity": 62, "duration": 150}, {"note": 0, "velocity": 0, "duration": 90}, {"note": 79, "velocity": 64, "duration": 150}, {"note": 0, "velocity": 0, "duration": 90}, {"note": 77, "velocity": 60, "duration": 79}, {"note": 74, "velocity": 69, "duration": 488}, {"note": 72, "velocity": 62, "duration": 60}, {"note": 74, "velocity": 62, "duration": 57}, {"note": 0, "velocity": 0, "duration": 63}, {"note": 77, "velocity": 67, "duration": 261}, {"note": 0, "velocity": 0, "duration": 99}, {"note": 79, "velocity": 62, "duration": 171}, {"note": 0, "velocity": 0, "duration": 69}, {"note": 81, "velocity": 63, "duration": 171}, {"note": 0, "velocity": 0, "duration": 69}, {"note": 79, "velocity": 64, "duration": 193}, {"note": 77, "velocity": 62, "duration": 718}, {"note": 77, "velocity": 65, "duration": 72}, {"note": 79, "velocity": 62, "duration": 238}, {"note": 0, "velocity": 0, "duration": 122}, {"note": 81, "velocity": 63, "duration": 840}, {"note": 0, "velocity": 0, "duration": 120}, {"note": 81, "velocity": 61, "duration": 181}, {"note": 82, "velocity": 62, "duration": 187}, {"note": 81, "velocity": 59, "duration": 82}, {"note": 79, "velocity": 55, "duration": 85}, {"note": 77, "velocity": 63, "duration": 178}, {"note": 0, "velocity": 0, "duration": 62}, {"note": 79, "velocity": 64, "duration": 765}, {"note": 0, "velocity": 0, "duration": 1395}, {"note": 79, "velocity": 62, "duration": 150}, {"note": 0, "velocity": 0, "duration": 90}, {"note": 79, "velocity": 64, "duration": 150}, {"note": 0, "velocity": 0, "duration": 90}, {"note": 77, "velocity": 60, "duration": 79}, {"note": 74, "velocity": 69, "duration": 488}, {"note": 72, "velocity": 62, "duration": 60}, {"note": 74, "velocity": 62, "duration": 57}, {"note": 0, "velocity": 0, "duration": 63}, {"note": 77, "velocity": 67, "duration": 261}, {"note": 0, "velocity": 0, "duration": 99}, {"note": 77, "velocity": 60, "duration": 204}, {"note": 74, "velocity": 69, "duration": 82}, {"note": 79, "velocity": 62, "duration": 288}, {"note": 0, "velocity": 0, "duration": 72}, {"note": 74, "velocity": 74, "duration": 200}, {"note": 72, "velocity": 61, "duration": 369}, {"note": 0, "velocity": 0, "duration": 111}, {"note": 77, "velocity": 60, "duration": 44}, {"note": 0, "velocity": 0, "duration": 76}, {"note": 79, "velocity": 65, "duration": 306}, {"note": 81, "velocity": 63, "duration": 840}, {"note": 0, "velocity": 0, "duration": 120}, {"note": 81, "velocity": 61, "duration": 181}, {"note": 82, "velocity": 62, "duration": 187}, {"note": 81, "velocity": 59, "duration": 82}, {"note": 79, "velocity": 55, "duration": 85}, {"note": 77, "velocity": 63, "duration": 178}, {"note": 0, "velocity": 0, "duration": 62}, {"note": 79, "velocity": 64, "duration": 765}, {"note": 0, "velocity": 0, "duration": 1395}, {"note": 79, "velocity": 62, "duration": 150}, {"note": 0, "velocity": 0, "duration": 90}, {"note": 79, "velocity": 64, "duration": 150}, {"note": 0, "velocity": 0, "duration": 90}, {"note": 77, "velocity": 60, "duration": 79}, {"note": 74, "velocity": 69, "duration": 488}, {"note": 72, "velocity": 62, "duration": 60}, {"note": 74, "velocity": 62, "duration": 57}, {"note": 0, "velocity": 0, "duration": 63}, {"note": 77, "velocity": 67, "duration": 261}, {"note": 0, "velocity": 0, "duration": 99}, {"note": 79, "velocity": 62, "duration": 171}, {"note": 0, "velocity": 0, "duration": 69}, {"note": 81, "velocity": 63, "duration": 171}, {"note": 0, "velocity": 0, "duration": 69}, {"note": 79, "velocity": 64, "duration": 193}, {"note": 77, "velocity": 62, "duration": 1208}]]