[[{"note": 70, "velocity": 92, "duration": 193}, {"note": 71, "velocity": 93, "duration": 191}, {"note": 73, "velocity": 94, "duration": 371}, {"note": 0, "velocity": 0, "duration": 109}, {"note": 73, "velocity": 97, "duration": 393}, {"note": 0, "velocity": 0, "duration": 87}, {"note": 73, "velocity": 99, "duration": 157}, {"note": 0, "velocity": 0, "duration": 83}, {"note": 71, "velocity": 89, "duration": 183}, {"note": 70, "velocity": 93, "duration": 153}, {"note": 0, "velocity": 0, "duration": 87}, {"note": 66, "velocity": 91, "duration": 176}, {"note": 0, "velocity": 0, "duration": 64}, {"note": 68, "velocity": 94, "duration": 391}, {"note": 0, "velocity": 0, "duration": 89}, {"note": 73, "velocity": 97, "duration": 426}, {"note": 0, "velocity": 0, "duration": 534}, {"note": 66, "velocity": 89, "duration": 155}, {"note": 0, "velocity": 0, "duration": 85}, {"note": 68, "velocity": 90, "duration": 173}, {"note": 0, "velocity": 0, "duration": 67}, {"note": 70, "velocity": 88, "duration": 385}, {"note": 0, "velocity": 0, "duration": 95}, {"note": 70, "velocity": 92, "duration": 387}, {"note": 0, "velocity": 0, "duration": 93}, {"note": 71, "velocity": 89, "duration": 177}, {"note": 0, "velocity": 0, "duration": 63}, {"note": 70, "velocity": 92, "duration": 170}, {"note": 0, "velocity": 0, "duration": 70}, {"note": 68, "velocity": 90, "duration": 207}, {"note": 66, "velocity": 88, "duration": 198}, {"note": 65, "velocity": 94, "duration": 429}, {"note": 70, "velocity": 92, "duration": 744}, {"note": 0, "velocity": 0, "duration": 216}, {"note": 70, "velocity": 91, "duration": 192}, {"note": 73, "velocity": 99, "duration": 150}, {"note": 0, "velocity": 0, "duration": 90}, {"note": 75, "velocity": 93, "duration": 356}, {"note": 0, "velocity": 0, "duration": 124}, {"note": 75, "velocity": 95, "duration": 369}, {"note": 0, "velocity": 0, "duration": 111}, {"note": 80, "velocity": 93, "duration": 164}, {"note": 0, "velocity": 0, "duration": 76}, {"note": 77, "velocity": 90, "duration": 174}, {"note": 0, "velocity": 0, "duration": 66}, {"note": 75, "velocity": 93, "duration": 168}, {"note": 0, "velocity": 0, "duration": 72}, {"note": 73, "velocity": 95, "duration": 164}, {"note": 0, "velocity": 0, "duration": 76}, {"note": 73, "velocity": 97, "duration": 378}, {"note": 0, "velocity": 0, "duration": 102}, {"note": 78, "velocity": 91, "duration": 335}, {"note": 0, "velocity": 0, "duration": 145}, {"note": 66, "velocity": 89, "duration": 480}, {"note": 68, "velocity": 89, "duration": 184}, {"note": 70, "velocity": 92, "duration": 177}, {"note": 0, "velocity": 0, "duration": 63}, {"note": 71, "velocity": 90, "duration": 360}, {"note": 0, "velocity": 0, "duration": 120}, {"note": 71, "velocity": 90, "duration": 144}, {"note": 0, "velocity": 0, "duration": 96}, {"note": 73, "velocity": 102, "duration": 168}, {"note": 0, "velocity": 0, "duration": 72}, {"note": 75, "velocity": 90, "duration": 391}, {"note": 0, "velocity": 0, "duration": 89}, {"note": 73, "velocity": 99, "duration": 416}, {"note": 0, "velocity": 0, "duration": 64}, {"note": 70, "velocity": 89, "duration": 174}, {"note": 0, "velocity": 0, "duration": 66}, {"note": 68, "velocity": 90, "duration": 800}, {"note": 0, "velocity": 0, "duration": 400}, {"note": 70, "velocity": 92, "duration": 193}, {"note": 71, "velocity": 93, "duration": 191}, {"note": 73, "velocity": 94, "duration": 371}, {"note": 0, "velocity": 0, "duration": 109}, {"note": 73, "velocity": 97, "duration": 393}, {"note": 0, "velocity": 0, "duration": 87}, {"note": 73, "velocity": 99, "duration": 157}, {"note": 0, "velocity": 0, "duration": 83}, {"note": 71, "velocity": 89, "duration": 183}, {"note": 70, "velocity": 93, "duration": 153}, {"note": 0, "velocity": 0, "duration": 87}, {"note": 66, "velocity": 91, "duration": 176}, {"note": 0, "velocity": 0, "duration": 64}, {"note": 68, "velocity": 94, "duration": 391}, {"note": 0, "velocity": 0, "duration": 89}, {"note": 73, "velocity": 97, "duration": 426}, {"note": 0, "velocity": 0, "duration": 534}, {"note": 75, "velocity": 89, "duration": 155}, {"note": 0, "velocity": 0, "duration": 85}, {"note": 77, "velocity": 90, "duration": 173}, {"note": 0, "velocity": 0, "duration": 67}, {"note": 78, "velocity": 88, "duration": 385}, {"note": 0, "velocity": 0, "duration": 95}, {"note": 78, "velocity": 92, "duration": 387}, {"note": 0, "velocity": 0, "duration": 93}, {"note": 80, "velocity": 89, "duration": 177}, {"note": 0, "velocity": 0, "duration": 63}, {"note": 78, "velocity": 92, "duration": 170}, {"note": 0, "velocity": 0, "duration": 70}, {"note": 73, "velocity": 90, "duration": 207}, {"note": 70, "velocity": 88, "duration": 198}, {"note": 75, "velocity": 94, "duration": 240}, {"note": 73, "velocity": 92, "duration": 960}, {"note": 0, "velocity": 0, "duration": 240}, {"note": 75, "velocity": 99, "duration": 164}, {"note": 0, "velocity": 0, "duration": 76}, {"note": 77, "velocity": 90, "duration": 175}, {"note": 0, "velocity": 0, "duration": 65}, {"note": 78, "velocity": 89, "duration": 345}, {"note": 0, "velocity": 0, "duration": 135}, {"note": 78, "velocity": 90, "duration": 400}, {"note": 0, "velocity": 0, "duration": 80}, {"note": 80, "velocity": 86, "duration": 148}, {"note": 0, "velocity": 0, "duration": 92}, {"note": 78, "velocity": 93, "duration": 207}, {"note": 75, "velocity": 92, "duration": 149}, {"note": 0, "velocity": 0, "duration": 91}, {"note": 78, "velocity": 92, "duration": 176}, {"note": 0, "velocity": 0, "duration": 64}, {"note": 73, "velocity": 95, "duration": 320}, {"note": 0, "velocity": 0, "duration": 160}, {"note": 78, "velocity": 91, "duration": 335}, {"note": 0, "velocity": 0, "duration": 145}, {"note": 66, "velocity": 89, "duration": 480}, {"note": 68, "velocity": 89, "duration": 184}, {"note": 70, "velocity": 92, "duration": 177}, {"note": 0, "velocity": 0, "duration": 63}, {"note": 71, "velocity": 90, "duration": 360}, {"note": 0, "velocity": 0, "duration": 120}, {"note": 71, "velocity": 90, "duration": 144}, {"note": 0, "velocity": 0, "duration": 96}, {"note": 73, "velocity": 102, "duration": 168}, {"note": 0, "velocity": 0, "duration": 72}, {"note": 75, "velocity": 90, "duration": 391}, {"note": 0, "velocity": 0, "duration": 89}, {"note": 77, "velocity": 92, "duration": 188}, {"note": 78, "velocity": 89, "duration": 518}, {"note": 80, "velocity": 90, "duration": 951}, {"note": 0, "velocity": 0, "duration": 249}, {"note": 78, "velocity": 92, "duration": 185}, {"note": 80, "velocity": 95, "duration": 176}, {"note": 0, "velocity": 0, "duration": 64}, {"note": 82, "velocity": 92, "duration": 576}, {"note": 0, "velocity": 0, "duration": 144}, {"note": 78, "velocity": 89, "duration": 191}, {"note": 73, "velocity": 104, "duration": 185}, {"note": 78, "velocity": 92, "duration": 124}, {"note": 0, "velocity": 0, "duration": 116}, {"note": 78, "velocity": 91, "duration": 204}, {"note": 87, "velocity": 99, "duration": 420}, {"note": 85, "velocity": 92, "duration": 456}, {"note": 85, "velocity": 90, "duration": 156}, {"note": 0, "velocity": 0, "duration": 84}, {"note": 85, "velocity": 92, "duration": 160}, {"note": 0, "velocity": 0, "duration": 80}, {"note": 80, "velocity": 93, "duration": 122}, {"note": 0, "velocity": 0, "duration": 118}, {"note": 80, "velocity": 92, "duration": 161}, {"note": 0, "velocity": 0, "duration": 79}, {"note": 83, "velocity": 93, "duration": 181}, {"note": 82, "velocity": 90, "duration": 164}, {"note": 0, "velocity": 0, "duration": 76}, {"note": 78, "velocity": 90, "duration": 344}, {"note": 0, "velocity": 0, "duration": 136}, {"note": 70, "velocity": 97, "duration": 171}, {"note": 0, "velocity": 0, "duration": 69}, {"note": 70, "velocity": 99, "duration": 176}, {"note": 0, "velocity": 0, "duration": 64}, {"note": 78, "velocity": 90, "duration": 155}, {"note": 0, "velocity": 0, "duration": 85}, {"note": 78, "velocity": 91, "duration": 157}, {"note": 0, "velocity": 0, "duration": 83}, {"note": 77, "velocity": 91, "duration": 164}, {"note": 0, "velocity": 0, "duration": 76}, {"note": 77, "velocity": 88, "duration": 296}, {"note": 0, "velocity": 0, "duration": 184}, {"note": 70, "velocity": 93, "duration": 204}, {"note": 73, "velocity": 93, "duration": 412}, {"note": 0, "velocity": 0, "duration": 68}, {"note": 75, "velocity": 99, "duration": 179}, {"note": 0, "velocity": 0, "duration": 61}, {"note": 77, "velocity": 90, "duration": 192}, {"note": 78, "velocity": 92, "duration": 164}, {"note": 0, "velocity": 0, "duration": 76}, {"note": 80, "velocity": 88, "duration": 577}, {"note": 0, "velocity": 0, "duration": 143}, {"note": 78, "velocity": 90, "duration": 193}, {"note": 77, "velocity": 92, "duration": 184}, {"note": 78, "velocity": 92, "duration": 180}, {"note": 80, "velocity": 95, "duration": 196}, {"note": 83, "velocity": 90, "duration": 176}, {"note": 0, "velocity": 0, "duration": 64}, {"note": 82, "velocity": 89, "duration": 440}, {"note": 80, "velocity": 92, "duration": 362}, {"note": 0, "velocity": 0, "duration": 118}, {"note": 78, "velocity": 89, "duration": 384}, {"note": 0, "velocity": 0, "duration": 96}, {"note": 75, "velocity": 95, "duration": 152}, {"note": 0, "velocity": 0, "duration": 88}, {"note": 77, "velocity": 89, "duration": 160}, {"note": 0, "velocity": 0, "duration": 80}, {"note": 78, "velocity": 90, "duration": 431}, {"note": 78, "velocity": 86, "duration": 118}, {"note": 0, "velocity": 0, "duration": 122}, {"note": 78, "velocity": 85, "duration": 128}, {"note": 0, "velocity": 0, "duration": 112}, {"note": 78, "velocity": 94, "duration": 248}, {"note": 77, "velocity": 84, "duration": 120}, {"note": 0, "velocity": 0, "duration": 120}, {"note": 77, "velocity": 90, "duration": 154}, {"note": 0, "velocity": 0, "duration": 86}, {"note": 78, "velocity": 94, "duration": 415}, {"note": 0, "velocity": 0, "duration": 65}, {"note": 80, "velocity": 90, "duration": 840}, {"note": 0, "velocity": 0, "duration": 360}, {"note": 78, "velocity": 92, "duration": 185}, {"note": 80, "velocity": 95, "duration": 176}, {"note": 0, "velocity": 0, "duration": 64}, {"note": 82, "velocity": 92, "duration": 576}, {"note": 0, "velocity": 0, "duration": 144}, {"note": 78, "velocity": 89, "duration": 191}, {"note": 73, "velocity": 104, "duration": 185}, {"note": 78, "velocity": 92, "duration": 124}, {"note": 0, "velocity": 0, "duration": 116}, {"note": 78, "velocity": 91, "duration": 204}, {"note": 87, "velocity": 99, "duration": 420}, {"note": 85, "velocity": 92, "duration": 456}, {"note": 85, "velocity": 90, "duration": 156}, {"note": 0, "velocity": 0, "duration": 84}, {"note": 85, "velocity": 92, "duration": 160}, {"note": 0, "velocity": 0, "duration": 80}, {"note": 80, "velocity": 93, "duration": 122}, {"note": 0, "velocity": 0, "duration": 118}, {"note": 80, "velocity": 92, "duration": 161}, {"note": 0, "velocity": 0, "duration": 79}, {"note": 83, "velocity": 93, "duration": 181}, {"note": 82, "velocity": 90, "duration": 164}, {"note": 0, "velocity": 0, "duration": 76}, {"note": 78, "velocity": 90, "duration": 344}, {"note": 0, "velocity": 0, "duration": 136}, {"note": 70, "velocity": 97, "duration": 171}, {"note": 0, "velocity": 0, "duration": 69}, {"note": 70, "velocity": 99, "duration": 176}, {"note": 0, "velocity": 0, "duration": 64}, {"note": 78, "velocity": 90, "duration": 155}, {"note": 0, "velocity": 0, "duration": 85}, {"note": 78, "velocity": 91, "duration": 157}, {"note": 0, "velocity": 0, "duration": 83}, {"note": 77, "velocity": 91, "duration": 164}, {"note": 0, "velocity": 0, "duration": 76}, {"note": 75, "velocity": 88, "duration": 296}, {"note": 0, "velocity": 0, "duration": 184}, {"note": 70, "velocity": 93, "duration": 204}, {"note": 73, "velocity": 93, "duration": 412}, {"note": 0, "velocity": 0, "duration": 68}, {"note": 75, "velocity": 99, "duration": 179}, {"note": 0, "velocity": 0, "duration": 61}, {"note": 77, "velocity": 90, "duration": 192}, {"note": 78, "velocity": 92, "duration": 164}, {"note": 0, "velocity": 0, "duration": 76}, {"note": 80, "velocity": 88, "duration": 577}, {"note": 0, "velocity": 0, "duration": 143}, {"note": 78, "velocity": 90, "duration": 193}, {"note": 77, "velocity": 92, "duration": 184}, {"note": 78, "velocity": 92, "duration": 180}, {"note": 80, "velocity": 95, "duration": 196}, {"note": 83, "velocity": 90, "duration": 176}, {"note": 0, "velocity": 0, "duration": 64}, {"note": 82, "velocity": 89, "duration": 440}, {"note": 80, "velocity": 92, "duration": 362}, {"note": 0, "velocity": 0, "duration": 118}, {"note": 78, "velocity": 89, "duration": 384}, {"note": 0, "velocity": 0, "duration": 96}, {"note": 80, "velocity": 95, "duration": 144}, {"note": 0, "velocity": 0, "duration": 96}, {"note": 82, "velocity": 95, "duration": 148}, {"note": 0, "velocity": 0, "duration": 92}, {"note": 83, "velocity": 94, "duration": 372}, {"note": 82, "velocity": 90, "duration": 270}, {"note": 0, "velocity": 0, "duration": 85}, {"note": 80, "velocity": 91, "duration": 173}, {"note": 0, "velocity": 0, "duration": 92}, {"note": 78, "velocity": 89, "duration": 380}, {"note": 0, "velocity": 0, "duration": 90}, {"note": 75, "velocity": 90, "duration": 166}, {"note": 0, "velocity": 0, "duration": 76}, {"note": 77, "velocity": 90, "duration": 441}, {"note": 0, "velocity": 0, "duration": 63}, {"note": 78, "velocity": 90, "duration": 1648}, {"note": 0, "velocity": 0, "duration": 5301}, {"note": 70, "velocity": 92, "duration": 193}, {"note": 71, "velocity": 93, "duration": 191}, {"note": 73, "velocity": 94, "duration": 371}, {"note": 0, "velocity": 0, "duration": 109}, {"note": 73, "velocity": 97, "duration": 393}, {"note": 0, "velocity": 0, "duration": 87}, {"note": 73, "velocity": 99, "duration": 157}, {"note": 0, "velocity": 0, "duration": 83}, {"note": 71, "velocity": 89, "duration": 183}, {"note": 70, "velocity": 93, "duration": 153}, {"note": 0, "velocity": 0, "duration": 87}, {"note": 66, "velocity": 91, "duration": 176}, {"note": 0, "velocity": 0, "duration": 64}, {"note": 68, "velocity": 94, "duration": 391}, {"note": 0, "velocity": 0, "duration": 89}, {"note": 73, "velocity": 97, "duration": 426}, {"note": 0, "velocity": 0, "duration": 534}, {"note": 75, "velocity": 89, "duration": 155}, {"note": 0, "velocity": 0, "duration": 85}, {"note": 77, "velocity": 90, "duration": 173}, {"note": 0, "velocity": 0, "duration": 67}, {"note": 78, "velocity": 88, "duration": 385}, {"note": 0, "velocity": 0, "duration": 95}, {"note": 78, "velocity": 92, "duration": 387}, {"note": 0, "velocity": 0, "duration": 93}, {"note": 80, "velocity": 89, "duration": 177}, {"note": 0, "velocity": 0, "duration": 63}, {"note": 78, "velocity": 92, "duration": 170}, {"note": 0, "velocity": 0, "duration": 70}, {"note": 73, "velocity": 90, "duration": 207}, {"note": 70, "velocity": 88, "duration": 198}, {"note": 75, "velocity": 94, "duration": 240}, {"note": 73, "velocity": 92, "duration": 960}, {"note": 0, "velocity": 0, "duration": 240}, {"note": 75, "velocity": 99, "duration": 164}, {"note": 0, "velocity": 0, "duration": 76}, {"note": 77, "velocity": 90, "duration": 175}, {"note": 0, "velocity": 0, "duration": 65}, {"note": 78, "velocity": 89, "duration": 345}, {"note": 0, "velocity": 0, "duration": 135}, {"note": 78, "velocity": 90, "duration": 400}, {"note": 0, "velocity": 0, "duration": 80}, {"note": 80, "velocity": 86, "duration": 148}, {"note": 0, "velocity": 0, "duration": 92}, {"note": 78, "velocity": 93, "duration": 207}, {"note": 75, "velocity": 92, "duration": 149}, {"note": 0, "velocity": 0, "duration": 91}, {"note": 78, "velocity": 92, "duration": 176}, {"note": 0, "velocity": 0, "duration": 64}, {"note": 73, "velocity": 95, "duration": 320}, {"note": 0, "velocity": 0, "duration": 160}, {"note": 78, "velocity": 91, "duration": 335}, {"note": 0, "velocity": 0, "duration": 145}, {"note": 66, "velocity": 89, "duration": 480}, {"note": 68, "velocity": 89, "duration": 184}, {"note": 70, "velocity": 92, "duration": 177}, {"note": 0, "velocity": 0, "duration": 63}, {"note": 71, "velocity": 90, "duration": 360}, {"note": 0, "velocity": 0, "duration": 120}, {"note": 71, "velocity": 90, "duration": 144}, {"note": 0, "velocity": 0, "duration": 96}, {"note": 73, "velocity": 102, "duration": 168}, {"note": 0, "velocity": 0, "duration": 72}, {"note": 75, "velocity": 90, "duration": 391}, {"note": 0, "velocity": 0, "duration": 89}, {"note": 77, "velocity": 92, "duration": 188}, {"note": 78, "velocity": 89, "duration": 518}, {"note": 80, "velocity": 90, "duration": 951}, {"note": 0, "velocity": 0, "duration": 249}, {"note": 78, "velocity": 92, "duration": 185}, {"note": 80, "velocity": 95, "duration": 176}, {"note": 0, "velocity": 0, "duration": 64}, {"note": 82, "velocity": 92, "duration": 576}, {"note": 0, "velocity": 0, "duration": 144}, {"note": 78, "velocity": 89, "duration": 191}, {"note": 73, "velocity": 104, "duration": 185}, {"note": 78, "velocity": 92, "duration": 124}, {"note": 0, "velocity": 0, "duration": 116}, {"note": 78, "velocity": 91, "duration": 204}, {"note": 87, "velocity": 99, "duration": 420}, {"note": 85, "velocity": 92, "duration": 456}, {"note": 85, "velocity": 90, "duration": 156}, {"note": 0, "velocity": 0, "duration": 84}, {"note": 85, "velocity": 92, "duration": 160}, {"note": 0, "velocity": 0, "duration": 80}, {"note": 80, "velocity": 93, "duration": 122}, {"note": 0, "velocity": 0, "duration": 118}, {"note": 80, "velocity": 92, "duration": 161}, {"note": 0, "velocity": 0, "duration": 79}, {"note": 83, "velocity": 93, "duration": 181}, {"note": 82, "velocity": 90, "duration": 164}, {"note": 0, "velocity": 0, "duration": 76}, {"note": 78, "velocity": 90, "duration": 344}, {"note": 0, "velocity": 0, "duration": 136}, {"note": 70, "velocity": 97, "duration": 171}, {"note": 0, "velocity": 0, "duration": 69}, {"note": 70, "velocity": 99, "duration": 176}, {"note": 0, "velocity": 0, "duration": 64}, {"note": 78, "velocity": 90, "duration": 155}, {"note": 0, "velocity": 0, "duration": 85}, {"note": 78, "velocity": 91, "duration": 157}, {"note": 0, "velocity": 0, "duration": 83}, {"note": 77, "velocity": 91, "duration": 164}, {"note": 0, "velocity": 0, "duration": 76}, {"note": 77, "velocity": 88, "duration": 296}, {"note": 0, "velocity": 0, "duration": 184}, {"note": 70, "velocity": 93, "duration": 204}, {"note": 73, "velocity": 93, "duration": 412}, {"note": 0, "velocity": 0, "duration": 68}, {"note": 75, "velocity": 99, "duration": 179}, {"note": 0, "velocity": 0, "duration": 61}, {"note": 77, "velocity": 90, "duration": 192}, {"note": 78, "velocity": 92, "duration": 164}, {"note": 0, "velocity": 0, "duration": 76}, {"note": 80, "velocity": 88, "duration": 577}, {"note": 0, "velocity": 0, "duration": 143}, {"note": 78, "velocity": 90, "duration": 193}, {"note": 77, "velocity": 92, "duration": 184}, {"note": 78, "velocity": 92, "duration": 180}, {"note": 80, "velocity": 95, "duration": 196}, {"note": 83, "velocity": 90, "duration": 176}, {"note": 0, "velocity": 0, "duration": 64}, {"note": 82, "velocity": 89, "duration": 440}, {"note": 80, "velocity": 92, "duration": 362}, {"note": 0, "velocity": 0, "duration": 118}, {"note": 78, "velocity": 89, "duration": 384}, {"note": 0, "velocity": 0, "duration": 96}, {"note": 75, "velocity": 95, "duration": 152}, {"note": 0, "velocity": 0, "duration": 88}, {"note": 77, "velocity": 89, "duration": 160}, {"note": 0, "velocity": 0, "duration": 80}, {"note": 78, "velocity": 90, "duration": 431}, {"note": 78, "velocity": 86, "duration": 118}, {"note": 0, "velocity": 0, "duration": 122}, {"note": 78, "velocity": 85, "duration": 128}, {"note": 0, "velocity": 0, "duration": 112}, {"note": 78, "velocity": 94, "duration": 248}, {"note": 77, "velocity": 84, "duration": 120}, {"note": 0, "velocity": 0, "duration": 120}, {"note": 77, "velocity": 90, "duration": 154}, {"note": 0, "velocity": 0, "duration": 86}, {"note": 78, "velocity": 94, "duration": 415}, {"note": 0, "velocity": 0, "duration": 65}, {"note": 80, "velocity": 90, "duration": 840}, {"note": 0, "velocity": 0, "duration": 360}, {"note": 78, "velocity": 92, "duration": 185}, {"note": 80, "velocity": 95, "duration": 176}, {"note": 0, "velocity": 0, "duration": 64}, {"note": 82, "velocity": 92, "duration": 576}, {"note": 0, "velocity": 0, "duration": 144}, {"note": 78, "velocity": 89, "duration": 191}, {"note": 73, "velocity": 104, "duration": 185}, {"note": 78, "velocity": 92, "duration": 124}, {"note": 0, "velocity": 0, "duration": 116}, {"note": 78, "velocity": 91, "duration": 204}, {"note": 87, "velocity": 99, "duration": 420}, {"note": 85, "velocity": 92, "duration": 456}, {"note": 85, "velocity": 90, "duration": 156}, {"note": 0, "velocity": 0, "duration": 84}, {"note": 85, "velocity": 92, "duration": 160}, {"note": 0, "velocity": 0, "duration": 80}, {"note": 80, "velocity": 93, "duration": 122}, {"note": 0, "velocity": 0, "duration": 118}, {"note": 80, "velocity": 92, "duration": 161}, {"note": 0, "velocity": 0, "duration": 79}, {"note": 83, "velocity": 93, "duration": 181}, {"note": 82, "velocity": 90, "duration": 164}, {"note": 0, "velocity": 0, "duration": 76}, {"note": 78, "velocity": 90, "duration": 344}, {"note": 0, "velocity": 0, "duration": 136}, {"note": 70, "velocity": 97, "duration": 171}, {"note": 0, "velocity": 0, "duration": 69}, {"note": 70, "velocity": 99, "duration": 176}, {"note": 0, "velocity": 0, "duration": 64}, {"note": 78, "velocity": 90, "duration": 155}, {"note": 0, "velocity": 0, "duration": 85}, {"note": 78, "velocity": 91, "duration": 157}, {"note": 0, "velocity": 0, "duration": 83}, {"note": 77, "velocity": 91, "duration": 164}, {"note": 0, "velocity": 0, "duration": 76}, {"note": 75, "velocity": 88, "duration": 296}, {"note": 0, "velocity": 0, "duration": 184}, {"note": 70, "velocity": 93, "duration": 204}, {"note": 73, "velocity": 93, "duration": 412}, {"note": 0, "velocity": 0, "duration": 68}, {"note": 75, "velocity": 99, "duration": 179}, {"note": 0, "velocity": 0, "duration": 61}, {"note": 77, "velocity": 90, "duration": 192}, {"note": 78, "velocity": 92, "duration": 164}, {"note": 0, "velocity": 0, "duration": 76}, {"note": 80, "velocity": 88, "duration": 577}, {"note": 0, "velocity": 0, "duration": 143}, {"note": 78, "velocity": 90, "duration": 193}, {"note": 77, "velocity": 92, "duration": 184}, {"note": 78, "velocity": 92, "duration": 180}, {"note": 80, "velocity": 95, "duration": 196}, {"note": 83, "velocity": 90, "duration": 176}, {"note": 0, "velocity": 0, "duration": 64}, {"note": 82, "velocity": 89, "duration": 440}, {"note": 80, "velocity": 92, "duration": 362}, {"note": 0, "velocity": 0, "duration": 118}, {"note": 78, "velocity": 89, "duration": 384}, {"note": 0, "velocity": 0, "duration": 96}, {"note": 80, "velocity": 95, "duration": 144}, {"note": 0, "velocity": 0, "duration": 96}, {"note": 82, "velocity": 95, "duration": 148}, {"note": 0, "velocity": 0, "duration": 92}, {"note": 83, "velocity": 94, "duration": 372}, {"note": 82, "velocity": 90, "duration": 270}, {"note": 0, "velocity": 0, "duration": 85}, {"note": 80, "velocity": 91, "duration": 173}, {"note": 0, "velocity": 0, "duration": 92}, {"note": 78, "velocity": 89, "duration": 380}, {"note": 0, "velocity": 0, "duration": 90}, {"note": 75, "velocity": 90, "duration": 166}, {"note": 0, "velocity": 0, "duration": 76}, {"note": 77, "velocity": 90, "duration": 441}, {"note": 0, "velocity": 0, "duration": 63}, {"note": 78, "velocity": 90, "duration": 1648}, {"note": 0, "velocity": 0, "duration": 12981}, {"note": 78, "velocity": 92, "duration": 185}, {"note": 80, "velocity": 95, "duration": 176}, {"note": 0, "velocity": 0, "duration": 64}, {"note": 82, "velocity": 92, "duration": 576}, {"note": 0, "velocity": 0, "duration": 144}, {"note": 78, "velocity": 89, "duration": 191}, {"note": 73, "velocity": 104, "duration": 185}, {"note": 78, "velocity": 92, "duration": 124}, {"note": 0, "velocity": 0, "duration": 116}, {"note": 78, "velocity": 91, "duration": 204}, {"note": 87, "velocity": 99, "duration": 420}, {"note": 85, "velocity": 92, "duration": 456}, {"note": 85, "velocity": 90, "duration": 156}, {"note": 0, "velocity": 0, "duration": 84}, {"note": 85, "velocity": 92, "duration": 160}, {"note": 0, "velocity": 0, "duration": 80}, {"note": 80, "velocity": 93, "duration": 122}, {"note": 0, "velocity": 0, "duration": 118}, {"note": 80, "velocity": 92, "duration": 161}, {"note": 0, "velocity": 0, "duration": 79}, {"note": 83, "velocity": 93, "duration": 181}, {"note": 82, "velocity": 90, "duration": 164}, {"note": 0, "velocity": 0, "duration": 76}, {"note": 78, "velocity": 90, "duration": 344}, {"note": 0, "velocity": 0, "duration": 136}, {"note": 70, "velocity": 97, "duration": 171}, {"note": 0, "velocity": 0, "duration": 69}, {"note": 70, "velocity": 99, "duration": 176}, {"note": 0, "velocity": 0, "duration": 64}, {"note": 78, "velocity": 90, "duration": 155}, {"note": 0, "velocity": 0, "duration": 85}, {"note": 78, "velocity": 91, "duration": 157}, {"note": 0, "velocity": 0, "duration": 83}, {"note": 77, "velocity": 91, "duration": 164}, {"note": 0, "velocity": 0, "duration": 76}, {"note": 77, "velocity": 88, "duration": 296}, {"note": 0, "velocity": 0, "duration": 184}, {"note": 70, "velocity": 93, "duration": 204}, {"note": 73, "velocity": 93, "duration": 412}, {"note": 0, "velocity": 0, "duration": 68}, {"note": 75, "velocity": 99, "duration": 179}, {"note": 0, "velocity": 0, "duration": 61}, {"note": 77, "velocity": 90, "duration": 192}, {"note": 78, "velocity": 92, "duration": 164}, {"note": 0, "velocity": 0, "duration": 76}, {"note": 80, "velocity": 88, "duration": 577}, {"note": 0, "velocity": 0, "duration": 143}, {"note": 78, "velocity": 90, "duration": 193}, {"note": 77, "velocity": 92, "duration": 184}, {"note": 78, "velocity": 92, "duration": 180}, {"note": 80, "velocity": 95, "duration": 196}, {"note": 83, "velocity": 90, "duration": 176}, {"note": 0, "velocity": 0, "duration": 64}, {"note": 82, "velocity": 89, "duration": 440}, {"note": 80, "velocity": 92, "duration": 362}, {"note": 0, "velocity": 0, "duration": 118}, {"note": 78, "velocity": 89, "duration": 384}, {"note": 0, "velocity": 0, "duration": 96}, {"note": 75, "velocity": 95, "duration": 152}, {"note": 0, "velocity": 0, "duration": 88}, {"note": 77, "velocity": 89, "duration": 160}, {"note": 0, "velocity": 0, "duration": 80}, {"note": 78, "velocity": 90, "duration": 431}, {"note": 78, "velocity": 86, "duration": 118}, {"note": 0, "velocity": 0, "duration": 122}, {"note": 78, "velocity": 85, "duration": 128}, {"note": 0, "velocity": 0, "duration": 112}, {"note": 78, "velocity": 94, "duration": 248}, {"note": 77, "velocity": 84, "duration": 120}, {"note": 0, "velocity": 0, "duration": 120}, {"note": 77, "velocity": 90, "duration": 154}, {"note": 0, "velocity": 0, "duration": 86}, {"note": 78, "velocity": 94, "duration": 415}, {"note": 0, "velocity": 0, "duration": 65}, {"note": 80, "velocity": 90, "duration": 840}, {"note": 0, "velocity": 0, "duration": 360}, {"note": 78, "velocity": 92, "duration": 185}, {"note": 80, "velocity": 95, "duration": 176}, {"note": 0, "velocity": 0, "duration": 64}, {"note": 82, "velocity": 92, "duration": 576}, {"note": 0, "velocity": 0, "duration": 144}, {"note": 78, "velocity": 89, "duration": 191}, {"note": 73, "velocity": 104, "duration": 185}, {"note": 78, "velocity": 92, "duration": 124}, {"note": 0, "velocity": 0, "duration": 116}, {"note": 78, "velocity": 91, "duration": 204}, {"note": 87, "velocity": 99, "duration": 420}, {"note": 85, "velocity": 92, "duration": 456}, {"note": 85, "velocity": 90, "duration": 156}, {"note": 0, "velocity": 0, "duration": 84}, {"note": 85, "velocity": 92, "duration": 160}, {"note": 0, "velocity": 0, "duration": 80}, {"note": 80, "velocity": 93, "duration": 122}, {"note": 0, "velocity": 0, "duration": 118}, {"note": 80, "velocity": 92, "duration": 161}, {"note": 0, "velocity": 0, "duration": 79}, {"note": 83, "velocity": 93, "duration": 181}, {"note": 82, "velocity": 90, "duration": 164}, {"note": 0, "velocity": 0, "duration": 76}, {"note": 78, "velocity": 90, "duration": 344}, {"note": 0, "velocity": 0, "duration": 136}, {"note": 70, "velocity": 97, "duration": 171}, {"note": 0, "velocity": 0, "duration": 69}, {"note": 70, "velocity": 99, "duration": 176}, {"note": 0, "velocity": 0, "duration": 64}, {"note": 78, "velocity": 90, "duration": 155}, {"note": 0, "velocity": 0, "duration": 85}, {"note": 78, "velocity": 91, "duration": 157}, {"note": 0, "velocity": 0, "duration": 83}, {"note": 77, "velocity": 91, "duration": 164}, {"note": 0, "velocity": 0, "duration": 76}, {"note": 75, "velocity": 88, "duration": 296}, {"note": 0, "velocity": 0, "duration": 184}, {"note": 70, "velocity": 93, "duration": 204}, {"note": 73, "velocity": 93, "duration": 412}, {"note": 0, "velocity": 0, "duration": 68}, {"note": 75, "velocity": 99, "duration": 179}, {"note": 0, "velocity": 0, "duration": 61}, {"note": 77, "velocity": 90, "duration": 192}, {"note": 78, "velocity": 92, "duration": 164}, {"note": 0, "velocity": 0, "duration": 76}, {"note": 80, "velocity": 88, "duration": 577}, {"note": 0, "velocity": 0, "duration": 143}, {"note": 78, "velocity": 90, "duration": 193}, {"note": 77, "velocity": 92, "duration": 184}, {"note": 78, "velocity": 92, "duration": 180}, {"note": 80, "velocity": 95, "duration": 196}, {"note": 83, "velocity": 90, "duration": 176}, {"note": 0, "velocity": 0, "duration": 64}, {"note": 82, "velocity": 89, "duration": 440}, {"note": 80, "velocity": 92, "duration": 362}, {"note": 0, "velocity": 0, "duration": 118}, {"note": 78, "velocity": 89, "duration": 384}, {"note": 0, "velocity": 0, "duration": 96}, {"note": 80, "velocity": 95, "duration": 144}, {"note": 0, "velocity": 0, "duration": 96}, {"note": 82, "velocity": 95, "duration": 148}, {"note": 0, "velocity": 0, "duration": 92}, {"note": 83, "velocity": 94, "duration": 372}, {"note": 82, "velocity": 90, "duration": 270}, {"note": 0, "velocity": 0, "duration": 85}, {"note": 80, "velocity": 91, "duration": 173}, {"note": 0, "velocity": 0, "duration": 92}, {"note": 78, "velocity": 89, "duration": 380}, {"note": 0, "velocity": 0, "duration": 90}, {"note": 75, "velocity": 90, "duration": 166}, {"note": 0, "velocity": 0, "duration": 76}, {"note": 77, "velocity": 90, "duration": 441}, {"note": 0, "velocity": 0, "duration": 63}, {"note": 78, "velocity": 90, "duration": 1648}]]