[[{"note": 60, "velocity": 96, "duration": 66}, {"note": 60, "velocity": 96, "duration": 66}, {"note": 60, "velocity": 90, "duration": 76}, {"note": 74, "velocity": 99, "duration": 240}, {"note": 72, "velocity": 90, "duration": 191}, {"note": 72, "velocity": 92, "duration": 191}, {"note": 69, "velocity": 90, "duration": 142}, {"note": 0, "velocity": 0, "duration": 98}, {"note": 69, "velocity": 88, "duration": 185}, {"note": 67, "velocity": 92, "duration": 165}, {"note": 0, "velocity": 0, "duration": 75}, {"note": 67, "velocity": 91, "duration": 215}, {"note": 65, "velocity": 92, "duration": 205}, {"note": 69, "velocity": 92, "duration": 1050}, {"note": 0, "velocity": 0, "duration": 510}, {"note": 60, "velocity": 96, "duration": 66}, {"note": 60, "velocity": 96, "duration": 66}, {"note": 60, "velocity": 90, "duration": 76}, {"note": 74, "velocity": 99, "duration": 240}, {"note": 72, "velocity": 90, "duration": 191}, {"note": 72, "velocity": 92, "duration": 191}, {"note": 69, "velocity": 90, "duration": 142}, {"note": 0, "velocity": 0, "duration": 98}, {"note": 69, "velocity": 88, "duration": 185}, {"note": 67, "velocity": 92, "duration": 165}, {"note": 0, "velocity": 0, "duration": 75}, {"note": 67, "velocity": 91, "duration": 215}, {"note": 65, "velocity": 92, "duration": 205}, {"note": 67, "velocity": 92, "duration": 1050}, {"note": 0, "velocity": 0, "duration": 870}, {"note": 67, "velocity": 93, "duration": 195}, {"note": 67, "velocity": 93, "duration": 185}, {"note": 67, "velocity": 96, "duration": 176}, {"note": 0, "velocity": 0, "duration": 64}, {"note": 69, "velocity": 96, "duration": 197}, {"note": 72, "velocity": 96, "duration": 272}, {"note": 69, "velocity": 90, "duration": 482}, {"note": 0, "velocity": 0, "duration": 118}, {"note": 72, "velocity": 88, "duration": 111}, {"note": 74, "velocity": 94, "duration": 252}, {"note": 72, "velocity": 95, "duration": 260}, {"note": 69, "velocity": 94, "duration": 287}, {"note": 67, "velocity": 87, "duration": 240}, {"note": 65, "velocity": 93, "duration": 800}, {"note": 65, "velocity": 93, "duration": 120}, {"note": 67, "velocity": 92, "duration": 181}, {"note": 67, "velocity": 91, "duration": 170}, {"note": 0, "velocity": 0, "duration": 70}, {"note": 67, "velocity": 93, "duration": 159}, {"note": 0, "velocity": 0, "duration": 81}, {"note": 67, "velocity": 96, "duration": 178}, {"note": 0, "velocity": 0, "duration": 62}, {"note": 67, "velocity": 93, "duration": 221}, {"note": 72, "velocity": 92, "duration": 388}, {"note": 0, "velocity": 0, "duration": 92}, {"note": 62, "velocity": 96, "duration": 199}, {"note": 64, "velocity": 93, "duration": 219}, {"note": 60, "velocity": 87, "duration": 1200}, {"note": 0, "velocity": 0, "duration": 120}, {"note": 60, "velocity": 96, "duration": 66}, {"note": 60, "velocity": 96, "duration": 66}, {"note": 60, "velocity": 90, "duration": 76}, {"note": 74, "velocity": 99, "duration": 240}, {"note": 72, "velocity": 90, "duration": 191}, {"note": 72, "velocity": 92, "duration": 191}, {"note": 69, "velocity": 90, "duration": 142}, {"note": 0, "velocity": 0, "duration": 98}, {"note": 69, "velocity": 88, "duration": 185}, {"note": 67, "velocity": 92, "duration": 165}, {"note": 0, "velocity": 0, "duration": 75}, {"note": 67, "velocity": 91, "duration": 215}, {"note": 65, "velocity": 92, "duration": 205}, {"note": 69, "velocity": 92, "duration": 1050}, {"note": 0, "velocity": 0, "duration": 510}, {"note": 60, "velocity": 96, "duration": 66}, {"note": 60, "velocity": 96, "duration": 66}, {"note": 60, "velocity": 90, "duration": 76}, {"note": 74, "velocity": 99, "duration": 240}, {"note": 72, "velocity": 90, "duration": 191}, {"note": 72, "velocity": 92, "duration": 191}, {"note": 69, "velocity": 90, "duration": 142}, {"note": 0, "velocity": 0, "duration": 98}, {"note": 69, "velocity": 88, "duration": 185}, {"note": 67, "velocity": 92, "duration": 165}, {"note": 0, "velocity": 0, "duration": 75}, {"note": 67, "velocity": 91, "duration": 215}, {"note": 65, "velocity": 92, "duration": 205}, {"note": 67, "velocity": 92, "duration": 1050}, {"note": 0, "velocity": 0, "duration": 870}, {"note": 67, "velocity": 93, "duration": 195}, {"note": 67, "velocity": 93, "duration": 185}, {"note": 67, "velocity": 96, "duration": 176}, {"note": 0, "velocity": 0, "duration": 64}, {"note": 69, "velocity": 96, "duration": 197}, {"note": 72, "velocity": 96, "duration": 272}, {"note": 69, "velocity": 90, "duration": 482}, {"note": 0, "velocity": 0, "duration": 118}, {"note": 72, "velocity": 88, "duration": 111}, {"note": 74, "velocity": 94, "duration": 252}, {"note": 72, "velocity": 95, "duration": 260}, {"note": 69, "velocity": 94, "duration": 287}, {"note": 67, "velocity": 87, "duration": 240}, {"note": 65, "velocity": 93, "duration": 800}, {"note": 62, "velocity": 94, "duration": 229}, {"note": 60, "velocity": 96, "duration": 608}, {"note": 0, "velocity": 0, "duration": 112}, {"note": 74, "velocity": 99, "duration": 177}, {"note": 0, "velocity": 0, "duration": 63}, {"note": 72, "velocity": 92, "duration": 170}, {"note": 0, "velocity": 0, "duration": 70}, {"note": 74, "velocity": 99, "duration": 179}, {"note": 0, "velocity": 0, "duration": 61}, {"note": 69, "velocity": 93, "duration": 192}, {"note": 67, "velocity": 92, "duration": 197}, {"note": 65, "velocity": 95, "duration": 1826}, {"note": 0, "velocity": 0, "duration": 94}, {"note": 72, "velocity": 99, "duration": 177}, {"note": 0, "velocity": 0, "duration": 63}, {"note": 72, "velocity": 96, "duration": 149}, {"note": 0, "velocity": 0, "duration": 91}, {"note": 72, "velocity": 99, "duration": 191}, {"note": 74, "velocity": 98, "duration": 109}, {"note": 77, "velocity": 97, "duration": 350}, {"note": 74, "velocity": 99, "duration": 267}, {"note": 72, "velocity": 94, "duration": 221}, {"note": 69, "velocity": 97, "duration": 254}, {"note": 72, "velocity": 97, "duration": 1514}, {"note": 0, "velocity": 0, "duration": 406}, {"note": 72, "velocity": 96, "duration": 187}, {"note": 72, "velocity": 94, "duration": 145}, {"note": 0, "velocity": 0, "duration": 95}, {"note": 72, "velocity": 99, "duration": 187}, {"note": 74, "velocity": 96, "duration": 122}, {"note": 77, "velocity": 96, "duration": 337}, {"note": 74, "velocity": 94, "duration": 172}, {"note": 0, "velocity": 0, "duration": 68}, {"note": 72, "velocity": 96, "duration": 192}, {"note": 65, "velocity": 97, "duration": 205}, {"note": 67, "velocity": 93, "duration": 1506}, {"note": 0, "velocity": 0, "duration": 414}, {"note": 62, "velocity": 98, "duration": 209}, {"note": 65, "velocity": 93, "duration": 258}, {"note": 67, "velocity": 93, "duration": 173}, {"note": 0, "velocity": 0, "duration": 67}, {"note": 74, "velocity": 103, "duration": 423}, {"note": 72, "velocity": 94, "duration": 392}, {"note": 0, "velocity": 0, "duration": 88}, {"note": 74, "velocity": 99, "duration": 197}, {"note": 72, "velocity": 97, "duration": 255}, {"note": 74, "velocity": 97, "duration": 222}, {"note": 69, "velocity": 93, "duration": 268}, {"note": 67, "velocity": 92, "duration": 262}, {"note": 65, "velocity": 95, "duration": 513}, {"note": 0, "velocity": 0, "duration": 207}, {"note": 65, "velocity": 96, "duration": 207}, {"note": 67, "velocity": 92, "duration": 236}, {"note": 65, "velocity": 93, "duration": 270}, {"note": 67, "velocity": 96, "duration": 243}, {"note": 65, "velocity": 93, "duration": 269}, {"note": 67, "velocity": 93, "duration": 485}, {"note": 69, "velocity": 86, "duration": 501}, {"note": 72, "velocity": 92, "duration": 1920}, {"note": 0, "velocity": 0, "duration": 15000}, {"note": 60, "velocity": 96, "duration": 66}, {"note": 60, "velocity": 96, "duration": 66}, {"note": 60, "velocity": 90, "duration": 76}, {"note": 74, "velocity": 99, "duration": 240}, {"note": 72, "velocity": 90, "duration": 191}, {"note": 72, "velocity": 92, "duration": 191}, {"note": 69, "velocity": 90, "duration": 142}, {"note": 0, "velocity": 0, "duration": 98}, {"note": 69, "velocity": 88, "duration": 185}, {"note": 67, "velocity": 92, "duration": 165}, {"note": 0, "velocity": 0, "duration": 75}, {"note": 67, "velocity": 91, "duration": 215}, {"note": 65, "velocity": 92, "duration": 205}, {"note": 69, "velocity": 92, "duration": 1050}, {"note": 0, "velocity": 0, "duration": 510}, {"note": 60, "velocity": 96, "duration": 66}, {"note": 60, "velocity": 96, "duration": 66}, {"note": 60, "velocity": 90, "duration": 76}, {"note": 74, "velocity": 99, "duration": 240}, {"note": 72, "velocity": 90, "duration": 191}, {"note": 72, "velocity": 92, "duration": 191}, {"note": 69, "velocity": 90, "duration": 142}, {"note": 0, "velocity": 0, "duration": 98}, {"note": 69, "velocity": 88, "duration": 185}, {"note": 67, "velocity": 92, "duration": 165}, {"note": 0, "velocity": 0, "duration": 75}, {"note": 67, "velocity": 91, "duration": 215}, {"note": 65, "velocity": 92, "duration": 205}, {"note": 67, "velocity": 92, "duration": 1050}, {"note": 0, "velocity": 0, "duration": 870}, {"note": 67, "velocity": 93, "duration": 195}, {"note": 67, "velocity": 93, "duration": 185}, {"note": 67, "velocity": 96, "duration": 176}, {"note": 0, "velocity": 0, "duration": 64}, {"note": 69, "velocity": 96, "duration": 197}, {"note": 72, "velocity": 96, "duration": 272}, {"note": 69, "velocity": 90, "duration": 482}, {"note": 0, "velocity": 0, "duration": 118}, {"note": 72, "velocity": 88, "duration": 111}, {"note": 74, "velocity": 94, "duration": 252}, {"note": 72, "velocity": 95, "duration": 260}, {"note": 69, "velocity": 94, "duration": 287}, {"note": 67, "velocity": 87, "duration": 240}, {"note": 65, "velocity": 93, "duration": 800}, {"note": 62, "velocity": 94, "duration": 229}, {"note": 60, "velocity": 96, "duration": 608}, {"note": 0, "velocity": 0, "duration": 112}, {"note": 74, "velocity": 99, "duration": 177}, {"note": 0, "velocity": 0, "duration": 63}, {"note": 72, "velocity": 92, "duration": 170}, {"note": 0, "velocity": 0, "duration": 70}, {"note": 74, "velocity": 99, "duration": 179}, {"note": 0, "velocity": 0, "duration": 61}, {"note": 69, "velocity": 93, "duration": 192}, {"note": 67, "velocity": 92, "duration": 197}, {"note": 65, "velocity": 95, "duration": 1826}, {"note": 0, "velocity": 0, "duration": 94}, {"note": 72, "velocity": 99, "duration": 177}, {"note": 0, "velocity": 0, "duration": 63}, {"note": 72, "velocity": 96, "duration": 149}, {"note": 0, "velocity": 0, "duration": 91}, {"note": 72, "velocity": 99, "duration": 191}, {"note": 74, "velocity": 98, "duration": 109}, {"note": 77, "velocity": 97, "duration": 350}, {"note": 74, "velocity": 99, "duration": 267}, {"note": 72, "velocity": 94, "duration": 221}, {"note": 69, "velocity": 97, "duration": 254}, {"note": 72, "velocity": 97, "duration": 1514}, {"note": 0, "velocity": 0, "duration": 406}, {"note": 72, "velocity": 96, "duration": 187}, {"note": 72, "velocity": 94, "duration": 145}, {"note": 0, "velocity": 0, "duration": 95}, {"note": 72, "velocity": 99, "duration": 187}, {"note": 74, "velocity": 96, "duration": 122}, {"note": 77, "velocity": 96, "duration": 337}, {"note": 74, "velocity": 94, "duration": 172}, {"note": 0, "velocity": 0, "duration": 68}, {"note": 72, "velocity": 96, "duration": 192}, {"note": 65, "velocity": 97, "duration": 205}, {"note": 67, "velocity": 93, "duration": 1506}, {"note": 0, "velocity": 0, "duration": 414}, {"note": 62, "velocity": 98, "duration": 209}, {"note": 65, "velocity": 93, "duration": 258}, {"note": 67, "velocity": 93, "duration": 173}, {"note": 0, "velocity": 0, "duration": 67}, {"note": 74, "velocity": 103, "duration": 423}, {"note": 72, "velocity": 94, "duration": 392}, {"note": 0, "velocity": 0, "duration": 88}, {"note": 74, "velocity": 99, "duration": 197}, {"note": 72, "velocity": 97, "duration": 255}, {"note": 74, "velocity": 97, "duration": 222}, {"note": 69, "velocity": 93, "duration": 268}, {"note": 67, "velocity": 92, "duration": 262}, {"note": 65, "velocity": 95, "duration": 513}, {"note": 0, "velocity": 0, "duration": 207}, {"note": 65, "velocity": 96, "duration": 207}, {"note": 67, "velocity": 92, "duration": 236}, {"note": 65, "velocity": 93, "duration": 270}, {"note": 67, "velocity": 96, "duration": 243}, {"note": 65, "velocity": 93, "duration": 269}, {"note": 67, "velocity": 93, "duration": 485}, {"note": 69, "velocity": 86, "duration": 501}, {"note": 72, "velocity": 92, "duration": 1200}, {"note": 0, "velocity": 0, "duration": 360}, {"note": 60, "velocity": 96, "duration": 66}, {"note": 60, "velocity": 96, "duration": 66}, {"note": 60, "velocity": 90, "duration": 76}, {"note": 74, "velocity": 99, "duration": 240}, {"note": 72, "velocity": 90, "duration": 191}, {"note": 72, "velocity": 92, "duration": 191}, {"note": 69, "velocity": 90, "duration": 142}, {"note": 0, "velocity": 0, "duration": 98}, {"note": 69, "velocity": 88, "duration": 185}, {"note": 67, "velocity": 92, "duration": 165}, {"note": 0, "velocity": 0, "duration": 75}, {"note": 67, "velocity": 91, "duration": 215}, {"note": 65, "velocity": 92, "duration": 205}, {"note": 69, "velocity": 92, "duration": 1050}, {"note": 0, "velocity": 0, "duration": 510}, {"note": 60, "velocity": 96, "duration": 66}, {"note": 60, "velocity": 96, "duration": 66}, {"note": 60, "velocity": 90, "duration": 76}, {"note": 74, "velocity": 99, "duration": 240}, {"note": 72, "velocity": 90, "duration": 191}, {"note": 72, "velocity": 92, "duration": 191}, {"note": 69, "velocity": 90, "duration": 142}, {"note": 0, "velocity": 0, "duration": 98}, {"note": 69, "velocity": 88, "duration": 185}, {"note": 67, "velocity": 92, "duration": 165}, {"note": 0, "velocity": 0, "duration": 75}, {"note": 67, "velocity": 91, "duration": 215}, {"note": 65, "velocity": 92, "duration": 205}, {"note": 67, "velocity": 92, "duration": 1050}, {"note": 0, "velocity": 0, "duration": 870}, {"note": 67, "velocity": 93, "duration": 195}, {"note": 67, "velocity": 93, "duration": 185}, {"note": 67, "velocity": 96, "duration": 176}, {"note": 0, "velocity": 0, "duration": 64}, {"note": 69, "velocity": 96, "duration": 197}, {"note": 72, "velocity": 96, "duration": 272}, {"note": 69, "velocity": 90, "duration": 482}, {"note": 0, "velocity": 0, "duration": 118}, {"note": 72, "velocity": 88, "duration": 111}, {"note": 74, "velocity": 94, "duration": 252}, {"note": 72, "velocity": 95, "duration": 260}, {"note": 69, "velocity": 94, "duration": 287}, {"note": 67, "velocity": 87, "duration": 240}, {"note": 65, "velocity": 93, "duration": 800}, {"note": 62, "velocity": 94, "duration": 229}, {"note": 60, "velocity": 96, "duration": 608}, {"note": 0, "velocity": 0, "duration": 112}, {"note": 74, "velocity": 99, "duration": 177}, {"note": 0, "velocity": 0, "duration": 63}, {"note": 72, "velocity": 92, "duration": 170}, {"note": 0, "velocity": 0, "duration": 70}, {"note": 74, "velocity": 99, "duration": 179}, {"note": 0, "velocity": 0, "duration": 61}, {"note": 69, "velocity": 93, "duration": 192}, {"note": 67, "velocity": 92, "duration": 197}, {"note": 65, "velocity": 95, "duration": 1826}, {"note": 0, "velocity": 0, "duration": 94}, {"note": 67, "velocity": 93, "duration": 195}, {"note": 67, "velocity": 93, "duration": 185}, {"note": 67, "velocity": 96, "duration": 176}, {"note": 0, "velocity": 0, "duration": 64}, {"note": 69, "velocity": 96, "duration": 197}, {"note": 72, "velocity": 96, "duration": 272}, {"note": 69, "velocity": 90, "duration": 482}, {"note": 0, "velocity": 0, "duration": 118}, {"note": 72, "velocity": 88, "duration": 111}, {"note": 74, "velocity": 94, "duration": 252}, {"note": 72, "velocity": 95, "duration": 260}, {"note": 69, "velocity": 94, "duration": 287}, {"note": 67, "velocity": 87, "duration": 240}, {"note": 65, "velocity": 93, "duration": 800}, {"note": 62, "velocity": 94, "duration": 229}, {"note": 60, "velocity": 96, "duration": 608}, {"note": 0, "velocity": 0, "duration": 351}, {"note": 74, "velocity": 99, "duration": 326}, {"note": 72, "velocity": 96, "duration": 407}, {"note": 74, "velocity": 101, "duration": 391}, {"note": 69, "velocity": 94, "duration": 460}, {"note": 67, "velocity": 92, "duration": 887}, {"note": 65, "velocity": 94, "duration": 2579}]]