[[{"note": 74, "velocity": 93, "duration": 153}, {"note": 0, "velocity": 0, "duration": 87}, {"note": 74, "velocity": 91, "duration": 192}, {"note": 67, "velocity": 84, "duration": 157}, {"note": 0, "velocity": 0, "duration": 83}, {"note": 67, "velocity": 84, "duration": 443}, {"note": 69, "velocity": 84, "duration": 168}, {"note": 0, "velocity": 0, "duration": 72}, {"note": 71, "velocity": 83, "duration": 307}, {"note": 0, "velocity": 0, "duration": 173}, {"note": 74, "velocity": 89, "duration": 152}, {"note": 0, "velocity": 0, "duration": 88}, {"note": 74, "velocity": 89, "duration": 177}, {"note": 0, "velocity": 0, "duration": 63}, {"note": 67, "velocity": 86, "duration": 171}, {"note": 0, "velocity": 0, "duration": 69}, {"note": 67, "velocity": 84, "duration": 176}, {"note": 0, "velocity": 0, "duration": 64}, {"note": 69, "velocity": 85, "duration": 64}, {"note": 71, "velocity": 83, "duration": 77}, {"note": 69, "velocity": 87, "duration": 72}, {"note": 67, "velocity": 84, "duration": 83}, {"note": 62, "velocity": 88, "duration": 312}, {"note": 0, "velocity": 0, "duration": 168}, {"note": 74, "velocity": 83, "duration": 151}, {"note": 0, "velocity": 0, "duration": 89}, {"note": 74, "velocity": 89, "duration": 175}, {"note": 0, "velocity": 0, "duration": 65}, {"note": 67, "velocity": 84, "duration": 174}, {"note": 0, "velocity": 0, "duration": 66}, {"note": 67, "velocity": 86, "duration": 436}, {"note": 69, "velocity": 83, "duration": 218}, {"note": 71, "velocity": 84, "duration": 360}, {"note": 0, "velocity": 0, "duration": 120}, {"note": 71, "velocity": 86, "duration": 363}, {"note": 0, "velocity": 0, "duration": 117}, {"note": 69, "velocity": 88, "duration": 69}, {"note": 71, "velocity": 84, "duration": 69}, {"note": 72, "velocity": 86, "duration": 98}, {"note": 71, "velocity": 82, "duration": 108}, {"note": 69, "velocity": 84, "duration": 120}, {"note": 72, "velocity": 80, "duration": 85}, {"note": 71, "velocity": 83, "duration": 99}, {"note": 69, "velocity": 84, "duration": 72}, {"note": 67, "velocity": 84, "duration": 227}, {"note": 64, "velocity": 88, "duration": 173}, {"note": 0, "velocity": 0, "duration": 67}, {"note": 67, "velocity": 85, "duration": 158}, {"note": 0, "velocity": 0, "duration": 82}, {"note": 67, "velocity": 85, "duration": 225}, {"note": 71, "velocity": 84, "duration": 160}, {"note": 0, "velocity": 0, "duration": 80}, {"note": 72, "velocity": 83, "duration": 165}, {"note": 0, "velocity": 0, "duration": 75}, {"note": 71, "velocity": 86, "duration": 160}, {"note": 0, "velocity": 0, "duration": 80}, {"note": 69, "velocity": 86, "duration": 180}, {"note": 67, "velocity": 84, "duration": 71}, {"note": 69, "velocity": 86, "duration": 77}, {"note": 71, "velocity": 83, "duration": 74}, {"note": 0, "velocity": 0, "duration": 166}, {"note": 71, "velocity": 83, "duration": 124}, {"note": 0, "velocity": 0, "duration": 116}, {"note": 71, "velocity": 83, "duration": 131}, {"note": 0, "velocity": 0, "duration": 109}, {"note": 71, "velocity": 85, "duration": 131}, {"note": 0, "velocity": 0, "duration": 109}, {"note": 69, "velocity": 88, "duration": 56}, {"note": 0, "velocity": 0, "duration": 64}, {"note": 71, "velocity": 86, "duration": 67}, {"note": 69, "velocity": 91, "duration": 194}, {"note": 67, "velocity": 83, "duration": 327}, {"note": 0, "velocity": 0, "duration": 153}, {"note": 62, "velocity": 85, "duration": 210}, {"note": 67, "velocity": 82, "duration": 160}, {"note": 0, "velocity": 0, "duration": 80}, {"note": 67, "velocity": 83, "duration": 188}, {"note": 71, "velocity": 84, "duration": 186}, {"note": 72, "velocity": 84, "duration": 179}, {"note": 0, "velocity": 0, "duration": 61}, {"note": 71, "velocity": 84, "duration": 177}, {"note": 0, "velocity": 0, "duration": 63}, {"note": 69, "velocity": 87, "duration": 188}, {"note": 67, "velocity": 81, "duration": 94}, {"note": 69, "velocity": 86, "duration": 80}, {"note": 71, "velocity": 84, "duration": 176}, {"note": 0, "velocity": 0, "duration": 64}, {"note": 71, "velocity": 83, "duration": 169}, {"note": 0, "velocity": 0, "duration": 71}, {"note": 71, "velocity": 84, "duration": 176}, {"note": 0, "velocity": 0, "duration": 64}, {"note": 71, "velocity": 84, "duration": 177}, {"note": 0, "velocity": 0, "duration": 63}, {"note": 69, "velocity": 83, "duration": 85}, {"note": 71, "velocity": 83, "duration": 77}, {"note": 69, "velocity": 86, "duration": 188}, {"note": 67, "velocity": 86, "duration": 339}, {"note": 66, "velocity": 78, "duration": 131}, {"note": 67, "velocity": 83, "duration": 66}, {"note": 67, "velocity": 77, "duration": 63}, {"note": 67, "velocity": 82, "duration": 58}, {"note": 0, "velocity": 0, "duration": 62}, {"note": 67, "velocity": 83, "duration": 88}, {"note": 66, "velocity": 91, "duration": 87}, {"note": 67, "velocity": 83, "duration": 138}, {"note": 0, "velocity": 0, "duration": 102}, {"note": 67, "velocity": 82, "duration": 177}, {"note": 0, "velocity": 0, "duration": 63}, {"note": 67, "velocity": 80, "duration": 64}, {"note": 67, "velocity": 83, "duration": 68}, {"note": 67, "velocity": 83, "duration": 86}, {"note": 66, "velocity": 87, "duration": 92}, {"note": 67, "velocity": 82, "duration": 142}, {"note": 0, "velocity": 0, "duration": 98}, {"note": 67, "velocity": 80, "duration": 191}, {"note": 67, "velocity": 78, "duration": 73}, {"note": 67, "velocity": 78, "duration": 61}, {"note": 67, "velocity": 82, "duration": 85}, {"note": 66, "velocity": 83, "duration": 92}, {"note": 67, "velocity": 83, "duration": 143}, {"note": 0, "velocity": 0, "duration": 97}, {"note": 67, "velocity": 84, "duration": 178}, {"note": 0, "velocity": 0, "duration": 62}, {"note": 67, "velocity": 80, "duration": 65}, {"note": 67, "velocity": 82, "duration": 63}, {"note": 67, "velocity": 83, "duration": 79}, {"note": 74, "velocity": 88, "duration": 120}, {"note": 74, "velocity": 84, "duration": 103}, {"note": 0, "velocity": 0, "duration": 137}, {"note": 74, "velocity": 93, "duration": 73}, {"note": 0, "velocity": 0, "duration": 167}, {"note": 74, "velocity": 84, "duration": 51}, {"note": 0, "velocity": 0, "duration": 69}, {"note": 74, "velocity": 84, "duration": 48}, {"note": 0, "velocity": 0, "duration": 72}, {"note": 74, "velocity": 83, "duration": 57}, {"note": 0, "velocity": 0, "duration": 63}, {"note": 74, "velocity": 91, "duration": 83}, {"note": 74, "velocity": 86, "duration": 175}, {"note": 0, "velocity": 0, "duration": 65}, {"note": 74, "velocity": 86, "duration": 58}, {"note": 0, "velocity": 0, "duration": 182}, {"note": 74, "velocity": 86, "duration": 57}, {"note": 0, "velocity": 0, "duration": 63}, {"note": 74, "velocity": 86, "duration": 57}, {"note": 0, "velocity": 0, "duration": 63}, {"note": 74, "velocity": 84, "duration": 52}, {"note": 0, "velocity": 0, "duration": 68}, {"note": 74, "velocity": 87, "duration": 108}, {"note": 72, "velocity": 84, "duration": 74}, {"note": 72, "velocity": 82, "duration": 97}, {"note": 71, "velocity": 86, "duration": 981}, {"note": 0, "velocity": 0, "duration": 579}, {"note": 69, "velocity": 83, "duration": 98}, {"note": 67, "velocity": 74, "duration": 73}, {"note": 66, "velocity": 84, "duration": 85}, {"note": 67, "velocity": 78, "duration": 94}, {"note": 64, "velocity": 89, "duration": 197}, {"note": 66, "velocity": 84, "duration": 184}, {"note": 67, "velocity": 84, "duration": 188}, {"note": 74, "velocity": 87, "duration": 177}, {"note": 0, "velocity": 0, "duration": 63}, {"note": 72, "velocity": 83, "duration": 202}, {"note": 71, "velocity": 82, "duration": 218}, {"note": 67, "velocity": 83, "duration": 182}, {"note": 67, "velocity": 82, "duration": 1154}, {"note": 67, "velocity": 87, "duration": 63}, {"note": 67, "velocity": 72, "duration": 50}, {"note": 0, "velocity": 0, "duration": 70}, {"note": 67, "velocity": 81, "duration": 54}, {"note": 0, "velocity": 0, "duration": 66}, {"note": 67, "velocity": 81, "duration": 79}, {"note": 71, "velocity": 86, "duration": 180}, {"note": 67, "velocity": 84, "duration": 191}, {"note": 64, "velocity": 89, "duration": 209}, {"note": 66, "velocity": 84, "duration": 231}, {"note": 67, "velocity": 84, "duration": 223}, {"note": 74, "velocity": 89, "duration": 196}, {"note": 72, "velocity": 82, "duration": 269}, {"note": 71, "velocity": 83, "duration": 251}, {"note": 67, "velocity": 82, "duration": 236}, {"note": 69, "velocity": 83, "duration": 1244}, {"note": 0, "velocity": 0, "duration": 916}, {"note": 71, "velocity": 85, "duration": 252}, {"note": 69, "velocity": 85, "duration": 248}, {"note": 72, "velocity": 82, "duration": 264}, {"note": 71, "velocity": 83, "duration": 305}, {"note": 0, "velocity": 0, "duration": 175}, {"note": 67, "velocity": 84, "duration": 228}, {"note": 74, "velocity": 89, "duration": 181}, {"note": 78, "velocity": 85, "duration": 190}, {"note": 79, "velocity": 86, "duration": 192}, {"note": 78, "velocity": 88, "duration": 177}, {"note": 0, "velocity": 0, "duration": 63}, {"note": 74, "velocity": 85, "duration": 179}, {"note": 0, "velocity": 0, "duration": 61}, {"note": 67, "velocity": 96, "duration": 352}, {"note": 0, "velocity": 0, "duration": 128}, {"note": 67, "velocity": 88, "duration": 206}, {"note": 76, "velocity": 83, "duration": 177}, {"note": 0, "velocity": 0, "duration": 63}, {"note": 76, "velocity": 86, "duration": 306}, {"note": 0, "velocity": 0, "duration": 174}, {"note": 76, "velocity": 84, "duration": 192}, {"note": 74, "velocity": 88, "duration": 177}, {"note": 0, "velocity": 0, "duration": 63}, {"note": 74, "velocity": 93, "duration": 300}, {"note": 0, "velocity": 0, "duration": 180}, {"note": 74, "velocity": 93, "duration": 186}, {"note": 72, "velocity": 84, "duration": 183}, {"note": 71, "velocity": 84, "duration": 175}, {"note": 0, "velocity": 0, "duration": 65}, {"note": 69, "velocity": 86, "duration": 201}, {"note": 71, "velocity": 86, "duration": 186}, {"note": 72, "velocity": 86, "duration": 200}, {"note": 71, "velocity": 85, "duration": 840}, {"note": 0, "velocity": 0, "duration": 360}, {"note": 71, "velocity": 91, "duration": 192}, {"note": 73, "velocity": 86, "duration": 193}, {"note": 75, "velocity": 88, "duration": 199}, {"note": 71, "velocity": 93, "duration": 396}, {"note": 0, "velocity": 0, "duration": 84}, {"note": 73, "velocity": 89, "duration": 181}, {"note": 75, "velocity": 87, "duration": 153}, {"note": 0, "velocity": 0, "duration": 87}, {"note": 78, "velocity": 93, "duration": 188}, {"note": 81, "velocity": 83, "duration": 304}, {"note": 78, "velocity": 82, "duration": 202}, {"note": 79, "velocity": 83, "duration": 240}, {"note": 79, "velocity": 84, "duration": 734}, {"note": 0, "velocity": 0, "duration": 226}, {"note": 79, "velocity": 83, "duration": 177}, {"note": 0, "velocity": 0, "duration": 63}, {"note": 79, "velocity": 84, "duration": 172}, {"note": 0, "velocity": 0, "duration": 68}, {"note": 74, "velocity": 89, "duration": 177}, {"note": 0, "velocity": 0, "duration": 63}, {"note": 74, "velocity": 93, "duration": 175}, {"note": 0, "velocity": 0, "duration": 65}, {"note": 76, "velocity": 89, "duration": 194}, {"note": 74, "velocity": 87, "duration": 183}, {"note": 72, "velocity": 88, "duration": 200}, {"note": 69, "velocity": 84, "duration": 191}, {"note": 71, "velocity": 83, "duration": 188}, {"note": 72, "velocity": 83, "duration": 215}, {"note": 74, "velocity": 84, "duration": 211}, {"note": 76, "velocity": 83, "duration": 226}, {"note": 67, "velocity": 85, "duration": 230}, {"note": 76, "velocity": 89, "duration": 523}, {"note": 78, "velocity": 84, "duration": 405}, {"note": 0, "velocity": 0, "duration": 75}, {"note": 71, "velocity": 85, "duration": 252}, {"note": 69, "velocity": 85, "duration": 248}, {"note": 72, "velocity": 82, "duration": 264}, {"note": 71, "velocity": 83, "duration": 305}, {"note": 0, "velocity": 0, "duration": 175}, {"note": 67, "velocity": 84, "duration": 228}, {"note": 74, "velocity": 89, "duration": 181}, {"note": 78, "velocity": 85, "duration": 190}, {"note": 79, "velocity": 86, "duration": 192}, {"note": 78, "velocity": 88, "duration": 177}, {"note": 0, "velocity": 0, "duration": 63}, {"note": 74, "velocity": 85, "duration": 179}, {"note": 0, "velocity": 0, "duration": 61}, {"note": 67, "velocity": 96, "duration": 352}, {"note": 0, "velocity": 0, "duration": 128}, {"note": 67, "velocity": 88, "duration": 206}, {"note": 76, "velocity": 83, "duration": 177}, {"note": 0, "velocity": 0, "duration": 63}, {"note": 76, "velocity": 86, "duration": 306}, {"note": 0, "velocity": 0, "duration": 174}, {"note": 76, "velocity": 84, "duration": 192}, {"note": 74, "velocity": 88, "duration": 177}, {"note": 0, "velocity": 0, "duration": 63}, {"note": 74, "velocity": 93, "duration": 300}, {"note": 0, "velocity": 0, "duration": 180}, {"note": 74, "velocity": 93, "duration": 186}, {"note": 72, "velocity": 84, "duration": 183}, {"note": 71, "velocity": 84, "duration": 175}, {"note": 0, "velocity": 0, "duration": 65}, {"note": 69, "velocity": 86, "duration": 201}, {"note": 71, "velocity": 86, "duration": 186}, {"note": 72, "velocity": 86, "duration": 200}, {"note": 71, "velocity": 85, "duration": 840}, {"note": 0, "velocity": 0, "duration": 360}, {"note": 71, "velocity": 91, "duration": 192}, {"note": 73, "velocity": 86, "duration": 193}, {"note": 75, "velocity": 88, "duration": 199}, {"note": 71, "velocity": 93, "duration": 396}, {"note": 0, "velocity": 0, "duration": 84}, {"note": 73, "velocity": 89, "duration": 181}, {"note": 75, "velocity": 87, "duration": 153}, {"note": 0, "velocity": 0, "duration": 87}, {"note": 78, "velocity": 93, "duration": 188}, {"note": 81, "velocity": 83, "duration": 304}, {"note": 78, "velocity": 82, "duration": 202}, {"note": 79, "velocity": 83, "duration": 240}, {"note": 79, "velocity": 84, "duration": 734}, {"note": 0, "velocity": 0, "duration": 226}, {"note": 79, "velocity": 83, "duration": 177}, {"note": 0, "velocity": 0, "duration": 63}, {"note": 79, "velocity": 84, "duration": 172}, {"note": 0, "velocity": 0, "duration": 68}, {"note": 74, "velocity": 89, "duration": 177}, {"note": 0, "velocity": 0, "duration": 63}, {"note": 74, "velocity": 93, "duration": 175}, {"note": 0, "velocity": 0, "duration": 65}, {"note": 76, "velocity": 89, "duration": 194}, {"note": 74, "velocity": 87, "duration": 183}, {"note": 72, "velocity": 88, "duration": 200}, {"note": 64, "velocity": 84, "duration": 191}, {"note": 66, "velocity": 83, "duration": 188}, {"note": 67, "velocity": 83, "duration": 215}, {"note": 69, "velocity": 84, "duration": 211}, {"note": 71, "velocity": 83, "duration": 226}, {"note": 69, "velocity": 85, "duration": 360}, {"note": 0, "velocity": 0, "duration": 240}, {"note": 62, "velocity": 80, "duration": 160}, {"note": 71, "velocity": 85, "duration": 224}, {"note": 67, "velocity": 82, "duration": 1243}, {"note": 0, "velocity": 0, "duration": 6557}, {"note": 66, "velocity": 78, "duration": 131}, {"note": 67, "velocity": 83, "duration": 66}, {"note": 67, "velocity": 77, "duration": 63}, {"note": 67, "velocity": 82, "duration": 58}, {"note": 0, "velocity": 0, "duration": 62}, {"note": 67, "velocity": 83, "duration": 88}, {"note": 66, "velocity": 91, "duration": 87}, {"note": 67, "velocity": 83, "duration": 138}, {"note": 0, "velocity": 0, "duration": 102}, {"note": 67, "velocity": 82, "duration": 177}, {"note": 0, "velocity": 0, "duration": 63}, {"note": 67, "velocity": 80, "duration": 64}, {"note": 67, "velocity": 83, "duration": 68}, {"note": 67, "velocity": 83, "duration": 86}, {"note": 66, "velocity": 87, "duration": 92}, {"note": 67, "velocity": 82, "duration": 142}, {"note": 0, "velocity": 0, "duration": 98}, {"note": 67, "velocity": 80, "duration": 191}, {"note": 67, "velocity": 78, "duration": 73}, {"note": 67, "velocity": 78, "duration": 61}, {"note": 67, "velocity": 82, "duration": 85}, {"note": 66, "velocity": 83, "duration": 92}, {"note": 67, "velocity": 83, "duration": 143}, {"note": 0, "velocity": 0, "duration": 97}, {"note": 67, "velocity": 84, "duration": 178}, {"note": 0, "velocity": 0, "duration": 62}, {"note": 67, "velocity": 80, "duration": 65}, {"note": 67, "velocity": 82, "duration": 63}, {"note": 67, "velocity": 83, "duration": 79}, {"note": 74, "velocity": 88, "duration": 120}, {"note": 74, "velocity": 84, "duration": 103}, {"note": 0, "velocity": 0, "duration": 137}, {"note": 74, "velocity": 93, "duration": 73}, {"note": 0, "velocity": 0, "duration": 167}, {"note": 74, "velocity": 84, "duration": 51}, {"note": 0, "velocity": 0, "duration": 69}, {"note": 74, "velocity": 84, "duration": 48}, {"note": 0, "velocity": 0, "duration": 72}, {"note": 74, "velocity": 83, "duration": 57}, {"note": 0, "velocity": 0, "duration": 63}, {"note": 74, "velocity": 91, "duration": 83}, {"note": 74, "velocity": 86, "duration": 175}, {"note": 0, "velocity": 0, "duration": 65}, {"note": 74, "velocity": 86, "duration": 58}, {"note": 0, "velocity": 0, "duration": 182}, {"note": 74, "velocity": 86, "duration": 57}, {"note": 0, "velocity": 0, "duration": 63}, {"note": 74, "velocity": 86, "duration": 57}, {"note": 0, "velocity": 0, "duration": 63}, {"note": 74, "velocity": 84, "duration": 52}, {"note": 0, "velocity": 0, "duration": 68}, {"note": 74, "velocity": 87, "duration": 108}, {"note": 72, "velocity": 84, "duration": 74}, {"note": 72, "velocity": 82, "duration": 97}, {"note": 71, "velocity": 86, "duration": 981}, {"note": 0, "velocity": 0, "duration": 579}, {"note": 69, "velocity": 83, "duration": 98}, {"note": 67, "velocity": 74, "duration": 73}, {"note": 66, "velocity": 84, "duration": 85}, {"note": 67, "velocity": 78, "duration": 94}, {"note": 64, "velocity": 89, "duration": 197}, {"note": 66, "velocity": 84, "duration": 184}, {"note": 67, "velocity": 84, "duration": 188}, {"note": 74, "velocity": 87, "duration": 177}, {"note": 0, "velocity": 0, "duration": 63}, {"note": 72, "velocity": 83, "duration": 202}, {"note": 71, "velocity": 82, "duration": 218}, {"note": 67, "velocity": 83, "duration": 182}, {"note": 67, "velocity": 82, "duration": 1154}, {"note": 0, "velocity": 0, "duration": 286}, {"note": 74, "velocity": 86, "duration": 180}, {"note": 71, "velocity": 84, "duration": 191}, {"note": 69, "velocity": 84, "duration": 191}, {"note": 64, "velocity": 89, "duration": 209}, {"note": 66, "velocity": 84, "duration": 231}, {"note": 67, "velocity": 84, "duration": 223}, {"note": 74, "velocity": 89, "duration": 196}, {"note": 72, "velocity": 82, "duration": 269}, {"note": 71, "velocity": 83, "duration": 251}, {"note": 67, "velocity": 82, "duration": 236}, {"note": 69, "velocity": 83, "duration": 1244}, {"note": 0, "velocity": 0, "duration": 916}, {"note": 71, "velocity": 85, "duration": 252}, {"note": 69, "velocity": 85, "duration": 248}, {"note": 72, "velocity": 82, "duration": 264}, {"note": 71, "velocity": 83, "duration": 305}, {"note": 0, "velocity": 0, "duration": 175}, {"note": 67, "velocity": 84, "duration": 228}, {"note": 74, "velocity": 89, "duration": 181}, {"note": 78, "velocity": 85, "duration": 190}, {"note": 79, "velocity": 86, "duration": 192}, {"note": 78, "velocity": 88, "duration": 177}, {"note": 0, "velocity": 0, "duration": 63}, {"note": 74, "velocity": 85, "duration": 179}, {"note": 0, "velocity": 0, "duration": 61}, {"note": 67, "velocity": 96, "duration": 352}, {"note": 0, "velocity": 0, "duration": 128}, {"note": 67, "velocity": 88, "duration": 206}, {"note": 76, "velocity": 83, "duration": 177}, {"note": 0, "velocity": 0, "duration": 63}, {"note": 76, "velocity": 86, "duration": 306}, {"note": 0, "velocity": 0, "duration": 174}, {"note": 76, "velocity": 84, "duration": 192}, {"note": 74, "velocity": 88, "duration": 177}, {"note": 0, "velocity": 0, "duration": 63}, {"note": 74, "velocity": 93, "duration": 300}, {"note": 0, "velocity": 0, "duration": 180}, {"note": 74, "velocity": 93, "duration": 186}, {"note": 72, "velocity": 84, "duration": 183}, {"note": 71, "velocity": 84, "duration": 175}, {"note": 0, "velocity": 0, "duration": 65}, {"note": 69, "velocity": 86, "duration": 201}, {"note": 71, "velocity": 86, "duration": 186}, {"note": 72, "velocity": 86, "duration": 200}, {"note": 71, "velocity": 85, "duration": 840}, {"note": 0, "velocity": 0, "duration": 360}, {"note": 71, "velocity": 91, "duration": 192}, {"note": 73, "velocity": 86, "duration": 193}, {"note": 75, "velocity": 88, "duration": 199}, {"note": 71, "velocity": 93, "duration": 396}, {"note": 0, "velocity": 0, "duration": 84}, {"note": 73, "velocity": 89, "duration": 181}, {"note": 75, "velocity": 87, "duration": 153}, {"note": 0, "velocity": 0, "duration": 87}, {"note": 78, "velocity": 93, "duration": 188}, {"note": 81, "velocity": 83, "duration": 304}, {"note": 78, "velocity": 82, "duration": 202}, {"note": 79, "velocity": 83, "duration": 240}, {"note": 79, "velocity": 84, "duration": 734}, {"note": 0, "velocity": 0, "duration": 226}, {"note": 79, "velocity": 83, "duration": 177}, {"note": 0, "velocity": 0, "duration": 63}, {"note": 79, "velocity": 84, "duration": 172}, {"note": 0, "velocity": 0, "duration": 68}, {"note": 74, "velocity": 89, "duration": 177}, {"note": 0, "velocity": 0, "duration": 63}, {"note": 74, "velocity": 93, "duration": 175}, {"note": 0, "velocity": 0, "duration": 65}, {"note": 76, "velocity": 89, "duration": 194}, {"note": 74, "velocity": 87, "duration": 183}, {"note": 72, "velocity": 88, "duration": 200}, {"note": 69, "velocity": 84, "duration": 191}, {"note": 71, "velocity": 83, "duration": 188}, {"note": 72, "velocity": 83, "duration": 215}, {"note": 74, "velocity": 84, "duration": 211}, {"note": 76, "velocity": 83, "duration": 226}, {"note": 67, "velocity": 85, "duration": 230}, {"note": 76, "velocity": 89, "duration": 523}, {"note": 78, "velocity": 84, "duration": 405}, {"note": 0, "velocity": 0, "duration": 75}, {"note": 71, "velocity": 85, "duration": 252}, {"note": 69, "velocity": 85, "duration": 248}, {"note": 72, "velocity": 82, "duration": 264}, {"note": 71, "velocity": 83, "duration": 305}, {"note": 0, "velocity": 0, "duration": 175}, {"note": 67, "velocity": 84, "duration": 228}, {"note": 74, "velocity": 89, "duration": 181}, {"note": 78, "velocity": 85, "duration": 190}, {"note": 79, "velocity": 86, "duration": 192}, {"note": 78, "velocity": 88, "duration": 177}, {"note": 0, "velocity": 0, "duration": 63}, {"note": 74, "velocity": 85, "duration": 179}, {"note": 0, "velocity": 0, "duration": 61}, {"note": 67, "velocity": 96, "duration": 352}, {"note": 0, "velocity": 0, "duration": 128}, {"note": 67, "velocity": 88, "duration": 206}, {"note": 76, "velocity": 83, "duration": 177}, {"note": 0, "velocity": 0, "duration": 63}, {"note": 76, "velocity": 86, "duration": 306}, {"note": 0, "velocity": 0, "duration": 174}, {"note": 76, "velocity": 84, "duration": 192}, {"note": 74, "velocity": 88, "duration": 177}, {"note": 0, "velocity": 0, "duration": 63}, {"note": 74, "velocity": 93, "duration": 300}, {"note": 0, "velocity": 0, "duration": 180}, {"note": 74, "velocity": 93, "duration": 186}, {"note": 72, "velocity": 84, "duration": 183}, {"note": 71, "velocity": 84, "duration": 175}, {"note": 0, "velocity": 0, "duration": 65}, {"note": 69, "velocity": 86, "duration": 201}, {"note": 71, "velocity": 86, "duration": 186}, {"note": 72, "velocity": 86, "duration": 200}, {"note": 71, "velocity": 85, "duration": 840}, {"note": 0, "velocity": 0, "duration": 360}, {"note": 71, "velocity": 91, "duration": 192}, {"note": 73, "velocity": 86, "duration": 193}, {"note": 75, "velocity": 88, "duration": 199}, {"note": 71, "velocity": 93, "duration": 396}, {"note": 0, "velocity": 0, "duration": 84}, {"note": 73, "velocity": 89, "duration": 181}, {"note": 75, "velocity": 87, "duration": 153}, {"note": 0, "velocity": 0, "duration": 87}, {"note": 78, "velocity": 93, "duration": 188}, {"note": 81, "velocity": 83, "duration": 304}, {"note": 78, "velocity": 82, "duration": 202}, {"note": 79, "velocity": 83, "duration": 240}, {"note": 79, "velocity": 84, "duration": 734}, {"note": 0, "velocity": 0, "duration": 226}, {"note": 79, "velocity": 83, "duration": 177}, {"note": 0, "velocity": 0, "duration": 63}, {"note": 79, "velocity": 84, "duration": 172}, {"note": 0, "velocity": 0, "duration": 68}, {"note": 74, "velocity": 89, "duration": 177}, {"note": 0, "velocity": 0, "duration": 63}, {"note": 74, "velocity": 93, "duration": 175}, {"note": 0, "velocity": 0, "duration": 65}, {"note": 76, "velocity": 89, "duration": 194}, {"note": 74, "velocity": 87, "duration": 183}, {"note": 72, "velocity": 88, "duration": 200}, {"note": 64, "velocity": 84, "duration": 191}, {"note": 66, "velocity": 83, "duration": 188}, {"note": 67, "velocity": 83, "duration": 215}, {"note": 69, "velocity": 84, "duration": 211}, {"note": 71, "velocity": 83, "duration": 226}, {"note": 69, "velocity": 85, "duration": 360}, {"note": 0, "velocity": 0, "duration": 240}, {"note": 62, "velocity": 80, "duration": 160}, {"note": 71, "velocity": 85, "duration": 224}, {"note": 67, "velocity": 82, "duration": 1243}]]