[[{"note": 68, "velocity": 96, "duration": 251}, {"note": 75, "velocity": 95, "duration": 190}, {"note": 75, "velocity": 94, "duration": 199}, {"note": 73, "velocity": 101, "duration": 179}, {"note": 0, "velocity": 0, "duration": 61}, {"note": 75, "velocity": 97, "duration": 827}, {"note": 0, "velocity": 0, "duration": 133}, {"note": 70, "velocity": 91, "duration": 184}, {"note": 70, "velocity": 94, "duration": 120}, {"note": 70, "velocity": 94, "duration": 120}, {"note": 68, "velocity": 93, "duration": 237}, {"note": 66, "velocity": 91, "duration": 261}, {"note": 68, "velocity": 94, "duration": 778}, {"note": 0, "velocity": 0, "duration": 182}, {"note": 68, "velocity": 96, "duration": 232}, {"note": 73, "velocity": 95, "duration": 166}, {"note": 0, "velocity": 0, "duration": 74}, {"note": 73, "velocity": 104, "duration": 203}, {"note": 71, "velocity": 95, "duration": 207}, {"note": 73, "velocity": 97, "duration": 200}, {"note": 71, "velocity": 95, "duration": 206}, {"note": 68, "velocity": 94, "duration": 396}, {"note": 0, "velocity": 0, "duration": 84}, {"note": 71, "velocity": 93, "duration": 210}, {"note": 68, "velocity": 94, "duration": 210}, {"note": 71, "velocity": 96, "duration": 189}, {"note": 73, "velocity": 95, "duration": 174}, {"note": 0, "velocity": 0, "duration": 66}, {"note": 75, "velocity": 92, "duration": 859}, {"note": 0, "velocity": 0, "duration": 101}, {"note": 75, "velocity": 97, "duration": 207}, {"note": 80, "velocity": 97, "duration": 408}, {"note": 0, "velocity": 0, "duration": 72}, {"note": 75, "velocity": 101, "duration": 178}, {"note": 0, "velocity": 0, "duration": 62}, {"note": 73, "velocity": 97, "duration": 846}, {"note": 0, "velocity": 0, "duration": 114}, {"note": 75, "velocity": 95, "duration": 194}, {"note": 78, "velocity": 97, "duration": 185}, {"note": 73, "velocity": 97, "duration": 184}, {"note": 75, "velocity": 92, "duration": 191}, {"note": 71, "velocity": 92, "duration": 576}, {"note": 0, "velocity": 0, "duration": 384}, {"note": 73, "velocity": 97, "duration": 292}, {"note": 0, "velocity": 0, "duration": 68}, {"note": 73, "velocity": 94, "duration": 75}, {"note": 73, "velocity": 97, "duration": 202}, {"note": 68, "velocity": 92, "duration": 200}, {"note": 73, "velocity": 97, "duration": 240}, {"note": 75, "velocity": 94, "duration": 187}, {"note": 73, "velocity": 97, "duration": 368}, {"note": 0, "velocity": 0, "duration": 112}, {"note": 66, "velocity": 94, "duration": 216}, {"note": 63, "velocity": 101, "duration": 407}, {"note": 0, "velocity": 0, "duration": 73}, {"note": 66, "velocity": 92, "duration": 179}, {"note": 0, "velocity": 0, "duration": 61}, {"note": 68, "velocity": 90, "duration": 870}, {"note": 0, "velocity": 0, "duration": 90}, {"note": 68, "velocity": 96, "duration": 251}, {"note": 75, "velocity": 95, "duration": 190}, {"note": 75, "velocity": 94, "duration": 199}, {"note": 73, "velocity": 101, "duration": 179}, {"note": 0, "velocity": 0, "duration": 61}, {"note": 75, "velocity": 97, "duration": 827}, {"note": 0, "velocity": 0, "duration": 133}, {"note": 70, "velocity": 91, "duration": 184}, {"note": 70, "velocity": 94, "duration": 120}, {"note": 70, "velocity": 94, "duration": 120}, {"note": 68, "velocity": 93, "duration": 237}, {"note": 66, "velocity": 91, "duration": 261}, {"note": 68, "velocity": 94, "duration": 778}, {"note": 0, "velocity": 0, "duration": 182}, {"note": 68, "velocity": 96, "duration": 232}, {"note": 73, "velocity": 95, "duration": 166}, {"note": 0, "velocity": 0, "duration": 74}, {"note": 73, "velocity": 104, "duration": 203}, {"note": 71, "velocity": 95, "duration": 207}, {"note": 73, "velocity": 97, "duration": 200}, {"note": 71, "velocity": 95, "duration": 206}, {"note": 68, "velocity": 94, "duration": 396}, {"note": 0, "velocity": 0, "duration": 84}, {"note": 71, "velocity": 93, "duration": 210}, {"note": 68, "velocity": 94, "duration": 210}, {"note": 71, "velocity": 96, "duration": 189}, {"note": 73, "velocity": 95, "duration": 174}, {"note": 0, "velocity": 0, "duration": 66}, {"note": 75, "velocity": 92, "duration": 859}, {"note": 0, "velocity": 0, "duration": 101}, {"note": 75, "velocity": 97, "duration": 207}, {"note": 80, "velocity": 97, "duration": 408}, {"note": 0, "velocity": 0, "duration": 72}, {"note": 75, "velocity": 101, "duration": 178}, {"note": 0, "velocity": 0, "duration": 62}, {"note": 73, "velocity": 97, "duration": 846}, {"note": 0, "velocity": 0, "duration": 114}, {"note": 75, "velocity": 95, "duration": 194}, {"note": 78, "velocity": 97, "duration": 185}, {"note": 73, "velocity": 97, "duration": 184}, {"note": 75, "velocity": 92, "duration": 191}, {"note": 71, "velocity": 92, "duration": 576}, {"note": 0, "velocity": 0, "duration": 384}, {"note": 73, "velocity": 97, "duration": 292}, {"note": 0, "velocity": 0, "duration": 68}, {"note": 73, "velocity": 94, "duration": 75}, {"note": 73, "velocity": 97, "duration": 202}, {"note": 68, "velocity": 92, "duration": 200}, {"note": 73, "velocity": 97, "duration": 240}, {"note": 75, "velocity": 94, "duration": 187}, {"note": 73, "velocity": 97, "duration": 368}, {"note": 0, "velocity": 0, "duration": 112}, {"note": 78, "velocity": 92, "duration": 181}, {"note": 78, "velocity": 92, "duration": 171}, {"note": 0, "velocity": 0, "duration": 69}, {"note": 78, "velocity": 92, "duration": 221}, {"note": 75, "velocity": 94, "duration": 241}, {"note": 80, "velocity": 91, "duration": 819}, {"note": 0, "velocity": 0, "duration": 141}, {"note": 75, "velocity": 91, "duration": 244}, {"note": 80, "velocity": 93, "duration": 145}, {"note": 0, "velocity": 0, "duration": 95}, {"note": 80, "velocity": 91, "duration": 187}, {"note": 78, "velocity": 94, "duration": 172}, {"note": 0, "velocity": 0, "duration": 68}, {"note": 80, "velocity": 90, "duration": 980}, {"note": 75, "velocity": 97, "duration": 203}, {"note": 82, "velocity": 96, "duration": 262}, {"note": 80, "velocity": 97, "duration": 205}, {"note": 78, "velocity": 91, "duration": 120}, {"note": 80, "velocity": 86, "duration": 106}, {"note": 78, "velocity": 88, "duration": 126}, {"note": 80, "velocity": 86, "duration": 141}, {"note": 78, "velocity": 85, "duration": 129}, {"note": 75, "velocity": 91, "duration": 600}, {"note": 68, "velocity": 92, "duration": 227}, {"note": 73, "velocity": 95, "duration": 189}, {"note": 73, "velocity": 94, "duration": 166}, {"note": 0, "velocity": 0, "duration": 74}, {"note": 71, "velocity": 91, "duration": 161}, {"note": 0, "velocity": 0, "duration": 79}, {"note": 73, "velocity": 101, "duration": 234}, {"note": 68, "velocity": 90, "duration": 179}, {"note": 0, "velocity": 0, "duration": 61}, {"note": 68, "velocity": 88, "duration": 391}, {"note": 0, "velocity": 0, "duration": 89}, {"note": 78, "velocity": 92, "duration": 194}, {"note": 80, "velocity": 92, "duration": 184}, {"note": 78, "velocity": 93, "duration": 224}, {"note": 73, "velocity": 101, "duration": 187}, {"note": 75, "velocity": 94, "duration": 825}, {"note": 0, "velocity": 0, "duration": 135}, {"note": 75, "velocity": 96, "duration": 213}, {"note": 80, "velocity": 94, "duration": 186}, {"note": 78, "velocity": 92, "duration": 221}, {"note": 75, "velocity": 92, "duration": 191}, {"note": 73, "velocity": 96, "duration": 748}, {"note": 0, "velocity": 0, "duration": 212}, {"note": 78, "velocity": 91, "duration": 184}, {"note": 75, "velocity": 91, "duration": 181}, {"note": 75, "velocity": 91, "duration": 206}, {"note": 73, "velocity": 96, "duration": 93}, {"note": 75, "velocity": 99, "duration": 291}, {"note": 0, "velocity": 0, "duration": 69}, {"note": 71, "velocity": 92, "duration": 581}, {"note": 0, "velocity": 0, "duration": 139}, {"note": 73, "velocity": 97, "duration": 280}, {"note": 0, "velocity": 0, "duration": 80}, {"note": 73, "velocity": 96, "duration": 64}, {"note": 73, "velocity": 96, "duration": 174}, {"note": 0, "velocity": 0, "duration": 66}, {"note": 75, "velocity": 96, "duration": 213}, {"note": 78, "velocity": 94, "duration": 183}, {"note": 75, "velocity": 94, "duration": 152}, {"note": 0, "velocity": 0, "duration": 88}, {"note": 75, "velocity": 95, "duration": 360}, {"note": 0, "velocity": 0, "duration": 120}, {"note": 73, "velocity": 91, "duration": 399}, {"note": 0, "velocity": 0, "duration": 81}, {"note": 75, "velocity": 94, "duration": 454}, {"note": 68, "velocity": 94, "duration": 888}, {"note": 0, "velocity": 0, "duration": 15432}, {"note": 68, "velocity": 96, "duration": 251}, {"note": 75, "velocity": 95, "duration": 190}, {"note": 75, "velocity": 94, "duration": 199}, {"note": 73, "velocity": 101, "duration": 179}, {"note": 0, "velocity": 0, "duration": 61}, {"note": 75, "velocity": 97, "duration": 827}, {"note": 0, "velocity": 0, "duration": 133}, {"note": 70, "velocity": 91, "duration": 184}, {"note": 70, "velocity": 94, "duration": 120}, {"note": 70, "velocity": 94, "duration": 120}, {"note": 68, "velocity": 93, "duration": 237}, {"note": 66, "velocity": 91, "duration": 261}, {"note": 68, "velocity": 94, "duration": 778}, {"note": 0, "velocity": 0, "duration": 182}, {"note": 68, "velocity": 96, "duration": 232}, {"note": 73, "velocity": 95, "duration": 166}, {"note": 0, "velocity": 0, "duration": 74}, {"note": 73, "velocity": 104, "duration": 203}, {"note": 71, "velocity": 95, "duration": 207}, {"note": 73, "velocity": 97, "duration": 200}, {"note": 71, "velocity": 95, "duration": 206}, {"note": 68, "velocity": 94, "duration": 396}, {"note": 0, "velocity": 0, "duration": 84}, {"note": 71, "velocity": 93, "duration": 210}, {"note": 68, "velocity": 94, "duration": 210}, {"note": 71, "velocity": 96, "duration": 189}, {"note": 73, "velocity": 95, "duration": 174}, {"note": 0, "velocity": 0, "duration": 66}, {"note": 75, "velocity": 92, "duration": 859}, {"note": 0, "velocity": 0, "duration": 101}, {"note": 75, "velocity": 97, "duration": 207}, {"note": 80, "velocity": 97, "duration": 408}, {"note": 0, "velocity": 0, "duration": 72}, {"note": 75, "velocity": 101, "duration": 178}, {"note": 0, "velocity": 0, "duration": 62}, {"note": 73, "velocity": 97, "duration": 846}, {"note": 0, "velocity": 0, "duration": 114}, {"note": 75, "velocity": 95, "duration": 194}, {"note": 78, "velocity": 97, "duration": 185}, {"note": 73, "velocity": 97, "duration": 184}, {"note": 75, "velocity": 92, "duration": 191}, {"note": 71, "velocity": 92, "duration": 576}, {"note": 0, "velocity": 0, "duration": 384}, {"note": 73, "velocity": 97, "duration": 292}, {"note": 0, "velocity": 0, "duration": 68}, {"note": 73, "velocity": 94, "duration": 75}, {"note": 73, "velocity": 97, "duration": 202}, {"note": 68, "velocity": 92, "duration": 200}, {"note": 73, "velocity": 97, "duration": 240}, {"note": 75, "velocity": 94, "duration": 187}, {"note": 73, "velocity": 97, "duration": 368}, {"note": 0, "velocity": 0, "duration": 112}, {"note": 66, "velocity": 94, "duration": 216}, {"note": 63, "velocity": 101, "duration": 407}, {"note": 0, "velocity": 0, "duration": 73}, {"note": 66, "velocity": 92, "duration": 179}, {"note": 0, "velocity": 0, "duration": 61}, {"note": 68, "velocity": 90, "duration": 870}, {"note": 0, "velocity": 0, "duration": 90}, {"note": 68, "velocity": 96, "duration": 251}, {"note": 75, "velocity": 95, "duration": 190}, {"note": 75, "velocity": 94, "duration": 199}, {"note": 73, "velocity": 101, "duration": 179}, {"note": 0, "velocity": 0, "duration": 61}, {"note": 75, "velocity": 97, "duration": 827}, {"note": 0, "velocity": 0, "duration": 133}, {"note": 70, "velocity": 91, "duration": 184}, {"note": 70, "velocity": 94, "duration": 120}, {"note": 70, "velocity": 94, "duration": 120}, {"note": 68, "velocity": 93, "duration": 237}, {"note": 66, "velocity": 91, "duration": 261}, {"note": 68, "velocity": 94, "duration": 778}, {"note": 0, "velocity": 0, "duration": 182}, {"note": 68, "velocity": 96, "duration": 232}, {"note": 73, "velocity": 95, "duration": 166}, {"note": 0, "velocity": 0, "duration": 74}, {"note": 73, "velocity": 104, "duration": 203}, {"note": 71, "velocity": 95, "duration": 207}, {"note": 73, "velocity": 97, "duration": 200}, {"note": 71, "velocity": 95, "duration": 206}, {"note": 68, "velocity": 94, "duration": 396}, {"note": 0, "velocity": 0, "duration": 84}, {"note": 71, "velocity": 93, "duration": 210}, {"note": 68, "velocity": 94, "duration": 210}, {"note": 71, "velocity": 96, "duration": 189}, {"note": 73, "velocity": 95, "duration": 174}, {"note": 0, "velocity": 0, "duration": 66}, {"note": 75, "velocity": 92, "duration": 859}, {"note": 0, "velocity": 0, "duration": 101}, {"note": 75, "velocity": 97, "duration": 207}, {"note": 80, "velocity": 97, "duration": 408}, {"note": 0, "velocity": 0, "duration": 72}, {"note": 75, "velocity": 101, "duration": 178}, {"note": 0, "velocity": 0, "duration": 62}, {"note": 73, "velocity": 97, "duration": 846}, {"note": 0, "velocity": 0, "duration": 114}, {"note": 75, "velocity": 95, "duration": 194}, {"note": 78, "velocity": 97, "duration": 185}, {"note": 73, "velocity": 97, "duration": 184}, {"note": 75, "velocity": 92, "duration": 191}, {"note": 71, "velocity": 92, "duration": 576}, {"note": 0, "velocity": 0, "duration": 384}, {"note": 73, "velocity": 97, "duration": 292}, {"note": 0, "velocity": 0, "duration": 68}, {"note": 73, "velocity": 94, "duration": 75}, {"note": 73, "velocity": 97, "duration": 202}, {"note": 68, "velocity": 92, "duration": 200}, {"note": 73, "velocity": 97, "duration": 240}, {"note": 75, "velocity": 94, "duration": 187}, {"note": 73, "velocity": 97, "duration": 368}, {"note": 0, "velocity": 0, "duration": 112}, {"note": 78, "velocity": 92, "duration": 181}, {"note": 78, "velocity": 92, "duration": 171}, {"note": 0, "velocity": 0, "duration": 69}, {"note": 78, "velocity": 92, "duration": 221}, {"note": 75, "velocity": 94, "duration": 241}, {"note": 80, "velocity": 91, "duration": 819}, {"note": 0, "velocity": 0, "duration": 141}, {"note": 75, "velocity": 91, "duration": 244}, {"note": 80, "velocity": 93, "duration": 145}, {"note": 0, "velocity": 0, "duration": 95}, {"note": 80, "velocity": 91, "duration": 187}, {"note": 78, "velocity": 94, "duration": 172}, {"note": 0, "velocity": 0, "duration": 68}, {"note": 80, "velocity": 90, "duration": 980}, {"note": 75, "velocity": 97, "duration": 203}, {"note": 82, "velocity": 96, "duration": 262}, {"note": 80, "velocity": 97, "duration": 205}, {"note": 78, "velocity": 91, "duration": 120}, {"note": 80, "velocity": 86, "duration": 106}, {"note": 78, "velocity": 88, "duration": 126}, {"note": 80, "velocity": 86, "duration": 141}, {"note": 78, "velocity": 85, "duration": 129}, {"note": 75, "velocity": 91, "duration": 600}, {"note": 68, "velocity": 92, "duration": 227}, {"note": 73, "velocity": 95, "duration": 189}, {"note": 73, "velocity": 94, "duration": 166}, {"note": 0, "velocity": 0, "duration": 74}, {"note": 71, "velocity": 91, "duration": 161}, {"note": 0, "velocity": 0, "duration": 79}, {"note": 73, "velocity": 101, "duration": 234}, {"note": 68, "velocity": 90, "duration": 179}, {"note": 0, "velocity": 0, "duration": 61}, {"note": 68, "velocity": 88, "duration": 391}, {"note": 0, "velocity": 0, "duration": 89}, {"note": 78, "velocity": 92, "duration": 194}, {"note": 80, "velocity": 92, "duration": 184}, {"note": 78, "velocity": 93, "duration": 224}, {"note": 73, "velocity": 101, "duration": 187}, {"note": 75, "velocity": 94, "duration": 825}, {"note": 0, "velocity": 0, "duration": 135}, {"note": 75, "velocity": 96, "duration": 213}, {"note": 80, "velocity": 94, "duration": 186}, {"note": 78, "velocity": 92, "duration": 221}, {"note": 75, "velocity": 92, "duration": 191}, {"note": 73, "velocity": 96, "duration": 748}, {"note": 0, "velocity": 0, "duration": 212}, {"note": 78, "velocity": 91, "duration": 184}, {"note": 75, "velocity": 91, "duration": 181}, {"note": 75, "velocity": 91, "duration": 206}, {"note": 73, "velocity": 96, "duration": 93}, {"note": 75, "velocity": 99, "duration": 291}, {"note": 0, "velocity": 0, "duration": 69}, {"note": 71, "velocity": 92, "duration": 581}, {"note": 0, "velocity": 0, "duration": 139}, {"note": 73, "velocity": 97, "duration": 280}, {"note": 0, "velocity": 0, "duration": 80}, {"note": 73, "velocity": 96, "duration": 64}, {"note": 73, "velocity": 96, "duration": 174}, {"note": 0, "velocity": 0, "duration": 66}, {"note": 75, "velocity": 96, "duration": 213}, {"note": 78, "velocity": 94, "duration": 183}, {"note": 75, "velocity": 94, "duration": 152}, {"note": 0, "velocity": 0, "duration": 88}, {"note": 75, "velocity": 95, "duration": 360}, {"note": 0, "velocity": 0, "duration": 120}, {"note": 73, "velocity": 91, "duration": 399}, {"note": 0, "velocity": 0, "duration": 81}, {"note": 75, "velocity": 94, "duration": 454}, {"note": 68, "velocity": 94, "duration": 888}, {"note": 0, "velocity": 0, "duration": 72}, {"note": 75, "velocity": 91, "duration": 244}, {"note": 80, "velocity": 93, "duration": 145}, {"note": 0, "velocity": 0, "duration": 95}, {"note": 80, "velocity": 91, "duration": 187}, {"note": 78, "velocity": 94, "duration": 172}, {"note": 0, "velocity": 0, "duration": 68}, {"note": 80, "velocity": 90, "duration": 980}, {"note": 75, "velocity": 97, "duration": 203}, {"note": 82, "velocity": 96, "duration": 262}, {"note": 80, "velocity": 97, "duration": 205}, {"note": 78, "velocity": 91, "duration": 120}, {"note": 80, "velocity": 86, "duration": 106}, {"note": 78, "velocity": 88, "duration": 126}, {"note": 80, "velocity": 86, "duration": 141}, {"note": 78, "velocity": 85, "duration": 129}, {"note": 75, "velocity": 91, "duration": 600}, {"note": 68, "velocity": 92, "duration": 227}, {"note": 73, "velocity": 95, "duration": 189}, {"note": 73, "velocity": 94, "duration": 166}, {"note": 0, "velocity": 0, "duration": 74}, {"note": 71, "velocity": 91, "duration": 161}, {"note": 0, "velocity": 0, "duration": 79}, {"note": 73, "velocity": 101, "duration": 234}, {"note": 68, "velocity": 90, "duration": 179}, {"note": 0, "velocity": 0, "duration": 61}, {"note": 68, "velocity": 88, "duration": 391}, {"note": 0, "velocity": 0, "duration": 89}, {"note": 78, "velocity": 92, "duration": 194}, {"note": 80, "velocity": 92, "duration": 184}, {"note": 78, "velocity": 93, "duration": 224}, {"note": 73, "velocity": 101, "duration": 187}, {"note": 75, "velocity": 94, "duration": 825}, {"note": 0, "velocity": 0, "duration": 135}, {"note": 75, "velocity": 96, "duration": 213}, {"note": 80, "velocity": 94, "duration": 186}, {"note": 78, "velocity": 92, "duration": 221}, {"note": 75, "velocity": 92, "duration": 191}, {"note": 73, "velocity": 96, "duration": 748}, {"note": 0, "velocity": 0, "duration": 212}, {"note": 78, "velocity": 91, "duration": 184}, {"note": 75, "velocity": 91, "duration": 181}, {"note": 75, "velocity": 91, "duration": 206}, {"note": 73, "velocity": 96, "duration": 93}, {"note": 75, "velocity": 99, "duration": 291}, {"note": 0, "velocity": 0, "duration": 69}, {"note": 71, "velocity": 92, "duration": 581}, {"note": 0, "velocity": 0, "duration": 139}, {"note": 73, "velocity": 97, "duration": 280}, {"note": 0, "velocity": 0, "duration": 80}, {"note": 73, "velocity": 96, "duration": 64}, {"note": 73, "velocity": 96, "duration": 174}, {"note": 0, "velocity": 0, "duration": 66}, {"note": 75, "velocity": 96, "duration": 213}, {"note": 78, "velocity": 94, "duration": 183}, {"note": 75, "velocity": 94, "duration": 152}, {"note": 0, "velocity": 0, "duration": 88}, {"note": 75, "velocity": 95, "duration": 360}, {"note": 0, "velocity": 0, "duration": 120}, {"note": 73, "velocity": 91, "duration": 399}, {"note": 0, "velocity": 0, "duration": 81}, {"note": 75, "velocity": 94, "duration": 454}, {"note": 68, "velocity": 94, "duration": 888}, {"note": 0, "velocity": 0, "duration": 72}, {"note": 73, "velocity": 97, "duration": 280}, {"note": 0, "velocity": 0, "duration": 80}, {"note": 73, "velocity": 96, "duration": 64}, {"note": 73, "velocity": 96, "duration": 174}, {"note": 0, "velocity": 0, "duration": 66}, {"note": 75, "velocity": 96, "duration": 213}, {"note": 78, "velocity": 94, "duration": 183}, {"note": 75, "velocity": 94, "duration": 152}, {"note": 0, "velocity": 0, "duration": 88}, {"note": 75, "velocity": 95, "duration": 360}, {"note": 0, "velocity": 0, "duration": 120}, {"note": 73, "velocity": 91, "duration": 399}, {"note": 0, "velocity": 0, "duration": 152}, {"note": 75, "velocity": 92, "duration": 1389}, {"note": 68, "velocity": 91, "duration": 1838}]]