[[{"note": 66, "velocity": 94, "duration": 165}, {"note": 0, "velocity": 0, "duration": 75}, {"note": 71, "velocity": 96, "duration": 152}, {"note": 0, "velocity": 0, "duration": 88}, {"note": 73, "velocity": 94, "duration": 132}, {"note": 0, "velocity": 0, "duration": 108}, {"note": 73, "velocity": 97, "duration": 160}, {"note": 0, "velocity": 0, "duration": 80}, {"note": 75, "velocity": 92, "duration": 150}, {"note": 0, "velocity": 0, "duration": 90}, {"note": 75, "velocity": 91, "duration": 384}, {"note": 0, "velocity": 0, "duration": 96}, {"note": 73, "velocity": 95, "duration": 170}, {"note": 0, "velocity": 0, "duration": 70}, {"note": 75, "velocity": 91, "duration": 117}, {"note": 0, "velocity": 0, "duration": 123}, {"note": 75, "velocity": 97, "duration": 343}, {"note": 0, "velocity": 0, "duration": 137}, {"note": 73, "velocity": 96, "duration": 156}, {"note": 0, "velocity": 0, "duration": 84}, {"note": 75, "velocity": 97, "duration": 161}, {"note": 0, "velocity": 0, "duration": 79}, {"note": 78, "velocity": 94, "duration": 159}, {"note": 0, "velocity": 0, "duration": 81}, {"note": 75, "velocity": 96, "duration": 144}, {"note": 0, "velocity": 0, "duration": 96}, {"note": 71, "velocity": 94, "duration": 348}, {"note": 0, "velocity": 0, "duration": 132}, {"note": 71, "velocity": 94, "duration": 208}, {"note": 66, "velocity": 90, "duration": 178}, {"note": 0, "velocity": 0, "duration": 62}, {"note": 68, "velocity": 93, "duration": 565}, {"note": 0, "velocity": 0, "duration": 155}, {"note": 75, "velocity": 92, "duration": 192}, {"note": 73, "velocity": 97, "duration": 428}, {"note": 71, "velocity": 92, "duration": 200}, {"note": 73, "velocity": 92, "duration": 149}, {"note": 0, "velocity": 0, "duration": 91}, {"note": 75, "velocity": 94, "duration": 1066}, {"note": 0, "velocity": 0, "duration": 134}, {"note": 66, "velocity": 90, "duration": 164}, {"note": 0, "velocity": 0, "duration": 76}, {"note": 71, "velocity": 94, "duration": 144}, {"note": 0, "velocity": 0, "duration": 96}, {"note": 73, "velocity": 92, "duration": 131}, {"note": 0, "velocity": 0, "duration": 109}, {"note": 73, "velocity": 95, "duration": 170}, {"note": 0, "velocity": 0, "duration": 70}, {"note": 75, "velocity": 91, "duration": 140}, {"note": 0, "velocity": 0, "duration": 100}, {"note": 75, "velocity": 93, "duration": 389}, {"note": 0, "velocity": 0, "duration": 91}, {"note": 73, "velocity": 94, "duration": 165}, {"note": 0, "velocity": 0, "duration": 75}, {"note": 75, "velocity": 94, "duration": 130}, {"note": 0, "velocity": 0, "duration": 110}, {"note": 75, "velocity": 101, "duration": 333}, {"note": 0, "velocity": 0, "duration": 147}, {"note": 73, "velocity": 96, "duration": 139}, {"note": 0, "velocity": 0, "duration": 101}, {"note": 75, "velocity": 96, "duration": 153}, {"note": 0, "velocity": 0, "duration": 87}, {"note": 78, "velocity": 94, "duration": 139}, {"note": 0, "velocity": 0, "duration": 101}, {"note": 75, "velocity": 97, "duration": 125}, {"note": 0, "velocity": 0, "duration": 115}, {"note": 71, "velocity": 94, "duration": 369}, {"note": 0, "velocity": 0, "duration": 111}, {"note": 71, "velocity": 91, "duration": 145}, {"note": 0, "velocity": 0, "duration": 95}, {"note": 70, "velocity": 89, "duration": 154}, {"note": 0, "velocity": 0, "duration": 86}, {"note": 68, "velocity": 94, "duration": 354}, {"note": 0, "velocity": 0, "duration": 366}, {"note": 75, "velocity": 92, "duration": 192}, {"note": 73, "velocity": 94, "duration": 388}, {"note": 0, "velocity": 0, "duration": 92}, {"note": 71, "velocity": 90, "duration": 165}, {"note": 0, "velocity": 0, "duration": 75}, {"note": 73, "velocity": 93, "duration": 173}, {"note": 0, "velocity": 0, "duration": 67}, {"note": 71, "velocity": 92, "duration": 1227}, {"note": 0, "velocity": 0, "duration": 213}, {"note": 71, "velocity": 91, "duration": 179}, {"note": 0, "velocity": 0, "duration": 61}, {"note": 70, "velocity": 92, "duration": 201}, {"note": 68, "velocity": 91, "duration": 403}, {"note": 0, "velocity": 0, "duration": 77}, {"note": 71, "velocity": 95, "duration": 396}, {"note": 0, "velocity": 0, "duration": 84}, {"note": 73, "velocity": 97, "duration": 348}, {"note": 0, "velocity": 0, "duration": 132}, {"note": 71, "velocity": 94, "duration": 165}, {"note": 0, "velocity": 0, "duration": 75}, {"note": 73, "velocity": 97, "duration": 159}, {"note": 0, "velocity": 0, "duration": 81}, {"note": 75, "velocity": 92, "duration": 194}, {"note": 78, "velocity": 90, "duration": 154}, {"note": 0, "velocity": 0, "duration": 86}, {"note": 73, "velocity": 96, "duration": 157}, {"note": 0, "velocity": 0, "duration": 83}, {"note": 75, "velocity": 91, "duration": 152}, {"note": 0, "velocity": 0, "duration": 88}, {"note": 71, "velocity": 91, "duration": 283}, {"note": 0, "velocity": 0, "duration": 197}, {"note": 71, "velocity": 69, "duration": 191}, {"note": 70, "velocity": 91, "duration": 191}, {"note": 68, "velocity": 90, "duration": 416}, {"note": 0, "velocity": 0, "duration": 64}, {"note": 71, "velocity": 91, "duration": 421}, {"note": 73, "velocity": 94, "duration": 146}, {"note": 0, "velocity": 0, "duration": 94}, {"note": 75, "velocity": 92, "duration": 96}, {"note": 73, "velocity": 92, "duration": 81}, {"note": 71, "velocity": 92, "duration": 169}, {"note": 0, "velocity": 0, "duration": 71}, {"note": 73, "velocity": 94, "duration": 140}, {"note": 0, "velocity": 0, "duration": 100}, {"note": 75, "velocity": 92, "duration": 1136}, {"note": 0, "velocity": 0, "duration": 304}, {"note": 71, "velocity": 72, "duration": 170}, {"note": 0, "velocity": 0, "duration": 70}, {"note": 70, "velocity": 94, "duration": 167}, {"note": 0, "velocity": 0, "duration": 73}, {"note": 68, "velocity": 91, "duration": 413}, {"note": 0, "velocity": 0, "duration": 67}, {"note": 71, "velocity": 91, "duration": 407}, {"note": 0, "velocity": 0, "duration": 73}, {"note": 73, "velocity": 96, "duration": 145}, {"note": 0, "velocity": 0, "duration": 95}, {"note": 75, "velocity": 92, "duration": 101}, {"note": 73, "velocity": 94, "duration": 87}, {"note": 71, "velocity": 91, "duration": 142}, {"note": 0, "velocity": 0, "duration": 98}, {"note": 73, "velocity": 96, "duration": 126}, {"note": 0, "velocity": 0, "duration": 114}, {"note": 75, "velocity": 94, "duration": 243}, {"note": 78, "velocity": 91, "duration": 148}, {"note": 0, "velocity": 0, "duration": 92}, {"note": 78, "velocity": 90, "duration": 176}, {"note": 0, "velocity": 0, "duration": 64}, {"note": 75, "velocity": 92, "duration": 186}, {"note": 80, "velocity": 92, "duration": 273}, {"note": 0, "velocity": 0, "duration": 207}, {"note": 75, "velocity": 92, "duration": 174}, {"note": 0, "velocity": 0, "duration": 66}, {"note": 73, "velocity": 99, "duration": 204}, {"note": 71, "velocity": 87, "duration": 601}, {"note": 0, "velocity": 0, "duration": 119}, {"note": 75, "velocity": 94, "duration": 151}, {"note": 0, "velocity": 0, "duration": 89}, {"note": 73, "velocity": 97, "duration": 147}, {"note": 0, "velocity": 0, "duration": 93}, {"note": 75, "velocity": 91, "duration": 84}, {"note": 73, "velocity": 85, "duration": 122}, {"note": 71, "velocity": 93, "duration": 184}, {"note": 73, "velocity": 90, "duration": 155}, {"note": 0, "velocity": 0, "duration": 85}, {"note": 71, "velocity": 92, "duration": 1066}, {"note": 0, "velocity": 0, "duration": 134}, {"note": 71, "velocity": 91, "duration": 162}, {"note": 0, "velocity": 0, "duration": 78}, {"note": 75, "velocity": 92, "duration": 144}, {"note": 0, "velocity": 0, "duration": 96}, {"note": 76, "velocity": 91, "duration": 164}, {"note": 0, "velocity": 0, "duration": 76}, {"note": 78, "velocity": 92, "duration": 133}, {"note": 0, "velocity": 0, "duration": 107}, {"note": 71, "velocity": 94, "duration": 125}, {"note": 0, "velocity": 0, "duration": 115}, {"note": 75, "velocity": 97, "duration": 126}, {"note": 0, "velocity": 0, "duration": 114}, {"note": 76, "velocity": 91, "duration": 159}, {"note": 0, "velocity": 0, "duration": 81}, {"note": 78, "velocity": 92, "duration": 354}, {"note": 0, "velocity": 0, "duration": 126}, {"note": 80, "velocity": 94, "duration": 139}, {"note": 0, "velocity": 0, "duration": 101}, {"note": 82, "velocity": 92, "duration": 135}, {"note": 0, "velocity": 0, "duration": 105}, {"note": 83, "velocity": 94, "duration": 151}, {"note": 0, "velocity": 0, "duration": 89}, {"note": 75, "velocity": 94, "duration": 144}, {"note": 0, "velocity": 0, "duration": 96}, {"note": 75, "velocity": 96, "duration": 153}, {"note": 0, "velocity": 0, "duration": 87}, {"note": 76, "velocity": 91, "duration": 149}, {"note": 0, "velocity": 0, "duration": 91}, {"note": 78, "velocity": 91, "duration": 328}, {"note": 0, "velocity": 0, "duration": 632}, {"note": 80, "velocity": 91, "duration": 369}, {"note": 0, "velocity": 0, "duration": 111}, {"note": 78, "velocity": 90, "duration": 160}, {"note": 0, "velocity": 0, "duration": 80}, {"note": 76, "velocity": 90, "duration": 140}, {"note": 0, "velocity": 0, "duration": 100}, {"note": 78, "velocity": 91, "duration": 123}, {"note": 0, "velocity": 0, "duration": 117}, {"note": 83, "velocity": 87, "duration": 148}, {"note": 0, "velocity": 0, "duration": 92}, {"note": 83, "velocity": 97, "duration": 226}, {"note": 0, "velocity": 0, "duration": 254}, {"note": 80, "velocity": 92, "duration": 395}, {"note": 0, "velocity": 0, "duration": 85}, {"note": 80, "velocity": 94, "duration": 135}, {"note": 0, "velocity": 0, "duration": 105}, {"note": 82, "velocity": 92, "duration": 140}, {"note": 0, "velocity": 0, "duration": 100}, {"note": 83, "velocity": 92, "duration": 413}, {"note": 0, "velocity": 0, "duration": 67}, {"note": 82, "velocity": 96, "duration": 324}, {"note": 0, "velocity": 0, "duration": 156}, {"note": 78, "velocity": 90, "duration": 413}, {"note": 0, "velocity": 0, "duration": 67}, {"note": 75, "velocity": 94, "duration": 158}, {"note": 0, "velocity": 0, "duration": 82}, {"note": 76, "velocity": 93, "duration": 194}, {"note": 78, "velocity": 91, "duration": 386}, {"note": 0, "velocity": 0, "duration": 94}, {"note": 80, "velocity": 90, "duration": 178}, {"note": 0, "velocity": 0, "duration": 62}, {"note": 82, "velocity": 91, "duration": 144}, {"note": 0, "velocity": 0, "duration": 96}, {"note": 83, "velocity": 94, "duration": 307}, {"note": 0, "velocity": 0, "duration": 173}, {"note": 82, "velocity": 91, "duration": 149}, {"note": 0, "velocity": 0, "duration": 91}, {"note": 80, "velocity": 90, "duration": 135}, {"note": 0, "velocity": 0, "duration": 105}, {"note": 78, "velocity": 94, "duration": 751}, {"note": 0, "velocity": 0, "duration": 209}, {"note": 76, "velocity": 91, "duration": 156}, {"note": 0, "velocity": 0, "duration": 84}, {"note": 78, "velocity": 87, "duration": 159}, {"note": 0, "velocity": 0, "duration": 81}, {"note": 80, "velocity": 91, "duration": 156}, {"note": 0, "velocity": 0, "duration": 84}, {"note": 76, "velocity": 91, "duration": 179}, {"note": 0, "velocity": 0, "duration": 61}, {"note": 78, "velocity": 91, "duration": 240}, {"note": 83, "velocity": 95, "duration": 144}, {"note": 0, "velocity": 0, "duration": 96}, {"note": 83, "velocity": 94, "duration": 269}, {"note": 0, "velocity": 0, "duration": 211}, {"note": 83, "velocity": 95, "duration": 162}, {"note": 0, "velocity": 0, "duration": 78}, {"note": 82, "velocity": 96, "duration": 125}, {"note": 0, "velocity": 0, "duration": 115}, {"note": 78, "velocity": 93, "duration": 139}, {"note": 0, "velocity": 0, "duration": 101}, {"note": 71, "velocity": 94, "duration": 160}, {"note": 0, "velocity": 0, "duration": 80}, {"note": 75, "velocity": 92, "duration": 434}, {"note": 73, "velocity": 96, "duration": 195}, {"note": 0, "velocity": 0, "duration": 285}, {"note": 71, "velocity": 92, "duration": 1452}, {"note": 0, "velocity": 0, "duration": 13188}, {"note": 66, "velocity": 94, "duration": 165}, {"note": 0, "velocity": 0, "duration": 75}, {"note": 71, "velocity": 96, "duration": 152}, {"note": 0, "velocity": 0, "duration": 88}, {"note": 73, "velocity": 94, "duration": 132}, {"note": 0, "velocity": 0, "duration": 108}, {"note": 73, "velocity": 97, "duration": 160}, {"note": 0, "velocity": 0, "duration": 80}, {"note": 75, "velocity": 92, "duration": 150}, {"note": 0, "velocity": 0, "duration": 90}, {"note": 75, "velocity": 91, "duration": 384}, {"note": 0, "velocity": 0, "duration": 96}, {"note": 73, "velocity": 95, "duration": 170}, {"note": 0, "velocity": 0, "duration": 70}, {"note": 75, "velocity": 91, "duration": 117}, {"note": 0, "velocity": 0, "duration": 123}, {"note": 75, "velocity": 97, "duration": 343}, {"note": 0, "velocity": 0, "duration": 137}, {"note": 73, "velocity": 96, "duration": 156}, {"note": 0, "velocity": 0, "duration": 84}, {"note": 75, "velocity": 97, "duration": 161}, {"note": 0, "velocity": 0, "duration": 79}, {"note": 78, "velocity": 94, "duration": 159}, {"note": 0, "velocity": 0, "duration": 81}, {"note": 75, "velocity": 96, "duration": 144}, {"note": 0, "velocity": 0, "duration": 96}, {"note": 71, "velocity": 94, "duration": 348}, {"note": 0, "velocity": 0, "duration": 132}, {"note": 71, "velocity": 94, "duration": 208}, {"note": 66, "velocity": 90, "duration": 178}, {"note": 0, "velocity": 0, "duration": 62}, {"note": 68, "velocity": 93, "duration": 565}, {"note": 0, "velocity": 0, "duration": 155}, {"note": 75, "velocity": 92, "duration": 192}, {"note": 73, "velocity": 97, "duration": 428}, {"note": 71, "velocity": 92, "duration": 200}, {"note": 73, "velocity": 92, "duration": 149}, {"note": 0, "velocity": 0, "duration": 91}, {"note": 75, "velocity": 94, "duration": 1066}, {"note": 0, "velocity": 0, "duration": 134}, {"note": 66, "velocity": 90, "duration": 164}, {"note": 0, "velocity": 0, "duration": 76}, {"note": 71, "velocity": 94, "duration": 144}, {"note": 0, "velocity": 0, "duration": 96}, {"note": 73, "velocity": 92, "duration": 131}, {"note": 0, "velocity": 0, "duration": 109}, {"note": 73, "velocity": 95, "duration": 170}, {"note": 0, "velocity": 0, "duration": 70}, {"note": 75, "velocity": 91, "duration": 140}, {"note": 0, "velocity": 0, "duration": 100}, {"note": 75, "velocity": 93, "duration": 389}, {"note": 0, "velocity": 0, "duration": 91}, {"note": 73, "velocity": 94, "duration": 165}, {"note": 0, "velocity": 0, "duration": 75}, {"note": 75, "velocity": 94, "duration": 130}, {"note": 0, "velocity": 0, "duration": 110}, {"note": 75, "velocity": 101, "duration": 333}, {"note": 0, "velocity": 0, "duration": 147}, {"note": 73, "velocity": 96, "duration": 139}, {"note": 0, "velocity": 0, "duration": 101}, {"note": 75, "velocity": 96, "duration": 153}, {"note": 0, "velocity": 0, "duration": 87}, {"note": 78, "velocity": 94, "duration": 139}, {"note": 0, "velocity": 0, "duration": 101}, {"note": 75, "velocity": 97, "duration": 125}, {"note": 0, "velocity": 0, "duration": 115}, {"note": 71, "velocity": 94, "duration": 369}, {"note": 0, "velocity": 0, "duration": 111}, {"note": 71, "velocity": 91, "duration": 145}, {"note": 0, "velocity": 0, "duration": 95}, {"note": 70, "velocity": 89, "duration": 154}, {"note": 0, "velocity": 0, "duration": 86}, {"note": 68, "velocity": 94, "duration": 354}, {"note": 0, "velocity": 0, "duration": 366}, {"note": 75, "velocity": 92, "duration": 192}, {"note": 73, "velocity": 94, "duration": 388}, {"note": 0, "velocity": 0, "duration": 92}, {"note": 71, "velocity": 90, "duration": 165}, {"note": 0, "velocity": 0, "duration": 75}, {"note": 73, "velocity": 93, "duration": 173}, {"note": 0, "velocity": 0, "duration": 67}, {"note": 71, "velocity": 92, "duration": 1227}, {"note": 0, "velocity": 0, "duration": 213}, {"note": 71, "velocity": 91, "duration": 179}, {"note": 0, "velocity": 0, "duration": 61}, {"note": 70, "velocity": 92, "duration": 201}, {"note": 68, "velocity": 91, "duration": 403}, {"note": 0, "velocity": 0, "duration": 77}, {"note": 71, "velocity": 95, "duration": 396}, {"note": 0, "velocity": 0, "duration": 84}, {"note": 73, "velocity": 97, "duration": 348}, {"note": 0, "velocity": 0, "duration": 132}, {"note": 71, "velocity": 94, "duration": 165}, {"note": 0, "velocity": 0, "duration": 75}, {"note": 73, "velocity": 97, "duration": 159}, {"note": 0, "velocity": 0, "duration": 81}, {"note": 75, "velocity": 92, "duration": 194}, {"note": 78, "velocity": 90, "duration": 154}, {"note": 0, "velocity": 0, "duration": 86}, {"note": 73, "velocity": 96, "duration": 157}, {"note": 0, "velocity": 0, "duration": 83}, {"note": 75, "velocity": 91, "duration": 152}, {"note": 0, "velocity": 0, "duration": 88}, {"note": 71, "velocity": 91, "duration": 283}, {"note": 0, "velocity": 0, "duration": 197}, {"note": 71, "velocity": 69, "duration": 191}, {"note": 70, "velocity": 91, "duration": 191}, {"note": 68, "velocity": 90, "duration": 416}, {"note": 0, "velocity": 0, "duration": 64}, {"note": 71, "velocity": 91, "duration": 421}, {"note": 73, "velocity": 94, "duration": 146}, {"note": 0, "velocity": 0, "duration": 94}, {"note": 75, "velocity": 92, "duration": 96}, {"note": 73, "velocity": 92, "duration": 81}, {"note": 71, "velocity": 92, "duration": 169}, {"note": 0, "velocity": 0, "duration": 71}, {"note": 73, "velocity": 94, "duration": 140}, {"note": 0, "velocity": 0, "duration": 100}, {"note": 75, "velocity": 92, "duration": 1136}, {"note": 0, "velocity": 0, "duration": 304}, {"note": 71, "velocity": 72, "duration": 170}, {"note": 0, "velocity": 0, "duration": 70}, {"note": 70, "velocity": 94, "duration": 167}, {"note": 0, "velocity": 0, "duration": 73}, {"note": 68, "velocity": 91, "duration": 413}, {"note": 0, "velocity": 0, "duration": 67}, {"note": 71, "velocity": 91, "duration": 407}, {"note": 0, "velocity": 0, "duration": 73}, {"note": 73, "velocity": 96, "duration": 145}, {"note": 0, "velocity": 0, "duration": 95}, {"note": 75, "velocity": 92, "duration": 101}, {"note": 73, "velocity": 94, "duration": 87}, {"note": 71, "velocity": 91, "duration": 142}, {"note": 0, "velocity": 0, "duration": 98}, {"note": 73, "velocity": 96, "duration": 126}, {"note": 0, "velocity": 0, "duration": 114}, {"note": 75, "velocity": 94, "duration": 243}, {"note": 78, "velocity": 91, "duration": 148}, {"note": 0, "velocity": 0, "duration": 92}, {"note": 78, "velocity": 90, "duration": 176}, {"note": 0, "velocity": 0, "duration": 64}, {"note": 75, "velocity": 92, "duration": 186}, {"note": 80, "velocity": 92, "duration": 273}, {"note": 0, "velocity": 0, "duration": 207}, {"note": 75, "velocity": 92, "duration": 174}, {"note": 0, "velocity": 0, "duration": 66}, {"note": 73, "velocity": 99, "duration": 204}, {"note": 71, "velocity": 87, "duration": 601}, {"note": 0, "velocity": 0, "duration": 119}, {"note": 75, "velocity": 94, "duration": 151}, {"note": 0, "velocity": 0, "duration": 89}, {"note": 73, "velocity": 97, "duration": 147}, {"note": 0, "velocity": 0, "duration": 93}, {"note": 75, "velocity": 91, "duration": 84}, {"note": 73, "velocity": 85, "duration": 122}, {"note": 71, "velocity": 93, "duration": 184}, {"note": 73, "velocity": 90, "duration": 155}, {"note": 0, "velocity": 0, "duration": 85}, {"note": 71, "velocity": 92, "duration": 1066}, {"note": 0, "velocity": 0, "duration": 134}, {"note": 71, "velocity": 91, "duration": 162}, {"note": 0, "velocity": 0, "duration": 78}, {"note": 75, "velocity": 92, "duration": 144}, {"note": 0, "velocity": 0, "duration": 96}, {"note": 76, "velocity": 91, "duration": 164}, {"note": 0, "velocity": 0, "duration": 76}, {"note": 78, "velocity": 92, "duration": 133}, {"note": 0, "velocity": 0, "duration": 107}, {"note": 71, "velocity": 94, "duration": 125}, {"note": 0, "velocity": 0, "duration": 115}, {"note": 75, "velocity": 97, "duration": 126}, {"note": 0, "velocity": 0, "duration": 114}, {"note": 76, "velocity": 91, "duration": 159}, {"note": 0, "velocity": 0, "duration": 81}, {"note": 78, "velocity": 92, "duration": 354}, {"note": 0, "velocity": 0, "duration": 126}, {"note": 80, "velocity": 94, "duration": 139}, {"note": 0, "velocity": 0, "duration": 101}, {"note": 82, "velocity": 92, "duration": 135}, {"note": 0, "velocity": 0, "duration": 105}, {"note": 83, "velocity": 94, "duration": 151}, {"note": 0, "velocity": 0, "duration": 89}, {"note": 75, "velocity": 94, "duration": 144}, {"note": 0, "velocity": 0, "duration": 96}, {"note": 75, "velocity": 96, "duration": 153}, {"note": 0, "velocity": 0, "duration": 87}, {"note": 76, "velocity": 91, "duration": 149}, {"note": 0, "velocity": 0, "duration": 91}, {"note": 78, "velocity": 91, "duration": 328}, {"note": 0, "velocity": 0, "duration": 632}, {"note": 80, "velocity": 91, "duration": 369}, {"note": 0, "velocity": 0, "duration": 111}, {"note": 78, "velocity": 90, "duration": 160}, {"note": 0, "velocity": 0, "duration": 80}, {"note": 76, "velocity": 90, "duration": 140}, {"note": 0, "velocity": 0, "duration": 100}, {"note": 78, "velocity": 91, "duration": 123}, {"note": 0, "velocity": 0, "duration": 117}, {"note": 83, "velocity": 87, "duration": 148}, {"note": 0, "velocity": 0, "duration": 92}, {"note": 83, "velocity": 97, "duration": 226}, {"note": 0, "velocity": 0, "duration": 254}, {"note": 80, "velocity": 92, "duration": 395}, {"note": 0, "velocity": 0, "duration": 85}, {"note": 80, "velocity": 94, "duration": 135}, {"note": 0, "velocity": 0, "duration": 105}, {"note": 82, "velocity": 92, "duration": 140}, {"note": 0, "velocity": 0, "duration": 100}, {"note": 83, "velocity": 92, "duration": 413}, {"note": 0, "velocity": 0, "duration": 67}, {"note": 82, "velocity": 96, "duration": 324}, {"note": 0, "velocity": 0, "duration": 156}, {"note": 78, "velocity": 90, "duration": 413}, {"note": 0, "velocity": 0, "duration": 67}, {"note": 75, "velocity": 94, "duration": 158}, {"note": 0, "velocity": 0, "duration": 82}, {"note": 76, "velocity": 93, "duration": 194}, {"note": 78, "velocity": 91, "duration": 386}, {"note": 0, "velocity": 0, "duration": 94}, {"note": 80, "velocity": 90, "duration": 178}, {"note": 0, "velocity": 0, "duration": 62}, {"note": 82, "velocity": 91, "duration": 144}, {"note": 0, "velocity": 0, "duration": 96}, {"note": 83, "velocity": 94, "duration": 307}, {"note": 0, "velocity": 0, "duration": 173}, {"note": 82, "velocity": 91, "duration": 149}, {"note": 0, "velocity": 0, "duration": 91}, {"note": 80, "velocity": 90, "duration": 135}, {"note": 0, "velocity": 0, "duration": 105}, {"note": 78, "velocity": 94, "duration": 751}, {"note": 0, "velocity": 0, "duration": 209}, {"note": 76, "velocity": 91, "duration": 156}, {"note": 0, "velocity": 0, "duration": 84}, {"note": 78, "velocity": 87, "duration": 159}, {"note": 0, "velocity": 0, "duration": 81}, {"note": 80, "velocity": 91, "duration": 156}, {"note": 0, "velocity": 0, "duration": 84}, {"note": 76, "velocity": 91, "duration": 179}, {"note": 0, "velocity": 0, "duration": 61}, {"note": 78, "velocity": 91, "duration": 240}, {"note": 83, "velocity": 95, "duration": 144}, {"note": 0, "velocity": 0, "duration": 96}, {"note": 83, "velocity": 94, "duration": 269}, {"note": 0, "velocity": 0, "duration": 211}, {"note": 83, "velocity": 95, "duration": 162}, {"note": 0, "velocity": 0, "duration": 78}, {"note": 82, "velocity": 96, "duration": 125}, {"note": 0, "velocity": 0, "duration": 115}, {"note": 78, "velocity": 93, "duration": 139}, {"note": 0, "velocity": 0, "duration": 101}, {"note": 71, "velocity": 94, "duration": 160}, {"note": 0, "velocity": 0, "duration": 80}, {"note": 75, "velocity": 92, "duration": 434}, {"note": 73, "velocity": 96, "duration": 195}, {"note": 0, "velocity": 0, "duration": 285}, {"note": 71, "velocity": 92, "duration": 1452}, {"note": 0, "velocity": 0, "duration": 1668}, {"note": 72, "velocity": 91, "duration": 162}, {"note": 0, "velocity": 0, "duration": 78}, {"note": 76, "velocity": 92, "duration": 144}, {"note": 0, "velocity": 0, "duration": 96}, {"note": 77, "velocity": 91, "duration": 164}, {"note": 0, "velocity": 0, "duration": 76}, {"note": 79, "velocity": 92, "duration": 133}, {"note": 0, "velocity": 0, "duration": 107}, {"note": 72, "velocity": 94, "duration": 125}, {"note": 0, "velocity": 0, "duration": 115}, {"note": 76, "velocity": 97, "duration": 126}, {"note": 0, "velocity": 0, "duration": 114}, {"note": 77, "velocity": 91, "duration": 159}, {"note": 0, "velocity": 0, "duration": 81}, {"note": 79, "velocity": 92, "duration": 354}, {"note": 0, "velocity": 0, "duration": 126}, {"note": 81, "velocity": 94, "duration": 139}, {"note": 0, "velocity": 0, "duration": 101}, {"note": 83, "velocity": 92, "duration": 135}, {"note": 0, "velocity": 0, "duration": 105}, {"note": 84, "velocity": 94, "duration": 151}, {"note": 0, "velocity": 0, "duration": 89}, {"note": 76, "velocity": 94, "duration": 144}, {"note": 0, "velocity": 0, "duration": 96}, {"note": 76, "velocity": 96, "duration": 153}, {"note": 0, "velocity": 0, "duration": 87}, {"note": 77, "velocity": 91, "duration": 149}, {"note": 0, "velocity": 0, "duration": 91}, {"note": 79, "velocity": 91, "duration": 328}, {"note": 0, "velocity": 0, "duration": 632}, {"note": 81, "velocity": 91, "duration": 369}, {"note": 0, "velocity": 0, "duration": 111}, {"note": 79, "velocity": 90, "duration": 160}, {"note": 0, "velocity": 0, "duration": 80}, {"note": 77, "velocity": 90, "duration": 140}, {"note": 0, "velocity": 0, "duration": 100}, {"note": 79, "velocity": 91, "duration": 123}, {"note": 0, "velocity": 0, "duration": 117}, {"note": 84, "velocity": 87, "duration": 148}, {"note": 0, "velocity": 0, "duration": 92}, {"note": 84, "velocity": 97, "duration": 226}, {"note": 0, "velocity": 0, "duration": 254}, {"note": 81, "velocity": 92, "duration": 395}, {"note": 0, "velocity": 0, "duration": 85}, {"note": 81, "velocity": 94, "duration": 135}, {"note": 0, "velocity": 0, "duration": 105}, {"note": 83, "velocity": 92, "duration": 140}, {"note": 0, "velocity": 0, "duration": 100}, {"note": 84, "velocity": 92, "duration": 413}, {"note": 0, "velocity": 0, "duration": 67}, {"note": 83, "velocity": 96, "duration": 324}, {"note": 0, "velocity": 0, "duration": 156}, {"note": 79, "velocity": 90, "duration": 413}, {"note": 0, "velocity": 0, "duration": 67}, {"note": 76, "velocity": 94, "duration": 158}, {"note": 0, "velocity": 0, "duration": 82}, {"note": 77, "velocity": 93, "duration": 194}, {"note": 79, "velocity": 91, "duration": 386}, {"note": 0, "velocity": 0, "duration": 94}, {"note": 81, "velocity": 90, "duration": 178}, {"note": 0, "velocity": 0, "duration": 62}, {"note": 83, "velocity": 91, "duration": 144}, {"note": 0, "velocity": 0, "duration": 96}, {"note": 84, "velocity": 94, "duration": 307}, {"note": 0, "velocity": 0, "duration": 173}, {"note": 83, "velocity": 91, "duration": 149}, {"note": 0, "velocity": 0, "duration": 91}, {"note": 81, "velocity": 90, "duration": 135}, {"note": 0, "velocity": 0, "duration": 105}, {"note": 79, "velocity": 94, "duration": 751}, {"note": 0, "velocity": 0, "duration": 209}, {"note": 77, "velocity": 91, "duration": 156}, {"note": 0, "velocity": 0, "duration": 84}, {"note": 79, "velocity": 87, "duration": 159}, {"note": 0, "velocity": 0, "duration": 81}, {"note": 81, "velocity": 91, "duration": 156}, {"note": 0, "velocity": 0, "duration": 84}, {"note": 77, "velocity": 91, "duration": 179}, {"note": 0, "velocity": 0, "duration": 61}, {"note": 79, "velocity": 91, "duration": 240}, {"note": 84, "velocity": 95, "duration": 144}, {"note": 0, "velocity": 0, "duration": 96}, {"note": 84, "velocity": 94, "duration": 269}, {"note": 0, "velocity": 0, "duration": 211}, {"note": 84, "velocity": 95, "duration": 162}, {"note": 0, "velocity": 0, "duration": 78}, {"note": 83, "velocity": 96, "duration": 125}, {"note": 0, "velocity": 0, "duration": 115}, {"note": 79, "velocity": 93, "duration": 139}, {"note": 0, "velocity": 0, "duration": 101}, {"note": 72, "velocity": 94, "duration": 160}, {"note": 0, "velocity": 0, "duration": 80}, {"note": 76, "velocity": 92, "duration": 434}, {"note": 74, "velocity": 96, "duration": 360}, {"note": 0, "velocity": 0, "duration": 120}, {"note": 79, "velocity": 92, "duration": 133}, {"note": 0, "velocity": 0, "duration": 107}, {"note": 72, "velocity": 94, "duration": 125}, {"note": 0, "velocity": 0, "duration": 115}, {"note": 76, "velocity": 97, "duration": 126}, {"note": 0, "velocity": 0, "duration": 114}, {"note": 77, "velocity": 91, "duration": 159}, {"note": 0, "velocity": 0, "duration": 81}, {"note": 79, "velocity": 92, "duration": 354}, {"note": 0, "velocity": 0, "duration": 126}, {"note": 81, "velocity": 94, "duration": 139}, {"note": 0, "velocity": 0, "duration": 101}, {"note": 83, "velocity": 92, "duration": 135}, {"note": 0, "velocity": 0, "duration": 105}, {"note": 84, "velocity": 94, "duration": 151}, {"note": 0, "velocity": 0, "duration": 89}, {"note": 76, "velocity": 94, "duration": 144}, {"note": 0, "velocity": 0, "duration": 96}, {"note": 76, "velocity": 96, "duration": 153}, {"note": 0, "velocity": 0, "duration": 87}, {"note": 77, "velocity": 91, "duration": 149}, {"note": 0, "velocity": 0, "duration": 91}, {"note": 79, "velocity": 91, "duration": 328}, {"note": 0, "velocity": 0, "duration": 632}, {"note": 81, "velocity": 91, "duration": 369}, {"note": 0, "velocity": 0, "duration": 111}, {"note": 79, "velocity": 90, "duration": 160}, {"note": 0, "velocity": 0, "duration": 80}, {"note": 77, "velocity": 90, "duration": 140}, {"note": 0, "velocity": 0, "duration": 100}, {"note": 79, "velocity": 91, "duration": 123}, {"note": 0, "velocity": 0, "duration": 117}, {"note": 84, "velocity": 87, "duration": 148}, {"note": 0, "velocity": 0, "duration": 92}, {"note": 84, "velocity": 97, "duration": 226}, {"note": 0, "velocity": 0, "duration": 254}, {"note": 81, "velocity": 92, "duration": 395}, {"note": 0, "velocity": 0, "duration": 85}, {"note": 81, "velocity": 94, "duration": 135}, {"note": 0, "velocity": 0, "duration": 105}, {"note": 83, "velocity": 92, "duration": 140}, {"note": 0, "velocity": 0, "duration": 100}, {"note": 84, "velocity": 92, "duration": 413}, {"note": 0, "velocity": 0, "duration": 67}, {"note": 83, "velocity": 96, "duration": 324}, {"note": 0, "velocity": 0, "duration": 156}, {"note": 79, "velocity": 90, "duration": 413}, {"note": 0, "velocity": 0, "duration": 67}, {"note": 76, "velocity": 94, "duration": 158}, {"note": 0, "velocity": 0, "duration": 82}, {"note": 77, "velocity": 93, "duration": 194}, {"note": 79, "velocity": 91, "duration": 386}, {"note": 0, "velocity": 0, "duration": 94}, {"note": 81, "velocity": 90, "duration": 178}, {"note": 0, "velocity": 0, "duration": 62}, {"note": 83, "velocity": 91, "duration": 144}, {"note": 0, "velocity": 0, "duration": 96}, {"note": 84, "velocity": 94, "duration": 307}, {"note": 0, "velocity": 0, "duration": 173}, {"note": 83, "velocity": 91, "duration": 149}, {"note": 0, "velocity": 0, "duration": 91}, {"note": 81, "velocity": 90, "duration": 135}, {"note": 0, "velocity": 0, "duration": 105}, {"note": 79, "velocity": 94, "duration": 751}, {"note": 0, "velocity": 0, "duration": 209}, {"note": 77, "velocity": 91, "duration": 156}, {"note": 0, "velocity": 0, "duration": 84}, {"note": 79, "velocity": 87, "duration": 159}, {"note": 0, "velocity": 0, "duration": 81}, {"note": 81, "velocity": 91, "duration": 156}, {"note": 0, "velocity": 0, "duration": 84}, {"note": 77, "velocity": 91, "duration": 179}, {"note": 0, "velocity": 0, "duration": 61}, {"note": 79, "velocity": 91, "duration": 240}, {"note": 84, "velocity": 95, "duration": 144}, {"note": 0, "velocity": 0, "duration": 96}, {"note": 84, "velocity": 94, "duration": 269}, {"note": 0, "velocity": 0, "duration": 2131}, {"note": 84, "velocity": 95, "duration": 162}, {"note": 0, "velocity": 0, "duration": 78}, {"note": 83, "velocity": 96, "duration": 125}, {"note": 0, "velocity": 0, "duration": 115}, {"note": 79, "velocity": 93, "duration": 139}, {"note": 0, "velocity": 0, "duration": 101}, {"note": 72, "velocity": 94, "duration": 160}, {"note": 0, "velocity": 0, "duration": 80}, {"note": 76, "velocity": 92, "duration": 434}, {"note": 74, "velocity": 96, "duration": 195}, {"note": 0, "velocity": 0, "duration": 285}, {"note": 72, "velocity": 92, "duration": 1452}, {"note": 0, "velocity": 0, "duration": 468}, {"note": 84, "velocity": 95, "duration": 162}, {"note": 0, "velocity": 0, "duration": 78}, {"note": 83, "velocity": 96, "duration": 125}, {"note": 0, "velocity": 0, "duration": 115}, {"note": 79, "velocity": 93, "duration": 139}, {"note": 0, "velocity": 0, "duration": 101}, {"note": 72, "velocity": 94, "duration": 160}, {"note": 0, "velocity": 0, "duration": 80}, {"note": 76, "velocity": 92, "duration": 434}, {"note": 74, "velocity": 96, "duration": 195}, {"note": 0, "velocity": 0, "duration": 285}, {"note": 72, "velocity": 92, "duration": 1452}]]