[[{"note": 67, "velocity": 95, "duration": 173}, {"note": 0, "velocity": 0, "duration": 67}, {"note": 67, "velocity": 95, "duration": 202}, {"note": 66, "velocity": 94, "duration": 221}, {"note": 64, "velocity": 99, "duration": 197}, {"note": 66, "velocity": 95, "duration": 184}, {"note": 67, "velocity": 97, "duration": 202}, {"note": 64, "velocity": 102, "duration": 210}, {"note": 71, "velocity": 101, "duration": 240}, {"note": 69, "velocity": 97, "duration": 163}, {"note": 0, "velocity": 0, "duration": 77}, {"note": 69, "velocity": 95, "duration": 167}, {"note": 0, "velocity": 0, "duration": 73}, {"note": 67, "velocity": 96, "duration": 158}, {"note": 0, "velocity": 0, "duration": 82}, {"note": 67, "velocity": 96, "duration": 454}, {"note": 64, "velocity": 97, "duration": 543}, {"note": 0, "velocity": 0, "duration": 177}, {"note": 66, "velocity": 92, "duration": 166}, {"note": 0, "velocity": 0, "duration": 74}, {"note": 66, "velocity": 97, "duration": 161}, {"note": 0, "velocity": 0, "duration": 79}, {"note": 67, "velocity": 98, "duration": 165}, {"note": 0, "velocity": 0, "duration": 75}, {"note": 69, "velocity": 97, "duration": 168}, {"note": 0, "velocity": 0, "duration": 72}, {"note": 62, "velocity": 96, "duration": 150}, {"note": 0, "velocity": 0, "duration": 90}, {"note": 62, "velocity": 96, "duration": 176}, {"note": 0, "velocity": 0, "duration": 64}, {"note": 72, "velocity": 99, "duration": 169}, {"note": 0, "velocity": 0, "duration": 71}, {"note": 72, "velocity": 98, "duration": 196}, {"note": 71, "velocity": 95, "duration": 147}, {"note": 0, "velocity": 0, "duration": 93}, {"note": 71, "velocity": 96, "duration": 168}, {"note": 0, "velocity": 0, "duration": 72}, {"note": 69, "velocity": 96, "duration": 168}, {"note": 0, "velocity": 0, "duration": 72}, {"note": 71, "velocity": 95, "duration": 588}, {"note": 0, "velocity": 0, "duration": 132}, {"note": 71, "velocity": 101, "duration": 185}, {"note": 76, "velocity": 97, "duration": 135}, {"note": 0, "velocity": 0, "duration": 105}, {"note": 76, "velocity": 95, "duration": 138}, {"note": 0, "velocity": 0, "duration": 102}, {"note": 76, "velocity": 102, "duration": 172}, {"note": 0, "velocity": 0, "duration": 68}, {"note": 74, "velocity": 98, "duration": 168}, {"note": 0, "velocity": 0, "duration": 72}, {"note": 72, "velocity": 99, "duration": 582}, {"note": 0, "velocity": 0, "duration": 138}, {"note": 69, "velocity": 97, "duration": 214}, {"note": 71, "velocity": 97, "duration": 163}, {"note": 0, "velocity": 0, "duration": 77}, {"note": 72, "velocity": 90, "duration": 189}, {"note": 71, "velocity": 97, "duration": 191}, {"note": 67, "velocity": 94, "duration": 201}, {"note": 64, "velocity": 101, "duration": 385}, {"note": 0, "velocity": 0, "duration": 95}, {"note": 64, "velocity": 100, "duration": 190}, {"note": 71, "velocity": 97, "duration": 188}, {"note": 69, "velocity": 100, "duration": 366}, {"note": 0, "velocity": 0, "duration": 114}, {"note": 64, "velocity": 100, "duration": 204}, {"note": 71, "velocity": 99, "duration": 207}, {"note": 69, "velocity": 99, "duration": 151}, {"note": 0, "velocity": 0, "duration": 89}, {"note": 69, "velocity": 97, "duration": 225}, {"note": 67, "velocity": 99, "duration": 235}, {"note": 64, "velocity": 99, "duration": 416}, {"note": 0, "velocity": 0, "duration": 64}, {"note": 66, "velocity": 96, "duration": 1498}, {"note": 0, "velocity": 0, "duration": 422}, {"note": 67, "velocity": 95, "duration": 173}, {"note": 0, "velocity": 0, "duration": 67}, {"note": 67, "velocity": 95, "duration": 202}, {"note": 66, "velocity": 94, "duration": 221}, {"note": 64, "velocity": 99, "duration": 197}, {"note": 66, "velocity": 95, "duration": 184}, {"note": 67, "velocity": 97, "duration": 202}, {"note": 64, "velocity": 102, "duration": 210}, {"note": 71, "velocity": 101, "duration": 240}, {"note": 69, "velocity": 97, "duration": 163}, {"note": 0, "velocity": 0, "duration": 77}, {"note": 69, "velocity": 95, "duration": 167}, {"note": 0, "velocity": 0, "duration": 73}, {"note": 67, "velocity": 96, "duration": 158}, {"note": 0, "velocity": 0, "duration": 82}, {"note": 67, "velocity": 96, "duration": 454}, {"note": 64, "velocity": 97, "duration": 543}, {"note": 0, "velocity": 0, "duration": 177}, {"note": 66, "velocity": 92, "duration": 166}, {"note": 0, "velocity": 0, "duration": 74}, {"note": 66, "velocity": 97, "duration": 161}, {"note": 0, "velocity": 0, "duration": 79}, {"note": 67, "velocity": 98, "duration": 165}, {"note": 0, "velocity": 0, "duration": 75}, {"note": 69, "velocity": 97, "duration": 168}, {"note": 0, "velocity": 0, "duration": 72}, {"note": 62, "velocity": 96, "duration": 150}, {"note": 0, "velocity": 0, "duration": 90}, {"note": 62, "velocity": 96, "duration": 176}, {"note": 0, "velocity": 0, "duration": 64}, {"note": 72, "velocity": 99, "duration": 169}, {"note": 0, "velocity": 0, "duration": 71}, {"note": 72, "velocity": 98, "duration": 196}, {"note": 71, "velocity": 95, "duration": 147}, {"note": 0, "velocity": 0, "duration": 93}, {"note": 71, "velocity": 96, "duration": 168}, {"note": 0, "velocity": 0, "duration": 72}, {"note": 69, "velocity": 96, "duration": 168}, {"note": 0, "velocity": 0, "duration": 72}, {"note": 71, "velocity": 95, "duration": 588}, {"note": 0, "velocity": 0, "duration": 132}, {"note": 71, "velocity": 101, "duration": 185}, {"note": 76, "velocity": 97, "duration": 135}, {"note": 0, "velocity": 0, "duration": 105}, {"note": 76, "velocity": 95, "duration": 138}, {"note": 0, "velocity": 0, "duration": 102}, {"note": 76, "velocity": 102, "duration": 172}, {"note": 0, "velocity": 0, "duration": 68}, {"note": 74, "velocity": 98, "duration": 168}, {"note": 0, "velocity": 0, "duration": 72}, {"note": 72, "velocity": 99, "duration": 582}, {"note": 0, "velocity": 0, "duration": 138}, {"note": 69, "velocity": 97, "duration": 214}, {"note": 71, "velocity": 97, "duration": 163}, {"note": 0, "velocity": 0, "duration": 77}, {"note": 72, "velocity": 90, "duration": 189}, {"note": 71, "velocity": 97, "duration": 191}, {"note": 67, "velocity": 94, "duration": 201}, {"note": 64, "velocity": 101, "duration": 385}, {"note": 0, "velocity": 0, "duration": 95}, {"note": 64, "velocity": 100, "duration": 190}, {"note": 71, "velocity": 97, "duration": 188}, {"note": 69, "velocity": 100, "duration": 240}, {"note": 69, "velocity": 100, "duration": 240}, {"note": 64, "velocity": 100, "duration": 204}, {"note": 67, "velocity": 99, "duration": 207}, {"note": 66, "velocity": 99, "duration": 151}, {"note": 0, "velocity": 0, "duration": 89}, {"note": 66, "velocity": 97, "duration": 225}, {"note": 67, "velocity": 99, "duration": 235}, {"note": 62, "velocity": 99, "duration": 416}, {"note": 0, "velocity": 0, "duration": 64}, {"note": 64, "velocity": 96, "duration": 1498}, {"note": 0, "velocity": 0, "duration": 422}, {"note": 67, "velocity": 96, "duration": 150}, {"note": 0, "velocity": 0, "duration": 90}, {"note": 67, "velocity": 96, "duration": 162}, {"note": 0, "velocity": 0, "duration": 78}, {"note": 69, "velocity": 101, "duration": 184}, {"note": 71, "velocity": 99, "duration": 213}, {"note": 67, "velocity": 97, "duration": 173}, {"note": 0, "velocity": 0, "duration": 67}, {"note": 71, "velocity": 102, "duration": 157}, {"note": 0, "velocity": 0, "duration": 83}, {"note": 76, "velocity": 106, "duration": 191}, {"note": 74, "velocity": 102, "duration": 158}, {"note": 0, "velocity": 0, "duration": 82}, {"note": 74, "velocity": 106, "duration": 402}, {"note": 0, "velocity": 0, "duration": 78}, {"note": 72, "velocity": 99, "duration": 173}, {"note": 0, "velocity": 0, "duration": 67}, {"note": 71, "velocity": 100, "duration": 434}, {"note": 69, "velocity": 100, "duration": 534}, {"note": 0, "velocity": 0, "duration": 186}, {"note": 71, "velocity": 96, "duration": 162}, {"note": 0, "velocity": 0, "duration": 78}, {"note": 71, "velocity": 99, "duration": 153}, {"note": 0, "velocity": 0, "duration": 87}, {"note": 71, "velocity": 99, "duration": 157}, {"note": 0, "velocity": 0, "duration": 83}, {"note": 71, "velocity": 104, "duration": 372}, {"note": 0, "velocity": 0, "duration": 108}, {"note": 76, "velocity": 101, "duration": 158}, {"note": 0, "velocity": 0, "duration": 82}, {"note": 78, "velocity": 99, "duration": 408}, {"note": 0, "velocity": 0, "duration": 72}, {"note": 74, "velocity": 102, "duration": 1016}, {"note": 0, "velocity": 0, "duration": 424}, {"note": 78, "velocity": 102, "duration": 188}, {"note": 76, "velocity": 99, "duration": 140}, {"note": 0, "velocity": 0, "duration": 100}, {"note": 76, "velocity": 104, "duration": 158}, {"note": 0, "velocity": 0, "duration": 82}, {"note": 76, "velocity": 106, "duration": 158}, {"note": 0, "velocity": 0, "duration": 82}, {"note": 74, "velocity": 109, "duration": 173}, {"note": 0, "velocity": 0, "duration": 67}, {"note": 76, "velocity": 109, "duration": 532}, {"note": 0, "velocity": 0, "duration": 188}, {"note": 74, "velocity": 100, "duration": 191}, {"note": 71, "velocity": 101, "duration": 158}, {"note": 0, "velocity": 0, "duration": 82}, {"note": 71, "velocity": 97, "duration": 169}, {"note": 0, "velocity": 0, "duration": 71}, {"note": 71, "velocity": 96, "duration": 166}, {"note": 0, "velocity": 0, "duration": 74}, {"note": 69, "velocity": 99, "duration": 172}, {"note": 0, "velocity": 0, "duration": 68}, {"note": 71, "velocity": 98, "duration": 431}, {"note": 64, "velocity": 99, "duration": 176}, {"note": 0, "velocity": 0, "duration": 64}, {"note": 71, "velocity": 99, "duration": 173}, {"note": 0, "velocity": 0, "duration": 67}, {"note": 69, "velocity": 96, "duration": 154}, {"note": 0, "velocity": 0, "duration": 86}, {"note": 69, "velocity": 96, "duration": 157}, {"note": 0, "velocity": 0, "duration": 83}, {"note": 69, "velocity": 98, "duration": 169}, {"note": 0, "velocity": 0, "duration": 71}, {"note": 67, "velocity": 99, "duration": 184}, {"note": 64, "velocity": 104, "duration": 358}, {"note": 0, "velocity": 0, "duration": 122}, {"note": 74, "velocity": 106, "duration": 618}, {"note": 0, "velocity": 0, "duration": 102}, {"note": 69, "velocity": 97, "duration": 828}, {"note": 0, "velocity": 0, "duration": 1092}, {"note": 67, "velocity": 96, "duration": 150}, {"note": 0, "velocity": 0, "duration": 90}, {"note": 67, "velocity": 96, "duration": 162}, {"note": 0, "velocity": 0, "duration": 78}, {"note": 69, "velocity": 101, "duration": 184}, {"note": 71, "velocity": 99, "duration": 213}, {"note": 67, "velocity": 97, "duration": 173}, {"note": 0, "velocity": 0, "duration": 67}, {"note": 71, "velocity": 102, "duration": 157}, {"note": 0, "velocity": 0, "duration": 83}, {"note": 76, "velocity": 106, "duration": 191}, {"note": 74, "velocity": 102, "duration": 158}, {"note": 0, "velocity": 0, "duration": 82}, {"note": 74, "velocity": 106, "duration": 402}, {"note": 0, "velocity": 0, "duration": 78}, {"note": 72, "velocity": 99, "duration": 173}, {"note": 0, "velocity": 0, "duration": 67}, {"note": 71, "velocity": 100, "duration": 434}, {"note": 69, "velocity": 100, "duration": 534}, {"note": 0, "velocity": 0, "duration": 186}, {"note": 71, "velocity": 96, "duration": 162}, {"note": 0, "velocity": 0, "duration": 78}, {"note": 71, "velocity": 99, "duration": 153}, {"note": 0, "velocity": 0, "duration": 87}, {"note": 71, "velocity": 99, "duration": 157}, {"note": 0, "velocity": 0, "duration": 83}, {"note": 71, "velocity": 104, "duration": 372}, {"note": 0, "velocity": 0, "duration": 108}, {"note": 76, "velocity": 101, "duration": 158}, {"note": 0, "velocity": 0, "duration": 82}, {"note": 78, "velocity": 99, "duration": 408}, {"note": 0, "velocity": 0, "duration": 72}, {"note": 74, "velocity": 102, "duration": 960}, {"note": 79, "velocity": 102, "duration": 188}, {"note": 79, "velocity": 102, "duration": 188}, {"note": 78, "velocity": 102, "duration": 188}, {"note": 76, "velocity": 99, "duration": 140}, {"note": 0, "velocity": 0, "duration": 100}, {"note": 76, "velocity": 104, "duration": 158}, {"note": 0, "velocity": 0, "duration": 82}, {"note": 76, "velocity": 106, "duration": 158}, {"note": 0, "velocity": 0, "duration": 82}, {"note": 74, "velocity": 109, "duration": 173}, {"note": 0, "velocity": 0, "duration": 67}, {"note": 76, "velocity": 109, "duration": 532}, {"note": 0, "velocity": 0, "duration": 188}, {"note": 74, "velocity": 100, "duration": 191}, {"note": 71, "velocity": 101, "duration": 158}, {"note": 0, "velocity": 0, "duration": 82}, {"note": 71, "velocity": 97, "duration": 169}, {"note": 0, "velocity": 0, "duration": 71}, {"note": 71, "velocity": 96, "duration": 166}, {"note": 0, "velocity": 0, "duration": 74}, {"note": 69, "velocity": 99, "duration": 172}, {"note": 0, "velocity": 0, "duration": 68}, {"note": 71, "velocity": 98, "duration": 431}, {"note": 64, "velocity": 99, "duration": 176}, {"note": 0, "velocity": 0, "duration": 64}, {"note": 71, "velocity": 99, "duration": 173}, {"note": 0, "velocity": 0, "duration": 67}, {"note": 69, "velocity": 96, "duration": 154}, {"note": 0, "velocity": 0, "duration": 86}, {"note": 69, "velocity": 96, "duration": 157}, {"note": 0, "velocity": 0, "duration": 83}, {"note": 69, "velocity": 98, "duration": 169}, {"note": 0, "velocity": 0, "duration": 71}, {"note": 64, "velocity": 99, "duration": 184}, {"note": 66, "velocity": 104, "duration": 358}, {"note": 0, "velocity": 0, "duration": 122}, {"note": 62, "velocity": 106, "duration": 618}, {"note": 0, "velocity": 0, "duration": 102}, {"note": 64, "velocity": 97, "duration": 828}, {"note": 0, "velocity": 0, "duration": 16452}, {"note": 68, "velocity": 95, "duration": 173}, {"note": 0, "velocity": 0, "duration": 67}, {"note": 68, "velocity": 95, "duration": 202}, {"note": 67, "velocity": 94, "duration": 221}, {"note": 65, "velocity": 99, "duration": 197}, {"note": 67, "velocity": 95, "duration": 184}, {"note": 68, "velocity": 97, "duration": 202}, {"note": 65, "velocity": 102, "duration": 210}, {"note": 72, "velocity": 101, "duration": 240}, {"note": 70, "velocity": 97, "duration": 163}, {"note": 0, "velocity": 0, "duration": 77}, {"note": 70, "velocity": 95, "duration": 167}, {"note": 0, "velocity": 0, "duration": 73}, {"note": 68, "velocity": 96, "duration": 158}, {"note": 0, "velocity": 0, "duration": 82}, {"note": 68, "velocity": 96, "duration": 454}, {"note": 65, "velocity": 97, "duration": 543}, {"note": 0, "velocity": 0, "duration": 177}, {"note": 67, "velocity": 92, "duration": 166}, {"note": 0, "velocity": 0, "duration": 74}, {"note": 67, "velocity": 97, "duration": 161}, {"note": 0, "velocity": 0, "duration": 79}, {"note": 68, "velocity": 98, "duration": 165}, {"note": 0, "velocity": 0, "duration": 75}, {"note": 70, "velocity": 97, "duration": 168}, {"note": 0, "velocity": 0, "duration": 72}, {"note": 63, "velocity": 96, "duration": 150}, {"note": 0, "velocity": 0, "duration": 90}, {"note": 63, "velocity": 96, "duration": 176}, {"note": 0, "velocity": 0, "duration": 64}, {"note": 73, "velocity": 99, "duration": 169}, {"note": 0, "velocity": 0, "duration": 71}, {"note": 73, "velocity": 98, "duration": 196}, {"note": 72, "velocity": 95, "duration": 147}, {"note": 0, "velocity": 0, "duration": 93}, {"note": 72, "velocity": 96, "duration": 168}, {"note": 0, "velocity": 0, "duration": 72}, {"note": 70, "velocity": 96, "duration": 168}, {"note": 0, "velocity": 0, "duration": 72}, {"note": 72, "velocity": 95, "duration": 588}, {"note": 0, "velocity": 0, "duration": 132}, {"note": 72, "velocity": 101, "duration": 185}, {"note": 77, "velocity": 97, "duration": 135}, {"note": 0, "velocity": 0, "duration": 105}, {"note": 77, "velocity": 95, "duration": 138}, {"note": 0, "velocity": 0, "duration": 102}, {"note": 77, "velocity": 102, "duration": 172}, {"note": 0, "velocity": 0, "duration": 68}, {"note": 75, "velocity": 98, "duration": 168}, {"note": 0, "velocity": 0, "duration": 72}, {"note": 73, "velocity": 99, "duration": 582}, {"note": 0, "velocity": 0, "duration": 138}, {"note": 70, "velocity": 97, "duration": 214}, {"note": 72, "velocity": 97, "duration": 163}, {"note": 0, "velocity": 0, "duration": 77}, {"note": 73, "velocity": 90, "duration": 189}, {"note": 72, "velocity": 97, "duration": 191}, {"note": 68, "velocity": 94, "duration": 201}, {"note": 65, "velocity": 101, "duration": 385}, {"note": 0, "velocity": 0, "duration": 95}, {"note": 65, "velocity": 100, "duration": 190}, {"note": 72, "velocity": 97, "duration": 188}, {"note": 70, "velocity": 100, "duration": 240}, {"note": 70, "velocity": 100, "duration": 240}, {"note": 65, "velocity": 100, "duration": 204}, {"note": 68, "velocity": 99, "duration": 207}, {"note": 67, "velocity": 99, "duration": 151}, {"note": 0, "velocity": 0, "duration": 89}, {"note": 67, "velocity": 97, "duration": 225}, {"note": 68, "velocity": 99, "duration": 235}, {"note": 63, "velocity": 99, "duration": 416}, {"note": 0, "velocity": 0, "duration": 64}, {"note": 65, "velocity": 96, "duration": 1498}, {"note": 0, "velocity": 0, "duration": 422}, {"note": 68, "velocity": 96, "duration": 150}, {"note": 0, "velocity": 0, "duration": 90}, {"note": 68, "velocity": 96, "duration": 162}, {"note": 0, "velocity": 0, "duration": 78}, {"note": 70, "velocity": 101, "duration": 184}, {"note": 72, "velocity": 99, "duration": 213}, {"note": 68, "velocity": 97, "duration": 173}, {"note": 0, "velocity": 0, "duration": 67}, {"note": 72, "velocity": 102, "duration": 157}, {"note": 0, "velocity": 0, "duration": 83}, {"note": 77, "velocity": 106, "duration": 191}, {"note": 75, "velocity": 102, "duration": 158}, {"note": 0, "velocity": 0, "duration": 82}, {"note": 75, "velocity": 106, "duration": 402}, {"note": 0, "velocity": 0, "duration": 78}, {"note": 73, "velocity": 99, "duration": 173}, {"note": 0, "velocity": 0, "duration": 67}, {"note": 72, "velocity": 100, "duration": 434}, {"note": 70, "velocity": 100, "duration": 534}, {"note": 0, "velocity": 0, "duration": 186}, {"note": 72, "velocity": 96, "duration": 162}, {"note": 0, "velocity": 0, "duration": 78}, {"note": 72, "velocity": 99, "duration": 153}, {"note": 0, "velocity": 0, "duration": 87}, {"note": 72, "velocity": 99, "duration": 157}, {"note": 0, "velocity": 0, "duration": 83}, {"note": 72, "velocity": 104, "duration": 372}, {"note": 0, "velocity": 0, "duration": 108}, {"note": 77, "velocity": 101, "duration": 158}, {"note": 0, "velocity": 0, "duration": 82}, {"note": 79, "velocity": 99, "duration": 408}, {"note": 0, "velocity": 0, "duration": 72}, {"note": 75, "velocity": 102, "duration": 1016}, {"note": 0, "velocity": 0, "duration": 424}, {"note": 79, "velocity": 102, "duration": 188}, {"note": 77, "velocity": 99, "duration": 140}, {"note": 0, "velocity": 0, "duration": 100}, {"note": 77, "velocity": 104, "duration": 158}, {"note": 0, "velocity": 0, "duration": 82}, {"note": 77, "velocity": 106, "duration": 158}, {"note": 0, "velocity": 0, "duration": 82}, {"note": 75, "velocity": 109, "duration": 173}, {"note": 0, "velocity": 0, "duration": 67}, {"note": 77, "velocity": 109, "duration": 532}, {"note": 0, "velocity": 0, "duration": 188}, {"note": 75, "velocity": 100, "duration": 191}, {"note": 72, "velocity": 101, "duration": 158}, {"note": 0, "velocity": 0, "duration": 82}, {"note": 72, "velocity": 97, "duration": 169}, {"note": 0, "velocity": 0, "duration": 71}, {"note": 72, "velocity": 96, "duration": 166}, {"note": 0, "velocity": 0, "duration": 74}, {"note": 70, "velocity": 99, "duration": 172}, {"note": 0, "velocity": 0, "duration": 68}, {"note": 72, "velocity": 98, "duration": 431}, {"note": 65, "velocity": 99, "duration": 176}, {"note": 0, "velocity": 0, "duration": 64}, {"note": 72, "velocity": 99, "duration": 173}, {"note": 0, "velocity": 0, "duration": 67}, {"note": 70, "velocity": 96, "duration": 154}, {"note": 0, "velocity": 0, "duration": 86}, {"note": 70, "velocity": 96, "duration": 157}, {"note": 0, "velocity": 0, "duration": 83}, {"note": 70, "velocity": 98, "duration": 169}, {"note": 0, "velocity": 0, "duration": 71}, {"note": 68, "velocity": 99, "duration": 184}, {"note": 65, "velocity": 104, "duration": 358}, {"note": 0, "velocity": 0, "duration": 122}, {"note": 75, "velocity": 106, "duration": 618}, {"note": 0, "velocity": 0, "duration": 102}, {"note": 70, "velocity": 97, "duration": 828}, {"note": 0, "velocity": 0, "duration": 1092}, {"note": 68, "velocity": 96, "duration": 150}, {"note": 0, "velocity": 0, "duration": 90}, {"note": 68, "velocity": 96, "duration": 162}, {"note": 0, "velocity": 0, "duration": 78}, {"note": 70, "velocity": 101, "duration": 184}, {"note": 72, "velocity": 99, "duration": 213}, {"note": 68, "velocity": 97, "duration": 173}, {"note": 0, "velocity": 0, "duration": 67}, {"note": 72, "velocity": 102, "duration": 157}, {"note": 0, "velocity": 0, "duration": 83}, {"note": 77, "velocity": 106, "duration": 191}, {"note": 75, "velocity": 102, "duration": 158}, {"note": 0, "velocity": 0, "duration": 82}, {"note": 75, "velocity": 106, "duration": 402}, {"note": 0, "velocity": 0, "duration": 78}, {"note": 73, "velocity": 99, "duration": 173}, {"note": 0, "velocity": 0, "duration": 67}, {"note": 72, "velocity": 100, "duration": 434}, {"note": 70, "velocity": 100, "duration": 534}, {"note": 0, "velocity": 0, "duration": 186}, {"note": 72, "velocity": 96, "duration": 162}, {"note": 0, "velocity": 0, "duration": 78}, {"note": 72, "velocity": 99, "duration": 153}, {"note": 0, "velocity": 0, "duration": 87}, {"note": 72, "velocity": 99, "duration": 157}, {"note": 0, "velocity": 0, "duration": 83}, {"note": 72, "velocity": 104, "duration": 372}, {"note": 0, "velocity": 0, "duration": 108}, {"note": 77, "velocity": 101, "duration": 158}, {"note": 0, "velocity": 0, "duration": 82}, {"note": 79, "velocity": 99, "duration": 408}, {"note": 0, "velocity": 0, "duration": 72}, {"note": 75, "velocity": 102, "duration": 960}, {"note": 80, "velocity": 102, "duration": 188}, {"note": 80, "velocity": 102, "duration": 188}, {"note": 79, "velocity": 102, "duration": 188}, {"note": 77, "velocity": 99, "duration": 140}, {"note": 0, "velocity": 0, "duration": 100}, {"note": 77, "velocity": 104, "duration": 158}, {"note": 0, "velocity": 0, "duration": 82}, {"note": 77, "velocity": 106, "duration": 158}, {"note": 0, "velocity": 0, "duration": 82}, {"note": 75, "velocity": 109, "duration": 173}, {"note": 0, "velocity": 0, "duration": 67}, {"note": 77, "velocity": 109, "duration": 532}, {"note": 0, "velocity": 0, "duration": 188}, {"note": 75, "velocity": 100, "duration": 191}, {"note": 72, "velocity": 101, "duration": 158}, {"note": 0, "velocity": 0, "duration": 82}, {"note": 72, "velocity": 97, "duration": 169}, {"note": 0, "velocity": 0, "duration": 71}, {"note": 72, "velocity": 96, "duration": 166}, {"note": 0, "velocity": 0, "duration": 74}, {"note": 70, "velocity": 99, "duration": 172}, {"note": 0, "velocity": 0, "duration": 68}, {"note": 72, "velocity": 98, "duration": 431}, {"note": 65, "velocity": 99, "duration": 176}, {"note": 0, "velocity": 0, "duration": 64}, {"note": 72, "velocity": 99, "duration": 173}, {"note": 0, "velocity": 0, "duration": 67}, {"note": 70, "velocity": 96, "duration": 154}, {"note": 0, "velocity": 0, "duration": 326}, {"note": 70, "velocity": 98, "duration": 169}, {"note": 0, "velocity": 0, "duration": 71}, {"note": 65, "velocity": 99, "duration": 184}, {"note": 67, "velocity": 104, "duration": 358}, {"note": 0, "velocity": 0, "duration": 122}, {"note": 67, "velocity": 100, "duration": 149}, {"note": 0, "velocity": 0, "duration": 91}, {"note": 63, "velocity": 99, "duration": 400}, {"note": 0, "velocity": 0, "duration": 80}, {"note": 65, "velocity": 101, "duration": 958}, {"note": 0, "velocity": 0, "duration": 2882}, {"note": 69, "velocity": 96, "duration": 150}, {"note": 0, "velocity": 0, "duration": 90}, {"note": 69, "velocity": 96, "duration": 162}, {"note": 0, "velocity": 0, "duration": 78}, {"note": 71, "velocity": 101, "duration": 184}, {"note": 73, "velocity": 99, "duration": 213}, {"note": 69, "velocity": 97, "duration": 173}, {"note": 0, "velocity": 0, "duration": 67}, {"note": 73, "velocity": 102, "duration": 157}, {"note": 0, "velocity": 0, "duration": 83}, {"note": 78, "velocity": 106, "duration": 191}, {"note": 76, "velocity": 102, "duration": 158}, {"note": 0, "velocity": 0, "duration": 82}, {"note": 76, "velocity": 106, "duration": 402}, {"note": 0, "velocity": 0, "duration": 78}, {"note": 74, "velocity": 99, "duration": 173}, {"note": 0, "velocity": 0, "duration": 67}, {"note": 73, "velocity": 100, "duration": 434}, {"note": 71, "velocity": 100, "duration": 534}, {"note": 0, "velocity": 0, "duration": 186}, {"note": 73, "velocity": 96, "duration": 162}, {"note": 0, "velocity": 0, "duration": 78}, {"note": 73, "velocity": 99, "duration": 153}, {"note": 0, "velocity": 0, "duration": 87}, {"note": 73, "velocity": 99, "duration": 157}, {"note": 0, "velocity": 0, "duration": 83}, {"note": 73, "velocity": 104, "duration": 372}, {"note": 0, "velocity": 0, "duration": 108}, {"note": 78, "velocity": 101, "duration": 158}, {"note": 0, "velocity": 0, "duration": 82}, {"note": 80, "velocity": 99, "duration": 408}, {"note": 0, "velocity": 0, "duration": 72}, {"note": 76, "velocity": 102, "duration": 1016}, {"note": 0, "velocity": 0, "duration": 424}, {"note": 80, "velocity": 102, "duration": 188}, {"note": 78, "velocity": 99, "duration": 140}, {"note": 0, "velocity": 0, "duration": 100}, {"note": 78, "velocity": 104, "duration": 158}, {"note": 0, "velocity": 0, "duration": 82}, {"note": 78, "velocity": 106, "duration": 158}, {"note": 0, "velocity": 0, "duration": 82}, {"note": 76, "velocity": 109, "duration": 173}, {"note": 0, "velocity": 0, "duration": 67}, {"note": 78, "velocity": 109, "duration": 532}, {"note": 0, "velocity": 0, "duration": 188}, {"note": 76, "velocity": 100, "duration": 191}, {"note": 73, "velocity": 101, "duration": 158}, {"note": 0, "velocity": 0, "duration": 82}, {"note": 73, "velocity": 97, "duration": 169}, {"note": 0, "velocity": 0, "duration": 71}, {"note": 73, "velocity": 96, "duration": 166}, {"note": 0, "velocity": 0, "duration": 74}, {"note": 71, "velocity": 99, "duration": 172}, {"note": 0, "velocity": 0, "duration": 68}, {"note": 73, "velocity": 98, "duration": 431}, {"note": 66, "velocity": 99, "duration": 176}, {"note": 0, "velocity": 0, "duration": 64}, {"note": 73, "velocity": 99, "duration": 173}, {"note": 0, "velocity": 0, "duration": 67}, {"note": 71, "velocity": 96, "duration": 154}, {"note": 0, "velocity": 0, "duration": 86}, {"note": 71, "velocity": 96, "duration": 157}, {"note": 0, "velocity": 0, "duration": 83}, {"note": 71, "velocity": 98, "duration": 169}, {"note": 0, "velocity": 0, "duration": 71}, {"note": 69, "velocity": 99, "duration": 184}, {"note": 66, "velocity": 104, "duration": 358}, {"note": 0, "velocity": 0, "duration": 122}, {"note": 76, "velocity": 106, "duration": 618}, {"note": 0, "velocity": 0, "duration": 102}, {"note": 71, "velocity": 97, "duration": 828}, {"note": 0, "velocity": 0, "duration": 1092}, {"note": 69, "velocity": 96, "duration": 150}, {"note": 0, "velocity": 0, "duration": 90}, {"note": 69, "velocity": 96, "duration": 162}, {"note": 0, "velocity": 0, "duration": 78}, {"note": 71, "velocity": 101, "duration": 184}, {"note": 73, "velocity": 99, "duration": 213}, {"note": 69, "velocity": 97, "duration": 173}, {"note": 0, "velocity": 0, "duration": 67}, {"note": 73, "velocity": 102, "duration": 157}, {"note": 0, "velocity": 0, "duration": 83}, {"note": 78, "velocity": 106, "duration": 191}, {"note": 76, "velocity": 102, "duration": 158}, {"note": 0, "velocity": 0, "duration": 82}, {"note": 76, "velocity": 106, "duration": 402}, {"note": 0, "velocity": 0, "duration": 78}, {"note": 74, "velocity": 99, "duration": 173}, {"note": 0, "velocity": 0, "duration": 67}, {"note": 73, "velocity": 100, "duration": 434}, {"note": 71, "velocity": 100, "duration": 534}, {"note": 0, "velocity": 0, "duration": 186}, {"note": 73, "velocity": 96, "duration": 162}, {"note": 0, "velocity": 0, "duration": 78}, {"note": 73, "velocity": 99, "duration": 153}, {"note": 0, "velocity": 0, "duration": 87}, {"note": 73, "velocity": 99, "duration": 157}, {"note": 0, "velocity": 0, "duration": 83}, {"note": 73, "velocity": 104, "duration": 372}, {"note": 0, "velocity": 0, "duration": 108}, {"note": 78, "velocity": 101, "duration": 158}, {"note": 0, "velocity": 0, "duration": 82}, {"note": 80, "velocity": 99, "duration": 408}, {"note": 0, "velocity": 0, "duration": 72}, {"note": 76, "velocity": 102, "duration": 960}, {"note": 81, "velocity": 102, "duration": 188}, {"note": 81, "velocity": 102, "duration": 188}, {"note": 80, "velocity": 102, "duration": 188}, {"note": 78, "velocity": 99, "duration": 140}, {"note": 0, "velocity": 0, "duration": 100}, {"note": 78, "velocity": 104, "duration": 158}, {"note": 0, "velocity": 0, "duration": 82}, {"note": 78, "velocity": 106, "duration": 158}, {"note": 0, "velocity": 0, "duration": 82}, {"note": 76, "velocity": 109, "duration": 173}, {"note": 0, "velocity": 0, "duration": 67}, {"note": 78, "velocity": 109, "duration": 532}, {"note": 0, "velocity": 0, "duration": 188}, {"note": 76, "velocity": 100, "duration": 191}, {"note": 73, "velocity": 101, "duration": 158}, {"note": 0, "velocity": 0, "duration": 82}, {"note": 73, "velocity": 97, "duration": 169}, {"note": 0, "velocity": 0, "duration": 71}, {"note": 73, "velocity": 96, "duration": 166}, {"note": 0, "velocity": 0, "duration": 74}, {"note": 71, "velocity": 99, "duration": 172}, {"note": 0, "velocity": 0, "duration": 68}, {"note": 73, "velocity": 98, "duration": 431}, {"note": 66, "velocity": 99, "duration": 176}, {"note": 0, "velocity": 0, "duration": 64}, {"note": 73, "velocity": 99, "duration": 173}, {"note": 0, "velocity": 0, "duration": 67}, {"note": 71, "velocity": 96, "duration": 154}, {"note": 0, "velocity": 0, "duration": 326}, {"note": 71, "velocity": 98, "duration": 169}, {"note": 0, "velocity": 0, "duration": 71}, {"note": 66, "velocity": 99, "duration": 184}, {"note": 68, "velocity": 104, "duration": 358}, {"note": 0, "velocity": 0, "duration": 122}, {"note": 68, "velocity": 100, "duration": 149}, {"note": 0, "velocity": 0, "duration": 91}, {"note": 64, "velocity": 99, "duration": 400}, {"note": 0, "velocity": 0, "duration": 80}, {"note": 66, "velocity": 101, "duration": 480}, {"note": 0, "velocity": 0, "duration": 480}, {"note": 81, "velocity": 102, "duration": 188}, {"note": 81, "velocity": 102, "duration": 188}, {"note": 80, "velocity": 102, "duration": 188}, {"note": 78, "velocity": 99, "duration": 140}, {"note": 0, "velocity": 0, "duration": 100}, {"note": 78, "velocity": 104, "duration": 158}, {"note": 0, "velocity": 0, "duration": 82}, {"note": 78, "velocity": 106, "duration": 158}, {"note": 0, "velocity": 0, "duration": 82}, {"note": 76, "velocity": 109, "duration": 173}, {"note": 0, "velocity": 0, "duration": 67}, {"note": 78, "velocity": 109, "duration": 532}, {"note": 0, "velocity": 0, "duration": 188}, {"note": 76, "velocity": 100, "duration": 191}, {"note": 73, "velocity": 101, "duration": 158}, {"note": 0, "velocity": 0, "duration": 82}, {"note": 73, "velocity": 97, "duration": 169}, {"note": 0, "velocity": 0, "duration": 71}, {"note": 73, "velocity": 96, "duration": 166}, {"note": 0, "velocity": 0, "duration": 74}, {"note": 71, "velocity": 99, "duration": 172}, {"note": 0, "velocity": 0, "duration": 68}, {"note": 73, "velocity": 98, "duration": 431}, {"note": 66, "velocity": 99, "duration": 176}, {"note": 0, "velocity": 0, "duration": 64}, {"note": 73, "velocity": 99, "duration": 173}, {"note": 0, "velocity": 0, "duration": 67}, {"note": 71, "velocity": 96, "duration": 154}, {"note": 0, "velocity": 0, "duration": 326}, {"note": 71, "velocity": 98, "duration": 169}, {"note": 0, "velocity": 0, "duration": 71}, {"note": 66, "velocity": 99, "duration": 184}, {"note": 68, "velocity": 104, "duration": 358}, {"note": 0, "velocity": 0, "duration": 122}, {"note": 68, "velocity": 100, "duration": 149}, {"note": 0, "velocity": 0, "duration": 91}, {"note": 64, "velocity": 99, "duration": 400}, {"note": 0, "velocity": 0, "duration": 80}, {"note": 66, "velocity": 101, "duration": 958}]]