[[{"note": 78, "velocity": 95, "duration": 617}, {"note": 0, "velocity": 0, "duration": 103}, {"note": 78, "velocity": 93, "duration": 105}, {"note": 78, "velocity": 97, "duration": 282}, {"note": 76, "velocity": 87, "duration": 558}, {"note": 0, "velocity": 0, "duration": 162}, {"note": 74, "velocity": 93, "duration": 527}, {"note": 0, "velocity": 0, "duration": 193}, {"note": 74, "velocity": 87, "duration": 135}, {"note": 0, "velocity": 0, "duration": 105}, {"note": 74, "velocity": 92, "duration": 251}, {"note": 71, "velocity": 86, "duration": 639}, {"note": 0, "velocity": 0, "duration": 81}, {"note": 78, "velocity": 80, "duration": 633}, {"note": 0, "velocity": 0, "duration": 87}, {"note": 78, "velocity": 90, "duration": 125}, {"note": 78, "velocity": 90, "duration": 356}, {"note": 76, "velocity": 84, "duration": 150}, {"note": 0, "velocity": 0, "duration": 90}, {"note": 76, "velocity": 86, "duration": 231}, {"note": 74, "velocity": 86, "duration": 73}, {"note": 74, "velocity": 88, "duration": 309}, {"note": 69, "velocity": 88, "duration": 85}, {"note": 71, "velocity": 79, "duration": 334}, {"note": 72, "velocity": 75, "duration": 97}, {"note": 71, "velocity": 78, "duration": 792}, {"note": 67, "velocity": 82, "duration": 69}, {"note": 69, "velocity": 86, "duration": 83}, {"note": 71, "velocity": 82, "duration": 58}, {"note": 0, "velocity": 0, "duration": 62}, {"note": 71, "velocity": 84, "duration": 54}, {"note": 0, "velocity": 0, "duration": 66}, {"note": 71, "velocity": 86, "duration": 64}, {"note": 71, "velocity": 86, "duration": 70}, {"note": 71, "velocity": 87, "duration": 306}, {"note": 71, "velocity": 87, "duration": 181}, {"note": 71, "velocity": 87, "duration": 70}, {"note": 71, "velocity": 86, "duration": 81}, {"note": 71, "velocity": 86, "duration": 75}, {"note": 71, "velocity": 86, "duration": 171}, {"note": 0, "velocity": 0, "duration": 189}, {"note": 71, "velocity": 85, "duration": 193}, {"note": 71, "velocity": 84, "duration": 70}, {"note": 71, "velocity": 84, "duration": 70}, {"note": 71, "velocity": 86, "duration": 63}, {"note": 71, "velocity": 88, "duration": 285}, {"note": 0, "velocity": 0, "duration": 75}, {"note": 71, "velocity": 87, "duration": 192}, {"note": 74, "velocity": 87, "duration": 63}, {"note": 74, "velocity": 87, "duration": 103}, {"note": 71, "velocity": 89, "duration": 95}, {"note": 76, "velocity": 86, "duration": 159}, {"note": 0, "velocity": 0, "duration": 81}, {"note": 74, "velocity": 89, "duration": 179}, {"note": 0, "velocity": 0, "duration": 61}, {"note": 72, "velocity": 83, "duration": 115}, {"note": 0, "velocity": 0, "duration": 125}, {"note": 71, "velocity": 87, "duration": 90}, {"note": 72, "velocity": 86, "duration": 99}, {"note": 0, "velocity": 0, "duration": 141}, {"note": 71, "velocity": 87, "duration": 69}, {"note": 72, "velocity": 87, "duration": 103}, {"note": 0, "velocity": 0, "duration": 137}, {"note": 71, "velocity": 87, "duration": 66}, {"note": 72, "velocity": 85, "duration": 128}, {"note": 0, "velocity": 0, "duration": 112}, {"note": 72, "velocity": 86, "duration": 70}, {"note": 72, "velocity": 86, "duration": 166}, {"note": 0, "velocity": 0, "duration": 74}, {"note": 71, "velocity": 89, "duration": 177}, {"note": 0, "velocity": 0, "duration": 63}, {"note": 74, "velocity": 87, "duration": 1011}, {"note": 0, "velocity": 0, "duration": 909}, {"note": 79, "velocity": 82, "duration": 178}, {"note": 0, "velocity": 0, "duration": 62}, {"note": 78, "velocity": 86, "duration": 120}, {"note": 76, "velocity": 87, "duration": 134}, {"note": 0, "velocity": 0, "duration": 106}, {"note": 71, "velocity": 89, "duration": 298}, {"note": 0, "velocity": 0, "duration": 62}, {"note": 74, "velocity": 88, "duration": 167}, {"note": 0, "velocity": 0, "duration": 73}, {"note": 76, "velocity": 81, "duration": 91}, {"note": 72, "velocity": 79, "duration": 451}, {"note": 71, "velocity": 84, "duration": 109}, {"note": 69, "velocity": 84, "duration": 186}, {"note": 71, "velocity": 82, "duration": 129}, {"note": 72, "velocity": 84, "duration": 169}, {"note": 0, "velocity": 0, "duration": 71}, {"note": 74, "velocity": 89, "duration": 327}, {"note": 71, "velocity": 84, "duration": 456}, {"note": 69, "velocity": 86, "duration": 371}, {"note": 0, "velocity": 0, "duration": 109}, {"note": 67, "velocity": 84, "duration": 166}, {"note": 0, "velocity": 0, "duration": 74}, {"note": 66, "velocity": 88, "duration": 89}, {"note": 67, "velocity": 82, "duration": 187}, {"note": 74, "velocity": 87, "duration": 263}, {"note": 0, "velocity": 0, "duration": 97}, {"note": 66, "velocity": 86, "duration": 189}, {"note": 64, "velocity": 86, "duration": 88}, {"note": 66, "velocity": 84, "duration": 282}, {"note": 74, "velocity": 88, "duration": 309}, {"note": 76, "velocity": 81, "duration": 208}, {"note": 74, "velocity": 88, "duration": 103}, {"note": 72, "velocity": 82, "duration": 440}, {"note": 0, "velocity": 0, "duration": 160}, {"note": 75, "velocity": 82, "duration": 216}, {"note": 76, "velocity": 87, "duration": 92}, {"note": 78, "velocity": 86, "duration": 208}, {"note": 71, "velocity": 91, "duration": 292}, {"note": 0, "velocity": 0, "duration": 68}, {"note": 79, "velocity": 86, "duration": 195}, {"note": 78, "velocity": 90, "duration": 97}, {"note": 76, "velocity": 86, "duration": 240}, {"note": 71, "velocity": 87, "duration": 248}, {"note": 0, "velocity": 0, "duration": 112}, {"note": 74, "velocity": 89, "duration": 190}, {"note": 76, "velocity": 82, "duration": 87}, {"note": 72, "velocity": 82, "duration": 375}, {"note": 0, "velocity": 0, "duration": 105}, {"note": 71, "velocity": 81, "duration": 116}, {"note": 69, "velocity": 84, "duration": 184}, {"note": 71, "velocity": 83, "duration": 87}, {"note": 72, "velocity": 82, "duration": 154}, {"note": 0, "velocity": 0, "duration": 86}, {"note": 74, "velocity": 88, "duration": 315}, {"note": 71, "velocity": 87, "duration": 224}, {"note": 76, "velocity": 85, "duration": 94}, {"note": 74, "velocity": 88, "duration": 240}, {"note": 69, "velocity": 81, "duration": 102}, {"note": 67, "velocity": 72, "duration": 131}, {"note": 0, "velocity": 0, "duration": 109}, {"note": 67, "velocity": 82, "duration": 165}, {"note": 0, "velocity": 0, "duration": 75}, {"note": 66, "velocity": 81, "duration": 112}, {"note": 67, "velocity": 82, "duration": 192}, {"note": 79, "velocity": 86, "duration": 283}, {"note": 0, "velocity": 0, "duration": 77}, {"note": 78, "velocity": 88, "duration": 208}, {"note": 76, "velocity": 84, "duration": 91}, {"note": 74, "velocity": 90, "duration": 199}, {"note": 67, "velocity": 80, "duration": 347}, {"note": 76, "velocity": 87, "duration": 723}, {"note": 0, "velocity": 0, "duration": 237}, {"note": 75, "velocity": 87, "duration": 199}, {"note": 76, "velocity": 88, "duration": 112}, {"note": 78, "velocity": 86, "duration": 153}, {"note": 0, "velocity": 0, "duration": 87}, {"note": 79, "velocity": 87, "duration": 328}, {"note": 76, "velocity": 84, "duration": 1370}, {"note": 0, "velocity": 0, "duration": 6310}, {"note": 78, "velocity": 95, "duration": 617}, {"note": 0, "velocity": 0, "duration": 103}, {"note": 78, "velocity": 93, "duration": 94}, {"note": 78, "velocity": 97, "duration": 225}, {"note": 0, "velocity": 0, "duration": 142}, {"note": 76, "velocity": 87, "duration": 558}, {"note": 0, "velocity": 0, "duration": 162}, {"note": 74, "velocity": 93, "duration": 527}, {"note": 0, "velocity": 0, "duration": 193}, {"note": 74, "velocity": 87, "duration": 135}, {"note": 0, "velocity": 0, "duration": 105}, {"note": 74, "velocity": 92, "duration": 251}, {"note": 71, "velocity": 86, "duration": 639}, {"note": 0, "velocity": 0, "duration": 81}, {"note": 78, "velocity": 59, "duration": 633}, {"note": 0, "velocity": 0, "duration": 87}, {"note": 78, "velocity": 90, "duration": 84}, {"note": 78, "velocity": 97, "duration": 308}, {"note": 0, "velocity": 0, "duration": 63}, {"note": 76, "velocity": 84, "duration": 150}, {"note": 0, "velocity": 0, "duration": 90}, {"note": 76, "velocity": 86, "duration": 231}, {"note": 74, "velocity": 86, "duration": 73}, {"note": 74, "velocity": 88, "duration": 309}, {"note": 69, "velocity": 88, "duration": 85}, {"note": 71, "velocity": 79, "duration": 334}, {"note": 72, "velocity": 75, "duration": 97}, {"note": 71, "velocity": 78, "duration": 792}, {"note": 67, "velocity": 82, "duration": 69}, {"note": 69, "velocity": 86, "duration": 83}, {"note": 71, "velocity": 82, "duration": 58}, {"note": 0, "velocity": 0, "duration": 62}, {"note": 71, "velocity": 84, "duration": 54}, {"note": 0, "velocity": 0, "duration": 66}, {"note": 71, "velocity": 86, "duration": 64}, {"note": 71, "velocity": 86, "duration": 70}, {"note": 71, "velocity": 87, "duration": 306}, {"note": 71, "velocity": 87, "duration": 181}, {"note": 71, "velocity": 87, "duration": 70}, {"note": 71, "velocity": 86, "duration": 81}, {"note": 71, "velocity": 86, "duration": 75}, {"note": 71, "velocity": 86, "duration": 171}, {"note": 0, "velocity": 0, "duration": 189}, {"note": 71, "velocity": 85, "duration": 193}, {"note": 71, "velocity": 84, "duration": 70}, {"note": 71, "velocity": 84, "duration": 70}, {"note": 71, "velocity": 86, "duration": 63}, {"note": 71, "velocity": 88, "duration": 285}, {"note": 0, "velocity": 0, "duration": 75}, {"note": 71, "velocity": 87, "duration": 192}, {"note": 74, "velocity": 87, "duration": 63}, {"note": 74, "velocity": 87, "duration": 103}, {"note": 71, "velocity": 89, "duration": 95}, {"note": 76, "velocity": 86, "duration": 159}, {"note": 0, "velocity": 0, "duration": 81}, {"note": 74, "velocity": 89, "duration": 179}, {"note": 0, "velocity": 0, "duration": 61}, {"note": 72, "velocity": 83, "duration": 115}, {"note": 0, "velocity": 0, "duration": 125}, {"note": 71, "velocity": 87, "duration": 90}, {"note": 72, "velocity": 86, "duration": 99}, {"note": 0, "velocity": 0, "duration": 141}, {"note": 71, "velocity": 87, "duration": 69}, {"note": 72, "velocity": 87, "duration": 103}, {"note": 0, "velocity": 0, "duration": 137}, {"note": 71, "velocity": 87, "duration": 66}, {"note": 72, "velocity": 85, "duration": 128}, {"note": 0, "velocity": 0, "duration": 112}, {"note": 72, "velocity": 86, "duration": 70}, {"note": 72, "velocity": 86, "duration": 166}, {"note": 0, "velocity": 0, "duration": 74}, {"note": 71, "velocity": 89, "duration": 177}, {"note": 0, "velocity": 0, "duration": 63}, {"note": 74, "velocity": 87, "duration": 1011}, {"note": 0, "velocity": 0, "duration": 909}, {"note": 79, "velocity": 82, "duration": 178}, {"note": 0, "velocity": 0, "duration": 62}, {"note": 78, "velocity": 86, "duration": 120}, {"note": 76, "velocity": 87, "duration": 134}, {"note": 0, "velocity": 0, "duration": 106}, {"note": 71, "velocity": 89, "duration": 298}, {"note": 0, "velocity": 0, "duration": 62}, {"note": 74, "velocity": 88, "duration": 167}, {"note": 0, "velocity": 0, "duration": 73}, {"note": 76, "velocity": 81, "duration": 91}, {"note": 72, "velocity": 79, "duration": 451}, {"note": 71, "velocity": 84, "duration": 109}, {"note": 69, "velocity": 84, "duration": 186}, {"note": 71, "velocity": 82, "duration": 129}, {"note": 72, "velocity": 84, "duration": 169}, {"note": 0, "velocity": 0, "duration": 71}, {"note": 74, "velocity": 89, "duration": 327}, {"note": 71, "velocity": 84, "duration": 456}, {"note": 69, "velocity": 86, "duration": 371}, {"note": 0, "velocity": 0, "duration": 109}, {"note": 67, "velocity": 84, "duration": 166}, {"note": 0, "velocity": 0, "duration": 74}, {"note": 66, "velocity": 88, "duration": 89}, {"note": 67, "velocity": 82, "duration": 187}, {"note": 74, "velocity": 87, "duration": 263}, {"note": 0, "velocity": 0, "duration": 97}, {"note": 66, "velocity": 86, "duration": 189}, {"note": 64, "velocity": 86, "duration": 88}, {"note": 66, "velocity": 84, "duration": 282}, {"note": 74, "velocity": 88, "duration": 309}, {"note": 76, "velocity": 81, "duration": 208}, {"note": 74, "velocity": 88, "duration": 103}, {"note": 72, "velocity": 82, "duration": 440}, {"note": 0, "velocity": 0, "duration": 160}, {"note": 75, "velocity": 82, "duration": 216}, {"note": 76, "velocity": 87, "duration": 92}, {"note": 78, "velocity": 86, "duration": 208}, {"note": 71, "velocity": 91, "duration": 292}, {"note": 0, "velocity": 0, "duration": 68}, {"note": 79, "velocity": 86, "duration": 195}, {"note": 78, "velocity": 90, "duration": 97}, {"note": 76, "velocity": 86, "duration": 240}, {"note": 71, "velocity": 87, "duration": 248}, {"note": 0, "velocity": 0, "duration": 112}, {"note": 74, "velocity": 89, "duration": 190}, {"note": 76, "velocity": 82, "duration": 87}, {"note": 72, "velocity": 82, "duration": 375}, {"note": 0, "velocity": 0, "duration": 105}, {"note": 71, "velocity": 81, "duration": 116}, {"note": 69, "velocity": 84, "duration": 184}, {"note": 71, "velocity": 83, "duration": 87}, {"note": 72, "velocity": 82, "duration": 154}, {"note": 0, "velocity": 0, "duration": 86}, {"note": 74, "velocity": 88, "duration": 315}, {"note": 71, "velocity": 87, "duration": 224}, {"note": 76, "velocity": 85, "duration": 94}, {"note": 74, "velocity": 88, "duration": 240}, {"note": 69, "velocity": 81, "duration": 102}, {"note": 67, "velocity": 72, "duration": 131}, {"note": 0, "velocity": 0, "duration": 109}, {"note": 67, "velocity": 82, "duration": 165}, {"note": 0, "velocity": 0, "duration": 75}, {"note": 66, "velocity": 81, "duration": 112}, {"note": 67, "velocity": 82, "duration": 192}, {"note": 79, "velocity": 86, "duration": 283}, {"note": 0, "velocity": 0, "duration": 77}, {"note": 78, "velocity": 88, "duration": 208}, {"note": 76, "velocity": 84, "duration": 91}, {"note": 74, "velocity": 90, "duration": 199}, {"note": 67, "velocity": 80, "duration": 347}, {"note": 76, "velocity": 87, "duration": 723}, {"note": 0, "velocity": 0, "duration": 237}, {"note": 75, "velocity": 87, "duration": 199}, {"note": 76, "velocity": 88, "duration": 112}, {"note": 78, "velocity": 86, "duration": 153}, {"note": 0, "velocity": 0, "duration": 87}, {"note": 79, "velocity": 87, "duration": 328}, {"note": 76, "velocity": 84, "duration": 1370}, {"note": 0, "velocity": 0, "duration": 6070}, {"note": 67, "velocity": 82, "duration": 69}, {"note": 69, "velocity": 86, "duration": 83}, {"note": 71, "velocity": 82, "duration": 58}, {"note": 0, "velocity": 0, "duration": 62}, {"note": 71, "velocity": 84, "duration": 54}, {"note": 0, "velocity": 0, "duration": 66}, {"note": 71, "velocity": 86, "duration": 64}, {"note": 71, "velocity": 86, "duration": 70}, {"note": 71, "velocity": 87, "duration": 306}, {"note": 71, "velocity": 87, "duration": 181}, {"note": 71, "velocity": 87, "duration": 70}, {"note": 71, "velocity": 86, "duration": 81}, {"note": 71, "velocity": 86, "duration": 75}, {"note": 71, "velocity": 86, "duration": 171}, {"note": 0, "velocity": 0, "duration": 189}, {"note": 71, "velocity": 85, "duration": 193}, {"note": 71, "velocity": 84, "duration": 70}, {"note": 71, "velocity": 84, "duration": 70}, {"note": 71, "velocity": 86, "duration": 63}, {"note": 71, "velocity": 88, "duration": 285}, {"note": 0, "velocity": 0, "duration": 75}, {"note": 71, "velocity": 87, "duration": 192}, {"note": 74, "velocity": 87, "duration": 63}, {"note": 74, "velocity": 87, "duration": 103}, {"note": 71, "velocity": 89, "duration": 95}, {"note": 76, "velocity": 86, "duration": 159}, {"note": 0, "velocity": 0, "duration": 81}, {"note": 74, "velocity": 89, "duration": 179}, {"note": 0, "velocity": 0, "duration": 61}, {"note": 72, "velocity": 83, "duration": 115}, {"note": 0, "velocity": 0, "duration": 125}, {"note": 71, "velocity": 87, "duration": 90}, {"note": 72, "velocity": 86, "duration": 99}, {"note": 0, "velocity": 0, "duration": 141}, {"note": 71, "velocity": 87, "duration": 69}, {"note": 72, "velocity": 87, "duration": 103}, {"note": 0, "velocity": 0, "duration": 137}, {"note": 71, "velocity": 87, "duration": 66}, {"note": 72, "velocity": 85, "duration": 128}, {"note": 0, "velocity": 0, "duration": 112}, {"note": 72, "velocity": 86, "duration": 70}, {"note": 72, "velocity": 86, "duration": 166}, {"note": 0, "velocity": 0, "duration": 74}, {"note": 71, "velocity": 89, "duration": 177}, {"note": 0, "velocity": 0, "duration": 63}, {"note": 74, "velocity": 87, "duration": 1011}, {"note": 0, "velocity": 0, "duration": 909}, {"note": 79, "velocity": 82, "duration": 178}, {"note": 0, "velocity": 0, "duration": 62}, {"note": 78, "velocity": 86, "duration": 120}, {"note": 76, "velocity": 87, "duration": 134}, {"note": 0, "velocity": 0, "duration": 106}, {"note": 71, "velocity": 89, "duration": 298}, {"note": 0, "velocity": 0, "duration": 62}, {"note": 74, "velocity": 88, "duration": 167}, {"note": 0, "velocity": 0, "duration": 73}, {"note": 76, "velocity": 81, "duration": 91}, {"note": 72, "velocity": 79, "duration": 451}, {"note": 71, "velocity": 84, "duration": 109}, {"note": 69, "velocity": 84, "duration": 186}, {"note": 71, "velocity": 82, "duration": 129}, {"note": 72, "velocity": 84, "duration": 169}, {"note": 0, "velocity": 0, "duration": 71}, {"note": 74, "velocity": 89, "duration": 327}, {"note": 71, "velocity": 84, "duration": 456}, {"note": 69, "velocity": 86, "duration": 371}, {"note": 0, "velocity": 0, "duration": 109}, {"note": 67, "velocity": 84, "duration": 166}, {"note": 0, "velocity": 0, "duration": 74}, {"note": 66, "velocity": 88, "duration": 89}, {"note": 67, "velocity": 82, "duration": 187}, {"note": 74, "velocity": 87, "duration": 263}, {"note": 0, "velocity": 0, "duration": 97}, {"note": 66, "velocity": 86, "duration": 189}, {"note": 64, "velocity": 86, "duration": 88}, {"note": 66, "velocity": 84, "duration": 282}, {"note": 74, "velocity": 88, "duration": 309}, {"note": 76, "velocity": 81, "duration": 208}, {"note": 74, "velocity": 88, "duration": 103}, {"note": 72, "velocity": 82, "duration": 440}, {"note": 0, "velocity": 0, "duration": 160}, {"note": 75, "velocity": 82, "duration": 216}, {"note": 76, "velocity": 87, "duration": 92}, {"note": 78, "velocity": 86, "duration": 208}, {"note": 71, "velocity": 91, "duration": 292}, {"note": 0, "velocity": 0, "duration": 68}, {"note": 79, "velocity": 86, "duration": 195}, {"note": 78, "velocity": 90, "duration": 97}, {"note": 76, "velocity": 86, "duration": 240}, {"note": 71, "velocity": 87, "duration": 248}, {"note": 0, "velocity": 0, "duration": 112}, {"note": 74, "velocity": 89, "duration": 190}, {"note": 76, "velocity": 82, "duration": 87}, {"note": 72, "velocity": 82, "duration": 375}, {"note": 0, "velocity": 0, "duration": 105}, {"note": 71, "velocity": 81, "duration": 116}, {"note": 69, "velocity": 84, "duration": 184}, {"note": 71, "velocity": 83, "duration": 87}, {"note": 72, "velocity": 82, "duration": 154}, {"note": 0, "velocity": 0, "duration": 86}, {"note": 74, "velocity": 88, "duration": 315}, {"note": 71, "velocity": 87, "duration": 224}, {"note": 76, "velocity": 85, "duration": 94}, {"note": 74, "velocity": 88, "duration": 240}, {"note": 69, "velocity": 81, "duration": 102}, {"note": 67, "velocity": 72, "duration": 131}, {"note": 0, "velocity": 0, "duration": 109}, {"note": 67, "velocity": 82, "duration": 165}, {"note": 0, "velocity": 0, "duration": 75}, {"note": 66, "velocity": 81, "duration": 112}, {"note": 67, "velocity": 82, "duration": 192}, {"note": 79, "velocity": 86, "duration": 283}, {"note": 0, "velocity": 0, "duration": 77}, {"note": 78, "velocity": 88, "duration": 208}, {"note": 76, "velocity": 84, "duration": 91}, {"note": 74, "velocity": 90, "duration": 199}, {"note": 67, "velocity": 80, "duration": 347}, {"note": 76, "velocity": 87, "duration": 723}, {"note": 0, "velocity": 0, "duration": 237}, {"note": 75, "velocity": 87, "duration": 199}, {"note": 76, "velocity": 88, "duration": 112}, {"note": 78, "velocity": 86, "duration": 153}, {"note": 0, "velocity": 0, "duration": 87}, {"note": 79, "velocity": 87, "duration": 328}, {"note": 76, "velocity": 84, "duration": 1370}, {"note": 0, "velocity": 0, "duration": 310}, {"note": 76, "velocity": 92, "duration": 151}, {"note": 74, "velocity": 92, "duration": 1010}, {"note": 0, "velocity": 0, "duration": 70}, {"note": 71, "velocity": 92, "duration": 722}, {"note": 0, "velocity": 0, "duration": 238}, {"note": 76, "velocity": 92, "duration": 1517}, {"note": 0, "velocity": 0, "duration": 163}, {"note": 76, "velocity": 92, "duration": 158}, {"note": 74, "velocity": 92, "duration": 1019}, {"note": 0, "velocity": 0, "duration": 61}, {"note": 75, "velocity": 92, "duration": 1004}]]