[[{"note": 69, "velocity": 95, "duration": 91}, {"note": 69, "velocity": 96, "duration": 72}, {"note": 69, "velocity": 96, "duration": 74}, {"note": 69, "velocity": 95, "duration": 72}, {"note": 69, "velocity": 96, "duration": 196}, {"note": 66, "velocity": 95, "duration": 195}, {"note": 73, "velocity": 91, "duration": 496}, {"note": 0, "velocity": 0, "duration": 464}, {"note": 76, "velocity": 96, "duration": 59}, {"note": 0, "velocity": 0, "duration": 61}, {"note": 76, "velocity": 96, "duration": 71}, {"note": 76, "velocity": 95, "duration": 81}, {"note": 76, "velocity": 95, "duration": 94}, {"note": 78, "velocity": 97, "duration": 170}, {"note": 0, "velocity": 0, "duration": 70}, {"note": 76, "velocity": 96, "duration": 177}, {"note": 0, "velocity": 0, "duration": 63}, {"note": 73, "velocity": 90, "duration": 600}, {"note": 0, "velocity": 0, "duration": 120}, {"note": 73, "velocity": 99, "duration": 78}, {"note": 76, "velocity": 102, "duration": 63}, {"note": 71, "velocity": 96, "duration": 153}, {"note": 0, "velocity": 0, "duration": 87}, {"note": 71, "velocity": 96, "duration": 68}, {"note": 71, "velocity": 97, "duration": 230}, {"note": 0, "velocity": 0, "duration": 130}, {"note": 69, "velocity": 91, "duration": 101}, {"note": 66, "velocity": 93, "duration": 92}, {"note": 71, "velocity": 95, "duration": 152}, {"note": 0, "velocity": 0, "duration": 88}, {"note": 73, "velocity": 90, "duration": 94}, {"note": 71, "velocity": 95, "duration": 253}, {"note": 0, "velocity": 0, "duration": 107}, {"note": 69, "velocity": 96, "duration": 79}, {"note": 71, "velocity": 96, "duration": 74}, {"note": 73, "velocity": 96, "duration": 158}, {"note": 0, "velocity": 0, "duration": 82}, {"note": 73, "velocity": 99, "duration": 164}, {"note": 0, "velocity": 0, "duration": 76}, {"note": 76, "velocity": 102, "duration": 158}, {"note": 0, "velocity": 0, "duration": 82}, {"note": 73, "velocity": 96, "duration": 96}, {"note": 71, "velocity": 96, "duration": 197}, {"note": 73, "velocity": 98, "duration": 668}, {"note": 0, "velocity": 0, "duration": 412}, {"note": 78, "velocity": 93, "duration": 84}, {"note": 78, "velocity": 95, "duration": 76}, {"note": 78, "velocity": 98, "duration": 158}, {"note": 0, "velocity": 0, "duration": 82}, {"note": 78, "velocity": 101, "duration": 68}, {"note": 76, "velocity": 98, "duration": 73}, {"note": 78, "velocity": 99, "duration": 180}, {"note": 81, "velocity": 97, "duration": 457}, {"note": 0, "velocity": 0, "duration": 263}, {"note": 76, "velocity": 97, "duration": 188}, {"note": 73, "velocity": 96, "duration": 170}, {"note": 0, "velocity": 0, "duration": 70}, {"note": 76, "velocity": 96, "duration": 64}, {"note": 78, "velocity": 94, "duration": 297}, {"note": 0, "velocity": 0, "duration": 63}, {"note": 76, "velocity": 97, "duration": 566}, {"note": 0, "velocity": 0, "duration": 154}, {"note": 73, "velocity": 90, "duration": 117}, {"note": 71, "velocity": 93, "duration": 99}, {"note": 69, "velocity": 96, "duration": 158}, {"note": 0, "velocity": 0, "duration": 82}, {"note": 66, "velocity": 95, "duration": 86}, {"note": 66, "velocity": 97, "duration": 262}, {"note": 0, "velocity": 0, "duration": 218}, {"note": 73, "velocity": 93, "duration": 94}, {"note": 71, "velocity": 94, "duration": 167}, {"note": 0, "velocity": 0, "duration": 73}, {"note": 64, "velocity": 97, "duration": 69}, {"note": 64, "velocity": 98, "duration": 376}, {"note": 0, "velocity": 0, "duration": 224}, {"note": 69, "velocity": 91, "duration": 66}, {"note": 69, "velocity": 91, "duration": 76}, {"note": 69, "velocity": 97, "duration": 66}, {"note": 69, "velocity": 95, "duration": 74}, {"note": 69, "velocity": 96, "duration": 88}, {"note": 71, "velocity": 94, "duration": 310}, {"note": 68, "velocity": 96, "duration": 891}, {"note": 0, "velocity": 0, "duration": 69}, {"note": 69, "velocity": 95, "duration": 91}, {"note": 69, "velocity": 96, "duration": 72}, {"note": 69, "velocity": 96, "duration": 74}, {"note": 69, "velocity": 95, "duration": 72}, {"note": 69, "velocity": 96, "duration": 196}, {"note": 66, "velocity": 95, "duration": 195}, {"note": 73, "velocity": 91, "duration": 496}, {"note": 0, "velocity": 0, "duration": 464}, {"note": 76, "velocity": 96, "duration": 59}, {"note": 0, "velocity": 0, "duration": 61}, {"note": 76, "velocity": 96, "duration": 71}, {"note": 76, "velocity": 95, "duration": 81}, {"note": 76, "velocity": 95, "duration": 94}, {"note": 78, "velocity": 97, "duration": 170}, {"note": 0, "velocity": 0, "duration": 70}, {"note": 76, "velocity": 96, "duration": 177}, {"note": 0, "velocity": 0, "duration": 63}, {"note": 73, "velocity": 90, "duration": 600}, {"note": 0, "velocity": 0, "duration": 120}, {"note": 73, "velocity": 99, "duration": 78}, {"note": 76, "velocity": 102, "duration": 63}, {"note": 71, "velocity": 96, "duration": 153}, {"note": 0, "velocity": 0, "duration": 87}, {"note": 71, "velocity": 96, "duration": 68}, {"note": 71, "velocity": 97, "duration": 230}, {"note": 0, "velocity": 0, "duration": 130}, {"note": 69, "velocity": 91, "duration": 101}, {"note": 66, "velocity": 93, "duration": 92}, {"note": 71, "velocity": 95, "duration": 152}, {"note": 0, "velocity": 0, "duration": 88}, {"note": 73, "velocity": 90, "duration": 94}, {"note": 71, "velocity": 95, "duration": 253}, {"note": 0, "velocity": 0, "duration": 107}, {"note": 69, "velocity": 96, "duration": 79}, {"note": 71, "velocity": 96, "duration": 74}, {"note": 73, "velocity": 96, "duration": 158}, {"note": 0, "velocity": 0, "duration": 82}, {"note": 73, "velocity": 99, "duration": 164}, {"note": 0, "velocity": 0, "duration": 76}, {"note": 76, "velocity": 102, "duration": 158}, {"note": 0, "velocity": 0, "duration": 82}, {"note": 73, "velocity": 96, "duration": 96}, {"note": 71, "velocity": 96, "duration": 197}, {"note": 73, "velocity": 98, "duration": 668}, {"note": 0, "velocity": 0, "duration": 412}, {"note": 78, "velocity": 93, "duration": 84}, {"note": 78, "velocity": 95, "duration": 76}, {"note": 78, "velocity": 98, "duration": 158}, {"note": 0, "velocity": 0, "duration": 82}, {"note": 78, "velocity": 101, "duration": 68}, {"note": 76, "velocity": 98, "duration": 73}, {"note": 78, "velocity": 99, "duration": 180}, {"note": 81, "velocity": 97, "duration": 457}, {"note": 0, "velocity": 0, "duration": 263}, {"note": 76, "velocity": 97, "duration": 188}, {"note": 73, "velocity": 96, "duration": 170}, {"note": 0, "velocity": 0, "duration": 70}, {"note": 76, "velocity": 96, "duration": 64}, {"note": 78, "velocity": 94, "duration": 297}, {"note": 0, "velocity": 0, "duration": 63}, {"note": 76, "velocity": 97, "duration": 566}, {"note": 0, "velocity": 0, "duration": 154}, {"note": 73, "velocity": 95, "duration": 83}, {"note": 76, "velocity": 101, "duration": 54}, {"note": 0, "velocity": 0, "duration": 66}, {"note": 78, "velocity": 95, "duration": 178}, {"note": 0, "velocity": 0, "duration": 62}, {"note": 76, "velocity": 97, "duration": 69}, {"note": 78, "velocity": 95, "duration": 374}, {"note": 0, "velocity": 0, "duration": 106}, {"note": 78, "velocity": 93, "duration": 81}, {"note": 80, "velocity": 99, "duration": 176}, {"note": 0, "velocity": 0, "duration": 64}, {"note": 73, "velocity": 96, "duration": 76}, {"note": 73, "velocity": 95, "duration": 195}, {"note": 80, "velocity": 91, "duration": 314}, {"note": 81, "velocity": 95, "duration": 203}, {"note": 78, "velocity": 97, "duration": 60}, {"note": 78, "velocity": 99, "duration": 361}, {"note": 81, "velocity": 96, "duration": 245}, {"note": 80, "velocity": 106, "duration": 457}, {"note": 81, "velocity": 97, "duration": 186}, {"note": 80, "velocity": 106, "duration": 177}, {"note": 0, "velocity": 0, "duration": 63}, {"note": 78, "velocity": 96, "duration": 427}, {"note": 73, "velocity": 96, "duration": 370}, {"note": 0, "velocity": 0, "duration": 110}, {"note": 76, "velocity": 97, "duration": 183}, {"note": 78, "velocity": 96, "duration": 81}, {"note": 78, "velocity": 92, "duration": 431}, {"note": 0, "velocity": 0, "duration": 169}, {"note": 76, "velocity": 104, "duration": 173}, {"note": 0, "velocity": 0, "duration": 67}, {"note": 76, "velocity": 101, "duration": 210}, {"note": 71, "velocity": 98, "duration": 86}, {"note": 76, "velocity": 98, "duration": 295}, {"note": 0, "velocity": 0, "duration": 65}, {"note": 73, "velocity": 95, "duration": 691}, {"note": 73, "velocity": 104, "duration": 89}, {"note": 71, "velocity": 97, "duration": 71}, {"note": 69, "velocity": 100, "duration": 96}, {"note": 66, "velocity": 86, "duration": 81}, {"note": 66, "velocity": 95, "duration": 76}, {"note": 66, "velocity": 97, "duration": 254}, {"note": 0, "velocity": 0, "duration": 226}, {"note": 78, "velocity": 97, "duration": 87}, {"note": 78, "velocity": 92, "duration": 186}, {"note": 76, "velocity": 97, "duration": 92}, {"note": 78, "velocity": 99, "duration": 434}, {"note": 0, "velocity": 0, "duration": 154}, {"note": 78, "velocity": 101, "duration": 165}, {"note": 0, "velocity": 0, "duration": 69}, {"note": 78, "velocity": 99, "duration": 150}, {"note": 0, "velocity": 0, "duration": 83}, {"note": 78, "velocity": 97, "duration": 128}, {"note": 76, "velocity": 97, "duration": 97}, {"note": 0, "velocity": 0, "duration": 64}, {"note": 73, "velocity": 96, "duration": 104}, {"note": 71, "velocity": 102, "duration": 346}, {"note": 0, "velocity": 0, "duration": 152}, {"note": 81, "velocity": 97, "duration": 186}, {"note": 80, "velocity": 106, "duration": 177}, {"note": 0, "velocity": 0, "duration": 63}, {"note": 78, "velocity": 96, "duration": 427}, {"note": 73, "velocity": 96, "duration": 370}, {"note": 0, "velocity": 0, "duration": 110}, {"note": 76, "velocity": 97, "duration": 183}, {"note": 78, "velocity": 96, "duration": 81}, {"note": 78, "velocity": 92, "duration": 431}, {"note": 0, "velocity": 0, "duration": 169}, {"note": 76, "velocity": 104, "duration": 173}, {"note": 0, "velocity": 0, "duration": 67}, {"note": 76, "velocity": 101, "duration": 210}, {"note": 71, "velocity": 98, "duration": 86}, {"note": 76, "velocity": 98, "duration": 295}, {"note": 0, "velocity": 0, "duration": 65}, {"note": 73, "velocity": 95, "duration": 691}, {"note": 73, "velocity": 104, "duration": 89}, {"note": 71, "velocity": 97, "duration": 71}, {"note": 69, "velocity": 100, "duration": 96}, {"note": 66, "velocity": 86, "duration": 81}, {"note": 66, "velocity": 95, "duration": 76}, {"note": 66, "velocity": 97, "duration": 254}, {"note": 0, "velocity": 0, "duration": 226}, {"note": 78, "velocity": 97, "duration": 87}, {"note": 78, "velocity": 92, "duration": 186}, {"note": 76, "velocity": 97, "duration": 92}, {"note": 78, "velocity": 99, "duration": 434}, {"note": 0, "velocity": 0, "duration": 166}, {"note": 80, "velocity": 98, "duration": 74}, {"note": 80, "velocity": 95, "duration": 60}, {"note": 80, "velocity": 95, "duration": 58}, {"note": 0, "velocity": 0, "duration": 62}, {"note": 80, "velocity": 97, "duration": 63}, {"note": 80, "velocity": 96, "duration": 89}, {"note": 81, "velocity": 93, "duration": 79}, {"note": 80, "velocity": 97, "duration": 66}, {"note": 80, "velocity": 98, "duration": 228}, {"note": 78, "velocity": 93, "duration": 1285}, {"note": 0, "velocity": 0, "duration": 7235}, {"note": 69, "velocity": 95, "duration": 91}, {"note": 69, "velocity": 96, "duration": 72}, {"note": 69, "velocity": 96, "duration": 74}, {"note": 69, "velocity": 95, "duration": 72}, {"note": 69, "velocity": 96, "duration": 196}, {"note": 66, "velocity": 95, "duration": 195}, {"note": 73, "velocity": 91, "duration": 496}, {"note": 0, "velocity": 0, "duration": 464}, {"note": 76, "velocity": 96, "duration": 59}, {"note": 0, "velocity": 0, "duration": 61}, {"note": 76, "velocity": 96, "duration": 71}, {"note": 76, "velocity": 95, "duration": 81}, {"note": 76, "velocity": 95, "duration": 94}, {"note": 78, "velocity": 97, "duration": 170}, {"note": 0, "velocity": 0, "duration": 70}, {"note": 76, "velocity": 96, "duration": 177}, {"note": 0, "velocity": 0, "duration": 63}, {"note": 73, "velocity": 90, "duration": 600}, {"note": 0, "velocity": 0, "duration": 120}, {"note": 73, "velocity": 99, "duration": 78}, {"note": 76, "velocity": 102, "duration": 63}, {"note": 71, "velocity": 96, "duration": 153}, {"note": 0, "velocity": 0, "duration": 87}, {"note": 71, "velocity": 96, "duration": 68}, {"note": 71, "velocity": 97, "duration": 230}, {"note": 0, "velocity": 0, "duration": 130}, {"note": 69, "velocity": 91, "duration": 101}, {"note": 66, "velocity": 93, "duration": 92}, {"note": 71, "velocity": 95, "duration": 152}, {"note": 0, "velocity": 0, "duration": 88}, {"note": 73, "velocity": 90, "duration": 94}, {"note": 71, "velocity": 95, "duration": 253}, {"note": 0, "velocity": 0, "duration": 107}, {"note": 69, "velocity": 96, "duration": 79}, {"note": 71, "velocity": 96, "duration": 74}, {"note": 73, "velocity": 96, "duration": 158}, {"note": 0, "velocity": 0, "duration": 82}, {"note": 73, "velocity": 99, "duration": 164}, {"note": 0, "velocity": 0, "duration": 76}, {"note": 76, "velocity": 102, "duration": 158}, {"note": 0, "velocity": 0, "duration": 82}, {"note": 73, "velocity": 96, "duration": 96}, {"note": 71, "velocity": 96, "duration": 197}, {"note": 73, "velocity": 98, "duration": 668}, {"note": 0, "velocity": 0, "duration": 412}, {"note": 78, "velocity": 93, "duration": 84}, {"note": 78, "velocity": 95, "duration": 76}, {"note": 78, "velocity": 98, "duration": 158}, {"note": 0, "velocity": 0, "duration": 82}, {"note": 78, "velocity": 101, "duration": 68}, {"note": 76, "velocity": 98, "duration": 73}, {"note": 78, "velocity": 99, "duration": 180}, {"note": 81, "velocity": 97, "duration": 457}, {"note": 0, "velocity": 0, "duration": 263}, {"note": 76, "velocity": 97, "duration": 188}, {"note": 73, "velocity": 96, "duration": 170}, {"note": 0, "velocity": 0, "duration": 70}, {"note": 76, "velocity": 96, "duration": 64}, {"note": 78, "velocity": 94, "duration": 297}, {"note": 0, "velocity": 0, "duration": 63}, {"note": 76, "velocity": 97, "duration": 566}, {"note": 0, "velocity": 0, "duration": 154}, {"note": 73, "velocity": 95, "duration": 83}, {"note": 76, "velocity": 101, "duration": 54}, {"note": 0, "velocity": 0, "duration": 66}, {"note": 78, "velocity": 95, "duration": 178}, {"note": 0, "velocity": 0, "duration": 62}, {"note": 76, "velocity": 97, "duration": 69}, {"note": 78, "velocity": 95, "duration": 374}, {"note": 0, "velocity": 0, "duration": 106}, {"note": 78, "velocity": 93, "duration": 81}, {"note": 80, "velocity": 99, "duration": 176}, {"note": 0, "velocity": 0, "duration": 64}, {"note": 73, "velocity": 96, "duration": 76}, {"note": 73, "velocity": 95, "duration": 195}, {"note": 80, "velocity": 91, "duration": 314}, {"note": 81, "velocity": 95, "duration": 203}, {"note": 78, "velocity": 97, "duration": 60}, {"note": 78, "velocity": 99, "duration": 361}, {"note": 81, "velocity": 96, "duration": 245}, {"note": 80, "velocity": 106, "duration": 457}, {"note": 81, "velocity": 97, "duration": 186}, {"note": 80, "velocity": 106, "duration": 177}, {"note": 0, "velocity": 0, "duration": 63}, {"note": 78, "velocity": 96, "duration": 427}, {"note": 73, "velocity": 96, "duration": 370}, {"note": 0, "velocity": 0, "duration": 110}, {"note": 76, "velocity": 97, "duration": 183}, {"note": 78, "velocity": 96, "duration": 81}, {"note": 78, "velocity": 92, "duration": 431}, {"note": 0, "velocity": 0, "duration": 169}, {"note": 76, "velocity": 104, "duration": 173}, {"note": 0, "velocity": 0, "duration": 67}, {"note": 76, "velocity": 101, "duration": 210}, {"note": 71, "velocity": 98, "duration": 86}, {"note": 76, "velocity": 98, "duration": 295}, {"note": 0, "velocity": 0, "duration": 65}, {"note": 73, "velocity": 95, "duration": 691}, {"note": 73, "velocity": 104, "duration": 89}, {"note": 71, "velocity": 97, "duration": 71}, {"note": 69, "velocity": 100, "duration": 96}, {"note": 66, "velocity": 86, "duration": 81}, {"note": 66, "velocity": 95, "duration": 76}, {"note": 66, "velocity": 97, "duration": 254}, {"note": 0, "velocity": 0, "duration": 226}, {"note": 78, "velocity": 97, "duration": 87}, {"note": 78, "velocity": 92, "duration": 186}, {"note": 76, "velocity": 97, "duration": 92}, {"note": 78, "velocity": 99, "duration": 434}, {"note": 0, "velocity": 0, "duration": 154}, {"note": 78, "velocity": 101, "duration": 165}, {"note": 0, "velocity": 0, "duration": 69}, {"note": 78, "velocity": 99, "duration": 150}, {"note": 0, "velocity": 0, "duration": 83}, {"note": 78, "velocity": 97, "duration": 128}, {"note": 76, "velocity": 97, "duration": 97}, {"note": 0, "velocity": 0, "duration": 64}, {"note": 73, "velocity": 96, "duration": 104}, {"note": 71, "velocity": 102, "duration": 346}, {"note": 0, "velocity": 0, "duration": 152}, {"note": 81, "velocity": 97, "duration": 186}, {"note": 80, "velocity": 106, "duration": 177}, {"note": 0, "velocity": 0, "duration": 63}, {"note": 78, "velocity": 96, "duration": 427}, {"note": 73, "velocity": 96, "duration": 370}, {"note": 0, "velocity": 0, "duration": 110}, {"note": 76, "velocity": 97, "duration": 183}, {"note": 78, "velocity": 96, "duration": 81}, {"note": 78, "velocity": 92, "duration": 431}, {"note": 0, "velocity": 0, "duration": 169}, {"note": 76, "velocity": 104, "duration": 173}, {"note": 0, "velocity": 0, "duration": 67}, {"note": 76, "velocity": 101, "duration": 210}, {"note": 71, "velocity": 98, "duration": 86}, {"note": 76, "velocity": 98, "duration": 295}, {"note": 0, "velocity": 0, "duration": 65}, {"note": 73, "velocity": 95, "duration": 691}, {"note": 73, "velocity": 104, "duration": 89}, {"note": 71, "velocity": 97, "duration": 71}, {"note": 69, "velocity": 100, "duration": 96}, {"note": 66, "velocity": 86, "duration": 81}, {"note": 66, "velocity": 95, "duration": 76}, {"note": 66, "velocity": 97, "duration": 254}, {"note": 0, "velocity": 0, "duration": 226}, {"note": 78, "velocity": 97, "duration": 87}, {"note": 78, "velocity": 92, "duration": 186}, {"note": 76, "velocity": 97, "duration": 92}, {"note": 78, "velocity": 99, "duration": 434}, {"note": 0, "velocity": 0, "duration": 166}, {"note": 80, "velocity": 98, "duration": 74}, {"note": 80, "velocity": 95, "duration": 60}, {"note": 80, "velocity": 95, "duration": 58}, {"note": 0, "velocity": 0, "duration": 62}, {"note": 80, "velocity": 97, "duration": 63}, {"note": 80, "velocity": 96, "duration": 89}, {"note": 81, "velocity": 93, "duration": 79}, {"note": 80, "velocity": 97, "duration": 66}, {"note": 80, "velocity": 98, "duration": 228}, {"note": 78, "velocity": 93, "duration": 1285}, {"note": 0, "velocity": 0, "duration": 8675}, {"note": 81, "velocity": 97, "duration": 186}, {"note": 80, "velocity": 106, "duration": 177}, {"note": 0, "velocity": 0, "duration": 63}, {"note": 78, "velocity": 96, "duration": 427}, {"note": 73, "velocity": 96, "duration": 370}, {"note": 0, "velocity": 0, "duration": 110}, {"note": 76, "velocity": 97, "duration": 183}, {"note": 78, "velocity": 96, "duration": 81}, {"note": 78, "velocity": 92, "duration": 431}, {"note": 0, "velocity": 0, "duration": 169}, {"note": 76, "velocity": 104, "duration": 173}, {"note": 0, "velocity": 0, "duration": 67}, {"note": 76, "velocity": 101, "duration": 210}, {"note": 71, "velocity": 98, "duration": 86}, {"note": 76, "velocity": 98, "duration": 295}, {"note": 0, "velocity": 0, "duration": 65}, {"note": 73, "velocity": 95, "duration": 691}, {"note": 73, "velocity": 104, "duration": 89}, {"note": 71, "velocity": 97, "duration": 71}, {"note": 69, "velocity": 100, "duration": 96}, {"note": 66, "velocity": 86, "duration": 81}, {"note": 66, "velocity": 95, "duration": 76}, {"note": 66, "velocity": 97, "duration": 254}, {"note": 0, "velocity": 0, "duration": 226}, {"note": 78, "velocity": 97, "duration": 87}, {"note": 78, "velocity": 92, "duration": 186}, {"note": 76, "velocity": 97, "duration": 92}, {"note": 78, "velocity": 99, "duration": 434}, {"note": 0, "velocity": 0, "duration": 154}, {"note": 78, "velocity": 101, "duration": 165}, {"note": 0, "velocity": 0, "duration": 69}, {"note": 78, "velocity": 99, "duration": 150}, {"note": 0, "velocity": 0, "duration": 83}, {"note": 78, "velocity": 97, "duration": 128}, {"note": 76, "velocity": 97, "duration": 97}, {"note": 0, "velocity": 0, "duration": 64}, {"note": 73, "velocity": 96, "duration": 104}, {"note": 71, "velocity": 102, "duration": 346}, {"note": 0, "velocity": 0, "duration": 152}, {"note": 81, "velocity": 97, "duration": 186}, {"note": 80, "velocity": 106, "duration": 177}, {"note": 0, "velocity": 0, "duration": 63}, {"note": 78, "velocity": 96, "duration": 427}, {"note": 73, "velocity": 96, "duration": 370}, {"note": 0, "velocity": 0, "duration": 110}, {"note": 76, "velocity": 97, "duration": 183}, {"note": 78, "velocity": 96, "duration": 81}, {"note": 78, "velocity": 92, "duration": 431}, {"note": 0, "velocity": 0, "duration": 169}, {"note": 76, "velocity": 104, "duration": 173}, {"note": 0, "velocity": 0, "duration": 67}, {"note": 76, "velocity": 101, "duration": 210}, {"note": 71, "velocity": 98, "duration": 86}, {"note": 76, "velocity": 98, "duration": 295}, {"note": 0, "velocity": 0, "duration": 65}, {"note": 73, "velocity": 95, "duration": 691}, {"note": 73, "velocity": 104, "duration": 89}, {"note": 71, "velocity": 97, "duration": 71}, {"note": 69, "velocity": 100, "duration": 96}, {"note": 66, "velocity": 86, "duration": 81}, {"note": 66, "velocity": 95, "duration": 76}, {"note": 66, "velocity": 97, "duration": 254}, {"note": 0, "velocity": 0, "duration": 226}, {"note": 78, "velocity": 97, "duration": 87}, {"note": 78, "velocity": 92, "duration": 186}, {"note": 76, "velocity": 97, "duration": 92}, {"note": 78, "velocity": 99, "duration": 434}, {"note": 0, "velocity": 0, "duration": 166}, {"note": 80, "velocity": 98, "duration": 74}, {"note": 80, "velocity": 95, "duration": 60}, {"note": 80, "velocity": 95, "duration": 58}, {"note": 0, "velocity": 0, "duration": 62}, {"note": 80, "velocity": 97, "duration": 63}, {"note": 80, "velocity": 96, "duration": 89}, {"note": 81, "velocity": 93, "duration": 79}, {"note": 80, "velocity": 97, "duration": 66}, {"note": 80, "velocity": 98, "duration": 228}, {"note": 78, "velocity": 93, "duration": 1285}]]