[[{"note": 64, "velocity": 93, "duration": 140}, {"note": 0, "velocity": 0, "duration": 100}, {"note": 64, "velocity": 92, "duration": 141}, {"note": 0, "velocity": 0, "duration": 99}, {"note": 64, "velocity": 96, "duration": 170}, {"note": 0, "velocity": 0, "duration": 70}, {"note": 64, "velocity": 98, "duration": 159}, {"note": 0, "velocity": 0, "duration": 81}, {"note": 64, "velocity": 96, "duration": 427}, {"note": 61, "velocity": 100, "duration": 451}, {"note": 59, "velocity": 98, "duration": 637}, {"note": 0, "velocity": 0, "duration": 323}, {"note": 59, "velocity": 98, "duration": 438}, {"note": 61, "velocity": 94, "duration": 482}, {"note": 64, "velocity": 92, "duration": 172}, {"note": 0, "velocity": 0, "duration": 68}, {"note": 64, "velocity": 95, "duration": 140}, {"note": 0, "velocity": 0, "duration": 100}, {"note": 64, "velocity": 97, "duration": 142}, {"note": 0, "velocity": 0, "duration": 98}, {"note": 64, "velocity": 103, "duration": 142}, {"note": 0, "velocity": 0, "duration": 98}, {"note": 64, "velocity": 98, "duration": 449}, {"note": 66, "velocity": 94, "duration": 120}, {"note": 0, "velocity": 0, "duration": 120}, {"note": 68, "velocity": 98, "duration": 1314}, {"note": 0, "velocity": 0, "duration": 846}, {"note": 66, "velocity": 96, "duration": 159}, {"note": 0, "velocity": 0, "duration": 81}, {"note": 66, "velocity": 94, "duration": 131}, {"note": 0, "velocity": 0, "duration": 109}, {"note": 66, "velocity": 95, "duration": 152}, {"note": 0, "velocity": 0, "duration": 88}, {"note": 66, "velocity": 95, "duration": 148}, {"note": 0, "velocity": 0, "duration": 92}, {"note": 66, "velocity": 97, "duration": 422}, {"note": 64, "velocity": 98, "duration": 240}, {"note": 68, "velocity": 96, "duration": 910}, {"note": 0, "velocity": 0, "duration": 290}, {"note": 66, "velocity": 91, "duration": 394}, {"note": 0, "velocity": 0, "duration": 86}, {"note": 64, "velocity": 99, "duration": 393}, {"note": 0, "velocity": 0, "duration": 87}, {"note": 61, "velocity": 95, "duration": 178}, {"note": 0, "velocity": 0, "duration": 62}, {"note": 61, "velocity": 95, "duration": 172}, {"note": 0, "velocity": 0, "duration": 68}, {"note": 61, "velocity": 96, "duration": 176}, {"note": 0, "velocity": 0, "duration": 64}, {"note": 61, "velocity": 94, "duration": 165}, {"note": 0, "velocity": 0, "duration": 75}, {"note": 61, "velocity": 100, "duration": 415}, {"note": 0, "velocity": 0, "duration": 65}, {"note": 64, "velocity": 93, "duration": 472}, {"note": 61, "velocity": 96, "duration": 1155}, {"note": 0, "velocity": 0, "duration": 765}, {"note": 64, "velocity": 93, "duration": 140}, {"note": 0, "velocity": 0, "duration": 100}, {"note": 64, "velocity": 92, "duration": 141}, {"note": 0, "velocity": 0, "duration": 99}, {"note": 64, "velocity": 96, "duration": 170}, {"note": 0, "velocity": 0, "duration": 70}, {"note": 64, "velocity": 98, "duration": 159}, {"note": 0, "velocity": 0, "duration": 81}, {"note": 64, "velocity": 96, "duration": 427}, {"note": 61, "velocity": 100, "duration": 451}, {"note": 59, "velocity": 98, "duration": 637}, {"note": 0, "velocity": 0, "duration": 323}, {"note": 59, "velocity": 98, "duration": 438}, {"note": 61, "velocity": 94, "duration": 482}, {"note": 64, "velocity": 92, "duration": 172}, {"note": 0, "velocity": 0, "duration": 68}, {"note": 64, "velocity": 95, "duration": 140}, {"note": 0, "velocity": 0, "duration": 100}, {"note": 64, "velocity": 97, "duration": 142}, {"note": 0, "velocity": 0, "duration": 98}, {"note": 64, "velocity": 103, "duration": 142}, {"note": 0, "velocity": 0, "duration": 98}, {"note": 64, "velocity": 98, "duration": 449}, {"note": 66, "velocity": 94, "duration": 120}, {"note": 0, "velocity": 0, "duration": 120}, {"note": 68, "velocity": 98, "duration": 1314}, {"note": 0, "velocity": 0, "duration": 846}, {"note": 66, "velocity": 96, "duration": 159}, {"note": 0, "velocity": 0, "duration": 81}, {"note": 66, "velocity": 94, "duration": 131}, {"note": 0, "velocity": 0, "duration": 109}, {"note": 66, "velocity": 95, "duration": 152}, {"note": 0, "velocity": 0, "duration": 88}, {"note": 66, "velocity": 95, "duration": 148}, {"note": 0, "velocity": 0, "duration": 92}, {"note": 66, "velocity": 97, "duration": 422}, {"note": 64, "velocity": 98, "duration": 240}, {"note": 68, "velocity": 96, "duration": 910}, {"note": 0, "velocity": 0, "duration": 290}, {"note": 68, "velocity": 96, "duration": 437}, {"note": 66, "velocity": 97, "duration": 395}, {"note": 0, "velocity": 0, "duration": 85}, {"note": 68, "velocity": 96, "duration": 159}, {"note": 0, "velocity": 0, "duration": 81}, {"note": 68, "velocity": 89, "duration": 165}, {"note": 0, "velocity": 0, "duration": 75}, {"note": 68, "velocity": 98, "duration": 159}, {"note": 0, "velocity": 0, "duration": 81}, {"note": 68, "velocity": 96, "duration": 187}, {"note": 68, "velocity": 99, "duration": 377}, {"note": 0, "velocity": 0, "duration": 103}, {"note": 71, "velocity": 98, "duration": 183}, {"note": 73, "velocity": 101, "duration": 1999}, {"note": 0, "velocity": 0, "duration": 161}, {"note": 73, "velocity": 98, "duration": 151}, {"note": 0, "velocity": 0, "duration": 89}, {"note": 73, "velocity": 100, "duration": 170}, {"note": 0, "velocity": 0, "duration": 70}, {"note": 73, "velocity": 98, "duration": 168}, {"note": 0, "velocity": 0, "duration": 72}, {"note": 73, "velocity": 99, "duration": 149}, {"note": 0, "velocity": 0, "duration": 91}, {"note": 71, "velocity": 100, "duration": 387}, {"note": 0, "velocity": 0, "duration": 93}, {"note": 68, "velocity": 97, "duration": 446}, {"note": 66, "velocity": 97, "duration": 720}, {"note": 68, "velocity": 96, "duration": 202}, {"note": 66, "velocity": 98, "duration": 419}, {"note": 0, "velocity": 0, "duration": 61}, {"note": 68, "velocity": 98, "duration": 421}, {"note": 71, "velocity": 96, "duration": 162}, {"note": 0, "velocity": 0, "duration": 78}, {"note": 71, "velocity": 98, "duration": 160}, {"note": 0, "velocity": 0, "duration": 80}, {"note": 71, "velocity": 98, "duration": 162}, {"note": 0, "velocity": 0, "duration": 78}, {"note": 71, "velocity": 99, "duration": 165}, {"note": 0, "velocity": 0, "duration": 75}, {"note": 71, "velocity": 98, "duration": 392}, {"note": 0, "velocity": 0, "duration": 88}, {"note": 68, "velocity": 99, "duration": 410}, {"note": 0, "velocity": 0, "duration": 70}, {"note": 66, "velocity": 95, "duration": 559}, {"note": 0, "velocity": 0, "duration": 161}, {"note": 68, "velocity": 96, "duration": 172}, {"note": 0, "velocity": 0, "duration": 68}, {"note": 66, "velocity": 94, "duration": 419}, {"note": 0, "velocity": 0, "duration": 61}, {"note": 64, "velocity": 97, "duration": 377}, {"note": 0, "velocity": 0, "duration": 103}, {"note": 61, "velocity": 100, "duration": 175}, {"note": 0, "velocity": 0, "duration": 65}, {"note": 61, "velocity": 94, "duration": 168}, {"note": 0, "velocity": 0, "duration": 72}, {"note": 61, "velocity": 96, "duration": 153}, {"note": 0, "velocity": 0, "duration": 87}, {"note": 61, "velocity": 99, "duration": 144}, {"note": 0, "velocity": 0, "duration": 96}, {"note": 61, "velocity": 101, "duration": 410}, {"note": 0, "velocity": 0, "duration": 70}, {"note": 64, "velocity": 101, "duration": 397}, {"note": 0, "velocity": 0, "duration": 83}, {"note": 66, "velocity": 90, "duration": 152}, {"note": 0, "velocity": 0, "duration": 88}, {"note": 66, "velocity": 92, "duration": 167}, {"note": 0, "velocity": 0, "duration": 73}, {"note": 66, "velocity": 95, "duration": 175}, {"note": 0, "velocity": 0, "duration": 65}, {"note": 66, "velocity": 94, "duration": 140}, {"note": 0, "velocity": 0, "duration": 100}, {"note": 66, "velocity": 95, "duration": 497}, {"note": 68, "velocity": 95, "duration": 417}, {"note": 0, "velocity": 0, "duration": 63}, {"note": 61, "velocity": 94, "duration": 194}, {"note": 61, "velocity": 90, "duration": 159}, {"note": 0, "velocity": 0, "duration": 81}, {"note": 61, "velocity": 95, "duration": 174}, {"note": 0, "velocity": 0, "duration": 66}, {"note": 61, "velocity": 96, "duration": 171}, {"note": 0, "velocity": 0, "duration": 69}, {"note": 61, "velocity": 98, "duration": 488}, {"note": 64, "velocity": 97, "duration": 425}, {"note": 61, "velocity": 95, "duration": 1581}, {"note": 0, "velocity": 0, "duration": 339}, {"note": 73, "velocity": 98, "duration": 151}, {"note": 0, "velocity": 0, "duration": 89}, {"note": 73, "velocity": 100, "duration": 170}, {"note": 0, "velocity": 0, "duration": 70}, {"note": 73, "velocity": 98, "duration": 168}, {"note": 0, "velocity": 0, "duration": 72}, {"note": 73, "velocity": 99, "duration": 149}, {"note": 0, "velocity": 0, "duration": 91}, {"note": 71, "velocity": 100, "duration": 387}, {"note": 0, "velocity": 0, "duration": 93}, {"note": 68, "velocity": 97, "duration": 446}, {"note": 66, "velocity": 97, "duration": 720}, {"note": 68, "velocity": 96, "duration": 202}, {"note": 66, "velocity": 98, "duration": 419}, {"note": 0, "velocity": 0, "duration": 61}, {"note": 68, "velocity": 98, "duration": 421}, {"note": 71, "velocity": 96, "duration": 162}, {"note": 0, "velocity": 0, "duration": 78}, {"note": 71, "velocity": 98, "duration": 160}, {"note": 0, "velocity": 0, "duration": 80}, {"note": 71, "velocity": 98, "duration": 162}, {"note": 0, "velocity": 0, "duration": 78}, {"note": 71, "velocity": 99, "duration": 165}, {"note": 0, "velocity": 0, "duration": 75}, {"note": 71, "velocity": 98, "duration": 392}, {"note": 0, "velocity": 0, "duration": 88}, {"note": 68, "velocity": 99, "duration": 410}, {"note": 0, "velocity": 0, "duration": 70}, {"note": 66, "velocity": 95, "duration": 559}, {"note": 0, "velocity": 0, "duration": 161}, {"note": 68, "velocity": 96, "duration": 172}, {"note": 0, "velocity": 0, "duration": 68}, {"note": 66, "velocity": 94, "duration": 419}, {"note": 0, "velocity": 0, "duration": 61}, {"note": 64, "velocity": 97, "duration": 377}, {"note": 0, "velocity": 0, "duration": 103}, {"note": 61, "velocity": 100, "duration": 175}, {"note": 0, "velocity": 0, "duration": 65}, {"note": 61, "velocity": 94, "duration": 168}, {"note": 0, "velocity": 0, "duration": 72}, {"note": 61, "velocity": 96, "duration": 153}, {"note": 0, "velocity": 0, "duration": 87}, {"note": 61, "velocity": 99, "duration": 144}, {"note": 0, "velocity": 0, "duration": 96}, {"note": 61, "velocity": 101, "duration": 410}, {"note": 0, "velocity": 0, "duration": 70}, {"note": 64, "velocity": 101, "duration": 397}, {"note": 0, "velocity": 0, "duration": 83}, {"note": 66, "velocity": 90, "duration": 152}, {"note": 0, "velocity": 0, "duration": 88}, {"note": 66, "velocity": 92, "duration": 167}, {"note": 0, "velocity": 0, "duration": 73}, {"note": 66, "velocity": 95, "duration": 175}, {"note": 0, "velocity": 0, "duration": 65}, {"note": 66, "velocity": 94, "duration": 140}, {"note": 0, "velocity": 0, "duration": 100}, {"note": 66, "velocity": 95, "duration": 497}, {"note": 68, "velocity": 95, "duration": 417}, {"note": 0, "velocity": 0, "duration": 63}, {"note": 71, "velocity": 94, "duration": 194}, {"note": 71, "velocity": 90, "duration": 159}, {"note": 0, "velocity": 0, "duration": 81}, {"note": 71, "velocity": 95, "duration": 174}, {"note": 0, "velocity": 0, "duration": 66}, {"note": 71, "velocity": 96, "duration": 171}, {"note": 0, "velocity": 0, "duration": 69}, {"note": 71, "velocity": 98, "duration": 488}, {"note": 68, "velocity": 97, "duration": 240}, {"note": 73, "velocity": 95, "duration": 1821}, {"note": 0, "velocity": 0, "duration": 19539}, {"note": 64, "velocity": 93, "duration": 140}, {"note": 0, "velocity": 0, "duration": 100}, {"note": 64, "velocity": 92, "duration": 141}, {"note": 0, "velocity": 0, "duration": 99}, {"note": 64, "velocity": 96, "duration": 170}, {"note": 0, "velocity": 0, "duration": 70}, {"note": 64, "velocity": 98, "duration": 159}, {"note": 0, "velocity": 0, "duration": 81}, {"note": 64, "velocity": 96, "duration": 427}, {"note": 61, "velocity": 100, "duration": 451}, {"note": 59, "velocity": 98, "duration": 637}, {"note": 0, "velocity": 0, "duration": 323}, {"note": 59, "velocity": 98, "duration": 438}, {"note": 61, "velocity": 94, "duration": 482}, {"note": 64, "velocity": 92, "duration": 172}, {"note": 0, "velocity": 0, "duration": 68}, {"note": 64, "velocity": 95, "duration": 140}, {"note": 0, "velocity": 0, "duration": 100}, {"note": 64, "velocity": 97, "duration": 142}, {"note": 0, "velocity": 0, "duration": 98}, {"note": 64, "velocity": 103, "duration": 142}, {"note": 0, "velocity": 0, "duration": 98}, {"note": 64, "velocity": 98, "duration": 449}, {"note": 66, "velocity": 94, "duration": 120}, {"note": 0, "velocity": 0, "duration": 120}, {"note": 68, "velocity": 98, "duration": 1314}, {"note": 0, "velocity": 0, "duration": 846}, {"note": 66, "velocity": 96, "duration": 159}, {"note": 0, "velocity": 0, "duration": 81}, {"note": 66, "velocity": 94, "duration": 131}, {"note": 0, "velocity": 0, "duration": 109}, {"note": 66, "velocity": 95, "duration": 152}, {"note": 0, "velocity": 0, "duration": 88}, {"note": 66, "velocity": 95, "duration": 148}, {"note": 0, "velocity": 0, "duration": 92}, {"note": 66, "velocity": 97, "duration": 422}, {"note": 64, "velocity": 98, "duration": 240}, {"note": 68, "velocity": 96, "duration": 910}, {"note": 0, "velocity": 0, "duration": 290}, {"note": 68, "velocity": 96, "duration": 437}, {"note": 66, "velocity": 97, "duration": 395}, {"note": 0, "velocity": 0, "duration": 85}, {"note": 68, "velocity": 96, "duration": 159}, {"note": 0, "velocity": 0, "duration": 81}, {"note": 68, "velocity": 89, "duration": 165}, {"note": 0, "velocity": 0, "duration": 75}, {"note": 68, "velocity": 98, "duration": 159}, {"note": 0, "velocity": 0, "duration": 81}, {"note": 68, "velocity": 96, "duration": 187}, {"note": 68, "velocity": 99, "duration": 377}, {"note": 0, "velocity": 0, "duration": 103}, {"note": 71, "velocity": 98, "duration": 183}, {"note": 73, "velocity": 101, "duration": 1999}, {"note": 0, "velocity": 0, "duration": 161}, {"note": 73, "velocity": 98, "duration": 151}, {"note": 0, "velocity": 0, "duration": 89}, {"note": 73, "velocity": 100, "duration": 170}, {"note": 0, "velocity": 0, "duration": 70}, {"note": 73, "velocity": 98, "duration": 168}, {"note": 0, "velocity": 0, "duration": 72}, {"note": 73, "velocity": 99, "duration": 149}, {"note": 0, "velocity": 0, "duration": 91}, {"note": 71, "velocity": 100, "duration": 387}, {"note": 0, "velocity": 0, "duration": 93}, {"note": 68, "velocity": 97, "duration": 446}, {"note": 66, "velocity": 97, "duration": 720}, {"note": 68, "velocity": 96, "duration": 202}, {"note": 66, "velocity": 98, "duration": 419}, {"note": 0, "velocity": 0, "duration": 61}, {"note": 68, "velocity": 98, "duration": 421}, {"note": 71, "velocity": 96, "duration": 162}, {"note": 0, "velocity": 0, "duration": 78}, {"note": 71, "velocity": 98, "duration": 160}, {"note": 0, "velocity": 0, "duration": 80}, {"note": 71, "velocity": 98, "duration": 162}, {"note": 0, "velocity": 0, "duration": 78}, {"note": 71, "velocity": 99, "duration": 165}, {"note": 0, "velocity": 0, "duration": 75}, {"note": 71, "velocity": 98, "duration": 392}, {"note": 0, "velocity": 0, "duration": 88}, {"note": 68, "velocity": 99, "duration": 410}, {"note": 0, "velocity": 0, "duration": 70}, {"note": 66, "velocity": 95, "duration": 559}, {"note": 0, "velocity": 0, "duration": 161}, {"note": 68, "velocity": 96, "duration": 172}, {"note": 0, "velocity": 0, "duration": 68}, {"note": 66, "velocity": 94, "duration": 419}, {"note": 0, "velocity": 0, "duration": 61}, {"note": 64, "velocity": 97, "duration": 377}, {"note": 0, "velocity": 0, "duration": 103}, {"note": 61, "velocity": 100, "duration": 175}, {"note": 0, "velocity": 0, "duration": 65}, {"note": 61, "velocity": 94, "duration": 168}, {"note": 0, "velocity": 0, "duration": 72}, {"note": 61, "velocity": 96, "duration": 153}, {"note": 0, "velocity": 0, "duration": 87}, {"note": 61, "velocity": 99, "duration": 144}, {"note": 0, "velocity": 0, "duration": 96}, {"note": 61, "velocity": 101, "duration": 410}, {"note": 0, "velocity": 0, "duration": 70}, {"note": 64, "velocity": 101, "duration": 397}, {"note": 0, "velocity": 0, "duration": 83}, {"note": 66, "velocity": 90, "duration": 152}, {"note": 0, "velocity": 0, "duration": 88}, {"note": 66, "velocity": 92, "duration": 167}, {"note": 0, "velocity": 0, "duration": 73}, {"note": 66, "velocity": 95, "duration": 175}, {"note": 0, "velocity": 0, "duration": 65}, {"note": 66, "velocity": 94, "duration": 140}, {"note": 0, "velocity": 0, "duration": 100}, {"note": 66, "velocity": 95, "duration": 497}, {"note": 68, "velocity": 95, "duration": 417}, {"note": 0, "velocity": 0, "duration": 63}, {"note": 61, "velocity": 94, "duration": 194}, {"note": 61, "velocity": 90, "duration": 159}, {"note": 0, "velocity": 0, "duration": 81}, {"note": 61, "velocity": 95, "duration": 174}, {"note": 0, "velocity": 0, "duration": 66}, {"note": 61, "velocity": 96, "duration": 171}, {"note": 0, "velocity": 0, "duration": 69}, {"note": 61, "velocity": 98, "duration": 488}, {"note": 64, "velocity": 97, "duration": 425}, {"note": 61, "velocity": 95, "duration": 1581}, {"note": 0, "velocity": 0, "duration": 339}, {"note": 73, "velocity": 98, "duration": 151}, {"note": 0, "velocity": 0, "duration": 89}, {"note": 73, "velocity": 100, "duration": 170}, {"note": 0, "velocity": 0, "duration": 70}, {"note": 73, "velocity": 98, "duration": 168}, {"note": 0, "velocity": 0, "duration": 72}, {"note": 73, "velocity": 99, "duration": 149}, {"note": 0, "velocity": 0, "duration": 91}, {"note": 71, "velocity": 100, "duration": 387}, {"note": 0, "velocity": 0, "duration": 93}, {"note": 68, "velocity": 97, "duration": 446}, {"note": 66, "velocity": 97, "duration": 720}, {"note": 68, "velocity": 96, "duration": 202}, {"note": 66, "velocity": 98, "duration": 419}, {"note": 0, "velocity": 0, "duration": 61}, {"note": 68, "velocity": 98, "duration": 421}, {"note": 71, "velocity": 96, "duration": 162}, {"note": 0, "velocity": 0, "duration": 78}, {"note": 71, "velocity": 98, "duration": 160}, {"note": 0, "velocity": 0, "duration": 80}, {"note": 71, "velocity": 98, "duration": 162}, {"note": 0, "velocity": 0, "duration": 78}, {"note": 71, "velocity": 99, "duration": 165}, {"note": 0, "velocity": 0, "duration": 75}, {"note": 71, "velocity": 98, "duration": 392}, {"note": 0, "velocity": 0, "duration": 88}, {"note": 68, "velocity": 99, "duration": 410}, {"note": 0, "velocity": 0, "duration": 70}, {"note": 66, "velocity": 95, "duration": 559}, {"note": 0, "velocity": 0, "duration": 161}, {"note": 68, "velocity": 96, "duration": 172}, {"note": 0, "velocity": 0, "duration": 68}, {"note": 66, "velocity": 94, "duration": 419}, {"note": 0, "velocity": 0, "duration": 61}, {"note": 64, "velocity": 97, "duration": 377}, {"note": 0, "velocity": 0, "duration": 103}, {"note": 61, "velocity": 100, "duration": 175}, {"note": 0, "velocity": 0, "duration": 65}, {"note": 61, "velocity": 94, "duration": 168}, {"note": 0, "velocity": 0, "duration": 72}, {"note": 61, "velocity": 96, "duration": 153}, {"note": 0, "velocity": 0, "duration": 87}, {"note": 61, "velocity": 99, "duration": 144}, {"note": 0, "velocity": 0, "duration": 96}, {"note": 61, "velocity": 101, "duration": 410}, {"note": 0, "velocity": 0, "duration": 70}, {"note": 64, "velocity": 101, "duration": 397}, {"note": 0, "velocity": 0, "duration": 83}, {"note": 66, "velocity": 90, "duration": 152}, {"note": 0, "velocity": 0, "duration": 88}, {"note": 66, "velocity": 92, "duration": 167}, {"note": 0, "velocity": 0, "duration": 73}, {"note": 66, "velocity": 95, "duration": 175}, {"note": 0, "velocity": 0, "duration": 65}, {"note": 66, "velocity": 94, "duration": 140}, {"note": 0, "velocity": 0, "duration": 100}, {"note": 66, "velocity": 95, "duration": 497}, {"note": 68, "velocity": 95, "duration": 417}, {"note": 0, "velocity": 0, "duration": 63}, {"note": 71, "velocity": 94, "duration": 194}, {"note": 71, "velocity": 90, "duration": 159}, {"note": 0, "velocity": 0, "duration": 81}, {"note": 71, "velocity": 95, "duration": 174}, {"note": 0, "velocity": 0, "duration": 66}, {"note": 71, "velocity": 96, "duration": 171}, {"note": 0, "velocity": 0, "duration": 69}, {"note": 71, "velocity": 98, "duration": 488}, {"note": 68, "velocity": 97, "duration": 240}, {"note": 73, "velocity": 95, "duration": 1821}]]