[[{"note": 69, "velocity": 94, "duration": 88}, {"note": 71, "velocity": 93, "duration": 63}, {"note": 78, "velocity": 86, "duration": 95}, {"note": 76, "velocity": 91, "duration": 60}, {"note": 76, "velocity": 92, "duration": 83}, {"note": 74, "velocity": 99, "duration": 344}, {"note": 66, "velocity": 96, "duration": 210}, {"note": 69, "velocity": 91, "duration": 525}, {"note": 0, "velocity": 0, "duration": 195}, {"note": 71, "velocity": 95, "duration": 109}, {"note": 73, "velocity": 91, "duration": 98}, {"note": 74, "velocity": 107, "duration": 419}, {"note": 0, "velocity": 0, "duration": 61}, {"note": 78, "velocity": 92, "duration": 196}, {"note": 81, "velocity": 96, "duration": 111}, {"note": 74, "velocity": 94, "duration": 158}, {"note": 76, "velocity": 92, "duration": 611}, {"note": 0, "velocity": 0, "duration": 109}, {"note": 78, "velocity": 95, "duration": 80}, {"note": 79, "velocity": 92, "duration": 66}, {"note": 81, "velocity": 93, "duration": 311}, {"note": 79, "velocity": 92, "duration": 85}, {"note": 78, "velocity": 95, "duration": 172}, {"note": 0, "velocity": 0, "duration": 68}, {"note": 76, "velocity": 94, "duration": 208}, {"note": 71, "velocity": 94, "duration": 496}, {"note": 0, "velocity": 0, "duration": 224}, {"note": 71, "velocity": 92, "duration": 105}, {"note": 69, "velocity": 91, "duration": 91}, {"note": 71, "velocity": 94, "duration": 297}, {"note": 0, "velocity": 0, "duration": 63}, {"note": 74, "velocity": 101, "duration": 75}, {"note": 78, "velocity": 95, "duration": 208}, {"note": 76, "velocity": 92, "duration": 85}, {"note": 74, "velocity": 104, "duration": 87}, {"note": 76, "velocity": 95, "duration": 615}, {"note": 0, "velocity": 0, "duration": 105}, {"note": 69, "velocity": 94, "duration": 88}, {"note": 71, "velocity": 93, "duration": 63}, {"note": 78, "velocity": 86, "duration": 95}, {"note": 76, "velocity": 91, "duration": 60}, {"note": 76, "velocity": 92, "duration": 83}, {"note": 74, "velocity": 99, "duration": 344}, {"note": 66, "velocity": 96, "duration": 210}, {"note": 69, "velocity": 91, "duration": 525}, {"note": 0, "velocity": 0, "duration": 195}, {"note": 71, "velocity": 95, "duration": 109}, {"note": 73, "velocity": 91, "duration": 98}, {"note": 74, "velocity": 107, "duration": 419}, {"note": 0, "velocity": 0, "duration": 61}, {"note": 78, "velocity": 92, "duration": 196}, {"note": 81, "velocity": 96, "duration": 111}, {"note": 74, "velocity": 94, "duration": 158}, {"note": 76, "velocity": 92, "duration": 611}, {"note": 0, "velocity": 0, "duration": 109}, {"note": 78, "velocity": 95, "duration": 80}, {"note": 79, "velocity": 92, "duration": 66}, {"note": 81, "velocity": 93, "duration": 311}, {"note": 79, "velocity": 92, "duration": 85}, {"note": 78, "velocity": 95, "duration": 172}, {"note": 0, "velocity": 0, "duration": 68}, {"note": 76, "velocity": 94, "duration": 120}, {"note": 74, "velocity": 94, "duration": 120}, {"note": 71, "velocity": 94, "duration": 496}, {"note": 0, "velocity": 0, "duration": 224}, {"note": 78, "velocity": 106, "duration": 120}, {"note": 81, "velocity": 95, "duration": 73}, {"note": 76, "velocity": 97, "duration": 281}, {"note": 0, "velocity": 0, "duration": 79}, {"note": 78, "velocity": 92, "duration": 92}, {"note": 76, "velocity": 97, "duration": 107}, {"note": 78, "velocity": 93, "duration": 105}, {"note": 74, "velocity": 107, "duration": 118}, {"note": 71, "velocity": 91, "duration": 138}, {"note": 74, "velocity": 104, "duration": 960}, {"note": 0, "velocity": 0, "duration": 720}, {"note": 78, "velocity": 92, "duration": 115}, {"note": 79, "velocity": 88, "duration": 131}, {"note": 81, "velocity": 94, "duration": 290}, {"note": 0, "velocity": 0, "duration": 70}, {"note": 83, "velocity": 92, "duration": 81}, {"note": 78, "velocity": 97, "duration": 81}, {"note": 79, "velocity": 94, "duration": 101}, {"note": 78, "velocity": 91, "duration": 144}, {"note": 76, "velocity": 97, "duration": 110}, {"note": 74, "velocity": 97, "duration": 542}, {"note": 0, "velocity": 0, "duration": 178}, {"note": 74, "velocity": 97, "duration": 75}, {"note": 76, "velocity": 96, "duration": 70}, {"note": 78, "velocity": 92, "duration": 253}, {"note": 0, "velocity": 0, "duration": 107}, {"note": 83, "velocity": 94, "duration": 97}, {"note": 81, "velocity": 88, "duration": 56}, {"note": 0, "velocity": 0, "duration": 64}, {"note": 83, "velocity": 93, "duration": 85}, {"note": 74, "velocity": 99, "duration": 95}, {"note": 78, "velocity": 94, "duration": 96}, {"note": 76, "velocity": 96, "duration": 573}, {"note": 0, "velocity": 0, "duration": 147}, {"note": 74, "velocity": 97, "duration": 68}, {"note": 76, "velocity": 94, "duration": 83}, {"note": 78, "velocity": 92, "duration": 280}, {"note": 0, "velocity": 0, "duration": 80}, {"note": 83, "velocity": 92, "duration": 83}, {"note": 81, "velocity": 94, "duration": 83}, {"note": 83, "velocity": 92, "duration": 68}, {"note": 78, "velocity": 94, "duration": 100}, {"note": 74, "velocity": 95, "duration": 120}, {"note": 71, "velocity": 92, "duration": 555}, {"note": 0, "velocity": 0, "duration": 165}, {"note": 71, "velocity": 94, "duration": 107}, {"note": 81, "velocity": 95, "duration": 73}, {"note": 78, "velocity": 92, "duration": 279}, {"note": 0, "velocity": 0, "duration": 81}, {"note": 83, "velocity": 92, "duration": 91}, {"note": 81, "velocity": 92, "duration": 208}, {"note": 81, "velocity": 91, "duration": 120}, {"note": 78, "velocity": 91, "duration": 120}, {"note": 76, "velocity": 91, "duration": 503}, {"note": 0, "velocity": 0, "duration": 217}, {"note": 78, "velocity": 92, "duration": 115}, {"note": 79, "velocity": 88, "duration": 131}, {"note": 81, "velocity": 94, "duration": 290}, {"note": 0, "velocity": 0, "duration": 70}, {"note": 83, "velocity": 92, "duration": 81}, {"note": 78, "velocity": 97, "duration": 81}, {"note": 79, "velocity": 94, "duration": 101}, {"note": 78, "velocity": 91, "duration": 144}, {"note": 76, "velocity": 97, "duration": 110}, {"note": 74, "velocity": 97, "duration": 542}, {"note": 0, "velocity": 0, "duration": 178}, {"note": 74, "velocity": 97, "duration": 75}, {"note": 76, "velocity": 96, "duration": 70}, {"note": 78, "velocity": 92, "duration": 253}, {"note": 0, "velocity": 0, "duration": 107}, {"note": 83, "velocity": 94, "duration": 97}, {"note": 81, "velocity": 88, "duration": 56}, {"note": 0, "velocity": 0, "duration": 64}, {"note": 83, "velocity": 93, "duration": 85}, {"note": 74, "velocity": 99, "duration": 95}, {"note": 78, "velocity": 94, "duration": 96}, {"note": 76, "velocity": 96, "duration": 573}, {"note": 0, "velocity": 0, "duration": 147}, {"note": 74, "velocity": 97, "duration": 68}, {"note": 76, "velocity": 94, "duration": 83}, {"note": 78, "velocity": 92, "duration": 280}, {"note": 0, "velocity": 0, "duration": 80}, {"note": 83, "velocity": 92, "duration": 83}, {"note": 81, "velocity": 94, "duration": 83}, {"note": 81, "velocity": 92, "duration": 68}, {"note": 78, "velocity": 94, "duration": 100}, {"note": 74, "velocity": 95, "duration": 120}, {"note": 71, "velocity": 92, "duration": 555}, {"note": 0, "velocity": 0, "duration": 165}, {"note": 83, "velocity": 94, "duration": 107}, {"note": 81, "velocity": 95, "duration": 73}, {"note": 78, "velocity": 92, "duration": 279}, {"note": 0, "velocity": 0, "duration": 81}, {"note": 81, "velocity": 92, "duration": 91}, {"note": 76, "velocity": 92, "duration": 208}, {"note": 74, "velocity": 91, "duration": 120}, {"note": 71, "velocity": 91, "duration": 120}, {"note": 74, "velocity": 91, "duration": 960}, {"note": 0, "velocity": 0, "duration": 16080}, {"note": 69, "velocity": 94, "duration": 88}, {"note": 71, "velocity": 93, "duration": 63}, {"note": 78, "velocity": 86, "duration": 95}, {"note": 76, "velocity": 91, "duration": 60}, {"note": 76, "velocity": 92, "duration": 83}, {"note": 74, "velocity": 99, "duration": 344}, {"note": 66, "velocity": 96, "duration": 210}, {"note": 69, "velocity": 91, "duration": 525}, {"note": 0, "velocity": 0, "duration": 195}, {"note": 71, "velocity": 95, "duration": 109}, {"note": 73, "velocity": 91, "duration": 98}, {"note": 74, "velocity": 107, "duration": 419}, {"note": 0, "velocity": 0, "duration": 61}, {"note": 78, "velocity": 92, "duration": 196}, {"note": 81, "velocity": 96, "duration": 111}, {"note": 74, "velocity": 94, "duration": 158}, {"note": 76, "velocity": 92, "duration": 611}, {"note": 0, "velocity": 0, "duration": 109}, {"note": 78, "velocity": 95, "duration": 80}, {"note": 79, "velocity": 92, "duration": 66}, {"note": 81, "velocity": 93, "duration": 311}, {"note": 79, "velocity": 92, "duration": 85}, {"note": 78, "velocity": 95, "duration": 172}, {"note": 0, "velocity": 0, "duration": 68}, {"note": 76, "velocity": 94, "duration": 208}, {"note": 71, "velocity": 94, "duration": 496}, {"note": 0, "velocity": 0, "duration": 224}, {"note": 71, "velocity": 92, "duration": 105}, {"note": 69, "velocity": 91, "duration": 91}, {"note": 71, "velocity": 94, "duration": 297}, {"note": 0, "velocity": 0, "duration": 63}, {"note": 74, "velocity": 101, "duration": 75}, {"note": 78, "velocity": 95, "duration": 208}, {"note": 76, "velocity": 92, "duration": 85}, {"note": 74, "velocity": 104, "duration": 87}, {"note": 76, "velocity": 95, "duration": 615}, {"note": 0, "velocity": 0, "duration": 105}, {"note": 69, "velocity": 94, "duration": 88}, {"note": 71, "velocity": 93, "duration": 63}, {"note": 78, "velocity": 86, "duration": 95}, {"note": 76, "velocity": 91, "duration": 60}, {"note": 76, "velocity": 92, "duration": 83}, {"note": 74, "velocity": 99, "duration": 344}, {"note": 66, "velocity": 96, "duration": 210}, {"note": 69, "velocity": 91, "duration": 525}, {"note": 0, "velocity": 0, "duration": 195}, {"note": 71, "velocity": 95, "duration": 109}, {"note": 73, "velocity": 91, "duration": 98}, {"note": 74, "velocity": 107, "duration": 419}, {"note": 0, "velocity": 0, "duration": 61}, {"note": 78, "velocity": 92, "duration": 196}, {"note": 81, "velocity": 96, "duration": 111}, {"note": 74, "velocity": 94, "duration": 158}, {"note": 76, "velocity": 92, "duration": 611}, {"note": 0, "velocity": 0, "duration": 109}, {"note": 78, "velocity": 95, "duration": 80}, {"note": 79, "velocity": 92, "duration": 66}, {"note": 81, "velocity": 93, "duration": 311}, {"note": 79, "velocity": 92, "duration": 85}, {"note": 78, "velocity": 95, "duration": 172}, {"note": 0, "velocity": 0, "duration": 68}, {"note": 76, "velocity": 94, "duration": 120}, {"note": 74, "velocity": 94, "duration": 120}, {"note": 71, "velocity": 94, "duration": 496}, {"note": 0, "velocity": 0, "duration": 224}, {"note": 78, "velocity": 106, "duration": 120}, {"note": 81, "velocity": 95, "duration": 73}, {"note": 76, "velocity": 97, "duration": 281}, {"note": 0, "velocity": 0, "duration": 79}, {"note": 78, "velocity": 92, "duration": 92}, {"note": 76, "velocity": 97, "duration": 107}, {"note": 78, "velocity": 93, "duration": 105}, {"note": 74, "velocity": 107, "duration": 118}, {"note": 71, "velocity": 91, "duration": 138}, {"note": 74, "velocity": 104, "duration": 960}, {"note": 0, "velocity": 0, "duration": 720}, {"note": 78, "velocity": 92, "duration": 115}, {"note": 79, "velocity": 88, "duration": 131}, {"note": 81, "velocity": 94, "duration": 290}, {"note": 0, "velocity": 0, "duration": 70}, {"note": 83, "velocity": 92, "duration": 81}, {"note": 78, "velocity": 97, "duration": 81}, {"note": 79, "velocity": 94, "duration": 101}, {"note": 78, "velocity": 91, "duration": 144}, {"note": 76, "velocity": 97, "duration": 110}, {"note": 74, "velocity": 97, "duration": 542}, {"note": 0, "velocity": 0, "duration": 178}, {"note": 74, "velocity": 97, "duration": 75}, {"note": 76, "velocity": 96, "duration": 70}, {"note": 78, "velocity": 92, "duration": 253}, {"note": 0, "velocity": 0, "duration": 107}, {"note": 83, "velocity": 94, "duration": 97}, {"note": 81, "velocity": 88, "duration": 56}, {"note": 0, "velocity": 0, "duration": 64}, {"note": 83, "velocity": 93, "duration": 85}, {"note": 74, "velocity": 99, "duration": 95}, {"note": 78, "velocity": 94, "duration": 96}, {"note": 76, "velocity": 96, "duration": 573}, {"note": 0, "velocity": 0, "duration": 147}, {"note": 74, "velocity": 97, "duration": 68}, {"note": 76, "velocity": 94, "duration": 83}, {"note": 78, "velocity": 92, "duration": 280}, {"note": 0, "velocity": 0, "duration": 80}, {"note": 83, "velocity": 92, "duration": 83}, {"note": 81, "velocity": 94, "duration": 83}, {"note": 83, "velocity": 92, "duration": 68}, {"note": 78, "velocity": 94, "duration": 100}, {"note": 74, "velocity": 95, "duration": 120}, {"note": 71, "velocity": 92, "duration": 555}, {"note": 0, "velocity": 0, "duration": 165}, {"note": 71, "velocity": 94, "duration": 107}, {"note": 81, "velocity": 95, "duration": 73}, {"note": 78, "velocity": 92, "duration": 279}, {"note": 0, "velocity": 0, "duration": 81}, {"note": 83, "velocity": 92, "duration": 91}, {"note": 81, "velocity": 92, "duration": 208}, {"note": 81, "velocity": 91, "duration": 120}, {"note": 78, "velocity": 91, "duration": 120}, {"note": 76, "velocity": 91, "duration": 503}, {"note": 0, "velocity": 0, "duration": 217}, {"note": 78, "velocity": 92, "duration": 115}, {"note": 79, "velocity": 88, "duration": 131}, {"note": 81, "velocity": 94, "duration": 290}, {"note": 0, "velocity": 0, "duration": 70}, {"note": 83, "velocity": 92, "duration": 81}, {"note": 78, "velocity": 97, "duration": 81}, {"note": 79, "velocity": 94, "duration": 101}, {"note": 78, "velocity": 91, "duration": 144}, {"note": 76, "velocity": 97, "duration": 110}, {"note": 74, "velocity": 97, "duration": 542}, {"note": 0, "velocity": 0, "duration": 178}, {"note": 74, "velocity": 97, "duration": 75}, {"note": 76, "velocity": 96, "duration": 70}, {"note": 78, "velocity": 92, "duration": 253}, {"note": 0, "velocity": 0, "duration": 107}, {"note": 83, "velocity": 94, "duration": 97}, {"note": 81, "velocity": 88, "duration": 56}, {"note": 0, "velocity": 0, "duration": 64}, {"note": 83, "velocity": 93, "duration": 85}, {"note": 74, "velocity": 99, "duration": 95}, {"note": 78, "velocity": 94, "duration": 96}, {"note": 76, "velocity": 96, "duration": 573}, {"note": 0, "velocity": 0, "duration": 147}, {"note": 74, "velocity": 97, "duration": 68}, {"note": 76, "velocity": 94, "duration": 83}, {"note": 78, "velocity": 92, "duration": 280}, {"note": 0, "velocity": 0, "duration": 80}, {"note": 83, "velocity": 92, "duration": 83}, {"note": 81, "velocity": 94, "duration": 83}, {"note": 81, "velocity": 92, "duration": 68}, {"note": 78, "velocity": 94, "duration": 100}, {"note": 74, "velocity": 95, "duration": 120}, {"note": 71, "velocity": 92, "duration": 555}, {"note": 0, "velocity": 0, "duration": 165}, {"note": 83, "velocity": 94, "duration": 107}, {"note": 81, "velocity": 95, "duration": 73}, {"note": 78, "velocity": 92, "duration": 279}, {"note": 0, "velocity": 0, "duration": 81}, {"note": 81, "velocity": 92, "duration": 91}, {"note": 76, "velocity": 92, "duration": 208}, {"note": 74, "velocity": 91, "duration": 120}, {"note": 71, "velocity": 91, "duration": 120}, {"note": 74, "velocity": 91, "duration": 960}, {"note": 0, "velocity": 0, "duration": 720}, {"note": 78, "velocity": 92, "duration": 115}, {"note": 79, "velocity": 88, "duration": 131}, {"note": 81, "velocity": 94, "duration": 290}, {"note": 0, "velocity": 0, "duration": 70}, {"note": 83, "velocity": 92, "duration": 81}, {"note": 78, "velocity": 97, "duration": 81}, {"note": 79, "velocity": 94, "duration": 101}, {"note": 78, "velocity": 91, "duration": 144}, {"note": 76, "velocity": 97, "duration": 110}, {"note": 74, "velocity": 97, "duration": 542}, {"note": 0, "velocity": 0, "duration": 178}, {"note": 74, "velocity": 97, "duration": 75}, {"note": 76, "velocity": 96, "duration": 70}, {"note": 78, "velocity": 92, "duration": 253}, {"note": 0, "velocity": 0, "duration": 107}, {"note": 83, "velocity": 94, "duration": 97}, {"note": 81, "velocity": 88, "duration": 56}, {"note": 0, "velocity": 0, "duration": 64}, {"note": 83, "velocity": 93, "duration": 85}, {"note": 74, "velocity": 99, "duration": 95}, {"note": 78, "velocity": 94, "duration": 96}, {"note": 76, "velocity": 96, "duration": 573}, {"note": 0, "velocity": 0, "duration": 147}, {"note": 74, "velocity": 97, "duration": 68}, {"note": 76, "velocity": 94, "duration": 83}, {"note": 78, "velocity": 92, "duration": 280}, {"note": 0, "velocity": 0, "duration": 80}, {"note": 83, "velocity": 92, "duration": 83}, {"note": 81, "velocity": 94, "duration": 83}, {"note": 83, "velocity": 92, "duration": 68}, {"note": 78, "velocity": 94, "duration": 100}, {"note": 74, "velocity": 95, "duration": 120}, {"note": 71, "velocity": 92, "duration": 555}, {"note": 0, "velocity": 0, "duration": 165}, {"note": 71, "velocity": 94, "duration": 107}, {"note": 81, "velocity": 95, "duration": 73}, {"note": 78, "velocity": 92, "duration": 279}, {"note": 0, "velocity": 0, "duration": 81}, {"note": 83, "velocity": 92, "duration": 91}, {"note": 81, "velocity": 92, "duration": 208}, {"note": 81, "velocity": 91, "duration": 120}, {"note": 78, "velocity": 91, "duration": 120}, {"note": 76, "velocity": 91, "duration": 503}, {"note": 0, "velocity": 0, "duration": 217}, {"note": 78, "velocity": 92, "duration": 115}, {"note": 79, "velocity": 88, "duration": 131}, {"note": 81, "velocity": 94, "duration": 290}, {"note": 0, "velocity": 0, "duration": 70}, {"note": 83, "velocity": 92, "duration": 81}, {"note": 78, "velocity": 97, "duration": 81}, {"note": 79, "velocity": 94, "duration": 101}, {"note": 78, "velocity": 91, "duration": 144}, {"note": 76, "velocity": 97, "duration": 110}, {"note": 74, "velocity": 97, "duration": 542}, {"note": 0, "velocity": 0, "duration": 178}, {"note": 74, "velocity": 97, "duration": 75}, {"note": 76, "velocity": 96, "duration": 70}, {"note": 78, "velocity": 92, "duration": 253}, {"note": 0, "velocity": 0, "duration": 107}, {"note": 83, "velocity": 94, "duration": 97}, {"note": 81, "velocity": 88, "duration": 56}, {"note": 0, "velocity": 0, "duration": 64}, {"note": 83, "velocity": 93, "duration": 85}, {"note": 74, "velocity": 99, "duration": 95}, {"note": 78, "velocity": 94, "duration": 96}, {"note": 76, "velocity": 96, "duration": 573}, {"note": 0, "velocity": 0, "duration": 147}, {"note": 74, "velocity": 97, "duration": 68}, {"note": 76, "velocity": 94, "duration": 83}, {"note": 78, "velocity": 92, "duration": 280}, {"note": 0, "velocity": 0, "duration": 80}, {"note": 83, "velocity": 92, "duration": 83}, {"note": 81, "velocity": 94, "duration": 83}, {"note": 81, "velocity": 92, "duration": 68}, {"note": 78, "velocity": 94, "duration": 100}, {"note": 74, "velocity": 95, "duration": 120}, {"note": 71, "velocity": 92, "duration": 555}, {"note": 0, "velocity": 0, "duration": 165}, {"note": 83, "velocity": 94, "duration": 107}, {"note": 81, "velocity": 95, "duration": 73}, {"note": 78, "velocity": 92, "duration": 279}, {"note": 0, "velocity": 0, "duration": 81}, {"note": 83, "velocity": 92, "duration": 91}, {"note": 81, "velocity": 92, "duration": 208}, {"note": 81, "velocity": 91, "duration": 120}, {"note": 78, "velocity": 91, "duration": 120}, {"note": 76, "velocity": 91, "duration": 960}, {"note": 0, "velocity": 0, "duration": 480}, {"note": 76, "velocity": 101, "duration": 219}, {"note": 74, "velocity": 92, "duration": 120}, {"note": 71, "velocity": 92, "duration": 151}, {"note": 74, "velocity": 94, "duration": 1172}]]