[[{"note": 68, "velocity": 92, "duration": 219}, {"note": 66, "velocity": 90, "duration": 243}, {"note": 65, "velocity": 96, "duration": 376}, {"note": 0, "velocity": 0, "duration": 104}, {"note": 63, "velocity": 90, "duration": 205}, {"note": 61, "velocity": 93, "duration": 586}, {"note": 0, "velocity": 0, "duration": 134}, {"note": 70, "velocity": 91, "duration": 174}, {"note": 0, "velocity": 0, "duration": 66}, {"note": 68, "velocity": 91, "duration": 912}, {"note": 61, "velocity": 92, "duration": 202}, {"note": 63, "velocity": 90, "duration": 228}, {"note": 61, "velocity": 91, "duration": 205}, {"note": 60, "velocity": 89, "duration": 201}, {"note": 61, "velocity": 93, "duration": 170}, {"note": 0, "velocity": 0, "duration": 70}, {"note": 63, "velocity": 88, "duration": 367}, {"note": 0, "velocity": 0, "duration": 113}, {"note": 63, "velocity": 88, "duration": 143}, {"note": 0, "velocity": 0, "duration": 97}, {"note": 63, "velocity": 87, "duration": 136}, {"note": 0, "velocity": 0, "duration": 104}, {"note": 63, "velocity": 88, "duration": 174}, {"note": 0, "velocity": 0, "duration": 66}, {"note": 66, "velocity": 89, "duration": 366}, {"note": 0, "velocity": 0, "duration": 114}, {"note": 65, "velocity": 93, "duration": 853}, {"note": 0, "velocity": 0, "duration": 107}, {"note": 65, "velocity": 89, "duration": 110}, {"note": 0, "velocity": 0, "duration": 130}, {"note": 65, "velocity": 94, "duration": 236}, {"note": 70, "velocity": 89, "duration": 316}, {"note": 0, "velocity": 0, "duration": 164}, {"note": 70, "velocity": 90, "duration": 393}, {"note": 0, "velocity": 0, "duration": 87}, {"note": 68, "velocity": 85, "duration": 172}, {"note": 0, "velocity": 0, "duration": 68}, {"note": 70, "velocity": 90, "duration": 202}, {"note": 66, "velocity": 91, "duration": 169}, {"note": 0, "velocity": 0, "duration": 71}, {"note": 66, "velocity": 90, "duration": 480}, {"note": 68, "velocity": 91, "duration": 189}, {"note": 65, "velocity": 95, "duration": 527}, {"note": 68, "velocity": 89, "duration": 247}, {"note": 63, "velocity": 90, "duration": 262}, {"note": 61, "velocity": 91, "duration": 480}, {"note": 0, "velocity": 0, "duration": 240}, {"note": 56, "velocity": 91, "duration": 147}, {"note": 0, "velocity": 0, "duration": 93}, {"note": 56, "velocity": 90, "duration": 201}, {"note": 65, "velocity": 91, "duration": 347}, {"note": 0, "velocity": 0, "duration": 133}, {"note": 61, "velocity": 91, "duration": 138}, {"note": 0, "velocity": 0, "duration": 102}, {"note": 61, "velocity": 90, "duration": 146}, {"note": 0, "velocity": 0, "duration": 94}, {"note": 61, "velocity": 90, "duration": 210}, {"note": 58, "velocity": 90, "duration": 260}, {"note": 0, "velocity": 0, "duration": 460}, {"note": 70, "velocity": 89, "duration": 386}, {"note": 0, "velocity": 0, "duration": 94}, {"note": 68, "velocity": 83, "duration": 201}, {"note": 65, "velocity": 95, "duration": 297}, {"note": 63, "velocity": 89, "duration": 1009}, {"note": 0, "velocity": 0, "duration": 1391}, {"note": 68, "velocity": 92, "duration": 219}, {"note": 66, "velocity": 90, "duration": 243}, {"note": 65, "velocity": 96, "duration": 376}, {"note": 0, "velocity": 0, "duration": 104}, {"note": 65, "velocity": 90, "duration": 205}, {"note": 65, "velocity": 93, "duration": 402}, {"note": 0, "velocity": 0, "duration": 78}, {"note": 63, "velocity": 89, "duration": 195}, {"note": 61, "velocity": 90, "duration": 237}, {"note": 63, "velocity": 91, "duration": 503}, {"note": 68, "velocity": 86, "duration": 561}, {"note": 0, "velocity": 0, "duration": 639}, {"note": 65, "velocity": 96, "duration": 187}, {"note": 68, "velocity": 91, "duration": 164}, {"note": 0, "velocity": 0, "duration": 76}, {"note": 70, "velocity": 92, "duration": 466}, {"note": 65, "velocity": 94, "duration": 124}, {"note": 0, "velocity": 0, "duration": 116}, {"note": 65, "velocity": 91, "duration": 128}, {"note": 0, "velocity": 0, "duration": 112}, {"note": 65, "velocity": 93, "duration": 183}, {"note": 63, "velocity": 93, "duration": 406}, {"note": 0, "velocity": 0, "duration": 74}, {"note": 65, "velocity": 91, "duration": 940}, {"note": 0, "velocity": 0, "duration": 740}, {"note": 65, "velocity": 93, "duration": 176}, {"note": 0, "velocity": 0, "duration": 64}, {"note": 68, "velocity": 90, "duration": 195}, {"note": 70, "velocity": 90, "duration": 459}, {"note": 68, "velocity": 92, "duration": 130}, {"note": 0, "velocity": 0, "duration": 110}, {"note": 70, "velocity": 92, "duration": 558}, {"note": 0, "velocity": 0, "duration": 162}, {"note": 70, "velocity": 91, "duration": 153}, {"note": 0, "velocity": 0, "duration": 87}, {"note": 73, "velocity": 90, "duration": 139}, {"note": 0, "velocity": 0, "duration": 101}, {"note": 68, "velocity": 90, "duration": 390}, {"note": 0, "velocity": 0, "duration": 90}, {"note": 68, "velocity": 91, "duration": 188}, {"note": 70, "velocity": 90, "duration": 423}, {"note": 65, "velocity": 94, "duration": 559}, {"note": 0, "velocity": 0, "duration": 161}, {"note": 66, "velocity": 87, "duration": 237}, {"note": 65, "velocity": 83, "duration": 234}, {"note": 63, "velocity": 90, "duration": 173}, {"note": 0, "velocity": 0, "duration": 67}, {"note": 63, "velocity": 90, "duration": 584}, {"note": 0, "velocity": 0, "duration": 136}, {"note": 70, "velocity": 89, "duration": 153}, {"note": 0, "velocity": 0, "duration": 87}, {"note": 70, "velocity": 93, "duration": 361}, {"note": 0, "velocity": 0, "duration": 119}, {"note": 68, "velocity": 89, "duration": 1843}, {"note": 0, "velocity": 0, "duration": 557}, {"note": 68, "velocity": 89, "duration": 143}, {"note": 0, "velocity": 0, "duration": 97}, {"note": 68, "velocity": 90, "duration": 168}, {"note": 0, "velocity": 0, "duration": 72}, {"note": 70, "velocity": 96, "duration": 394}, {"note": 0, "velocity": 0, "duration": 86}, {"note": 68, "velocity": 95, "duration": 211}, {"note": 77, "velocity": 96, "duration": 153}, {"note": 0, "velocity": 0, "duration": 87}, {"note": 77, "velocity": 93, "duration": 137}, {"note": 0, "velocity": 0, "duration": 103}, {"note": 77, "velocity": 93, "duration": 134}, {"note": 0, "velocity": 0, "duration": 106}, {"note": 77, "velocity": 96, "duration": 240}, {"note": 77, "velocity": 96, "duration": 394}, {"note": 0, "velocity": 0, "duration": 86}, {"note": 75, "velocity": 100, "duration": 195}, {"note": 73, "velocity": 91, "duration": 174}, {"note": 0, "velocity": 0, "duration": 66}, {"note": 75, "velocity": 96, "duration": 588}, {"note": 0, "velocity": 0, "duration": 132}, {"note": 68, "velocity": 89, "duration": 175}, {"note": 0, "velocity": 0, "duration": 65}, {"note": 75, "velocity": 95, "duration": 330}, {"note": 0, "velocity": 0, "duration": 150}, {"note": 75, "velocity": 96, "duration": 139}, {"note": 0, "velocity": 0, "duration": 101}, {"note": 77, "velocity": 89, "duration": 190}, {"note": 75, "velocity": 94, "duration": 176}, {"note": 0, "velocity": 0, "duration": 64}, {"note": 73, "velocity": 88, "duration": 128}, {"note": 0, "velocity": 0, "duration": 112}, {"note": 73, "velocity": 91, "duration": 133}, {"note": 0, "velocity": 0, "duration": 107}, {"note": 73, "velocity": 91, "duration": 156}, {"note": 0, "velocity": 0, "duration": 84}, {"note": 72, "velocity": 93, "duration": 394}, {"note": 0, "velocity": 0, "duration": 86}, {"note": 73, "velocity": 90, "duration": 176}, {"note": 0, "velocity": 0, "duration": 64}, {"note": 65, "velocity": 96, "duration": 162}, {"note": 0, "velocity": 0, "duration": 78}, {"note": 68, "velocity": 88, "duration": 518}, {"note": 0, "velocity": 0, "duration": 202}, {"note": 68, "velocity": 90, "duration": 142}, {"note": 0, "velocity": 0, "duration": 98}, {"note": 70, "velocity": 93, "duration": 207}, {"note": 68, "velocity": 89, "duration": 148}, {"note": 0, "velocity": 0, "duration": 92}, {"note": 70, "velocity": 91, "duration": 172}, {"note": 0, "velocity": 0, "duration": 68}, {"note": 73, "velocity": 92, "duration": 725}, {"note": 0, "velocity": 0, "duration": 235}, {"note": 73, "velocity": 100, "duration": 125}, {"note": 0, "velocity": 0, "duration": 115}, {"note": 73, "velocity": 93, "duration": 342}, {"note": 0, "velocity": 0, "duration": 138}, {"note": 70, "velocity": 91, "duration": 195}, {"note": 65, "velocity": 93, "duration": 621}, {"note": 0, "velocity": 0, "duration": 219}, {"note": 68, "velocity": 89, "duration": 178}, {"note": 0, "velocity": 0, "duration": 182}, {"note": 68, "velocity": 92, "duration": 390}, {"note": 0, "velocity": 0, "duration": 90}, {"note": 70, "velocity": 95, "duration": 171}, {"note": 0, "velocity": 0, "duration": 69}, {"note": 68, "velocity": 95, "duration": 157}, {"note": 0, "velocity": 0, "duration": 83}, {"note": 77, "velocity": 94, "duration": 326}, {"note": 0, "velocity": 0, "duration": 154}, {"note": 73, "velocity": 93, "duration": 157}, {"note": 0, "velocity": 0, "duration": 83}, {"note": 73, "velocity": 95, "duration": 240}, {"note": 73, "velocity": 95, "duration": 370}, {"note": 0, "velocity": 0, "duration": 110}, {"note": 77, "velocity": 92, "duration": 166}, {"note": 0, "velocity": 0, "duration": 74}, {"note": 75, "velocity": 93, "duration": 779}, {"note": 0, "velocity": 0, "duration": 181}, {"note": 68, "velocity": 100, "duration": 126}, {"note": 0, "velocity": 0, "duration": 114}, {"note": 73, "velocity": 89, "duration": 161}, {"note": 0, "velocity": 0, "duration": 79}, {"note": 75, "velocity": 105, "duration": 104}, {"note": 0, "velocity": 0, "duration": 136}, {"note": 75, "velocity": 90, "duration": 166}, {"note": 0, "velocity": 0, "duration": 74}, {"note": 73, "velocity": 91, "duration": 144}, {"note": 0, "velocity": 0, "duration": 96}, {"note": 77, "velocity": 90, "duration": 144}, {"note": 0, "velocity": 0, "duration": 96}, {"note": 77, "velocity": 89, "duration": 124}, {"note": 0, "velocity": 0, "duration": 116}, {"note": 77, "velocity": 91, "duration": 148}, {"note": 0, "velocity": 0, "duration": 92}, {"note": 77, "velocity": 91, "duration": 147}, {"note": 0, "velocity": 0, "duration": 93}, {"note": 77, "velocity": 92, "duration": 182}, {"note": 0, "velocity": 0, "duration": 178}, {"note": 75, "velocity": 94, "duration": 150}, {"note": 0, "velocity": 0, "duration": 210}, {"note": 73, "velocity": 89, "duration": 233}, {"note": 75, "velocity": 98, "duration": 592}, {"note": 0, "velocity": 0, "duration": 128}, {"note": 68, "velocity": 90, "duration": 220}, {"note": 75, "velocity": 100, "duration": 366}, {"note": 0, "velocity": 0, "duration": 114}, {"note": 75, "velocity": 93, "duration": 154}, {"note": 0, "velocity": 0, "duration": 86}, {"note": 77, "velocity": 89, "duration": 168}, {"note": 0, "velocity": 0, "duration": 72}, {"note": 75, "velocity": 93, "duration": 172}, {"note": 0, "velocity": 0, "duration": 68}, {"note": 73, "velocity": 89, "duration": 118}, {"note": 0, "velocity": 0, "duration": 122}, {"note": 73, "velocity": 91, "duration": 176}, {"note": 0, "velocity": 0, "duration": 64}, {"note": 70, "velocity": 90, "duration": 193}, {"note": 73, "velocity": 98, "duration": 314}, {"note": 0, "velocity": 0, "duration": 166}, {"note": 65, "velocity": 93, "duration": 209}, {"note": 68, "velocity": 91, "duration": 828}, {"note": 0, "velocity": 0, "duration": 132}, {"note": 68, "velocity": 93, "duration": 146}, {"note": 0, "velocity": 0, "duration": 94}, {"note": 70, "velocity": 93, "duration": 233}, {"note": 68, "velocity": 89, "duration": 143}, {"note": 0, "velocity": 0, "duration": 97}, {"note": 70, "velocity": 93, "duration": 163}, {"note": 0, "velocity": 0, "duration": 77}, {"note": 73, "velocity": 91, "duration": 831}, {"note": 0, "velocity": 0, "duration": 129}, {"note": 73, "velocity": 92, "duration": 139}, {"note": 0, "velocity": 0, "duration": 101}, {"note": 73, "velocity": 93, "duration": 347}, {"note": 0, "velocity": 0, "duration": 133}, {"note": 70, "velocity": 89, "duration": 178}, {"note": 0, "velocity": 0, "duration": 62}, {"note": 68, "velocity": 87, "duration": 743}, {"note": 0, "velocity": 0, "duration": 217}, {"note": 68, "velocity": 91, "duration": 177}, {"note": 0, "velocity": 0, "duration": 63}, {"note": 70, "velocity": 93, "duration": 162}, {"note": 0, "velocity": 0, "duration": 78}, {"note": 68, "velocity": 91, "duration": 219}, {"note": 70, "velocity": 96, "duration": 163}, {"note": 0, "velocity": 0, "duration": 77}, {"note": 77, "velocity": 96, "duration": 376}, {"note": 0, "velocity": 0, "duration": 104}, {"note": 73, "velocity": 89, "duration": 152}, {"note": 0, "velocity": 0, "duration": 88}, {"note": 73, "velocity": 90, "duration": 174}, {"note": 0, "velocity": 0, "duration": 66}, {"note": 70, "velocity": 93, "duration": 209}, {"note": 73, "velocity": 96, "duration": 185}, {"note": 77, "velocity": 96, "duration": 377}, {"note": 0, "velocity": 0, "duration": 103}, {"note": 75, "velocity": 92, "duration": 1938}, {"note": 0, "velocity": 0, "duration": 942}, {"note": 68, "velocity": 93, "duration": 189}, {"note": 75, "velocity": 95, "duration": 275}, {"note": 73, "velocity": 92, "duration": 215}, {"note": 72, "velocity": 90, "duration": 228}, {"note": 75, "velocity": 95, "duration": 667}, {"note": 73, "velocity": 91, "duration": 1840}, {"note": 0, "velocity": 0, "duration": 12560}, {"note": 68, "velocity": 92, "duration": 219}, {"note": 66, "velocity": 90, "duration": 243}, {"note": 65, "velocity": 96, "duration": 376}, {"note": 0, "velocity": 0, "duration": 104}, {"note": 65, "velocity": 90, "duration": 205}, {"note": 65, "velocity": 93, "duration": 402}, {"note": 0, "velocity": 0, "duration": 78}, {"note": 63, "velocity": 89, "duration": 195}, {"note": 61, "velocity": 90, "duration": 237}, {"note": 63, "velocity": 91, "duration": 503}, {"note": 68, "velocity": 86, "duration": 561}, {"note": 0, "velocity": 0, "duration": 639}, {"note": 65, "velocity": 96, "duration": 187}, {"note": 68, "velocity": 91, "duration": 164}, {"note": 0, "velocity": 0, "duration": 76}, {"note": 70, "velocity": 92, "duration": 466}, {"note": 65, "velocity": 94, "duration": 124}, {"note": 0, "velocity": 0, "duration": 116}, {"note": 65, "velocity": 91, "duration": 128}, {"note": 0, "velocity": 0, "duration": 112}, {"note": 65, "velocity": 93, "duration": 183}, {"note": 63, "velocity": 93, "duration": 406}, {"note": 0, "velocity": 0, "duration": 74}, {"note": 65, "velocity": 91, "duration": 940}, {"note": 0, "velocity": 0, "duration": 740}, {"note": 65, "velocity": 93, "duration": 176}, {"note": 0, "velocity": 0, "duration": 64}, {"note": 68, "velocity": 90, "duration": 195}, {"note": 70, "velocity": 90, "duration": 459}, {"note": 68, "velocity": 92, "duration": 130}, {"note": 0, "velocity": 0, "duration": 110}, {"note": 70, "velocity": 92, "duration": 558}, {"note": 0, "velocity": 0, "duration": 162}, {"note": 70, "velocity": 91, "duration": 153}, {"note": 0, "velocity": 0, "duration": 87}, {"note": 73, "velocity": 90, "duration": 139}, {"note": 0, "velocity": 0, "duration": 101}, {"note": 68, "velocity": 90, "duration": 390}, {"note": 0, "velocity": 0, "duration": 90}, {"note": 68, "velocity": 91, "duration": 188}, {"note": 70, "velocity": 90, "duration": 423}, {"note": 65, "velocity": 94, "duration": 559}, {"note": 0, "velocity": 0, "duration": 161}, {"note": 66, "velocity": 87, "duration": 237}, {"note": 65, "velocity": 83, "duration": 234}, {"note": 63, "velocity": 90, "duration": 173}, {"note": 0, "velocity": 0, "duration": 67}, {"note": 63, "velocity": 90, "duration": 584}, {"note": 0, "velocity": 0, "duration": 136}, {"note": 70, "velocity": 89, "duration": 153}, {"note": 0, "velocity": 0, "duration": 87}, {"note": 70, "velocity": 93, "duration": 361}, {"note": 0, "velocity": 0, "duration": 119}, {"note": 68, "velocity": 89, "duration": 1843}, {"note": 0, "velocity": 0, "duration": 557}, {"note": 68, "velocity": 89, "duration": 143}, {"note": 0, "velocity": 0, "duration": 97}, {"note": 68, "velocity": 90, "duration": 168}, {"note": 0, "velocity": 0, "duration": 72}, {"note": 70, "velocity": 96, "duration": 394}, {"note": 0, "velocity": 0, "duration": 86}, {"note": 68, "velocity": 95, "duration": 211}, {"note": 77, "velocity": 96, "duration": 153}, {"note": 0, "velocity": 0, "duration": 87}, {"note": 77, "velocity": 93, "duration": 137}, {"note": 0, "velocity": 0, "duration": 103}, {"note": 77, "velocity": 93, "duration": 134}, {"note": 0, "velocity": 0, "duration": 106}, {"note": 77, "velocity": 96, "duration": 240}, {"note": 77, "velocity": 96, "duration": 394}, {"note": 0, "velocity": 0, "duration": 86}, {"note": 75, "velocity": 100, "duration": 195}, {"note": 73, "velocity": 91, "duration": 174}, {"note": 0, "velocity": 0, "duration": 66}, {"note": 75, "velocity": 96, "duration": 588}, {"note": 0, "velocity": 0, "duration": 132}, {"note": 68, "velocity": 89, "duration": 175}, {"note": 0, "velocity": 0, "duration": 65}, {"note": 75, "velocity": 95, "duration": 330}, {"note": 0, "velocity": 0, "duration": 150}, {"note": 75, "velocity": 96, "duration": 139}, {"note": 0, "velocity": 0, "duration": 101}, {"note": 77, "velocity": 89, "duration": 190}, {"note": 75, "velocity": 94, "duration": 176}, {"note": 0, "velocity": 0, "duration": 64}, {"note": 73, "velocity": 88, "duration": 128}, {"note": 0, "velocity": 0, "duration": 112}, {"note": 73, "velocity": 91, "duration": 133}, {"note": 0, "velocity": 0, "duration": 107}, {"note": 73, "velocity": 91, "duration": 156}, {"note": 0, "velocity": 0, "duration": 84}, {"note": 72, "velocity": 93, "duration": 394}, {"note": 0, "velocity": 0, "duration": 86}, {"note": 73, "velocity": 90, "duration": 176}, {"note": 0, "velocity": 0, "duration": 64}, {"note": 65, "velocity": 96, "duration": 162}, {"note": 0, "velocity": 0, "duration": 78}, {"note": 68, "velocity": 88, "duration": 518}, {"note": 0, "velocity": 0, "duration": 202}, {"note": 68, "velocity": 90, "duration": 142}, {"note": 0, "velocity": 0, "duration": 98}, {"note": 70, "velocity": 93, "duration": 207}, {"note": 68, "velocity": 89, "duration": 148}, {"note": 0, "velocity": 0, "duration": 92}, {"note": 70, "velocity": 91, "duration": 172}, {"note": 0, "velocity": 0, "duration": 68}, {"note": 73, "velocity": 92, "duration": 725}, {"note": 0, "velocity": 0, "duration": 235}, {"note": 73, "velocity": 100, "duration": 125}, {"note": 0, "velocity": 0, "duration": 115}, {"note": 73, "velocity": 93, "duration": 342}, {"note": 0, "velocity": 0, "duration": 138}, {"note": 70, "velocity": 91, "duration": 195}, {"note": 65, "velocity": 93, "duration": 621}, {"note": 0, "velocity": 0, "duration": 219}, {"note": 68, "velocity": 89, "duration": 178}, {"note": 0, "velocity": 0, "duration": 182}, {"note": 68, "velocity": 92, "duration": 390}, {"note": 0, "velocity": 0, "duration": 90}, {"note": 70, "velocity": 95, "duration": 171}, {"note": 0, "velocity": 0, "duration": 69}, {"note": 68, "velocity": 95, "duration": 157}, {"note": 0, "velocity": 0, "duration": 83}, {"note": 77, "velocity": 94, "duration": 326}, {"note": 0, "velocity": 0, "duration": 154}, {"note": 73, "velocity": 93, "duration": 157}, {"note": 0, "velocity": 0, "duration": 83}, {"note": 73, "velocity": 95, "duration": 240}, {"note": 73, "velocity": 95, "duration": 370}, {"note": 0, "velocity": 0, "duration": 110}, {"note": 77, "velocity": 92, "duration": 166}, {"note": 0, "velocity": 0, "duration": 74}, {"note": 75, "velocity": 93, "duration": 779}, {"note": 0, "velocity": 0, "duration": 181}, {"note": 68, "velocity": 100, "duration": 126}, {"note": 0, "velocity": 0, "duration": 114}, {"note": 73, "velocity": 89, "duration": 161}, {"note": 0, "velocity": 0, "duration": 79}, {"note": 75, "velocity": 105, "duration": 104}, {"note": 0, "velocity": 0, "duration": 136}, {"note": 75, "velocity": 90, "duration": 166}, {"note": 0, "velocity": 0, "duration": 74}, {"note": 73, "velocity": 91, "duration": 144}, {"note": 0, "velocity": 0, "duration": 96}, {"note": 77, "velocity": 90, "duration": 144}, {"note": 0, "velocity": 0, "duration": 96}, {"note": 77, "velocity": 89, "duration": 124}, {"note": 0, "velocity": 0, "duration": 116}, {"note": 77, "velocity": 91, "duration": 148}, {"note": 0, "velocity": 0, "duration": 92}, {"note": 77, "velocity": 91, "duration": 147}, {"note": 0, "velocity": 0, "duration": 93}, {"note": 77, "velocity": 92, "duration": 182}, {"note": 0, "velocity": 0, "duration": 178}, {"note": 75, "velocity": 94, "duration": 150}, {"note": 0, "velocity": 0, "duration": 210}, {"note": 73, "velocity": 89, "duration": 233}, {"note": 75, "velocity": 98, "duration": 592}, {"note": 0, "velocity": 0, "duration": 128}, {"note": 68, "velocity": 90, "duration": 220}, {"note": 75, "velocity": 100, "duration": 366}, {"note": 0, "velocity": 0, "duration": 114}, {"note": 75, "velocity": 93, "duration": 154}, {"note": 0, "velocity": 0, "duration": 86}, {"note": 77, "velocity": 89, "duration": 168}, {"note": 0, "velocity": 0, "duration": 72}, {"note": 75, "velocity": 93, "duration": 172}, {"note": 0, "velocity": 0, "duration": 68}, {"note": 73, "velocity": 89, "duration": 118}, {"note": 0, "velocity": 0, "duration": 122}, {"note": 73, "velocity": 91, "duration": 176}, {"note": 0, "velocity": 0, "duration": 64}, {"note": 70, "velocity": 90, "duration": 193}, {"note": 73, "velocity": 98, "duration": 314}, {"note": 0, "velocity": 0, "duration": 166}, {"note": 65, "velocity": 93, "duration": 209}, {"note": 68, "velocity": 91, "duration": 828}, {"note": 0, "velocity": 0, "duration": 132}, {"note": 68, "velocity": 93, "duration": 146}, {"note": 0, "velocity": 0, "duration": 94}, {"note": 70, "velocity": 93, "duration": 233}, {"note": 68, "velocity": 89, "duration": 143}, {"note": 0, "velocity": 0, "duration": 97}, {"note": 70, "velocity": 93, "duration": 163}, {"note": 0, "velocity": 0, "duration": 77}, {"note": 73, "velocity": 91, "duration": 831}, {"note": 0, "velocity": 0, "duration": 129}, {"note": 73, "velocity": 92, "duration": 139}, {"note": 0, "velocity": 0, "duration": 101}, {"note": 73, "velocity": 93, "duration": 347}, {"note": 0, "velocity": 0, "duration": 133}, {"note": 70, "velocity": 89, "duration": 178}, {"note": 0, "velocity": 0, "duration": 62}, {"note": 68, "velocity": 87, "duration": 743}, {"note": 0, "velocity": 0, "duration": 217}, {"note": 68, "velocity": 91, "duration": 177}, {"note": 0, "velocity": 0, "duration": 63}, {"note": 70, "velocity": 93, "duration": 162}, {"note": 0, "velocity": 0, "duration": 78}, {"note": 68, "velocity": 91, "duration": 219}, {"note": 70, "velocity": 96, "duration": 163}, {"note": 0, "velocity": 0, "duration": 77}, {"note": 77, "velocity": 96, "duration": 376}, {"note": 0, "velocity": 0, "duration": 104}, {"note": 73, "velocity": 89, "duration": 152}, {"note": 0, "velocity": 0, "duration": 88}, {"note": 73, "velocity": 90, "duration": 174}, {"note": 0, "velocity": 0, "duration": 66}, {"note": 70, "velocity": 93, "duration": 209}, {"note": 73, "velocity": 96, "duration": 185}, {"note": 77, "velocity": 96, "duration": 377}, {"note": 0, "velocity": 0, "duration": 103}, {"note": 75, "velocity": 92, "duration": 720}, {"note": 0, "velocity": 0, "duration": 240}, {"note": 68, "velocity": 89, "duration": 143}, {"note": 0, "velocity": 0, "duration": 97}, {"note": 68, "velocity": 90, "duration": 168}, {"note": 0, "velocity": 0, "duration": 72}, {"note": 70, "velocity": 96, "duration": 394}, {"note": 0, "velocity": 0, "duration": 86}, {"note": 68, "velocity": 95, "duration": 211}, {"note": 77, "velocity": 96, "duration": 153}, {"note": 0, "velocity": 0, "duration": 87}, {"note": 77, "velocity": 93, "duration": 137}, {"note": 0, "velocity": 0, "duration": 103}, {"note": 77, "velocity": 93, "duration": 134}, {"note": 0, "velocity": 0, "duration": 106}, {"note": 77, "velocity": 96, "duration": 240}, {"note": 77, "velocity": 96, "duration": 394}, {"note": 0, "velocity": 0, "duration": 86}, {"note": 75, "velocity": 100, "duration": 195}, {"note": 73, "velocity": 91, "duration": 174}, {"note": 0, "velocity": 0, "duration": 66}, {"note": 75, "velocity": 96, "duration": 588}, {"note": 0, "velocity": 0, "duration": 612}, {"note": 68, "velocity": 89, "duration": 175}, {"note": 0, "velocity": 0, "duration": 65}, {"note": 77, "velocity": 96, "duration": 139}, {"note": 0, "velocity": 0, "duration": 101}, {"note": 75, "velocity": 89, "duration": 190}, {"note": 75, "velocity": 94, "duration": 176}, {"note": 0, "velocity": 0, "duration": 64}, {"note": 73, "velocity": 88, "duration": 128}, {"note": 0, "velocity": 0, "duration": 112}, {"note": 73, "velocity": 91, "duration": 133}, {"note": 0, "velocity": 0, "duration": 107}, {"note": 73, "velocity": 91, "duration": 156}, {"note": 0, "velocity": 0, "duration": 84}, {"note": 75, "velocity": 93, "duration": 394}, {"note": 0, "velocity": 0, "duration": 86}, {"note": 73, "velocity": 90, "duration": 176}, {"note": 0, "velocity": 0, "duration": 64}, {"note": 65, "velocity": 96, "duration": 162}, {"note": 0, "velocity": 0, "duration": 78}, {"note": 68, "velocity": 88, "duration": 518}, {"note": 0, "velocity": 0, "duration": 682}, {"note": 68, "velocity": 89, "duration": 148}, {"note": 0, "velocity": 0, "duration": 92}, {"note": 70, "velocity": 91, "duration": 172}, {"note": 0, "velocity": 0, "duration": 68}, {"note": 73, "velocity": 92, "duration": 725}, {"note": 0, "velocity": 0, "duration": 235}, {"note": 73, "velocity": 100, "duration": 125}, {"note": 0, "velocity": 0, "duration": 115}, {"note": 73, "velocity": 93, "duration": 342}, {"note": 0, "velocity": 0, "duration": 138}, {"note": 70, "velocity": 91, "duration": 195}, {"note": 65, "velocity": 93, "duration": 621}, {"note": 0, "velocity": 0, "duration": 339}, {"note": 68, "velocity": 89, "duration": 178}, {"note": 0, "velocity": 0, "duration": 62}, {"note": 68, "velocity": 92, "duration": 390}, {"note": 0, "velocity": 0, "duration": 90}, {"note": 70, "velocity": 95, "duration": 171}, {"note": 0, "velocity": 0, "duration": 69}, {"note": 68, "velocity": 95, "duration": 157}, {"note": 0, "velocity": 0, "duration": 83}, {"note": 77, "velocity": 94, "duration": 326}, {"note": 0, "velocity": 0, "duration": 154}, {"note": 73, "velocity": 93, "duration": 157}, {"note": 0, "velocity": 0, "duration": 83}, {"note": 73, "velocity": 95, "duration": 240}, {"note": 73, "velocity": 95, "duration": 370}, {"note": 0, "velocity": 0, "duration": 110}, {"note": 77, "velocity": 92, "duration": 166}, {"note": 0, "velocity": 0, "duration": 74}, {"note": 75, "velocity": 93, "duration": 779}, {"note": 0, "velocity": 0, "duration": 181}, {"note": 68, "velocity": 100, "duration": 126}, {"note": 0, "velocity": 0, "duration": 114}, {"note": 73, "velocity": 89, "duration": 161}, {"note": 0, "velocity": 0, "duration": 79}, {"note": 75, "velocity": 105, "duration": 104}, {"note": 0, "velocity": 0, "duration": 136}, {"note": 75, "velocity": 90, "duration": 166}, {"note": 0, "velocity": 0, "duration": 74}, {"note": 73, "velocity": 91, "duration": 144}, {"note": 0, "velocity": 0, "duration": 96}, {"note": 77, "velocity": 90, "duration": 144}, {"note": 0, "velocity": 0, "duration": 96}, {"note": 77, "velocity": 89, "duration": 124}, {"note": 0, "velocity": 0, "duration": 116}, {"note": 77, "velocity": 91, "duration": 148}, {"note": 0, "velocity": 0, "duration": 92}, {"note": 77, "velocity": 91, "duration": 147}, {"note": 0, "velocity": 0, "duration": 93}, {"note": 77, "velocity": 92, "duration": 182}, {"note": 0, "velocity": 0, "duration": 178}, {"note": 75, "velocity": 94, "duration": 150}, {"note": 0, "velocity": 0, "duration": 210}, {"note": 73, "velocity": 89, "duration": 233}, {"note": 75, "velocity": 98, "duration": 592}, {"note": 0, "velocity": 0, "duration": 128}, {"note": 68, "velocity": 90, "duration": 220}, {"note": 0, "velocity": 0, "duration": 260}, {"note": 77, "velocity": 100, "duration": 240}, {"note": 77, "velocity": 93, "duration": 154}, {"note": 0, "velocity": 0, "duration": 86}, {"note": 75, "velocity": 89, "duration": 168}, {"note": 0, "velocity": 0, "duration": 72}, {"note": 75, "velocity": 93, "duration": 172}, {"note": 0, "velocity": 0, "duration": 68}, {"note": 73, "velocity": 89, "duration": 240}, {"note": 0, "velocity": 0, "duration": 240}, {"note": 73, "velocity": 90, "duration": 193}, {"note": 73, "velocity": 98, "duration": 314}, {"note": 0, "velocity": 0, "duration": 166}, {"note": 65, "velocity": 93, "duration": 209}, {"note": 68, "velocity": 91, "duration": 828}, {"note": 0, "velocity": 0, "duration": 132}, {"note": 68, "velocity": 93, "duration": 146}, {"note": 0, "velocity": 0, "duration": 94}, {"note": 70, "velocity": 93, "duration": 233}, {"note": 68, "velocity": 89, "duration": 143}, {"note": 0, "velocity": 0, "duration": 97}, {"note": 70, "velocity": 93, "duration": 163}, {"note": 0, "velocity": 0, "duration": 77}, {"note": 73, "velocity": 91, "duration": 831}, {"note": 0, "velocity": 0, "duration": 129}, {"note": 73, "velocity": 92, "duration": 139}, {"note": 0, "velocity": 0, "duration": 101}, {"note": 73, "velocity": 93, "duration": 347}, {"note": 0, "velocity": 0, "duration": 133}, {"note": 70, "velocity": 89, "duration": 178}, {"note": 0, "velocity": 0, "duration": 62}, {"note": 68, "velocity": 87, "duration": 743}, {"note": 0, "velocity": 0, "duration": 217}, {"note": 68, "velocity": 91, "duration": 177}, {"note": 0, "velocity": 0, "duration": 63}, {"note": 70, "velocity": 93, "duration": 162}, {"note": 0, "velocity": 0, "duration": 78}, {"note": 68, "velocity": 91, "duration": 219}, {"note": 70, "velocity": 96, "duration": 163}, {"note": 0, "velocity": 0, "duration": 77}, {"note": 77, "velocity": 96, "duration": 376}, {"note": 0, "velocity": 0, "duration": 104}, {"note": 73, "velocity": 89, "duration": 152}, {"note": 0, "velocity": 0, "duration": 88}, {"note": 73, "velocity": 90, "duration": 174}, {"note": 0, "velocity": 0, "duration": 66}, {"note": 70, "velocity": 93, "duration": 209}, {"note": 73, "velocity": 96, "duration": 185}, {"note": 77, "velocity": 96, "duration": 377}, {"note": 0, "velocity": 0, "duration": 103}, {"note": 75, "velocity": 92, "duration": 1938}, {"note": 0, "velocity": 0, "duration": 1182}, {"note": 73, "velocity": 90, "duration": 1002}, {"note": 0, "velocity": 0, "duration": 152}, {"note": 72, "velocity": 95, "duration": 736}, {"note": 0, "velocity": 0, "duration": 152}, {"note": 73, "velocity": 91, "duration": 1834}]]