[[{"note": 73, "velocity": 85, "duration": 187}, {"note": 73, "velocity": 91, "duration": 211}, {"note": 71, "velocity": 90, "duration": 226}, {"note": 73, "velocity": 93, "duration": 173}, {"note": 0, "velocity": 0, "duration": 67}, {"note": 73, "velocity": 92, "duration": 191}, {"note": 71, "velocity": 93, "duration": 187}, {"note": 73, "velocity": 92, "duration": 222}, {"note": 71, "velocity": 93, "duration": 1431}, {"note": 0, "velocity": 0, "duration": 729}, {"note": 73, "velocity": 96, "duration": 80}, {"note": 0, "velocity": 0, "duration": 160}, {"note": 73, "velocity": 96, "duration": 156}, {"note": 0, "velocity": 0, "duration": 84}, {"note": 73, "velocity": 85, "duration": 156}, {"note": 0, "velocity": 0, "duration": 84}, {"note": 76, "velocity": 91, "duration": 170}, {"note": 0, "velocity": 0, "duration": 70}, {"note": 75, "velocity": 90, "duration": 205}, {"note": 73, "velocity": 97, "duration": 188}, {"note": 71, "velocity": 93, "duration": 163}, {"note": 0, "velocity": 0, "duration": 69}, {"note": 68, "velocity": 91, "duration": 1537}, {"note": 0, "velocity": 0, "duration": 631}, {"note": 78, "velocity": 87, "duration": 175}, {"note": 0, "velocity": 0, "duration": 65}, {"note": 78, "velocity": 93, "duration": 304}, {"note": 71, "velocity": 92, "duration": 120}, {"note": 78, "velocity": 92, "duration": 135}, {"note": 0, "velocity": 0, "duration": 105}, {"note": 78, "velocity": 93, "duration": 186}, {"note": 71, "velocity": 91, "duration": 160}, {"note": 0, "velocity": 0, "duration": 80}, {"note": 73, "velocity": 93, "duration": 138}, {"note": 0, "velocity": 0, "duration": 107}, {"note": 76, "velocity": 93, "duration": 194}, {"note": 73, "velocity": 94, "duration": 1007}, {"note": 0, "velocity": 0, "duration": 913}, {"note": 78, "velocity": 91, "duration": 185}, {"note": 78, "velocity": 93, "duration": 176}, {"note": 0, "velocity": 0, "duration": 64}, {"note": 71, "velocity": 98, "duration": 155}, {"note": 0, "velocity": 0, "duration": 85}, {"note": 71, "velocity": 91, "duration": 182}, {"note": 68, "velocity": 92, "duration": 166}, {"note": 0, "velocity": 0, "duration": 74}, {"note": 71, "velocity": 92, "duration": 151}, {"note": 0, "velocity": 0, "duration": 89}, {"note": 73, "velocity": 90, "duration": 1287}, {"note": 0, "velocity": 0, "duration": 1113}, {"note": 73, "velocity": 84, "duration": 127}, {"note": 0, "velocity": 0, "duration": 113}, {"note": 73, "velocity": 92, "duration": 286}, {"note": 0, "velocity": 0, "duration": 74}, {"note": 71, "velocity": 91, "duration": 72}, {"note": 73, "velocity": 93, "duration": 147}, {"note": 0, "velocity": 0, "duration": 93}, {"note": 73, "velocity": 87, "duration": 178}, {"note": 0, "velocity": 0, "duration": 62}, {"note": 71, "velocity": 93, "duration": 160}, {"note": 0, "velocity": 0, "duration": 80}, {"note": 73, "velocity": 91, "duration": 216}, {"note": 71, "velocity": 92, "duration": 1041}, {"note": 0, "velocity": 0, "duration": 1119}, {"note": 73, "velocity": 93, "duration": 183}, {"note": 73, "velocity": 92, "duration": 163}, {"note": 0, "velocity": 0, "duration": 77}, {"note": 73, "velocity": 93, "duration": 188}, {"note": 76, "velocity": 93, "duration": 160}, {"note": 0, "velocity": 0, "duration": 80}, {"note": 75, "velocity": 91, "duration": 179}, {"note": 0, "velocity": 0, "duration": 61}, {"note": 73, "velocity": 96, "duration": 143}, {"note": 0, "velocity": 0, "duration": 97}, {"note": 71, "velocity": 97, "duration": 153}, {"note": 0, "velocity": 0, "duration": 87}, {"note": 68, "velocity": 93, "duration": 1591}, {"note": 0, "velocity": 0, "duration": 569}, {"note": 78, "velocity": 92, "duration": 167}, {"note": 0, "velocity": 0, "duration": 73}, {"note": 78, "velocity": 95, "duration": 162}, {"note": 0, "velocity": 0, "duration": 78}, {"note": 71, "velocity": 95, "duration": 163}, {"note": 0, "velocity": 0, "duration": 77}, {"note": 78, "velocity": 92, "duration": 153}, {"note": 0, "velocity": 0, "duration": 87}, {"note": 78, "velocity": 92, "duration": 135}, {"note": 0, "velocity": 0, "duration": 105}, {"note": 71, "velocity": 96, "duration": 138}, {"note": 0, "velocity": 0, "duration": 102}, {"note": 73, "velocity": 93, "duration": 172}, {"note": 0, "velocity": 0, "duration": 68}, {"note": 80, "velocity": 92, "duration": 183}, {"note": 76, "velocity": 76, "duration": 146}, {"note": 0, "velocity": 0, "duration": 94}, {"note": 73, "velocity": 96, "duration": 141}, {"note": 0, "velocity": 0, "duration": 99}, {"note": 76, "velocity": 96, "duration": 150}, {"note": 0, "velocity": 0, "duration": 90}, {"note": 73, "velocity": 97, "duration": 910}, {"note": 0, "velocity": 0, "duration": 290}, {"note": 78, "velocity": 92, "duration": 156}, {"note": 0, "velocity": 0, "duration": 84}, {"note": 78, "velocity": 92, "duration": 163}, {"note": 0, "velocity": 0, "duration": 77}, {"note": 71, "velocity": 93, "duration": 140}, {"note": 0, "velocity": 0, "duration": 100}, {"note": 71, "velocity": 91, "duration": 161}, {"note": 0, "velocity": 0, "duration": 79}, {"note": 68, "velocity": 94, "duration": 159}, {"note": 0, "velocity": 0, "duration": 81}, {"note": 71, "velocity": 92, "duration": 139}, {"note": 0, "velocity": 0, "duration": 101}, {"note": 73, "velocity": 86, "duration": 1556}, {"note": 0, "velocity": 0, "duration": 844}, {"note": 76, "velocity": 97, "duration": 167}, {"note": 0, "velocity": 0, "duration": 73}, {"note": 78, "velocity": 95, "duration": 164}, {"note": 0, "velocity": 0, "duration": 76}, {"note": 76, "velocity": 93, "duration": 112}, {"note": 0, "velocity": 0, "duration": 128}, {"note": 75, "velocity": 93, "duration": 94}, {"note": 76, "velocity": 97, "duration": 100}, {"note": 75, "velocity": 95, "duration": 96}, {"note": 73, "velocity": 93, "duration": 64}, {"note": 71, "velocity": 97, "duration": 175}, {"note": 0, "velocity": 0, "duration": 65}, {"note": 73, "velocity": 95, "duration": 2011}, {"note": 0, "velocity": 0, "duration": 389}, {"note": 76, "velocity": 97, "duration": 167}, {"note": 0, "velocity": 0, "duration": 73}, {"note": 78, "velocity": 95, "duration": 164}, {"note": 0, "velocity": 0, "duration": 76}, {"note": 76, "velocity": 93, "duration": 112}, {"note": 0, "velocity": 0, "duration": 126}, {"note": 75, "velocity": 97, "duration": 96}, {"note": 76, "velocity": 93, "duration": 77}, {"note": 75, "velocity": 95, "duration": 96}, {"note": 73, "velocity": 93, "duration": 64}, {"note": 71, "velocity": 97, "duration": 175}, {"note": 0, "velocity": 0, "duration": 65}, {"note": 68, "velocity": 95, "duration": 2011}, {"note": 0, "velocity": 0, "duration": 389}, {"note": 68, "velocity": 91, "duration": 98}, {"note": 69, "velocity": 86, "duration": 160}, {"note": 71, "velocity": 98, "duration": 207}, {"note": 73, "velocity": 95, "duration": 73}, {"note": 0, "velocity": 0, "duration": 167}, {"note": 75, "velocity": 87, "duration": 171}, {"note": 76, "velocity": 93, "duration": 131}, {"note": 75, "velocity": 93, "duration": 123}, {"note": 73, "velocity": 91, "duration": 119}, {"note": 71, "velocity": 98, "duration": 175}, {"note": 0, "velocity": 0, "duration": 65}, {"note": 69, "velocity": 100, "duration": 649}, {"note": 0, "velocity": 0, "duration": 1031}, {"note": 73, "velocity": 87, "duration": 188}, {"note": 76, "velocity": 93, "duration": 194}, {"note": 75, "velocity": 95, "duration": 188}, {"note": 71, "velocity": 92, "duration": 401}, {"note": 0, "velocity": 0, "duration": 79}, {"note": 69, "velocity": 91, "duration": 392}, {"note": 0, "velocity": 0, "duration": 88}, {"note": 68, "velocity": 97, "duration": 175}, {"note": 0, "velocity": 0, "duration": 65}, {"note": 66, "velocity": 93, "duration": 168}, {"note": 0, "velocity": 0, "duration": 72}, {"note": 69, "velocity": 89, "duration": 164}, {"note": 0, "velocity": 0, "duration": 76}, {"note": 68, "velocity": 92, "duration": 1509}, {"note": 0, "velocity": 0, "duration": 651}, {"note": 76, "velocity": 97, "duration": 167}, {"note": 0, "velocity": 0, "duration": 73}, {"note": 78, "velocity": 95, "duration": 164}, {"note": 0, "velocity": 0, "duration": 76}, {"note": 76, "velocity": 93, "duration": 112}, {"note": 0, "velocity": 0, "duration": 128}, {"note": 76, "velocity": 93, "duration": 183}, {"note": 75, "velocity": 95, "duration": 96}, {"note": 73, "velocity": 93, "duration": 64}, {"note": 71, "velocity": 97, "duration": 175}, {"note": 0, "velocity": 0, "duration": 65}, {"note": 73, "velocity": 95, "duration": 2011}, {"note": 0, "velocity": 0, "duration": 389}, {"note": 76, "velocity": 97, "duration": 167}, {"note": 0, "velocity": 0, "duration": 73}, {"note": 78, "velocity": 95, "duration": 164}, {"note": 0, "velocity": 0, "duration": 76}, {"note": 76, "velocity": 93, "duration": 112}, {"note": 0, "velocity": 0, "duration": 128}, {"note": 76, "velocity": 93, "duration": 183}, {"note": 75, "velocity": 95, "duration": 96}, {"note": 73, "velocity": 93, "duration": 64}, {"note": 71, "velocity": 97, "duration": 175}, {"note": 0, "velocity": 0, "duration": 65}, {"note": 68, "velocity": 95, "duration": 2011}, {"note": 0, "velocity": 0, "duration": 389}, {"note": 68, "velocity": 91, "duration": 98}, {"note": 69, "velocity": 86, "duration": 160}, {"note": 71, "velocity": 98, "duration": 207}, {"note": 73, "velocity": 95, "duration": 73}, {"note": 0, "velocity": 0, "duration": 167}, {"note": 75, "velocity": 87, "duration": 171}, {"note": 76, "velocity": 93, "duration": 131}, {"note": 75, "velocity": 93, "duration": 123}, {"note": 73, "velocity": 91, "duration": 119}, {"note": 71, "velocity": 98, "duration": 175}, {"note": 0, "velocity": 0, "duration": 65}, {"note": 69, "velocity": 100, "duration": 649}, {"note": 0, "velocity": 0, "duration": 791}, {"note": 61, "velocity": 102, "duration": 202}, {"note": 73, "velocity": 91, "duration": 153}, {"note": 0, "velocity": 0, "duration": 87}, {"note": 71, "velocity": 86, "duration": 92}, {"note": 69, "velocity": 91, "duration": 83}, {"note": 68, "velocity": 93, "duration": 1470}, {"note": 0, "velocity": 0, "duration": 210}, {"note": 69, "velocity": 93, "duration": 165}, {"note": 0, "velocity": 0, "duration": 75}, {"note": 66, "velocity": 102, "duration": 1884}, {"note": 0, "velocity": 0, "duration": 15636}, {"note": 76, "velocity": 84, "duration": 127}, {"note": 0, "velocity": 0, "duration": 113}, {"note": 76, "velocity": 92, "duration": 240}, {"note": 76, "velocity": 92, "duration": 240}, {"note": 76, "velocity": 93, "duration": 147}, {"note": 0, "velocity": 0, "duration": 93}, {"note": 76, "velocity": 87, "duration": 178}, {"note": 0, "velocity": 0, "duration": 62}, {"note": 75, "velocity": 93, "duration": 160}, {"note": 0, "velocity": 0, "duration": 80}, {"note": 73, "velocity": 91, "duration": 216}, {"note": 71, "velocity": 92, "duration": 1041}, {"note": 0, "velocity": 0, "duration": 1119}, {"note": 76, "velocity": 93, "duration": 183}, {"note": 76, "velocity": 92, "duration": 163}, {"note": 0, "velocity": 0, "duration": 77}, {"note": 76, "velocity": 93, "duration": 188}, {"note": 78, "velocity": 93, "duration": 160}, {"note": 0, "velocity": 0, "duration": 80}, {"note": 76, "velocity": 91, "duration": 179}, {"note": 0, "velocity": 0, "duration": 61}, {"note": 75, "velocity": 96, "duration": 143}, {"note": 0, "velocity": 0, "duration": 97}, {"note": 71, "velocity": 97, "duration": 153}, {"note": 0, "velocity": 0, "duration": 87}, {"note": 68, "velocity": 93, "duration": 1591}, {"note": 0, "velocity": 0, "duration": 569}, {"note": 78, "velocity": 92, "duration": 167}, {"note": 0, "velocity": 0, "duration": 73}, {"note": 78, "velocity": 95, "duration": 162}, {"note": 0, "velocity": 0, "duration": 78}, {"note": 71, "velocity": 95, "duration": 163}, {"note": 0, "velocity": 0, "duration": 77}, {"note": 78, "velocity": 92, "duration": 153}, {"note": 0, "velocity": 0, "duration": 87}, {"note": 78, "velocity": 92, "duration": 135}, {"note": 0, "velocity": 0, "duration": 105}, {"note": 71, "velocity": 96, "duration": 138}, {"note": 0, "velocity": 0, "duration": 102}, {"note": 73, "velocity": 93, "duration": 172}, {"note": 0, "velocity": 0, "duration": 68}, {"note": 80, "velocity": 92, "duration": 183}, {"note": 76, "velocity": 76, "duration": 146}, {"note": 0, "velocity": 0, "duration": 94}, {"note": 73, "velocity": 96, "duration": 141}, {"note": 0, "velocity": 0, "duration": 99}, {"note": 76, "velocity": 96, "duration": 150}, {"note": 0, "velocity": 0, "duration": 90}, {"note": 73, "velocity": 97, "duration": 910}, {"note": 0, "velocity": 0, "duration": 290}, {"note": 78, "velocity": 92, "duration": 156}, {"note": 0, "velocity": 0, "duration": 84}, {"note": 78, "velocity": 92, "duration": 163}, {"note": 0, "velocity": 0, "duration": 77}, {"note": 71, "velocity": 93, "duration": 140}, {"note": 0, "velocity": 0, "duration": 100}, {"note": 71, "velocity": 91, "duration": 161}, {"note": 0, "velocity": 0, "duration": 79}, {"note": 68, "velocity": 94, "duration": 159}, {"note": 0, "velocity": 0, "duration": 81}, {"note": 71, "velocity": 92, "duration": 139}, {"note": 0, "velocity": 0, "duration": 101}, {"note": 73, "velocity": 86, "duration": 1556}, {"note": 0, "velocity": 0, "duration": 844}, {"note": 76, "velocity": 97, "duration": 167}, {"note": 0, "velocity": 0, "duration": 73}, {"note": 78, "velocity": 95, "duration": 164}, {"note": 0, "velocity": 0, "duration": 76}, {"note": 76, "velocity": 93, "duration": 112}, {"note": 0, "velocity": 0, "duration": 128}, {"note": 76, "velocity": 93, "duration": 183}, {"note": 75, "velocity": 95, "duration": 96}, {"note": 73, "velocity": 93, "duration": 64}, {"note": 71, "velocity": 97, "duration": 175}, {"note": 0, "velocity": 0, "duration": 65}, {"note": 73, "velocity": 95, "duration": 2011}, {"note": 0, "velocity": 0, "duration": 389}, {"note": 76, "velocity": 97, "duration": 167}, {"note": 0, "velocity": 0, "duration": 73}, {"note": 78, "velocity": 95, "duration": 164}, {"note": 0, "velocity": 0, "duration": 76}, {"note": 76, "velocity": 93, "duration": 112}, {"note": 0, "velocity": 0, "duration": 128}, {"note": 76, "velocity": 93, "duration": 183}, {"note": 75, "velocity": 95, "duration": 96}, {"note": 73, "velocity": 93, "duration": 64}, {"note": 71, "velocity": 97, "duration": 175}, {"note": 0, "velocity": 0, "duration": 65}, {"note": 68, "velocity": 95, "duration": 2011}, {"note": 0, "velocity": 0, "duration": 389}, {"note": 68, "velocity": 91, "duration": 98}, {"note": 69, "velocity": 86, "duration": 160}, {"note": 71, "velocity": 98, "duration": 207}, {"note": 73, "velocity": 95, "duration": 73}, {"note": 0, "velocity": 0, "duration": 167}, {"note": 75, "velocity": 87, "duration": 171}, {"note": 76, "velocity": 93, "duration": 131}, {"note": 75, "velocity": 93, "duration": 123}, {"note": 73, "velocity": 91, "duration": 119}, {"note": 71, "velocity": 98, "duration": 175}, {"note": 0, "velocity": 0, "duration": 65}, {"note": 69, "velocity": 100, "duration": 649}, {"note": 0, "velocity": 0, "duration": 1031}, {"note": 73, "velocity": 87, "duration": 188}, {"note": 76, "velocity": 93, "duration": 194}, {"note": 75, "velocity": 95, "duration": 188}, {"note": 71, "velocity": 92, "duration": 401}, {"note": 0, "velocity": 0, "duration": 79}, {"note": 69, "velocity": 91, "duration": 392}, {"note": 0, "velocity": 0, "duration": 88}, {"note": 68, "velocity": 97, "duration": 175}, {"note": 0, "velocity": 0, "duration": 65}, {"note": 66, "velocity": 93, "duration": 168}, {"note": 0, "velocity": 0, "duration": 72}, {"note": 69, "velocity": 89, "duration": 164}, {"note": 0, "velocity": 0, "duration": 76}, {"note": 68, "velocity": 92, "duration": 1509}, {"note": 0, "velocity": 0, "duration": 651}, {"note": 76, "velocity": 97, "duration": 167}, {"note": 0, "velocity": 0, "duration": 73}, {"note": 78, "velocity": 95, "duration": 164}, {"note": 0, "velocity": 0, "duration": 76}, {"note": 76, "velocity": 93, "duration": 112}, {"note": 0, "velocity": 0, "duration": 128}, {"note": 76, "velocity": 93, "duration": 183}, {"note": 75, "velocity": 95, "duration": 96}, {"note": 73, "velocity": 93, "duration": 64}, {"note": 71, "velocity": 97, "duration": 175}, {"note": 0, "velocity": 0, "duration": 65}, {"note": 73, "velocity": 95, "duration": 2011}, {"note": 0, "velocity": 0, "duration": 389}, {"note": 76, "velocity": 97, "duration": 167}, {"note": 0, "velocity": 0, "duration": 73}, {"note": 78, "velocity": 95, "duration": 164}, {"note": 0, "velocity": 0, "duration": 76}, {"note": 76, "velocity": 93, "duration": 112}, {"note": 0, "velocity": 0, "duration": 128}, {"note": 76, "velocity": 93, "duration": 183}, {"note": 75, "velocity": 95, "duration": 96}, {"note": 73, "velocity": 93, "duration": 64}, {"note": 71, "velocity": 97, "duration": 175}, {"note": 0, "velocity": 0, "duration": 65}, {"note": 68, "velocity": 95, "duration": 2011}, {"note": 0, "velocity": 0, "duration": 389}, {"note": 68, "velocity": 91, "duration": 98}, {"note": 69, "velocity": 86, "duration": 160}, {"note": 71, "velocity": 98, "duration": 207}, {"note": 73, "velocity": 95, "duration": 73}, {"note": 0, "velocity": 0, "duration": 167}, {"note": 75, "velocity": 87, "duration": 171}, {"note": 76, "velocity": 93, "duration": 131}, {"note": 75, "velocity": 93, "duration": 123}, {"note": 73, "velocity": 91, "duration": 119}, {"note": 71, "velocity": 98, "duration": 175}, {"note": 0, "velocity": 0, "duration": 65}, {"note": 69, "velocity": 100, "duration": 649}, {"note": 0, "velocity": 0, "duration": 791}, {"note": 61, "velocity": 102, "duration": 202}, {"note": 73, "velocity": 91, "duration": 153}, {"note": 0, "velocity": 0, "duration": 87}, {"note": 71, "velocity": 86, "duration": 92}, {"note": 69, "velocity": 91, "duration": 83}, {"note": 68, "velocity": 93, "duration": 1470}, {"note": 0, "velocity": 0, "duration": 210}, {"note": 69, "velocity": 93, "duration": 165}, {"note": 0, "velocity": 0, "duration": 75}, {"note": 66, "velocity": 102, "duration": 1884}, {"note": 0, "velocity": 0, "duration": 276}, {"note": 76, "velocity": 84, "duration": 127}, {"note": 0, "velocity": 0, "duration": 113}, {"note": 76, "velocity": 92, "duration": 240}, {"note": 76, "velocity": 92, "duration": 240}, {"note": 76, "velocity": 93, "duration": 147}, {"note": 0, "velocity": 0, "duration": 93}, {"note": 76, "velocity": 87, "duration": 178}, {"note": 0, "velocity": 0, "duration": 62}, {"note": 75, "velocity": 93, "duration": 160}, {"note": 0, "velocity": 0, "duration": 80}, {"note": 73, "velocity": 91, "duration": 216}, {"note": 71, "velocity": 92, "duration": 1041}, {"note": 0, "velocity": 0, "duration": 1119}, {"note": 76, "velocity": 93, "duration": 183}, {"note": 76, "velocity": 92, "duration": 163}, {"note": 0, "velocity": 0, "duration": 77}, {"note": 76, "velocity": 93, "duration": 188}, {"note": 78, "velocity": 93, "duration": 160}, {"note": 0, "velocity": 0, "duration": 80}, {"note": 76, "velocity": 91, "duration": 179}, {"note": 0, "velocity": 0, "duration": 61}, {"note": 75, "velocity": 96, "duration": 143}, {"note": 0, "velocity": 0, "duration": 97}, {"note": 71, "velocity": 97, "duration": 153}, {"note": 0, "velocity": 0, "duration": 87}, {"note": 68, "velocity": 93, "duration": 1591}, {"note": 0, "velocity": 0, "duration": 569}, {"note": 78, "velocity": 92, "duration": 167}, {"note": 0, "velocity": 0, "duration": 73}, {"note": 78, "velocity": 95, "duration": 162}, {"note": 0, "velocity": 0, "duration": 78}, {"note": 71, "velocity": 95, "duration": 163}, {"note": 0, "velocity": 0, "duration": 77}, {"note": 78, "velocity": 92, "duration": 153}, {"note": 0, "velocity": 0, "duration": 87}, {"note": 78, "velocity": 92, "duration": 135}, {"note": 0, "velocity": 0, "duration": 105}, {"note": 71, "velocity": 96, "duration": 138}, {"note": 0, "velocity": 0, "duration": 102}, {"note": 73, "velocity": 93, "duration": 172}, {"note": 0, "velocity": 0, "duration": 68}, {"note": 80, "velocity": 92, "duration": 183}, {"note": 76, "velocity": 76, "duration": 146}, {"note": 0, "velocity": 0, "duration": 94}, {"note": 73, "velocity": 96, "duration": 141}, {"note": 0, "velocity": 0, "duration": 99}, {"note": 76, "velocity": 96, "duration": 150}, {"note": 0, "velocity": 0, "duration": 90}, {"note": 73, "velocity": 97, "duration": 910}, {"note": 0, "velocity": 0, "duration": 290}, {"note": 78, "velocity": 92, "duration": 156}, {"note": 0, "velocity": 0, "duration": 84}, {"note": 78, "velocity": 92, "duration": 163}, {"note": 0, "velocity": 0, "duration": 77}, {"note": 71, "velocity": 93, "duration": 140}, {"note": 0, "velocity": 0, "duration": 100}, {"note": 71, "velocity": 91, "duration": 161}, {"note": 0, "velocity": 0, "duration": 79}, {"note": 68, "velocity": 94, "duration": 159}, {"note": 0, "velocity": 0, "duration": 81}, {"note": 71, "velocity": 92, "duration": 139}, {"note": 0, "velocity": 0, "duration": 101}, {"note": 73, "velocity": 86, "duration": 1556}, {"note": 0, "velocity": 0, "duration": 844}, {"note": 76, "velocity": 84, "duration": 127}, {"note": 0, "velocity": 0, "duration": 113}, {"note": 76, "velocity": 92, "duration": 240}, {"note": 76, "velocity": 92, "duration": 240}, {"note": 76, "velocity": 93, "duration": 147}, {"note": 0, "velocity": 0, "duration": 93}, {"note": 76, "velocity": 87, "duration": 178}, {"note": 0, "velocity": 0, "duration": 62}, {"note": 75, "velocity": 93, "duration": 160}, {"note": 0, "velocity": 0, "duration": 80}, {"note": 73, "velocity": 91, "duration": 216}, {"note": 71, "velocity": 92, "duration": 1041}, {"note": 0, "velocity": 0, "duration": 1119}, {"note": 76, "velocity": 93, "duration": 183}, {"note": 76, "velocity": 92, "duration": 163}, {"note": 0, "velocity": 0, "duration": 77}, {"note": 76, "velocity": 93, "duration": 188}, {"note": 78, "velocity": 93, "duration": 160}, {"note": 0, "velocity": 0, "duration": 80}, {"note": 76, "velocity": 91, "duration": 179}, {"note": 0, "velocity": 0, "duration": 61}, {"note": 75, "velocity": 96, "duration": 143}, {"note": 0, "velocity": 0, "duration": 97}, {"note": 71, "velocity": 97, "duration": 153}, {"note": 0, "velocity": 0, "duration": 87}, {"note": 68, "velocity": 93, "duration": 1591}, {"note": 0, "velocity": 0, "duration": 569}, {"note": 78, "velocity": 92, "duration": 167}, {"note": 0, "velocity": 0, "duration": 73}, {"note": 78, "velocity": 95, "duration": 162}, {"note": 0, "velocity": 0, "duration": 78}, {"note": 71, "velocity": 95, "duration": 163}, {"note": 0, "velocity": 0, "duration": 77}, {"note": 78, "velocity": 92, "duration": 153}, {"note": 0, "velocity": 0, "duration": 87}, {"note": 78, "velocity": 92, "duration": 135}, {"note": 0, "velocity": 0, "duration": 105}, {"note": 71, "velocity": 96, "duration": 138}, {"note": 0, "velocity": 0, "duration": 102}, {"note": 73, "velocity": 93, "duration": 172}, {"note": 0, "velocity": 0, "duration": 68}, {"note": 80, "velocity": 92, "duration": 183}, {"note": 76, "velocity": 76, "duration": 146}, {"note": 0, "velocity": 0, "duration": 94}, {"note": 73, "velocity": 96, "duration": 141}, {"note": 0, "velocity": 0, "duration": 99}, {"note": 76, "velocity": 96, "duration": 150}, {"note": 0, "velocity": 0, "duration": 90}, {"note": 73, "velocity": 97, "duration": 910}, {"note": 0, "velocity": 0, "duration": 290}, {"note": 78, "velocity": 92, "duration": 156}, {"note": 0, "velocity": 0, "duration": 84}, {"note": 78, "velocity": 92, "duration": 163}, {"note": 0, "velocity": 0, "duration": 77}, {"note": 71, "velocity": 93, "duration": 140}, {"note": 0, "velocity": 0, "duration": 100}, {"note": 71, "velocity": 91, "duration": 161}, {"note": 0, "velocity": 0, "duration": 79}, {"note": 68, "velocity": 94, "duration": 159}, {"note": 0, "velocity": 0, "duration": 81}, {"note": 71, "velocity": 92, "duration": 139}, {"note": 0, "velocity": 0, "duration": 101}, {"note": 73, "velocity": 86, "duration": 1556}, {"note": 0, "velocity": 0, "duration": 844}, {"note": 76, "velocity": 84, "duration": 127}, {"note": 0, "velocity": 0, "duration": 113}, {"note": 76, "velocity": 92, "duration": 240}, {"note": 76, "velocity": 92, "duration": 240}, {"note": 76, "velocity": 93, "duration": 147}, {"note": 0, "velocity": 0, "duration": 93}, {"note": 76, "velocity": 87, "duration": 178}, {"note": 0, "velocity": 0, "duration": 62}, {"note": 75, "velocity": 93, "duration": 160}, {"note": 0, "velocity": 0, "duration": 80}, {"note": 73, "velocity": 91, "duration": 216}, {"note": 71, "velocity": 92, "duration": 1041}, {"note": 0, "velocity": 0, "duration": 1119}, {"note": 76, "velocity": 93, "duration": 183}, {"note": 76, "velocity": 92, "duration": 163}, {"note": 0, "velocity": 0, "duration": 77}, {"note": 76, "velocity": 93, "duration": 188}, {"note": 78, "velocity": 93, "duration": 160}, {"note": 0, "velocity": 0, "duration": 80}, {"note": 76, "velocity": 91, "duration": 179}, {"note": 0, "velocity": 0, "duration": 61}, {"note": 75, "velocity": 96, "duration": 143}, {"note": 0, "velocity": 0, "duration": 97}, {"note": 71, "velocity": 97, "duration": 153}, {"note": 0, "velocity": 0, "duration": 87}, {"note": 68, "velocity": 93, "duration": 1591}, {"note": 0, "velocity": 0, "duration": 569}, {"note": 78, "velocity": 92, "duration": 167}, {"note": 0, "velocity": 0, "duration": 73}, {"note": 78, "velocity": 95, "duration": 162}, {"note": 0, "velocity": 0, "duration": 78}, {"note": 71, "velocity": 95, "duration": 163}, {"note": 0, "velocity": 0, "duration": 77}, {"note": 78, "velocity": 92, "duration": 153}, {"note": 0, "velocity": 0, "duration": 87}, {"note": 78, "velocity": 92, "duration": 135}, {"note": 0, "velocity": 0, "duration": 105}, {"note": 71, "velocity": 96, "duration": 138}, {"note": 0, "velocity": 0, "duration": 102}, {"note": 73, "velocity": 93, "duration": 172}, {"note": 0, "velocity": 0, "duration": 68}, {"note": 80, "velocity": 92, "duration": 183}, {"note": 76, "velocity": 76, "duration": 146}, {"note": 0, "velocity": 0, "duration": 94}, {"note": 73, "velocity": 96, "duration": 141}, {"note": 0, "velocity": 0, "duration": 99}, {"note": 76, "velocity": 96, "duration": 150}, {"note": 0, "velocity": 0, "duration": 90}, {"note": 73, "velocity": 97, "duration": 910}, {"note": 0, "velocity": 0, "duration": 290}, {"note": 78, "velocity": 92, "duration": 156}, {"note": 0, "velocity": 0, "duration": 84}, {"note": 78, "velocity": 92, "duration": 163}, {"note": 0, "velocity": 0, "duration": 77}, {"note": 71, "velocity": 93, "duration": 140}, {"note": 0, "velocity": 0, "duration": 100}, {"note": 71, "velocity": 91, "duration": 161}, {"note": 0, "velocity": 0, "duration": 79}, {"note": 68, "velocity": 94, "duration": 159}, {"note": 0, "velocity": 0, "duration": 81}, {"note": 71, "velocity": 92, "duration": 139}, {"note": 0, "velocity": 0, "duration": 101}, {"note": 73, "velocity": 86, "duration": 1556}, {"note": 0, "velocity": 0, "duration": 844}, {"note": 76, "velocity": 84, "duration": 127}, {"note": 0, "velocity": 0, "duration": 113}, {"note": 76, "velocity": 92, "duration": 240}, {"note": 76, "velocity": 92, "duration": 240}, {"note": 76, "velocity": 93, "duration": 147}, {"note": 0, "velocity": 0, "duration": 93}, {"note": 76, "velocity": 87, "duration": 178}, {"note": 0, "velocity": 0, "duration": 62}, {"note": 75, "velocity": 93, "duration": 160}, {"note": 0, "velocity": 0, "duration": 80}, {"note": 73, "velocity": 91, "duration": 216}, {"note": 71, "velocity": 92, "duration": 1041}, {"note": 0, "velocity": 0, "duration": 1119}, {"note": 76, "velocity": 93, "duration": 183}, {"note": 76, "velocity": 92, "duration": 163}, {"note": 0, "velocity": 0, "duration": 77}, {"note": 76, "velocity": 93, "duration": 188}, {"note": 78, "velocity": 93, "duration": 160}, {"note": 0, "velocity": 0, "duration": 80}, {"note": 76, "velocity": 91, "duration": 179}, {"note": 0, "velocity": 0, "duration": 61}, {"note": 75, "velocity": 96, "duration": 143}, {"note": 0, "velocity": 0, "duration": 97}, {"note": 71, "velocity": 97, "duration": 153}, {"note": 0, "velocity": 0, "duration": 87}, {"note": 68, "velocity": 93, "duration": 1591}, {"note": 0, "velocity": 0, "duration": 569}, {"note": 78, "velocity": 92, "duration": 167}, {"note": 0, "velocity": 0, "duration": 73}, {"note": 78, "velocity": 95, "duration": 162}, {"note": 0, "velocity": 0, "duration": 78}, {"note": 71, "velocity": 95, "duration": 163}, {"note": 0, "velocity": 0, "duration": 77}, {"note": 78, "velocity": 92, "duration": 153}, {"note": 0, "velocity": 0, "duration": 87}, {"note": 78, "velocity": 92, "duration": 135}, {"note": 0, "velocity": 0, "duration": 105}, {"note": 71, "velocity": 96, "duration": 138}, {"note": 0, "velocity": 0, "duration": 102}, {"note": 73, "velocity": 93, "duration": 172}, {"note": 0, "velocity": 0, "duration": 68}, {"note": 80, "velocity": 92, "duration": 183}, {"note": 76, "velocity": 76, "duration": 146}, {"note": 0, "velocity": 0, "duration": 94}, {"note": 73, "velocity": 96, "duration": 141}, {"note": 0, "velocity": 0, "duration": 99}, {"note": 76, "velocity": 96, "duration": 150}, {"note": 0, "velocity": 0, "duration": 90}, {"note": 73, "velocity": 97, "duration": 910}, {"note": 0, "velocity": 0, "duration": 290}, {"note": 78, "velocity": 92, "duration": 156}, {"note": 0, "velocity": 0, "duration": 84}, {"note": 78, "velocity": 92, "duration": 163}, {"note": 0, "velocity": 0, "duration": 77}, {"note": 71, "velocity": 93, "duration": 140}, {"note": 0, "velocity": 0, "duration": 100}, {"note": 71, "velocity": 91, "duration": 161}, {"note": 0, "velocity": 0, "duration": 79}, {"note": 68, "velocity": 94, "duration": 159}, {"note": 0, "velocity": 0, "duration": 81}, {"note": 71, "velocity": 92, "duration": 139}, {"note": 0, "velocity": 0, "duration": 101}, {"note": 73, "velocity": 86, "duration": 1556}]]