[[{"note": 71, "velocity": 87, "duration": 230}, {"note": 76, "velocity": 82, "duration": 600}, {"note": 0, "velocity": 0, "duration": 120}, {"note": 80, "velocity": 83, "duration": 217}, {"note": 83, "velocity": 83, "duration": 598}, {"note": 0, "velocity": 0, "duration": 122}, {"note": 76, "velocity": 80, "duration": 205}, {"note": 75, "velocity": 79, "duration": 546}, {"note": 0, "velocity": 0, "duration": 174}, {"note": 80, "velocity": 82, "duration": 218}, {"note": 83, "velocity": 87, "duration": 624}, {"note": 0, "velocity": 0, "duration": 96}, {"note": 83, "velocity": 83, "duration": 194}, {"note": 85, "velocity": 82, "duration": 643}, {"note": 0, "velocity": 0, "duration": 77}, {"note": 87, "velocity": 83, "duration": 163}, {"note": 0, "velocity": 0, "duration": 77}, {"note": 88, "velocity": 81, "duration": 444}, {"note": 85, "velocity": 82, "duration": 120}, {"note": 83, "velocity": 80, "duration": 120}, {"note": 85, "velocity": 81, "duration": 187}, {"note": 83, "velocity": 79, "duration": 1320}, {"note": 0, "velocity": 0, "duration": 120}, {"note": 80, "velocity": 83, "duration": 173}, {"note": 0, "velocity": 0, "duration": 67}, {"note": 78, "velocity": 76, "duration": 176}, {"note": 0, "velocity": 0, "duration": 64}, {"note": 76, "velocity": 85, "duration": 679}, {"note": 75, "velocity": 82, "duration": 182}, {"note": 76, "velocity": 80, "duration": 390}, {"note": 0, "velocity": 0, "duration": 90}, {"note": 80, "velocity": 80, "duration": 186}, {"note": 78, "velocity": 85, "duration": 173}, {"note": 0, "velocity": 0, "duration": 67}, {"note": 76, "velocity": 81, "duration": 694}, {"note": 75, "velocity": 80, "duration": 203}, {"note": 76, "velocity": 78, "duration": 430}, {"note": 78, "velocity": 81, "duration": 180}, {"note": 80, "velocity": 82, "duration": 196}, {"note": 78, "velocity": 87, "duration": 689}, {"note": 76, "velocity": 93, "duration": 144}, {"note": 0, "velocity": 0, "duration": 96}, {"note": 73, "velocity": 83, "duration": 420}, {"note": 80, "velocity": 82, "duration": 450}, {"note": 78, "velocity": 80, "duration": 1511}, {"note": 0, "velocity": 0, "duration": 169}, {"note": 71, "velocity": 87, "duration": 230}, {"note": 76, "velocity": 82, "duration": 600}, {"note": 0, "velocity": 0, "duration": 120}, {"note": 80, "velocity": 83, "duration": 217}, {"note": 83, "velocity": 83, "duration": 598}, {"note": 0, "velocity": 0, "duration": 122}, {"note": 76, "velocity": 80, "duration": 205}, {"note": 75, "velocity": 79, "duration": 546}, {"note": 0, "velocity": 0, "duration": 174}, {"note": 80, "velocity": 82, "duration": 218}, {"note": 83, "velocity": 87, "duration": 624}, {"note": 0, "velocity": 0, "duration": 96}, {"note": 83, "velocity": 83, "duration": 194}, {"note": 85, "velocity": 82, "duration": 643}, {"note": 0, "velocity": 0, "duration": 77}, {"note": 87, "velocity": 83, "duration": 163}, {"note": 0, "velocity": 0, "duration": 77}, {"note": 88, "velocity": 81, "duration": 444}, {"note": 85, "velocity": 82, "duration": 120}, {"note": 83, "velocity": 80, "duration": 120}, {"note": 85, "velocity": 81, "duration": 187}, {"note": 83, "velocity": 79, "duration": 1320}, {"note": 0, "velocity": 0, "duration": 120}, {"note": 80, "velocity": 83, "duration": 173}, {"note": 0, "velocity": 0, "duration": 67}, {"note": 78, "velocity": 76, "duration": 176}, {"note": 0, "velocity": 0, "duration": 64}, {"note": 76, "velocity": 85, "duration": 679}, {"note": 75, "velocity": 82, "duration": 182}, {"note": 76, "velocity": 80, "duration": 390}, {"note": 0, "velocity": 0, "duration": 90}, {"note": 80, "velocity": 80, "duration": 186}, {"note": 78, "velocity": 85, "duration": 173}, {"note": 0, "velocity": 0, "duration": 67}, {"note": 76, "velocity": 81, "duration": 694}, {"note": 75, "velocity": 80, "duration": 203}, {"note": 76, "velocity": 78, "duration": 430}, {"note": 78, "velocity": 81, "duration": 180}, {"note": 80, "velocity": 82, "duration": 196}, {"note": 78, "velocity": 87, "duration": 689}, {"note": 73, "velocity": 93, "duration": 144}, {"note": 0, "velocity": 0, "duration": 96}, {"note": 75, "velocity": 83, "duration": 420}, {"note": 78, "velocity": 82, "duration": 450}, {"note": 76, "velocity": 80, "duration": 1440}, {"note": 83, "velocity": 83, "duration": 397}, {"note": 0, "velocity": 0, "duration": 83}, {"note": 80, "velocity": 83, "duration": 641}, {"note": 0, "velocity": 0, "duration": 79}, {"note": 78, "velocity": 83, "duration": 227}, {"note": 76, "velocity": 81, "duration": 454}, {"note": 83, "velocity": 83, "duration": 377}, {"note": 0, "velocity": 0, "duration": 103}, {"note": 75, "velocity": 80, "duration": 1391}, {"note": 73, "velocity": 80, "duration": 176}, {"note": 0, "velocity": 0, "duration": 64}, {"note": 75, "velocity": 77, "duration": 192}, {"note": 73, "velocity": 80, "duration": 648}, {"note": 0, "velocity": 0, "duration": 72}, {"note": 75, "velocity": 83, "duration": 177}, {"note": 0, "velocity": 0, "duration": 63}, {"note": 73, "velocity": 83, "duration": 417}, {"note": 0, "velocity": 0, "duration": 63}, {"note": 71, "velocity": 81, "duration": 483}, {"note": 80, "velocity": 82, "duration": 1365}, {"note": 0, "velocity": 0, "duration": 75}, {"note": 83, "velocity": 79, "duration": 416}, {"note": 0, "velocity": 0, "duration": 64}, {"note": 80, "velocity": 82, "duration": 750}, {"note": 78, "velocity": 83, "duration": 253}, {"note": 76, "velocity": 79, "duration": 451}, {"note": 83, "velocity": 81, "duration": 507}, {"note": 75, "velocity": 83, "duration": 1401}, {"note": 73, "velocity": 78, "duration": 191}, {"note": 75, "velocity": 80, "duration": 216}, {"note": 76, "velocity": 87, "duration": 654}, {"note": 0, "velocity": 0, "duration": 66}, {"note": 76, "velocity": 82, "duration": 165}, {"note": 0, "velocity": 0, "duration": 75}, {"note": 76, "velocity": 82, "duration": 434}, {"note": 80, "velocity": 78, "duration": 405}, {"note": 0, "velocity": 0, "duration": 75}, {"note": 78, "velocity": 83, "duration": 1457}, {"note": 0, "velocity": 0, "duration": 223}, {"note": 71, "velocity": 87, "duration": 230}, {"note": 76, "velocity": 82, "duration": 600}, {"note": 0, "velocity": 0, "duration": 120}, {"note": 80, "velocity": 83, "duration": 217}, {"note": 83, "velocity": 83, "duration": 598}, {"note": 0, "velocity": 0, "duration": 122}, {"note": 76, "velocity": 80, "duration": 205}, {"note": 75, "velocity": 79, "duration": 546}, {"note": 0, "velocity": 0, "duration": 174}, {"note": 80, "velocity": 82, "duration": 218}, {"note": 83, "velocity": 87, "duration": 624}, {"note": 0, "velocity": 0, "duration": 96}, {"note": 83, "velocity": 83, "duration": 194}, {"note": 85, "velocity": 82, "duration": 643}, {"note": 0, "velocity": 0, "duration": 77}, {"note": 87, "velocity": 83, "duration": 163}, {"note": 0, "velocity": 0, "duration": 77}, {"note": 88, "velocity": 81, "duration": 444}, {"note": 85, "velocity": 82, "duration": 120}, {"note": 83, "velocity": 80, "duration": 120}, {"note": 85, "velocity": 81, "duration": 187}, {"note": 83, "velocity": 79, "duration": 1320}, {"note": 0, "velocity": 0, "duration": 120}, {"note": 80, "velocity": 83, "duration": 173}, {"note": 0, "velocity": 0, "duration": 67}, {"note": 78, "velocity": 76, "duration": 176}, {"note": 0, "velocity": 0, "duration": 64}, {"note": 76, "velocity": 85, "duration": 679}, {"note": 75, "velocity": 82, "duration": 182}, {"note": 76, "velocity": 80, "duration": 390}, {"note": 0, "velocity": 0, "duration": 90}, {"note": 80, "velocity": 80, "duration": 186}, {"note": 78, "velocity": 85, "duration": 173}, {"note": 0, "velocity": 0, "duration": 67}, {"note": 76, "velocity": 81, "duration": 694}, {"note": 75, "velocity": 80, "duration": 203}, {"note": 76, "velocity": 78, "duration": 430}, {"note": 78, "velocity": 81, "duration": 180}, {"note": 80, "velocity": 82, "duration": 196}, {"note": 78, "velocity": 87, "duration": 689}, {"note": 73, "velocity": 93, "duration": 144}, {"note": 0, "velocity": 0, "duration": 96}, {"note": 75, "velocity": 83, "duration": 420}, {"note": 78, "velocity": 82, "duration": 450}, {"note": 76, "velocity": 80, "duration": 1440}, {"note": 0, "velocity": 0, "duration": 15360}, {"note": 83, "velocity": 83, "duration": 397}, {"note": 0, "velocity": 0, "duration": 83}, {"note": 80, "velocity": 83, "duration": 641}, {"note": 0, "velocity": 0, "duration": 79}, {"note": 78, "velocity": 83, "duration": 227}, {"note": 76, "velocity": 81, "duration": 454}, {"note": 83, "velocity": 83, "duration": 377}, {"note": 0, "velocity": 0, "duration": 103}, {"note": 75, "velocity": 80, "duration": 1391}, {"note": 73, "velocity": 80, "duration": 176}, {"note": 0, "velocity": 0, "duration": 64}, {"note": 75, "velocity": 77, "duration": 192}, {"note": 73, "velocity": 80, "duration": 648}, {"note": 0, "velocity": 0, "duration": 72}, {"note": 75, "velocity": 83, "duration": 177}, {"note": 0, "velocity": 0, "duration": 63}, {"note": 73, "velocity": 83, "duration": 417}, {"note": 0, "velocity": 0, "duration": 63}, {"note": 71, "velocity": 81, "duration": 483}, {"note": 80, "velocity": 82, "duration": 1365}, {"note": 0, "velocity": 0, "duration": 75}, {"note": 83, "velocity": 79, "duration": 416}, {"note": 0, "velocity": 0, "duration": 64}, {"note": 80, "velocity": 82, "duration": 750}, {"note": 78, "velocity": 83, "duration": 253}, {"note": 76, "velocity": 79, "duration": 451}, {"note": 83, "velocity": 81, "duration": 507}, {"note": 75, "velocity": 83, "duration": 1401}, {"note": 73, "velocity": 78, "duration": 191}, {"note": 75, "velocity": 80, "duration": 216}, {"note": 76, "velocity": 87, "duration": 654}, {"note": 0, "velocity": 0, "duration": 66}, {"note": 76, "velocity": 82, "duration": 165}, {"note": 0, "velocity": 0, "duration": 75}, {"note": 76, "velocity": 82, "duration": 434}, {"note": 80, "velocity": 78, "duration": 405}, {"note": 0, "velocity": 0, "duration": 75}, {"note": 78, "velocity": 83, "duration": 1457}, {"note": 0, "velocity": 0, "duration": 223}, {"note": 71, "velocity": 87, "duration": 230}, {"note": 76, "velocity": 82, "duration": 600}, {"note": 0, "velocity": 0, "duration": 120}, {"note": 80, "velocity": 83, "duration": 217}, {"note": 83, "velocity": 83, "duration": 598}, {"note": 0, "velocity": 0, "duration": 122}, {"note": 76, "velocity": 80, "duration": 205}, {"note": 75, "velocity": 79, "duration": 546}, {"note": 0, "velocity": 0, "duration": 174}, {"note": 80, "velocity": 82, "duration": 218}, {"note": 83, "velocity": 87, "duration": 624}, {"note": 0, "velocity": 0, "duration": 96}, {"note": 83, "velocity": 83, "duration": 194}, {"note": 85, "velocity": 82, "duration": 643}, {"note": 0, "velocity": 0, "duration": 77}, {"note": 87, "velocity": 83, "duration": 163}, {"note": 0, "velocity": 0, "duration": 77}, {"note": 88, "velocity": 81, "duration": 444}, {"note": 85, "velocity": 82, "duration": 120}, {"note": 83, "velocity": 80, "duration": 120}, {"note": 85, "velocity": 81, "duration": 187}, {"note": 83, "velocity": 79, "duration": 1320}, {"note": 0, "velocity": 0, "duration": 120}, {"note": 80, "velocity": 83, "duration": 173}, {"note": 0, "velocity": 0, "duration": 67}, {"note": 78, "velocity": 76, "duration": 176}, {"note": 0, "velocity": 0, "duration": 64}, {"note": 76, "velocity": 85, "duration": 679}, {"note": 75, "velocity": 82, "duration": 182}, {"note": 76, "velocity": 80, "duration": 390}, {"note": 0, "velocity": 0, "duration": 90}, {"note": 80, "velocity": 80, "duration": 186}, {"note": 78, "velocity": 85, "duration": 173}, {"note": 0, "velocity": 0, "duration": 67}, {"note": 76, "velocity": 81, "duration": 694}, {"note": 75, "velocity": 80, "duration": 203}, {"note": 76, "velocity": 78, "duration": 430}, {"note": 78, "velocity": 81, "duration": 180}, {"note": 80, "velocity": 82, "duration": 196}, {"note": 78, "velocity": 87, "duration": 689}, {"note": 73, "velocity": 93, "duration": 144}, {"note": 0, "velocity": 0, "duration": 96}, {"note": 75, "velocity": 83, "duration": 420}, {"note": 78, "velocity": 82, "duration": 450}, {"note": 76, "velocity": 80, "duration": 1440}, {"note": 80, "velocity": 83, "duration": 173}, {"note": 0, "velocity": 0, "duration": 67}, {"note": 78, "velocity": 76, "duration": 176}, {"note": 0, "velocity": 0, "duration": 64}, {"note": 76, "velocity": 85, "duration": 679}, {"note": 75, "velocity": 82, "duration": 182}, {"note": 76, "velocity": 80, "duration": 390}, {"note": 0, "velocity": 0, "duration": 90}, {"note": 80, "velocity": 80, "duration": 186}, {"note": 78, "velocity": 85, "duration": 173}, {"note": 0, "velocity": 0, "duration": 67}, {"note": 76, "velocity": 81, "duration": 694}, {"note": 75, "velocity": 80, "duration": 203}, {"note": 76, "velocity": 78, "duration": 430}, {"note": 78, "velocity": 81, "duration": 180}, {"note": 80, "velocity": 82, "duration": 196}, {"note": 78, "velocity": 87, "duration": 689}, {"note": 73, "velocity": 93, "duration": 144}, {"note": 0, "velocity": 0, "duration": 96}, {"note": 75, "velocity": 83, "duration": 420}, {"note": 78, "velocity": 82, "duration": 450}, {"note": 76, "velocity": 80, "duration": 1440}]]