[[{"note": 79, "velocity": 91, "duration": 110}, {"note": 77, "velocity": 87, "duration": 103}, {"note": 74, "velocity": 94, "duration": 83}, {"note": 72, "velocity": 86, "duration": 78}, {"note": 74, "velocity": 91, "duration": 374}, {"note": 0, "velocity": 0, "duration": 106}, {"note": 74, "velocity": 104, "duration": 83}, {"note": 72, "velocity": 83, "duration": 73}, {"note": 70, "velocity": 91, "duration": 88}, {"note": 67, "velocity": 86, "duration": 73}, {"note": 70, "velocity": 88, "duration": 373}, {"note": 0, "velocity": 0, "duration": 107}, {"note": 70, "velocity": 92, "duration": 85}, {"note": 65, "velocity": 88, "duration": 65}, {"note": 70, "velocity": 96, "duration": 80}, {"note": 74, "velocity": 92, "duration": 77}, {"note": 72, "velocity": 87, "duration": 63}, {"note": 72, "velocity": 87, "duration": 56}, {"note": 0, "velocity": 0, "duration": 64}, {"note": 72, "velocity": 86, "duration": 59}, {"note": 0, "velocity": 0, "duration": 61}, {"note": 72, "velocity": 88, "duration": 72}, {"note": 72, "velocity": 88, "duration": 175}, {"note": 0, "velocity": 0, "duration": 65}, {"note": 70, "velocity": 91, "duration": 240}, {"note": 72, "velocity": 88, "duration": 240}, {"note": 70, "velocity": 90, "duration": 115}, {"note": 67, "velocity": 85, "duration": 120}, {"note": 79, "velocity": 91, "duration": 83}, {"note": 77, "velocity": 83, "duration": 82}, {"note": 74, "velocity": 94, "duration": 53}, {"note": 0, "velocity": 0, "duration": 67}, {"note": 72, "velocity": 87, "duration": 64}, {"note": 74, "velocity": 89, "duration": 392}, {"note": 0, "velocity": 0, "duration": 88}, {"note": 74, "velocity": 93, "duration": 78}, {"note": 72, "velocity": 87, "duration": 80}, {"note": 70, "velocity": 98, "duration": 62}, {"note": 67, "velocity": 88, "duration": 75}, {"note": 70, "velocity": 87, "duration": 301}, {"note": 0, "velocity": 0, "duration": 179}, {"note": 70, "velocity": 83, "duration": 92}, {"note": 65, "velocity": 87, "duration": 64}, {"note": 70, "velocity": 91, "duration": 74}, {"note": 74, "velocity": 92, "duration": 276}, {"note": 72, "velocity": 88, "duration": 916}, {"note": 0, "velocity": 0, "duration": 404}, {"note": 79, "velocity": 91, "duration": 110}, {"note": 77, "velocity": 87, "duration": 103}, {"note": 74, "velocity": 94, "duration": 83}, {"note": 72, "velocity": 86, "duration": 78}, {"note": 74, "velocity": 91, "duration": 374}, {"note": 0, "velocity": 0, "duration": 106}, {"note": 74, "velocity": 104, "duration": 83}, {"note": 72, "velocity": 83, "duration": 73}, {"note": 70, "velocity": 91, "duration": 88}, {"note": 67, "velocity": 86, "duration": 73}, {"note": 70, "velocity": 88, "duration": 373}, {"note": 0, "velocity": 0, "duration": 107}, {"note": 70, "velocity": 92, "duration": 85}, {"note": 65, "velocity": 88, "duration": 65}, {"note": 70, "velocity": 96, "duration": 80}, {"note": 74, "velocity": 92, "duration": 77}, {"note": 72, "velocity": 87, "duration": 63}, {"note": 72, "velocity": 87, "duration": 56}, {"note": 0, "velocity": 0, "duration": 64}, {"note": 72, "velocity": 86, "duration": 59}, {"note": 0, "velocity": 0, "duration": 61}, {"note": 72, "velocity": 88, "duration": 72}, {"note": 72, "velocity": 88, "duration": 175}, {"note": 0, "velocity": 0, "duration": 65}, {"note": 70, "velocity": 91, "duration": 240}, {"note": 72, "velocity": 88, "duration": 240}, {"note": 70, "velocity": 90, "duration": 115}, {"note": 67, "velocity": 85, "duration": 120}, {"note": 79, "velocity": 91, "duration": 83}, {"note": 77, "velocity": 83, "duration": 82}, {"note": 74, "velocity": 94, "duration": 53}, {"note": 0, "velocity": 0, "duration": 67}, {"note": 72, "velocity": 87, "duration": 64}, {"note": 74, "velocity": 89, "duration": 392}, {"note": 0, "velocity": 0, "duration": 88}, {"note": 74, "velocity": 93, "duration": 78}, {"note": 72, "velocity": 87, "duration": 80}, {"note": 70, "velocity": 98, "duration": 62}, {"note": 67, "velocity": 88, "duration": 75}, {"note": 70, "velocity": 87, "duration": 301}, {"note": 0, "velocity": 0, "duration": 179}, {"note": 70, "velocity": 83, "duration": 92}, {"note": 65, "velocity": 87, "duration": 64}, {"note": 70, "velocity": 91, "duration": 74}, {"note": 74, "velocity": 92, "duration": 276}, {"note": 72, "velocity": 88, "duration": 916}, {"note": 72, "velocity": 88, "duration": 75}, {"note": 72, "velocity": 89, "duration": 71}, {"note": 72, "velocity": 89, "duration": 72}, {"note": 72, "velocity": 91, "duration": 80}, {"note": 77, "velocity": 89, "duration": 234}, {"note": 72, "velocity": 87, "duration": 72}, {"note": 72, "velocity": 92, "duration": 939}, {"note": 70, "velocity": 89, "duration": 409}, {"note": 0, "velocity": 0, "duration": 71}, {"note": 72, "velocity": 89, "duration": 375}, {"note": 0, "velocity": 0, "duration": 105}, {"note": 74, "velocity": 98, "duration": 1528}, {"note": 74, "velocity": 90, "duration": 64}, {"note": 77, "velocity": 91, "duration": 75}, {"note": 74, "velocity": 96, "duration": 65}, {"note": 79, "velocity": 88, "duration": 64}, {"note": 79, "velocity": 87, "duration": 53}, {"note": 0, "velocity": 0, "duration": 67}, {"note": 79, "velocity": 89, "duration": 153}, {"note": 0, "velocity": 0, "duration": 87}, {"note": 79, "velocity": 89, "duration": 171}, {"note": 0, "velocity": 0, "duration": 69}, {"note": 77, "velocity": 92, "duration": 147}, {"note": 0, "velocity": 0, "duration": 93}, {"note": 74, "velocity": 98, "duration": 189}, {"note": 72, "velocity": 87, "duration": 71}, {"note": 74, "velocity": 94, "duration": 143}, {"note": 0, "velocity": 0, "duration": 97}, {"note": 74, "velocity": 89, "duration": 64}, {"note": 74, "velocity": 96, "duration": 70}, {"note": 70, "velocity": 80, "duration": 80}, {"note": 72, "velocity": 88, "duration": 145}, {"note": 0, "velocity": 0, "duration": 95}, {"note": 72, "velocity": 90, "duration": 167}, {"note": 0, "velocity": 0, "duration": 73}, {"note": 72, "velocity": 89, "duration": 147}, {"note": 0, "velocity": 0, "duration": 93}, {"note": 72, "velocity": 90, "duration": 75}, {"note": 74, "velocity": 90, "duration": 71}, {"note": 72, "velocity": 89, "duration": 163}, {"note": 0, "velocity": 0, "duration": 77}, {"note": 70, "velocity": 88, "duration": 107}, {"note": 67, "velocity": 88, "duration": 140}, {"note": 0, "velocity": 0, "duration": 100}, {"note": 74, "velocity": 90, "duration": 80}, {"note": 77, "velocity": 91, "duration": 92}, {"note": 74, "velocity": 98, "duration": 83}, {"note": 79, "velocity": 88, "duration": 173}, {"note": 0, "velocity": 0, "duration": 67}, {"note": 79, "velocity": 89, "duration": 163}, {"note": 0, "velocity": 0, "duration": 77}, {"note": 79, "velocity": 89, "duration": 182}, {"note": 77, "velocity": 85, "duration": 179}, {"note": 0, "velocity": 0, "duration": 61}, {"note": 74, "velocity": 93, "duration": 179}, {"note": 0, "velocity": 0, "duration": 61}, {"note": 74, "velocity": 94, "duration": 181}, {"note": 72, "velocity": 87, "duration": 200}, {"note": 70, "velocity": 87, "duration": 181}, {"note": 72, "velocity": 94, "duration": 154}, {"note": 0, "velocity": 0, "duration": 86}, {"note": 72, "velocity": 91, "duration": 161}, {"note": 0, "velocity": 0, "duration": 79}, {"note": 72, "velocity": 91, "duration": 72}, {"note": 77, "velocity": 90, "duration": 333}, {"note": 74, "velocity": 96, "duration": 535}, {"note": 0, "velocity": 0, "duration": 65}, {"note": 74, "velocity": 90, "duration": 64}, {"note": 77, "velocity": 91, "duration": 75}, {"note": 74, "velocity": 96, "duration": 65}, {"note": 79, "velocity": 88, "duration": 64}, {"note": 79, "velocity": 87, "duration": 53}, {"note": 0, "velocity": 0, "duration": 67}, {"note": 79, "velocity": 89, "duration": 153}, {"note": 0, "velocity": 0, "duration": 87}, {"note": 79, "velocity": 89, "duration": 171}, {"note": 0, "velocity": 0, "duration": 69}, {"note": 77, "velocity": 92, "duration": 147}, {"note": 0, "velocity": 0, "duration": 93}, {"note": 74, "velocity": 98, "duration": 189}, {"note": 72, "velocity": 87, "duration": 71}, {"note": 74, "velocity": 94, "duration": 143}, {"note": 0, "velocity": 0, "duration": 97}, {"note": 74, "velocity": 89, "duration": 64}, {"note": 74, "velocity": 96, "duration": 70}, {"note": 70, "velocity": 80, "duration": 80}, {"note": 72, "velocity": 88, "duration": 145}, {"note": 0, "velocity": 0, "duration": 95}, {"note": 72, "velocity": 90, "duration": 167}, {"note": 0, "velocity": 0, "duration": 73}, {"note": 72, "velocity": 89, "duration": 147}, {"note": 0, "velocity": 0, "duration": 93}, {"note": 72, "velocity": 90, "duration": 75}, {"note": 74, "velocity": 90, "duration": 71}, {"note": 72, "velocity": 89, "duration": 163}, {"note": 0, "velocity": 0, "duration": 77}, {"note": 70, "velocity": 88, "duration": 107}, {"note": 67, "velocity": 88, "duration": 140}, {"note": 0, "velocity": 0, "duration": 100}, {"note": 67, "velocity": 84, "duration": 79}, {"note": 67, "velocity": 88, "duration": 75}, {"note": 69, "velocity": 87, "duration": 87}, {"note": 70, "velocity": 87, "duration": 180}, {"note": 70, "velocity": 88, "duration": 174}, {"note": 0, "velocity": 0, "duration": 66}, {"note": 70, "velocity": 92, "duration": 180}, {"note": 74, "velocity": 90, "duration": 197}, {"note": 72, "velocity": 87, "duration": 169}, {"note": 0, "velocity": 0, "duration": 71}, {"note": 72, "velocity": 88, "duration": 150}, {"note": 0, "velocity": 0, "duration": 90}, {"note": 72, "velocity": 91, "duration": 164}, {"note": 0, "velocity": 0, "duration": 76}, {"note": 69, "velocity": 89, "duration": 161}, {"note": 0, "velocity": 0, "duration": 79}, {"note": 67, "velocity": 88, "duration": 1440}, {"note": 79, "velocity": 91, "duration": 110}, {"note": 77, "velocity": 87, "duration": 103}, {"note": 74, "velocity": 94, "duration": 83}, {"note": 72, "velocity": 86, "duration": 78}, {"note": 74, "velocity": 91, "duration": 374}, {"note": 0, "velocity": 0, "duration": 106}, {"note": 74, "velocity": 104, "duration": 83}, {"note": 72, "velocity": 83, "duration": 73}, {"note": 70, "velocity": 91, "duration": 88}, {"note": 67, "velocity": 86, "duration": 73}, {"note": 70, "velocity": 88, "duration": 373}, {"note": 0, "velocity": 0, "duration": 107}, {"note": 70, "velocity": 92, "duration": 85}, {"note": 65, "velocity": 88, "duration": 65}, {"note": 70, "velocity": 96, "duration": 80}, {"note": 74, "velocity": 92, "duration": 77}, {"note": 72, "velocity": 87, "duration": 63}, {"note": 72, "velocity": 87, "duration": 56}, {"note": 0, "velocity": 0, "duration": 64}, {"note": 72, "velocity": 86, "duration": 59}, {"note": 0, "velocity": 0, "duration": 61}, {"note": 72, "velocity": 88, "duration": 72}, {"note": 72, "velocity": 88, "duration": 175}, {"note": 0, "velocity": 0, "duration": 65}, {"note": 70, "velocity": 91, "duration": 240}, {"note": 72, "velocity": 88, "duration": 240}, {"note": 70, "velocity": 90, "duration": 115}, {"note": 67, "velocity": 85, "duration": 120}, {"note": 79, "velocity": 91, "duration": 83}, {"note": 77, "velocity": 83, "duration": 82}, {"note": 74, "velocity": 94, "duration": 53}, {"note": 0, "velocity": 0, "duration": 67}, {"note": 72, "velocity": 87, "duration": 64}, {"note": 74, "velocity": 89, "duration": 392}, {"note": 0, "velocity": 0, "duration": 88}, {"note": 74, "velocity": 93, "duration": 78}, {"note": 72, "velocity": 87, "duration": 80}, {"note": 70, "velocity": 98, "duration": 62}, {"note": 67, "velocity": 88, "duration": 75}, {"note": 70, "velocity": 87, "duration": 301}, {"note": 0, "velocity": 0, "duration": 179}, {"note": 70, "velocity": 83, "duration": 92}, {"note": 65, "velocity": 87, "duration": 64}, {"note": 70, "velocity": 91, "duration": 74}, {"note": 74, "velocity": 92, "duration": 276}, {"note": 72, "velocity": 88, "duration": 916}, {"note": 0, "velocity": 0, "duration": 404}, {"note": 79, "velocity": 91, "duration": 110}, {"note": 77, "velocity": 87, "duration": 103}, {"note": 74, "velocity": 94, "duration": 83}, {"note": 72, "velocity": 86, "duration": 78}, {"note": 74, "velocity": 91, "duration": 374}, {"note": 0, "velocity": 0, "duration": 106}, {"note": 74, "velocity": 104, "duration": 83}, {"note": 72, "velocity": 83, "duration": 73}, {"note": 70, "velocity": 91, "duration": 88}, {"note": 67, "velocity": 86, "duration": 73}, {"note": 70, "velocity": 88, "duration": 373}, {"note": 0, "velocity": 0, "duration": 107}, {"note": 70, "velocity": 92, "duration": 85}, {"note": 65, "velocity": 88, "duration": 65}, {"note": 70, "velocity": 96, "duration": 80}, {"note": 74, "velocity": 92, "duration": 77}, {"note": 72, "velocity": 87, "duration": 63}, {"note": 72, "velocity": 87, "duration": 56}, {"note": 0, "velocity": 0, "duration": 64}, {"note": 72, "velocity": 86, "duration": 59}, {"note": 0, "velocity": 0, "duration": 61}, {"note": 72, "velocity": 88, "duration": 72}, {"note": 72, "velocity": 88, "duration": 175}, {"note": 0, "velocity": 0, "duration": 65}, {"note": 70, "velocity": 91, "duration": 240}, {"note": 72, "velocity": 88, "duration": 240}, {"note": 70, "velocity": 90, "duration": 115}, {"note": 67, "velocity": 85, "duration": 120}, {"note": 79, "velocity": 91, "duration": 83}, {"note": 77, "velocity": 83, "duration": 82}, {"note": 74, "velocity": 94, "duration": 53}, {"note": 0, "velocity": 0, "duration": 67}, {"note": 72, "velocity": 87, "duration": 64}, {"note": 74, "velocity": 89, "duration": 392}, {"note": 0, "velocity": 0, "duration": 88}, {"note": 74, "velocity": 93, "duration": 78}, {"note": 72, "velocity": 87, "duration": 80}, {"note": 70, "velocity": 98, "duration": 62}, {"note": 67, "velocity": 88, "duration": 75}, {"note": 70, "velocity": 87, "duration": 301}, {"note": 0, "velocity": 0, "duration": 179}, {"note": 70, "velocity": 83, "duration": 92}, {"note": 65, "velocity": 87, "duration": 64}, {"note": 70, "velocity": 91, "duration": 74}, {"note": 74, "velocity": 92, "duration": 276}, {"note": 72, "velocity": 88, "duration": 916}, {"note": 72, "velocity": 88, "duration": 75}, {"note": 72, "velocity": 89, "duration": 71}, {"note": 72, "velocity": 89, "duration": 72}, {"note": 72, "velocity": 91, "duration": 80}, {"note": 77, "velocity": 89, "duration": 234}, {"note": 72, "velocity": 87, "duration": 72}, {"note": 72, "velocity": 92, "duration": 939}, {"note": 70, "velocity": 89, "duration": 409}, {"note": 0, "velocity": 0, "duration": 71}, {"note": 72, "velocity": 89, "duration": 375}, {"note": 0, "velocity": 0, "duration": 105}, {"note": 74, "velocity": 98, "duration": 1528}, {"note": 74, "velocity": 90, "duration": 64}, {"note": 77, "velocity": 91, "duration": 75}, {"note": 74, "velocity": 96, "duration": 65}, {"note": 79, "velocity": 88, "duration": 64}, {"note": 79, "velocity": 87, "duration": 53}, {"note": 0, "velocity": 0, "duration": 67}, {"note": 79, "velocity": 89, "duration": 153}, {"note": 0, "velocity": 0, "duration": 87}, {"note": 79, "velocity": 89, "duration": 171}, {"note": 0, "velocity": 0, "duration": 69}, {"note": 77, "velocity": 92, "duration": 147}, {"note": 0, "velocity": 0, "duration": 93}, {"note": 74, "velocity": 98, "duration": 189}, {"note": 72, "velocity": 87, "duration": 71}, {"note": 74, "velocity": 94, "duration": 143}, {"note": 0, "velocity": 0, "duration": 97}, {"note": 74, "velocity": 89, "duration": 64}, {"note": 74, "velocity": 96, "duration": 70}, {"note": 70, "velocity": 80, "duration": 80}, {"note": 72, "velocity": 88, "duration": 145}, {"note": 0, "velocity": 0, "duration": 95}, {"note": 72, "velocity": 90, "duration": 167}, {"note": 0, "velocity": 0, "duration": 73}, {"note": 72, "velocity": 89, "duration": 147}, {"note": 0, "velocity": 0, "duration": 93}, {"note": 72, "velocity": 90, "duration": 75}, {"note": 74, "velocity": 90, "duration": 71}, {"note": 72, "velocity": 89, "duration": 163}, {"note": 0, "velocity": 0, "duration": 77}, {"note": 70, "velocity": 88, "duration": 107}, {"note": 67, "velocity": 88, "duration": 140}, {"note": 0, "velocity": 0, "duration": 100}, {"note": 74, "velocity": 90, "duration": 80}, {"note": 77, "velocity": 91, "duration": 92}, {"note": 74, "velocity": 98, "duration": 83}, {"note": 79, "velocity": 88, "duration": 173}, {"note": 0, "velocity": 0, "duration": 67}, {"note": 79, "velocity": 89, "duration": 163}, {"note": 0, "velocity": 0, "duration": 77}, {"note": 79, "velocity": 89, "duration": 182}, {"note": 77, "velocity": 85, "duration": 179}, {"note": 0, "velocity": 0, "duration": 61}, {"note": 74, "velocity": 93, "duration": 179}, {"note": 0, "velocity": 0, "duration": 61}, {"note": 74, "velocity": 94, "duration": 181}, {"note": 72, "velocity": 87, "duration": 200}, {"note": 70, "velocity": 87, "duration": 181}, {"note": 72, "velocity": 94, "duration": 154}, {"note": 0, "velocity": 0, "duration": 86}, {"note": 72, "velocity": 91, "duration": 161}, {"note": 0, "velocity": 0, "duration": 79}, {"note": 72, "velocity": 91, "duration": 72}, {"note": 77, "velocity": 90, "duration": 333}, {"note": 74, "velocity": 96, "duration": 535}, {"note": 0, "velocity": 0, "duration": 65}, {"note": 74, "velocity": 90, "duration": 64}, {"note": 77, "velocity": 91, "duration": 75}, {"note": 74, "velocity": 96, "duration": 65}, {"note": 79, "velocity": 88, "duration": 64}, {"note": 79, "velocity": 87, "duration": 53}, {"note": 0, "velocity": 0, "duration": 67}, {"note": 79, "velocity": 89, "duration": 153}, {"note": 0, "velocity": 0, "duration": 87}, {"note": 79, "velocity": 89, "duration": 171}, {"note": 0, "velocity": 0, "duration": 69}, {"note": 77, "velocity": 92, "duration": 147}, {"note": 0, "velocity": 0, "duration": 93}, {"note": 74, "velocity": 98, "duration": 189}, {"note": 72, "velocity": 87, "duration": 71}, {"note": 74, "velocity": 94, "duration": 143}, {"note": 0, "velocity": 0, "duration": 97}, {"note": 74, "velocity": 89, "duration": 64}, {"note": 74, "velocity": 96, "duration": 70}, {"note": 70, "velocity": 80, "duration": 80}, {"note": 72, "velocity": 88, "duration": 145}, {"note": 0, "velocity": 0, "duration": 95}, {"note": 72, "velocity": 90, "duration": 167}, {"note": 0, "velocity": 0, "duration": 73}, {"note": 72, "velocity": 89, "duration": 147}, {"note": 0, "velocity": 0, "duration": 93}, {"note": 72, "velocity": 90, "duration": 75}, {"note": 74, "velocity": 90, "duration": 71}, {"note": 72, "velocity": 89, "duration": 163}, {"note": 0, "velocity": 0, "duration": 77}, {"note": 70, "velocity": 88, "duration": 107}, {"note": 67, "velocity": 88, "duration": 140}, {"note": 0, "velocity": 0, "duration": 100}, {"note": 67, "velocity": 84, "duration": 79}, {"note": 67, "velocity": 88, "duration": 75}, {"note": 69, "velocity": 87, "duration": 87}, {"note": 70, "velocity": 87, "duration": 180}, {"note": 70, "velocity": 88, "duration": 174}, {"note": 0, "velocity": 0, "duration": 66}, {"note": 70, "velocity": 92, "duration": 180}, {"note": 74, "velocity": 90, "duration": 197}, {"note": 72, "velocity": 87, "duration": 169}, {"note": 0, "velocity": 0, "duration": 71}, {"note": 72, "velocity": 88, "duration": 150}, {"note": 0, "velocity": 0, "duration": 90}, {"note": 72, "velocity": 91, "duration": 164}, {"note": 0, "velocity": 0, "duration": 76}, {"note": 69, "velocity": 89, "duration": 161}, {"note": 0, "velocity": 0, "duration": 79}, {"note": 67, "velocity": 88, "duration": 1440}, {"note": 0, "velocity": 0, "duration": 240}, {"note": 67, "velocity": 94, "duration": 192}, {"note": 79, "velocity": 91, "duration": 1122}, {"note": 0, "velocity": 0, "duration": 78}, {"note": 76, "velocity": 87, "duration": 204}, {"note": 74, "velocity": 96, "duration": 240}, {"note": 72, "velocity": 94, "duration": 212}, {"note": 74, "velocity": 91, "duration": 389}, {"note": 0, "velocity": 0, "duration": 91}, {"note": 67, "velocity": 90, "duration": 1078}, {"note": 0, "velocity": 0, "duration": 122}, {"note": 67, "velocity": 93, "duration": 184}, {"note": 79, "velocity": 88, "duration": 436}, {"note": 79, "velocity": 88, "duration": 165}, {"note": 0, "velocity": 0, "duration": 75}, {"note": 77, "velocity": 89, "duration": 206}, {"note": 74, "velocity": 91, "duration": 389}, {"note": 0, "velocity": 0, "duration": 91}, {"note": 74, "velocity": 96, "duration": 173}, {"note": 0, "velocity": 0, "duration": 67}, {"note": 77, "velocity": 93, "duration": 219}, {"note": 72, "velocity": 92, "duration": 438}, {"note": 70, "velocity": 91, "duration": 174}, {"note": 0, "velocity": 0, "duration": 66}, {"note": 72, "velocity": 89, "duration": 160}, {"note": 0, "velocity": 0, "duration": 80}, {"note": 74, "velocity": 94, "duration": 1224}, {"note": 0, "velocity": 0, "duration": 8016}, {"note": 74, "velocity": 90, "duration": 64}, {"note": 77, "velocity": 91, "duration": 75}, {"note": 74, "velocity": 96, "duration": 65}, {"note": 79, "velocity": 88, "duration": 64}, {"note": 79, "velocity": 87, "duration": 53}, {"note": 0, "velocity": 0, "duration": 67}, {"note": 79, "velocity": 89, "duration": 153}, {"note": 0, "velocity": 0, "duration": 87}, {"note": 79, "velocity": 89, "duration": 171}, {"note": 0, "velocity": 0, "duration": 69}, {"note": 77, "velocity": 92, "duration": 147}, {"note": 0, "velocity": 0, "duration": 93}, {"note": 74, "velocity": 98, "duration": 189}, {"note": 72, "velocity": 87, "duration": 71}, {"note": 74, "velocity": 94, "duration": 143}, {"note": 0, "velocity": 0, "duration": 97}, {"note": 74, "velocity": 89, "duration": 64}, {"note": 74, "velocity": 96, "duration": 70}, {"note": 70, "velocity": 80, "duration": 80}, {"note": 72, "velocity": 88, "duration": 145}, {"note": 0, "velocity": 0, "duration": 95}, {"note": 72, "velocity": 90, "duration": 167}, {"note": 0, "velocity": 0, "duration": 73}, {"note": 72, "velocity": 89, "duration": 147}, {"note": 0, "velocity": 0, "duration": 93}, {"note": 72, "velocity": 90, "duration": 75}, {"note": 74, "velocity": 90, "duration": 71}, {"note": 72, "velocity": 89, "duration": 163}, {"note": 0, "velocity": 0, "duration": 77}, {"note": 70, "velocity": 88, "duration": 107}, {"note": 67, "velocity": 88, "duration": 140}, {"note": 0, "velocity": 0, "duration": 100}, {"note": 67, "velocity": 84, "duration": 79}, {"note": 67, "velocity": 88, "duration": 75}, {"note": 69, "velocity": 87, "duration": 87}, {"note": 70, "velocity": 87, "duration": 180}, {"note": 70, "velocity": 88, "duration": 174}, {"note": 0, "velocity": 0, "duration": 66}, {"note": 70, "velocity": 92, "duration": 180}, {"note": 74, "velocity": 90, "duration": 197}, {"note": 72, "velocity": 87, "duration": 169}, {"note": 0, "velocity": 0, "duration": 71}, {"note": 72, "velocity": 88, "duration": 150}, {"note": 0, "velocity": 0, "duration": 90}, {"note": 72, "velocity": 91, "duration": 164}, {"note": 0, "velocity": 0, "duration": 76}, {"note": 69, "velocity": 89, "duration": 161}, {"note": 0, "velocity": 0, "duration": 79}, {"note": 67, "velocity": 88, "duration": 1440}, {"note": 0, "velocity": 0, "duration": 120}, {"note": 79, "velocity": 90, "duration": 64}, {"note": 79, "velocity": 91, "duration": 75}, {"note": 79, "velocity": 96, "duration": 65}, {"note": 79, "velocity": 88, "duration": 229}, {"note": 79, "velocity": 89, "duration": 153}, {"note": 0, "velocity": 0, "duration": 87}, {"note": 79, "velocity": 89, "duration": 74}, {"note": 77, "velocity": 97, "duration": 86}, {"note": 77, "velocity": 92, "duration": 147}, {"note": 0, "velocity": 0, "duration": 93}, {"note": 74, "velocity": 98, "duration": 189}, {"note": 72, "velocity": 87, "duration": 71}, {"note": 74, "velocity": 94, "duration": 143}, {"note": 0, "velocity": 0, "duration": 97}, {"note": 74, "velocity": 89, "duration": 64}, {"note": 74, "velocity": 96, "duration": 70}, {"note": 70, "velocity": 80, "duration": 80}, {"note": 72, "velocity": 88, "duration": 145}, {"note": 0, "velocity": 0, "duration": 95}, {"note": 72, "velocity": 90, "duration": 167}, {"note": 0, "velocity": 0, "duration": 73}, {"note": 72, "velocity": 89, "duration": 147}, {"note": 0, "velocity": 0, "duration": 93}, {"note": 72, "velocity": 90, "duration": 75}, {"note": 74, "velocity": 90, "duration": 71}, {"note": 72, "velocity": 89, "duration": 163}, {"note": 0, "velocity": 0, "duration": 77}, {"note": 77, "velocity": 88, "duration": 107}, {"note": 74, "velocity": 88, "duration": 140}, {"note": 0, "velocity": 0, "duration": 100}, {"note": 74, "velocity": 88, "duration": 88}, {"note": 77, "velocity": 83, "duration": 68}, {"note": 74, "velocity": 90, "duration": 85}, {"note": 79, "velocity": 88, "duration": 170}, {"note": 0, "velocity": 0, "duration": 70}, {"note": 79, "velocity": 89, "duration": 164}, {"note": 0, "velocity": 0, "duration": 76}, {"note": 79, "velocity": 91, "duration": 181}, {"note": 77, "velocity": 82, "duration": 169}, {"note": 0, "velocity": 0, "duration": 71}, {"note": 74, "velocity": 98, "duration": 212}, {"note": 74, "velocity": 92, "duration": 184}, {"note": 72, "velocity": 88, "duration": 190}, {"note": 70, "velocity": 86, "duration": 196}, {"note": 72, "velocity": 92, "duration": 168}, {"note": 0, "velocity": 0, "duration": 72}, {"note": 72, "velocity": 89, "duration": 167}, {"note": 0, "velocity": 0, "duration": 73}, {"note": 72, "velocity": 91, "duration": 93}, {"note": 77, "velocity": 87, "duration": 379}, {"note": 74, "velocity": 90, "duration": 533}, {"note": 0, "velocity": 0, "duration": 67}, {"note": 74, "velocity": 90, "duration": 64}, {"note": 77, "velocity": 91, "duration": 75}, {"note": 74, "velocity": 96, "duration": 65}, {"note": 79, "velocity": 88, "duration": 64}, {"note": 79, "velocity": 87, "duration": 53}, {"note": 0, "velocity": 0, "duration": 67}, {"note": 79, "velocity": 89, "duration": 153}, {"note": 0, "velocity": 0, "duration": 87}, {"note": 79, "velocity": 89, "duration": 171}, {"note": 0, "velocity": 0, "duration": 69}, {"note": 77, "velocity": 92, "duration": 147}, {"note": 0, "velocity": 0, "duration": 93}, {"note": 74, "velocity": 98, "duration": 189}, {"note": 72, "velocity": 87, "duration": 71}, {"note": 74, "velocity": 94, "duration": 143}, {"note": 0, "velocity": 0, "duration": 97}, {"note": 74, "velocity": 89, "duration": 64}, {"note": 74, "velocity": 96, "duration": 70}, {"note": 70, "velocity": 80, "duration": 80}, {"note": 72, "velocity": 88, "duration": 145}, {"note": 0, "velocity": 0, "duration": 95}, {"note": 72, "velocity": 90, "duration": 167}, {"note": 0, "velocity": 0, "duration": 73}, {"note": 72, "velocity": 89, "duration": 147}, {"note": 0, "velocity": 0, "duration": 93}, {"note": 72, "velocity": 90, "duration": 75}, {"note": 74, "velocity": 90, "duration": 71}, {"note": 72, "velocity": 89, "duration": 163}, {"note": 0, "velocity": 0, "duration": 77}, {"note": 70, "velocity": 88, "duration": 107}, {"note": 67, "velocity": 88, "duration": 140}, {"note": 0, "velocity": 0, "duration": 100}, {"note": 67, "velocity": 84, "duration": 79}, {"note": 67, "velocity": 88, "duration": 75}, {"note": 69, "velocity": 87, "duration": 87}, {"note": 70, "velocity": 87, "duration": 180}, {"note": 70, "velocity": 88, "duration": 174}, {"note": 0, "velocity": 0, "duration": 66}, {"note": 70, "velocity": 92, "duration": 180}, {"note": 74, "velocity": 90, "duration": 197}, {"note": 72, "velocity": 87, "duration": 169}, {"note": 0, "velocity": 0, "duration": 71}, {"note": 72, "velocity": 88, "duration": 150}, {"note": 0, "velocity": 0, "duration": 90}, {"note": 72, "velocity": 91, "duration": 164}, {"note": 0, "velocity": 0, "duration": 76}, {"note": 69, "velocity": 89, "duration": 161}, {"note": 0, "velocity": 0, "duration": 79}, {"note": 67, "velocity": 88, "duration": 1440}]]