[[{"note": 67, "velocity": 84, "duration": 77}, {"note": 67, "velocity": 82, "duration": 85}, {"note": 75, "velocity": 85, "duration": 209}, {"note": 74, "velocity": 94, "duration": 143}, {"note": 0, "velocity": 0, "duration": 97}, {"note": 75, "velocity": 99, "duration": 677}, {"note": 67, "velocity": 87, "duration": 164}, {"note": 0, "velocity": 0, "duration": 76}, {"note": 67, "velocity": 87, "duration": 359}, {"note": 0, "velocity": 0, "duration": 121}, {"note": 67, "velocity": 87, "duration": 180}, {"note": 70, "velocity": 87, "duration": 166}, {"note": 0, "velocity": 0, "duration": 74}, {"note": 70, "velocity": 92, "duration": 669}, {"note": 72, "velocity": 87, "duration": 111}, {"note": 0, "velocity": 0, "duration": 129}, {"note": 68, "velocity": 92, "duration": 189}, {"note": 65, "velocity": 85, "duration": 66}, {"note": 65, "velocity": 85, "duration": 88}, {"note": 74, "velocity": 100, "duration": 182}, {"note": 72, "velocity": 99, "duration": 182}, {"note": 74, "velocity": 90, "duration": 685}, {"note": 65, "velocity": 85, "duration": 169}, {"note": 0, "velocity": 0, "duration": 71}, {"note": 65, "velocity": 84, "duration": 311}, {"note": 65, "velocity": 81, "duration": 101}, {"note": 70, "velocity": 84, "duration": 183}, {"note": 68, "velocity": 89, "duration": 187}, {"note": 68, "velocity": 84, "duration": 591}, {"note": 0, "velocity": 0, "duration": 129}, {"note": 68, "velocity": 97, "duration": 101}, {"note": 70, "velocity": 83, "duration": 80}, {"note": 67, "velocity": 83, "duration": 160}, {"note": 0, "velocity": 0, "duration": 80}, {"note": 67, "velocity": 84, "duration": 65}, {"note": 67, "velocity": 83, "duration": 95}, {"note": 75, "velocity": 85, "duration": 205}, {"note": 74, "velocity": 90, "duration": 139}, {"note": 0, "velocity": 0, "duration": 101}, {"note": 75, "velocity": 90, "duration": 651}, {"note": 0, "velocity": 0, "duration": 189}, {"note": 75, "velocity": 86, "duration": 116}, {"note": 67, "velocity": 88, "duration": 293}, {"note": 0, "velocity": 0, "duration": 67}, {"note": 67, "velocity": 83, "duration": 94}, {"note": 72, "velocity": 85, "duration": 189}, {"note": 75, "velocity": 88, "duration": 228}, {"note": 79, "velocity": 85, "duration": 656}, {"note": 0, "velocity": 0, "duration": 64}, {"note": 77, "velocity": 89, "duration": 189}, {"note": 77, "velocity": 88, "duration": 494}, {"note": 0, "velocity": 0, "duration": 226}, {"note": 75, "velocity": 89, "duration": 192}, {"note": 75, "velocity": 87, "duration": 474}, {"note": 0, "velocity": 0, "duration": 246}, {"note": 75, "velocity": 84, "duration": 192}, {"note": 74, "velocity": 92, "duration": 416}, {"note": 0, "velocity": 0, "duration": 64}, {"note": 77, "velocity": 85, "duration": 189}, {"note": 75, "velocity": 84, "duration": 81}, {"note": 75, "velocity": 86, "duration": 295}, {"note": 0, "velocity": 0, "duration": 65}, {"note": 74, "velocity": 90, "duration": 797}, {"note": 0, "velocity": 0, "duration": 163}, {"note": 67, "velocity": 83, "duration": 62}, {"note": 67, "velocity": 82, "duration": 91}, {"note": 75, "velocity": 89, "duration": 191}, {"note": 74, "velocity": 90, "duration": 127}, {"note": 0, "velocity": 0, "duration": 113}, {"note": 75, "velocity": 89, "duration": 620}, {"note": 0, "velocity": 0, "duration": 100}, {"note": 67, "velocity": 85, "duration": 140}, {"note": 0, "velocity": 0, "duration": 100}, {"note": 67, "velocity": 85, "duration": 415}, {"note": 0, "velocity": 0, "duration": 65}, {"note": 67, "velocity": 85, "duration": 179}, {"note": 0, "velocity": 0, "duration": 61}, {"note": 70, "velocity": 86, "duration": 172}, {"note": 0, "velocity": 0, "duration": 68}, {"note": 70, "velocity": 90, "duration": 656}, {"note": 0, "velocity": 0, "duration": 64}, {"note": 72, "velocity": 82, "duration": 179}, {"note": 0, "velocity": 0, "duration": 61}, {"note": 68, "velocity": 79, "duration": 184}, {"note": 65, "velocity": 83, "duration": 72}, {"note": 65, "velocity": 83, "duration": 82}, {"note": 74, "velocity": 94, "duration": 172}, {"note": 0, "velocity": 0, "duration": 68}, {"note": 72, "velocity": 84, "duration": 143}, {"note": 0, "velocity": 0, "duration": 97}, {"note": 74, "velocity": 90, "duration": 599}, {"note": 0, "velocity": 0, "duration": 121}, {"note": 65, "velocity": 78, "duration": 154}, {"note": 0, "velocity": 0, "duration": 86}, {"note": 65, "velocity": 84, "duration": 212}, {"note": 65, "velocity": 83, "duration": 238}, {"note": 70, "velocity": 89, "duration": 191}, {"note": 68, "velocity": 84, "duration": 160}, {"note": 0, "velocity": 0, "duration": 80}, {"note": 68, "velocity": 87, "duration": 480}, {"note": 68, "velocity": 84, "duration": 240}, {"note": 70, "velocity": 83, "duration": 240}, {"note": 67, "velocity": 81, "duration": 153}, {"note": 0, "velocity": 0, "duration": 87}, {"note": 67, "velocity": 84, "duration": 71}, {"note": 67, "velocity": 84, "duration": 96}, {"note": 75, "velocity": 84, "duration": 195}, {"note": 74, "velocity": 84, "duration": 134}, {"note": 0, "velocity": 0, "duration": 106}, {"note": 75, "velocity": 87, "duration": 609}, {"note": 0, "velocity": 0, "duration": 111}, {"note": 67, "velocity": 85, "duration": 368}, {"note": 0, "velocity": 0, "duration": 112}, {"note": 67, "velocity": 89, "duration": 179}, {"note": 0, "velocity": 0, "duration": 61}, {"note": 72, "velocity": 89, "duration": 178}, {"note": 0, "velocity": 0, "duration": 62}, {"note": 75, "velocity": 84, "duration": 202}, {"note": 79, "velocity": 87, "duration": 669}, {"note": 77, "velocity": 85, "duration": 172}, {"note": 0, "velocity": 0, "duration": 68}, {"note": 77, "velocity": 86, "duration": 516}, {"note": 0, "velocity": 0, "duration": 204}, {"note": 75, "velocity": 87, "duration": 150}, {"note": 0, "velocity": 0, "duration": 90}, {"note": 75, "velocity": 94, "duration": 889}, {"note": 74, "velocity": 100, "duration": 420}, {"note": 0, "velocity": 0, "duration": 98}, {"note": 74, "velocity": 94, "duration": 203}, {"note": 75, "velocity": 90, "duration": 252}, {"note": 74, "velocity": 99, "duration": 325}, {"note": 72, "velocity": 86, "duration": 715}, {"note": 0, "velocity": 0, "duration": 138}, {"note": 72, "velocity": 90, "duration": 186}, {"note": 74, "velocity": 97, "duration": 183}, {"note": 75, "velocity": 94, "duration": 195}, {"note": 75, "velocity": 94, "duration": 870}, {"note": 0, "velocity": 0, "duration": 90}, {"note": 77, "velocity": 87, "duration": 386}, {"note": 0, "velocity": 0, "duration": 94}, {"note": 74, "velocity": 99, "duration": 179}, {"note": 0, "velocity": 0, "duration": 61}, {"note": 72, "velocity": 86, "duration": 241}, {"note": 70, "velocity": 88, "duration": 455}, {"note": 67, "velocity": 88, "duration": 199}, {"note": 70, "velocity": 89, "duration": 178}, {"note": 0, "velocity": 0, "duration": 62}, {"note": 72, "velocity": 89, "duration": 398}, {"note": 0, "velocity": 0, "duration": 82}, {"note": 72, "velocity": 94, "duration": 164}, {"note": 0, "velocity": 0, "duration": 76}, {"note": 74, "velocity": 94, "duration": 197}, {"note": 75, "velocity": 88, "duration": 921}, {"note": 74, "velocity": 100, "duration": 444}, {"note": 75, "velocity": 89, "duration": 363}, {"note": 0, "velocity": 0, "duration": 117}, {"note": 80, "velocity": 100, "duration": 1813}, {"note": 0, "velocity": 0, "duration": 107}, {"note": 79, "velocity": 86, "duration": 1037}, {"note": 0, "velocity": 0, "duration": 163}, {"note": 74, "velocity": 94, "duration": 158}, {"note": 0, "velocity": 0, "duration": 82}, {"note": 75, "velocity": 89, "duration": 156}, {"note": 0, "velocity": 0, "duration": 84}, {"note": 77, "velocity": 85, "duration": 154}, {"note": 0, "velocity": 0, "duration": 86}, {"note": 79, "velocity": 87, "duration": 164}, {"note": 0, "velocity": 0, "duration": 76}, {"note": 75, "velocity": 85, "duration": 134}, {"note": 0, "velocity": 0, "duration": 106}, {"note": 79, "velocity": 90, "duration": 184}, {"note": 75, "velocity": 85, "duration": 66}, {"note": 79, "velocity": 88, "duration": 275}, {"note": 0, "velocity": 0, "duration": 85}, {"note": 75, "velocity": 89, "duration": 194}, {"note": 77, "velocity": 85, "duration": 174}, {"note": 0, "velocity": 0, "duration": 66}, {"note": 79, "velocity": 90, "duration": 169}, {"note": 0, "velocity": 0, "duration": 71}, {"note": 82, "velocity": 94, "duration": 723}, {"note": 80, "velocity": 92, "duration": 167}, {"note": 0, "velocity": 0, "duration": 73}, {"note": 80, "velocity": 90, "duration": 775}, {"note": 0, "velocity": 0, "duration": 185}, {"note": 77, "velocity": 85, "duration": 171}, {"note": 0, "velocity": 0, "duration": 69}, {"note": 75, "velocity": 90, "duration": 226}, {"note": 74, "velocity": 99, "duration": 220}, {"note": 72, "velocity": 84, "duration": 80}, {"note": 70, "velocity": 94, "duration": 278}, {"note": 0, "velocity": 0, "duration": 82}, {"note": 70, "velocity": 92, "duration": 189}, {"note": 72, "velocity": 85, "duration": 180}, {"note": 74, "velocity": 97, "duration": 178}, {"note": 0, "velocity": 0, "duration": 62}, {"note": 80, "velocity": 100, "duration": 644}, {"note": 0, "velocity": 0, "duration": 76}, {"note": 79, "velocity": 88, "duration": 110}, {"note": 77, "velocity": 88, "duration": 69}, {"note": 79, "velocity": 89, "duration": 200}, {"note": 67, "velocity": 85, "duration": 179}, {"note": 0, "velocity": 0, "duration": 61}, {"note": 72, "velocity": 92, "duration": 152}, {"note": 0, "velocity": 0, "duration": 88}, {"note": 74, "velocity": 88, "duration": 138}, {"note": 0, "velocity": 0, "duration": 102}, {"note": 75, "velocity": 89, "duration": 202}, {"note": 74, "velocity": 90, "duration": 174}, {"note": 0, "velocity": 0, "duration": 66}, {"note": 75, "velocity": 89, "duration": 217}, {"note": 74, "velocity": 85, "duration": 72}, {"note": 75, "velocity": 90, "duration": 317}, {"note": 72, "velocity": 89, "duration": 199}, {"note": 74, "velocity": 94, "duration": 184}, {"note": 75, "velocity": 87, "duration": 192}, {"note": 79, "velocity": 85, "duration": 673}, {"note": 77, "velocity": 83, "duration": 120}, {"note": 75, "velocity": 68, "duration": 80}, {"note": 77, "velocity": 84, "duration": 630}, {"note": 77, "velocity": 85, "duration": 30}, {"note": 0, "velocity": 0, "duration": 90}, {"note": 79, "velocity": 87, "duration": 83}, {"note": 77, "velocity": 90, "duration": 85}, {"note": 75, "velocity": 94, "duration": 510}, {"note": 0, "velocity": 0, "duration": 90}, {"note": 75, "velocity": 85, "duration": 76}, {"note": 77, "velocity": 85, "duration": 108}, {"note": 75, "velocity": 89, "duration": 76}, {"note": 74, "velocity": 97, "duration": 480}, {"note": 74, "velocity": 100, "duration": 240}, {"note": 75, "velocity": 87, "duration": 209}, {"note": 74, "velocity": 94, "duration": 240}, {"note": 72, "velocity": 85, "duration": 720}, {"note": 0, "velocity": 0, "duration": 17520}, {"note": 74, "velocity": 94, "duration": 158}, {"note": 0, "velocity": 0, "duration": 82}, {"note": 75, "velocity": 89, "duration": 156}, {"note": 0, "velocity": 0, "duration": 84}, {"note": 77, "velocity": 85, "duration": 154}, {"note": 0, "velocity": 0, "duration": 86}, {"note": 79, "velocity": 87, "duration": 164}, {"note": 0, "velocity": 0, "duration": 76}, {"note": 75, "velocity": 85, "duration": 134}, {"note": 0, "velocity": 0, "duration": 106}, {"note": 79, "velocity": 90, "duration": 184}, {"note": 75, "velocity": 85, "duration": 66}, {"note": 79, "velocity": 88, "duration": 275}, {"note": 0, "velocity": 0, "duration": 85}, {"note": 75, "velocity": 89, "duration": 194}, {"note": 77, "velocity": 85, "duration": 174}, {"note": 0, "velocity": 0, "duration": 66}, {"note": 79, "velocity": 90, "duration": 169}, {"note": 0, "velocity": 0, "duration": 71}, {"note": 82, "velocity": 94, "duration": 723}, {"note": 80, "velocity": 92, "duration": 167}, {"note": 0, "velocity": 0, "duration": 73}, {"note": 80, "velocity": 90, "duration": 775}, {"note": 0, "velocity": 0, "duration": 185}, {"note": 77, "velocity": 85, "duration": 171}, {"note": 0, "velocity": 0, "duration": 69}, {"note": 75, "velocity": 90, "duration": 226}, {"note": 74, "velocity": 99, "duration": 220}, {"note": 72, "velocity": 84, "duration": 80}, {"note": 70, "velocity": 94, "duration": 278}, {"note": 0, "velocity": 0, "duration": 82}, {"note": 70, "velocity": 92, "duration": 189}, {"note": 72, "velocity": 85, "duration": 180}, {"note": 74, "velocity": 97, "duration": 178}, {"note": 0, "velocity": 0, "duration": 62}, {"note": 80, "velocity": 100, "duration": 644}, {"note": 0, "velocity": 0, "duration": 76}, {"note": 79, "velocity": 88, "duration": 110}, {"note": 77, "velocity": 88, "duration": 69}, {"note": 79, "velocity": 89, "duration": 200}, {"note": 67, "velocity": 85, "duration": 179}, {"note": 0, "velocity": 0, "duration": 61}, {"note": 72, "velocity": 92, "duration": 152}, {"note": 0, "velocity": 0, "duration": 88}, {"note": 74, "velocity": 88, "duration": 138}, {"note": 0, "velocity": 0, "duration": 102}, {"note": 75, "velocity": 89, "duration": 202}, {"note": 74, "velocity": 90, "duration": 174}, {"note": 0, "velocity": 0, "duration": 66}, {"note": 75, "velocity": 89, "duration": 217}, {"note": 74, "velocity": 85, "duration": 72}, {"note": 75, "velocity": 90, "duration": 317}, {"note": 72, "velocity": 89, "duration": 199}, {"note": 74, "velocity": 94, "duration": 184}, {"note": 75, "velocity": 87, "duration": 192}, {"note": 79, "velocity": 85, "duration": 673}, {"note": 77, "velocity": 83, "duration": 120}, {"note": 75, "velocity": 68, "duration": 80}, {"note": 77, "velocity": 84, "duration": 630}, {"note": 77, "velocity": 85, "duration": 30}, {"note": 0, "velocity": 0, "duration": 90}, {"note": 79, "velocity": 87, "duration": 83}, {"note": 77, "velocity": 90, "duration": 85}, {"note": 75, "velocity": 94, "duration": 510}, {"note": 0, "velocity": 0, "duration": 90}, {"note": 75, "velocity": 85, "duration": 76}, {"note": 77, "velocity": 85, "duration": 108}, {"note": 75, "velocity": 89, "duration": 76}, {"note": 74, "velocity": 97, "duration": 480}, {"note": 74, "velocity": 100, "duration": 240}, {"note": 75, "velocity": 87, "duration": 209}, {"note": 74, "velocity": 94, "duration": 240}, {"note": 72, "velocity": 85, "duration": 720}, {"note": 0, "velocity": 0, "duration": 240}, {"note": 72, "velocity": 90, "duration": 186}, {"note": 74, "velocity": 97, "duration": 183}, {"note": 75, "velocity": 94, "duration": 195}, {"note": 75, "velocity": 94, "duration": 870}, {"note": 0, "velocity": 0, "duration": 90}, {"note": 77, "velocity": 87, "duration": 386}, {"note": 0, "velocity": 0, "duration": 94}, {"note": 74, "velocity": 99, "duration": 179}, {"note": 0, "velocity": 0, "duration": 61}, {"note": 72, "velocity": 86, "duration": 241}, {"note": 70, "velocity": 88, "duration": 455}, {"note": 67, "velocity": 88, "duration": 199}, {"note": 70, "velocity": 89, "duration": 178}, {"note": 0, "velocity": 0, "duration": 62}, {"note": 72, "velocity": 89, "duration": 398}, {"note": 0, "velocity": 0, "duration": 82}, {"note": 72, "velocity": 94, "duration": 164}, {"note": 0, "velocity": 0, "duration": 76}, {"note": 74, "velocity": 94, "duration": 197}, {"note": 75, "velocity": 88, "duration": 921}, {"note": 74, "velocity": 100, "duration": 444}, {"note": 75, "velocity": 89, "duration": 363}, {"note": 0, "velocity": 0, "duration": 117}, {"note": 80, "velocity": 100, "duration": 1813}, {"note": 0, "velocity": 0, "duration": 107}, {"note": 79, "velocity": 86, "duration": 1037}, {"note": 0, "velocity": 0, "duration": 163}, {"note": 74, "velocity": 94, "duration": 158}, {"note": 0, "velocity": 0, "duration": 82}, {"note": 75, "velocity": 89, "duration": 156}, {"note": 0, "velocity": 0, "duration": 84}, {"note": 77, "velocity": 85, "duration": 154}, {"note": 0, "velocity": 0, "duration": 86}, {"note": 79, "velocity": 87, "duration": 164}, {"note": 0, "velocity": 0, "duration": 76}, {"note": 75, "velocity": 85, "duration": 134}, {"note": 0, "velocity": 0, "duration": 106}, {"note": 79, "velocity": 90, "duration": 184}, {"note": 75, "velocity": 85, "duration": 66}, {"note": 79, "velocity": 88, "duration": 275}, {"note": 0, "velocity": 0, "duration": 85}, {"note": 75, "velocity": 89, "duration": 194}, {"note": 77, "velocity": 85, "duration": 174}, {"note": 0, "velocity": 0, "duration": 66}, {"note": 79, "velocity": 90, "duration": 169}, {"note": 0, "velocity": 0, "duration": 71}, {"note": 82, "velocity": 94, "duration": 723}, {"note": 80, "velocity": 92, "duration": 167}, {"note": 0, "velocity": 0, "duration": 73}, {"note": 80, "velocity": 90, "duration": 775}, {"note": 0, "velocity": 0, "duration": 185}, {"note": 77, "velocity": 85, "duration": 171}, {"note": 0, "velocity": 0, "duration": 69}, {"note": 75, "velocity": 90, "duration": 226}, {"note": 74, "velocity": 99, "duration": 220}, {"note": 72, "velocity": 84, "duration": 80}, {"note": 70, "velocity": 94, "duration": 278}, {"note": 0, "velocity": 0, "duration": 82}, {"note": 70, "velocity": 92, "duration": 189}, {"note": 72, "velocity": 85, "duration": 180}, {"note": 74, "velocity": 97, "duration": 178}, {"note": 0, "velocity": 0, "duration": 62}, {"note": 80, "velocity": 100, "duration": 644}, {"note": 0, "velocity": 0, "duration": 76}, {"note": 79, "velocity": 88, "duration": 110}, {"note": 77, "velocity": 88, "duration": 69}, {"note": 79, "velocity": 89, "duration": 200}, {"note": 67, "velocity": 85, "duration": 179}, {"note": 0, "velocity": 0, "duration": 61}, {"note": 72, "velocity": 92, "duration": 152}, {"note": 0, "velocity": 0, "duration": 88}, {"note": 74, "velocity": 88, "duration": 138}, {"note": 0, "velocity": 0, "duration": 102}, {"note": 75, "velocity": 89, "duration": 202}, {"note": 74, "velocity": 90, "duration": 174}, {"note": 0, "velocity": 0, "duration": 66}, {"note": 75, "velocity": 89, "duration": 217}, {"note": 74, "velocity": 85, "duration": 72}, {"note": 75, "velocity": 90, "duration": 317}, {"note": 72, "velocity": 89, "duration": 199}, {"note": 74, "velocity": 94, "duration": 184}, {"note": 75, "velocity": 87, "duration": 192}, {"note": 79, "velocity": 85, "duration": 673}, {"note": 77, "velocity": 83, "duration": 120}, {"note": 75, "velocity": 68, "duration": 80}, {"note": 77, "velocity": 84, "duration": 630}, {"note": 77, "velocity": 85, "duration": 30}, {"note": 0, "velocity": 0, "duration": 90}, {"note": 79, "velocity": 87, "duration": 83}, {"note": 77, "velocity": 90, "duration": 85}, {"note": 75, "velocity": 94, "duration": 510}, {"note": 0, "velocity": 0, "duration": 90}, {"note": 75, "velocity": 85, "duration": 76}, {"note": 77, "velocity": 85, "duration": 108}, {"note": 75, "velocity": 89, "duration": 76}, {"note": 74, "velocity": 97, "duration": 480}, {"note": 74, "velocity": 100, "duration": 240}, {"note": 75, "velocity": 87, "duration": 209}, {"note": 74, "velocity": 94, "duration": 240}, {"note": 72, "velocity": 85, "duration": 720}]]