[[{"note": 61, "velocity": 89, "duration": 205}, {"note": 68, "velocity": 80, "duration": 371}, {"note": 0, "velocity": 0, "duration": 109}, {"note": 68, "velocity": 95, "duration": 205}, {"note": 66, "velocity": 87, "duration": 164}, {"note": 0, "velocity": 0, "duration": 76}, {"note": 66, "velocity": 88, "duration": 194}, {"note": 68, "velocity": 92, "duration": 352}, {"note": 0, "velocity": 0, "duration": 128}, {"note": 70, "velocity": 88, "duration": 935}, {"note": 0, "velocity": 0, "duration": 745}, {"note": 70, "velocity": 92, "duration": 176}, {"note": 0, "velocity": 0, "duration": 64}, {"note": 73, "velocity": 90, "duration": 185}, {"note": 75, "velocity": 90, "duration": 172}, {"note": 0, "velocity": 0, "duration": 68}, {"note": 75, "velocity": 87, "duration": 172}, {"note": 0, "velocity": 0, "duration": 68}, {"note": 75, "velocity": 91, "duration": 180}, {"note": 77, "velocity": 88, "duration": 172}, {"note": 0, "velocity": 0, "duration": 68}, {"note": 75, "velocity": 97, "duration": 420}, {"note": 73, "velocity": 93, "duration": 467}, {"note": 70, "velocity": 90, "duration": 575}, {"note": 0, "velocity": 0, "duration": 865}, {"note": 70, "velocity": 88, "duration": 180}, {"note": 70, "velocity": 88, "duration": 196}, {"note": 68, "velocity": 87, "duration": 643}, {"note": 0, "velocity": 0, "duration": 77}, {"note": 66, "velocity": 89, "duration": 625}, {"note": 0, "velocity": 0, "duration": 95}, {"note": 70, "velocity": 95, "duration": 139}, {"note": 0, "velocity": 0, "duration": 101}, {"note": 70, "velocity": 88, "duration": 182}, {"note": 68, "velocity": 90, "duration": 650}, {"note": 0, "velocity": 0, "duration": 70}, {"note": 66, "velocity": 92, "duration": 805}, {"note": 0, "velocity": 0, "duration": 395}, {"note": 68, "velocity": 82, "duration": 158}, {"note": 0, "velocity": 0, "duration": 82}, {"note": 68, "velocity": 82, "duration": 153}, {"note": 0, "velocity": 0, "duration": 87}, {"note": 68, "velocity": 85, "duration": 156}, {"note": 0, "velocity": 0, "duration": 84}, {"note": 68, "velocity": 87, "duration": 180}, {"note": 70, "velocity": 88, "duration": 190}, {"note": 68, "velocity": 93, "duration": 164}, {"note": 0, "velocity": 0, "duration": 76}, {"note": 63, "velocity": 97, "duration": 202}, {"note": 68, "velocity": 88, "duration": 1327}, {"note": 0, "velocity": 0, "duration": 353}, {"note": 61, "velocity": 89, "duration": 205}, {"note": 61, "velocity": 89, "duration": 205}, {"note": 68, "velocity": 80, "duration": 371}, {"note": 0, "velocity": 0, "duration": 109}, {"note": 68, "velocity": 95, "duration": 205}, {"note": 66, "velocity": 87, "duration": 164}, {"note": 0, "velocity": 0, "duration": 76}, {"note": 68, "velocity": 88, "duration": 194}, {"note": 73, "velocity": 92, "duration": 352}, {"note": 0, "velocity": 0, "duration": 128}, {"note": 70, "velocity": 88, "duration": 935}, {"note": 0, "velocity": 0, "duration": 745}, {"note": 70, "velocity": 92, "duration": 176}, {"note": 0, "velocity": 0, "duration": 64}, {"note": 73, "velocity": 90, "duration": 185}, {"note": 75, "velocity": 90, "duration": 172}, {"note": 0, "velocity": 0, "duration": 68}, {"note": 75, "velocity": 87, "duration": 172}, {"note": 0, "velocity": 0, "duration": 68}, {"note": 75, "velocity": 91, "duration": 180}, {"note": 77, "velocity": 88, "duration": 172}, {"note": 0, "velocity": 0, "duration": 68}, {"note": 75, "velocity": 97, "duration": 420}, {"note": 73, "velocity": 93, "duration": 467}, {"note": 70, "velocity": 90, "duration": 960}, {"note": 0, "velocity": 0, "duration": 480}, {"note": 70, "velocity": 88, "duration": 180}, {"note": 70, "velocity": 88, "duration": 196}, {"note": 68, "velocity": 87, "duration": 643}, {"note": 0, "velocity": 0, "duration": 77}, {"note": 66, "velocity": 89, "duration": 625}, {"note": 0, "velocity": 0, "duration": 95}, {"note": 70, "velocity": 95, "duration": 139}, {"note": 0, "velocity": 0, "duration": 101}, {"note": 70, "velocity": 88, "duration": 182}, {"note": 68, "velocity": 90, "duration": 650}, {"note": 0, "velocity": 0, "duration": 70}, {"note": 66, "velocity": 92, "duration": 805}, {"note": 0, "velocity": 0, "duration": 395}, {"note": 61, "velocity": 88, "duration": 159}, {"note": 0, "velocity": 0, "duration": 81}, {"note": 61, "velocity": 88, "duration": 152}, {"note": 0, "velocity": 0, "duration": 88}, {"note": 61, "velocity": 88, "duration": 152}, {"note": 0, "velocity": 0, "duration": 88}, {"note": 61, "velocity": 88, "duration": 169}, {"note": 0, "velocity": 0, "duration": 71}, {"note": 65, "velocity": 87, "duration": 160}, {"note": 0, "velocity": 0, "duration": 80}, {"note": 65, "velocity": 87, "duration": 410}, {"note": 0, "velocity": 0, "duration": 70}, {"note": 66, "velocity": 87, "duration": 1604}, {"note": 0, "velocity": 0, "duration": 1516}, {"note": 66, "velocity": 91, "duration": 147}, {"note": 0, "velocity": 0, "duration": 93}, {"note": 68, "velocity": 92, "duration": 185}, {"note": 66, "velocity": 88, "duration": 176}, {"note": 0, "velocity": 0, "duration": 64}, {"note": 69, "velocity": 88, "duration": 381}, {"note": 0, "velocity": 0, "duration": 99}, {"note": 69, "velocity": 88, "duration": 344}, {"note": 0, "velocity": 0, "duration": 136}, {"note": 69, "velocity": 87, "duration": 384}, {"note": 0, "velocity": 0, "duration": 96}, {"note": 69, "velocity": 90, "duration": 420}, {"note": 68, "velocity": 88, "duration": 902}, {"note": 0, "velocity": 0, "duration": 298}, {"note": 66, "velocity": 87, "duration": 156}, {"note": 0, "velocity": 0, "duration": 84}, {"note": 64, "velocity": 88, "duration": 201}, {"note": 61, "velocity": 87, "duration": 201}, {"note": 66, "velocity": 86, "duration": 1717}, {"note": 0, "velocity": 0, "duration": 1403}, {"note": 66, "velocity": 87, "duration": 147}, {"note": 0, "velocity": 0, "duration": 93}, {"note": 68, "velocity": 91, "duration": 180}, {"note": 66, "velocity": 90, "duration": 173}, {"note": 0, "velocity": 0, "duration": 67}, {"note": 69, "velocity": 88, "duration": 365}, {"note": 0, "velocity": 0, "duration": 115}, {"note": 69, "velocity": 88, "duration": 366}, {"note": 0, "velocity": 0, "duration": 114}, {"note": 69, "velocity": 90, "duration": 328}, {"note": 0, "velocity": 0, "duration": 152}, {"note": 69, "velocity": 95, "duration": 337}, {"note": 0, "velocity": 0, "duration": 143}, {"note": 68, "velocity": 95, "duration": 924}, {"note": 0, "velocity": 0, "duration": 276}, {"note": 61, "velocity": 92, "duration": 151}, {"note": 0, "velocity": 0, "duration": 89}, {"note": 61, "velocity": 88, "duration": 145}, {"note": 0, "velocity": 0, "duration": 95}, {"note": 61, "velocity": 87, "duration": 177}, {"note": 0, "velocity": 0, "duration": 63}, {"note": 73, "velocity": 92, "duration": 381}, {"note": 0, "velocity": 0, "duration": 99}, {"note": 71, "velocity": 88, "duration": 298}, {"note": 0, "velocity": 0, "duration": 182}, {"note": 69, "velocity": 88, "duration": 381}, {"note": 0, "velocity": 0, "duration": 99}, {"note": 68, "velocity": 92, "duration": 205}, {"note": 66, "velocity": 86, "duration": 176}, {"note": 0, "velocity": 0, "duration": 64}, {"note": 68, "velocity": 92, "duration": 2238}, {"note": 0, "velocity": 0, "duration": 882}, {"note": 66, "velocity": 92, "duration": 359}, {"note": 0, "velocity": 0, "duration": 121}, {"note": 66, "velocity": 93, "duration": 332}, {"note": 0, "velocity": 0, "duration": 148}, {"note": 73, "velocity": 97, "duration": 857}, {"note": 0, "velocity": 0, "duration": 103}, {"note": 73, "velocity": 102, "duration": 194}, {"note": 75, "velocity": 87, "duration": 403}, {"note": 0, "velocity": 0, "duration": 77}, {"note": 75, "velocity": 91, "duration": 205}, {"note": 68, "velocity": 90, "duration": 480}, {"note": 0, "velocity": 0, "duration": 240}, {"note": 68, "velocity": 87, "duration": 180}, {"note": 70, "velocity": 90, "duration": 435}, {"note": 68, "velocity": 86, "duration": 195}, {"note": 68, "velocity": 90, "duration": 402}, {"note": 0, "velocity": 0, "duration": 78}, {"note": 66, "velocity": 90, "duration": 164}, {"note": 0, "velocity": 0, "duration": 76}, {"note": 66, "velocity": 87, "duration": 150}, {"note": 0, "velocity": 0, "duration": 90}, {"note": 66, "velocity": 87, "duration": 157}, {"note": 0, "velocity": 0, "duration": 83}, {"note": 66, "velocity": 89, "duration": 189}, {"note": 68, "velocity": 97, "duration": 176}, {"note": 0, "velocity": 0, "duration": 64}, {"note": 70, "velocity": 92, "duration": 123}, {"note": 0, "velocity": 0, "duration": 117}, {"note": 77, "velocity": 90, "duration": 362}, {"note": 0, "velocity": 0, "duration": 118}, {"note": 73, "velocity": 97, "duration": 447}, {"note": 0, "velocity": 0, "duration": 273}, {"note": 66, "velocity": 90, "duration": 355}, {"note": 0, "velocity": 0, "duration": 125}, {"note": 66, "velocity": 95, "duration": 371}, {"note": 0, "velocity": 0, "duration": 109}, {"note": 75, "velocity": 95, "duration": 792}, {"note": 0, "velocity": 0, "duration": 168}, {"note": 66, "velocity": 88, "duration": 147}, {"note": 0, "velocity": 0, "duration": 93}, {"note": 66, "velocity": 88, "duration": 413}, {"note": 0, "velocity": 0, "duration": 67}, {"note": 73, "velocity": 93, "duration": 787}, {"note": 0, "velocity": 0, "duration": 413}, {"note": 73, "velocity": 102, "duration": 403}, {"note": 0, "velocity": 0, "duration": 77}, {"note": 70, "velocity": 100, "duration": 361}, {"note": 0, "velocity": 0, "duration": 119}, {"note": 71, "velocity": 91, "duration": 396}, {"note": 0, "velocity": 0, "duration": 84}, {"note": 73, "velocity": 90, "duration": 177}, {"note": 0, "velocity": 0, "duration": 63}, {"note": 75, "velocity": 88, "duration": 381}, {"note": 0, "velocity": 0, "duration": 99}, {"note": 73, "velocity": 97, "duration": 485}, {"note": 68, "velocity": 89, "duration": 907}, {"note": 0, "velocity": 0, "duration": 293}, {"note": 66, "velocity": 88, "duration": 209}, {"note": 63, "velocity": 88, "duration": 154}, {"note": 0, "velocity": 0, "duration": 86}, {"note": 63, "velocity": 93, "duration": 226}, {"note": 61, "velocity": 89, "duration": 230}, {"note": 66, "velocity": 86, "duration": 1977}, {"note": 0, "velocity": 0, "duration": 5463}, {"note": 61, "velocity": 89, "duration": 205}, {"note": 68, "velocity": 80, "duration": 371}, {"note": 0, "velocity": 0, "duration": 109}, {"note": 68, "velocity": 95, "duration": 205}, {"note": 66, "velocity": 87, "duration": 164}, {"note": 0, "velocity": 0, "duration": 76}, {"note": 66, "velocity": 88, "duration": 194}, {"note": 68, "velocity": 92, "duration": 352}, {"note": 0, "velocity": 0, "duration": 128}, {"note": 70, "velocity": 88, "duration": 935}, {"note": 0, "velocity": 0, "duration": 745}, {"note": 70, "velocity": 92, "duration": 176}, {"note": 0, "velocity": 0, "duration": 64}, {"note": 73, "velocity": 90, "duration": 185}, {"note": 75, "velocity": 90, "duration": 172}, {"note": 0, "velocity": 0, "duration": 68}, {"note": 75, "velocity": 87, "duration": 172}, {"note": 0, "velocity": 0, "duration": 68}, {"note": 75, "velocity": 91, "duration": 180}, {"note": 77, "velocity": 88, "duration": 172}, {"note": 0, "velocity": 0, "duration": 68}, {"note": 75, "velocity": 97, "duration": 420}, {"note": 73, "velocity": 93, "duration": 467}, {"note": 70, "velocity": 90, "duration": 575}, {"note": 0, "velocity": 0, "duration": 865}, {"note": 70, "velocity": 88, "duration": 180}, {"note": 70, "velocity": 88, "duration": 196}, {"note": 68, "velocity": 87, "duration": 643}, {"note": 0, "velocity": 0, "duration": 77}, {"note": 66, "velocity": 89, "duration": 625}, {"note": 0, "velocity": 0, "duration": 95}, {"note": 70, "velocity": 95, "duration": 139}, {"note": 0, "velocity": 0, "duration": 101}, {"note": 70, "velocity": 88, "duration": 182}, {"note": 68, "velocity": 90, "duration": 650}, {"note": 0, "velocity": 0, "duration": 70}, {"note": 66, "velocity": 92, "duration": 805}, {"note": 0, "velocity": 0, "duration": 395}, {"note": 68, "velocity": 82, "duration": 158}, {"note": 0, "velocity": 0, "duration": 82}, {"note": 68, "velocity": 82, "duration": 153}, {"note": 0, "velocity": 0, "duration": 87}, {"note": 68, "velocity": 85, "duration": 156}, {"note": 0, "velocity": 0, "duration": 84}, {"note": 68, "velocity": 87, "duration": 180}, {"note": 70, "velocity": 88, "duration": 190}, {"note": 68, "velocity": 93, "duration": 164}, {"note": 0, "velocity": 0, "duration": 76}, {"note": 63, "velocity": 97, "duration": 202}, {"note": 68, "velocity": 88, "duration": 1327}, {"note": 0, "velocity": 0, "duration": 353}, {"note": 61, "velocity": 89, "duration": 205}, {"note": 61, "velocity": 89, "duration": 205}, {"note": 68, "velocity": 80, "duration": 371}, {"note": 0, "velocity": 0, "duration": 109}, {"note": 68, "velocity": 95, "duration": 205}, {"note": 66, "velocity": 87, "duration": 164}, {"note": 0, "velocity": 0, "duration": 76}, {"note": 68, "velocity": 88, "duration": 194}, {"note": 73, "velocity": 92, "duration": 352}, {"note": 0, "velocity": 0, "duration": 128}, {"note": 70, "velocity": 88, "duration": 935}, {"note": 0, "velocity": 0, "duration": 745}, {"note": 70, "velocity": 92, "duration": 176}, {"note": 0, "velocity": 0, "duration": 64}, {"note": 73, "velocity": 90, "duration": 185}, {"note": 75, "velocity": 90, "duration": 172}, {"note": 0, "velocity": 0, "duration": 68}, {"note": 75, "velocity": 87, "duration": 172}, {"note": 0, "velocity": 0, "duration": 68}, {"note": 75, "velocity": 91, "duration": 180}, {"note": 77, "velocity": 88, "duration": 172}, {"note": 0, "velocity": 0, "duration": 68}, {"note": 75, "velocity": 97, "duration": 420}, {"note": 73, "velocity": 93, "duration": 467}, {"note": 70, "velocity": 90, "duration": 960}, {"note": 0, "velocity": 0, "duration": 480}, {"note": 70, "velocity": 88, "duration": 180}, {"note": 70, "velocity": 88, "duration": 196}, {"note": 68, "velocity": 87, "duration": 643}, {"note": 0, "velocity": 0, "duration": 77}, {"note": 66, "velocity": 89, "duration": 625}, {"note": 0, "velocity": 0, "duration": 95}, {"note": 70, "velocity": 95, "duration": 139}, {"note": 0, "velocity": 0, "duration": 101}, {"note": 70, "velocity": 88, "duration": 182}, {"note": 68, "velocity": 90, "duration": 650}, {"note": 0, "velocity": 0, "duration": 70}, {"note": 66, "velocity": 92, "duration": 805}, {"note": 0, "velocity": 0, "duration": 395}, {"note": 61, "velocity": 88, "duration": 159}, {"note": 0, "velocity": 0, "duration": 81}, {"note": 61, "velocity": 88, "duration": 152}, {"note": 0, "velocity": 0, "duration": 88}, {"note": 61, "velocity": 88, "duration": 152}, {"note": 0, "velocity": 0, "duration": 88}, {"note": 61, "velocity": 88, "duration": 169}, {"note": 0, "velocity": 0, "duration": 71}, {"note": 65, "velocity": 87, "duration": 160}, {"note": 0, "velocity": 0, "duration": 80}, {"note": 65, "velocity": 87, "duration": 410}, {"note": 0, "velocity": 0, "duration": 70}, {"note": 66, "velocity": 87, "duration": 1604}, {"note": 0, "velocity": 0, "duration": 1516}, {"note": 66, "velocity": 91, "duration": 147}, {"note": 0, "velocity": 0, "duration": 93}, {"note": 68, "velocity": 92, "duration": 185}, {"note": 66, "velocity": 88, "duration": 176}, {"note": 0, "velocity": 0, "duration": 64}, {"note": 69, "velocity": 88, "duration": 381}, {"note": 0, "velocity": 0, "duration": 99}, {"note": 69, "velocity": 88, "duration": 344}, {"note": 0, "velocity": 0, "duration": 136}, {"note": 69, "velocity": 87, "duration": 384}, {"note": 0, "velocity": 0, "duration": 96}, {"note": 69, "velocity": 90, "duration": 420}, {"note": 68, "velocity": 88, "duration": 902}, {"note": 0, "velocity": 0, "duration": 298}, {"note": 66, "velocity": 87, "duration": 156}, {"note": 0, "velocity": 0, "duration": 84}, {"note": 64, "velocity": 88, "duration": 201}, {"note": 61, "velocity": 87, "duration": 201}, {"note": 66, "velocity": 86, "duration": 1717}, {"note": 0, "velocity": 0, "duration": 1403}, {"note": 66, "velocity": 87, "duration": 147}, {"note": 0, "velocity": 0, "duration": 93}, {"note": 68, "velocity": 91, "duration": 180}, {"note": 66, "velocity": 90, "duration": 173}, {"note": 0, "velocity": 0, "duration": 67}, {"note": 69, "velocity": 88, "duration": 365}, {"note": 0, "velocity": 0, "duration": 115}, {"note": 69, "velocity": 88, "duration": 366}, {"note": 0, "velocity": 0, "duration": 114}, {"note": 69, "velocity": 90, "duration": 328}, {"note": 0, "velocity": 0, "duration": 152}, {"note": 69, "velocity": 95, "duration": 337}, {"note": 0, "velocity": 0, "duration": 143}, {"note": 68, "velocity": 95, "duration": 924}, {"note": 0, "velocity": 0, "duration": 276}, {"note": 61, "velocity": 92, "duration": 151}, {"note": 0, "velocity": 0, "duration": 89}, {"note": 61, "velocity": 88, "duration": 145}, {"note": 0, "velocity": 0, "duration": 95}, {"note": 61, "velocity": 87, "duration": 177}, {"note": 0, "velocity": 0, "duration": 63}, {"note": 73, "velocity": 92, "duration": 381}, {"note": 0, "velocity": 0, "duration": 99}, {"note": 71, "velocity": 88, "duration": 298}, {"note": 0, "velocity": 0, "duration": 182}, {"note": 69, "velocity": 88, "duration": 381}, {"note": 0, "velocity": 0, "duration": 99}, {"note": 68, "velocity": 92, "duration": 205}, {"note": 66, "velocity": 86, "duration": 176}, {"note": 0, "velocity": 0, "duration": 64}, {"note": 68, "velocity": 92, "duration": 2238}, {"note": 0, "velocity": 0, "duration": 882}, {"note": 66, "velocity": 92, "duration": 359}, {"note": 0, "velocity": 0, "duration": 121}, {"note": 66, "velocity": 93, "duration": 332}, {"note": 0, "velocity": 0, "duration": 148}, {"note": 73, "velocity": 97, "duration": 857}, {"note": 0, "velocity": 0, "duration": 103}, {"note": 73, "velocity": 102, "duration": 194}, {"note": 75, "velocity": 87, "duration": 403}, {"note": 0, "velocity": 0, "duration": 77}, {"note": 75, "velocity": 91, "duration": 205}, {"note": 68, "velocity": 90, "duration": 480}, {"note": 0, "velocity": 0, "duration": 240}, {"note": 68, "velocity": 87, "duration": 180}, {"note": 70, "velocity": 90, "duration": 435}, {"note": 68, "velocity": 86, "duration": 195}, {"note": 68, "velocity": 90, "duration": 402}, {"note": 0, "velocity": 0, "duration": 78}, {"note": 66, "velocity": 90, "duration": 164}, {"note": 0, "velocity": 0, "duration": 76}, {"note": 66, "velocity": 87, "duration": 150}, {"note": 0, "velocity": 0, "duration": 90}, {"note": 66, "velocity": 87, "duration": 157}, {"note": 0, "velocity": 0, "duration": 83}, {"note": 66, "velocity": 89, "duration": 189}, {"note": 68, "velocity": 97, "duration": 176}, {"note": 0, "velocity": 0, "duration": 64}, {"note": 70, "velocity": 92, "duration": 123}, {"note": 0, "velocity": 0, "duration": 117}, {"note": 77, "velocity": 90, "duration": 362}, {"note": 0, "velocity": 0, "duration": 118}, {"note": 73, "velocity": 97, "duration": 447}, {"note": 0, "velocity": 0, "duration": 273}, {"note": 66, "velocity": 90, "duration": 355}, {"note": 0, "velocity": 0, "duration": 125}, {"note": 66, "velocity": 95, "duration": 371}, {"note": 0, "velocity": 0, "duration": 109}, {"note": 75, "velocity": 95, "duration": 792}, {"note": 0, "velocity": 0, "duration": 168}, {"note": 66, "velocity": 88, "duration": 147}, {"note": 0, "velocity": 0, "duration": 93}, {"note": 66, "velocity": 88, "duration": 413}, {"note": 0, "velocity": 0, "duration": 67}, {"note": 73, "velocity": 93, "duration": 787}, {"note": 0, "velocity": 0, "duration": 413}, {"note": 73, "velocity": 102, "duration": 403}, {"note": 0, "velocity": 0, "duration": 77}, {"note": 70, "velocity": 100, "duration": 361}, {"note": 0, "velocity": 0, "duration": 119}, {"note": 71, "velocity": 91, "duration": 396}, {"note": 0, "velocity": 0, "duration": 84}, {"note": 73, "velocity": 90, "duration": 177}, {"note": 0, "velocity": 0, "duration": 63}, {"note": 75, "velocity": 88, "duration": 381}, {"note": 0, "velocity": 0, "duration": 99}, {"note": 73, "velocity": 97, "duration": 485}, {"note": 68, "velocity": 89, "duration": 907}, {"note": 0, "velocity": 0, "duration": 293}, {"note": 66, "velocity": 92, "duration": 359}, {"note": 0, "velocity": 0, "duration": 121}, {"note": 66, "velocity": 93, "duration": 332}, {"note": 0, "velocity": 0, "duration": 148}, {"note": 73, "velocity": 97, "duration": 857}, {"note": 0, "velocity": 0, "duration": 103}, {"note": 73, "velocity": 102, "duration": 194}, {"note": 75, "velocity": 87, "duration": 403}, {"note": 0, "velocity": 0, "duration": 77}, {"note": 75, "velocity": 91, "duration": 205}, {"note": 68, "velocity": 90, "duration": 480}, {"note": 0, "velocity": 0, "duration": 240}, {"note": 68, "velocity": 87, "duration": 180}, {"note": 70, "velocity": 90, "duration": 435}, {"note": 68, "velocity": 86, "duration": 195}, {"note": 68, "velocity": 90, "duration": 402}, {"note": 0, "velocity": 0, "duration": 78}, {"note": 66, "velocity": 90, "duration": 164}, {"note": 0, "velocity": 0, "duration": 76}, {"note": 66, "velocity": 87, "duration": 150}, {"note": 0, "velocity": 0, "duration": 90}, {"note": 66, "velocity": 87, "duration": 157}, {"note": 0, "velocity": 0, "duration": 83}, {"note": 66, "velocity": 89, "duration": 189}, {"note": 68, "velocity": 97, "duration": 176}, {"note": 0, "velocity": 0, "duration": 64}, {"note": 70, "velocity": 92, "duration": 123}, {"note": 0, "velocity": 0, "duration": 117}, {"note": 77, "velocity": 90, "duration": 362}, {"note": 0, "velocity": 0, "duration": 118}, {"note": 73, "velocity": 97, "duration": 447}, {"note": 0, "velocity": 0, "duration": 273}, {"note": 66, "velocity": 90, "duration": 355}, {"note": 0, "velocity": 0, "duration": 125}, {"note": 66, "velocity": 95, "duration": 371}, {"note": 0, "velocity": 0, "duration": 109}, {"note": 75, "velocity": 95, "duration": 792}, {"note": 0, "velocity": 0, "duration": 168}, {"note": 66, "velocity": 88, "duration": 147}, {"note": 0, "velocity": 0, "duration": 93}, {"note": 66, "velocity": 88, "duration": 413}, {"note": 0, "velocity": 0, "duration": 67}, {"note": 73, "velocity": 93, "duration": 787}, {"note": 0, "velocity": 0, "duration": 413}, {"note": 73, "velocity": 102, "duration": 403}, {"note": 0, "velocity": 0, "duration": 77}, {"note": 70, "velocity": 100, "duration": 361}, {"note": 0, "velocity": 0, "duration": 119}, {"note": 71, "velocity": 91, "duration": 396}, {"note": 0, "velocity": 0, "duration": 84}, {"note": 73, "velocity": 90, "duration": 177}, {"note": 0, "velocity": 0, "duration": 63}, {"note": 75, "velocity": 88, "duration": 381}, {"note": 0, "velocity": 0, "duration": 99}, {"note": 73, "velocity": 97, "duration": 485}, {"note": 68, "velocity": 89, "duration": 907}, {"note": 0, "velocity": 0, "duration": 293}, {"note": 66, "velocity": 88, "duration": 209}, {"note": 63, "velocity": 88, "duration": 154}, {"note": 0, "velocity": 0, "duration": 86}, {"note": 63, "velocity": 93, "duration": 226}, {"note": 61, "velocity": 89, "duration": 230}, {"note": 66, "velocity": 86, "duration": 1977}, {"note": 0, "velocity": 0, "duration": 423}, {"note": 66, "velocity": 88, "duration": 152}, {"note": 0, "velocity": 0, "duration": 88}, {"note": 66, "velocity": 90, "duration": 193}, {"note": 70, "velocity": 87, "duration": 384}, {"note": 0, "velocity": 0, "duration": 96}, {"note": 68, "velocity": 90, "duration": 368}, {"note": 0, "velocity": 0, "duration": 112}, {"note": 66, "velocity": 87, "duration": 2159}, {"note": 0, "velocity": 0, "duration": 241}, {"note": 66, "velocity": 82, "duration": 131}, {"note": 0, "velocity": 0, "duration": 109}, {"note": 66, "velocity": 88, "duration": 181}, {"note": 70, "velocity": 90, "duration": 1029}, {"note": 68, "velocity": 93, "duration": 948}, {"note": 66, "velocity": 88, "duration": 2006}]]