[[{"note": 80, "velocity": 90, "duration": 174}, {"note": 0, "velocity": 0, "duration": 66}, {"note": 80, "velocity": 92, "duration": 223}, {"note": 78, "velocity": 90, "duration": 101}, {"note": 80, "velocity": 92, "duration": 122}, {"note": 82, "velocity": 97, "duration": 249}, {"note": 80, "velocity": 94, "duration": 922}, {"note": 80, "velocity": 91, "duration": 400}, {"note": 0, "velocity": 0, "duration": 80}, {"note": 78, "velocity": 94, "duration": 117}, {"note": 80, "velocity": 89, "duration": 115}, {"note": 73, "velocity": 94, "duration": 257}, {"note": 75, "velocity": 94, "duration": 837}, {"note": 0, "velocity": 0, "duration": 123}, {"note": 75, "velocity": 102, "duration": 181}, {"note": 75, "velocity": 95, "duration": 198}, {"note": 73, "velocity": 90, "duration": 92}, {"note": 75, "velocity": 94, "duration": 110}, {"note": 71, "velocity": 89, "duration": 227}, {"note": 73, "velocity": 92, "duration": 877}, {"note": 0, "velocity": 0, "duration": 83}, {"note": 73, "velocity": 92, "duration": 185}, {"note": 73, "velocity": 90, "duration": 176}, {"note": 0, "velocity": 0, "duration": 64}, {"note": 73, "velocity": 90, "duration": 92}, {"note": 75, "velocity": 95, "duration": 90}, {"note": 77, "velocity": 91, "duration": 230}, {"note": 75, "velocity": 93, "duration": 880}, {"note": 0, "velocity": 0, "duration": 80}, {"note": 80, "velocity": 90, "duration": 174}, {"note": 0, "velocity": 0, "duration": 66}, {"note": 80, "velocity": 92, "duration": 223}, {"note": 78, "velocity": 90, "duration": 101}, {"note": 80, "velocity": 92, "duration": 122}, {"note": 82, "velocity": 97, "duration": 249}, {"note": 80, "velocity": 94, "duration": 922}, {"note": 80, "velocity": 97, "duration": 404}, {"note": 0, "velocity": 0, "duration": 76}, {"note": 82, "velocity": 88, "duration": 125}, {"note": 80, "velocity": 90, "duration": 115}, {"note": 78, "velocity": 93, "duration": 133}, {"note": 73, "velocity": 92, "duration": 136}, {"note": 75, "velocity": 97, "duration": 883}, {"note": 0, "velocity": 0, "duration": 77}, {"note": 75, "velocity": 102, "duration": 181}, {"note": 75, "velocity": 95, "duration": 198}, {"note": 73, "velocity": 90, "duration": 92}, {"note": 75, "velocity": 94, "duration": 110}, {"note": 71, "velocity": 89, "duration": 227}, {"note": 73, "velocity": 92, "duration": 877}, {"note": 0, "velocity": 0, "duration": 83}, {"note": 78, "velocity": 94, "duration": 363}, {"note": 75, "velocity": 94, "duration": 121}, {"note": 82, "velocity": 97, "duration": 139}, {"note": 80, "velocity": 92, "duration": 129}, {"note": 78, "velocity": 92, "duration": 262}, {"note": 80, "velocity": 89, "duration": 1878}, {"note": 0, "velocity": 0, "duration": 2922}, {"note": 80, "velocity": 99, "duration": 197}, {"note": 80, "velocity": 104, "duration": 212}, {"note": 83, "velocity": 97, "duration": 112}, {"note": 85, "velocity": 95, "duration": 89}, {"note": 82, "velocity": 99, "duration": 115}, {"note": 80, "velocity": 91, "duration": 130}, {"note": 83, "velocity": 97, "duration": 678}, {"note": 0, "velocity": 0, "duration": 282}, {"note": 80, "velocity": 95, "duration": 238}, {"note": 85, "velocity": 95, "duration": 177}, {"note": 0, "velocity": 0, "duration": 63}, {"note": 85, "velocity": 95, "duration": 249}, {"note": 82, "velocity": 92, "duration": 129}, {"note": 80, "velocity": 89, "duration": 347}, {"note": 78, "velocity": 90, "duration": 583}, {"note": 0, "velocity": 0, "duration": 137}, {"note": 73, "velocity": 94, "duration": 311}, {"note": 75, "velocity": 99, "duration": 97}, {"note": 73, "velocity": 94, "duration": 102}, {"note": 75, "velocity": 95, "duration": 118}, {"note": 78, "velocity": 92, "duration": 176}, {"note": 0, "velocity": 0, "duration": 64}, {"note": 80, "velocity": 90, "duration": 184}, {"note": 80, "velocity": 90, "duration": 179}, {"note": 0, "velocity": 0, "duration": 61}, {"note": 75, "velocity": 95, "duration": 121}, {"note": 76, "velocity": 82, "duration": 140}, {"note": 75, "velocity": 95, "duration": 107}, {"note": 73, "velocity": 88, "duration": 146}, {"note": 71, "velocity": 89, "duration": 532}, {"note": 0, "velocity": 0, "duration": 188}, {"note": 73, "velocity": 92, "duration": 128}, {"note": 75, "velocity": 94, "duration": 119}, {"note": 78, "velocity": 89, "duration": 748}, {"note": 75, "velocity": 94, "duration": 80}, {"note": 78, "velocity": 94, "duration": 90}, {"note": 80, "velocity": 92, "duration": 176}, {"note": 0, "velocity": 0, "duration": 64}, {"note": 80, "velocity": 92, "duration": 208}, {"note": 83, "velocity": 89, "duration": 109}, {"note": 85, "velocity": 92, "duration": 77}, {"note": 82, "velocity": 95, "duration": 105}, {"note": 80, "velocity": 90, "duration": 126}, {"note": 83, "velocity": 87, "duration": 644}, {"note": 0, "velocity": 0, "duration": 316}, {"note": 80, "velocity": 94, "duration": 218}, {"note": 85, "velocity": 99, "duration": 175}, {"note": 0, "velocity": 0, "duration": 65}, {"note": 85, "velocity": 92, "duration": 236}, {"note": 82, "velocity": 90, "duration": 124}, {"note": 80, "velocity": 90, "duration": 88}, {"note": 80, "velocity": 88, "duration": 229}, {"note": 78, "velocity": 88, "duration": 466}, {"note": 0, "velocity": 0, "duration": 254}, {"note": 73, "velocity": 89, "duration": 329}, {"note": 75, "velocity": 92, "duration": 119}, {"note": 73, "velocity": 92, "duration": 139}, {"note": 75, "velocity": 102, "duration": 118}, {"note": 78, "velocity": 92, "duration": 274}, {"note": 80, "velocity": 93, "duration": 165}, {"note": 0, "velocity": 0, "duration": 75}, {"note": 80, "velocity": 99, "duration": 203}, {"note": 75, "velocity": 97, "duration": 129}, {"note": 76, "velocity": 87, "duration": 141}, {"note": 75, "velocity": 95, "duration": 114}, {"note": 73, "velocity": 88, "duration": 147}, {"note": 71, "velocity": 80, "duration": 579}, {"note": 0, "velocity": 0, "duration": 141}, {"note": 73, "velocity": 92, "duration": 107}, {"note": 75, "velocity": 95, "duration": 122}, {"note": 78, "velocity": 92, "duration": 709}, {"note": 75, "velocity": 90, "duration": 109}, {"note": 78, "velocity": 89, "duration": 116}, {"note": 73, "velocity": 93, "duration": 289}, {"note": 0, "velocity": 0, "duration": 71}, {"note": 75, "velocity": 92, "duration": 87}, {"note": 70, "velocity": 84, "duration": 81}, {"note": 68, "velocity": 88, "duration": 72}, {"note": 66, "velocity": 87, "duration": 216}, {"note": 68, "velocity": 88, "duration": 927}, {"note": 0, "velocity": 0, "duration": 21153}, {"note": 80, "velocity": 90, "duration": 174}, {"note": 0, "velocity": 0, "duration": 66}, {"note": 80, "velocity": 92, "duration": 223}, {"note": 78, "velocity": 90, "duration": 101}, {"note": 80, "velocity": 92, "duration": 122}, {"note": 82, "velocity": 97, "duration": 249}, {"note": 80, "velocity": 94, "duration": 922}, {"note": 80, "velocity": 91, "duration": 400}, {"note": 0, "velocity": 0, "duration": 80}, {"note": 78, "velocity": 94, "duration": 117}, {"note": 80, "velocity": 89, "duration": 115}, {"note": 73, "velocity": 94, "duration": 257}, {"note": 75, "velocity": 94, "duration": 837}, {"note": 0, "velocity": 0, "duration": 123}, {"note": 75, "velocity": 102, "duration": 181}, {"note": 75, "velocity": 95, "duration": 198}, {"note": 73, "velocity": 90, "duration": 92}, {"note": 75, "velocity": 94, "duration": 110}, {"note": 71, "velocity": 89, "duration": 227}, {"note": 73, "velocity": 92, "duration": 877}, {"note": 0, "velocity": 0, "duration": 83}, {"note": 73, "velocity": 92, "duration": 185}, {"note": 73, "velocity": 90, "duration": 176}, {"note": 0, "velocity": 0, "duration": 64}, {"note": 73, "velocity": 90, "duration": 92}, {"note": 75, "velocity": 95, "duration": 90}, {"note": 77, "velocity": 91, "duration": 230}, {"note": 75, "velocity": 93, "duration": 880}, {"note": 0, "velocity": 0, "duration": 80}, {"note": 80, "velocity": 90, "duration": 174}, {"note": 0, "velocity": 0, "duration": 66}, {"note": 80, "velocity": 92, "duration": 223}, {"note": 78, "velocity": 90, "duration": 101}, {"note": 80, "velocity": 92, "duration": 122}, {"note": 82, "velocity": 97, "duration": 249}, {"note": 80, "velocity": 94, "duration": 922}, {"note": 80, "velocity": 97, "duration": 404}, {"note": 0, "velocity": 0, "duration": 76}, {"note": 82, "velocity": 88, "duration": 125}, {"note": 80, "velocity": 90, "duration": 115}, {"note": 78, "velocity": 93, "duration": 133}, {"note": 73, "velocity": 92, "duration": 136}, {"note": 75, "velocity": 97, "duration": 883}, {"note": 0, "velocity": 0, "duration": 77}, {"note": 75, "velocity": 102, "duration": 181}, {"note": 75, "velocity": 95, "duration": 198}, {"note": 73, "velocity": 90, "duration": 92}, {"note": 75, "velocity": 94, "duration": 110}, {"note": 71, "velocity": 89, "duration": 227}, {"note": 73, "velocity": 92, "duration": 877}, {"note": 0, "velocity": 0, "duration": 83}, {"note": 78, "velocity": 94, "duration": 363}, {"note": 75, "velocity": 94, "duration": 121}, {"note": 82, "velocity": 97, "duration": 139}, {"note": 80, "velocity": 92, "duration": 129}, {"note": 78, "velocity": 92, "duration": 262}, {"note": 80, "velocity": 89, "duration": 1878}, {"note": 0, "velocity": 0, "duration": 2922}, {"note": 80, "velocity": 99, "duration": 197}, {"note": 80, "velocity": 104, "duration": 212}, {"note": 83, "velocity": 97, "duration": 112}, {"note": 85, "velocity": 95, "duration": 89}, {"note": 82, "velocity": 99, "duration": 115}, {"note": 80, "velocity": 91, "duration": 130}, {"note": 83, "velocity": 97, "duration": 678}, {"note": 0, "velocity": 0, "duration": 282}, {"note": 80, "velocity": 95, "duration": 238}, {"note": 85, "velocity": 95, "duration": 177}, {"note": 0, "velocity": 0, "duration": 63}, {"note": 85, "velocity": 95, "duration": 249}, {"note": 82, "velocity": 92, "duration": 129}, {"note": 80, "velocity": 89, "duration": 347}, {"note": 78, "velocity": 90, "duration": 583}, {"note": 0, "velocity": 0, "duration": 137}, {"note": 73, "velocity": 94, "duration": 311}, {"note": 75, "velocity": 99, "duration": 97}, {"note": 73, "velocity": 94, "duration": 102}, {"note": 75, "velocity": 95, "duration": 118}, {"note": 78, "velocity": 92, "duration": 176}, {"note": 0, "velocity": 0, "duration": 64}, {"note": 80, "velocity": 90, "duration": 184}, {"note": 80, "velocity": 90, "duration": 179}, {"note": 0, "velocity": 0, "duration": 61}, {"note": 75, "velocity": 95, "duration": 121}, {"note": 76, "velocity": 82, "duration": 140}, {"note": 75, "velocity": 95, "duration": 107}, {"note": 73, "velocity": 88, "duration": 146}, {"note": 71, "velocity": 89, "duration": 532}, {"note": 0, "velocity": 0, "duration": 188}, {"note": 73, "velocity": 92, "duration": 128}, {"note": 75, "velocity": 94, "duration": 119}, {"note": 78, "velocity": 89, "duration": 748}, {"note": 75, "velocity": 94, "duration": 80}, {"note": 78, "velocity": 94, "duration": 90}, {"note": 80, "velocity": 92, "duration": 176}, {"note": 0, "velocity": 0, "duration": 64}, {"note": 80, "velocity": 92, "duration": 208}, {"note": 83, "velocity": 89, "duration": 109}, {"note": 85, "velocity": 92, "duration": 77}, {"note": 82, "velocity": 95, "duration": 105}, {"note": 80, "velocity": 90, "duration": 126}, {"note": 83, "velocity": 87, "duration": 644}, {"note": 0, "velocity": 0, "duration": 316}, {"note": 80, "velocity": 94, "duration": 218}, {"note": 85, "velocity": 99, "duration": 175}, {"note": 0, "velocity": 0, "duration": 65}, {"note": 85, "velocity": 92, "duration": 236}, {"note": 82, "velocity": 90, "duration": 124}, {"note": 80, "velocity": 90, "duration": 88}, {"note": 80, "velocity": 88, "duration": 229}, {"note": 78, "velocity": 88, "duration": 466}, {"note": 0, "velocity": 0, "duration": 254}, {"note": 73, "velocity": 89, "duration": 329}, {"note": 75, "velocity": 92, "duration": 119}, {"note": 73, "velocity": 92, "duration": 139}, {"note": 75, "velocity": 102, "duration": 118}, {"note": 78, "velocity": 92, "duration": 274}, {"note": 80, "velocity": 93, "duration": 165}, {"note": 0, "velocity": 0, "duration": 75}, {"note": 80, "velocity": 99, "duration": 203}, {"note": 75, "velocity": 97, "duration": 129}, {"note": 76, "velocity": 87, "duration": 141}, {"note": 75, "velocity": 95, "duration": 114}, {"note": 73, "velocity": 88, "duration": 147}, {"note": 71, "velocity": 80, "duration": 579}, {"note": 0, "velocity": 0, "duration": 141}, {"note": 73, "velocity": 92, "duration": 107}, {"note": 75, "velocity": 95, "duration": 122}, {"note": 78, "velocity": 92, "duration": 709}, {"note": 75, "velocity": 90, "duration": 109}, {"note": 78, "velocity": 89, "duration": 116}, {"note": 73, "velocity": 93, "duration": 289}, {"note": 0, "velocity": 0, "duration": 71}, {"note": 75, "velocity": 92, "duration": 87}, {"note": 70, "velocity": 84, "duration": 81}, {"note": 68, "velocity": 88, "duration": 72}, {"note": 66, "velocity": 87, "duration": 216}, {"note": 68, "velocity": 88, "duration": 927}, {"note": 80, "velocity": 99, "duration": 197}, {"note": 80, "velocity": 104, "duration": 212}, {"note": 83, "velocity": 97, "duration": 112}, {"note": 85, "velocity": 95, "duration": 89}, {"note": 82, "velocity": 99, "duration": 115}, {"note": 80, "velocity": 91, "duration": 130}, {"note": 83, "velocity": 97, "duration": 678}, {"note": 0, "velocity": 0, "duration": 282}, {"note": 80, "velocity": 95, "duration": 238}, {"note": 85, "velocity": 95, "duration": 177}, {"note": 0, "velocity": 0, "duration": 63}, {"note": 85, "velocity": 95, "duration": 249}, {"note": 82, "velocity": 92, "duration": 129}, {"note": 80, "velocity": 89, "duration": 347}, {"note": 78, "velocity": 90, "duration": 583}, {"note": 0, "velocity": 0, "duration": 137}, {"note": 73, "velocity": 94, "duration": 311}, {"note": 75, "velocity": 99, "duration": 97}, {"note": 73, "velocity": 94, "duration": 102}, {"note": 75, "velocity": 95, "duration": 118}, {"note": 78, "velocity": 92, "duration": 176}, {"note": 0, "velocity": 0, "duration": 64}, {"note": 80, "velocity": 90, "duration": 184}, {"note": 80, "velocity": 90, "duration": 179}, {"note": 0, "velocity": 0, "duration": 61}, {"note": 75, "velocity": 95, "duration": 121}, {"note": 76, "velocity": 82, "duration": 140}, {"note": 75, "velocity": 95, "duration": 107}, {"note": 73, "velocity": 88, "duration": 146}, {"note": 71, "velocity": 89, "duration": 532}, {"note": 0, "velocity": 0, "duration": 188}, {"note": 73, "velocity": 92, "duration": 128}, {"note": 75, "velocity": 94, "duration": 119}, {"note": 78, "velocity": 89, "duration": 748}, {"note": 75, "velocity": 94, "duration": 80}, {"note": 78, "velocity": 94, "duration": 90}, {"note": 80, "velocity": 92, "duration": 176}, {"note": 0, "velocity": 0, "duration": 64}, {"note": 80, "velocity": 92, "duration": 208}, {"note": 83, "velocity": 89, "duration": 109}, {"note": 85, "velocity": 92, "duration": 77}, {"note": 82, "velocity": 95, "duration": 105}, {"note": 80, "velocity": 90, "duration": 126}, {"note": 83, "velocity": 87, "duration": 644}, {"note": 0, "velocity": 0, "duration": 316}, {"note": 80, "velocity": 94, "duration": 218}, {"note": 85, "velocity": 99, "duration": 175}, {"note": 0, "velocity": 0, "duration": 65}, {"note": 85, "velocity": 92, "duration": 236}, {"note": 82, "velocity": 90, "duration": 124}, {"note": 80, "velocity": 90, "duration": 88}, {"note": 80, "velocity": 88, "duration": 229}, {"note": 78, "velocity": 88, "duration": 466}, {"note": 0, "velocity": 0, "duration": 254}, {"note": 73, "velocity": 89, "duration": 329}, {"note": 75, "velocity": 92, "duration": 119}, {"note": 73, "velocity": 92, "duration": 139}, {"note": 75, "velocity": 102, "duration": 118}, {"note": 78, "velocity": 92, "duration": 274}, {"note": 80, "velocity": 93, "duration": 165}, {"note": 0, "velocity": 0, "duration": 75}, {"note": 80, "velocity": 99, "duration": 203}, {"note": 75, "velocity": 97, "duration": 129}, {"note": 76, "velocity": 87, "duration": 141}, {"note": 75, "velocity": 95, "duration": 114}, {"note": 73, "velocity": 88, "duration": 147}, {"note": 71, "velocity": 80, "duration": 579}, {"note": 0, "velocity": 0, "duration": 141}, {"note": 73, "velocity": 92, "duration": 107}, {"note": 75, "velocity": 95, "duration": 122}, {"note": 78, "velocity": 92, "duration": 709}, {"note": 75, "velocity": 90, "duration": 109}, {"note": 0, "velocity": 0, "duration": 131}, {"note": 78, "velocity": 89, "duration": 670}, {"note": 80, "velocity": 90, "duration": 220}, {"note": 83, "velocity": 99, "duration": 513}, {"note": 82, "velocity": 94, "duration": 509}, {"note": 80, "velocity": 92, "duration": 1813}]]