[[{"note": 74, "velocity": 88, "duration": 200}, {"note": 69, "velocity": 85, "duration": 167}, {"note": 0, "velocity": 0, "duration": 73}, {"note": 69, "velocity": 78, "duration": 61}, {"note": 69, "velocity": 79, "duration": 66}, {"note": 69, "velocity": 84, "duration": 164}, {"note": 0, "velocity": 0, "duration": 76}, {"note": 69, "velocity": 74, "duration": 105}, {"note": 66, "velocity": 79, "duration": 75}, {"note": 71, "velocity": 84, "duration": 457}, {"note": 0, "velocity": 0, "duration": 263}, {"note": 69, "velocity": 78, "duration": 180}, {"note": 69, "velocity": 85, "duration": 280}, {"note": 0, "velocity": 0, "duration": 80}, {"note": 69, "velocity": 83, "duration": 65}, {"note": 69, "velocity": 81, "duration": 159}, {"note": 0, "velocity": 0, "duration": 81}, {"note": 66, "velocity": 84, "duration": 178}, {"note": 0, "velocity": 0, "duration": 62}, {"note": 64, "velocity": 84, "duration": 433}, {"note": 0, "velocity": 0, "duration": 287}, {"note": 74, "velocity": 85, "duration": 152}, {"note": 0, "velocity": 0, "duration": 88}, {"note": 69, "velocity": 81, "duration": 127}, {"note": 0, "velocity": 0, "duration": 113}, {"note": 69, "velocity": 76, "duration": 66}, {"note": 69, "velocity": 81, "duration": 64}, {"note": 69, "velocity": 83, "duration": 127}, {"note": 0, "velocity": 0, "duration": 113}, {"note": 69, "velocity": 78, "duration": 87}, {"note": 66, "velocity": 81, "duration": 51}, {"note": 0, "velocity": 0, "duration": 69}, {"note": 71, "velocity": 84, "duration": 509}, {"note": 0, "velocity": 0, "duration": 211}, {"note": 69, "velocity": 79, "duration": 72}, {"note": 69, "velocity": 83, "duration": 72}, {"note": 69, "velocity": 83, "duration": 127}, {"note": 0, "velocity": 0, "duration": 113}, {"note": 69, "velocity": 77, "duration": 82}, {"note": 69, "velocity": 79, "duration": 65}, {"note": 69, "velocity": 86, "duration": 190}, {"note": 78, "velocity": 85, "duration": 164}, {"note": 0, "velocity": 0, "duration": 76}, {"note": 76, "velocity": 83, "duration": 213}, {"note": 74, "velocity": 83, "duration": 223}, {"note": 0, "velocity": 0, "duration": 257}, {"note": 74, "velocity": 85, "duration": 130}, {"note": 0, "velocity": 0, "duration": 110}, {"note": 69, "velocity": 84, "duration": 126}, {"note": 0, "velocity": 0, "duration": 114}, {"note": 69, "velocity": 76, "duration": 65}, {"note": 69, "velocity": 82, "duration": 73}, {"note": 69, "velocity": 83, "duration": 139}, {"note": 0, "velocity": 0, "duration": 101}, {"note": 69, "velocity": 79, "duration": 84}, {"note": 66, "velocity": 78, "duration": 87}, {"note": 71, "velocity": 83, "duration": 453}, {"note": 0, "velocity": 0, "duration": 267}, {"note": 69, "velocity": 80, "duration": 169}, {"note": 0, "velocity": 0, "duration": 71}, {"note": 69, "velocity": 81, "duration": 164}, {"note": 0, "velocity": 0, "duration": 76}, {"note": 69, "velocity": 80, "duration": 65}, {"note": 69, "velocity": 80, "duration": 48}, {"note": 0, "velocity": 0, "duration": 72}, {"note": 69, "velocity": 84, "duration": 152}, {"note": 0, "velocity": 0, "duration": 88}, {"note": 66, "velocity": 84, "duration": 174}, {"note": 0, "velocity": 0, "duration": 66}, {"note": 64, "velocity": 84, "duration": 457}, {"note": 0, "velocity": 0, "duration": 263}, {"note": 74, "velocity": 86, "duration": 198}, {"note": 69, "velocity": 84, "duration": 163}, {"note": 0, "velocity": 0, "duration": 77}, {"note": 69, "velocity": 76, "duration": 66}, {"note": 69, "velocity": 83, "duration": 58}, {"note": 0, "velocity": 0, "duration": 62}, {"note": 69, "velocity": 84, "duration": 138}, {"note": 0, "velocity": 0, "duration": 102}, {"note": 69, "velocity": 77, "duration": 80}, {"note": 66, "velocity": 83, "duration": 66}, {"note": 71, "velocity": 84, "duration": 488}, {"note": 0, "velocity": 0, "duration": 232}, {"note": 69, "velocity": 83, "duration": 61}, {"note": 69, "velocity": 79, "duration": 49}, {"note": 0, "velocity": 0, "duration": 71}, {"note": 69, "velocity": 84, "duration": 145}, {"note": 0, "velocity": 0, "duration": 95}, {"note": 69, "velocity": 84, "duration": 65}, {"note": 69, "velocity": 84, "duration": 68}, {"note": 69, "velocity": 84, "duration": 184}, {"note": 78, "velocity": 87, "duration": 189}, {"note": 76, "velocity": 82, "duration": 173}, {"note": 0, "velocity": 0, "duration": 67}, {"note": 74, "velocity": 85, "duration": 248}, {"note": 71, "velocity": 89, "duration": 790}, {"note": 0, "velocity": 0, "duration": 170}, {"note": 71, "velocity": 88, "duration": 184}, {"note": 73, "velocity": 85, "duration": 159}, {"note": 0, "velocity": 0, "duration": 81}, {"note": 74, "velocity": 88, "duration": 160}, {"note": 0, "velocity": 0, "duration": 80}, {"note": 76, "velocity": 85, "duration": 159}, {"note": 0, "velocity": 0, "duration": 81}, {"note": 78, "velocity": 84, "duration": 294}, {"note": 0, "velocity": 0, "duration": 66}, {"note": 76, "velocity": 88, "duration": 322}, {"note": 74, "velocity": 86, "duration": 530}, {"note": 0, "velocity": 0, "duration": 190}, {"note": 74, "velocity": 92, "duration": 203}, {"note": 79, "velocity": 84, "duration": 177}, {"note": 0, "velocity": 0, "duration": 63}, {"note": 79, "velocity": 85, "duration": 261}, {"note": 0, "velocity": 0, "duration": 99}, {"note": 78, "velocity": 84, "duration": 294}, {"note": 0, "velocity": 0, "duration": 66}, {"note": 76, "velocity": 85, "duration": 407}, {"note": 0, "velocity": 0, "duration": 73}, {"note": 74, "velocity": 92, "duration": 214}, {"note": 83, "velocity": 86, "duration": 380}, {"note": 0, "velocity": 0, "duration": 100}, {"note": 81, "velocity": 84, "duration": 718}, {"note": 69, "velocity": 87, "duration": 163}, {"note": 0, "velocity": 0, "duration": 77}, {"note": 76, "velocity": 84, "duration": 189}, {"note": 78, "velocity": 84, "duration": 199}, {"note": 81, "velocity": 85, "duration": 249}, {"note": 78, "velocity": 94, "duration": 748}, {"note": 0, "velocity": 0, "duration": 212}, {"note": 76, "velocity": 94, "duration": 189}, {"note": 78, "velocity": 81, "duration": 166}, {"note": 0, "velocity": 0, "duration": 74}, {"note": 81, "velocity": 84, "duration": 144}, {"note": 0, "velocity": 0, "duration": 96}, {"note": 83, "velocity": 85, "duration": 423}, {"note": 81, "velocity": 83, "duration": 605}, {"note": 0, "velocity": 0, "duration": 115}, {"note": 81, "velocity": 85, "duration": 152}, {"note": 0, "velocity": 0, "duration": 88}, {"note": 81, "velocity": 85, "duration": 195}, {"note": 88, "velocity": 88, "duration": 370}, {"note": 0, "velocity": 0, "duration": 110}, {"note": 86, "velocity": 83, "duration": 588}, {"note": 0, "velocity": 0, "duration": 132}, {"note": 86, "velocity": 85, "duration": 164}, {"note": 0, "velocity": 0, "duration": 76}, {"note": 86, "velocity": 87, "duration": 152}, {"note": 0, "velocity": 0, "duration": 88}, {"note": 78, "velocity": 79, "duration": 179}, {"note": 0, "velocity": 0, "duration": 61}, {"note": 78, "velocity": 75, "duration": 334}, {"note": 0, "velocity": 0, "duration": 146}, {"note": 83, "velocity": 87, "duration": 391}, {"note": 0, "velocity": 0, "duration": 89}, {"note": 81, "velocity": 81, "duration": 282}, {"note": 0, "velocity": 0, "duration": 198}, {"note": 69, "velocity": 85, "duration": 177}, {"note": 0, "velocity": 0, "duration": 63}, {"note": 76, "velocity": 84, "duration": 152}, {"note": 0, "velocity": 0, "duration": 88}, {"note": 78, "velocity": 82, "duration": 216}, {"note": 81, "velocity": 83, "duration": 232}, {"note": 78, "velocity": 87, "duration": 564}, {"note": 0, "velocity": 0, "duration": 156}, {"note": 81, "velocity": 86, "duration": 198}, {"note": 83, "velocity": 85, "duration": 535}, {"note": 0, "velocity": 0, "duration": 185}, {"note": 85, "velocity": 87, "duration": 188}, {"note": 83, "velocity": 84, "duration": 400}, {"note": 0, "velocity": 0, "duration": 80}, {"note": 81, "velocity": 86, "duration": 357}, {"note": 0, "velocity": 0, "duration": 123}, {"note": 78, "velocity": 83, "duration": 359}, {"note": 0, "velocity": 0, "duration": 841}, {"note": 74, "velocity": 85, "duration": 381}, {"note": 0, "velocity": 0, "duration": 99}, {"note": 71, "velocity": 84, "duration": 192}, {"note": 74, "velocity": 92, "duration": 452}, {"note": 81, "velocity": 83, "duration": 461}, {"note": 74, "velocity": 83, "duration": 193}, {"note": 76, "velocity": 86, "duration": 696}, {"note": 69, "velocity": 87, "duration": 163}, {"note": 0, "velocity": 0, "duration": 77}, {"note": 76, "velocity": 84, "duration": 189}, {"note": 78, "velocity": 84, "duration": 199}, {"note": 81, "velocity": 85, "duration": 249}, {"note": 78, "velocity": 94, "duration": 748}, {"note": 0, "velocity": 0, "duration": 212}, {"note": 76, "velocity": 94, "duration": 189}, {"note": 78, "velocity": 81, "duration": 166}, {"note": 0, "velocity": 0, "duration": 74}, {"note": 81, "velocity": 84, "duration": 144}, {"note": 0, "velocity": 0, "duration": 96}, {"note": 83, "velocity": 85, "duration": 423}, {"note": 81, "velocity": 83, "duration": 605}, {"note": 0, "velocity": 0, "duration": 115}, {"note": 81, "velocity": 85, "duration": 152}, {"note": 0, "velocity": 0, "duration": 88}, {"note": 81, "velocity": 85, "duration": 195}, {"note": 88, "velocity": 88, "duration": 370}, {"note": 0, "velocity": 0, "duration": 110}, {"note": 86, "velocity": 83, "duration": 588}, {"note": 0, "velocity": 0, "duration": 132}, {"note": 86, "velocity": 85, "duration": 164}, {"note": 0, "velocity": 0, "duration": 76}, {"note": 86, "velocity": 87, "duration": 152}, {"note": 0, "velocity": 0, "duration": 88}, {"note": 78, "velocity": 79, "duration": 179}, {"note": 0, "velocity": 0, "duration": 61}, {"note": 78, "velocity": 75, "duration": 334}, {"note": 0, "velocity": 0, "duration": 146}, {"note": 83, "velocity": 87, "duration": 391}, {"note": 0, "velocity": 0, "duration": 89}, {"note": 81, "velocity": 81, "duration": 282}, {"note": 0, "velocity": 0, "duration": 198}, {"note": 69, "velocity": 85, "duration": 177}, {"note": 0, "velocity": 0, "duration": 63}, {"note": 76, "velocity": 84, "duration": 152}, {"note": 0, "velocity": 0, "duration": 88}, {"note": 78, "velocity": 82, "duration": 216}, {"note": 81, "velocity": 83, "duration": 232}, {"note": 78, "velocity": 87, "duration": 564}, {"note": 0, "velocity": 0, "duration": 156}, {"note": 81, "velocity": 86, "duration": 198}, {"note": 83, "velocity": 85, "duration": 535}, {"note": 0, "velocity": 0, "duration": 185}, {"note": 85, "velocity": 87, "duration": 188}, {"note": 83, "velocity": 84, "duration": 400}, {"note": 0, "velocity": 0, "duration": 80}, {"note": 81, "velocity": 86, "duration": 357}, {"note": 0, "velocity": 0, "duration": 123}, {"note": 78, "velocity": 83, "duration": 359}, {"note": 0, "velocity": 0, "duration": 841}, {"note": 74, "velocity": 85, "duration": 381}, {"note": 0, "velocity": 0, "duration": 99}, {"note": 71, "velocity": 84, "duration": 192}, {"note": 74, "velocity": 92, "duration": 452}, {"note": 81, "velocity": 83, "duration": 461}, {"note": 74, "velocity": 83, "duration": 193}, {"note": 76, "velocity": 86, "duration": 696}, {"note": 0, "velocity": 0, "duration": 744}, {"note": 74, "velocity": 85, "duration": 182}, {"note": 74, "velocity": 86, "duration": 1405}, {"note": 0, "velocity": 0, "duration": 14435}, {"note": 74, "velocity": 85, "duration": 130}, {"note": 0, "velocity": 0, "duration": 110}, {"note": 69, "velocity": 84, "duration": 126}, {"note": 0, "velocity": 0, "duration": 114}, {"note": 69, "velocity": 76, "duration": 65}, {"note": 69, "velocity": 82, "duration": 73}, {"note": 69, "velocity": 83, "duration": 139}, {"note": 0, "velocity": 0, "duration": 101}, {"note": 69, "velocity": 79, "duration": 84}, {"note": 66, "velocity": 78, "duration": 87}, {"note": 71, "velocity": 83, "duration": 453}, {"note": 0, "velocity": 0, "duration": 267}, {"note": 69, "velocity": 80, "duration": 169}, {"note": 0, "velocity": 0, "duration": 71}, {"note": 69, "velocity": 81, "duration": 164}, {"note": 0, "velocity": 0, "duration": 76}, {"note": 69, "velocity": 80, "duration": 65}, {"note": 69, "velocity": 80, "duration": 48}, {"note": 0, "velocity": 0, "duration": 72}, {"note": 69, "velocity": 84, "duration": 152}, {"note": 0, "velocity": 0, "duration": 88}, {"note": 66, "velocity": 84, "duration": 174}, {"note": 0, "velocity": 0, "duration": 66}, {"note": 64, "velocity": 84, "duration": 457}, {"note": 0, "velocity": 0, "duration": 263}, {"note": 74, "velocity": 86, "duration": 198}, {"note": 69, "velocity": 84, "duration": 163}, {"note": 0, "velocity": 0, "duration": 77}, {"note": 69, "velocity": 76, "duration": 66}, {"note": 69, "velocity": 83, "duration": 58}, {"note": 0, "velocity": 0, "duration": 62}, {"note": 69, "velocity": 84, "duration": 138}, {"note": 0, "velocity": 0, "duration": 102}, {"note": 69, "velocity": 77, "duration": 80}, {"note": 66, "velocity": 83, "duration": 66}, {"note": 71, "velocity": 84, "duration": 488}, {"note": 0, "velocity": 0, "duration": 232}, {"note": 69, "velocity": 83, "duration": 61}, {"note": 69, "velocity": 79, "duration": 49}, {"note": 0, "velocity": 0, "duration": 71}, {"note": 69, "velocity": 84, "duration": 145}, {"note": 0, "velocity": 0, "duration": 95}, {"note": 69, "velocity": 84, "duration": 65}, {"note": 69, "velocity": 84, "duration": 68}, {"note": 69, "velocity": 84, "duration": 184}, {"note": 78, "velocity": 87, "duration": 189}, {"note": 76, "velocity": 82, "duration": 173}, {"note": 0, "velocity": 0, "duration": 67}, {"note": 74, "velocity": 85, "duration": 248}, {"note": 71, "velocity": 89, "duration": 790}, {"note": 0, "velocity": 0, "duration": 170}, {"note": 71, "velocity": 88, "duration": 184}, {"note": 73, "velocity": 85, "duration": 159}, {"note": 0, "velocity": 0, "duration": 81}, {"note": 74, "velocity": 88, "duration": 160}, {"note": 0, "velocity": 0, "duration": 80}, {"note": 76, "velocity": 85, "duration": 159}, {"note": 0, "velocity": 0, "duration": 81}, {"note": 78, "velocity": 84, "duration": 294}, {"note": 0, "velocity": 0, "duration": 66}, {"note": 76, "velocity": 88, "duration": 322}, {"note": 74, "velocity": 86, "duration": 530}, {"note": 0, "velocity": 0, "duration": 190}, {"note": 74, "velocity": 92, "duration": 203}, {"note": 79, "velocity": 84, "duration": 177}, {"note": 0, "velocity": 0, "duration": 63}, {"note": 79, "velocity": 85, "duration": 261}, {"note": 0, "velocity": 0, "duration": 99}, {"note": 78, "velocity": 84, "duration": 294}, {"note": 0, "velocity": 0, "duration": 66}, {"note": 76, "velocity": 85, "duration": 407}, {"note": 0, "velocity": 0, "duration": 73}, {"note": 74, "velocity": 92, "duration": 214}, {"note": 83, "velocity": 86, "duration": 380}, {"note": 0, "velocity": 0, "duration": 100}, {"note": 81, "velocity": 84, "duration": 718}, {"note": 69, "velocity": 87, "duration": 163}, {"note": 0, "velocity": 0, "duration": 77}, {"note": 76, "velocity": 84, "duration": 189}, {"note": 78, "velocity": 84, "duration": 199}, {"note": 81, "velocity": 85, "duration": 249}, {"note": 78, "velocity": 94, "duration": 748}, {"note": 0, "velocity": 0, "duration": 212}, {"note": 76, "velocity": 94, "duration": 189}, {"note": 78, "velocity": 81, "duration": 166}, {"note": 0, "velocity": 0, "duration": 74}, {"note": 81, "velocity": 84, "duration": 144}, {"note": 0, "velocity": 0, "duration": 96}, {"note": 83, "velocity": 85, "duration": 423}, {"note": 81, "velocity": 83, "duration": 605}, {"note": 0, "velocity": 0, "duration": 115}, {"note": 81, "velocity": 85, "duration": 152}, {"note": 0, "velocity": 0, "duration": 88}, {"note": 81, "velocity": 85, "duration": 195}, {"note": 88, "velocity": 88, "duration": 370}, {"note": 0, "velocity": 0, "duration": 110}, {"note": 86, "velocity": 83, "duration": 588}, {"note": 0, "velocity": 0, "duration": 132}, {"note": 86, "velocity": 85, "duration": 164}, {"note": 0, "velocity": 0, "duration": 76}, {"note": 86, "velocity": 87, "duration": 152}, {"note": 0, "velocity": 0, "duration": 88}, {"note": 78, "velocity": 79, "duration": 179}, {"note": 0, "velocity": 0, "duration": 61}, {"note": 78, "velocity": 75, "duration": 334}, {"note": 0, "velocity": 0, "duration": 146}, {"note": 83, "velocity": 87, "duration": 391}, {"note": 0, "velocity": 0, "duration": 89}, {"note": 81, "velocity": 81, "duration": 282}, {"note": 0, "velocity": 0, "duration": 198}, {"note": 69, "velocity": 85, "duration": 177}, {"note": 0, "velocity": 0, "duration": 63}, {"note": 76, "velocity": 84, "duration": 152}, {"note": 0, "velocity": 0, "duration": 88}, {"note": 78, "velocity": 82, "duration": 216}, {"note": 81, "velocity": 83, "duration": 232}, {"note": 78, "velocity": 87, "duration": 564}, {"note": 0, "velocity": 0, "duration": 156}, {"note": 81, "velocity": 86, "duration": 198}, {"note": 83, "velocity": 85, "duration": 535}, {"note": 0, "velocity": 0, "duration": 185}, {"note": 85, "velocity": 87, "duration": 188}, {"note": 83, "velocity": 84, "duration": 400}, {"note": 0, "velocity": 0, "duration": 80}, {"note": 81, "velocity": 86, "duration": 357}, {"note": 0, "velocity": 0, "duration": 123}, {"note": 78, "velocity": 83, "duration": 359}, {"note": 0, "velocity": 0, "duration": 841}, {"note": 74, "velocity": 85, "duration": 381}, {"note": 0, "velocity": 0, "duration": 99}, {"note": 71, "velocity": 84, "duration": 192}, {"note": 74, "velocity": 92, "duration": 452}, {"note": 81, "velocity": 83, "duration": 461}, {"note": 74, "velocity": 83, "duration": 193}, {"note": 76, "velocity": 86, "duration": 696}, {"note": 69, "velocity": 87, "duration": 163}, {"note": 0, "velocity": 0, "duration": 77}, {"note": 76, "velocity": 84, "duration": 189}, {"note": 78, "velocity": 84, "duration": 199}, {"note": 81, "velocity": 85, "duration": 249}, {"note": 78, "velocity": 94, "duration": 748}, {"note": 0, "velocity": 0, "duration": 212}, {"note": 76, "velocity": 94, "duration": 189}, {"note": 78, "velocity": 81, "duration": 166}, {"note": 0, "velocity": 0, "duration": 74}, {"note": 81, "velocity": 84, "duration": 144}, {"note": 0, "velocity": 0, "duration": 96}, {"note": 83, "velocity": 85, "duration": 423}, {"note": 81, "velocity": 83, "duration": 605}, {"note": 0, "velocity": 0, "duration": 115}, {"note": 81, "velocity": 85, "duration": 152}, {"note": 0, "velocity": 0, "duration": 88}, {"note": 81, "velocity": 85, "duration": 195}, {"note": 88, "velocity": 88, "duration": 370}, {"note": 0, "velocity": 0, "duration": 110}, {"note": 86, "velocity": 83, "duration": 588}, {"note": 0, "velocity": 0, "duration": 132}, {"note": 86, "velocity": 85, "duration": 164}, {"note": 0, "velocity": 0, "duration": 76}, {"note": 86, "velocity": 87, "duration": 152}, {"note": 0, "velocity": 0, "duration": 88}, {"note": 78, "velocity": 79, "duration": 179}, {"note": 0, "velocity": 0, "duration": 61}, {"note": 78, "velocity": 75, "duration": 334}, {"note": 0, "velocity": 0, "duration": 146}, {"note": 83, "velocity": 87, "duration": 391}, {"note": 0, "velocity": 0, "duration": 89}, {"note": 81, "velocity": 81, "duration": 282}, {"note": 0, "velocity": 0, "duration": 198}, {"note": 69, "velocity": 85, "duration": 177}, {"note": 0, "velocity": 0, "duration": 63}, {"note": 76, "velocity": 84, "duration": 152}, {"note": 0, "velocity": 0, "duration": 88}, {"note": 78, "velocity": 82, "duration": 216}, {"note": 81, "velocity": 83, "duration": 232}, {"note": 78, "velocity": 87, "duration": 564}, {"note": 0, "velocity": 0, "duration": 156}, {"note": 81, "velocity": 86, "duration": 198}, {"note": 83, "velocity": 85, "duration": 535}, {"note": 0, "velocity": 0, "duration": 185}, {"note": 85, "velocity": 87, "duration": 188}, {"note": 83, "velocity": 84, "duration": 400}, {"note": 0, "velocity": 0, "duration": 80}, {"note": 81, "velocity": 86, "duration": 357}, {"note": 0, "velocity": 0, "duration": 123}, {"note": 78, "velocity": 83, "duration": 359}, {"note": 0, "velocity": 0, "duration": 841}, {"note": 74, "velocity": 85, "duration": 381}, {"note": 0, "velocity": 0, "duration": 99}, {"note": 71, "velocity": 84, "duration": 192}, {"note": 74, "velocity": 92, "duration": 452}, {"note": 81, "velocity": 83, "duration": 461}, {"note": 74, "velocity": 83, "duration": 193}, {"note": 76, "velocity": 86, "duration": 696}, {"note": 0, "velocity": 0, "duration": 744}, {"note": 74, "velocity": 85, "duration": 182}, {"note": 74, "velocity": 86, "duration": 1405}, {"note": 0, "velocity": 0, "duration": 12995}, {"note": 69, "velocity": 87, "duration": 163}, {"note": 0, "velocity": 0, "duration": 77}, {"note": 76, "velocity": 84, "duration": 189}, {"note": 78, "velocity": 84, "duration": 199}, {"note": 81, "velocity": 85, "duration": 249}, {"note": 78, "velocity": 94, "duration": 748}, {"note": 0, "velocity": 0, "duration": 212}, {"note": 76, "velocity": 94, "duration": 189}, {"note": 78, "velocity": 81, "duration": 166}, {"note": 0, "velocity": 0, "duration": 74}, {"note": 81, "velocity": 84, "duration": 144}, {"note": 0, "velocity": 0, "duration": 96}, {"note": 83, "velocity": 85, "duration": 423}, {"note": 81, "velocity": 83, "duration": 605}, {"note": 0, "velocity": 0, "duration": 115}, {"note": 81, "velocity": 85, "duration": 152}, {"note": 0, "velocity": 0, "duration": 88}, {"note": 81, "velocity": 85, "duration": 195}, {"note": 88, "velocity": 88, "duration": 370}, {"note": 0, "velocity": 0, "duration": 110}, {"note": 86, "velocity": 83, "duration": 588}, {"note": 0, "velocity": 0, "duration": 132}, {"note": 86, "velocity": 85, "duration": 164}, {"note": 0, "velocity": 0, "duration": 76}, {"note": 86, "velocity": 87, "duration": 152}, {"note": 0, "velocity": 0, "duration": 88}, {"note": 78, "velocity": 79, "duration": 179}, {"note": 0, "velocity": 0, "duration": 61}, {"note": 78, "velocity": 75, "duration": 334}, {"note": 0, "velocity": 0, "duration": 146}, {"note": 83, "velocity": 87, "duration": 391}, {"note": 0, "velocity": 0, "duration": 89}, {"note": 81, "velocity": 81, "duration": 282}, {"note": 0, "velocity": 0, "duration": 198}, {"note": 69, "velocity": 85, "duration": 177}, {"note": 0, "velocity": 0, "duration": 63}, {"note": 76, "velocity": 84, "duration": 152}, {"note": 0, "velocity": 0, "duration": 88}, {"note": 78, "velocity": 82, "duration": 216}, {"note": 81, "velocity": 83, "duration": 232}, {"note": 78, "velocity": 87, "duration": 564}, {"note": 0, "velocity": 0, "duration": 156}, {"note": 81, "velocity": 86, "duration": 198}, {"note": 83, "velocity": 85, "duration": 535}, {"note": 0, "velocity": 0, "duration": 185}, {"note": 85, "velocity": 87, "duration": 188}, {"note": 83, "velocity": 84, "duration": 400}, {"note": 0, "velocity": 0, "duration": 80}, {"note": 81, "velocity": 86, "duration": 357}, {"note": 0, "velocity": 0, "duration": 123}, {"note": 78, "velocity": 83, "duration": 359}, {"note": 0, "velocity": 0, "duration": 841}, {"note": 74, "velocity": 85, "duration": 381}, {"note": 0, "velocity": 0, "duration": 99}, {"note": 71, "velocity": 84, "duration": 192}, {"note": 74, "velocity": 92, "duration": 452}, {"note": 81, "velocity": 83, "duration": 461}, {"note": 74, "velocity": 83, "duration": 193}, {"note": 76, "velocity": 86, "duration": 696}, {"note": 69, "velocity": 87, "duration": 163}, {"note": 0, "velocity": 0, "duration": 77}, {"note": 76, "velocity": 84, "duration": 189}, {"note": 78, "velocity": 84, "duration": 199}, {"note": 81, "velocity": 85, "duration": 249}, {"note": 78, "velocity": 94, "duration": 748}, {"note": 0, "velocity": 0, "duration": 212}, {"note": 76, "velocity": 94, "duration": 189}, {"note": 78, "velocity": 81, "duration": 166}, {"note": 0, "velocity": 0, "duration": 74}, {"note": 81, "velocity": 84, "duration": 144}, {"note": 0, "velocity": 0, "duration": 96}, {"note": 83, "velocity": 85, "duration": 423}, {"note": 81, "velocity": 83, "duration": 605}, {"note": 0, "velocity": 0, "duration": 115}, {"note": 81, "velocity": 85, "duration": 152}, {"note": 0, "velocity": 0, "duration": 88}, {"note": 81, "velocity": 85, "duration": 195}, {"note": 88, "velocity": 88, "duration": 370}, {"note": 0, "velocity": 0, "duration": 110}, {"note": 86, "velocity": 83, "duration": 588}, {"note": 0, "velocity": 0, "duration": 132}, {"note": 86, "velocity": 85, "duration": 164}, {"note": 0, "velocity": 0, "duration": 76}, {"note": 86, "velocity": 87, "duration": 152}, {"note": 0, "velocity": 0, "duration": 88}, {"note": 78, "velocity": 79, "duration": 179}, {"note": 0, "velocity": 0, "duration": 61}, {"note": 78, "velocity": 75, "duration": 334}, {"note": 0, "velocity": 0, "duration": 146}, {"note": 83, "velocity": 87, "duration": 391}, {"note": 0, "velocity": 0, "duration": 89}, {"note": 81, "velocity": 81, "duration": 282}, {"note": 0, "velocity": 0, "duration": 198}, {"note": 69, "velocity": 85, "duration": 177}, {"note": 0, "velocity": 0, "duration": 63}, {"note": 76, "velocity": 84, "duration": 152}, {"note": 0, "velocity": 0, "duration": 88}, {"note": 78, "velocity": 82, "duration": 216}, {"note": 81, "velocity": 83, "duration": 232}, {"note": 78, "velocity": 87, "duration": 564}, {"note": 0, "velocity": 0, "duration": 156}, {"note": 81, "velocity": 86, "duration": 198}, {"note": 83, "velocity": 85, "duration": 535}, {"note": 0, "velocity": 0, "duration": 185}, {"note": 85, "velocity": 87, "duration": 188}, {"note": 83, "velocity": 84, "duration": 400}, {"note": 0, "velocity": 0, "duration": 80}, {"note": 81, "velocity": 86, "duration": 357}, {"note": 0, "velocity": 0, "duration": 123}, {"note": 78, "velocity": 83, "duration": 359}, {"note": 0, "velocity": 0, "duration": 841}, {"note": 74, "velocity": 85, "duration": 381}, {"note": 0, "velocity": 0, "duration": 99}, {"note": 71, "velocity": 84, "duration": 192}, {"note": 74, "velocity": 92, "duration": 452}, {"note": 81, "velocity": 83, "duration": 461}, {"note": 74, "velocity": 83, "duration": 193}, {"note": 76, "velocity": 86, "duration": 696}, {"note": 0, "velocity": 0, "duration": 744}, {"note": 74, "velocity": 85, "duration": 182}, {"note": 74, "velocity": 86, "duration": 1405}]]