[[{"note": 74, "velocity": 87, "duration": 196}, {"note": 67, "velocity": 84, "duration": 197}, {"note": 67, "velocity": 85, "duration": 82}, {"note": 69, "velocity": 78, "duration": 109}, {"note": 70, "velocity": 84, "duration": 93}, {"note": 74, "velocity": 89, "duration": 81}, {"note": 72, "velocity": 83, "duration": 208}, {"note": 69, "velocity": 82, "duration": 190}, {"note": 65, "velocity": 82, "duration": 98}, {"note": 67, "velocity": 79, "duration": 73}, {"note": 69, "velocity": 83, "duration": 81}, {"note": 72, "velocity": 83, "duration": 80}, {"note": 70, "velocity": 84, "duration": 182}, {"note": 67, "velocity": 82, "duration": 177}, {"note": 0, "velocity": 0, "duration": 63}, {"note": 67, "velocity": 83, "duration": 76}, {"note": 69, "velocity": 82, "duration": 83}, {"note": 70, "velocity": 85, "duration": 104}, {"note": 67, "velocity": 82, "duration": 92}, {"note": 69, "velocity": 84, "duration": 195}, {"note": 62, "velocity": 84, "duration": 157}, {"note": 0, "velocity": 0, "duration": 323}, {"note": 60, "velocity": 83, "duration": 62}, {"note": 62, "velocity": 82, "duration": 86}, {"note": 63, "velocity": 82, "duration": 173}, {"note": 0, "velocity": 0, "duration": 67}, {"note": 70, "velocity": 83, "duration": 169}, {"note": 0, "velocity": 0, "duration": 71}, {"note": 72, "velocity": 85, "duration": 76}, {"note": 70, "velocity": 84, "duration": 95}, {"note": 69, "velocity": 85, "duration": 83}, {"note": 67, "velocity": 81, "duration": 88}, {"note": 69, "velocity": 83, "duration": 198}, {"note": 65, "velocity": 84, "duration": 240}, {"note": 0, "velocity": 0, "duration": 240}, {"note": 60, "velocity": 82, "duration": 86}, {"note": 60, "velocity": 83, "duration": 93}, {"note": 63, "velocity": 83, "duration": 184}, {"note": 63, "velocity": 85, "duration": 120}, {"note": 65, "velocity": 83, "duration": 169}, {"note": 0, "velocity": 0, "duration": 191}, {"note": 60, "velocity": 83, "duration": 240}, {"note": 62, "velocity": 82, "duration": 403}, {"note": 0, "velocity": 0, "duration": 557}, {"note": 74, "velocity": 87, "duration": 196}, {"note": 67, "velocity": 84, "duration": 197}, {"note": 67, "velocity": 85, "duration": 82}, {"note": 69, "velocity": 78, "duration": 109}, {"note": 70, "velocity": 84, "duration": 93}, {"note": 74, "velocity": 89, "duration": 81}, {"note": 72, "velocity": 83, "duration": 208}, {"note": 69, "velocity": 82, "duration": 190}, {"note": 65, "velocity": 82, "duration": 98}, {"note": 67, "velocity": 79, "duration": 73}, {"note": 69, "velocity": 83, "duration": 81}, {"note": 72, "velocity": 83, "duration": 80}, {"note": 70, "velocity": 84, "duration": 182}, {"note": 67, "velocity": 82, "duration": 177}, {"note": 0, "velocity": 0, "duration": 63}, {"note": 67, "velocity": 83, "duration": 76}, {"note": 69, "velocity": 82, "duration": 83}, {"note": 70, "velocity": 85, "duration": 104}, {"note": 67, "velocity": 82, "duration": 92}, {"note": 69, "velocity": 84, "duration": 195}, {"note": 62, "velocity": 84, "duration": 157}, {"note": 0, "velocity": 0, "duration": 323}, {"note": 60, "velocity": 83, "duration": 62}, {"note": 62, "velocity": 82, "duration": 86}, {"note": 63, "velocity": 82, "duration": 173}, {"note": 0, "velocity": 0, "duration": 67}, {"note": 70, "velocity": 83, "duration": 169}, {"note": 0, "velocity": 0, "duration": 71}, {"note": 72, "velocity": 85, "duration": 76}, {"note": 70, "velocity": 84, "duration": 95}, {"note": 69, "velocity": 85, "duration": 83}, {"note": 67, "velocity": 81, "duration": 88}, {"note": 69, "velocity": 83, "duration": 198}, {"note": 65, "velocity": 84, "duration": 240}, {"note": 0, "velocity": 0, "duration": 240}, {"note": 65, "velocity": 82, "duration": 86}, {"note": 65, "velocity": 83, "duration": 93}, {"note": 72, "velocity": 83, "duration": 184}, {"note": 74, "velocity": 85, "duration": 120}, {"note": 75, "velocity": 83, "duration": 169}, {"note": 0, "velocity": 0, "duration": 191}, {"note": 72, "velocity": 83, "duration": 120}, {"note": 74, "velocity": 82, "duration": 600}, {"note": 74, "velocity": 88, "duration": 78}, {"note": 72, "velocity": 85, "duration": 78}, {"note": 70, "velocity": 86, "duration": 97}, {"note": 69, "velocity": 85, "duration": 81}, {"note": 70, "velocity": 87, "duration": 184}, {"note": 70, "velocity": 86, "duration": 76}, {"note": 70, "velocity": 89, "duration": 292}, {"note": 74, "velocity": 93, "duration": 242}, {"note": 0, "velocity": 0, "duration": 118}, {"note": 72, "velocity": 86, "duration": 354}, {"note": 0, "velocity": 0, "duration": 126}, {"note": 74, "velocity": 89, "duration": 93}, {"note": 72, "velocity": 80, "duration": 74}, {"note": 70, "velocity": 88, "duration": 96}, {"note": 69, "velocity": 85, "duration": 61}, {"note": 69, "velocity": 91, "duration": 201}, {"note": 77, "velocity": 91, "duration": 185}, {"note": 77, "velocity": 84, "duration": 184}, {"note": 75, "velocity": 87, "duration": 82}, {"note": 75, "velocity": 84, "duration": 187}, {"note": 74, "velocity": 93, "duration": 306}, {"note": 74, "velocity": 89, "duration": 98}, {"note": 72, "velocity": 77, "duration": 74}, {"note": 70, "velocity": 87, "duration": 118}, {"note": 69, "velocity": 83, "duration": 105}, {"note": 70, "velocity": 85, "duration": 182}, {"note": 70, "velocity": 88, "duration": 76}, {"note": 70, "velocity": 87, "duration": 186}, {"note": 74, "velocity": 96, "duration": 331}, {"note": 72, "velocity": 86, "duration": 167}, {"note": 0, "velocity": 0, "duration": 313}, {"note": 77, "velocity": 83, "duration": 220}, {"note": 72, "velocity": 84, "duration": 191}, {"note": 75, "velocity": 86, "duration": 320}, {"note": 74, "velocity": 93, "duration": 864}, {"note": 0, "velocity": 0, "duration": 216}, {"note": 74, "velocity": 99, "duration": 172}, {"note": 0, "velocity": 0, "duration": 68}, {"note": 74, "velocity": 84, "duration": 234}, {"note": 82, "velocity": 86, "duration": 195}, {"note": 81, "velocity": 85, "duration": 160}, {"note": 0, "velocity": 0, "duration": 80}, {"note": 81, "velocity": 86, "duration": 193}, {"note": 79, "velocity": 85, "duration": 73}, {"note": 81, "velocity": 87, "duration": 357}, {"note": 74, "velocity": 96, "duration": 182}, {"note": 74, "velocity": 98, "duration": 221}, {"note": 77, "velocity": 87, "duration": 207}, {"note": 79, "velocity": 83, "duration": 193}, {"note": 77, "velocity": 89, "duration": 167}, {"note": 0, "velocity": 0, "duration": 73}, {"note": 79, "velocity": 84, "duration": 166}, {"note": 0, "velocity": 0, "duration": 74}, {"note": 70, "velocity": 82, "duration": 85}, {"note": 72, "velocity": 82, "duration": 186}, {"note": 74, "velocity": 96, "duration": 435}, {"note": 0, "velocity": 0, "duration": 165}, {"note": 72, "velocity": 87, "duration": 82}, {"note": 74, "velocity": 89, "duration": 79}, {"note": 75, "velocity": 91, "duration": 128}, {"note": 75, "velocity": 89, "duration": 119}, {"note": 75, "velocity": 88, "duration": 102}, {"note": 75, "velocity": 89, "duration": 135}, {"note": 74, "velocity": 98, "duration": 147}, {"note": 72, "velocity": 85, "duration": 65}, {"note": 0, "velocity": 0, "duration": 68}, {"note": 70, "velocity": 86, "duration": 149}, {"note": 0, "velocity": 0, "duration": 103}, {"note": 72, "velocity": 84, "duration": 87}, {"note": 74, "velocity": 89, "duration": 372}, {"note": 0, "velocity": 0, "duration": 108}, {"note": 70, "velocity": 84, "duration": 84}, {"note": 79, "velocity": 86, "duration": 186}, {"note": 81, "velocity": 88, "duration": 71}, {"note": 82, "velocity": 83, "duration": 347}, {"note": 79, "velocity": 84, "duration": 192}, {"note": 81, "velocity": 89, "duration": 450}, {"note": 74, "velocity": 99, "duration": 195}, {"note": 74, "velocity": 98, "duration": 204}, {"note": 82, "velocity": 86, "duration": 195}, {"note": 81, "velocity": 85, "duration": 160}, {"note": 0, "velocity": 0, "duration": 80}, {"note": 81, "velocity": 86, "duration": 193}, {"note": 79, "velocity": 85, "duration": 73}, {"note": 81, "velocity": 87, "duration": 357}, {"note": 74, "velocity": 96, "duration": 182}, {"note": 74, "velocity": 98, "duration": 221}, {"note": 77, "velocity": 87, "duration": 207}, {"note": 79, "velocity": 83, "duration": 193}, {"note": 77, "velocity": 89, "duration": 167}, {"note": 0, "velocity": 0, "duration": 73}, {"note": 79, "velocity": 84, "duration": 166}, {"note": 0, "velocity": 0, "duration": 74}, {"note": 70, "velocity": 82, "duration": 85}, {"note": 72, "velocity": 82, "duration": 186}, {"note": 74, "velocity": 96, "duration": 435}, {"note": 0, "velocity": 0, "duration": 165}, {"note": 72, "velocity": 87, "duration": 82}, {"note": 74, "velocity": 89, "duration": 79}, {"note": 75, "velocity": 91, "duration": 128}, {"note": 75, "velocity": 89, "duration": 119}, {"note": 75, "velocity": 88, "duration": 102}, {"note": 75, "velocity": 89, "duration": 135}, {"note": 74, "velocity": 98, "duration": 147}, {"note": 72, "velocity": 85, "duration": 65}, {"note": 0, "velocity": 0, "duration": 68}, {"note": 70, "velocity": 86, "duration": 149}, {"note": 0, "velocity": 0, "duration": 103}, {"note": 72, "velocity": 84, "duration": 87}, {"note": 74, "velocity": 89, "duration": 372}, {"note": 0, "velocity": 0, "duration": 108}, {"note": 70, "velocity": 84, "duration": 84}, {"note": 79, "velocity": 86, "duration": 186}, {"note": 81, "velocity": 88, "duration": 71}, {"note": 82, "velocity": 83, "duration": 347}, {"note": 79, "velocity": 84, "duration": 192}, {"note": 81, "velocity": 89, "duration": 450}, {"note": 79, "velocity": 88, "duration": 211}, {"note": 78, "velocity": 89, "duration": 467}, {"note": 79, "velocity": 87, "duration": 1093}, {"note": 0, "velocity": 0, "duration": 17867}, {"note": 74, "velocity": 87, "duration": 196}, {"note": 67, "velocity": 84, "duration": 197}, {"note": 67, "velocity": 85, "duration": 82}, {"note": 69, "velocity": 78, "duration": 109}, {"note": 70, "velocity": 84, "duration": 93}, {"note": 74, "velocity": 89, "duration": 81}, {"note": 72, "velocity": 83, "duration": 208}, {"note": 69, "velocity": 82, "duration": 190}, {"note": 65, "velocity": 82, "duration": 98}, {"note": 67, "velocity": 79, "duration": 73}, {"note": 69, "velocity": 83, "duration": 81}, {"note": 72, "velocity": 83, "duration": 80}, {"note": 70, "velocity": 84, "duration": 182}, {"note": 67, "velocity": 82, "duration": 177}, {"note": 0, "velocity": 0, "duration": 63}, {"note": 67, "velocity": 83, "duration": 76}, {"note": 69, "velocity": 82, "duration": 83}, {"note": 70, "velocity": 85, "duration": 104}, {"note": 67, "velocity": 82, "duration": 92}, {"note": 69, "velocity": 84, "duration": 195}, {"note": 62, "velocity": 84, "duration": 157}, {"note": 0, "velocity": 0, "duration": 323}, {"note": 60, "velocity": 83, "duration": 62}, {"note": 62, "velocity": 82, "duration": 86}, {"note": 63, "velocity": 82, "duration": 173}, {"note": 0, "velocity": 0, "duration": 67}, {"note": 70, "velocity": 83, "duration": 169}, {"note": 0, "velocity": 0, "duration": 71}, {"note": 72, "velocity": 85, "duration": 76}, {"note": 70, "velocity": 84, "duration": 95}, {"note": 69, "velocity": 85, "duration": 83}, {"note": 67, "velocity": 81, "duration": 88}, {"note": 69, "velocity": 83, "duration": 198}, {"note": 65, "velocity": 84, "duration": 240}, {"note": 0, "velocity": 0, "duration": 240}, {"note": 60, "velocity": 82, "duration": 86}, {"note": 60, "velocity": 83, "duration": 93}, {"note": 63, "velocity": 83, "duration": 184}, {"note": 63, "velocity": 85, "duration": 120}, {"note": 65, "velocity": 83, "duration": 169}, {"note": 0, "velocity": 0, "duration": 191}, {"note": 60, "velocity": 83, "duration": 240}, {"note": 62, "velocity": 82, "duration": 403}, {"note": 0, "velocity": 0, "duration": 557}, {"note": 74, "velocity": 87, "duration": 196}, {"note": 67, "velocity": 84, "duration": 197}, {"note": 67, "velocity": 85, "duration": 82}, {"note": 69, "velocity": 78, "duration": 109}, {"note": 70, "velocity": 84, "duration": 93}, {"note": 74, "velocity": 89, "duration": 81}, {"note": 72, "velocity": 83, "duration": 208}, {"note": 69, "velocity": 82, "duration": 190}, {"note": 65, "velocity": 82, "duration": 98}, {"note": 67, "velocity": 79, "duration": 73}, {"note": 69, "velocity": 83, "duration": 81}, {"note": 72, "velocity": 83, "duration": 80}, {"note": 70, "velocity": 84, "duration": 182}, {"note": 67, "velocity": 82, "duration": 177}, {"note": 0, "velocity": 0, "duration": 63}, {"note": 67, "velocity": 83, "duration": 76}, {"note": 69, "velocity": 82, "duration": 83}, {"note": 70, "velocity": 85, "duration": 104}, {"note": 67, "velocity": 82, "duration": 92}, {"note": 69, "velocity": 84, "duration": 195}, {"note": 62, "velocity": 84, "duration": 157}, {"note": 0, "velocity": 0, "duration": 323}, {"note": 60, "velocity": 83, "duration": 62}, {"note": 62, "velocity": 82, "duration": 86}, {"note": 63, "velocity": 82, "duration": 173}, {"note": 0, "velocity": 0, "duration": 67}, {"note": 70, "velocity": 83, "duration": 169}, {"note": 0, "velocity": 0, "duration": 71}, {"note": 72, "velocity": 85, "duration": 76}, {"note": 70, "velocity": 84, "duration": 95}, {"note": 69, "velocity": 85, "duration": 83}, {"note": 67, "velocity": 81, "duration": 88}, {"note": 69, "velocity": 83, "duration": 198}, {"note": 65, "velocity": 84, "duration": 240}, {"note": 0, "velocity": 0, "duration": 240}, {"note": 65, "velocity": 82, "duration": 86}, {"note": 65, "velocity": 83, "duration": 93}, {"note": 72, "velocity": 83, "duration": 184}, {"note": 74, "velocity": 85, "duration": 120}, {"note": 75, "velocity": 83, "duration": 169}, {"note": 0, "velocity": 0, "duration": 191}, {"note": 72, "velocity": 83, "duration": 120}, {"note": 74, "velocity": 82, "duration": 600}, {"note": 74, "velocity": 88, "duration": 78}, {"note": 72, "velocity": 85, "duration": 78}, {"note": 70, "velocity": 86, "duration": 97}, {"note": 69, "velocity": 85, "duration": 81}, {"note": 70, "velocity": 87, "duration": 184}, {"note": 70, "velocity": 86, "duration": 76}, {"note": 70, "velocity": 89, "duration": 292}, {"note": 74, "velocity": 93, "duration": 242}, {"note": 0, "velocity": 0, "duration": 118}, {"note": 72, "velocity": 86, "duration": 354}, {"note": 0, "velocity": 0, "duration": 126}, {"note": 74, "velocity": 89, "duration": 93}, {"note": 72, "velocity": 80, "duration": 74}, {"note": 70, "velocity": 88, "duration": 96}, {"note": 69, "velocity": 85, "duration": 61}, {"note": 69, "velocity": 91, "duration": 201}, {"note": 77, "velocity": 91, "duration": 185}, {"note": 77, "velocity": 84, "duration": 184}, {"note": 75, "velocity": 87, "duration": 82}, {"note": 75, "velocity": 84, "duration": 187}, {"note": 74, "velocity": 93, "duration": 306}, {"note": 74, "velocity": 89, "duration": 98}, {"note": 72, "velocity": 77, "duration": 74}, {"note": 70, "velocity": 87, "duration": 118}, {"note": 69, "velocity": 83, "duration": 105}, {"note": 70, "velocity": 85, "duration": 182}, {"note": 70, "velocity": 88, "duration": 76}, {"note": 70, "velocity": 87, "duration": 186}, {"note": 74, "velocity": 96, "duration": 331}, {"note": 72, "velocity": 86, "duration": 167}, {"note": 0, "velocity": 0, "duration": 313}, {"note": 77, "velocity": 83, "duration": 220}, {"note": 72, "velocity": 84, "duration": 191}, {"note": 75, "velocity": 86, "duration": 320}, {"note": 74, "velocity": 93, "duration": 864}, {"note": 0, "velocity": 0, "duration": 216}, {"note": 74, "velocity": 99, "duration": 172}, {"note": 0, "velocity": 0, "duration": 68}, {"note": 74, "velocity": 84, "duration": 234}, {"note": 82, "velocity": 86, "duration": 195}, {"note": 81, "velocity": 85, "duration": 160}, {"note": 0, "velocity": 0, "duration": 80}, {"note": 81, "velocity": 86, "duration": 193}, {"note": 79, "velocity": 85, "duration": 73}, {"note": 81, "velocity": 87, "duration": 357}, {"note": 74, "velocity": 96, "duration": 182}, {"note": 74, "velocity": 98, "duration": 221}, {"note": 77, "velocity": 87, "duration": 207}, {"note": 79, "velocity": 83, "duration": 193}, {"note": 77, "velocity": 89, "duration": 167}, {"note": 0, "velocity": 0, "duration": 73}, {"note": 79, "velocity": 84, "duration": 166}, {"note": 0, "velocity": 0, "duration": 74}, {"note": 70, "velocity": 82, "duration": 85}, {"note": 72, "velocity": 82, "duration": 186}, {"note": 74, "velocity": 96, "duration": 435}, {"note": 0, "velocity": 0, "duration": 165}, {"note": 72, "velocity": 87, "duration": 82}, {"note": 74, "velocity": 89, "duration": 79}, {"note": 75, "velocity": 91, "duration": 128}, {"note": 75, "velocity": 89, "duration": 119}, {"note": 75, "velocity": 88, "duration": 102}, {"note": 75, "velocity": 89, "duration": 135}, {"note": 74, "velocity": 98, "duration": 147}, {"note": 72, "velocity": 85, "duration": 65}, {"note": 0, "velocity": 0, "duration": 68}, {"note": 70, "velocity": 86, "duration": 149}, {"note": 0, "velocity": 0, "duration": 103}, {"note": 72, "velocity": 84, "duration": 87}, {"note": 74, "velocity": 89, "duration": 372}, {"note": 0, "velocity": 0, "duration": 108}, {"note": 70, "velocity": 84, "duration": 84}, {"note": 79, "velocity": 86, "duration": 186}, {"note": 81, "velocity": 88, "duration": 71}, {"note": 82, "velocity": 83, "duration": 347}, {"note": 79, "velocity": 84, "duration": 192}, {"note": 81, "velocity": 89, "duration": 450}, {"note": 74, "velocity": 99, "duration": 195}, {"note": 74, "velocity": 98, "duration": 204}, {"note": 82, "velocity": 86, "duration": 195}, {"note": 81, "velocity": 85, "duration": 160}, {"note": 0, "velocity": 0, "duration": 80}, {"note": 81, "velocity": 86, "duration": 193}, {"note": 79, "velocity": 85, "duration": 73}, {"note": 81, "velocity": 87, "duration": 357}, {"note": 74, "velocity": 96, "duration": 182}, {"note": 74, "velocity": 98, "duration": 221}, {"note": 77, "velocity": 87, "duration": 207}, {"note": 79, "velocity": 83, "duration": 193}, {"note": 77, "velocity": 89, "duration": 167}, {"note": 0, "velocity": 0, "duration": 73}, {"note": 79, "velocity": 84, "duration": 166}, {"note": 0, "velocity": 0, "duration": 74}, {"note": 70, "velocity": 82, "duration": 85}, {"note": 72, "velocity": 82, "duration": 186}, {"note": 74, "velocity": 96, "duration": 435}, {"note": 0, "velocity": 0, "duration": 165}, {"note": 72, "velocity": 87, "duration": 82}, {"note": 74, "velocity": 89, "duration": 79}, {"note": 75, "velocity": 91, "duration": 128}, {"note": 75, "velocity": 89, "duration": 119}, {"note": 75, "velocity": 88, "duration": 102}, {"note": 75, "velocity": 89, "duration": 135}, {"note": 74, "velocity": 98, "duration": 147}, {"note": 72, "velocity": 85, "duration": 65}, {"note": 0, "velocity": 0, "duration": 68}, {"note": 70, "velocity": 86, "duration": 149}, {"note": 0, "velocity": 0, "duration": 103}, {"note": 72, "velocity": 84, "duration": 87}, {"note": 74, "velocity": 89, "duration": 372}, {"note": 0, "velocity": 0, "duration": 108}, {"note": 70, "velocity": 84, "duration": 84}, {"note": 79, "velocity": 86, "duration": 186}, {"note": 81, "velocity": 88, "duration": 71}, {"note": 82, "velocity": 83, "duration": 347}, {"note": 79, "velocity": 84, "duration": 192}, {"note": 81, "velocity": 89, "duration": 450}, {"note": 82, "velocity": 93, "duration": 177}, {"note": 0, "velocity": 0, "duration": 63}, {"note": 81, "velocity": 88, "duration": 209}, {"note": 79, "velocity": 89, "duration": 376}, {"note": 0, "velocity": 0, "duration": 104}, {"note": 79, "velocity": 85, "duration": 95}, {"note": 86, "velocity": 84, "duration": 344}, {"note": 81, "velocity": 88, "duration": 377}, {"note": 0, "velocity": 0, "duration": 103}, {"note": 82, "velocity": 82, "duration": 161}, {"note": 0, "velocity": 0, "duration": 79}, {"note": 81, "velocity": 82, "duration": 170}, {"note": 0, "velocity": 0, "duration": 70}, {"note": 79, "velocity": 85, "duration": 171}, {"note": 0, "velocity": 0, "duration": 69}, {"note": 77, "velocity": 85, "duration": 163}, {"note": 0, "velocity": 0, "duration": 77}, {"note": 79, "velocity": 84, "duration": 71}, {"note": 77, "velocity": 86, "duration": 345}, {"note": 74, "velocity": 91, "duration": 433}, {"note": 72, "velocity": 88, "duration": 163}, {"note": 0, "velocity": 0, "duration": 77}, {"note": 74, "velocity": 89, "duration": 168}, {"note": 0, "velocity": 0, "duration": 72}, {"note": 75, "velocity": 83, "duration": 429}, {"note": 74, "velocity": 91, "duration": 204}, {"note": 72, "velocity": 84, "duration": 185}, {"note": 74, "velocity": 93, "duration": 398}, {"note": 0, "velocity": 0, "duration": 82}, {"note": 74, "velocity": 96, "duration": 187}, {"note": 74, "velocity": 93, "duration": 164}, {"note": 0, "velocity": 0, "duration": 76}, {"note": 79, "velocity": 86, "duration": 182}, {"note": 81, "velocity": 84, "duration": 69}, {"note": 82, "velocity": 83, "duration": 304}, {"note": 79, "velocity": 84, "duration": 74}, {"note": 81, "velocity": 85, "duration": 453}, {"note": 0, "velocity": 0, "duration": 1107}, {"note": 74, "velocity": 99, "duration": 172}, {"note": 0, "velocity": 0, "duration": 68}, {"note": 74, "velocity": 84, "duration": 234}, {"note": 82, "velocity": 86, "duration": 195}, {"note": 81, "velocity": 85, "duration": 160}, {"note": 0, "velocity": 0, "duration": 80}, {"note": 81, "velocity": 86, "duration": 193}, {"note": 79, "velocity": 85, "duration": 73}, {"note": 81, "velocity": 87, "duration": 357}, {"note": 74, "velocity": 96, "duration": 182}, {"note": 74, "velocity": 98, "duration": 221}, {"note": 77, "velocity": 87, "duration": 207}, {"note": 79, "velocity": 83, "duration": 193}, {"note": 77, "velocity": 89, "duration": 167}, {"note": 0, "velocity": 0, "duration": 73}, {"note": 79, "velocity": 84, "duration": 166}, {"note": 0, "velocity": 0, "duration": 74}, {"note": 70, "velocity": 82, "duration": 85}, {"note": 72, "velocity": 82, "duration": 186}, {"note": 74, "velocity": 96, "duration": 435}, {"note": 0, "velocity": 0, "duration": 165}, {"note": 72, "velocity": 87, "duration": 82}, {"note": 74, "velocity": 89, "duration": 79}, {"note": 75, "velocity": 91, "duration": 128}, {"note": 75, "velocity": 89, "duration": 119}, {"note": 75, "velocity": 88, "duration": 102}, {"note": 75, "velocity": 89, "duration": 135}, {"note": 74, "velocity": 98, "duration": 147}, {"note": 72, "velocity": 85, "duration": 65}, {"note": 0, "velocity": 0, "duration": 68}, {"note": 70, "velocity": 86, "duration": 149}, {"note": 0, "velocity": 0, "duration": 103}, {"note": 72, "velocity": 84, "duration": 87}, {"note": 74, "velocity": 89, "duration": 372}, {"note": 0, "velocity": 0, "duration": 108}, {"note": 70, "velocity": 84, "duration": 84}, {"note": 79, "velocity": 86, "duration": 186}, {"note": 81, "velocity": 88, "duration": 71}, {"note": 82, "velocity": 83, "duration": 347}, {"note": 79, "velocity": 84, "duration": 192}, {"note": 81, "velocity": 89, "duration": 450}, {"note": 74, "velocity": 99, "duration": 195}, {"note": 74, "velocity": 98, "duration": 204}, {"note": 82, "velocity": 86, "duration": 195}, {"note": 81, "velocity": 85, "duration": 160}, {"note": 0, "velocity": 0, "duration": 80}, {"note": 81, "velocity": 86, "duration": 193}, {"note": 79, "velocity": 85, "duration": 73}, {"note": 81, "velocity": 87, "duration": 357}, {"note": 74, "velocity": 96, "duration": 182}, {"note": 74, "velocity": 98, "duration": 221}, {"note": 77, "velocity": 87, "duration": 207}, {"note": 79, "velocity": 83, "duration": 193}, {"note": 77, "velocity": 89, "duration": 167}, {"note": 0, "velocity": 0, "duration": 73}, {"note": 79, "velocity": 84, "duration": 166}, {"note": 0, "velocity": 0, "duration": 74}, {"note": 70, "velocity": 82, "duration": 85}, {"note": 72, "velocity": 82, "duration": 186}, {"note": 74, "velocity": 96, "duration": 435}, {"note": 0, "velocity": 0, "duration": 165}, {"note": 72, "velocity": 87, "duration": 82}, {"note": 74, "velocity": 89, "duration": 79}, {"note": 75, "velocity": 91, "duration": 128}, {"note": 75, "velocity": 89, "duration": 119}, {"note": 75, "velocity": 88, "duration": 102}, {"note": 75, "velocity": 89, "duration": 135}, {"note": 74, "velocity": 98, "duration": 147}, {"note": 72, "velocity": 85, "duration": 65}, {"note": 0, "velocity": 0, "duration": 68}, {"note": 70, "velocity": 86, "duration": 149}, {"note": 0, "velocity": 0, "duration": 103}, {"note": 72, "velocity": 84, "duration": 87}, {"note": 74, "velocity": 89, "duration": 372}, {"note": 0, "velocity": 0, "duration": 108}, {"note": 70, "velocity": 84, "duration": 84}, {"note": 79, "velocity": 86, "duration": 186}, {"note": 81, "velocity": 88, "duration": 71}, {"note": 82, "velocity": 83, "duration": 347}, {"note": 79, "velocity": 84, "duration": 192}, {"note": 81, "velocity": 89, "duration": 450}, {"note": 79, "velocity": 88, "duration": 211}, {"note": 78, "velocity": 89, "duration": 467}, {"note": 79, "velocity": 87, "duration": 1093}]]