[[{"note": 66, "velocity": 88, "duration": 106}, {"note": 0, "velocity": 0, "duration": 134}, {"note": 66, "velocity": 85, "duration": 101}, {"note": 0, "velocity": 0, "duration": 139}, {"note": 66, "velocity": 86, "duration": 199}, {"note": 73, "velocity": 81, "duration": 130}, {"note": 0, "velocity": 0, "duration": 110}, {"note": 73, "velocity": 86, "duration": 159}, {"note": 0, "velocity": 0, "duration": 81}, {"note": 68, "velocity": 83, "duration": 480}, {"note": 68, "velocity": 70, "duration": 113}, {"note": 0, "velocity": 0, "duration": 127}, {"note": 68, "velocity": 80, "duration": 135}, {"note": 0, "velocity": 0, "duration": 105}, {"note": 68, "velocity": 83, "duration": 150}, {"note": 0, "velocity": 0, "duration": 90}, {"note": 68, "velocity": 81, "duration": 177}, {"note": 0, "velocity": 0, "duration": 63}, {"note": 66, "velocity": 86, "duration": 172}, {"note": 0, "velocity": 0, "duration": 68}, {"note": 65, "velocity": 90, "duration": 194}, {"note": 66, "velocity": 82, "duration": 312}, {"note": 0, "velocity": 0, "duration": 168}, {"note": 66, "velocity": 81, "duration": 100}, {"note": 0, "velocity": 0, "duration": 140}, {"note": 66, "velocity": 81, "duration": 113}, {"note": 0, "velocity": 0, "duration": 127}, {"note": 66, "velocity": 79, "duration": 113}, {"note": 0, "velocity": 0, "duration": 127}, {"note": 66, "velocity": 80, "duration": 109}, {"note": 0, "velocity": 0, "duration": 131}, {"note": 66, "velocity": 79, "duration": 114}, {"note": 0, "velocity": 0, "duration": 126}, {"note": 66, "velocity": 80, "duration": 105}, {"note": 0, "velocity": 0, "duration": 135}, {"note": 66, "velocity": 80, "duration": 117}, {"note": 0, "velocity": 0, "duration": 123}, {"note": 66, "velocity": 83, "duration": 101}, {"note": 0, "velocity": 0, "duration": 139}, {"note": 66, "velocity": 82, "duration": 138}, {"note": 0, "velocity": 0, "duration": 102}, {"note": 73, "velocity": 86, "duration": 413}, {"note": 0, "velocity": 0, "duration": 67}, {"note": 66, "velocity": 86, "duration": 240}, {"note": 66, "velocity": 85, "duration": 166}, {"note": 0, "velocity": 0, "duration": 74}, {"note": 73, "velocity": 76, "duration": 480}, {"note": 73, "velocity": 80, "duration": 55}, {"note": 0, "velocity": 0, "duration": 65}, {"note": 73, "velocity": 74, "duration": 54}, {"note": 0, "velocity": 0, "duration": 66}, {"note": 73, "velocity": 78, "duration": 63}, {"note": 73, "velocity": 79, "duration": 63}, {"note": 73, "velocity": 79, "duration": 59}, {"note": 0, "velocity": 0, "duration": 61}, {"note": 73, "velocity": 77, "duration": 59}, {"note": 0, "velocity": 0, "duration": 61}, {"note": 73, "velocity": 74, "duration": 65}, {"note": 73, "velocity": 79, "duration": 71}, {"note": 73, "velocity": 81, "duration": 76}, {"note": 0, "velocity": 0, "duration": 164}, {"note": 66, "velocity": 80, "duration": 173}, {"note": 0, "velocity": 0, "duration": 67}, {"note": 68, "velocity": 71, "duration": 159}, {"note": 0, "velocity": 0, "duration": 81}, {"note": 66, "velocity": 83, "duration": 139}, {"note": 0, "velocity": 0, "duration": 101}, {"note": 66, "velocity": 83, "duration": 134}, {"note": 0, "velocity": 0, "duration": 106}, {"note": 66, "velocity": 80, "duration": 151}, {"note": 0, "velocity": 0, "duration": 89}, {"note": 66, "velocity": 77, "duration": 206}, {"note": 61, "velocity": 83, "duration": 126}, {"note": 0, "velocity": 0, "duration": 114}, {"note": 61, "velocity": 83, "duration": 158}, {"note": 0, "velocity": 0, "duration": 82}, {"note": 70, "velocity": 80, "duration": 159}, {"note": 0, "velocity": 0, "duration": 81}, {"note": 70, "velocity": 83, "duration": 408}, {"note": 0, "velocity": 0, "duration": 72}, {"note": 71, "velocity": 62, "duration": 93}, {"note": 0, "velocity": 0, "duration": 147}, {"note": 71, "velocity": 80, "duration": 71}, {"note": 71, "velocity": 74, "duration": 63}, {"note": 71, "velocity": 80, "duration": 90}, {"note": 0, "velocity": 0, "duration": 150}, {"note": 71, "velocity": 86, "duration": 102}, {"note": 0, "velocity": 0, "duration": 138}, {"note": 71, "velocity": 81, "duration": 109}, {"note": 0, "velocity": 0, "duration": 131}, {"note": 71, "velocity": 81, "duration": 140}, {"note": 0, "velocity": 0, "duration": 100}, {"note": 73, "velocity": 81, "duration": 164}, {"note": 0, "velocity": 0, "duration": 76}, {"note": 68, "velocity": 83, "duration": 784}, {"note": 0, "velocity": 0, "duration": 1856}, {"note": 66, "velocity": 88, "duration": 106}, {"note": 0, "velocity": 0, "duration": 134}, {"note": 66, "velocity": 85, "duration": 101}, {"note": 0, "velocity": 0, "duration": 139}, {"note": 66, "velocity": 86, "duration": 199}, {"note": 73, "velocity": 81, "duration": 130}, {"note": 0, "velocity": 0, "duration": 110}, {"note": 73, "velocity": 86, "duration": 159}, {"note": 0, "velocity": 0, "duration": 81}, {"note": 68, "velocity": 83, "duration": 480}, {"note": 68, "velocity": 70, "duration": 113}, {"note": 0, "velocity": 0, "duration": 127}, {"note": 68, "velocity": 80, "duration": 135}, {"note": 0, "velocity": 0, "duration": 105}, {"note": 68, "velocity": 83, "duration": 150}, {"note": 0, "velocity": 0, "duration": 90}, {"note": 68, "velocity": 81, "duration": 177}, {"note": 0, "velocity": 0, "duration": 63}, {"note": 70, "velocity": 86, "duration": 172}, {"note": 0, "velocity": 0, "duration": 68}, {"note": 71, "velocity": 90, "duration": 194}, {"note": 70, "velocity": 82, "duration": 312}, {"note": 0, "velocity": 0, "duration": 168}, {"note": 70, "velocity": 80, "duration": 96}, {"note": 0, "velocity": 0, "duration": 144}, {"note": 70, "velocity": 80, "duration": 101}, {"note": 0, "velocity": 0, "duration": 139}, {"note": 70, "velocity": 79, "duration": 113}, {"note": 0, "velocity": 0, "duration": 127}, {"note": 70, "velocity": 82, "duration": 176}, {"note": 0, "velocity": 0, "duration": 64}, {"note": 68, "velocity": 81, "duration": 110}, {"note": 0, "velocity": 0, "duration": 130}, {"note": 66, "velocity": 82, "duration": 122}, {"note": 0, "velocity": 0, "duration": 118}, {"note": 66, "velocity": 80, "duration": 128}, {"note": 0, "velocity": 0, "duration": 112}, {"note": 65, "velocity": 86, "duration": 195}, {"note": 77, "velocity": 80, "duration": 147}, {"note": 0, "velocity": 0, "duration": 93}, {"note": 77, "velocity": 83, "duration": 202}, {"note": 75, "velocity": 83, "duration": 121}, {"note": 0, "velocity": 0, "duration": 119}, {"note": 75, "velocity": 86, "duration": 206}, {"note": 73, "velocity": 81, "duration": 240}, {"note": 70, "velocity": 80, "duration": 113}, {"note": 68, "velocity": 74, "duration": 88}, {"note": 66, "velocity": 79, "duration": 127}, {"note": 0, "velocity": 0, "duration": 113}, {"note": 66, "velocity": 83, "duration": 71}, {"note": 66, "velocity": 78, "duration": 67}, {"note": 66, "velocity": 78, "duration": 80}, {"note": 0, "velocity": 0, "duration": 160}, {"note": 66, "velocity": 81, "duration": 88}, {"note": 0, "velocity": 0, "duration": 152}, {"note": 66, "velocity": 84, "duration": 80}, {"note": 66, "velocity": 86, "duration": 262}, {"note": 0, "velocity": 0, "duration": 98}, {"note": 68, "velocity": 80, "duration": 93}, {"note": 0, "velocity": 0, "duration": 147}, {"note": 70, "velocity": 81, "duration": 104}, {"note": 0, "velocity": 0, "duration": 136}, {"note": 66, "velocity": 80, "duration": 97}, {"note": 0, "velocity": 0, "duration": 143}, {"note": 66, "velocity": 80, "duration": 71}, {"note": 66, "velocity": 80, "duration": 63}, {"note": 66, "velocity": 74, "duration": 93}, {"note": 0, "velocity": 0, "duration": 147}, {"note": 66, "velocity": 79, "duration": 92}, {"note": 0, "velocity": 0, "duration": 148}, {"note": 66, "velocity": 80, "duration": 72}, {"note": 66, "velocity": 77, "duration": 60}, {"note": 66, "velocity": 80, "duration": 82}, {"note": 0, "velocity": 0, "duration": 158}, {"note": 68, "velocity": 79, "duration": 130}, {"note": 0, "velocity": 0, "duration": 110}, {"note": 70, "velocity": 80, "duration": 177}, {"note": 0, "velocity": 0, "duration": 63}, {"note": 66, "velocity": 81, "duration": 179}, {"note": 0, "velocity": 0, "duration": 61}, {"note": 71, "velocity": 80, "duration": 147}, {"note": 0, "velocity": 0, "duration": 93}, {"note": 71, "velocity": 81, "duration": 143}, {"note": 0, "velocity": 0, "duration": 97}, {"note": 71, "velocity": 80, "duration": 141}, {"note": 0, "velocity": 0, "duration": 99}, {"note": 70, "velocity": 80, "duration": 151}, {"note": 0, "velocity": 0, "duration": 89}, {"note": 71, "velocity": 80, "duration": 143}, {"note": 0, "velocity": 0, "duration": 97}, {"note": 73, "velocity": 77, "duration": 147}, {"note": 0, "velocity": 0, "duration": 93}, {"note": 70, "velocity": 81, "duration": 156}, {"note": 0, "velocity": 0, "duration": 84}, {"note": 68, "velocity": 77, "duration": 852}, {"note": 0, "velocity": 0, "duration": 108}, {"note": 66, "velocity": 88, "duration": 139}, {"note": 0, "velocity": 0, "duration": 101}, {"note": 66, "velocity": 81, "duration": 186}, {"note": 68, "velocity": 83, "duration": 143}, {"note": 0, "velocity": 0, "duration": 97}, {"note": 68, "velocity": 83, "duration": 160}, {"note": 0, "velocity": 0, "duration": 80}, {"note": 66, "velocity": 83, "duration": 169}, {"note": 0, "velocity": 0, "duration": 71}, {"note": 70, "velocity": 82, "duration": 572}, {"note": 0, "velocity": 0, "duration": 148}, {"note": 66, "velocity": 81, "duration": 160}, {"note": 0, "velocity": 0, "duration": 80}, {"note": 66, "velocity": 82, "duration": 177}, {"note": 0, "velocity": 0, "duration": 63}, {"note": 68, "velocity": 81, "duration": 140}, {"note": 0, "velocity": 0, "duration": 100}, {"note": 68, "velocity": 83, "duration": 155}, {"note": 0, "velocity": 0, "duration": 85}, {"note": 66, "velocity": 81, "duration": 205}, {"note": 73, "velocity": 81, "duration": 485}, {"note": 0, "velocity": 0, "duration": 235}, {"note": 73, "velocity": 85, "duration": 177}, {"note": 0, "velocity": 0, "duration": 63}, {"note": 73, "velocity": 85, "duration": 206}, {"note": 75, "velocity": 84, "duration": 144}, {"note": 0, "velocity": 0, "duration": 96}, {"note": 75, "velocity": 85, "duration": 167}, {"note": 0, "velocity": 0, "duration": 73}, {"note": 73, "velocity": 85, "duration": 212}, {"note": 78, "velocity": 83, "duration": 581}, {"note": 0, "velocity": 0, "duration": 139}, {"note": 78, "velocity": 82, "duration": 172}, {"note": 0, "velocity": 0, "duration": 68}, {"note": 78, "velocity": 82, "duration": 185}, {"note": 77, "velocity": 81, "duration": 155}, {"note": 0, "velocity": 0, "duration": 85}, {"note": 75, "velocity": 86, "duration": 147}, {"note": 0, "velocity": 0, "duration": 93}, {"note": 77, "velocity": 80, "duration": 171}, {"note": 0, "velocity": 0, "duration": 69}, {"note": 73, "velocity": 81, "duration": 526}, {"note": 0, "velocity": 0, "duration": 194}, {"note": 73, "velocity": 83, "duration": 140}, {"note": 0, "velocity": 0, "duration": 100}, {"note": 73, "velocity": 88, "duration": 144}, {"note": 0, "velocity": 0, "duration": 96}, {"note": 70, "velocity": 81, "duration": 135}, {"note": 0, "velocity": 0, "duration": 105}, {"note": 70, "velocity": 81, "duration": 161}, {"note": 0, "velocity": 0, "duration": 79}, {"note": 68, "velocity": 80, "duration": 177}, {"note": 0, "velocity": 0, "duration": 63}, {"note": 66, "velocity": 83, "duration": 567}, {"note": 0, "velocity": 0, "duration": 153}, {"note": 66, "velocity": 83, "duration": 136}, {"note": 0, "velocity": 0, "duration": 104}, {"note": 66, "velocity": 78, "duration": 182}, {"note": 68, "velocity": 79, "duration": 136}, {"note": 0, "velocity": 0, "duration": 104}, {"note": 68, "velocity": 80, "duration": 148}, {"note": 0, "velocity": 0, "duration": 92}, {"note": 66, "velocity": 81, "duration": 166}, {"note": 0, "velocity": 0, "duration": 74}, {"note": 70, "velocity": 80, "duration": 188}, {"note": 73, "velocity": 80, "duration": 159}, {"note": 0, "velocity": 0, "duration": 81}, {"note": 73, "velocity": 81, "duration": 200}, {"note": 70, "velocity": 79, "duration": 137}, {"note": 0, "velocity": 0, "duration": 103}, {"note": 66, "velocity": 80, "duration": 346}, {"note": 0, "velocity": 0, "duration": 134}, {"note": 66, "velocity": 80, "duration": 136}, {"note": 0, "velocity": 0, "duration": 104}, {"note": 66, "velocity": 81, "duration": 151}, {"note": 0, "velocity": 0, "duration": 89}, {"note": 68, "velocity": 79, "duration": 123}, {"note": 0, "velocity": 0, "duration": 117}, {"note": 68, "velocity": 72, "duration": 63}, {"note": 68, "velocity": 79, "duration": 258}, {"note": 0, "velocity": 0, "duration": 102}, {"note": 66, "velocity": 79, "duration": 164}, {"note": 0, "velocity": 0, "duration": 76}, {"note": 66, "velocity": 80, "duration": 204}, {"note": 63, "velocity": 78, "duration": 122}, {"note": 70, "velocity": 85, "duration": 290}, {"note": 0, "velocity": 0, "duration": 70}, {"note": 70, "velocity": 82, "duration": 193}, {"note": 68, "velocity": 80, "duration": 472}, {"note": 0, "velocity": 0, "duration": 248}, {"note": 66, "velocity": 88, "duration": 139}, {"note": 0, "velocity": 0, "duration": 101}, {"note": 66, "velocity": 81, "duration": 186}, {"note": 68, "velocity": 83, "duration": 143}, {"note": 0, "velocity": 0, "duration": 97}, {"note": 68, "velocity": 83, "duration": 160}, {"note": 0, "velocity": 0, "duration": 80}, {"note": 66, "velocity": 83, "duration": 169}, {"note": 0, "velocity": 0, "duration": 71}, {"note": 70, "velocity": 82, "duration": 572}, {"note": 0, "velocity": 0, "duration": 148}, {"note": 66, "velocity": 81, "duration": 160}, {"note": 0, "velocity": 0, "duration": 80}, {"note": 66, "velocity": 82, "duration": 177}, {"note": 0, "velocity": 0, "duration": 63}, {"note": 68, "velocity": 81, "duration": 140}, {"note": 0, "velocity": 0, "duration": 100}, {"note": 68, "velocity": 83, "duration": 155}, {"note": 0, "velocity": 0, "duration": 85}, {"note": 66, "velocity": 81, "duration": 205}, {"note": 73, "velocity": 81, "duration": 485}, {"note": 0, "velocity": 0, "duration": 235}, {"note": 73, "velocity": 85, "duration": 177}, {"note": 0, "velocity": 0, "duration": 63}, {"note": 73, "velocity": 85, "duration": 206}, {"note": 75, "velocity": 84, "duration": 144}, {"note": 0, "velocity": 0, "duration": 96}, {"note": 75, "velocity": 85, "duration": 167}, {"note": 0, "velocity": 0, "duration": 73}, {"note": 73, "velocity": 85, "duration": 212}, {"note": 78, "velocity": 83, "duration": 581}, {"note": 0, "velocity": 0, "duration": 139}, {"note": 78, "velocity": 82, "duration": 172}, {"note": 0, "velocity": 0, "duration": 68}, {"note": 78, "velocity": 82, "duration": 185}, {"note": 77, "velocity": 81, "duration": 155}, {"note": 0, "velocity": 0, "duration": 85}, {"note": 75, "velocity": 86, "duration": 147}, {"note": 0, "velocity": 0, "duration": 93}, {"note": 77, "velocity": 80, "duration": 171}, {"note": 0, "velocity": 0, "duration": 69}, {"note": 73, "velocity": 81, "duration": 526}, {"note": 0, "velocity": 0, "duration": 194}, {"note": 73, "velocity": 83, "duration": 140}, {"note": 0, "velocity": 0, "duration": 100}, {"note": 73, "velocity": 88, "duration": 144}, {"note": 0, "velocity": 0, "duration": 96}, {"note": 70, "velocity": 81, "duration": 135}, {"note": 0, "velocity": 0, "duration": 105}, {"note": 70, "velocity": 81, "duration": 161}, {"note": 0, "velocity": 0, "duration": 79}, {"note": 68, "velocity": 80, "duration": 177}, {"note": 0, "velocity": 0, "duration": 63}, {"note": 66, "velocity": 83, "duration": 567}, {"note": 0, "velocity": 0, "duration": 153}, {"note": 66, "velocity": 83, "duration": 136}, {"note": 0, "velocity": 0, "duration": 104}, {"note": 66, "velocity": 78, "duration": 182}, {"note": 68, "velocity": 79, "duration": 136}, {"note": 0, "velocity": 0, "duration": 104}, {"note": 68, "velocity": 80, "duration": 148}, {"note": 0, "velocity": 0, "duration": 92}, {"note": 66, "velocity": 81, "duration": 166}, {"note": 0, "velocity": 0, "duration": 74}, {"note": 70, "velocity": 80, "duration": 188}, {"note": 73, "velocity": 80, "duration": 159}, {"note": 0, "velocity": 0, "duration": 81}, {"note": 73, "velocity": 81, "duration": 200}, {"note": 70, "velocity": 79, "duration": 137}, {"note": 0, "velocity": 0, "duration": 103}, {"note": 66, "velocity": 80, "duration": 346}, {"note": 0, "velocity": 0, "duration": 134}, {"note": 66, "velocity": 80, "duration": 136}, {"note": 0, "velocity": 0, "duration": 104}, {"note": 66, "velocity": 81, "duration": 151}, {"note": 0, "velocity": 0, "duration": 89}, {"note": 68, "velocity": 79, "duration": 123}, {"note": 0, "velocity": 0, "duration": 117}, {"note": 68, "velocity": 72, "duration": 63}, {"note": 68, "velocity": 79, "duration": 258}, {"note": 0, "velocity": 0, "duration": 102}, {"note": 66, "velocity": 79, "duration": 164}, {"note": 0, "velocity": 0, "duration": 76}, {"note": 66, "velocity": 80, "duration": 204}, {"note": 63, "velocity": 78, "duration": 122}, {"note": 70, "velocity": 85, "duration": 290}, {"note": 0, "velocity": 0, "duration": 70}, {"note": 70, "velocity": 82, "duration": 193}, {"note": 68, "velocity": 80, "duration": 472}, {"note": 0, "velocity": 0, "duration": 248}, {"note": 61, "velocity": 83, "duration": 167}, {"note": 0, "velocity": 0, "duration": 73}, {"note": 71, "velocity": 81, "duration": 138}, {"note": 0, "velocity": 0, "duration": 102}, {"note": 71, "velocity": 80, "duration": 75}, {"note": 71, "velocity": 78, "duration": 216}, {"note": 0, "velocity": 0, "duration": 144}, {"note": 70, "velocity": 83, "duration": 160}, {"note": 0, "velocity": 0, "duration": 80}, {"note": 66, "velocity": 81, "duration": 2051}, {"note": 0, "velocity": 0, "duration": 13789}, {"note": 66, "velocity": 88, "duration": 106}, {"note": 0, "velocity": 0, "duration": 134}, {"note": 66, "velocity": 85, "duration": 101}, {"note": 0, "velocity": 0, "duration": 139}, {"note": 66, "velocity": 86, "duration": 199}, {"note": 73, "velocity": 81, "duration": 130}, {"note": 0, "velocity": 0, "duration": 110}, {"note": 73, "velocity": 86, "duration": 159}, {"note": 0, "velocity": 0, "duration": 81}, {"note": 68, "velocity": 83, "duration": 480}, {"note": 68, "velocity": 70, "duration": 113}, {"note": 0, "velocity": 0, "duration": 127}, {"note": 68, "velocity": 80, "duration": 135}, {"note": 0, "velocity": 0, "duration": 105}, {"note": 68, "velocity": 83, "duration": 150}, {"note": 0, "velocity": 0, "duration": 90}, {"note": 68, "velocity": 81, "duration": 177}, {"note": 0, "velocity": 0, "duration": 63}, {"note": 66, "velocity": 86, "duration": 172}, {"note": 0, "velocity": 0, "duration": 68}, {"note": 65, "velocity": 90, "duration": 194}, {"note": 66, "velocity": 82, "duration": 312}, {"note": 0, "velocity": 0, "duration": 168}, {"note": 66, "velocity": 81, "duration": 100}, {"note": 0, "velocity": 0, "duration": 140}, {"note": 66, "velocity": 81, "duration": 113}, {"note": 0, "velocity": 0, "duration": 127}, {"note": 66, "velocity": 79, "duration": 113}, {"note": 0, "velocity": 0, "duration": 127}, {"note": 66, "velocity": 80, "duration": 109}, {"note": 0, "velocity": 0, "duration": 131}, {"note": 66, "velocity": 79, "duration": 114}, {"note": 0, "velocity": 0, "duration": 126}, {"note": 66, "velocity": 80, "duration": 105}, {"note": 0, "velocity": 0, "duration": 135}, {"note": 66, "velocity": 80, "duration": 117}, {"note": 0, "velocity": 0, "duration": 123}, {"note": 66, "velocity": 83, "duration": 101}, {"note": 0, "velocity": 0, "duration": 139}, {"note": 66, "velocity": 82, "duration": 138}, {"note": 0, "velocity": 0, "duration": 102}, {"note": 73, "velocity": 86, "duration": 413}, {"note": 0, "velocity": 0, "duration": 67}, {"note": 66, "velocity": 86, "duration": 240}, {"note": 66, "velocity": 85, "duration": 166}, {"note": 0, "velocity": 0, "duration": 74}, {"note": 73, "velocity": 76, "duration": 480}, {"note": 73, "velocity": 80, "duration": 55}, {"note": 0, "velocity": 0, "duration": 65}, {"note": 73, "velocity": 74, "duration": 54}, {"note": 0, "velocity": 0, "duration": 66}, {"note": 73, "velocity": 78, "duration": 63}, {"note": 73, "velocity": 79, "duration": 63}, {"note": 73, "velocity": 79, "duration": 59}, {"note": 0, "velocity": 0, "duration": 61}, {"note": 73, "velocity": 77, "duration": 59}, {"note": 0, "velocity": 0, "duration": 61}, {"note": 73, "velocity": 74, "duration": 65}, {"note": 73, "velocity": 79, "duration": 71}, {"note": 73, "velocity": 81, "duration": 76}, {"note": 0, "velocity": 0, "duration": 164}, {"note": 66, "velocity": 80, "duration": 173}, {"note": 0, "velocity": 0, "duration": 67}, {"note": 68, "velocity": 71, "duration": 159}, {"note": 0, "velocity": 0, "duration": 81}, {"note": 66, "velocity": 83, "duration": 139}, {"note": 0, "velocity": 0, "duration": 101}, {"note": 66, "velocity": 83, "duration": 134}, {"note": 0, "velocity": 0, "duration": 106}, {"note": 66, "velocity": 80, "duration": 151}, {"note": 0, "velocity": 0, "duration": 89}, {"note": 66, "velocity": 77, "duration": 206}, {"note": 61, "velocity": 83, "duration": 126}, {"note": 0, "velocity": 0, "duration": 114}, {"note": 61, "velocity": 83, "duration": 158}, {"note": 0, "velocity": 0, "duration": 82}, {"note": 70, "velocity": 80, "duration": 159}, {"note": 0, "velocity": 0, "duration": 81}, {"note": 70, "velocity": 83, "duration": 408}, {"note": 0, "velocity": 0, "duration": 72}, {"note": 71, "velocity": 62, "duration": 93}, {"note": 0, "velocity": 0, "duration": 147}, {"note": 71, "velocity": 80, "duration": 71}, {"note": 71, "velocity": 74, "duration": 63}, {"note": 71, "velocity": 80, "duration": 90}, {"note": 0, "velocity": 0, "duration": 150}, {"note": 71, "velocity": 86, "duration": 102}, {"note": 0, "velocity": 0, "duration": 138}, {"note": 71, "velocity": 81, "duration": 109}, {"note": 0, "velocity": 0, "duration": 131}, {"note": 71, "velocity": 81, "duration": 140}, {"note": 0, "velocity": 0, "duration": 100}, {"note": 73, "velocity": 81, "duration": 164}, {"note": 0, "velocity": 0, "duration": 76}, {"note": 68, "velocity": 83, "duration": 784}, {"note": 0, "velocity": 0, "duration": 1856}, {"note": 66, "velocity": 88, "duration": 106}, {"note": 0, "velocity": 0, "duration": 134}, {"note": 66, "velocity": 85, "duration": 101}, {"note": 0, "velocity": 0, "duration": 139}, {"note": 66, "velocity": 86, "duration": 199}, {"note": 73, "velocity": 81, "duration": 130}, {"note": 0, "velocity": 0, "duration": 110}, {"note": 73, "velocity": 86, "duration": 159}, {"note": 0, "velocity": 0, "duration": 81}, {"note": 68, "velocity": 83, "duration": 480}, {"note": 68, "velocity": 70, "duration": 113}, {"note": 0, "velocity": 0, "duration": 127}, {"note": 68, "velocity": 80, "duration": 135}, {"note": 0, "velocity": 0, "duration": 105}, {"note": 68, "velocity": 83, "duration": 150}, {"note": 0, "velocity": 0, "duration": 90}, {"note": 68, "velocity": 81, "duration": 177}, {"note": 0, "velocity": 0, "duration": 63}, {"note": 70, "velocity": 86, "duration": 172}, {"note": 0, "velocity": 0, "duration": 68}, {"note": 71, "velocity": 90, "duration": 194}, {"note": 70, "velocity": 82, "duration": 312}, {"note": 0, "velocity": 0, "duration": 168}, {"note": 70, "velocity": 80, "duration": 96}, {"note": 0, "velocity": 0, "duration": 144}, {"note": 70, "velocity": 80, "duration": 101}, {"note": 0, "velocity": 0, "duration": 139}, {"note": 70, "velocity": 79, "duration": 113}, {"note": 0, "velocity": 0, "duration": 127}, {"note": 70, "velocity": 82, "duration": 176}, {"note": 0, "velocity": 0, "duration": 64}, {"note": 68, "velocity": 81, "duration": 110}, {"note": 0, "velocity": 0, "duration": 130}, {"note": 66, "velocity": 82, "duration": 122}, {"note": 0, "velocity": 0, "duration": 118}, {"note": 66, "velocity": 80, "duration": 128}, {"note": 0, "velocity": 0, "duration": 112}, {"note": 65, "velocity": 86, "duration": 195}, {"note": 77, "velocity": 80, "duration": 147}, {"note": 0, "velocity": 0, "duration": 93}, {"note": 77, "velocity": 83, "duration": 202}, {"note": 75, "velocity": 83, "duration": 121}, {"note": 0, "velocity": 0, "duration": 119}, {"note": 75, "velocity": 86, "duration": 206}, {"note": 73, "velocity": 81, "duration": 240}, {"note": 70, "velocity": 80, "duration": 113}, {"note": 68, "velocity": 74, "duration": 88}, {"note": 66, "velocity": 79, "duration": 127}, {"note": 0, "velocity": 0, "duration": 113}, {"note": 66, "velocity": 83, "duration": 71}, {"note": 66, "velocity": 78, "duration": 67}, {"note": 66, "velocity": 78, "duration": 80}, {"note": 0, "velocity": 0, "duration": 160}, {"note": 66, "velocity": 81, "duration": 88}, {"note": 0, "velocity": 0, "duration": 152}, {"note": 66, "velocity": 84, "duration": 80}, {"note": 66, "velocity": 86, "duration": 262}, {"note": 0, "velocity": 0, "duration": 98}, {"note": 68, "velocity": 80, "duration": 93}, {"note": 0, "velocity": 0, "duration": 147}, {"note": 70, "velocity": 81, "duration": 104}, {"note": 0, "velocity": 0, "duration": 136}, {"note": 66, "velocity": 80, "duration": 97}, {"note": 0, "velocity": 0, "duration": 143}, {"note": 66, "velocity": 80, "duration": 71}, {"note": 66, "velocity": 80, "duration": 63}, {"note": 66, "velocity": 74, "duration": 93}, {"note": 0, "velocity": 0, "duration": 147}, {"note": 66, "velocity": 79, "duration": 92}, {"note": 0, "velocity": 0, "duration": 148}, {"note": 66, "velocity": 80, "duration": 72}, {"note": 66, "velocity": 77, "duration": 60}, {"note": 66, "velocity": 80, "duration": 82}, {"note": 0, "velocity": 0, "duration": 158}, {"note": 68, "velocity": 79, "duration": 130}, {"note": 0, "velocity": 0, "duration": 110}, {"note": 70, "velocity": 80, "duration": 177}, {"note": 0, "velocity": 0, "duration": 63}, {"note": 66, "velocity": 81, "duration": 179}, {"note": 0, "velocity": 0, "duration": 61}, {"note": 71, "velocity": 80, "duration": 147}, {"note": 0, "velocity": 0, "duration": 93}, {"note": 71, "velocity": 81, "duration": 143}, {"note": 0, "velocity": 0, "duration": 97}, {"note": 71, "velocity": 80, "duration": 141}, {"note": 0, "velocity": 0, "duration": 99}, {"note": 70, "velocity": 80, "duration": 151}, {"note": 0, "velocity": 0, "duration": 89}, {"note": 71, "velocity": 80, "duration": 143}, {"note": 0, "velocity": 0, "duration": 97}, {"note": 73, "velocity": 77, "duration": 147}, {"note": 0, "velocity": 0, "duration": 93}, {"note": 70, "velocity": 81, "duration": 156}, {"note": 0, "velocity": 0, "duration": 84}, {"note": 68, "velocity": 77, "duration": 852}, {"note": 0, "velocity": 0, "duration": 108}, {"note": 66, "velocity": 88, "duration": 139}, {"note": 0, "velocity": 0, "duration": 101}, {"note": 66, "velocity": 81, "duration": 186}, {"note": 68, "velocity": 83, "duration": 143}, {"note": 0, "velocity": 0, "duration": 97}, {"note": 68, "velocity": 83, "duration": 160}, {"note": 0, "velocity": 0, "duration": 80}, {"note": 66, "velocity": 83, "duration": 169}, {"note": 0, "velocity": 0, "duration": 71}, {"note": 70, "velocity": 82, "duration": 572}, {"note": 0, "velocity": 0, "duration": 148}, {"note": 66, "velocity": 81, "duration": 160}, {"note": 0, "velocity": 0, "duration": 80}, {"note": 66, "velocity": 82, "duration": 177}, {"note": 0, "velocity": 0, "duration": 63}, {"note": 68, "velocity": 81, "duration": 140}, {"note": 0, "velocity": 0, "duration": 100}, {"note": 68, "velocity": 83, "duration": 155}, {"note": 0, "velocity": 0, "duration": 85}, {"note": 66, "velocity": 81, "duration": 205}, {"note": 73, "velocity": 81, "duration": 485}, {"note": 0, "velocity": 0, "duration": 235}, {"note": 73, "velocity": 85, "duration": 177}, {"note": 0, "velocity": 0, "duration": 63}, {"note": 73, "velocity": 85, "duration": 206}, {"note": 75, "velocity": 84, "duration": 144}, {"note": 0, "velocity": 0, "duration": 96}, {"note": 75, "velocity": 85, "duration": 167}, {"note": 0, "velocity": 0, "duration": 73}, {"note": 73, "velocity": 85, "duration": 212}, {"note": 78, "velocity": 83, "duration": 581}, {"note": 0, "velocity": 0, "duration": 139}, {"note": 78, "velocity": 82, "duration": 172}, {"note": 0, "velocity": 0, "duration": 68}, {"note": 78, "velocity": 82, "duration": 185}, {"note": 77, "velocity": 81, "duration": 155}, {"note": 0, "velocity": 0, "duration": 85}, {"note": 75, "velocity": 86, "duration": 147}, {"note": 0, "velocity": 0, "duration": 93}, {"note": 77, "velocity": 80, "duration": 171}, {"note": 0, "velocity": 0, "duration": 69}, {"note": 73, "velocity": 81, "duration": 526}, {"note": 0, "velocity": 0, "duration": 194}, {"note": 73, "velocity": 83, "duration": 140}, {"note": 0, "velocity": 0, "duration": 100}, {"note": 73, "velocity": 88, "duration": 144}, {"note": 0, "velocity": 0, "duration": 96}, {"note": 70, "velocity": 81, "duration": 135}, {"note": 0, "velocity": 0, "duration": 105}, {"note": 70, "velocity": 81, "duration": 161}, {"note": 0, "velocity": 0, "duration": 79}, {"note": 68, "velocity": 80, "duration": 177}, {"note": 0, "velocity": 0, "duration": 63}, {"note": 66, "velocity": 83, "duration": 567}, {"note": 0, "velocity": 0, "duration": 153}, {"note": 66, "velocity": 83, "duration": 136}, {"note": 0, "velocity": 0, "duration": 104}, {"note": 66, "velocity": 78, "duration": 182}, {"note": 68, "velocity": 79, "duration": 136}, {"note": 0, "velocity": 0, "duration": 104}, {"note": 68, "velocity": 80, "duration": 148}, {"note": 0, "velocity": 0, "duration": 92}, {"note": 66, "velocity": 81, "duration": 166}, {"note": 0, "velocity": 0, "duration": 74}, {"note": 70, "velocity": 80, "duration": 188}, {"note": 73, "velocity": 80, "duration": 159}, {"note": 0, "velocity": 0, "duration": 81}, {"note": 73, "velocity": 81, "duration": 200}, {"note": 70, "velocity": 79, "duration": 137}, {"note": 0, "velocity": 0, "duration": 103}, {"note": 66, "velocity": 80, "duration": 346}, {"note": 0, "velocity": 0, "duration": 134}, {"note": 66, "velocity": 80, "duration": 136}, {"note": 0, "velocity": 0, "duration": 104}, {"note": 66, "velocity": 81, "duration": 151}, {"note": 0, "velocity": 0, "duration": 89}, {"note": 68, "velocity": 79, "duration": 123}, {"note": 0, "velocity": 0, "duration": 117}, {"note": 68, "velocity": 72, "duration": 63}, {"note": 68, "velocity": 79, "duration": 258}, {"note": 0, "velocity": 0, "duration": 102}, {"note": 66, "velocity": 79, "duration": 164}, {"note": 0, "velocity": 0, "duration": 76}, {"note": 66, "velocity": 80, "duration": 204}, {"note": 63, "velocity": 78, "duration": 122}, {"note": 70, "velocity": 85, "duration": 290}, {"note": 0, "velocity": 0, "duration": 70}, {"note": 70, "velocity": 82, "duration": 193}, {"note": 68, "velocity": 80, "duration": 472}, {"note": 0, "velocity": 0, "duration": 248}, {"note": 66, "velocity": 88, "duration": 139}, {"note": 0, "velocity": 0, "duration": 101}, {"note": 66, "velocity": 81, "duration": 186}, {"note": 68, "velocity": 83, "duration": 143}, {"note": 0, "velocity": 0, "duration": 97}, {"note": 68, "velocity": 83, "duration": 160}, {"note": 0, "velocity": 0, "duration": 80}, {"note": 66, "velocity": 83, "duration": 169}, {"note": 0, "velocity": 0, "duration": 71}, {"note": 70, "velocity": 82, "duration": 572}, {"note": 0, "velocity": 0, "duration": 148}, {"note": 66, "velocity": 81, "duration": 160}, {"note": 0, "velocity": 0, "duration": 80}, {"note": 66, "velocity": 82, "duration": 177}, {"note": 0, "velocity": 0, "duration": 63}, {"note": 68, "velocity": 81, "duration": 140}, {"note": 0, "velocity": 0, "duration": 100}, {"note": 68, "velocity": 83, "duration": 155}, {"note": 0, "velocity": 0, "duration": 85}, {"note": 66, "velocity": 81, "duration": 205}, {"note": 73, "velocity": 81, "duration": 485}, {"note": 0, "velocity": 0, "duration": 235}, {"note": 73, "velocity": 85, "duration": 177}, {"note": 0, "velocity": 0, "duration": 63}, {"note": 73, "velocity": 85, "duration": 206}, {"note": 75, "velocity": 84, "duration": 144}, {"note": 0, "velocity": 0, "duration": 96}, {"note": 75, "velocity": 85, "duration": 167}, {"note": 0, "velocity": 0, "duration": 73}, {"note": 73, "velocity": 85, "duration": 212}, {"note": 78, "velocity": 83, "duration": 581}, {"note": 0, "velocity": 0, "duration": 139}, {"note": 78, "velocity": 82, "duration": 172}, {"note": 0, "velocity": 0, "duration": 68}, {"note": 78, "velocity": 82, "duration": 185}, {"note": 77, "velocity": 81, "duration": 155}, {"note": 0, "velocity": 0, "duration": 85}, {"note": 75, "velocity": 86, "duration": 147}, {"note": 0, "velocity": 0, "duration": 93}, {"note": 77, "velocity": 80, "duration": 171}, {"note": 0, "velocity": 0, "duration": 69}, {"note": 73, "velocity": 81, "duration": 526}, {"note": 0, "velocity": 0, "duration": 194}, {"note": 73, "velocity": 83, "duration": 140}, {"note": 0, "velocity": 0, "duration": 100}, {"note": 73, "velocity": 88, "duration": 144}, {"note": 0, "velocity": 0, "duration": 96}, {"note": 70, "velocity": 81, "duration": 135}, {"note": 0, "velocity": 0, "duration": 105}, {"note": 70, "velocity": 81, "duration": 161}, {"note": 0, "velocity": 0, "duration": 79}, {"note": 68, "velocity": 80, "duration": 177}, {"note": 0, "velocity": 0, "duration": 63}, {"note": 66, "velocity": 83, "duration": 567}, {"note": 0, "velocity": 0, "duration": 153}, {"note": 66, "velocity": 83, "duration": 136}, {"note": 0, "velocity": 0, "duration": 104}, {"note": 66, "velocity": 78, "duration": 182}, {"note": 68, "velocity": 79, "duration": 136}, {"note": 0, "velocity": 0, "duration": 104}, {"note": 68, "velocity": 80, "duration": 148}, {"note": 0, "velocity": 0, "duration": 92}, {"note": 66, "velocity": 81, "duration": 166}, {"note": 0, "velocity": 0, "duration": 74}, {"note": 70, "velocity": 80, "duration": 188}, {"note": 73, "velocity": 80, "duration": 159}, {"note": 0, "velocity": 0, "duration": 81}, {"note": 73, "velocity": 81, "duration": 200}, {"note": 70, "velocity": 79, "duration": 137}, {"note": 0, "velocity": 0, "duration": 103}, {"note": 66, "velocity": 80, "duration": 346}, {"note": 0, "velocity": 0, "duration": 134}, {"note": 66, "velocity": 80, "duration": 136}, {"note": 0, "velocity": 0, "duration": 104}, {"note": 66, "velocity": 81, "duration": 151}, {"note": 0, "velocity": 0, "duration": 89}, {"note": 68, "velocity": 79, "duration": 123}, {"note": 0, "velocity": 0, "duration": 117}, {"note": 68, "velocity": 72, "duration": 63}, {"note": 68, "velocity": 79, "duration": 258}, {"note": 0, "velocity": 0, "duration": 102}, {"note": 66, "velocity": 79, "duration": 164}, {"note": 0, "velocity": 0, "duration": 76}, {"note": 66, "velocity": 80, "duration": 204}, {"note": 63, "velocity": 78, "duration": 122}, {"note": 70, "velocity": 85, "duration": 290}, {"note": 0, "velocity": 0, "duration": 70}, {"note": 70, "velocity": 82, "duration": 193}, {"note": 68, "velocity": 80, "duration": 472}, {"note": 0, "velocity": 0, "duration": 248}, {"note": 66, "velocity": 88, "duration": 139}, {"note": 0, "velocity": 0, "duration": 101}, {"note": 66, "velocity": 81, "duration": 186}, {"note": 68, "velocity": 83, "duration": 143}, {"note": 0, "velocity": 0, "duration": 97}, {"note": 68, "velocity": 83, "duration": 160}, {"note": 0, "velocity": 0, "duration": 80}, {"note": 66, "velocity": 83, "duration": 169}, {"note": 0, "velocity": 0, "duration": 71}, {"note": 70, "velocity": 82, "duration": 572}, {"note": 0, "velocity": 0, "duration": 148}, {"note": 66, "velocity": 81, "duration": 160}, {"note": 0, "velocity": 0, "duration": 80}, {"note": 66, "velocity": 82, "duration": 177}, {"note": 0, "velocity": 0, "duration": 63}, {"note": 68, "velocity": 81, "duration": 140}, {"note": 0, "velocity": 0, "duration": 100}, {"note": 68, "velocity": 83, "duration": 155}, {"note": 0, "velocity": 0, "duration": 85}, {"note": 66, "velocity": 81, "duration": 205}, {"note": 73, "velocity": 81, "duration": 485}, {"note": 0, "velocity": 0, "duration": 235}, {"note": 73, "velocity": 85, "duration": 177}, {"note": 0, "velocity": 0, "duration": 63}, {"note": 73, "velocity": 85, "duration": 206}, {"note": 75, "velocity": 84, "duration": 144}, {"note": 0, "velocity": 0, "duration": 96}, {"note": 75, "velocity": 85, "duration": 167}, {"note": 0, "velocity": 0, "duration": 73}, {"note": 73, "velocity": 85, "duration": 212}, {"note": 78, "velocity": 83, "duration": 581}, {"note": 0, "velocity": 0, "duration": 139}, {"note": 78, "velocity": 82, "duration": 172}, {"note": 0, "velocity": 0, "duration": 68}, {"note": 78, "velocity": 82, "duration": 185}, {"note": 77, "velocity": 81, "duration": 155}, {"note": 0, "velocity": 0, "duration": 85}, {"note": 75, "velocity": 86, "duration": 147}, {"note": 0, "velocity": 0, "duration": 93}, {"note": 77, "velocity": 80, "duration": 171}, {"note": 0, "velocity": 0, "duration": 69}, {"note": 73, "velocity": 81, "duration": 526}, {"note": 0, "velocity": 0, "duration": 194}, {"note": 73, "velocity": 83, "duration": 140}, {"note": 0, "velocity": 0, "duration": 100}, {"note": 73, "velocity": 88, "duration": 144}, {"note": 0, "velocity": 0, "duration": 96}, {"note": 70, "velocity": 81, "duration": 135}, {"note": 0, "velocity": 0, "duration": 105}, {"note": 70, "velocity": 81, "duration": 161}, {"note": 0, "velocity": 0, "duration": 79}, {"note": 68, "velocity": 80, "duration": 177}, {"note": 0, "velocity": 0, "duration": 63}, {"note": 66, "velocity": 83, "duration": 567}, {"note": 0, "velocity": 0, "duration": 153}, {"note": 66, "velocity": 83, "duration": 136}, {"note": 0, "velocity": 0, "duration": 104}, {"note": 66, "velocity": 78, "duration": 182}, {"note": 68, "velocity": 79, "duration": 136}, {"note": 0, "velocity": 0, "duration": 104}, {"note": 68, "velocity": 80, "duration": 148}, {"note": 0, "velocity": 0, "duration": 92}, {"note": 66, "velocity": 81, "duration": 166}, {"note": 0, "velocity": 0, "duration": 74}, {"note": 70, "velocity": 80, "duration": 188}, {"note": 73, "velocity": 80, "duration": 159}, {"note": 0, "velocity": 0, "duration": 81}, {"note": 73, "velocity": 81, "duration": 200}, {"note": 70, "velocity": 79, "duration": 137}, {"note": 0, "velocity": 0, "duration": 103}, {"note": 66, "velocity": 80, "duration": 346}, {"note": 0, "velocity": 0, "duration": 134}, {"note": 66, "velocity": 80, "duration": 136}, {"note": 0, "velocity": 0, "duration": 104}, {"note": 66, "velocity": 81, "duration": 151}, {"note": 0, "velocity": 0, "duration": 89}, {"note": 68, "velocity": 79, "duration": 123}, {"note": 0, "velocity": 0, "duration": 117}, {"note": 68, "velocity": 72, "duration": 63}, {"note": 68, "velocity": 79, "duration": 258}, {"note": 0, "velocity": 0, "duration": 102}, {"note": 66, "velocity": 79, "duration": 164}, {"note": 0, "velocity": 0, "duration": 76}, {"note": 66, "velocity": 80, "duration": 204}, {"note": 63, "velocity": 78, "duration": 122}, {"note": 70, "velocity": 85, "duration": 290}, {"note": 0, "velocity": 0, "duration": 70}, {"note": 70, "velocity": 82, "duration": 193}, {"note": 68, "velocity": 80, "duration": 472}, {"note": 0, "velocity": 0, "duration": 248}, {"note": 66, "velocity": 88, "duration": 139}, {"note": 0, "velocity": 0, "duration": 101}, {"note": 66, "velocity": 81, "duration": 186}, {"note": 68, "velocity": 83, "duration": 143}, {"note": 0, "velocity": 0, "duration": 97}, {"note": 68, "velocity": 83, "duration": 160}, {"note": 0, "velocity": 0, "duration": 80}, {"note": 66, "velocity": 83, "duration": 169}, {"note": 0, "velocity": 0, "duration": 71}, {"note": 70, "velocity": 82, "duration": 572}, {"note": 0, "velocity": 0, "duration": 148}, {"note": 66, "velocity": 81, "duration": 160}, {"note": 0, "velocity": 0, "duration": 80}, {"note": 66, "velocity": 82, "duration": 177}, {"note": 0, "velocity": 0, "duration": 63}, {"note": 68, "velocity": 81, "duration": 140}, {"note": 0, "velocity": 0, "duration": 100}, {"note": 68, "velocity": 83, "duration": 155}, {"note": 0, "velocity": 0, "duration": 85}, {"note": 66, "velocity": 81, "duration": 205}, {"note": 73, "velocity": 81, "duration": 485}, {"note": 0, "velocity": 0, "duration": 235}, {"note": 73, "velocity": 85, "duration": 177}, {"note": 0, "velocity": 0, "duration": 63}, {"note": 73, "velocity": 85, "duration": 206}, {"note": 75, "velocity": 84, "duration": 144}, {"note": 0, "velocity": 0, "duration": 96}, {"note": 75, "velocity": 85, "duration": 167}, {"note": 0, "velocity": 0, "duration": 73}, {"note": 73, "velocity": 85, "duration": 212}, {"note": 78, "velocity": 83, "duration": 581}, {"note": 0, "velocity": 0, "duration": 139}, {"note": 78, "velocity": 82, "duration": 172}, {"note": 0, "velocity": 0, "duration": 68}, {"note": 78, "velocity": 82, "duration": 185}, {"note": 77, "velocity": 81, "duration": 155}, {"note": 0, "velocity": 0, "duration": 85}, {"note": 75, "velocity": 86, "duration": 147}, {"note": 0, "velocity": 0, "duration": 93}, {"note": 77, "velocity": 80, "duration": 171}, {"note": 0, "velocity": 0, "duration": 69}, {"note": 73, "velocity": 81, "duration": 526}, {"note": 0, "velocity": 0, "duration": 194}, {"note": 73, "velocity": 83, "duration": 140}, {"note": 0, "velocity": 0, "duration": 100}, {"note": 73, "velocity": 88, "duration": 144}, {"note": 0, "velocity": 0, "duration": 96}, {"note": 70, "velocity": 81, "duration": 135}, {"note": 0, "velocity": 0, "duration": 105}, {"note": 70, "velocity": 81, "duration": 161}, {"note": 0, "velocity": 0, "duration": 79}, {"note": 68, "velocity": 80, "duration": 177}, {"note": 0, "velocity": 0, "duration": 63}, {"note": 66, "velocity": 83, "duration": 567}, {"note": 0, "velocity": 0, "duration": 153}, {"note": 66, "velocity": 83, "duration": 136}, {"note": 0, "velocity": 0, "duration": 104}, {"note": 66, "velocity": 78, "duration": 182}, {"note": 68, "velocity": 79, "duration": 136}, {"note": 0, "velocity": 0, "duration": 104}, {"note": 68, "velocity": 80, "duration": 148}, {"note": 0, "velocity": 0, "duration": 92}, {"note": 66, "velocity": 81, "duration": 166}, {"note": 0, "velocity": 0, "duration": 74}, {"note": 70, "velocity": 80, "duration": 188}, {"note": 73, "velocity": 80, "duration": 159}, {"note": 0, "velocity": 0, "duration": 81}, {"note": 73, "velocity": 81, "duration": 200}, {"note": 70, "velocity": 79, "duration": 137}, {"note": 0, "velocity": 0, "duration": 103}, {"note": 66, "velocity": 80, "duration": 346}, {"note": 0, "velocity": 0, "duration": 134}, {"note": 66, "velocity": 80, "duration": 136}, {"note": 0, "velocity": 0, "duration": 104}, {"note": 66, "velocity": 81, "duration": 151}, {"note": 0, "velocity": 0, "duration": 89}, {"note": 68, "velocity": 79, "duration": 123}, {"note": 0, "velocity": 0, "duration": 117}, {"note": 68, "velocity": 72, "duration": 63}, {"note": 68, "velocity": 79, "duration": 258}, {"note": 0, "velocity": 0, "duration": 102}, {"note": 66, "velocity": 79, "duration": 164}, {"note": 0, "velocity": 0, "duration": 76}, {"note": 66, "velocity": 80, "duration": 204}, {"note": 63, "velocity": 78, "duration": 122}, {"note": 70, "velocity": 85, "duration": 290}, {"note": 0, "velocity": 0, "duration": 70}, {"note": 70, "velocity": 82, "duration": 193}, {"note": 68, "velocity": 80, "duration": 472}, {"note": 0, "velocity": 0, "duration": 248}, {"note": 61, "velocity": 83, "duration": 167}, {"note": 0, "velocity": 0, "duration": 73}, {"note": 71, "velocity": 81, "duration": 138}, {"note": 0, "velocity": 0, "duration": 102}, {"note": 71, "velocity": 80, "duration": 75}, {"note": 71, "velocity": 78, "duration": 960}, {"note": 0, "velocity": 0, "duration": 1320}, {"note": 70, "velocity": 81, "duration": 181}, {"note": 68, "velocity": 80, "duration": 216}, {"note": 66, "velocity": 85, "duration": 2431}]]