[[{"note": 60, "velocity": 88, "duration": 248}, {"note": 69, "velocity": 85, "duration": 162}, {"note": 0, "velocity": 0, "duration": 78}, {"note": 69, "velocity": 86, "duration": 137}, {"note": 0, "velocity": 0, "duration": 103}, {"note": 69, "velocity": 88, "duration": 176}, {"note": 0, "velocity": 0, "duration": 64}, {"note": 67, "velocity": 85, "duration": 141}, {"note": 0, "velocity": 0, "duration": 99}, {"note": 69, "velocity": 88, "duration": 403}, {"note": 0, "velocity": 0, "duration": 77}, {"note": 67, "velocity": 85, "duration": 177}, {"note": 0, "velocity": 0, "duration": 63}, {"note": 65, "velocity": 86, "duration": 213}, {"note": 67, "velocity": 85, "duration": 940}, {"note": 0, "velocity": 0, "duration": 500}, {"note": 69, "velocity": 83, "duration": 226}, {"note": 67, "velocity": 80, "duration": 163}, {"note": 0, "velocity": 0, "duration": 77}, {"note": 67, "velocity": 85, "duration": 219}, {"note": 65, "velocity": 85, "duration": 402}, {"note": 0, "velocity": 0, "duration": 78}, {"note": 67, "velocity": 79, "duration": 144}, {"note": 0, "velocity": 0, "duration": 96}, {"note": 65, "velocity": 87, "duration": 378}, {"note": 0, "velocity": 0, "duration": 102}, {"note": 57, "velocity": 76, "duration": 146}, {"note": 0, "velocity": 0, "duration": 94}, {"note": 62, "velocity": 71, "duration": 172}, {"note": 0, "velocity": 0, "duration": 68}, {"note": 60, "velocity": 85, "duration": 982}, {"note": 0, "velocity": 0, "duration": 938}, {"note": 69, "velocity": 84, "duration": 190}, {"note": 72, "velocity": 83, "duration": 163}, {"note": 0, "velocity": 0, "duration": 77}, {"note": 72, "velocity": 84, "duration": 155}, {"note": 0, "velocity": 0, "duration": 85}, {"note": 72, "velocity": 84, "duration": 156}, {"note": 0, "velocity": 0, "duration": 84}, {"note": 72, "velocity": 86, "duration": 153}, {"note": 0, "velocity": 0, "duration": 87}, {"note": 72, "velocity": 90, "duration": 428}, {"note": 0, "velocity": 0, "duration": 292}, {"note": 74, "velocity": 88, "duration": 356}, {"note": 0, "velocity": 0, "duration": 124}, {"note": 69, "velocity": 86, "duration": 171}, {"note": 0, "velocity": 0, "duration": 69}, {"note": 67, "velocity": 84, "duration": 141}, {"note": 0, "velocity": 0, "duration": 99}, {"note": 65, "velocity": 84, "duration": 251}, {"note": 62, "velocity": 84, "duration": 501}, {"note": 0, "velocity": 0, "duration": 219}, {"note": 65, "velocity": 85, "duration": 209}, {"note": 67, "velocity": 85, "duration": 123}, {"note": 0, "velocity": 0, "duration": 117}, {"note": 67, "velocity": 84, "duration": 131}, {"note": 0, "velocity": 0, "duration": 109}, {"note": 67, "velocity": 83, "duration": 162}, {"note": 0, "velocity": 0, "duration": 78}, {"note": 69, "velocity": 87, "duration": 362}, {"note": 0, "velocity": 0, "duration": 118}, {"note": 67, "velocity": 80, "duration": 176}, {"note": 0, "velocity": 0, "duration": 64}, {"note": 65, "velocity": 84, "duration": 142}, {"note": 0, "velocity": 0, "duration": 98}, {"note": 67, "velocity": 85, "duration": 1581}, {"note": 0, "velocity": 0, "duration": 339}, {"note": 60, "velocity": 85, "duration": 162}, {"note": 0, "velocity": 0, "duration": 78}, {"note": 69, "velocity": 86, "duration": 137}, {"note": 0, "velocity": 0, "duration": 103}, {"note": 69, "velocity": 88, "duration": 176}, {"note": 0, "velocity": 0, "duration": 64}, {"note": 67, "velocity": 85, "duration": 141}, {"note": 0, "velocity": 0, "duration": 99}, {"note": 69, "velocity": 88, "duration": 403}, {"note": 0, "velocity": 0, "duration": 77}, {"note": 67, "velocity": 85, "duration": 177}, {"note": 0, "velocity": 0, "duration": 63}, {"note": 65, "velocity": 86, "duration": 213}, {"note": 67, "velocity": 85, "duration": 940}, {"note": 0, "velocity": 0, "duration": 500}, {"note": 69, "velocity": 83, "duration": 226}, {"note": 67, "velocity": 80, "duration": 163}, {"note": 0, "velocity": 0, "duration": 77}, {"note": 67, "velocity": 85, "duration": 219}, {"note": 65, "velocity": 85, "duration": 402}, {"note": 0, "velocity": 0, "duration": 78}, {"note": 67, "velocity": 79, "duration": 144}, {"note": 0, "velocity": 0, "duration": 96}, {"note": 65, "velocity": 87, "duration": 378}, {"note": 0, "velocity": 0, "duration": 102}, {"note": 57, "velocity": 76, "duration": 146}, {"note": 0, "velocity": 0, "duration": 94}, {"note": 62, "velocity": 71, "duration": 172}, {"note": 0, "velocity": 0, "duration": 68}, {"note": 60, "velocity": 85, "duration": 982}, {"note": 0, "velocity": 0, "duration": 938}, {"note": 69, "velocity": 84, "duration": 190}, {"note": 72, "velocity": 83, "duration": 163}, {"note": 0, "velocity": 0, "duration": 77}, {"note": 72, "velocity": 84, "duration": 155}, {"note": 0, "velocity": 0, "duration": 85}, {"note": 72, "velocity": 84, "duration": 156}, {"note": 0, "velocity": 0, "duration": 84}, {"note": 72, "velocity": 86, "duration": 153}, {"note": 0, "velocity": 0, "duration": 87}, {"note": 72, "velocity": 90, "duration": 428}, {"note": 0, "velocity": 0, "duration": 292}, {"note": 74, "velocity": 88, "duration": 356}, {"note": 0, "velocity": 0, "duration": 124}, {"note": 69, "velocity": 86, "duration": 171}, {"note": 0, "velocity": 0, "duration": 69}, {"note": 67, "velocity": 84, "duration": 141}, {"note": 0, "velocity": 0, "duration": 99}, {"note": 65, "velocity": 84, "duration": 251}, {"note": 62, "velocity": 84, "duration": 501}, {"note": 0, "velocity": 0, "duration": 219}, {"note": 65, "velocity": 85, "duration": 209}, {"note": 67, "velocity": 85, "duration": 123}, {"note": 0, "velocity": 0, "duration": 117}, {"note": 67, "velocity": 84, "duration": 131}, {"note": 0, "velocity": 0, "duration": 109}, {"note": 67, "velocity": 83, "duration": 162}, {"note": 0, "velocity": 0, "duration": 78}, {"note": 69, "velocity": 87, "duration": 362}, {"note": 0, "velocity": 0, "duration": 118}, {"note": 67, "velocity": 80, "duration": 176}, {"note": 0, "velocity": 0, "duration": 64}, {"note": 67, "velocity": 84, "duration": 142}, {"note": 0, "velocity": 0, "duration": 98}, {"note": 65, "velocity": 85, "duration": 1581}, {"note": 0, "velocity": 0, "duration": 99}, {"note": 65, "velocity": 84, "duration": 167}, {"note": 0, "velocity": 0, "duration": 73}, {"note": 74, "velocity": 86, "duration": 132}, {"note": 0, "velocity": 0, "duration": 108}, {"note": 74, "velocity": 95, "duration": 358}, {"note": 0, "velocity": 0, "duration": 122}, {"note": 72, "velocity": 86, "duration": 133}, {"note": 0, "velocity": 0, "duration": 107}, {"note": 74, "velocity": 85, "duration": 145}, {"note": 0, "velocity": 0, "duration": 95}, {"note": 72, "velocity": 87, "duration": 141}, {"note": 0, "velocity": 0, "duration": 99}, {"note": 72, "velocity": 90, "duration": 250}, {"note": 0, "velocity": 0, "duration": 230}, {"note": 74, "velocity": 88, "duration": 197}, {"note": 72, "velocity": 86, "duration": 126}, {"note": 0, "velocity": 0, "duration": 114}, {"note": 72, "velocity": 90, "duration": 176}, {"note": 0, "velocity": 0, "duration": 64}, {"note": 69, "velocity": 88, "duration": 161}, {"note": 0, "velocity": 0, "duration": 79}, {"note": 72, "velocity": 93, "duration": 648}, {"note": 0, "velocity": 0, "duration": 312}, {"note": 62, "velocity": 90, "duration": 169}, {"note": 0, "velocity": 0, "duration": 71}, {"note": 65, "velocity": 87, "duration": 353}, {"note": 0, "velocity": 0, "duration": 127}, {"note": 65, "velocity": 88, "duration": 148}, {"note": 0, "velocity": 0, "duration": 92}, {"note": 65, "velocity": 86, "duration": 125}, {"note": 0, "velocity": 0, "duration": 115}, {"note": 65, "velocity": 85, "duration": 163}, {"note": 0, "velocity": 0, "duration": 77}, {"note": 62, "velocity": 87, "duration": 257}, {"note": 0, "velocity": 0, "duration": 223}, {"note": 74, "velocity": 89, "duration": 203}, {"note": 72, "velocity": 85, "duration": 131}, {"note": 0, "velocity": 0, "duration": 109}, {"note": 72, "velocity": 90, "duration": 150}, {"note": 0, "velocity": 0, "duration": 90}, {"note": 74, "velocity": 86, "duration": 181}, {"note": 69, "velocity": 86, "duration": 158}, {"note": 0, "velocity": 0, "duration": 82}, {"note": 67, "velocity": 85, "duration": 531}, {"note": 0, "velocity": 0, "duration": 189}, {"note": 77, "velocity": 88, "duration": 131}, {"note": 0, "velocity": 0, "duration": 109}, {"note": 77, "velocity": 85, "duration": 374}, {"note": 0, "velocity": 0, "duration": 106}, {"note": 74, "velocity": 88, "duration": 162}, {"note": 0, "velocity": 0, "duration": 78}, {"note": 74, "velocity": 90, "duration": 181}, {"note": 72, "velocity": 86, "duration": 167}, {"note": 0, "velocity": 0, "duration": 73}, {"note": 72, "velocity": 85, "duration": 310}, {"note": 0, "velocity": 0, "duration": 170}, {"note": 74, "velocity": 90, "duration": 183}, {"note": 72, "velocity": 86, "duration": 126}, {"note": 0, "velocity": 0, "duration": 114}, {"note": 72, "velocity": 87, "duration": 145}, {"note": 0, "velocity": 0, "duration": 95}, {"note": 74, "velocity": 86, "duration": 171}, {"note": 0, "velocity": 0, "duration": 69}, {"note": 69, "velocity": 85, "duration": 598}, {"note": 0, "velocity": 0, "duration": 362}, {"note": 62, "velocity": 88, "duration": 145}, {"note": 0, "velocity": 0, "duration": 95}, {"note": 65, "velocity": 85, "duration": 361}, {"note": 0, "velocity": 0, "duration": 119}, {"note": 62, "velocity": 90, "duration": 188}, {"note": 62, "velocity": 91, "duration": 173}, {"note": 0, "velocity": 0, "duration": 67}, {"note": 74, "velocity": 91, "duration": 150}, {"note": 0, "velocity": 0, "duration": 90}, {"note": 74, "velocity": 95, "duration": 163}, {"note": 0, "velocity": 0, "duration": 77}, {"note": 72, "velocity": 86, "duration": 171}, {"note": 0, "velocity": 0, "duration": 69}, {"note": 74, "velocity": 91, "duration": 115}, {"note": 0, "velocity": 0, "duration": 125}, {"note": 72, "velocity": 88, "duration": 247}, {"note": 0, "velocity": 0, "duration": 233}, {"note": 74, "velocity": 88, "duration": 159}, {"note": 0, "velocity": 0, "duration": 81}, {"note": 72, "velocity": 86, "duration": 720}, {"note": 60, "velocity": 91, "duration": 77}, {"note": 60, "velocity": 84, "duration": 81}, {"note": 72, "velocity": 86, "duration": 126}, {"note": 0, "velocity": 0, "duration": 114}, {"note": 69, "velocity": 84, "duration": 303}, {"note": 0, "velocity": 0, "duration": 177}, {"note": 67, "velocity": 85, "duration": 82}, {"note": 69, "velocity": 83, "duration": 81}, {"note": 67, "velocity": 86, "duration": 207}, {"note": 65, "velocity": 86, "duration": 298}, {"note": 0, "velocity": 0, "duration": 182}, {"note": 60, "velocity": 91, "duration": 77}, {"note": 60, "velocity": 84, "duration": 81}, {"note": 72, "velocity": 86, "duration": 126}, {"note": 0, "velocity": 0, "duration": 114}, {"note": 69, "velocity": 84, "duration": 303}, {"note": 0, "velocity": 0, "duration": 177}, {"note": 67, "velocity": 85, "duration": 82}, {"note": 69, "velocity": 83, "duration": 81}, {"note": 67, "velocity": 86, "duration": 207}, {"note": 65, "velocity": 86, "duration": 298}, {"note": 0, "velocity": 0, "duration": 182}, {"note": 60, "velocity": 87, "duration": 50}, {"note": 0, "velocity": 0, "duration": 70}, {"note": 60, "velocity": 87, "duration": 87}, {"note": 74, "velocity": 87, "duration": 181}, {"note": 72, "velocity": 85, "duration": 118}, {"note": 0, "velocity": 0, "duration": 122}, {"note": 72, "velocity": 86, "duration": 154}, {"note": 0, "velocity": 0, "duration": 86}, {"note": 69, "velocity": 86, "duration": 159}, {"note": 0, "velocity": 0, "duration": 81}, {"note": 74, "velocity": 89, "duration": 189}, {"note": 72, "velocity": 85, "duration": 144}, {"note": 0, "velocity": 0, "duration": 96}, {"note": 72, "velocity": 84, "duration": 189}, {"note": 69, "velocity": 86, "duration": 213}, {"note": 74, "velocity": 90, "duration": 189}, {"note": 72, "velocity": 84, "duration": 320}, {"note": 0, "velocity": 0, "duration": 160}, {"note": 69, "velocity": 84, "duration": 171}, {"note": 0, "velocity": 0, "duration": 69}, {"note": 74, "velocity": 90, "duration": 192}, {"note": 72, "velocity": 85, "duration": 360}, {"note": 0, "velocity": 0, "duration": 120}, {"note": 60, "velocity": 79, "duration": 240}, {"note": 0, "velocity": 0, "duration": 120}, {"note": 69, "velocity": 85, "duration": 1216}, {"note": 0, "velocity": 0, "duration": 104}, {"note": 67, "velocity": 85, "duration": 181}, {"note": 69, "velocity": 84, "duration": 201}, {"note": 67, "velocity": 75, "duration": 241}, {"note": 65, "velocity": 84, "duration": 1252}, {"note": 0, "velocity": 0, "duration": 36668}, {"note": 60, "velocity": 88, "duration": 248}, {"note": 69, "velocity": 85, "duration": 162}, {"note": 0, "velocity": 0, "duration": 78}, {"note": 69, "velocity": 86, "duration": 137}, {"note": 0, "velocity": 0, "duration": 103}, {"note": 69, "velocity": 88, "duration": 176}, {"note": 0, "velocity": 0, "duration": 64}, {"note": 67, "velocity": 85, "duration": 141}, {"note": 0, "velocity": 0, "duration": 99}, {"note": 69, "velocity": 88, "duration": 403}, {"note": 0, "velocity": 0, "duration": 77}, {"note": 67, "velocity": 85, "duration": 177}, {"note": 0, "velocity": 0, "duration": 63}, {"note": 65, "velocity": 86, "duration": 213}, {"note": 67, "velocity": 85, "duration": 940}, {"note": 0, "velocity": 0, "duration": 500}, {"note": 69, "velocity": 83, "duration": 226}, {"note": 67, "velocity": 80, "duration": 163}, {"note": 0, "velocity": 0, "duration": 77}, {"note": 67, "velocity": 85, "duration": 219}, {"note": 65, "velocity": 85, "duration": 402}, {"note": 0, "velocity": 0, "duration": 78}, {"note": 67, "velocity": 79, "duration": 144}, {"note": 0, "velocity": 0, "duration": 96}, {"note": 65, "velocity": 87, "duration": 378}, {"note": 0, "velocity": 0, "duration": 102}, {"note": 57, "velocity": 76, "duration": 146}, {"note": 0, "velocity": 0, "duration": 94}, {"note": 62, "velocity": 71, "duration": 172}, {"note": 0, "velocity": 0, "duration": 68}, {"note": 60, "velocity": 85, "duration": 982}, {"note": 0, "velocity": 0, "duration": 938}, {"note": 69, "velocity": 84, "duration": 190}, {"note": 72, "velocity": 83, "duration": 163}, {"note": 0, "velocity": 0, "duration": 77}, {"note": 72, "velocity": 84, "duration": 155}, {"note": 0, "velocity": 0, "duration": 85}, {"note": 72, "velocity": 84, "duration": 156}, {"note": 0, "velocity": 0, "duration": 84}, {"note": 72, "velocity": 86, "duration": 153}, {"note": 0, "velocity": 0, "duration": 87}, {"note": 72, "velocity": 90, "duration": 428}, {"note": 0, "velocity": 0, "duration": 292}, {"note": 74, "velocity": 88, "duration": 356}, {"note": 0, "velocity": 0, "duration": 124}, {"note": 69, "velocity": 86, "duration": 171}, {"note": 0, "velocity": 0, "duration": 69}, {"note": 67, "velocity": 84, "duration": 141}, {"note": 0, "velocity": 0, "duration": 99}, {"note": 65, "velocity": 84, "duration": 251}, {"note": 62, "velocity": 84, "duration": 501}, {"note": 0, "velocity": 0, "duration": 219}, {"note": 65, "velocity": 85, "duration": 209}, {"note": 67, "velocity": 85, "duration": 123}, {"note": 0, "velocity": 0, "duration": 117}, {"note": 67, "velocity": 84, "duration": 131}, {"note": 0, "velocity": 0, "duration": 109}, {"note": 67, "velocity": 83, "duration": 162}, {"note": 0, "velocity": 0, "duration": 78}, {"note": 69, "velocity": 87, "duration": 362}, {"note": 0, "velocity": 0, "duration": 118}, {"note": 67, "velocity": 80, "duration": 176}, {"note": 0, "velocity": 0, "duration": 64}, {"note": 65, "velocity": 84, "duration": 142}, {"note": 0, "velocity": 0, "duration": 98}, {"note": 67, "velocity": 85, "duration": 1581}, {"note": 0, "velocity": 0, "duration": 339}, {"note": 60, "velocity": 85, "duration": 162}, {"note": 0, "velocity": 0, "duration": 78}, {"note": 69, "velocity": 86, "duration": 137}, {"note": 0, "velocity": 0, "duration": 103}, {"note": 69, "velocity": 88, "duration": 176}, {"note": 0, "velocity": 0, "duration": 64}, {"note": 67, "velocity": 85, "duration": 141}, {"note": 0, "velocity": 0, "duration": 99}, {"note": 69, "velocity": 88, "duration": 403}, {"note": 0, "velocity": 0, "duration": 77}, {"note": 67, "velocity": 85, "duration": 177}, {"note": 0, "velocity": 0, "duration": 63}, {"note": 65, "velocity": 86, "duration": 213}, {"note": 67, "velocity": 85, "duration": 940}, {"note": 0, "velocity": 0, "duration": 500}, {"note": 69, "velocity": 83, "duration": 226}, {"note": 67, "velocity": 80, "duration": 163}, {"note": 0, "velocity": 0, "duration": 77}, {"note": 67, "velocity": 85, "duration": 219}, {"note": 65, "velocity": 85, "duration": 402}, {"note": 0, "velocity": 0, "duration": 78}, {"note": 67, "velocity": 79, "duration": 144}, {"note": 0, "velocity": 0, "duration": 96}, {"note": 65, "velocity": 87, "duration": 378}, {"note": 0, "velocity": 0, "duration": 102}, {"note": 57, "velocity": 76, "duration": 146}, {"note": 0, "velocity": 0, "duration": 94}, {"note": 62, "velocity": 71, "duration": 172}, {"note": 0, "velocity": 0, "duration": 68}, {"note": 60, "velocity": 85, "duration": 982}, {"note": 0, "velocity": 0, "duration": 938}, {"note": 69, "velocity": 84, "duration": 190}, {"note": 72, "velocity": 83, "duration": 163}, {"note": 0, "velocity": 0, "duration": 77}, {"note": 72, "velocity": 84, "duration": 155}, {"note": 0, "velocity": 0, "duration": 85}, {"note": 72, "velocity": 84, "duration": 156}, {"note": 0, "velocity": 0, "duration": 84}, {"note": 72, "velocity": 86, "duration": 153}, {"note": 0, "velocity": 0, "duration": 87}, {"note": 72, "velocity": 90, "duration": 428}, {"note": 0, "velocity": 0, "duration": 292}, {"note": 74, "velocity": 88, "duration": 356}, {"note": 0, "velocity": 0, "duration": 124}, {"note": 69, "velocity": 86, "duration": 171}, {"note": 0, "velocity": 0, "duration": 69}, {"note": 67, "velocity": 84, "duration": 141}, {"note": 0, "velocity": 0, "duration": 99}, {"note": 65, "velocity": 84, "duration": 251}, {"note": 62, "velocity": 84, "duration": 501}, {"note": 0, "velocity": 0, "duration": 219}, {"note": 65, "velocity": 85, "duration": 209}, {"note": 67, "velocity": 85, "duration": 123}, {"note": 0, "velocity": 0, "duration": 117}, {"note": 67, "velocity": 84, "duration": 131}, {"note": 0, "velocity": 0, "duration": 109}, {"note": 67, "velocity": 83, "duration": 162}, {"note": 0, "velocity": 0, "duration": 78}, {"note": 69, "velocity": 87, "duration": 362}, {"note": 0, "velocity": 0, "duration": 118}, {"note": 67, "velocity": 80, "duration": 176}, {"note": 0, "velocity": 0, "duration": 64}, {"note": 67, "velocity": 84, "duration": 142}, {"note": 0, "velocity": 0, "duration": 98}, {"note": 65, "velocity": 85, "duration": 1581}, {"note": 0, "velocity": 0, "duration": 99}, {"note": 65, "velocity": 84, "duration": 167}, {"note": 0, "velocity": 0, "duration": 73}, {"note": 74, "velocity": 86, "duration": 132}, {"note": 0, "velocity": 0, "duration": 108}, {"note": 74, "velocity": 95, "duration": 358}, {"note": 0, "velocity": 0, "duration": 122}, {"note": 72, "velocity": 86, "duration": 133}, {"note": 0, "velocity": 0, "duration": 107}, {"note": 74, "velocity": 85, "duration": 145}, {"note": 0, "velocity": 0, "duration": 95}, {"note": 72, "velocity": 87, "duration": 141}, {"note": 0, "velocity": 0, "duration": 99}, {"note": 72, "velocity": 90, "duration": 250}, {"note": 0, "velocity": 0, "duration": 230}, {"note": 74, "velocity": 88, "duration": 197}, {"note": 72, "velocity": 86, "duration": 126}, {"note": 0, "velocity": 0, "duration": 114}, {"note": 72, "velocity": 90, "duration": 176}, {"note": 0, "velocity": 0, "duration": 64}, {"note": 69, "velocity": 88, "duration": 161}, {"note": 0, "velocity": 0, "duration": 79}, {"note": 72, "velocity": 93, "duration": 648}, {"note": 0, "velocity": 0, "duration": 312}, {"note": 62, "velocity": 90, "duration": 169}, {"note": 0, "velocity": 0, "duration": 71}, {"note": 65, "velocity": 87, "duration": 353}, {"note": 0, "velocity": 0, "duration": 127}, {"note": 65, "velocity": 88, "duration": 148}, {"note": 0, "velocity": 0, "duration": 92}, {"note": 65, "velocity": 86, "duration": 125}, {"note": 0, "velocity": 0, "duration": 115}, {"note": 65, "velocity": 85, "duration": 163}, {"note": 0, "velocity": 0, "duration": 77}, {"note": 62, "velocity": 87, "duration": 257}, {"note": 0, "velocity": 0, "duration": 223}, {"note": 74, "velocity": 89, "duration": 203}, {"note": 72, "velocity": 85, "duration": 131}, {"note": 0, "velocity": 0, "duration": 109}, {"note": 72, "velocity": 90, "duration": 150}, {"note": 0, "velocity": 0, "duration": 90}, {"note": 74, "velocity": 86, "duration": 181}, {"note": 69, "velocity": 86, "duration": 158}, {"note": 0, "velocity": 0, "duration": 82}, {"note": 67, "velocity": 85, "duration": 531}, {"note": 0, "velocity": 0, "duration": 189}, {"note": 77, "velocity": 88, "duration": 131}, {"note": 0, "velocity": 0, "duration": 109}, {"note": 77, "velocity": 85, "duration": 374}, {"note": 0, "velocity": 0, "duration": 106}, {"note": 74, "velocity": 88, "duration": 162}, {"note": 0, "velocity": 0, "duration": 78}, {"note": 74, "velocity": 90, "duration": 181}, {"note": 72, "velocity": 86, "duration": 167}, {"note": 0, "velocity": 0, "duration": 73}, {"note": 72, "velocity": 85, "duration": 310}, {"note": 0, "velocity": 0, "duration": 170}, {"note": 74, "velocity": 90, "duration": 183}, {"note": 72, "velocity": 86, "duration": 126}, {"note": 0, "velocity": 0, "duration": 114}, {"note": 72, "velocity": 87, "duration": 145}, {"note": 0, "velocity": 0, "duration": 95}, {"note": 74, "velocity": 86, "duration": 171}, {"note": 0, "velocity": 0, "duration": 69}, {"note": 69, "velocity": 85, "duration": 598}, {"note": 0, "velocity": 0, "duration": 362}, {"note": 62, "velocity": 88, "duration": 145}, {"note": 0, "velocity": 0, "duration": 95}, {"note": 65, "velocity": 85, "duration": 361}, {"note": 0, "velocity": 0, "duration": 119}, {"note": 62, "velocity": 90, "duration": 188}, {"note": 62, "velocity": 91, "duration": 173}, {"note": 0, "velocity": 0, "duration": 67}, {"note": 74, "velocity": 91, "duration": 150}, {"note": 0, "velocity": 0, "duration": 90}, {"note": 74, "velocity": 95, "duration": 163}, {"note": 0, "velocity": 0, "duration": 77}, {"note": 72, "velocity": 86, "duration": 171}, {"note": 0, "velocity": 0, "duration": 69}, {"note": 74, "velocity": 91, "duration": 115}, {"note": 0, "velocity": 0, "duration": 125}, {"note": 72, "velocity": 88, "duration": 247}, {"note": 0, "velocity": 0, "duration": 233}, {"note": 74, "velocity": 88, "duration": 159}, {"note": 0, "velocity": 0, "duration": 81}, {"note": 72, "velocity": 86, "duration": 720}, {"note": 60, "velocity": 91, "duration": 77}, {"note": 60, "velocity": 84, "duration": 81}, {"note": 72, "velocity": 86, "duration": 126}, {"note": 0, "velocity": 0, "duration": 114}, {"note": 69, "velocity": 84, "duration": 303}, {"note": 0, "velocity": 0, "duration": 177}, {"note": 67, "velocity": 85, "duration": 82}, {"note": 69, "velocity": 83, "duration": 81}, {"note": 67, "velocity": 86, "duration": 207}, {"note": 65, "velocity": 86, "duration": 298}, {"note": 0, "velocity": 0, "duration": 182}, {"note": 60, "velocity": 91, "duration": 77}, {"note": 60, "velocity": 84, "duration": 81}, {"note": 72, "velocity": 86, "duration": 126}, {"note": 0, "velocity": 0, "duration": 114}, {"note": 69, "velocity": 84, "duration": 303}, {"note": 0, "velocity": 0, "duration": 177}, {"note": 67, "velocity": 85, "duration": 82}, {"note": 69, "velocity": 83, "duration": 81}, {"note": 67, "velocity": 86, "duration": 207}, {"note": 65, "velocity": 86, "duration": 298}, {"note": 0, "velocity": 0, "duration": 182}, {"note": 60, "velocity": 87, "duration": 50}, {"note": 0, "velocity": 0, "duration": 70}, {"note": 60, "velocity": 87, "duration": 87}, {"note": 74, "velocity": 87, "duration": 181}, {"note": 72, "velocity": 85, "duration": 118}, {"note": 0, "velocity": 0, "duration": 122}, {"note": 72, "velocity": 86, "duration": 154}, {"note": 0, "velocity": 0, "duration": 86}, {"note": 69, "velocity": 86, "duration": 159}, {"note": 0, "velocity": 0, "duration": 81}, {"note": 74, "velocity": 89, "duration": 189}, {"note": 72, "velocity": 85, "duration": 144}, {"note": 0, "velocity": 0, "duration": 96}, {"note": 72, "velocity": 84, "duration": 189}, {"note": 69, "velocity": 86, "duration": 213}, {"note": 74, "velocity": 90, "duration": 189}, {"note": 72, "velocity": 84, "duration": 320}, {"note": 0, "velocity": 0, "duration": 160}, {"note": 69, "velocity": 84, "duration": 171}, {"note": 0, "velocity": 0, "duration": 69}, {"note": 74, "velocity": 90, "duration": 192}, {"note": 72, "velocity": 85, "duration": 360}, {"note": 0, "velocity": 0, "duration": 120}, {"note": 60, "velocity": 79, "duration": 240}, {"note": 0, "velocity": 0, "duration": 120}, {"note": 69, "velocity": 85, "duration": 1216}, {"note": 0, "velocity": 0, "duration": 104}, {"note": 67, "velocity": 85, "duration": 181}, {"note": 69, "velocity": 84, "duration": 201}, {"note": 67, "velocity": 75, "duration": 241}, {"note": 65, "velocity": 84, "duration": 1252}, {"note": 0, "velocity": 0, "duration": 188}, {"note": 65, "velocity": 84, "duration": 167}, {"note": 0, "velocity": 0, "duration": 73}, {"note": 74, "velocity": 86, "duration": 132}, {"note": 0, "velocity": 0, "duration": 108}, {"note": 74, "velocity": 95, "duration": 358}, {"note": 0, "velocity": 0, "duration": 122}, {"note": 72, "velocity": 86, "duration": 133}, {"note": 0, "velocity": 0, "duration": 107}, {"note": 74, "velocity": 85, "duration": 145}, {"note": 0, "velocity": 0, "duration": 95}, {"note": 72, "velocity": 87, "duration": 141}, {"note": 0, "velocity": 0, "duration": 99}, {"note": 72, "velocity": 90, "duration": 250}, {"note": 0, "velocity": 0, "duration": 230}, {"note": 74, "velocity": 88, "duration": 197}, {"note": 72, "velocity": 86, "duration": 126}, {"note": 0, "velocity": 0, "duration": 114}, {"note": 72, "velocity": 90, "duration": 176}, {"note": 0, "velocity": 0, "duration": 64}, {"note": 69, "velocity": 88, "duration": 161}, {"note": 0, "velocity": 0, "duration": 79}, {"note": 72, "velocity": 93, "duration": 648}, {"note": 0, "velocity": 0, "duration": 312}, {"note": 62, "velocity": 90, "duration": 169}, {"note": 0, "velocity": 0, "duration": 71}, {"note": 65, "velocity": 87, "duration": 353}, {"note": 0, "velocity": 0, "duration": 127}, {"note": 65, "velocity": 88, "duration": 148}, {"note": 0, "velocity": 0, "duration": 92}, {"note": 65, "velocity": 86, "duration": 125}, {"note": 0, "velocity": 0, "duration": 115}, {"note": 65, "velocity": 85, "duration": 163}, {"note": 0, "velocity": 0, "duration": 77}, {"note": 62, "velocity": 87, "duration": 257}, {"note": 0, "velocity": 0, "duration": 223}, {"note": 74, "velocity": 89, "duration": 203}, {"note": 72, "velocity": 85, "duration": 131}, {"note": 0, "velocity": 0, "duration": 109}, {"note": 72, "velocity": 90, "duration": 150}, {"note": 0, "velocity": 0, "duration": 90}, {"note": 74, "velocity": 86, "duration": 181}, {"note": 69, "velocity": 86, "duration": 158}, {"note": 0, "velocity": 0, "duration": 82}, {"note": 67, "velocity": 85, "duration": 531}, {"note": 0, "velocity": 0, "duration": 189}, {"note": 77, "velocity": 88, "duration": 131}, {"note": 0, "velocity": 0, "duration": 109}, {"note": 77, "velocity": 85, "duration": 374}, {"note": 0, "velocity": 0, "duration": 106}, {"note": 74, "velocity": 88, "duration": 162}, {"note": 0, "velocity": 0, "duration": 78}, {"note": 74, "velocity": 90, "duration": 181}, {"note": 72, "velocity": 86, "duration": 167}, {"note": 0, "velocity": 0, "duration": 73}, {"note": 72, "velocity": 85, "duration": 310}, {"note": 0, "velocity": 0, "duration": 170}, {"note": 74, "velocity": 90, "duration": 183}, {"note": 72, "velocity": 86, "duration": 126}, {"note": 0, "velocity": 0, "duration": 114}, {"note": 72, "velocity": 87, "duration": 145}, {"note": 0, "velocity": 0, "duration": 95}, {"note": 74, "velocity": 86, "duration": 171}, {"note": 0, "velocity": 0, "duration": 69}, {"note": 69, "velocity": 85, "duration": 598}, {"note": 0, "velocity": 0, "duration": 362}, {"note": 62, "velocity": 88, "duration": 145}, {"note": 0, "velocity": 0, "duration": 95}, {"note": 65, "velocity": 85, "duration": 361}, {"note": 0, "velocity": 0, "duration": 119}, {"note": 62, "velocity": 90, "duration": 188}, {"note": 62, "velocity": 91, "duration": 173}, {"note": 0, "velocity": 0, "duration": 67}, {"note": 74, "velocity": 91, "duration": 150}, {"note": 0, "velocity": 0, "duration": 90}, {"note": 74, "velocity": 95, "duration": 163}, {"note": 0, "velocity": 0, "duration": 77}, {"note": 72, "velocity": 86, "duration": 171}, {"note": 0, "velocity": 0, "duration": 69}, {"note": 74, "velocity": 91, "duration": 115}, {"note": 0, "velocity": 0, "duration": 125}, {"note": 72, "velocity": 88, "duration": 247}, {"note": 0, "velocity": 0, "duration": 233}, {"note": 74, "velocity": 88, "duration": 159}, {"note": 0, "velocity": 0, "duration": 81}, {"note": 72, "velocity": 86, "duration": 720}, {"note": 60, "velocity": 91, "duration": 77}, {"note": 60, "velocity": 84, "duration": 81}, {"note": 72, "velocity": 86, "duration": 126}, {"note": 0, "velocity": 0, "duration": 114}, {"note": 69, "velocity": 84, "duration": 303}, {"note": 0, "velocity": 0, "duration": 177}, {"note": 67, "velocity": 85, "duration": 82}, {"note": 69, "velocity": 83, "duration": 81}, {"note": 67, "velocity": 86, "duration": 207}, {"note": 65, "velocity": 86, "duration": 298}, {"note": 0, "velocity": 0, "duration": 182}, {"note": 60, "velocity": 91, "duration": 77}, {"note": 60, "velocity": 84, "duration": 81}, {"note": 72, "velocity": 86, "duration": 126}, {"note": 0, "velocity": 0, "duration": 114}, {"note": 69, "velocity": 84, "duration": 303}, {"note": 0, "velocity": 0, "duration": 177}, {"note": 67, "velocity": 85, "duration": 82}, {"note": 69, "velocity": 83, "duration": 81}, {"note": 67, "velocity": 86, "duration": 207}, {"note": 65, "velocity": 86, "duration": 298}, {"note": 0, "velocity": 0, "duration": 182}, {"note": 60, "velocity": 87, "duration": 50}, {"note": 0, "velocity": 0, "duration": 70}, {"note": 60, "velocity": 87, "duration": 87}, {"note": 74, "velocity": 87, "duration": 181}, {"note": 72, "velocity": 85, "duration": 118}, {"note": 0, "velocity": 0, "duration": 122}, {"note": 72, "velocity": 86, "duration": 154}, {"note": 0, "velocity": 0, "duration": 86}, {"note": 69, "velocity": 86, "duration": 159}, {"note": 0, "velocity": 0, "duration": 81}, {"note": 74, "velocity": 89, "duration": 189}, {"note": 72, "velocity": 85, "duration": 144}, {"note": 0, "velocity": 0, "duration": 96}, {"note": 72, "velocity": 84, "duration": 189}, {"note": 69, "velocity": 86, "duration": 213}, {"note": 74, "velocity": 90, "duration": 189}, {"note": 72, "velocity": 84, "duration": 320}, {"note": 0, "velocity": 0, "duration": 160}, {"note": 69, "velocity": 84, "duration": 171}, {"note": 0, "velocity": 0, "duration": 69}, {"note": 74, "velocity": 90, "duration": 192}, {"note": 72, "velocity": 85, "duration": 360}, {"note": 0, "velocity": 0, "duration": 120}, {"note": 60, "velocity": 79, "duration": 240}, {"note": 0, "velocity": 0, "duration": 120}, {"note": 69, "velocity": 85, "duration": 1216}, {"note": 0, "velocity": 0, "duration": 104}, {"note": 67, "velocity": 85, "duration": 181}, {"note": 69, "velocity": 84, "duration": 201}, {"note": 67, "velocity": 75, "duration": 241}, {"note": 65, "velocity": 84, "duration": 1252}]]