[[{"note": 60, "velocity": 88, "duration": 105}, {"note": 65, "velocity": 88, "duration": 58}, {"note": 0, "velocity": 0, "duration": 62}, {"note": 65, "velocity": 85, "duration": 59}, {"note": 0, "velocity": 0, "duration": 61}, {"note": 65, "velocity": 86, "duration": 60}, {"note": 65, "velocity": 85, "duration": 62}, {"note": 65, "velocity": 86, "duration": 199}, {"note": 65, "velocity": 86, "duration": 68}, {"note": 65, "velocity": 88, "duration": 192}, {"note": 65, "velocity": 86, "duration": 212}, {"note": 0, "velocity": 0, "duration": 148}, {"note": 60, "velocity": 86, "duration": 99}, {"note": 63, "velocity": 85, "duration": 345}, {"note": 61, "velocity": 81, "duration": 898}, {"note": 0, "velocity": 0, "duration": 902}, {"note": 58, "velocity": 85, "duration": 99}, {"note": 63, "velocity": 84, "duration": 68}, {"note": 63, "velocity": 84, "duration": 70}, {"note": 63, "velocity": 84, "duration": 68}, {"note": 63, "velocity": 84, "duration": 68}, {"note": 63, "velocity": 86, "duration": 189}, {"note": 63, "velocity": 81, "duration": 70}, {"note": 63, "velocity": 85, "duration": 182}, {"note": 65, "velocity": 87, "duration": 219}, {"note": 0, "velocity": 0, "duration": 141}, {"note": 67, "velocity": 86, "duration": 76}, {"note": 67, "velocity": 77, "duration": 240}, {"note": 60, "velocity": 86, "duration": 1080}, {"note": 0, "velocity": 0, "duration": 840}, {"note": 60, "velocity": 83, "duration": 69}, {"note": 65, "velocity": 86, "duration": 58}, {"note": 0, "velocity": 0, "duration": 62}, {"note": 65, "velocity": 85, "duration": 55}, {"note": 0, "velocity": 0, "duration": 65}, {"note": 65, "velocity": 85, "duration": 60}, {"note": 65, "velocity": 86, "duration": 60}, {"note": 65, "velocity": 93, "duration": 164}, {"note": 0, "velocity": 0, "duration": 76}, {"note": 65, "velocity": 85, "duration": 60}, {"note": 65, "velocity": 85, "duration": 184}, {"note": 65, "velocity": 85, "duration": 174}, {"note": 0, "velocity": 0, "duration": 186}, {"note": 72, "velocity": 84, "duration": 76}, {"note": 72, "velocity": 83, "duration": 240}, {"note": 70, "velocity": 79, "duration": 840}, {"note": 0, "velocity": 0, "duration": 1440}, {"note": 67, "velocity": 85, "duration": 89}, {"note": 67, "velocity": 84, "duration": 73}, {"note": 67, "velocity": 85, "duration": 157}, {"note": 0, "velocity": 0, "duration": 83}, {"note": 67, "velocity": 80, "duration": 65}, {"note": 67, "velocity": 85, "duration": 341}, {"note": 60, "velocity": 86, "duration": 164}, {"note": 0, "velocity": 0, "duration": 76}, {"note": 67, "velocity": 87, "duration": 63}, {"note": 68, "velocity": 79, "duration": 240}, {"note": 67, "velocity": 84, "duration": 1051}, {"note": 0, "velocity": 0, "duration": 869}, {"note": 60, "velocity": 88, "duration": 105}, {"note": 65, "velocity": 88, "duration": 58}, {"note": 0, "velocity": 0, "duration": 62}, {"note": 65, "velocity": 85, "duration": 59}, {"note": 0, "velocity": 0, "duration": 61}, {"note": 65, "velocity": 86, "duration": 60}, {"note": 65, "velocity": 85, "duration": 62}, {"note": 65, "velocity": 86, "duration": 199}, {"note": 65, "velocity": 86, "duration": 68}, {"note": 65, "velocity": 88, "duration": 192}, {"note": 65, "velocity": 86, "duration": 212}, {"note": 0, "velocity": 0, "duration": 148}, {"note": 60, "velocity": 86, "duration": 99}, {"note": 63, "velocity": 85, "duration": 345}, {"note": 61, "velocity": 81, "duration": 898}, {"note": 0, "velocity": 0, "duration": 902}, {"note": 58, "velocity": 85, "duration": 99}, {"note": 63, "velocity": 84, "duration": 68}, {"note": 63, "velocity": 84, "duration": 70}, {"note": 63, "velocity": 84, "duration": 68}, {"note": 63, "velocity": 84, "duration": 68}, {"note": 63, "velocity": 86, "duration": 189}, {"note": 63, "velocity": 81, "duration": 70}, {"note": 63, "velocity": 85, "duration": 182}, {"note": 65, "velocity": 87, "duration": 219}, {"note": 0, "velocity": 0, "duration": 141}, {"note": 67, "velocity": 86, "duration": 76}, {"note": 67, "velocity": 77, "duration": 240}, {"note": 60, "velocity": 86, "duration": 1080}, {"note": 0, "velocity": 0, "duration": 840}, {"note": 60, "velocity": 83, "duration": 69}, {"note": 65, "velocity": 86, "duration": 58}, {"note": 0, "velocity": 0, "duration": 62}, {"note": 65, "velocity": 85, "duration": 55}, {"note": 0, "velocity": 0, "duration": 65}, {"note": 65, "velocity": 85, "duration": 60}, {"note": 65, "velocity": 86, "duration": 60}, {"note": 65, "velocity": 93, "duration": 164}, {"note": 0, "velocity": 0, "duration": 76}, {"note": 65, "velocity": 85, "duration": 60}, {"note": 65, "velocity": 85, "duration": 184}, {"note": 65, "velocity": 85, "duration": 174}, {"note": 0, "velocity": 0, "duration": 186}, {"note": 72, "velocity": 84, "duration": 76}, {"note": 72, "velocity": 83, "duration": 240}, {"note": 70, "velocity": 79, "duration": 840}, {"note": 0, "velocity": 0, "duration": 1440}, {"note": 67, "velocity": 85, "duration": 89}, {"note": 67, "velocity": 84, "duration": 73}, {"note": 67, "velocity": 85, "duration": 157}, {"note": 0, "velocity": 0, "duration": 83}, {"note": 67, "velocity": 80, "duration": 65}, {"note": 67, "velocity": 85, "duration": 341}, {"note": 63, "velocity": 86, "duration": 164}, {"note": 0, "velocity": 0, "duration": 76}, {"note": 67, "velocity": 87, "duration": 63}, {"note": 67, "velocity": 79, "duration": 240}, {"note": 65, "velocity": 84, "duration": 1051}, {"note": 0, "velocity": 0, "duration": 869}, {"note": 72, "velocity": 88, "duration": 99}, {"note": 77, "velocity": 86, "duration": 71}, {"note": 72, "velocity": 87, "duration": 57}, {"note": 0, "velocity": 0, "duration": 63}, {"note": 72, "velocity": 86, "duration": 63}, {"note": 72, "velocity": 85, "duration": 75}, {"note": 72, "velocity": 88, "duration": 158}, {"note": 0, "velocity": 0, "duration": 82}, {"note": 68, "velocity": 85, "duration": 78}, {"note": 65, "velocity": 90, "duration": 480}, {"note": 60, "velocity": 86, "duration": 58}, {"note": 0, "velocity": 0, "duration": 62}, {"note": 60, "velocity": 86, "duration": 91}, {"note": 72, "velocity": 86, "duration": 244}, {"note": 70, "velocity": 86, "duration": 878}, {"note": 0, "velocity": 0, "duration": 1042}, {"note": 70, "velocity": 85, "duration": 91}, {"note": 75, "velocity": 77, "duration": 79}, {"note": 75, "velocity": 88, "duration": 56}, {"note": 0, "velocity": 0, "duration": 64}, {"note": 75, "velocity": 88, "duration": 63}, {"note": 75, "velocity": 86, "duration": 65}, {"note": 75, "velocity": 90, "duration": 182}, {"note": 75, "velocity": 85, "duration": 62}, {"note": 75, "velocity": 89, "duration": 249}, {"note": 0, "velocity": 0, "duration": 111}, {"note": 77, "velocity": 90, "duration": 240}, {"note": 79, "velocity": 85, "duration": 68}, {"note": 79, "velocity": 86, "duration": 233}, {"note": 72, "velocity": 93, "duration": 839}, {"note": 0, "velocity": 0, "duration": 1081}, {"note": 72, "velocity": 88, "duration": 99}, {"note": 77, "velocity": 86, "duration": 71}, {"note": 72, "velocity": 87, "duration": 57}, {"note": 0, "velocity": 0, "duration": 63}, {"note": 72, "velocity": 86, "duration": 63}, {"note": 72, "velocity": 85, "duration": 75}, {"note": 72, "velocity": 88, "duration": 158}, {"note": 0, "velocity": 0, "duration": 82}, {"note": 68, "velocity": 85, "duration": 78}, {"note": 65, "velocity": 90, "duration": 480}, {"note": 60, "velocity": 86, "duration": 58}, {"note": 0, "velocity": 0, "duration": 62}, {"note": 60, "velocity": 86, "duration": 91}, {"note": 72, "velocity": 86, "duration": 244}, {"note": 70, "velocity": 86, "duration": 878}, {"note": 0, "velocity": 0, "duration": 1402}, {"note": 70, "velocity": 84, "duration": 68}, {"note": 70, "velocity": 84, "duration": 71}, {"note": 70, "velocity": 86, "duration": 180}, {"note": 70, "velocity": 85, "duration": 67}, {"note": 70, "velocity": 86, "duration": 285}, {"note": 0, "velocity": 0, "duration": 75}, {"note": 63, "velocity": 87, "duration": 183}, {"note": 67, "velocity": 76, "duration": 75}, {"note": 67, "velocity": 84, "duration": 192}, {"note": 65, "velocity": 89, "duration": 1552}, {"note": 0, "velocity": 0, "duration": 15728}, {"note": 60, "velocity": 88, "duration": 105}, {"note": 65, "velocity": 88, "duration": 58}, {"note": 0, "velocity": 0, "duration": 62}, {"note": 65, "velocity": 85, "duration": 59}, {"note": 0, "velocity": 0, "duration": 61}, {"note": 65, "velocity": 86, "duration": 60}, {"note": 65, "velocity": 85, "duration": 62}, {"note": 65, "velocity": 86, "duration": 199}, {"note": 65, "velocity": 86, "duration": 68}, {"note": 65, "velocity": 88, "duration": 192}, {"note": 65, "velocity": 86, "duration": 212}, {"note": 0, "velocity": 0, "duration": 148}, {"note": 60, "velocity": 86, "duration": 99}, {"note": 63, "velocity": 85, "duration": 345}, {"note": 61, "velocity": 81, "duration": 898}, {"note": 0, "velocity": 0, "duration": 902}, {"note": 58, "velocity": 85, "duration": 99}, {"note": 63, "velocity": 84, "duration": 68}, {"note": 63, "velocity": 84, "duration": 70}, {"note": 63, "velocity": 84, "duration": 68}, {"note": 63, "velocity": 84, "duration": 68}, {"note": 63, "velocity": 86, "duration": 189}, {"note": 63, "velocity": 81, "duration": 70}, {"note": 63, "velocity": 85, "duration": 182}, {"note": 65, "velocity": 87, "duration": 219}, {"note": 0, "velocity": 0, "duration": 141}, {"note": 67, "velocity": 86, "duration": 76}, {"note": 67, "velocity": 77, "duration": 240}, {"note": 60, "velocity": 86, "duration": 1080}, {"note": 0, "velocity": 0, "duration": 840}, {"note": 60, "velocity": 83, "duration": 69}, {"note": 65, "velocity": 86, "duration": 58}, {"note": 0, "velocity": 0, "duration": 62}, {"note": 65, "velocity": 85, "duration": 55}, {"note": 0, "velocity": 0, "duration": 65}, {"note": 65, "velocity": 85, "duration": 60}, {"note": 65, "velocity": 86, "duration": 60}, {"note": 65, "velocity": 93, "duration": 164}, {"note": 0, "velocity": 0, "duration": 76}, {"note": 65, "velocity": 85, "duration": 60}, {"note": 65, "velocity": 85, "duration": 184}, {"note": 65, "velocity": 85, "duration": 174}, {"note": 0, "velocity": 0, "duration": 186}, {"note": 72, "velocity": 84, "duration": 76}, {"note": 72, "velocity": 83, "duration": 240}, {"note": 70, "velocity": 79, "duration": 840}, {"note": 0, "velocity": 0, "duration": 1440}, {"note": 67, "velocity": 85, "duration": 89}, {"note": 67, "velocity": 84, "duration": 73}, {"note": 67, "velocity": 85, "duration": 157}, {"note": 0, "velocity": 0, "duration": 83}, {"note": 67, "velocity": 80, "duration": 65}, {"note": 67, "velocity": 85, "duration": 341}, {"note": 60, "velocity": 86, "duration": 164}, {"note": 0, "velocity": 0, "duration": 76}, {"note": 67, "velocity": 87, "duration": 63}, {"note": 68, "velocity": 79, "duration": 240}, {"note": 67, "velocity": 84, "duration": 1051}, {"note": 0, "velocity": 0, "duration": 869}, {"note": 60, "velocity": 88, "duration": 105}, {"note": 65, "velocity": 88, "duration": 58}, {"note": 0, "velocity": 0, "duration": 62}, {"note": 65, "velocity": 85, "duration": 59}, {"note": 0, "velocity": 0, "duration": 61}, {"note": 65, "velocity": 86, "duration": 60}, {"note": 65, "velocity": 85, "duration": 62}, {"note": 65, "velocity": 86, "duration": 199}, {"note": 65, "velocity": 86, "duration": 68}, {"note": 65, "velocity": 88, "duration": 192}, {"note": 65, "velocity": 86, "duration": 212}, {"note": 0, "velocity": 0, "duration": 148}, {"note": 60, "velocity": 86, "duration": 99}, {"note": 63, "velocity": 85, "duration": 345}, {"note": 61, "velocity": 81, "duration": 898}, {"note": 0, "velocity": 0, "duration": 902}, {"note": 58, "velocity": 85, "duration": 99}, {"note": 63, "velocity": 84, "duration": 68}, {"note": 63, "velocity": 84, "duration": 70}, {"note": 63, "velocity": 84, "duration": 68}, {"note": 63, "velocity": 84, "duration": 68}, {"note": 63, "velocity": 86, "duration": 189}, {"note": 63, "velocity": 81, "duration": 70}, {"note": 63, "velocity": 85, "duration": 182}, {"note": 65, "velocity": 87, "duration": 219}, {"note": 0, "velocity": 0, "duration": 141}, {"note": 67, "velocity": 86, "duration": 76}, {"note": 67, "velocity": 77, "duration": 240}, {"note": 60, "velocity": 86, "duration": 1080}, {"note": 0, "velocity": 0, "duration": 840}, {"note": 60, "velocity": 83, "duration": 69}, {"note": 65, "velocity": 86, "duration": 58}, {"note": 0, "velocity": 0, "duration": 62}, {"note": 65, "velocity": 85, "duration": 55}, {"note": 0, "velocity": 0, "duration": 65}, {"note": 65, "velocity": 85, "duration": 60}, {"note": 65, "velocity": 86, "duration": 60}, {"note": 65, "velocity": 93, "duration": 164}, {"note": 0, "velocity": 0, "duration": 76}, {"note": 65, "velocity": 85, "duration": 60}, {"note": 65, "velocity": 85, "duration": 184}, {"note": 65, "velocity": 85, "duration": 174}, {"note": 0, "velocity": 0, "duration": 186}, {"note": 72, "velocity": 84, "duration": 76}, {"note": 72, "velocity": 83, "duration": 240}, {"note": 70, "velocity": 79, "duration": 840}, {"note": 0, "velocity": 0, "duration": 1440}, {"note": 67, "velocity": 85, "duration": 89}, {"note": 67, "velocity": 84, "duration": 73}, {"note": 67, "velocity": 85, "duration": 157}, {"note": 0, "velocity": 0, "duration": 83}, {"note": 67, "velocity": 80, "duration": 65}, {"note": 67, "velocity": 85, "duration": 341}, {"note": 63, "velocity": 86, "duration": 164}, {"note": 0, "velocity": 0, "duration": 76}, {"note": 67, "velocity": 87, "duration": 63}, {"note": 67, "velocity": 79, "duration": 240}, {"note": 65, "velocity": 84, "duration": 1051}, {"note": 0, "velocity": 0, "duration": 869}, {"note": 72, "velocity": 88, "duration": 99}, {"note": 77, "velocity": 86, "duration": 71}, {"note": 72, "velocity": 87, "duration": 57}, {"note": 0, "velocity": 0, "duration": 63}, {"note": 72, "velocity": 86, "duration": 63}, {"note": 72, "velocity": 85, "duration": 75}, {"note": 72, "velocity": 88, "duration": 158}, {"note": 0, "velocity": 0, "duration": 82}, {"note": 68, "velocity": 85, "duration": 78}, {"note": 65, "velocity": 90, "duration": 480}, {"note": 60, "velocity": 86, "duration": 58}, {"note": 0, "velocity": 0, "duration": 62}, {"note": 60, "velocity": 86, "duration": 91}, {"note": 72, "velocity": 86, "duration": 244}, {"note": 70, "velocity": 86, "duration": 878}, {"note": 0, "velocity": 0, "duration": 1042}, {"note": 70, "velocity": 85, "duration": 91}, {"note": 75, "velocity": 77, "duration": 79}, {"note": 75, "velocity": 88, "duration": 56}, {"note": 0, "velocity": 0, "duration": 64}, {"note": 75, "velocity": 88, "duration": 63}, {"note": 75, "velocity": 86, "duration": 65}, {"note": 75, "velocity": 90, "duration": 182}, {"note": 75, "velocity": 85, "duration": 62}, {"note": 75, "velocity": 89, "duration": 249}, {"note": 0, "velocity": 0, "duration": 111}, {"note": 77, "velocity": 90, "duration": 240}, {"note": 79, "velocity": 85, "duration": 68}, {"note": 79, "velocity": 86, "duration": 233}, {"note": 72, "velocity": 93, "duration": 839}, {"note": 0, "velocity": 0, "duration": 1081}, {"note": 72, "velocity": 88, "duration": 99}, {"note": 77, "velocity": 86, "duration": 71}, {"note": 72, "velocity": 87, "duration": 57}, {"note": 0, "velocity": 0, "duration": 63}, {"note": 72, "velocity": 86, "duration": 63}, {"note": 72, "velocity": 85, "duration": 75}, {"note": 72, "velocity": 88, "duration": 158}, {"note": 0, "velocity": 0, "duration": 82}, {"note": 68, "velocity": 85, "duration": 78}, {"note": 65, "velocity": 90, "duration": 480}, {"note": 60, "velocity": 86, "duration": 58}, {"note": 0, "velocity": 0, "duration": 62}, {"note": 60, "velocity": 86, "duration": 91}, {"note": 72, "velocity": 86, "duration": 244}, {"note": 70, "velocity": 86, "duration": 878}, {"note": 0, "velocity": 0, "duration": 1402}, {"note": 70, "velocity": 84, "duration": 68}, {"note": 70, "velocity": 84, "duration": 71}, {"note": 70, "velocity": 86, "duration": 180}, {"note": 70, "velocity": 85, "duration": 67}, {"note": 70, "velocity": 86, "duration": 285}, {"note": 0, "velocity": 0, "duration": 75}, {"note": 63, "velocity": 87, "duration": 183}, {"note": 67, "velocity": 76, "duration": 75}, {"note": 67, "velocity": 84, "duration": 192}, {"note": 65, "velocity": 89, "duration": 1552}, {"note": 0, "velocity": 0, "duration": 368}, {"note": 72, "velocity": 88, "duration": 99}, {"note": 77, "velocity": 86, "duration": 71}, {"note": 72, "velocity": 87, "duration": 57}, {"note": 0, "velocity": 0, "duration": 63}, {"note": 72, "velocity": 86, "duration": 63}, {"note": 72, "velocity": 85, "duration": 75}, {"note": 72, "velocity": 88, "duration": 158}, {"note": 0, "velocity": 0, "duration": 82}, {"note": 68, "velocity": 85, "duration": 78}, {"note": 65, "velocity": 90, "duration": 480}, {"note": 60, "velocity": 86, "duration": 58}, {"note": 0, "velocity": 0, "duration": 62}, {"note": 60, "velocity": 86, "duration": 91}, {"note": 72, "velocity": 86, "duration": 244}, {"note": 70, "velocity": 86, "duration": 878}, {"note": 0, "velocity": 0, "duration": 1042}, {"note": 70, "velocity": 85, "duration": 91}, {"note": 75, "velocity": 77, "duration": 79}, {"note": 75, "velocity": 88, "duration": 56}, {"note": 0, "velocity": 0, "duration": 64}, {"note": 75, "velocity": 88, "duration": 63}, {"note": 75, "velocity": 86, "duration": 65}, {"note": 75, "velocity": 90, "duration": 182}, {"note": 75, "velocity": 85, "duration": 62}, {"note": 75, "velocity": 89, "duration": 249}, {"note": 0, "velocity": 0, "duration": 111}, {"note": 77, "velocity": 90, "duration": 240}, {"note": 79, "velocity": 85, "duration": 68}, {"note": 79, "velocity": 86, "duration": 233}, {"note": 72, "velocity": 93, "duration": 839}, {"note": 0, "velocity": 0, "duration": 1081}, {"note": 72, "velocity": 88, "duration": 99}, {"note": 77, "velocity": 86, "duration": 71}, {"note": 72, "velocity": 87, "duration": 57}, {"note": 0, "velocity": 0, "duration": 63}, {"note": 72, "velocity": 86, "duration": 63}, {"note": 72, "velocity": 85, "duration": 75}, {"note": 72, "velocity": 88, "duration": 158}, {"note": 0, "velocity": 0, "duration": 82}, {"note": 68, "velocity": 85, "duration": 78}, {"note": 65, "velocity": 90, "duration": 480}, {"note": 60, "velocity": 86, "duration": 58}, {"note": 0, "velocity": 0, "duration": 62}, {"note": 60, "velocity": 86, "duration": 91}, {"note": 72, "velocity": 86, "duration": 244}, {"note": 70, "velocity": 86, "duration": 878}, {"note": 0, "velocity": 0, "duration": 1402}, {"note": 70, "velocity": 84, "duration": 68}, {"note": 70, "velocity": 84, "duration": 71}, {"note": 70, "velocity": 86, "duration": 180}, {"note": 70, "velocity": 85, "duration": 67}, {"note": 70, "velocity": 86, "duration": 285}, {"note": 0, "velocity": 0, "duration": 75}, {"note": 63, "velocity": 87, "duration": 183}, {"note": 67, "velocity": 76, "duration": 75}, {"note": 67, "velocity": 84, "duration": 192}, {"note": 65, "velocity": 89, "duration": 1552}]]