[[{"note": 69, "velocity": 89, "duration": 146}, {"note": 0, "velocity": 0, "duration": 94}, {"note": 71, "velocity": 89, "duration": 208}, {"note": 67, "velocity": 92, "duration": 374}, {"note": 0, "velocity": 0, "duration": 106}, {"note": 69, "velocity": 94, "duration": 180}, {"note": 71, "velocity": 93, "duration": 194}, {"note": 67, "velocity": 95, "duration": 364}, {"note": 0, "velocity": 0, "duration": 116}, {"note": 69, "velocity": 90, "duration": 151}, {"note": 0, "velocity": 0, "duration": 89}, {"note": 71, "velocity": 95, "duration": 177}, {"note": 0, "velocity": 0, "duration": 63}, {"note": 74, "velocity": 100, "duration": 397}, {"note": 0, "velocity": 0, "duration": 83}, {"note": 74, "velocity": 99, "duration": 174}, {"note": 0, "velocity": 0, "duration": 66}, {"note": 76, "velocity": 99, "duration": 165}, {"note": 0, "velocity": 0, "duration": 75}, {"note": 67, "velocity": 93, "duration": 394}, {"note": 0, "velocity": 0, "duration": 86}, {"note": 64, "velocity": 93, "duration": 168}, {"note": 0, "velocity": 0, "duration": 72}, {"note": 67, "velocity": 93, "duration": 151}, {"note": 0, "velocity": 0, "duration": 89}, {"note": 69, "velocity": 93, "duration": 388}, {"note": 0, "velocity": 0, "duration": 92}, {"note": 69, "velocity": 95, "duration": 202}, {"note": 67, "velocity": 93, "duration": 231}, {"note": 64, "velocity": 93, "duration": 412}, {"note": 0, "velocity": 0, "duration": 68}, {"note": 64, "velocity": 97, "duration": 177}, {"note": 0, "velocity": 0, "duration": 63}, {"note": 67, "velocity": 93, "duration": 169}, {"note": 0, "velocity": 0, "duration": 71}, {"note": 69, "velocity": 94, "duration": 172}, {"note": 0, "velocity": 0, "duration": 68}, {"note": 71, "velocity": 92, "duration": 194}, {"note": 69, "velocity": 94, "duration": 183}, {"note": 67, "velocity": 89, "duration": 196}, {"note": 69, "velocity": 97, "duration": 421}, {"note": 71, "velocity": 94, "duration": 169}, {"note": 0, "velocity": 0, "duration": 71}, {"note": 69, "velocity": 93, "duration": 200}, {"note": 67, "velocity": 93, "duration": 420}, {"note": 69, "velocity": 94, "duration": 163}, {"note": 0, "velocity": 0, "duration": 77}, {"note": 71, "velocity": 95, "duration": 185}, {"note": 67, "velocity": 92, "duration": 429}, {"note": 69, "velocity": 95, "duration": 163}, {"note": 0, "velocity": 0, "duration": 77}, {"note": 71, "velocity": 94, "duration": 229}, {"note": 74, "velocity": 99, "duration": 181}, {"note": 0, "velocity": 0, "duration": 299}, {"note": 74, "velocity": 99, "duration": 164}, {"note": 0, "velocity": 0, "duration": 76}, {"note": 76, "velocity": 95, "duration": 150}, {"note": 0, "velocity": 0, "duration": 90}, {"note": 67, "velocity": 93, "duration": 441}, {"note": 64, "velocity": 92, "duration": 180}, {"note": 67, "velocity": 90, "duration": 174}, {"note": 0, "velocity": 0, "duration": 66}, {"note": 69, "velocity": 91, "duration": 417}, {"note": 0, "velocity": 0, "duration": 63}, {"note": 69, "velocity": 93, "duration": 177}, {"note": 0, "velocity": 0, "duration": 63}, {"note": 67, "velocity": 89, "duration": 233}, {"note": 64, "velocity": 95, "duration": 421}, {"note": 62, "velocity": 94, "duration": 171}, {"note": 0, "velocity": 0, "duration": 69}, {"note": 64, "velocity": 94, "duration": 455}, {"note": 67, "velocity": 93, "duration": 1099}, {"note": 0, "velocity": 0, "duration": 101}, {"note": 71, "velocity": 97, "duration": 174}, {"note": 0, "velocity": 0, "duration": 66}, {"note": 74, "velocity": 102, "duration": 168}, {"note": 0, "velocity": 0, "duration": 72}, {"note": 74, "velocity": 100, "duration": 173}, {"note": 0, "velocity": 0, "duration": 67}, {"note": 74, "velocity": 99, "duration": 211}, {"note": 74, "velocity": 94, "duration": 159}, {"note": 0, "velocity": 0, "duration": 81}, {"note": 76, "velocity": 94, "duration": 157}, {"note": 0, "velocity": 0, "duration": 83}, {"note": 74, "velocity": 100, "duration": 391}, {"note": 0, "velocity": 0, "duration": 89}, {"note": 76, "velocity": 95, "duration": 157}, {"note": 0, "velocity": 0, "duration": 83}, {"note": 78, "velocity": 99, "duration": 184}, {"note": 79, "velocity": 92, "duration": 197}, {"note": 76, "velocity": 97, "duration": 165}, {"note": 0, "velocity": 0, "duration": 75}, {"note": 76, "velocity": 95, "duration": 192}, {"note": 74, "velocity": 100, "duration": 217}, {"note": 71, "velocity": 95, "duration": 379}, {"note": 0, "velocity": 0, "duration": 101}, {"note": 71, "velocity": 94, "duration": 168}, {"note": 0, "velocity": 0, "duration": 72}, {"note": 69, "velocity": 94, "duration": 180}, {"note": 67, "velocity": 93, "duration": 412}, {"note": 0, "velocity": 0, "duration": 68}, {"note": 67, "velocity": 95, "duration": 197}, {"note": 76, "velocity": 94, "duration": 182}, {"note": 74, "velocity": 99, "duration": 398}, {"note": 0, "velocity": 0, "duration": 82}, {"note": 71, "velocity": 93, "duration": 184}, {"note": 69, "velocity": 97, "duration": 162}, {"note": 0, "velocity": 0, "duration": 78}, {"note": 67, "velocity": 90, "duration": 391}, {"note": 0, "velocity": 0, "duration": 89}, {"note": 67, "velocity": 94, "duration": 100}, {"note": 64, "velocity": 97, "duration": 225}, {"note": 69, "velocity": 87, "duration": 68}, {"note": 69, "velocity": 95, "duration": 406}, {"note": 0, "velocity": 0, "duration": 74}, {"note": 71, "velocity": 97, "duration": 174}, {"note": 0, "velocity": 0, "duration": 66}, {"note": 74, "velocity": 102, "duration": 168}, {"note": 0, "velocity": 0, "duration": 72}, {"note": 74, "velocity": 100, "duration": 173}, {"note": 0, "velocity": 0, "duration": 67}, {"note": 74, "velocity": 99, "duration": 211}, {"note": 74, "velocity": 94, "duration": 159}, {"note": 0, "velocity": 0, "duration": 81}, {"note": 76, "velocity": 94, "duration": 157}, {"note": 0, "velocity": 0, "duration": 83}, {"note": 74, "velocity": 100, "duration": 391}, {"note": 0, "velocity": 0, "duration": 89}, {"note": 76, "velocity": 95, "duration": 157}, {"note": 0, "velocity": 0, "duration": 83}, {"note": 78, "velocity": 99, "duration": 184}, {"note": 79, "velocity": 92, "duration": 197}, {"note": 76, "velocity": 97, "duration": 165}, {"note": 0, "velocity": 0, "duration": 75}, {"note": 76, "velocity": 95, "duration": 192}, {"note": 74, "velocity": 100, "duration": 217}, {"note": 71, "velocity": 95, "duration": 379}, {"note": 0, "velocity": 0, "duration": 101}, {"note": 71, "velocity": 94, "duration": 168}, {"note": 0, "velocity": 0, "duration": 72}, {"note": 69, "velocity": 94, "duration": 180}, {"note": 67, "velocity": 93, "duration": 412}, {"note": 0, "velocity": 0, "duration": 68}, {"note": 67, "velocity": 95, "duration": 197}, {"note": 76, "velocity": 94, "duration": 182}, {"note": 74, "velocity": 99, "duration": 398}, {"note": 0, "velocity": 0, "duration": 82}, {"note": 71, "velocity": 93, "duration": 184}, {"note": 69, "velocity": 97, "duration": 162}, {"note": 0, "velocity": 0, "duration": 78}, {"note": 67, "velocity": 90, "duration": 391}, {"note": 0, "velocity": 0, "duration": 89}, {"note": 64, "velocity": 98, "duration": 185}, {"note": 67, "velocity": 94, "duration": 184}, {"note": 67, "velocity": 94, "duration": 1183}, {"note": 0, "velocity": 0, "duration": 17537}, {"note": 69, "velocity": 89, "duration": 146}, {"note": 0, "velocity": 0, "duration": 94}, {"note": 71, "velocity": 89, "duration": 208}, {"note": 67, "velocity": 92, "duration": 374}, {"note": 0, "velocity": 0, "duration": 106}, {"note": 69, "velocity": 94, "duration": 180}, {"note": 71, "velocity": 93, "duration": 194}, {"note": 67, "velocity": 95, "duration": 364}, {"note": 0, "velocity": 0, "duration": 116}, {"note": 69, "velocity": 90, "duration": 151}, {"note": 0, "velocity": 0, "duration": 89}, {"note": 71, "velocity": 95, "duration": 177}, {"note": 0, "velocity": 0, "duration": 63}, {"note": 74, "velocity": 100, "duration": 397}, {"note": 0, "velocity": 0, "duration": 83}, {"note": 74, "velocity": 99, "duration": 174}, {"note": 0, "velocity": 0, "duration": 66}, {"note": 76, "velocity": 99, "duration": 165}, {"note": 0, "velocity": 0, "duration": 75}, {"note": 67, "velocity": 93, "duration": 394}, {"note": 0, "velocity": 0, "duration": 86}, {"note": 64, "velocity": 93, "duration": 168}, {"note": 0, "velocity": 0, "duration": 72}, {"note": 67, "velocity": 93, "duration": 151}, {"note": 0, "velocity": 0, "duration": 89}, {"note": 69, "velocity": 93, "duration": 388}, {"note": 0, "velocity": 0, "duration": 92}, {"note": 69, "velocity": 95, "duration": 202}, {"note": 67, "velocity": 93, "duration": 231}, {"note": 64, "velocity": 93, "duration": 412}, {"note": 0, "velocity": 0, "duration": 68}, {"note": 64, "velocity": 97, "duration": 177}, {"note": 0, "velocity": 0, "duration": 63}, {"note": 67, "velocity": 93, "duration": 169}, {"note": 0, "velocity": 0, "duration": 71}, {"note": 69, "velocity": 94, "duration": 172}, {"note": 0, "velocity": 0, "duration": 68}, {"note": 71, "velocity": 92, "duration": 194}, {"note": 69, "velocity": 94, "duration": 183}, {"note": 67, "velocity": 89, "duration": 196}, {"note": 69, "velocity": 97, "duration": 421}, {"note": 71, "velocity": 94, "duration": 169}, {"note": 0, "velocity": 0, "duration": 71}, {"note": 69, "velocity": 93, "duration": 200}, {"note": 67, "velocity": 93, "duration": 420}, {"note": 69, "velocity": 94, "duration": 163}, {"note": 0, "velocity": 0, "duration": 77}, {"note": 71, "velocity": 95, "duration": 185}, {"note": 67, "velocity": 92, "duration": 429}, {"note": 69, "velocity": 95, "duration": 163}, {"note": 0, "velocity": 0, "duration": 77}, {"note": 71, "velocity": 94, "duration": 229}, {"note": 74, "velocity": 99, "duration": 181}, {"note": 0, "velocity": 0, "duration": 299}, {"note": 74, "velocity": 99, "duration": 164}, {"note": 0, "velocity": 0, "duration": 76}, {"note": 76, "velocity": 95, "duration": 150}, {"note": 0, "velocity": 0, "duration": 90}, {"note": 67, "velocity": 93, "duration": 441}, {"note": 64, "velocity": 92, "duration": 180}, {"note": 67, "velocity": 90, "duration": 174}, {"note": 0, "velocity": 0, "duration": 66}, {"note": 69, "velocity": 91, "duration": 417}, {"note": 0, "velocity": 0, "duration": 63}, {"note": 69, "velocity": 93, "duration": 177}, {"note": 0, "velocity": 0, "duration": 63}, {"note": 67, "velocity": 89, "duration": 233}, {"note": 64, "velocity": 95, "duration": 421}, {"note": 62, "velocity": 94, "duration": 171}, {"note": 0, "velocity": 0, "duration": 69}, {"note": 64, "velocity": 94, "duration": 455}, {"note": 67, "velocity": 93, "duration": 1099}, {"note": 0, "velocity": 0, "duration": 101}, {"note": 71, "velocity": 97, "duration": 174}, {"note": 0, "velocity": 0, "duration": 66}, {"note": 74, "velocity": 102, "duration": 168}, {"note": 0, "velocity": 0, "duration": 72}, {"note": 74, "velocity": 100, "duration": 173}, {"note": 0, "velocity": 0, "duration": 67}, {"note": 74, "velocity": 99, "duration": 211}, {"note": 74, "velocity": 94, "duration": 159}, {"note": 0, "velocity": 0, "duration": 81}, {"note": 76, "velocity": 94, "duration": 157}, {"note": 0, "velocity": 0, "duration": 83}, {"note": 74, "velocity": 100, "duration": 391}, {"note": 0, "velocity": 0, "duration": 89}, {"note": 76, "velocity": 95, "duration": 157}, {"note": 0, "velocity": 0, "duration": 83}, {"note": 78, "velocity": 99, "duration": 184}, {"note": 79, "velocity": 92, "duration": 197}, {"note": 76, "velocity": 97, "duration": 165}, {"note": 0, "velocity": 0, "duration": 75}, {"note": 76, "velocity": 95, "duration": 192}, {"note": 74, "velocity": 100, "duration": 217}, {"note": 71, "velocity": 95, "duration": 379}, {"note": 0, "velocity": 0, "duration": 101}, {"note": 71, "velocity": 94, "duration": 168}, {"note": 0, "velocity": 0, "duration": 72}, {"note": 69, "velocity": 94, "duration": 180}, {"note": 67, "velocity": 93, "duration": 412}, {"note": 0, "velocity": 0, "duration": 68}, {"note": 67, "velocity": 95, "duration": 197}, {"note": 76, "velocity": 94, "duration": 182}, {"note": 74, "velocity": 99, "duration": 398}, {"note": 0, "velocity": 0, "duration": 82}, {"note": 71, "velocity": 93, "duration": 184}, {"note": 69, "velocity": 97, "duration": 162}, {"note": 0, "velocity": 0, "duration": 78}, {"note": 67, "velocity": 90, "duration": 391}, {"note": 0, "velocity": 0, "duration": 89}, {"note": 67, "velocity": 94, "duration": 100}, {"note": 64, "velocity": 97, "duration": 225}, {"note": 69, "velocity": 87, "duration": 68}, {"note": 69, "velocity": 95, "duration": 406}, {"note": 0, "velocity": 0, "duration": 74}, {"note": 71, "velocity": 97, "duration": 174}, {"note": 0, "velocity": 0, "duration": 66}, {"note": 74, "velocity": 102, "duration": 168}, {"note": 0, "velocity": 0, "duration": 72}, {"note": 74, "velocity": 100, "duration": 173}, {"note": 0, "velocity": 0, "duration": 67}, {"note": 74, "velocity": 99, "duration": 211}, {"note": 74, "velocity": 94, "duration": 159}, {"note": 0, "velocity": 0, "duration": 81}, {"note": 76, "velocity": 94, "duration": 157}, {"note": 0, "velocity": 0, "duration": 83}, {"note": 74, "velocity": 100, "duration": 391}, {"note": 0, "velocity": 0, "duration": 89}, {"note": 76, "velocity": 95, "duration": 157}, {"note": 0, "velocity": 0, "duration": 83}, {"note": 78, "velocity": 99, "duration": 184}, {"note": 79, "velocity": 92, "duration": 197}, {"note": 76, "velocity": 97, "duration": 165}, {"note": 0, "velocity": 0, "duration": 75}, {"note": 76, "velocity": 95, "duration": 192}, {"note": 74, "velocity": 100, "duration": 217}, {"note": 71, "velocity": 95, "duration": 379}, {"note": 0, "velocity": 0, "duration": 101}, {"note": 71, "velocity": 94, "duration": 168}, {"note": 0, "velocity": 0, "duration": 72}, {"note": 69, "velocity": 94, "duration": 180}, {"note": 67, "velocity": 93, "duration": 412}, {"note": 0, "velocity": 0, "duration": 68}, {"note": 67, "velocity": 95, "duration": 197}, {"note": 76, "velocity": 94, "duration": 182}, {"note": 74, "velocity": 99, "duration": 398}, {"note": 0, "velocity": 0, "duration": 82}, {"note": 71, "velocity": 93, "duration": 184}, {"note": 69, "velocity": 97, "duration": 162}, {"note": 0, "velocity": 0, "duration": 78}, {"note": 67, "velocity": 90, "duration": 391}, {"note": 0, "velocity": 0, "duration": 89}, {"note": 64, "velocity": 98, "duration": 185}, {"note": 67, "velocity": 94, "duration": 184}, {"note": 67, "velocity": 94, "duration": 1183}, {"note": 0, "velocity": 0, "duration": 257}, {"note": 71, "velocity": 97, "duration": 174}, {"note": 0, "velocity": 0, "duration": 66}, {"note": 74, "velocity": 102, "duration": 168}, {"note": 0, "velocity": 0, "duration": 72}, {"note": 74, "velocity": 100, "duration": 173}, {"note": 0, "velocity": 0, "duration": 67}, {"note": 74, "velocity": 99, "duration": 211}, {"note": 74, "velocity": 94, "duration": 159}, {"note": 0, "velocity": 0, "duration": 81}, {"note": 76, "velocity": 94, "duration": 157}, {"note": 0, "velocity": 0, "duration": 83}, {"note": 74, "velocity": 100, "duration": 391}, {"note": 0, "velocity": 0, "duration": 89}, {"note": 76, "velocity": 95, "duration": 157}, {"note": 0, "velocity": 0, "duration": 83}, {"note": 78, "velocity": 99, "duration": 184}, {"note": 79, "velocity": 92, "duration": 197}, {"note": 76, "velocity": 97, "duration": 165}, {"note": 0, "velocity": 0, "duration": 75}, {"note": 76, "velocity": 95, "duration": 192}, {"note": 74, "velocity": 100, "duration": 217}, {"note": 71, "velocity": 95, "duration": 379}, {"note": 0, "velocity": 0, "duration": 101}, {"note": 71, "velocity": 94, "duration": 168}, {"note": 0, "velocity": 0, "duration": 72}, {"note": 69, "velocity": 94, "duration": 180}, {"note": 67, "velocity": 93, "duration": 412}, {"note": 0, "velocity": 0, "duration": 68}, {"note": 67, "velocity": 95, "duration": 197}, {"note": 76, "velocity": 94, "duration": 182}, {"note": 74, "velocity": 99, "duration": 398}, {"note": 0, "velocity": 0, "duration": 82}, {"note": 71, "velocity": 93, "duration": 184}, {"note": 69, "velocity": 97, "duration": 162}, {"note": 0, "velocity": 0, "duration": 78}, {"note": 67, "velocity": 90, "duration": 391}, {"note": 0, "velocity": 0, "duration": 89}, {"note": 67, "velocity": 94, "duration": 100}, {"note": 64, "velocity": 97, "duration": 225}, {"note": 69, "velocity": 87, "duration": 68}, {"note": 69, "velocity": 95, "duration": 406}, {"note": 0, "velocity": 0, "duration": 74}, {"note": 71, "velocity": 97, "duration": 174}, {"note": 0, "velocity": 0, "duration": 66}, {"note": 74, "velocity": 102, "duration": 168}, {"note": 0, "velocity": 0, "duration": 72}, {"note": 74, "velocity": 100, "duration": 173}, {"note": 0, "velocity": 0, "duration": 67}, {"note": 74, "velocity": 99, "duration": 211}, {"note": 74, "velocity": 94, "duration": 159}, {"note": 0, "velocity": 0, "duration": 81}, {"note": 76, "velocity": 94, "duration": 157}, {"note": 0, "velocity": 0, "duration": 83}, {"note": 74, "velocity": 100, "duration": 391}, {"note": 0, "velocity": 0, "duration": 89}, {"note": 76, "velocity": 95, "duration": 157}, {"note": 0, "velocity": 0, "duration": 83}, {"note": 78, "velocity": 99, "duration": 184}, {"note": 79, "velocity": 92, "duration": 197}, {"note": 76, "velocity": 97, "duration": 165}, {"note": 0, "velocity": 0, "duration": 75}, {"note": 76, "velocity": 95, "duration": 192}, {"note": 74, "velocity": 100, "duration": 217}, {"note": 71, "velocity": 95, "duration": 379}, {"note": 0, "velocity": 0, "duration": 101}, {"note": 71, "velocity": 94, "duration": 168}, {"note": 0, "velocity": 0, "duration": 72}, {"note": 69, "velocity": 94, "duration": 180}, {"note": 67, "velocity": 93, "duration": 412}, {"note": 0, "velocity": 0, "duration": 68}, {"note": 67, "velocity": 95, "duration": 197}, {"note": 76, "velocity": 94, "duration": 182}, {"note": 74, "velocity": 99, "duration": 398}, {"note": 0, "velocity": 0, "duration": 82}, {"note": 71, "velocity": 93, "duration": 184}, {"note": 69, "velocity": 97, "duration": 162}, {"note": 0, "velocity": 0, "duration": 78}, {"note": 67, "velocity": 90, "duration": 391}, {"note": 0, "velocity": 0, "duration": 89}, {"note": 64, "velocity": 98, "duration": 185}, {"note": 67, "velocity": 94, "duration": 184}, {"note": 67, "velocity": 94, "duration": 1183}, {"note": 0, "velocity": 0, "duration": 1217}, {"note": 72, "velocity": 97, "duration": 174}, {"note": 0, "velocity": 0, "duration": 66}, {"note": 75, "velocity": 102, "duration": 168}, {"note": 0, "velocity": 0, "duration": 72}, {"note": 75, "velocity": 100, "duration": 173}, {"note": 0, "velocity": 0, "duration": 67}, {"note": 75, "velocity": 99, "duration": 211}, {"note": 75, "velocity": 94, "duration": 159}, {"note": 0, "velocity": 0, "duration": 81}, {"note": 77, "velocity": 94, "duration": 157}, {"note": 0, "velocity": 0, "duration": 83}, {"note": 75, "velocity": 100, "duration": 391}, {"note": 0, "velocity": 0, "duration": 89}, {"note": 77, "velocity": 95, "duration": 157}, {"note": 0, "velocity": 0, "duration": 83}, {"note": 79, "velocity": 99, "duration": 184}, {"note": 80, "velocity": 92, "duration": 197}, {"note": 77, "velocity": 97, "duration": 165}, {"note": 0, "velocity": 0, "duration": 75}, {"note": 77, "velocity": 95, "duration": 192}, {"note": 75, "velocity": 100, "duration": 217}, {"note": 72, "velocity": 95, "duration": 379}, {"note": 0, "velocity": 0, "duration": 101}, {"note": 72, "velocity": 94, "duration": 168}, {"note": 0, "velocity": 0, "duration": 72}, {"note": 70, "velocity": 94, "duration": 180}, {"note": 68, "velocity": 93, "duration": 412}, {"note": 0, "velocity": 0, "duration": 68}, {"note": 68, "velocity": 95, "duration": 197}, {"note": 77, "velocity": 94, "duration": 182}, {"note": 75, "velocity": 99, "duration": 398}, {"note": 0, "velocity": 0, "duration": 82}, {"note": 72, "velocity": 93, "duration": 184}, {"note": 70, "velocity": 97, "duration": 162}, {"note": 0, "velocity": 0, "duration": 78}, {"note": 68, "velocity": 90, "duration": 391}, {"note": 0, "velocity": 0, "duration": 89}, {"note": 68, "velocity": 94, "duration": 100}, {"note": 65, "velocity": 97, "duration": 225}, {"note": 70, "velocity": 87, "duration": 68}, {"note": 70, "velocity": 95, "duration": 406}, {"note": 0, "velocity": 0, "duration": 74}, {"note": 72, "velocity": 97, "duration": 174}, {"note": 0, "velocity": 0, "duration": 66}, {"note": 75, "velocity": 102, "duration": 168}, {"note": 0, "velocity": 0, "duration": 72}, {"note": 75, "velocity": 100, "duration": 173}, {"note": 0, "velocity": 0, "duration": 67}, {"note": 75, "velocity": 99, "duration": 211}, {"note": 75, "velocity": 94, "duration": 159}, {"note": 0, "velocity": 0, "duration": 81}, {"note": 77, "velocity": 94, "duration": 157}, {"note": 0, "velocity": 0, "duration": 83}, {"note": 75, "velocity": 100, "duration": 391}, {"note": 0, "velocity": 0, "duration": 89}, {"note": 77, "velocity": 95, "duration": 157}, {"note": 0, "velocity": 0, "duration": 83}, {"note": 79, "velocity": 99, "duration": 184}, {"note": 80, "velocity": 92, "duration": 197}, {"note": 77, "velocity": 97, "duration": 165}, {"note": 0, "velocity": 0, "duration": 75}, {"note": 77, "velocity": 95, "duration": 192}, {"note": 75, "velocity": 100, "duration": 217}, {"note": 72, "velocity": 95, "duration": 379}, {"note": 0, "velocity": 0, "duration": 101}, {"note": 72, "velocity": 94, "duration": 168}, {"note": 0, "velocity": 0, "duration": 72}, {"note": 70, "velocity": 94, "duration": 180}, {"note": 68, "velocity": 93, "duration": 412}, {"note": 0, "velocity": 0, "duration": 68}, {"note": 68, "velocity": 95, "duration": 197}, {"note": 77, "velocity": 94, "duration": 182}, {"note": 75, "velocity": 99, "duration": 398}, {"note": 0, "velocity": 0, "duration": 82}, {"note": 72, "velocity": 93, "duration": 184}, {"note": 70, "velocity": 97, "duration": 162}, {"note": 0, "velocity": 0, "duration": 78}, {"note": 68, "velocity": 90, "duration": 391}, {"note": 0, "velocity": 0, "duration": 89}, {"note": 65, "velocity": 98, "duration": 185}, {"note": 68, "velocity": 94, "duration": 184}, {"note": 68, "velocity": 94, "duration": 1183}, {"note": 0, "velocity": 0, "duration": 257}, {"note": 72, "velocity": 94, "duration": 168}, {"note": 0, "velocity": 0, "duration": 72}, {"note": 70, "velocity": 94, "duration": 180}, {"note": 68, "velocity": 93, "duration": 412}, {"note": 0, "velocity": 0, "duration": 68}, {"note": 68, "velocity": 95, "duration": 197}, {"note": 77, "velocity": 94, "duration": 182}, {"note": 75, "velocity": 99, "duration": 398}, {"note": 0, "velocity": 0, "duration": 82}, {"note": 72, "velocity": 93, "duration": 184}, {"note": 70, "velocity": 97, "duration": 162}, {"note": 0, "velocity": 0, "duration": 78}, {"note": 68, "velocity": 90, "duration": 1078}, {"note": 0, "velocity": 0, "duration": 422}, {"note": 65, "velocity": 96, "duration": 166}, {"note": 68, "velocity": 96, "duration": 286}, {"note": 68, "velocity": 100, "duration": 2208}]]