[[{"note": 60, "velocity": 104, "duration": 298}, {"note": 62, "velocity": 102, "duration": 240}, {"note": 69, "velocity": 114, "duration": 479}, {"note": 69, "velocity": 110, "duration": 240}, {"note": 67, "velocity": 100, "duration": 120}, {"note": 69, "velocity": 107, "duration": 840}, {"note": 67, "velocity": 104, "duration": 120}, {"note": 69, "velocity": 93, "duration": 120}, {"note": 72, "velocity": 113, "duration": 479}, {"note": 72, "velocity": 108, "duration": 240}, {"note": 74, "velocity": 113, "duration": 120}, {"note": 72, "velocity": 91, "duration": 840}, {"note": 69, "velocity": 107, "duration": 120}, {"note": 72, "velocity": 100, "duration": 120}, {"note": 74, "velocity": 116, "duration": 479}, {"note": 74, "velocity": 119, "duration": 240}, {"note": 72, "velocity": 113, "duration": 120}, {"note": 74, "velocity": 117, "duration": 360}, {"note": 72, "velocity": 104, "duration": 240}, {"note": 69, "velocity": 104, "duration": 120}, {"note": 67, "velocity": 102, "duration": 240}, {"note": 65, "velocity": 108, "duration": 120}, {"note": 67, "velocity": 107, "duration": 720}, {"note": 69, "velocity": 108, "duration": 240}, {"note": 67, "velocity": 113, "duration": 720}, {"note": 69, "velocity": 107, "duration": 120}, {"note": 67, "velocity": 100, "duration": 120}, {"note": 65, "velocity": 107, "duration": 479}, {"note": 65, "velocity": 113, "duration": 240}, {"note": 67, "velocity": 113, "duration": 120}, {"note": 69, "velocity": 108, "duration": 840}, {"note": 74, "velocity": 110, "duration": 120}, {"note": 77, "velocity": 113, "duration": 120}, {"note": 76, "velocity": 119, "duration": 479}, {"note": 76, "velocity": 114, "duration": 240}, {"note": 74, "velocity": 108, "duration": 124}, {"note": 72, "velocity": 102, "duration": 839}, {"note": 72, "velocity": 102, "duration": 120}, {"note": 69, "velocity": 102, "duration": 120}, {"note": 67, "velocity": 108, "duration": 719}, {"note": 67, "velocity": 107, "duration": 120}, {"note": 69, "velocity": 108, "duration": 123}, {"note": 67, "velocity": 114, "duration": 720}, {"note": 65, "velocity": 110, "duration": 240}, {"note": 67, "velocity": 116, "duration": 1440}, {"note": 60, "velocity": 104, "duration": 298}, {"note": 62, "velocity": 102, "duration": 240}, {"note": 69, "velocity": 114, "duration": 479}, {"note": 69, "velocity": 110, "duration": 240}, {"note": 67, "velocity": 100, "duration": 120}, {"note": 69, "velocity": 107, "duration": 840}, {"note": 67, "velocity": 104, "duration": 120}, {"note": 69, "velocity": 93, "duration": 120}, {"note": 72, "velocity": 113, "duration": 479}, {"note": 72, "velocity": 108, "duration": 240}, {"note": 74, "velocity": 113, "duration": 120}, {"note": 72, "velocity": 91, "duration": 840}, {"note": 69, "velocity": 107, "duration": 120}, {"note": 72, "velocity": 100, "duration": 120}, {"note": 74, "velocity": 116, "duration": 479}, {"note": 74, "velocity": 119, "duration": 240}, {"note": 72, "velocity": 113, "duration": 120}, {"note": 74, "velocity": 117, "duration": 360}, {"note": 72, "velocity": 104, "duration": 240}, {"note": 69, "velocity": 104, "duration": 120}, {"note": 67, "velocity": 102, "duration": 240}, {"note": 65, "velocity": 108, "duration": 120}, {"note": 67, "velocity": 107, "duration": 720}, {"note": 69, "velocity": 108, "duration": 240}, {"note": 67, "velocity": 113, "duration": 720}, {"note": 69, "velocity": 107, "duration": 120}, {"note": 67, "velocity": 100, "duration": 120}, {"note": 65, "velocity": 107, "duration": 479}, {"note": 65, "velocity": 113, "duration": 240}, {"note": 67, "velocity": 113, "duration": 120}, {"note": 69, "velocity": 108, "duration": 840}, {"note": 74, "velocity": 110, "duration": 120}, {"note": 77, "velocity": 113, "duration": 120}, {"note": 76, "velocity": 119, "duration": 479}, {"note": 76, "velocity": 114, "duration": 240}, {"note": 74, "velocity": 108, "duration": 124}, {"note": 72, "velocity": 102, "duration": 839}, {"note": 72, "velocity": 102, "duration": 120}, {"note": 69, "velocity": 102, "duration": 120}, {"note": 67, "velocity": 108, "duration": 719}, {"note": 67, "velocity": 107, "duration": 120}, {"note": 69, "velocity": 108, "duration": 123}, {"note": 67, "velocity": 114, "duration": 240}, {"note": 65, "velocity": 113, "duration": 240}, {"note": 62, "velocity": 107, "duration": 120}, {"note": 65, "velocity": 113, "duration": 359}, {"note": 65, "velocity": 114, "duration": 1439}, {"note": 65, "velocity": 116, "duration": 143}, {"note": 67, "velocity": 116, "duration": 240}, {"note": 69, "velocity": 116, "duration": 120}, {"note": 72, "velocity": 114, "duration": 839}, {"note": 72, "velocity": 114, "duration": 120}, {"note": 74, "velocity": 117, "duration": 240}, {"note": 72, "velocity": 116, "duration": 240}, {"note": 69, "velocity": 113, "duration": 240}, {"note": 67, "velocity": 116, "duration": 240}, {"note": 69, "velocity": 114, "duration": 239}, {"note": 69, "velocity": 110, "duration": 239}, {"note": 69, "velocity": 113, "duration": 126}, {"note": 67, "velocity": 110, "duration": 240}, {"note": 65, "velocity": 107, "duration": 599}, {"note": 65, "velocity": 116, "duration": 124}, {"note": 67, "velocity": 114, "duration": 240}, {"note": 69, "velocity": 114, "duration": 120}, {"note": 77, "velocity": 117, "duration": 839}, {"note": 77, "velocity": 114, "duration": 120}, {"note": 79, "velocity": 116, "duration": 240}, {"note": 77, "velocity": 110, "duration": 240}, {"note": 74, "velocity": 113, "duration": 120}, {"note": 72, "velocity": 107, "duration": 240}, {"note": 69, "velocity": 113, "duration": 120}, {"note": 72, "velocity": 117, "duration": 1439}, {"note": 72, "velocity": 117, "duration": 240}, {"note": 74, "velocity": 119, "duration": 210}, {"note": 77, "velocity": 123, "duration": 720}, {"note": 79, "velocity": 117, "duration": 239}, {"note": 79, "velocity": 114, "duration": 240}, {"note": 77, "velocity": 119, "duration": 240}, {"note": 74, "velocity": 117, "duration": 240}, {"note": 72, "velocity": 116, "duration": 139}, {"note": 74, "velocity": 117, "duration": 359}, {"note": 74, "velocity": 114, "duration": 239}, {"note": 74, "velocity": 113, "duration": 127}, {"note": 72, "velocity": 114, "duration": 240}, {"note": 69, "velocity": 113, "duration": 600}, {"note": 72, "velocity": 114, "duration": 240}, {"note": 69, "velocity": 119, "duration": 240}, {"note": 67, "velocity": 119, "duration": 719}, {"note": 67, "velocity": 117, "duration": 120}, {"note": 69, "velocity": 114, "duration": 120}, {"note": 67, "velocity": 119, "duration": 720}, {"note": 62, "velocity": 116, "duration": 240}, {"note": 65, "velocity": 119, "duration": 1072}, {"note": 0, "velocity": 0, "duration": 17648}, {"note": 60, "velocity": 104, "duration": 298}, {"note": 62, "velocity": 102, "duration": 240}, {"note": 69, "velocity": 114, "duration": 479}, {"note": 69, "velocity": 110, "duration": 240}, {"note": 67, "velocity": 100, "duration": 120}, {"note": 69, "velocity": 107, "duration": 840}, {"note": 67, "velocity": 104, "duration": 120}, {"note": 69, "velocity": 93, "duration": 120}, {"note": 72, "velocity": 113, "duration": 479}, {"note": 72, "velocity": 108, "duration": 240}, {"note": 74, "velocity": 113, "duration": 120}, {"note": 72, "velocity": 91, "duration": 840}, {"note": 69, "velocity": 107, "duration": 120}, {"note": 72, "velocity": 100, "duration": 120}, {"note": 74, "velocity": 116, "duration": 479}, {"note": 74, "velocity": 119, "duration": 240}, {"note": 72, "velocity": 113, "duration": 120}, {"note": 74, "velocity": 117, "duration": 360}, {"note": 72, "velocity": 104, "duration": 240}, {"note": 69, "velocity": 104, "duration": 120}, {"note": 67, "velocity": 102, "duration": 240}, {"note": 65, "velocity": 108, "duration": 120}, {"note": 67, "velocity": 107, "duration": 720}, {"note": 69, "velocity": 108, "duration": 240}, {"note": 67, "velocity": 113, "duration": 720}, {"note": 69, "velocity": 107, "duration": 120}, {"note": 67, "velocity": 100, "duration": 120}, {"note": 65, "velocity": 107, "duration": 479}, {"note": 65, "velocity": 113, "duration": 240}, {"note": 67, "velocity": 113, "duration": 120}, {"note": 69, "velocity": 108, "duration": 840}, {"note": 74, "velocity": 110, "duration": 120}, {"note": 77, "velocity": 113, "duration": 120}, {"note": 76, "velocity": 119, "duration": 479}, {"note": 76, "velocity": 114, "duration": 240}, {"note": 74, "velocity": 108, "duration": 124}, {"note": 72, "velocity": 102, "duration": 839}, {"note": 72, "velocity": 102, "duration": 120}, {"note": 69, "velocity": 102, "duration": 120}, {"note": 67, "velocity": 108, "duration": 719}, {"note": 67, "velocity": 107, "duration": 120}, {"note": 69, "velocity": 108, "duration": 123}, {"note": 67, "velocity": 114, "duration": 240}, {"note": 65, "velocity": 113, "duration": 240}, {"note": 62, "velocity": 107, "duration": 120}, {"note": 65, "velocity": 113, "duration": 359}, {"note": 65, "velocity": 114, "duration": 1409}, {"note": 65, "velocity": 116, "duration": 143}, {"note": 67, "velocity": 116, "duration": 240}, {"note": 69, "velocity": 116, "duration": 120}, {"note": 72, "velocity": 114, "duration": 839}, {"note": 72, "velocity": 114, "duration": 120}, {"note": 74, "velocity": 117, "duration": 240}, {"note": 72, "velocity": 116, "duration": 240}, {"note": 69, "velocity": 113, "duration": 240}, {"note": 67, "velocity": 116, "duration": 240}, {"note": 69, "velocity": 114, "duration": 239}, {"note": 69, "velocity": 110, "duration": 239}, {"note": 69, "velocity": 113, "duration": 126}, {"note": 67, "velocity": 110, "duration": 240}, {"note": 65, "velocity": 107, "duration": 599}, {"note": 65, "velocity": 116, "duration": 124}, {"note": 67, "velocity": 114, "duration": 240}, {"note": 69, "velocity": 114, "duration": 120}, {"note": 77, "velocity": 117, "duration": 839}, {"note": 77, "velocity": 114, "duration": 120}, {"note": 79, "velocity": 116, "duration": 240}, {"note": 77, "velocity": 110, "duration": 240}, {"note": 74, "velocity": 113, "duration": 120}, {"note": 72, "velocity": 107, "duration": 240}, {"note": 69, "velocity": 113, "duration": 120}, {"note": 72, "velocity": 117, "duration": 1439}, {"note": 72, "velocity": 117, "duration": 240}, {"note": 74, "velocity": 119, "duration": 240}, {"note": 77, "velocity": 123, "duration": 720}, {"note": 79, "velocity": 117, "duration": 239}, {"note": 79, "velocity": 114, "duration": 240}, {"note": 77, "velocity": 119, "duration": 240}, {"note": 74, "velocity": 117, "duration": 240}, {"note": 72, "velocity": 116, "duration": 139}, {"note": 74, "velocity": 117, "duration": 359}, {"note": 74, "velocity": 114, "duration": 239}, {"note": 74, "velocity": 113, "duration": 127}, {"note": 72, "velocity": 114, "duration": 240}, {"note": 69, "velocity": 113, "duration": 600}, {"note": 72, "velocity": 114, "duration": 240}, {"note": 69, "velocity": 119, "duration": 240}, {"note": 67, "velocity": 119, "duration": 719}, {"note": 67, "velocity": 117, "duration": 120}, {"note": 69, "velocity": 114, "duration": 120}, {"note": 67, "velocity": 119, "duration": 720}, {"note": 65, "velocity": 116, "duration": 240}, {"note": 67, "velocity": 119, "duration": 1440}, {"note": 65, "velocity": 116, "duration": 143}, {"note": 67, "velocity": 116, "duration": 240}, {"note": 69, "velocity": 116, "duration": 120}, {"note": 72, "velocity": 114, "duration": 839}, {"note": 72, "velocity": 114, "duration": 120}, {"note": 74, "velocity": 117, "duration": 240}, {"note": 72, "velocity": 116, "duration": 240}, {"note": 69, "velocity": 113, "duration": 240}, {"note": 67, "velocity": 116, "duration": 240}, {"note": 69, "velocity": 114, "duration": 239}, {"note": 69, "velocity": 110, "duration": 239}, {"note": 69, "velocity": 113, "duration": 126}, {"note": 67, "velocity": 110, "duration": 240}, {"note": 65, "velocity": 107, "duration": 599}, {"note": 65, "velocity": 116, "duration": 124}, {"note": 67, "velocity": 114, "duration": 240}, {"note": 69, "velocity": 114, "duration": 120}, {"note": 77, "velocity": 117, "duration": 839}, {"note": 77, "velocity": 114, "duration": 120}, {"note": 79, "velocity": 116, "duration": 240}, {"note": 77, "velocity": 110, "duration": 240}, {"note": 74, "velocity": 113, "duration": 120}, {"note": 72, "velocity": 107, "duration": 240}, {"note": 69, "velocity": 113, "duration": 120}, {"note": 72, "velocity": 117, "duration": 1439}, {"note": 72, "velocity": 117, "duration": 240}, {"note": 74, "velocity": 119, "duration": 240}, {"note": 77, "velocity": 123, "duration": 720}, {"note": 79, "velocity": 117, "duration": 239}, {"note": 79, "velocity": 114, "duration": 240}, {"note": 77, "velocity": 119, "duration": 240}, {"note": 74, "velocity": 117, "duration": 240}, {"note": 72, "velocity": 116, "duration": 139}, {"note": 74, "velocity": 117, "duration": 359}, {"note": 74, "velocity": 114, "duration": 239}, {"note": 74, "velocity": 113, "duration": 127}, {"note": 72, "velocity": 114, "duration": 240}, {"note": 69, "velocity": 113, "duration": 600}, {"note": 72, "velocity": 114, "duration": 240}, {"note": 69, "velocity": 119, "duration": 240}, {"note": 67, "velocity": 119, "duration": 719}, {"note": 67, "velocity": 117, "duration": 120}, {"note": 69, "velocity": 114, "duration": 120}, {"note": 67, "velocity": 119, "duration": 150}, {"note": 0, "velocity": 0, "duration": 93}, {"note": 65, "velocity": 114, "duration": 145}, {"note": 0, "velocity": 0, "duration": 90}, {"note": 62, "velocity": 114, "duration": 197}, {"note": 65, "velocity": 114, "duration": 443}, {"note": 65, "velocity": 102, "duration": 1209}, {"note": 72, "velocity": 117, "duration": 240}, {"note": 74, "velocity": 119, "duration": 240}, {"note": 77, "velocity": 123, "duration": 720}, {"note": 79, "velocity": 117, "duration": 239}, {"note": 79, "velocity": 114, "duration": 240}, {"note": 77, "velocity": 119, "duration": 240}, {"note": 74, "velocity": 117, "duration": 240}, {"note": 72, "velocity": 116, "duration": 139}, {"note": 74, "velocity": 117, "duration": 359}, {"note": 74, "velocity": 114, "duration": 239}, {"note": 74, "velocity": 113, "duration": 127}, {"note": 72, "velocity": 114, "duration": 240}, {"note": 69, "velocity": 113, "duration": 600}, {"note": 72, "velocity": 114, "duration": 240}, {"note": 69, "velocity": 119, "duration": 240}, {"note": 67, "velocity": 119, "duration": 719}, {"note": 67, "velocity": 117, "duration": 120}, {"note": 69, "velocity": 114, "duration": 120}, {"note": 67, "velocity": 119, "duration": 240}, {"note": 65, "velocity": 96, "duration": 390}, {"note": 62, "velocity": 98, "duration": 269}, {"note": 65, "velocity": 100, "duration": 479}, {"note": 65, "velocity": 107, "duration": 683}]]