[[{"note": 65, "velocity": 104, "duration": 69}, {"note": 65, "velocity": 92, "duration": 56}, {"note": 0, "velocity": 0, "duration": 64}, {"note": 65, "velocity": 100, "duration": 63}, {"note": 63, "velocity": 109, "duration": 140}, {"note": 0, "velocity": 0, "duration": 100}, {"note": 65, "velocity": 110, "duration": 122}, {"note": 0, "velocity": 0, "duration": 238}, {"note": 68, "velocity": 109, "duration": 61}, {"note": 68, "velocity": 97, "duration": 58}, {"note": 0, "velocity": 0, "duration": 62}, {"note": 68, "velocity": 103, "duration": 82}, {"note": 70, "velocity": 113, "duration": 161}, {"note": 0, "velocity": 0, "duration": 79}, {"note": 68, "velocity": 113, "duration": 124}, {"note": 0, "velocity": 0, "duration": 236}, {"note": 70, "velocity": 119, "duration": 47}, {"note": 0, "velocity": 0, "duration": 73}, {"note": 70, "velocity": 106, "duration": 42}, {"note": 0, "velocity": 0, "duration": 78}, {"note": 70, "velocity": 106, "duration": 43}, {"note": 0, "velocity": 0, "duration": 77}, {"note": 70, "velocity": 109, "duration": 40}, {"note": 0, "velocity": 0, "duration": 80}, {"note": 70, "velocity": 116, "duration": 87}, {"note": 65, "velocity": 107, "duration": 126}, {"note": 0, "velocity": 0, "duration": 114}, {"note": 63, "velocity": 97, "duration": 109}, {"note": 65, "velocity": 92, "duration": 132}, {"note": 0, "velocity": 0, "duration": 708}, {"note": 58, "velocity": 104, "duration": 49}, {"note": 0, "velocity": 0, "duration": 71}, {"note": 70, "velocity": 113, "duration": 77}, {"note": 70, "velocity": 104, "duration": 64}, {"note": 70, "velocity": 91, "duration": 63}, {"note": 73, "velocity": 110, "duration": 53}, {"note": 0, "velocity": 0, "duration": 67}, {"note": 70, "velocity": 96, "duration": 96}, {"note": 0, "velocity": 0, "duration": 384}, {"note": 70, "velocity": 107, "duration": 46}, {"note": 0, "velocity": 0, "duration": 74}, {"note": 70, "velocity": 94, "duration": 52}, {"note": 0, "velocity": 0, "duration": 68}, {"note": 70, "velocity": 98, "duration": 86}, {"note": 68, "velocity": 108, "duration": 155}, {"note": 0, "velocity": 0, "duration": 85}, {"note": 65, "velocity": 107, "duration": 111}, {"note": 0, "velocity": 0, "duration": 249}, {"note": 63, "velocity": 108, "duration": 53}, {"note": 0, "velocity": 0, "duration": 67}, {"note": 63, "velocity": 92, "duration": 47}, {"note": 0, "velocity": 0, "duration": 73}, {"note": 63, "velocity": 100, "duration": 68}, {"note": 63, "velocity": 94, "duration": 98}, {"note": 65, "velocity": 104, "duration": 94}, {"note": 63, "velocity": 94, "duration": 102}, {"note": 0, "velocity": 0, "duration": 138}, {"note": 58, "velocity": 86, "duration": 69}, {"note": 63, "velocity": 94, "duration": 130}, {"note": 0, "velocity": 0, "duration": 830}, {"note": 65, "velocity": 104, "duration": 69}, {"note": 65, "velocity": 92, "duration": 56}, {"note": 0, "velocity": 0, "duration": 64}, {"note": 65, "velocity": 100, "duration": 63}, {"note": 63, "velocity": 109, "duration": 140}, {"note": 0, "velocity": 0, "duration": 100}, {"note": 65, "velocity": 110, "duration": 122}, {"note": 0, "velocity": 0, "duration": 238}, {"note": 68, "velocity": 109, "duration": 61}, {"note": 68, "velocity": 97, "duration": 58}, {"note": 0, "velocity": 0, "duration": 62}, {"note": 68, "velocity": 103, "duration": 82}, {"note": 70, "velocity": 113, "duration": 161}, {"note": 0, "velocity": 0, "duration": 79}, {"note": 68, "velocity": 113, "duration": 124}, {"note": 0, "velocity": 0, "duration": 116}, {"note": 58, "velocity": 113, "duration": 124}, {"note": 70, "velocity": 119, "duration": 47}, {"note": 0, "velocity": 0, "duration": 73}, {"note": 70, "velocity": 106, "duration": 42}, {"note": 0, "velocity": 0, "duration": 78}, {"note": 70, "velocity": 106, "duration": 43}, {"note": 0, "velocity": 0, "duration": 77}, {"note": 70, "velocity": 109, "duration": 40}, {"note": 0, "velocity": 0, "duration": 80}, {"note": 70, "velocity": 116, "duration": 87}, {"note": 65, "velocity": 107, "duration": 126}, {"note": 0, "velocity": 0, "duration": 114}, {"note": 63, "velocity": 97, "duration": 109}, {"note": 65, "velocity": 92, "duration": 132}, {"note": 0, "velocity": 0, "duration": 708}, {"note": 58, "velocity": 104, "duration": 49}, {"note": 0, "velocity": 0, "duration": 71}, {"note": 70, "velocity": 113, "duration": 77}, {"note": 70, "velocity": 104, "duration": 64}, {"note": 70, "velocity": 91, "duration": 63}, {"note": 73, "velocity": 110, "duration": 53}, {"note": 0, "velocity": 0, "duration": 187}, {"note": 70, "velocity": 96, "duration": 96}, {"note": 0, "velocity": 0, "duration": 264}, {"note": 70, "velocity": 113, "duration": 46}, {"note": 0, "velocity": 0, "duration": 74}, {"note": 70, "velocity": 104, "duration": 106}, {"note": 68, "velocity": 107, "duration": 106}, {"note": 70, "velocity": 110, "duration": 115}, {"note": 68, "velocity": 108, "duration": 106}, {"note": 65, "velocity": 104, "duration": 99}, {"note": 0, "velocity": 0, "duration": 141}, {"note": 68, "velocity": 108, "duration": 72}, {"note": 70, "velocity": 104, "duration": 51}, {"note": 0, "velocity": 0, "duration": 69}, {"note": 73, "velocity": 110, "duration": 58}, {"note": 0, "velocity": 0, "duration": 62}, {"note": 73, "velocity": 110, "duration": 75}, {"note": 73, "velocity": 93, "duration": 44}, {"note": 0, "velocity": 0, "duration": 76}, {"note": 73, "velocity": 108, "duration": 54}, {"note": 0, "velocity": 0, "duration": 186}, {"note": 70, "velocity": 104, "duration": 71}, {"note": 75, "velocity": 117, "duration": 169}, {"note": 0, "velocity": 0, "duration": 1631}, {"note": 68, "velocity": 108, "duration": 56}, {"note": 0, "velocity": 0, "duration": 64}, {"note": 68, "velocity": 108, "duration": 55}, {"note": 0, "velocity": 0, "duration": 65}, {"note": 75, "velocity": 119, "duration": 59}, {"note": 0, "velocity": 0, "duration": 61}, {"note": 75, "velocity": 116, "duration": 88}, {"note": 73, "velocity": 114, "duration": 43}, {"note": 0, "velocity": 0, "duration": 77}, {"note": 75, "velocity": 120, "duration": 97}, {"note": 0, "velocity": 0, "duration": 143}, {"note": 77, "velocity": 119, "duration": 128}, {"note": 0, "velocity": 0, "duration": 232}, {"note": 72, "velocity": 116, "duration": 45}, {"note": 0, "velocity": 0, "duration": 75}, {"note": 72, "velocity": 114, "duration": 45}, {"note": 0, "velocity": 0, "duration": 75}, {"note": 72, "velocity": 116, "duration": 90}, {"note": 70, "velocity": 117, "duration": 149}, {"note": 0, "velocity": 0, "duration": 91}, {"note": 68, "velocity": 119, "duration": 128}, {"note": 0, "velocity": 0, "duration": 232}, {"note": 70, "velocity": 114, "duration": 93}, {"note": 73, "velocity": 116, "duration": 63}, {"note": 70, "velocity": 113, "duration": 47}, {"note": 0, "velocity": 0, "duration": 73}, {"note": 68, "velocity": 114, "duration": 87}, {"note": 70, "velocity": 116, "duration": 78}, {"note": 68, "velocity": 114, "duration": 59}, {"note": 0, "velocity": 0, "duration": 61}, {"note": 63, "velocity": 87, "duration": 56}, {"note": 0, "velocity": 0, "duration": 64}, {"note": 68, "velocity": 108, "duration": 120}, {"note": 0, "velocity": 0, "duration": 120}, {"note": 65, "velocity": 104, "duration": 120}, {"note": 0, "velocity": 0, "duration": 720}, {"note": 70, "velocity": 117, "duration": 43}, {"note": 0, "velocity": 0, "duration": 77}, {"note": 70, "velocity": 110, "duration": 43}, {"note": 0, "velocity": 0, "duration": 77}, {"note": 70, "velocity": 113, "duration": 54}, {"note": 0, "velocity": 0, "duration": 66}, {"note": 73, "velocity": 117, "duration": 124}, {"note": 0, "velocity": 0, "duration": 116}, {"note": 70, "velocity": 119, "duration": 115}, {"note": 0, "velocity": 0, "duration": 245}, {"note": 70, "velocity": 117, "duration": 42}, {"note": 0, "velocity": 0, "duration": 78}, {"note": 70, "velocity": 110, "duration": 63}, {"note": 70, "velocity": 110, "duration": 93}, {"note": 68, "velocity": 116, "duration": 124}, {"note": 0, "velocity": 0, "duration": 116}, {"note": 65, "velocity": 110, "duration": 119}, {"note": 0, "velocity": 0, "duration": 121}, {"note": 68, "velocity": 116, "duration": 143}, {"note": 70, "velocity": 116, "duration": 54}, {"note": 0, "velocity": 0, "duration": 66}, {"note": 73, "velocity": 116, "duration": 58}, {"note": 0, "velocity": 0, "duration": 62}, {"note": 73, "velocity": 116, "duration": 56}, {"note": 0, "velocity": 0, "duration": 64}, {"note": 73, "velocity": 110, "duration": 59}, {"note": 0, "velocity": 0, "duration": 61}, {"note": 73, "velocity": 117, "duration": 74}, {"note": 70, "velocity": 119, "duration": 74}, {"note": 73, "velocity": 110, "duration": 47}, {"note": 0, "velocity": 0, "duration": 73}, {"note": 75, "velocity": 120, "duration": 121}, {"note": 0, "velocity": 0, "duration": 719}, {"note": 68, "velocity": 108, "duration": 56}, {"note": 0, "velocity": 0, "duration": 64}, {"note": 68, "velocity": 108, "duration": 55}, {"note": 0, "velocity": 0, "duration": 65}, {"note": 75, "velocity": 119, "duration": 59}, {"note": 0, "velocity": 0, "duration": 61}, {"note": 75, "velocity": 116, "duration": 88}, {"note": 73, "velocity": 114, "duration": 43}, {"note": 0, "velocity": 0, "duration": 77}, {"note": 75, "velocity": 120, "duration": 97}, {"note": 0, "velocity": 0, "duration": 143}, {"note": 77, "velocity": 119, "duration": 128}, {"note": 0, "velocity": 0, "duration": 232}, {"note": 72, "velocity": 116, "duration": 45}, {"note": 0, "velocity": 0, "duration": 75}, {"note": 72, "velocity": 114, "duration": 45}, {"note": 0, "velocity": 0, "duration": 75}, {"note": 72, "velocity": 116, "duration": 90}, {"note": 70, "velocity": 117, "duration": 149}, {"note": 0, "velocity": 0, "duration": 91}, {"note": 68, "velocity": 119, "duration": 128}, {"note": 0, "velocity": 0, "duration": 232}, {"note": 70, "velocity": 114, "duration": 93}, {"note": 73, "velocity": 116, "duration": 63}, {"note": 70, "velocity": 113, "duration": 47}, {"note": 0, "velocity": 0, "duration": 73}, {"note": 68, "velocity": 114, "duration": 87}, {"note": 70, "velocity": 116, "duration": 78}, {"note": 68, "velocity": 114, "duration": 59}, {"note": 0, "velocity": 0, "duration": 61}, {"note": 63, "velocity": 87, "duration": 56}, {"note": 0, "velocity": 0, "duration": 64}, {"note": 68, "velocity": 108, "duration": 120}, {"note": 0, "velocity": 0, "duration": 120}, {"note": 65, "velocity": 104, "duration": 120}, {"note": 0, "velocity": 0, "duration": 720}, {"note": 70, "velocity": 117, "duration": 43}, {"note": 0, "velocity": 0, "duration": 77}, {"note": 70, "velocity": 110, "duration": 43}, {"note": 0, "velocity": 0, "duration": 77}, {"note": 70, "velocity": 113, "duration": 54}, {"note": 0, "velocity": 0, "duration": 66}, {"note": 73, "velocity": 117, "duration": 124}, {"note": 0, "velocity": 0, "duration": 116}, {"note": 70, "velocity": 119, "duration": 115}, {"note": 0, "velocity": 0, "duration": 245}, {"note": 70, "velocity": 117, "duration": 42}, {"note": 0, "velocity": 0, "duration": 78}, {"note": 70, "velocity": 110, "duration": 63}, {"note": 70, "velocity": 110, "duration": 93}, {"note": 68, "velocity": 116, "duration": 124}, {"note": 0, "velocity": 0, "duration": 116}, {"note": 65, "velocity": 110, "duration": 119}, {"note": 0, "velocity": 0, "duration": 121}, {"note": 68, "velocity": 116, "duration": 143}, {"note": 70, "velocity": 116, "duration": 54}, {"note": 0, "velocity": 0, "duration": 66}, {"note": 73, "velocity": 116, "duration": 58}, {"note": 0, "velocity": 0, "duration": 62}, {"note": 73, "velocity": 116, "duration": 56}, {"note": 0, "velocity": 0, "duration": 64}, {"note": 73, "velocity": 110, "duration": 59}, {"note": 0, "velocity": 0, "duration": 61}, {"note": 73, "velocity": 117, "duration": 74}, {"note": 70, "velocity": 119, "duration": 74}, {"note": 73, "velocity": 110, "duration": 47}, {"note": 0, "velocity": 0, "duration": 73}, {"note": 75, "velocity": 120, "duration": 121}, {"note": 0, "velocity": 0, "duration": 479}, {"note": 73, "velocity": 114, "duration": 121}, {"note": 72, "velocity": 108, "duration": 67}, {"note": 0, "velocity": 0, "duration": 173}, {"note": 72, "velocity": 114, "duration": 171}, {"note": 0, "velocity": 0, "duration": 69}, {"note": 70, "velocity": 116, "duration": 213}, {"note": 0, "velocity": 0, "duration": 7347}, {"note": 65, "velocity": 104, "duration": 69}, {"note": 65, "velocity": 92, "duration": 56}, {"note": 0, "velocity": 0, "duration": 64}, {"note": 65, "velocity": 100, "duration": 63}, {"note": 63, "velocity": 109, "duration": 140}, {"note": 0, "velocity": 0, "duration": 100}, {"note": 65, "velocity": 110, "duration": 122}, {"note": 0, "velocity": 0, "duration": 238}, {"note": 68, "velocity": 109, "duration": 61}, {"note": 68, "velocity": 97, "duration": 58}, {"note": 0, "velocity": 0, "duration": 62}, {"note": 68, "velocity": 103, "duration": 82}, {"note": 70, "velocity": 113, "duration": 161}, {"note": 0, "velocity": 0, "duration": 79}, {"note": 68, "velocity": 113, "duration": 124}, {"note": 0, "velocity": 0, "duration": 116}, {"note": 58, "velocity": 113, "duration": 124}, {"note": 70, "velocity": 119, "duration": 47}, {"note": 0, "velocity": 0, "duration": 73}, {"note": 70, "velocity": 106, "duration": 42}, {"note": 0, "velocity": 0, "duration": 78}, {"note": 70, "velocity": 106, "duration": 43}, {"note": 0, "velocity": 0, "duration": 77}, {"note": 70, "velocity": 109, "duration": 40}, {"note": 0, "velocity": 0, "duration": 80}, {"note": 70, "velocity": 116, "duration": 87}, {"note": 65, "velocity": 107, "duration": 126}, {"note": 0, "velocity": 0, "duration": 114}, {"note": 63, "velocity": 97, "duration": 109}, {"note": 65, "velocity": 92, "duration": 132}, {"note": 0, "velocity": 0, "duration": 708}, {"note": 58, "velocity": 104, "duration": 49}, {"note": 0, "velocity": 0, "duration": 71}, {"note": 70, "velocity": 113, "duration": 77}, {"note": 70, "velocity": 104, "duration": 64}, {"note": 70, "velocity": 91, "duration": 63}, {"note": 73, "velocity": 110, "duration": 53}, {"note": 0, "velocity": 0, "duration": 187}, {"note": 70, "velocity": 96, "duration": 96}, {"note": 0, "velocity": 0, "duration": 264}, {"note": 70, "velocity": 113, "duration": 46}, {"note": 0, "velocity": 0, "duration": 74}, {"note": 70, "velocity": 104, "duration": 106}, {"note": 68, "velocity": 107, "duration": 106}, {"note": 70, "velocity": 110, "duration": 115}, {"note": 68, "velocity": 108, "duration": 106}, {"note": 65, "velocity": 104, "duration": 99}, {"note": 0, "velocity": 0, "duration": 141}, {"note": 68, "velocity": 108, "duration": 72}, {"note": 70, "velocity": 104, "duration": 51}, {"note": 0, "velocity": 0, "duration": 69}, {"note": 73, "velocity": 110, "duration": 58}, {"note": 0, "velocity": 0, "duration": 62}, {"note": 73, "velocity": 110, "duration": 75}, {"note": 73, "velocity": 93, "duration": 44}, {"note": 0, "velocity": 0, "duration": 76}, {"note": 73, "velocity": 108, "duration": 54}, {"note": 0, "velocity": 0, "duration": 186}, {"note": 70, "velocity": 104, "duration": 71}, {"note": 75, "velocity": 117, "duration": 169}, {"note": 0, "velocity": 0, "duration": 1631}, {"note": 68, "velocity": 108, "duration": 56}, {"note": 0, "velocity": 0, "duration": 64}, {"note": 68, "velocity": 108, "duration": 55}, {"note": 0, "velocity": 0, "duration": 65}, {"note": 75, "velocity": 119, "duration": 59}, {"note": 0, "velocity": 0, "duration": 61}, {"note": 75, "velocity": 116, "duration": 88}, {"note": 73, "velocity": 114, "duration": 43}, {"note": 0, "velocity": 0, "duration": 77}, {"note": 75, "velocity": 120, "duration": 97}, {"note": 0, "velocity": 0, "duration": 143}, {"note": 77, "velocity": 119, "duration": 128}, {"note": 0, "velocity": 0, "duration": 232}, {"note": 72, "velocity": 116, "duration": 45}, {"note": 0, "velocity": 0, "duration": 75}, {"note": 72, "velocity": 114, "duration": 45}, {"note": 0, "velocity": 0, "duration": 75}, {"note": 72, "velocity": 116, "duration": 90}, {"note": 70, "velocity": 117, "duration": 149}, {"note": 0, "velocity": 0, "duration": 91}, {"note": 68, "velocity": 119, "duration": 128}, {"note": 0, "velocity": 0, "duration": 232}, {"note": 70, "velocity": 114, "duration": 93}, {"note": 73, "velocity": 116, "duration": 63}, {"note": 70, "velocity": 113, "duration": 47}, {"note": 0, "velocity": 0, "duration": 73}, {"note": 68, "velocity": 114, "duration": 87}, {"note": 70, "velocity": 116, "duration": 78}, {"note": 68, "velocity": 114, "duration": 59}, {"note": 0, "velocity": 0, "duration": 61}, {"note": 63, "velocity": 87, "duration": 56}, {"note": 0, "velocity": 0, "duration": 64}, {"note": 68, "velocity": 108, "duration": 120}, {"note": 0, "velocity": 0, "duration": 120}, {"note": 65, "velocity": 104, "duration": 120}, {"note": 0, "velocity": 0, "duration": 720}, {"note": 70, "velocity": 117, "duration": 43}, {"note": 0, "velocity": 0, "duration": 77}, {"note": 70, "velocity": 110, "duration": 43}, {"note": 0, "velocity": 0, "duration": 77}, {"note": 70, "velocity": 113, "duration": 54}, {"note": 0, "velocity": 0, "duration": 66}, {"note": 73, "velocity": 117, "duration": 124}, {"note": 0, "velocity": 0, "duration": 116}, {"note": 70, "velocity": 119, "duration": 115}, {"note": 0, "velocity": 0, "duration": 245}, {"note": 70, "velocity": 117, "duration": 42}, {"note": 0, "velocity": 0, "duration": 78}, {"note": 70, "velocity": 110, "duration": 63}, {"note": 70, "velocity": 110, "duration": 93}, {"note": 68, "velocity": 116, "duration": 124}, {"note": 0, "velocity": 0, "duration": 116}, {"note": 65, "velocity": 110, "duration": 119}, {"note": 0, "velocity": 0, "duration": 121}, {"note": 68, "velocity": 116, "duration": 143}, {"note": 70, "velocity": 116, "duration": 54}, {"note": 0, "velocity": 0, "duration": 66}, {"note": 73, "velocity": 116, "duration": 58}, {"note": 0, "velocity": 0, "duration": 62}, {"note": 73, "velocity": 116, "duration": 56}, {"note": 0, "velocity": 0, "duration": 64}, {"note": 73, "velocity": 110, "duration": 59}, {"note": 0, "velocity": 0, "duration": 61}, {"note": 73, "velocity": 117, "duration": 74}, {"note": 70, "velocity": 119, "duration": 74}, {"note": 73, "velocity": 110, "duration": 47}, {"note": 0, "velocity": 0, "duration": 73}, {"note": 75, "velocity": 120, "duration": 121}, {"note": 0, "velocity": 0, "duration": 719}, {"note": 68, "velocity": 108, "duration": 56}, {"note": 0, "velocity": 0, "duration": 64}, {"note": 68, "velocity": 108, "duration": 55}, {"note": 0, "velocity": 0, "duration": 65}, {"note": 75, "velocity": 119, "duration": 59}, {"note": 0, "velocity": 0, "duration": 61}, {"note": 75, "velocity": 116, "duration": 88}, {"note": 73, "velocity": 114, "duration": 43}, {"note": 0, "velocity": 0, "duration": 77}, {"note": 75, "velocity": 120, "duration": 97}, {"note": 0, "velocity": 0, "duration": 143}, {"note": 77, "velocity": 119, "duration": 128}, {"note": 0, "velocity": 0, "duration": 232}, {"note": 72, "velocity": 116, "duration": 45}, {"note": 0, "velocity": 0, "duration": 75}, {"note": 72, "velocity": 114, "duration": 45}, {"note": 0, "velocity": 0, "duration": 75}, {"note": 72, "velocity": 116, "duration": 90}, {"note": 70, "velocity": 117, "duration": 149}, {"note": 0, "velocity": 0, "duration": 91}, {"note": 68, "velocity": 119, "duration": 128}, {"note": 0, "velocity": 0, "duration": 232}, {"note": 70, "velocity": 114, "duration": 93}, {"note": 73, "velocity": 116, "duration": 63}, {"note": 70, "velocity": 113, "duration": 47}, {"note": 0, "velocity": 0, "duration": 73}, {"note": 68, "velocity": 114, "duration": 87}, {"note": 70, "velocity": 116, "duration": 78}, {"note": 68, "velocity": 114, "duration": 59}, {"note": 0, "velocity": 0, "duration": 61}, {"note": 63, "velocity": 87, "duration": 56}, {"note": 0, "velocity": 0, "duration": 64}, {"note": 68, "velocity": 108, "duration": 120}, {"note": 0, "velocity": 0, "duration": 120}, {"note": 65, "velocity": 104, "duration": 120}, {"note": 0, "velocity": 0, "duration": 720}, {"note": 70, "velocity": 117, "duration": 43}, {"note": 0, "velocity": 0, "duration": 77}, {"note": 70, "velocity": 110, "duration": 43}, {"note": 0, "velocity": 0, "duration": 77}, {"note": 70, "velocity": 113, "duration": 54}, {"note": 0, "velocity": 0, "duration": 66}, {"note": 73, "velocity": 117, "duration": 124}, {"note": 0, "velocity": 0, "duration": 116}, {"note": 70, "velocity": 119, "duration": 115}, {"note": 0, "velocity": 0, "duration": 245}, {"note": 70, "velocity": 117, "duration": 42}, {"note": 0, "velocity": 0, "duration": 78}, {"note": 70, "velocity": 110, "duration": 63}, {"note": 70, "velocity": 110, "duration": 93}, {"note": 68, "velocity": 116, "duration": 124}, {"note": 0, "velocity": 0, "duration": 116}, {"note": 65, "velocity": 110, "duration": 119}, {"note": 0, "velocity": 0, "duration": 121}, {"note": 68, "velocity": 116, "duration": 143}, {"note": 70, "velocity": 116, "duration": 54}, {"note": 0, "velocity": 0, "duration": 66}, {"note": 73, "velocity": 116, "duration": 58}, {"note": 0, "velocity": 0, "duration": 62}, {"note": 73, "velocity": 116, "duration": 56}, {"note": 0, "velocity": 0, "duration": 64}, {"note": 73, "velocity": 110, "duration": 59}, {"note": 0, "velocity": 0, "duration": 61}, {"note": 73, "velocity": 117, "duration": 74}, {"note": 70, "velocity": 119, "duration": 74}, {"note": 73, "velocity": 110, "duration": 47}, {"note": 0, "velocity": 0, "duration": 73}, {"note": 75, "velocity": 120, "duration": 121}, {"note": 0, "velocity": 0, "duration": 719}, {"note": 68, "velocity": 108, "duration": 56}, {"note": 0, "velocity": 0, "duration": 64}, {"note": 68, "velocity": 108, "duration": 55}, {"note": 0, "velocity": 0, "duration": 65}, {"note": 75, "velocity": 119, "duration": 59}, {"note": 0, "velocity": 0, "duration": 61}, {"note": 75, "velocity": 116, "duration": 88}, {"note": 73, "velocity": 114, "duration": 43}, {"note": 0, "velocity": 0, "duration": 77}, {"note": 75, "velocity": 120, "duration": 97}, {"note": 0, "velocity": 0, "duration": 143}, {"note": 77, "velocity": 119, "duration": 128}, {"note": 0, "velocity": 0, "duration": 232}, {"note": 72, "velocity": 116, "duration": 45}, {"note": 0, "velocity": 0, "duration": 75}, {"note": 72, "velocity": 114, "duration": 45}, {"note": 0, "velocity": 0, "duration": 75}, {"note": 72, "velocity": 116, "duration": 90}, {"note": 70, "velocity": 117, "duration": 149}, {"note": 0, "velocity": 0, "duration": 91}, {"note": 68, "velocity": 119, "duration": 128}, {"note": 0, "velocity": 0, "duration": 232}, {"note": 70, "velocity": 114, "duration": 93}, {"note": 73, "velocity": 116, "duration": 63}, {"note": 70, "velocity": 113, "duration": 47}, {"note": 0, "velocity": 0, "duration": 73}, {"note": 68, "velocity": 114, "duration": 87}, {"note": 70, "velocity": 116, "duration": 78}, {"note": 68, "velocity": 114, "duration": 59}, {"note": 0, "velocity": 0, "duration": 61}, {"note": 63, "velocity": 87, "duration": 56}, {"note": 0, "velocity": 0, "duration": 64}, {"note": 68, "velocity": 108, "duration": 120}, {"note": 0, "velocity": 0, "duration": 120}, {"note": 65, "velocity": 104, "duration": 120}, {"note": 0, "velocity": 0, "duration": 720}, {"note": 70, "velocity": 117, "duration": 43}, {"note": 0, "velocity": 0, "duration": 77}, {"note": 70, "velocity": 110, "duration": 43}, {"note": 0, "velocity": 0, "duration": 77}, {"note": 70, "velocity": 113, "duration": 54}, {"note": 0, "velocity": 0, "duration": 66}, {"note": 73, "velocity": 117, "duration": 124}, {"note": 0, "velocity": 0, "duration": 116}, {"note": 70, "velocity": 119, "duration": 115}, {"note": 0, "velocity": 0, "duration": 245}, {"note": 70, "velocity": 117, "duration": 42}, {"note": 0, "velocity": 0, "duration": 78}, {"note": 70, "velocity": 110, "duration": 63}, {"note": 70, "velocity": 110, "duration": 93}, {"note": 68, "velocity": 116, "duration": 124}, {"note": 0, "velocity": 0, "duration": 116}, {"note": 65, "velocity": 110, "duration": 119}, {"note": 0, "velocity": 0, "duration": 121}, {"note": 68, "velocity": 116, "duration": 143}, {"note": 70, "velocity": 116, "duration": 54}, {"note": 0, "velocity": 0, "duration": 66}, {"note": 73, "velocity": 116, "duration": 58}, {"note": 0, "velocity": 0, "duration": 62}, {"note": 73, "velocity": 116, "duration": 56}, {"note": 0, "velocity": 0, "duration": 64}, {"note": 73, "velocity": 110, "duration": 59}, {"note": 0, "velocity": 0, "duration": 61}, {"note": 73, "velocity": 117, "duration": 74}, {"note": 70, "velocity": 119, "duration": 74}, {"note": 73, "velocity": 110, "duration": 47}, {"note": 0, "velocity": 0, "duration": 73}, {"note": 75, "velocity": 120, "duration": 121}, {"note": 0, "velocity": 0, "duration": 719}, {"note": 68, "velocity": 108, "duration": 56}, {"note": 0, "velocity": 0, "duration": 64}, {"note": 68, "velocity": 108, "duration": 55}, {"note": 0, "velocity": 0, "duration": 65}, {"note": 75, "velocity": 119, "duration": 59}, {"note": 0, "velocity": 0, "duration": 61}, {"note": 75, "velocity": 116, "duration": 88}, {"note": 73, "velocity": 114, "duration": 43}, {"note": 0, "velocity": 0, "duration": 77}, {"note": 75, "velocity": 120, "duration": 97}, {"note": 0, "velocity": 0, "duration": 143}, {"note": 77, "velocity": 119, "duration": 128}, {"note": 0, "velocity": 0, "duration": 232}, {"note": 72, "velocity": 116, "duration": 45}, {"note": 0, "velocity": 0, "duration": 75}, {"note": 72, "velocity": 114, "duration": 45}, {"note": 0, "velocity": 0, "duration": 75}, {"note": 72, "velocity": 116, "duration": 90}, {"note": 70, "velocity": 117, "duration": 149}, {"note": 0, "velocity": 0, "duration": 91}, {"note": 68, "velocity": 119, "duration": 128}, {"note": 0, "velocity": 0, "duration": 232}, {"note": 70, "velocity": 114, "duration": 93}, {"note": 73, "velocity": 116, "duration": 63}, {"note": 70, "velocity": 113, "duration": 47}, {"note": 0, "velocity": 0, "duration": 73}, {"note": 70, "velocity": 107, "duration": 66}, {"note": 75, "velocity": 119, "duration": 101}, {"note": 73, "velocity": 110, "duration": 101}, {"note": 75, "velocity": 116, "duration": 49}, {"note": 0, "velocity": 0, "duration": 71}, {"note": 80, "velocity": 117, "duration": 146}, {"note": 0, "velocity": 0, "duration": 94}, {"note": 77, "velocity": 120, "duration": 154}, {"note": 0, "velocity": 0, "duration": 86}, {"note": 77, "velocity": 117, "duration": 112}, {"note": 75, "velocity": 114, "duration": 113}, {"note": 73, "velocity": 116, "duration": 132}, {"note": 0, "velocity": 0, "duration": 228}, {"note": 70, "velocity": 117, "duration": 43}, {"note": 0, "velocity": 0, "duration": 77}, {"note": 70, "velocity": 110, "duration": 43}, {"note": 0, "velocity": 0, "duration": 77}, {"note": 70, "velocity": 113, "duration": 54}, {"note": 0, "velocity": 0, "duration": 66}, {"note": 73, "velocity": 117, "duration": 124}, {"note": 0, "velocity": 0, "duration": 116}, {"note": 70, "velocity": 119, "duration": 115}, {"note": 0, "velocity": 0, "duration": 245}, {"note": 70, "velocity": 117, "duration": 42}, {"note": 0, "velocity": 0, "duration": 78}, {"note": 70, "velocity": 110, "duration": 63}, {"note": 70, "velocity": 110, "duration": 93}, {"note": 68, "velocity": 116, "duration": 124}, {"note": 0, "velocity": 0, "duration": 116}, {"note": 65, "velocity": 110, "duration": 119}, {"note": 0, "velocity": 0, "duration": 121}, {"note": 68, "velocity": 116, "duration": 143}, {"note": 70, "velocity": 116, "duration": 54}, {"note": 0, "velocity": 0, "duration": 66}, {"note": 73, "velocity": 116, "duration": 58}, {"note": 0, "velocity": 0, "duration": 62}, {"note": 73, "velocity": 116, "duration": 56}, {"note": 0, "velocity": 0, "duration": 64}, {"note": 73, "velocity": 110, "duration": 59}, {"note": 0, "velocity": 0, "duration": 61}, {"note": 73, "velocity": 117, "duration": 74}, {"note": 70, "velocity": 119, "duration": 74}, {"note": 73, "velocity": 110, "duration": 47}, {"note": 0, "velocity": 0, "duration": 73}, {"note": 75, "velocity": 120, "duration": 121}, {"note": 0, "velocity": 0, "duration": 1439}, {"note": 73, "velocity": 110, "duration": 151}, {"note": 0, "velocity": 0, "duration": 89}, {"note": 72, "velocity": 113, "duration": 144}, {"note": 0, "velocity": 0, "duration": 96}, {"note": 73, "velocity": 108, "duration": 195}]]