[[{"note": 66, "velocity": 119, "duration": 758}, {"note": 0, "velocity": 0, "duration": 202}, {"note": 73, "velocity": 119, "duration": 755}, {"note": 0, "velocity": 0, "duration": 205}, {"note": 66, "velocity": 120, "duration": 575}, {"note": 69, "velocity": 119, "duration": 462}, {"note": 66, "velocity": 110, "duration": 470}, {"note": 64, "velocity": 117, "duration": 435}, {"note": 61, "velocity": 113, "duration": 434}, {"note": 0, "velocity": 0, "duration": 1966}, {"note": 73, "velocity": 117, "duration": 562}, {"note": 71, "velocity": 107, "duration": 520}, {"note": 69, "velocity": 119, "duration": 466}, {"note": 64, "velocity": 117, "duration": 538}, {"note": 0, "velocity": 0, "duration": 422}, {"note": 71, "velocity": 114, "duration": 419}, {"note": 0, "velocity": 0, "duration": 541}, {"note": 64, "velocity": 107, "duration": 479}, {"note": 68, "velocity": 114, "duration": 483}, {"note": 66, "velocity": 100, "duration": 443}, {"note": 64, "velocity": 113, "duration": 485}, {"note": 66, "velocity": 108, "duration": 366}, {"note": 0, "velocity": 0, "duration": 3474}, {"note": 66, "velocity": 119, "duration": 758}, {"note": 0, "velocity": 0, "duration": 202}, {"note": 73, "velocity": 119, "duration": 755}, {"note": 0, "velocity": 0, "duration": 205}, {"note": 66, "velocity": 120, "duration": 575}, {"note": 69, "velocity": 119, "duration": 462}, {"note": 66, "velocity": 110, "duration": 470}, {"note": 64, "velocity": 117, "duration": 435}, {"note": 61, "velocity": 113, "duration": 434}, {"note": 0, "velocity": 0, "duration": 1966}, {"note": 73, "velocity": 117, "duration": 562}, {"note": 71, "velocity": 107, "duration": 520}, {"note": 69, "velocity": 119, "duration": 466}, {"note": 64, "velocity": 117, "duration": 538}, {"note": 0, "velocity": 0, "duration": 422}, {"note": 71, "velocity": 114, "duration": 419}, {"note": 0, "velocity": 0, "duration": 541}, {"note": 64, "velocity": 107, "duration": 479}, {"note": 68, "velocity": 114, "duration": 483}, {"note": 66, "velocity": 100, "duration": 443}, {"note": 64, "velocity": 113, "duration": 485}, {"note": 66, "velocity": 108, "duration": 366}, {"note": 0, "velocity": 0, "duration": 3474}, {"note": 69, "velocity": 119, "duration": 90}, {"note": 0, "velocity": 0, "duration": 150}, {"note": 69, "velocity": 106, "duration": 80}, {"note": 0, "velocity": 0, "duration": 160}, {"note": 69, "velocity": 109, "duration": 169}, {"note": 0, "velocity": 0, "duration": 71}, {"note": 64, "velocity": 108, "duration": 208}, {"note": 69, "velocity": 113, "duration": 273}, {"note": 0, "velocity": 0, "duration": 207}, {"note": 71, "velocity": 107, "duration": 115}, {"note": 0, "velocity": 0, "duration": 125}, {"note": 73, "velocity": 102, "duration": 140}, {"note": 0, "velocity": 0, "duration": 100}, {"note": 71, "velocity": 98, "duration": 85}, {"note": 0, "velocity": 0, "duration": 155}, {"note": 71, "velocity": 100, "duration": 78}, {"note": 0, "velocity": 0, "duration": 162}, {"note": 71, "velocity": 104, "duration": 129}, {"note": 0, "velocity": 0, "duration": 111}, {"note": 69, "velocity": 109, "duration": 105}, {"note": 0, "velocity": 0, "duration": 135}, {"note": 71, "velocity": 110, "duration": 269}, {"note": 0, "velocity": 0, "duration": 691}, {"note": 71, "velocity": 110, "duration": 84}, {"note": 0, "velocity": 0, "duration": 156}, {"note": 71, "velocity": 96, "duration": 78}, {"note": 0, "velocity": 0, "duration": 162}, {"note": 71, "velocity": 102, "duration": 171}, {"note": 0, "velocity": 0, "duration": 69}, {"note": 69, "velocity": 113, "duration": 159}, {"note": 0, "velocity": 0, "duration": 81}, {"note": 71, "velocity": 107, "duration": 242}, {"note": 0, "velocity": 0, "duration": 238}, {"note": 73, "velocity": 114, "duration": 271}, {"note": 0, "velocity": 0, "duration": 209}, {"note": 66, "velocity": 108, "duration": 75}, {"note": 0, "velocity": 0, "duration": 165}, {"note": 66, "velocity": 104, "duration": 75}, {"note": 0, "velocity": 0, "duration": 165}, {"note": 66, "velocity": 102, "duration": 213}, {"note": 64, "velocity": 100, "duration": 276}, {"note": 66, "velocity": 96, "duration": 305}, {"note": 0, "velocity": 0, "duration": 655}, {"note": 69, "velocity": 113, "duration": 73}, {"note": 0, "velocity": 0, "duration": 167}, {"note": 69, "velocity": 109, "duration": 76}, {"note": 0, "velocity": 0, "duration": 164}, {"note": 69, "velocity": 109, "duration": 197}, {"note": 64, "velocity": 110, "duration": 236}, {"note": 69, "velocity": 116, "duration": 252}, {"note": 0, "velocity": 0, "duration": 228}, {"note": 73, "velocity": 119, "duration": 311}, {"note": 0, "velocity": 0, "duration": 169}, {"note": 71, "velocity": 108, "duration": 74}, {"note": 0, "velocity": 0, "duration": 166}, {"note": 71, "velocity": 107, "duration": 73}, {"note": 0, "velocity": 0, "duration": 167}, {"note": 71, "velocity": 108, "duration": 196}, {"note": 69, "velocity": 106, "duration": 162}, {"note": 0, "velocity": 0, "duration": 78}, {"note": 71, "velocity": 110, "duration": 348}, {"note": 0, "velocity": 0, "duration": 132}, {"note": 73, "velocity": 108, "duration": 247}, {"note": 76, "velocity": 93, "duration": 154}, {"note": 0, "velocity": 0, "duration": 86}, {"note": 78, "velocity": 100, "duration": 97}, {"note": 0, "velocity": 0, "duration": 143}, {"note": 78, "velocity": 96, "duration": 84}, {"note": 0, "velocity": 0, "duration": 156}, {"note": 78, "velocity": 102, "duration": 76}, {"note": 0, "velocity": 0, "duration": 164}, {"note": 78, "velocity": 102, "duration": 66}, {"note": 0, "velocity": 0, "duration": 174}, {"note": 78, "velocity": 110, "duration": 161}, {"note": 0, "velocity": 0, "duration": 319}, {"note": 73, "velocity": 110, "duration": 127}, {"note": 0, "velocity": 0, "duration": 113}, {"note": 78, "velocity": 108, "duration": 100}, {"note": 0, "velocity": 0, "duration": 140}, {"note": 76, "velocity": 116, "duration": 419}, {"note": 0, "velocity": 0, "duration": 1501}, {"note": 73, "velocity": 119, "duration": 300}, {"note": 0, "velocity": 0, "duration": 180}, {"note": 78, "velocity": 119, "duration": 256}, {"note": 0, "velocity": 0, "duration": 224}, {"note": 81, "velocity": 119, "duration": 257}, {"note": 0, "velocity": 0, "duration": 223}, {"note": 78, "velocity": 116, "duration": 214}, {"note": 76, "velocity": 110, "duration": 213}, {"note": 73, "velocity": 117, "duration": 210}, {"note": 73, "velocity": 113, "duration": 92}, {"note": 0, "velocity": 0, "duration": 148}, {"note": 73, "velocity": 110, "duration": 199}, {"note": 71, "velocity": 114, "duration": 182}, {"note": 73, "velocity": 117, "duration": 175}, {"note": 0, "velocity": 0, "duration": 65}, {"note": 76, "velocity": 113, "duration": 258}, {"note": 73, "velocity": 110, "duration": 208}, {"note": 69, "velocity": 109, "duration": 231}, {"note": 71, "velocity": 108, "duration": 289}, {"note": 0, "velocity": 0, "duration": 191}, {"note": 71, "velocity": 114, "duration": 239}, {"note": 69, "velocity": 109, "duration": 218}, {"note": 71, "velocity": 114, "duration": 157}, {"note": 0, "velocity": 0, "duration": 323}, {"note": 71, "velocity": 116, "duration": 246}, {"note": 69, "velocity": 113, "duration": 223}, {"note": 71, "velocity": 94, "duration": 183}, {"note": 73, "velocity": 116, "duration": 110}, {"note": 0, "velocity": 0, "duration": 130}, {"note": 73, "velocity": 113, "duration": 211}, {"note": 71, "velocity": 114, "duration": 190}, {"note": 73, "velocity": 119, "duration": 245}, {"note": 0, "velocity": 0, "duration": 715}, {"note": 73, "velocity": 119, "duration": 300}, {"note": 0, "velocity": 0, "duration": 180}, {"note": 78, "velocity": 119, "duration": 256}, {"note": 0, "velocity": 0, "duration": 224}, {"note": 81, "velocity": 119, "duration": 257}, {"note": 0, "velocity": 0, "duration": 223}, {"note": 78, "velocity": 116, "duration": 214}, {"note": 76, "velocity": 110, "duration": 213}, {"note": 73, "velocity": 117, "duration": 210}, {"note": 73, "velocity": 113, "duration": 92}, {"note": 0, "velocity": 0, "duration": 148}, {"note": 73, "velocity": 110, "duration": 199}, {"note": 71, "velocity": 114, "duration": 182}, {"note": 73, "velocity": 117, "duration": 175}, {"note": 0, "velocity": 0, "duration": 65}, {"note": 76, "velocity": 113, "duration": 258}, {"note": 73, "velocity": 110, "duration": 208}, {"note": 69, "velocity": 109, "duration": 231}, {"note": 71, "velocity": 108, "duration": 289}, {"note": 0, "velocity": 0, "duration": 191}, {"note": 71, "velocity": 114, "duration": 239}, {"note": 69, "velocity": 109, "duration": 218}, {"note": 71, "velocity": 114, "duration": 157}, {"note": 0, "velocity": 0, "duration": 323}, {"note": 71, "velocity": 116, "duration": 220}, {"note": 73, "velocity": 108, "duration": 238}, {"note": 71, "velocity": 116, "duration": 236}, {"note": 69, "velocity": 113, "duration": 209}, {"note": 66, "velocity": 108, "duration": 211}, {"note": 64, "velocity": 107, "duration": 198}, {"note": 66, "velocity": 116, "duration": 321}, {"note": 0, "velocity": 0, "duration": 639}, {"note": 73, "velocity": 119, "duration": 300}, {"note": 0, "velocity": 0, "duration": 180}, {"note": 78, "velocity": 119, "duration": 256}, {"note": 0, "velocity": 0, "duration": 224}, {"note": 81, "velocity": 119, "duration": 257}, {"note": 0, "velocity": 0, "duration": 223}, {"note": 78, "velocity": 116, "duration": 214}, {"note": 76, "velocity": 110, "duration": 213}, {"note": 73, "velocity": 117, "duration": 210}, {"note": 73, "velocity": 113, "duration": 92}, {"note": 0, "velocity": 0, "duration": 148}, {"note": 73, "velocity": 110, "duration": 199}, {"note": 71, "velocity": 114, "duration": 182}, {"note": 73, "velocity": 117, "duration": 175}, {"note": 0, "velocity": 0, "duration": 65}, {"note": 76, "velocity": 113, "duration": 258}, {"note": 73, "velocity": 110, "duration": 208}, {"note": 69, "velocity": 109, "duration": 231}, {"note": 71, "velocity": 108, "duration": 289}, {"note": 0, "velocity": 0, "duration": 191}, {"note": 71, "velocity": 114, "duration": 239}, {"note": 69, "velocity": 109, "duration": 218}, {"note": 71, "velocity": 114, "duration": 157}, {"note": 0, "velocity": 0, "duration": 323}, {"note": 71, "velocity": 116, "duration": 246}, {"note": 69, "velocity": 113, "duration": 223}, {"note": 71, "velocity": 94, "duration": 183}, {"note": 73, "velocity": 116, "duration": 110}, {"note": 0, "velocity": 0, "duration": 130}, {"note": 73, "velocity": 113, "duration": 211}, {"note": 76, "velocity": 114, "duration": 190}, {"note": 73, "velocity": 119, "duration": 245}, {"note": 0, "velocity": 0, "duration": 715}, {"note": 73, "velocity": 119, "duration": 300}, {"note": 0, "velocity": 0, "duration": 180}, {"note": 78, "velocity": 119, "duration": 256}, {"note": 0, "velocity": 0, "duration": 224}, {"note": 81, "velocity": 119, "duration": 257}, {"note": 0, "velocity": 0, "duration": 223}, {"note": 78, "velocity": 116, "duration": 214}, {"note": 76, "velocity": 110, "duration": 213}, {"note": 73, "velocity": 117, "duration": 210}, {"note": 73, "velocity": 113, "duration": 92}, {"note": 0, "velocity": 0, "duration": 148}, {"note": 73, "velocity": 110, "duration": 199}, {"note": 71, "velocity": 114, "duration": 182}, {"note": 73, "velocity": 117, "duration": 175}, {"note": 0, "velocity": 0, "duration": 65}, {"note": 76, "velocity": 113, "duration": 258}, {"note": 73, "velocity": 110, "duration": 208}, {"note": 69, "velocity": 109, "duration": 231}, {"note": 71, "velocity": 108, "duration": 289}, {"note": 0, "velocity": 0, "duration": 191}, {"note": 71, "velocity": 114, "duration": 239}, {"note": 69, "velocity": 109, "duration": 218}, {"note": 71, "velocity": 114, "duration": 157}, {"note": 0, "velocity": 0, "duration": 323}, {"note": 73, "velocity": 116, "duration": 220}, {"note": 0, "velocity": 0, "duration": 260}, {"note": 64, "velocity": 116, "duration": 236}, {"note": 69, "velocity": 113, "duration": 209}, {"note": 66, "velocity": 108, "duration": 211}, {"note": 64, "velocity": 107, "duration": 198}, {"note": 66, "velocity": 116, "duration": 321}, {"note": 0, "velocity": 0, "duration": 15999}, {"note": 66, "velocity": 119, "duration": 758}, {"note": 0, "velocity": 0, "duration": 202}, {"note": 73, "velocity": 119, "duration": 755}, {"note": 0, "velocity": 0, "duration": 205}, {"note": 66, "velocity": 120, "duration": 575}, {"note": 69, "velocity": 119, "duration": 462}, {"note": 66, "velocity": 110, "duration": 470}, {"note": 64, "velocity": 117, "duration": 435}, {"note": 61, "velocity": 113, "duration": 434}, {"note": 0, "velocity": 0, "duration": 1966}, {"note": 73, "velocity": 117, "duration": 562}, {"note": 71, "velocity": 107, "duration": 520}, {"note": 69, "velocity": 119, "duration": 466}, {"note": 64, "velocity": 117, "duration": 538}, {"note": 0, "velocity": 0, "duration": 422}, {"note": 71, "velocity": 114, "duration": 419}, {"note": 0, "velocity": 0, "duration": 541}, {"note": 64, "velocity": 107, "duration": 479}, {"note": 68, "velocity": 114, "duration": 483}, {"note": 66, "velocity": 100, "duration": 443}, {"note": 64, "velocity": 113, "duration": 485}, {"note": 66, "velocity": 108, "duration": 366}, {"note": 0, "velocity": 0, "duration": 3474}, {"note": 66, "velocity": 119, "duration": 758}, {"note": 0, "velocity": 0, "duration": 202}, {"note": 73, "velocity": 119, "duration": 755}, {"note": 0, "velocity": 0, "duration": 205}, {"note": 66, "velocity": 120, "duration": 575}, {"note": 69, "velocity": 119, "duration": 462}, {"note": 66, "velocity": 110, "duration": 470}, {"note": 64, "velocity": 117, "duration": 435}, {"note": 61, "velocity": 113, "duration": 434}, {"note": 0, "velocity": 0, "duration": 1966}, {"note": 73, "velocity": 117, "duration": 562}, {"note": 71, "velocity": 107, "duration": 520}, {"note": 69, "velocity": 119, "duration": 466}, {"note": 64, "velocity": 117, "duration": 538}, {"note": 0, "velocity": 0, "duration": 422}, {"note": 71, "velocity": 114, "duration": 419}, {"note": 0, "velocity": 0, "duration": 541}, {"note": 64, "velocity": 107, "duration": 479}, {"note": 68, "velocity": 114, "duration": 483}, {"note": 66, "velocity": 100, "duration": 443}, {"note": 64, "velocity": 113, "duration": 485}, {"note": 66, "velocity": 108, "duration": 366}, {"note": 0, "velocity": 0, "duration": 3474}, {"note": 69, "velocity": 119, "duration": 90}, {"note": 0, "velocity": 0, "duration": 150}, {"note": 69, "velocity": 106, "duration": 80}, {"note": 0, "velocity": 0, "duration": 160}, {"note": 69, "velocity": 109, "duration": 169}, {"note": 0, "velocity": 0, "duration": 71}, {"note": 64, "velocity": 108, "duration": 208}, {"note": 69, "velocity": 113, "duration": 273}, {"note": 0, "velocity": 0, "duration": 207}, {"note": 71, "velocity": 107, "duration": 115}, {"note": 0, "velocity": 0, "duration": 125}, {"note": 73, "velocity": 102, "duration": 140}, {"note": 0, "velocity": 0, "duration": 100}, {"note": 71, "velocity": 98, "duration": 85}, {"note": 0, "velocity": 0, "duration": 155}, {"note": 71, "velocity": 100, "duration": 78}, {"note": 0, "velocity": 0, "duration": 162}, {"note": 71, "velocity": 104, "duration": 129}, {"note": 0, "velocity": 0, "duration": 111}, {"note": 69, "velocity": 109, "duration": 105}, {"note": 0, "velocity": 0, "duration": 135}, {"note": 71, "velocity": 110, "duration": 269}, {"note": 0, "velocity": 0, "duration": 691}, {"note": 71, "velocity": 110, "duration": 84}, {"note": 0, "velocity": 0, "duration": 156}, {"note": 71, "velocity": 96, "duration": 78}, {"note": 0, "velocity": 0, "duration": 162}, {"note": 71, "velocity": 102, "duration": 171}, {"note": 0, "velocity": 0, "duration": 69}, {"note": 69, "velocity": 113, "duration": 159}, {"note": 0, "velocity": 0, "duration": 81}, {"note": 71, "velocity": 107, "duration": 242}, {"note": 0, "velocity": 0, "duration": 238}, {"note": 73, "velocity": 114, "duration": 271}, {"note": 0, "velocity": 0, "duration": 209}, {"note": 66, "velocity": 108, "duration": 75}, {"note": 0, "velocity": 0, "duration": 165}, {"note": 66, "velocity": 104, "duration": 75}, {"note": 0, "velocity": 0, "duration": 165}, {"note": 66, "velocity": 102, "duration": 213}, {"note": 64, "velocity": 100, "duration": 276}, {"note": 66, "velocity": 96, "duration": 305}, {"note": 0, "velocity": 0, "duration": 655}, {"note": 69, "velocity": 113, "duration": 73}, {"note": 0, "velocity": 0, "duration": 167}, {"note": 69, "velocity": 109, "duration": 76}, {"note": 0, "velocity": 0, "duration": 164}, {"note": 69, "velocity": 109, "duration": 197}, {"note": 64, "velocity": 110, "duration": 236}, {"note": 69, "velocity": 116, "duration": 252}, {"note": 0, "velocity": 0, "duration": 228}, {"note": 73, "velocity": 119, "duration": 311}, {"note": 0, "velocity": 0, "duration": 169}, {"note": 71, "velocity": 108, "duration": 74}, {"note": 0, "velocity": 0, "duration": 166}, {"note": 71, "velocity": 107, "duration": 73}, {"note": 0, "velocity": 0, "duration": 167}, {"note": 71, "velocity": 108, "duration": 196}, {"note": 69, "velocity": 106, "duration": 162}, {"note": 0, "velocity": 0, "duration": 78}, {"note": 71, "velocity": 110, "duration": 348}, {"note": 0, "velocity": 0, "duration": 132}, {"note": 73, "velocity": 108, "duration": 247}, {"note": 76, "velocity": 93, "duration": 154}, {"note": 0, "velocity": 0, "duration": 86}, {"note": 78, "velocity": 100, "duration": 97}, {"note": 0, "velocity": 0, "duration": 143}, {"note": 78, "velocity": 96, "duration": 84}, {"note": 0, "velocity": 0, "duration": 156}, {"note": 78, "velocity": 102, "duration": 76}, {"note": 0, "velocity": 0, "duration": 164}, {"note": 78, "velocity": 102, "duration": 66}, {"note": 0, "velocity": 0, "duration": 174}, {"note": 78, "velocity": 110, "duration": 161}, {"note": 0, "velocity": 0, "duration": 319}, {"note": 73, "velocity": 110, "duration": 127}, {"note": 0, "velocity": 0, "duration": 113}, {"note": 78, "velocity": 108, "duration": 100}, {"note": 0, "velocity": 0, "duration": 140}, {"note": 76, "velocity": 116, "duration": 419}, {"note": 0, "velocity": 0, "duration": 1501}, {"note": 73, "velocity": 119, "duration": 300}, {"note": 0, "velocity": 0, "duration": 180}, {"note": 78, "velocity": 119, "duration": 256}, {"note": 0, "velocity": 0, "duration": 224}, {"note": 81, "velocity": 119, "duration": 257}, {"note": 0, "velocity": 0, "duration": 223}, {"note": 78, "velocity": 116, "duration": 214}, {"note": 76, "velocity": 110, "duration": 213}, {"note": 73, "velocity": 117, "duration": 210}, {"note": 73, "velocity": 113, "duration": 92}, {"note": 0, "velocity": 0, "duration": 148}, {"note": 73, "velocity": 110, "duration": 199}, {"note": 71, "velocity": 114, "duration": 182}, {"note": 73, "velocity": 117, "duration": 175}, {"note": 0, "velocity": 0, "duration": 65}, {"note": 76, "velocity": 113, "duration": 258}, {"note": 73, "velocity": 110, "duration": 208}, {"note": 69, "velocity": 109, "duration": 231}, {"note": 71, "velocity": 108, "duration": 289}, {"note": 0, "velocity": 0, "duration": 191}, {"note": 71, "velocity": 114, "duration": 239}, {"note": 69, "velocity": 109, "duration": 218}, {"note": 71, "velocity": 114, "duration": 157}, {"note": 0, "velocity": 0, "duration": 323}, {"note": 71, "velocity": 116, "duration": 246}, {"note": 69, "velocity": 113, "duration": 223}, {"note": 71, "velocity": 94, "duration": 183}, {"note": 73, "velocity": 116, "duration": 110}, {"note": 0, "velocity": 0, "duration": 130}, {"note": 73, "velocity": 113, "duration": 211}, {"note": 71, "velocity": 114, "duration": 190}, {"note": 73, "velocity": 119, "duration": 245}, {"note": 0, "velocity": 0, "duration": 715}, {"note": 73, "velocity": 119, "duration": 300}, {"note": 0, "velocity": 0, "duration": 180}, {"note": 78, "velocity": 119, "duration": 256}, {"note": 0, "velocity": 0, "duration": 224}, {"note": 81, "velocity": 119, "duration": 257}, {"note": 0, "velocity": 0, "duration": 223}, {"note": 78, "velocity": 116, "duration": 214}, {"note": 76, "velocity": 110, "duration": 213}, {"note": 73, "velocity": 117, "duration": 210}, {"note": 73, "velocity": 113, "duration": 92}, {"note": 0, "velocity": 0, "duration": 148}, {"note": 73, "velocity": 110, "duration": 199}, {"note": 71, "velocity": 114, "duration": 182}, {"note": 73, "velocity": 117, "duration": 175}, {"note": 0, "velocity": 0, "duration": 65}, {"note": 76, "velocity": 113, "duration": 258}, {"note": 73, "velocity": 110, "duration": 208}, {"note": 69, "velocity": 109, "duration": 231}, {"note": 71, "velocity": 108, "duration": 289}, {"note": 0, "velocity": 0, "duration": 191}, {"note": 71, "velocity": 114, "duration": 239}, {"note": 69, "velocity": 109, "duration": 218}, {"note": 71, "velocity": 114, "duration": 157}, {"note": 0, "velocity": 0, "duration": 323}, {"note": 71, "velocity": 116, "duration": 220}, {"note": 73, "velocity": 108, "duration": 238}, {"note": 71, "velocity": 116, "duration": 236}, {"note": 69, "velocity": 113, "duration": 209}, {"note": 66, "velocity": 108, "duration": 211}, {"note": 64, "velocity": 107, "duration": 198}, {"note": 66, "velocity": 116, "duration": 321}, {"note": 0, "velocity": 0, "duration": 639}, {"note": 73, "velocity": 119, "duration": 300}, {"note": 0, "velocity": 0, "duration": 180}, {"note": 78, "velocity": 119, "duration": 256}, {"note": 0, "velocity": 0, "duration": 224}, {"note": 81, "velocity": 119, "duration": 257}, {"note": 0, "velocity": 0, "duration": 223}, {"note": 78, "velocity": 116, "duration": 214}, {"note": 76, "velocity": 110, "duration": 213}, {"note": 73, "velocity": 117, "duration": 210}, {"note": 73, "velocity": 113, "duration": 92}, {"note": 0, "velocity": 0, "duration": 148}, {"note": 73, "velocity": 110, "duration": 199}, {"note": 71, "velocity": 114, "duration": 182}, {"note": 73, "velocity": 117, "duration": 175}, {"note": 0, "velocity": 0, "duration": 65}, {"note": 76, "velocity": 113, "duration": 258}, {"note": 73, "velocity": 110, "duration": 208}, {"note": 69, "velocity": 109, "duration": 231}, {"note": 71, "velocity": 108, "duration": 289}, {"note": 0, "velocity": 0, "duration": 191}, {"note": 71, "velocity": 114, "duration": 239}, {"note": 69, "velocity": 109, "duration": 218}, {"note": 71, "velocity": 114, "duration": 157}, {"note": 0, "velocity": 0, "duration": 323}, {"note": 71, "velocity": 116, "duration": 246}, {"note": 69, "velocity": 113, "duration": 223}, {"note": 71, "velocity": 94, "duration": 183}, {"note": 73, "velocity": 116, "duration": 110}, {"note": 0, "velocity": 0, "duration": 130}, {"note": 73, "velocity": 113, "duration": 211}, {"note": 76, "velocity": 114, "duration": 190}, {"note": 73, "velocity": 119, "duration": 245}, {"note": 0, "velocity": 0, "duration": 715}, {"note": 73, "velocity": 119, "duration": 300}, {"note": 0, "velocity": 0, "duration": 180}, {"note": 78, "velocity": 119, "duration": 256}, {"note": 0, "velocity": 0, "duration": 224}, {"note": 81, "velocity": 119, "duration": 257}, {"note": 0, "velocity": 0, "duration": 223}, {"note": 78, "velocity": 116, "duration": 214}, {"note": 76, "velocity": 110, "duration": 213}, {"note": 73, "velocity": 117, "duration": 210}, {"note": 73, "velocity": 113, "duration": 92}, {"note": 0, "velocity": 0, "duration": 148}, {"note": 73, "velocity": 110, "duration": 199}, {"note": 71, "velocity": 114, "duration": 182}, {"note": 73, "velocity": 117, "duration": 175}, {"note": 0, "velocity": 0, "duration": 65}, {"note": 76, "velocity": 113, "duration": 258}, {"note": 73, "velocity": 110, "duration": 208}, {"note": 69, "velocity": 109, "duration": 231}, {"note": 71, "velocity": 108, "duration": 289}, {"note": 0, "velocity": 0, "duration": 191}, {"note": 71, "velocity": 114, "duration": 239}, {"note": 69, "velocity": 109, "duration": 218}, {"note": 71, "velocity": 114, "duration": 157}, {"note": 0, "velocity": 0, "duration": 323}, {"note": 73, "velocity": 116, "duration": 220}, {"note": 0, "velocity": 0, "duration": 260}, {"note": 64, "velocity": 116, "duration": 236}, {"note": 69, "velocity": 113, "duration": 209}, {"note": 66, "velocity": 108, "duration": 211}, {"note": 64, "velocity": 107, "duration": 198}, {"note": 66, "velocity": 116, "duration": 321}, {"note": 0, "velocity": 0, "duration": 15999}, {"note": 73, "velocity": 119, "duration": 300}, {"note": 0, "velocity": 0, "duration": 180}, {"note": 78, "velocity": 119, "duration": 256}, {"note": 0, "velocity": 0, "duration": 224}, {"note": 81, "velocity": 119, "duration": 257}, {"note": 0, "velocity": 0, "duration": 223}, {"note": 78, "velocity": 116, "duration": 214}, {"note": 76, "velocity": 110, "duration": 213}, {"note": 73, "velocity": 117, "duration": 210}, {"note": 73, "velocity": 113, "duration": 92}, {"note": 0, "velocity": 0, "duration": 148}, {"note": 73, "velocity": 110, "duration": 199}, {"note": 71, "velocity": 114, "duration": 182}, {"note": 73, "velocity": 117, "duration": 175}, {"note": 0, "velocity": 0, "duration": 65}, {"note": 76, "velocity": 113, "duration": 258}, {"note": 73, "velocity": 110, "duration": 208}, {"note": 69, "velocity": 109, "duration": 231}, {"note": 71, "velocity": 108, "duration": 289}, {"note": 0, "velocity": 0, "duration": 191}, {"note": 71, "velocity": 114, "duration": 239}, {"note": 69, "velocity": 109, "duration": 218}, {"note": 71, "velocity": 114, "duration": 157}, {"note": 0, "velocity": 0, "duration": 323}, {"note": 71, "velocity": 116, "duration": 246}, {"note": 69, "velocity": 113, "duration": 223}, {"note": 71, "velocity": 94, "duration": 183}, {"note": 73, "velocity": 116, "duration": 110}, {"note": 0, "velocity": 0, "duration": 130}, {"note": 73, "velocity": 113, "duration": 211}, {"note": 71, "velocity": 114, "duration": 190}, {"note": 73, "velocity": 119, "duration": 245}, {"note": 0, "velocity": 0, "duration": 715}, {"note": 73, "velocity": 119, "duration": 300}, {"note": 0, "velocity": 0, "duration": 180}, {"note": 78, "velocity": 119, "duration": 256}, {"note": 0, "velocity": 0, "duration": 224}, {"note": 81, "velocity": 119, "duration": 257}, {"note": 0, "velocity": 0, "duration": 223}, {"note": 78, "velocity": 116, "duration": 214}, {"note": 76, "velocity": 110, "duration": 213}, {"note": 73, "velocity": 117, "duration": 210}, {"note": 73, "velocity": 113, "duration": 92}, {"note": 0, "velocity": 0, "duration": 148}, {"note": 73, "velocity": 110, "duration": 199}, {"note": 71, "velocity": 114, "duration": 182}, {"note": 73, "velocity": 117, "duration": 175}, {"note": 0, "velocity": 0, "duration": 65}, {"note": 76, "velocity": 113, "duration": 258}, {"note": 73, "velocity": 110, "duration": 208}, {"note": 69, "velocity": 109, "duration": 231}, {"note": 71, "velocity": 108, "duration": 289}, {"note": 0, "velocity": 0, "duration": 191}, {"note": 71, "velocity": 114, "duration": 239}, {"note": 69, "velocity": 109, "duration": 218}, {"note": 71, "velocity": 114, "duration": 157}, {"note": 0, "velocity": 0, "duration": 323}, {"note": 71, "velocity": 116, "duration": 220}, {"note": 73, "velocity": 108, "duration": 238}, {"note": 71, "velocity": 116, "duration": 236}, {"note": 69, "velocity": 113, "duration": 209}, {"note": 66, "velocity": 108, "duration": 211}, {"note": 64, "velocity": 107, "duration": 198}, {"note": 66, "velocity": 116, "duration": 321}, {"note": 0, "velocity": 0, "duration": 639}, {"note": 73, "velocity": 119, "duration": 300}, {"note": 0, "velocity": 0, "duration": 180}, {"note": 78, "velocity": 119, "duration": 256}, {"note": 0, "velocity": 0, "duration": 224}, {"note": 81, "velocity": 119, "duration": 257}, {"note": 0, "velocity": 0, "duration": 223}, {"note": 78, "velocity": 116, "duration": 214}, {"note": 76, "velocity": 110, "duration": 213}, {"note": 73, "velocity": 117, "duration": 210}, {"note": 73, "velocity": 113, "duration": 92}, {"note": 0, "velocity": 0, "duration": 148}, {"note": 73, "velocity": 110, "duration": 199}, {"note": 71, "velocity": 114, "duration": 182}, {"note": 73, "velocity": 117, "duration": 175}, {"note": 0, "velocity": 0, "duration": 65}, {"note": 76, "velocity": 113, "duration": 258}, {"note": 73, "velocity": 110, "duration": 208}, {"note": 69, "velocity": 109, "duration": 231}, {"note": 71, "velocity": 108, "duration": 289}, {"note": 0, "velocity": 0, "duration": 191}, {"note": 71, "velocity": 114, "duration": 239}, {"note": 69, "velocity": 109, "duration": 218}, {"note": 71, "velocity": 114, "duration": 157}, {"note": 0, "velocity": 0, "duration": 323}, {"note": 71, "velocity": 116, "duration": 246}, {"note": 69, "velocity": 113, "duration": 223}, {"note": 71, "velocity": 94, "duration": 183}, {"note": 73, "velocity": 116, "duration": 110}, {"note": 0, "velocity": 0, "duration": 130}, {"note": 73, "velocity": 113, "duration": 211}, {"note": 76, "velocity": 114, "duration": 190}, {"note": 73, "velocity": 119, "duration": 245}, {"note": 0, "velocity": 0, "duration": 715}, {"note": 73, "velocity": 119, "duration": 300}, {"note": 0, "velocity": 0, "duration": 180}, {"note": 78, "velocity": 119, "duration": 256}, {"note": 0, "velocity": 0, "duration": 224}, {"note": 81, "velocity": 119, "duration": 257}, {"note": 0, "velocity": 0, "duration": 223}, {"note": 78, "velocity": 116, "duration": 214}, {"note": 76, "velocity": 110, "duration": 213}, {"note": 73, "velocity": 117, "duration": 210}, {"note": 73, "velocity": 113, "duration": 92}, {"note": 0, "velocity": 0, "duration": 148}, {"note": 73, "velocity": 110, "duration": 199}, {"note": 71, "velocity": 114, "duration": 182}, {"note": 73, "velocity": 117, "duration": 175}, {"note": 0, "velocity": 0, "duration": 65}, {"note": 76, "velocity": 113, "duration": 258}, {"note": 73, "velocity": 110, "duration": 208}, {"note": 69, "velocity": 109, "duration": 231}, {"note": 71, "velocity": 108, "duration": 289}, {"note": 0, "velocity": 0, "duration": 191}, {"note": 71, "velocity": 114, "duration": 239}, {"note": 69, "velocity": 109, "duration": 218}, {"note": 71, "velocity": 114, "duration": 157}, {"note": 0, "velocity": 0, "duration": 323}, {"note": 73, "velocity": 116, "duration": 220}, {"note": 0, "velocity": 0, "duration": 260}, {"note": 64, "velocity": 116, "duration": 236}, {"note": 69, "velocity": 113, "duration": 209}, {"note": 66, "velocity": 108, "duration": 211}, {"note": 64, "velocity": 107, "duration": 198}, {"note": 66, "velocity": 116, "duration": 321}, {"note": 0, "velocity": 0, "duration": 639}, {"note": 66, "velocity": 110, "duration": 295}, {"note": 0, "velocity": 0, "duration": 185}, {"note": 66, "velocity": 107, "duration": 107}, {"note": 0, "velocity": 0, "duration": 133}, {"note": 66, "velocity": 107, "duration": 111}, {"note": 0, "velocity": 0, "duration": 129}, {"note": 73, "velocity": 117, "duration": 337}, {"note": 0, "velocity": 0, "duration": 143}, {"note": 69, "velocity": 116, "duration": 289}, {"note": 0, "velocity": 0, "duration": 191}, {"note": 66, "velocity": 117, "duration": 391}, {"note": 0, "velocity": 0, "duration": 569}, {"note": 73, "velocity": 117, "duration": 348}, {"note": 0, "velocity": 0, "duration": 132}, {"note": 76, "velocity": 119, "duration": 278}, {"note": 0, "velocity": 0, "duration": 202}, {"note": 66, "velocity": 117, "duration": 178}, {"note": 0, "velocity": 0, "duration": 62}, {"note": 69, "velocity": 109, "duration": 196}, {"note": 66, "velocity": 108, "duration": 223}, {"note": 64, "velocity": 108, "duration": 221}, {"note": 61, "velocity": 114, "duration": 273}, {"note": 0, "velocity": 0, "duration": 207}, {"note": 71, "velocity": 110, "duration": 191}, {"note": 69, "velocity": 100, "duration": 219}, {"note": 66, "velocity": 108, "duration": 360}]]