[[{"note": 81, "velocity": 119, "duration": 436}, {"note": 0, "velocity": 0, "duration": 284}, {"note": 72, "velocity": 110, "duration": 196}, {"note": 74, "velocity": 110, "duration": 225}, {"note": 77, "velocity": 110, "duration": 217}, {"note": 79, "velocity": 108, "duration": 238}, {"note": 77, "velocity": 110, "duration": 179}, {"note": 0, "velocity": 0, "duration": 61}, {"note": 77, "velocity": 117, "duration": 316}, {"note": 0, "velocity": 0, "duration": 1124}, {"note": 74, "velocity": 116, "duration": 244}, {"note": 77, "velocity": 114, "duration": 112}, {"note": 0, "velocity": 0, "duration": 128}, {"note": 79, "velocity": 116, "duration": 267}, {"note": 0, "velocity": 0, "duration": 213}, {"note": 77, "velocity": 113, "duration": 190}, {"note": 79, "velocity": 113, "duration": 183}, {"note": 81, "velocity": 116, "duration": 208}, {"note": 84, "velocity": 98, "duration": 165}, {"note": 0, "velocity": 0, "duration": 315}, {"note": 74, "velocity": 107, "duration": 200}, {"note": 72, "velocity": 107, "duration": 300}, {"note": 0, "velocity": 0, "duration": 1620}, {"note": 74, "velocity": 113, "duration": 449}, {"note": 0, "velocity": 0, "duration": 271}, {"note": 79, "velocity": 113, "duration": 198}, {"note": 74, "velocity": 108, "duration": 351}, {"note": 0, "velocity": 0, "duration": 129}, {"note": 72, "velocity": 116, "duration": 306}, {"note": 0, "velocity": 0, "duration": 174}, {"note": 77, "velocity": 114, "duration": 337}, {"note": 0, "velocity": 0, "duration": 143}, {"note": 77, "velocity": 114, "duration": 182}, {"note": 79, "velocity": 102, "duration": 275}, {"note": 81, "velocity": 116, "duration": 220}, {"note": 0, "velocity": 0, "duration": 740}, {"note": 84, "velocity": 116, "duration": 386}, {"note": 0, "velocity": 0, "duration": 94}, {"note": 89, "velocity": 117, "duration": 412}, {"note": 0, "velocity": 0, "duration": 68}, {"note": 86, "velocity": 116, "duration": 431}, {"note": 84, "velocity": 114, "duration": 180}, {"note": 81, "velocity": 114, "duration": 180}, {"note": 79, "velocity": 114, "duration": 321}, {"note": 0, "velocity": 0, "duration": 1599}, {"note": 81, "velocity": 114, "duration": 261}, {"note": 0, "velocity": 0, "duration": 99}, {"note": 81, "velocity": 102, "duration": 58}, {"note": 0, "velocity": 0, "duration": 62}, {"note": 81, "velocity": 113, "duration": 182}, {"note": 72, "velocity": 116, "duration": 219}, {"note": 74, "velocity": 116, "duration": 174}, {"note": 0, "velocity": 0, "duration": 66}, {"note": 77, "velocity": 114, "duration": 152}, {"note": 0, "velocity": 0, "duration": 88}, {"note": 79, "velocity": 108, "duration": 232}, {"note": 77, "velocity": 96, "duration": 163}, {"note": 0, "velocity": 0, "duration": 77}, {"note": 77, "velocity": 113, "duration": 394}, {"note": 0, "velocity": 0, "duration": 1046}, {"note": 74, "velocity": 113, "duration": 216}, {"note": 77, "velocity": 113, "duration": 175}, {"note": 0, "velocity": 0, "duration": 65}, {"note": 79, "velocity": 116, "duration": 244}, {"note": 0, "velocity": 0, "duration": 116}, {"note": 79, "velocity": 107, "duration": 67}, {"note": 81, "velocity": 107, "duration": 106}, {"note": 0, "velocity": 0, "duration": 134}, {"note": 84, "velocity": 113, "duration": 141}, {"note": 0, "velocity": 0, "duration": 99}, {"note": 81, "velocity": 114, "duration": 183}, {"note": 79, "velocity": 98, "duration": 141}, {"note": 0, "velocity": 0, "duration": 99}, {"note": 79, "velocity": 100, "duration": 240}, {"note": 76, "velocity": 98, "duration": 220}, {"note": 74, "velocity": 98, "duration": 311}, {"note": 0, "velocity": 0, "duration": 1609}, {"note": 77, "velocity": 116, "duration": 417}, {"note": 0, "velocity": 0, "duration": 303}, {"note": 74, "velocity": 117, "duration": 239}, {"note": 72, "velocity": 116, "duration": 228}, {"note": 0, "velocity": 0, "duration": 252}, {"note": 84, "velocity": 113, "duration": 337}, {"note": 0, "velocity": 0, "duration": 143}, {"note": 86, "velocity": 110, "duration": 327}, {"note": 0, "velocity": 0, "duration": 153}, {"note": 86, "velocity": 113, "duration": 188}, {"note": 89, "velocity": 114, "duration": 220}, {"note": 86, "velocity": 117, "duration": 263}, {"note": 0, "velocity": 0, "duration": 217}, {"note": 81, "velocity": 117, "duration": 120}, {"note": 0, "velocity": 0, "duration": 120}, {"note": 81, "velocity": 114, "duration": 207}, {"note": 79, "velocity": 113, "duration": 252}, {"note": 0, "velocity": 0, "duration": 468}, {"note": 81, "velocity": 113, "duration": 240}, {"note": 79, "velocity": 110, "duration": 248}, {"note": 81, "velocity": 104, "duration": 215}, {"note": 72, "velocity": 116, "duration": 272}, {"note": 74, "velocity": 102, "duration": 232}, {"note": 77, "velocity": 114, "duration": 457}, {"note": 0, "velocity": 0, "duration": 1463}, {"note": 89, "velocity": 116, "duration": 489}, {"note": 0, "velocity": 0, "duration": 231}, {"note": 89, "velocity": 117, "duration": 184}, {"note": 88, "velocity": 117, "duration": 310}, {"note": 0, "velocity": 0, "duration": 170}, {"note": 86, "velocity": 119, "duration": 213}, {"note": 84, "velocity": 114, "duration": 193}, {"note": 86, "velocity": 117, "duration": 377}, {"note": 0, "velocity": 0, "duration": 343}, {"note": 84, "velocity": 119, "duration": 244}, {"note": 81, "velocity": 119, "duration": 365}, {"note": 0, "velocity": 0, "duration": 595}, {"note": 84, "velocity": 117, "duration": 209}, {"note": 86, "velocity": 116, "duration": 300}, {"note": 0, "velocity": 0, "duration": 180}, {"note": 84, "velocity": 119, "duration": 138}, {"note": 0, "velocity": 0, "duration": 102}, {"note": 84, "velocity": 120, "duration": 217}, {"note": 0, "velocity": 0, "duration": 263}, {"note": 81, "velocity": 113, "duration": 229}, {"note": 79, "velocity": 114, "duration": 150}, {"note": 0, "velocity": 0, "duration": 90}, {"note": 79, "velocity": 117, "duration": 377}, {"note": 0, "velocity": 0, "duration": 1543}, {"note": 81, "velocity": 117, "duration": 211}, {"note": 84, "velocity": 116, "duration": 275}, {"note": 0, "velocity": 0, "duration": 445}, {"note": 81, "velocity": 114, "duration": 218}, {"note": 79, "velocity": 104, "duration": 239}, {"note": 77, "velocity": 114, "duration": 278}, {"note": 0, "velocity": 0, "duration": 202}, {"note": 77, "velocity": 116, "duration": 193}, {"note": 79, "velocity": 114, "duration": 318}, {"note": 0, "velocity": 0, "duration": 162}, {"note": 77, "velocity": 116, "duration": 236}, {"note": 74, "velocity": 116, "duration": 224}, {"note": 0, "velocity": 0, "duration": 736}, {"note": 76, "velocity": 117, "duration": 417}, {"note": 0, "velocity": 0, "duration": 303}, {"note": 79, "velocity": 113, "duration": 163}, {"note": 0, "velocity": 0, "duration": 77}, {"note": 74, "velocity": 114, "duration": 218}, {"note": 76, "velocity": 94, "duration": 194}, {"note": 74, "velocity": 113, "duration": 220}, {"note": 72, "velocity": 104, "duration": 125}, {"note": 0, "velocity": 0, "duration": 115}, {"note": 84, "velocity": 117, "duration": 338}, {"note": 0, "velocity": 0, "duration": 1582}, {"note": 86, "velocity": 116, "duration": 180}, {"note": 89, "velocity": 116, "duration": 180}, {"note": 0, "velocity": 0, "duration": 300}, {"note": 89, "velocity": 117, "duration": 184}, {"note": 88, "velocity": 117, "duration": 310}, {"note": 0, "velocity": 0, "duration": 170}, {"note": 86, "velocity": 119, "duration": 213}, {"note": 84, "velocity": 114, "duration": 193}, {"note": 86, "velocity": 117, "duration": 180}, {"note": 86, "velocity": 117, "duration": 180}, {"note": 0, "velocity": 0, "duration": 300}, {"note": 84, "velocity": 119, "duration": 244}, {"note": 81, "velocity": 119, "duration": 365}, {"note": 0, "velocity": 0, "duration": 595}, {"note": 84, "velocity": 116, "duration": 181}, {"note": 84, "velocity": 117, "duration": 277}, {"note": 0, "velocity": 0, "duration": 203}, {"note": 81, "velocity": 116, "duration": 230}, {"note": 84, "velocity": 110, "duration": 160}, {"note": 0, "velocity": 0, "duration": 80}, {"note": 86, "velocity": 113, "duration": 168}, {"note": 0, "velocity": 0, "duration": 72}, {"note": 88, "velocity": 117, "duration": 183}, {"note": 89, "velocity": 108, "duration": 152}, {"note": 88, "velocity": 104, "duration": 84}, {"note": 86, "velocity": 116, "duration": 280}, {"note": 0, "velocity": 0, "duration": 1640}, {"note": 81, "velocity": 117, "duration": 211}, {"note": 84, "velocity": 116, "duration": 275}, {"note": 0, "velocity": 0, "duration": 205}, {"note": 81, "velocity": 114, "duration": 203}, {"note": 79, "velocity": 113, "duration": 216}, {"note": 81, "velocity": 113, "duration": 198}, {"note": 84, "velocity": 117, "duration": 230}, {"note": 0, "velocity": 0, "duration": 250}, {"note": 81, "velocity": 117, "duration": 266}, {"note": 0, "velocity": 0, "duration": 94}, {"note": 79, "velocity": 94, "duration": 121}, {"note": 77, "velocity": 102, "duration": 201}, {"note": 79, "velocity": 107, "duration": 173}, {"note": 0, "velocity": 0, "duration": 67}, {"note": 79, "velocity": 110, "duration": 240}, {"note": 76, "velocity": 110, "duration": 229}, {"note": 0, "velocity": 0, "duration": 491}, {"note": 74, "velocity": 116, "duration": 209}, {"note": 0, "velocity": 0, "duration": 151}, {"note": 74, "velocity": 114, "duration": 237}, {"note": 0, "velocity": 0, "duration": 123}, {"note": 77, "velocity": 108, "duration": 172}, {"note": 0, "velocity": 0, "duration": 68}, {"note": 72, "velocity": 116, "duration": 259}, {"note": 0, "velocity": 0, "duration": 221}, {"note": 72, "velocity": 108, "duration": 242}, {"note": 74, "velocity": 98, "duration": 227}, {"note": 77, "velocity": 107, "duration": 478}, {"note": 0, "velocity": 0, "duration": 16772}, {"note": 81, "velocity": 119, "duration": 436}, {"note": 0, "velocity": 0, "duration": 284}, {"note": 72, "velocity": 110, "duration": 196}, {"note": 74, "velocity": 110, "duration": 225}, {"note": 77, "velocity": 110, "duration": 217}, {"note": 79, "velocity": 108, "duration": 238}, {"note": 77, "velocity": 110, "duration": 179}, {"note": 0, "velocity": 0, "duration": 61}, {"note": 77, "velocity": 117, "duration": 316}, {"note": 0, "velocity": 0, "duration": 1124}, {"note": 74, "velocity": 116, "duration": 244}, {"note": 77, "velocity": 114, "duration": 112}, {"note": 0, "velocity": 0, "duration": 128}, {"note": 79, "velocity": 116, "duration": 267}, {"note": 0, "velocity": 0, "duration": 213}, {"note": 77, "velocity": 113, "duration": 190}, {"note": 79, "velocity": 113, "duration": 183}, {"note": 81, "velocity": 116, "duration": 208}, {"note": 84, "velocity": 98, "duration": 165}, {"note": 0, "velocity": 0, "duration": 315}, {"note": 74, "velocity": 107, "duration": 200}, {"note": 72, "velocity": 107, "duration": 300}, {"note": 0, "velocity": 0, "duration": 1620}, {"note": 74, "velocity": 113, "duration": 449}, {"note": 0, "velocity": 0, "duration": 271}, {"note": 79, "velocity": 113, "duration": 198}, {"note": 74, "velocity": 108, "duration": 351}, {"note": 0, "velocity": 0, "duration": 129}, {"note": 72, "velocity": 116, "duration": 306}, {"note": 0, "velocity": 0, "duration": 174}, {"note": 77, "velocity": 114, "duration": 337}, {"note": 0, "velocity": 0, "duration": 143}, {"note": 77, "velocity": 114, "duration": 182}, {"note": 79, "velocity": 102, "duration": 275}, {"note": 81, "velocity": 116, "duration": 220}, {"note": 0, "velocity": 0, "duration": 740}, {"note": 84, "velocity": 116, "duration": 386}, {"note": 0, "velocity": 0, "duration": 94}, {"note": 89, "velocity": 117, "duration": 412}, {"note": 0, "velocity": 0, "duration": 68}, {"note": 86, "velocity": 116, "duration": 431}, {"note": 84, "velocity": 114, "duration": 180}, {"note": 81, "velocity": 114, "duration": 180}, {"note": 79, "velocity": 114, "duration": 321}, {"note": 0, "velocity": 0, "duration": 1599}, {"note": 81, "velocity": 114, "duration": 261}, {"note": 0, "velocity": 0, "duration": 99}, {"note": 81, "velocity": 102, "duration": 58}, {"note": 0, "velocity": 0, "duration": 62}, {"note": 81, "velocity": 113, "duration": 182}, {"note": 72, "velocity": 116, "duration": 219}, {"note": 74, "velocity": 116, "duration": 174}, {"note": 0, "velocity": 0, "duration": 66}, {"note": 77, "velocity": 114, "duration": 152}, {"note": 0, "velocity": 0, "duration": 88}, {"note": 79, "velocity": 108, "duration": 232}, {"note": 77, "velocity": 96, "duration": 163}, {"note": 0, "velocity": 0, "duration": 77}, {"note": 77, "velocity": 113, "duration": 394}, {"note": 0, "velocity": 0, "duration": 1046}, {"note": 74, "velocity": 113, "duration": 216}, {"note": 77, "velocity": 113, "duration": 175}, {"note": 0, "velocity": 0, "duration": 65}, {"note": 79, "velocity": 116, "duration": 244}, {"note": 0, "velocity": 0, "duration": 116}, {"note": 79, "velocity": 107, "duration": 67}, {"note": 81, "velocity": 107, "duration": 106}, {"note": 0, "velocity": 0, "duration": 134}, {"note": 84, "velocity": 113, "duration": 141}, {"note": 0, "velocity": 0, "duration": 99}, {"note": 81, "velocity": 114, "duration": 183}, {"note": 79, "velocity": 98, "duration": 141}, {"note": 0, "velocity": 0, "duration": 99}, {"note": 79, "velocity": 100, "duration": 240}, {"note": 76, "velocity": 98, "duration": 220}, {"note": 74, "velocity": 98, "duration": 311}, {"note": 0, "velocity": 0, "duration": 1609}, {"note": 77, "velocity": 116, "duration": 417}, {"note": 0, "velocity": 0, "duration": 303}, {"note": 74, "velocity": 117, "duration": 239}, {"note": 72, "velocity": 116, "duration": 228}, {"note": 0, "velocity": 0, "duration": 252}, {"note": 84, "velocity": 113, "duration": 337}, {"note": 0, "velocity": 0, "duration": 143}, {"note": 86, "velocity": 110, "duration": 327}, {"note": 0, "velocity": 0, "duration": 153}, {"note": 86, "velocity": 113, "duration": 188}, {"note": 89, "velocity": 114, "duration": 220}, {"note": 86, "velocity": 117, "duration": 263}, {"note": 0, "velocity": 0, "duration": 217}, {"note": 81, "velocity": 117, "duration": 120}, {"note": 0, "velocity": 0, "duration": 120}, {"note": 81, "velocity": 114, "duration": 207}, {"note": 79, "velocity": 113, "duration": 252}, {"note": 0, "velocity": 0, "duration": 468}, {"note": 81, "velocity": 113, "duration": 240}, {"note": 79, "velocity": 110, "duration": 248}, {"note": 81, "velocity": 104, "duration": 215}, {"note": 72, "velocity": 116, "duration": 272}, {"note": 74, "velocity": 102, "duration": 232}, {"note": 77, "velocity": 114, "duration": 457}, {"note": 0, "velocity": 0, "duration": 1463}, {"note": 89, "velocity": 116, "duration": 489}, {"note": 0, "velocity": 0, "duration": 231}, {"note": 89, "velocity": 117, "duration": 184}, {"note": 88, "velocity": 117, "duration": 310}, {"note": 0, "velocity": 0, "duration": 170}, {"note": 86, "velocity": 119, "duration": 213}, {"note": 84, "velocity": 114, "duration": 193}, {"note": 86, "velocity": 117, "duration": 377}, {"note": 0, "velocity": 0, "duration": 343}, {"note": 84, "velocity": 119, "duration": 244}, {"note": 81, "velocity": 119, "duration": 365}, {"note": 0, "velocity": 0, "duration": 595}, {"note": 84, "velocity": 117, "duration": 209}, {"note": 86, "velocity": 116, "duration": 300}, {"note": 0, "velocity": 0, "duration": 180}, {"note": 84, "velocity": 119, "duration": 138}, {"note": 0, "velocity": 0, "duration": 102}, {"note": 84, "velocity": 120, "duration": 217}, {"note": 0, "velocity": 0, "duration": 263}, {"note": 81, "velocity": 113, "duration": 229}, {"note": 79, "velocity": 114, "duration": 150}, {"note": 0, "velocity": 0, "duration": 90}, {"note": 79, "velocity": 117, "duration": 377}, {"note": 0, "velocity": 0, "duration": 1543}, {"note": 81, "velocity": 117, "duration": 211}, {"note": 84, "velocity": 116, "duration": 275}, {"note": 0, "velocity": 0, "duration": 445}, {"note": 81, "velocity": 114, "duration": 218}, {"note": 79, "velocity": 104, "duration": 239}, {"note": 77, "velocity": 114, "duration": 278}, {"note": 0, "velocity": 0, "duration": 202}, {"note": 77, "velocity": 116, "duration": 193}, {"note": 79, "velocity": 114, "duration": 318}, {"note": 0, "velocity": 0, "duration": 162}, {"note": 77, "velocity": 116, "duration": 236}, {"note": 74, "velocity": 116, "duration": 224}, {"note": 0, "velocity": 0, "duration": 736}, {"note": 76, "velocity": 117, "duration": 417}, {"note": 0, "velocity": 0, "duration": 303}, {"note": 79, "velocity": 113, "duration": 163}, {"note": 0, "velocity": 0, "duration": 77}, {"note": 74, "velocity": 114, "duration": 218}, {"note": 76, "velocity": 94, "duration": 194}, {"note": 74, "velocity": 113, "duration": 220}, {"note": 72, "velocity": 104, "duration": 125}, {"note": 0, "velocity": 0, "duration": 115}, {"note": 84, "velocity": 117, "duration": 338}, {"note": 0, "velocity": 0, "duration": 1582}, {"note": 86, "velocity": 116, "duration": 180}, {"note": 89, "velocity": 116, "duration": 180}, {"note": 0, "velocity": 0, "duration": 300}, {"note": 89, "velocity": 117, "duration": 184}, {"note": 88, "velocity": 117, "duration": 310}, {"note": 0, "velocity": 0, "duration": 170}, {"note": 86, "velocity": 119, "duration": 213}, {"note": 84, "velocity": 114, "duration": 193}, {"note": 86, "velocity": 117, "duration": 180}, {"note": 86, "velocity": 117, "duration": 180}, {"note": 0, "velocity": 0, "duration": 300}, {"note": 84, "velocity": 119, "duration": 244}, {"note": 81, "velocity": 119, "duration": 365}, {"note": 0, "velocity": 0, "duration": 595}, {"note": 84, "velocity": 116, "duration": 181}, {"note": 84, "velocity": 117, "duration": 277}, {"note": 0, "velocity": 0, "duration": 203}, {"note": 81, "velocity": 116, "duration": 230}, {"note": 84, "velocity": 110, "duration": 160}, {"note": 0, "velocity": 0, "duration": 80}, {"note": 86, "velocity": 113, "duration": 168}, {"note": 0, "velocity": 0, "duration": 72}, {"note": 88, "velocity": 117, "duration": 183}, {"note": 89, "velocity": 108, "duration": 152}, {"note": 88, "velocity": 104, "duration": 84}, {"note": 86, "velocity": 116, "duration": 280}, {"note": 0, "velocity": 0, "duration": 1640}, {"note": 81, "velocity": 117, "duration": 211}, {"note": 84, "velocity": 116, "duration": 275}, {"note": 0, "velocity": 0, "duration": 205}, {"note": 81, "velocity": 114, "duration": 203}, {"note": 79, "velocity": 113, "duration": 216}, {"note": 81, "velocity": 113, "duration": 198}, {"note": 84, "velocity": 117, "duration": 230}, {"note": 0, "velocity": 0, "duration": 250}, {"note": 81, "velocity": 117, "duration": 266}, {"note": 0, "velocity": 0, "duration": 94}, {"note": 79, "velocity": 94, "duration": 121}, {"note": 77, "velocity": 102, "duration": 201}, {"note": 79, "velocity": 107, "duration": 173}, {"note": 0, "velocity": 0, "duration": 67}, {"note": 79, "velocity": 110, "duration": 240}, {"note": 76, "velocity": 110, "duration": 229}, {"note": 0, "velocity": 0, "duration": 491}, {"note": 74, "velocity": 116, "duration": 209}, {"note": 0, "velocity": 0, "duration": 151}, {"note": 74, "velocity": 114, "duration": 237}, {"note": 0, "velocity": 0, "duration": 123}, {"note": 77, "velocity": 108, "duration": 172}, {"note": 0, "velocity": 0, "duration": 68}, {"note": 72, "velocity": 116, "duration": 259}, {"note": 0, "velocity": 0, "duration": 221}, {"note": 72, "velocity": 108, "duration": 242}, {"note": 74, "velocity": 98, "duration": 227}, {"note": 77, "velocity": 107, "duration": 478}, {"note": 0, "velocity": 0, "duration": 1442}, {"note": 74, "velocity": 116, "duration": 140}, {"note": 0, "velocity": 0, "duration": 100}, {"note": 74, "velocity": 110, "duration": 270}, {"note": 0, "velocity": 0, "duration": 210}, {"note": 77, "velocity": 110, "duration": 196}, {"note": 72, "velocity": 113, "duration": 265}, {"note": 0, "velocity": 0, "duration": 215}, {"note": 72, "velocity": 113, "duration": 223}, {"note": 74, "velocity": 113, "duration": 195}, {"note": 77, "velocity": 116, "duration": 430}]]