[[{"note": 69, "velocity": 78, "duration": 424}, {"note": 68, "velocity": 80, "duration": 367}, {"note": 0, "velocity": 0, "duration": 113}, {"note": 66, "velocity": 78, "duration": 1031}, {"note": 0, "velocity": 0, "duration": 169}, {"note": 68, "velocity": 75, "duration": 148}, {"note": 0, "velocity": 0, "duration": 92}, {"note": 69, "velocity": 77, "duration": 257}, {"note": 68, "velocity": 72, "duration": 632}, {"note": 0, "velocity": 0, "duration": 88}, {"note": 69, "velocity": 71, "duration": 244}, {"note": 68, "velocity": 74, "duration": 490}, {"note": 66, "velocity": 71, "duration": 720}, {"note": 64, "velocity": 75, "duration": 1959}, {"note": 0, "velocity": 0, "duration": 681}, {"note": 68, "velocity": 74, "duration": 233}, {"note": 73, "velocity": 83, "duration": 367}, {"note": 0, "velocity": 0, "duration": 113}, {"note": 69, "velocity": 76, "duration": 220}, {"note": 68, "velocity": 73, "duration": 424}, {"note": 66, "velocity": 72, "duration": 975}, {"note": 68, "velocity": 75, "duration": 148}, {"note": 0, "velocity": 0, "duration": 92}, {"note": 69, "velocity": 81, "duration": 195}, {"note": 68, "velocity": 79, "duration": 631}, {"note": 0, "velocity": 0, "duration": 89}, {"note": 64, "velocity": 79, "duration": 167}, {"note": 0, "velocity": 0, "duration": 73}, {"note": 64, "velocity": 75, "duration": 417}, {"note": 0, "velocity": 0, "duration": 63}, {"note": 71, "velocity": 80, "duration": 377}, {"note": 0, "velocity": 0, "duration": 103}, {"note": 73, "velocity": 82, "duration": 1344}, {"note": 0, "velocity": 0, "duration": 1536}, {"note": 73, "velocity": 81, "duration": 143}, {"note": 0, "velocity": 0, "duration": 97}, {"note": 74, "velocity": 79, "duration": 401}, {"note": 0, "velocity": 0, "duration": 79}, {"note": 73, "velocity": 81, "duration": 141}, {"note": 0, "velocity": 0, "duration": 99}, {"note": 73, "velocity": 81, "duration": 481}, {"note": 71, "velocity": 75, "duration": 970}, {"note": 0, "velocity": 0, "duration": 230}, {"note": 68, "velocity": 80, "duration": 187}, {"note": 69, "velocity": 67, "duration": 182}, {"note": 71, "velocity": 83, "duration": 436}, {"note": 76, "velocity": 73, "duration": 149}, {"note": 0, "velocity": 0, "duration": 91}, {"note": 76, "velocity": 80, "duration": 491}, {"note": 71, "velocity": 84, "duration": 720}, {"note": 69, "velocity": 81, "duration": 720}, {"note": 0, "velocity": 0, "duration": 240}, {"note": 69, "velocity": 85, "duration": 417}, {"note": 0, "velocity": 0, "duration": 63}, {"note": 68, "velocity": 80, "duration": 434}, {"note": 66, "velocity": 80, "duration": 1078}, {"note": 0, "velocity": 0, "duration": 122}, {"note": 68, "velocity": 76, "duration": 167}, {"note": 0, "velocity": 0, "duration": 73}, {"note": 69, "velocity": 78, "duration": 230}, {"note": 68, "velocity": 79, "duration": 704}, {"note": 69, "velocity": 80, "duration": 277}, {"note": 68, "velocity": 79, "duration": 442}, {"note": 66, "velocity": 72, "duration": 372}, {"note": 0, "velocity": 0, "duration": 108}, {"note": 64, "velocity": 76, "duration": 1387}, {"note": 0, "velocity": 0, "duration": 1253}, {"note": 65, "velocity": 80, "duration": 720}, {"note": 61, "velocity": 80, "duration": 1200}, {"note": 0, "velocity": 0, "duration": 480}, {"note": 69, "velocity": 78, "duration": 424}, {"note": 68, "velocity": 80, "duration": 367}, {"note": 0, "velocity": 0, "duration": 113}, {"note": 66, "velocity": 78, "duration": 1031}, {"note": 0, "velocity": 0, "duration": 169}, {"note": 68, "velocity": 75, "duration": 148}, {"note": 0, "velocity": 0, "duration": 92}, {"note": 69, "velocity": 77, "duration": 257}, {"note": 68, "velocity": 72, "duration": 632}, {"note": 0, "velocity": 0, "duration": 88}, {"note": 69, "velocity": 71, "duration": 244}, {"note": 68, "velocity": 74, "duration": 490}, {"note": 66, "velocity": 71, "duration": 720}, {"note": 64, "velocity": 75, "duration": 1959}, {"note": 0, "velocity": 0, "duration": 681}, {"note": 68, "velocity": 74, "duration": 233}, {"note": 73, "velocity": 83, "duration": 367}, {"note": 0, "velocity": 0, "duration": 113}, {"note": 69, "velocity": 76, "duration": 220}, {"note": 68, "velocity": 73, "duration": 424}, {"note": 66, "velocity": 72, "duration": 975}, {"note": 68, "velocity": 75, "duration": 148}, {"note": 0, "velocity": 0, "duration": 92}, {"note": 69, "velocity": 81, "duration": 195}, {"note": 68, "velocity": 79, "duration": 631}, {"note": 0, "velocity": 0, "duration": 89}, {"note": 76, "velocity": 79, "duration": 167}, {"note": 0, "velocity": 0, "duration": 73}, {"note": 76, "velocity": 75, "duration": 417}, {"note": 0, "velocity": 0, "duration": 63}, {"note": 71, "velocity": 80, "duration": 377}, {"note": 0, "velocity": 0, "duration": 103}, {"note": 74, "velocity": 82, "duration": 480}, {"note": 73, "velocity": 80, "duration": 1200}, {"note": 0, "velocity": 0, "duration": 1200}, {"note": 73, "velocity": 81, "duration": 240}, {"note": 78, "velocity": 79, "duration": 401}, {"note": 0, "velocity": 0, "duration": 79}, {"note": 73, "velocity": 81, "duration": 141}, {"note": 0, "velocity": 0, "duration": 99}, {"note": 73, "velocity": 81, "duration": 481}, {"note": 71, "velocity": 75, "duration": 970}, {"note": 0, "velocity": 0, "duration": 230}, {"note": 68, "velocity": 80, "duration": 187}, {"note": 69, "velocity": 67, "duration": 182}, {"note": 71, "velocity": 83, "duration": 436}, {"note": 80, "velocity": 73, "duration": 149}, {"note": 0, "velocity": 0, "duration": 91}, {"note": 80, "velocity": 80, "duration": 491}, {"note": 71, "velocity": 84, "duration": 720}, {"note": 69, "velocity": 81, "duration": 720}, {"note": 0, "velocity": 0, "duration": 240}, {"note": 69, "velocity": 85, "duration": 417}, {"note": 0, "velocity": 0, "duration": 63}, {"note": 68, "velocity": 80, "duration": 434}, {"note": 66, "velocity": 80, "duration": 1078}, {"note": 0, "velocity": 0, "duration": 122}, {"note": 68, "velocity": 76, "duration": 167}, {"note": 0, "velocity": 0, "duration": 73}, {"note": 69, "velocity": 78, "duration": 230}, {"note": 68, "velocity": 79, "duration": 704}, {"note": 66, "velocity": 80, "duration": 240}, {"note": 66, "velocity": 79, "duration": 442}, {"note": 64, "velocity": 72, "duration": 372}, {"note": 0, "velocity": 0, "duration": 108}, {"note": 66, "velocity": 76, "duration": 1387}, {"note": 0, "velocity": 0, "duration": 1733}, {"note": 69, "velocity": 80, "duration": 378}, {"note": 0, "velocity": 0, "duration": 102}, {"note": 71, "velocity": 82, "duration": 443}, {"note": 73, "velocity": 88, "duration": 1637}, {"note": 0, "velocity": 0, "duration": 283}, {"note": 73, "velocity": 86, "duration": 367}, {"note": 0, "velocity": 0, "duration": 113}, {"note": 69, "velocity": 81, "duration": 148}, {"note": 0, "velocity": 0, "duration": 92}, {"note": 73, "velocity": 83, "duration": 446}, {"note": 76, "velocity": 82, "duration": 358}, {"note": 0, "velocity": 0, "duration": 122}, {"note": 76, "velocity": 82, "duration": 479}, {"note": 71, "velocity": 80, "duration": 1283}, {"note": 0, "velocity": 0, "duration": 397}, {"note": 76, "velocity": 81, "duration": 441}, {"note": 71, "velocity": 79, "duration": 162}, {"note": 0, "velocity": 0, "duration": 78}, {"note": 71, "velocity": 81, "duration": 362}, {"note": 0, "velocity": 0, "duration": 118}, {"note": 76, "velocity": 81, "duration": 364}, {"note": 0, "velocity": 0, "duration": 116}, {"note": 74, "velocity": 81, "duration": 1299}, {"note": 0, "velocity": 0, "duration": 861}, {"note": 74, "velocity": 80, "duration": 400}, {"note": 0, "velocity": 0, "duration": 80}, {"note": 73, "velocity": 81, "duration": 167}, {"note": 0, "velocity": 0, "duration": 73}, {"note": 71, "velocity": 80, "duration": 434}, {"note": 69, "velocity": 84, "duration": 507}, {"note": 0, "velocity": 0, "duration": 213}, {"note": 74, "velocity": 84, "duration": 391}, {"note": 0, "velocity": 0, "duration": 89}, {"note": 76, "velocity": 80, "duration": 140}, {"note": 0, "velocity": 0, "duration": 100}, {"note": 76, "velocity": 78, "duration": 383}, {"note": 0, "velocity": 0, "duration": 97}, {"note": 69, "velocity": 79, "duration": 368}, {"note": 0, "velocity": 0, "duration": 112}, {"note": 73, "velocity": 85, "duration": 438}, {"note": 71, "velocity": 79, "duration": 614}, {"note": 0, "velocity": 0, "duration": 106}, {"note": 69, "velocity": 81, "duration": 383}, {"note": 0, "velocity": 0, "duration": 97}, {"note": 71, "velocity": 79, "duration": 375}, {"note": 0, "velocity": 0, "duration": 105}, {"note": 73, "velocity": 83, "duration": 1206}, {"note": 0, "velocity": 0, "duration": 714}, {"note": 73, "velocity": 84, "duration": 355}, {"note": 0, "velocity": 0, "duration": 125}, {"note": 69, "velocity": 80, "duration": 154}, {"note": 0, "velocity": 0, "duration": 86}, {"note": 73, "velocity": 86, "duration": 352}, {"note": 0, "velocity": 0, "duration": 128}, {"note": 78, "velocity": 79, "duration": 367}, {"note": 0, "velocity": 0, "duration": 113}, {"note": 76, "velocity": 80, "duration": 480}, {"note": 71, "velocity": 65, "duration": 1200}, {"note": 0, "velocity": 0, "duration": 480}, {"note": 76, "velocity": 82, "duration": 429}, {"note": 71, "velocity": 80, "duration": 134}, {"note": 0, "velocity": 0, "duration": 106}, {"note": 71, "velocity": 81, "duration": 363}, {"note": 0, "velocity": 0, "duration": 117}, {"note": 76, "velocity": 82, "duration": 320}, {"note": 0, "velocity": 0, "duration": 160}, {"note": 74, "velocity": 83, "duration": 1374}, {"note": 0, "velocity": 0, "duration": 786}, {"note": 74, "velocity": 80, "duration": 386}, {"note": 0, "velocity": 0, "duration": 94}, {"note": 73, "velocity": 86, "duration": 161}, {"note": 0, "velocity": 0, "duration": 79}, {"note": 71, "velocity": 81, "duration": 358}, {"note": 0, "velocity": 0, "duration": 122}, {"note": 69, "velocity": 81, "duration": 563}, {"note": 0, "velocity": 0, "duration": 157}, {"note": 66, "velocity": 79, "duration": 373}, {"note": 0, "velocity": 0, "duration": 107}, {"note": 68, "velocity": 77, "duration": 142}, {"note": 0, "velocity": 0, "duration": 98}, {"note": 69, "velocity": 79, "duration": 390}, {"note": 0, "velocity": 0, "duration": 90}, {"note": 74, "velocity": 86, "duration": 393}, {"note": 0, "velocity": 0, "duration": 87}, {"note": 73, "velocity": 79, "duration": 373}, {"note": 0, "velocity": 0, "duration": 107}, {"note": 71, "velocity": 80, "duration": 683}, {"note": 69, "velocity": 80, "duration": 205}, {"note": 68, "velocity": 79, "duration": 681}, {"note": 66, "velocity": 79, "duration": 2000}, {"note": 0, "velocity": 0, "duration": 880}, {"note": 69, "velocity": 85, "duration": 263}, {"note": 71, "velocity": 79, "duration": 294}, {"note": 69, "velocity": 81, "duration": 272}, {"note": 68, "velocity": 75, "duration": 2213}, {"note": 0, "velocity": 0, "duration": 907}, {"note": 68, "velocity": 78, "duration": 258}, {"note": 69, "velocity": 75, "duration": 292}, {"note": 68, "velocity": 78, "duration": 246}, {"note": 66, "velocity": 73, "duration": 2770}, {"note": 0, "velocity": 0, "duration": 350}, {"note": 66, "velocity": 79, "duration": 262}, {"note": 68, "velocity": 74, "duration": 265}, {"note": 69, "velocity": 79, "duration": 259}, {"note": 68, "velocity": 74, "duration": 3013}, {"note": 0, "velocity": 0, "duration": 2027}, {"note": 69, "velocity": 78, "duration": 424}, {"note": 68, "velocity": 80, "duration": 367}, {"note": 0, "velocity": 0, "duration": 113}, {"note": 66, "velocity": 78, "duration": 1031}, {"note": 0, "velocity": 0, "duration": 169}, {"note": 68, "velocity": 75, "duration": 148}, {"note": 0, "velocity": 0, "duration": 92}, {"note": 69, "velocity": 77, "duration": 257}, {"note": 68, "velocity": 72, "duration": 632}, {"note": 0, "velocity": 0, "duration": 88}, {"note": 69, "velocity": 71, "duration": 244}, {"note": 68, "velocity": 74, "duration": 490}, {"note": 66, "velocity": 71, "duration": 720}, {"note": 64, "velocity": 75, "duration": 1959}, {"note": 0, "velocity": 0, "duration": 681}, {"note": 68, "velocity": 74, "duration": 233}, {"note": 73, "velocity": 83, "duration": 367}, {"note": 0, "velocity": 0, "duration": 113}, {"note": 69, "velocity": 76, "duration": 220}, {"note": 68, "velocity": 73, "duration": 424}, {"note": 66, "velocity": 72, "duration": 975}, {"note": 68, "velocity": 75, "duration": 148}, {"note": 0, "velocity": 0, "duration": 92}, {"note": 69, "velocity": 81, "duration": 195}, {"note": 68, "velocity": 79, "duration": 631}, {"note": 0, "velocity": 0, "duration": 89}, {"note": 76, "velocity": 79, "duration": 167}, {"note": 0, "velocity": 0, "duration": 73}, {"note": 76, "velocity": 75, "duration": 417}, {"note": 0, "velocity": 0, "duration": 63}, {"note": 71, "velocity": 80, "duration": 377}, {"note": 0, "velocity": 0, "duration": 103}, {"note": 74, "velocity": 82, "duration": 480}, {"note": 73, "velocity": 80, "duration": 1200}, {"note": 0, "velocity": 0, "duration": 1200}, {"note": 73, "velocity": 81, "duration": 240}, {"note": 78, "velocity": 79, "duration": 401}, {"note": 0, "velocity": 0, "duration": 79}, {"note": 73, "velocity": 81, "duration": 141}, {"note": 0, "velocity": 0, "duration": 99}, {"note": 73, "velocity": 81, "duration": 481}, {"note": 71, "velocity": 75, "duration": 970}, {"note": 0, "velocity": 0, "duration": 230}, {"note": 68, "velocity": 80, "duration": 187}, {"note": 69, "velocity": 67, "duration": 182}, {"note": 71, "velocity": 83, "duration": 436}, {"note": 80, "velocity": 73, "duration": 149}, {"note": 0, "velocity": 0, "duration": 91}, {"note": 80, "velocity": 80, "duration": 491}, {"note": 71, "velocity": 84, "duration": 720}, {"note": 69, "velocity": 81, "duration": 720}, {"note": 0, "velocity": 0, "duration": 240}, {"note": 69, "velocity": 85, "duration": 417}, {"note": 0, "velocity": 0, "duration": 63}, {"note": 68, "velocity": 80, "duration": 434}, {"note": 66, "velocity": 80, "duration": 1078}, {"note": 0, "velocity": 0, "duration": 122}, {"note": 68, "velocity": 76, "duration": 167}, {"note": 0, "velocity": 0, "duration": 73}, {"note": 69, "velocity": 78, "duration": 230}, {"note": 68, "velocity": 79, "duration": 704}, {"note": 66, "velocity": 80, "duration": 240}, {"note": 66, "velocity": 79, "duration": 442}, {"note": 64, "velocity": 72, "duration": 372}, {"note": 0, "velocity": 0, "duration": 108}, {"note": 66, "velocity": 76, "duration": 1387}, {"note": 0, "velocity": 0, "duration": 1733}, {"note": 69, "velocity": 80, "duration": 378}, {"note": 0, "velocity": 0, "duration": 102}, {"note": 71, "velocity": 82, "duration": 443}, {"note": 73, "velocity": 88, "duration": 1637}, {"note": 0, "velocity": 0, "duration": 283}, {"note": 73, "velocity": 86, "duration": 367}, {"note": 0, "velocity": 0, "duration": 113}, {"note": 69, "velocity": 81, "duration": 148}, {"note": 0, "velocity": 0, "duration": 92}, {"note": 73, "velocity": 83, "duration": 446}, {"note": 76, "velocity": 82, "duration": 358}, {"note": 0, "velocity": 0, "duration": 122}, {"note": 76, "velocity": 82, "duration": 479}, {"note": 71, "velocity": 80, "duration": 1283}, {"note": 0, "velocity": 0, "duration": 397}, {"note": 76, "velocity": 81, "duration": 441}, {"note": 71, "velocity": 79, "duration": 162}, {"note": 0, "velocity": 0, "duration": 78}, {"note": 71, "velocity": 81, "duration": 362}, {"note": 0, "velocity": 0, "duration": 118}, {"note": 76, "velocity": 81, "duration": 364}, {"note": 0, "velocity": 0, "duration": 116}, {"note": 74, "velocity": 81, "duration": 1299}, {"note": 0, "velocity": 0, "duration": 861}, {"note": 74, "velocity": 80, "duration": 400}, {"note": 0, "velocity": 0, "duration": 80}, {"note": 73, "velocity": 81, "duration": 167}, {"note": 0, "velocity": 0, "duration": 73}, {"note": 71, "velocity": 80, "duration": 434}, {"note": 69, "velocity": 84, "duration": 507}, {"note": 0, "velocity": 0, "duration": 213}, {"note": 74, "velocity": 84, "duration": 391}, {"note": 0, "velocity": 0, "duration": 89}, {"note": 76, "velocity": 80, "duration": 140}, {"note": 0, "velocity": 0, "duration": 100}, {"note": 76, "velocity": 78, "duration": 383}, {"note": 0, "velocity": 0, "duration": 97}, {"note": 69, "velocity": 79, "duration": 368}, {"note": 0, "velocity": 0, "duration": 112}, {"note": 73, "velocity": 85, "duration": 438}, {"note": 71, "velocity": 79, "duration": 614}, {"note": 0, "velocity": 0, "duration": 106}, {"note": 69, "velocity": 81, "duration": 383}, {"note": 0, "velocity": 0, "duration": 97}, {"note": 71, "velocity": 79, "duration": 375}, {"note": 0, "velocity": 0, "duration": 105}, {"note": 73, "velocity": 83, "duration": 1206}, {"note": 0, "velocity": 0, "duration": 714}, {"note": 73, "velocity": 84, "duration": 355}, {"note": 0, "velocity": 0, "duration": 125}, {"note": 69, "velocity": 80, "duration": 154}, {"note": 0, "velocity": 0, "duration": 86}, {"note": 73, "velocity": 86, "duration": 352}, {"note": 0, "velocity": 0, "duration": 128}, {"note": 78, "velocity": 79, "duration": 367}, {"note": 0, "velocity": 0, "duration": 113}, {"note": 76, "velocity": 80, "duration": 480}, {"note": 71, "velocity": 65, "duration": 1200}, {"note": 0, "velocity": 0, "duration": 480}, {"note": 76, "velocity": 82, "duration": 429}, {"note": 71, "velocity": 80, "duration": 134}, {"note": 0, "velocity": 0, "duration": 106}, {"note": 71, "velocity": 81, "duration": 363}, {"note": 0, "velocity": 0, "duration": 117}, {"note": 76, "velocity": 82, "duration": 320}, {"note": 0, "velocity": 0, "duration": 160}, {"note": 74, "velocity": 83, "duration": 1374}, {"note": 0, "velocity": 0, "duration": 786}, {"note": 74, "velocity": 80, "duration": 386}, {"note": 0, "velocity": 0, "duration": 94}, {"note": 73, "velocity": 86, "duration": 161}, {"note": 0, "velocity": 0, "duration": 79}, {"note": 71, "velocity": 81, "duration": 358}, {"note": 0, "velocity": 0, "duration": 122}, {"note": 69, "velocity": 81, "duration": 563}, {"note": 0, "velocity": 0, "duration": 157}, {"note": 66, "velocity": 79, "duration": 373}, {"note": 0, "velocity": 0, "duration": 107}, {"note": 68, "velocity": 77, "duration": 142}, {"note": 0, "velocity": 0, "duration": 98}, {"note": 69, "velocity": 79, "duration": 390}, {"note": 0, "velocity": 0, "duration": 90}, {"note": 74, "velocity": 86, "duration": 393}, {"note": 0, "velocity": 0, "duration": 87}, {"note": 73, "velocity": 79, "duration": 373}, {"note": 0, "velocity": 0, "duration": 107}, {"note": 71, "velocity": 80, "duration": 683}, {"note": 69, "velocity": 80, "duration": 205}, {"note": 68, "velocity": 79, "duration": 681}, {"note": 66, "velocity": 79, "duration": 2000}, {"note": 0, "velocity": 0, "duration": 880}, {"note": 69, "velocity": 85, "duration": 263}, {"note": 71, "velocity": 79, "duration": 294}, {"note": 69, "velocity": 81, "duration": 272}, {"note": 68, "velocity": 75, "duration": 2213}, {"note": 0, "velocity": 0, "duration": 907}, {"note": 68, "velocity": 78, "duration": 258}, {"note": 69, "velocity": 75, "duration": 292}, {"note": 68, "velocity": 78, "duration": 246}, {"note": 66, "velocity": 73, "duration": 2770}, {"note": 0, "velocity": 0, "duration": 350}, {"note": 66, "velocity": 79, "duration": 262}, {"note": 68, "velocity": 74, "duration": 265}, {"note": 69, "velocity": 79, "duration": 259}, {"note": 68, "velocity": 74, "duration": 3013}, {"note": 0, "velocity": 0, "duration": 107}, {"note": 69, "velocity": 80, "duration": 378}, {"note": 0, "velocity": 0, "duration": 102}, {"note": 71, "velocity": 82, "duration": 443}, {"note": 73, "velocity": 88, "duration": 1637}, {"note": 0, "velocity": 0, "duration": 283}, {"note": 73, "velocity": 86, "duration": 367}, {"note": 0, "velocity": 0, "duration": 113}, {"note": 69, "velocity": 81, "duration": 148}, {"note": 0, "velocity": 0, "duration": 92}, {"note": 73, "velocity": 83, "duration": 446}, {"note": 76, "velocity": 82, "duration": 358}, {"note": 0, "velocity": 0, "duration": 122}, {"note": 76, "velocity": 82, "duration": 479}, {"note": 71, "velocity": 80, "duration": 1283}, {"note": 0, "velocity": 0, "duration": 397}, {"note": 76, "velocity": 81, "duration": 441}, {"note": 71, "velocity": 79, "duration": 162}, {"note": 0, "velocity": 0, "duration": 78}, {"note": 71, "velocity": 81, "duration": 362}, {"note": 0, "velocity": 0, "duration": 118}, {"note": 76, "velocity": 81, "duration": 364}, {"note": 0, "velocity": 0, "duration": 116}, {"note": 74, "velocity": 81, "duration": 1299}, {"note": 0, "velocity": 0, "duration": 861}, {"note": 74, "velocity": 80, "duration": 400}, {"note": 0, "velocity": 0, "duration": 80}, {"note": 73, "velocity": 81, "duration": 167}, {"note": 0, "velocity": 0, "duration": 73}, {"note": 71, "velocity": 80, "duration": 434}, {"note": 69, "velocity": 84, "duration": 507}, {"note": 0, "velocity": 0, "duration": 213}, {"note": 74, "velocity": 84, "duration": 391}, {"note": 0, "velocity": 0, "duration": 89}, {"note": 76, "velocity": 80, "duration": 140}, {"note": 0, "velocity": 0, "duration": 100}, {"note": 76, "velocity": 78, "duration": 383}, {"note": 0, "velocity": 0, "duration": 97}, {"note": 69, "velocity": 79, "duration": 368}, {"note": 0, "velocity": 0, "duration": 112}, {"note": 73, "velocity": 85, "duration": 438}, {"note": 71, "velocity": 79, "duration": 614}, {"note": 0, "velocity": 0, "duration": 106}, {"note": 69, "velocity": 81, "duration": 383}, {"note": 0, "velocity": 0, "duration": 97}, {"note": 71, "velocity": 79, "duration": 375}, {"note": 0, "velocity": 0, "duration": 105}, {"note": 73, "velocity": 83, "duration": 1206}, {"note": 0, "velocity": 0, "duration": 714}, {"note": 73, "velocity": 84, "duration": 355}, {"note": 0, "velocity": 0, "duration": 125}, {"note": 69, "velocity": 80, "duration": 154}, {"note": 0, "velocity": 0, "duration": 86}, {"note": 73, "velocity": 86, "duration": 352}, {"note": 0, "velocity": 0, "duration": 128}, {"note": 78, "velocity": 79, "duration": 367}, {"note": 0, "velocity": 0, "duration": 113}, {"note": 76, "velocity": 80, "duration": 480}, {"note": 71, "velocity": 65, "duration": 1200}, {"note": 0, "velocity": 0, "duration": 480}, {"note": 76, "velocity": 82, "duration": 429}, {"note": 71, "velocity": 80, "duration": 134}, {"note": 0, "velocity": 0, "duration": 106}, {"note": 71, "velocity": 81, "duration": 363}, {"note": 0, "velocity": 0, "duration": 117}, {"note": 76, "velocity": 82, "duration": 320}, {"note": 0, "velocity": 0, "duration": 160}, {"note": 74, "velocity": 83, "duration": 1374}, {"note": 0, "velocity": 0, "duration": 786}, {"note": 74, "velocity": 80, "duration": 386}, {"note": 0, "velocity": 0, "duration": 94}, {"note": 73, "velocity": 86, "duration": 161}, {"note": 0, "velocity": 0, "duration": 79}, {"note": 71, "velocity": 81, "duration": 358}, {"note": 0, "velocity": 0, "duration": 122}, {"note": 69, "velocity": 81, "duration": 563}, {"note": 0, "velocity": 0, "duration": 157}, {"note": 66, "velocity": 79, "duration": 373}, {"note": 0, "velocity": 0, "duration": 107}, {"note": 68, "velocity": 77, "duration": 142}, {"note": 0, "velocity": 0, "duration": 98}, {"note": 69, "velocity": 79, "duration": 390}, {"note": 0, "velocity": 0, "duration": 90}, {"note": 74, "velocity": 86, "duration": 393}, {"note": 0, "velocity": 0, "duration": 87}, {"note": 73, "velocity": 79, "duration": 373}, {"note": 0, "velocity": 0, "duration": 107}, {"note": 71, "velocity": 80, "duration": 683}, {"note": 0, "velocity": 0, "duration": 3397}, {"note": 69, "velocity": 83, "duration": 811}, {"note": 68, "velocity": 80, "duration": 806}, {"note": 66, "velocity": 78, "duration": 2741}, {"note": 69, "velocity": 78, "duration": 244}, {"note": 71, "velocity": 78, "duration": 268}, {"note": 69, "velocity": 80, "duration": 243}, {"note": 68, "velocity": 75, "duration": 2877}, {"note": 0, "velocity": 0, "duration": 252}, {"note": 68, "velocity": 81, "duration": 219}, {"note": 69, "velocity": 68, "duration": 257}, {"note": 68, "velocity": 74, "duration": 234}, {"note": 66, "velocity": 74, "duration": 2582}, {"note": 0, "velocity": 0, "duration": 523}, {"note": 66, "velocity": 80, "duration": 262}, {"note": 68, "velocity": 77, "duration": 261}, {"note": 69, "velocity": 72, "duration": 246}, {"note": 68, "velocity": 79, "duration": 3313}]]