[[{"note": 64, "velocity": 105, "duration": 93}, {"note": 0, "velocity": 0, "duration": 267}, {"note": 64, "velocity": 87, "duration": 84}, {"note": 64, "velocity": 80, "duration": 101}, {"note": 0, "velocity": 0, "duration": 139}, {"note": 64, "velocity": 95, "duration": 98}, {"note": 0, "velocity": 0, "duration": 142}, {"note": 71, "velocity": 93, "duration": 219}, {"note": 0, "velocity": 0, "duration": 261}, {"note": 71, "velocity": 87, "duration": 305}, {"note": 0, "velocity": 0, "duration": 175}, {"note": 69, "velocity": 93, "duration": 155}, {"note": 0, "velocity": 0, "duration": 85}, {"note": 67, "velocity": 80, "duration": 98}, {"note": 0, "velocity": 0, "duration": 142}, {"note": 69, "velocity": 93, "duration": 110}, {"note": 0, "velocity": 0, "duration": 130}, {"note": 71, "velocity": 87, "duration": 139}, {"note": 0, "velocity": 0, "duration": 101}, {"note": 71, "velocity": 93, "duration": 196}, {"note": 0, "velocity": 0, "duration": 764}, {"note": 64, "velocity": 93, "duration": 116}, {"note": 0, "velocity": 0, "duration": 244}, {"note": 64, "velocity": 80, "duration": 61}, {"note": 64, "velocity": 74, "duration": 96}, {"note": 0, "velocity": 0, "duration": 144}, {"note": 64, "velocity": 87, "duration": 101}, {"note": 0, "velocity": 0, "duration": 139}, {"note": 69, "velocity": 102, "duration": 147}, {"note": 0, "velocity": 0, "duration": 333}, {"note": 69, "velocity": 90, "duration": 145}, {"note": 0, "velocity": 0, "duration": 335}, {"note": 67, "velocity": 85, "duration": 106}, {"note": 0, "velocity": 0, "duration": 134}, {"note": 64, "velocity": 85, "duration": 100}, {"note": 0, "velocity": 0, "duration": 140}, {"note": 67, "velocity": 83, "duration": 96}, {"note": 0, "velocity": 0, "duration": 144}, {"note": 69, "velocity": 87, "duration": 113}, {"note": 0, "velocity": 0, "duration": 127}, {"note": 69, "velocity": 93, "duration": 182}, {"note": 0, "velocity": 0, "duration": 778}, {"note": 71, "velocity": 69, "duration": 60}, {"note": 0, "velocity": 0, "duration": 180}, {"note": 71, "velocity": 93, "duration": 102}, {"note": 0, "velocity": 0, "duration": 138}, {"note": 71, "velocity": 95, "duration": 102}, {"note": 0, "velocity": 0, "duration": 138}, {"note": 71, "velocity": 95, "duration": 121}, {"note": 0, "velocity": 0, "duration": 119}, {"note": 76, "velocity": 95, "duration": 261}, {"note": 0, "velocity": 0, "duration": 219}, {"note": 76, "velocity": 95, "duration": 179}, {"note": 0, "velocity": 0, "duration": 301}, {"note": 74, "velocity": 66, "duration": 134}, {"note": 0, "velocity": 0, "duration": 106}, {"note": 71, "velocity": 80, "duration": 104}, {"note": 0, "velocity": 0, "duration": 136}, {"note": 71, "velocity": 93, "duration": 104}, {"note": 0, "velocity": 0, "duration": 136}, {"note": 74, "velocity": 105, "duration": 96}, {"note": 0, "velocity": 0, "duration": 144}, {"note": 64, "velocity": 103, "duration": 466}, {"note": 0, "velocity": 0, "duration": 494}, {"note": 69, "velocity": 93, "duration": 233}, {"note": 0, "velocity": 0, "duration": 127}, {"note": 69, "velocity": 80, "duration": 69}, {"note": 69, "velocity": 83, "duration": 107}, {"note": 0, "velocity": 0, "duration": 133}, {"note": 67, "velocity": 95, "duration": 88}, {"note": 0, "velocity": 0, "duration": 152}, {"note": 71, "velocity": 93, "duration": 248}, {"note": 0, "velocity": 0, "duration": 232}, {"note": 69, "velocity": 102, "duration": 176}, {"note": 0, "velocity": 0, "duration": 304}, {"note": 62, "velocity": 87, "duration": 104}, {"note": 0, "velocity": 0, "duration": 136}, {"note": 59, "velocity": 80, "duration": 115}, {"note": 0, "velocity": 0, "duration": 125}, {"note": 62, "velocity": 87, "duration": 99}, {"note": 0, "velocity": 0, "duration": 141}, {"note": 64, "velocity": 83, "duration": 124}, {"note": 0, "velocity": 0, "duration": 116}, {"note": 64, "velocity": 87, "duration": 291}, {"note": 0, "velocity": 0, "duration": 669}, {"note": 64, "velocity": 95, "duration": 135}, {"note": 0, "velocity": 0, "duration": 225}, {"note": 64, "velocity": 90, "duration": 57}, {"note": 0, "velocity": 0, "duration": 63}, {"note": 64, "velocity": 85, "duration": 97}, {"note": 0, "velocity": 0, "duration": 143}, {"note": 64, "velocity": 93, "duration": 97}, {"note": 0, "velocity": 0, "duration": 143}, {"note": 71, "velocity": 85, "duration": 176}, {"note": 0, "velocity": 0, "duration": 304}, {"note": 71, "velocity": 95, "duration": 187}, {"note": 0, "velocity": 0, "duration": 293}, {"note": 69, "velocity": 90, "duration": 116}, {"note": 0, "velocity": 0, "duration": 124}, {"note": 67, "velocity": 80, "duration": 87}, {"note": 0, "velocity": 0, "duration": 153}, {"note": 69, "velocity": 90, "duration": 96}, {"note": 0, "velocity": 0, "duration": 144}, {"note": 71, "velocity": 87, "duration": 116}, {"note": 0, "velocity": 0, "duration": 124}, {"note": 71, "velocity": 87, "duration": 221}, {"note": 0, "velocity": 0, "duration": 739}, {"note": 64, "velocity": 102, "duration": 145}, {"note": 0, "velocity": 0, "duration": 215}, {"note": 64, "velocity": 80, "duration": 61}, {"note": 64, "velocity": 80, "duration": 104}, {"note": 0, "velocity": 0, "duration": 136}, {"note": 64, "velocity": 87, "duration": 117}, {"note": 0, "velocity": 0, "duration": 123}, {"note": 69, "velocity": 103, "duration": 188}, {"note": 0, "velocity": 0, "duration": 292}, {"note": 69, "velocity": 93, "duration": 228}, {"note": 0, "velocity": 0, "duration": 252}, {"note": 67, "velocity": 87, "duration": 120}, {"note": 0, "velocity": 0, "duration": 120}, {"note": 64, "velocity": 70, "duration": 110}, {"note": 0, "velocity": 0, "duration": 130}, {"note": 67, "velocity": 80, "duration": 90}, {"note": 0, "velocity": 0, "duration": 150}, {"note": 69, "velocity": 85, "duration": 113}, {"note": 0, "velocity": 0, "duration": 127}, {"note": 69, "velocity": 87, "duration": 262}, {"note": 0, "velocity": 0, "duration": 698}, {"note": 71, "velocity": 87, "duration": 114}, {"note": 0, "velocity": 0, "duration": 126}, {"note": 71, "velocity": 80, "duration": 98}, {"note": 0, "velocity": 0, "duration": 142}, {"note": 71, "velocity": 83, "duration": 104}, {"note": 0, "velocity": 0, "duration": 136}, {"note": 71, "velocity": 87, "duration": 130}, {"note": 0, "velocity": 0, "duration": 110}, {"note": 76, "velocity": 93, "duration": 299}, {"note": 0, "velocity": 0, "duration": 181}, {"note": 76, "velocity": 102, "duration": 166}, {"note": 0, "velocity": 0, "duration": 314}, {"note": 74, "velocity": 87, "duration": 147}, {"note": 0, "velocity": 0, "duration": 93}, {"note": 71, "velocity": 93, "duration": 101}, {"note": 0, "velocity": 0, "duration": 139}, {"note": 71, "velocity": 83, "duration": 107}, {"note": 0, "velocity": 0, "duration": 133}, {"note": 74, "velocity": 87, "duration": 112}, {"note": 0, "velocity": 0, "duration": 128}, {"note": 64, "velocity": 93, "duration": 236}, {"note": 0, "velocity": 0, "duration": 724}, {"note": 69, "velocity": 80, "duration": 104}, {"note": 0, "velocity": 0, "duration": 136}, {"note": 69, "velocity": 80, "duration": 96}, {"note": 0, "velocity": 0, "duration": 144}, {"note": 69, "velocity": 90, "duration": 116}, {"note": 0, "velocity": 0, "duration": 124}, {"note": 67, "velocity": 87, "duration": 90}, {"note": 0, "velocity": 0, "duration": 150}, {"note": 71, "velocity": 95, "duration": 281}, {"note": 0, "velocity": 0, "duration": 199}, {"note": 71, "velocity": 93, "duration": 151}, {"note": 0, "velocity": 0, "duration": 329}, {"note": 62, "velocity": 67, "duration": 167}, {"note": 0, "velocity": 0, "duration": 313}, {"note": 59, "velocity": 87, "duration": 115}, {"note": 0, "velocity": 0, "duration": 125}, {"note": 62, "velocity": 80, "duration": 120}, {"note": 0, "velocity": 0, "duration": 120}, {"note": 64, "velocity": 93, "duration": 220}, {"note": 0, "velocity": 0, "duration": 740}, {"note": 64, "velocity": 102, "duration": 287}, {"note": 0, "velocity": 0, "duration": 193}, {"note": 67, "velocity": 83, "duration": 103}, {"note": 0, "velocity": 0, "duration": 137}, {"note": 64, "velocity": 69, "duration": 85}, {"note": 0, "velocity": 0, "duration": 155}, {"note": 71, "velocity": 93, "duration": 311}, {"note": 0, "velocity": 0, "duration": 169}, {"note": 71, "velocity": 93, "duration": 165}, {"note": 0, "velocity": 0, "duration": 315}, {"note": 67, "velocity": 74, "duration": 239}, {"note": 0, "velocity": 0, "duration": 241}, {"note": 64, "velocity": 93, "duration": 106}, {"note": 0, "velocity": 0, "duration": 134}, {"note": 62, "velocity": 80, "duration": 120}, {"note": 0, "velocity": 0, "duration": 120}, {"note": 64, "velocity": 87, "duration": 319}, {"note": 0, "velocity": 0, "duration": 641}, {"note": 67, "velocity": 93, "duration": 216}, {"note": 0, "velocity": 0, "duration": 144}, {"note": 67, "velocity": 74, "duration": 61}, {"note": 64, "velocity": 80, "duration": 94}, {"note": 0, "velocity": 0, "duration": 146}, {"note": 62, "velocity": 93, "duration": 104}, {"note": 0, "velocity": 0, "duration": 136}, {"note": 67, "velocity": 87, "duration": 200}, {"note": 0, "velocity": 0, "duration": 160}, {"note": 67, "velocity": 72, "duration": 92}, {"note": 64, "velocity": 93, "duration": 98}, {"note": 0, "velocity": 0, "duration": 142}, {"note": 62, "velocity": 87, "duration": 107}, {"note": 0, "velocity": 0, "duration": 133}, {"note": 67, "velocity": 69, "duration": 301}, {"note": 67, "velocity": 100, "duration": 118}, {"note": 69, "velocity": 87, "duration": 134}, {"note": 0, "velocity": 0, "duration": 106}, {"note": 71, "velocity": 87, "duration": 124}, {"note": 0, "velocity": 0, "duration": 116}, {"note": 71, "velocity": 83, "duration": 254}, {"note": 0, "velocity": 0, "duration": 706}, {"note": 71, "velocity": 95, "duration": 379}, {"note": 0, "velocity": 0, "duration": 101}, {"note": 74, "velocity": 93, "duration": 332}, {"note": 0, "velocity": 0, "duration": 148}, {"note": 72, "velocity": 80, "duration": 314}, {"note": 0, "velocity": 0, "duration": 166}, {"note": 72, "velocity": 80, "duration": 294}, {"note": 0, "velocity": 0, "duration": 186}, {"note": 71, "velocity": 87, "duration": 132}, {"note": 0, "velocity": 0, "duration": 108}, {"note": 71, "velocity": 87, "duration": 132}, {"note": 0, "velocity": 0, "duration": 108}, {"note": 71, "velocity": 87, "duration": 142}, {"note": 0, "velocity": 0, "duration": 98}, {"note": 69, "velocity": 87, "duration": 97}, {"note": 0, "velocity": 0, "duration": 143}, {"note": 67, "velocity": 80, "duration": 270}, {"note": 0, "velocity": 0, "duration": 690}, {"note": 69, "velocity": 93, "duration": 190}, {"note": 0, "velocity": 0, "duration": 170}, {"note": 69, "velocity": 72, "duration": 50}, {"note": 0, "velocity": 0, "duration": 70}, {"note": 69, "velocity": 87, "duration": 104}, {"note": 0, "velocity": 0, "duration": 136}, {"note": 67, "velocity": 80, "duration": 101}, {"note": 0, "velocity": 0, "duration": 139}, {"note": 69, "velocity": 87, "duration": 104}, {"note": 0, "velocity": 0, "duration": 136}, {"note": 71, "velocity": 83, "duration": 101}, {"note": 0, "velocity": 0, "duration": 139}, {"note": 69, "velocity": 87, "duration": 119}, {"note": 0, "velocity": 0, "duration": 361}, {"note": 62, "velocity": 80, "duration": 98}, {"note": 0, "velocity": 0, "duration": 142}, {"note": 59, "velocity": 80, "duration": 104}, {"note": 0, "velocity": 0, "duration": 136}, {"note": 62, "velocity": 70, "duration": 107}, {"note": 0, "velocity": 0, "duration": 133}, {"note": 64, "velocity": 83, "duration": 124}, {"note": 0, "velocity": 0, "duration": 116}, {"note": 64, "velocity": 93, "duration": 199}, {"note": 0, "velocity": 0, "duration": 761}, {"note": 64, "velocity": 93, "duration": 320}, {"note": 0, "velocity": 0, "duration": 160}, {"note": 67, "velocity": 87, "duration": 126}, {"note": 0, "velocity": 0, "duration": 114}, {"note": 64, "velocity": 95, "duration": 116}, {"note": 0, "velocity": 0, "duration": 124}, {"note": 71, "velocity": 83, "duration": 308}, {"note": 0, "velocity": 0, "duration": 172}, {"note": 71, "velocity": 93, "duration": 208}, {"note": 0, "velocity": 0, "duration": 272}, {"note": 67, "velocity": 87, "duration": 261}, {"note": 0, "velocity": 0, "duration": 219}, {"note": 64, "velocity": 93, "duration": 124}, {"note": 0, "velocity": 0, "duration": 116}, {"note": 62, "velocity": 87, "duration": 113}, {"note": 0, "velocity": 0, "duration": 127}, {"note": 64, "velocity": 80, "duration": 371}, {"note": 0, "velocity": 0, "duration": 589}, {"note": 67, "velocity": 95, "duration": 207}, {"note": 0, "velocity": 0, "duration": 153}, {"note": 67, "velocity": 93, "duration": 94}, {"note": 64, "velocity": 90, "duration": 72}, {"note": 0, "velocity": 0, "duration": 168}, {"note": 62, "velocity": 93, "duration": 107}, {"note": 0, "velocity": 0, "duration": 133}, {"note": 67, "velocity": 87, "duration": 156}, {"note": 0, "velocity": 0, "duration": 204}, {"note": 67, "velocity": 95, "duration": 89}, {"note": 64, "velocity": 93, "duration": 70}, {"note": 0, "velocity": 0, "duration": 170}, {"note": 62, "velocity": 87, "duration": 101}, {"note": 0, "velocity": 0, "duration": 139}, {"note": 67, "velocity": 93, "duration": 327}, {"note": 67, "velocity": 100, "duration": 118}, {"note": 69, "velocity": 102, "duration": 115}, {"note": 0, "velocity": 0, "duration": 125}, {"note": 71, "velocity": 93, "duration": 100}, {"note": 0, "velocity": 0, "duration": 140}, {"note": 71, "velocity": 93, "duration": 207}, {"note": 0, "velocity": 0, "duration": 753}, {"note": 71, "velocity": 90, "duration": 304}, {"note": 0, "velocity": 0, "duration": 176}, {"note": 71, "velocity": 93, "duration": 133}, {"note": 0, "velocity": 0, "duration": 107}, {"note": 74, "velocity": 93, "duration": 112}, {"note": 0, "velocity": 0, "duration": 128}, {"note": 72, "velocity": 93, "duration": 317}, {"note": 0, "velocity": 0, "duration": 163}, {"note": 72, "velocity": 93, "duration": 216}, {"note": 0, "velocity": 0, "duration": 264}, {"note": 71, "velocity": 87, "duration": 337}, {"note": 0, "velocity": 0, "duration": 143}, {"note": 71, "velocity": 93, "duration": 142}, {"note": 0, "velocity": 0, "duration": 98}, {"note": 69, "velocity": 95, "duration": 116}, {"note": 0, "velocity": 0, "duration": 124}, {"note": 67, "velocity": 93, "duration": 271}, {"note": 0, "velocity": 0, "duration": 689}, {"note": 69, "velocity": 102, "duration": 104}, {"note": 0, "velocity": 0, "duration": 136}, {"note": 69, "velocity": 93, "duration": 111}, {"note": 0, "velocity": 0, "duration": 129}, {"note": 69, "velocity": 93, "duration": 119}, {"note": 0, "velocity": 0, "duration": 121}, {"note": 67, "velocity": 87, "duration": 130}, {"note": 0, "velocity": 0, "duration": 110}, {"note": 69, "velocity": 95, "duration": 157}, {"note": 0, "velocity": 0, "duration": 83}, {"note": 71, "velocity": 93, "duration": 113}, {"note": 0, "velocity": 0, "duration": 127}, {"note": 69, "velocity": 93, "duration": 211}, {"note": 0, "velocity": 0, "duration": 269}, {"note": 62, "velocity": 93, "duration": 199}, {"note": 0, "velocity": 0, "duration": 161}, {"note": 62, "velocity": 80, "duration": 87}, {"note": 67, "velocity": 83, "duration": 98}, {"note": 0, "velocity": 0, "duration": 142}, {"note": 66, "velocity": 67, "duration": 119}, {"note": 0, "velocity": 0, "duration": 121}, {"note": 64, "velocity": 90, "duration": 351}, {"note": 0, "velocity": 0, "duration": 609}, {"note": 64, "velocity": 105, "duration": 93}, {"note": 0, "velocity": 0, "duration": 267}, {"note": 64, "velocity": 87, "duration": 84}, {"note": 64, "velocity": 80, "duration": 101}, {"note": 0, "velocity": 0, "duration": 139}, {"note": 64, "velocity": 95, "duration": 98}, {"note": 0, "velocity": 0, "duration": 142}, {"note": 71, "velocity": 93, "duration": 219}, {"note": 0, "velocity": 0, "duration": 261}, {"note": 71, "velocity": 87, "duration": 305}, {"note": 0, "velocity": 0, "duration": 175}, {"note": 69, "velocity": 93, "duration": 155}, {"note": 0, "velocity": 0, "duration": 85}, {"note": 67, "velocity": 80, "duration": 98}, {"note": 0, "velocity": 0, "duration": 142}, {"note": 69, "velocity": 93, "duration": 110}, {"note": 0, "velocity": 0, "duration": 130}, {"note": 71, "velocity": 87, "duration": 139}, {"note": 0, "velocity": 0, "duration": 101}, {"note": 71, "velocity": 93, "duration": 196}, {"note": 0, "velocity": 0, "duration": 764}, {"note": 64, "velocity": 93, "duration": 116}, {"note": 0, "velocity": 0, "duration": 244}, {"note": 64, "velocity": 80, "duration": 61}, {"note": 64, "velocity": 74, "duration": 96}, {"note": 0, "velocity": 0, "duration": 144}, {"note": 64, "velocity": 87, "duration": 101}, {"note": 0, "velocity": 0, "duration": 139}, {"note": 69, "velocity": 102, "duration": 147}, {"note": 0, "velocity": 0, "duration": 333}, {"note": 69, "velocity": 90, "duration": 145}, {"note": 0, "velocity": 0, "duration": 335}, {"note": 67, "velocity": 85, "duration": 106}, {"note": 0, "velocity": 0, "duration": 134}, {"note": 64, "velocity": 85, "duration": 100}, {"note": 0, "velocity": 0, "duration": 140}, {"note": 67, "velocity": 83, "duration": 96}, {"note": 0, "velocity": 0, "duration": 144}, {"note": 69, "velocity": 87, "duration": 113}, {"note": 0, "velocity": 0, "duration": 127}, {"note": 69, "velocity": 93, "duration": 182}, {"note": 0, "velocity": 0, "duration": 778}, {"note": 71, "velocity": 69, "duration": 60}, {"note": 0, "velocity": 0, "duration": 180}, {"note": 71, "velocity": 93, "duration": 102}, {"note": 0, "velocity": 0, "duration": 138}, {"note": 71, "velocity": 95, "duration": 102}, {"note": 0, "velocity": 0, "duration": 138}, {"note": 71, "velocity": 95, "duration": 121}, {"note": 0, "velocity": 0, "duration": 119}, {"note": 76, "velocity": 95, "duration": 261}, {"note": 0, "velocity": 0, "duration": 219}, {"note": 76, "velocity": 95, "duration": 179}, {"note": 0, "velocity": 0, "duration": 301}, {"note": 74, "velocity": 66, "duration": 134}, {"note": 0, "velocity": 0, "duration": 106}, {"note": 71, "velocity": 80, "duration": 104}, {"note": 0, "velocity": 0, "duration": 136}, {"note": 71, "velocity": 93, "duration": 104}, {"note": 0, "velocity": 0, "duration": 136}, {"note": 74, "velocity": 105, "duration": 96}, {"note": 0, "velocity": 0, "duration": 144}, {"note": 64, "velocity": 103, "duration": 466}, {"note": 0, "velocity": 0, "duration": 494}, {"note": 69, "velocity": 93, "duration": 233}, {"note": 0, "velocity": 0, "duration": 127}, {"note": 69, "velocity": 80, "duration": 69}, {"note": 69, "velocity": 83, "duration": 107}, {"note": 0, "velocity": 0, "duration": 133}, {"note": 67, "velocity": 95, "duration": 88}, {"note": 0, "velocity": 0, "duration": 152}, {"note": 71, "velocity": 93, "duration": 248}, {"note": 0, "velocity": 0, "duration": 232}, {"note": 69, "velocity": 102, "duration": 176}, {"note": 0, "velocity": 0, "duration": 304}, {"note": 62, "velocity": 87, "duration": 104}, {"note": 0, "velocity": 0, "duration": 136}, {"note": 59, "velocity": 80, "duration": 115}, {"note": 0, "velocity": 0, "duration": 125}, {"note": 62, "velocity": 87, "duration": 99}, {"note": 0, "velocity": 0, "duration": 141}, {"note": 64, "velocity": 83, "duration": 124}, {"note": 0, "velocity": 0, "duration": 116}, {"note": 64, "velocity": 87, "duration": 291}, {"note": 0, "velocity": 0, "duration": 669}, {"note": 64, "velocity": 95, "duration": 135}, {"note": 0, "velocity": 0, "duration": 225}, {"note": 64, "velocity": 90, "duration": 57}, {"note": 0, "velocity": 0, "duration": 63}, {"note": 64, "velocity": 85, "duration": 97}, {"note": 0, "velocity": 0, "duration": 143}, {"note": 64, "velocity": 93, "duration": 97}, {"note": 0, "velocity": 0, "duration": 143}, {"note": 71, "velocity": 85, "duration": 176}, {"note": 0, "velocity": 0, "duration": 304}, {"note": 71, "velocity": 95, "duration": 187}, {"note": 0, "velocity": 0, "duration": 293}, {"note": 69, "velocity": 90, "duration": 116}, {"note": 0, "velocity": 0, "duration": 124}, {"note": 67, "velocity": 80, "duration": 87}, {"note": 0, "velocity": 0, "duration": 153}, {"note": 69, "velocity": 90, "duration": 96}, {"note": 0, "velocity": 0, "duration": 144}, {"note": 71, "velocity": 87, "duration": 116}, {"note": 0, "velocity": 0, "duration": 124}, {"note": 71, "velocity": 87, "duration": 221}, {"note": 0, "velocity": 0, "duration": 739}, {"note": 64, "velocity": 102, "duration": 145}, {"note": 0, "velocity": 0, "duration": 215}, {"note": 64, "velocity": 80, "duration": 61}, {"note": 64, "velocity": 80, "duration": 104}, {"note": 0, "velocity": 0, "duration": 136}, {"note": 64, "velocity": 87, "duration": 117}, {"note": 0, "velocity": 0, "duration": 123}, {"note": 69, "velocity": 103, "duration": 188}, {"note": 0, "velocity": 0, "duration": 292}, {"note": 69, "velocity": 93, "duration": 228}, {"note": 0, "velocity": 0, "duration": 252}, {"note": 67, "velocity": 87, "duration": 120}, {"note": 0, "velocity": 0, "duration": 120}, {"note": 64, "velocity": 70, "duration": 110}, {"note": 0, "velocity": 0, "duration": 130}, {"note": 67, "velocity": 80, "duration": 90}, {"note": 0, "velocity": 0, "duration": 150}, {"note": 69, "velocity": 85, "duration": 113}, {"note": 0, "velocity": 0, "duration": 127}, {"note": 69, "velocity": 87, "duration": 262}, {"note": 0, "velocity": 0, "duration": 698}, {"note": 71, "velocity": 87, "duration": 114}, {"note": 0, "velocity": 0, "duration": 126}, {"note": 71, "velocity": 80, "duration": 98}, {"note": 0, "velocity": 0, "duration": 142}, {"note": 71, "velocity": 83, "duration": 104}, {"note": 0, "velocity": 0, "duration": 136}, {"note": 71, "velocity": 87, "duration": 130}, {"note": 0, "velocity": 0, "duration": 110}, {"note": 76, "velocity": 93, "duration": 299}, {"note": 0, "velocity": 0, "duration": 181}, {"note": 76, "velocity": 102, "duration": 166}, {"note": 0, "velocity": 0, "duration": 314}, {"note": 74, "velocity": 87, "duration": 147}, {"note": 0, "velocity": 0, "duration": 93}, {"note": 71, "velocity": 93, "duration": 101}, {"note": 0, "velocity": 0, "duration": 139}, {"note": 71, "velocity": 83, "duration": 107}, {"note": 0, "velocity": 0, "duration": 133}, {"note": 74, "velocity": 87, "duration": 112}, {"note": 0, "velocity": 0, "duration": 128}, {"note": 64, "velocity": 93, "duration": 236}, {"note": 0, "velocity": 0, "duration": 724}, {"note": 69, "velocity": 80, "duration": 104}, {"note": 0, "velocity": 0, "duration": 136}, {"note": 69, "velocity": 80, "duration": 96}, {"note": 0, "velocity": 0, "duration": 144}, {"note": 69, "velocity": 90, "duration": 116}, {"note": 0, "velocity": 0, "duration": 124}, {"note": 67, "velocity": 87, "duration": 90}, {"note": 0, "velocity": 0, "duration": 150}, {"note": 71, "velocity": 95, "duration": 281}, {"note": 0, "velocity": 0, "duration": 199}, {"note": 71, "velocity": 93, "duration": 151}, {"note": 0, "velocity": 0, "duration": 329}, {"note": 62, "velocity": 67, "duration": 167}, {"note": 0, "velocity": 0, "duration": 313}, {"note": 59, "velocity": 87, "duration": 115}, {"note": 0, "velocity": 0, "duration": 125}, {"note": 62, "velocity": 80, "duration": 120}, {"note": 0, "velocity": 0, "duration": 120}, {"note": 64, "velocity": 93, "duration": 220}, {"note": 0, "velocity": 0, "duration": 16100}, {"note": 64, "velocity": 102, "duration": 287}, {"note": 0, "velocity": 0, "duration": 193}, {"note": 67, "velocity": 83, "duration": 103}, {"note": 0, "velocity": 0, "duration": 137}, {"note": 64, "velocity": 69, "duration": 85}, {"note": 0, "velocity": 0, "duration": 155}, {"note": 71, "velocity": 93, "duration": 311}, {"note": 0, "velocity": 0, "duration": 169}, {"note": 71, "velocity": 93, "duration": 165}, {"note": 0, "velocity": 0, "duration": 315}, {"note": 67, "velocity": 74, "duration": 239}, {"note": 0, "velocity": 0, "duration": 241}, {"note": 64, "velocity": 93, "duration": 106}, {"note": 0, "velocity": 0, "duration": 134}, {"note": 62, "velocity": 80, "duration": 120}, {"note": 0, "velocity": 0, "duration": 120}, {"note": 64, "velocity": 87, "duration": 319}, {"note": 0, "velocity": 0, "duration": 641}, {"note": 67, "velocity": 93, "duration": 216}, {"note": 0, "velocity": 0, "duration": 144}, {"note": 67, "velocity": 74, "duration": 61}, {"note": 64, "velocity": 80, "duration": 94}, {"note": 0, "velocity": 0, "duration": 146}, {"note": 62, "velocity": 93, "duration": 104}, {"note": 0, "velocity": 0, "duration": 136}, {"note": 67, "velocity": 87, "duration": 200}, {"note": 0, "velocity": 0, "duration": 160}, {"note": 67, "velocity": 72, "duration": 92}, {"note": 64, "velocity": 93, "duration": 98}, {"note": 0, "velocity": 0, "duration": 142}, {"note": 62, "velocity": 87, "duration": 107}, {"note": 0, "velocity": 0, "duration": 133}, {"note": 67, "velocity": 69, "duration": 301}, {"note": 67, "velocity": 100, "duration": 118}, {"note": 69, "velocity": 87, "duration": 134}, {"note": 0, "velocity": 0, "duration": 106}, {"note": 71, "velocity": 87, "duration": 124}, {"note": 0, "velocity": 0, "duration": 116}, {"note": 71, "velocity": 83, "duration": 254}, {"note": 0, "velocity": 0, "duration": 706}, {"note": 71, "velocity": 95, "duration": 379}, {"note": 0, "velocity": 0, "duration": 101}, {"note": 74, "velocity": 93, "duration": 332}, {"note": 0, "velocity": 0, "duration": 148}, {"note": 72, "velocity": 80, "duration": 314}, {"note": 0, "velocity": 0, "duration": 166}, {"note": 72, "velocity": 80, "duration": 294}, {"note": 0, "velocity": 0, "duration": 186}, {"note": 71, "velocity": 87, "duration": 132}, {"note": 0, "velocity": 0, "duration": 108}, {"note": 71, "velocity": 87, "duration": 132}, {"note": 0, "velocity": 0, "duration": 108}, {"note": 71, "velocity": 87, "duration": 142}, {"note": 0, "velocity": 0, "duration": 98}, {"note": 69, "velocity": 87, "duration": 97}, {"note": 0, "velocity": 0, "duration": 143}, {"note": 67, "velocity": 80, "duration": 270}, {"note": 0, "velocity": 0, "duration": 690}, {"note": 69, "velocity": 93, "duration": 190}, {"note": 0, "velocity": 0, "duration": 170}, {"note": 69, "velocity": 72, "duration": 50}, {"note": 0, "velocity": 0, "duration": 70}, {"note": 69, "velocity": 87, "duration": 104}, {"note": 0, "velocity": 0, "duration": 136}, {"note": 67, "velocity": 80, "duration": 101}, {"note": 0, "velocity": 0, "duration": 139}, {"note": 69, "velocity": 87, "duration": 104}, {"note": 0, "velocity": 0, "duration": 136}, {"note": 71, "velocity": 83, "duration": 101}, {"note": 0, "velocity": 0, "duration": 139}, {"note": 69, "velocity": 87, "duration": 119}, {"note": 0, "velocity": 0, "duration": 361}, {"note": 62, "velocity": 80, "duration": 98}, {"note": 0, "velocity": 0, "duration": 142}, {"note": 59, "velocity": 80, "duration": 104}, {"note": 0, "velocity": 0, "duration": 136}, {"note": 62, "velocity": 70, "duration": 107}, {"note": 0, "velocity": 0, "duration": 133}, {"note": 64, "velocity": 83, "duration": 124}, {"note": 0, "velocity": 0, "duration": 116}, {"note": 64, "velocity": 93, "duration": 199}, {"note": 0, "velocity": 0, "duration": 761}, {"note": 64, "velocity": 95, "duration": 135}, {"note": 0, "velocity": 0, "duration": 225}, {"note": 64, "velocity": 90, "duration": 57}, {"note": 0, "velocity": 0, "duration": 63}, {"note": 64, "velocity": 85, "duration": 97}, {"note": 0, "velocity": 0, "duration": 143}, {"note": 64, "velocity": 93, "duration": 97}, {"note": 0, "velocity": 0, "duration": 143}, {"note": 71, "velocity": 85, "duration": 176}, {"note": 0, "velocity": 0, "duration": 304}, {"note": 71, "velocity": 95, "duration": 187}, {"note": 0, "velocity": 0, "duration": 293}, {"note": 69, "velocity": 90, "duration": 116}, {"note": 0, "velocity": 0, "duration": 124}, {"note": 67, "velocity": 80, "duration": 87}, {"note": 0, "velocity": 0, "duration": 153}, {"note": 69, "velocity": 90, "duration": 96}, {"note": 0, "velocity": 0, "duration": 144}, {"note": 71, "velocity": 87, "duration": 116}, {"note": 0, "velocity": 0, "duration": 124}, {"note": 71, "velocity": 87, "duration": 221}, {"note": 0, "velocity": 0, "duration": 739}, {"note": 64, "velocity": 102, "duration": 145}, {"note": 0, "velocity": 0, "duration": 215}, {"note": 64, "velocity": 80, "duration": 61}, {"note": 64, "velocity": 80, "duration": 104}, {"note": 0, "velocity": 0, "duration": 136}, {"note": 64, "velocity": 87, "duration": 117}, {"note": 0, "velocity": 0, "duration": 123}, {"note": 69, "velocity": 103, "duration": 188}, {"note": 0, "velocity": 0, "duration": 292}, {"note": 69, "velocity": 93, "duration": 228}, {"note": 0, "velocity": 0, "duration": 252}, {"note": 67, "velocity": 87, "duration": 120}, {"note": 0, "velocity": 0, "duration": 120}, {"note": 64, "velocity": 70, "duration": 110}, {"note": 0, "velocity": 0, "duration": 130}, {"note": 67, "velocity": 80, "duration": 90}, {"note": 0, "velocity": 0, "duration": 150}, {"note": 69, "velocity": 85, "duration": 113}, {"note": 0, "velocity": 0, "duration": 127}, {"note": 69, "velocity": 87, "duration": 262}, {"note": 0, "velocity": 0, "duration": 698}, {"note": 71, "velocity": 87, "duration": 114}, {"note": 0, "velocity": 0, "duration": 126}, {"note": 71, "velocity": 80, "duration": 98}, {"note": 0, "velocity": 0, "duration": 142}, {"note": 71, "velocity": 83, "duration": 104}, {"note": 0, "velocity": 0, "duration": 136}, {"note": 71, "velocity": 87, "duration": 130}, {"note": 0, "velocity": 0, "duration": 110}, {"note": 76, "velocity": 93, "duration": 299}, {"note": 0, "velocity": 0, "duration": 181}, {"note": 76, "velocity": 102, "duration": 166}, {"note": 0, "velocity": 0, "duration": 314}, {"note": 74, "velocity": 87, "duration": 147}, {"note": 0, "velocity": 0, "duration": 93}, {"note": 71, "velocity": 93, "duration": 101}, {"note": 0, "velocity": 0, "duration": 139}, {"note": 71, "velocity": 83, "duration": 107}, {"note": 0, "velocity": 0, "duration": 133}, {"note": 74, "velocity": 87, "duration": 112}, {"note": 0, "velocity": 0, "duration": 128}, {"note": 64, "velocity": 93, "duration": 236}, {"note": 0, "velocity": 0, "duration": 724}, {"note": 69, "velocity": 80, "duration": 104}, {"note": 0, "velocity": 0, "duration": 136}, {"note": 69, "velocity": 80, "duration": 96}, {"note": 0, "velocity": 0, "duration": 144}, {"note": 69, "velocity": 90, "duration": 116}, {"note": 0, "velocity": 0, "duration": 124}, {"note": 67, "velocity": 87, "duration": 90}, {"note": 0, "velocity": 0, "duration": 150}, {"note": 71, "velocity": 95, "duration": 281}, {"note": 0, "velocity": 0, "duration": 199}, {"note": 71, "velocity": 93, "duration": 151}, {"note": 0, "velocity": 0, "duration": 329}, {"note": 62, "velocity": 67, "duration": 167}, {"note": 0, "velocity": 0, "duration": 313}, {"note": 59, "velocity": 87, "duration": 115}, {"note": 0, "velocity": 0, "duration": 125}, {"note": 62, "velocity": 80, "duration": 120}, {"note": 0, "velocity": 0, "duration": 120}, {"note": 64, "velocity": 93, "duration": 220}, {"note": 0, "velocity": 0, "duration": 740}, {"note": 64, "velocity": 105, "duration": 93}, {"note": 0, "velocity": 0, "duration": 267}, {"note": 64, "velocity": 87, "duration": 84}, {"note": 64, "velocity": 80, "duration": 101}, {"note": 0, "velocity": 0, "duration": 139}, {"note": 64, "velocity": 95, "duration": 98}, {"note": 0, "velocity": 0, "duration": 142}, {"note": 71, "velocity": 93, "duration": 219}, {"note": 0, "velocity": 0, "duration": 261}, {"note": 71, "velocity": 87, "duration": 305}, {"note": 0, "velocity": 0, "duration": 175}, {"note": 69, "velocity": 93, "duration": 155}, {"note": 0, "velocity": 0, "duration": 85}, {"note": 67, "velocity": 80, "duration": 98}, {"note": 0, "velocity": 0, "duration": 142}, {"note": 69, "velocity": 93, "duration": 110}, {"note": 0, "velocity": 0, "duration": 130}, {"note": 71, "velocity": 87, "duration": 139}, {"note": 0, "velocity": 0, "duration": 101}, {"note": 71, "velocity": 93, "duration": 196}, {"note": 0, "velocity": 0, "duration": 764}, {"note": 64, "velocity": 93, "duration": 116}, {"note": 0, "velocity": 0, "duration": 244}, {"note": 64, "velocity": 80, "duration": 61}, {"note": 64, "velocity": 74, "duration": 96}, {"note": 0, "velocity": 0, "duration": 144}, {"note": 64, "velocity": 87, "duration": 101}, {"note": 0, "velocity": 0, "duration": 139}, {"note": 69, "velocity": 102, "duration": 147}, {"note": 0, "velocity": 0, "duration": 333}, {"note": 69, "velocity": 90, "duration": 145}, {"note": 0, "velocity": 0, "duration": 335}, {"note": 67, "velocity": 85, "duration": 106}, {"note": 0, "velocity": 0, "duration": 134}, {"note": 64, "velocity": 85, "duration": 100}, {"note": 0, "velocity": 0, "duration": 140}, {"note": 67, "velocity": 83, "duration": 96}, {"note": 0, "velocity": 0, "duration": 144}, {"note": 69, "velocity": 87, "duration": 113}, {"note": 0, "velocity": 0, "duration": 127}, {"note": 69, "velocity": 93, "duration": 182}, {"note": 0, "velocity": 0, "duration": 778}, {"note": 71, "velocity": 69, "duration": 60}, {"note": 0, "velocity": 0, "duration": 180}, {"note": 71, "velocity": 93, "duration": 102}, {"note": 0, "velocity": 0, "duration": 138}, {"note": 71, "velocity": 95, "duration": 102}, {"note": 0, "velocity": 0, "duration": 138}, {"note": 71, "velocity": 95, "duration": 121}, {"note": 0, "velocity": 0, "duration": 119}, {"note": 76, "velocity": 95, "duration": 261}, {"note": 0, "velocity": 0, "duration": 219}, {"note": 76, "velocity": 95, "duration": 179}, {"note": 0, "velocity": 0, "duration": 301}, {"note": 74, "velocity": 66, "duration": 134}, {"note": 0, "velocity": 0, "duration": 106}, {"note": 71, "velocity": 80, "duration": 104}, {"note": 0, "velocity": 0, "duration": 136}, {"note": 71, "velocity": 93, "duration": 104}, {"note": 0, "velocity": 0, "duration": 136}, {"note": 74, "velocity": 105, "duration": 96}, {"note": 0, "velocity": 0, "duration": 144}, {"note": 64, "velocity": 103, "duration": 466}, {"note": 0, "velocity": 0, "duration": 494}, {"note": 69, "velocity": 93, "duration": 233}, {"note": 0, "velocity": 0, "duration": 127}, {"note": 69, "velocity": 80, "duration": 69}, {"note": 69, "velocity": 83, "duration": 107}, {"note": 0, "velocity": 0, "duration": 133}, {"note": 67, "velocity": 95, "duration": 88}, {"note": 0, "velocity": 0, "duration": 152}, {"note": 71, "velocity": 93, "duration": 248}, {"note": 0, "velocity": 0, "duration": 232}, {"note": 71, "velocity": 102, "duration": 176}, {"note": 0, "velocity": 0, "duration": 304}, {"note": 62, "velocity": 87, "duration": 104}, {"note": 0, "velocity": 0, "duration": 256}, {"note": 59, "velocity": 80, "duration": 115}, {"note": 0, "velocity": 0, "duration": 245}, {"note": 62, "velocity": 87, "duration": 99}, {"note": 0, "velocity": 0, "duration": 141}, {"note": 64, "velocity": 87, "duration": 598}, {"note": 0, "velocity": 0, "duration": 362}, {"note": 69, "velocity": 93, "duration": 233}, {"note": 0, "velocity": 0, "duration": 127}, {"note": 69, "velocity": 80, "duration": 69}, {"note": 69, "velocity": 83, "duration": 107}, {"note": 0, "velocity": 0, "duration": 133}, {"note": 67, "velocity": 95, "duration": 88}, {"note": 0, "velocity": 0, "duration": 152}, {"note": 71, "velocity": 93, "duration": 248}, {"note": 0, "velocity": 0, "duration": 232}, {"note": 71, "velocity": 102, "duration": 176}, {"note": 0, "velocity": 0, "duration": 304}, {"note": 74, "velocity": 87, "duration": 104}, {"note": 0, "velocity": 0, "duration": 256}, {"note": 71, "velocity": 80, "duration": 115}, {"note": 0, "velocity": 0, "duration": 245}, {"note": 74, "velocity": 87, "duration": 99}, {"note": 0, "velocity": 0, "duration": 141}, {"note": 76, "velocity": 87, "duration": 1438}]]