[[{"note": 70, "velocity": 117, "duration": 51}, {"note": 0, "velocity": 0, "duration": 69}, {"note": 70, "velocity": 96, "duration": 45}, {"note": 0, "velocity": 0, "duration": 75}, {"note": 70, "velocity": 92, "duration": 43}, {"note": 0, "velocity": 0, "duration": 77}, {"note": 70, "velocity": 92, "duration": 43}, {"note": 0, "velocity": 0, "duration": 77}, {"note": 70, "velocity": 113, "duration": 117}, {"note": 0, "velocity": 0, "duration": 123}, {"note": 72, "velocity": 113, "duration": 80}, {"note": 74, "velocity": 108, "duration": 135}, {"note": 72, "velocity": 114, "duration": 158}, {"note": 0, "velocity": 0, "duration": 82}, {"note": 67, "velocity": 108, "duration": 178}, {"note": 0, "velocity": 0, "duration": 542}, {"note": 70, "velocity": 96, "duration": 81}, {"note": 70, "velocity": 89, "duration": 53}, {"note": 0, "velocity": 0, "duration": 67}, {"note": 70, "velocity": 89, "duration": 51}, {"note": 0, "velocity": 0, "duration": 69}, {"note": 70, "velocity": 88, "duration": 47}, {"note": 0, "velocity": 0, "duration": 73}, {"note": 70, "velocity": 104, "duration": 126}, {"note": 0, "velocity": 0, "duration": 114}, {"note": 72, "velocity": 107, "duration": 65}, {"note": 74, "velocity": 96, "duration": 65}, {"note": 72, "velocity": 107, "duration": 133}, {"note": 0, "velocity": 0, "duration": 107}, {"note": 74, "velocity": 113, "duration": 152}, {"note": 0, "velocity": 0, "duration": 568}, {"note": 72, "velocity": 108, "duration": 49}, {"note": 0, "velocity": 0, "duration": 71}, {"note": 72, "velocity": 98, "duration": 43}, {"note": 0, "velocity": 0, "duration": 77}, {"note": 72, "velocity": 104, "duration": 45}, {"note": 0, "velocity": 0, "duration": 75}, {"note": 72, "velocity": 100, "duration": 43}, {"note": 0, "velocity": 0, "duration": 77}, {"note": 72, "velocity": 113, "duration": 127}, {"note": 0, "velocity": 0, "duration": 113}, {"note": 74, "velocity": 114, "duration": 77}, {"note": 77, "velocity": 114, "duration": 75}, {"note": 74, "velocity": 113, "duration": 119}, {"note": 0, "velocity": 0, "duration": 121}, {"note": 72, "velocity": 113, "duration": 100}, {"note": 70, "velocity": 102, "duration": 121}, {"note": 67, "velocity": 93, "duration": 120}, {"note": 70, "velocity": 104, "duration": 122}, {"note": 0, "velocity": 0, "duration": 118}, {"note": 70, "velocity": 104, "duration": 90}, {"note": 72, "velocity": 108, "duration": 63}, {"note": 72, "velocity": 113, "duration": 75}, {"note": 72, "velocity": 113, "duration": 75}, {"note": 70, "velocity": 100, "duration": 120}, {"note": 67, "velocity": 107, "duration": 92}, {"note": 67, "velocity": 98, "duration": 104}, {"note": 74, "velocity": 108, "duration": 130}, {"note": 0, "velocity": 0, "duration": 110}, {"note": 72, "velocity": 113, "duration": 171}, {"note": 0, "velocity": 0, "duration": 789}, {"note": 70, "velocity": 117, "duration": 51}, {"note": 0, "velocity": 0, "duration": 69}, {"note": 70, "velocity": 96, "duration": 45}, {"note": 0, "velocity": 0, "duration": 75}, {"note": 70, "velocity": 92, "duration": 43}, {"note": 0, "velocity": 0, "duration": 77}, {"note": 70, "velocity": 92, "duration": 43}, {"note": 0, "velocity": 0, "duration": 77}, {"note": 70, "velocity": 113, "duration": 117}, {"note": 0, "velocity": 0, "duration": 123}, {"note": 72, "velocity": 113, "duration": 80}, {"note": 74, "velocity": 108, "duration": 135}, {"note": 72, "velocity": 114, "duration": 158}, {"note": 0, "velocity": 0, "duration": 82}, {"note": 67, "velocity": 108, "duration": 178}, {"note": 0, "velocity": 0, "duration": 542}, {"note": 70, "velocity": 96, "duration": 81}, {"note": 70, "velocity": 89, "duration": 53}, {"note": 0, "velocity": 0, "duration": 67}, {"note": 70, "velocity": 89, "duration": 51}, {"note": 0, "velocity": 0, "duration": 69}, {"note": 70, "velocity": 88, "duration": 47}, {"note": 0, "velocity": 0, "duration": 73}, {"note": 70, "velocity": 104, "duration": 126}, {"note": 0, "velocity": 0, "duration": 114}, {"note": 72, "velocity": 107, "duration": 65}, {"note": 74, "velocity": 96, "duration": 65}, {"note": 72, "velocity": 107, "duration": 133}, {"note": 0, "velocity": 0, "duration": 107}, {"note": 74, "velocity": 113, "duration": 152}, {"note": 0, "velocity": 0, "duration": 568}, {"note": 72, "velocity": 108, "duration": 49}, {"note": 0, "velocity": 0, "duration": 71}, {"note": 72, "velocity": 98, "duration": 43}, {"note": 0, "velocity": 0, "duration": 77}, {"note": 72, "velocity": 104, "duration": 45}, {"note": 0, "velocity": 0, "duration": 75}, {"note": 72, "velocity": 100, "duration": 43}, {"note": 0, "velocity": 0, "duration": 77}, {"note": 72, "velocity": 113, "duration": 127}, {"note": 0, "velocity": 0, "duration": 113}, {"note": 74, "velocity": 114, "duration": 77}, {"note": 77, "velocity": 114, "duration": 75}, {"note": 74, "velocity": 113, "duration": 119}, {"note": 0, "velocity": 0, "duration": 121}, {"note": 72, "velocity": 113, "duration": 100}, {"note": 70, "velocity": 102, "duration": 121}, {"note": 67, "velocity": 93, "duration": 120}, {"note": 70, "velocity": 104, "duration": 60}, {"note": 70, "velocity": 104, "duration": 90}, {"note": 70, "velocity": 104, "duration": 90}, {"note": 72, "velocity": 108, "duration": 63}, {"note": 72, "velocity": 113, "duration": 75}, {"note": 72, "velocity": 113, "duration": 75}, {"note": 70, "velocity": 100, "duration": 120}, {"note": 67, "velocity": 107, "duration": 92}, {"note": 67, "velocity": 98, "duration": 104}, {"note": 70, "velocity": 94, "duration": 272}, {"note": 0, "velocity": 0, "duration": 208}, {"note": 70, "velocity": 113, "duration": 213}, {"note": 0, "velocity": 0, "duration": 2187}, {"note": 70, "velocity": 107, "duration": 109}, {"note": 72, "velocity": 92, "duration": 73}, {"note": 74, "velocity": 104, "duration": 37}, {"note": 0, "velocity": 0, "duration": 83}, {"note": 82, "velocity": 113, "duration": 53}, {"note": 0, "velocity": 0, "duration": 67}, {"note": 82, "velocity": 108, "duration": 59}, {"note": 0, "velocity": 0, "duration": 61}, {"note": 82, "velocity": 107, "duration": 52}, {"note": 0, "velocity": 0, "duration": 68}, {"note": 82, "velocity": 116, "duration": 139}, {"note": 0, "velocity": 0, "duration": 101}, {"note": 84, "velocity": 117, "duration": 133}, {"note": 0, "velocity": 0, "duration": 107}, {"note": 81, "velocity": 114, "duration": 170}, {"note": 0, "velocity": 0, "duration": 70}, {"note": 79, "velocity": 108, "duration": 107}, {"note": 77, "velocity": 116, "duration": 130}, {"note": 0, "velocity": 0, "duration": 230}, {"note": 74, "velocity": 117, "duration": 81}, {"note": 77, "velocity": 114, "duration": 74}, {"note": 79, "velocity": 114, "duration": 59}, {"note": 0, "velocity": 0, "duration": 61}, {"note": 79, "velocity": 113, "duration": 55}, {"note": 0, "velocity": 0, "duration": 65}, {"note": 79, "velocity": 114, "duration": 100}, {"note": 77, "velocity": 113, "duration": 107}, {"note": 79, "velocity": 117, "duration": 112}, {"note": 0, "velocity": 0, "duration": 128}, {"note": 70, "velocity": 113, "duration": 122}, {"note": 72, "velocity": 102, "duration": 132}, {"note": 74, "velocity": 114, "duration": 166}, {"note": 0, "velocity": 0, "duration": 74}, {"note": 77, "velocity": 100, "duration": 116}, {"note": 74, "velocity": 108, "duration": 124}, {"note": 0, "velocity": 0, "duration": 476}, {"note": 72, "velocity": 108, "duration": 113}, {"note": 72, "velocity": 108, "duration": 122}, {"note": 0, "velocity": 0, "duration": 118}, {"note": 74, "velocity": 108, "duration": 98}, {"note": 72, "velocity": 116, "duration": 134}, {"note": 0, "velocity": 0, "duration": 106}, {"note": 67, "velocity": 107, "duration": 79}, {"note": 70, "velocity": 114, "duration": 69}, {"note": 77, "velocity": 116, "duration": 95}, {"note": 74, "velocity": 104, "duration": 113}, {"note": 72, "velocity": 100, "duration": 89}, {"note": 74, "velocity": 117, "duration": 133}, {"note": 0, "velocity": 0, "duration": 467}, {"note": 79, "velocity": 117, "duration": 67}, {"note": 79, "velocity": 114, "duration": 51}, {"note": 0, "velocity": 0, "duration": 69}, {"note": 79, "velocity": 113, "duration": 62}, {"note": 82, "velocity": 116, "duration": 75}, {"note": 81, "velocity": 114, "duration": 96}, {"note": 77, "velocity": 113, "duration": 72}, {"note": 79, "velocity": 113, "duration": 134}, {"note": 0, "velocity": 0, "duration": 226}, {"note": 77, "velocity": 117, "duration": 155}, {"note": 0, "velocity": 0, "duration": 445}, {"note": 74, "velocity": 117, "duration": 122}, {"note": 77, "velocity": 113, "duration": 63}, {"note": 82, "velocity": 119, "duration": 62}, {"note": 82, "velocity": 116, "duration": 56}, {"note": 0, "velocity": 0, "duration": 64}, {"note": 82, "velocity": 110, "duration": 53}, {"note": 0, "velocity": 0, "duration": 67}, {"note": 82, "velocity": 114, "duration": 58}, {"note": 0, "velocity": 0, "duration": 62}, {"note": 82, "velocity": 117, "duration": 79}, {"note": 0, "velocity": 0, "duration": 161}, {"note": 82, "velocity": 113, "duration": 111}, {"note": 84, "velocity": 110, "duration": 105}, {"note": 81, "velocity": 113, "duration": 168}, {"note": 0, "velocity": 0, "duration": 72}, {"note": 77, "velocity": 116, "duration": 112}, {"note": 79, "velocity": 114, "duration": 114}, {"note": 0, "velocity": 0, "duration": 246}, {"note": 74, "velocity": 114, "duration": 81}, {"note": 77, "velocity": 107, "duration": 75}, {"note": 79, "velocity": 108, "duration": 60}, {"note": 79, "velocity": 102, "duration": 51}, {"note": 0, "velocity": 0, "duration": 69}, {"note": 79, "velocity": 113, "duration": 97}, {"note": 77, "velocity": 108, "duration": 117}, {"note": 79, "velocity": 110, "duration": 144}, {"note": 0, "velocity": 0, "duration": 96}, {"note": 70, "velocity": 110, "duration": 124}, {"note": 72, "velocity": 107, "duration": 88}, {"note": 74, "velocity": 108, "duration": 84}, {"note": 0, "velocity": 0, "duration": 156}, {"note": 77, "velocity": 108, "duration": 96}, {"note": 74, "velocity": 110, "duration": 146}, {"note": 0, "velocity": 0, "duration": 454}, {"note": 72, "velocity": 110, "duration": 58}, {"note": 0, "velocity": 0, "duration": 62}, {"note": 72, "velocity": 110, "duration": 109}, {"note": 0, "velocity": 0, "duration": 131}, {"note": 74, "velocity": 110, "duration": 95}, {"note": 72, "velocity": 116, "duration": 134}, {"note": 0, "velocity": 0, "duration": 106}, {"note": 67, "velocity": 113, "duration": 72}, {"note": 70, "velocity": 96, "duration": 57}, {"note": 0, "velocity": 0, "duration": 63}, {"note": 77, "velocity": 110, "duration": 97}, {"note": 74, "velocity": 110, "duration": 103}, {"note": 72, "velocity": 107, "duration": 109}, {"note": 74, "velocity": 116, "duration": 131}, {"note": 0, "velocity": 0, "duration": 469}, {"note": 79, "velocity": 114, "duration": 69}, {"note": 79, "velocity": 116, "duration": 112}, {"note": 0, "velocity": 0, "duration": 128}, {"note": 82, "velocity": 110, "duration": 78}, {"note": 81, "velocity": 107, "duration": 121}, {"note": 79, "velocity": 102, "duration": 108}, {"note": 77, "velocity": 113, "duration": 137}, {"note": 0, "velocity": 0, "duration": 343}, {"note": 77, "velocity": 116, "duration": 184}, {"note": 0, "velocity": 0, "duration": 8216}, {"note": 70, "velocity": 117, "duration": 51}, {"note": 0, "velocity": 0, "duration": 69}, {"note": 70, "velocity": 96, "duration": 45}, {"note": 0, "velocity": 0, "duration": 75}, {"note": 70, "velocity": 92, "duration": 43}, {"note": 0, "velocity": 0, "duration": 77}, {"note": 70, "velocity": 92, "duration": 43}, {"note": 0, "velocity": 0, "duration": 77}, {"note": 70, "velocity": 113, "duration": 117}, {"note": 0, "velocity": 0, "duration": 123}, {"note": 72, "velocity": 113, "duration": 80}, {"note": 74, "velocity": 108, "duration": 135}, {"note": 72, "velocity": 114, "duration": 158}, {"note": 0, "velocity": 0, "duration": 82}, {"note": 67, "velocity": 108, "duration": 178}, {"note": 0, "velocity": 0, "duration": 542}, {"note": 70, "velocity": 96, "duration": 81}, {"note": 70, "velocity": 89, "duration": 53}, {"note": 0, "velocity": 0, "duration": 67}, {"note": 70, "velocity": 89, "duration": 51}, {"note": 0, "velocity": 0, "duration": 69}, {"note": 70, "velocity": 88, "duration": 47}, {"note": 0, "velocity": 0, "duration": 73}, {"note": 70, "velocity": 104, "duration": 126}, {"note": 0, "velocity": 0, "duration": 114}, {"note": 72, "velocity": 107, "duration": 65}, {"note": 74, "velocity": 96, "duration": 65}, {"note": 72, "velocity": 107, "duration": 133}, {"note": 0, "velocity": 0, "duration": 107}, {"note": 74, "velocity": 113, "duration": 152}, {"note": 0, "velocity": 0, "duration": 568}, {"note": 72, "velocity": 108, "duration": 49}, {"note": 0, "velocity": 0, "duration": 71}, {"note": 72, "velocity": 98, "duration": 43}, {"note": 0, "velocity": 0, "duration": 77}, {"note": 72, "velocity": 104, "duration": 45}, {"note": 0, "velocity": 0, "duration": 75}, {"note": 72, "velocity": 100, "duration": 43}, {"note": 0, "velocity": 0, "duration": 77}, {"note": 72, "velocity": 113, "duration": 127}, {"note": 0, "velocity": 0, "duration": 113}, {"note": 74, "velocity": 114, "duration": 77}, {"note": 77, "velocity": 114, "duration": 75}, {"note": 74, "velocity": 113, "duration": 119}, {"note": 0, "velocity": 0, "duration": 121}, {"note": 72, "velocity": 113, "duration": 100}, {"note": 70, "velocity": 102, "duration": 121}, {"note": 67, "velocity": 93, "duration": 120}, {"note": 70, "velocity": 104, "duration": 122}, {"note": 0, "velocity": 0, "duration": 118}, {"note": 70, "velocity": 104, "duration": 90}, {"note": 72, "velocity": 108, "duration": 63}, {"note": 72, "velocity": 113, "duration": 75}, {"note": 72, "velocity": 113, "duration": 75}, {"note": 70, "velocity": 100, "duration": 120}, {"note": 67, "velocity": 107, "duration": 92}, {"note": 67, "velocity": 98, "duration": 104}, {"note": 74, "velocity": 108, "duration": 130}, {"note": 0, "velocity": 0, "duration": 110}, {"note": 72, "velocity": 113, "duration": 171}, {"note": 0, "velocity": 0, "duration": 789}, {"note": 70, "velocity": 117, "duration": 51}, {"note": 0, "velocity": 0, "duration": 69}, {"note": 70, "velocity": 96, "duration": 45}, {"note": 0, "velocity": 0, "duration": 75}, {"note": 70, "velocity": 92, "duration": 43}, {"note": 0, "velocity": 0, "duration": 77}, {"note": 70, "velocity": 92, "duration": 43}, {"note": 0, "velocity": 0, "duration": 77}, {"note": 70, "velocity": 113, "duration": 117}, {"note": 0, "velocity": 0, "duration": 123}, {"note": 72, "velocity": 113, "duration": 80}, {"note": 74, "velocity": 108, "duration": 135}, {"note": 72, "velocity": 114, "duration": 158}, {"note": 0, "velocity": 0, "duration": 82}, {"note": 67, "velocity": 108, "duration": 178}, {"note": 0, "velocity": 0, "duration": 542}, {"note": 70, "velocity": 96, "duration": 81}, {"note": 70, "velocity": 89, "duration": 53}, {"note": 0, "velocity": 0, "duration": 67}, {"note": 70, "velocity": 89, "duration": 51}, {"note": 0, "velocity": 0, "duration": 69}, {"note": 70, "velocity": 88, "duration": 47}, {"note": 0, "velocity": 0, "duration": 73}, {"note": 70, "velocity": 104, "duration": 126}, {"note": 0, "velocity": 0, "duration": 114}, {"note": 72, "velocity": 107, "duration": 65}, {"note": 74, "velocity": 96, "duration": 65}, {"note": 72, "velocity": 107, "duration": 133}, {"note": 0, "velocity": 0, "duration": 107}, {"note": 74, "velocity": 113, "duration": 152}, {"note": 0, "velocity": 0, "duration": 568}, {"note": 72, "velocity": 108, "duration": 49}, {"note": 0, "velocity": 0, "duration": 71}, {"note": 72, "velocity": 98, "duration": 43}, {"note": 0, "velocity": 0, "duration": 77}, {"note": 72, "velocity": 104, "duration": 45}, {"note": 0, "velocity": 0, "duration": 75}, {"note": 72, "velocity": 100, "duration": 43}, {"note": 0, "velocity": 0, "duration": 77}, {"note": 72, "velocity": 113, "duration": 127}, {"note": 0, "velocity": 0, "duration": 113}, {"note": 74, "velocity": 114, "duration": 77}, {"note": 77, "velocity": 114, "duration": 75}, {"note": 74, "velocity": 113, "duration": 119}, {"note": 0, "velocity": 0, "duration": 121}, {"note": 72, "velocity": 113, "duration": 100}, {"note": 70, "velocity": 102, "duration": 121}, {"note": 67, "velocity": 93, "duration": 120}, {"note": 70, "velocity": 104, "duration": 60}, {"note": 70, "velocity": 104, "duration": 90}, {"note": 70, "velocity": 104, "duration": 90}, {"note": 72, "velocity": 108, "duration": 63}, {"note": 72, "velocity": 113, "duration": 75}, {"note": 72, "velocity": 113, "duration": 75}, {"note": 70, "velocity": 100, "duration": 120}, {"note": 67, "velocity": 107, "duration": 92}, {"note": 67, "velocity": 98, "duration": 104}, {"note": 70, "velocity": 94, "duration": 272}, {"note": 0, "velocity": 0, "duration": 208}, {"note": 70, "velocity": 113, "duration": 213}, {"note": 0, "velocity": 0, "duration": 2187}, {"note": 70, "velocity": 107, "duration": 109}, {"note": 72, "velocity": 92, "duration": 73}, {"note": 74, "velocity": 104, "duration": 37}, {"note": 0, "velocity": 0, "duration": 83}, {"note": 82, "velocity": 113, "duration": 53}, {"note": 0, "velocity": 0, "duration": 67}, {"note": 82, "velocity": 108, "duration": 59}, {"note": 0, "velocity": 0, "duration": 61}, {"note": 82, "velocity": 107, "duration": 52}, {"note": 0, "velocity": 0, "duration": 68}, {"note": 82, "velocity": 116, "duration": 139}, {"note": 0, "velocity": 0, "duration": 93}, {"note": 82, "velocity": 100, "duration": 60}, {"note": 84, "velocity": 117, "duration": 42}, {"note": 0, "velocity": 0, "duration": 101}, {"note": 81, "velocity": 114, "duration": 170}, {"note": 0, "velocity": 0, "duration": 70}, {"note": 79, "velocity": 108, "duration": 107}, {"note": 77, "velocity": 116, "duration": 130}, {"note": 0, "velocity": 0, "duration": 230}, {"note": 74, "velocity": 117, "duration": 81}, {"note": 77, "velocity": 114, "duration": 74}, {"note": 79, "velocity": 114, "duration": 59}, {"note": 0, "velocity": 0, "duration": 61}, {"note": 79, "velocity": 113, "duration": 55}, {"note": 0, "velocity": 0, "duration": 65}, {"note": 79, "velocity": 114, "duration": 100}, {"note": 77, "velocity": 113, "duration": 107}, {"note": 79, "velocity": 117, "duration": 112}, {"note": 0, "velocity": 0, "duration": 128}, {"note": 70, "velocity": 113, "duration": 122}, {"note": 72, "velocity": 102, "duration": 132}, {"note": 74, "velocity": 114, "duration": 166}, {"note": 0, "velocity": 0, "duration": 74}, {"note": 77, "velocity": 100, "duration": 116}, {"note": 74, "velocity": 108, "duration": 124}, {"note": 0, "velocity": 0, "duration": 476}, {"note": 72, "velocity": 108, "duration": 113}, {"note": 72, "velocity": 108, "duration": 122}, {"note": 0, "velocity": 0, "duration": 118}, {"note": 74, "velocity": 108, "duration": 98}, {"note": 72, "velocity": 116, "duration": 134}, {"note": 0, "velocity": 0, "duration": 106}, {"note": 67, "velocity": 107, "duration": 79}, {"note": 70, "velocity": 114, "duration": 69}, {"note": 77, "velocity": 116, "duration": 95}, {"note": 74, "velocity": 104, "duration": 113}, {"note": 72, "velocity": 100, "duration": 89}, {"note": 74, "velocity": 117, "duration": 133}, {"note": 0, "velocity": 0, "duration": 467}, {"note": 79, "velocity": 117, "duration": 67}, {"note": 79, "velocity": 114, "duration": 51}, {"note": 0, "velocity": 0, "duration": 69}, {"note": 79, "velocity": 113, "duration": 62}, {"note": 82, "velocity": 116, "duration": 75}, {"note": 81, "velocity": 114, "duration": 96}, {"note": 79, "velocity": 113, "duration": 72}, {"note": 79, "velocity": 113, "duration": 134}, {"note": 0, "velocity": 0, "duration": 226}, {"note": 77, "velocity": 117, "duration": 155}, {"note": 0, "velocity": 0, "duration": 445}, {"note": 74, "velocity": 117, "duration": 122}, {"note": 77, "velocity": 113, "duration": 63}, {"note": 82, "velocity": 119, "duration": 62}, {"note": 82, "velocity": 116, "duration": 56}, {"note": 0, "velocity": 0, "duration": 64}, {"note": 82, "velocity": 110, "duration": 53}, {"note": 0, "velocity": 0, "duration": 67}, {"note": 82, "velocity": 114, "duration": 58}, {"note": 0, "velocity": 0, "duration": 62}, {"note": 82, "velocity": 117, "duration": 79}, {"note": 0, "velocity": 0, "duration": 161}, {"note": 81, "velocity": 113, "duration": 111}, {"note": 84, "velocity": 110, "duration": 105}, {"note": 81, "velocity": 113, "duration": 168}, {"note": 0, "velocity": 0, "duration": 72}, {"note": 77, "velocity": 116, "duration": 112}, {"note": 79, "velocity": 114, "duration": 114}, {"note": 0, "velocity": 0, "duration": 246}, {"note": 74, "velocity": 114, "duration": 81}, {"note": 77, "velocity": 107, "duration": 75}, {"note": 79, "velocity": 108, "duration": 60}, {"note": 79, "velocity": 102, "duration": 51}, {"note": 0, "velocity": 0, "duration": 69}, {"note": 79, "velocity": 113, "duration": 97}, {"note": 77, "velocity": 108, "duration": 117}, {"note": 79, "velocity": 110, "duration": 144}, {"note": 0, "velocity": 0, "duration": 96}, {"note": 70, "velocity": 110, "duration": 124}, {"note": 72, "velocity": 107, "duration": 88}, {"note": 74, "velocity": 108, "duration": 84}, {"note": 0, "velocity": 0, "duration": 156}, {"note": 77, "velocity": 108, "duration": 96}, {"note": 74, "velocity": 110, "duration": 146}, {"note": 0, "velocity": 0, "duration": 454}, {"note": 72, "velocity": 110, "duration": 58}, {"note": 0, "velocity": 0, "duration": 62}, {"note": 72, "velocity": 110, "duration": 109}, {"note": 0, "velocity": 0, "duration": 131}, {"note": 74, "velocity": 110, "duration": 95}, {"note": 72, "velocity": 116, "duration": 134}, {"note": 0, "velocity": 0, "duration": 106}, {"note": 67, "velocity": 113, "duration": 72}, {"note": 70, "velocity": 96, "duration": 57}, {"note": 0, "velocity": 0, "duration": 63}, {"note": 77, "velocity": 110, "duration": 97}, {"note": 74, "velocity": 110, "duration": 103}, {"note": 72, "velocity": 107, "duration": 109}, {"note": 74, "velocity": 116, "duration": 131}, {"note": 0, "velocity": 0, "duration": 469}, {"note": 79, "velocity": 114, "duration": 69}, {"note": 79, "velocity": 116, "duration": 112}, {"note": 0, "velocity": 0, "duration": 128}, {"note": 82, "velocity": 110, "duration": 78}, {"note": 81, "velocity": 107, "duration": 121}, {"note": 79, "velocity": 102, "duration": 108}, {"note": 77, "velocity": 113, "duration": 137}, {"note": 0, "velocity": 0, "duration": 343}, {"note": 77, "velocity": 116, "duration": 184}, {"note": 0, "velocity": 0, "duration": 536}, {"note": 70, "velocity": 117, "duration": 51}, {"note": 0, "velocity": 0, "duration": 69}, {"note": 70, "velocity": 96, "duration": 45}, {"note": 0, "velocity": 0, "duration": 75}, {"note": 70, "velocity": 92, "duration": 43}, {"note": 0, "velocity": 0, "duration": 77}, {"note": 70, "velocity": 92, "duration": 43}, {"note": 0, "velocity": 0, "duration": 77}, {"note": 70, "velocity": 113, "duration": 117}, {"note": 0, "velocity": 0, "duration": 123}, {"note": 72, "velocity": 113, "duration": 80}, {"note": 74, "velocity": 108, "duration": 135}, {"note": 72, "velocity": 114, "duration": 158}, {"note": 0, "velocity": 0, "duration": 82}, {"note": 67, "velocity": 108, "duration": 178}, {"note": 0, "velocity": 0, "duration": 542}, {"note": 70, "velocity": 96, "duration": 81}, {"note": 70, "velocity": 89, "duration": 53}, {"note": 0, "velocity": 0, "duration": 67}, {"note": 70, "velocity": 89, "duration": 51}, {"note": 0, "velocity": 0, "duration": 69}, {"note": 70, "velocity": 88, "duration": 47}, {"note": 0, "velocity": 0, "duration": 73}, {"note": 70, "velocity": 104, "duration": 126}, {"note": 0, "velocity": 0, "duration": 114}, {"note": 72, "velocity": 107, "duration": 65}, {"note": 74, "velocity": 96, "duration": 65}, {"note": 72, "velocity": 107, "duration": 133}, {"note": 0, "velocity": 0, "duration": 107}, {"note": 74, "velocity": 113, "duration": 152}, {"note": 0, "velocity": 0, "duration": 568}, {"note": 72, "velocity": 108, "duration": 49}, {"note": 0, "velocity": 0, "duration": 71}, {"note": 72, "velocity": 98, "duration": 43}, {"note": 0, "velocity": 0, "duration": 77}, {"note": 72, "velocity": 104, "duration": 45}, {"note": 0, "velocity": 0, "duration": 75}, {"note": 72, "velocity": 100, "duration": 43}, {"note": 0, "velocity": 0, "duration": 77}, {"note": 72, "velocity": 113, "duration": 127}, {"note": 0, "velocity": 0, "duration": 113}, {"note": 74, "velocity": 114, "duration": 77}, {"note": 77, "velocity": 114, "duration": 75}, {"note": 74, "velocity": 113, "duration": 119}, {"note": 0, "velocity": 0, "duration": 121}, {"note": 72, "velocity": 113, "duration": 100}, {"note": 70, "velocity": 102, "duration": 121}, {"note": 67, "velocity": 93, "duration": 120}, {"note": 70, "velocity": 104, "duration": 122}, {"note": 0, "velocity": 0, "duration": 118}, {"note": 70, "velocity": 104, "duration": 90}, {"note": 72, "velocity": 108, "duration": 63}, {"note": 72, "velocity": 113, "duration": 75}, {"note": 72, "velocity": 113, "duration": 75}, {"note": 70, "velocity": 100, "duration": 120}, {"note": 67, "velocity": 107, "duration": 92}, {"note": 67, "velocity": 98, "duration": 104}, {"note": 74, "velocity": 108, "duration": 130}, {"note": 0, "velocity": 0, "duration": 110}, {"note": 72, "velocity": 113, "duration": 171}, {"note": 0, "velocity": 0, "duration": 789}, {"note": 70, "velocity": 117, "duration": 51}, {"note": 0, "velocity": 0, "duration": 69}, {"note": 70, "velocity": 96, "duration": 45}, {"note": 0, "velocity": 0, "duration": 75}, {"note": 70, "velocity": 92, "duration": 43}, {"note": 0, "velocity": 0, "duration": 77}, {"note": 70, "velocity": 92, "duration": 43}, {"note": 0, "velocity": 0, "duration": 77}, {"note": 70, "velocity": 113, "duration": 117}, {"note": 0, "velocity": 0, "duration": 123}, {"note": 72, "velocity": 113, "duration": 80}, {"note": 74, "velocity": 108, "duration": 135}, {"note": 72, "velocity": 114, "duration": 158}, {"note": 0, "velocity": 0, "duration": 82}, {"note": 67, "velocity": 108, "duration": 178}, {"note": 0, "velocity": 0, "duration": 542}, {"note": 70, "velocity": 96, "duration": 81}, {"note": 70, "velocity": 89, "duration": 53}, {"note": 0, "velocity": 0, "duration": 67}, {"note": 70, "velocity": 89, "duration": 51}, {"note": 0, "velocity": 0, "duration": 69}, {"note": 70, "velocity": 88, "duration": 47}, {"note": 0, "velocity": 0, "duration": 73}, {"note": 70, "velocity": 104, "duration": 126}, {"note": 0, "velocity": 0, "duration": 114}, {"note": 72, "velocity": 107, "duration": 65}, {"note": 74, "velocity": 96, "duration": 65}, {"note": 72, "velocity": 107, "duration": 133}, {"note": 0, "velocity": 0, "duration": 107}, {"note": 74, "velocity": 113, "duration": 152}, {"note": 0, "velocity": 0, "duration": 568}, {"note": 72, "velocity": 108, "duration": 49}, {"note": 0, "velocity": 0, "duration": 71}, {"note": 72, "velocity": 98, "duration": 43}, {"note": 0, "velocity": 0, "duration": 77}, {"note": 72, "velocity": 104, "duration": 45}, {"note": 0, "velocity": 0, "duration": 75}, {"note": 72, "velocity": 100, "duration": 43}, {"note": 0, "velocity": 0, "duration": 77}, {"note": 72, "velocity": 113, "duration": 127}, {"note": 0, "velocity": 0, "duration": 113}, {"note": 74, "velocity": 114, "duration": 77}, {"note": 77, "velocity": 114, "duration": 75}, {"note": 74, "velocity": 113, "duration": 119}, {"note": 0, "velocity": 0, "duration": 121}, {"note": 72, "velocity": 113, "duration": 100}, {"note": 70, "velocity": 102, "duration": 121}, {"note": 67, "velocity": 93, "duration": 120}, {"note": 70, "velocity": 104, "duration": 60}, {"note": 70, "velocity": 104, "duration": 90}, {"note": 70, "velocity": 104, "duration": 90}, {"note": 72, "velocity": 108, "duration": 63}, {"note": 72, "velocity": 113, "duration": 75}, {"note": 72, "velocity": 113, "duration": 75}, {"note": 70, "velocity": 100, "duration": 120}, {"note": 67, "velocity": 107, "duration": 92}, {"note": 67, "velocity": 98, "duration": 104}, {"note": 70, "velocity": 94, "duration": 272}, {"note": 0, "velocity": 0, "duration": 208}, {"note": 70, "velocity": 113, "duration": 213}, {"note": 0, "velocity": 0, "duration": 7947}, {"note": 70, "velocity": 107, "duration": 109}, {"note": 72, "velocity": 92, "duration": 73}, {"note": 74, "velocity": 104, "duration": 37}, {"note": 0, "velocity": 0, "duration": 83}, {"note": 82, "velocity": 113, "duration": 53}, {"note": 0, "velocity": 0, "duration": 67}, {"note": 82, "velocity": 108, "duration": 59}, {"note": 0, "velocity": 0, "duration": 61}, {"note": 82, "velocity": 107, "duration": 52}, {"note": 0, "velocity": 0, "duration": 68}, {"note": 82, "velocity": 116, "duration": 139}, {"note": 0, "velocity": 0, "duration": 95}, {"note": 82, "velocity": 100, "duration": 46}, {"note": 84, "velocity": 117, "duration": 103}, {"note": 81, "velocity": 114, "duration": 170}, {"note": 0, "velocity": 0, "duration": 70}, {"note": 79, "velocity": 108, "duration": 107}, {"note": 77, "velocity": 116, "duration": 130}, {"note": 0, "velocity": 0, "duration": 230}, {"note": 74, "velocity": 117, "duration": 81}, {"note": 77, "velocity": 114, "duration": 74}, {"note": 79, "velocity": 114, "duration": 59}, {"note": 0, "velocity": 0, "duration": 61}, {"note": 79, "velocity": 113, "duration": 55}, {"note": 0, "velocity": 0, "duration": 65}, {"note": 79, "velocity": 114, "duration": 100}, {"note": 77, "velocity": 113, "duration": 107}, {"note": 79, "velocity": 117, "duration": 112}, {"note": 0, "velocity": 0, "duration": 128}, {"note": 70, "velocity": 113, "duration": 122}, {"note": 72, "velocity": 102, "duration": 132}, {"note": 74, "velocity": 114, "duration": 166}, {"note": 0, "velocity": 0, "duration": 74}, {"note": 77, "velocity": 100, "duration": 116}, {"note": 74, "velocity": 108, "duration": 124}, {"note": 0, "velocity": 0, "duration": 476}, {"note": 72, "velocity": 108, "duration": 113}, {"note": 72, "velocity": 108, "duration": 122}, {"note": 0, "velocity": 0, "duration": 118}, {"note": 74, "velocity": 108, "duration": 98}, {"note": 72, "velocity": 116, "duration": 134}, {"note": 0, "velocity": 0, "duration": 106}, {"note": 67, "velocity": 107, "duration": 79}, {"note": 70, "velocity": 114, "duration": 69}, {"note": 77, "velocity": 116, "duration": 95}, {"note": 74, "velocity": 104, "duration": 113}, {"note": 72, "velocity": 100, "duration": 89}, {"note": 74, "velocity": 117, "duration": 133}, {"note": 0, "velocity": 0, "duration": 467}, {"note": 79, "velocity": 117, "duration": 67}, {"note": 79, "velocity": 114, "duration": 51}, {"note": 0, "velocity": 0, "duration": 69}, {"note": 79, "velocity": 113, "duration": 62}, {"note": 82, "velocity": 116, "duration": 75}, {"note": 81, "velocity": 114, "duration": 96}, {"note": 77, "velocity": 113, "duration": 72}, {"note": 79, "velocity": 113, "duration": 134}, {"note": 0, "velocity": 0, "duration": 226}, {"note": 77, "velocity": 117, "duration": 155}, {"note": 0, "velocity": 0, "duration": 445}, {"note": 74, "velocity": 117, "duration": 122}, {"note": 77, "velocity": 113, "duration": 63}, {"note": 82, "velocity": 119, "duration": 62}, {"note": 82, "velocity": 116, "duration": 56}, {"note": 0, "velocity": 0, "duration": 64}, {"note": 82, "velocity": 110, "duration": 53}, {"note": 0, "velocity": 0, "duration": 67}, {"note": 82, "velocity": 114, "duration": 58}, {"note": 0, "velocity": 0, "duration": 62}, {"note": 82, "velocity": 117, "duration": 79}, {"note": 0, "velocity": 0, "duration": 161}, {"note": 82, "velocity": 113, "duration": 111}, {"note": 84, "velocity": 110, "duration": 105}, {"note": 81, "velocity": 113, "duration": 168}, {"note": 0, "velocity": 0, "duration": 72}, {"note": 77, "velocity": 116, "duration": 112}, {"note": 79, "velocity": 114, "duration": 114}, {"note": 0, "velocity": 0, "duration": 246}, {"note": 74, "velocity": 114, "duration": 81}, {"note": 77, "velocity": 107, "duration": 75}, {"note": 79, "velocity": 108, "duration": 60}, {"note": 79, "velocity": 102, "duration": 51}, {"note": 0, "velocity": 0, "duration": 69}, {"note": 79, "velocity": 113, "duration": 97}, {"note": 77, "velocity": 108, "duration": 117}, {"note": 79, "velocity": 110, "duration": 144}, {"note": 0, "velocity": 0, "duration": 96}, {"note": 70, "velocity": 110, "duration": 124}, {"note": 72, "velocity": 107, "duration": 88}, {"note": 74, "velocity": 108, "duration": 84}, {"note": 0, "velocity": 0, "duration": 156}, {"note": 77, "velocity": 108, "duration": 96}, {"note": 74, "velocity": 110, "duration": 146}, {"note": 0, "velocity": 0, "duration": 454}, {"note": 72, "velocity": 110, "duration": 58}, {"note": 0, "velocity": 0, "duration": 62}, {"note": 72, "velocity": 110, "duration": 109}, {"note": 0, "velocity": 0, "duration": 131}, {"note": 74, "velocity": 110, "duration": 95}, {"note": 72, "velocity": 116, "duration": 134}, {"note": 0, "velocity": 0, "duration": 106}, {"note": 67, "velocity": 113, "duration": 72}, {"note": 70, "velocity": 96, "duration": 57}, {"note": 0, "velocity": 0, "duration": 63}, {"note": 77, "velocity": 110, "duration": 97}, {"note": 74, "velocity": 110, "duration": 103}, {"note": 72, "velocity": 107, "duration": 109}, {"note": 74, "velocity": 116, "duration": 131}, {"note": 0, "velocity": 0, "duration": 469}, {"note": 79, "velocity": 114, "duration": 69}, {"note": 79, "velocity": 116, "duration": 112}, {"note": 0, "velocity": 0, "duration": 128}, {"note": 82, "velocity": 110, "duration": 78}, {"note": 81, "velocity": 107, "duration": 121}, {"note": 79, "velocity": 102, "duration": 108}, {"note": 77, "velocity": 113, "duration": 137}, {"note": 0, "velocity": 0, "duration": 343}, {"note": 77, "velocity": 116, "duration": 184}, {"note": 0, "velocity": 0, "duration": 536}, {"note": 70, "velocity": 117, "duration": 51}, {"note": 0, "velocity": 0, "duration": 69}, {"note": 70, "velocity": 96, "duration": 45}, {"note": 0, "velocity": 0, "duration": 75}, {"note": 70, "velocity": 92, "duration": 43}, {"note": 0, "velocity": 0, "duration": 77}, {"note": 70, "velocity": 92, "duration": 43}, {"note": 0, "velocity": 0, "duration": 77}, {"note": 70, "velocity": 113, "duration": 117}, {"note": 0, "velocity": 0, "duration": 123}, {"note": 72, "velocity": 113, "duration": 80}, {"note": 74, "velocity": 108, "duration": 135}, {"note": 72, "velocity": 114, "duration": 158}, {"note": 0, "velocity": 0, "duration": 82}, {"note": 67, "velocity": 108, "duration": 178}, {"note": 0, "velocity": 0, "duration": 542}, {"note": 70, "velocity": 96, "duration": 81}, {"note": 70, "velocity": 89, "duration": 53}, {"note": 0, "velocity": 0, "duration": 67}, {"note": 70, "velocity": 89, "duration": 51}, {"note": 0, "velocity": 0, "duration": 69}, {"note": 70, "velocity": 88, "duration": 47}, {"note": 0, "velocity": 0, "duration": 73}, {"note": 70, "velocity": 104, "duration": 126}, {"note": 0, "velocity": 0, "duration": 114}, {"note": 72, "velocity": 107, "duration": 65}, {"note": 74, "velocity": 96, "duration": 65}, {"note": 72, "velocity": 107, "duration": 133}, {"note": 0, "velocity": 0, "duration": 107}, {"note": 74, "velocity": 113, "duration": 152}, {"note": 0, "velocity": 0, "duration": 568}, {"note": 72, "velocity": 108, "duration": 49}, {"note": 0, "velocity": 0, "duration": 71}, {"note": 72, "velocity": 98, "duration": 43}, {"note": 0, "velocity": 0, "duration": 77}, {"note": 72, "velocity": 104, "duration": 45}, {"note": 0, "velocity": 0, "duration": 75}, {"note": 72, "velocity": 100, "duration": 43}, {"note": 0, "velocity": 0, "duration": 77}, {"note": 72, "velocity": 113, "duration": 127}, {"note": 0, "velocity": 0, "duration": 113}, {"note": 74, "velocity": 114, "duration": 77}, {"note": 77, "velocity": 114, "duration": 75}, {"note": 74, "velocity": 113, "duration": 119}, {"note": 0, "velocity": 0, "duration": 121}, {"note": 72, "velocity": 113, "duration": 100}, {"note": 70, "velocity": 102, "duration": 121}, {"note": 67, "velocity": 93, "duration": 120}, {"note": 70, "velocity": 104, "duration": 60}, {"note": 70, "velocity": 104, "duration": 90}, {"note": 70, "velocity": 104, "duration": 90}, {"note": 72, "velocity": 108, "duration": 63}, {"note": 72, "velocity": 113, "duration": 75}, {"note": 72, "velocity": 113, "duration": 75}, {"note": 70, "velocity": 100, "duration": 120}, {"note": 67, "velocity": 107, "duration": 92}, {"note": 67, "velocity": 98, "duration": 104}, {"note": 70, "velocity": 94, "duration": 272}, {"note": 0, "velocity": 0, "duration": 208}, {"note": 70, "velocity": 113, "duration": 213}]]