[[{"note": 71, "velocity": 78, "duration": 187}, {"note": 71, "velocity": 78, "duration": 183}, {"note": 71, "velocity": 79, "duration": 171}, {"note": 0, "velocity": 0, "duration": 69}, {"note": 71, "velocity": 78, "duration": 187}, {"note": 71, "velocity": 76, "duration": 90}, {"note": 72, "velocity": 79, "duration": 234}, {"note": 74, "velocity": 79, "duration": 341}, {"note": 69, "velocity": 74, "duration": 166}, {"note": 0, "velocity": 0, "duration": 74}, {"note": 69, "velocity": 73, "duration": 120}, {"note": 69, "velocity": 78, "duration": 285}, {"note": 0, "velocity": 0, "duration": 75}, {"note": 67, "velocity": 71, "duration": 111}, {"note": 69, "velocity": 78, "duration": 433}, {"note": 0, "velocity": 0, "duration": 887}, {"note": 64, "velocity": 78, "duration": 91}, {"note": 67, "velocity": 71, "duration": 84}, {"note": 72, "velocity": 78, "duration": 269}, {"note": 0, "velocity": 0, "duration": 91}, {"note": 64, "velocity": 71, "duration": 85}, {"note": 64, "velocity": 79, "duration": 85}, {"note": 67, "velocity": 67, "duration": 108}, {"note": 72, "velocity": 74, "duration": 192}, {"note": 72, "velocity": 77, "duration": 242}, {"note": 71, "velocity": 73, "duration": 97}, {"note": 71, "velocity": 78, "duration": 943}, {"note": 0, "velocity": 0, "duration": 497}, {"note": 71, "velocity": 73, "duration": 110}, {"note": 72, "velocity": 73, "duration": 213}, {"note": 71, "velocity": 80, "duration": 228}, {"note": 69, "velocity": 77, "duration": 146}, {"note": 0, "velocity": 0, "duration": 94}, {"note": 69, "velocity": 75, "duration": 164}, {"note": 0, "velocity": 0, "duration": 76}, {"note": 69, "velocity": 78, "duration": 195}, {"note": 78, "velocity": 74, "duration": 82}, {"note": 78, "velocity": 78, "duration": 401}, {"note": 0, "velocity": 0, "duration": 79}, {"note": 69, "velocity": 73, "duration": 93}, {"note": 71, "velocity": 74, "duration": 191}, {"note": 69, "velocity": 77, "duration": 153}, {"note": 0, "velocity": 0, "duration": 87}, {"note": 67, "velocity": 69, "duration": 173}, {"note": 0, "velocity": 0, "duration": 67}, {"note": 76, "velocity": 77, "duration": 162}, {"note": 0, "velocity": 0, "duration": 78}, {"note": 76, "velocity": 79, "duration": 181}, {"note": 76, "velocity": 75, "duration": 240}, {"note": 76, "velocity": 77, "duration": 1028}, {"note": 0, "velocity": 0, "duration": 172}, {"note": 76, "velocity": 79, "duration": 90}, {"note": 74, "velocity": 79, "duration": 73}, {"note": 76, "velocity": 80, "duration": 262}, {"note": 0, "velocity": 0, "duration": 98}, {"note": 67, "velocity": 74, "duration": 80}, {"note": 76, "velocity": 76, "duration": 120}, {"note": 74, "velocity": 79, "duration": 65}, {"note": 76, "velocity": 73, "duration": 208}, {"note": 76, "velocity": 79, "duration": 238}, {"note": 71, "velocity": 78, "duration": 214}, {"note": 74, "velocity": 79, "duration": 242}, {"note": 71, "velocity": 79, "duration": 240}, {"note": 69, "velocity": 76, "duration": 1440}, {"note": 0, "velocity": 0, "duration": 240}, {"note": 71, "velocity": 78, "duration": 120}, {"note": 71, "velocity": 78, "duration": 120}, {"note": 71, "velocity": 78, "duration": 360}, {"note": 0, "velocity": 0, "duration": 120}, {"note": 71, "velocity": 78, "duration": 187}, {"note": 71, "velocity": 76, "duration": 90}, {"note": 72, "velocity": 79, "duration": 234}, {"note": 74, "velocity": 79, "duration": 341}, {"note": 69, "velocity": 74, "duration": 166}, {"note": 0, "velocity": 0, "duration": 74}, {"note": 69, "velocity": 73, "duration": 120}, {"note": 69, "velocity": 78, "duration": 285}, {"note": 0, "velocity": 0, "duration": 75}, {"note": 67, "velocity": 71, "duration": 240}, {"note": 67, "velocity": 78, "duration": 433}, {"note": 0, "velocity": 0, "duration": 767}, {"note": 64, "velocity": 78, "duration": 91}, {"note": 67, "velocity": 71, "duration": 84}, {"note": 72, "velocity": 78, "duration": 269}, {"note": 0, "velocity": 0, "duration": 91}, {"note": 64, "velocity": 71, "duration": 85}, {"note": 64, "velocity": 79, "duration": 85}, {"note": 67, "velocity": 67, "duration": 108}, {"note": 72, "velocity": 74, "duration": 192}, {"note": 76, "velocity": 79, "duration": 216}, {"note": 74, "velocity": 78, "duration": 79}, {"note": 74, "velocity": 80, "duration": 249}, {"note": 71, "velocity": 74, "duration": 801}, {"note": 0, "velocity": 0, "duration": 399}, {"note": 71, "velocity": 73, "duration": 110}, {"note": 72, "velocity": 73, "duration": 213}, {"note": 71, "velocity": 80, "duration": 228}, {"note": 69, "velocity": 77, "duration": 146}, {"note": 0, "velocity": 0, "duration": 94}, {"note": 69, "velocity": 75, "duration": 164}, {"note": 0, "velocity": 0, "duration": 76}, {"note": 69, "velocity": 78, "duration": 195}, {"note": 78, "velocity": 74, "duration": 82}, {"note": 78, "velocity": 78, "duration": 401}, {"note": 0, "velocity": 0, "duration": 79}, {"note": 69, "velocity": 73, "duration": 93}, {"note": 71, "velocity": 74, "duration": 191}, {"note": 69, "velocity": 77, "duration": 153}, {"note": 0, "velocity": 0, "duration": 87}, {"note": 67, "velocity": 69, "duration": 173}, {"note": 0, "velocity": 0, "duration": 67}, {"note": 76, "velocity": 77, "duration": 162}, {"note": 0, "velocity": 0, "duration": 78}, {"note": 76, "velocity": 79, "duration": 181}, {"note": 76, "velocity": 75, "duration": 240}, {"note": 76, "velocity": 77, "duration": 1028}, {"note": 0, "velocity": 0, "duration": 172}, {"note": 76, "velocity": 79, "duration": 90}, {"note": 74, "velocity": 79, "duration": 73}, {"note": 76, "velocity": 80, "duration": 262}, {"note": 0, "velocity": 0, "duration": 98}, {"note": 67, "velocity": 74, "duration": 80}, {"note": 76, "velocity": 76, "duration": 120}, {"note": 74, "velocity": 79, "duration": 65}, {"note": 76, "velocity": 73, "duration": 208}, {"note": 76, "velocity": 79, "duration": 238}, {"note": 74, "velocity": 78, "duration": 120}, {"note": 79, "velocity": 79, "duration": 242}, {"note": 0, "velocity": 0, "duration": 118}, {"note": 79, "velocity": 79, "duration": 120}, {"note": 79, "velocity": 79, "duration": 240}, {"note": 79, "velocity": 79, "duration": 240}, {"note": 76, "velocity": 79, "duration": 120}, {"note": 74, "velocity": 76, "duration": 480}, {"note": 71, "velocity": 80, "duration": 208}, {"note": 74, "velocity": 84, "duration": 234}, {"note": 79, "velocity": 78, "duration": 733}, {"note": 83, "velocity": 80, "duration": 187}, {"note": 83, "velocity": 81, "duration": 415}, {"note": 0, "velocity": 0, "duration": 65}, {"note": 71, "velocity": 81, "duration": 177}, {"note": 0, "velocity": 0, "duration": 63}, {"note": 74, "velocity": 79, "duration": 181}, {"note": 78, "velocity": 74, "duration": 638}, {"note": 0, "velocity": 0, "duration": 82}, {"note": 81, "velocity": 75, "duration": 240}, {"note": 81, "velocity": 78, "duration": 960}, {"note": 0, "velocity": 0, "duration": 240}, {"note": 79, "velocity": 77, "duration": 85}, {"note": 78, "velocity": 74, "duration": 71}, {"note": 79, "velocity": 78, "duration": 280}, {"note": 0, "velocity": 0, "duration": 80}, {"note": 81, "velocity": 75, "duration": 82}, {"note": 78, "velocity": 75, "duration": 171}, {"note": 0, "velocity": 0, "duration": 69}, {"note": 74, "velocity": 78, "duration": 164}, {"note": 0, "velocity": 0, "duration": 76}, {"note": 74, "velocity": 78, "duration": 223}, {"note": 71, "velocity": 80, "duration": 238}, {"note": 76, "velocity": 79, "duration": 840}, {"note": 0, "velocity": 0, "duration": 600}, {"note": 76, "velocity": 80, "duration": 189}, {"note": 79, "velocity": 79, "duration": 192}, {"note": 83, "velocity": 78, "duration": 641}, {"note": 0, "velocity": 0, "duration": 79}, {"note": 81, "velocity": 78, "duration": 235}, {"note": 76, "velocity": 79, "duration": 394}, {"note": 0, "velocity": 0, "duration": 86}, {"note": 76, "velocity": 82, "duration": 181}, {"note": 79, "velocity": 80, "duration": 180}, {"note": 78, "velocity": 80, "duration": 480}, {"note": 0, "velocity": 0, "duration": 240}, {"note": 79, "velocity": 78, "duration": 166}, {"note": 0, "velocity": 0, "duration": 74}, {"note": 79, "velocity": 78, "duration": 940}, {"note": 0, "velocity": 0, "duration": 500}, {"note": 76, "velocity": 79, "duration": 183}, {"note": 79, "velocity": 79, "duration": 236}, {"note": 83, "velocity": 79, "duration": 412}, {"note": 81, "velocity": 74, "duration": 147}, {"note": 76, "velocity": 79, "duration": 484}, {"note": 78, "velocity": 72, "duration": 313}, {"note": 79, "velocity": 74, "duration": 1518}, {"note": 0, "velocity": 0, "duration": 6042}, {"note": 71, "velocity": 78, "duration": 120}, {"note": 71, "velocity": 78, "duration": 120}, {"note": 71, "velocity": 78, "duration": 360}, {"note": 0, "velocity": 0, "duration": 120}, {"note": 71, "velocity": 78, "duration": 187}, {"note": 71, "velocity": 76, "duration": 90}, {"note": 72, "velocity": 79, "duration": 234}, {"note": 74, "velocity": 79, "duration": 341}, {"note": 69, "velocity": 74, "duration": 166}, {"note": 0, "velocity": 0, "duration": 74}, {"note": 69, "velocity": 73, "duration": 120}, {"note": 69, "velocity": 78, "duration": 285}, {"note": 0, "velocity": 0, "duration": 75}, {"note": 67, "velocity": 71, "duration": 240}, {"note": 67, "velocity": 78, "duration": 433}, {"note": 0, "velocity": 0, "duration": 767}, {"note": 64, "velocity": 78, "duration": 91}, {"note": 67, "velocity": 71, "duration": 84}, {"note": 72, "velocity": 78, "duration": 269}, {"note": 0, "velocity": 0, "duration": 91}, {"note": 64, "velocity": 71, "duration": 85}, {"note": 64, "velocity": 79, "duration": 85}, {"note": 67, "velocity": 67, "duration": 108}, {"note": 72, "velocity": 74, "duration": 192}, {"note": 76, "velocity": 79, "duration": 216}, {"note": 74, "velocity": 78, "duration": 79}, {"note": 74, "velocity": 80, "duration": 249}, {"note": 71, "velocity": 74, "duration": 801}, {"note": 0, "velocity": 0, "duration": 399}, {"note": 71, "velocity": 73, "duration": 110}, {"note": 72, "velocity": 73, "duration": 213}, {"note": 71, "velocity": 80, "duration": 228}, {"note": 69, "velocity": 77, "duration": 146}, {"note": 0, "velocity": 0, "duration": 94}, {"note": 69, "velocity": 75, "duration": 164}, {"note": 0, "velocity": 0, "duration": 76}, {"note": 69, "velocity": 78, "duration": 195}, {"note": 78, "velocity": 74, "duration": 82}, {"note": 78, "velocity": 78, "duration": 401}, {"note": 0, "velocity": 0, "duration": 79}, {"note": 69, "velocity": 73, "duration": 93}, {"note": 71, "velocity": 74, "duration": 191}, {"note": 69, "velocity": 77, "duration": 153}, {"note": 0, "velocity": 0, "duration": 87}, {"note": 67, "velocity": 69, "duration": 173}, {"note": 0, "velocity": 0, "duration": 67}, {"note": 76, "velocity": 77, "duration": 162}, {"note": 0, "velocity": 0, "duration": 78}, {"note": 76, "velocity": 79, "duration": 181}, {"note": 76, "velocity": 75, "duration": 240}, {"note": 76, "velocity": 77, "duration": 1028}, {"note": 0, "velocity": 0, "duration": 172}, {"note": 76, "velocity": 79, "duration": 90}, {"note": 74, "velocity": 79, "duration": 73}, {"note": 76, "velocity": 80, "duration": 262}, {"note": 0, "velocity": 0, "duration": 98}, {"note": 67, "velocity": 74, "duration": 80}, {"note": 76, "velocity": 76, "duration": 120}, {"note": 74, "velocity": 79, "duration": 65}, {"note": 76, "velocity": 73, "duration": 208}, {"note": 76, "velocity": 79, "duration": 238}, {"note": 74, "velocity": 78, "duration": 120}, {"note": 79, "velocity": 79, "duration": 242}, {"note": 0, "velocity": 0, "duration": 118}, {"note": 79, "velocity": 79, "duration": 120}, {"note": 79, "velocity": 79, "duration": 240}, {"note": 79, "velocity": 79, "duration": 240}, {"note": 76, "velocity": 79, "duration": 120}, {"note": 74, "velocity": 76, "duration": 480}, {"note": 71, "velocity": 80, "duration": 208}, {"note": 74, "velocity": 84, "duration": 234}, {"note": 79, "velocity": 78, "duration": 733}, {"note": 83, "velocity": 80, "duration": 187}, {"note": 83, "velocity": 81, "duration": 415}, {"note": 0, "velocity": 0, "duration": 65}, {"note": 71, "velocity": 81, "duration": 177}, {"note": 0, "velocity": 0, "duration": 63}, {"note": 74, "velocity": 79, "duration": 181}, {"note": 78, "velocity": 74, "duration": 638}, {"note": 0, "velocity": 0, "duration": 82}, {"note": 81, "velocity": 75, "duration": 240}, {"note": 81, "velocity": 78, "duration": 960}, {"note": 0, "velocity": 0, "duration": 240}, {"note": 79, "velocity": 77, "duration": 85}, {"note": 78, "velocity": 74, "duration": 71}, {"note": 79, "velocity": 78, "duration": 280}, {"note": 0, "velocity": 0, "duration": 80}, {"note": 81, "velocity": 75, "duration": 82}, {"note": 78, "velocity": 75, "duration": 171}, {"note": 0, "velocity": 0, "duration": 69}, {"note": 74, "velocity": 78, "duration": 164}, {"note": 0, "velocity": 0, "duration": 76}, {"note": 74, "velocity": 78, "duration": 223}, {"note": 71, "velocity": 80, "duration": 238}, {"note": 76, "velocity": 79, "duration": 840}, {"note": 0, "velocity": 0, "duration": 600}, {"note": 76, "velocity": 80, "duration": 189}, {"note": 79, "velocity": 79, "duration": 192}, {"note": 83, "velocity": 78, "duration": 641}, {"note": 0, "velocity": 0, "duration": 79}, {"note": 81, "velocity": 78, "duration": 235}, {"note": 76, "velocity": 79, "duration": 394}, {"note": 0, "velocity": 0, "duration": 86}, {"note": 76, "velocity": 82, "duration": 181}, {"note": 79, "velocity": 80, "duration": 180}, {"note": 78, "velocity": 80, "duration": 480}, {"note": 0, "velocity": 0, "duration": 240}, {"note": 79, "velocity": 78, "duration": 166}, {"note": 0, "velocity": 0, "duration": 74}, {"note": 79, "velocity": 78, "duration": 940}, {"note": 0, "velocity": 0, "duration": 500}, {"note": 76, "velocity": 79, "duration": 183}, {"note": 79, "velocity": 79, "duration": 236}, {"note": 83, "velocity": 79, "duration": 240}, {"note": 81, "velocity": 74, "duration": 147}, {"note": 76, "velocity": 79, "duration": 240}, {"note": 78, "velocity": 72, "duration": 313}, {"note": 81, "velocity": 69, "duration": 45}, {"note": 0, "velocity": 0, "duration": 75}, {"note": 81, "velocity": 79, "duration": 52}, {"note": 0, "velocity": 0, "duration": 68}, {"note": 81, "velocity": 78, "duration": 59}, {"note": 0, "velocity": 0, "duration": 61}, {"note": 81, "velocity": 79, "duration": 171}, {"note": 0, "velocity": 0, "duration": 69}, {"note": 81, "velocity": 79, "duration": 179}, {"note": 0, "velocity": 0, "duration": 61}, {"note": 81, "velocity": 80, "duration": 66}, {"note": 81, "velocity": 79, "duration": 199}, {"note": 79, "velocity": 79, "duration": 78}, {"note": 78, "velocity": 79, "duration": 219}, {"note": 76, "velocity": 79, "duration": 298}, {"note": 0, "velocity": 0, "duration": 62}, {"note": 83, "velocity": 78, "duration": 63}, {"note": 83, "velocity": 78, "duration": 52}, {"note": 0, "velocity": 0, "duration": 68}, {"note": 83, "velocity": 79, "duration": 69}, {"note": 83, "velocity": 78, "duration": 170}, {"note": 0, "velocity": 0, "duration": 70}, {"note": 83, "velocity": 80, "duration": 184}, {"note": 83, "velocity": 74, "duration": 61}, {"note": 83, "velocity": 79, "duration": 191}, {"note": 81, "velocity": 79, "duration": 214}, {"note": 79, "velocity": 78, "duration": 79}, {"note": 78, "velocity": 80, "duration": 299}, {"note": 0, "velocity": 0, "duration": 61}, {"note": 81, "velocity": 79, "duration": 160}, {"note": 0, "velocity": 0, "duration": 80}, {"note": 81, "velocity": 76, "duration": 66}, {"note": 81, "velocity": 78, "duration": 172}, {"note": 0, "velocity": 0, "duration": 68}, {"note": 83, "velocity": 79, "duration": 215}, {"note": 0, "velocity": 0, "duration": 145}, {"note": 81, "velocity": 78, "duration": 238}, {"note": 79, "velocity": 72, "duration": 66}, {"note": 78, "velocity": 78, "duration": 214}, {"note": 76, "velocity": 83, "duration": 325}, {"note": 83, "velocity": 80, "duration": 663}, {"note": 81, "velocity": 77, "duration": 219}, {"note": 76, "velocity": 78, "duration": 807}, {"note": 0, "velocity": 0, "duration": 153}, {"note": 83, "velocity": 79, "duration": 617}, {"note": 0, "velocity": 0, "duration": 103}, {"note": 81, "velocity": 73, "duration": 199}, {"note": 74, "velocity": 81, "duration": 903}, {"note": 83, "velocity": 80, "duration": 410}, {"note": 0, "velocity": 0, "duration": 70}, {"note": 81, "velocity": 79, "duration": 447}, {"note": 76, "velocity": 79, "duration": 431}, {"note": 78, "velocity": 68, "duration": 385}, {"note": 0, "velocity": 0, "duration": 95}, {"note": 79, "velocity": 76, "duration": 872}, {"note": 0, "velocity": 0, "duration": 88}, {"note": 81, "velocity": 74, "duration": 493}, {"note": 72, "velocity": 80, "duration": 208}, {"note": 75, "velocity": 84, "duration": 234}, {"note": 80, "velocity": 78, "duration": 733}, {"note": 84, "velocity": 80, "duration": 187}, {"note": 84, "velocity": 81, "duration": 415}, {"note": 0, "velocity": 0, "duration": 65}, {"note": 72, "velocity": 81, "duration": 177}, {"note": 0, "velocity": 0, "duration": 63}, {"note": 75, "velocity": 79, "duration": 181}, {"note": 79, "velocity": 74, "duration": 638}, {"note": 0, "velocity": 0, "duration": 82}, {"note": 82, "velocity": 75, "duration": 240}, {"note": 82, "velocity": 78, "duration": 960}, {"note": 0, "velocity": 0, "duration": 240}, {"note": 80, "velocity": 77, "duration": 85}, {"note": 79, "velocity": 74, "duration": 71}, {"note": 80, "velocity": 78, "duration": 280}, {"note": 0, "velocity": 0, "duration": 80}, {"note": 82, "velocity": 75, "duration": 82}, {"note": 79, "velocity": 75, "duration": 171}, {"note": 0, "velocity": 0, "duration": 69}, {"note": 75, "velocity": 78, "duration": 164}, {"note": 0, "velocity": 0, "duration": 76}, {"note": 75, "velocity": 78, "duration": 223}, {"note": 72, "velocity": 80, "duration": 238}, {"note": 77, "velocity": 79, "duration": 840}, {"note": 0, "velocity": 0, "duration": 600}, {"note": 77, "velocity": 80, "duration": 189}, {"note": 80, "velocity": 79, "duration": 192}, {"note": 84, "velocity": 78, "duration": 641}, {"note": 0, "velocity": 0, "duration": 79}, {"note": 82, "velocity": 78, "duration": 235}, {"note": 77, "velocity": 79, "duration": 394}, {"note": 0, "velocity": 0, "duration": 86}, {"note": 77, "velocity": 82, "duration": 181}, {"note": 80, "velocity": 80, "duration": 180}, {"note": 79, "velocity": 80, "duration": 480}, {"note": 0, "velocity": 0, "duration": 240}, {"note": 80, "velocity": 78, "duration": 166}, {"note": 0, "velocity": 0, "duration": 74}, {"note": 80, "velocity": 78, "duration": 940}, {"note": 0, "velocity": 0, "duration": 500}, {"note": 77, "velocity": 79, "duration": 183}, {"note": 80, "velocity": 79, "duration": 236}, {"note": 84, "velocity": 79, "duration": 412}, {"note": 82, "velocity": 74, "duration": 147}, {"note": 77, "velocity": 79, "duration": 484}, {"note": 79, "velocity": 72, "duration": 313}, {"note": 80, "velocity": 74, "duration": 1518}, {"note": 0, "velocity": 0, "duration": 2202}, {"note": 80, "velocity": 79, "duration": 90}, {"note": 79, "velocity": 78, "duration": 109}, {"note": 80, "velocity": 79, "duration": 333}, {"note": 82, "velocity": 76, "duration": 111}, {"note": 84, "velocity": 82, "duration": 218}, {"note": 79, "velocity": 70, "duration": 216}, {"note": 75, "velocity": 81, "duration": 212}, {"note": 72, "velocity": 85, "duration": 218}, {"note": 79, "velocity": 79, "duration": 480}, {"note": 77, "velocity": 78, "duration": 790}, {"note": 0, "velocity": 0, "duration": 170}, {"note": 77, "velocity": 84, "duration": 190}, {"note": 80, "velocity": 83, "duration": 239}, {"note": 84, "velocity": 84, "duration": 728}, {"note": 85, "velocity": 80, "duration": 266}, {"note": 77, "velocity": 84, "duration": 395}, {"note": 0, "velocity": 0, "duration": 85}, {"note": 77, "velocity": 80, "duration": 201}, {"note": 80, "velocity": 80, "duration": 210}, {"note": 79, "velocity": 73, "duration": 635}, {"note": 0, "velocity": 0, "duration": 85}, {"note": 80, "velocity": 78, "duration": 187}, {"note": 80, "velocity": 79, "duration": 1019}, {"note": 0, "velocity": 0, "duration": 421}, {"note": 77, "velocity": 80, "duration": 180}, {"note": 80, "velocity": 80, "duration": 224}, {"note": 84, "velocity": 81, "duration": 222}, {"note": 82, "velocity": 74, "duration": 161}, {"note": 77, "velocity": 78, "duration": 633}, {"note": 79, "velocity": 80, "duration": 351}, {"note": 80, "velocity": 78, "duration": 1670}, {"note": 0, "velocity": 0, "duration": 318}, {"note": 77, "velocity": 79, "duration": 186}, {"note": 0, "velocity": 0, "duration": 70}, {"note": 80, "velocity": 73, "duration": 279}, {"note": 84, "velocity": 74, "duration": 534}, {"note": 0, "velocity": 0, "duration": 251}, {"note": 82, "velocity": 71, "duration": 440}, {"note": 77, "velocity": 74, "duration": 458}, {"note": 79, "velocity": 84, "duration": 349}, {"note": 80, "velocity": 70, "duration": 1246}]]