[[{"note": 61, "velocity": 80, "duration": 399}, {"note": 0, "velocity": 0, "duration": 81}, {"note": 61, "velocity": 76, "duration": 205}, {"note": 68, "velocity": 78, "duration": 231}, {"note": 66, "velocity": 75, "duration": 402}, {"note": 0, "velocity": 0, "duration": 78}, {"note": 64, "velocity": 76, "duration": 215}, {"note": 61, "velocity": 72, "duration": 290}, {"note": 64, "velocity": 80, "duration": 535}, {"note": 66, "velocity": 76, "duration": 257}, {"note": 64, "velocity": 76, "duration": 236}, {"note": 61, "velocity": 77, "duration": 853}, {"note": 0, "velocity": 0, "duration": 107}, {"note": 61, "velocity": 78, "duration": 353}, {"note": 0, "velocity": 0, "duration": 127}, {"note": 61, "velocity": 76, "duration": 204}, {"note": 68, "velocity": 77, "duration": 241}, {"note": 66, "velocity": 76, "duration": 497}, {"note": 64, "velocity": 77, "duration": 215}, {"note": 61, "velocity": 74, "duration": 305}, {"note": 64, "velocity": 79, "duration": 508}, {"note": 66, "velocity": 76, "duration": 240}, {"note": 68, "velocity": 70, "duration": 296}, {"note": 66, "velocity": 75, "duration": 858}, {"note": 0, "velocity": 0, "duration": 102}, {"note": 68, "velocity": 78, "duration": 353}, {"note": 0, "velocity": 0, "duration": 127}, {"note": 68, "velocity": 77, "duration": 185}, {"note": 71, "velocity": 76, "duration": 235}, {"note": 68, "velocity": 76, "duration": 346}, {"note": 0, "velocity": 0, "duration": 134}, {"note": 66, "velocity": 77, "duration": 193}, {"note": 61, "velocity": 76, "duration": 206}, {"note": 64, "velocity": 72, "duration": 149}, {"note": 0, "velocity": 0, "duration": 91}, {"note": 64, "velocity": 76, "duration": 168}, {"note": 0, "velocity": 0, "duration": 72}, {"note": 66, "velocity": 72, "duration": 164}, {"note": 0, "velocity": 0, "duration": 76}, {"note": 68, "velocity": 72, "duration": 200}, {"note": 64, "velocity": 77, "duration": 824}, {"note": 0, "velocity": 0, "duration": 136}, {"note": 63, "velocity": 76, "duration": 353}, {"note": 0, "velocity": 0, "duration": 127}, {"note": 63, "velocity": 75, "duration": 218}, {"note": 66, "velocity": 70, "duration": 134}, {"note": 0, "velocity": 0, "duration": 106}, {"note": 59, "velocity": 78, "duration": 454}, {"note": 56, "velocity": 73, "duration": 287}, {"note": 59, "velocity": 64, "duration": 229}, {"note": 61, "velocity": 72, "duration": 380}, {"note": 0, "velocity": 0, "duration": 100}, {"note": 61, "velocity": 77, "duration": 282}, {"note": 0, "velocity": 0, "duration": 198}, {"note": 61, "velocity": 71, "duration": 812}, {"note": 0, "velocity": 0, "duration": 148}, {"note": 68, "velocity": 76, "duration": 349}, {"note": 0, "velocity": 0, "duration": 131}, {"note": 68, "velocity": 77, "duration": 200}, {"note": 66, "velocity": 66, "duration": 168}, {"note": 0, "velocity": 0, "duration": 72}, {"note": 68, "velocity": 76, "duration": 407}, {"note": 0, "velocity": 0, "duration": 73}, {"note": 61, "velocity": 74, "duration": 133}, {"note": 0, "velocity": 0, "duration": 107}, {"note": 61, "velocity": 76, "duration": 195}, {"note": 64, "velocity": 76, "duration": 393}, {"note": 0, "velocity": 0, "duration": 87}, {"note": 66, "velocity": 74, "duration": 159}, {"note": 0, "velocity": 0, "duration": 81}, {"note": 68, "velocity": 72, "duration": 200}, {"note": 66, "velocity": 76, "duration": 798}, {"note": 0, "velocity": 0, "duration": 162}, {"note": 63, "velocity": 82, "duration": 366}, {"note": 0, "velocity": 0, "duration": 114}, {"note": 63, "velocity": 79, "duration": 210}, {"note": 66, "velocity": 76, "duration": 133}, {"note": 0, "velocity": 0, "duration": 107}, {"note": 59, "velocity": 78, "duration": 380}, {"note": 0, "velocity": 0, "duration": 100}, {"note": 56, "velocity": 77, "duration": 150}, {"note": 0, "velocity": 0, "duration": 90}, {"note": 59, "velocity": 76, "duration": 154}, {"note": 0, "velocity": 0, "duration": 86}, {"note": 61, "velocity": 76, "duration": 381}, {"note": 0, "velocity": 0, "duration": 99}, {"note": 61, "velocity": 74, "duration": 406}, {"note": 0, "velocity": 0, "duration": 74}, {"note": 61, "velocity": 76, "duration": 764}, {"note": 0, "velocity": 0, "duration": 196}, {"note": 61, "velocity": 80, "duration": 399}, {"note": 0, "velocity": 0, "duration": 81}, {"note": 61, "velocity": 76, "duration": 205}, {"note": 68, "velocity": 78, "duration": 231}, {"note": 66, "velocity": 75, "duration": 402}, {"note": 0, "velocity": 0, "duration": 78}, {"note": 64, "velocity": 76, "duration": 215}, {"note": 61, "velocity": 72, "duration": 290}, {"note": 64, "velocity": 80, "duration": 535}, {"note": 66, "velocity": 76, "duration": 257}, {"note": 64, "velocity": 76, "duration": 236}, {"note": 61, "velocity": 77, "duration": 853}, {"note": 0, "velocity": 0, "duration": 107}, {"note": 61, "velocity": 78, "duration": 353}, {"note": 0, "velocity": 0, "duration": 127}, {"note": 61, "velocity": 76, "duration": 204}, {"note": 68, "velocity": 77, "duration": 241}, {"note": 66, "velocity": 76, "duration": 497}, {"note": 64, "velocity": 77, "duration": 215}, {"note": 61, "velocity": 74, "duration": 305}, {"note": 64, "velocity": 79, "duration": 508}, {"note": 66, "velocity": 76, "duration": 240}, {"note": 68, "velocity": 70, "duration": 296}, {"note": 66, "velocity": 75, "duration": 858}, {"note": 0, "velocity": 0, "duration": 102}, {"note": 68, "velocity": 78, "duration": 353}, {"note": 0, "velocity": 0, "duration": 127}, {"note": 68, "velocity": 77, "duration": 185}, {"note": 71, "velocity": 76, "duration": 235}, {"note": 68, "velocity": 76, "duration": 346}, {"note": 0, "velocity": 0, "duration": 134}, {"note": 66, "velocity": 77, "duration": 193}, {"note": 61, "velocity": 76, "duration": 206}, {"note": 64, "velocity": 72, "duration": 149}, {"note": 0, "velocity": 0, "duration": 91}, {"note": 64, "velocity": 76, "duration": 168}, {"note": 0, "velocity": 0, "duration": 72}, {"note": 66, "velocity": 72, "duration": 164}, {"note": 0, "velocity": 0, "duration": 76}, {"note": 68, "velocity": 72, "duration": 200}, {"note": 64, "velocity": 77, "duration": 824}, {"note": 0, "velocity": 0, "duration": 136}, {"note": 63, "velocity": 76, "duration": 353}, {"note": 0, "velocity": 0, "duration": 127}, {"note": 63, "velocity": 75, "duration": 218}, {"note": 66, "velocity": 70, "duration": 134}, {"note": 0, "velocity": 0, "duration": 106}, {"note": 59, "velocity": 78, "duration": 454}, {"note": 56, "velocity": 73, "duration": 287}, {"note": 59, "velocity": 64, "duration": 229}, {"note": 61, "velocity": 72, "duration": 380}, {"note": 0, "velocity": 0, "duration": 100}, {"note": 61, "velocity": 77, "duration": 282}, {"note": 0, "velocity": 0, "duration": 198}, {"note": 61, "velocity": 71, "duration": 812}, {"note": 0, "velocity": 0, "duration": 148}, {"note": 68, "velocity": 76, "duration": 349}, {"note": 0, "velocity": 0, "duration": 131}, {"note": 68, "velocity": 77, "duration": 200}, {"note": 66, "velocity": 66, "duration": 168}, {"note": 0, "velocity": 0, "duration": 72}, {"note": 68, "velocity": 76, "duration": 407}, {"note": 0, "velocity": 0, "duration": 73}, {"note": 61, "velocity": 74, "duration": 133}, {"note": 0, "velocity": 0, "duration": 107}, {"note": 61, "velocity": 76, "duration": 195}, {"note": 64, "velocity": 76, "duration": 393}, {"note": 0, "velocity": 0, "duration": 87}, {"note": 66, "velocity": 74, "duration": 159}, {"note": 0, "velocity": 0, "duration": 81}, {"note": 68, "velocity": 72, "duration": 200}, {"note": 66, "velocity": 76, "duration": 798}, {"note": 0, "velocity": 0, "duration": 162}, {"note": 63, "velocity": 82, "duration": 366}, {"note": 0, "velocity": 0, "duration": 114}, {"note": 63, "velocity": 79, "duration": 210}, {"note": 66, "velocity": 76, "duration": 133}, {"note": 0, "velocity": 0, "duration": 107}, {"note": 59, "velocity": 78, "duration": 380}, {"note": 0, "velocity": 0, "duration": 100}, {"note": 56, "velocity": 77, "duration": 150}, {"note": 0, "velocity": 0, "duration": 90}, {"note": 59, "velocity": 76, "duration": 154}, {"note": 0, "velocity": 0, "duration": 86}, {"note": 61, "velocity": 76, "duration": 381}, {"note": 0, "velocity": 0, "duration": 99}, {"note": 61, "velocity": 74, "duration": 406}, {"note": 0, "velocity": 0, "duration": 74}, {"note": 61, "velocity": 76, "duration": 764}, {"note": 0, "velocity": 0, "duration": 196}, {"note": 61, "velocity": 80, "duration": 399}, {"note": 0, "velocity": 0, "duration": 81}, {"note": 61, "velocity": 76, "duration": 205}, {"note": 68, "velocity": 78, "duration": 231}, {"note": 66, "velocity": 75, "duration": 402}, {"note": 0, "velocity": 0, "duration": 78}, {"note": 64, "velocity": 76, "duration": 215}, {"note": 61, "velocity": 72, "duration": 290}, {"note": 64, "velocity": 80, "duration": 535}, {"note": 66, "velocity": 76, "duration": 257}, {"note": 64, "velocity": 76, "duration": 236}, {"note": 61, "velocity": 77, "duration": 853}, {"note": 0, "velocity": 0, "duration": 107}, {"note": 61, "velocity": 78, "duration": 353}, {"note": 0, "velocity": 0, "duration": 127}, {"note": 61, "velocity": 76, "duration": 204}, {"note": 68, "velocity": 77, "duration": 241}, {"note": 66, "velocity": 76, "duration": 497}, {"note": 64, "velocity": 77, "duration": 215}, {"note": 61, "velocity": 74, "duration": 305}, {"note": 64, "velocity": 79, "duration": 508}, {"note": 66, "velocity": 76, "duration": 240}, {"note": 68, "velocity": 70, "duration": 296}, {"note": 66, "velocity": 75, "duration": 858}, {"note": 0, "velocity": 0, "duration": 102}, {"note": 68, "velocity": 78, "duration": 353}, {"note": 0, "velocity": 0, "duration": 127}, {"note": 68, "velocity": 77, "duration": 185}, {"note": 71, "velocity": 76, "duration": 235}, {"note": 68, "velocity": 76, "duration": 346}, {"note": 0, "velocity": 0, "duration": 134}, {"note": 66, "velocity": 77, "duration": 193}, {"note": 61, "velocity": 76, "duration": 206}, {"note": 64, "velocity": 72, "duration": 149}, {"note": 0, "velocity": 0, "duration": 91}, {"note": 64, "velocity": 76, "duration": 168}, {"note": 0, "velocity": 0, "duration": 72}, {"note": 66, "velocity": 72, "duration": 164}, {"note": 0, "velocity": 0, "duration": 76}, {"note": 68, "velocity": 72, "duration": 200}, {"note": 64, "velocity": 77, "duration": 824}, {"note": 0, "velocity": 0, "duration": 136}, {"note": 63, "velocity": 76, "duration": 353}, {"note": 0, "velocity": 0, "duration": 127}, {"note": 63, "velocity": 75, "duration": 218}, {"note": 66, "velocity": 70, "duration": 134}, {"note": 0, "velocity": 0, "duration": 106}, {"note": 59, "velocity": 78, "duration": 454}, {"note": 56, "velocity": 73, "duration": 287}, {"note": 59, "velocity": 64, "duration": 229}, {"note": 61, "velocity": 72, "duration": 380}, {"note": 0, "velocity": 0, "duration": 100}, {"note": 61, "velocity": 77, "duration": 282}, {"note": 0, "velocity": 0, "duration": 198}, {"note": 61, "velocity": 71, "duration": 812}, {"note": 0, "velocity": 0, "duration": 148}, {"note": 68, "velocity": 76, "duration": 349}, {"note": 0, "velocity": 0, "duration": 131}, {"note": 68, "velocity": 77, "duration": 200}, {"note": 66, "velocity": 66, "duration": 168}, {"note": 0, "velocity": 0, "duration": 72}, {"note": 68, "velocity": 76, "duration": 407}, {"note": 0, "velocity": 0, "duration": 73}, {"note": 61, "velocity": 74, "duration": 133}, {"note": 0, "velocity": 0, "duration": 107}, {"note": 61, "velocity": 76, "duration": 195}, {"note": 64, "velocity": 76, "duration": 393}, {"note": 0, "velocity": 0, "duration": 87}, {"note": 66, "velocity": 74, "duration": 159}, {"note": 0, "velocity": 0, "duration": 81}, {"note": 68, "velocity": 72, "duration": 200}, {"note": 66, "velocity": 76, "duration": 798}, {"note": 0, "velocity": 0, "duration": 162}, {"note": 63, "velocity": 82, "duration": 366}, {"note": 0, "velocity": 0, "duration": 114}, {"note": 63, "velocity": 79, "duration": 210}, {"note": 66, "velocity": 76, "duration": 133}, {"note": 0, "velocity": 0, "duration": 107}, {"note": 59, "velocity": 78, "duration": 380}, {"note": 0, "velocity": 0, "duration": 100}, {"note": 56, "velocity": 77, "duration": 150}, {"note": 0, "velocity": 0, "duration": 90}, {"note": 59, "velocity": 76, "duration": 154}, {"note": 0, "velocity": 0, "duration": 86}, {"note": 61, "velocity": 76, "duration": 381}, {"note": 0, "velocity": 0, "duration": 99}, {"note": 61, "velocity": 74, "duration": 406}, {"note": 0, "velocity": 0, "duration": 74}, {"note": 61, "velocity": 76, "duration": 764}, {"note": 0, "velocity": 0, "duration": 196}, {"note": 61, "velocity": 80, "duration": 399}, {"note": 0, "velocity": 0, "duration": 81}, {"note": 61, "velocity": 76, "duration": 205}, {"note": 68, "velocity": 78, "duration": 231}, {"note": 66, "velocity": 75, "duration": 402}, {"note": 0, "velocity": 0, "duration": 78}, {"note": 64, "velocity": 76, "duration": 215}, {"note": 61, "velocity": 72, "duration": 290}, {"note": 64, "velocity": 80, "duration": 535}, {"note": 66, "velocity": 76, "duration": 257}, {"note": 64, "velocity": 76, "duration": 236}, {"note": 61, "velocity": 77, "duration": 853}, {"note": 0, "velocity": 0, "duration": 107}, {"note": 61, "velocity": 78, "duration": 353}, {"note": 0, "velocity": 0, "duration": 127}, {"note": 61, "velocity": 76, "duration": 204}, {"note": 68, "velocity": 77, "duration": 241}, {"note": 66, "velocity": 76, "duration": 497}, {"note": 64, "velocity": 77, "duration": 215}, {"note": 61, "velocity": 74, "duration": 305}, {"note": 64, "velocity": 79, "duration": 508}, {"note": 66, "velocity": 76, "duration": 240}, {"note": 68, "velocity": 70, "duration": 296}, {"note": 66, "velocity": 75, "duration": 858}, {"note": 0, "velocity": 0, "duration": 102}, {"note": 68, "velocity": 78, "duration": 353}, {"note": 0, "velocity": 0, "duration": 127}, {"note": 68, "velocity": 77, "duration": 185}, {"note": 71, "velocity": 76, "duration": 235}, {"note": 68, "velocity": 76, "duration": 346}, {"note": 0, "velocity": 0, "duration": 134}, {"note": 66, "velocity": 77, "duration": 193}, {"note": 61, "velocity": 76, "duration": 206}, {"note": 64, "velocity": 72, "duration": 149}, {"note": 0, "velocity": 0, "duration": 91}, {"note": 64, "velocity": 76, "duration": 168}, {"note": 0, "velocity": 0, "duration": 72}, {"note": 66, "velocity": 72, "duration": 164}, {"note": 0, "velocity": 0, "duration": 76}, {"note": 68, "velocity": 72, "duration": 200}, {"note": 64, "velocity": 77, "duration": 824}, {"note": 0, "velocity": 0, "duration": 136}, {"note": 63, "velocity": 76, "duration": 353}, {"note": 0, "velocity": 0, "duration": 127}, {"note": 63, "velocity": 75, "duration": 218}, {"note": 66, "velocity": 70, "duration": 134}, {"note": 0, "velocity": 0, "duration": 106}, {"note": 59, "velocity": 78, "duration": 454}, {"note": 56, "velocity": 73, "duration": 287}, {"note": 59, "velocity": 64, "duration": 229}, {"note": 61, "velocity": 72, "duration": 380}, {"note": 0, "velocity": 0, "duration": 100}, {"note": 61, "velocity": 77, "duration": 282}, {"note": 0, "velocity": 0, "duration": 198}, {"note": 61, "velocity": 71, "duration": 812}, {"note": 0, "velocity": 0, "duration": 148}, {"note": 68, "velocity": 76, "duration": 349}, {"note": 0, "velocity": 0, "duration": 131}, {"note": 68, "velocity": 77, "duration": 200}, {"note": 66, "velocity": 66, "duration": 168}, {"note": 0, "velocity": 0, "duration": 72}, {"note": 68, "velocity": 76, "duration": 407}, {"note": 0, "velocity": 0, "duration": 73}, {"note": 61, "velocity": 74, "duration": 133}, {"note": 0, "velocity": 0, "duration": 107}, {"note": 61, "velocity": 76, "duration": 195}, {"note": 64, "velocity": 76, "duration": 393}, {"note": 0, "velocity": 0, "duration": 87}, {"note": 66, "velocity": 74, "duration": 159}, {"note": 0, "velocity": 0, "duration": 81}, {"note": 68, "velocity": 72, "duration": 200}, {"note": 66, "velocity": 76, "duration": 798}, {"note": 0, "velocity": 0, "duration": 162}, {"note": 63, "velocity": 82, "duration": 366}, {"note": 0, "velocity": 0, "duration": 114}, {"note": 63, "velocity": 79, "duration": 210}, {"note": 66, "velocity": 76, "duration": 133}, {"note": 0, "velocity": 0, "duration": 107}, {"note": 59, "velocity": 78, "duration": 380}, {"note": 0, "velocity": 0, "duration": 100}, {"note": 56, "velocity": 77, "duration": 150}, {"note": 0, "velocity": 0, "duration": 90}, {"note": 59, "velocity": 76, "duration": 154}, {"note": 0, "velocity": 0, "duration": 86}, {"note": 61, "velocity": 76, "duration": 381}, {"note": 0, "velocity": 0, "duration": 99}, {"note": 61, "velocity": 74, "duration": 406}, {"note": 0, "velocity": 0, "duration": 74}, {"note": 61, "velocity": 76, "duration": 764}, {"note": 0, "velocity": 0, "duration": 15556}, {"note": 61, "velocity": 80, "duration": 399}, {"note": 0, "velocity": 0, "duration": 81}, {"note": 61, "velocity": 76, "duration": 205}, {"note": 68, "velocity": 78, "duration": 231}, {"note": 66, "velocity": 75, "duration": 402}, {"note": 0, "velocity": 0, "duration": 78}, {"note": 64, "velocity": 76, "duration": 215}, {"note": 61, "velocity": 72, "duration": 290}, {"note": 64, "velocity": 80, "duration": 535}, {"note": 66, "velocity": 76, "duration": 257}, {"note": 64, "velocity": 76, "duration": 236}, {"note": 61, "velocity": 77, "duration": 853}, {"note": 0, "velocity": 0, "duration": 107}, {"note": 61, "velocity": 78, "duration": 353}, {"note": 0, "velocity": 0, "duration": 127}, {"note": 61, "velocity": 76, "duration": 204}, {"note": 68, "velocity": 77, "duration": 241}, {"note": 66, "velocity": 76, "duration": 497}, {"note": 64, "velocity": 77, "duration": 215}, {"note": 61, "velocity": 74, "duration": 305}, {"note": 64, "velocity": 79, "duration": 508}, {"note": 66, "velocity": 76, "duration": 240}, {"note": 68, "velocity": 70, "duration": 296}, {"note": 66, "velocity": 75, "duration": 858}, {"note": 0, "velocity": 0, "duration": 102}, {"note": 68, "velocity": 78, "duration": 353}, {"note": 0, "velocity": 0, "duration": 127}, {"note": 68, "velocity": 77, "duration": 185}, {"note": 71, "velocity": 76, "duration": 235}, {"note": 68, "velocity": 76, "duration": 346}, {"note": 0, "velocity": 0, "duration": 134}, {"note": 66, "velocity": 77, "duration": 193}, {"note": 61, "velocity": 76, "duration": 206}, {"note": 64, "velocity": 72, "duration": 149}, {"note": 0, "velocity": 0, "duration": 91}, {"note": 64, "velocity": 76, "duration": 168}, {"note": 0, "velocity": 0, "duration": 72}, {"note": 66, "velocity": 72, "duration": 164}, {"note": 0, "velocity": 0, "duration": 76}, {"note": 68, "velocity": 72, "duration": 200}, {"note": 64, "velocity": 77, "duration": 824}, {"note": 0, "velocity": 0, "duration": 136}, {"note": 63, "velocity": 76, "duration": 353}, {"note": 0, "velocity": 0, "duration": 127}, {"note": 63, "velocity": 75, "duration": 218}, {"note": 66, "velocity": 70, "duration": 134}, {"note": 0, "velocity": 0, "duration": 106}, {"note": 59, "velocity": 78, "duration": 454}, {"note": 56, "velocity": 73, "duration": 287}, {"note": 59, "velocity": 64, "duration": 229}, {"note": 61, "velocity": 72, "duration": 380}, {"note": 0, "velocity": 0, "duration": 100}, {"note": 61, "velocity": 77, "duration": 282}, {"note": 0, "velocity": 0, "duration": 198}, {"note": 61, "velocity": 71, "duration": 812}, {"note": 0, "velocity": 0, "duration": 148}, {"note": 68, "velocity": 76, "duration": 349}, {"note": 0, "velocity": 0, "duration": 131}, {"note": 68, "velocity": 77, "duration": 200}, {"note": 66, "velocity": 66, "duration": 168}, {"note": 0, "velocity": 0, "duration": 72}, {"note": 68, "velocity": 76, "duration": 407}, {"note": 0, "velocity": 0, "duration": 73}, {"note": 61, "velocity": 74, "duration": 133}, {"note": 0, "velocity": 0, "duration": 107}, {"note": 61, "velocity": 76, "duration": 195}, {"note": 64, "velocity": 76, "duration": 393}, {"note": 0, "velocity": 0, "duration": 87}, {"note": 66, "velocity": 74, "duration": 159}, {"note": 0, "velocity": 0, "duration": 81}, {"note": 68, "velocity": 72, "duration": 200}, {"note": 66, "velocity": 76, "duration": 798}, {"note": 0, "velocity": 0, "duration": 162}, {"note": 63, "velocity": 82, "duration": 366}, {"note": 0, "velocity": 0, "duration": 114}, {"note": 63, "velocity": 79, "duration": 210}, {"note": 66, "velocity": 76, "duration": 133}, {"note": 0, "velocity": 0, "duration": 107}, {"note": 59, "velocity": 78, "duration": 380}, {"note": 0, "velocity": 0, "duration": 100}, {"note": 56, "velocity": 77, "duration": 150}, {"note": 0, "velocity": 0, "duration": 90}, {"note": 59, "velocity": 76, "duration": 154}, {"note": 0, "velocity": 0, "duration": 86}, {"note": 61, "velocity": 76, "duration": 381}, {"note": 0, "velocity": 0, "duration": 99}, {"note": 61, "velocity": 74, "duration": 406}, {"note": 0, "velocity": 0, "duration": 74}, {"note": 61, "velocity": 76, "duration": 764}, {"note": 0, "velocity": 0, "duration": 196}, {"note": 68, "velocity": 76, "duration": 349}, {"note": 0, "velocity": 0, "duration": 131}, {"note": 68, "velocity": 77, "duration": 200}, {"note": 66, "velocity": 66, "duration": 168}, {"note": 0, "velocity": 0, "duration": 72}, {"note": 68, "velocity": 76, "duration": 407}, {"note": 0, "velocity": 0, "duration": 73}, {"note": 61, "velocity": 74, "duration": 133}, {"note": 0, "velocity": 0, "duration": 107}, {"note": 61, "velocity": 76, "duration": 195}, {"note": 64, "velocity": 76, "duration": 393}, {"note": 0, "velocity": 0, "duration": 87}, {"note": 66, "velocity": 74, "duration": 159}, {"note": 0, "velocity": 0, "duration": 81}, {"note": 68, "velocity": 72, "duration": 200}, {"note": 66, "velocity": 76, "duration": 798}, {"note": 0, "velocity": 0, "duration": 162}, {"note": 63, "velocity": 82, "duration": 366}, {"note": 0, "velocity": 0, "duration": 114}, {"note": 63, "velocity": 79, "duration": 210}, {"note": 66, "velocity": 76, "duration": 133}, {"note": 0, "velocity": 0, "duration": 107}, {"note": 59, "velocity": 78, "duration": 380}, {"note": 0, "velocity": 0, "duration": 100}, {"note": 56, "velocity": 77, "duration": 150}, {"note": 0, "velocity": 0, "duration": 90}, {"note": 59, "velocity": 76, "duration": 154}, {"note": 0, "velocity": 0, "duration": 86}, {"note": 61, "velocity": 76, "duration": 381}, {"note": 0, "velocity": 0, "duration": 99}, {"note": 61, "velocity": 74, "duration": 406}, {"note": 0, "velocity": 0, "duration": 74}, {"note": 61, "velocity": 76, "duration": 764}, {"note": 0, "velocity": 0, "duration": 7876}, {"note": 68, "velocity": 76, "duration": 349}, {"note": 0, "velocity": 0, "duration": 131}, {"note": 68, "velocity": 77, "duration": 200}, {"note": 66, "velocity": 66, "duration": 168}, {"note": 0, "velocity": 0, "duration": 72}, {"note": 68, "velocity": 76, "duration": 407}, {"note": 0, "velocity": 0, "duration": 73}, {"note": 61, "velocity": 74, "duration": 133}, {"note": 0, "velocity": 0, "duration": 107}, {"note": 61, "velocity": 76, "duration": 195}, {"note": 64, "velocity": 76, "duration": 393}, {"note": 0, "velocity": 0, "duration": 87}, {"note": 66, "velocity": 74, "duration": 159}, {"note": 0, "velocity": 0, "duration": 81}, {"note": 68, "velocity": 72, "duration": 200}, {"note": 66, "velocity": 76, "duration": 798}, {"note": 0, "velocity": 0, "duration": 162}, {"note": 63, "velocity": 82, "duration": 366}, {"note": 0, "velocity": 0, "duration": 114}, {"note": 63, "velocity": 79, "duration": 210}, {"note": 66, "velocity": 76, "duration": 133}, {"note": 0, "velocity": 0, "duration": 107}, {"note": 59, "velocity": 78, "duration": 380}, {"note": 0, "velocity": 0, "duration": 100}, {"note": 56, "velocity": 77, "duration": 150}, {"note": 0, "velocity": 0, "duration": 90}, {"note": 59, "velocity": 76, "duration": 154}, {"note": 0, "velocity": 0, "duration": 86}, {"note": 61, "velocity": 76, "duration": 381}, {"note": 0, "velocity": 0, "duration": 99}, {"note": 61, "velocity": 74, "duration": 406}, {"note": 0, "velocity": 0, "duration": 74}, {"note": 61, "velocity": 76, "duration": 764}, {"note": 0, "velocity": 0, "duration": 7876}, {"note": 68, "velocity": 76, "duration": 349}, {"note": 0, "velocity": 0, "duration": 131}, {"note": 68, "velocity": 77, "duration": 200}, {"note": 66, "velocity": 66, "duration": 168}, {"note": 0, "velocity": 0, "duration": 72}, {"note": 68, "velocity": 76, "duration": 407}, {"note": 0, "velocity": 0, "duration": 73}, {"note": 61, "velocity": 74, "duration": 133}, {"note": 0, "velocity": 0, "duration": 107}, {"note": 61, "velocity": 76, "duration": 195}, {"note": 64, "velocity": 76, "duration": 393}, {"note": 0, "velocity": 0, "duration": 87}, {"note": 66, "velocity": 74, "duration": 159}, {"note": 0, "velocity": 0, "duration": 81}, {"note": 68, "velocity": 72, "duration": 200}, {"note": 66, "velocity": 76, "duration": 798}, {"note": 0, "velocity": 0, "duration": 162}, {"note": 63, "velocity": 82, "duration": 366}, {"note": 0, "velocity": 0, "duration": 114}, {"note": 63, "velocity": 79, "duration": 210}, {"note": 66, "velocity": 76, "duration": 133}, {"note": 0, "velocity": 0, "duration": 107}, {"note": 59, "velocity": 78, "duration": 380}, {"note": 0, "velocity": 0, "duration": 100}, {"note": 56, "velocity": 77, "duration": 150}, {"note": 0, "velocity": 0, "duration": 90}, {"note": 59, "velocity": 76, "duration": 154}, {"note": 0, "velocity": 0, "duration": 86}, {"note": 61, "velocity": 76, "duration": 381}, {"note": 0, "velocity": 0, "duration": 99}, {"note": 61, "velocity": 74, "duration": 406}, {"note": 0, "velocity": 0, "duration": 74}, {"note": 61, "velocity": 76, "duration": 764}, {"note": 0, "velocity": 0, "duration": 7876}, {"note": 68, "velocity": 76, "duration": 349}, {"note": 0, "velocity": 0, "duration": 131}, {"note": 68, "velocity": 77, "duration": 200}, {"note": 66, "velocity": 66, "duration": 168}, {"note": 0, "velocity": 0, "duration": 72}, {"note": 68, "velocity": 76, "duration": 407}, {"note": 0, "velocity": 0, "duration": 73}, {"note": 61, "velocity": 74, "duration": 133}, {"note": 0, "velocity": 0, "duration": 107}, {"note": 61, "velocity": 76, "duration": 195}, {"note": 64, "velocity": 76, "duration": 393}, {"note": 0, "velocity": 0, "duration": 87}, {"note": 66, "velocity": 74, "duration": 159}, {"note": 0, "velocity": 0, "duration": 81}, {"note": 68, "velocity": 72, "duration": 200}, {"note": 66, "velocity": 76, "duration": 798}, {"note": 0, "velocity": 0, "duration": 162}, {"note": 63, "velocity": 82, "duration": 366}, {"note": 0, "velocity": 0, "duration": 114}, {"note": 63, "velocity": 79, "duration": 210}, {"note": 66, "velocity": 76, "duration": 133}, {"note": 0, "velocity": 0, "duration": 107}, {"note": 59, "velocity": 78, "duration": 380}, {"note": 0, "velocity": 0, "duration": 100}, {"note": 56, "velocity": 77, "duration": 150}, {"note": 0, "velocity": 0, "duration": 90}, {"note": 59, "velocity": 76, "duration": 154}, {"note": 0, "velocity": 0, "duration": 86}, {"note": 61, "velocity": 76, "duration": 381}, {"note": 0, "velocity": 0, "duration": 99}, {"note": 61, "velocity": 74, "duration": 406}, {"note": 0, "velocity": 0, "duration": 74}, {"note": 61, "velocity": 76, "duration": 764}, {"note": 0, "velocity": 0, "duration": 7876}, {"note": 68, "velocity": 76, "duration": 349}, {"note": 0, "velocity": 0, "duration": 131}, {"note": 68, "velocity": 77, "duration": 200}, {"note": 66, "velocity": 66, "duration": 168}, {"note": 0, "velocity": 0, "duration": 72}, {"note": 68, "velocity": 76, "duration": 407}, {"note": 0, "velocity": 0, "duration": 73}, {"note": 61, "velocity": 74, "duration": 133}, {"note": 0, "velocity": 0, "duration": 107}, {"note": 61, "velocity": 76, "duration": 195}, {"note": 64, "velocity": 76, "duration": 393}, {"note": 0, "velocity": 0, "duration": 87}, {"note": 66, "velocity": 74, "duration": 159}, {"note": 0, "velocity": 0, "duration": 81}, {"note": 68, "velocity": 72, "duration": 200}, {"note": 66, "velocity": 76, "duration": 798}, {"note": 0, "velocity": 0, "duration": 162}, {"note": 63, "velocity": 82, "duration": 366}, {"note": 0, "velocity": 0, "duration": 114}, {"note": 63, "velocity": 79, "duration": 210}, {"note": 66, "velocity": 76, "duration": 133}, {"note": 0, "velocity": 0, "duration": 107}, {"note": 59, "velocity": 78, "duration": 380}, {"note": 0, "velocity": 0, "duration": 100}, {"note": 56, "velocity": 77, "duration": 150}, {"note": 0, "velocity": 0, "duration": 90}, {"note": 59, "velocity": 76, "duration": 154}, {"note": 0, "velocity": 0, "duration": 86}, {"note": 61, "velocity": 76, "duration": 381}, {"note": 0, "velocity": 0, "duration": 99}, {"note": 61, "velocity": 74, "duration": 406}, {"note": 0, "velocity": 0, "duration": 74}, {"note": 61, "velocity": 76, "duration": 764}]]