[[{"note": 77, "velocity": 80, "duration": 226}, {"note": 80, "velocity": 75, "duration": 482}, {"note": 82, "velocity": 76, "duration": 244}, {"note": 77, "velocity": 77, "duration": 728}, {"note": 75, "velocity": 72, "duration": 257}, {"note": 73, "velocity": 72, "duration": 275}, {"note": 75, "velocity": 74, "duration": 240}, {"note": 77, "velocity": 75, "duration": 266}, {"note": 70, "velocity": 70, "duration": 263}, {"note": 68, "velocity": 70, "duration": 840}, {"note": 0, "velocity": 0, "duration": 120}, {"note": 70, "velocity": 76, "duration": 196}, {"note": 70, "velocity": 76, "duration": 504}, {"note": 73, "velocity": 71, "duration": 253}, {"note": 75, "velocity": 73, "duration": 235}, {"note": 73, "velocity": 75, "duration": 273}, {"note": 80, "velocity": 69, "duration": 297}, {"note": 82, "velocity": 73, "duration": 483}, {"note": 77, "velocity": 75, "duration": 1376}, {"note": 0, "velocity": 0, "duration": 304}, {"note": 80, "velocity": 68, "duration": 222}, {"note": 82, "velocity": 75, "duration": 503}, {"note": 85, "velocity": 76, "duration": 256}, {"note": 82, "velocity": 75, "duration": 710}, {"note": 77, "velocity": 79, "duration": 267}, {"note": 80, "velocity": 75, "duration": 260}, {"note": 77, "velocity": 77, "duration": 272}, {"note": 80, "velocity": 68, "duration": 264}, {"note": 82, "velocity": 70, "duration": 264}, {"note": 73, "velocity": 75, "duration": 826}, {"note": 0, "velocity": 0, "duration": 134}, {"note": 70, "velocity": 75, "duration": 207}, {"note": 73, "velocity": 71, "duration": 237}, {"note": 75, "velocity": 74, "duration": 251}, {"note": 80, "velocity": 72, "duration": 260}, {"note": 77, "velocity": 75, "duration": 488}, {"note": 75, "velocity": 75, "duration": 471}, {"note": 73, "velocity": 71, "duration": 1457}, {"note": 0, "velocity": 0, "duration": 463}, {"note": 80, "velocity": 70, "duration": 420}, {"note": 80, "velocity": 76, "duration": 219}, {"note": 77, "velocity": 79, "duration": 232}, {"note": 80, "velocity": 73, "duration": 222}, {"note": 82, "velocity": 73, "duration": 286}, {"note": 85, "velocity": 76, "duration": 235}, {"note": 84, "velocity": 77, "duration": 260}, {"note": 82, "velocity": 75, "duration": 879}, {"note": 0, "velocity": 0, "duration": 561}, {"note": 80, "velocity": 78, "duration": 228}, {"note": 82, "velocity": 77, "duration": 248}, {"note": 77, "velocity": 79, "duration": 652}, {"note": 0, "velocity": 0, "duration": 68}, {"note": 80, "velocity": 68, "duration": 190}, {"note": 73, "velocity": 76, "duration": 249}, {"note": 70, "velocity": 75, "duration": 261}, {"note": 73, "velocity": 76, "duration": 253}, {"note": 80, "velocity": 73, "duration": 272}, {"note": 77, "velocity": 73, "duration": 489}, {"note": 75, "velocity": 75, "duration": 804}, {"note": 0, "velocity": 0, "duration": 636}, {"note": 75, "velocity": 76, "duration": 400}, {"note": 0, "velocity": 0, "duration": 80}, {"note": 75, "velocity": 76, "duration": 250}, {"note": 73, "velocity": 75, "duration": 264}, {"note": 75, "velocity": 75, "duration": 234}, {"note": 77, "velocity": 75, "duration": 272}, {"note": 80, "velocity": 75, "duration": 226}, {"note": 77, "velocity": 76, "duration": 255}, {"note": 75, "velocity": 73, "duration": 795}, {"note": 0, "velocity": 0, "duration": 645}, {"note": 75, "velocity": 73, "duration": 173}, {"note": 0, "velocity": 0, "duration": 67}, {"note": 77, "velocity": 79, "duration": 184}, {"note": 80, "velocity": 76, "duration": 209}, {"note": 77, "velocity": 75, "duration": 426}, {"note": 75, "velocity": 76, "duration": 212}, {"note": 70, "velocity": 75, "duration": 221}, {"note": 68, "velocity": 75, "duration": 275}, {"note": 75, "velocity": 76, "duration": 207}, {"note": 77, "velocity": 73, "duration": 251}, {"note": 73, "velocity": 74, "duration": 1792}, {"note": 0, "velocity": 0, "duration": 32768}, {"note": 77, "velocity": 80, "duration": 226}, {"note": 80, "velocity": 75, "duration": 482}, {"note": 82, "velocity": 76, "duration": 244}, {"note": 77, "velocity": 77, "duration": 728}, {"note": 75, "velocity": 72, "duration": 257}, {"note": 73, "velocity": 72, "duration": 275}, {"note": 75, "velocity": 74, "duration": 240}, {"note": 77, "velocity": 75, "duration": 266}, {"note": 70, "velocity": 70, "duration": 263}, {"note": 68, "velocity": 70, "duration": 840}, {"note": 0, "velocity": 0, "duration": 120}, {"note": 70, "velocity": 76, "duration": 196}, {"note": 70, "velocity": 76, "duration": 504}, {"note": 73, "velocity": 71, "duration": 253}, {"note": 75, "velocity": 73, "duration": 235}, {"note": 73, "velocity": 75, "duration": 273}, {"note": 80, "velocity": 69, "duration": 297}, {"note": 82, "velocity": 73, "duration": 483}, {"note": 77, "velocity": 75, "duration": 1376}, {"note": 0, "velocity": 0, "duration": 304}, {"note": 80, "velocity": 68, "duration": 222}, {"note": 82, "velocity": 75, "duration": 503}, {"note": 85, "velocity": 76, "duration": 256}, {"note": 82, "velocity": 75, "duration": 710}, {"note": 77, "velocity": 79, "duration": 267}, {"note": 80, "velocity": 75, "duration": 260}, {"note": 77, "velocity": 77, "duration": 272}, {"note": 80, "velocity": 68, "duration": 264}, {"note": 82, "velocity": 70, "duration": 264}, {"note": 73, "velocity": 75, "duration": 826}, {"note": 0, "velocity": 0, "duration": 134}, {"note": 70, "velocity": 75, "duration": 207}, {"note": 73, "velocity": 71, "duration": 237}, {"note": 75, "velocity": 74, "duration": 251}, {"note": 80, "velocity": 72, "duration": 260}, {"note": 77, "velocity": 75, "duration": 488}, {"note": 75, "velocity": 75, "duration": 471}, {"note": 73, "velocity": 71, "duration": 1457}, {"note": 0, "velocity": 0, "duration": 463}, {"note": 80, "velocity": 70, "duration": 420}, {"note": 80, "velocity": 76, "duration": 219}, {"note": 77, "velocity": 79, "duration": 232}, {"note": 80, "velocity": 73, "duration": 222}, {"note": 82, "velocity": 73, "duration": 286}, {"note": 85, "velocity": 76, "duration": 235}, {"note": 84, "velocity": 77, "duration": 260}, {"note": 82, "velocity": 75, "duration": 879}, {"note": 0, "velocity": 0, "duration": 561}, {"note": 80, "velocity": 78, "duration": 228}, {"note": 82, "velocity": 77, "duration": 248}, {"note": 77, "velocity": 79, "duration": 652}, {"note": 0, "velocity": 0, "duration": 68}, {"note": 80, "velocity": 68, "duration": 190}, {"note": 73, "velocity": 76, "duration": 249}, {"note": 70, "velocity": 75, "duration": 261}, {"note": 73, "velocity": 76, "duration": 253}, {"note": 80, "velocity": 73, "duration": 272}, {"note": 77, "velocity": 73, "duration": 489}, {"note": 75, "velocity": 75, "duration": 804}, {"note": 0, "velocity": 0, "duration": 636}, {"note": 75, "velocity": 76, "duration": 400}, {"note": 0, "velocity": 0, "duration": 80}, {"note": 75, "velocity": 76, "duration": 250}, {"note": 73, "velocity": 75, "duration": 264}, {"note": 75, "velocity": 75, "duration": 234}, {"note": 77, "velocity": 75, "duration": 272}, {"note": 80, "velocity": 75, "duration": 226}, {"note": 77, "velocity": 76, "duration": 255}, {"note": 75, "velocity": 73, "duration": 795}, {"note": 0, "velocity": 0, "duration": 645}, {"note": 75, "velocity": 73, "duration": 173}, {"note": 0, "velocity": 0, "duration": 67}, {"note": 77, "velocity": 79, "duration": 184}, {"note": 80, "velocity": 76, "duration": 209}, {"note": 77, "velocity": 75, "duration": 426}, {"note": 75, "velocity": 76, "duration": 212}, {"note": 70, "velocity": 75, "duration": 221}, {"note": 68, "velocity": 75, "duration": 275}, {"note": 75, "velocity": 76, "duration": 207}, {"note": 77, "velocity": 73, "duration": 251}, {"note": 73, "velocity": 74, "duration": 1792}]]