[[{"note": 65, "velocity": 80, "duration": 785}, {"note": 0, "velocity": 0, "duration": 175}, {"note": 60, "velocity": 77, "duration": 958}, {"note": 68, "velocity": 77, "duration": 556}, {"note": 67, "velocity": 76, "duration": 259}, {"note": 65, "velocity": 77, "duration": 261}, {"note": 63, "velocity": 77, "duration": 478}, {"note": 60, "velocity": 77, "duration": 254}, {"note": 63, "velocity": 76, "duration": 287}, {"note": 65, "velocity": 77, "duration": 480}, {"note": 65, "velocity": 76, "duration": 481}, {"note": 63, "velocity": 68, "duration": 261}, {"note": 65, "velocity": 79, "duration": 292}, {"note": 67, "velocity": 76, "duration": 465}, {"note": 65, "velocity": 80, "duration": 1564}, {"note": 0, "velocity": 0, "duration": 356}, {"note": 58, "velocity": 75, "duration": 866}, {"note": 0, "velocity": 0, "duration": 94}, {"note": 53, "velocity": 81, "duration": 777}, {"note": 0, "velocity": 0, "duration": 183}, {"note": 56, "velocity": 76, "duration": 431}, {"note": 58, "velocity": 76, "duration": 246}, {"note": 60, "velocity": 76, "duration": 276}, {"note": 63, "velocity": 76, "duration": 775}, {"note": 0, "velocity": 0, "duration": 185}, {"note": 65, "velocity": 78, "duration": 417}, {"note": 0, "velocity": 0, "duration": 63}, {"note": 58, "velocity": 77, "duration": 365}, {"note": 0, "velocity": 0, "duration": 115}, {"note": 58, "velocity": 76, "duration": 180}, {"note": 60, "velocity": 77, "duration": 250}, {"note": 62, "velocity": 74, "duration": 505}, {"note": 60, "velocity": 76, "duration": 1853}, {"note": 0, "velocity": 0, "duration": 67}, {"note": 65, "velocity": 78, "duration": 912}, {"note": 60, "velocity": 78, "duration": 966}, {"note": 68, "velocity": 77, "duration": 536}, {"note": 67, "velocity": 80, "duration": 249}, {"note": 65, "velocity": 77, "duration": 268}, {"note": 63, "velocity": 79, "duration": 480}, {"note": 60, "velocity": 77, "duration": 220}, {"note": 63, "velocity": 77, "duration": 240}, {"note": 65, "velocity": 82, "duration": 371}, {"note": 0, "velocity": 0, "duration": 109}, {"note": 65, "velocity": 83, "duration": 486}, {"note": 63, "velocity": 77, "duration": 481}, {"note": 56, "velocity": 80, "duration": 277}, {"note": 58, "velocity": 76, "duration": 250}, {"note": 60, "velocity": 76, "duration": 480}, {"note": 58, "velocity": 74, "duration": 1424}, {"note": 58, "velocity": 78, "duration": 909}, {"note": 53, "velocity": 81, "duration": 975}, {"note": 56, "velocity": 77, "duration": 461}, {"note": 58, "velocity": 71, "duration": 245}, {"note": 60, "velocity": 78, "duration": 262}, {"note": 63, "velocity": 77, "duration": 480}, {"note": 60, "velocity": 76, "duration": 250}, {"note": 63, "velocity": 76, "duration": 256}, {"note": 58, "velocity": 78, "duration": 369}, {"note": 0, "velocity": 0, "duration": 111}, {"note": 58, "velocity": 76, "duration": 230}, {"note": 60, "velocity": 77, "duration": 231}, {"note": 53, "velocity": 85, "duration": 510}, {"note": 55, "velocity": 77, "duration": 270}, {"note": 56, "velocity": 75, "duration": 232}, {"note": 53, "velocity": 80, "duration": 1781}, {"note": 0, "velocity": 0, "duration": 139}, {"note": 65, "velocity": 85, "duration": 472}, {"note": 72, "velocity": 81, "duration": 403}, {"note": 0, "velocity": 0, "duration": 77}, {"note": 72, "velocity": 78, "duration": 477}, {"note": 70, "velocity": 80, "duration": 240}, {"note": 72, "velocity": 72, "duration": 284}, {"note": 70, "velocity": 78, "duration": 1440}, {"note": 65, "velocity": 83, "duration": 526}, {"note": 68, "velocity": 80, "duration": 809}, {"note": 65, "velocity": 80, "duration": 238}, {"note": 63, "velocity": 77, "duration": 462}, {"note": 60, "velocity": 76, "duration": 289}, {"note": 63, "velocity": 73, "duration": 285}, {"note": 65, "velocity": 77, "duration": 1757}, {"note": 0, "velocity": 0, "duration": 163}, {"note": 65, "velocity": 90, "duration": 421}, {"note": 70, "velocity": 80, "duration": 381}, {"note": 0, "velocity": 0, "duration": 99}, {"note": 70, "velocity": 78, "duration": 411}, {"note": 0, "velocity": 0, "duration": 69}, {"note": 65, "velocity": 78, "duration": 444}, {"note": 68, "velocity": 77, "duration": 507}, {"note": 67, "velocity": 77, "duration": 231}, {"note": 65, "velocity": 79, "duration": 256}, {"note": 63, "velocity": 78, "duration": 455}, {"note": 65, "velocity": 80, "duration": 431}, {"note": 63, "velocity": 75, "duration": 521}, {"note": 58, "velocity": 76, "duration": 401}, {"note": 0, "velocity": 0, "duration": 79}, {"note": 58, "velocity": 77, "duration": 196}, {"note": 60, "velocity": 73, "duration": 169}, {"note": 0, "velocity": 0, "duration": 71}, {"note": 62, "velocity": 77, "duration": 436}, {"note": 60, "velocity": 77, "duration": 1730}, {"note": 0, "velocity": 0, "duration": 190}, {"note": 65, "velocity": 83, "duration": 480}, {"note": 72, "velocity": 77, "duration": 330}, {"note": 0, "velocity": 0, "duration": 150}, {"note": 72, "velocity": 77, "duration": 441}, {"note": 70, "velocity": 79, "duration": 236}, {"note": 72, "velocity": 76, "duration": 261}, {"note": 70, "velocity": 81, "duration": 1440}, {"note": 65, "velocity": 77, "duration": 480}, {"note": 68, "velocity": 77, "duration": 1200}, {"note": 0, "velocity": 0, "duration": 240}, {"note": 65, "velocity": 77, "duration": 480}, {"note": 70, "velocity": 77, "duration": 1440}, {"note": 0, "velocity": 0, "duration": 480}, {"note": 63, "velocity": 77, "duration": 482}, {"note": 65, "velocity": 78, "duration": 493}, {"note": 63, "velocity": 77, "duration": 492}, {"note": 60, "velocity": 79, "duration": 555}, {"note": 70, "velocity": 85, "duration": 673}, {"note": 68, "velocity": 75, "duration": 257}, {"note": 70, "velocity": 82, "duration": 458}, {"note": 72, "velocity": 77, "duration": 483}, {"note": 63, "velocity": 80, "duration": 411}, {"note": 0, "velocity": 0, "duration": 69}, {"note": 60, "velocity": 80, "duration": 524}, {"note": 63, "velocity": 76, "duration": 224}, {"note": 65, "velocity": 81, "duration": 276}, {"note": 67, "velocity": 77, "duration": 522}, {"note": 65, "velocity": 80, "duration": 1902}, {"note": 0, "velocity": 0, "duration": 30738}, {"note": 65, "velocity": 80, "duration": 785}, {"note": 0, "velocity": 0, "duration": 175}, {"note": 60, "velocity": 77, "duration": 958}, {"note": 68, "velocity": 77, "duration": 556}, {"note": 67, "velocity": 76, "duration": 259}, {"note": 65, "velocity": 77, "duration": 261}, {"note": 63, "velocity": 77, "duration": 478}, {"note": 60, "velocity": 77, "duration": 254}, {"note": 63, "velocity": 76, "duration": 287}, {"note": 65, "velocity": 77, "duration": 480}, {"note": 65, "velocity": 76, "duration": 481}, {"note": 63, "velocity": 68, "duration": 261}, {"note": 65, "velocity": 79, "duration": 292}, {"note": 67, "velocity": 76, "duration": 465}, {"note": 65, "velocity": 80, "duration": 1564}, {"note": 0, "velocity": 0, "duration": 356}, {"note": 58, "velocity": 75, "duration": 866}, {"note": 0, "velocity": 0, "duration": 94}, {"note": 53, "velocity": 81, "duration": 777}, {"note": 0, "velocity": 0, "duration": 183}, {"note": 56, "velocity": 76, "duration": 431}, {"note": 58, "velocity": 76, "duration": 246}, {"note": 60, "velocity": 76, "duration": 276}, {"note": 63, "velocity": 76, "duration": 775}, {"note": 0, "velocity": 0, "duration": 185}, {"note": 65, "velocity": 78, "duration": 417}, {"note": 0, "velocity": 0, "duration": 63}, {"note": 58, "velocity": 77, "duration": 365}, {"note": 0, "velocity": 0, "duration": 115}, {"note": 58, "velocity": 76, "duration": 180}, {"note": 60, "velocity": 77, "duration": 250}, {"note": 62, "velocity": 74, "duration": 505}, {"note": 60, "velocity": 76, "duration": 1853}, {"note": 0, "velocity": 0, "duration": 67}, {"note": 65, "velocity": 78, "duration": 912}, {"note": 60, "velocity": 78, "duration": 966}, {"note": 68, "velocity": 77, "duration": 536}, {"note": 67, "velocity": 80, "duration": 249}, {"note": 65, "velocity": 77, "duration": 268}, {"note": 63, "velocity": 79, "duration": 480}, {"note": 60, "velocity": 77, "duration": 220}, {"note": 63, "velocity": 77, "duration": 240}, {"note": 65, "velocity": 82, "duration": 371}, {"note": 0, "velocity": 0, "duration": 109}, {"note": 65, "velocity": 83, "duration": 486}, {"note": 63, "velocity": 77, "duration": 481}, {"note": 56, "velocity": 80, "duration": 277}, {"note": 58, "velocity": 76, "duration": 250}, {"note": 60, "velocity": 76, "duration": 480}, {"note": 58, "velocity": 74, "duration": 1424}, {"note": 58, "velocity": 78, "duration": 909}, {"note": 53, "velocity": 81, "duration": 975}, {"note": 56, "velocity": 77, "duration": 461}, {"note": 58, "velocity": 71, "duration": 245}, {"note": 60, "velocity": 78, "duration": 262}, {"note": 63, "velocity": 77, "duration": 480}, {"note": 60, "velocity": 76, "duration": 250}, {"note": 63, "velocity": 76, "duration": 256}, {"note": 58, "velocity": 78, "duration": 369}, {"note": 0, "velocity": 0, "duration": 111}, {"note": 58, "velocity": 76, "duration": 230}, {"note": 60, "velocity": 77, "duration": 231}, {"note": 53, "velocity": 85, "duration": 510}, {"note": 55, "velocity": 77, "duration": 270}, {"note": 56, "velocity": 75, "duration": 232}, {"note": 53, "velocity": 80, "duration": 1781}, {"note": 0, "velocity": 0, "duration": 139}, {"note": 65, "velocity": 85, "duration": 472}, {"note": 72, "velocity": 81, "duration": 403}, {"note": 0, "velocity": 0, "duration": 77}, {"note": 72, "velocity": 78, "duration": 477}, {"note": 70, "velocity": 80, "duration": 240}, {"note": 72, "velocity": 72, "duration": 284}, {"note": 70, "velocity": 78, "duration": 1440}, {"note": 65, "velocity": 83, "duration": 526}, {"note": 67, "velocity": 80, "duration": 809}, {"note": 65, "velocity": 80, "duration": 238}, {"note": 63, "velocity": 77, "duration": 462}, {"note": 60, "velocity": 76, "duration": 289}, {"note": 63, "velocity": 73, "duration": 285}, {"note": 65, "velocity": 77, "duration": 1757}, {"note": 0, "velocity": 0, "duration": 163}, {"note": 65, "velocity": 90, "duration": 421}, {"note": 70, "velocity": 80, "duration": 381}, {"note": 0, "velocity": 0, "duration": 99}, {"note": 70, "velocity": 78, "duration": 411}, {"note": 0, "velocity": 0, "duration": 69}, {"note": 65, "velocity": 78, "duration": 444}, {"note": 68, "velocity": 77, "duration": 507}, {"note": 67, "velocity": 77, "duration": 231}, {"note": 65, "velocity": 79, "duration": 256}, {"note": 63, "velocity": 78, "duration": 455}, {"note": 65, "velocity": 80, "duration": 431}, {"note": 63, "velocity": 75, "duration": 521}, {"note": 58, "velocity": 76, "duration": 401}, {"note": 0, "velocity": 0, "duration": 79}, {"note": 58, "velocity": 77, "duration": 196}, {"note": 60, "velocity": 73, "duration": 169}, {"note": 0, "velocity": 0, "duration": 71}, {"note": 62, "velocity": 77, "duration": 436}, {"note": 60, "velocity": 77, "duration": 1730}, {"note": 0, "velocity": 0, "duration": 190}, {"note": 65, "velocity": 83, "duration": 480}, {"note": 72, "velocity": 77, "duration": 330}, {"note": 0, "velocity": 0, "duration": 150}, {"note": 72, "velocity": 77, "duration": 441}, {"note": 70, "velocity": 79, "duration": 236}, {"note": 72, "velocity": 76, "duration": 261}, {"note": 70, "velocity": 81, "duration": 1440}, {"note": 65, "velocity": 77, "duration": 480}, {"note": 68, "velocity": 77, "duration": 1200}, {"note": 0, "velocity": 0, "duration": 240}, {"note": 65, "velocity": 77, "duration": 480}, {"note": 70, "velocity": 77, "duration": 1440}, {"note": 0, "velocity": 0, "duration": 480}, {"note": 63, "velocity": 77, "duration": 482}, {"note": 65, "velocity": 78, "duration": 493}, {"note": 63, "velocity": 77, "duration": 492}, {"note": 60, "velocity": 79, "duration": 555}, {"note": 70, "velocity": 85, "duration": 673}, {"note": 68, "velocity": 75, "duration": 257}, {"note": 70, "velocity": 82, "duration": 458}, {"note": 72, "velocity": 77, "duration": 483}, {"note": 63, "velocity": 80, "duration": 411}, {"note": 0, "velocity": 0, "duration": 69}, {"note": 60, "velocity": 80, "duration": 524}, {"note": 63, "velocity": 76, "duration": 224}, {"note": 65, "velocity": 81, "duration": 276}, {"note": 67, "velocity": 77, "duration": 522}, {"note": 65, "velocity": 80, "duration": 1902}, {"note": 65, "velocity": 85, "duration": 472}, {"note": 72, "velocity": 81, "duration": 403}, {"note": 0, "velocity": 0, "duration": 77}, {"note": 72, "velocity": 78, "duration": 477}, {"note": 70, "velocity": 80, "duration": 240}, {"note": 72, "velocity": 72, "duration": 284}, {"note": 70, "velocity": 78, "duration": 1440}, {"note": 65, "velocity": 83, "duration": 526}, {"note": 67, "velocity": 80, "duration": 809}, {"note": 65, "velocity": 80, "duration": 238}, {"note": 63, "velocity": 77, "duration": 462}, {"note": 60, "velocity": 76, "duration": 289}, {"note": 63, "velocity": 73, "duration": 285}, {"note": 65, "velocity": 77, "duration": 1757}, {"note": 0, "velocity": 0, "duration": 163}, {"note": 65, "velocity": 90, "duration": 421}, {"note": 70, "velocity": 80, "duration": 381}, {"note": 0, "velocity": 0, "duration": 99}, {"note": 70, "velocity": 78, "duration": 411}, {"note": 0, "velocity": 0, "duration": 69}, {"note": 65, "velocity": 78, "duration": 444}, {"note": 68, "velocity": 77, "duration": 507}, {"note": 67, "velocity": 77, "duration": 231}, {"note": 65, "velocity": 79, "duration": 256}, {"note": 63, "velocity": 78, "duration": 455}, {"note": 65, "velocity": 80, "duration": 431}, {"note": 63, "velocity": 75, "duration": 521}, {"note": 58, "velocity": 76, "duration": 401}, {"note": 0, "velocity": 0, "duration": 79}, {"note": 58, "velocity": 77, "duration": 196}, {"note": 60, "velocity": 73, "duration": 169}, {"note": 0, "velocity": 0, "duration": 71}, {"note": 62, "velocity": 77, "duration": 436}, {"note": 60, "velocity": 77, "duration": 1730}, {"note": 0, "velocity": 0, "duration": 190}, {"note": 65, "velocity": 83, "duration": 480}, {"note": 72, "velocity": 77, "duration": 330}, {"note": 0, "velocity": 0, "duration": 150}, {"note": 72, "velocity": 77, "duration": 441}, {"note": 70, "velocity": 79, "duration": 236}, {"note": 72, "velocity": 76, "duration": 261}, {"note": 70, "velocity": 81, "duration": 1440}, {"note": 65, "velocity": 77, "duration": 480}, {"note": 68, "velocity": 77, "duration": 1200}, {"note": 0, "velocity": 0, "duration": 240}, {"note": 65, "velocity": 77, "duration": 480}, {"note": 70, "velocity": 77, "duration": 1440}, {"note": 0, "velocity": 0, "duration": 480}, {"note": 63, "velocity": 77, "duration": 482}, {"note": 65, "velocity": 78, "duration": 493}, {"note": 63, "velocity": 77, "duration": 492}, {"note": 60, "velocity": 79, "duration": 555}, {"note": 70, "velocity": 85, "duration": 673}, {"note": 68, "velocity": 75, "duration": 257}, {"note": 70, "velocity": 82, "duration": 458}, {"note": 72, "velocity": 77, "duration": 483}, {"note": 63, "velocity": 80, "duration": 411}, {"note": 0, "velocity": 0, "duration": 69}, {"note": 60, "velocity": 80, "duration": 524}, {"note": 63, "velocity": 76, "duration": 224}, {"note": 65, "velocity": 81, "duration": 276}, {"note": 67, "velocity": 77, "duration": 522}, {"note": 65, "velocity": 80, "duration": 1902}, {"note": 63, "velocity": 77, "duration": 482}, {"note": 65, "velocity": 78, "duration": 493}, {"note": 63, "velocity": 77, "duration": 492}, {"note": 60, "velocity": 79, "duration": 555}, {"note": 70, "velocity": 85, "duration": 673}, {"note": 68, "velocity": 75, "duration": 257}, {"note": 70, "velocity": 82, "duration": 458}, {"note": 72, "velocity": 77, "duration": 483}, {"note": 63, "velocity": 80, "duration": 1440}, {"note": 0, "velocity": 0, "duration": 1978}, {"note": 63, "velocity": 77, "duration": 489}, {"note": 65, "velocity": 78, "duration": 639}, {"note": 67, "velocity": 78, "duration": 1180}, {"note": 65, "velocity": 85, "duration": 3933}]]