[[{"note": 64, "velocity": 79, "duration": 137}, {"note": 0, "velocity": 0, "duration": 103}, {"note": 64, "velocity": 74, "duration": 136}, {"note": 0, "velocity": 0, "duration": 104}, {"note": 64, "velocity": 72, "duration": 141}, {"note": 0, "velocity": 0, "duration": 99}, {"note": 64, "velocity": 73, "duration": 173}, {"note": 0, "velocity": 0, "duration": 67}, {"note": 62, "velocity": 71, "duration": 153}, {"note": 0, "velocity": 0, "duration": 87}, {"note": 62, "velocity": 71, "duration": 194}, {"note": 60, "velocity": 71, "duration": 204}, {"note": 62, "velocity": 72, "duration": 238}, {"note": 62, "velocity": 73, "duration": 169}, {"note": 0, "velocity": 0, "duration": 71}, {"note": 62, "velocity": 76, "duration": 198}, {"note": 60, "velocity": 77, "duration": 186}, {"note": 62, "velocity": 76, "duration": 238}, {"note": 57, "velocity": 72, "duration": 642}, {"note": 0, "velocity": 0, "duration": 318}, {"note": 60, "velocity": 71, "duration": 165}, {"note": 0, "velocity": 0, "duration": 75}, {"note": 60, "velocity": 74, "duration": 157}, {"note": 0, "velocity": 0, "duration": 83}, {"note": 60, "velocity": 74, "duration": 175}, {"note": 0, "velocity": 0, "duration": 65}, {"note": 60, "velocity": 77, "duration": 171}, {"note": 0, "velocity": 0, "duration": 69}, {"note": 57, "velocity": 71, "duration": 178}, {"note": 0, "velocity": 0, "duration": 62}, {"note": 57, "velocity": 70, "duration": 180}, {"note": 60, "velocity": 77, "duration": 173}, {"note": 0, "velocity": 0, "duration": 67}, {"note": 64, "velocity": 77, "duration": 181}, {"note": 62, "velocity": 71, "duration": 145}, {"note": 0, "velocity": 0, "duration": 95}, {"note": 62, "velocity": 72, "duration": 161}, {"note": 0, "velocity": 0, "duration": 79}, {"note": 60, "velocity": 77, "duration": 162}, {"note": 0, "velocity": 0, "duration": 78}, {"note": 57, "velocity": 74, "duration": 460}, {"note": 55, "velocity": 76, "duration": 449}, {"note": 0, "velocity": 0, "duration": 271}, {"note": 64, "velocity": 77, "duration": 151}, {"note": 0, "velocity": 0, "duration": 89}, {"note": 64, "velocity": 78, "duration": 179}, {"note": 0, "velocity": 0, "duration": 61}, {"note": 67, "velocity": 69, "duration": 145}, {"note": 0, "velocity": 0, "duration": 95}, {"note": 67, "velocity": 70, "duration": 190}, {"note": 64, "velocity": 78, "duration": 311}, {"note": 0, "velocity": 0, "duration": 169}, {"note": 60, "velocity": 77, "duration": 185}, {"note": 62, "velocity": 73, "duration": 384}, {"note": 0, "velocity": 0, "duration": 96}, {"note": 62, "velocity": 73, "duration": 149}, {"note": 0, "velocity": 0, "duration": 91}, {"note": 64, "velocity": 75, "duration": 173}, {"note": 0, "velocity": 0, "duration": 67}, {"note": 57, "velocity": 76, "duration": 201}, {"note": 62, "velocity": 72, "duration": 538}, {"note": 0, "velocity": 0, "duration": 422}, {"note": 60, "velocity": 76, "duration": 143}, {"note": 0, "velocity": 0, "duration": 97}, {"note": 60, "velocity": 74, "duration": 164}, {"note": 0, "velocity": 0, "duration": 76}, {"note": 60, "velocity": 72, "duration": 165}, {"note": 0, "velocity": 0, "duration": 75}, {"note": 60, "velocity": 78, "duration": 194}, {"note": 57, "velocity": 69, "duration": 157}, {"note": 0, "velocity": 0, "duration": 83}, {"note": 57, "velocity": 71, "duration": 217}, {"note": 60, "velocity": 76, "duration": 177}, {"note": 0, "velocity": 0, "duration": 63}, {"note": 64, "velocity": 68, "duration": 415}, {"note": 0, "velocity": 0, "duration": 65}, {"note": 62, "velocity": 72, "duration": 149}, {"note": 0, "velocity": 0, "duration": 91}, {"note": 62, "velocity": 72, "duration": 761}, {"note": 0, "velocity": 0, "duration": 199}, {"note": 57, "velocity": 74, "duration": 202}, {"note": 64, "velocity": 75, "duration": 238}, {"note": 60, "velocity": 73, "duration": 256}, {"note": 62, "velocity": 70, "duration": 1411}, {"note": 0, "velocity": 0, "duration": 2189}, {"note": 64, "velocity": 79, "duration": 137}, {"note": 0, "velocity": 0, "duration": 103}, {"note": 64, "velocity": 74, "duration": 136}, {"note": 0, "velocity": 0, "duration": 104}, {"note": 64, "velocity": 72, "duration": 141}, {"note": 0, "velocity": 0, "duration": 99}, {"note": 64, "velocity": 73, "duration": 173}, {"note": 0, "velocity": 0, "duration": 67}, {"note": 62, "velocity": 71, "duration": 153}, {"note": 0, "velocity": 0, "duration": 87}, {"note": 62, "velocity": 71, "duration": 194}, {"note": 60, "velocity": 71, "duration": 204}, {"note": 62, "velocity": 72, "duration": 238}, {"note": 62, "velocity": 73, "duration": 169}, {"note": 0, "velocity": 0, "duration": 71}, {"note": 62, "velocity": 76, "duration": 198}, {"note": 60, "velocity": 77, "duration": 186}, {"note": 62, "velocity": 76, "duration": 238}, {"note": 57, "velocity": 72, "duration": 642}, {"note": 0, "velocity": 0, "duration": 318}, {"note": 60, "velocity": 71, "duration": 165}, {"note": 0, "velocity": 0, "duration": 75}, {"note": 60, "velocity": 74, "duration": 157}, {"note": 0, "velocity": 0, "duration": 83}, {"note": 60, "velocity": 74, "duration": 175}, {"note": 0, "velocity": 0, "duration": 65}, {"note": 60, "velocity": 77, "duration": 171}, {"note": 0, "velocity": 0, "duration": 69}, {"note": 57, "velocity": 71, "duration": 178}, {"note": 0, "velocity": 0, "duration": 62}, {"note": 57, "velocity": 70, "duration": 180}, {"note": 60, "velocity": 77, "duration": 173}, {"note": 0, "velocity": 0, "duration": 67}, {"note": 64, "velocity": 77, "duration": 478}, {"note": 62, "velocity": 71, "duration": 145}, {"note": 0, "velocity": 0, "duration": 95}, {"note": 60, "velocity": 77, "duration": 162}, {"note": 0, "velocity": 0, "duration": 78}, {"note": 57, "velocity": 74, "duration": 238}, {"note": 55, "velocity": 76, "duration": 718}, {"note": 0, "velocity": 0, "duration": 242}, {"note": 64, "velocity": 77, "duration": 151}, {"note": 0, "velocity": 0, "duration": 89}, {"note": 64, "velocity": 78, "duration": 179}, {"note": 0, "velocity": 0, "duration": 61}, {"note": 67, "velocity": 69, "duration": 145}, {"note": 0, "velocity": 0, "duration": 95}, {"note": 67, "velocity": 70, "duration": 190}, {"note": 64, "velocity": 78, "duration": 238}, {"note": 62, "velocity": 77, "duration": 238}, {"note": 60, "velocity": 77, "duration": 185}, {"note": 62, "velocity": 73, "duration": 238}, {"note": 62, "velocity": 73, "duration": 238}, {"note": 62, "velocity": 73, "duration": 149}, {"note": 0, "velocity": 0, "duration": 91}, {"note": 64, "velocity": 75, "duration": 173}, {"note": 0, "velocity": 0, "duration": 67}, {"note": 57, "velocity": 76, "duration": 201}, {"note": 62, "velocity": 72, "duration": 538}, {"note": 0, "velocity": 0, "duration": 422}, {"note": 60, "velocity": 76, "duration": 143}, {"note": 0, "velocity": 0, "duration": 97}, {"note": 60, "velocity": 74, "duration": 164}, {"note": 0, "velocity": 0, "duration": 76}, {"note": 60, "velocity": 72, "duration": 165}, {"note": 0, "velocity": 0, "duration": 75}, {"note": 60, "velocity": 78, "duration": 194}, {"note": 57, "velocity": 69, "duration": 157}, {"note": 0, "velocity": 0, "duration": 83}, {"note": 57, "velocity": 71, "duration": 217}, {"note": 60, "velocity": 76, "duration": 177}, {"note": 0, "velocity": 0, "duration": 63}, {"note": 64, "velocity": 68, "duration": 415}, {"note": 0, "velocity": 0, "duration": 65}, {"note": 62, "velocity": 72, "duration": 149}, {"note": 0, "velocity": 0, "duration": 91}, {"note": 62, "velocity": 72, "duration": 478}, {"note": 60, "velocity": 77, "duration": 238}, {"note": 57, "velocity": 74, "duration": 202}, {"note": 60, "velocity": 75, "duration": 1678}, {"note": 0, "velocity": 0, "duration": 2882}, {"note": 65, "velocity": 78, "duration": 212}, {"note": 64, "velocity": 80, "duration": 145}, {"note": 0, "velocity": 0, "duration": 95}, {"note": 65, "velocity": 81, "duration": 190}, {"note": 64, "velocity": 80, "duration": 200}, {"note": 60, "velocity": 77, "duration": 228}, {"note": 64, "velocity": 77, "duration": 481}, {"note": 60, "velocity": 78, "duration": 920}, {"note": 60, "velocity": 76, "duration": 169}, {"note": 0, "velocity": 0, "duration": 71}, {"note": 60, "velocity": 75, "duration": 185}, {"note": 57, "velocity": 75, "duration": 173}, {"note": 0, "velocity": 0, "duration": 67}, {"note": 60, "velocity": 77, "duration": 156}, {"note": 0, "velocity": 0, "duration": 84}, {"note": 60, "velocity": 72, "duration": 148}, {"note": 0, "velocity": 0, "duration": 92}, {"note": 60, "velocity": 74, "duration": 186}, {"note": 57, "velocity": 72, "duration": 221}, {"note": 60, "velocity": 77, "duration": 470}, {"note": 57, "velocity": 71, "duration": 264}, {"note": 64, "velocity": 68, "duration": 501}, {"note": 62, "velocity": 76, "duration": 1554}, {"note": 0, "velocity": 0, "duration": 606}, {"note": 65, "velocity": 78, "duration": 159}, {"note": 0, "velocity": 0, "duration": 81}, {"note": 64, "velocity": 80, "duration": 144}, {"note": 0, "velocity": 0, "duration": 96}, {"note": 65, "velocity": 78, "duration": 173}, {"note": 0, "velocity": 0, "duration": 67}, {"note": 64, "velocity": 77, "duration": 173}, {"note": 0, "velocity": 0, "duration": 67}, {"note": 60, "velocity": 78, "duration": 238}, {"note": 64, "velocity": 78, "duration": 465}, {"note": 60, "velocity": 76, "duration": 555}, {"note": 0, "velocity": 0, "duration": 645}, {"note": 60, "velocity": 77, "duration": 195}, {"note": 57, "velocity": 77, "duration": 186}, {"note": 67, "velocity": 75, "duration": 122}, {"note": 0, "velocity": 0, "duration": 118}, {"note": 67, "velocity": 78, "duration": 111}, {"note": 0, "velocity": 0, "duration": 129}, {"note": 67, "velocity": 76, "duration": 145}, {"note": 0, "velocity": 0, "duration": 95}, {"note": 67, "velocity": 74, "duration": 139}, {"note": 0, "velocity": 0, "duration": 101}, {"note": 67, "velocity": 76, "duration": 137}, {"note": 0, "velocity": 0, "duration": 103}, {"note": 64, "velocity": 77, "duration": 386}, {"note": 0, "velocity": 0, "duration": 94}, {"note": 65, "velocity": 70, "duration": 193}, {"note": 69, "velocity": 76, "duration": 672}, {"note": 67, "velocity": 77, "duration": 1681}, {"note": 0, "velocity": 0, "duration": 479}, {"note": 72, "velocity": 80, "duration": 869}, {"note": 0, "velocity": 0, "duration": 91}, {"note": 71, "velocity": 80, "duration": 478}, {"note": 69, "velocity": 79, "duration": 191}, {"note": 67, "velocity": 72, "duration": 126}, {"note": 0, "velocity": 0, "duration": 114}, {"note": 67, "velocity": 72, "duration": 185}, {"note": 64, "velocity": 81, "duration": 198}, {"note": 67, "velocity": 77, "duration": 421}, {"note": 69, "velocity": 76, "duration": 180}, {"note": 67, "velocity": 77, "duration": 936}, {"note": 0, "velocity": 0, "duration": 744}, {"note": 64, "velocity": 78, "duration": 141}, {"note": 0, "velocity": 0, "duration": 99}, {"note": 67, "velocity": 69, "duration": 177}, {"note": 0, "velocity": 0, "duration": 63}, {"note": 69, "velocity": 71, "duration": 163}, {"note": 0, "velocity": 0, "duration": 77}, {"note": 69, "velocity": 77, "duration": 437}, {"note": 72, "velocity": 76, "duration": 152}, {"note": 0, "velocity": 0, "duration": 88}, {"note": 69, "velocity": 77, "duration": 238}, {"note": 67, "velocity": 72, "duration": 478}, {"note": 64, "velocity": 77, "duration": 478}, {"note": 62, "velocity": 77, "duration": 708}, {"note": 0, "velocity": 0, "duration": 492}, {"note": 64, "velocity": 78, "duration": 199}, {"note": 62, "velocity": 76, "duration": 201}, {"note": 60, "velocity": 76, "duration": 215}, {"note": 62, "velocity": 73, "duration": 161}, {"note": 0, "velocity": 0, "duration": 79}, {"note": 64, "velocity": 77, "duration": 190}, {"note": 69, "velocity": 78, "duration": 547}, {"note": 0, "velocity": 0, "duration": 173}, {"note": 64, "velocity": 76, "duration": 159}, {"note": 0, "velocity": 0, "duration": 81}, {"note": 62, "velocity": 76, "duration": 190}, {"note": 60, "velocity": 71, "duration": 192}, {"note": 62, "velocity": 75, "duration": 220}, {"note": 64, "velocity": 77, "duration": 181}, {"note": 71, "velocity": 77, "duration": 613}, {"note": 0, "velocity": 0, "duration": 107}, {"note": 69, "velocity": 78, "duration": 177}, {"note": 0, "velocity": 0, "duration": 63}, {"note": 71, "velocity": 77, "duration": 147}, {"note": 0, "velocity": 0, "duration": 93}, {"note": 72, "velocity": 79, "duration": 277}, {"note": 0, "velocity": 0, "duration": 83}, {"note": 72, "velocity": 79, "duration": 308}, {"note": 69, "velocity": 77, "duration": 209}, {"note": 72, "velocity": 78, "duration": 269}, {"note": 0, "velocity": 0, "duration": 91}, {"note": 72, "velocity": 78, "duration": 349}, {"note": 69, "velocity": 76, "duration": 173}, {"note": 0, "velocity": 0, "duration": 67}, {"note": 69, "velocity": 74, "duration": 204}, {"note": 67, "velocity": 75, "duration": 993}, {"note": 0, "velocity": 0, "duration": 207}, {"note": 72, "velocity": 78, "duration": 190}, {"note": 71, "velocity": 77, "duration": 228}, {"note": 69, "velocity": 77, "duration": 215}, {"note": 67, "velocity": 71, "duration": 137}, {"note": 0, "velocity": 0, "duration": 103}, {"note": 67, "velocity": 70, "duration": 170}, {"note": 0, "velocity": 0, "duration": 70}, {"note": 64, "velocity": 79, "duration": 183}, {"note": 67, "velocity": 77, "duration": 498}, {"note": 64, "velocity": 80, "duration": 232}, {"note": 69, "velocity": 78, "duration": 476}, {"note": 67, "velocity": 70, "duration": 851}, {"note": 0, "velocity": 0, "duration": 349}, {"note": 64, "velocity": 81, "duration": 144}, {"note": 0, "velocity": 0, "duration": 96}, {"note": 67, "velocity": 76, "duration": 182}, {"note": 69, "velocity": 77, "duration": 293}, {"note": 0, "velocity": 0, "duration": 67}, {"note": 69, "velocity": 77, "duration": 295}, {"note": 0, "velocity": 0, "duration": 65}, {"note": 72, "velocity": 77, "duration": 211}, {"note": 69, "velocity": 77, "duration": 426}, {"note": 67, "velocity": 77, "duration": 191}, {"note": 64, "velocity": 78, "duration": 495}, {"note": 62, "velocity": 72, "duration": 1043}, {"note": 0, "velocity": 0, "duration": 157}, {"note": 64, "velocity": 77, "duration": 182}, {"note": 62, "velocity": 76, "duration": 245}, {"note": 60, "velocity": 77, "duration": 271}, {"note": 62, "velocity": 78, "duration": 232}, {"note": 64, "velocity": 78, "duration": 278}, {"note": 69, "velocity": 75, "duration": 605}, {"note": 0, "velocity": 0, "duration": 115}, {"note": 64, "velocity": 78, "duration": 193}, {"note": 62, "velocity": 76, "duration": 243}, {"note": 60, "velocity": 76, "duration": 260}, {"note": 62, "velocity": 77, "duration": 240}, {"note": 64, "velocity": 78, "duration": 248}, {"note": 71, "velocity": 77, "duration": 550}, {"note": 0, "velocity": 0, "duration": 170}, {"note": 69, "velocity": 80, "duration": 120}, {"note": 0, "velocity": 0, "duration": 120}, {"note": 71, "velocity": 78, "duration": 165}, {"note": 0, "velocity": 0, "duration": 75}, {"note": 72, "velocity": 77, "duration": 148}, {"note": 0, "velocity": 0, "duration": 92}, {"note": 72, "velocity": 76, "duration": 156}, {"note": 0, "velocity": 0, "duration": 84}, {"note": 72, "velocity": 77, "duration": 194}, {"note": 69, "velocity": 77, "duration": 266}, {"note": 74, "velocity": 81, "duration": 513}, {"note": 72, "velocity": 70, "duration": 1352}, {"note": 0, "velocity": 0, "duration": 88}, {"note": 69, "velocity": 82, "duration": 315}, {"note": 76, "velocity": 78, "duration": 683}, {"note": 69, "velocity": 73, "duration": 292}, {"note": 72, "velocity": 77, "duration": 1952}, {"note": 0, "velocity": 0, "duration": 32608}, {"note": 64, "velocity": 79, "duration": 137}, {"note": 0, "velocity": 0, "duration": 103}, {"note": 64, "velocity": 74, "duration": 136}, {"note": 0, "velocity": 0, "duration": 104}, {"note": 64, "velocity": 72, "duration": 141}, {"note": 0, "velocity": 0, "duration": 99}, {"note": 64, "velocity": 73, "duration": 173}, {"note": 0, "velocity": 0, "duration": 67}, {"note": 62, "velocity": 71, "duration": 153}, {"note": 0, "velocity": 0, "duration": 87}, {"note": 62, "velocity": 71, "duration": 194}, {"note": 60, "velocity": 71, "duration": 204}, {"note": 62, "velocity": 72, "duration": 238}, {"note": 62, "velocity": 73, "duration": 169}, {"note": 0, "velocity": 0, "duration": 71}, {"note": 62, "velocity": 76, "duration": 198}, {"note": 60, "velocity": 77, "duration": 186}, {"note": 62, "velocity": 76, "duration": 238}, {"note": 57, "velocity": 72, "duration": 642}, {"note": 0, "velocity": 0, "duration": 318}, {"note": 60, "velocity": 71, "duration": 165}, {"note": 0, "velocity": 0, "duration": 75}, {"note": 60, "velocity": 74, "duration": 157}, {"note": 0, "velocity": 0, "duration": 83}, {"note": 60, "velocity": 74, "duration": 175}, {"note": 0, "velocity": 0, "duration": 65}, {"note": 60, "velocity": 77, "duration": 171}, {"note": 0, "velocity": 0, "duration": 69}, {"note": 57, "velocity": 71, "duration": 178}, {"note": 0, "velocity": 0, "duration": 62}, {"note": 57, "velocity": 70, "duration": 180}, {"note": 60, "velocity": 77, "duration": 173}, {"note": 0, "velocity": 0, "duration": 67}, {"note": 64, "velocity": 77, "duration": 478}, {"note": 62, "velocity": 71, "duration": 145}, {"note": 0, "velocity": 0, "duration": 95}, {"note": 60, "velocity": 77, "duration": 162}, {"note": 0, "velocity": 0, "duration": 78}, {"note": 57, "velocity": 74, "duration": 238}, {"note": 55, "velocity": 76, "duration": 718}, {"note": 0, "velocity": 0, "duration": 242}, {"note": 64, "velocity": 77, "duration": 151}, {"note": 0, "velocity": 0, "duration": 89}, {"note": 64, "velocity": 78, "duration": 179}, {"note": 0, "velocity": 0, "duration": 61}, {"note": 67, "velocity": 69, "duration": 145}, {"note": 0, "velocity": 0, "duration": 95}, {"note": 67, "velocity": 70, "duration": 190}, {"note": 64, "velocity": 78, "duration": 238}, {"note": 62, "velocity": 77, "duration": 238}, {"note": 60, "velocity": 77, "duration": 185}, {"note": 62, "velocity": 73, "duration": 238}, {"note": 62, "velocity": 73, "duration": 238}, {"note": 62, "velocity": 73, "duration": 149}, {"note": 0, "velocity": 0, "duration": 91}, {"note": 64, "velocity": 75, "duration": 173}, {"note": 0, "velocity": 0, "duration": 67}, {"note": 57, "velocity": 76, "duration": 201}, {"note": 62, "velocity": 72, "duration": 538}, {"note": 0, "velocity": 0, "duration": 422}, {"note": 60, "velocity": 76, "duration": 143}, {"note": 0, "velocity": 0, "duration": 97}, {"note": 60, "velocity": 74, "duration": 164}, {"note": 0, "velocity": 0, "duration": 76}, {"note": 60, "velocity": 72, "duration": 165}, {"note": 0, "velocity": 0, "duration": 75}, {"note": 60, "velocity": 78, "duration": 194}, {"note": 57, "velocity": 69, "duration": 157}, {"note": 0, "velocity": 0, "duration": 83}, {"note": 57, "velocity": 71, "duration": 217}, {"note": 60, "velocity": 76, "duration": 177}, {"note": 0, "velocity": 0, "duration": 63}, {"note": 64, "velocity": 68, "duration": 415}, {"note": 0, "velocity": 0, "duration": 65}, {"note": 62, "velocity": 72, "duration": 149}, {"note": 0, "velocity": 0, "duration": 91}, {"note": 62, "velocity": 72, "duration": 478}, {"note": 60, "velocity": 77, "duration": 238}, {"note": 57, "velocity": 74, "duration": 202}, {"note": 60, "velocity": 75, "duration": 1678}, {"note": 0, "velocity": 0, "duration": 2882}, {"note": 65, "velocity": 78, "duration": 212}, {"note": 64, "velocity": 80, "duration": 145}, {"note": 0, "velocity": 0, "duration": 95}, {"note": 65, "velocity": 81, "duration": 190}, {"note": 64, "velocity": 80, "duration": 200}, {"note": 60, "velocity": 77, "duration": 228}, {"note": 64, "velocity": 77, "duration": 481}, {"note": 60, "velocity": 78, "duration": 920}, {"note": 60, "velocity": 76, "duration": 169}, {"note": 0, "velocity": 0, "duration": 71}, {"note": 60, "velocity": 75, "duration": 185}, {"note": 57, "velocity": 75, "duration": 173}, {"note": 0, "velocity": 0, "duration": 67}, {"note": 60, "velocity": 77, "duration": 156}, {"note": 0, "velocity": 0, "duration": 84}, {"note": 60, "velocity": 72, "duration": 148}, {"note": 0, "velocity": 0, "duration": 92}, {"note": 60, "velocity": 74, "duration": 186}, {"note": 57, "velocity": 72, "duration": 221}, {"note": 60, "velocity": 77, "duration": 470}, {"note": 57, "velocity": 71, "duration": 264}, {"note": 64, "velocity": 68, "duration": 501}, {"note": 62, "velocity": 76, "duration": 1554}, {"note": 0, "velocity": 0, "duration": 606}, {"note": 65, "velocity": 78, "duration": 159}, {"note": 0, "velocity": 0, "duration": 81}, {"note": 64, "velocity": 80, "duration": 144}, {"note": 0, "velocity": 0, "duration": 96}, {"note": 65, "velocity": 78, "duration": 173}, {"note": 0, "velocity": 0, "duration": 67}, {"note": 64, "velocity": 77, "duration": 173}, {"note": 0, "velocity": 0, "duration": 67}, {"note": 60, "velocity": 78, "duration": 238}, {"note": 64, "velocity": 78, "duration": 465}, {"note": 60, "velocity": 76, "duration": 555}, {"note": 0, "velocity": 0, "duration": 645}, {"note": 60, "velocity": 77, "duration": 195}, {"note": 57, "velocity": 77, "duration": 186}, {"note": 67, "velocity": 75, "duration": 122}, {"note": 0, "velocity": 0, "duration": 118}, {"note": 67, "velocity": 78, "duration": 111}, {"note": 0, "velocity": 0, "duration": 129}, {"note": 67, "velocity": 76, "duration": 145}, {"note": 0, "velocity": 0, "duration": 95}, {"note": 67, "velocity": 74, "duration": 139}, {"note": 0, "velocity": 0, "duration": 101}, {"note": 67, "velocity": 76, "duration": 137}, {"note": 0, "velocity": 0, "duration": 103}, {"note": 64, "velocity": 77, "duration": 386}, {"note": 0, "velocity": 0, "duration": 94}, {"note": 65, "velocity": 70, "duration": 193}, {"note": 69, "velocity": 76, "duration": 672}, {"note": 67, "velocity": 77, "duration": 1681}, {"note": 0, "velocity": 0, "duration": 959}, {"note": 72, "velocity": 80, "duration": 238}, {"note": 71, "velocity": 80, "duration": 238}, {"note": 69, "velocity": 79, "duration": 191}, {"note": 67, "velocity": 72, "duration": 126}, {"note": 0, "velocity": 0, "duration": 114}, {"note": 67, "velocity": 72, "duration": 185}, {"note": 64, "velocity": 81, "duration": 198}, {"note": 67, "velocity": 77, "duration": 421}, {"note": 69, "velocity": 76, "duration": 180}, {"note": 67, "velocity": 77, "duration": 936}, {"note": 0, "velocity": 0, "duration": 744}, {"note": 64, "velocity": 78, "duration": 141}, {"note": 0, "velocity": 0, "duration": 99}, {"note": 67, "velocity": 69, "duration": 177}, {"note": 0, "velocity": 0, "duration": 63}, {"note": 69, "velocity": 71, "duration": 163}, {"note": 0, "velocity": 0, "duration": 77}, {"note": 69, "velocity": 77, "duration": 437}, {"note": 72, "velocity": 76, "duration": 152}, {"note": 0, "velocity": 0, "duration": 88}, {"note": 69, "velocity": 77, "duration": 238}, {"note": 67, "velocity": 72, "duration": 478}, {"note": 64, "velocity": 77, "duration": 478}, {"note": 62, "velocity": 77, "duration": 708}, {"note": 0, "velocity": 0, "duration": 492}, {"note": 64, "velocity": 78, "duration": 199}, {"note": 62, "velocity": 76, "duration": 201}, {"note": 60, "velocity": 76, "duration": 215}, {"note": 62, "velocity": 73, "duration": 161}, {"note": 0, "velocity": 0, "duration": 79}, {"note": 64, "velocity": 77, "duration": 190}, {"note": 69, "velocity": 78, "duration": 547}, {"note": 0, "velocity": 0, "duration": 173}, {"note": 64, "velocity": 76, "duration": 159}, {"note": 0, "velocity": 0, "duration": 81}, {"note": 62, "velocity": 76, "duration": 190}, {"note": 60, "velocity": 71, "duration": 192}, {"note": 62, "velocity": 75, "duration": 220}, {"note": 64, "velocity": 77, "duration": 181}, {"note": 71, "velocity": 77, "duration": 613}, {"note": 0, "velocity": 0, "duration": 107}, {"note": 69, "velocity": 78, "duration": 177}, {"note": 0, "velocity": 0, "duration": 63}, {"note": 71, "velocity": 77, "duration": 147}, {"note": 0, "velocity": 0, "duration": 93}, {"note": 72, "velocity": 79, "duration": 277}, {"note": 0, "velocity": 0, "duration": 83}, {"note": 72, "velocity": 79, "duration": 308}, {"note": 69, "velocity": 77, "duration": 209}, {"note": 72, "velocity": 78, "duration": 269}, {"note": 0, "velocity": 0, "duration": 91}, {"note": 72, "velocity": 78, "duration": 349}, {"note": 69, "velocity": 76, "duration": 173}, {"note": 0, "velocity": 0, "duration": 67}, {"note": 69, "velocity": 74, "duration": 204}, {"note": 67, "velocity": 75, "duration": 993}, {"note": 0, "velocity": 0, "duration": 207}, {"note": 72, "velocity": 78, "duration": 190}, {"note": 71, "velocity": 77, "duration": 228}, {"note": 69, "velocity": 77, "duration": 215}, {"note": 67, "velocity": 71, "duration": 137}, {"note": 0, "velocity": 0, "duration": 103}, {"note": 67, "velocity": 70, "duration": 170}, {"note": 0, "velocity": 0, "duration": 70}, {"note": 64, "velocity": 79, "duration": 183}, {"note": 67, "velocity": 77, "duration": 498}, {"note": 64, "velocity": 80, "duration": 232}, {"note": 69, "velocity": 78, "duration": 476}, {"note": 67, "velocity": 70, "duration": 851}, {"note": 0, "velocity": 0, "duration": 349}, {"note": 64, "velocity": 81, "duration": 144}, {"note": 0, "velocity": 0, "duration": 96}, {"note": 67, "velocity": 76, "duration": 182}, {"note": 69, "velocity": 77, "duration": 293}, {"note": 0, "velocity": 0, "duration": 67}, {"note": 69, "velocity": 77, "duration": 295}, {"note": 0, "velocity": 0, "duration": 65}, {"note": 72, "velocity": 77, "duration": 211}, {"note": 69, "velocity": 77, "duration": 426}, {"note": 67, "velocity": 77, "duration": 191}, {"note": 64, "velocity": 78, "duration": 495}, {"note": 62, "velocity": 72, "duration": 1043}, {"note": 0, "velocity": 0, "duration": 157}, {"note": 64, "velocity": 77, "duration": 182}, {"note": 62, "velocity": 76, "duration": 245}, {"note": 60, "velocity": 77, "duration": 271}, {"note": 62, "velocity": 78, "duration": 232}, {"note": 64, "velocity": 78, "duration": 278}, {"note": 69, "velocity": 75, "duration": 605}, {"note": 0, "velocity": 0, "duration": 115}, {"note": 64, "velocity": 78, "duration": 193}, {"note": 62, "velocity": 76, "duration": 243}, {"note": 60, "velocity": 76, "duration": 260}, {"note": 62, "velocity": 77, "duration": 240}, {"note": 64, "velocity": 78, "duration": 248}, {"note": 71, "velocity": 77, "duration": 550}, {"note": 0, "velocity": 0, "duration": 170}, {"note": 69, "velocity": 80, "duration": 120}, {"note": 0, "velocity": 0, "duration": 120}, {"note": 71, "velocity": 78, "duration": 165}, {"note": 0, "velocity": 0, "duration": 75}, {"note": 72, "velocity": 77, "duration": 148}, {"note": 0, "velocity": 0, "duration": 92}, {"note": 72, "velocity": 76, "duration": 156}, {"note": 0, "velocity": 0, "duration": 84}, {"note": 72, "velocity": 77, "duration": 194}, {"note": 69, "velocity": 77, "duration": 266}, {"note": 74, "velocity": 81, "duration": 513}, {"note": 72, "velocity": 70, "duration": 1352}, {"note": 0, "velocity": 0, "duration": 553}, {"note": 69, "velocity": 78, "duration": 363}, {"note": 76, "velocity": 82, "duration": 705}, {"note": 69, "velocity": 78, "duration": 354}, {"note": 72, "velocity": 76, "duration": 3368}, {"note": 0, "velocity": 0, "duration": 4062}, {"note": 69, "velocity": 76, "duration": 232}, {"note": 0, "velocity": 0, "duration": 77}, {"note": 71, "velocity": 80, "duration": 236}, {"note": 72, "velocity": 76, "duration": 211}, {"note": 0, "velocity": 0, "duration": 65}, {"note": 72, "velocity": 76, "duration": 226}, {"note": 0, "velocity": 0, "duration": 85}, {"note": 72, "velocity": 77, "duration": 244}, {"note": 69, "velocity": 77, "duration": 335}, {"note": 74, "velocity": 79, "duration": 668}, {"note": 72, "velocity": 76, "duration": 2070}, {"note": 69, "velocity": 76, "duration": 452}, {"note": 76, "velocity": 77, "duration": 977}, {"note": 69, "velocity": 76, "duration": 862}, {"note": 72, "velocity": 76, "duration": 3202}]]