[[{"note": 68, "velocity": 116, "duration": 438}, {"note": 70, "velocity": 116, "duration": 558}, {"note": 72, "velocity": 116, "duration": 198}, {"note": 72, "velocity": 108, "duration": 120}, {"note": 72, "velocity": 108, "duration": 120}, {"note": 72, "velocity": 110, "duration": 198}, {"note": 70, "velocity": 108, "duration": 217}, {"note": 72, "velocity": 110, "duration": 206}, {"note": 75, "velocity": 110, "duration": 180}, {"note": 72, "velocity": 108, "duration": 227}, {"note": 0, "velocity": 0, "duration": 133}, {"note": 72, "velocity": 108, "duration": 182}, {"note": 75, "velocity": 94, "duration": 156}, {"note": 77, "velocity": 107, "duration": 204}, {"note": 77, "velocity": 108, "duration": 195}, {"note": 77, "velocity": 108, "duration": 200}, {"note": 79, "velocity": 107, "duration": 179}, {"note": 0, "velocity": 0, "duration": 61}, {"note": 75, "velocity": 91, "duration": 298}, {"note": 72, "velocity": 102, "duration": 269}, {"note": 0, "velocity": 0, "duration": 211}, {"note": 72, "velocity": 107, "duration": 188}, {"note": 70, "velocity": 91, "duration": 186}, {"note": 68, "velocity": 94, "duration": 258}, {"note": 68, "velocity": 89, "duration": 18}, {"note": 0, "velocity": 0, "duration": 102}, {"note": 68, "velocity": 88, "duration": 63}, {"note": 68, "velocity": 94, "duration": 133}, {"note": 0, "velocity": 0, "duration": 107}, {"note": 65, "velocity": 96, "duration": 270}, {"note": 72, "velocity": 104, "duration": 328}, {"note": 75, "velocity": 94, "duration": 253}, {"note": 68, "velocity": 91, "duration": 318}, {"note": 0, "velocity": 0, "duration": 282}, {"note": 70, "velocity": 100, "duration": 99}, {"note": 70, "velocity": 93, "duration": 159}, {"note": 0, "velocity": 0, "duration": 81}, {"note": 70, "velocity": 98, "duration": 74}, {"note": 70, "velocity": 100, "duration": 162}, {"note": 0, "velocity": 0, "duration": 78}, {"note": 68, "velocity": 100, "duration": 272}, {"note": 72, "velocity": 107, "duration": 264}, {"note": 70, "velocity": 113, "duration": 295}, {"note": 0, "velocity": 0, "duration": 185}, {"note": 68, "velocity": 116, "duration": 318}, {"note": 70, "velocity": 116, "duration": 258}, {"note": 72, "velocity": 116, "duration": 268}, {"note": 72, "velocity": 108, "duration": 28}, {"note": 0, "velocity": 0, "duration": 452}, {"note": 70, "velocity": 108, "duration": 308}, {"note": 72, "velocity": 110, "duration": 297}, {"note": 75, "velocity": 110, "duration": 271}, {"note": 72, "velocity": 108, "duration": 318}, {"note": 72, "velocity": 108, "duration": 273}, {"note": 75, "velocity": 94, "duration": 247}, {"note": 77, "velocity": 107, "duration": 295}, {"note": 77, "velocity": 108, "duration": 55}, {"note": 0, "velocity": 0, "duration": 185}, {"note": 77, "velocity": 108, "duration": 46}, {"note": 0, "velocity": 0, "duration": 194}, {"note": 79, "velocity": 107, "duration": 228}, {"note": 75, "velocity": 91, "duration": 347}, {"note": 72, "velocity": 102, "duration": 318}, {"note": 75, "velocity": 93, "duration": 60}, {"note": 75, "velocity": 89, "duration": 56}, {"note": 0, "velocity": 0, "duration": 64}, {"note": 75, "velocity": 92, "duration": 284}, {"note": 77, "velocity": 96, "duration": 343}, {"note": 80, "velocity": 102, "duration": 350}, {"note": 80, "velocity": 107, "duration": 110}, {"note": 0, "velocity": 0, "duration": 130}, {"note": 77, "velocity": 104, "duration": 367}, {"note": 73, "velocity": 104, "duration": 198}, {"note": 70, "velocity": 107, "duration": 558}, {"note": 75, "velocity": 98, "duration": 64}, {"note": 75, "velocity": 102, "duration": 234}, {"note": 77, "velocity": 107, "duration": 304}, {"note": 80, "velocity": 107, "duration": 288}, {"note": 80, "velocity": 110, "duration": 48}, {"note": 0, "velocity": 0, "duration": 192}, {"note": 77, "velocity": 98, "duration": 318}, {"note": 80, "velocity": 108, "duration": 290}, {"note": 82, "velocity": 113, "duration": 1038}, {"note": 0, "velocity": 0, "duration": 282}, {"note": 75, "velocity": 93, "duration": 74}, {"note": 75, "velocity": 92, "duration": 57}, {"note": 0, "velocity": 0, "duration": 63}, {"note": 75, "velocity": 102, "duration": 74}, {"note": 84, "velocity": 116, "duration": 249}, {"note": 84, "velocity": 114, "duration": 9}, {"note": 0, "velocity": 0, "duration": 231}, {"note": 84, "velocity": 114, "duration": 8}, {"note": 0, "velocity": 0, "duration": 232}, {"note": 84, "velocity": 114, "duration": 19}, {"note": 0, "velocity": 0, "duration": 221}, {"note": 84, "velocity": 114, "duration": 258}, {"note": 82, "velocity": 104, "duration": 70}, {"note": 82, "velocity": 108, "duration": 318}, {"note": 80, "velocity": 107, "duration": 125}, {"note": 79, "velocity": 97, "duration": 135}, {"note": 80, "velocity": 100, "duration": 132}, {"note": 0, "velocity": 0, "duration": 108}, {"note": 80, "velocity": 100, "duration": 47}, {"note": 0, "velocity": 0, "duration": 73}, {"note": 80, "velocity": 92, "duration": 48}, {"note": 0, "velocity": 0, "duration": 72}, {"note": 80, "velocity": 100, "duration": 72}, {"note": 82, "velocity": 108, "duration": 400}, {"note": 72, "velocity": 113, "duration": 438}, {"note": 75, "velocity": 110, "duration": 450}, {"note": 75, "velocity": 98, "duration": 64}, {"note": 75, "velocity": 93, "duration": 66}, {"note": 77, "velocity": 96, "duration": 95}, {"note": 80, "velocity": 102, "duration": 198}, {"note": 80, "velocity": 100, "duration": 88}, {"note": 80, "velocity": 100, "duration": 148}, {"note": 0, "velocity": 0, "duration": 92}, {"note": 80, "velocity": 100, "duration": 131}, {"note": 0, "velocity": 0, "duration": 109}, {"note": 82, "velocity": 108, "duration": 318}, {"note": 77, "velocity": 102, "duration": 198}, {"note": 80, "velocity": 107, "duration": 364}, {"note": 80, "velocity": 93, "duration": 4}, {"note": 0, "velocity": 0, "duration": 116}, {"note": 80, "velocity": 100, "duration": 73}, {"note": 82, "velocity": 100, "duration": 129}, {"note": 0, "velocity": 0, "duration": 111}, {"note": 82, "velocity": 92, "duration": 62}, {"note": 82, "velocity": 91, "duration": 120}, {"note": 82, "velocity": 107, "duration": 327}, {"note": 80, "velocity": 107, "duration": 327}, {"note": 84, "velocity": 110, "duration": 318}, {"note": 82, "velocity": 114, "duration": 198}, {"note": 75, "velocity": 107, "duration": 198}, {"note": 75, "velocity": 93, "duration": 74}, {"note": 75, "velocity": 92, "duration": 57}, {"note": 0, "velocity": 0, "duration": 63}, {"note": 75, "velocity": 102, "duration": 74}, {"note": 84, "velocity": 116, "duration": 309}, {"note": 84, "velocity": 114, "duration": 69}, {"note": 0, "velocity": 0, "duration": 171}, {"note": 84, "velocity": 114, "duration": 68}, {"note": 0, "velocity": 0, "duration": 172}, {"note": 87, "velocity": 114, "duration": 286}, {"note": 84, "velocity": 114, "duration": 318}, {"note": 82, "velocity": 104, "duration": 70}, {"note": 82, "velocity": 108, "duration": 318}, {"note": 80, "velocity": 107, "duration": 125}, {"note": 79, "velocity": 97, "duration": 135}, {"note": 80, "velocity": 100, "duration": 132}, {"note": 0, "velocity": 0, "duration": 108}, {"note": 80, "velocity": 100, "duration": 47}, {"note": 0, "velocity": 0, "duration": 73}, {"note": 80, "velocity": 92, "duration": 48}, {"note": 0, "velocity": 0, "duration": 72}, {"note": 80, "velocity": 100, "duration": 198}, {"note": 82, "velocity": 108, "duration": 318}, {"note": 72, "velocity": 113, "duration": 318}, {"note": 75, "velocity": 110, "duration": 438}, {"note": 75, "velocity": 98, "duration": 64}, {"note": 75, "velocity": 93, "duration": 198}, {"note": 77, "velocity": 96, "duration": 227}, {"note": 80, "velocity": 102, "duration": 198}, {"note": 80, "velocity": 100, "duration": 178}, {"note": 80, "velocity": 100, "duration": 58}, {"note": 0, "velocity": 0, "duration": 182}, {"note": 80, "velocity": 100, "duration": 131}, {"note": 0, "velocity": 0, "duration": 109}, {"note": 82, "velocity": 108, "duration": 191}, {"note": 77, "velocity": 102, "duration": 152}, {"note": 80, "velocity": 107, "duration": 318}, {"note": 80, "velocity": 93, "duration": 63}, {"note": 80, "velocity": 100, "duration": 73}, {"note": 82, "velocity": 100, "duration": 129}, {"note": 0, "velocity": 0, "duration": 111}, {"note": 82, "velocity": 92, "duration": 62}, {"note": 82, "velocity": 91, "duration": 120}, {"note": 82, "velocity": 107, "duration": 318}, {"note": 80, "velocity": 107, "duration": 438}, {"note": 84, "velocity": 110, "duration": 558}, {"note": 82, "velocity": 113, "duration": 558}, {"note": 80, "velocity": 117, "duration": 1518}, {"note": 0, "velocity": 0, "duration": 6177}, {"note": 68, "velocity": 116, "duration": 543}, {"note": 70, "velocity": 116, "duration": 543}, {"note": 72, "velocity": 116, "duration": 201}, {"note": 72, "velocity": 108, "duration": 191}, {"note": 72, "velocity": 108, "duration": 71}, {"note": 72, "velocity": 110, "duration": 71}, {"note": 0, "velocity": 0, "duration": 169}, {"note": 70, "velocity": 108, "duration": 303}, {"note": 72, "velocity": 110, "duration": 282}, {"note": 75, "velocity": 110, "duration": 256}, {"note": 72, "velocity": 108, "duration": 303}, {"note": 72, "velocity": 108, "duration": 172}, {"note": 75, "velocity": 94, "duration": 146}, {"note": 77, "velocity": 107, "duration": 307}, {"note": 77, "velocity": 108, "duration": 67}, {"note": 0, "velocity": 0, "duration": 173}, {"note": 77, "velocity": 108, "duration": 58}, {"note": 0, "velocity": 0, "duration": 182}, {"note": 79, "velocity": 107, "duration": 294}, {"note": 75, "velocity": 91, "duration": 413}, {"note": 72, "velocity": 102, "duration": 384}, {"note": 0, "velocity": 0, "duration": 96}, {"note": 72, "velocity": 107, "duration": 303}, {"note": 70, "velocity": 91, "duration": 301}, {"note": 68, "velocity": 94, "duration": 248}, {"note": 68, "velocity": 89, "duration": 8}, {"note": 0, "velocity": 0, "duration": 112}, {"note": 68, "velocity": 88, "duration": 10}, {"note": 0, "velocity": 0, "duration": 110}, {"note": 68, "velocity": 94, "duration": 14}, {"note": 0, "velocity": 0, "duration": 226}, {"note": 65, "velocity": 96, "duration": 375}, {"note": 72, "velocity": 104, "duration": 303}, {"note": 75, "velocity": 94, "duration": 358}, {"note": 68, "velocity": 91, "duration": 543}, {"note": 70, "velocity": 100, "duration": 152}, {"note": 70, "velocity": 93, "duration": 32}, {"note": 0, "velocity": 0, "duration": 208}, {"note": 70, "velocity": 98, "duration": 127}, {"note": 70, "velocity": 100, "duration": 7}, {"note": 0, "velocity": 0, "duration": 233}, {"note": 68, "velocity": 100, "duration": 303}, {"note": 72, "velocity": 107, "duration": 303}, {"note": 70, "velocity": 113, "duration": 543}, {"note": 68, "velocity": 116, "duration": 251}, {"note": 70, "velocity": 116, "duration": 191}, {"note": 72, "velocity": 116, "duration": 201}, {"note": 72, "velocity": 108, "duration": 191}, {"note": 72, "velocity": 108, "duration": 71}, {"note": 72, "velocity": 110, "duration": 71}, {"note": 0, "velocity": 0, "duration": 169}, {"note": 70, "velocity": 108, "duration": 293}, {"note": 72, "velocity": 110, "duration": 282}, {"note": 75, "velocity": 110, "duration": 256}, {"note": 72, "velocity": 108, "duration": 303}, {"note": 72, "velocity": 108, "duration": 172}, {"note": 75, "velocity": 94, "duration": 146}, {"note": 77, "velocity": 107, "duration": 194}, {"note": 77, "velocity": 108, "duration": 185}, {"note": 77, "velocity": 108, "duration": 303}, {"note": 79, "velocity": 107, "duration": 303}, {"note": 75, "velocity": 91, "duration": 303}, {"note": 72, "velocity": 102, "duration": 423}, {"note": 75, "velocity": 93, "duration": 131}, {"note": 75, "velocity": 89, "duration": 11}, {"note": 0, "velocity": 0, "duration": 109}, {"note": 75, "velocity": 92, "duration": 7}, {"note": 0, "velocity": 0, "duration": 113}, {"note": 77, "velocity": 96, "duration": 303}, {"note": 80, "velocity": 102, "duration": 209}, {"note": 80, "velocity": 107, "duration": 303}, {"note": 77, "velocity": 104, "duration": 226}, {"note": 73, "velocity": 104, "duration": 226}, {"note": 70, "velocity": 107, "duration": 663}, {"note": 75, "velocity": 98, "duration": 135}, {"note": 75, "velocity": 102, "duration": 15}, {"note": 0, "velocity": 0, "duration": 105}, {"note": 77, "velocity": 107, "duration": 216}, {"note": 80, "velocity": 107, "duration": 200}, {"note": 80, "velocity": 110, "duration": 303}, {"note": 77, "velocity": 98, "duration": 303}, {"note": 80, "velocity": 108, "duration": 303}, {"note": 82, "velocity": 113, "duration": 1083}, {"note": 0, "velocity": 0, "duration": 237}, {"note": 75, "velocity": 93, "duration": 74}, {"note": 75, "velocity": 92, "duration": 57}, {"note": 0, "velocity": 0, "duration": 63}, {"note": 75, "velocity": 102, "duration": 74}, {"note": 84, "velocity": 116, "duration": 294}, {"note": 84, "velocity": 114, "duration": 54}, {"note": 0, "velocity": 0, "duration": 186}, {"note": 84, "velocity": 114, "duration": 53}, {"note": 0, "velocity": 0, "duration": 187}, {"note": 84, "velocity": 114, "duration": 64}, {"note": 0, "velocity": 0, "duration": 176}, {"note": 84, "velocity": 114, "duration": 31}, {"note": 0, "velocity": 0, "duration": 209}, {"note": 82, "velocity": 104, "duration": 70}, {"note": 82, "velocity": 108, "duration": 423}, {"note": 80, "velocity": 107, "duration": 125}, {"note": 79, "velocity": 97, "duration": 135}, {"note": 80, "velocity": 100, "duration": 132}, {"note": 0, "velocity": 0, "duration": 108}, {"note": 80, "velocity": 100, "duration": 47}, {"note": 0, "velocity": 0, "duration": 73}, {"note": 80, "velocity": 92, "duration": 48}, {"note": 0, "velocity": 0, "duration": 72}, {"note": 80, "velocity": 100, "duration": 72}, {"note": 82, "velocity": 108, "duration": 423}, {"note": 72, "velocity": 113, "duration": 303}, {"note": 75, "velocity": 110, "duration": 423}, {"note": 75, "velocity": 98, "duration": 64}, {"note": 75, "velocity": 93, "duration": 66}, {"note": 77, "velocity": 96, "duration": 95}, {"note": 80, "velocity": 102, "duration": 243}, {"note": 80, "velocity": 100, "duration": 3}, {"note": 0, "velocity": 0, "duration": 117}, {"note": 80, "velocity": 100, "duration": 243}, {"note": 80, "velocity": 100, "duration": 3}, {"note": 0, "velocity": 0, "duration": 237}, {"note": 82, "velocity": 108, "duration": 303}, {"note": 77, "velocity": 102, "duration": 183}, {"note": 80, "velocity": 107, "duration": 303}, {"note": 80, "velocity": 93, "duration": 173}, {"note": 80, "velocity": 100, "duration": 53}, {"note": 0, "velocity": 0, "duration": 67}, {"note": 82, "velocity": 100, "duration": 243}, {"note": 82, "velocity": 92, "duration": 3}, {"note": 0, "velocity": 0, "duration": 117}, {"note": 82, "velocity": 91, "duration": 120}, {"note": 82, "velocity": 107, "duration": 363}, {"note": 80, "velocity": 107, "duration": 303}, {"note": 84, "velocity": 110, "duration": 303}, {"note": 82, "velocity": 114, "duration": 183}, {"note": 75, "velocity": 107, "duration": 183}, {"note": 75, "velocity": 93, "duration": 74}, {"note": 75, "velocity": 92, "duration": 57}, {"note": 0, "velocity": 0, "duration": 63}, {"note": 75, "velocity": 102, "duration": 183}, {"note": 84, "velocity": 116, "duration": 234}, {"note": 84, "velocity": 114, "duration": 233}, {"note": 84, "velocity": 114, "duration": 244}, {"note": 87, "velocity": 114, "duration": 211}, {"note": 84, "velocity": 114, "duration": 243}, {"note": 82, "velocity": 104, "duration": 70}, {"note": 82, "velocity": 108, "duration": 423}, {"note": 80, "velocity": 107, "duration": 125}, {"note": 79, "velocity": 97, "duration": 135}, {"note": 80, "velocity": 100, "duration": 132}, {"note": 0, "velocity": 0, "duration": 108}, {"note": 80, "velocity": 100, "duration": 47}, {"note": 0, "velocity": 0, "duration": 73}, {"note": 80, "velocity": 92, "duration": 48}, {"note": 0, "velocity": 0, "duration": 72}, {"note": 80, "velocity": 100, "duration": 72}, {"note": 82, "velocity": 108, "duration": 423}, {"note": 72, "velocity": 113, "duration": 303}, {"note": 75, "velocity": 110, "duration": 315}, {"note": 0, "velocity": 0, "duration": 165}, {"note": 75, "velocity": 98, "duration": 64}, {"note": 75, "velocity": 93, "duration": 154}, {"note": 77, "velocity": 96, "duration": 183}, {"note": 80, "velocity": 102, "duration": 196}, {"note": 80, "velocity": 100, "duration": 176}, {"note": 80, "velocity": 100, "duration": 56}, {"note": 0, "velocity": 0, "duration": 184}, {"note": 80, "velocity": 100, "duration": 340}, {"note": 82, "velocity": 108, "duration": 342}, {"note": 77, "velocity": 102, "duration": 303}, {"note": 80, "velocity": 107, "duration": 349}, {"note": 80, "velocity": 93, "duration": 63}, {"note": 80, "velocity": 100, "duration": 73}, {"note": 82, "velocity": 100, "duration": 129}, {"note": 0, "velocity": 0, "duration": 111}, {"note": 82, "velocity": 92, "duration": 62}, {"note": 82, "velocity": 91, "duration": 120}, {"note": 82, "velocity": 107, "duration": 303}, {"note": 80, "velocity": 107, "duration": 303}, {"note": 84, "velocity": 110, "duration": 543}, {"note": 82, "velocity": 113, "duration": 543}, {"note": 80, "velocity": 117, "duration": 1143}, {"note": 0, "velocity": 0, "duration": 6177}, {"note": 75, "velocity": 93, "duration": 220}, {"note": 75, "velocity": 92, "duration": 100}, {"note": 75, "velocity": 102, "duration": 83}, {"note": 84, "velocity": 116, "duration": 289}, {"note": 84, "velocity": 114, "duration": 49}, {"note": 0, "velocity": 0, "duration": 191}, {"note": 84, "velocity": 114, "duration": 48}, {"note": 0, "velocity": 0, "duration": 192}, {"note": 84, "velocity": 114, "duration": 59}, {"note": 0, "velocity": 0, "duration": 181}, {"note": 84, "velocity": 114, "duration": 26}, {"note": 0, "velocity": 0, "duration": 214}, {"note": 82, "velocity": 104, "duration": 216}, {"note": 82, "velocity": 108, "duration": 96}, {"note": 0, "velocity": 0, "duration": 264}, {"note": 80, "velocity": 107, "duration": 271}, {"note": 79, "velocity": 97, "duration": 281}, {"note": 80, "velocity": 100, "duration": 31}, {"note": 0, "velocity": 0, "duration": 79}, {"note": 80, "velocity": 100, "duration": 38}, {"note": 0, "velocity": 0, "duration": 82}, {"note": 80, "velocity": 92, "duration": 73}, {"note": 80, "velocity": 100, "duration": 74}, {"note": 82, "velocity": 108, "duration": 306}, {"note": 72, "velocity": 113, "duration": 303}, {"note": 75, "velocity": 110, "duration": 315}, {"note": 0, "velocity": 0, "duration": 165}, {"note": 75, "velocity": 98, "duration": 210}, {"note": 75, "velocity": 93, "duration": 90}, {"note": 77, "velocity": 96, "duration": 241}, {"note": 80, "velocity": 102, "duration": 254}, {"note": 80, "velocity": 100, "duration": 14}, {"note": 0, "velocity": 0, "duration": 106}, {"note": 80, "velocity": 100, "duration": 114}, {"note": 0, "velocity": 0, "duration": 126}, {"note": 80, "velocity": 100, "duration": 54}, {"note": 0, "velocity": 0, "duration": 186}, {"note": 82, "velocity": 108, "duration": 279}, {"note": 77, "velocity": 102, "duration": 240}, {"note": 80, "velocity": 107, "duration": 286}, {"note": 0, "velocity": 0, "duration": 74}, {"note": 80, "velocity": 93, "duration": 209}, {"note": 80, "velocity": 100, "duration": 89}, {"note": 82, "velocity": 100, "duration": 275}, {"note": 82, "velocity": 92, "duration": 35}, {"note": 0, "velocity": 0, "duration": 85}, {"note": 82, "velocity": 91, "duration": 88}, {"note": 82, "velocity": 107, "duration": 146}, {"note": 0, "velocity": 0, "duration": 94}, {"note": 80, "velocity": 107, "duration": 316}, {"note": 84, "velocity": 110, "duration": 307}, {"note": 82, "velocity": 114, "duration": 257}, {"note": 75, "velocity": 107, "duration": 184}, {"note": 75, "velocity": 93, "duration": 220}, {"note": 75, "velocity": 92, "duration": 100}, {"note": 75, "velocity": 102, "duration": 83}, {"note": 84, "velocity": 116, "duration": 289}, {"note": 84, "velocity": 114, "duration": 49}, {"note": 0, "velocity": 0, "duration": 191}, {"note": 84, "velocity": 114, "duration": 48}, {"note": 0, "velocity": 0, "duration": 192}, {"note": 87, "velocity": 114, "duration": 266}, {"note": 84, "velocity": 114, "duration": 298}, {"note": 82, "velocity": 104, "duration": 216}, {"note": 82, "velocity": 108, "duration": 96}, {"note": 0, "velocity": 0, "duration": 264}, {"note": 80, "velocity": 107, "duration": 271}, {"note": 79, "velocity": 97, "duration": 281}, {"note": 80, "velocity": 100, "duration": 31}, {"note": 0, "velocity": 0, "duration": 79}, {"note": 80, "velocity": 100, "duration": 38}, {"note": 0, "velocity": 0, "duration": 82}, {"note": 80, "velocity": 92, "duration": 73}, {"note": 80, "velocity": 100, "duration": 74}, {"note": 82, "velocity": 108, "duration": 306}, {"note": 72, "velocity": 113, "duration": 303}, {"note": 75, "velocity": 110, "duration": 423}, {"note": 75, "velocity": 98, "duration": 210}, {"note": 75, "velocity": 93, "duration": 90}, {"note": 77, "velocity": 96, "duration": 241}, {"note": 80, "velocity": 102, "duration": 254}, {"note": 80, "velocity": 100, "duration": 14}, {"note": 0, "velocity": 0, "duration": 106}, {"note": 80, "velocity": 100, "duration": 114}, {"note": 0, "velocity": 0, "duration": 126}, {"note": 80, "velocity": 100, "duration": 54}, {"note": 0, "velocity": 0, "duration": 186}, {"note": 82, "velocity": 108, "duration": 279}, {"note": 77, "velocity": 102, "duration": 240}, {"note": 80, "velocity": 107, "duration": 286}, {"note": 0, "velocity": 0, "duration": 74}, {"note": 80, "velocity": 93, "duration": 209}, {"note": 80, "velocity": 100, "duration": 89}, {"note": 82, "velocity": 100, "duration": 275}, {"note": 82, "velocity": 92, "duration": 35}, {"note": 0, "velocity": 0, "duration": 85}, {"note": 82, "velocity": 91, "duration": 88}, {"note": 82, "velocity": 107, "duration": 146}, {"note": 0, "velocity": 0, "duration": 94}, {"note": 80, "velocity": 107, "duration": 316}, {"note": 84, "velocity": 110, "duration": 663}, {"note": 82, "velocity": 113, "duration": 663}, {"note": 80, "velocity": 117, "duration": 1023}]]