[[{"note": 68, "velocity": 95, "duration": 209}, {"note": 75, "velocity": 102, "duration": 136}, {"note": 0, "velocity": 0, "duration": 104}, {"note": 75, "velocity": 102, "duration": 164}, {"note": 0, "velocity": 0, "duration": 76}, {"note": 73, "velocity": 90, "duration": 149}, {"note": 0, "velocity": 0, "duration": 91}, {"note": 75, "velocity": 102, "duration": 736}, {"note": 0, "velocity": 0, "duration": 224}, {"note": 73, "velocity": 87, "duration": 372}, {"note": 0, "velocity": 0, "duration": 108}, {"note": 66, "velocity": 87, "duration": 191}, {"note": 70, "velocity": 85, "duration": 155}, {"note": 0, "velocity": 0, "duration": 85}, {"note": 68, "velocity": 93, "duration": 659}, {"note": 0, "velocity": 0, "duration": 301}, {"note": 71, "velocity": 95, "duration": 231}, {"note": 0, "velocity": 0, "duration": 129}, {"note": 71, "velocity": 83, "duration": 46}, {"note": 0, "velocity": 0, "duration": 74}, {"note": 71, "velocity": 93, "duration": 186}, {"note": 68, "velocity": 93, "duration": 169}, {"note": 0, "velocity": 0, "duration": 71}, {"note": 73, "velocity": 93, "duration": 432}, {"note": 71, "velocity": 83, "duration": 158}, {"note": 0, "velocity": 0, "duration": 82}, {"note": 73, "velocity": 93, "duration": 166}, {"note": 0, "velocity": 0, "duration": 74}, {"note": 75, "velocity": 93, "duration": 953}, {"note": 0, "velocity": 0, "duration": 967}, {"note": 75, "velocity": 105, "duration": 196}, {"note": 80, "velocity": 90, "duration": 133}, {"note": 0, "velocity": 0, "duration": 107}, {"note": 80, "velocity": 90, "duration": 153}, {"note": 0, "velocity": 0, "duration": 87}, {"note": 78, "velocity": 90, "duration": 163}, {"note": 0, "velocity": 0, "duration": 77}, {"note": 80, "velocity": 90, "duration": 572}, {"note": 0, "velocity": 0, "duration": 388}, {"note": 75, "velocity": 95, "duration": 378}, {"note": 0, "velocity": 0, "duration": 102}, {"note": 68, "velocity": 102, "duration": 168}, {"note": 0, "velocity": 0, "duration": 72}, {"note": 71, "velocity": 87, "duration": 171}, {"note": 0, "velocity": 0, "duration": 69}, {"note": 73, "velocity": 93, "duration": 759}, {"note": 0, "velocity": 0, "duration": 201}, {"note": 73, "velocity": 102, "duration": 192}, {"note": 0, "velocity": 0, "duration": 168}, {"note": 73, "velocity": 87, "duration": 85}, {"note": 75, "velocity": 102, "duration": 132}, {"note": 0, "velocity": 0, "duration": 108}, {"note": 78, "velocity": 103, "duration": 128}, {"note": 0, "velocity": 0, "duration": 112}, {"note": 66, "velocity": 103, "duration": 360}, {"note": 0, "velocity": 0, "duration": 120}, {"note": 71, "velocity": 85, "duration": 194}, {"note": 70, "velocity": 87, "duration": 191}, {"note": 68, "velocity": 93, "duration": 1097}, {"note": 0, "velocity": 0, "duration": 823}, {"note": 68, "velocity": 95, "duration": 209}, {"note": 75, "velocity": 102, "duration": 136}, {"note": 0, "velocity": 0, "duration": 104}, {"note": 75, "velocity": 102, "duration": 164}, {"note": 0, "velocity": 0, "duration": 76}, {"note": 73, "velocity": 90, "duration": 149}, {"note": 0, "velocity": 0, "duration": 91}, {"note": 75, "velocity": 102, "duration": 736}, {"note": 0, "velocity": 0, "duration": 224}, {"note": 73, "velocity": 87, "duration": 372}, {"note": 0, "velocity": 0, "duration": 108}, {"note": 66, "velocity": 87, "duration": 191}, {"note": 70, "velocity": 85, "duration": 155}, {"note": 0, "velocity": 0, "duration": 85}, {"note": 68, "velocity": 93, "duration": 659}, {"note": 0, "velocity": 0, "duration": 301}, {"note": 71, "velocity": 95, "duration": 231}, {"note": 0, "velocity": 0, "duration": 129}, {"note": 71, "velocity": 83, "duration": 46}, {"note": 0, "velocity": 0, "duration": 74}, {"note": 71, "velocity": 93, "duration": 186}, {"note": 68, "velocity": 93, "duration": 169}, {"note": 0, "velocity": 0, "duration": 71}, {"note": 73, "velocity": 93, "duration": 432}, {"note": 71, "velocity": 83, "duration": 158}, {"note": 0, "velocity": 0, "duration": 82}, {"note": 73, "velocity": 93, "duration": 166}, {"note": 0, "velocity": 0, "duration": 74}, {"note": 75, "velocity": 93, "duration": 953}, {"note": 0, "velocity": 0, "duration": 967}, {"note": 75, "velocity": 105, "duration": 196}, {"note": 80, "velocity": 90, "duration": 133}, {"note": 0, "velocity": 0, "duration": 107}, {"note": 80, "velocity": 90, "duration": 153}, {"note": 0, "velocity": 0, "duration": 87}, {"note": 78, "velocity": 90, "duration": 163}, {"note": 0, "velocity": 0, "duration": 77}, {"note": 80, "velocity": 90, "duration": 572}, {"note": 0, "velocity": 0, "duration": 388}, {"note": 75, "velocity": 95, "duration": 378}, {"note": 0, "velocity": 0, "duration": 102}, {"note": 68, "velocity": 102, "duration": 168}, {"note": 0, "velocity": 0, "duration": 72}, {"note": 71, "velocity": 87, "duration": 171}, {"note": 0, "velocity": 0, "duration": 69}, {"note": 73, "velocity": 93, "duration": 759}, {"note": 0, "velocity": 0, "duration": 201}, {"note": 73, "velocity": 102, "duration": 192}, {"note": 0, "velocity": 0, "duration": 168}, {"note": 73, "velocity": 87, "duration": 85}, {"note": 75, "velocity": 102, "duration": 132}, {"note": 0, "velocity": 0, "duration": 108}, {"note": 78, "velocity": 103, "duration": 128}, {"note": 0, "velocity": 0, "duration": 112}, {"note": 66, "velocity": 103, "duration": 360}, {"note": 0, "velocity": 0, "duration": 120}, {"note": 71, "velocity": 85, "duration": 194}, {"note": 70, "velocity": 87, "duration": 191}, {"note": 68, "velocity": 93, "duration": 1097}, {"note": 0, "velocity": 0, "duration": 823}, {"note": 80, "velocity": 95, "duration": 228}, {"note": 0, "velocity": 0, "duration": 132}, {"note": 80, "velocity": 87, "duration": 67}, {"note": 80, "velocity": 102, "duration": 138}, {"note": 0, "velocity": 0, "duration": 102}, {"note": 75, "velocity": 102, "duration": 132}, {"note": 0, "velocity": 0, "duration": 108}, {"note": 78, "velocity": 93, "duration": 367}, {"note": 0, "velocity": 0, "duration": 113}, {"note": 80, "velocity": 93, "duration": 161}, {"note": 0, "velocity": 0, "duration": 79}, {"note": 82, "velocity": 87, "duration": 153}, {"note": 0, "velocity": 0, "duration": 87}, {"note": 80, "velocity": 93, "duration": 1486}, {"note": 0, "velocity": 0, "duration": 434}, {"note": 83, "velocity": 95, "duration": 237}, {"note": 0, "velocity": 0, "duration": 123}, {"note": 83, "velocity": 93, "duration": 67}, {"note": 83, "velocity": 80, "duration": 148}, {"note": 0, "velocity": 0, "duration": 92}, {"note": 80, "velocity": 93, "duration": 134}, {"note": 0, "velocity": 0, "duration": 106}, {"note": 78, "velocity": 103, "duration": 369}, {"note": 0, "velocity": 0, "duration": 111}, {"note": 80, "velocity": 95, "duration": 163}, {"note": 0, "velocity": 0, "duration": 77}, {"note": 78, "velocity": 87, "duration": 197}, {"note": 75, "velocity": 103, "duration": 1574}, {"note": 0, "velocity": 0, "duration": 346}, {"note": 80, "velocity": 95, "duration": 202}, {"note": 0, "velocity": 0, "duration": 158}, {"note": 80, "velocity": 87, "duration": 61}, {"note": 80, "velocity": 90, "duration": 148}, {"note": 0, "velocity": 0, "duration": 92}, {"note": 80, "velocity": 87, "duration": 108}, {"note": 0, "velocity": 0, "duration": 132}, {"note": 80, "velocity": 90, "duration": 362}, {"note": 0, "velocity": 0, "duration": 118}, {"note": 73, "velocity": 93, "duration": 179}, {"note": 0, "velocity": 0, "duration": 61}, {"note": 75, "velocity": 93, "duration": 152}, {"note": 0, "velocity": 0, "duration": 88}, {"note": 73, "velocity": 93, "duration": 1535}, {"note": 0, "velocity": 0, "duration": 385}, {"note": 70, "velocity": 93, "duration": 238}, {"note": 0, "velocity": 0, "duration": 122}, {"note": 70, "velocity": 74, "duration": 61}, {"note": 70, "velocity": 83, "duration": 164}, {"note": 0, "velocity": 0, "duration": 76}, {"note": 68, "velocity": 93, "duration": 162}, {"note": 0, "velocity": 0, "duration": 78}, {"note": 66, "velocity": 93, "duration": 395}, {"note": 0, "velocity": 0, "duration": 85}, {"note": 68, "velocity": 93, "duration": 166}, {"note": 0, "velocity": 0, "duration": 74}, {"note": 70, "velocity": 93, "duration": 160}, {"note": 0, "velocity": 0, "duration": 80}, {"note": 68, "velocity": 103, "duration": 1692}, {"note": 0, "velocity": 0, "duration": 228}, {"note": 80, "velocity": 95, "duration": 228}, {"note": 0, "velocity": 0, "duration": 132}, {"note": 80, "velocity": 87, "duration": 67}, {"note": 80, "velocity": 102, "duration": 138}, {"note": 0, "velocity": 0, "duration": 102}, {"note": 75, "velocity": 102, "duration": 132}, {"note": 0, "velocity": 0, "duration": 108}, {"note": 78, "velocity": 93, "duration": 367}, {"note": 0, "velocity": 0, "duration": 113}, {"note": 80, "velocity": 93, "duration": 161}, {"note": 0, "velocity": 0, "duration": 79}, {"note": 82, "velocity": 87, "duration": 153}, {"note": 0, "velocity": 0, "duration": 87}, {"note": 80, "velocity": 93, "duration": 1486}, {"note": 0, "velocity": 0, "duration": 434}, {"note": 83, "velocity": 95, "duration": 237}, {"note": 0, "velocity": 0, "duration": 123}, {"note": 83, "velocity": 93, "duration": 67}, {"note": 83, "velocity": 80, "duration": 148}, {"note": 0, "velocity": 0, "duration": 92}, {"note": 80, "velocity": 93, "duration": 134}, {"note": 0, "velocity": 0, "duration": 106}, {"note": 78, "velocity": 103, "duration": 369}, {"note": 0, "velocity": 0, "duration": 111}, {"note": 80, "velocity": 95, "duration": 163}, {"note": 0, "velocity": 0, "duration": 77}, {"note": 78, "velocity": 87, "duration": 197}, {"note": 75, "velocity": 103, "duration": 1574}, {"note": 0, "velocity": 0, "duration": 346}, {"note": 80, "velocity": 95, "duration": 202}, {"note": 0, "velocity": 0, "duration": 158}, {"note": 80, "velocity": 87, "duration": 61}, {"note": 80, "velocity": 90, "duration": 148}, {"note": 0, "velocity": 0, "duration": 92}, {"note": 80, "velocity": 87, "duration": 108}, {"note": 0, "velocity": 0, "duration": 132}, {"note": 80, "velocity": 90, "duration": 362}, {"note": 0, "velocity": 0, "duration": 118}, {"note": 73, "velocity": 93, "duration": 179}, {"note": 0, "velocity": 0, "duration": 61}, {"note": 75, "velocity": 93, "duration": 152}, {"note": 0, "velocity": 0, "duration": 88}, {"note": 73, "velocity": 93, "duration": 1535}, {"note": 0, "velocity": 0, "duration": 385}, {"note": 70, "velocity": 93, "duration": 238}, {"note": 0, "velocity": 0, "duration": 122}, {"note": 70, "velocity": 74, "duration": 61}, {"note": 70, "velocity": 83, "duration": 164}, {"note": 0, "velocity": 0, "duration": 76}, {"note": 68, "velocity": 93, "duration": 162}, {"note": 0, "velocity": 0, "duration": 78}, {"note": 66, "velocity": 93, "duration": 395}, {"note": 0, "velocity": 0, "duration": 85}, {"note": 68, "velocity": 93, "duration": 166}, {"note": 0, "velocity": 0, "duration": 74}, {"note": 70, "velocity": 93, "duration": 160}, {"note": 0, "velocity": 0, "duration": 80}, {"note": 68, "velocity": 103, "duration": 1692}, {"note": 0, "velocity": 0, "duration": 15588}, {"note": 68, "velocity": 95, "duration": 209}, {"note": 75, "velocity": 102, "duration": 136}, {"note": 0, "velocity": 0, "duration": 104}, {"note": 75, "velocity": 102, "duration": 164}, {"note": 0, "velocity": 0, "duration": 76}, {"note": 73, "velocity": 90, "duration": 149}, {"note": 0, "velocity": 0, "duration": 91}, {"note": 75, "velocity": 102, "duration": 736}, {"note": 0, "velocity": 0, "duration": 224}, {"note": 73, "velocity": 87, "duration": 372}, {"note": 0, "velocity": 0, "duration": 108}, {"note": 66, "velocity": 87, "duration": 191}, {"note": 70, "velocity": 85, "duration": 155}, {"note": 0, "velocity": 0, "duration": 85}, {"note": 68, "velocity": 93, "duration": 659}, {"note": 0, "velocity": 0, "duration": 301}, {"note": 71, "velocity": 95, "duration": 231}, {"note": 0, "velocity": 0, "duration": 129}, {"note": 71, "velocity": 83, "duration": 46}, {"note": 0, "velocity": 0, "duration": 74}, {"note": 71, "velocity": 93, "duration": 186}, {"note": 68, "velocity": 93, "duration": 169}, {"note": 0, "velocity": 0, "duration": 71}, {"note": 73, "velocity": 93, "duration": 432}, {"note": 71, "velocity": 83, "duration": 158}, {"note": 0, "velocity": 0, "duration": 82}, {"note": 73, "velocity": 93, "duration": 166}, {"note": 0, "velocity": 0, "duration": 74}, {"note": 75, "velocity": 93, "duration": 953}, {"note": 0, "velocity": 0, "duration": 967}, {"note": 75, "velocity": 105, "duration": 196}, {"note": 80, "velocity": 90, "duration": 133}, {"note": 0, "velocity": 0, "duration": 107}, {"note": 80, "velocity": 90, "duration": 153}, {"note": 0, "velocity": 0, "duration": 87}, {"note": 78, "velocity": 90, "duration": 163}, {"note": 0, "velocity": 0, "duration": 77}, {"note": 80, "velocity": 90, "duration": 572}, {"note": 0, "velocity": 0, "duration": 388}, {"note": 75, "velocity": 95, "duration": 378}, {"note": 0, "velocity": 0, "duration": 102}, {"note": 68, "velocity": 102, "duration": 168}, {"note": 0, "velocity": 0, "duration": 72}, {"note": 71, "velocity": 87, "duration": 171}, {"note": 0, "velocity": 0, "duration": 69}, {"note": 73, "velocity": 93, "duration": 759}, {"note": 0, "velocity": 0, "duration": 201}, {"note": 73, "velocity": 102, "duration": 192}, {"note": 0, "velocity": 0, "duration": 168}, {"note": 73, "velocity": 87, "duration": 85}, {"note": 75, "velocity": 102, "duration": 132}, {"note": 0, "velocity": 0, "duration": 108}, {"note": 78, "velocity": 103, "duration": 128}, {"note": 0, "velocity": 0, "duration": 112}, {"note": 66, "velocity": 103, "duration": 360}, {"note": 0, "velocity": 0, "duration": 120}, {"note": 71, "velocity": 85, "duration": 194}, {"note": 70, "velocity": 87, "duration": 191}, {"note": 68, "velocity": 93, "duration": 1097}, {"note": 0, "velocity": 0, "duration": 823}, {"note": 68, "velocity": 95, "duration": 209}, {"note": 75, "velocity": 102, "duration": 136}, {"note": 0, "velocity": 0, "duration": 104}, {"note": 75, "velocity": 102, "duration": 164}, {"note": 0, "velocity": 0, "duration": 76}, {"note": 73, "velocity": 90, "duration": 149}, {"note": 0, "velocity": 0, "duration": 91}, {"note": 75, "velocity": 102, "duration": 736}, {"note": 0, "velocity": 0, "duration": 224}, {"note": 73, "velocity": 87, "duration": 372}, {"note": 0, "velocity": 0, "duration": 108}, {"note": 66, "velocity": 87, "duration": 191}, {"note": 70, "velocity": 85, "duration": 155}, {"note": 0, "velocity": 0, "duration": 85}, {"note": 68, "velocity": 93, "duration": 659}, {"note": 0, "velocity": 0, "duration": 301}, {"note": 71, "velocity": 95, "duration": 231}, {"note": 0, "velocity": 0, "duration": 129}, {"note": 71, "velocity": 83, "duration": 46}, {"note": 0, "velocity": 0, "duration": 74}, {"note": 71, "velocity": 93, "duration": 186}, {"note": 68, "velocity": 93, "duration": 169}, {"note": 0, "velocity": 0, "duration": 71}, {"note": 73, "velocity": 93, "duration": 432}, {"note": 71, "velocity": 83, "duration": 158}, {"note": 0, "velocity": 0, "duration": 82}, {"note": 73, "velocity": 93, "duration": 166}, {"note": 0, "velocity": 0, "duration": 74}, {"note": 75, "velocity": 93, "duration": 953}, {"note": 0, "velocity": 0, "duration": 967}, {"note": 75, "velocity": 105, "duration": 196}, {"note": 80, "velocity": 90, "duration": 133}, {"note": 0, "velocity": 0, "duration": 107}, {"note": 80, "velocity": 90, "duration": 153}, {"note": 0, "velocity": 0, "duration": 87}, {"note": 78, "velocity": 90, "duration": 163}, {"note": 0, "velocity": 0, "duration": 77}, {"note": 80, "velocity": 90, "duration": 572}, {"note": 0, "velocity": 0, "duration": 388}, {"note": 75, "velocity": 95, "duration": 378}, {"note": 0, "velocity": 0, "duration": 102}, {"note": 68, "velocity": 102, "duration": 168}, {"note": 0, "velocity": 0, "duration": 72}, {"note": 71, "velocity": 87, "duration": 171}, {"note": 0, "velocity": 0, "duration": 69}, {"note": 73, "velocity": 93, "duration": 759}, {"note": 0, "velocity": 0, "duration": 201}, {"note": 73, "velocity": 102, "duration": 192}, {"note": 0, "velocity": 0, "duration": 168}, {"note": 73, "velocity": 87, "duration": 85}, {"note": 75, "velocity": 102, "duration": 132}, {"note": 0, "velocity": 0, "duration": 108}, {"note": 78, "velocity": 103, "duration": 128}, {"note": 0, "velocity": 0, "duration": 112}, {"note": 66, "velocity": 103, "duration": 360}, {"note": 0, "velocity": 0, "duration": 120}, {"note": 71, "velocity": 85, "duration": 194}, {"note": 70, "velocity": 87, "duration": 191}, {"note": 68, "velocity": 93, "duration": 1097}, {"note": 0, "velocity": 0, "duration": 823}, {"note": 80, "velocity": 95, "duration": 228}, {"note": 0, "velocity": 0, "duration": 132}, {"note": 80, "velocity": 87, "duration": 67}, {"note": 80, "velocity": 102, "duration": 138}, {"note": 0, "velocity": 0, "duration": 102}, {"note": 75, "velocity": 102, "duration": 132}, {"note": 0, "velocity": 0, "duration": 108}, {"note": 78, "velocity": 93, "duration": 367}, {"note": 0, "velocity": 0, "duration": 113}, {"note": 80, "velocity": 93, "duration": 161}, {"note": 0, "velocity": 0, "duration": 79}, {"note": 82, "velocity": 87, "duration": 153}, {"note": 0, "velocity": 0, "duration": 87}, {"note": 80, "velocity": 93, "duration": 1486}, {"note": 0, "velocity": 0, "duration": 434}, {"note": 83, "velocity": 95, "duration": 237}, {"note": 0, "velocity": 0, "duration": 123}, {"note": 83, "velocity": 93, "duration": 67}, {"note": 83, "velocity": 80, "duration": 148}, {"note": 0, "velocity": 0, "duration": 92}, {"note": 80, "velocity": 93, "duration": 134}, {"note": 0, "velocity": 0, "duration": 106}, {"note": 78, "velocity": 103, "duration": 369}, {"note": 0, "velocity": 0, "duration": 111}, {"note": 80, "velocity": 95, "duration": 163}, {"note": 0, "velocity": 0, "duration": 77}, {"note": 78, "velocity": 87, "duration": 197}, {"note": 75, "velocity": 103, "duration": 1574}, {"note": 0, "velocity": 0, "duration": 346}, {"note": 80, "velocity": 95, "duration": 202}, {"note": 0, "velocity": 0, "duration": 158}, {"note": 80, "velocity": 87, "duration": 61}, {"note": 80, "velocity": 90, "duration": 148}, {"note": 0, "velocity": 0, "duration": 92}, {"note": 80, "velocity": 87, "duration": 108}, {"note": 0, "velocity": 0, "duration": 132}, {"note": 80, "velocity": 90, "duration": 362}, {"note": 0, "velocity": 0, "duration": 118}, {"note": 73, "velocity": 93, "duration": 179}, {"note": 0, "velocity": 0, "duration": 61}, {"note": 75, "velocity": 93, "duration": 152}, {"note": 0, "velocity": 0, "duration": 88}, {"note": 73, "velocity": 93, "duration": 1535}, {"note": 0, "velocity": 0, "duration": 385}, {"note": 70, "velocity": 93, "duration": 238}, {"note": 0, "velocity": 0, "duration": 122}, {"note": 70, "velocity": 74, "duration": 61}, {"note": 70, "velocity": 83, "duration": 164}, {"note": 0, "velocity": 0, "duration": 76}, {"note": 68, "velocity": 93, "duration": 162}, {"note": 0, "velocity": 0, "duration": 78}, {"note": 66, "velocity": 93, "duration": 395}, {"note": 0, "velocity": 0, "duration": 85}, {"note": 68, "velocity": 93, "duration": 166}, {"note": 0, "velocity": 0, "duration": 74}, {"note": 70, "velocity": 93, "duration": 160}, {"note": 0, "velocity": 0, "duration": 80}, {"note": 68, "velocity": 103, "duration": 1692}, {"note": 0, "velocity": 0, "duration": 228}, {"note": 80, "velocity": 95, "duration": 228}, {"note": 0, "velocity": 0, "duration": 132}, {"note": 80, "velocity": 87, "duration": 67}, {"note": 80, "velocity": 102, "duration": 138}, {"note": 0, "velocity": 0, "duration": 102}, {"note": 75, "velocity": 102, "duration": 132}, {"note": 0, "velocity": 0, "duration": 108}, {"note": 78, "velocity": 93, "duration": 367}, {"note": 0, "velocity": 0, "duration": 113}, {"note": 80, "velocity": 93, "duration": 161}, {"note": 0, "velocity": 0, "duration": 79}, {"note": 82, "velocity": 87, "duration": 153}, {"note": 0, "velocity": 0, "duration": 87}, {"note": 80, "velocity": 93, "duration": 1486}, {"note": 0, "velocity": 0, "duration": 434}, {"note": 83, "velocity": 95, "duration": 237}, {"note": 0, "velocity": 0, "duration": 123}, {"note": 83, "velocity": 93, "duration": 67}, {"note": 83, "velocity": 80, "duration": 148}, {"note": 0, "velocity": 0, "duration": 92}, {"note": 80, "velocity": 93, "duration": 134}, {"note": 0, "velocity": 0, "duration": 106}, {"note": 78, "velocity": 103, "duration": 369}, {"note": 0, "velocity": 0, "duration": 111}, {"note": 80, "velocity": 95, "duration": 163}, {"note": 0, "velocity": 0, "duration": 77}, {"note": 78, "velocity": 87, "duration": 197}, {"note": 75, "velocity": 103, "duration": 1574}, {"note": 0, "velocity": 0, "duration": 346}, {"note": 80, "velocity": 95, "duration": 202}, {"note": 0, "velocity": 0, "duration": 158}, {"note": 80, "velocity": 87, "duration": 61}, {"note": 80, "velocity": 90, "duration": 148}, {"note": 0, "velocity": 0, "duration": 92}, {"note": 80, "velocity": 87, "duration": 108}, {"note": 0, "velocity": 0, "duration": 132}, {"note": 80, "velocity": 90, "duration": 362}, {"note": 0, "velocity": 0, "duration": 118}, {"note": 73, "velocity": 93, "duration": 179}, {"note": 0, "velocity": 0, "duration": 61}, {"note": 75, "velocity": 93, "duration": 152}, {"note": 0, "velocity": 0, "duration": 88}, {"note": 73, "velocity": 93, "duration": 1535}, {"note": 0, "velocity": 0, "duration": 385}, {"note": 70, "velocity": 93, "duration": 238}, {"note": 0, "velocity": 0, "duration": 122}, {"note": 70, "velocity": 74, "duration": 61}, {"note": 70, "velocity": 83, "duration": 164}, {"note": 0, "velocity": 0, "duration": 76}, {"note": 68, "velocity": 93, "duration": 162}, {"note": 0, "velocity": 0, "duration": 78}, {"note": 66, "velocity": 93, "duration": 395}, {"note": 0, "velocity": 0, "duration": 85}, {"note": 68, "velocity": 93, "duration": 166}, {"note": 0, "velocity": 0, "duration": 74}, {"note": 70, "velocity": 93, "duration": 160}, {"note": 0, "velocity": 0, "duration": 80}, {"note": 68, "velocity": 103, "duration": 1692}, {"note": 0, "velocity": 0, "duration": 228}, {"note": 80, "velocity": 95, "duration": 202}, {"note": 0, "velocity": 0, "duration": 158}, {"note": 80, "velocity": 87, "duration": 61}, {"note": 80, "velocity": 90, "duration": 148}, {"note": 0, "velocity": 0, "duration": 92}, {"note": 80, "velocity": 87, "duration": 108}, {"note": 0, "velocity": 0, "duration": 132}, {"note": 80, "velocity": 90, "duration": 362}, {"note": 0, "velocity": 0, "duration": 118}, {"note": 73, "velocity": 93, "duration": 179}, {"note": 0, "velocity": 0, "duration": 61}, {"note": 75, "velocity": 93, "duration": 152}, {"note": 0, "velocity": 0, "duration": 88}, {"note": 73, "velocity": 93, "duration": 1535}, {"note": 0, "velocity": 0, "duration": 385}, {"note": 70, "velocity": 93, "duration": 238}, {"note": 0, "velocity": 0, "duration": 122}, {"note": 70, "velocity": 74, "duration": 61}, {"note": 70, "velocity": 83, "duration": 164}, {"note": 0, "velocity": 0, "duration": 76}, {"note": 68, "velocity": 93, "duration": 162}, {"note": 0, "velocity": 0, "duration": 78}, {"note": 66, "velocity": 93, "duration": 958}, {"note": 70, "velocity": 95, "duration": 780}, {"note": 0, "velocity": 0, "duration": 180}, {"note": 68, "velocity": 93, "duration": 1875}]]