[[{"note": 70, "velocity": 80, "duration": 163}, {"note": 0, "velocity": 0, "duration": 77}, {"note": 70, "velocity": 80, "duration": 217}, {"note": 79, "velocity": 69, "duration": 1229}, {"note": 0, "velocity": 0, "duration": 211}, {"note": 79, "velocity": 82, "duration": 248}, {"note": 77, "velocity": 82, "duration": 244}, {"note": 75, "velocity": 84, "duration": 991}, {"note": 0, "velocity": 0, "duration": 449}, {"note": 77, "velocity": 82, "duration": 250}, {"note": 79, "velocity": 82, "duration": 306}, {"note": 77, "velocity": 84, "duration": 305}, {"note": 0, "velocity": 0, "duration": 175}, {"note": 77, "velocity": 81, "duration": 241}, {"note": 72, "velocity": 80, "duration": 2282}, {"note": 0, "velocity": 0, "duration": 358}, {"note": 70, "velocity": 79, "duration": 134}, {"note": 0, "velocity": 0, "duration": 106}, {"note": 70, "velocity": 80, "duration": 216}, {"note": 77, "velocity": 67, "duration": 1090}, {"note": 0, "velocity": 0, "duration": 350}, {"note": 77, "velocity": 83, "duration": 217}, {"note": 75, "velocity": 78, "duration": 177}, {"note": 0, "velocity": 0, "duration": 63}, {"note": 74, "velocity": 78, "duration": 822}, {"note": 0, "velocity": 0, "duration": 618}, {"note": 75, "velocity": 80, "duration": 158}, {"note": 0, "velocity": 0, "duration": 82}, {"note": 77, "velocity": 79, "duration": 216}, {"note": 75, "velocity": 86, "duration": 500}, {"note": 72, "velocity": 72, "duration": 480}, {"note": 70, "velocity": 76, "duration": 1920}, {"note": 0, "velocity": 0, "duration": 480}, {"note": 70, "velocity": 82, "duration": 118}, {"note": 0, "velocity": 0, "duration": 122}, {"note": 70, "velocity": 81, "duration": 207}, {"note": 79, "velocity": 70, "duration": 566}, {"note": 0, "velocity": 0, "duration": 154}, {"note": 79, "velocity": 80, "duration": 187}, {"note": 79, "velocity": 74, "duration": 443}, {"note": 77, "velocity": 78, "duration": 481}, {"note": 75, "velocity": 82, "duration": 738}, {"note": 0, "velocity": 0, "duration": 222}, {"note": 79, "velocity": 84, "duration": 369}, {"note": 0, "velocity": 0, "duration": 111}, {"note": 80, "velocity": 80, "duration": 266}, {"note": 82, "velocity": 84, "duration": 221}, {"note": 83, "velocity": 82, "duration": 488}, {"note": 82, "velocity": 81, "duration": 239}, {"note": 80, "velocity": 81, "duration": 2193}, {"note": 0, "velocity": 0, "duration": 447}, {"note": 70, "velocity": 82, "duration": 152}, {"note": 0, "velocity": 0, "duration": 88}, {"note": 70, "velocity": 82, "duration": 197}, {"note": 79, "velocity": 81, "duration": 1295}, {"note": 0, "velocity": 0, "duration": 145}, {"note": 79, "velocity": 81, "duration": 156}, {"note": 0, "velocity": 0, "duration": 84}, {"note": 79, "velocity": 81, "duration": 185}, {"note": 77, "velocity": 81, "duration": 645}, {"note": 0, "velocity": 0, "duration": 315}, {"note": 74, "velocity": 84, "duration": 472}, {"note": 75, "velocity": 85, "duration": 237}, {"note": 77, "velocity": 80, "duration": 178}, {"note": 0, "velocity": 0, "duration": 62}, {"note": 77, "velocity": 86, "duration": 378}, {"note": 0, "velocity": 0, "duration": 102}, {"note": 75, "velocity": 81, "duration": 2214}, {"note": 0, "velocity": 0, "duration": 186}, {"note": 79, "velocity": 81, "duration": 428}, {"note": 80, "velocity": 77, "duration": 162}, {"note": 0, "velocity": 0, "duration": 78}, {"note": 82, "velocity": 80, "duration": 158}, {"note": 0, "velocity": 0, "duration": 82}, {"note": 84, "velocity": 78, "duration": 341}, {"note": 0, "velocity": 0, "duration": 139}, {"note": 84, "velocity": 80, "duration": 480}, {"note": 84, "velocity": 81, "duration": 240}, {"note": 80, "velocity": 76, "duration": 491}, {"note": 0, "velocity": 0, "duration": 229}, {"note": 77, "velocity": 80, "duration": 750}, {"note": 0, "velocity": 0, "duration": 210}, {"note": 80, "velocity": 84, "duration": 425}, {"note": 84, "velocity": 82, "duration": 502}, {"note": 82, "velocity": 83, "duration": 854}, {"note": 0, "velocity": 0, "duration": 106}, {"note": 82, "velocity": 81, "duration": 429}, {"note": 79, "velocity": 81, "duration": 478}, {"note": 75, "velocity": 83, "duration": 1110}, {"note": 0, "velocity": 0, "duration": 330}, {"note": 77, "velocity": 86, "duration": 196}, {"note": 79, "velocity": 81, "duration": 148}, {"note": 0, "velocity": 0, "duration": 92}, {"note": 80, "velocity": 82, "duration": 556}, {"note": 0, "velocity": 0, "duration": 164}, {"note": 80, "velocity": 81, "duration": 658}, {"note": 0, "velocity": 0, "duration": 62}, {"note": 79, "velocity": 82, "duration": 462}, {"note": 77, "velocity": 80, "duration": 480}, {"note": 77, "velocity": 84, "duration": 133}, {"note": 0, "velocity": 0, "duration": 107}, {"note": 77, "velocity": 84, "duration": 128}, {"note": 0, "velocity": 0, "duration": 112}, {"note": 77, "velocity": 87, "duration": 405}, {"note": 0, "velocity": 0, "duration": 75}, {"note": 84, "velocity": 82, "duration": 129}, {"note": 0, "velocity": 0, "duration": 111}, {"note": 84, "velocity": 82, "duration": 586}, {"note": 0, "velocity": 0, "duration": 134}, {"note": 82, "velocity": 74, "duration": 2110}, {"note": 0, "velocity": 0, "duration": 290}, {"note": 79, "velocity": 82, "duration": 374}, {"note": 0, "velocity": 0, "duration": 106}, {"note": 80, "velocity": 81, "duration": 158}, {"note": 0, "velocity": 0, "duration": 82}, {"note": 82, "velocity": 81, "duration": 216}, {"note": 84, "velocity": 81, "duration": 460}, {"note": 84, "velocity": 86, "duration": 113}, {"note": 0, "velocity": 0, "duration": 127}, {"note": 84, "velocity": 82, "duration": 661}, {"note": 0, "velocity": 0, "duration": 299}, {"note": 80, "velocity": 80, "duration": 240}, {"note": 77, "velocity": 84, "duration": 1125}, {"note": 0, "velocity": 0, "duration": 315}, {"note": 79, "velocity": 84, "duration": 448}, {"note": 84, "velocity": 82, "duration": 462}, {"note": 82, "velocity": 80, "duration": 720}, {"note": 82, "velocity": 83, "duration": 480}, {"note": 79, "velocity": 78, "duration": 480}, {"note": 75, "velocity": 86, "duration": 1041}, {"note": 0, "velocity": 0, "duration": 159}, {"note": 77, "velocity": 87, "duration": 263}, {"note": 79, "velocity": 84, "duration": 221}, {"note": 80, "velocity": 81, "duration": 625}, {"note": 0, "velocity": 0, "duration": 95}, {"note": 80, "velocity": 81, "duration": 736}, {"note": 79, "velocity": 82, "duration": 497}, {"note": 77, "velocity": 82, "duration": 660}, {"note": 74, "velocity": 79, "duration": 187}, {"note": 74, "velocity": 76, "duration": 170}, {"note": 0, "velocity": 0, "duration": 70}, {"note": 77, "velocity": 81, "duration": 732}, {"note": 75, "velocity": 80, "duration": 3426}, {"note": 0, "velocity": 0, "duration": 15774}, {"note": 84, "velocity": 87, "duration": 1431}, {"note": 87, "velocity": 81, "duration": 560}, {"note": 77, "velocity": 86, "duration": 1933}, {"note": 82, "velocity": 82, "duration": 1440}, {"note": 82, "velocity": 84, "duration": 240}, {"note": 86, "velocity": 84, "duration": 240}, {"note": 84, "velocity": 80, "duration": 1920}, {"note": 80, "velocity": 75, "duration": 1159}, {"note": 0, "velocity": 0, "duration": 281}, {"note": 79, "velocity": 84, "duration": 446}, {"note": 77, "velocity": 82, "duration": 1401}, {"note": 75, "velocity": 84, "duration": 207}, {"note": 77, "velocity": 86, "duration": 257}, {"note": 75, "velocity": 91, "duration": 2840}, {"note": 0, "velocity": 0, "duration": 520}, {"note": 70, "velocity": 80, "duration": 163}, {"note": 0, "velocity": 0, "duration": 77}, {"note": 70, "velocity": 80, "duration": 217}, {"note": 79, "velocity": 69, "duration": 1229}, {"note": 0, "velocity": 0, "duration": 211}, {"note": 79, "velocity": 82, "duration": 248}, {"note": 77, "velocity": 82, "duration": 244}, {"note": 75, "velocity": 84, "duration": 991}, {"note": 0, "velocity": 0, "duration": 449}, {"note": 77, "velocity": 82, "duration": 250}, {"note": 79, "velocity": 82, "duration": 306}, {"note": 77, "velocity": 84, "duration": 305}, {"note": 0, "velocity": 0, "duration": 175}, {"note": 77, "velocity": 81, "duration": 241}, {"note": 72, "velocity": 80, "duration": 2282}, {"note": 0, "velocity": 0, "duration": 358}, {"note": 70, "velocity": 79, "duration": 134}, {"note": 0, "velocity": 0, "duration": 106}, {"note": 70, "velocity": 80, "duration": 216}, {"note": 77, "velocity": 67, "duration": 1090}, {"note": 0, "velocity": 0, "duration": 350}, {"note": 77, "velocity": 83, "duration": 217}, {"note": 75, "velocity": 78, "duration": 177}, {"note": 0, "velocity": 0, "duration": 63}, {"note": 74, "velocity": 78, "duration": 822}, {"note": 0, "velocity": 0, "duration": 618}, {"note": 75, "velocity": 80, "duration": 158}, {"note": 0, "velocity": 0, "duration": 82}, {"note": 77, "velocity": 79, "duration": 216}, {"note": 75, "velocity": 86, "duration": 500}, {"note": 72, "velocity": 72, "duration": 480}, {"note": 70, "velocity": 76, "duration": 1920}, {"note": 0, "velocity": 0, "duration": 480}, {"note": 70, "velocity": 82, "duration": 118}, {"note": 0, "velocity": 0, "duration": 122}, {"note": 70, "velocity": 81, "duration": 207}, {"note": 79, "velocity": 70, "duration": 566}, {"note": 0, "velocity": 0, "duration": 154}, {"note": 79, "velocity": 80, "duration": 187}, {"note": 79, "velocity": 74, "duration": 443}, {"note": 77, "velocity": 78, "duration": 481}, {"note": 75, "velocity": 82, "duration": 738}, {"note": 0, "velocity": 0, "duration": 222}, {"note": 79, "velocity": 84, "duration": 369}, {"note": 0, "velocity": 0, "duration": 111}, {"note": 80, "velocity": 80, "duration": 266}, {"note": 82, "velocity": 84, "duration": 221}, {"note": 83, "velocity": 82, "duration": 488}, {"note": 82, "velocity": 81, "duration": 239}, {"note": 80, "velocity": 81, "duration": 2193}, {"note": 0, "velocity": 0, "duration": 447}, {"note": 70, "velocity": 82, "duration": 152}, {"note": 0, "velocity": 0, "duration": 88}, {"note": 70, "velocity": 82, "duration": 197}, {"note": 79, "velocity": 81, "duration": 1295}, {"note": 0, "velocity": 0, "duration": 145}, {"note": 79, "velocity": 81, "duration": 156}, {"note": 0, "velocity": 0, "duration": 84}, {"note": 79, "velocity": 81, "duration": 185}, {"note": 77, "velocity": 81, "duration": 645}, {"note": 0, "velocity": 0, "duration": 315}, {"note": 74, "velocity": 84, "duration": 472}, {"note": 75, "velocity": 85, "duration": 237}, {"note": 77, "velocity": 80, "duration": 178}, {"note": 0, "velocity": 0, "duration": 62}, {"note": 77, "velocity": 86, "duration": 378}, {"note": 0, "velocity": 0, "duration": 102}, {"note": 75, "velocity": 81, "duration": 2214}, {"note": 0, "velocity": 0, "duration": 186}, {"note": 79, "velocity": 81, "duration": 428}, {"note": 80, "velocity": 77, "duration": 162}, {"note": 0, "velocity": 0, "duration": 78}, {"note": 82, "velocity": 80, "duration": 158}, {"note": 0, "velocity": 0, "duration": 82}, {"note": 84, "velocity": 78, "duration": 341}, {"note": 0, "velocity": 0, "duration": 139}, {"note": 84, "velocity": 80, "duration": 480}, {"note": 84, "velocity": 81, "duration": 240}, {"note": 80, "velocity": 76, "duration": 491}, {"note": 0, "velocity": 0, "duration": 229}, {"note": 77, "velocity": 80, "duration": 750}, {"note": 0, "velocity": 0, "duration": 210}, {"note": 80, "velocity": 84, "duration": 425}, {"note": 84, "velocity": 82, "duration": 502}, {"note": 82, "velocity": 83, "duration": 854}, {"note": 0, "velocity": 0, "duration": 106}, {"note": 82, "velocity": 81, "duration": 429}, {"note": 79, "velocity": 81, "duration": 478}, {"note": 75, "velocity": 83, "duration": 1110}, {"note": 0, "velocity": 0, "duration": 330}, {"note": 77, "velocity": 86, "duration": 196}, {"note": 79, "velocity": 81, "duration": 148}, {"note": 0, "velocity": 0, "duration": 92}, {"note": 80, "velocity": 82, "duration": 556}, {"note": 0, "velocity": 0, "duration": 164}, {"note": 80, "velocity": 81, "duration": 658}, {"note": 0, "velocity": 0, "duration": 62}, {"note": 79, "velocity": 82, "duration": 462}, {"note": 77, "velocity": 80, "duration": 480}, {"note": 77, "velocity": 84, "duration": 133}, {"note": 0, "velocity": 0, "duration": 107}, {"note": 77, "velocity": 84, "duration": 128}, {"note": 0, "velocity": 0, "duration": 112}, {"note": 77, "velocity": 87, "duration": 405}, {"note": 0, "velocity": 0, "duration": 75}, {"note": 84, "velocity": 82, "duration": 129}, {"note": 0, "velocity": 0, "duration": 111}, {"note": 84, "velocity": 82, "duration": 586}, {"note": 0, "velocity": 0, "duration": 134}, {"note": 82, "velocity": 74, "duration": 2110}, {"note": 0, "velocity": 0, "duration": 290}, {"note": 79, "velocity": 82, "duration": 374}, {"note": 0, "velocity": 0, "duration": 106}, {"note": 80, "velocity": 81, "duration": 158}, {"note": 0, "velocity": 0, "duration": 82}, {"note": 82, "velocity": 81, "duration": 216}, {"note": 84, "velocity": 81, "duration": 460}, {"note": 84, "velocity": 86, "duration": 113}, {"note": 0, "velocity": 0, "duration": 127}, {"note": 84, "velocity": 82, "duration": 661}, {"note": 0, "velocity": 0, "duration": 299}, {"note": 80, "velocity": 80, "duration": 240}, {"note": 77, "velocity": 84, "duration": 1125}, {"note": 0, "velocity": 0, "duration": 315}, {"note": 79, "velocity": 84, "duration": 448}, {"note": 84, "velocity": 82, "duration": 462}, {"note": 82, "velocity": 80, "duration": 720}, {"note": 82, "velocity": 83, "duration": 480}, {"note": 79, "velocity": 78, "duration": 480}, {"note": 75, "velocity": 86, "duration": 1041}, {"note": 0, "velocity": 0, "duration": 159}, {"note": 77, "velocity": 87, "duration": 263}, {"note": 79, "velocity": 84, "duration": 221}, {"note": 80, "velocity": 81, "duration": 625}, {"note": 0, "velocity": 0, "duration": 95}, {"note": 80, "velocity": 81, "duration": 736}, {"note": 79, "velocity": 82, "duration": 497}, {"note": 77, "velocity": 82, "duration": 660}, {"note": 74, "velocity": 79, "duration": 187}, {"note": 74, "velocity": 76, "duration": 170}, {"note": 0, "velocity": 0, "duration": 70}, {"note": 77, "velocity": 81, "duration": 732}, {"note": 75, "velocity": 80, "duration": 3426}, {"note": 0, "velocity": 0, "duration": 380}, {"note": 77, "velocity": 74, "duration": 395}, {"note": 79, "velocity": 80, "duration": 386}, {"note": 80, "velocity": 80, "duration": 846}, {"note": 0, "velocity": 0, "duration": 128}, {"note": 80, "velocity": 74, "duration": 1873}, {"note": 0, "velocity": 0, "duration": 688}, {"note": 79, "velocity": 67, "duration": 832}, {"note": 77, "velocity": 76, "duration": 2961}, {"note": 0, "velocity": 0, "duration": 613}, {"note": 74, "velocity": 72, "duration": 522}, {"note": 0, "velocity": 0, "duration": 94}, {"note": 74, "velocity": 71, "duration": 489}, {"note": 77, "velocity": 79, "duration": 2636}, {"note": 0, "velocity": 0, "duration": 1264}, {"note": 80, "velocity": 75, "duration": 541}, {"note": 82, "velocity": 74, "duration": 4251}]]