[[{"note": 66, "velocity": 87, "duration": 366}, {"note": 0, "velocity": 0, "duration": 114}, {"note": 66, "velocity": 80, "duration": 85}, {"note": 0, "velocity": 0, "duration": 155}, {"note": 66, "velocity": 93, "duration": 161}, {"note": 0, "velocity": 0, "duration": 79}, {"note": 66, "velocity": 74, "duration": 64}, {"note": 66, "velocity": 83, "duration": 247}, {"note": 0, "velocity": 0, "duration": 113}, {"note": 66, "velocity": 87, "duration": 175}, {"note": 0, "velocity": 0, "duration": 65}, {"note": 68, "velocity": 95, "duration": 148}, {"note": 0, "velocity": 0, "duration": 92}, {"note": 68, "velocity": 85, "duration": 59}, {"note": 0, "velocity": 0, "duration": 61}, {"note": 68, "velocity": 90, "duration": 238}, {"note": 66, "velocity": 95, "duration": 118}, {"note": 66, "velocity": 93, "duration": 478}, {"note": 0, "velocity": 0, "duration": 962}, {"note": 66, "velocity": 87, "duration": 134}, {"note": 0, "velocity": 0, "duration": 106}, {"note": 66, "velocity": 93, "duration": 143}, {"note": 0, "velocity": 0, "duration": 97}, {"note": 64, "velocity": 87, "duration": 136}, {"note": 0, "velocity": 0, "duration": 104}, {"note": 63, "velocity": 90, "duration": 136}, {"note": 0, "velocity": 0, "duration": 104}, {"note": 64, "velocity": 95, "duration": 268}, {"note": 0, "velocity": 0, "duration": 212}, {"note": 59, "velocity": 83, "duration": 150}, {"note": 0, "velocity": 0, "duration": 90}, {"note": 66, "velocity": 93, "duration": 143}, {"note": 0, "velocity": 0, "duration": 97}, {"note": 64, "velocity": 85, "duration": 134}, {"note": 0, "velocity": 0, "duration": 106}, {"note": 63, "velocity": 87, "duration": 143}, {"note": 0, "velocity": 0, "duration": 97}, {"note": 63, "velocity": 80, "duration": 366}, {"note": 0, "velocity": 0, "duration": 114}, {"note": 61, "velocity": 85, "duration": 671}, {"note": 0, "velocity": 0, "duration": 289}, {"note": 66, "velocity": 87, "duration": 366}, {"note": 0, "velocity": 0, "duration": 114}, {"note": 66, "velocity": 80, "duration": 85}, {"note": 0, "velocity": 0, "duration": 155}, {"note": 66, "velocity": 93, "duration": 161}, {"note": 0, "velocity": 0, "duration": 79}, {"note": 66, "velocity": 74, "duration": 64}, {"note": 66, "velocity": 83, "duration": 247}, {"note": 0, "velocity": 0, "duration": 113}, {"note": 66, "velocity": 87, "duration": 175}, {"note": 0, "velocity": 0, "duration": 65}, {"note": 68, "velocity": 95, "duration": 148}, {"note": 0, "velocity": 0, "duration": 92}, {"note": 68, "velocity": 85, "duration": 59}, {"note": 0, "velocity": 0, "duration": 61}, {"note": 68, "velocity": 90, "duration": 238}, {"note": 66, "velocity": 95, "duration": 118}, {"note": 66, "velocity": 93, "duration": 478}, {"note": 0, "velocity": 0, "duration": 242}, {"note": 73, "velocity": 93, "duration": 184}, {"note": 71, "velocity": 87, "duration": 167}, {"note": 0, "velocity": 0, "duration": 73}, {"note": 70, "velocity": 95, "duration": 168}, {"note": 0, "velocity": 0, "duration": 72}, {"note": 71, "velocity": 80, "duration": 279}, {"note": 0, "velocity": 0, "duration": 201}, {"note": 70, "velocity": 95, "duration": 365}, {"note": 0, "velocity": 0, "duration": 115}, {"note": 71, "velocity": 93, "duration": 242}, {"note": 0, "velocity": 0, "duration": 238}, {"note": 68, "velocity": 83, "duration": 85}, {"note": 70, "velocity": 80, "duration": 73}, {"note": 71, "velocity": 87, "duration": 85}, {"note": 0, "velocity": 0, "duration": 155}, {"note": 71, "velocity": 85, "duration": 117}, {"note": 0, "velocity": 0, "duration": 123}, {"note": 71, "velocity": 87, "duration": 123}, {"note": 0, "velocity": 0, "duration": 117}, {"note": 71, "velocity": 93, "duration": 378}, {"note": 0, "velocity": 0, "duration": 102}, {"note": 73, "velocity": 93, "duration": 584}, {"note": 0, "velocity": 0, "duration": 376}, {"note": 68, "velocity": 93, "duration": 120}, {"note": 0, "velocity": 0, "duration": 120}, {"note": 68, "velocity": 87, "duration": 193}, {"note": 71, "velocity": 95, "duration": 180}, {"note": 70, "velocity": 93, "duration": 139}, {"note": 0, "velocity": 0, "duration": 101}, {"note": 71, "velocity": 87, "duration": 150}, {"note": 0, "velocity": 0, "duration": 90}, {"note": 70, "velocity": 95, "duration": 144}, {"note": 0, "velocity": 0, "duration": 96}, {"note": 68, "velocity": 93, "duration": 121}, {"note": 0, "velocity": 0, "duration": 119}, {"note": 66, "velocity": 83, "duration": 143}, {"note": 0, "velocity": 0, "duration": 97}, {"note": 66, "velocity": 74, "duration": 128}, {"note": 0, "velocity": 0, "duration": 112}, {"note": 66, "velocity": 83, "duration": 155}, {"note": 0, "velocity": 0, "duration": 85}, {"note": 71, "velocity": 70, "duration": 721}, {"note": 0, "velocity": 0, "duration": 719}, {"note": 68, "velocity": 93, "duration": 151}, {"note": 0, "velocity": 0, "duration": 89}, {"note": 68, "velocity": 93, "duration": 181}, {"note": 71, "velocity": 90, "duration": 157}, {"note": 0, "velocity": 0, "duration": 83}, {"note": 70, "velocity": 87, "duration": 139}, {"note": 0, "velocity": 0, "duration": 101}, {"note": 71, "velocity": 87, "duration": 134}, {"note": 0, "velocity": 0, "duration": 106}, {"note": 70, "velocity": 93, "duration": 136}, {"note": 0, "velocity": 0, "duration": 104}, {"note": 68, "velocity": 102, "duration": 397}, {"note": 0, "velocity": 0, "duration": 83}, {"note": 66, "velocity": 93, "duration": 964}, {"note": 0, "velocity": 0, "duration": 956}, {"note": 68, "velocity": 102, "duration": 146}, {"note": 0, "velocity": 0, "duration": 94}, {"note": 68, "velocity": 93, "duration": 171}, {"note": 0, "velocity": 0, "duration": 69}, {"note": 71, "velocity": 93, "duration": 174}, {"note": 0, "velocity": 0, "duration": 66}, {"note": 70, "velocity": 93, "duration": 132}, {"note": 0, "velocity": 0, "duration": 108}, {"note": 71, "velocity": 87, "duration": 133}, {"note": 0, "velocity": 0, "duration": 107}, {"note": 70, "velocity": 90, "duration": 117}, {"note": 0, "velocity": 0, "duration": 123}, {"note": 68, "velocity": 102, "duration": 115}, {"note": 0, "velocity": 0, "duration": 125}, {"note": 67, "velocity": 87, "duration": 127}, {"note": 0, "velocity": 0, "duration": 113}, {"note": 67, "velocity": 69, "duration": 114}, {"note": 0, "velocity": 0, "duration": 126}, {"note": 73, "velocity": 93, "duration": 238}, {"note": 71, "velocity": 102, "duration": 535}, {"note": 0, "velocity": 0, "duration": 185}, {"note": 68, "velocity": 102, "duration": 143}, {"note": 0, "velocity": 0, "duration": 97}, {"note": 70, "velocity": 83, "duration": 102}, {"note": 0, "velocity": 0, "duration": 138}, {"note": 71, "velocity": 95, "duration": 148}, {"note": 0, "velocity": 0, "duration": 92}, {"note": 71, "velocity": 70, "duration": 67}, {"note": 71, "velocity": 83, "duration": 167}, {"note": 0, "velocity": 0, "duration": 73}, {"note": 70, "velocity": 87, "duration": 63}, {"note": 71, "velocity": 95, "duration": 358}, {"note": 0, "velocity": 0, "duration": 122}, {"note": 70, "velocity": 93, "duration": 120}, {"note": 0, "velocity": 0, "duration": 120}, {"note": 71, "velocity": 85, "duration": 136}, {"note": 0, "velocity": 0, "duration": 104}, {"note": 73, "velocity": 95, "duration": 718}, {"note": 0, "velocity": 0, "duration": 242}, {"note": 66, "velocity": 93, "duration": 147}, {"note": 0, "velocity": 0, "duration": 93}, {"note": 71, "velocity": 87, "duration": 388}, {"note": 0, "velocity": 0, "duration": 92}, {"note": 73, "velocity": 95, "duration": 366}, {"note": 0, "velocity": 0, "duration": 114}, {"note": 75, "velocity": 103, "duration": 254}, {"note": 0, "velocity": 0, "duration": 226}, {"note": 71, "velocity": 90, "duration": 117}, {"note": 0, "velocity": 0, "duration": 123}, {"note": 73, "velocity": 93, "duration": 122}, {"note": 0, "velocity": 0, "duration": 118}, {"note": 75, "velocity": 103, "duration": 124}, {"note": 0, "velocity": 0, "duration": 116}, {"note": 76, "velocity": 103, "duration": 137}, {"note": 0, "velocity": 0, "duration": 103}, {"note": 78, "velocity": 102, "duration": 238}, {"note": 0, "velocity": 0, "duration": 242}, {"note": 73, "velocity": 80, "duration": 129}, {"note": 0, "velocity": 0, "duration": 111}, {"note": 66, "velocity": 87, "duration": 129}, {"note": 0, "velocity": 0, "duration": 111}, {"note": 70, "velocity": 87, "duration": 114}, {"note": 0, "velocity": 0, "duration": 126}, {"note": 71, "velocity": 90, "duration": 132}, {"note": 0, "velocity": 0, "duration": 108}, {"note": 73, "velocity": 93, "duration": 496}, {"note": 0, "velocity": 0, "duration": 464}, {"note": 71, "velocity": 93, "duration": 153}, {"note": 0, "velocity": 0, "duration": 87}, {"note": 63, "velocity": 102, "duration": 99}, {"note": 0, "velocity": 0, "duration": 141}, {"note": 68, "velocity": 102, "duration": 109}, {"note": 0, "velocity": 0, "duration": 131}, {"note": 70, "velocity": 80, "duration": 124}, {"note": 0, "velocity": 0, "duration": 116}, {"note": 71, "velocity": 87, "duration": 126}, {"note": 0, "velocity": 0, "duration": 114}, {"note": 73, "velocity": 90, "duration": 132}, {"note": 0, "velocity": 0, "duration": 108}, {"note": 75, "velocity": 95, "duration": 303}, {"note": 0, "velocity": 0, "duration": 177}, {"note": 70, "velocity": 102, "duration": 153}, {"note": 0, "velocity": 0, "duration": 87}, {"note": 71, "velocity": 87, "duration": 142}, {"note": 0, "velocity": 0, "duration": 98}, {"note": 70, "velocity": 85, "duration": 115}, {"note": 0, "velocity": 0, "duration": 125}, {"note": 68, "velocity": 90, "duration": 139}, {"note": 0, "velocity": 0, "duration": 101}, {"note": 66, "velocity": 87, "duration": 214}, {"note": 0, "velocity": 0, "duration": 266}, {"note": 71, "velocity": 93, "duration": 145}, {"note": 0, "velocity": 0, "duration": 95}, {"note": 70, "velocity": 90, "duration": 129}, {"note": 0, "velocity": 0, "duration": 111}, {"note": 68, "velocity": 93, "duration": 336}, {"note": 0, "velocity": 0, "duration": 144}, {"note": 70, "velocity": 87, "duration": 132}, {"note": 0, "velocity": 0, "duration": 108}, {"note": 71, "velocity": 85, "duration": 139}, {"note": 0, "velocity": 0, "duration": 101}, {"note": 73, "velocity": 95, "duration": 328}, {"note": 0, "velocity": 0, "duration": 152}, {"note": 71, "velocity": 87, "duration": 124}, {"note": 0, "velocity": 0, "duration": 116}, {"note": 73, "velocity": 93, "duration": 140}, {"note": 0, "velocity": 0, "duration": 100}, {"note": 75, "velocity": 93, "duration": 143}, {"note": 0, "velocity": 0, "duration": 97}, {"note": 76, "velocity": 102, "duration": 146}, {"note": 0, "velocity": 0, "duration": 94}, {"note": 75, "velocity": 102, "duration": 139}, {"note": 0, "velocity": 0, "duration": 101}, {"note": 73, "velocity": 93, "duration": 129}, {"note": 0, "velocity": 0, "duration": 111}, {"note": 71, "velocity": 93, "duration": 261}, {"note": 0, "velocity": 0, "duration": 219}, {"note": 68, "velocity": 102, "duration": 129}, {"note": 0, "velocity": 0, "duration": 111}, {"note": 70, "velocity": 90, "duration": 132}, {"note": 0, "velocity": 0, "duration": 108}, {"note": 71, "velocity": 93, "duration": 132}, {"note": 0, "velocity": 0, "duration": 108}, {"note": 71, "velocity": 93, "duration": 124}, {"note": 0, "velocity": 0, "duration": 116}, {"note": 71, "velocity": 95, "duration": 171}, {"note": 0, "velocity": 0, "duration": 69}, {"note": 70, "velocity": 87, "duration": 128}, {"note": 0, "velocity": 0, "duration": 112}, {"note": 71, "velocity": 93, "duration": 113}, {"note": 0, "velocity": 0, "duration": 127}, {"note": 73, "velocity": 93, "duration": 142}, {"note": 0, "velocity": 0, "duration": 98}, {"note": 75, "velocity": 102, "duration": 345}, {"note": 0, "velocity": 0, "duration": 135}, {"note": 73, "velocity": 93, "duration": 561}, {"note": 0, "velocity": 0, "duration": 159}, {"note": 66, "velocity": 93, "duration": 147}, {"note": 0, "velocity": 0, "duration": 93}, {"note": 71, "velocity": 87, "duration": 388}, {"note": 0, "velocity": 0, "duration": 92}, {"note": 73, "velocity": 95, "duration": 366}, {"note": 0, "velocity": 0, "duration": 114}, {"note": 75, "velocity": 103, "duration": 254}, {"note": 0, "velocity": 0, "duration": 226}, {"note": 71, "velocity": 90, "duration": 117}, {"note": 0, "velocity": 0, "duration": 123}, {"note": 73, "velocity": 93, "duration": 122}, {"note": 0, "velocity": 0, "duration": 118}, {"note": 75, "velocity": 103, "duration": 124}, {"note": 0, "velocity": 0, "duration": 116}, {"note": 76, "velocity": 103, "duration": 137}, {"note": 0, "velocity": 0, "duration": 103}, {"note": 78, "velocity": 102, "duration": 238}, {"note": 0, "velocity": 0, "duration": 242}, {"note": 73, "velocity": 80, "duration": 129}, {"note": 0, "velocity": 0, "duration": 111}, {"note": 66, "velocity": 87, "duration": 129}, {"note": 0, "velocity": 0, "duration": 111}, {"note": 70, "velocity": 87, "duration": 114}, {"note": 0, "velocity": 0, "duration": 126}, {"note": 71, "velocity": 90, "duration": 132}, {"note": 0, "velocity": 0, "duration": 108}, {"note": 73, "velocity": 93, "duration": 496}, {"note": 0, "velocity": 0, "duration": 464}, {"note": 71, "velocity": 93, "duration": 153}, {"note": 0, "velocity": 0, "duration": 87}, {"note": 63, "velocity": 102, "duration": 99}, {"note": 0, "velocity": 0, "duration": 141}, {"note": 68, "velocity": 102, "duration": 109}, {"note": 0, "velocity": 0, "duration": 131}, {"note": 70, "velocity": 80, "duration": 124}, {"note": 0, "velocity": 0, "duration": 116}, {"note": 71, "velocity": 87, "duration": 126}, {"note": 0, "velocity": 0, "duration": 114}, {"note": 73, "velocity": 90, "duration": 132}, {"note": 0, "velocity": 0, "duration": 108}, {"note": 75, "velocity": 95, "duration": 303}, {"note": 0, "velocity": 0, "duration": 177}, {"note": 75, "velocity": 102, "duration": 153}, {"note": 0, "velocity": 0, "duration": 87}, {"note": 76, "velocity": 87, "duration": 142}, {"note": 0, "velocity": 0, "duration": 98}, {"note": 75, "velocity": 85, "duration": 115}, {"note": 0, "velocity": 0, "duration": 125}, {"note": 73, "velocity": 90, "duration": 139}, {"note": 0, "velocity": 0, "duration": 101}, {"note": 71, "velocity": 87, "duration": 214}, {"note": 0, "velocity": 0, "duration": 266}, {"note": 71, "velocity": 93, "duration": 145}, {"note": 0, "velocity": 0, "duration": 95}, {"note": 70, "velocity": 90, "duration": 129}, {"note": 0, "velocity": 0, "duration": 111}, {"note": 68, "velocity": 93, "duration": 336}, {"note": 0, "velocity": 0, "duration": 144}, {"note": 70, "velocity": 87, "duration": 132}, {"note": 0, "velocity": 0, "duration": 108}, {"note": 71, "velocity": 85, "duration": 139}, {"note": 0, "velocity": 0, "duration": 101}, {"note": 73, "velocity": 95, "duration": 328}, {"note": 0, "velocity": 0, "duration": 152}, {"note": 75, "velocity": 87, "duration": 124}, {"note": 0, "velocity": 0, "duration": 116}, {"note": 76, "velocity": 93, "duration": 140}, {"note": 0, "velocity": 0, "duration": 100}, {"note": 78, "velocity": 93, "duration": 358}, {"note": 0, "velocity": 0, "duration": 122}, {"note": 75, "velocity": 102, "duration": 139}, {"note": 0, "velocity": 0, "duration": 101}, {"note": 73, "velocity": 93, "duration": 129}, {"note": 0, "velocity": 0, "duration": 111}, {"note": 71, "velocity": 93, "duration": 261}, {"note": 0, "velocity": 0, "duration": 219}, {"note": 68, "velocity": 102, "duration": 129}, {"note": 0, "velocity": 0, "duration": 111}, {"note": 70, "velocity": 90, "duration": 132}, {"note": 0, "velocity": 0, "duration": 108}, {"note": 71, "velocity": 93, "duration": 132}, {"note": 0, "velocity": 0, "duration": 108}, {"note": 71, "velocity": 93, "duration": 124}, {"note": 0, "velocity": 0, "duration": 116}, {"note": 71, "velocity": 95, "duration": 171}, {"note": 0, "velocity": 0, "duration": 69}, {"note": 70, "velocity": 87, "duration": 128}, {"note": 0, "velocity": 0, "duration": 112}, {"note": 71, "velocity": 93, "duration": 113}, {"note": 0, "velocity": 0, "duration": 127}, {"note": 73, "velocity": 93, "duration": 142}, {"note": 0, "velocity": 0, "duration": 98}, {"note": 75, "velocity": 102, "duration": 345}, {"note": 0, "velocity": 0, "duration": 135}, {"note": 73, "velocity": 93, "duration": 561}, {"note": 0, "velocity": 0, "duration": 159}, {"note": 66, "velocity": 102, "duration": 129}, {"note": 0, "velocity": 0, "duration": 111}, {"note": 71, "velocity": 87, "duration": 385}, {"note": 0, "velocity": 0, "duration": 95}, {"note": 70, "velocity": 87, "duration": 182}, {"note": 71, "velocity": 90, "duration": 1295}, {"note": 0, "velocity": 0, "duration": 29905}, {"note": 68, "velocity": 93, "duration": 120}, {"note": 0, "velocity": 0, "duration": 120}, {"note": 68, "velocity": 87, "duration": 193}, {"note": 71, "velocity": 95, "duration": 180}, {"note": 70, "velocity": 93, "duration": 139}, {"note": 0, "velocity": 0, "duration": 101}, {"note": 71, "velocity": 87, "duration": 150}, {"note": 0, "velocity": 0, "duration": 90}, {"note": 70, "velocity": 95, "duration": 144}, {"note": 0, "velocity": 0, "duration": 96}, {"note": 68, "velocity": 93, "duration": 121}, {"note": 0, "velocity": 0, "duration": 119}, {"note": 66, "velocity": 83, "duration": 143}, {"note": 0, "velocity": 0, "duration": 97}, {"note": 66, "velocity": 74, "duration": 128}, {"note": 0, "velocity": 0, "duration": 112}, {"note": 66, "velocity": 83, "duration": 155}, {"note": 0, "velocity": 0, "duration": 85}, {"note": 71, "velocity": 70, "duration": 721}, {"note": 0, "velocity": 0, "duration": 719}, {"note": 68, "velocity": 93, "duration": 151}, {"note": 0, "velocity": 0, "duration": 89}, {"note": 68, "velocity": 93, "duration": 181}, {"note": 71, "velocity": 90, "duration": 157}, {"note": 0, "velocity": 0, "duration": 83}, {"note": 70, "velocity": 87, "duration": 139}, {"note": 0, "velocity": 0, "duration": 101}, {"note": 71, "velocity": 87, "duration": 134}, {"note": 0, "velocity": 0, "duration": 106}, {"note": 70, "velocity": 93, "duration": 136}, {"note": 0, "velocity": 0, "duration": 104}, {"note": 68, "velocity": 102, "duration": 397}, {"note": 0, "velocity": 0, "duration": 83}, {"note": 66, "velocity": 93, "duration": 964}, {"note": 0, "velocity": 0, "duration": 956}, {"note": 68, "velocity": 102, "duration": 146}, {"note": 0, "velocity": 0, "duration": 94}, {"note": 68, "velocity": 93, "duration": 171}, {"note": 0, "velocity": 0, "duration": 69}, {"note": 71, "velocity": 93, "duration": 174}, {"note": 0, "velocity": 0, "duration": 66}, {"note": 70, "velocity": 93, "duration": 132}, {"note": 0, "velocity": 0, "duration": 108}, {"note": 71, "velocity": 87, "duration": 133}, {"note": 0, "velocity": 0, "duration": 107}, {"note": 70, "velocity": 90, "duration": 117}, {"note": 0, "velocity": 0, "duration": 123}, {"note": 68, "velocity": 102, "duration": 115}, {"note": 0, "velocity": 0, "duration": 125}, {"note": 67, "velocity": 87, "duration": 127}, {"note": 0, "velocity": 0, "duration": 113}, {"note": 67, "velocity": 69, "duration": 114}, {"note": 0, "velocity": 0, "duration": 126}, {"note": 73, "velocity": 93, "duration": 238}, {"note": 71, "velocity": 102, "duration": 535}, {"note": 0, "velocity": 0, "duration": 185}, {"note": 68, "velocity": 102, "duration": 143}, {"note": 0, "velocity": 0, "duration": 97}, {"note": 70, "velocity": 83, "duration": 102}, {"note": 0, "velocity": 0, "duration": 138}, {"note": 71, "velocity": 95, "duration": 148}, {"note": 0, "velocity": 0, "duration": 92}, {"note": 71, "velocity": 70, "duration": 67}, {"note": 71, "velocity": 83, "duration": 167}, {"note": 0, "velocity": 0, "duration": 73}, {"note": 70, "velocity": 87, "duration": 63}, {"note": 71, "velocity": 95, "duration": 358}, {"note": 0, "velocity": 0, "duration": 122}, {"note": 70, "velocity": 93, "duration": 120}, {"note": 0, "velocity": 0, "duration": 120}, {"note": 71, "velocity": 85, "duration": 136}, {"note": 0, "velocity": 0, "duration": 104}, {"note": 73, "velocity": 95, "duration": 718}, {"note": 0, "velocity": 0, "duration": 242}, {"note": 66, "velocity": 93, "duration": 147}, {"note": 0, "velocity": 0, "duration": 93}, {"note": 71, "velocity": 87, "duration": 388}, {"note": 0, "velocity": 0, "duration": 92}, {"note": 73, "velocity": 95, "duration": 366}, {"note": 0, "velocity": 0, "duration": 114}, {"note": 75, "velocity": 103, "duration": 254}, {"note": 0, "velocity": 0, "duration": 226}, {"note": 71, "velocity": 90, "duration": 117}, {"note": 0, "velocity": 0, "duration": 123}, {"note": 73, "velocity": 93, "duration": 122}, {"note": 0, "velocity": 0, "duration": 118}, {"note": 75, "velocity": 103, "duration": 124}, {"note": 0, "velocity": 0, "duration": 116}, {"note": 76, "velocity": 103, "duration": 137}, {"note": 0, "velocity": 0, "duration": 103}, {"note": 78, "velocity": 102, "duration": 238}, {"note": 0, "velocity": 0, "duration": 242}, {"note": 73, "velocity": 80, "duration": 129}, {"note": 0, "velocity": 0, "duration": 111}, {"note": 66, "velocity": 87, "duration": 129}, {"note": 0, "velocity": 0, "duration": 111}, {"note": 70, "velocity": 87, "duration": 114}, {"note": 0, "velocity": 0, "duration": 126}, {"note": 71, "velocity": 90, "duration": 132}, {"note": 0, "velocity": 0, "duration": 108}, {"note": 73, "velocity": 93, "duration": 496}, {"note": 0, "velocity": 0, "duration": 464}, {"note": 71, "velocity": 93, "duration": 153}, {"note": 0, "velocity": 0, "duration": 87}, {"note": 63, "velocity": 102, "duration": 99}, {"note": 0, "velocity": 0, "duration": 141}, {"note": 68, "velocity": 102, "duration": 109}, {"note": 0, "velocity": 0, "duration": 131}, {"note": 70, "velocity": 80, "duration": 124}, {"note": 0, "velocity": 0, "duration": 116}, {"note": 71, "velocity": 87, "duration": 126}, {"note": 0, "velocity": 0, "duration": 114}, {"note": 73, "velocity": 90, "duration": 132}, {"note": 0, "velocity": 0, "duration": 108}, {"note": 75, "velocity": 95, "duration": 303}, {"note": 0, "velocity": 0, "duration": 177}, {"note": 70, "velocity": 102, "duration": 153}, {"note": 0, "velocity": 0, "duration": 87}, {"note": 71, "velocity": 87, "duration": 142}, {"note": 0, "velocity": 0, "duration": 98}, {"note": 70, "velocity": 85, "duration": 115}, {"note": 0, "velocity": 0, "duration": 125}, {"note": 68, "velocity": 90, "duration": 139}, {"note": 0, "velocity": 0, "duration": 101}, {"note": 66, "velocity": 87, "duration": 214}, {"note": 0, "velocity": 0, "duration": 266}, {"note": 71, "velocity": 93, "duration": 145}, {"note": 0, "velocity": 0, "duration": 95}, {"note": 70, "velocity": 90, "duration": 129}, {"note": 0, "velocity": 0, "duration": 111}, {"note": 68, "velocity": 93, "duration": 336}, {"note": 0, "velocity": 0, "duration": 144}, {"note": 70, "velocity": 87, "duration": 132}, {"note": 0, "velocity": 0, "duration": 108}, {"note": 71, "velocity": 85, "duration": 139}, {"note": 0, "velocity": 0, "duration": 101}, {"note": 73, "velocity": 95, "duration": 328}, {"note": 0, "velocity": 0, "duration": 152}, {"note": 71, "velocity": 87, "duration": 124}, {"note": 0, "velocity": 0, "duration": 116}, {"note": 73, "velocity": 93, "duration": 140}, {"note": 0, "velocity": 0, "duration": 100}, {"note": 75, "velocity": 93, "duration": 143}, {"note": 0, "velocity": 0, "duration": 97}, {"note": 76, "velocity": 102, "duration": 146}, {"note": 0, "velocity": 0, "duration": 94}, {"note": 75, "velocity": 102, "duration": 139}, {"note": 0, "velocity": 0, "duration": 101}, {"note": 73, "velocity": 93, "duration": 129}, {"note": 0, "velocity": 0, "duration": 111}, {"note": 71, "velocity": 93, "duration": 261}, {"note": 0, "velocity": 0, "duration": 219}, {"note": 68, "velocity": 102, "duration": 129}, {"note": 0, "velocity": 0, "duration": 111}, {"note": 70, "velocity": 90, "duration": 132}, {"note": 0, "velocity": 0, "duration": 108}, {"note": 71, "velocity": 93, "duration": 132}, {"note": 0, "velocity": 0, "duration": 108}, {"note": 71, "velocity": 93, "duration": 124}, {"note": 0, "velocity": 0, "duration": 116}, {"note": 71, "velocity": 95, "duration": 171}, {"note": 0, "velocity": 0, "duration": 69}, {"note": 70, "velocity": 87, "duration": 128}, {"note": 0, "velocity": 0, "duration": 112}, {"note": 71, "velocity": 93, "duration": 113}, {"note": 0, "velocity": 0, "duration": 127}, {"note": 73, "velocity": 93, "duration": 142}, {"note": 0, "velocity": 0, "duration": 98}, {"note": 75, "velocity": 102, "duration": 345}, {"note": 0, "velocity": 0, "duration": 135}, {"note": 73, "velocity": 93, "duration": 561}, {"note": 0, "velocity": 0, "duration": 159}, {"note": 66, "velocity": 93, "duration": 147}, {"note": 0, "velocity": 0, "duration": 93}, {"note": 71, "velocity": 87, "duration": 388}, {"note": 0, "velocity": 0, "duration": 92}, {"note": 73, "velocity": 95, "duration": 366}, {"note": 0, "velocity": 0, "duration": 114}, {"note": 75, "velocity": 103, "duration": 254}, {"note": 0, "velocity": 0, "duration": 226}, {"note": 71, "velocity": 90, "duration": 117}, {"note": 0, "velocity": 0, "duration": 123}, {"note": 73, "velocity": 93, "duration": 122}, {"note": 0, "velocity": 0, "duration": 118}, {"note": 75, "velocity": 103, "duration": 124}, {"note": 0, "velocity": 0, "duration": 116}, {"note": 76, "velocity": 103, "duration": 137}, {"note": 0, "velocity": 0, "duration": 103}, {"note": 78, "velocity": 102, "duration": 238}, {"note": 0, "velocity": 0, "duration": 242}, {"note": 73, "velocity": 80, "duration": 129}, {"note": 0, "velocity": 0, "duration": 111}, {"note": 66, "velocity": 87, "duration": 129}, {"note": 0, "velocity": 0, "duration": 111}, {"note": 70, "velocity": 87, "duration": 114}, {"note": 0, "velocity": 0, "duration": 126}, {"note": 71, "velocity": 90, "duration": 132}, {"note": 0, "velocity": 0, "duration": 108}, {"note": 73, "velocity": 93, "duration": 496}, {"note": 0, "velocity": 0, "duration": 464}, {"note": 71, "velocity": 93, "duration": 153}, {"note": 0, "velocity": 0, "duration": 87}, {"note": 63, "velocity": 102, "duration": 99}, {"note": 0, "velocity": 0, "duration": 141}, {"note": 68, "velocity": 102, "duration": 109}, {"note": 0, "velocity": 0, "duration": 131}, {"note": 70, "velocity": 80, "duration": 124}, {"note": 0, "velocity": 0, "duration": 116}, {"note": 71, "velocity": 87, "duration": 126}, {"note": 0, "velocity": 0, "duration": 114}, {"note": 73, "velocity": 90, "duration": 132}, {"note": 0, "velocity": 0, "duration": 108}, {"note": 75, "velocity": 95, "duration": 303}, {"note": 0, "velocity": 0, "duration": 177}, {"note": 75, "velocity": 102, "duration": 153}, {"note": 0, "velocity": 0, "duration": 87}, {"note": 76, "velocity": 87, "duration": 142}, {"note": 0, "velocity": 0, "duration": 98}, {"note": 75, "velocity": 85, "duration": 115}, {"note": 0, "velocity": 0, "duration": 125}, {"note": 73, "velocity": 90, "duration": 139}, {"note": 0, "velocity": 0, "duration": 101}, {"note": 71, "velocity": 87, "duration": 214}, {"note": 0, "velocity": 0, "duration": 266}, {"note": 71, "velocity": 93, "duration": 145}, {"note": 0, "velocity": 0, "duration": 95}, {"note": 70, "velocity": 90, "duration": 129}, {"note": 0, "velocity": 0, "duration": 111}, {"note": 68, "velocity": 93, "duration": 336}, {"note": 0, "velocity": 0, "duration": 144}, {"note": 70, "velocity": 87, "duration": 132}, {"note": 0, "velocity": 0, "duration": 108}, {"note": 71, "velocity": 85, "duration": 139}, {"note": 0, "velocity": 0, "duration": 101}, {"note": 73, "velocity": 95, "duration": 328}, {"note": 0, "velocity": 0, "duration": 152}, {"note": 75, "velocity": 87, "duration": 124}, {"note": 0, "velocity": 0, "duration": 116}, {"note": 76, "velocity": 93, "duration": 140}, {"note": 0, "velocity": 0, "duration": 100}, {"note": 78, "velocity": 93, "duration": 358}, {"note": 0, "velocity": 0, "duration": 122}, {"note": 75, "velocity": 102, "duration": 139}, {"note": 0, "velocity": 0, "duration": 101}, {"note": 73, "velocity": 93, "duration": 129}, {"note": 0, "velocity": 0, "duration": 111}, {"note": 71, "velocity": 93, "duration": 261}, {"note": 0, "velocity": 0, "duration": 219}, {"note": 68, "velocity": 102, "duration": 129}, {"note": 0, "velocity": 0, "duration": 111}, {"note": 70, "velocity": 90, "duration": 132}, {"note": 0, "velocity": 0, "duration": 108}, {"note": 71, "velocity": 93, "duration": 132}, {"note": 0, "velocity": 0, "duration": 108}, {"note": 71, "velocity": 93, "duration": 124}, {"note": 0, "velocity": 0, "duration": 116}, {"note": 71, "velocity": 95, "duration": 171}, {"note": 0, "velocity": 0, "duration": 69}, {"note": 70, "velocity": 87, "duration": 128}, {"note": 0, "velocity": 0, "duration": 112}, {"note": 71, "velocity": 93, "duration": 113}, {"note": 0, "velocity": 0, "duration": 127}, {"note": 73, "velocity": 93, "duration": 142}, {"note": 0, "velocity": 0, "duration": 98}, {"note": 75, "velocity": 102, "duration": 345}, {"note": 0, "velocity": 0, "duration": 135}, {"note": 73, "velocity": 93, "duration": 561}, {"note": 0, "velocity": 0, "duration": 159}, {"note": 66, "velocity": 102, "duration": 129}, {"note": 0, "velocity": 0, "duration": 111}, {"note": 71, "velocity": 87, "duration": 385}, {"note": 0, "velocity": 0, "duration": 95}, {"note": 70, "velocity": 87, "duration": 182}, {"note": 71, "velocity": 90, "duration": 1295}]]