[[{"note": 66, "velocity": 80, "duration": 338}, {"note": 64, "velocity": 80, "duration": 55}, {"note": 0, "velocity": 0, "duration": 65}, {"note": 62, "velocity": 77, "duration": 226}, {"note": 57, "velocity": 78, "duration": 191}, {"note": 62, "velocity": 78, "duration": 170}, {"note": 0, "velocity": 0, "duration": 70}, {"note": 66, "velocity": 67, "duration": 204}, {"note": 64, "velocity": 77, "duration": 419}, {"note": 0, "velocity": 0, "duration": 61}, {"note": 66, "velocity": 80, "duration": 263}, {"note": 0, "velocity": 0, "duration": 97}, {"note": 64, "velocity": 68, "duration": 84}, {"note": 62, "velocity": 78, "duration": 150}, {"note": 0, "velocity": 0, "duration": 90}, {"note": 54, "velocity": 78, "duration": 182}, {"note": 59, "velocity": 72, "duration": 182}, {"note": 62, "velocity": 63, "duration": 193}, {"note": 61, "velocity": 77, "duration": 408}, {"note": 0, "velocity": 0, "duration": 72}, {"note": 62, "velocity": 76, "duration": 174}, {"note": 0, "velocity": 0, "duration": 66}, {"note": 61, "velocity": 80, "duration": 98}, {"note": 59, "velocity": 74, "duration": 525}, {"note": 0, "velocity": 0, "duration": 75}, {"note": 61, "velocity": 77, "duration": 191}, {"note": 59, "velocity": 76, "duration": 84}, {"note": 57, "velocity": 74, "duration": 582}, {"note": 0, "velocity": 0, "duration": 258}, {"note": 62, "velocity": 77, "duration": 71}, {"note": 62, "velocity": 72, "duration": 83}, {"note": 67, "velocity": 70, "duration": 173}, {"note": 0, "velocity": 0, "duration": 67}, {"note": 66, "velocity": 78, "duration": 253}, {"note": 64, "velocity": 77, "duration": 219}, {"note": 62, "velocity": 77, "duration": 78}, {"note": 66, "velocity": 77, "duration": 114}, {"note": 64, "velocity": 81, "duration": 393}, {"note": 0, "velocity": 0, "duration": 87}, {"note": 66, "velocity": 80, "duration": 338}, {"note": 64, "velocity": 80, "duration": 55}, {"note": 0, "velocity": 0, "duration": 65}, {"note": 62, "velocity": 77, "duration": 226}, {"note": 57, "velocity": 78, "duration": 191}, {"note": 62, "velocity": 78, "duration": 170}, {"note": 0, "velocity": 0, "duration": 70}, {"note": 66, "velocity": 67, "duration": 204}, {"note": 64, "velocity": 77, "duration": 419}, {"note": 0, "velocity": 0, "duration": 61}, {"note": 66, "velocity": 80, "duration": 263}, {"note": 0, "velocity": 0, "duration": 97}, {"note": 64, "velocity": 68, "duration": 84}, {"note": 62, "velocity": 78, "duration": 150}, {"note": 0, "velocity": 0, "duration": 90}, {"note": 54, "velocity": 78, "duration": 182}, {"note": 59, "velocity": 72, "duration": 182}, {"note": 62, "velocity": 63, "duration": 193}, {"note": 61, "velocity": 77, "duration": 408}, {"note": 0, "velocity": 0, "duration": 72}, {"note": 62, "velocity": 76, "duration": 174}, {"note": 0, "velocity": 0, "duration": 66}, {"note": 61, "velocity": 80, "duration": 98}, {"note": 59, "velocity": 74, "duration": 525}, {"note": 0, "velocity": 0, "duration": 75}, {"note": 61, "velocity": 77, "duration": 191}, {"note": 59, "velocity": 76, "duration": 84}, {"note": 57, "velocity": 74, "duration": 582}, {"note": 0, "velocity": 0, "duration": 258}, {"note": 62, "velocity": 77, "duration": 71}, {"note": 62, "velocity": 72, "duration": 83}, {"note": 67, "velocity": 70, "duration": 173}, {"note": 0, "velocity": 0, "duration": 67}, {"note": 66, "velocity": 78, "duration": 253}, {"note": 64, "velocity": 77, "duration": 219}, {"note": 62, "velocity": 77, "duration": 78}, {"note": 66, "velocity": 77, "duration": 114}, {"note": 64, "velocity": 81, "duration": 393}, {"note": 0, "velocity": 0, "duration": 327}, {"note": 66, "velocity": 80, "duration": 240}, {"note": 62, "velocity": 78, "duration": 631}, {"note": 0, "velocity": 0, "duration": 89}, {"note": 64, "velocity": 78, "duration": 185}, {"note": 62, "velocity": 77, "duration": 577}, {"note": 0, "velocity": 0, "duration": 143}, {"note": 61, "velocity": 78, "duration": 95}, {"note": 59, "velocity": 77, "duration": 68}, {"note": 57, "velocity": 81, "duration": 205}, {"note": 62, "velocity": 80, "duration": 166}, {"note": 0, "velocity": 0, "duration": 74}, {"note": 66, "velocity": 80, "duration": 192}, {"note": 67, "velocity": 74, "duration": 214}, {"note": 64, "velocity": 81, "duration": 635}, {"note": 0, "velocity": 0, "duration": 85}, {"note": 66, "velocity": 76, "duration": 236}, {"note": 62, "velocity": 76, "duration": 509}, {"note": 0, "velocity": 0, "duration": 91}, {"note": 62, "velocity": 74, "duration": 105}, {"note": 64, "velocity": 78, "duration": 178}, {"note": 0, "velocity": 0, "duration": 62}, {"note": 62, "velocity": 77, "duration": 561}, {"note": 0, "velocity": 0, "duration": 159}, {"note": 61, "velocity": 78, "duration": 74}, {"note": 59, "velocity": 80, "duration": 86}, {"note": 57, "velocity": 78, "duration": 195}, {"note": 62, "velocity": 77, "duration": 186}, {"note": 66, "velocity": 77, "duration": 185}, {"note": 67, "velocity": 76, "duration": 186}, {"note": 64, "velocity": 80, "duration": 338}, {"note": 0, "velocity": 0, "duration": 142}, {"note": 71, "velocity": 78, "duration": 286}, {"note": 0, "velocity": 0, "duration": 74}, {"note": 69, "velocity": 77, "duration": 92}, {"note": 66, "velocity": 72, "duration": 185}, {"note": 69, "velocity": 78, "duration": 182}, {"note": 69, "velocity": 76, "duration": 167}, {"note": 0, "velocity": 0, "duration": 73}, {"note": 66, "velocity": 75, "duration": 169}, {"note": 0, "velocity": 0, "duration": 71}, {"note": 64, "velocity": 82, "duration": 419}, {"note": 0, "velocity": 0, "duration": 61}, {"note": 71, "velocity": 76, "duration": 294}, {"note": 0, "velocity": 0, "duration": 66}, {"note": 69, "velocity": 76, "duration": 77}, {"note": 66, "velocity": 75, "duration": 178}, {"note": 0, "velocity": 0, "duration": 62}, {"note": 69, "velocity": 76, "duration": 173}, {"note": 0, "velocity": 0, "duration": 67}, {"note": 69, "velocity": 78, "duration": 160}, {"note": 0, "velocity": 0, "duration": 80}, {"note": 66, "velocity": 77, "duration": 68}, {"note": 64, "velocity": 79, "duration": 64}, {"note": 62, "velocity": 76, "duration": 409}, {"note": 0, "velocity": 0, "duration": 71}, {"note": 62, "velocity": 78, "duration": 176}, {"note": 0, "velocity": 0, "duration": 64}, {"note": 64, "velocity": 77, "duration": 82}, {"note": 66, "velocity": 77, "duration": 531}, {"note": 0, "velocity": 0, "duration": 69}, {"note": 69, "velocity": 77, "duration": 178}, {"note": 0, "velocity": 0, "duration": 62}, {"note": 66, "velocity": 74, "duration": 90}, {"note": 64, "velocity": 78, "duration": 494}, {"note": 0, "velocity": 0, "duration": 106}, {"note": 69, "velocity": 77, "duration": 300}, {"note": 66, "velocity": 76, "duration": 111}, {"note": 62, "velocity": 71, "duration": 197}, {"note": 64, "velocity": 77, "duration": 193}, {"note": 66, "velocity": 76, "duration": 191}, {"note": 69, "velocity": 77, "duration": 179}, {"note": 0, "velocity": 0, "duration": 61}, {"note": 64, "velocity": 77, "duration": 403}, {"note": 0, "velocity": 0, "duration": 77}, {"note": 71, "velocity": 78, "duration": 286}, {"note": 0, "velocity": 0, "duration": 74}, {"note": 69, "velocity": 77, "duration": 92}, {"note": 66, "velocity": 72, "duration": 185}, {"note": 69, "velocity": 78, "duration": 182}, {"note": 69, "velocity": 76, "duration": 167}, {"note": 0, "velocity": 0, "duration": 73}, {"note": 66, "velocity": 75, "duration": 169}, {"note": 0, "velocity": 0, "duration": 71}, {"note": 64, "velocity": 82, "duration": 419}, {"note": 0, "velocity": 0, "duration": 61}, {"note": 71, "velocity": 76, "duration": 294}, {"note": 0, "velocity": 0, "duration": 66}, {"note": 69, "velocity": 76, "duration": 77}, {"note": 66, "velocity": 75, "duration": 178}, {"note": 0, "velocity": 0, "duration": 62}, {"note": 69, "velocity": 76, "duration": 173}, {"note": 0, "velocity": 0, "duration": 67}, {"note": 69, "velocity": 78, "duration": 160}, {"note": 0, "velocity": 0, "duration": 80}, {"note": 66, "velocity": 77, "duration": 68}, {"note": 64, "velocity": 79, "duration": 64}, {"note": 62, "velocity": 76, "duration": 409}, {"note": 0, "velocity": 0, "duration": 71}, {"note": 62, "velocity": 78, "duration": 176}, {"note": 0, "velocity": 0, "duration": 64}, {"note": 64, "velocity": 77, "duration": 82}, {"note": 66, "velocity": 77, "duration": 531}, {"note": 0, "velocity": 0, "duration": 69}, {"note": 69, "velocity": 77, "duration": 178}, {"note": 0, "velocity": 0, "duration": 62}, {"note": 66, "velocity": 74, "duration": 90}, {"note": 64, "velocity": 78, "duration": 494}, {"note": 0, "velocity": 0, "duration": 106}, {"note": 69, "velocity": 77, "duration": 300}, {"note": 66, "velocity": 76, "duration": 111}, {"note": 62, "velocity": 71, "duration": 197}, {"note": 64, "velocity": 77, "duration": 193}, {"note": 66, "velocity": 76, "duration": 191}, {"note": 69, "velocity": 77, "duration": 179}, {"note": 0, "velocity": 0, "duration": 61}, {"note": 64, "velocity": 77, "duration": 403}, {"note": 0, "velocity": 0, "duration": 317}, {"note": 66, "velocity": 77, "duration": 234}, {"note": 62, "velocity": 77, "duration": 1042}, {"note": 0, "velocity": 0, "duration": 6638}, {"note": 62, "velocity": 76, "duration": 179}, {"note": 0, "velocity": 0, "duration": 61}, {"note": 66, "velocity": 71, "duration": 176}, {"note": 0, "velocity": 0, "duration": 64}, {"note": 64, "velocity": 76, "duration": 164}, {"note": 0, "velocity": 0, "duration": 76}, {"note": 66, "velocity": 67, "duration": 178}, {"note": 0, "velocity": 0, "duration": 62}, {"note": 62, "velocity": 66, "duration": 179}, {"note": 0, "velocity": 0, "duration": 61}, {"note": 66, "velocity": 74, "duration": 179}, {"note": 0, "velocity": 0, "duration": 61}, {"note": 64, "velocity": 77, "duration": 313}, {"note": 0, "velocity": 0, "duration": 167}, {"note": 62, "velocity": 73, "duration": 185}, {"note": 66, "velocity": 67, "duration": 143}, {"note": 0, "velocity": 0, "duration": 97}, {"note": 64, "velocity": 76, "duration": 182}, {"note": 66, "velocity": 65, "duration": 209}, {"note": 62, "velocity": 75, "duration": 610}, {"note": 0, "velocity": 0, "duration": 350}, {"note": 62, "velocity": 65, "duration": 219}, {"note": 66, "velocity": 64, "duration": 188}, {"note": 64, "velocity": 77, "duration": 179}, {"note": 0, "velocity": 0, "duration": 61}, {"note": 66, "velocity": 69, "duration": 227}, {"note": 69, "velocity": 72, "duration": 623}, {"note": 0, "velocity": 0, "duration": 97}, {"note": 66, "velocity": 69, "duration": 112}, {"note": 64, "velocity": 76, "duration": 85}, {"note": 62, "velocity": 74, "duration": 960}, {"note": 0, "velocity": 0, "duration": 480}, {"note": 66, "velocity": 80, "duration": 338}, {"note": 64, "velocity": 80, "duration": 55}, {"note": 0, "velocity": 0, "duration": 65}, {"note": 62, "velocity": 77, "duration": 226}, {"note": 57, "velocity": 78, "duration": 191}, {"note": 62, "velocity": 78, "duration": 170}, {"note": 0, "velocity": 0, "duration": 70}, {"note": 66, "velocity": 67, "duration": 204}, {"note": 64, "velocity": 77, "duration": 419}, {"note": 0, "velocity": 0, "duration": 61}, {"note": 66, "velocity": 80, "duration": 263}, {"note": 0, "velocity": 0, "duration": 97}, {"note": 64, "velocity": 68, "duration": 84}, {"note": 62, "velocity": 78, "duration": 150}, {"note": 0, "velocity": 0, "duration": 90}, {"note": 54, "velocity": 78, "duration": 182}, {"note": 59, "velocity": 72, "duration": 182}, {"note": 62, "velocity": 63, "duration": 193}, {"note": 61, "velocity": 77, "duration": 408}, {"note": 0, "velocity": 0, "duration": 72}, {"note": 62, "velocity": 76, "duration": 174}, {"note": 0, "velocity": 0, "duration": 66}, {"note": 61, "velocity": 80, "duration": 98}, {"note": 59, "velocity": 74, "duration": 525}, {"note": 0, "velocity": 0, "duration": 75}, {"note": 61, "velocity": 77, "duration": 191}, {"note": 59, "velocity": 76, "duration": 84}, {"note": 57, "velocity": 74, "duration": 582}, {"note": 0, "velocity": 0, "duration": 258}, {"note": 62, "velocity": 77, "duration": 71}, {"note": 62, "velocity": 72, "duration": 83}, {"note": 67, "velocity": 70, "duration": 173}, {"note": 0, "velocity": 0, "duration": 67}, {"note": 66, "velocity": 78, "duration": 253}, {"note": 64, "velocity": 77, "duration": 219}, {"note": 62, "velocity": 77, "duration": 78}, {"note": 66, "velocity": 77, "duration": 114}, {"note": 64, "velocity": 81, "duration": 393}, {"note": 0, "velocity": 0, "duration": 87}, {"note": 66, "velocity": 80, "duration": 338}, {"note": 64, "velocity": 80, "duration": 55}, {"note": 0, "velocity": 0, "duration": 65}, {"note": 62, "velocity": 77, "duration": 226}, {"note": 57, "velocity": 78, "duration": 191}, {"note": 62, "velocity": 78, "duration": 170}, {"note": 0, "velocity": 0, "duration": 70}, {"note": 66, "velocity": 67, "duration": 204}, {"note": 64, "velocity": 77, "duration": 419}, {"note": 0, "velocity": 0, "duration": 61}, {"note": 66, "velocity": 80, "duration": 263}, {"note": 0, "velocity": 0, "duration": 97}, {"note": 64, "velocity": 68, "duration": 84}, {"note": 62, "velocity": 78, "duration": 150}, {"note": 0, "velocity": 0, "duration": 90}, {"note": 54, "velocity": 78, "duration": 182}, {"note": 59, "velocity": 72, "duration": 182}, {"note": 62, "velocity": 63, "duration": 193}, {"note": 61, "velocity": 77, "duration": 408}, {"note": 0, "velocity": 0, "duration": 72}, {"note": 62, "velocity": 76, "duration": 174}, {"note": 0, "velocity": 0, "duration": 66}, {"note": 61, "velocity": 80, "duration": 98}, {"note": 59, "velocity": 74, "duration": 525}, {"note": 0, "velocity": 0, "duration": 75}, {"note": 61, "velocity": 77, "duration": 191}, {"note": 59, "velocity": 76, "duration": 84}, {"note": 57, "velocity": 74, "duration": 582}, {"note": 0, "velocity": 0, "duration": 258}, {"note": 62, "velocity": 77, "duration": 71}, {"note": 62, "velocity": 72, "duration": 83}, {"note": 67, "velocity": 70, "duration": 173}, {"note": 0, "velocity": 0, "duration": 67}, {"note": 66, "velocity": 78, "duration": 253}, {"note": 64, "velocity": 77, "duration": 219}, {"note": 62, "velocity": 77, "duration": 78}, {"note": 66, "velocity": 77, "duration": 114}, {"note": 64, "velocity": 81, "duration": 393}, {"note": 0, "velocity": 0, "duration": 327}, {"note": 66, "velocity": 80, "duration": 240}, {"note": 62, "velocity": 78, "duration": 631}, {"note": 0, "velocity": 0, "duration": 89}, {"note": 64, "velocity": 78, "duration": 185}, {"note": 62, "velocity": 77, "duration": 577}, {"note": 0, "velocity": 0, "duration": 143}, {"note": 61, "velocity": 78, "duration": 95}, {"note": 59, "velocity": 77, "duration": 68}, {"note": 57, "velocity": 81, "duration": 205}, {"note": 62, "velocity": 80, "duration": 166}, {"note": 0, "velocity": 0, "duration": 74}, {"note": 66, "velocity": 80, "duration": 192}, {"note": 67, "velocity": 74, "duration": 214}, {"note": 64, "velocity": 81, "duration": 635}, {"note": 0, "velocity": 0, "duration": 85}, {"note": 66, "velocity": 76, "duration": 236}, {"note": 62, "velocity": 76, "duration": 509}, {"note": 0, "velocity": 0, "duration": 91}, {"note": 62, "velocity": 74, "duration": 105}, {"note": 64, "velocity": 78, "duration": 178}, {"note": 0, "velocity": 0, "duration": 62}, {"note": 62, "velocity": 77, "duration": 561}, {"note": 0, "velocity": 0, "duration": 159}, {"note": 61, "velocity": 78, "duration": 74}, {"note": 59, "velocity": 80, "duration": 86}, {"note": 57, "velocity": 78, "duration": 195}, {"note": 62, "velocity": 77, "duration": 186}, {"note": 66, "velocity": 77, "duration": 185}, {"note": 67, "velocity": 76, "duration": 186}, {"note": 64, "velocity": 80, "duration": 338}, {"note": 0, "velocity": 0, "duration": 142}, {"note": 71, "velocity": 78, "duration": 286}, {"note": 0, "velocity": 0, "duration": 74}, {"note": 69, "velocity": 77, "duration": 92}, {"note": 66, "velocity": 72, "duration": 185}, {"note": 69, "velocity": 78, "duration": 182}, {"note": 69, "velocity": 76, "duration": 167}, {"note": 0, "velocity": 0, "duration": 73}, {"note": 66, "velocity": 75, "duration": 169}, {"note": 0, "velocity": 0, "duration": 71}, {"note": 64, "velocity": 82, "duration": 419}, {"note": 0, "velocity": 0, "duration": 61}, {"note": 71, "velocity": 76, "duration": 294}, {"note": 0, "velocity": 0, "duration": 66}, {"note": 69, "velocity": 76, "duration": 77}, {"note": 66, "velocity": 75, "duration": 178}, {"note": 0, "velocity": 0, "duration": 62}, {"note": 69, "velocity": 76, "duration": 173}, {"note": 0, "velocity": 0, "duration": 67}, {"note": 69, "velocity": 78, "duration": 160}, {"note": 0, "velocity": 0, "duration": 80}, {"note": 66, "velocity": 77, "duration": 68}, {"note": 64, "velocity": 79, "duration": 64}, {"note": 62, "velocity": 76, "duration": 409}, {"note": 0, "velocity": 0, "duration": 71}, {"note": 62, "velocity": 78, "duration": 176}, {"note": 0, "velocity": 0, "duration": 64}, {"note": 64, "velocity": 77, "duration": 82}, {"note": 66, "velocity": 77, "duration": 531}, {"note": 0, "velocity": 0, "duration": 69}, {"note": 69, "velocity": 77, "duration": 178}, {"note": 0, "velocity": 0, "duration": 62}, {"note": 66, "velocity": 74, "duration": 90}, {"note": 64, "velocity": 78, "duration": 494}, {"note": 0, "velocity": 0, "duration": 106}, {"note": 69, "velocity": 77, "duration": 300}, {"note": 66, "velocity": 76, "duration": 111}, {"note": 62, "velocity": 71, "duration": 197}, {"note": 64, "velocity": 77, "duration": 193}, {"note": 66, "velocity": 76, "duration": 191}, {"note": 69, "velocity": 77, "duration": 179}, {"note": 0, "velocity": 0, "duration": 61}, {"note": 64, "velocity": 77, "duration": 403}, {"note": 0, "velocity": 0, "duration": 77}, {"note": 71, "velocity": 78, "duration": 286}, {"note": 0, "velocity": 0, "duration": 74}, {"note": 69, "velocity": 77, "duration": 92}, {"note": 66, "velocity": 72, "duration": 185}, {"note": 69, "velocity": 78, "duration": 182}, {"note": 69, "velocity": 76, "duration": 167}, {"note": 0, "velocity": 0, "duration": 73}, {"note": 66, "velocity": 75, "duration": 169}, {"note": 0, "velocity": 0, "duration": 71}, {"note": 64, "velocity": 82, "duration": 419}, {"note": 0, "velocity": 0, "duration": 61}, {"note": 71, "velocity": 76, "duration": 294}, {"note": 0, "velocity": 0, "duration": 66}, {"note": 69, "velocity": 76, "duration": 77}, {"note": 66, "velocity": 75, "duration": 178}, {"note": 0, "velocity": 0, "duration": 62}, {"note": 69, "velocity": 76, "duration": 173}, {"note": 0, "velocity": 0, "duration": 67}, {"note": 69, "velocity": 78, "duration": 160}, {"note": 0, "velocity": 0, "duration": 80}, {"note": 66, "velocity": 77, "duration": 68}, {"note": 64, "velocity": 79, "duration": 64}, {"note": 62, "velocity": 76, "duration": 409}, {"note": 0, "velocity": 0, "duration": 71}, {"note": 62, "velocity": 78, "duration": 176}, {"note": 0, "velocity": 0, "duration": 64}, {"note": 64, "velocity": 77, "duration": 82}, {"note": 66, "velocity": 77, "duration": 531}, {"note": 0, "velocity": 0, "duration": 69}, {"note": 69, "velocity": 77, "duration": 178}, {"note": 0, "velocity": 0, "duration": 62}, {"note": 66, "velocity": 74, "duration": 90}, {"note": 64, "velocity": 78, "duration": 494}, {"note": 0, "velocity": 0, "duration": 106}, {"note": 69, "velocity": 77, "duration": 300}, {"note": 66, "velocity": 76, "duration": 111}, {"note": 62, "velocity": 71, "duration": 197}, {"note": 64, "velocity": 77, "duration": 193}, {"note": 66, "velocity": 76, "duration": 191}, {"note": 69, "velocity": 77, "duration": 179}, {"note": 0, "velocity": 0, "duration": 61}, {"note": 64, "velocity": 77, "duration": 403}, {"note": 0, "velocity": 0, "duration": 317}, {"note": 66, "velocity": 77, "duration": 234}, {"note": 62, "velocity": 77, "duration": 1042}, {"note": 0, "velocity": 0, "duration": 14798}, {"note": 71, "velocity": 78, "duration": 286}, {"note": 0, "velocity": 0, "duration": 74}, {"note": 69, "velocity": 77, "duration": 92}, {"note": 66, "velocity": 72, "duration": 185}, {"note": 69, "velocity": 78, "duration": 182}, {"note": 69, "velocity": 76, "duration": 167}, {"note": 0, "velocity": 0, "duration": 73}, {"note": 66, "velocity": 75, "duration": 169}, {"note": 0, "velocity": 0, "duration": 71}, {"note": 64, "velocity": 82, "duration": 419}, {"note": 0, "velocity": 0, "duration": 61}, {"note": 71, "velocity": 76, "duration": 294}, {"note": 0, "velocity": 0, "duration": 66}, {"note": 69, "velocity": 76, "duration": 77}, {"note": 66, "velocity": 75, "duration": 178}, {"note": 0, "velocity": 0, "duration": 62}, {"note": 69, "velocity": 76, "duration": 173}, {"note": 0, "velocity": 0, "duration": 67}, {"note": 69, "velocity": 78, "duration": 160}, {"note": 0, "velocity": 0, "duration": 80}, {"note": 66, "velocity": 77, "duration": 68}, {"note": 64, "velocity": 79, "duration": 64}, {"note": 62, "velocity": 76, "duration": 409}, {"note": 0, "velocity": 0, "duration": 71}, {"note": 62, "velocity": 78, "duration": 176}, {"note": 0, "velocity": 0, "duration": 64}, {"note": 64, "velocity": 77, "duration": 82}, {"note": 66, "velocity": 77, "duration": 531}, {"note": 0, "velocity": 0, "duration": 69}, {"note": 69, "velocity": 77, "duration": 178}, {"note": 0, "velocity": 0, "duration": 62}, {"note": 66, "velocity": 74, "duration": 90}, {"note": 64, "velocity": 78, "duration": 494}, {"note": 0, "velocity": 0, "duration": 106}, {"note": 69, "velocity": 77, "duration": 300}, {"note": 66, "velocity": 76, "duration": 111}, {"note": 62, "velocity": 71, "duration": 197}, {"note": 64, "velocity": 77, "duration": 193}, {"note": 66, "velocity": 76, "duration": 191}, {"note": 69, "velocity": 77, "duration": 179}, {"note": 0, "velocity": 0, "duration": 61}, {"note": 64, "velocity": 77, "duration": 403}, {"note": 0, "velocity": 0, "duration": 77}, {"note": 71, "velocity": 78, "duration": 286}, {"note": 0, "velocity": 0, "duration": 74}, {"note": 69, "velocity": 77, "duration": 92}, {"note": 66, "velocity": 72, "duration": 185}, {"note": 69, "velocity": 78, "duration": 182}, {"note": 69, "velocity": 76, "duration": 167}, {"note": 0, "velocity": 0, "duration": 73}, {"note": 66, "velocity": 75, "duration": 169}, {"note": 0, "velocity": 0, "duration": 71}, {"note": 64, "velocity": 82, "duration": 419}, {"note": 0, "velocity": 0, "duration": 61}, {"note": 71, "velocity": 76, "duration": 294}, {"note": 0, "velocity": 0, "duration": 66}, {"note": 69, "velocity": 76, "duration": 77}, {"note": 66, "velocity": 75, "duration": 178}, {"note": 0, "velocity": 0, "duration": 62}, {"note": 69, "velocity": 76, "duration": 173}, {"note": 0, "velocity": 0, "duration": 67}, {"note": 69, "velocity": 78, "duration": 160}, {"note": 0, "velocity": 0, "duration": 80}, {"note": 66, "velocity": 77, "duration": 68}, {"note": 64, "velocity": 79, "duration": 64}, {"note": 62, "velocity": 76, "duration": 409}, {"note": 0, "velocity": 0, "duration": 71}, {"note": 62, "velocity": 78, "duration": 176}, {"note": 0, "velocity": 0, "duration": 64}, {"note": 64, "velocity": 77, "duration": 82}, {"note": 66, "velocity": 77, "duration": 531}, {"note": 0, "velocity": 0, "duration": 69}, {"note": 69, "velocity": 77, "duration": 178}, {"note": 0, "velocity": 0, "duration": 62}, {"note": 66, "velocity": 74, "duration": 90}, {"note": 64, "velocity": 78, "duration": 494}, {"note": 0, "velocity": 0, "duration": 106}, {"note": 69, "velocity": 77, "duration": 300}, {"note": 66, "velocity": 76, "duration": 111}, {"note": 62, "velocity": 71, "duration": 197}, {"note": 64, "velocity": 77, "duration": 193}, {"note": 66, "velocity": 76, "duration": 191}, {"note": 69, "velocity": 77, "duration": 179}, {"note": 0, "velocity": 0, "duration": 61}, {"note": 64, "velocity": 77, "duration": 403}, {"note": 0, "velocity": 0, "duration": 77}, {"note": 71, "velocity": 78, "duration": 286}, {"note": 0, "velocity": 0, "duration": 74}, {"note": 69, "velocity": 77, "duration": 92}, {"note": 66, "velocity": 72, "duration": 185}, {"note": 69, "velocity": 78, "duration": 182}, {"note": 69, "velocity": 76, "duration": 167}, {"note": 0, "velocity": 0, "duration": 73}, {"note": 66, "velocity": 75, "duration": 169}, {"note": 0, "velocity": 0, "duration": 71}, {"note": 64, "velocity": 82, "duration": 419}, {"note": 0, "velocity": 0, "duration": 61}, {"note": 71, "velocity": 76, "duration": 294}, {"note": 0, "velocity": 0, "duration": 66}, {"note": 69, "velocity": 76, "duration": 77}, {"note": 66, "velocity": 75, "duration": 178}, {"note": 0, "velocity": 0, "duration": 62}, {"note": 69, "velocity": 76, "duration": 173}, {"note": 0, "velocity": 0, "duration": 67}, {"note": 69, "velocity": 78, "duration": 160}, {"note": 0, "velocity": 0, "duration": 80}, {"note": 66, "velocity": 77, "duration": 68}, {"note": 64, "velocity": 79, "duration": 64}, {"note": 62, "velocity": 76, "duration": 409}, {"note": 0, "velocity": 0, "duration": 71}, {"note": 62, "velocity": 78, "duration": 176}, {"note": 0, "velocity": 0, "duration": 64}, {"note": 64, "velocity": 77, "duration": 82}, {"note": 66, "velocity": 77, "duration": 531}, {"note": 0, "velocity": 0, "duration": 69}, {"note": 69, "velocity": 77, "duration": 178}, {"note": 0, "velocity": 0, "duration": 62}, {"note": 66, "velocity": 74, "duration": 90}, {"note": 64, "velocity": 78, "duration": 494}, {"note": 0, "velocity": 0, "duration": 106}, {"note": 69, "velocity": 77, "duration": 300}, {"note": 66, "velocity": 76, "duration": 111}, {"note": 62, "velocity": 71, "duration": 197}, {"note": 64, "velocity": 77, "duration": 193}, {"note": 66, "velocity": 76, "duration": 191}, {"note": 69, "velocity": 77, "duration": 179}, {"note": 0, "velocity": 0, "duration": 61}, {"note": 64, "velocity": 77, "duration": 403}, {"note": 0, "velocity": 0, "duration": 77}, {"note": 71, "velocity": 78, "duration": 286}, {"note": 0, "velocity": 0, "duration": 74}, {"note": 69, "velocity": 77, "duration": 92}, {"note": 66, "velocity": 72, "duration": 185}, {"note": 69, "velocity": 78, "duration": 182}, {"note": 69, "velocity": 76, "duration": 167}, {"note": 0, "velocity": 0, "duration": 73}, {"note": 66, "velocity": 75, "duration": 169}, {"note": 0, "velocity": 0, "duration": 71}, {"note": 64, "velocity": 82, "duration": 419}, {"note": 0, "velocity": 0, "duration": 61}, {"note": 71, "velocity": 76, "duration": 294}, {"note": 0, "velocity": 0, "duration": 66}, {"note": 69, "velocity": 76, "duration": 77}, {"note": 66, "velocity": 75, "duration": 178}, {"note": 0, "velocity": 0, "duration": 62}, {"note": 69, "velocity": 76, "duration": 173}, {"note": 0, "velocity": 0, "duration": 67}, {"note": 69, "velocity": 78, "duration": 160}, {"note": 0, "velocity": 0, "duration": 80}, {"note": 66, "velocity": 77, "duration": 68}, {"note": 64, "velocity": 79, "duration": 64}, {"note": 62, "velocity": 76, "duration": 409}, {"note": 0, "velocity": 0, "duration": 71}, {"note": 62, "velocity": 78, "duration": 176}, {"note": 0, "velocity": 0, "duration": 64}, {"note": 64, "velocity": 77, "duration": 82}, {"note": 66, "velocity": 77, "duration": 531}, {"note": 0, "velocity": 0, "duration": 69}, {"note": 69, "velocity": 77, "duration": 178}, {"note": 0, "velocity": 0, "duration": 62}, {"note": 66, "velocity": 74, "duration": 90}, {"note": 64, "velocity": 78, "duration": 494}, {"note": 0, "velocity": 0, "duration": 106}, {"note": 69, "velocity": 77, "duration": 300}, {"note": 66, "velocity": 76, "duration": 111}, {"note": 62, "velocity": 71, "duration": 197}, {"note": 64, "velocity": 77, "duration": 193}, {"note": 66, "velocity": 76, "duration": 191}, {"note": 69, "velocity": 77, "duration": 179}, {"note": 0, "velocity": 0, "duration": 61}, {"note": 64, "velocity": 77, "duration": 403}, {"note": 0, "velocity": 0, "duration": 317}, {"note": 66, "velocity": 77, "duration": 234}, {"note": 62, "velocity": 77, "duration": 1042}]]