[[{"note": 72, "velocity": 116, "duration": 132}, {"note": 0, "velocity": 0, "duration": 108}, {"note": 72, "velocity": 116, "duration": 145}, {"note": 0, "velocity": 0, "duration": 95}, {"note": 72, "velocity": 114, "duration": 149}, {"note": 0, "velocity": 0, "duration": 91}, {"note": 72, "velocity": 113, "duration": 197}, {"note": 70, "velocity": 119, "duration": 222}, {"note": 67, "velocity": 114, "duration": 153}, {"note": 0, "velocity": 0, "duration": 87}, {"note": 67, "velocity": 113, "duration": 205}, {"note": 70, "velocity": 116, "duration": 168}, {"note": 0, "velocity": 0, "duration": 72}, {"note": 70, "velocity": 100, "duration": 83}, {"note": 72, "velocity": 117, "duration": 228}, {"note": 0, "velocity": 0, "duration": 1572}, {"note": 72, "velocity": 114, "duration": 138}, {"note": 0, "velocity": 0, "duration": 102}, {"note": 72, "velocity": 108, "duration": 130}, {"note": 0, "velocity": 0, "duration": 110}, {"note": 74, "velocity": 100, "duration": 68}, {"note": 72, "velocity": 114, "duration": 144}, {"note": 70, "velocity": 109, "duration": 156}, {"note": 0, "velocity": 0, "duration": 84}, {"note": 72, "velocity": 114, "duration": 183}, {"note": 75, "velocity": 119, "duration": 207}, {"note": 72, "velocity": 104, "duration": 205}, {"note": 70, "velocity": 113, "duration": 231}, {"note": 67, "velocity": 113, "duration": 111}, {"note": 70, "velocity": 100, "duration": 147}, {"note": 67, "velocity": 100, "duration": 579}, {"note": 0, "velocity": 0, "duration": 1101}, {"note": 72, "velocity": 100, "duration": 154}, {"note": 0, "velocity": 0, "duration": 86}, {"note": 72, "velocity": 102, "duration": 128}, {"note": 0, "velocity": 0, "duration": 112}, {"note": 72, "velocity": 108, "duration": 204}, {"note": 67, "velocity": 108, "duration": 150}, {"note": 0, "velocity": 0, "duration": 90}, {"note": 67, "velocity": 104, "duration": 183}, {"note": 70, "velocity": 109, "duration": 189}, {"note": 72, "velocity": 110, "duration": 152}, {"note": 0, "velocity": 0, "duration": 88}, {"note": 75, "velocity": 109, "duration": 159}, {"note": 0, "velocity": 0, "duration": 81}, {"note": 77, "velocity": 107, "duration": 147}, {"note": 0, "velocity": 0, "duration": 93}, {"note": 77, "velocity": 108, "duration": 152}, {"note": 0, "velocity": 0, "duration": 88}, {"note": 77, "velocity": 107, "duration": 218}, {"note": 75, "velocity": 113, "duration": 221}, {"note": 77, "velocity": 102, "duration": 206}, {"note": 0, "velocity": 0, "duration": 754}, {"note": 74, "velocity": 116, "duration": 108}, {"note": 0, "velocity": 0, "duration": 132}, {"note": 74, "velocity": 113, "duration": 119}, {"note": 0, "velocity": 0, "duration": 121}, {"note": 74, "velocity": 108, "duration": 181}, {"note": 72, "velocity": 107, "duration": 210}, {"note": 70, "velocity": 106, "duration": 187}, {"note": 67, "velocity": 107, "duration": 228}, {"note": 70, "velocity": 116, "duration": 191}, {"note": 72, "velocity": 114, "duration": 150}, {"note": 0, "velocity": 0, "duration": 90}, {"note": 72, "velocity": 116, "duration": 270}, {"note": 0, "velocity": 0, "duration": 1650}, {"note": 72, "velocity": 116, "duration": 132}, {"note": 0, "velocity": 0, "duration": 108}, {"note": 72, "velocity": 116, "duration": 145}, {"note": 0, "velocity": 0, "duration": 95}, {"note": 72, "velocity": 114, "duration": 149}, {"note": 0, "velocity": 0, "duration": 91}, {"note": 72, "velocity": 113, "duration": 197}, {"note": 70, "velocity": 119, "duration": 222}, {"note": 67, "velocity": 114, "duration": 153}, {"note": 0, "velocity": 0, "duration": 87}, {"note": 67, "velocity": 113, "duration": 205}, {"note": 70, "velocity": 116, "duration": 168}, {"note": 0, "velocity": 0, "duration": 72}, {"note": 72, "velocity": 117, "duration": 98}, {"note": 70, "velocity": 100, "duration": 70}, {"note": 72, "velocity": 100, "duration": 196}, {"note": 0, "velocity": 0, "duration": 1484}, {"note": 72, "velocity": 114, "duration": 138}, {"note": 0, "velocity": 0, "duration": 102}, {"note": 72, "velocity": 108, "duration": 130}, {"note": 0, "velocity": 0, "duration": 110}, {"note": 72, "velocity": 114, "duration": 205}, {"note": 70, "velocity": 109, "duration": 156}, {"note": 0, "velocity": 0, "duration": 84}, {"note": 72, "velocity": 114, "duration": 183}, {"note": 75, "velocity": 119, "duration": 207}, {"note": 72, "velocity": 104, "duration": 205}, {"note": 70, "velocity": 113, "duration": 231}, {"note": 70, "velocity": 100, "duration": 68}, {"note": 67, "velocity": 113, "duration": 337}, {"note": 0, "velocity": 0, "duration": 1486}, {"note": 72, "velocity": 100, "duration": 154}, {"note": 0, "velocity": 0, "duration": 86}, {"note": 72, "velocity": 102, "duration": 128}, {"note": 0, "velocity": 0, "duration": 112}, {"note": 72, "velocity": 108, "duration": 204}, {"note": 67, "velocity": 108, "duration": 150}, {"note": 0, "velocity": 0, "duration": 90}, {"note": 72, "velocity": 104, "duration": 183}, {"note": 72, "velocity": 109, "duration": 189}, {"note": 72, "velocity": 110, "duration": 152}, {"note": 0, "velocity": 0, "duration": 88}, {"note": 75, "velocity": 109, "duration": 159}, {"note": 0, "velocity": 0, "duration": 81}, {"note": 77, "velocity": 107, "duration": 147}, {"note": 0, "velocity": 0, "duration": 93}, {"note": 77, "velocity": 108, "duration": 152}, {"note": 0, "velocity": 0, "duration": 88}, {"note": 77, "velocity": 107, "duration": 218}, {"note": 75, "velocity": 113, "duration": 221}, {"note": 75, "velocity": 100, "duration": 102}, {"note": 77, "velocity": 102, "duration": 335}, {"note": 0, "velocity": 0, "duration": 385}, {"note": 67, "velocity": 116, "duration": 108}, {"note": 74, "velocity": 116, "duration": 108}, {"note": 0, "velocity": 0, "duration": 132}, {"note": 74, "velocity": 113, "duration": 119}, {"note": 74, "velocity": 113, "duration": 119}, {"note": 74, "velocity": 108, "duration": 181}, {"note": 72, "velocity": 107, "duration": 210}, {"note": 70, "velocity": 106, "duration": 187}, {"note": 67, "velocity": 107, "duration": 228}, {"note": 70, "velocity": 116, "duration": 191}, {"note": 72, "velocity": 114, "duration": 150}, {"note": 0, "velocity": 0, "duration": 90}, {"note": 72, "velocity": 116, "duration": 270}, {"note": 0, "velocity": 0, "duration": 1410}, {"note": 72, "velocity": 113, "duration": 69}, {"note": 72, "velocity": 100, "duration": 81}, {"note": 79, "velocity": 120, "duration": 146}, {"note": 0, "velocity": 0, "duration": 94}, {"note": 79, "velocity": 117, "duration": 53}, {"note": 0, "velocity": 0, "duration": 67}, {"note": 79, "velocity": 108, "duration": 51}, {"note": 0, "velocity": 0, "duration": 69}, {"note": 79, "velocity": 117, "duration": 92}, {"note": 0, "velocity": 0, "duration": 148}, {"note": 72, "velocity": 116, "duration": 146}, {"note": 0, "velocity": 0, "duration": 94}, {"note": 79, "velocity": 119, "duration": 164}, {"note": 0, "velocity": 0, "duration": 76}, {"note": 77, "velocity": 113, "duration": 128}, {"note": 0, "velocity": 0, "duration": 112}, {"note": 77, "velocity": 120, "duration": 143}, {"note": 0, "velocity": 0, "duration": 97}, {"note": 70, "velocity": 110, "duration": 61}, {"note": 70, "velocity": 110, "duration": 75}, {"note": 77, "velocity": 117, "duration": 124}, {"note": 0, "velocity": 0, "duration": 116}, {"note": 77, "velocity": 116, "duration": 128}, {"note": 77, "velocity": 116, "duration": 8}, {"note": 0, "velocity": 0, "duration": 112}, {"note": 77, "velocity": 119, "duration": 8}, {"note": 0, "velocity": 0, "duration": 232}, {"note": 70, "velocity": 116, "duration": 119}, {"note": 0, "velocity": 0, "duration": 121}, {"note": 75, "velocity": 123, "duration": 149}, {"note": 0, "velocity": 0, "duration": 91}, {"note": 75, "velocity": 114, "duration": 133}, {"note": 0, "velocity": 0, "duration": 107}, {"note": 75, "velocity": 110, "duration": 166}, {"note": 0, "velocity": 0, "duration": 74}, {"note": 72, "velocity": 107, "duration": 66}, {"note": 72, "velocity": 98, "duration": 76}, {"note": 75, "velocity": 119, "duration": 99}, {"note": 0, "velocity": 0, "duration": 141}, {"note": 75, "velocity": 119, "duration": 124}, {"note": 0, "velocity": 0, "duration": 116}, {"note": 75, "velocity": 123, "duration": 117}, {"note": 0, "velocity": 0, "duration": 123}, {"note": 75, "velocity": 116, "duration": 57}, {"note": 0, "velocity": 0, "duration": 63}, {"note": 79, "velocity": 108, "duration": 73}, {"note": 77, "velocity": 110, "duration": 163}, {"note": 0, "velocity": 0, "duration": 77}, {"note": 77, "velocity": 114, "duration": 110}, {"note": 0, "velocity": 0, "duration": 130}, {"note": 77, "velocity": 119, "duration": 152}, {"note": 0, "velocity": 0, "duration": 328}, {"note": 77, "velocity": 117, "duration": 131}, {"note": 0, "velocity": 0, "duration": 109}, {"note": 77, "velocity": 117, "duration": 179}, {"note": 0, "velocity": 0, "duration": 61}, {"note": 75, "velocity": 113, "duration": 138}, {"note": 0, "velocity": 0, "duration": 102}, {"note": 77, "velocity": 116, "duration": 129}, {"note": 0, "velocity": 0, "duration": 111}, {"note": 79, "velocity": 119, "duration": 216}, {"note": 0, "velocity": 0, "duration": 504}, {"note": 72, "velocity": 113, "duration": 69}, {"note": 72, "velocity": 100, "duration": 81}, {"note": 79, "velocity": 120, "duration": 146}, {"note": 0, "velocity": 0, "duration": 94}, {"note": 79, "velocity": 117, "duration": 53}, {"note": 0, "velocity": 0, "duration": 67}, {"note": 79, "velocity": 108, "duration": 51}, {"note": 0, "velocity": 0, "duration": 69}, {"note": 79, "velocity": 117, "duration": 92}, {"note": 0, "velocity": 0, "duration": 148}, {"note": 72, "velocity": 116, "duration": 146}, {"note": 0, "velocity": 0, "duration": 94}, {"note": 79, "velocity": 119, "duration": 164}, {"note": 0, "velocity": 0, "duration": 76}, {"note": 77, "velocity": 113, "duration": 128}, {"note": 0, "velocity": 0, "duration": 112}, {"note": 77, "velocity": 120, "duration": 143}, {"note": 0, "velocity": 0, "duration": 97}, {"note": 70, "velocity": 110, "duration": 61}, {"note": 70, "velocity": 110, "duration": 75}, {"note": 77, "velocity": 117, "duration": 124}, {"note": 0, "velocity": 0, "duration": 116}, {"note": 77, "velocity": 116, "duration": 128}, {"note": 77, "velocity": 116, "duration": 8}, {"note": 0, "velocity": 0, "duration": 112}, {"note": 77, "velocity": 119, "duration": 8}, {"note": 0, "velocity": 0, "duration": 232}, {"note": 70, "velocity": 116, "duration": 119}, {"note": 0, "velocity": 0, "duration": 121}, {"note": 75, "velocity": 123, "duration": 149}, {"note": 0, "velocity": 0, "duration": 91}, {"note": 75, "velocity": 114, "duration": 133}, {"note": 0, "velocity": 0, "duration": 107}, {"note": 75, "velocity": 110, "duration": 166}, {"note": 0, "velocity": 0, "duration": 74}, {"note": 72, "velocity": 107, "duration": 66}, {"note": 72, "velocity": 98, "duration": 76}, {"note": 75, "velocity": 119, "duration": 99}, {"note": 0, "velocity": 0, "duration": 141}, {"note": 75, "velocity": 119, "duration": 124}, {"note": 0, "velocity": 0, "duration": 116}, {"note": 75, "velocity": 123, "duration": 117}, {"note": 0, "velocity": 0, "duration": 123}, {"note": 75, "velocity": 116, "duration": 57}, {"note": 0, "velocity": 0, "duration": 63}, {"note": 79, "velocity": 108, "duration": 73}, {"note": 77, "velocity": 110, "duration": 163}, {"note": 0, "velocity": 0, "duration": 77}, {"note": 77, "velocity": 114, "duration": 110}, {"note": 0, "velocity": 0, "duration": 130}, {"note": 77, "velocity": 119, "duration": 152}, {"note": 0, "velocity": 0, "duration": 328}, {"note": 74, "velocity": 116, "duration": 139}, {"note": 0, "velocity": 0, "duration": 101}, {"note": 74, "velocity": 113, "duration": 159}, {"note": 0, "velocity": 0, "duration": 81}, {"note": 70, "velocity": 119, "duration": 144}, {"note": 0, "velocity": 0, "duration": 96}, {"note": 72, "velocity": 113, "duration": 132}, {"note": 0, "velocity": 0, "duration": 108}, {"note": 72, "velocity": 116, "duration": 261}, {"note": 0, "velocity": 0, "duration": 16059}, {"note": 72, "velocity": 116, "duration": 132}, {"note": 0, "velocity": 0, "duration": 108}, {"note": 72, "velocity": 116, "duration": 145}, {"note": 0, "velocity": 0, "duration": 95}, {"note": 72, "velocity": 114, "duration": 149}, {"note": 0, "velocity": 0, "duration": 91}, {"note": 72, "velocity": 113, "duration": 197}, {"note": 70, "velocity": 119, "duration": 222}, {"note": 67, "velocity": 114, "duration": 153}, {"note": 0, "velocity": 0, "duration": 87}, {"note": 67, "velocity": 113, "duration": 205}, {"note": 70, "velocity": 116, "duration": 168}, {"note": 0, "velocity": 0, "duration": 72}, {"note": 70, "velocity": 100, "duration": 94}, {"note": 72, "velocity": 117, "duration": 221}, {"note": 0, "velocity": 0, "duration": 1585}, {"note": 72, "velocity": 114, "duration": 138}, {"note": 0, "velocity": 0, "duration": 102}, {"note": 72, "velocity": 108, "duration": 130}, {"note": 0, "velocity": 0, "duration": 110}, {"note": 72, "velocity": 114, "duration": 205}, {"note": 70, "velocity": 109, "duration": 156}, {"note": 0, "velocity": 0, "duration": 84}, {"note": 72, "velocity": 114, "duration": 183}, {"note": 75, "velocity": 119, "duration": 207}, {"note": 72, "velocity": 104, "duration": 205}, {"note": 70, "velocity": 113, "duration": 231}, {"note": 67, "velocity": 113, "duration": 121}, {"note": 65, "velocity": 100, "duration": 112}, {"note": 67, "velocity": 100, "duration": 231}, {"note": 0, "velocity": 0, "duration": 1446}, {"note": 72, "velocity": 100, "duration": 154}, {"note": 0, "velocity": 0, "duration": 86}, {"note": 72, "velocity": 102, "duration": 128}, {"note": 0, "velocity": 0, "duration": 112}, {"note": 72, "velocity": 108, "duration": 204}, {"note": 67, "velocity": 108, "duration": 150}, {"note": 0, "velocity": 0, "duration": 90}, {"note": 67, "velocity": 104, "duration": 183}, {"note": 70, "velocity": 109, "duration": 189}, {"note": 72, "velocity": 110, "duration": 152}, {"note": 0, "velocity": 0, "duration": 88}, {"note": 75, "velocity": 109, "duration": 159}, {"note": 0, "velocity": 0, "duration": 81}, {"note": 77, "velocity": 107, "duration": 147}, {"note": 0, "velocity": 0, "duration": 93}, {"note": 77, "velocity": 108, "duration": 152}, {"note": 0, "velocity": 0, "duration": 88}, {"note": 77, "velocity": 107, "duration": 218}, {"note": 75, "velocity": 113, "duration": 221}, {"note": 77, "velocity": 102, "duration": 128}, {"note": 75, "velocity": 100, "duration": 102}, {"note": 77, "velocity": 100, "duration": 475}, {"note": 0, "velocity": 0, "duration": 244}, {"note": 74, "velocity": 116, "duration": 108}, {"note": 0, "velocity": 0, "duration": 132}, {"note": 74, "velocity": 113, "duration": 119}, {"note": 0, "velocity": 0, "duration": 121}, {"note": 74, "velocity": 108, "duration": 181}, {"note": 72, "velocity": 107, "duration": 210}, {"note": 70, "velocity": 106, "duration": 187}, {"note": 67, "velocity": 107, "duration": 228}, {"note": 70, "velocity": 116, "duration": 191}, {"note": 72, "velocity": 114, "duration": 150}, {"note": 0, "velocity": 0, "duration": 90}, {"note": 72, "velocity": 116, "duration": 270}, {"note": 0, "velocity": 0, "duration": 1650}, {"note": 72, "velocity": 116, "duration": 132}, {"note": 0, "velocity": 0, "duration": 108}, {"note": 72, "velocity": 116, "duration": 145}, {"note": 0, "velocity": 0, "duration": 95}, {"note": 72, "velocity": 114, "duration": 149}, {"note": 0, "velocity": 0, "duration": 91}, {"note": 72, "velocity": 113, "duration": 197}, {"note": 70, "velocity": 119, "duration": 222}, {"note": 67, "velocity": 114, "duration": 153}, {"note": 0, "velocity": 0, "duration": 87}, {"note": 67, "velocity": 113, "duration": 205}, {"note": 70, "velocity": 116, "duration": 168}, {"note": 0, "velocity": 0, "duration": 72}, {"note": 72, "velocity": 117, "duration": 96}, {"note": 70, "velocity": 100, "duration": 116}, {"note": 72, "velocity": 100, "duration": 376}, {"note": 0, "velocity": 0, "duration": 1304}, {"note": 72, "velocity": 114, "duration": 138}, {"note": 0, "velocity": 0, "duration": 102}, {"note": 72, "velocity": 108, "duration": 130}, {"note": 0, "velocity": 0, "duration": 110}, {"note": 72, "velocity": 114, "duration": 205}, {"note": 70, "velocity": 109, "duration": 156}, {"note": 0, "velocity": 0, "duration": 84}, {"note": 72, "velocity": 114, "duration": 183}, {"note": 75, "velocity": 119, "duration": 207}, {"note": 72, "velocity": 104, "duration": 205}, {"note": 70, "velocity": 113, "duration": 231}, {"note": 70, "velocity": 100, "duration": 116}, {"note": 67, "velocity": 113, "duration": 315}, {"note": 0, "velocity": 0, "duration": 1485}, {"note": 72, "velocity": 100, "duration": 154}, {"note": 0, "velocity": 0, "duration": 86}, {"note": 72, "velocity": 102, "duration": 128}, {"note": 0, "velocity": 0, "duration": 112}, {"note": 72, "velocity": 108, "duration": 204}, {"note": 67, "velocity": 108, "duration": 150}, {"note": 0, "velocity": 0, "duration": 90}, {"note": 72, "velocity": 104, "duration": 183}, {"note": 72, "velocity": 109, "duration": 189}, {"note": 72, "velocity": 110, "duration": 152}, {"note": 0, "velocity": 0, "duration": 88}, {"note": 75, "velocity": 109, "duration": 159}, {"note": 0, "velocity": 0, "duration": 81}, {"note": 77, "velocity": 107, "duration": 147}, {"note": 0, "velocity": 0, "duration": 93}, {"note": 77, "velocity": 108, "duration": 152}, {"note": 0, "velocity": 0, "duration": 88}, {"note": 77, "velocity": 107, "duration": 218}, {"note": 75, "velocity": 113, "duration": 221}, {"note": 77, "velocity": 102, "duration": 74}, {"note": 75, "velocity": 100, "duration": 93}, {"note": 77, "velocity": 100, "duration": 147}, {"note": 0, "velocity": 0, "duration": 453}, {"note": 67, "velocity": 116, "duration": 108}, {"note": 74, "velocity": 116, "duration": 108}, {"note": 0, "velocity": 0, "duration": 132}, {"note": 74, "velocity": 113, "duration": 119}, {"note": 74, "velocity": 113, "duration": 119}, {"note": 74, "velocity": 108, "duration": 181}, {"note": 72, "velocity": 107, "duration": 210}, {"note": 70, "velocity": 106, "duration": 187}, {"note": 67, "velocity": 107, "duration": 228}, {"note": 70, "velocity": 116, "duration": 191}, {"note": 72, "velocity": 114, "duration": 150}, {"note": 0, "velocity": 0, "duration": 90}, {"note": 72, "velocity": 116, "duration": 270}, {"note": 0, "velocity": 0, "duration": 1410}, {"note": 72, "velocity": 113, "duration": 69}, {"note": 72, "velocity": 100, "duration": 81}, {"note": 79, "velocity": 120, "duration": 146}, {"note": 0, "velocity": 0, "duration": 94}, {"note": 79, "velocity": 117, "duration": 53}, {"note": 0, "velocity": 0, "duration": 67}, {"note": 79, "velocity": 108, "duration": 51}, {"note": 0, "velocity": 0, "duration": 69}, {"note": 79, "velocity": 117, "duration": 92}, {"note": 0, "velocity": 0, "duration": 148}, {"note": 72, "velocity": 116, "duration": 146}, {"note": 0, "velocity": 0, "duration": 94}, {"note": 79, "velocity": 119, "duration": 164}, {"note": 0, "velocity": 0, "duration": 76}, {"note": 77, "velocity": 113, "duration": 128}, {"note": 0, "velocity": 0, "duration": 112}, {"note": 77, "velocity": 120, "duration": 143}, {"note": 0, "velocity": 0, "duration": 97}, {"note": 70, "velocity": 110, "duration": 61}, {"note": 70, "velocity": 110, "duration": 75}, {"note": 77, "velocity": 117, "duration": 124}, {"note": 0, "velocity": 0, "duration": 116}, {"note": 77, "velocity": 116, "duration": 128}, {"note": 77, "velocity": 116, "duration": 8}, {"note": 0, "velocity": 0, "duration": 112}, {"note": 77, "velocity": 119, "duration": 8}, {"note": 0, "velocity": 0, "duration": 232}, {"note": 70, "velocity": 116, "duration": 119}, {"note": 0, "velocity": 0, "duration": 121}, {"note": 75, "velocity": 123, "duration": 149}, {"note": 0, "velocity": 0, "duration": 91}, {"note": 75, "velocity": 114, "duration": 133}, {"note": 0, "velocity": 0, "duration": 107}, {"note": 75, "velocity": 110, "duration": 166}, {"note": 0, "velocity": 0, "duration": 74}, {"note": 72, "velocity": 107, "duration": 66}, {"note": 72, "velocity": 98, "duration": 76}, {"note": 75, "velocity": 119, "duration": 99}, {"note": 0, "velocity": 0, "duration": 141}, {"note": 75, "velocity": 119, "duration": 124}, {"note": 0, "velocity": 0, "duration": 116}, {"note": 75, "velocity": 123, "duration": 117}, {"note": 0, "velocity": 0, "duration": 123}, {"note": 75, "velocity": 116, "duration": 57}, {"note": 0, "velocity": 0, "duration": 63}, {"note": 79, "velocity": 108, "duration": 73}, {"note": 77, "velocity": 110, "duration": 163}, {"note": 0, "velocity": 0, "duration": 77}, {"note": 77, "velocity": 114, "duration": 110}, {"note": 0, "velocity": 0, "duration": 130}, {"note": 77, "velocity": 119, "duration": 152}, {"note": 0, "velocity": 0, "duration": 328}, {"note": 77, "velocity": 117, "duration": 131}, {"note": 0, "velocity": 0, "duration": 109}, {"note": 77, "velocity": 117, "duration": 179}, {"note": 0, "velocity": 0, "duration": 61}, {"note": 75, "velocity": 113, "duration": 138}, {"note": 0, "velocity": 0, "duration": 102}, {"note": 77, "velocity": 116, "duration": 129}, {"note": 0, "velocity": 0, "duration": 111}, {"note": 79, "velocity": 119, "duration": 216}, {"note": 0, "velocity": 0, "duration": 504}, {"note": 72, "velocity": 113, "duration": 69}, {"note": 72, "velocity": 100, "duration": 81}, {"note": 79, "velocity": 120, "duration": 146}, {"note": 0, "velocity": 0, "duration": 94}, {"note": 79, "velocity": 117, "duration": 53}, {"note": 0, "velocity": 0, "duration": 67}, {"note": 79, "velocity": 108, "duration": 51}, {"note": 0, "velocity": 0, "duration": 69}, {"note": 79, "velocity": 117, "duration": 92}, {"note": 0, "velocity": 0, "duration": 148}, {"note": 72, "velocity": 116, "duration": 146}, {"note": 0, "velocity": 0, "duration": 94}, {"note": 79, "velocity": 119, "duration": 164}, {"note": 0, "velocity": 0, "duration": 76}, {"note": 77, "velocity": 113, "duration": 128}, {"note": 0, "velocity": 0, "duration": 112}, {"note": 77, "velocity": 120, "duration": 143}, {"note": 0, "velocity": 0, "duration": 97}, {"note": 70, "velocity": 110, "duration": 61}, {"note": 70, "velocity": 110, "duration": 75}, {"note": 77, "velocity": 117, "duration": 124}, {"note": 0, "velocity": 0, "duration": 116}, {"note": 77, "velocity": 116, "duration": 128}, {"note": 77, "velocity": 116, "duration": 8}, {"note": 0, "velocity": 0, "duration": 112}, {"note": 77, "velocity": 119, "duration": 8}, {"note": 0, "velocity": 0, "duration": 232}, {"note": 70, "velocity": 116, "duration": 119}, {"note": 0, "velocity": 0, "duration": 121}, {"note": 75, "velocity": 123, "duration": 149}, {"note": 0, "velocity": 0, "duration": 91}, {"note": 75, "velocity": 114, "duration": 133}, {"note": 0, "velocity": 0, "duration": 107}, {"note": 75, "velocity": 110, "duration": 166}, {"note": 0, "velocity": 0, "duration": 74}, {"note": 72, "velocity": 107, "duration": 66}, {"note": 72, "velocity": 98, "duration": 76}, {"note": 75, "velocity": 119, "duration": 99}, {"note": 0, "velocity": 0, "duration": 141}, {"note": 75, "velocity": 119, "duration": 124}, {"note": 0, "velocity": 0, "duration": 116}, {"note": 75, "velocity": 123, "duration": 117}, {"note": 0, "velocity": 0, "duration": 123}, {"note": 75, "velocity": 116, "duration": 57}, {"note": 0, "velocity": 0, "duration": 63}, {"note": 79, "velocity": 108, "duration": 73}, {"note": 77, "velocity": 110, "duration": 163}, {"note": 0, "velocity": 0, "duration": 77}, {"note": 77, "velocity": 114, "duration": 110}, {"note": 0, "velocity": 0, "duration": 130}, {"note": 77, "velocity": 119, "duration": 152}, {"note": 0, "velocity": 0, "duration": 328}, {"note": 74, "velocity": 116, "duration": 139}, {"note": 0, "velocity": 0, "duration": 101}, {"note": 74, "velocity": 113, "duration": 159}, {"note": 0, "velocity": 0, "duration": 81}, {"note": 70, "velocity": 119, "duration": 144}, {"note": 0, "velocity": 0, "duration": 96}, {"note": 72, "velocity": 113, "duration": 132}, {"note": 0, "velocity": 0, "duration": 108}, {"note": 72, "velocity": 116, "duration": 261}, {"note": 0, "velocity": 0, "duration": 1419}, {"note": 72, "velocity": 113, "duration": 69}, {"note": 72, "velocity": 100, "duration": 81}, {"note": 79, "velocity": 120, "duration": 146}, {"note": 0, "velocity": 0, "duration": 94}, {"note": 79, "velocity": 117, "duration": 53}, {"note": 0, "velocity": 0, "duration": 67}, {"note": 79, "velocity": 108, "duration": 51}, {"note": 0, "velocity": 0, "duration": 69}, {"note": 79, "velocity": 117, "duration": 92}, {"note": 0, "velocity": 0, "duration": 148}, {"note": 72, "velocity": 116, "duration": 146}, {"note": 0, "velocity": 0, "duration": 94}, {"note": 79, "velocity": 119, "duration": 164}, {"note": 0, "velocity": 0, "duration": 76}, {"note": 77, "velocity": 113, "duration": 128}, {"note": 0, "velocity": 0, "duration": 112}, {"note": 77, "velocity": 120, "duration": 143}, {"note": 0, "velocity": 0, "duration": 97}, {"note": 70, "velocity": 110, "duration": 61}, {"note": 70, "velocity": 110, "duration": 75}, {"note": 77, "velocity": 117, "duration": 124}, {"note": 0, "velocity": 0, "duration": 116}, {"note": 77, "velocity": 116, "duration": 128}, {"note": 77, "velocity": 116, "duration": 8}, {"note": 0, "velocity": 0, "duration": 112}, {"note": 77, "velocity": 119, "duration": 8}, {"note": 0, "velocity": 0, "duration": 232}, {"note": 70, "velocity": 116, "duration": 119}, {"note": 0, "velocity": 0, "duration": 121}, {"note": 75, "velocity": 123, "duration": 149}, {"note": 0, "velocity": 0, "duration": 91}, {"note": 75, "velocity": 114, "duration": 133}, {"note": 0, "velocity": 0, "duration": 107}, {"note": 75, "velocity": 110, "duration": 166}, {"note": 0, "velocity": 0, "duration": 74}, {"note": 72, "velocity": 107, "duration": 66}, {"note": 72, "velocity": 98, "duration": 76}, {"note": 75, "velocity": 119, "duration": 99}, {"note": 0, "velocity": 0, "duration": 141}, {"note": 75, "velocity": 119, "duration": 124}, {"note": 0, "velocity": 0, "duration": 116}, {"note": 75, "velocity": 123, "duration": 117}, {"note": 0, "velocity": 0, "duration": 123}, {"note": 75, "velocity": 116, "duration": 57}, {"note": 0, "velocity": 0, "duration": 63}, {"note": 79, "velocity": 108, "duration": 73}, {"note": 77, "velocity": 110, "duration": 163}, {"note": 0, "velocity": 0, "duration": 77}, {"note": 77, "velocity": 114, "duration": 110}, {"note": 0, "velocity": 0, "duration": 130}, {"note": 77, "velocity": 119, "duration": 152}, {"note": 0, "velocity": 0, "duration": 328}, {"note": 77, "velocity": 117, "duration": 131}, {"note": 0, "velocity": 0, "duration": 109}, {"note": 77, "velocity": 117, "duration": 179}, {"note": 0, "velocity": 0, "duration": 61}, {"note": 75, "velocity": 113, "duration": 138}, {"note": 0, "velocity": 0, "duration": 102}, {"note": 77, "velocity": 116, "duration": 129}, {"note": 0, "velocity": 0, "duration": 111}, {"note": 79, "velocity": 119, "duration": 216}, {"note": 0, "velocity": 0, "duration": 504}, {"note": 72, "velocity": 113, "duration": 69}, {"note": 72, "velocity": 100, "duration": 81}, {"note": 79, "velocity": 120, "duration": 146}, {"note": 0, "velocity": 0, "duration": 94}, {"note": 79, "velocity": 117, "duration": 53}, {"note": 0, "velocity": 0, "duration": 67}, {"note": 79, "velocity": 108, "duration": 51}, {"note": 0, "velocity": 0, "duration": 69}, {"note": 79, "velocity": 117, "duration": 92}, {"note": 0, "velocity": 0, "duration": 148}, {"note": 72, "velocity": 116, "duration": 146}, {"note": 0, "velocity": 0, "duration": 94}, {"note": 79, "velocity": 119, "duration": 164}, {"note": 0, "velocity": 0, "duration": 76}, {"note": 77, "velocity": 113, "duration": 128}, {"note": 0, "velocity": 0, "duration": 112}, {"note": 77, "velocity": 120, "duration": 143}, {"note": 0, "velocity": 0, "duration": 97}, {"note": 70, "velocity": 110, "duration": 61}, {"note": 70, "velocity": 110, "duration": 75}, {"note": 77, "velocity": 117, "duration": 124}, {"note": 0, "velocity": 0, "duration": 116}, {"note": 77, "velocity": 116, "duration": 128}, {"note": 77, "velocity": 116, "duration": 8}, {"note": 0, "velocity": 0, "duration": 112}, {"note": 77, "velocity": 119, "duration": 8}, {"note": 0, "velocity": 0, "duration": 232}, {"note": 82, "velocity": 116, "duration": 119}, {"note": 0, "velocity": 0, "duration": 121}, {"note": 77, "velocity": 123, "duration": 149}, {"note": 0, "velocity": 0, "duration": 91}, {"note": 75, "velocity": 114, "duration": 133}, {"note": 0, "velocity": 0, "duration": 107}, {"note": 75, "velocity": 110, "duration": 166}, {"note": 0, "velocity": 0, "duration": 74}, {"note": 72, "velocity": 107, "duration": 66}, {"note": 72, "velocity": 98, "duration": 76}, {"note": 75, "velocity": 119, "duration": 99}, {"note": 0, "velocity": 0, "duration": 141}, {"note": 75, "velocity": 119, "duration": 124}, {"note": 0, "velocity": 0, "duration": 116}, {"note": 75, "velocity": 123, "duration": 117}, {"note": 0, "velocity": 0, "duration": 123}, {"note": 75, "velocity": 116, "duration": 57}, {"note": 0, "velocity": 0, "duration": 63}, {"note": 79, "velocity": 108, "duration": 73}, {"note": 77, "velocity": 110, "duration": 163}, {"note": 0, "velocity": 0, "duration": 77}, {"note": 77, "velocity": 114, "duration": 110}, {"note": 0, "velocity": 0, "duration": 130}, {"note": 77, "velocity": 119, "duration": 152}, {"note": 0, "velocity": 0, "duration": 328}, {"note": 74, "velocity": 116, "duration": 139}, {"note": 0, "velocity": 0, "duration": 101}, {"note": 74, "velocity": 113, "duration": 159}, {"note": 0, "velocity": 0, "duration": 81}, {"note": 70, "velocity": 119, "duration": 144}, {"note": 0, "velocity": 0, "duration": 96}, {"note": 72, "velocity": 113, "duration": 132}, {"note": 0, "velocity": 0, "duration": 108}, {"note": 72, "velocity": 116, "duration": 261}, {"note": 0, "velocity": 0, "duration": 1419}, {"note": 75, "velocity": 113, "duration": 168}, {"note": 0, "velocity": 0, "duration": 72}, {"note": 79, "velocity": 116, "duration": 182}, {"note": 77, "velocity": 119, "duration": 800}, {"note": 0, "velocity": 0, "duration": 880}, {"note": 70, "velocity": 123, "duration": 293}, {"note": 0, "velocity": 0, "duration": 187}, {"note": 72, "velocity": 119, "duration": 250}, {"note": 0, "velocity": 0, "duration": 230}, {"note": 72, "velocity": 116, "duration": 299}]]