[[{"note": 79, "velocity": 113, "duration": 107}, {"note": 77, "velocity": 110, "duration": 94}, {"note": 79, "velocity": 114, "duration": 215}, {"note": 77, "velocity": 113, "duration": 106}, {"note": 77, "velocity": 107, "duration": 136}, {"note": 79, "velocity": 114, "duration": 139}, {"note": 0, "velocity": 0, "duration": 101}, {"note": 77, "velocity": 113, "duration": 153}, {"note": 0, "velocity": 0, "duration": 87}, {"note": 74, "velocity": 104, "duration": 86}, {"note": 72, "velocity": 98, "duration": 123}, {"note": 70, "velocity": 106, "duration": 154}, {"note": 0, "velocity": 0, "duration": 86}, {"note": 74, "velocity": 108, "duration": 313}, {"note": 0, "velocity": 0, "duration": 1847}, {"note": 72, "velocity": 104, "duration": 58}, {"note": 0, "velocity": 0, "duration": 62}, {"note": 72, "velocity": 93, "duration": 45}, {"note": 0, "velocity": 0, "duration": 75}, {"note": 72, "velocity": 107, "duration": 159}, {"note": 0, "velocity": 0, "duration": 81}, {"note": 70, "velocity": 106, "duration": 121}, {"note": 0, "velocity": 0, "duration": 119}, {"note": 74, "velocity": 113, "duration": 160}, {"note": 0, "velocity": 0, "duration": 80}, {"note": 72, "velocity": 110, "duration": 154}, {"note": 0, "velocity": 0, "duration": 86}, {"note": 70, "velocity": 116, "duration": 173}, {"note": 67, "velocity": 102, "duration": 176}, {"note": 0, "velocity": 0, "duration": 64}, {"note": 65, "velocity": 96, "duration": 209}, {"note": 0, "velocity": 0, "duration": 151}, {"note": 67, "velocity": 104, "duration": 219}, {"note": 0, "velocity": 0, "duration": 1821}, {"note": 67, "velocity": 93, "duration": 81}, {"note": 70, "velocity": 116, "duration": 126}, {"note": 0, "velocity": 0, "duration": 114}, {"note": 70, "velocity": 116, "duration": 104}, {"note": 67, "velocity": 107, "duration": 59}, {"note": 0, "velocity": 0, "duration": 61}, {"note": 74, "velocity": 117, "duration": 140}, {"note": 0, "velocity": 0, "duration": 100}, {"note": 72, "velocity": 116, "duration": 124}, {"note": 0, "velocity": 0, "duration": 356}, {"note": 74, "velocity": 116, "duration": 79}, {"note": 77, "velocity": 107, "duration": 43}, {"note": 0, "velocity": 0, "duration": 77}, {"note": 79, "velocity": 116, "duration": 105}, {"note": 0, "velocity": 0, "duration": 135}, {"note": 79, "velocity": 117, "duration": 145}, {"note": 0, "velocity": 0, "duration": 95}, {"note": 77, "velocity": 119, "duration": 151}, {"note": 0, "velocity": 0, "duration": 89}, {"note": 72, "velocity": 114, "duration": 145}, {"note": 0, "velocity": 0, "duration": 95}, {"note": 74, "velocity": 117, "duration": 176}, {"note": 0, "velocity": 0, "duration": 1024}, {"note": 79, "velocity": 114, "duration": 63}, {"note": 79, "velocity": 104, "duration": 63}, {"note": 79, "velocity": 114, "duration": 106}, {"note": 0, "velocity": 0, "duration": 134}, {"note": 79, "velocity": 116, "duration": 95}, {"note": 82, "velocity": 113, "duration": 100}, {"note": 81, "velocity": 113, "duration": 148}, {"note": 0, "velocity": 0, "duration": 92}, {"note": 79, "velocity": 108, "duration": 95}, {"note": 81, "velocity": 117, "duration": 127}, {"note": 0, "velocity": 0, "duration": 113}, {"note": 79, "velocity": 110, "duration": 109}, {"note": 77, "velocity": 100, "duration": 55}, {"note": 0, "velocity": 0, "duration": 65}, {"note": 79, "velocity": 102, "duration": 53}, {"note": 0, "velocity": 0, "duration": 67}, {"note": 79, "velocity": 114, "duration": 149}, {"note": 0, "velocity": 0, "duration": 2011}, {"note": 79, "velocity": 113, "duration": 107}, {"note": 77, "velocity": 110, "duration": 94}, {"note": 79, "velocity": 114, "duration": 215}, {"note": 77, "velocity": 113, "duration": 106}, {"note": 77, "velocity": 107, "duration": 136}, {"note": 79, "velocity": 114, "duration": 139}, {"note": 0, "velocity": 0, "duration": 101}, {"note": 77, "velocity": 113, "duration": 153}, {"note": 0, "velocity": 0, "duration": 87}, {"note": 74, "velocity": 104, "duration": 86}, {"note": 72, "velocity": 98, "duration": 123}, {"note": 70, "velocity": 106, "duration": 154}, {"note": 0, "velocity": 0, "duration": 86}, {"note": 74, "velocity": 108, "duration": 313}, {"note": 0, "velocity": 0, "duration": 1847}, {"note": 72, "velocity": 104, "duration": 58}, {"note": 0, "velocity": 0, "duration": 62}, {"note": 72, "velocity": 93, "duration": 45}, {"note": 0, "velocity": 0, "duration": 75}, {"note": 72, "velocity": 107, "duration": 159}, {"note": 0, "velocity": 0, "duration": 81}, {"note": 70, "velocity": 106, "duration": 121}, {"note": 0, "velocity": 0, "duration": 119}, {"note": 74, "velocity": 113, "duration": 160}, {"note": 0, "velocity": 0, "duration": 80}, {"note": 72, "velocity": 110, "duration": 154}, {"note": 0, "velocity": 0, "duration": 86}, {"note": 70, "velocity": 116, "duration": 173}, {"note": 67, "velocity": 102, "duration": 176}, {"note": 0, "velocity": 0, "duration": 64}, {"note": 65, "velocity": 96, "duration": 209}, {"note": 0, "velocity": 0, "duration": 151}, {"note": 67, "velocity": 104, "duration": 219}, {"note": 0, "velocity": 0, "duration": 1821}, {"note": 67, "velocity": 93, "duration": 81}, {"note": 70, "velocity": 116, "duration": 126}, {"note": 0, "velocity": 0, "duration": 114}, {"note": 70, "velocity": 116, "duration": 104}, {"note": 67, "velocity": 107, "duration": 59}, {"note": 0, "velocity": 0, "duration": 61}, {"note": 74, "velocity": 117, "duration": 140}, {"note": 0, "velocity": 0, "duration": 100}, {"note": 72, "velocity": 116, "duration": 124}, {"note": 0, "velocity": 0, "duration": 356}, {"note": 74, "velocity": 116, "duration": 79}, {"note": 77, "velocity": 107, "duration": 43}, {"note": 0, "velocity": 0, "duration": 77}, {"note": 79, "velocity": 116, "duration": 105}, {"note": 0, "velocity": 0, "duration": 135}, {"note": 79, "velocity": 117, "duration": 145}, {"note": 0, "velocity": 0, "duration": 95}, {"note": 77, "velocity": 119, "duration": 151}, {"note": 0, "velocity": 0, "duration": 89}, {"note": 72, "velocity": 114, "duration": 145}, {"note": 0, "velocity": 0, "duration": 95}, {"note": 74, "velocity": 117, "duration": 176}, {"note": 0, "velocity": 0, "duration": 1024}, {"note": 79, "velocity": 114, "duration": 68}, {"note": 79, "velocity": 114, "duration": 59}, {"note": 0, "velocity": 0, "duration": 61}, {"note": 79, "velocity": 116, "duration": 121}, {"note": 0, "velocity": 0, "duration": 119}, {"note": 79, "velocity": 119, "duration": 64}, {"note": 79, "velocity": 117, "duration": 60}, {"note": 79, "velocity": 119, "duration": 103}, {"note": 82, "velocity": 123, "duration": 84}, {"note": 0, "velocity": 0, "duration": 276}, {"note": 82, "velocity": 123, "duration": 151}, {"note": 0, "velocity": 0, "duration": 89}, {"note": 79, "velocity": 117, "duration": 148}, {"note": 0, "velocity": 0, "duration": 92}, {"note": 81, "velocity": 119, "duration": 126}, {"note": 0, "velocity": 0, "duration": 114}, {"note": 81, "velocity": 123, "duration": 300}, {"note": 0, "velocity": 0, "duration": 900}, {"note": 82, "velocity": 123, "duration": 182}, {"note": 81, "velocity": 119, "duration": 175}, {"note": 0, "velocity": 0, "duration": 65}, {"note": 79, "velocity": 117, "duration": 189}, {"note": 0, "velocity": 0, "duration": 171}, {"note": 79, "velocity": 116, "duration": 53}, {"note": 0, "velocity": 0, "duration": 67}, {"note": 79, "velocity": 116, "duration": 183}, {"note": 77, "velocity": 119, "duration": 152}, {"note": 0, "velocity": 0, "duration": 88}, {"note": 74, "velocity": 120, "duration": 181}, {"note": 0, "velocity": 0, "duration": 299}, {"note": 82, "velocity": 123, "duration": 140}, {"note": 0, "velocity": 0, "duration": 100}, {"note": 81, "velocity": 120, "duration": 116}, {"note": 0, "velocity": 0, "duration": 124}, {"note": 79, "velocity": 120, "duration": 194}, {"note": 0, "velocity": 0, "duration": 166}, {"note": 79, "velocity": 117, "duration": 70}, {"note": 79, "velocity": 117, "duration": 138}, {"note": 0, "velocity": 0, "duration": 102}, {"note": 86, "velocity": 120, "duration": 157}, {"note": 0, "velocity": 0, "duration": 83}, {"note": 86, "velocity": 123, "duration": 228}, {"note": 0, "velocity": 0, "duration": 492}, {"note": 86, "velocity": 119, "duration": 52}, {"note": 0, "velocity": 0, "duration": 68}, {"note": 86, "velocity": 113, "duration": 73}, {"note": 84, "velocity": 119, "duration": 114}, {"note": 0, "velocity": 0, "duration": 126}, {"note": 84, "velocity": 120, "duration": 101}, {"note": 0, "velocity": 0, "duration": 139}, {"note": 84, "velocity": 120, "duration": 126}, {"note": 0, "velocity": 0, "duration": 114}, {"note": 84, "velocity": 119, "duration": 106}, {"note": 86, "velocity": 108, "duration": 102}, {"note": 84, "velocity": 116, "duration": 115}, {"note": 82, "velocity": 116, "duration": 134}, {"note": 0, "velocity": 0, "duration": 106}, {"note": 79, "velocity": 117, "duration": 164}, {"note": 0, "velocity": 0, "duration": 196}, {"note": 79, "velocity": 116, "duration": 108}, {"note": 81, "velocity": 116, "duration": 115}, {"note": 82, "velocity": 113, "duration": 58}, {"note": 0, "velocity": 0, "duration": 62}, {"note": 82, "velocity": 106, "duration": 59}, {"note": 0, "velocity": 0, "duration": 61}, {"note": 82, "velocity": 106, "duration": 54}, {"note": 0, "velocity": 0, "duration": 66}, {"note": 82, "velocity": 109, "duration": 52}, {"note": 0, "velocity": 0, "duration": 68}, {"note": 82, "velocity": 119, "duration": 65}, {"note": 84, "velocity": 117, "duration": 81}, {"note": 0, "velocity": 0, "duration": 159}, {"note": 82, "velocity": 119, "duration": 70}, {"note": 81, "velocity": 120, "duration": 217}, {"note": 0, "velocity": 0, "duration": 263}, {"note": 82, "velocity": 123, "duration": 182}, {"note": 81, "velocity": 119, "duration": 175}, {"note": 0, "velocity": 0, "duration": 65}, {"note": 79, "velocity": 117, "duration": 189}, {"note": 0, "velocity": 0, "duration": 171}, {"note": 79, "velocity": 116, "duration": 53}, {"note": 0, "velocity": 0, "duration": 67}, {"note": 79, "velocity": 116, "duration": 183}, {"note": 77, "velocity": 119, "duration": 152}, {"note": 0, "velocity": 0, "duration": 88}, {"note": 74, "velocity": 120, "duration": 181}, {"note": 0, "velocity": 0, "duration": 299}, {"note": 82, "velocity": 123, "duration": 140}, {"note": 0, "velocity": 0, "duration": 100}, {"note": 81, "velocity": 120, "duration": 116}, {"note": 0, "velocity": 0, "duration": 124}, {"note": 79, "velocity": 120, "duration": 194}, {"note": 0, "velocity": 0, "duration": 166}, {"note": 79, "velocity": 117, "duration": 70}, {"note": 79, "velocity": 117, "duration": 138}, {"note": 0, "velocity": 0, "duration": 102}, {"note": 86, "velocity": 120, "duration": 157}, {"note": 0, "velocity": 0, "duration": 83}, {"note": 86, "velocity": 123, "duration": 228}, {"note": 0, "velocity": 0, "duration": 492}, {"note": 86, "velocity": 119, "duration": 52}, {"note": 0, "velocity": 0, "duration": 68}, {"note": 86, "velocity": 113, "duration": 73}, {"note": 84, "velocity": 119, "duration": 114}, {"note": 0, "velocity": 0, "duration": 126}, {"note": 84, "velocity": 120, "duration": 101}, {"note": 0, "velocity": 0, "duration": 139}, {"note": 84, "velocity": 120, "duration": 126}, {"note": 0, "velocity": 0, "duration": 114}, {"note": 84, "velocity": 119, "duration": 106}, {"note": 86, "velocity": 108, "duration": 102}, {"note": 84, "velocity": 116, "duration": 115}, {"note": 82, "velocity": 116, "duration": 134}, {"note": 0, "velocity": 0, "duration": 106}, {"note": 79, "velocity": 117, "duration": 164}, {"note": 0, "velocity": 0, "duration": 196}, {"note": 79, "velocity": 116, "duration": 108}, {"note": 81, "velocity": 116, "duration": 115}, {"note": 82, "velocity": 113, "duration": 58}, {"note": 0, "velocity": 0, "duration": 62}, {"note": 82, "velocity": 106, "duration": 59}, {"note": 0, "velocity": 0, "duration": 61}, {"note": 82, "velocity": 106, "duration": 54}, {"note": 0, "velocity": 0, "duration": 66}, {"note": 82, "velocity": 109, "duration": 52}, {"note": 0, "velocity": 0, "duration": 68}, {"note": 82, "velocity": 119, "duration": 65}, {"note": 84, "velocity": 117, "duration": 81}, {"note": 0, "velocity": 0, "duration": 279}, {"note": 81, "velocity": 119, "duration": 70}, {"note": 0, "velocity": 0, "duration": 410}, {"note": 81, "velocity": 117, "duration": 132}, {"note": 0, "velocity": 0, "duration": 108}, {"note": 82, "velocity": 119, "duration": 125}, {"note": 0, "velocity": 0, "duration": 115}, {"note": 81, "velocity": 119, "duration": 155}, {"note": 0, "velocity": 0, "duration": 325}, {"note": 79, "velocity": 117, "duration": 196}, {"note": 0, "velocity": 0, "duration": 18764}, {"note": 79, "velocity": 113, "duration": 107}, {"note": 77, "velocity": 110, "duration": 94}, {"note": 79, "velocity": 114, "duration": 215}, {"note": 77, "velocity": 113, "duration": 106}, {"note": 77, "velocity": 107, "duration": 136}, {"note": 79, "velocity": 114, "duration": 139}, {"note": 0, "velocity": 0, "duration": 101}, {"note": 77, "velocity": 113, "duration": 153}, {"note": 0, "velocity": 0, "duration": 87}, {"note": 74, "velocity": 104, "duration": 86}, {"note": 72, "velocity": 98, "duration": 123}, {"note": 70, "velocity": 106, "duration": 154}, {"note": 0, "velocity": 0, "duration": 86}, {"note": 74, "velocity": 108, "duration": 313}, {"note": 0, "velocity": 0, "duration": 1847}, {"note": 72, "velocity": 104, "duration": 58}, {"note": 0, "velocity": 0, "duration": 62}, {"note": 72, "velocity": 93, "duration": 45}, {"note": 0, "velocity": 0, "duration": 75}, {"note": 72, "velocity": 107, "duration": 159}, {"note": 0, "velocity": 0, "duration": 81}, {"note": 70, "velocity": 106, "duration": 121}, {"note": 0, "velocity": 0, "duration": 119}, {"note": 74, "velocity": 113, "duration": 160}, {"note": 0, "velocity": 0, "duration": 80}, {"note": 72, "velocity": 110, "duration": 154}, {"note": 0, "velocity": 0, "duration": 86}, {"note": 70, "velocity": 116, "duration": 173}, {"note": 67, "velocity": 102, "duration": 176}, {"note": 0, "velocity": 0, "duration": 64}, {"note": 65, "velocity": 96, "duration": 209}, {"note": 0, "velocity": 0, "duration": 151}, {"note": 67, "velocity": 104, "duration": 219}, {"note": 0, "velocity": 0, "duration": 1821}, {"note": 67, "velocity": 93, "duration": 81}, {"note": 70, "velocity": 116, "duration": 126}, {"note": 0, "velocity": 0, "duration": 114}, {"note": 70, "velocity": 116, "duration": 104}, {"note": 67, "velocity": 107, "duration": 59}, {"note": 0, "velocity": 0, "duration": 61}, {"note": 74, "velocity": 117, "duration": 140}, {"note": 0, "velocity": 0, "duration": 100}, {"note": 72, "velocity": 116, "duration": 124}, {"note": 0, "velocity": 0, "duration": 356}, {"note": 74, "velocity": 116, "duration": 79}, {"note": 77, "velocity": 107, "duration": 43}, {"note": 0, "velocity": 0, "duration": 77}, {"note": 79, "velocity": 116, "duration": 105}, {"note": 0, "velocity": 0, "duration": 135}, {"note": 79, "velocity": 117, "duration": 145}, {"note": 0, "velocity": 0, "duration": 95}, {"note": 77, "velocity": 119, "duration": 151}, {"note": 0, "velocity": 0, "duration": 89}, {"note": 72, "velocity": 114, "duration": 145}, {"note": 0, "velocity": 0, "duration": 95}, {"note": 74, "velocity": 117, "duration": 176}, {"note": 0, "velocity": 0, "duration": 1024}, {"note": 79, "velocity": 114, "duration": 68}, {"note": 79, "velocity": 114, "duration": 59}, {"note": 0, "velocity": 0, "duration": 61}, {"note": 79, "velocity": 116, "duration": 121}, {"note": 0, "velocity": 0, "duration": 119}, {"note": 79, "velocity": 119, "duration": 64}, {"note": 79, "velocity": 117, "duration": 60}, {"note": 79, "velocity": 119, "duration": 103}, {"note": 82, "velocity": 123, "duration": 84}, {"note": 0, "velocity": 0, "duration": 276}, {"note": 82, "velocity": 123, "duration": 151}, {"note": 0, "velocity": 0, "duration": 89}, {"note": 79, "velocity": 117, "duration": 148}, {"note": 0, "velocity": 0, "duration": 92}, {"note": 81, "velocity": 119, "duration": 126}, {"note": 0, "velocity": 0, "duration": 114}, {"note": 81, "velocity": 123, "duration": 300}, {"note": 0, "velocity": 0, "duration": 900}, {"note": 82, "velocity": 123, "duration": 182}, {"note": 81, "velocity": 119, "duration": 175}, {"note": 0, "velocity": 0, "duration": 65}, {"note": 79, "velocity": 117, "duration": 189}, {"note": 0, "velocity": 0, "duration": 171}, {"note": 79, "velocity": 116, "duration": 53}, {"note": 0, "velocity": 0, "duration": 67}, {"note": 79, "velocity": 116, "duration": 183}, {"note": 77, "velocity": 119, "duration": 152}, {"note": 0, "velocity": 0, "duration": 88}, {"note": 74, "velocity": 120, "duration": 181}, {"note": 0, "velocity": 0, "duration": 299}, {"note": 82, "velocity": 123, "duration": 140}, {"note": 0, "velocity": 0, "duration": 100}, {"note": 81, "velocity": 120, "duration": 116}, {"note": 0, "velocity": 0, "duration": 124}, {"note": 79, "velocity": 120, "duration": 194}, {"note": 0, "velocity": 0, "duration": 166}, {"note": 79, "velocity": 117, "duration": 70}, {"note": 79, "velocity": 117, "duration": 138}, {"note": 0, "velocity": 0, "duration": 102}, {"note": 86, "velocity": 120, "duration": 157}, {"note": 0, "velocity": 0, "duration": 83}, {"note": 86, "velocity": 123, "duration": 228}, {"note": 0, "velocity": 0, "duration": 492}, {"note": 86, "velocity": 119, "duration": 52}, {"note": 0, "velocity": 0, "duration": 68}, {"note": 86, "velocity": 113, "duration": 73}, {"note": 84, "velocity": 119, "duration": 114}, {"note": 0, "velocity": 0, "duration": 126}, {"note": 84, "velocity": 120, "duration": 101}, {"note": 0, "velocity": 0, "duration": 139}, {"note": 84, "velocity": 120, "duration": 126}, {"note": 0, "velocity": 0, "duration": 114}, {"note": 84, "velocity": 119, "duration": 106}, {"note": 86, "velocity": 108, "duration": 102}, {"note": 84, "velocity": 116, "duration": 115}, {"note": 82, "velocity": 116, "duration": 134}, {"note": 0, "velocity": 0, "duration": 106}, {"note": 79, "velocity": 117, "duration": 164}, {"note": 0, "velocity": 0, "duration": 196}, {"note": 79, "velocity": 116, "duration": 108}, {"note": 81, "velocity": 116, "duration": 115}, {"note": 82, "velocity": 113, "duration": 58}, {"note": 0, "velocity": 0, "duration": 62}, {"note": 82, "velocity": 106, "duration": 59}, {"note": 0, "velocity": 0, "duration": 61}, {"note": 82, "velocity": 106, "duration": 54}, {"note": 0, "velocity": 0, "duration": 66}, {"note": 82, "velocity": 109, "duration": 52}, {"note": 0, "velocity": 0, "duration": 68}, {"note": 82, "velocity": 119, "duration": 65}, {"note": 84, "velocity": 117, "duration": 81}, {"note": 0, "velocity": 0, "duration": 159}, {"note": 82, "velocity": 119, "duration": 70}, {"note": 81, "velocity": 120, "duration": 217}, {"note": 0, "velocity": 0, "duration": 263}, {"note": 82, "velocity": 123, "duration": 182}, {"note": 81, "velocity": 119, "duration": 175}, {"note": 0, "velocity": 0, "duration": 65}, {"note": 79, "velocity": 117, "duration": 189}, {"note": 0, "velocity": 0, "duration": 171}, {"note": 79, "velocity": 116, "duration": 53}, {"note": 0, "velocity": 0, "duration": 67}, {"note": 79, "velocity": 116, "duration": 183}, {"note": 77, "velocity": 119, "duration": 152}, {"note": 0, "velocity": 0, "duration": 88}, {"note": 74, "velocity": 120, "duration": 181}, {"note": 0, "velocity": 0, "duration": 299}, {"note": 82, "velocity": 123, "duration": 140}, {"note": 0, "velocity": 0, "duration": 100}, {"note": 81, "velocity": 120, "duration": 116}, {"note": 0, "velocity": 0, "duration": 124}, {"note": 79, "velocity": 120, "duration": 194}, {"note": 0, "velocity": 0, "duration": 166}, {"note": 79, "velocity": 117, "duration": 70}, {"note": 79, "velocity": 117, "duration": 138}, {"note": 0, "velocity": 0, "duration": 102}, {"note": 86, "velocity": 120, "duration": 157}, {"note": 0, "velocity": 0, "duration": 83}, {"note": 86, "velocity": 123, "duration": 228}, {"note": 0, "velocity": 0, "duration": 492}, {"note": 86, "velocity": 119, "duration": 52}, {"note": 0, "velocity": 0, "duration": 68}, {"note": 86, "velocity": 113, "duration": 73}, {"note": 84, "velocity": 119, "duration": 114}, {"note": 0, "velocity": 0, "duration": 126}, {"note": 84, "velocity": 120, "duration": 101}, {"note": 0, "velocity": 0, "duration": 139}, {"note": 84, "velocity": 120, "duration": 126}, {"note": 0, "velocity": 0, "duration": 114}, {"note": 84, "velocity": 119, "duration": 106}, {"note": 86, "velocity": 108, "duration": 102}, {"note": 84, "velocity": 116, "duration": 115}, {"note": 82, "velocity": 116, "duration": 134}, {"note": 0, "velocity": 0, "duration": 106}, {"note": 79, "velocity": 117, "duration": 164}, {"note": 0, "velocity": 0, "duration": 196}, {"note": 79, "velocity": 116, "duration": 108}, {"note": 81, "velocity": 116, "duration": 115}, {"note": 82, "velocity": 113, "duration": 58}, {"note": 0, "velocity": 0, "duration": 62}, {"note": 82, "velocity": 106, "duration": 59}, {"note": 0, "velocity": 0, "duration": 61}, {"note": 82, "velocity": 106, "duration": 54}, {"note": 0, "velocity": 0, "duration": 66}, {"note": 82, "velocity": 109, "duration": 52}, {"note": 0, "velocity": 0, "duration": 68}, {"note": 82, "velocity": 119, "duration": 65}, {"note": 84, "velocity": 117, "duration": 81}, {"note": 0, "velocity": 0, "duration": 279}, {"note": 81, "velocity": 119, "duration": 70}, {"note": 0, "velocity": 0, "duration": 410}, {"note": 81, "velocity": 117, "duration": 132}, {"note": 0, "velocity": 0, "duration": 108}, {"note": 82, "velocity": 119, "duration": 125}, {"note": 0, "velocity": 0, "duration": 115}, {"note": 81, "velocity": 119, "duration": 155}, {"note": 0, "velocity": 0, "duration": 325}, {"note": 79, "velocity": 117, "duration": 196}, {"note": 0, "velocity": 0, "duration": 764}, {"note": 82, "velocity": 123, "duration": 182}, {"note": 81, "velocity": 119, "duration": 175}, {"note": 0, "velocity": 0, "duration": 65}, {"note": 79, "velocity": 117, "duration": 189}, {"note": 0, "velocity": 0, "duration": 171}, {"note": 79, "velocity": 116, "duration": 53}, {"note": 0, "velocity": 0, "duration": 67}, {"note": 79, "velocity": 116, "duration": 183}, {"note": 77, "velocity": 119, "duration": 152}, {"note": 0, "velocity": 0, "duration": 88}, {"note": 74, "velocity": 120, "duration": 181}, {"note": 0, "velocity": 0, "duration": 299}, {"note": 82, "velocity": 123, "duration": 140}, {"note": 0, "velocity": 0, "duration": 100}, {"note": 81, "velocity": 120, "duration": 116}, {"note": 0, "velocity": 0, "duration": 124}, {"note": 79, "velocity": 120, "duration": 194}, {"note": 0, "velocity": 0, "duration": 166}, {"note": 79, "velocity": 117, "duration": 70}, {"note": 79, "velocity": 117, "duration": 138}, {"note": 0, "velocity": 0, "duration": 102}, {"note": 86, "velocity": 120, "duration": 157}, {"note": 0, "velocity": 0, "duration": 83}, {"note": 86, "velocity": 123, "duration": 228}, {"note": 0, "velocity": 0, "duration": 492}, {"note": 86, "velocity": 119, "duration": 52}, {"note": 0, "velocity": 0, "duration": 68}, {"note": 86, "velocity": 113, "duration": 73}, {"note": 84, "velocity": 119, "duration": 114}, {"note": 0, "velocity": 0, "duration": 126}, {"note": 84, "velocity": 120, "duration": 101}, {"note": 0, "velocity": 0, "duration": 139}, {"note": 84, "velocity": 120, "duration": 126}, {"note": 0, "velocity": 0, "duration": 114}, {"note": 84, "velocity": 119, "duration": 106}, {"note": 86, "velocity": 108, "duration": 102}, {"note": 84, "velocity": 116, "duration": 115}, {"note": 82, "velocity": 116, "duration": 134}, {"note": 0, "velocity": 0, "duration": 106}, {"note": 79, "velocity": 117, "duration": 164}, {"note": 0, "velocity": 0, "duration": 196}, {"note": 79, "velocity": 116, "duration": 108}, {"note": 81, "velocity": 116, "duration": 115}, {"note": 82, "velocity": 113, "duration": 58}, {"note": 0, "velocity": 0, "duration": 62}, {"note": 82, "velocity": 106, "duration": 59}, {"note": 0, "velocity": 0, "duration": 61}, {"note": 82, "velocity": 106, "duration": 54}, {"note": 0, "velocity": 0, "duration": 66}, {"note": 82, "velocity": 109, "duration": 52}, {"note": 0, "velocity": 0, "duration": 68}, {"note": 82, "velocity": 119, "duration": 65}, {"note": 84, "velocity": 117, "duration": 81}, {"note": 0, "velocity": 0, "duration": 159}, {"note": 82, "velocity": 119, "duration": 70}, {"note": 81, "velocity": 120, "duration": 217}, {"note": 0, "velocity": 0, "duration": 263}, {"note": 82, "velocity": 123, "duration": 182}, {"note": 81, "velocity": 119, "duration": 175}, {"note": 0, "velocity": 0, "duration": 65}, {"note": 79, "velocity": 117, "duration": 189}, {"note": 0, "velocity": 0, "duration": 171}, {"note": 79, "velocity": 116, "duration": 53}, {"note": 0, "velocity": 0, "duration": 67}, {"note": 79, "velocity": 116, "duration": 183}, {"note": 77, "velocity": 119, "duration": 152}, {"note": 0, "velocity": 0, "duration": 88}, {"note": 74, "velocity": 120, "duration": 181}, {"note": 0, "velocity": 0, "duration": 299}, {"note": 82, "velocity": 123, "duration": 140}, {"note": 0, "velocity": 0, "duration": 100}, {"note": 81, "velocity": 120, "duration": 116}, {"note": 0, "velocity": 0, "duration": 124}, {"note": 79, "velocity": 120, "duration": 194}, {"note": 0, "velocity": 0, "duration": 166}, {"note": 79, "velocity": 117, "duration": 70}, {"note": 79, "velocity": 117, "duration": 138}, {"note": 0, "velocity": 0, "duration": 102}, {"note": 86, "velocity": 120, "duration": 157}, {"note": 0, "velocity": 0, "duration": 83}, {"note": 86, "velocity": 123, "duration": 228}, {"note": 0, "velocity": 0, "duration": 492}, {"note": 86, "velocity": 119, "duration": 52}, {"note": 0, "velocity": 0, "duration": 68}, {"note": 86, "velocity": 113, "duration": 73}, {"note": 84, "velocity": 119, "duration": 114}, {"note": 0, "velocity": 0, "duration": 126}, {"note": 84, "velocity": 120, "duration": 101}, {"note": 0, "velocity": 0, "duration": 139}, {"note": 84, "velocity": 120, "duration": 126}, {"note": 0, "velocity": 0, "duration": 114}, {"note": 84, "velocity": 119, "duration": 106}, {"note": 86, "velocity": 108, "duration": 102}, {"note": 84, "velocity": 116, "duration": 115}, {"note": 82, "velocity": 116, "duration": 134}, {"note": 0, "velocity": 0, "duration": 106}, {"note": 79, "velocity": 117, "duration": 164}, {"note": 0, "velocity": 0, "duration": 196}, {"note": 79, "velocity": 116, "duration": 108}, {"note": 81, "velocity": 116, "duration": 115}, {"note": 82, "velocity": 113, "duration": 58}, {"note": 0, "velocity": 0, "duration": 62}, {"note": 82, "velocity": 106, "duration": 59}, {"note": 0, "velocity": 0, "duration": 61}, {"note": 82, "velocity": 106, "duration": 54}, {"note": 0, "velocity": 0, "duration": 66}, {"note": 82, "velocity": 109, "duration": 52}, {"note": 0, "velocity": 0, "duration": 68}, {"note": 82, "velocity": 119, "duration": 65}, {"note": 84, "velocity": 117, "duration": 81}, {"note": 0, "velocity": 0, "duration": 279}, {"note": 81, "velocity": 119, "duration": 70}, {"note": 0, "velocity": 0, "duration": 410}, {"note": 81, "velocity": 117, "duration": 132}, {"note": 0, "velocity": 0, "duration": 108}, {"note": 82, "velocity": 119, "duration": 125}, {"note": 0, "velocity": 0, "duration": 115}, {"note": 81, "velocity": 119, "duration": 155}, {"note": 0, "velocity": 0, "duration": 325}, {"note": 79, "velocity": 117, "duration": 196}]]