[[{"note": 65, "velocity": 110, "duration": 240}, {"note": 67, "velocity": 96, "duration": 186}, {"note": 69, "velocity": 114, "duration": 217}, {"note": 67, "velocity": 107, "duration": 209}, {"note": 69, "velocity": 108, "duration": 162}, {"note": 0, "velocity": 0, "duration": 78}, {"note": 72, "velocity": 113, "duration": 314}, {"note": 0, "velocity": 0, "duration": 166}, {"note": 69, "velocity": 116, "duration": 357}, {"note": 0, "velocity": 0, "duration": 1323}, {"note": 69, "velocity": 116, "duration": 237}, {"note": 72, "velocity": 108, "duration": 197}, {"note": 0, "velocity": 0, "duration": 283}, {"note": 77, "velocity": 110, "duration": 210}, {"note": 74, "velocity": 108, "duration": 226}, {"note": 72, "velocity": 100, "duration": 229}, {"note": 69, "velocity": 104, "duration": 224}, {"note": 72, "velocity": 102, "duration": 232}, {"note": 0, "velocity": 0, "duration": 248}, {"note": 69, "velocity": 107, "duration": 296}, {"note": 0, "velocity": 0, "duration": 1384}, {"note": 72, "velocity": 107, "duration": 244}, {"note": 69, "velocity": 104, "duration": 233}, {"note": 67, "velocity": 96, "duration": 127}, {"note": 0, "velocity": 0, "duration": 113}, {"note": 67, "velocity": 98, "duration": 149}, {"note": 0, "velocity": 0, "duration": 91}, {"note": 67, "velocity": 107, "duration": 214}, {"note": 65, "velocity": 107, "duration": 218}, {"note": 67, "velocity": 113, "duration": 185}, {"note": 0, "velocity": 0, "duration": 295}, {"note": 69, "velocity": 104, "duration": 114}, {"note": 0, "velocity": 0, "duration": 126}, {"note": 69, "velocity": 102, "duration": 170}, {"note": 0, "velocity": 0, "duration": 70}, {"note": 62, "velocity": 89, "duration": 252}, {"note": 0, "velocity": 0, "duration": 1188}, {"note": 67, "velocity": 104, "duration": 111}, {"note": 0, "velocity": 0, "duration": 129}, {"note": 69, "velocity": 98, "duration": 205}, {"note": 67, "velocity": 93, "duration": 121}, {"note": 0, "velocity": 0, "duration": 119}, {"note": 69, "velocity": 102, "duration": 210}, {"note": 67, "velocity": 104, "duration": 144}, {"note": 0, "velocity": 0, "duration": 96}, {"note": 69, "velocity": 96, "duration": 105}, {"note": 0, "velocity": 0, "duration": 135}, {"note": 72, "velocity": 114, "duration": 194}, {"note": 0, "velocity": 0, "duration": 286}, {"note": 69, "velocity": 113, "duration": 132}, {"note": 0, "velocity": 0, "duration": 108}, {"note": 72, "velocity": 107, "duration": 281}, {"note": 0, "velocity": 0, "duration": 1399}, {"note": 65, "velocity": 110, "duration": 240}, {"note": 67, "velocity": 96, "duration": 186}, {"note": 69, "velocity": 114, "duration": 217}, {"note": 67, "velocity": 107, "duration": 209}, {"note": 69, "velocity": 108, "duration": 162}, {"note": 0, "velocity": 0, "duration": 78}, {"note": 67, "velocity": 87, "duration": 215}, {"note": 69, "velocity": 108, "duration": 174}, {"note": 0, "velocity": 0, "duration": 66}, {"note": 72, "velocity": 110, "duration": 298}, {"note": 0, "velocity": 0, "duration": 182}, {"note": 69, "velocity": 113, "duration": 323}, {"note": 0, "velocity": 0, "duration": 1597}, {"note": 72, "velocity": 114, "duration": 156}, {"note": 0, "velocity": 0, "duration": 84}, {"note": 77, "velocity": 113, "duration": 189}, {"note": 76, "velocity": 110, "duration": 225}, {"note": 74, "velocity": 110, "duration": 219}, {"note": 72, "velocity": 107, "duration": 181}, {"note": 74, "velocity": 110, "duration": 202}, {"note": 0, "velocity": 0, "duration": 278}, {"note": 72, "velocity": 107, "duration": 155}, {"note": 0, "velocity": 0, "duration": 85}, {"note": 74, "velocity": 110, "duration": 273}, {"note": 0, "velocity": 0, "duration": 1407}, {"note": 72, "velocity": 113, "duration": 229}, {"note": 69, "velocity": 107, "duration": 251}, {"note": 67, "velocity": 104, "duration": 252}, {"note": 0, "velocity": 0, "duration": 228}, {"note": 67, "velocity": 104, "duration": 233}, {"note": 65, "velocity": 113, "duration": 201}, {"note": 67, "velocity": 116, "duration": 224}, {"note": 69, "velocity": 108, "duration": 237}, {"note": 0, "velocity": 0, "duration": 243}, {"note": 67, "velocity": 113, "duration": 288}, {"note": 0, "velocity": 0, "duration": 1392}, {"note": 67, "velocity": 108, "duration": 269}, {"note": 69, "velocity": 98, "duration": 205}, {"note": 72, "velocity": 108, "duration": 223}, {"note": 72, "velocity": 108, "duration": 128}, {"note": 0, "velocity": 0, "duration": 112}, {"note": 72, "velocity": 110, "duration": 202}, {"note": 69, "velocity": 107, "duration": 208}, {"note": 67, "velocity": 108, "duration": 160}, {"note": 0, "velocity": 0, "duration": 80}, {"note": 65, "velocity": 108, "duration": 184}, {"note": 67, "velocity": 107, "duration": 98}, {"note": 0, "velocity": 0, "duration": 142}, {"note": 69, "velocity": 108, "duration": 268}, {"note": 0, "velocity": 0, "duration": 212}, {"note": 65, "velocity": 113, "duration": 261}, {"note": 0, "velocity": 0, "duration": 2379}, {"note": 72, "velocity": 116, "duration": 490}, {"note": 74, "velocity": 113, "duration": 341}, {"note": 0, "velocity": 0, "duration": 139}, {"note": 79, "velocity": 117, "duration": 388}, {"note": 0, "velocity": 0, "duration": 332}, {"note": 81, "velocity": 117, "duration": 292}, {"note": 79, "velocity": 108, "duration": 231}, {"note": 77, "velocity": 110, "duration": 243}, {"note": 74, "velocity": 114, "duration": 235}, {"note": 72, "velocity": 114, "duration": 364}, {"note": 0, "velocity": 0, "duration": 836}, {"note": 69, "velocity": 119, "duration": 338}, {"note": 0, "velocity": 0, "duration": 142}, {"note": 72, "velocity": 116, "duration": 291}, {"note": 0, "velocity": 0, "duration": 189}, {"note": 74, "velocity": 114, "duration": 131}, {"note": 0, "velocity": 0, "duration": 109}, {"note": 74, "velocity": 117, "duration": 222}, {"note": 0, "velocity": 0, "duration": 258}, {"note": 77, "velocity": 110, "duration": 232}, {"note": 74, "velocity": 108, "duration": 255}, {"note": 72, "velocity": 107, "duration": 241}, {"note": 69, "velocity": 107, "duration": 280}, {"note": 67, "velocity": 108, "duration": 300}, {"note": 69, "velocity": 113, "duration": 364}, {"note": 0, "velocity": 0, "duration": 596}, {"note": 72, "velocity": 117, "duration": 417}, {"note": 0, "velocity": 0, "duration": 63}, {"note": 77, "velocity": 91, "duration": 333}, {"note": 0, "velocity": 0, "duration": 147}, {"note": 79, "velocity": 117, "duration": 325}, {"note": 79, "velocity": 116, "duration": 85}, {"note": 0, "velocity": 0, "duration": 395}, {"note": 81, "velocity": 117, "duration": 302}, {"note": 79, "velocity": 114, "duration": 243}, {"note": 77, "velocity": 113, "duration": 207}, {"note": 74, "velocity": 102, "duration": 238}, {"note": 79, "velocity": 117, "duration": 215}, {"note": 0, "velocity": 0, "duration": 1465}, {"note": 77, "velocity": 107, "duration": 215}, {"note": 79, "velocity": 113, "duration": 227}, {"note": 81, "velocity": 113, "duration": 157}, {"note": 0, "velocity": 0, "duration": 83}, {"note": 84, "velocity": 116, "duration": 228}, {"note": 0, "velocity": 0, "duration": 252}, {"note": 81, "velocity": 113, "duration": 205}, {"note": 84, "velocity": 113, "duration": 216}, {"note": 81, "velocity": 113, "duration": 240}, {"note": 81, "velocity": 116, "duration": 213}, {"note": 79, "velocity": 114, "duration": 207}, {"note": 81, "velocity": 117, "duration": 253}, {"note": 0, "velocity": 0, "duration": 707}, {"note": 74, "velocity": 117, "duration": 310}, {"note": 0, "velocity": 0, "duration": 170}, {"note": 77, "velocity": 117, "duration": 279}, {"note": 0, "velocity": 0, "duration": 201}, {"note": 79, "velocity": 116, "duration": 297}, {"note": 0, "velocity": 0, "duration": 423}, {"note": 81, "velocity": 119, "duration": 287}, {"note": 79, "velocity": 113, "duration": 212}, {"note": 77, "velocity": 110, "duration": 253}, {"note": 74, "velocity": 108, "duration": 274}, {"note": 72, "velocity": 108, "duration": 518}, {"note": 0, "velocity": 0, "duration": 1162}, {"note": 77, "velocity": 114, "duration": 241}, {"note": 79, "velocity": 110, "duration": 273}, {"note": 81, "velocity": 110, "duration": 143}, {"note": 0, "velocity": 0, "duration": 97}, {"note": 84, "velocity": 117, "duration": 236}, {"note": 0, "velocity": 0, "duration": 244}, {"note": 81, "velocity": 114, "duration": 216}, {"note": 84, "velocity": 116, "duration": 226}, {"note": 81, "velocity": 114, "duration": 218}, {"note": 84, "velocity": 114, "duration": 260}, {"note": 86, "velocity": 119, "duration": 323}, {"note": 0, "velocity": 0, "duration": 877}, {"note": 74, "velocity": 116, "duration": 338}, {"note": 0, "velocity": 0, "duration": 142}, {"note": 77, "velocity": 114, "duration": 321}, {"note": 0, "velocity": 0, "duration": 159}, {"note": 79, "velocity": 117, "duration": 89}, {"note": 0, "velocity": 0, "duration": 151}, {"note": 79, "velocity": 113, "duration": 74}, {"note": 0, "velocity": 0, "duration": 166}, {"note": 79, "velocity": 110, "duration": 128}, {"note": 0, "velocity": 0, "duration": 112}, {"note": 81, "velocity": 108, "duration": 119}, {"note": 0, "velocity": 0, "duration": 121}, {"note": 79, "velocity": 119, "duration": 153}, {"note": 0, "velocity": 0, "duration": 87}, {"note": 77, "velocity": 114, "duration": 229}, {"note": 74, "velocity": 114, "duration": 195}, {"note": 79, "velocity": 117, "duration": 225}, {"note": 0, "velocity": 0, "duration": 1455}, {"note": 79, "velocity": 113, "duration": 233}, {"note": 81, "velocity": 107, "duration": 135}, {"note": 0, "velocity": 0, "duration": 105}, {"note": 84, "velocity": 119, "duration": 207}, {"note": 81, "velocity": 114, "duration": 263}, {"note": 0, "velocity": 0, "duration": 217}, {"note": 79, "velocity": 110, "duration": 204}, {"note": 81, "velocity": 117, "duration": 339}, {"note": 0, "velocity": 0, "duration": 2541}, {"note": 79, "velocity": 117, "duration": 188}, {"note": 81, "velocity": 117, "duration": 272}, {"note": 79, "velocity": 110, "duration": 233}, {"note": 77, "velocity": 113, "duration": 225}, {"note": 74, "velocity": 116, "duration": 158}, {"note": 0, "velocity": 0, "duration": 82}, {"note": 79, "velocity": 119, "duration": 263}, {"note": 0, "velocity": 0, "duration": 217}, {"note": 77, "velocity": 114, "duration": 428}, {"note": 0, "velocity": 0, "duration": 34372}, {"note": 65, "velocity": 110, "duration": 240}, {"note": 67, "velocity": 96, "duration": 186}, {"note": 69, "velocity": 114, "duration": 217}, {"note": 67, "velocity": 107, "duration": 209}, {"note": 69, "velocity": 108, "duration": 162}, {"note": 0, "velocity": 0, "duration": 78}, {"note": 72, "velocity": 113, "duration": 314}, {"note": 0, "velocity": 0, "duration": 166}, {"note": 69, "velocity": 116, "duration": 357}, {"note": 0, "velocity": 0, "duration": 1323}, {"note": 69, "velocity": 116, "duration": 237}, {"note": 72, "velocity": 108, "duration": 197}, {"note": 0, "velocity": 0, "duration": 283}, {"note": 77, "velocity": 110, "duration": 210}, {"note": 74, "velocity": 108, "duration": 226}, {"note": 72, "velocity": 100, "duration": 229}, {"note": 69, "velocity": 104, "duration": 224}, {"note": 72, "velocity": 102, "duration": 232}, {"note": 0, "velocity": 0, "duration": 248}, {"note": 69, "velocity": 107, "duration": 296}, {"note": 0, "velocity": 0, "duration": 1384}, {"note": 72, "velocity": 107, "duration": 244}, {"note": 69, "velocity": 104, "duration": 233}, {"note": 67, "velocity": 96, "duration": 127}, {"note": 0, "velocity": 0, "duration": 113}, {"note": 67, "velocity": 98, "duration": 149}, {"note": 0, "velocity": 0, "duration": 91}, {"note": 67, "velocity": 107, "duration": 214}, {"note": 65, "velocity": 107, "duration": 218}, {"note": 67, "velocity": 113, "duration": 185}, {"note": 0, "velocity": 0, "duration": 295}, {"note": 69, "velocity": 104, "duration": 114}, {"note": 0, "velocity": 0, "duration": 126}, {"note": 69, "velocity": 102, "duration": 170}, {"note": 0, "velocity": 0, "duration": 70}, {"note": 62, "velocity": 89, "duration": 252}, {"note": 0, "velocity": 0, "duration": 1188}, {"note": 67, "velocity": 104, "duration": 111}, {"note": 0, "velocity": 0, "duration": 129}, {"note": 69, "velocity": 98, "duration": 205}, {"note": 67, "velocity": 93, "duration": 121}, {"note": 0, "velocity": 0, "duration": 119}, {"note": 69, "velocity": 102, "duration": 210}, {"note": 67, "velocity": 104, "duration": 144}, {"note": 0, "velocity": 0, "duration": 96}, {"note": 69, "velocity": 96, "duration": 105}, {"note": 0, "velocity": 0, "duration": 135}, {"note": 72, "velocity": 114, "duration": 194}, {"note": 0, "velocity": 0, "duration": 286}, {"note": 69, "velocity": 113, "duration": 132}, {"note": 0, "velocity": 0, "duration": 108}, {"note": 72, "velocity": 107, "duration": 281}, {"note": 0, "velocity": 0, "duration": 1399}, {"note": 65, "velocity": 110, "duration": 240}, {"note": 67, "velocity": 96, "duration": 186}, {"note": 69, "velocity": 114, "duration": 217}, {"note": 67, "velocity": 107, "duration": 209}, {"note": 69, "velocity": 108, "duration": 162}, {"note": 0, "velocity": 0, "duration": 78}, {"note": 67, "velocity": 87, "duration": 215}, {"note": 69, "velocity": 108, "duration": 174}, {"note": 0, "velocity": 0, "duration": 66}, {"note": 72, "velocity": 110, "duration": 298}, {"note": 0, "velocity": 0, "duration": 182}, {"note": 69, "velocity": 113, "duration": 323}, {"note": 0, "velocity": 0, "duration": 1597}, {"note": 72, "velocity": 114, "duration": 156}, {"note": 0, "velocity": 0, "duration": 84}, {"note": 77, "velocity": 113, "duration": 189}, {"note": 76, "velocity": 110, "duration": 225}, {"note": 74, "velocity": 110, "duration": 219}, {"note": 72, "velocity": 107, "duration": 181}, {"note": 74, "velocity": 110, "duration": 202}, {"note": 0, "velocity": 0, "duration": 278}, {"note": 72, "velocity": 107, "duration": 155}, {"note": 0, "velocity": 0, "duration": 85}, {"note": 74, "velocity": 110, "duration": 273}, {"note": 0, "velocity": 0, "duration": 1407}, {"note": 72, "velocity": 113, "duration": 229}, {"note": 69, "velocity": 107, "duration": 251}, {"note": 67, "velocity": 104, "duration": 252}, {"note": 0, "velocity": 0, "duration": 228}, {"note": 67, "velocity": 104, "duration": 233}, {"note": 65, "velocity": 113, "duration": 201}, {"note": 67, "velocity": 116, "duration": 224}, {"note": 69, "velocity": 108, "duration": 237}, {"note": 0, "velocity": 0, "duration": 243}, {"note": 67, "velocity": 113, "duration": 288}, {"note": 0, "velocity": 0, "duration": 1392}, {"note": 67, "velocity": 108, "duration": 269}, {"note": 69, "velocity": 98, "duration": 205}, {"note": 72, "velocity": 108, "duration": 223}, {"note": 72, "velocity": 108, "duration": 128}, {"note": 0, "velocity": 0, "duration": 112}, {"note": 72, "velocity": 110, "duration": 202}, {"note": 69, "velocity": 107, "duration": 208}, {"note": 67, "velocity": 108, "duration": 160}, {"note": 0, "velocity": 0, "duration": 80}, {"note": 65, "velocity": 108, "duration": 184}, {"note": 67, "velocity": 107, "duration": 98}, {"note": 0, "velocity": 0, "duration": 142}, {"note": 69, "velocity": 108, "duration": 268}, {"note": 0, "velocity": 0, "duration": 212}, {"note": 65, "velocity": 113, "duration": 261}, {"note": 0, "velocity": 0, "duration": 2379}, {"note": 72, "velocity": 116, "duration": 490}, {"note": 74, "velocity": 113, "duration": 341}, {"note": 0, "velocity": 0, "duration": 139}, {"note": 79, "velocity": 117, "duration": 388}, {"note": 0, "velocity": 0, "duration": 332}, {"note": 81, "velocity": 117, "duration": 292}, {"note": 79, "velocity": 108, "duration": 231}, {"note": 77, "velocity": 110, "duration": 243}, {"note": 74, "velocity": 114, "duration": 235}, {"note": 72, "velocity": 114, "duration": 364}, {"note": 0, "velocity": 0, "duration": 836}, {"note": 69, "velocity": 119, "duration": 338}, {"note": 0, "velocity": 0, "duration": 142}, {"note": 72, "velocity": 116, "duration": 291}, {"note": 0, "velocity": 0, "duration": 189}, {"note": 74, "velocity": 114, "duration": 131}, {"note": 0, "velocity": 0, "duration": 109}, {"note": 74, "velocity": 117, "duration": 222}, {"note": 0, "velocity": 0, "duration": 258}, {"note": 77, "velocity": 110, "duration": 232}, {"note": 74, "velocity": 108, "duration": 255}, {"note": 72, "velocity": 107, "duration": 241}, {"note": 69, "velocity": 107, "duration": 280}, {"note": 67, "velocity": 108, "duration": 300}, {"note": 69, "velocity": 113, "duration": 364}, {"note": 0, "velocity": 0, "duration": 596}, {"note": 72, "velocity": 117, "duration": 417}, {"note": 0, "velocity": 0, "duration": 63}, {"note": 77, "velocity": 91, "duration": 333}, {"note": 0, "velocity": 0, "duration": 147}, {"note": 79, "velocity": 117, "duration": 325}, {"note": 79, "velocity": 116, "duration": 85}, {"note": 0, "velocity": 0, "duration": 395}, {"note": 81, "velocity": 117, "duration": 302}, {"note": 79, "velocity": 114, "duration": 243}, {"note": 77, "velocity": 113, "duration": 207}, {"note": 74, "velocity": 102, "duration": 238}, {"note": 79, "velocity": 117, "duration": 215}, {"note": 0, "velocity": 0, "duration": 1465}, {"note": 77, "velocity": 107, "duration": 215}, {"note": 79, "velocity": 113, "duration": 227}, {"note": 81, "velocity": 113, "duration": 157}, {"note": 0, "velocity": 0, "duration": 83}, {"note": 84, "velocity": 116, "duration": 228}, {"note": 0, "velocity": 0, "duration": 252}, {"note": 81, "velocity": 113, "duration": 205}, {"note": 84, "velocity": 113, "duration": 216}, {"note": 81, "velocity": 113, "duration": 240}, {"note": 81, "velocity": 116, "duration": 213}, {"note": 79, "velocity": 114, "duration": 207}, {"note": 81, "velocity": 117, "duration": 253}, {"note": 0, "velocity": 0, "duration": 707}, {"note": 74, "velocity": 117, "duration": 310}, {"note": 0, "velocity": 0, "duration": 170}, {"note": 77, "velocity": 117, "duration": 279}, {"note": 0, "velocity": 0, "duration": 201}, {"note": 79, "velocity": 116, "duration": 297}, {"note": 0, "velocity": 0, "duration": 423}, {"note": 81, "velocity": 119, "duration": 287}, {"note": 79, "velocity": 113, "duration": 212}, {"note": 77, "velocity": 110, "duration": 253}, {"note": 74, "velocity": 108, "duration": 274}, {"note": 72, "velocity": 108, "duration": 518}, {"note": 0, "velocity": 0, "duration": 1162}, {"note": 77, "velocity": 114, "duration": 241}, {"note": 79, "velocity": 110, "duration": 273}, {"note": 81, "velocity": 110, "duration": 143}, {"note": 0, "velocity": 0, "duration": 97}, {"note": 84, "velocity": 117, "duration": 236}, {"note": 0, "velocity": 0, "duration": 244}, {"note": 81, "velocity": 114, "duration": 216}, {"note": 84, "velocity": 116, "duration": 226}, {"note": 81, "velocity": 114, "duration": 218}, {"note": 84, "velocity": 114, "duration": 260}, {"note": 86, "velocity": 119, "duration": 323}, {"note": 0, "velocity": 0, "duration": 877}, {"note": 74, "velocity": 116, "duration": 338}, {"note": 0, "velocity": 0, "duration": 142}, {"note": 77, "velocity": 114, "duration": 321}, {"note": 0, "velocity": 0, "duration": 159}, {"note": 79, "velocity": 117, "duration": 89}, {"note": 0, "velocity": 0, "duration": 151}, {"note": 79, "velocity": 113, "duration": 74}, {"note": 0, "velocity": 0, "duration": 166}, {"note": 79, "velocity": 110, "duration": 128}, {"note": 0, "velocity": 0, "duration": 112}, {"note": 81, "velocity": 108, "duration": 119}, {"note": 0, "velocity": 0, "duration": 121}, {"note": 79, "velocity": 119, "duration": 153}, {"note": 0, "velocity": 0, "duration": 87}, {"note": 77, "velocity": 114, "duration": 229}, {"note": 74, "velocity": 114, "duration": 195}, {"note": 79, "velocity": 117, "duration": 225}, {"note": 0, "velocity": 0, "duration": 1455}, {"note": 79, "velocity": 113, "duration": 233}, {"note": 81, "velocity": 107, "duration": 135}, {"note": 0, "velocity": 0, "duration": 105}, {"note": 84, "velocity": 119, "duration": 207}, {"note": 81, "velocity": 114, "duration": 263}, {"note": 0, "velocity": 0, "duration": 217}, {"note": 79, "velocity": 110, "duration": 204}, {"note": 81, "velocity": 117, "duration": 339}, {"note": 0, "velocity": 0, "duration": 2541}, {"note": 79, "velocity": 117, "duration": 188}, {"note": 81, "velocity": 117, "duration": 272}, {"note": 79, "velocity": 110, "duration": 233}, {"note": 77, "velocity": 113, "duration": 225}, {"note": 74, "velocity": 116, "duration": 158}, {"note": 0, "velocity": 0, "duration": 82}, {"note": 79, "velocity": 119, "duration": 263}, {"note": 0, "velocity": 0, "duration": 217}, {"note": 77, "velocity": 114, "duration": 428}, {"note": 0, "velocity": 0, "duration": 2692}, {"note": 72, "velocity": 116, "duration": 490}, {"note": 74, "velocity": 113, "duration": 341}, {"note": 0, "velocity": 0, "duration": 139}, {"note": 79, "velocity": 117, "duration": 388}, {"note": 0, "velocity": 0, "duration": 332}, {"note": 81, "velocity": 117, "duration": 292}, {"note": 79, "velocity": 108, "duration": 231}, {"note": 77, "velocity": 110, "duration": 243}, {"note": 74, "velocity": 114, "duration": 235}, {"note": 72, "velocity": 114, "duration": 364}, {"note": 0, "velocity": 0, "duration": 836}, {"note": 69, "velocity": 119, "duration": 338}, {"note": 0, "velocity": 0, "duration": 142}, {"note": 72, "velocity": 116, "duration": 291}, {"note": 0, "velocity": 0, "duration": 189}, {"note": 74, "velocity": 114, "duration": 131}, {"note": 0, "velocity": 0, "duration": 109}, {"note": 74, "velocity": 117, "duration": 222}, {"note": 0, "velocity": 0, "duration": 258}, {"note": 77, "velocity": 110, "duration": 232}, {"note": 74, "velocity": 108, "duration": 255}, {"note": 72, "velocity": 107, "duration": 241}, {"note": 69, "velocity": 107, "duration": 280}, {"note": 67, "velocity": 108, "duration": 300}, {"note": 69, "velocity": 113, "duration": 364}, {"note": 0, "velocity": 0, "duration": 596}, {"note": 72, "velocity": 117, "duration": 417}, {"note": 0, "velocity": 0, "duration": 183}, {"note": 77, "velocity": 91, "duration": 333}, {"note": 79, "velocity": 117, "duration": 325}, {"note": 79, "velocity": 116, "duration": 85}, {"note": 0, "velocity": 0, "duration": 395}, {"note": 81, "velocity": 117, "duration": 302}, {"note": 79, "velocity": 114, "duration": 243}, {"note": 77, "velocity": 113, "duration": 207}, {"note": 74, "velocity": 102, "duration": 238}, {"note": 79, "velocity": 117, "duration": 215}, {"note": 0, "velocity": 0, "duration": 1465}, {"note": 77, "velocity": 107, "duration": 215}, {"note": 79, "velocity": 113, "duration": 227}, {"note": 81, "velocity": 113, "duration": 157}, {"note": 0, "velocity": 0, "duration": 83}, {"note": 84, "velocity": 116, "duration": 228}, {"note": 0, "velocity": 0, "duration": 252}, {"note": 81, "velocity": 113, "duration": 205}, {"note": 84, "velocity": 113, "duration": 216}, {"note": 81, "velocity": 113, "duration": 240}, {"note": 81, "velocity": 116, "duration": 213}, {"note": 79, "velocity": 114, "duration": 207}, {"note": 81, "velocity": 117, "duration": 253}, {"note": 0, "velocity": 0, "duration": 707}, {"note": 74, "velocity": 117, "duration": 310}, {"note": 0, "velocity": 0, "duration": 170}, {"note": 77, "velocity": 117, "duration": 279}, {"note": 0, "velocity": 0, "duration": 201}, {"note": 79, "velocity": 116, "duration": 297}, {"note": 0, "velocity": 0, "duration": 423}, {"note": 81, "velocity": 119, "duration": 287}, {"note": 79, "velocity": 113, "duration": 212}, {"note": 77, "velocity": 110, "duration": 253}, {"note": 74, "velocity": 108, "duration": 274}, {"note": 72, "velocity": 108, "duration": 518}, {"note": 0, "velocity": 0, "duration": 1162}, {"note": 77, "velocity": 114, "duration": 241}, {"note": 79, "velocity": 110, "duration": 273}, {"note": 81, "velocity": 110, "duration": 143}, {"note": 0, "velocity": 0, "duration": 97}, {"note": 84, "velocity": 117, "duration": 236}, {"note": 0, "velocity": 0, "duration": 244}, {"note": 81, "velocity": 114, "duration": 216}, {"note": 84, "velocity": 116, "duration": 226}, {"note": 81, "velocity": 114, "duration": 218}, {"note": 84, "velocity": 114, "duration": 260}, {"note": 86, "velocity": 119, "duration": 323}, {"note": 0, "velocity": 0, "duration": 877}, {"note": 74, "velocity": 116, "duration": 338}, {"note": 0, "velocity": 0, "duration": 142}, {"note": 77, "velocity": 114, "duration": 321}, {"note": 0, "velocity": 0, "duration": 159}, {"note": 79, "velocity": 117, "duration": 89}, {"note": 0, "velocity": 0, "duration": 151}, {"note": 79, "velocity": 113, "duration": 74}, {"note": 0, "velocity": 0, "duration": 166}, {"note": 79, "velocity": 110, "duration": 128}, {"note": 0, "velocity": 0, "duration": 112}, {"note": 81, "velocity": 108, "duration": 119}, {"note": 0, "velocity": 0, "duration": 121}, {"note": 79, "velocity": 119, "duration": 153}, {"note": 0, "velocity": 0, "duration": 87}, {"note": 77, "velocity": 114, "duration": 229}, {"note": 74, "velocity": 114, "duration": 195}, {"note": 79, "velocity": 117, "duration": 225}, {"note": 0, "velocity": 0, "duration": 1455}, {"note": 79, "velocity": 113, "duration": 233}, {"note": 81, "velocity": 107, "duration": 135}, {"note": 0, "velocity": 0, "duration": 105}, {"note": 84, "velocity": 119, "duration": 207}, {"note": 81, "velocity": 114, "duration": 263}, {"note": 0, "velocity": 0, "duration": 217}, {"note": 79, "velocity": 110, "duration": 204}, {"note": 81, "velocity": 117, "duration": 339}, {"note": 0, "velocity": 0, "duration": 2541}, {"note": 79, "velocity": 117, "duration": 188}, {"note": 81, "velocity": 117, "duration": 272}, {"note": 79, "velocity": 110, "duration": 233}, {"note": 77, "velocity": 113, "duration": 225}, {"note": 74, "velocity": 116, "duration": 158}, {"note": 0, "velocity": 0, "duration": 82}, {"note": 79, "velocity": 119, "duration": 263}, {"note": 0, "velocity": 0, "duration": 217}, {"note": 77, "velocity": 114, "duration": 428}, {"note": 0, "velocity": 0, "duration": 1732}, {"note": 79, "velocity": 117, "duration": 221}, {"note": 81, "velocity": 108, "duration": 227}, {"note": 79, "velocity": 107, "duration": 220}, {"note": 77, "velocity": 108, "duration": 250}, {"note": 74, "velocity": 114, "duration": 249}, {"note": 79, "velocity": 108, "duration": 1915}, {"note": 0, "velocity": 0, "duration": 725}, {"note": 77, "velocity": 117, "duration": 654}]]