[[{"note": 66, "velocity": 77, "duration": 224}, {"note": 64, "velocity": 81, "duration": 648}, {"note": 0, "velocity": 0, "duration": 72}, {"note": 66, "velocity": 70, "duration": 229}, {"note": 61, "velocity": 74, "duration": 778}, {"note": 0, "velocity": 0, "duration": 182}, {"note": 64, "velocity": 77, "duration": 77}, {"note": 64, "velocity": 78, "duration": 72}, {"note": 66, "velocity": 73, "duration": 196}, {"note": 69, "velocity": 75, "duration": 212}, {"note": 71, "velocity": 75, "duration": 213}, {"note": 71, "velocity": 73, "duration": 110}, {"note": 69, "velocity": 73, "duration": 718}, {"note": 0, "velocity": 0, "duration": 267}, {"note": 64, "velocity": 76, "duration": 74}, {"note": 71, "velocity": 75, "duration": 346}, {"note": 69, "velocity": 71, "duration": 66}, {"note": 71, "velocity": 75, "duration": 206}, {"note": 73, "velocity": 73, "duration": 410}, {"note": 0, "velocity": 0, "duration": 358}, {"note": 74, "velocity": 76, "duration": 204}, {"note": 73, "velocity": 81, "duration": 129}, {"note": 71, "velocity": 76, "duration": 133}, {"note": 74, "velocity": 77, "duration": 215}, {"note": 73, "velocity": 77, "duration": 1189}, {"note": 0, "velocity": 0, "duration": 281}, {"note": 73, "velocity": 76, "duration": 62}, {"note": 73, "velocity": 75, "duration": 75}, {"note": 73, "velocity": 76, "duration": 286}, {"note": 0, "velocity": 0, "duration": 74}, {"note": 71, "velocity": 77, "duration": 306}, {"note": 66, "velocity": 76, "duration": 77}, {"note": 71, "velocity": 75, "duration": 622}, {"note": 0, "velocity": 0, "duration": 458}, {"note": 71, "velocity": 76, "duration": 205}, {"note": 68, "velocity": 77, "duration": 233}, {"note": 64, "velocity": 79, "duration": 207}, {"note": 71, "velocity": 76, "duration": 210}, {"note": 69, "velocity": 70, "duration": 668}, {"note": 0, "velocity": 0, "duration": 292}, {"note": 69, "velocity": 76, "duration": 299}, {"note": 0, "velocity": 0, "duration": 61}, {"note": 68, "velocity": 76, "duration": 75}, {"note": 69, "velocity": 75, "duration": 173}, {"note": 0, "velocity": 0, "duration": 67}, {"note": 62, "velocity": 75, "duration": 596}, {"note": 0, "velocity": 0, "duration": 124}, {"note": 66, "velocity": 75, "duration": 181}, {"note": 69, "velocity": 78, "duration": 176}, {"note": 0, "velocity": 0, "duration": 64}, {"note": 73, "velocity": 75, "duration": 718}, {"note": 68, "velocity": 75, "duration": 642}, {"note": 0, "velocity": 0, "duration": 78}, {"note": 69, "velocity": 77, "duration": 224}, {"note": 64, "velocity": 81, "duration": 648}, {"note": 0, "velocity": 0, "duration": 72}, {"note": 66, "velocity": 70, "duration": 229}, {"note": 61, "velocity": 74, "duration": 778}, {"note": 0, "velocity": 0, "duration": 182}, {"note": 64, "velocity": 77, "duration": 77}, {"note": 64, "velocity": 78, "duration": 72}, {"note": 66, "velocity": 73, "duration": 196}, {"note": 69, "velocity": 75, "duration": 212}, {"note": 71, "velocity": 75, "duration": 194}, {"note": 71, "velocity": 59, "duration": 43}, {"note": 69, "velocity": 73, "duration": 796}, {"note": 0, "velocity": 0, "duration": 267}, {"note": 64, "velocity": 76, "duration": 74}, {"note": 71, "velocity": 75, "duration": 346}, {"note": 69, "velocity": 71, "duration": 66}, {"note": 71, "velocity": 75, "duration": 206}, {"note": 73, "velocity": 73, "duration": 410}, {"note": 0, "velocity": 0, "duration": 190}, {"note": 64, "velocity": 76, "duration": 118}, {"note": 74, "velocity": 76, "duration": 204}, {"note": 73, "velocity": 81, "duration": 129}, {"note": 71, "velocity": 76, "duration": 133}, {"note": 74, "velocity": 77, "duration": 215}, {"note": 73, "velocity": 77, "duration": 1189}, {"note": 0, "velocity": 0, "duration": 281}, {"note": 73, "velocity": 76, "duration": 62}, {"note": 73, "velocity": 75, "duration": 75}, {"note": 73, "velocity": 76, "duration": 286}, {"note": 0, "velocity": 0, "duration": 74}, {"note": 71, "velocity": 77, "duration": 306}, {"note": 66, "velocity": 76, "duration": 77}, {"note": 71, "velocity": 75, "duration": 622}, {"note": 0, "velocity": 0, "duration": 458}, {"note": 71, "velocity": 76, "duration": 205}, {"note": 68, "velocity": 77, "duration": 233}, {"note": 64, "velocity": 79, "duration": 207}, {"note": 71, "velocity": 76, "duration": 210}, {"note": 69, "velocity": 70, "duration": 668}, {"note": 0, "velocity": 0, "duration": 172}, {"note": 62, "velocity": 76, "duration": 118}, {"note": 69, "velocity": 76, "duration": 238}, {"note": 71, "velocity": 76, "duration": 118}, {"note": 72, "velocity": 75, "duration": 238}, {"note": 0, "velocity": 0, "duration": 122}, {"note": 69, "velocity": 75, "duration": 596}, {"note": 0, "velocity": 0, "duration": 124}, {"note": 64, "velocity": 75, "duration": 181}, {"note": 76, "velocity": 78, "duration": 238}, {"note": 69, "velocity": 78, "duration": 238}, {"note": 71, "velocity": 75, "duration": 1318}, {"note": 0, "velocity": 0, "duration": 242}, {"note": 64, "velocity": 79, "duration": 91}, {"note": 76, "velocity": 81, "duration": 179}, {"note": 0, "velocity": 0, "duration": 61}, {"note": 73, "velocity": 80, "duration": 172}, {"note": 0, "velocity": 0, "duration": 68}, {"note": 73, "velocity": 80, "duration": 105}, {"note": 71, "velocity": 59, "duration": 91}, {"note": 71, "velocity": 76, "duration": 98}, {"note": 71, "velocity": 76, "duration": 361}, {"note": 69, "velocity": 73, "duration": 218}, {"note": 69, "velocity": 77, "duration": 73}, {"note": 64, "velocity": 59, "duration": 269}, {"note": 0, "velocity": 0, "duration": 91}, {"note": 76, "velocity": 77, "duration": 215}, {"note": 71, "velocity": 70, "duration": 166}, {"note": 0, "velocity": 0, "duration": 74}, {"note": 71, "velocity": 77, "duration": 193}, {"note": 69, "velocity": 76, "duration": 109}, {"note": 68, "velocity": 77, "duration": 271}, {"note": 69, "velocity": 77, "duration": 308}, {"note": 71, "velocity": 81, "duration": 200}, {"note": 73, "velocity": 81, "duration": 88}, {"note": 69, "velocity": 81, "duration": 59}, {"note": 0, "velocity": 0, "duration": 61}, {"note": 66, "velocity": 70, "duration": 106}, {"note": 69, "velocity": 76, "duration": 91}, {"note": 64, "velocity": 73, "duration": 105}, {"note": 66, "velocity": 69, "duration": 835}, {"note": 0, "velocity": 0, "duration": 605}, {"note": 66, "velocity": 78, "duration": 78}, {"note": 66, "velocity": 79, "duration": 92}, {"note": 64, "velocity": 81, "duration": 199}, {"note": 71, "velocity": 77, "duration": 199}, {"note": 71, "velocity": 77, "duration": 206}, {"note": 64, "velocity": 79, "duration": 102}, {"note": 73, "velocity": 79, "duration": 247}, {"note": 71, "velocity": 70, "duration": 610}, {"note": 0, "velocity": 0, "duration": 110}, {"note": 76, "velocity": 76, "duration": 85}, {"note": 76, "velocity": 77, "duration": 193}, {"note": 73, "velocity": 78, "duration": 177}, {"note": 0, "velocity": 0, "duration": 63}, {"note": 73, "velocity": 71, "duration": 178}, {"note": 0, "velocity": 0, "duration": 62}, {"note": 71, "velocity": 77, "duration": 116}, {"note": 71, "velocity": 77, "duration": 338}, {"note": 69, "velocity": 73, "duration": 238}, {"note": 71, "velocity": 77, "duration": 105}, {"note": 73, "velocity": 76, "duration": 310}, {"note": 76, "velocity": 81, "duration": 176}, {"note": 0, "velocity": 0, "duration": 64}, {"note": 71, "velocity": 76, "duration": 164}, {"note": 0, "velocity": 0, "duration": 76}, {"note": 71, "velocity": 76, "duration": 155}, {"note": 0, "velocity": 0, "duration": 85}, {"note": 69, "velocity": 77, "duration": 187}, {"note": 68, "velocity": 70, "duration": 118}, {"note": 69, "velocity": 75, "duration": 77}, {"note": 0, "velocity": 0, "duration": 163}, {"note": 69, "velocity": 75, "duration": 118}, {"note": 71, "velocity": 84, "duration": 109}, {"note": 73, "velocity": 82, "duration": 55}, {"note": 0, "velocity": 0, "duration": 65}, {"note": 69, "velocity": 76, "duration": 61}, {"note": 66, "velocity": 77, "duration": 118}, {"note": 69, "velocity": 76, "duration": 114}, {"note": 64, "velocity": 73, "duration": 107}, {"note": 66, "velocity": 68, "duration": 903}, {"note": 0, "velocity": 0, "duration": 657}, {"note": 66, "velocity": 67, "duration": 77}, {"note": 66, "velocity": 76, "duration": 210}, {"note": 64, "velocity": 81, "duration": 420}, {"note": 71, "velocity": 76, "duration": 785}, {"note": 0, "velocity": 0, "duration": 175}, {"note": 73, "velocity": 76, "duration": 174}, {"note": 0, "velocity": 0, "duration": 66}, {"note": 73, "velocity": 78, "duration": 244}, {"note": 71, "velocity": 70, "duration": 118}, {"note": 69, "velocity": 71, "duration": 1428}, {"note": 0, "velocity": 0, "duration": 8292}, {"note": 69, "velocity": 77, "duration": 224}, {"note": 64, "velocity": 81, "duration": 648}, {"note": 0, "velocity": 0, "duration": 72}, {"note": 66, "velocity": 70, "duration": 229}, {"note": 61, "velocity": 74, "duration": 778}, {"note": 0, "velocity": 0, "duration": 182}, {"note": 64, "velocity": 77, "duration": 77}, {"note": 64, "velocity": 78, "duration": 72}, {"note": 66, "velocity": 73, "duration": 196}, {"note": 69, "velocity": 75, "duration": 212}, {"note": 71, "velocity": 75, "duration": 125}, {"note": 69, "velocity": 59, "duration": 72}, {"note": 69, "velocity": 73, "duration": 813}, {"note": 0, "velocity": 0, "duration": 267}, {"note": 64, "velocity": 76, "duration": 74}, {"note": 71, "velocity": 75, "duration": 346}, {"note": 69, "velocity": 71, "duration": 66}, {"note": 71, "velocity": 75, "duration": 206}, {"note": 73, "velocity": 73, "duration": 410}, {"note": 0, "velocity": 0, "duration": 190}, {"note": 64, "velocity": 76, "duration": 118}, {"note": 74, "velocity": 76, "duration": 204}, {"note": 73, "velocity": 81, "duration": 129}, {"note": 71, "velocity": 76, "duration": 133}, {"note": 74, "velocity": 77, "duration": 215}, {"note": 73, "velocity": 77, "duration": 1189}, {"note": 0, "velocity": 0, "duration": 281}, {"note": 73, "velocity": 76, "duration": 62}, {"note": 73, "velocity": 75, "duration": 75}, {"note": 73, "velocity": 76, "duration": 286}, {"note": 0, "velocity": 0, "duration": 74}, {"note": 71, "velocity": 77, "duration": 306}, {"note": 66, "velocity": 76, "duration": 77}, {"note": 71, "velocity": 75, "duration": 622}, {"note": 0, "velocity": 0, "duration": 458}, {"note": 71, "velocity": 76, "duration": 205}, {"note": 68, "velocity": 77, "duration": 233}, {"note": 64, "velocity": 79, "duration": 207}, {"note": 71, "velocity": 76, "duration": 210}, {"note": 69, "velocity": 70, "duration": 668}, {"note": 0, "velocity": 0, "duration": 172}, {"note": 62, "velocity": 76, "duration": 118}, {"note": 69, "velocity": 76, "duration": 238}, {"note": 71, "velocity": 76, "duration": 118}, {"note": 72, "velocity": 75, "duration": 238}, {"note": 0, "velocity": 0, "duration": 122}, {"note": 69, "velocity": 75, "duration": 596}, {"note": 0, "velocity": 0, "duration": 124}, {"note": 64, "velocity": 75, "duration": 181}, {"note": 76, "velocity": 78, "duration": 238}, {"note": 69, "velocity": 78, "duration": 238}, {"note": 71, "velocity": 75, "duration": 1318}, {"note": 0, "velocity": 0, "duration": 242}, {"note": 64, "velocity": 79, "duration": 91}, {"note": 76, "velocity": 81, "duration": 179}, {"note": 0, "velocity": 0, "duration": 61}, {"note": 73, "velocity": 80, "duration": 172}, {"note": 0, "velocity": 0, "duration": 68}, {"note": 73, "velocity": 80, "duration": 142}, {"note": 71, "velocity": 59, "duration": 89}, {"note": 71, "velocity": 76, "duration": 104}, {"note": 71, "velocity": 76, "duration": 326}, {"note": 69, "velocity": 73, "duration": 218}, {"note": 69, "velocity": 77, "duration": 73}, {"note": 64, "velocity": 59, "duration": 269}, {"note": 0, "velocity": 0, "duration": 91}, {"note": 76, "velocity": 77, "duration": 215}, {"note": 71, "velocity": 70, "duration": 166}, {"note": 0, "velocity": 0, "duration": 74}, {"note": 71, "velocity": 77, "duration": 193}, {"note": 69, "velocity": 76, "duration": 173}, {"note": 68, "velocity": 77, "duration": 240}, {"note": 69, "velocity": 77, "duration": 313}, {"note": 71, "velocity": 81, "duration": 241}, {"note": 73, "velocity": 81, "duration": 88}, {"note": 69, "velocity": 81, "duration": 59}, {"note": 0, "velocity": 0, "duration": 61}, {"note": 66, "velocity": 70, "duration": 106}, {"note": 69, "velocity": 76, "duration": 91}, {"note": 64, "velocity": 73, "duration": 105}, {"note": 66, "velocity": 69, "duration": 835}, {"note": 0, "velocity": 0, "duration": 479}, {"note": 66, "velocity": 59, "duration": 75}, {"note": 66, "velocity": 78, "duration": 78}, {"note": 66, "velocity": 79, "duration": 92}, {"note": 64, "velocity": 81, "duration": 199}, {"note": 71, "velocity": 77, "duration": 199}, {"note": 71, "velocity": 77, "duration": 206}, {"note": 64, "velocity": 79, "duration": 102}, {"note": 73, "velocity": 79, "duration": 247}, {"note": 71, "velocity": 70, "duration": 610}, {"note": 0, "velocity": 0, "duration": 110}, {"note": 76, "velocity": 76, "duration": 85}, {"note": 76, "velocity": 77, "duration": 193}, {"note": 73, "velocity": 78, "duration": 177}, {"note": 0, "velocity": 0, "duration": 63}, {"note": 73, "velocity": 71, "duration": 178}, {"note": 0, "velocity": 0, "duration": 62}, {"note": 71, "velocity": 77, "duration": 97}, {"note": 71, "velocity": 77, "duration": 346}, {"note": 69, "velocity": 73, "duration": 145}, {"note": 0, "velocity": 0, "duration": 94}, {"note": 71, "velocity": 77, "duration": 99}, {"note": 73, "velocity": 76, "duration": 310}, {"note": 76, "velocity": 81, "duration": 176}, {"note": 0, "velocity": 0, "duration": 64}, {"note": 71, "velocity": 76, "duration": 164}, {"note": 0, "velocity": 0, "duration": 76}, {"note": 71, "velocity": 76, "duration": 155}, {"note": 69, "velocity": 77, "duration": 303}, {"note": 68, "velocity": 70, "duration": 118}, {"note": 69, "velocity": 75, "duration": 77}, {"note": 0, "velocity": 0, "duration": 163}, {"note": 69, "velocity": 75, "duration": 118}, {"note": 71, "velocity": 84, "duration": 109}, {"note": 73, "velocity": 82, "duration": 55}, {"note": 0, "velocity": 0, "duration": 65}, {"note": 69, "velocity": 76, "duration": 61}, {"note": 66, "velocity": 77, "duration": 118}, {"note": 69, "velocity": 76, "duration": 114}, {"note": 64, "velocity": 73, "duration": 107}, {"note": 66, "velocity": 68, "duration": 903}, {"note": 0, "velocity": 0, "duration": 657}, {"note": 66, "velocity": 67, "duration": 77}, {"note": 66, "velocity": 76, "duration": 210}, {"note": 64, "velocity": 81, "duration": 420}, {"note": 71, "velocity": 76, "duration": 785}, {"note": 0, "velocity": 0, "duration": 175}, {"note": 73, "velocity": 76, "duration": 174}, {"note": 0, "velocity": 0, "duration": 66}, {"note": 73, "velocity": 78, "duration": 244}, {"note": 71, "velocity": 70, "duration": 118}, {"note": 69, "velocity": 71, "duration": 1428}, {"note": 0, "velocity": 0, "duration": 8652}, {"note": 65, "velocity": 79, "duration": 91}, {"note": 77, "velocity": 81, "duration": 179}, {"note": 0, "velocity": 0, "duration": 61}, {"note": 74, "velocity": 80, "duration": 172}, {"note": 0, "velocity": 0, "duration": 68}, {"note": 74, "velocity": 80, "duration": 201}, {"note": 72, "velocity": 76, "duration": 87}, {"note": 72, "velocity": 76, "duration": 318}, {"note": 70, "velocity": 73, "duration": 218}, {"note": 70, "velocity": 77, "duration": 73}, {"note": 65, "velocity": 59, "duration": 269}, {"note": 0, "velocity": 0, "duration": 91}, {"note": 77, "velocity": 77, "duration": 215}, {"note": 72, "velocity": 70, "duration": 166}, {"note": 0, "velocity": 0, "duration": 74}, {"note": 72, "velocity": 77, "duration": 193}, {"note": 70, "velocity": 76, "duration": 148}, {"note": 69, "velocity": 77, "duration": 271}, {"note": 70, "velocity": 77, "duration": 228}, {"note": 70, "velocity": 59, "duration": 78}, {"note": 72, "velocity": 81, "duration": 117}, {"note": 74, "velocity": 81, "duration": 88}, {"note": 70, "velocity": 81, "duration": 59}, {"note": 0, "velocity": 0, "duration": 61}, {"note": 67, "velocity": 70, "duration": 106}, {"note": 70, "velocity": 76, "duration": 91}, {"note": 65, "velocity": 73, "duration": 105}, {"note": 67, "velocity": 69, "duration": 835}, {"note": 0, "velocity": 0, "duration": 536}, {"note": 67, "velocity": 78, "duration": 147}, {"note": 67, "velocity": 79, "duration": 92}, {"note": 65, "velocity": 81, "duration": 199}, {"note": 72, "velocity": 77, "duration": 199}, {"note": 72, "velocity": 77, "duration": 206}, {"note": 65, "velocity": 79, "duration": 102}, {"note": 74, "velocity": 79, "duration": 247}, {"note": 72, "velocity": 70, "duration": 610}, {"note": 0, "velocity": 0, "duration": 110}, {"note": 77, "velocity": 76, "duration": 85}, {"note": 77, "velocity": 77, "duration": 193}, {"note": 74, "velocity": 78, "duration": 177}, {"note": 0, "velocity": 0, "duration": 63}, {"note": 74, "velocity": 71, "duration": 178}, {"note": 0, "velocity": 0, "duration": 62}, {"note": 72, "velocity": 77, "duration": 68}, {"note": 72, "velocity": 77, "duration": 352}, {"note": 70, "velocity": 73, "duration": 145}, {"note": 0, "velocity": 0, "duration": 79}, {"note": 72, "velocity": 77, "duration": 114}, {"note": 74, "velocity": 76, "duration": 310}, {"note": 77, "velocity": 81, "duration": 176}, {"note": 0, "velocity": 0, "duration": 64}, {"note": 72, "velocity": 76, "duration": 164}, {"note": 0, "velocity": 0, "duration": 76}, {"note": 72, "velocity": 76, "duration": 155}, {"note": 70, "velocity": 77, "duration": 288}, {"note": 69, "velocity": 70, "duration": 118}, {"note": 70, "velocity": 75, "duration": 77}, {"note": 0, "velocity": 0, "duration": 163}, {"note": 70, "velocity": 75, "duration": 118}, {"note": 72, "velocity": 84, "duration": 109}, {"note": 74, "velocity": 82, "duration": 55}, {"note": 0, "velocity": 0, "duration": 65}, {"note": 70, "velocity": 76, "duration": 61}, {"note": 67, "velocity": 77, "duration": 118}, {"note": 70, "velocity": 76, "duration": 114}, {"note": 65, "velocity": 73, "duration": 107}, {"note": 67, "velocity": 68, "duration": 903}, {"note": 0, "velocity": 0, "duration": 657}, {"note": 67, "velocity": 67, "duration": 77}, {"note": 67, "velocity": 76, "duration": 210}, {"note": 65, "velocity": 81, "duration": 420}, {"note": 72, "velocity": 76, "duration": 785}, {"note": 0, "velocity": 0, "duration": 175}, {"note": 75, "velocity": 76, "duration": 174}, {"note": 74, "velocity": 59, "duration": 321}, {"note": 74, "velocity": 70, "duration": 1404}]]