[[{"note": 70, "velocity": 117, "duration": 53}, {"note": 0, "velocity": 0, "duration": 67}, {"note": 70, "velocity": 114, "duration": 45}, {"note": 0, "velocity": 0, "duration": 75}, {"note": 70, "velocity": 110, "duration": 91}, {"note": 68, "velocity": 116, "duration": 77}, {"note": 70, "velocity": 119, "duration": 126}, {"note": 0, "velocity": 0, "duration": 114}, {"note": 72, "velocity": 119, "duration": 107}, {"note": 73, "velocity": 110, "duration": 105}, {"note": 65, "velocity": 108, "duration": 57}, {"note": 0, "velocity": 0, "duration": 183}, {"note": 68, "velocity": 117, "duration": 122}, {"note": 0, "velocity": 0, "duration": 118}, {"note": 68, "velocity": 119, "duration": 123}, {"note": 0, "velocity": 0, "duration": 357}, {"note": 63, "velocity": 119, "duration": 47}, {"note": 0, "velocity": 0, "duration": 73}, {"note": 63, "velocity": 113, "duration": 47}, {"note": 0, "velocity": 0, "duration": 73}, {"note": 63, "velocity": 110, "duration": 46}, {"note": 0, "velocity": 0, "duration": 74}, {"note": 63, "velocity": 113, "duration": 50}, {"note": 0, "velocity": 0, "duration": 70}, {"note": 63, "velocity": 116, "duration": 108}, {"note": 0, "velocity": 0, "duration": 132}, {"note": 65, "velocity": 113, "duration": 106}, {"note": 66, "velocity": 107, "duration": 148}, {"note": 65, "velocity": 116, "duration": 139}, {"note": 0, "velocity": 0, "duration": 101}, {"note": 65, "velocity": 114, "duration": 138}, {"note": 0, "velocity": 0, "duration": 102}, {"note": 65, "velocity": 116, "duration": 108}, {"note": 0, "velocity": 0, "duration": 252}, {"note": 65, "velocity": 98, "duration": 78}, {"note": 70, "velocity": 119, "duration": 54}, {"note": 0, "velocity": 0, "duration": 66}, {"note": 70, "velocity": 110, "duration": 48}, {"note": 0, "velocity": 0, "duration": 72}, {"note": 70, "velocity": 113, "duration": 85}, {"note": 68, "velocity": 114, "duration": 87}, {"note": 70, "velocity": 119, "duration": 107}, {"note": 0, "velocity": 0, "duration": 133}, {"note": 72, "velocity": 116, "duration": 79}, {"note": 73, "velocity": 114, "duration": 58}, {"note": 0, "velocity": 0, "duration": 62}, {"note": 65, "velocity": 108, "duration": 124}, {"note": 0, "velocity": 0, "duration": 116}, {"note": 68, "velocity": 113, "duration": 138}, {"note": 0, "velocity": 0, "duration": 102}, {"note": 68, "velocity": 117, "duration": 134}, {"note": 0, "velocity": 0, "duration": 346}, {"note": 63, "velocity": 110, "duration": 66}, {"note": 63, "velocity": 107, "duration": 55}, {"note": 0, "velocity": 0, "duration": 65}, {"note": 63, "velocity": 110, "duration": 111}, {"note": 61, "velocity": 107, "duration": 106}, {"note": 63, "velocity": 113, "duration": 120}, {"note": 0, "velocity": 0, "duration": 120}, {"note": 65, "velocity": 116, "duration": 115}, {"note": 68, "velocity": 110, "duration": 123}, {"note": 0, "velocity": 0, "duration": 117}, {"note": 63, "velocity": 110, "duration": 148}, {"note": 0, "velocity": 0, "duration": 572}, {"note": 65, "velocity": 104, "duration": 82}, {"note": 70, "velocity": 119, "duration": 54}, {"note": 0, "velocity": 0, "duration": 66}, {"note": 70, "velocity": 108, "duration": 48}, {"note": 0, "velocity": 0, "duration": 72}, {"note": 70, "velocity": 113, "duration": 98}, {"note": 68, "velocity": 114, "duration": 102}, {"note": 70, "velocity": 116, "duration": 119}, {"note": 0, "velocity": 0, "duration": 121}, {"note": 72, "velocity": 116, "duration": 96}, {"note": 73, "velocity": 110, "duration": 95}, {"note": 70, "velocity": 117, "duration": 132}, {"note": 0, "velocity": 0, "duration": 108}, {"note": 73, "velocity": 117, "duration": 128}, {"note": 0, "velocity": 0, "duration": 112}, {"note": 73, "velocity": 119, "duration": 137}, {"note": 0, "velocity": 0, "duration": 343}, {"note": 72, "velocity": 119, "duration": 131}, {"note": 73, "velocity": 116, "duration": 117}, {"note": 72, "velocity": 116, "duration": 130}, {"note": 73, "velocity": 110, "duration": 86}, {"note": 75, "velocity": 119, "duration": 156}, {"note": 73, "velocity": 94, "duration": 109}, {"note": 72, "velocity": 107, "duration": 104}, {"note": 70, "velocity": 96, "duration": 93}, {"note": 68, "velocity": 114, "duration": 178}, {"note": 0, "velocity": 0, "duration": 62}, {"note": 70, "velocity": 116, "duration": 137}, {"note": 0, "velocity": 0, "duration": 103}, {"note": 68, "velocity": 117, "duration": 158}, {"note": 0, "velocity": 0, "duration": 322}, {"note": 63, "velocity": 116, "duration": 132}, {"note": 65, "velocity": 116, "duration": 113}, {"note": 63, "velocity": 110, "duration": 129}, {"note": 65, "velocity": 116, "duration": 103}, {"note": 63, "velocity": 117, "duration": 152}, {"note": 0, "velocity": 0, "duration": 328}, {"note": 63, "velocity": 114, "duration": 128}, {"note": 65, "velocity": 110, "duration": 94}, {"note": 68, "velocity": 116, "duration": 77}, {"note": 70, "velocity": 116, "duration": 87}, {"note": 68, "velocity": 119, "duration": 141}, {"note": 0, "velocity": 0, "duration": 339}, {"note": 73, "velocity": 117, "duration": 105}, {"note": 72, "velocity": 114, "duration": 116}, {"note": 70, "velocity": 113, "duration": 96}, {"note": 68, "velocity": 108, "duration": 108}, {"note": 70, "velocity": 119, "duration": 132}, {"note": 0, "velocity": 0, "duration": 228}, {"note": 70, "velocity": 114, "duration": 93}, {"note": 73, "velocity": 117, "duration": 104}, {"note": 72, "velocity": 114, "duration": 108}, {"note": 70, "velocity": 116, "duration": 109}, {"note": 68, "velocity": 114, "duration": 107}, {"note": 70, "velocity": 117, "duration": 118}, {"note": 73, "velocity": 116, "duration": 101}, {"note": 75, "velocity": 117, "duration": 74}, {"note": 80, "velocity": 116, "duration": 90}, {"note": 77, "velocity": 120, "duration": 270}, {"note": 0, "velocity": 0, "duration": 450}, {"note": 73, "velocity": 108, "duration": 80}, {"note": 75, "velocity": 116, "duration": 65}, {"note": 77, "velocity": 117, "duration": 307}, {"note": 0, "velocity": 0, "duration": 173}, {"note": 77, "velocity": 117, "duration": 152}, {"note": 0, "velocity": 0, "duration": 88}, {"note": 73, "velocity": 119, "duration": 144}, {"note": 0, "velocity": 0, "duration": 96}, {"note": 75, "velocity": 120, "duration": 162}, {"note": 0, "velocity": 0, "duration": 558}, {"note": 75, "velocity": 117, "duration": 101}, {"note": 73, "velocity": 117, "duration": 80}, {"note": 75, "velocity": 120, "duration": 206}, {"note": 0, "velocity": 0, "duration": 274}, {"note": 75, "velocity": 117, "duration": 147}, {"note": 0, "velocity": 0, "duration": 93}, {"note": 70, "velocity": 120, "duration": 126}, {"note": 73, "velocity": 119, "duration": 128}, {"note": 0, "velocity": 0, "duration": 712}, {"note": 73, "velocity": 110, "duration": 119}, {"note": 72, "velocity": 113, "duration": 134}, {"note": 70, "velocity": 116, "duration": 164}, {"note": 0, "velocity": 0, "duration": 76}, {"note": 73, "velocity": 116, "duration": 137}, {"note": 0, "velocity": 0, "duration": 103}, {"note": 75, "velocity": 119, "duration": 142}, {"note": 73, "velocity": 116, "duration": 107}, {"note": 72, "velocity": 113, "duration": 121}, {"note": 70, "velocity": 113, "duration": 133}, {"note": 68, "velocity": 116, "duration": 158}, {"note": 0, "velocity": 0, "duration": 82}, {"note": 70, "velocity": 117, "duration": 136}, {"note": 0, "velocity": 0, "duration": 104}, {"note": 70, "velocity": 119, "duration": 151}, {"note": 0, "velocity": 0, "duration": 329}, {"note": 75, "velocity": 117, "duration": 130}, {"note": 73, "velocity": 110, "duration": 84}, {"note": 75, "velocity": 114, "duration": 91}, {"note": 73, "velocity": 116, "duration": 73}, {"note": 75, "velocity": 119, "duration": 108}, {"note": 0, "velocity": 0, "duration": 132}, {"note": 80, "velocity": 117, "duration": 154}, {"note": 0, "velocity": 0, "duration": 86}, {"note": 77, "velocity": 120, "duration": 233}, {"note": 0, "velocity": 0, "duration": 487}, {"note": 73, "velocity": 108, "duration": 80}, {"note": 75, "velocity": 116, "duration": 65}, {"note": 77, "velocity": 117, "duration": 307}, {"note": 77, "velocity": 108, "duration": 48}, {"note": 0, "velocity": 0, "duration": 72}, {"note": 77, "velocity": 114, "duration": 136}, {"note": 0, "velocity": 0, "duration": 104}, {"note": 75, "velocity": 116, "duration": 108}, {"note": 73, "velocity": 110, "duration": 59}, {"note": 0, "velocity": 0, "duration": 61}, {"note": 77, "velocity": 117, "duration": 128}, {"note": 0, "velocity": 0, "duration": 112}, {"note": 75, "velocity": 120, "duration": 159}, {"note": 0, "velocity": 0, "duration": 321}, {"note": 72, "velocity": 117, "duration": 101}, {"note": 73, "velocity": 117, "duration": 80}, {"note": 75, "velocity": 120, "duration": 206}, {"note": 0, "velocity": 0, "duration": 274}, {"note": 75, "velocity": 117, "duration": 147}, {"note": 0, "velocity": 0, "duration": 93}, {"note": 70, "velocity": 120, "duration": 126}, {"note": 73, "velocity": 119, "duration": 128}, {"note": 0, "velocity": 0, "duration": 472}, {"note": 73, "velocity": 119, "duration": 141}, {"note": 72, "velocity": 114, "duration": 102}, {"note": 70, "velocity": 114, "duration": 103}, {"note": 68, "velocity": 114, "duration": 91}, {"note": 70, "velocity": 114, "duration": 139}, {"note": 0, "velocity": 0, "duration": 101}, {"note": 70, "velocity": 113, "duration": 120}, {"note": 0, "velocity": 0, "duration": 120}, {"note": 73, "velocity": 117, "duration": 101}, {"note": 72, "velocity": 113, "duration": 123}, {"note": 70, "velocity": 113, "duration": 109}, {"note": 68, "velocity": 104, "duration": 76}, {"note": 70, "velocity": 113, "duration": 116}, {"note": 0, "velocity": 0, "duration": 124}, {"note": 70, "velocity": 117, "duration": 127}, {"note": 0, "velocity": 0, "duration": 593}, {"note": 72, "velocity": 119, "duration": 97}, {"note": 73, "velocity": 114, "duration": 104}, {"note": 72, "velocity": 116, "duration": 69}, {"note": 73, "velocity": 114, "duration": 56}, {"note": 0, "velocity": 0, "duration": 64}, {"note": 75, "velocity": 119, "duration": 129}, {"note": 73, "velocity": 116, "duration": 111}, {"note": 72, "velocity": 114, "duration": 102}, {"note": 68, "velocity": 113, "duration": 104}, {"note": 0, "velocity": 0, "duration": 136}, {"note": 70, "velocity": 113, "duration": 146}, {"note": 0, "velocity": 0, "duration": 17974}, {"note": 70, "velocity": 117, "duration": 53}, {"note": 0, "velocity": 0, "duration": 67}, {"note": 70, "velocity": 114, "duration": 45}, {"note": 0, "velocity": 0, "duration": 75}, {"note": 70, "velocity": 110, "duration": 91}, {"note": 68, "velocity": 116, "duration": 77}, {"note": 70, "velocity": 119, "duration": 126}, {"note": 0, "velocity": 0, "duration": 114}, {"note": 72, "velocity": 119, "duration": 107}, {"note": 73, "velocity": 110, "duration": 105}, {"note": 65, "velocity": 108, "duration": 57}, {"note": 0, "velocity": 0, "duration": 183}, {"note": 68, "velocity": 117, "duration": 122}, {"note": 0, "velocity": 0, "duration": 118}, {"note": 68, "velocity": 119, "duration": 123}, {"note": 0, "velocity": 0, "duration": 357}, {"note": 63, "velocity": 119, "duration": 47}, {"note": 0, "velocity": 0, "duration": 73}, {"note": 63, "velocity": 113, "duration": 47}, {"note": 0, "velocity": 0, "duration": 73}, {"note": 63, "velocity": 110, "duration": 46}, {"note": 0, "velocity": 0, "duration": 74}, {"note": 63, "velocity": 113, "duration": 50}, {"note": 0, "velocity": 0, "duration": 70}, {"note": 63, "velocity": 116, "duration": 108}, {"note": 0, "velocity": 0, "duration": 132}, {"note": 65, "velocity": 113, "duration": 106}, {"note": 66, "velocity": 107, "duration": 148}, {"note": 65, "velocity": 116, "duration": 139}, {"note": 0, "velocity": 0, "duration": 101}, {"note": 65, "velocity": 114, "duration": 138}, {"note": 0, "velocity": 0, "duration": 102}, {"note": 65, "velocity": 116, "duration": 108}, {"note": 0, "velocity": 0, "duration": 252}, {"note": 65, "velocity": 98, "duration": 78}, {"note": 70, "velocity": 119, "duration": 54}, {"note": 0, "velocity": 0, "duration": 66}, {"note": 70, "velocity": 110, "duration": 48}, {"note": 0, "velocity": 0, "duration": 72}, {"note": 70, "velocity": 113, "duration": 85}, {"note": 68, "velocity": 114, "duration": 87}, {"note": 70, "velocity": 119, "duration": 107}, {"note": 0, "velocity": 0, "duration": 133}, {"note": 72, "velocity": 116, "duration": 79}, {"note": 73, "velocity": 114, "duration": 58}, {"note": 0, "velocity": 0, "duration": 62}, {"note": 65, "velocity": 108, "duration": 124}, {"note": 0, "velocity": 0, "duration": 116}, {"note": 68, "velocity": 113, "duration": 138}, {"note": 0, "velocity": 0, "duration": 102}, {"note": 68, "velocity": 117, "duration": 134}, {"note": 0, "velocity": 0, "duration": 346}, {"note": 63, "velocity": 110, "duration": 66}, {"note": 63, "velocity": 107, "duration": 55}, {"note": 0, "velocity": 0, "duration": 65}, {"note": 63, "velocity": 110, "duration": 111}, {"note": 61, "velocity": 107, "duration": 106}, {"note": 63, "velocity": 113, "duration": 120}, {"note": 0, "velocity": 0, "duration": 120}, {"note": 65, "velocity": 116, "duration": 115}, {"note": 68, "velocity": 110, "duration": 123}, {"note": 0, "velocity": 0, "duration": 117}, {"note": 63, "velocity": 110, "duration": 148}, {"note": 0, "velocity": 0, "duration": 572}, {"note": 65, "velocity": 104, "duration": 82}, {"note": 70, "velocity": 119, "duration": 54}, {"note": 0, "velocity": 0, "duration": 66}, {"note": 70, "velocity": 108, "duration": 48}, {"note": 0, "velocity": 0, "duration": 72}, {"note": 70, "velocity": 113, "duration": 98}, {"note": 68, "velocity": 114, "duration": 102}, {"note": 70, "velocity": 116, "duration": 119}, {"note": 0, "velocity": 0, "duration": 121}, {"note": 72, "velocity": 116, "duration": 96}, {"note": 73, "velocity": 110, "duration": 95}, {"note": 70, "velocity": 117, "duration": 132}, {"note": 0, "velocity": 0, "duration": 108}, {"note": 73, "velocity": 117, "duration": 128}, {"note": 0, "velocity": 0, "duration": 112}, {"note": 73, "velocity": 119, "duration": 137}, {"note": 0, "velocity": 0, "duration": 343}, {"note": 72, "velocity": 119, "duration": 131}, {"note": 73, "velocity": 116, "duration": 117}, {"note": 72, "velocity": 116, "duration": 130}, {"note": 73, "velocity": 110, "duration": 86}, {"note": 75, "velocity": 119, "duration": 156}, {"note": 73, "velocity": 94, "duration": 109}, {"note": 72, "velocity": 107, "duration": 104}, {"note": 70, "velocity": 96, "duration": 93}, {"note": 68, "velocity": 114, "duration": 178}, {"note": 0, "velocity": 0, "duration": 62}, {"note": 70, "velocity": 116, "duration": 137}, {"note": 0, "velocity": 0, "duration": 103}, {"note": 68, "velocity": 117, "duration": 158}, {"note": 0, "velocity": 0, "duration": 322}, {"note": 63, "velocity": 116, "duration": 132}, {"note": 65, "velocity": 116, "duration": 113}, {"note": 63, "velocity": 110, "duration": 129}, {"note": 65, "velocity": 116, "duration": 103}, {"note": 63, "velocity": 117, "duration": 152}, {"note": 0, "velocity": 0, "duration": 328}, {"note": 63, "velocity": 114, "duration": 128}, {"note": 65, "velocity": 110, "duration": 94}, {"note": 68, "velocity": 116, "duration": 77}, {"note": 70, "velocity": 116, "duration": 87}, {"note": 68, "velocity": 119, "duration": 141}, {"note": 0, "velocity": 0, "duration": 339}, {"note": 73, "velocity": 117, "duration": 105}, {"note": 72, "velocity": 114, "duration": 116}, {"note": 70, "velocity": 113, "duration": 96}, {"note": 68, "velocity": 108, "duration": 108}, {"note": 70, "velocity": 119, "duration": 132}, {"note": 0, "velocity": 0, "duration": 228}, {"note": 70, "velocity": 114, "duration": 93}, {"note": 73, "velocity": 117, "duration": 104}, {"note": 72, "velocity": 114, "duration": 108}, {"note": 70, "velocity": 116, "duration": 109}, {"note": 68, "velocity": 114, "duration": 107}, {"note": 70, "velocity": 117, "duration": 118}, {"note": 73, "velocity": 116, "duration": 101}, {"note": 75, "velocity": 117, "duration": 74}, {"note": 80, "velocity": 116, "duration": 90}, {"note": 77, "velocity": 120, "duration": 270}, {"note": 0, "velocity": 0, "duration": 450}, {"note": 73, "velocity": 108, "duration": 80}, {"note": 75, "velocity": 116, "duration": 65}, {"note": 77, "velocity": 117, "duration": 307}, {"note": 0, "velocity": 0, "duration": 173}, {"note": 77, "velocity": 117, "duration": 152}, {"note": 0, "velocity": 0, "duration": 88}, {"note": 73, "velocity": 119, "duration": 144}, {"note": 0, "velocity": 0, "duration": 96}, {"note": 75, "velocity": 120, "duration": 162}, {"note": 0, "velocity": 0, "duration": 558}, {"note": 75, "velocity": 117, "duration": 101}, {"note": 73, "velocity": 117, "duration": 80}, {"note": 75, "velocity": 120, "duration": 206}, {"note": 0, "velocity": 0, "duration": 274}, {"note": 75, "velocity": 117, "duration": 147}, {"note": 0, "velocity": 0, "duration": 93}, {"note": 70, "velocity": 120, "duration": 126}, {"note": 73, "velocity": 119, "duration": 128}, {"note": 0, "velocity": 0, "duration": 712}, {"note": 73, "velocity": 110, "duration": 119}, {"note": 72, "velocity": 113, "duration": 134}, {"note": 70, "velocity": 116, "duration": 164}, {"note": 0, "velocity": 0, "duration": 76}, {"note": 73, "velocity": 116, "duration": 137}, {"note": 0, "velocity": 0, "duration": 103}, {"note": 75, "velocity": 119, "duration": 142}, {"note": 73, "velocity": 116, "duration": 107}, {"note": 72, "velocity": 113, "duration": 121}, {"note": 70, "velocity": 113, "duration": 133}, {"note": 68, "velocity": 116, "duration": 158}, {"note": 0, "velocity": 0, "duration": 82}, {"note": 70, "velocity": 117, "duration": 136}, {"note": 0, "velocity": 0, "duration": 104}, {"note": 70, "velocity": 119, "duration": 151}, {"note": 0, "velocity": 0, "duration": 329}, {"note": 75, "velocity": 117, "duration": 130}, {"note": 73, "velocity": 110, "duration": 84}, {"note": 75, "velocity": 114, "duration": 91}, {"note": 73, "velocity": 116, "duration": 73}, {"note": 75, "velocity": 119, "duration": 108}, {"note": 0, "velocity": 0, "duration": 132}, {"note": 80, "velocity": 117, "duration": 154}, {"note": 0, "velocity": 0, "duration": 86}, {"note": 77, "velocity": 120, "duration": 233}, {"note": 0, "velocity": 0, "duration": 487}, {"note": 73, "velocity": 108, "duration": 80}, {"note": 75, "velocity": 116, "duration": 65}, {"note": 77, "velocity": 117, "duration": 307}, {"note": 77, "velocity": 108, "duration": 48}, {"note": 0, "velocity": 0, "duration": 72}, {"note": 77, "velocity": 114, "duration": 136}, {"note": 0, "velocity": 0, "duration": 104}, {"note": 75, "velocity": 116, "duration": 108}, {"note": 73, "velocity": 110, "duration": 59}, {"note": 0, "velocity": 0, "duration": 61}, {"note": 77, "velocity": 117, "duration": 128}, {"note": 0, "velocity": 0, "duration": 112}, {"note": 75, "velocity": 120, "duration": 159}, {"note": 0, "velocity": 0, "duration": 321}, {"note": 72, "velocity": 117, "duration": 101}, {"note": 73, "velocity": 117, "duration": 80}, {"note": 75, "velocity": 120, "duration": 206}, {"note": 0, "velocity": 0, "duration": 274}, {"note": 75, "velocity": 117, "duration": 147}, {"note": 0, "velocity": 0, "duration": 93}, {"note": 70, "velocity": 120, "duration": 126}, {"note": 73, "velocity": 119, "duration": 128}, {"note": 0, "velocity": 0, "duration": 472}, {"note": 73, "velocity": 119, "duration": 141}, {"note": 72, "velocity": 114, "duration": 102}, {"note": 70, "velocity": 114, "duration": 103}, {"note": 68, "velocity": 114, "duration": 91}, {"note": 70, "velocity": 114, "duration": 139}, {"note": 0, "velocity": 0, "duration": 101}, {"note": 70, "velocity": 113, "duration": 120}, {"note": 0, "velocity": 0, "duration": 120}, {"note": 73, "velocity": 117, "duration": 101}, {"note": 72, "velocity": 113, "duration": 123}, {"note": 70, "velocity": 113, "duration": 109}, {"note": 68, "velocity": 104, "duration": 76}, {"note": 70, "velocity": 113, "duration": 116}, {"note": 0, "velocity": 0, "duration": 124}, {"note": 70, "velocity": 117, "duration": 127}, {"note": 0, "velocity": 0, "duration": 593}, {"note": 72, "velocity": 119, "duration": 97}, {"note": 73, "velocity": 114, "duration": 104}, {"note": 72, "velocity": 116, "duration": 69}, {"note": 73, "velocity": 114, "duration": 56}, {"note": 0, "velocity": 0, "duration": 64}, {"note": 75, "velocity": 119, "duration": 129}, {"note": 73, "velocity": 116, "duration": 111}, {"note": 72, "velocity": 114, "duration": 102}, {"note": 68, "velocity": 113, "duration": 104}, {"note": 0, "velocity": 0, "duration": 136}, {"note": 70, "velocity": 113, "duration": 146}, {"note": 0, "velocity": 0, "duration": 1414}, {"note": 73, "velocity": 108, "duration": 80}, {"note": 75, "velocity": 116, "duration": 65}, {"note": 77, "velocity": 117, "duration": 307}, {"note": 0, "velocity": 0, "duration": 173}, {"note": 77, "velocity": 117, "duration": 152}, {"note": 0, "velocity": 0, "duration": 88}, {"note": 73, "velocity": 119, "duration": 144}, {"note": 0, "velocity": 0, "duration": 96}, {"note": 75, "velocity": 120, "duration": 162}, {"note": 0, "velocity": 0, "duration": 558}, {"note": 75, "velocity": 117, "duration": 101}, {"note": 73, "velocity": 117, "duration": 80}, {"note": 75, "velocity": 120, "duration": 206}, {"note": 0, "velocity": 0, "duration": 274}, {"note": 75, "velocity": 117, "duration": 147}, {"note": 0, "velocity": 0, "duration": 93}, {"note": 70, "velocity": 120, "duration": 126}, {"note": 73, "velocity": 119, "duration": 128}, {"note": 0, "velocity": 0, "duration": 712}, {"note": 73, "velocity": 110, "duration": 119}, {"note": 72, "velocity": 113, "duration": 134}, {"note": 70, "velocity": 116, "duration": 164}, {"note": 0, "velocity": 0, "duration": 76}, {"note": 73, "velocity": 116, "duration": 137}, {"note": 0, "velocity": 0, "duration": 103}, {"note": 75, "velocity": 119, "duration": 142}, {"note": 73, "velocity": 116, "duration": 107}, {"note": 72, "velocity": 113, "duration": 121}, {"note": 70, "velocity": 113, "duration": 133}, {"note": 68, "velocity": 116, "duration": 158}, {"note": 0, "velocity": 0, "duration": 82}, {"note": 70, "velocity": 117, "duration": 136}, {"note": 0, "velocity": 0, "duration": 104}, {"note": 70, "velocity": 119, "duration": 151}, {"note": 0, "velocity": 0, "duration": 329}, {"note": 75, "velocity": 117, "duration": 130}, {"note": 73, "velocity": 110, "duration": 84}, {"note": 75, "velocity": 114, "duration": 91}, {"note": 73, "velocity": 116, "duration": 73}, {"note": 75, "velocity": 119, "duration": 108}, {"note": 0, "velocity": 0, "duration": 132}, {"note": 80, "velocity": 117, "duration": 154}, {"note": 0, "velocity": 0, "duration": 86}, {"note": 77, "velocity": 120, "duration": 233}, {"note": 0, "velocity": 0, "duration": 487}, {"note": 73, "velocity": 108, "duration": 80}, {"note": 75, "velocity": 116, "duration": 65}, {"note": 77, "velocity": 117, "duration": 307}, {"note": 77, "velocity": 108, "duration": 48}, {"note": 0, "velocity": 0, "duration": 72}, {"note": 77, "velocity": 114, "duration": 136}, {"note": 0, "velocity": 0, "duration": 104}, {"note": 75, "velocity": 116, "duration": 108}, {"note": 73, "velocity": 110, "duration": 59}, {"note": 0, "velocity": 0, "duration": 61}, {"note": 77, "velocity": 117, "duration": 128}, {"note": 0, "velocity": 0, "duration": 112}, {"note": 75, "velocity": 120, "duration": 159}, {"note": 0, "velocity": 0, "duration": 321}, {"note": 72, "velocity": 117, "duration": 101}, {"note": 73, "velocity": 117, "duration": 80}, {"note": 75, "velocity": 120, "duration": 206}, {"note": 0, "velocity": 0, "duration": 274}, {"note": 75, "velocity": 117, "duration": 147}, {"note": 0, "velocity": 0, "duration": 93}, {"note": 70, "velocity": 120, "duration": 126}, {"note": 73, "velocity": 119, "duration": 128}, {"note": 0, "velocity": 0, "duration": 472}, {"note": 73, "velocity": 119, "duration": 141}, {"note": 72, "velocity": 114, "duration": 102}, {"note": 70, "velocity": 114, "duration": 103}, {"note": 68, "velocity": 114, "duration": 91}, {"note": 70, "velocity": 114, "duration": 139}, {"note": 0, "velocity": 0, "duration": 101}, {"note": 70, "velocity": 113, "duration": 120}, {"note": 0, "velocity": 0, "duration": 120}, {"note": 73, "velocity": 117, "duration": 101}, {"note": 72, "velocity": 113, "duration": 123}, {"note": 70, "velocity": 113, "duration": 109}, {"note": 68, "velocity": 104, "duration": 76}, {"note": 70, "velocity": 113, "duration": 116}, {"note": 0, "velocity": 0, "duration": 124}, {"note": 70, "velocity": 117, "duration": 127}, {"note": 0, "velocity": 0, "duration": 593}, {"note": 72, "velocity": 119, "duration": 97}, {"note": 73, "velocity": 114, "duration": 104}, {"note": 72, "velocity": 116, "duration": 69}, {"note": 73, "velocity": 114, "duration": 56}, {"note": 0, "velocity": 0, "duration": 64}, {"note": 75, "velocity": 119, "duration": 129}, {"note": 73, "velocity": 116, "duration": 111}, {"note": 72, "velocity": 114, "duration": 102}, {"note": 68, "velocity": 113, "duration": 104}, {"note": 0, "velocity": 0, "duration": 136}, {"note": 70, "velocity": 113, "duration": 146}]]