[[{"note": 73, "velocity": 103, "duration": 85}, {"note": 0, "velocity": 0, "duration": 155}, {"note": 73, "velocity": 83, "duration": 138}, {"note": 0, "velocity": 0, "duration": 102}, {"note": 73, "velocity": 80, "duration": 138}, {"note": 0, "velocity": 0, "duration": 102}, {"note": 73, "velocity": 87, "duration": 140}, {"note": 0, "velocity": 0, "duration": 100}, {"note": 73, "velocity": 87, "duration": 171}, {"note": 0, "velocity": 0, "duration": 69}, {"note": 71, "velocity": 87, "duration": 176}, {"note": 0, "velocity": 0, "duration": 64}, {"note": 70, "velocity": 90, "duration": 212}, {"note": 75, "velocity": 102, "duration": 394}, {"note": 0, "velocity": 0, "duration": 86}, {"note": 73, "velocity": 87, "duration": 895}, {"note": 0, "velocity": 0, "duration": 545}, {"note": 66, "velocity": 90, "duration": 195}, {"note": 73, "velocity": 90, "duration": 352}, {"note": 0, "velocity": 0, "duration": 128}, {"note": 71, "velocity": 85, "duration": 165}, {"note": 0, "velocity": 0, "duration": 75}, {"note": 70, "velocity": 93, "duration": 380}, {"note": 0, "velocity": 0, "duration": 100}, {"note": 71, "velocity": 87, "duration": 468}, {"note": 70, "velocity": 74, "duration": 227}, {"note": 68, "velocity": 87, "duration": 718}, {"note": 66, "velocity": 87, "duration": 160}, {"note": 0, "velocity": 0, "duration": 80}, {"note": 66, "velocity": 80, "duration": 436}, {"note": 75, "velocity": 103, "duration": 644}, {"note": 0, "velocity": 0, "duration": 76}, {"note": 73, "velocity": 87, "duration": 1795}, {"note": 0, "velocity": 0, "duration": 1085}, {"note": 78, "velocity": 93, "duration": 379}, {"note": 0, "velocity": 0, "duration": 101}, {"note": 77, "velocity": 83, "duration": 468}, {"note": 73, "velocity": 90, "duration": 2222}, {"note": 0, "velocity": 0, "duration": 1378}, {"note": 73, "velocity": 103, "duration": 85}, {"note": 0, "velocity": 0, "duration": 155}, {"note": 73, "velocity": 83, "duration": 138}, {"note": 0, "velocity": 0, "duration": 102}, {"note": 73, "velocity": 80, "duration": 138}, {"note": 0, "velocity": 0, "duration": 102}, {"note": 73, "velocity": 87, "duration": 140}, {"note": 0, "velocity": 0, "duration": 100}, {"note": 73, "velocity": 87, "duration": 171}, {"note": 0, "velocity": 0, "duration": 69}, {"note": 71, "velocity": 87, "duration": 176}, {"note": 0, "velocity": 0, "duration": 64}, {"note": 70, "velocity": 90, "duration": 212}, {"note": 75, "velocity": 102, "duration": 394}, {"note": 0, "velocity": 0, "duration": 86}, {"note": 73, "velocity": 87, "duration": 895}, {"note": 0, "velocity": 0, "duration": 545}, {"note": 66, "velocity": 90, "duration": 195}, {"note": 73, "velocity": 90, "duration": 352}, {"note": 0, "velocity": 0, "duration": 128}, {"note": 71, "velocity": 85, "duration": 165}, {"note": 0, "velocity": 0, "duration": 75}, {"note": 70, "velocity": 93, "duration": 380}, {"note": 0, "velocity": 0, "duration": 100}, {"note": 71, "velocity": 87, "duration": 468}, {"note": 70, "velocity": 74, "duration": 227}, {"note": 68, "velocity": 87, "duration": 718}, {"note": 66, "velocity": 87, "duration": 160}, {"note": 0, "velocity": 0, "duration": 80}, {"note": 66, "velocity": 80, "duration": 436}, {"note": 75, "velocity": 103, "duration": 478}, {"note": 77, "velocity": 87, "duration": 1198}, {"note": 77, "velocity": 93, "duration": 136}, {"note": 0, "velocity": 0, "duration": 104}, {"note": 77, "velocity": 71, "duration": 168}, {"note": 0, "velocity": 0, "duration": 72}, {"note": 75, "velocity": 80, "duration": 893}, {"note": 0, "velocity": 0, "duration": 547}, {"note": 75, "velocity": 87, "duration": 131}, {"note": 0, "velocity": 0, "duration": 109}, {"note": 75, "velocity": 93, "duration": 172}, {"note": 0, "velocity": 0, "duration": 68}, {"note": 77, "velocity": 80, "duration": 156}, {"note": 0, "velocity": 0, "duration": 84}, {"note": 78, "velocity": 93, "duration": 150}, {"note": 0, "velocity": 0, "duration": 90}, {"note": 78, "velocity": 80, "duration": 136}, {"note": 0, "velocity": 0, "duration": 104}, {"note": 78, "velocity": 93, "duration": 177}, {"note": 0, "velocity": 0, "duration": 63}, {"note": 75, "velocity": 93, "duration": 150}, {"note": 0, "velocity": 0, "duration": 90}, {"note": 78, "velocity": 93, "duration": 147}, {"note": 0, "velocity": 0, "duration": 93}, {"note": 75, "velocity": 103, "duration": 1165}, {"note": 0, "velocity": 0, "duration": 275}, {"note": 75, "velocity": 103, "duration": 130}, {"note": 0, "velocity": 0, "duration": 110}, {"note": 75, "velocity": 103, "duration": 164}, {"note": 0, "velocity": 0, "duration": 76}, {"note": 82, "velocity": 87, "duration": 394}, {"note": 0, "velocity": 0, "duration": 86}, {"note": 80, "velocity": 87, "duration": 2280}, {"note": 0, "velocity": 0, "duration": 600}, {"note": 73, "velocity": 90, "duration": 182}, {"note": 73, "velocity": 105, "duration": 163}, {"note": 0, "velocity": 0, "duration": 77}, {"note": 73, "velocity": 105, "duration": 238}, {"note": 83, "velocity": 93, "duration": 478}, {"note": 82, "velocity": 95, "duration": 296}, {"note": 0, "velocity": 0, "duration": 1384}, {"note": 73, "velocity": 103, "duration": 189}, {"note": 85, "velocity": 102, "duration": 575}, {"note": 0, "velocity": 0, "duration": 145}, {"note": 82, "velocity": 93, "duration": 439}, {"note": 0, "velocity": 0, "duration": 281}, {"note": 80, "velocity": 93, "duration": 154}, {"note": 0, "velocity": 0, "duration": 86}, {"note": 80, "velocity": 90, "duration": 236}, {"note": 78, "velocity": 93, "duration": 1354}, {"note": 0, "velocity": 0, "duration": 326}, {"note": 78, "velocity": 102, "duration": 142}, {"note": 0, "velocity": 0, "duration": 98}, {"note": 77, "velocity": 93, "duration": 496}, {"note": 0, "velocity": 0, "duration": 224}, {"note": 78, "velocity": 103, "duration": 563}, {"note": 0, "velocity": 0, "duration": 157}, {"note": 82, "velocity": 93, "duration": 376}, {"note": 0, "velocity": 0, "duration": 104}, {"note": 75, "velocity": 105, "duration": 1678}, {"note": 0, "velocity": 0, "duration": 962}, {"note": 75, "velocity": 87, "duration": 158}, {"note": 0, "velocity": 0, "duration": 82}, {"note": 75, "velocity": 105, "duration": 203}, {"note": 82, "velocity": 93, "duration": 372}, {"note": 0, "velocity": 0, "duration": 108}, {"note": 80, "velocity": 93, "duration": 2173}, {"note": 0, "velocity": 0, "duration": 707}, {"note": 73, "velocity": 102, "duration": 149}, {"note": 0, "velocity": 0, "duration": 91}, {"note": 73, "velocity": 105, "duration": 238}, {"note": 73, "velocity": 105, "duration": 205}, {"note": 83, "velocity": 90, "duration": 478}, {"note": 82, "velocity": 95, "duration": 296}, {"note": 0, "velocity": 0, "duration": 1384}, {"note": 73, "velocity": 103, "duration": 189}, {"note": 85, "velocity": 102, "duration": 575}, {"note": 0, "velocity": 0, "duration": 145}, {"note": 82, "velocity": 93, "duration": 439}, {"note": 0, "velocity": 0, "duration": 281}, {"note": 80, "velocity": 93, "duration": 154}, {"note": 0, "velocity": 0, "duration": 86}, {"note": 80, "velocity": 90, "duration": 236}, {"note": 78, "velocity": 93, "duration": 1354}, {"note": 0, "velocity": 0, "duration": 326}, {"note": 78, "velocity": 102, "duration": 142}, {"note": 0, "velocity": 0, "duration": 98}, {"note": 77, "velocity": 93, "duration": 496}, {"note": 0, "velocity": 0, "duration": 224}, {"note": 78, "velocity": 103, "duration": 563}, {"note": 0, "velocity": 0, "duration": 157}, {"note": 82, "velocity": 93, "duration": 376}, {"note": 0, "velocity": 0, "duration": 104}, {"note": 75, "velocity": 105, "duration": 1678}, {"note": 0, "velocity": 0, "duration": 962}, {"note": 73, "velocity": 87, "duration": 158}, {"note": 0, "velocity": 0, "duration": 82}, {"note": 73, "velocity": 105, "duration": 203}, {"note": 80, "velocity": 93, "duration": 372}, {"note": 0, "velocity": 0, "duration": 108}, {"note": 78, "velocity": 93, "duration": 2173}, {"note": 0, "velocity": 0, "duration": 21107}, {"note": 73, "velocity": 103, "duration": 85}, {"note": 0, "velocity": 0, "duration": 155}, {"note": 73, "velocity": 83, "duration": 138}, {"note": 0, "velocity": 0, "duration": 102}, {"note": 73, "velocity": 80, "duration": 138}, {"note": 0, "velocity": 0, "duration": 102}, {"note": 73, "velocity": 87, "duration": 140}, {"note": 0, "velocity": 0, "duration": 100}, {"note": 73, "velocity": 87, "duration": 171}, {"note": 0, "velocity": 0, "duration": 69}, {"note": 71, "velocity": 87, "duration": 176}, {"note": 0, "velocity": 0, "duration": 64}, {"note": 70, "velocity": 90, "duration": 212}, {"note": 75, "velocity": 102, "duration": 394}, {"note": 0, "velocity": 0, "duration": 86}, {"note": 73, "velocity": 87, "duration": 895}, {"note": 0, "velocity": 0, "duration": 545}, {"note": 66, "velocity": 90, "duration": 195}, {"note": 73, "velocity": 90, "duration": 352}, {"note": 0, "velocity": 0, "duration": 128}, {"note": 71, "velocity": 85, "duration": 165}, {"note": 0, "velocity": 0, "duration": 75}, {"note": 70, "velocity": 93, "duration": 380}, {"note": 0, "velocity": 0, "duration": 100}, {"note": 71, "velocity": 87, "duration": 468}, {"note": 70, "velocity": 74, "duration": 227}, {"note": 68, "velocity": 87, "duration": 718}, {"note": 66, "velocity": 87, "duration": 160}, {"note": 0, "velocity": 0, "duration": 80}, {"note": 66, "velocity": 80, "duration": 436}, {"note": 75, "velocity": 103, "duration": 478}, {"note": 77, "velocity": 87, "duration": 1198}, {"note": 77, "velocity": 93, "duration": 136}, {"note": 0, "velocity": 0, "duration": 104}, {"note": 77, "velocity": 71, "duration": 168}, {"note": 0, "velocity": 0, "duration": 72}, {"note": 75, "velocity": 80, "duration": 893}, {"note": 0, "velocity": 0, "duration": 547}, {"note": 75, "velocity": 87, "duration": 131}, {"note": 0, "velocity": 0, "duration": 109}, {"note": 75, "velocity": 93, "duration": 172}, {"note": 0, "velocity": 0, "duration": 68}, {"note": 77, "velocity": 80, "duration": 156}, {"note": 0, "velocity": 0, "duration": 84}, {"note": 78, "velocity": 93, "duration": 150}, {"note": 0, "velocity": 0, "duration": 90}, {"note": 78, "velocity": 80, "duration": 136}, {"note": 0, "velocity": 0, "duration": 104}, {"note": 78, "velocity": 93, "duration": 177}, {"note": 0, "velocity": 0, "duration": 63}, {"note": 75, "velocity": 93, "duration": 150}, {"note": 0, "velocity": 0, "duration": 90}, {"note": 78, "velocity": 93, "duration": 147}, {"note": 0, "velocity": 0, "duration": 93}, {"note": 75, "velocity": 103, "duration": 1165}, {"note": 0, "velocity": 0, "duration": 275}, {"note": 75, "velocity": 103, "duration": 130}, {"note": 0, "velocity": 0, "duration": 110}, {"note": 75, "velocity": 103, "duration": 164}, {"note": 0, "velocity": 0, "duration": 76}, {"note": 82, "velocity": 87, "duration": 394}, {"note": 0, "velocity": 0, "duration": 86}, {"note": 80, "velocity": 87, "duration": 2280}, {"note": 0, "velocity": 0, "duration": 600}, {"note": 73, "velocity": 90, "duration": 182}, {"note": 73, "velocity": 105, "duration": 163}, {"note": 0, "velocity": 0, "duration": 77}, {"note": 73, "velocity": 105, "duration": 238}, {"note": 83, "velocity": 93, "duration": 478}, {"note": 82, "velocity": 95, "duration": 296}, {"note": 0, "velocity": 0, "duration": 1384}, {"note": 73, "velocity": 103, "duration": 189}, {"note": 85, "velocity": 102, "duration": 575}, {"note": 0, "velocity": 0, "duration": 145}, {"note": 82, "velocity": 93, "duration": 439}, {"note": 0, "velocity": 0, "duration": 281}, {"note": 80, "velocity": 93, "duration": 154}, {"note": 0, "velocity": 0, "duration": 86}, {"note": 80, "velocity": 90, "duration": 236}, {"note": 78, "velocity": 93, "duration": 1354}, {"note": 0, "velocity": 0, "duration": 326}, {"note": 78, "velocity": 102, "duration": 142}, {"note": 0, "velocity": 0, "duration": 98}, {"note": 77, "velocity": 93, "duration": 496}, {"note": 0, "velocity": 0, "duration": 224}, {"note": 78, "velocity": 103, "duration": 563}, {"note": 0, "velocity": 0, "duration": 157}, {"note": 82, "velocity": 93, "duration": 376}, {"note": 0, "velocity": 0, "duration": 104}, {"note": 75, "velocity": 105, "duration": 1678}, {"note": 0, "velocity": 0, "duration": 962}, {"note": 75, "velocity": 87, "duration": 158}, {"note": 0, "velocity": 0, "duration": 82}, {"note": 75, "velocity": 105, "duration": 203}, {"note": 82, "velocity": 93, "duration": 372}, {"note": 0, "velocity": 0, "duration": 108}, {"note": 80, "velocity": 93, "duration": 2173}, {"note": 0, "velocity": 0, "duration": 707}, {"note": 73, "velocity": 102, "duration": 149}, {"note": 0, "velocity": 0, "duration": 91}, {"note": 73, "velocity": 105, "duration": 238}, {"note": 73, "velocity": 105, "duration": 205}, {"note": 83, "velocity": 90, "duration": 478}, {"note": 82, "velocity": 95, "duration": 296}, {"note": 0, "velocity": 0, "duration": 1384}, {"note": 73, "velocity": 103, "duration": 189}, {"note": 85, "velocity": 102, "duration": 575}, {"note": 0, "velocity": 0, "duration": 145}, {"note": 82, "velocity": 93, "duration": 439}, {"note": 0, "velocity": 0, "duration": 281}, {"note": 80, "velocity": 93, "duration": 154}, {"note": 0, "velocity": 0, "duration": 86}, {"note": 80, "velocity": 90, "duration": 236}, {"note": 78, "velocity": 93, "duration": 1354}, {"note": 0, "velocity": 0, "duration": 326}, {"note": 78, "velocity": 102, "duration": 142}, {"note": 0, "velocity": 0, "duration": 98}, {"note": 77, "velocity": 93, "duration": 496}, {"note": 0, "velocity": 0, "duration": 224}, {"note": 78, "velocity": 103, "duration": 563}, {"note": 0, "velocity": 0, "duration": 157}, {"note": 82, "velocity": 93, "duration": 376}, {"note": 0, "velocity": 0, "duration": 104}, {"note": 75, "velocity": 105, "duration": 1678}, {"note": 0, "velocity": 0, "duration": 962}, {"note": 73, "velocity": 87, "duration": 158}, {"note": 0, "velocity": 0, "duration": 82}, {"note": 73, "velocity": 105, "duration": 203}, {"note": 80, "velocity": 93, "duration": 372}, {"note": 0, "velocity": 0, "duration": 108}, {"note": 78, "velocity": 93, "duration": 2173}, {"note": 0, "velocity": 0, "duration": 5747}, {"note": 82, "velocity": 95, "duration": 296}, {"note": 0, "velocity": 0, "duration": 1384}, {"note": 73, "velocity": 103, "duration": 189}, {"note": 85, "velocity": 102, "duration": 575}, {"note": 0, "velocity": 0, "duration": 145}, {"note": 82, "velocity": 93, "duration": 439}, {"note": 0, "velocity": 0, "duration": 281}, {"note": 80, "velocity": 93, "duration": 154}, {"note": 0, "velocity": 0, "duration": 86}, {"note": 80, "velocity": 90, "duration": 236}, {"note": 78, "velocity": 93, "duration": 1354}, {"note": 0, "velocity": 0, "duration": 326}, {"note": 78, "velocity": 102, "duration": 142}, {"note": 0, "velocity": 0, "duration": 98}, {"note": 77, "velocity": 93, "duration": 496}, {"note": 0, "velocity": 0, "duration": 224}, {"note": 78, "velocity": 103, "duration": 563}, {"note": 0, "velocity": 0, "duration": 157}, {"note": 82, "velocity": 93, "duration": 376}, {"note": 0, "velocity": 0, "duration": 104}, {"note": 75, "velocity": 105, "duration": 1678}, {"note": 0, "velocity": 0, "duration": 962}, {"note": 75, "velocity": 87, "duration": 158}, {"note": 0, "velocity": 0, "duration": 82}, {"note": 75, "velocity": 105, "duration": 203}, {"note": 82, "velocity": 93, "duration": 372}, {"note": 0, "velocity": 0, "duration": 108}, {"note": 80, "velocity": 93, "duration": 2173}, {"note": 0, "velocity": 0, "duration": 707}, {"note": 73, "velocity": 102, "duration": 149}, {"note": 0, "velocity": 0, "duration": 91}, {"note": 73, "velocity": 105, "duration": 238}, {"note": 73, "velocity": 105, "duration": 205}, {"note": 83, "velocity": 90, "duration": 478}, {"note": 82, "velocity": 95, "duration": 296}, {"note": 0, "velocity": 0, "duration": 1384}, {"note": 73, "velocity": 103, "duration": 189}, {"note": 85, "velocity": 102, "duration": 575}, {"note": 0, "velocity": 0, "duration": 145}, {"note": 82, "velocity": 93, "duration": 439}, {"note": 0, "velocity": 0, "duration": 281}, {"note": 80, "velocity": 93, "duration": 154}, {"note": 0, "velocity": 0, "duration": 86}, {"note": 80, "velocity": 90, "duration": 236}, {"note": 78, "velocity": 93, "duration": 1354}, {"note": 0, "velocity": 0, "duration": 326}, {"note": 78, "velocity": 102, "duration": 142}, {"note": 0, "velocity": 0, "duration": 98}, {"note": 77, "velocity": 93, "duration": 496}, {"note": 0, "velocity": 0, "duration": 224}, {"note": 78, "velocity": 103, "duration": 563}, {"note": 0, "velocity": 0, "duration": 157}, {"note": 82, "velocity": 93, "duration": 376}, {"note": 0, "velocity": 0, "duration": 104}, {"note": 75, "velocity": 105, "duration": 1678}, {"note": 0, "velocity": 0, "duration": 962}, {"note": 73, "velocity": 87, "duration": 158}, {"note": 0, "velocity": 0, "duration": 82}, {"note": 73, "velocity": 105, "duration": 203}, {"note": 80, "velocity": 93, "duration": 372}, {"note": 0, "velocity": 0, "duration": 108}, {"note": 78, "velocity": 93, "duration": 2173}]]