[[{"note": 64, "velocity": 103, "duration": 349}, {"note": 0, "velocity": 0, "duration": 131}, {"note": 71, "velocity": 102, "duration": 135}, {"note": 0, "velocity": 0, "duration": 105}, {"note": 69, "velocity": 93, "duration": 123}, {"note": 0, "velocity": 0, "duration": 117}, {"note": 71, "velocity": 102, "duration": 337}, {"note": 0, "velocity": 0, "duration": 143}, {"note": 69, "velocity": 102, "duration": 102}, {"note": 0, "velocity": 0, "duration": 138}, {"note": 71, "velocity": 95, "duration": 88}, {"note": 0, "velocity": 0, "duration": 152}, {"note": 72, "velocity": 87, "duration": 270}, {"note": 0, "velocity": 0, "duration": 90}, {"note": 74, "velocity": 95, "duration": 76}, {"note": 72, "velocity": 103, "duration": 65}, {"note": 0, "velocity": 0, "duration": 175}, {"note": 69, "velocity": 95, "duration": 97}, {"note": 0, "velocity": 0, "duration": 143}, {"note": 71, "velocity": 93, "duration": 478}, {"note": 0, "velocity": 0, "duration": 362}, {"note": 71, "velocity": 93, "duration": 60}, {"note": 72, "velocity": 102, "duration": 69}, {"note": 0, "velocity": 0, "duration": 171}, {"note": 72, "velocity": 85, "duration": 79}, {"note": 71, "velocity": 103, "duration": 63}, {"note": 69, "velocity": 105, "duration": 81}, {"note": 0, "velocity": 0, "duration": 159}, {"note": 67, "velocity": 102, "duration": 95}, {"note": 0, "velocity": 0, "duration": 145}, {"note": 69, "velocity": 90, "duration": 102}, {"note": 0, "velocity": 0, "duration": 138}, {"note": 69, "velocity": 102, "duration": 83}, {"note": 67, "velocity": 83, "duration": 69}, {"note": 69, "velocity": 102, "duration": 125}, {"note": 0, "velocity": 0, "duration": 115}, {"note": 71, "velocity": 87, "duration": 113}, {"note": 0, "velocity": 0, "duration": 127}, {"note": 67, "velocity": 87, "duration": 106}, {"note": 0, "velocity": 0, "duration": 134}, {"note": 66, "velocity": 87, "duration": 88}, {"note": 0, "velocity": 0, "duration": 152}, {"note": 64, "velocity": 87, "duration": 113}, {"note": 0, "velocity": 0, "duration": 127}, {"note": 67, "velocity": 87, "duration": 95}, {"note": 0, "velocity": 0, "duration": 145}, {"note": 66, "velocity": 93, "duration": 451}, {"note": 0, "velocity": 0, "duration": 509}, {"note": 64, "velocity": 103, "duration": 349}, {"note": 0, "velocity": 0, "duration": 131}, {"note": 71, "velocity": 102, "duration": 135}, {"note": 0, "velocity": 0, "duration": 105}, {"note": 69, "velocity": 93, "duration": 123}, {"note": 0, "velocity": 0, "duration": 117}, {"note": 71, "velocity": 102, "duration": 337}, {"note": 0, "velocity": 0, "duration": 143}, {"note": 69, "velocity": 102, "duration": 102}, {"note": 0, "velocity": 0, "duration": 138}, {"note": 71, "velocity": 95, "duration": 88}, {"note": 0, "velocity": 0, "duration": 152}, {"note": 72, "velocity": 87, "duration": 240}, {"note": 72, "velocity": 95, "duration": 240}, {"note": 72, "velocity": 103, "duration": 65}, {"note": 0, "velocity": 0, "duration": 175}, {"note": 69, "velocity": 95, "duration": 97}, {"note": 0, "velocity": 0, "duration": 143}, {"note": 71, "velocity": 93, "duration": 478}, {"note": 0, "velocity": 0, "duration": 482}, {"note": 72, "velocity": 102, "duration": 69}, {"note": 0, "velocity": 0, "duration": 171}, {"note": 72, "velocity": 85, "duration": 79}, {"note": 71, "velocity": 103, "duration": 63}, {"note": 69, "velocity": 105, "duration": 81}, {"note": 0, "velocity": 0, "duration": 159}, {"note": 67, "velocity": 102, "duration": 95}, {"note": 0, "velocity": 0, "duration": 145}, {"note": 69, "velocity": 90, "duration": 102}, {"note": 0, "velocity": 0, "duration": 138}, {"note": 69, "velocity": 102, "duration": 83}, {"note": 67, "velocity": 83, "duration": 69}, {"note": 69, "velocity": 102, "duration": 125}, {"note": 0, "velocity": 0, "duration": 115}, {"note": 71, "velocity": 87, "duration": 113}, {"note": 0, "velocity": 0, "duration": 127}, {"note": 67, "velocity": 87, "duration": 106}, {"note": 0, "velocity": 0, "duration": 134}, {"note": 66, "velocity": 87, "duration": 88}, {"note": 0, "velocity": 0, "duration": 152}, {"note": 64, "velocity": 87, "duration": 113}, {"note": 0, "velocity": 0, "duration": 127}, {"note": 62, "velocity": 87, "duration": 95}, {"note": 0, "velocity": 0, "duration": 145}, {"note": 64, "velocity": 93, "duration": 451}, {"note": 0, "velocity": 0, "duration": 509}, {"note": 69, "velocity": 93, "duration": 111}, {"note": 0, "velocity": 0, "duration": 249}, {"note": 69, "velocity": 85, "duration": 63}, {"note": 69, "velocity": 93, "duration": 82}, {"note": 0, "velocity": 0, "duration": 158}, {"note": 69, "velocity": 93, "duration": 86}, {"note": 0, "velocity": 0, "duration": 154}, {"note": 72, "velocity": 93, "duration": 90}, {"note": 0, "velocity": 0, "duration": 150}, {"note": 72, "velocity": 87, "duration": 60}, {"note": 71, "velocity": 71, "duration": 73}, {"note": 69, "velocity": 87, "duration": 65}, {"note": 0, "velocity": 0, "duration": 175}, {"note": 69, "velocity": 87, "duration": 81}, {"note": 0, "velocity": 0, "duration": 159}, {"note": 71, "velocity": 87, "duration": 90}, {"note": 0, "velocity": 0, "duration": 150}, {"note": 71, "velocity": 90, "duration": 77}, {"note": 69, "velocity": 93, "duration": 91}, {"note": 67, "velocity": 93, "duration": 93}, {"note": 0, "velocity": 0, "duration": 147}, {"note": 69, "velocity": 95, "duration": 79}, {"note": 0, "velocity": 0, "duration": 161}, {"note": 67, "velocity": 93, "duration": 223}, {"note": 64, "velocity": 102, "duration": 406}, {"note": 0, "velocity": 0, "duration": 314}, {"note": 69, "velocity": 105, "duration": 240}, {"note": 0, "velocity": 0, "duration": 120}, {"note": 69, "velocity": 74, "duration": 67}, {"note": 69, "velocity": 87, "duration": 81}, {"note": 0, "velocity": 0, "duration": 159}, {"note": 69, "velocity": 93, "duration": 107}, {"note": 0, "velocity": 0, "duration": 133}, {"note": 69, "velocity": 93, "duration": 104}, {"note": 0, "velocity": 0, "duration": 136}, {"note": 69, "velocity": 80, "duration": 95}, {"note": 69, "velocity": 87, "duration": 90}, {"note": 69, "velocity": 83, "duration": 100}, {"note": 0, "velocity": 0, "duration": 140}, {"note": 67, "velocity": 83, "duration": 91}, {"note": 69, "velocity": 100, "duration": 120}, {"note": 71, "velocity": 80, "duration": 88}, {"note": 0, "velocity": 0, "duration": 152}, {"note": 71, "velocity": 87, "duration": 70}, {"note": 0, "velocity": 0, "duration": 170}, {"note": 69, "velocity": 93, "duration": 109}, {"note": 0, "velocity": 0, "duration": 131}, {"note": 67, "velocity": 87, "duration": 70}, {"note": 69, "velocity": 87, "duration": 67}, {"note": 71, "velocity": 87, "duration": 726}, {"note": 0, "velocity": 0, "duration": 234}, {"note": 69, "velocity": 87, "duration": 97}, {"note": 0, "velocity": 0, "duration": 263}, {"note": 69, "velocity": 87, "duration": 60}, {"note": 69, "velocity": 90, "duration": 116}, {"note": 0, "velocity": 0, "duration": 124}, {"note": 69, "velocity": 102, "duration": 116}, {"note": 0, "velocity": 0, "duration": 124}, {"note": 72, "velocity": 87, "duration": 114}, {"note": 0, "velocity": 0, "duration": 126}, {"note": 71, "velocity": 95, "duration": 107}, {"note": 0, "velocity": 0, "duration": 133}, {"note": 69, "velocity": 90, "duration": 114}, {"note": 0, "velocity": 0, "duration": 126}, {"note": 69, "velocity": 87, "duration": 107}, {"note": 0, "velocity": 0, "duration": 133}, {"note": 71, "velocity": 66, "duration": 116}, {"note": 0, "velocity": 0, "duration": 124}, {"note": 69, "velocity": 93, "duration": 96}, {"note": 0, "velocity": 0, "duration": 144}, {"note": 67, "velocity": 95, "duration": 111}, {"note": 0, "velocity": 0, "duration": 129}, {"note": 69, "velocity": 95, "duration": 88}, {"note": 67, "velocity": 74, "duration": 60}, {"note": 64, "velocity": 95, "duration": 535}, {"note": 0, "velocity": 0, "duration": 305}, {"note": 67, "velocity": 87, "duration": 84}, {"note": 69, "velocity": 87, "duration": 240}, {"note": 0, "velocity": 0, "duration": 120}, {"note": 69, "velocity": 95, "duration": 60}, {"note": 69, "velocity": 93, "duration": 81}, {"note": 0, "velocity": 0, "duration": 159}, {"note": 69, "velocity": 93, "duration": 93}, {"note": 0, "velocity": 0, "duration": 147}, {"note": 69, "velocity": 87, "duration": 102}, {"note": 0, "velocity": 0, "duration": 138}, {"note": 69, "velocity": 93, "duration": 128}, {"note": 0, "velocity": 0, "duration": 112}, {"note": 67, "velocity": 83, "duration": 118}, {"note": 0, "velocity": 0, "duration": 122}, {"note": 69, "velocity": 93, "duration": 100}, {"note": 0, "velocity": 0, "duration": 140}, {"note": 71, "velocity": 93, "duration": 197}, {"note": 0, "velocity": 0, "duration": 163}, {"note": 71, "velocity": 90, "duration": 83}, {"note": 69, "velocity": 95, "duration": 72}, {"note": 0, "velocity": 0, "duration": 168}, {"note": 67, "velocity": 87, "duration": 127}, {"note": 0, "velocity": 0, "duration": 113}, {"note": 71, "velocity": 71, "duration": 447}, {"note": 71, "velocity": 95, "duration": 185}, {"note": 74, "velocity": 93, "duration": 125}, {"note": 0, "velocity": 0, "duration": 115}, {"note": 76, "velocity": 95, "duration": 324}, {"note": 0, "velocity": 0, "duration": 156}, {"note": 74, "velocity": 102, "duration": 388}, {"note": 0, "velocity": 0, "duration": 92}, {"note": 71, "velocity": 93, "duration": 356}, {"note": 0, "velocity": 0, "duration": 124}, {"note": 69, "velocity": 93, "duration": 132}, {"note": 0, "velocity": 0, "duration": 108}, {"note": 67, "velocity": 93, "duration": 164}, {"note": 0, "velocity": 0, "duration": 76}, {"note": 69, "velocity": 95, "duration": 153}, {"note": 0, "velocity": 0, "duration": 87}, {"note": 71, "velocity": 93, "duration": 79}, {"note": 69, "velocity": 87, "duration": 83}, {"note": 67, "velocity": 87, "duration": 132}, {"note": 0, "velocity": 0, "duration": 108}, {"note": 66, "velocity": 68, "duration": 240}, {"note": 64, "velocity": 93, "duration": 153}, {"note": 0, "velocity": 0, "duration": 327}, {"note": 64, "velocity": 102, "duration": 176}, {"note": 0, "velocity": 0, "duration": 64}, {"note": 66, "velocity": 87, "duration": 134}, {"note": 0, "velocity": 0, "duration": 106}, {"note": 67, "velocity": 90, "duration": 324}, {"note": 0, "velocity": 0, "duration": 156}, {"note": 67, "velocity": 93, "duration": 150}, {"note": 0, "velocity": 0, "duration": 90}, {"note": 71, "velocity": 87, "duration": 132}, {"note": 0, "velocity": 0, "duration": 108}, {"note": 69, "velocity": 93, "duration": 266}, {"note": 0, "velocity": 0, "duration": 214}, {"note": 66, "velocity": 83, "duration": 97}, {"note": 64, "velocity": 69, "duration": 63}, {"note": 62, "velocity": 80, "duration": 123}, {"note": 0, "velocity": 0, "duration": 117}, {"note": 64, "velocity": 93, "duration": 224}, {"note": 0, "velocity": 0, "duration": 136}, {"note": 66, "velocity": 90, "duration": 63}, {"note": 67, "velocity": 71, "duration": 86}, {"note": 0, "velocity": 0, "duration": 154}, {"note": 69, "velocity": 102, "duration": 116}, {"note": 0, "velocity": 0, "duration": 124}, {"note": 71, "velocity": 93, "duration": 254}, {"note": 0, "velocity": 0, "duration": 226}, {"note": 71, "velocity": 95, "duration": 185}, {"note": 74, "velocity": 93, "duration": 125}, {"note": 0, "velocity": 0, "duration": 115}, {"note": 76, "velocity": 95, "duration": 324}, {"note": 0, "velocity": 0, "duration": 156}, {"note": 74, "velocity": 102, "duration": 388}, {"note": 0, "velocity": 0, "duration": 92}, {"note": 71, "velocity": 93, "duration": 356}, {"note": 0, "velocity": 0, "duration": 124}, {"note": 69, "velocity": 93, "duration": 132}, {"note": 0, "velocity": 0, "duration": 108}, {"note": 67, "velocity": 93, "duration": 164}, {"note": 0, "velocity": 0, "duration": 76}, {"note": 69, "velocity": 95, "duration": 153}, {"note": 0, "velocity": 0, "duration": 87}, {"note": 71, "velocity": 93, "duration": 79}, {"note": 69, "velocity": 87, "duration": 83}, {"note": 67, "velocity": 87, "duration": 132}, {"note": 0, "velocity": 0, "duration": 108}, {"note": 66, "velocity": 68, "duration": 240}, {"note": 64, "velocity": 93, "duration": 153}, {"note": 0, "velocity": 0, "duration": 327}, {"note": 64, "velocity": 102, "duration": 176}, {"note": 0, "velocity": 0, "duration": 64}, {"note": 66, "velocity": 87, "duration": 134}, {"note": 0, "velocity": 0, "duration": 106}, {"note": 67, "velocity": 90, "duration": 324}, {"note": 0, "velocity": 0, "duration": 156}, {"note": 67, "velocity": 93, "duration": 150}, {"note": 0, "velocity": 0, "duration": 90}, {"note": 71, "velocity": 87, "duration": 132}, {"note": 0, "velocity": 0, "duration": 108}, {"note": 69, "velocity": 93, "duration": 266}, {"note": 0, "velocity": 0, "duration": 214}, {"note": 67, "velocity": 68, "duration": 141}, {"note": 0, "velocity": 0, "duration": 99}, {"note": 66, "velocity": 85, "duration": 167}, {"note": 0, "velocity": 0, "duration": 73}, {"note": 64, "velocity": 93, "duration": 936}, {"note": 0, "velocity": 0, "duration": 2904}, {"note": 64, "velocity": 103, "duration": 349}, {"note": 0, "velocity": 0, "duration": 131}, {"note": 71, "velocity": 102, "duration": 135}, {"note": 0, "velocity": 0, "duration": 105}, {"note": 69, "velocity": 93, "duration": 123}, {"note": 0, "velocity": 0, "duration": 117}, {"note": 71, "velocity": 102, "duration": 337}, {"note": 0, "velocity": 0, "duration": 143}, {"note": 69, "velocity": 102, "duration": 102}, {"note": 0, "velocity": 0, "duration": 138}, {"note": 71, "velocity": 95, "duration": 88}, {"note": 0, "velocity": 0, "duration": 152}, {"note": 72, "velocity": 87, "duration": 270}, {"note": 0, "velocity": 0, "duration": 90}, {"note": 74, "velocity": 95, "duration": 76}, {"note": 72, "velocity": 103, "duration": 65}, {"note": 0, "velocity": 0, "duration": 175}, {"note": 69, "velocity": 95, "duration": 97}, {"note": 0, "velocity": 0, "duration": 143}, {"note": 71, "velocity": 93, "duration": 478}, {"note": 0, "velocity": 0, "duration": 362}, {"note": 71, "velocity": 93, "duration": 60}, {"note": 72, "velocity": 102, "duration": 69}, {"note": 0, "velocity": 0, "duration": 171}, {"note": 72, "velocity": 85, "duration": 79}, {"note": 71, "velocity": 103, "duration": 63}, {"note": 69, "velocity": 105, "duration": 81}, {"note": 0, "velocity": 0, "duration": 159}, {"note": 67, "velocity": 102, "duration": 95}, {"note": 0, "velocity": 0, "duration": 145}, {"note": 69, "velocity": 90, "duration": 102}, {"note": 0, "velocity": 0, "duration": 138}, {"note": 69, "velocity": 102, "duration": 83}, {"note": 67, "velocity": 83, "duration": 69}, {"note": 69, "velocity": 102, "duration": 125}, {"note": 0, "velocity": 0, "duration": 115}, {"note": 71, "velocity": 87, "duration": 113}, {"note": 0, "velocity": 0, "duration": 127}, {"note": 67, "velocity": 87, "duration": 106}, {"note": 0, "velocity": 0, "duration": 134}, {"note": 66, "velocity": 87, "duration": 88}, {"note": 0, "velocity": 0, "duration": 152}, {"note": 64, "velocity": 87, "duration": 113}, {"note": 0, "velocity": 0, "duration": 127}, {"note": 67, "velocity": 87, "duration": 95}, {"note": 0, "velocity": 0, "duration": 145}, {"note": 66, "velocity": 93, "duration": 451}, {"note": 0, "velocity": 0, "duration": 509}, {"note": 64, "velocity": 103, "duration": 349}, {"note": 0, "velocity": 0, "duration": 131}, {"note": 71, "velocity": 102, "duration": 135}, {"note": 0, "velocity": 0, "duration": 105}, {"note": 69, "velocity": 93, "duration": 123}, {"note": 0, "velocity": 0, "duration": 117}, {"note": 71, "velocity": 102, "duration": 337}, {"note": 0, "velocity": 0, "duration": 143}, {"note": 69, "velocity": 102, "duration": 102}, {"note": 0, "velocity": 0, "duration": 138}, {"note": 71, "velocity": 95, "duration": 88}, {"note": 0, "velocity": 0, "duration": 152}, {"note": 72, "velocity": 87, "duration": 240}, {"note": 72, "velocity": 95, "duration": 240}, {"note": 72, "velocity": 103, "duration": 65}, {"note": 0, "velocity": 0, "duration": 175}, {"note": 69, "velocity": 95, "duration": 97}, {"note": 0, "velocity": 0, "duration": 143}, {"note": 71, "velocity": 93, "duration": 478}, {"note": 0, "velocity": 0, "duration": 482}, {"note": 72, "velocity": 102, "duration": 69}, {"note": 0, "velocity": 0, "duration": 171}, {"note": 72, "velocity": 85, "duration": 79}, {"note": 71, "velocity": 103, "duration": 63}, {"note": 69, "velocity": 105, "duration": 81}, {"note": 0, "velocity": 0, "duration": 159}, {"note": 67, "velocity": 102, "duration": 95}, {"note": 0, "velocity": 0, "duration": 145}, {"note": 69, "velocity": 90, "duration": 102}, {"note": 0, "velocity": 0, "duration": 138}, {"note": 69, "velocity": 102, "duration": 83}, {"note": 67, "velocity": 83, "duration": 69}, {"note": 69, "velocity": 102, "duration": 125}, {"note": 0, "velocity": 0, "duration": 115}, {"note": 71, "velocity": 87, "duration": 113}, {"note": 0, "velocity": 0, "duration": 127}, {"note": 67, "velocity": 87, "duration": 106}, {"note": 0, "velocity": 0, "duration": 134}, {"note": 66, "velocity": 87, "duration": 88}, {"note": 0, "velocity": 0, "duration": 152}, {"note": 64, "velocity": 87, "duration": 113}, {"note": 0, "velocity": 0, "duration": 127}, {"note": 62, "velocity": 87, "duration": 95}, {"note": 0, "velocity": 0, "duration": 145}, {"note": 64, "velocity": 93, "duration": 451}, {"note": 0, "velocity": 0, "duration": 509}, {"note": 69, "velocity": 93, "duration": 111}, {"note": 0, "velocity": 0, "duration": 249}, {"note": 69, "velocity": 85, "duration": 63}, {"note": 69, "velocity": 93, "duration": 82}, {"note": 0, "velocity": 0, "duration": 158}, {"note": 69, "velocity": 93, "duration": 86}, {"note": 0, "velocity": 0, "duration": 154}, {"note": 72, "velocity": 93, "duration": 90}, {"note": 0, "velocity": 0, "duration": 150}, {"note": 72, "velocity": 87, "duration": 60}, {"note": 71, "velocity": 71, "duration": 73}, {"note": 69, "velocity": 87, "duration": 65}, {"note": 0, "velocity": 0, "duration": 175}, {"note": 69, "velocity": 87, "duration": 81}, {"note": 0, "velocity": 0, "duration": 159}, {"note": 71, "velocity": 87, "duration": 90}, {"note": 0, "velocity": 0, "duration": 150}, {"note": 71, "velocity": 90, "duration": 77}, {"note": 69, "velocity": 93, "duration": 91}, {"note": 67, "velocity": 93, "duration": 93}, {"note": 0, "velocity": 0, "duration": 147}, {"note": 69, "velocity": 95, "duration": 79}, {"note": 0, "velocity": 0, "duration": 161}, {"note": 67, "velocity": 93, "duration": 223}, {"note": 64, "velocity": 102, "duration": 406}, {"note": 0, "velocity": 0, "duration": 314}, {"note": 69, "velocity": 105, "duration": 240}, {"note": 0, "velocity": 0, "duration": 120}, {"note": 69, "velocity": 74, "duration": 67}, {"note": 69, "velocity": 87, "duration": 81}, {"note": 0, "velocity": 0, "duration": 159}, {"note": 69, "velocity": 93, "duration": 107}, {"note": 0, "velocity": 0, "duration": 133}, {"note": 69, "velocity": 93, "duration": 104}, {"note": 0, "velocity": 0, "duration": 136}, {"note": 69, "velocity": 80, "duration": 95}, {"note": 69, "velocity": 87, "duration": 90}, {"note": 69, "velocity": 83, "duration": 100}, {"note": 0, "velocity": 0, "duration": 140}, {"note": 67, "velocity": 83, "duration": 91}, {"note": 69, "velocity": 100, "duration": 120}, {"note": 71, "velocity": 80, "duration": 88}, {"note": 0, "velocity": 0, "duration": 152}, {"note": 71, "velocity": 87, "duration": 70}, {"note": 0, "velocity": 0, "duration": 170}, {"note": 69, "velocity": 93, "duration": 109}, {"note": 0, "velocity": 0, "duration": 131}, {"note": 67, "velocity": 87, "duration": 70}, {"note": 69, "velocity": 87, "duration": 67}, {"note": 71, "velocity": 87, "duration": 726}, {"note": 0, "velocity": 0, "duration": 234}, {"note": 69, "velocity": 87, "duration": 97}, {"note": 0, "velocity": 0, "duration": 263}, {"note": 69, "velocity": 87, "duration": 60}, {"note": 69, "velocity": 90, "duration": 116}, {"note": 0, "velocity": 0, "duration": 124}, {"note": 69, "velocity": 102, "duration": 116}, {"note": 0, "velocity": 0, "duration": 124}, {"note": 72, "velocity": 87, "duration": 114}, {"note": 0, "velocity": 0, "duration": 126}, {"note": 71, "velocity": 95, "duration": 107}, {"note": 0, "velocity": 0, "duration": 133}, {"note": 69, "velocity": 90, "duration": 114}, {"note": 0, "velocity": 0, "duration": 126}, {"note": 69, "velocity": 87, "duration": 107}, {"note": 0, "velocity": 0, "duration": 133}, {"note": 71, "velocity": 66, "duration": 116}, {"note": 0, "velocity": 0, "duration": 124}, {"note": 69, "velocity": 93, "duration": 96}, {"note": 0, "velocity": 0, "duration": 144}, {"note": 67, "velocity": 95, "duration": 111}, {"note": 0, "velocity": 0, "duration": 129}, {"note": 69, "velocity": 95, "duration": 88}, {"note": 67, "velocity": 74, "duration": 60}, {"note": 64, "velocity": 95, "duration": 535}, {"note": 0, "velocity": 0, "duration": 305}, {"note": 67, "velocity": 87, "duration": 84}, {"note": 69, "velocity": 87, "duration": 240}, {"note": 0, "velocity": 0, "duration": 120}, {"note": 69, "velocity": 95, "duration": 60}, {"note": 69, "velocity": 93, "duration": 81}, {"note": 0, "velocity": 0, "duration": 159}, {"note": 69, "velocity": 93, "duration": 93}, {"note": 0, "velocity": 0, "duration": 147}, {"note": 69, "velocity": 87, "duration": 102}, {"note": 0, "velocity": 0, "duration": 138}, {"note": 69, "velocity": 93, "duration": 128}, {"note": 0, "velocity": 0, "duration": 112}, {"note": 67, "velocity": 83, "duration": 118}, {"note": 0, "velocity": 0, "duration": 122}, {"note": 69, "velocity": 93, "duration": 100}, {"note": 0, "velocity": 0, "duration": 140}, {"note": 71, "velocity": 93, "duration": 197}, {"note": 0, "velocity": 0, "duration": 163}, {"note": 71, "velocity": 90, "duration": 83}, {"note": 69, "velocity": 95, "duration": 72}, {"note": 0, "velocity": 0, "duration": 168}, {"note": 67, "velocity": 87, "duration": 127}, {"note": 0, "velocity": 0, "duration": 113}, {"note": 71, "velocity": 71, "duration": 447}, {"note": 71, "velocity": 95, "duration": 185}, {"note": 74, "velocity": 93, "duration": 125}, {"note": 0, "velocity": 0, "duration": 115}, {"note": 76, "velocity": 95, "duration": 324}, {"note": 0, "velocity": 0, "duration": 156}, {"note": 74, "velocity": 102, "duration": 388}, {"note": 0, "velocity": 0, "duration": 92}, {"note": 71, "velocity": 93, "duration": 356}, {"note": 0, "velocity": 0, "duration": 124}, {"note": 69, "velocity": 93, "duration": 132}, {"note": 0, "velocity": 0, "duration": 108}, {"note": 67, "velocity": 93, "duration": 164}, {"note": 0, "velocity": 0, "duration": 76}, {"note": 69, "velocity": 95, "duration": 153}, {"note": 0, "velocity": 0, "duration": 87}, {"note": 71, "velocity": 93, "duration": 79}, {"note": 69, "velocity": 87, "duration": 83}, {"note": 67, "velocity": 87, "duration": 132}, {"note": 0, "velocity": 0, "duration": 108}, {"note": 66, "velocity": 68, "duration": 240}, {"note": 64, "velocity": 93, "duration": 153}, {"note": 0, "velocity": 0, "duration": 327}, {"note": 64, "velocity": 102, "duration": 176}, {"note": 0, "velocity": 0, "duration": 64}, {"note": 66, "velocity": 87, "duration": 134}, {"note": 0, "velocity": 0, "duration": 106}, {"note": 67, "velocity": 90, "duration": 324}, {"note": 0, "velocity": 0, "duration": 156}, {"note": 67, "velocity": 93, "duration": 150}, {"note": 0, "velocity": 0, "duration": 90}, {"note": 71, "velocity": 87, "duration": 132}, {"note": 0, "velocity": 0, "duration": 108}, {"note": 69, "velocity": 93, "duration": 266}, {"note": 0, "velocity": 0, "duration": 214}, {"note": 66, "velocity": 83, "duration": 97}, {"note": 64, "velocity": 69, "duration": 63}, {"note": 62, "velocity": 80, "duration": 123}, {"note": 0, "velocity": 0, "duration": 117}, {"note": 64, "velocity": 93, "duration": 224}, {"note": 0, "velocity": 0, "duration": 136}, {"note": 66, "velocity": 90, "duration": 63}, {"note": 67, "velocity": 71, "duration": 86}, {"note": 0, "velocity": 0, "duration": 154}, {"note": 69, "velocity": 102, "duration": 116}, {"note": 0, "velocity": 0, "duration": 124}, {"note": 71, "velocity": 93, "duration": 254}, {"note": 0, "velocity": 0, "duration": 226}, {"note": 71, "velocity": 95, "duration": 185}, {"note": 74, "velocity": 93, "duration": 125}, {"note": 0, "velocity": 0, "duration": 115}, {"note": 76, "velocity": 95, "duration": 324}, {"note": 0, "velocity": 0, "duration": 156}, {"note": 74, "velocity": 102, "duration": 388}, {"note": 0, "velocity": 0, "duration": 92}, {"note": 71, "velocity": 93, "duration": 356}, {"note": 0, "velocity": 0, "duration": 124}, {"note": 69, "velocity": 93, "duration": 132}, {"note": 0, "velocity": 0, "duration": 108}, {"note": 67, "velocity": 93, "duration": 164}, {"note": 0, "velocity": 0, "duration": 76}, {"note": 69, "velocity": 95, "duration": 153}, {"note": 0, "velocity": 0, "duration": 87}, {"note": 71, "velocity": 93, "duration": 79}, {"note": 69, "velocity": 87, "duration": 83}, {"note": 67, "velocity": 87, "duration": 132}, {"note": 0, "velocity": 0, "duration": 108}, {"note": 66, "velocity": 68, "duration": 240}, {"note": 64, "velocity": 93, "duration": 153}, {"note": 0, "velocity": 0, "duration": 327}, {"note": 64, "velocity": 102, "duration": 176}, {"note": 0, "velocity": 0, "duration": 64}, {"note": 66, "velocity": 87, "duration": 134}, {"note": 0, "velocity": 0, "duration": 106}, {"note": 67, "velocity": 90, "duration": 324}, {"note": 0, "velocity": 0, "duration": 156}, {"note": 67, "velocity": 93, "duration": 150}, {"note": 0, "velocity": 0, "duration": 90}, {"note": 71, "velocity": 87, "duration": 132}, {"note": 0, "velocity": 0, "duration": 108}, {"note": 69, "velocity": 93, "duration": 266}, {"note": 0, "velocity": 0, "duration": 214}, {"note": 67, "velocity": 68, "duration": 141}, {"note": 0, "velocity": 0, "duration": 99}, {"note": 66, "velocity": 85, "duration": 167}, {"note": 0, "velocity": 0, "duration": 73}, {"note": 64, "velocity": 93, "duration": 936}, {"note": 0, "velocity": 0, "duration": 22104}, {"note": 69, "velocity": 93, "duration": 111}, {"note": 0, "velocity": 0, "duration": 249}, {"note": 69, "velocity": 85, "duration": 63}, {"note": 69, "velocity": 93, "duration": 82}, {"note": 0, "velocity": 0, "duration": 158}, {"note": 69, "velocity": 93, "duration": 86}, {"note": 0, "velocity": 0, "duration": 154}, {"note": 72, "velocity": 93, "duration": 90}, {"note": 0, "velocity": 0, "duration": 150}, {"note": 72, "velocity": 87, "duration": 60}, {"note": 71, "velocity": 71, "duration": 73}, {"note": 69, "velocity": 87, "duration": 65}, {"note": 0, "velocity": 0, "duration": 175}, {"note": 69, "velocity": 87, "duration": 81}, {"note": 0, "velocity": 0, "duration": 159}, {"note": 71, "velocity": 87, "duration": 90}, {"note": 0, "velocity": 0, "duration": 150}, {"note": 71, "velocity": 90, "duration": 77}, {"note": 69, "velocity": 93, "duration": 91}, {"note": 67, "velocity": 93, "duration": 93}, {"note": 0, "velocity": 0, "duration": 147}, {"note": 69, "velocity": 95, "duration": 79}, {"note": 67, "velocity": 93, "duration": 120}, {"note": 64, "velocity": 102, "duration": 720}, {"note": 0, "velocity": 0, "duration": 240}, {"note": 69, "velocity": 105, "duration": 240}, {"note": 0, "velocity": 0, "duration": 120}, {"note": 69, "velocity": 74, "duration": 67}, {"note": 69, "velocity": 87, "duration": 81}, {"note": 0, "velocity": 0, "duration": 159}, {"note": 69, "velocity": 93, "duration": 107}, {"note": 0, "velocity": 0, "duration": 133}, {"note": 69, "velocity": 93, "duration": 104}, {"note": 0, "velocity": 0, "duration": 136}, {"note": 71, "velocity": 80, "duration": 95}, {"note": 69, "velocity": 87, "duration": 90}, {"note": 69, "velocity": 83, "duration": 100}, {"note": 0, "velocity": 0, "duration": 140}, {"note": 67, "velocity": 83, "duration": 91}, {"note": 69, "velocity": 100, "duration": 120}, {"note": 71, "velocity": 80, "duration": 88}, {"note": 0, "velocity": 0, "duration": 272}, {"note": 69, "velocity": 87, "duration": 70}, {"note": 67, "velocity": 93, "duration": 109}, {"note": 0, "velocity": 0, "duration": 131}, {"note": 67, "velocity": 87, "duration": 70}, {"note": 69, "velocity": 87, "duration": 67}, {"note": 71, "velocity": 87, "duration": 726}, {"note": 0, "velocity": 0, "duration": 234}, {"note": 69, "velocity": 87, "duration": 97}, {"note": 0, "velocity": 0, "duration": 263}, {"note": 69, "velocity": 87, "duration": 60}, {"note": 69, "velocity": 90, "duration": 116}, {"note": 0, "velocity": 0, "duration": 124}, {"note": 69, "velocity": 102, "duration": 116}, {"note": 67, "velocity": 100, "duration": 120}, {"note": 69, "velocity": 87, "duration": 114}, {"note": 0, "velocity": 0, "duration": 126}, {"note": 71, "velocity": 95, "duration": 107}, {"note": 0, "velocity": 0, "duration": 133}, {"note": 69, "velocity": 90, "duration": 240}, {"note": 0, "velocity": 0, "duration": 240}, {"note": 71, "velocity": 66, "duration": 116}, {"note": 0, "velocity": 0, "duration": 124}, {"note": 69, "velocity": 93, "duration": 96}, {"note": 0, "velocity": 0, "duration": 144}, {"note": 67, "velocity": 95, "duration": 111}, {"note": 0, "velocity": 0, "duration": 129}, {"note": 69, "velocity": 95, "duration": 88}, {"note": 67, "velocity": 74, "duration": 60}, {"note": 64, "velocity": 95, "duration": 535}, {"note": 0, "velocity": 0, "duration": 305}, {"note": 67, "velocity": 87, "duration": 84}, {"note": 69, "velocity": 87, "duration": 120}, {"note": 69, "velocity": 87, "duration": 120}, {"note": 0, "velocity": 0, "duration": 120}, {"note": 69, "velocity": 95, "duration": 60}, {"note": 69, "velocity": 93, "duration": 81}, {"note": 0, "velocity": 0, "duration": 159}, {"note": 69, "velocity": 93, "duration": 93}, {"note": 0, "velocity": 0, "duration": 147}, {"note": 69, "velocity": 87, "duration": 102}, {"note": 0, "velocity": 0, "duration": 138}, {"note": 69, "velocity": 93, "duration": 128}, {"note": 0, "velocity": 0, "duration": 112}, {"note": 67, "velocity": 83, "duration": 118}, {"note": 0, "velocity": 0, "duration": 122}, {"note": 69, "velocity": 93, "duration": 100}, {"note": 0, "velocity": 0, "duration": 140}, {"note": 71, "velocity": 93, "duration": 197}, {"note": 71, "velocity": 90, "duration": 203}, {"note": 71, "velocity": 95, "duration": 240}, {"note": 72, "velocity": 87, "duration": 240}, {"note": 71, "velocity": 71, "duration": 447}, {"note": 0, "velocity": 0, "duration": 513}, {"note": 69, "velocity": 93, "duration": 111}, {"note": 0, "velocity": 0, "duration": 249}, {"note": 69, "velocity": 85, "duration": 63}, {"note": 69, "velocity": 93, "duration": 82}, {"note": 0, "velocity": 0, "duration": 158}, {"note": 69, "velocity": 93, "duration": 86}, {"note": 0, "velocity": 0, "duration": 154}, {"note": 69, "velocity": 93, "duration": 90}, {"note": 0, "velocity": 0, "duration": 150}, {"note": 69, "velocity": 87, "duration": 60}, {"note": 0, "velocity": 0, "duration": 180}, {"note": 67, "velocity": 87, "duration": 65}, {"note": 0, "velocity": 0, "duration": 175}, {"note": 69, "velocity": 87, "duration": 81}, {"note": 0, "velocity": 0, "duration": 159}, {"note": 71, "velocity": 87, "duration": 360}, {"note": 69, "velocity": 93, "duration": 91}, {"note": 67, "velocity": 93, "duration": 93}, {"note": 0, "velocity": 0, "duration": 147}, {"note": 69, "velocity": 95, "duration": 79}, {"note": 67, "velocity": 93, "duration": 120}, {"note": 64, "velocity": 102, "duration": 720}, {"note": 0, "velocity": 0, "duration": 240}, {"note": 69, "velocity": 105, "duration": 240}, {"note": 0, "velocity": 0, "duration": 120}, {"note": 69, "velocity": 74, "duration": 67}, {"note": 69, "velocity": 87, "duration": 81}, {"note": 0, "velocity": 0, "duration": 159}, {"note": 69, "velocity": 93, "duration": 120}, {"note": 69, "velocity": 93, "duration": 120}, {"note": 69, "velocity": 93, "duration": 104}, {"note": 0, "velocity": 0, "duration": 136}, {"note": 69, "velocity": 80, "duration": 240}, {"note": 69, "velocity": 83, "duration": 360}, {"note": 0, "velocity": 0, "duration": 120}, {"note": 71, "velocity": 80, "duration": 240}, {"note": 0, "velocity": 0, "duration": 120}, {"note": 69, "velocity": 87, "duration": 70}, {"note": 67, "velocity": 93, "duration": 109}, {"note": 0, "velocity": 0, "duration": 131}, {"note": 69, "velocity": 87, "duration": 70}, {"note": 0, "velocity": 0, "duration": 170}, {"note": 71, "velocity": 87, "duration": 726}, {"note": 0, "velocity": 0, "duration": 234}, {"note": 69, "velocity": 87, "duration": 97}, {"note": 0, "velocity": 0, "duration": 143}, {"note": 69, "velocity": 100, "duration": 120}, {"note": 69, "velocity": 87, "duration": 60}, {"note": 69, "velocity": 90, "duration": 116}, {"note": 0, "velocity": 0, "duration": 124}, {"note": 69, "velocity": 102, "duration": 116}, {"note": 0, "velocity": 0, "duration": 124}, {"note": 69, "velocity": 87, "duration": 114}, {"note": 0, "velocity": 0, "duration": 126}, {"note": 67, "velocity": 95, "duration": 107}, {"note": 0, "velocity": 0, "duration": 133}, {"note": 69, "velocity": 90, "duration": 240}, {"note": 0, "velocity": 0, "duration": 240}, {"note": 71, "velocity": 66, "duration": 116}, {"note": 0, "velocity": 0, "duration": 124}, {"note": 69, "velocity": 93, "duration": 96}, {"note": 0, "velocity": 0, "duration": 144}, {"note": 67, "velocity": 95, "duration": 111}, {"note": 0, "velocity": 0, "duration": 129}, {"note": 69, "velocity": 95, "duration": 88}, {"note": 67, "velocity": 74, "duration": 60}, {"note": 64, "velocity": 95, "duration": 535}, {"note": 0, "velocity": 0, "duration": 305}, {"note": 67, "velocity": 87, "duration": 84}, {"note": 69, "velocity": 87, "duration": 120}, {"note": 69, "velocity": 87, "duration": 120}, {"note": 0, "velocity": 0, "duration": 120}, {"note": 69, "velocity": 95, "duration": 60}, {"note": 69, "velocity": 93, "duration": 81}, {"note": 0, "velocity": 0, "duration": 159}, {"note": 69, "velocity": 93, "duration": 93}, {"note": 0, "velocity": 0, "duration": 147}, {"note": 69, "velocity": 87, "duration": 102}, {"note": 0, "velocity": 0, "duration": 138}, {"note": 69, "velocity": 93, "duration": 128}, {"note": 0, "velocity": 0, "duration": 112}, {"note": 69, "velocity": 83, "duration": 360}, {"note": 0, "velocity": 0, "duration": 120}, {"note": 71, "velocity": 93, "duration": 240}, {"note": 0, "velocity": 0, "duration": 120}, {"note": 71, "velocity": 90, "duration": 120}, {"note": 69, "velocity": 95, "duration": 240}, {"note": 67, "velocity": 87, "duration": 240}, {"note": 71, "velocity": 71, "duration": 480}, {"note": 71, "velocity": 95, "duration": 185}, {"note": 74, "velocity": 93, "duration": 125}, {"note": 0, "velocity": 0, "duration": 115}, {"note": 76, "velocity": 95, "duration": 324}, {"note": 0, "velocity": 0, "duration": 156}, {"note": 74, "velocity": 102, "duration": 388}, {"note": 0, "velocity": 0, "duration": 92}, {"note": 71, "velocity": 93, "duration": 356}, {"note": 0, "velocity": 0, "duration": 124}, {"note": 69, "velocity": 93, "duration": 132}, {"note": 0, "velocity": 0, "duration": 108}, {"note": 67, "velocity": 93, "duration": 164}, {"note": 0, "velocity": 0, "duration": 76}, {"note": 69, "velocity": 95, "duration": 153}, {"note": 0, "velocity": 0, "duration": 87}, {"note": 71, "velocity": 93, "duration": 79}, {"note": 69, "velocity": 87, "duration": 83}, {"note": 67, "velocity": 87, "duration": 132}, {"note": 0, "velocity": 0, "duration": 108}, {"note": 66, "velocity": 68, "duration": 240}, {"note": 64, "velocity": 93, "duration": 153}, {"note": 0, "velocity": 0, "duration": 327}, {"note": 64, "velocity": 102, "duration": 176}, {"note": 0, "velocity": 0, "duration": 64}, {"note": 66, "velocity": 87, "duration": 134}, {"note": 0, "velocity": 0, "duration": 106}, {"note": 67, "velocity": 90, "duration": 324}, {"note": 0, "velocity": 0, "duration": 156}, {"note": 67, "velocity": 93, "duration": 150}, {"note": 0, "velocity": 0, "duration": 90}, {"note": 71, "velocity": 87, "duration": 132}, {"note": 0, "velocity": 0, "duration": 108}, {"note": 69, "velocity": 93, "duration": 266}, {"note": 0, "velocity": 0, "duration": 214}, {"note": 66, "velocity": 83, "duration": 97}, {"note": 64, "velocity": 69, "duration": 63}, {"note": 62, "velocity": 80, "duration": 123}, {"note": 0, "velocity": 0, "duration": 117}, {"note": 64, "velocity": 93, "duration": 224}, {"note": 0, "velocity": 0, "duration": 136}, {"note": 66, "velocity": 90, "duration": 63}, {"note": 67, "velocity": 71, "duration": 86}, {"note": 0, "velocity": 0, "duration": 154}, {"note": 69, "velocity": 102, "duration": 116}, {"note": 0, "velocity": 0, "duration": 124}, {"note": 71, "velocity": 93, "duration": 254}, {"note": 0, "velocity": 0, "duration": 226}, {"note": 71, "velocity": 95, "duration": 185}, {"note": 74, "velocity": 93, "duration": 125}, {"note": 0, "velocity": 0, "duration": 115}, {"note": 76, "velocity": 95, "duration": 324}, {"note": 0, "velocity": 0, "duration": 156}, {"note": 74, "velocity": 102, "duration": 388}, {"note": 0, "velocity": 0, "duration": 92}, {"note": 71, "velocity": 93, "duration": 356}, {"note": 0, "velocity": 0, "duration": 124}, {"note": 69, "velocity": 93, "duration": 132}, {"note": 0, "velocity": 0, "duration": 108}, {"note": 67, "velocity": 93, "duration": 164}, {"note": 0, "velocity": 0, "duration": 76}, {"note": 69, "velocity": 95, "duration": 153}, {"note": 0, "velocity": 0, "duration": 87}, {"note": 71, "velocity": 93, "duration": 79}, {"note": 69, "velocity": 87, "duration": 83}, {"note": 67, "velocity": 87, "duration": 132}, {"note": 0, "velocity": 0, "duration": 108}, {"note": 66, "velocity": 68, "duration": 240}, {"note": 64, "velocity": 93, "duration": 153}, {"note": 0, "velocity": 0, "duration": 327}, {"note": 64, "velocity": 102, "duration": 176}, {"note": 0, "velocity": 0, "duration": 64}, {"note": 66, "velocity": 87, "duration": 134}, {"note": 0, "velocity": 0, "duration": 106}, {"note": 67, "velocity": 90, "duration": 324}, {"note": 0, "velocity": 0, "duration": 156}, {"note": 67, "velocity": 93, "duration": 150}, {"note": 0, "velocity": 0, "duration": 90}, {"note": 71, "velocity": 87, "duration": 132}, {"note": 0, "velocity": 0, "duration": 108}, {"note": 69, "velocity": 93, "duration": 266}, {"note": 0, "velocity": 0, "duration": 214}, {"note": 67, "velocity": 68, "duration": 141}, {"note": 0, "velocity": 0, "duration": 99}, {"note": 66, "velocity": 85, "duration": 167}, {"note": 0, "velocity": 0, "duration": 73}, {"note": 64, "velocity": 93, "duration": 936}, {"note": 0, "velocity": 0, "duration": 504}, {"note": 71, "velocity": 95, "duration": 185}, {"note": 74, "velocity": 93, "duration": 125}, {"note": 0, "velocity": 0, "duration": 115}, {"note": 76, "velocity": 95, "duration": 324}, {"note": 0, "velocity": 0, "duration": 156}, {"note": 74, "velocity": 102, "duration": 388}, {"note": 0, "velocity": 0, "duration": 92}, {"note": 71, "velocity": 93, "duration": 356}, {"note": 0, "velocity": 0, "duration": 124}, {"note": 69, "velocity": 93, "duration": 132}, {"note": 0, "velocity": 0, "duration": 108}, {"note": 67, "velocity": 93, "duration": 164}, {"note": 0, "velocity": 0, "duration": 76}, {"note": 69, "velocity": 95, "duration": 153}, {"note": 0, "velocity": 0, "duration": 87}, {"note": 71, "velocity": 93, "duration": 79}, {"note": 69, "velocity": 87, "duration": 83}, {"note": 67, "velocity": 87, "duration": 132}, {"note": 0, "velocity": 0, "duration": 108}, {"note": 66, "velocity": 68, "duration": 240}, {"note": 64, "velocity": 93, "duration": 153}, {"note": 0, "velocity": 0, "duration": 327}, {"note": 64, "velocity": 102, "duration": 176}, {"note": 0, "velocity": 0, "duration": 64}, {"note": 66, "velocity": 87, "duration": 134}, {"note": 0, "velocity": 0, "duration": 106}, {"note": 67, "velocity": 90, "duration": 324}, {"note": 0, "velocity": 0, "duration": 156}, {"note": 67, "velocity": 93, "duration": 150}, {"note": 0, "velocity": 0, "duration": 90}, {"note": 71, "velocity": 87, "duration": 132}, {"note": 0, "velocity": 0, "duration": 108}, {"note": 69, "velocity": 93, "duration": 266}, {"note": 0, "velocity": 0, "duration": 214}, {"note": 66, "velocity": 83, "duration": 97}, {"note": 64, "velocity": 69, "duration": 63}, {"note": 62, "velocity": 80, "duration": 123}, {"note": 0, "velocity": 0, "duration": 117}, {"note": 64, "velocity": 93, "duration": 224}, {"note": 0, "velocity": 0, "duration": 136}, {"note": 66, "velocity": 90, "duration": 63}, {"note": 67, "velocity": 71, "duration": 86}, {"note": 0, "velocity": 0, "duration": 154}, {"note": 69, "velocity": 102, "duration": 116}, {"note": 0, "velocity": 0, "duration": 124}, {"note": 71, "velocity": 93, "duration": 254}, {"note": 0, "velocity": 0, "duration": 226}, {"note": 71, "velocity": 95, "duration": 185}, {"note": 74, "velocity": 93, "duration": 125}, {"note": 0, "velocity": 0, "duration": 115}, {"note": 76, "velocity": 95, "duration": 324}, {"note": 0, "velocity": 0, "duration": 156}, {"note": 74, "velocity": 102, "duration": 388}, {"note": 0, "velocity": 0, "duration": 92}, {"note": 71, "velocity": 93, "duration": 356}, {"note": 0, "velocity": 0, "duration": 124}, {"note": 69, "velocity": 93, "duration": 132}, {"note": 0, "velocity": 0, "duration": 108}, {"note": 67, "velocity": 93, "duration": 164}, {"note": 0, "velocity": 0, "duration": 76}, {"note": 69, "velocity": 95, "duration": 153}, {"note": 0, "velocity": 0, "duration": 87}, {"note": 71, "velocity": 93, "duration": 79}, {"note": 69, "velocity": 87, "duration": 83}, {"note": 67, "velocity": 87, "duration": 132}, {"note": 0, "velocity": 0, "duration": 108}, {"note": 66, "velocity": 68, "duration": 240}, {"note": 64, "velocity": 93, "duration": 153}, {"note": 0, "velocity": 0, "duration": 327}, {"note": 64, "velocity": 102, "duration": 176}, {"note": 0, "velocity": 0, "duration": 64}, {"note": 66, "velocity": 87, "duration": 134}, {"note": 0, "velocity": 0, "duration": 106}, {"note": 67, "velocity": 90, "duration": 324}, {"note": 0, "velocity": 0, "duration": 156}, {"note": 67, "velocity": 93, "duration": 150}, {"note": 0, "velocity": 0, "duration": 90}, {"note": 71, "velocity": 87, "duration": 132}, {"note": 0, "velocity": 0, "duration": 108}, {"note": 69, "velocity": 93, "duration": 266}, {"note": 0, "velocity": 0, "duration": 214}, {"note": 67, "velocity": 68, "duration": 141}, {"note": 0, "velocity": 0, "duration": 99}, {"note": 66, "velocity": 85, "duration": 167}, {"note": 0, "velocity": 0, "duration": 73}, {"note": 64, "velocity": 93, "duration": 936}, {"note": 0, "velocity": 0, "duration": 504}, {"note": 71, "velocity": 95, "duration": 185}, {"note": 74, "velocity": 93, "duration": 125}, {"note": 0, "velocity": 0, "duration": 115}, {"note": 76, "velocity": 95, "duration": 324}, {"note": 0, "velocity": 0, "duration": 156}, {"note": 74, "velocity": 102, "duration": 388}, {"note": 0, "velocity": 0, "duration": 92}, {"note": 71, "velocity": 93, "duration": 356}, {"note": 0, "velocity": 0, "duration": 124}, {"note": 69, "velocity": 93, "duration": 132}, {"note": 0, "velocity": 0, "duration": 108}, {"note": 67, "velocity": 93, "duration": 164}, {"note": 0, "velocity": 0, "duration": 76}, {"note": 69, "velocity": 95, "duration": 153}, {"note": 0, "velocity": 0, "duration": 87}, {"note": 71, "velocity": 93, "duration": 79}, {"note": 69, "velocity": 87, "duration": 83}, {"note": 67, "velocity": 87, "duration": 132}, {"note": 0, "velocity": 0, "duration": 108}, {"note": 66, "velocity": 68, "duration": 240}, {"note": 64, "velocity": 93, "duration": 153}, {"note": 0, "velocity": 0, "duration": 327}, {"note": 64, "velocity": 102, "duration": 176}, {"note": 0, "velocity": 0, "duration": 64}, {"note": 66, "velocity": 87, "duration": 134}, {"note": 0, "velocity": 0, "duration": 106}, {"note": 67, "velocity": 90, "duration": 324}, {"note": 0, "velocity": 0, "duration": 156}, {"note": 67, "velocity": 93, "duration": 150}, {"note": 0, "velocity": 0, "duration": 90}, {"note": 71, "velocity": 87, "duration": 132}, {"note": 0, "velocity": 0, "duration": 108}, {"note": 69, "velocity": 93, "duration": 266}, {"note": 0, "velocity": 0, "duration": 214}, {"note": 66, "velocity": 83, "duration": 97}, {"note": 64, "velocity": 69, "duration": 63}, {"note": 62, "velocity": 80, "duration": 123}, {"note": 0, "velocity": 0, "duration": 117}, {"note": 64, "velocity": 93, "duration": 224}, {"note": 0, "velocity": 0, "duration": 136}, {"note": 66, "velocity": 90, "duration": 63}, {"note": 67, "velocity": 71, "duration": 86}, {"note": 0, "velocity": 0, "duration": 154}, {"note": 69, "velocity": 102, "duration": 116}, {"note": 0, "velocity": 0, "duration": 124}, {"note": 71, "velocity": 93, "duration": 254}, {"note": 0, "velocity": 0, "duration": 226}, {"note": 71, "velocity": 95, "duration": 185}, {"note": 74, "velocity": 93, "duration": 125}, {"note": 0, "velocity": 0, "duration": 115}, {"note": 76, "velocity": 95, "duration": 324}, {"note": 0, "velocity": 0, "duration": 156}, {"note": 74, "velocity": 85, "duration": 388}, {"note": 0, "velocity": 0, "duration": 92}, {"note": 71, "velocity": 77, "duration": 356}, {"note": 0, "velocity": 0, "duration": 124}, {"note": 69, "velocity": 69, "duration": 132}, {"note": 0, "velocity": 0, "duration": 108}, {"note": 67, "velocity": 66, "duration": 164}, {"note": 0, "velocity": 0, "duration": 76}, {"note": 69, "velocity": 60, "duration": 153}, {"note": 0, "velocity": 0, "duration": 87}, {"note": 71, "velocity": 57, "duration": 79}, {"note": 69, "velocity": 55, "duration": 83}, {"note": 67, "velocity": 52, "duration": 132}, {"note": 0, "velocity": 0, "duration": 108}, {"note": 66, "velocity": 49, "duration": 240}, {"note": 64, "velocity": 44, "duration": 153}, {"note": 0, "velocity": 0, "duration": 327}, {"note": 64, "velocity": 38, "duration": 176}, {"note": 0, "velocity": 0, "duration": 64}, {"note": 66, "velocity": 33, "duration": 134}, {"note": 0, "velocity": 0, "duration": 106}, {"note": 67, "velocity": 30, "duration": 324}, {"note": 0, "velocity": 0, "duration": 156}, {"note": 67, "velocity": 22, "duration": 150}, {"note": 0, "velocity": 0, "duration": 90}, {"note": 71, "velocity": 16, "duration": 132}, {"note": 0, "velocity": 0, "duration": 108}, {"note": 69, "velocity": 13, "duration": 266}, {"note": 0, "velocity": 0, "duration": 214}, {"note": 67, "velocity": 5, "duration": 141}, {"note": 0, "velocity": 0, "duration": 99}, {"note": 66, "velocity": 2, "duration": 167}, {"note": 0, "velocity": 0, "duration": 73}, {"note": 64, "velocity": 1, "duration": 936}]]