[[{"note": 60, "velocity": 74, "duration": 119}, {"note": 69, "velocity": 92, "duration": 238}, {"note": 67, "velocity": 54, "duration": 74}, {"note": 67, "velocity": 89, "duration": 356}, {"note": 65, "velocity": 69, "duration": 60}, {"note": 65, "velocity": 79, "duration": 773}, {"note": 0, "velocity": 0, "duration": 187}, {"note": 60, "velocity": 82, "duration": 115}, {"note": 69, "velocity": 86, "duration": 216}, {"note": 67, "velocity": 44, "duration": 55}, {"note": 0, "velocity": 0, "duration": 65}, {"note": 67, "velocity": 95, "duration": 353}, {"note": 65, "velocity": 73, "duration": 55}, {"note": 0, "velocity": 0, "duration": 65}, {"note": 65, "velocity": 86, "duration": 688}, {"note": 0, "velocity": 0, "duration": 272}, {"note": 60, "velocity": 75, "duration": 125}, {"note": 69, "velocity": 95, "duration": 212}, {"note": 67, "velocity": 74, "duration": 63}, {"note": 67, "velocity": 88, "duration": 297}, {"note": 0, "velocity": 0, "duration": 63}, {"note": 65, "velocity": 56, "duration": 41}, {"note": 0, "velocity": 0, "duration": 79}, {"note": 70, "velocity": 112, "duration": 156}, {"note": 0, "velocity": 0, "duration": 84}, {"note": 69, "velocity": 99, "duration": 541}, {"note": 0, "velocity": 0, "duration": 179}, {"note": 65, "velocity": 81, "duration": 79}, {"note": 72, "velocity": 85, "duration": 190}, {"note": 69, "velocity": 99, "duration": 63}, {"note": 67, "velocity": 88, "duration": 145}, {"note": 0, "velocity": 0, "duration": 95}, {"note": 65, "velocity": 90, "duration": 695}, {"note": 62, "velocity": 86, "duration": 680}, {"note": 72, "velocity": 102, "duration": 200}, {"note": 69, "velocity": 83, "duration": 58}, {"note": 0, "velocity": 0, "duration": 62}, {"note": 67, "velocity": 82, "duration": 151}, {"note": 0, "velocity": 0, "duration": 89}, {"note": 65, "velocity": 92, "duration": 101}, {"note": 0, "velocity": 0, "duration": 139}, {"note": 67, "velocity": 89, "duration": 827}, {"note": 0, "velocity": 0, "duration": 2053}, {"note": 60, "velocity": 74, "duration": 119}, {"note": 69, "velocity": 92, "duration": 238}, {"note": 67, "velocity": 54, "duration": 74}, {"note": 67, "velocity": 89, "duration": 356}, {"note": 65, "velocity": 69, "duration": 60}, {"note": 65, "velocity": 79, "duration": 773}, {"note": 0, "velocity": 0, "duration": 187}, {"note": 60, "velocity": 82, "duration": 115}, {"note": 69, "velocity": 86, "duration": 216}, {"note": 67, "velocity": 44, "duration": 55}, {"note": 0, "velocity": 0, "duration": 65}, {"note": 67, "velocity": 95, "duration": 353}, {"note": 65, "velocity": 73, "duration": 55}, {"note": 0, "velocity": 0, "duration": 65}, {"note": 65, "velocity": 86, "duration": 688}, {"note": 0, "velocity": 0, "duration": 272}, {"note": 60, "velocity": 75, "duration": 125}, {"note": 69, "velocity": 95, "duration": 212}, {"note": 67, "velocity": 74, "duration": 63}, {"note": 67, "velocity": 88, "duration": 297}, {"note": 0, "velocity": 0, "duration": 63}, {"note": 65, "velocity": 56, "duration": 41}, {"note": 0, "velocity": 0, "duration": 79}, {"note": 70, "velocity": 112, "duration": 156}, {"note": 0, "velocity": 0, "duration": 84}, {"note": 69, "velocity": 99, "duration": 541}, {"note": 0, "velocity": 0, "duration": 179}, {"note": 65, "velocity": 81, "duration": 79}, {"note": 72, "velocity": 85, "duration": 190}, {"note": 69, "velocity": 99, "duration": 63}, {"note": 67, "velocity": 88, "duration": 145}, {"note": 0, "velocity": 0, "duration": 95}, {"note": 65, "velocity": 90, "duration": 695}, {"note": 62, "velocity": 86, "duration": 680}, {"note": 72, "velocity": 102, "duration": 200}, {"note": 69, "velocity": 83, "duration": 58}, {"note": 0, "velocity": 0, "duration": 62}, {"note": 67, "velocity": 82, "duration": 151}, {"note": 0, "velocity": 0, "duration": 209}, {"note": 65, "velocity": 92, "duration": 101}, {"note": 65, "velocity": 89, "duration": 827}, {"note": 0, "velocity": 0, "duration": 253}, {"note": 72, "velocity": 107, "duration": 163}, {"note": 0, "velocity": 0, "duration": 77}, {"note": 69, "velocity": 89, "duration": 60}, {"note": 67, "velocity": 85, "duration": 145}, {"note": 0, "velocity": 0, "duration": 95}, {"note": 65, "velocity": 89, "duration": 256}, {"note": 0, "velocity": 0, "duration": 344}, {"note": 62, "velocity": 77, "duration": 134}, {"note": 60, "velocity": 77, "duration": 617}, {"note": 0, "velocity": 0, "duration": 583}, {"note": 60, "velocity": 96, "duration": 123}, {"note": 65, "velocity": 81, "duration": 149}, {"note": 67, "velocity": 90, "duration": 141}, {"note": 69, "velocity": 95, "duration": 206}, {"note": 69, "velocity": 86, "duration": 46}, {"note": 0, "velocity": 0, "duration": 74}, {"note": 69, "velocity": 122, "duration": 278}, {"note": 70, "velocity": 95, "duration": 158}, {"note": 0, "velocity": 0, "duration": 82}, {"note": 69, "velocity": 90, "duration": 252}, {"note": 67, "velocity": 79, "duration": 432}, {"note": 0, "velocity": 0, "duration": 168}, {"note": 67, "velocity": 92, "duration": 85}, {"note": 69, "velocity": 95, "duration": 55}, {"note": 0, "velocity": 0, "duration": 65}, {"note": 70, "velocity": 112, "duration": 188}, {"note": 69, "velocity": 85, "duration": 45}, {"note": 0, "velocity": 0, "duration": 75}, {"note": 67, "velocity": 89, "duration": 303}, {"note": 0, "velocity": 0, "duration": 177}, {"note": 65, "velocity": 77, "duration": 48}, {"note": 0, "velocity": 0, "duration": 72}, {"note": 65, "velocity": 79, "duration": 113}, {"note": 69, "velocity": 82, "duration": 219}, {"note": 67, "velocity": 90, "duration": 882}, {"note": 0, "velocity": 0, "duration": 678}, {"note": 67, "velocity": 102, "duration": 158}, {"note": 0, "velocity": 0, "duration": 82}, {"note": 65, "velocity": 82, "duration": 64}, {"note": 67, "velocity": 90, "duration": 331}, {"note": 65, "velocity": 93, "duration": 62}, {"note": 65, "velocity": 85, "duration": 1935}, {"note": 0, "velocity": 0, "duration": 1065}, {"note": 65, "velocity": 96, "duration": 214}, {"note": 67, "velocity": 112, "duration": 202}, {"note": 69, "velocity": 97, "duration": 284}, {"note": 72, "velocity": 97, "duration": 190}, {"note": 74, "velocity": 102, "duration": 177}, {"note": 0, "velocity": 0, "duration": 63}, {"note": 72, "velocity": 102, "duration": 194}, {"note": 69, "velocity": 99, "duration": 187}, {"note": 74, "velocity": 107, "duration": 314}, {"note": 0, "velocity": 0, "duration": 166}, {"note": 72, "velocity": 100, "duration": 202}, {"note": 69, "velocity": 100, "duration": 176}, {"note": 0, "velocity": 0, "duration": 64}, {"note": 74, "velocity": 127, "duration": 472}, {"note": 72, "velocity": 85, "duration": 639}, {"note": 0, "velocity": 0, "duration": 81}, {"note": 74, "velocity": 127, "duration": 146}, {"note": 0, "velocity": 0, "duration": 94}, {"note": 72, "velocity": 112, "duration": 130}, {"note": 0, "velocity": 0, "duration": 110}, {"note": 77, "velocity": 127, "duration": 171}, {"note": 0, "velocity": 0, "duration": 69}, {"note": 69, "velocity": 117, "duration": 494}, {"note": 67, "velocity": 107, "duration": 212}, {"note": 72, "velocity": 102, "duration": 203}, {"note": 69, "velocity": 100, "duration": 600}, {"note": 67, "velocity": 97, "duration": 150}, {"note": 0, "velocity": 0, "duration": 90}, {"note": 72, "velocity": 112, "duration": 152}, {"note": 0, "velocity": 0, "duration": 88}, {"note": 69, "velocity": 122, "duration": 483}, {"note": 0, "velocity": 0, "duration": 717}, {"note": 65, "velocity": 107, "duration": 167}, {"note": 0, "velocity": 0, "duration": 73}, {"note": 67, "velocity": 122, "duration": 177}, {"note": 0, "velocity": 0, "duration": 63}, {"note": 69, "velocity": 96, "duration": 201}, {"note": 72, "velocity": 112, "duration": 174}, {"note": 0, "velocity": 0, "duration": 66}, {"note": 74, "velocity": 127, "duration": 373}, {"note": 72, "velocity": 117, "duration": 153}, {"note": 0, "velocity": 0, "duration": 87}, {"note": 69, "velocity": 100, "duration": 162}, {"note": 0, "velocity": 0, "duration": 78}, {"note": 74, "velocity": 122, "duration": 304}, {"note": 0, "velocity": 0, "duration": 176}, {"note": 72, "velocity": 100, "duration": 154}, {"note": 0, "velocity": 0, "duration": 86}, {"note": 69, "velocity": 107, "duration": 177}, {"note": 0, "velocity": 0, "duration": 63}, {"note": 73, "velocity": 127, "duration": 504}, {"note": 72, "velocity": 117, "duration": 225}, {"note": 70, "velocity": 112, "duration": 185}, {"note": 70, "velocity": 127, "duration": 336}, {"note": 0, "velocity": 0, "duration": 144}, {"note": 77, "velocity": 112, "duration": 186}, {"note": 79, "velocity": 117, "duration": 154}, {"note": 0, "velocity": 0, "duration": 86}, {"note": 77, "velocity": 99, "duration": 432}, {"note": 72, "velocity": 92, "duration": 352}, {"note": 0, "velocity": 0, "duration": 128}, {"note": 72, "velocity": 122, "duration": 439}, {"note": 69, "velocity": 117, "duration": 308}, {"note": 67, "velocity": 88, "duration": 83}, {"note": 65, "velocity": 99, "duration": 528}, {"note": 0, "velocity": 0, "duration": 672}, {"note": 65, "velocity": 102, "duration": 155}, {"note": 0, "velocity": 0, "duration": 85}, {"note": 67, "velocity": 93, "duration": 158}, {"note": 0, "velocity": 0, "duration": 82}, {"note": 69, "velocity": 102, "duration": 141}, {"note": 0, "velocity": 0, "duration": 99}, {"note": 62, "velocity": 102, "duration": 571}, {"note": 65, "velocity": 100, "duration": 563}, {"note": 0, "velocity": 0, "duration": 157}, {"note": 65, "velocity": 102, "duration": 169}, {"note": 0, "velocity": 0, "duration": 71}, {"note": 67, "velocity": 100, "duration": 165}, {"note": 0, "velocity": 0, "duration": 75}, {"note": 69, "velocity": 102, "duration": 169}, {"note": 0, "velocity": 0, "duration": 71}, {"note": 70, "velocity": 112, "duration": 376}, {"note": 69, "velocity": 99, "duration": 137}, {"note": 67, "velocity": 102, "duration": 502}, {"note": 0, "velocity": 0, "duration": 218}, {"note": 69, "velocity": 102, "duration": 320}, {"note": 0, "velocity": 0, "duration": 160}, {"note": 67, "velocity": 107, "duration": 136}, {"note": 65, "velocity": 72, "duration": 749}, {"note": 0, "velocity": 0, "duration": 8131}, {"note": 60, "velocity": 74, "duration": 119}, {"note": 69, "velocity": 92, "duration": 238}, {"note": 67, "velocity": 54, "duration": 74}, {"note": 67, "velocity": 89, "duration": 356}, {"note": 65, "velocity": 69, "duration": 60}, {"note": 65, "velocity": 79, "duration": 773}, {"note": 0, "velocity": 0, "duration": 187}, {"note": 60, "velocity": 82, "duration": 115}, {"note": 69, "velocity": 86, "duration": 216}, {"note": 67, "velocity": 44, "duration": 55}, {"note": 0, "velocity": 0, "duration": 65}, {"note": 67, "velocity": 95, "duration": 353}, {"note": 65, "velocity": 73, "duration": 55}, {"note": 0, "velocity": 0, "duration": 65}, {"note": 65, "velocity": 86, "duration": 688}, {"note": 0, "velocity": 0, "duration": 272}, {"note": 60, "velocity": 75, "duration": 125}, {"note": 69, "velocity": 95, "duration": 212}, {"note": 67, "velocity": 74, "duration": 63}, {"note": 67, "velocity": 88, "duration": 297}, {"note": 0, "velocity": 0, "duration": 63}, {"note": 65, "velocity": 56, "duration": 41}, {"note": 0, "velocity": 0, "duration": 79}, {"note": 70, "velocity": 112, "duration": 156}, {"note": 0, "velocity": 0, "duration": 84}, {"note": 69, "velocity": 99, "duration": 541}, {"note": 0, "velocity": 0, "duration": 179}, {"note": 65, "velocity": 81, "duration": 79}, {"note": 72, "velocity": 85, "duration": 190}, {"note": 69, "velocity": 99, "duration": 63}, {"note": 67, "velocity": 88, "duration": 145}, {"note": 0, "velocity": 0, "duration": 95}, {"note": 65, "velocity": 90, "duration": 695}, {"note": 62, "velocity": 86, "duration": 680}, {"note": 72, "velocity": 102, "duration": 200}, {"note": 69, "velocity": 83, "duration": 58}, {"note": 0, "velocity": 0, "duration": 62}, {"note": 67, "velocity": 82, "duration": 151}, {"note": 0, "velocity": 0, "duration": 209}, {"note": 65, "velocity": 92, "duration": 101}, {"note": 65, "velocity": 89, "duration": 827}, {"note": 0, "velocity": 0, "duration": 253}, {"note": 72, "velocity": 107, "duration": 163}, {"note": 0, "velocity": 0, "duration": 77}, {"note": 69, "velocity": 89, "duration": 60}, {"note": 67, "velocity": 85, "duration": 145}, {"note": 0, "velocity": 0, "duration": 95}, {"note": 65, "velocity": 89, "duration": 256}, {"note": 0, "velocity": 0, "duration": 344}, {"note": 62, "velocity": 77, "duration": 134}, {"note": 60, "velocity": 77, "duration": 617}, {"note": 0, "velocity": 0, "duration": 583}, {"note": 60, "velocity": 96, "duration": 123}, {"note": 65, "velocity": 81, "duration": 149}, {"note": 67, "velocity": 90, "duration": 141}, {"note": 69, "velocity": 95, "duration": 206}, {"note": 69, "velocity": 86, "duration": 46}, {"note": 0, "velocity": 0, "duration": 74}, {"note": 69, "velocity": 122, "duration": 278}, {"note": 70, "velocity": 95, "duration": 158}, {"note": 0, "velocity": 0, "duration": 82}, {"note": 69, "velocity": 90, "duration": 252}, {"note": 67, "velocity": 79, "duration": 432}, {"note": 0, "velocity": 0, "duration": 168}, {"note": 67, "velocity": 92, "duration": 85}, {"note": 69, "velocity": 95, "duration": 55}, {"note": 0, "velocity": 0, "duration": 65}, {"note": 70, "velocity": 112, "duration": 188}, {"note": 69, "velocity": 85, "duration": 45}, {"note": 0, "velocity": 0, "duration": 75}, {"note": 67, "velocity": 89, "duration": 303}, {"note": 0, "velocity": 0, "duration": 177}, {"note": 65, "velocity": 77, "duration": 48}, {"note": 0, "velocity": 0, "duration": 72}, {"note": 65, "velocity": 79, "duration": 113}, {"note": 69, "velocity": 82, "duration": 219}, {"note": 67, "velocity": 90, "duration": 882}, {"note": 0, "velocity": 0, "duration": 678}, {"note": 67, "velocity": 102, "duration": 158}, {"note": 0, "velocity": 0, "duration": 82}, {"note": 65, "velocity": 82, "duration": 64}, {"note": 67, "velocity": 90, "duration": 331}, {"note": 65, "velocity": 93, "duration": 62}, {"note": 65, "velocity": 85, "duration": 1935}, {"note": 0, "velocity": 0, "duration": 1065}, {"note": 65, "velocity": 96, "duration": 214}, {"note": 67, "velocity": 112, "duration": 202}, {"note": 69, "velocity": 97, "duration": 284}, {"note": 72, "velocity": 97, "duration": 190}, {"note": 74, "velocity": 102, "duration": 177}, {"note": 0, "velocity": 0, "duration": 63}, {"note": 72, "velocity": 102, "duration": 194}, {"note": 69, "velocity": 99, "duration": 187}, {"note": 74, "velocity": 107, "duration": 314}, {"note": 0, "velocity": 0, "duration": 166}, {"note": 72, "velocity": 100, "duration": 202}, {"note": 69, "velocity": 100, "duration": 176}, {"note": 0, "velocity": 0, "duration": 64}, {"note": 74, "velocity": 127, "duration": 472}, {"note": 72, "velocity": 85, "duration": 639}, {"note": 0, "velocity": 0, "duration": 81}, {"note": 74, "velocity": 127, "duration": 146}, {"note": 0, "velocity": 0, "duration": 94}, {"note": 72, "velocity": 112, "duration": 130}, {"note": 0, "velocity": 0, "duration": 110}, {"note": 77, "velocity": 127, "duration": 171}, {"note": 0, "velocity": 0, "duration": 69}, {"note": 69, "velocity": 117, "duration": 494}, {"note": 67, "velocity": 107, "duration": 212}, {"note": 72, "velocity": 102, "duration": 203}, {"note": 69, "velocity": 100, "duration": 600}, {"note": 67, "velocity": 97, "duration": 150}, {"note": 0, "velocity": 0, "duration": 90}, {"note": 72, "velocity": 112, "duration": 152}, {"note": 0, "velocity": 0, "duration": 88}, {"note": 69, "velocity": 122, "duration": 483}, {"note": 0, "velocity": 0, "duration": 717}, {"note": 65, "velocity": 107, "duration": 167}, {"note": 0, "velocity": 0, "duration": 73}, {"note": 67, "velocity": 122, "duration": 177}, {"note": 0, "velocity": 0, "duration": 63}, {"note": 69, "velocity": 96, "duration": 201}, {"note": 72, "velocity": 112, "duration": 174}, {"note": 0, "velocity": 0, "duration": 66}, {"note": 74, "velocity": 127, "duration": 373}, {"note": 72, "velocity": 117, "duration": 153}, {"note": 0, "velocity": 0, "duration": 87}, {"note": 69, "velocity": 100, "duration": 162}, {"note": 0, "velocity": 0, "duration": 78}, {"note": 74, "velocity": 122, "duration": 304}, {"note": 0, "velocity": 0, "duration": 176}, {"note": 72, "velocity": 100, "duration": 154}, {"note": 0, "velocity": 0, "duration": 86}, {"note": 69, "velocity": 107, "duration": 177}, {"note": 0, "velocity": 0, "duration": 63}, {"note": 73, "velocity": 127, "duration": 504}, {"note": 72, "velocity": 117, "duration": 225}, {"note": 70, "velocity": 112, "duration": 185}, {"note": 70, "velocity": 127, "duration": 336}, {"note": 0, "velocity": 0, "duration": 144}, {"note": 77, "velocity": 112, "duration": 186}, {"note": 79, "velocity": 117, "duration": 154}, {"note": 0, "velocity": 0, "duration": 86}, {"note": 77, "velocity": 99, "duration": 432}, {"note": 72, "velocity": 92, "duration": 352}, {"note": 0, "velocity": 0, "duration": 128}, {"note": 72, "velocity": 122, "duration": 439}, {"note": 69, "velocity": 117, "duration": 308}, {"note": 67, "velocity": 88, "duration": 83}, {"note": 65, "velocity": 99, "duration": 528}, {"note": 0, "velocity": 0, "duration": 672}, {"note": 65, "velocity": 102, "duration": 155}, {"note": 0, "velocity": 0, "duration": 85}, {"note": 67, "velocity": 93, "duration": 158}, {"note": 0, "velocity": 0, "duration": 82}, {"note": 69, "velocity": 102, "duration": 141}, {"note": 0, "velocity": 0, "duration": 99}, {"note": 62, "velocity": 102, "duration": 571}, {"note": 65, "velocity": 100, "duration": 563}, {"note": 0, "velocity": 0, "duration": 157}, {"note": 65, "velocity": 102, "duration": 169}, {"note": 0, "velocity": 0, "duration": 71}, {"note": 67, "velocity": 100, "duration": 165}, {"note": 0, "velocity": 0, "duration": 75}, {"note": 69, "velocity": 102, "duration": 169}, {"note": 0, "velocity": 0, "duration": 71}, {"note": 70, "velocity": 112, "duration": 376}, {"note": 69, "velocity": 99, "duration": 137}, {"note": 67, "velocity": 102, "duration": 502}, {"note": 0, "velocity": 0, "duration": 218}, {"note": 69, "velocity": 102, "duration": 320}, {"note": 72, "velocity": 102, "duration": 182}, {"note": 67, "velocity": 107, "duration": 136}, {"note": 0, "velocity": 0, "duration": 104}, {"note": 65, "velocity": 99, "duration": 49}, {"note": 0, "velocity": 0, "duration": 71}, {"note": 65, "velocity": 100, "duration": 1444}, {"note": 0, "velocity": 0, "duration": 16916}, {"note": 65, "velocity": 96, "duration": 214}, {"note": 67, "velocity": 112, "duration": 202}, {"note": 69, "velocity": 97, "duration": 284}, {"note": 72, "velocity": 97, "duration": 190}, {"note": 74, "velocity": 102, "duration": 177}, {"note": 0, "velocity": 0, "duration": 63}, {"note": 72, "velocity": 102, "duration": 194}, {"note": 69, "velocity": 99, "duration": 187}, {"note": 74, "velocity": 107, "duration": 314}, {"note": 0, "velocity": 0, "duration": 166}, {"note": 72, "velocity": 100, "duration": 202}, {"note": 69, "velocity": 100, "duration": 176}, {"note": 0, "velocity": 0, "duration": 64}, {"note": 74, "velocity": 127, "duration": 472}, {"note": 72, "velocity": 85, "duration": 639}, {"note": 0, "velocity": 0, "duration": 81}, {"note": 74, "velocity": 127, "duration": 146}, {"note": 0, "velocity": 0, "duration": 94}, {"note": 72, "velocity": 112, "duration": 130}, {"note": 0, "velocity": 0, "duration": 110}, {"note": 77, "velocity": 127, "duration": 171}, {"note": 0, "velocity": 0, "duration": 69}, {"note": 69, "velocity": 117, "duration": 494}, {"note": 67, "velocity": 107, "duration": 212}, {"note": 72, "velocity": 102, "duration": 203}, {"note": 69, "velocity": 100, "duration": 600}, {"note": 67, "velocity": 97, "duration": 150}, {"note": 0, "velocity": 0, "duration": 90}, {"note": 72, "velocity": 112, "duration": 152}, {"note": 0, "velocity": 0, "duration": 88}, {"note": 69, "velocity": 122, "duration": 483}, {"note": 0, "velocity": 0, "duration": 717}, {"note": 65, "velocity": 107, "duration": 167}, {"note": 0, "velocity": 0, "duration": 73}, {"note": 67, "velocity": 122, "duration": 177}, {"note": 0, "velocity": 0, "duration": 63}, {"note": 69, "velocity": 96, "duration": 201}, {"note": 72, "velocity": 112, "duration": 174}, {"note": 0, "velocity": 0, "duration": 66}, {"note": 74, "velocity": 127, "duration": 373}, {"note": 72, "velocity": 117, "duration": 153}, {"note": 0, "velocity": 0, "duration": 87}, {"note": 69, "velocity": 100, "duration": 162}, {"note": 0, "velocity": 0, "duration": 78}, {"note": 74, "velocity": 122, "duration": 304}, {"note": 0, "velocity": 0, "duration": 176}, {"note": 72, "velocity": 100, "duration": 154}, {"note": 0, "velocity": 0, "duration": 86}, {"note": 69, "velocity": 107, "duration": 177}, {"note": 0, "velocity": 0, "duration": 63}, {"note": 73, "velocity": 127, "duration": 504}, {"note": 72, "velocity": 117, "duration": 225}, {"note": 70, "velocity": 112, "duration": 185}, {"note": 70, "velocity": 127, "duration": 336}, {"note": 0, "velocity": 0, "duration": 144}, {"note": 77, "velocity": 112, "duration": 186}, {"note": 79, "velocity": 117, "duration": 154}, {"note": 0, "velocity": 0, "duration": 86}, {"note": 77, "velocity": 99, "duration": 432}, {"note": 72, "velocity": 92, "duration": 352}, {"note": 0, "velocity": 0, "duration": 128}, {"note": 72, "velocity": 122, "duration": 439}, {"note": 77, "velocity": 127, "duration": 174}, {"note": 0, "velocity": 0, "duration": 66}, {"note": 79, "velocity": 99, "duration": 146}, {"note": 0, "velocity": 0, "duration": 94}, {"note": 81, "velocity": 117, "duration": 284}, {"note": 0, "velocity": 0, "duration": 196}, {"note": 77, "velocity": 122, "duration": 289}, {"note": 0, "velocity": 0, "duration": 191}, {"note": 77, "velocity": 117, "duration": 167}, {"note": 0, "velocity": 0, "duration": 73}, {"note": 77, "velocity": 122, "duration": 163}, {"note": 0, "velocity": 0, "duration": 77}, {"note": 76, "velocity": 127, "duration": 169}, {"note": 0, "velocity": 0, "duration": 71}, {"note": 74, "velocity": 127, "duration": 182}, {"note": 72, "velocity": 112, "duration": 153}, {"note": 0, "velocity": 0, "duration": 87}, {"note": 74, "velocity": 127, "duration": 251}, {"note": 72, "velocity": 122, "duration": 200}, {"note": 69, "velocity": 107, "duration": 207}, {"note": 74, "velocity": 127, "duration": 327}, {"note": 0, "velocity": 0, "duration": 153}, {"note": 72, "velocity": 112, "duration": 149}, {"note": 0, "velocity": 0, "duration": 91}, {"note": 69, "velocity": 107, "duration": 162}, {"note": 0, "velocity": 0, "duration": 78}, {"note": 74, "velocity": 127, "duration": 382}, {"note": 0, "velocity": 0, "duration": 98}, {"note": 72, "velocity": 117, "duration": 408}, {"note": 0, "velocity": 0, "duration": 312}, {"note": 74, "velocity": 127, "duration": 164}, {"note": 0, "velocity": 0, "duration": 76}, {"note": 72, "velocity": 95, "duration": 150}, {"note": 0, "velocity": 0, "duration": 90}, {"note": 77, "velocity": 117, "duration": 145}, {"note": 0, "velocity": 0, "duration": 95}, {"note": 69, "velocity": 107, "duration": 543}, {"note": 67, "velocity": 97, "duration": 157}, {"note": 0, "velocity": 0, "duration": 83}, {"note": 72, "velocity": 122, "duration": 181}, {"note": 69, "velocity": 117, "duration": 321}, {"note": 0, "velocity": 0, "duration": 159}, {"note": 67, "velocity": 100, "duration": 143}, {"note": 0, "velocity": 0, "duration": 97}, {"note": 67, "velocity": 112, "duration": 171}, {"note": 0, "velocity": 0, "duration": 69}, {"note": 65, "velocity": 112, "duration": 345}, {"note": 0, "velocity": 0, "duration": 855}, {"note": 65, "velocity": 100, "duration": 151}, {"note": 0, "velocity": 0, "duration": 89}, {"note": 67, "velocity": 112, "duration": 143}, {"note": 0, "velocity": 0, "duration": 97}, {"note": 69, "velocity": 107, "duration": 153}, {"note": 0, "velocity": 0, "duration": 87}, {"note": 62, "velocity": 100, "duration": 352}, {"note": 0, "velocity": 0, "duration": 128}, {"note": 65, "velocity": 99, "duration": 603}, {"note": 0, "velocity": 0, "duration": 117}, {"note": 65, "velocity": 99, "duration": 145}, {"note": 0, "velocity": 0, "duration": 95}, {"note": 67, "velocity": 107, "duration": 175}, {"note": 0, "velocity": 0, "duration": 65}, {"note": 69, "velocity": 95, "duration": 165}, {"note": 0, "velocity": 0, "duration": 75}, {"note": 70, "velocity": 112, "duration": 252}, {"note": 69, "velocity": 92, "duration": 229}, {"note": 67, "velocity": 82, "duration": 689}, {"note": 0, "velocity": 0, "duration": 151}, {"note": 69, "velocity": 112, "duration": 150}, {"note": 0, "velocity": 0, "duration": 90}, {"note": 72, "velocity": 79, "duration": 130}, {"note": 0, "velocity": 0, "duration": 110}, {"note": 67, "velocity": 90, "duration": 141}, {"note": 65, "velocity": 86, "duration": 1662}]]