[[{"note": 71, "velocity": 117, "duration": 232}, {"note": 66, "velocity": 107, "duration": 183}, {"note": 69, "velocity": 113, "duration": 149}, {"note": 0, "velocity": 0, "duration": 91}, {"note": 71, "velocity": 116, "duration": 153}, {"note": 0, "velocity": 0, "duration": 87}, {"note": 71, "velocity": 114, "duration": 232}, {"note": 0, "velocity": 0, "duration": 488}, {"note": 69, "velocity": 116, "duration": 186}, {"note": 71, "velocity": 113, "duration": 143}, {"note": 0, "velocity": 0, "duration": 97}, {"note": 74, "velocity": 116, "duration": 195}, {"note": 73, "velocity": 119, "duration": 173}, {"note": 0, "velocity": 0, "duration": 67}, {"note": 69, "velocity": 113, "duration": 154}, {"note": 0, "velocity": 0, "duration": 86}, {"note": 71, "velocity": 117, "duration": 262}, {"note": 0, "velocity": 0, "duration": 698}, {"note": 66, "velocity": 113, "duration": 244}, {"note": 69, "velocity": 100, "duration": 208}, {"note": 71, "velocity": 108, "duration": 204}, {"note": 74, "velocity": 100, "duration": 233}, {"note": 73, "velocity": 110, "duration": 221}, {"note": 0, "velocity": 0, "duration": 259}, {"note": 69, "velocity": 116, "duration": 202}, {"note": 64, "velocity": 108, "duration": 201}, {"note": 66, "velocity": 96, "duration": 375}, {"note": 0, "velocity": 0, "duration": 1545}, {"note": 71, "velocity": 116, "duration": 222}, {"note": 66, "velocity": 110, "duration": 217}, {"note": 71, "velocity": 113, "duration": 160}, {"note": 0, "velocity": 0, "duration": 80}, {"note": 78, "velocity": 108, "duration": 214}, {"note": 76, "velocity": 117, "duration": 291}, {"note": 0, "velocity": 0, "duration": 669}, {"note": 76, "velocity": 113, "duration": 242}, {"note": 74, "velocity": 108, "duration": 228}, {"note": 76, "velocity": 113, "duration": 205}, {"note": 78, "velocity": 110, "duration": 214}, {"note": 74, "velocity": 113, "duration": 342}, {"note": 0, "velocity": 0, "duration": 618}, {"note": 66, "velocity": 114, "duration": 193}, {"note": 69, "velocity": 100, "duration": 238}, {"note": 71, "velocity": 108, "duration": 196}, {"note": 74, "velocity": 114, "duration": 217}, {"note": 73, "velocity": 117, "duration": 248}, {"note": 0, "velocity": 0, "duration": 232}, {"note": 74, "velocity": 116, "duration": 179}, {"note": 0, "velocity": 0, "duration": 61}, {"note": 73, "velocity": 113, "duration": 337}, {"note": 0, "velocity": 0, "duration": 143}, {"note": 71, "velocity": 114, "duration": 216}, {"note": 0, "velocity": 0, "duration": 1464}, {"note": 71, "velocity": 117, "duration": 232}, {"note": 66, "velocity": 107, "duration": 183}, {"note": 69, "velocity": 113, "duration": 149}, {"note": 0, "velocity": 0, "duration": 91}, {"note": 71, "velocity": 116, "duration": 153}, {"note": 0, "velocity": 0, "duration": 87}, {"note": 71, "velocity": 114, "duration": 232}, {"note": 0, "velocity": 0, "duration": 488}, {"note": 69, "velocity": 116, "duration": 186}, {"note": 71, "velocity": 113, "duration": 143}, {"note": 0, "velocity": 0, "duration": 97}, {"note": 74, "velocity": 116, "duration": 195}, {"note": 73, "velocity": 119, "duration": 173}, {"note": 0, "velocity": 0, "duration": 67}, {"note": 69, "velocity": 113, "duration": 154}, {"note": 0, "velocity": 0, "duration": 86}, {"note": 71, "velocity": 117, "duration": 262}, {"note": 0, "velocity": 0, "duration": 698}, {"note": 66, "velocity": 113, "duration": 244}, {"note": 69, "velocity": 100, "duration": 208}, {"note": 71, "velocity": 108, "duration": 204}, {"note": 74, "velocity": 100, "duration": 233}, {"note": 73, "velocity": 110, "duration": 221}, {"note": 0, "velocity": 0, "duration": 259}, {"note": 69, "velocity": 116, "duration": 202}, {"note": 64, "velocity": 108, "duration": 201}, {"note": 66, "velocity": 96, "duration": 375}, {"note": 0, "velocity": 0, "duration": 1545}, {"note": 71, "velocity": 116, "duration": 222}, {"note": 66, "velocity": 110, "duration": 217}, {"note": 71, "velocity": 113, "duration": 160}, {"note": 0, "velocity": 0, "duration": 80}, {"note": 78, "velocity": 108, "duration": 214}, {"note": 76, "velocity": 117, "duration": 291}, {"note": 0, "velocity": 0, "duration": 669}, {"note": 76, "velocity": 113, "duration": 242}, {"note": 74, "velocity": 108, "duration": 228}, {"note": 76, "velocity": 113, "duration": 205}, {"note": 78, "velocity": 110, "duration": 214}, {"note": 74, "velocity": 113, "duration": 342}, {"note": 0, "velocity": 0, "duration": 618}, {"note": 66, "velocity": 114, "duration": 193}, {"note": 69, "velocity": 100, "duration": 238}, {"note": 71, "velocity": 108, "duration": 196}, {"note": 74, "velocity": 114, "duration": 217}, {"note": 73, "velocity": 117, "duration": 248}, {"note": 0, "velocity": 0, "duration": 232}, {"note": 74, "velocity": 116, "duration": 179}, {"note": 0, "velocity": 0, "duration": 61}, {"note": 73, "velocity": 113, "duration": 337}, {"note": 0, "velocity": 0, "duration": 143}, {"note": 71, "velocity": 114, "duration": 216}, {"note": 0, "velocity": 0, "duration": 984}, {"note": 74, "velocity": 110, "duration": 140}, {"note": 0, "velocity": 0, "duration": 100}, {"note": 76, "velocity": 110, "duration": 150}, {"note": 0, "velocity": 0, "duration": 90}, {"note": 78, "velocity": 117, "duration": 342}, {"note": 0, "velocity": 0, "duration": 138}, {"note": 78, "velocity": 117, "duration": 164}, {"note": 0, "velocity": 0, "duration": 76}, {"note": 81, "velocity": 116, "duration": 154}, {"note": 0, "velocity": 0, "duration": 86}, {"note": 76, "velocity": 117, "duration": 281}, {"note": 0, "velocity": 0, "duration": 439}, {"note": 74, "velocity": 114, "duration": 150}, {"note": 0, "velocity": 0, "duration": 90}, {"note": 76, "velocity": 117, "duration": 294}, {"note": 0, "velocity": 0, "duration": 186}, {"note": 76, "velocity": 117, "duration": 169}, {"note": 0, "velocity": 0, "duration": 71}, {"note": 78, "velocity": 116, "duration": 164}, {"note": 0, "velocity": 0, "duration": 76}, {"note": 71, "velocity": 119, "duration": 273}, {"note": 0, "velocity": 0, "duration": 447}, {"note": 71, "velocity": 117, "duration": 139}, {"note": 0, "velocity": 0, "duration": 101}, {"note": 76, "velocity": 119, "duration": 116}, {"note": 0, "velocity": 0, "duration": 124}, {"note": 76, "velocity": 117, "duration": 122}, {"note": 0, "velocity": 0, "duration": 118}, {"note": 76, "velocity": 117, "duration": 135}, {"note": 0, "velocity": 0, "duration": 105}, {"note": 78, "velocity": 117, "duration": 147}, {"note": 0, "velocity": 0, "duration": 93}, {"note": 74, "velocity": 119, "duration": 200}, {"note": 76, "velocity": 107, "duration": 185}, {"note": 81, "velocity": 110, "duration": 217}, {"note": 76, "velocity": 116, "duration": 152}, {"note": 0, "velocity": 0, "duration": 88}, {"note": 78, "velocity": 116, "duration": 254}, {"note": 0, "velocity": 0, "duration": 1186}, {"note": 78, "velocity": 107, "duration": 179}, {"note": 0, "velocity": 0, "duration": 61}, {"note": 81, "velocity": 114, "duration": 148}, {"note": 0, "velocity": 0, "duration": 92}, {"note": 83, "velocity": 117, "duration": 338}, {"note": 0, "velocity": 0, "duration": 142}, {"note": 83, "velocity": 117, "duration": 205}, {"note": 81, "velocity": 116, "duration": 220}, {"note": 76, "velocity": 116, "duration": 239}, {"note": 0, "velocity": 0, "duration": 481}, {"note": 74, "velocity": 114, "duration": 207}, {"note": 76, "velocity": 113, "duration": 300}, {"note": 0, "velocity": 0, "duration": 180}, {"note": 81, "velocity": 116, "duration": 306}, {"note": 0, "velocity": 0, "duration": 174}, {"note": 78, "velocity": 116, "duration": 270}, {"note": 0, "velocity": 0, "duration": 210}, {"note": 71, "velocity": 117, "duration": 175}, {"note": 0, "velocity": 0, "duration": 65}, {"note": 73, "velocity": 116, "duration": 151}, {"note": 0, "velocity": 0, "duration": 89}, {"note": 74, "velocity": 117, "duration": 320}, {"note": 73, "velocity": 116, "duration": 181}, {"note": 74, "velocity": 110, "duration": 152}, {"note": 0, "velocity": 0, "duration": 88}, {"note": 78, "velocity": 117, "duration": 132}, {"note": 0, "velocity": 0, "duration": 108}, {"note": 73, "velocity": 117, "duration": 249}, {"note": 0, "velocity": 0, "duration": 231}, {"note": 73, "velocity": 117, "duration": 191}, {"note": 66, "velocity": 116, "duration": 101}, {"note": 0, "velocity": 0, "duration": 139}, {"note": 76, "velocity": 119, "duration": 254}, {"note": 0, "velocity": 0, "duration": 226}, {"note": 74, "velocity": 116, "duration": 204}, {"note": 73, "velocity": 116, "duration": 215}, {"note": 71, "velocity": 117, "duration": 238}, {"note": 0, "velocity": 0, "duration": 242}, {"note": 74, "velocity": 110, "duration": 140}, {"note": 0, "velocity": 0, "duration": 100}, {"note": 76, "velocity": 110, "duration": 150}, {"note": 0, "velocity": 0, "duration": 90}, {"note": 78, "velocity": 117, "duration": 342}, {"note": 0, "velocity": 0, "duration": 138}, {"note": 78, "velocity": 117, "duration": 164}, {"note": 0, "velocity": 0, "duration": 76}, {"note": 81, "velocity": 116, "duration": 154}, {"note": 0, "velocity": 0, "duration": 86}, {"note": 76, "velocity": 117, "duration": 281}, {"note": 0, "velocity": 0, "duration": 439}, {"note": 74, "velocity": 114, "duration": 150}, {"note": 0, "velocity": 0, "duration": 90}, {"note": 76, "velocity": 117, "duration": 294}, {"note": 0, "velocity": 0, "duration": 186}, {"note": 76, "velocity": 117, "duration": 169}, {"note": 0, "velocity": 0, "duration": 71}, {"note": 78, "velocity": 116, "duration": 164}, {"note": 0, "velocity": 0, "duration": 76}, {"note": 71, "velocity": 119, "duration": 273}, {"note": 0, "velocity": 0, "duration": 447}, {"note": 71, "velocity": 117, "duration": 139}, {"note": 0, "velocity": 0, "duration": 101}, {"note": 76, "velocity": 119, "duration": 116}, {"note": 0, "velocity": 0, "duration": 124}, {"note": 76, "velocity": 117, "duration": 122}, {"note": 0, "velocity": 0, "duration": 118}, {"note": 76, "velocity": 117, "duration": 135}, {"note": 0, "velocity": 0, "duration": 105}, {"note": 78, "velocity": 117, "duration": 147}, {"note": 0, "velocity": 0, "duration": 93}, {"note": 74, "velocity": 119, "duration": 200}, {"note": 76, "velocity": 107, "duration": 185}, {"note": 81, "velocity": 110, "duration": 217}, {"note": 76, "velocity": 116, "duration": 152}, {"note": 0, "velocity": 0, "duration": 88}, {"note": 78, "velocity": 116, "duration": 254}, {"note": 0, "velocity": 0, "duration": 1186}, {"note": 78, "velocity": 107, "duration": 179}, {"note": 0, "velocity": 0, "duration": 61}, {"note": 81, "velocity": 114, "duration": 148}, {"note": 0, "velocity": 0, "duration": 92}, {"note": 83, "velocity": 117, "duration": 338}, {"note": 0, "velocity": 0, "duration": 142}, {"note": 83, "velocity": 117, "duration": 205}, {"note": 81, "velocity": 116, "duration": 220}, {"note": 76, "velocity": 116, "duration": 239}, {"note": 0, "velocity": 0, "duration": 481}, {"note": 74, "velocity": 114, "duration": 207}, {"note": 76, "velocity": 113, "duration": 300}, {"note": 0, "velocity": 0, "duration": 180}, {"note": 81, "velocity": 116, "duration": 306}, {"note": 0, "velocity": 0, "duration": 174}, {"note": 78, "velocity": 116, "duration": 270}, {"note": 0, "velocity": 0, "duration": 210}, {"note": 71, "velocity": 117, "duration": 175}, {"note": 0, "velocity": 0, "duration": 65}, {"note": 73, "velocity": 116, "duration": 151}, {"note": 0, "velocity": 0, "duration": 89}, {"note": 74, "velocity": 117, "duration": 320}, {"note": 73, "velocity": 116, "duration": 181}, {"note": 74, "velocity": 110, "duration": 152}, {"note": 0, "velocity": 0, "duration": 88}, {"note": 78, "velocity": 117, "duration": 132}, {"note": 0, "velocity": 0, "duration": 108}, {"note": 73, "velocity": 117, "duration": 249}, {"note": 0, "velocity": 0, "duration": 231}, {"note": 73, "velocity": 117, "duration": 191}, {"note": 66, "velocity": 116, "duration": 101}, {"note": 0, "velocity": 0, "duration": 139}, {"note": 76, "velocity": 119, "duration": 254}, {"note": 0, "velocity": 0, "duration": 226}, {"note": 74, "velocity": 116, "duration": 204}, {"note": 73, "velocity": 116, "duration": 215}, {"note": 71, "velocity": 117, "duration": 238}, {"note": 0, "velocity": 0, "duration": 18002}, {"note": 71, "velocity": 117, "duration": 232}, {"note": 66, "velocity": 107, "duration": 183}, {"note": 69, "velocity": 113, "duration": 149}, {"note": 0, "velocity": 0, "duration": 91}, {"note": 71, "velocity": 116, "duration": 153}, {"note": 0, "velocity": 0, "duration": 87}, {"note": 71, "velocity": 114, "duration": 232}, {"note": 0, "velocity": 0, "duration": 488}, {"note": 69, "velocity": 116, "duration": 186}, {"note": 71, "velocity": 113, "duration": 143}, {"note": 0, "velocity": 0, "duration": 97}, {"note": 74, "velocity": 116, "duration": 195}, {"note": 73, "velocity": 119, "duration": 173}, {"note": 0, "velocity": 0, "duration": 67}, {"note": 69, "velocity": 113, "duration": 154}, {"note": 0, "velocity": 0, "duration": 86}, {"note": 71, "velocity": 117, "duration": 262}, {"note": 0, "velocity": 0, "duration": 698}, {"note": 66, "velocity": 113, "duration": 244}, {"note": 69, "velocity": 100, "duration": 208}, {"note": 71, "velocity": 108, "duration": 204}, {"note": 74, "velocity": 100, "duration": 233}, {"note": 73, "velocity": 110, "duration": 221}, {"note": 0, "velocity": 0, "duration": 259}, {"note": 69, "velocity": 116, "duration": 202}, {"note": 64, "velocity": 108, "duration": 201}, {"note": 66, "velocity": 96, "duration": 375}, {"note": 0, "velocity": 0, "duration": 1545}, {"note": 71, "velocity": 116, "duration": 222}, {"note": 66, "velocity": 110, "duration": 217}, {"note": 71, "velocity": 113, "duration": 160}, {"note": 0, "velocity": 0, "duration": 80}, {"note": 78, "velocity": 108, "duration": 214}, {"note": 76, "velocity": 117, "duration": 291}, {"note": 0, "velocity": 0, "duration": 669}, {"note": 76, "velocity": 113, "duration": 242}, {"note": 74, "velocity": 108, "duration": 228}, {"note": 76, "velocity": 113, "duration": 205}, {"note": 78, "velocity": 110, "duration": 214}, {"note": 74, "velocity": 113, "duration": 342}, {"note": 0, "velocity": 0, "duration": 618}, {"note": 66, "velocity": 114, "duration": 193}, {"note": 69, "velocity": 100, "duration": 238}, {"note": 71, "velocity": 108, "duration": 196}, {"note": 74, "velocity": 114, "duration": 217}, {"note": 73, "velocity": 117, "duration": 248}, {"note": 0, "velocity": 0, "duration": 232}, {"note": 74, "velocity": 116, "duration": 179}, {"note": 0, "velocity": 0, "duration": 61}, {"note": 73, "velocity": 113, "duration": 337}, {"note": 0, "velocity": 0, "duration": 143}, {"note": 71, "velocity": 114, "duration": 216}, {"note": 0, "velocity": 0, "duration": 984}, {"note": 74, "velocity": 110, "duration": 140}, {"note": 0, "velocity": 0, "duration": 100}, {"note": 76, "velocity": 110, "duration": 150}, {"note": 0, "velocity": 0, "duration": 90}, {"note": 78, "velocity": 117, "duration": 342}, {"note": 0, "velocity": 0, "duration": 138}, {"note": 78, "velocity": 117, "duration": 164}, {"note": 0, "velocity": 0, "duration": 76}, {"note": 81, "velocity": 116, "duration": 154}, {"note": 0, "velocity": 0, "duration": 86}, {"note": 76, "velocity": 117, "duration": 281}, {"note": 0, "velocity": 0, "duration": 439}, {"note": 74, "velocity": 114, "duration": 150}, {"note": 0, "velocity": 0, "duration": 90}, {"note": 76, "velocity": 117, "duration": 294}, {"note": 0, "velocity": 0, "duration": 186}, {"note": 76, "velocity": 117, "duration": 169}, {"note": 0, "velocity": 0, "duration": 71}, {"note": 78, "velocity": 116, "duration": 164}, {"note": 0, "velocity": 0, "duration": 76}, {"note": 71, "velocity": 119, "duration": 273}, {"note": 0, "velocity": 0, "duration": 447}, {"note": 71, "velocity": 117, "duration": 139}, {"note": 0, "velocity": 0, "duration": 101}, {"note": 76, "velocity": 119, "duration": 116}, {"note": 0, "velocity": 0, "duration": 124}, {"note": 76, "velocity": 117, "duration": 122}, {"note": 0, "velocity": 0, "duration": 118}, {"note": 76, "velocity": 117, "duration": 135}, {"note": 0, "velocity": 0, "duration": 105}, {"note": 78, "velocity": 117, "duration": 147}, {"note": 0, "velocity": 0, "duration": 93}, {"note": 74, "velocity": 119, "duration": 200}, {"note": 76, "velocity": 107, "duration": 185}, {"note": 81, "velocity": 110, "duration": 217}, {"note": 76, "velocity": 116, "duration": 152}, {"note": 0, "velocity": 0, "duration": 88}, {"note": 78, "velocity": 116, "duration": 254}, {"note": 0, "velocity": 0, "duration": 1186}, {"note": 78, "velocity": 107, "duration": 179}, {"note": 0, "velocity": 0, "duration": 61}, {"note": 81, "velocity": 114, "duration": 148}, {"note": 0, "velocity": 0, "duration": 92}, {"note": 83, "velocity": 117, "duration": 338}, {"note": 0, "velocity": 0, "duration": 142}, {"note": 83, "velocity": 117, "duration": 205}, {"note": 81, "velocity": 116, "duration": 220}, {"note": 76, "velocity": 116, "duration": 239}, {"note": 0, "velocity": 0, "duration": 481}, {"note": 74, "velocity": 114, "duration": 207}, {"note": 76, "velocity": 113, "duration": 300}, {"note": 0, "velocity": 0, "duration": 180}, {"note": 81, "velocity": 116, "duration": 306}, {"note": 0, "velocity": 0, "duration": 174}, {"note": 78, "velocity": 116, "duration": 270}, {"note": 0, "velocity": 0, "duration": 210}, {"note": 71, "velocity": 117, "duration": 175}, {"note": 0, "velocity": 0, "duration": 65}, {"note": 73, "velocity": 116, "duration": 151}, {"note": 0, "velocity": 0, "duration": 89}, {"note": 74, "velocity": 117, "duration": 320}, {"note": 73, "velocity": 116, "duration": 181}, {"note": 74, "velocity": 110, "duration": 152}, {"note": 0, "velocity": 0, "duration": 88}, {"note": 78, "velocity": 117, "duration": 132}, {"note": 0, "velocity": 0, "duration": 108}, {"note": 73, "velocity": 117, "duration": 249}, {"note": 0, "velocity": 0, "duration": 231}, {"note": 73, "velocity": 117, "duration": 191}, {"note": 66, "velocity": 116, "duration": 101}, {"note": 0, "velocity": 0, "duration": 139}, {"note": 76, "velocity": 119, "duration": 254}, {"note": 0, "velocity": 0, "duration": 226}, {"note": 74, "velocity": 116, "duration": 204}, {"note": 73, "velocity": 116, "duration": 215}, {"note": 71, "velocity": 117, "duration": 238}, {"note": 0, "velocity": 0, "duration": 242}, {"note": 74, "velocity": 110, "duration": 140}, {"note": 0, "velocity": 0, "duration": 100}, {"note": 76, "velocity": 110, "duration": 150}, {"note": 0, "velocity": 0, "duration": 90}, {"note": 78, "velocity": 117, "duration": 342}, {"note": 0, "velocity": 0, "duration": 138}, {"note": 78, "velocity": 117, "duration": 164}, {"note": 0, "velocity": 0, "duration": 76}, {"note": 81, "velocity": 116, "duration": 154}, {"note": 0, "velocity": 0, "duration": 86}, {"note": 76, "velocity": 117, "duration": 281}, {"note": 0, "velocity": 0, "duration": 439}, {"note": 74, "velocity": 114, "duration": 150}, {"note": 0, "velocity": 0, "duration": 90}, {"note": 76, "velocity": 117, "duration": 294}, {"note": 0, "velocity": 0, "duration": 186}, {"note": 76, "velocity": 117, "duration": 169}, {"note": 0, "velocity": 0, "duration": 71}, {"note": 78, "velocity": 116, "duration": 164}, {"note": 0, "velocity": 0, "duration": 76}, {"note": 71, "velocity": 119, "duration": 273}, {"note": 0, "velocity": 0, "duration": 447}, {"note": 71, "velocity": 117, "duration": 139}, {"note": 0, "velocity": 0, "duration": 101}, {"note": 76, "velocity": 119, "duration": 116}, {"note": 0, "velocity": 0, "duration": 124}, {"note": 76, "velocity": 117, "duration": 122}, {"note": 0, "velocity": 0, "duration": 118}, {"note": 76, "velocity": 117, "duration": 135}, {"note": 0, "velocity": 0, "duration": 105}, {"note": 78, "velocity": 117, "duration": 147}, {"note": 0, "velocity": 0, "duration": 93}, {"note": 74, "velocity": 119, "duration": 200}, {"note": 76, "velocity": 107, "duration": 185}, {"note": 81, "velocity": 110, "duration": 217}, {"note": 76, "velocity": 116, "duration": 152}, {"note": 0, "velocity": 0, "duration": 88}, {"note": 78, "velocity": 116, "duration": 254}, {"note": 0, "velocity": 0, "duration": 1186}, {"note": 78, "velocity": 107, "duration": 179}, {"note": 0, "velocity": 0, "duration": 61}, {"note": 81, "velocity": 114, "duration": 148}, {"note": 0, "velocity": 0, "duration": 92}, {"note": 83, "velocity": 117, "duration": 338}, {"note": 0, "velocity": 0, "duration": 142}, {"note": 83, "velocity": 117, "duration": 205}, {"note": 81, "velocity": 116, "duration": 220}, {"note": 76, "velocity": 116, "duration": 239}, {"note": 0, "velocity": 0, "duration": 481}, {"note": 74, "velocity": 114, "duration": 207}, {"note": 76, "velocity": 113, "duration": 300}, {"note": 0, "velocity": 0, "duration": 180}, {"note": 81, "velocity": 116, "duration": 306}, {"note": 0, "velocity": 0, "duration": 174}, {"note": 78, "velocity": 116, "duration": 270}, {"note": 0, "velocity": 0, "duration": 210}, {"note": 71, "velocity": 117, "duration": 175}, {"note": 0, "velocity": 0, "duration": 65}, {"note": 73, "velocity": 116, "duration": 151}, {"note": 0, "velocity": 0, "duration": 89}, {"note": 74, "velocity": 117, "duration": 320}, {"note": 73, "velocity": 116, "duration": 181}, {"note": 74, "velocity": 110, "duration": 152}, {"note": 0, "velocity": 0, "duration": 88}, {"note": 78, "velocity": 117, "duration": 132}, {"note": 0, "velocity": 0, "duration": 108}, {"note": 73, "velocity": 117, "duration": 249}, {"note": 0, "velocity": 0, "duration": 231}, {"note": 73, "velocity": 117, "duration": 191}, {"note": 66, "velocity": 116, "duration": 101}, {"note": 0, "velocity": 0, "duration": 139}, {"note": 76, "velocity": 119, "duration": 254}, {"note": 0, "velocity": 0, "duration": 226}, {"note": 74, "velocity": 116, "duration": 204}, {"note": 73, "velocity": 116, "duration": 215}, {"note": 71, "velocity": 117, "duration": 238}, {"note": 0, "velocity": 0, "duration": 1202}, {"note": 71, "velocity": 110, "duration": 209}, {"note": 73, "velocity": 107, "duration": 179}, {"note": 0, "velocity": 0, "duration": 61}, {"note": 74, "velocity": 108, "duration": 245}, {"note": 73, "velocity": 104, "duration": 192}, {"note": 74, "velocity": 110, "duration": 205}, {"note": 78, "velocity": 104, "duration": 522}, {"note": 73, "velocity": 96, "duration": 486}, {"note": 0, "velocity": 0, "duration": 954}, {"note": 73, "velocity": 116, "duration": 199}, {"note": 66, "velocity": 113, "duration": 222}, {"note": 0, "velocity": 0, "duration": 138}, {"note": 76, "velocity": 116, "duration": 1424}, {"note": 0, "velocity": 0, "duration": 136}, {"note": 74, "velocity": 108, "duration": 932}, {"note": 71, "velocity": 116, "duration": 363}]]