[[{"note": 69, "velocity": 117, "duration": 364}, {"note": 0, "velocity": 0, "duration": 116}, {"note": 69, "velocity": 99, "duration": 198}, {"note": 67, "velocity": 88, "duration": 181}, {"note": 65, "velocity": 92, "duration": 594}, {"note": 0, "velocity": 0, "duration": 126}, {"note": 67, "velocity": 88, "duration": 152}, {"note": 0, "velocity": 0, "duration": 88}, {"note": 69, "velocity": 107, "duration": 415}, {"note": 62, "velocity": 96, "duration": 110}, {"note": 0, "velocity": 0, "duration": 65}, {"note": 69, "velocity": 102, "duration": 197}, {"note": 67, "velocity": 97, "duration": 175}, {"note": 0, "velocity": 0, "duration": 65}, {"note": 65, "velocity": 95, "duration": 472}, {"note": 0, "velocity": 0, "duration": 488}, {"note": 67, "velocity": 102, "duration": 307}, {"note": 0, "velocity": 0, "duration": 173}, {"note": 67, "velocity": 102, "duration": 194}, {"note": 69, "velocity": 102, "duration": 72}, {"note": 0, "velocity": 0, "duration": 168}, {"note": 72, "velocity": 122, "duration": 253}, {"note": 0, "velocity": 0, "duration": 227}, {"note": 64, "velocity": 93, "duration": 180}, {"note": 62, "velocity": 89, "duration": 123}, {"note": 0, "velocity": 0, "duration": 117}, {"note": 60, "velocity": 85, "duration": 209}, {"note": 62, "velocity": 95, "duration": 153}, {"note": 0, "velocity": 0, "duration": 87}, {"note": 67, "velocity": 90, "duration": 153}, {"note": 0, "velocity": 0, "duration": 87}, {"note": 64, "velocity": 93, "duration": 105}, {"note": 0, "velocity": 0, "duration": 135}, {"note": 60, "velocity": 92, "duration": 519}, {"note": 0, "velocity": 0, "duration": 441}, {"note": 65, "velocity": 96, "duration": 309}, {"note": 0, "velocity": 0, "duration": 171}, {"note": 65, "velocity": 99, "duration": 188}, {"note": 62, "velocity": 83, "duration": 137}, {"note": 0, "velocity": 0, "duration": 103}, {"note": 65, "velocity": 96, "duration": 308}, {"note": 0, "velocity": 0, "duration": 412}, {"note": 69, "velocity": 102, "duration": 70}, {"note": 0, "velocity": 0, "duration": 170}, {"note": 67, "velocity": 102, "duration": 76}, {"note": 0, "velocity": 0, "duration": 164}, {"note": 67, "velocity": 86, "duration": 77}, {"note": 0, "velocity": 0, "duration": 163}, {"note": 67, "velocity": 90, "duration": 67}, {"note": 0, "velocity": 0, "duration": 173}, {"note": 60, "velocity": 82, "duration": 162}, {"note": 0, "velocity": 0, "duration": 78}, {"note": 62, "velocity": 92, "duration": 859}, {"note": 0, "velocity": 0, "duration": 101}, {"note": 67, "velocity": 99, "duration": 93}, {"note": 0, "velocity": 0, "duration": 147}, {"note": 67, "velocity": 85, "duration": 110}, {"note": 0, "velocity": 0, "duration": 130}, {"note": 67, "velocity": 90, "duration": 89}, {"note": 0, "velocity": 0, "duration": 151}, {"note": 72, "velocity": 89, "duration": 63}, {"note": 0, "velocity": 0, "duration": 177}, {"note": 67, "velocity": 100, "duration": 244}, {"note": 0, "velocity": 0, "duration": 236}, {"note": 64, "velocity": 97, "duration": 236}, {"note": 62, "velocity": 78, "duration": 201}, {"note": 60, "velocity": 85, "duration": 327}, {"note": 62, "velocity": 92, "duration": 220}, {"note": 67, "velocity": 92, "duration": 236}, {"note": 62, "velocity": 95, "duration": 214}, {"note": 60, "velocity": 88, "duration": 546}, {"note": 0, "velocity": 0, "duration": 414}, {"note": 69, "velocity": 117, "duration": 285}, {"note": 0, "velocity": 0, "duration": 195}, {"note": 69, "velocity": 112, "duration": 176}, {"note": 0, "velocity": 0, "duration": 64}, {"note": 67, "velocity": 93, "duration": 106}, {"note": 0, "velocity": 0, "duration": 134}, {"note": 65, "velocity": 102, "duration": 346}, {"note": 0, "velocity": 0, "duration": 374}, {"note": 67, "velocity": 89, "duration": 77}, {"note": 0, "velocity": 0, "duration": 163}, {"note": 69, "velocity": 107, "duration": 165}, {"note": 0, "velocity": 0, "duration": 75}, {"note": 62, "velocity": 97, "duration": 144}, {"note": 0, "velocity": 0, "duration": 96}, {"note": 69, "velocity": 93, "duration": 141}, {"note": 0, "velocity": 0, "duration": 99}, {"note": 67, "velocity": 88, "duration": 114}, {"note": 0, "velocity": 0, "duration": 126}, {"note": 65, "velocity": 90, "duration": 516}, {"note": 0, "velocity": 0, "duration": 444}, {"note": 67, "velocity": 100, "duration": 290}, {"note": 0, "velocity": 0, "duration": 190}, {"note": 67, "velocity": 99, "duration": 184}, {"note": 69, "velocity": 96, "duration": 127}, {"note": 0, "velocity": 0, "duration": 113}, {"note": 72, "velocity": 122, "duration": 250}, {"note": 0, "velocity": 0, "duration": 230}, {"note": 64, "velocity": 96, "duration": 184}, {"note": 62, "velocity": 93, "duration": 93}, {"note": 0, "velocity": 0, "duration": 147}, {"note": 60, "velocity": 89, "duration": 225}, {"note": 62, "velocity": 96, "duration": 222}, {"note": 67, "velocity": 96, "duration": 192}, {"note": 62, "velocity": 89, "duration": 110}, {"note": 0, "velocity": 0, "duration": 130}, {"note": 60, "velocity": 100, "duration": 480}, {"note": 0, "velocity": 0, "duration": 480}, {"note": 65, "velocity": 112, "duration": 282}, {"note": 0, "velocity": 0, "duration": 198}, {"note": 65, "velocity": 97, "duration": 217}, {"note": 62, "velocity": 81, "duration": 212}, {"note": 0, "velocity": 0, "duration": 148}, {"note": 65, "velocity": 93, "duration": 458}, {"note": 0, "velocity": 0, "duration": 262}, {"note": 69, "velocity": 100, "duration": 172}, {"note": 0, "velocity": 0, "duration": 68}, {"note": 67, "velocity": 93, "duration": 238}, {"note": 67, "velocity": 112, "duration": 80}, {"note": 0, "velocity": 0, "duration": 160}, {"note": 67, "velocity": 102, "duration": 91}, {"note": 0, "velocity": 0, "duration": 149}, {"note": 60, "velocity": 88, "duration": 121}, {"note": 0, "velocity": 0, "duration": 119}, {"note": 62, "velocity": 99, "duration": 556}, {"note": 0, "velocity": 0, "duration": 404}, {"note": 67, "velocity": 112, "duration": 105}, {"note": 0, "velocity": 0, "duration": 135}, {"note": 67, "velocity": 97, "duration": 112}, {"note": 0, "velocity": 0, "duration": 128}, {"note": 67, "velocity": 97, "duration": 144}, {"note": 0, "velocity": 0, "duration": 96}, {"note": 72, "velocity": 97, "duration": 121}, {"note": 0, "velocity": 0, "duration": 119}, {"note": 67, "velocity": 107, "duration": 77}, {"note": 0, "velocity": 0, "duration": 163}, {"note": 64, "velocity": 102, "duration": 328}, {"note": 0, "velocity": 0, "duration": 152}, {"note": 62, "velocity": 96, "duration": 95}, {"note": 0, "velocity": 0, "duration": 145}, {"note": 60, "velocity": 92, "duration": 174}, {"note": 0, "velocity": 0, "duration": 66}, {"note": 62, "velocity": 93, "duration": 132}, {"note": 0, "velocity": 0, "duration": 108}, {"note": 67, "velocity": 97, "duration": 183}, {"note": 62, "velocity": 89, "duration": 140}, {"note": 0, "velocity": 0, "duration": 100}, {"note": 60, "velocity": 96, "duration": 702}, {"note": 0, "velocity": 0, "duration": 258}, {"note": 72, "velocity": 122, "duration": 498}, {"note": 0, "velocity": 0, "duration": 222}, {"note": 72, "velocity": 107, "duration": 165}, {"note": 0, "velocity": 0, "duration": 75}, {"note": 74, "velocity": 122, "duration": 361}, {"note": 0, "velocity": 0, "duration": 119}, {"note": 74, "velocity": 127, "duration": 327}, {"note": 0, "velocity": 0, "duration": 153}, {"note": 72, "velocity": 112, "duration": 1270}, {"note": 0, "velocity": 0, "duration": 650}, {"note": 72, "velocity": 112, "duration": 319}, {"note": 0, "velocity": 0, "duration": 161}, {"note": 72, "velocity": 99, "duration": 209}, {"note": 67, "velocity": 90, "duration": 173}, {"note": 0, "velocity": 0, "duration": 67}, {"note": 69, "velocity": 97, "duration": 388}, {"note": 0, "velocity": 0, "duration": 92}, {"note": 69, "velocity": 117, "duration": 199}, {"note": 67, "velocity": 92, "duration": 140}, {"note": 0, "velocity": 0, "duration": 100}, {"note": 67, "velocity": 117, "duration": 164}, {"note": 0, "velocity": 0, "duration": 76}, {"note": 67, "velocity": 100, "duration": 156}, {"note": 0, "velocity": 0, "duration": 84}, {"note": 65, "velocity": 99, "duration": 918}, {"note": 0, "velocity": 0, "duration": 522}, {"note": 67, "velocity": 117, "duration": 548}, {"note": 0, "velocity": 0, "duration": 172}, {"note": 72, "velocity": 112, "duration": 119}, {"note": 0, "velocity": 0, "duration": 121}, {"note": 60, "velocity": 107, "duration": 371}, {"note": 0, "velocity": 0, "duration": 589}, {"note": 67, "velocity": 112, "duration": 330}, {"note": 0, "velocity": 0, "duration": 150}, {"note": 67, "velocity": 99, "duration": 205}, {"note": 65, "velocity": 71, "duration": 160}, {"note": 0, "velocity": 0, "duration": 80}, {"note": 62, "velocity": 96, "duration": 719}, {"note": 0, "velocity": 0, "duration": 241}, {"note": 67, "velocity": 102, "duration": 111}, {"note": 0, "velocity": 0, "duration": 129}, {"note": 67, "velocity": 107, "duration": 449}, {"note": 72, "velocity": 112, "duration": 133}, {"note": 0, "velocity": 0, "duration": 107}, {"note": 72, "velocity": 99, "duration": 195}, {"note": 69, "velocity": 96, "duration": 178}, {"note": 0, "velocity": 0, "duration": 62}, {"note": 67, "velocity": 107, "duration": 248}, {"note": 65, "velocity": 100, "duration": 207}, {"note": 67, "velocity": 99, "duration": 1406}, {"note": 0, "velocity": 0, "duration": 514}, {"note": 72, "velocity": 122, "duration": 498}, {"note": 0, "velocity": 0, "duration": 222}, {"note": 72, "velocity": 107, "duration": 165}, {"note": 0, "velocity": 0, "duration": 75}, {"note": 74, "velocity": 122, "duration": 361}, {"note": 0, "velocity": 0, "duration": 119}, {"note": 74, "velocity": 127, "duration": 327}, {"note": 0, "velocity": 0, "duration": 153}, {"note": 72, "velocity": 112, "duration": 1270}, {"note": 0, "velocity": 0, "duration": 650}, {"note": 72, "velocity": 112, "duration": 319}, {"note": 0, "velocity": 0, "duration": 161}, {"note": 72, "velocity": 99, "duration": 209}, {"note": 67, "velocity": 90, "duration": 173}, {"note": 0, "velocity": 0, "duration": 67}, {"note": 69, "velocity": 97, "duration": 388}, {"note": 70, "velocity": 117, "duration": 134}, {"note": 0, "velocity": 0, "duration": 92}, {"note": 69, "velocity": 117, "duration": 199}, {"note": 67, "velocity": 92, "duration": 140}, {"note": 0, "velocity": 0, "duration": 100}, {"note": 67, "velocity": 117, "duration": 164}, {"note": 0, "velocity": 0, "duration": 76}, {"note": 67, "velocity": 100, "duration": 156}, {"note": 0, "velocity": 0, "duration": 84}, {"note": 65, "velocity": 99, "duration": 918}, {"note": 0, "velocity": 0, "duration": 522}, {"note": 67, "velocity": 117, "duration": 548}, {"note": 0, "velocity": 0, "duration": 172}, {"note": 72, "velocity": 112, "duration": 119}, {"note": 0, "velocity": 0, "duration": 121}, {"note": 60, "velocity": 107, "duration": 371}, {"note": 0, "velocity": 0, "duration": 589}, {"note": 67, "velocity": 112, "duration": 330}, {"note": 0, "velocity": 0, "duration": 150}, {"note": 67, "velocity": 99, "duration": 205}, {"note": 65, "velocity": 71, "duration": 160}, {"note": 0, "velocity": 0, "duration": 80}, {"note": 62, "velocity": 96, "duration": 719}, {"note": 0, "velocity": 0, "duration": 241}, {"note": 67, "velocity": 99, "duration": 77}, {"note": 0, "velocity": 0, "duration": 163}, {"note": 60, "velocity": 100, "duration": 371}, {"note": 0, "velocity": 0, "duration": 109}, {"note": 62, "velocity": 99, "duration": 215}, {"note": 67, "velocity": 95, "duration": 202}, {"note": 64, "velocity": 92, "duration": 119}, {"note": 0, "velocity": 0, "duration": 121}, {"note": 62, "velocity": 97, "duration": 245}, {"note": 64, "velocity": 82, "duration": 230}, {"note": 60, "velocity": 86, "duration": 1401}, {"note": 0, "velocity": 0, "duration": 15879}, {"note": 69, "velocity": 117, "duration": 364}, {"note": 0, "velocity": 0, "duration": 116}, {"note": 69, "velocity": 99, "duration": 198}, {"note": 67, "velocity": 88, "duration": 181}, {"note": 65, "velocity": 92, "duration": 594}, {"note": 0, "velocity": 0, "duration": 126}, {"note": 67, "velocity": 88, "duration": 152}, {"note": 0, "velocity": 0, "duration": 88}, {"note": 69, "velocity": 107, "duration": 415}, {"note": 62, "velocity": 96, "duration": 110}, {"note": 0, "velocity": 0, "duration": 65}, {"note": 69, "velocity": 102, "duration": 197}, {"note": 67, "velocity": 97, "duration": 175}, {"note": 0, "velocity": 0, "duration": 65}, {"note": 65, "velocity": 95, "duration": 472}, {"note": 0, "velocity": 0, "duration": 488}, {"note": 67, "velocity": 102, "duration": 307}, {"note": 0, "velocity": 0, "duration": 173}, {"note": 67, "velocity": 102, "duration": 194}, {"note": 69, "velocity": 102, "duration": 72}, {"note": 0, "velocity": 0, "duration": 168}, {"note": 72, "velocity": 122, "duration": 253}, {"note": 0, "velocity": 0, "duration": 227}, {"note": 64, "velocity": 93, "duration": 180}, {"note": 62, "velocity": 89, "duration": 123}, {"note": 0, "velocity": 0, "duration": 117}, {"note": 60, "velocity": 85, "duration": 209}, {"note": 62, "velocity": 95, "duration": 153}, {"note": 0, "velocity": 0, "duration": 87}, {"note": 67, "velocity": 90, "duration": 153}, {"note": 0, "velocity": 0, "duration": 87}, {"note": 64, "velocity": 93, "duration": 105}, {"note": 0, "velocity": 0, "duration": 135}, {"note": 60, "velocity": 92, "duration": 519}, {"note": 0, "velocity": 0, "duration": 441}, {"note": 65, "velocity": 96, "duration": 309}, {"note": 0, "velocity": 0, "duration": 171}, {"note": 65, "velocity": 99, "duration": 188}, {"note": 62, "velocity": 83, "duration": 137}, {"note": 0, "velocity": 0, "duration": 103}, {"note": 65, "velocity": 96, "duration": 308}, {"note": 0, "velocity": 0, "duration": 412}, {"note": 69, "velocity": 102, "duration": 70}, {"note": 0, "velocity": 0, "duration": 170}, {"note": 67, "velocity": 102, "duration": 76}, {"note": 0, "velocity": 0, "duration": 164}, {"note": 67, "velocity": 86, "duration": 77}, {"note": 0, "velocity": 0, "duration": 163}, {"note": 67, "velocity": 90, "duration": 67}, {"note": 0, "velocity": 0, "duration": 173}, {"note": 60, "velocity": 82, "duration": 162}, {"note": 0, "velocity": 0, "duration": 78}, {"note": 62, "velocity": 92, "duration": 859}, {"note": 0, "velocity": 0, "duration": 101}, {"note": 67, "velocity": 99, "duration": 93}, {"note": 0, "velocity": 0, "duration": 147}, {"note": 67, "velocity": 85, "duration": 110}, {"note": 0, "velocity": 0, "duration": 130}, {"note": 67, "velocity": 90, "duration": 89}, {"note": 0, "velocity": 0, "duration": 151}, {"note": 72, "velocity": 89, "duration": 63}, {"note": 0, "velocity": 0, "duration": 177}, {"note": 67, "velocity": 100, "duration": 244}, {"note": 0, "velocity": 0, "duration": 236}, {"note": 64, "velocity": 97, "duration": 236}, {"note": 62, "velocity": 78, "duration": 201}, {"note": 60, "velocity": 85, "duration": 327}, {"note": 62, "velocity": 92, "duration": 220}, {"note": 67, "velocity": 92, "duration": 236}, {"note": 62, "velocity": 95, "duration": 214}, {"note": 60, "velocity": 88, "duration": 546}, {"note": 0, "velocity": 0, "duration": 414}, {"note": 69, "velocity": 117, "duration": 285}, {"note": 0, "velocity": 0, "duration": 195}, {"note": 69, "velocity": 112, "duration": 176}, {"note": 0, "velocity": 0, "duration": 64}, {"note": 67, "velocity": 93, "duration": 106}, {"note": 0, "velocity": 0, "duration": 134}, {"note": 65, "velocity": 102, "duration": 346}, {"note": 0, "velocity": 0, "duration": 374}, {"note": 67, "velocity": 89, "duration": 77}, {"note": 0, "velocity": 0, "duration": 163}, {"note": 69, "velocity": 107, "duration": 165}, {"note": 0, "velocity": 0, "duration": 75}, {"note": 62, "velocity": 97, "duration": 144}, {"note": 0, "velocity": 0, "duration": 96}, {"note": 69, "velocity": 93, "duration": 141}, {"note": 0, "velocity": 0, "duration": 99}, {"note": 67, "velocity": 88, "duration": 114}, {"note": 0, "velocity": 0, "duration": 126}, {"note": 65, "velocity": 90, "duration": 516}, {"note": 0, "velocity": 0, "duration": 444}, {"note": 67, "velocity": 100, "duration": 290}, {"note": 0, "velocity": 0, "duration": 190}, {"note": 67, "velocity": 99, "duration": 184}, {"note": 69, "velocity": 96, "duration": 127}, {"note": 0, "velocity": 0, "duration": 113}, {"note": 72, "velocity": 122, "duration": 250}, {"note": 0, "velocity": 0, "duration": 230}, {"note": 64, "velocity": 96, "duration": 184}, {"note": 62, "velocity": 93, "duration": 93}, {"note": 0, "velocity": 0, "duration": 147}, {"note": 60, "velocity": 89, "duration": 225}, {"note": 62, "velocity": 96, "duration": 222}, {"note": 67, "velocity": 96, "duration": 192}, {"note": 62, "velocity": 89, "duration": 110}, {"note": 0, "velocity": 0, "duration": 130}, {"note": 60, "velocity": 100, "duration": 480}, {"note": 0, "velocity": 0, "duration": 480}, {"note": 65, "velocity": 112, "duration": 282}, {"note": 0, "velocity": 0, "duration": 198}, {"note": 65, "velocity": 97, "duration": 217}, {"note": 62, "velocity": 81, "duration": 212}, {"note": 0, "velocity": 0, "duration": 148}, {"note": 65, "velocity": 93, "duration": 458}, {"note": 0, "velocity": 0, "duration": 262}, {"note": 69, "velocity": 100, "duration": 172}, {"note": 0, "velocity": 0, "duration": 68}, {"note": 67, "velocity": 93, "duration": 238}, {"note": 67, "velocity": 112, "duration": 80}, {"note": 0, "velocity": 0, "duration": 160}, {"note": 67, "velocity": 102, "duration": 91}, {"note": 0, "velocity": 0, "duration": 149}, {"note": 60, "velocity": 88, "duration": 121}, {"note": 0, "velocity": 0, "duration": 119}, {"note": 62, "velocity": 99, "duration": 556}, {"note": 0, "velocity": 0, "duration": 404}, {"note": 67, "velocity": 112, "duration": 105}, {"note": 0, "velocity": 0, "duration": 135}, {"note": 67, "velocity": 97, "duration": 112}, {"note": 0, "velocity": 0, "duration": 128}, {"note": 67, "velocity": 97, "duration": 144}, {"note": 0, "velocity": 0, "duration": 96}, {"note": 72, "velocity": 97, "duration": 121}, {"note": 0, "velocity": 0, "duration": 119}, {"note": 67, "velocity": 107, "duration": 77}, {"note": 0, "velocity": 0, "duration": 163}, {"note": 64, "velocity": 102, "duration": 328}, {"note": 0, "velocity": 0, "duration": 152}, {"note": 62, "velocity": 96, "duration": 95}, {"note": 0, "velocity": 0, "duration": 145}, {"note": 60, "velocity": 92, "duration": 174}, {"note": 0, "velocity": 0, "duration": 66}, {"note": 62, "velocity": 93, "duration": 132}, {"note": 0, "velocity": 0, "duration": 108}, {"note": 67, "velocity": 97, "duration": 183}, {"note": 62, "velocity": 89, "duration": 140}, {"note": 0, "velocity": 0, "duration": 100}, {"note": 60, "velocity": 96, "duration": 702}, {"note": 0, "velocity": 0, "duration": 258}, {"note": 72, "velocity": 122, "duration": 498}, {"note": 0, "velocity": 0, "duration": 222}, {"note": 72, "velocity": 107, "duration": 165}, {"note": 0, "velocity": 0, "duration": 75}, {"note": 74, "velocity": 122, "duration": 361}, {"note": 0, "velocity": 0, "duration": 119}, {"note": 74, "velocity": 127, "duration": 327}, {"note": 0, "velocity": 0, "duration": 153}, {"note": 72, "velocity": 112, "duration": 1270}, {"note": 0, "velocity": 0, "duration": 650}, {"note": 72, "velocity": 112, "duration": 319}, {"note": 0, "velocity": 0, "duration": 161}, {"note": 72, "velocity": 99, "duration": 209}, {"note": 67, "velocity": 90, "duration": 173}, {"note": 0, "velocity": 0, "duration": 67}, {"note": 69, "velocity": 97, "duration": 388}, {"note": 0, "velocity": 0, "duration": 92}, {"note": 69, "velocity": 117, "duration": 199}, {"note": 67, "velocity": 92, "duration": 140}, {"note": 0, "velocity": 0, "duration": 100}, {"note": 67, "velocity": 117, "duration": 164}, {"note": 0, "velocity": 0, "duration": 76}, {"note": 67, "velocity": 100, "duration": 156}, {"note": 0, "velocity": 0, "duration": 84}, {"note": 65, "velocity": 99, "duration": 918}, {"note": 0, "velocity": 0, "duration": 522}, {"note": 67, "velocity": 117, "duration": 548}, {"note": 0, "velocity": 0, "duration": 172}, {"note": 72, "velocity": 112, "duration": 119}, {"note": 0, "velocity": 0, "duration": 121}, {"note": 60, "velocity": 107, "duration": 371}, {"note": 0, "velocity": 0, "duration": 589}, {"note": 67, "velocity": 112, "duration": 330}, {"note": 0, "velocity": 0, "duration": 150}, {"note": 67, "velocity": 99, "duration": 205}, {"note": 65, "velocity": 71, "duration": 160}, {"note": 0, "velocity": 0, "duration": 80}, {"note": 62, "velocity": 96, "duration": 719}, {"note": 0, "velocity": 0, "duration": 241}, {"note": 67, "velocity": 102, "duration": 111}, {"note": 0, "velocity": 0, "duration": 129}, {"note": 67, "velocity": 107, "duration": 449}, {"note": 72, "velocity": 112, "duration": 133}, {"note": 0, "velocity": 0, "duration": 107}, {"note": 72, "velocity": 99, "duration": 195}, {"note": 69, "velocity": 96, "duration": 178}, {"note": 0, "velocity": 0, "duration": 62}, {"note": 67, "velocity": 107, "duration": 248}, {"note": 65, "velocity": 100, "duration": 207}, {"note": 67, "velocity": 99, "duration": 1406}, {"note": 0, "velocity": 0, "duration": 514}, {"note": 72, "velocity": 122, "duration": 498}, {"note": 0, "velocity": 0, "duration": 222}, {"note": 72, "velocity": 107, "duration": 165}, {"note": 0, "velocity": 0, "duration": 75}, {"note": 74, "velocity": 122, "duration": 361}, {"note": 0, "velocity": 0, "duration": 119}, {"note": 74, "velocity": 127, "duration": 327}, {"note": 0, "velocity": 0, "duration": 153}, {"note": 72, "velocity": 112, "duration": 1270}, {"note": 0, "velocity": 0, "duration": 650}, {"note": 72, "velocity": 112, "duration": 319}, {"note": 0, "velocity": 0, "duration": 161}, {"note": 72, "velocity": 99, "duration": 209}, {"note": 67, "velocity": 90, "duration": 173}, {"note": 0, "velocity": 0, "duration": 67}, {"note": 69, "velocity": 97, "duration": 388}, {"note": 70, "velocity": 117, "duration": 134}, {"note": 0, "velocity": 0, "duration": 92}, {"note": 69, "velocity": 117, "duration": 199}, {"note": 67, "velocity": 92, "duration": 140}, {"note": 0, "velocity": 0, "duration": 100}, {"note": 67, "velocity": 117, "duration": 164}, {"note": 0, "velocity": 0, "duration": 76}, {"note": 67, "velocity": 100, "duration": 156}, {"note": 0, "velocity": 0, "duration": 84}, {"note": 65, "velocity": 99, "duration": 918}, {"note": 0, "velocity": 0, "duration": 522}, {"note": 67, "velocity": 117, "duration": 548}, {"note": 0, "velocity": 0, "duration": 172}, {"note": 72, "velocity": 112, "duration": 119}, {"note": 0, "velocity": 0, "duration": 121}, {"note": 60, "velocity": 107, "duration": 371}, {"note": 0, "velocity": 0, "duration": 589}, {"note": 67, "velocity": 112, "duration": 330}, {"note": 0, "velocity": 0, "duration": 150}, {"note": 67, "velocity": 99, "duration": 205}, {"note": 65, "velocity": 71, "duration": 160}, {"note": 0, "velocity": 0, "duration": 80}, {"note": 62, "velocity": 96, "duration": 719}, {"note": 0, "velocity": 0, "duration": 241}, {"note": 67, "velocity": 99, "duration": 77}, {"note": 0, "velocity": 0, "duration": 163}, {"note": 60, "velocity": 100, "duration": 371}, {"note": 0, "velocity": 0, "duration": 109}, {"note": 62, "velocity": 99, "duration": 215}, {"note": 67, "velocity": 95, "duration": 202}, {"note": 64, "velocity": 92, "duration": 119}, {"note": 0, "velocity": 0, "duration": 121}, {"note": 62, "velocity": 97, "duration": 245}, {"note": 64, "velocity": 82, "duration": 230}, {"note": 60, "velocity": 86, "duration": 1401}, {"note": 0, "velocity": 0, "duration": 519}, {"note": 67, "velocity": 107, "duration": 346}, {"note": 0, "velocity": 0, "duration": 134}, {"note": 67, "velocity": 117, "duration": 212}, {"note": 72, "velocity": 102, "duration": 152}, {"note": 0, "velocity": 0, "duration": 88}, {"note": 60, "velocity": 97, "duration": 431}, {"note": 0, "velocity": 0, "duration": 529}, {"note": 64, "velocity": 107, "duration": 252}, {"note": 67, "velocity": 97, "duration": 79}, {"note": 0, "velocity": 0, "duration": 161}, {"note": 67, "velocity": 100, "duration": 426}, {"note": 62, "velocity": 89, "duration": 780}, {"note": 0, "velocity": 0, "duration": 180}, {"note": 72, "velocity": 122, "duration": 276}, {"note": 74, "velocity": 107, "duration": 219}, {"note": 67, "velocity": 99, "duration": 364}, {"note": 0, "velocity": 0, "duration": 116}, {"note": 67, "velocity": 112, "duration": 601}, {"note": 74, "velocity": 122, "duration": 2598}, {"note": 72, "velocity": 127, "duration": 1365}]]