[[{"note": 68, "velocity": 113, "duration": 197}, {"note": 75, "velocity": 108, "duration": 144}, {"note": 0, "velocity": 0, "duration": 96}, {"note": 75, "velocity": 108, "duration": 181}, {"note": 73, "velocity": 113, "duration": 170}, {"note": 0, "velocity": 0, "duration": 70}, {"note": 75, "velocity": 113, "duration": 338}, {"note": 0, "velocity": 0, "duration": 622}, {"note": 66, "velocity": 114, "duration": 223}, {"note": 63, "velocity": 96, "duration": 219}, {"note": 66, "velocity": 107, "duration": 143}, {"note": 0, "velocity": 0, "duration": 97}, {"note": 70, "velocity": 117, "duration": 209}, {"note": 68, "velocity": 116, "duration": 300}, {"note": 0, "velocity": 0, "duration": 660}, {"note": 68, "velocity": 113, "duration": 223}, {"note": 66, "velocity": 102, "duration": 244}, {"note": 68, "velocity": 110, "duration": 276}, {"note": 71, "velocity": 107, "duration": 255}, {"note": 73, "velocity": 113, "duration": 185}, {"note": 71, "velocity": 94, "duration": 206}, {"note": 73, "velocity": 100, "duration": 200}, {"note": 71, "velocity": 94, "duration": 144}, {"note": 73, "velocity": 91, "duration": 82}, {"note": 75, "velocity": 104, "duration": 238}, {"note": 0, "velocity": 0, "duration": 1682}, {"note": 73, "velocity": 113, "duration": 199}, {"note": 75, "velocity": 98, "duration": 213}, {"note": 73, "velocity": 110, "duration": 214}, {"note": 71, "velocity": 100, "duration": 254}, {"note": 73, "velocity": 108, "duration": 387}, {"note": 0, "velocity": 0, "duration": 333}, {"note": 71, "velocity": 96, "duration": 78}, {"note": 73, "velocity": 91, "duration": 78}, {"note": 75, "velocity": 98, "duration": 218}, {"note": 73, "velocity": 102, "duration": 225}, {"note": 73, "velocity": 93, "duration": 180}, {"note": 75, "velocity": 94, "duration": 223}, {"note": 68, "velocity": 91, "duration": 282}, {"note": 0, "velocity": 0, "duration": 678}, {"note": 68, "velocity": 110, "duration": 224}, {"note": 66, "velocity": 96, "duration": 227}, {"note": 66, "velocity": 96, "duration": 240}, {"note": 71, "velocity": 102, "duration": 179}, {"note": 0, "velocity": 0, "duration": 61}, {"note": 73, "velocity": 108, "duration": 223}, {"note": 0, "velocity": 0, "duration": 137}, {"note": 75, "velocity": 90, "duration": 111}, {"note": 73, "velocity": 100, "duration": 193}, {"note": 0, "velocity": 0, "duration": 287}, {"note": 66, "velocity": 113, "duration": 188}, {"note": 68, "velocity": 110, "duration": 166}, {"note": 0, "velocity": 0, "duration": 74}, {"note": 71, "velocity": 108, "duration": 158}, {"note": 0, "velocity": 0, "duration": 82}, {"note": 68, "velocity": 108, "duration": 146}, {"note": 0, "velocity": 0, "duration": 94}, {"note": 68, "velocity": 110, "duration": 228}, {"note": 0, "velocity": 0, "duration": 732}, {"note": 68, "velocity": 113, "duration": 197}, {"note": 75, "velocity": 108, "duration": 144}, {"note": 0, "velocity": 0, "duration": 96}, {"note": 75, "velocity": 108, "duration": 181}, {"note": 73, "velocity": 113, "duration": 170}, {"note": 0, "velocity": 0, "duration": 70}, {"note": 75, "velocity": 113, "duration": 338}, {"note": 0, "velocity": 0, "duration": 622}, {"note": 66, "velocity": 114, "duration": 223}, {"note": 63, "velocity": 96, "duration": 219}, {"note": 66, "velocity": 107, "duration": 143}, {"note": 0, "velocity": 0, "duration": 97}, {"note": 70, "velocity": 117, "duration": 209}, {"note": 68, "velocity": 116, "duration": 300}, {"note": 0, "velocity": 0, "duration": 660}, {"note": 68, "velocity": 113, "duration": 223}, {"note": 66, "velocity": 102, "duration": 244}, {"note": 68, "velocity": 110, "duration": 276}, {"note": 71, "velocity": 107, "duration": 255}, {"note": 73, "velocity": 113, "duration": 185}, {"note": 71, "velocity": 94, "duration": 206}, {"note": 73, "velocity": 100, "duration": 200}, {"note": 78, "velocity": 94, "duration": 144}, {"note": 0, "velocity": 0, "duration": 96}, {"note": 75, "velocity": 104, "duration": 238}, {"note": 0, "velocity": 0, "duration": 1682}, {"note": 73, "velocity": 113, "duration": 199}, {"note": 75, "velocity": 98, "duration": 213}, {"note": 73, "velocity": 110, "duration": 214}, {"note": 71, "velocity": 100, "duration": 254}, {"note": 73, "velocity": 108, "duration": 387}, {"note": 0, "velocity": 0, "duration": 333}, {"note": 71, "velocity": 96, "duration": 78}, {"note": 73, "velocity": 91, "duration": 78}, {"note": 75, "velocity": 98, "duration": 218}, {"note": 73, "velocity": 102, "duration": 225}, {"note": 73, "velocity": 93, "duration": 180}, {"note": 75, "velocity": 94, "duration": 223}, {"note": 68, "velocity": 91, "duration": 282}, {"note": 0, "velocity": 0, "duration": 678}, {"note": 68, "velocity": 110, "duration": 224}, {"note": 66, "velocity": 96, "duration": 227}, {"note": 66, "velocity": 96, "duration": 240}, {"note": 71, "velocity": 102, "duration": 179}, {"note": 0, "velocity": 0, "duration": 61}, {"note": 73, "velocity": 108, "duration": 223}, {"note": 73, "velocity": 108, "duration": 226}, {"note": 75, "velocity": 108, "duration": 194}, {"note": 78, "velocity": 108, "duration": 143}, {"note": 0, "velocity": 0, "duration": 97}, {"note": 78, "velocity": 114, "duration": 194}, {"note": 75, "velocity": 107, "duration": 165}, {"note": 0, "velocity": 0, "duration": 75}, {"note": 78, "velocity": 114, "duration": 164}, {"note": 0, "velocity": 0, "duration": 76}, {"note": 80, "velocity": 113, "duration": 147}, {"note": 0, "velocity": 0, "duration": 93}, {"note": 80, "velocity": 119, "duration": 223}, {"note": 0, "velocity": 0, "duration": 737}, {"note": 75, "velocity": 117, "duration": 168}, {"note": 0, "velocity": 0, "duration": 72}, {"note": 80, "velocity": 117, "duration": 147}, {"note": 0, "velocity": 0, "duration": 93}, {"note": 80, "velocity": 116, "duration": 173}, {"note": 0, "velocity": 0, "duration": 67}, {"note": 78, "velocity": 114, "duration": 170}, {"note": 0, "velocity": 0, "duration": 70}, {"note": 80, "velocity": 119, "duration": 221}, {"note": 0, "velocity": 0, "duration": 259}, {"note": 78, "velocity": 117, "duration": 182}, {"note": 75, "velocity": 102, "duration": 192}, {"note": 73, "velocity": 110, "duration": 260}, {"note": 0, "velocity": 0, "duration": 100}, {"note": 75, "velocity": 104, "duration": 86}, {"note": 78, "velocity": 110, "duration": 194}, {"note": 73, "velocity": 107, "duration": 219}, {"note": 75, "velocity": 110, "duration": 225}, {"note": 0, "velocity": 0, "duration": 735}, {"note": 80, "velocity": 113, "duration": 216}, {"note": 78, "velocity": 108, "duration": 144}, {"note": 0, "velocity": 0, "duration": 96}, {"note": 78, "velocity": 113, "duration": 218}, {"note": 75, "velocity": 110, "duration": 197}, {"note": 73, "velocity": 113, "duration": 232}, {"note": 75, "velocity": 107, "duration": 168}, {"note": 0, "velocity": 0, "duration": 72}, {"note": 80, "velocity": 113, "duration": 165}, {"note": 0, "velocity": 0, "duration": 75}, {"note": 78, "velocity": 114, "duration": 208}, {"note": 75, "velocity": 110, "duration": 268}, {"note": 0, "velocity": 0, "duration": 1652}, {"note": 73, "velocity": 116, "duration": 159}, {"note": 0, "velocity": 0, "duration": 81}, {"note": 75, "velocity": 116, "duration": 166}, {"note": 0, "velocity": 0, "duration": 74}, {"note": 73, "velocity": 113, "duration": 167}, {"note": 0, "velocity": 0, "duration": 73}, {"note": 71, "velocity": 108, "duration": 179}, {"note": 0, "velocity": 0, "duration": 61}, {"note": 73, "velocity": 114, "duration": 240}, {"note": 0, "velocity": 0, "duration": 240}, {"note": 71, "velocity": 110, "duration": 207}, {"note": 73, "velocity": 110, "duration": 195}, {"note": 75, "velocity": 108, "duration": 168}, {"note": 0, "velocity": 0, "duration": 72}, {"note": 78, "velocity": 110, "duration": 194}, {"note": 75, "velocity": 110, "duration": 220}, {"note": 73, "velocity": 110, "duration": 231}, {"note": 71, "velocity": 110, "duration": 249}, {"note": 0, "velocity": 0, "duration": 711}, {"note": 71, "velocity": 110, "duration": 140}, {"note": 0, "velocity": 0, "duration": 100}, {"note": 71, "velocity": 100, "duration": 132}, {"note": 0, "velocity": 0, "duration": 108}, {"note": 71, "velocity": 96, "duration": 123}, {"note": 0, "velocity": 0, "duration": 117}, {"note": 75, "velocity": 108, "duration": 148}, {"note": 0, "velocity": 0, "duration": 92}, {"note": 73, "velocity": 113, "duration": 217}, {"note": 75, "velocity": 114, "duration": 179}, {"note": 0, "velocity": 0, "duration": 61}, {"note": 78, "velocity": 116, "duration": 204}, {"note": 75, "velocity": 114, "duration": 176}, {"note": 0, "velocity": 0, "duration": 64}, {"note": 78, "velocity": 110, "duration": 143}, {"note": 0, "velocity": 0, "duration": 97}, {"note": 80, "velocity": 108, "duration": 131}, {"note": 0, "velocity": 0, "duration": 109}, {"note": 80, "velocity": 116, "duration": 125}, {"note": 0, "velocity": 0, "duration": 115}, {"note": 82, "velocity": 117, "duration": 156}, {"note": 0, "velocity": 0, "duration": 84}, {"note": 82, "velocity": 119, "duration": 205}, {"note": 0, "velocity": 0, "duration": 755}, {"note": 75, "velocity": 117, "duration": 168}, {"note": 0, "velocity": 0, "duration": 72}, {"note": 80, "velocity": 117, "duration": 147}, {"note": 0, "velocity": 0, "duration": 93}, {"note": 80, "velocity": 116, "duration": 173}, {"note": 0, "velocity": 0, "duration": 67}, {"note": 78, "velocity": 114, "duration": 170}, {"note": 0, "velocity": 0, "duration": 70}, {"note": 80, "velocity": 119, "duration": 221}, {"note": 0, "velocity": 0, "duration": 259}, {"note": 78, "velocity": 117, "duration": 182}, {"note": 75, "velocity": 102, "duration": 192}, {"note": 73, "velocity": 110, "duration": 260}, {"note": 0, "velocity": 0, "duration": 100}, {"note": 75, "velocity": 104, "duration": 86}, {"note": 78, "velocity": 110, "duration": 194}, {"note": 73, "velocity": 107, "duration": 219}, {"note": 75, "velocity": 110, "duration": 225}, {"note": 0, "velocity": 0, "duration": 735}, {"note": 80, "velocity": 113, "duration": 216}, {"note": 78, "velocity": 108, "duration": 144}, {"note": 0, "velocity": 0, "duration": 96}, {"note": 78, "velocity": 113, "duration": 218}, {"note": 75, "velocity": 110, "duration": 197}, {"note": 73, "velocity": 113, "duration": 232}, {"note": 75, "velocity": 107, "duration": 168}, {"note": 0, "velocity": 0, "duration": 72}, {"note": 80, "velocity": 113, "duration": 165}, {"note": 0, "velocity": 0, "duration": 75}, {"note": 78, "velocity": 114, "duration": 208}, {"note": 75, "velocity": 110, "duration": 268}, {"note": 0, "velocity": 0, "duration": 1652}, {"note": 73, "velocity": 116, "duration": 159}, {"note": 0, "velocity": 0, "duration": 81}, {"note": 75, "velocity": 116, "duration": 166}, {"note": 0, "velocity": 0, "duration": 74}, {"note": 73, "velocity": 113, "duration": 167}, {"note": 0, "velocity": 0, "duration": 73}, {"note": 71, "velocity": 108, "duration": 179}, {"note": 0, "velocity": 0, "duration": 61}, {"note": 73, "velocity": 114, "duration": 240}, {"note": 0, "velocity": 0, "duration": 240}, {"note": 71, "velocity": 110, "duration": 207}, {"note": 73, "velocity": 110, "duration": 195}, {"note": 75, "velocity": 108, "duration": 168}, {"note": 0, "velocity": 0, "duration": 72}, {"note": 78, "velocity": 110, "duration": 194}, {"note": 78, "velocity": 110, "duration": 220}, {"note": 75, "velocity": 110, "duration": 231}, {"note": 80, "velocity": 110, "duration": 249}, {"note": 0, "velocity": 0, "duration": 711}, {"note": 80, "velocity": 116, "duration": 238}, {"note": 78, "velocity": 114, "duration": 204}, {"note": 80, "velocity": 113, "duration": 284}, {"note": 83, "velocity": 108, "duration": 214}, {"note": 85, "velocity": 116, "duration": 199}, {"note": 83, "velocity": 107, "duration": 222}, {"note": 82, "velocity": 108, "duration": 227}, {"note": 80, "velocity": 117, "duration": 190}, {"note": 78, "velocity": 114, "duration": 216}, {"note": 75, "velocity": 107, "duration": 202}, {"note": 78, "velocity": 113, "duration": 174}, {"note": 0, "velocity": 0, "duration": 66}, {"note": 80, "velocity": 114, "duration": 153}, {"note": 0, "velocity": 0, "duration": 87}, {"note": 80, "velocity": 114, "duration": 214}, {"note": 0, "velocity": 0, "duration": 16106}, {"note": 68, "velocity": 113, "duration": 197}, {"note": 75, "velocity": 108, "duration": 144}, {"note": 0, "velocity": 0, "duration": 96}, {"note": 75, "velocity": 108, "duration": 181}, {"note": 73, "velocity": 113, "duration": 170}, {"note": 0, "velocity": 0, "duration": 70}, {"note": 75, "velocity": 113, "duration": 338}, {"note": 0, "velocity": 0, "duration": 622}, {"note": 66, "velocity": 114, "duration": 223}, {"note": 63, "velocity": 96, "duration": 219}, {"note": 66, "velocity": 107, "duration": 143}, {"note": 0, "velocity": 0, "duration": 97}, {"note": 70, "velocity": 117, "duration": 209}, {"note": 68, "velocity": 116, "duration": 300}, {"note": 0, "velocity": 0, "duration": 660}, {"note": 68, "velocity": 113, "duration": 223}, {"note": 66, "velocity": 102, "duration": 244}, {"note": 68, "velocity": 110, "duration": 276}, {"note": 71, "velocity": 107, "duration": 255}, {"note": 73, "velocity": 113, "duration": 185}, {"note": 71, "velocity": 94, "duration": 206}, {"note": 73, "velocity": 100, "duration": 200}, {"note": 71, "velocity": 94, "duration": 144}, {"note": 73, "velocity": 91, "duration": 82}, {"note": 75, "velocity": 104, "duration": 238}, {"note": 0, "velocity": 0, "duration": 1682}, {"note": 73, "velocity": 113, "duration": 199}, {"note": 75, "velocity": 98, "duration": 213}, {"note": 73, "velocity": 110, "duration": 214}, {"note": 71, "velocity": 100, "duration": 254}, {"note": 73, "velocity": 108, "duration": 387}, {"note": 0, "velocity": 0, "duration": 333}, {"note": 71, "velocity": 96, "duration": 78}, {"note": 73, "velocity": 91, "duration": 78}, {"note": 75, "velocity": 98, "duration": 218}, {"note": 73, "velocity": 102, "duration": 225}, {"note": 73, "velocity": 93, "duration": 180}, {"note": 75, "velocity": 94, "duration": 223}, {"note": 68, "velocity": 91, "duration": 282}, {"note": 0, "velocity": 0, "duration": 678}, {"note": 68, "velocity": 110, "duration": 224}, {"note": 66, "velocity": 96, "duration": 227}, {"note": 66, "velocity": 96, "duration": 240}, {"note": 71, "velocity": 102, "duration": 179}, {"note": 0, "velocity": 0, "duration": 61}, {"note": 73, "velocity": 108, "duration": 223}, {"note": 0, "velocity": 0, "duration": 137}, {"note": 75, "velocity": 90, "duration": 111}, {"note": 73, "velocity": 100, "duration": 193}, {"note": 0, "velocity": 0, "duration": 287}, {"note": 66, "velocity": 113, "duration": 188}, {"note": 68, "velocity": 110, "duration": 166}, {"note": 0, "velocity": 0, "duration": 74}, {"note": 71, "velocity": 108, "duration": 158}, {"note": 0, "velocity": 0, "duration": 82}, {"note": 68, "velocity": 108, "duration": 146}, {"note": 0, "velocity": 0, "duration": 94}, {"note": 68, "velocity": 110, "duration": 228}, {"note": 0, "velocity": 0, "duration": 732}, {"note": 68, "velocity": 113, "duration": 197}, {"note": 75, "velocity": 108, "duration": 144}, {"note": 0, "velocity": 0, "duration": 96}, {"note": 75, "velocity": 108, "duration": 181}, {"note": 73, "velocity": 113, "duration": 170}, {"note": 0, "velocity": 0, "duration": 70}, {"note": 75, "velocity": 113, "duration": 338}, {"note": 0, "velocity": 0, "duration": 622}, {"note": 66, "velocity": 114, "duration": 223}, {"note": 63, "velocity": 96, "duration": 219}, {"note": 66, "velocity": 107, "duration": 143}, {"note": 0, "velocity": 0, "duration": 97}, {"note": 70, "velocity": 117, "duration": 209}, {"note": 68, "velocity": 116, "duration": 300}, {"note": 0, "velocity": 0, "duration": 660}, {"note": 68, "velocity": 113, "duration": 223}, {"note": 66, "velocity": 102, "duration": 244}, {"note": 68, "velocity": 110, "duration": 276}, {"note": 71, "velocity": 107, "duration": 255}, {"note": 73, "velocity": 113, "duration": 185}, {"note": 71, "velocity": 94, "duration": 206}, {"note": 73, "velocity": 100, "duration": 200}, {"note": 78, "velocity": 94, "duration": 144}, {"note": 0, "velocity": 0, "duration": 96}, {"note": 75, "velocity": 104, "duration": 238}, {"note": 0, "velocity": 0, "duration": 1682}, {"note": 73, "velocity": 113, "duration": 199}, {"note": 75, "velocity": 98, "duration": 213}, {"note": 73, "velocity": 110, "duration": 214}, {"note": 71, "velocity": 100, "duration": 254}, {"note": 73, "velocity": 108, "duration": 387}, {"note": 0, "velocity": 0, "duration": 333}, {"note": 71, "velocity": 96, "duration": 78}, {"note": 73, "velocity": 91, "duration": 78}, {"note": 75, "velocity": 98, "duration": 218}, {"note": 73, "velocity": 102, "duration": 225}, {"note": 73, "velocity": 93, "duration": 180}, {"note": 75, "velocity": 94, "duration": 223}, {"note": 68, "velocity": 91, "duration": 282}, {"note": 0, "velocity": 0, "duration": 678}, {"note": 68, "velocity": 110, "duration": 224}, {"note": 66, "velocity": 96, "duration": 227}, {"note": 66, "velocity": 96, "duration": 240}, {"note": 71, "velocity": 102, "duration": 179}, {"note": 0, "velocity": 0, "duration": 61}, {"note": 73, "velocity": 108, "duration": 223}, {"note": 73, "velocity": 108, "duration": 226}, {"note": 75, "velocity": 108, "duration": 194}, {"note": 78, "velocity": 108, "duration": 143}, {"note": 0, "velocity": 0, "duration": 97}, {"note": 78, "velocity": 114, "duration": 194}, {"note": 75, "velocity": 107, "duration": 165}, {"note": 0, "velocity": 0, "duration": 75}, {"note": 78, "velocity": 114, "duration": 164}, {"note": 0, "velocity": 0, "duration": 76}, {"note": 80, "velocity": 113, "duration": 147}, {"note": 0, "velocity": 0, "duration": 93}, {"note": 80, "velocity": 119, "duration": 223}, {"note": 0, "velocity": 0, "duration": 737}, {"note": 75, "velocity": 117, "duration": 168}, {"note": 0, "velocity": 0, "duration": 72}, {"note": 80, "velocity": 117, "duration": 147}, {"note": 0, "velocity": 0, "duration": 93}, {"note": 80, "velocity": 116, "duration": 173}, {"note": 0, "velocity": 0, "duration": 67}, {"note": 78, "velocity": 114, "duration": 170}, {"note": 0, "velocity": 0, "duration": 70}, {"note": 80, "velocity": 119, "duration": 221}, {"note": 0, "velocity": 0, "duration": 259}, {"note": 78, "velocity": 117, "duration": 182}, {"note": 75, "velocity": 102, "duration": 192}, {"note": 73, "velocity": 110, "duration": 260}, {"note": 0, "velocity": 0, "duration": 100}, {"note": 75, "velocity": 104, "duration": 86}, {"note": 78, "velocity": 110, "duration": 194}, {"note": 73, "velocity": 107, "duration": 219}, {"note": 75, "velocity": 110, "duration": 225}, {"note": 0, "velocity": 0, "duration": 735}, {"note": 80, "velocity": 113, "duration": 216}, {"note": 78, "velocity": 108, "duration": 144}, {"note": 0, "velocity": 0, "duration": 96}, {"note": 78, "velocity": 113, "duration": 218}, {"note": 75, "velocity": 110, "duration": 197}, {"note": 73, "velocity": 113, "duration": 232}, {"note": 75, "velocity": 107, "duration": 168}, {"note": 0, "velocity": 0, "duration": 72}, {"note": 80, "velocity": 113, "duration": 165}, {"note": 0, "velocity": 0, "duration": 75}, {"note": 78, "velocity": 114, "duration": 208}, {"note": 75, "velocity": 110, "duration": 268}, {"note": 0, "velocity": 0, "duration": 1652}, {"note": 73, "velocity": 116, "duration": 159}, {"note": 0, "velocity": 0, "duration": 81}, {"note": 75, "velocity": 116, "duration": 166}, {"note": 0, "velocity": 0, "duration": 74}, {"note": 73, "velocity": 113, "duration": 167}, {"note": 0, "velocity": 0, "duration": 73}, {"note": 71, "velocity": 108, "duration": 179}, {"note": 0, "velocity": 0, "duration": 61}, {"note": 73, "velocity": 114, "duration": 240}, {"note": 0, "velocity": 0, "duration": 240}, {"note": 71, "velocity": 110, "duration": 207}, {"note": 73, "velocity": 110, "duration": 195}, {"note": 75, "velocity": 108, "duration": 168}, {"note": 0, "velocity": 0, "duration": 72}, {"note": 78, "velocity": 110, "duration": 194}, {"note": 75, "velocity": 110, "duration": 220}, {"note": 73, "velocity": 110, "duration": 231}, {"note": 71, "velocity": 110, "duration": 249}, {"note": 0, "velocity": 0, "duration": 711}, {"note": 71, "velocity": 110, "duration": 140}, {"note": 0, "velocity": 0, "duration": 100}, {"note": 71, "velocity": 100, "duration": 132}, {"note": 0, "velocity": 0, "duration": 108}, {"note": 71, "velocity": 96, "duration": 123}, {"note": 0, "velocity": 0, "duration": 117}, {"note": 75, "velocity": 108, "duration": 148}, {"note": 0, "velocity": 0, "duration": 92}, {"note": 73, "velocity": 113, "duration": 217}, {"note": 75, "velocity": 114, "duration": 179}, {"note": 0, "velocity": 0, "duration": 61}, {"note": 78, "velocity": 116, "duration": 204}, {"note": 75, "velocity": 114, "duration": 176}, {"note": 0, "velocity": 0, "duration": 64}, {"note": 78, "velocity": 110, "duration": 143}, {"note": 0, "velocity": 0, "duration": 97}, {"note": 80, "velocity": 108, "duration": 131}, {"note": 0, "velocity": 0, "duration": 109}, {"note": 80, "velocity": 116, "duration": 125}, {"note": 0, "velocity": 0, "duration": 115}, {"note": 82, "velocity": 117, "duration": 156}, {"note": 0, "velocity": 0, "duration": 84}, {"note": 82, "velocity": 119, "duration": 205}, {"note": 0, "velocity": 0, "duration": 755}, {"note": 75, "velocity": 117, "duration": 168}, {"note": 0, "velocity": 0, "duration": 72}, {"note": 80, "velocity": 117, "duration": 147}, {"note": 0, "velocity": 0, "duration": 93}, {"note": 80, "velocity": 116, "duration": 173}, {"note": 0, "velocity": 0, "duration": 67}, {"note": 78, "velocity": 114, "duration": 170}, {"note": 0, "velocity": 0, "duration": 70}, {"note": 80, "velocity": 119, "duration": 221}, {"note": 0, "velocity": 0, "duration": 259}, {"note": 78, "velocity": 117, "duration": 182}, {"note": 75, "velocity": 102, "duration": 192}, {"note": 73, "velocity": 110, "duration": 260}, {"note": 0, "velocity": 0, "duration": 100}, {"note": 75, "velocity": 104, "duration": 86}, {"note": 78, "velocity": 110, "duration": 194}, {"note": 73, "velocity": 107, "duration": 219}, {"note": 75, "velocity": 110, "duration": 225}, {"note": 0, "velocity": 0, "duration": 735}, {"note": 80, "velocity": 113, "duration": 216}, {"note": 78, "velocity": 108, "duration": 144}, {"note": 0, "velocity": 0, "duration": 96}, {"note": 78, "velocity": 113, "duration": 218}, {"note": 75, "velocity": 110, "duration": 197}, {"note": 73, "velocity": 113, "duration": 232}, {"note": 75, "velocity": 107, "duration": 168}, {"note": 0, "velocity": 0, "duration": 72}, {"note": 80, "velocity": 113, "duration": 165}, {"note": 0, "velocity": 0, "duration": 75}, {"note": 78, "velocity": 114, "duration": 208}, {"note": 75, "velocity": 110, "duration": 268}, {"note": 0, "velocity": 0, "duration": 1652}, {"note": 73, "velocity": 116, "duration": 159}, {"note": 0, "velocity": 0, "duration": 81}, {"note": 75, "velocity": 116, "duration": 166}, {"note": 0, "velocity": 0, "duration": 74}, {"note": 73, "velocity": 113, "duration": 167}, {"note": 0, "velocity": 0, "duration": 73}, {"note": 71, "velocity": 108, "duration": 179}, {"note": 0, "velocity": 0, "duration": 61}, {"note": 73, "velocity": 114, "duration": 240}, {"note": 0, "velocity": 0, "duration": 240}, {"note": 71, "velocity": 110, "duration": 207}, {"note": 73, "velocity": 110, "duration": 195}, {"note": 75, "velocity": 108, "duration": 168}, {"note": 0, "velocity": 0, "duration": 72}, {"note": 78, "velocity": 110, "duration": 194}, {"note": 78, "velocity": 110, "duration": 220}, {"note": 75, "velocity": 110, "duration": 231}, {"note": 80, "velocity": 110, "duration": 249}, {"note": 0, "velocity": 0, "duration": 711}, {"note": 80, "velocity": 116, "duration": 238}, {"note": 78, "velocity": 114, "duration": 204}, {"note": 80, "velocity": 113, "duration": 284}, {"note": 83, "velocity": 108, "duration": 214}, {"note": 85, "velocity": 116, "duration": 199}, {"note": 83, "velocity": 107, "duration": 222}, {"note": 82, "velocity": 108, "duration": 227}, {"note": 80, "velocity": 117, "duration": 190}, {"note": 78, "velocity": 114, "duration": 216}, {"note": 75, "velocity": 107, "duration": 202}, {"note": 78, "velocity": 113, "duration": 174}, {"note": 0, "velocity": 0, "duration": 66}, {"note": 80, "velocity": 114, "duration": 153}, {"note": 0, "velocity": 0, "duration": 87}, {"note": 80, "velocity": 114, "duration": 214}, {"note": 0, "velocity": 0, "duration": 746}, {"note": 75, "velocity": 117, "duration": 168}, {"note": 0, "velocity": 0, "duration": 72}, {"note": 80, "velocity": 117, "duration": 147}, {"note": 0, "velocity": 0, "duration": 93}, {"note": 80, "velocity": 116, "duration": 173}, {"note": 0, "velocity": 0, "duration": 67}, {"note": 78, "velocity": 114, "duration": 170}, {"note": 0, "velocity": 0, "duration": 70}, {"note": 80, "velocity": 119, "duration": 221}, {"note": 0, "velocity": 0, "duration": 259}, {"note": 78, "velocity": 117, "duration": 182}, {"note": 75, "velocity": 102, "duration": 192}, {"note": 73, "velocity": 110, "duration": 260}, {"note": 0, "velocity": 0, "duration": 100}, {"note": 75, "velocity": 104, "duration": 86}, {"note": 78, "velocity": 110, "duration": 194}, {"note": 73, "velocity": 107, "duration": 219}, {"note": 75, "velocity": 110, "duration": 225}, {"note": 0, "velocity": 0, "duration": 735}, {"note": 80, "velocity": 113, "duration": 216}, {"note": 78, "velocity": 108, "duration": 144}, {"note": 0, "velocity": 0, "duration": 96}, {"note": 78, "velocity": 113, "duration": 218}, {"note": 75, "velocity": 110, "duration": 197}, {"note": 73, "velocity": 113, "duration": 232}, {"note": 75, "velocity": 107, "duration": 168}, {"note": 0, "velocity": 0, "duration": 72}, {"note": 80, "velocity": 113, "duration": 165}, {"note": 0, "velocity": 0, "duration": 75}, {"note": 78, "velocity": 114, "duration": 208}, {"note": 75, "velocity": 110, "duration": 268}, {"note": 0, "velocity": 0, "duration": 1652}, {"note": 73, "velocity": 116, "duration": 159}, {"note": 0, "velocity": 0, "duration": 81}, {"note": 75, "velocity": 116, "duration": 166}, {"note": 0, "velocity": 0, "duration": 74}, {"note": 73, "velocity": 113, "duration": 167}, {"note": 0, "velocity": 0, "duration": 73}, {"note": 71, "velocity": 108, "duration": 179}, {"note": 0, "velocity": 0, "duration": 61}, {"note": 73, "velocity": 114, "duration": 240}, {"note": 0, "velocity": 0, "duration": 240}, {"note": 71, "velocity": 110, "duration": 207}, {"note": 73, "velocity": 110, "duration": 195}, {"note": 75, "velocity": 108, "duration": 168}, {"note": 0, "velocity": 0, "duration": 72}, {"note": 78, "velocity": 110, "duration": 194}, {"note": 75, "velocity": 110, "duration": 220}, {"note": 73, "velocity": 110, "duration": 231}, {"note": 71, "velocity": 110, "duration": 249}, {"note": 0, "velocity": 0, "duration": 711}, {"note": 71, "velocity": 110, "duration": 140}, {"note": 0, "velocity": 0, "duration": 100}, {"note": 71, "velocity": 100, "duration": 132}, {"note": 0, "velocity": 0, "duration": 108}, {"note": 71, "velocity": 96, "duration": 123}, {"note": 0, "velocity": 0, "duration": 117}, {"note": 75, "velocity": 108, "duration": 148}, {"note": 0, "velocity": 0, "duration": 92}, {"note": 73, "velocity": 113, "duration": 217}, {"note": 75, "velocity": 114, "duration": 179}, {"note": 0, "velocity": 0, "duration": 61}, {"note": 78, "velocity": 116, "duration": 204}, {"note": 75, "velocity": 114, "duration": 176}, {"note": 0, "velocity": 0, "duration": 64}, {"note": 78, "velocity": 110, "duration": 143}, {"note": 0, "velocity": 0, "duration": 97}, {"note": 80, "velocity": 108, "duration": 131}, {"note": 0, "velocity": 0, "duration": 109}, {"note": 80, "velocity": 116, "duration": 125}, {"note": 0, "velocity": 0, "duration": 115}, {"note": 82, "velocity": 117, "duration": 156}, {"note": 0, "velocity": 0, "duration": 84}, {"note": 82, "velocity": 119, "duration": 205}, {"note": 0, "velocity": 0, "duration": 755}, {"note": 75, "velocity": 117, "duration": 168}, {"note": 0, "velocity": 0, "duration": 72}, {"note": 80, "velocity": 117, "duration": 147}, {"note": 0, "velocity": 0, "duration": 93}, {"note": 80, "velocity": 116, "duration": 173}, {"note": 0, "velocity": 0, "duration": 67}, {"note": 78, "velocity": 114, "duration": 170}, {"note": 0, "velocity": 0, "duration": 70}, {"note": 80, "velocity": 119, "duration": 221}, {"note": 0, "velocity": 0, "duration": 259}, {"note": 78, "velocity": 117, "duration": 182}, {"note": 75, "velocity": 102, "duration": 192}, {"note": 73, "velocity": 110, "duration": 260}, {"note": 0, "velocity": 0, "duration": 100}, {"note": 75, "velocity": 104, "duration": 86}, {"note": 78, "velocity": 110, "duration": 194}, {"note": 73, "velocity": 107, "duration": 219}, {"note": 75, "velocity": 110, "duration": 225}, {"note": 0, "velocity": 0, "duration": 735}, {"note": 80, "velocity": 113, "duration": 216}, {"note": 78, "velocity": 108, "duration": 144}, {"note": 0, "velocity": 0, "duration": 96}, {"note": 78, "velocity": 113, "duration": 218}, {"note": 75, "velocity": 110, "duration": 197}, {"note": 73, "velocity": 113, "duration": 232}, {"note": 75, "velocity": 107, "duration": 168}, {"note": 0, "velocity": 0, "duration": 72}, {"note": 80, "velocity": 113, "duration": 165}, {"note": 0, "velocity": 0, "duration": 75}, {"note": 78, "velocity": 114, "duration": 208}, {"note": 75, "velocity": 110, "duration": 268}, {"note": 0, "velocity": 0, "duration": 1652}, {"note": 73, "velocity": 116, "duration": 159}, {"note": 0, "velocity": 0, "duration": 81}, {"note": 75, "velocity": 116, "duration": 166}, {"note": 0, "velocity": 0, "duration": 74}, {"note": 73, "velocity": 113, "duration": 167}, {"note": 0, "velocity": 0, "duration": 73}, {"note": 71, "velocity": 108, "duration": 179}, {"note": 0, "velocity": 0, "duration": 61}, {"note": 73, "velocity": 114, "duration": 240}, {"note": 0, "velocity": 0, "duration": 240}, {"note": 71, "velocity": 110, "duration": 207}, {"note": 73, "velocity": 110, "duration": 195}, {"note": 75, "velocity": 108, "duration": 168}, {"note": 0, "velocity": 0, "duration": 72}, {"note": 78, "velocity": 110, "duration": 194}, {"note": 78, "velocity": 110, "duration": 220}, {"note": 75, "velocity": 110, "duration": 231}, {"note": 80, "velocity": 110, "duration": 249}, {"note": 0, "velocity": 0, "duration": 711}, {"note": 80, "velocity": 116, "duration": 238}, {"note": 78, "velocity": 114, "duration": 204}, {"note": 80, "velocity": 113, "duration": 284}, {"note": 83, "velocity": 108, "duration": 214}, {"note": 85, "velocity": 116, "duration": 199}, {"note": 83, "velocity": 107, "duration": 222}, {"note": 82, "velocity": 108, "duration": 227}, {"note": 80, "velocity": 117, "duration": 190}, {"note": 78, "velocity": 114, "duration": 216}, {"note": 75, "velocity": 107, "duration": 202}, {"note": 78, "velocity": 113, "duration": 174}, {"note": 0, "velocity": 0, "duration": 66}, {"note": 80, "velocity": 114, "duration": 153}, {"note": 0, "velocity": 0, "duration": 87}, {"note": 80, "velocity": 114, "duration": 214}]]