[[{"note": 73, "velocity": 114, "duration": 199}, {"note": 70, "velocity": 107, "duration": 125}, {"note": 0, "velocity": 0, "duration": 115}, {"note": 70, "velocity": 107, "duration": 149}, {"note": 0, "velocity": 0, "duration": 91}, {"note": 73, "velocity": 108, "duration": 103}, {"note": 0, "velocity": 0, "duration": 137}, {"note": 73, "velocity": 108, "duration": 139}, {"note": 0, "velocity": 0, "duration": 101}, {"note": 66, "velocity": 96, "duration": 173}, {"note": 0, "velocity": 0, "duration": 547}, {"note": 73, "velocity": 108, "duration": 146}, {"note": 0, "velocity": 0, "duration": 94}, {"note": 70, "velocity": 100, "duration": 117}, {"note": 0, "velocity": 0, "duration": 123}, {"note": 70, "velocity": 107, "duration": 110}, {"note": 0, "velocity": 0, "duration": 130}, {"note": 75, "velocity": 116, "duration": 164}, {"note": 0, "velocity": 0, "duration": 76}, {"note": 73, "velocity": 113, "duration": 176}, {"note": 0, "velocity": 0, "duration": 64}, {"note": 70, "velocity": 113, "duration": 215}, {"note": 0, "velocity": 0, "duration": 505}, {"note": 78, "velocity": 117, "duration": 189}, {"note": 75, "velocity": 113, "duration": 115}, {"note": 0, "velocity": 0, "duration": 125}, {"note": 75, "velocity": 114, "duration": 191}, {"note": 78, "velocity": 116, "duration": 187}, {"note": 66, "velocity": 114, "duration": 170}, {"note": 0, "velocity": 0, "duration": 70}, {"note": 68, "velocity": 114, "duration": 259}, {"note": 0, "velocity": 0, "duration": 221}, {"note": 70, "velocity": 119, "duration": 290}, {"note": 0, "velocity": 0, "duration": 1870}, {"note": 73, "velocity": 114, "duration": 199}, {"note": 70, "velocity": 107, "duration": 125}, {"note": 0, "velocity": 0, "duration": 115}, {"note": 70, "velocity": 107, "duration": 149}, {"note": 0, "velocity": 0, "duration": 91}, {"note": 73, "velocity": 108, "duration": 103}, {"note": 0, "velocity": 0, "duration": 137}, {"note": 73, "velocity": 108, "duration": 139}, {"note": 0, "velocity": 0, "duration": 101}, {"note": 66, "velocity": 96, "duration": 173}, {"note": 0, "velocity": 0, "duration": 547}, {"note": 73, "velocity": 108, "duration": 146}, {"note": 0, "velocity": 0, "duration": 94}, {"note": 70, "velocity": 100, "duration": 117}, {"note": 0, "velocity": 0, "duration": 123}, {"note": 70, "velocity": 107, "duration": 110}, {"note": 0, "velocity": 0, "duration": 130}, {"note": 75, "velocity": 116, "duration": 164}, {"note": 0, "velocity": 0, "duration": 76}, {"note": 73, "velocity": 113, "duration": 176}, {"note": 0, "velocity": 0, "duration": 64}, {"note": 70, "velocity": 113, "duration": 215}, {"note": 0, "velocity": 0, "duration": 505}, {"note": 78, "velocity": 117, "duration": 189}, {"note": 75, "velocity": 113, "duration": 115}, {"note": 0, "velocity": 0, "duration": 125}, {"note": 75, "velocity": 114, "duration": 191}, {"note": 78, "velocity": 116, "duration": 187}, {"note": 66, "velocity": 114, "duration": 170}, {"note": 0, "velocity": 0, "duration": 70}, {"note": 68, "velocity": 114, "duration": 259}, {"note": 0, "velocity": 0, "duration": 221}, {"note": 66, "velocity": 119, "duration": 290}, {"note": 0, "velocity": 0, "duration": 1390}, {"note": 66, "velocity": 100, "duration": 110}, {"note": 0, "velocity": 0, "duration": 130}, {"note": 78, "velocity": 116, "duration": 120}, {"note": 0, "velocity": 0, "duration": 120}, {"note": 78, "velocity": 117, "duration": 187}, {"note": 77, "velocity": 117, "duration": 79}, {"note": 0, "velocity": 0, "duration": 161}, {"note": 77, "velocity": 113, "duration": 117}, {"note": 0, "velocity": 0, "duration": 123}, {"note": 75, "velocity": 113, "duration": 113}, {"note": 0, "velocity": 0, "duration": 127}, {"note": 75, "velocity": 116, "duration": 164}, {"note": 0, "velocity": 0, "duration": 76}, {"note": 77, "velocity": 108, "duration": 171}, {"note": 0, "velocity": 0, "duration": 69}, {"note": 70, "velocity": 108, "duration": 171}, {"note": 0, "velocity": 0, "duration": 69}, {"note": 73, "velocity": 113, "duration": 311}, {"note": 0, "velocity": 0, "duration": 1369}, {"note": 70, "velocity": 116, "duration": 197}, {"note": 73, "velocity": 110, "duration": 176}, {"note": 0, "velocity": 0, "duration": 64}, {"note": 75, "velocity": 110, "duration": 138}, {"note": 0, "velocity": 0, "duration": 102}, {"note": 75, "velocity": 104, "duration": 54}, {"note": 0, "velocity": 0, "duration": 66}, {"note": 75, "velocity": 108, "duration": 74}, {"note": 0, "velocity": 0, "duration": 286}, {"note": 75, "velocity": 100, "duration": 106}, {"note": 0, "velocity": 0, "duration": 134}, {"note": 75, "velocity": 116, "duration": 175}, {"note": 0, "velocity": 0, "duration": 65}, {"note": 73, "velocity": 113, "duration": 208}, {"note": 66, "velocity": 110, "duration": 169}, {"note": 0, "velocity": 0, "duration": 71}, {"note": 73, "velocity": 116, "duration": 249}, {"note": 0, "velocity": 0, "duration": 231}, {"note": 70, "velocity": 117, "duration": 227}, {"note": 0, "velocity": 0, "duration": 853}, {"note": 70, "velocity": 113, "duration": 215}, {"note": 0, "velocity": 0, "duration": 145}, {"note": 73, "velocity": 110, "duration": 137}, {"note": 0, "velocity": 0, "duration": 103}, {"note": 78, "velocity": 114, "duration": 122}, {"note": 0, "velocity": 0, "duration": 118}, {"note": 77, "velocity": 110, "duration": 109}, {"note": 0, "velocity": 0, "duration": 131}, {"note": 77, "velocity": 116, "duration": 124}, {"note": 0, "velocity": 0, "duration": 116}, {"note": 75, "velocity": 116, "duration": 121}, {"note": 0, "velocity": 0, "duration": 119}, {"note": 75, "velocity": 117, "duration": 172}, {"note": 0, "velocity": 0, "duration": 68}, {"note": 82, "velocity": 110, "duration": 264}, {"note": 0, "velocity": 0, "duration": 216}, {"note": 77, "velocity": 116, "duration": 228}, {"note": 0, "velocity": 0, "duration": 1212}, {"note": 70, "velocity": 113, "duration": 141}, {"note": 0, "velocity": 0, "duration": 99}, {"note": 70, "velocity": 113, "duration": 178}, {"note": 0, "velocity": 0, "duration": 62}, {"note": 73, "velocity": 113, "duration": 139}, {"note": 0, "velocity": 0, "duration": 101}, {"note": 75, "velocity": 116, "duration": 155}, {"note": 0, "velocity": 0, "duration": 85}, {"note": 73, "velocity": 114, "duration": 135}, {"note": 0, "velocity": 0, "duration": 105}, {"note": 75, "velocity": 116, "duration": 151}, {"note": 0, "velocity": 0, "duration": 89}, {"note": 73, "velocity": 116, "duration": 134}, {"note": 0, "velocity": 0, "duration": 106}, {"note": 75, "velocity": 119, "duration": 187}, {"note": 78, "velocity": 117, "duration": 251}, {"note": 0, "velocity": 0, "duration": 229}, {"note": 80, "velocity": 120, "duration": 220}, {"note": 0, "velocity": 0, "duration": 260}, {"note": 80, "velocity": 119, "duration": 102}, {"note": 0, "velocity": 0, "duration": 138}, {"note": 80, "velocity": 120, "duration": 149}, {"note": 0, "velocity": 0, "duration": 331}, {"note": 70, "velocity": 117, "duration": 295}, {"note": 0, "velocity": 0, "duration": 185}, {"note": 73, "velocity": 119, "duration": 228}, {"note": 0, "velocity": 0, "duration": 252}, {"note": 82, "velocity": 119, "duration": 120}, {"note": 0, "velocity": 0, "duration": 120}, {"note": 82, "velocity": 117, "duration": 98}, {"note": 0, "velocity": 0, "duration": 142}, {"note": 82, "velocity": 119, "duration": 99}, {"note": 0, "velocity": 0, "duration": 141}, {"note": 82, "velocity": 117, "duration": 98}, {"note": 0, "velocity": 0, "duration": 142}, {"note": 82, "velocity": 119, "duration": 149}, {"note": 0, "velocity": 0, "duration": 211}, {"note": 78, "velocity": 117, "duration": 226}, {"note": 0, "velocity": 0, "duration": 134}, {"note": 75, "velocity": 117, "duration": 127}, {"note": 0, "velocity": 0, "duration": 113}, {"note": 80, "velocity": 120, "duration": 288}, {"note": 0, "velocity": 0, "duration": 432}, {"note": 80, "velocity": 114, "duration": 120}, {"note": 0, "velocity": 0, "duration": 120}, {"note": 80, "velocity": 113, "duration": 297}, {"note": 0, "velocity": 0, "duration": 183}, {"note": 78, "velocity": 114, "duration": 93}, {"note": 0, "velocity": 0, "duration": 147}, {"note": 78, "velocity": 113, "duration": 127}, {"note": 0, "velocity": 0, "duration": 113}, {"note": 77, "velocity": 117, "duration": 204}, {"note": 77, "velocity": 110, "duration": 100}, {"note": 0, "velocity": 0, "duration": 140}, {"note": 77, "velocity": 116, "duration": 96}, {"note": 0, "velocity": 0, "duration": 144}, {"note": 77, "velocity": 119, "duration": 101}, {"note": 0, "velocity": 0, "duration": 139}, {"note": 77, "velocity": 119, "duration": 148}, {"note": 0, "velocity": 0, "duration": 92}, {"note": 73, "velocity": 116, "duration": 204}, {"note": 70, "velocity": 108, "duration": 134}, {"note": 0, "velocity": 0, "duration": 106}, {"note": 78, "velocity": 117, "duration": 309}, {"note": 0, "velocity": 0, "duration": 1371}, {"note": 73, "velocity": 113, "duration": 209}, {"note": 75, "velocity": 114, "duration": 202}, {"note": 78, "velocity": 113, "duration": 162}, {"note": 0, "velocity": 0, "duration": 78}, {"note": 75, "velocity": 114, "duration": 134}, {"note": 0, "velocity": 0, "duration": 106}, {"note": 75, "velocity": 119, "duration": 178}, {"note": 0, "velocity": 0, "duration": 62}, {"note": 73, "velocity": 116, "duration": 168}, {"note": 0, "velocity": 0, "duration": 72}, {"note": 75, "velocity": 119, "duration": 240}, {"note": 0, "velocity": 0, "duration": 240}, {"note": 75, "velocity": 117, "duration": 215}, {"note": 73, "velocity": 110, "duration": 125}, {"note": 0, "velocity": 0, "duration": 115}, {"note": 82, "velocity": 117, "duration": 222}, {"note": 0, "velocity": 0, "duration": 138}, {"note": 80, "velocity": 120, "duration": 212}, {"note": 0, "velocity": 0, "duration": 148}, {"note": 80, "velocity": 119, "duration": 182}, {"note": 73, "velocity": 110, "duration": 233}, {"note": 0, "velocity": 0, "duration": 247}, {"note": 75, "velocity": 117, "duration": 228}, {"note": 0, "velocity": 0, "duration": 252}, {"note": 82, "velocity": 120, "duration": 146}, {"note": 0, "velocity": 0, "duration": 94}, {"note": 82, "velocity": 123, "duration": 143}, {"note": 0, "velocity": 0, "duration": 97}, {"note": 82, "velocity": 120, "duration": 133}, {"note": 0, "velocity": 0, "duration": 107}, {"note": 82, "velocity": 119, "duration": 132}, {"note": 0, "velocity": 0, "duration": 108}, {"note": 82, "velocity": 123, "duration": 204}, {"note": 0, "velocity": 0, "duration": 156}, {"note": 78, "velocity": 117, "duration": 219}, {"note": 0, "velocity": 0, "duration": 141}, {"note": 75, "velocity": 119, "duration": 131}, {"note": 0, "velocity": 0, "duration": 109}, {"note": 80, "velocity": 123, "duration": 203}, {"note": 0, "velocity": 0, "duration": 157}, {"note": 80, "velocity": 114, "duration": 62}, {"note": 80, "velocity": 119, "duration": 192}, {"note": 0, "velocity": 0, "duration": 288}, {"note": 80, "velocity": 119, "duration": 342}, {"note": 0, "velocity": 0, "duration": 138}, {"note": 78, "velocity": 119, "duration": 251}, {"note": 0, "velocity": 0, "duration": 229}, {"note": 77, "velocity": 120, "duration": 196}, {"note": 77, "velocity": 113, "duration": 123}, {"note": 0, "velocity": 0, "duration": 117}, {"note": 77, "velocity": 114, "duration": 140}, {"note": 0, "velocity": 0, "duration": 100}, {"note": 78, "velocity": 116, "duration": 157}, {"note": 0, "velocity": 0, "duration": 83}, {"note": 77, "velocity": 117, "duration": 150}, {"note": 0, "velocity": 0, "duration": 90}, {"note": 73, "velocity": 114, "duration": 191}, {"note": 0, "velocity": 0, "duration": 289}, {"note": 80, "velocity": 119, "duration": 237}, {"note": 0, "velocity": 0, "duration": 243}, {"note": 80, "velocity": 117, "duration": 180}, {"note": 78, "velocity": 116, "duration": 223}, {"note": 0, "velocity": 0, "duration": 497}, {"note": 73, "velocity": 113, "duration": 123}, {"note": 0, "velocity": 0, "duration": 117}, {"note": 73, "velocity": 110, "duration": 169}, {"note": 0, "velocity": 0, "duration": 71}, {"note": 75, "velocity": 114, "duration": 144}, {"note": 0, "velocity": 0, "duration": 96}, {"note": 78, "velocity": 117, "duration": 168}, {"note": 0, "velocity": 0, "duration": 72}, {"note": 75, "velocity": 110, "duration": 96}, {"note": 0, "velocity": 0, "duration": 144}, {"note": 75, "velocity": 119, "duration": 156}, {"note": 0, "velocity": 0, "duration": 84}, {"note": 73, "velocity": 113, "duration": 132}, {"note": 0, "velocity": 0, "duration": 108}, {"note": 75, "velocity": 117, "duration": 124}, {"note": 0, "velocity": 0, "duration": 116}, {"note": 78, "velocity": 117, "duration": 196}, {"note": 0, "velocity": 0, "duration": 284}, {"note": 82, "velocity": 120, "duration": 314}, {"note": 0, "velocity": 0, "duration": 166}, {"note": 80, "velocity": 117, "duration": 98}, {"note": 0, "velocity": 0, "duration": 142}, {"note": 80, "velocity": 119, "duration": 153}, {"note": 0, "velocity": 0, "duration": 87}, {"note": 82, "velocity": 117, "duration": 164}, {"note": 0, "velocity": 0, "duration": 76}, {"note": 80, "velocity": 116, "duration": 171}, {"note": 0, "velocity": 0, "duration": 69}, {"note": 73, "velocity": 98, "duration": 201}, {"note": 75, "velocity": 107, "duration": 98}, {"note": 0, "velocity": 0, "duration": 142}, {"note": 78, "velocity": 116, "duration": 293}, {"note": 73, "velocity": 114, "duration": 199}, {"note": 70, "velocity": 107, "duration": 125}, {"note": 0, "velocity": 0, "duration": 115}, {"note": 70, "velocity": 107, "duration": 149}, {"note": 0, "velocity": 0, "duration": 91}, {"note": 73, "velocity": 108, "duration": 103}, {"note": 0, "velocity": 0, "duration": 137}, {"note": 73, "velocity": 108, "duration": 139}, {"note": 0, "velocity": 0, "duration": 101}, {"note": 66, "velocity": 96, "duration": 173}, {"note": 0, "velocity": 0, "duration": 547}, {"note": 73, "velocity": 108, "duration": 146}, {"note": 0, "velocity": 0, "duration": 94}, {"note": 70, "velocity": 100, "duration": 117}, {"note": 0, "velocity": 0, "duration": 123}, {"note": 70, "velocity": 107, "duration": 110}, {"note": 0, "velocity": 0, "duration": 130}, {"note": 75, "velocity": 116, "duration": 164}, {"note": 0, "velocity": 0, "duration": 76}, {"note": 73, "velocity": 113, "duration": 176}, {"note": 0, "velocity": 0, "duration": 64}, {"note": 70, "velocity": 113, "duration": 215}, {"note": 0, "velocity": 0, "duration": 505}, {"note": 78, "velocity": 117, "duration": 189}, {"note": 75, "velocity": 113, "duration": 115}, {"note": 0, "velocity": 0, "duration": 125}, {"note": 75, "velocity": 114, "duration": 191}, {"note": 78, "velocity": 116, "duration": 187}, {"note": 66, "velocity": 114, "duration": 170}, {"note": 0, "velocity": 0, "duration": 70}, {"note": 68, "velocity": 114, "duration": 259}, {"note": 0, "velocity": 0, "duration": 221}, {"note": 70, "velocity": 119, "duration": 290}, {"note": 0, "velocity": 0, "duration": 1870}, {"note": 73, "velocity": 114, "duration": 199}, {"note": 70, "velocity": 107, "duration": 125}, {"note": 0, "velocity": 0, "duration": 115}, {"note": 70, "velocity": 107, "duration": 149}, {"note": 0, "velocity": 0, "duration": 91}, {"note": 73, "velocity": 108, "duration": 103}, {"note": 0, "velocity": 0, "duration": 137}, {"note": 73, "velocity": 108, "duration": 139}, {"note": 0, "velocity": 0, "duration": 101}, {"note": 66, "velocity": 96, "duration": 173}, {"note": 0, "velocity": 0, "duration": 547}, {"note": 73, "velocity": 108, "duration": 146}, {"note": 0, "velocity": 0, "duration": 94}, {"note": 70, "velocity": 100, "duration": 117}, {"note": 0, "velocity": 0, "duration": 123}, {"note": 70, "velocity": 107, "duration": 110}, {"note": 0, "velocity": 0, "duration": 130}, {"note": 75, "velocity": 116, "duration": 164}, {"note": 0, "velocity": 0, "duration": 76}, {"note": 73, "velocity": 113, "duration": 176}, {"note": 0, "velocity": 0, "duration": 64}, {"note": 70, "velocity": 113, "duration": 215}, {"note": 0, "velocity": 0, "duration": 505}, {"note": 78, "velocity": 117, "duration": 189}, {"note": 75, "velocity": 113, "duration": 115}, {"note": 0, "velocity": 0, "duration": 125}, {"note": 75, "velocity": 114, "duration": 191}, {"note": 78, "velocity": 116, "duration": 187}, {"note": 66, "velocity": 114, "duration": 170}, {"note": 0, "velocity": 0, "duration": 70}, {"note": 68, "velocity": 114, "duration": 259}, {"note": 0, "velocity": 0, "duration": 221}, {"note": 66, "velocity": 119, "duration": 290}, {"note": 0, "velocity": 0, "duration": 1390}, {"note": 66, "velocity": 100, "duration": 110}, {"note": 0, "velocity": 0, "duration": 130}, {"note": 78, "velocity": 116, "duration": 120}, {"note": 0, "velocity": 0, "duration": 120}, {"note": 78, "velocity": 117, "duration": 187}, {"note": 77, "velocity": 117, "duration": 79}, {"note": 0, "velocity": 0, "duration": 161}, {"note": 77, "velocity": 113, "duration": 117}, {"note": 0, "velocity": 0, "duration": 123}, {"note": 75, "velocity": 113, "duration": 113}, {"note": 0, "velocity": 0, "duration": 127}, {"note": 75, "velocity": 116, "duration": 164}, {"note": 0, "velocity": 0, "duration": 76}, {"note": 77, "velocity": 108, "duration": 171}, {"note": 0, "velocity": 0, "duration": 69}, {"note": 70, "velocity": 108, "duration": 171}, {"note": 0, "velocity": 0, "duration": 69}, {"note": 73, "velocity": 113, "duration": 311}, {"note": 0, "velocity": 0, "duration": 1369}, {"note": 70, "velocity": 116, "duration": 197}, {"note": 73, "velocity": 110, "duration": 176}, {"note": 0, "velocity": 0, "duration": 64}, {"note": 75, "velocity": 110, "duration": 138}, {"note": 0, "velocity": 0, "duration": 102}, {"note": 75, "velocity": 104, "duration": 54}, {"note": 0, "velocity": 0, "duration": 66}, {"note": 75, "velocity": 108, "duration": 74}, {"note": 0, "velocity": 0, "duration": 286}, {"note": 75, "velocity": 100, "duration": 106}, {"note": 0, "velocity": 0, "duration": 134}, {"note": 75, "velocity": 116, "duration": 175}, {"note": 0, "velocity": 0, "duration": 65}, {"note": 73, "velocity": 113, "duration": 208}, {"note": 66, "velocity": 110, "duration": 169}, {"note": 0, "velocity": 0, "duration": 71}, {"note": 73, "velocity": 116, "duration": 249}, {"note": 0, "velocity": 0, "duration": 231}, {"note": 70, "velocity": 117, "duration": 227}, {"note": 0, "velocity": 0, "duration": 973}, {"note": 70, "velocity": 113, "duration": 215}, {"note": 73, "velocity": 110, "duration": 137}, {"note": 0, "velocity": 0, "duration": 103}, {"note": 78, "velocity": 114, "duration": 122}, {"note": 0, "velocity": 0, "duration": 118}, {"note": 77, "velocity": 110, "duration": 109}, {"note": 0, "velocity": 0, "duration": 131}, {"note": 77, "velocity": 116, "duration": 124}, {"note": 0, "velocity": 0, "duration": 116}, {"note": 75, "velocity": 116, "duration": 121}, {"note": 0, "velocity": 0, "duration": 119}, {"note": 75, "velocity": 117, "duration": 172}, {"note": 0, "velocity": 0, "duration": 68}, {"note": 82, "velocity": 110, "duration": 264}, {"note": 0, "velocity": 0, "duration": 216}, {"note": 77, "velocity": 116, "duration": 228}, {"note": 0, "velocity": 0, "duration": 1212}, {"note": 70, "velocity": 113, "duration": 141}, {"note": 0, "velocity": 0, "duration": 99}, {"note": 70, "velocity": 113, "duration": 178}, {"note": 0, "velocity": 0, "duration": 62}, {"note": 73, "velocity": 113, "duration": 139}, {"note": 0, "velocity": 0, "duration": 101}, {"note": 75, "velocity": 116, "duration": 155}, {"note": 0, "velocity": 0, "duration": 85}, {"note": 73, "velocity": 114, "duration": 135}, {"note": 0, "velocity": 0, "duration": 105}, {"note": 75, "velocity": 116, "duration": 151}, {"note": 0, "velocity": 0, "duration": 89}, {"note": 73, "velocity": 116, "duration": 134}, {"note": 0, "velocity": 0, "duration": 106}, {"note": 75, "velocity": 119, "duration": 187}, {"note": 78, "velocity": 117, "duration": 251}, {"note": 0, "velocity": 0, "duration": 229}, {"note": 80, "velocity": 120, "duration": 220}, {"note": 0, "velocity": 0, "duration": 260}, {"note": 80, "velocity": 119, "duration": 102}, {"note": 0, "velocity": 0, "duration": 138}, {"note": 80, "velocity": 120, "duration": 149}, {"note": 0, "velocity": 0, "duration": 331}, {"note": 70, "velocity": 117, "duration": 295}, {"note": 0, "velocity": 0, "duration": 185}, {"note": 73, "velocity": 119, "duration": 228}, {"note": 0, "velocity": 0, "duration": 252}, {"note": 82, "velocity": 119, "duration": 120}, {"note": 0, "velocity": 0, "duration": 120}, {"note": 82, "velocity": 117, "duration": 98}, {"note": 0, "velocity": 0, "duration": 142}, {"note": 82, "velocity": 119, "duration": 99}, {"note": 0, "velocity": 0, "duration": 141}, {"note": 82, "velocity": 117, "duration": 98}, {"note": 0, "velocity": 0, "duration": 142}, {"note": 82, "velocity": 119, "duration": 149}, {"note": 0, "velocity": 0, "duration": 211}, {"note": 78, "velocity": 117, "duration": 226}, {"note": 0, "velocity": 0, "duration": 134}, {"note": 75, "velocity": 117, "duration": 127}, {"note": 0, "velocity": 0, "duration": 113}, {"note": 80, "velocity": 120, "duration": 288}, {"note": 0, "velocity": 0, "duration": 432}, {"note": 80, "velocity": 114, "duration": 120}, {"note": 0, "velocity": 0, "duration": 120}, {"note": 80, "velocity": 113, "duration": 297}, {"note": 0, "velocity": 0, "duration": 183}, {"note": 78, "velocity": 114, "duration": 93}, {"note": 0, "velocity": 0, "duration": 147}, {"note": 78, "velocity": 113, "duration": 127}, {"note": 0, "velocity": 0, "duration": 113}, {"note": 77, "velocity": 117, "duration": 204}, {"note": 77, "velocity": 110, "duration": 100}, {"note": 0, "velocity": 0, "duration": 140}, {"note": 77, "velocity": 116, "duration": 96}, {"note": 0, "velocity": 0, "duration": 144}, {"note": 77, "velocity": 119, "duration": 101}, {"note": 0, "velocity": 0, "duration": 139}, {"note": 77, "velocity": 119, "duration": 148}, {"note": 0, "velocity": 0, "duration": 92}, {"note": 73, "velocity": 116, "duration": 204}, {"note": 70, "velocity": 108, "duration": 134}, {"note": 0, "velocity": 0, "duration": 106}, {"note": 78, "velocity": 117, "duration": 309}, {"note": 0, "velocity": 0, "duration": 1371}, {"note": 73, "velocity": 113, "duration": 209}, {"note": 75, "velocity": 114, "duration": 202}, {"note": 78, "velocity": 113, "duration": 162}, {"note": 0, "velocity": 0, "duration": 78}, {"note": 75, "velocity": 114, "duration": 134}, {"note": 0, "velocity": 0, "duration": 106}, {"note": 75, "velocity": 119, "duration": 178}, {"note": 0, "velocity": 0, "duration": 62}, {"note": 73, "velocity": 116, "duration": 168}, {"note": 0, "velocity": 0, "duration": 72}, {"note": 75, "velocity": 119, "duration": 240}, {"note": 0, "velocity": 0, "duration": 240}, {"note": 75, "velocity": 117, "duration": 215}, {"note": 73, "velocity": 110, "duration": 125}, {"note": 0, "velocity": 0, "duration": 115}, {"note": 82, "velocity": 117, "duration": 222}, {"note": 0, "velocity": 0, "duration": 138}, {"note": 80, "velocity": 120, "duration": 212}, {"note": 0, "velocity": 0, "duration": 148}, {"note": 80, "velocity": 119, "duration": 182}, {"note": 73, "velocity": 110, "duration": 233}, {"note": 0, "velocity": 0, "duration": 247}, {"note": 75, "velocity": 117, "duration": 228}, {"note": 0, "velocity": 0, "duration": 252}, {"note": 82, "velocity": 120, "duration": 146}, {"note": 0, "velocity": 0, "duration": 94}, {"note": 82, "velocity": 123, "duration": 143}, {"note": 0, "velocity": 0, "duration": 97}, {"note": 82, "velocity": 120, "duration": 133}, {"note": 0, "velocity": 0, "duration": 107}, {"note": 82, "velocity": 119, "duration": 132}, {"note": 0, "velocity": 0, "duration": 108}, {"note": 82, "velocity": 123, "duration": 204}, {"note": 0, "velocity": 0, "duration": 156}, {"note": 78, "velocity": 117, "duration": 219}, {"note": 0, "velocity": 0, "duration": 141}, {"note": 75, "velocity": 119, "duration": 131}, {"note": 0, "velocity": 0, "duration": 109}, {"note": 80, "velocity": 123, "duration": 203}, {"note": 0, "velocity": 0, "duration": 157}, {"note": 80, "velocity": 114, "duration": 62}, {"note": 80, "velocity": 119, "duration": 192}, {"note": 0, "velocity": 0, "duration": 288}, {"note": 80, "velocity": 119, "duration": 342}, {"note": 0, "velocity": 0, "duration": 138}, {"note": 78, "velocity": 119, "duration": 251}, {"note": 0, "velocity": 0, "duration": 229}, {"note": 77, "velocity": 120, "duration": 196}, {"note": 77, "velocity": 113, "duration": 123}, {"note": 0, "velocity": 0, "duration": 117}, {"note": 77, "velocity": 114, "duration": 140}, {"note": 0, "velocity": 0, "duration": 100}, {"note": 78, "velocity": 116, "duration": 157}, {"note": 0, "velocity": 0, "duration": 83}, {"note": 77, "velocity": 117, "duration": 150}, {"note": 0, "velocity": 0, "duration": 90}, {"note": 73, "velocity": 114, "duration": 191}, {"note": 0, "velocity": 0, "duration": 289}, {"note": 80, "velocity": 119, "duration": 237}, {"note": 0, "velocity": 0, "duration": 243}, {"note": 80, "velocity": 117, "duration": 180}, {"note": 78, "velocity": 116, "duration": 223}, {"note": 0, "velocity": 0, "duration": 497}, {"note": 73, "velocity": 113, "duration": 123}, {"note": 0, "velocity": 0, "duration": 117}, {"note": 73, "velocity": 110, "duration": 169}, {"note": 0, "velocity": 0, "duration": 71}, {"note": 75, "velocity": 114, "duration": 144}, {"note": 0, "velocity": 0, "duration": 96}, {"note": 78, "velocity": 117, "duration": 168}, {"note": 0, "velocity": 0, "duration": 72}, {"note": 75, "velocity": 110, "duration": 96}, {"note": 0, "velocity": 0, "duration": 144}, {"note": 75, "velocity": 119, "duration": 156}, {"note": 0, "velocity": 0, "duration": 84}, {"note": 73, "velocity": 113, "duration": 132}, {"note": 0, "velocity": 0, "duration": 108}, {"note": 75, "velocity": 117, "duration": 124}, {"note": 0, "velocity": 0, "duration": 116}, {"note": 78, "velocity": 117, "duration": 196}, {"note": 0, "velocity": 0, "duration": 284}, {"note": 82, "velocity": 120, "duration": 314}, {"note": 0, "velocity": 0, "duration": 166}, {"note": 80, "velocity": 117, "duration": 98}, {"note": 0, "velocity": 0, "duration": 142}, {"note": 80, "velocity": 119, "duration": 153}, {"note": 0, "velocity": 0, "duration": 87}, {"note": 82, "velocity": 117, "duration": 164}, {"note": 0, "velocity": 0, "duration": 76}, {"note": 80, "velocity": 116, "duration": 171}, {"note": 0, "velocity": 0, "duration": 69}, {"note": 73, "velocity": 98, "duration": 201}, {"note": 75, "velocity": 107, "duration": 98}, {"note": 0, "velocity": 0, "duration": 142}, {"note": 78, "velocity": 116, "duration": 293}, {"note": 0, "velocity": 0, "duration": 4027}, {"note": 71, "velocity": 116, "duration": 97}, {"note": 0, "velocity": 0, "duration": 143}, {"note": 71, "velocity": 119, "duration": 206}, {"note": 70, "velocity": 119, "duration": 239}, {"note": 71, "velocity": 119, "duration": 109}, {"note": 0, "velocity": 0, "duration": 131}, {"note": 78, "velocity": 116, "duration": 117}, {"note": 0, "velocity": 0, "duration": 123}, {"note": 78, "velocity": 117, "duration": 158}, {"note": 0, "velocity": 0, "duration": 562}, {"note": 75, "velocity": 117, "duration": 108}, {"note": 0, "velocity": 0, "duration": 132}, {"note": 75, "velocity": 117, "duration": 210}, {"note": 73, "velocity": 114, "duration": 205}, {"note": 75, "velocity": 116, "duration": 125}, {"note": 0, "velocity": 0, "duration": 115}, {"note": 78, "velocity": 120, "duration": 125}, {"note": 0, "velocity": 0, "duration": 115}, {"note": 78, "velocity": 120, "duration": 210}, {"note": 0, "velocity": 0, "duration": 270}, {"note": 82, "velocity": 123, "duration": 366}, {"note": 0, "velocity": 0, "duration": 354}, {"note": 78, "velocity": 120, "duration": 316}, {"note": 0, "velocity": 0, "duration": 404}, {"note": 75, "velocity": 113, "duration": 350}, {"note": 0, "velocity": 0, "duration": 2290}, {"note": 71, "velocity": 116, "duration": 97}, {"note": 0, "velocity": 0, "duration": 143}, {"note": 71, "velocity": 119, "duration": 206}, {"note": 70, "velocity": 119, "duration": 239}, {"note": 71, "velocity": 119, "duration": 109}, {"note": 0, "velocity": 0, "duration": 131}, {"note": 78, "velocity": 116, "duration": 117}, {"note": 0, "velocity": 0, "duration": 123}, {"note": 78, "velocity": 117, "duration": 158}, {"note": 0, "velocity": 0, "duration": 562}, {"note": 75, "velocity": 117, "duration": 108}, {"note": 0, "velocity": 0, "duration": 132}, {"note": 75, "velocity": 117, "duration": 210}, {"note": 73, "velocity": 114, "duration": 205}, {"note": 75, "velocity": 116, "duration": 125}, {"note": 0, "velocity": 0, "duration": 115}, {"note": 82, "velocity": 120, "duration": 125}, {"note": 0, "velocity": 0, "duration": 355}, {"note": 82, "velocity": 123, "duration": 366}, {"note": 0, "velocity": 0, "duration": 3234}, {"note": 78, "velocity": 119, "duration": 119}, {"note": 0, "velocity": 0, "duration": 121}, {"note": 78, "velocity": 116, "duration": 162}, {"note": 0, "velocity": 0, "duration": 78}, {"note": 85, "velocity": 120, "duration": 283}, {"note": 83, "velocity": 113, "duration": 413}, {"note": 0, "velocity": 0, "duration": 67}, {"note": 82, "velocity": 116, "duration": 263}, {"note": 0, "velocity": 0, "duration": 217}, {"note": 78, "velocity": 117, "duration": 281}, {"note": 0, "velocity": 0, "duration": 199}, {"note": 85, "velocity": 120, "duration": 274}, {"note": 0, "velocity": 0, "duration": 206}, {"note": 85, "velocity": 123, "duration": 267}, {"note": 0, "velocity": 0, "duration": 213}, {"note": 85, "velocity": 120, "duration": 287}, {"note": 0, "velocity": 0, "duration": 193}, {"note": 78, "velocity": 119, "duration": 301}, {"note": 0, "velocity": 0, "duration": 179}, {"note": 80, "velocity": 117, "duration": 300}, {"note": 0, "velocity": 0, "duration": 180}, {"note": 82, "velocity": 119, "duration": 305}, {"note": 0, "velocity": 0, "duration": 2815}, {"note": 78, "velocity": 117, "duration": 154}, {"note": 0, "velocity": 0, "duration": 86}, {"note": 78, "velocity": 117, "duration": 157}, {"note": 0, "velocity": 0, "duration": 83}, {"note": 86, "velocity": 123, "duration": 341}, {"note": 0, "velocity": 0, "duration": 139}, {"note": 85, "velocity": 117, "duration": 210}, {"note": 83, "velocity": 123, "duration": 327}, {"note": 0, "velocity": 0, "duration": 153}, {"note": 81, "velocity": 123, "duration": 266}, {"note": 0, "velocity": 0, "duration": 214}, {"note": 80, "velocity": 117, "duration": 293}, {"note": 0, "velocity": 0, "duration": 187}, {"note": 83, "velocity": 123, "duration": 250}, {"note": 0, "velocity": 0, "duration": 230}, {"note": 80, "velocity": 123, "duration": 270}, {"note": 0, "velocity": 0, "duration": 2850}, {"note": 82, "velocity": 119, "duration": 120}, {"note": 0, "velocity": 0, "duration": 120}, {"note": 82, "velocity": 117, "duration": 98}, {"note": 0, "velocity": 0, "duration": 142}, {"note": 82, "velocity": 119, "duration": 99}, {"note": 0, "velocity": 0, "duration": 141}, {"note": 82, "velocity": 117, "duration": 98}, {"note": 0, "velocity": 0, "duration": 142}, {"note": 82, "velocity": 119, "duration": 149}, {"note": 0, "velocity": 0, "duration": 91}, {"note": 78, "velocity": 117, "duration": 226}, {"note": 75, "velocity": 117, "duration": 127}, {"note": 0, "velocity": 0, "duration": 113}, {"note": 80, "velocity": 120, "duration": 288}, {"note": 0, "velocity": 0, "duration": 672}, {"note": 80, "velocity": 114, "duration": 120}, {"note": 0, "velocity": 0, "duration": 120}, {"note": 80, "velocity": 113, "duration": 297}, {"note": 0, "velocity": 0, "duration": 183}, {"note": 78, "velocity": 114, "duration": 93}, {"note": 0, "velocity": 0, "duration": 147}, {"note": 78, "velocity": 113, "duration": 127}, {"note": 0, "velocity": 0, "duration": 113}, {"note": 77, "velocity": 117, "duration": 204}, {"note": 77, "velocity": 110, "duration": 100}, {"note": 0, "velocity": 0, "duration": 140}, {"note": 77, "velocity": 116, "duration": 96}, {"note": 0, "velocity": 0, "duration": 144}, {"note": 77, "velocity": 119, "duration": 101}, {"note": 0, "velocity": 0, "duration": 139}, {"note": 77, "velocity": 119, "duration": 148}, {"note": 0, "velocity": 0, "duration": 92}, {"note": 73, "velocity": 116, "duration": 204}, {"note": 70, "velocity": 108, "duration": 134}, {"note": 0, "velocity": 0, "duration": 106}, {"note": 78, "velocity": 117, "duration": 309}, {"note": 0, "velocity": 0, "duration": 1371}, {"note": 73, "velocity": 113, "duration": 209}, {"note": 75, "velocity": 114, "duration": 202}, {"note": 78, "velocity": 113, "duration": 162}, {"note": 0, "velocity": 0, "duration": 78}, {"note": 75, "velocity": 114, "duration": 134}, {"note": 0, "velocity": 0, "duration": 106}, {"note": 75, "velocity": 119, "duration": 178}, {"note": 0, "velocity": 0, "duration": 62}, {"note": 73, "velocity": 116, "duration": 168}, {"note": 0, "velocity": 0, "duration": 72}, {"note": 75, "velocity": 119, "duration": 240}, {"note": 0, "velocity": 0, "duration": 240}, {"note": 75, "velocity": 117, "duration": 215}, {"note": 73, "velocity": 110, "duration": 125}, {"note": 0, "velocity": 0, "duration": 115}, {"note": 82, "velocity": 117, "duration": 222}, {"note": 0, "velocity": 0, "duration": 138}, {"note": 83, "velocity": 120, "duration": 212}, {"note": 0, "velocity": 0, "duration": 148}, {"note": 80, "velocity": 119, "duration": 182}, {"note": 0, "velocity": 0, "duration": 13378}, {"note": 75, "velocity": 100, "duration": 60}, {"note": 84, "velocity": 119, "duration": 197}, {"note": 0, "velocity": 0, "duration": 163}, {"note": 84, "velocity": 119, "duration": 213}, {"note": 0, "velocity": 0, "duration": 147}, {"note": 80, "velocity": 119, "duration": 177}, {"note": 0, "velocity": 0, "duration": 63}, {"note": 82, "velocity": 119, "duration": 262}, {"note": 0, "velocity": 0, "duration": 218}, {"note": 82, "velocity": 100, "duration": 97}, {"note": 0, "velocity": 0, "duration": 143}, {"note": 84, "velocity": 100, "duration": 116}, {"note": 0, "velocity": 0, "duration": 364}, {"note": 82, "velocity": 100, "duration": 380}, {"note": 0, "velocity": 0, "duration": 1060}, {"note": 75, "velocity": 116, "duration": 123}, {"note": 0, "velocity": 0, "duration": 117}, {"note": 84, "velocity": 119, "duration": 225}, {"note": 82, "velocity": 117, "duration": 279}, {"note": 0, "velocity": 0, "duration": 201}, {"note": 80, "velocity": 108, "duration": 195}, {"note": 79, "velocity": 116, "duration": 220}, {"note": 0, "velocity": 0, "duration": 260}, {"note": 77, "velocity": 113, "duration": 198}, {"note": 79, "velocity": 119, "duration": 233}, {"note": 0, "velocity": 0, "duration": 247}, {"note": 80, "velocity": 117, "duration": 197}, {"note": 0, "velocity": 0, "duration": 523}, {"note": 84, "velocity": 119, "duration": 290}, {"note": 0, "velocity": 0, "duration": 190}, {"note": 82, "velocity": 113, "duration": 201}, {"note": 80, "velocity": 113, "duration": 287}, {"note": 0, "velocity": 0, "duration": 193}, {"note": 77, "velocity": 119, "duration": 265}, {"note": 0, "velocity": 0, "duration": 455}, {"note": 84, "velocity": 119, "duration": 244}, {"note": 0, "velocity": 0, "duration": 236}, {"note": 85, "velocity": 117, "duration": 168}, {"note": 0, "velocity": 0, "duration": 72}, {"note": 84, "velocity": 117, "duration": 251}, {"note": 0, "velocity": 0, "duration": 229}, {"note": 82, "velocity": 120, "duration": 238}, {"note": 0, "velocity": 0, "duration": 482}, {"note": 84, "velocity": 119, "duration": 143}, {"note": 0, "velocity": 0, "duration": 97}, {"note": 84, "velocity": 117, "duration": 121}, {"note": 0, "velocity": 0, "duration": 119}, {"note": 84, "velocity": 116, "duration": 122}, {"note": 0, "velocity": 0, "duration": 118}, {"note": 84, "velocity": 113, "duration": 116}, {"note": 0, "velocity": 0, "duration": 124}, {"note": 84, "velocity": 117, "duration": 178}, {"note": 0, "velocity": 0, "duration": 62}, {"note": 80, "velocity": 117, "duration": 238}, {"note": 0, "velocity": 0, "duration": 242}, {"note": 77, "velocity": 117, "duration": 118}, {"note": 0, "velocity": 0, "duration": 122}, {"note": 82, "velocity": 119, "duration": 240}, {"note": 0, "velocity": 0, "duration": 480}, {"note": 82, "velocity": 113, "duration": 93}, {"note": 0, "velocity": 0, "duration": 147}, {"note": 82, "velocity": 114, "duration": 308}, {"note": 0, "velocity": 0, "duration": 172}, {"note": 80, "velocity": 114, "duration": 114}, {"note": 0, "velocity": 0, "duration": 126}, {"note": 80, "velocity": 108, "duration": 175}, {"note": 0, "velocity": 0, "duration": 65}, {"note": 79, "velocity": 119, "duration": 222}, {"note": 77, "velocity": 114, "duration": 222}, {"note": 79, "velocity": 116, "duration": 215}, {"note": 77, "velocity": 114, "duration": 202}, {"note": 79, "velocity": 119, "duration": 149}, {"note": 0, "velocity": 0, "duration": 91}, {"note": 75, "velocity": 108, "duration": 112}, {"note": 0, "velocity": 0, "duration": 128}, {"note": 75, "velocity": 110, "duration": 97}, {"note": 0, "velocity": 0, "duration": 143}, {"note": 82, "velocity": 119, "duration": 254}, {"note": 0, "velocity": 0, "duration": 226}, {"note": 80, "velocity": 119, "duration": 186}, {"note": 0, "velocity": 0, "duration": 774}, {"note": 75, "velocity": 114, "duration": 88}, {"note": 0, "velocity": 0, "duration": 152}, {"note": 75, "velocity": 114, "duration": 146}, {"note": 0, "velocity": 0, "duration": 94}, {"note": 77, "velocity": 114, "duration": 95}, {"note": 0, "velocity": 0, "duration": 145}, {"note": 80, "velocity": 117, "duration": 145}, {"note": 0, "velocity": 0, "duration": 95}, {"note": 77, "velocity": 110, "duration": 87}, {"note": 0, "velocity": 0, "duration": 153}, {"note": 77, "velocity": 117, "duration": 124}, {"note": 0, "velocity": 0, "duration": 116}, {"note": 75, "velocity": 117, "duration": 156}, {"note": 0, "velocity": 0, "duration": 84}, {"note": 77, "velocity": 119, "duration": 224}, {"note": 0, "velocity": 0, "duration": 136}, {"note": 77, "velocity": 116, "duration": 240}, {"note": 75, "velocity": 113, "duration": 115}, {"note": 0, "velocity": 0, "duration": 245}, {"note": 84, "velocity": 119, "duration": 244}, {"note": 0, "velocity": 0, "duration": 116}, {"note": 82, "velocity": 117, "duration": 204}, {"note": 0, "velocity": 0, "duration": 156}, {"note": 82, "velocity": 117, "duration": 153}, {"note": 0, "velocity": 0, "duration": 87}, {"note": 75, "velocity": 119, "duration": 237}, {"note": 0, "velocity": 0, "duration": 243}, {"note": 77, "velocity": 119, "duration": 208}, {"note": 0, "velocity": 0, "duration": 272}, {"note": 84, "velocity": 119, "duration": 143}, {"note": 0, "velocity": 0, "duration": 97}, {"note": 84, "velocity": 117, "duration": 121}, {"note": 0, "velocity": 0, "duration": 119}, {"note": 84, "velocity": 116, "duration": 122}, {"note": 0, "velocity": 0, "duration": 118}, {"note": 84, "velocity": 113, "duration": 116}, {"note": 0, "velocity": 0, "duration": 124}, {"note": 84, "velocity": 117, "duration": 178}, {"note": 0, "velocity": 0, "duration": 62}, {"note": 84, "velocity": 117, "duration": 238}, {"note": 0, "velocity": 0, "duration": 242}, {"note": 80, "velocity": 117, "duration": 118}, {"note": 0, "velocity": 0, "duration": 122}, {"note": 82, "velocity": 119, "duration": 240}, {"note": 84, "velocity": 114, "duration": 230}, {"note": 0, "velocity": 0, "duration": 130}, {"note": 82, "velocity": 120, "duration": 137}, {"note": 0, "velocity": 0, "duration": 223}, {"note": 79, "velocity": 114, "duration": 240}, {"note": 0, "velocity": 0, "duration": 240}, {"note": 79, "velocity": 114, "duration": 114}, {"note": 0, "velocity": 0, "duration": 366}, {"note": 79, "velocity": 119, "duration": 222}, {"note": 77, "velocity": 114, "duration": 222}, {"note": 79, "velocity": 116, "duration": 215}, {"note": 77, "velocity": 114, "duration": 202}, {"note": 87, "velocity": 119, "duration": 149}, {"note": 0, "velocity": 0, "duration": 211}, {"note": 84, "velocity": 108, "duration": 156}, {"note": 0, "velocity": 0, "duration": 204}, {"note": 82, "velocity": 116, "duration": 286}, {"note": 0, "velocity": 0, "duration": 194}, {"note": 84, "velocity": 119, "duration": 239}, {"note": 0, "velocity": 0, "duration": 721}, {"note": 75, "velocity": 114, "duration": 88}, {"note": 0, "velocity": 0, "duration": 152}, {"note": 75, "velocity": 114, "duration": 146}, {"note": 0, "velocity": 0, "duration": 94}, {"note": 77, "velocity": 114, "duration": 95}, {"note": 0, "velocity": 0, "duration": 145}, {"note": 80, "velocity": 117, "duration": 145}, {"note": 0, "velocity": 0, "duration": 95}, {"note": 77, "velocity": 110, "duration": 87}, {"note": 0, "velocity": 0, "duration": 153}, {"note": 77, "velocity": 117, "duration": 124}, {"note": 0, "velocity": 0, "duration": 116}, {"note": 75, "velocity": 117, "duration": 156}, {"note": 0, "velocity": 0, "duration": 84}, {"note": 77, "velocity": 119, "duration": 224}, {"note": 80, "velocity": 116, "duration": 240}, {"note": 0, "velocity": 0, "duration": 240}, {"note": 84, "velocity": 117, "duration": 263}, {"note": 0, "velocity": 0, "duration": 217}, {"note": 82, "velocity": 116, "duration": 101}, {"note": 0, "velocity": 0, "duration": 139}, {"note": 82, "velocity": 117, "duration": 122}, {"note": 0, "velocity": 0, "duration": 118}, {"note": 84, "velocity": 113, "duration": 138}, {"note": 0, "velocity": 0, "duration": 102}, {"note": 82, "velocity": 114, "duration": 132}, {"note": 0, "velocity": 0, "duration": 108}, {"note": 75, "velocity": 114, "duration": 176}, {"note": 0, "velocity": 0, "duration": 64}, {"note": 80, "velocity": 113, "duration": 96}, {"note": 0, "velocity": 0, "duration": 144}, {"note": 80, "velocity": 116, "duration": 209}, {"note": 80, "velocity": 127, "duration": 1101}, {"note": 0, "velocity": 0, "duration": 99}, {"note": 82, "velocity": 127, "duration": 202}, {"note": 84, "velocity": 87, "duration": 298}, {"note": 82, "velocity": 117, "duration": 743}, {"note": 0, "velocity": 0, "duration": 1399}, {"note": 75, "velocity": 127, "duration": 1073}, {"note": 0, "velocity": 0, "duration": 116}, {"note": 72, "velocity": 127, "duration": 273}, {"note": 70, "velocity": 110, "duration": 257}, {"note": 72, "velocity": 103, "duration": 1433}]]