[[{"note": 71, "velocity": 117, "duration": 194}, {"note": 71, "velocity": 108, "duration": 62}, {"note": 71, "velocity": 107, "duration": 53}, {"note": 0, "velocity": 0, "duration": 67}, {"note": 71, "velocity": 113, "duration": 117}, {"note": 0, "velocity": 0, "duration": 123}, {"note": 76, "velocity": 117, "duration": 143}, {"note": 0, "velocity": 0, "duration": 97}, {"note": 74, "velocity": 119, "duration": 216}, {"note": 74, "velocity": 114, "duration": 223}, {"note": 71, "velocity": 116, "duration": 225}, {"note": 69, "velocity": 113, "duration": 183}, {"note": 71, "velocity": 117, "duration": 241}, {"note": 0, "velocity": 0, "duration": 1679}, {"note": 74, "velocity": 117, "duration": 258}, {"note": 69, "velocity": 113, "duration": 215}, {"note": 69, "velocity": 116, "duration": 208}, {"note": 76, "velocity": 117, "duration": 226}, {"note": 74, "velocity": 117, "duration": 257}, {"note": 74, "velocity": 102, "duration": 17}, {"note": 0, "velocity": 0, "duration": 223}, {"note": 76, "velocity": 114, "duration": 452}, {"note": 74, "velocity": 117, "duration": 183}, {"note": 71, "velocity": 114, "duration": 730}, {"note": 0, "velocity": 0, "duration": 950}, {"note": 76, "velocity": 108, "duration": 165}, {"note": 0, "velocity": 0, "duration": 75}, {"note": 76, "velocity": 108, "duration": 191}, {"note": 76, "velocity": 110, "duration": 205}, {"note": 79, "velocity": 114, "duration": 264}, {"note": 78, "velocity": 114, "duration": 504}, {"note": 76, "velocity": 114, "duration": 242}, {"note": 74, "velocity": 114, "duration": 155}, {"note": 0, "velocity": 0, "duration": 85}, {"note": 71, "velocity": 116, "duration": 219}, {"note": 71, "velocity": 108, "duration": 130}, {"note": 0, "velocity": 0, "duration": 110}, {"note": 71, "velocity": 114, "duration": 164}, {"note": 0, "velocity": 0, "duration": 76}, {"note": 78, "velocity": 116, "duration": 153}, {"note": 0, "velocity": 0, "duration": 87}, {"note": 76, "velocity": 116, "duration": 221}, {"note": 0, "velocity": 0, "duration": 739}, {"note": 74, "velocity": 119, "duration": 254}, {"note": 69, "velocity": 114, "duration": 152}, {"note": 0, "velocity": 0, "duration": 88}, {"note": 76, "velocity": 117, "duration": 272}, {"note": 74, "velocity": 114, "duration": 280}, {"note": 71, "velocity": 116, "duration": 600}, {"note": 0, "velocity": 0, "duration": 360}, {"note": 69, "velocity": 114, "duration": 243}, {"note": 69, "velocity": 110, "duration": 3}, {"note": 0, "velocity": 0, "duration": 237}, {"note": 67, "velocity": 113, "duration": 300}, {"note": 66, "velocity": 109, "duration": 301}, {"note": 64, "velocity": 114, "duration": 420}, {"note": 0, "velocity": 0, "duration": 540}, {"note": 71, "velocity": 117, "duration": 214}, {"note": 71, "velocity": 108, "duration": 125}, {"note": 71, "velocity": 107, "duration": 5}, {"note": 0, "velocity": 0, "duration": 115}, {"note": 71, "velocity": 113, "duration": 256}, {"note": 76, "velocity": 117, "duration": 268}, {"note": 74, "velocity": 119, "duration": 216}, {"note": 74, "velocity": 114, "duration": 240}, {"note": 71, "velocity": 116, "duration": 272}, {"note": 69, "velocity": 113, "duration": 254}, {"note": 71, "velocity": 117, "duration": 754}, {"note": 0, "velocity": 0, "duration": 1166}, {"note": 74, "velocity": 117, "duration": 242}, {"note": 69, "velocity": 113, "duration": 149}, {"note": 69, "velocity": 113, "duration": 29}, {"note": 0, "velocity": 0, "duration": 91}, {"note": 69, "velocity": 116, "duration": 29}, {"note": 0, "velocity": 0, "duration": 211}, {"note": 76, "velocity": 117, "duration": 200}, {"note": 74, "velocity": 117, "duration": 231}, {"note": 74, "velocity": 102, "duration": 329}, {"note": 76, "velocity": 114, "duration": 563}, {"note": 74, "velocity": 117, "duration": 339}, {"note": 71, "velocity": 114, "duration": 941}, {"note": 0, "velocity": 0, "duration": 739}, {"note": 76, "velocity": 108, "duration": 200}, {"note": 76, "velocity": 108, "duration": 226}, {"note": 76, "velocity": 110, "duration": 240}, {"note": 79, "velocity": 114, "duration": 299}, {"note": 78, "velocity": 114, "duration": 305}, {"note": 0, "velocity": 0, "duration": 175}, {"note": 76, "velocity": 114, "duration": 312}, {"note": 74, "velocity": 114, "duration": 225}, {"note": 71, "velocity": 116, "duration": 289}, {"note": 71, "velocity": 108, "duration": 49}, {"note": 0, "velocity": 0, "duration": 191}, {"note": 71, "velocity": 114, "duration": 234}, {"note": 78, "velocity": 116, "duration": 232}, {"note": 76, "velocity": 116, "duration": 300}, {"note": 0, "velocity": 0, "duration": 660}, {"note": 76, "velocity": 92, "duration": 314}, {"note": 79, "velocity": 116, "duration": 294}, {"note": 81, "velocity": 117, "duration": 548}, {"note": 79, "velocity": 117, "duration": 233}, {"note": 78, "velocity": 116, "duration": 240}, {"note": 0, "velocity": 0, "duration": 480}, {"note": 78, "velocity": 119, "duration": 170}, {"note": 0, "velocity": 0, "duration": 70}, {"note": 78, "velocity": 116, "duration": 256}, {"note": 76, "velocity": 116, "duration": 275}, {"note": 74, "velocity": 117, "duration": 268}, {"note": 76, "velocity": 114, "duration": 300}, {"note": 0, "velocity": 0, "duration": 2580}, {"note": 76, "velocity": 119, "duration": 212}, {"note": 76, "velocity": 117, "duration": 221}, {"note": 76, "velocity": 117, "duration": 230}, {"note": 83, "velocity": 120, "duration": 241}, {"note": 81, "velocity": 117, "duration": 415}, {"note": 0, "velocity": 0, "duration": 65}, {"note": 78, "velocity": 123, "duration": 264}, {"note": 76, "velocity": 114, "duration": 268}, {"note": 74, "velocity": 117, "duration": 246}, {"note": 71, "velocity": 116, "duration": 216}, {"note": 71, "velocity": 116, "duration": 240}, {"note": 78, "velocity": 119, "duration": 237}, {"note": 76, "velocity": 119, "duration": 299}, {"note": 0, "velocity": 0, "duration": 421}, {"note": 71, "velocity": 116, "duration": 181}, {"note": 74, "velocity": 113, "duration": 151}, {"note": 76, "velocity": 116, "duration": 185}, {"note": 76, "velocity": 114, "duration": 211}, {"note": 78, "velocity": 114, "duration": 217}, {"note": 79, "velocity": 119, "duration": 254}, {"note": 78, "velocity": 119, "duration": 269}, {"note": 74, "velocity": 116, "duration": 251}, {"note": 79, "velocity": 117, "duration": 240}, {"note": 81, "velocity": 119, "duration": 235}, {"note": 83, "velocity": 120, "duration": 1480}, {"note": 0, "velocity": 0, "duration": 200}, {"note": 79, "velocity": 114, "duration": 279}, {"note": 81, "velocity": 108, "duration": 272}, {"note": 83, "velocity": 114, "duration": 379}, {"note": 81, "velocity": 116, "duration": 375}, {"note": 79, "velocity": 116, "duration": 330}, {"note": 83, "velocity": 120, "duration": 364}, {"note": 81, "velocity": 119, "duration": 440}, {"note": 0, "velocity": 0, "duration": 280}, {"note": 78, "velocity": 116, "duration": 280}, {"note": 79, "velocity": 113, "duration": 275}, {"note": 81, "velocity": 117, "duration": 369}, {"note": 81, "velocity": 119, "duration": 129}, {"note": 0, "velocity": 0, "duration": 111}, {"note": 83, "velocity": 119, "duration": 520}, {"note": 81, "velocity": 116, "duration": 360}, {"note": 79, "velocity": 120, "duration": 386}, {"note": 0, "velocity": 0, "duration": 94}, {"note": 76, "velocity": 107, "duration": 335}, {"note": 78, "velocity": 95, "duration": 275}, {"note": 79, "velocity": 117, "duration": 317}, {"note": 79, "velocity": 116, "duration": 77}, {"note": 0, "velocity": 0, "duration": 163}, {"note": 81, "velocity": 117, "duration": 353}, {"note": 83, "velocity": 119, "duration": 372}, {"note": 78, "velocity": 123, "duration": 520}, {"note": 74, "velocity": 116, "duration": 382}, {"note": 78, "velocity": 119, "duration": 483}, {"note": 76, "velocity": 119, "duration": 1140}, {"note": 0, "velocity": 0, "duration": 300}, {"note": 74, "velocity": 116, "duration": 144}, {"note": 0, "velocity": 0, "duration": 96}, {"note": 76, "velocity": 116, "duration": 273}, {"note": 76, "velocity": 119, "duration": 33}, {"note": 0, "velocity": 0, "duration": 207}, {"note": 76, "velocity": 116, "duration": 78}, {"note": 0, "velocity": 0, "duration": 162}, {"note": 83, "velocity": 120, "duration": 302}, {"note": 81, "velocity": 117, "duration": 476}, {"note": 78, "velocity": 123, "duration": 325}, {"note": 76, "velocity": 114, "duration": 329}, {"note": 74, "velocity": 117, "duration": 307}, {"note": 71, "velocity": 116, "duration": 277}, {"note": 71, "velocity": 116, "duration": 37}, {"note": 0, "velocity": 0, "duration": 203}, {"note": 78, "velocity": 119, "duration": 298}, {"note": 76, "velocity": 119, "duration": 360}, {"note": 0, "velocity": 0, "duration": 360}, {"note": 71, "velocity": 116, "duration": 192}, {"note": 74, "velocity": 113, "duration": 162}, {"note": 76, "velocity": 116, "duration": 196}, {"note": 76, "velocity": 114, "duration": 222}, {"note": 78, "velocity": 114, "duration": 228}, {"note": 79, "velocity": 119, "duration": 265}, {"note": 78, "velocity": 119, "duration": 280}, {"note": 74, "velocity": 116, "duration": 240}, {"note": 79, "velocity": 117, "duration": 280}, {"note": 81, "velocity": 119, "duration": 280}, {"note": 83, "velocity": 120, "duration": 1320}, {"note": 0, "velocity": 0, "duration": 360}, {"note": 79, "velocity": 114, "duration": 149}, {"note": 81, "velocity": 108, "duration": 142}, {"note": 83, "velocity": 114, "duration": 249}, {"note": 81, "velocity": 116, "duration": 245}, {"note": 79, "velocity": 116, "duration": 280}, {"note": 83, "velocity": 120, "duration": 234}, {"note": 81, "velocity": 119, "duration": 310}, {"note": 0, "velocity": 0, "duration": 410}, {"note": 78, "velocity": 116, "duration": 168}, {"note": 79, "velocity": 113, "duration": 163}, {"note": 81, "velocity": 117, "duration": 257}, {"note": 81, "velocity": 119, "duration": 17}, {"note": 0, "velocity": 0, "duration": 223}, {"note": 83, "velocity": 119, "duration": 540}, {"note": 81, "velocity": 116, "duration": 248}, {"note": 79, "velocity": 120, "duration": 274}, {"note": 0, "velocity": 0, "duration": 206}, {"note": 76, "velocity": 107, "duration": 203}, {"note": 78, "velocity": 95, "duration": 143}, {"note": 79, "velocity": 117, "duration": 185}, {"note": 79, "velocity": 116, "duration": 216}, {"note": 81, "velocity": 117, "duration": 221}, {"note": 79, "velocity": 119, "duration": 240}, {"note": 78, "velocity": 123, "duration": 280}, {"note": 76, "velocity": 123, "duration": 160}, {"note": 74, "velocity": 116, "duration": 400}, {"note": 78, "velocity": 119, "duration": 570}, {"note": 76, "velocity": 119, "duration": 226}, {"note": 0, "velocity": 0, "duration": 16814}, {"note": 71, "velocity": 117, "duration": 235}, {"note": 71, "velocity": 108, "duration": 103}, {"note": 71, "velocity": 107, "duration": 94}, {"note": 71, "velocity": 113, "duration": 158}, {"note": 0, "velocity": 0, "duration": 82}, {"note": 76, "velocity": 117, "duration": 184}, {"note": 74, "velocity": 119, "duration": 257}, {"note": 74, "velocity": 114, "duration": 17}, {"note": 0, "velocity": 0, "duration": 223}, {"note": 71, "velocity": 116, "duration": 266}, {"note": 69, "velocity": 113, "duration": 224}, {"note": 71, "velocity": 117, "duration": 282}, {"note": 0, "velocity": 0, "duration": 1638}, {"note": 74, "velocity": 117, "duration": 274}, {"note": 69, "velocity": 113, "duration": 231}, {"note": 69, "velocity": 116, "duration": 224}, {"note": 76, "velocity": 117, "duration": 232}, {"note": 74, "velocity": 117, "duration": 263}, {"note": 74, "velocity": 102, "duration": 23}, {"note": 0, "velocity": 0, "duration": 217}, {"note": 76, "velocity": 114, "duration": 339}, {"note": 0, "velocity": 0, "duration": 141}, {"note": 74, "velocity": 117, "duration": 264}, {"note": 71, "velocity": 114, "duration": 320}, {"note": 0, "velocity": 0, "duration": 1360}, {"note": 76, "velocity": 108, "duration": 179}, {"note": 0, "velocity": 0, "duration": 61}, {"note": 76, "velocity": 108, "duration": 205}, {"note": 76, "velocity": 110, "duration": 219}, {"note": 79, "velocity": 114, "duration": 278}, {"note": 78, "velocity": 114, "duration": 284}, {"note": 0, "velocity": 0, "duration": 196}, {"note": 76, "velocity": 114, "duration": 291}, {"note": 74, "velocity": 114, "duration": 204}, {"note": 71, "velocity": 116, "duration": 268}, {"note": 71, "velocity": 108, "duration": 28}, {"note": 0, "velocity": 0, "duration": 212}, {"note": 71, "velocity": 114, "duration": 213}, {"note": 78, "velocity": 116, "duration": 240}, {"note": 76, "velocity": 116, "duration": 440}, {"note": 0, "velocity": 0, "duration": 520}, {"note": 76, "velocity": 92, "duration": 242}, {"note": 79, "velocity": 116, "duration": 301}, {"note": 81, "velocity": 117, "duration": 600}, {"note": 79, "velocity": 117, "duration": 228}, {"note": 78, "velocity": 116, "duration": 235}, {"note": 0, "velocity": 0, "duration": 485}, {"note": 78, "velocity": 119, "duration": 170}, {"note": 0, "velocity": 0, "duration": 70}, {"note": 78, "velocity": 116, "duration": 256}, {"note": 76, "velocity": 116, "duration": 275}, {"note": 74, "velocity": 117, "duration": 268}, {"note": 76, "velocity": 114, "duration": 1140}, {"note": 0, "velocity": 0, "duration": 1740}, {"note": 76, "velocity": 119, "duration": 261}, {"note": 76, "velocity": 117, "duration": 21}, {"note": 0, "velocity": 0, "duration": 219}, {"note": 76, "velocity": 117, "duration": 30}, {"note": 0, "velocity": 0, "duration": 210}, {"note": 83, "velocity": 120, "duration": 290}, {"note": 81, "velocity": 117, "duration": 464}, {"note": 78, "velocity": 123, "duration": 313}, {"note": 76, "velocity": 114, "duration": 317}, {"note": 74, "velocity": 117, "duration": 295}, {"note": 71, "velocity": 116, "duration": 265}, {"note": 71, "velocity": 116, "duration": 25}, {"note": 0, "velocity": 0, "duration": 215}, {"note": 78, "velocity": 119, "duration": 286}, {"note": 76, "velocity": 119, "duration": 348}, {"note": 0, "velocity": 0, "duration": 372}, {"note": 71, "velocity": 116, "duration": 230}, {"note": 74, "velocity": 113, "duration": 200}, {"note": 76, "velocity": 116, "duration": 234}, {"note": 76, "velocity": 114, "duration": 260}, {"note": 78, "velocity": 114, "duration": 266}, {"note": 79, "velocity": 119, "duration": 303}, {"note": 78, "velocity": 119, "duration": 318}, {"note": 74, "velocity": 116, "duration": 300}, {"note": 79, "velocity": 117, "duration": 289}, {"note": 81, "velocity": 119, "duration": 284}, {"note": 83, "velocity": 120, "duration": 420}, {"note": 0, "velocity": 0, "duration": 1260}, {"note": 79, "velocity": 114, "duration": 174}, {"note": 81, "velocity": 108, "duration": 167}, {"note": 83, "velocity": 114, "duration": 274}, {"note": 81, "velocity": 116, "duration": 270}, {"note": 79, "velocity": 116, "duration": 225}, {"note": 83, "velocity": 120, "duration": 259}, {"note": 81, "velocity": 119, "duration": 335}, {"note": 0, "velocity": 0, "duration": 385}, {"note": 78, "velocity": 116, "duration": 175}, {"note": 79, "velocity": 113, "duration": 170}, {"note": 81, "velocity": 117, "duration": 264}, {"note": 81, "velocity": 119, "duration": 24}, {"note": 0, "velocity": 0, "duration": 216}, {"note": 83, "velocity": 119, "duration": 307}, {"note": 0, "velocity": 0, "duration": 173}, {"note": 81, "velocity": 116, "duration": 255}, {"note": 79, "velocity": 120, "duration": 281}, {"note": 0, "velocity": 0, "duration": 199}, {"note": 76, "velocity": 107, "duration": 230}, {"note": 78, "velocity": 95, "duration": 170}, {"note": 79, "velocity": 117, "duration": 212}, {"note": 79, "velocity": 116, "duration": 243}, {"note": 81, "velocity": 117, "duration": 248}, {"note": 83, "velocity": 119, "duration": 267}, {"note": 78, "velocity": 123, "duration": 540}, {"note": 74, "velocity": 116, "duration": 277}, {"note": 78, "velocity": 119, "duration": 520}, {"note": 76, "velocity": 119, "duration": 1040}, {"note": 0, "velocity": 0, "duration": 400}, {"note": 74, "velocity": 116, "duration": 225}, {"note": 76, "velocity": 116, "duration": 212}, {"note": 76, "velocity": 119, "duration": 257}, {"note": 76, "velocity": 116, "duration": 17}, {"note": 0, "velocity": 0, "duration": 223}, {"note": 83, "velocity": 120, "duration": 241}, {"note": 81, "velocity": 117, "duration": 415}, {"note": 0, "velocity": 0, "duration": 65}, {"note": 78, "velocity": 123, "duration": 264}, {"note": 76, "velocity": 114, "duration": 268}, {"note": 74, "velocity": 117, "duration": 246}, {"note": 71, "velocity": 116, "duration": 216}, {"note": 71, "velocity": 116, "duration": 240}, {"note": 78, "velocity": 119, "duration": 237}, {"note": 76, "velocity": 119, "duration": 299}, {"note": 0, "velocity": 0, "duration": 421}, {"note": 71, "velocity": 116, "duration": 206}, {"note": 74, "velocity": 113, "duration": 176}, {"note": 76, "velocity": 116, "duration": 210}, {"note": 76, "velocity": 114, "duration": 236}, {"note": 78, "velocity": 114, "duration": 242}, {"note": 79, "velocity": 119, "duration": 279}, {"note": 78, "velocity": 119, "duration": 269}, {"note": 74, "velocity": 116, "duration": 251}, {"note": 79, "velocity": 117, "duration": 240}, {"note": 81, "velocity": 119, "duration": 235}, {"note": 83, "velocity": 120, "duration": 1240}, {"note": 0, "velocity": 0, "duration": 440}, {"note": 79, "velocity": 114, "duration": 119}, {"note": 81, "velocity": 108, "duration": 112}, {"note": 83, "velocity": 114, "duration": 219}, {"note": 81, "velocity": 116, "duration": 215}, {"note": 79, "velocity": 116, "duration": 240}, {"note": 83, "velocity": 120, "duration": 204}, {"note": 81, "velocity": 119, "duration": 600}, {"note": 0, "velocity": 0, "duration": 120}, {"note": 78, "velocity": 116, "duration": 120}, {"note": 79, "velocity": 113, "duration": 115}, {"note": 81, "velocity": 117, "duration": 209}, {"note": 81, "velocity": 119, "duration": 300}, {"note": 83, "velocity": 119, "duration": 560}, {"note": 81, "velocity": 116, "duration": 200}, {"note": 79, "velocity": 120, "duration": 480}, {"note": 76, "velocity": 107, "duration": 175}, {"note": 78, "velocity": 95, "duration": 115}, {"note": 79, "velocity": 117, "duration": 157}, {"note": 0, "velocity": 0, "duration": 83}, {"note": 79, "velocity": 116, "duration": 188}, {"note": 81, "velocity": 117, "duration": 193}, {"note": 83, "velocity": 119, "duration": 212}, {"note": 78, "velocity": 123, "duration": 467}, {"note": 74, "velocity": 116, "duration": 422}, {"note": 78, "velocity": 119, "duration": 523}, {"note": 76, "velocity": 119, "duration": 480}, {"note": 0, "velocity": 0, "duration": 1200}, {"note": 76, "velocity": 119, "duration": 261}, {"note": 76, "velocity": 117, "duration": 21}, {"note": 0, "velocity": 0, "duration": 219}, {"note": 76, "velocity": 117, "duration": 30}, {"note": 0, "velocity": 0, "duration": 210}, {"note": 83, "velocity": 120, "duration": 290}, {"note": 81, "velocity": 117, "duration": 464}, {"note": 78, "velocity": 123, "duration": 313}, {"note": 76, "velocity": 114, "duration": 317}, {"note": 74, "velocity": 117, "duration": 295}, {"note": 71, "velocity": 116, "duration": 265}, {"note": 71, "velocity": 116, "duration": 25}, {"note": 0, "velocity": 0, "duration": 215}, {"note": 78, "velocity": 119, "duration": 286}, {"note": 76, "velocity": 119, "duration": 348}, {"note": 0, "velocity": 0, "duration": 372}, {"note": 71, "velocity": 116, "duration": 230}, {"note": 74, "velocity": 113, "duration": 200}, {"note": 76, "velocity": 116, "duration": 234}, {"note": 76, "velocity": 114, "duration": 260}, {"note": 78, "velocity": 114, "duration": 266}, {"note": 79, "velocity": 119, "duration": 303}, {"note": 78, "velocity": 119, "duration": 318}, {"note": 74, "velocity": 116, "duration": 300}, {"note": 79, "velocity": 117, "duration": 289}, {"note": 81, "velocity": 119, "duration": 284}, {"note": 83, "velocity": 120, "duration": 1400}, {"note": 0, "velocity": 0, "duration": 280}, {"note": 79, "velocity": 114, "duration": 199}, {"note": 81, "velocity": 108, "duration": 192}, {"note": 83, "velocity": 114, "duration": 299}, {"note": 81, "velocity": 116, "duration": 295}, {"note": 79, "velocity": 116, "duration": 250}, {"note": 83, "velocity": 120, "duration": 284}, {"note": 81, "velocity": 119, "duration": 360}, {"note": 0, "velocity": 0, "duration": 360}, {"note": 78, "velocity": 116, "duration": 200}, {"note": 79, "velocity": 113, "duration": 195}, {"note": 81, "velocity": 117, "duration": 289}, {"note": 81, "velocity": 119, "duration": 49}, {"note": 0, "velocity": 0, "duration": 191}, {"note": 83, "velocity": 119, "duration": 332}, {"note": 0, "velocity": 0, "duration": 148}, {"note": 81, "velocity": 116, "duration": 280}, {"note": 79, "velocity": 120, "duration": 306}, {"note": 0, "velocity": 0, "duration": 174}, {"note": 76, "velocity": 107, "duration": 233}, {"note": 78, "velocity": 95, "duration": 173}, {"note": 79, "velocity": 117, "duration": 215}, {"note": 79, "velocity": 116, "duration": 246}, {"note": 81, "velocity": 117, "duration": 251}, {"note": 83, "velocity": 119, "duration": 270}, {"note": 78, "velocity": 123, "duration": 464}, {"note": 74, "velocity": 116, "duration": 320}, {"note": 78, "velocity": 119, "duration": 520}, {"note": 76, "velocity": 119, "duration": 1080}, {"note": 0, "velocity": 0, "duration": 360}, {"note": 74, "velocity": 116, "duration": 274}, {"note": 76, "velocity": 116, "duration": 261}, {"note": 76, "velocity": 119, "duration": 21}, {"note": 0, "velocity": 0, "duration": 219}, {"note": 76, "velocity": 116, "duration": 66}, {"note": 0, "velocity": 0, "duration": 174}, {"note": 83, "velocity": 120, "duration": 290}, {"note": 81, "velocity": 117, "duration": 464}, {"note": 78, "velocity": 123, "duration": 313}, {"note": 76, "velocity": 114, "duration": 317}, {"note": 74, "velocity": 117, "duration": 295}, {"note": 71, "velocity": 116, "duration": 265}, {"note": 71, "velocity": 116, "duration": 25}, {"note": 0, "velocity": 0, "duration": 215}, {"note": 78, "velocity": 119, "duration": 286}, {"note": 76, "velocity": 119, "duration": 348}, {"note": 0, "velocity": 0, "duration": 372}, {"note": 71, "velocity": 116, "duration": 230}, {"note": 74, "velocity": 113, "duration": 200}, {"note": 76, "velocity": 116, "duration": 234}, {"note": 76, "velocity": 114, "duration": 260}, {"note": 78, "velocity": 114, "duration": 266}, {"note": 79, "velocity": 119, "duration": 303}, {"note": 78, "velocity": 119, "duration": 318}, {"note": 74, "velocity": 116, "duration": 300}, {"note": 79, "velocity": 117, "duration": 289}, {"note": 81, "velocity": 119, "duration": 284}, {"note": 83, "velocity": 120, "duration": 1080}, {"note": 0, "velocity": 0, "duration": 600}, {"note": 79, "velocity": 114, "duration": 199}, {"note": 81, "velocity": 108, "duration": 192}, {"note": 83, "velocity": 114, "duration": 299}, {"note": 81, "velocity": 116, "duration": 295}, {"note": 79, "velocity": 116, "duration": 250}, {"note": 83, "velocity": 120, "duration": 284}, {"note": 81, "velocity": 119, "duration": 690}, {"note": 78, "velocity": 116, "duration": 200}, {"note": 79, "velocity": 113, "duration": 195}, {"note": 81, "velocity": 117, "duration": 289}, {"note": 81, "velocity": 119, "duration": 49}, {"note": 0, "velocity": 0, "duration": 191}, {"note": 83, "velocity": 119, "duration": 332}, {"note": 0, "velocity": 0, "duration": 148}, {"note": 81, "velocity": 116, "duration": 280}, {"note": 79, "velocity": 120, "duration": 400}, {"note": 0, "velocity": 0, "duration": 80}, {"note": 76, "velocity": 107, "duration": 255}, {"note": 78, "velocity": 95, "duration": 195}, {"note": 79, "velocity": 117, "duration": 237}, {"note": 79, "velocity": 116, "duration": 268}, {"note": 81, "velocity": 117, "duration": 273}, {"note": 83, "velocity": 119, "duration": 292}, {"note": 78, "velocity": 123, "duration": 467}, {"note": 74, "velocity": 116, "duration": 422}, {"note": 78, "velocity": 119, "duration": 523}, {"note": 76, "velocity": 119, "duration": 960}, {"note": 0, "velocity": 0, "duration": 480}, {"note": 76, "velocity": 108, "duration": 214}, {"note": 78, "velocity": 106, "duration": 160}, {"note": 79, "velocity": 114, "duration": 188}, {"note": 79, "velocity": 116, "duration": 227}, {"note": 81, "velocity": 114, "duration": 261}, {"note": 79, "velocity": 108, "duration": 239}, {"note": 78, "velocity": 116, "duration": 321}, {"note": 76, "velocity": 108, "duration": 294}, {"note": 74, "velocity": 113, "duration": 1020}, {"note": 0, "velocity": 0, "duration": 420}, {"note": 78, "velocity": 116, "duration": 540}, {"note": 76, "velocity": 117, "duration": 1560}]]