[[{"note": 62, "velocity": 112, "duration": 186}, {"note": 59, "velocity": 83, "duration": 215}, {"note": 57, "velocity": 82, "duration": 229}, {"note": 55, "velocity": 82, "duration": 253}, {"note": 57, "velocity": 93, "duration": 183}, {"note": 55, "velocity": 82, "duration": 131}, {"note": 0, "velocity": 0, "duration": 109}, {"note": 57, "velocity": 97, "duration": 178}, {"note": 0, "velocity": 0, "duration": 62}, {"note": 59, "velocity": 90, "duration": 189}, {"note": 62, "velocity": 99, "duration": 197}, {"note": 0, "velocity": 0, "duration": 283}, {"note": 64, "velocity": 96, "duration": 112}, {"note": 0, "velocity": 0, "duration": 128}, {"note": 59, "velocity": 92, "duration": 492}, {"note": 0, "velocity": 0, "duration": 708}, {"note": 64, "velocity": 93, "duration": 86}, {"note": 0, "velocity": 0, "duration": 154}, {"note": 55, "velocity": 88, "duration": 173}, {"note": 0, "velocity": 0, "duration": 307}, {"note": 55, "velocity": 93, "duration": 61}, {"note": 64, "velocity": 90, "duration": 61}, {"note": 62, "velocity": 100, "duration": 105}, {"note": 0, "velocity": 0, "duration": 135}, {"note": 55, "velocity": 93, "duration": 304}, {"note": 0, "velocity": 0, "duration": 176}, {"note": 55, "velocity": 92, "duration": 79}, {"note": 52, "velocity": 68, "duration": 116}, {"note": 55, "velocity": 90, "duration": 372}, {"note": 0, "velocity": 0, "duration": 108}, {"note": 59, "velocity": 100, "duration": 112}, {"note": 62, "velocity": 93, "duration": 99}, {"note": 0, "velocity": 0, "duration": 141}, {"note": 59, "velocity": 96, "duration": 185}, {"note": 0, "velocity": 0, "duration": 175}, {"note": 57, "velocity": 95, "duration": 583}, {"note": 0, "velocity": 0, "duration": 377}, {"note": 59, "velocity": 81, "duration": 171}, {"note": 0, "velocity": 0, "duration": 69}, {"note": 59, "velocity": 90, "duration": 154}, {"note": 0, "velocity": 0, "duration": 86}, {"note": 57, "velocity": 79, "duration": 89}, {"note": 59, "velocity": 93, "duration": 433}, {"note": 0, "velocity": 0, "duration": 167}, {"note": 59, "velocity": 97, "duration": 93}, {"note": 66, "velocity": 100, "duration": 156}, {"note": 0, "velocity": 0, "duration": 84}, {"note": 67, "velocity": 99, "duration": 458}, {"note": 66, "velocity": 100, "duration": 149}, {"note": 0, "velocity": 0, "duration": 91}, {"note": 64, "velocity": 102, "duration": 99}, {"note": 62, "velocity": 92, "duration": 124}, {"note": 0, "velocity": 0, "duration": 116}, {"note": 64, "velocity": 93, "duration": 284}, {"note": 0, "velocity": 0, "duration": 76}, {"note": 64, "velocity": 90, "duration": 56}, {"note": 0, "velocity": 0, "duration": 64}, {"note": 59, "velocity": 83, "duration": 226}, {"note": 57, "velocity": 83, "duration": 95}, {"note": 55, "velocity": 92, "duration": 254}, {"note": 62, "velocity": 96, "duration": 93}, {"note": 0, "velocity": 0, "duration": 147}, {"note": 55, "velocity": 95, "duration": 98}, {"note": 0, "velocity": 0, "duration": 382}, {"note": 55, "velocity": 93, "duration": 72}, {"note": 64, "velocity": 85, "duration": 69}, {"note": 62, "velocity": 90, "duration": 182}, {"note": 55, "velocity": 93, "duration": 151}, {"note": 0, "velocity": 0, "duration": 329}, {"note": 55, "velocity": 79, "duration": 66}, {"note": 52, "velocity": 78, "duration": 63}, {"note": 55, "velocity": 92, "duration": 371}, {"note": 0, "velocity": 0, "duration": 109}, {"note": 57, "velocity": 96, "duration": 428}, {"note": 55, "velocity": 83, "duration": 856}, {"note": 0, "velocity": 0, "duration": 1064}, {"note": 62, "velocity": 112, "duration": 186}, {"note": 59, "velocity": 83, "duration": 215}, {"note": 57, "velocity": 82, "duration": 229}, {"note": 55, "velocity": 82, "duration": 253}, {"note": 57, "velocity": 93, "duration": 183}, {"note": 55, "velocity": 82, "duration": 131}, {"note": 0, "velocity": 0, "duration": 109}, {"note": 57, "velocity": 97, "duration": 178}, {"note": 0, "velocity": 0, "duration": 62}, {"note": 59, "velocity": 90, "duration": 189}, {"note": 62, "velocity": 99, "duration": 197}, {"note": 0, "velocity": 0, "duration": 283}, {"note": 64, "velocity": 96, "duration": 112}, {"note": 0, "velocity": 0, "duration": 128}, {"note": 59, "velocity": 92, "duration": 492}, {"note": 0, "velocity": 0, "duration": 708}, {"note": 64, "velocity": 93, "duration": 86}, {"note": 0, "velocity": 0, "duration": 154}, {"note": 55, "velocity": 88, "duration": 173}, {"note": 0, "velocity": 0, "duration": 307}, {"note": 55, "velocity": 93, "duration": 61}, {"note": 64, "velocity": 90, "duration": 61}, {"note": 62, "velocity": 100, "duration": 105}, {"note": 0, "velocity": 0, "duration": 135}, {"note": 55, "velocity": 93, "duration": 304}, {"note": 0, "velocity": 0, "duration": 176}, {"note": 55, "velocity": 92, "duration": 79}, {"note": 52, "velocity": 68, "duration": 116}, {"note": 55, "velocity": 90, "duration": 372}, {"note": 0, "velocity": 0, "duration": 108}, {"note": 59, "velocity": 100, "duration": 112}, {"note": 62, "velocity": 93, "duration": 99}, {"note": 0, "velocity": 0, "duration": 141}, {"note": 59, "velocity": 96, "duration": 185}, {"note": 0, "velocity": 0, "duration": 175}, {"note": 57, "velocity": 95, "duration": 583}, {"note": 0, "velocity": 0, "duration": 377}, {"note": 59, "velocity": 81, "duration": 171}, {"note": 0, "velocity": 0, "duration": 69}, {"note": 59, "velocity": 90, "duration": 154}, {"note": 0, "velocity": 0, "duration": 86}, {"note": 57, "velocity": 79, "duration": 89}, {"note": 59, "velocity": 93, "duration": 433}, {"note": 0, "velocity": 0, "duration": 167}, {"note": 59, "velocity": 97, "duration": 93}, {"note": 66, "velocity": 100, "duration": 156}, {"note": 0, "velocity": 0, "duration": 84}, {"note": 67, "velocity": 99, "duration": 458}, {"note": 66, "velocity": 100, "duration": 149}, {"note": 0, "velocity": 0, "duration": 91}, {"note": 64, "velocity": 102, "duration": 99}, {"note": 62, "velocity": 92, "duration": 124}, {"note": 0, "velocity": 0, "duration": 116}, {"note": 64, "velocity": 93, "duration": 284}, {"note": 0, "velocity": 0, "duration": 76}, {"note": 64, "velocity": 90, "duration": 56}, {"note": 0, "velocity": 0, "duration": 64}, {"note": 59, "velocity": 83, "duration": 226}, {"note": 57, "velocity": 83, "duration": 95}, {"note": 55, "velocity": 92, "duration": 254}, {"note": 62, "velocity": 96, "duration": 93}, {"note": 0, "velocity": 0, "duration": 147}, {"note": 55, "velocity": 95, "duration": 98}, {"note": 0, "velocity": 0, "duration": 382}, {"note": 55, "velocity": 93, "duration": 72}, {"note": 64, "velocity": 85, "duration": 69}, {"note": 62, "velocity": 90, "duration": 182}, {"note": 55, "velocity": 93, "duration": 151}, {"note": 0, "velocity": 0, "duration": 329}, {"note": 55, "velocity": 79, "duration": 66}, {"note": 52, "velocity": 78, "duration": 63}, {"note": 55, "velocity": 92, "duration": 371}, {"note": 0, "velocity": 0, "duration": 109}, {"note": 57, "velocity": 96, "duration": 428}, {"note": 55, "velocity": 83, "duration": 856}, {"note": 0, "velocity": 0, "duration": 344}, {"note": 54, "velocity": 107, "duration": 113}, {"note": 0, "velocity": 0, "duration": 127}, {"note": 54, "velocity": 112, "duration": 118}, {"note": 0, "velocity": 0, "duration": 122}, {"note": 59, "velocity": 102, "duration": 45}, {"note": 0, "velocity": 0, "duration": 75}, {"note": 59, "velocity": 122, "duration": 143}, {"note": 0, "velocity": 0, "duration": 1177}, {"note": 52, "velocity": 83, "duration": 39}, {"note": 0, "velocity": 0, "duration": 81}, {"note": 52, "velocity": 83, "duration": 62}, {"note": 52, "velocity": 93, "duration": 149}, {"note": 0, "velocity": 0, "duration": 91}, {"note": 59, "velocity": 100, "duration": 42}, {"note": 0, "velocity": 0, "duration": 78}, {"note": 59, "velocity": 117, "duration": 147}, {"note": 0, "velocity": 0, "duration": 93}, {"note": 59, "velocity": 127, "duration": 116}, {"note": 0, "velocity": 0, "duration": 124}, {"note": 59, "velocity": 117, "duration": 87}, {"note": 0, "velocity": 0, "duration": 153}, {"note": 57, "velocity": 122, "duration": 48}, {"note": 0, "velocity": 0, "duration": 72}, {"note": 55, "velocity": 102, "duration": 131}, {"note": 0, "velocity": 0, "duration": 109}, {"note": 64, "velocity": 122, "duration": 138}, {"note": 0, "velocity": 0, "duration": 102}, {"note": 62, "velocity": 102, "duration": 152}, {"note": 0, "velocity": 0, "duration": 328}, {"note": 62, "velocity": 102, "duration": 62}, {"note": 59, "velocity": 90, "duration": 83}, {"note": 64, "velocity": 102, "duration": 163}, {"note": 0, "velocity": 0, "duration": 77}, {"note": 62, "velocity": 112, "duration": 152}, {"note": 0, "velocity": 0, "duration": 328}, {"note": 59, "velocity": 100, "duration": 62}, {"note": 62, "velocity": 102, "duration": 53}, {"note": 0, "velocity": 0, "duration": 67}, {"note": 64, "velocity": 117, "duration": 297}, {"note": 0, "velocity": 0, "duration": 183}, {"note": 66, "velocity": 117, "duration": 222}, {"note": 64, "velocity": 107, "duration": 211}, {"note": 62, "velocity": 100, "duration": 667}, {"note": 0, "velocity": 0, "duration": 293}, {"note": 67, "velocity": 117, "duration": 153}, {"note": 0, "velocity": 0, "duration": 87}, {"note": 66, "velocity": 112, "duration": 151}, {"note": 0, "velocity": 0, "duration": 89}, {"note": 64, "velocity": 117, "duration": 145}, {"note": 0, "velocity": 0, "duration": 95}, {"note": 62, "velocity": 107, "duration": 146}, {"note": 0, "velocity": 0, "duration": 94}, {"note": 64, "velocity": 107, "duration": 156}, {"note": 0, "velocity": 0, "duration": 84}, {"note": 62, "velocity": 99, "duration": 132}, {"note": 0, "velocity": 0, "duration": 108}, {"note": 59, "velocity": 107, "duration": 194}, {"note": 57, "velocity": 122, "duration": 146}, {"note": 0, "velocity": 0, "duration": 94}, {"note": 55, "velocity": 99, "duration": 366}, {"note": 0, "velocity": 0, "duration": 114}, {"note": 57, "velocity": 112, "duration": 409}, {"note": 0, "velocity": 0, "duration": 71}, {"note": 59, "velocity": 127, "duration": 267}, {"note": 0, "velocity": 0, "duration": 693}, {"note": 67, "velocity": 107, "duration": 211}, {"note": 66, "velocity": 117, "duration": 151}, {"note": 0, "velocity": 0, "duration": 89}, {"note": 64, "velocity": 100, "duration": 174}, {"note": 0, "velocity": 0, "duration": 66}, {"note": 62, "velocity": 102, "duration": 195}, {"note": 64, "velocity": 100, "duration": 188}, {"note": 62, "velocity": 96, "duration": 194}, {"note": 59, "velocity": 117, "duration": 182}, {"note": 57, "velocity": 107, "duration": 155}, {"note": 0, "velocity": 0, "duration": 85}, {"note": 55, "velocity": 100, "duration": 443}, {"note": 57, "velocity": 112, "duration": 378}, {"note": 0, "velocity": 0, "duration": 102}, {"note": 55, "velocity": 102, "duration": 766}, {"note": 0, "velocity": 0, "duration": 21314}, {"note": 62, "velocity": 112, "duration": 186}, {"note": 59, "velocity": 83, "duration": 215}, {"note": 57, "velocity": 82, "duration": 229}, {"note": 55, "velocity": 82, "duration": 253}, {"note": 57, "velocity": 93, "duration": 183}, {"note": 55, "velocity": 82, "duration": 131}, {"note": 0, "velocity": 0, "duration": 109}, {"note": 57, "velocity": 97, "duration": 178}, {"note": 0, "velocity": 0, "duration": 62}, {"note": 59, "velocity": 90, "duration": 189}, {"note": 62, "velocity": 99, "duration": 197}, {"note": 0, "velocity": 0, "duration": 283}, {"note": 64, "velocity": 96, "duration": 112}, {"note": 0, "velocity": 0, "duration": 128}, {"note": 59, "velocity": 92, "duration": 492}, {"note": 0, "velocity": 0, "duration": 708}, {"note": 64, "velocity": 93, "duration": 86}, {"note": 0, "velocity": 0, "duration": 154}, {"note": 55, "velocity": 88, "duration": 173}, {"note": 0, "velocity": 0, "duration": 307}, {"note": 55, "velocity": 93, "duration": 61}, {"note": 64, "velocity": 90, "duration": 61}, {"note": 62, "velocity": 100, "duration": 105}, {"note": 0, "velocity": 0, "duration": 135}, {"note": 55, "velocity": 93, "duration": 304}, {"note": 0, "velocity": 0, "duration": 176}, {"note": 55, "velocity": 92, "duration": 79}, {"note": 52, "velocity": 68, "duration": 116}, {"note": 55, "velocity": 90, "duration": 372}, {"note": 0, "velocity": 0, "duration": 108}, {"note": 59, "velocity": 100, "duration": 112}, {"note": 62, "velocity": 93, "duration": 99}, {"note": 0, "velocity": 0, "duration": 141}, {"note": 59, "velocity": 96, "duration": 185}, {"note": 0, "velocity": 0, "duration": 175}, {"note": 57, "velocity": 95, "duration": 583}, {"note": 0, "velocity": 0, "duration": 377}, {"note": 59, "velocity": 81, "duration": 171}, {"note": 0, "velocity": 0, "duration": 69}, {"note": 59, "velocity": 90, "duration": 154}, {"note": 0, "velocity": 0, "duration": 86}, {"note": 57, "velocity": 79, "duration": 89}, {"note": 59, "velocity": 93, "duration": 433}, {"note": 0, "velocity": 0, "duration": 167}, {"note": 59, "velocity": 97, "duration": 93}, {"note": 66, "velocity": 100, "duration": 156}, {"note": 0, "velocity": 0, "duration": 84}, {"note": 67, "velocity": 99, "duration": 458}, {"note": 66, "velocity": 100, "duration": 149}, {"note": 0, "velocity": 0, "duration": 91}, {"note": 64, "velocity": 102, "duration": 99}, {"note": 62, "velocity": 92, "duration": 124}, {"note": 0, "velocity": 0, "duration": 116}, {"note": 64, "velocity": 93, "duration": 284}, {"note": 0, "velocity": 0, "duration": 76}, {"note": 64, "velocity": 90, "duration": 56}, {"note": 0, "velocity": 0, "duration": 64}, {"note": 59, "velocity": 83, "duration": 226}, {"note": 57, "velocity": 83, "duration": 95}, {"note": 55, "velocity": 92, "duration": 254}, {"note": 62, "velocity": 96, "duration": 93}, {"note": 0, "velocity": 0, "duration": 147}, {"note": 55, "velocity": 95, "duration": 98}, {"note": 0, "velocity": 0, "duration": 382}, {"note": 55, "velocity": 93, "duration": 72}, {"note": 64, "velocity": 85, "duration": 69}, {"note": 62, "velocity": 90, "duration": 182}, {"note": 55, "velocity": 93, "duration": 151}, {"note": 0, "velocity": 0, "duration": 329}, {"note": 55, "velocity": 79, "duration": 66}, {"note": 52, "velocity": 78, "duration": 63}, {"note": 55, "velocity": 92, "duration": 371}, {"note": 0, "velocity": 0, "duration": 109}, {"note": 57, "velocity": 96, "duration": 428}, {"note": 55, "velocity": 83, "duration": 856}, {"note": 0, "velocity": 0, "duration": 344}, {"note": 54, "velocity": 107, "duration": 113}, {"note": 0, "velocity": 0, "duration": 127}, {"note": 54, "velocity": 112, "duration": 118}, {"note": 0, "velocity": 0, "duration": 122}, {"note": 59, "velocity": 102, "duration": 45}, {"note": 0, "velocity": 0, "duration": 75}, {"note": 59, "velocity": 122, "duration": 143}, {"note": 0, "velocity": 0, "duration": 1177}, {"note": 52, "velocity": 83, "duration": 39}, {"note": 0, "velocity": 0, "duration": 81}, {"note": 52, "velocity": 83, "duration": 62}, {"note": 52, "velocity": 93, "duration": 149}, {"note": 0, "velocity": 0, "duration": 91}, {"note": 59, "velocity": 100, "duration": 42}, {"note": 0, "velocity": 0, "duration": 78}, {"note": 59, "velocity": 117, "duration": 147}, {"note": 0, "velocity": 0, "duration": 93}, {"note": 59, "velocity": 127, "duration": 116}, {"note": 0, "velocity": 0, "duration": 124}, {"note": 59, "velocity": 117, "duration": 87}, {"note": 0, "velocity": 0, "duration": 153}, {"note": 57, "velocity": 122, "duration": 48}, {"note": 0, "velocity": 0, "duration": 72}, {"note": 55, "velocity": 102, "duration": 131}, {"note": 0, "velocity": 0, "duration": 109}, {"note": 64, "velocity": 122, "duration": 138}, {"note": 0, "velocity": 0, "duration": 102}, {"note": 62, "velocity": 102, "duration": 152}, {"note": 0, "velocity": 0, "duration": 328}, {"note": 62, "velocity": 102, "duration": 62}, {"note": 59, "velocity": 90, "duration": 83}, {"note": 64, "velocity": 102, "duration": 163}, {"note": 0, "velocity": 0, "duration": 77}, {"note": 62, "velocity": 112, "duration": 152}, {"note": 0, "velocity": 0, "duration": 328}, {"note": 59, "velocity": 100, "duration": 62}, {"note": 62, "velocity": 102, "duration": 53}, {"note": 0, "velocity": 0, "duration": 67}, {"note": 64, "velocity": 117, "duration": 297}, {"note": 0, "velocity": 0, "duration": 183}, {"note": 66, "velocity": 117, "duration": 222}, {"note": 64, "velocity": 107, "duration": 211}, {"note": 62, "velocity": 100, "duration": 667}, {"note": 0, "velocity": 0, "duration": 3173}, {"note": 67, "velocity": 122, "duration": 189}, {"note": 66, "velocity": 127, "duration": 160}, {"note": 0, "velocity": 0, "duration": 80}, {"note": 64, "velocity": 107, "duration": 195}, {"note": 62, "velocity": 89, "duration": 185}, {"note": 64, "velocity": 107, "duration": 183}, {"note": 62, "velocity": 79, "duration": 218}, {"note": 59, "velocity": 112, "duration": 178}, {"note": 0, "velocity": 0, "duration": 62}, {"note": 57, "velocity": 112, "duration": 154}, {"note": 0, "velocity": 0, "duration": 86}, {"note": 55, "velocity": 100, "duration": 344}, {"note": 0, "velocity": 0, "duration": 136}, {"note": 57, "velocity": 122, "duration": 379}, {"note": 0, "velocity": 0, "duration": 101}, {"note": 59, "velocity": 127, "duration": 577}, {"note": 0, "velocity": 0, "duration": 383}, {"note": 67, "velocity": 117, "duration": 167}, {"note": 0, "velocity": 0, "duration": 73}, {"note": 66, "velocity": 127, "duration": 180}, {"note": 64, "velocity": 117, "duration": 126}, {"note": 0, "velocity": 0, "duration": 114}, {"note": 62, "velocity": 112, "duration": 127}, {"note": 0, "velocity": 0, "duration": 113}, {"note": 64, "velocity": 107, "duration": 145}, {"note": 0, "velocity": 0, "duration": 95}, {"note": 62, "velocity": 117, "duration": 160}, {"note": 0, "velocity": 0, "duration": 80}, {"note": 59, "velocity": 112, "duration": 154}, {"note": 0, "velocity": 0, "duration": 86}, {"note": 57, "velocity": 100, "duration": 164}, {"note": 0, "velocity": 0, "duration": 76}, {"note": 55, "velocity": 99, "duration": 338}, {"note": 0, "velocity": 0, "duration": 142}, {"note": 57, "velocity": 112, "duration": 365}, {"note": 0, "velocity": 0, "duration": 115}, {"note": 55, "velocity": 102, "duration": 778}, {"note": 0, "velocity": 0, "duration": 182}, {"note": 67, "velocity": 127, "duration": 161}, {"note": 0, "velocity": 0, "duration": 79}, {"note": 66, "velocity": 122, "duration": 153}, {"note": 0, "velocity": 0, "duration": 87}, {"note": 64, "velocity": 99, "duration": 152}, {"note": 0, "velocity": 0, "duration": 88}, {"note": 62, "velocity": 95, "duration": 147}, {"note": 0, "velocity": 0, "duration": 93}, {"note": 64, "velocity": 122, "duration": 160}, {"note": 0, "velocity": 0, "duration": 80}, {"note": 62, "velocity": 107, "duration": 134}, {"note": 0, "velocity": 0, "duration": 106}, {"note": 59, "velocity": 107, "duration": 164}, {"note": 0, "velocity": 0, "duration": 76}, {"note": 57, "velocity": 112, "duration": 143}, {"note": 0, "velocity": 0, "duration": 97}, {"note": 55, "velocity": 112, "duration": 383}, {"note": 0, "velocity": 0, "duration": 97}, {"note": 57, "velocity": 127, "duration": 339}, {"note": 0, "velocity": 0, "duration": 141}, {"note": 59, "velocity": 127, "duration": 507}, {"note": 0, "velocity": 0, "duration": 453}, {"note": 67, "velocity": 127, "duration": 155}, {"note": 0, "velocity": 0, "duration": 85}, {"note": 66, "velocity": 127, "duration": 148}, {"note": 0, "velocity": 0, "duration": 92}, {"note": 64, "velocity": 107, "duration": 157}, {"note": 0, "velocity": 0, "duration": 83}, {"note": 62, "velocity": 100, "duration": 152}, {"note": 0, "velocity": 0, "duration": 88}, {"note": 64, "velocity": 107, "duration": 140}, {"note": 0, "velocity": 0, "duration": 100}, {"note": 62, "velocity": 100, "duration": 141}, {"note": 0, "velocity": 0, "duration": 99}, {"note": 59, "velocity": 117, "duration": 156}, {"note": 0, "velocity": 0, "duration": 84}, {"note": 57, "velocity": 107, "duration": 148}, {"note": 0, "velocity": 0, "duration": 92}, {"note": 55, "velocity": 112, "duration": 367}, {"note": 0, "velocity": 0, "duration": 113}, {"note": 57, "velocity": 127, "duration": 328}, {"note": 0, "velocity": 0, "duration": 152}, {"note": 55, "velocity": 127, "duration": 909}]]