[[{"note": 66, "velocity": 87, "duration": 404}, {"note": 0, "velocity": 0, "duration": 77}, {"note": 66, "velocity": 93, "duration": 99}, {"note": 64, "velocity": 85, "duration": 156}, {"note": 0, "velocity": 0, "duration": 80}, {"note": 66, "velocity": 90, "duration": 455}, {"note": 0, "velocity": 0, "duration": 122}, {"note": 66, "velocity": 87, "duration": 97}, {"note": 62, "velocity": 83, "duration": 61}, {"note": 64, "velocity": 93, "duration": 73}, {"note": 66, "velocity": 83, "duration": 82}, {"note": 64, "velocity": 87, "duration": 134}, {"note": 0, "velocity": 0, "duration": 84}, {"note": 64, "velocity": 93, "duration": 312}, {"note": 0, "velocity": 0, "duration": 83}, {"note": 62, "velocity": 87, "duration": 174}, {"note": 62, "velocity": 87, "duration": 249}, {"note": 59, "velocity": 67, "duration": 517}, {"note": 0, "velocity": 0, "duration": 327}, {"note": 64, "velocity": 87, "duration": 184}, {"note": 64, "velocity": 87, "duration": 213}, {"note": 64, "velocity": 87, "duration": 213}, {"note": 62, "velocity": 72, "duration": 90}, {"note": 64, "velocity": 80, "duration": 493}, {"note": 0, "velocity": 0, "duration": 107}, {"note": 69, "velocity": 95, "duration": 188}, {"note": 66, "velocity": 87, "duration": 130}, {"note": 64, "velocity": 93, "duration": 240}, {"note": 66, "velocity": 74, "duration": 993}, {"note": 0, "velocity": 0, "duration": 567}, {"note": 62, "velocity": 87, "duration": 70}, {"note": 64, "velocity": 87, "duration": 76}, {"note": 66, "velocity": 87, "duration": 185}, {"note": 66, "velocity": 87, "duration": 296}, {"note": 0, "velocity": 0, "duration": 64}, {"note": 66, "velocity": 74, "duration": 113}, {"note": 71, "velocity": 102, "duration": 268}, {"note": 69, "velocity": 102, "duration": 473}, {"note": 0, "velocity": 0, "duration": 247}, {"note": 69, "velocity": 83, "duration": 63}, {"note": 69, "velocity": 93, "duration": 68}, {"note": 71, "velocity": 93, "duration": 80}, {"note": 62, "velocity": 67, "duration": 58}, {"note": 0, "velocity": 0, "duration": 62}, {"note": 62, "velocity": 70, "duration": 62}, {"note": 62, "velocity": 87, "duration": 188}, {"note": 62, "velocity": 85, "duration": 104}, {"note": 69, "velocity": 93, "duration": 184}, {"note": 66, "velocity": 80, "duration": 473}, {"note": 0, "velocity": 0, "duration": 247}, {"note": 64, "velocity": 87, "duration": 102}, {"note": 62, "velocity": 74, "duration": 627}, {"note": 0, "velocity": 0, "duration": 93}, {"note": 65, "velocity": 87, "duration": 239}, {"note": 64, "velocity": 80, "duration": 124}, {"note": 62, "velocity": 80, "duration": 513}, {"note": 0, "velocity": 0, "duration": 207}, {"note": 59, "velocity": 87, "duration": 99}, {"note": 57, "velocity": 80, "duration": 70}, {"note": 69, "velocity": 93, "duration": 69}, {"note": 69, "velocity": 87, "duration": 52}, {"note": 0, "velocity": 0, "duration": 68}, {"note": 69, "velocity": 87, "duration": 58}, {"note": 0, "velocity": 0, "duration": 62}, {"note": 69, "velocity": 93, "duration": 65}, {"note": 71, "velocity": 66, "duration": 58}, {"note": 0, "velocity": 0, "duration": 62}, {"note": 69, "velocity": 93, "duration": 62}, {"note": 66, "velocity": 80, "duration": 74}, {"note": 69, "velocity": 95, "duration": 1382}, {"note": 0, "velocity": 0, "duration": 298}, {"note": 69, "velocity": 83, "duration": 56}, {"note": 0, "velocity": 0, "duration": 64}, {"note": 71, "velocity": 87, "duration": 55}, {"note": 0, "velocity": 0, "duration": 65}, {"note": 69, "velocity": 93, "duration": 65}, {"note": 66, "velocity": 87, "duration": 288}, {"note": 0, "velocity": 0, "duration": 72}, {"note": 69, "velocity": 93, "duration": 275}, {"note": 0, "velocity": 0, "duration": 85}, {"note": 66, "velocity": 93, "duration": 181}, {"note": 64, "velocity": 93, "duration": 193}, {"note": 66, "velocity": 95, "duration": 78}, {"note": 64, "velocity": 87, "duration": 168}, {"note": 0, "velocity": 0, "duration": 72}, {"note": 66, "velocity": 80, "duration": 188}, {"note": 69, "velocity": 93, "duration": 72}, {"note": 62, "velocity": 90, "duration": 1143}, {"note": 0, "velocity": 0, "duration": 297}, {"note": 66, "velocity": 83, "duration": 175}, {"note": 0, "velocity": 0, "duration": 65}, {"note": 64, "velocity": 80, "duration": 72}, {"note": 62, "velocity": 85, "duration": 92}, {"note": 59, "velocity": 83, "duration": 189}, {"note": 62, "velocity": 90, "duration": 332}, {"note": 0, "velocity": 0, "duration": 148}, {"note": 64, "velocity": 87, "duration": 200}, {"note": 57, "velocity": 93, "duration": 373}, {"note": 0, "velocity": 0, "duration": 107}, {"note": 66, "velocity": 93, "duration": 208}, {"note": 69, "velocity": 102, "duration": 62}, {"note": 66, "velocity": 74, "duration": 335}, {"note": 64, "velocity": 87, "duration": 775}, {"note": 0, "velocity": 0, "duration": 545}, {"note": 69, "velocity": 83, "duration": 56}, {"note": 0, "velocity": 0, "duration": 64}, {"note": 71, "velocity": 87, "duration": 55}, {"note": 0, "velocity": 0, "duration": 65}, {"note": 69, "velocity": 93, "duration": 65}, {"note": 66, "velocity": 87, "duration": 288}, {"note": 0, "velocity": 0, "duration": 72}, {"note": 69, "velocity": 93, "duration": 275}, {"note": 0, "velocity": 0, "duration": 85}, {"note": 66, "velocity": 93, "duration": 181}, {"note": 64, "velocity": 93, "duration": 193}, {"note": 66, "velocity": 95, "duration": 78}, {"note": 64, "velocity": 87, "duration": 168}, {"note": 0, "velocity": 0, "duration": 72}, {"note": 66, "velocity": 80, "duration": 188}, {"note": 69, "velocity": 93, "duration": 72}, {"note": 62, "velocity": 90, "duration": 1143}, {"note": 0, "velocity": 0, "duration": 297}, {"note": 66, "velocity": 83, "duration": 175}, {"note": 0, "velocity": 0, "duration": 65}, {"note": 64, "velocity": 80, "duration": 72}, {"note": 62, "velocity": 85, "duration": 92}, {"note": 59, "velocity": 83, "duration": 189}, {"note": 62, "velocity": 90, "duration": 240}, {"note": 62, "velocity": 100, "duration": 120}, {"note": 64, "velocity": 87, "duration": 200}, {"note": 57, "velocity": 93, "duration": 373}, {"note": 0, "velocity": 0, "duration": 227}, {"note": 66, "velocity": 93, "duration": 208}, {"note": 69, "velocity": 102, "duration": 62}, {"note": 66, "velocity": 74, "duration": 335}, {"note": 64, "velocity": 87, "duration": 775}, {"note": 0, "velocity": 0, "duration": 425}, {"note": 66, "velocity": 87, "duration": 208}, {"note": 69, "velocity": 103, "duration": 152}, {"note": 0, "velocity": 0, "duration": 88}, {"note": 64, "velocity": 93, "duration": 305}, {"note": 62, "velocity": 83, "duration": 1283}, {"note": 0, "velocity": 0, "duration": 8438}, {"note": 66, "velocity": 93, "duration": 99}, {"note": 64, "velocity": 85, "duration": 156}, {"note": 0, "velocity": 0, "duration": 80}, {"note": 66, "velocity": 90, "duration": 455}, {"note": 0, "velocity": 0, "duration": 122}, {"note": 66, "velocity": 87, "duration": 97}, {"note": 62, "velocity": 83, "duration": 61}, {"note": 64, "velocity": 93, "duration": 73}, {"note": 66, "velocity": 83, "duration": 82}, {"note": 64, "velocity": 87, "duration": 134}, {"note": 0, "velocity": 0, "duration": 84}, {"note": 64, "velocity": 93, "duration": 312}, {"note": 0, "velocity": 0, "duration": 83}, {"note": 62, "velocity": 87, "duration": 174}, {"note": 62, "velocity": 87, "duration": 249}, {"note": 59, "velocity": 67, "duration": 517}, {"note": 0, "velocity": 0, "duration": 327}, {"note": 64, "velocity": 87, "duration": 184}, {"note": 64, "velocity": 87, "duration": 213}, {"note": 64, "velocity": 87, "duration": 213}, {"note": 62, "velocity": 72, "duration": 90}, {"note": 64, "velocity": 80, "duration": 493}, {"note": 0, "velocity": 0, "duration": 107}, {"note": 69, "velocity": 95, "duration": 188}, {"note": 66, "velocity": 87, "duration": 130}, {"note": 64, "velocity": 93, "duration": 240}, {"note": 66, "velocity": 74, "duration": 993}, {"note": 0, "velocity": 0, "duration": 567}, {"note": 62, "velocity": 87, "duration": 70}, {"note": 64, "velocity": 87, "duration": 76}, {"note": 66, "velocity": 87, "duration": 185}, {"note": 66, "velocity": 87, "duration": 296}, {"note": 0, "velocity": 0, "duration": 64}, {"note": 66, "velocity": 74, "duration": 113}, {"note": 71, "velocity": 102, "duration": 268}, {"note": 69, "velocity": 102, "duration": 473}, {"note": 0, "velocity": 0, "duration": 247}, {"note": 69, "velocity": 83, "duration": 63}, {"note": 69, "velocity": 93, "duration": 68}, {"note": 71, "velocity": 93, "duration": 80}, {"note": 62, "velocity": 67, "duration": 58}, {"note": 0, "velocity": 0, "duration": 62}, {"note": 62, "velocity": 70, "duration": 62}, {"note": 62, "velocity": 87, "duration": 188}, {"note": 62, "velocity": 85, "duration": 104}, {"note": 69, "velocity": 93, "duration": 184}, {"note": 66, "velocity": 80, "duration": 473}, {"note": 0, "velocity": 0, "duration": 247}, {"note": 64, "velocity": 87, "duration": 102}, {"note": 62, "velocity": 74, "duration": 627}, {"note": 0, "velocity": 0, "duration": 93}, {"note": 65, "velocity": 87, "duration": 239}, {"note": 64, "velocity": 80, "duration": 124}, {"note": 62, "velocity": 80, "duration": 513}, {"note": 0, "velocity": 0, "duration": 207}, {"note": 59, "velocity": 87, "duration": 99}, {"note": 57, "velocity": 80, "duration": 70}, {"note": 69, "velocity": 93, "duration": 69}, {"note": 69, "velocity": 87, "duration": 52}, {"note": 0, "velocity": 0, "duration": 68}, {"note": 69, "velocity": 87, "duration": 58}, {"note": 0, "velocity": 0, "duration": 62}, {"note": 69, "velocity": 93, "duration": 65}, {"note": 71, "velocity": 66, "duration": 58}, {"note": 0, "velocity": 0, "duration": 62}, {"note": 69, "velocity": 93, "duration": 62}, {"note": 66, "velocity": 80, "duration": 74}, {"note": 69, "velocity": 95, "duration": 1382}, {"note": 0, "velocity": 0, "duration": 298}, {"note": 69, "velocity": 83, "duration": 56}, {"note": 0, "velocity": 0, "duration": 64}, {"note": 71, "velocity": 87, "duration": 55}, {"note": 0, "velocity": 0, "duration": 65}, {"note": 69, "velocity": 93, "duration": 65}, {"note": 66, "velocity": 87, "duration": 288}, {"note": 0, "velocity": 0, "duration": 72}, {"note": 69, "velocity": 93, "duration": 275}, {"note": 0, "velocity": 0, "duration": 85}, {"note": 66, "velocity": 93, "duration": 181}, {"note": 64, "velocity": 93, "duration": 193}, {"note": 66, "velocity": 95, "duration": 78}, {"note": 64, "velocity": 87, "duration": 168}, {"note": 0, "velocity": 0, "duration": 72}, {"note": 66, "velocity": 80, "duration": 188}, {"note": 69, "velocity": 93, "duration": 72}, {"note": 62, "velocity": 90, "duration": 1143}, {"note": 0, "velocity": 0, "duration": 297}, {"note": 66, "velocity": 83, "duration": 175}, {"note": 0, "velocity": 0, "duration": 65}, {"note": 64, "velocity": 80, "duration": 72}, {"note": 62, "velocity": 85, "duration": 92}, {"note": 59, "velocity": 83, "duration": 189}, {"note": 62, "velocity": 90, "duration": 332}, {"note": 0, "velocity": 0, "duration": 148}, {"note": 64, "velocity": 87, "duration": 200}, {"note": 57, "velocity": 93, "duration": 373}, {"note": 0, "velocity": 0, "duration": 107}, {"note": 66, "velocity": 93, "duration": 208}, {"note": 69, "velocity": 102, "duration": 62}, {"note": 66, "velocity": 74, "duration": 335}, {"note": 64, "velocity": 87, "duration": 775}, {"note": 0, "velocity": 0, "duration": 545}, {"note": 69, "velocity": 83, "duration": 56}, {"note": 0, "velocity": 0, "duration": 64}, {"note": 71, "velocity": 87, "duration": 55}, {"note": 0, "velocity": 0, "duration": 65}, {"note": 69, "velocity": 93, "duration": 65}, {"note": 66, "velocity": 87, "duration": 288}, {"note": 0, "velocity": 0, "duration": 72}, {"note": 69, "velocity": 93, "duration": 275}, {"note": 0, "velocity": 0, "duration": 85}, {"note": 66, "velocity": 93, "duration": 181}, {"note": 64, "velocity": 93, "duration": 193}, {"note": 66, "velocity": 95, "duration": 78}, {"note": 64, "velocity": 87, "duration": 168}, {"note": 0, "velocity": 0, "duration": 72}, {"note": 66, "velocity": 80, "duration": 188}, {"note": 69, "velocity": 93, "duration": 72}, {"note": 62, "velocity": 90, "duration": 1143}, {"note": 0, "velocity": 0, "duration": 297}, {"note": 66, "velocity": 83, "duration": 175}, {"note": 0, "velocity": 0, "duration": 65}, {"note": 64, "velocity": 80, "duration": 72}, {"note": 62, "velocity": 85, "duration": 92}, {"note": 59, "velocity": 83, "duration": 189}, {"note": 62, "velocity": 90, "duration": 240}, {"note": 62, "velocity": 100, "duration": 120}, {"note": 64, "velocity": 87, "duration": 200}, {"note": 57, "velocity": 93, "duration": 373}, {"note": 0, "velocity": 0, "duration": 227}, {"note": 66, "velocity": 93, "duration": 208}, {"note": 69, "velocity": 102, "duration": 62}, {"note": 66, "velocity": 74, "duration": 335}, {"note": 64, "velocity": 87, "duration": 775}, {"note": 0, "velocity": 0, "duration": 425}, {"note": 66, "velocity": 87, "duration": 208}, {"note": 69, "velocity": 103, "duration": 152}, {"note": 0, "velocity": 0, "duration": 88}, {"note": 64, "velocity": 93, "duration": 305}, {"note": 62, "velocity": 83, "duration": 1283}, {"note": 0, "velocity": 0, "duration": 517}, {"note": 61, "velocity": 102, "duration": 165}, {"note": 0, "velocity": 0, "duration": 75}, {"note": 61, "velocity": 103, "duration": 157}, {"note": 0, "velocity": 0, "duration": 83}, {"note": 69, "velocity": 102, "duration": 68}, {"note": 69, "velocity": 103, "duration": 162}, {"note": 0, "velocity": 0, "duration": 78}, {"note": 61, "velocity": 102, "duration": 387}, {"note": 0, "velocity": 0, "duration": 93}, {"note": 61, "velocity": 103, "duration": 89}, {"note": 62, "velocity": 95, "duration": 61}, {"note": 64, "velocity": 102, "duration": 70}, {"note": 64, "velocity": 103, "duration": 186}, {"note": 62, "velocity": 95, "duration": 162}, {"note": 0, "velocity": 0, "duration": 78}, {"note": 62, "velocity": 93, "duration": 70}, {"note": 64, "velocity": 90, "duration": 165}, {"note": 0, "velocity": 0, "duration": 75}, {"note": 62, "velocity": 102, "duration": 1058}, {"note": 0, "velocity": 0, "duration": 262}, {"note": 61, "velocity": 93, "duration": 155}, {"note": 0, "velocity": 0, "duration": 85}, {"note": 61, "velocity": 103, "duration": 156}, {"note": 0, "velocity": 0, "duration": 84}, {"note": 69, "velocity": 93, "duration": 68}, {"note": 69, "velocity": 102, "duration": 184}, {"note": 61, "velocity": 87, "duration": 63}, {"note": 61, "velocity": 70, "duration": 285}, {"note": 0, "velocity": 0, "duration": 75}, {"note": 61, "velocity": 93, "duration": 82}, {"note": 59, "velocity": 93, "duration": 54}, {"note": 0, "velocity": 0, "duration": 66}, {"note": 57, "velocity": 102, "duration": 63}, {"note": 59, "velocity": 103, "duration": 154}, {"note": 0, "velocity": 0, "duration": 86}, {"note": 62, "velocity": 102, "duration": 939}, {"note": 66, "velocity": 95, "duration": 64}, {"note": 66, "velocity": 70, "duration": 65}, {"note": 66, "velocity": 95, "duration": 172}, {"note": 0, "velocity": 0, "duration": 68}, {"note": 64, "velocity": 102, "duration": 96}, {"note": 62, "velocity": 102, "duration": 89}, {"note": 71, "velocity": 105, "duration": 225}, {"note": 74, "velocity": 93, "duration": 95}, {"note": 71, "velocity": 87, "duration": 179}, {"note": 0, "velocity": 0, "duration": 61}, {"note": 69, "velocity": 105, "duration": 1634}, {"note": 0, "velocity": 0, "duration": 1246}, {"note": 70, "velocity": 83, "duration": 56}, {"note": 0, "velocity": 0, "duration": 64}, {"note": 72, "velocity": 87, "duration": 55}, {"note": 0, "velocity": 0, "duration": 65}, {"note": 70, "velocity": 93, "duration": 65}, {"note": 67, "velocity": 87, "duration": 288}, {"note": 0, "velocity": 0, "duration": 72}, {"note": 70, "velocity": 93, "duration": 275}, {"note": 0, "velocity": 0, "duration": 85}, {"note": 67, "velocity": 93, "duration": 181}, {"note": 65, "velocity": 93, "duration": 193}, {"note": 67, "velocity": 95, "duration": 78}, {"note": 65, "velocity": 87, "duration": 168}, {"note": 0, "velocity": 0, "duration": 72}, {"note": 67, "velocity": 80, "duration": 188}, {"note": 70, "velocity": 93, "duration": 72}, {"note": 63, "velocity": 90, "duration": 1143}, {"note": 0, "velocity": 0, "duration": 297}, {"note": 67, "velocity": 83, "duration": 175}, {"note": 0, "velocity": 0, "duration": 65}, {"note": 65, "velocity": 80, "duration": 72}, {"note": 63, "velocity": 85, "duration": 92}, {"note": 60, "velocity": 83, "duration": 189}, {"note": 63, "velocity": 90, "duration": 332}, {"note": 0, "velocity": 0, "duration": 148}, {"note": 65, "velocity": 87, "duration": 200}, {"note": 58, "velocity": 93, "duration": 373}, {"note": 0, "velocity": 0, "duration": 107}, {"note": 67, "velocity": 93, "duration": 208}, {"note": 70, "velocity": 102, "duration": 62}, {"note": 67, "velocity": 74, "duration": 335}, {"note": 65, "velocity": 87, "duration": 775}, {"note": 0, "velocity": 0, "duration": 545}, {"note": 70, "velocity": 83, "duration": 56}, {"note": 0, "velocity": 0, "duration": 64}, {"note": 72, "velocity": 87, "duration": 55}, {"note": 0, "velocity": 0, "duration": 65}, {"note": 70, "velocity": 93, "duration": 65}, {"note": 67, "velocity": 87, "duration": 288}, {"note": 0, "velocity": 0, "duration": 72}, {"note": 70, "velocity": 93, "duration": 275}, {"note": 0, "velocity": 0, "duration": 85}, {"note": 67, "velocity": 93, "duration": 181}, {"note": 65, "velocity": 93, "duration": 193}, {"note": 67, "velocity": 95, "duration": 78}, {"note": 65, "velocity": 87, "duration": 168}, {"note": 0, "velocity": 0, "duration": 72}, {"note": 67, "velocity": 80, "duration": 188}, {"note": 70, "velocity": 93, "duration": 72}, {"note": 63, "velocity": 90, "duration": 1143}, {"note": 0, "velocity": 0, "duration": 297}, {"note": 67, "velocity": 83, "duration": 175}, {"note": 0, "velocity": 0, "duration": 65}, {"note": 65, "velocity": 80, "duration": 72}, {"note": 63, "velocity": 85, "duration": 92}, {"note": 60, "velocity": 83, "duration": 189}, {"note": 63, "velocity": 90, "duration": 240}, {"note": 63, "velocity": 100, "duration": 120}, {"note": 65, "velocity": 87, "duration": 200}, {"note": 58, "velocity": 93, "duration": 373}, {"note": 0, "velocity": 0, "duration": 227}, {"note": 67, "velocity": 93, "duration": 208}, {"note": 70, "velocity": 102, "duration": 62}, {"note": 67, "velocity": 74, "duration": 335}, {"note": 65, "velocity": 87, "duration": 775}, {"note": 0, "velocity": 0, "duration": 425}, {"note": 67, "velocity": 87, "duration": 208}, {"note": 70, "velocity": 103, "duration": 152}, {"note": 0, "velocity": 0, "duration": 88}, {"note": 65, "velocity": 93, "duration": 305}, {"note": 63, "velocity": 83, "duration": 1283}]]