[[{"note": 76, "velocity": 114, "duration": 171}, {"note": 0, "velocity": 0, "duration": 69}, {"note": 74, "velocity": 110, "duration": 155}, {"note": 0, "velocity": 0, "duration": 85}, {"note": 76, "velocity": 114, "duration": 289}, {"note": 0, "velocity": 0, "duration": 191}, {"note": 69, "velocity": 110, "duration": 132}, {"note": 0, "velocity": 0, "duration": 108}, {"note": 76, "velocity": 114, "duration": 125}, {"note": 0, "velocity": 0, "duration": 115}, {"note": 74, "velocity": 114, "duration": 289}, {"note": 0, "velocity": 0, "duration": 431}, {"note": 72, "velocity": 89, "duration": 233}, {"note": 69, "velocity": 89, "duration": 267}, {"note": 0, "velocity": 0, "duration": 1173}, {"note": 76, "velocity": 104, "duration": 191}, {"note": 74, "velocity": 107, "duration": 182}, {"note": 76, "velocity": 108, "duration": 333}, {"note": 0, "velocity": 0, "duration": 147}, {"note": 74, "velocity": 102, "duration": 146}, {"note": 0, "velocity": 0, "duration": 94}, {"note": 79, "velocity": 108, "duration": 152}, {"note": 0, "velocity": 0, "duration": 88}, {"note": 74, "velocity": 107, "duration": 239}, {"note": 0, "velocity": 0, "duration": 481}, {"note": 79, "velocity": 104, "duration": 190}, {"note": 76, "velocity": 107, "duration": 234}, {"note": 0, "velocity": 0, "duration": 1206}, {"note": 76, "velocity": 108, "duration": 174}, {"note": 0, "velocity": 0, "duration": 66}, {"note": 79, "velocity": 113, "duration": 145}, {"note": 0, "velocity": 0, "duration": 95}, {"note": 81, "velocity": 114, "duration": 212}, {"note": 0, "velocity": 0, "duration": 268}, {"note": 79, "velocity": 114, "duration": 166}, {"note": 0, "velocity": 0, "duration": 74}, {"note": 81, "velocity": 114, "duration": 127}, {"note": 0, "velocity": 0, "duration": 113}, {"note": 74, "velocity": 113, "duration": 196}, {"note": 0, "velocity": 0, "duration": 524}, {"note": 79, "velocity": 108, "duration": 176}, {"note": 0, "velocity": 0, "duration": 64}, {"note": 76, "velocity": 110, "duration": 272}, {"note": 0, "velocity": 0, "duration": 1648}, {"note": 69, "velocity": 102, "duration": 193}, {"note": 76, "velocity": 107, "duration": 160}, {"note": 0, "velocity": 0, "duration": 80}, {"note": 74, "velocity": 108, "duration": 161}, {"note": 0, "velocity": 0, "duration": 79}, {"note": 76, "velocity": 108, "duration": 151}, {"note": 0, "velocity": 0, "duration": 89}, {"note": 74, "velocity": 113, "duration": 273}, {"note": 0, "velocity": 0, "duration": 447}, {"note": 72, "velocity": 107, "duration": 120}, {"note": 69, "velocity": 98, "duration": 120}, {"note": 76, "velocity": 104, "duration": 295}, {"note": 0, "velocity": 0, "duration": 1145}, {"note": 76, "velocity": 110, "duration": 176}, {"note": 0, "velocity": 0, "duration": 64}, {"note": 74, "velocity": 107, "duration": 139}, {"note": 0, "velocity": 0, "duration": 101}, {"note": 76, "velocity": 113, "duration": 201}, {"note": 0, "velocity": 0, "duration": 279}, {"note": 74, "velocity": 110, "duration": 145}, {"note": 0, "velocity": 0, "duration": 95}, {"note": 72, "velocity": 107, "duration": 130}, {"note": 0, "velocity": 0, "duration": 110}, {"note": 74, "velocity": 113, "duration": 182}, {"note": 0, "velocity": 0, "duration": 538}, {"note": 74, "velocity": 110, "duration": 124}, {"note": 76, "velocity": 91, "duration": 106}, {"note": 69, "velocity": 89, "duration": 220}, {"note": 0, "velocity": 0, "duration": 1220}, {"note": 76, "velocity": 113, "duration": 177}, {"note": 0, "velocity": 0, "duration": 63}, {"note": 74, "velocity": 108, "duration": 153}, {"note": 0, "velocity": 0, "duration": 87}, {"note": 76, "velocity": 113, "duration": 309}, {"note": 0, "velocity": 0, "duration": 171}, {"note": 74, "velocity": 110, "duration": 151}, {"note": 0, "velocity": 0, "duration": 89}, {"note": 79, "velocity": 108, "duration": 150}, {"note": 0, "velocity": 0, "duration": 90}, {"note": 74, "velocity": 108, "duration": 194}, {"note": 0, "velocity": 0, "duration": 526}, {"note": 76, "velocity": 104, "duration": 118}, {"note": 79, "velocity": 102, "duration": 108}, {"note": 76, "velocity": 100, "duration": 192}, {"note": 0, "velocity": 0, "duration": 1248}, {"note": 76, "velocity": 108, "duration": 159}, {"note": 0, "velocity": 0, "duration": 81}, {"note": 79, "velocity": 107, "duration": 141}, {"note": 0, "velocity": 0, "duration": 99}, {"note": 81, "velocity": 114, "duration": 195}, {"note": 0, "velocity": 0, "duration": 285}, {"note": 79, "velocity": 114, "duration": 164}, {"note": 0, "velocity": 0, "duration": 76}, {"note": 81, "velocity": 113, "duration": 140}, {"note": 0, "velocity": 0, "duration": 100}, {"note": 74, "velocity": 110, "duration": 177}, {"note": 0, "velocity": 0, "duration": 543}, {"note": 76, "velocity": 108, "duration": 114}, {"note": 79, "velocity": 94, "duration": 115}, {"note": 76, "velocity": 102, "duration": 187}, {"note": 0, "velocity": 0, "duration": 1733}, {"note": 69, "velocity": 100, "duration": 196}, {"note": 76, "velocity": 110, "duration": 207}, {"note": 74, "velocity": 104, "duration": 192}, {"note": 76, "velocity": 94, "duration": 127}, {"note": 79, "velocity": 94, "duration": 124}, {"note": 76, "velocity": 102, "duration": 215}, {"note": 74, "velocity": 108, "duration": 145}, {"note": 0, "velocity": 0, "duration": 95}, {"note": 74, "velocity": 113, "duration": 150}, {"note": 0, "velocity": 0, "duration": 90}, {"note": 76, "velocity": 110, "duration": 156}, {"note": 0, "velocity": 0, "duration": 324}, {"note": 69, "velocity": 93, "duration": 178}, {"note": 0, "velocity": 0, "duration": 1502}, {"note": 78, "velocity": 116, "duration": 168}, {"note": 0, "velocity": 0, "duration": 72}, {"note": 83, "velocity": 107, "duration": 151}, {"note": 0, "velocity": 0, "duration": 89}, {"note": 83, "velocity": 117, "duration": 170}, {"note": 0, "velocity": 0, "duration": 70}, {"note": 81, "velocity": 116, "duration": 162}, {"note": 0, "velocity": 0, "duration": 78}, {"note": 78, "velocity": 119, "duration": 187}, {"note": 0, "velocity": 0, "duration": 773}, {"note": 76, "velocity": 116, "duration": 162}, {"note": 0, "velocity": 0, "duration": 78}, {"note": 78, "velocity": 114, "duration": 152}, {"note": 0, "velocity": 0, "duration": 88}, {"note": 81, "velocity": 116, "duration": 159}, {"note": 0, "velocity": 0, "duration": 81}, {"note": 76, "velocity": 116, "duration": 161}, {"note": 0, "velocity": 0, "duration": 79}, {"note": 78, "velocity": 119, "duration": 162}, {"note": 0, "velocity": 0, "duration": 798}, {"note": 71, "velocity": 119, "duration": 246}, {"note": 73, "velocity": 116, "duration": 203}, {"note": 74, "velocity": 117, "duration": 228}, {"note": 78, "velocity": 119, "duration": 226}, {"note": 76, "velocity": 116, "duration": 180}, {"note": 0, "velocity": 0, "duration": 780}, {"note": 76, "velocity": 116, "duration": 197}, {"note": 78, "velocity": 113, "duration": 201}, {"note": 81, "velocity": 113, "duration": 222}, {"note": 76, "velocity": 113, "duration": 212}, {"note": 78, "velocity": 116, "duration": 370}, {"note": 0, "velocity": 0, "duration": 590}, {"note": 83, "velocity": 119, "duration": 194}, {"note": 78, "velocity": 120, "duration": 53}, {"note": 0, "velocity": 0, "duration": 187}, {"note": 83, "velocity": 116, "duration": 183}, {"note": 78, "velocity": 119, "duration": 165}, {"note": 0, "velocity": 0, "duration": 75}, {"note": 76, "velocity": 116, "duration": 210}, {"note": 0, "velocity": 0, "duration": 750}, {"note": 81, "velocity": 119, "duration": 178}, {"note": 0, "velocity": 0, "duration": 62}, {"note": 85, "velocity": 119, "duration": 148}, {"note": 0, "velocity": 0, "duration": 92}, {"note": 85, "velocity": 119, "duration": 160}, {"note": 0, "velocity": 0, "duration": 80}, {"note": 81, "velocity": 120, "duration": 173}, {"note": 0, "velocity": 0, "duration": 67}, {"note": 83, "velocity": 119, "duration": 271}, {"note": 0, "velocity": 0, "duration": 209}, {"note": 78, "velocity": 119, "duration": 193}, {"note": 0, "velocity": 0, "duration": 287}, {"note": 83, "velocity": 116, "duration": 177}, {"note": 0, "velocity": 0, "duration": 63}, {"note": 81, "velocity": 117, "duration": 180}, {"note": 78, "velocity": 114, "duration": 172}, {"note": 0, "velocity": 0, "duration": 68}, {"note": 76, "velocity": 119, "duration": 153}, {"note": 0, "velocity": 0, "duration": 87}, {"note": 78, "velocity": 117, "duration": 160}, {"note": 0, "velocity": 0, "duration": 80}, {"note": 81, "velocity": 114, "duration": 159}, {"note": 0, "velocity": 0, "duration": 81}, {"note": 76, "velocity": 116, "duration": 164}, {"note": 0, "velocity": 0, "duration": 76}, {"note": 74, "velocity": 110, "duration": 104}, {"note": 0, "velocity": 0, "duration": 136}, {"note": 71, "velocity": 116, "duration": 251}, {"note": 0, "velocity": 0, "duration": 18469}, {"note": 76, "velocity": 110, "duration": 176}, {"note": 0, "velocity": 0, "duration": 64}, {"note": 74, "velocity": 107, "duration": 139}, {"note": 0, "velocity": 0, "duration": 101}, {"note": 76, "velocity": 113, "duration": 201}, {"note": 0, "velocity": 0, "duration": 279}, {"note": 74, "velocity": 110, "duration": 145}, {"note": 0, "velocity": 0, "duration": 95}, {"note": 72, "velocity": 107, "duration": 130}, {"note": 0, "velocity": 0, "duration": 110}, {"note": 74, "velocity": 113, "duration": 182}, {"note": 0, "velocity": 0, "duration": 538}, {"note": 74, "velocity": 110, "duration": 124}, {"note": 76, "velocity": 91, "duration": 106}, {"note": 69, "velocity": 89, "duration": 220}, {"note": 0, "velocity": 0, "duration": 1220}, {"note": 76, "velocity": 113, "duration": 177}, {"note": 0, "velocity": 0, "duration": 63}, {"note": 74, "velocity": 108, "duration": 153}, {"note": 0, "velocity": 0, "duration": 87}, {"note": 76, "velocity": 113, "duration": 309}, {"note": 0, "velocity": 0, "duration": 171}, {"note": 74, "velocity": 110, "duration": 151}, {"note": 0, "velocity": 0, "duration": 89}, {"note": 79, "velocity": 108, "duration": 150}, {"note": 0, "velocity": 0, "duration": 90}, {"note": 74, "velocity": 108, "duration": 194}, {"note": 0, "velocity": 0, "duration": 526}, {"note": 76, "velocity": 104, "duration": 118}, {"note": 79, "velocity": 102, "duration": 108}, {"note": 76, "velocity": 100, "duration": 192}, {"note": 0, "velocity": 0, "duration": 1248}, {"note": 76, "velocity": 108, "duration": 159}, {"note": 0, "velocity": 0, "duration": 81}, {"note": 79, "velocity": 107, "duration": 141}, {"note": 0, "velocity": 0, "duration": 99}, {"note": 81, "velocity": 114, "duration": 195}, {"note": 0, "velocity": 0, "duration": 285}, {"note": 79, "velocity": 114, "duration": 164}, {"note": 0, "velocity": 0, "duration": 76}, {"note": 81, "velocity": 113, "duration": 140}, {"note": 0, "velocity": 0, "duration": 100}, {"note": 74, "velocity": 110, "duration": 177}, {"note": 0, "velocity": 0, "duration": 543}, {"note": 76, "velocity": 108, "duration": 114}, {"note": 79, "velocity": 94, "duration": 115}, {"note": 76, "velocity": 102, "duration": 187}, {"note": 0, "velocity": 0, "duration": 1733}, {"note": 69, "velocity": 100, "duration": 196}, {"note": 76, "velocity": 110, "duration": 207}, {"note": 74, "velocity": 104, "duration": 192}, {"note": 76, "velocity": 94, "duration": 127}, {"note": 79, "velocity": 94, "duration": 124}, {"note": 76, "velocity": 102, "duration": 215}, {"note": 74, "velocity": 108, "duration": 145}, {"note": 0, "velocity": 0, "duration": 95}, {"note": 74, "velocity": 113, "duration": 150}, {"note": 0, "velocity": 0, "duration": 90}, {"note": 76, "velocity": 110, "duration": 156}, {"note": 0, "velocity": 0, "duration": 324}, {"note": 69, "velocity": 93, "duration": 178}, {"note": 0, "velocity": 0, "duration": 1502}, {"note": 78, "velocity": 116, "duration": 168}, {"note": 0, "velocity": 0, "duration": 72}, {"note": 83, "velocity": 107, "duration": 151}, {"note": 0, "velocity": 0, "duration": 89}, {"note": 83, "velocity": 117, "duration": 170}, {"note": 0, "velocity": 0, "duration": 70}, {"note": 81, "velocity": 116, "duration": 162}, {"note": 0, "velocity": 0, "duration": 78}, {"note": 78, "velocity": 119, "duration": 187}, {"note": 0, "velocity": 0, "duration": 773}, {"note": 76, "velocity": 116, "duration": 162}, {"note": 0, "velocity": 0, "duration": 78}, {"note": 78, "velocity": 114, "duration": 152}, {"note": 0, "velocity": 0, "duration": 88}, {"note": 81, "velocity": 116, "duration": 159}, {"note": 0, "velocity": 0, "duration": 81}, {"note": 76, "velocity": 116, "duration": 161}, {"note": 0, "velocity": 0, "duration": 79}, {"note": 78, "velocity": 119, "duration": 162}, {"note": 0, "velocity": 0, "duration": 798}, {"note": 71, "velocity": 119, "duration": 246}, {"note": 73, "velocity": 116, "duration": 203}, {"note": 74, "velocity": 117, "duration": 228}, {"note": 78, "velocity": 119, "duration": 226}, {"note": 76, "velocity": 116, "duration": 180}, {"note": 0, "velocity": 0, "duration": 780}, {"note": 76, "velocity": 116, "duration": 197}, {"note": 78, "velocity": 113, "duration": 201}, {"note": 81, "velocity": 113, "duration": 222}, {"note": 76, "velocity": 113, "duration": 212}, {"note": 78, "velocity": 116, "duration": 370}, {"note": 0, "velocity": 0, "duration": 590}, {"note": 83, "velocity": 119, "duration": 194}, {"note": 78, "velocity": 120, "duration": 53}, {"note": 0, "velocity": 0, "duration": 187}, {"note": 83, "velocity": 116, "duration": 183}, {"note": 78, "velocity": 119, "duration": 165}, {"note": 0, "velocity": 0, "duration": 75}, {"note": 76, "velocity": 116, "duration": 210}, {"note": 0, "velocity": 0, "duration": 750}, {"note": 81, "velocity": 119, "duration": 178}, {"note": 0, "velocity": 0, "duration": 62}, {"note": 85, "velocity": 119, "duration": 148}, {"note": 0, "velocity": 0, "duration": 92}, {"note": 85, "velocity": 119, "duration": 160}, {"note": 0, "velocity": 0, "duration": 80}, {"note": 81, "velocity": 120, "duration": 173}, {"note": 0, "velocity": 0, "duration": 67}, {"note": 83, "velocity": 119, "duration": 271}, {"note": 0, "velocity": 0, "duration": 209}, {"note": 78, "velocity": 119, "duration": 193}, {"note": 0, "velocity": 0, "duration": 287}, {"note": 83, "velocity": 116, "duration": 177}, {"note": 0, "velocity": 0, "duration": 63}, {"note": 81, "velocity": 117, "duration": 180}, {"note": 78, "velocity": 114, "duration": 172}, {"note": 0, "velocity": 0, "duration": 68}, {"note": 76, "velocity": 119, "duration": 153}, {"note": 0, "velocity": 0, "duration": 87}, {"note": 78, "velocity": 117, "duration": 160}, {"note": 0, "velocity": 0, "duration": 80}, {"note": 81, "velocity": 114, "duration": 159}, {"note": 0, "velocity": 0, "duration": 81}, {"note": 76, "velocity": 116, "duration": 164}, {"note": 0, "velocity": 0, "duration": 76}, {"note": 74, "velocity": 110, "duration": 104}, {"note": 0, "velocity": 0, "duration": 136}, {"note": 71, "velocity": 116, "duration": 251}, {"note": 0, "velocity": 0, "duration": 7429}, {"note": 76, "velocity": 116, "duration": 197}, {"note": 78, "velocity": 113, "duration": 201}, {"note": 81, "velocity": 113, "duration": 222}, {"note": 76, "velocity": 113, "duration": 212}, {"note": 78, "velocity": 116, "duration": 370}, {"note": 0, "velocity": 0, "duration": 590}, {"note": 83, "velocity": 119, "duration": 194}, {"note": 78, "velocity": 120, "duration": 53}, {"note": 0, "velocity": 0, "duration": 187}, {"note": 83, "velocity": 116, "duration": 183}, {"note": 78, "velocity": 119, "duration": 165}, {"note": 0, "velocity": 0, "duration": 75}, {"note": 76, "velocity": 116, "duration": 210}, {"note": 0, "velocity": 0, "duration": 750}, {"note": 81, "velocity": 119, "duration": 178}, {"note": 0, "velocity": 0, "duration": 62}, {"note": 85, "velocity": 119, "duration": 148}, {"note": 0, "velocity": 0, "duration": 92}, {"note": 85, "velocity": 119, "duration": 160}, {"note": 0, "velocity": 0, "duration": 80}, {"note": 81, "velocity": 120, "duration": 173}, {"note": 0, "velocity": 0, "duration": 67}, {"note": 83, "velocity": 119, "duration": 271}, {"note": 0, "velocity": 0, "duration": 209}, {"note": 78, "velocity": 119, "duration": 193}, {"note": 0, "velocity": 0, "duration": 287}, {"note": 83, "velocity": 116, "duration": 177}, {"note": 0, "velocity": 0, "duration": 63}, {"note": 81, "velocity": 117, "duration": 180}, {"note": 78, "velocity": 114, "duration": 172}, {"note": 0, "velocity": 0, "duration": 68}, {"note": 76, "velocity": 119, "duration": 153}, {"note": 0, "velocity": 0, "duration": 87}, {"note": 78, "velocity": 117, "duration": 160}, {"note": 0, "velocity": 0, "duration": 80}, {"note": 81, "velocity": 114, "duration": 159}, {"note": 0, "velocity": 0, "duration": 81}, {"note": 76, "velocity": 116, "duration": 164}, {"note": 0, "velocity": 0, "duration": 76}, {"note": 74, "velocity": 110, "duration": 104}, {"note": 0, "velocity": 0, "duration": 136}, {"note": 71, "velocity": 116, "duration": 251}, {"note": 0, "velocity": 0, "duration": 1669}, {"note": 83, "velocity": 119, "duration": 292}, {"note": 81, "velocity": 114, "duration": 222}, {"note": 78, "velocity": 116, "duration": 381}, {"note": 76, "velocity": 88, "duration": 251}, {"note": 78, "velocity": 106, "duration": 360}, {"note": 81, "velocity": 101, "duration": 171}, {"note": 0, "velocity": 0, "duration": 1749}, {"note": 76, "velocity": 114, "duration": 393}, {"note": 0, "velocity": 0, "duration": 87}, {"note": 74, "velocity": 116, "duration": 600}, {"note": 0, "velocity": 0, "duration": 120}, {"note": 78, "velocity": 113, "duration": 566}]]