[[{"note": 55, "velocity": 98, "duration": 23}, {"note": 0, "velocity": 0, "duration": 97}, {"note": 55, "velocity": 113, "duration": 138}, {"note": 0, "velocity": 0, "duration": 102}, {"note": 60, "velocity": 102, "duration": 61}, {"note": 60, "velocity": 102, "duration": 184}, {"note": 64, "velocity": 100, "duration": 135}, {"note": 0, "velocity": 0, "duration": 105}, {"note": 64, "velocity": 108, "duration": 146}, {"note": 0, "velocity": 0, "duration": 94}, {"note": 67, "velocity": 108, "duration": 130}, {"note": 0, "velocity": 0, "duration": 110}, {"note": 67, "velocity": 108, "duration": 182}, {"note": 55, "velocity": 89, "duration": 114}, {"note": 0, "velocity": 0, "duration": 246}, {"note": 62, "velocity": 100, "duration": 139}, {"note": 0, "velocity": 0, "duration": 101}, {"note": 60, "velocity": 88, "duration": 123}, {"note": 0, "velocity": 0, "duration": 117}, {"note": 59, "velocity": 89, "duration": 140}, {"note": 60, "velocity": 93, "duration": 137}, {"note": 0, "velocity": 0, "duration": 223}, {"note": 57, "velocity": 89, "duration": 157}, {"note": 0, "velocity": 0, "duration": 1643}, {"note": 62, "velocity": 91, "duration": 43}, {"note": 0, "velocity": 0, "duration": 77}, {"note": 62, "velocity": 91, "duration": 136}, {"note": 0, "velocity": 0, "duration": 104}, {"note": 64, "velocity": 88, "duration": 60}, {"note": 64, "velocity": 89, "duration": 126}, {"note": 0, "velocity": 0, "duration": 114}, {"note": 65, "velocity": 93, "duration": 120}, {"note": 57, "velocity": 87, "duration": 61}, {"note": 0, "velocity": 0, "duration": 179}, {"note": 74, "velocity": 104, "duration": 163}, {"note": 0, "velocity": 0, "duration": 77}, {"note": 72, "velocity": 91, "duration": 132}, {"note": 0, "velocity": 0, "duration": 108}, {"note": 62, "velocity": 96, "duration": 92}, {"note": 0, "velocity": 0, "duration": 148}, {"note": 64, "velocity": 89, "duration": 69}, {"note": 65, "velocity": 100, "duration": 153}, {"note": 0, "velocity": 0, "duration": 1287}, {"note": 69, "velocity": 91, "duration": 59}, {"note": 0, "velocity": 0, "duration": 61}, {"note": 69, "velocity": 108, "duration": 102}, {"note": 0, "velocity": 0, "duration": 138}, {"note": 67, "velocity": 98, "duration": 52}, {"note": 0, "velocity": 0, "duration": 68}, {"note": 69, "velocity": 107, "duration": 114}, {"note": 0, "velocity": 0, "duration": 126}, {"note": 71, "velocity": 98, "duration": 123}, {"note": 0, "velocity": 0, "duration": 117}, {"note": 72, "velocity": 98, "duration": 131}, {"note": 0, "velocity": 0, "duration": 109}, {"note": 69, "velocity": 91, "duration": 145}, {"note": 0, "velocity": 0, "duration": 575}, {"note": 68, "velocity": 103, "duration": 61}, {"note": 68, "velocity": 116, "duration": 122}, {"note": 0, "velocity": 0, "duration": 118}, {"note": 64, "velocity": 88, "duration": 99}, {"note": 0, "velocity": 0, "duration": 141}, {"note": 71, "velocity": 100, "duration": 127}, {"note": 0, "velocity": 0, "duration": 113}, {"note": 72, "velocity": 94, "duration": 91}, {"note": 0, "velocity": 0, "duration": 149}, {"note": 69, "velocity": 83, "duration": 224}, {"note": 0, "velocity": 0, "duration": 136}, {"note": 76, "velocity": 104, "duration": 55}, {"note": 0, "velocity": 0, "duration": 65}, {"note": 77, "velocity": 114, "duration": 123}, {"note": 0, "velocity": 0, "duration": 117}, {"note": 76, "velocity": 102, "duration": 63}, {"note": 77, "velocity": 108, "duration": 132}, {"note": 0, "velocity": 0, "duration": 108}, {"note": 76, "velocity": 107, "duration": 122}, {"note": 0, "velocity": 0, "duration": 118}, {"note": 72, "velocity": 100, "duration": 136}, {"note": 0, "velocity": 0, "duration": 344}, {"note": 72, "velocity": 113, "duration": 98}, {"note": 0, "velocity": 0, "duration": 142}, {"note": 72, "velocity": 102, "duration": 94}, {"note": 69, "velocity": 98, "duration": 69}, {"note": 0, "velocity": 0, "duration": 171}, {"note": 74, "velocity": 114, "duration": 188}, {"note": 0, "velocity": 0, "duration": 1612}, {"note": 55, "velocity": 98, "duration": 23}, {"note": 0, "velocity": 0, "duration": 97}, {"note": 55, "velocity": 113, "duration": 138}, {"note": 0, "velocity": 0, "duration": 102}, {"note": 60, "velocity": 102, "duration": 61}, {"note": 60, "velocity": 102, "duration": 184}, {"note": 64, "velocity": 100, "duration": 135}, {"note": 0, "velocity": 0, "duration": 105}, {"note": 64, "velocity": 108, "duration": 146}, {"note": 0, "velocity": 0, "duration": 94}, {"note": 67, "velocity": 108, "duration": 130}, {"note": 0, "velocity": 0, "duration": 110}, {"note": 67, "velocity": 108, "duration": 182}, {"note": 55, "velocity": 89, "duration": 114}, {"note": 0, "velocity": 0, "duration": 246}, {"note": 62, "velocity": 100, "duration": 139}, {"note": 0, "velocity": 0, "duration": 101}, {"note": 60, "velocity": 88, "duration": 123}, {"note": 0, "velocity": 0, "duration": 117}, {"note": 59, "velocity": 89, "duration": 140}, {"note": 60, "velocity": 93, "duration": 137}, {"note": 0, "velocity": 0, "duration": 223}, {"note": 57, "velocity": 89, "duration": 157}, {"note": 0, "velocity": 0, "duration": 1643}, {"note": 62, "velocity": 91, "duration": 43}, {"note": 0, "velocity": 0, "duration": 77}, {"note": 62, "velocity": 91, "duration": 136}, {"note": 0, "velocity": 0, "duration": 104}, {"note": 64, "velocity": 88, "duration": 60}, {"note": 64, "velocity": 89, "duration": 126}, {"note": 0, "velocity": 0, "duration": 114}, {"note": 65, "velocity": 93, "duration": 120}, {"note": 57, "velocity": 87, "duration": 61}, {"note": 0, "velocity": 0, "duration": 179}, {"note": 74, "velocity": 104, "duration": 163}, {"note": 0, "velocity": 0, "duration": 77}, {"note": 72, "velocity": 91, "duration": 132}, {"note": 0, "velocity": 0, "duration": 108}, {"note": 62, "velocity": 96, "duration": 92}, {"note": 0, "velocity": 0, "duration": 148}, {"note": 64, "velocity": 89, "duration": 69}, {"note": 65, "velocity": 100, "duration": 153}, {"note": 0, "velocity": 0, "duration": 1287}, {"note": 69, "velocity": 91, "duration": 59}, {"note": 0, "velocity": 0, "duration": 61}, {"note": 69, "velocity": 108, "duration": 102}, {"note": 0, "velocity": 0, "duration": 138}, {"note": 67, "velocity": 98, "duration": 52}, {"note": 0, "velocity": 0, "duration": 68}, {"note": 69, "velocity": 107, "duration": 114}, {"note": 0, "velocity": 0, "duration": 126}, {"note": 71, "velocity": 98, "duration": 123}, {"note": 0, "velocity": 0, "duration": 117}, {"note": 72, "velocity": 98, "duration": 131}, {"note": 0, "velocity": 0, "duration": 109}, {"note": 69, "velocity": 91, "duration": 145}, {"note": 0, "velocity": 0, "duration": 575}, {"note": 68, "velocity": 103, "duration": 61}, {"note": 68, "velocity": 116, "duration": 122}, {"note": 0, "velocity": 0, "duration": 118}, {"note": 64, "velocity": 88, "duration": 99}, {"note": 0, "velocity": 0, "duration": 141}, {"note": 71, "velocity": 100, "duration": 127}, {"note": 0, "velocity": 0, "duration": 113}, {"note": 72, "velocity": 94, "duration": 91}, {"note": 0, "velocity": 0, "duration": 149}, {"note": 76, "velocity": 105, "duration": 224}, {"note": 0, "velocity": 0, "duration": 136}, {"note": 76, "velocity": 104, "duration": 55}, {"note": 0, "velocity": 0, "duration": 65}, {"note": 77, "velocity": 114, "duration": 123}, {"note": 0, "velocity": 0, "duration": 117}, {"note": 76, "velocity": 102, "duration": 63}, {"note": 77, "velocity": 108, "duration": 132}, {"note": 0, "velocity": 0, "duration": 108}, {"note": 76, "velocity": 107, "duration": 122}, {"note": 0, "velocity": 0, "duration": 118}, {"note": 72, "velocity": 100, "duration": 136}, {"note": 0, "velocity": 0, "duration": 464}, {"note": 69, "velocity": 117, "duration": 89}, {"note": 72, "velocity": 117, "duration": 116}, {"note": 0, "velocity": 0, "duration": 124}, {"note": 69, "velocity": 116, "duration": 61}, {"note": 79, "velocity": 117, "duration": 141}, {"note": 0, "velocity": 0, "duration": 99}, {"note": 76, "velocity": 116, "duration": 64}, {"note": 79, "velocity": 116, "duration": 105}, {"note": 0, "velocity": 0, "duration": 135}, {"note": 76, "velocity": 117, "duration": 134}, {"note": 0, "velocity": 0, "duration": 106}, {"note": 74, "velocity": 119, "duration": 154}, {"note": 0, "velocity": 0, "duration": 1526}, {"note": 67, "velocity": 110, "duration": 62}, {"note": 67, "velocity": 110, "duration": 53}, {"note": 0, "velocity": 0, "duration": 67}, {"note": 79, "velocity": 113, "duration": 82}, {"note": 76, "velocity": 117, "duration": 124}, {"note": 0, "velocity": 0, "duration": 116}, {"note": 74, "velocity": 113, "duration": 118}, {"note": 0, "velocity": 0, "duration": 122}, {"note": 76, "velocity": 116, "duration": 93}, {"note": 79, "velocity": 108, "duration": 90}, {"note": 0, "velocity": 0, "duration": 150}, {"note": 79, "velocity": 117, "duration": 149}, {"note": 0, "velocity": 0, "duration": 91}, {"note": 84, "velocity": 120, "duration": 135}, {"note": 0, "velocity": 0, "duration": 105}, {"note": 83, "velocity": 119, "duration": 146}, {"note": 0, "velocity": 0, "duration": 94}, {"note": 79, "velocity": 114, "duration": 132}, {"note": 0, "velocity": 0, "duration": 108}, {"note": 74, "velocity": 113, "duration": 79}, {"note": 76, "velocity": 119, "duration": 123}, {"note": 0, "velocity": 0, "duration": 117}, {"note": 74, "velocity": 116, "duration": 132}, {"note": 0, "velocity": 0, "duration": 108}, {"note": 76, "velocity": 117, "duration": 114}, {"note": 0, "velocity": 0, "duration": 126}, {"note": 74, "velocity": 119, "duration": 67}, {"note": 76, "velocity": 117, "duration": 129}, {"note": 72, "velocity": 104, "duration": 97}, {"note": 0, "velocity": 0, "duration": 503}, {"note": 72, "velocity": 114, "duration": 80}, {"note": 81, "velocity": 117, "duration": 93}, {"note": 79, "velocity": 117, "duration": 67}, {"note": 81, "velocity": 123, "duration": 152}, {"note": 0, "velocity": 0, "duration": 448}, {"note": 72, "velocity": 113, "duration": 67}, {"note": 79, "velocity": 117, "duration": 97}, {"note": 77, "velocity": 113, "duration": 68}, {"note": 79, "velocity": 119, "duration": 147}, {"note": 0, "velocity": 0, "duration": 573}, {"note": 77, "velocity": 114, "duration": 115}, {"note": 76, "velocity": 114, "duration": 60}, {"note": 77, "velocity": 116, "duration": 131}, {"note": 0, "velocity": 0, "duration": 109}, {"note": 77, "velocity": 113, "duration": 104}, {"note": 76, "velocity": 113, "duration": 75}, {"note": 77, "velocity": 117, "duration": 118}, {"note": 0, "velocity": 0, "duration": 122}, {"note": 77, "velocity": 116, "duration": 104}, {"note": 76, "velocity": 116, "duration": 65}, {"note": 77, "velocity": 120, "duration": 116}, {"note": 76, "velocity": 114, "duration": 63}, {"note": 0, "velocity": 0, "duration": 177}, {"note": 74, "velocity": 117, "duration": 93}, {"note": 0, "velocity": 0, "duration": 147}, {"note": 67, "velocity": 110, "duration": 62}, {"note": 67, "velocity": 110, "duration": 53}, {"note": 0, "velocity": 0, "duration": 67}, {"note": 79, "velocity": 113, "duration": 82}, {"note": 76, "velocity": 117, "duration": 124}, {"note": 0, "velocity": 0, "duration": 116}, {"note": 74, "velocity": 113, "duration": 118}, {"note": 0, "velocity": 0, "duration": 122}, {"note": 76, "velocity": 116, "duration": 93}, {"note": 79, "velocity": 108, "duration": 90}, {"note": 0, "velocity": 0, "duration": 150}, {"note": 79, "velocity": 117, "duration": 149}, {"note": 0, "velocity": 0, "duration": 91}, {"note": 84, "velocity": 120, "duration": 135}, {"note": 0, "velocity": 0, "duration": 105}, {"note": 83, "velocity": 119, "duration": 146}, {"note": 0, "velocity": 0, "duration": 94}, {"note": 79, "velocity": 114, "duration": 132}, {"note": 0, "velocity": 0, "duration": 108}, {"note": 74, "velocity": 113, "duration": 79}, {"note": 76, "velocity": 119, "duration": 123}, {"note": 0, "velocity": 0, "duration": 117}, {"note": 74, "velocity": 116, "duration": 132}, {"note": 0, "velocity": 0, "duration": 108}, {"note": 76, "velocity": 117, "duration": 114}, {"note": 0, "velocity": 0, "duration": 126}, {"note": 74, "velocity": 119, "duration": 67}, {"note": 76, "velocity": 117, "duration": 129}, {"note": 72, "velocity": 104, "duration": 97}, {"note": 0, "velocity": 0, "duration": 503}, {"note": 72, "velocity": 114, "duration": 80}, {"note": 81, "velocity": 117, "duration": 93}, {"note": 79, "velocity": 117, "duration": 67}, {"note": 81, "velocity": 123, "duration": 152}, {"note": 0, "velocity": 0, "duration": 448}, {"note": 72, "velocity": 113, "duration": 67}, {"note": 79, "velocity": 117, "duration": 97}, {"note": 77, "velocity": 113, "duration": 68}, {"note": 79, "velocity": 119, "duration": 147}, {"note": 0, "velocity": 0, "duration": 453}, {"note": 69, "velocity": 114, "duration": 115}, {"note": 77, "velocity": 114, "duration": 115}, {"note": 76, "velocity": 114, "duration": 60}, {"note": 77, "velocity": 116, "duration": 131}, {"note": 0, "velocity": 0, "duration": 109}, {"note": 77, "velocity": 113, "duration": 104}, {"note": 76, "velocity": 113, "duration": 75}, {"note": 77, "velocity": 117, "duration": 118}, {"note": 0, "velocity": 0, "duration": 122}, {"note": 77, "velocity": 116, "duration": 104}, {"note": 76, "velocity": 116, "duration": 65}, {"note": 77, "velocity": 120, "duration": 116}, {"note": 0, "velocity": 0, "duration": 124}, {"note": 77, "velocity": 107, "duration": 75}, {"note": 76, "velocity": 116, "duration": 121}, {"note": 0, "velocity": 0, "duration": 119}, {"note": 74, "velocity": 116, "duration": 154}, {"note": 0, "velocity": 0, "duration": 86}, {"note": 71, "velocity": 113, "duration": 67}, {"note": 72, "velocity": 110, "duration": 159}, {"note": 0, "velocity": 0, "duration": 7401}, {"note": 55, "velocity": 98, "duration": 23}, {"note": 0, "velocity": 0, "duration": 97}, {"note": 55, "velocity": 113, "duration": 138}, {"note": 0, "velocity": 0, "duration": 102}, {"note": 60, "velocity": 102, "duration": 61}, {"note": 60, "velocity": 102, "duration": 184}, {"note": 64, "velocity": 100, "duration": 135}, {"note": 0, "velocity": 0, "duration": 105}, {"note": 64, "velocity": 108, "duration": 146}, {"note": 0, "velocity": 0, "duration": 94}, {"note": 67, "velocity": 108, "duration": 130}, {"note": 0, "velocity": 0, "duration": 110}, {"note": 67, "velocity": 108, "duration": 182}, {"note": 55, "velocity": 89, "duration": 114}, {"note": 0, "velocity": 0, "duration": 246}, {"note": 62, "velocity": 100, "duration": 139}, {"note": 0, "velocity": 0, "duration": 101}, {"note": 60, "velocity": 88, "duration": 123}, {"note": 0, "velocity": 0, "duration": 117}, {"note": 59, "velocity": 89, "duration": 140}, {"note": 60, "velocity": 93, "duration": 137}, {"note": 0, "velocity": 0, "duration": 223}, {"note": 57, "velocity": 89, "duration": 157}, {"note": 0, "velocity": 0, "duration": 1643}, {"note": 62, "velocity": 91, "duration": 43}, {"note": 0, "velocity": 0, "duration": 77}, {"note": 62, "velocity": 91, "duration": 136}, {"note": 0, "velocity": 0, "duration": 104}, {"note": 64, "velocity": 88, "duration": 60}, {"note": 64, "velocity": 89, "duration": 126}, {"note": 0, "velocity": 0, "duration": 114}, {"note": 65, "velocity": 93, "duration": 120}, {"note": 57, "velocity": 87, "duration": 61}, {"note": 0, "velocity": 0, "duration": 179}, {"note": 74, "velocity": 104, "duration": 163}, {"note": 0, "velocity": 0, "duration": 77}, {"note": 72, "velocity": 91, "duration": 132}, {"note": 0, "velocity": 0, "duration": 108}, {"note": 62, "velocity": 96, "duration": 92}, {"note": 0, "velocity": 0, "duration": 148}, {"note": 64, "velocity": 89, "duration": 69}, {"note": 65, "velocity": 100, "duration": 153}, {"note": 0, "velocity": 0, "duration": 1287}, {"note": 69, "velocity": 91, "duration": 59}, {"note": 0, "velocity": 0, "duration": 61}, {"note": 69, "velocity": 108, "duration": 102}, {"note": 0, "velocity": 0, "duration": 138}, {"note": 67, "velocity": 98, "duration": 52}, {"note": 0, "velocity": 0, "duration": 68}, {"note": 69, "velocity": 107, "duration": 114}, {"note": 0, "velocity": 0, "duration": 126}, {"note": 71, "velocity": 98, "duration": 123}, {"note": 0, "velocity": 0, "duration": 117}, {"note": 72, "velocity": 98, "duration": 131}, {"note": 0, "velocity": 0, "duration": 109}, {"note": 69, "velocity": 91, "duration": 145}, {"note": 0, "velocity": 0, "duration": 575}, {"note": 68, "velocity": 103, "duration": 61}, {"note": 68, "velocity": 116, "duration": 122}, {"note": 0, "velocity": 0, "duration": 118}, {"note": 64, "velocity": 88, "duration": 99}, {"note": 0, "velocity": 0, "duration": 141}, {"note": 71, "velocity": 100, "duration": 127}, {"note": 0, "velocity": 0, "duration": 113}, {"note": 72, "velocity": 94, "duration": 91}, {"note": 0, "velocity": 0, "duration": 149}, {"note": 76, "velocity": 105, "duration": 224}, {"note": 0, "velocity": 0, "duration": 136}, {"note": 76, "velocity": 104, "duration": 55}, {"note": 0, "velocity": 0, "duration": 65}, {"note": 77, "velocity": 114, "duration": 123}, {"note": 0, "velocity": 0, "duration": 117}, {"note": 76, "velocity": 102, "duration": 63}, {"note": 77, "velocity": 108, "duration": 132}, {"note": 0, "velocity": 0, "duration": 108}, {"note": 76, "velocity": 107, "duration": 122}, {"note": 0, "velocity": 0, "duration": 118}, {"note": 72, "velocity": 100, "duration": 136}, {"note": 0, "velocity": 0, "duration": 464}, {"note": 69, "velocity": 117, "duration": 89}, {"note": 72, "velocity": 117, "duration": 116}, {"note": 0, "velocity": 0, "duration": 124}, {"note": 69, "velocity": 116, "duration": 61}, {"note": 79, "velocity": 117, "duration": 141}, {"note": 0, "velocity": 0, "duration": 99}, {"note": 76, "velocity": 116, "duration": 64}, {"note": 79, "velocity": 116, "duration": 105}, {"note": 0, "velocity": 0, "duration": 135}, {"note": 76, "velocity": 117, "duration": 134}, {"note": 0, "velocity": 0, "duration": 106}, {"note": 74, "velocity": 119, "duration": 154}, {"note": 0, "velocity": 0, "duration": 566}, {"note": 67, "velocity": 110, "duration": 62}, {"note": 67, "velocity": 110, "duration": 53}, {"note": 0, "velocity": 0, "duration": 67}, {"note": 79, "velocity": 113, "duration": 82}, {"note": 76, "velocity": 117, "duration": 124}, {"note": 0, "velocity": 0, "duration": 116}, {"note": 74, "velocity": 113, "duration": 118}, {"note": 0, "velocity": 0, "duration": 122}, {"note": 76, "velocity": 116, "duration": 93}, {"note": 79, "velocity": 108, "duration": 90}, {"note": 0, "velocity": 0, "duration": 150}, {"note": 79, "velocity": 117, "duration": 149}, {"note": 0, "velocity": 0, "duration": 91}, {"note": 84, "velocity": 120, "duration": 135}, {"note": 0, "velocity": 0, "duration": 105}, {"note": 83, "velocity": 119, "duration": 146}, {"note": 0, "velocity": 0, "duration": 94}, {"note": 79, "velocity": 114, "duration": 132}, {"note": 0, "velocity": 0, "duration": 108}, {"note": 74, "velocity": 113, "duration": 79}, {"note": 76, "velocity": 119, "duration": 123}, {"note": 0, "velocity": 0, "duration": 117}, {"note": 74, "velocity": 116, "duration": 132}, {"note": 0, "velocity": 0, "duration": 108}, {"note": 76, "velocity": 117, "duration": 114}, {"note": 0, "velocity": 0, "duration": 126}, {"note": 74, "velocity": 119, "duration": 67}, {"note": 76, "velocity": 117, "duration": 129}, {"note": 72, "velocity": 104, "duration": 97}, {"note": 0, "velocity": 0, "duration": 503}, {"note": 72, "velocity": 114, "duration": 80}, {"note": 81, "velocity": 117, "duration": 93}, {"note": 79, "velocity": 117, "duration": 67}, {"note": 81, "velocity": 123, "duration": 152}, {"note": 0, "velocity": 0, "duration": 448}, {"note": 72, "velocity": 113, "duration": 67}, {"note": 79, "velocity": 117, "duration": 97}, {"note": 77, "velocity": 113, "duration": 68}, {"note": 79, "velocity": 119, "duration": 147}, {"note": 0, "velocity": 0, "duration": 573}, {"note": 77, "velocity": 114, "duration": 115}, {"note": 76, "velocity": 114, "duration": 60}, {"note": 77, "velocity": 116, "duration": 131}, {"note": 0, "velocity": 0, "duration": 109}, {"note": 77, "velocity": 113, "duration": 104}, {"note": 76, "velocity": 113, "duration": 75}, {"note": 77, "velocity": 117, "duration": 118}, {"note": 0, "velocity": 0, "duration": 122}, {"note": 77, "velocity": 116, "duration": 104}, {"note": 76, "velocity": 116, "duration": 65}, {"note": 77, "velocity": 120, "duration": 116}, {"note": 76, "velocity": 114, "duration": 63}, {"note": 0, "velocity": 0, "duration": 177}, {"note": 74, "velocity": 117, "duration": 93}, {"note": 0, "velocity": 0, "duration": 147}, {"note": 67, "velocity": 110, "duration": 62}, {"note": 67, "velocity": 110, "duration": 53}, {"note": 0, "velocity": 0, "duration": 67}, {"note": 79, "velocity": 113, "duration": 82}, {"note": 76, "velocity": 117, "duration": 124}, {"note": 0, "velocity": 0, "duration": 116}, {"note": 74, "velocity": 113, "duration": 118}, {"note": 0, "velocity": 0, "duration": 122}, {"note": 76, "velocity": 116, "duration": 93}, {"note": 79, "velocity": 108, "duration": 90}, {"note": 0, "velocity": 0, "duration": 150}, {"note": 79, "velocity": 117, "duration": 149}, {"note": 0, "velocity": 0, "duration": 91}, {"note": 84, "velocity": 120, "duration": 135}, {"note": 0, "velocity": 0, "duration": 105}, {"note": 83, "velocity": 119, "duration": 146}, {"note": 0, "velocity": 0, "duration": 94}, {"note": 79, "velocity": 114, "duration": 132}, {"note": 0, "velocity": 0, "duration": 108}, {"note": 74, "velocity": 113, "duration": 79}, {"note": 76, "velocity": 119, "duration": 123}, {"note": 0, "velocity": 0, "duration": 117}, {"note": 74, "velocity": 116, "duration": 132}, {"note": 0, "velocity": 0, "duration": 108}, {"note": 76, "velocity": 117, "duration": 114}, {"note": 0, "velocity": 0, "duration": 126}, {"note": 74, "velocity": 119, "duration": 67}, {"note": 76, "velocity": 117, "duration": 129}, {"note": 72, "velocity": 104, "duration": 97}, {"note": 0, "velocity": 0, "duration": 503}, {"note": 72, "velocity": 114, "duration": 80}, {"note": 81, "velocity": 117, "duration": 93}, {"note": 79, "velocity": 117, "duration": 67}, {"note": 81, "velocity": 123, "duration": 152}, {"note": 0, "velocity": 0, "duration": 448}, {"note": 72, "velocity": 113, "duration": 67}, {"note": 79, "velocity": 117, "duration": 97}, {"note": 77, "velocity": 113, "duration": 68}, {"note": 79, "velocity": 119, "duration": 147}, {"note": 0, "velocity": 0, "duration": 453}, {"note": 69, "velocity": 114, "duration": 115}, {"note": 77, "velocity": 114, "duration": 115}, {"note": 76, "velocity": 114, "duration": 60}, {"note": 77, "velocity": 116, "duration": 131}, {"note": 0, "velocity": 0, "duration": 109}, {"note": 77, "velocity": 113, "duration": 104}, {"note": 76, "velocity": 113, "duration": 75}, {"note": 77, "velocity": 117, "duration": 118}, {"note": 0, "velocity": 0, "duration": 122}, {"note": 77, "velocity": 116, "duration": 104}, {"note": 76, "velocity": 116, "duration": 65}, {"note": 77, "velocity": 120, "duration": 116}, {"note": 0, "velocity": 0, "duration": 124}, {"note": 77, "velocity": 107, "duration": 75}, {"note": 76, "velocity": 116, "duration": 121}, {"note": 0, "velocity": 0, "duration": 119}, {"note": 74, "velocity": 116, "duration": 154}, {"note": 0, "velocity": 0, "duration": 86}, {"note": 71, "velocity": 113, "duration": 67}, {"note": 72, "velocity": 110, "duration": 159}, {"note": 0, "velocity": 0, "duration": 14961}, {"note": 67, "velocity": 110, "duration": 62}, {"note": 67, "velocity": 110, "duration": 53}, {"note": 0, "velocity": 0, "duration": 67}, {"note": 79, "velocity": 113, "duration": 82}, {"note": 0, "velocity": 0, "duration": 98}, {"note": 76, "velocity": 117, "duration": 124}, {"note": 0, "velocity": 0, "duration": 116}, {"note": 74, "velocity": 113, "duration": 118}, {"note": 0, "velocity": 0, "duration": 122}, {"note": 76, "velocity": 116, "duration": 93}, {"note": 79, "velocity": 108, "duration": 90}, {"note": 0, "velocity": 0, "duration": 150}, {"note": 79, "velocity": 117, "duration": 149}, {"note": 0, "velocity": 0, "duration": 91}, {"note": 84, "velocity": 120, "duration": 135}, {"note": 0, "velocity": 0, "duration": 105}, {"note": 83, "velocity": 119, "duration": 146}, {"note": 0, "velocity": 0, "duration": 94}, {"note": 79, "velocity": 114, "duration": 132}, {"note": 0, "velocity": 0, "duration": 108}, {"note": 74, "velocity": 113, "duration": 79}, {"note": 76, "velocity": 119, "duration": 123}, {"note": 0, "velocity": 0, "duration": 117}, {"note": 74, "velocity": 116, "duration": 132}, {"note": 0, "velocity": 0, "duration": 108}, {"note": 76, "velocity": 117, "duration": 114}, {"note": 0, "velocity": 0, "duration": 126}, {"note": 74, "velocity": 119, "duration": 67}, {"note": 76, "velocity": 117, "duration": 129}, {"note": 72, "velocity": 104, "duration": 97}, {"note": 0, "velocity": 0, "duration": 503}, {"note": 72, "velocity": 114, "duration": 80}, {"note": 81, "velocity": 117, "duration": 93}, {"note": 79, "velocity": 117, "duration": 67}, {"note": 81, "velocity": 123, "duration": 152}, {"note": 0, "velocity": 0, "duration": 448}, {"note": 72, "velocity": 113, "duration": 67}, {"note": 79, "velocity": 117, "duration": 97}, {"note": 77, "velocity": 113, "duration": 68}, {"note": 79, "velocity": 119, "duration": 147}, {"note": 0, "velocity": 0, "duration": 573}, {"note": 77, "velocity": 114, "duration": 115}, {"note": 76, "velocity": 114, "duration": 60}, {"note": 77, "velocity": 116, "duration": 131}, {"note": 0, "velocity": 0, "duration": 109}, {"note": 77, "velocity": 113, "duration": 104}, {"note": 76, "velocity": 113, "duration": 75}, {"note": 77, "velocity": 117, "duration": 118}, {"note": 0, "velocity": 0, "duration": 122}, {"note": 77, "velocity": 116, "duration": 104}, {"note": 76, "velocity": 116, "duration": 65}, {"note": 77, "velocity": 120, "duration": 116}, {"note": 76, "velocity": 114, "duration": 63}, {"note": 0, "velocity": 0, "duration": 177}, {"note": 74, "velocity": 117, "duration": 93}, {"note": 0, "velocity": 0, "duration": 147}, {"note": 67, "velocity": 110, "duration": 62}, {"note": 67, "velocity": 110, "duration": 53}, {"note": 0, "velocity": 0, "duration": 67}, {"note": 79, "velocity": 113, "duration": 82}, {"note": 76, "velocity": 117, "duration": 124}, {"note": 0, "velocity": 0, "duration": 116}, {"note": 74, "velocity": 113, "duration": 118}, {"note": 0, "velocity": 0, "duration": 122}, {"note": 76, "velocity": 116, "duration": 93}, {"note": 79, "velocity": 108, "duration": 90}, {"note": 0, "velocity": 0, "duration": 150}, {"note": 79, "velocity": 117, "duration": 149}, {"note": 0, "velocity": 0, "duration": 91}, {"note": 84, "velocity": 120, "duration": 135}, {"note": 0, "velocity": 0, "duration": 105}, {"note": 83, "velocity": 119, "duration": 146}, {"note": 0, "velocity": 0, "duration": 94}, {"note": 79, "velocity": 114, "duration": 132}, {"note": 0, "velocity": 0, "duration": 108}, {"note": 74, "velocity": 113, "duration": 79}, {"note": 76, "velocity": 119, "duration": 123}, {"note": 0, "velocity": 0, "duration": 117}, {"note": 74, "velocity": 116, "duration": 132}, {"note": 0, "velocity": 0, "duration": 108}, {"note": 76, "velocity": 117, "duration": 114}, {"note": 0, "velocity": 0, "duration": 126}, {"note": 74, "velocity": 119, "duration": 67}, {"note": 76, "velocity": 117, "duration": 129}, {"note": 72, "velocity": 104, "duration": 97}, {"note": 0, "velocity": 0, "duration": 503}, {"note": 72, "velocity": 114, "duration": 80}, {"note": 81, "velocity": 117, "duration": 93}, {"note": 79, "velocity": 117, "duration": 67}, {"note": 81, "velocity": 123, "duration": 152}, {"note": 0, "velocity": 0, "duration": 448}, {"note": 72, "velocity": 113, "duration": 67}, {"note": 79, "velocity": 117, "duration": 97}, {"note": 77, "velocity": 113, "duration": 68}, {"note": 79, "velocity": 119, "duration": 147}, {"note": 0, "velocity": 0, "duration": 453}, {"note": 69, "velocity": 114, "duration": 115}, {"note": 77, "velocity": 114, "duration": 115}, {"note": 76, "velocity": 114, "duration": 60}, {"note": 77, "velocity": 116, "duration": 131}, {"note": 0, "velocity": 0, "duration": 109}, {"note": 77, "velocity": 113, "duration": 104}, {"note": 76, "velocity": 113, "duration": 75}, {"note": 77, "velocity": 117, "duration": 118}, {"note": 0, "velocity": 0, "duration": 122}, {"note": 77, "velocity": 116, "duration": 104}, {"note": 76, "velocity": 116, "duration": 65}, {"note": 77, "velocity": 120, "duration": 116}, {"note": 0, "velocity": 0, "duration": 124}, {"note": 77, "velocity": 107, "duration": 75}, {"note": 76, "velocity": 116, "duration": 121}, {"note": 74, "velocity": 116, "duration": 154}, {"note": 0, "velocity": 0, "duration": 86}, {"note": 71, "velocity": 113, "duration": 67}, {"note": 0, "velocity": 0, "duration": 113}, {"note": 72, "velocity": 110, "duration": 159}, {"note": 0, "velocity": 0, "duration": 1401}, {"note": 60, "velocity": 92, "duration": 82}, {"note": 69, "velocity": 102, "duration": 106}, {"note": 67, "velocity": 91, "duration": 120}, {"note": 69, "velocity": 93, "duration": 581}, {"note": 0, "velocity": 0, "duration": 79}, {"note": 60, "velocity": 86, "duration": 123}, {"note": 67, "velocity": 91, "duration": 123}, {"note": 65, "velocity": 78, "duration": 149}, {"note": 67, "velocity": 87, "duration": 657}, {"note": 60, "velocity": 71, "duration": 139}, {"note": 65, "velocity": 81, "duration": 129}, {"note": 64, "velocity": 80, "duration": 152}, {"note": 65, "velocity": 88, "duration": 222}, {"note": 65, "velocity": 87, "duration": 127}, {"note": 64, "velocity": 86, "duration": 133}, {"note": 65, "velocity": 86, "duration": 166}, {"note": 0, "velocity": 0, "duration": 134}, {"note": 65, "velocity": 85, "duration": 137}, {"note": 64, "velocity": 86, "duration": 139}, {"note": 65, "velocity": 84, "duration": 193}, {"note": 0, "velocity": 0, "duration": 107}, {"note": 65, "velocity": 86, "duration": 150}, {"note": 64, "velocity": 83, "duration": 174}, {"note": 62, "velocity": 78, "duration": 551}, {"note": 0, "velocity": 0, "duration": 469}, {"note": 59, "velocity": 76, "duration": 658}, {"note": 60, "velocity": 77, "duration": 731}]]