[[{"note": 77, "velocity": 113, "duration": 74}, {"note": 77, "velocity": 114, "duration": 78}, {"note": 77, "velocity": 119, "duration": 105}, {"note": 0, "velocity": 0, "duration": 135}, {"note": 73, "velocity": 116, "duration": 81}, {"note": 80, "velocity": 123, "duration": 130}, {"note": 0, "velocity": 0, "duration": 230}, {"note": 77, "velocity": 120, "duration": 122}, {"note": 0, "velocity": 0, "duration": 118}, {"note": 73, "velocity": 119, "duration": 150}, {"note": 0, "velocity": 0, "duration": 90}, {"note": 77, "velocity": 120, "duration": 119}, {"note": 0, "velocity": 0, "duration": 121}, {"note": 73, "velocity": 119, "duration": 174}, {"note": 0, "velocity": 0, "duration": 186}, {"note": 70, "velocity": 119, "duration": 185}, {"note": 0, "velocity": 0, "duration": 1615}, {"note": 77, "velocity": 119, "duration": 58}, {"note": 0, "velocity": 0, "duration": 62}, {"note": 77, "velocity": 110, "duration": 55}, {"note": 0, "velocity": 0, "duration": 65}, {"note": 77, "velocity": 117, "duration": 125}, {"note": 0, "velocity": 0, "duration": 115}, {"note": 73, "velocity": 94, "duration": 60}, {"note": 80, "velocity": 110, "duration": 134}, {"note": 0, "velocity": 0, "duration": 226}, {"note": 77, "velocity": 110, "duration": 124}, {"note": 0, "velocity": 0, "duration": 116}, {"note": 73, "velocity": 107, "duration": 134}, {"note": 0, "velocity": 0, "duration": 106}, {"note": 75, "velocity": 114, "duration": 131}, {"note": 0, "velocity": 0, "duration": 349}, {"note": 77, "velocity": 117, "duration": 168}, {"note": 0, "velocity": 0, "duration": 1032}, {"note": 70, "velocity": 117, "duration": 105}, {"note": 72, "velocity": 102, "duration": 101}, {"note": 73, "velocity": 113, "duration": 113}, {"note": 70, "velocity": 114, "duration": 141}, {"note": 0, "velocity": 0, "duration": 99}, {"note": 82, "velocity": 114, "duration": 206}, {"note": 0, "velocity": 0, "duration": 994}, {"note": 70, "velocity": 116, "duration": 52}, {"note": 0, "velocity": 0, "duration": 68}, {"note": 70, "velocity": 113, "duration": 80}, {"note": 73, "velocity": 117, "duration": 50}, {"note": 0, "velocity": 0, "duration": 70}, {"note": 73, "velocity": 114, "duration": 133}, {"note": 0, "velocity": 0, "duration": 107}, {"note": 84, "velocity": 120, "duration": 181}, {"note": 80, "velocity": 119, "duration": 203}, {"note": 0, "velocity": 0, "duration": 997}, {"note": 77, "velocity": 110, "duration": 157}, {"note": 0, "velocity": 0, "duration": 83}, {"note": 80, "velocity": 107, "duration": 102}, {"note": 0, "velocity": 0, "duration": 138}, {"note": 78, "velocity": 116, "duration": 163}, {"note": 0, "velocity": 0, "duration": 197}, {"note": 77, "velocity": 114, "duration": 181}, {"note": 0, "velocity": 0, "duration": 179}, {"note": 79, "velocity": 113, "duration": 160}, {"note": 0, "velocity": 0, "duration": 560}, {"note": 70, "velocity": 116, "duration": 220}, {"note": 80, "velocity": 117, "duration": 183}, {"note": 0, "velocity": 0, "duration": 297}, {"note": 77, "velocity": 119, "duration": 304}, {"note": 0, "velocity": 0, "duration": 1616}, {"note": 77, "velocity": 113, "duration": 74}, {"note": 77, "velocity": 114, "duration": 78}, {"note": 77, "velocity": 119, "duration": 105}, {"note": 0, "velocity": 0, "duration": 135}, {"note": 73, "velocity": 116, "duration": 81}, {"note": 80, "velocity": 123, "duration": 130}, {"note": 0, "velocity": 0, "duration": 230}, {"note": 77, "velocity": 120, "duration": 122}, {"note": 0, "velocity": 0, "duration": 118}, {"note": 73, "velocity": 119, "duration": 150}, {"note": 0, "velocity": 0, "duration": 90}, {"note": 77, "velocity": 120, "duration": 119}, {"note": 0, "velocity": 0, "duration": 121}, {"note": 73, "velocity": 119, "duration": 174}, {"note": 0, "velocity": 0, "duration": 186}, {"note": 70, "velocity": 119, "duration": 185}, {"note": 0, "velocity": 0, "duration": 1615}, {"note": 77, "velocity": 119, "duration": 58}, {"note": 0, "velocity": 0, "duration": 62}, {"note": 77, "velocity": 110, "duration": 55}, {"note": 0, "velocity": 0, "duration": 65}, {"note": 77, "velocity": 117, "duration": 125}, {"note": 0, "velocity": 0, "duration": 115}, {"note": 73, "velocity": 94, "duration": 60}, {"note": 80, "velocity": 110, "duration": 134}, {"note": 0, "velocity": 0, "duration": 226}, {"note": 77, "velocity": 110, "duration": 124}, {"note": 0, "velocity": 0, "duration": 116}, {"note": 73, "velocity": 107, "duration": 134}, {"note": 0, "velocity": 0, "duration": 106}, {"note": 75, "velocity": 114, "duration": 131}, {"note": 0, "velocity": 0, "duration": 349}, {"note": 77, "velocity": 117, "duration": 168}, {"note": 0, "velocity": 0, "duration": 1032}, {"note": 70, "velocity": 117, "duration": 105}, {"note": 72, "velocity": 102, "duration": 101}, {"note": 73, "velocity": 113, "duration": 113}, {"note": 70, "velocity": 114, "duration": 141}, {"note": 0, "velocity": 0, "duration": 219}, {"note": 82, "velocity": 114, "duration": 206}, {"note": 0, "velocity": 0, "duration": 874}, {"note": 70, "velocity": 116, "duration": 52}, {"note": 0, "velocity": 0, "duration": 68}, {"note": 70, "velocity": 113, "duration": 80}, {"note": 73, "velocity": 117, "duration": 50}, {"note": 0, "velocity": 0, "duration": 70}, {"note": 73, "velocity": 114, "duration": 133}, {"note": 0, "velocity": 0, "duration": 107}, {"note": 84, "velocity": 120, "duration": 181}, {"note": 80, "velocity": 119, "duration": 203}, {"note": 0, "velocity": 0, "duration": 997}, {"note": 77, "velocity": 110, "duration": 157}, {"note": 0, "velocity": 0, "duration": 83}, {"note": 80, "velocity": 107, "duration": 102}, {"note": 0, "velocity": 0, "duration": 138}, {"note": 78, "velocity": 116, "duration": 163}, {"note": 0, "velocity": 0, "duration": 197}, {"note": 77, "velocity": 114, "duration": 181}, {"note": 0, "velocity": 0, "duration": 179}, {"note": 79, "velocity": 113, "duration": 160}, {"note": 0, "velocity": 0, "duration": 560}, {"note": 70, "velocity": 116, "duration": 220}, {"note": 80, "velocity": 117, "duration": 183}, {"note": 0, "velocity": 0, "duration": 297}, {"note": 77, "velocity": 119, "duration": 304}, {"note": 0, "velocity": 0, "duration": 1376}, {"note": 73, "velocity": 119, "duration": 189}, {"note": 80, "velocity": 120, "duration": 132}, {"note": 0, "velocity": 0, "duration": 108}, {"note": 80, "velocity": 120, "duration": 155}, {"note": 0, "velocity": 0, "duration": 85}, {"note": 77, "velocity": 119, "duration": 139}, {"note": 0, "velocity": 0, "duration": 101}, {"note": 75, "velocity": 119, "duration": 134}, {"note": 0, "velocity": 0, "duration": 106}, {"note": 82, "velocity": 119, "duration": 137}, {"note": 0, "velocity": 0, "duration": 103}, {"note": 82, "velocity": 119, "duration": 145}, {"note": 0, "velocity": 0, "duration": 95}, {"note": 75, "velocity": 113, "duration": 66}, {"note": 0, "velocity": 0, "duration": 174}, {"note": 85, "velocity": 119, "duration": 138}, {"note": 0, "velocity": 0, "duration": 102}, {"note": 84, "velocity": 119, "duration": 106}, {"note": 82, "velocity": 120, "duration": 123}, {"note": 0, "velocity": 0, "duration": 237}, {"note": 80, "velocity": 102, "duration": 157}, {"note": 0, "velocity": 0, "duration": 83}, {"note": 77, "velocity": 117, "duration": 163}, {"note": 0, "velocity": 0, "duration": 557}, {"note": 77, "velocity": 113, "duration": 93}, {"note": 78, "velocity": 108, "duration": 89}, {"note": 80, "velocity": 114, "duration": 131}, {"note": 0, "velocity": 0, "duration": 109}, {"note": 73, "velocity": 113, "duration": 68}, {"note": 73, "velocity": 116, "duration": 141}, {"note": 0, "velocity": 0, "duration": 99}, {"note": 82, "velocity": 117, "duration": 195}, {"note": 0, "velocity": 0, "duration": 165}, {"note": 80, "velocity": 117, "duration": 137}, {"note": 0, "velocity": 0, "duration": 103}, {"note": 73, "velocity": 114, "duration": 56}, {"note": 0, "velocity": 0, "duration": 64}, {"note": 73, "velocity": 110, "duration": 79}, {"note": 0, "velocity": 0, "duration": 161}, {"note": 80, "velocity": 108, "duration": 202}, {"note": 0, "velocity": 0, "duration": 158}, {"note": 77, "velocity": 113, "duration": 195}, {"note": 0, "velocity": 0, "duration": 1725}, {"note": 73, "velocity": 113, "duration": 152}, {"note": 0, "velocity": 0, "duration": 88}, {"note": 80, "velocity": 110, "duration": 147}, {"note": 0, "velocity": 0, "duration": 93}, {"note": 80, "velocity": 107, "duration": 152}, {"note": 0, "velocity": 0, "duration": 88}, {"note": 77, "velocity": 113, "duration": 150}, {"note": 0, "velocity": 0, "duration": 90}, {"note": 75, "velocity": 113, "duration": 157}, {"note": 0, "velocity": 0, "duration": 83}, {"note": 82, "velocity": 113, "duration": 139}, {"note": 0, "velocity": 0, "duration": 101}, {"note": 82, "velocity": 110, "duration": 152}, {"note": 0, "velocity": 0, "duration": 88}, {"note": 84, "velocity": 116, "duration": 133}, {"note": 0, "velocity": 0, "duration": 107}, {"note": 85, "velocity": 114, "duration": 168}, {"note": 0, "velocity": 0, "duration": 72}, {"note": 84, "velocity": 110, "duration": 116}, {"note": 82, "velocity": 117, "duration": 145}, {"note": 0, "velocity": 0, "duration": 215}, {"note": 77, "velocity": 108, "duration": 105}, {"note": 73, "velocity": 108, "duration": 137}, {"note": 0, "velocity": 0, "duration": 703}, {"note": 70, "velocity": 110, "duration": 136}, {"note": 72, "velocity": 108, "duration": 91}, {"note": 73, "velocity": 116, "duration": 156}, {"note": 0, "velocity": 0, "duration": 564}, {"note": 72, "velocity": 116, "duration": 121}, {"note": 73, "velocity": 114, "duration": 94}, {"note": 77, "velocity": 117, "duration": 176}, {"note": 0, "velocity": 0, "duration": 544}, {"note": 73, "velocity": 110, "duration": 151}, {"note": 0, "velocity": 0, "duration": 209}, {"note": 70, "velocity": 108, "duration": 227}, {"note": 0, "velocity": 0, "duration": 9493}, {"note": 77, "velocity": 113, "duration": 74}, {"note": 77, "velocity": 114, "duration": 78}, {"note": 77, "velocity": 119, "duration": 105}, {"note": 0, "velocity": 0, "duration": 135}, {"note": 73, "velocity": 116, "duration": 81}, {"note": 80, "velocity": 123, "duration": 130}, {"note": 0, "velocity": 0, "duration": 230}, {"note": 77, "velocity": 120, "duration": 122}, {"note": 0, "velocity": 0, "duration": 118}, {"note": 73, "velocity": 119, "duration": 150}, {"note": 0, "velocity": 0, "duration": 90}, {"note": 77, "velocity": 120, "duration": 119}, {"note": 0, "velocity": 0, "duration": 121}, {"note": 73, "velocity": 119, "duration": 174}, {"note": 0, "velocity": 0, "duration": 186}, {"note": 70, "velocity": 119, "duration": 185}, {"note": 0, "velocity": 0, "duration": 1615}, {"note": 77, "velocity": 119, "duration": 58}, {"note": 0, "velocity": 0, "duration": 62}, {"note": 77, "velocity": 110, "duration": 55}, {"note": 0, "velocity": 0, "duration": 65}, {"note": 77, "velocity": 117, "duration": 125}, {"note": 0, "velocity": 0, "duration": 115}, {"note": 73, "velocity": 94, "duration": 60}, {"note": 80, "velocity": 110, "duration": 134}, {"note": 0, "velocity": 0, "duration": 226}, {"note": 77, "velocity": 110, "duration": 124}, {"note": 0, "velocity": 0, "duration": 116}, {"note": 73, "velocity": 107, "duration": 134}, {"note": 0, "velocity": 0, "duration": 106}, {"note": 75, "velocity": 114, "duration": 131}, {"note": 0, "velocity": 0, "duration": 349}, {"note": 77, "velocity": 117, "duration": 168}, {"note": 0, "velocity": 0, "duration": 1032}, {"note": 70, "velocity": 117, "duration": 105}, {"note": 72, "velocity": 102, "duration": 101}, {"note": 73, "velocity": 113, "duration": 113}, {"note": 70, "velocity": 114, "duration": 141}, {"note": 0, "velocity": 0, "duration": 219}, {"note": 82, "velocity": 114, "duration": 206}, {"note": 0, "velocity": 0, "duration": 874}, {"note": 70, "velocity": 116, "duration": 52}, {"note": 0, "velocity": 0, "duration": 68}, {"note": 70, "velocity": 113, "duration": 80}, {"note": 73, "velocity": 117, "duration": 50}, {"note": 0, "velocity": 0, "duration": 70}, {"note": 73, "velocity": 114, "duration": 133}, {"note": 0, "velocity": 0, "duration": 107}, {"note": 84, "velocity": 120, "duration": 181}, {"note": 80, "velocity": 119, "duration": 203}, {"note": 0, "velocity": 0, "duration": 997}, {"note": 77, "velocity": 110, "duration": 157}, {"note": 0, "velocity": 0, "duration": 83}, {"note": 80, "velocity": 107, "duration": 102}, {"note": 0, "velocity": 0, "duration": 138}, {"note": 78, "velocity": 116, "duration": 163}, {"note": 0, "velocity": 0, "duration": 197}, {"note": 77, "velocity": 114, "duration": 181}, {"note": 0, "velocity": 0, "duration": 179}, {"note": 79, "velocity": 113, "duration": 160}, {"note": 0, "velocity": 0, "duration": 560}, {"note": 70, "velocity": 116, "duration": 220}, {"note": 80, "velocity": 117, "duration": 183}, {"note": 0, "velocity": 0, "duration": 297}, {"note": 77, "velocity": 119, "duration": 304}, {"note": 0, "velocity": 0, "duration": 1376}, {"note": 73, "velocity": 119, "duration": 189}, {"note": 80, "velocity": 120, "duration": 132}, {"note": 0, "velocity": 0, "duration": 108}, {"note": 80, "velocity": 120, "duration": 155}, {"note": 0, "velocity": 0, "duration": 85}, {"note": 77, "velocity": 119, "duration": 139}, {"note": 0, "velocity": 0, "duration": 101}, {"note": 75, "velocity": 119, "duration": 134}, {"note": 0, "velocity": 0, "duration": 106}, {"note": 82, "velocity": 119, "duration": 137}, {"note": 0, "velocity": 0, "duration": 103}, {"note": 82, "velocity": 119, "duration": 145}, {"note": 0, "velocity": 0, "duration": 95}, {"note": 75, "velocity": 113, "duration": 66}, {"note": 0, "velocity": 0, "duration": 174}, {"note": 85, "velocity": 119, "duration": 138}, {"note": 0, "velocity": 0, "duration": 102}, {"note": 84, "velocity": 119, "duration": 106}, {"note": 82, "velocity": 120, "duration": 123}, {"note": 0, "velocity": 0, "duration": 237}, {"note": 80, "velocity": 102, "duration": 157}, {"note": 0, "velocity": 0, "duration": 83}, {"note": 77, "velocity": 117, "duration": 163}, {"note": 0, "velocity": 0, "duration": 557}, {"note": 77, "velocity": 113, "duration": 93}, {"note": 78, "velocity": 108, "duration": 89}, {"note": 80, "velocity": 114, "duration": 131}, {"note": 0, "velocity": 0, "duration": 109}, {"note": 73, "velocity": 113, "duration": 68}, {"note": 73, "velocity": 116, "duration": 141}, {"note": 0, "velocity": 0, "duration": 99}, {"note": 82, "velocity": 117, "duration": 195}, {"note": 0, "velocity": 0, "duration": 165}, {"note": 80, "velocity": 117, "duration": 137}, {"note": 0, "velocity": 0, "duration": 103}, {"note": 73, "velocity": 114, "duration": 56}, {"note": 0, "velocity": 0, "duration": 64}, {"note": 73, "velocity": 110, "duration": 79}, {"note": 0, "velocity": 0, "duration": 161}, {"note": 80, "velocity": 108, "duration": 202}, {"note": 0, "velocity": 0, "duration": 158}, {"note": 77, "velocity": 113, "duration": 195}, {"note": 0, "velocity": 0, "duration": 1725}, {"note": 73, "velocity": 113, "duration": 152}, {"note": 0, "velocity": 0, "duration": 88}, {"note": 80, "velocity": 110, "duration": 147}, {"note": 0, "velocity": 0, "duration": 93}, {"note": 80, "velocity": 107, "duration": 152}, {"note": 0, "velocity": 0, "duration": 88}, {"note": 77, "velocity": 113, "duration": 150}, {"note": 0, "velocity": 0, "duration": 90}, {"note": 75, "velocity": 113, "duration": 157}, {"note": 0, "velocity": 0, "duration": 83}, {"note": 82, "velocity": 113, "duration": 139}, {"note": 0, "velocity": 0, "duration": 101}, {"note": 82, "velocity": 110, "duration": 152}, {"note": 0, "velocity": 0, "duration": 88}, {"note": 84, "velocity": 116, "duration": 133}, {"note": 0, "velocity": 0, "duration": 107}, {"note": 85, "velocity": 114, "duration": 168}, {"note": 0, "velocity": 0, "duration": 72}, {"note": 84, "velocity": 110, "duration": 116}, {"note": 82, "velocity": 117, "duration": 145}, {"note": 0, "velocity": 0, "duration": 215}, {"note": 77, "velocity": 108, "duration": 105}, {"note": 73, "velocity": 108, "duration": 137}, {"note": 0, "velocity": 0, "duration": 703}, {"note": 70, "velocity": 110, "duration": 136}, {"note": 72, "velocity": 108, "duration": 91}, {"note": 73, "velocity": 116, "duration": 156}, {"note": 0, "velocity": 0, "duration": 564}, {"note": 72, "velocity": 116, "duration": 121}, {"note": 73, "velocity": 114, "duration": 94}, {"note": 77, "velocity": 117, "duration": 176}, {"note": 0, "velocity": 0, "duration": 544}, {"note": 73, "velocity": 110, "duration": 151}, {"note": 0, "velocity": 0, "duration": 89}, {"note": 70, "velocity": 108, "duration": 227}, {"note": 0, "velocity": 0, "duration": 1693}, {"note": 73, "velocity": 119, "duration": 189}, {"note": 80, "velocity": 120, "duration": 132}, {"note": 0, "velocity": 0, "duration": 108}, {"note": 80, "velocity": 120, "duration": 155}, {"note": 0, "velocity": 0, "duration": 85}, {"note": 77, "velocity": 119, "duration": 139}, {"note": 0, "velocity": 0, "duration": 101}, {"note": 75, "velocity": 119, "duration": 134}, {"note": 0, "velocity": 0, "duration": 106}, {"note": 82, "velocity": 119, "duration": 137}, {"note": 0, "velocity": 0, "duration": 103}, {"note": 82, "velocity": 119, "duration": 145}, {"note": 0, "velocity": 0, "duration": 95}, {"note": 75, "velocity": 113, "duration": 66}, {"note": 0, "velocity": 0, "duration": 174}, {"note": 85, "velocity": 119, "duration": 138}, {"note": 0, "velocity": 0, "duration": 102}, {"note": 84, "velocity": 119, "duration": 106}, {"note": 82, "velocity": 120, "duration": 123}, {"note": 0, "velocity": 0, "duration": 237}, {"note": 80, "velocity": 102, "duration": 157}, {"note": 0, "velocity": 0, "duration": 83}, {"note": 77, "velocity": 117, "duration": 163}, {"note": 0, "velocity": 0, "duration": 557}, {"note": 77, "velocity": 113, "duration": 93}, {"note": 78, "velocity": 108, "duration": 89}, {"note": 80, "velocity": 114, "duration": 131}, {"note": 0, "velocity": 0, "duration": 109}, {"note": 73, "velocity": 113, "duration": 68}, {"note": 73, "velocity": 116, "duration": 141}, {"note": 0, "velocity": 0, "duration": 99}, {"note": 82, "velocity": 117, "duration": 195}, {"note": 0, "velocity": 0, "duration": 165}, {"note": 80, "velocity": 117, "duration": 137}, {"note": 0, "velocity": 0, "duration": 103}, {"note": 73, "velocity": 114, "duration": 56}, {"note": 0, "velocity": 0, "duration": 64}, {"note": 73, "velocity": 110, "duration": 79}, {"note": 0, "velocity": 0, "duration": 161}, {"note": 80, "velocity": 108, "duration": 202}, {"note": 0, "velocity": 0, "duration": 158}, {"note": 77, "velocity": 113, "duration": 195}, {"note": 0, "velocity": 0, "duration": 1725}, {"note": 73, "velocity": 113, "duration": 152}, {"note": 0, "velocity": 0, "duration": 88}, {"note": 80, "velocity": 110, "duration": 147}, {"note": 0, "velocity": 0, "duration": 93}, {"note": 80, "velocity": 107, "duration": 152}, {"note": 0, "velocity": 0, "duration": 88}, {"note": 77, "velocity": 113, "duration": 150}, {"note": 0, "velocity": 0, "duration": 90}, {"note": 75, "velocity": 113, "duration": 157}, {"note": 0, "velocity": 0, "duration": 83}, {"note": 82, "velocity": 113, "duration": 139}, {"note": 0, "velocity": 0, "duration": 101}, {"note": 82, "velocity": 110, "duration": 152}, {"note": 0, "velocity": 0, "duration": 88}, {"note": 84, "velocity": 116, "duration": 133}, {"note": 0, "velocity": 0, "duration": 107}, {"note": 85, "velocity": 114, "duration": 168}, {"note": 0, "velocity": 0, "duration": 72}, {"note": 84, "velocity": 110, "duration": 116}, {"note": 82, "velocity": 117, "duration": 145}, {"note": 0, "velocity": 0, "duration": 215}, {"note": 77, "velocity": 108, "duration": 105}, {"note": 73, "velocity": 108, "duration": 137}, {"note": 0, "velocity": 0, "duration": 703}, {"note": 70, "velocity": 110, "duration": 136}, {"note": 72, "velocity": 108, "duration": 91}, {"note": 73, "velocity": 116, "duration": 156}, {"note": 0, "velocity": 0, "duration": 564}, {"note": 72, "velocity": 116, "duration": 121}, {"note": 73, "velocity": 114, "duration": 94}, {"note": 77, "velocity": 117, "duration": 176}, {"note": 0, "velocity": 0, "duration": 544}, {"note": 73, "velocity": 110, "duration": 151}, {"note": 0, "velocity": 0, "duration": 89}, {"note": 82, "velocity": 108, "duration": 227}]]