[[{"note": 80, "velocity": 120, "duration": 145}, {"note": 0, "velocity": 0, "duration": 95}, {"note": 80, "velocity": 117, "duration": 62}, {"note": 80, "velocity": 108, "duration": 132}, {"note": 0, "velocity": 0, "duration": 228}, {"note": 71, "velocity": 113, "duration": 60}, {"note": 71, "velocity": 110, "duration": 60}, {"note": 0, "velocity": 0, "duration": 780}, {"note": 80, "velocity": 117, "duration": 143}, {"note": 0, "velocity": 0, "duration": 97}, {"note": 78, "velocity": 114, "duration": 135}, {"note": 0, "velocity": 0, "duration": 105}, {"note": 78, "velocity": 113, "duration": 50}, {"note": 0, "velocity": 0, "duration": 70}, {"note": 78, "velocity": 110, "duration": 154}, {"note": 0, "velocity": 0, "duration": 206}, {"note": 75, "velocity": 114, "duration": 136}, {"note": 0, "velocity": 0, "duration": 104}, {"note": 73, "velocity": 110, "duration": 136}, {"note": 71, "velocity": 98, "duration": 152}, {"note": 0, "velocity": 0, "duration": 688}, {"note": 76, "velocity": 116, "duration": 119}, {"note": 0, "velocity": 0, "duration": 121}, {"note": 76, "velocity": 108, "duration": 49}, {"note": 0, "velocity": 0, "duration": 71}, {"note": 76, "velocity": 108, "duration": 160}, {"note": 0, "velocity": 0, "duration": 200}, {"note": 75, "velocity": 113, "duration": 107}, {"note": 73, "velocity": 116, "duration": 136}, {"note": 0, "velocity": 0, "duration": 344}, {"note": 68, "velocity": 107, "duration": 72}, {"note": 78, "velocity": 114, "duration": 160}, {"note": 0, "velocity": 0, "duration": 80}, {"note": 76, "velocity": 114, "duration": 137}, {"note": 0, "velocity": 0, "duration": 103}, {"note": 76, "velocity": 116, "duration": 158}, {"note": 0, "velocity": 0, "duration": 82}, {"note": 75, "velocity": 110, "duration": 119}, {"note": 73, "velocity": 110, "duration": 128}, {"note": 0, "velocity": 0, "duration": 112}, {"note": 75, "velocity": 113, "duration": 112}, {"note": 0, "velocity": 0, "duration": 248}, {"note": 71, "velocity": 108, "duration": 147}, {"note": 0, "velocity": 0, "duration": 813}, {"note": 80, "velocity": 119, "duration": 118}, {"note": 0, "velocity": 0, "duration": 122}, {"note": 80, "velocity": 119, "duration": 55}, {"note": 0, "velocity": 0, "duration": 65}, {"note": 80, "velocity": 117, "duration": 109}, {"note": 0, "velocity": 0, "duration": 251}, {"note": 71, "velocity": 108, "duration": 49}, {"note": 0, "velocity": 0, "duration": 71}, {"note": 71, "velocity": 108, "duration": 131}, {"note": 0, "velocity": 0, "duration": 709}, {"note": 80, "velocity": 117, "duration": 132}, {"note": 0, "velocity": 0, "duration": 108}, {"note": 78, "velocity": 117, "duration": 125}, {"note": 0, "velocity": 0, "duration": 115}, {"note": 78, "velocity": 108, "duration": 47}, {"note": 0, "velocity": 0, "duration": 73}, {"note": 78, "velocity": 110, "duration": 129}, {"note": 0, "velocity": 0, "duration": 111}, {"note": 75, "velocity": 98, "duration": 153}, {"note": 0, "velocity": 0, "duration": 207}, {"note": 73, "velocity": 102, "duration": 114}, {"note": 71, "velocity": 88, "duration": 143}, {"note": 0, "velocity": 0, "duration": 697}, {"note": 76, "velocity": 114, "duration": 132}, {"note": 0, "velocity": 0, "duration": 108}, {"note": 76, "velocity": 108, "duration": 53}, {"note": 0, "velocity": 0, "duration": 67}, {"note": 76, "velocity": 113, "duration": 147}, {"note": 0, "velocity": 0, "duration": 213}, {"note": 75, "velocity": 116, "duration": 113}, {"note": 73, "velocity": 116, "duration": 136}, {"note": 0, "velocity": 0, "duration": 344}, {"note": 68, "velocity": 107, "duration": 64}, {"note": 78, "velocity": 116, "duration": 150}, {"note": 0, "velocity": 0, "duration": 90}, {"note": 76, "velocity": 116, "duration": 160}, {"note": 0, "velocity": 0, "duration": 80}, {"note": 76, "velocity": 116, "duration": 152}, {"note": 0, "velocity": 0, "duration": 328}, {"note": 78, "velocity": 114, "duration": 171}, {"note": 0, "velocity": 0, "duration": 189}, {"note": 78, "velocity": 117, "duration": 158}, {"note": 0, "velocity": 0, "duration": 442}, {"note": 80, "velocity": 119, "duration": 136}, {"note": 0, "velocity": 0, "duration": 104}, {"note": 78, "velocity": 117, "duration": 123}, {"note": 0, "velocity": 0, "duration": 117}, {"note": 76, "velocity": 116, "duration": 248}, {"note": 0, "velocity": 0, "duration": 112}, {"note": 71, "velocity": 107, "duration": 54}, {"note": 0, "velocity": 0, "duration": 66}, {"note": 80, "velocity": 119, "duration": 142}, {"note": 0, "velocity": 0, "duration": 98}, {"note": 78, "velocity": 117, "duration": 125}, {"note": 0, "velocity": 0, "duration": 115}, {"note": 76, "velocity": 116, "duration": 162}, {"note": 0, "velocity": 0, "duration": 318}, {"note": 76, "velocity": 117, "duration": 148}, {"note": 0, "velocity": 0, "duration": 92}, {"note": 78, "velocity": 116, "duration": 136}, {"note": 0, "velocity": 0, "duration": 104}, {"note": 80, "velocity": 117, "duration": 145}, {"note": 0, "velocity": 0, "duration": 95}, {"note": 78, "velocity": 117, "duration": 155}, {"note": 0, "velocity": 0, "duration": 85}, {"note": 76, "velocity": 117, "duration": 159}, {"note": 0, "velocity": 0, "duration": 81}, {"note": 85, "velocity": 119, "duration": 227}, {"note": 0, "velocity": 0, "duration": 253}, {"note": 80, "velocity": 119, "duration": 219}, {"note": 78, "velocity": 120, "duration": 170}, {"note": 0, "velocity": 0, "duration": 70}, {"note": 76, "velocity": 119, "duration": 120}, {"note": 73, "velocity": 114, "duration": 120}, {"note": 76, "velocity": 114, "duration": 180}, {"note": 0, "velocity": 0, "duration": 780}, {"note": 73, "velocity": 114, "duration": 221}, {"note": 75, "velocity": 113, "duration": 186}, {"note": 76, "velocity": 113, "duration": 197}, {"note": 80, "velocity": 113, "duration": 138}, {"note": 0, "velocity": 0, "duration": 102}, {"note": 80, "velocity": 119, "duration": 222}, {"note": 0, "velocity": 0, "duration": 498}, {"note": 76, "velocity": 107, "duration": 131}, {"note": 0, "velocity": 0, "duration": 109}, {"note": 80, "velocity": 114, "duration": 108}, {"note": 78, "velocity": 113, "duration": 136}, {"note": 0, "velocity": 0, "duration": 704}, {"note": 80, "velocity": 116, "duration": 167}, {"note": 0, "velocity": 0, "duration": 73}, {"note": 78, "velocity": 110, "duration": 75}, {"note": 80, "velocity": 116, "duration": 229}, {"note": 0, "velocity": 0, "duration": 131}, {"note": 83, "velocity": 117, "duration": 121}, {"note": 0, "velocity": 0, "duration": 119}, {"note": 87, "velocity": 120, "duration": 134}, {"note": 0, "velocity": 0, "duration": 106}, {"note": 88, "velocity": 114, "duration": 59}, {"note": 0, "velocity": 0, "duration": 61}, {"note": 88, "velocity": 120, "duration": 132}, {"note": 0, "velocity": 0, "duration": 228}, {"note": 90, "velocity": 117, "duration": 130}, {"note": 0, "velocity": 0, "duration": 110}, {"note": 92, "velocity": 117, "duration": 132}, {"note": 0, "velocity": 0, "duration": 108}, {"note": 93, "velocity": 119, "duration": 96}, {"note": 90, "velocity": 120, "duration": 153}, {"note": 0, "velocity": 0, "duration": 87}, {"note": 92, "velocity": 119, "duration": 205}, {"note": 0, "velocity": 0, "duration": 155}, {"note": 88, "velocity": 110, "duration": 132}, {"note": 0, "velocity": 0, "duration": 828}, {"note": 85, "velocity": 114, "duration": 134}, {"note": 0, "velocity": 0, "duration": 106}, {"note": 83, "velocity": 114, "duration": 92}, {"note": 85, "velocity": 117, "duration": 133}, {"note": 0, "velocity": 0, "duration": 227}, {"note": 83, "velocity": 116, "duration": 146}, {"note": 0, "velocity": 0, "duration": 94}, {"note": 85, "velocity": 117, "duration": 132}, {"note": 0, "velocity": 0, "duration": 108}, {"note": 83, "velocity": 113, "duration": 135}, {"note": 0, "velocity": 0, "duration": 105}, {"note": 76, "velocity": 113, "duration": 94}, {"note": 83, "velocity": 114, "duration": 150}, {"note": 0, "velocity": 0, "duration": 210}, {"note": 80, "velocity": 120, "duration": 214}, {"note": 0, "velocity": 0, "duration": 1706}, {"note": 80, "velocity": 116, "duration": 167}, {"note": 0, "velocity": 0, "duration": 73}, {"note": 78, "velocity": 110, "duration": 75}, {"note": 80, "velocity": 116, "duration": 229}, {"note": 0, "velocity": 0, "duration": 131}, {"note": 83, "velocity": 117, "duration": 121}, {"note": 0, "velocity": 0, "duration": 119}, {"note": 87, "velocity": 120, "duration": 134}, {"note": 0, "velocity": 0, "duration": 106}, {"note": 88, "velocity": 114, "duration": 59}, {"note": 0, "velocity": 0, "duration": 61}, {"note": 88, "velocity": 120, "duration": 132}, {"note": 0, "velocity": 0, "duration": 228}, {"note": 90, "velocity": 117, "duration": 130}, {"note": 0, "velocity": 0, "duration": 110}, {"note": 92, "velocity": 117, "duration": 132}, {"note": 0, "velocity": 0, "duration": 108}, {"note": 93, "velocity": 119, "duration": 96}, {"note": 90, "velocity": 120, "duration": 153}, {"note": 0, "velocity": 0, "duration": 87}, {"note": 92, "velocity": 119, "duration": 205}, {"note": 0, "velocity": 0, "duration": 155}, {"note": 88, "velocity": 110, "duration": 132}, {"note": 0, "velocity": 0, "duration": 348}, {"note": 88, "velocity": 120, "duration": 147}, {"note": 0, "velocity": 0, "duration": 93}, {"note": 87, "velocity": 119, "duration": 132}, {"note": 0, "velocity": 0, "duration": 108}, {"note": 85, "velocity": 119, "duration": 168}, {"note": 0, "velocity": 0, "duration": 192}, {"note": 90, "velocity": 117, "duration": 45}, {"note": 0, "velocity": 0, "duration": 555}, {"note": 88, "velocity": 114, "duration": 176}, {"note": 0, "velocity": 0, "duration": 64}, {"note": 87, "velocity": 117, "duration": 132}, {"note": 0, "velocity": 0, "duration": 108}, {"note": 85, "velocity": 119, "duration": 98}, {"note": 87, "velocity": 117, "duration": 164}, {"note": 0, "velocity": 0, "duration": 196}, {"note": 88, "velocity": 117, "duration": 190}, {"note": 0, "velocity": 0, "duration": 3650}, {"note": 80, "velocity": 120, "duration": 145}, {"note": 0, "velocity": 0, "duration": 95}, {"note": 80, "velocity": 117, "duration": 62}, {"note": 80, "velocity": 108, "duration": 132}, {"note": 0, "velocity": 0, "duration": 228}, {"note": 71, "velocity": 113, "duration": 60}, {"note": 71, "velocity": 110, "duration": 60}, {"note": 0, "velocity": 0, "duration": 780}, {"note": 80, "velocity": 117, "duration": 143}, {"note": 0, "velocity": 0, "duration": 97}, {"note": 78, "velocity": 114, "duration": 135}, {"note": 0, "velocity": 0, "duration": 105}, {"note": 78, "velocity": 113, "duration": 50}, {"note": 0, "velocity": 0, "duration": 70}, {"note": 78, "velocity": 110, "duration": 154}, {"note": 0, "velocity": 0, "duration": 206}, {"note": 80, "velocity": 114, "duration": 136}, {"note": 0, "velocity": 0, "duration": 104}, {"note": 80, "velocity": 110, "duration": 136}, {"note": 78, "velocity": 98, "duration": 152}, {"note": 0, "velocity": 0, "duration": 688}, {"note": 76, "velocity": 116, "duration": 119}, {"note": 0, "velocity": 0, "duration": 121}, {"note": 76, "velocity": 108, "duration": 49}, {"note": 0, "velocity": 0, "duration": 71}, {"note": 76, "velocity": 108, "duration": 160}, {"note": 0, "velocity": 0, "duration": 200}, {"note": 75, "velocity": 113, "duration": 107}, {"note": 73, "velocity": 116, "duration": 136}, {"note": 0, "velocity": 0, "duration": 344}, {"note": 68, "velocity": 107, "duration": 72}, {"note": 78, "velocity": 114, "duration": 160}, {"note": 0, "velocity": 0, "duration": 80}, {"note": 76, "velocity": 114, "duration": 137}, {"note": 0, "velocity": 0, "duration": 103}, {"note": 76, "velocity": 116, "duration": 158}, {"note": 0, "velocity": 0, "duration": 82}, {"note": 75, "velocity": 110, "duration": 119}, {"note": 0, "velocity": 0, "duration": 121}, {"note": 73, "velocity": 110, "duration": 128}, {"note": 75, "velocity": 113, "duration": 112}, {"note": 0, "velocity": 0, "duration": 248}, {"note": 71, "velocity": 108, "duration": 147}, {"note": 0, "velocity": 0, "duration": 813}, {"note": 80, "velocity": 119, "duration": 118}, {"note": 0, "velocity": 0, "duration": 122}, {"note": 80, "velocity": 119, "duration": 55}, {"note": 0, "velocity": 0, "duration": 65}, {"note": 80, "velocity": 117, "duration": 109}, {"note": 0, "velocity": 0, "duration": 251}, {"note": 71, "velocity": 108, "duration": 49}, {"note": 0, "velocity": 0, "duration": 71}, {"note": 71, "velocity": 108, "duration": 131}, {"note": 0, "velocity": 0, "duration": 709}, {"note": 80, "velocity": 117, "duration": 132}, {"note": 0, "velocity": 0, "duration": 108}, {"note": 78, "velocity": 117, "duration": 125}, {"note": 0, "velocity": 0, "duration": 115}, {"note": 78, "velocity": 108, "duration": 47}, {"note": 0, "velocity": 0, "duration": 73}, {"note": 78, "velocity": 110, "duration": 129}, {"note": 0, "velocity": 0, "duration": 111}, {"note": 75, "velocity": 98, "duration": 153}, {"note": 0, "velocity": 0, "duration": 207}, {"note": 73, "velocity": 102, "duration": 114}, {"note": 71, "velocity": 88, "duration": 143}, {"note": 0, "velocity": 0, "duration": 697}, {"note": 76, "velocity": 114, "duration": 132}, {"note": 0, "velocity": 0, "duration": 108}, {"note": 76, "velocity": 108, "duration": 53}, {"note": 0, "velocity": 0, "duration": 67}, {"note": 76, "velocity": 113, "duration": 147}, {"note": 0, "velocity": 0, "duration": 213}, {"note": 75, "velocity": 116, "duration": 113}, {"note": 73, "velocity": 116, "duration": 136}, {"note": 0, "velocity": 0, "duration": 344}, {"note": 68, "velocity": 107, "duration": 64}, {"note": 78, "velocity": 116, "duration": 150}, {"note": 0, "velocity": 0, "duration": 90}, {"note": 76, "velocity": 116, "duration": 160}, {"note": 0, "velocity": 0, "duration": 80}, {"note": 76, "velocity": 116, "duration": 152}, {"note": 0, "velocity": 0, "duration": 328}, {"note": 78, "velocity": 114, "duration": 171}, {"note": 0, "velocity": 0, "duration": 189}, {"note": 78, "velocity": 117, "duration": 158}, {"note": 0, "velocity": 0, "duration": 442}, {"note": 80, "velocity": 119, "duration": 136}, {"note": 0, "velocity": 0, "duration": 104}, {"note": 78, "velocity": 117, "duration": 123}, {"note": 0, "velocity": 0, "duration": 117}, {"note": 76, "velocity": 116, "duration": 248}, {"note": 0, "velocity": 0, "duration": 232}, {"note": 85, "velocity": 119, "duration": 142}, {"note": 0, "velocity": 0, "duration": 98}, {"note": 78, "velocity": 117, "duration": 60}, {"note": 78, "velocity": 117, "duration": 60}, {"note": 76, "velocity": 116, "duration": 162}, {"note": 0, "velocity": 0, "duration": 318}, {"note": 76, "velocity": 117, "duration": 148}, {"note": 0, "velocity": 0, "duration": 92}, {"note": 78, "velocity": 116, "duration": 136}, {"note": 0, "velocity": 0, "duration": 104}, {"note": 80, "velocity": 117, "duration": 145}, {"note": 0, "velocity": 0, "duration": 95}, {"note": 78, "velocity": 117, "duration": 155}, {"note": 0, "velocity": 0, "duration": 85}, {"note": 76, "velocity": 117, "duration": 159}, {"note": 0, "velocity": 0, "duration": 81}, {"note": 85, "velocity": 119, "duration": 227}, {"note": 0, "velocity": 0, "duration": 253}, {"note": 80, "velocity": 119, "duration": 219}, {"note": 78, "velocity": 120, "duration": 170}, {"note": 0, "velocity": 0, "duration": 70}, {"note": 76, "velocity": 119, "duration": 120}, {"note": 73, "velocity": 114, "duration": 120}, {"note": 76, "velocity": 114, "duration": 180}, {"note": 0, "velocity": 0, "duration": 780}, {"note": 73, "velocity": 114, "duration": 221}, {"note": 75, "velocity": 113, "duration": 186}, {"note": 76, "velocity": 113, "duration": 197}, {"note": 80, "velocity": 113, "duration": 138}, {"note": 0, "velocity": 0, "duration": 102}, {"note": 80, "velocity": 119, "duration": 222}, {"note": 0, "velocity": 0, "duration": 498}, {"note": 76, "velocity": 107, "duration": 131}, {"note": 0, "velocity": 0, "duration": 109}, {"note": 80, "velocity": 114, "duration": 108}, {"note": 78, "velocity": 113, "duration": 136}, {"note": 0, "velocity": 0, "duration": 704}, {"note": 80, "velocity": 116, "duration": 167}, {"note": 0, "velocity": 0, "duration": 73}, {"note": 78, "velocity": 110, "duration": 75}, {"note": 80, "velocity": 116, "duration": 229}, {"note": 0, "velocity": 0, "duration": 131}, {"note": 83, "velocity": 117, "duration": 121}, {"note": 0, "velocity": 0, "duration": 119}, {"note": 87, "velocity": 120, "duration": 134}, {"note": 0, "velocity": 0, "duration": 106}, {"note": 88, "velocity": 114, "duration": 59}, {"note": 0, "velocity": 0, "duration": 61}, {"note": 88, "velocity": 120, "duration": 132}, {"note": 0, "velocity": 0, "duration": 228}, {"note": 90, "velocity": 117, "duration": 130}, {"note": 0, "velocity": 0, "duration": 110}, {"note": 92, "velocity": 117, "duration": 132}, {"note": 0, "velocity": 0, "duration": 108}, {"note": 93, "velocity": 119, "duration": 96}, {"note": 90, "velocity": 120, "duration": 153}, {"note": 0, "velocity": 0, "duration": 87}, {"note": 92, "velocity": 119, "duration": 205}, {"note": 0, "velocity": 0, "duration": 155}, {"note": 88, "velocity": 110, "duration": 132}, {"note": 0, "velocity": 0, "duration": 828}, {"note": 85, "velocity": 114, "duration": 134}, {"note": 0, "velocity": 0, "duration": 106}, {"note": 83, "velocity": 114, "duration": 92}, {"note": 85, "velocity": 117, "duration": 133}, {"note": 0, "velocity": 0, "duration": 227}, {"note": 83, "velocity": 116, "duration": 146}, {"note": 0, "velocity": 0, "duration": 94}, {"note": 85, "velocity": 117, "duration": 132}, {"note": 0, "velocity": 0, "duration": 108}, {"note": 83, "velocity": 113, "duration": 135}, {"note": 0, "velocity": 0, "duration": 105}, {"note": 76, "velocity": 113, "duration": 94}, {"note": 83, "velocity": 114, "duration": 150}, {"note": 0, "velocity": 0, "duration": 210}, {"note": 80, "velocity": 120, "duration": 214}, {"note": 0, "velocity": 0, "duration": 1706}, {"note": 80, "velocity": 116, "duration": 167}, {"note": 0, "velocity": 0, "duration": 73}, {"note": 78, "velocity": 110, "duration": 75}, {"note": 80, "velocity": 116, "duration": 229}, {"note": 0, "velocity": 0, "duration": 131}, {"note": 83, "velocity": 117, "duration": 121}, {"note": 0, "velocity": 0, "duration": 119}, {"note": 87, "velocity": 120, "duration": 134}, {"note": 0, "velocity": 0, "duration": 106}, {"note": 88, "velocity": 114, "duration": 59}, {"note": 0, "velocity": 0, "duration": 61}, {"note": 88, "velocity": 120, "duration": 132}, {"note": 0, "velocity": 0, "duration": 228}, {"note": 90, "velocity": 117, "duration": 130}, {"note": 0, "velocity": 0, "duration": 110}, {"note": 92, "velocity": 117, "duration": 132}, {"note": 0, "velocity": 0, "duration": 108}, {"note": 93, "velocity": 119, "duration": 96}, {"note": 90, "velocity": 120, "duration": 153}, {"note": 0, "velocity": 0, "duration": 87}, {"note": 92, "velocity": 119, "duration": 205}, {"note": 0, "velocity": 0, "duration": 155}, {"note": 88, "velocity": 110, "duration": 132}, {"note": 0, "velocity": 0, "duration": 348}, {"note": 88, "velocity": 120, "duration": 147}, {"note": 0, "velocity": 0, "duration": 93}, {"note": 87, "velocity": 119, "duration": 132}, {"note": 0, "velocity": 0, "duration": 108}, {"note": 85, "velocity": 119, "duration": 168}, {"note": 0, "velocity": 0, "duration": 192}, {"note": 90, "velocity": 117, "duration": 45}, {"note": 0, "velocity": 0, "duration": 555}, {"note": 88, "velocity": 114, "duration": 176}, {"note": 0, "velocity": 0, "duration": 64}, {"note": 87, "velocity": 117, "duration": 132}, {"note": 0, "velocity": 0, "duration": 108}, {"note": 85, "velocity": 119, "duration": 98}, {"note": 87, "velocity": 117, "duration": 164}, {"note": 0, "velocity": 0, "duration": 196}, {"note": 88, "velocity": 117, "duration": 190}, {"note": 0, "velocity": 0, "duration": 9170}, {"note": 73, "velocity": 119, "duration": 110}, {"note": 75, "velocity": 117, "duration": 64}, {"note": 76, "velocity": 120, "duration": 117}, {"note": 0, "velocity": 0, "duration": 123}, {"note": 76, "velocity": 119, "duration": 104}, {"note": 76, "velocity": 114, "duration": 141}, {"note": 0, "velocity": 0, "duration": 219}, {"note": 75, "velocity": 117, "duration": 155}, {"note": 0, "velocity": 0, "duration": 85}, {"note": 76, "velocity": 120, "duration": 172}, {"note": 0, "velocity": 0, "duration": 548}, {"note": 73, "velocity": 119, "duration": 145}, {"note": 0, "velocity": 0, "duration": 95}, {"note": 71, "velocity": 119, "duration": 145}, {"note": 0, "velocity": 0, "duration": 95}, {"note": 81, "velocity": 119, "duration": 161}, {"note": 0, "velocity": 0, "duration": 79}, {"note": 80, "velocity": 119, "duration": 140}, {"note": 0, "velocity": 0, "duration": 100}, {"note": 78, "velocity": 119, "duration": 97}, {"note": 78, "velocity": 119, "duration": 111}, {"note": 76, "velocity": 114, "duration": 151}, {"note": 0, "velocity": 0, "duration": 569}, {"note": 73, "velocity": 117, "duration": 101}, {"note": 75, "velocity": 114, "duration": 57}, {"note": 0, "velocity": 0, "duration": 63}, {"note": 76, "velocity": 117, "duration": 108}, {"note": 0, "velocity": 0, "duration": 132}, {"note": 76, "velocity": 119, "duration": 48}, {"note": 0, "velocity": 0, "duration": 72}, {"note": 76, "velocity": 119, "duration": 103}, {"note": 0, "velocity": 0, "duration": 137}, {"note": 75, "velocity": 113, "duration": 139}, {"note": 0, "velocity": 0, "duration": 101}, {"note": 78, "velocity": 116, "duration": 141}, {"note": 76, "velocity": 114, "duration": 136}, {"note": 0, "velocity": 0, "duration": 464}, {"note": 71, "velocity": 119, "duration": 85}, {"note": 73, "velocity": 117, "duration": 88}, {"note": 0, "velocity": 0, "duration": 152}, {"note": 73, "velocity": 120, "duration": 166}, {"note": 0, "velocity": 0, "duration": 74}, {"note": 71, "velocity": 120, "duration": 304}, {"note": 0, "velocity": 0, "duration": 1376}, {"note": 80, "velocity": 116, "duration": 167}, {"note": 0, "velocity": 0, "duration": 73}, {"note": 78, "velocity": 110, "duration": 75}, {"note": 80, "velocity": 116, "duration": 229}, {"note": 0, "velocity": 0, "duration": 131}, {"note": 83, "velocity": 117, "duration": 121}, {"note": 0, "velocity": 0, "duration": 119}, {"note": 87, "velocity": 120, "duration": 134}, {"note": 0, "velocity": 0, "duration": 106}, {"note": 88, "velocity": 114, "duration": 59}, {"note": 0, "velocity": 0, "duration": 61}, {"note": 88, "velocity": 120, "duration": 132}, {"note": 0, "velocity": 0, "duration": 228}, {"note": 90, "velocity": 117, "duration": 130}, {"note": 0, "velocity": 0, "duration": 110}, {"note": 92, "velocity": 117, "duration": 132}, {"note": 0, "velocity": 0, "duration": 108}, {"note": 93, "velocity": 119, "duration": 96}, {"note": 90, "velocity": 120, "duration": 153}, {"note": 0, "velocity": 0, "duration": 87}, {"note": 92, "velocity": 119, "duration": 205}, {"note": 0, "velocity": 0, "duration": 155}, {"note": 88, "velocity": 110, "duration": 132}, {"note": 0, "velocity": 0, "duration": 828}, {"note": 85, "velocity": 114, "duration": 134}, {"note": 0, "velocity": 0, "duration": 106}, {"note": 83, "velocity": 114, "duration": 92}, {"note": 85, "velocity": 117, "duration": 133}, {"note": 0, "velocity": 0, "duration": 227}, {"note": 83, "velocity": 116, "duration": 146}, {"note": 0, "velocity": 0, "duration": 94}, {"note": 85, "velocity": 117, "duration": 132}, {"note": 0, "velocity": 0, "duration": 108}, {"note": 83, "velocity": 113, "duration": 135}, {"note": 0, "velocity": 0, "duration": 105}, {"note": 76, "velocity": 113, "duration": 94}, {"note": 83, "velocity": 114, "duration": 150}, {"note": 0, "velocity": 0, "duration": 210}, {"note": 80, "velocity": 120, "duration": 214}, {"note": 0, "velocity": 0, "duration": 1706}, {"note": 80, "velocity": 116, "duration": 167}, {"note": 0, "velocity": 0, "duration": 73}, {"note": 78, "velocity": 110, "duration": 75}, {"note": 80, "velocity": 116, "duration": 229}, {"note": 0, "velocity": 0, "duration": 131}, {"note": 83, "velocity": 117, "duration": 121}, {"note": 0, "velocity": 0, "duration": 119}, {"note": 87, "velocity": 120, "duration": 134}, {"note": 0, "velocity": 0, "duration": 106}, {"note": 88, "velocity": 114, "duration": 59}, {"note": 0, "velocity": 0, "duration": 61}, {"note": 88, "velocity": 120, "duration": 132}, {"note": 0, "velocity": 0, "duration": 228}, {"note": 90, "velocity": 117, "duration": 130}, {"note": 0, "velocity": 0, "duration": 110}, {"note": 92, "velocity": 117, "duration": 132}, {"note": 0, "velocity": 0, "duration": 108}, {"note": 93, "velocity": 119, "duration": 96}, {"note": 90, "velocity": 120, "duration": 153}, {"note": 0, "velocity": 0, "duration": 87}, {"note": 92, "velocity": 119, "duration": 205}, {"note": 0, "velocity": 0, "duration": 155}, {"note": 88, "velocity": 110, "duration": 132}, {"note": 0, "velocity": 0, "duration": 348}, {"note": 88, "velocity": 120, "duration": 147}, {"note": 0, "velocity": 0, "duration": 93}, {"note": 87, "velocity": 119, "duration": 132}, {"note": 0, "velocity": 0, "duration": 108}, {"note": 85, "velocity": 119, "duration": 168}, {"note": 0, "velocity": 0, "duration": 192}, {"note": 90, "velocity": 117, "duration": 45}, {"note": 0, "velocity": 0, "duration": 555}, {"note": 88, "velocity": 114, "duration": 176}, {"note": 0, "velocity": 0, "duration": 64}, {"note": 87, "velocity": 117, "duration": 132}, {"note": 0, "velocity": 0, "duration": 108}, {"note": 85, "velocity": 119, "duration": 98}, {"note": 87, "velocity": 117, "duration": 164}, {"note": 0, "velocity": 0, "duration": 196}, {"note": 88, "velocity": 117, "duration": 190}, {"note": 0, "velocity": 0, "duration": 1730}, {"note": 80, "velocity": 116, "duration": 167}, {"note": 0, "velocity": 0, "duration": 73}, {"note": 78, "velocity": 110, "duration": 75}, {"note": 80, "velocity": 116, "duration": 229}, {"note": 0, "velocity": 0, "duration": 131}, {"note": 83, "velocity": 117, "duration": 121}, {"note": 0, "velocity": 0, "duration": 119}, {"note": 87, "velocity": 120, "duration": 134}, {"note": 0, "velocity": 0, "duration": 106}, {"note": 88, "velocity": 114, "duration": 59}, {"note": 0, "velocity": 0, "duration": 61}, {"note": 88, "velocity": 120, "duration": 132}, {"note": 0, "velocity": 0, "duration": 228}, {"note": 90, "velocity": 117, "duration": 130}, {"note": 0, "velocity": 0, "duration": 110}, {"note": 92, "velocity": 117, "duration": 132}, {"note": 0, "velocity": 0, "duration": 108}, {"note": 93, "velocity": 119, "duration": 96}, {"note": 90, "velocity": 120, "duration": 153}, {"note": 0, "velocity": 0, "duration": 87}, {"note": 92, "velocity": 119, "duration": 205}, {"note": 0, "velocity": 0, "duration": 155}, {"note": 88, "velocity": 110, "duration": 132}, {"note": 0, "velocity": 0, "duration": 828}, {"note": 85, "velocity": 114, "duration": 134}, {"note": 0, "velocity": 0, "duration": 106}, {"note": 83, "velocity": 114, "duration": 92}, {"note": 85, "velocity": 117, "duration": 133}, {"note": 0, "velocity": 0, "duration": 227}, {"note": 83, "velocity": 116, "duration": 146}, {"note": 0, "velocity": 0, "duration": 94}, {"note": 85, "velocity": 117, "duration": 132}, {"note": 0, "velocity": 0, "duration": 108}, {"note": 83, "velocity": 113, "duration": 135}, {"note": 0, "velocity": 0, "duration": 105}, {"note": 76, "velocity": 113, "duration": 94}, {"note": 83, "velocity": 114, "duration": 150}, {"note": 0, "velocity": 0, "duration": 210}, {"note": 80, "velocity": 120, "duration": 214}, {"note": 0, "velocity": 0, "duration": 1706}, {"note": 80, "velocity": 116, "duration": 167}, {"note": 0, "velocity": 0, "duration": 73}, {"note": 78, "velocity": 110, "duration": 75}, {"note": 80, "velocity": 116, "duration": 229}, {"note": 0, "velocity": 0, "duration": 131}, {"note": 83, "velocity": 117, "duration": 121}, {"note": 0, "velocity": 0, "duration": 119}, {"note": 87, "velocity": 120, "duration": 134}, {"note": 0, "velocity": 0, "duration": 106}, {"note": 88, "velocity": 114, "duration": 59}, {"note": 0, "velocity": 0, "duration": 61}, {"note": 88, "velocity": 120, "duration": 132}, {"note": 0, "velocity": 0, "duration": 228}, {"note": 90, "velocity": 117, "duration": 130}, {"note": 0, "velocity": 0, "duration": 110}, {"note": 92, "velocity": 117, "duration": 132}, {"note": 0, "velocity": 0, "duration": 108}, {"note": 93, "velocity": 119, "duration": 96}, {"note": 90, "velocity": 120, "duration": 153}, {"note": 0, "velocity": 0, "duration": 87}, {"note": 92, "velocity": 119, "duration": 205}, {"note": 0, "velocity": 0, "duration": 155}, {"note": 88, "velocity": 110, "duration": 132}, {"note": 0, "velocity": 0, "duration": 348}, {"note": 88, "velocity": 120, "duration": 147}, {"note": 0, "velocity": 0, "duration": 93}, {"note": 87, "velocity": 119, "duration": 132}, {"note": 0, "velocity": 0, "duration": 108}, {"note": 85, "velocity": 119, "duration": 168}, {"note": 0, "velocity": 0, "duration": 192}, {"note": 90, "velocity": 117, "duration": 45}, {"note": 0, "velocity": 0, "duration": 555}, {"note": 88, "velocity": 114, "duration": 176}, {"note": 0, "velocity": 0, "duration": 64}, {"note": 87, "velocity": 117, "duration": 132}, {"note": 0, "velocity": 0, "duration": 108}, {"note": 85, "velocity": 119, "duration": 98}, {"note": 87, "velocity": 117, "duration": 164}, {"note": 0, "velocity": 0, "duration": 196}, {"note": 88, "velocity": 117, "duration": 190}, {"note": 0, "velocity": 0, "duration": 1318}, {"note": 88, "velocity": 119, "duration": 196}, {"note": 0, "velocity": 0, "duration": 96}, {"note": 87, "velocity": 119, "duration": 135}, {"note": 0, "velocity": 0, "duration": 127}, {"note": 85, "velocity": 120, "duration": 326}, {"note": 0, "velocity": 0, "duration": 176}, {"note": 90, "velocity": 113, "duration": 378}, {"note": 88, "velocity": 100, "duration": 229}, {"note": 0, "velocity": 0, "duration": 181}, {"note": 88, "velocity": 93, "duration": 213}, {"note": 0, "velocity": 0, "duration": 232}, {"note": 87, "velocity": 102, "duration": 205}, {"note": 0, "velocity": 0, "duration": 191}, {"note": 85, "velocity": 108, "duration": 487}, {"note": 0, "velocity": 0, "duration": 359}, {"note": 83, "velocity": 108, "duration": 80}, {"note": 0, "velocity": 0, "duration": 157}, {"note": 83, "velocity": 114, "duration": 242}, {"note": 81, "velocity": 100, "duration": 202}, {"note": 80, "velocity": 104, "duration": 173}, {"note": 81, "velocity": 100, "duration": 147}, {"note": 80, "velocity": 94, "duration": 69}, {"note": 78, "velocity": 86, "duration": 145}, {"note": 76, "velocity": 100, "duration": 164}, {"note": 78, "velocity": 100, "duration": 240}, {"note": 76, "velocity": 100, "duration": 370}]]