[[{"note": 57, "velocity": 87, "duration": 446}, {"note": 57, "velocity": 87, "duration": 186}, {"note": 57, "velocity": 102, "duration": 164}, {"note": 0, "velocity": 0, "duration": 76}, {"note": 62, "velocity": 83, "duration": 454}, {"note": 62, "velocity": 87, "duration": 168}, {"note": 0, "velocity": 0, "duration": 72}, {"note": 62, "velocity": 93, "duration": 205}, {"note": 60, "velocity": 87, "duration": 207}, {"note": 62, "velocity": 85, "duration": 273}, {"note": 64, "velocity": 95, "duration": 475}, {"note": 62, "velocity": 74, "duration": 770}, {"note": 0, "velocity": 0, "duration": 190}, {"note": 64, "velocity": 93, "duration": 377}, {"note": 0, "velocity": 0, "duration": 103}, {"note": 62, "velocity": 83, "duration": 188}, {"note": 64, "velocity": 83, "duration": 199}, {"note": 62, "velocity": 74, "duration": 222}, {"note": 57, "velocity": 93, "duration": 226}, {"note": 60, "velocity": 85, "duration": 235}, {"note": 59, "velocity": 80, "duration": 244}, {"note": 57, "velocity": 83, "duration": 1538}, {"note": 0, "velocity": 0, "duration": 382}, {"note": 57, "velocity": 93, "duration": 361}, {"note": 0, "velocity": 0, "duration": 119}, {"note": 57, "velocity": 83, "duration": 165}, {"note": 0, "velocity": 0, "duration": 75}, {"note": 57, "velocity": 93, "duration": 193}, {"note": 69, "velocity": 93, "duration": 390}, {"note": 0, "velocity": 0, "duration": 90}, {"note": 69, "velocity": 95, "duration": 410}, {"note": 0, "velocity": 0, "duration": 70}, {"note": 67, "velocity": 83, "duration": 206}, {"note": 69, "velocity": 83, "duration": 166}, {"note": 0, "velocity": 0, "duration": 74}, {"note": 71, "velocity": 87, "duration": 193}, {"note": 69, "velocity": 83, "duration": 77}, {"note": 71, "velocity": 68, "duration": 79}, {"note": 69, "velocity": 93, "duration": 758}, {"note": 0, "velocity": 0, "duration": 202}, {"note": 71, "velocity": 93, "duration": 361}, {"note": 0, "velocity": 0, "duration": 119}, {"note": 69, "velocity": 85, "duration": 170}, {"note": 0, "velocity": 0, "duration": 70}, {"note": 71, "velocity": 80, "duration": 179}, {"note": 0, "velocity": 0, "duration": 61}, {"note": 69, "velocity": 90, "duration": 189}, {"note": 64, "velocity": 87, "duration": 224}, {"note": 67, "velocity": 80, "duration": 193}, {"note": 66, "velocity": 80, "duration": 197}, {"note": 64, "velocity": 90, "duration": 1553}, {"note": 0, "velocity": 0, "duration": 367}, {"note": 69, "velocity": 93, "duration": 372}, {"note": 0, "velocity": 0, "duration": 108}, {"note": 71, "velocity": 90, "duration": 162}, {"note": 0, "velocity": 0, "duration": 78}, {"note": 69, "velocity": 93, "duration": 173}, {"note": 0, "velocity": 0, "duration": 67}, {"note": 57, "velocity": 95, "duration": 344}, {"note": 0, "velocity": 0, "duration": 136}, {"note": 57, "velocity": 85, "duration": 403}, {"note": 0, "velocity": 0, "duration": 77}, {"note": 62, "velocity": 87, "duration": 179}, {"note": 0, "velocity": 0, "duration": 61}, {"note": 62, "velocity": 87, "duration": 202}, {"note": 60, "velocity": 80, "duration": 197}, {"note": 62, "velocity": 87, "duration": 173}, {"note": 0, "velocity": 0, "duration": 67}, {"note": 64, "velocity": 90, "duration": 772}, {"note": 0, "velocity": 0, "duration": 188}, {"note": 67, "velocity": 87, "duration": 415}, {"note": 0, "velocity": 0, "duration": 65}, {"note": 64, "velocity": 95, "duration": 157}, {"note": 0, "velocity": 0, "duration": 83}, {"note": 62, "velocity": 80, "duration": 181}, {"note": 60, "velocity": 80, "duration": 390}, {"note": 0, "velocity": 0, "duration": 90}, {"note": 62, "velocity": 83, "duration": 175}, {"note": 0, "velocity": 0, "duration": 65}, {"note": 59, "velocity": 74, "duration": 235}, {"note": 57, "velocity": 87, "duration": 1544}, {"note": 0, "velocity": 0, "duration": 376}, {"note": 57, "velocity": 87, "duration": 446}, {"note": 57, "velocity": 87, "duration": 186}, {"note": 57, "velocity": 102, "duration": 164}, {"note": 0, "velocity": 0, "duration": 76}, {"note": 62, "velocity": 83, "duration": 454}, {"note": 62, "velocity": 87, "duration": 168}, {"note": 0, "velocity": 0, "duration": 72}, {"note": 62, "velocity": 93, "duration": 205}, {"note": 60, "velocity": 87, "duration": 207}, {"note": 62, "velocity": 85, "duration": 273}, {"note": 64, "velocity": 95, "duration": 475}, {"note": 62, "velocity": 74, "duration": 770}, {"note": 0, "velocity": 0, "duration": 190}, {"note": 64, "velocity": 93, "duration": 377}, {"note": 0, "velocity": 0, "duration": 103}, {"note": 62, "velocity": 83, "duration": 188}, {"note": 64, "velocity": 83, "duration": 199}, {"note": 62, "velocity": 74, "duration": 222}, {"note": 57, "velocity": 93, "duration": 226}, {"note": 60, "velocity": 85, "duration": 235}, {"note": 59, "velocity": 80, "duration": 244}, {"note": 57, "velocity": 83, "duration": 1538}, {"note": 0, "velocity": 0, "duration": 382}, {"note": 57, "velocity": 93, "duration": 361}, {"note": 0, "velocity": 0, "duration": 119}, {"note": 57, "velocity": 83, "duration": 165}, {"note": 0, "velocity": 0, "duration": 75}, {"note": 57, "velocity": 93, "duration": 193}, {"note": 69, "velocity": 93, "duration": 390}, {"note": 0, "velocity": 0, "duration": 90}, {"note": 69, "velocity": 95, "duration": 410}, {"note": 0, "velocity": 0, "duration": 70}, {"note": 67, "velocity": 83, "duration": 206}, {"note": 69, "velocity": 83, "duration": 166}, {"note": 0, "velocity": 0, "duration": 74}, {"note": 71, "velocity": 87, "duration": 193}, {"note": 69, "velocity": 83, "duration": 77}, {"note": 71, "velocity": 68, "duration": 79}, {"note": 69, "velocity": 93, "duration": 758}, {"note": 0, "velocity": 0, "duration": 202}, {"note": 71, "velocity": 93, "duration": 361}, {"note": 0, "velocity": 0, "duration": 119}, {"note": 69, "velocity": 85, "duration": 170}, {"note": 0, "velocity": 0, "duration": 70}, {"note": 71, "velocity": 80, "duration": 179}, {"note": 0, "velocity": 0, "duration": 61}, {"note": 69, "velocity": 90, "duration": 189}, {"note": 64, "velocity": 87, "duration": 224}, {"note": 67, "velocity": 80, "duration": 193}, {"note": 66, "velocity": 80, "duration": 197}, {"note": 64, "velocity": 90, "duration": 1553}, {"note": 0, "velocity": 0, "duration": 367}, {"note": 69, "velocity": 93, "duration": 372}, {"note": 0, "velocity": 0, "duration": 108}, {"note": 71, "velocity": 90, "duration": 162}, {"note": 0, "velocity": 0, "duration": 78}, {"note": 69, "velocity": 93, "duration": 173}, {"note": 0, "velocity": 0, "duration": 67}, {"note": 57, "velocity": 95, "duration": 344}, {"note": 0, "velocity": 0, "duration": 136}, {"note": 57, "velocity": 85, "duration": 403}, {"note": 0, "velocity": 0, "duration": 77}, {"note": 62, "velocity": 87, "duration": 179}, {"note": 0, "velocity": 0, "duration": 61}, {"note": 62, "velocity": 87, "duration": 202}, {"note": 60, "velocity": 80, "duration": 197}, {"note": 62, "velocity": 87, "duration": 173}, {"note": 0, "velocity": 0, "duration": 67}, {"note": 64, "velocity": 90, "duration": 772}, {"note": 0, "velocity": 0, "duration": 188}, {"note": 67, "velocity": 87, "duration": 415}, {"note": 0, "velocity": 0, "duration": 65}, {"note": 64, "velocity": 95, "duration": 157}, {"note": 0, "velocity": 0, "duration": 83}, {"note": 62, "velocity": 80, "duration": 181}, {"note": 60, "velocity": 80, "duration": 390}, {"note": 0, "velocity": 0, "duration": 90}, {"note": 62, "velocity": 83, "duration": 175}, {"note": 0, "velocity": 0, "duration": 65}, {"note": 59, "velocity": 74, "duration": 235}, {"note": 57, "velocity": 87, "duration": 1544}, {"note": 0, "velocity": 0, "duration": 376}, {"note": 69, "velocity": 102, "duration": 438}, {"note": 71, "velocity": 93, "duration": 172}, {"note": 0, "velocity": 0, "duration": 68}, {"note": 69, "velocity": 102, "duration": 202}, {"note": 67, "velocity": 93, "duration": 468}, {"note": 64, "velocity": 102, "duration": 386}, {"note": 0, "velocity": 0, "duration": 94}, {"note": 69, "velocity": 102, "duration": 438}, {"note": 71, "velocity": 93, "duration": 172}, {"note": 0, "velocity": 0, "duration": 68}, {"note": 69, "velocity": 102, "duration": 202}, {"note": 67, "velocity": 93, "duration": 468}, {"note": 64, "velocity": 102, "duration": 386}, {"note": 0, "velocity": 0, "duration": 94}, {"note": 67, "velocity": 93, "duration": 374}, {"note": 0, "velocity": 0, "duration": 106}, {"note": 67, "velocity": 80, "duration": 197}, {"note": 64, "velocity": 87, "duration": 196}, {"note": 62, "velocity": 93, "duration": 202}, {"note": 64, "velocity": 93, "duration": 190}, {"note": 66, "velocity": 80, "duration": 448}, {"note": 64, "velocity": 102, "duration": 1496}, {"note": 0, "velocity": 0, "duration": 424}, {"note": 57, "velocity": 93, "duration": 374}, {"note": 0, "velocity": 0, "duration": 106}, {"note": 57, "velocity": 87, "duration": 175}, {"note": 0, "velocity": 0, "duration": 65}, {"note": 57, "velocity": 87, "duration": 159}, {"note": 0, "velocity": 0, "duration": 81}, {"note": 62, "velocity": 87, "duration": 404}, {"note": 0, "velocity": 0, "duration": 76}, {"note": 62, "velocity": 87, "duration": 457}, {"note": 60, "velocity": 87, "duration": 198}, {"note": 62, "velocity": 87, "duration": 173}, {"note": 0, "velocity": 0, "duration": 67}, {"note": 64, "velocity": 93, "duration": 232}, {"note": 62, "velocity": 69, "duration": 121}, {"note": 64, "velocity": 74, "duration": 117}, {"note": 62, "velocity": 87, "duration": 787}, {"note": 0, "velocity": 0, "duration": 173}, {"note": 64, "velocity": 93, "duration": 368}, {"note": 0, "velocity": 0, "duration": 112}, {"note": 62, "velocity": 80, "duration": 188}, {"note": 64, "velocity": 87, "duration": 182}, {"note": 62, "velocity": 83, "duration": 212}, {"note": 57, "velocity": 87, "duration": 221}, {"note": 60, "velocity": 87, "duration": 228}, {"note": 59, "velocity": 87, "duration": 243}, {"note": 57, "velocity": 83, "duration": 1860}, {"note": 0, "velocity": 0, "duration": 15420}, {"note": 57, "velocity": 87, "duration": 446}, {"note": 57, "velocity": 87, "duration": 186}, {"note": 57, "velocity": 102, "duration": 164}, {"note": 0, "velocity": 0, "duration": 76}, {"note": 62, "velocity": 83, "duration": 454}, {"note": 62, "velocity": 87, "duration": 168}, {"note": 0, "velocity": 0, "duration": 72}, {"note": 62, "velocity": 93, "duration": 205}, {"note": 60, "velocity": 87, "duration": 207}, {"note": 62, "velocity": 85, "duration": 273}, {"note": 64, "velocity": 95, "duration": 475}, {"note": 62, "velocity": 74, "duration": 770}, {"note": 0, "velocity": 0, "duration": 190}, {"note": 64, "velocity": 93, "duration": 377}, {"note": 0, "velocity": 0, "duration": 103}, {"note": 62, "velocity": 83, "duration": 188}, {"note": 64, "velocity": 83, "duration": 199}, {"note": 62, "velocity": 74, "duration": 222}, {"note": 57, "velocity": 93, "duration": 226}, {"note": 60, "velocity": 85, "duration": 235}, {"note": 59, "velocity": 80, "duration": 244}, {"note": 57, "velocity": 83, "duration": 1538}, {"note": 0, "velocity": 0, "duration": 382}, {"note": 57, "velocity": 93, "duration": 361}, {"note": 0, "velocity": 0, "duration": 119}, {"note": 57, "velocity": 83, "duration": 165}, {"note": 0, "velocity": 0, "duration": 75}, {"note": 57, "velocity": 93, "duration": 193}, {"note": 69, "velocity": 93, "duration": 390}, {"note": 0, "velocity": 0, "duration": 90}, {"note": 69, "velocity": 95, "duration": 410}, {"note": 0, "velocity": 0, "duration": 70}, {"note": 67, "velocity": 83, "duration": 206}, {"note": 69, "velocity": 83, "duration": 166}, {"note": 0, "velocity": 0, "duration": 74}, {"note": 71, "velocity": 87, "duration": 193}, {"note": 69, "velocity": 83, "duration": 77}, {"note": 71, "velocity": 68, "duration": 79}, {"note": 69, "velocity": 93, "duration": 758}, {"note": 0, "velocity": 0, "duration": 202}, {"note": 71, "velocity": 93, "duration": 361}, {"note": 0, "velocity": 0, "duration": 119}, {"note": 69, "velocity": 85, "duration": 170}, {"note": 0, "velocity": 0, "duration": 70}, {"note": 71, "velocity": 80, "duration": 179}, {"note": 0, "velocity": 0, "duration": 61}, {"note": 69, "velocity": 90, "duration": 189}, {"note": 64, "velocity": 87, "duration": 224}, {"note": 67, "velocity": 80, "duration": 193}, {"note": 66, "velocity": 80, "duration": 197}, {"note": 64, "velocity": 90, "duration": 1553}, {"note": 0, "velocity": 0, "duration": 367}, {"note": 69, "velocity": 93, "duration": 372}, {"note": 0, "velocity": 0, "duration": 108}, {"note": 71, "velocity": 90, "duration": 162}, {"note": 0, "velocity": 0, "duration": 78}, {"note": 69, "velocity": 93, "duration": 173}, {"note": 0, "velocity": 0, "duration": 67}, {"note": 57, "velocity": 95, "duration": 344}, {"note": 0, "velocity": 0, "duration": 136}, {"note": 57, "velocity": 85, "duration": 403}, {"note": 0, "velocity": 0, "duration": 77}, {"note": 62, "velocity": 87, "duration": 179}, {"note": 0, "velocity": 0, "duration": 61}, {"note": 62, "velocity": 87, "duration": 202}, {"note": 60, "velocity": 80, "duration": 197}, {"note": 62, "velocity": 87, "duration": 173}, {"note": 0, "velocity": 0, "duration": 67}, {"note": 64, "velocity": 90, "duration": 772}, {"note": 0, "velocity": 0, "duration": 188}, {"note": 67, "velocity": 87, "duration": 415}, {"note": 0, "velocity": 0, "duration": 65}, {"note": 64, "velocity": 95, "duration": 157}, {"note": 0, "velocity": 0, "duration": 83}, {"note": 62, "velocity": 80, "duration": 181}, {"note": 60, "velocity": 80, "duration": 390}, {"note": 0, "velocity": 0, "duration": 90}, {"note": 62, "velocity": 83, "duration": 175}, {"note": 0, "velocity": 0, "duration": 65}, {"note": 59, "velocity": 74, "duration": 235}, {"note": 57, "velocity": 87, "duration": 1544}, {"note": 0, "velocity": 0, "duration": 376}, {"note": 69, "velocity": 102, "duration": 438}, {"note": 71, "velocity": 93, "duration": 172}, {"note": 0, "velocity": 0, "duration": 68}, {"note": 69, "velocity": 102, "duration": 202}, {"note": 67, "velocity": 93, "duration": 468}, {"note": 64, "velocity": 102, "duration": 386}, {"note": 0, "velocity": 0, "duration": 94}, {"note": 69, "velocity": 102, "duration": 438}, {"note": 71, "velocity": 93, "duration": 172}, {"note": 0, "velocity": 0, "duration": 68}, {"note": 69, "velocity": 102, "duration": 202}, {"note": 67, "velocity": 93, "duration": 468}, {"note": 64, "velocity": 102, "duration": 386}, {"note": 0, "velocity": 0, "duration": 94}, {"note": 67, "velocity": 93, "duration": 374}, {"note": 0, "velocity": 0, "duration": 106}, {"note": 67, "velocity": 80, "duration": 197}, {"note": 64, "velocity": 87, "duration": 196}, {"note": 62, "velocity": 93, "duration": 202}, {"note": 64, "velocity": 93, "duration": 190}, {"note": 66, "velocity": 80, "duration": 448}, {"note": 64, "velocity": 102, "duration": 1496}, {"note": 0, "velocity": 0, "duration": 424}, {"note": 57, "velocity": 93, "duration": 374}, {"note": 0, "velocity": 0, "duration": 106}, {"note": 57, "velocity": 87, "duration": 175}, {"note": 0, "velocity": 0, "duration": 65}, {"note": 57, "velocity": 87, "duration": 159}, {"note": 0, "velocity": 0, "duration": 81}, {"note": 62, "velocity": 87, "duration": 404}, {"note": 0, "velocity": 0, "duration": 76}, {"note": 62, "velocity": 87, "duration": 457}, {"note": 60, "velocity": 87, "duration": 198}, {"note": 62, "velocity": 87, "duration": 173}, {"note": 0, "velocity": 0, "duration": 67}, {"note": 64, "velocity": 93, "duration": 232}, {"note": 62, "velocity": 69, "duration": 121}, {"note": 64, "velocity": 74, "duration": 117}, {"note": 62, "velocity": 87, "duration": 787}, {"note": 0, "velocity": 0, "duration": 173}, {"note": 64, "velocity": 93, "duration": 368}, {"note": 0, "velocity": 0, "duration": 112}, {"note": 62, "velocity": 80, "duration": 188}, {"note": 64, "velocity": 87, "duration": 182}, {"note": 62, "velocity": 83, "duration": 212}, {"note": 57, "velocity": 87, "duration": 221}, {"note": 60, "velocity": 87, "duration": 228}, {"note": 59, "velocity": 87, "duration": 243}, {"note": 57, "velocity": 83, "duration": 1860}, {"note": 69, "velocity": 102, "duration": 438}, {"note": 71, "velocity": 93, "duration": 172}, {"note": 0, "velocity": 0, "duration": 68}, {"note": 69, "velocity": 102, "duration": 202}, {"note": 67, "velocity": 93, "duration": 468}, {"note": 64, "velocity": 102, "duration": 386}, {"note": 0, "velocity": 0, "duration": 94}, {"note": 69, "velocity": 102, "duration": 438}, {"note": 71, "velocity": 93, "duration": 172}, {"note": 0, "velocity": 0, "duration": 68}, {"note": 69, "velocity": 102, "duration": 202}, {"note": 67, "velocity": 93, "duration": 468}, {"note": 64, "velocity": 102, "duration": 386}, {"note": 0, "velocity": 0, "duration": 94}, {"note": 67, "velocity": 93, "duration": 374}, {"note": 0, "velocity": 0, "duration": 106}, {"note": 67, "velocity": 80, "duration": 197}, {"note": 64, "velocity": 87, "duration": 196}, {"note": 62, "velocity": 93, "duration": 202}, {"note": 64, "velocity": 93, "duration": 190}, {"note": 66, "velocity": 80, "duration": 448}, {"note": 64, "velocity": 102, "duration": 1496}, {"note": 0, "velocity": 0, "duration": 424}, {"note": 57, "velocity": 93, "duration": 374}, {"note": 0, "velocity": 0, "duration": 106}, {"note": 57, "velocity": 87, "duration": 175}, {"note": 0, "velocity": 0, "duration": 65}, {"note": 57, "velocity": 87, "duration": 159}, {"note": 0, "velocity": 0, "duration": 81}, {"note": 62, "velocity": 87, "duration": 404}, {"note": 0, "velocity": 0, "duration": 76}, {"note": 62, "velocity": 87, "duration": 457}, {"note": 60, "velocity": 87, "duration": 198}, {"note": 62, "velocity": 87, "duration": 173}, {"note": 0, "velocity": 0, "duration": 67}, {"note": 64, "velocity": 93, "duration": 232}, {"note": 62, "velocity": 69, "duration": 121}, {"note": 64, "velocity": 74, "duration": 117}, {"note": 62, "velocity": 87, "duration": 787}, {"note": 0, "velocity": 0, "duration": 173}, {"note": 64, "velocity": 93, "duration": 368}, {"note": 0, "velocity": 0, "duration": 112}, {"note": 62, "velocity": 80, "duration": 188}, {"note": 64, "velocity": 87, "duration": 182}, {"note": 62, "velocity": 83, "duration": 212}, {"note": 57, "velocity": 87, "duration": 221}, {"note": 60, "velocity": 87, "duration": 228}, {"note": 59, "velocity": 87, "duration": 243}, {"note": 57, "velocity": 83, "duration": 1860}, {"note": 57, "velocity": 93, "duration": 374}, {"note": 0, "velocity": 0, "duration": 106}, {"note": 57, "velocity": 87, "duration": 175}, {"note": 0, "velocity": 0, "duration": 65}, {"note": 57, "velocity": 87, "duration": 159}, {"note": 0, "velocity": 0, "duration": 81}, {"note": 62, "velocity": 87, "duration": 404}, {"note": 0, "velocity": 0, "duration": 76}, {"note": 62, "velocity": 87, "duration": 457}, {"note": 60, "velocity": 87, "duration": 198}, {"note": 62, "velocity": 87, "duration": 173}, {"note": 0, "velocity": 0, "duration": 67}, {"note": 64, "velocity": 93, "duration": 232}, {"note": 62, "velocity": 69, "duration": 121}, {"note": 64, "velocity": 74, "duration": 117}, {"note": 62, "velocity": 87, "duration": 787}, {"note": 0, "velocity": 0, "duration": 171}, {"note": 64, "velocity": 87, "duration": 568}, {"note": 62, "velocity": 69, "duration": 295}, {"note": 64, "velocity": 74, "duration": 326}, {"note": 62, "velocity": 87, "duration": 309}, {"note": 57, "velocity": 87, "duration": 290}, {"note": 60, "velocity": 93, "duration": 280}, {"note": 59, "velocity": 87, "duration": 270}, {"note": 57, "velocity": 93, "duration": 1855}]]