[[{"note": 61, "velocity": 117, "duration": 155}, {"note": 0, "velocity": 0, "duration": 85}, {"note": 61, "velocity": 107, "duration": 192}, {"note": 60, "velocity": 99, "duration": 155}, {"note": 0, "velocity": 0, "duration": 85}, {"note": 58, "velocity": 97, "duration": 183}, {"note": 56, "velocity": 85, "duration": 164}, {"note": 0, "velocity": 0, "duration": 76}, {"note": 54, "velocity": 93, "duration": 346}, {"note": 0, "velocity": 0, "duration": 134}, {"note": 61, "velocity": 100, "duration": 135}, {"note": 0, "velocity": 0, "duration": 105}, {"note": 61, "velocity": 112, "duration": 810}, {"note": 0, "velocity": 0, "duration": 1110}, {"note": 60, "velocity": 100, "duration": 146}, {"note": 0, "velocity": 0, "duration": 94}, {"note": 60, "velocity": 100, "duration": 214}, {"note": 58, "velocity": 88, "duration": 174}, {"note": 0, "velocity": 0, "duration": 66}, {"note": 56, "velocity": 90, "duration": 193}, {"note": 54, "velocity": 81, "duration": 164}, {"note": 0, "velocity": 0, "duration": 76}, {"note": 53, "velocity": 85, "duration": 378}, {"note": 0, "velocity": 0, "duration": 102}, {"note": 60, "velocity": 112, "duration": 80}, {"note": 0, "velocity": 0, "duration": 160}, {"note": 60, "velocity": 117, "duration": 345}, {"note": 0, "velocity": 0, "duration": 135}, {"note": 58, "velocity": 93, "duration": 110}, {"note": 56, "velocity": 83, "duration": 603}, {"note": 0, "velocity": 0, "duration": 717}, {"note": 58, "velocity": 112, "duration": 158}, {"note": 0, "velocity": 0, "duration": 82}, {"note": 58, "velocity": 100, "duration": 205}, {"note": 56, "velocity": 83, "duration": 152}, {"note": 0, "velocity": 0, "duration": 88}, {"note": 54, "velocity": 90, "duration": 169}, {"note": 0, "velocity": 0, "duration": 71}, {"note": 53, "velocity": 88, "duration": 168}, {"note": 0, "velocity": 0, "duration": 72}, {"note": 51, "velocity": 92, "duration": 414}, {"note": 0, "velocity": 0, "duration": 306}, {"note": 53, "velocity": 96, "duration": 344}, {"note": 0, "velocity": 0, "duration": 136}, {"note": 49, "velocity": 95, "duration": 151}, {"note": 0, "velocity": 0, "duration": 329}, {"note": 51, "velocity": 89, "duration": 140}, {"note": 0, "velocity": 0, "duration": 100}, {"note": 53, "velocity": 93, "duration": 180}, {"note": 54, "velocity": 79, "duration": 100}, {"note": 53, "velocity": 88, "duration": 1303}, {"note": 0, "velocity": 0, "duration": 2897}, {"note": 61, "velocity": 117, "duration": 155}, {"note": 0, "velocity": 0, "duration": 85}, {"note": 61, "velocity": 107, "duration": 192}, {"note": 60, "velocity": 99, "duration": 155}, {"note": 0, "velocity": 0, "duration": 85}, {"note": 58, "velocity": 97, "duration": 183}, {"note": 56, "velocity": 85, "duration": 164}, {"note": 0, "velocity": 0, "duration": 76}, {"note": 54, "velocity": 93, "duration": 346}, {"note": 0, "velocity": 0, "duration": 134}, {"note": 61, "velocity": 100, "duration": 135}, {"note": 0, "velocity": 0, "duration": 105}, {"note": 61, "velocity": 112, "duration": 810}, {"note": 0, "velocity": 0, "duration": 1110}, {"note": 60, "velocity": 100, "duration": 146}, {"note": 0, "velocity": 0, "duration": 94}, {"note": 60, "velocity": 100, "duration": 214}, {"note": 58, "velocity": 88, "duration": 174}, {"note": 0, "velocity": 0, "duration": 66}, {"note": 56, "velocity": 90, "duration": 193}, {"note": 54, "velocity": 81, "duration": 164}, {"note": 0, "velocity": 0, "duration": 76}, {"note": 53, "velocity": 85, "duration": 378}, {"note": 0, "velocity": 0, "duration": 102}, {"note": 60, "velocity": 112, "duration": 80}, {"note": 0, "velocity": 0, "duration": 160}, {"note": 60, "velocity": 117, "duration": 345}, {"note": 0, "velocity": 0, "duration": 135}, {"note": 58, "velocity": 93, "duration": 110}, {"note": 56, "velocity": 83, "duration": 603}, {"note": 0, "velocity": 0, "duration": 717}, {"note": 58, "velocity": 112, "duration": 158}, {"note": 0, "velocity": 0, "duration": 82}, {"note": 58, "velocity": 100, "duration": 205}, {"note": 56, "velocity": 83, "duration": 152}, {"note": 0, "velocity": 0, "duration": 88}, {"note": 54, "velocity": 90, "duration": 169}, {"note": 0, "velocity": 0, "duration": 71}, {"note": 53, "velocity": 88, "duration": 168}, {"note": 0, "velocity": 0, "duration": 72}, {"note": 51, "velocity": 92, "duration": 414}, {"note": 0, "velocity": 0, "duration": 66}, {"note": 61, "velocity": 99, "duration": 143}, {"note": 0, "velocity": 0, "duration": 97}, {"note": 60, "velocity": 89, "duration": 419}, {"note": 0, "velocity": 0, "duration": 301}, {"note": 57, "velocity": 95, "duration": 231}, {"note": 58, "velocity": 79, "duration": 1200}, {"note": 0, "velocity": 0, "duration": 1680}, {"note": 58, "velocity": 99, "duration": 129}, {"note": 0, "velocity": 0, "duration": 111}, {"note": 58, "velocity": 100, "duration": 170}, {"note": 0, "velocity": 0, "duration": 70}, {"note": 60, "velocity": 93, "duration": 173}, {"note": 0, "velocity": 0, "duration": 67}, {"note": 61, "velocity": 112, "duration": 183}, {"note": 68, "velocity": 96, "duration": 134}, {"note": 0, "velocity": 0, "duration": 106}, {"note": 68, "velocity": 99, "duration": 359}, {"note": 66, "velocity": 95, "duration": 364}, {"note": 0, "velocity": 0, "duration": 116}, {"note": 66, "velocity": 107, "duration": 107}, {"note": 0, "velocity": 0, "duration": 133}, {"note": 66, "velocity": 102, "duration": 155}, {"note": 0, "velocity": 0, "duration": 85}, {"note": 65, "velocity": 107, "duration": 204}, {"note": 63, "velocity": 100, "duration": 151}, {"note": 0, "velocity": 0, "duration": 89}, {"note": 65, "velocity": 96, "duration": 138}, {"note": 0, "velocity": 0, "duration": 102}, {"note": 56, "velocity": 100, "duration": 316}, {"note": 0, "velocity": 0, "duration": 404}, {"note": 56, "velocity": 90, "duration": 141}, {"note": 0, "velocity": 0, "duration": 99}, {"note": 56, "velocity": 89, "duration": 153}, {"note": 0, "velocity": 0, "duration": 87}, {"note": 58, "velocity": 97, "duration": 165}, {"note": 0, "velocity": 0, "duration": 75}, {"note": 60, "velocity": 93, "duration": 185}, {"note": 66, "velocity": 100, "duration": 78}, {"note": 0, "velocity": 0, "duration": 162}, {"note": 66, "velocity": 97, "duration": 215}, {"note": 65, "velocity": 92, "duration": 309}, {"note": 0, "velocity": 0, "duration": 171}, {"note": 65, "velocity": 96, "duration": 147}, {"note": 0, "velocity": 0, "duration": 93}, {"note": 65, "velocity": 107, "duration": 146}, {"note": 0, "velocity": 0, "duration": 94}, {"note": 63, "velocity": 100, "duration": 144}, {"note": 0, "velocity": 0, "duration": 96}, {"note": 61, "velocity": 102, "duration": 154}, {"note": 0, "velocity": 0, "duration": 86}, {"note": 63, "velocity": 97, "duration": 123}, {"note": 0, "velocity": 0, "duration": 117}, {"note": 61, "velocity": 96, "duration": 225}, {"note": 58, "velocity": 74, "duration": 380}, {"note": 0, "velocity": 0, "duration": 100}, {"note": 58, "velocity": 99, "duration": 88}, {"note": 0, "velocity": 0, "duration": 152}, {"note": 58, "velocity": 96, "duration": 179}, {"note": 0, "velocity": 0, "duration": 61}, {"note": 60, "velocity": 78, "duration": 130}, {"note": 0, "velocity": 0, "duration": 110}, {"note": 61, "velocity": 96, "duration": 128}, {"note": 0, "velocity": 0, "duration": 112}, {"note": 58, "velocity": 96, "duration": 137}, {"note": 0, "velocity": 0, "duration": 103}, {"note": 63, "velocity": 100, "duration": 788}, {"note": 0, "velocity": 0, "duration": 172}, {"note": 63, "velocity": 122, "duration": 177}, {"note": 0, "velocity": 0, "duration": 63}, {"note": 61, "velocity": 100, "duration": 171}, {"note": 0, "velocity": 0, "duration": 69}, {"note": 60, "velocity": 102, "duration": 163}, {"note": 0, "velocity": 0, "duration": 77}, {"note": 58, "velocity": 92, "duration": 188}, {"note": 57, "velocity": 102, "duration": 281}, {"note": 0, "velocity": 0, "duration": 199}, {"note": 66, "velocity": 117, "duration": 104}, {"note": 0, "velocity": 0, "duration": 136}, {"note": 65, "velocity": 122, "duration": 310}, {"note": 0, "velocity": 0, "duration": 410}, {"note": 60, "velocity": 102, "duration": 184}, {"note": 63, "velocity": 100, "duration": 361}, {"note": 0, "velocity": 0, "duration": 119}, {"note": 65, "velocity": 117, "duration": 668}, {"note": 0, "velocity": 0, "duration": 1012}, {"note": 58, "velocity": 117, "duration": 347}, {"note": 0, "velocity": 0, "duration": 133}, {"note": 60, "velocity": 112, "duration": 357}, {"note": 0, "velocity": 0, "duration": 123}, {"note": 62, "velocity": 127, "duration": 306}, {"note": 0, "velocity": 0, "duration": 174}, {"note": 68, "velocity": 127, "duration": 335}, {"note": 0, "velocity": 0, "duration": 145}, {"note": 68, "velocity": 127, "duration": 277}, {"note": 66, "velocity": 102, "duration": 355}, {"note": 0, "velocity": 0, "duration": 125}, {"note": 66, "velocity": 122, "duration": 119}, {"note": 0, "velocity": 0, "duration": 121}, {"note": 66, "velocity": 122, "duration": 142}, {"note": 0, "velocity": 0, "duration": 98}, {"note": 65, "velocity": 127, "duration": 142}, {"note": 0, "velocity": 0, "duration": 98}, {"note": 63, "velocity": 112, "duration": 162}, {"note": 0, "velocity": 0, "duration": 78}, {"note": 65, "velocity": 117, "duration": 144}, {"note": 0, "velocity": 0, "duration": 96}, {"note": 56, "velocity": 107, "duration": 279}, {"note": 0, "velocity": 0, "duration": 441}, {"note": 56, "velocity": 102, "duration": 128}, {"note": 0, "velocity": 0, "duration": 112}, {"note": 56, "velocity": 102, "duration": 183}, {"note": 58, "velocity": 122, "duration": 186}, {"note": 60, "velocity": 122, "duration": 135}, {"note": 0, "velocity": 0, "duration": 105}, {"note": 66, "velocity": 112, "duration": 154}, {"note": 0, "velocity": 0, "duration": 86}, {"note": 66, "velocity": 127, "duration": 301}, {"note": 65, "velocity": 122, "duration": 327}, {"note": 0, "velocity": 0, "duration": 153}, {"note": 65, "velocity": 122, "duration": 117}, {"note": 0, "velocity": 0, "duration": 123}, {"note": 65, "velocity": 122, "duration": 153}, {"note": 0, "velocity": 0, "duration": 87}, {"note": 63, "velocity": 112, "duration": 139}, {"note": 0, "velocity": 0, "duration": 101}, {"note": 61, "velocity": 102, "duration": 147}, {"note": 0, "velocity": 0, "duration": 93}, {"note": 63, "velocity": 112, "duration": 162}, {"note": 0, "velocity": 0, "duration": 78}, {"note": 61, "velocity": 112, "duration": 129}, {"note": 60, "velocity": 97, "duration": 84}, {"note": 58, "velocity": 93, "duration": 345}, {"note": 0, "velocity": 0, "duration": 135}, {"note": 58, "velocity": 100, "duration": 142}, {"note": 0, "velocity": 0, "duration": 98}, {"note": 58, "velocity": 95, "duration": 182}, {"note": 60, "velocity": 97, "duration": 173}, {"note": 0, "velocity": 0, "duration": 67}, {"note": 61, "velocity": 99, "duration": 161}, {"note": 0, "velocity": 0, "duration": 79}, {"note": 58, "velocity": 112, "duration": 185}, {"note": 63, "velocity": 112, "duration": 297}, {"note": 0, "velocity": 0, "duration": 663}, {"note": 63, "velocity": 122, "duration": 134}, {"note": 0, "velocity": 0, "duration": 106}, {"note": 61, "velocity": 122, "duration": 135}, {"note": 0, "velocity": 0, "duration": 105}, {"note": 60, "velocity": 127, "duration": 139}, {"note": 0, "velocity": 0, "duration": 101}, {"note": 58, "velocity": 100, "duration": 163}, {"note": 0, "velocity": 0, "duration": 77}, {"note": 57, "velocity": 117, "duration": 322}, {"note": 0, "velocity": 0, "duration": 638}, {"note": 60, "velocity": 112, "duration": 210}, {"note": 0, "velocity": 0, "duration": 150}, {"note": 61, "velocity": 117, "duration": 265}, {"note": 0, "velocity": 0, "duration": 95}, {"note": 60, "velocity": 102, "duration": 171}, {"note": 0, "velocity": 0, "duration": 69}, {"note": 60, "velocity": 100, "duration": 462}, {"note": 61, "velocity": 89, "duration": 102}, {"note": 60, "velocity": 63, "duration": 109}, {"note": 58, "velocity": 100, "duration": 1164}, {"note": 0, "velocity": 0, "duration": 18036}, {"note": 61, "velocity": 117, "duration": 155}, {"note": 0, "velocity": 0, "duration": 85}, {"note": 61, "velocity": 107, "duration": 192}, {"note": 60, "velocity": 99, "duration": 155}, {"note": 0, "velocity": 0, "duration": 85}, {"note": 58, "velocity": 97, "duration": 183}, {"note": 56, "velocity": 85, "duration": 164}, {"note": 0, "velocity": 0, "duration": 76}, {"note": 54, "velocity": 93, "duration": 346}, {"note": 0, "velocity": 0, "duration": 134}, {"note": 61, "velocity": 100, "duration": 135}, {"note": 0, "velocity": 0, "duration": 105}, {"note": 61, "velocity": 112, "duration": 810}, {"note": 0, "velocity": 0, "duration": 1110}, {"note": 60, "velocity": 100, "duration": 146}, {"note": 0, "velocity": 0, "duration": 94}, {"note": 60, "velocity": 100, "duration": 214}, {"note": 58, "velocity": 88, "duration": 174}, {"note": 0, "velocity": 0, "duration": 66}, {"note": 56, "velocity": 90, "duration": 193}, {"note": 54, "velocity": 81, "duration": 164}, {"note": 0, "velocity": 0, "duration": 76}, {"note": 53, "velocity": 85, "duration": 378}, {"note": 0, "velocity": 0, "duration": 102}, {"note": 60, "velocity": 112, "duration": 80}, {"note": 0, "velocity": 0, "duration": 160}, {"note": 60, "velocity": 117, "duration": 345}, {"note": 0, "velocity": 0, "duration": 135}, {"note": 58, "velocity": 93, "duration": 110}, {"note": 56, "velocity": 83, "duration": 603}, {"note": 0, "velocity": 0, "duration": 717}, {"note": 58, "velocity": 112, "duration": 158}, {"note": 0, "velocity": 0, "duration": 82}, {"note": 58, "velocity": 100, "duration": 205}, {"note": 56, "velocity": 83, "duration": 152}, {"note": 0, "velocity": 0, "duration": 88}, {"note": 54, "velocity": 90, "duration": 169}, {"note": 0, "velocity": 0, "duration": 71}, {"note": 53, "velocity": 88, "duration": 168}, {"note": 0, "velocity": 0, "duration": 72}, {"note": 51, "velocity": 92, "duration": 414}, {"note": 0, "velocity": 0, "duration": 66}, {"note": 61, "velocity": 99, "duration": 143}, {"note": 0, "velocity": 0, "duration": 97}, {"note": 60, "velocity": 89, "duration": 419}, {"note": 0, "velocity": 0, "duration": 301}, {"note": 57, "velocity": 95, "duration": 231}, {"note": 58, "velocity": 79, "duration": 1200}, {"note": 0, "velocity": 0, "duration": 1680}, {"note": 58, "velocity": 99, "duration": 129}, {"note": 0, "velocity": 0, "duration": 111}, {"note": 58, "velocity": 100, "duration": 170}, {"note": 0, "velocity": 0, "duration": 70}, {"note": 60, "velocity": 93, "duration": 173}, {"note": 0, "velocity": 0, "duration": 67}, {"note": 61, "velocity": 112, "duration": 183}, {"note": 68, "velocity": 96, "duration": 134}, {"note": 0, "velocity": 0, "duration": 106}, {"note": 68, "velocity": 99, "duration": 359}, {"note": 66, "velocity": 95, "duration": 364}, {"note": 0, "velocity": 0, "duration": 116}, {"note": 66, "velocity": 107, "duration": 107}, {"note": 0, "velocity": 0, "duration": 133}, {"note": 66, "velocity": 102, "duration": 155}, {"note": 0, "velocity": 0, "duration": 85}, {"note": 65, "velocity": 107, "duration": 204}, {"note": 63, "velocity": 100, "duration": 151}, {"note": 0, "velocity": 0, "duration": 89}, {"note": 65, "velocity": 96, "duration": 138}, {"note": 0, "velocity": 0, "duration": 102}, {"note": 56, "velocity": 100, "duration": 316}, {"note": 0, "velocity": 0, "duration": 404}, {"note": 56, "velocity": 90, "duration": 141}, {"note": 0, "velocity": 0, "duration": 99}, {"note": 56, "velocity": 89, "duration": 153}, {"note": 0, "velocity": 0, "duration": 87}, {"note": 58, "velocity": 97, "duration": 165}, {"note": 0, "velocity": 0, "duration": 75}, {"note": 60, "velocity": 93, "duration": 185}, {"note": 66, "velocity": 100, "duration": 78}, {"note": 0, "velocity": 0, "duration": 162}, {"note": 66, "velocity": 97, "duration": 215}, {"note": 65, "velocity": 92, "duration": 309}, {"note": 0, "velocity": 0, "duration": 171}, {"note": 65, "velocity": 96, "duration": 147}, {"note": 0, "velocity": 0, "duration": 93}, {"note": 65, "velocity": 107, "duration": 146}, {"note": 0, "velocity": 0, "duration": 94}, {"note": 63, "velocity": 100, "duration": 144}, {"note": 0, "velocity": 0, "duration": 96}, {"note": 61, "velocity": 102, "duration": 154}, {"note": 0, "velocity": 0, "duration": 86}, {"note": 63, "velocity": 97, "duration": 123}, {"note": 0, "velocity": 0, "duration": 117}, {"note": 61, "velocity": 96, "duration": 225}, {"note": 58, "velocity": 74, "duration": 380}, {"note": 0, "velocity": 0, "duration": 100}, {"note": 58, "velocity": 99, "duration": 88}, {"note": 0, "velocity": 0, "duration": 152}, {"note": 58, "velocity": 96, "duration": 179}, {"note": 0, "velocity": 0, "duration": 61}, {"note": 60, "velocity": 78, "duration": 130}, {"note": 0, "velocity": 0, "duration": 110}, {"note": 61, "velocity": 96, "duration": 128}, {"note": 0, "velocity": 0, "duration": 112}, {"note": 58, "velocity": 96, "duration": 137}, {"note": 0, "velocity": 0, "duration": 103}, {"note": 63, "velocity": 100, "duration": 788}, {"note": 0, "velocity": 0, "duration": 172}, {"note": 63, "velocity": 122, "duration": 177}, {"note": 0, "velocity": 0, "duration": 63}, {"note": 61, "velocity": 100, "duration": 171}, {"note": 0, "velocity": 0, "duration": 69}, {"note": 60, "velocity": 102, "duration": 163}, {"note": 0, "velocity": 0, "duration": 77}, {"note": 58, "velocity": 92, "duration": 188}, {"note": 57, "velocity": 102, "duration": 281}, {"note": 0, "velocity": 0, "duration": 199}, {"note": 66, "velocity": 117, "duration": 104}, {"note": 0, "velocity": 0, "duration": 136}, {"note": 65, "velocity": 122, "duration": 310}, {"note": 0, "velocity": 0, "duration": 410}, {"note": 60, "velocity": 102, "duration": 184}, {"note": 63, "velocity": 100, "duration": 361}, {"note": 0, "velocity": 0, "duration": 119}, {"note": 65, "velocity": 117, "duration": 668}, {"note": 0, "velocity": 0, "duration": 1012}, {"note": 58, "velocity": 117, "duration": 347}, {"note": 0, "velocity": 0, "duration": 133}, {"note": 60, "velocity": 112, "duration": 357}, {"note": 0, "velocity": 0, "duration": 123}, {"note": 62, "velocity": 127, "duration": 306}, {"note": 0, "velocity": 0, "duration": 174}, {"note": 68, "velocity": 127, "duration": 335}, {"note": 0, "velocity": 0, "duration": 145}, {"note": 68, "velocity": 127, "duration": 277}, {"note": 66, "velocity": 102, "duration": 355}, {"note": 0, "velocity": 0, "duration": 125}, {"note": 66, "velocity": 122, "duration": 119}, {"note": 0, "velocity": 0, "duration": 121}, {"note": 66, "velocity": 122, "duration": 142}, {"note": 0, "velocity": 0, "duration": 98}, {"note": 65, "velocity": 127, "duration": 142}, {"note": 0, "velocity": 0, "duration": 98}, {"note": 63, "velocity": 112, "duration": 162}, {"note": 0, "velocity": 0, "duration": 78}, {"note": 65, "velocity": 117, "duration": 144}, {"note": 0, "velocity": 0, "duration": 96}, {"note": 56, "velocity": 107, "duration": 279}, {"note": 0, "velocity": 0, "duration": 441}, {"note": 56, "velocity": 102, "duration": 128}, {"note": 0, "velocity": 0, "duration": 112}, {"note": 56, "velocity": 102, "duration": 183}, {"note": 58, "velocity": 122, "duration": 186}, {"note": 60, "velocity": 122, "duration": 135}, {"note": 0, "velocity": 0, "duration": 105}, {"note": 66, "velocity": 112, "duration": 154}, {"note": 0, "velocity": 0, "duration": 86}, {"note": 66, "velocity": 127, "duration": 301}, {"note": 65, "velocity": 122, "duration": 327}, {"note": 0, "velocity": 0, "duration": 153}, {"note": 65, "velocity": 122, "duration": 117}, {"note": 0, "velocity": 0, "duration": 123}, {"note": 65, "velocity": 122, "duration": 153}, {"note": 0, "velocity": 0, "duration": 87}, {"note": 63, "velocity": 112, "duration": 139}, {"note": 0, "velocity": 0, "duration": 101}, {"note": 61, "velocity": 102, "duration": 147}, {"note": 0, "velocity": 0, "duration": 93}, {"note": 63, "velocity": 112, "duration": 162}, {"note": 0, "velocity": 0, "duration": 78}, {"note": 61, "velocity": 112, "duration": 129}, {"note": 60, "velocity": 97, "duration": 84}, {"note": 58, "velocity": 93, "duration": 345}, {"note": 0, "velocity": 0, "duration": 135}, {"note": 58, "velocity": 100, "duration": 142}, {"note": 0, "velocity": 0, "duration": 98}, {"note": 58, "velocity": 95, "duration": 182}, {"note": 60, "velocity": 97, "duration": 173}, {"note": 0, "velocity": 0, "duration": 67}, {"note": 61, "velocity": 99, "duration": 161}, {"note": 0, "velocity": 0, "duration": 79}, {"note": 58, "velocity": 112, "duration": 185}, {"note": 63, "velocity": 112, "duration": 297}, {"note": 0, "velocity": 0, "duration": 663}, {"note": 63, "velocity": 122, "duration": 134}, {"note": 0, "velocity": 0, "duration": 106}, {"note": 61, "velocity": 122, "duration": 135}, {"note": 0, "velocity": 0, "duration": 105}, {"note": 60, "velocity": 127, "duration": 139}, {"note": 0, "velocity": 0, "duration": 101}, {"note": 58, "velocity": 100, "duration": 163}, {"note": 0, "velocity": 0, "duration": 77}, {"note": 57, "velocity": 117, "duration": 322}, {"note": 0, "velocity": 0, "duration": 638}, {"note": 60, "velocity": 112, "duration": 210}, {"note": 0, "velocity": 0, "duration": 150}, {"note": 61, "velocity": 117, "duration": 265}, {"note": 0, "velocity": 0, "duration": 95}, {"note": 60, "velocity": 102, "duration": 171}, {"note": 0, "velocity": 0, "duration": 69}, {"note": 60, "velocity": 100, "duration": 462}, {"note": 61, "velocity": 89, "duration": 102}, {"note": 60, "velocity": 63, "duration": 109}, {"note": 58, "velocity": 100, "duration": 1164}, {"note": 0, "velocity": 0, "duration": 2196}, {"note": 66, "velocity": 93, "duration": 151}, {"note": 0, "velocity": 0, "duration": 89}, {"note": 66, "velocity": 100, "duration": 152}, {"note": 0, "velocity": 0, "duration": 88}, {"note": 66, "velocity": 100, "duration": 133}, {"note": 0, "velocity": 0, "duration": 107}, {"note": 66, "velocity": 102, "duration": 144}, {"note": 0, "velocity": 0, "duration": 96}, {"note": 65, "velocity": 100, "duration": 140}, {"note": 0, "velocity": 0, "duration": 100}, {"note": 63, "velocity": 99, "duration": 167}, {"note": 0, "velocity": 0, "duration": 73}, {"note": 61, "velocity": 97, "duration": 149}, {"note": 0, "velocity": 0, "duration": 91}, {"note": 60, "velocity": 102, "duration": 307}, {"note": 0, "velocity": 0, "duration": 653}, {"note": 60, "velocity": 102, "duration": 189}, {"note": 61, "velocity": 117, "duration": 159}, {"note": 0, "velocity": 0, "duration": 81}, {"note": 63, "velocity": 102, "duration": 160}, {"note": 0, "velocity": 0, "duration": 80}, {"note": 66, "velocity": 127, "duration": 203}, {"note": 0, "velocity": 0, "duration": 277}, {"note": 65, "velocity": 112, "duration": 112}, {"note": 0, "velocity": 0, "duration": 128}, {"note": 65, "velocity": 112, "duration": 125}, {"note": 0, "velocity": 0, "duration": 115}, {"note": 65, "velocity": 112, "duration": 113}, {"note": 0, "velocity": 0, "duration": 127}, {"note": 65, "velocity": 102, "duration": 136}, {"note": 0, "velocity": 0, "duration": 104}, {"note": 63, "velocity": 127, "duration": 149}, {"note": 0, "velocity": 0, "duration": 91}, {"note": 61, "velocity": 100, "duration": 157}, {"note": 0, "velocity": 0, "duration": 83}, {"note": 60, "velocity": 97, "duration": 155}, {"note": 0, "velocity": 0, "duration": 85}, {"note": 58, "velocity": 96, "duration": 661}]]