[[{"note": 65, "velocity": 93, "duration": 118}, {"note": 67, "velocity": 93, "duration": 83}, {"note": 0, "velocity": 0, "duration": 75}, {"note": 65, "velocity": 103, "duration": 74}, {"note": 0, "velocity": 0, "duration": 89}, {"note": 67, "velocity": 93, "duration": 296}, {"note": 70, "velocity": 102, "duration": 625}, {"note": 0, "velocity": 0, "duration": 476}, {"note": 72, "velocity": 85, "duration": 91}, {"note": 0, "velocity": 0, "duration": 65}, {"note": 72, "velocity": 90, "duration": 91}, {"note": 70, "velocity": 87, "duration": 100}, {"note": 72, "velocity": 95, "duration": 311}, {"note": 67, "velocity": 87, "duration": 359}, {"note": 70, "velocity": 102, "duration": 60}, {"note": 0, "velocity": 0, "duration": 91}, {"note": 72, "velocity": 93, "duration": 70}, {"note": 0, "velocity": 0, "duration": 89}, {"note": 74, "velocity": 102, "duration": 225}, {"note": 0, "velocity": 0, "duration": 82}, {"note": 74, "velocity": 93, "duration": 80}, {"note": 0, "velocity": 0, "duration": 79}, {"note": 74, "velocity": 102, "duration": 271}, {"note": 74, "velocity": 90, "duration": 77}, {"note": 0, "velocity": 0, "duration": 82}, {"note": 74, "velocity": 95, "duration": 235}, {"note": 0, "velocity": 0, "duration": 68}, {"note": 72, "velocity": 87, "duration": 146}, {"note": 0, "velocity": 0, "duration": 192}, {"note": 72, "velocity": 85, "duration": 89}, {"note": 0, "velocity": 0, "duration": 72}, {"note": 70, "velocity": 93, "duration": 83}, {"note": 0, "velocity": 0, "duration": 73}, {"note": 72, "velocity": 87, "duration": 257}, {"note": 67, "velocity": 87, "duration": 250}, {"note": 0, "velocity": 0, "duration": 78}, {"note": 67, "velocity": 85, "duration": 131}, {"note": 65, "velocity": 95, "duration": 87}, {"note": 0, "velocity": 0, "duration": 80}, {"note": 67, "velocity": 93, "duration": 364}, {"note": 0, "velocity": 0, "duration": 291}, {"note": 70, "velocity": 83, "duration": 95}, {"note": 72, "velocity": 93, "duration": 85}, {"note": 0, "velocity": 0, "duration": 80}, {"note": 74, "velocity": 70, "duration": 259}, {"note": 74, "velocity": 95, "duration": 229}, {"note": 0, "velocity": 0, "duration": 75}, {"note": 74, "velocity": 95, "duration": 160}, {"note": 72, "velocity": 74, "duration": 95}, {"note": 0, "velocity": 0, "duration": 72}, {"note": 72, "velocity": 83, "duration": 362}, {"note": 0, "velocity": 0, "duration": 151}, {"note": 72, "velocity": 95, "duration": 257}, {"note": 77, "velocity": 93, "duration": 97}, {"note": 0, "velocity": 0, "duration": 65}, {"note": 79, "velocity": 93, "duration": 315}, {"note": 74, "velocity": 80, "duration": 237}, {"note": 0, "velocity": 0, "duration": 89}, {"note": 74, "velocity": 95, "duration": 117}, {"note": 72, "velocity": 87, "duration": 90}, {"note": 0, "velocity": 0, "duration": 84}, {"note": 74, "velocity": 95, "duration": 336}, {"note": 0, "velocity": 0, "duration": 137}, {"note": 74, "velocity": 102, "duration": 119}, {"note": 72, "velocity": 87, "duration": 76}, {"note": 0, "velocity": 0, "duration": 67}, {"note": 70, "velocity": 87, "duration": 92}, {"note": 0, "velocity": 0, "duration": 70}, {"note": 74, "velocity": 93, "duration": 249}, {"note": 0, "velocity": 0, "duration": 67}, {"note": 72, "velocity": 90, "duration": 674}, {"note": 0, "velocity": 0, "duration": 478}, {"note": 70, "velocity": 102, "duration": 77}, {"note": 0, "velocity": 0, "duration": 67}, {"note": 70, "velocity": 102, "duration": 88}, {"note": 67, "velocity": 90, "duration": 85}, {"note": 0, "velocity": 0, "duration": 69}, {"note": 70, "velocity": 95, "duration": 168}, {"note": 67, "velocity": 71, "duration": 71}, {"note": 0, "velocity": 0, "duration": 74}, {"note": 65, "velocity": 87, "duration": 779}, {"note": 0, "velocity": 0, "duration": 1310}, {"note": 67, "velocity": 93, "duration": 118}, {"note": 67, "velocity": 93, "duration": 83}, {"note": 0, "velocity": 0, "duration": 75}, {"note": 65, "velocity": 103, "duration": 74}, {"note": 0, "velocity": 0, "duration": 89}, {"note": 67, "velocity": 93, "duration": 296}, {"note": 70, "velocity": 102, "duration": 625}, {"note": 0, "velocity": 0, "duration": 476}, {"note": 72, "velocity": 85, "duration": 91}, {"note": 0, "velocity": 0, "duration": 65}, {"note": 72, "velocity": 90, "duration": 91}, {"note": 70, "velocity": 87, "duration": 100}, {"note": 72, "velocity": 95, "duration": 311}, {"note": 67, "velocity": 87, "duration": 359}, {"note": 70, "velocity": 102, "duration": 60}, {"note": 0, "velocity": 0, "duration": 91}, {"note": 72, "velocity": 93, "duration": 70}, {"note": 0, "velocity": 0, "duration": 89}, {"note": 74, "velocity": 102, "duration": 225}, {"note": 0, "velocity": 0, "duration": 82}, {"note": 74, "velocity": 93, "duration": 80}, {"note": 0, "velocity": 0, "duration": 79}, {"note": 74, "velocity": 102, "duration": 271}, {"note": 74, "velocity": 90, "duration": 77}, {"note": 0, "velocity": 0, "duration": 82}, {"note": 72, "velocity": 95, "duration": 235}, {"note": 0, "velocity": 0, "duration": 68}, {"note": 72, "velocity": 87, "duration": 146}, {"note": 72, "velocity": 85, "duration": 221}, {"note": 0, "velocity": 0, "duration": 72}, {"note": 70, "velocity": 93, "duration": 83}, {"note": 0, "velocity": 0, "duration": 73}, {"note": 72, "velocity": 87, "duration": 257}, {"note": 67, "velocity": 87, "duration": 250}, {"note": 0, "velocity": 0, "duration": 78}, {"note": 67, "velocity": 85, "duration": 131}, {"note": 65, "velocity": 95, "duration": 87}, {"note": 0, "velocity": 0, "duration": 80}, {"note": 67, "velocity": 93, "duration": 364}, {"note": 0, "velocity": 0, "duration": 291}, {"note": 70, "velocity": 83, "duration": 95}, {"note": 72, "velocity": 93, "duration": 85}, {"note": 0, "velocity": 0, "duration": 80}, {"note": 74, "velocity": 70, "duration": 259}, {"note": 74, "velocity": 95, "duration": 131}, {"note": 74, "velocity": 95, "duration": 316}, {"note": 72, "velocity": 74, "duration": 95}, {"note": 0, "velocity": 0, "duration": 72}, {"note": 72, "velocity": 83, "duration": 316}, {"note": 72, "velocity": 100, "duration": 166}, {"note": 72, "velocity": 95, "duration": 257}, {"note": 77, "velocity": 93, "duration": 97}, {"note": 0, "velocity": 0, "duration": 65}, {"note": 79, "velocity": 93, "duration": 315}, {"note": 74, "velocity": 80, "duration": 237}, {"note": 0, "velocity": 0, "duration": 89}, {"note": 74, "velocity": 95, "duration": 117}, {"note": 72, "velocity": 87, "duration": 90}, {"note": 0, "velocity": 0, "duration": 84}, {"note": 74, "velocity": 95, "duration": 336}, {"note": 0, "velocity": 0, "duration": 137}, {"note": 74, "velocity": 102, "duration": 119}, {"note": 72, "velocity": 87, "duration": 76}, {"note": 0, "velocity": 0, "duration": 67}, {"note": 70, "velocity": 87, "duration": 92}, {"note": 0, "velocity": 0, "duration": 70}, {"note": 74, "velocity": 93, "duration": 249}, {"note": 0, "velocity": 0, "duration": 67}, {"note": 72, "velocity": 90, "duration": 674}, {"note": 0, "velocity": 0, "duration": 478}, {"note": 70, "velocity": 102, "duration": 77}, {"note": 0, "velocity": 0, "duration": 67}, {"note": 70, "velocity": 102, "duration": 88}, {"note": 67, "velocity": 90, "duration": 85}, {"note": 0, "velocity": 0, "duration": 75}, {"note": 72, "velocity": 80, "duration": 272}, {"note": 70, "velocity": 90, "duration": 1034}, {"note": 0, "velocity": 0, "duration": 1046}, {"note": 79, "velocity": 95, "duration": 242}, {"note": 0, "velocity": 0, "duration": 73}, {"note": 79, "velocity": 93, "duration": 71}, {"note": 0, "velocity": 0, "duration": 90}, {"note": 79, "velocity": 103, "duration": 245}, {"note": 0, "velocity": 0, "duration": 78}, {"note": 79, "velocity": 93, "duration": 96}, {"note": 0, "velocity": 0, "duration": 224}, {"note": 77, "velocity": 102, "duration": 104}, {"note": 74, "velocity": 93, "duration": 119}, {"note": 79, "velocity": 90, "duration": 260}, {"note": 77, "velocity": 102, "duration": 80}, {"note": 0, "velocity": 0, "duration": 93}, {"note": 77, "velocity": 110, "duration": 156}, {"note": 77, "velocity": 110, "duration": 155}, {"note": 74, "velocity": 85, "duration": 93}, {"note": 0, "velocity": 0, "duration": 66}, {"note": 79, "velocity": 83, "duration": 254}, {"note": 77, "velocity": 105, "duration": 596}, {"note": 0, "velocity": 0, "duration": 542}, {"note": 79, "velocity": 95, "duration": 218}, {"note": 0, "velocity": 0, "duration": 96}, {"note": 79, "velocity": 93, "duration": 69}, {"note": 0, "velocity": 0, "duration": 83}, {"note": 79, "velocity": 102, "duration": 243}, {"note": 0, "velocity": 0, "duration": 72}, {"note": 79, "velocity": 102, "duration": 243}, {"note": 0, "velocity": 0, "duration": 76}, {"note": 77, "velocity": 105, "duration": 133}, {"note": 74, "velocity": 102, "duration": 77}, {"note": 0, "velocity": 0, "duration": 76}, {"note": 79, "velocity": 102, "duration": 344}, {"note": 77, "velocity": 103, "duration": 450}, {"note": 74, "velocity": 80, "duration": 173}, {"note": 77, "velocity": 103, "duration": 533}, {"note": 0, "velocity": 0, "duration": 122}, {"note": 74, "velocity": 103, "duration": 82}, {"note": 0, "velocity": 0, "duration": 73}, {"note": 77, "velocity": 102, "duration": 78}, {"note": 0, "velocity": 0, "duration": 73}, {"note": 79, "velocity": 95, "duration": 403}, {"note": 0, "velocity": 0, "duration": 70}, {"note": 79, "velocity": 87, "duration": 275}, {"note": 0, "velocity": 0, "duration": 65}, {"note": 79, "velocity": 103, "duration": 127}, {"note": 81, "velocity": 93, "duration": 257}, {"note": 0, "velocity": 0, "duration": 70}, {"note": 81, "velocity": 95, "duration": 398}, {"note": 77, "velocity": 105, "duration": 115}, {"note": 82, "velocity": 93, "duration": 413}, {"note": 81, "velocity": 103, "duration": 451}, {"note": 79, "velocity": 105, "duration": 387}, {"note": 0, "velocity": 0, "duration": 108}, {"note": 74, "velocity": 102, "duration": 90}, {"note": 0, "velocity": 0, "duration": 67}, {"note": 72, "velocity": 95, "duration": 97}, {"note": 70, "velocity": 93, "duration": 99}, {"note": 0, "velocity": 0, "duration": 62}, {"note": 72, "velocity": 90, "duration": 274}, {"note": 0, "velocity": 0, "duration": 63}, {"note": 72, "velocity": 93, "duration": 342}, {"note": 0, "velocity": 0, "duration": 130}, {"note": 70, "velocity": 87, "duration": 99}, {"note": 0, "velocity": 0, "duration": 63}, {"note": 72, "velocity": 93, "duration": 236}, {"note": 0, "velocity": 0, "duration": 78}, {"note": 65, "velocity": 103, "duration": 99}, {"note": 0, "velocity": 0, "duration": 66}, {"note": 79, "velocity": 102, "duration": 79}, {"note": 0, "velocity": 0, "duration": 73}, {"note": 79, "velocity": 93, "duration": 91}, {"note": 0, "velocity": 0, "duration": 67}, {"note": 74, "velocity": 93, "duration": 102}, {"note": 79, "velocity": 102, "duration": 244}, {"note": 0, "velocity": 0, "duration": 102}, {"note": 77, "velocity": 105, "duration": 310}, {"note": 79, "velocity": 87, "duration": 165}, {"note": 77, "velocity": 103, "duration": 77}, {"note": 0, "velocity": 0, "duration": 91}, {"note": 77, "velocity": 102, "duration": 876}, {"note": 0, "velocity": 0, "duration": 551}, {"note": 67, "velocity": 93, "duration": 118}, {"note": 67, "velocity": 93, "duration": 83}, {"note": 0, "velocity": 0, "duration": 75}, {"note": 65, "velocity": 103, "duration": 74}, {"note": 0, "velocity": 0, "duration": 89}, {"note": 67, "velocity": 93, "duration": 296}, {"note": 70, "velocity": 102, "duration": 625}, {"note": 0, "velocity": 0, "duration": 476}, {"note": 72, "velocity": 85, "duration": 91}, {"note": 0, "velocity": 0, "duration": 65}, {"note": 72, "velocity": 90, "duration": 91}, {"note": 70, "velocity": 87, "duration": 100}, {"note": 72, "velocity": 95, "duration": 311}, {"note": 67, "velocity": 87, "duration": 359}, {"note": 70, "velocity": 102, "duration": 60}, {"note": 0, "velocity": 0, "duration": 91}, {"note": 72, "velocity": 93, "duration": 70}, {"note": 0, "velocity": 0, "duration": 89}, {"note": 74, "velocity": 102, "duration": 225}, {"note": 0, "velocity": 0, "duration": 82}, {"note": 74, "velocity": 93, "duration": 80}, {"note": 0, "velocity": 0, "duration": 79}, {"note": 74, "velocity": 102, "duration": 271}, {"note": 74, "velocity": 90, "duration": 77}, {"note": 0, "velocity": 0, "duration": 82}, {"note": 72, "velocity": 95, "duration": 235}, {"note": 0, "velocity": 0, "duration": 68}, {"note": 72, "velocity": 87, "duration": 146}, {"note": 72, "velocity": 85, "duration": 221}, {"note": 0, "velocity": 0, "duration": 72}, {"note": 70, "velocity": 93, "duration": 83}, {"note": 0, "velocity": 0, "duration": 73}, {"note": 72, "velocity": 87, "duration": 257}, {"note": 67, "velocity": 87, "duration": 250}, {"note": 0, "velocity": 0, "duration": 78}, {"note": 67, "velocity": 85, "duration": 131}, {"note": 65, "velocity": 95, "duration": 87}, {"note": 0, "velocity": 0, "duration": 80}, {"note": 67, "velocity": 93, "duration": 364}, {"note": 0, "velocity": 0, "duration": 291}, {"note": 70, "velocity": 83, "duration": 95}, {"note": 72, "velocity": 93, "duration": 85}, {"note": 0, "velocity": 0, "duration": 80}, {"note": 74, "velocity": 70, "duration": 259}, {"note": 74, "velocity": 95, "duration": 131}, {"note": 74, "velocity": 95, "duration": 316}, {"note": 72, "velocity": 74, "duration": 95}, {"note": 0, "velocity": 0, "duration": 72}, {"note": 72, "velocity": 83, "duration": 316}, {"note": 72, "velocity": 100, "duration": 166}, {"note": 72, "velocity": 95, "duration": 257}, {"note": 77, "velocity": 93, "duration": 97}, {"note": 0, "velocity": 0, "duration": 65}, {"note": 79, "velocity": 93, "duration": 315}, {"note": 74, "velocity": 80, "duration": 237}, {"note": 0, "velocity": 0, "duration": 89}, {"note": 74, "velocity": 95, "duration": 117}, {"note": 72, "velocity": 87, "duration": 90}, {"note": 0, "velocity": 0, "duration": 84}, {"note": 74, "velocity": 95, "duration": 336}, {"note": 0, "velocity": 0, "duration": 137}, {"note": 74, "velocity": 102, "duration": 119}, {"note": 72, "velocity": 87, "duration": 76}, {"note": 0, "velocity": 0, "duration": 67}, {"note": 70, "velocity": 87, "duration": 92}, {"note": 0, "velocity": 0, "duration": 70}, {"note": 74, "velocity": 93, "duration": 249}, {"note": 0, "velocity": 0, "duration": 67}, {"note": 72, "velocity": 90, "duration": 674}, {"note": 0, "velocity": 0, "duration": 478}, {"note": 70, "velocity": 102, "duration": 77}, {"note": 0, "velocity": 0, "duration": 67}, {"note": 70, "velocity": 102, "duration": 88}, {"note": 67, "velocity": 90, "duration": 85}, {"note": 0, "velocity": 0, "duration": 75}, {"note": 72, "velocity": 80, "duration": 272}, {"note": 70, "velocity": 90, "duration": 1034}, {"note": 0, "velocity": 0, "duration": 16406}, {"note": 79, "velocity": 95, "duration": 242}, {"note": 0, "velocity": 0, "duration": 73}, {"note": 79, "velocity": 93, "duration": 71}, {"note": 0, "velocity": 0, "duration": 90}, {"note": 79, "velocity": 103, "duration": 245}, {"note": 0, "velocity": 0, "duration": 78}, {"note": 79, "velocity": 93, "duration": 96}, {"note": 0, "velocity": 0, "duration": 224}, {"note": 77, "velocity": 102, "duration": 104}, {"note": 74, "velocity": 93, "duration": 119}, {"note": 79, "velocity": 90, "duration": 260}, {"note": 77, "velocity": 102, "duration": 80}, {"note": 0, "velocity": 0, "duration": 93}, {"note": 77, "velocity": 110, "duration": 156}, {"note": 77, "velocity": 110, "duration": 155}, {"note": 74, "velocity": 85, "duration": 93}, {"note": 0, "velocity": 0, "duration": 66}, {"note": 79, "velocity": 83, "duration": 254}, {"note": 77, "velocity": 105, "duration": 596}, {"note": 0, "velocity": 0, "duration": 542}, {"note": 79, "velocity": 95, "duration": 218}, {"note": 0, "velocity": 0, "duration": 96}, {"note": 79, "velocity": 93, "duration": 69}, {"note": 0, "velocity": 0, "duration": 83}, {"note": 79, "velocity": 102, "duration": 243}, {"note": 0, "velocity": 0, "duration": 72}, {"note": 79, "velocity": 102, "duration": 243}, {"note": 0, "velocity": 0, "duration": 76}, {"note": 77, "velocity": 105, "duration": 133}, {"note": 74, "velocity": 102, "duration": 77}, {"note": 0, "velocity": 0, "duration": 76}, {"note": 79, "velocity": 102, "duration": 344}, {"note": 77, "velocity": 103, "duration": 450}, {"note": 74, "velocity": 80, "duration": 173}, {"note": 77, "velocity": 103, "duration": 533}, {"note": 0, "velocity": 0, "duration": 122}, {"note": 74, "velocity": 103, "duration": 82}, {"note": 0, "velocity": 0, "duration": 73}, {"note": 77, "velocity": 102, "duration": 78}, {"note": 0, "velocity": 0, "duration": 73}, {"note": 79, "velocity": 95, "duration": 403}, {"note": 0, "velocity": 0, "duration": 70}, {"note": 79, "velocity": 87, "duration": 275}, {"note": 0, "velocity": 0, "duration": 65}, {"note": 79, "velocity": 103, "duration": 127}, {"note": 81, "velocity": 93, "duration": 257}, {"note": 0, "velocity": 0, "duration": 70}, {"note": 81, "velocity": 95, "duration": 398}, {"note": 77, "velocity": 105, "duration": 115}, {"note": 82, "velocity": 93, "duration": 413}, {"note": 81, "velocity": 103, "duration": 451}, {"note": 79, "velocity": 105, "duration": 387}, {"note": 0, "velocity": 0, "duration": 108}, {"note": 74, "velocity": 102, "duration": 90}, {"note": 0, "velocity": 0, "duration": 67}, {"note": 72, "velocity": 95, "duration": 97}, {"note": 70, "velocity": 93, "duration": 99}, {"note": 0, "velocity": 0, "duration": 62}, {"note": 72, "velocity": 90, "duration": 274}, {"note": 0, "velocity": 0, "duration": 63}, {"note": 72, "velocity": 93, "duration": 342}, {"note": 0, "velocity": 0, "duration": 130}, {"note": 70, "velocity": 87, "duration": 99}, {"note": 0, "velocity": 0, "duration": 63}, {"note": 72, "velocity": 93, "duration": 236}, {"note": 0, "velocity": 0, "duration": 78}, {"note": 65, "velocity": 103, "duration": 99}, {"note": 0, "velocity": 0, "duration": 66}, {"note": 79, "velocity": 102, "duration": 79}, {"note": 0, "velocity": 0, "duration": 73}, {"note": 79, "velocity": 93, "duration": 91}, {"note": 0, "velocity": 0, "duration": 67}, {"note": 74, "velocity": 93, "duration": 102}, {"note": 79, "velocity": 102, "duration": 244}, {"note": 0, "velocity": 0, "duration": 102}, {"note": 77, "velocity": 105, "duration": 310}, {"note": 79, "velocity": 87, "duration": 165}, {"note": 77, "velocity": 103, "duration": 77}, {"note": 0, "velocity": 0, "duration": 91}, {"note": 77, "velocity": 102, "duration": 876}, {"note": 0, "velocity": 0, "duration": 551}, {"note": 67, "velocity": 93, "duration": 118}, {"note": 67, "velocity": 93, "duration": 83}, {"note": 0, "velocity": 0, "duration": 75}, {"note": 65, "velocity": 103, "duration": 74}, {"note": 0, "velocity": 0, "duration": 89}, {"note": 67, "velocity": 93, "duration": 296}, {"note": 70, "velocity": 102, "duration": 625}, {"note": 0, "velocity": 0, "duration": 476}, {"note": 72, "velocity": 85, "duration": 91}, {"note": 0, "velocity": 0, "duration": 65}, {"note": 72, "velocity": 90, "duration": 91}, {"note": 70, "velocity": 87, "duration": 100}, {"note": 72, "velocity": 95, "duration": 311}, {"note": 67, "velocity": 87, "duration": 359}, {"note": 70, "velocity": 102, "duration": 60}, {"note": 0, "velocity": 0, "duration": 91}, {"note": 72, "velocity": 93, "duration": 70}, {"note": 0, "velocity": 0, "duration": 89}, {"note": 74, "velocity": 102, "duration": 225}, {"note": 0, "velocity": 0, "duration": 82}, {"note": 74, "velocity": 93, "duration": 80}, {"note": 0, "velocity": 0, "duration": 79}, {"note": 74, "velocity": 102, "duration": 271}, {"note": 74, "velocity": 90, "duration": 77}, {"note": 0, "velocity": 0, "duration": 82}, {"note": 72, "velocity": 95, "duration": 235}, {"note": 0, "velocity": 0, "duration": 68}, {"note": 72, "velocity": 87, "duration": 146}, {"note": 72, "velocity": 85, "duration": 221}, {"note": 0, "velocity": 0, "duration": 72}, {"note": 70, "velocity": 93, "duration": 83}, {"note": 0, "velocity": 0, "duration": 73}, {"note": 72, "velocity": 87, "duration": 257}, {"note": 67, "velocity": 87, "duration": 250}, {"note": 0, "velocity": 0, "duration": 78}, {"note": 67, "velocity": 85, "duration": 131}, {"note": 65, "velocity": 95, "duration": 87}, {"note": 0, "velocity": 0, "duration": 80}, {"note": 67, "velocity": 93, "duration": 364}, {"note": 0, "velocity": 0, "duration": 291}, {"note": 70, "velocity": 83, "duration": 95}, {"note": 72, "velocity": 93, "duration": 85}, {"note": 0, "velocity": 0, "duration": 80}, {"note": 74, "velocity": 70, "duration": 259}, {"note": 74, "velocity": 95, "duration": 131}, {"note": 74, "velocity": 95, "duration": 316}, {"note": 72, "velocity": 74, "duration": 95}, {"note": 0, "velocity": 0, "duration": 72}, {"note": 72, "velocity": 83, "duration": 316}, {"note": 72, "velocity": 100, "duration": 166}, {"note": 72, "velocity": 95, "duration": 257}, {"note": 77, "velocity": 93, "duration": 97}, {"note": 0, "velocity": 0, "duration": 65}, {"note": 79, "velocity": 93, "duration": 315}, {"note": 74, "velocity": 80, "duration": 237}, {"note": 0, "velocity": 0, "duration": 89}, {"note": 74, "velocity": 95, "duration": 117}, {"note": 72, "velocity": 87, "duration": 90}, {"note": 0, "velocity": 0, "duration": 84}, {"note": 74, "velocity": 95, "duration": 336}, {"note": 0, "velocity": 0, "duration": 137}, {"note": 74, "velocity": 102, "duration": 119}, {"note": 72, "velocity": 87, "duration": 76}, {"note": 0, "velocity": 0, "duration": 67}, {"note": 70, "velocity": 87, "duration": 92}, {"note": 0, "velocity": 0, "duration": 70}, {"note": 74, "velocity": 93, "duration": 249}, {"note": 0, "velocity": 0, "duration": 67}, {"note": 72, "velocity": 90, "duration": 674}, {"note": 0, "velocity": 0, "duration": 478}, {"note": 70, "velocity": 102, "duration": 77}, {"note": 0, "velocity": 0, "duration": 67}, {"note": 70, "velocity": 102, "duration": 88}, {"note": 67, "velocity": 90, "duration": 85}, {"note": 0, "velocity": 0, "duration": 75}, {"note": 72, "velocity": 80, "duration": 272}, {"note": 70, "velocity": 90, "duration": 1034}, {"note": 0, "velocity": 0, "duration": 118}, {"note": 74, "velocity": 83, "duration": 121}, {"note": 72, "velocity": 90, "duration": 91}, {"note": 70, "velocity": 87, "duration": 79}, {"note": 0, "velocity": 0, "duration": 83}, {"note": 74, "velocity": 93, "duration": 266}, {"note": 72, "velocity": 83, "duration": 1006}, {"note": 0, "velocity": 0, "duration": 119}, {"note": 70, "velocity": 93, "duration": 105}, {"note": 0, "velocity": 0, "duration": 64}, {"note": 70, "velocity": 87, "duration": 93}, {"note": 67, "velocity": 80, "duration": 118}, {"note": 72, "velocity": 93, "duration": 247}, {"note": 0, "velocity": 0, "duration": 64}, {"note": 70, "velocity": 93, "duration": 1007}, {"note": 0, "velocity": 0, "duration": 99}, {"note": 74, "velocity": 90, "duration": 97}, {"note": 0, "velocity": 0, "duration": 65}, {"note": 72, "velocity": 83, "duration": 96}, {"note": 0, "velocity": 0, "duration": 63}, {"note": 70, "velocity": 90, "duration": 92}, {"note": 0, "velocity": 0, "duration": 70}, {"note": 74, "velocity": 95, "duration": 270}, {"note": 0, "velocity": 0, "duration": 66}, {"note": 72, "velocity": 87, "duration": 1022}, {"note": 0, "velocity": 0, "duration": 118}, {"note": 70, "velocity": 95, "duration": 79}, {"note": 67, "velocity": 87, "duration": 117}, {"note": 72, "velocity": 80, "duration": 296}, {"note": 70, "velocity": 87, "duration": 993}, {"note": 0, "velocity": 0, "duration": 265}, {"note": 69, "velocity": 87, "duration": 476}, {"note": 67, "velocity": 80, "duration": 1167}]]