[[{"note": 71, "velocity": 117, "duration": 97}, {"note": 0, "velocity": 0, "duration": 143}, {"note": 71, "velocity": 99, "duration": 80}, {"note": 69, "velocity": 86, "duration": 66}, {"note": 71, "velocity": 112, "duration": 122}, {"note": 0, "velocity": 0, "duration": 358}, {"note": 69, "velocity": 117, "duration": 107}, {"note": 0, "velocity": 0, "duration": 133}, {"note": 69, "velocity": 107, "duration": 71}, {"note": 67, "velocity": 83, "duration": 92}, {"note": 69, "velocity": 117, "duration": 144}, {"note": 0, "velocity": 0, "duration": 336}, {"note": 71, "velocity": 122, "duration": 91}, {"note": 0, "velocity": 0, "duration": 149}, {"note": 71, "velocity": 112, "duration": 104}, {"note": 69, "velocity": 92, "duration": 72}, {"note": 71, "velocity": 102, "duration": 126}, {"note": 0, "velocity": 0, "duration": 114}, {"note": 74, "velocity": 122, "duration": 129}, {"note": 0, "velocity": 0, "duration": 111}, {"note": 69, "velocity": 117, "duration": 641}, {"note": 0, "velocity": 0, "duration": 319}, {"note": 71, "velocity": 122, "duration": 78}, {"note": 0, "velocity": 0, "duration": 162}, {"note": 71, "velocity": 107, "duration": 73}, {"note": 69, "velocity": 88, "duration": 60}, {"note": 71, "velocity": 117, "duration": 109}, {"note": 0, "velocity": 0, "duration": 371}, {"note": 69, "velocity": 122, "duration": 70}, {"note": 0, "velocity": 0, "duration": 170}, {"note": 69, "velocity": 117, "duration": 71}, {"note": 67, "velocity": 97, "duration": 60}, {"note": 69, "velocity": 127, "duration": 111}, {"note": 0, "velocity": 0, "duration": 369}, {"note": 71, "velocity": 127, "duration": 61}, {"note": 0, "velocity": 0, "duration": 179}, {"note": 71, "velocity": 122, "duration": 89}, {"note": 69, "velocity": 96, "duration": 70}, {"note": 71, "velocity": 127, "duration": 98}, {"note": 0, "velocity": 0, "duration": 142}, {"note": 74, "velocity": 122, "duration": 111}, {"note": 0, "velocity": 0, "duration": 129}, {"note": 69, "velocity": 127, "duration": 514}, {"note": 0, "velocity": 0, "duration": 446}, {"note": 71, "velocity": 127, "duration": 94}, {"note": 0, "velocity": 0, "duration": 146}, {"note": 71, "velocity": 117, "duration": 116}, {"note": 69, "velocity": 88, "duration": 76}, {"note": 71, "velocity": 117, "duration": 115}, {"note": 0, "velocity": 0, "duration": 125}, {"note": 74, "velocity": 127, "duration": 66}, {"note": 0, "velocity": 0, "duration": 174}, {"note": 69, "velocity": 107, "duration": 256}, {"note": 0, "velocity": 0, "duration": 224}, {"note": 69, "velocity": 117, "duration": 198}, {"note": 69, "velocity": 127, "duration": 126}, {"note": 71, "velocity": 99, "duration": 54}, {"note": 0, "velocity": 0, "duration": 66}, {"note": 64, "velocity": 96, "duration": 166}, {"note": 0, "velocity": 0, "duration": 74}, {"note": 67, "velocity": 97, "duration": 96}, {"note": 0, "velocity": 0, "duration": 144}, {"note": 67, "velocity": 112, "duration": 150}, {"note": 0, "velocity": 0, "duration": 90}, {"note": 71, "velocity": 102, "duration": 114}, {"note": 0, "velocity": 0, "duration": 126}, {"note": 71, "velocity": 127, "duration": 118}, {"note": 0, "velocity": 0, "duration": 842}, {"note": 71, "velocity": 117, "duration": 80}, {"note": 0, "velocity": 0, "duration": 160}, {"note": 71, "velocity": 127, "duration": 113}, {"note": 69, "velocity": 89, "duration": 89}, {"note": 71, "velocity": 117, "duration": 146}, {"note": 0, "velocity": 0, "duration": 94}, {"note": 74, "velocity": 127, "duration": 93}, {"note": 0, "velocity": 0, "duration": 147}, {"note": 76, "velocity": 127, "duration": 161}, {"note": 0, "velocity": 0, "duration": 79}, {"note": 74, "velocity": 122, "duration": 53}, {"note": 0, "velocity": 0, "duration": 67}, {"note": 74, "velocity": 117, "duration": 171}, {"note": 0, "velocity": 0, "duration": 189}, {"note": 74, "velocity": 117, "duration": 102}, {"note": 76, "velocity": 74, "duration": 52}, {"note": 0, "velocity": 0, "duration": 68}, {"note": 64, "velocity": 102, "duration": 155}, {"note": 0, "velocity": 0, "duration": 85}, {"note": 67, "velocity": 112, "duration": 166}, {"note": 0, "velocity": 0, "duration": 74}, {"note": 67, "velocity": 117, "duration": 101}, {"note": 69, "velocity": 93, "duration": 74}, {"note": 64, "velocity": 97, "duration": 183}, {"note": 67, "velocity": 99, "duration": 415}, {"note": 0, "velocity": 0, "duration": 305}, {"note": 71, "velocity": 107, "duration": 124}, {"note": 0, "velocity": 0, "duration": 116}, {"note": 64, "velocity": 99, "duration": 185}, {"note": 67, "velocity": 102, "duration": 376}, {"note": 0, "velocity": 0, "duration": 104}, {"note": 67, "velocity": 117, "duration": 156}, {"note": 0, "velocity": 0, "duration": 84}, {"note": 71, "velocity": 122, "duration": 337}, {"note": 0, "velocity": 0, "duration": 383}, {"note": 71, "velocity": 97, "duration": 120}, {"note": 0, "velocity": 0, "duration": 120}, {"note": 64, "velocity": 95, "duration": 246}, {"note": 67, "velocity": 99, "duration": 240}, {"note": 0, "velocity": 0, "duration": 240}, {"note": 74, "velocity": 112, "duration": 181}, {"note": 71, "velocity": 107, "duration": 549}, {"note": 0, "velocity": 0, "duration": 411}, {"note": 64, "velocity": 100, "duration": 57}, {"note": 0, "velocity": 0, "duration": 63}, {"note": 67, "velocity": 99, "duration": 120}, {"note": 0, "velocity": 0, "duration": 120}, {"note": 67, "velocity": 100, "duration": 56}, {"note": 0, "velocity": 0, "duration": 64}, {"note": 67, "velocity": 112, "duration": 149}, {"note": 0, "velocity": 0, "duration": 91}, {"note": 64, "velocity": 112, "duration": 143}, {"note": 0, "velocity": 0, "duration": 97}, {"note": 76, "velocity": 127, "duration": 103}, {"note": 74, "velocity": 112, "duration": 106}, {"note": 71, "velocity": 127, "duration": 59}, {"note": 0, "velocity": 0, "duration": 61}, {"note": 69, "velocity": 122, "duration": 196}, {"note": 67, "velocity": 102, "duration": 323}, {"note": 64, "velocity": 107, "duration": 171}, {"note": 0, "velocity": 0, "duration": 69}, {"note": 67, "velocity": 112, "duration": 144}, {"note": 0, "velocity": 0, "duration": 96}, {"note": 69, "velocity": 117, "duration": 136}, {"note": 67, "velocity": 96, "duration": 95}, {"note": 64, "velocity": 99, "duration": 180}, {"note": 67, "velocity": 112, "duration": 587}, {"note": 0, "velocity": 0, "duration": 1333}, {"note": 74, "velocity": 112, "duration": 52}, {"note": 0, "velocity": 0, "duration": 68}, {"note": 74, "velocity": 96, "duration": 50}, {"note": 0, "velocity": 0, "duration": 70}, {"note": 74, "velocity": 88, "duration": 49}, {"note": 0, "velocity": 0, "duration": 71}, {"note": 74, "velocity": 97, "duration": 45}, {"note": 0, "velocity": 0, "duration": 75}, {"note": 74, "velocity": 117, "duration": 92}, {"note": 0, "velocity": 0, "duration": 148}, {"note": 74, "velocity": 112, "duration": 104}, {"note": 0, "velocity": 0, "duration": 136}, {"note": 67, "velocity": 107, "duration": 183}, {"note": 0, "velocity": 0, "duration": 297}, {"note": 64, "velocity": 112, "duration": 158}, {"note": 0, "velocity": 0, "duration": 82}, {"note": 62, "velocity": 107, "duration": 150}, {"note": 0, "velocity": 0, "duration": 90}, {"note": 74, "velocity": 122, "duration": 170}, {"note": 0, "velocity": 0, "duration": 70}, {"note": 74, "velocity": 127, "duration": 126}, {"note": 0, "velocity": 0, "duration": 114}, {"note": 74, "velocity": 127, "duration": 68}, {"note": 0, "velocity": 0, "duration": 172}, {"note": 66, "velocity": 112, "duration": 154}, {"note": 0, "velocity": 0, "duration": 86}, {"note": 67, "velocity": 107, "duration": 341}, {"note": 0, "velocity": 0, "duration": 499}, {"note": 64, "velocity": 95, "duration": 67}, {"note": 69, "velocity": 102, "duration": 134}, {"note": 0, "velocity": 0, "duration": 106}, {"note": 69, "velocity": 117, "duration": 81}, {"note": 71, "velocity": 112, "duration": 88}, {"note": 69, "velocity": 107, "duration": 111}, {"note": 0, "velocity": 0, "duration": 129}, {"note": 69, "velocity": 112, "duration": 56}, {"note": 0, "velocity": 0, "duration": 64}, {"note": 71, "velocity": 97, "duration": 48}, {"note": 0, "velocity": 0, "duration": 72}, {"note": 71, "velocity": 102, "duration": 128}, {"note": 0, "velocity": 0, "duration": 112}, {"note": 69, "velocity": 107, "duration": 100}, {"note": 0, "velocity": 0, "duration": 140}, {"note": 67, "velocity": 112, "duration": 76}, {"note": 0, "velocity": 0, "duration": 164}, {"note": 64, "velocity": 100, "duration": 224}, {"note": 69, "velocity": 117, "duration": 555}, {"note": 0, "velocity": 0, "duration": 165}, {"note": 71, "velocity": 117, "duration": 234}, {"note": 69, "velocity": 100, "duration": 355}, {"note": 0, "velocity": 0, "duration": 605}, {"note": 74, "velocity": 127, "duration": 116}, {"note": 0, "velocity": 0, "duration": 124}, {"note": 74, "velocity": 112, "duration": 58}, {"note": 0, "velocity": 0, "duration": 62}, {"note": 74, "velocity": 99, "duration": 48}, {"note": 0, "velocity": 0, "duration": 72}, {"note": 74, "velocity": 122, "duration": 121}, {"note": 0, "velocity": 0, "duration": 119}, {"note": 76, "velocity": 117, "duration": 120}, {"note": 0, "velocity": 0, "duration": 120}, {"note": 67, "velocity": 112, "duration": 236}, {"note": 0, "velocity": 0, "duration": 724}, {"note": 74, "velocity": 127, "duration": 98}, {"note": 0, "velocity": 0, "duration": 142}, {"note": 74, "velocity": 102, "duration": 48}, {"note": 0, "velocity": 0, "duration": 72}, {"note": 74, "velocity": 99, "duration": 42}, {"note": 0, "velocity": 0, "duration": 78}, {"note": 74, "velocity": 112, "duration": 91}, {"note": 0, "velocity": 0, "duration": 149}, {"note": 66, "velocity": 117, "duration": 132}, {"note": 0, "velocity": 0, "duration": 108}, {"note": 67, "velocity": 122, "duration": 122}, {"note": 0, "velocity": 0, "duration": 838}, {"note": 69, "velocity": 127, "duration": 121}, {"note": 0, "velocity": 0, "duration": 119}, {"note": 69, "velocity": 122, "duration": 64}, {"note": 71, "velocity": 95, "duration": 76}, {"note": 69, "velocity": 117, "duration": 103}, {"note": 0, "velocity": 0, "duration": 137}, {"note": 69, "velocity": 122, "duration": 66}, {"note": 71, "velocity": 96, "duration": 50}, {"note": 0, "velocity": 0, "duration": 70}, {"note": 71, "velocity": 117, "duration": 119}, {"note": 0, "velocity": 0, "duration": 121}, {"note": 69, "velocity": 117, "duration": 184}, {"note": 67, "velocity": 102, "duration": 211}, {"note": 64, "velocity": 100, "duration": 212}, {"note": 74, "velocity": 127, "duration": 844}, {"note": 76, "velocity": 127, "duration": 220}, {"note": 74, "velocity": 122, "duration": 352}, {"note": 0, "velocity": 0, "duration": 128}, {"note": 71, "velocity": 107, "duration": 229}, {"note": 74, "velocity": 122, "duration": 173}, {"note": 0, "velocity": 0, "duration": 67}, {"note": 79, "velocity": 127, "duration": 45}, {"note": 0, "velocity": 0, "duration": 75}, {"note": 79, "velocity": 112, "duration": 46}, {"note": 0, "velocity": 0, "duration": 74}, {"note": 79, "velocity": 122, "duration": 45}, {"note": 0, "velocity": 0, "duration": 75}, {"note": 79, "velocity": 127, "duration": 43}, {"note": 0, "velocity": 0, "duration": 77}, {"note": 76, "velocity": 127, "duration": 169}, {"note": 0, "velocity": 0, "duration": 71}, {"note": 76, "velocity": 127, "duration": 110}, {"note": 74, "velocity": 92, "duration": 60}, {"note": 74, "velocity": 122, "duration": 188}, {"note": 74, "velocity": 107, "duration": 41}, {"note": 0, "velocity": 0, "duration": 79}, {"note": 74, "velocity": 107, "duration": 56}, {"note": 0, "velocity": 0, "duration": 64}, {"note": 69, "velocity": 112, "duration": 203}, {"note": 67, "velocity": 100, "duration": 159}, {"note": 0, "velocity": 0, "duration": 81}, {"note": 69, "velocity": 127, "duration": 43}, {"note": 0, "velocity": 0, "duration": 77}, {"note": 69, "velocity": 97, "duration": 44}, {"note": 0, "velocity": 0, "duration": 76}, {"note": 69, "velocity": 102, "duration": 56}, {"note": 0, "velocity": 0, "duration": 64}, {"note": 67, "velocity": 107, "duration": 51}, {"note": 0, "velocity": 0, "duration": 69}, {"note": 69, "velocity": 127, "duration": 104}, {"note": 0, "velocity": 0, "duration": 136}, {"note": 74, "velocity": 127, "duration": 114}, {"note": 0, "velocity": 0, "duration": 126}, {"note": 71, "velocity": 127, "duration": 172}, {"note": 0, "velocity": 0, "duration": 308}, {"note": 71, "velocity": 112, "duration": 207}, {"note": 74, "velocity": 127, "duration": 141}, {"note": 0, "velocity": 0, "duration": 99}, {"note": 79, "velocity": 122, "duration": 45}, {"note": 0, "velocity": 0, "duration": 75}, {"note": 79, "velocity": 100, "duration": 45}, {"note": 0, "velocity": 0, "duration": 75}, {"note": 79, "velocity": 100, "duration": 43}, {"note": 0, "velocity": 0, "duration": 77}, {"note": 79, "velocity": 100, "duration": 42}, {"note": 0, "velocity": 0, "duration": 78}, {"note": 76, "velocity": 127, "duration": 150}, {"note": 0, "velocity": 0, "duration": 90}, {"note": 74, "velocity": 112, "duration": 110}, {"note": 0, "velocity": 0, "duration": 130}, {"note": 74, "velocity": 127, "duration": 43}, {"note": 0, "velocity": 0, "duration": 77}, {"note": 74, "velocity": 100, "duration": 46}, {"note": 0, "velocity": 0, "duration": 74}, {"note": 74, "velocity": 112, "duration": 45}, {"note": 0, "velocity": 0, "duration": 75}, {"note": 74, "velocity": 127, "duration": 52}, {"note": 0, "velocity": 0, "duration": 68}, {"note": 69, "velocity": 127, "duration": 218}, {"note": 67, "velocity": 117, "duration": 190}, {"note": 69, "velocity": 127, "duration": 42}, {"note": 0, "velocity": 0, "duration": 78}, {"note": 69, "velocity": 100, "duration": 36}, {"note": 0, "velocity": 0, "duration": 84}, {"note": 69, "velocity": 122, "duration": 99}, {"note": 71, "velocity": 112, "duration": 36}, {"note": 0, "velocity": 0, "duration": 84}, {"note": 67, "velocity": 127, "duration": 134}, {"note": 0, "velocity": 0, "duration": 106}, {"note": 64, "velocity": 100, "duration": 160}, {"note": 0, "velocity": 0, "duration": 80}, {"note": 67, "velocity": 127, "duration": 434}, {"note": 71, "velocity": 112, "duration": 154}, {"note": 0, "velocity": 0, "duration": 86}, {"note": 74, "velocity": 117, "duration": 116}, {"note": 0, "velocity": 0, "duration": 124}, {"note": 79, "velocity": 127, "duration": 41}, {"note": 0, "velocity": 0, "duration": 79}, {"note": 79, "velocity": 99, "duration": 40}, {"note": 0, "velocity": 0, "duration": 80}, {"note": 79, "velocity": 107, "duration": 45}, {"note": 0, "velocity": 0, "duration": 75}, {"note": 79, "velocity": 102, "duration": 52}, {"note": 0, "velocity": 0, "duration": 68}, {"note": 76, "velocity": 127, "duration": 153}, {"note": 0, "velocity": 0, "duration": 87}, {"note": 74, "velocity": 117, "duration": 88}, {"note": 0, "velocity": 0, "duration": 152}, {"note": 74, "velocity": 127, "duration": 40}, {"note": 0, "velocity": 0, "duration": 80}, {"note": 74, "velocity": 107, "duration": 43}, {"note": 0, "velocity": 0, "duration": 77}, {"note": 74, "velocity": 102, "duration": 42}, {"note": 0, "velocity": 0, "duration": 78}, {"note": 74, "velocity": 117, "duration": 43}, {"note": 0, "velocity": 0, "duration": 77}, {"note": 69, "velocity": 107, "duration": 184}, {"note": 67, "velocity": 112, "duration": 129}, {"note": 0, "velocity": 0, "duration": 111}, {"note": 69, "velocity": 107, "duration": 39}, {"note": 0, "velocity": 0, "duration": 81}, {"note": 69, "velocity": 92, "duration": 40}, {"note": 0, "velocity": 0, "duration": 80}, {"note": 69, "velocity": 93, "duration": 42}, {"note": 0, "velocity": 0, "duration": 78}, {"note": 69, "velocity": 93, "duration": 48}, {"note": 0, "velocity": 0, "duration": 72}, {"note": 69, "velocity": 100, "duration": 109}, {"note": 0, "velocity": 0, "duration": 131}, {"note": 74, "velocity": 122, "duration": 185}, {"note": 71, "velocity": 100, "duration": 308}, {"note": 0, "velocity": 0, "duration": 172}, {"note": 71, "velocity": 112, "duration": 156}, {"note": 0, "velocity": 0, "duration": 84}, {"note": 74, "velocity": 122, "duration": 149}, {"note": 0, "velocity": 0, "duration": 91}, {"note": 79, "velocity": 122, "duration": 43}, {"note": 0, "velocity": 0, "duration": 77}, {"note": 79, "velocity": 102, "duration": 43}, {"note": 0, "velocity": 0, "duration": 77}, {"note": 79, "velocity": 102, "duration": 43}, {"note": 0, "velocity": 0, "duration": 77}, {"note": 79, "velocity": 122, "duration": 50}, {"note": 0, "velocity": 0, "duration": 70}, {"note": 76, "velocity": 127, "duration": 100}, {"note": 0, "velocity": 0, "duration": 140}, {"note": 74, "velocity": 127, "duration": 104}, {"note": 0, "velocity": 0, "duration": 136}, {"note": 74, "velocity": 127, "duration": 37}, {"note": 0, "velocity": 0, "duration": 83}, {"note": 74, "velocity": 96, "duration": 40}, {"note": 0, "velocity": 0, "duration": 80}, {"note": 74, "velocity": 96, "duration": 37}, {"note": 0, "velocity": 0, "duration": 83}, {"note": 74, "velocity": 99, "duration": 51}, {"note": 0, "velocity": 0, "duration": 69}, {"note": 69, "velocity": 127, "duration": 102}, {"note": 0, "velocity": 0, "duration": 138}, {"note": 67, "velocity": 107, "duration": 107}, {"note": 0, "velocity": 0, "duration": 133}, {"note": 69, "velocity": 127, "duration": 42}, {"note": 0, "velocity": 0, "duration": 78}, {"note": 69, "velocity": 88, "duration": 39}, {"note": 0, "velocity": 0, "duration": 81}, {"note": 69, "velocity": 102, "duration": 72}, {"note": 71, "velocity": 117, "duration": 61}, {"note": 69, "velocity": 127, "duration": 107}, {"note": 67, "velocity": 85, "duration": 95}, {"note": 64, "velocity": 100, "duration": 197}, {"note": 67, "velocity": 117, "duration": 528}, {"note": 0, "velocity": 0, "duration": 8112}, {"note": 71, "velocity": 127, "duration": 94}, {"note": 0, "velocity": 0, "duration": 146}, {"note": 71, "velocity": 117, "duration": 116}, {"note": 69, "velocity": 88, "duration": 76}, {"note": 71, "velocity": 117, "duration": 115}, {"note": 0, "velocity": 0, "duration": 125}, {"note": 74, "velocity": 127, "duration": 66}, {"note": 0, "velocity": 0, "duration": 174}, {"note": 69, "velocity": 107, "duration": 256}, {"note": 0, "velocity": 0, "duration": 224}, {"note": 69, "velocity": 117, "duration": 198}, {"note": 69, "velocity": 127, "duration": 126}, {"note": 71, "velocity": 99, "duration": 54}, {"note": 0, "velocity": 0, "duration": 66}, {"note": 64, "velocity": 96, "duration": 166}, {"note": 0, "velocity": 0, "duration": 74}, {"note": 67, "velocity": 97, "duration": 96}, {"note": 0, "velocity": 0, "duration": 144}, {"note": 67, "velocity": 112, "duration": 150}, {"note": 0, "velocity": 0, "duration": 90}, {"note": 71, "velocity": 102, "duration": 114}, {"note": 0, "velocity": 0, "duration": 126}, {"note": 71, "velocity": 127, "duration": 118}, {"note": 0, "velocity": 0, "duration": 842}, {"note": 71, "velocity": 117, "duration": 80}, {"note": 0, "velocity": 0, "duration": 160}, {"note": 71, "velocity": 127, "duration": 113}, {"note": 69, "velocity": 89, "duration": 89}, {"note": 71, "velocity": 117, "duration": 146}, {"note": 0, "velocity": 0, "duration": 94}, {"note": 74, "velocity": 127, "duration": 93}, {"note": 0, "velocity": 0, "duration": 147}, {"note": 76, "velocity": 127, "duration": 161}, {"note": 0, "velocity": 0, "duration": 79}, {"note": 74, "velocity": 122, "duration": 53}, {"note": 0, "velocity": 0, "duration": 67}, {"note": 74, "velocity": 117, "duration": 171}, {"note": 0, "velocity": 0, "duration": 189}, {"note": 74, "velocity": 117, "duration": 102}, {"note": 76, "velocity": 74, "duration": 52}, {"note": 0, "velocity": 0, "duration": 68}, {"note": 64, "velocity": 102, "duration": 155}, {"note": 0, "velocity": 0, "duration": 85}, {"note": 67, "velocity": 112, "duration": 166}, {"note": 0, "velocity": 0, "duration": 74}, {"note": 67, "velocity": 117, "duration": 101}, {"note": 69, "velocity": 93, "duration": 74}, {"note": 64, "velocity": 97, "duration": 183}, {"note": 67, "velocity": 99, "duration": 415}, {"note": 0, "velocity": 0, "duration": 305}, {"note": 71, "velocity": 107, "duration": 124}, {"note": 0, "velocity": 0, "duration": 116}, {"note": 64, "velocity": 99, "duration": 185}, {"note": 67, "velocity": 102, "duration": 376}, {"note": 0, "velocity": 0, "duration": 104}, {"note": 67, "velocity": 117, "duration": 156}, {"note": 0, "velocity": 0, "duration": 84}, {"note": 71, "velocity": 122, "duration": 337}, {"note": 0, "velocity": 0, "duration": 383}, {"note": 71, "velocity": 97, "duration": 120}, {"note": 0, "velocity": 0, "duration": 120}, {"note": 64, "velocity": 95, "duration": 246}, {"note": 67, "velocity": 99, "duration": 240}, {"note": 0, "velocity": 0, "duration": 240}, {"note": 74, "velocity": 112, "duration": 181}, {"note": 71, "velocity": 107, "duration": 549}, {"note": 0, "velocity": 0, "duration": 411}, {"note": 64, "velocity": 100, "duration": 57}, {"note": 0, "velocity": 0, "duration": 63}, {"note": 67, "velocity": 99, "duration": 120}, {"note": 0, "velocity": 0, "duration": 120}, {"note": 67, "velocity": 100, "duration": 56}, {"note": 0, "velocity": 0, "duration": 64}, {"note": 67, "velocity": 112, "duration": 149}, {"note": 0, "velocity": 0, "duration": 91}, {"note": 64, "velocity": 112, "duration": 143}, {"note": 0, "velocity": 0, "duration": 97}, {"note": 76, "velocity": 127, "duration": 103}, {"note": 74, "velocity": 112, "duration": 106}, {"note": 71, "velocity": 127, "duration": 59}, {"note": 0, "velocity": 0, "duration": 61}, {"note": 69, "velocity": 122, "duration": 196}, {"note": 67, "velocity": 102, "duration": 323}, {"note": 64, "velocity": 107, "duration": 171}, {"note": 0, "velocity": 0, "duration": 69}, {"note": 67, "velocity": 112, "duration": 144}, {"note": 0, "velocity": 0, "duration": 96}, {"note": 69, "velocity": 117, "duration": 136}, {"note": 67, "velocity": 96, "duration": 95}, {"note": 64, "velocity": 99, "duration": 180}, {"note": 67, "velocity": 112, "duration": 587}, {"note": 0, "velocity": 0, "duration": 1321}, {"note": 74, "velocity": 112, "duration": 52}, {"note": 0, "velocity": 0, "duration": 68}, {"note": 74, "velocity": 96, "duration": 50}, {"note": 0, "velocity": 0, "duration": 70}, {"note": 74, "velocity": 88, "duration": 49}, {"note": 0, "velocity": 0, "duration": 71}, {"note": 74, "velocity": 97, "duration": 45}, {"note": 0, "velocity": 0, "duration": 75}, {"note": 74, "velocity": 117, "duration": 92}, {"note": 0, "velocity": 0, "duration": 148}, {"note": 74, "velocity": 112, "duration": 104}, {"note": 0, "velocity": 0, "duration": 136}, {"note": 67, "velocity": 107, "duration": 183}, {"note": 0, "velocity": 0, "duration": 297}, {"note": 64, "velocity": 112, "duration": 158}, {"note": 0, "velocity": 0, "duration": 82}, {"note": 62, "velocity": 107, "duration": 150}, {"note": 0, "velocity": 0, "duration": 90}, {"note": 74, "velocity": 122, "duration": 170}, {"note": 0, "velocity": 0, "duration": 70}, {"note": 74, "velocity": 127, "duration": 126}, {"note": 0, "velocity": 0, "duration": 114}, {"note": 74, "velocity": 127, "duration": 68}, {"note": 0, "velocity": 0, "duration": 172}, {"note": 66, "velocity": 112, "duration": 154}, {"note": 0, "velocity": 0, "duration": 86}, {"note": 67, "velocity": 107, "duration": 341}, {"note": 0, "velocity": 0, "duration": 499}, {"note": 64, "velocity": 95, "duration": 67}, {"note": 69, "velocity": 102, "duration": 134}, {"note": 0, "velocity": 0, "duration": 106}, {"note": 69, "velocity": 117, "duration": 81}, {"note": 71, "velocity": 112, "duration": 88}, {"note": 69, "velocity": 107, "duration": 111}, {"note": 0, "velocity": 0, "duration": 129}, {"note": 69, "velocity": 112, "duration": 56}, {"note": 0, "velocity": 0, "duration": 64}, {"note": 71, "velocity": 97, "duration": 48}, {"note": 0, "velocity": 0, "duration": 72}, {"note": 71, "velocity": 102, "duration": 128}, {"note": 0, "velocity": 0, "duration": 112}, {"note": 69, "velocity": 107, "duration": 100}, {"note": 0, "velocity": 0, "duration": 140}, {"note": 67, "velocity": 112, "duration": 76}, {"note": 0, "velocity": 0, "duration": 164}, {"note": 64, "velocity": 100, "duration": 224}, {"note": 69, "velocity": 117, "duration": 555}, {"note": 0, "velocity": 0, "duration": 165}, {"note": 71, "velocity": 117, "duration": 234}, {"note": 69, "velocity": 100, "duration": 355}, {"note": 0, "velocity": 0, "duration": 605}, {"note": 74, "velocity": 127, "duration": 116}, {"note": 0, "velocity": 0, "duration": 124}, {"note": 74, "velocity": 112, "duration": 58}, {"note": 0, "velocity": 0, "duration": 62}, {"note": 74, "velocity": 99, "duration": 48}, {"note": 0, "velocity": 0, "duration": 72}, {"note": 74, "velocity": 122, "duration": 121}, {"note": 0, "velocity": 0, "duration": 119}, {"note": 76, "velocity": 117, "duration": 120}, {"note": 0, "velocity": 0, "duration": 120}, {"note": 67, "velocity": 112, "duration": 236}, {"note": 0, "velocity": 0, "duration": 724}, {"note": 74, "velocity": 127, "duration": 98}, {"note": 0, "velocity": 0, "duration": 142}, {"note": 74, "velocity": 102, "duration": 48}, {"note": 0, "velocity": 0, "duration": 72}, {"note": 74, "velocity": 99, "duration": 42}, {"note": 0, "velocity": 0, "duration": 78}, {"note": 74, "velocity": 112, "duration": 91}, {"note": 0, "velocity": 0, "duration": 149}, {"note": 66, "velocity": 117, "duration": 132}, {"note": 0, "velocity": 0, "duration": 108}, {"note": 67, "velocity": 122, "duration": 122}, {"note": 0, "velocity": 0, "duration": 838}, {"note": 69, "velocity": 127, "duration": 121}, {"note": 0, "velocity": 0, "duration": 119}, {"note": 69, "velocity": 122, "duration": 64}, {"note": 71, "velocity": 95, "duration": 76}, {"note": 69, "velocity": 117, "duration": 103}, {"note": 0, "velocity": 0, "duration": 137}, {"note": 69, "velocity": 122, "duration": 66}, {"note": 71, "velocity": 96, "duration": 50}, {"note": 0, "velocity": 0, "duration": 70}, {"note": 71, "velocity": 117, "duration": 119}, {"note": 0, "velocity": 0, "duration": 121}, {"note": 69, "velocity": 117, "duration": 184}, {"note": 67, "velocity": 102, "duration": 211}, {"note": 64, "velocity": 100, "duration": 212}, {"note": 74, "velocity": 127, "duration": 844}, {"note": 76, "velocity": 127, "duration": 220}, {"note": 74, "velocity": 122, "duration": 352}, {"note": 0, "velocity": 0, "duration": 128}, {"note": 71, "velocity": 107, "duration": 229}, {"note": 74, "velocity": 122, "duration": 173}, {"note": 0, "velocity": 0, "duration": 67}, {"note": 79, "velocity": 127, "duration": 45}, {"note": 0, "velocity": 0, "duration": 75}, {"note": 79, "velocity": 112, "duration": 46}, {"note": 0, "velocity": 0, "duration": 74}, {"note": 79, "velocity": 122, "duration": 45}, {"note": 0, "velocity": 0, "duration": 75}, {"note": 79, "velocity": 127, "duration": 43}, {"note": 0, "velocity": 0, "duration": 77}, {"note": 76, "velocity": 127, "duration": 169}, {"note": 0, "velocity": 0, "duration": 71}, {"note": 76, "velocity": 127, "duration": 110}, {"note": 74, "velocity": 92, "duration": 60}, {"note": 74, "velocity": 122, "duration": 188}, {"note": 74, "velocity": 107, "duration": 41}, {"note": 0, "velocity": 0, "duration": 79}, {"note": 74, "velocity": 107, "duration": 56}, {"note": 0, "velocity": 0, "duration": 64}, {"note": 69, "velocity": 112, "duration": 203}, {"note": 67, "velocity": 100, "duration": 159}, {"note": 0, "velocity": 0, "duration": 81}, {"note": 69, "velocity": 127, "duration": 43}, {"note": 0, "velocity": 0, "duration": 77}, {"note": 69, "velocity": 97, "duration": 44}, {"note": 0, "velocity": 0, "duration": 64}, {"note": 69, "velocity": 102, "duration": 56}, {"note": 0, "velocity": 0, "duration": 64}, {"note": 67, "velocity": 107, "duration": 51}, {"note": 0, "velocity": 0, "duration": 69}, {"note": 69, "velocity": 127, "duration": 104}, {"note": 0, "velocity": 0, "duration": 136}, {"note": 74, "velocity": 127, "duration": 114}, {"note": 0, "velocity": 0, "duration": 126}, {"note": 71, "velocity": 127, "duration": 172}, {"note": 0, "velocity": 0, "duration": 308}, {"note": 71, "velocity": 112, "duration": 207}, {"note": 74, "velocity": 127, "duration": 141}, {"note": 0, "velocity": 0, "duration": 99}, {"note": 79, "velocity": 122, "duration": 45}, {"note": 0, "velocity": 0, "duration": 75}, {"note": 79, "velocity": 100, "duration": 45}, {"note": 0, "velocity": 0, "duration": 75}, {"note": 79, "velocity": 100, "duration": 43}, {"note": 0, "velocity": 0, "duration": 77}, {"note": 79, "velocity": 100, "duration": 42}, {"note": 0, "velocity": 0, "duration": 78}, {"note": 76, "velocity": 127, "duration": 150}, {"note": 0, "velocity": 0, "duration": 90}, {"note": 74, "velocity": 112, "duration": 110}, {"note": 0, "velocity": 0, "duration": 130}, {"note": 74, "velocity": 127, "duration": 43}, {"note": 0, "velocity": 0, "duration": 77}, {"note": 74, "velocity": 100, "duration": 46}, {"note": 0, "velocity": 0, "duration": 74}, {"note": 74, "velocity": 112, "duration": 45}, {"note": 0, "velocity": 0, "duration": 75}, {"note": 74, "velocity": 127, "duration": 52}, {"note": 0, "velocity": 0, "duration": 68}, {"note": 69, "velocity": 127, "duration": 218}, {"note": 67, "velocity": 117, "duration": 190}, {"note": 69, "velocity": 127, "duration": 42}, {"note": 0, "velocity": 0, "duration": 78}, {"note": 69, "velocity": 100, "duration": 36}, {"note": 0, "velocity": 0, "duration": 84}, {"note": 69, "velocity": 122, "duration": 99}, {"note": 71, "velocity": 112, "duration": 36}, {"note": 0, "velocity": 0, "duration": 84}, {"note": 67, "velocity": 127, "duration": 134}, {"note": 0, "velocity": 0, "duration": 106}, {"note": 64, "velocity": 100, "duration": 160}, {"note": 0, "velocity": 0, "duration": 80}, {"note": 67, "velocity": 127, "duration": 434}, {"note": 71, "velocity": 112, "duration": 154}, {"note": 0, "velocity": 0, "duration": 86}, {"note": 74, "velocity": 117, "duration": 116}, {"note": 0, "velocity": 0, "duration": 124}, {"note": 79, "velocity": 127, "duration": 41}, {"note": 0, "velocity": 0, "duration": 79}, {"note": 79, "velocity": 99, "duration": 40}, {"note": 0, "velocity": 0, "duration": 80}, {"note": 79, "velocity": 107, "duration": 45}, {"note": 0, "velocity": 0, "duration": 75}, {"note": 79, "velocity": 102, "duration": 52}, {"note": 0, "velocity": 0, "duration": 68}, {"note": 76, "velocity": 127, "duration": 153}, {"note": 0, "velocity": 0, "duration": 87}, {"note": 74, "velocity": 117, "duration": 88}, {"note": 0, "velocity": 0, "duration": 152}, {"note": 74, "velocity": 127, "duration": 40}, {"note": 0, "velocity": 0, "duration": 80}, {"note": 74, "velocity": 107, "duration": 43}, {"note": 0, "velocity": 0, "duration": 77}, {"note": 74, "velocity": 102, "duration": 42}, {"note": 0, "velocity": 0, "duration": 78}, {"note": 74, "velocity": 117, "duration": 43}, {"note": 0, "velocity": 0, "duration": 77}, {"note": 69, "velocity": 107, "duration": 184}, {"note": 67, "velocity": 112, "duration": 129}, {"note": 0, "velocity": 0, "duration": 111}, {"note": 69, "velocity": 107, "duration": 39}, {"note": 0, "velocity": 0, "duration": 81}, {"note": 69, "velocity": 92, "duration": 40}, {"note": 0, "velocity": 0, "duration": 80}, {"note": 69, "velocity": 93, "duration": 42}, {"note": 0, "velocity": 0, "duration": 78}, {"note": 69, "velocity": 93, "duration": 48}, {"note": 0, "velocity": 0, "duration": 72}, {"note": 69, "velocity": 100, "duration": 109}, {"note": 0, "velocity": 0, "duration": 131}, {"note": 74, "velocity": 122, "duration": 185}, {"note": 71, "velocity": 100, "duration": 308}, {"note": 0, "velocity": 0, "duration": 172}, {"note": 71, "velocity": 112, "duration": 156}, {"note": 0, "velocity": 0, "duration": 84}, {"note": 74, "velocity": 122, "duration": 149}, {"note": 0, "velocity": 0, "duration": 91}, {"note": 79, "velocity": 122, "duration": 43}, {"note": 0, "velocity": 0, "duration": 77}, {"note": 79, "velocity": 102, "duration": 43}, {"note": 0, "velocity": 0, "duration": 77}, {"note": 79, "velocity": 102, "duration": 43}, {"note": 0, "velocity": 0, "duration": 77}, {"note": 79, "velocity": 122, "duration": 50}, {"note": 0, "velocity": 0, "duration": 70}, {"note": 76, "velocity": 127, "duration": 100}, {"note": 0, "velocity": 0, "duration": 140}, {"note": 74, "velocity": 127, "duration": 104}, {"note": 0, "velocity": 0, "duration": 136}, {"note": 74, "velocity": 127, "duration": 37}, {"note": 0, "velocity": 0, "duration": 83}, {"note": 74, "velocity": 96, "duration": 40}, {"note": 0, "velocity": 0, "duration": 80}, {"note": 74, "velocity": 96, "duration": 37}, {"note": 0, "velocity": 0, "duration": 83}, {"note": 74, "velocity": 99, "duration": 51}, {"note": 0, "velocity": 0, "duration": 69}, {"note": 69, "velocity": 127, "duration": 102}, {"note": 0, "velocity": 0, "duration": 138}, {"note": 67, "velocity": 107, "duration": 107}, {"note": 0, "velocity": 0, "duration": 133}, {"note": 69, "velocity": 127, "duration": 42}, {"note": 0, "velocity": 0, "duration": 78}, {"note": 69, "velocity": 88, "duration": 39}, {"note": 0, "velocity": 0, "duration": 81}, {"note": 69, "velocity": 102, "duration": 72}, {"note": 71, "velocity": 117, "duration": 61}, {"note": 69, "velocity": 127, "duration": 107}, {"note": 67, "velocity": 85, "duration": 95}, {"note": 64, "velocity": 100, "duration": 197}, {"note": 67, "velocity": 117, "duration": 528}]]