[[{"note": 63, "velocity": 92, "duration": 197}, {"note": 61, "velocity": 50, "duration": 168}, {"note": 0, "velocity": 0, "duration": 72}, {"note": 63, "velocity": 79, "duration": 253}, {"note": 0, "velocity": 0, "duration": 107}, {"note": 61, "velocity": 74, "duration": 67}, {"note": 63, "velocity": 82, "duration": 118}, {"note": 61, "velocity": 82, "duration": 133}, {"note": 63, "velocity": 83, "duration": 382}, {"note": 0, "velocity": 0, "duration": 338}, {"note": 63, "velocity": 99, "duration": 133}, {"note": 0, "velocity": 0, "duration": 107}, {"note": 61, "velocity": 86, "duration": 85}, {"note": 0, "velocity": 0, "duration": 155}, {"note": 63, "velocity": 89, "duration": 147}, {"note": 0, "velocity": 0, "duration": 93}, {"note": 61, "velocity": 88, "duration": 68}, {"note": 63, "velocity": 90, "duration": 427}, {"note": 0, "velocity": 0, "duration": 413}, {"note": 66, "velocity": 78, "duration": 83}, {"note": 63, "velocity": 75, "duration": 68}, {"note": 66, "velocity": 90, "duration": 133}, {"note": 63, "velocity": 78, "duration": 926}, {"note": 0, "velocity": 0, "duration": 634}, {"note": 58, "velocity": 76, "duration": 279}, {"note": 56, "velocity": 69, "duration": 942}, {"note": 0, "velocity": 0, "duration": 978}, {"note": 63, "velocity": 102, "duration": 188}, {"note": 61, "velocity": 75, "duration": 73}, {"note": 63, "velocity": 85, "duration": 385}, {"note": 0, "velocity": 0, "duration": 95}, {"note": 61, "velocity": 89, "duration": 72}, {"note": 63, "velocity": 85, "duration": 109}, {"note": 61, "velocity": 78, "duration": 78}, {"note": 63, "velocity": 96, "duration": 477}, {"note": 0, "velocity": 0, "duration": 243}, {"note": 63, "velocity": 92, "duration": 156}, {"note": 0, "velocity": 0, "duration": 84}, {"note": 61, "velocity": 81, "duration": 62}, {"note": 63, "velocity": 89, "duration": 268}, {"note": 0, "velocity": 0, "duration": 92}, {"note": 61, "velocity": 90, "duration": 54}, {"note": 0, "velocity": 0, "duration": 66}, {"note": 63, "velocity": 90, "duration": 285}, {"note": 0, "velocity": 0, "duration": 555}, {"note": 66, "velocity": 97, "duration": 72}, {"note": 63, "velocity": 78, "duration": 69}, {"note": 66, "velocity": 96, "duration": 85}, {"note": 63, "velocity": 78, "duration": 1169}, {"note": 0, "velocity": 0, "duration": 511}, {"note": 56, "velocity": 82, "duration": 111}, {"note": 58, "velocity": 61, "duration": 125}, {"note": 56, "velocity": 82, "duration": 650}, {"note": 0, "velocity": 0, "duration": 1150}, {"note": 63, "velocity": 89, "duration": 222}, {"note": 64, "velocity": 92, "duration": 200}, {"note": 71, "velocity": 89, "duration": 173}, {"note": 0, "velocity": 0, "duration": 67}, {"note": 63, "velocity": 74, "duration": 245}, {"note": 64, "velocity": 92, "duration": 231}, {"note": 71, "velocity": 102, "duration": 383}, {"note": 0, "velocity": 0, "duration": 97}, {"note": 70, "velocity": 102, "duration": 669}, {"note": 0, "velocity": 0, "duration": 1251}, {"note": 61, "velocity": 88, "duration": 140}, {"note": 0, "velocity": 0, "duration": 100}, {"note": 61, "velocity": 93, "duration": 213}, {"note": 63, "velocity": 97, "duration": 171}, {"note": 0, "velocity": 0, "duration": 69}, {"note": 70, "velocity": 96, "duration": 176}, {"note": 0, "velocity": 0, "duration": 64}, {"note": 61, "velocity": 90, "duration": 182}, {"note": 63, "velocity": 96, "duration": 176}, {"note": 0, "velocity": 0, "duration": 64}, {"note": 70, "velocity": 95, "duration": 333}, {"note": 0, "velocity": 0, "duration": 147}, {"note": 68, "velocity": 97, "duration": 1105}, {"note": 0, "velocity": 0, "duration": 1055}, {"note": 63, "velocity": 97, "duration": 197}, {"note": 64, "velocity": 93, "duration": 141}, {"note": 0, "velocity": 0, "duration": 99}, {"note": 71, "velocity": 97, "duration": 140}, {"note": 0, "velocity": 0, "duration": 100}, {"note": 63, "velocity": 93, "duration": 167}, {"note": 0, "velocity": 0, "duration": 73}, {"note": 64, "velocity": 102, "duration": 169}, {"note": 0, "velocity": 0, "duration": 71}, {"note": 71, "velocity": 122, "duration": 329}, {"note": 0, "velocity": 0, "duration": 151}, {"note": 70, "velocity": 117, "duration": 731}, {"note": 0, "velocity": 0, "duration": 469}, {"note": 70, "velocity": 117, "duration": 121}, {"note": 0, "velocity": 0, "duration": 119}, {"note": 66, "velocity": 95, "duration": 185}, {"note": 0, "velocity": 0, "duration": 295}, {"note": 71, "velocity": 122, "duration": 1474}, {"note": 0, "velocity": 0, "duration": 1886}, {"note": 66, "velocity": 95, "duration": 183}, {"note": 71, "velocity": 112, "duration": 180}, {"note": 73, "velocity": 117, "duration": 142}, {"note": 0, "velocity": 0, "duration": 98}, {"note": 76, "velocity": 127, "duration": 365}, {"note": 75, "velocity": 97, "duration": 113}, {"note": 0, "velocity": 0, "duration": 115}, {"note": 66, "velocity": 96, "duration": 185}, {"note": 76, "velocity": 107, "duration": 235}, {"note": 75, "velocity": 127, "duration": 227}, {"note": 66, "velocity": 97, "duration": 204}, {"note": 76, "velocity": 112, "duration": 175}, {"note": 0, "velocity": 0, "duration": 65}, {"note": 75, "velocity": 122, "duration": 928}, {"note": 0, "velocity": 0, "duration": 512}, {"note": 75, "velocity": 117, "duration": 148}, {"note": 0, "velocity": 0, "duration": 92}, {"note": 78, "velocity": 127, "duration": 202}, {"note": 66, "velocity": 96, "duration": 195}, {"note": 73, "velocity": 112, "duration": 225}, {"note": 71, "velocity": 93, "duration": 216}, {"note": 63, "velocity": 99, "duration": 188}, {"note": 73, "velocity": 127, "duration": 144}, {"note": 0, "velocity": 0, "duration": 96}, {"note": 71, "velocity": 127, "duration": 210}, {"note": 63, "velocity": 95, "duration": 190}, {"note": 70, "velocity": 107, "duration": 159}, {"note": 0, "velocity": 0, "duration": 201}, {"note": 68, "velocity": 107, "duration": 855}, {"note": 0, "velocity": 0, "duration": 465}, {"note": 68, "velocity": 100, "duration": 135}, {"note": 0, "velocity": 0, "duration": 105}, {"note": 71, "velocity": 117, "duration": 176}, {"note": 0, "velocity": 0, "duration": 64}, {"note": 73, "velocity": 112, "duration": 135}, {"note": 0, "velocity": 0, "duration": 105}, {"note": 75, "velocity": 127, "duration": 187}, {"note": 73, "velocity": 122, "duration": 147}, {"note": 0, "velocity": 0, "duration": 93}, {"note": 68, "velocity": 112, "duration": 195}, {"note": 75, "velocity": 112, "duration": 134}, {"note": 0, "velocity": 0, "duration": 106}, {"note": 73, "velocity": 127, "duration": 266}, {"note": 0, "velocity": 0, "duration": 94}, {"note": 68, "velocity": 95, "duration": 207}, {"note": 0, "velocity": 0, "duration": 153}, {"note": 67, "velocity": 107, "duration": 760}, {"note": 0, "velocity": 0, "duration": 200}, {"note": 69, "velocity": 117, "duration": 248}, {"note": 0, "velocity": 0, "duration": 232}, {"note": 67, "velocity": 122, "duration": 298}, {"note": 0, "velocity": 0, "duration": 182}, {"note": 66, "velocity": 107, "duration": 427}, {"note": 0, "velocity": 0, "duration": 293}, {"note": 68, "velocity": 107, "duration": 149}, {"note": 0, "velocity": 0, "duration": 91}, {"note": 70, "velocity": 127, "duration": 351}, {"note": 0, "velocity": 0, "duration": 369}, {"note": 71, "velocity": 117, "duration": 83}, {"note": 0, "velocity": 0, "duration": 157}, {"note": 70, "velocity": 122, "duration": 197}, {"note": 0, "velocity": 0, "duration": 163}, {"note": 68, "velocity": 99, "duration": 105}, {"note": 66, "velocity": 100, "duration": 265}, {"note": 0, "velocity": 0, "duration": 695}, {"note": 66, "velocity": 99, "duration": 160}, {"note": 0, "velocity": 0, "duration": 80}, {"note": 71, "velocity": 127, "duration": 150}, {"note": 0, "velocity": 0, "duration": 90}, {"note": 73, "velocity": 127, "duration": 144}, {"note": 0, "velocity": 0, "duration": 96}, {"note": 76, "velocity": 127, "duration": 176}, {"note": 0, "velocity": 0, "duration": 64}, {"note": 75, "velocity": 127, "duration": 196}, {"note": 66, "velocity": 117, "duration": 156}, {"note": 0, "velocity": 0, "duration": 84}, {"note": 76, "velocity": 122, "duration": 150}, {"note": 0, "velocity": 0, "duration": 90}, {"note": 75, "velocity": 127, "duration": 233}, {"note": 66, "velocity": 99, "duration": 177}, {"note": 0, "velocity": 0, "duration": 63}, {"note": 76, "velocity": 122, "duration": 157}, {"note": 0, "velocity": 0, "duration": 83}, {"note": 75, "velocity": 127, "duration": 465}, {"note": 76, "velocity": 117, "duration": 107}, {"note": 78, "velocity": 102, "duration": 715}, {"note": 0, "velocity": 0, "duration": 245}, {"note": 75, "velocity": 112, "duration": 159}, {"note": 0, "velocity": 0, "duration": 81}, {"note": 78, "velocity": 127, "duration": 141}, {"note": 0, "velocity": 0, "duration": 99}, {"note": 66, "velocity": 102, "duration": 155}, {"note": 0, "velocity": 0, "duration": 85}, {"note": 73, "velocity": 127, "duration": 210}, {"note": 71, "velocity": 127, "duration": 140}, {"note": 0, "velocity": 0, "duration": 100}, {"note": 63, "velocity": 102, "duration": 156}, {"note": 0, "velocity": 0, "duration": 84}, {"note": 73, "velocity": 122, "duration": 171}, {"note": 0, "velocity": 0, "duration": 69}, {"note": 71, "velocity": 127, "duration": 178}, {"note": 0, "velocity": 0, "duration": 62}, {"note": 75, "velocity": 122, "duration": 167}, {"note": 0, "velocity": 0, "duration": 73}, {"note": 70, "velocity": 107, "duration": 158}, {"note": 0, "velocity": 0, "duration": 82}, {"note": 68, "velocity": 112, "duration": 592}, {"note": 0, "velocity": 0, "duration": 848}, {"note": 68, "velocity": 102, "duration": 159}, {"note": 0, "velocity": 0, "duration": 81}, {"note": 71, "velocity": 127, "duration": 139}, {"note": 0, "velocity": 0, "duration": 101}, {"note": 73, "velocity": 127, "duration": 143}, {"note": 0, "velocity": 0, "duration": 97}, {"note": 75, "velocity": 127, "duration": 178}, {"note": 0, "velocity": 0, "duration": 62}, {"note": 73, "velocity": 96, "duration": 184}, {"note": 68, "velocity": 100, "duration": 156}, {"note": 0, "velocity": 0, "duration": 84}, {"note": 75, "velocity": 117, "duration": 172}, {"note": 0, "velocity": 0, "duration": 68}, {"note": 73, "velocity": 127, "duration": 221}, {"note": 0, "velocity": 0, "duration": 139}, {"note": 68, "velocity": 112, "duration": 161}, {"note": 0, "velocity": 0, "duration": 199}, {"note": 67, "velocity": 127, "duration": 661}, {"note": 0, "velocity": 0, "duration": 299}, {"note": 69, "velocity": 122, "duration": 347}, {"note": 0, "velocity": 0, "duration": 133}, {"note": 67, "velocity": 127, "duration": 316}, {"note": 0, "velocity": 0, "duration": 164}, {"note": 66, "velocity": 127, "duration": 533}, {"note": 0, "velocity": 0, "duration": 187}, {"note": 68, "velocity": 122, "duration": 192}, {"note": 70, "velocity": 127, "duration": 385}, {"note": 0, "velocity": 0, "duration": 335}, {"note": 71, "velocity": 127, "duration": 167}, {"note": 0, "velocity": 0, "duration": 73}, {"note": 75, "velocity": 127, "duration": 1384}, {"note": 75, "velocity": 107, "duration": 179}, {"note": 0, "velocity": 0, "duration": 61}, {"note": 68, "velocity": 102, "duration": 188}, {"note": 78, "velocity": 127, "duration": 174}, {"note": 0, "velocity": 0, "duration": 66}, {"note": 78, "velocity": 127, "duration": 208}, {"note": 76, "velocity": 122, "duration": 154}, {"note": 0, "velocity": 0, "duration": 86}, {"note": 68, "velocity": 112, "duration": 204}, {"note": 78, "velocity": 122, "duration": 175}, {"note": 0, "velocity": 0, "duration": 65}, {"note": 76, "velocity": 127, "duration": 225}, {"note": 68, "velocity": 102, "duration": 88}, {"note": 0, "velocity": 0, "duration": 152}, {"note": 71, "velocity": 122, "duration": 150}, {"note": 0, "velocity": 0, "duration": 90}, {"note": 70, "velocity": 122, "duration": 714}, {"note": 0, "velocity": 0, "duration": 486}, {"note": 70, "velocity": 117, "duration": 355}, {"note": 0, "velocity": 0, "duration": 125}, {"note": 66, "velocity": 102, "duration": 286}, {"note": 0, "velocity": 0, "duration": 194}, {"note": 71, "velocity": 117, "duration": 1202}, {"note": 0, "velocity": 0, "duration": 2638}, {"note": 63, "velocity": 102, "duration": 188}, {"note": 61, "velocity": 75, "duration": 73}, {"note": 63, "velocity": 85, "duration": 385}, {"note": 0, "velocity": 0, "duration": 95}, {"note": 61, "velocity": 89, "duration": 72}, {"note": 63, "velocity": 85, "duration": 109}, {"note": 61, "velocity": 78, "duration": 78}, {"note": 63, "velocity": 96, "duration": 477}, {"note": 0, "velocity": 0, "duration": 243}, {"note": 63, "velocity": 92, "duration": 156}, {"note": 0, "velocity": 0, "duration": 84}, {"note": 61, "velocity": 81, "duration": 62}, {"note": 0, "velocity": 0, "duration": 178}, {"note": 63, "velocity": 89, "duration": 268}, {"note": 61, "velocity": 90, "duration": 54}, {"note": 0, "velocity": 0, "duration": 66}, {"note": 63, "velocity": 90, "duration": 285}, {"note": 0, "velocity": 0, "duration": 555}, {"note": 66, "velocity": 97, "duration": 72}, {"note": 63, "velocity": 78, "duration": 69}, {"note": 66, "velocity": 96, "duration": 85}, {"note": 63, "velocity": 78, "duration": 1169}, {"note": 0, "velocity": 0, "duration": 2551}, {"note": 63, "velocity": 112, "duration": 189}, {"note": 61, "velocity": 93, "duration": 76}, {"note": 63, "velocity": 117, "duration": 443}, {"note": 61, "velocity": 95, "duration": 52}, {"note": 0, "velocity": 0, "duration": 68}, {"note": 63, "velocity": 102, "duration": 68}, {"note": 61, "velocity": 95, "duration": 53}, {"note": 0, "velocity": 0, "duration": 67}, {"note": 63, "velocity": 112, "duration": 328}, {"note": 0, "velocity": 0, "duration": 392}, {"note": 63, "velocity": 117, "duration": 122}, {"note": 0, "velocity": 0, "duration": 118}, {"note": 61, "velocity": 102, "duration": 52}, {"note": 0, "velocity": 0, "duration": 68}, {"note": 63, "velocity": 117, "duration": 235}, {"note": 0, "velocity": 0, "duration": 125}, {"note": 61, "velocity": 100, "duration": 38}, {"note": 0, "velocity": 0, "duration": 82}, {"note": 63, "velocity": 112, "duration": 405}, {"note": 0, "velocity": 0, "duration": 435}, {"note": 66, "velocity": 100, "duration": 66}, {"note": 63, "velocity": 83, "duration": 53}, {"note": 0, "velocity": 0, "duration": 67}, {"note": 66, "velocity": 89, "duration": 39}, {"note": 0, "velocity": 0, "duration": 81}, {"note": 63, "velocity": 102, "duration": 987}, {"note": 0, "velocity": 0, "duration": 2733}, {"note": 63, "velocity": 89, "duration": 222}, {"note": 64, "velocity": 92, "duration": 200}, {"note": 71, "velocity": 89, "duration": 173}, {"note": 0, "velocity": 0, "duration": 67}, {"note": 63, "velocity": 74, "duration": 245}, {"note": 64, "velocity": 92, "duration": 231}, {"note": 71, "velocity": 102, "duration": 383}, {"note": 0, "velocity": 0, "duration": 97}, {"note": 70, "velocity": 102, "duration": 669}, {"note": 0, "velocity": 0, "duration": 1251}, {"note": 61, "velocity": 88, "duration": 140}, {"note": 0, "velocity": 0, "duration": 100}, {"note": 61, "velocity": 93, "duration": 213}, {"note": 63, "velocity": 97, "duration": 171}, {"note": 0, "velocity": 0, "duration": 69}, {"note": 70, "velocity": 96, "duration": 176}, {"note": 0, "velocity": 0, "duration": 64}, {"note": 61, "velocity": 90, "duration": 182}, {"note": 63, "velocity": 96, "duration": 176}, {"note": 0, "velocity": 0, "duration": 64}, {"note": 70, "velocity": 95, "duration": 333}, {"note": 0, "velocity": 0, "duration": 147}, {"note": 68, "velocity": 97, "duration": 1105}, {"note": 0, "velocity": 0, "duration": 1055}, {"note": 63, "velocity": 97, "duration": 197}, {"note": 64, "velocity": 93, "duration": 141}, {"note": 0, "velocity": 0, "duration": 99}, {"note": 71, "velocity": 97, "duration": 140}, {"note": 0, "velocity": 0, "duration": 100}, {"note": 63, "velocity": 93, "duration": 167}, {"note": 0, "velocity": 0, "duration": 73}, {"note": 64, "velocity": 102, "duration": 169}, {"note": 0, "velocity": 0, "duration": 71}, {"note": 71, "velocity": 122, "duration": 329}, {"note": 0, "velocity": 0, "duration": 151}, {"note": 70, "velocity": 117, "duration": 731}, {"note": 0, "velocity": 0, "duration": 469}, {"note": 70, "velocity": 117, "duration": 121}, {"note": 0, "velocity": 0, "duration": 119}, {"note": 66, "velocity": 95, "duration": 185}, {"note": 0, "velocity": 0, "duration": 295}, {"note": 71, "velocity": 122, "duration": 1474}, {"note": 0, "velocity": 0, "duration": 206}, {"note": 71, "velocity": 122, "duration": 237}, {"note": 73, "velocity": 112, "duration": 1188}, {"note": 0, "velocity": 0, "duration": 252}, {"note": 66, "velocity": 95, "duration": 183}, {"note": 71, "velocity": 112, "duration": 180}, {"note": 73, "velocity": 117, "duration": 142}, {"note": 0, "velocity": 0, "duration": 98}, {"note": 76, "velocity": 127, "duration": 208}, {"note": 75, "velocity": 97, "duration": 113}, {"note": 0, "velocity": 0, "duration": 127}, {"note": 66, "velocity": 96, "duration": 185}, {"note": 76, "velocity": 107, "duration": 235}, {"note": 75, "velocity": 127, "duration": 227}, {"note": 66, "velocity": 97, "duration": 204}, {"note": 76, "velocity": 112, "duration": 175}, {"note": 0, "velocity": 0, "duration": 65}, {"note": 75, "velocity": 122, "duration": 928}, {"note": 0, "velocity": 0, "duration": 512}, {"note": 75, "velocity": 117, "duration": 148}, {"note": 0, "velocity": 0, "duration": 92}, {"note": 78, "velocity": 127, "duration": 202}, {"note": 66, "velocity": 96, "duration": 195}, {"note": 73, "velocity": 112, "duration": 225}, {"note": 71, "velocity": 93, "duration": 216}, {"note": 63, "velocity": 99, "duration": 188}, {"note": 73, "velocity": 127, "duration": 144}, {"note": 0, "velocity": 0, "duration": 96}, {"note": 71, "velocity": 127, "duration": 210}, {"note": 63, "velocity": 95, "duration": 190}, {"note": 70, "velocity": 107, "duration": 159}, {"note": 0, "velocity": 0, "duration": 201}, {"note": 68, "velocity": 107, "duration": 855}, {"note": 0, "velocity": 0, "duration": 465}, {"note": 68, "velocity": 100, "duration": 135}, {"note": 0, "velocity": 0, "duration": 105}, {"note": 71, "velocity": 117, "duration": 176}, {"note": 0, "velocity": 0, "duration": 64}, {"note": 73, "velocity": 112, "duration": 135}, {"note": 0, "velocity": 0, "duration": 105}, {"note": 75, "velocity": 127, "duration": 187}, {"note": 73, "velocity": 122, "duration": 147}, {"note": 0, "velocity": 0, "duration": 93}, {"note": 68, "velocity": 112, "duration": 195}, {"note": 75, "velocity": 112, "duration": 134}, {"note": 0, "velocity": 0, "duration": 106}, {"note": 73, "velocity": 127, "duration": 266}, {"note": 0, "velocity": 0, "duration": 94}, {"note": 68, "velocity": 95, "duration": 207}, {"note": 0, "velocity": 0, "duration": 153}, {"note": 67, "velocity": 107, "duration": 760}, {"note": 0, "velocity": 0, "duration": 200}, {"note": 69, "velocity": 117, "duration": 248}, {"note": 0, "velocity": 0, "duration": 232}, {"note": 67, "velocity": 122, "duration": 298}, {"note": 0, "velocity": 0, "duration": 182}, {"note": 66, "velocity": 107, "duration": 427}, {"note": 0, "velocity": 0, "duration": 293}, {"note": 68, "velocity": 107, "duration": 149}, {"note": 0, "velocity": 0, "duration": 91}, {"note": 70, "velocity": 127, "duration": 351}, {"note": 0, "velocity": 0, "duration": 369}, {"note": 71, "velocity": 117, "duration": 83}, {"note": 0, "velocity": 0, "duration": 157}, {"note": 70, "velocity": 122, "duration": 197}, {"note": 0, "velocity": 0, "duration": 163}, {"note": 68, "velocity": 99, "duration": 105}, {"note": 66, "velocity": 100, "duration": 265}, {"note": 0, "velocity": 0, "duration": 695}, {"note": 66, "velocity": 99, "duration": 160}, {"note": 0, "velocity": 0, "duration": 80}, {"note": 71, "velocity": 127, "duration": 150}, {"note": 0, "velocity": 0, "duration": 90}, {"note": 73, "velocity": 127, "duration": 144}, {"note": 0, "velocity": 0, "duration": 96}, {"note": 76, "velocity": 127, "duration": 176}, {"note": 0, "velocity": 0, "duration": 64}, {"note": 75, "velocity": 127, "duration": 196}, {"note": 66, "velocity": 117, "duration": 156}, {"note": 0, "velocity": 0, "duration": 84}, {"note": 76, "velocity": 122, "duration": 150}, {"note": 0, "velocity": 0, "duration": 90}, {"note": 75, "velocity": 127, "duration": 233}, {"note": 66, "velocity": 99, "duration": 177}, {"note": 0, "velocity": 0, "duration": 63}, {"note": 76, "velocity": 122, "duration": 157}, {"note": 0, "velocity": 0, "duration": 83}, {"note": 75, "velocity": 127, "duration": 465}, {"note": 76, "velocity": 117, "duration": 107}, {"note": 78, "velocity": 102, "duration": 715}, {"note": 0, "velocity": 0, "duration": 245}, {"note": 75, "velocity": 112, "duration": 159}, {"note": 0, "velocity": 0, "duration": 81}, {"note": 78, "velocity": 127, "duration": 141}, {"note": 0, "velocity": 0, "duration": 99}, {"note": 66, "velocity": 102, "duration": 155}, {"note": 0, "velocity": 0, "duration": 85}, {"note": 73, "velocity": 127, "duration": 210}, {"note": 71, "velocity": 127, "duration": 140}, {"note": 0, "velocity": 0, "duration": 100}, {"note": 63, "velocity": 102, "duration": 156}, {"note": 0, "velocity": 0, "duration": 84}, {"note": 73, "velocity": 122, "duration": 171}, {"note": 0, "velocity": 0, "duration": 69}, {"note": 71, "velocity": 127, "duration": 178}, {"note": 0, "velocity": 0, "duration": 62}, {"note": 75, "velocity": 122, "duration": 167}, {"note": 0, "velocity": 0, "duration": 73}, {"note": 70, "velocity": 107, "duration": 158}, {"note": 0, "velocity": 0, "duration": 82}, {"note": 68, "velocity": 112, "duration": 592}, {"note": 0, "velocity": 0, "duration": 848}, {"note": 68, "velocity": 102, "duration": 159}, {"note": 0, "velocity": 0, "duration": 81}, {"note": 71, "velocity": 127, "duration": 139}, {"note": 0, "velocity": 0, "duration": 101}, {"note": 73, "velocity": 127, "duration": 143}, {"note": 0, "velocity": 0, "duration": 97}, {"note": 75, "velocity": 127, "duration": 178}, {"note": 0, "velocity": 0, "duration": 62}, {"note": 73, "velocity": 96, "duration": 184}, {"note": 68, "velocity": 100, "duration": 156}, {"note": 0, "velocity": 0, "duration": 84}, {"note": 75, "velocity": 117, "duration": 172}, {"note": 0, "velocity": 0, "duration": 68}, {"note": 73, "velocity": 127, "duration": 221}, {"note": 0, "velocity": 0, "duration": 139}, {"note": 68, "velocity": 112, "duration": 161}, {"note": 0, "velocity": 0, "duration": 199}, {"note": 67, "velocity": 127, "duration": 661}, {"note": 0, "velocity": 0, "duration": 299}, {"note": 69, "velocity": 122, "duration": 347}, {"note": 0, "velocity": 0, "duration": 133}, {"note": 67, "velocity": 127, "duration": 316}, {"note": 0, "velocity": 0, "duration": 164}, {"note": 66, "velocity": 127, "duration": 533}, {"note": 0, "velocity": 0, "duration": 187}, {"note": 68, "velocity": 122, "duration": 192}, {"note": 70, "velocity": 127, "duration": 385}, {"note": 0, "velocity": 0, "duration": 335}, {"note": 71, "velocity": 127, "duration": 167}, {"note": 0, "velocity": 0, "duration": 73}, {"note": 75, "velocity": 127, "duration": 1384}, {"note": 75, "velocity": 107, "duration": 179}, {"note": 0, "velocity": 0, "duration": 61}, {"note": 68, "velocity": 102, "duration": 188}, {"note": 78, "velocity": 127, "duration": 174}, {"note": 0, "velocity": 0, "duration": 66}, {"note": 78, "velocity": 127, "duration": 208}, {"note": 76, "velocity": 122, "duration": 154}, {"note": 0, "velocity": 0, "duration": 86}, {"note": 68, "velocity": 112, "duration": 204}, {"note": 78, "velocity": 122, "duration": 175}, {"note": 0, "velocity": 0, "duration": 65}, {"note": 76, "velocity": 127, "duration": 225}, {"note": 68, "velocity": 102, "duration": 88}, {"note": 0, "velocity": 0, "duration": 152}, {"note": 71, "velocity": 122, "duration": 150}, {"note": 0, "velocity": 0, "duration": 90}, {"note": 70, "velocity": 122, "duration": 714}, {"note": 0, "velocity": 0, "duration": 486}, {"note": 70, "velocity": 117, "duration": 355}, {"note": 0, "velocity": 0, "duration": 125}, {"note": 66, "velocity": 102, "duration": 286}, {"note": 0, "velocity": 0, "duration": 194}, {"note": 71, "velocity": 117, "duration": 1202}]]