[[{"note": 71, "velocity": 96, "duration": 64}, {"note": 79, "velocity": 110, "duration": 67}, {"note": 79, "velocity": 114, "duration": 118}, {"note": 0, "velocity": 0, "duration": 122}, {"note": 74, "velocity": 89, "duration": 64}, {"note": 79, "velocity": 107, "duration": 66}, {"note": 79, "velocity": 89, "duration": 43}, {"note": 0, "velocity": 0, "duration": 197}, {"note": 74, "velocity": 100, "duration": 67}, {"note": 79, "velocity": 104, "duration": 67}, {"note": 79, "velocity": 107, "duration": 99}, {"note": 0, "velocity": 0, "duration": 141}, {"note": 74, "velocity": 88, "duration": 115}, {"note": 79, "velocity": 93, "duration": 80}, {"note": 79, "velocity": 93, "duration": 117}, {"note": 0, "velocity": 0, "duration": 123}, {"note": 74, "velocity": 85, "duration": 126}, {"note": 79, "velocity": 87, "duration": 84}, {"note": 79, "velocity": 91, "duration": 91}, {"note": 0, "velocity": 0, "duration": 269}, {"note": 74, "velocity": 94, "duration": 129}, {"note": 76, "velocity": 102, "duration": 136}, {"note": 0, "velocity": 0, "duration": 1064}, {"note": 71, "velocity": 88, "duration": 117}, {"note": 79, "velocity": 102, "duration": 68}, {"note": 79, "velocity": 100, "duration": 93}, {"note": 0, "velocity": 0, "duration": 147}, {"note": 74, "velocity": 92, "duration": 67}, {"note": 79, "velocity": 94, "duration": 60}, {"note": 79, "velocity": 98, "duration": 72}, {"note": 0, "velocity": 0, "duration": 168}, {"note": 74, "velocity": 91, "duration": 60}, {"note": 79, "velocity": 92, "duration": 60}, {"note": 79, "velocity": 94, "duration": 85}, {"note": 0, "velocity": 0, "duration": 155}, {"note": 74, "velocity": 90, "duration": 60}, {"note": 79, "velocity": 98, "duration": 61}, {"note": 79, "velocity": 93, "duration": 72}, {"note": 0, "velocity": 0, "duration": 168}, {"note": 74, "velocity": 87, "duration": 52}, {"note": 0, "velocity": 0, "duration": 68}, {"note": 79, "velocity": 91, "duration": 56}, {"note": 0, "velocity": 0, "duration": 64}, {"note": 79, "velocity": 91, "duration": 76}, {"note": 0, "velocity": 0, "duration": 164}, {"note": 79, "velocity": 85, "duration": 126}, {"note": 81, "velocity": 92, "duration": 86}, {"note": 83, "velocity": 107, "duration": 149}, {"note": 0, "velocity": 0, "duration": 931}, {"note": 84, "velocity": 98, "duration": 123}, {"note": 81, "velocity": 90, "duration": 118}, {"note": 76, "velocity": 89, "duration": 109}, {"note": 84, "velocity": 104, "duration": 153}, {"note": 0, "velocity": 0, "duration": 87}, {"note": 81, "velocity": 98, "duration": 117}, {"note": 0, "velocity": 0, "duration": 123}, {"note": 76, "velocity": 92, "duration": 77}, {"note": 83, "velocity": 114, "duration": 100}, {"note": 81, "velocity": 91, "duration": 102}, {"note": 76, "velocity": 80, "duration": 67}, {"note": 83, "velocity": 110, "duration": 158}, {"note": 0, "velocity": 0, "duration": 82}, {"note": 81, "velocity": 104, "duration": 128}, {"note": 0, "velocity": 0, "duration": 232}, {"note": 81, "velocity": 114, "duration": 161}, {"note": 0, "velocity": 0, "duration": 79}, {"note": 79, "velocity": 110, "duration": 138}, {"note": 0, "velocity": 0, "duration": 102}, {"note": 79, "velocity": 114, "duration": 146}, {"note": 0, "velocity": 0, "duration": 94}, {"note": 78, "velocity": 119, "duration": 141}, {"note": 0, "velocity": 0, "duration": 99}, {"note": 76, "velocity": 110, "duration": 155}, {"note": 0, "velocity": 0, "duration": 805}, {"note": 78, "velocity": 119, "duration": 72}, {"note": 78, "velocity": 109, "duration": 49}, {"note": 0, "velocity": 0, "duration": 71}, {"note": 78, "velocity": 109, "duration": 99}, {"note": 74, "velocity": 114, "duration": 181}, {"note": 0, "velocity": 0, "duration": 899}, {"note": 74, "velocity": 116, "duration": 151}, {"note": 0, "velocity": 0, "duration": 89}, {"note": 71, "velocity": 114, "duration": 126}, {"note": 0, "velocity": 0, "duration": 114}, {"note": 76, "velocity": 114, "duration": 220}, {"note": 0, "velocity": 0, "duration": 1820}, {"note": 71, "velocity": 96, "duration": 64}, {"note": 79, "velocity": 110, "duration": 67}, {"note": 79, "velocity": 114, "duration": 118}, {"note": 0, "velocity": 0, "duration": 122}, {"note": 74, "velocity": 89, "duration": 64}, {"note": 79, "velocity": 107, "duration": 66}, {"note": 79, "velocity": 89, "duration": 43}, {"note": 0, "velocity": 0, "duration": 197}, {"note": 74, "velocity": 100, "duration": 67}, {"note": 79, "velocity": 104, "duration": 67}, {"note": 79, "velocity": 107, "duration": 99}, {"note": 0, "velocity": 0, "duration": 141}, {"note": 74, "velocity": 88, "duration": 115}, {"note": 79, "velocity": 93, "duration": 80}, {"note": 79, "velocity": 93, "duration": 117}, {"note": 0, "velocity": 0, "duration": 123}, {"note": 74, "velocity": 85, "duration": 126}, {"note": 79, "velocity": 87, "duration": 84}, {"note": 79, "velocity": 91, "duration": 91}, {"note": 0, "velocity": 0, "duration": 269}, {"note": 74, "velocity": 94, "duration": 129}, {"note": 76, "velocity": 102, "duration": 136}, {"note": 0, "velocity": 0, "duration": 1064}, {"note": 71, "velocity": 88, "duration": 117}, {"note": 79, "velocity": 102, "duration": 68}, {"note": 79, "velocity": 100, "duration": 93}, {"note": 0, "velocity": 0, "duration": 147}, {"note": 74, "velocity": 92, "duration": 67}, {"note": 79, "velocity": 94, "duration": 60}, {"note": 79, "velocity": 98, "duration": 72}, {"note": 0, "velocity": 0, "duration": 168}, {"note": 74, "velocity": 91, "duration": 60}, {"note": 79, "velocity": 92, "duration": 60}, {"note": 79, "velocity": 94, "duration": 85}, {"note": 0, "velocity": 0, "duration": 155}, {"note": 74, "velocity": 90, "duration": 60}, {"note": 79, "velocity": 98, "duration": 61}, {"note": 79, "velocity": 93, "duration": 72}, {"note": 0, "velocity": 0, "duration": 168}, {"note": 74, "velocity": 87, "duration": 52}, {"note": 0, "velocity": 0, "duration": 68}, {"note": 79, "velocity": 91, "duration": 56}, {"note": 0, "velocity": 0, "duration": 64}, {"note": 79, "velocity": 91, "duration": 76}, {"note": 0, "velocity": 0, "duration": 164}, {"note": 79, "velocity": 85, "duration": 126}, {"note": 81, "velocity": 92, "duration": 86}, {"note": 83, "velocity": 107, "duration": 149}, {"note": 0, "velocity": 0, "duration": 931}, {"note": 84, "velocity": 98, "duration": 123}, {"note": 81, "velocity": 90, "duration": 118}, {"note": 76, "velocity": 89, "duration": 109}, {"note": 84, "velocity": 104, "duration": 153}, {"note": 0, "velocity": 0, "duration": 87}, {"note": 81, "velocity": 98, "duration": 117}, {"note": 0, "velocity": 0, "duration": 123}, {"note": 76, "velocity": 92, "duration": 77}, {"note": 83, "velocity": 114, "duration": 100}, {"note": 81, "velocity": 91, "duration": 102}, {"note": 76, "velocity": 80, "duration": 67}, {"note": 83, "velocity": 110, "duration": 158}, {"note": 0, "velocity": 0, "duration": 82}, {"note": 81, "velocity": 104, "duration": 128}, {"note": 0, "velocity": 0, "duration": 232}, {"note": 81, "velocity": 114, "duration": 161}, {"note": 0, "velocity": 0, "duration": 79}, {"note": 79, "velocity": 110, "duration": 138}, {"note": 0, "velocity": 0, "duration": 102}, {"note": 79, "velocity": 114, "duration": 146}, {"note": 0, "velocity": 0, "duration": 94}, {"note": 78, "velocity": 119, "duration": 141}, {"note": 0, "velocity": 0, "duration": 99}, {"note": 76, "velocity": 110, "duration": 155}, {"note": 0, "velocity": 0, "duration": 805}, {"note": 78, "velocity": 119, "duration": 72}, {"note": 78, "velocity": 109, "duration": 49}, {"note": 0, "velocity": 0, "duration": 71}, {"note": 78, "velocity": 109, "duration": 99}, {"note": 74, "velocity": 114, "duration": 181}, {"note": 0, "velocity": 0, "duration": 899}, {"note": 74, "velocity": 116, "duration": 151}, {"note": 0, "velocity": 0, "duration": 89}, {"note": 71, "velocity": 114, "duration": 126}, {"note": 0, "velocity": 0, "duration": 114}, {"note": 76, "velocity": 114, "duration": 220}, {"note": 0, "velocity": 0, "duration": 1220}, {"note": 76, "velocity": 117, "duration": 171}, {"note": 0, "velocity": 0, "duration": 69}, {"note": 79, "velocity": 117, "duration": 142}, {"note": 0, "velocity": 0, "duration": 98}, {"note": 81, "velocity": 117, "duration": 198}, {"note": 0, "velocity": 0, "duration": 282}, {"note": 81, "velocity": 119, "duration": 88}, {"note": 83, "velocity": 119, "duration": 88}, {"note": 81, "velocity": 116, "duration": 82}, {"note": 79, "velocity": 114, "duration": 70}, {"note": 81, "velocity": 119, "duration": 182}, {"note": 0, "velocity": 0, "duration": 298}, {"note": 79, "velocity": 114, "duration": 156}, {"note": 0, "velocity": 0, "duration": 84}, {"note": 81, "velocity": 117, "duration": 125}, {"note": 0, "velocity": 0, "duration": 115}, {"note": 83, "velocity": 119, "duration": 197}, {"note": 83, "velocity": 114, "duration": 108}, {"note": 81, "velocity": 114, "duration": 88}, {"note": 79, "velocity": 116, "duration": 137}, {"note": 0, "velocity": 0, "duration": 103}, {"note": 81, "velocity": 117, "duration": 135}, {"note": 0, "velocity": 0, "duration": 105}, {"note": 83, "velocity": 120, "duration": 178}, {"note": 0, "velocity": 0, "duration": 302}, {"note": 76, "velocity": 110, "duration": 144}, {"note": 0, "velocity": 0, "duration": 96}, {"note": 79, "velocity": 117, "duration": 128}, {"note": 0, "velocity": 0, "duration": 112}, {"note": 81, "velocity": 120, "duration": 166}, {"note": 0, "velocity": 0, "duration": 314}, {"note": 81, "velocity": 120, "duration": 92}, {"note": 83, "velocity": 110, "duration": 71}, {"note": 81, "velocity": 116, "duration": 64}, {"note": 79, "velocity": 114, "duration": 52}, {"note": 0, "velocity": 0, "duration": 68}, {"note": 81, "velocity": 119, "duration": 171}, {"note": 0, "velocity": 0, "duration": 309}, {"note": 79, "velocity": 119, "duration": 120}, {"note": 0, "velocity": 0, "duration": 120}, {"note": 81, "velocity": 117, "duration": 126}, {"note": 0, "velocity": 0, "duration": 114}, {"note": 83, "velocity": 119, "duration": 135}, {"note": 0, "velocity": 0, "duration": 105}, {"note": 83, "velocity": 116, "duration": 95}, {"note": 86, "velocity": 113, "duration": 102}, {"note": 83, "velocity": 116, "duration": 143}, {"note": 0, "velocity": 0, "duration": 97}, {"note": 81, "velocity": 116, "duration": 135}, {"note": 0, "velocity": 0, "duration": 105}, {"note": 83, "velocity": 120, "duration": 196}, {"note": 0, "velocity": 0, "duration": 284}, {"note": 83, "velocity": 116, "duration": 166}, {"note": 0, "velocity": 0, "duration": 74}, {"note": 86, "velocity": 119, "duration": 158}, {"note": 0, "velocity": 0, "duration": 82}, {"note": 88, "velocity": 120, "duration": 135}, {"note": 0, "velocity": 0, "duration": 105}, {"note": 91, "velocity": 117, "duration": 130}, {"note": 0, "velocity": 0, "duration": 110}, {"note": 91, "velocity": 119, "duration": 159}, {"note": 0, "velocity": 0, "duration": 81}, {"note": 88, "velocity": 120, "duration": 140}, {"note": 0, "velocity": 0, "duration": 100}, {"note": 86, "velocity": 123, "duration": 225}, {"note": 0, "velocity": 0, "duration": 255}, {"note": 83, "velocity": 114, "duration": 197}, {"note": 86, "velocity": 116, "duration": 177}, {"note": 0, "velocity": 0, "duration": 63}, {"note": 88, "velocity": 119, "duration": 151}, {"note": 0, "velocity": 0, "duration": 89}, {"note": 88, "velocity": 119, "duration": 80}, {"note": 91, "velocity": 116, "duration": 70}, {"note": 88, "velocity": 120, "duration": 159}, {"note": 0, "velocity": 0, "duration": 81}, {"note": 86, "velocity": 119, "duration": 160}, {"note": 0, "velocity": 0, "duration": 80}, {"note": 88, "velocity": 120, "duration": 232}, {"note": 0, "velocity": 0, "duration": 248}, {"note": 83, "velocity": 116, "duration": 152}, {"note": 0, "velocity": 0, "duration": 88}, {"note": 86, "velocity": 117, "duration": 144}, {"note": 0, "velocity": 0, "duration": 96}, {"note": 88, "velocity": 119, "duration": 117}, {"note": 0, "velocity": 0, "duration": 123}, {"note": 88, "velocity": 119, "duration": 63}, {"note": 91, "velocity": 119, "duration": 83}, {"note": 91, "velocity": 120, "duration": 156}, {"note": 0, "velocity": 0, "duration": 84}, {"note": 88, "velocity": 119, "duration": 128}, {"note": 0, "velocity": 0, "duration": 112}, {"note": 86, "velocity": 123, "duration": 175}, {"note": 0, "velocity": 0, "duration": 65}, {"note": 88, "velocity": 116, "duration": 159}, {"note": 0, "velocity": 0, "duration": 81}, {"note": 83, "velocity": 119, "duration": 188}, {"note": 81, "velocity": 117, "duration": 148}, {"note": 0, "velocity": 0, "duration": 92}, {"note": 79, "velocity": 117, "duration": 401}, {"note": 0, "velocity": 0, "duration": 9319}, {"note": 71, "velocity": 96, "duration": 64}, {"note": 79, "velocity": 110, "duration": 67}, {"note": 79, "velocity": 114, "duration": 118}, {"note": 0, "velocity": 0, "duration": 122}, {"note": 74, "velocity": 89, "duration": 64}, {"note": 79, "velocity": 107, "duration": 66}, {"note": 79, "velocity": 89, "duration": 43}, {"note": 0, "velocity": 0, "duration": 197}, {"note": 74, "velocity": 100, "duration": 67}, {"note": 79, "velocity": 104, "duration": 67}, {"note": 79, "velocity": 107, "duration": 99}, {"note": 0, "velocity": 0, "duration": 141}, {"note": 74, "velocity": 88, "duration": 115}, {"note": 79, "velocity": 93, "duration": 80}, {"note": 79, "velocity": 93, "duration": 117}, {"note": 0, "velocity": 0, "duration": 123}, {"note": 74, "velocity": 85, "duration": 126}, {"note": 79, "velocity": 87, "duration": 84}, {"note": 79, "velocity": 91, "duration": 91}, {"note": 0, "velocity": 0, "duration": 269}, {"note": 74, "velocity": 94, "duration": 129}, {"note": 76, "velocity": 102, "duration": 136}, {"note": 0, "velocity": 0, "duration": 1064}, {"note": 71, "velocity": 88, "duration": 117}, {"note": 79, "velocity": 102, "duration": 68}, {"note": 79, "velocity": 100, "duration": 93}, {"note": 0, "velocity": 0, "duration": 147}, {"note": 74, "velocity": 92, "duration": 67}, {"note": 79, "velocity": 94, "duration": 60}, {"note": 79, "velocity": 98, "duration": 72}, {"note": 0, "velocity": 0, "duration": 168}, {"note": 74, "velocity": 91, "duration": 60}, {"note": 79, "velocity": 92, "duration": 60}, {"note": 79, "velocity": 94, "duration": 85}, {"note": 0, "velocity": 0, "duration": 155}, {"note": 74, "velocity": 90, "duration": 60}, {"note": 79, "velocity": 98, "duration": 61}, {"note": 79, "velocity": 93, "duration": 72}, {"note": 0, "velocity": 0, "duration": 168}, {"note": 74, "velocity": 87, "duration": 52}, {"note": 0, "velocity": 0, "duration": 68}, {"note": 79, "velocity": 91, "duration": 56}, {"note": 0, "velocity": 0, "duration": 64}, {"note": 79, "velocity": 91, "duration": 76}, {"note": 0, "velocity": 0, "duration": 164}, {"note": 79, "velocity": 85, "duration": 126}, {"note": 81, "velocity": 92, "duration": 86}, {"note": 83, "velocity": 107, "duration": 149}, {"note": 0, "velocity": 0, "duration": 931}, {"note": 84, "velocity": 98, "duration": 123}, {"note": 81, "velocity": 90, "duration": 118}, {"note": 76, "velocity": 89, "duration": 109}, {"note": 84, "velocity": 104, "duration": 153}, {"note": 0, "velocity": 0, "duration": 87}, {"note": 81, "velocity": 98, "duration": 117}, {"note": 0, "velocity": 0, "duration": 123}, {"note": 76, "velocity": 92, "duration": 77}, {"note": 83, "velocity": 114, "duration": 100}, {"note": 81, "velocity": 91, "duration": 102}, {"note": 76, "velocity": 80, "duration": 67}, {"note": 83, "velocity": 110, "duration": 158}, {"note": 0, "velocity": 0, "duration": 82}, {"note": 81, "velocity": 104, "duration": 128}, {"note": 0, "velocity": 0, "duration": 232}, {"note": 81, "velocity": 114, "duration": 161}, {"note": 0, "velocity": 0, "duration": 79}, {"note": 79, "velocity": 110, "duration": 138}, {"note": 0, "velocity": 0, "duration": 102}, {"note": 79, "velocity": 114, "duration": 146}, {"note": 0, "velocity": 0, "duration": 94}, {"note": 78, "velocity": 119, "duration": 141}, {"note": 0, "velocity": 0, "duration": 99}, {"note": 76, "velocity": 110, "duration": 155}, {"note": 0, "velocity": 0, "duration": 805}, {"note": 78, "velocity": 119, "duration": 72}, {"note": 78, "velocity": 109, "duration": 49}, {"note": 0, "velocity": 0, "duration": 71}, {"note": 78, "velocity": 109, "duration": 99}, {"note": 74, "velocity": 114, "duration": 181}, {"note": 0, "velocity": 0, "duration": 899}, {"note": 74, "velocity": 116, "duration": 151}, {"note": 0, "velocity": 0, "duration": 89}, {"note": 71, "velocity": 114, "duration": 126}, {"note": 0, "velocity": 0, "duration": 114}, {"note": 76, "velocity": 114, "duration": 220}, {"note": 0, "velocity": 0, "duration": 1820}, {"note": 71, "velocity": 96, "duration": 64}, {"note": 79, "velocity": 110, "duration": 67}, {"note": 79, "velocity": 114, "duration": 118}, {"note": 0, "velocity": 0, "duration": 122}, {"note": 74, "velocity": 89, "duration": 64}, {"note": 79, "velocity": 107, "duration": 66}, {"note": 79, "velocity": 89, "duration": 43}, {"note": 0, "velocity": 0, "duration": 197}, {"note": 74, "velocity": 100, "duration": 67}, {"note": 79, "velocity": 104, "duration": 67}, {"note": 79, "velocity": 107, "duration": 99}, {"note": 0, "velocity": 0, "duration": 141}, {"note": 74, "velocity": 88, "duration": 115}, {"note": 79, "velocity": 93, "duration": 80}, {"note": 79, "velocity": 93, "duration": 117}, {"note": 0, "velocity": 0, "duration": 123}, {"note": 74, "velocity": 85, "duration": 126}, {"note": 79, "velocity": 87, "duration": 84}, {"note": 79, "velocity": 91, "duration": 91}, {"note": 0, "velocity": 0, "duration": 269}, {"note": 74, "velocity": 94, "duration": 129}, {"note": 76, "velocity": 102, "duration": 136}, {"note": 0, "velocity": 0, "duration": 1064}, {"note": 71, "velocity": 88, "duration": 117}, {"note": 79, "velocity": 102, "duration": 68}, {"note": 79, "velocity": 100, "duration": 93}, {"note": 0, "velocity": 0, "duration": 147}, {"note": 74, "velocity": 92, "duration": 67}, {"note": 79, "velocity": 94, "duration": 60}, {"note": 79, "velocity": 98, "duration": 72}, {"note": 0, "velocity": 0, "duration": 168}, {"note": 74, "velocity": 91, "duration": 60}, {"note": 79, "velocity": 92, "duration": 60}, {"note": 79, "velocity": 94, "duration": 85}, {"note": 0, "velocity": 0, "duration": 155}, {"note": 74, "velocity": 90, "duration": 60}, {"note": 79, "velocity": 98, "duration": 61}, {"note": 79, "velocity": 93, "duration": 72}, {"note": 0, "velocity": 0, "duration": 168}, {"note": 74, "velocity": 87, "duration": 52}, {"note": 0, "velocity": 0, "duration": 68}, {"note": 79, "velocity": 91, "duration": 56}, {"note": 0, "velocity": 0, "duration": 64}, {"note": 79, "velocity": 91, "duration": 76}, {"note": 0, "velocity": 0, "duration": 164}, {"note": 79, "velocity": 85, "duration": 126}, {"note": 81, "velocity": 92, "duration": 86}, {"note": 83, "velocity": 107, "duration": 149}, {"note": 0, "velocity": 0, "duration": 931}, {"note": 84, "velocity": 98, "duration": 123}, {"note": 81, "velocity": 90, "duration": 118}, {"note": 76, "velocity": 89, "duration": 109}, {"note": 84, "velocity": 104, "duration": 153}, {"note": 0, "velocity": 0, "duration": 87}, {"note": 81, "velocity": 98, "duration": 117}, {"note": 0, "velocity": 0, "duration": 123}, {"note": 76, "velocity": 92, "duration": 77}, {"note": 83, "velocity": 114, "duration": 100}, {"note": 81, "velocity": 91, "duration": 102}, {"note": 76, "velocity": 80, "duration": 67}, {"note": 83, "velocity": 110, "duration": 158}, {"note": 0, "velocity": 0, "duration": 82}, {"note": 81, "velocity": 104, "duration": 128}, {"note": 0, "velocity": 0, "duration": 232}, {"note": 86, "velocity": 114, "duration": 161}, {"note": 0, "velocity": 0, "duration": 79}, {"note": 83, "velocity": 110, "duration": 138}, {"note": 0, "velocity": 0, "duration": 102}, {"note": 81, "velocity": 114, "duration": 105}, {"note": 83, "velocity": 119, "duration": 141}, {"note": 0, "velocity": 0, "duration": 99}, {"note": 81, "velocity": 119, "duration": 141}, {"note": 79, "velocity": 110, "duration": 155}, {"note": 0, "velocity": 0, "duration": 805}, {"note": 78, "velocity": 119, "duration": 72}, {"note": 78, "velocity": 109, "duration": 49}, {"note": 0, "velocity": 0, "duration": 71}, {"note": 78, "velocity": 109, "duration": 99}, {"note": 74, "velocity": 114, "duration": 181}, {"note": 0, "velocity": 0, "duration": 899}, {"note": 74, "velocity": 116, "duration": 151}, {"note": 0, "velocity": 0, "duration": 89}, {"note": 71, "velocity": 114, "duration": 126}, {"note": 0, "velocity": 0, "duration": 114}, {"note": 76, "velocity": 114, "duration": 220}, {"note": 0, "velocity": 0, "duration": 1220}, {"note": 76, "velocity": 117, "duration": 171}, {"note": 0, "velocity": 0, "duration": 69}, {"note": 79, "velocity": 117, "duration": 142}, {"note": 0, "velocity": 0, "duration": 98}, {"note": 81, "velocity": 117, "duration": 198}, {"note": 0, "velocity": 0, "duration": 282}, {"note": 81, "velocity": 119, "duration": 88}, {"note": 83, "velocity": 119, "duration": 88}, {"note": 81, "velocity": 116, "duration": 82}, {"note": 79, "velocity": 114, "duration": 70}, {"note": 81, "velocity": 119, "duration": 182}, {"note": 0, "velocity": 0, "duration": 298}, {"note": 79, "velocity": 114, "duration": 156}, {"note": 0, "velocity": 0, "duration": 84}, {"note": 81, "velocity": 117, "duration": 125}, {"note": 0, "velocity": 0, "duration": 115}, {"note": 83, "velocity": 119, "duration": 197}, {"note": 83, "velocity": 114, "duration": 108}, {"note": 81, "velocity": 114, "duration": 88}, {"note": 79, "velocity": 116, "duration": 137}, {"note": 0, "velocity": 0, "duration": 103}, {"note": 81, "velocity": 117, "duration": 135}, {"note": 0, "velocity": 0, "duration": 105}, {"note": 83, "velocity": 120, "duration": 178}, {"note": 0, "velocity": 0, "duration": 302}, {"note": 76, "velocity": 110, "duration": 144}, {"note": 0, "velocity": 0, "duration": 96}, {"note": 79, "velocity": 117, "duration": 128}, {"note": 0, "velocity": 0, "duration": 112}, {"note": 81, "velocity": 120, "duration": 166}, {"note": 0, "velocity": 0, "duration": 314}, {"note": 81, "velocity": 120, "duration": 92}, {"note": 83, "velocity": 110, "duration": 71}, {"note": 81, "velocity": 116, "duration": 64}, {"note": 79, "velocity": 114, "duration": 52}, {"note": 0, "velocity": 0, "duration": 68}, {"note": 81, "velocity": 119, "duration": 171}, {"note": 0, "velocity": 0, "duration": 309}, {"note": 79, "velocity": 119, "duration": 120}, {"note": 0, "velocity": 0, "duration": 120}, {"note": 81, "velocity": 117, "duration": 126}, {"note": 0, "velocity": 0, "duration": 114}, {"note": 83, "velocity": 119, "duration": 135}, {"note": 0, "velocity": 0, "duration": 105}, {"note": 83, "velocity": 116, "duration": 95}, {"note": 86, "velocity": 113, "duration": 102}, {"note": 83, "velocity": 116, "duration": 143}, {"note": 0, "velocity": 0, "duration": 97}, {"note": 81, "velocity": 116, "duration": 135}, {"note": 0, "velocity": 0, "duration": 105}, {"note": 83, "velocity": 120, "duration": 196}, {"note": 0, "velocity": 0, "duration": 284}, {"note": 83, "velocity": 116, "duration": 166}, {"note": 0, "velocity": 0, "duration": 74}, {"note": 86, "velocity": 119, "duration": 158}, {"note": 0, "velocity": 0, "duration": 82}, {"note": 88, "velocity": 120, "duration": 135}, {"note": 0, "velocity": 0, "duration": 105}, {"note": 91, "velocity": 117, "duration": 130}, {"note": 0, "velocity": 0, "duration": 110}, {"note": 91, "velocity": 119, "duration": 159}, {"note": 0, "velocity": 0, "duration": 81}, {"note": 88, "velocity": 120, "duration": 140}, {"note": 0, "velocity": 0, "duration": 100}, {"note": 86, "velocity": 123, "duration": 225}, {"note": 0, "velocity": 0, "duration": 255}, {"note": 83, "velocity": 114, "duration": 197}, {"note": 86, "velocity": 116, "duration": 177}, {"note": 0, "velocity": 0, "duration": 63}, {"note": 88, "velocity": 119, "duration": 151}, {"note": 0, "velocity": 0, "duration": 89}, {"note": 88, "velocity": 119, "duration": 80}, {"note": 91, "velocity": 116, "duration": 70}, {"note": 88, "velocity": 120, "duration": 159}, {"note": 0, "velocity": 0, "duration": 81}, {"note": 86, "velocity": 119, "duration": 160}, {"note": 0, "velocity": 0, "duration": 80}, {"note": 88, "velocity": 120, "duration": 232}, {"note": 0, "velocity": 0, "duration": 248}, {"note": 83, "velocity": 116, "duration": 152}, {"note": 0, "velocity": 0, "duration": 88}, {"note": 86, "velocity": 117, "duration": 144}, {"note": 0, "velocity": 0, "duration": 96}, {"note": 88, "velocity": 119, "duration": 117}, {"note": 0, "velocity": 0, "duration": 123}, {"note": 88, "velocity": 119, "duration": 63}, {"note": 91, "velocity": 119, "duration": 83}, {"note": 91, "velocity": 120, "duration": 156}, {"note": 0, "velocity": 0, "duration": 84}, {"note": 88, "velocity": 119, "duration": 128}, {"note": 0, "velocity": 0, "duration": 112}, {"note": 86, "velocity": 123, "duration": 175}, {"note": 0, "velocity": 0, "duration": 65}, {"note": 88, "velocity": 116, "duration": 159}, {"note": 0, "velocity": 0, "duration": 81}, {"note": 83, "velocity": 119, "duration": 188}, {"note": 81, "velocity": 117, "duration": 148}, {"note": 0, "velocity": 0, "duration": 92}, {"note": 79, "velocity": 117, "duration": 401}, {"note": 0, "velocity": 0, "duration": 1039}, {"note": 76, "velocity": 117, "duration": 171}, {"note": 0, "velocity": 0, "duration": 69}, {"note": 79, "velocity": 117, "duration": 142}, {"note": 0, "velocity": 0, "duration": 98}, {"note": 81, "velocity": 117, "duration": 198}, {"note": 0, "velocity": 0, "duration": 282}, {"note": 81, "velocity": 119, "duration": 88}, {"note": 83, "velocity": 119, "duration": 88}, {"note": 81, "velocity": 116, "duration": 82}, {"note": 79, "velocity": 114, "duration": 70}, {"note": 81, "velocity": 119, "duration": 182}, {"note": 0, "velocity": 0, "duration": 298}, {"note": 79, "velocity": 114, "duration": 156}, {"note": 0, "velocity": 0, "duration": 84}, {"note": 81, "velocity": 117, "duration": 125}, {"note": 0, "velocity": 0, "duration": 115}, {"note": 83, "velocity": 119, "duration": 197}, {"note": 83, "velocity": 114, "duration": 108}, {"note": 81, "velocity": 114, "duration": 88}, {"note": 79, "velocity": 116, "duration": 137}, {"note": 0, "velocity": 0, "duration": 103}, {"note": 81, "velocity": 117, "duration": 135}, {"note": 0, "velocity": 0, "duration": 105}, {"note": 83, "velocity": 120, "duration": 178}, {"note": 0, "velocity": 0, "duration": 302}, {"note": 76, "velocity": 110, "duration": 144}, {"note": 0, "velocity": 0, "duration": 96}, {"note": 79, "velocity": 117, "duration": 128}, {"note": 0, "velocity": 0, "duration": 112}, {"note": 81, "velocity": 120, "duration": 166}, {"note": 0, "velocity": 0, "duration": 314}, {"note": 81, "velocity": 120, "duration": 92}, {"note": 83, "velocity": 110, "duration": 71}, {"note": 81, "velocity": 116, "duration": 64}, {"note": 79, "velocity": 114, "duration": 52}, {"note": 0, "velocity": 0, "duration": 68}, {"note": 81, "velocity": 119, "duration": 171}, {"note": 0, "velocity": 0, "duration": 309}, {"note": 79, "velocity": 119, "duration": 120}, {"note": 0, "velocity": 0, "duration": 120}, {"note": 81, "velocity": 117, "duration": 126}, {"note": 0, "velocity": 0, "duration": 114}, {"note": 83, "velocity": 119, "duration": 135}, {"note": 0, "velocity": 0, "duration": 105}, {"note": 83, "velocity": 116, "duration": 95}, {"note": 86, "velocity": 113, "duration": 102}, {"note": 83, "velocity": 116, "duration": 143}, {"note": 0, "velocity": 0, "duration": 97}, {"note": 81, "velocity": 116, "duration": 135}, {"note": 0, "velocity": 0, "duration": 105}, {"note": 83, "velocity": 120, "duration": 196}, {"note": 0, "velocity": 0, "duration": 284}, {"note": 83, "velocity": 116, "duration": 166}, {"note": 0, "velocity": 0, "duration": 74}, {"note": 86, "velocity": 119, "duration": 158}, {"note": 0, "velocity": 0, "duration": 82}, {"note": 88, "velocity": 120, "duration": 135}, {"note": 0, "velocity": 0, "duration": 105}, {"note": 91, "velocity": 117, "duration": 130}, {"note": 0, "velocity": 0, "duration": 110}, {"note": 91, "velocity": 119, "duration": 159}, {"note": 0, "velocity": 0, "duration": 81}, {"note": 88, "velocity": 120, "duration": 140}, {"note": 0, "velocity": 0, "duration": 100}, {"note": 86, "velocity": 123, "duration": 225}, {"note": 0, "velocity": 0, "duration": 255}, {"note": 83, "velocity": 114, "duration": 197}, {"note": 86, "velocity": 116, "duration": 177}, {"note": 0, "velocity": 0, "duration": 63}, {"note": 88, "velocity": 119, "duration": 151}, {"note": 0, "velocity": 0, "duration": 89}, {"note": 88, "velocity": 119, "duration": 80}, {"note": 91, "velocity": 116, "duration": 70}, {"note": 88, "velocity": 120, "duration": 159}, {"note": 0, "velocity": 0, "duration": 81}, {"note": 86, "velocity": 119, "duration": 160}, {"note": 0, "velocity": 0, "duration": 80}, {"note": 88, "velocity": 120, "duration": 232}, {"note": 0, "velocity": 0, "duration": 248}, {"note": 83, "velocity": 116, "duration": 152}, {"note": 0, "velocity": 0, "duration": 88}, {"note": 86, "velocity": 117, "duration": 144}, {"note": 0, "velocity": 0, "duration": 96}, {"note": 88, "velocity": 119, "duration": 117}, {"note": 0, "velocity": 0, "duration": 123}, {"note": 88, "velocity": 119, "duration": 63}, {"note": 91, "velocity": 119, "duration": 83}, {"note": 91, "velocity": 120, "duration": 156}, {"note": 0, "velocity": 0, "duration": 84}, {"note": 88, "velocity": 119, "duration": 128}, {"note": 0, "velocity": 0, "duration": 112}, {"note": 86, "velocity": 123, "duration": 175}, {"note": 0, "velocity": 0, "duration": 65}, {"note": 88, "velocity": 116, "duration": 159}, {"note": 0, "velocity": 0, "duration": 81}, {"note": 83, "velocity": 119, "duration": 188}, {"note": 81, "velocity": 117, "duration": 148}, {"note": 0, "velocity": 0, "duration": 92}, {"note": 79, "velocity": 117, "duration": 401}, {"note": 0, "velocity": 0, "duration": 1039}, {"note": 83, "velocity": 116, "duration": 166}, {"note": 0, "velocity": 0, "duration": 74}, {"note": 86, "velocity": 119, "duration": 158}, {"note": 0, "velocity": 0, "duration": 82}, {"note": 88, "velocity": 120, "duration": 135}, {"note": 0, "velocity": 0, "duration": 105}, {"note": 91, "velocity": 117, "duration": 130}, {"note": 0, "velocity": 0, "duration": 110}, {"note": 91, "velocity": 119, "duration": 159}, {"note": 0, "velocity": 0, "duration": 81}, {"note": 88, "velocity": 120, "duration": 140}, {"note": 0, "velocity": 0, "duration": 100}, {"note": 86, "velocity": 123, "duration": 225}, {"note": 0, "velocity": 0, "duration": 255}, {"note": 83, "velocity": 114, "duration": 197}, {"note": 86, "velocity": 116, "duration": 177}, {"note": 0, "velocity": 0, "duration": 63}, {"note": 88, "velocity": 119, "duration": 151}, {"note": 0, "velocity": 0, "duration": 89}, {"note": 88, "velocity": 119, "duration": 80}, {"note": 91, "velocity": 116, "duration": 70}, {"note": 88, "velocity": 120, "duration": 159}, {"note": 0, "velocity": 0, "duration": 81}, {"note": 86, "velocity": 119, "duration": 160}, {"note": 0, "velocity": 0, "duration": 80}, {"note": 88, "velocity": 120, "duration": 232}, {"note": 0, "velocity": 0, "duration": 248}, {"note": 83, "velocity": 116, "duration": 152}, {"note": 0, "velocity": 0, "duration": 88}, {"note": 86, "velocity": 117, "duration": 144}, {"note": 0, "velocity": 0, "duration": 96}, {"note": 88, "velocity": 119, "duration": 117}, {"note": 0, "velocity": 0, "duration": 123}, {"note": 88, "velocity": 119, "duration": 63}, {"note": 91, "velocity": 119, "duration": 83}, {"note": 91, "velocity": 120, "duration": 156}, {"note": 0, "velocity": 0, "duration": 84}, {"note": 88, "velocity": 119, "duration": 128}, {"note": 0, "velocity": 0, "duration": 112}, {"note": 86, "velocity": 123, "duration": 112}, {"note": 88, "velocity": 116, "duration": 159}, {"note": 0, "velocity": 0, "duration": 321}, {"note": 83, "velocity": 119, "duration": 188}, {"note": 81, "velocity": 117, "duration": 148}, {"note": 0, "velocity": 0, "duration": 212}, {"note": 79, "velocity": 117, "duration": 401}]]