[[{"note": 59, "velocity": 97, "duration": 377}, {"note": 0, "velocity": 0, "duration": 423}, {"note": 56, "velocity": 102, "duration": 183}, {"note": 59, "velocity": 93, "duration": 104}, {"note": 0, "velocity": 0, "duration": 216}, {"note": 64, "velocity": 99, "duration": 647}, {"note": 63, "velocity": 112, "duration": 201}, {"note": 0, "velocity": 0, "duration": 759}, {"note": 64, "velocity": 107, "duration": 203}, {"note": 0, "velocity": 0, "duration": 277}, {"note": 63, "velocity": 122, "duration": 249}, {"note": 0, "velocity": 0, "duration": 231}, {"note": 61, "velocity": 117, "duration": 188}, {"note": 0, "velocity": 0, "duration": 292}, {"note": 61, "velocity": 117, "duration": 114}, {"note": 0, "velocity": 0, "duration": 206}, {"note": 57, "velocity": 93, "duration": 177}, {"note": 61, "velocity": 122, "duration": 164}, {"note": 0, "velocity": 0, "duration": 316}, {"note": 59, "velocity": 96, "duration": 267}, {"note": 0, "velocity": 0, "duration": 213}, {"note": 57, "velocity": 92, "duration": 168}, {"note": 0, "velocity": 0, "duration": 312}, {"note": 54, "velocity": 102, "duration": 170}, {"note": 0, "velocity": 0, "duration": 150}, {"note": 52, "velocity": 77, "duration": 296}, {"note": 0, "velocity": 0, "duration": 824}, {"note": 57, "velocity": 93, "duration": 177}, {"note": 0, "velocity": 0, "duration": 303}, {"note": 57, "velocity": 96, "duration": 157}, {"note": 0, "velocity": 0, "duration": 163}, {"note": 54, "velocity": 90, "duration": 202}, {"note": 57, "velocity": 79, "duration": 107}, {"note": 0, "velocity": 0, "duration": 213}, {"note": 64, "velocity": 92, "duration": 305}, {"note": 0, "velocity": 0, "duration": 335}, {"note": 63, "velocity": 102, "duration": 189}, {"note": 0, "velocity": 0, "duration": 291}, {"note": 64, "velocity": 95, "duration": 133}, {"note": 0, "velocity": 0, "duration": 187}, {"note": 63, "velocity": 89, "duration": 362}, {"note": 0, "velocity": 0, "duration": 118}, {"note": 61, "velocity": 95, "duration": 642}, {"note": 59, "velocity": 83, "duration": 213}, {"note": 0, "velocity": 0, "duration": 267}, {"note": 59, "velocity": 86, "duration": 145}, {"note": 59, "velocity": 89, "duration": 145}, {"note": 0, "velocity": 0, "duration": 175}, {"note": 56, "velocity": 79, "duration": 143}, {"note": 59, "velocity": 78, "duration": 165}, {"note": 0, "velocity": 0, "duration": 155}, {"note": 62, "velocity": 93, "duration": 325}, {"note": 0, "velocity": 0, "duration": 155}, {"note": 62, "velocity": 82, "duration": 173}, {"note": 61, "velocity": 99, "duration": 214}, {"note": 0, "velocity": 0, "duration": 266}, {"note": 62, "velocity": 93, "duration": 129}, {"note": 0, "velocity": 0, "duration": 191}, {"note": 61, "velocity": 95, "duration": 311}, {"note": 0, "velocity": 0, "duration": 169}, {"note": 59, "velocity": 82, "duration": 696}, {"note": 57, "velocity": 86, "duration": 238}, {"note": 0, "velocity": 0, "duration": 562}, {"note": 54, "velocity": 82, "duration": 143}, {"note": 57, "velocity": 88, "duration": 200}, {"note": 0, "velocity": 0, "duration": 120}, {"note": 64, "velocity": 93, "duration": 703}, {"note": 63, "velocity": 86, "duration": 193}, {"note": 0, "velocity": 0, "duration": 1727}, {"note": 59, "velocity": 96, "duration": 140}, {"note": 0, "velocity": 0, "duration": 340}, {"note": 59, "velocity": 92, "duration": 166}, {"note": 0, "velocity": 0, "duration": 154}, {"note": 56, "velocity": 76, "duration": 196}, {"note": 59, "velocity": 76, "duration": 107}, {"note": 0, "velocity": 0, "duration": 213}, {"note": 62, "velocity": 100, "duration": 548}, {"note": 0, "velocity": 0, "duration": 92}, {"note": 61, "velocity": 102, "duration": 268}, {"note": 0, "velocity": 0, "duration": 692}, {"note": 61, "velocity": 122, "duration": 205}, {"note": 0, "velocity": 0, "duration": 115}, {"note": 59, "velocity": 72, "duration": 388}, {"note": 0, "velocity": 0, "duration": 252}, {"note": 57, "velocity": 89, "duration": 390}, {"note": 0, "velocity": 0, "duration": 570}, {"note": 64, "velocity": 92, "duration": 683}, {"note": 0, "velocity": 0, "duration": 277}, {"note": 63, "velocity": 92, "duration": 397}, {"note": 0, "velocity": 0, "duration": 563}, {"note": 68, "velocity": 127, "duration": 213}, {"note": 0, "velocity": 0, "duration": 267}, {"note": 68, "velocity": 122, "duration": 257}, {"note": 0, "velocity": 0, "duration": 223}, {"note": 64, "velocity": 117, "duration": 1731}, {"note": 0, "velocity": 0, "duration": 2109}, {"note": 59, "velocity": 97, "duration": 377}, {"note": 0, "velocity": 0, "duration": 423}, {"note": 56, "velocity": 102, "duration": 183}, {"note": 59, "velocity": 93, "duration": 104}, {"note": 0, "velocity": 0, "duration": 216}, {"note": 64, "velocity": 99, "duration": 647}, {"note": 63, "velocity": 112, "duration": 201}, {"note": 0, "velocity": 0, "duration": 759}, {"note": 64, "velocity": 107, "duration": 203}, {"note": 0, "velocity": 0, "duration": 277}, {"note": 63, "velocity": 122, "duration": 249}, {"note": 0, "velocity": 0, "duration": 231}, {"note": 61, "velocity": 117, "duration": 188}, {"note": 0, "velocity": 0, "duration": 292}, {"note": 61, "velocity": 117, "duration": 114}, {"note": 0, "velocity": 0, "duration": 206}, {"note": 57, "velocity": 93, "duration": 177}, {"note": 61, "velocity": 122, "duration": 164}, {"note": 0, "velocity": 0, "duration": 316}, {"note": 59, "velocity": 96, "duration": 267}, {"note": 0, "velocity": 0, "duration": 213}, {"note": 57, "velocity": 92, "duration": 168}, {"note": 0, "velocity": 0, "duration": 312}, {"note": 54, "velocity": 102, "duration": 170}, {"note": 0, "velocity": 0, "duration": 150}, {"note": 52, "velocity": 77, "duration": 296}, {"note": 0, "velocity": 0, "duration": 824}, {"note": 57, "velocity": 93, "duration": 177}, {"note": 0, "velocity": 0, "duration": 303}, {"note": 57, "velocity": 96, "duration": 157}, {"note": 0, "velocity": 0, "duration": 163}, {"note": 54, "velocity": 90, "duration": 202}, {"note": 57, "velocity": 79, "duration": 107}, {"note": 0, "velocity": 0, "duration": 213}, {"note": 64, "velocity": 92, "duration": 305}, {"note": 0, "velocity": 0, "duration": 335}, {"note": 63, "velocity": 102, "duration": 189}, {"note": 0, "velocity": 0, "duration": 291}, {"note": 64, "velocity": 95, "duration": 133}, {"note": 0, "velocity": 0, "duration": 187}, {"note": 63, "velocity": 89, "duration": 362}, {"note": 0, "velocity": 0, "duration": 118}, {"note": 61, "velocity": 95, "duration": 642}, {"note": 59, "velocity": 83, "duration": 213}, {"note": 0, "velocity": 0, "duration": 267}, {"note": 59, "velocity": 86, "duration": 145}, {"note": 59, "velocity": 89, "duration": 145}, {"note": 0, "velocity": 0, "duration": 175}, {"note": 56, "velocity": 79, "duration": 143}, {"note": 59, "velocity": 78, "duration": 165}, {"note": 0, "velocity": 0, "duration": 155}, {"note": 62, "velocity": 93, "duration": 325}, {"note": 0, "velocity": 0, "duration": 155}, {"note": 62, "velocity": 82, "duration": 173}, {"note": 61, "velocity": 99, "duration": 214}, {"note": 0, "velocity": 0, "duration": 266}, {"note": 62, "velocity": 93, "duration": 129}, {"note": 0, "velocity": 0, "duration": 191}, {"note": 61, "velocity": 95, "duration": 311}, {"note": 0, "velocity": 0, "duration": 169}, {"note": 59, "velocity": 82, "duration": 696}, {"note": 57, "velocity": 86, "duration": 238}, {"note": 0, "velocity": 0, "duration": 562}, {"note": 54, "velocity": 82, "duration": 143}, {"note": 57, "velocity": 88, "duration": 200}, {"note": 0, "velocity": 0, "duration": 120}, {"note": 64, "velocity": 93, "duration": 703}, {"note": 63, "velocity": 86, "duration": 193}, {"note": 0, "velocity": 0, "duration": 1727}, {"note": 59, "velocity": 96, "duration": 140}, {"note": 0, "velocity": 0, "duration": 340}, {"note": 59, "velocity": 92, "duration": 166}, {"note": 0, "velocity": 0, "duration": 154}, {"note": 56, "velocity": 76, "duration": 196}, {"note": 59, "velocity": 76, "duration": 107}, {"note": 0, "velocity": 0, "duration": 213}, {"note": 62, "velocity": 100, "duration": 548}, {"note": 0, "velocity": 0, "duration": 92}, {"note": 61, "velocity": 102, "duration": 268}, {"note": 0, "velocity": 0, "duration": 692}, {"note": 61, "velocity": 122, "duration": 205}, {"note": 0, "velocity": 0, "duration": 115}, {"note": 59, "velocity": 72, "duration": 388}, {"note": 0, "velocity": 0, "duration": 252}, {"note": 57, "velocity": 89, "duration": 390}, {"note": 0, "velocity": 0, "duration": 570}, {"note": 64, "velocity": 92, "duration": 683}, {"note": 0, "velocity": 0, "duration": 277}, {"note": 63, "velocity": 92, "duration": 397}, {"note": 0, "velocity": 0, "duration": 563}, {"note": 68, "velocity": 127, "duration": 213}, {"note": 0, "velocity": 0, "duration": 267}, {"note": 68, "velocity": 122, "duration": 257}, {"note": 0, "velocity": 0, "duration": 223}, {"note": 64, "velocity": 117, "duration": 1731}, {"note": 0, "velocity": 0, "duration": 2109}, {"note": 61, "velocity": 107, "duration": 311}, {"note": 0, "velocity": 0, "duration": 169}, {"note": 64, "velocity": 90, "duration": 286}, {"note": 0, "velocity": 0, "duration": 194}, {"note": 64, "velocity": 90, "duration": 220}, {"note": 0, "velocity": 0, "duration": 260}, {"note": 61, "velocity": 112, "duration": 227}, {"note": 0, "velocity": 0, "duration": 253}, {"note": 64, "velocity": 97, "duration": 124}, {"note": 0, "velocity": 0, "duration": 196}, {"note": 61, "velocity": 99, "duration": 318}, {"note": 0, "velocity": 0, "duration": 162}, {"note": 64, "velocity": 100, "duration": 490}, {"note": 0, "velocity": 0, "duration": 470}, {"note": 56, "velocity": 90, "duration": 101}, {"note": 59, "velocity": 96, "duration": 310}, {"note": 0, "velocity": 0, "duration": 170}, {"note": 59, "velocity": 97, "duration": 210}, {"note": 0, "velocity": 0, "duration": 270}, {"note": 59, "velocity": 112, "duration": 148}, {"note": 0, "velocity": 0, "duration": 172}, {"note": 61, "velocity": 112, "duration": 268}, {"note": 0, "velocity": 0, "duration": 212}, {"note": 59, "velocity": 97, "duration": 1146}, {"note": 0, "velocity": 0, "duration": 934}, {"note": 57, "velocity": 102, "duration": 256}, {"note": 0, "velocity": 0, "duration": 224}, {"note": 57, "velocity": 96, "duration": 195}, {"note": 0, "velocity": 0, "duration": 125}, {"note": 54, "velocity": 93, "duration": 168}, {"note": 57, "velocity": 96, "duration": 87}, {"note": 0, "velocity": 0, "duration": 233}, {"note": 64, "velocity": 99, "duration": 601}, {"note": 63, "velocity": 117, "duration": 202}, {"note": 0, "velocity": 0, "duration": 278}, {"note": 64, "velocity": 112, "duration": 183}, {"note": 0, "velocity": 0, "duration": 137}, {"note": 63, "velocity": 107, "duration": 252}, {"note": 0, "velocity": 0, "duration": 228}, {"note": 61, "velocity": 122, "duration": 254}, {"note": 0, "velocity": 0, "duration": 226}, {"note": 59, "velocity": 107, "duration": 974}, {"note": 0, "velocity": 0, "duration": 1106}, {"note": 62, "velocity": 127, "duration": 889}, {"note": 0, "velocity": 0, "duration": 71}, {"note": 61, "velocity": 117, "duration": 407}, {"note": 0, "velocity": 0, "duration": 553}, {"note": 57, "velocity": 122, "duration": 470}, {"note": 0, "velocity": 0, "duration": 330}, {"note": 54, "velocity": 90, "duration": 132}, {"note": 57, "velocity": 95, "duration": 104}, {"note": 0, "velocity": 0, "duration": 216}, {"note": 64, "velocity": 102, "duration": 634}, {"note": 63, "velocity": 100, "duration": 384}, {"note": 0, "velocity": 0, "duration": 96}, {"note": 64, "velocity": 97, "duration": 89}, {"note": 0, "velocity": 0, "duration": 231}, {"note": 63, "velocity": 112, "duration": 262}, {"note": 0, "velocity": 0, "duration": 218}, {"note": 61, "velocity": 112, "duration": 430}, {"note": 0, "velocity": 0, "duration": 210}, {"note": 59, "velocity": 112, "duration": 326}, {"note": 0, "velocity": 0, "duration": 154}, {"note": 59, "velocity": 92, "duration": 166}, {"note": 0, "velocity": 0, "duration": 154}, {"note": 56, "velocity": 95, "duration": 157}, {"note": 59, "velocity": 95, "duration": 107}, {"note": 0, "velocity": 0, "duration": 213}, {"note": 62, "velocity": 112, "duration": 240}, {"note": 0, "velocity": 0, "duration": 240}, {"note": 61, "velocity": 96, "duration": 521}, {"note": 0, "velocity": 0, "duration": 439}, {"note": 63, "velocity": 99, "duration": 153}, {"note": 61, "velocity": 96, "duration": 159}, {"note": 59, "velocity": 92, "duration": 374}, {"note": 0, "velocity": 0, "duration": 586}, {"note": 57, "velocity": 100, "duration": 219}, {"note": 0, "velocity": 0, "duration": 261}, {"note": 57, "velocity": 99, "duration": 171}, {"note": 0, "velocity": 0, "duration": 149}, {"note": 54, "velocity": 96, "duration": 146}, {"note": 57, "velocity": 97, "duration": 103}, {"note": 0, "velocity": 0, "duration": 217}, {"note": 64, "velocity": 88, "duration": 550}, {"note": 0, "velocity": 0, "duration": 90}, {"note": 63, "velocity": 102, "duration": 286}, {"note": 0, "velocity": 0, "duration": 194}, {"note": 64, "velocity": 95, "duration": 151}, {"note": 0, "velocity": 0, "duration": 169}, {"note": 66, "velocity": 122, "duration": 219}, {"note": 0, "velocity": 0, "duration": 261}, {"note": 64, "velocity": 102, "duration": 225}, {"note": 0, "velocity": 0, "duration": 255}, {"note": 63, "velocity": 107, "duration": 248}, {"note": 0, "velocity": 0, "duration": 232}, {"note": 64, "velocity": 102, "duration": 1691}, {"note": 0, "velocity": 0, "duration": 17189}, {"note": 59, "velocity": 97, "duration": 377}, {"note": 0, "velocity": 0, "duration": 423}, {"note": 56, "velocity": 102, "duration": 183}, {"note": 59, "velocity": 93, "duration": 104}, {"note": 0, "velocity": 0, "duration": 216}, {"note": 64, "velocity": 99, "duration": 647}, {"note": 63, "velocity": 112, "duration": 201}, {"note": 0, "velocity": 0, "duration": 759}, {"note": 64, "velocity": 107, "duration": 203}, {"note": 0, "velocity": 0, "duration": 277}, {"note": 63, "velocity": 122, "duration": 249}, {"note": 0, "velocity": 0, "duration": 231}, {"note": 61, "velocity": 117, "duration": 188}, {"note": 0, "velocity": 0, "duration": 292}, {"note": 61, "velocity": 117, "duration": 114}, {"note": 0, "velocity": 0, "duration": 206}, {"note": 57, "velocity": 93, "duration": 177}, {"note": 61, "velocity": 122, "duration": 164}, {"note": 0, "velocity": 0, "duration": 316}, {"note": 59, "velocity": 96, "duration": 267}, {"note": 0, "velocity": 0, "duration": 213}, {"note": 57, "velocity": 92, "duration": 168}, {"note": 0, "velocity": 0, "duration": 312}, {"note": 54, "velocity": 102, "duration": 170}, {"note": 0, "velocity": 0, "duration": 150}, {"note": 52, "velocity": 77, "duration": 296}, {"note": 0, "velocity": 0, "duration": 824}, {"note": 57, "velocity": 93, "duration": 177}, {"note": 0, "velocity": 0, "duration": 303}, {"note": 57, "velocity": 96, "duration": 157}, {"note": 0, "velocity": 0, "duration": 163}, {"note": 54, "velocity": 90, "duration": 202}, {"note": 57, "velocity": 79, "duration": 107}, {"note": 0, "velocity": 0, "duration": 213}, {"note": 64, "velocity": 92, "duration": 305}, {"note": 0, "velocity": 0, "duration": 335}, {"note": 63, "velocity": 102, "duration": 189}, {"note": 0, "velocity": 0, "duration": 291}, {"note": 64, "velocity": 95, "duration": 133}, {"note": 0, "velocity": 0, "duration": 187}, {"note": 63, "velocity": 89, "duration": 362}, {"note": 0, "velocity": 0, "duration": 118}, {"note": 61, "velocity": 95, "duration": 642}, {"note": 59, "velocity": 83, "duration": 213}, {"note": 0, "velocity": 0, "duration": 267}, {"note": 59, "velocity": 86, "duration": 145}, {"note": 59, "velocity": 89, "duration": 145}, {"note": 0, "velocity": 0, "duration": 175}, {"note": 56, "velocity": 79, "duration": 143}, {"note": 59, "velocity": 78, "duration": 165}, {"note": 0, "velocity": 0, "duration": 155}, {"note": 62, "velocity": 93, "duration": 325}, {"note": 0, "velocity": 0, "duration": 155}, {"note": 62, "velocity": 82, "duration": 173}, {"note": 61, "velocity": 99, "duration": 214}, {"note": 0, "velocity": 0, "duration": 266}, {"note": 62, "velocity": 93, "duration": 129}, {"note": 0, "velocity": 0, "duration": 191}, {"note": 61, "velocity": 95, "duration": 311}, {"note": 0, "velocity": 0, "duration": 169}, {"note": 59, "velocity": 82, "duration": 696}, {"note": 57, "velocity": 86, "duration": 238}, {"note": 0, "velocity": 0, "duration": 562}, {"note": 54, "velocity": 82, "duration": 143}, {"note": 57, "velocity": 88, "duration": 200}, {"note": 0, "velocity": 0, "duration": 120}, {"note": 64, "velocity": 93, "duration": 703}, {"note": 63, "velocity": 86, "duration": 193}, {"note": 0, "velocity": 0, "duration": 1727}, {"note": 59, "velocity": 96, "duration": 140}, {"note": 0, "velocity": 0, "duration": 340}, {"note": 59, "velocity": 92, "duration": 166}, {"note": 0, "velocity": 0, "duration": 154}, {"note": 56, "velocity": 76, "duration": 196}, {"note": 59, "velocity": 76, "duration": 107}, {"note": 0, "velocity": 0, "duration": 213}, {"note": 62, "velocity": 100, "duration": 548}, {"note": 0, "velocity": 0, "duration": 92}, {"note": 61, "velocity": 102, "duration": 268}, {"note": 0, "velocity": 0, "duration": 692}, {"note": 61, "velocity": 122, "duration": 205}, {"note": 0, "velocity": 0, "duration": 115}, {"note": 59, "velocity": 72, "duration": 388}, {"note": 0, "velocity": 0, "duration": 252}, {"note": 57, "velocity": 89, "duration": 390}, {"note": 0, "velocity": 0, "duration": 570}, {"note": 64, "velocity": 92, "duration": 683}, {"note": 0, "velocity": 0, "duration": 277}, {"note": 63, "velocity": 92, "duration": 397}, {"note": 0, "velocity": 0, "duration": 563}, {"note": 68, "velocity": 127, "duration": 213}, {"note": 0, "velocity": 0, "duration": 267}, {"note": 68, "velocity": 122, "duration": 257}, {"note": 0, "velocity": 0, "duration": 223}, {"note": 64, "velocity": 117, "duration": 1731}, {"note": 0, "velocity": 0, "duration": 2109}, {"note": 61, "velocity": 107, "duration": 311}, {"note": 0, "velocity": 0, "duration": 169}, {"note": 64, "velocity": 90, "duration": 286}, {"note": 0, "velocity": 0, "duration": 194}, {"note": 64, "velocity": 90, "duration": 220}, {"note": 0, "velocity": 0, "duration": 260}, {"note": 61, "velocity": 112, "duration": 227}, {"note": 0, "velocity": 0, "duration": 253}, {"note": 64, "velocity": 97, "duration": 124}, {"note": 0, "velocity": 0, "duration": 196}, {"note": 61, "velocity": 99, "duration": 318}, {"note": 0, "velocity": 0, "duration": 162}, {"note": 64, "velocity": 100, "duration": 490}, {"note": 0, "velocity": 0, "duration": 470}, {"note": 56, "velocity": 90, "duration": 101}, {"note": 59, "velocity": 96, "duration": 310}, {"note": 0, "velocity": 0, "duration": 170}, {"note": 59, "velocity": 97, "duration": 210}, {"note": 0, "velocity": 0, "duration": 270}, {"note": 59, "velocity": 112, "duration": 148}, {"note": 0, "velocity": 0, "duration": 172}, {"note": 61, "velocity": 112, "duration": 268}, {"note": 0, "velocity": 0, "duration": 212}, {"note": 59, "velocity": 97, "duration": 1146}, {"note": 0, "velocity": 0, "duration": 934}, {"note": 57, "velocity": 102, "duration": 256}, {"note": 0, "velocity": 0, "duration": 224}, {"note": 57, "velocity": 96, "duration": 195}, {"note": 0, "velocity": 0, "duration": 125}, {"note": 54, "velocity": 93, "duration": 168}, {"note": 57, "velocity": 96, "duration": 87}, {"note": 0, "velocity": 0, "duration": 233}, {"note": 64, "velocity": 99, "duration": 601}, {"note": 63, "velocity": 117, "duration": 202}, {"note": 0, "velocity": 0, "duration": 278}, {"note": 64, "velocity": 112, "duration": 183}, {"note": 0, "velocity": 0, "duration": 137}, {"note": 63, "velocity": 107, "duration": 252}, {"note": 0, "velocity": 0, "duration": 228}, {"note": 61, "velocity": 122, "duration": 254}, {"note": 0, "velocity": 0, "duration": 226}, {"note": 59, "velocity": 107, "duration": 974}, {"note": 0, "velocity": 0, "duration": 1106}, {"note": 62, "velocity": 127, "duration": 889}, {"note": 0, "velocity": 0, "duration": 71}, {"note": 61, "velocity": 117, "duration": 407}, {"note": 0, "velocity": 0, "duration": 553}, {"note": 57, "velocity": 122, "duration": 470}, {"note": 0, "velocity": 0, "duration": 330}, {"note": 54, "velocity": 90, "duration": 132}, {"note": 57, "velocity": 95, "duration": 104}, {"note": 0, "velocity": 0, "duration": 216}, {"note": 64, "velocity": 102, "duration": 634}, {"note": 63, "velocity": 100, "duration": 384}, {"note": 0, "velocity": 0, "duration": 96}, {"note": 64, "velocity": 97, "duration": 89}, {"note": 0, "velocity": 0, "duration": 231}, {"note": 63, "velocity": 112, "duration": 262}, {"note": 0, "velocity": 0, "duration": 218}, {"note": 61, "velocity": 112, "duration": 430}, {"note": 0, "velocity": 0, "duration": 210}, {"note": 59, "velocity": 112, "duration": 326}, {"note": 0, "velocity": 0, "duration": 154}, {"note": 59, "velocity": 92, "duration": 166}, {"note": 0, "velocity": 0, "duration": 154}, {"note": 56, "velocity": 95, "duration": 157}, {"note": 59, "velocity": 95, "duration": 107}, {"note": 0, "velocity": 0, "duration": 213}, {"note": 62, "velocity": 112, "duration": 240}, {"note": 0, "velocity": 0, "duration": 240}, {"note": 61, "velocity": 96, "duration": 521}, {"note": 0, "velocity": 0, "duration": 439}, {"note": 63, "velocity": 99, "duration": 153}, {"note": 61, "velocity": 96, "duration": 159}, {"note": 59, "velocity": 92, "duration": 374}, {"note": 0, "velocity": 0, "duration": 586}, {"note": 57, "velocity": 100, "duration": 219}, {"note": 0, "velocity": 0, "duration": 261}, {"note": 57, "velocity": 99, "duration": 171}, {"note": 0, "velocity": 0, "duration": 149}, {"note": 54, "velocity": 96, "duration": 146}, {"note": 57, "velocity": 97, "duration": 103}, {"note": 0, "velocity": 0, "duration": 217}, {"note": 64, "velocity": 88, "duration": 550}, {"note": 0, "velocity": 0, "duration": 90}, {"note": 63, "velocity": 102, "duration": 286}, {"note": 0, "velocity": 0, "duration": 194}, {"note": 64, "velocity": 95, "duration": 151}, {"note": 0, "velocity": 0, "duration": 169}, {"note": 66, "velocity": 122, "duration": 219}, {"note": 0, "velocity": 0, "duration": 261}, {"note": 64, "velocity": 102, "duration": 225}, {"note": 0, "velocity": 0, "duration": 255}, {"note": 63, "velocity": 107, "duration": 248}, {"note": 0, "velocity": 0, "duration": 232}, {"note": 64, "velocity": 102, "duration": 1691}, {"note": 0, "velocity": 0, "duration": 1829}, {"note": 66, "velocity": 127, "duration": 2157}, {"note": 0, "velocity": 0, "duration": 723}, {"note": 66, "velocity": 127, "duration": 283}, {"note": 0, "velocity": 0, "duration": 197}, {"note": 64, "velocity": 100, "duration": 185}, {"note": 0, "velocity": 0, "duration": 135}, {"note": 63, "velocity": 100, "duration": 150}, {"note": 64, "velocity": 100, "duration": 755}, {"note": 0, "velocity": 0, "duration": 205}, {"note": 59, "velocity": 127, "duration": 1440}, {"note": 61, "velocity": 127, "duration": 194}, {"note": 0, "velocity": 0, "duration": 126}, {"note": 64, "velocity": 102, "duration": 435}, {"note": 0, "velocity": 0, "duration": 685}, {"note": 66, "velocity": 127, "duration": 2137}, {"note": 0, "velocity": 0, "duration": 743}, {"note": 61, "velocity": 122, "duration": 318}, {"note": 0, "velocity": 0, "duration": 162}, {"note": 66, "velocity": 127, "duration": 218}, {"note": 0, "velocity": 0, "duration": 262}, {"note": 68, "velocity": 127, "duration": 688}, {"note": 0, "velocity": 0, "duration": 272}, {"note": 64, "velocity": 127, "duration": 1511}, {"note": 0, "velocity": 0, "duration": 1369}, {"note": 67, "velocity": 127, "duration": 1702}, {"note": 0, "velocity": 0, "duration": 1178}, {"note": 67, "velocity": 107, "duration": 165}, {"note": 0, "velocity": 0, "duration": 315}, {"note": 67, "velocity": 100, "duration": 176}, {"note": 0, "velocity": 0, "duration": 304}, {"note": 67, "velocity": 112, "duration": 560}, {"note": 0, "velocity": 0, "duration": 400}, {"note": 62, "velocity": 117, "duration": 2168}, {"note": 0, "velocity": 0, "duration": 712}, {"note": 63, "velocity": 102, "duration": 338}, {"note": 64, "velocity": 99, "duration": 2566}, {"note": 61, "velocity": 127, "duration": 321}, {"note": 0, "velocity": 0, "duration": 159}, {"note": 64, "velocity": 100, "duration": 255}, {"note": 0, "velocity": 0, "duration": 225}, {"note": 66, "velocity": 127, "duration": 907}, {"note": 59, "velocity": 112, "duration": 2039}, {"note": 0, "velocity": 0, "duration": 841}, {"note": 65, "velocity": 112, "duration": 1920}, {"note": 0, "velocity": 0, "duration": 480}, {"note": 65, "velocity": 117, "duration": 189}, {"note": 0, "velocity": 0, "duration": 131}, {"note": 66, "velocity": 122, "duration": 197}, {"note": 0, "velocity": 0, "duration": 283}, {"note": 68, "velocity": 127, "duration": 229}, {"note": 0, "velocity": 0, "duration": 411}, {"note": 70, "velocity": 127, "duration": 179}, {"note": 0, "velocity": 0, "duration": 301}, {"note": 66, "velocity": 112, "duration": 166}, {"note": 0, "velocity": 0, "duration": 314}, {"note": 66, "velocity": 127, "duration": 176}, {"note": 0, "velocity": 0, "duration": 304}, {"note": 64, "velocity": 122, "duration": 134}, {"note": 0, "velocity": 0, "duration": 346}, {"note": 66, "velocity": 127, "duration": 149}, {"note": 0, "velocity": 0, "duration": 171}, {"note": 63, "velocity": 99, "duration": 221}, {"note": 0, "velocity": 0, "duration": 259}, {"note": 66, "velocity": 127, "duration": 489}, {"note": 0, "velocity": 0, "duration": 471}, {"note": 58, "velocity": 97, "duration": 136}, {"note": 61, "velocity": 122, "duration": 253}, {"note": 0, "velocity": 0, "duration": 227}, {"note": 61, "velocity": 127, "duration": 221}, {"note": 0, "velocity": 0, "duration": 259}, {"note": 61, "velocity": 127, "duration": 170}, {"note": 0, "velocity": 0, "duration": 150}, {"note": 63, "velocity": 127, "duration": 301}, {"note": 0, "velocity": 0, "duration": 179}, {"note": 61, "velocity": 117, "duration": 938}, {"note": 0, "velocity": 0, "duration": 1142}, {"note": 59, "velocity": 99, "duration": 201}, {"note": 0, "velocity": 0, "duration": 279}, {"note": 59, "velocity": 90, "duration": 192}, {"note": 0, "velocity": 0, "duration": 128}, {"note": 56, "velocity": 96, "duration": 162}, {"note": 59, "velocity": 97, "duration": 100}, {"note": 0, "velocity": 0, "duration": 220}, {"note": 66, "velocity": 127, "duration": 541}, {"note": 0, "velocity": 0, "duration": 99}, {"note": 65, "velocity": 102, "duration": 322}, {"note": 0, "velocity": 0, "duration": 158}, {"note": 66, "velocity": 122, "duration": 183}, {"note": 0, "velocity": 0, "duration": 137}, {"note": 65, "velocity": 102, "duration": 227}, {"note": 0, "velocity": 0, "duration": 253}, {"note": 63, "velocity": 127, "duration": 247}, {"note": 0, "velocity": 0, "duration": 233}, {"note": 61, "velocity": 112, "duration": 1176}, {"note": 0, "velocity": 0, "duration": 904}, {"note": 64, "velocity": 127, "duration": 889}, {"note": 0, "velocity": 0, "duration": 71}, {"note": 63, "velocity": 117, "duration": 407}, {"note": 0, "velocity": 0, "duration": 553}, {"note": 59, "velocity": 122, "duration": 470}, {"note": 0, "velocity": 0, "duration": 330}, {"note": 56, "velocity": 90, "duration": 132}, {"note": 59, "velocity": 95, "duration": 104}, {"note": 0, "velocity": 0, "duration": 216}, {"note": 66, "velocity": 102, "duration": 634}, {"note": 65, "velocity": 100, "duration": 384}, {"note": 0, "velocity": 0, "duration": 96}, {"note": 66, "velocity": 97, "duration": 89}, {"note": 0, "velocity": 0, "duration": 231}, {"note": 65, "velocity": 112, "duration": 262}, {"note": 0, "velocity": 0, "duration": 218}, {"note": 63, "velocity": 112, "duration": 430}, {"note": 0, "velocity": 0, "duration": 210}, {"note": 61, "velocity": 112, "duration": 326}, {"note": 0, "velocity": 0, "duration": 154}, {"note": 61, "velocity": 92, "duration": 166}, {"note": 0, "velocity": 0, "duration": 154}, {"note": 58, "velocity": 95, "duration": 157}, {"note": 61, "velocity": 95, "duration": 107}, {"note": 0, "velocity": 0, "duration": 213}, {"note": 64, "velocity": 112, "duration": 240}, {"note": 0, "velocity": 0, "duration": 240}, {"note": 63, "velocity": 96, "duration": 521}, {"note": 0, "velocity": 0, "duration": 312}, {"note": 65, "velocity": 99, "duration": 154}, {"note": 63, "velocity": 96, "duration": 159}, {"note": 61, "velocity": 92, "duration": 374}, {"note": 0, "velocity": 0, "duration": 586}, {"note": 59, "velocity": 100, "duration": 219}, {"note": 0, "velocity": 0, "duration": 261}, {"note": 59, "velocity": 99, "duration": 171}, {"note": 0, "velocity": 0, "duration": 149}, {"note": 56, "velocity": 96, "duration": 146}, {"note": 59, "velocity": 97, "duration": 103}, {"note": 0, "velocity": 0, "duration": 217}, {"note": 66, "velocity": 88, "duration": 550}, {"note": 0, "velocity": 0, "duration": 90}, {"note": 65, "velocity": 102, "duration": 286}, {"note": 0, "velocity": 0, "duration": 194}, {"note": 66, "velocity": 95, "duration": 151}, {"note": 0, "velocity": 0, "duration": 169}, {"note": 68, "velocity": 122, "duration": 219}, {"note": 0, "velocity": 0, "duration": 261}, {"note": 66, "velocity": 102, "duration": 225}, {"note": 0, "velocity": 0, "duration": 255}, {"note": 65, "velocity": 107, "duration": 248}, {"note": 0, "velocity": 0, "duration": 232}, {"note": 66, "velocity": 102, "duration": 1200}, {"note": 67, "velocity": 127, "duration": 130}, {"note": 0, "velocity": 0, "duration": 190}, {"note": 67, "velocity": 107, "duration": 349}, {"note": 0, "velocity": 0, "duration": 131}, {"note": 65, "velocity": 107, "duration": 253}, {"note": 63, "velocity": 122, "duration": 299}, {"note": 0, "velocity": 0, "duration": 181}, {"note": 63, "velocity": 127, "duration": 320}, {"note": 0, "velocity": 0, "duration": 640}, {"note": 59, "velocity": 100, "duration": 219}, {"note": 0, "velocity": 0, "duration": 261}, {"note": 59, "velocity": 99, "duration": 171}, {"note": 0, "velocity": 0, "duration": 149}, {"note": 56, "velocity": 96, "duration": 146}, {"note": 59, "velocity": 97, "duration": 103}, {"note": 0, "velocity": 0, "duration": 217}, {"note": 66, "velocity": 88, "duration": 550}, {"note": 0, "velocity": 0, "duration": 90}, {"note": 65, "velocity": 102, "duration": 286}, {"note": 0, "velocity": 0, "duration": 194}, {"note": 66, "velocity": 95, "duration": 151}, {"note": 0, "velocity": 0, "duration": 169}, {"note": 68, "velocity": 122, "duration": 219}, {"note": 0, "velocity": 0, "duration": 261}, {"note": 66, "velocity": 102, "duration": 225}, {"note": 0, "velocity": 0, "duration": 255}, {"note": 65, "velocity": 107, "duration": 248}, {"note": 0, "velocity": 0, "duration": 232}, {"note": 66, "velocity": 102, "duration": 2640}]]