[[{"note": 68, "velocity": 99, "duration": 285}, {"note": 0, "velocity": 0, "duration": 75}, {"note": 60, "velocity": 71, "duration": 60}, {"note": 60, "velocity": 76, "duration": 136}, {"note": 68, "velocity": 89, "duration": 153}, {"note": 0, "velocity": 0, "duration": 87}, {"note": 60, "velocity": 77, "duration": 105}, {"note": 62, "velocity": 69, "duration": 128}, {"note": 0, "velocity": 0, "duration": 112}, {"note": 62, "velocity": 82, "duration": 103}, {"note": 60, "velocity": 59, "duration": 97}, {"note": 58, "velocity": 72, "duration": 384}, {"note": 0, "velocity": 0, "duration": 96}, {"note": 60, "velocity": 83, "duration": 157}, {"note": 0, "velocity": 0, "duration": 83}, {"note": 56, "velocity": 66, "duration": 171}, {"note": 0, "velocity": 0, "duration": 69}, {"note": 56, "velocity": 65, "duration": 140}, {"note": 0, "velocity": 0, "duration": 100}, {"note": 56, "velocity": 77, "duration": 100}, {"note": 58, "velocity": 89, "duration": 66}, {"note": 60, "velocity": 90, "duration": 222}, {"note": 0, "velocity": 0, "duration": 138}, {"note": 58, "velocity": 70, "duration": 57}, {"note": 0, "velocity": 0, "duration": 63}, {"note": 60, "velocity": 79, "duration": 231}, {"note": 0, "velocity": 0, "duration": 249}, {"note": 61, "velocity": 93, "duration": 45}, {"note": 0, "velocity": 0, "duration": 75}, {"note": 61, "velocity": 92, "duration": 117}, {"note": 0, "velocity": 0, "duration": 123}, {"note": 60, "velocity": 75, "duration": 64}, {"note": 61, "velocity": 81, "duration": 170}, {"note": 0, "velocity": 0, "duration": 70}, {"note": 65, "velocity": 78, "duration": 153}, {"note": 0, "velocity": 0, "duration": 87}, {"note": 60, "velocity": 85, "duration": 159}, {"note": 0, "velocity": 0, "duration": 81}, {"note": 58, "velocity": 79, "duration": 77}, {"note": 56, "velocity": 78, "duration": 49}, {"note": 0, "velocity": 0, "duration": 71}, {"note": 60, "velocity": 93, "duration": 299}, {"note": 0, "velocity": 0, "duration": 181}, {"note": 60, "velocity": 90, "duration": 283}, {"note": 0, "velocity": 0, "duration": 77}, {"note": 60, "velocity": 79, "duration": 55}, {"note": 0, "velocity": 0, "duration": 65}, {"note": 60, "velocity": 81, "duration": 155}, {"note": 0, "velocity": 0, "duration": 85}, {"note": 56, "velocity": 82, "duration": 142}, {"note": 0, "velocity": 0, "duration": 98}, {"note": 55, "velocity": 74, "duration": 79}, {"note": 56, "velocity": 70, "duration": 75}, {"note": 61, "velocity": 73, "duration": 233}, {"note": 60, "velocity": 70, "duration": 370}, {"note": 0, "velocity": 0, "duration": 110}, {"note": 68, "velocity": 112, "duration": 259}, {"note": 0, "velocity": 0, "duration": 101}, {"note": 65, "velocity": 74, "duration": 54}, {"note": 0, "velocity": 0, "duration": 66}, {"note": 65, "velocity": 82, "duration": 61}, {"note": 68, "velocity": 93, "duration": 154}, {"note": 0, "velocity": 0, "duration": 86}, {"note": 65, "velocity": 74, "duration": 59}, {"note": 0, "velocity": 0, "duration": 61}, {"note": 68, "velocity": 107, "duration": 286}, {"note": 0, "velocity": 0, "duration": 74}, {"note": 60, "velocity": 72, "duration": 111}, {"note": 67, "velocity": 90, "duration": 286}, {"note": 0, "velocity": 0, "duration": 194}, {"note": 67, "velocity": 88, "duration": 159}, {"note": 0, "velocity": 0, "duration": 81}, {"note": 67, "velocity": 82, "duration": 92}, {"note": 65, "velocity": 59, "duration": 93}, {"note": 68, "velocity": 93, "duration": 171}, {"note": 0, "velocity": 0, "duration": 69}, {"note": 67, "velocity": 88, "duration": 112}, {"note": 65, "velocity": 71, "duration": 99}, {"note": 63, "velocity": 82, "duration": 279}, {"note": 63, "velocity": 93, "duration": 39}, {"note": 0, "velocity": 0, "duration": 81}, {"note": 58, "velocity": 75, "duration": 80}, {"note": 60, "velocity": 76, "duration": 345}, {"note": 0, "velocity": 0, "duration": 135}, {"note": 58, "velocity": 72, "duration": 90}, {"note": 61, "velocity": 85, "duration": 170}, {"note": 0, "velocity": 0, "duration": 70}, {"note": 58, "velocity": 69, "duration": 60}, {"note": 60, "velocity": 85, "duration": 75}, {"note": 61, "velocity": 76, "duration": 137}, {"note": 0, "velocity": 0, "duration": 103}, {"note": 61, "velocity": 95, "duration": 100}, {"note": 60, "velocity": 78, "duration": 138}, {"note": 68, "velocity": 70, "duration": 232}, {"note": 65, "velocity": 72, "duration": 302}, {"note": 0, "velocity": 0, "duration": 178}, {"note": 65, "velocity": 82, "duration": 106}, {"note": 70, "velocity": 96, "duration": 265}, {"note": 0, "velocity": 0, "duration": 95}, {"note": 68, "velocity": 86, "duration": 51}, {"note": 0, "velocity": 0, "duration": 69}, {"note": 68, "velocity": 90, "duration": 92}, {"note": 70, "velocity": 99, "duration": 144}, {"note": 0, "velocity": 0, "duration": 96}, {"note": 68, "velocity": 93, "duration": 52}, {"note": 0, "velocity": 0, "duration": 68}, {"note": 70, "velocity": 99, "duration": 133}, {"note": 0, "velocity": 0, "duration": 107}, {"note": 67, "velocity": 79, "duration": 52}, {"note": 0, "velocity": 0, "duration": 68}, {"note": 70, "velocity": 107, "duration": 344}, {"note": 0, "velocity": 0, "duration": 256}, {"note": 68, "velocity": 95, "duration": 52}, {"note": 0, "velocity": 0, "duration": 68}, {"note": 68, "velocity": 70, "duration": 56}, {"note": 0, "velocity": 0, "duration": 64}, {"note": 68, "velocity": 95, "duration": 61}, {"note": 67, "velocity": 63, "duration": 56}, {"note": 0, "velocity": 0, "duration": 64}, {"note": 68, "velocity": 99, "duration": 264}, {"note": 0, "velocity": 0, "duration": 96}, {"note": 67, "velocity": 96, "duration": 179}, {"note": 0, "velocity": 0, "duration": 61}, {"note": 72, "velocity": 93, "duration": 52}, {"note": 0, "velocity": 0, "duration": 68}, {"note": 72, "velocity": 88, "duration": 74}, {"note": 70, "velocity": 99, "duration": 69}, {"note": 72, "velocity": 107, "duration": 235}, {"note": 0, "velocity": 0, "duration": 245}, {"note": 65, "velocity": 92, "duration": 52}, {"note": 0, "velocity": 0, "duration": 68}, {"note": 65, "velocity": 81, "duration": 49}, {"note": 0, "velocity": 0, "duration": 71}, {"note": 65, "velocity": 86, "duration": 56}, {"note": 0, "velocity": 0, "duration": 64}, {"note": 67, "velocity": 83, "duration": 55}, {"note": 0, "velocity": 0, "duration": 65}, {"note": 68, "velocity": 122, "duration": 181}, {"note": 65, "velocity": 102, "duration": 138}, {"note": 0, "velocity": 0, "duration": 102}, {"note": 64, "velocity": 88, "duration": 81}, {"note": 65, "velocity": 72, "duration": 71}, {"note": 67, "velocity": 109, "duration": 111}, {"note": 64, "velocity": 85, "duration": 119}, {"note": 60, "velocity": 85, "duration": 311}, {"note": 58, "velocity": 89, "duration": 84}, {"note": 60, "velocity": 72, "duration": 74}, {"note": 61, "velocity": 102, "duration": 88}, {"note": 60, "velocity": 81, "duration": 81}, {"note": 58, "velocity": 75, "duration": 70}, {"note": 60, "velocity": 75, "duration": 66}, {"note": 61, "velocity": 95, "duration": 224}, {"note": 72, "velocity": 90, "duration": 145}, {"note": 0, "velocity": 0, "duration": 95}, {"note": 70, "velocity": 93, "duration": 157}, {"note": 0, "velocity": 0, "duration": 83}, {"note": 72, "velocity": 96, "duration": 194}, {"note": 67, "velocity": 83, "duration": 104}, {"note": 68, "velocity": 99, "duration": 500}, {"note": 0, "velocity": 0, "duration": 100}, {"note": 70, "velocity": 102, "duration": 37}, {"note": 0, "velocity": 0, "duration": 83}, {"note": 70, "velocity": 88, "duration": 42}, {"note": 0, "velocity": 0, "duration": 78}, {"note": 70, "velocity": 97, "duration": 52}, {"note": 0, "velocity": 0, "duration": 68}, {"note": 70, "velocity": 100, "duration": 58}, {"note": 0, "velocity": 0, "duration": 62}, {"note": 70, "velocity": 107, "duration": 144}, {"note": 65, "velocity": 88, "duration": 193}, {"note": 72, "velocity": 117, "duration": 193}, {"note": 67, "velocity": 92, "duration": 82}, {"note": 67, "velocity": 83, "duration": 106}, {"note": 72, "velocity": 96, "duration": 309}, {"note": 0, "velocity": 0, "duration": 291}, {"note": 68, "velocity": 95, "duration": 52}, {"note": 0, "velocity": 0, "duration": 68}, {"note": 68, "velocity": 70, "duration": 56}, {"note": 0, "velocity": 0, "duration": 64}, {"note": 68, "velocity": 95, "duration": 61}, {"note": 67, "velocity": 63, "duration": 56}, {"note": 0, "velocity": 0, "duration": 64}, {"note": 68, "velocity": 99, "duration": 264}, {"note": 0, "velocity": 0, "duration": 96}, {"note": 67, "velocity": 96, "duration": 179}, {"note": 0, "velocity": 0, "duration": 61}, {"note": 72, "velocity": 93, "duration": 52}, {"note": 0, "velocity": 0, "duration": 68}, {"note": 72, "velocity": 88, "duration": 74}, {"note": 70, "velocity": 99, "duration": 69}, {"note": 72, "velocity": 107, "duration": 235}, {"note": 0, "velocity": 0, "duration": 245}, {"note": 65, "velocity": 92, "duration": 52}, {"note": 0, "velocity": 0, "duration": 68}, {"note": 65, "velocity": 81, "duration": 49}, {"note": 0, "velocity": 0, "duration": 71}, {"note": 65, "velocity": 86, "duration": 56}, {"note": 0, "velocity": 0, "duration": 64}, {"note": 67, "velocity": 83, "duration": 55}, {"note": 0, "velocity": 0, "duration": 65}, {"note": 68, "velocity": 122, "duration": 181}, {"note": 65, "velocity": 102, "duration": 138}, {"note": 0, "velocity": 0, "duration": 102}, {"note": 64, "velocity": 88, "duration": 81}, {"note": 65, "velocity": 72, "duration": 71}, {"note": 67, "velocity": 72, "duration": 111}, {"note": 64, "velocity": 85, "duration": 119}, {"note": 60, "velocity": 85, "duration": 188}, {"note": 58, "velocity": 89, "duration": 84}, {"note": 60, "velocity": 72, "duration": 74}, {"note": 61, "velocity": 102, "duration": 88}, {"note": 60, "velocity": 81, "duration": 81}, {"note": 58, "velocity": 75, "duration": 70}, {"note": 60, "velocity": 75, "duration": 66}, {"note": 61, "velocity": 95, "duration": 224}, {"note": 72, "velocity": 90, "duration": 145}, {"note": 0, "velocity": 0, "duration": 95}, {"note": 70, "velocity": 93, "duration": 157}, {"note": 0, "velocity": 0, "duration": 83}, {"note": 72, "velocity": 96, "duration": 194}, {"note": 67, "velocity": 83, "duration": 104}, {"note": 68, "velocity": 99, "duration": 500}, {"note": 0, "velocity": 0, "duration": 100}, {"note": 65, "velocity": 96, "duration": 109}, {"note": 68, "velocity": 82, "duration": 64}, {"note": 70, "velocity": 96, "duration": 65}, {"note": 72, "velocity": 83, "duration": 85}, {"note": 67, "velocity": 89, "duration": 102}, {"note": 70, "velocity": 100, "duration": 128}, {"note": 0, "velocity": 0, "duration": 112}, {"note": 68, "velocity": 100, "duration": 118}, {"note": 0, "velocity": 0, "duration": 122}, {"note": 67, "velocity": 88, "duration": 135}, {"note": 65, "velocity": 82, "duration": 671}, {"note": 0, "velocity": 0, "duration": 8689}, {"note": 68, "velocity": 95, "duration": 52}, {"note": 0, "velocity": 0, "duration": 68}, {"note": 68, "velocity": 70, "duration": 56}, {"note": 0, "velocity": 0, "duration": 64}, {"note": 68, "velocity": 95, "duration": 61}, {"note": 67, "velocity": 63, "duration": 56}, {"note": 0, "velocity": 0, "duration": 64}, {"note": 68, "velocity": 99, "duration": 264}, {"note": 0, "velocity": 0, "duration": 96}, {"note": 67, "velocity": 96, "duration": 179}, {"note": 0, "velocity": 0, "duration": 61}, {"note": 72, "velocity": 93, "duration": 52}, {"note": 0, "velocity": 0, "duration": 68}, {"note": 72, "velocity": 88, "duration": 74}, {"note": 70, "velocity": 99, "duration": 69}, {"note": 72, "velocity": 107, "duration": 235}, {"note": 0, "velocity": 0, "duration": 245}, {"note": 65, "velocity": 92, "duration": 52}, {"note": 0, "velocity": 0, "duration": 68}, {"note": 65, "velocity": 81, "duration": 49}, {"note": 0, "velocity": 0, "duration": 71}, {"note": 65, "velocity": 86, "duration": 56}, {"note": 0, "velocity": 0, "duration": 64}, {"note": 67, "velocity": 83, "duration": 55}, {"note": 0, "velocity": 0, "duration": 65}, {"note": 68, "velocity": 122, "duration": 181}, {"note": 65, "velocity": 102, "duration": 138}, {"note": 0, "velocity": 0, "duration": 102}, {"note": 64, "velocity": 88, "duration": 81}, {"note": 65, "velocity": 72, "duration": 71}, {"note": 67, "velocity": 72, "duration": 111}, {"note": 64, "velocity": 85, "duration": 119}, {"note": 60, "velocity": 85, "duration": 311}, {"note": 58, "velocity": 89, "duration": 84}, {"note": 60, "velocity": 72, "duration": 74}, {"note": 61, "velocity": 102, "duration": 88}, {"note": 60, "velocity": 81, "duration": 81}, {"note": 58, "velocity": 75, "duration": 70}, {"note": 60, "velocity": 75, "duration": 66}, {"note": 61, "velocity": 95, "duration": 224}, {"note": 72, "velocity": 90, "duration": 145}, {"note": 0, "velocity": 0, "duration": 95}, {"note": 70, "velocity": 93, "duration": 157}, {"note": 0, "velocity": 0, "duration": 83}, {"note": 72, "velocity": 96, "duration": 194}, {"note": 67, "velocity": 83, "duration": 104}, {"note": 68, "velocity": 99, "duration": 500}, {"note": 0, "velocity": 0, "duration": 100}, {"note": 70, "velocity": 102, "duration": 37}, {"note": 0, "velocity": 0, "duration": 83}, {"note": 70, "velocity": 88, "duration": 42}, {"note": 0, "velocity": 0, "duration": 78}, {"note": 70, "velocity": 97, "duration": 52}, {"note": 0, "velocity": 0, "duration": 68}, {"note": 70, "velocity": 100, "duration": 58}, {"note": 0, "velocity": 0, "duration": 62}, {"note": 70, "velocity": 107, "duration": 144}, {"note": 65, "velocity": 88, "duration": 193}, {"note": 72, "velocity": 117, "duration": 193}, {"note": 67, "velocity": 92, "duration": 82}, {"note": 67, "velocity": 83, "duration": 106}, {"note": 72, "velocity": 96, "duration": 309}, {"note": 0, "velocity": 0, "duration": 291}, {"note": 68, "velocity": 95, "duration": 52}, {"note": 0, "velocity": 0, "duration": 68}, {"note": 68, "velocity": 70, "duration": 56}, {"note": 0, "velocity": 0, "duration": 64}, {"note": 68, "velocity": 95, "duration": 61}, {"note": 67, "velocity": 63, "duration": 56}, {"note": 0, "velocity": 0, "duration": 64}, {"note": 68, "velocity": 99, "duration": 264}, {"note": 0, "velocity": 0, "duration": 96}, {"note": 67, "velocity": 96, "duration": 179}, {"note": 0, "velocity": 0, "duration": 61}, {"note": 72, "velocity": 93, "duration": 52}, {"note": 0, "velocity": 0, "duration": 68}, {"note": 72, "velocity": 88, "duration": 74}, {"note": 70, "velocity": 99, "duration": 69}, {"note": 72, "velocity": 107, "duration": 235}, {"note": 0, "velocity": 0, "duration": 245}, {"note": 65, "velocity": 92, "duration": 52}, {"note": 0, "velocity": 0, "duration": 68}, {"note": 65, "velocity": 81, "duration": 49}, {"note": 0, "velocity": 0, "duration": 71}, {"note": 65, "velocity": 86, "duration": 56}, {"note": 0, "velocity": 0, "duration": 64}, {"note": 67, "velocity": 83, "duration": 55}, {"note": 0, "velocity": 0, "duration": 65}, {"note": 68, "velocity": 122, "duration": 181}, {"note": 65, "velocity": 102, "duration": 138}, {"note": 0, "velocity": 0, "duration": 102}, {"note": 64, "velocity": 88, "duration": 81}, {"note": 65, "velocity": 72, "duration": 71}, {"note": 67, "velocity": 72, "duration": 111}, {"note": 64, "velocity": 85, "duration": 119}, {"note": 60, "velocity": 85, "duration": 188}, {"note": 58, "velocity": 89, "duration": 84}, {"note": 60, "velocity": 72, "duration": 74}, {"note": 61, "velocity": 102, "duration": 88}, {"note": 60, "velocity": 81, "duration": 81}, {"note": 58, "velocity": 75, "duration": 70}, {"note": 60, "velocity": 75, "duration": 66}, {"note": 61, "velocity": 95, "duration": 224}, {"note": 72, "velocity": 90, "duration": 145}, {"note": 0, "velocity": 0, "duration": 95}, {"note": 70, "velocity": 93, "duration": 157}, {"note": 0, "velocity": 0, "duration": 83}, {"note": 72, "velocity": 96, "duration": 194}, {"note": 67, "velocity": 83, "duration": 104}, {"note": 68, "velocity": 99, "duration": 500}, {"note": 0, "velocity": 0, "duration": 100}, {"note": 70, "velocity": 96, "duration": 109}, {"note": 65, "velocity": 82, "duration": 64}, {"note": 70, "velocity": 96, "duration": 65}, {"note": 72, "velocity": 83, "duration": 85}, {"note": 0, "velocity": 0, "duration": 155}, {"note": 67, "velocity": 85, "duration": 199}, {"note": 68, "velocity": 99, "duration": 94}, {"note": 67, "velocity": 76, "duration": 147}, {"note": 65, "velocity": 75, "duration": 502}, {"note": 0, "velocity": 0, "duration": 98}, {"note": 58, "velocity": 83, "duration": 98}, {"note": 60, "velocity": 72, "duration": 149}, {"note": 61, "velocity": 89, "duration": 119}, {"note": 60, "velocity": 56, "duration": 109}, {"note": 58, "velocity": 56, "duration": 96}, {"note": 60, "velocity": 63, "duration": 143}, {"note": 61, "velocity": 89, "duration": 197}, {"note": 72, "velocity": 96, "duration": 161}, {"note": 0, "velocity": 0, "duration": 79}, {"note": 70, "velocity": 99, "duration": 184}, {"note": 72, "velocity": 89, "duration": 79}, {"note": 68, "velocity": 82, "duration": 113}, {"note": 65, "velocity": 85, "duration": 377}, {"note": 0, "velocity": 0, "duration": 223}, {"note": 70, "velocity": 97, "duration": 101}, {"note": 65, "velocity": 70, "duration": 116}, {"note": 70, "velocity": 79, "duration": 137}, {"note": 72, "velocity": 70, "duration": 109}, {"note": 0, "velocity": 0, "duration": 131}, {"note": 67, "velocity": 76, "duration": 204}, {"note": 0, "velocity": 0, "duration": 156}, {"note": 68, "velocity": 93, "duration": 67}, {"note": 67, "velocity": 79, "duration": 182}, {"note": 65, "velocity": 71, "duration": 788}]]