[[{"note": 68, "velocity": 127, "duration": 261}, {"note": 66, "velocity": 99, "duration": 1275}, {"note": 0, "velocity": 0, "duration": 285}, {"note": 56, "velocity": 88, "duration": 96}, {"note": 68, "velocity": 99, "duration": 145}, {"note": 66, "velocity": 88, "duration": 112}, {"note": 64, "velocity": 85, "duration": 119}, {"note": 66, "velocity": 102, "duration": 167}, {"note": 0, "velocity": 0, "duration": 133}, {"note": 68, "velocity": 127, "duration": 300}, {"note": 0, "velocity": 0, "duration": 840}, {"note": 56, "velocity": 77, "duration": 91}, {"note": 68, "velocity": 82, "duration": 63}, {"note": 66, "velocity": 95, "duration": 101}, {"note": 64, "velocity": 82, "duration": 87}, {"note": 66, "velocity": 100, "duration": 192}, {"note": 0, "velocity": 0, "duration": 168}, {"note": 64, "velocity": 86, "duration": 142}, {"note": 61, "velocity": 81, "duration": 711}, {"note": 0, "velocity": 0, "duration": 1689}, {"note": 56, "velocity": 86, "duration": 97}, {"note": 68, "velocity": 93, "duration": 62}, {"note": 68, "velocity": 86, "duration": 52}, {"note": 0, "velocity": 0, "duration": 68}, {"note": 68, "velocity": 97, "duration": 68}, {"note": 0, "velocity": 0, "duration": 172}, {"note": 68, "velocity": 117, "duration": 79}, {"note": 0, "velocity": 0, "duration": 161}, {"note": 66, "velocity": 107, "duration": 57}, {"note": 0, "velocity": 0, "duration": 63}, {"note": 66, "velocity": 102, "duration": 311}, {"note": 0, "velocity": 0, "duration": 649}, {"note": 56, "velocity": 93, "duration": 72}, {"note": 66, "velocity": 90, "duration": 45}, {"note": 0, "velocity": 0, "duration": 75}, {"note": 66, "velocity": 78, "duration": 40}, {"note": 0, "velocity": 0, "duration": 80}, {"note": 66, "velocity": 99, "duration": 52}, {"note": 0, "velocity": 0, "duration": 68}, {"note": 66, "velocity": 97, "duration": 81}, {"note": 68, "velocity": 107, "duration": 98}, {"note": 0, "velocity": 0, "duration": 142}, {"note": 64, "velocity": 92, "duration": 61}, {"note": 64, "velocity": 90, "duration": 155}, {"note": 0, "velocity": 0, "duration": 805}, {"note": 61, "velocity": 88, "duration": 42}, {"note": 0, "velocity": 0, "duration": 78}, {"note": 61, "velocity": 93, "duration": 56}, {"note": 0, "velocity": 0, "duration": 64}, {"note": 61, "velocity": 99, "duration": 71}, {"note": 64, "velocity": 100, "duration": 110}, {"note": 0, "velocity": 0, "duration": 130}, {"note": 68, "velocity": 127, "duration": 211}, {"note": 0, "velocity": 0, "duration": 269}, {"note": 61, "velocity": 122, "duration": 159}, {"note": 0, "velocity": 0, "duration": 81}, {"note": 64, "velocity": 99, "duration": 106}, {"note": 0, "velocity": 0, "duration": 134}, {"note": 68, "velocity": 117, "duration": 250}, {"note": 0, "velocity": 0, "duration": 470}, {"note": 54, "velocity": 99, "duration": 162}, {"note": 0, "velocity": 0, "duration": 78}, {"note": 66, "velocity": 99, "duration": 178}, {"note": 0, "velocity": 0, "duration": 62}, {"note": 64, "velocity": 102, "duration": 243}, {"note": 0, "velocity": 0, "duration": 837}, {"note": 59, "velocity": 95, "duration": 61}, {"note": 68, "velocity": 99, "duration": 48}, {"note": 0, "velocity": 0, "duration": 72}, {"note": 68, "velocity": 89, "duration": 50}, {"note": 0, "velocity": 0, "duration": 70}, {"note": 68, "velocity": 78, "duration": 41}, {"note": 0, "velocity": 0, "duration": 79}, {"note": 68, "velocity": 90, "duration": 48}, {"note": 0, "velocity": 0, "duration": 72}, {"note": 68, "velocity": 96, "duration": 108}, {"note": 0, "velocity": 0, "duration": 132}, {"note": 66, "velocity": 117, "duration": 75}, {"note": 66, "velocity": 107, "duration": 392}, {"note": 0, "velocity": 0, "duration": 568}, {"note": 59, "velocity": 90, "duration": 65}, {"note": 66, "velocity": 93, "duration": 47}, {"note": 0, "velocity": 0, "duration": 73}, {"note": 66, "velocity": 99, "duration": 43}, {"note": 0, "velocity": 0, "duration": 77}, {"note": 66, "velocity": 93, "duration": 44}, {"note": 0, "velocity": 0, "duration": 76}, {"note": 66, "velocity": 99, "duration": 51}, {"note": 0, "velocity": 0, "duration": 69}, {"note": 68, "velocity": 127, "duration": 223}, {"note": 64, "velocity": 100, "duration": 253}, {"note": 0, "velocity": 0, "duration": 827}, {"note": 61, "velocity": 89, "duration": 42}, {"note": 0, "velocity": 0, "duration": 78}, {"note": 61, "velocity": 102, "duration": 145}, {"note": 0, "velocity": 0, "duration": 95}, {"note": 64, "velocity": 100, "duration": 115}, {"note": 0, "velocity": 0, "duration": 125}, {"note": 68, "velocity": 127, "duration": 285}, {"note": 0, "velocity": 0, "duration": 195}, {"note": 61, "velocity": 102, "duration": 320}, {"note": 0, "velocity": 0, "duration": 160}, {"note": 64, "velocity": 97, "duration": 188}, {"note": 66, "velocity": 127, "duration": 255}, {"note": 64, "velocity": 89, "duration": 428}, {"note": 64, "velocity": 100, "duration": 195}, {"note": 66, "velocity": 99, "duration": 159}, {"note": 0, "velocity": 0, "duration": 81}, {"note": 68, "velocity": 117, "duration": 348}, {"note": 0, "velocity": 0, "duration": 132}, {"note": 71, "velocity": 117, "duration": 61}, {"note": 0, "velocity": 0, "duration": 179}, {"note": 71, "velocity": 117, "duration": 398}, {"note": 0, "velocity": 0, "duration": 322}, {"note": 68, "velocity": 127, "duration": 208}, {"note": 64, "velocity": 93, "duration": 221}, {"note": 66, "velocity": 112, "duration": 361}, {"note": 0, "velocity": 0, "duration": 119}, {"note": 71, "velocity": 122, "duration": 56}, {"note": 0, "velocity": 0, "duration": 184}, {"note": 71, "velocity": 122, "duration": 424}, {"note": 0, "velocity": 0, "duration": 296}, {"note": 64, "velocity": 107, "duration": 160}, {"note": 0, "velocity": 0, "duration": 80}, {"note": 66, "velocity": 107, "duration": 157}, {"note": 0, "velocity": 0, "duration": 83}, {"note": 68, "velocity": 117, "duration": 221}, {"note": 0, "velocity": 0, "duration": 259}, {"note": 68, "velocity": 117, "duration": 153}, {"note": 0, "velocity": 0, "duration": 87}, {"note": 71, "velocity": 122, "duration": 147}, {"note": 0, "velocity": 0, "duration": 93}, {"note": 69, "velocity": 127, "duration": 205}, {"note": 68, "velocity": 117, "duration": 87}, {"note": 0, "velocity": 0, "duration": 153}, {"note": 66, "velocity": 127, "duration": 215}, {"note": 64, "velocity": 95, "duration": 124}, {"note": 0, "velocity": 0, "duration": 116}, {"note": 64, "velocity": 107, "duration": 218}, {"note": 0, "velocity": 0, "duration": 262}, {"note": 68, "velocity": 117, "duration": 169}, {"note": 0, "velocity": 0, "duration": 71}, {"note": 71, "velocity": 112, "duration": 147}, {"note": 0, "velocity": 0, "duration": 93}, {"note": 69, "velocity": 102, "duration": 121}, {"note": 0, "velocity": 0, "duration": 119}, {"note": 68, "velocity": 127, "duration": 202}, {"note": 66, "velocity": 127, "duration": 203}, {"note": 64, "velocity": 95, "duration": 73}, {"note": 0, "velocity": 0, "duration": 167}, {"note": 68, "velocity": 127, "duration": 444}, {"note": 71, "velocity": 102, "duration": 51}, {"note": 0, "velocity": 0, "duration": 189}, {"note": 71, "velocity": 127, "duration": 470}, {"note": 0, "velocity": 0, "duration": 490}, {"note": 64, "velocity": 99, "duration": 197}, {"note": 66, "velocity": 112, "duration": 362}, {"note": 0, "velocity": 0, "duration": 118}, {"note": 71, "velocity": 112, "duration": 101}, {"note": 0, "velocity": 0, "duration": 139}, {"note": 73, "velocity": 127, "duration": 241}, {"note": 71, "velocity": 100, "duration": 462}, {"note": 64, "velocity": 107, "duration": 80}, {"note": 0, "velocity": 0, "duration": 160}, {"note": 66, "velocity": 122, "duration": 121}, {"note": 0, "velocity": 0, "duration": 119}, {"note": 68, "velocity": 122, "duration": 298}, {"note": 0, "velocity": 0, "duration": 182}, {"note": 68, "velocity": 127, "duration": 155}, {"note": 0, "velocity": 0, "duration": 85}, {"note": 71, "velocity": 117, "duration": 186}, {"note": 69, "velocity": 107, "duration": 193}, {"note": 68, "velocity": 122, "duration": 190}, {"note": 66, "velocity": 107, "duration": 227}, {"note": 64, "velocity": 100, "duration": 200}, {"note": 61, "velocity": 107, "duration": 140}, {"note": 0, "velocity": 0, "duration": 100}, {"note": 61, "velocity": 112, "duration": 141}, {"note": 0, "velocity": 0, "duration": 99}, {"note": 63, "velocity": 100, "duration": 446}, {"note": 64, "velocity": 97, "duration": 410}, {"note": 0, "velocity": 0, "duration": 70}, {"note": 68, "velocity": 122, "duration": 232}, {"note": 0, "velocity": 0, "duration": 248}, {"note": 71, "velocity": 115, "duration": 196}, {"note": 0, "velocity": 0, "duration": 284}, {"note": 68, "velocity": 122, "duration": 208}, {"note": 0, "velocity": 0, "duration": 272}, {"note": 71, "velocity": 99, "duration": 127}, {"note": 68, "velocity": 112, "duration": 138}, {"note": 66, "velocity": 107, "duration": 104}, {"note": 0, "velocity": 0, "duration": 136}, {"note": 66, "velocity": 127, "duration": 272}, {"note": 0, "velocity": 0, "duration": 208}, {"note": 71, "velocity": 127, "duration": 170}, {"note": 0, "velocity": 0, "duration": 70}, {"note": 69, "velocity": 117, "duration": 209}, {"note": 68, "velocity": 122, "duration": 184}, {"note": 71, "velocity": 100, "duration": 127}, {"note": 0, "velocity": 0, "duration": 113}, {"note": 69, "velocity": 112, "duration": 135}, {"note": 0, "velocity": 0, "duration": 105}, {"note": 68, "velocity": 112, "duration": 139}, {"note": 0, "velocity": 0, "duration": 101}, {"note": 64, "velocity": 97, "duration": 150}, {"note": 0, "velocity": 0, "duration": 90}, {"note": 66, "velocity": 122, "duration": 110}, {"note": 0, "velocity": 0, "duration": 130}, {"note": 64, "velocity": 99, "duration": 199}, {"note": 0, "velocity": 0, "duration": 161}, {"note": 59, "velocity": 90, "duration": 112}, {"note": 68, "velocity": 107, "duration": 116}, {"note": 66, "velocity": 127, "duration": 123}, {"note": 64, "velocity": 96, "duration": 137}, {"note": 66, "velocity": 122, "duration": 279}, {"note": 0, "velocity": 0, "duration": 81}, {"note": 68, "velocity": 122, "duration": 204}, {"note": 0, "velocity": 0, "duration": 276}, {"note": 66, "velocity": 127, "duration": 242}, {"note": 64, "velocity": 102, "duration": 180}, {"note": 0, "velocity": 0, "duration": 180}, {"note": 59, "velocity": 95, "duration": 86}, {"note": 68, "velocity": 107, "duration": 94}, {"note": 66, "velocity": 112, "duration": 100}, {"note": 64, "velocity": 89, "duration": 118}, {"note": 66, "velocity": 127, "duration": 159}, {"note": 0, "velocity": 0, "duration": 201}, {"note": 61, "velocity": 117, "duration": 522}, {"note": 0, "velocity": 0, "duration": 198}, {"note": 71, "velocity": 117, "duration": 255}, {"note": 0, "velocity": 0, "duration": 225}, {"note": 68, "velocity": 122, "duration": 304}, {"note": 0, "velocity": 0, "duration": 176}, {"note": 71, "velocity": 127, "duration": 221}, {"note": 68, "velocity": 122, "duration": 146}, {"note": 0, "velocity": 0, "duration": 94}, {"note": 66, "velocity": 117, "duration": 216}, {"note": 0, "velocity": 0, "duration": 264}, {"note": 71, "velocity": 127, "duration": 157}, {"note": 0, "velocity": 0, "duration": 83}, {"note": 69, "velocity": 107, "duration": 135}, {"note": 0, "velocity": 0, "duration": 105}, {"note": 68, "velocity": 122, "duration": 126}, {"note": 0, "velocity": 0, "duration": 114}, {"note": 71, "velocity": 112, "duration": 141}, {"note": 0, "velocity": 0, "duration": 99}, {"note": 69, "velocity": 127, "duration": 150}, {"note": 0, "velocity": 0, "duration": 90}, {"note": 68, "velocity": 127, "duration": 165}, {"note": 0, "velocity": 0, "duration": 75}, {"note": 64, "velocity": 102, "duration": 159}, {"note": 0, "velocity": 0, "duration": 81}, {"note": 66, "velocity": 122, "duration": 241}, {"note": 64, "velocity": 96, "duration": 323}, {"note": 59, "velocity": 88, "duration": 70}, {"note": 68, "velocity": 112, "duration": 99}, {"note": 66, "velocity": 99, "duration": 90}, {"note": 64, "velocity": 77, "duration": 151}, {"note": 66, "velocity": 127, "duration": 231}, {"note": 0, "velocity": 0, "duration": 129}, {"note": 68, "velocity": 127, "duration": 145}, {"note": 0, "velocity": 0, "duration": 335}, {"note": 66, "velocity": 127, "duration": 237}, {"note": 64, "velocity": 96, "duration": 208}, {"note": 0, "velocity": 0, "duration": 152}, {"note": 59, "velocity": 89, "duration": 88}, {"note": 68, "velocity": 107, "duration": 125}, {"note": 66, "velocity": 99, "duration": 112}, {"note": 64, "velocity": 93, "duration": 108}, {"note": 66, "velocity": 112, "duration": 232}, {"note": 0, "velocity": 0, "duration": 128}, {"note": 64, "velocity": 96, "duration": 124}, {"note": 61, "velocity": 96, "duration": 394}, {"note": 0, "velocity": 0, "duration": 2966}, {"note": 56, "velocity": 86, "duration": 97}, {"note": 68, "velocity": 93, "duration": 62}, {"note": 68, "velocity": 86, "duration": 52}, {"note": 0, "velocity": 0, "duration": 68}, {"note": 68, "velocity": 97, "duration": 68}, {"note": 0, "velocity": 0, "duration": 172}, {"note": 68, "velocity": 117, "duration": 79}, {"note": 0, "velocity": 0, "duration": 161}, {"note": 66, "velocity": 107, "duration": 57}, {"note": 0, "velocity": 0, "duration": 63}, {"note": 66, "velocity": 102, "duration": 311}, {"note": 0, "velocity": 0, "duration": 649}, {"note": 56, "velocity": 93, "duration": 72}, {"note": 66, "velocity": 90, "duration": 45}, {"note": 0, "velocity": 0, "duration": 75}, {"note": 66, "velocity": 78, "duration": 40}, {"note": 0, "velocity": 0, "duration": 80}, {"note": 66, "velocity": 99, "duration": 52}, {"note": 0, "velocity": 0, "duration": 68}, {"note": 66, "velocity": 97, "duration": 81}, {"note": 68, "velocity": 107, "duration": 98}, {"note": 0, "velocity": 0, "duration": 142}, {"note": 64, "velocity": 92, "duration": 61}, {"note": 64, "velocity": 90, "duration": 155}, {"note": 0, "velocity": 0, "duration": 805}, {"note": 61, "velocity": 88, "duration": 42}, {"note": 0, "velocity": 0, "duration": 78}, {"note": 61, "velocity": 93, "duration": 56}, {"note": 0, "velocity": 0, "duration": 64}, {"note": 61, "velocity": 99, "duration": 71}, {"note": 64, "velocity": 100, "duration": 110}, {"note": 0, "velocity": 0, "duration": 130}, {"note": 68, "velocity": 127, "duration": 211}, {"note": 0, "velocity": 0, "duration": 269}, {"note": 61, "velocity": 122, "duration": 159}, {"note": 0, "velocity": 0, "duration": 81}, {"note": 64, "velocity": 99, "duration": 106}, {"note": 0, "velocity": 0, "duration": 134}, {"note": 68, "velocity": 117, "duration": 250}, {"note": 0, "velocity": 0, "duration": 470}, {"note": 54, "velocity": 99, "duration": 162}, {"note": 0, "velocity": 0, "duration": 78}, {"note": 66, "velocity": 99, "duration": 178}, {"note": 0, "velocity": 0, "duration": 62}, {"note": 64, "velocity": 102, "duration": 243}, {"note": 0, "velocity": 0, "duration": 837}, {"note": 59, "velocity": 95, "duration": 61}, {"note": 68, "velocity": 99, "duration": 48}, {"note": 0, "velocity": 0, "duration": 72}, {"note": 68, "velocity": 89, "duration": 50}, {"note": 0, "velocity": 0, "duration": 70}, {"note": 68, "velocity": 78, "duration": 41}, {"note": 0, "velocity": 0, "duration": 79}, {"note": 68, "velocity": 90, "duration": 48}, {"note": 0, "velocity": 0, "duration": 72}, {"note": 68, "velocity": 96, "duration": 108}, {"note": 0, "velocity": 0, "duration": 132}, {"note": 66, "velocity": 117, "duration": 75}, {"note": 66, "velocity": 107, "duration": 392}, {"note": 0, "velocity": 0, "duration": 568}, {"note": 59, "velocity": 90, "duration": 65}, {"note": 66, "velocity": 93, "duration": 47}, {"note": 0, "velocity": 0, "duration": 73}, {"note": 66, "velocity": 99, "duration": 43}, {"note": 0, "velocity": 0, "duration": 77}, {"note": 66, "velocity": 93, "duration": 44}, {"note": 0, "velocity": 0, "duration": 76}, {"note": 66, "velocity": 99, "duration": 51}, {"note": 0, "velocity": 0, "duration": 69}, {"note": 68, "velocity": 127, "duration": 223}, {"note": 64, "velocity": 100, "duration": 253}, {"note": 0, "velocity": 0, "duration": 827}, {"note": 61, "velocity": 89, "duration": 42}, {"note": 0, "velocity": 0, "duration": 78}, {"note": 61, "velocity": 102, "duration": 145}, {"note": 0, "velocity": 0, "duration": 95}, {"note": 64, "velocity": 100, "duration": 115}, {"note": 0, "velocity": 0, "duration": 125}, {"note": 68, "velocity": 127, "duration": 285}, {"note": 0, "velocity": 0, "duration": 195}, {"note": 61, "velocity": 102, "duration": 320}, {"note": 0, "velocity": 0, "duration": 160}, {"note": 64, "velocity": 97, "duration": 188}, {"note": 66, "velocity": 127, "duration": 255}, {"note": 64, "velocity": 89, "duration": 428}, {"note": 64, "velocity": 100, "duration": 195}, {"note": 66, "velocity": 99, "duration": 159}, {"note": 0, "velocity": 0, "duration": 81}, {"note": 68, "velocity": 117, "duration": 348}, {"note": 0, "velocity": 0, "duration": 132}, {"note": 71, "velocity": 117, "duration": 61}, {"note": 0, "velocity": 0, "duration": 179}, {"note": 71, "velocity": 117, "duration": 398}, {"note": 0, "velocity": 0, "duration": 322}, {"note": 68, "velocity": 127, "duration": 208}, {"note": 64, "velocity": 93, "duration": 221}, {"note": 66, "velocity": 112, "duration": 361}, {"note": 0, "velocity": 0, "duration": 119}, {"note": 71, "velocity": 122, "duration": 56}, {"note": 0, "velocity": 0, "duration": 184}, {"note": 71, "velocity": 122, "duration": 424}, {"note": 0, "velocity": 0, "duration": 296}, {"note": 64, "velocity": 107, "duration": 160}, {"note": 0, "velocity": 0, "duration": 80}, {"note": 66, "velocity": 107, "duration": 157}, {"note": 0, "velocity": 0, "duration": 83}, {"note": 68, "velocity": 117, "duration": 221}, {"note": 0, "velocity": 0, "duration": 259}, {"note": 68, "velocity": 117, "duration": 153}, {"note": 0, "velocity": 0, "duration": 87}, {"note": 71, "velocity": 122, "duration": 147}, {"note": 0, "velocity": 0, "duration": 93}, {"note": 69, "velocity": 127, "duration": 205}, {"note": 68, "velocity": 117, "duration": 87}, {"note": 0, "velocity": 0, "duration": 153}, {"note": 66, "velocity": 127, "duration": 215}, {"note": 64, "velocity": 95, "duration": 124}, {"note": 0, "velocity": 0, "duration": 116}, {"note": 64, "velocity": 107, "duration": 218}, {"note": 0, "velocity": 0, "duration": 262}, {"note": 68, "velocity": 117, "duration": 169}, {"note": 0, "velocity": 0, "duration": 71}, {"note": 71, "velocity": 112, "duration": 147}, {"note": 0, "velocity": 0, "duration": 93}, {"note": 69, "velocity": 102, "duration": 121}, {"note": 0, "velocity": 0, "duration": 119}, {"note": 68, "velocity": 127, "duration": 202}, {"note": 66, "velocity": 127, "duration": 203}, {"note": 64, "velocity": 95, "duration": 73}, {"note": 0, "velocity": 0, "duration": 167}, {"note": 68, "velocity": 127, "duration": 444}, {"note": 71, "velocity": 102, "duration": 51}, {"note": 0, "velocity": 0, "duration": 189}, {"note": 71, "velocity": 127, "duration": 470}, {"note": 0, "velocity": 0, "duration": 490}, {"note": 64, "velocity": 99, "duration": 197}, {"note": 66, "velocity": 112, "duration": 362}, {"note": 0, "velocity": 0, "duration": 118}, {"note": 71, "velocity": 112, "duration": 101}, {"note": 0, "velocity": 0, "duration": 139}, {"note": 73, "velocity": 127, "duration": 241}, {"note": 71, "velocity": 100, "duration": 462}, {"note": 64, "velocity": 107, "duration": 80}, {"note": 0, "velocity": 0, "duration": 160}, {"note": 66, "velocity": 122, "duration": 121}, {"note": 0, "velocity": 0, "duration": 119}, {"note": 68, "velocity": 122, "duration": 298}, {"note": 0, "velocity": 0, "duration": 182}, {"note": 68, "velocity": 127, "duration": 155}, {"note": 0, "velocity": 0, "duration": 85}, {"note": 71, "velocity": 117, "duration": 186}, {"note": 69, "velocity": 107, "duration": 193}, {"note": 68, "velocity": 122, "duration": 190}, {"note": 66, "velocity": 107, "duration": 227}, {"note": 64, "velocity": 100, "duration": 200}, {"note": 61, "velocity": 107, "duration": 140}, {"note": 0, "velocity": 0, "duration": 100}, {"note": 61, "velocity": 112, "duration": 141}, {"note": 0, "velocity": 0, "duration": 99}, {"note": 63, "velocity": 100, "duration": 446}, {"note": 64, "velocity": 97, "duration": 410}, {"note": 0, "velocity": 0, "duration": 70}, {"note": 68, "velocity": 122, "duration": 232}, {"note": 0, "velocity": 0, "duration": 248}, {"note": 71, "velocity": 85, "duration": 196}, {"note": 0, "velocity": 0, "duration": 284}, {"note": 68, "velocity": 122, "duration": 208}, {"note": 0, "velocity": 0, "duration": 272}, {"note": 71, "velocity": 99, "duration": 127}, {"note": 68, "velocity": 112, "duration": 138}, {"note": 66, "velocity": 107, "duration": 104}, {"note": 0, "velocity": 0, "duration": 136}, {"note": 66, "velocity": 127, "duration": 272}, {"note": 0, "velocity": 0, "duration": 208}, {"note": 71, "velocity": 127, "duration": 170}, {"note": 0, "velocity": 0, "duration": 70}, {"note": 69, "velocity": 117, "duration": 209}, {"note": 68, "velocity": 122, "duration": 184}, {"note": 71, "velocity": 100, "duration": 127}, {"note": 0, "velocity": 0, "duration": 113}, {"note": 69, "velocity": 112, "duration": 135}, {"note": 0, "velocity": 0, "duration": 105}, {"note": 68, "velocity": 112, "duration": 139}, {"note": 0, "velocity": 0, "duration": 101}, {"note": 64, "velocity": 97, "duration": 150}, {"note": 0, "velocity": 0, "duration": 90}, {"note": 66, "velocity": 122, "duration": 110}, {"note": 0, "velocity": 0, "duration": 130}, {"note": 64, "velocity": 99, "duration": 199}, {"note": 0, "velocity": 0, "duration": 161}, {"note": 59, "velocity": 90, "duration": 112}, {"note": 68, "velocity": 107, "duration": 116}, {"note": 66, "velocity": 127, "duration": 123}, {"note": 64, "velocity": 96, "duration": 137}, {"note": 66, "velocity": 122, "duration": 279}, {"note": 0, "velocity": 0, "duration": 81}, {"note": 68, "velocity": 122, "duration": 204}, {"note": 0, "velocity": 0, "duration": 276}, {"note": 66, "velocity": 127, "duration": 242}, {"note": 64, "velocity": 102, "duration": 180}, {"note": 0, "velocity": 0, "duration": 180}, {"note": 59, "velocity": 95, "duration": 86}, {"note": 68, "velocity": 107, "duration": 94}, {"note": 66, "velocity": 112, "duration": 100}, {"note": 64, "velocity": 89, "duration": 118}, {"note": 66, "velocity": 127, "duration": 159}, {"note": 0, "velocity": 0, "duration": 201}, {"note": 61, "velocity": 117, "duration": 522}, {"note": 0, "velocity": 0, "duration": 198}, {"note": 71, "velocity": 117, "duration": 255}, {"note": 0, "velocity": 0, "duration": 225}, {"note": 68, "velocity": 122, "duration": 304}, {"note": 0, "velocity": 0, "duration": 176}, {"note": 71, "velocity": 127, "duration": 221}, {"note": 68, "velocity": 122, "duration": 146}, {"note": 0, "velocity": 0, "duration": 94}, {"note": 66, "velocity": 117, "duration": 216}, {"note": 0, "velocity": 0, "duration": 264}, {"note": 71, "velocity": 127, "duration": 157}, {"note": 0, "velocity": 0, "duration": 83}, {"note": 69, "velocity": 107, "duration": 135}, {"note": 0, "velocity": 0, "duration": 105}, {"note": 68, "velocity": 122, "duration": 126}, {"note": 0, "velocity": 0, "duration": 114}, {"note": 71, "velocity": 112, "duration": 141}, {"note": 0, "velocity": 0, "duration": 99}, {"note": 69, "velocity": 127, "duration": 150}, {"note": 0, "velocity": 0, "duration": 90}, {"note": 68, "velocity": 127, "duration": 165}, {"note": 0, "velocity": 0, "duration": 75}, {"note": 64, "velocity": 102, "duration": 159}, {"note": 0, "velocity": 0, "duration": 81}, {"note": 66, "velocity": 122, "duration": 241}, {"note": 64, "velocity": 96, "duration": 323}, {"note": 59, "velocity": 88, "duration": 70}, {"note": 68, "velocity": 112, "duration": 99}, {"note": 66, "velocity": 99, "duration": 90}, {"note": 64, "velocity": 77, "duration": 151}, {"note": 66, "velocity": 127, "duration": 231}, {"note": 0, "velocity": 0, "duration": 129}, {"note": 68, "velocity": 127, "duration": 145}, {"note": 0, "velocity": 0, "duration": 335}, {"note": 66, "velocity": 127, "duration": 237}, {"note": 64, "velocity": 96, "duration": 208}, {"note": 0, "velocity": 0, "duration": 152}, {"note": 59, "velocity": 89, "duration": 88}, {"note": 68, "velocity": 107, "duration": 125}, {"note": 66, "velocity": 99, "duration": 112}, {"note": 64, "velocity": 93, "duration": 108}, {"note": 66, "velocity": 112, "duration": 232}, {"note": 0, "velocity": 0, "duration": 128}, {"note": 64, "velocity": 96, "duration": 124}, {"note": 61, "velocity": 96, "duration": 394}, {"note": 0, "velocity": 0, "duration": 1046}, {"note": 59, "velocity": 93, "duration": 94}, {"note": 64, "velocity": 99, "duration": 109}, {"note": 0, "velocity": 0, "duration": 131}, {"note": 61, "velocity": 117, "duration": 104}, {"note": 59, "velocity": 78, "duration": 81}, {"note": 66, "velocity": 122, "duration": 183}, {"note": 64, "velocity": 122, "duration": 414}, {"note": 0, "velocity": 0, "duration": 666}, {"note": 59, "velocity": 90, "duration": 79}, {"note": 64, "velocity": 97, "duration": 52}, {"note": 0, "velocity": 0, "duration": 68}, {"note": 64, "velocity": 79, "duration": 85}, {"note": 61, "velocity": 89, "duration": 119}, {"note": 59, "velocity": 85, "duration": 97}, {"note": 66, "velocity": 127, "duration": 114}, {"note": 0, "velocity": 0, "duration": 126}, {"note": 68, "velocity": 122, "duration": 474}, {"note": 0, "velocity": 0, "duration": 606}, {"note": 61, "velocity": 89, "duration": 80}, {"note": 64, "velocity": 96, "duration": 100}, {"note": 0, "velocity": 0, "duration": 140}, {"note": 61, "velocity": 100, "duration": 95}, {"note": 64, "velocity": 96, "duration": 234}, {"note": 0, "velocity": 0, "duration": 126}, {"note": 64, "velocity": 96, "duration": 92}, {"note": 61, "velocity": 73, "duration": 94}, {"note": 64, "velocity": 97, "duration": 59}, {"note": 0, "velocity": 0, "duration": 61}, {"note": 64, "velocity": 83, "duration": 90}, {"note": 61, "velocity": 89, "duration": 83}, {"note": 64, "velocity": 102, "duration": 120}, {"note": 0, "velocity": 0, "duration": 240}, {"note": 64, "velocity": 93, "duration": 115}, {"note": 61, "velocity": 83, "duration": 88}, {"note": 64, "velocity": 93, "duration": 61}, {"note": 64, "velocity": 86, "duration": 85}, {"note": 61, "velocity": 96, "duration": 70}, {"note": 64, "velocity": 100, "duration": 310}, {"note": 68, "velocity": 122, "duration": 450}, {"note": 0, "velocity": 0, "duration": 630}, {"note": 59, "velocity": 96, "duration": 76}, {"note": 71, "velocity": 100, "duration": 102}, {"note": 0, "velocity": 0, "duration": 138}, {"note": 71, "velocity": 96, "duration": 46}, {"note": 0, "velocity": 0, "duration": 74}, {"note": 71, "velocity": 92, "duration": 58}, {"note": 0, "velocity": 0, "duration": 62}, {"note": 68, "velocity": 127, "duration": 210}, {"note": 66, "velocity": 107, "duration": 355}, {"note": 0, "velocity": 0, "duration": 725}, {"note": 59, "velocity": 90, "duration": 78}, {"note": 71, "velocity": 100, "duration": 103}, {"note": 0, "velocity": 0, "duration": 137}, {"note": 71, "velocity": 100, "duration": 94}, {"note": 68, "velocity": 102, "duration": 100}, {"note": 71, "velocity": 122, "duration": 118}, {"note": 0, "velocity": 0, "duration": 122}, {"note": 73, "velocity": 127, "duration": 394}, {"note": 0, "velocity": 0, "duration": 566}, {"note": 61, "velocity": 117, "duration": 61}, {"note": 61, "velocity": 70, "duration": 95}, {"note": 64, "velocity": 99, "duration": 130}, {"note": 0, "velocity": 0, "duration": 110}, {"note": 66, "velocity": 127, "duration": 198}, {"note": 64, "velocity": 122, "duration": 137}, {"note": 0, "velocity": 0, "duration": 343}, {"note": 61, "velocity": 117, "duration": 357}, {"note": 0, "velocity": 0, "duration": 123}, {"note": 63, "velocity": 117, "duration": 344}, {"note": 0, "velocity": 0, "duration": 136}, {"note": 64, "velocity": 122, "duration": 207}, {"note": 0, "velocity": 0, "duration": 273}, {"note": 68, "velocity": 127, "duration": 1862}, {"note": 0, "velocity": 0, "duration": 538}, {"note": 71, "velocity": 100, "duration": 304}, {"note": 0, "velocity": 0, "duration": 176}, {"note": 68, "velocity": 122, "duration": 208}, {"note": 0, "velocity": 0, "duration": 272}, {"note": 71, "velocity": 99, "duration": 127}, {"note": 68, "velocity": 112, "duration": 138}, {"note": 66, "velocity": 107, "duration": 104}, {"note": 0, "velocity": 0, "duration": 136}, {"note": 66, "velocity": 127, "duration": 272}, {"note": 0, "velocity": 0, "duration": 208}, {"note": 71, "velocity": 127, "duration": 170}, {"note": 0, "velocity": 0, "duration": 70}, {"note": 69, "velocity": 117, "duration": 209}, {"note": 68, "velocity": 122, "duration": 184}, {"note": 71, "velocity": 100, "duration": 127}, {"note": 0, "velocity": 0, "duration": 113}, {"note": 69, "velocity": 112, "duration": 135}, {"note": 0, "velocity": 0, "duration": 105}, {"note": 68, "velocity": 112, "duration": 139}, {"note": 0, "velocity": 0, "duration": 101}, {"note": 64, "velocity": 97, "duration": 150}, {"note": 0, "velocity": 0, "duration": 90}, {"note": 66, "velocity": 122, "duration": 110}, {"note": 0, "velocity": 0, "duration": 130}, {"note": 64, "velocity": 99, "duration": 199}, {"note": 0, "velocity": 0, "duration": 161}, {"note": 59, "velocity": 90, "duration": 112}, {"note": 68, "velocity": 107, "duration": 116}, {"note": 66, "velocity": 127, "duration": 123}, {"note": 64, "velocity": 96, "duration": 137}, {"note": 66, "velocity": 122, "duration": 279}, {"note": 0, "velocity": 0, "duration": 81}, {"note": 68, "velocity": 122, "duration": 204}, {"note": 0, "velocity": 0, "duration": 276}, {"note": 66, "velocity": 127, "duration": 242}, {"note": 64, "velocity": 102, "duration": 180}, {"note": 0, "velocity": 0, "duration": 180}, {"note": 59, "velocity": 95, "duration": 86}, {"note": 68, "velocity": 107, "duration": 94}, {"note": 66, "velocity": 112, "duration": 100}, {"note": 64, "velocity": 89, "duration": 118}, {"note": 66, "velocity": 127, "duration": 159}, {"note": 0, "velocity": 0, "duration": 201}, {"note": 61, "velocity": 117, "duration": 522}, {"note": 0, "velocity": 0, "duration": 198}, {"note": 71, "velocity": 117, "duration": 255}, {"note": 0, "velocity": 0, "duration": 225}, {"note": 68, "velocity": 122, "duration": 304}, {"note": 0, "velocity": 0, "duration": 176}, {"note": 71, "velocity": 127, "duration": 221}, {"note": 68, "velocity": 122, "duration": 146}, {"note": 0, "velocity": 0, "duration": 94}, {"note": 66, "velocity": 117, "duration": 216}, {"note": 0, "velocity": 0, "duration": 264}, {"note": 71, "velocity": 127, "duration": 157}, {"note": 0, "velocity": 0, "duration": 83}, {"note": 69, "velocity": 107, "duration": 135}, {"note": 0, "velocity": 0, "duration": 105}, {"note": 68, "velocity": 122, "duration": 126}, {"note": 0, "velocity": 0, "duration": 114}, {"note": 71, "velocity": 112, "duration": 141}, {"note": 0, "velocity": 0, "duration": 99}, {"note": 69, "velocity": 127, "duration": 150}, {"note": 0, "velocity": 0, "duration": 90}, {"note": 68, "velocity": 127, "duration": 165}, {"note": 0, "velocity": 0, "duration": 75}, {"note": 64, "velocity": 102, "duration": 159}, {"note": 0, "velocity": 0, "duration": 81}, {"note": 66, "velocity": 122, "duration": 241}, {"note": 64, "velocity": 96, "duration": 323}, {"note": 59, "velocity": 88, "duration": 70}, {"note": 68, "velocity": 112, "duration": 99}, {"note": 66, "velocity": 99, "duration": 90}, {"note": 64, "velocity": 77, "duration": 151}, {"note": 66, "velocity": 127, "duration": 231}, {"note": 0, "velocity": 0, "duration": 129}, {"note": 68, "velocity": 127, "duration": 145}, {"note": 0, "velocity": 0, "duration": 335}, {"note": 66, "velocity": 127, "duration": 237}, {"note": 64, "velocity": 96, "duration": 208}, {"note": 0, "velocity": 0, "duration": 152}, {"note": 59, "velocity": 89, "duration": 88}, {"note": 68, "velocity": 107, "duration": 125}, {"note": 66, "velocity": 99, "duration": 112}, {"note": 64, "velocity": 93, "duration": 108}, {"note": 66, "velocity": 112, "duration": 232}, {"note": 0, "velocity": 0, "duration": 128}, {"note": 64, "velocity": 96, "duration": 124}, {"note": 61, "velocity": 96, "duration": 394}, {"note": 0, "velocity": 0, "duration": 206}, {"note": 71, "velocity": 100, "duration": 304}, {"note": 0, "velocity": 0, "duration": 176}, {"note": 68, "velocity": 122, "duration": 208}, {"note": 0, "velocity": 0, "duration": 272}, {"note": 71, "velocity": 99, "duration": 127}, {"note": 68, "velocity": 112, "duration": 138}, {"note": 66, "velocity": 107, "duration": 104}, {"note": 0, "velocity": 0, "duration": 136}, {"note": 66, "velocity": 127, "duration": 272}, {"note": 0, "velocity": 0, "duration": 208}, {"note": 71, "velocity": 127, "duration": 170}, {"note": 0, "velocity": 0, "duration": 70}, {"note": 69, "velocity": 117, "duration": 209}, {"note": 68, "velocity": 122, "duration": 184}, {"note": 71, "velocity": 100, "duration": 127}, {"note": 0, "velocity": 0, "duration": 113}, {"note": 69, "velocity": 112, "duration": 135}, {"note": 0, "velocity": 0, "duration": 105}, {"note": 68, "velocity": 112, "duration": 139}, {"note": 0, "velocity": 0, "duration": 101}, {"note": 64, "velocity": 97, "duration": 150}, {"note": 0, "velocity": 0, "duration": 90}, {"note": 66, "velocity": 122, "duration": 110}, {"note": 0, "velocity": 0, "duration": 130}, {"note": 64, "velocity": 99, "duration": 199}, {"note": 0, "velocity": 0, "duration": 161}, {"note": 59, "velocity": 90, "duration": 112}, {"note": 68, "velocity": 107, "duration": 116}, {"note": 66, "velocity": 127, "duration": 123}, {"note": 64, "velocity": 96, "duration": 137}, {"note": 66, "velocity": 122, "duration": 279}, {"note": 0, "velocity": 0, "duration": 81}, {"note": 68, "velocity": 122, "duration": 204}, {"note": 0, "velocity": 0, "duration": 276}, {"note": 66, "velocity": 127, "duration": 242}, {"note": 64, "velocity": 102, "duration": 180}, {"note": 0, "velocity": 0, "duration": 180}, {"note": 59, "velocity": 95, "duration": 86}, {"note": 68, "velocity": 107, "duration": 94}, {"note": 66, "velocity": 112, "duration": 100}, {"note": 64, "velocity": 89, "duration": 118}, {"note": 66, "velocity": 127, "duration": 159}, {"note": 0, "velocity": 0, "duration": 201}, {"note": 61, "velocity": 117, "duration": 522}, {"note": 0, "velocity": 0, "duration": 198}, {"note": 71, "velocity": 117, "duration": 255}, {"note": 0, "velocity": 0, "duration": 225}, {"note": 68, "velocity": 122, "duration": 304}, {"note": 0, "velocity": 0, "duration": 176}, {"note": 71, "velocity": 127, "duration": 221}, {"note": 68, "velocity": 122, "duration": 146}, {"note": 0, "velocity": 0, "duration": 94}, {"note": 66, "velocity": 117, "duration": 216}, {"note": 0, "velocity": 0, "duration": 264}, {"note": 71, "velocity": 127, "duration": 157}, {"note": 0, "velocity": 0, "duration": 83}, {"note": 69, "velocity": 107, "duration": 135}, {"note": 0, "velocity": 0, "duration": 105}, {"note": 68, "velocity": 122, "duration": 126}, {"note": 0, "velocity": 0, "duration": 114}, {"note": 71, "velocity": 112, "duration": 141}, {"note": 0, "velocity": 0, "duration": 99}, {"note": 69, "velocity": 127, "duration": 150}, {"note": 0, "velocity": 0, "duration": 90}, {"note": 68, "velocity": 127, "duration": 165}, {"note": 0, "velocity": 0, "duration": 75}, {"note": 64, "velocity": 102, "duration": 159}, {"note": 0, "velocity": 0, "duration": 81}, {"note": 66, "velocity": 122, "duration": 241}, {"note": 64, "velocity": 96, "duration": 323}, {"note": 59, "velocity": 88, "duration": 70}, {"note": 68, "velocity": 112, "duration": 99}, {"note": 66, "velocity": 99, "duration": 90}, {"note": 64, "velocity": 77, "duration": 151}, {"note": 66, "velocity": 127, "duration": 231}, {"note": 0, "velocity": 0, "duration": 129}, {"note": 68, "velocity": 127, "duration": 145}, {"note": 0, "velocity": 0, "duration": 335}, {"note": 66, "velocity": 127, "duration": 237}, {"note": 64, "velocity": 96, "duration": 208}, {"note": 0, "velocity": 0, "duration": 152}, {"note": 59, "velocity": 89, "duration": 88}, {"note": 68, "velocity": 107, "duration": 125}, {"note": 66, "velocity": 99, "duration": 112}, {"note": 64, "velocity": 93, "duration": 108}, {"note": 66, "velocity": 112, "duration": 232}, {"note": 0, "velocity": 0, "duration": 128}, {"note": 64, "velocity": 96, "duration": 124}, {"note": 61, "velocity": 96, "duration": 394}]]