[[{"note": 63, "velocity": 93, "duration": 224}, {"note": 65, "velocity": 77, "duration": 122}, {"note": 68, "velocity": 93, "duration": 253}, {"note": 0, "velocity": 0, "duration": 107}, {"note": 70, "velocity": 95, "duration": 237}, {"note": 63, "velocity": 89, "duration": 214}, {"note": 65, "velocity": 89, "duration": 125}, {"note": 68, "velocity": 92, "duration": 389}, {"note": 70, "velocity": 97, "duration": 147}, {"note": 0, "velocity": 0, "duration": 93}, {"note": 65, "velocity": 97, "duration": 449}, {"note": 63, "velocity": 107, "duration": 482}, {"note": 61, "velocity": 89, "duration": 440}, {"note": 61, "velocity": 97, "duration": 135}, {"note": 0, "velocity": 0, "duration": 105}, {"note": 61, "velocity": 96, "duration": 209}, {"note": 70, "velocity": 99, "duration": 184}, {"note": 70, "velocity": 102, "duration": 183}, {"note": 70, "velocity": 107, "duration": 177}, {"note": 0, "velocity": 0, "duration": 63}, {"note": 68, "velocity": 100, "duration": 161}, {"note": 0, "velocity": 0, "duration": 79}, {"note": 68, "velocity": 107, "duration": 141}, {"note": 0, "velocity": 0, "duration": 99}, {"note": 65, "velocity": 89, "duration": 186}, {"note": 63, "velocity": 93, "duration": 215}, {"note": 61, "velocity": 90, "duration": 95}, {"note": 65, "velocity": 90, "duration": 916}, {"note": 0, "velocity": 0, "duration": 1124}, {"note": 63, "velocity": 95, "duration": 203}, {"note": 65, "velocity": 88, "duration": 83}, {"note": 68, "velocity": 93, "duration": 248}, {"note": 0, "velocity": 0, "duration": 112}, {"note": 70, "velocity": 69, "duration": 161}, {"note": 0, "velocity": 0, "duration": 79}, {"note": 63, "velocity": 95, "duration": 229}, {"note": 65, "velocity": 92, "duration": 92}, {"note": 68, "velocity": 93, "duration": 256}, {"note": 0, "velocity": 0, "duration": 104}, {"note": 70, "velocity": 89, "duration": 172}, {"note": 0, "velocity": 0, "duration": 68}, {"note": 65, "velocity": 93, "duration": 168}, {"note": 0, "velocity": 0, "duration": 72}, {"note": 63, "velocity": 90, "duration": 147}, {"note": 0, "velocity": 0, "duration": 93}, {"note": 65, "velocity": 92, "duration": 157}, {"note": 0, "velocity": 0, "duration": 83}, {"note": 68, "velocity": 85, "duration": 140}, {"note": 0, "velocity": 0, "duration": 100}, {"note": 61, "velocity": 96, "duration": 554}, {"note": 0, "velocity": 0, "duration": 166}, {"note": 61, "velocity": 102, "duration": 191}, {"note": 70, "velocity": 97, "duration": 185}, {"note": 70, "velocity": 100, "duration": 147}, {"note": 0, "velocity": 0, "duration": 93}, {"note": 70, "velocity": 112, "duration": 169}, {"note": 0, "velocity": 0, "duration": 71}, {"note": 68, "velocity": 92, "duration": 162}, {"note": 0, "velocity": 0, "duration": 78}, {"note": 68, "velocity": 100, "duration": 164}, {"note": 0, "velocity": 0, "duration": 76}, {"note": 65, "velocity": 99, "duration": 102}, {"note": 0, "velocity": 0, "duration": 138}, {"note": 63, "velocity": 86, "duration": 88}, {"note": 65, "velocity": 97, "duration": 297}, {"note": 0, "velocity": 0, "duration": 63}, {"note": 63, "velocity": 100, "duration": 139}, {"note": 61, "velocity": 81, "duration": 849}, {"note": 0, "velocity": 0, "duration": 951}, {"note": 65, "velocity": 99, "duration": 81}, {"note": 68, "velocity": 90, "duration": 153}, {"note": 0, "velocity": 0, "duration": 87}, {"note": 65, "velocity": 76, "duration": 73}, {"note": 68, "velocity": 97, "duration": 173}, {"note": 0, "velocity": 0, "duration": 67}, {"note": 65, "velocity": 102, "duration": 164}, {"note": 0, "velocity": 0, "duration": 76}, {"note": 70, "velocity": 117, "duration": 216}, {"note": 0, "velocity": 0, "duration": 264}, {"note": 65, "velocity": 96, "duration": 211}, {"note": 63, "velocity": 88, "duration": 240}, {"note": 61, "velocity": 90, "duration": 75}, {"note": 0, "velocity": 0, "duration": 165}, {"note": 61, "velocity": 83, "duration": 87}, {"note": 0, "velocity": 0, "duration": 153}, {"note": 61, "velocity": 97, "duration": 127}, {"note": 0, "velocity": 0, "duration": 113}, {"note": 68, "velocity": 92, "duration": 214}, {"note": 65, "velocity": 89, "duration": 327}, {"note": 0, "velocity": 0, "duration": 633}, {"note": 70, "velocity": 127, "duration": 174}, {"note": 0, "velocity": 0, "duration": 66}, {"note": 70, "velocity": 95, "duration": 143}, {"note": 0, "velocity": 0, "duration": 97}, {"note": 70, "velocity": 117, "duration": 192}, {"note": 68, "velocity": 93, "duration": 204}, {"note": 70, "velocity": 99, "duration": 182}, {"note": 70, "velocity": 95, "duration": 157}, {"note": 0, "velocity": 0, "duration": 83}, {"note": 77, "velocity": 117, "duration": 186}, {"note": 73, "velocity": 127, "duration": 157}, {"note": 0, "velocity": 0, "duration": 83}, {"note": 75, "velocity": 122, "duration": 649}, {"note": 0, "velocity": 0, "duration": 791}, {"note": 68, "velocity": 97, "duration": 215}, {"note": 70, "velocity": 107, "duration": 156}, {"note": 0, "velocity": 0, "duration": 84}, {"note": 80, "velocity": 112, "duration": 257}, {"note": 0, "velocity": 0, "duration": 103}, {"note": 77, "velocity": 127, "duration": 255}, {"note": 0, "velocity": 0, "duration": 105}, {"note": 70, "velocity": 102, "duration": 204}, {"note": 75, "velocity": 112, "duration": 290}, {"note": 0, "velocity": 0, "duration": 190}, {"note": 75, "velocity": 122, "duration": 203}, {"note": 73, "velocity": 85, "duration": 183}, {"note": 72, "velocity": 100, "duration": 199}, {"note": 68, "velocity": 102, "duration": 178}, {"note": 0, "velocity": 0, "duration": 62}, {"note": 75, "velocity": 112, "duration": 196}, {"note": 77, "velocity": 117, "duration": 215}, {"note": 73, "velocity": 117, "duration": 240}, {"note": 0, "velocity": 0, "duration": 240}, {"note": 73, "velocity": 112, "duration": 160}, {"note": 0, "velocity": 0, "duration": 80}, {"note": 75, "velocity": 127, "duration": 117}, {"note": 0, "velocity": 0, "duration": 123}, {"note": 77, "velocity": 127, "duration": 271}, {"note": 0, "velocity": 0, "duration": 89}, {"note": 75, "velocity": 127, "duration": 245}, {"note": 0, "velocity": 0, "duration": 115}, {"note": 73, "velocity": 107, "duration": 156}, {"note": 0, "velocity": 0, "duration": 84}, {"note": 75, "velocity": 112, "duration": 201}, {"note": 73, "velocity": 112, "duration": 139}, {"note": 0, "velocity": 0, "duration": 101}, {"note": 80, "velocity": 117, "duration": 189}, {"note": 82, "velocity": 122, "duration": 238}, {"note": 77, "velocity": 127, "duration": 573}, {"note": 0, "velocity": 0, "duration": 867}, {"note": 68, "velocity": 112, "duration": 199}, {"note": 70, "velocity": 107, "duration": 190}, {"note": 80, "velocity": 112, "duration": 256}, {"note": 0, "velocity": 0, "duration": 104}, {"note": 77, "velocity": 122, "duration": 230}, {"note": 0, "velocity": 0, "duration": 130}, {"note": 70, "velocity": 117, "duration": 167}, {"note": 0, "velocity": 0, "duration": 73}, {"note": 75, "velocity": 112, "duration": 198}, {"note": 0, "velocity": 0, "duration": 282}, {"note": 75, "velocity": 127, "duration": 189}, {"note": 73, "velocity": 117, "duration": 199}, {"note": 72, "velocity": 127, "duration": 233}, {"note": 68, "velocity": 102, "duration": 186}, {"note": 75, "velocity": 117, "duration": 206}, {"note": 77, "velocity": 122, "duration": 200}, {"note": 73, "velocity": 127, "duration": 264}, {"note": 0, "velocity": 0, "duration": 456}, {"note": 70, "velocity": 117, "duration": 150}, {"note": 0, "velocity": 0, "duration": 90}, {"note": 77, "velocity": 122, "duration": 183}, {"note": 73, "velocity": 107, "duration": 156}, {"note": 0, "velocity": 0, "duration": 84}, {"note": 73, "velocity": 127, "duration": 173}, {"note": 0, "velocity": 0, "duration": 67}, {"note": 70, "velocity": 107, "duration": 169}, {"note": 0, "velocity": 0, "duration": 71}, {"note": 77, "velocity": 122, "duration": 180}, {"note": 73, "velocity": 127, "duration": 140}, {"note": 0, "velocity": 0, "duration": 100}, {"note": 73, "velocity": 107, "duration": 127}, {"note": 0, "velocity": 0, "duration": 113}, {"note": 70, "velocity": 112, "duration": 308}, {"note": 0, "velocity": 0, "duration": 172}, {"note": 73, "velocity": 117, "duration": 778}, {"note": 0, "velocity": 0, "duration": 8582}, {"note": 63, "velocity": 93, "duration": 224}, {"note": 65, "velocity": 77, "duration": 122}, {"note": 68, "velocity": 93, "duration": 253}, {"note": 0, "velocity": 0, "duration": 107}, {"note": 70, "velocity": 95, "duration": 237}, {"note": 63, "velocity": 89, "duration": 214}, {"note": 65, "velocity": 89, "duration": 125}, {"note": 68, "velocity": 92, "duration": 389}, {"note": 70, "velocity": 97, "duration": 147}, {"note": 0, "velocity": 0, "duration": 93}, {"note": 65, "velocity": 97, "duration": 449}, {"note": 63, "velocity": 107, "duration": 482}, {"note": 61, "velocity": 89, "duration": 440}, {"note": 61, "velocity": 97, "duration": 135}, {"note": 0, "velocity": 0, "duration": 105}, {"note": 61, "velocity": 96, "duration": 209}, {"note": 70, "velocity": 99, "duration": 184}, {"note": 70, "velocity": 102, "duration": 183}, {"note": 70, "velocity": 107, "duration": 177}, {"note": 0, "velocity": 0, "duration": 63}, {"note": 68, "velocity": 100, "duration": 161}, {"note": 0, "velocity": 0, "duration": 79}, {"note": 68, "velocity": 107, "duration": 141}, {"note": 0, "velocity": 0, "duration": 99}, {"note": 65, "velocity": 89, "duration": 186}, {"note": 63, "velocity": 93, "duration": 215}, {"note": 61, "velocity": 90, "duration": 95}, {"note": 65, "velocity": 90, "duration": 916}, {"note": 0, "velocity": 0, "duration": 1124}, {"note": 63, "velocity": 95, "duration": 203}, {"note": 65, "velocity": 88, "duration": 83}, {"note": 68, "velocity": 93, "duration": 248}, {"note": 0, "velocity": 0, "duration": 112}, {"note": 70, "velocity": 69, "duration": 161}, {"note": 0, "velocity": 0, "duration": 79}, {"note": 63, "velocity": 95, "duration": 229}, {"note": 65, "velocity": 92, "duration": 92}, {"note": 68, "velocity": 93, "duration": 256}, {"note": 0, "velocity": 0, "duration": 104}, {"note": 70, "velocity": 89, "duration": 172}, {"note": 0, "velocity": 0, "duration": 68}, {"note": 65, "velocity": 93, "duration": 168}, {"note": 0, "velocity": 0, "duration": 72}, {"note": 63, "velocity": 90, "duration": 147}, {"note": 0, "velocity": 0, "duration": 93}, {"note": 65, "velocity": 92, "duration": 157}, {"note": 0, "velocity": 0, "duration": 83}, {"note": 68, "velocity": 85, "duration": 140}, {"note": 0, "velocity": 0, "duration": 100}, {"note": 61, "velocity": 96, "duration": 554}, {"note": 0, "velocity": 0, "duration": 166}, {"note": 61, "velocity": 102, "duration": 191}, {"note": 70, "velocity": 97, "duration": 185}, {"note": 70, "velocity": 100, "duration": 147}, {"note": 0, "velocity": 0, "duration": 93}, {"note": 70, "velocity": 112, "duration": 169}, {"note": 0, "velocity": 0, "duration": 71}, {"note": 68, "velocity": 92, "duration": 162}, {"note": 0, "velocity": 0, "duration": 78}, {"note": 68, "velocity": 100, "duration": 164}, {"note": 0, "velocity": 0, "duration": 76}, {"note": 65, "velocity": 99, "duration": 102}, {"note": 0, "velocity": 0, "duration": 138}, {"note": 63, "velocity": 86, "duration": 88}, {"note": 65, "velocity": 97, "duration": 297}, {"note": 0, "velocity": 0, "duration": 63}, {"note": 63, "velocity": 100, "duration": 139}, {"note": 61, "velocity": 81, "duration": 849}, {"note": 0, "velocity": 0, "duration": 951}, {"note": 65, "velocity": 99, "duration": 81}, {"note": 68, "velocity": 90, "duration": 153}, {"note": 0, "velocity": 0, "duration": 87}, {"note": 65, "velocity": 76, "duration": 73}, {"note": 68, "velocity": 97, "duration": 173}, {"note": 0, "velocity": 0, "duration": 67}, {"note": 65, "velocity": 102, "duration": 164}, {"note": 0, "velocity": 0, "duration": 76}, {"note": 70, "velocity": 117, "duration": 216}, {"note": 0, "velocity": 0, "duration": 264}, {"note": 65, "velocity": 96, "duration": 211}, {"note": 63, "velocity": 88, "duration": 240}, {"note": 61, "velocity": 90, "duration": 75}, {"note": 0, "velocity": 0, "duration": 165}, {"note": 61, "velocity": 83, "duration": 87}, {"note": 0, "velocity": 0, "duration": 153}, {"note": 61, "velocity": 97, "duration": 127}, {"note": 0, "velocity": 0, "duration": 113}, {"note": 68, "velocity": 92, "duration": 214}, {"note": 65, "velocity": 89, "duration": 327}, {"note": 0, "velocity": 0, "duration": 633}, {"note": 70, "velocity": 127, "duration": 174}, {"note": 0, "velocity": 0, "duration": 66}, {"note": 70, "velocity": 95, "duration": 143}, {"note": 0, "velocity": 0, "duration": 97}, {"note": 70, "velocity": 117, "duration": 192}, {"note": 68, "velocity": 93, "duration": 204}, {"note": 70, "velocity": 99, "duration": 182}, {"note": 70, "velocity": 95, "duration": 157}, {"note": 0, "velocity": 0, "duration": 83}, {"note": 77, "velocity": 117, "duration": 186}, {"note": 73, "velocity": 127, "duration": 157}, {"note": 0, "velocity": 0, "duration": 83}, {"note": 75, "velocity": 122, "duration": 649}, {"note": 0, "velocity": 0, "duration": 791}, {"note": 68, "velocity": 97, "duration": 215}, {"note": 70, "velocity": 107, "duration": 156}, {"note": 0, "velocity": 0, "duration": 84}, {"note": 80, "velocity": 112, "duration": 257}, {"note": 0, "velocity": 0, "duration": 103}, {"note": 77, "velocity": 127, "duration": 255}, {"note": 0, "velocity": 0, "duration": 105}, {"note": 70, "velocity": 102, "duration": 204}, {"note": 75, "velocity": 112, "duration": 290}, {"note": 0, "velocity": 0, "duration": 190}, {"note": 75, "velocity": 122, "duration": 203}, {"note": 73, "velocity": 85, "duration": 183}, {"note": 72, "velocity": 100, "duration": 199}, {"note": 68, "velocity": 102, "duration": 178}, {"note": 0, "velocity": 0, "duration": 62}, {"note": 75, "velocity": 112, "duration": 196}, {"note": 77, "velocity": 117, "duration": 215}, {"note": 73, "velocity": 117, "duration": 240}, {"note": 0, "velocity": 0, "duration": 240}, {"note": 73, "velocity": 112, "duration": 160}, {"note": 0, "velocity": 0, "duration": 80}, {"note": 75, "velocity": 127, "duration": 117}, {"note": 0, "velocity": 0, "duration": 123}, {"note": 77, "velocity": 127, "duration": 271}, {"note": 0, "velocity": 0, "duration": 89}, {"note": 75, "velocity": 127, "duration": 245}, {"note": 0, "velocity": 0, "duration": 115}, {"note": 73, "velocity": 107, "duration": 156}, {"note": 0, "velocity": 0, "duration": 84}, {"note": 75, "velocity": 112, "duration": 201}, {"note": 73, "velocity": 112, "duration": 139}, {"note": 0, "velocity": 0, "duration": 101}, {"note": 80, "velocity": 117, "duration": 189}, {"note": 82, "velocity": 122, "duration": 238}, {"note": 77, "velocity": 127, "duration": 573}, {"note": 0, "velocity": 0, "duration": 867}, {"note": 68, "velocity": 112, "duration": 199}, {"note": 70, "velocity": 107, "duration": 190}, {"note": 80, "velocity": 112, "duration": 256}, {"note": 0, "velocity": 0, "duration": 104}, {"note": 77, "velocity": 122, "duration": 230}, {"note": 0, "velocity": 0, "duration": 130}, {"note": 70, "velocity": 117, "duration": 167}, {"note": 0, "velocity": 0, "duration": 73}, {"note": 75, "velocity": 112, "duration": 198}, {"note": 0, "velocity": 0, "duration": 282}, {"note": 75, "velocity": 127, "duration": 189}, {"note": 73, "velocity": 117, "duration": 199}, {"note": 72, "velocity": 127, "duration": 233}, {"note": 68, "velocity": 102, "duration": 186}, {"note": 75, "velocity": 117, "duration": 206}, {"note": 77, "velocity": 122, "duration": 200}, {"note": 73, "velocity": 127, "duration": 264}, {"note": 0, "velocity": 0, "duration": 456}, {"note": 70, "velocity": 117, "duration": 150}, {"note": 0, "velocity": 0, "duration": 90}, {"note": 77, "velocity": 122, "duration": 183}, {"note": 73, "velocity": 107, "duration": 156}, {"note": 0, "velocity": 0, "duration": 84}, {"note": 73, "velocity": 127, "duration": 173}, {"note": 0, "velocity": 0, "duration": 67}, {"note": 70, "velocity": 107, "duration": 169}, {"note": 0, "velocity": 0, "duration": 71}, {"note": 77, "velocity": 122, "duration": 180}, {"note": 73, "velocity": 127, "duration": 140}, {"note": 0, "velocity": 0, "duration": 100}, {"note": 73, "velocity": 107, "duration": 127}, {"note": 0, "velocity": 0, "duration": 113}, {"note": 70, "velocity": 112, "duration": 308}, {"note": 0, "velocity": 0, "duration": 172}, {"note": 73, "velocity": 117, "duration": 778}, {"note": 73, "velocity": 117, "duration": 58}, {"note": 0, "velocity": 0, "duration": 182}, {"note": 75, "velocity": 93, "duration": 168}, {"note": 0, "velocity": 0, "duration": 72}, {"note": 75, "velocity": 117, "duration": 149}, {"note": 0, "velocity": 0, "duration": 91}, {"note": 70, "velocity": 117, "duration": 195}, {"note": 80, "velocity": 112, "duration": 257}, {"note": 0, "velocity": 0, "duration": 103}, {"note": 77, "velocity": 127, "duration": 255}, {"note": 0, "velocity": 0, "duration": 105}, {"note": 70, "velocity": 102, "duration": 204}, {"note": 75, "velocity": 112, "duration": 290}, {"note": 0, "velocity": 0, "duration": 190}, {"note": 75, "velocity": 122, "duration": 203}, {"note": 73, "velocity": 85, "duration": 183}, {"note": 72, "velocity": 100, "duration": 199}, {"note": 68, "velocity": 102, "duration": 178}, {"note": 0, "velocity": 0, "duration": 62}, {"note": 75, "velocity": 112, "duration": 196}, {"note": 77, "velocity": 117, "duration": 215}, {"note": 73, "velocity": 117, "duration": 240}, {"note": 0, "velocity": 0, "duration": 240}, {"note": 73, "velocity": 112, "duration": 160}, {"note": 0, "velocity": 0, "duration": 80}, {"note": 75, "velocity": 127, "duration": 117}, {"note": 0, "velocity": 0, "duration": 123}, {"note": 77, "velocity": 127, "duration": 271}, {"note": 0, "velocity": 0, "duration": 89}, {"note": 75, "velocity": 127, "duration": 245}, {"note": 0, "velocity": 0, "duration": 115}, {"note": 73, "velocity": 107, "duration": 156}, {"note": 0, "velocity": 0, "duration": 84}, {"note": 75, "velocity": 112, "duration": 201}, {"note": 73, "velocity": 112, "duration": 139}, {"note": 0, "velocity": 0, "duration": 101}, {"note": 80, "velocity": 117, "duration": 189}, {"note": 82, "velocity": 122, "duration": 238}, {"note": 77, "velocity": 127, "duration": 573}, {"note": 0, "velocity": 0, "duration": 867}, {"note": 68, "velocity": 112, "duration": 199}, {"note": 70, "velocity": 107, "duration": 190}, {"note": 80, "velocity": 112, "duration": 256}, {"note": 0, "velocity": 0, "duration": 104}, {"note": 77, "velocity": 122, "duration": 230}, {"note": 0, "velocity": 0, "duration": 130}, {"note": 70, "velocity": 117, "duration": 167}, {"note": 0, "velocity": 0, "duration": 73}, {"note": 75, "velocity": 112, "duration": 198}, {"note": 0, "velocity": 0, "duration": 282}, {"note": 75, "velocity": 127, "duration": 189}, {"note": 73, "velocity": 117, "duration": 199}, {"note": 72, "velocity": 127, "duration": 233}, {"note": 68, "velocity": 102, "duration": 186}, {"note": 75, "velocity": 117, "duration": 206}, {"note": 77, "velocity": 122, "duration": 200}, {"note": 73, "velocity": 127, "duration": 264}, {"note": 0, "velocity": 0, "duration": 456}, {"note": 70, "velocity": 117, "duration": 150}, {"note": 0, "velocity": 0, "duration": 90}, {"note": 77, "velocity": 122, "duration": 183}, {"note": 73, "velocity": 107, "duration": 156}, {"note": 0, "velocity": 0, "duration": 84}, {"note": 73, "velocity": 127, "duration": 173}, {"note": 0, "velocity": 0, "duration": 67}, {"note": 70, "velocity": 107, "duration": 169}, {"note": 0, "velocity": 0, "duration": 71}, {"note": 77, "velocity": 122, "duration": 180}, {"note": 73, "velocity": 127, "duration": 140}, {"note": 0, "velocity": 0, "duration": 100}, {"note": 73, "velocity": 107, "duration": 127}, {"note": 0, "velocity": 0, "duration": 113}, {"note": 70, "velocity": 112, "duration": 308}, {"note": 0, "velocity": 0, "duration": 172}, {"note": 73, "velocity": 117, "duration": 778}]]