[[{"note": 60, "velocity": 96, "duration": 536}, {"note": 0, "velocity": 0, "duration": 184}, {"note": 60, "velocity": 81, "duration": 243}, {"note": 65, "velocity": 88, "duration": 496}, {"note": 63, "velocity": 73, "duration": 253}, {"note": 65, "velocity": 79, "duration": 243}, {"note": 67, "velocity": 89, "duration": 619}, {"note": 0, "velocity": 0, "duration": 821}, {"note": 67, "velocity": 89, "duration": 155}, {"note": 0, "velocity": 0, "duration": 85}, {"note": 70, "velocity": 90, "duration": 150}, {"note": 0, "velocity": 0, "duration": 90}, {"note": 63, "velocity": 95, "duration": 348}, {"note": 0, "velocity": 0, "duration": 132}, {"note": 62, "velocity": 99, "duration": 206}, {"note": 60, "velocity": 70, "duration": 223}, {"note": 58, "velocity": 71, "duration": 328}, {"note": 60, "velocity": 83, "duration": 181}, {"note": 55, "velocity": 82, "duration": 220}, {"note": 58, "velocity": 56, "duration": 249}, {"note": 60, "velocity": 73, "duration": 917}, {"note": 0, "velocity": 0, "duration": 1963}, {"note": 58, "velocity": 69, "duration": 628}, {"note": 0, "velocity": 0, "duration": 332}, {"note": 60, "velocity": 82, "duration": 376}, {"note": 0, "velocity": 0, "duration": 104}, {"note": 65, "velocity": 88, "duration": 219}, {"note": 63, "velocity": 93, "duration": 246}, {"note": 60, "velocity": 74, "duration": 339}, {"note": 63, "velocity": 73, "duration": 552}, {"note": 0, "velocity": 0, "duration": 168}, {"note": 60, "velocity": 83, "duration": 491}, {"note": 0, "velocity": 0, "duration": 229}, {"note": 63, "velocity": 93, "duration": 232}, {"note": 60, "velocity": 72, "duration": 362}, {"note": 0, "velocity": 0, "duration": 118}, {"note": 70, "velocity": 97, "duration": 247}, {"note": 67, "velocity": 78, "duration": 237}, {"note": 65, "velocity": 90, "duration": 998}, {"note": 0, "velocity": 0, "duration": 922}, {"note": 67, "velocity": 95, "duration": 494}, {"note": 0, "velocity": 0, "duration": 226}, {"note": 67, "velocity": 95, "duration": 159}, {"note": 0, "velocity": 0, "duration": 81}, {"note": 70, "velocity": 127, "duration": 437}, {"note": 67, "velocity": 100, "duration": 469}, {"note": 72, "velocity": 117, "duration": 469}, {"note": 0, "velocity": 0, "duration": 971}, {"note": 72, "velocity": 112, "duration": 204}, {"note": 70, "velocity": 97, "duration": 218}, {"note": 67, "velocity": 92, "duration": 419}, {"note": 0, "velocity": 0, "duration": 301}, {"note": 67, "velocity": 95, "duration": 180}, {"note": 65, "velocity": 95, "duration": 259}, {"note": 67, "velocity": 56, "duration": 232}, {"note": 60, "velocity": 89, "duration": 490}, {"note": 63, "velocity": 88, "duration": 667}, {"note": 0, "velocity": 0, "duration": 773}, {"note": 60, "velocity": 93, "duration": 232}, {"note": 63, "velocity": 77, "duration": 245}, {"note": 65, "velocity": 88, "duration": 688}, {"note": 0, "velocity": 0, "duration": 752}, {"note": 67, "velocity": 88, "duration": 237}, {"note": 70, "velocity": 65, "duration": 365}, {"note": 0, "velocity": 0, "duration": 235}, {"note": 63, "velocity": 64, "duration": 737}, {"note": 0, "velocity": 0, "duration": 343}, {"note": 62, "velocity": 85, "duration": 212}, {"note": 60, "velocity": 69, "duration": 209}, {"note": 58, "velocity": 70, "duration": 492}, {"note": 0, "velocity": 0, "duration": 228}, {"note": 60, "velocity": 72, "duration": 121}, {"note": 0, "velocity": 0, "duration": 119}, {"note": 60, "velocity": 74, "duration": 248}, {"note": 55, "velocity": 82, "duration": 408}, {"note": 0, "velocity": 0, "duration": 72}, {"note": 58, "velocity": 82, "duration": 251}, {"note": 60, "velocity": 78, "duration": 1072}, {"note": 0, "velocity": 0, "duration": 848}, {"note": 70, "velocity": 117, "duration": 266}, {"note": 0, "velocity": 0, "duration": 214}, {"note": 70, "velocity": 117, "duration": 293}, {"note": 0, "velocity": 0, "duration": 187}, {"note": 70, "velocity": 127, "duration": 380}, {"note": 0, "velocity": 0, "duration": 100}, {"note": 67, "velocity": 97, "duration": 229}, {"note": 72, "velocity": 100, "duration": 765}, {"note": 0, "velocity": 0, "duration": 915}, {"note": 70, "velocity": 122, "duration": 205}, {"note": 72, "velocity": 89, "duration": 139}, {"note": 0, "velocity": 0, "duration": 101}, {"note": 74, "velocity": 112, "duration": 340}, {"note": 0, "velocity": 0, "duration": 140}, {"note": 74, "velocity": 107, "duration": 232}, {"note": 72, "velocity": 82, "duration": 222}, {"note": 70, "velocity": 102, "duration": 325}, {"note": 0, "velocity": 0, "duration": 155}, {"note": 72, "velocity": 100, "duration": 404}, {"note": 0, "velocity": 0, "duration": 76}, {"note": 67, "velocity": 96, "duration": 733}, {"note": 0, "velocity": 0, "duration": 707}, {"note": 65, "velocity": 86, "duration": 209}, {"note": 63, "velocity": 95, "duration": 156}, {"note": 0, "velocity": 0, "duration": 84}, {"note": 65, "velocity": 90, "duration": 576}, {"note": 0, "velocity": 0, "duration": 864}, {"note": 65, "velocity": 92, "duration": 246}, {"note": 67, "velocity": 61, "duration": 353}, {"note": 0, "velocity": 0, "duration": 127}, {"note": 60, "velocity": 90, "duration": 713}, {"note": 0, "velocity": 0, "duration": 487}, {"note": 60, "velocity": 81, "duration": 262}, {"note": 63, "velocity": 68, "duration": 193}, {"note": 65, "velocity": 78, "duration": 648}, {"note": 0, "velocity": 0, "duration": 72}, {"note": 60, "velocity": 58, "duration": 243}, {"note": 63, "velocity": 71, "duration": 431}, {"note": 70, "velocity": 127, "duration": 216}, {"note": 67, "velocity": 96, "duration": 297}, {"note": 0, "velocity": 0, "duration": 183}, {"note": 65, "velocity": 100, "duration": 790}, {"note": 0, "velocity": 0, "duration": 890}, {"note": 70, "velocity": 112, "duration": 332}, {"note": 0, "velocity": 0, "duration": 148}, {"note": 70, "velocity": 102, "duration": 333}, {"note": 0, "velocity": 0, "duration": 147}, {"note": 70, "velocity": 102, "duration": 313}, {"note": 0, "velocity": 0, "duration": 167}, {"note": 67, "velocity": 96, "duration": 202}, {"note": 72, "velocity": 112, "duration": 863}, {"note": 0, "velocity": 0, "duration": 817}, {"note": 70, "velocity": 100, "duration": 196}, {"note": 72, "velocity": 76, "duration": 144}, {"note": 0, "velocity": 0, "duration": 96}, {"note": 74, "velocity": 100, "duration": 319}, {"note": 0, "velocity": 0, "duration": 161}, {"note": 74, "velocity": 100, "duration": 212}, {"note": 72, "velocity": 93, "duration": 267}, {"note": 0, "velocity": 0, "duration": 213}, {"note": 70, "velocity": 95, "duration": 309}, {"note": 0, "velocity": 0, "duration": 171}, {"note": 72, "velocity": 95, "duration": 287}, {"note": 0, "velocity": 0, "duration": 193}, {"note": 67, "velocity": 97, "duration": 882}, {"note": 0, "velocity": 0, "duration": 318}, {"note": 60, "velocity": 83, "duration": 224}, {"note": 63, "velocity": 75, "duration": 172}, {"note": 0, "velocity": 0, "duration": 68}, {"note": 65, "velocity": 82, "duration": 906}, {"note": 0, "velocity": 0, "duration": 534}, {"note": 67, "velocity": 95, "duration": 185}, {"note": 70, "velocity": 107, "duration": 200}, {"note": 0, "velocity": 0, "duration": 280}, {"note": 63, "velocity": 97, "duration": 775}, {"note": 0, "velocity": 0, "duration": 425}, {"note": 62, "velocity": 100, "duration": 202}, {"note": 60, "velocity": 69, "duration": 157}, {"note": 0, "velocity": 0, "duration": 83}, {"note": 58, "velocity": 77, "duration": 548}, {"note": 0, "velocity": 0, "duration": 172}, {"note": 60, "velocity": 93, "duration": 561}, {"note": 0, "velocity": 0, "duration": 159}, {"note": 58, "velocity": 74, "duration": 480}, {"note": 60, "velocity": 78, "duration": 424}, {"note": 0, "velocity": 0, "duration": 1496}, {"note": 60, "velocity": 96, "duration": 536}, {"note": 0, "velocity": 0, "duration": 184}, {"note": 60, "velocity": 81, "duration": 243}, {"note": 65, "velocity": 88, "duration": 496}, {"note": 63, "velocity": 73, "duration": 253}, {"note": 65, "velocity": 79, "duration": 243}, {"note": 67, "velocity": 89, "duration": 619}, {"note": 0, "velocity": 0, "duration": 821}, {"note": 67, "velocity": 89, "duration": 155}, {"note": 0, "velocity": 0, "duration": 85}, {"note": 70, "velocity": 90, "duration": 150}, {"note": 0, "velocity": 0, "duration": 90}, {"note": 63, "velocity": 95, "duration": 348}, {"note": 0, "velocity": 0, "duration": 132}, {"note": 62, "velocity": 99, "duration": 206}, {"note": 60, "velocity": 70, "duration": 223}, {"note": 58, "velocity": 71, "duration": 328}, {"note": 60, "velocity": 83, "duration": 181}, {"note": 55, "velocity": 82, "duration": 220}, {"note": 58, "velocity": 56, "duration": 249}, {"note": 60, "velocity": 73, "duration": 917}, {"note": 0, "velocity": 0, "duration": 1963}, {"note": 58, "velocity": 69, "duration": 628}, {"note": 0, "velocity": 0, "duration": 332}, {"note": 60, "velocity": 82, "duration": 376}, {"note": 0, "velocity": 0, "duration": 104}, {"note": 65, "velocity": 88, "duration": 219}, {"note": 63, "velocity": 93, "duration": 246}, {"note": 60, "velocity": 74, "duration": 339}, {"note": 63, "velocity": 73, "duration": 552}, {"note": 0, "velocity": 0, "duration": 168}, {"note": 60, "velocity": 83, "duration": 491}, {"note": 0, "velocity": 0, "duration": 229}, {"note": 63, "velocity": 93, "duration": 232}, {"note": 60, "velocity": 72, "duration": 362}, {"note": 0, "velocity": 0, "duration": 118}, {"note": 70, "velocity": 97, "duration": 247}, {"note": 67, "velocity": 78, "duration": 237}, {"note": 65, "velocity": 90, "duration": 998}, {"note": 0, "velocity": 0, "duration": 922}, {"note": 67, "velocity": 95, "duration": 494}, {"note": 0, "velocity": 0, "duration": 226}, {"note": 67, "velocity": 95, "duration": 159}, {"note": 0, "velocity": 0, "duration": 81}, {"note": 70, "velocity": 127, "duration": 437}, {"note": 67, "velocity": 100, "duration": 469}, {"note": 72, "velocity": 117, "duration": 469}, {"note": 0, "velocity": 0, "duration": 971}, {"note": 72, "velocity": 112, "duration": 204}, {"note": 70, "velocity": 97, "duration": 218}, {"note": 67, "velocity": 92, "duration": 419}, {"note": 0, "velocity": 0, "duration": 301}, {"note": 67, "velocity": 95, "duration": 180}, {"note": 65, "velocity": 95, "duration": 259}, {"note": 67, "velocity": 56, "duration": 232}, {"note": 60, "velocity": 89, "duration": 490}, {"note": 63, "velocity": 88, "duration": 667}, {"note": 0, "velocity": 0, "duration": 773}, {"note": 60, "velocity": 93, "duration": 232}, {"note": 63, "velocity": 77, "duration": 245}, {"note": 65, "velocity": 88, "duration": 688}, {"note": 0, "velocity": 0, "duration": 752}, {"note": 67, "velocity": 88, "duration": 237}, {"note": 70, "velocity": 65, "duration": 365}, {"note": 0, "velocity": 0, "duration": 235}, {"note": 63, "velocity": 64, "duration": 737}, {"note": 0, "velocity": 0, "duration": 343}, {"note": 62, "velocity": 85, "duration": 212}, {"note": 60, "velocity": 69, "duration": 209}, {"note": 58, "velocity": 70, "duration": 492}, {"note": 0, "velocity": 0, "duration": 228}, {"note": 60, "velocity": 72, "duration": 121}, {"note": 0, "velocity": 0, "duration": 119}, {"note": 60, "velocity": 74, "duration": 527}, {"note": 0, "velocity": 0, "duration": 193}, {"note": 58, "velocity": 82, "duration": 251}, {"note": 60, "velocity": 78, "duration": 1072}, {"note": 0, "velocity": 0, "duration": 848}, {"note": 70, "velocity": 117, "duration": 266}, {"note": 0, "velocity": 0, "duration": 214}, {"note": 70, "velocity": 117, "duration": 293}, {"note": 0, "velocity": 0, "duration": 187}, {"note": 70, "velocity": 127, "duration": 569}, {"note": 0, "velocity": 0, "duration": 151}, {"note": 67, "velocity": 97, "duration": 229}, {"note": 72, "velocity": 100, "duration": 765}, {"note": 0, "velocity": 0, "duration": 675}, {"note": 70, "velocity": 122, "duration": 205}, {"note": 72, "velocity": 89, "duration": 139}, {"note": 0, "velocity": 0, "duration": 101}, {"note": 74, "velocity": 112, "duration": 340}, {"note": 0, "velocity": 0, "duration": 140}, {"note": 74, "velocity": 107, "duration": 232}, {"note": 72, "velocity": 82, "duration": 222}, {"note": 70, "velocity": 102, "duration": 325}, {"note": 0, "velocity": 0, "duration": 155}, {"note": 72, "velocity": 100, "duration": 404}, {"note": 0, "velocity": 0, "duration": 76}, {"note": 67, "velocity": 96, "duration": 733}, {"note": 0, "velocity": 0, "duration": 707}, {"note": 65, "velocity": 86, "duration": 209}, {"note": 63, "velocity": 95, "duration": 156}, {"note": 0, "velocity": 0, "duration": 84}, {"note": 65, "velocity": 90, "duration": 576}, {"note": 0, "velocity": 0, "duration": 864}, {"note": 65, "velocity": 92, "duration": 246}, {"note": 67, "velocity": 61, "duration": 353}, {"note": 0, "velocity": 0, "duration": 127}, {"note": 60, "velocity": 90, "duration": 713}, {"note": 0, "velocity": 0, "duration": 487}, {"note": 60, "velocity": 81, "duration": 262}, {"note": 63, "velocity": 68, "duration": 193}, {"note": 65, "velocity": 78, "duration": 648}, {"note": 0, "velocity": 0, "duration": 72}, {"note": 60, "velocity": 58, "duration": 243}, {"note": 63, "velocity": 71, "duration": 431}, {"note": 70, "velocity": 127, "duration": 216}, {"note": 67, "velocity": 96, "duration": 297}, {"note": 0, "velocity": 0, "duration": 183}, {"note": 65, "velocity": 100, "duration": 790}, {"note": 0, "velocity": 0, "duration": 890}, {"note": 70, "velocity": 112, "duration": 332}, {"note": 0, "velocity": 0, "duration": 148}, {"note": 70, "velocity": 102, "duration": 333}, {"note": 0, "velocity": 0, "duration": 147}, {"note": 70, "velocity": 102, "duration": 313}, {"note": 0, "velocity": 0, "duration": 167}, {"note": 67, "velocity": 96, "duration": 202}, {"note": 72, "velocity": 112, "duration": 863}, {"note": 0, "velocity": 0, "duration": 817}, {"note": 70, "velocity": 100, "duration": 196}, {"note": 72, "velocity": 76, "duration": 144}, {"note": 0, "velocity": 0, "duration": 96}, {"note": 74, "velocity": 100, "duration": 319}, {"note": 0, "velocity": 0, "duration": 161}, {"note": 74, "velocity": 100, "duration": 212}, {"note": 72, "velocity": 93, "duration": 267}, {"note": 0, "velocity": 0, "duration": 213}, {"note": 70, "velocity": 95, "duration": 309}, {"note": 0, "velocity": 0, "duration": 171}, {"note": 72, "velocity": 95, "duration": 287}, {"note": 0, "velocity": 0, "duration": 193}, {"note": 67, "velocity": 97, "duration": 882}, {"note": 0, "velocity": 0, "duration": 318}, {"note": 60, "velocity": 83, "duration": 224}, {"note": 63, "velocity": 75, "duration": 172}, {"note": 0, "velocity": 0, "duration": 68}, {"note": 65, "velocity": 82, "duration": 906}, {"note": 0, "velocity": 0, "duration": 534}, {"note": 67, "velocity": 95, "duration": 185}, {"note": 70, "velocity": 107, "duration": 200}, {"note": 0, "velocity": 0, "duration": 280}, {"note": 63, "velocity": 97, "duration": 775}, {"note": 0, "velocity": 0, "duration": 425}, {"note": 62, "velocity": 100, "duration": 202}, {"note": 60, "velocity": 69, "duration": 157}, {"note": 0, "velocity": 0, "duration": 83}, {"note": 58, "velocity": 77, "duration": 548}, {"note": 0, "velocity": 0, "duration": 172}, {"note": 60, "velocity": 93, "duration": 561}, {"note": 0, "velocity": 0, "duration": 159}, {"note": 58, "velocity": 74, "duration": 480}, {"note": 60, "velocity": 78, "duration": 424}, {"note": 0, "velocity": 0, "duration": 1496}, {"note": 60, "velocity": 99, "duration": 567}, {"note": 0, "velocity": 0, "duration": 153}, {"note": 60, "velocity": 92, "duration": 160}, {"note": 0, "velocity": 0, "duration": 80}, {"note": 65, "velocity": 112, "duration": 327}, {"note": 0, "velocity": 0, "duration": 153}, {"note": 63, "velocity": 97, "duration": 222}, {"note": 65, "velocity": 79, "duration": 142}, {"note": 0, "velocity": 0, "duration": 98}, {"note": 67, "velocity": 95, "duration": 956}, {"note": 0, "velocity": 0, "duration": 484}, {"note": 67, "velocity": 93, "duration": 165}, {"note": 0, "velocity": 0, "duration": 75}, {"note": 70, "velocity": 96, "duration": 107}, {"note": 0, "velocity": 0, "duration": 133}, {"note": 63, "velocity": 99, "duration": 406}, {"note": 0, "velocity": 0, "duration": 74}, {"note": 62, "velocity": 86, "duration": 207}, {"note": 60, "velocity": 72, "duration": 165}, {"note": 0, "velocity": 0, "duration": 75}, {"note": 58, "velocity": 81, "duration": 386}, {"note": 0, "velocity": 0, "duration": 94}, {"note": 55, "velocity": 78, "duration": 224}, {"note": 58, "velocity": 68, "duration": 261}, {"note": 60, "velocity": 83, "duration": 871}, {"note": 0, "velocity": 0, "duration": 1049}, {"note": 55, "velocity": 86, "duration": 800}, {"note": 0, "velocity": 0, "duration": 160}, {"note": 58, "velocity": 93, "duration": 794}, {"note": 0, "velocity": 0, "duration": 166}, {"note": 60, "velocity": 93, "duration": 477}, {"note": 65, "velocity": 82, "duration": 233}, {"note": 60, "velocity": 75, "duration": 246}, {"note": 63, "velocity": 83, "duration": 780}, {"note": 0, "velocity": 0, "duration": 180}, {"note": 60, "velocity": 90, "duration": 594}, {"note": 0, "velocity": 0, "duration": 126}, {"note": 63, "velocity": 88, "duration": 194}, {"note": 60, "velocity": 82, "duration": 389}, {"note": 0, "velocity": 0, "duration": 91}, {"note": 70, "velocity": 127, "duration": 269}, {"note": 67, "velocity": 90, "duration": 347}, {"note": 0, "velocity": 0, "duration": 133}, {"note": 65, "velocity": 95, "duration": 1085}, {"note": 0, "velocity": 0, "duration": 595}, {"note": 67, "velocity": 95, "duration": 498}, {"note": 0, "velocity": 0, "duration": 222}, {"note": 67, "velocity": 69, "duration": 318}, {"note": 70, "velocity": 112, "duration": 471}, {"note": 0, "velocity": 0, "duration": 249}, {"note": 67, "velocity": 90, "duration": 242}, {"note": 72, "velocity": 97, "duration": 1289}, {"note": 0, "velocity": 0, "duration": 151}, {"note": 72, "velocity": 102, "duration": 210}, {"note": 70, "velocity": 96, "duration": 104}, {"note": 0, "velocity": 0, "duration": 136}, {"note": 67, "velocity": 86, "duration": 608}, {"note": 0, "velocity": 0, "duration": 112}, {"note": 67, "velocity": 112, "duration": 209}, {"note": 65, "velocity": 92, "duration": 252}, {"note": 67, "velocity": 63, "duration": 180}, {"note": 60, "velocity": 81, "duration": 530}, {"note": 63, "velocity": 88, "duration": 825}, {"note": 0, "velocity": 0, "duration": 615}, {"note": 60, "velocity": 90, "duration": 215}, {"note": 63, "velocity": 79, "duration": 142}, {"note": 0, "velocity": 0, "duration": 98}, {"note": 65, "velocity": 90, "duration": 959}, {"note": 0, "velocity": 0, "duration": 481}, {"note": 67, "velocity": 95, "duration": 212}, {"note": 70, "velocity": 97, "duration": 335}, {"note": 0, "velocity": 0, "duration": 145}, {"note": 63, "velocity": 97, "duration": 905}, {"note": 0, "velocity": 0, "duration": 295}, {"note": 62, "velocity": 99, "duration": 201}, {"note": 60, "velocity": 85, "duration": 221}, {"note": 58, "velocity": 71, "duration": 424}, {"note": 0, "velocity": 0, "duration": 296}, {"note": 60, "velocity": 82, "duration": 133}, {"note": 0, "velocity": 0, "duration": 107}, {"note": 60, "velocity": 78, "duration": 471}, {"note": 58, "velocity": 65, "duration": 477}, {"note": 60, "velocity": 77, "duration": 1208}, {"note": 0, "velocity": 0, "duration": 232}, {"note": 60, "velocity": 85, "duration": 297}, {"note": 63, "velocity": 67, "duration": 234}, {"note": 65, "velocity": 93, "duration": 1006}, {"note": 0, "velocity": 0, "duration": 434}, {"note": 67, "velocity": 90, "duration": 243}, {"note": 70, "velocity": 97, "duration": 372}, {"note": 0, "velocity": 0, "duration": 108}, {"note": 63, "velocity": 93, "duration": 747}, {"note": 0, "velocity": 0, "duration": 453}, {"note": 62, "velocity": 96, "duration": 232}, {"note": 60, "velocity": 74, "duration": 212}, {"note": 58, "velocity": 71, "duration": 788}, {"note": 60, "velocity": 60, "duration": 238}, {"note": 0, "velocity": 0, "duration": 122}, {"note": 60, "velocity": 73, "duration": 468}, {"note": 55, "velocity": 59, "duration": 554}, {"note": 58, "velocity": 62, "duration": 962}, {"note": 0, "velocity": 0, "duration": 238}, {"note": 60, "velocity": 99, "duration": 2201}]]