[[{"note": 64, "velocity": 99, "duration": 229}, {"note": 69, "velocity": 107, "duration": 268}, {"note": 67, "velocity": 100, "duration": 231}, {"note": 66, "velocity": 90, "duration": 263}, {"note": 64, "velocity": 86, "duration": 276}, {"note": 62, "velocity": 75, "duration": 292}, {"note": 64, "velocity": 85, "duration": 689}, {"note": 0, "velocity": 0, "duration": 511}, {"note": 66, "velocity": 112, "duration": 163}, {"note": 0, "velocity": 0, "duration": 77}, {"note": 67, "velocity": 117, "duration": 202}, {"note": 66, "velocity": 107, "duration": 248}, {"note": 64, "velocity": 88, "duration": 235}, {"note": 60, "velocity": 99, "duration": 217}, {"note": 62, "velocity": 96, "duration": 377}, {"note": 0, "velocity": 0, "duration": 103}, {"note": 64, "velocity": 96, "duration": 223}, {"note": 57, "velocity": 78, "duration": 914}, {"note": 0, "velocity": 0, "duration": 286}, {"note": 62, "velocity": 99, "duration": 186}, {"note": 62, "velocity": 72, "duration": 137}, {"note": 0, "velocity": 0, "duration": 103}, {"note": 62, "velocity": 78, "duration": 126}, {"note": 0, "velocity": 0, "duration": 114}, {"note": 62, "velocity": 93, "duration": 198}, {"note": 60, "velocity": 78, "duration": 249}, {"note": 62, "velocity": 95, "duration": 200}, {"note": 64, "velocity": 93, "duration": 370}, {"note": 0, "velocity": 0, "duration": 110}, {"note": 69, "velocity": 122, "duration": 137}, {"note": 0, "velocity": 0, "duration": 103}, {"note": 69, "velocity": 112, "duration": 133}, {"note": 0, "velocity": 0, "duration": 107}, {"note": 66, "velocity": 112, "duration": 198}, {"note": 64, "velocity": 99, "duration": 182}, {"note": 66, "velocity": 112, "duration": 234}, {"note": 66, "velocity": 102, "duration": 151}, {"note": 0, "velocity": 0, "duration": 89}, {"note": 66, "velocity": 100, "duration": 215}, {"note": 62, "velocity": 89, "duration": 204}, {"note": 64, "velocity": 86, "duration": 485}, {"note": 66, "velocity": 112, "duration": 235}, {"note": 64, "velocity": 92, "duration": 971}, {"note": 0, "velocity": 0, "duration": 229}, {"note": 64, "velocity": 99, "duration": 187}, {"note": 69, "velocity": 97, "duration": 256}, {"note": 67, "velocity": 107, "duration": 148}, {"note": 0, "velocity": 0, "duration": 92}, {"note": 66, "velocity": 107, "duration": 107}, {"note": 0, "velocity": 0, "duration": 133}, {"note": 64, "velocity": 88, "duration": 196}, {"note": 62, "velocity": 83, "duration": 250}, {"note": 64, "velocity": 93, "duration": 665}, {"note": 0, "velocity": 0, "duration": 535}, {"note": 66, "velocity": 122, "duration": 139}, {"note": 0, "velocity": 0, "duration": 101}, {"note": 67, "velocity": 99, "duration": 152}, {"note": 0, "velocity": 0, "duration": 88}, {"note": 66, "velocity": 122, "duration": 176}, {"note": 0, "velocity": 0, "duration": 64}, {"note": 64, "velocity": 100, "duration": 118}, {"note": 0, "velocity": 0, "duration": 122}, {"note": 60, "velocity": 95, "duration": 165}, {"note": 0, "velocity": 0, "duration": 75}, {"note": 62, "velocity": 99, "duration": 329}, {"note": 0, "velocity": 0, "duration": 151}, {"note": 64, "velocity": 107, "duration": 166}, {"note": 0, "velocity": 0, "duration": 74}, {"note": 57, "velocity": 102, "duration": 687}, {"note": 0, "velocity": 0, "duration": 513}, {"note": 62, "velocity": 112, "duration": 235}, {"note": 0, "velocity": 0, "duration": 245}, {"note": 62, "velocity": 117, "duration": 83}, {"note": 0, "velocity": 0, "duration": 157}, {"note": 62, "velocity": 99, "duration": 104}, {"note": 0, "velocity": 0, "duration": 136}, {"note": 60, "velocity": 95, "duration": 147}, {"note": 0, "velocity": 0, "duration": 93}, {"note": 62, "velocity": 96, "duration": 138}, {"note": 0, "velocity": 0, "duration": 102}, {"note": 64, "velocity": 99, "duration": 381}, {"note": 0, "velocity": 0, "duration": 99}, {"note": 69, "velocity": 102, "duration": 201}, {"note": 67, "velocity": 96, "duration": 100}, {"note": 0, "velocity": 0, "duration": 140}, {"note": 66, "velocity": 107, "duration": 98}, {"note": 0, "velocity": 0, "duration": 142}, {"note": 64, "velocity": 97, "duration": 160}, {"note": 0, "velocity": 0, "duration": 80}, {"note": 66, "velocity": 117, "duration": 125}, {"note": 0, "velocity": 0, "duration": 115}, {"note": 66, "velocity": 127, "duration": 114}, {"note": 0, "velocity": 0, "duration": 126}, {"note": 66, "velocity": 117, "duration": 110}, {"note": 0, "velocity": 0, "duration": 130}, {"note": 62, "velocity": 96, "duration": 122}, {"note": 0, "velocity": 0, "duration": 118}, {"note": 64, "velocity": 99, "duration": 180}, {"note": 0, "velocity": 0, "duration": 300}, {"note": 66, "velocity": 122, "duration": 224}, {"note": 64, "velocity": 107, "duration": 567}, {"note": 0, "velocity": 0, "duration": 633}, {"note": 69, "velocity": 127, "duration": 313}, {"note": 0, "velocity": 0, "duration": 167}, {"note": 69, "velocity": 122, "duration": 354}, {"note": 0, "velocity": 0, "duration": 126}, {"note": 69, "velocity": 117, "duration": 336}, {"note": 0, "velocity": 0, "duration": 144}, {"note": 71, "velocity": 127, "duration": 325}, {"note": 0, "velocity": 0, "duration": 155}, {"note": 64, "velocity": 127, "duration": 347}, {"note": 0, "velocity": 0, "duration": 133}, {"note": 71, "velocity": 122, "duration": 190}, {"note": 0, "velocity": 0, "duration": 290}, {"note": 69, "velocity": 122, "duration": 236}, {"note": 67, "velocity": 97, "duration": 175}, {"note": 0, "velocity": 0, "duration": 65}, {"note": 64, "velocity": 99, "duration": 190}, {"note": 62, "velocity": 95, "duration": 190}, {"note": 64, "velocity": 99, "duration": 153}, {"note": 0, "velocity": 0, "duration": 87}, {"note": 69, "velocity": 112, "duration": 222}, {"note": 67, "velocity": 102, "duration": 165}, {"note": 0, "velocity": 0, "duration": 75}, {"note": 67, "velocity": 112, "duration": 403}, {"note": 0, "velocity": 0, "duration": 797}, {"note": 62, "velocity": 100, "duration": 307}, {"note": 0, "velocity": 0, "duration": 173}, {"note": 62, "velocity": 102, "duration": 343}, {"note": 0, "velocity": 0, "duration": 137}, {"note": 62, "velocity": 100, "duration": 325}, {"note": 0, "velocity": 0, "duration": 155}, {"note": 64, "velocity": 102, "duration": 327}, {"note": 0, "velocity": 0, "duration": 153}, {"note": 57, "velocity": 95, "duration": 298}, {"note": 0, "velocity": 0, "duration": 182}, {"note": 64, "velocity": 122, "duration": 251}, {"note": 0, "velocity": 0, "duration": 229}, {"note": 62, "velocity": 112, "duration": 209}, {"note": 0, "velocity": 0, "duration": 271}, {"note": 62, "velocity": 97, "duration": 107}, {"note": 0, "velocity": 0, "duration": 133}, {"note": 57, "velocity": 99, "duration": 108}, {"note": 0, "velocity": 0, "duration": 132}, {"note": 60, "velocity": 92, "duration": 93}, {"note": 0, "velocity": 0, "duration": 147}, {"note": 57, "velocity": 89, "duration": 118}, {"note": 0, "velocity": 0, "duration": 122}, {"note": 59, "velocity": 102, "duration": 622}, {"note": 0, "velocity": 0, "duration": 1298}, {"note": 64, "velocity": 99, "duration": 187}, {"note": 69, "velocity": 97, "duration": 256}, {"note": 67, "velocity": 107, "duration": 148}, {"note": 0, "velocity": 0, "duration": 92}, {"note": 66, "velocity": 107, "duration": 107}, {"note": 0, "velocity": 0, "duration": 133}, {"note": 64, "velocity": 88, "duration": 196}, {"note": 62, "velocity": 83, "duration": 250}, {"note": 64, "velocity": 93, "duration": 665}, {"note": 0, "velocity": 0, "duration": 535}, {"note": 66, "velocity": 122, "duration": 139}, {"note": 0, "velocity": 0, "duration": 101}, {"note": 67, "velocity": 99, "duration": 152}, {"note": 0, "velocity": 0, "duration": 88}, {"note": 66, "velocity": 122, "duration": 176}, {"note": 0, "velocity": 0, "duration": 64}, {"note": 64, "velocity": 100, "duration": 118}, {"note": 0, "velocity": 0, "duration": 122}, {"note": 60, "velocity": 95, "duration": 165}, {"note": 0, "velocity": 0, "duration": 75}, {"note": 62, "velocity": 99, "duration": 329}, {"note": 0, "velocity": 0, "duration": 151}, {"note": 64, "velocity": 107, "duration": 166}, {"note": 0, "velocity": 0, "duration": 74}, {"note": 57, "velocity": 102, "duration": 687}, {"note": 0, "velocity": 0, "duration": 513}, {"note": 62, "velocity": 112, "duration": 120}, {"note": 0, "velocity": 0, "duration": 120}, {"note": 62, "velocity": 112, "duration": 120}, {"note": 0, "velocity": 0, "duration": 120}, {"note": 62, "velocity": 117, "duration": 83}, {"note": 0, "velocity": 0, "duration": 157}, {"note": 62, "velocity": 99, "duration": 104}, {"note": 0, "velocity": 0, "duration": 136}, {"note": 60, "velocity": 95, "duration": 147}, {"note": 0, "velocity": 0, "duration": 93}, {"note": 62, "velocity": 96, "duration": 138}, {"note": 0, "velocity": 0, "duration": 102}, {"note": 64, "velocity": 99, "duration": 381}, {"note": 0, "velocity": 0, "duration": 99}, {"note": 69, "velocity": 102, "duration": 201}, {"note": 67, "velocity": 96, "duration": 100}, {"note": 0, "velocity": 0, "duration": 140}, {"note": 66, "velocity": 107, "duration": 98}, {"note": 0, "velocity": 0, "duration": 142}, {"note": 64, "velocity": 97, "duration": 160}, {"note": 0, "velocity": 0, "duration": 80}, {"note": 66, "velocity": 117, "duration": 125}, {"note": 0, "velocity": 0, "duration": 115}, {"note": 62, "velocity": 96, "duration": 112}, {"note": 0, "velocity": 0, "duration": 128}, {"note": 64, "velocity": 100, "duration": 113}, {"note": 0, "velocity": 0, "duration": 127}, {"note": 60, "velocity": 100, "duration": 146}, {"note": 0, "velocity": 0, "duration": 94}, {"note": 62, "velocity": 95, "duration": 109}, {"note": 0, "velocity": 0, "duration": 131}, {"note": 55, "velocity": 92, "duration": 158}, {"note": 0, "velocity": 0, "duration": 82}, {"note": 57, "velocity": 95, "duration": 998}, {"note": 0, "velocity": 0, "duration": 442}, {"note": 69, "velocity": 127, "duration": 313}, {"note": 0, "velocity": 0, "duration": 167}, {"note": 69, "velocity": 122, "duration": 354}, {"note": 0, "velocity": 0, "duration": 126}, {"note": 69, "velocity": 117, "duration": 336}, {"note": 0, "velocity": 0, "duration": 144}, {"note": 71, "velocity": 127, "duration": 325}, {"note": 0, "velocity": 0, "duration": 155}, {"note": 64, "velocity": 127, "duration": 347}, {"note": 0, "velocity": 0, "duration": 133}, {"note": 71, "velocity": 122, "duration": 190}, {"note": 0, "velocity": 0, "duration": 290}, {"note": 69, "velocity": 122, "duration": 236}, {"note": 67, "velocity": 97, "duration": 175}, {"note": 0, "velocity": 0, "duration": 65}, {"note": 64, "velocity": 99, "duration": 190}, {"note": 62, "velocity": 95, "duration": 190}, {"note": 64, "velocity": 99, "duration": 153}, {"note": 0, "velocity": 0, "duration": 87}, {"note": 69, "velocity": 112, "duration": 222}, {"note": 67, "velocity": 102, "duration": 165}, {"note": 0, "velocity": 0, "duration": 75}, {"note": 67, "velocity": 112, "duration": 403}, {"note": 0, "velocity": 0, "duration": 797}, {"note": 62, "velocity": 100, "duration": 307}, {"note": 0, "velocity": 0, "duration": 173}, {"note": 62, "velocity": 102, "duration": 343}, {"note": 0, "velocity": 0, "duration": 137}, {"note": 62, "velocity": 100, "duration": 325}, {"note": 0, "velocity": 0, "duration": 155}, {"note": 64, "velocity": 102, "duration": 327}, {"note": 0, "velocity": 0, "duration": 153}, {"note": 57, "velocity": 95, "duration": 298}, {"note": 0, "velocity": 0, "duration": 182}, {"note": 64, "velocity": 122, "duration": 251}, {"note": 0, "velocity": 0, "duration": 229}, {"note": 62, "velocity": 112, "duration": 209}, {"note": 0, "velocity": 0, "duration": 271}, {"note": 62, "velocity": 97, "duration": 107}, {"note": 0, "velocity": 0, "duration": 133}, {"note": 57, "velocity": 99, "duration": 108}, {"note": 0, "velocity": 0, "duration": 132}, {"note": 60, "velocity": 92, "duration": 93}, {"note": 0, "velocity": 0, "duration": 147}, {"note": 57, "velocity": 89, "duration": 118}, {"note": 0, "velocity": 0, "duration": 122}, {"note": 59, "velocity": 102, "duration": 622}, {"note": 0, "velocity": 0, "duration": 1298}, {"note": 64, "velocity": 99, "duration": 229}, {"note": 69, "velocity": 107, "duration": 268}, {"note": 67, "velocity": 100, "duration": 231}, {"note": 66, "velocity": 90, "duration": 263}, {"note": 64, "velocity": 86, "duration": 276}, {"note": 62, "velocity": 75, "duration": 292}, {"note": 64, "velocity": 85, "duration": 689}, {"note": 0, "velocity": 0, "duration": 511}, {"note": 66, "velocity": 112, "duration": 163}, {"note": 0, "velocity": 0, "duration": 77}, {"note": 67, "velocity": 117, "duration": 202}, {"note": 66, "velocity": 107, "duration": 248}, {"note": 64, "velocity": 88, "duration": 235}, {"note": 60, "velocity": 99, "duration": 217}, {"note": 62, "velocity": 96, "duration": 377}, {"note": 0, "velocity": 0, "duration": 103}, {"note": 64, "velocity": 96, "duration": 223}, {"note": 57, "velocity": 78, "duration": 914}, {"note": 0, "velocity": 0, "duration": 286}, {"note": 62, "velocity": 99, "duration": 186}, {"note": 62, "velocity": 72, "duration": 137}, {"note": 0, "velocity": 0, "duration": 103}, {"note": 62, "velocity": 78, "duration": 126}, {"note": 0, "velocity": 0, "duration": 114}, {"note": 62, "velocity": 93, "duration": 198}, {"note": 60, "velocity": 78, "duration": 249}, {"note": 62, "velocity": 95, "duration": 200}, {"note": 64, "velocity": 93, "duration": 370}, {"note": 0, "velocity": 0, "duration": 110}, {"note": 69, "velocity": 122, "duration": 137}, {"note": 0, "velocity": 0, "duration": 103}, {"note": 69, "velocity": 112, "duration": 133}, {"note": 0, "velocity": 0, "duration": 107}, {"note": 66, "velocity": 112, "duration": 198}, {"note": 64, "velocity": 99, "duration": 182}, {"note": 66, "velocity": 112, "duration": 234}, {"note": 62, "velocity": 97, "duration": 201}, {"note": 64, "velocity": 95, "duration": 176}, {"note": 0, "velocity": 0, "duration": 64}, {"note": 60, "velocity": 95, "duration": 217}, {"note": 62, "velocity": 95, "duration": 212}, {"note": 55, "velocity": 86, "duration": 270}, {"note": 57, "velocity": 95, "duration": 882}, {"note": 0, "velocity": 0, "duration": 12078}, {"note": 69, "velocity": 127, "duration": 313}, {"note": 0, "velocity": 0, "duration": 167}, {"note": 69, "velocity": 122, "duration": 354}, {"note": 0, "velocity": 0, "duration": 126}, {"note": 69, "velocity": 117, "duration": 336}, {"note": 0, "velocity": 0, "duration": 144}, {"note": 71, "velocity": 127, "duration": 325}, {"note": 0, "velocity": 0, "duration": 155}, {"note": 64, "velocity": 127, "duration": 347}, {"note": 0, "velocity": 0, "duration": 133}, {"note": 71, "velocity": 122, "duration": 190}, {"note": 0, "velocity": 0, "duration": 290}, {"note": 69, "velocity": 122, "duration": 236}, {"note": 67, "velocity": 97, "duration": 175}, {"note": 0, "velocity": 0, "duration": 65}, {"note": 64, "velocity": 99, "duration": 190}, {"note": 62, "velocity": 95, "duration": 190}, {"note": 64, "velocity": 99, "duration": 153}, {"note": 0, "velocity": 0, "duration": 87}, {"note": 69, "velocity": 112, "duration": 222}, {"note": 67, "velocity": 102, "duration": 165}, {"note": 0, "velocity": 0, "duration": 75}, {"note": 67, "velocity": 112, "duration": 403}, {"note": 0, "velocity": 0, "duration": 797}, {"note": 62, "velocity": 100, "duration": 307}, {"note": 0, "velocity": 0, "duration": 173}, {"note": 62, "velocity": 102, "duration": 343}, {"note": 0, "velocity": 0, "duration": 137}, {"note": 62, "velocity": 100, "duration": 325}, {"note": 0, "velocity": 0, "duration": 155}, {"note": 64, "velocity": 102, "duration": 327}, {"note": 0, "velocity": 0, "duration": 153}, {"note": 57, "velocity": 95, "duration": 298}, {"note": 0, "velocity": 0, "duration": 182}, {"note": 64, "velocity": 122, "duration": 251}, {"note": 0, "velocity": 0, "duration": 229}, {"note": 62, "velocity": 112, "duration": 209}, {"note": 0, "velocity": 0, "duration": 271}, {"note": 62, "velocity": 97, "duration": 107}, {"note": 0, "velocity": 0, "duration": 133}, {"note": 57, "velocity": 99, "duration": 108}, {"note": 0, "velocity": 0, "duration": 132}, {"note": 60, "velocity": 92, "duration": 93}, {"note": 0, "velocity": 0, "duration": 147}, {"note": 57, "velocity": 89, "duration": 118}, {"note": 0, "velocity": 0, "duration": 122}, {"note": 59, "velocity": 102, "duration": 622}, {"note": 0, "velocity": 0, "duration": 1298}, {"note": 64, "velocity": 99, "duration": 229}, {"note": 69, "velocity": 107, "duration": 268}, {"note": 67, "velocity": 100, "duration": 231}, {"note": 66, "velocity": 90, "duration": 263}, {"note": 64, "velocity": 86, "duration": 276}, {"note": 62, "velocity": 75, "duration": 292}, {"note": 64, "velocity": 85, "duration": 689}, {"note": 0, "velocity": 0, "duration": 511}, {"note": 66, "velocity": 112, "duration": 163}, {"note": 0, "velocity": 0, "duration": 77}, {"note": 67, "velocity": 117, "duration": 202}, {"note": 66, "velocity": 107, "duration": 248}, {"note": 64, "velocity": 88, "duration": 235}, {"note": 60, "velocity": 99, "duration": 217}, {"note": 62, "velocity": 96, "duration": 377}, {"note": 0, "velocity": 0, "duration": 103}, {"note": 64, "velocity": 96, "duration": 223}, {"note": 57, "velocity": 78, "duration": 914}, {"note": 0, "velocity": 0, "duration": 286}, {"note": 62, "velocity": 99, "duration": 186}, {"note": 62, "velocity": 72, "duration": 137}, {"note": 0, "velocity": 0, "duration": 103}, {"note": 62, "velocity": 78, "duration": 126}, {"note": 0, "velocity": 0, "duration": 114}, {"note": 62, "velocity": 93, "duration": 198}, {"note": 60, "velocity": 78, "duration": 249}, {"note": 62, "velocity": 95, "duration": 200}, {"note": 64, "velocity": 93, "duration": 370}, {"note": 0, "velocity": 0, "duration": 110}, {"note": 69, "velocity": 122, "duration": 137}, {"note": 0, "velocity": 0, "duration": 103}, {"note": 69, "velocity": 112, "duration": 133}, {"note": 0, "velocity": 0, "duration": 107}, {"note": 66, "velocity": 112, "duration": 198}, {"note": 64, "velocity": 99, "duration": 182}, {"note": 66, "velocity": 112, "duration": 234}, {"note": 62, "velocity": 97, "duration": 201}, {"note": 64, "velocity": 95, "duration": 176}, {"note": 0, "velocity": 0, "duration": 64}, {"note": 60, "velocity": 95, "duration": 217}, {"note": 62, "velocity": 95, "duration": 212}, {"note": 55, "velocity": 86, "duration": 270}, {"note": 57, "velocity": 95, "duration": 882}, {"note": 0, "velocity": 0, "duration": 558}, {"note": 62, "velocity": 99, "duration": 186}, {"note": 62, "velocity": 72, "duration": 137}, {"note": 0, "velocity": 0, "duration": 103}, {"note": 62, "velocity": 78, "duration": 126}, {"note": 0, "velocity": 0, "duration": 114}, {"note": 62, "velocity": 93, "duration": 198}, {"note": 60, "velocity": 78, "duration": 249}, {"note": 62, "velocity": 95, "duration": 200}, {"note": 64, "velocity": 93, "duration": 370}, {"note": 0, "velocity": 0, "duration": 110}, {"note": 69, "velocity": 122, "duration": 137}, {"note": 0, "velocity": 0, "duration": 103}, {"note": 69, "velocity": 112, "duration": 133}, {"note": 0, "velocity": 0, "duration": 107}, {"note": 66, "velocity": 112, "duration": 198}, {"note": 64, "velocity": 99, "duration": 182}, {"note": 66, "velocity": 112, "duration": 234}, {"note": 62, "velocity": 97, "duration": 201}, {"note": 64, "velocity": 97, "duration": 271}, {"note": 0, "velocity": 0, "duration": 89}, {"note": 60, "velocity": 89, "duration": 325}, {"note": 0, "velocity": 0, "duration": 133}, {"note": 62, "velocity": 99, "duration": 652}, {"note": 0, "velocity": 0, "duration": 636}, {"note": 55, "velocity": 97, "duration": 319}, {"note": 0, "velocity": 0, "duration": 104}, {"note": 57, "velocity": 97, "duration": 1526}]]