[[{"note": 58, "velocity": 95, "duration": 220}, {"note": 60, "velocity": 107, "duration": 195}, {"note": 63, "velocity": 122, "duration": 183}, {"note": 65, "velocity": 117, "duration": 244}, {"note": 67, "velocity": 102, "duration": 207}, {"note": 63, "velocity": 100, "duration": 245}, {"note": 67, "velocity": 95, "duration": 250}, {"note": 65, "velocity": 107, "duration": 683}, {"note": 0, "velocity": 0, "duration": 1477}, {"note": 65, "velocity": 117, "duration": 131}, {"note": 0, "velocity": 0, "duration": 109}, {"note": 65, "velocity": 122, "duration": 112}, {"note": 0, "velocity": 0, "duration": 128}, {"note": 65, "velocity": 122, "duration": 107}, {"note": 0, "velocity": 0, "duration": 133}, {"note": 65, "velocity": 122, "duration": 115}, {"note": 0, "velocity": 0, "duration": 125}, {"note": 63, "velocity": 127, "duration": 160}, {"note": 0, "velocity": 0, "duration": 80}, {"note": 63, "velocity": 107, "duration": 169}, {"note": 0, "velocity": 0, "duration": 71}, {"note": 60, "velocity": 96, "duration": 302}, {"note": 0, "velocity": 0, "duration": 178}, {"note": 60, "velocity": 107, "duration": 705}, {"note": 0, "velocity": 0, "duration": 1215}, {"note": 58, "velocity": 96, "duration": 208}, {"note": 60, "velocity": 117, "duration": 208}, {"note": 63, "velocity": 100, "duration": 196}, {"note": 65, "velocity": 95, "duration": 214}, {"note": 67, "velocity": 112, "duration": 184}, {"note": 70, "velocity": 117, "duration": 154}, {"note": 0, "velocity": 0, "duration": 86}, {"note": 67, "velocity": 112, "duration": 176}, {"note": 0, "velocity": 0, "duration": 64}, {"note": 65, "velocity": 112, "duration": 879}, {"note": 0, "velocity": 0, "duration": 1281}, {"note": 65, "velocity": 100, "duration": 154}, {"note": 0, "velocity": 0, "duration": 86}, {"note": 65, "velocity": 112, "duration": 142}, {"note": 0, "velocity": 0, "duration": 98}, {"note": 65, "velocity": 122, "duration": 124}, {"note": 0, "velocity": 0, "duration": 116}, {"note": 65, "velocity": 107, "duration": 156}, {"note": 0, "velocity": 0, "duration": 84}, {"note": 63, "velocity": 102, "duration": 154}, {"note": 0, "velocity": 0, "duration": 86}, {"note": 63, "velocity": 112, "duration": 163}, {"note": 0, "velocity": 0, "duration": 77}, {"note": 60, "velocity": 97, "duration": 245}, {"note": 67, "velocity": 117, "duration": 153}, {"note": 0, "velocity": 0, "duration": 87}, {"note": 67, "velocity": 127, "duration": 1122}, {"note": 0, "velocity": 0, "duration": 798}, {"note": 72, "velocity": 112, "duration": 136}, {"note": 0, "velocity": 0, "duration": 104}, {"note": 72, "velocity": 127, "duration": 135}, {"note": 0, "velocity": 0, "duration": 105}, {"note": 72, "velocity": 127, "duration": 143}, {"note": 0, "velocity": 0, "duration": 97}, {"note": 72, "velocity": 127, "duration": 154}, {"note": 0, "velocity": 0, "duration": 86}, {"note": 70, "velocity": 117, "duration": 154}, {"note": 0, "velocity": 0, "duration": 86}, {"note": 67, "velocity": 107, "duration": 132}, {"note": 0, "velocity": 0, "duration": 108}, {"note": 67, "velocity": 112, "duration": 142}, {"note": 0, "velocity": 0, "duration": 98}, {"note": 65, "velocity": 107, "duration": 1440}, {"note": 0, "velocity": 0, "duration": 720}, {"note": 65, "velocity": 122, "duration": 140}, {"note": 0, "velocity": 0, "duration": 100}, {"note": 65, "velocity": 102, "duration": 127}, {"note": 0, "velocity": 0, "duration": 113}, {"note": 65, "velocity": 107, "duration": 133}, {"note": 0, "velocity": 0, "duration": 107}, {"note": 65, "velocity": 102, "duration": 130}, {"note": 0, "velocity": 0, "duration": 110}, {"note": 63, "velocity": 112, "duration": 156}, {"note": 0, "velocity": 0, "duration": 84}, {"note": 63, "velocity": 107, "duration": 170}, {"note": 0, "velocity": 0, "duration": 70}, {"note": 70, "velocity": 127, "duration": 182}, {"note": 67, "velocity": 122, "duration": 1522}, {"note": 0, "velocity": 0, "duration": 638}, {"note": 72, "velocity": 102, "duration": 125}, {"note": 0, "velocity": 0, "duration": 115}, {"note": 72, "velocity": 100, "duration": 131}, {"note": 0, "velocity": 0, "duration": 109}, {"note": 72, "velocity": 107, "duration": 138}, {"note": 0, "velocity": 0, "duration": 102}, {"note": 75, "velocity": 117, "duration": 170}, {"note": 0, "velocity": 0, "duration": 70}, {"note": 67, "velocity": 127, "duration": 222}, {"note": 65, "velocity": 99, "duration": 186}, {"note": 67, "velocity": 117, "duration": 192}, {"note": 65, "velocity": 107, "duration": 540}, {"note": 0, "velocity": 0, "duration": 1620}, {"note": 65, "velocity": 97, "duration": 164}, {"note": 0, "velocity": 0, "duration": 76}, {"note": 65, "velocity": 99, "duration": 150}, {"note": 0, "velocity": 0, "duration": 90}, {"note": 65, "velocity": 97, "duration": 120}, {"note": 0, "velocity": 0, "duration": 120}, {"note": 65, "velocity": 112, "duration": 148}, {"note": 0, "velocity": 0, "duration": 92}, {"note": 63, "velocity": 97, "duration": 162}, {"note": 0, "velocity": 0, "duration": 78}, {"note": 60, "velocity": 97, "duration": 209}, {"note": 63, "velocity": 117, "duration": 240}, {"note": 0, "velocity": 0, "duration": 240}, {"note": 63, "velocity": 127, "duration": 1156}, {"note": 0, "velocity": 0, "duration": 4604}, {"note": 58, "velocity": 95, "duration": 220}, {"note": 60, "velocity": 107, "duration": 195}, {"note": 63, "velocity": 122, "duration": 183}, {"note": 65, "velocity": 117, "duration": 244}, {"note": 67, "velocity": 102, "duration": 207}, {"note": 63, "velocity": 100, "duration": 245}, {"note": 67, "velocity": 95, "duration": 250}, {"note": 65, "velocity": 107, "duration": 683}, {"note": 0, "velocity": 0, "duration": 1477}, {"note": 65, "velocity": 117, "duration": 131}, {"note": 0, "velocity": 0, "duration": 109}, {"note": 65, "velocity": 122, "duration": 112}, {"note": 0, "velocity": 0, "duration": 128}, {"note": 65, "velocity": 122, "duration": 107}, {"note": 0, "velocity": 0, "duration": 133}, {"note": 65, "velocity": 122, "duration": 115}, {"note": 0, "velocity": 0, "duration": 125}, {"note": 63, "velocity": 127, "duration": 160}, {"note": 0, "velocity": 0, "duration": 80}, {"note": 63, "velocity": 107, "duration": 169}, {"note": 0, "velocity": 0, "duration": 71}, {"note": 60, "velocity": 96, "duration": 302}, {"note": 0, "velocity": 0, "duration": 178}, {"note": 60, "velocity": 107, "duration": 705}, {"note": 0, "velocity": 0, "duration": 1215}, {"note": 58, "velocity": 96, "duration": 208}, {"note": 60, "velocity": 117, "duration": 208}, {"note": 63, "velocity": 100, "duration": 196}, {"note": 65, "velocity": 95, "duration": 214}, {"note": 67, "velocity": 112, "duration": 184}, {"note": 70, "velocity": 117, "duration": 154}, {"note": 0, "velocity": 0, "duration": 86}, {"note": 67, "velocity": 112, "duration": 176}, {"note": 0, "velocity": 0, "duration": 64}, {"note": 65, "velocity": 112, "duration": 879}, {"note": 0, "velocity": 0, "duration": 1281}, {"note": 65, "velocity": 100, "duration": 154}, {"note": 0, "velocity": 0, "duration": 86}, {"note": 65, "velocity": 112, "duration": 142}, {"note": 0, "velocity": 0, "duration": 98}, {"note": 65, "velocity": 122, "duration": 124}, {"note": 0, "velocity": 0, "duration": 116}, {"note": 65, "velocity": 107, "duration": 156}, {"note": 0, "velocity": 0, "duration": 84}, {"note": 63, "velocity": 102, "duration": 154}, {"note": 0, "velocity": 0, "duration": 86}, {"note": 63, "velocity": 112, "duration": 163}, {"note": 0, "velocity": 0, "duration": 77}, {"note": 67, "velocity": 97, "duration": 245}, {"note": 67, "velocity": 117, "duration": 5}, {"note": 0, "velocity": 0, "duration": 2155}, {"note": 72, "velocity": 112, "duration": 136}, {"note": 0, "velocity": 0, "duration": 104}, {"note": 72, "velocity": 127, "duration": 135}, {"note": 0, "velocity": 0, "duration": 105}, {"note": 72, "velocity": 127, "duration": 143}, {"note": 0, "velocity": 0, "duration": 97}, {"note": 72, "velocity": 127, "duration": 154}, {"note": 0, "velocity": 0, "duration": 86}, {"note": 70, "velocity": 117, "duration": 154}, {"note": 0, "velocity": 0, "duration": 86}, {"note": 70, "velocity": 107, "duration": 132}, {"note": 0, "velocity": 0, "duration": 108}, {"note": 67, "velocity": 112, "duration": 142}, {"note": 0, "velocity": 0, "duration": 98}, {"note": 65, "velocity": 107, "duration": 405}, {"note": 0, "velocity": 0, "duration": 1755}, {"note": 65, "velocity": 122, "duration": 140}, {"note": 0, "velocity": 0, "duration": 100}, {"note": 65, "velocity": 102, "duration": 127}, {"note": 0, "velocity": 0, "duration": 113}, {"note": 65, "velocity": 107, "duration": 133}, {"note": 0, "velocity": 0, "duration": 107}, {"note": 65, "velocity": 102, "duration": 130}, {"note": 0, "velocity": 0, "duration": 110}, {"note": 63, "velocity": 112, "duration": 156}, {"note": 0, "velocity": 0, "duration": 84}, {"note": 63, "velocity": 107, "duration": 170}, {"note": 0, "velocity": 0, "duration": 70}, {"note": 70, "velocity": 127, "duration": 182}, {"note": 67, "velocity": 122, "duration": 1522}, {"note": 0, "velocity": 0, "duration": 638}, {"note": 72, "velocity": 102, "duration": 125}, {"note": 0, "velocity": 0, "duration": 115}, {"note": 72, "velocity": 100, "duration": 131}, {"note": 0, "velocity": 0, "duration": 109}, {"note": 72, "velocity": 107, "duration": 138}, {"note": 0, "velocity": 0, "duration": 102}, {"note": 75, "velocity": 117, "duration": 170}, {"note": 0, "velocity": 0, "duration": 70}, {"note": 67, "velocity": 127, "duration": 222}, {"note": 65, "velocity": 99, "duration": 186}, {"note": 67, "velocity": 117, "duration": 192}, {"note": 65, "velocity": 107, "duration": 540}, {"note": 0, "velocity": 0, "duration": 1620}, {"note": 65, "velocity": 97, "duration": 164}, {"note": 0, "velocity": 0, "duration": 76}, {"note": 65, "velocity": 99, "duration": 150}, {"note": 0, "velocity": 0, "duration": 90}, {"note": 65, "velocity": 97, "duration": 120}, {"note": 0, "velocity": 0, "duration": 120}, {"note": 65, "velocity": 112, "duration": 148}, {"note": 0, "velocity": 0, "duration": 92}, {"note": 63, "velocity": 97, "duration": 162}, {"note": 0, "velocity": 0, "duration": 78}, {"note": 60, "velocity": 97, "duration": 209}, {"note": 63, "velocity": 117, "duration": 240}, {"note": 0, "velocity": 0, "duration": 240}, {"note": 63, "velocity": 127, "duration": 1156}, {"note": 0, "velocity": 0, "duration": 18044}, {"note": 58, "velocity": 95, "duration": 220}, {"note": 60, "velocity": 107, "duration": 195}, {"note": 63, "velocity": 122, "duration": 183}, {"note": 65, "velocity": 117, "duration": 244}, {"note": 67, "velocity": 102, "duration": 207}, {"note": 63, "velocity": 100, "duration": 245}, {"note": 67, "velocity": 95, "duration": 250}, {"note": 65, "velocity": 107, "duration": 683}, {"note": 0, "velocity": 0, "duration": 1477}, {"note": 65, "velocity": 117, "duration": 131}, {"note": 0, "velocity": 0, "duration": 109}, {"note": 65, "velocity": 122, "duration": 112}, {"note": 0, "velocity": 0, "duration": 128}, {"note": 65, "velocity": 122, "duration": 107}, {"note": 0, "velocity": 0, "duration": 133}, {"note": 65, "velocity": 122, "duration": 115}, {"note": 0, "velocity": 0, "duration": 125}, {"note": 63, "velocity": 127, "duration": 160}, {"note": 0, "velocity": 0, "duration": 80}, {"note": 63, "velocity": 107, "duration": 169}, {"note": 0, "velocity": 0, "duration": 71}, {"note": 60, "velocity": 96, "duration": 302}, {"note": 0, "velocity": 0, "duration": 178}, {"note": 60, "velocity": 107, "duration": 705}, {"note": 0, "velocity": 0, "duration": 1215}, {"note": 58, "velocity": 96, "duration": 208}, {"note": 60, "velocity": 117, "duration": 208}, {"note": 63, "velocity": 100, "duration": 196}, {"note": 65, "velocity": 95, "duration": 214}, {"note": 67, "velocity": 112, "duration": 184}, {"note": 70, "velocity": 117, "duration": 154}, {"note": 0, "velocity": 0, "duration": 86}, {"note": 67, "velocity": 112, "duration": 176}, {"note": 0, "velocity": 0, "duration": 64}, {"note": 65, "velocity": 112, "duration": 879}, {"note": 0, "velocity": 0, "duration": 1281}, {"note": 65, "velocity": 100, "duration": 154}, {"note": 0, "velocity": 0, "duration": 86}, {"note": 65, "velocity": 112, "duration": 142}, {"note": 0, "velocity": 0, "duration": 98}, {"note": 65, "velocity": 122, "duration": 124}, {"note": 0, "velocity": 0, "duration": 116}, {"note": 65, "velocity": 107, "duration": 156}, {"note": 0, "velocity": 0, "duration": 84}, {"note": 63, "velocity": 102, "duration": 154}, {"note": 0, "velocity": 0, "duration": 86}, {"note": 63, "velocity": 112, "duration": 163}, {"note": 0, "velocity": 0, "duration": 75}, {"note": 67, "velocity": 117, "duration": 153}, {"note": 0, "velocity": 0, "duration": 329}, {"note": 67, "velocity": 127, "duration": 1122}, {"note": 0, "velocity": 0, "duration": 798}, {"note": 72, "velocity": 112, "duration": 136}, {"note": 0, "velocity": 0, "duration": 104}, {"note": 72, "velocity": 127, "duration": 135}, {"note": 0, "velocity": 0, "duration": 105}, {"note": 72, "velocity": 127, "duration": 143}, {"note": 0, "velocity": 0, "duration": 97}, {"note": 72, "velocity": 127, "duration": 154}, {"note": 0, "velocity": 0, "duration": 86}, {"note": 70, "velocity": 117, "duration": 154}, {"note": 0, "velocity": 0, "duration": 86}, {"note": 70, "velocity": 107, "duration": 132}, {"note": 0, "velocity": 0, "duration": 108}, {"note": 67, "velocity": 112, "duration": 142}, {"note": 0, "velocity": 0, "duration": 98}, {"note": 65, "velocity": 107, "duration": 405}, {"note": 0, "velocity": 0, "duration": 1755}, {"note": 65, "velocity": 122, "duration": 140}, {"note": 0, "velocity": 0, "duration": 100}, {"note": 65, "velocity": 102, "duration": 127}, {"note": 0, "velocity": 0, "duration": 113}, {"note": 65, "velocity": 107, "duration": 133}, {"note": 0, "velocity": 0, "duration": 107}, {"note": 65, "velocity": 102, "duration": 130}, {"note": 0, "velocity": 0, "duration": 110}, {"note": 63, "velocity": 112, "duration": 156}, {"note": 0, "velocity": 0, "duration": 84}, {"note": 63, "velocity": 107, "duration": 170}, {"note": 0, "velocity": 0, "duration": 70}, {"note": 70, "velocity": 127, "duration": 182}, {"note": 67, "velocity": 122, "duration": 1522}, {"note": 0, "velocity": 0, "duration": 638}, {"note": 72, "velocity": 102, "duration": 125}, {"note": 0, "velocity": 0, "duration": 115}, {"note": 72, "velocity": 100, "duration": 131}, {"note": 0, "velocity": 0, "duration": 109}, {"note": 72, "velocity": 107, "duration": 138}, {"note": 0, "velocity": 0, "duration": 102}, {"note": 75, "velocity": 117, "duration": 170}, {"note": 0, "velocity": 0, "duration": 70}, {"note": 67, "velocity": 127, "duration": 222}, {"note": 65, "velocity": 99, "duration": 186}, {"note": 67, "velocity": 117, "duration": 192}, {"note": 65, "velocity": 107, "duration": 540}, {"note": 0, "velocity": 0, "duration": 1620}, {"note": 65, "velocity": 97, "duration": 164}, {"note": 0, "velocity": 0, "duration": 76}, {"note": 65, "velocity": 99, "duration": 150}, {"note": 0, "velocity": 0, "duration": 90}, {"note": 65, "velocity": 97, "duration": 120}, {"note": 0, "velocity": 0, "duration": 120}, {"note": 65, "velocity": 112, "duration": 148}, {"note": 0, "velocity": 0, "duration": 92}, {"note": 63, "velocity": 97, "duration": 162}, {"note": 0, "velocity": 0, "duration": 78}, {"note": 60, "velocity": 97, "duration": 209}, {"note": 63, "velocity": 117, "duration": 240}, {"note": 0, "velocity": 0, "duration": 240}, {"note": 63, "velocity": 127, "duration": 1156}]]