[[{"note": 58, "velocity": 112, "duration": 210}, {"note": 60, "velocity": 112, "duration": 225}, {"note": 63, "velocity": 107, "duration": 323}, {"note": 0, "velocity": 0, "duration": 157}, {"note": 63, "velocity": 99, "duration": 201}, {"note": 65, "velocity": 97, "duration": 141}, {"note": 0, "velocity": 0, "duration": 99}, {"note": 67, "velocity": 127, "duration": 231}, {"note": 63, "velocity": 107, "duration": 153}, {"note": 0, "velocity": 0, "duration": 87}, {"note": 65, "velocity": 102, "duration": 177}, {"note": 0, "velocity": 0, "duration": 63}, {"note": 63, "velocity": 107, "duration": 110}, {"note": 0, "velocity": 0, "duration": 130}, {"note": 60, "velocity": 102, "duration": 472}, {"note": 0, "velocity": 0, "duration": 968}, {"note": 58, "velocity": 107, "duration": 172}, {"note": 0, "velocity": 0, "duration": 68}, {"note": 60, "velocity": 97, "duration": 203}, {"note": 63, "velocity": 112, "duration": 190}, {"note": 0, "velocity": 0, "duration": 290}, {"note": 63, "velocity": 100, "duration": 165}, {"note": 0, "velocity": 0, "duration": 75}, {"note": 65, "velocity": 97, "duration": 135}, {"note": 0, "velocity": 0, "duration": 105}, {"note": 67, "velocity": 127, "duration": 160}, {"note": 0, "velocity": 0, "duration": 80}, {"note": 70, "velocity": 122, "duration": 162}, {"note": 0, "velocity": 0, "duration": 78}, {"note": 72, "velocity": 112, "duration": 162}, {"note": 0, "velocity": 0, "duration": 78}, {"note": 70, "velocity": 107, "duration": 152}, {"note": 0, "velocity": 0, "duration": 88}, {"note": 67, "velocity": 107, "duration": 751}, {"note": 0, "velocity": 0, "duration": 689}, {"note": 63, "velocity": 127, "duration": 195}, {"note": 60, "velocity": 89, "duration": 245}, {"note": 65, "velocity": 99, "duration": 362}, {"note": 0, "velocity": 0, "duration": 118}, {"note": 65, "velocity": 107, "duration": 215}, {"note": 67, "velocity": 112, "duration": 245}, {"note": 65, "velocity": 102, "duration": 243}, {"note": 0, "velocity": 0, "duration": 477}, {"note": 63, "velocity": 107, "duration": 92}, {"note": 65, "velocity": 96, "duration": 71}, {"note": 67, "velocity": 122, "duration": 163}, {"note": 0, "velocity": 0, "duration": 77}, {"note": 65, "velocity": 112, "duration": 192}, {"note": 63, "velocity": 95, "duration": 180}, {"note": 62, "velocity": 97, "duration": 208}, {"note": 60, "velocity": 92, "duration": 305}, {"note": 58, "velocity": 96, "duration": 94}, {"note": 60, "velocity": 100, "duration": 189}, {"note": 63, "velocity": 99, "duration": 136}, {"note": 0, "velocity": 0, "duration": 104}, {"note": 65, "velocity": 107, "duration": 286}, {"note": 0, "velocity": 0, "duration": 194}, {"note": 65, "velocity": 107, "duration": 80}, {"note": 0, "velocity": 0, "duration": 160}, {"note": 65, "velocity": 100, "duration": 85}, {"note": 0, "velocity": 0, "duration": 155}, {"note": 65, "velocity": 107, "duration": 111}, {"note": 0, "velocity": 0, "duration": 129}, {"note": 63, "velocity": 117, "duration": 68}, {"note": 0, "velocity": 0, "duration": 172}, {"note": 60, "velocity": 90, "duration": 135}, {"note": 0, "velocity": 0, "duration": 105}, {"note": 63, "velocity": 95, "duration": 70}, {"note": 0, "velocity": 0, "duration": 170}, {"note": 65, "velocity": 100, "duration": 233}, {"note": 63, "velocity": 97, "duration": 697}, {"note": 0, "velocity": 0, "duration": 2423}, {"note": 58, "velocity": 112, "duration": 210}, {"note": 60, "velocity": 112, "duration": 225}, {"note": 63, "velocity": 107, "duration": 323}, {"note": 0, "velocity": 0, "duration": 157}, {"note": 63, "velocity": 99, "duration": 201}, {"note": 65, "velocity": 97, "duration": 141}, {"note": 0, "velocity": 0, "duration": 99}, {"note": 67, "velocity": 127, "duration": 231}, {"note": 63, "velocity": 107, "duration": 153}, {"note": 0, "velocity": 0, "duration": 87}, {"note": 65, "velocity": 102, "duration": 177}, {"note": 0, "velocity": 0, "duration": 63}, {"note": 63, "velocity": 107, "duration": 110}, {"note": 0, "velocity": 0, "duration": 130}, {"note": 60, "velocity": 102, "duration": 472}, {"note": 0, "velocity": 0, "duration": 968}, {"note": 58, "velocity": 107, "duration": 172}, {"note": 0, "velocity": 0, "duration": 68}, {"note": 60, "velocity": 97, "duration": 203}, {"note": 63, "velocity": 112, "duration": 190}, {"note": 0, "velocity": 0, "duration": 290}, {"note": 63, "velocity": 100, "duration": 165}, {"note": 0, "velocity": 0, "duration": 75}, {"note": 65, "velocity": 97, "duration": 135}, {"note": 0, "velocity": 0, "duration": 105}, {"note": 67, "velocity": 127, "duration": 160}, {"note": 0, "velocity": 0, "duration": 80}, {"note": 70, "velocity": 122, "duration": 162}, {"note": 0, "velocity": 0, "duration": 78}, {"note": 72, "velocity": 112, "duration": 162}, {"note": 0, "velocity": 0, "duration": 78}, {"note": 70, "velocity": 107, "duration": 152}, {"note": 0, "velocity": 0, "duration": 88}, {"note": 67, "velocity": 107, "duration": 751}, {"note": 0, "velocity": 0, "duration": 689}, {"note": 63, "velocity": 127, "duration": 195}, {"note": 60, "velocity": 89, "duration": 245}, {"note": 65, "velocity": 99, "duration": 362}, {"note": 0, "velocity": 0, "duration": 118}, {"note": 65, "velocity": 107, "duration": 215}, {"note": 67, "velocity": 112, "duration": 245}, {"note": 65, "velocity": 102, "duration": 243}, {"note": 0, "velocity": 0, "duration": 477}, {"note": 63, "velocity": 107, "duration": 92}, {"note": 65, "velocity": 96, "duration": 71}, {"note": 67, "velocity": 122, "duration": 163}, {"note": 0, "velocity": 0, "duration": 77}, {"note": 65, "velocity": 112, "duration": 192}, {"note": 63, "velocity": 95, "duration": 180}, {"note": 62, "velocity": 97, "duration": 208}, {"note": 60, "velocity": 92, "duration": 305}, {"note": 58, "velocity": 96, "duration": 94}, {"note": 60, "velocity": 100, "duration": 189}, {"note": 63, "velocity": 99, "duration": 136}, {"note": 0, "velocity": 0, "duration": 104}, {"note": 65, "velocity": 107, "duration": 286}, {"note": 0, "velocity": 0, "duration": 194}, {"note": 65, "velocity": 107, "duration": 80}, {"note": 0, "velocity": 0, "duration": 160}, {"note": 65, "velocity": 100, "duration": 85}, {"note": 0, "velocity": 0, "duration": 155}, {"note": 65, "velocity": 107, "duration": 111}, {"note": 0, "velocity": 0, "duration": 129}, {"note": 63, "velocity": 117, "duration": 68}, {"note": 0, "velocity": 0, "duration": 172}, {"note": 60, "velocity": 90, "duration": 135}, {"note": 0, "velocity": 0, "duration": 105}, {"note": 63, "velocity": 95, "duration": 70}, {"note": 0, "velocity": 0, "duration": 170}, {"note": 65, "velocity": 100, "duration": 233}, {"note": 63, "velocity": 97, "duration": 697}, {"note": 0, "velocity": 0, "duration": 503}, {"note": 67, "velocity": 122, "duration": 140}, {"note": 0, "velocity": 0, "duration": 100}, {"note": 70, "velocity": 112, "duration": 142}, {"note": 0, "velocity": 0, "duration": 98}, {"note": 72, "velocity": 127, "duration": 361}, {"note": 0, "velocity": 0, "duration": 119}, {"note": 72, "velocity": 122, "duration": 253}, {"note": 0, "velocity": 0, "duration": 227}, {"note": 67, "velocity": 127, "duration": 208}, {"note": 65, "velocity": 102, "duration": 152}, {"note": 0, "velocity": 0, "duration": 88}, {"note": 63, "velocity": 102, "duration": 97}, {"note": 0, "velocity": 0, "duration": 143}, {"note": 65, "velocity": 99, "duration": 109}, {"note": 0, "velocity": 0, "duration": 131}, {"note": 67, "velocity": 127, "duration": 137}, {"note": 0, "velocity": 0, "duration": 103}, {"note": 70, "velocity": 102, "duration": 74}, {"note": 0, "velocity": 0, "duration": 166}, {"note": 67, "velocity": 117, "duration": 452}, {"note": 0, "velocity": 0, "duration": 388}, {"note": 67, "velocity": 112, "duration": 50}, {"note": 0, "velocity": 0, "duration": 70}, {"note": 67, "velocity": 117, "duration": 112}, {"note": 0, "velocity": 0, "duration": 128}, {"note": 70, "velocity": 107, "duration": 93}, {"note": 0, "velocity": 0, "duration": 147}, {"note": 72, "velocity": 122, "duration": 208}, {"note": 0, "velocity": 0, "duration": 272}, {"note": 72, "velocity": 112, "duration": 257}, {"note": 0, "velocity": 0, "duration": 223}, {"note": 67, "velocity": 127, "duration": 195}, {"note": 65, "velocity": 107, "duration": 173}, {"note": 0, "velocity": 0, "duration": 67}, {"note": 63, "velocity": 99, "duration": 190}, {"note": 65, "velocity": 107, "duration": 121}, {"note": 0, "velocity": 0, "duration": 119}, {"note": 67, "velocity": 122, "duration": 139}, {"note": 0, "velocity": 0, "duration": 101}, {"note": 70, "velocity": 117, "duration": 88}, {"note": 0, "velocity": 0, "duration": 152}, {"note": 67, "velocity": 127, "duration": 313}, {"note": 0, "velocity": 0, "duration": 647}, {"note": 65, "velocity": 112, "duration": 71}, {"note": 63, "velocity": 102, "duration": 78}, {"note": 0, "velocity": 0, "duration": 162}, {"note": 60, "velocity": 99, "duration": 83}, {"note": 65, "velocity": 112, "duration": 281}, {"note": 0, "velocity": 0, "duration": 199}, {"note": 65, "velocity": 112, "duration": 70}, {"note": 67, "velocity": 122, "duration": 238}, {"note": 0, "velocity": 0, "duration": 122}, {"note": 65, "velocity": 112, "duration": 208}, {"note": 0, "velocity": 0, "duration": 512}, {"note": 63, "velocity": 93, "duration": 73}, {"note": 65, "velocity": 93, "duration": 76}, {"note": 67, "velocity": 107, "duration": 171}, {"note": 0, "velocity": 0, "duration": 69}, {"note": 65, "velocity": 102, "duration": 135}, {"note": 0, "velocity": 0, "duration": 105}, {"note": 63, "velocity": 107, "duration": 110}, {"note": 0, "velocity": 0, "duration": 130}, {"note": 62, "velocity": 117, "duration": 116}, {"note": 0, "velocity": 0, "duration": 124}, {"note": 60, "velocity": 102, "duration": 172}, {"note": 0, "velocity": 0, "duration": 188}, {"note": 58, "velocity": 102, "duration": 87}, {"note": 60, "velocity": 96, "duration": 170}, {"note": 0, "velocity": 0, "duration": 70}, {"note": 63, "velocity": 107, "duration": 125}, {"note": 0, "velocity": 0, "duration": 115}, {"note": 65, "velocity": 107, "duration": 229}, {"note": 0, "velocity": 0, "duration": 251}, {"note": 65, "velocity": 100, "duration": 95}, {"note": 0, "velocity": 0, "duration": 145}, {"note": 65, "velocity": 99, "duration": 104}, {"note": 0, "velocity": 0, "duration": 136}, {"note": 65, "velocity": 102, "duration": 115}, {"note": 0, "velocity": 0, "duration": 125}, {"note": 63, "velocity": 107, "duration": 76}, {"note": 0, "velocity": 0, "duration": 164}, {"note": 60, "velocity": 117, "duration": 111}, {"note": 0, "velocity": 0, "duration": 129}, {"note": 63, "velocity": 99, "duration": 106}, {"note": 0, "velocity": 0, "duration": 134}, {"note": 65, "velocity": 100, "duration": 263}, {"note": 63, "velocity": 112, "duration": 592}, {"note": 0, "velocity": 0, "duration": 6368}, {"note": 58, "velocity": 112, "duration": 210}, {"note": 60, "velocity": 112, "duration": 225}, {"note": 63, "velocity": 107, "duration": 323}, {"note": 0, "velocity": 0, "duration": 157}, {"note": 63, "velocity": 99, "duration": 201}, {"note": 65, "velocity": 97, "duration": 141}, {"note": 0, "velocity": 0, "duration": 99}, {"note": 67, "velocity": 127, "duration": 231}, {"note": 63, "velocity": 107, "duration": 153}, {"note": 0, "velocity": 0, "duration": 87}, {"note": 65, "velocity": 102, "duration": 177}, {"note": 0, "velocity": 0, "duration": 63}, {"note": 63, "velocity": 107, "duration": 110}, {"note": 0, "velocity": 0, "duration": 130}, {"note": 60, "velocity": 102, "duration": 472}, {"note": 0, "velocity": 0, "duration": 968}, {"note": 58, "velocity": 107, "duration": 172}, {"note": 0, "velocity": 0, "duration": 68}, {"note": 60, "velocity": 97, "duration": 203}, {"note": 63, "velocity": 112, "duration": 190}, {"note": 0, "velocity": 0, "duration": 290}, {"note": 63, "velocity": 100, "duration": 165}, {"note": 0, "velocity": 0, "duration": 75}, {"note": 65, "velocity": 97, "duration": 135}, {"note": 0, "velocity": 0, "duration": 105}, {"note": 67, "velocity": 127, "duration": 160}, {"note": 0, "velocity": 0, "duration": 80}, {"note": 70, "velocity": 122, "duration": 162}, {"note": 0, "velocity": 0, "duration": 78}, {"note": 72, "velocity": 112, "duration": 162}, {"note": 0, "velocity": 0, "duration": 78}, {"note": 70, "velocity": 107, "duration": 152}, {"note": 0, "velocity": 0, "duration": 88}, {"note": 67, "velocity": 107, "duration": 751}, {"note": 0, "velocity": 0, "duration": 689}, {"note": 63, "velocity": 127, "duration": 195}, {"note": 60, "velocity": 89, "duration": 245}, {"note": 65, "velocity": 99, "duration": 362}, {"note": 0, "velocity": 0, "duration": 118}, {"note": 65, "velocity": 107, "duration": 215}, {"note": 67, "velocity": 112, "duration": 245}, {"note": 65, "velocity": 102, "duration": 243}, {"note": 0, "velocity": 0, "duration": 477}, {"note": 63, "velocity": 107, "duration": 92}, {"note": 65, "velocity": 96, "duration": 71}, {"note": 67, "velocity": 122, "duration": 163}, {"note": 0, "velocity": 0, "duration": 77}, {"note": 65, "velocity": 112, "duration": 192}, {"note": 63, "velocity": 95, "duration": 180}, {"note": 62, "velocity": 97, "duration": 208}, {"note": 60, "velocity": 92, "duration": 305}, {"note": 58, "velocity": 96, "duration": 94}, {"note": 60, "velocity": 100, "duration": 189}, {"note": 63, "velocity": 99, "duration": 136}, {"note": 0, "velocity": 0, "duration": 104}, {"note": 65, "velocity": 107, "duration": 286}, {"note": 0, "velocity": 0, "duration": 194}, {"note": 65, "velocity": 107, "duration": 80}, {"note": 0, "velocity": 0, "duration": 160}, {"note": 65, "velocity": 100, "duration": 85}, {"note": 0, "velocity": 0, "duration": 155}, {"note": 65, "velocity": 107, "duration": 111}, {"note": 0, "velocity": 0, "duration": 129}, {"note": 63, "velocity": 117, "duration": 68}, {"note": 0, "velocity": 0, "duration": 172}, {"note": 60, "velocity": 90, "duration": 135}, {"note": 0, "velocity": 0, "duration": 105}, {"note": 63, "velocity": 95, "duration": 70}, {"note": 0, "velocity": 0, "duration": 170}, {"note": 65, "velocity": 100, "duration": 233}, {"note": 63, "velocity": 97, "duration": 697}, {"note": 0, "velocity": 0, "duration": 2423}, {"note": 58, "velocity": 112, "duration": 210}, {"note": 60, "velocity": 112, "duration": 225}, {"note": 63, "velocity": 107, "duration": 323}, {"note": 0, "velocity": 0, "duration": 157}, {"note": 63, "velocity": 99, "duration": 201}, {"note": 65, "velocity": 97, "duration": 141}, {"note": 0, "velocity": 0, "duration": 99}, {"note": 67, "velocity": 127, "duration": 231}, {"note": 63, "velocity": 107, "duration": 153}, {"note": 0, "velocity": 0, "duration": 87}, {"note": 65, "velocity": 102, "duration": 177}, {"note": 0, "velocity": 0, "duration": 63}, {"note": 63, "velocity": 107, "duration": 110}, {"note": 0, "velocity": 0, "duration": 130}, {"note": 60, "velocity": 102, "duration": 472}, {"note": 0, "velocity": 0, "duration": 968}, {"note": 58, "velocity": 107, "duration": 172}, {"note": 0, "velocity": 0, "duration": 68}, {"note": 60, "velocity": 97, "duration": 203}, {"note": 63, "velocity": 112, "duration": 190}, {"note": 0, "velocity": 0, "duration": 290}, {"note": 63, "velocity": 100, "duration": 165}, {"note": 0, "velocity": 0, "duration": 75}, {"note": 65, "velocity": 97, "duration": 135}, {"note": 0, "velocity": 0, "duration": 105}, {"note": 67, "velocity": 127, "duration": 160}, {"note": 0, "velocity": 0, "duration": 80}, {"note": 70, "velocity": 122, "duration": 162}, {"note": 0, "velocity": 0, "duration": 78}, {"note": 72, "velocity": 112, "duration": 162}, {"note": 0, "velocity": 0, "duration": 78}, {"note": 70, "velocity": 107, "duration": 152}, {"note": 0, "velocity": 0, "duration": 88}, {"note": 67, "velocity": 107, "duration": 751}, {"note": 0, "velocity": 0, "duration": 689}, {"note": 63, "velocity": 127, "duration": 195}, {"note": 60, "velocity": 89, "duration": 245}, {"note": 65, "velocity": 99, "duration": 362}, {"note": 0, "velocity": 0, "duration": 118}, {"note": 65, "velocity": 107, "duration": 215}, {"note": 67, "velocity": 112, "duration": 245}, {"note": 65, "velocity": 102, "duration": 243}, {"note": 0, "velocity": 0, "duration": 477}, {"note": 63, "velocity": 107, "duration": 92}, {"note": 65, "velocity": 96, "duration": 71}, {"note": 67, "velocity": 122, "duration": 163}, {"note": 0, "velocity": 0, "duration": 77}, {"note": 65, "velocity": 112, "duration": 192}, {"note": 63, "velocity": 95, "duration": 180}, {"note": 62, "velocity": 97, "duration": 208}, {"note": 60, "velocity": 92, "duration": 305}, {"note": 58, "velocity": 96, "duration": 94}, {"note": 60, "velocity": 100, "duration": 189}, {"note": 63, "velocity": 99, "duration": 136}, {"note": 0, "velocity": 0, "duration": 104}, {"note": 65, "velocity": 107, "duration": 286}, {"note": 0, "velocity": 0, "duration": 194}, {"note": 65, "velocity": 107, "duration": 80}, {"note": 0, "velocity": 0, "duration": 160}, {"note": 65, "velocity": 100, "duration": 85}, {"note": 0, "velocity": 0, "duration": 155}, {"note": 65, "velocity": 107, "duration": 111}, {"note": 0, "velocity": 0, "duration": 129}, {"note": 63, "velocity": 117, "duration": 68}, {"note": 0, "velocity": 0, "duration": 172}, {"note": 60, "velocity": 90, "duration": 135}, {"note": 0, "velocity": 0, "duration": 105}, {"note": 63, "velocity": 95, "duration": 70}, {"note": 0, "velocity": 0, "duration": 170}, {"note": 65, "velocity": 100, "duration": 233}, {"note": 63, "velocity": 97, "duration": 697}, {"note": 0, "velocity": 0, "duration": 503}, {"note": 67, "velocity": 122, "duration": 140}, {"note": 0, "velocity": 0, "duration": 100}, {"note": 70, "velocity": 112, "duration": 142}, {"note": 0, "velocity": 0, "duration": 98}, {"note": 72, "velocity": 127, "duration": 361}, {"note": 0, "velocity": 0, "duration": 119}, {"note": 72, "velocity": 122, "duration": 253}, {"note": 0, "velocity": 0, "duration": 227}, {"note": 67, "velocity": 127, "duration": 208}, {"note": 65, "velocity": 102, "duration": 152}, {"note": 0, "velocity": 0, "duration": 88}, {"note": 63, "velocity": 102, "duration": 97}, {"note": 0, "velocity": 0, "duration": 143}, {"note": 65, "velocity": 99, "duration": 109}, {"note": 0, "velocity": 0, "duration": 131}, {"note": 67, "velocity": 127, "duration": 137}, {"note": 0, "velocity": 0, "duration": 103}, {"note": 70, "velocity": 102, "duration": 74}, {"note": 0, "velocity": 0, "duration": 166}, {"note": 67, "velocity": 117, "duration": 452}, {"note": 0, "velocity": 0, "duration": 388}, {"note": 67, "velocity": 112, "duration": 50}, {"note": 0, "velocity": 0, "duration": 70}, {"note": 67, "velocity": 117, "duration": 112}, {"note": 0, "velocity": 0, "duration": 128}, {"note": 70, "velocity": 107, "duration": 93}, {"note": 0, "velocity": 0, "duration": 147}, {"note": 72, "velocity": 122, "duration": 208}, {"note": 0, "velocity": 0, "duration": 272}, {"note": 72, "velocity": 112, "duration": 257}, {"note": 0, "velocity": 0, "duration": 223}, {"note": 67, "velocity": 127, "duration": 195}, {"note": 65, "velocity": 107, "duration": 173}, {"note": 0, "velocity": 0, "duration": 67}, {"note": 63, "velocity": 99, "duration": 190}, {"note": 65, "velocity": 107, "duration": 121}, {"note": 0, "velocity": 0, "duration": 119}, {"note": 67, "velocity": 122, "duration": 139}, {"note": 0, "velocity": 0, "duration": 101}, {"note": 70, "velocity": 117, "duration": 88}, {"note": 0, "velocity": 0, "duration": 152}, {"note": 67, "velocity": 127, "duration": 313}, {"note": 0, "velocity": 0, "duration": 647}, {"note": 65, "velocity": 112, "duration": 71}, {"note": 63, "velocity": 102, "duration": 78}, {"note": 0, "velocity": 0, "duration": 162}, {"note": 60, "velocity": 99, "duration": 83}, {"note": 65, "velocity": 112, "duration": 281}, {"note": 0, "velocity": 0, "duration": 199}, {"note": 65, "velocity": 112, "duration": 70}, {"note": 67, "velocity": 122, "duration": 238}, {"note": 0, "velocity": 0, "duration": 122}, {"note": 65, "velocity": 112, "duration": 208}, {"note": 0, "velocity": 0, "duration": 512}, {"note": 63, "velocity": 93, "duration": 73}, {"note": 65, "velocity": 93, "duration": 76}, {"note": 67, "velocity": 107, "duration": 171}, {"note": 0, "velocity": 0, "duration": 69}, {"note": 65, "velocity": 102, "duration": 135}, {"note": 0, "velocity": 0, "duration": 105}, {"note": 63, "velocity": 107, "duration": 110}, {"note": 0, "velocity": 0, "duration": 130}, {"note": 62, "velocity": 117, "duration": 116}, {"note": 0, "velocity": 0, "duration": 124}, {"note": 60, "velocity": 102, "duration": 172}, {"note": 0, "velocity": 0, "duration": 188}, {"note": 58, "velocity": 102, "duration": 87}, {"note": 60, "velocity": 96, "duration": 170}, {"note": 0, "velocity": 0, "duration": 70}, {"note": 63, "velocity": 107, "duration": 125}, {"note": 0, "velocity": 0, "duration": 115}, {"note": 65, "velocity": 107, "duration": 229}, {"note": 0, "velocity": 0, "duration": 251}, {"note": 65, "velocity": 100, "duration": 95}, {"note": 0, "velocity": 0, "duration": 145}, {"note": 65, "velocity": 99, "duration": 104}, {"note": 0, "velocity": 0, "duration": 136}, {"note": 65, "velocity": 102, "duration": 115}, {"note": 0, "velocity": 0, "duration": 125}, {"note": 63, "velocity": 107, "duration": 76}, {"note": 0, "velocity": 0, "duration": 164}, {"note": 60, "velocity": 117, "duration": 111}, {"note": 0, "velocity": 0, "duration": 129}, {"note": 63, "velocity": 99, "duration": 106}, {"note": 0, "velocity": 0, "duration": 134}, {"note": 65, "velocity": 100, "duration": 263}, {"note": 63, "velocity": 112, "duration": 592}, {"note": 0, "velocity": 0, "duration": 17888}, {"note": 67, "velocity": 122, "duration": 140}, {"note": 0, "velocity": 0, "duration": 100}, {"note": 70, "velocity": 112, "duration": 142}, {"note": 0, "velocity": 0, "duration": 98}, {"note": 72, "velocity": 127, "duration": 361}, {"note": 0, "velocity": 0, "duration": 119}, {"note": 72, "velocity": 122, "duration": 253}, {"note": 0, "velocity": 0, "duration": 227}, {"note": 67, "velocity": 127, "duration": 208}, {"note": 65, "velocity": 102, "duration": 152}, {"note": 0, "velocity": 0, "duration": 88}, {"note": 63, "velocity": 102, "duration": 97}, {"note": 0, "velocity": 0, "duration": 143}, {"note": 65, "velocity": 99, "duration": 109}, {"note": 0, "velocity": 0, "duration": 131}, {"note": 67, "velocity": 127, "duration": 137}, {"note": 0, "velocity": 0, "duration": 103}, {"note": 70, "velocity": 102, "duration": 74}, {"note": 0, "velocity": 0, "duration": 166}, {"note": 67, "velocity": 117, "duration": 452}, {"note": 0, "velocity": 0, "duration": 388}, {"note": 67, "velocity": 112, "duration": 50}, {"note": 0, "velocity": 0, "duration": 70}, {"note": 67, "velocity": 117, "duration": 112}, {"note": 0, "velocity": 0, "duration": 128}, {"note": 70, "velocity": 107, "duration": 93}, {"note": 0, "velocity": 0, "duration": 147}, {"note": 72, "velocity": 122, "duration": 208}, {"note": 0, "velocity": 0, "duration": 272}, {"note": 72, "velocity": 112, "duration": 257}, {"note": 0, "velocity": 0, "duration": 223}, {"note": 67, "velocity": 127, "duration": 195}, {"note": 65, "velocity": 107, "duration": 173}, {"note": 0, "velocity": 0, "duration": 67}, {"note": 63, "velocity": 99, "duration": 190}, {"note": 65, "velocity": 107, "duration": 121}, {"note": 0, "velocity": 0, "duration": 119}, {"note": 67, "velocity": 122, "duration": 139}, {"note": 0, "velocity": 0, "duration": 101}, {"note": 70, "velocity": 117, "duration": 88}, {"note": 0, "velocity": 0, "duration": 152}, {"note": 67, "velocity": 127, "duration": 313}, {"note": 0, "velocity": 0, "duration": 647}, {"note": 65, "velocity": 112, "duration": 71}, {"note": 63, "velocity": 102, "duration": 78}, {"note": 0, "velocity": 0, "duration": 162}, {"note": 60, "velocity": 99, "duration": 83}, {"note": 65, "velocity": 112, "duration": 281}, {"note": 0, "velocity": 0, "duration": 199}, {"note": 65, "velocity": 112, "duration": 70}, {"note": 67, "velocity": 122, "duration": 238}, {"note": 0, "velocity": 0, "duration": 122}, {"note": 65, "velocity": 112, "duration": 208}, {"note": 0, "velocity": 0, "duration": 512}, {"note": 63, "velocity": 93, "duration": 73}, {"note": 65, "velocity": 93, "duration": 76}, {"note": 67, "velocity": 107, "duration": 171}, {"note": 0, "velocity": 0, "duration": 69}, {"note": 65, "velocity": 102, "duration": 135}, {"note": 0, "velocity": 0, "duration": 105}, {"note": 63, "velocity": 107, "duration": 110}, {"note": 0, "velocity": 0, "duration": 130}, {"note": 62, "velocity": 117, "duration": 116}, {"note": 0, "velocity": 0, "duration": 124}, {"note": 60, "velocity": 102, "duration": 172}, {"note": 0, "velocity": 0, "duration": 188}, {"note": 58, "velocity": 102, "duration": 87}, {"note": 60, "velocity": 96, "duration": 170}, {"note": 0, "velocity": 0, "duration": 70}, {"note": 63, "velocity": 107, "duration": 125}, {"note": 0, "velocity": 0, "duration": 115}, {"note": 65, "velocity": 107, "duration": 229}, {"note": 0, "velocity": 0, "duration": 251}, {"note": 65, "velocity": 100, "duration": 95}, {"note": 0, "velocity": 0, "duration": 145}, {"note": 65, "velocity": 99, "duration": 104}, {"note": 0, "velocity": 0, "duration": 136}, {"note": 65, "velocity": 102, "duration": 115}, {"note": 0, "velocity": 0, "duration": 125}, {"note": 63, "velocity": 107, "duration": 76}, {"note": 0, "velocity": 0, "duration": 164}, {"note": 60, "velocity": 117, "duration": 111}, {"note": 0, "velocity": 0, "duration": 129}, {"note": 63, "velocity": 99, "duration": 106}, {"note": 0, "velocity": 0, "duration": 134}, {"note": 65, "velocity": 100, "duration": 263}, {"note": 63, "velocity": 112, "duration": 592}]]