[[{"note": 62, "velocity": 97, "duration": 170}, {"note": 0, "velocity": 0, "duration": 70}, {"note": 62, "velocity": 93, "duration": 144}, {"note": 0, "velocity": 0, "duration": 96}, {"note": 62, "velocity": 95, "duration": 164}, {"note": 0, "velocity": 0, "duration": 76}, {"note": 62, "velocity": 95, "duration": 148}, {"note": 0, "velocity": 0, "duration": 92}, {"note": 62, "velocity": 100, "duration": 153}, {"note": 0, "velocity": 0, "duration": 87}, {"note": 65, "velocity": 92, "duration": 180}, {"note": 67, "velocity": 95, "duration": 171}, {"note": 0, "velocity": 0, "duration": 69}, {"note": 65, "velocity": 93, "duration": 161}, {"note": 0, "velocity": 0, "duration": 79}, {"note": 62, "velocity": 99, "duration": 774}, {"note": 0, "velocity": 0, "duration": 186}, {"note": 60, "velocity": 95, "duration": 588}, {"note": 57, "velocity": 88, "duration": 454}, {"note": 62, "velocity": 99, "duration": 153}, {"note": 0, "velocity": 0, "duration": 87}, {"note": 62, "velocity": 86, "duration": 135}, {"note": 0, "velocity": 0, "duration": 105}, {"note": 62, "velocity": 95, "duration": 127}, {"note": 0, "velocity": 0, "duration": 113}, {"note": 62, "velocity": 97, "duration": 157}, {"note": 0, "velocity": 0, "duration": 83}, {"note": 65, "velocity": 100, "duration": 142}, {"note": 0, "velocity": 0, "duration": 98}, {"note": 67, "velocity": 99, "duration": 165}, {"note": 0, "velocity": 0, "duration": 75}, {"note": 69, "velocity": 127, "duration": 271}, {"note": 67, "velocity": 117, "duration": 157}, {"note": 0, "velocity": 0, "duration": 83}, {"note": 67, "velocity": 100, "duration": 699}, {"note": 0, "velocity": 0, "duration": 1221}, {"note": 62, "velocity": 107, "duration": 141}, {"note": 0, "velocity": 0, "duration": 99}, {"note": 62, "velocity": 99, "duration": 126}, {"note": 0, "velocity": 0, "duration": 114}, {"note": 62, "velocity": 100, "duration": 122}, {"note": 0, "velocity": 0, "duration": 118}, {"note": 62, "velocity": 99, "duration": 130}, {"note": 0, "velocity": 0, "duration": 110}, {"note": 65, "velocity": 102, "duration": 145}, {"note": 0, "velocity": 0, "duration": 95}, {"note": 67, "velocity": 102, "duration": 170}, {"note": 0, "velocity": 0, "duration": 70}, {"note": 69, "velocity": 122, "duration": 175}, {"note": 0, "velocity": 0, "duration": 65}, {"note": 67, "velocity": 99, "duration": 51}, {"note": 0, "velocity": 0, "duration": 189}, {"note": 67, "velocity": 117, "duration": 494}, {"note": 0, "velocity": 0, "duration": 226}, {"note": 69, "velocity": 102, "duration": 64}, {"note": 0, "velocity": 0, "duration": 176}, {"note": 67, "velocity": 96, "duration": 486}, {"note": 65, "velocity": 77, "duration": 327}, {"note": 0, "velocity": 0, "duration": 153}, {"note": 62, "velocity": 100, "duration": 154}, {"note": 0, "velocity": 0, "duration": 86}, {"note": 62, "velocity": 97, "duration": 155}, {"note": 0, "velocity": 0, "duration": 85}, {"note": 62, "velocity": 96, "duration": 139}, {"note": 0, "velocity": 0, "duration": 101}, {"note": 62, "velocity": 99, "duration": 146}, {"note": 0, "velocity": 0, "duration": 94}, {"note": 60, "velocity": 99, "duration": 172}, {"note": 0, "velocity": 0, "duration": 68}, {"note": 62, "velocity": 97, "duration": 172}, {"note": 0, "velocity": 0, "duration": 68}, {"note": 60, "velocity": 96, "duration": 107}, {"note": 0, "velocity": 0, "duration": 133}, {"note": 55, "velocity": 83, "duration": 188}, {"note": 57, "velocity": 93, "duration": 724}, {"note": 0, "velocity": 0, "duration": 1196}, {"note": 62, "velocity": 97, "duration": 170}, {"note": 0, "velocity": 0, "duration": 70}, {"note": 62, "velocity": 93, "duration": 144}, {"note": 0, "velocity": 0, "duration": 96}, {"note": 62, "velocity": 95, "duration": 164}, {"note": 0, "velocity": 0, "duration": 76}, {"note": 62, "velocity": 95, "duration": 148}, {"note": 0, "velocity": 0, "duration": 92}, {"note": 62, "velocity": 100, "duration": 153}, {"note": 0, "velocity": 0, "duration": 87}, {"note": 65, "velocity": 92, "duration": 180}, {"note": 67, "velocity": 95, "duration": 171}, {"note": 0, "velocity": 0, "duration": 69}, {"note": 65, "velocity": 93, "duration": 161}, {"note": 0, "velocity": 0, "duration": 79}, {"note": 62, "velocity": 99, "duration": 774}, {"note": 0, "velocity": 0, "duration": 186}, {"note": 60, "velocity": 95, "duration": 588}, {"note": 57, "velocity": 88, "duration": 454}, {"note": 62, "velocity": 99, "duration": 153}, {"note": 0, "velocity": 0, "duration": 87}, {"note": 62, "velocity": 97, "duration": 52}, {"note": 0, "velocity": 0, "duration": 68}, {"note": 62, "velocity": 96, "duration": 46}, {"note": 0, "velocity": 0, "duration": 74}, {"note": 62, "velocity": 95, "duration": 127}, {"note": 0, "velocity": 0, "duration": 113}, {"note": 62, "velocity": 97, "duration": 157}, {"note": 0, "velocity": 0, "duration": 83}, {"note": 65, "velocity": 100, "duration": 142}, {"note": 0, "velocity": 0, "duration": 98}, {"note": 67, "velocity": 99, "duration": 165}, {"note": 0, "velocity": 0, "duration": 75}, {"note": 69, "velocity": 127, "duration": 271}, {"note": 67, "velocity": 117, "duration": 157}, {"note": 0, "velocity": 0, "duration": 83}, {"note": 67, "velocity": 100, "duration": 699}, {"note": 0, "velocity": 0, "duration": 1221}, {"note": 62, "velocity": 107, "duration": 141}, {"note": 0, "velocity": 0, "duration": 99}, {"note": 62, "velocity": 99, "duration": 126}, {"note": 0, "velocity": 0, "duration": 114}, {"note": 62, "velocity": 100, "duration": 122}, {"note": 0, "velocity": 0, "duration": 118}, {"note": 62, "velocity": 99, "duration": 130}, {"note": 0, "velocity": 0, "duration": 110}, {"note": 65, "velocity": 102, "duration": 145}, {"note": 0, "velocity": 0, "duration": 95}, {"note": 67, "velocity": 102, "duration": 170}, {"note": 0, "velocity": 0, "duration": 70}, {"note": 69, "velocity": 122, "duration": 175}, {"note": 0, "velocity": 0, "duration": 65}, {"note": 67, "velocity": 97, "duration": 49}, {"note": 0, "velocity": 0, "duration": 71}, {"note": 67, "velocity": 99, "duration": 62}, {"note": 67, "velocity": 117, "duration": 494}, {"note": 0, "velocity": 0, "duration": 226}, {"note": 69, "velocity": 102, "duration": 64}, {"note": 0, "velocity": 0, "duration": 176}, {"note": 67, "velocity": 96, "duration": 486}, {"note": 65, "velocity": 77, "duration": 327}, {"note": 0, "velocity": 0, "duration": 153}, {"note": 57, "velocity": 99, "duration": 98}, {"note": 0, "velocity": 0, "duration": 142}, {"note": 57, "velocity": 97, "duration": 49}, {"note": 0, "velocity": 0, "duration": 71}, {"note": 57, "velocity": 93, "duration": 52}, {"note": 0, "velocity": 0, "duration": 68}, {"note": 57, "velocity": 107, "duration": 109}, {"note": 0, "velocity": 0, "duration": 131}, {"note": 57, "velocity": 107, "duration": 171}, {"note": 0, "velocity": 0, "duration": 69}, {"note": 65, "velocity": 107, "duration": 141}, {"note": 0, "velocity": 0, "duration": 99}, {"note": 62, "velocity": 107, "duration": 135}, {"note": 0, "velocity": 0, "duration": 105}, {"note": 60, "velocity": 100, "duration": 173}, {"note": 0, "velocity": 0, "duration": 67}, {"note": 62, "velocity": 99, "duration": 129}, {"note": 0, "velocity": 0, "duration": 111}, {"note": 62, "velocity": 122, "duration": 739}, {"note": 0, "velocity": 0, "duration": 1181}, {"note": 69, "velocity": 122, "duration": 101}, {"note": 0, "velocity": 0, "duration": 139}, {"note": 69, "velocity": 107, "duration": 56}, {"note": 0, "velocity": 0, "duration": 64}, {"note": 69, "velocity": 85, "duration": 53}, {"note": 0, "velocity": 0, "duration": 67}, {"note": 69, "velocity": 112, "duration": 106}, {"note": 0, "velocity": 0, "duration": 134}, {"note": 72, "velocity": 122, "duration": 100}, {"note": 0, "velocity": 0, "duration": 140}, {"note": 69, "velocity": 102, "duration": 398}, {"note": 0, "velocity": 0, "duration": 82}, {"note": 67, "velocity": 127, "duration": 176}, {"note": 0, "velocity": 0, "duration": 64}, {"note": 69, "velocity": 100, "duration": 165}, {"note": 0, "velocity": 0, "duration": 75}, {"note": 67, "velocity": 127, "duration": 184}, {"note": 67, "velocity": 117, "duration": 154}, {"note": 0, "velocity": 0, "duration": 86}, {"note": 67, "velocity": 112, "duration": 123}, {"note": 0, "velocity": 0, "duration": 117}, {"note": 67, "velocity": 112, "duration": 132}, {"note": 0, "velocity": 0, "duration": 108}, {"note": 67, "velocity": 112, "duration": 98}, {"note": 0, "velocity": 0, "duration": 142}, {"note": 69, "velocity": 97, "duration": 119}, {"note": 67, "velocity": 75, "duration": 111}, {"note": 65, "velocity": 89, "duration": 304}, {"note": 0, "velocity": 0, "duration": 176}, {"note": 62, "velocity": 107, "duration": 146}, {"note": 0, "velocity": 0, "duration": 94}, {"note": 62, "velocity": 97, "duration": 132}, {"note": 0, "velocity": 0, "duration": 108}, {"note": 62, "velocity": 112, "duration": 150}, {"note": 0, "velocity": 0, "duration": 90}, {"note": 65, "velocity": 107, "duration": 147}, {"note": 0, "velocity": 0, "duration": 93}, {"note": 65, "velocity": 107, "duration": 216}, {"note": 0, "velocity": 0, "duration": 264}, {"note": 62, "velocity": 122, "duration": 232}, {"note": 60, "velocity": 107, "duration": 81}, {"note": 0, "velocity": 0, "duration": 159}, {"note": 65, "velocity": 112, "duration": 174}, {"note": 0, "velocity": 0, "duration": 66}, {"note": 67, "velocity": 102, "duration": 147}, {"note": 0, "velocity": 0, "duration": 93}, {"note": 69, "velocity": 117, "duration": 416}, {"note": 0, "velocity": 0, "duration": 64}, {"note": 67, "velocity": 112, "duration": 625}, {"note": 0, "velocity": 0, "duration": 335}, {"note": 69, "velocity": 107, "duration": 145}, {"note": 0, "velocity": 0, "duration": 95}, {"note": 69, "velocity": 102, "duration": 131}, {"note": 0, "velocity": 0, "duration": 109}, {"note": 69, "velocity": 107, "duration": 127}, {"note": 0, "velocity": 0, "duration": 113}, {"note": 72, "velocity": 117, "duration": 159}, {"note": 0, "velocity": 0, "duration": 81}, {"note": 74, "velocity": 127, "duration": 210}, {"note": 0, "velocity": 0, "duration": 270}, {"note": 72, "velocity": 127, "duration": 171}, {"note": 0, "velocity": 0, "duration": 69}, {"note": 69, "velocity": 112, "duration": 164}, {"note": 0, "velocity": 0, "duration": 76}, {"note": 67, "velocity": 107, "duration": 141}, {"note": 0, "velocity": 0, "duration": 99}, {"note": 67, "velocity": 102, "duration": 68}, {"note": 0, "velocity": 0, "duration": 172}, {"note": 67, "velocity": 100, "duration": 120}, {"note": 0, "velocity": 0, "duration": 120}, {"note": 69, "velocity": 127, "duration": 51}, {"note": 0, "velocity": 0, "duration": 69}, {"note": 69, "velocity": 96, "duration": 63}, {"note": 67, "velocity": 117, "duration": 201}, {"note": 69, "velocity": 102, "duration": 121}, {"note": 67, "velocity": 83, "duration": 106}, {"note": 65, "velocity": 97, "duration": 284}, {"note": 0, "velocity": 0, "duration": 196}, {"note": 62, "velocity": 117, "duration": 144}, {"note": 0, "velocity": 0, "duration": 96}, {"note": 62, "velocity": 102, "duration": 161}, {"note": 0, "velocity": 0, "duration": 79}, {"note": 65, "velocity": 117, "duration": 172}, {"note": 0, "velocity": 0, "duration": 68}, {"note": 67, "velocity": 99, "duration": 139}, {"note": 0, "velocity": 0, "duration": 101}, {"note": 69, "velocity": 117, "duration": 267}, {"note": 0, "velocity": 0, "duration": 213}, {"note": 67, "velocity": 107, "duration": 238}, {"note": 69, "velocity": 122, "duration": 149}, {"note": 0, "velocity": 0, "duration": 91}, {"note": 65, "velocity": 112, "duration": 135}, {"note": 0, "velocity": 0, "duration": 105}, {"note": 62, "velocity": 99, "duration": 110}, {"note": 0, "velocity": 0, "duration": 130}, {"note": 60, "velocity": 100, "duration": 245}, {"note": 62, "velocity": 100, "duration": 116}, {"note": 0, "velocity": 0, "duration": 124}, {"note": 62, "velocity": 122, "duration": 457}, {"note": 0, "velocity": 0, "duration": 503}, {"note": 69, "velocity": 122, "duration": 101}, {"note": 0, "velocity": 0, "duration": 139}, {"note": 69, "velocity": 107, "duration": 56}, {"note": 0, "velocity": 0, "duration": 64}, {"note": 69, "velocity": 85, "duration": 53}, {"note": 0, "velocity": 0, "duration": 67}, {"note": 69, "velocity": 112, "duration": 106}, {"note": 0, "velocity": 0, "duration": 134}, {"note": 72, "velocity": 122, "duration": 100}, {"note": 0, "velocity": 0, "duration": 140}, {"note": 69, "velocity": 102, "duration": 398}, {"note": 0, "velocity": 0, "duration": 82}, {"note": 67, "velocity": 127, "duration": 176}, {"note": 0, "velocity": 0, "duration": 64}, {"note": 69, "velocity": 100, "duration": 165}, {"note": 0, "velocity": 0, "duration": 75}, {"note": 67, "velocity": 127, "duration": 184}, {"note": 67, "velocity": 117, "duration": 154}, {"note": 0, "velocity": 0, "duration": 86}, {"note": 67, "velocity": 112, "duration": 123}, {"note": 0, "velocity": 0, "duration": 117}, {"note": 67, "velocity": 112, "duration": 132}, {"note": 0, "velocity": 0, "duration": 108}, {"note": 67, "velocity": 112, "duration": 98}, {"note": 0, "velocity": 0, "duration": 142}, {"note": 69, "velocity": 97, "duration": 119}, {"note": 67, "velocity": 75, "duration": 111}, {"note": 65, "velocity": 89, "duration": 304}, {"note": 0, "velocity": 0, "duration": 176}, {"note": 62, "velocity": 107, "duration": 146}, {"note": 0, "velocity": 0, "duration": 94}, {"note": 62, "velocity": 97, "duration": 132}, {"note": 0, "velocity": 0, "duration": 108}, {"note": 62, "velocity": 112, "duration": 150}, {"note": 0, "velocity": 0, "duration": 90}, {"note": 65, "velocity": 107, "duration": 147}, {"note": 0, "velocity": 0, "duration": 93}, {"note": 65, "velocity": 107, "duration": 216}, {"note": 0, "velocity": 0, "duration": 264}, {"note": 62, "velocity": 122, "duration": 232}, {"note": 60, "velocity": 107, "duration": 81}, {"note": 0, "velocity": 0, "duration": 159}, {"note": 65, "velocity": 112, "duration": 174}, {"note": 0, "velocity": 0, "duration": 66}, {"note": 67, "velocity": 102, "duration": 147}, {"note": 0, "velocity": 0, "duration": 93}, {"note": 69, "velocity": 117, "duration": 416}, {"note": 0, "velocity": 0, "duration": 64}, {"note": 67, "velocity": 112, "duration": 625}, {"note": 0, "velocity": 0, "duration": 335}, {"note": 69, "velocity": 107, "duration": 145}, {"note": 0, "velocity": 0, "duration": 95}, {"note": 69, "velocity": 102, "duration": 131}, {"note": 0, "velocity": 0, "duration": 109}, {"note": 69, "velocity": 107, "duration": 127}, {"note": 0, "velocity": 0, "duration": 113}, {"note": 72, "velocity": 117, "duration": 159}, {"note": 0, "velocity": 0, "duration": 81}, {"note": 74, "velocity": 127, "duration": 210}, {"note": 0, "velocity": 0, "duration": 270}, {"note": 72, "velocity": 127, "duration": 171}, {"note": 0, "velocity": 0, "duration": 69}, {"note": 69, "velocity": 112, "duration": 164}, {"note": 0, "velocity": 0, "duration": 76}, {"note": 67, "velocity": 107, "duration": 141}, {"note": 0, "velocity": 0, "duration": 99}, {"note": 67, "velocity": 102, "duration": 68}, {"note": 0, "velocity": 0, "duration": 172}, {"note": 67, "velocity": 100, "duration": 120}, {"note": 0, "velocity": 0, "duration": 120}, {"note": 69, "velocity": 127, "duration": 51}, {"note": 0, "velocity": 0, "duration": 69}, {"note": 69, "velocity": 96, "duration": 63}, {"note": 67, "velocity": 117, "duration": 201}, {"note": 69, "velocity": 102, "duration": 121}, {"note": 67, "velocity": 83, "duration": 106}, {"note": 65, "velocity": 97, "duration": 284}, {"note": 0, "velocity": 0, "duration": 196}, {"note": 62, "velocity": 117, "duration": 144}, {"note": 0, "velocity": 0, "duration": 96}, {"note": 62, "velocity": 102, "duration": 161}, {"note": 0, "velocity": 0, "duration": 79}, {"note": 65, "velocity": 117, "duration": 172}, {"note": 0, "velocity": 0, "duration": 68}, {"note": 67, "velocity": 99, "duration": 139}, {"note": 0, "velocity": 0, "duration": 101}, {"note": 69, "velocity": 117, "duration": 267}, {"note": 0, "velocity": 0, "duration": 213}, {"note": 67, "velocity": 107, "duration": 238}, {"note": 69, "velocity": 122, "duration": 149}, {"note": 0, "velocity": 0, "duration": 91}, {"note": 65, "velocity": 112, "duration": 135}, {"note": 0, "velocity": 0, "duration": 105}, {"note": 62, "velocity": 99, "duration": 110}, {"note": 0, "velocity": 0, "duration": 130}, {"note": 60, "velocity": 100, "duration": 245}, {"note": 62, "velocity": 100, "duration": 116}, {"note": 0, "velocity": 0, "duration": 124}, {"note": 62, "velocity": 122, "duration": 457}, {"note": 0, "velocity": 0, "duration": 17783}, {"note": 62, "velocity": 97, "duration": 170}, {"note": 0, "velocity": 0, "duration": 70}, {"note": 62, "velocity": 93, "duration": 144}, {"note": 0, "velocity": 0, "duration": 96}, {"note": 62, "velocity": 95, "duration": 164}, {"note": 0, "velocity": 0, "duration": 76}, {"note": 62, "velocity": 95, "duration": 148}, {"note": 0, "velocity": 0, "duration": 92}, {"note": 62, "velocity": 100, "duration": 153}, {"note": 0, "velocity": 0, "duration": 87}, {"note": 65, "velocity": 92, "duration": 180}, {"note": 67, "velocity": 95, "duration": 171}, {"note": 0, "velocity": 0, "duration": 69}, {"note": 65, "velocity": 93, "duration": 161}, {"note": 0, "velocity": 0, "duration": 79}, {"note": 62, "velocity": 99, "duration": 774}, {"note": 0, "velocity": 0, "duration": 186}, {"note": 60, "velocity": 95, "duration": 588}, {"note": 57, "velocity": 88, "duration": 454}, {"note": 62, "velocity": 99, "duration": 153}, {"note": 0, "velocity": 0, "duration": 87}, {"note": 62, "velocity": 86, "duration": 135}, {"note": 0, "velocity": 0, "duration": 105}, {"note": 62, "velocity": 95, "duration": 127}, {"note": 0, "velocity": 0, "duration": 113}, {"note": 62, "velocity": 97, "duration": 157}, {"note": 0, "velocity": 0, "duration": 83}, {"note": 65, "velocity": 100, "duration": 142}, {"note": 0, "velocity": 0, "duration": 98}, {"note": 67, "velocity": 99, "duration": 165}, {"note": 0, "velocity": 0, "duration": 75}, {"note": 69, "velocity": 127, "duration": 271}, {"note": 67, "velocity": 117, "duration": 157}, {"note": 0, "velocity": 0, "duration": 83}, {"note": 67, "velocity": 100, "duration": 699}, {"note": 0, "velocity": 0, "duration": 1221}, {"note": 62, "velocity": 107, "duration": 141}, {"note": 0, "velocity": 0, "duration": 99}, {"note": 62, "velocity": 99, "duration": 126}, {"note": 0, "velocity": 0, "duration": 114}, {"note": 62, "velocity": 100, "duration": 122}, {"note": 0, "velocity": 0, "duration": 118}, {"note": 62, "velocity": 99, "duration": 130}, {"note": 0, "velocity": 0, "duration": 110}, {"note": 65, "velocity": 102, "duration": 145}, {"note": 0, "velocity": 0, "duration": 95}, {"note": 67, "velocity": 102, "duration": 170}, {"note": 0, "velocity": 0, "duration": 70}, {"note": 69, "velocity": 122, "duration": 175}, {"note": 0, "velocity": 0, "duration": 65}, {"note": 67, "velocity": 99, "duration": 51}, {"note": 0, "velocity": 0, "duration": 189}, {"note": 67, "velocity": 117, "duration": 494}, {"note": 0, "velocity": 0, "duration": 226}, {"note": 69, "velocity": 102, "duration": 64}, {"note": 0, "velocity": 0, "duration": 176}, {"note": 67, "velocity": 96, "duration": 486}, {"note": 65, "velocity": 77, "duration": 327}, {"note": 0, "velocity": 0, "duration": 153}, {"note": 62, "velocity": 100, "duration": 154}, {"note": 0, "velocity": 0, "duration": 86}, {"note": 62, "velocity": 97, "duration": 155}, {"note": 0, "velocity": 0, "duration": 85}, {"note": 62, "velocity": 96, "duration": 139}, {"note": 0, "velocity": 0, "duration": 101}, {"note": 62, "velocity": 99, "duration": 146}, {"note": 0, "velocity": 0, "duration": 94}, {"note": 60, "velocity": 99, "duration": 172}, {"note": 0, "velocity": 0, "duration": 68}, {"note": 62, "velocity": 97, "duration": 172}, {"note": 0, "velocity": 0, "duration": 68}, {"note": 60, "velocity": 96, "duration": 107}, {"note": 0, "velocity": 0, "duration": 133}, {"note": 55, "velocity": 83, "duration": 188}, {"note": 57, "velocity": 93, "duration": 724}, {"note": 0, "velocity": 0, "duration": 1196}, {"note": 62, "velocity": 97, "duration": 170}, {"note": 0, "velocity": 0, "duration": 70}, {"note": 62, "velocity": 93, "duration": 144}, {"note": 0, "velocity": 0, "duration": 96}, {"note": 62, "velocity": 95, "duration": 164}, {"note": 0, "velocity": 0, "duration": 76}, {"note": 62, "velocity": 95, "duration": 148}, {"note": 0, "velocity": 0, "duration": 92}, {"note": 62, "velocity": 100, "duration": 153}, {"note": 0, "velocity": 0, "duration": 87}, {"note": 65, "velocity": 92, "duration": 180}, {"note": 67, "velocity": 95, "duration": 171}, {"note": 0, "velocity": 0, "duration": 69}, {"note": 65, "velocity": 93, "duration": 161}, {"note": 0, "velocity": 0, "duration": 79}, {"note": 62, "velocity": 99, "duration": 774}, {"note": 0, "velocity": 0, "duration": 186}, {"note": 60, "velocity": 95, "duration": 588}, {"note": 57, "velocity": 88, "duration": 454}, {"note": 62, "velocity": 99, "duration": 153}, {"note": 0, "velocity": 0, "duration": 87}, {"note": 62, "velocity": 97, "duration": 52}, {"note": 0, "velocity": 0, "duration": 68}, {"note": 62, "velocity": 96, "duration": 46}, {"note": 0, "velocity": 0, "duration": 74}, {"note": 62, "velocity": 95, "duration": 127}, {"note": 0, "velocity": 0, "duration": 113}, {"note": 62, "velocity": 97, "duration": 157}, {"note": 0, "velocity": 0, "duration": 83}, {"note": 65, "velocity": 100, "duration": 142}, {"note": 0, "velocity": 0, "duration": 98}, {"note": 67, "velocity": 99, "duration": 165}, {"note": 0, "velocity": 0, "duration": 75}, {"note": 69, "velocity": 127, "duration": 271}, {"note": 67, "velocity": 117, "duration": 157}, {"note": 0, "velocity": 0, "duration": 83}, {"note": 67, "velocity": 100, "duration": 699}, {"note": 0, "velocity": 0, "duration": 1221}, {"note": 62, "velocity": 107, "duration": 141}, {"note": 0, "velocity": 0, "duration": 99}, {"note": 62, "velocity": 99, "duration": 126}, {"note": 0, "velocity": 0, "duration": 114}, {"note": 62, "velocity": 100, "duration": 122}, {"note": 0, "velocity": 0, "duration": 118}, {"note": 62, "velocity": 99, "duration": 130}, {"note": 0, "velocity": 0, "duration": 110}, {"note": 65, "velocity": 102, "duration": 145}, {"note": 0, "velocity": 0, "duration": 95}, {"note": 67, "velocity": 102, "duration": 170}, {"note": 0, "velocity": 0, "duration": 70}, {"note": 69, "velocity": 122, "duration": 175}, {"note": 0, "velocity": 0, "duration": 65}, {"note": 67, "velocity": 97, "duration": 49}, {"note": 0, "velocity": 0, "duration": 71}, {"note": 67, "velocity": 99, "duration": 62}, {"note": 67, "velocity": 117, "duration": 494}, {"note": 0, "velocity": 0, "duration": 226}, {"note": 69, "velocity": 102, "duration": 64}, {"note": 0, "velocity": 0, "duration": 176}, {"note": 67, "velocity": 96, "duration": 486}, {"note": 65, "velocity": 77, "duration": 327}, {"note": 0, "velocity": 0, "duration": 153}, {"note": 57, "velocity": 99, "duration": 98}, {"note": 0, "velocity": 0, "duration": 142}, {"note": 57, "velocity": 97, "duration": 49}, {"note": 0, "velocity": 0, "duration": 71}, {"note": 57, "velocity": 93, "duration": 52}, {"note": 0, "velocity": 0, "duration": 68}, {"note": 57, "velocity": 107, "duration": 109}, {"note": 0, "velocity": 0, "duration": 131}, {"note": 57, "velocity": 107, "duration": 171}, {"note": 0, "velocity": 0, "duration": 69}, {"note": 65, "velocity": 107, "duration": 141}, {"note": 0, "velocity": 0, "duration": 99}, {"note": 62, "velocity": 107, "duration": 135}, {"note": 0, "velocity": 0, "duration": 105}, {"note": 60, "velocity": 100, "duration": 173}, {"note": 0, "velocity": 0, "duration": 67}, {"note": 62, "velocity": 99, "duration": 129}, {"note": 0, "velocity": 0, "duration": 111}, {"note": 62, "velocity": 122, "duration": 739}, {"note": 0, "velocity": 0, "duration": 1181}, {"note": 69, "velocity": 122, "duration": 101}, {"note": 0, "velocity": 0, "duration": 139}, {"note": 69, "velocity": 107, "duration": 56}, {"note": 0, "velocity": 0, "duration": 64}, {"note": 69, "velocity": 85, "duration": 53}, {"note": 0, "velocity": 0, "duration": 67}, {"note": 69, "velocity": 112, "duration": 106}, {"note": 0, "velocity": 0, "duration": 134}, {"note": 72, "velocity": 122, "duration": 100}, {"note": 0, "velocity": 0, "duration": 140}, {"note": 69, "velocity": 102, "duration": 398}, {"note": 0, "velocity": 0, "duration": 82}, {"note": 67, "velocity": 127, "duration": 176}, {"note": 0, "velocity": 0, "duration": 64}, {"note": 69, "velocity": 100, "duration": 165}, {"note": 0, "velocity": 0, "duration": 75}, {"note": 67, "velocity": 127, "duration": 184}, {"note": 67, "velocity": 117, "duration": 154}, {"note": 0, "velocity": 0, "duration": 86}, {"note": 67, "velocity": 112, "duration": 123}, {"note": 0, "velocity": 0, "duration": 117}, {"note": 67, "velocity": 112, "duration": 132}, {"note": 0, "velocity": 0, "duration": 108}, {"note": 67, "velocity": 112, "duration": 98}, {"note": 0, "velocity": 0, "duration": 142}, {"note": 69, "velocity": 97, "duration": 119}, {"note": 67, "velocity": 75, "duration": 111}, {"note": 65, "velocity": 89, "duration": 304}, {"note": 0, "velocity": 0, "duration": 176}, {"note": 62, "velocity": 107, "duration": 146}, {"note": 0, "velocity": 0, "duration": 94}, {"note": 62, "velocity": 97, "duration": 132}, {"note": 0, "velocity": 0, "duration": 108}, {"note": 62, "velocity": 112, "duration": 150}, {"note": 0, "velocity": 0, "duration": 90}, {"note": 65, "velocity": 107, "duration": 147}, {"note": 0, "velocity": 0, "duration": 93}, {"note": 65, "velocity": 107, "duration": 216}, {"note": 0, "velocity": 0, "duration": 264}, {"note": 62, "velocity": 122, "duration": 232}, {"note": 60, "velocity": 107, "duration": 81}, {"note": 0, "velocity": 0, "duration": 159}, {"note": 65, "velocity": 112, "duration": 174}, {"note": 0, "velocity": 0, "duration": 66}, {"note": 67, "velocity": 102, "duration": 147}, {"note": 0, "velocity": 0, "duration": 93}, {"note": 69, "velocity": 117, "duration": 416}, {"note": 0, "velocity": 0, "duration": 64}, {"note": 67, "velocity": 112, "duration": 625}, {"note": 0, "velocity": 0, "duration": 335}, {"note": 69, "velocity": 107, "duration": 145}, {"note": 0, "velocity": 0, "duration": 95}, {"note": 69, "velocity": 102, "duration": 131}, {"note": 0, "velocity": 0, "duration": 109}, {"note": 69, "velocity": 107, "duration": 127}, {"note": 0, "velocity": 0, "duration": 113}, {"note": 72, "velocity": 117, "duration": 159}, {"note": 0, "velocity": 0, "duration": 81}, {"note": 74, "velocity": 127, "duration": 210}, {"note": 0, "velocity": 0, "duration": 270}, {"note": 72, "velocity": 127, "duration": 171}, {"note": 0, "velocity": 0, "duration": 69}, {"note": 69, "velocity": 112, "duration": 164}, {"note": 0, "velocity": 0, "duration": 76}, {"note": 67, "velocity": 107, "duration": 141}, {"note": 0, "velocity": 0, "duration": 99}, {"note": 67, "velocity": 102, "duration": 68}, {"note": 0, "velocity": 0, "duration": 172}, {"note": 67, "velocity": 100, "duration": 120}, {"note": 0, "velocity": 0, "duration": 120}, {"note": 69, "velocity": 127, "duration": 51}, {"note": 0, "velocity": 0, "duration": 69}, {"note": 69, "velocity": 96, "duration": 63}, {"note": 67, "velocity": 117, "duration": 201}, {"note": 69, "velocity": 102, "duration": 121}, {"note": 67, "velocity": 83, "duration": 106}, {"note": 65, "velocity": 97, "duration": 284}, {"note": 0, "velocity": 0, "duration": 196}, {"note": 62, "velocity": 117, "duration": 144}, {"note": 0, "velocity": 0, "duration": 96}, {"note": 62, "velocity": 102, "duration": 161}, {"note": 0, "velocity": 0, "duration": 79}, {"note": 65, "velocity": 117, "duration": 172}, {"note": 0, "velocity": 0, "duration": 68}, {"note": 67, "velocity": 99, "duration": 139}, {"note": 0, "velocity": 0, "duration": 101}, {"note": 69, "velocity": 117, "duration": 267}, {"note": 0, "velocity": 0, "duration": 213}, {"note": 67, "velocity": 107, "duration": 238}, {"note": 69, "velocity": 122, "duration": 149}, {"note": 0, "velocity": 0, "duration": 91}, {"note": 65, "velocity": 112, "duration": 135}, {"note": 0, "velocity": 0, "duration": 105}, {"note": 62, "velocity": 99, "duration": 110}, {"note": 0, "velocity": 0, "duration": 130}, {"note": 60, "velocity": 100, "duration": 245}, {"note": 62, "velocity": 100, "duration": 116}, {"note": 0, "velocity": 0, "duration": 124}, {"note": 62, "velocity": 122, "duration": 457}, {"note": 0, "velocity": 0, "duration": 503}, {"note": 69, "velocity": 122, "duration": 101}, {"note": 0, "velocity": 0, "duration": 139}, {"note": 69, "velocity": 107, "duration": 56}, {"note": 0, "velocity": 0, "duration": 64}, {"note": 69, "velocity": 85, "duration": 53}, {"note": 0, "velocity": 0, "duration": 67}, {"note": 69, "velocity": 112, "duration": 106}, {"note": 0, "velocity": 0, "duration": 134}, {"note": 72, "velocity": 122, "duration": 100}, {"note": 0, "velocity": 0, "duration": 140}, {"note": 69, "velocity": 102, "duration": 398}, {"note": 0, "velocity": 0, "duration": 82}, {"note": 67, "velocity": 127, "duration": 176}, {"note": 0, "velocity": 0, "duration": 64}, {"note": 69, "velocity": 100, "duration": 165}, {"note": 0, "velocity": 0, "duration": 75}, {"note": 67, "velocity": 127, "duration": 184}, {"note": 67, "velocity": 117, "duration": 154}, {"note": 0, "velocity": 0, "duration": 86}, {"note": 67, "velocity": 112, "duration": 123}, {"note": 0, "velocity": 0, "duration": 117}, {"note": 67, "velocity": 112, "duration": 132}, {"note": 0, "velocity": 0, "duration": 108}, {"note": 67, "velocity": 112, "duration": 98}, {"note": 0, "velocity": 0, "duration": 142}, {"note": 69, "velocity": 97, "duration": 119}, {"note": 67, "velocity": 75, "duration": 111}, {"note": 65, "velocity": 89, "duration": 304}, {"note": 0, "velocity": 0, "duration": 176}, {"note": 62, "velocity": 107, "duration": 146}, {"note": 0, "velocity": 0, "duration": 94}, {"note": 62, "velocity": 97, "duration": 132}, {"note": 0, "velocity": 0, "duration": 108}, {"note": 62, "velocity": 112, "duration": 150}, {"note": 0, "velocity": 0, "duration": 90}, {"note": 65, "velocity": 107, "duration": 147}, {"note": 0, "velocity": 0, "duration": 93}, {"note": 65, "velocity": 107, "duration": 216}, {"note": 0, "velocity": 0, "duration": 264}, {"note": 62, "velocity": 122, "duration": 232}, {"note": 60, "velocity": 107, "duration": 81}, {"note": 0, "velocity": 0, "duration": 159}, {"note": 65, "velocity": 112, "duration": 174}, {"note": 0, "velocity": 0, "duration": 66}, {"note": 67, "velocity": 102, "duration": 147}, {"note": 0, "velocity": 0, "duration": 93}, {"note": 69, "velocity": 117, "duration": 416}, {"note": 0, "velocity": 0, "duration": 64}, {"note": 67, "velocity": 112, "duration": 625}, {"note": 0, "velocity": 0, "duration": 335}, {"note": 69, "velocity": 107, "duration": 145}, {"note": 0, "velocity": 0, "duration": 95}, {"note": 69, "velocity": 102, "duration": 131}, {"note": 0, "velocity": 0, "duration": 109}, {"note": 69, "velocity": 107, "duration": 127}, {"note": 0, "velocity": 0, "duration": 113}, {"note": 72, "velocity": 117, "duration": 159}, {"note": 0, "velocity": 0, "duration": 81}, {"note": 74, "velocity": 127, "duration": 210}, {"note": 0, "velocity": 0, "duration": 270}, {"note": 72, "velocity": 127, "duration": 171}, {"note": 0, "velocity": 0, "duration": 69}, {"note": 69, "velocity": 112, "duration": 164}, {"note": 0, "velocity": 0, "duration": 76}, {"note": 67, "velocity": 107, "duration": 141}, {"note": 0, "velocity": 0, "duration": 99}, {"note": 67, "velocity": 102, "duration": 68}, {"note": 0, "velocity": 0, "duration": 172}, {"note": 67, "velocity": 100, "duration": 120}, {"note": 0, "velocity": 0, "duration": 120}, {"note": 69, "velocity": 127, "duration": 51}, {"note": 0, "velocity": 0, "duration": 69}, {"note": 69, "velocity": 96, "duration": 63}, {"note": 67, "velocity": 117, "duration": 201}, {"note": 69, "velocity": 102, "duration": 121}, {"note": 67, "velocity": 83, "duration": 106}, {"note": 65, "velocity": 97, "duration": 284}, {"note": 0, "velocity": 0, "duration": 196}, {"note": 62, "velocity": 117, "duration": 144}, {"note": 0, "velocity": 0, "duration": 96}, {"note": 62, "velocity": 102, "duration": 161}, {"note": 0, "velocity": 0, "duration": 79}, {"note": 65, "velocity": 117, "duration": 172}, {"note": 0, "velocity": 0, "duration": 68}, {"note": 67, "velocity": 99, "duration": 139}, {"note": 0, "velocity": 0, "duration": 101}, {"note": 69, "velocity": 117, "duration": 267}, {"note": 0, "velocity": 0, "duration": 213}, {"note": 67, "velocity": 107, "duration": 238}, {"note": 69, "velocity": 122, "duration": 149}, {"note": 0, "velocity": 0, "duration": 91}, {"note": 65, "velocity": 112, "duration": 135}, {"note": 0, "velocity": 0, "duration": 105}, {"note": 62, "velocity": 99, "duration": 110}, {"note": 0, "velocity": 0, "duration": 130}, {"note": 60, "velocity": 100, "duration": 245}, {"note": 62, "velocity": 100, "duration": 116}, {"note": 0, "velocity": 0, "duration": 124}, {"note": 62, "velocity": 122, "duration": 457}]]