[[{"note": 55, "velocity": 96, "duration": 274}, {"note": 58, "velocity": 97, "duration": 252}, {"note": 62, "velocity": 95, "duration": 186}, {"note": 62, "velocity": 95, "duration": 217}, {"note": 60, "velocity": 71, "duration": 65}, {"note": 60, "velocity": 99, "duration": 183}, {"note": 0, "velocity": 0, "duration": 177}, {"note": 58, "velocity": 97, "duration": 108}, {"note": 57, "velocity": 73, "duration": 133}, {"note": 58, "velocity": 79, "duration": 194}, {"note": 57, "velocity": 93, "duration": 104}, {"note": 58, "velocity": 107, "duration": 164}, {"note": 0, "velocity": 0, "duration": 76}, {"note": 60, "velocity": 102, "duration": 140}, {"note": 0, "velocity": 0, "duration": 100}, {"note": 55, "velocity": 99, "duration": 610}, {"note": 0, "velocity": 0, "duration": 710}, {"note": 55, "velocity": 93, "duration": 158}, {"note": 0, "velocity": 0, "duration": 82}, {"note": 58, "velocity": 93, "duration": 173}, {"note": 0, "velocity": 0, "duration": 67}, {"note": 62, "velocity": 96, "duration": 165}, {"note": 0, "velocity": 0, "duration": 75}, {"note": 62, "velocity": 97, "duration": 207}, {"note": 60, "velocity": 92, "duration": 73}, {"note": 60, "velocity": 95, "duration": 196}, {"note": 0, "velocity": 0, "duration": 164}, {"note": 57, "velocity": 97, "duration": 142}, {"note": 0, "velocity": 0, "duration": 98}, {"note": 58, "velocity": 112, "duration": 231}, {"note": 0, "velocity": 0, "duration": 1929}, {"note": 55, "velocity": 97, "duration": 181}, {"note": 58, "velocity": 122, "duration": 165}, {"note": 0, "velocity": 0, "duration": 75}, {"note": 62, "velocity": 102, "duration": 148}, {"note": 0, "velocity": 0, "duration": 92}, {"note": 62, "velocity": 112, "duration": 207}, {"note": 60, "velocity": 102, "duration": 57}, {"note": 0, "velocity": 0, "duration": 63}, {"note": 60, "velocity": 96, "duration": 132}, {"note": 0, "velocity": 0, "duration": 228}, {"note": 58, "velocity": 97, "duration": 73}, {"note": 57, "velocity": 88, "duration": 112}, {"note": 58, "velocity": 102, "duration": 263}, {"note": 57, "velocity": 89, "duration": 75}, {"note": 58, "velocity": 107, "duration": 145}, {"note": 0, "velocity": 0, "duration": 95}, {"note": 60, "velocity": 97, "duration": 147}, {"note": 0, "velocity": 0, "duration": 93}, {"note": 55, "velocity": 93, "duration": 412}, {"note": 0, "velocity": 0, "duration": 188}, {"note": 55, "velocity": 100, "duration": 144}, {"note": 0, "velocity": 0, "duration": 96}, {"note": 62, "velocity": 107, "duration": 158}, {"note": 0, "velocity": 0, "duration": 322}, {"note": 60, "velocity": 96, "duration": 515}, {"note": 0, "velocity": 0, "duration": 445}, {"note": 58, "velocity": 117, "duration": 146}, {"note": 0, "velocity": 0, "duration": 94}, {"note": 55, "velocity": 93, "duration": 152}, {"note": 0, "velocity": 0, "duration": 88}, {"note": 58, "velocity": 107, "duration": 175}, {"note": 0, "velocity": 0, "duration": 65}, {"note": 57, "velocity": 102, "duration": 531}, {"note": 0, "velocity": 0, "duration": 1629}, {"note": 55, "velocity": 96, "duration": 274}, {"note": 58, "velocity": 97, "duration": 252}, {"note": 62, "velocity": 95, "duration": 186}, {"note": 62, "velocity": 95, "duration": 217}, {"note": 60, "velocity": 71, "duration": 65}, {"note": 60, "velocity": 99, "duration": 183}, {"note": 0, "velocity": 0, "duration": 177}, {"note": 58, "velocity": 97, "duration": 108}, {"note": 57, "velocity": 73, "duration": 133}, {"note": 58, "velocity": 79, "duration": 194}, {"note": 57, "velocity": 93, "duration": 104}, {"note": 58, "velocity": 107, "duration": 164}, {"note": 0, "velocity": 0, "duration": 76}, {"note": 60, "velocity": 102, "duration": 140}, {"note": 0, "velocity": 0, "duration": 100}, {"note": 55, "velocity": 99, "duration": 610}, {"note": 0, "velocity": 0, "duration": 710}, {"note": 55, "velocity": 93, "duration": 158}, {"note": 0, "velocity": 0, "duration": 82}, {"note": 58, "velocity": 93, "duration": 173}, {"note": 0, "velocity": 0, "duration": 67}, {"note": 62, "velocity": 96, "duration": 165}, {"note": 0, "velocity": 0, "duration": 75}, {"note": 62, "velocity": 97, "duration": 207}, {"note": 60, "velocity": 92, "duration": 73}, {"note": 60, "velocity": 95, "duration": 196}, {"note": 0, "velocity": 0, "duration": 164}, {"note": 57, "velocity": 97, "duration": 142}, {"note": 0, "velocity": 0, "duration": 98}, {"note": 58, "velocity": 112, "duration": 231}, {"note": 0, "velocity": 0, "duration": 1929}, {"note": 55, "velocity": 97, "duration": 181}, {"note": 58, "velocity": 122, "duration": 165}, {"note": 0, "velocity": 0, "duration": 75}, {"note": 62, "velocity": 102, "duration": 148}, {"note": 0, "velocity": 0, "duration": 92}, {"note": 62, "velocity": 112, "duration": 207}, {"note": 60, "velocity": 102, "duration": 57}, {"note": 0, "velocity": 0, "duration": 63}, {"note": 60, "velocity": 96, "duration": 132}, {"note": 0, "velocity": 0, "duration": 228}, {"note": 58, "velocity": 97, "duration": 73}, {"note": 57, "velocity": 88, "duration": 112}, {"note": 58, "velocity": 102, "duration": 263}, {"note": 57, "velocity": 89, "duration": 75}, {"note": 58, "velocity": 107, "duration": 145}, {"note": 0, "velocity": 0, "duration": 95}, {"note": 60, "velocity": 97, "duration": 147}, {"note": 0, "velocity": 0, "duration": 93}, {"note": 55, "velocity": 93, "duration": 412}, {"note": 0, "velocity": 0, "duration": 188}, {"note": 55, "velocity": 100, "duration": 144}, {"note": 0, "velocity": 0, "duration": 96}, {"note": 62, "velocity": 107, "duration": 158}, {"note": 0, "velocity": 0, "duration": 322}, {"note": 58, "velocity": 99, "duration": 154}, {"note": 0, "velocity": 0, "duration": 86}, {"note": 55, "velocity": 88, "duration": 183}, {"note": 57, "velocity": 117, "duration": 448}, {"note": 55, "velocity": 81, "duration": 137}, {"note": 0, "velocity": 0, "duration": 103}, {"note": 54, "velocity": 90, "duration": 157}, {"note": 0, "velocity": 0, "duration": 83}, {"note": 57, "velocity": 93, "duration": 369}, {"note": 55, "velocity": 93, "duration": 806}, {"note": 0, "velocity": 0, "duration": 394}, {"note": 55, "velocity": 99, "duration": 160}, {"note": 0, "velocity": 0, "duration": 80}, {"note": 67, "velocity": 117, "duration": 153}, {"note": 0, "velocity": 0, "duration": 87}, {"note": 62, "velocity": 112, "duration": 136}, {"note": 0, "velocity": 0, "duration": 104}, {"note": 62, "velocity": 127, "duration": 216}, {"note": 63, "velocity": 89, "duration": 55}, {"note": 0, "velocity": 0, "duration": 65}, {"note": 63, "velocity": 127, "duration": 273}, {"note": 0, "velocity": 0, "duration": 567}, {"note": 53, "velocity": 112, "duration": 113}, {"note": 0, "velocity": 0, "duration": 127}, {"note": 65, "velocity": 127, "duration": 119}, {"note": 0, "velocity": 0, "duration": 121}, {"note": 60, "velocity": 107, "duration": 123}, {"note": 0, "velocity": 0, "duration": 117}, {"note": 60, "velocity": 117, "duration": 232}, {"note": 62, "velocity": 97, "duration": 56}, {"note": 0, "velocity": 0, "duration": 64}, {"note": 62, "velocity": 112, "duration": 430}, {"note": 0, "velocity": 0, "duration": 410}, {"note": 55, "velocity": 99, "duration": 109}, {"note": 0, "velocity": 0, "duration": 131}, {"note": 67, "velocity": 117, "duration": 171}, {"note": 0, "velocity": 0, "duration": 69}, {"note": 62, "velocity": 117, "duration": 137}, {"note": 0, "velocity": 0, "duration": 103}, {"note": 62, "velocity": 112, "duration": 199}, {"note": 63, "velocity": 122, "duration": 57}, {"note": 0, "velocity": 0, "duration": 63}, {"note": 63, "velocity": 127, "duration": 113}, {"note": 0, "velocity": 0, "duration": 247}, {"note": 67, "velocity": 117, "duration": 68}, {"note": 67, "velocity": 100, "duration": 294}, {"note": 0, "velocity": 0, "duration": 66}, {"note": 67, "velocity": 102, "duration": 113}, {"note": 69, "velocity": 127, "duration": 264}, {"note": 0, "velocity": 0, "duration": 96}, {"note": 62, "velocity": 122, "duration": 172}, {"note": 69, "velocity": 122, "duration": 200}, {"note": 0, "velocity": 0, "duration": 160}, {"note": 70, "velocity": 127, "duration": 73}, {"note": 69, "velocity": 127, "duration": 211}, {"note": 67, "velocity": 122, "duration": 107}, {"note": 0, "velocity": 0, "duration": 133}, {"note": 62, "velocity": 102, "duration": 341}, {"note": 55, "velocity": 107, "duration": 140}, {"note": 0, "velocity": 0, "duration": 100}, {"note": 67, "velocity": 127, "duration": 132}, {"note": 0, "velocity": 0, "duration": 108}, {"note": 62, "velocity": 127, "duration": 137}, {"note": 0, "velocity": 0, "duration": 103}, {"note": 62, "velocity": 127, "duration": 224}, {"note": 63, "velocity": 107, "duration": 54}, {"note": 0, "velocity": 0, "duration": 66}, {"note": 63, "velocity": 127, "duration": 182}, {"note": 0, "velocity": 0, "duration": 658}, {"note": 62, "velocity": 117, "duration": 108}, {"note": 0, "velocity": 0, "duration": 132}, {"note": 74, "velocity": 122, "duration": 119}, {"note": 0, "velocity": 0, "duration": 121}, {"note": 69, "velocity": 112, "duration": 89}, {"note": 0, "velocity": 0, "duration": 151}, {"note": 69, "velocity": 127, "duration": 170}, {"note": 0, "velocity": 0, "duration": 70}, {"note": 70, "velocity": 122, "duration": 51}, {"note": 0, "velocity": 0, "duration": 69}, {"note": 70, "velocity": 127, "duration": 384}, {"note": 69, "velocity": 127, "duration": 115}, {"note": 67, "velocity": 122, "duration": 428}, {"note": 0, "velocity": 0, "duration": 172}, {"note": 67, "velocity": 112, "duration": 155}, {"note": 0, "velocity": 0, "duration": 85}, {"note": 74, "velocity": 127, "duration": 446}, {"note": 72, "velocity": 102, "duration": 117}, {"note": 0, "velocity": 0, "duration": 123}, {"note": 70, "velocity": 127, "duration": 177}, {"note": 0, "velocity": 0, "duration": 63}, {"note": 69, "velocity": 127, "duration": 328}, {"note": 0, "velocity": 0, "duration": 152}, {"note": 67, "velocity": 112, "duration": 135}, {"note": 0, "velocity": 0, "duration": 105}, {"note": 66, "velocity": 122, "duration": 153}, {"note": 0, "velocity": 0, "duration": 87}, {"note": 69, "velocity": 122, "duration": 240}, {"note": 0, "velocity": 0, "duration": 120}, {"note": 70, "velocity": 99, "duration": 87}, {"note": 69, "velocity": 85, "duration": 71}, {"note": 67, "velocity": 97, "duration": 743}, {"note": 0, "velocity": 0, "duration": 16537}, {"note": 55, "velocity": 96, "duration": 274}, {"note": 58, "velocity": 97, "duration": 252}, {"note": 62, "velocity": 95, "duration": 186}, {"note": 62, "velocity": 95, "duration": 217}, {"note": 60, "velocity": 71, "duration": 65}, {"note": 60, "velocity": 99, "duration": 183}, {"note": 0, "velocity": 0, "duration": 177}, {"note": 58, "velocity": 97, "duration": 108}, {"note": 57, "velocity": 73, "duration": 133}, {"note": 58, "velocity": 79, "duration": 194}, {"note": 57, "velocity": 93, "duration": 104}, {"note": 58, "velocity": 107, "duration": 164}, {"note": 0, "velocity": 0, "duration": 76}, {"note": 60, "velocity": 102, "duration": 140}, {"note": 0, "velocity": 0, "duration": 100}, {"note": 55, "velocity": 99, "duration": 610}, {"note": 0, "velocity": 0, "duration": 710}, {"note": 55, "velocity": 93, "duration": 158}, {"note": 0, "velocity": 0, "duration": 82}, {"note": 58, "velocity": 93, "duration": 173}, {"note": 0, "velocity": 0, "duration": 67}, {"note": 62, "velocity": 96, "duration": 165}, {"note": 0, "velocity": 0, "duration": 75}, {"note": 62, "velocity": 97, "duration": 207}, {"note": 60, "velocity": 92, "duration": 73}, {"note": 60, "velocity": 95, "duration": 196}, {"note": 0, "velocity": 0, "duration": 164}, {"note": 57, "velocity": 97, "duration": 142}, {"note": 0, "velocity": 0, "duration": 98}, {"note": 58, "velocity": 112, "duration": 231}, {"note": 0, "velocity": 0, "duration": 1929}, {"note": 55, "velocity": 97, "duration": 181}, {"note": 58, "velocity": 122, "duration": 165}, {"note": 0, "velocity": 0, "duration": 75}, {"note": 62, "velocity": 102, "duration": 148}, {"note": 0, "velocity": 0, "duration": 92}, {"note": 62, "velocity": 112, "duration": 207}, {"note": 60, "velocity": 102, "duration": 57}, {"note": 0, "velocity": 0, "duration": 63}, {"note": 60, "velocity": 96, "duration": 132}, {"note": 0, "velocity": 0, "duration": 228}, {"note": 58, "velocity": 97, "duration": 73}, {"note": 57, "velocity": 88, "duration": 112}, {"note": 58, "velocity": 102, "duration": 263}, {"note": 57, "velocity": 89, "duration": 75}, {"note": 58, "velocity": 107, "duration": 145}, {"note": 0, "velocity": 0, "duration": 95}, {"note": 60, "velocity": 97, "duration": 147}, {"note": 0, "velocity": 0, "duration": 93}, {"note": 55, "velocity": 93, "duration": 412}, {"note": 0, "velocity": 0, "duration": 188}, {"note": 55, "velocity": 100, "duration": 144}, {"note": 0, "velocity": 0, "duration": 96}, {"note": 62, "velocity": 107, "duration": 158}, {"note": 0, "velocity": 0, "duration": 322}, {"note": 60, "velocity": 96, "duration": 515}, {"note": 0, "velocity": 0, "duration": 445}, {"note": 58, "velocity": 117, "duration": 146}, {"note": 0, "velocity": 0, "duration": 94}, {"note": 55, "velocity": 93, "duration": 152}, {"note": 0, "velocity": 0, "duration": 88}, {"note": 58, "velocity": 107, "duration": 175}, {"note": 0, "velocity": 0, "duration": 65}, {"note": 57, "velocity": 102, "duration": 531}, {"note": 0, "velocity": 0, "duration": 1629}, {"note": 55, "velocity": 96, "duration": 274}, {"note": 58, "velocity": 97, "duration": 252}, {"note": 62, "velocity": 95, "duration": 186}, {"note": 62, "velocity": 95, "duration": 217}, {"note": 60, "velocity": 71, "duration": 65}, {"note": 60, "velocity": 99, "duration": 183}, {"note": 0, "velocity": 0, "duration": 177}, {"note": 58, "velocity": 97, "duration": 108}, {"note": 57, "velocity": 73, "duration": 133}, {"note": 58, "velocity": 79, "duration": 194}, {"note": 57, "velocity": 93, "duration": 104}, {"note": 58, "velocity": 107, "duration": 164}, {"note": 0, "velocity": 0, "duration": 76}, {"note": 60, "velocity": 102, "duration": 140}, {"note": 0, "velocity": 0, "duration": 100}, {"note": 55, "velocity": 99, "duration": 610}, {"note": 0, "velocity": 0, "duration": 710}, {"note": 55, "velocity": 93, "duration": 158}, {"note": 0, "velocity": 0, "duration": 82}, {"note": 58, "velocity": 93, "duration": 173}, {"note": 0, "velocity": 0, "duration": 67}, {"note": 62, "velocity": 96, "duration": 165}, {"note": 0, "velocity": 0, "duration": 75}, {"note": 62, "velocity": 97, "duration": 207}, {"note": 60, "velocity": 92, "duration": 73}, {"note": 60, "velocity": 95, "duration": 196}, {"note": 0, "velocity": 0, "duration": 164}, {"note": 57, "velocity": 97, "duration": 142}, {"note": 0, "velocity": 0, "duration": 98}, {"note": 58, "velocity": 112, "duration": 231}, {"note": 0, "velocity": 0, "duration": 1929}, {"note": 55, "velocity": 97, "duration": 181}, {"note": 58, "velocity": 122, "duration": 165}, {"note": 0, "velocity": 0, "duration": 75}, {"note": 62, "velocity": 102, "duration": 148}, {"note": 0, "velocity": 0, "duration": 92}, {"note": 62, "velocity": 112, "duration": 207}, {"note": 60, "velocity": 102, "duration": 57}, {"note": 0, "velocity": 0, "duration": 63}, {"note": 60, "velocity": 96, "duration": 132}, {"note": 0, "velocity": 0, "duration": 228}, {"note": 58, "velocity": 97, "duration": 73}, {"note": 57, "velocity": 88, "duration": 112}, {"note": 58, "velocity": 102, "duration": 263}, {"note": 57, "velocity": 89, "duration": 75}, {"note": 58, "velocity": 107, "duration": 145}, {"note": 0, "velocity": 0, "duration": 95}, {"note": 60, "velocity": 97, "duration": 147}, {"note": 0, "velocity": 0, "duration": 93}, {"note": 55, "velocity": 93, "duration": 412}, {"note": 0, "velocity": 0, "duration": 188}, {"note": 55, "velocity": 100, "duration": 144}, {"note": 0, "velocity": 0, "duration": 96}, {"note": 62, "velocity": 107, "duration": 158}, {"note": 0, "velocity": 0, "duration": 322}, {"note": 58, "velocity": 99, "duration": 154}, {"note": 0, "velocity": 0, "duration": 86}, {"note": 55, "velocity": 88, "duration": 183}, {"note": 57, "velocity": 117, "duration": 448}, {"note": 55, "velocity": 81, "duration": 137}, {"note": 0, "velocity": 0, "duration": 103}, {"note": 54, "velocity": 90, "duration": 157}, {"note": 0, "velocity": 0, "duration": 83}, {"note": 57, "velocity": 93, "duration": 369}, {"note": 55, "velocity": 93, "duration": 806}, {"note": 0, "velocity": 0, "duration": 394}, {"note": 55, "velocity": 99, "duration": 160}, {"note": 0, "velocity": 0, "duration": 80}, {"note": 67, "velocity": 117, "duration": 153}, {"note": 0, "velocity": 0, "duration": 87}, {"note": 62, "velocity": 112, "duration": 136}, {"note": 0, "velocity": 0, "duration": 104}, {"note": 62, "velocity": 127, "duration": 216}, {"note": 63, "velocity": 89, "duration": 55}, {"note": 0, "velocity": 0, "duration": 65}, {"note": 63, "velocity": 127, "duration": 273}, {"note": 0, "velocity": 0, "duration": 567}, {"note": 53, "velocity": 112, "duration": 113}, {"note": 0, "velocity": 0, "duration": 127}, {"note": 65, "velocity": 127, "duration": 119}, {"note": 0, "velocity": 0, "duration": 121}, {"note": 60, "velocity": 107, "duration": 123}, {"note": 0, "velocity": 0, "duration": 117}, {"note": 60, "velocity": 117, "duration": 232}, {"note": 62, "velocity": 97, "duration": 56}, {"note": 0, "velocity": 0, "duration": 64}, {"note": 62, "velocity": 112, "duration": 430}, {"note": 0, "velocity": 0, "duration": 410}, {"note": 55, "velocity": 99, "duration": 109}, {"note": 0, "velocity": 0, "duration": 131}, {"note": 67, "velocity": 117, "duration": 171}, {"note": 0, "velocity": 0, "duration": 69}, {"note": 62, "velocity": 117, "duration": 137}, {"note": 0, "velocity": 0, "duration": 103}, {"note": 62, "velocity": 112, "duration": 199}, {"note": 63, "velocity": 122, "duration": 57}, {"note": 0, "velocity": 0, "duration": 63}, {"note": 63, "velocity": 127, "duration": 113}, {"note": 0, "velocity": 0, "duration": 247}, {"note": 67, "velocity": 117, "duration": 68}, {"note": 67, "velocity": 100, "duration": 294}, {"note": 0, "velocity": 0, "duration": 66}, {"note": 67, "velocity": 102, "duration": 113}, {"note": 69, "velocity": 127, "duration": 264}, {"note": 0, "velocity": 0, "duration": 96}, {"note": 62, "velocity": 122, "duration": 172}, {"note": 69, "velocity": 122, "duration": 200}, {"note": 0, "velocity": 0, "duration": 160}, {"note": 70, "velocity": 127, "duration": 73}, {"note": 69, "velocity": 127, "duration": 211}, {"note": 67, "velocity": 122, "duration": 107}, {"note": 0, "velocity": 0, "duration": 133}, {"note": 62, "velocity": 102, "duration": 341}, {"note": 55, "velocity": 107, "duration": 140}, {"note": 0, "velocity": 0, "duration": 100}, {"note": 67, "velocity": 127, "duration": 132}, {"note": 0, "velocity": 0, "duration": 108}, {"note": 62, "velocity": 127, "duration": 137}, {"note": 0, "velocity": 0, "duration": 103}, {"note": 62, "velocity": 127, "duration": 224}, {"note": 63, "velocity": 107, "duration": 54}, {"note": 0, "velocity": 0, "duration": 66}, {"note": 63, "velocity": 127, "duration": 182}, {"note": 0, "velocity": 0, "duration": 658}, {"note": 62, "velocity": 117, "duration": 108}, {"note": 0, "velocity": 0, "duration": 132}, {"note": 74, "velocity": 122, "duration": 119}, {"note": 0, "velocity": 0, "duration": 121}, {"note": 69, "velocity": 112, "duration": 89}, {"note": 0, "velocity": 0, "duration": 151}, {"note": 69, "velocity": 127, "duration": 170}, {"note": 0, "velocity": 0, "duration": 70}, {"note": 70, "velocity": 122, "duration": 51}, {"note": 0, "velocity": 0, "duration": 69}, {"note": 70, "velocity": 127, "duration": 384}, {"note": 69, "velocity": 127, "duration": 115}, {"note": 67, "velocity": 122, "duration": 428}, {"note": 0, "velocity": 0, "duration": 172}, {"note": 67, "velocity": 112, "duration": 155}, {"note": 0, "velocity": 0, "duration": 85}, {"note": 74, "velocity": 127, "duration": 446}, {"note": 72, "velocity": 102, "duration": 117}, {"note": 0, "velocity": 0, "duration": 123}, {"note": 70, "velocity": 127, "duration": 177}, {"note": 0, "velocity": 0, "duration": 63}, {"note": 69, "velocity": 127, "duration": 328}, {"note": 0, "velocity": 0, "duration": 152}, {"note": 67, "velocity": 112, "duration": 135}, {"note": 0, "velocity": 0, "duration": 105}, {"note": 66, "velocity": 122, "duration": 153}, {"note": 0, "velocity": 0, "duration": 87}, {"note": 69, "velocity": 122, "duration": 240}, {"note": 0, "velocity": 0, "duration": 120}, {"note": 70, "velocity": 99, "duration": 87}, {"note": 69, "velocity": 85, "duration": 71}, {"note": 67, "velocity": 97, "duration": 535}, {"note": 0, "velocity": 0, "duration": 425}, {"note": 55, "velocity": 99, "duration": 160}, {"note": 0, "velocity": 0, "duration": 80}, {"note": 67, "velocity": 117, "duration": 153}, {"note": 0, "velocity": 0, "duration": 87}, {"note": 62, "velocity": 112, "duration": 136}, {"note": 0, "velocity": 0, "duration": 104}, {"note": 62, "velocity": 127, "duration": 216}, {"note": 63, "velocity": 89, "duration": 55}, {"note": 0, "velocity": 0, "duration": 65}, {"note": 63, "velocity": 127, "duration": 273}, {"note": 0, "velocity": 0, "duration": 567}, {"note": 53, "velocity": 112, "duration": 113}, {"note": 0, "velocity": 0, "duration": 127}, {"note": 65, "velocity": 127, "duration": 119}, {"note": 0, "velocity": 0, "duration": 121}, {"note": 60, "velocity": 107, "duration": 123}, {"note": 0, "velocity": 0, "duration": 117}, {"note": 60, "velocity": 117, "duration": 232}, {"note": 62, "velocity": 97, "duration": 56}, {"note": 0, "velocity": 0, "duration": 64}, {"note": 62, "velocity": 112, "duration": 430}, {"note": 0, "velocity": 0, "duration": 410}, {"note": 55, "velocity": 99, "duration": 109}, {"note": 0, "velocity": 0, "duration": 131}, {"note": 67, "velocity": 117, "duration": 171}, {"note": 0, "velocity": 0, "duration": 69}, {"note": 62, "velocity": 117, "duration": 137}, {"note": 0, "velocity": 0, "duration": 103}, {"note": 62, "velocity": 112, "duration": 199}, {"note": 63, "velocity": 122, "duration": 57}, {"note": 0, "velocity": 0, "duration": 63}, {"note": 63, "velocity": 127, "duration": 113}, {"note": 0, "velocity": 0, "duration": 247}, {"note": 67, "velocity": 117, "duration": 68}, {"note": 67, "velocity": 100, "duration": 294}, {"note": 0, "velocity": 0, "duration": 66}, {"note": 67, "velocity": 102, "duration": 113}, {"note": 69, "velocity": 127, "duration": 264}, {"note": 0, "velocity": 0, "duration": 96}, {"note": 62, "velocity": 122, "duration": 172}, {"note": 69, "velocity": 122, "duration": 200}, {"note": 0, "velocity": 0, "duration": 160}, {"note": 70, "velocity": 127, "duration": 73}, {"note": 69, "velocity": 127, "duration": 211}, {"note": 67, "velocity": 122, "duration": 107}, {"note": 0, "velocity": 0, "duration": 133}, {"note": 62, "velocity": 102, "duration": 341}, {"note": 55, "velocity": 107, "duration": 140}, {"note": 0, "velocity": 0, "duration": 100}, {"note": 67, "velocity": 127, "duration": 132}, {"note": 0, "velocity": 0, "duration": 108}, {"note": 62, "velocity": 127, "duration": 137}, {"note": 0, "velocity": 0, "duration": 103}, {"note": 62, "velocity": 127, "duration": 224}, {"note": 63, "velocity": 107, "duration": 54}, {"note": 0, "velocity": 0, "duration": 66}, {"note": 63, "velocity": 127, "duration": 182}, {"note": 0, "velocity": 0, "duration": 658}, {"note": 62, "velocity": 117, "duration": 108}, {"note": 0, "velocity": 0, "duration": 132}, {"note": 74, "velocity": 122, "duration": 119}, {"note": 0, "velocity": 0, "duration": 121}, {"note": 69, "velocity": 112, "duration": 89}, {"note": 0, "velocity": 0, "duration": 151}, {"note": 69, "velocity": 127, "duration": 170}, {"note": 0, "velocity": 0, "duration": 70}, {"note": 70, "velocity": 122, "duration": 51}, {"note": 0, "velocity": 0, "duration": 69}, {"note": 70, "velocity": 127, "duration": 384}, {"note": 69, "velocity": 127, "duration": 115}, {"note": 67, "velocity": 122, "duration": 428}, {"note": 0, "velocity": 0, "duration": 172}, {"note": 67, "velocity": 112, "duration": 155}, {"note": 0, "velocity": 0, "duration": 85}, {"note": 74, "velocity": 127, "duration": 446}, {"note": 72, "velocity": 102, "duration": 117}, {"note": 0, "velocity": 0, "duration": 123}, {"note": 70, "velocity": 127, "duration": 177}, {"note": 0, "velocity": 0, "duration": 63}, {"note": 69, "velocity": 127, "duration": 328}, {"note": 0, "velocity": 0, "duration": 1112}, {"note": 67, "velocity": 97, "duration": 200}, {"note": 66, "velocity": 122, "duration": 318}, {"note": 0, "velocity": 0, "duration": 162}, {"note": 67, "velocity": 127, "duration": 2922}]]