[[{"note": 57, "velocity": 112, "duration": 199}, {"note": 64, "velocity": 96, "duration": 128}, {"note": 0, "velocity": 0, "duration": 112}, {"note": 64, "velocity": 97, "duration": 265}, {"note": 0, "velocity": 0, "duration": 95}, {"note": 64, "velocity": 82, "duration": 77}, {"note": 67, "velocity": 107, "duration": 189}, {"note": 64, "velocity": 97, "duration": 159}, {"note": 0, "velocity": 0, "duration": 81}, {"note": 64, "velocity": 96, "duration": 262}, {"note": 0, "velocity": 0, "duration": 218}, {"note": 69, "velocity": 102, "duration": 201}, {"note": 57, "velocity": 97, "duration": 213}, {"note": 69, "velocity": 107, "duration": 187}, {"note": 67, "velocity": 92, "duration": 108}, {"note": 0, "velocity": 0, "duration": 132}, {"note": 67, "velocity": 112, "duration": 452}, {"note": 64, "velocity": 107, "duration": 242}, {"note": 0, "velocity": 0, "duration": 238}, {"note": 62, "velocity": 100, "duration": 160}, {"note": 0, "velocity": 0, "duration": 80}, {"note": 64, "velocity": 97, "duration": 101}, {"note": 0, "velocity": 0, "duration": 139}, {"note": 67, "velocity": 97, "duration": 233}, {"note": 64, "velocity": 93, "duration": 91}, {"note": 0, "velocity": 0, "duration": 149}, {"note": 62, "velocity": 100, "duration": 451}, {"note": 60, "velocity": 97, "duration": 118}, {"note": 0, "velocity": 0, "duration": 362}, {"note": 62, "velocity": 102, "duration": 176}, {"note": 0, "velocity": 0, "duration": 64}, {"note": 60, "velocity": 89, "duration": 161}, {"note": 0, "velocity": 0, "duration": 79}, {"note": 57, "velocity": 93, "duration": 150}, {"note": 0, "velocity": 0, "duration": 330}, {"note": 57, "velocity": 93, "duration": 69}, {"note": 0, "velocity": 0, "duration": 891}, {"note": 57, "velocity": 112, "duration": 199}, {"note": 64, "velocity": 96, "duration": 128}, {"note": 0, "velocity": 0, "duration": 112}, {"note": 64, "velocity": 97, "duration": 265}, {"note": 0, "velocity": 0, "duration": 95}, {"note": 64, "velocity": 82, "duration": 77}, {"note": 67, "velocity": 107, "duration": 189}, {"note": 64, "velocity": 97, "duration": 159}, {"note": 0, "velocity": 0, "duration": 81}, {"note": 64, "velocity": 96, "duration": 262}, {"note": 0, "velocity": 0, "duration": 218}, {"note": 69, "velocity": 102, "duration": 201}, {"note": 57, "velocity": 97, "duration": 213}, {"note": 69, "velocity": 107, "duration": 187}, {"note": 67, "velocity": 92, "duration": 108}, {"note": 0, "velocity": 0, "duration": 132}, {"note": 67, "velocity": 112, "duration": 452}, {"note": 64, "velocity": 107, "duration": 242}, {"note": 0, "velocity": 0, "duration": 238}, {"note": 62, "velocity": 100, "duration": 160}, {"note": 0, "velocity": 0, "duration": 80}, {"note": 64, "velocity": 97, "duration": 101}, {"note": 0, "velocity": 0, "duration": 139}, {"note": 67, "velocity": 97, "duration": 233}, {"note": 64, "velocity": 93, "duration": 91}, {"note": 0, "velocity": 0, "duration": 149}, {"note": 62, "velocity": 100, "duration": 451}, {"note": 60, "velocity": 97, "duration": 118}, {"note": 0, "velocity": 0, "duration": 362}, {"note": 62, "velocity": 97, "duration": 233}, {"note": 55, "velocity": 88, "duration": 169}, {"note": 0, "velocity": 0, "duration": 71}, {"note": 62, "velocity": 93, "duration": 250}, {"note": 60, "velocity": 79, "duration": 218}, {"note": 57, "velocity": 88, "duration": 497}, {"note": 0, "velocity": 0, "duration": 463}, {"note": 64, "velocity": 107, "duration": 145}, {"note": 0, "velocity": 0, "duration": 95}, {"note": 69, "velocity": 100, "duration": 96}, {"note": 0, "velocity": 0, "duration": 144}, {"note": 69, "velocity": 100, "duration": 219}, {"note": 0, "velocity": 0, "duration": 141}, {"note": 69, "velocity": 99, "duration": 104}, {"note": 67, "velocity": 107, "duration": 93}, {"note": 0, "velocity": 0, "duration": 147}, {"note": 64, "velocity": 90, "duration": 109}, {"note": 0, "velocity": 0, "duration": 131}, {"note": 64, "velocity": 107, "duration": 165}, {"note": 0, "velocity": 0, "duration": 315}, {"note": 69, "velocity": 107, "duration": 156}, {"note": 69, "velocity": 127, "duration": 156}, {"note": 0, "velocity": 0, "duration": 84}, {"note": 72, "velocity": 112, "duration": 76}, {"note": 0, "velocity": 0, "duration": 164}, {"note": 69, "velocity": 117, "duration": 175}, {"note": 0, "velocity": 0, "duration": 65}, {"note": 67, "velocity": 107, "duration": 99}, {"note": 0, "velocity": 0, "duration": 141}, {"note": 67, "velocity": 117, "duration": 206}, {"note": 69, "velocity": 99, "duration": 88}, {"note": 0, "velocity": 0, "duration": 152}, {"note": 64, "velocity": 107, "duration": 153}, {"note": 0, "velocity": 0, "duration": 327}, {"note": 62, "velocity": 100, "duration": 153}, {"note": 0, "velocity": 0, "duration": 87}, {"note": 64, "velocity": 99, "duration": 71}, {"note": 0, "velocity": 0, "duration": 169}, {"note": 67, "velocity": 107, "duration": 214}, {"note": 64, "velocity": 99, "duration": 53}, {"note": 0, "velocity": 0, "duration": 187}, {"note": 62, "velocity": 117, "duration": 455}, {"note": 60, "velocity": 97, "duration": 155}, {"note": 0, "velocity": 0, "duration": 325}, {"note": 62, "velocity": 102, "duration": 135}, {"note": 0, "velocity": 0, "duration": 105}, {"note": 60, "velocity": 96, "duration": 59}, {"note": 0, "velocity": 0, "duration": 181}, {"note": 57, "velocity": 96, "duration": 211}, {"note": 0, "velocity": 0, "duration": 269}, {"note": 57, "velocity": 100, "duration": 173}, {"note": 0, "velocity": 0, "duration": 787}, {"note": 64, "velocity": 102, "duration": 166}, {"note": 0, "velocity": 0, "duration": 74}, {"note": 69, "velocity": 102, "duration": 71}, {"note": 0, "velocity": 0, "duration": 169}, {"note": 69, "velocity": 107, "duration": 218}, {"note": 0, "velocity": 0, "duration": 142}, {"note": 69, "velocity": 93, "duration": 105}, {"note": 67, "velocity": 102, "duration": 114}, {"note": 0, "velocity": 0, "duration": 126}, {"note": 64, "velocity": 99, "duration": 105}, {"note": 0, "velocity": 0, "duration": 135}, {"note": 64, "velocity": 107, "duration": 140}, {"note": 0, "velocity": 0, "duration": 340}, {"note": 69, "velocity": 117, "duration": 175}, {"note": 0, "velocity": 0, "duration": 65}, {"note": 72, "velocity": 127, "duration": 59}, {"note": 0, "velocity": 0, "duration": 181}, {"note": 69, "velocity": 127, "duration": 228}, {"note": 67, "velocity": 107, "duration": 62}, {"note": 0, "velocity": 0, "duration": 178}, {"note": 67, "velocity": 117, "duration": 334}, {"note": 0, "velocity": 0, "duration": 146}, {"note": 64, "velocity": 112, "duration": 146}, {"note": 0, "velocity": 0, "duration": 334}, {"note": 62, "velocity": 107, "duration": 159}, {"note": 0, "velocity": 0, "duration": 81}, {"note": 64, "velocity": 95, "duration": 68}, {"note": 0, "velocity": 0, "duration": 172}, {"note": 67, "velocity": 127, "duration": 213}, {"note": 64, "velocity": 96, "duration": 59}, {"note": 0, "velocity": 0, "duration": 181}, {"note": 62, "velocity": 99, "duration": 209}, {"note": 64, "velocity": 93, "duration": 132}, {"note": 62, "velocity": 99, "duration": 75}, {"note": 60, "velocity": 100, "duration": 209}, {"note": 0, "velocity": 0, "duration": 271}, {"note": 62, "velocity": 112, "duration": 215}, {"note": 60, "velocity": 107, "duration": 68}, {"note": 0, "velocity": 0, "duration": 172}, {"note": 57, "velocity": 96, "duration": 158}, {"note": 0, "velocity": 0, "duration": 322}, {"note": 57, "velocity": 107, "duration": 158}, {"note": 0, "velocity": 0, "duration": 802}, {"note": 64, "velocity": 127, "duration": 1263}, {"note": 0, "velocity": 0, "duration": 177}, {"note": 62, "velocity": 107, "duration": 203}, {"note": 64, "velocity": 100, "duration": 187}, {"note": 69, "velocity": 107, "duration": 1208}, {"note": 0, "velocity": 0, "duration": 232}, {"note": 69, "velocity": 127, "duration": 412}, {"note": 0, "velocity": 0, "duration": 68}, {"note": 67, "velocity": 127, "duration": 1379}, {"note": 0, "velocity": 0, "duration": 301}, {"note": 69, "velocity": 102, "duration": 208}, {"note": 64, "velocity": 88, "duration": 127}, {"note": 69, "velocity": 73, "duration": 92}, {"note": 64, "velocity": 88, "duration": 851}, {"note": 0, "velocity": 0, "duration": 349}, {"note": 64, "velocity": 102, "duration": 456}, {"note": 69, "velocity": 122, "duration": 992}, {"note": 0, "velocity": 0, "duration": 448}, {"note": 67, "velocity": 100, "duration": 229}, {"note": 72, "velocity": 102, "duration": 229}, {"note": 69, "velocity": 112, "duration": 849}, {"note": 0, "velocity": 0, "duration": 591}, {"note": 72, "velocity": 112, "duration": 387}, {"note": 0, "velocity": 0, "duration": 93}, {"note": 74, "velocity": 122, "duration": 818}, {"note": 0, "velocity": 0, "duration": 622}, {"note": 72, "velocity": 122, "duration": 353}, {"note": 0, "velocity": 0, "duration": 127}, {"note": 69, "velocity": 107, "duration": 105}, {"note": 72, "velocity": 96, "duration": 90}, {"note": 69, "velocity": 96, "duration": 1075}, {"note": 0, "velocity": 0, "duration": 605}, {"note": 57, "velocity": 112, "duration": 199}, {"note": 64, "velocity": 96, "duration": 128}, {"note": 0, "velocity": 0, "duration": 112}, {"note": 64, "velocity": 97, "duration": 265}, {"note": 0, "velocity": 0, "duration": 95}, {"note": 64, "velocity": 82, "duration": 77}, {"note": 67, "velocity": 107, "duration": 189}, {"note": 64, "velocity": 97, "duration": 159}, {"note": 0, "velocity": 0, "duration": 81}, {"note": 64, "velocity": 96, "duration": 262}, {"note": 0, "velocity": 0, "duration": 218}, {"note": 69, "velocity": 102, "duration": 201}, {"note": 57, "velocity": 97, "duration": 213}, {"note": 69, "velocity": 107, "duration": 187}, {"note": 67, "velocity": 92, "duration": 108}, {"note": 0, "velocity": 0, "duration": 132}, {"note": 67, "velocity": 112, "duration": 452}, {"note": 64, "velocity": 107, "duration": 242}, {"note": 0, "velocity": 0, "duration": 238}, {"note": 62, "velocity": 100, "duration": 160}, {"note": 0, "velocity": 0, "duration": 80}, {"note": 64, "velocity": 97, "duration": 101}, {"note": 0, "velocity": 0, "duration": 139}, {"note": 67, "velocity": 97, "duration": 233}, {"note": 64, "velocity": 93, "duration": 91}, {"note": 0, "velocity": 0, "duration": 149}, {"note": 62, "velocity": 100, "duration": 451}, {"note": 60, "velocity": 97, "duration": 118}, {"note": 0, "velocity": 0, "duration": 362}, {"note": 62, "velocity": 102, "duration": 176}, {"note": 0, "velocity": 0, "duration": 64}, {"note": 60, "velocity": 89, "duration": 161}, {"note": 0, "velocity": 0, "duration": 79}, {"note": 57, "velocity": 93, "duration": 150}, {"note": 0, "velocity": 0, "duration": 330}, {"note": 57, "velocity": 93, "duration": 69}, {"note": 0, "velocity": 0, "duration": 891}, {"note": 57, "velocity": 112, "duration": 199}, {"note": 64, "velocity": 96, "duration": 128}, {"note": 0, "velocity": 0, "duration": 112}, {"note": 64, "velocity": 97, "duration": 265}, {"note": 0, "velocity": 0, "duration": 95}, {"note": 64, "velocity": 82, "duration": 77}, {"note": 67, "velocity": 107, "duration": 189}, {"note": 64, "velocity": 97, "duration": 159}, {"note": 0, "velocity": 0, "duration": 81}, {"note": 64, "velocity": 96, "duration": 262}, {"note": 0, "velocity": 0, "duration": 218}, {"note": 69, "velocity": 102, "duration": 201}, {"note": 57, "velocity": 97, "duration": 213}, {"note": 69, "velocity": 107, "duration": 187}, {"note": 67, "velocity": 92, "duration": 108}, {"note": 0, "velocity": 0, "duration": 132}, {"note": 67, "velocity": 112, "duration": 452}, {"note": 64, "velocity": 107, "duration": 242}, {"note": 0, "velocity": 0, "duration": 238}, {"note": 62, "velocity": 100, "duration": 160}, {"note": 0, "velocity": 0, "duration": 80}, {"note": 64, "velocity": 97, "duration": 101}, {"note": 0, "velocity": 0, "duration": 139}, {"note": 67, "velocity": 97, "duration": 233}, {"note": 64, "velocity": 93, "duration": 91}, {"note": 0, "velocity": 0, "duration": 149}, {"note": 62, "velocity": 100, "duration": 451}, {"note": 60, "velocity": 97, "duration": 118}, {"note": 0, "velocity": 0, "duration": 362}, {"note": 62, "velocity": 97, "duration": 233}, {"note": 55, "velocity": 88, "duration": 169}, {"note": 0, "velocity": 0, "duration": 71}, {"note": 62, "velocity": 93, "duration": 250}, {"note": 60, "velocity": 79, "duration": 218}, {"note": 57, "velocity": 88, "duration": 497}, {"note": 0, "velocity": 0, "duration": 463}, {"note": 64, "velocity": 107, "duration": 145}, {"note": 0, "velocity": 0, "duration": 95}, {"note": 69, "velocity": 100, "duration": 96}, {"note": 0, "velocity": 0, "duration": 144}, {"note": 69, "velocity": 100, "duration": 219}, {"note": 0, "velocity": 0, "duration": 141}, {"note": 69, "velocity": 99, "duration": 104}, {"note": 67, "velocity": 107, "duration": 93}, {"note": 0, "velocity": 0, "duration": 147}, {"note": 64, "velocity": 90, "duration": 109}, {"note": 0, "velocity": 0, "duration": 131}, {"note": 64, "velocity": 107, "duration": 165}, {"note": 0, "velocity": 0, "duration": 315}, {"note": 69, "velocity": 107, "duration": 156}, {"note": 69, "velocity": 127, "duration": 156}, {"note": 0, "velocity": 0, "duration": 84}, {"note": 72, "velocity": 112, "duration": 76}, {"note": 0, "velocity": 0, "duration": 164}, {"note": 69, "velocity": 117, "duration": 175}, {"note": 0, "velocity": 0, "duration": 65}, {"note": 67, "velocity": 107, "duration": 99}, {"note": 0, "velocity": 0, "duration": 141}, {"note": 67, "velocity": 117, "duration": 206}, {"note": 69, "velocity": 99, "duration": 88}, {"note": 0, "velocity": 0, "duration": 152}, {"note": 64, "velocity": 107, "duration": 153}, {"note": 0, "velocity": 0, "duration": 327}, {"note": 62, "velocity": 100, "duration": 153}, {"note": 0, "velocity": 0, "duration": 87}, {"note": 64, "velocity": 99, "duration": 71}, {"note": 0, "velocity": 0, "duration": 169}, {"note": 67, "velocity": 107, "duration": 214}, {"note": 64, "velocity": 99, "duration": 53}, {"note": 0, "velocity": 0, "duration": 187}, {"note": 62, "velocity": 117, "duration": 455}, {"note": 60, "velocity": 97, "duration": 155}, {"note": 0, "velocity": 0, "duration": 325}, {"note": 62, "velocity": 102, "duration": 135}, {"note": 0, "velocity": 0, "duration": 105}, {"note": 60, "velocity": 96, "duration": 59}, {"note": 0, "velocity": 0, "duration": 181}, {"note": 57, "velocity": 96, "duration": 211}, {"note": 0, "velocity": 0, "duration": 269}, {"note": 57, "velocity": 100, "duration": 173}, {"note": 0, "velocity": 0, "duration": 787}, {"note": 64, "velocity": 102, "duration": 166}, {"note": 0, "velocity": 0, "duration": 74}, {"note": 69, "velocity": 102, "duration": 71}, {"note": 0, "velocity": 0, "duration": 169}, {"note": 69, "velocity": 107, "duration": 218}, {"note": 0, "velocity": 0, "duration": 142}, {"note": 69, "velocity": 93, "duration": 105}, {"note": 67, "velocity": 102, "duration": 114}, {"note": 0, "velocity": 0, "duration": 126}, {"note": 64, "velocity": 99, "duration": 105}, {"note": 0, "velocity": 0, "duration": 135}, {"note": 64, "velocity": 107, "duration": 140}, {"note": 0, "velocity": 0, "duration": 340}, {"note": 69, "velocity": 117, "duration": 175}, {"note": 0, "velocity": 0, "duration": 65}, {"note": 72, "velocity": 127, "duration": 59}, {"note": 0, "velocity": 0, "duration": 181}, {"note": 69, "velocity": 127, "duration": 228}, {"note": 67, "velocity": 107, "duration": 62}, {"note": 0, "velocity": 0, "duration": 178}, {"note": 67, "velocity": 117, "duration": 334}, {"note": 0, "velocity": 0, "duration": 146}, {"note": 64, "velocity": 112, "duration": 146}, {"note": 0, "velocity": 0, "duration": 334}, {"note": 62, "velocity": 107, "duration": 159}, {"note": 0, "velocity": 0, "duration": 81}, {"note": 64, "velocity": 95, "duration": 68}, {"note": 0, "velocity": 0, "duration": 172}, {"note": 67, "velocity": 127, "duration": 213}, {"note": 64, "velocity": 96, "duration": 59}, {"note": 0, "velocity": 0, "duration": 181}, {"note": 62, "velocity": 99, "duration": 209}, {"note": 64, "velocity": 93, "duration": 132}, {"note": 62, "velocity": 99, "duration": 75}, {"note": 60, "velocity": 100, "duration": 209}, {"note": 0, "velocity": 0, "duration": 271}, {"note": 62, "velocity": 112, "duration": 215}, {"note": 60, "velocity": 107, "duration": 68}, {"note": 0, "velocity": 0, "duration": 172}, {"note": 57, "velocity": 96, "duration": 158}, {"note": 0, "velocity": 0, "duration": 322}, {"note": 57, "velocity": 107, "duration": 158}, {"note": 0, "velocity": 0, "duration": 802}, {"note": 64, "velocity": 127, "duration": 1263}, {"note": 0, "velocity": 0, "duration": 177}, {"note": 62, "velocity": 107, "duration": 203}, {"note": 64, "velocity": 100, "duration": 187}, {"note": 69, "velocity": 107, "duration": 1208}, {"note": 0, "velocity": 0, "duration": 232}, {"note": 69, "velocity": 127, "duration": 412}, {"note": 0, "velocity": 0, "duration": 68}, {"note": 67, "velocity": 127, "duration": 1379}, {"note": 0, "velocity": 0, "duration": 301}, {"note": 69, "velocity": 102, "duration": 208}, {"note": 64, "velocity": 88, "duration": 127}, {"note": 69, "velocity": 73, "duration": 92}, {"note": 64, "velocity": 88, "duration": 851}, {"note": 0, "velocity": 0, "duration": 349}, {"note": 64, "velocity": 102, "duration": 456}, {"note": 69, "velocity": 122, "duration": 992}, {"note": 0, "velocity": 0, "duration": 448}, {"note": 67, "velocity": 100, "duration": 229}, {"note": 72, "velocity": 102, "duration": 229}, {"note": 69, "velocity": 112, "duration": 849}, {"note": 0, "velocity": 0, "duration": 591}, {"note": 72, "velocity": 112, "duration": 387}, {"note": 0, "velocity": 0, "duration": 93}, {"note": 74, "velocity": 122, "duration": 818}, {"note": 0, "velocity": 0, "duration": 622}, {"note": 72, "velocity": 122, "duration": 353}, {"note": 0, "velocity": 0, "duration": 127}, {"note": 69, "velocity": 107, "duration": 105}, {"note": 72, "velocity": 96, "duration": 90}, {"note": 69, "velocity": 96, "duration": 1075}, {"note": 0, "velocity": 0, "duration": 17885}, {"note": 64, "velocity": 107, "duration": 145}, {"note": 0, "velocity": 0, "duration": 95}, {"note": 69, "velocity": 100, "duration": 96}, {"note": 0, "velocity": 0, "duration": 144}, {"note": 69, "velocity": 100, "duration": 219}, {"note": 0, "velocity": 0, "duration": 141}, {"note": 69, "velocity": 99, "duration": 104}, {"note": 67, "velocity": 107, "duration": 93}, {"note": 0, "velocity": 0, "duration": 147}, {"note": 64, "velocity": 90, "duration": 109}, {"note": 0, "velocity": 0, "duration": 131}, {"note": 64, "velocity": 107, "duration": 165}, {"note": 0, "velocity": 0, "duration": 315}, {"note": 69, "velocity": 107, "duration": 156}, {"note": 69, "velocity": 127, "duration": 156}, {"note": 0, "velocity": 0, "duration": 84}, {"note": 72, "velocity": 112, "duration": 76}, {"note": 0, "velocity": 0, "duration": 164}, {"note": 69, "velocity": 117, "duration": 175}, {"note": 0, "velocity": 0, "duration": 65}, {"note": 67, "velocity": 107, "duration": 99}, {"note": 0, "velocity": 0, "duration": 141}, {"note": 67, "velocity": 117, "duration": 206}, {"note": 69, "velocity": 99, "duration": 88}, {"note": 0, "velocity": 0, "duration": 152}, {"note": 64, "velocity": 107, "duration": 153}, {"note": 0, "velocity": 0, "duration": 327}, {"note": 62, "velocity": 100, "duration": 153}, {"note": 0, "velocity": 0, "duration": 87}, {"note": 64, "velocity": 99, "duration": 71}, {"note": 0, "velocity": 0, "duration": 169}, {"note": 67, "velocity": 107, "duration": 214}, {"note": 64, "velocity": 99, "duration": 53}, {"note": 0, "velocity": 0, "duration": 187}, {"note": 62, "velocity": 117, "duration": 455}, {"note": 60, "velocity": 97, "duration": 155}, {"note": 0, "velocity": 0, "duration": 325}, {"note": 62, "velocity": 102, "duration": 135}, {"note": 0, "velocity": 0, "duration": 105}, {"note": 60, "velocity": 96, "duration": 59}, {"note": 0, "velocity": 0, "duration": 181}, {"note": 57, "velocity": 96, "duration": 211}, {"note": 0, "velocity": 0, "duration": 269}, {"note": 57, "velocity": 100, "duration": 173}, {"note": 0, "velocity": 0, "duration": 787}, {"note": 64, "velocity": 102, "duration": 166}, {"note": 0, "velocity": 0, "duration": 74}, {"note": 69, "velocity": 102, "duration": 71}, {"note": 0, "velocity": 0, "duration": 169}, {"note": 69, "velocity": 107, "duration": 218}, {"note": 0, "velocity": 0, "duration": 142}, {"note": 69, "velocity": 93, "duration": 105}, {"note": 67, "velocity": 102, "duration": 114}, {"note": 0, "velocity": 0, "duration": 126}, {"note": 64, "velocity": 99, "duration": 105}, {"note": 0, "velocity": 0, "duration": 135}, {"note": 64, "velocity": 107, "duration": 140}, {"note": 0, "velocity": 0, "duration": 340}, {"note": 69, "velocity": 117, "duration": 175}, {"note": 0, "velocity": 0, "duration": 65}, {"note": 72, "velocity": 127, "duration": 59}, {"note": 0, "velocity": 0, "duration": 181}, {"note": 69, "velocity": 127, "duration": 228}, {"note": 67, "velocity": 107, "duration": 62}, {"note": 0, "velocity": 0, "duration": 178}, {"note": 67, "velocity": 117, "duration": 334}, {"note": 0, "velocity": 0, "duration": 146}, {"note": 64, "velocity": 112, "duration": 146}, {"note": 0, "velocity": 0, "duration": 334}, {"note": 62, "velocity": 107, "duration": 159}, {"note": 0, "velocity": 0, "duration": 81}, {"note": 64, "velocity": 95, "duration": 68}, {"note": 0, "velocity": 0, "duration": 172}, {"note": 67, "velocity": 127, "duration": 213}, {"note": 64, "velocity": 96, "duration": 59}, {"note": 0, "velocity": 0, "duration": 181}, {"note": 62, "velocity": 99, "duration": 209}, {"note": 64, "velocity": 93, "duration": 132}, {"note": 62, "velocity": 99, "duration": 75}, {"note": 60, "velocity": 100, "duration": 209}, {"note": 0, "velocity": 0, "duration": 271}, {"note": 62, "velocity": 112, "duration": 215}, {"note": 60, "velocity": 107, "duration": 68}, {"note": 0, "velocity": 0, "duration": 172}, {"note": 57, "velocity": 96, "duration": 158}, {"note": 0, "velocity": 0, "duration": 322}, {"note": 57, "velocity": 107, "duration": 158}, {"note": 0, "velocity": 0, "duration": 802}, {"note": 62, "velocity": 117, "duration": 225}, {"note": 60, "velocity": 117, "duration": 124}, {"note": 0, "velocity": 0, "duration": 116}, {"note": 57, "velocity": 112, "duration": 138}, {"note": 0, "velocity": 0, "duration": 342}, {"note": 57, "velocity": 127, "duration": 186}]]