[[{"note": 67, "velocity": 102, "duration": 133}, {"note": 0, "velocity": 0, "duration": 107}, {"note": 67, "velocity": 92, "duration": 51}, {"note": 0, "velocity": 0, "duration": 69}, {"note": 67, "velocity": 72, "duration": 46}, {"note": 0, "velocity": 0, "duration": 74}, {"note": 67, "velocity": 97, "duration": 110}, {"note": 71, "velocity": 97, "duration": 125}, {"note": 74, "velocity": 96, "duration": 231}, {"note": 71, "velocity": 112, "duration": 480}, {"note": 0, "velocity": 0, "duration": 480}, {"note": 69, "velocity": 112, "duration": 283}, {"note": 0, "velocity": 0, "duration": 77}, {"note": 67, "velocity": 97, "duration": 122}, {"note": 71, "velocity": 117, "duration": 216}, {"note": 69, "velocity": 97, "duration": 224}, {"note": 67, "velocity": 95, "duration": 430}, {"note": 0, "velocity": 0, "duration": 410}, {"note": 67, "velocity": 97, "duration": 65}, {"note": 67, "velocity": 93, "duration": 130}, {"note": 0, "velocity": 0, "duration": 110}, {"note": 67, "velocity": 95, "duration": 50}, {"note": 0, "velocity": 0, "duration": 70}, {"note": 67, "velocity": 99, "duration": 44}, {"note": 0, "velocity": 0, "duration": 76}, {"note": 67, "velocity": 96, "duration": 125}, {"note": 71, "velocity": 102, "duration": 109}, {"note": 74, "velocity": 97, "duration": 214}, {"note": 71, "velocity": 112, "duration": 391}, {"note": 0, "velocity": 0, "duration": 329}, {"note": 67, "velocity": 117, "duration": 104}, {"note": 69, "velocity": 96, "duration": 53}, {"note": 0, "velocity": 0, "duration": 67}, {"note": 69, "velocity": 112, "duration": 212}, {"note": 0, "velocity": 0, "duration": 148}, {"note": 67, "velocity": 122, "duration": 102}, {"note": 64, "velocity": 95, "duration": 219}, {"note": 67, "velocity": 100, "duration": 149}, {"note": 0, "velocity": 0, "duration": 91}, {"note": 67, "velocity": 107, "duration": 477}, {"note": 0, "velocity": 0, "duration": 483}, {"note": 72, "velocity": 112, "duration": 279}, {"note": 0, "velocity": 0, "duration": 81}, {"note": 72, "velocity": 107, "duration": 56}, {"note": 0, "velocity": 0, "duration": 64}, {"note": 72, "velocity": 107, "duration": 231}, {"note": 0, "velocity": 0, "duration": 129}, {"note": 69, "velocity": 102, "duration": 102}, {"note": 71, "velocity": 127, "duration": 387}, {"note": 0, "velocity": 0, "duration": 333}, {"note": 67, "velocity": 112, "duration": 117}, {"note": 69, "velocity": 100, "duration": 135}, {"note": 72, "velocity": 102, "duration": 251}, {"note": 0, "velocity": 0, "duration": 109}, {"note": 72, "velocity": 117, "duration": 64}, {"note": 72, "velocity": 112, "duration": 166}, {"note": 0, "velocity": 0, "duration": 74}, {"note": 74, "velocity": 122, "duration": 210}, {"note": 71, "velocity": 122, "duration": 345}, {"note": 0, "velocity": 0, "duration": 615}, {"note": 69, "velocity": 122, "duration": 282}, {"note": 0, "velocity": 0, "duration": 78}, {"note": 67, "velocity": 96, "duration": 127}, {"note": 71, "velocity": 127, "duration": 211}, {"note": 69, "velocity": 112, "duration": 233}, {"note": 67, "velocity": 102, "duration": 463}, {"note": 0, "velocity": 0, "duration": 497}, {"note": 69, "velocity": 100, "duration": 228}, {"note": 0, "velocity": 0, "duration": 132}, {"note": 67, "velocity": 100, "duration": 100}, {"note": 64, "velocity": 97, "duration": 227}, {"note": 69, "velocity": 97, "duration": 223}, {"note": 67, "velocity": 99, "duration": 478}, {"note": 0, "velocity": 0, "duration": 4202}, {"note": 67, "velocity": 107, "duration": 33}, {"note": 0, "velocity": 0, "duration": 87}, {"note": 67, "velocity": 102, "duration": 133}, {"note": 0, "velocity": 0, "duration": 107}, {"note": 67, "velocity": 92, "duration": 51}, {"note": 0, "velocity": 0, "duration": 69}, {"note": 67, "velocity": 72, "duration": 46}, {"note": 0, "velocity": 0, "duration": 74}, {"note": 67, "velocity": 97, "duration": 110}, {"note": 0, "velocity": 0, "duration": 130}, {"note": 74, "velocity": 112, "duration": 100}, {"note": 69, "velocity": 95, "duration": 48}, {"note": 0, "velocity": 0, "duration": 72}, {"note": 71, "velocity": 112, "duration": 475}, {"note": 0, "velocity": 0, "duration": 365}, {"note": 71, "velocity": 112, "duration": 37}, {"note": 0, "velocity": 0, "duration": 83}, {"note": 69, "velocity": 112, "duration": 283}, {"note": 0, "velocity": 0, "duration": 77}, {"note": 67, "velocity": 97, "duration": 122}, {"note": 71, "velocity": 117, "duration": 216}, {"note": 69, "velocity": 97, "duration": 224}, {"note": 67, "velocity": 95, "duration": 430}, {"note": 0, "velocity": 0, "duration": 410}, {"note": 67, "velocity": 97, "duration": 65}, {"note": 67, "velocity": 93, "duration": 130}, {"note": 0, "velocity": 0, "duration": 110}, {"note": 67, "velocity": 95, "duration": 50}, {"note": 0, "velocity": 0, "duration": 70}, {"note": 67, "velocity": 99, "duration": 44}, {"note": 0, "velocity": 0, "duration": 76}, {"note": 67, "velocity": 96, "duration": 125}, {"note": 71, "velocity": 102, "duration": 109}, {"note": 74, "velocity": 97, "duration": 214}, {"note": 71, "velocity": 112, "duration": 391}, {"note": 0, "velocity": 0, "duration": 329}, {"note": 67, "velocity": 117, "duration": 104}, {"note": 69, "velocity": 96, "duration": 53}, {"note": 0, "velocity": 0, "duration": 67}, {"note": 69, "velocity": 112, "duration": 212}, {"note": 0, "velocity": 0, "duration": 148}, {"note": 67, "velocity": 122, "duration": 102}, {"note": 64, "velocity": 95, "duration": 219}, {"note": 67, "velocity": 100, "duration": 149}, {"note": 0, "velocity": 0, "duration": 91}, {"note": 67, "velocity": 107, "duration": 477}, {"note": 0, "velocity": 0, "duration": 483}, {"note": 72, "velocity": 112, "duration": 279}, {"note": 0, "velocity": 0, "duration": 81}, {"note": 72, "velocity": 107, "duration": 56}, {"note": 0, "velocity": 0, "duration": 64}, {"note": 72, "velocity": 107, "duration": 231}, {"note": 0, "velocity": 0, "duration": 129}, {"note": 69, "velocity": 102, "duration": 102}, {"note": 71, "velocity": 127, "duration": 387}, {"note": 0, "velocity": 0, "duration": 333}, {"note": 67, "velocity": 112, "duration": 117}, {"note": 69, "velocity": 100, "duration": 135}, {"note": 72, "velocity": 102, "duration": 251}, {"note": 0, "velocity": 0, "duration": 109}, {"note": 72, "velocity": 117, "duration": 64}, {"note": 72, "velocity": 112, "duration": 166}, {"note": 0, "velocity": 0, "duration": 74}, {"note": 74, "velocity": 122, "duration": 210}, {"note": 71, "velocity": 122, "duration": 345}, {"note": 0, "velocity": 0, "duration": 615}, {"note": 69, "velocity": 122, "duration": 282}, {"note": 0, "velocity": 0, "duration": 78}, {"note": 67, "velocity": 96, "duration": 127}, {"note": 71, "velocity": 127, "duration": 211}, {"note": 69, "velocity": 112, "duration": 233}, {"note": 67, "velocity": 102, "duration": 463}, {"note": 0, "velocity": 0, "duration": 497}, {"note": 69, "velocity": 100, "duration": 228}, {"note": 0, "velocity": 0, "duration": 132}, {"note": 67, "velocity": 100, "duration": 100}, {"note": 64, "velocity": 97, "duration": 227}, {"note": 69, "velocity": 97, "duration": 223}, {"note": 67, "velocity": 99, "duration": 478}, {"note": 0, "velocity": 0, "duration": 8162}, {"note": 64, "velocity": 100, "duration": 297}, {"note": 0, "velocity": 0, "duration": 63}, {"note": 64, "velocity": 93, "duration": 52}, {"note": 0, "velocity": 0, "duration": 68}, {"note": 64, "velocity": 95, "duration": 218}, {"note": 71, "velocity": 107, "duration": 216}, {"note": 69, "velocity": 117, "duration": 481}, {"note": 0, "velocity": 0, "duration": 239}, {"note": 69, "velocity": 100, "duration": 86}, {"note": 71, "velocity": 102, "duration": 67}, {"note": 72, "velocity": 127, "duration": 247}, {"note": 0, "velocity": 0, "duration": 113}, {"note": 72, "velocity": 122, "duration": 50}, {"note": 0, "velocity": 0, "duration": 70}, {"note": 69, "velocity": 112, "duration": 142}, {"note": 71, "velocity": 99, "duration": 115}, {"note": 69, "velocity": 92, "duration": 200}, {"note": 67, "velocity": 95, "duration": 310}, {"note": 0, "velocity": 0, "duration": 650}, {"note": 64, "velocity": 99, "duration": 243}, {"note": 0, "velocity": 0, "duration": 117}, {"note": 64, "velocity": 96, "duration": 45}, {"note": 0, "velocity": 0, "duration": 75}, {"note": 64, "velocity": 102, "duration": 162}, {"note": 0, "velocity": 0, "duration": 78}, {"note": 71, "velocity": 117, "duration": 182}, {"note": 69, "velocity": 122, "duration": 413}, {"note": 0, "velocity": 0, "duration": 307}, {"note": 69, "velocity": 107, "duration": 106}, {"note": 71, "velocity": 93, "duration": 58}, {"note": 0, "velocity": 0, "duration": 62}, {"note": 72, "velocity": 122, "duration": 266}, {"note": 0, "velocity": 0, "duration": 94}, {"note": 71, "velocity": 102, "duration": 100}, {"note": 72, "velocity": 122, "duration": 202}, {"note": 74, "velocity": 112, "duration": 152}, {"note": 0, "velocity": 0, "duration": 88}, {"note": 74, "velocity": 127, "duration": 264}, {"note": 0, "velocity": 0, "duration": 4536}, {"note": 76, "velocity": 127, "duration": 294}, {"note": 0, "velocity": 0, "duration": 66}, {"note": 76, "velocity": 107, "duration": 54}, {"note": 0, "velocity": 0, "duration": 66}, {"note": 76, "velocity": 122, "duration": 257}, {"note": 0, "velocity": 0, "duration": 103}, {"note": 72, "velocity": 102, "duration": 105}, {"note": 74, "velocity": 122, "duration": 433}, {"note": 0, "velocity": 0, "duration": 527}, {"note": 74, "velocity": 122, "duration": 229}, {"note": 0, "velocity": 0, "duration": 131}, {"note": 74, "velocity": 107, "duration": 44}, {"note": 0, "velocity": 0, "duration": 76}, {"note": 74, "velocity": 127, "duration": 223}, {"note": 0, "velocity": 0, "duration": 137}, {"note": 69, "velocity": 99, "duration": 84}, {"note": 71, "velocity": 127, "duration": 342}, {"note": 0, "velocity": 0, "duration": 378}, {"note": 69, "velocity": 99, "duration": 57}, {"note": 0, "velocity": 0, "duration": 63}, {"note": 71, "velocity": 97, "duration": 50}, {"note": 0, "velocity": 0, "duration": 70}, {"note": 72, "velocity": 122, "duration": 236}, {"note": 0, "velocity": 0, "duration": 124}, {"note": 72, "velocity": 107, "duration": 55}, {"note": 0, "velocity": 0, "duration": 65}, {"note": 72, "velocity": 102, "duration": 157}, {"note": 0, "velocity": 0, "duration": 83}, {"note": 74, "velocity": 117, "duration": 161}, {"note": 0, "velocity": 0, "duration": 79}, {"note": 71, "velocity": 112, "duration": 291}, {"note": 0, "velocity": 0, "duration": 429}, {"note": 69, "velocity": 99, "duration": 50}, {"note": 0, "velocity": 0, "duration": 70}, {"note": 71, "velocity": 107, "duration": 47}, {"note": 0, "velocity": 0, "duration": 73}, {"note": 72, "velocity": 122, "duration": 257}, {"note": 0, "velocity": 0, "duration": 103}, {"note": 72, "velocity": 122, "duration": 55}, {"note": 0, "velocity": 0, "duration": 65}, {"note": 72, "velocity": 122, "duration": 165}, {"note": 0, "velocity": 0, "duration": 75}, {"note": 74, "velocity": 117, "duration": 174}, {"note": 0, "velocity": 0, "duration": 66}, {"note": 71, "velocity": 127, "duration": 308}, {"note": 0, "velocity": 0, "duration": 8332}, {"note": 67, "velocity": 102, "duration": 133}, {"note": 0, "velocity": 0, "duration": 107}, {"note": 67, "velocity": 92, "duration": 51}, {"note": 0, "velocity": 0, "duration": 69}, {"note": 67, "velocity": 72, "duration": 46}, {"note": 0, "velocity": 0, "duration": 74}, {"note": 67, "velocity": 97, "duration": 110}, {"note": 71, "velocity": 97, "duration": 125}, {"note": 74, "velocity": 96, "duration": 231}, {"note": 71, "velocity": 112, "duration": 480}, {"note": 0, "velocity": 0, "duration": 480}, {"note": 69, "velocity": 112, "duration": 283}, {"note": 0, "velocity": 0, "duration": 77}, {"note": 67, "velocity": 97, "duration": 122}, {"note": 71, "velocity": 117, "duration": 216}, {"note": 69, "velocity": 97, "duration": 224}, {"note": 67, "velocity": 95, "duration": 430}, {"note": 0, "velocity": 0, "duration": 410}, {"note": 67, "velocity": 97, "duration": 65}, {"note": 67, "velocity": 93, "duration": 130}, {"note": 0, "velocity": 0, "duration": 110}, {"note": 67, "velocity": 95, "duration": 50}, {"note": 0, "velocity": 0, "duration": 70}, {"note": 67, "velocity": 99, "duration": 44}, {"note": 0, "velocity": 0, "duration": 76}, {"note": 67, "velocity": 96, "duration": 125}, {"note": 71, "velocity": 102, "duration": 109}, {"note": 74, "velocity": 97, "duration": 214}, {"note": 71, "velocity": 112, "duration": 391}, {"note": 0, "velocity": 0, "duration": 329}, {"note": 67, "velocity": 117, "duration": 104}, {"note": 69, "velocity": 96, "duration": 53}, {"note": 0, "velocity": 0, "duration": 67}, {"note": 69, "velocity": 112, "duration": 212}, {"note": 0, "velocity": 0, "duration": 148}, {"note": 67, "velocity": 122, "duration": 102}, {"note": 64, "velocity": 95, "duration": 219}, {"note": 67, "velocity": 100, "duration": 149}, {"note": 0, "velocity": 0, "duration": 91}, {"note": 67, "velocity": 107, "duration": 477}, {"note": 0, "velocity": 0, "duration": 483}, {"note": 72, "velocity": 112, "duration": 279}, {"note": 0, "velocity": 0, "duration": 81}, {"note": 72, "velocity": 107, "duration": 56}, {"note": 0, "velocity": 0, "duration": 64}, {"note": 72, "velocity": 107, "duration": 231}, {"note": 0, "velocity": 0, "duration": 129}, {"note": 69, "velocity": 102, "duration": 102}, {"note": 71, "velocity": 127, "duration": 387}, {"note": 0, "velocity": 0, "duration": 333}, {"note": 67, "velocity": 112, "duration": 117}, {"note": 69, "velocity": 100, "duration": 135}, {"note": 72, "velocity": 102, "duration": 251}, {"note": 0, "velocity": 0, "duration": 109}, {"note": 72, "velocity": 117, "duration": 64}, {"note": 72, "velocity": 112, "duration": 166}, {"note": 0, "velocity": 0, "duration": 74}, {"note": 74, "velocity": 122, "duration": 210}, {"note": 71, "velocity": 122, "duration": 345}, {"note": 0, "velocity": 0, "duration": 615}, {"note": 69, "velocity": 122, "duration": 282}, {"note": 0, "velocity": 0, "duration": 78}, {"note": 67, "velocity": 96, "duration": 127}, {"note": 71, "velocity": 127, "duration": 211}, {"note": 69, "velocity": 112, "duration": 233}, {"note": 67, "velocity": 102, "duration": 463}, {"note": 0, "velocity": 0, "duration": 497}, {"note": 69, "velocity": 100, "duration": 228}, {"note": 0, "velocity": 0, "duration": 132}, {"note": 67, "velocity": 100, "duration": 100}, {"note": 64, "velocity": 97, "duration": 227}, {"note": 69, "velocity": 97, "duration": 223}, {"note": 67, "velocity": 99, "duration": 478}, {"note": 0, "velocity": 0, "duration": 4202}, {"note": 67, "velocity": 107, "duration": 33}, {"note": 0, "velocity": 0, "duration": 87}, {"note": 67, "velocity": 102, "duration": 133}, {"note": 0, "velocity": 0, "duration": 107}, {"note": 67, "velocity": 92, "duration": 51}, {"note": 0, "velocity": 0, "duration": 69}, {"note": 67, "velocity": 72, "duration": 46}, {"note": 0, "velocity": 0, "duration": 74}, {"note": 67, "velocity": 97, "duration": 110}, {"note": 0, "velocity": 0, "duration": 130}, {"note": 74, "velocity": 112, "duration": 100}, {"note": 69, "velocity": 95, "duration": 48}, {"note": 0, "velocity": 0, "duration": 72}, {"note": 71, "velocity": 112, "duration": 475}, {"note": 0, "velocity": 0, "duration": 365}, {"note": 71, "velocity": 112, "duration": 37}, {"note": 0, "velocity": 0, "duration": 83}, {"note": 69, "velocity": 112, "duration": 283}, {"note": 0, "velocity": 0, "duration": 77}, {"note": 67, "velocity": 97, "duration": 122}, {"note": 71, "velocity": 117, "duration": 216}, {"note": 69, "velocity": 97, "duration": 224}, {"note": 67, "velocity": 95, "duration": 430}, {"note": 0, "velocity": 0, "duration": 410}, {"note": 67, "velocity": 97, "duration": 65}, {"note": 67, "velocity": 93, "duration": 130}, {"note": 0, "velocity": 0, "duration": 110}, {"note": 67, "velocity": 95, "duration": 50}, {"note": 0, "velocity": 0, "duration": 70}, {"note": 67, "velocity": 99, "duration": 44}, {"note": 0, "velocity": 0, "duration": 76}, {"note": 67, "velocity": 96, "duration": 125}, {"note": 71, "velocity": 102, "duration": 109}, {"note": 74, "velocity": 97, "duration": 214}, {"note": 71, "velocity": 112, "duration": 391}, {"note": 0, "velocity": 0, "duration": 329}, {"note": 67, "velocity": 117, "duration": 104}, {"note": 69, "velocity": 96, "duration": 53}, {"note": 0, "velocity": 0, "duration": 67}, {"note": 69, "velocity": 112, "duration": 212}, {"note": 0, "velocity": 0, "duration": 148}, {"note": 67, "velocity": 122, "duration": 102}, {"note": 64, "velocity": 95, "duration": 219}, {"note": 67, "velocity": 100, "duration": 149}, {"note": 0, "velocity": 0, "duration": 91}, {"note": 67, "velocity": 107, "duration": 477}, {"note": 0, "velocity": 0, "duration": 483}, {"note": 72, "velocity": 112, "duration": 279}, {"note": 0, "velocity": 0, "duration": 81}, {"note": 72, "velocity": 107, "duration": 56}, {"note": 0, "velocity": 0, "duration": 64}, {"note": 72, "velocity": 107, "duration": 231}, {"note": 0, "velocity": 0, "duration": 129}, {"note": 69, "velocity": 102, "duration": 102}, {"note": 71, "velocity": 127, "duration": 387}, {"note": 0, "velocity": 0, "duration": 333}, {"note": 67, "velocity": 112, "duration": 117}, {"note": 69, "velocity": 100, "duration": 135}, {"note": 72, "velocity": 102, "duration": 251}, {"note": 0, "velocity": 0, "duration": 109}, {"note": 72, "velocity": 117, "duration": 64}, {"note": 72, "velocity": 112, "duration": 166}, {"note": 0, "velocity": 0, "duration": 74}, {"note": 74, "velocity": 122, "duration": 210}, {"note": 71, "velocity": 122, "duration": 345}, {"note": 0, "velocity": 0, "duration": 615}, {"note": 69, "velocity": 122, "duration": 282}, {"note": 0, "velocity": 0, "duration": 78}, {"note": 67, "velocity": 96, "duration": 127}, {"note": 71, "velocity": 127, "duration": 211}, {"note": 69, "velocity": 112, "duration": 233}, {"note": 67, "velocity": 102, "duration": 463}, {"note": 0, "velocity": 0, "duration": 497}, {"note": 69, "velocity": 100, "duration": 228}, {"note": 0, "velocity": 0, "duration": 132}, {"note": 67, "velocity": 100, "duration": 100}, {"note": 64, "velocity": 97, "duration": 227}, {"note": 69, "velocity": 97, "duration": 223}, {"note": 67, "velocity": 99, "duration": 478}, {"note": 0, "velocity": 0, "duration": 8162}, {"note": 76, "velocity": 127, "duration": 294}, {"note": 0, "velocity": 0, "duration": 66}, {"note": 76, "velocity": 107, "duration": 54}, {"note": 0, "velocity": 0, "duration": 66}, {"note": 76, "velocity": 122, "duration": 257}, {"note": 0, "velocity": 0, "duration": 103}, {"note": 72, "velocity": 102, "duration": 105}, {"note": 74, "velocity": 122, "duration": 433}, {"note": 0, "velocity": 0, "duration": 527}, {"note": 74, "velocity": 122, "duration": 229}, {"note": 0, "velocity": 0, "duration": 131}, {"note": 74, "velocity": 107, "duration": 44}, {"note": 0, "velocity": 0, "duration": 76}, {"note": 74, "velocity": 127, "duration": 223}, {"note": 0, "velocity": 0, "duration": 137}, {"note": 69, "velocity": 99, "duration": 84}, {"note": 71, "velocity": 127, "duration": 342}, {"note": 0, "velocity": 0, "duration": 378}, {"note": 69, "velocity": 99, "duration": 57}, {"note": 0, "velocity": 0, "duration": 63}, {"note": 71, "velocity": 97, "duration": 50}, {"note": 0, "velocity": 0, "duration": 70}, {"note": 72, "velocity": 122, "duration": 236}, {"note": 0, "velocity": 0, "duration": 124}, {"note": 72, "velocity": 107, "duration": 55}, {"note": 0, "velocity": 0, "duration": 65}, {"note": 72, "velocity": 102, "duration": 157}, {"note": 0, "velocity": 0, "duration": 83}, {"note": 74, "velocity": 117, "duration": 161}, {"note": 0, "velocity": 0, "duration": 79}, {"note": 71, "velocity": 112, "duration": 291}, {"note": 0, "velocity": 0, "duration": 429}, {"note": 69, "velocity": 99, "duration": 50}, {"note": 0, "velocity": 0, "duration": 70}, {"note": 71, "velocity": 107, "duration": 47}, {"note": 0, "velocity": 0, "duration": 73}, {"note": 72, "velocity": 122, "duration": 257}, {"note": 0, "velocity": 0, "duration": 103}, {"note": 72, "velocity": 122, "duration": 55}, {"note": 0, "velocity": 0, "duration": 65}, {"note": 72, "velocity": 122, "duration": 165}, {"note": 0, "velocity": 0, "duration": 75}, {"note": 74, "velocity": 117, "duration": 174}, {"note": 0, "velocity": 0, "duration": 66}, {"note": 71, "velocity": 127, "duration": 308}, {"note": 0, "velocity": 0, "duration": 2332}, {"note": 69, "velocity": 102, "duration": 55}, {"note": 0, "velocity": 0, "duration": 65}, {"note": 71, "velocity": 107, "duration": 42}, {"note": 0, "velocity": 0, "duration": 78}, {"note": 72, "velocity": 127, "duration": 272}, {"note": 0, "velocity": 0, "duration": 88}, {"note": 72, "velocity": 127, "duration": 48}, {"note": 0, "velocity": 0, "duration": 72}, {"note": 72, "velocity": 117, "duration": 159}, {"note": 0, "velocity": 0, "duration": 81}, {"note": 74, "velocity": 122, "duration": 160}, {"note": 0, "velocity": 0, "duration": 80}, {"note": 71, "velocity": 127, "duration": 664}]]