[[{"note": 64, "velocity": 107, "duration": 236}, {"note": 62, "velocity": 85, "duration": 303}, {"note": 60, "velocity": 85, "duration": 658}, {"note": 0, "velocity": 0, "duration": 62}, {"note": 55, "velocity": 79, "duration": 126}, {"note": 57, "velocity": 56, "duration": 130}, {"note": 60, "velocity": 74, "duration": 362}, {"note": 0, "velocity": 0, "duration": 118}, {"note": 62, "velocity": 77, "duration": 277}, {"note": 64, "velocity": 66, "duration": 1054}, {"note": 0, "velocity": 0, "duration": 626}, {"note": 65, "velocity": 97, "duration": 162}, {"note": 0, "velocity": 0, "duration": 78}, {"note": 65, "velocity": 74, "duration": 97}, {"note": 65, "velocity": 81, "duration": 553}, {"note": 57, "velocity": 82, "duration": 199}, {"note": 60, "velocity": 67, "duration": 421}, {"note": 60, "velocity": 88, "duration": 232}, {"note": 64, "velocity": 78, "duration": 372}, {"note": 62, "velocity": 77, "duration": 1175}, {"note": 0, "velocity": 0, "duration": 385}, {"note": 64, "velocity": 95, "duration": 245}, {"note": 60, "velocity": 83, "duration": 894}, {"note": 0, "velocity": 0, "duration": 66}, {"note": 64, "velocity": 93, "duration": 64}, {"note": 64, "velocity": 85, "duration": 69}, {"note": 62, "velocity": 82, "duration": 219}, {"note": 60, "velocity": 81, "duration": 194}, {"note": 0, "velocity": 0, "duration": 166}, {"note": 67, "velocity": 90, "duration": 170}, {"note": 64, "velocity": 73, "duration": 1300}, {"note": 0, "velocity": 0, "duration": 380}, {"note": 62, "velocity": 88, "duration": 335}, {"note": 57, "velocity": 78, "duration": 480}, {"note": 62, "velocity": 90, "duration": 43}, {"note": 0, "velocity": 0, "duration": 77}, {"note": 59, "velocity": 79, "duration": 266}, {"note": 0, "velocity": 0, "duration": 94}, {"note": 59, "velocity": 85, "duration": 292}, {"note": 0, "velocity": 0, "duration": 68}, {"note": 57, "velocity": 79, "duration": 249}, {"note": 59, "velocity": 70, "duration": 244}, {"note": 55, "velocity": 68, "duration": 948}, {"note": 0, "velocity": 0, "duration": 492}, {"note": 57, "velocity": 93, "duration": 122}, {"note": 55, "velocity": 64, "duration": 156}, {"note": 60, "velocity": 95, "duration": 271}, {"note": 0, "velocity": 0, "duration": 89}, {"note": 60, "velocity": 99, "duration": 556}, {"note": 0, "velocity": 0, "duration": 284}, {"note": 60, "velocity": 81, "duration": 144}, {"note": 0, "velocity": 0, "duration": 96}, {"note": 62, "velocity": 95, "duration": 191}, {"note": 60, "velocity": 78, "duration": 62}, {"note": 60, "velocity": 70, "duration": 281}, {"note": 0, "velocity": 0, "duration": 79}, {"note": 67, "velocity": 100, "duration": 115}, {"note": 64, "velocity": 86, "duration": 582}, {"note": 0, "velocity": 0, "duration": 738}, {"note": 64, "velocity": 96, "duration": 75}, {"note": 67, "velocity": 89, "duration": 80}, {"note": 69, "velocity": 97, "duration": 234}, {"note": 0, "velocity": 0, "duration": 126}, {"note": 69, "velocity": 122, "duration": 310}, {"note": 0, "velocity": 0, "duration": 530}, {"note": 62, "velocity": 97, "duration": 309}, {"note": 62, "velocity": 100, "duration": 122}, {"note": 0, "velocity": 0, "duration": 118}, {"note": 60, "velocity": 96, "duration": 71}, {"note": 62, "velocity": 99, "duration": 219}, {"note": 64, "velocity": 97, "duration": 103}, {"note": 62, "velocity": 99, "duration": 815}, {"note": 0, "velocity": 0, "duration": 505}, {"note": 57, "velocity": 78, "duration": 103}, {"note": 55, "velocity": 70, "duration": 117}, {"note": 60, "velocity": 95, "duration": 271}, {"note": 0, "velocity": 0, "duration": 89}, {"note": 60, "velocity": 99, "duration": 556}, {"note": 0, "velocity": 0, "duration": 284}, {"note": 60, "velocity": 81, "duration": 144}, {"note": 0, "velocity": 0, "duration": 96}, {"note": 62, "velocity": 95, "duration": 191}, {"note": 60, "velocity": 78, "duration": 62}, {"note": 60, "velocity": 70, "duration": 281}, {"note": 0, "velocity": 0, "duration": 79}, {"note": 67, "velocity": 100, "duration": 115}, {"note": 64, "velocity": 86, "duration": 582}, {"note": 0, "velocity": 0, "duration": 738}, {"note": 64, "velocity": 96, "duration": 75}, {"note": 67, "velocity": 89, "duration": 80}, {"note": 69, "velocity": 97, "duration": 234}, {"note": 0, "velocity": 0, "duration": 126}, {"note": 64, "velocity": 96, "duration": 192}, {"note": 62, "velocity": 90, "duration": 126}, {"note": 64, "velocity": 85, "duration": 115}, {"note": 62, "velocity": 90, "duration": 76}, {"note": 62, "velocity": 97, "duration": 317}, {"note": 0, "velocity": 0, "duration": 283}, {"note": 64, "velocity": 122, "duration": 203}, {"note": 62, "velocity": 86, "duration": 136}, {"note": 69, "velocity": 112, "duration": 279}, {"note": 0, "velocity": 0, "duration": 81}, {"note": 67, "velocity": 112, "duration": 1080}, {"note": 0, "velocity": 0, "duration": 240}, {"note": 69, "velocity": 102, "duration": 140}, {"note": 67, "velocity": 88, "duration": 122}, {"note": 72, "velocity": 122, "duration": 247}, {"note": 0, "velocity": 0, "duration": 113}, {"note": 72, "velocity": 122, "duration": 581}, {"note": 0, "velocity": 0, "duration": 259}, {"note": 72, "velocity": 107, "duration": 151}, {"note": 0, "velocity": 0, "duration": 89}, {"note": 74, "velocity": 127, "duration": 132}, {"note": 0, "velocity": 0, "duration": 108}, {"note": 72, "velocity": 117, "duration": 66}, {"note": 72, "velocity": 127, "duration": 164}, {"note": 0, "velocity": 0, "duration": 76}, {"note": 71, "velocity": 97, "duration": 146}, {"note": 0, "velocity": 0, "duration": 94}, {"note": 71, "velocity": 112, "duration": 1026}, {"note": 0, "velocity": 0, "duration": 294}, {"note": 64, "velocity": 100, "duration": 78}, {"note": 67, "velocity": 102, "duration": 78}, {"note": 69, "velocity": 112, "duration": 209}, {"note": 0, "velocity": 0, "duration": 151}, {"note": 69, "velocity": 127, "duration": 267}, {"note": 0, "velocity": 0, "duration": 93}, {"note": 72, "velocity": 122, "duration": 79}, {"note": 69, "velocity": 97, "duration": 51}, {"note": 0, "velocity": 0, "duration": 69}, {"note": 72, "velocity": 122, "duration": 249}, {"note": 0, "velocity": 0, "duration": 111}, {"note": 69, "velocity": 127, "duration": 190}, {"note": 0, "velocity": 0, "duration": 410}, {"note": 64, "velocity": 112, "duration": 302}, {"note": 62, "velocity": 122, "duration": 846}, {"note": 0, "velocity": 0, "duration": 714}, {"note": 72, "velocity": 122, "duration": 258}, {"note": 0, "velocity": 0, "duration": 102}, {"note": 72, "velocity": 127, "duration": 743}, {"note": 0, "velocity": 0, "duration": 97}, {"note": 72, "velocity": 102, "duration": 144}, {"note": 0, "velocity": 0, "duration": 96}, {"note": 74, "velocity": 122, "duration": 157}, {"note": 0, "velocity": 0, "duration": 83}, {"note": 76, "velocity": 122, "duration": 88}, {"note": 76, "velocity": 107, "duration": 171}, {"note": 0, "velocity": 0, "duration": 69}, {"note": 76, "velocity": 127, "duration": 592}, {"note": 71, "velocity": 117, "duration": 734}, {"note": 0, "velocity": 0, "duration": 226}, {"note": 64, "velocity": 102, "duration": 78}, {"note": 67, "velocity": 107, "duration": 71}, {"note": 69, "velocity": 127, "duration": 156}, {"note": 0, "velocity": 0, "duration": 84}, {"note": 69, "velocity": 112, "duration": 336}, {"note": 0, "velocity": 0, "duration": 144}, {"note": 72, "velocity": 127, "duration": 118}, {"note": 69, "velocity": 102, "duration": 126}, {"note": 0, "velocity": 0, "duration": 114}, {"note": 69, "velocity": 100, "duration": 94}, {"note": 71, "velocity": 102, "duration": 87}, {"note": 72, "velocity": 107, "duration": 82}, {"note": 76, "velocity": 127, "duration": 216}, {"note": 74, "velocity": 127, "duration": 151}, {"note": 0, "velocity": 0, "duration": 89}, {"note": 74, "velocity": 127, "duration": 506}, {"note": 0, "velocity": 0, "duration": 934}, {"note": 76, "velocity": 127, "duration": 239}, {"note": 74, "velocity": 100, "duration": 229}, {"note": 72, "velocity": 112, "duration": 902}, {"note": 0, "velocity": 0, "duration": 298}, {"note": 72, "velocity": 117, "duration": 231}, {"note": 71, "velocity": 100, "duration": 218}, {"note": 67, "velocity": 88, "duration": 248}, {"note": 69, "velocity": 96, "duration": 268}, {"note": 0, "velocity": 0, "duration": 92}, {"note": 64, "velocity": 93, "duration": 638}, {"note": 0, "velocity": 0, "duration": 682}, {"note": 64, "velocity": 96, "duration": 116}, {"note": 67, "velocity": 92, "duration": 68}, {"note": 65, "velocity": 99, "duration": 252}, {"note": 0, "velocity": 0, "duration": 108}, {"note": 65, "velocity": 100, "duration": 71}, {"note": 65, "velocity": 102, "duration": 217}, {"note": 0, "velocity": 0, "duration": 143}, {"note": 64, "velocity": 90, "duration": 58}, {"note": 0, "velocity": 0, "duration": 62}, {"note": 64, "velocity": 97, "duration": 254}, {"note": 0, "velocity": 0, "duration": 106}, {"note": 62, "velocity": 96, "duration": 434}, {"note": 0, "velocity": 0, "duration": 646}, {"note": 69, "velocity": 102, "duration": 359}, {"note": 67, "velocity": 88, "duration": 79}, {"note": 67, "velocity": 102, "duration": 980}, {"note": 0, "velocity": 0, "duration": 940}, {"note": 65, "velocity": 107, "duration": 293}, {"note": 0, "velocity": 0, "duration": 67}, {"note": 64, "velocity": 99, "duration": 291}, {"note": 0, "velocity": 0, "duration": 69}, {"note": 62, "velocity": 99, "duration": 248}, {"note": 60, "velocity": 88, "duration": 1098}, {"note": 0, "velocity": 0, "duration": 822}, {"note": 72, "velocity": 122, "duration": 247}, {"note": 0, "velocity": 0, "duration": 113}, {"note": 72, "velocity": 122, "duration": 581}, {"note": 0, "velocity": 0, "duration": 259}, {"note": 72, "velocity": 107, "duration": 151}, {"note": 0, "velocity": 0, "duration": 89}, {"note": 74, "velocity": 127, "duration": 132}, {"note": 0, "velocity": 0, "duration": 108}, {"note": 72, "velocity": 117, "duration": 66}, {"note": 72, "velocity": 127, "duration": 164}, {"note": 0, "velocity": 0, "duration": 76}, {"note": 71, "velocity": 97, "duration": 146}, {"note": 0, "velocity": 0, "duration": 94}, {"note": 71, "velocity": 112, "duration": 1026}, {"note": 0, "velocity": 0, "duration": 294}, {"note": 64, "velocity": 100, "duration": 78}, {"note": 67, "velocity": 102, "duration": 78}, {"note": 69, "velocity": 112, "duration": 209}, {"note": 0, "velocity": 0, "duration": 151}, {"note": 69, "velocity": 127, "duration": 267}, {"note": 0, "velocity": 0, "duration": 93}, {"note": 72, "velocity": 122, "duration": 79}, {"note": 69, "velocity": 97, "duration": 51}, {"note": 0, "velocity": 0, "duration": 69}, {"note": 72, "velocity": 122, "duration": 249}, {"note": 0, "velocity": 0, "duration": 111}, {"note": 69, "velocity": 127, "duration": 455}, {"note": 0, "velocity": 0, "duration": 145}, {"note": 64, "velocity": 112, "duration": 302}, {"note": 62, "velocity": 122, "duration": 846}, {"note": 0, "velocity": 0, "duration": 714}, {"note": 72, "velocity": 122, "duration": 258}, {"note": 0, "velocity": 0, "duration": 102}, {"note": 72, "velocity": 127, "duration": 743}, {"note": 0, "velocity": 0, "duration": 97}, {"note": 72, "velocity": 102, "duration": 144}, {"note": 0, "velocity": 0, "duration": 96}, {"note": 74, "velocity": 122, "duration": 157}, {"note": 0, "velocity": 0, "duration": 83}, {"note": 76, "velocity": 122, "duration": 88}, {"note": 76, "velocity": 107, "duration": 171}, {"note": 0, "velocity": 0, "duration": 69}, {"note": 76, "velocity": 127, "duration": 592}, {"note": 71, "velocity": 117, "duration": 734}, {"note": 0, "velocity": 0, "duration": 226}, {"note": 64, "velocity": 102, "duration": 78}, {"note": 67, "velocity": 107, "duration": 71}, {"note": 69, "velocity": 127, "duration": 156}, {"note": 0, "velocity": 0, "duration": 84}, {"note": 69, "velocity": 112, "duration": 336}, {"note": 0, "velocity": 0, "duration": 144}, {"note": 72, "velocity": 127, "duration": 118}, {"note": 69, "velocity": 102, "duration": 126}, {"note": 0, "velocity": 0, "duration": 114}, {"note": 69, "velocity": 100, "duration": 94}, {"note": 71, "velocity": 102, "duration": 87}, {"note": 72, "velocity": 107, "duration": 82}, {"note": 76, "velocity": 127, "duration": 216}, {"note": 74, "velocity": 127, "duration": 151}, {"note": 0, "velocity": 0, "duration": 89}, {"note": 74, "velocity": 127, "duration": 506}, {"note": 0, "velocity": 0, "duration": 934}, {"note": 76, "velocity": 127, "duration": 239}, {"note": 74, "velocity": 100, "duration": 229}, {"note": 72, "velocity": 112, "duration": 902}, {"note": 0, "velocity": 0, "duration": 298}, {"note": 72, "velocity": 117, "duration": 231}, {"note": 71, "velocity": 100, "duration": 218}, {"note": 67, "velocity": 88, "duration": 248}, {"note": 69, "velocity": 96, "duration": 268}, {"note": 0, "velocity": 0, "duration": 92}, {"note": 64, "velocity": 93, "duration": 638}, {"note": 0, "velocity": 0, "duration": 682}, {"note": 64, "velocity": 96, "duration": 116}, {"note": 67, "velocity": 92, "duration": 68}, {"note": 65, "velocity": 99, "duration": 252}, {"note": 0, "velocity": 0, "duration": 108}, {"note": 65, "velocity": 100, "duration": 71}, {"note": 65, "velocity": 102, "duration": 217}, {"note": 0, "velocity": 0, "duration": 143}, {"note": 64, "velocity": 90, "duration": 58}, {"note": 0, "velocity": 0, "duration": 62}, {"note": 64, "velocity": 97, "duration": 254}, {"note": 0, "velocity": 0, "duration": 106}, {"note": 62, "velocity": 96, "duration": 434}, {"note": 0, "velocity": 0, "duration": 646}, {"note": 69, "velocity": 102, "duration": 359}, {"note": 67, "velocity": 88, "duration": 79}, {"note": 67, "velocity": 102, "duration": 980}, {"note": 0, "velocity": 0, "duration": 940}, {"note": 65, "velocity": 107, "duration": 293}, {"note": 0, "velocity": 0, "duration": 67}, {"note": 64, "velocity": 99, "duration": 291}, {"note": 0, "velocity": 0, "duration": 69}, {"note": 62, "velocity": 99, "duration": 248}, {"note": 60, "velocity": 88, "duration": 1098}, {"note": 0, "velocity": 0, "duration": 582}, {"note": 57, "velocity": 93, "duration": 122}, {"note": 55, "velocity": 64, "duration": 156}, {"note": 60, "velocity": 95, "duration": 271}, {"note": 0, "velocity": 0, "duration": 89}, {"note": 60, "velocity": 99, "duration": 556}, {"note": 0, "velocity": 0, "duration": 284}, {"note": 64, "velocity": 100, "duration": 188}, {"note": 62, "velocity": 92, "duration": 215}, {"note": 60, "velocity": 97, "duration": 255}, {"note": 67, "velocity": 97, "duration": 505}, {"note": 0, "velocity": 0, "duration": 1175}, {"note": 64, "velocity": 96, "duration": 98}, {"note": 67, "velocity": 82, "duration": 144}, {"note": 69, "velocity": 93, "duration": 83}, {"note": 69, "velocity": 76, "duration": 86}, {"note": 69, "velocity": 96, "duration": 168}, {"note": 0, "velocity": 0, "duration": 72}, {"note": 60, "velocity": 89, "duration": 70}, {"note": 60, "velocity": 88, "duration": 477}, {"note": 0, "velocity": 0, "duration": 363}, {"note": 62, "velocity": 127, "duration": 430}, {"note": 64, "velocity": 127, "duration": 909}, {"note": 0, "velocity": 0, "duration": 771}, {"note": 57, "velocity": 82, "duration": 100}, {"note": 55, "velocity": 67, "duration": 155}, {"note": 60, "velocity": 96, "duration": 274}, {"note": 0, "velocity": 0, "duration": 86}, {"note": 60, "velocity": 102, "duration": 574}, {"note": 0, "velocity": 0, "duration": 266}, {"note": 64, "velocity": 100, "duration": 225}, {"note": 62, "velocity": 97, "duration": 201}, {"note": 60, "velocity": 85, "duration": 69}, {"note": 60, "velocity": 70, "duration": 152}, {"note": 67, "velocity": 97, "duration": 698}, {"note": 0, "velocity": 0, "duration": 982}, {"note": 64, "velocity": 93, "duration": 102}, {"note": 67, "velocity": 83, "duration": 79}, {"note": 69, "velocity": 100, "duration": 124}, {"note": 0, "velocity": 0, "duration": 116}, {"note": 69, "velocity": 102, "duration": 204}, {"note": 60, "velocity": 99, "duration": 191}, {"note": 60, "velocity": 73, "duration": 79}, {"note": 60, "velocity": 95, "duration": 604}, {"note": 0, "velocity": 0, "duration": 956}, {"note": 62, "velocity": 102, "duration": 753}, {"note": 64, "velocity": 92, "duration": 4792}]]