[[{"note": 56, "velocity": 92, "duration": 192}, {"note": 0, "velocity": 0, "duration": 168}, {"note": 59, "velocity": 90, "duration": 122}, {"note": 0, "velocity": 0, "duration": 118}, {"note": 63, "velocity": 85, "duration": 185}, {"note": 56, "velocity": 69, "duration": 207}, {"note": 59, "velocity": 95, "duration": 1005}, {"note": 0, "velocity": 0, "duration": 675}, {"note": 56, "velocity": 70, "duration": 392}, {"note": 0, "velocity": 0, "duration": 88}, {"note": 59, "velocity": 89, "duration": 180}, {"note": 63, "velocity": 95, "duration": 211}, {"note": 56, "velocity": 76, "duration": 291}, {"note": 58, "velocity": 89, "duration": 1455}, {"note": 0, "velocity": 0, "duration": 225}, {"note": 56, "velocity": 90, "duration": 187}, {"note": 59, "velocity": 100, "duration": 241}, {"note": 61, "velocity": 89, "duration": 292}, {"note": 63, "velocity": 102, "duration": 238}, {"note": 66, "velocity": 99, "duration": 155}, {"note": 0, "velocity": 0, "duration": 85}, {"note": 68, "velocity": 99, "duration": 234}, {"note": 63, "velocity": 97, "duration": 183}, {"note": 59, "velocity": 100, "duration": 217}, {"note": 56, "velocity": 95, "duration": 194}, {"note": 63, "velocity": 107, "duration": 208}, {"note": 66, "velocity": 102, "duration": 158}, {"note": 0, "velocity": 0, "duration": 82}, {"note": 68, "velocity": 99, "duration": 113}, {"note": 0, "velocity": 0, "duration": 127}, {"note": 61, "velocity": 100, "duration": 231}, {"note": 59, "velocity": 112, "duration": 731}, {"note": 56, "velocity": 99, "duration": 273}, {"note": 63, "velocity": 112, "duration": 1426}, {"note": 0, "velocity": 0, "duration": 734}, {"note": 56, "velocity": 95, "duration": 380}, {"note": 0, "velocity": 0, "duration": 340}, {"note": 59, "velocity": 102, "duration": 202}, {"note": 63, "velocity": 99, "duration": 146}, {"note": 0, "velocity": 0, "duration": 94}, {"note": 56, "velocity": 92, "duration": 215}, {"note": 59, "velocity": 107, "duration": 1321}, {"note": 0, "velocity": 0, "duration": 359}, {"note": 56, "velocity": 86, "duration": 127}, {"note": 0, "velocity": 0, "duration": 113}, {"note": 56, "velocity": 93, "duration": 151}, {"note": 0, "velocity": 0, "duration": 89}, {"note": 59, "velocity": 100, "duration": 146}, {"note": 0, "velocity": 0, "duration": 94}, {"note": 63, "velocity": 99, "duration": 250}, {"note": 56, "velocity": 92, "duration": 253}, {"note": 58, "velocity": 92, "duration": 1286}, {"note": 0, "velocity": 0, "duration": 394}, {"note": 56, "velocity": 93, "duration": 180}, {"note": 59, "velocity": 117, "duration": 188}, {"note": 61, "velocity": 102, "duration": 288}, {"note": 63, "velocity": 107, "duration": 135}, {"note": 0, "velocity": 0, "duration": 105}, {"note": 66, "velocity": 112, "duration": 258}, {"note": 68, "velocity": 117, "duration": 214}, {"note": 61, "velocity": 99, "duration": 187}, {"note": 59, "velocity": 96, "duration": 218}, {"note": 56, "velocity": 93, "duration": 203}, {"note": 64, "velocity": 112, "duration": 260}, {"note": 66, "velocity": 122, "duration": 172}, {"note": 0, "velocity": 0, "duration": 68}, {"note": 68, "velocity": 112, "duration": 188}, {"note": 63, "velocity": 99, "duration": 138}, {"note": 61, "velocity": 95, "duration": 131}, {"note": 59, "velocity": 100, "duration": 480}, {"note": 56, "velocity": 97, "duration": 437}, {"note": 63, "velocity": 122, "duration": 1533}, {"note": 0, "velocity": 0, "duration": 147}, {"note": 63, "velocity": 99, "duration": 195}, {"note": 68, "velocity": 100, "duration": 207}, {"note": 70, "velocity": 95, "duration": 214}, {"note": 72, "velocity": 122, "duration": 227}, {"note": 68, "velocity": 96, "duration": 148}, {"note": 0, "velocity": 0, "duration": 92}, {"note": 68, "velocity": 92, "duration": 158}, {"note": 0, "velocity": 0, "duration": 82}, {"note": 63, "velocity": 96, "duration": 716}, {"note": 0, "velocity": 0, "duration": 724}, {"note": 63, "velocity": 99, "duration": 179}, {"note": 0, "velocity": 0, "duration": 61}, {"note": 72, "velocity": 112, "duration": 199}, {"note": 68, "velocity": 97, "duration": 238}, {"note": 70, "velocity": 102, "duration": 127}, {"note": 0, "velocity": 0, "duration": 113}, {"note": 67, "velocity": 122, "duration": 163}, {"note": 0, "velocity": 0, "duration": 77}, {"note": 67, "velocity": 100, "duration": 182}, {"note": 63, "velocity": 102, "duration": 954}, {"note": 0, "velocity": 0, "duration": 486}, {"note": 60, "velocity": 99, "duration": 230}, {"note": 70, "velocity": 107, "duration": 224}, {"note": 67, "velocity": 102, "duration": 252}, {"note": 68, "velocity": 122, "duration": 861}, {"note": 0, "velocity": 0, "duration": 339}, {"note": 67, "velocity": 122, "duration": 181}, {"note": 68, "velocity": 102, "duration": 339}, {"note": 0, "velocity": 0, "duration": 141}, {"note": 72, "velocity": 112, "duration": 187}, {"note": 67, "velocity": 117, "duration": 668}, {"note": 63, "velocity": 100, "duration": 217}, {"note": 65, "velocity": 99, "duration": 1255}, {"note": 0, "velocity": 0, "duration": 785}, {"note": 63, "velocity": 102, "duration": 197}, {"note": 68, "velocity": 100, "duration": 202}, {"note": 70, "velocity": 97, "duration": 226}, {"note": 72, "velocity": 127, "duration": 228}, {"note": 68, "velocity": 102, "duration": 141}, {"note": 0, "velocity": 0, "duration": 99}, {"note": 68, "velocity": 93, "duration": 188}, {"note": 63, "velocity": 102, "duration": 1102}, {"note": 0, "velocity": 0, "duration": 338}, {"note": 63, "velocity": 92, "duration": 226}, {"note": 68, "velocity": 102, "duration": 209}, {"note": 70, "velocity": 93, "duration": 110}, {"note": 0, "velocity": 0, "duration": 130}, {"note": 75, "velocity": 112, "duration": 309}, {"note": 0, "velocity": 0, "duration": 171}, {"note": 70, "velocity": 122, "duration": 481}, {"note": 72, "velocity": 127, "duration": 219}, {"note": 70, "velocity": 97, "duration": 230}, {"note": 68, "velocity": 99, "duration": 944}, {"note": 0, "velocity": 0, "duration": 256}, {"note": 67, "velocity": 127, "duration": 178}, {"note": 0, "velocity": 0, "duration": 62}, {"note": 68, "velocity": 117, "duration": 1260}, {"note": 67, "velocity": 99, "duration": 255}, {"note": 68, "velocity": 112, "duration": 327}, {"note": 0, "velocity": 0, "duration": 153}, {"note": 72, "velocity": 112, "duration": 134}, {"note": 0, "velocity": 0, "duration": 106}, {"note": 67, "velocity": 122, "duration": 645}, {"note": 0, "velocity": 0, "duration": 75}, {"note": 63, "velocity": 107, "duration": 223}, {"note": 68, "velocity": 102, "duration": 1893}, {"note": 0, "velocity": 0, "duration": 7227}, {"note": 56, "velocity": 95, "duration": 380}, {"note": 0, "velocity": 0, "duration": 100}, {"note": 59, "velocity": 102, "duration": 202}, {"note": 63, "velocity": 99, "duration": 146}, {"note": 0, "velocity": 0, "duration": 94}, {"note": 56, "velocity": 92, "duration": 215}, {"note": 59, "velocity": 107, "duration": 1321}, {"note": 0, "velocity": 0, "duration": 359}, {"note": 56, "velocity": 86, "duration": 127}, {"note": 0, "velocity": 0, "duration": 113}, {"note": 56, "velocity": 93, "duration": 151}, {"note": 0, "velocity": 0, "duration": 89}, {"note": 59, "velocity": 100, "duration": 146}, {"note": 0, "velocity": 0, "duration": 94}, {"note": 63, "velocity": 99, "duration": 250}, {"note": 56, "velocity": 92, "duration": 253}, {"note": 58, "velocity": 92, "duration": 1286}, {"note": 0, "velocity": 0, "duration": 394}, {"note": 56, "velocity": 93, "duration": 180}, {"note": 59, "velocity": 117, "duration": 188}, {"note": 61, "velocity": 102, "duration": 288}, {"note": 63, "velocity": 107, "duration": 135}, {"note": 0, "velocity": 0, "duration": 105}, {"note": 66, "velocity": 112, "duration": 258}, {"note": 68, "velocity": 117, "duration": 214}, {"note": 61, "velocity": 99, "duration": 187}, {"note": 59, "velocity": 96, "duration": 218}, {"note": 56, "velocity": 93, "duration": 203}, {"note": 64, "velocity": 112, "duration": 260}, {"note": 66, "velocity": 122, "duration": 172}, {"note": 0, "velocity": 0, "duration": 68}, {"note": 68, "velocity": 112, "duration": 188}, {"note": 63, "velocity": 99, "duration": 138}, {"note": 61, "velocity": 95, "duration": 131}, {"note": 59, "velocity": 100, "duration": 480}, {"note": 56, "velocity": 97, "duration": 437}, {"note": 63, "velocity": 122, "duration": 1533}, {"note": 0, "velocity": 0, "duration": 147}, {"note": 63, "velocity": 99, "duration": 195}, {"note": 68, "velocity": 100, "duration": 207}, {"note": 70, "velocity": 95, "duration": 214}, {"note": 72, "velocity": 122, "duration": 227}, {"note": 68, "velocity": 96, "duration": 148}, {"note": 0, "velocity": 0, "duration": 92}, {"note": 68, "velocity": 92, "duration": 158}, {"note": 0, "velocity": 0, "duration": 82}, {"note": 63, "velocity": 96, "duration": 716}, {"note": 0, "velocity": 0, "duration": 724}, {"note": 63, "velocity": 99, "duration": 179}, {"note": 0, "velocity": 0, "duration": 61}, {"note": 72, "velocity": 112, "duration": 199}, {"note": 68, "velocity": 97, "duration": 238}, {"note": 70, "velocity": 102, "duration": 127}, {"note": 0, "velocity": 0, "duration": 113}, {"note": 67, "velocity": 122, "duration": 163}, {"note": 0, "velocity": 0, "duration": 77}, {"note": 67, "velocity": 100, "duration": 182}, {"note": 63, "velocity": 102, "duration": 954}, {"note": 0, "velocity": 0, "duration": 486}, {"note": 60, "velocity": 99, "duration": 230}, {"note": 70, "velocity": 107, "duration": 224}, {"note": 67, "velocity": 102, "duration": 252}, {"note": 68, "velocity": 122, "duration": 861}, {"note": 0, "velocity": 0, "duration": 339}, {"note": 67, "velocity": 122, "duration": 181}, {"note": 68, "velocity": 102, "duration": 339}, {"note": 0, "velocity": 0, "duration": 141}, {"note": 72, "velocity": 112, "duration": 187}, {"note": 67, "velocity": 117, "duration": 668}, {"note": 63, "velocity": 100, "duration": 217}, {"note": 65, "velocity": 99, "duration": 1255}, {"note": 0, "velocity": 0, "duration": 785}, {"note": 63, "velocity": 102, "duration": 197}, {"note": 68, "velocity": 100, "duration": 202}, {"note": 70, "velocity": 97, "duration": 226}, {"note": 72, "velocity": 127, "duration": 228}, {"note": 68, "velocity": 102, "duration": 141}, {"note": 0, "velocity": 0, "duration": 99}, {"note": 68, "velocity": 93, "duration": 188}, {"note": 63, "velocity": 102, "duration": 1102}, {"note": 0, "velocity": 0, "duration": 338}, {"note": 63, "velocity": 92, "duration": 226}, {"note": 68, "velocity": 102, "duration": 209}, {"note": 70, "velocity": 93, "duration": 110}, {"note": 0, "velocity": 0, "duration": 130}, {"note": 75, "velocity": 112, "duration": 309}, {"note": 0, "velocity": 0, "duration": 171}, {"note": 70, "velocity": 122, "duration": 481}, {"note": 72, "velocity": 127, "duration": 219}, {"note": 70, "velocity": 97, "duration": 230}, {"note": 68, "velocity": 99, "duration": 944}, {"note": 0, "velocity": 0, "duration": 256}, {"note": 67, "velocity": 127, "duration": 178}, {"note": 0, "velocity": 0, "duration": 62}, {"note": 68, "velocity": 117, "duration": 1260}, {"note": 67, "velocity": 99, "duration": 255}, {"note": 68, "velocity": 112, "duration": 327}, {"note": 0, "velocity": 0, "duration": 153}, {"note": 72, "velocity": 112, "duration": 134}, {"note": 0, "velocity": 0, "duration": 106}, {"note": 67, "velocity": 122, "duration": 645}, {"note": 0, "velocity": 0, "duration": 75}, {"note": 63, "velocity": 107, "duration": 223}, {"note": 68, "velocity": 102, "duration": 1893}, {"note": 0, "velocity": 0, "duration": 267}, {"note": 75, "velocity": 127, "duration": 808}, {"note": 0, "velocity": 0, "duration": 152}, {"note": 70, "velocity": 127, "duration": 211}, {"note": 68, "velocity": 85, "duration": 281}, {"note": 70, "velocity": 122, "duration": 444}, {"note": 68, "velocity": 112, "duration": 960}, {"note": 63, "velocity": 107, "duration": 766}, {"note": 0, "velocity": 0, "duration": 16394}, {"note": 63, "velocity": 99, "duration": 195}, {"note": 68, "velocity": 100, "duration": 207}, {"note": 70, "velocity": 95, "duration": 214}, {"note": 72, "velocity": 122, "duration": 227}, {"note": 68, "velocity": 96, "duration": 148}, {"note": 0, "velocity": 0, "duration": 92}, {"note": 68, "velocity": 92, "duration": 158}, {"note": 0, "velocity": 0, "duration": 82}, {"note": 63, "velocity": 96, "duration": 716}, {"note": 0, "velocity": 0, "duration": 724}, {"note": 63, "velocity": 99, "duration": 179}, {"note": 0, "velocity": 0, "duration": 61}, {"note": 72, "velocity": 112, "duration": 199}, {"note": 68, "velocity": 97, "duration": 238}, {"note": 70, "velocity": 102, "duration": 127}, {"note": 0, "velocity": 0, "duration": 113}, {"note": 67, "velocity": 122, "duration": 163}, {"note": 0, "velocity": 0, "duration": 77}, {"note": 67, "velocity": 100, "duration": 182}, {"note": 63, "velocity": 102, "duration": 954}, {"note": 0, "velocity": 0, "duration": 486}, {"note": 60, "velocity": 99, "duration": 230}, {"note": 70, "velocity": 107, "duration": 224}, {"note": 67, "velocity": 102, "duration": 252}, {"note": 68, "velocity": 122, "duration": 861}, {"note": 0, "velocity": 0, "duration": 339}, {"note": 67, "velocity": 122, "duration": 181}, {"note": 68, "velocity": 102, "duration": 339}, {"note": 0, "velocity": 0, "duration": 141}, {"note": 72, "velocity": 112, "duration": 187}, {"note": 67, "velocity": 117, "duration": 668}, {"note": 63, "velocity": 100, "duration": 217}, {"note": 65, "velocity": 99, "duration": 1255}, {"note": 0, "velocity": 0, "duration": 785}, {"note": 63, "velocity": 102, "duration": 197}, {"note": 68, "velocity": 100, "duration": 202}, {"note": 70, "velocity": 97, "duration": 226}, {"note": 72, "velocity": 127, "duration": 228}, {"note": 68, "velocity": 102, "duration": 141}, {"note": 0, "velocity": 0, "duration": 99}, {"note": 68, "velocity": 93, "duration": 188}, {"note": 63, "velocity": 102, "duration": 1102}, {"note": 0, "velocity": 0, "duration": 338}, {"note": 63, "velocity": 92, "duration": 226}, {"note": 68, "velocity": 102, "duration": 209}, {"note": 70, "velocity": 93, "duration": 110}, {"note": 0, "velocity": 0, "duration": 130}, {"note": 75, "velocity": 112, "duration": 309}, {"note": 0, "velocity": 0, "duration": 171}, {"note": 70, "velocity": 122, "duration": 481}, {"note": 72, "velocity": 127, "duration": 219}, {"note": 70, "velocity": 97, "duration": 230}, {"note": 68, "velocity": 99, "duration": 944}, {"note": 0, "velocity": 0, "duration": 256}, {"note": 67, "velocity": 127, "duration": 178}, {"note": 0, "velocity": 0, "duration": 62}, {"note": 68, "velocity": 117, "duration": 1260}, {"note": 67, "velocity": 99, "duration": 255}, {"note": 68, "velocity": 112, "duration": 327}, {"note": 0, "velocity": 0, "duration": 153}, {"note": 72, "velocity": 112, "duration": 134}, {"note": 0, "velocity": 0, "duration": 106}, {"note": 67, "velocity": 122, "duration": 645}, {"note": 0, "velocity": 0, "duration": 75}, {"note": 63, "velocity": 107, "duration": 223}, {"note": 65, "velocity": 102, "duration": 1893}, {"note": 0, "velocity": 0, "duration": 8787}, {"note": 56, "velocity": 97, "duration": 190}, {"note": 59, "velocity": 93, "duration": 210}, {"note": 0, "velocity": 0, "duration": 150}, {"note": 63, "velocity": 97, "duration": 194}, {"note": 56, "velocity": 85, "duration": 271}, {"note": 59, "velocity": 96, "duration": 1514}, {"note": 0, "velocity": 0, "duration": 166}, {"note": 56, "velocity": 100, "duration": 315}, {"note": 0, "velocity": 0, "duration": 165}, {"note": 59, "velocity": 112, "duration": 164}, {"note": 0, "velocity": 0, "duration": 76}, {"note": 63, "velocity": 107, "duration": 206}, {"note": 56, "velocity": 92, "duration": 231}, {"note": 58, "velocity": 100, "duration": 1447}, {"note": 0, "velocity": 0, "duration": 233}, {"note": 56, "velocity": 89, "duration": 189}, {"note": 59, "velocity": 122, "duration": 185}, {"note": 61, "velocity": 99, "duration": 205}, {"note": 63, "velocity": 117, "duration": 121}, {"note": 0, "velocity": 0, "duration": 119}, {"note": 66, "velocity": 122, "duration": 241}, {"note": 68, "velocity": 117, "duration": 197}, {"note": 63, "velocity": 127, "duration": 144}, {"note": 61, "velocity": 88, "duration": 130}, {"note": 59, "velocity": 97, "duration": 237}, {"note": 56, "velocity": 96, "duration": 211}, {"note": 63, "velocity": 102, "duration": 209}, {"note": 66, "velocity": 107, "duration": 238}, {"note": 68, "velocity": 122, "duration": 204}, {"note": 63, "velocity": 112, "duration": 151}, {"note": 61, "velocity": 95, "duration": 114}, {"note": 59, "velocity": 112, "duration": 299}, {"note": 0, "velocity": 0, "duration": 181}, {"note": 56, "velocity": 102, "duration": 257}, {"note": 0, "velocity": 0, "duration": 343}, {"note": 63, "velocity": 127, "duration": 3790}]]