[[{"note": 62, "velocity": 99, "duration": 311}, {"note": 0, "velocity": 0, "duration": 169}, {"note": 62, "velocity": 96, "duration": 220}, {"note": 60, "velocity": 78, "duration": 158}, {"note": 0, "velocity": 0, "duration": 82}, {"note": 62, "velocity": 96, "duration": 321}, {"note": 0, "velocity": 0, "duration": 159}, {"note": 62, "velocity": 86, "duration": 219}, {"note": 60, "velocity": 69, "duration": 222}, {"note": 62, "velocity": 72, "duration": 337}, {"note": 0, "velocity": 0, "duration": 143}, {"note": 65, "velocity": 97, "duration": 373}, {"note": 0, "velocity": 0, "duration": 107}, {"note": 58, "velocity": 96, "duration": 373}, {"note": 0, "velocity": 0, "duration": 587}, {"note": 62, "velocity": 81, "duration": 292}, {"note": 0, "velocity": 0, "duration": 188}, {"note": 62, "velocity": 93, "duration": 253}, {"note": 60, "velocity": 60, "duration": 208}, {"note": 62, "velocity": 74, "duration": 396}, {"note": 0, "velocity": 0, "duration": 84}, {"note": 65, "velocity": 95, "duration": 340}, {"note": 0, "velocity": 0, "duration": 140}, {"note": 63, "velocity": 93, "duration": 312}, {"note": 0, "velocity": 0, "duration": 168}, {"note": 62, "velocity": 88, "duration": 197}, {"note": 58, "velocity": 89, "duration": 230}, {"note": 60, "velocity": 81, "duration": 459}, {"note": 0, "velocity": 0, "duration": 501}, {"note": 58, "velocity": 88, "duration": 271}, {"note": 0, "velocity": 0, "duration": 209}, {"note": 67, "velocity": 99, "duration": 131}, {"note": 0, "velocity": 0, "duration": 109}, {"note": 67, "velocity": 90, "duration": 139}, {"note": 0, "velocity": 0, "duration": 101}, {"note": 67, "velocity": 102, "duration": 231}, {"note": 0, "velocity": 0, "duration": 249}, {"note": 58, "velocity": 99, "duration": 130}, {"note": 0, "velocity": 0, "duration": 110}, {"note": 58, "velocity": 89, "duration": 166}, {"note": 0, "velocity": 0, "duration": 74}, {"note": 57, "velocity": 88, "duration": 270}, {"note": 0, "velocity": 0, "duration": 210}, {"note": 67, "velocity": 102, "duration": 426}, {"note": 65, "velocity": 92, "duration": 522}, {"note": 0, "velocity": 0, "duration": 198}, {"note": 65, "velocity": 85, "duration": 111}, {"note": 0, "velocity": 0, "duration": 129}, {"note": 63, "velocity": 88, "duration": 213}, {"note": 62, "velocity": 78, "duration": 249}, {"note": 63, "velocity": 88, "duration": 252}, {"note": 62, "velocity": 69, "duration": 256}, {"note": 63, "velocity": 83, "duration": 532}, {"note": 0, "velocity": 0, "duration": 188}, {"note": 58, "velocity": 89, "duration": 136}, {"note": 0, "velocity": 0, "duration": 104}, {"note": 58, "velocity": 99, "duration": 403}, {"note": 0, "velocity": 0, "duration": 77}, {"note": 62, "velocity": 95, "duration": 496}, {"note": 60, "velocity": 95, "duration": 770}, {"note": 0, "velocity": 0, "duration": 190}, {"note": 62, "velocity": 96, "duration": 275}, {"note": 0, "velocity": 0, "duration": 205}, {"note": 62, "velocity": 96, "duration": 175}, {"note": 0, "velocity": 0, "duration": 65}, {"note": 60, "velocity": 58, "duration": 284}, {"note": 62, "velocity": 82, "duration": 317}, {"note": 0, "velocity": 0, "duration": 163}, {"note": 62, "velocity": 89, "duration": 252}, {"note": 60, "velocity": 72, "duration": 227}, {"note": 62, "velocity": 78, "duration": 358}, {"note": 0, "velocity": 0, "duration": 122}, {"note": 65, "velocity": 97, "duration": 344}, {"note": 0, "velocity": 0, "duration": 136}, {"note": 58, "velocity": 93, "duration": 474}, {"note": 0, "velocity": 0, "duration": 486}, {"note": 62, "velocity": 95, "duration": 284}, {"note": 0, "velocity": 0, "duration": 196}, {"note": 62, "velocity": 93, "duration": 254}, {"note": 60, "velocity": 77, "duration": 222}, {"note": 62, "velocity": 88, "duration": 365}, {"note": 0, "velocity": 0, "duration": 115}, {"note": 65, "velocity": 96, "duration": 381}, {"note": 0, "velocity": 0, "duration": 99}, {"note": 63, "velocity": 93, "duration": 385}, {"note": 0, "velocity": 0, "duration": 95}, {"note": 62, "velocity": 92, "duration": 90}, {"note": 0, "velocity": 0, "duration": 150}, {"note": 58, "velocity": 89, "duration": 202}, {"note": 60, "velocity": 92, "duration": 598}, {"note": 0, "velocity": 0, "duration": 362}, {"note": 58, "velocity": 100, "duration": 402}, {"note": 0, "velocity": 0, "duration": 78}, {"note": 67, "velocity": 99, "duration": 123}, {"note": 0, "velocity": 0, "duration": 117}, {"note": 67, "velocity": 93, "duration": 105}, {"note": 0, "velocity": 0, "duration": 135}, {"note": 67, "velocity": 99, "duration": 367}, {"note": 0, "velocity": 0, "duration": 113}, {"note": 58, "velocity": 102, "duration": 408}, {"note": 0, "velocity": 0, "duration": 72}, {"note": 57, "velocity": 99, "duration": 479}, {"note": 67, "velocity": 107, "duration": 387}, {"note": 0, "velocity": 0, "duration": 93}, {"note": 65, "velocity": 90, "duration": 470}, {"note": 0, "velocity": 0, "duration": 250}, {"note": 65, "velocity": 100, "duration": 81}, {"note": 0, "velocity": 0, "duration": 159}, {"note": 63, "velocity": 117, "duration": 229}, {"note": 62, "velocity": 92, "duration": 224}, {"note": 63, "velocity": 95, "duration": 275}, {"note": 62, "velocity": 90, "duration": 225}, {"note": 63, "velocity": 93, "duration": 383}, {"note": 0, "velocity": 0, "duration": 337}, {"note": 62, "velocity": 88, "duration": 207}, {"note": 63, "velocity": 99, "duration": 371}, {"note": 0, "velocity": 0, "duration": 109}, {"note": 67, "velocity": 100, "duration": 391}, {"note": 0, "velocity": 0, "duration": 89}, {"note": 65, "velocity": 99, "duration": 148}, {"note": 0, "velocity": 0, "duration": 92}, {"note": 65, "velocity": 99, "duration": 85}, {"note": 0, "velocity": 0, "duration": 155}, {"note": 67, "velocity": 96, "duration": 157}, {"note": 0, "velocity": 0, "duration": 83}, {"note": 69, "velocity": 92, "duration": 113}, {"note": 0, "velocity": 0, "duration": 127}, {"note": 70, "velocity": 122, "duration": 365}, {"note": 0, "velocity": 0, "duration": 115}, {"note": 69, "velocity": 122, "duration": 355}, {"note": 0, "velocity": 0, "duration": 125}, {"note": 67, "velocity": 112, "duration": 427}, {"note": 65, "velocity": 99, "duration": 254}, {"note": 0, "velocity": 0, "duration": 226}, {"note": 65, "velocity": 112, "duration": 302}, {"note": 0, "velocity": 0, "duration": 178}, {"note": 62, "velocity": 86, "duration": 186}, {"note": 60, "velocity": 90, "duration": 178}, {"note": 0, "velocity": 0, "duration": 62}, {"note": 58, "velocity": 95, "duration": 378}, {"note": 0, "velocity": 0, "duration": 102}, {"note": 67, "velocity": 100, "duration": 154}, {"note": 0, "velocity": 0, "duration": 86}, {"note": 69, "velocity": 102, "duration": 108}, {"note": 0, "velocity": 0, "duration": 132}, {"note": 70, "velocity": 122, "duration": 316}, {"note": 0, "velocity": 0, "duration": 164}, {"note": 69, "velocity": 100, "duration": 171}, {"note": 0, "velocity": 0, "duration": 69}, {"note": 70, "velocity": 117, "duration": 132}, {"note": 0, "velocity": 0, "duration": 108}, {"note": 72, "velocity": 122, "duration": 335}, {"note": 0, "velocity": 0, "duration": 145}, {"note": 65, "velocity": 102, "duration": 377}, {"note": 0, "velocity": 0, "duration": 103}, {"note": 74, "velocity": 122, "duration": 1265}, {"note": 0, "velocity": 0, "duration": 175}, {"note": 67, "velocity": 97, "duration": 129}, {"note": 0, "velocity": 0, "duration": 111}, {"note": 69, "velocity": 102, "duration": 122}, {"note": 0, "velocity": 0, "duration": 118}, {"note": 70, "velocity": 127, "duration": 357}, {"note": 0, "velocity": 0, "duration": 123}, {"note": 69, "velocity": 112, "duration": 350}, {"note": 0, "velocity": 0, "duration": 130}, {"note": 67, "velocity": 112, "duration": 338}, {"note": 0, "velocity": 0, "duration": 142}, {"note": 65, "velocity": 102, "duration": 248}, {"note": 0, "velocity": 0, "duration": 232}, {"note": 65, "velocity": 112, "duration": 258}, {"note": 0, "velocity": 0, "duration": 222}, {"note": 62, "velocity": 127, "duration": 178}, {"note": 0, "velocity": 0, "duration": 62}, {"note": 60, "velocity": 90, "duration": 129}, {"note": 0, "velocity": 0, "duration": 111}, {"note": 58, "velocity": 107, "duration": 304}, {"note": 0, "velocity": 0, "duration": 176}, {"note": 60, "velocity": 99, "duration": 106}, {"note": 0, "velocity": 0, "duration": 134}, {"note": 62, "velocity": 92, "duration": 90}, {"note": 0, "velocity": 0, "duration": 150}, {"note": 63, "velocity": 112, "duration": 278}, {"note": 0, "velocity": 0, "duration": 202}, {"note": 55, "velocity": 93, "duration": 104}, {"note": 0, "velocity": 0, "duration": 136}, {"note": 55, "velocity": 90, "duration": 102}, {"note": 0, "velocity": 0, "duration": 138}, {"note": 57, "velocity": 99, "duration": 363}, {"note": 0, "velocity": 0, "duration": 117}, {"note": 60, "velocity": 99, "duration": 398}, {"note": 0, "velocity": 0, "duration": 82}, {"note": 58, "velocity": 99, "duration": 1141}, {"note": 65, "velocity": 99, "duration": 85}, {"note": 0, "velocity": 0, "duration": 155}, {"note": 67, "velocity": 96, "duration": 157}, {"note": 0, "velocity": 0, "duration": 83}, {"note": 69, "velocity": 92, "duration": 113}, {"note": 0, "velocity": 0, "duration": 127}, {"note": 70, "velocity": 122, "duration": 365}, {"note": 0, "velocity": 0, "duration": 115}, {"note": 69, "velocity": 122, "duration": 355}, {"note": 0, "velocity": 0, "duration": 125}, {"note": 67, "velocity": 112, "duration": 427}, {"note": 65, "velocity": 99, "duration": 254}, {"note": 0, "velocity": 0, "duration": 226}, {"note": 65, "velocity": 112, "duration": 302}, {"note": 0, "velocity": 0, "duration": 178}, {"note": 62, "velocity": 86, "duration": 186}, {"note": 60, "velocity": 90, "duration": 178}, {"note": 0, "velocity": 0, "duration": 62}, {"note": 58, "velocity": 95, "duration": 378}, {"note": 0, "velocity": 0, "duration": 102}, {"note": 67, "velocity": 100, "duration": 154}, {"note": 0, "velocity": 0, "duration": 86}, {"note": 69, "velocity": 102, "duration": 108}, {"note": 0, "velocity": 0, "duration": 132}, {"note": 70, "velocity": 122, "duration": 316}, {"note": 0, "velocity": 0, "duration": 164}, {"note": 69, "velocity": 100, "duration": 171}, {"note": 0, "velocity": 0, "duration": 69}, {"note": 70, "velocity": 117, "duration": 132}, {"note": 0, "velocity": 0, "duration": 108}, {"note": 72, "velocity": 122, "duration": 335}, {"note": 0, "velocity": 0, "duration": 145}, {"note": 65, "velocity": 102, "duration": 377}, {"note": 0, "velocity": 0, "duration": 103}, {"note": 74, "velocity": 122, "duration": 1265}, {"note": 0, "velocity": 0, "duration": 175}, {"note": 67, "velocity": 97, "duration": 129}, {"note": 0, "velocity": 0, "duration": 111}, {"note": 69, "velocity": 102, "duration": 122}, {"note": 0, "velocity": 0, "duration": 118}, {"note": 70, "velocity": 127, "duration": 357}, {"note": 0, "velocity": 0, "duration": 123}, {"note": 69, "velocity": 112, "duration": 350}, {"note": 0, "velocity": 0, "duration": 130}, {"note": 67, "velocity": 112, "duration": 338}, {"note": 0, "velocity": 0, "duration": 142}, {"note": 65, "velocity": 102, "duration": 248}, {"note": 0, "velocity": 0, "duration": 232}, {"note": 65, "velocity": 112, "duration": 258}, {"note": 0, "velocity": 0, "duration": 222}, {"note": 62, "velocity": 127, "duration": 178}, {"note": 0, "velocity": 0, "duration": 62}, {"note": 60, "velocity": 90, "duration": 129}, {"note": 0, "velocity": 0, "duration": 111}, {"note": 58, "velocity": 107, "duration": 304}, {"note": 0, "velocity": 0, "duration": 176}, {"note": 60, "velocity": 99, "duration": 106}, {"note": 0, "velocity": 0, "duration": 134}, {"note": 62, "velocity": 92, "duration": 90}, {"note": 0, "velocity": 0, "duration": 150}, {"note": 63, "velocity": 112, "duration": 278}, {"note": 0, "velocity": 0, "duration": 202}, {"note": 55, "velocity": 93, "duration": 104}, {"note": 0, "velocity": 0, "duration": 136}, {"note": 55, "velocity": 90, "duration": 102}, {"note": 0, "velocity": 0, "duration": 138}, {"note": 57, "velocity": 99, "duration": 363}, {"note": 0, "velocity": 0, "duration": 117}, {"note": 60, "velocity": 99, "duration": 398}, {"note": 0, "velocity": 0, "duration": 82}, {"note": 58, "velocity": 99, "duration": 1141}, {"note": 0, "velocity": 0, "duration": 16139}, {"note": 62, "velocity": 99, "duration": 311}, {"note": 0, "velocity": 0, "duration": 169}, {"note": 62, "velocity": 96, "duration": 220}, {"note": 60, "velocity": 78, "duration": 158}, {"note": 0, "velocity": 0, "duration": 82}, {"note": 62, "velocity": 96, "duration": 321}, {"note": 0, "velocity": 0, "duration": 159}, {"note": 62, "velocity": 86, "duration": 219}, {"note": 60, "velocity": 69, "duration": 222}, {"note": 62, "velocity": 72, "duration": 337}, {"note": 0, "velocity": 0, "duration": 143}, {"note": 65, "velocity": 97, "duration": 373}, {"note": 0, "velocity": 0, "duration": 107}, {"note": 58, "velocity": 96, "duration": 373}, {"note": 0, "velocity": 0, "duration": 587}, {"note": 62, "velocity": 81, "duration": 292}, {"note": 0, "velocity": 0, "duration": 188}, {"note": 62, "velocity": 93, "duration": 253}, {"note": 60, "velocity": 60, "duration": 208}, {"note": 62, "velocity": 74, "duration": 396}, {"note": 0, "velocity": 0, "duration": 84}, {"note": 65, "velocity": 95, "duration": 340}, {"note": 0, "velocity": 0, "duration": 140}, {"note": 63, "velocity": 93, "duration": 312}, {"note": 0, "velocity": 0, "duration": 168}, {"note": 62, "velocity": 88, "duration": 197}, {"note": 58, "velocity": 89, "duration": 230}, {"note": 60, "velocity": 81, "duration": 459}, {"note": 0, "velocity": 0, "duration": 501}, {"note": 58, "velocity": 88, "duration": 271}, {"note": 0, "velocity": 0, "duration": 209}, {"note": 67, "velocity": 99, "duration": 131}, {"note": 0, "velocity": 0, "duration": 109}, {"note": 67, "velocity": 90, "duration": 139}, {"note": 0, "velocity": 0, "duration": 101}, {"note": 67, "velocity": 102, "duration": 231}, {"note": 0, "velocity": 0, "duration": 249}, {"note": 58, "velocity": 99, "duration": 130}, {"note": 0, "velocity": 0, "duration": 110}, {"note": 58, "velocity": 89, "duration": 166}, {"note": 0, "velocity": 0, "duration": 74}, {"note": 57, "velocity": 88, "duration": 270}, {"note": 0, "velocity": 0, "duration": 210}, {"note": 67, "velocity": 102, "duration": 426}, {"note": 65, "velocity": 92, "duration": 522}, {"note": 0, "velocity": 0, "duration": 198}, {"note": 65, "velocity": 85, "duration": 111}, {"note": 0, "velocity": 0, "duration": 129}, {"note": 63, "velocity": 88, "duration": 213}, {"note": 62, "velocity": 78, "duration": 249}, {"note": 63, "velocity": 88, "duration": 252}, {"note": 62, "velocity": 69, "duration": 256}, {"note": 63, "velocity": 83, "duration": 532}, {"note": 0, "velocity": 0, "duration": 188}, {"note": 58, "velocity": 89, "duration": 136}, {"note": 0, "velocity": 0, "duration": 104}, {"note": 58, "velocity": 99, "duration": 403}, {"note": 0, "velocity": 0, "duration": 77}, {"note": 62, "velocity": 95, "duration": 496}, {"note": 60, "velocity": 95, "duration": 770}, {"note": 0, "velocity": 0, "duration": 190}, {"note": 62, "velocity": 96, "duration": 275}, {"note": 0, "velocity": 0, "duration": 205}, {"note": 62, "velocity": 96, "duration": 175}, {"note": 0, "velocity": 0, "duration": 65}, {"note": 60, "velocity": 58, "duration": 284}, {"note": 62, "velocity": 82, "duration": 317}, {"note": 0, "velocity": 0, "duration": 163}, {"note": 62, "velocity": 89, "duration": 252}, {"note": 60, "velocity": 72, "duration": 227}, {"note": 62, "velocity": 78, "duration": 358}, {"note": 0, "velocity": 0, "duration": 122}, {"note": 65, "velocity": 97, "duration": 344}, {"note": 0, "velocity": 0, "duration": 136}, {"note": 58, "velocity": 93, "duration": 474}, {"note": 0, "velocity": 0, "duration": 486}, {"note": 62, "velocity": 95, "duration": 284}, {"note": 0, "velocity": 0, "duration": 196}, {"note": 62, "velocity": 93, "duration": 254}, {"note": 60, "velocity": 77, "duration": 222}, {"note": 62, "velocity": 88, "duration": 365}, {"note": 0, "velocity": 0, "duration": 115}, {"note": 65, "velocity": 96, "duration": 381}, {"note": 0, "velocity": 0, "duration": 99}, {"note": 63, "velocity": 93, "duration": 385}, {"note": 0, "velocity": 0, "duration": 95}, {"note": 62, "velocity": 92, "duration": 90}, {"note": 0, "velocity": 0, "duration": 150}, {"note": 58, "velocity": 89, "duration": 202}, {"note": 60, "velocity": 92, "duration": 598}, {"note": 0, "velocity": 0, "duration": 362}, {"note": 58, "velocity": 100, "duration": 402}, {"note": 0, "velocity": 0, "duration": 78}, {"note": 67, "velocity": 99, "duration": 123}, {"note": 0, "velocity": 0, "duration": 117}, {"note": 67, "velocity": 93, "duration": 105}, {"note": 0, "velocity": 0, "duration": 135}, {"note": 67, "velocity": 99, "duration": 367}, {"note": 0, "velocity": 0, "duration": 113}, {"note": 58, "velocity": 102, "duration": 408}, {"note": 0, "velocity": 0, "duration": 72}, {"note": 57, "velocity": 99, "duration": 479}, {"note": 67, "velocity": 107, "duration": 387}, {"note": 0, "velocity": 0, "duration": 93}, {"note": 65, "velocity": 90, "duration": 470}, {"note": 0, "velocity": 0, "duration": 250}, {"note": 65, "velocity": 100, "duration": 81}, {"note": 0, "velocity": 0, "duration": 159}, {"note": 63, "velocity": 117, "duration": 229}, {"note": 62, "velocity": 92, "duration": 224}, {"note": 63, "velocity": 95, "duration": 275}, {"note": 62, "velocity": 90, "duration": 225}, {"note": 63, "velocity": 93, "duration": 383}, {"note": 0, "velocity": 0, "duration": 337}, {"note": 62, "velocity": 88, "duration": 207}, {"note": 63, "velocity": 99, "duration": 371}, {"note": 0, "velocity": 0, "duration": 109}, {"note": 67, "velocity": 100, "duration": 391}, {"note": 0, "velocity": 0, "duration": 89}, {"note": 65, "velocity": 99, "duration": 148}, {"note": 0, "velocity": 0, "duration": 92}, {"note": 65, "velocity": 99, "duration": 85}, {"note": 0, "velocity": 0, "duration": 155}, {"note": 67, "velocity": 96, "duration": 157}, {"note": 0, "velocity": 0, "duration": 83}, {"note": 69, "velocity": 92, "duration": 113}, {"note": 0, "velocity": 0, "duration": 127}, {"note": 70, "velocity": 122, "duration": 365}, {"note": 0, "velocity": 0, "duration": 115}, {"note": 69, "velocity": 122, "duration": 355}, {"note": 0, "velocity": 0, "duration": 125}, {"note": 67, "velocity": 112, "duration": 427}, {"note": 65, "velocity": 99, "duration": 254}, {"note": 0, "velocity": 0, "duration": 226}, {"note": 65, "velocity": 112, "duration": 302}, {"note": 0, "velocity": 0, "duration": 178}, {"note": 62, "velocity": 86, "duration": 186}, {"note": 60, "velocity": 90, "duration": 178}, {"note": 0, "velocity": 0, "duration": 62}, {"note": 58, "velocity": 95, "duration": 378}, {"note": 0, "velocity": 0, "duration": 102}, {"note": 67, "velocity": 100, "duration": 154}, {"note": 0, "velocity": 0, "duration": 86}, {"note": 69, "velocity": 102, "duration": 108}, {"note": 0, "velocity": 0, "duration": 132}, {"note": 70, "velocity": 122, "duration": 316}, {"note": 0, "velocity": 0, "duration": 164}, {"note": 69, "velocity": 100, "duration": 171}, {"note": 0, "velocity": 0, "duration": 69}, {"note": 70, "velocity": 117, "duration": 132}, {"note": 0, "velocity": 0, "duration": 108}, {"note": 72, "velocity": 122, "duration": 335}, {"note": 0, "velocity": 0, "duration": 145}, {"note": 65, "velocity": 102, "duration": 377}, {"note": 0, "velocity": 0, "duration": 103}, {"note": 74, "velocity": 122, "duration": 1265}, {"note": 0, "velocity": 0, "duration": 175}, {"note": 67, "velocity": 97, "duration": 129}, {"note": 0, "velocity": 0, "duration": 111}, {"note": 69, "velocity": 102, "duration": 122}, {"note": 0, "velocity": 0, "duration": 118}, {"note": 70, "velocity": 127, "duration": 357}, {"note": 0, "velocity": 0, "duration": 123}, {"note": 69, "velocity": 112, "duration": 350}, {"note": 0, "velocity": 0, "duration": 130}, {"note": 67, "velocity": 112, "duration": 338}, {"note": 0, "velocity": 0, "duration": 142}, {"note": 65, "velocity": 102, "duration": 248}, {"note": 0, "velocity": 0, "duration": 232}, {"note": 65, "velocity": 112, "duration": 258}, {"note": 0, "velocity": 0, "duration": 222}, {"note": 62, "velocity": 127, "duration": 178}, {"note": 0, "velocity": 0, "duration": 62}, {"note": 60, "velocity": 90, "duration": 129}, {"note": 0, "velocity": 0, "duration": 111}, {"note": 58, "velocity": 107, "duration": 304}, {"note": 0, "velocity": 0, "duration": 176}, {"note": 60, "velocity": 99, "duration": 106}, {"note": 0, "velocity": 0, "duration": 134}, {"note": 62, "velocity": 92, "duration": 90}, {"note": 0, "velocity": 0, "duration": 150}, {"note": 63, "velocity": 112, "duration": 278}, {"note": 0, "velocity": 0, "duration": 202}, {"note": 55, "velocity": 93, "duration": 104}, {"note": 0, "velocity": 0, "duration": 136}, {"note": 55, "velocity": 90, "duration": 102}, {"note": 0, "velocity": 0, "duration": 138}, {"note": 57, "velocity": 99, "duration": 363}, {"note": 0, "velocity": 0, "duration": 117}, {"note": 60, "velocity": 99, "duration": 398}, {"note": 0, "velocity": 0, "duration": 82}, {"note": 58, "velocity": 99, "duration": 1141}, {"note": 65, "velocity": 99, "duration": 85}, {"note": 0, "velocity": 0, "duration": 155}, {"note": 67, "velocity": 96, "duration": 157}, {"note": 0, "velocity": 0, "duration": 83}, {"note": 69, "velocity": 92, "duration": 113}, {"note": 0, "velocity": 0, "duration": 127}, {"note": 70, "velocity": 122, "duration": 365}, {"note": 0, "velocity": 0, "duration": 115}, {"note": 69, "velocity": 122, "duration": 355}, {"note": 0, "velocity": 0, "duration": 125}, {"note": 67, "velocity": 112, "duration": 427}, {"note": 65, "velocity": 99, "duration": 254}, {"note": 0, "velocity": 0, "duration": 226}, {"note": 65, "velocity": 112, "duration": 302}, {"note": 0, "velocity": 0, "duration": 178}, {"note": 62, "velocity": 86, "duration": 186}, {"note": 60, "velocity": 90, "duration": 178}, {"note": 0, "velocity": 0, "duration": 62}, {"note": 58, "velocity": 95, "duration": 378}, {"note": 0, "velocity": 0, "duration": 102}, {"note": 67, "velocity": 100, "duration": 154}, {"note": 0, "velocity": 0, "duration": 86}, {"note": 69, "velocity": 102, "duration": 108}, {"note": 0, "velocity": 0, "duration": 132}, {"note": 70, "velocity": 122, "duration": 316}, {"note": 0, "velocity": 0, "duration": 164}, {"note": 69, "velocity": 100, "duration": 171}, {"note": 0, "velocity": 0, "duration": 69}, {"note": 70, "velocity": 117, "duration": 132}, {"note": 0, "velocity": 0, "duration": 108}, {"note": 72, "velocity": 122, "duration": 335}, {"note": 0, "velocity": 0, "duration": 145}, {"note": 65, "velocity": 102, "duration": 377}, {"note": 0, "velocity": 0, "duration": 103}, {"note": 74, "velocity": 122, "duration": 1265}, {"note": 0, "velocity": 0, "duration": 175}, {"note": 67, "velocity": 97, "duration": 129}, {"note": 0, "velocity": 0, "duration": 111}, {"note": 69, "velocity": 102, "duration": 122}, {"note": 0, "velocity": 0, "duration": 118}, {"note": 70, "velocity": 127, "duration": 357}, {"note": 0, "velocity": 0, "duration": 123}, {"note": 69, "velocity": 112, "duration": 350}, {"note": 0, "velocity": 0, "duration": 130}, {"note": 67, "velocity": 112, "duration": 338}, {"note": 0, "velocity": 0, "duration": 142}, {"note": 65, "velocity": 102, "duration": 248}, {"note": 0, "velocity": 0, "duration": 232}, {"note": 65, "velocity": 112, "duration": 258}, {"note": 0, "velocity": 0, "duration": 222}, {"note": 74, "velocity": 127, "duration": 178}, {"note": 0, "velocity": 0, "duration": 62}, {"note": 72, "velocity": 90, "duration": 129}, {"note": 0, "velocity": 0, "duration": 111}, {"note": 70, "velocity": 107, "duration": 304}, {"note": 0, "velocity": 0, "duration": 176}, {"note": 60, "velocity": 99, "duration": 106}, {"note": 0, "velocity": 0, "duration": 134}, {"note": 62, "velocity": 92, "duration": 90}, {"note": 0, "velocity": 0, "duration": 150}, {"note": 63, "velocity": 112, "duration": 278}, {"note": 0, "velocity": 0, "duration": 202}, {"note": 55, "velocity": 93, "duration": 104}, {"note": 0, "velocity": 0, "duration": 136}, {"note": 55, "velocity": 90, "duration": 102}, {"note": 0, "velocity": 0, "duration": 138}, {"note": 57, "velocity": 99, "duration": 363}, {"note": 0, "velocity": 0, "duration": 117}, {"note": 60, "velocity": 99, "duration": 398}, {"note": 0, "velocity": 0, "duration": 82}, {"note": 58, "velocity": 99, "duration": 1141}, {"note": 65, "velocity": 99, "duration": 85}, {"note": 0, "velocity": 0, "duration": 155}, {"note": 67, "velocity": 96, "duration": 157}, {"note": 0, "velocity": 0, "duration": 83}, {"note": 69, "velocity": 92, "duration": 113}, {"note": 0, "velocity": 0, "duration": 127}, {"note": 70, "velocity": 122, "duration": 365}, {"note": 0, "velocity": 0, "duration": 115}, {"note": 69, "velocity": 122, "duration": 355}, {"note": 0, "velocity": 0, "duration": 125}, {"note": 67, "velocity": 112, "duration": 427}, {"note": 65, "velocity": 99, "duration": 254}, {"note": 0, "velocity": 0, "duration": 226}, {"note": 65, "velocity": 112, "duration": 302}, {"note": 0, "velocity": 0, "duration": 178}, {"note": 62, "velocity": 86, "duration": 186}, {"note": 60, "velocity": 90, "duration": 178}, {"note": 0, "velocity": 0, "duration": 62}, {"note": 58, "velocity": 95, "duration": 378}, {"note": 0, "velocity": 0, "duration": 102}, {"note": 67, "velocity": 100, "duration": 154}, {"note": 0, "velocity": 0, "duration": 86}, {"note": 69, "velocity": 102, "duration": 108}, {"note": 0, "velocity": 0, "duration": 132}, {"note": 70, "velocity": 122, "duration": 316}, {"note": 0, "velocity": 0, "duration": 164}, {"note": 69, "velocity": 100, "duration": 171}, {"note": 0, "velocity": 0, "duration": 69}, {"note": 70, "velocity": 117, "duration": 132}, {"note": 0, "velocity": 0, "duration": 108}, {"note": 72, "velocity": 122, "duration": 335}, {"note": 0, "velocity": 0, "duration": 145}, {"note": 65, "velocity": 102, "duration": 377}, {"note": 0, "velocity": 0, "duration": 103}, {"note": 74, "velocity": 122, "duration": 1265}, {"note": 0, "velocity": 0, "duration": 175}, {"note": 67, "velocity": 97, "duration": 129}, {"note": 0, "velocity": 0, "duration": 111}, {"note": 69, "velocity": 102, "duration": 122}, {"note": 0, "velocity": 0, "duration": 118}, {"note": 70, "velocity": 127, "duration": 357}, {"note": 0, "velocity": 0, "duration": 123}, {"note": 69, "velocity": 112, "duration": 350}, {"note": 0, "velocity": 0, "duration": 130}, {"note": 67, "velocity": 112, "duration": 338}, {"note": 0, "velocity": 0, "duration": 142}, {"note": 65, "velocity": 102, "duration": 248}, {"note": 0, "velocity": 0, "duration": 232}, {"note": 65, "velocity": 112, "duration": 258}, {"note": 0, "velocity": 0, "duration": 222}, {"note": 74, "velocity": 117, "duration": 290}, {"note": 72, "velocity": 102, "duration": 198}, {"note": 70, "velocity": 107, "duration": 218}, {"note": 0, "velocity": 0, "duration": 262}, {"note": 60, "velocity": 99, "duration": 106}, {"note": 0, "velocity": 0, "duration": 134}, {"note": 62, "velocity": 92, "duration": 90}, {"note": 0, "velocity": 0, "duration": 150}, {"note": 63, "velocity": 112, "duration": 278}, {"note": 0, "velocity": 0, "duration": 202}, {"note": 55, "velocity": 93, "duration": 104}, {"note": 0, "velocity": 0, "duration": 136}, {"note": 55, "velocity": 90, "duration": 102}, {"note": 0, "velocity": 0, "duration": 138}, {"note": 57, "velocity": 99, "duration": 363}, {"note": 0, "velocity": 0, "duration": 117}, {"note": 60, "velocity": 99, "duration": 398}, {"note": 0, "velocity": 0, "duration": 82}, {"note": 58, "velocity": 99, "duration": 1141}, {"note": 0, "velocity": 0, "duration": 299}, {"note": 60, "velocity": 99, "duration": 106}, {"note": 0, "velocity": 0, "duration": 134}, {"note": 62, "velocity": 92, "duration": 90}, {"note": 0, "velocity": 0, "duration": 150}, {"note": 63, "velocity": 112, "duration": 278}, {"note": 0, "velocity": 0, "duration": 202}, {"note": 55, "velocity": 93, "duration": 104}, {"note": 0, "velocity": 0, "duration": 136}, {"note": 55, "velocity": 90, "duration": 102}, {"note": 0, "velocity": 0, "duration": 138}, {"note": 57, "velocity": 99, "duration": 363}, {"note": 0, "velocity": 0, "duration": 117}, {"note": 60, "velocity": 99, "duration": 398}, {"note": 0, "velocity": 0, "duration": 82}, {"note": 58, "velocity": 99, "duration": 1141}]]