[[{"note": 65, "velocity": 77, "duration": 97}, {"note": 74, "velocity": 99, "duration": 161}, {"note": 0, "velocity": 0, "duration": 79}, {"note": 74, "velocity": 75, "duration": 102}, {"note": 72, "velocity": 74, "duration": 193}, {"note": 74, "velocity": 82, "duration": 297}, {"note": 0, "velocity": 0, "duration": 903}, {"note": 72, "velocity": 56, "duration": 127}, {"note": 70, "velocity": 75, "duration": 184}, {"note": 70, "velocity": 68, "duration": 66}, {"note": 70, "velocity": 72, "duration": 329}, {"note": 67, "velocity": 42, "duration": 792}, {"note": 0, "velocity": 0, "duration": 288}, {"note": 65, "velocity": 63, "duration": 118}, {"note": 70, "velocity": 54, "duration": 162}, {"note": 0, "velocity": 0, "duration": 78}, {"note": 70, "velocity": 97, "duration": 90}, {"note": 72, "velocity": 90, "duration": 156}, {"note": 0, "velocity": 0, "duration": 84}, {"note": 74, "velocity": 69, "duration": 472}, {"note": 0, "velocity": 0, "duration": 728}, {"note": 70, "velocity": 83, "duration": 88}, {"note": 74, "velocity": 96, "duration": 189}, {"note": 72, "velocity": 72, "duration": 50}, {"note": 0, "velocity": 0, "duration": 70}, {"note": 72, "velocity": 85, "duration": 236}, {"note": 69, "velocity": 78, "duration": 585}, {"note": 0, "velocity": 0, "duration": 615}, {"note": 77, "velocity": 67, "duration": 104}, {"note": 79, "velocity": 78, "duration": 55}, {"note": 0, "velocity": 0, "duration": 65}, {"note": 79, "velocity": 69, "duration": 50}, {"note": 0, "velocity": 0, "duration": 70}, {"note": 79, "velocity": 75, "duration": 51}, {"note": 0, "velocity": 0, "duration": 69}, {"note": 79, "velocity": 66, "duration": 45}, {"note": 0, "velocity": 0, "duration": 75}, {"note": 79, "velocity": 99, "duration": 131}, {"note": 0, "velocity": 0, "duration": 109}, {"note": 77, "velocity": 78, "duration": 42}, {"note": 0, "velocity": 0, "duration": 78}, {"note": 77, "velocity": 86, "duration": 110}, {"note": 0, "velocity": 0, "duration": 130}, {"note": 79, "velocity": 99, "duration": 195}, {"note": 0, "velocity": 0, "duration": 285}, {"note": 79, "velocity": 85, "duration": 119}, {"note": 77, "velocity": 75, "duration": 115}, {"note": 74, "velocity": 92, "duration": 72}, {"note": 77, "velocity": 78, "duration": 92}, {"note": 74, "velocity": 81, "duration": 66}, {"note": 77, "velocity": 72, "duration": 114}, {"note": 74, "velocity": 83, "duration": 80}, {"note": 77, "velocity": 88, "duration": 86}, {"note": 74, "velocity": 90, "duration": 71}, {"note": 0, "velocity": 0, "duration": 169}, {"note": 77, "velocity": 82, "duration": 279}, {"note": 0, "velocity": 0, "duration": 681}, {"note": 70, "velocity": 95, "duration": 79}, {"note": 74, "velocity": 88, "duration": 114}, {"note": 0, "velocity": 0, "duration": 126}, {"note": 72, "velocity": 88, "duration": 524}, {"note": 0, "velocity": 0, "duration": 676}, {"note": 72, "velocity": 90, "duration": 95}, {"note": 74, "velocity": 69, "duration": 110}, {"note": 0, "velocity": 0, "duration": 130}, {"note": 70, "velocity": 66, "duration": 746}, {"note": 0, "velocity": 0, "duration": 1174}, {"note": 65, "velocity": 77, "duration": 97}, {"note": 74, "velocity": 99, "duration": 161}, {"note": 0, "velocity": 0, "duration": 79}, {"note": 74, "velocity": 75, "duration": 102}, {"note": 72, "velocity": 74, "duration": 193}, {"note": 74, "velocity": 82, "duration": 297}, {"note": 0, "velocity": 0, "duration": 903}, {"note": 72, "velocity": 56, "duration": 127}, {"note": 70, "velocity": 75, "duration": 184}, {"note": 70, "velocity": 68, "duration": 66}, {"note": 70, "velocity": 72, "duration": 329}, {"note": 67, "velocity": 87, "duration": 792}, {"note": 0, "velocity": 0, "duration": 288}, {"note": 65, "velocity": 63, "duration": 118}, {"note": 70, "velocity": 54, "duration": 162}, {"note": 0, "velocity": 0, "duration": 78}, {"note": 70, "velocity": 97, "duration": 90}, {"note": 72, "velocity": 90, "duration": 156}, {"note": 0, "velocity": 0, "duration": 84}, {"note": 74, "velocity": 69, "duration": 472}, {"note": 0, "velocity": 0, "duration": 608}, {"note": 74, "velocity": 93, "duration": 86}, {"note": 70, "velocity": 83, "duration": 88}, {"note": 74, "velocity": 96, "duration": 189}, {"note": 72, "velocity": 72, "duration": 50}, {"note": 0, "velocity": 0, "duration": 70}, {"note": 72, "velocity": 85, "duration": 236}, {"note": 69, "velocity": 78, "duration": 585}, {"note": 0, "velocity": 0, "duration": 615}, {"note": 77, "velocity": 67, "duration": 104}, {"note": 79, "velocity": 78, "duration": 55}, {"note": 0, "velocity": 0, "duration": 65}, {"note": 79, "velocity": 69, "duration": 50}, {"note": 0, "velocity": 0, "duration": 70}, {"note": 79, "velocity": 75, "duration": 51}, {"note": 0, "velocity": 0, "duration": 69}, {"note": 79, "velocity": 66, "duration": 45}, {"note": 0, "velocity": 0, "duration": 75}, {"note": 79, "velocity": 99, "duration": 131}, {"note": 0, "velocity": 0, "duration": 109}, {"note": 77, "velocity": 78, "duration": 42}, {"note": 0, "velocity": 0, "duration": 78}, {"note": 77, "velocity": 86, "duration": 110}, {"note": 0, "velocity": 0, "duration": 130}, {"note": 79, "velocity": 99, "duration": 195}, {"note": 0, "velocity": 0, "duration": 285}, {"note": 79, "velocity": 85, "duration": 119}, {"note": 77, "velocity": 75, "duration": 115}, {"note": 74, "velocity": 92, "duration": 72}, {"note": 0, "velocity": 0, "duration": 288}, {"note": 74, "velocity": 92, "duration": 79}, {"note": 77, "velocity": 83, "duration": 103}, {"note": 0, "velocity": 0, "duration": 137}, {"note": 74, "velocity": 92, "duration": 78}, {"note": 0, "velocity": 0, "duration": 162}, {"note": 77, "velocity": 82, "duration": 279}, {"note": 0, "velocity": 0, "duration": 681}, {"note": 70, "velocity": 95, "duration": 79}, {"note": 74, "velocity": 88, "duration": 114}, {"note": 0, "velocity": 0, "duration": 126}, {"note": 72, "velocity": 88, "duration": 524}, {"note": 0, "velocity": 0, "duration": 676}, {"note": 74, "velocity": 100, "duration": 174}, {"note": 0, "velocity": 0, "duration": 66}, {"note": 72, "velocity": 78, "duration": 163}, {"note": 0, "velocity": 0, "duration": 77}, {"note": 70, "velocity": 88, "duration": 470}, {"note": 0, "velocity": 0, "duration": 970}, {"note": 65, "velocity": 100, "duration": 133}, {"note": 70, "velocity": 102, "duration": 142}, {"note": 0, "velocity": 0, "duration": 98}, {"note": 72, "velocity": 99, "duration": 78}, {"note": 75, "velocity": 112, "duration": 188}, {"note": 74, "velocity": 93, "duration": 68}, {"note": 74, "velocity": 100, "duration": 176}, {"note": 0, "velocity": 0, "duration": 64}, {"note": 70, "velocity": 112, "duration": 595}, {"note": 0, "velocity": 0, "duration": 725}, {"note": 75, "velocity": 127, "duration": 165}, {"note": 0, "velocity": 0, "duration": 75}, {"note": 74, "velocity": 81, "duration": 104}, {"note": 72, "velocity": 92, "duration": 121}, {"note": 0, "velocity": 0, "duration": 239}, {"note": 70, "velocity": 99, "duration": 240}, {"note": 72, "velocity": 97, "duration": 94}, {"note": 72, "velocity": 100, "duration": 143}, {"note": 0, "velocity": 0, "duration": 97}, {"note": 70, "velocity": 96, "duration": 89}, {"note": 74, "velocity": 102, "duration": 279}, {"note": 0, "velocity": 0, "duration": 81}, {"note": 74, "velocity": 96, "duration": 81}, {"note": 75, "velocity": 102, "duration": 136}, {"note": 0, "velocity": 0, "duration": 104}, {"note": 74, "velocity": 112, "duration": 82}, {"note": 72, "velocity": 96, "duration": 82}, {"note": 0, "velocity": 0, "duration": 158}, {"note": 70, "velocity": 117, "duration": 644}, {"note": 0, "velocity": 0, "duration": 676}, {"note": 75, "velocity": 127, "duration": 173}, {"note": 0, "velocity": 0, "duration": 67}, {"note": 74, "velocity": 95, "duration": 126}, {"note": 72, "velocity": 92, "duration": 157}, {"note": 0, "velocity": 0, "duration": 83}, {"note": 70, "velocity": 112, "duration": 50}, {"note": 0, "velocity": 0, "duration": 70}, {"note": 70, "velocity": 99, "duration": 52}, {"note": 0, "velocity": 0, "duration": 68}, {"note": 70, "velocity": 99, "duration": 62}, {"note": 72, "velocity": 100, "duration": 139}, {"note": 0, "velocity": 0, "duration": 101}, {"note": 74, "velocity": 122, "duration": 95}, {"note": 72, "velocity": 96, "duration": 121}, {"note": 0, "velocity": 0, "duration": 119}, {"note": 70, "velocity": 122, "duration": 144}, {"note": 0, "velocity": 0, "duration": 96}, {"note": 72, "velocity": 100, "duration": 63}, {"note": 75, "velocity": 112, "duration": 188}, {"note": 74, "velocity": 93, "duration": 68}, {"note": 74, "velocity": 100, "duration": 176}, {"note": 0, "velocity": 0, "duration": 64}, {"note": 70, "velocity": 112, "duration": 595}, {"note": 0, "velocity": 0, "duration": 725}, {"note": 75, "velocity": 127, "duration": 165}, {"note": 0, "velocity": 0, "duration": 75}, {"note": 74, "velocity": 81, "duration": 104}, {"note": 72, "velocity": 92, "duration": 121}, {"note": 0, "velocity": 0, "duration": 239}, {"note": 70, "velocity": 99, "duration": 240}, {"note": 72, "velocity": 97, "duration": 94}, {"note": 72, "velocity": 100, "duration": 143}, {"note": 0, "velocity": 0, "duration": 97}, {"note": 70, "velocity": 96, "duration": 89}, {"note": 74, "velocity": 102, "duration": 279}, {"note": 0, "velocity": 0, "duration": 81}, {"note": 74, "velocity": 96, "duration": 81}, {"note": 75, "velocity": 102, "duration": 136}, {"note": 0, "velocity": 0, "duration": 104}, {"note": 74, "velocity": 112, "duration": 82}, {"note": 72, "velocity": 96, "duration": 82}, {"note": 0, "velocity": 0, "duration": 158}, {"note": 70, "velocity": 117, "duration": 644}, {"note": 0, "velocity": 0, "duration": 676}, {"note": 75, "velocity": 127, "duration": 173}, {"note": 0, "velocity": 0, "duration": 67}, {"note": 74, "velocity": 95, "duration": 126}, {"note": 72, "velocity": 92, "duration": 157}, {"note": 0, "velocity": 0, "duration": 83}, {"note": 70, "velocity": 112, "duration": 50}, {"note": 0, "velocity": 0, "duration": 70}, {"note": 70, "velocity": 99, "duration": 52}, {"note": 0, "velocity": 0, "duration": 68}, {"note": 70, "velocity": 99, "duration": 62}, {"note": 72, "velocity": 100, "duration": 139}, {"note": 0, "velocity": 0, "duration": 101}, {"note": 74, "velocity": 122, "duration": 95}, {"note": 72, "velocity": 96, "duration": 121}, {"note": 0, "velocity": 0, "duration": 119}, {"note": 70, "velocity": 90, "duration": 282}, {"note": 0, "velocity": 0, "duration": 78}, {"note": 70, "velocity": 100, "duration": 786}, {"note": 0, "velocity": 0, "duration": 2934}, {"note": 65, "velocity": 77, "duration": 97}, {"note": 74, "velocity": 99, "duration": 161}, {"note": 0, "velocity": 0, "duration": 79}, {"note": 74, "velocity": 75, "duration": 102}, {"note": 72, "velocity": 74, "duration": 193}, {"note": 74, "velocity": 82, "duration": 297}, {"note": 0, "velocity": 0, "duration": 903}, {"note": 72, "velocity": 56, "duration": 127}, {"note": 70, "velocity": 75, "duration": 184}, {"note": 70, "velocity": 68, "duration": 66}, {"note": 70, "velocity": 72, "duration": 329}, {"note": 67, "velocity": 87, "duration": 792}, {"note": 0, "velocity": 0, "duration": 288}, {"note": 65, "velocity": 63, "duration": 118}, {"note": 70, "velocity": 54, "duration": 162}, {"note": 0, "velocity": 0, "duration": 78}, {"note": 70, "velocity": 97, "duration": 90}, {"note": 72, "velocity": 90, "duration": 156}, {"note": 0, "velocity": 0, "duration": 84}, {"note": 74, "velocity": 69, "duration": 472}, {"note": 0, "velocity": 0, "duration": 608}, {"note": 74, "velocity": 93, "duration": 86}, {"note": 70, "velocity": 83, "duration": 88}, {"note": 74, "velocity": 96, "duration": 189}, {"note": 72, "velocity": 72, "duration": 50}, {"note": 0, "velocity": 0, "duration": 70}, {"note": 72, "velocity": 85, "duration": 236}, {"note": 69, "velocity": 78, "duration": 585}, {"note": 0, "velocity": 0, "duration": 615}, {"note": 77, "velocity": 67, "duration": 104}, {"note": 79, "velocity": 78, "duration": 55}, {"note": 0, "velocity": 0, "duration": 65}, {"note": 79, "velocity": 69, "duration": 50}, {"note": 0, "velocity": 0, "duration": 70}, {"note": 79, "velocity": 75, "duration": 51}, {"note": 0, "velocity": 0, "duration": 69}, {"note": 79, "velocity": 66, "duration": 45}, {"note": 0, "velocity": 0, "duration": 75}, {"note": 79, "velocity": 99, "duration": 131}, {"note": 0, "velocity": 0, "duration": 109}, {"note": 77, "velocity": 78, "duration": 42}, {"note": 0, "velocity": 0, "duration": 78}, {"note": 77, "velocity": 86, "duration": 110}, {"note": 0, "velocity": 0, "duration": 130}, {"note": 79, "velocity": 99, "duration": 195}, {"note": 0, "velocity": 0, "duration": 285}, {"note": 79, "velocity": 85, "duration": 119}, {"note": 77, "velocity": 75, "duration": 115}, {"note": 74, "velocity": 92, "duration": 72}, {"note": 0, "velocity": 0, "duration": 288}, {"note": 74, "velocity": 92, "duration": 79}, {"note": 77, "velocity": 83, "duration": 103}, {"note": 0, "velocity": 0, "duration": 137}, {"note": 74, "velocity": 92, "duration": 78}, {"note": 0, "velocity": 0, "duration": 162}, {"note": 77, "velocity": 82, "duration": 279}, {"note": 0, "velocity": 0, "duration": 681}, {"note": 70, "velocity": 95, "duration": 79}, {"note": 74, "velocity": 88, "duration": 114}, {"note": 0, "velocity": 0, "duration": 126}, {"note": 72, "velocity": 88, "duration": 524}, {"note": 0, "velocity": 0, "duration": 676}, {"note": 74, "velocity": 100, "duration": 174}, {"note": 0, "velocity": 0, "duration": 66}, {"note": 72, "velocity": 78, "duration": 163}, {"note": 0, "velocity": 0, "duration": 77}, {"note": 70, "velocity": 88, "duration": 470}, {"note": 0, "velocity": 0, "duration": 1090}, {"note": 65, "velocity": 100, "duration": 133}, {"note": 70, "velocity": 102, "duration": 142}, {"note": 72, "velocity": 99, "duration": 78}, {"note": 75, "velocity": 112, "duration": 188}, {"note": 74, "velocity": 93, "duration": 68}, {"note": 74, "velocity": 100, "duration": 176}, {"note": 0, "velocity": 0, "duration": 64}, {"note": 70, "velocity": 112, "duration": 595}, {"note": 0, "velocity": 0, "duration": 725}, {"note": 75, "velocity": 127, "duration": 165}, {"note": 0, "velocity": 0, "duration": 75}, {"note": 74, "velocity": 81, "duration": 104}, {"note": 72, "velocity": 92, "duration": 121}, {"note": 0, "velocity": 0, "duration": 239}, {"note": 70, "velocity": 99, "duration": 240}, {"note": 72, "velocity": 97, "duration": 94}, {"note": 72, "velocity": 100, "duration": 143}, {"note": 0, "velocity": 0, "duration": 97}, {"note": 70, "velocity": 96, "duration": 89}, {"note": 74, "velocity": 102, "duration": 279}, {"note": 0, "velocity": 0, "duration": 81}, {"note": 74, "velocity": 96, "duration": 81}, {"note": 75, "velocity": 102, "duration": 136}, {"note": 0, "velocity": 0, "duration": 104}, {"note": 74, "velocity": 112, "duration": 82}, {"note": 72, "velocity": 96, "duration": 82}, {"note": 0, "velocity": 0, "duration": 158}, {"note": 70, "velocity": 117, "duration": 644}, {"note": 0, "velocity": 0, "duration": 676}, {"note": 75, "velocity": 127, "duration": 173}, {"note": 0, "velocity": 0, "duration": 67}, {"note": 74, "velocity": 95, "duration": 126}, {"note": 72, "velocity": 92, "duration": 157}, {"note": 0, "velocity": 0, "duration": 83}, {"note": 70, "velocity": 112, "duration": 50}, {"note": 0, "velocity": 0, "duration": 70}, {"note": 70, "velocity": 99, "duration": 52}, {"note": 0, "velocity": 0, "duration": 68}, {"note": 70, "velocity": 99, "duration": 62}, {"note": 72, "velocity": 100, "duration": 139}, {"note": 0, "velocity": 0, "duration": 101}, {"note": 74, "velocity": 122, "duration": 95}, {"note": 72, "velocity": 96, "duration": 121}, {"note": 0, "velocity": 0, "duration": 119}, {"note": 70, "velocity": 122, "duration": 144}, {"note": 0, "velocity": 0, "duration": 96}, {"note": 72, "velocity": 100, "duration": 63}, {"note": 75, "velocity": 112, "duration": 188}, {"note": 74, "velocity": 93, "duration": 68}, {"note": 74, "velocity": 100, "duration": 176}, {"note": 0, "velocity": 0, "duration": 64}, {"note": 70, "velocity": 112, "duration": 595}, {"note": 0, "velocity": 0, "duration": 725}, {"note": 75, "velocity": 127, "duration": 165}, {"note": 0, "velocity": 0, "duration": 75}, {"note": 74, "velocity": 81, "duration": 104}, {"note": 72, "velocity": 92, "duration": 121}, {"note": 0, "velocity": 0, "duration": 239}, {"note": 70, "velocity": 99, "duration": 240}, {"note": 72, "velocity": 97, "duration": 94}, {"note": 72, "velocity": 100, "duration": 143}, {"note": 0, "velocity": 0, "duration": 97}, {"note": 70, "velocity": 96, "duration": 89}, {"note": 74, "velocity": 102, "duration": 128}, {"note": 65, "velocity": 86, "duration": 106}, {"note": 70, "velocity": 86, "duration": 129}, {"note": 72, "velocity": 95, "duration": 95}, {"note": 75, "velocity": 102, "duration": 136}, {"note": 0, "velocity": 0, "duration": 104}, {"note": 74, "velocity": 112, "duration": 82}, {"note": 72, "velocity": 96, "duration": 82}, {"note": 0, "velocity": 0, "duration": 158}, {"note": 70, "velocity": 117, "duration": 644}, {"note": 0, "velocity": 0, "duration": 676}, {"note": 75, "velocity": 127, "duration": 173}, {"note": 0, "velocity": 0, "duration": 67}, {"note": 74, "velocity": 95, "duration": 126}, {"note": 72, "velocity": 92, "duration": 157}, {"note": 0, "velocity": 0, "duration": 83}, {"note": 70, "velocity": 112, "duration": 50}, {"note": 0, "velocity": 0, "duration": 70}, {"note": 70, "velocity": 99, "duration": 52}, {"note": 0, "velocity": 0, "duration": 68}, {"note": 70, "velocity": 99, "duration": 62}, {"note": 72, "velocity": 100, "duration": 139}, {"note": 0, "velocity": 0, "duration": 101}, {"note": 74, "velocity": 122, "duration": 95}, {"note": 72, "velocity": 96, "duration": 121}, {"note": 0, "velocity": 0, "duration": 119}, {"note": 70, "velocity": 90, "duration": 282}, {"note": 0, "velocity": 0, "duration": 78}, {"note": 70, "velocity": 100, "duration": 786}, {"note": 0, "velocity": 0, "duration": 16734}, {"note": 72, "velocity": 100, "duration": 66}, {"note": 72, "velocity": 97, "duration": 53}, {"note": 0, "velocity": 0, "duration": 67}, {"note": 72, "velocity": 100, "duration": 139}, {"note": 0, "velocity": 0, "duration": 101}, {"note": 74, "velocity": 112, "duration": 53}, {"note": 0, "velocity": 0, "duration": 67}, {"note": 75, "velocity": 117, "duration": 274}, {"note": 0, "velocity": 0, "duration": 86}, {"note": 74, "velocity": 122, "duration": 84}, {"note": 72, "velocity": 99, "duration": 202}, {"note": 0, "velocity": 0, "duration": 158}, {"note": 70, "velocity": 122, "duration": 68}, {"note": 74, "velocity": 102, "duration": 262}, {"note": 77, "velocity": 112, "duration": 574}, {"note": 0, "velocity": 0, "duration": 1466}, {"note": 72, "velocity": 96, "duration": 50}, {"note": 0, "velocity": 0, "duration": 70}, {"note": 72, "velocity": 100, "duration": 55}, {"note": 0, "velocity": 0, "duration": 65}, {"note": 72, "velocity": 112, "duration": 98}, {"note": 0, "velocity": 0, "duration": 142}, {"note": 74, "velocity": 127, "duration": 47}, {"note": 0, "velocity": 0, "duration": 73}, {"note": 75, "velocity": 122, "duration": 212}, {"note": 0, "velocity": 0, "duration": 388}, {"note": 74, "velocity": 127, "duration": 121}, {"note": 72, "velocity": 107, "duration": 89}, {"note": 0, "velocity": 0, "duration": 151}, {"note": 70, "velocity": 127, "duration": 74}, {"note": 74, "velocity": 102, "duration": 714}, {"note": 0, "velocity": 0, "duration": 1446}, {"note": 72, "velocity": 102, "duration": 48}, {"note": 0, "velocity": 0, "duration": 72}, {"note": 72, "velocity": 100, "duration": 49}, {"note": 0, "velocity": 0, "duration": 71}, {"note": 72, "velocity": 102, "duration": 119}, {"note": 0, "velocity": 0, "duration": 121}, {"note": 74, "velocity": 97, "duration": 65}, {"note": 75, "velocity": 112, "duration": 218}, {"note": 0, "velocity": 0, "duration": 142}, {"note": 79, "velocity": 122, "duration": 150}, {"note": 0, "velocity": 0, "duration": 90}, {"note": 77, "velocity": 122, "duration": 149}, {"note": 0, "velocity": 0, "duration": 91}, {"note": 75, "velocity": 102, "duration": 97}, {"note": 77, "velocity": 117, "duration": 1560}, {"note": 0, "velocity": 0, "duration": 720}, {"note": 77, "velocity": 89, "duration": 68}, {"note": 77, "velocity": 95, "duration": 54}, {"note": 0, "velocity": 0, "duration": 66}, {"note": 77, "velocity": 99, "duration": 109}, {"note": 0, "velocity": 0, "duration": 131}, {"note": 77, "velocity": 117, "duration": 54}, {"note": 0, "velocity": 0, "duration": 66}, {"note": 77, "velocity": 117, "duration": 278}, {"note": 0, "velocity": 0, "duration": 202}, {"note": 77, "velocity": 102, "duration": 58}, {"note": 0, "velocity": 0, "duration": 62}, {"note": 77, "velocity": 117, "duration": 95}, {"note": 0, "velocity": 0, "duration": 65}, {"note": 77, "velocity": 112, "duration": 88}, {"note": 0, "velocity": 0, "duration": 72}, {"note": 77, "velocity": 100, "duration": 51}, {"note": 0, "velocity": 0, "duration": 109}, {"note": 77, "velocity": 127, "duration": 78}, {"note": 79, "velocity": 127, "duration": 1434}, {"note": 67, "velocity": 100, "duration": 133}, {"note": 72, "velocity": 102, "duration": 142}, {"note": 74, "velocity": 99, "duration": 78}, {"note": 77, "velocity": 112, "duration": 188}, {"note": 76, "velocity": 93, "duration": 68}, {"note": 76, "velocity": 100, "duration": 176}, {"note": 0, "velocity": 0, "duration": 64}, {"note": 72, "velocity": 112, "duration": 595}, {"note": 0, "velocity": 0, "duration": 725}, {"note": 77, "velocity": 127, "duration": 165}, {"note": 0, "velocity": 0, "duration": 75}, {"note": 76, "velocity": 81, "duration": 104}, {"note": 74, "velocity": 92, "duration": 121}, {"note": 0, "velocity": 0, "duration": 239}, {"note": 72, "velocity": 99, "duration": 240}, {"note": 74, "velocity": 97, "duration": 94}, {"note": 74, "velocity": 100, "duration": 143}, {"note": 0, "velocity": 0, "duration": 97}, {"note": 72, "velocity": 96, "duration": 89}, {"note": 76, "velocity": 102, "duration": 279}, {"note": 0, "velocity": 0, "duration": 81}, {"note": 76, "velocity": 96, "duration": 81}, {"note": 77, "velocity": 102, "duration": 136}, {"note": 0, "velocity": 0, "duration": 104}, {"note": 76, "velocity": 112, "duration": 82}, {"note": 74, "velocity": 96, "duration": 82}, {"note": 0, "velocity": 0, "duration": 158}, {"note": 72, "velocity": 117, "duration": 644}, {"note": 0, "velocity": 0, "duration": 676}, {"note": 77, "velocity": 127, "duration": 173}, {"note": 0, "velocity": 0, "duration": 67}, {"note": 76, "velocity": 95, "duration": 126}, {"note": 74, "velocity": 92, "duration": 157}, {"note": 0, "velocity": 0, "duration": 83}, {"note": 72, "velocity": 112, "duration": 50}, {"note": 0, "velocity": 0, "duration": 70}, {"note": 72, "velocity": 99, "duration": 52}, {"note": 0, "velocity": 0, "duration": 68}, {"note": 72, "velocity": 99, "duration": 62}, {"note": 74, "velocity": 100, "duration": 139}, {"note": 0, "velocity": 0, "duration": 101}, {"note": 76, "velocity": 122, "duration": 95}, {"note": 74, "velocity": 96, "duration": 121}, {"note": 0, "velocity": 0, "duration": 119}, {"note": 72, "velocity": 122, "duration": 144}, {"note": 0, "velocity": 0, "duration": 96}, {"note": 74, "velocity": 100, "duration": 63}, {"note": 77, "velocity": 112, "duration": 188}, {"note": 76, "velocity": 93, "duration": 68}, {"note": 76, "velocity": 100, "duration": 176}, {"note": 0, "velocity": 0, "duration": 64}, {"note": 72, "velocity": 112, "duration": 595}, {"note": 0, "velocity": 0, "duration": 725}, {"note": 77, "velocity": 127, "duration": 165}, {"note": 0, "velocity": 0, "duration": 75}, {"note": 76, "velocity": 81, "duration": 104}, {"note": 74, "velocity": 92, "duration": 121}, {"note": 0, "velocity": 0, "duration": 239}, {"note": 72, "velocity": 99, "duration": 240}, {"note": 74, "velocity": 97, "duration": 94}, {"note": 74, "velocity": 100, "duration": 143}, {"note": 0, "velocity": 0, "duration": 97}, {"note": 72, "velocity": 96, "duration": 89}, {"note": 76, "velocity": 102, "duration": 128}, {"note": 67, "velocity": 86, "duration": 106}, {"note": 72, "velocity": 86, "duration": 129}, {"note": 74, "velocity": 95, "duration": 95}, {"note": 77, "velocity": 102, "duration": 136}, {"note": 0, "velocity": 0, "duration": 104}, {"note": 76, "velocity": 112, "duration": 82}, {"note": 74, "velocity": 96, "duration": 82}, {"note": 0, "velocity": 0, "duration": 158}, {"note": 72, "velocity": 117, "duration": 644}, {"note": 0, "velocity": 0, "duration": 676}, {"note": 77, "velocity": 127, "duration": 173}, {"note": 0, "velocity": 0, "duration": 67}, {"note": 76, "velocity": 95, "duration": 126}, {"note": 74, "velocity": 92, "duration": 157}, {"note": 0, "velocity": 0, "duration": 83}, {"note": 72, "velocity": 112, "duration": 50}, {"note": 0, "velocity": 0, "duration": 70}, {"note": 72, "velocity": 99, "duration": 52}, {"note": 0, "velocity": 0, "duration": 68}, {"note": 72, "velocity": 99, "duration": 62}, {"note": 74, "velocity": 100, "duration": 139}, {"note": 0, "velocity": 0, "duration": 101}, {"note": 76, "velocity": 122, "duration": 95}, {"note": 74, "velocity": 96, "duration": 121}, {"note": 0, "velocity": 0, "duration": 119}, {"note": 72, "velocity": 90, "duration": 282}, {"note": 74, "velocity": 89, "duration": 70}, {"note": 77, "velocity": 102, "duration": 132}, {"note": 0, "velocity": 0, "duration": 108}, {"note": 76, "velocity": 102, "duration": 93}, {"note": 74, "velocity": 97, "duration": 180}, {"note": 0, "velocity": 0, "duration": 180}, {"note": 79, "velocity": 127, "duration": 1080}, {"note": 0, "velocity": 0, "duration": 120}, {"note": 77, "velocity": 127, "duration": 165}, {"note": 0, "velocity": 0, "duration": 75}, {"note": 76, "velocity": 81, "duration": 104}, {"note": 74, "velocity": 92, "duration": 121}, {"note": 0, "velocity": 0, "duration": 239}, {"note": 72, "velocity": 99, "duration": 240}, {"note": 74, "velocity": 97, "duration": 94}, {"note": 74, "velocity": 107, "duration": 95}, {"note": 72, "velocity": 88, "duration": 85}, {"note": 76, "velocity": 127, "duration": 180}, {"note": 67, "velocity": 96, "duration": 145}, {"note": 72, "velocity": 107, "duration": 118}, {"note": 76, "velocity": 96, "duration": 81}, {"note": 77, "velocity": 102, "duration": 136}, {"note": 0, "velocity": 0, "duration": 104}, {"note": 76, "velocity": 112, "duration": 82}, {"note": 74, "velocity": 96, "duration": 82}, {"note": 0, "velocity": 0, "duration": 158}, {"note": 72, "velocity": 117, "duration": 840}, {"note": 0, "velocity": 0, "duration": 480}, {"note": 77, "velocity": 127, "duration": 173}, {"note": 0, "velocity": 0, "duration": 67}, {"note": 76, "velocity": 95, "duration": 126}, {"note": 74, "velocity": 92, "duration": 157}, {"note": 0, "velocity": 0, "duration": 83}, {"note": 72, "velocity": 112, "duration": 50}, {"note": 0, "velocity": 0, "duration": 70}, {"note": 72, "velocity": 99, "duration": 52}, {"note": 0, "velocity": 0, "duration": 68}, {"note": 72, "velocity": 99, "duration": 62}, {"note": 74, "velocity": 100, "duration": 139}, {"note": 0, "velocity": 0, "duration": 101}, {"note": 76, "velocity": 122, "duration": 95}, {"note": 74, "velocity": 96, "duration": 121}, {"note": 0, "velocity": 0, "duration": 119}, {"note": 72, "velocity": 122, "duration": 144}, {"note": 0, "velocity": 0, "duration": 96}, {"note": 74, "velocity": 100, "duration": 63}, {"note": 77, "velocity": 112, "duration": 188}, {"note": 76, "velocity": 93, "duration": 68}, {"note": 76, "velocity": 100, "duration": 176}, {"note": 0, "velocity": 0, "duration": 64}, {"note": 72, "velocity": 112, "duration": 595}, {"note": 0, "velocity": 0, "duration": 725}, {"note": 77, "velocity": 127, "duration": 165}, {"note": 0, "velocity": 0, "duration": 75}, {"note": 76, "velocity": 81, "duration": 104}, {"note": 74, "velocity": 92, "duration": 121}, {"note": 0, "velocity": 0, "duration": 239}, {"note": 72, "velocity": 99, "duration": 240}, {"note": 74, "velocity": 97, "duration": 94}, {"note": 74, "velocity": 100, "duration": 143}, {"note": 72, "velocity": 96, "duration": 89}, {"note": 76, "velocity": 102, "duration": 128}, {"note": 0, "velocity": 0, "duration": 112}, {"note": 67, "velocity": 86, "duration": 106}, {"note": 72, "velocity": 86, "duration": 129}, {"note": 74, "velocity": 95, "duration": 95}, {"note": 77, "velocity": 102, "duration": 136}, {"note": 0, "velocity": 0, "duration": 104}, {"note": 76, "velocity": 112, "duration": 82}, {"note": 74, "velocity": 96, "duration": 82}, {"note": 0, "velocity": 0, "duration": 158}, {"note": 72, "velocity": 117, "duration": 644}, {"note": 0, "velocity": 0, "duration": 676}, {"note": 77, "velocity": 127, "duration": 173}, {"note": 0, "velocity": 0, "duration": 67}, {"note": 76, "velocity": 95, "duration": 126}, {"note": 74, "velocity": 92, "duration": 157}, {"note": 0, "velocity": 0, "duration": 83}, {"note": 72, "velocity": 112, "duration": 50}, {"note": 0, "velocity": 0, "duration": 70}, {"note": 72, "velocity": 99, "duration": 52}, {"note": 0, "velocity": 0, "duration": 68}, {"note": 72, "velocity": 99, "duration": 62}, {"note": 74, "velocity": 100, "duration": 139}, {"note": 0, "velocity": 0, "duration": 101}, {"note": 76, "velocity": 122, "duration": 95}, {"note": 74, "velocity": 96, "duration": 121}, {"note": 0, "velocity": 0, "duration": 239}, {"note": 72, "velocity": 122, "duration": 2156}, {"note": 0, "velocity": 0, "duration": 1564}, {"note": 67, "velocity": 72, "duration": 158}, {"note": 72, "velocity": 78, "duration": 152}, {"note": 74, "velocity": 92, "duration": 85}, {"note": 77, "velocity": 102, "duration": 188}, {"note": 76, "velocity": 93, "duration": 111}, {"note": 74, "velocity": 81, "duration": 218}, {"note": 72, "velocity": 78, "duration": 1133}, {"note": 0, "velocity": 0, "duration": 187}, {"note": 77, "velocity": 102, "duration": 300}, {"note": 76, "velocity": 96, "duration": 281}, {"note": 0, "velocity": 0, "duration": 199}, {"note": 74, "velocity": 97, "duration": 246}, {"note": 72, "velocity": 93, "duration": 466}, {"note": 0, "velocity": 0, "duration": 374}, {"note": 77, "velocity": 112, "duration": 1045}, {"note": 76, "velocity": 95, "duration": 672}, {"note": 0, "velocity": 0, "duration": 168}, {"note": 74, "velocity": 93, "duration": 129}, {"note": 72, "velocity": 63, "duration": 126}, {"note": 67, "velocity": 72, "duration": 1060}, {"note": 74, "velocity": 89, "duration": 301}, {"note": 74, "velocity": 88, "duration": 325}, {"note": 72, "velocity": 79, "duration": 2239}]]