[[{"note": 57, "velocity": 81, "duration": 231}, {"note": 59, "velocity": 65, "duration": 234}, {"note": 62, "velocity": 74, "duration": 240}, {"note": 66, "velocity": 88, "duration": 177}, {"note": 0, "velocity": 0, "duration": 63}, {"note": 69, "velocity": 95, "duration": 599}, {"note": 0, "velocity": 0, "duration": 361}, {"note": 71, "velocity": 89, "duration": 98}, {"note": 73, "velocity": 93, "duration": 363}, {"note": 0, "velocity": 0, "duration": 237}, {"note": 71, "velocity": 95, "duration": 212}, {"note": 66, "velocity": 81, "duration": 112}, {"note": 66, "velocity": 76, "duration": 662}, {"note": 0, "velocity": 0, "duration": 178}, {"note": 71, "velocity": 99, "duration": 69}, {"note": 73, "velocity": 99, "duration": 272}, {"note": 0, "velocity": 0, "duration": 88}, {"note": 71, "velocity": 96, "duration": 146}, {"note": 0, "velocity": 0, "duration": 94}, {"note": 71, "velocity": 86, "duration": 152}, {"note": 0, "velocity": 0, "duration": 88}, {"note": 69, "velocity": 83, "duration": 197}, {"note": 71, "velocity": 95, "duration": 224}, {"note": 69, "velocity": 83, "duration": 268}, {"note": 0, "velocity": 0, "duration": 92}, {"note": 66, "velocity": 83, "duration": 139}, {"note": 64, "velocity": 77, "duration": 123}, {"note": 0, "velocity": 0, "duration": 117}, {"note": 64, "velocity": 85, "duration": 993}, {"note": 0, "velocity": 0, "duration": 687}, {"note": 57, "velocity": 68, "duration": 223}, {"note": 59, "velocity": 71, "duration": 212}, {"note": 62, "velocity": 92, "duration": 199}, {"note": 66, "velocity": 93, "duration": 202}, {"note": 69, "velocity": 96, "duration": 402}, {"note": 0, "velocity": 0, "duration": 558}, {"note": 71, "velocity": 97, "duration": 204}, {"note": 73, "velocity": 83, "duration": 91}, {"note": 74, "velocity": 95, "duration": 449}, {"note": 0, "velocity": 0, "duration": 391}, {"note": 69, "velocity": 93, "duration": 135}, {"note": 71, "velocity": 89, "duration": 309}, {"note": 69, "velocity": 86, "duration": 547}, {"note": 71, "velocity": 96, "duration": 51}, {"note": 71, "velocity": 83, "duration": 57}, {"note": 0, "velocity": 0, "duration": 63}, {"note": 71, "velocity": 95, "duration": 213}, {"note": 0, "velocity": 0, "duration": 147}, {"note": 73, "velocity": 100, "duration": 123}, {"note": 71, "velocity": 83, "duration": 193}, {"note": 69, "velocity": 100, "duration": 161}, {"note": 0, "velocity": 0, "duration": 79}, {"note": 66, "velocity": 100, "duration": 121}, {"note": 64, "velocity": 66, "duration": 112}, {"note": 62, "velocity": 90, "duration": 191}, {"note": 64, "velocity": 99, "duration": 1045}, {"note": 0, "velocity": 0, "duration": 395}, {"note": 59, "velocity": 92, "duration": 482}, {"note": 62, "velocity": 99, "duration": 1390}, {"note": 0, "velocity": 0, "duration": 530}, {"note": 64, "velocity": 99, "duration": 156}, {"note": 0, "velocity": 0, "duration": 84}, {"note": 64, "velocity": 81, "duration": 56}, {"note": 0, "velocity": 0, "duration": 64}, {"note": 64, "velocity": 61, "duration": 53}, {"note": 0, "velocity": 0, "duration": 67}, {"note": 64, "velocity": 83, "duration": 128}, {"note": 0, "velocity": 0, "duration": 112}, {"note": 64, "velocity": 96, "duration": 135}, {"note": 0, "velocity": 0, "duration": 345}, {"note": 62, "velocity": 93, "duration": 193}, {"note": 64, "velocity": 88, "duration": 154}, {"note": 0, "velocity": 0, "duration": 86}, {"note": 71, "velocity": 117, "duration": 296}, {"note": 0, "velocity": 0, "duration": 184}, {"note": 69, "velocity": 96, "duration": 212}, {"note": 66, "velocity": 95, "duration": 726}, {"note": 0, "velocity": 0, "duration": 714}, {"note": 71, "velocity": 107, "duration": 149}, {"note": 0, "velocity": 0, "duration": 91}, {"note": 71, "velocity": 96, "duration": 56}, {"note": 0, "velocity": 0, "duration": 64}, {"note": 71, "velocity": 112, "duration": 234}, {"note": 0, "velocity": 0, "duration": 126}, {"note": 71, "velocity": 112, "duration": 263}, {"note": 0, "velocity": 0, "duration": 217}, {"note": 69, "velocity": 93, "duration": 203}, {"note": 71, "velocity": 93, "duration": 151}, {"note": 0, "velocity": 0, "duration": 89}, {"note": 74, "velocity": 117, "duration": 435}, {"note": 71, "velocity": 112, "duration": 367}, {"note": 0, "velocity": 0, "duration": 353}, {"note": 69, "velocity": 112, "duration": 875}, {"note": 0, "velocity": 0, "duration": 2005}, {"note": 74, "velocity": 107, "duration": 224}, {"note": 76, "velocity": 99, "duration": 57}, {"note": 0, "velocity": 0, "duration": 63}, {"note": 76, "velocity": 102, "duration": 341}, {"note": 74, "velocity": 102, "duration": 155}, {"note": 0, "velocity": 0, "duration": 85}, {"note": 74, "velocity": 107, "duration": 244}, {"note": 76, "velocity": 127, "duration": 70}, {"note": 76, "velocity": 117, "duration": 349}, {"note": 74, "velocity": 112, "duration": 226}, {"note": 0, "velocity": 0, "duration": 254}, {"note": 74, "velocity": 112, "duration": 197}, {"note": 76, "velocity": 127, "duration": 139}, {"note": 0, "velocity": 0, "duration": 101}, {"note": 78, "velocity": 127, "duration": 155}, {"note": 0, "velocity": 0, "duration": 85}, {"note": 78, "velocity": 127, "duration": 575}, {"note": 0, "velocity": 0, "duration": 385}, {"note": 76, "velocity": 122, "duration": 298}, {"note": 0, "velocity": 0, "duration": 62}, {"note": 74, "velocity": 112, "duration": 233}, {"note": 0, "velocity": 0, "duration": 127}, {"note": 71, "velocity": 107, "duration": 152}, {"note": 0, "velocity": 0, "duration": 88}, {"note": 76, "velocity": 127, "duration": 335}, {"note": 74, "velocity": 102, "duration": 268}, {"note": 0, "velocity": 0, "duration": 92}, {"note": 71, "velocity": 99, "duration": 262}, {"note": 0, "velocity": 0, "duration": 218}, {"note": 69, "velocity": 107, "duration": 508}, {"note": 0, "velocity": 0, "duration": 92}, {"note": 71, "velocity": 93, "duration": 88}, {"note": 69, "velocity": 88, "duration": 78}, {"note": 66, "velocity": 107, "duration": 377}, {"note": 0, "velocity": 0, "duration": 103}, {"note": 64, "velocity": 102, "duration": 450}, {"note": 74, "velocity": 112, "duration": 214}, {"note": 76, "velocity": 99, "duration": 67}, {"note": 76, "velocity": 96, "duration": 309}, {"note": 74, "velocity": 102, "duration": 133}, {"note": 0, "velocity": 0, "duration": 107}, {"note": 74, "velocity": 102, "duration": 245}, {"note": 76, "velocity": 107, "duration": 63}, {"note": 76, "velocity": 122, "duration": 254}, {"note": 0, "velocity": 0, "duration": 106}, {"note": 74, "velocity": 107, "duration": 203}, {"note": 0, "velocity": 0, "duration": 277}, {"note": 74, "velocity": 107, "duration": 200}, {"note": 76, "velocity": 122, "duration": 171}, {"note": 0, "velocity": 0, "duration": 69}, {"note": 81, "velocity": 127, "duration": 286}, {"note": 0, "velocity": 0, "duration": 194}, {"note": 78, "velocity": 127, "duration": 491}, {"note": 0, "velocity": 0, "duration": 229}, {"note": 76, "velocity": 117, "duration": 330}, {"note": 74, "velocity": 117, "duration": 316}, {"note": 71, "velocity": 100, "duration": 250}, {"note": 76, "velocity": 117, "duration": 255}, {"note": 0, "velocity": 0, "duration": 105}, {"note": 78, "velocity": 127, "duration": 276}, {"note": 0, "velocity": 0, "duration": 84}, {"note": 74, "velocity": 100, "duration": 252}, {"note": 76, "velocity": 97, "duration": 284}, {"note": 74, "velocity": 89, "duration": 1377}, {"note": 0, "velocity": 0, "duration": 15663}, {"note": 57, "velocity": 81, "duration": 231}, {"note": 59, "velocity": 65, "duration": 234}, {"note": 62, "velocity": 74, "duration": 240}, {"note": 66, "velocity": 88, "duration": 177}, {"note": 0, "velocity": 0, "duration": 63}, {"note": 69, "velocity": 95, "duration": 599}, {"note": 0, "velocity": 0, "duration": 361}, {"note": 71, "velocity": 89, "duration": 98}, {"note": 73, "velocity": 93, "duration": 363}, {"note": 0, "velocity": 0, "duration": 237}, {"note": 71, "velocity": 95, "duration": 212}, {"note": 66, "velocity": 81, "duration": 112}, {"note": 66, "velocity": 76, "duration": 662}, {"note": 0, "velocity": 0, "duration": 178}, {"note": 71, "velocity": 99, "duration": 69}, {"note": 73, "velocity": 99, "duration": 272}, {"note": 0, "velocity": 0, "duration": 88}, {"note": 71, "velocity": 96, "duration": 146}, {"note": 0, "velocity": 0, "duration": 94}, {"note": 71, "velocity": 86, "duration": 152}, {"note": 0, "velocity": 0, "duration": 88}, {"note": 69, "velocity": 83, "duration": 197}, {"note": 71, "velocity": 95, "duration": 224}, {"note": 69, "velocity": 83, "duration": 268}, {"note": 0, "velocity": 0, "duration": 92}, {"note": 66, "velocity": 83, "duration": 139}, {"note": 64, "velocity": 77, "duration": 123}, {"note": 0, "velocity": 0, "duration": 117}, {"note": 64, "velocity": 85, "duration": 993}, {"note": 0, "velocity": 0, "duration": 687}, {"note": 57, "velocity": 68, "duration": 223}, {"note": 59, "velocity": 71, "duration": 212}, {"note": 62, "velocity": 92, "duration": 199}, {"note": 66, "velocity": 93, "duration": 202}, {"note": 69, "velocity": 96, "duration": 402}, {"note": 0, "velocity": 0, "duration": 558}, {"note": 71, "velocity": 97, "duration": 204}, {"note": 73, "velocity": 83, "duration": 91}, {"note": 74, "velocity": 95, "duration": 449}, {"note": 0, "velocity": 0, "duration": 391}, {"note": 69, "velocity": 93, "duration": 135}, {"note": 71, "velocity": 89, "duration": 309}, {"note": 69, "velocity": 86, "duration": 547}, {"note": 71, "velocity": 96, "duration": 51}, {"note": 71, "velocity": 83, "duration": 57}, {"note": 0, "velocity": 0, "duration": 63}, {"note": 71, "velocity": 95, "duration": 213}, {"note": 0, "velocity": 0, "duration": 147}, {"note": 73, "velocity": 100, "duration": 123}, {"note": 71, "velocity": 83, "duration": 193}, {"note": 69, "velocity": 100, "duration": 161}, {"note": 0, "velocity": 0, "duration": 79}, {"note": 66, "velocity": 100, "duration": 121}, {"note": 64, "velocity": 66, "duration": 112}, {"note": 62, "velocity": 90, "duration": 191}, {"note": 64, "velocity": 99, "duration": 1045}, {"note": 0, "velocity": 0, "duration": 395}, {"note": 59, "velocity": 92, "duration": 482}, {"note": 62, "velocity": 99, "duration": 1390}, {"note": 0, "velocity": 0, "duration": 530}, {"note": 64, "velocity": 99, "duration": 156}, {"note": 0, "velocity": 0, "duration": 84}, {"note": 64, "velocity": 81, "duration": 56}, {"note": 0, "velocity": 0, "duration": 64}, {"note": 64, "velocity": 61, "duration": 53}, {"note": 0, "velocity": 0, "duration": 67}, {"note": 64, "velocity": 83, "duration": 128}, {"note": 0, "velocity": 0, "duration": 112}, {"note": 64, "velocity": 96, "duration": 135}, {"note": 0, "velocity": 0, "duration": 345}, {"note": 62, "velocity": 93, "duration": 193}, {"note": 64, "velocity": 88, "duration": 154}, {"note": 0, "velocity": 0, "duration": 86}, {"note": 71, "velocity": 117, "duration": 296}, {"note": 0, "velocity": 0, "duration": 184}, {"note": 69, "velocity": 96, "duration": 212}, {"note": 66, "velocity": 95, "duration": 726}, {"note": 0, "velocity": 0, "duration": 714}, {"note": 71, "velocity": 107, "duration": 149}, {"note": 0, "velocity": 0, "duration": 91}, {"note": 71, "velocity": 96, "duration": 56}, {"note": 0, "velocity": 0, "duration": 64}, {"note": 71, "velocity": 112, "duration": 234}, {"note": 0, "velocity": 0, "duration": 126}, {"note": 71, "velocity": 112, "duration": 263}, {"note": 0, "velocity": 0, "duration": 217}, {"note": 69, "velocity": 93, "duration": 203}, {"note": 71, "velocity": 93, "duration": 151}, {"note": 0, "velocity": 0, "duration": 89}, {"note": 74, "velocity": 117, "duration": 435}, {"note": 71, "velocity": 112, "duration": 367}, {"note": 0, "velocity": 0, "duration": 353}, {"note": 69, "velocity": 112, "duration": 875}, {"note": 0, "velocity": 0, "duration": 2005}, {"note": 74, "velocity": 107, "duration": 224}, {"note": 76, "velocity": 99, "duration": 57}, {"note": 0, "velocity": 0, "duration": 63}, {"note": 76, "velocity": 102, "duration": 341}, {"note": 74, "velocity": 102, "duration": 155}, {"note": 0, "velocity": 0, "duration": 85}, {"note": 74, "velocity": 107, "duration": 244}, {"note": 76, "velocity": 127, "duration": 70}, {"note": 76, "velocity": 117, "duration": 349}, {"note": 74, "velocity": 112, "duration": 226}, {"note": 0, "velocity": 0, "duration": 254}, {"note": 74, "velocity": 112, "duration": 197}, {"note": 76, "velocity": 127, "duration": 139}, {"note": 0, "velocity": 0, "duration": 101}, {"note": 78, "velocity": 127, "duration": 155}, {"note": 0, "velocity": 0, "duration": 85}, {"note": 78, "velocity": 127, "duration": 575}, {"note": 0, "velocity": 0, "duration": 385}, {"note": 76, "velocity": 122, "duration": 298}, {"note": 0, "velocity": 0, "duration": 62}, {"note": 74, "velocity": 112, "duration": 233}, {"note": 0, "velocity": 0, "duration": 127}, {"note": 71, "velocity": 107, "duration": 152}, {"note": 0, "velocity": 0, "duration": 88}, {"note": 76, "velocity": 127, "duration": 335}, {"note": 74, "velocity": 102, "duration": 268}, {"note": 0, "velocity": 0, "duration": 92}, {"note": 71, "velocity": 99, "duration": 262}, {"note": 0, "velocity": 0, "duration": 218}, {"note": 69, "velocity": 107, "duration": 508}, {"note": 0, "velocity": 0, "duration": 92}, {"note": 71, "velocity": 93, "duration": 88}, {"note": 69, "velocity": 88, "duration": 78}, {"note": 66, "velocity": 107, "duration": 377}, {"note": 0, "velocity": 0, "duration": 103}, {"note": 64, "velocity": 102, "duration": 450}, {"note": 74, "velocity": 112, "duration": 214}, {"note": 76, "velocity": 99, "duration": 67}, {"note": 76, "velocity": 96, "duration": 309}, {"note": 74, "velocity": 102, "duration": 133}, {"note": 0, "velocity": 0, "duration": 107}, {"note": 74, "velocity": 102, "duration": 245}, {"note": 76, "velocity": 107, "duration": 63}, {"note": 76, "velocity": 122, "duration": 254}, {"note": 0, "velocity": 0, "duration": 106}, {"note": 74, "velocity": 107, "duration": 203}, {"note": 0, "velocity": 0, "duration": 277}, {"note": 74, "velocity": 107, "duration": 200}, {"note": 76, "velocity": 122, "duration": 171}, {"note": 0, "velocity": 0, "duration": 69}, {"note": 81, "velocity": 127, "duration": 286}, {"note": 0, "velocity": 0, "duration": 194}, {"note": 78, "velocity": 127, "duration": 491}, {"note": 0, "velocity": 0, "duration": 229}, {"note": 76, "velocity": 117, "duration": 330}, {"note": 74, "velocity": 117, "duration": 316}, {"note": 71, "velocity": 100, "duration": 250}, {"note": 76, "velocity": 117, "duration": 255}, {"note": 0, "velocity": 0, "duration": 105}, {"note": 78, "velocity": 127, "duration": 276}, {"note": 0, "velocity": 0, "duration": 84}, {"note": 74, "velocity": 100, "duration": 252}, {"note": 76, "velocity": 97, "duration": 284}, {"note": 74, "velocity": 89, "duration": 1377}, {"note": 0, "velocity": 0, "duration": 303}, {"note": 74, "velocity": 107, "duration": 224}, {"note": 76, "velocity": 99, "duration": 57}, {"note": 0, "velocity": 0, "duration": 63}, {"note": 76, "velocity": 102, "duration": 341}, {"note": 74, "velocity": 102, "duration": 155}, {"note": 0, "velocity": 0, "duration": 85}, {"note": 74, "velocity": 107, "duration": 244}, {"note": 76, "velocity": 127, "duration": 70}, {"note": 76, "velocity": 117, "duration": 349}, {"note": 74, "velocity": 112, "duration": 226}, {"note": 0, "velocity": 0, "duration": 254}, {"note": 74, "velocity": 112, "duration": 197}, {"note": 76, "velocity": 127, "duration": 139}, {"note": 0, "velocity": 0, "duration": 101}, {"note": 78, "velocity": 127, "duration": 155}, {"note": 0, "velocity": 0, "duration": 85}, {"note": 78, "velocity": 127, "duration": 575}, {"note": 0, "velocity": 0, "duration": 385}, {"note": 76, "velocity": 122, "duration": 298}, {"note": 0, "velocity": 0, "duration": 62}, {"note": 74, "velocity": 112, "duration": 233}, {"note": 0, "velocity": 0, "duration": 127}, {"note": 71, "velocity": 107, "duration": 152}, {"note": 0, "velocity": 0, "duration": 88}, {"note": 76, "velocity": 127, "duration": 335}, {"note": 74, "velocity": 102, "duration": 268}, {"note": 0, "velocity": 0, "duration": 92}, {"note": 71, "velocity": 99, "duration": 262}, {"note": 0, "velocity": 0, "duration": 218}, {"note": 69, "velocity": 107, "duration": 508}, {"note": 0, "velocity": 0, "duration": 92}, {"note": 71, "velocity": 93, "duration": 88}, {"note": 69, "velocity": 88, "duration": 78}, {"note": 66, "velocity": 107, "duration": 377}, {"note": 0, "velocity": 0, "duration": 103}, {"note": 64, "velocity": 102, "duration": 450}, {"note": 74, "velocity": 112, "duration": 214}, {"note": 76, "velocity": 99, "duration": 67}, {"note": 76, "velocity": 96, "duration": 309}, {"note": 74, "velocity": 102, "duration": 133}, {"note": 0, "velocity": 0, "duration": 107}, {"note": 74, "velocity": 102, "duration": 245}, {"note": 76, "velocity": 107, "duration": 63}, {"note": 76, "velocity": 122, "duration": 254}, {"note": 0, "velocity": 0, "duration": 106}, {"note": 74, "velocity": 107, "duration": 203}, {"note": 0, "velocity": 0, "duration": 277}, {"note": 74, "velocity": 107, "duration": 200}, {"note": 76, "velocity": 122, "duration": 171}, {"note": 0, "velocity": 0, "duration": 69}, {"note": 81, "velocity": 127, "duration": 286}, {"note": 0, "velocity": 0, "duration": 194}, {"note": 78, "velocity": 127, "duration": 491}, {"note": 0, "velocity": 0, "duration": 229}, {"note": 76, "velocity": 117, "duration": 330}, {"note": 74, "velocity": 117, "duration": 316}, {"note": 71, "velocity": 100, "duration": 250}, {"note": 76, "velocity": 117, "duration": 255}, {"note": 0, "velocity": 0, "duration": 105}, {"note": 78, "velocity": 127, "duration": 276}, {"note": 0, "velocity": 0, "duration": 84}, {"note": 74, "velocity": 100, "duration": 252}, {"note": 76, "velocity": 97, "duration": 284}, {"note": 74, "velocity": 89, "duration": 1377}, {"note": 0, "velocity": 0, "duration": 303}, {"note": 57, "velocity": 85, "duration": 201}, {"note": 59, "velocity": 88, "duration": 213}, {"note": 62, "velocity": 88, "duration": 251}, {"note": 66, "velocity": 93, "duration": 218}, {"note": 69, "velocity": 100, "duration": 627}, {"note": 0, "velocity": 0, "duration": 333}, {"note": 71, "velocity": 93, "duration": 131}, {"note": 73, "velocity": 83, "duration": 350}, {"note": 71, "velocity": 92, "duration": 220}, {"note": 66, "velocity": 68, "duration": 202}, {"note": 66, "velocity": 77, "duration": 725}, {"note": 0, "velocity": 0, "duration": 235}, {"note": 71, "velocity": 96, "duration": 210}, {"note": 73, "velocity": 92, "duration": 264}, {"note": 71, "velocity": 97, "duration": 244}, {"note": 0, "velocity": 0, "duration": 116}, {"note": 71, "velocity": 92, "duration": 151}, {"note": 69, "velocity": 99, "duration": 249}, {"note": 71, "velocity": 95, "duration": 249}, {"note": 69, "velocity": 86, "duration": 320}, {"note": 66, "velocity": 96, "duration": 169}, {"note": 64, "velocity": 68, "duration": 116}, {"note": 64, "velocity": 93, "duration": 1269}, {"note": 0, "velocity": 0, "duration": 464}, {"note": 59, "velocity": 74, "duration": 673}, {"note": 62, "velocity": 93, "duration": 1908}]]