[[{"note": 57, "velocity": 63, "duration": 192}, {"note": 64, "velocity": 86, "duration": 262}, {"note": 62, "velocity": 65, "duration": 159}, {"note": 0, "velocity": 0, "duration": 81}, {"note": 62, "velocity": 74, "duration": 198}, {"note": 57, "velocity": 56, "duration": 251}, {"note": 64, "velocity": 88, "duration": 187}, {"note": 62, "velocity": 85, "duration": 157}, {"note": 0, "velocity": 0, "duration": 83}, {"note": 62, "velocity": 83, "duration": 193}, {"note": 57, "velocity": 92, "duration": 209}, {"note": 66, "velocity": 100, "duration": 216}, {"note": 64, "velocity": 97, "duration": 173}, {"note": 0, "velocity": 0, "duration": 67}, {"note": 62, "velocity": 97, "duration": 181}, {"note": 66, "velocity": 93, "duration": 143}, {"note": 0, "velocity": 0, "duration": 97}, {"note": 64, "velocity": 86, "duration": 195}, {"note": 0, "velocity": 0, "duration": 165}, {"note": 62, "velocity": 88, "duration": 478}, {"note": 0, "velocity": 0, "duration": 122}, {"note": 57, "velocity": 78, "duration": 221}, {"note": 0, "velocity": 0, "duration": 139}, {"note": 55, "velocity": 88, "duration": 1416}, {"note": 0, "velocity": 0, "duration": 1824}, {"note": 57, "velocity": 49, "duration": 205}, {"note": 0, "velocity": 0, "duration": 275}, {"note": 66, "velocity": 99, "duration": 135}, {"note": 0, "velocity": 0, "duration": 105}, {"note": 66, "velocity": 86, "duration": 66}, {"note": 0, "velocity": 0, "duration": 174}, {"note": 66, "velocity": 79, "duration": 136}, {"note": 0, "velocity": 0, "duration": 104}, {"note": 66, "velocity": 100, "duration": 111}, {"note": 0, "velocity": 0, "duration": 129}, {"note": 64, "velocity": 90, "duration": 107}, {"note": 0, "velocity": 0, "duration": 133}, {"note": 66, "velocity": 102, "duration": 108}, {"note": 0, "velocity": 0, "duration": 132}, {"note": 62, "velocity": 93, "duration": 121}, {"note": 0, "velocity": 0, "duration": 119}, {"note": 57, "velocity": 88, "duration": 224}, {"note": 66, "velocity": 102, "duration": 128}, {"note": 0, "velocity": 0, "duration": 112}, {"note": 66, "velocity": 107, "duration": 106}, {"note": 0, "velocity": 0, "duration": 134}, {"note": 66, "velocity": 117, "duration": 115}, {"note": 0, "velocity": 0, "duration": 125}, {"note": 66, "velocity": 112, "duration": 231}, {"note": 0, "velocity": 0, "duration": 129}, {"note": 64, "velocity": 90, "duration": 283}, {"note": 0, "velocity": 0, "duration": 317}, {"note": 62, "velocity": 89, "duration": 237}, {"note": 0, "velocity": 0, "duration": 123}, {"note": 64, "velocity": 82, "duration": 1049}, {"note": 0, "velocity": 0, "duration": 1711}, {"note": 62, "velocity": 81, "duration": 245}, {"note": 61, "velocity": 73, "duration": 228}, {"note": 62, "velocity": 85, "duration": 227}, {"note": 64, "velocity": 76, "duration": 172}, {"note": 0, "velocity": 0, "duration": 68}, {"note": 57, "velocity": 73, "duration": 162}, {"note": 0, "velocity": 0, "duration": 78}, {"note": 57, "velocity": 90, "duration": 224}, {"note": 64, "velocity": 90, "duration": 220}, {"note": 64, "velocity": 85, "duration": 304}, {"note": 0, "velocity": 0, "duration": 176}, {"note": 66, "velocity": 107, "duration": 225}, {"note": 57, "velocity": 93, "duration": 334}, {"note": 0, "velocity": 0, "duration": 146}, {"note": 54, "velocity": 85, "duration": 174}, {"note": 0, "velocity": 0, "duration": 66}, {"note": 57, "velocity": 88, "duration": 105}, {"note": 0, "velocity": 0, "duration": 135}, {"note": 66, "velocity": 97, "duration": 235}, {"note": 64, "velocity": 95, "duration": 277}, {"note": 0, "velocity": 0, "duration": 203}, {"note": 69, "velocity": 112, "duration": 272}, {"note": 0, "velocity": 0, "duration": 208}, {"note": 66, "velocity": 100, "duration": 295}, {"note": 0, "velocity": 0, "duration": 185}, {"note": 62, "velocity": 95, "duration": 297}, {"note": 0, "velocity": 0, "duration": 183}, {"note": 64, "velocity": 90, "duration": 281}, {"note": 0, "velocity": 0, "duration": 199}, {"note": 59, "velocity": 90, "duration": 211}, {"note": 62, "velocity": 88, "duration": 1132}, {"note": 0, "velocity": 0, "duration": 308}, {"note": 62, "velocity": 83, "duration": 132}, {"note": 0, "velocity": 0, "duration": 108}, {"note": 62, "velocity": 79, "duration": 96}, {"note": 0, "velocity": 0, "duration": 144}, {"note": 54, "velocity": 95, "duration": 95}, {"note": 0, "velocity": 0, "duration": 145}, {"note": 55, "velocity": 95, "duration": 162}, {"note": 0, "velocity": 0, "duration": 78}, {"note": 62, "velocity": 95, "duration": 112}, {"note": 0, "velocity": 0, "duration": 128}, {"note": 62, "velocity": 96, "duration": 160}, {"note": 0, "velocity": 0, "duration": 80}, {"note": 62, "velocity": 99, "duration": 196}, {"note": 0, "velocity": 0, "duration": 284}, {"note": 55, "velocity": 77, "duration": 307}, {"note": 0, "velocity": 0, "duration": 173}, {"note": 54, "velocity": 88, "duration": 176}, {"note": 0, "velocity": 0, "duration": 64}, {"note": 55, "velocity": 82, "duration": 217}, {"note": 62, "velocity": 92, "duration": 126}, {"note": 0, "velocity": 0, "duration": 114}, {"note": 62, "velocity": 97, "duration": 157}, {"note": 0, "velocity": 0, "duration": 83}, {"note": 62, "velocity": 95, "duration": 202}, {"note": 0, "velocity": 0, "duration": 278}, {"note": 55, "velocity": 89, "duration": 294}, {"note": 0, "velocity": 0, "duration": 186}, {"note": 57, "velocity": 95, "duration": 143}, {"note": 0, "velocity": 0, "duration": 97}, {"note": 54, "velocity": 90, "duration": 1813}, {"note": 0, "velocity": 0, "duration": 1787}, {"note": 57, "velocity": 63, "duration": 192}, {"note": 64, "velocity": 86, "duration": 262}, {"note": 62, "velocity": 65, "duration": 159}, {"note": 0, "velocity": 0, "duration": 81}, {"note": 62, "velocity": 74, "duration": 198}, {"note": 57, "velocity": 56, "duration": 251}, {"note": 64, "velocity": 88, "duration": 187}, {"note": 62, "velocity": 85, "duration": 157}, {"note": 0, "velocity": 0, "duration": 83}, {"note": 62, "velocity": 83, "duration": 193}, {"note": 57, "velocity": 92, "duration": 209}, {"note": 66, "velocity": 100, "duration": 216}, {"note": 64, "velocity": 97, "duration": 173}, {"note": 0, "velocity": 0, "duration": 67}, {"note": 62, "velocity": 97, "duration": 181}, {"note": 66, "velocity": 93, "duration": 143}, {"note": 0, "velocity": 0, "duration": 97}, {"note": 64, "velocity": 86, "duration": 195}, {"note": 0, "velocity": 0, "duration": 165}, {"note": 62, "velocity": 88, "duration": 478}, {"note": 0, "velocity": 0, "duration": 122}, {"note": 57, "velocity": 78, "duration": 221}, {"note": 0, "velocity": 0, "duration": 139}, {"note": 59, "velocity": 88, "duration": 1416}, {"note": 0, "velocity": 0, "duration": 1824}, {"note": 57, "velocity": 49, "duration": 205}, {"note": 64, "velocity": 93, "duration": 164}, {"note": 0, "velocity": 0, "duration": 76}, {"note": 66, "velocity": 99, "duration": 135}, {"note": 0, "velocity": 0, "duration": 105}, {"note": 66, "velocity": 86, "duration": 66}, {"note": 0, "velocity": 0, "duration": 174}, {"note": 66, "velocity": 79, "duration": 136}, {"note": 0, "velocity": 0, "duration": 104}, {"note": 66, "velocity": 100, "duration": 111}, {"note": 0, "velocity": 0, "duration": 129}, {"note": 64, "velocity": 90, "duration": 107}, {"note": 0, "velocity": 0, "duration": 133}, {"note": 66, "velocity": 102, "duration": 108}, {"note": 0, "velocity": 0, "duration": 132}, {"note": 57, "velocity": 90, "duration": 219}, {"note": 64, "velocity": 96, "duration": 159}, {"note": 0, "velocity": 0, "duration": 81}, {"note": 66, "velocity": 102, "duration": 128}, {"note": 0, "velocity": 0, "duration": 112}, {"note": 66, "velocity": 107, "duration": 106}, {"note": 0, "velocity": 0, "duration": 134}, {"note": 66, "velocity": 117, "duration": 115}, {"note": 0, "velocity": 0, "duration": 125}, {"note": 69, "velocity": 97, "duration": 214}, {"note": 0, "velocity": 0, "duration": 266}, {"note": 66, "velocity": 97, "duration": 373}, {"note": 0, "velocity": 0, "duration": 107}, {"note": 62, "velocity": 93, "duration": 263}, {"note": 0, "velocity": 0, "duration": 97}, {"note": 64, "velocity": 112, "duration": 1308}, {"note": 0, "velocity": 0, "duration": 1452}, {"note": 62, "velocity": 81, "duration": 245}, {"note": 61, "velocity": 73, "duration": 228}, {"note": 62, "velocity": 85, "duration": 227}, {"note": 64, "velocity": 76, "duration": 172}, {"note": 0, "velocity": 0, "duration": 68}, {"note": 57, "velocity": 73, "duration": 162}, {"note": 0, "velocity": 0, "duration": 78}, {"note": 57, "velocity": 90, "duration": 224}, {"note": 64, "velocity": 90, "duration": 220}, {"note": 64, "velocity": 85, "duration": 304}, {"note": 0, "velocity": 0, "duration": 176}, {"note": 66, "velocity": 107, "duration": 225}, {"note": 57, "velocity": 93, "duration": 334}, {"note": 0, "velocity": 0, "duration": 146}, {"note": 54, "velocity": 85, "duration": 174}, {"note": 0, "velocity": 0, "duration": 66}, {"note": 57, "velocity": 88, "duration": 105}, {"note": 0, "velocity": 0, "duration": 135}, {"note": 66, "velocity": 97, "duration": 235}, {"note": 64, "velocity": 95, "duration": 277}, {"note": 0, "velocity": 0, "duration": 203}, {"note": 69, "velocity": 112, "duration": 272}, {"note": 0, "velocity": 0, "duration": 208}, {"note": 66, "velocity": 100, "duration": 295}, {"note": 0, "velocity": 0, "duration": 185}, {"note": 62, "velocity": 95, "duration": 297}, {"note": 64, "velocity": 90, "duration": 720}, {"note": 59, "velocity": 90, "duration": 211}, {"note": 62, "velocity": 88, "duration": 1132}, {"note": 0, "velocity": 0, "duration": 308}, {"note": 66, "velocity": 112, "duration": 98}, {"note": 0, "velocity": 0, "duration": 142}, {"note": 66, "velocity": 100, "duration": 112}, {"note": 0, "velocity": 0, "duration": 128}, {"note": 66, "velocity": 107, "duration": 103}, {"note": 0, "velocity": 0, "duration": 137}, {"note": 66, "velocity": 117, "duration": 112}, {"note": 0, "velocity": 0, "duration": 128}, {"note": 64, "velocity": 96, "duration": 109}, {"note": 0, "velocity": 0, "duration": 131}, {"note": 64, "velocity": 97, "duration": 99}, {"note": 0, "velocity": 0, "duration": 141}, {"note": 62, "velocity": 99, "duration": 123}, {"note": 0, "velocity": 0, "duration": 117}, {"note": 64, "velocity": 100, "duration": 256}, {"note": 0, "velocity": 0, "duration": 224}, {"note": 66, "velocity": 100, "duration": 245}, {"note": 59, "velocity": 106, "duration": 795}, {"note": 0, "velocity": 0, "duration": 1125}, {"note": 69, "velocity": 100, "duration": 112}, {"note": 0, "velocity": 0, "duration": 128}, {"note": 69, "velocity": 102, "duration": 127}, {"note": 0, "velocity": 0, "duration": 113}, {"note": 66, "velocity": 99, "duration": 135}, {"note": 0, "velocity": 0, "duration": 105}, {"note": 64, "velocity": 100, "duration": 121}, {"note": 0, "velocity": 0, "duration": 119}, {"note": 62, "velocity": 93, "duration": 151}, {"note": 0, "velocity": 0, "duration": 89}, {"note": 66, "velocity": 122, "duration": 375}, {"note": 0, "velocity": 0, "duration": 105}, {"note": 69, "velocity": 96, "duration": 163}, {"note": 0, "velocity": 0, "duration": 77}, {"note": 64, "velocity": 100, "duration": 746}, {"note": 0, "velocity": 0, "duration": 214}, {"note": 57, "velocity": 97, "duration": 133}, {"note": 0, "velocity": 0, "duration": 107}, {"note": 66, "velocity": 127, "duration": 165}, {"note": 0, "velocity": 0, "duration": 75}, {"note": 69, "velocity": 100, "duration": 130}, {"note": 0, "velocity": 0, "duration": 110}, {"note": 62, "velocity": 100, "duration": 279}, {"note": 66, "velocity": 112, "duration": 485}, {"note": 0, "velocity": 0, "duration": 235}, {"note": 66, "velocity": 122, "duration": 120}, {"note": 0, "velocity": 0, "duration": 120}, {"note": 64, "velocity": 92, "duration": 242}, {"note": 66, "velocity": 122, "duration": 198}, {"note": 69, "velocity": 100, "duration": 228}, {"note": 0, "velocity": 0, "duration": 252}, {"note": 57, "velocity": 102, "duration": 511}, {"note": 0, "velocity": 0, "duration": 449}, {"note": 57, "velocity": 97, "duration": 168}, {"note": 0, "velocity": 0, "duration": 72}, {"note": 66, "velocity": 112, "duration": 168}, {"note": 0, "velocity": 0, "duration": 72}, {"note": 69, "velocity": 88, "duration": 131}, {"note": 0, "velocity": 0, "duration": 109}, {"note": 62, "velocity": 100, "duration": 201}, {"note": 66, "velocity": 122, "duration": 377}, {"note": 0, "velocity": 0, "duration": 343}, {"note": 66, "velocity": 122, "duration": 219}, {"note": 64, "velocity": 85, "duration": 158}, {"note": 0, "velocity": 0, "duration": 82}, {"note": 66, "velocity": 107, "duration": 232}, {"note": 69, "velocity": 112, "duration": 253}, {"note": 0, "velocity": 0, "duration": 227}, {"note": 66, "velocity": 122, "duration": 786}, {"note": 0, "velocity": 0, "duration": 174}, {"note": 62, "velocity": 97, "duration": 162}, {"note": 0, "velocity": 0, "duration": 78}, {"note": 69, "velocity": 127, "duration": 160}, {"note": 0, "velocity": 0, "duration": 80}, {"note": 71, "velocity": 99, "duration": 174}, {"note": 0, "velocity": 0, "duration": 66}, {"note": 69, "velocity": 117, "duration": 116}, {"note": 0, "velocity": 0, "duration": 124}, {"note": 71, "velocity": 127, "duration": 436}, {"note": 0, "velocity": 0, "duration": 524}, {"note": 69, "velocity": 122, "duration": 146}, {"note": 0, "velocity": 0, "duration": 94}, {"note": 71, "velocity": 107, "duration": 126}, {"note": 0, "velocity": 0, "duration": 114}, {"note": 62, "velocity": 95, "duration": 120}, {"note": 0, "velocity": 0, "duration": 120}, {"note": 66, "velocity": 102, "duration": 184}, {"note": 69, "velocity": 107, "duration": 522}, {"note": 0, "velocity": 0, "duration": 438}, {"note": 57, "velocity": 93, "duration": 126}, {"note": 0, "velocity": 0, "duration": 114}, {"note": 66, "velocity": 122, "duration": 160}, {"note": 0, "velocity": 0, "duration": 80}, {"note": 69, "velocity": 88, "duration": 85}, {"note": 0, "velocity": 0, "duration": 155}, {"note": 62, "velocity": 107, "duration": 126}, {"note": 0, "velocity": 0, "duration": 114}, {"note": 64, "velocity": 112, "duration": 296}, {"note": 0, "velocity": 0, "duration": 424}, {"note": 64, "velocity": 100, "duration": 112}, {"note": 0, "velocity": 0, "duration": 128}, {"note": 59, "velocity": 93, "duration": 107}, {"note": 0, "velocity": 0, "duration": 133}, {"note": 66, "velocity": 122, "duration": 203}, {"note": 0, "velocity": 0, "duration": 157}, {"note": 64, "velocity": 127, "duration": 106}, {"note": 0, "velocity": 0, "duration": 254}, {"note": 64, "velocity": 122, "duration": 869}, {"note": 0, "velocity": 0, "duration": 91}, {"note": 57, "velocity": 97, "duration": 81}, {"note": 0, "velocity": 0, "duration": 159}, {"note": 66, "velocity": 127, "duration": 164}, {"note": 0, "velocity": 0, "duration": 76}, {"note": 69, "velocity": 93, "duration": 72}, {"note": 0, "velocity": 0, "duration": 168}, {"note": 62, "velocity": 100, "duration": 104}, {"note": 0, "velocity": 0, "duration": 136}, {"note": 66, "velocity": 127, "duration": 690}, {"note": 66, "velocity": 127, "duration": 128}, {"note": 0, "velocity": 0, "duration": 112}, {"note": 64, "velocity": 92, "duration": 126}, {"note": 0, "velocity": 0, "duration": 114}, {"note": 66, "velocity": 117, "duration": 205}, {"note": 69, "velocity": 117, "duration": 202}, {"note": 0, "velocity": 0, "duration": 278}, {"note": 57, "velocity": 97, "duration": 581}, {"note": 0, "velocity": 0, "duration": 379}, {"note": 57, "velocity": 95, "duration": 107}, {"note": 0, "velocity": 0, "duration": 133}, {"note": 66, "velocity": 112, "duration": 137}, {"note": 0, "velocity": 0, "duration": 103}, {"note": 69, "velocity": 97, "duration": 80}, {"note": 0, "velocity": 0, "duration": 160}, {"note": 62, "velocity": 96, "duration": 111}, {"note": 0, "velocity": 0, "duration": 129}, {"note": 66, "velocity": 127, "duration": 504}, {"note": 0, "velocity": 0, "duration": 216}, {"note": 66, "velocity": 122, "duration": 99}, {"note": 0, "velocity": 0, "duration": 141}, {"note": 64, "velocity": 95, "duration": 132}, {"note": 0, "velocity": 0, "duration": 108}, {"note": 66, "velocity": 117, "duration": 237}, {"note": 0, "velocity": 0, "duration": 123}, {"note": 69, "velocity": 107, "duration": 153}, {"note": 0, "velocity": 0, "duration": 207}, {"note": 66, "velocity": 112, "duration": 680}, {"note": 0, "velocity": 0, "duration": 280}, {"note": 62, "velocity": 95, "duration": 99}, {"note": 0, "velocity": 0, "duration": 141}, {"note": 69, "velocity": 112, "duration": 171}, {"note": 0, "velocity": 0, "duration": 69}, {"note": 71, "velocity": 100, "duration": 84}, {"note": 0, "velocity": 0, "duration": 156}, {"note": 69, "velocity": 112, "duration": 124}, {"note": 0, "velocity": 0, "duration": 116}, {"note": 71, "velocity": 127, "duration": 561}, {"note": 0, "velocity": 0, "duration": 399}, {"note": 69, "velocity": 99, "duration": 134}, {"note": 0, "velocity": 0, "duration": 106}, {"note": 71, "velocity": 107, "duration": 273}, {"note": 0, "velocity": 0, "duration": 87}, {"note": 73, "velocity": 117, "duration": 247}, {"note": 74, "velocity": 107, "duration": 139}, {"note": 0, "velocity": 0, "duration": 221}, {"note": 62, "velocity": 100, "duration": 518}, {"note": 0, "velocity": 0, "duration": 202}, {"note": 57, "velocity": 100, "duration": 91}, {"note": 0, "velocity": 0, "duration": 149}, {"note": 66, "velocity": 117, "duration": 214}, {"note": 0, "velocity": 0, "duration": 146}, {"note": 69, "velocity": 107, "duration": 156}, {"note": 0, "velocity": 0, "duration": 204}, {"note": 62, "velocity": 93, "duration": 179}, {"note": 0, "velocity": 0, "duration": 61}, {"note": 64, "velocity": 102, "duration": 277}, {"note": 0, "velocity": 0, "duration": 83}, {"note": 62, "velocity": 93, "duration": 90}, {"note": 59, "velocity": 86, "duration": 762}, {"note": 0, "velocity": 0, "duration": 678}, {"note": 62, "velocity": 107, "duration": 255}, {"note": 0, "velocity": 0, "duration": 105}, {"note": 59, "velocity": 95, "duration": 203}, {"note": 0, "velocity": 0, "duration": 157}, {"note": 66, "velocity": 112, "duration": 618}, {"note": 0, "velocity": 0, "duration": 102}, {"note": 62, "velocity": 96, "duration": 113}, {"note": 0, "velocity": 0, "duration": 127}, {"note": 62, "velocity": 107, "duration": 1569}, {"note": 0, "velocity": 0, "duration": 14031}, {"note": 64, "velocity": 86, "duration": 262}, {"note": 62, "velocity": 65, "duration": 159}, {"note": 0, "velocity": 0, "duration": 81}, {"note": 62, "velocity": 74, "duration": 198}, {"note": 57, "velocity": 56, "duration": 251}, {"note": 64, "velocity": 88, "duration": 187}, {"note": 62, "velocity": 85, "duration": 157}, {"note": 0, "velocity": 0, "duration": 83}, {"note": 62, "velocity": 83, "duration": 193}, {"note": 57, "velocity": 92, "duration": 209}, {"note": 66, "velocity": 100, "duration": 216}, {"note": 64, "velocity": 97, "duration": 173}, {"note": 0, "velocity": 0, "duration": 67}, {"note": 62, "velocity": 97, "duration": 181}, {"note": 66, "velocity": 93, "duration": 143}, {"note": 0, "velocity": 0, "duration": 97}, {"note": 64, "velocity": 86, "duration": 195}, {"note": 0, "velocity": 0, "duration": 165}, {"note": 62, "velocity": 88, "duration": 478}, {"note": 0, "velocity": 0, "duration": 122}, {"note": 57, "velocity": 78, "duration": 221}, {"note": 0, "velocity": 0, "duration": 139}, {"note": 59, "velocity": 88, "duration": 1416}, {"note": 0, "velocity": 0, "duration": 1824}, {"note": 57, "velocity": 49, "duration": 205}, {"note": 64, "velocity": 93, "duration": 164}, {"note": 0, "velocity": 0, "duration": 76}, {"note": 66, "velocity": 99, "duration": 135}, {"note": 0, "velocity": 0, "duration": 105}, {"note": 66, "velocity": 86, "duration": 66}, {"note": 0, "velocity": 0, "duration": 174}, {"note": 66, "velocity": 79, "duration": 136}, {"note": 0, "velocity": 0, "duration": 104}, {"note": 66, "velocity": 100, "duration": 111}, {"note": 0, "velocity": 0, "duration": 129}, {"note": 64, "velocity": 90, "duration": 107}, {"note": 0, "velocity": 0, "duration": 133}, {"note": 66, "velocity": 102, "duration": 108}, {"note": 0, "velocity": 0, "duration": 132}, {"note": 57, "velocity": 90, "duration": 219}, {"note": 64, "velocity": 96, "duration": 159}, {"note": 0, "velocity": 0, "duration": 81}, {"note": 66, "velocity": 102, "duration": 128}, {"note": 0, "velocity": 0, "duration": 112}, {"note": 66, "velocity": 107, "duration": 106}, {"note": 0, "velocity": 0, "duration": 134}, {"note": 66, "velocity": 117, "duration": 115}, {"note": 0, "velocity": 0, "duration": 125}, {"note": 69, "velocity": 97, "duration": 214}, {"note": 0, "velocity": 0, "duration": 266}, {"note": 66, "velocity": 97, "duration": 373}, {"note": 0, "velocity": 0, "duration": 107}, {"note": 62, "velocity": 93, "duration": 263}, {"note": 0, "velocity": 0, "duration": 97}, {"note": 64, "velocity": 112, "duration": 1308}, {"note": 0, "velocity": 0, "duration": 1452}, {"note": 62, "velocity": 81, "duration": 245}, {"note": 61, "velocity": 73, "duration": 228}, {"note": 62, "velocity": 85, "duration": 227}, {"note": 64, "velocity": 76, "duration": 172}, {"note": 0, "velocity": 0, "duration": 68}, {"note": 57, "velocity": 73, "duration": 162}, {"note": 0, "velocity": 0, "duration": 78}, {"note": 57, "velocity": 90, "duration": 224}, {"note": 64, "velocity": 90, "duration": 220}, {"note": 64, "velocity": 85, "duration": 304}, {"note": 0, "velocity": 0, "duration": 176}, {"note": 66, "velocity": 107, "duration": 225}, {"note": 57, "velocity": 93, "duration": 334}, {"note": 0, "velocity": 0, "duration": 146}, {"note": 54, "velocity": 85, "duration": 174}, {"note": 0, "velocity": 0, "duration": 66}, {"note": 57, "velocity": 88, "duration": 105}, {"note": 0, "velocity": 0, "duration": 135}, {"note": 66, "velocity": 97, "duration": 235}, {"note": 64, "velocity": 95, "duration": 277}, {"note": 0, "velocity": 0, "duration": 203}, {"note": 69, "velocity": 112, "duration": 272}, {"note": 0, "velocity": 0, "duration": 208}, {"note": 66, "velocity": 100, "duration": 295}, {"note": 0, "velocity": 0, "duration": 185}, {"note": 62, "velocity": 95, "duration": 297}, {"note": 64, "velocity": 90, "duration": 720}, {"note": 59, "velocity": 90, "duration": 211}, {"note": 62, "velocity": 88, "duration": 1132}, {"note": 0, "velocity": 0, "duration": 308}, {"note": 66, "velocity": 112, "duration": 98}, {"note": 0, "velocity": 0, "duration": 142}, {"note": 66, "velocity": 100, "duration": 112}, {"note": 0, "velocity": 0, "duration": 128}, {"note": 66, "velocity": 107, "duration": 103}, {"note": 0, "velocity": 0, "duration": 137}, {"note": 66, "velocity": 117, "duration": 112}, {"note": 0, "velocity": 0, "duration": 128}, {"note": 64, "velocity": 96, "duration": 109}, {"note": 0, "velocity": 0, "duration": 131}, {"note": 64, "velocity": 97, "duration": 99}, {"note": 0, "velocity": 0, "duration": 141}, {"note": 62, "velocity": 99, "duration": 123}, {"note": 0, "velocity": 0, "duration": 117}, {"note": 64, "velocity": 100, "duration": 256}, {"note": 0, "velocity": 0, "duration": 224}, {"note": 66, "velocity": 100, "duration": 245}, {"note": 59, "velocity": 106, "duration": 795}, {"note": 0, "velocity": 0, "duration": 1125}, {"note": 69, "velocity": 100, "duration": 112}, {"note": 0, "velocity": 0, "duration": 128}, {"note": 69, "velocity": 102, "duration": 127}, {"note": 0, "velocity": 0, "duration": 113}, {"note": 66, "velocity": 99, "duration": 135}, {"note": 0, "velocity": 0, "duration": 105}, {"note": 64, "velocity": 100, "duration": 121}, {"note": 0, "velocity": 0, "duration": 119}, {"note": 62, "velocity": 93, "duration": 151}, {"note": 0, "velocity": 0, "duration": 89}, {"note": 66, "velocity": 122, "duration": 375}, {"note": 0, "velocity": 0, "duration": 105}, {"note": 69, "velocity": 96, "duration": 163}, {"note": 0, "velocity": 0, "duration": 77}, {"note": 64, "velocity": 100, "duration": 720}, {"note": 0, "velocity": 0, "duration": 2160}, {"note": 57, "velocity": 97, "duration": 133}, {"note": 0, "velocity": 0, "duration": 107}, {"note": 66, "velocity": 127, "duration": 165}, {"note": 0, "velocity": 0, "duration": 75}, {"note": 69, "velocity": 100, "duration": 130}, {"note": 0, "velocity": 0, "duration": 110}, {"note": 62, "velocity": 100, "duration": 279}, {"note": 66, "velocity": 112, "duration": 485}, {"note": 0, "velocity": 0, "duration": 235}, {"note": 66, "velocity": 122, "duration": 120}, {"note": 0, "velocity": 0, "duration": 120}, {"note": 64, "velocity": 92, "duration": 242}, {"note": 66, "velocity": 122, "duration": 198}, {"note": 69, "velocity": 100, "duration": 228}, {"note": 0, "velocity": 0, "duration": 252}, {"note": 57, "velocity": 102, "duration": 511}, {"note": 0, "velocity": 0, "duration": 449}, {"note": 57, "velocity": 97, "duration": 168}, {"note": 0, "velocity": 0, "duration": 72}, {"note": 66, "velocity": 112, "duration": 168}, {"note": 0, "velocity": 0, "duration": 72}, {"note": 69, "velocity": 88, "duration": 131}, {"note": 0, "velocity": 0, "duration": 109}, {"note": 62, "velocity": 100, "duration": 201}, {"note": 66, "velocity": 122, "duration": 377}, {"note": 0, "velocity": 0, "duration": 343}, {"note": 66, "velocity": 122, "duration": 219}, {"note": 64, "velocity": 85, "duration": 158}, {"note": 0, "velocity": 0, "duration": 82}, {"note": 66, "velocity": 107, "duration": 232}, {"note": 69, "velocity": 112, "duration": 253}, {"note": 0, "velocity": 0, "duration": 227}, {"note": 66, "velocity": 122, "duration": 786}, {"note": 0, "velocity": 0, "duration": 174}, {"note": 62, "velocity": 97, "duration": 162}, {"note": 0, "velocity": 0, "duration": 78}, {"note": 69, "velocity": 127, "duration": 160}, {"note": 0, "velocity": 0, "duration": 80}, {"note": 71, "velocity": 99, "duration": 174}, {"note": 0, "velocity": 0, "duration": 66}, {"note": 69, "velocity": 117, "duration": 116}, {"note": 0, "velocity": 0, "duration": 124}, {"note": 71, "velocity": 127, "duration": 436}, {"note": 0, "velocity": 0, "duration": 524}, {"note": 69, "velocity": 122, "duration": 146}, {"note": 0, "velocity": 0, "duration": 94}, {"note": 71, "velocity": 107, "duration": 126}, {"note": 0, "velocity": 0, "duration": 114}, {"note": 62, "velocity": 95, "duration": 120}, {"note": 0, "velocity": 0, "duration": 120}, {"note": 66, "velocity": 102, "duration": 184}, {"note": 69, "velocity": 107, "duration": 522}, {"note": 0, "velocity": 0, "duration": 438}, {"note": 57, "velocity": 93, "duration": 126}, {"note": 0, "velocity": 0, "duration": 114}, {"note": 66, "velocity": 122, "duration": 160}, {"note": 0, "velocity": 0, "duration": 80}, {"note": 69, "velocity": 88, "duration": 85}, {"note": 0, "velocity": 0, "duration": 155}, {"note": 62, "velocity": 107, "duration": 126}, {"note": 0, "velocity": 0, "duration": 114}, {"note": 64, "velocity": 112, "duration": 296}, {"note": 0, "velocity": 0, "duration": 424}, {"note": 64, "velocity": 100, "duration": 112}, {"note": 0, "velocity": 0, "duration": 128}, {"note": 59, "velocity": 93, "duration": 107}, {"note": 0, "velocity": 0, "duration": 133}, {"note": 66, "velocity": 122, "duration": 203}, {"note": 0, "velocity": 0, "duration": 157}, {"note": 64, "velocity": 127, "duration": 106}, {"note": 0, "velocity": 0, "duration": 254}, {"note": 64, "velocity": 122, "duration": 869}, {"note": 0, "velocity": 0, "duration": 91}, {"note": 57, "velocity": 97, "duration": 81}, {"note": 0, "velocity": 0, "duration": 159}, {"note": 66, "velocity": 127, "duration": 164}, {"note": 0, "velocity": 0, "duration": 76}, {"note": 69, "velocity": 93, "duration": 72}, {"note": 0, "velocity": 0, "duration": 168}, {"note": 62, "velocity": 100, "duration": 104}, {"note": 0, "velocity": 0, "duration": 136}, {"note": 66, "velocity": 127, "duration": 690}, {"note": 66, "velocity": 127, "duration": 128}, {"note": 0, "velocity": 0, "duration": 112}, {"note": 64, "velocity": 92, "duration": 126}, {"note": 0, "velocity": 0, "duration": 114}, {"note": 66, "velocity": 117, "duration": 205}, {"note": 69, "velocity": 117, "duration": 202}, {"note": 0, "velocity": 0, "duration": 278}, {"note": 57, "velocity": 97, "duration": 581}, {"note": 0, "velocity": 0, "duration": 379}, {"note": 57, "velocity": 95, "duration": 107}, {"note": 0, "velocity": 0, "duration": 133}, {"note": 66, "velocity": 112, "duration": 137}, {"note": 0, "velocity": 0, "duration": 103}, {"note": 69, "velocity": 97, "duration": 80}, {"note": 0, "velocity": 0, "duration": 160}, {"note": 62, "velocity": 96, "duration": 111}, {"note": 0, "velocity": 0, "duration": 129}, {"note": 66, "velocity": 127, "duration": 504}, {"note": 0, "velocity": 0, "duration": 216}, {"note": 66, "velocity": 122, "duration": 99}, {"note": 0, "velocity": 0, "duration": 141}, {"note": 64, "velocity": 95, "duration": 132}, {"note": 0, "velocity": 0, "duration": 108}, {"note": 66, "velocity": 117, "duration": 237}, {"note": 0, "velocity": 0, "duration": 123}, {"note": 69, "velocity": 107, "duration": 153}, {"note": 0, "velocity": 0, "duration": 207}, {"note": 66, "velocity": 112, "duration": 680}, {"note": 0, "velocity": 0, "duration": 280}, {"note": 62, "velocity": 95, "duration": 99}, {"note": 0, "velocity": 0, "duration": 141}, {"note": 69, "velocity": 112, "duration": 171}, {"note": 0, "velocity": 0, "duration": 69}, {"note": 71, "velocity": 100, "duration": 84}, {"note": 0, "velocity": 0, "duration": 156}, {"note": 69, "velocity": 112, "duration": 124}, {"note": 0, "velocity": 0, "duration": 116}, {"note": 71, "velocity": 127, "duration": 561}, {"note": 0, "velocity": 0, "duration": 399}, {"note": 69, "velocity": 99, "duration": 134}, {"note": 0, "velocity": 0, "duration": 106}, {"note": 71, "velocity": 107, "duration": 273}, {"note": 0, "velocity": 0, "duration": 87}, {"note": 73, "velocity": 117, "duration": 247}, {"note": 0, "velocity": 0, "duration": 113}, {"note": 74, "velocity": 107, "duration": 139}, {"note": 0, "velocity": 0, "duration": 101}, {"note": 62, "velocity": 100, "duration": 518}, {"note": 0, "velocity": 0, "duration": 202}, {"note": 57, "velocity": 100, "duration": 91}, {"note": 0, "velocity": 0, "duration": 149}, {"note": 66, "velocity": 117, "duration": 214}, {"note": 0, "velocity": 0, "duration": 146}, {"note": 69, "velocity": 107, "duration": 156}, {"note": 0, "velocity": 0, "duration": 204}, {"note": 62, "velocity": 93, "duration": 179}, {"note": 0, "velocity": 0, "duration": 61}, {"note": 64, "velocity": 102, "duration": 277}, {"note": 0, "velocity": 0, "duration": 83}, {"note": 62, "velocity": 93, "duration": 90}, {"note": 59, "velocity": 86, "duration": 762}, {"note": 0, "velocity": 0, "duration": 678}, {"note": 62, "velocity": 107, "duration": 255}, {"note": 0, "velocity": 0, "duration": 105}, {"note": 59, "velocity": 95, "duration": 203}, {"note": 0, "velocity": 0, "duration": 397}, {"note": 66, "velocity": 127, "duration": 165}, {"note": 0, "velocity": 0, "duration": 75}, {"note": 69, "velocity": 100, "duration": 130}, {"note": 0, "velocity": 0, "duration": 110}, {"note": 62, "velocity": 100, "duration": 279}, {"note": 66, "velocity": 112, "duration": 485}, {"note": 0, "velocity": 0, "duration": 235}, {"note": 66, "velocity": 122, "duration": 120}, {"note": 0, "velocity": 0, "duration": 120}, {"note": 64, "velocity": 92, "duration": 242}, {"note": 66, "velocity": 122, "duration": 198}, {"note": 69, "velocity": 100, "duration": 228}, {"note": 0, "velocity": 0, "duration": 252}, {"note": 57, "velocity": 102, "duration": 511}, {"note": 0, "velocity": 0, "duration": 449}, {"note": 57, "velocity": 97, "duration": 168}, {"note": 0, "velocity": 0, "duration": 72}, {"note": 66, "velocity": 112, "duration": 168}, {"note": 0, "velocity": 0, "duration": 72}, {"note": 69, "velocity": 88, "duration": 131}, {"note": 0, "velocity": 0, "duration": 109}, {"note": 62, "velocity": 100, "duration": 201}, {"note": 66, "velocity": 122, "duration": 377}, {"note": 0, "velocity": 0, "duration": 343}, {"note": 66, "velocity": 122, "duration": 219}, {"note": 64, "velocity": 85, "duration": 158}, {"note": 0, "velocity": 0, "duration": 82}, {"note": 66, "velocity": 107, "duration": 232}, {"note": 69, "velocity": 112, "duration": 253}, {"note": 0, "velocity": 0, "duration": 227}, {"note": 66, "velocity": 122, "duration": 786}, {"note": 0, "velocity": 0, "duration": 174}, {"note": 62, "velocity": 97, "duration": 162}, {"note": 0, "velocity": 0, "duration": 78}, {"note": 69, "velocity": 127, "duration": 160}, {"note": 0, "velocity": 0, "duration": 80}, {"note": 71, "velocity": 99, "duration": 174}, {"note": 0, "velocity": 0, "duration": 66}, {"note": 69, "velocity": 117, "duration": 116}, {"note": 0, "velocity": 0, "duration": 124}, {"note": 71, "velocity": 127, "duration": 436}, {"note": 0, "velocity": 0, "duration": 524}, {"note": 69, "velocity": 122, "duration": 146}, {"note": 0, "velocity": 0, "duration": 94}, {"note": 71, "velocity": 107, "duration": 273}, {"note": 0, "velocity": 0, "duration": 87}, {"note": 73, "velocity": 117, "duration": 247}, {"note": 0, "velocity": 0, "duration": 113}, {"note": 74, "velocity": 107, "duration": 139}, {"note": 0, "velocity": 0, "duration": 101}, {"note": 62, "velocity": 100, "duration": 518}, {"note": 0, "velocity": 0, "duration": 202}, {"note": 57, "velocity": 100, "duration": 91}, {"note": 0, "velocity": 0, "duration": 149}, {"note": 66, "velocity": 117, "duration": 214}, {"note": 0, "velocity": 0, "duration": 146}, {"note": 69, "velocity": 107, "duration": 156}, {"note": 0, "velocity": 0, "duration": 204}, {"note": 62, "velocity": 93, "duration": 179}, {"note": 0, "velocity": 0, "duration": 61}, {"note": 64, "velocity": 102, "duration": 277}, {"note": 0, "velocity": 0, "duration": 83}, {"note": 62, "velocity": 93, "duration": 90}, {"note": 59, "velocity": 86, "duration": 762}, {"note": 0, "velocity": 0, "duration": 678}, {"note": 62, "velocity": 107, "duration": 255}, {"note": 0, "velocity": 0, "duration": 105}, {"note": 59, "velocity": 95, "duration": 203}, {"note": 0, "velocity": 0, "duration": 157}, {"note": 66, "velocity": 112, "duration": 618}, {"note": 0, "velocity": 0, "duration": 102}, {"note": 62, "velocity": 96, "duration": 113}, {"note": 0, "velocity": 0, "duration": 127}, {"note": 62, "velocity": 107, "duration": 1569}, {"note": 0, "velocity": 0, "duration": 6351}, {"note": 74, "velocity": 127, "duration": 644}, {"note": 0, "velocity": 0, "duration": 76}, {"note": 73, "velocity": 127, "duration": 700}, {"note": 69, "velocity": 107, "duration": 1207}, {"note": 0, "velocity": 0, "duration": 953}, {"note": 67, "velocity": 99, "duration": 109}, {"note": 66, "velocity": 93, "duration": 150}, {"note": 67, "velocity": 99, "duration": 1945}]]