[[{"note": 58, "velocity": 88, "duration": 121}, {"note": 67, "velocity": 99, "duration": 144}, {"note": 65, "velocity": 90, "duration": 140}, {"note": 67, "velocity": 122, "duration": 929}, {"note": 67, "velocity": 112, "duration": 129}, {"note": 65, "velocity": 77, "duration": 104}, {"note": 63, "velocity": 96, "duration": 168}, {"note": 0, "velocity": 0, "duration": 72}, {"note": 65, "velocity": 99, "duration": 117}, {"note": 62, "velocity": 95, "duration": 218}, {"note": 58, "velocity": 96, "duration": 630}, {"note": 0, "velocity": 0, "duration": 930}, {"note": 58, "velocity": 96, "duration": 52}, {"note": 0, "velocity": 0, "duration": 68}, {"note": 58, "velocity": 88, "duration": 87}, {"note": 60, "velocity": 93, "duration": 203}, {"note": 63, "velocity": 93, "duration": 55}, {"note": 0, "velocity": 0, "duration": 65}, {"note": 63, "velocity": 97, "duration": 410}, {"note": 0, "velocity": 0, "duration": 670}, {"note": 63, "velocity": 95, "duration": 174}, {"note": 0, "velocity": 0, "duration": 66}, {"note": 60, "velocity": 93, "duration": 55}, {"note": 0, "velocity": 0, "duration": 65}, {"note": 63, "velocity": 96, "duration": 295}, {"note": 0, "velocity": 0, "duration": 65}, {"note": 65, "velocity": 99, "duration": 674}, {"note": 0, "velocity": 0, "duration": 886}, {"note": 58, "velocity": 89, "duration": 118}, {"note": 67, "velocity": 112, "duration": 137}, {"note": 65, "velocity": 96, "duration": 128}, {"note": 67, "velocity": 112, "duration": 803}, {"note": 0, "velocity": 0, "duration": 157}, {"note": 67, "velocity": 127, "duration": 98}, {"note": 65, "velocity": 79, "duration": 89}, {"note": 63, "velocity": 97, "duration": 98}, {"note": 65, "velocity": 100, "duration": 119}, {"note": 0, "velocity": 0, "duration": 121}, {"note": 60, "velocity": 93, "duration": 118}, {"note": 62, "velocity": 95, "duration": 226}, {"note": 58, "velocity": 95, "duration": 742}, {"note": 0, "velocity": 0, "duration": 698}, {"note": 58, "velocity": 102, "duration": 50}, {"note": 0, "velocity": 0, "duration": 70}, {"note": 58, "velocity": 92, "duration": 92}, {"note": 60, "velocity": 112, "duration": 114}, {"note": 63, "velocity": 97, "duration": 54}, {"note": 0, "velocity": 0, "duration": 66}, {"note": 63, "velocity": 100, "duration": 51}, {"note": 0, "velocity": 0, "duration": 69}, {"note": 63, "velocity": 107, "duration": 727}, {"note": 0, "velocity": 0, "duration": 113}, {"note": 67, "velocity": 127, "duration": 99}, {"note": 65, "velocity": 81, "duration": 58}, {"note": 0, "velocity": 0, "duration": 62}, {"note": 65, "velocity": 99, "duration": 110}, {"note": 0, "velocity": 0, "duration": 130}, {"note": 60, "velocity": 100, "duration": 60}, {"note": 63, "velocity": 90, "duration": 697}, {"note": 0, "velocity": 0, "duration": 1583}, {"note": 62, "velocity": 112, "duration": 48}, {"note": 0, "velocity": 0, "duration": 72}, {"note": 62, "velocity": 99, "duration": 50}, {"note": 0, "velocity": 0, "duration": 70}, {"note": 62, "velocity": 122, "duration": 126}, {"note": 0, "velocity": 0, "duration": 114}, {"note": 58, "velocity": 100, "duration": 66}, {"note": 63, "velocity": 99, "duration": 678}, {"note": 0, "velocity": 0, "duration": 642}, {"note": 62, "velocity": 122, "duration": 36}, {"note": 0, "velocity": 0, "duration": 84}, {"note": 62, "velocity": 97, "duration": 45}, {"note": 0, "velocity": 0, "duration": 75}, {"note": 62, "velocity": 127, "duration": 99}, {"note": 0, "velocity": 0, "duration": 141}, {"note": 58, "velocity": 102, "duration": 61}, {"note": 63, "velocity": 112, "duration": 591}, {"note": 0, "velocity": 0, "duration": 249}, {"note": 60, "velocity": 112, "duration": 89}, {"note": 63, "velocity": 96, "duration": 70}, {"note": 67, "velocity": 107, "duration": 165}, {"note": 0, "velocity": 0, "duration": 75}, {"note": 65, "velocity": 102, "duration": 50}, {"note": 0, "velocity": 0, "duration": 70}, {"note": 65, "velocity": 100, "duration": 55}, {"note": 0, "velocity": 0, "duration": 65}, {"note": 65, "velocity": 117, "duration": 105}, {"note": 0, "velocity": 0, "duration": 135}, {"note": 63, "velocity": 102, "duration": 52}, {"note": 0, "velocity": 0, "duration": 68}, {"note": 65, "velocity": 112, "duration": 479}, {"note": 0, "velocity": 0, "duration": 361}, {"note": 60, "velocity": 100, "duration": 67}, {"note": 63, "velocity": 90, "duration": 57}, {"note": 0, "velocity": 0, "duration": 63}, {"note": 67, "velocity": 99, "duration": 178}, {"note": 0, "velocity": 0, "duration": 62}, {"note": 65, "velocity": 96, "duration": 45}, {"note": 0, "velocity": 0, "duration": 75}, {"note": 65, "velocity": 100, "duration": 524}, {"note": 0, "velocity": 0, "duration": 76}, {"note": 67, "velocity": 127, "duration": 263}, {"note": 0, "velocity": 0, "duration": 97}, {"note": 65, "velocity": 107, "duration": 263}, {"note": 0, "velocity": 0, "duration": 97}, {"note": 63, "velocity": 112, "duration": 180}, {"note": 70, "velocity": 122, "duration": 958}, {"note": 0, "velocity": 0, "duration": 602}, {"note": 63, "velocity": 107, "duration": 81}, {"note": 65, "velocity": 96, "duration": 82}, {"note": 67, "velocity": 107, "duration": 65}, {"note": 70, "velocity": 107, "duration": 142}, {"note": 0, "velocity": 0, "duration": 98}, {"note": 70, "velocity": 122, "duration": 115}, {"note": 0, "velocity": 0, "duration": 125}, {"note": 67, "velocity": 127, "duration": 123}, {"note": 0, "velocity": 0, "duration": 117}, {"note": 65, "velocity": 112, "duration": 56}, {"note": 0, "velocity": 0, "duration": 64}, {"note": 67, "velocity": 127, "duration": 444}, {"note": 0, "velocity": 0, "duration": 276}, {"note": 67, "velocity": 112, "duration": 88}, {"note": 70, "velocity": 96, "duration": 94}, {"note": 67, "velocity": 117, "duration": 94}, {"note": 72, "velocity": 117, "duration": 97}, {"note": 70, "velocity": 93, "duration": 53}, {"note": 0, "velocity": 0, "duration": 67}, {"note": 70, "velocity": 97, "duration": 49}, {"note": 0, "velocity": 0, "duration": 71}, {"note": 70, "velocity": 117, "duration": 90}, {"note": 70, "velocity": 112, "duration": 49}, {"note": 0, "velocity": 0, "duration": 71}, {"note": 67, "velocity": 127, "duration": 139}, {"note": 0, "velocity": 0, "duration": 101}, {"note": 65, "velocity": 112, "duration": 180}, {"note": 63, "velocity": 99, "duration": 435}, {"note": 0, "velocity": 0, "duration": 165}, {"note": 60, "velocity": 117, "duration": 65}, {"note": 63, "velocity": 99, "duration": 51}, {"note": 0, "velocity": 0, "duration": 69}, {"note": 67, "velocity": 122, "duration": 126}, {"note": 65, "velocity": 85, "duration": 48}, {"note": 0, "velocity": 0, "duration": 72}, {"note": 65, "velocity": 95, "duration": 49}, {"note": 0, "velocity": 0, "duration": 71}, {"note": 63, "velocity": 102, "duration": 47}, {"note": 0, "velocity": 0, "duration": 73}, {"note": 65, "velocity": 122, "duration": 110}, {"note": 67, "velocity": 127, "duration": 133}, {"note": 0, "velocity": 0, "duration": 107}, {"note": 60, "velocity": 107, "duration": 423}, {"note": 0, "velocity": 0, "duration": 417}, {"note": 60, "velocity": 96, "duration": 70}, {"note": 63, "velocity": 99, "duration": 48}, {"note": 0, "velocity": 0, "duration": 72}, {"note": 67, "velocity": 127, "duration": 104}, {"note": 65, "velocity": 96, "duration": 45}, {"note": 0, "velocity": 0, "duration": 75}, {"note": 65, "velocity": 102, "duration": 41}, {"note": 0, "velocity": 0, "duration": 79}, {"note": 65, "velocity": 100, "duration": 43}, {"note": 0, "velocity": 0, "duration": 77}, {"note": 65, "velocity": 117, "duration": 54}, {"note": 0, "velocity": 0, "duration": 186}, {"note": 63, "velocity": 107, "duration": 44}, {"note": 0, "velocity": 0, "duration": 76}, {"note": 65, "velocity": 112, "duration": 542}, {"note": 0, "velocity": 0, "duration": 178}, {"note": 63, "velocity": 107, "duration": 81}, {"note": 65, "velocity": 96, "duration": 82}, {"note": 67, "velocity": 107, "duration": 65}, {"note": 70, "velocity": 107, "duration": 142}, {"note": 0, "velocity": 0, "duration": 98}, {"note": 70, "velocity": 122, "duration": 115}, {"note": 0, "velocity": 0, "duration": 125}, {"note": 67, "velocity": 127, "duration": 123}, {"note": 0, "velocity": 0, "duration": 117}, {"note": 65, "velocity": 112, "duration": 56}, {"note": 0, "velocity": 0, "duration": 64}, {"note": 67, "velocity": 127, "duration": 444}, {"note": 0, "velocity": 0, "duration": 276}, {"note": 67, "velocity": 112, "duration": 88}, {"note": 70, "velocity": 96, "duration": 94}, {"note": 67, "velocity": 117, "duration": 94}, {"note": 72, "velocity": 117, "duration": 97}, {"note": 70, "velocity": 93, "duration": 53}, {"note": 0, "velocity": 0, "duration": 67}, {"note": 70, "velocity": 97, "duration": 49}, {"note": 0, "velocity": 0, "duration": 71}, {"note": 70, "velocity": 117, "duration": 90}, {"note": 70, "velocity": 112, "duration": 49}, {"note": 0, "velocity": 0, "duration": 71}, {"note": 67, "velocity": 127, "duration": 139}, {"note": 0, "velocity": 0, "duration": 101}, {"note": 65, "velocity": 112, "duration": 180}, {"note": 63, "velocity": 99, "duration": 435}, {"note": 0, "velocity": 0, "duration": 165}, {"note": 60, "velocity": 117, "duration": 65}, {"note": 63, "velocity": 99, "duration": 51}, {"note": 0, "velocity": 0, "duration": 69}, {"note": 67, "velocity": 122, "duration": 126}, {"note": 65, "velocity": 85, "duration": 48}, {"note": 0, "velocity": 0, "duration": 72}, {"note": 65, "velocity": 95, "duration": 49}, {"note": 0, "velocity": 0, "duration": 71}, {"note": 63, "velocity": 102, "duration": 47}, {"note": 0, "velocity": 0, "duration": 73}, {"note": 65, "velocity": 122, "duration": 110}, {"note": 67, "velocity": 127, "duration": 133}, {"note": 0, "velocity": 0, "duration": 107}, {"note": 60, "velocity": 107, "duration": 423}, {"note": 0, "velocity": 0, "duration": 417}, {"note": 60, "velocity": 96, "duration": 70}, {"note": 63, "velocity": 99, "duration": 48}, {"note": 0, "velocity": 0, "duration": 72}, {"note": 67, "velocity": 127, "duration": 104}, {"note": 65, "velocity": 96, "duration": 45}, {"note": 0, "velocity": 0, "duration": 75}, {"note": 65, "velocity": 102, "duration": 41}, {"note": 0, "velocity": 0, "duration": 79}, {"note": 65, "velocity": 100, "duration": 501}, {"note": 0, "velocity": 0, "duration": 99}, {"note": 67, "velocity": 127, "duration": 268}, {"note": 0, "velocity": 0, "duration": 92}, {"note": 65, "velocity": 112, "duration": 152}, {"note": 0, "velocity": 0, "duration": 208}, {"note": 60, "velocity": 102, "duration": 240}, {"note": 63, "velocity": 99, "duration": 622}, {"note": 0, "velocity": 0, "duration": 8858}, {"note": 58, "velocity": 88, "duration": 121}, {"note": 67, "velocity": 99, "duration": 144}, {"note": 65, "velocity": 90, "duration": 140}, {"note": 67, "velocity": 122, "duration": 929}, {"note": 67, "velocity": 112, "duration": 129}, {"note": 65, "velocity": 77, "duration": 104}, {"note": 63, "velocity": 96, "duration": 168}, {"note": 0, "velocity": 0, "duration": 72}, {"note": 65, "velocity": 99, "duration": 117}, {"note": 62, "velocity": 95, "duration": 218}, {"note": 58, "velocity": 96, "duration": 630}, {"note": 0, "velocity": 0, "duration": 930}, {"note": 58, "velocity": 96, "duration": 52}, {"note": 0, "velocity": 0, "duration": 68}, {"note": 58, "velocity": 88, "duration": 87}, {"note": 60, "velocity": 93, "duration": 203}, {"note": 63, "velocity": 93, "duration": 55}, {"note": 0, "velocity": 0, "duration": 65}, {"note": 63, "velocity": 97, "duration": 410}, {"note": 0, "velocity": 0, "duration": 670}, {"note": 63, "velocity": 95, "duration": 174}, {"note": 0, "velocity": 0, "duration": 66}, {"note": 60, "velocity": 93, "duration": 55}, {"note": 0, "velocity": 0, "duration": 65}, {"note": 63, "velocity": 96, "duration": 295}, {"note": 0, "velocity": 0, "duration": 65}, {"note": 65, "velocity": 99, "duration": 674}, {"note": 0, "velocity": 0, "duration": 886}, {"note": 58, "velocity": 89, "duration": 118}, {"note": 67, "velocity": 112, "duration": 137}, {"note": 65, "velocity": 96, "duration": 128}, {"note": 67, "velocity": 112, "duration": 803}, {"note": 0, "velocity": 0, "duration": 157}, {"note": 67, "velocity": 127, "duration": 98}, {"note": 65, "velocity": 79, "duration": 89}, {"note": 63, "velocity": 97, "duration": 98}, {"note": 65, "velocity": 100, "duration": 119}, {"note": 0, "velocity": 0, "duration": 121}, {"note": 60, "velocity": 93, "duration": 118}, {"note": 62, "velocity": 95, "duration": 226}, {"note": 58, "velocity": 95, "duration": 742}, {"note": 0, "velocity": 0, "duration": 698}, {"note": 58, "velocity": 102, "duration": 50}, {"note": 0, "velocity": 0, "duration": 70}, {"note": 58, "velocity": 92, "duration": 92}, {"note": 60, "velocity": 112, "duration": 114}, {"note": 63, "velocity": 97, "duration": 54}, {"note": 0, "velocity": 0, "duration": 66}, {"note": 63, "velocity": 100, "duration": 51}, {"note": 0, "velocity": 0, "duration": 69}, {"note": 63, "velocity": 107, "duration": 727}, {"note": 0, "velocity": 0, "duration": 113}, {"note": 67, "velocity": 127, "duration": 99}, {"note": 65, "velocity": 81, "duration": 58}, {"note": 0, "velocity": 0, "duration": 62}, {"note": 65, "velocity": 99, "duration": 110}, {"note": 0, "velocity": 0, "duration": 130}, {"note": 60, "velocity": 100, "duration": 60}, {"note": 63, "velocity": 90, "duration": 697}, {"note": 0, "velocity": 0, "duration": 1583}, {"note": 62, "velocity": 112, "duration": 48}, {"note": 0, "velocity": 0, "duration": 72}, {"note": 62, "velocity": 99, "duration": 50}, {"note": 0, "velocity": 0, "duration": 70}, {"note": 62, "velocity": 122, "duration": 126}, {"note": 0, "velocity": 0, "duration": 114}, {"note": 58, "velocity": 100, "duration": 66}, {"note": 63, "velocity": 99, "duration": 678}, {"note": 0, "velocity": 0, "duration": 642}, {"note": 62, "velocity": 122, "duration": 36}, {"note": 0, "velocity": 0, "duration": 84}, {"note": 62, "velocity": 97, "duration": 45}, {"note": 0, "velocity": 0, "duration": 75}, {"note": 62, "velocity": 127, "duration": 99}, {"note": 0, "velocity": 0, "duration": 141}, {"note": 58, "velocity": 102, "duration": 61}, {"note": 63, "velocity": 112, "duration": 591}, {"note": 0, "velocity": 0, "duration": 249}, {"note": 60, "velocity": 112, "duration": 89}, {"note": 63, "velocity": 96, "duration": 70}, {"note": 67, "velocity": 107, "duration": 165}, {"note": 0, "velocity": 0, "duration": 75}, {"note": 65, "velocity": 102, "duration": 50}, {"note": 0, "velocity": 0, "duration": 70}, {"note": 65, "velocity": 100, "duration": 55}, {"note": 0, "velocity": 0, "duration": 65}, {"note": 65, "velocity": 117, "duration": 105}, {"note": 0, "velocity": 0, "duration": 135}, {"note": 63, "velocity": 102, "duration": 52}, {"note": 0, "velocity": 0, "duration": 68}, {"note": 65, "velocity": 112, "duration": 479}, {"note": 0, "velocity": 0, "duration": 361}, {"note": 60, "velocity": 100, "duration": 67}, {"note": 63, "velocity": 90, "duration": 57}, {"note": 0, "velocity": 0, "duration": 63}, {"note": 67, "velocity": 99, "duration": 178}, {"note": 0, "velocity": 0, "duration": 62}, {"note": 65, "velocity": 96, "duration": 45}, {"note": 0, "velocity": 0, "duration": 75}, {"note": 65, "velocity": 100, "duration": 524}, {"note": 0, "velocity": 0, "duration": 76}, {"note": 67, "velocity": 127, "duration": 263}, {"note": 0, "velocity": 0, "duration": 97}, {"note": 65, "velocity": 107, "duration": 263}, {"note": 0, "velocity": 0, "duration": 97}, {"note": 63, "velocity": 112, "duration": 180}, {"note": 70, "velocity": 122, "duration": 958}, {"note": 0, "velocity": 0, "duration": 602}, {"note": 63, "velocity": 107, "duration": 81}, {"note": 65, "velocity": 96, "duration": 82}, {"note": 67, "velocity": 107, "duration": 65}, {"note": 70, "velocity": 107, "duration": 142}, {"note": 0, "velocity": 0, "duration": 98}, {"note": 70, "velocity": 122, "duration": 115}, {"note": 0, "velocity": 0, "duration": 125}, {"note": 67, "velocity": 127, "duration": 123}, {"note": 0, "velocity": 0, "duration": 117}, {"note": 65, "velocity": 112, "duration": 56}, {"note": 0, "velocity": 0, "duration": 64}, {"note": 67, "velocity": 127, "duration": 444}, {"note": 0, "velocity": 0, "duration": 276}, {"note": 67, "velocity": 112, "duration": 88}, {"note": 70, "velocity": 96, "duration": 94}, {"note": 67, "velocity": 117, "duration": 94}, {"note": 72, "velocity": 117, "duration": 97}, {"note": 70, "velocity": 93, "duration": 53}, {"note": 0, "velocity": 0, "duration": 67}, {"note": 70, "velocity": 97, "duration": 49}, {"note": 0, "velocity": 0, "duration": 71}, {"note": 70, "velocity": 117, "duration": 90}, {"note": 70, "velocity": 112, "duration": 49}, {"note": 0, "velocity": 0, "duration": 71}, {"note": 67, "velocity": 127, "duration": 139}, {"note": 0, "velocity": 0, "duration": 101}, {"note": 65, "velocity": 112, "duration": 180}, {"note": 63, "velocity": 99, "duration": 435}, {"note": 0, "velocity": 0, "duration": 165}, {"note": 60, "velocity": 117, "duration": 65}, {"note": 63, "velocity": 99, "duration": 51}, {"note": 0, "velocity": 0, "duration": 69}, {"note": 67, "velocity": 122, "duration": 126}, {"note": 65, "velocity": 85, "duration": 48}, {"note": 0, "velocity": 0, "duration": 72}, {"note": 65, "velocity": 95, "duration": 49}, {"note": 0, "velocity": 0, "duration": 71}, {"note": 63, "velocity": 102, "duration": 47}, {"note": 0, "velocity": 0, "duration": 73}, {"note": 65, "velocity": 122, "duration": 110}, {"note": 67, "velocity": 127, "duration": 133}, {"note": 0, "velocity": 0, "duration": 107}, {"note": 60, "velocity": 107, "duration": 423}, {"note": 0, "velocity": 0, "duration": 417}, {"note": 60, "velocity": 96, "duration": 70}, {"note": 63, "velocity": 99, "duration": 48}, {"note": 0, "velocity": 0, "duration": 72}, {"note": 67, "velocity": 127, "duration": 104}, {"note": 65, "velocity": 96, "duration": 45}, {"note": 0, "velocity": 0, "duration": 75}, {"note": 65, "velocity": 102, "duration": 41}, {"note": 0, "velocity": 0, "duration": 79}, {"note": 65, "velocity": 100, "duration": 43}, {"note": 0, "velocity": 0, "duration": 77}, {"note": 65, "velocity": 117, "duration": 54}, {"note": 0, "velocity": 0, "duration": 186}, {"note": 63, "velocity": 107, "duration": 44}, {"note": 0, "velocity": 0, "duration": 76}, {"note": 65, "velocity": 112, "duration": 542}, {"note": 0, "velocity": 0, "duration": 178}, {"note": 63, "velocity": 107, "duration": 81}, {"note": 65, "velocity": 96, "duration": 82}, {"note": 67, "velocity": 107, "duration": 65}, {"note": 70, "velocity": 107, "duration": 142}, {"note": 0, "velocity": 0, "duration": 98}, {"note": 70, "velocity": 122, "duration": 115}, {"note": 0, "velocity": 0, "duration": 125}, {"note": 67, "velocity": 127, "duration": 123}, {"note": 0, "velocity": 0, "duration": 117}, {"note": 65, "velocity": 112, "duration": 56}, {"note": 0, "velocity": 0, "duration": 64}, {"note": 67, "velocity": 127, "duration": 444}, {"note": 0, "velocity": 0, "duration": 276}, {"note": 67, "velocity": 112, "duration": 88}, {"note": 70, "velocity": 96, "duration": 94}, {"note": 67, "velocity": 117, "duration": 94}, {"note": 72, "velocity": 117, "duration": 97}, {"note": 70, "velocity": 93, "duration": 53}, {"note": 0, "velocity": 0, "duration": 67}, {"note": 70, "velocity": 97, "duration": 49}, {"note": 0, "velocity": 0, "duration": 71}, {"note": 70, "velocity": 117, "duration": 90}, {"note": 70, "velocity": 112, "duration": 49}, {"note": 0, "velocity": 0, "duration": 71}, {"note": 67, "velocity": 127, "duration": 139}, {"note": 0, "velocity": 0, "duration": 101}, {"note": 65, "velocity": 112, "duration": 180}, {"note": 63, "velocity": 99, "duration": 435}, {"note": 0, "velocity": 0, "duration": 165}, {"note": 60, "velocity": 117, "duration": 65}, {"note": 63, "velocity": 99, "duration": 51}, {"note": 0, "velocity": 0, "duration": 69}, {"note": 67, "velocity": 122, "duration": 126}, {"note": 65, "velocity": 85, "duration": 48}, {"note": 0, "velocity": 0, "duration": 72}, {"note": 65, "velocity": 95, "duration": 49}, {"note": 0, "velocity": 0, "duration": 71}, {"note": 63, "velocity": 102, "duration": 47}, {"note": 0, "velocity": 0, "duration": 73}, {"note": 65, "velocity": 122, "duration": 110}, {"note": 67, "velocity": 127, "duration": 133}, {"note": 0, "velocity": 0, "duration": 107}, {"note": 60, "velocity": 107, "duration": 423}, {"note": 0, "velocity": 0, "duration": 417}, {"note": 60, "velocity": 96, "duration": 70}, {"note": 63, "velocity": 99, "duration": 48}, {"note": 0, "velocity": 0, "duration": 72}, {"note": 67, "velocity": 127, "duration": 104}, {"note": 65, "velocity": 96, "duration": 45}, {"note": 0, "velocity": 0, "duration": 75}, {"note": 65, "velocity": 102, "duration": 41}, {"note": 0, "velocity": 0, "duration": 79}, {"note": 65, "velocity": 100, "duration": 501}, {"note": 0, "velocity": 0, "duration": 99}, {"note": 67, "velocity": 127, "duration": 268}, {"note": 0, "velocity": 0, "duration": 92}, {"note": 65, "velocity": 112, "duration": 152}, {"note": 0, "velocity": 0, "duration": 208}, {"note": 60, "velocity": 102, "duration": 240}, {"note": 63, "velocity": 99, "duration": 622}, {"note": 0, "velocity": 0, "duration": 938}, {"note": 63, "velocity": 107, "duration": 81}, {"note": 65, "velocity": 96, "duration": 82}, {"note": 67, "velocity": 107, "duration": 65}, {"note": 70, "velocity": 107, "duration": 142}, {"note": 0, "velocity": 0, "duration": 98}, {"note": 70, "velocity": 122, "duration": 115}, {"note": 0, "velocity": 0, "duration": 125}, {"note": 67, "velocity": 127, "duration": 123}, {"note": 0, "velocity": 0, "duration": 117}, {"note": 65, "velocity": 112, "duration": 56}, {"note": 0, "velocity": 0, "duration": 64}, {"note": 67, "velocity": 127, "duration": 444}, {"note": 0, "velocity": 0, "duration": 276}, {"note": 67, "velocity": 112, "duration": 88}, {"note": 70, "velocity": 96, "duration": 94}, {"note": 67, "velocity": 117, "duration": 94}, {"note": 72, "velocity": 117, "duration": 97}, {"note": 70, "velocity": 93, "duration": 53}, {"note": 0, "velocity": 0, "duration": 67}, {"note": 70, "velocity": 97, "duration": 49}, {"note": 0, "velocity": 0, "duration": 71}, {"note": 70, "velocity": 117, "duration": 90}, {"note": 70, "velocity": 112, "duration": 49}, {"note": 0, "velocity": 0, "duration": 71}, {"note": 67, "velocity": 127, "duration": 139}, {"note": 0, "velocity": 0, "duration": 101}, {"note": 65, "velocity": 112, "duration": 180}, {"note": 63, "velocity": 99, "duration": 435}, {"note": 0, "velocity": 0, "duration": 165}, {"note": 60, "velocity": 117, "duration": 65}, {"note": 63, "velocity": 99, "duration": 51}, {"note": 0, "velocity": 0, "duration": 69}, {"note": 67, "velocity": 122, "duration": 126}, {"note": 65, "velocity": 85, "duration": 48}, {"note": 0, "velocity": 0, "duration": 72}, {"note": 65, "velocity": 95, "duration": 49}, {"note": 0, "velocity": 0, "duration": 71}, {"note": 63, "velocity": 102, "duration": 47}, {"note": 0, "velocity": 0, "duration": 73}, {"note": 65, "velocity": 122, "duration": 110}, {"note": 67, "velocity": 127, "duration": 133}, {"note": 0, "velocity": 0, "duration": 107}, {"note": 60, "velocity": 107, "duration": 423}, {"note": 0, "velocity": 0, "duration": 417}, {"note": 60, "velocity": 96, "duration": 70}, {"note": 63, "velocity": 99, "duration": 48}, {"note": 0, "velocity": 0, "duration": 72}, {"note": 67, "velocity": 127, "duration": 104}, {"note": 65, "velocity": 96, "duration": 45}, {"note": 0, "velocity": 0, "duration": 75}, {"note": 65, "velocity": 102, "duration": 41}, {"note": 0, "velocity": 0, "duration": 79}, {"note": 65, "velocity": 100, "duration": 43}, {"note": 0, "velocity": 0, "duration": 77}, {"note": 65, "velocity": 117, "duration": 54}, {"note": 0, "velocity": 0, "duration": 186}, {"note": 63, "velocity": 107, "duration": 44}, {"note": 0, "velocity": 0, "duration": 76}, {"note": 65, "velocity": 112, "duration": 542}, {"note": 0, "velocity": 0, "duration": 178}, {"note": 63, "velocity": 107, "duration": 81}, {"note": 65, "velocity": 96, "duration": 82}, {"note": 67, "velocity": 107, "duration": 65}, {"note": 70, "velocity": 107, "duration": 142}, {"note": 0, "velocity": 0, "duration": 98}, {"note": 70, "velocity": 122, "duration": 115}, {"note": 0, "velocity": 0, "duration": 125}, {"note": 67, "velocity": 127, "duration": 123}, {"note": 0, "velocity": 0, "duration": 117}, {"note": 65, "velocity": 112, "duration": 56}, {"note": 0, "velocity": 0, "duration": 64}, {"note": 67, "velocity": 127, "duration": 444}, {"note": 0, "velocity": 0, "duration": 276}, {"note": 67, "velocity": 112, "duration": 88}, {"note": 70, "velocity": 96, "duration": 94}, {"note": 67, "velocity": 117, "duration": 94}, {"note": 72, "velocity": 117, "duration": 97}, {"note": 70, "velocity": 93, "duration": 53}, {"note": 0, "velocity": 0, "duration": 67}, {"note": 70, "velocity": 97, "duration": 49}, {"note": 0, "velocity": 0, "duration": 71}, {"note": 70, "velocity": 117, "duration": 90}, {"note": 70, "velocity": 112, "duration": 49}, {"note": 0, "velocity": 0, "duration": 71}, {"note": 67, "velocity": 127, "duration": 139}, {"note": 0, "velocity": 0, "duration": 101}, {"note": 65, "velocity": 112, "duration": 180}, {"note": 63, "velocity": 99, "duration": 435}, {"note": 0, "velocity": 0, "duration": 165}, {"note": 60, "velocity": 117, "duration": 65}, {"note": 63, "velocity": 99, "duration": 51}, {"note": 0, "velocity": 0, "duration": 69}, {"note": 67, "velocity": 122, "duration": 126}, {"note": 65, "velocity": 85, "duration": 48}, {"note": 0, "velocity": 0, "duration": 72}, {"note": 65, "velocity": 95, "duration": 49}, {"note": 0, "velocity": 0, "duration": 71}, {"note": 63, "velocity": 102, "duration": 47}, {"note": 0, "velocity": 0, "duration": 73}, {"note": 65, "velocity": 122, "duration": 110}, {"note": 67, "velocity": 127, "duration": 133}, {"note": 0, "velocity": 0, "duration": 107}, {"note": 60, "velocity": 107, "duration": 423}, {"note": 0, "velocity": 0, "duration": 417}, {"note": 60, "velocity": 96, "duration": 70}, {"note": 63, "velocity": 99, "duration": 48}, {"note": 0, "velocity": 0, "duration": 72}, {"note": 67, "velocity": 127, "duration": 104}, {"note": 65, "velocity": 96, "duration": 45}, {"note": 0, "velocity": 0, "duration": 75}, {"note": 65, "velocity": 102, "duration": 41}, {"note": 0, "velocity": 0, "duration": 79}, {"note": 65, "velocity": 100, "duration": 501}, {"note": 0, "velocity": 0, "duration": 99}, {"note": 67, "velocity": 127, "duration": 268}, {"note": 0, "velocity": 0, "duration": 92}, {"note": 70, "velocity": 122, "duration": 60}, {"note": 0, "velocity": 0, "duration": 300}, {"note": 67, "velocity": 127, "duration": 162}, {"note": 0, "velocity": 0, "duration": 78}, {"note": 65, "velocity": 127, "duration": 119}, {"note": 63, "velocity": 102, "duration": 1095}, {"note": 0, "velocity": 0, "duration": 473}, {"note": 60, "velocity": 97, "duration": 132}, {"note": 63, "velocity": 99, "duration": 70}, {"note": 67, "velocity": 112, "duration": 238}, {"note": 65, "velocity": 100, "duration": 135}, {"note": 0, "velocity": 0, "duration": 118}, {"note": 65, "velocity": 122, "duration": 867}, {"note": 0, "velocity": 0, "duration": 345}, {"note": 67, "velocity": 112, "duration": 266}, {"note": 0, "velocity": 0, "duration": 73}, {"note": 70, "velocity": 107, "duration": 763}, {"note": 0, "velocity": 0, "duration": 147}, {"note": 67, "velocity": 112, "duration": 406}, {"note": 0, "velocity": 0, "duration": 193}, {"note": 65, "velocity": 102, "duration": 181}, {"note": 63, "velocity": 96, "duration": 2532}]]