[[{"note": 67, "velocity": 112, "duration": 54}, {"note": 0, "velocity": 0, "duration": 66}, {"note": 67, "velocity": 100, "duration": 47}, {"note": 0, "velocity": 0, "duration": 73}, {"note": 67, "velocity": 112, "duration": 202}, {"note": 67, "velocity": 102, "duration": 256}, {"note": 0, "velocity": 0, "duration": 224}, {"note": 65, "velocity": 99, "duration": 119}, {"note": 63, "velocity": 99, "duration": 98}, {"note": 65, "velocity": 102, "duration": 148}, {"note": 67, "velocity": 100, "duration": 382}, {"note": 0, "velocity": 0, "duration": 458}, {"note": 65, "velocity": 117, "duration": 50}, {"note": 0, "velocity": 0, "duration": 70}, {"note": 65, "velocity": 86, "duration": 47}, {"note": 0, "velocity": 0, "duration": 73}, {"note": 65, "velocity": 89, "duration": 51}, {"note": 0, "velocity": 0, "duration": 69}, {"note": 65, "velocity": 88, "duration": 46}, {"note": 0, "velocity": 0, "duration": 74}, {"note": 65, "velocity": 100, "duration": 125}, {"note": 0, "velocity": 0, "duration": 115}, {"note": 67, "velocity": 97, "duration": 147}, {"note": 0, "velocity": 0, "duration": 93}, {"note": 60, "velocity": 99, "duration": 304}, {"note": 0, "velocity": 0, "duration": 416}, {"note": 55, "velocity": 92, "duration": 49}, {"note": 0, "velocity": 0, "duration": 71}, {"note": 55, "velocity": 73, "duration": 63}, {"note": 58, "velocity": 95, "duration": 163}, {"note": 0, "velocity": 0, "duration": 77}, {"note": 58, "velocity": 85, "duration": 297}, {"note": 0, "velocity": 0, "duration": 183}, {"note": 55, "velocity": 75, "duration": 77}, {"note": 58, "velocity": 93, "duration": 76}, {"note": 63, "velocity": 77, "duration": 196}, {"note": 60, "velocity": 81, "duration": 327}, {"note": 0, "velocity": 0, "duration": 393}, {"note": 65, "velocity": 99, "duration": 109}, {"note": 0, "velocity": 0, "duration": 131}, {"note": 65, "velocity": 92, "duration": 87}, {"note": 0, "velocity": 0, "duration": 153}, {"note": 65, "velocity": 100, "duration": 96}, {"note": 63, "velocity": 86, "duration": 88}, {"note": 67, "velocity": 93, "duration": 138}, {"note": 0, "velocity": 0, "duration": 102}, {"note": 65, "velocity": 97, "duration": 132}, {"note": 0, "velocity": 0, "duration": 588}, {"note": 67, "velocity": 93, "duration": 41}, {"note": 0, "velocity": 0, "duration": 79}, {"note": 67, "velocity": 90, "duration": 52}, {"note": 0, "velocity": 0, "duration": 68}, {"note": 67, "velocity": 117, "duration": 83}, {"note": 67, "velocity": 95, "duration": 288}, {"note": 0, "velocity": 0, "duration": 312}, {"note": 65, "velocity": 86, "duration": 100}, {"note": 63, "velocity": 92, "duration": 57}, {"note": 0, "velocity": 0, "duration": 63}, {"note": 65, "velocity": 99, "duration": 199}, {"note": 67, "velocity": 95, "duration": 297}, {"note": 0, "velocity": 0, "duration": 543}, {"note": 65, "velocity": 93, "duration": 47}, {"note": 0, "velocity": 0, "duration": 73}, {"note": 65, "velocity": 71, "duration": 50}, {"note": 0, "velocity": 0, "duration": 70}, {"note": 65, "velocity": 90, "duration": 49}, {"note": 0, "velocity": 0, "duration": 71}, {"note": 65, "velocity": 86, "duration": 49}, {"note": 0, "velocity": 0, "duration": 71}, {"note": 65, "velocity": 95, "duration": 161}, {"note": 0, "velocity": 0, "duration": 79}, {"note": 67, "velocity": 95, "duration": 175}, {"note": 0, "velocity": 0, "duration": 65}, {"note": 63, "velocity": 99, "duration": 183}, {"note": 60, "velocity": 78, "duration": 365}, {"note": 0, "velocity": 0, "duration": 235}, {"note": 55, "velocity": 95, "duration": 45}, {"note": 0, "velocity": 0, "duration": 75}, {"note": 55, "velocity": 83, "duration": 67}, {"note": 58, "velocity": 99, "duration": 184}, {"note": 58, "velocity": 93, "duration": 270}, {"note": 0, "velocity": 0, "duration": 210}, {"note": 55, "velocity": 95, "duration": 90}, {"note": 58, "velocity": 102, "duration": 90}, {"note": 60, "velocity": 93, "duration": 104}, {"note": 63, "velocity": 96, "duration": 143}, {"note": 60, "velocity": 97, "duration": 258}, {"note": 0, "velocity": 0, "duration": 462}, {"note": 65, "velocity": 96, "duration": 153}, {"note": 0, "velocity": 0, "duration": 87}, {"note": 65, "velocity": 90, "duration": 124}, {"note": 0, "velocity": 0, "duration": 116}, {"note": 65, "velocity": 88, "duration": 100}, {"note": 63, "velocity": 74, "duration": 95}, {"note": 67, "velocity": 93, "duration": 198}, {"note": 65, "velocity": 86, "duration": 437}, {"note": 63, "velocity": 112, "duration": 95}, {"note": 65, "velocity": 92, "duration": 257}, {"note": 0, "velocity": 0, "duration": 103}, {"note": 67, "velocity": 92, "duration": 168}, {"note": 0, "velocity": 0, "duration": 312}, {"note": 67, "velocity": 92, "duration": 42}, {"note": 0, "velocity": 0, "duration": 78}, {"note": 67, "velocity": 88, "duration": 134}, {"note": 0, "velocity": 0, "duration": 106}, {"note": 67, "velocity": 81, "duration": 138}, {"note": 71, "velocity": 95, "duration": 170}, {"note": 0, "velocity": 0, "duration": 70}, {"note": 71, "velocity": 92, "duration": 279}, {"note": 0, "velocity": 0, "duration": 441}, {"note": 72, "velocity": 117, "duration": 140}, {"note": 0, "velocity": 0, "duration": 100}, {"note": 72, "velocity": 112, "duration": 155}, {"note": 0, "velocity": 0, "duration": 85}, {"note": 74, "velocity": 93, "duration": 125}, {"note": 0, "velocity": 0, "duration": 115}, {"note": 70, "velocity": 99, "duration": 81}, {"note": 72, "velocity": 90, "duration": 174}, {"note": 0, "velocity": 0, "duration": 186}, {"note": 67, "velocity": 95, "duration": 389}, {"note": 0, "velocity": 0, "duration": 91}, {"note": 65, "velocity": 89, "duration": 95}, {"note": 63, "velocity": 82, "duration": 120}, {"note": 65, "velocity": 92, "duration": 160}, {"note": 0, "velocity": 0, "duration": 80}, {"note": 65, "velocity": 86, "duration": 246}, {"note": 0, "velocity": 0, "duration": 234}, {"note": 65, "velocity": 99, "duration": 122}, {"note": 67, "velocity": 73, "duration": 83}, {"note": 63, "velocity": 100, "duration": 190}, {"note": 60, "velocity": 93, "duration": 277}, {"note": 0, "velocity": 0, "duration": 443}, {"note": 65, "velocity": 95, "duration": 137}, {"note": 0, "velocity": 0, "duration": 103}, {"note": 65, "velocity": 93, "duration": 107}, {"note": 0, "velocity": 0, "duration": 133}, {"note": 65, "velocity": 90, "duration": 95}, {"note": 63, "velocity": 93, "duration": 84}, {"note": 67, "velocity": 96, "duration": 154}, {"note": 0, "velocity": 0, "duration": 86}, {"note": 65, "velocity": 95, "duration": 381}, {"note": 0, "velocity": 0, "duration": 99}, {"note": 63, "velocity": 122, "duration": 51}, {"note": 0, "velocity": 0, "duration": 69}, {"note": 65, "velocity": 100, "duration": 249}, {"note": 0, "velocity": 0, "duration": 111}, {"note": 67, "velocity": 112, "duration": 208}, {"note": 0, "velocity": 0, "duration": 272}, {"note": 67, "velocity": 100, "duration": 43}, {"note": 0, "velocity": 0, "duration": 77}, {"note": 67, "velocity": 86, "duration": 48}, {"note": 0, "velocity": 0, "duration": 72}, {"note": 67, "velocity": 83, "duration": 49}, {"note": 0, "velocity": 0, "duration": 71}, {"note": 67, "velocity": 89, "duration": 110}, {"note": 71, "velocity": 122, "duration": 131}, {"note": 0, "velocity": 0, "duration": 109}, {"note": 71, "velocity": 117, "duration": 252}, {"note": 0, "velocity": 0, "duration": 468}, {"note": 72, "velocity": 117, "duration": 155}, {"note": 0, "velocity": 0, "duration": 85}, {"note": 72, "velocity": 112, "duration": 130}, {"note": 0, "velocity": 0, "duration": 110}, {"note": 72, "velocity": 102, "duration": 110}, {"note": 0, "velocity": 0, "duration": 130}, {"note": 70, "velocity": 100, "duration": 77}, {"note": 72, "velocity": 97, "duration": 176}, {"note": 0, "velocity": 0, "duration": 184}, {"note": 67, "velocity": 100, "duration": 297}, {"note": 0, "velocity": 0, "duration": 183}, {"note": 65, "velocity": 99, "duration": 101}, {"note": 63, "velocity": 72, "duration": 102}, {"note": 65, "velocity": 112, "duration": 87}, {"note": 0, "velocity": 0, "duration": 153}, {"note": 65, "velocity": 107, "duration": 339}, {"note": 65, "velocity": 99, "duration": 120}, {"note": 0, "velocity": 0, "duration": 120}, {"note": 67, "velocity": 95, "duration": 93}, {"note": 0, "velocity": 0, "duration": 147}, {"note": 63, "velocity": 100, "duration": 70}, {"note": 0, "velocity": 0, "duration": 170}, {"note": 60, "velocity": 95, "duration": 451}, {"note": 0, "velocity": 0, "duration": 389}, {"note": 62, "velocity": 97, "duration": 108}, {"note": 0, "velocity": 0, "duration": 132}, {"note": 62, "velocity": 86, "duration": 95}, {"note": 0, "velocity": 0, "duration": 145}, {"note": 63, "velocity": 112, "duration": 89}, {"note": 0, "velocity": 0, "duration": 151}, {"note": 62, "velocity": 102, "duration": 151}, {"note": 0, "velocity": 0, "duration": 89}, {"note": 58, "velocity": 99, "duration": 158}, {"note": 0, "velocity": 0, "duration": 82}, {"note": 58, "velocity": 99, "duration": 243}, {"note": 55, "velocity": 90, "duration": 383}, {"note": 0, "velocity": 0, "duration": 97}, {"note": 60, "velocity": 96, "duration": 1014}, {"note": 0, "velocity": 0, "duration": 6186}, {"note": 67, "velocity": 112, "duration": 54}, {"note": 0, "velocity": 0, "duration": 66}, {"note": 67, "velocity": 100, "duration": 47}, {"note": 0, "velocity": 0, "duration": 73}, {"note": 67, "velocity": 112, "duration": 202}, {"note": 67, "velocity": 102, "duration": 256}, {"note": 0, "velocity": 0, "duration": 224}, {"note": 65, "velocity": 99, "duration": 119}, {"note": 63, "velocity": 99, "duration": 98}, {"note": 65, "velocity": 102, "duration": 148}, {"note": 67, "velocity": 100, "duration": 382}, {"note": 0, "velocity": 0, "duration": 458}, {"note": 65, "velocity": 117, "duration": 50}, {"note": 0, "velocity": 0, "duration": 70}, {"note": 65, "velocity": 86, "duration": 47}, {"note": 0, "velocity": 0, "duration": 73}, {"note": 65, "velocity": 89, "duration": 51}, {"note": 0, "velocity": 0, "duration": 69}, {"note": 65, "velocity": 88, "duration": 46}, {"note": 0, "velocity": 0, "duration": 74}, {"note": 65, "velocity": 100, "duration": 125}, {"note": 0, "velocity": 0, "duration": 115}, {"note": 67, "velocity": 97, "duration": 147}, {"note": 0, "velocity": 0, "duration": 93}, {"note": 60, "velocity": 99, "duration": 304}, {"note": 0, "velocity": 0, "duration": 416}, {"note": 55, "velocity": 92, "duration": 49}, {"note": 0, "velocity": 0, "duration": 71}, {"note": 55, "velocity": 73, "duration": 63}, {"note": 58, "velocity": 95, "duration": 163}, {"note": 0, "velocity": 0, "duration": 77}, {"note": 58, "velocity": 85, "duration": 297}, {"note": 0, "velocity": 0, "duration": 183}, {"note": 55, "velocity": 75, "duration": 77}, {"note": 58, "velocity": 93, "duration": 76}, {"note": 63, "velocity": 77, "duration": 196}, {"note": 60, "velocity": 81, "duration": 327}, {"note": 0, "velocity": 0, "duration": 393}, {"note": 65, "velocity": 99, "duration": 109}, {"note": 0, "velocity": 0, "duration": 131}, {"note": 65, "velocity": 92, "duration": 87}, {"note": 0, "velocity": 0, "duration": 153}, {"note": 65, "velocity": 100, "duration": 96}, {"note": 63, "velocity": 86, "duration": 88}, {"note": 67, "velocity": 93, "duration": 138}, {"note": 0, "velocity": 0, "duration": 102}, {"note": 65, "velocity": 97, "duration": 132}, {"note": 0, "velocity": 0, "duration": 588}, {"note": 67, "velocity": 93, "duration": 41}, {"note": 0, "velocity": 0, "duration": 79}, {"note": 67, "velocity": 90, "duration": 52}, {"note": 0, "velocity": 0, "duration": 68}, {"note": 67, "velocity": 117, "duration": 83}, {"note": 67, "velocity": 95, "duration": 288}, {"note": 0, "velocity": 0, "duration": 312}, {"note": 65, "velocity": 86, "duration": 100}, {"note": 63, "velocity": 92, "duration": 57}, {"note": 0, "velocity": 0, "duration": 63}, {"note": 65, "velocity": 99, "duration": 199}, {"note": 67, "velocity": 95, "duration": 297}, {"note": 0, "velocity": 0, "duration": 543}, {"note": 65, "velocity": 93, "duration": 47}, {"note": 0, "velocity": 0, "duration": 73}, {"note": 65, "velocity": 71, "duration": 50}, {"note": 0, "velocity": 0, "duration": 70}, {"note": 65, "velocity": 90, "duration": 49}, {"note": 0, "velocity": 0, "duration": 71}, {"note": 65, "velocity": 86, "duration": 49}, {"note": 0, "velocity": 0, "duration": 71}, {"note": 65, "velocity": 95, "duration": 161}, {"note": 0, "velocity": 0, "duration": 79}, {"note": 67, "velocity": 95, "duration": 175}, {"note": 0, "velocity": 0, "duration": 65}, {"note": 63, "velocity": 99, "duration": 183}, {"note": 60, "velocity": 78, "duration": 365}, {"note": 0, "velocity": 0, "duration": 235}, {"note": 55, "velocity": 95, "duration": 45}, {"note": 0, "velocity": 0, "duration": 75}, {"note": 55, "velocity": 83, "duration": 67}, {"note": 58, "velocity": 99, "duration": 184}, {"note": 58, "velocity": 93, "duration": 270}, {"note": 0, "velocity": 0, "duration": 210}, {"note": 55, "velocity": 95, "duration": 90}, {"note": 58, "velocity": 102, "duration": 90}, {"note": 60, "velocity": 93, "duration": 104}, {"note": 63, "velocity": 96, "duration": 143}, {"note": 60, "velocity": 97, "duration": 258}, {"note": 0, "velocity": 0, "duration": 462}, {"note": 65, "velocity": 96, "duration": 153}, {"note": 0, "velocity": 0, "duration": 87}, {"note": 65, "velocity": 90, "duration": 124}, {"note": 0, "velocity": 0, "duration": 116}, {"note": 65, "velocity": 88, "duration": 100}, {"note": 63, "velocity": 74, "duration": 95}, {"note": 67, "velocity": 93, "duration": 198}, {"note": 65, "velocity": 86, "duration": 437}, {"note": 63, "velocity": 112, "duration": 95}, {"note": 65, "velocity": 92, "duration": 257}, {"note": 0, "velocity": 0, "duration": 103}, {"note": 67, "velocity": 92, "duration": 168}, {"note": 0, "velocity": 0, "duration": 312}, {"note": 67, "velocity": 92, "duration": 42}, {"note": 0, "velocity": 0, "duration": 78}, {"note": 67, "velocity": 88, "duration": 134}, {"note": 0, "velocity": 0, "duration": 106}, {"note": 67, "velocity": 81, "duration": 138}, {"note": 71, "velocity": 95, "duration": 170}, {"note": 0, "velocity": 0, "duration": 70}, {"note": 71, "velocity": 92, "duration": 279}, {"note": 0, "velocity": 0, "duration": 441}, {"note": 72, "velocity": 117, "duration": 140}, {"note": 0, "velocity": 0, "duration": 100}, {"note": 72, "velocity": 112, "duration": 155}, {"note": 0, "velocity": 0, "duration": 85}, {"note": 74, "velocity": 93, "duration": 125}, {"note": 0, "velocity": 0, "duration": 115}, {"note": 70, "velocity": 99, "duration": 81}, {"note": 72, "velocity": 90, "duration": 174}, {"note": 0, "velocity": 0, "duration": 186}, {"note": 67, "velocity": 95, "duration": 389}, {"note": 0, "velocity": 0, "duration": 91}, {"note": 65, "velocity": 89, "duration": 95}, {"note": 63, "velocity": 82, "duration": 120}, {"note": 65, "velocity": 92, "duration": 160}, {"note": 0, "velocity": 0, "duration": 80}, {"note": 65, "velocity": 86, "duration": 246}, {"note": 0, "velocity": 0, "duration": 234}, {"note": 65, "velocity": 99, "duration": 122}, {"note": 67, "velocity": 73, "duration": 83}, {"note": 63, "velocity": 100, "duration": 190}, {"note": 60, "velocity": 93, "duration": 277}, {"note": 0, "velocity": 0, "duration": 443}, {"note": 65, "velocity": 95, "duration": 137}, {"note": 0, "velocity": 0, "duration": 103}, {"note": 65, "velocity": 93, "duration": 107}, {"note": 0, "velocity": 0, "duration": 133}, {"note": 65, "velocity": 90, "duration": 95}, {"note": 63, "velocity": 93, "duration": 84}, {"note": 67, "velocity": 96, "duration": 154}, {"note": 0, "velocity": 0, "duration": 86}, {"note": 65, "velocity": 95, "duration": 381}, {"note": 0, "velocity": 0, "duration": 99}, {"note": 63, "velocity": 122, "duration": 51}, {"note": 0, "velocity": 0, "duration": 69}, {"note": 65, "velocity": 100, "duration": 249}, {"note": 0, "velocity": 0, "duration": 111}, {"note": 67, "velocity": 112, "duration": 208}, {"note": 0, "velocity": 0, "duration": 272}, {"note": 67, "velocity": 100, "duration": 43}, {"note": 0, "velocity": 0, "duration": 77}, {"note": 67, "velocity": 86, "duration": 48}, {"note": 0, "velocity": 0, "duration": 72}, {"note": 67, "velocity": 83, "duration": 49}, {"note": 0, "velocity": 0, "duration": 71}, {"note": 67, "velocity": 89, "duration": 110}, {"note": 71, "velocity": 122, "duration": 131}, {"note": 0, "velocity": 0, "duration": 109}, {"note": 71, "velocity": 117, "duration": 252}, {"note": 0, "velocity": 0, "duration": 468}, {"note": 72, "velocity": 117, "duration": 155}, {"note": 0, "velocity": 0, "duration": 85}, {"note": 72, "velocity": 112, "duration": 130}, {"note": 0, "velocity": 0, "duration": 110}, {"note": 72, "velocity": 102, "duration": 110}, {"note": 0, "velocity": 0, "duration": 130}, {"note": 70, "velocity": 100, "duration": 77}, {"note": 72, "velocity": 97, "duration": 176}, {"note": 0, "velocity": 0, "duration": 184}, {"note": 67, "velocity": 100, "duration": 297}, {"note": 0, "velocity": 0, "duration": 183}, {"note": 65, "velocity": 99, "duration": 101}, {"note": 63, "velocity": 72, "duration": 102}, {"note": 65, "velocity": 112, "duration": 87}, {"note": 0, "velocity": 0, "duration": 153}, {"note": 65, "velocity": 107, "duration": 339}, {"note": 65, "velocity": 99, "duration": 120}, {"note": 0, "velocity": 0, "duration": 120}, {"note": 67, "velocity": 95, "duration": 93}, {"note": 0, "velocity": 0, "duration": 147}, {"note": 63, "velocity": 100, "duration": 70}, {"note": 0, "velocity": 0, "duration": 170}, {"note": 60, "velocity": 95, "duration": 451}, {"note": 0, "velocity": 0, "duration": 389}, {"note": 62, "velocity": 97, "duration": 108}, {"note": 0, "velocity": 0, "duration": 132}, {"note": 62, "velocity": 86, "duration": 95}, {"note": 0, "velocity": 0, "duration": 145}, {"note": 63, "velocity": 112, "duration": 89}, {"note": 0, "velocity": 0, "duration": 151}, {"note": 62, "velocity": 102, "duration": 151}, {"note": 0, "velocity": 0, "duration": 89}, {"note": 58, "velocity": 99, "duration": 158}, {"note": 0, "velocity": 0, "duration": 82}, {"note": 58, "velocity": 99, "duration": 243}, {"note": 55, "velocity": 90, "duration": 383}, {"note": 0, "velocity": 0, "duration": 97}, {"note": 60, "velocity": 96, "duration": 1014}, {"note": 0, "velocity": 0, "duration": 2106}, {"note": 63, "velocity": 112, "duration": 95}, {"note": 65, "velocity": 92, "duration": 257}, {"note": 0, "velocity": 0, "duration": 103}, {"note": 67, "velocity": 92, "duration": 168}, {"note": 0, "velocity": 0, "duration": 312}, {"note": 67, "velocity": 92, "duration": 42}, {"note": 0, "velocity": 0, "duration": 78}, {"note": 67, "velocity": 88, "duration": 134}, {"note": 0, "velocity": 0, "duration": 106}, {"note": 67, "velocity": 81, "duration": 138}, {"note": 71, "velocity": 95, "duration": 170}, {"note": 0, "velocity": 0, "duration": 70}, {"note": 71, "velocity": 92, "duration": 279}, {"note": 0, "velocity": 0, "duration": 441}, {"note": 72, "velocity": 117, "duration": 140}, {"note": 0, "velocity": 0, "duration": 100}, {"note": 72, "velocity": 112, "duration": 155}, {"note": 0, "velocity": 0, "duration": 85}, {"note": 74, "velocity": 93, "duration": 125}, {"note": 0, "velocity": 0, "duration": 115}, {"note": 70, "velocity": 99, "duration": 81}, {"note": 72, "velocity": 90, "duration": 174}, {"note": 0, "velocity": 0, "duration": 186}, {"note": 67, "velocity": 95, "duration": 389}, {"note": 0, "velocity": 0, "duration": 91}, {"note": 65, "velocity": 89, "duration": 95}, {"note": 63, "velocity": 82, "duration": 120}, {"note": 65, "velocity": 92, "duration": 160}, {"note": 0, "velocity": 0, "duration": 80}, {"note": 65, "velocity": 86, "duration": 246}, {"note": 0, "velocity": 0, "duration": 234}, {"note": 65, "velocity": 99, "duration": 122}, {"note": 67, "velocity": 73, "duration": 83}, {"note": 63, "velocity": 100, "duration": 190}, {"note": 60, "velocity": 93, "duration": 277}, {"note": 0, "velocity": 0, "duration": 443}, {"note": 65, "velocity": 95, "duration": 137}, {"note": 0, "velocity": 0, "duration": 103}, {"note": 65, "velocity": 93, "duration": 107}, {"note": 0, "velocity": 0, "duration": 133}, {"note": 65, "velocity": 90, "duration": 95}, {"note": 63, "velocity": 93, "duration": 84}, {"note": 67, "velocity": 96, "duration": 154}, {"note": 0, "velocity": 0, "duration": 86}, {"note": 65, "velocity": 95, "duration": 381}, {"note": 0, "velocity": 0, "duration": 99}, {"note": 63, "velocity": 122, "duration": 51}, {"note": 0, "velocity": 0, "duration": 69}, {"note": 65, "velocity": 100, "duration": 249}, {"note": 0, "velocity": 0, "duration": 111}, {"note": 67, "velocity": 112, "duration": 208}, {"note": 0, "velocity": 0, "duration": 272}, {"note": 67, "velocity": 100, "duration": 43}, {"note": 0, "velocity": 0, "duration": 77}, {"note": 67, "velocity": 86, "duration": 48}, {"note": 0, "velocity": 0, "duration": 72}, {"note": 67, "velocity": 83, "duration": 49}, {"note": 0, "velocity": 0, "duration": 71}, {"note": 67, "velocity": 89, "duration": 110}, {"note": 71, "velocity": 122, "duration": 131}, {"note": 0, "velocity": 0, "duration": 109}, {"note": 71, "velocity": 117, "duration": 252}, {"note": 0, "velocity": 0, "duration": 468}, {"note": 72, "velocity": 117, "duration": 155}, {"note": 0, "velocity": 0, "duration": 85}, {"note": 72, "velocity": 112, "duration": 130}, {"note": 0, "velocity": 0, "duration": 110}, {"note": 72, "velocity": 102, "duration": 110}, {"note": 0, "velocity": 0, "duration": 130}, {"note": 70, "velocity": 100, "duration": 77}, {"note": 72, "velocity": 97, "duration": 176}, {"note": 0, "velocity": 0, "duration": 184}, {"note": 67, "velocity": 100, "duration": 297}, {"note": 0, "velocity": 0, "duration": 183}, {"note": 65, "velocity": 99, "duration": 101}, {"note": 63, "velocity": 72, "duration": 102}, {"note": 65, "velocity": 112, "duration": 87}, {"note": 0, "velocity": 0, "duration": 153}, {"note": 65, "velocity": 107, "duration": 339}, {"note": 65, "velocity": 99, "duration": 120}, {"note": 0, "velocity": 0, "duration": 120}, {"note": 67, "velocity": 95, "duration": 93}, {"note": 0, "velocity": 0, "duration": 147}, {"note": 63, "velocity": 100, "duration": 70}, {"note": 0, "velocity": 0, "duration": 170}, {"note": 60, "velocity": 95, "duration": 451}, {"note": 0, "velocity": 0, "duration": 389}, {"note": 62, "velocity": 97, "duration": 108}, {"note": 0, "velocity": 0, "duration": 132}, {"note": 62, "velocity": 86, "duration": 95}, {"note": 0, "velocity": 0, "duration": 145}, {"note": 63, "velocity": 112, "duration": 89}, {"note": 0, "velocity": 0, "duration": 151}, {"note": 62, "velocity": 102, "duration": 151}, {"note": 0, "velocity": 0, "duration": 89}, {"note": 58, "velocity": 99, "duration": 158}, {"note": 0, "velocity": 0, "duration": 82}, {"note": 58, "velocity": 99, "duration": 243}, {"note": 55, "velocity": 90, "duration": 383}, {"note": 0, "velocity": 0, "duration": 97}, {"note": 60, "velocity": 96, "duration": 1014}]]