[[{"note": 62, "velocity": 100, "duration": 192}, {"note": 60, "velocity": 71, "duration": 238}, {"note": 62, "velocity": 85, "duration": 199}, {"note": 67, "velocity": 93, "duration": 97}, {"note": 62, "velocity": 89, "duration": 438}, {"note": 0, "velocity": 0, "duration": 402}, {"note": 58, "velocity": 99, "duration": 71}, {"note": 60, "velocity": 71, "duration": 48}, {"note": 0, "velocity": 0, "duration": 72}, {"note": 62, "velocity": 97, "duration": 190}, {"note": 60, "velocity": 95, "duration": 151}, {"note": 0, "velocity": 0, "duration": 89}, {"note": 60, "velocity": 95, "duration": 121}, {"note": 0, "velocity": 0, "duration": 119}, {"note": 58, "velocity": 93, "duration": 79}, {"note": 60, "velocity": 95, "duration": 591}, {"note": 0, "velocity": 0, "duration": 489}, {"note": 62, "velocity": 95, "duration": 146}, {"note": 0, "velocity": 0, "duration": 94}, {"note": 60, "velocity": 83, "duration": 135}, {"note": 0, "velocity": 0, "duration": 105}, {"note": 62, "velocity": 93, "duration": 249}, {"note": 67, "velocity": 96, "duration": 49}, {"note": 0, "velocity": 0, "duration": 71}, {"note": 67, "velocity": 97, "duration": 525}, {"note": 0, "velocity": 0, "duration": 195}, {"note": 70, "velocity": 97, "duration": 100}, {"note": 69, "velocity": 79, "duration": 139}, {"note": 70, "velocity": 97, "duration": 111}, {"note": 65, "velocity": 89, "duration": 133}, {"note": 0, "velocity": 0, "duration": 107}, {"note": 65, "velocity": 95, "duration": 66}, {"note": 65, "velocity": 95, "duration": 172}, {"note": 0, "velocity": 0, "duration": 68}, {"note": 62, "velocity": 72, "duration": 126}, {"note": 67, "velocity": 92, "duration": 123}, {"note": 65, "velocity": 95, "duration": 510}, {"note": 0, "velocity": 0, "duration": 1050}, {"note": 67, "velocity": 95, "duration": 52}, {"note": 0, "velocity": 0, "duration": 68}, {"note": 67, "velocity": 78, "duration": 55}, {"note": 0, "velocity": 0, "duration": 65}, {"note": 69, "velocity": 90, "duration": 88}, {"note": 70, "velocity": 95, "duration": 115}, {"note": 69, "velocity": 99, "duration": 220}, {"note": 65, "velocity": 77, "duration": 30}, {"note": 0, "velocity": 0, "duration": 90}, {"note": 65, "velocity": 93, "duration": 247}, {"note": 0, "velocity": 0, "duration": 593}, {"note": 65, "velocity": 100, "duration": 41}, {"note": 0, "velocity": 0, "duration": 79}, {"note": 65, "velocity": 77, "duration": 48}, {"note": 0, "velocity": 0, "duration": 72}, {"note": 65, "velocity": 85, "duration": 49}, {"note": 0, "velocity": 0, "duration": 71}, {"note": 65, "velocity": 76, "duration": 56}, {"note": 0, "velocity": 0, "duration": 64}, {"note": 65, "velocity": 100, "duration": 74}, {"note": 67, "velocity": 102, "duration": 92}, {"note": 60, "velocity": 89, "duration": 120}, {"note": 62, "velocity": 86, "duration": 562}, {"note": 58, "velocity": 107, "duration": 81}, {"note": 60, "velocity": 82, "duration": 135}, {"note": 62, "velocity": 83, "duration": 192}, {"note": 55, "velocity": 74, "duration": 147}, {"note": 0, "velocity": 0, "duration": 93}, {"note": 55, "velocity": 79, "duration": 251}, {"note": 62, "velocity": 93, "duration": 139}, {"note": 0, "velocity": 0, "duration": 101}, {"note": 62, "velocity": 92, "duration": 146}, {"note": 0, "velocity": 0, "duration": 94}, {"note": 58, "velocity": 77, "duration": 70}, {"note": 60, "velocity": 82, "duration": 448}, {"note": 0, "velocity": 0, "duration": 152}, {"note": 63, "velocity": 97, "duration": 51}, {"note": 0, "velocity": 0, "duration": 69}, {"note": 63, "velocity": 77, "duration": 44}, {"note": 0, "velocity": 0, "duration": 76}, {"note": 63, "velocity": 85, "duration": 49}, {"note": 0, "velocity": 0, "duration": 71}, {"note": 63, "velocity": 99, "duration": 245}, {"note": 0, "velocity": 0, "duration": 115}, {"note": 63, "velocity": 100, "duration": 143}, {"note": 0, "velocity": 0, "duration": 97}, {"note": 62, "velocity": 102, "duration": 820}, {"note": 0, "velocity": 0, "duration": 1100}, {"note": 62, "velocity": 100, "duration": 192}, {"note": 60, "velocity": 71, "duration": 238}, {"note": 62, "velocity": 85, "duration": 199}, {"note": 67, "velocity": 93, "duration": 97}, {"note": 62, "velocity": 89, "duration": 438}, {"note": 0, "velocity": 0, "duration": 402}, {"note": 58, "velocity": 99, "duration": 71}, {"note": 60, "velocity": 71, "duration": 48}, {"note": 0, "velocity": 0, "duration": 72}, {"note": 62, "velocity": 97, "duration": 190}, {"note": 60, "velocity": 95, "duration": 151}, {"note": 0, "velocity": 0, "duration": 89}, {"note": 60, "velocity": 95, "duration": 121}, {"note": 0, "velocity": 0, "duration": 119}, {"note": 58, "velocity": 93, "duration": 79}, {"note": 60, "velocity": 95, "duration": 591}, {"note": 0, "velocity": 0, "duration": 489}, {"note": 62, "velocity": 95, "duration": 146}, {"note": 0, "velocity": 0, "duration": 94}, {"note": 60, "velocity": 83, "duration": 135}, {"note": 0, "velocity": 0, "duration": 105}, {"note": 62, "velocity": 93, "duration": 249}, {"note": 67, "velocity": 96, "duration": 49}, {"note": 0, "velocity": 0, "duration": 71}, {"note": 67, "velocity": 97, "duration": 525}, {"note": 0, "velocity": 0, "duration": 195}, {"note": 70, "velocity": 97, "duration": 100}, {"note": 69, "velocity": 79, "duration": 139}, {"note": 70, "velocity": 97, "duration": 111}, {"note": 65, "velocity": 89, "duration": 133}, {"note": 0, "velocity": 0, "duration": 107}, {"note": 65, "velocity": 95, "duration": 66}, {"note": 65, "velocity": 95, "duration": 172}, {"note": 0, "velocity": 0, "duration": 68}, {"note": 62, "velocity": 72, "duration": 126}, {"note": 67, "velocity": 92, "duration": 123}, {"note": 65, "velocity": 95, "duration": 510}, {"note": 0, "velocity": 0, "duration": 1050}, {"note": 67, "velocity": 95, "duration": 52}, {"note": 0, "velocity": 0, "duration": 68}, {"note": 67, "velocity": 78, "duration": 55}, {"note": 0, "velocity": 0, "duration": 65}, {"note": 69, "velocity": 90, "duration": 88}, {"note": 70, "velocity": 95, "duration": 115}, {"note": 69, "velocity": 99, "duration": 220}, {"note": 65, "velocity": 77, "duration": 30}, {"note": 0, "velocity": 0, "duration": 90}, {"note": 65, "velocity": 93, "duration": 247}, {"note": 0, "velocity": 0, "duration": 593}, {"note": 65, "velocity": 100, "duration": 41}, {"note": 0, "velocity": 0, "duration": 79}, {"note": 65, "velocity": 77, "duration": 48}, {"note": 0, "velocity": 0, "duration": 72}, {"note": 65, "velocity": 85, "duration": 49}, {"note": 0, "velocity": 0, "duration": 71}, {"note": 65, "velocity": 76, "duration": 56}, {"note": 0, "velocity": 0, "duration": 64}, {"note": 65, "velocity": 100, "duration": 74}, {"note": 67, "velocity": 102, "duration": 92}, {"note": 60, "velocity": 89, "duration": 120}, {"note": 62, "velocity": 86, "duration": 562}, {"note": 58, "velocity": 107, "duration": 81}, {"note": 60, "velocity": 82, "duration": 135}, {"note": 62, "velocity": 83, "duration": 192}, {"note": 55, "velocity": 74, "duration": 147}, {"note": 0, "velocity": 0, "duration": 93}, {"note": 55, "velocity": 79, "duration": 251}, {"note": 62, "velocity": 93, "duration": 139}, {"note": 0, "velocity": 0, "duration": 101}, {"note": 62, "velocity": 92, "duration": 146}, {"note": 0, "velocity": 0, "duration": 94}, {"note": 58, "velocity": 77, "duration": 70}, {"note": 60, "velocity": 82, "duration": 448}, {"note": 0, "velocity": 0, "duration": 152}, {"note": 67, "velocity": 102, "duration": 46}, {"note": 0, "velocity": 0, "duration": 74}, {"note": 67, "velocity": 86, "duration": 49}, {"note": 0, "velocity": 0, "duration": 71}, {"note": 67, "velocity": 93, "duration": 52}, {"note": 0, "velocity": 0, "duration": 68}, {"note": 67, "velocity": 93, "duration": 53}, {"note": 0, "velocity": 0, "duration": 67}, {"note": 67, "velocity": 107, "duration": 141}, {"note": 0, "velocity": 0, "duration": 99}, {"note": 67, "velocity": 100, "duration": 57}, {"note": 0, "velocity": 0, "duration": 63}, {"note": 69, "velocity": 117, "duration": 476}, {"note": 0, "velocity": 0, "duration": 124}, {"note": 67, "velocity": 102, "duration": 123}, {"note": 0, "velocity": 0, "duration": 117}, {"note": 69, "velocity": 112, "duration": 107}, {"note": 0, "velocity": 0, "duration": 133}, {"note": 70, "velocity": 127, "duration": 113}, {"note": 69, "velocity": 86, "duration": 47}, {"note": 0, "velocity": 0, "duration": 73}, {"note": 70, "velocity": 127, "duration": 72}, {"note": 69, "velocity": 97, "duration": 48}, {"note": 0, "velocity": 0, "duration": 72}, {"note": 70, "velocity": 127, "duration": 90}, {"note": 0, "velocity": 0, "duration": 150}, {"note": 69, "velocity": 107, "duration": 191}, {"note": 67, "velocity": 122, "duration": 151}, {"note": 0, "velocity": 0, "duration": 89}, {"note": 67, "velocity": 107, "duration": 82}, {"note": 65, "velocity": 107, "duration": 228}, {"note": 0, "velocity": 0, "duration": 372}, {"note": 67, "velocity": 117, "duration": 110}, {"note": 65, "velocity": 76, "duration": 96}, {"note": 67, "velocity": 97, "duration": 84}, {"note": 65, "velocity": 93, "duration": 64}, {"note": 67, "velocity": 107, "duration": 123}, {"note": 0, "velocity": 0, "duration": 117}, {"note": 65, "velocity": 102, "duration": 143}, {"note": 0, "velocity": 0, "duration": 97}, {"note": 65, "velocity": 122, "duration": 160}, {"note": 0, "velocity": 0, "duration": 80}, {"note": 67, "velocity": 107, "duration": 54}, {"note": 0, "velocity": 0, "duration": 66}, {"note": 62, "velocity": 100, "duration": 299}, {"note": 0, "velocity": 0, "duration": 301}, {"note": 62, "velocity": 122, "duration": 171}, {"note": 0, "velocity": 0, "duration": 69}, {"note": 60, "velocity": 100, "duration": 163}, {"note": 0, "velocity": 0, "duration": 77}, {"note": 60, "velocity": 89, "duration": 145}, {"note": 0, "velocity": 0, "duration": 95}, {"note": 58, "velocity": 117, "duration": 131}, {"note": 0, "velocity": 0, "duration": 109}, {"note": 62, "velocity": 99, "duration": 170}, {"note": 0, "velocity": 0, "duration": 70}, {"note": 67, "velocity": 100, "duration": 61}, {"note": 67, "velocity": 112, "duration": 236}, {"note": 0, "velocity": 0, "duration": 364}, {"note": 70, "velocity": 127, "duration": 94}, {"note": 69, "velocity": 90, "duration": 54}, {"note": 0, "velocity": 0, "duration": 66}, {"note": 70, "velocity": 112, "duration": 70}, {"note": 69, "velocity": 107, "duration": 128}, {"note": 0, "velocity": 0, "duration": 112}, {"note": 69, "velocity": 102, "duration": 51}, {"note": 0, "velocity": 0, "duration": 69}, {"note": 67, "velocity": 100, "duration": 43}, {"note": 0, "velocity": 0, "duration": 77}, {"note": 69, "velocity": 127, "duration": 465}, {"note": 0, "velocity": 0, "duration": 135}, {"note": 67, "velocity": 102, "duration": 123}, {"note": 0, "velocity": 0, "duration": 117}, {"note": 69, "velocity": 112, "duration": 107}, {"note": 0, "velocity": 0, "duration": 133}, {"note": 70, "velocity": 127, "duration": 113}, {"note": 69, "velocity": 86, "duration": 47}, {"note": 0, "velocity": 0, "duration": 73}, {"note": 70, "velocity": 127, "duration": 72}, {"note": 69, "velocity": 97, "duration": 48}, {"note": 0, "velocity": 0, "duration": 72}, {"note": 70, "velocity": 127, "duration": 90}, {"note": 0, "velocity": 0, "duration": 150}, {"note": 69, "velocity": 107, "duration": 191}, {"note": 67, "velocity": 122, "duration": 151}, {"note": 0, "velocity": 0, "duration": 89}, {"note": 67, "velocity": 107, "duration": 82}, {"note": 65, "velocity": 107, "duration": 228}, {"note": 0, "velocity": 0, "duration": 372}, {"note": 67, "velocity": 117, "duration": 110}, {"note": 65, "velocity": 76, "duration": 96}, {"note": 67, "velocity": 97, "duration": 84}, {"note": 65, "velocity": 93, "duration": 64}, {"note": 67, "velocity": 107, "duration": 123}, {"note": 0, "velocity": 0, "duration": 117}, {"note": 65, "velocity": 102, "duration": 143}, {"note": 0, "velocity": 0, "duration": 97}, {"note": 65, "velocity": 122, "duration": 160}, {"note": 0, "velocity": 0, "duration": 80}, {"note": 67, "velocity": 107, "duration": 54}, {"note": 0, "velocity": 0, "duration": 66}, {"note": 62, "velocity": 100, "duration": 299}, {"note": 0, "velocity": 0, "duration": 301}, {"note": 62, "velocity": 122, "duration": 171}, {"note": 0, "velocity": 0, "duration": 69}, {"note": 60, "velocity": 100, "duration": 163}, {"note": 0, "velocity": 0, "duration": 77}, {"note": 60, "velocity": 89, "duration": 145}, {"note": 0, "velocity": 0, "duration": 95}, {"note": 58, "velocity": 117, "duration": 131}, {"note": 0, "velocity": 0, "duration": 109}, {"note": 62, "velocity": 99, "duration": 170}, {"note": 0, "velocity": 0, "duration": 70}, {"note": 67, "velocity": 100, "duration": 61}, {"note": 67, "velocity": 112, "duration": 236}, {"note": 0, "velocity": 0, "duration": 364}, {"note": 70, "velocity": 127, "duration": 94}, {"note": 69, "velocity": 90, "duration": 54}, {"note": 0, "velocity": 0, "duration": 66}, {"note": 70, "velocity": 112, "duration": 70}, {"note": 69, "velocity": 107, "duration": 128}, {"note": 0, "velocity": 0, "duration": 112}, {"note": 67, "velocity": 112, "duration": 103}, {"note": 65, "velocity": 85, "duration": 50}, {"note": 0, "velocity": 0, "duration": 70}, {"note": 67, "velocity": 112, "duration": 750}, {"note": 0, "velocity": 0, "duration": 14730}, {"note": 62, "velocity": 100, "duration": 192}, {"note": 60, "velocity": 71, "duration": 238}, {"note": 62, "velocity": 85, "duration": 199}, {"note": 67, "velocity": 93, "duration": 97}, {"note": 62, "velocity": 89, "duration": 438}, {"note": 0, "velocity": 0, "duration": 402}, {"note": 58, "velocity": 99, "duration": 71}, {"note": 60, "velocity": 71, "duration": 48}, {"note": 0, "velocity": 0, "duration": 72}, {"note": 62, "velocity": 97, "duration": 190}, {"note": 60, "velocity": 95, "duration": 151}, {"note": 0, "velocity": 0, "duration": 89}, {"note": 60, "velocity": 95, "duration": 121}, {"note": 0, "velocity": 0, "duration": 119}, {"note": 58, "velocity": 93, "duration": 79}, {"note": 60, "velocity": 95, "duration": 591}, {"note": 0, "velocity": 0, "duration": 489}, {"note": 62, "velocity": 95, "duration": 146}, {"note": 0, "velocity": 0, "duration": 94}, {"note": 60, "velocity": 83, "duration": 135}, {"note": 0, "velocity": 0, "duration": 105}, {"note": 62, "velocity": 93, "duration": 249}, {"note": 67, "velocity": 96, "duration": 49}, {"note": 0, "velocity": 0, "duration": 71}, {"note": 67, "velocity": 97, "duration": 525}, {"note": 0, "velocity": 0, "duration": 195}, {"note": 70, "velocity": 97, "duration": 100}, {"note": 69, "velocity": 79, "duration": 139}, {"note": 70, "velocity": 97, "duration": 111}, {"note": 65, "velocity": 89, "duration": 133}, {"note": 0, "velocity": 0, "duration": 107}, {"note": 65, "velocity": 95, "duration": 66}, {"note": 65, "velocity": 95, "duration": 172}, {"note": 0, "velocity": 0, "duration": 68}, {"note": 62, "velocity": 72, "duration": 126}, {"note": 67, "velocity": 92, "duration": 123}, {"note": 65, "velocity": 95, "duration": 510}, {"note": 0, "velocity": 0, "duration": 1050}, {"note": 67, "velocity": 95, "duration": 52}, {"note": 0, "velocity": 0, "duration": 68}, {"note": 67, "velocity": 78, "duration": 55}, {"note": 0, "velocity": 0, "duration": 65}, {"note": 69, "velocity": 90, "duration": 88}, {"note": 70, "velocity": 95, "duration": 115}, {"note": 69, "velocity": 99, "duration": 220}, {"note": 65, "velocity": 77, "duration": 30}, {"note": 0, "velocity": 0, "duration": 90}, {"note": 65, "velocity": 93, "duration": 247}, {"note": 0, "velocity": 0, "duration": 593}, {"note": 65, "velocity": 100, "duration": 41}, {"note": 0, "velocity": 0, "duration": 79}, {"note": 65, "velocity": 77, "duration": 48}, {"note": 0, "velocity": 0, "duration": 72}, {"note": 65, "velocity": 85, "duration": 49}, {"note": 0, "velocity": 0, "duration": 71}, {"note": 65, "velocity": 76, "duration": 56}, {"note": 0, "velocity": 0, "duration": 64}, {"note": 65, "velocity": 100, "duration": 74}, {"note": 67, "velocity": 102, "duration": 92}, {"note": 60, "velocity": 89, "duration": 120}, {"note": 62, "velocity": 86, "duration": 562}, {"note": 58, "velocity": 107, "duration": 81}, {"note": 60, "velocity": 82, "duration": 135}, {"note": 62, "velocity": 83, "duration": 192}, {"note": 55, "velocity": 74, "duration": 147}, {"note": 0, "velocity": 0, "duration": 93}, {"note": 55, "velocity": 79, "duration": 251}, {"note": 62, "velocity": 93, "duration": 139}, {"note": 0, "velocity": 0, "duration": 101}, {"note": 62, "velocity": 92, "duration": 146}, {"note": 0, "velocity": 0, "duration": 94}, {"note": 58, "velocity": 77, "duration": 70}, {"note": 60, "velocity": 82, "duration": 448}, {"note": 0, "velocity": 0, "duration": 152}, {"note": 67, "velocity": 102, "duration": 46}, {"note": 0, "velocity": 0, "duration": 74}, {"note": 67, "velocity": 86, "duration": 49}, {"note": 0, "velocity": 0, "duration": 71}, {"note": 67, "velocity": 93, "duration": 52}, {"note": 0, "velocity": 0, "duration": 68}, {"note": 67, "velocity": 93, "duration": 53}, {"note": 0, "velocity": 0, "duration": 67}, {"note": 67, "velocity": 107, "duration": 141}, {"note": 0, "velocity": 0, "duration": 99}, {"note": 67, "velocity": 100, "duration": 57}, {"note": 0, "velocity": 0, "duration": 63}, {"note": 69, "velocity": 117, "duration": 476}, {"note": 0, "velocity": 0, "duration": 124}, {"note": 67, "velocity": 102, "duration": 123}, {"note": 0, "velocity": 0, "duration": 117}, {"note": 69, "velocity": 112, "duration": 107}, {"note": 0, "velocity": 0, "duration": 133}, {"note": 70, "velocity": 127, "duration": 113}, {"note": 69, "velocity": 86, "duration": 47}, {"note": 0, "velocity": 0, "duration": 73}, {"note": 70, "velocity": 127, "duration": 72}, {"note": 69, "velocity": 97, "duration": 48}, {"note": 0, "velocity": 0, "duration": 72}, {"note": 70, "velocity": 127, "duration": 90}, {"note": 0, "velocity": 0, "duration": 150}, {"note": 69, "velocity": 107, "duration": 191}, {"note": 67, "velocity": 122, "duration": 151}, {"note": 0, "velocity": 0, "duration": 89}, {"note": 67, "velocity": 107, "duration": 82}, {"note": 65, "velocity": 107, "duration": 228}, {"note": 0, "velocity": 0, "duration": 372}, {"note": 67, "velocity": 117, "duration": 110}, {"note": 65, "velocity": 76, "duration": 96}, {"note": 67, "velocity": 97, "duration": 84}, {"note": 65, "velocity": 93, "duration": 64}, {"note": 67, "velocity": 107, "duration": 123}, {"note": 0, "velocity": 0, "duration": 117}, {"note": 65, "velocity": 102, "duration": 143}, {"note": 0, "velocity": 0, "duration": 97}, {"note": 65, "velocity": 122, "duration": 160}, {"note": 0, "velocity": 0, "duration": 80}, {"note": 67, "velocity": 107, "duration": 54}, {"note": 0, "velocity": 0, "duration": 66}, {"note": 62, "velocity": 100, "duration": 299}, {"note": 0, "velocity": 0, "duration": 301}, {"note": 62, "velocity": 122, "duration": 171}, {"note": 0, "velocity": 0, "duration": 69}, {"note": 60, "velocity": 100, "duration": 163}, {"note": 0, "velocity": 0, "duration": 77}, {"note": 60, "velocity": 89, "duration": 145}, {"note": 0, "velocity": 0, "duration": 95}, {"note": 58, "velocity": 117, "duration": 131}, {"note": 0, "velocity": 0, "duration": 109}, {"note": 62, "velocity": 99, "duration": 170}, {"note": 0, "velocity": 0, "duration": 70}, {"note": 67, "velocity": 100, "duration": 61}, {"note": 67, "velocity": 112, "duration": 236}, {"note": 0, "velocity": 0, "duration": 364}, {"note": 70, "velocity": 127, "duration": 94}, {"note": 69, "velocity": 90, "duration": 54}, {"note": 0, "velocity": 0, "duration": 66}, {"note": 70, "velocity": 112, "duration": 70}, {"note": 69, "velocity": 107, "duration": 128}, {"note": 0, "velocity": 0, "duration": 112}, {"note": 69, "velocity": 102, "duration": 51}, {"note": 0, "velocity": 0, "duration": 69}, {"note": 67, "velocity": 100, "duration": 43}, {"note": 0, "velocity": 0, "duration": 77}, {"note": 69, "velocity": 127, "duration": 465}, {"note": 0, "velocity": 0, "duration": 135}, {"note": 67, "velocity": 102, "duration": 123}, {"note": 0, "velocity": 0, "duration": 117}, {"note": 69, "velocity": 112, "duration": 107}, {"note": 0, "velocity": 0, "duration": 133}, {"note": 70, "velocity": 127, "duration": 113}, {"note": 69, "velocity": 86, "duration": 47}, {"note": 0, "velocity": 0, "duration": 73}, {"note": 70, "velocity": 127, "duration": 72}, {"note": 69, "velocity": 97, "duration": 48}, {"note": 0, "velocity": 0, "duration": 72}, {"note": 70, "velocity": 127, "duration": 90}, {"note": 0, "velocity": 0, "duration": 150}, {"note": 69, "velocity": 107, "duration": 191}, {"note": 67, "velocity": 122, "duration": 151}, {"note": 0, "velocity": 0, "duration": 89}, {"note": 67, "velocity": 107, "duration": 82}, {"note": 65, "velocity": 107, "duration": 228}, {"note": 0, "velocity": 0, "duration": 372}, {"note": 67, "velocity": 117, "duration": 110}, {"note": 65, "velocity": 76, "duration": 96}, {"note": 67, "velocity": 97, "duration": 84}, {"note": 65, "velocity": 93, "duration": 64}, {"note": 67, "velocity": 107, "duration": 123}, {"note": 0, "velocity": 0, "duration": 117}, {"note": 65, "velocity": 102, "duration": 143}, {"note": 0, "velocity": 0, "duration": 97}, {"note": 65, "velocity": 122, "duration": 160}, {"note": 0, "velocity": 0, "duration": 80}, {"note": 67, "velocity": 107, "duration": 54}, {"note": 0, "velocity": 0, "duration": 66}, {"note": 62, "velocity": 100, "duration": 299}, {"note": 0, "velocity": 0, "duration": 301}, {"note": 62, "velocity": 122, "duration": 171}, {"note": 0, "velocity": 0, "duration": 69}, {"note": 60, "velocity": 100, "duration": 163}, {"note": 0, "velocity": 0, "duration": 77}, {"note": 60, "velocity": 89, "duration": 145}, {"note": 0, "velocity": 0, "duration": 95}, {"note": 58, "velocity": 117, "duration": 131}, {"note": 0, "velocity": 0, "duration": 109}, {"note": 62, "velocity": 99, "duration": 170}, {"note": 0, "velocity": 0, "duration": 70}, {"note": 67, "velocity": 100, "duration": 61}, {"note": 67, "velocity": 112, "duration": 236}, {"note": 0, "velocity": 0, "duration": 364}, {"note": 70, "velocity": 127, "duration": 94}, {"note": 69, "velocity": 90, "duration": 54}, {"note": 0, "velocity": 0, "duration": 66}, {"note": 70, "velocity": 112, "duration": 70}, {"note": 69, "velocity": 107, "duration": 128}, {"note": 0, "velocity": 0, "duration": 112}, {"note": 67, "velocity": 112, "duration": 103}, {"note": 65, "velocity": 85, "duration": 50}, {"note": 0, "velocity": 0, "duration": 70}, {"note": 67, "velocity": 112, "duration": 750}, {"note": 0, "velocity": 0, "duration": 810}, {"note": 67, "velocity": 102, "duration": 123}, {"note": 0, "velocity": 0, "duration": 117}, {"note": 69, "velocity": 112, "duration": 107}, {"note": 0, "velocity": 0, "duration": 133}, {"note": 70, "velocity": 127, "duration": 113}, {"note": 69, "velocity": 86, "duration": 47}, {"note": 0, "velocity": 0, "duration": 73}, {"note": 70, "velocity": 127, "duration": 72}, {"note": 69, "velocity": 97, "duration": 48}, {"note": 0, "velocity": 0, "duration": 72}, {"note": 70, "velocity": 127, "duration": 90}, {"note": 0, "velocity": 0, "duration": 150}, {"note": 69, "velocity": 107, "duration": 191}, {"note": 67, "velocity": 122, "duration": 151}, {"note": 0, "velocity": 0, "duration": 89}, {"note": 67, "velocity": 107, "duration": 82}, {"note": 65, "velocity": 107, "duration": 228}, {"note": 0, "velocity": 0, "duration": 372}, {"note": 67, "velocity": 117, "duration": 110}, {"note": 65, "velocity": 76, "duration": 96}, {"note": 67, "velocity": 97, "duration": 84}, {"note": 65, "velocity": 93, "duration": 64}, {"note": 67, "velocity": 107, "duration": 123}, {"note": 0, "velocity": 0, "duration": 117}, {"note": 65, "velocity": 102, "duration": 143}, {"note": 0, "velocity": 0, "duration": 97}, {"note": 65, "velocity": 122, "duration": 160}, {"note": 0, "velocity": 0, "duration": 80}, {"note": 67, "velocity": 107, "duration": 54}, {"note": 0, "velocity": 0, "duration": 66}, {"note": 62, "velocity": 100, "duration": 299}, {"note": 0, "velocity": 0, "duration": 301}, {"note": 62, "velocity": 122, "duration": 171}, {"note": 0, "velocity": 0, "duration": 69}, {"note": 60, "velocity": 100, "duration": 163}, {"note": 0, "velocity": 0, "duration": 77}, {"note": 60, "velocity": 89, "duration": 145}, {"note": 0, "velocity": 0, "duration": 95}, {"note": 58, "velocity": 117, "duration": 131}, {"note": 0, "velocity": 0, "duration": 109}, {"note": 62, "velocity": 99, "duration": 170}, {"note": 0, "velocity": 0, "duration": 70}, {"note": 67, "velocity": 100, "duration": 61}, {"note": 67, "velocity": 112, "duration": 236}, {"note": 0, "velocity": 0, "duration": 364}, {"note": 70, "velocity": 127, "duration": 94}, {"note": 69, "velocity": 90, "duration": 54}, {"note": 0, "velocity": 0, "duration": 66}, {"note": 70, "velocity": 112, "duration": 70}, {"note": 69, "velocity": 107, "duration": 128}, {"note": 0, "velocity": 0, "duration": 112}, {"note": 69, "velocity": 102, "duration": 51}, {"note": 0, "velocity": 0, "duration": 69}, {"note": 67, "velocity": 100, "duration": 43}, {"note": 0, "velocity": 0, "duration": 77}, {"note": 69, "velocity": 127, "duration": 465}, {"note": 0, "velocity": 0, "duration": 135}, {"note": 67, "velocity": 102, "duration": 123}, {"note": 0, "velocity": 0, "duration": 117}, {"note": 69, "velocity": 112, "duration": 107}, {"note": 0, "velocity": 0, "duration": 133}, {"note": 70, "velocity": 127, "duration": 113}, {"note": 69, "velocity": 86, "duration": 47}, {"note": 0, "velocity": 0, "duration": 73}, {"note": 70, "velocity": 127, "duration": 72}, {"note": 69, "velocity": 97, "duration": 48}, {"note": 0, "velocity": 0, "duration": 72}, {"note": 70, "velocity": 127, "duration": 90}, {"note": 0, "velocity": 0, "duration": 150}, {"note": 69, "velocity": 107, "duration": 191}, {"note": 67, "velocity": 122, "duration": 151}, {"note": 0, "velocity": 0, "duration": 89}, {"note": 67, "velocity": 107, "duration": 82}, {"note": 65, "velocity": 107, "duration": 228}, {"note": 0, "velocity": 0, "duration": 372}, {"note": 67, "velocity": 117, "duration": 110}, {"note": 65, "velocity": 76, "duration": 96}, {"note": 67, "velocity": 97, "duration": 84}, {"note": 65, "velocity": 93, "duration": 64}, {"note": 67, "velocity": 107, "duration": 123}, {"note": 0, "velocity": 0, "duration": 117}, {"note": 65, "velocity": 102, "duration": 143}, {"note": 0, "velocity": 0, "duration": 97}, {"note": 65, "velocity": 122, "duration": 160}, {"note": 0, "velocity": 0, "duration": 80}, {"note": 67, "velocity": 107, "duration": 54}, {"note": 0, "velocity": 0, "duration": 66}, {"note": 62, "velocity": 100, "duration": 299}, {"note": 0, "velocity": 0, "duration": 301}, {"note": 62, "velocity": 122, "duration": 171}, {"note": 0, "velocity": 0, "duration": 69}, {"note": 60, "velocity": 100, "duration": 163}, {"note": 0, "velocity": 0, "duration": 77}, {"note": 60, "velocity": 89, "duration": 145}, {"note": 0, "velocity": 0, "duration": 95}, {"note": 58, "velocity": 117, "duration": 131}, {"note": 0, "velocity": 0, "duration": 109}, {"note": 62, "velocity": 99, "duration": 170}, {"note": 0, "velocity": 0, "duration": 70}, {"note": 67, "velocity": 100, "duration": 61}, {"note": 67, "velocity": 112, "duration": 236}, {"note": 0, "velocity": 0, "duration": 364}, {"note": 70, "velocity": 127, "duration": 94}, {"note": 69, "velocity": 90, "duration": 54}, {"note": 0, "velocity": 0, "duration": 66}, {"note": 70, "velocity": 112, "duration": 70}, {"note": 69, "velocity": 107, "duration": 128}, {"note": 0, "velocity": 0, "duration": 112}, {"note": 67, "velocity": 112, "duration": 103}, {"note": 65, "velocity": 85, "duration": 50}, {"note": 0, "velocity": 0, "duration": 70}, {"note": 67, "velocity": 112, "duration": 750}]]