[[{"note": 70, "velocity": 117, "duration": 613}, {"note": 0, "velocity": 0, "duration": 107}, {"note": 70, "velocity": 100, "duration": 154}, {"note": 0, "velocity": 0, "duration": 86}, {"note": 69, "velocity": 97, "duration": 152}, {"note": 0, "velocity": 0, "duration": 88}, {"note": 70, "velocity": 112, "duration": 152}, {"note": 0, "velocity": 0, "duration": 88}, {"note": 72, "velocity": 117, "duration": 251}, {"note": 0, "velocity": 0, "duration": 229}, {"note": 70, "velocity": 112, "duration": 51}, {"note": 0, "velocity": 0, "duration": 69}, {"note": 70, "velocity": 95, "duration": 544}, {"note": 70, "velocity": 107, "duration": 157}, {"note": 0, "velocity": 0, "duration": 83}, {"note": 69, "velocity": 93, "duration": 204}, {"note": 70, "velocity": 102, "duration": 158}, {"note": 0, "velocity": 0, "duration": 82}, {"note": 72, "velocity": 99, "duration": 286}, {"note": 0, "velocity": 0, "duration": 194}, {"note": 74, "velocity": 97, "duration": 151}, {"note": 67, "velocity": 88, "duration": 190}, {"note": 0, "velocity": 0, "duration": 410}, {"note": 67, "velocity": 97, "duration": 101}, {"note": 0, "velocity": 0, "duration": 139}, {"note": 65, "velocity": 95, "duration": 111}, {"note": 0, "velocity": 0, "duration": 129}, {"note": 69, "velocity": 99, "duration": 72}, {"note": 70, "velocity": 122, "duration": 281}, {"note": 0, "velocity": 0, "duration": 79}, {"note": 74, "velocity": 102, "duration": 111}, {"note": 0, "velocity": 0, "duration": 129}, {"note": 75, "velocity": 107, "duration": 279}, {"note": 0, "velocity": 0, "duration": 81}, {"note": 75, "velocity": 112, "duration": 214}, {"note": 0, "velocity": 0, "duration": 146}, {"note": 70, "velocity": 102, "duration": 144}, {"note": 0, "velocity": 0, "duration": 96}, {"note": 70, "velocity": 117, "duration": 356}, {"note": 0, "velocity": 0, "duration": 124}, {"note": 72, "velocity": 97, "duration": 304}, {"note": 0, "velocity": 0, "duration": 176}, {"note": 70, "velocity": 117, "duration": 449}, {"note": 0, "velocity": 0, "duration": 271}, {"note": 70, "velocity": 117, "duration": 118}, {"note": 0, "velocity": 0, "duration": 122}, {"note": 69, "velocity": 102, "duration": 161}, {"note": 0, "velocity": 0, "duration": 79}, {"note": 70, "velocity": 107, "duration": 147}, {"note": 0, "velocity": 0, "duration": 93}, {"note": 72, "velocity": 102, "duration": 266}, {"note": 0, "velocity": 0, "duration": 214}, {"note": 70, "velocity": 107, "duration": 80}, {"note": 70, "velocity": 112, "duration": 391}, {"note": 0, "velocity": 0, "duration": 209}, {"note": 70, "velocity": 112, "duration": 170}, {"note": 0, "velocity": 0, "duration": 70}, {"note": 69, "velocity": 100, "duration": 179}, {"note": 0, "velocity": 0, "duration": 61}, {"note": 70, "velocity": 102, "duration": 156}, {"note": 0, "velocity": 0, "duration": 84}, {"note": 72, "velocity": 112, "duration": 252}, {"note": 0, "velocity": 0, "duration": 228}, {"note": 74, "velocity": 100, "duration": 165}, {"note": 67, "velocity": 93, "duration": 510}, {"note": 0, "velocity": 0, "duration": 210}, {"note": 65, "velocity": 76, "duration": 132}, {"note": 67, "velocity": 97, "duration": 217}, {"note": 65, "velocity": 72, "duration": 125}, {"note": 67, "velocity": 100, "duration": 324}, {"note": 69, "velocity": 100, "duration": 278}, {"note": 70, "velocity": 107, "duration": 823}, {"note": 0, "velocity": 0, "duration": 617}, {"note": 70, "velocity": 117, "duration": 190}, {"note": 72, "velocity": 102, "duration": 194}, {"note": 74, "velocity": 122, "duration": 407}, {"note": 0, "velocity": 0, "duration": 73}, {"note": 72, "velocity": 112, "duration": 257}, {"note": 0, "velocity": 0, "duration": 103}, {"note": 72, "velocity": 95, "duration": 409}, {"note": 0, "velocity": 0, "duration": 191}, {"note": 70, "velocity": 117, "duration": 162}, {"note": 0, "velocity": 0, "duration": 78}, {"note": 72, "velocity": 100, "duration": 141}, {"note": 0, "velocity": 0, "duration": 99}, {"note": 74, "velocity": 122, "duration": 305}, {"note": 0, "velocity": 0, "duration": 175}, {"note": 72, "velocity": 127, "duration": 267}, {"note": 0, "velocity": 0, "duration": 93}, {"note": 72, "velocity": 102, "duration": 292}, {"note": 0, "velocity": 0, "duration": 68}, {"note": 70, "velocity": 90, "duration": 308}, {"note": 70, "velocity": 117, "duration": 68}, {"note": 0, "velocity": 0, "duration": 172}, {"note": 72, "velocity": 112, "duration": 154}, {"note": 0, "velocity": 0, "duration": 86}, {"note": 74, "velocity": 122, "duration": 176}, {"note": 0, "velocity": 0, "duration": 64}, {"note": 72, "velocity": 107, "duration": 54}, {"note": 0, "velocity": 0, "duration": 66}, {"note": 72, "velocity": 127, "duration": 356}, {"note": 0, "velocity": 0, "duration": 244}, {"note": 74, "velocity": 117, "duration": 155}, {"note": 0, "velocity": 0, "duration": 85}, {"note": 72, "velocity": 96, "duration": 53}, {"note": 0, "velocity": 0, "duration": 67}, {"note": 72, "velocity": 102, "duration": 232}, {"note": 0, "velocity": 0, "duration": 128}, {"note": 70, "velocity": 100, "duration": 178}, {"note": 0, "velocity": 0, "duration": 62}, {"note": 72, "velocity": 112, "duration": 717}, {"note": 0, "velocity": 0, "duration": 723}, {"note": 70, "velocity": 127, "duration": 272}, {"note": 72, "velocity": 112, "duration": 187}, {"note": 74, "velocity": 127, "duration": 199}, {"note": 72, "velocity": 107, "duration": 101}, {"note": 74, "velocity": 122, "duration": 291}, {"note": 0, "velocity": 0, "duration": 69}, {"note": 72, "velocity": 112, "duration": 82}, {"note": 74, "velocity": 127, "duration": 335}, {"note": 72, "velocity": 102, "duration": 132}, {"note": 74, "velocity": 97, "duration": 246}, {"note": 0, "velocity": 0, "duration": 114}, {"note": 70, "velocity": 122, "duration": 159}, {"note": 0, "velocity": 0, "duration": 81}, {"note": 77, "velocity": 127, "duration": 775}, {"note": 0, "velocity": 0, "duration": 185}, {"note": 77, "velocity": 102, "duration": 146}, {"note": 0, "velocity": 0, "duration": 94}, {"note": 75, "velocity": 100, "duration": 194}, {"note": 74, "velocity": 93, "duration": 156}, {"note": 0, "velocity": 0, "duration": 84}, {"note": 75, "velocity": 117, "duration": 136}, {"note": 0, "velocity": 0, "duration": 104}, {"note": 74, "velocity": 127, "duration": 151}, {"note": 0, "velocity": 0, "duration": 89}, {"note": 72, "velocity": 100, "duration": 75}, {"note": 74, "velocity": 127, "duration": 347}, {"note": 72, "velocity": 93, "duration": 114}, {"note": 74, "velocity": 102, "duration": 289}, {"note": 0, "velocity": 0, "duration": 71}, {"note": 72, "velocity": 95, "duration": 171}, {"note": 0, "velocity": 0, "duration": 69}, {"note": 70, "velocity": 122, "duration": 130}, {"note": 0, "velocity": 0, "duration": 110}, {"note": 79, "velocity": 122, "duration": 304}, {"note": 0, "velocity": 0, "duration": 176}, {"note": 77, "velocity": 117, "duration": 551}, {"note": 0, "velocity": 0, "duration": 169}, {"note": 77, "velocity": 99, "duration": 157}, {"note": 0, "velocity": 0, "duration": 83}, {"note": 75, "velocity": 112, "duration": 186}, {"note": 74, "velocity": 93, "duration": 162}, {"note": 0, "velocity": 0, "duration": 78}, {"note": 75, "velocity": 122, "duration": 141}, {"note": 0, "velocity": 0, "duration": 99}, {"note": 74, "velocity": 107, "duration": 252}, {"note": 0, "velocity": 0, "duration": 108}, {"note": 70, "velocity": 96, "duration": 277}, {"note": 0, "velocity": 0, "duration": 83}, {"note": 70, "velocity": 117, "duration": 217}, {"note": 69, "velocity": 99, "duration": 205}, {"note": 70, "velocity": 117, "duration": 184}, {"note": 72, "velocity": 117, "duration": 202}, {"note": 79, "velocity": 112, "duration": 170}, {"note": 0, "velocity": 0, "duration": 70}, {"note": 78, "velocity": 112, "duration": 314}, {"note": 72, "velocity": 96, "duration": 136}, {"note": 74, "velocity": 90, "duration": 238}, {"note": 72, "velocity": 107, "duration": 202}, {"note": 70, "velocity": 112, "duration": 496}, {"note": 0, "velocity": 0, "duration": 344}, {"note": 67, "velocity": 86, "duration": 95}, {"note": 75, "velocity": 127, "duration": 210}, {"note": 74, "velocity": 99, "duration": 130}, {"note": 0, "velocity": 0, "duration": 110}, {"note": 75, "velocity": 127, "duration": 143}, {"note": 0, "velocity": 0, "duration": 97}, {"note": 74, "velocity": 127, "duration": 132}, {"note": 0, "velocity": 0, "duration": 108}, {"note": 75, "velocity": 127, "duration": 157}, {"note": 0, "velocity": 0, "duration": 83}, {"note": 74, "velocity": 127, "duration": 87}, {"note": 0, "velocity": 0, "duration": 153}, {"note": 75, "velocity": 127, "duration": 297}, {"note": 0, "velocity": 0, "duration": 63}, {"note": 77, "velocity": 117, "duration": 852}, {"note": 0, "velocity": 0, "duration": 708}, {"note": 70, "velocity": 127, "duration": 175}, {"note": 0, "velocity": 0, "duration": 65}, {"note": 72, "velocity": 100, "duration": 161}, {"note": 0, "velocity": 0, "duration": 79}, {"note": 74, "velocity": 112, "duration": 172}, {"note": 0, "velocity": 0, "duration": 68}, {"note": 72, "velocity": 107, "duration": 97}, {"note": 74, "velocity": 122, "duration": 294}, {"note": 0, "velocity": 0, "duration": 66}, {"note": 72, "velocity": 107, "duration": 77}, {"note": 74, "velocity": 117, "duration": 210}, {"note": 0, "velocity": 0, "duration": 150}, {"note": 72, "velocity": 92, "duration": 121}, {"note": 74, "velocity": 102, "duration": 208}, {"note": 70, "velocity": 100, "duration": 72}, {"note": 70, "velocity": 117, "duration": 173}, {"note": 0, "velocity": 0, "duration": 67}, {"note": 77, "velocity": 127, "duration": 505}, {"note": 0, "velocity": 0, "duration": 455}, {"note": 77, "velocity": 112, "duration": 151}, {"note": 0, "velocity": 0, "duration": 89}, {"note": 75, "velocity": 112, "duration": 155}, {"note": 0, "velocity": 0, "duration": 85}, {"note": 74, "velocity": 99, "duration": 133}, {"note": 0, "velocity": 0, "duration": 107}, {"note": 75, "velocity": 122, "duration": 156}, {"note": 0, "velocity": 0, "duration": 84}, {"note": 74, "velocity": 117, "duration": 183}, {"note": 72, "velocity": 100, "duration": 53}, {"note": 0, "velocity": 0, "duration": 67}, {"note": 74, "velocity": 117, "duration": 253}, {"note": 0, "velocity": 0, "duration": 107}, {"note": 72, "velocity": 96, "duration": 46}, {"note": 0, "velocity": 0, "duration": 74}, {"note": 74, "velocity": 122, "duration": 253}, {"note": 0, "velocity": 0, "duration": 107}, {"note": 72, "velocity": 99, "duration": 147}, {"note": 0, "velocity": 0, "duration": 93}, {"note": 70, "velocity": 127, "duration": 117}, {"note": 0, "velocity": 0, "duration": 123}, {"note": 79, "velocity": 127, "duration": 411}, {"note": 0, "velocity": 0, "duration": 69}, {"note": 77, "velocity": 96, "duration": 638}, {"note": 0, "velocity": 0, "duration": 82}, {"note": 77, "velocity": 122, "duration": 174}, {"note": 0, "velocity": 0, "duration": 66}, {"note": 75, "velocity": 107, "duration": 231}, {"note": 74, "velocity": 97, "duration": 134}, {"note": 0, "velocity": 0, "duration": 106}, {"note": 75, "velocity": 127, "duration": 154}, {"note": 0, "velocity": 0, "duration": 86}, {"note": 74, "velocity": 127, "duration": 213}, {"note": 0, "velocity": 0, "duration": 147}, {"note": 70, "velocity": 100, "duration": 368}, {"note": 70, "velocity": 127, "duration": 8}, {"note": 0, "velocity": 0, "duration": 232}, {"note": 69, "velocity": 102, "duration": 206}, {"note": 70, "velocity": 122, "duration": 184}, {"note": 72, "velocity": 112, "duration": 141}, {"note": 0, "velocity": 0, "duration": 99}, {"note": 79, "velocity": 107, "duration": 155}, {"note": 0, "velocity": 0, "duration": 85}, {"note": 78, "velocity": 127, "duration": 262}, {"note": 0, "velocity": 0, "duration": 98}, {"note": 74, "velocity": 107, "duration": 289}, {"note": 0, "velocity": 0, "duration": 71}, {"note": 72, "velocity": 107, "duration": 172}, {"note": 0, "velocity": 0, "duration": 68}, {"note": 70, "velocity": 112, "duration": 657}, {"note": 0, "velocity": 0, "duration": 183}, {"note": 67, "velocity": 85, "duration": 117}, {"note": 75, "velocity": 107, "duration": 197}, {"note": 74, "velocity": 99, "duration": 67}, {"note": 75, "velocity": 127, "duration": 252}, {"note": 0, "velocity": 0, "duration": 108}, {"note": 74, "velocity": 107, "duration": 134}, {"note": 0, "velocity": 0, "duration": 106}, {"note": 72, "velocity": 99, "duration": 239}, {"note": 70, "velocity": 127, "duration": 177}, {"note": 0, "velocity": 0, "duration": 63}, {"note": 69, "velocity": 100, "duration": 494}, {"note": 70, "velocity": 100, "duration": 931}, {"note": 0, "velocity": 0, "duration": 989}, {"note": 70, "velocity": 117, "duration": 613}, {"note": 0, "velocity": 0, "duration": 107}, {"note": 70, "velocity": 100, "duration": 154}, {"note": 0, "velocity": 0, "duration": 86}, {"note": 69, "velocity": 97, "duration": 152}, {"note": 0, "velocity": 0, "duration": 88}, {"note": 70, "velocity": 112, "duration": 152}, {"note": 0, "velocity": 0, "duration": 88}, {"note": 72, "velocity": 117, "duration": 251}, {"note": 0, "velocity": 0, "duration": 229}, {"note": 70, "velocity": 112, "duration": 51}, {"note": 0, "velocity": 0, "duration": 69}, {"note": 70, "velocity": 95, "duration": 544}, {"note": 70, "velocity": 107, "duration": 157}, {"note": 0, "velocity": 0, "duration": 83}, {"note": 69, "velocity": 93, "duration": 204}, {"note": 70, "velocity": 102, "duration": 158}, {"note": 0, "velocity": 0, "duration": 82}, {"note": 72, "velocity": 99, "duration": 286}, {"note": 0, "velocity": 0, "duration": 194}, {"note": 74, "velocity": 97, "duration": 151}, {"note": 67, "velocity": 88, "duration": 190}, {"note": 0, "velocity": 0, "duration": 410}, {"note": 67, "velocity": 97, "duration": 101}, {"note": 0, "velocity": 0, "duration": 139}, {"note": 65, "velocity": 95, "duration": 111}, {"note": 0, "velocity": 0, "duration": 129}, {"note": 69, "velocity": 99, "duration": 72}, {"note": 70, "velocity": 122, "duration": 281}, {"note": 0, "velocity": 0, "duration": 79}, {"note": 74, "velocity": 102, "duration": 111}, {"note": 0, "velocity": 0, "duration": 129}, {"note": 75, "velocity": 107, "duration": 279}, {"note": 0, "velocity": 0, "duration": 81}, {"note": 75, "velocity": 112, "duration": 214}, {"note": 0, "velocity": 0, "duration": 146}, {"note": 70, "velocity": 102, "duration": 144}, {"note": 0, "velocity": 0, "duration": 96}, {"note": 70, "velocity": 117, "duration": 356}, {"note": 0, "velocity": 0, "duration": 124}, {"note": 72, "velocity": 97, "duration": 304}, {"note": 0, "velocity": 0, "duration": 176}, {"note": 70, "velocity": 117, "duration": 449}, {"note": 0, "velocity": 0, "duration": 271}, {"note": 70, "velocity": 117, "duration": 118}, {"note": 0, "velocity": 0, "duration": 122}, {"note": 69, "velocity": 102, "duration": 161}, {"note": 0, "velocity": 0, "duration": 79}, {"note": 70, "velocity": 107, "duration": 147}, {"note": 0, "velocity": 0, "duration": 93}, {"note": 72, "velocity": 102, "duration": 266}, {"note": 0, "velocity": 0, "duration": 214}, {"note": 70, "velocity": 107, "duration": 80}, {"note": 70, "velocity": 112, "duration": 391}, {"note": 0, "velocity": 0, "duration": 209}, {"note": 70, "velocity": 112, "duration": 170}, {"note": 0, "velocity": 0, "duration": 70}, {"note": 69, "velocity": 100, "duration": 179}, {"note": 0, "velocity": 0, "duration": 61}, {"note": 70, "velocity": 102, "duration": 156}, {"note": 0, "velocity": 0, "duration": 84}, {"note": 72, "velocity": 112, "duration": 252}, {"note": 0, "velocity": 0, "duration": 228}, {"note": 74, "velocity": 100, "duration": 165}, {"note": 67, "velocity": 93, "duration": 510}, {"note": 0, "velocity": 0, "duration": 210}, {"note": 65, "velocity": 76, "duration": 132}, {"note": 67, "velocity": 97, "duration": 217}, {"note": 65, "velocity": 72, "duration": 125}, {"note": 67, "velocity": 100, "duration": 324}, {"note": 69, "velocity": 100, "duration": 278}, {"note": 70, "velocity": 107, "duration": 823}, {"note": 0, "velocity": 0, "duration": 617}, {"note": 70, "velocity": 117, "duration": 190}, {"note": 72, "velocity": 102, "duration": 194}, {"note": 74, "velocity": 122, "duration": 407}, {"note": 0, "velocity": 0, "duration": 73}, {"note": 72, "velocity": 112, "duration": 257}, {"note": 0, "velocity": 0, "duration": 103}, {"note": 72, "velocity": 95, "duration": 409}, {"note": 0, "velocity": 0, "duration": 191}, {"note": 70, "velocity": 117, "duration": 162}, {"note": 0, "velocity": 0, "duration": 78}, {"note": 72, "velocity": 100, "duration": 141}, {"note": 0, "velocity": 0, "duration": 99}, {"note": 74, "velocity": 122, "duration": 305}, {"note": 0, "velocity": 0, "duration": 175}, {"note": 72, "velocity": 127, "duration": 267}, {"note": 0, "velocity": 0, "duration": 93}, {"note": 72, "velocity": 102, "duration": 292}, {"note": 0, "velocity": 0, "duration": 68}, {"note": 70, "velocity": 90, "duration": 308}, {"note": 70, "velocity": 117, "duration": 68}, {"note": 0, "velocity": 0, "duration": 172}, {"note": 72, "velocity": 112, "duration": 154}, {"note": 0, "velocity": 0, "duration": 86}, {"note": 74, "velocity": 122, "duration": 176}, {"note": 0, "velocity": 0, "duration": 64}, {"note": 72, "velocity": 107, "duration": 54}, {"note": 0, "velocity": 0, "duration": 66}, {"note": 72, "velocity": 127, "duration": 356}, {"note": 0, "velocity": 0, "duration": 244}, {"note": 74, "velocity": 117, "duration": 155}, {"note": 0, "velocity": 0, "duration": 85}, {"note": 72, "velocity": 96, "duration": 53}, {"note": 0, "velocity": 0, "duration": 67}, {"note": 72, "velocity": 102, "duration": 232}, {"note": 0, "velocity": 0, "duration": 128}, {"note": 70, "velocity": 100, "duration": 178}, {"note": 0, "velocity": 0, "duration": 62}, {"note": 72, "velocity": 112, "duration": 717}, {"note": 0, "velocity": 0, "duration": 723}, {"note": 70, "velocity": 127, "duration": 272}, {"note": 72, "velocity": 112, "duration": 187}, {"note": 74, "velocity": 127, "duration": 199}, {"note": 72, "velocity": 107, "duration": 101}, {"note": 74, "velocity": 122, "duration": 291}, {"note": 0, "velocity": 0, "duration": 69}, {"note": 72, "velocity": 112, "duration": 82}, {"note": 74, "velocity": 127, "duration": 335}, {"note": 72, "velocity": 102, "duration": 132}, {"note": 74, "velocity": 97, "duration": 246}, {"note": 0, "velocity": 0, "duration": 114}, {"note": 70, "velocity": 122, "duration": 159}, {"note": 0, "velocity": 0, "duration": 81}, {"note": 77, "velocity": 127, "duration": 775}, {"note": 0, "velocity": 0, "duration": 185}, {"note": 77, "velocity": 102, "duration": 146}, {"note": 0, "velocity": 0, "duration": 94}, {"note": 75, "velocity": 100, "duration": 194}, {"note": 74, "velocity": 93, "duration": 156}, {"note": 0, "velocity": 0, "duration": 84}, {"note": 75, "velocity": 117, "duration": 136}, {"note": 0, "velocity": 0, "duration": 104}, {"note": 74, "velocity": 127, "duration": 151}, {"note": 0, "velocity": 0, "duration": 89}, {"note": 72, "velocity": 100, "duration": 75}, {"note": 74, "velocity": 127, "duration": 347}, {"note": 72, "velocity": 93, "duration": 114}, {"note": 74, "velocity": 102, "duration": 289}, {"note": 0, "velocity": 0, "duration": 71}, {"note": 72, "velocity": 95, "duration": 171}, {"note": 0, "velocity": 0, "duration": 69}, {"note": 70, "velocity": 122, "duration": 130}, {"note": 0, "velocity": 0, "duration": 110}, {"note": 79, "velocity": 122, "duration": 304}, {"note": 0, "velocity": 0, "duration": 176}, {"note": 77, "velocity": 117, "duration": 551}, {"note": 0, "velocity": 0, "duration": 169}, {"note": 77, "velocity": 99, "duration": 157}, {"note": 0, "velocity": 0, "duration": 83}, {"note": 75, "velocity": 112, "duration": 186}, {"note": 74, "velocity": 93, "duration": 162}, {"note": 0, "velocity": 0, "duration": 78}, {"note": 75, "velocity": 122, "duration": 141}, {"note": 0, "velocity": 0, "duration": 99}, {"note": 74, "velocity": 107, "duration": 252}, {"note": 0, "velocity": 0, "duration": 108}, {"note": 70, "velocity": 96, "duration": 277}, {"note": 0, "velocity": 0, "duration": 83}, {"note": 70, "velocity": 117, "duration": 217}, {"note": 69, "velocity": 99, "duration": 205}, {"note": 70, "velocity": 117, "duration": 184}, {"note": 72, "velocity": 117, "duration": 202}, {"note": 79, "velocity": 112, "duration": 170}, {"note": 0, "velocity": 0, "duration": 70}, {"note": 78, "velocity": 112, "duration": 314}, {"note": 72, "velocity": 96, "duration": 136}, {"note": 74, "velocity": 90, "duration": 238}, {"note": 72, "velocity": 107, "duration": 202}, {"note": 70, "velocity": 112, "duration": 496}, {"note": 0, "velocity": 0, "duration": 344}, {"note": 67, "velocity": 86, "duration": 95}, {"note": 75, "velocity": 127, "duration": 210}, {"note": 74, "velocity": 99, "duration": 130}, {"note": 0, "velocity": 0, "duration": 110}, {"note": 75, "velocity": 127, "duration": 143}, {"note": 0, "velocity": 0, "duration": 97}, {"note": 74, "velocity": 127, "duration": 132}, {"note": 0, "velocity": 0, "duration": 108}, {"note": 75, "velocity": 127, "duration": 157}, {"note": 0, "velocity": 0, "duration": 83}, {"note": 74, "velocity": 127, "duration": 87}, {"note": 0, "velocity": 0, "duration": 153}, {"note": 75, "velocity": 127, "duration": 297}, {"note": 0, "velocity": 0, "duration": 63}, {"note": 77, "velocity": 117, "duration": 852}, {"note": 0, "velocity": 0, "duration": 708}, {"note": 70, "velocity": 127, "duration": 175}, {"note": 0, "velocity": 0, "duration": 65}, {"note": 72, "velocity": 100, "duration": 161}, {"note": 0, "velocity": 0, "duration": 79}, {"note": 74, "velocity": 112, "duration": 172}, {"note": 0, "velocity": 0, "duration": 68}, {"note": 72, "velocity": 107, "duration": 97}, {"note": 74, "velocity": 122, "duration": 294}, {"note": 0, "velocity": 0, "duration": 66}, {"note": 72, "velocity": 107, "duration": 77}, {"note": 74, "velocity": 117, "duration": 210}, {"note": 0, "velocity": 0, "duration": 150}, {"note": 72, "velocity": 92, "duration": 121}, {"note": 74, "velocity": 102, "duration": 208}, {"note": 70, "velocity": 100, "duration": 72}, {"note": 70, "velocity": 117, "duration": 173}, {"note": 0, "velocity": 0, "duration": 67}, {"note": 77, "velocity": 127, "duration": 505}, {"note": 0, "velocity": 0, "duration": 455}, {"note": 77, "velocity": 112, "duration": 151}, {"note": 0, "velocity": 0, "duration": 89}, {"note": 75, "velocity": 112, "duration": 155}, {"note": 0, "velocity": 0, "duration": 85}, {"note": 74, "velocity": 99, "duration": 133}, {"note": 0, "velocity": 0, "duration": 107}, {"note": 75, "velocity": 122, "duration": 156}, {"note": 0, "velocity": 0, "duration": 84}, {"note": 74, "velocity": 117, "duration": 183}, {"note": 72, "velocity": 100, "duration": 53}, {"note": 0, "velocity": 0, "duration": 67}, {"note": 74, "velocity": 117, "duration": 253}, {"note": 0, "velocity": 0, "duration": 107}, {"note": 72, "velocity": 96, "duration": 46}, {"note": 0, "velocity": 0, "duration": 74}, {"note": 74, "velocity": 122, "duration": 253}, {"note": 0, "velocity": 0, "duration": 107}, {"note": 72, "velocity": 99, "duration": 147}, {"note": 0, "velocity": 0, "duration": 93}, {"note": 70, "velocity": 127, "duration": 117}, {"note": 0, "velocity": 0, "duration": 123}, {"note": 79, "velocity": 127, "duration": 411}, {"note": 0, "velocity": 0, "duration": 69}, {"note": 77, "velocity": 96, "duration": 638}, {"note": 0, "velocity": 0, "duration": 82}, {"note": 77, "velocity": 122, "duration": 174}, {"note": 0, "velocity": 0, "duration": 66}, {"note": 75, "velocity": 107, "duration": 231}, {"note": 74, "velocity": 97, "duration": 134}, {"note": 0, "velocity": 0, "duration": 106}, {"note": 75, "velocity": 127, "duration": 154}, {"note": 0, "velocity": 0, "duration": 86}, {"note": 74, "velocity": 127, "duration": 213}, {"note": 0, "velocity": 0, "duration": 147}, {"note": 70, "velocity": 100, "duration": 368}, {"note": 70, "velocity": 127, "duration": 8}, {"note": 0, "velocity": 0, "duration": 232}, {"note": 69, "velocity": 102, "duration": 206}, {"note": 70, "velocity": 122, "duration": 184}, {"note": 72, "velocity": 112, "duration": 141}, {"note": 0, "velocity": 0, "duration": 99}, {"note": 79, "velocity": 107, "duration": 155}, {"note": 0, "velocity": 0, "duration": 85}, {"note": 78, "velocity": 127, "duration": 262}, {"note": 0, "velocity": 0, "duration": 98}, {"note": 74, "velocity": 107, "duration": 289}, {"note": 0, "velocity": 0, "duration": 71}, {"note": 72, "velocity": 107, "duration": 172}, {"note": 0, "velocity": 0, "duration": 68}, {"note": 70, "velocity": 112, "duration": 657}, {"note": 0, "velocity": 0, "duration": 183}, {"note": 67, "velocity": 85, "duration": 117}, {"note": 75, "velocity": 107, "duration": 197}, {"note": 74, "velocity": 99, "duration": 67}, {"note": 75, "velocity": 127, "duration": 252}, {"note": 0, "velocity": 0, "duration": 108}, {"note": 74, "velocity": 107, "duration": 134}, {"note": 0, "velocity": 0, "duration": 106}, {"note": 72, "velocity": 99, "duration": 239}, {"note": 70, "velocity": 127, "duration": 177}, {"note": 0, "velocity": 0, "duration": 63}, {"note": 69, "velocity": 100, "duration": 494}, {"note": 70, "velocity": 100, "duration": 931}, {"note": 0, "velocity": 0, "duration": 2789}, {"note": 67, "velocity": 77, "duration": 123}, {"note": 75, "velocity": 107, "duration": 208}, {"note": 74, "velocity": 93, "duration": 175}, {"note": 0, "velocity": 0, "duration": 65}, {"note": 75, "velocity": 122, "duration": 171}, {"note": 0, "velocity": 0, "duration": 74}, {"note": 77, "velocity": 99, "duration": 211}, {"note": 72, "velocity": 96, "duration": 305}, {"note": 0, "velocity": 0, "duration": 74}, {"note": 70, "velocity": 88, "duration": 117}, {"note": 0, "velocity": 0, "duration": 70}, {"note": 69, "velocity": 88, "duration": 952}, {"note": 0, "velocity": 0, "duration": 189}, {"note": 72, "velocity": 97, "duration": 558}, {"note": 70, "velocity": 74, "duration": 1565}]]