[[{"note": 63, "velocity": 112, "duration": 171}, {"note": 0, "velocity": 0, "duration": 69}, {"note": 56, "velocity": 97, "duration": 47}, {"note": 0, "velocity": 0, "duration": 73}, {"note": 56, "velocity": 96, "duration": 110}, {"note": 59, "velocity": 112, "duration": 129}, {"note": 61, "velocity": 93, "duration": 71}, {"note": 63, "velocity": 100, "duration": 169}, {"note": 0, "velocity": 0, "duration": 71}, {"note": 61, "velocity": 112, "duration": 470}, {"note": 0, "velocity": 0, "duration": 490}, {"note": 61, "velocity": 107, "duration": 158}, {"note": 0, "velocity": 0, "duration": 82}, {"note": 54, "velocity": 83, "duration": 48}, {"note": 0, "velocity": 0, "duration": 72}, {"note": 54, "velocity": 67, "duration": 62}, {"note": 59, "velocity": 112, "duration": 233}, {"note": 58, "velocity": 102, "duration": 214}, {"note": 56, "velocity": 97, "duration": 475}, {"note": 0, "velocity": 0, "duration": 245}, {"note": 59, "velocity": 127, "duration": 92}, {"note": 61, "velocity": 95, "duration": 90}, {"note": 63, "velocity": 117, "duration": 141}, {"note": 0, "velocity": 0, "duration": 99}, {"note": 63, "velocity": 112, "duration": 38}, {"note": 0, "velocity": 0, "duration": 82}, {"note": 63, "velocity": 102, "duration": 43}, {"note": 0, "velocity": 0, "duration": 77}, {"note": 63, "velocity": 122, "duration": 138}, {"note": 0, "velocity": 0, "duration": 102}, {"note": 61, "velocity": 112, "duration": 80}, {"note": 59, "velocity": 97, "duration": 103}, {"note": 61, "velocity": 107, "duration": 402}, {"note": 0, "velocity": 0, "duration": 198}, {"note": 61, "velocity": 102, "duration": 49}, {"note": 0, "velocity": 0, "duration": 71}, {"note": 61, "velocity": 100, "duration": 103}, {"note": 63, "velocity": 96, "duration": 106}, {"note": 66, "velocity": 107, "duration": 200}, {"note": 66, "velocity": 112, "duration": 152}, {"note": 0, "velocity": 0, "duration": 88}, {"note": 66, "velocity": 117, "duration": 120}, {"note": 0, "velocity": 0, "duration": 120}, {"note": 63, "velocity": 127, "duration": 108}, {"note": 61, "velocity": 81, "duration": 113}, {"note": 63, "velocity": 102, "duration": 401}, {"note": 0, "velocity": 0, "duration": 559}, {"note": 63, "velocity": 112, "duration": 171}, {"note": 0, "velocity": 0, "duration": 69}, {"note": 56, "velocity": 97, "duration": 47}, {"note": 0, "velocity": 0, "duration": 73}, {"note": 56, "velocity": 96, "duration": 110}, {"note": 59, "velocity": 112, "duration": 129}, {"note": 61, "velocity": 93, "duration": 71}, {"note": 63, "velocity": 100, "duration": 169}, {"note": 0, "velocity": 0, "duration": 71}, {"note": 61, "velocity": 112, "duration": 470}, {"note": 0, "velocity": 0, "duration": 490}, {"note": 61, "velocity": 107, "duration": 158}, {"note": 0, "velocity": 0, "duration": 82}, {"note": 54, "velocity": 83, "duration": 48}, {"note": 0, "velocity": 0, "duration": 72}, {"note": 54, "velocity": 67, "duration": 62}, {"note": 59, "velocity": 112, "duration": 233}, {"note": 58, "velocity": 102, "duration": 214}, {"note": 56, "velocity": 97, "duration": 475}, {"note": 0, "velocity": 0, "duration": 245}, {"note": 59, "velocity": 127, "duration": 92}, {"note": 61, "velocity": 95, "duration": 90}, {"note": 63, "velocity": 117, "duration": 141}, {"note": 0, "velocity": 0, "duration": 99}, {"note": 63, "velocity": 112, "duration": 38}, {"note": 0, "velocity": 0, "duration": 82}, {"note": 63, "velocity": 102, "duration": 43}, {"note": 0, "velocity": 0, "duration": 77}, {"note": 63, "velocity": 122, "duration": 138}, {"note": 0, "velocity": 0, "duration": 102}, {"note": 61, "velocity": 112, "duration": 80}, {"note": 59, "velocity": 97, "duration": 103}, {"note": 61, "velocity": 107, "duration": 402}, {"note": 0, "velocity": 0, "duration": 198}, {"note": 61, "velocity": 102, "duration": 49}, {"note": 0, "velocity": 0, "duration": 71}, {"note": 61, "velocity": 100, "duration": 103}, {"note": 63, "velocity": 96, "duration": 106}, {"note": 66, "velocity": 107, "duration": 200}, {"note": 66, "velocity": 112, "duration": 152}, {"note": 0, "velocity": 0, "duration": 88}, {"note": 66, "velocity": 117, "duration": 120}, {"note": 0, "velocity": 0, "duration": 120}, {"note": 70, "velocity": 127, "duration": 227}, {"note": 68, "velocity": 107, "duration": 701}, {"note": 0, "velocity": 0, "duration": 139}, {"note": 63, "velocity": 96, "duration": 127}, {"note": 71, "velocity": 127, "duration": 144}, {"note": 0, "velocity": 0, "duration": 96}, {"note": 71, "velocity": 127, "duration": 274}, {"note": 0, "velocity": 0, "duration": 206}, {"note": 68, "velocity": 102, "duration": 83}, {"note": 70, "velocity": 107, "duration": 64}, {"note": 71, "velocity": 127, "duration": 431}, {"note": 0, "velocity": 0, "duration": 289}, {"note": 70, "velocity": 127, "duration": 81}, {"note": 68, "velocity": 95, "duration": 57}, {"note": 0, "velocity": 0, "duration": 63}, {"note": 70, "velocity": 117, "duration": 314}, {"note": 0, "velocity": 0, "duration": 166}, {"note": 70, "velocity": 127, "duration": 189}, {"note": 66, "velocity": 99, "duration": 101}, {"note": 68, "velocity": 112, "duration": 525}, {"note": 0, "velocity": 0, "duration": 315}, {"note": 63, "velocity": 99, "duration": 76}, {"note": 66, "velocity": 112, "duration": 69}, {"note": 68, "velocity": 127, "duration": 169}, {"note": 0, "velocity": 0, "duration": 71}, {"note": 68, "velocity": 102, "duration": 52}, {"note": 0, "velocity": 0, "duration": 68}, {"note": 68, "velocity": 127, "duration": 240}, {"note": 0, "velocity": 0, "duration": 120}, {"note": 66, "velocity": 112, "duration": 49}, {"note": 0, "velocity": 0, "duration": 71}, {"note": 66, "velocity": 112, "duration": 165}, {"note": 0, "velocity": 0, "duration": 75}, {"note": 63, "velocity": 112, "duration": 299}, {"note": 0, "velocity": 0, "duration": 301}, {"note": 59, "velocity": 127, "duration": 70}, {"note": 61, "velocity": 107, "duration": 59}, {"note": 0, "velocity": 0, "duration": 61}, {"note": 63, "velocity": 122, "duration": 152}, {"note": 0, "velocity": 0, "duration": 88}, {"note": 63, "velocity": 127, "duration": 40}, {"note": 0, "velocity": 0, "duration": 80}, {"note": 63, "velocity": 127, "duration": 253}, {"note": 0, "velocity": 0, "duration": 107}, {"note": 66, "velocity": 122, "duration": 86}, {"note": 63, "velocity": 117, "duration": 396}, {"note": 0, "velocity": 0, "duration": 564}, {"note": 63, "velocity": 96, "duration": 127}, {"note": 71, "velocity": 127, "duration": 144}, {"note": 0, "velocity": 0, "duration": 96}, {"note": 71, "velocity": 127, "duration": 274}, {"note": 0, "velocity": 0, "duration": 206}, {"note": 68, "velocity": 102, "duration": 83}, {"note": 70, "velocity": 107, "duration": 64}, {"note": 71, "velocity": 127, "duration": 431}, {"note": 0, "velocity": 0, "duration": 289}, {"note": 70, "velocity": 127, "duration": 81}, {"note": 68, "velocity": 95, "duration": 57}, {"note": 0, "velocity": 0, "duration": 63}, {"note": 70, "velocity": 117, "duration": 314}, {"note": 0, "velocity": 0, "duration": 166}, {"note": 70, "velocity": 127, "duration": 189}, {"note": 66, "velocity": 99, "duration": 101}, {"note": 68, "velocity": 112, "duration": 525}, {"note": 0, "velocity": 0, "duration": 315}, {"note": 63, "velocity": 99, "duration": 76}, {"note": 66, "velocity": 112, "duration": 69}, {"note": 68, "velocity": 127, "duration": 169}, {"note": 0, "velocity": 0, "duration": 71}, {"note": 68, "velocity": 102, "duration": 52}, {"note": 0, "velocity": 0, "duration": 68}, {"note": 68, "velocity": 127, "duration": 240}, {"note": 0, "velocity": 0, "duration": 120}, {"note": 66, "velocity": 112, "duration": 49}, {"note": 0, "velocity": 0, "duration": 71}, {"note": 66, "velocity": 112, "duration": 165}, {"note": 0, "velocity": 0, "duration": 75}, {"note": 63, "velocity": 112, "duration": 299}, {"note": 0, "velocity": 0, "duration": 301}, {"note": 68, "velocity": 102, "duration": 74}, {"note": 70, "velocity": 100, "duration": 55}, {"note": 0, "velocity": 0, "duration": 65}, {"note": 71, "velocity": 127, "duration": 683}, {"note": 0, "velocity": 0, "duration": 277}, {"note": 70, "velocity": 127, "duration": 307}, {"note": 0, "velocity": 0, "duration": 173}, {"note": 70, "velocity": 127, "duration": 108}, {"note": 68, "velocity": 102, "duration": 49}, {"note": 0, "velocity": 0, "duration": 71}, {"note": 66, "velocity": 112, "duration": 154}, {"note": 0, "velocity": 0, "duration": 86}, {"note": 68, "velocity": 127, "duration": 784}, {"note": 0, "velocity": 0, "duration": 16496}, {"note": 63, "velocity": 112, "duration": 171}, {"note": 0, "velocity": 0, "duration": 69}, {"note": 56, "velocity": 97, "duration": 47}, {"note": 0, "velocity": 0, "duration": 73}, {"note": 56, "velocity": 96, "duration": 110}, {"note": 59, "velocity": 112, "duration": 129}, {"note": 61, "velocity": 93, "duration": 71}, {"note": 63, "velocity": 100, "duration": 169}, {"note": 0, "velocity": 0, "duration": 71}, {"note": 61, "velocity": 112, "duration": 470}, {"note": 0, "velocity": 0, "duration": 490}, {"note": 61, "velocity": 107, "duration": 158}, {"note": 0, "velocity": 0, "duration": 82}, {"note": 54, "velocity": 83, "duration": 48}, {"note": 0, "velocity": 0, "duration": 72}, {"note": 54, "velocity": 67, "duration": 62}, {"note": 59, "velocity": 112, "duration": 233}, {"note": 58, "velocity": 102, "duration": 214}, {"note": 56, "velocity": 97, "duration": 475}, {"note": 0, "velocity": 0, "duration": 245}, {"note": 59, "velocity": 127, "duration": 92}, {"note": 61, "velocity": 95, "duration": 90}, {"note": 63, "velocity": 117, "duration": 141}, {"note": 0, "velocity": 0, "duration": 99}, {"note": 63, "velocity": 112, "duration": 38}, {"note": 0, "velocity": 0, "duration": 82}, {"note": 63, "velocity": 102, "duration": 43}, {"note": 0, "velocity": 0, "duration": 77}, {"note": 63, "velocity": 122, "duration": 138}, {"note": 0, "velocity": 0, "duration": 102}, {"note": 61, "velocity": 112, "duration": 80}, {"note": 59, "velocity": 97, "duration": 103}, {"note": 61, "velocity": 107, "duration": 402}, {"note": 0, "velocity": 0, "duration": 198}, {"note": 61, "velocity": 102, "duration": 49}, {"note": 0, "velocity": 0, "duration": 71}, {"note": 61, "velocity": 100, "duration": 103}, {"note": 63, "velocity": 96, "duration": 106}, {"note": 66, "velocity": 107, "duration": 200}, {"note": 66, "velocity": 112, "duration": 152}, {"note": 0, "velocity": 0, "duration": 88}, {"note": 66, "velocity": 117, "duration": 120}, {"note": 0, "velocity": 0, "duration": 120}, {"note": 63, "velocity": 127, "duration": 108}, {"note": 61, "velocity": 81, "duration": 113}, {"note": 63, "velocity": 102, "duration": 401}, {"note": 0, "velocity": 0, "duration": 559}, {"note": 63, "velocity": 112, "duration": 171}, {"note": 0, "velocity": 0, "duration": 69}, {"note": 56, "velocity": 97, "duration": 47}, {"note": 0, "velocity": 0, "duration": 73}, {"note": 56, "velocity": 96, "duration": 110}, {"note": 59, "velocity": 112, "duration": 129}, {"note": 61, "velocity": 93, "duration": 71}, {"note": 63, "velocity": 100, "duration": 169}, {"note": 0, "velocity": 0, "duration": 71}, {"note": 61, "velocity": 112, "duration": 470}, {"note": 0, "velocity": 0, "duration": 490}, {"note": 61, "velocity": 107, "duration": 158}, {"note": 0, "velocity": 0, "duration": 82}, {"note": 54, "velocity": 83, "duration": 48}, {"note": 0, "velocity": 0, "duration": 72}, {"note": 54, "velocity": 67, "duration": 62}, {"note": 59, "velocity": 112, "duration": 233}, {"note": 58, "velocity": 102, "duration": 214}, {"note": 56, "velocity": 97, "duration": 475}, {"note": 0, "velocity": 0, "duration": 245}, {"note": 59, "velocity": 127, "duration": 92}, {"note": 61, "velocity": 95, "duration": 90}, {"note": 63, "velocity": 117, "duration": 141}, {"note": 0, "velocity": 0, "duration": 99}, {"note": 63, "velocity": 112, "duration": 38}, {"note": 0, "velocity": 0, "duration": 82}, {"note": 63, "velocity": 102, "duration": 43}, {"note": 0, "velocity": 0, "duration": 77}, {"note": 63, "velocity": 122, "duration": 138}, {"note": 0, "velocity": 0, "duration": 102}, {"note": 61, "velocity": 112, "duration": 80}, {"note": 59, "velocity": 97, "duration": 103}, {"note": 61, "velocity": 107, "duration": 402}, {"note": 0, "velocity": 0, "duration": 198}, {"note": 61, "velocity": 102, "duration": 49}, {"note": 0, "velocity": 0, "duration": 71}, {"note": 61, "velocity": 100, "duration": 103}, {"note": 63, "velocity": 96, "duration": 106}, {"note": 66, "velocity": 107, "duration": 200}, {"note": 66, "velocity": 112, "duration": 152}, {"note": 0, "velocity": 0, "duration": 88}, {"note": 66, "velocity": 117, "duration": 120}, {"note": 0, "velocity": 0, "duration": 120}, {"note": 70, "velocity": 127, "duration": 227}, {"note": 68, "velocity": 107, "duration": 701}, {"note": 0, "velocity": 0, "duration": 139}, {"note": 63, "velocity": 96, "duration": 127}, {"note": 71, "velocity": 127, "duration": 144}, {"note": 0, "velocity": 0, "duration": 96}, {"note": 71, "velocity": 127, "duration": 274}, {"note": 0, "velocity": 0, "duration": 206}, {"note": 68, "velocity": 102, "duration": 83}, {"note": 70, "velocity": 107, "duration": 64}, {"note": 71, "velocity": 127, "duration": 431}, {"note": 0, "velocity": 0, "duration": 289}, {"note": 70, "velocity": 127, "duration": 81}, {"note": 68, "velocity": 95, "duration": 57}, {"note": 0, "velocity": 0, "duration": 63}, {"note": 70, "velocity": 117, "duration": 314}, {"note": 0, "velocity": 0, "duration": 166}, {"note": 70, "velocity": 127, "duration": 189}, {"note": 66, "velocity": 99, "duration": 101}, {"note": 68, "velocity": 112, "duration": 525}, {"note": 0, "velocity": 0, "duration": 315}, {"note": 63, "velocity": 99, "duration": 76}, {"note": 66, "velocity": 112, "duration": 69}, {"note": 68, "velocity": 127, "duration": 169}, {"note": 0, "velocity": 0, "duration": 71}, {"note": 68, "velocity": 102, "duration": 52}, {"note": 0, "velocity": 0, "duration": 68}, {"note": 68, "velocity": 127, "duration": 240}, {"note": 0, "velocity": 0, "duration": 120}, {"note": 66, "velocity": 112, "duration": 49}, {"note": 0, "velocity": 0, "duration": 71}, {"note": 66, "velocity": 112, "duration": 165}, {"note": 0, "velocity": 0, "duration": 75}, {"note": 63, "velocity": 112, "duration": 299}, {"note": 0, "velocity": 0, "duration": 301}, {"note": 59, "velocity": 127, "duration": 70}, {"note": 61, "velocity": 107, "duration": 59}, {"note": 0, "velocity": 0, "duration": 61}, {"note": 63, "velocity": 122, "duration": 152}, {"note": 0, "velocity": 0, "duration": 88}, {"note": 63, "velocity": 127, "duration": 40}, {"note": 0, "velocity": 0, "duration": 80}, {"note": 63, "velocity": 127, "duration": 253}, {"note": 0, "velocity": 0, "duration": 107}, {"note": 66, "velocity": 122, "duration": 86}, {"note": 63, "velocity": 117, "duration": 396}, {"note": 0, "velocity": 0, "duration": 564}, {"note": 63, "velocity": 96, "duration": 127}, {"note": 71, "velocity": 127, "duration": 144}, {"note": 0, "velocity": 0, "duration": 96}, {"note": 71, "velocity": 127, "duration": 274}, {"note": 0, "velocity": 0, "duration": 206}, {"note": 68, "velocity": 102, "duration": 83}, {"note": 70, "velocity": 107, "duration": 64}, {"note": 71, "velocity": 127, "duration": 431}, {"note": 0, "velocity": 0, "duration": 289}, {"note": 70, "velocity": 127, "duration": 81}, {"note": 68, "velocity": 95, "duration": 57}, {"note": 0, "velocity": 0, "duration": 63}, {"note": 70, "velocity": 117, "duration": 314}, {"note": 0, "velocity": 0, "duration": 166}, {"note": 70, "velocity": 127, "duration": 189}, {"note": 66, "velocity": 99, "duration": 101}, {"note": 68, "velocity": 112, "duration": 525}, {"note": 0, "velocity": 0, "duration": 315}, {"note": 63, "velocity": 99, "duration": 76}, {"note": 66, "velocity": 112, "duration": 69}, {"note": 68, "velocity": 127, "duration": 169}, {"note": 0, "velocity": 0, "duration": 71}, {"note": 68, "velocity": 102, "duration": 52}, {"note": 0, "velocity": 0, "duration": 68}, {"note": 68, "velocity": 127, "duration": 240}, {"note": 0, "velocity": 0, "duration": 120}, {"note": 66, "velocity": 112, "duration": 49}, {"note": 0, "velocity": 0, "duration": 71}, {"note": 66, "velocity": 112, "duration": 165}, {"note": 0, "velocity": 0, "duration": 75}, {"note": 63, "velocity": 112, "duration": 299}, {"note": 0, "velocity": 0, "duration": 301}, {"note": 68, "velocity": 102, "duration": 74}, {"note": 70, "velocity": 100, "duration": 55}, {"note": 0, "velocity": 0, "duration": 65}, {"note": 71, "velocity": 127, "duration": 683}, {"note": 0, "velocity": 0, "duration": 277}, {"note": 70, "velocity": 127, "duration": 307}, {"note": 0, "velocity": 0, "duration": 173}, {"note": 70, "velocity": 127, "duration": 108}, {"note": 68, "velocity": 102, "duration": 49}, {"note": 0, "velocity": 0, "duration": 71}, {"note": 66, "velocity": 112, "duration": 154}, {"note": 0, "velocity": 0, "duration": 86}, {"note": 68, "velocity": 127, "duration": 784}, {"note": 0, "velocity": 0, "duration": 8696}, {"note": 63, "velocity": 96, "duration": 127}, {"note": 71, "velocity": 127, "duration": 144}, {"note": 0, "velocity": 0, "duration": 96}, {"note": 71, "velocity": 127, "duration": 274}, {"note": 0, "velocity": 0, "duration": 206}, {"note": 68, "velocity": 102, "duration": 83}, {"note": 70, "velocity": 107, "duration": 64}, {"note": 71, "velocity": 127, "duration": 431}, {"note": 0, "velocity": 0, "duration": 289}, {"note": 70, "velocity": 127, "duration": 81}, {"note": 68, "velocity": 95, "duration": 57}, {"note": 0, "velocity": 0, "duration": 63}, {"note": 70, "velocity": 117, "duration": 314}, {"note": 0, "velocity": 0, "duration": 166}, {"note": 70, "velocity": 127, "duration": 189}, {"note": 66, "velocity": 99, "duration": 101}, {"note": 68, "velocity": 112, "duration": 525}, {"note": 0, "velocity": 0, "duration": 315}, {"note": 63, "velocity": 99, "duration": 76}, {"note": 66, "velocity": 112, "duration": 69}, {"note": 68, "velocity": 127, "duration": 169}, {"note": 0, "velocity": 0, "duration": 71}, {"note": 68, "velocity": 102, "duration": 52}, {"note": 0, "velocity": 0, "duration": 68}, {"note": 68, "velocity": 127, "duration": 240}, {"note": 0, "velocity": 0, "duration": 120}, {"note": 66, "velocity": 112, "duration": 49}, {"note": 0, "velocity": 0, "duration": 71}, {"note": 66, "velocity": 112, "duration": 165}, {"note": 0, "velocity": 0, "duration": 75}, {"note": 63, "velocity": 112, "duration": 299}, {"note": 0, "velocity": 0, "duration": 301}, {"note": 59, "velocity": 127, "duration": 70}, {"note": 61, "velocity": 107, "duration": 59}, {"note": 0, "velocity": 0, "duration": 61}, {"note": 63, "velocity": 122, "duration": 152}, {"note": 0, "velocity": 0, "duration": 88}, {"note": 63, "velocity": 127, "duration": 40}, {"note": 0, "velocity": 0, "duration": 80}, {"note": 63, "velocity": 127, "duration": 253}, {"note": 0, "velocity": 0, "duration": 107}, {"note": 66, "velocity": 122, "duration": 86}, {"note": 63, "velocity": 117, "duration": 396}, {"note": 0, "velocity": 0, "duration": 564}, {"note": 63, "velocity": 96, "duration": 127}, {"note": 71, "velocity": 127, "duration": 144}, {"note": 0, "velocity": 0, "duration": 96}, {"note": 71, "velocity": 127, "duration": 274}, {"note": 0, "velocity": 0, "duration": 206}, {"note": 68, "velocity": 102, "duration": 83}, {"note": 70, "velocity": 107, "duration": 64}, {"note": 71, "velocity": 127, "duration": 431}, {"note": 0, "velocity": 0, "duration": 289}, {"note": 70, "velocity": 127, "duration": 81}, {"note": 68, "velocity": 95, "duration": 57}, {"note": 0, "velocity": 0, "duration": 63}, {"note": 70, "velocity": 117, "duration": 314}, {"note": 0, "velocity": 0, "duration": 166}, {"note": 70, "velocity": 127, "duration": 189}, {"note": 66, "velocity": 99, "duration": 101}, {"note": 68, "velocity": 112, "duration": 525}, {"note": 0, "velocity": 0, "duration": 315}, {"note": 63, "velocity": 99, "duration": 76}, {"note": 66, "velocity": 112, "duration": 69}, {"note": 68, "velocity": 127, "duration": 169}, {"note": 0, "velocity": 0, "duration": 71}, {"note": 68, "velocity": 102, "duration": 52}, {"note": 0, "velocity": 0, "duration": 68}, {"note": 68, "velocity": 127, "duration": 240}, {"note": 0, "velocity": 0, "duration": 120}, {"note": 66, "velocity": 112, "duration": 49}, {"note": 0, "velocity": 0, "duration": 71}, {"note": 66, "velocity": 112, "duration": 165}, {"note": 0, "velocity": 0, "duration": 75}, {"note": 63, "velocity": 112, "duration": 299}, {"note": 0, "velocity": 0, "duration": 301}, {"note": 68, "velocity": 102, "duration": 74}, {"note": 70, "velocity": 100, "duration": 55}, {"note": 0, "velocity": 0, "duration": 65}, {"note": 71, "velocity": 127, "duration": 683}, {"note": 0, "velocity": 0, "duration": 277}, {"note": 70, "velocity": 127, "duration": 307}, {"note": 0, "velocity": 0, "duration": 173}, {"note": 70, "velocity": 127, "duration": 108}, {"note": 68, "velocity": 102, "duration": 49}, {"note": 0, "velocity": 0, "duration": 71}, {"note": 66, "velocity": 112, "duration": 154}, {"note": 0, "velocity": 0, "duration": 86}, {"note": 68, "velocity": 127, "duration": 784}]]