[[{"note": 58, "velocity": 102, "duration": 568}, {"note": 0, "velocity": 0, "duration": 152}, {"note": 58, "velocity": 99, "duration": 212}, {"note": 57, "velocity": 82, "duration": 473}, {"note": 0, "velocity": 0, "duration": 247}, {"note": 57, "velocity": 95, "duration": 198}, {"note": 55, "velocity": 78, "duration": 168}, {"note": 0, "velocity": 0, "duration": 72}, {"note": 57, "velocity": 67, "duration": 152}, {"note": 0, "velocity": 0, "duration": 88}, {"note": 55, "velocity": 85, "duration": 157}, {"note": 0, "velocity": 0, "duration": 83}, {"note": 53, "velocity": 82, "duration": 190}, {"note": 55, "velocity": 92, "duration": 674}, {"note": 0, "velocity": 0, "duration": 286}, {"note": 58, "velocity": 96, "duration": 446}, {"note": 0, "velocity": 0, "duration": 274}, {"note": 58, "velocity": 100, "duration": 192}, {"note": 57, "velocity": 96, "duration": 448}, {"note": 0, "velocity": 0, "duration": 272}, {"note": 60, "velocity": 95, "duration": 66}, {"note": 0, "velocity": 0, "duration": 174}, {"note": 60, "velocity": 93, "duration": 253}, {"note": 62, "velocity": 79, "duration": 75}, {"note": 0, "velocity": 0, "duration": 165}, {"note": 65, "velocity": 95, "duration": 214}, {"note": 60, "velocity": 72, "duration": 263}, {"note": 62, "velocity": 81, "duration": 483}, {"note": 62, "velocity": 93, "duration": 3}, {"note": 0, "velocity": 0, "duration": 237}, {"note": 65, "velocity": 92, "duration": 93}, {"note": 0, "velocity": 0, "duration": 147}, {"note": 67, "velocity": 96, "duration": 531}, {"note": 65, "velocity": 88, "duration": 267}, {"note": 67, "velocity": 83, "duration": 277}, {"note": 65, "velocity": 99, "duration": 481}, {"note": 0, "velocity": 0, "duration": 239}, {"note": 62, "velocity": 90, "duration": 92}, {"note": 0, "velocity": 0, "duration": 148}, {"note": 65, "velocity": 97, "duration": 247}, {"note": 62, "velocity": 79, "duration": 83}, {"note": 0, "velocity": 0, "duration": 157}, {"note": 62, "velocity": 95, "duration": 223}, {"note": 60, "velocity": 81, "duration": 202}, {"note": 58, "velocity": 77, "duration": 453}, {"note": 55, "velocity": 89, "duration": 256}, {"note": 57, "velocity": 83, "duration": 163}, {"note": 0, "velocity": 0, "duration": 77}, {"note": 58, "velocity": 90, "duration": 142}, {"note": 0, "velocity": 0, "duration": 98}, {"note": 62, "velocity": 99, "duration": 226}, {"note": 60, "velocity": 97, "duration": 169}, {"note": 0, "velocity": 0, "duration": 71}, {"note": 58, "velocity": 90, "duration": 139}, {"note": 0, "velocity": 0, "duration": 101}, {"note": 57, "velocity": 88, "duration": 234}, {"note": 0, "velocity": 0, "duration": 246}, {"note": 53, "velocity": 88, "duration": 496}, {"note": 55, "velocity": 82, "duration": 1094}, {"note": 0, "velocity": 0, "duration": 826}, {"note": 58, "velocity": 102, "duration": 568}, {"note": 0, "velocity": 0, "duration": 152}, {"note": 58, "velocity": 99, "duration": 212}, {"note": 57, "velocity": 82, "duration": 473}, {"note": 0, "velocity": 0, "duration": 247}, {"note": 57, "velocity": 95, "duration": 198}, {"note": 55, "velocity": 78, "duration": 168}, {"note": 0, "velocity": 0, "duration": 72}, {"note": 57, "velocity": 67, "duration": 152}, {"note": 0, "velocity": 0, "duration": 88}, {"note": 55, "velocity": 85, "duration": 157}, {"note": 0, "velocity": 0, "duration": 83}, {"note": 53, "velocity": 82, "duration": 190}, {"note": 55, "velocity": 92, "duration": 674}, {"note": 0, "velocity": 0, "duration": 286}, {"note": 58, "velocity": 96, "duration": 446}, {"note": 0, "velocity": 0, "duration": 274}, {"note": 58, "velocity": 100, "duration": 192}, {"note": 57, "velocity": 96, "duration": 448}, {"note": 0, "velocity": 0, "duration": 272}, {"note": 60, "velocity": 95, "duration": 66}, {"note": 0, "velocity": 0, "duration": 174}, {"note": 60, "velocity": 93, "duration": 253}, {"note": 62, "velocity": 79, "duration": 75}, {"note": 0, "velocity": 0, "duration": 165}, {"note": 65, "velocity": 95, "duration": 214}, {"note": 60, "velocity": 72, "duration": 263}, {"note": 62, "velocity": 81, "duration": 483}, {"note": 62, "velocity": 93, "duration": 3}, {"note": 0, "velocity": 0, "duration": 237}, {"note": 65, "velocity": 92, "duration": 93}, {"note": 0, "velocity": 0, "duration": 147}, {"note": 67, "velocity": 96, "duration": 531}, {"note": 65, "velocity": 88, "duration": 267}, {"note": 67, "velocity": 83, "duration": 277}, {"note": 65, "velocity": 99, "duration": 481}, {"note": 0, "velocity": 0, "duration": 239}, {"note": 62, "velocity": 90, "duration": 92}, {"note": 0, "velocity": 0, "duration": 148}, {"note": 65, "velocity": 97, "duration": 247}, {"note": 62, "velocity": 79, "duration": 83}, {"note": 0, "velocity": 0, "duration": 157}, {"note": 62, "velocity": 95, "duration": 223}, {"note": 60, "velocity": 81, "duration": 202}, {"note": 58, "velocity": 77, "duration": 453}, {"note": 55, "velocity": 89, "duration": 256}, {"note": 57, "velocity": 83, "duration": 163}, {"note": 0, "velocity": 0, "duration": 77}, {"note": 58, "velocity": 90, "duration": 142}, {"note": 0, "velocity": 0, "duration": 98}, {"note": 62, "velocity": 99, "duration": 226}, {"note": 60, "velocity": 97, "duration": 169}, {"note": 0, "velocity": 0, "duration": 71}, {"note": 62, "velocity": 112, "duration": 116}, {"note": 0, "velocity": 0, "duration": 124}, {"note": 65, "velocity": 117, "duration": 297}, {"note": 0, "velocity": 0, "duration": 183}, {"note": 62, "velocity": 107, "duration": 404}, {"note": 0, "velocity": 0, "duration": 76}, {"note": 67, "velocity": 107, "duration": 1019}, {"note": 0, "velocity": 0, "duration": 421}, {"note": 62, "velocity": 102, "duration": 132}, {"note": 0, "velocity": 0, "duration": 108}, {"note": 65, "velocity": 107, "duration": 201}, {"note": 67, "velocity": 112, "duration": 124}, {"note": 0, "velocity": 0, "duration": 116}, {"note": 67, "velocity": 112, "duration": 115}, {"note": 0, "velocity": 0, "duration": 125}, {"note": 67, "velocity": 117, "duration": 117}, {"note": 0, "velocity": 0, "duration": 123}, {"note": 65, "velocity": 112, "duration": 144}, {"note": 0, "velocity": 0, "duration": 96}, {"note": 67, "velocity": 122, "duration": 320}, {"note": 0, "velocity": 0, "duration": 400}, {"note": 62, "velocity": 99, "duration": 85}, {"note": 0, "velocity": 0, "duration": 155}, {"note": 67, "velocity": 117, "duration": 240}, {"note": 65, "velocity": 90, "duration": 53}, {"note": 0, "velocity": 0, "duration": 187}, {"note": 65, "velocity": 117, "duration": 244}, {"note": 62, "velocity": 100, "duration": 83}, {"note": 0, "velocity": 0, "duration": 157}, {"note": 65, "velocity": 102, "duration": 378}, {"note": 0, "velocity": 0, "duration": 102}, {"note": 62, "velocity": 99, "duration": 176}, {"note": 0, "velocity": 0, "duration": 64}, {"note": 65, "velocity": 100, "duration": 198}, {"note": 67, "velocity": 107, "duration": 219}, {"note": 65, "velocity": 112, "duration": 153}, {"note": 0, "velocity": 0, "duration": 87}, {"note": 67, "velocity": 99, "duration": 214}, {"note": 70, "velocity": 122, "duration": 173}, {"note": 0, "velocity": 0, "duration": 67}, {"note": 69, "velocity": 117, "duration": 329}, {"note": 0, "velocity": 0, "duration": 151}, {"note": 65, "velocity": 112, "duration": 323}, {"note": 0, "velocity": 0, "duration": 157}, {"note": 62, "velocity": 107, "duration": 965}, {"note": 0, "velocity": 0, "duration": 475}, {"note": 62, "velocity": 100, "duration": 151}, {"note": 0, "velocity": 0, "duration": 89}, {"note": 65, "velocity": 112, "duration": 205}, {"note": 67, "velocity": 112, "duration": 112}, {"note": 0, "velocity": 0, "duration": 128}, {"note": 67, "velocity": 107, "duration": 122}, {"note": 0, "velocity": 0, "duration": 118}, {"note": 67, "velocity": 117, "duration": 128}, {"note": 0, "velocity": 0, "duration": 112}, {"note": 65, "velocity": 112, "duration": 135}, {"note": 0, "velocity": 0, "duration": 105}, {"note": 67, "velocity": 127, "duration": 209}, {"note": 0, "velocity": 0, "duration": 511}, {"note": 70, "velocity": 127, "duration": 168}, {"note": 0, "velocity": 0, "duration": 72}, {"note": 72, "velocity": 117, "duration": 136}, {"note": 0, "velocity": 0, "duration": 104}, {"note": 72, "velocity": 117, "duration": 129}, {"note": 0, "velocity": 0, "duration": 111}, {"note": 72, "velocity": 127, "duration": 127}, {"note": 0, "velocity": 0, "duration": 113}, {"note": 70, "velocity": 122, "duration": 127}, {"note": 0, "velocity": 0, "duration": 113}, {"note": 72, "velocity": 127, "duration": 227}, {"note": 0, "velocity": 0, "duration": 733}, {"note": 70, "velocity": 127, "duration": 150}, {"note": 0, "velocity": 0, "duration": 90}, {"note": 69, "velocity": 127, "duration": 157}, {"note": 0, "velocity": 0, "duration": 83}, {"note": 67, "velocity": 100, "duration": 158}, {"note": 0, "velocity": 0, "duration": 82}, {"note": 70, "velocity": 127, "duration": 121}, {"note": 0, "velocity": 0, "duration": 119}, {"note": 69, "velocity": 127, "duration": 179}, {"note": 0, "velocity": 0, "duration": 301}, {"note": 65, "velocity": 112, "duration": 391}, {"note": 0, "velocity": 0, "duration": 89}, {"note": 67, "velocity": 127, "duration": 986}, {"note": 0, "velocity": 0, "duration": 454}, {"note": 62, "velocity": 102, "duration": 132}, {"note": 0, "velocity": 0, "duration": 108}, {"note": 65, "velocity": 107, "duration": 201}, {"note": 67, "velocity": 112, "duration": 124}, {"note": 0, "velocity": 0, "duration": 116}, {"note": 67, "velocity": 112, "duration": 115}, {"note": 0, "velocity": 0, "duration": 125}, {"note": 67, "velocity": 117, "duration": 117}, {"note": 0, "velocity": 0, "duration": 123}, {"note": 65, "velocity": 112, "duration": 144}, {"note": 0, "velocity": 0, "duration": 96}, {"note": 67, "velocity": 122, "duration": 320}, {"note": 0, "velocity": 0, "duration": 400}, {"note": 62, "velocity": 99, "duration": 85}, {"note": 0, "velocity": 0, "duration": 155}, {"note": 67, "velocity": 117, "duration": 240}, {"note": 65, "velocity": 90, "duration": 53}, {"note": 0, "velocity": 0, "duration": 187}, {"note": 65, "velocity": 117, "duration": 244}, {"note": 62, "velocity": 100, "duration": 83}, {"note": 0, "velocity": 0, "duration": 157}, {"note": 65, "velocity": 102, "duration": 378}, {"note": 0, "velocity": 0, "duration": 102}, {"note": 62, "velocity": 99, "duration": 176}, {"note": 0, "velocity": 0, "duration": 64}, {"note": 65, "velocity": 100, "duration": 198}, {"note": 67, "velocity": 107, "duration": 219}, {"note": 65, "velocity": 112, "duration": 153}, {"note": 0, "velocity": 0, "duration": 87}, {"note": 67, "velocity": 99, "duration": 214}, {"note": 70, "velocity": 122, "duration": 173}, {"note": 0, "velocity": 0, "duration": 67}, {"note": 69, "velocity": 117, "duration": 329}, {"note": 0, "velocity": 0, "duration": 151}, {"note": 65, "velocity": 112, "duration": 323}, {"note": 0, "velocity": 0, "duration": 157}, {"note": 62, "velocity": 107, "duration": 965}, {"note": 0, "velocity": 0, "duration": 475}, {"note": 62, "velocity": 100, "duration": 151}, {"note": 0, "velocity": 0, "duration": 89}, {"note": 65, "velocity": 112, "duration": 205}, {"note": 67, "velocity": 112, "duration": 112}, {"note": 0, "velocity": 0, "duration": 128}, {"note": 67, "velocity": 107, "duration": 122}, {"note": 0, "velocity": 0, "duration": 118}, {"note": 67, "velocity": 117, "duration": 128}, {"note": 0, "velocity": 0, "duration": 112}, {"note": 65, "velocity": 112, "duration": 135}, {"note": 0, "velocity": 0, "duration": 105}, {"note": 67, "velocity": 127, "duration": 209}, {"note": 0, "velocity": 0, "duration": 511}, {"note": 70, "velocity": 127, "duration": 168}, {"note": 0, "velocity": 0, "duration": 72}, {"note": 72, "velocity": 117, "duration": 136}, {"note": 0, "velocity": 0, "duration": 104}, {"note": 72, "velocity": 117, "duration": 129}, {"note": 0, "velocity": 0, "duration": 111}, {"note": 72, "velocity": 127, "duration": 127}, {"note": 0, "velocity": 0, "duration": 113}, {"note": 70, "velocity": 122, "duration": 127}, {"note": 0, "velocity": 0, "duration": 113}, {"note": 72, "velocity": 127, "duration": 227}, {"note": 0, "velocity": 0, "duration": 733}, {"note": 70, "velocity": 127, "duration": 150}, {"note": 0, "velocity": 0, "duration": 90}, {"note": 69, "velocity": 127, "duration": 157}, {"note": 0, "velocity": 0, "duration": 83}, {"note": 67, "velocity": 100, "duration": 158}, {"note": 0, "velocity": 0, "duration": 82}, {"note": 70, "velocity": 127, "duration": 121}, {"note": 0, "velocity": 0, "duration": 119}, {"note": 69, "velocity": 127, "duration": 179}, {"note": 0, "velocity": 0, "duration": 301}, {"note": 65, "velocity": 112, "duration": 391}, {"note": 0, "velocity": 0, "duration": 89}, {"note": 67, "velocity": 127, "duration": 986}, {"note": 0, "velocity": 0, "duration": 16294}, {"note": 58, "velocity": 102, "duration": 568}, {"note": 0, "velocity": 0, "duration": 152}, {"note": 58, "velocity": 99, "duration": 212}, {"note": 57, "velocity": 82, "duration": 473}, {"note": 0, "velocity": 0, "duration": 247}, {"note": 57, "velocity": 95, "duration": 198}, {"note": 55, "velocity": 78, "duration": 168}, {"note": 0, "velocity": 0, "duration": 72}, {"note": 57, "velocity": 67, "duration": 152}, {"note": 0, "velocity": 0, "duration": 88}, {"note": 55, "velocity": 85, "duration": 157}, {"note": 0, "velocity": 0, "duration": 83}, {"note": 53, "velocity": 82, "duration": 190}, {"note": 55, "velocity": 92, "duration": 674}, {"note": 0, "velocity": 0, "duration": 286}, {"note": 58, "velocity": 96, "duration": 446}, {"note": 0, "velocity": 0, "duration": 274}, {"note": 58, "velocity": 100, "duration": 192}, {"note": 57, "velocity": 96, "duration": 448}, {"note": 0, "velocity": 0, "duration": 272}, {"note": 60, "velocity": 95, "duration": 66}, {"note": 0, "velocity": 0, "duration": 174}, {"note": 60, "velocity": 93, "duration": 253}, {"note": 62, "velocity": 79, "duration": 75}, {"note": 0, "velocity": 0, "duration": 165}, {"note": 65, "velocity": 95, "duration": 214}, {"note": 60, "velocity": 72, "duration": 263}, {"note": 62, "velocity": 81, "duration": 483}, {"note": 62, "velocity": 93, "duration": 3}, {"note": 0, "velocity": 0, "duration": 237}, {"note": 65, "velocity": 92, "duration": 93}, {"note": 0, "velocity": 0, "duration": 147}, {"note": 67, "velocity": 96, "duration": 531}, {"note": 65, "velocity": 88, "duration": 267}, {"note": 67, "velocity": 83, "duration": 277}, {"note": 65, "velocity": 99, "duration": 481}, {"note": 0, "velocity": 0, "duration": 239}, {"note": 62, "velocity": 90, "duration": 92}, {"note": 0, "velocity": 0, "duration": 148}, {"note": 65, "velocity": 97, "duration": 247}, {"note": 62, "velocity": 79, "duration": 83}, {"note": 0, "velocity": 0, "duration": 157}, {"note": 62, "velocity": 95, "duration": 223}, {"note": 60, "velocity": 81, "duration": 202}, {"note": 58, "velocity": 77, "duration": 453}, {"note": 55, "velocity": 89, "duration": 256}, {"note": 57, "velocity": 83, "duration": 163}, {"note": 0, "velocity": 0, "duration": 77}, {"note": 58, "velocity": 90, "duration": 142}, {"note": 0, "velocity": 0, "duration": 98}, {"note": 62, "velocity": 99, "duration": 226}, {"note": 60, "velocity": 97, "duration": 169}, {"note": 0, "velocity": 0, "duration": 71}, {"note": 62, "velocity": 112, "duration": 116}, {"note": 0, "velocity": 0, "duration": 124}, {"note": 65, "velocity": 117, "duration": 297}, {"note": 0, "velocity": 0, "duration": 183}, {"note": 62, "velocity": 107, "duration": 404}, {"note": 0, "velocity": 0, "duration": 76}, {"note": 67, "velocity": 107, "duration": 1019}, {"note": 0, "velocity": 0, "duration": 2341}, {"note": 62, "velocity": 102, "duration": 132}, {"note": 0, "velocity": 0, "duration": 108}, {"note": 65, "velocity": 107, "duration": 201}, {"note": 67, "velocity": 112, "duration": 124}, {"note": 0, "velocity": 0, "duration": 116}, {"note": 67, "velocity": 112, "duration": 115}, {"note": 0, "velocity": 0, "duration": 125}, {"note": 67, "velocity": 117, "duration": 117}, {"note": 0, "velocity": 0, "duration": 123}, {"note": 65, "velocity": 112, "duration": 144}, {"note": 0, "velocity": 0, "duration": 96}, {"note": 67, "velocity": 122, "duration": 320}, {"note": 0, "velocity": 0, "duration": 400}, {"note": 62, "velocity": 99, "duration": 85}, {"note": 0, "velocity": 0, "duration": 155}, {"note": 67, "velocity": 117, "duration": 240}, {"note": 65, "velocity": 90, "duration": 53}, {"note": 0, "velocity": 0, "duration": 187}, {"note": 65, "velocity": 117, "duration": 244}, {"note": 62, "velocity": 100, "duration": 83}, {"note": 0, "velocity": 0, "duration": 157}, {"note": 65, "velocity": 102, "duration": 378}, {"note": 0, "velocity": 0, "duration": 102}, {"note": 62, "velocity": 99, "duration": 176}, {"note": 0, "velocity": 0, "duration": 64}, {"note": 65, "velocity": 100, "duration": 198}, {"note": 67, "velocity": 107, "duration": 219}, {"note": 65, "velocity": 112, "duration": 153}, {"note": 0, "velocity": 0, "duration": 87}, {"note": 67, "velocity": 99, "duration": 214}, {"note": 70, "velocity": 122, "duration": 173}, {"note": 0, "velocity": 0, "duration": 67}, {"note": 69, "velocity": 117, "duration": 329}, {"note": 0, "velocity": 0, "duration": 151}, {"note": 65, "velocity": 112, "duration": 323}, {"note": 0, "velocity": 0, "duration": 157}, {"note": 62, "velocity": 107, "duration": 965}, {"note": 0, "velocity": 0, "duration": 475}, {"note": 62, "velocity": 100, "duration": 151}, {"note": 0, "velocity": 0, "duration": 89}, {"note": 65, "velocity": 112, "duration": 205}, {"note": 67, "velocity": 112, "duration": 112}, {"note": 0, "velocity": 0, "duration": 128}, {"note": 67, "velocity": 107, "duration": 122}, {"note": 0, "velocity": 0, "duration": 118}, {"note": 67, "velocity": 117, "duration": 128}, {"note": 0, "velocity": 0, "duration": 112}, {"note": 65, "velocity": 112, "duration": 135}, {"note": 0, "velocity": 0, "duration": 105}, {"note": 67, "velocity": 127, "duration": 209}, {"note": 0, "velocity": 0, "duration": 511}, {"note": 70, "velocity": 127, "duration": 168}, {"note": 0, "velocity": 0, "duration": 72}, {"note": 72, "velocity": 117, "duration": 136}, {"note": 0, "velocity": 0, "duration": 104}, {"note": 72, "velocity": 117, "duration": 129}, {"note": 0, "velocity": 0, "duration": 111}, {"note": 72, "velocity": 127, "duration": 127}, {"note": 0, "velocity": 0, "duration": 113}, {"note": 70, "velocity": 122, "duration": 127}, {"note": 0, "velocity": 0, "duration": 113}, {"note": 72, "velocity": 127, "duration": 227}, {"note": 0, "velocity": 0, "duration": 733}, {"note": 70, "velocity": 127, "duration": 150}, {"note": 0, "velocity": 0, "duration": 90}, {"note": 69, "velocity": 127, "duration": 157}, {"note": 0, "velocity": 0, "duration": 83}, {"note": 67, "velocity": 100, "duration": 158}, {"note": 0, "velocity": 0, "duration": 82}, {"note": 70, "velocity": 127, "duration": 121}, {"note": 0, "velocity": 0, "duration": 119}, {"note": 69, "velocity": 127, "duration": 179}, {"note": 0, "velocity": 0, "duration": 301}, {"note": 65, "velocity": 112, "duration": 391}, {"note": 0, "velocity": 0, "duration": 89}, {"note": 67, "velocity": 127, "duration": 986}, {"note": 0, "velocity": 0, "duration": 454}, {"note": 62, "velocity": 102, "duration": 132}, {"note": 0, "velocity": 0, "duration": 108}, {"note": 65, "velocity": 107, "duration": 201}, {"note": 67, "velocity": 112, "duration": 124}, {"note": 0, "velocity": 0, "duration": 116}, {"note": 67, "velocity": 112, "duration": 115}, {"note": 0, "velocity": 0, "duration": 125}, {"note": 67, "velocity": 117, "duration": 117}, {"note": 0, "velocity": 0, "duration": 123}, {"note": 65, "velocity": 112, "duration": 144}, {"note": 0, "velocity": 0, "duration": 96}, {"note": 67, "velocity": 122, "duration": 320}, {"note": 0, "velocity": 0, "duration": 400}, {"note": 62, "velocity": 99, "duration": 85}, {"note": 0, "velocity": 0, "duration": 155}, {"note": 67, "velocity": 117, "duration": 240}, {"note": 65, "velocity": 90, "duration": 53}, {"note": 0, "velocity": 0, "duration": 187}, {"note": 65, "velocity": 117, "duration": 244}, {"note": 62, "velocity": 100, "duration": 83}, {"note": 0, "velocity": 0, "duration": 157}, {"note": 65, "velocity": 102, "duration": 378}, {"note": 0, "velocity": 0, "duration": 102}, {"note": 62, "velocity": 99, "duration": 176}, {"note": 0, "velocity": 0, "duration": 64}, {"note": 65, "velocity": 100, "duration": 198}, {"note": 67, "velocity": 107, "duration": 219}, {"note": 65, "velocity": 112, "duration": 153}, {"note": 0, "velocity": 0, "duration": 87}, {"note": 67, "velocity": 99, "duration": 214}, {"note": 70, "velocity": 122, "duration": 173}, {"note": 0, "velocity": 0, "duration": 67}, {"note": 69, "velocity": 117, "duration": 329}, {"note": 0, "velocity": 0, "duration": 151}, {"note": 65, "velocity": 112, "duration": 323}, {"note": 0, "velocity": 0, "duration": 157}, {"note": 62, "velocity": 107, "duration": 965}, {"note": 0, "velocity": 0, "duration": 475}, {"note": 62, "velocity": 100, "duration": 151}, {"note": 0, "velocity": 0, "duration": 89}, {"note": 65, "velocity": 112, "duration": 205}, {"note": 67, "velocity": 112, "duration": 112}, {"note": 0, "velocity": 0, "duration": 128}, {"note": 67, "velocity": 107, "duration": 122}, {"note": 0, "velocity": 0, "duration": 118}, {"note": 67, "velocity": 117, "duration": 128}, {"note": 0, "velocity": 0, "duration": 112}, {"note": 65, "velocity": 112, "duration": 135}, {"note": 0, "velocity": 0, "duration": 105}, {"note": 67, "velocity": 127, "duration": 209}, {"note": 0, "velocity": 0, "duration": 511}, {"note": 70, "velocity": 127, "duration": 168}, {"note": 0, "velocity": 0, "duration": 72}, {"note": 72, "velocity": 117, "duration": 136}, {"note": 0, "velocity": 0, "duration": 104}, {"note": 72, "velocity": 117, "duration": 129}, {"note": 0, "velocity": 0, "duration": 111}, {"note": 72, "velocity": 127, "duration": 127}, {"note": 0, "velocity": 0, "duration": 113}, {"note": 70, "velocity": 122, "duration": 127}, {"note": 0, "velocity": 0, "duration": 113}, {"note": 72, "velocity": 127, "duration": 227}, {"note": 0, "velocity": 0, "duration": 733}, {"note": 70, "velocity": 127, "duration": 150}, {"note": 0, "velocity": 0, "duration": 90}, {"note": 69, "velocity": 127, "duration": 157}, {"note": 0, "velocity": 0, "duration": 83}, {"note": 67, "velocity": 100, "duration": 158}, {"note": 0, "velocity": 0, "duration": 82}, {"note": 70, "velocity": 127, "duration": 121}, {"note": 0, "velocity": 0, "duration": 119}, {"note": 69, "velocity": 127, "duration": 179}, {"note": 0, "velocity": 0, "duration": 301}, {"note": 65, "velocity": 112, "duration": 391}, {"note": 0, "velocity": 0, "duration": 89}, {"note": 67, "velocity": 127, "duration": 986}, {"note": 0, "velocity": 0, "duration": 934}, {"note": 70, "velocity": 127, "duration": 235}, {"note": 0, "velocity": 0, "duration": 125}, {"note": 69, "velocity": 127, "duration": 239}, {"note": 0, "velocity": 0, "duration": 121}, {"note": 67, "velocity": 102, "duration": 161}, {"note": 0, "velocity": 0, "duration": 79}, {"note": 70, "velocity": 127, "duration": 238}, {"note": 0, "velocity": 0, "duration": 122}, {"note": 69, "velocity": 127, "duration": 1605}, {"note": 0, "velocity": 0, "duration": 195}, {"note": 65, "velocity": 102, "duration": 401}, {"note": 0, "velocity": 0, "duration": 319}, {"note": 67, "velocity": 127, "duration": 3112}]]