[[{"note": 60, "velocity": 127, "duration": 548}, {"note": 0, "velocity": 0, "duration": 172}, {"note": 57, "velocity": 122, "duration": 231}, {"note": 55, "velocity": 93, "duration": 218}, {"note": 52, "velocity": 81, "duration": 194}, {"note": 55, "velocity": 85, "duration": 376}, {"note": 57, "velocity": 93, "duration": 218}, {"note": 60, "velocity": 102, "duration": 832}, {"note": 0, "velocity": 0, "duration": 1088}, {"note": 60, "velocity": 95, "duration": 139}, {"note": 0, "velocity": 0, "duration": 101}, {"note": 60, "velocity": 93, "duration": 133}, {"note": 0, "velocity": 0, "duration": 107}, {"note": 60, "velocity": 89, "duration": 190}, {"note": 57, "velocity": 92, "duration": 195}, {"note": 64, "velocity": 100, "duration": 180}, {"note": 67, "velocity": 90, "duration": 163}, {"note": 0, "velocity": 0, "duration": 77}, {"note": 67, "velocity": 96, "duration": 140}, {"note": 0, "velocity": 0, "duration": 100}, {"note": 60, "velocity": 88, "duration": 219}, {"note": 62, "velocity": 99, "duration": 1179}, {"note": 0, "velocity": 0, "duration": 741}, {"note": 64, "velocity": 100, "duration": 184}, {"note": 64, "velocity": 100, "duration": 226}, {"note": 62, "velocity": 92, "duration": 207}, {"note": 64, "velocity": 107, "duration": 239}, {"note": 67, "velocity": 97, "duration": 684}, {"note": 0, "velocity": 0, "duration": 276}, {"note": 64, "velocity": 100, "duration": 210}, {"note": 67, "velocity": 93, "duration": 272}, {"note": 62, "velocity": 100, "duration": 245}, {"note": 60, "velocity": 90, "duration": 236}, {"note": 57, "velocity": 92, "duration": 675}, {"note": 0, "velocity": 0, "duration": 285}, {"note": 55, "velocity": 93, "duration": 238}, {"note": 52, "velocity": 69, "duration": 263}, {"note": 55, "velocity": 95, "duration": 199}, {"note": 57, "velocity": 99, "duration": 239}, {"note": 64, "velocity": 96, "duration": 226}, {"note": 62, "velocity": 100, "duration": 165}, {"note": 0, "velocity": 0, "duration": 75}, {"note": 62, "velocity": 117, "duration": 242}, {"note": 60, "velocity": 102, "duration": 206}, {"note": 62, "velocity": 99, "duration": 528}, {"note": 0, "velocity": 0, "duration": 1392}, {"note": 60, "velocity": 127, "duration": 548}, {"note": 0, "velocity": 0, "duration": 172}, {"note": 57, "velocity": 122, "duration": 231}, {"note": 55, "velocity": 93, "duration": 218}, {"note": 52, "velocity": 81, "duration": 194}, {"note": 55, "velocity": 85, "duration": 376}, {"note": 57, "velocity": 93, "duration": 218}, {"note": 60, "velocity": 102, "duration": 832}, {"note": 0, "velocity": 0, "duration": 1088}, {"note": 60, "velocity": 95, "duration": 139}, {"note": 0, "velocity": 0, "duration": 101}, {"note": 60, "velocity": 93, "duration": 133}, {"note": 0, "velocity": 0, "duration": 107}, {"note": 60, "velocity": 89, "duration": 190}, {"note": 57, "velocity": 92, "duration": 195}, {"note": 64, "velocity": 100, "duration": 180}, {"note": 67, "velocity": 90, "duration": 163}, {"note": 0, "velocity": 0, "duration": 77}, {"note": 67, "velocity": 96, "duration": 140}, {"note": 0, "velocity": 0, "duration": 100}, {"note": 60, "velocity": 88, "duration": 219}, {"note": 62, "velocity": 99, "duration": 1179}, {"note": 0, "velocity": 0, "duration": 741}, {"note": 64, "velocity": 100, "duration": 184}, {"note": 64, "velocity": 100, "duration": 226}, {"note": 62, "velocity": 92, "duration": 207}, {"note": 64, "velocity": 107, "duration": 239}, {"note": 67, "velocity": 97, "duration": 684}, {"note": 0, "velocity": 0, "duration": 276}, {"note": 64, "velocity": 100, "duration": 210}, {"note": 67, "velocity": 93, "duration": 272}, {"note": 62, "velocity": 100, "duration": 245}, {"note": 60, "velocity": 90, "duration": 236}, {"note": 57, "velocity": 92, "duration": 675}, {"note": 0, "velocity": 0, "duration": 285}, {"note": 55, "velocity": 93, "duration": 238}, {"note": 52, "velocity": 69, "duration": 263}, {"note": 55, "velocity": 95, "duration": 199}, {"note": 57, "velocity": 99, "duration": 239}, {"note": 64, "velocity": 96, "duration": 226}, {"note": 64, "velocity": 99, "duration": 134}, {"note": 0, "velocity": 0, "duration": 106}, {"note": 55, "velocity": 96, "duration": 211}, {"note": 57, "velocity": 86, "duration": 240}, {"note": 60, "velocity": 95, "duration": 575}, {"note": 0, "velocity": 0, "duration": 1345}, {"note": 69, "velocity": 112, "duration": 188}, {"note": 72, "velocity": 112, "duration": 151}, {"note": 0, "velocity": 0, "duration": 89}, {"note": 72, "velocity": 107, "duration": 137}, {"note": 0, "velocity": 0, "duration": 103}, {"note": 69, "velocity": 107, "duration": 52}, {"note": 0, "velocity": 0, "duration": 68}, {"note": 69, "velocity": 96, "duration": 68}, {"note": 72, "velocity": 102, "duration": 680}, {"note": 72, "velocity": 112, "duration": 127}, {"note": 0, "velocity": 0, "duration": 113}, {"note": 69, "velocity": 107, "duration": 244}, {"note": 67, "velocity": 100, "duration": 72}, {"note": 0, "velocity": 0, "duration": 168}, {"note": 67, "velocity": 122, "duration": 175}, {"note": 0, "velocity": 0, "duration": 65}, {"note": 64, "velocity": 99, "duration": 210}, {"note": 67, "velocity": 99, "duration": 485}, {"note": 0, "velocity": 0, "duration": 475}, {"note": 69, "velocity": 122, "duration": 145}, {"note": 0, "velocity": 0, "duration": 95}, {"note": 69, "velocity": 107, "duration": 110}, {"note": 72, "velocity": 102, "duration": 50}, {"note": 0, "velocity": 0, "duration": 70}, {"note": 72, "velocity": 127, "duration": 122}, {"note": 0, "velocity": 0, "duration": 118}, {"note": 69, "velocity": 127, "duration": 97}, {"note": 0, "velocity": 0, "duration": 143}, {"note": 69, "velocity": 127, "duration": 217}, {"note": 67, "velocity": 102, "duration": 146}, {"note": 0, "velocity": 0, "duration": 94}, {"note": 67, "velocity": 122, "duration": 186}, {"note": 64, "velocity": 117, "duration": 100}, {"note": 62, "velocity": 88, "duration": 82}, {"note": 64, "velocity": 100, "duration": 912}, {"note": 0, "velocity": 0, "duration": 1008}, {"note": 64, "velocity": 122, "duration": 188}, {"note": 62, "velocity": 107, "duration": 431}, {"note": 64, "velocity": 97, "duration": 219}, {"note": 67, "velocity": 92, "duration": 147}, {"note": 0, "velocity": 0, "duration": 93}, {"note": 67, "velocity": 93, "duration": 163}, {"note": 0, "velocity": 0, "duration": 77}, {"note": 67, "velocity": 112, "duration": 200}, {"note": 67, "velocity": 117, "duration": 109}, {"note": 69, "velocity": 79, "duration": 110}, {"note": 64, "velocity": 99, "duration": 183}, {"note": 62, "velocity": 99, "duration": 143}, {"note": 64, "velocity": 92, "duration": 150}, {"note": 62, "velocity": 97, "duration": 190}, {"note": 55, "velocity": 96, "duration": 228}, {"note": 55, "velocity": 86, "duration": 144}, {"note": 0, "velocity": 0, "duration": 96}, {"note": 57, "velocity": 100, "duration": 492}, {"note": 0, "velocity": 0, "duration": 228}, {"note": 62, "velocity": 112, "duration": 165}, {"note": 0, "velocity": 0, "duration": 75}, {"note": 62, "velocity": 102, "duration": 154}, {"note": 0, "velocity": 0, "duration": 86}, {"note": 62, "velocity": 107, "duration": 155}, {"note": 0, "velocity": 0, "duration": 85}, {"note": 64, "velocity": 107, "duration": 173}, {"note": 0, "velocity": 0, "duration": 67}, {"note": 67, "velocity": 112, "duration": 164}, {"note": 0, "velocity": 0, "duration": 76}, {"note": 64, "velocity": 117, "duration": 259}, {"note": 0, "velocity": 0, "duration": 341}, {"note": 64, "velocity": 99, "duration": 101}, {"note": 55, "velocity": 97, "duration": 214}, {"note": 57, "velocity": 95, "duration": 203}, {"note": 62, "velocity": 107, "duration": 217}, {"note": 64, "velocity": 107, "duration": 232}, {"note": 60, "velocity": 112, "duration": 394}, {"note": 0, "velocity": 0, "duration": 566}, {"note": 69, "velocity": 112, "duration": 188}, {"note": 72, "velocity": 112, "duration": 151}, {"note": 0, "velocity": 0, "duration": 89}, {"note": 72, "velocity": 107, "duration": 137}, {"note": 0, "velocity": 0, "duration": 103}, {"note": 69, "velocity": 107, "duration": 52}, {"note": 0, "velocity": 0, "duration": 68}, {"note": 69, "velocity": 96, "duration": 68}, {"note": 72, "velocity": 102, "duration": 680}, {"note": 72, "velocity": 112, "duration": 127}, {"note": 0, "velocity": 0, "duration": 113}, {"note": 69, "velocity": 107, "duration": 244}, {"note": 67, "velocity": 100, "duration": 72}, {"note": 0, "velocity": 0, "duration": 168}, {"note": 67, "velocity": 122, "duration": 175}, {"note": 0, "velocity": 0, "duration": 65}, {"note": 64, "velocity": 99, "duration": 210}, {"note": 67, "velocity": 99, "duration": 485}, {"note": 0, "velocity": 0, "duration": 475}, {"note": 69, "velocity": 122, "duration": 145}, {"note": 0, "velocity": 0, "duration": 95}, {"note": 69, "velocity": 107, "duration": 110}, {"note": 72, "velocity": 102, "duration": 50}, {"note": 0, "velocity": 0, "duration": 70}, {"note": 72, "velocity": 127, "duration": 122}, {"note": 0, "velocity": 0, "duration": 118}, {"note": 69, "velocity": 127, "duration": 97}, {"note": 0, "velocity": 0, "duration": 143}, {"note": 69, "velocity": 127, "duration": 217}, {"note": 67, "velocity": 102, "duration": 146}, {"note": 0, "velocity": 0, "duration": 94}, {"note": 67, "velocity": 122, "duration": 186}, {"note": 64, "velocity": 117, "duration": 100}, {"note": 62, "velocity": 88, "duration": 82}, {"note": 64, "velocity": 100, "duration": 912}, {"note": 0, "velocity": 0, "duration": 1008}, {"note": 64, "velocity": 122, "duration": 188}, {"note": 62, "velocity": 107, "duration": 431}, {"note": 64, "velocity": 97, "duration": 219}, {"note": 67, "velocity": 92, "duration": 147}, {"note": 0, "velocity": 0, "duration": 93}, {"note": 67, "velocity": 93, "duration": 163}, {"note": 0, "velocity": 0, "duration": 77}, {"note": 67, "velocity": 112, "duration": 200}, {"note": 67, "velocity": 117, "duration": 109}, {"note": 69, "velocity": 79, "duration": 110}, {"note": 64, "velocity": 99, "duration": 183}, {"note": 62, "velocity": 99, "duration": 143}, {"note": 64, "velocity": 92, "duration": 150}, {"note": 62, "velocity": 97, "duration": 190}, {"note": 55, "velocity": 96, "duration": 228}, {"note": 55, "velocity": 86, "duration": 144}, {"note": 0, "velocity": 0, "duration": 96}, {"note": 57, "velocity": 100, "duration": 492}, {"note": 0, "velocity": 0, "duration": 228}, {"note": 62, "velocity": 112, "duration": 165}, {"note": 0, "velocity": 0, "duration": 75}, {"note": 62, "velocity": 102, "duration": 154}, {"note": 0, "velocity": 0, "duration": 86}, {"note": 62, "velocity": 107, "duration": 155}, {"note": 0, "velocity": 0, "duration": 85}, {"note": 64, "velocity": 107, "duration": 173}, {"note": 0, "velocity": 0, "duration": 67}, {"note": 67, "velocity": 112, "duration": 164}, {"note": 0, "velocity": 0, "duration": 76}, {"note": 64, "velocity": 117, "duration": 259}, {"note": 0, "velocity": 0, "duration": 221}, {"note": 62, "velocity": 117, "duration": 103}, {"note": 64, "velocity": 99, "duration": 101}, {"note": 55, "velocity": 97, "duration": 214}, {"note": 57, "velocity": 95, "duration": 203}, {"note": 62, "velocity": 107, "duration": 217}, {"note": 64, "velocity": 107, "duration": 232}, {"note": 60, "velocity": 112, "duration": 394}, {"note": 0, "velocity": 0, "duration": 15926}, {"note": 60, "velocity": 127, "duration": 548}, {"note": 0, "velocity": 0, "duration": 172}, {"note": 57, "velocity": 122, "duration": 231}, {"note": 55, "velocity": 93, "duration": 218}, {"note": 52, "velocity": 81, "duration": 194}, {"note": 55, "velocity": 85, "duration": 376}, {"note": 57, "velocity": 93, "duration": 218}, {"note": 60, "velocity": 102, "duration": 832}, {"note": 0, "velocity": 0, "duration": 1088}, {"note": 60, "velocity": 95, "duration": 139}, {"note": 0, "velocity": 0, "duration": 101}, {"note": 60, "velocity": 93, "duration": 133}, {"note": 0, "velocity": 0, "duration": 107}, {"note": 60, "velocity": 89, "duration": 190}, {"note": 57, "velocity": 92, "duration": 195}, {"note": 64, "velocity": 100, "duration": 180}, {"note": 67, "velocity": 90, "duration": 163}, {"note": 0, "velocity": 0, "duration": 77}, {"note": 67, "velocity": 96, "duration": 140}, {"note": 0, "velocity": 0, "duration": 100}, {"note": 60, "velocity": 88, "duration": 219}, {"note": 62, "velocity": 99, "duration": 1179}, {"note": 0, "velocity": 0, "duration": 741}, {"note": 64, "velocity": 100, "duration": 184}, {"note": 64, "velocity": 100, "duration": 226}, {"note": 62, "velocity": 92, "duration": 207}, {"note": 64, "velocity": 107, "duration": 239}, {"note": 67, "velocity": 97, "duration": 684}, {"note": 0, "velocity": 0, "duration": 276}, {"note": 64, "velocity": 100, "duration": 210}, {"note": 67, "velocity": 93, "duration": 272}, {"note": 62, "velocity": 100, "duration": 245}, {"note": 60, "velocity": 90, "duration": 236}, {"note": 57, "velocity": 92, "duration": 675}, {"note": 0, "velocity": 0, "duration": 285}, {"note": 55, "velocity": 93, "duration": 238}, {"note": 52, "velocity": 69, "duration": 263}, {"note": 55, "velocity": 95, "duration": 199}, {"note": 57, "velocity": 99, "duration": 239}, {"note": 64, "velocity": 96, "duration": 226}, {"note": 64, "velocity": 99, "duration": 134}, {"note": 0, "velocity": 0, "duration": 106}, {"note": 55, "velocity": 96, "duration": 211}, {"note": 57, "velocity": 86, "duration": 240}, {"note": 60, "velocity": 95, "duration": 575}, {"note": 0, "velocity": 0, "duration": 1345}, {"note": 69, "velocity": 112, "duration": 188}, {"note": 72, "velocity": 112, "duration": 151}, {"note": 0, "velocity": 0, "duration": 89}, {"note": 72, "velocity": 107, "duration": 137}, {"note": 0, "velocity": 0, "duration": 103}, {"note": 69, "velocity": 107, "duration": 52}, {"note": 0, "velocity": 0, "duration": 68}, {"note": 69, "velocity": 96, "duration": 68}, {"note": 72, "velocity": 102, "duration": 680}, {"note": 72, "velocity": 112, "duration": 127}, {"note": 0, "velocity": 0, "duration": 113}, {"note": 69, "velocity": 107, "duration": 244}, {"note": 67, "velocity": 100, "duration": 72}, {"note": 0, "velocity": 0, "duration": 168}, {"note": 67, "velocity": 122, "duration": 175}, {"note": 0, "velocity": 0, "duration": 65}, {"note": 64, "velocity": 99, "duration": 210}, {"note": 67, "velocity": 99, "duration": 485}, {"note": 0, "velocity": 0, "duration": 475}, {"note": 69, "velocity": 122, "duration": 145}, {"note": 0, "velocity": 0, "duration": 95}, {"note": 69, "velocity": 107, "duration": 110}, {"note": 72, "velocity": 102, "duration": 50}, {"note": 0, "velocity": 0, "duration": 70}, {"note": 72, "velocity": 127, "duration": 122}, {"note": 0, "velocity": 0, "duration": 118}, {"note": 69, "velocity": 127, "duration": 97}, {"note": 0, "velocity": 0, "duration": 143}, {"note": 69, "velocity": 127, "duration": 217}, {"note": 67, "velocity": 102, "duration": 146}, {"note": 0, "velocity": 0, "duration": 94}, {"note": 67, "velocity": 122, "duration": 186}, {"note": 64, "velocity": 117, "duration": 100}, {"note": 62, "velocity": 88, "duration": 82}, {"note": 64, "velocity": 100, "duration": 912}, {"note": 0, "velocity": 0, "duration": 1008}, {"note": 64, "velocity": 122, "duration": 188}, {"note": 62, "velocity": 107, "duration": 431}, {"note": 64, "velocity": 97, "duration": 219}, {"note": 67, "velocity": 92, "duration": 147}, {"note": 0, "velocity": 0, "duration": 93}, {"note": 67, "velocity": 93, "duration": 163}, {"note": 0, "velocity": 0, "duration": 77}, {"note": 67, "velocity": 112, "duration": 200}, {"note": 67, "velocity": 117, "duration": 109}, {"note": 69, "velocity": 79, "duration": 110}, {"note": 64, "velocity": 99, "duration": 183}, {"note": 62, "velocity": 99, "duration": 143}, {"note": 64, "velocity": 92, "duration": 150}, {"note": 62, "velocity": 97, "duration": 190}, {"note": 55, "velocity": 96, "duration": 228}, {"note": 55, "velocity": 86, "duration": 144}, {"note": 0, "velocity": 0, "duration": 96}, {"note": 57, "velocity": 100, "duration": 492}, {"note": 0, "velocity": 0, "duration": 228}, {"note": 62, "velocity": 112, "duration": 165}, {"note": 0, "velocity": 0, "duration": 75}, {"note": 62, "velocity": 102, "duration": 154}, {"note": 0, "velocity": 0, "duration": 86}, {"note": 62, "velocity": 107, "duration": 155}, {"note": 0, "velocity": 0, "duration": 85}, {"note": 64, "velocity": 107, "duration": 173}, {"note": 0, "velocity": 0, "duration": 67}, {"note": 67, "velocity": 112, "duration": 164}, {"note": 0, "velocity": 0, "duration": 76}, {"note": 64, "velocity": 117, "duration": 259}, {"note": 0, "velocity": 0, "duration": 341}, {"note": 64, "velocity": 99, "duration": 101}, {"note": 55, "velocity": 97, "duration": 214}, {"note": 57, "velocity": 95, "duration": 203}, {"note": 62, "velocity": 107, "duration": 217}, {"note": 64, "velocity": 107, "duration": 232}, {"note": 60, "velocity": 112, "duration": 394}, {"note": 0, "velocity": 0, "duration": 566}, {"note": 69, "velocity": 112, "duration": 188}, {"note": 72, "velocity": 112, "duration": 151}, {"note": 0, "velocity": 0, "duration": 89}, {"note": 72, "velocity": 107, "duration": 137}, {"note": 0, "velocity": 0, "duration": 103}, {"note": 69, "velocity": 107, "duration": 52}, {"note": 0, "velocity": 0, "duration": 68}, {"note": 69, "velocity": 96, "duration": 68}, {"note": 72, "velocity": 102, "duration": 680}, {"note": 72, "velocity": 112, "duration": 127}, {"note": 0, "velocity": 0, "duration": 113}, {"note": 69, "velocity": 107, "duration": 244}, {"note": 67, "velocity": 100, "duration": 72}, {"note": 0, "velocity": 0, "duration": 168}, {"note": 67, "velocity": 122, "duration": 175}, {"note": 0, "velocity": 0, "duration": 65}, {"note": 64, "velocity": 99, "duration": 210}, {"note": 67, "velocity": 99, "duration": 485}, {"note": 0, "velocity": 0, "duration": 475}, {"note": 69, "velocity": 122, "duration": 145}, {"note": 0, "velocity": 0, "duration": 95}, {"note": 69, "velocity": 107, "duration": 110}, {"note": 72, "velocity": 102, "duration": 50}, {"note": 0, "velocity": 0, "duration": 70}, {"note": 72, "velocity": 127, "duration": 122}, {"note": 0, "velocity": 0, "duration": 118}, {"note": 69, "velocity": 127, "duration": 97}, {"note": 0, "velocity": 0, "duration": 143}, {"note": 69, "velocity": 127, "duration": 217}, {"note": 67, "velocity": 102, "duration": 146}, {"note": 0, "velocity": 0, "duration": 94}, {"note": 67, "velocity": 122, "duration": 186}, {"note": 64, "velocity": 117, "duration": 100}, {"note": 62, "velocity": 88, "duration": 82}, {"note": 64, "velocity": 100, "duration": 912}, {"note": 0, "velocity": 0, "duration": 1008}, {"note": 64, "velocity": 122, "duration": 188}, {"note": 62, "velocity": 107, "duration": 431}, {"note": 64, "velocity": 97, "duration": 219}, {"note": 67, "velocity": 92, "duration": 147}, {"note": 0, "velocity": 0, "duration": 93}, {"note": 67, "velocity": 93, "duration": 163}, {"note": 0, "velocity": 0, "duration": 77}, {"note": 67, "velocity": 112, "duration": 200}, {"note": 67, "velocity": 117, "duration": 109}, {"note": 69, "velocity": 79, "duration": 110}, {"note": 64, "velocity": 99, "duration": 183}, {"note": 62, "velocity": 99, "duration": 143}, {"note": 64, "velocity": 92, "duration": 150}, {"note": 62, "velocity": 97, "duration": 190}, {"note": 55, "velocity": 96, "duration": 228}, {"note": 55, "velocity": 86, "duration": 144}, {"note": 0, "velocity": 0, "duration": 96}, {"note": 57, "velocity": 100, "duration": 492}, {"note": 0, "velocity": 0, "duration": 228}, {"note": 62, "velocity": 112, "duration": 165}, {"note": 0, "velocity": 0, "duration": 75}, {"note": 62, "velocity": 102, "duration": 154}, {"note": 0, "velocity": 0, "duration": 86}, {"note": 62, "velocity": 107, "duration": 155}, {"note": 0, "velocity": 0, "duration": 85}, {"note": 64, "velocity": 107, "duration": 173}, {"note": 0, "velocity": 0, "duration": 67}, {"note": 67, "velocity": 112, "duration": 164}, {"note": 0, "velocity": 0, "duration": 76}, {"note": 64, "velocity": 117, "duration": 259}, {"note": 0, "velocity": 0, "duration": 221}, {"note": 62, "velocity": 117, "duration": 103}, {"note": 64, "velocity": 99, "duration": 101}, {"note": 55, "velocity": 97, "duration": 214}, {"note": 57, "velocity": 95, "duration": 203}, {"note": 62, "velocity": 107, "duration": 217}, {"note": 64, "velocity": 107, "duration": 232}, {"note": 60, "velocity": 112, "duration": 394}, {"note": 0, "velocity": 0, "duration": 566}, {"note": 69, "velocity": 112, "duration": 188}, {"note": 72, "velocity": 112, "duration": 151}, {"note": 0, "velocity": 0, "duration": 89}, {"note": 72, "velocity": 107, "duration": 137}, {"note": 0, "velocity": 0, "duration": 103}, {"note": 69, "velocity": 107, "duration": 52}, {"note": 0, "velocity": 0, "duration": 68}, {"note": 69, "velocity": 96, "duration": 68}, {"note": 72, "velocity": 102, "duration": 680}, {"note": 72, "velocity": 112, "duration": 127}, {"note": 0, "velocity": 0, "duration": 113}, {"note": 69, "velocity": 107, "duration": 244}, {"note": 67, "velocity": 100, "duration": 72}, {"note": 0, "velocity": 0, "duration": 168}, {"note": 67, "velocity": 122, "duration": 175}, {"note": 0, "velocity": 0, "duration": 65}, {"note": 64, "velocity": 99, "duration": 210}, {"note": 67, "velocity": 99, "duration": 485}, {"note": 0, "velocity": 0, "duration": 475}, {"note": 69, "velocity": 122, "duration": 145}, {"note": 0, "velocity": 0, "duration": 95}, {"note": 69, "velocity": 107, "duration": 110}, {"note": 72, "velocity": 102, "duration": 50}, {"note": 0, "velocity": 0, "duration": 70}, {"note": 72, "velocity": 127, "duration": 122}, {"note": 0, "velocity": 0, "duration": 118}, {"note": 69, "velocity": 127, "duration": 97}, {"note": 0, "velocity": 0, "duration": 143}, {"note": 69, "velocity": 127, "duration": 217}, {"note": 67, "velocity": 102, "duration": 146}, {"note": 0, "velocity": 0, "duration": 94}, {"note": 67, "velocity": 122, "duration": 186}, {"note": 64, "velocity": 117, "duration": 100}, {"note": 62, "velocity": 88, "duration": 82}, {"note": 64, "velocity": 100, "duration": 912}, {"note": 0, "velocity": 0, "duration": 1008}, {"note": 64, "velocity": 122, "duration": 188}, {"note": 62, "velocity": 107, "duration": 431}, {"note": 64, "velocity": 97, "duration": 219}, {"note": 67, "velocity": 92, "duration": 147}, {"note": 0, "velocity": 0, "duration": 93}, {"note": 67, "velocity": 93, "duration": 163}, {"note": 0, "velocity": 0, "duration": 77}, {"note": 67, "velocity": 112, "duration": 200}, {"note": 67, "velocity": 117, "duration": 109}, {"note": 69, "velocity": 79, "duration": 110}, {"note": 64, "velocity": 99, "duration": 183}, {"note": 62, "velocity": 99, "duration": 143}, {"note": 64, "velocity": 92, "duration": 150}, {"note": 62, "velocity": 97, "duration": 190}, {"note": 55, "velocity": 96, "duration": 228}, {"note": 55, "velocity": 86, "duration": 144}, {"note": 0, "velocity": 0, "duration": 96}, {"note": 57, "velocity": 100, "duration": 492}, {"note": 0, "velocity": 0, "duration": 228}, {"note": 62, "velocity": 112, "duration": 165}, {"note": 0, "velocity": 0, "duration": 75}, {"note": 62, "velocity": 102, "duration": 154}, {"note": 0, "velocity": 0, "duration": 86}, {"note": 62, "velocity": 107, "duration": 155}, {"note": 0, "velocity": 0, "duration": 85}, {"note": 64, "velocity": 107, "duration": 173}, {"note": 0, "velocity": 0, "duration": 67}, {"note": 67, "velocity": 112, "duration": 164}, {"note": 0, "velocity": 0, "duration": 76}, {"note": 64, "velocity": 117, "duration": 259}, {"note": 0, "velocity": 0, "duration": 221}, {"note": 62, "velocity": 117, "duration": 103}, {"note": 64, "velocity": 99, "duration": 101}, {"note": 55, "velocity": 97, "duration": 214}, {"note": 57, "velocity": 95, "duration": 203}, {"note": 62, "velocity": 107, "duration": 217}, {"note": 64, "velocity": 107, "duration": 232}, {"note": 60, "velocity": 112, "duration": 394}, {"note": 0, "velocity": 0, "duration": 566}, {"note": 62, "velocity": 112, "duration": 165}, {"note": 0, "velocity": 0, "duration": 75}, {"note": 62, "velocity": 102, "duration": 154}, {"note": 0, "velocity": 0, "duration": 86}, {"note": 62, "velocity": 107, "duration": 155}, {"note": 0, "velocity": 0, "duration": 85}, {"note": 64, "velocity": 107, "duration": 173}, {"note": 0, "velocity": 0, "duration": 67}, {"note": 67, "velocity": 112, "duration": 164}, {"note": 0, "velocity": 0, "duration": 76}, {"note": 64, "velocity": 117, "duration": 259}, {"note": 0, "velocity": 0, "duration": 221}, {"note": 62, "velocity": 117, "duration": 103}, {"note": 64, "velocity": 99, "duration": 101}, {"note": 55, "velocity": 97, "duration": 214}, {"note": 57, "velocity": 95, "duration": 203}, {"note": 62, "velocity": 107, "duration": 217}, {"note": 64, "velocity": 107, "duration": 232}, {"note": 60, "velocity": 112, "duration": 394}]]