[[{"note": 65, "velocity": 100, "duration": 227}, {"note": 67, "velocity": 96, "duration": 307}, {"note": 65, "velocity": 89, "duration": 114}, {"note": 64, "velocity": 85, "duration": 110}, {"note": 65, "velocity": 72, "duration": 115}, {"note": 64, "velocity": 89, "duration": 102}, {"note": 60, "velocity": 88, "duration": 398}, {"note": 0, "velocity": 0, "duration": 442}, {"note": 62, "velocity": 112, "duration": 216}, {"note": 64, "velocity": 95, "duration": 303}, {"note": 62, "velocity": 97, "duration": 78}, {"note": 60, "velocity": 79, "duration": 72}, {"note": 62, "velocity": 82, "duration": 101}, {"note": 60, "velocity": 77, "duration": 55}, {"note": 0, "velocity": 0, "duration": 65}, {"note": 57, "velocity": 81, "duration": 343}, {"note": 0, "velocity": 0, "duration": 497}, {"note": 58, "velocity": 97, "duration": 240}, {"note": 60, "velocity": 88, "duration": 287}, {"note": 0, "velocity": 0, "duration": 73}, {"note": 57, "velocity": 93, "duration": 54}, {"note": 0, "velocity": 0, "duration": 66}, {"note": 57, "velocity": 92, "duration": 244}, {"note": 55, "velocity": 74, "duration": 43}, {"note": 0, "velocity": 0, "duration": 77}, {"note": 55, "velocity": 85, "duration": 163}, {"note": 0, "velocity": 0, "duration": 77}, {"note": 53, "velocity": 82, "duration": 249}, {"note": 0, "velocity": 0, "duration": 111}, {"note": 62, "velocity": 99, "duration": 168}, {"note": 0, "velocity": 0, "duration": 72}, {"note": 62, "velocity": 90, "duration": 54}, {"note": 0, "velocity": 0, "duration": 66}, {"note": 62, "velocity": 96, "duration": 158}, {"note": 0, "velocity": 0, "duration": 82}, {"note": 65, "velocity": 112, "duration": 259}, {"note": 0, "velocity": 0, "duration": 101}, {"note": 64, "velocity": 99, "duration": 705}, {"note": 0, "velocity": 0, "duration": 495}, {"note": 65, "velocity": 100, "duration": 227}, {"note": 67, "velocity": 96, "duration": 307}, {"note": 65, "velocity": 89, "duration": 114}, {"note": 64, "velocity": 85, "duration": 110}, {"note": 65, "velocity": 72, "duration": 115}, {"note": 64, "velocity": 89, "duration": 102}, {"note": 60, "velocity": 88, "duration": 398}, {"note": 0, "velocity": 0, "duration": 442}, {"note": 62, "velocity": 112, "duration": 216}, {"note": 64, "velocity": 95, "duration": 303}, {"note": 62, "velocity": 97, "duration": 78}, {"note": 60, "velocity": 79, "duration": 72}, {"note": 62, "velocity": 82, "duration": 101}, {"note": 60, "velocity": 77, "duration": 55}, {"note": 0, "velocity": 0, "duration": 65}, {"note": 57, "velocity": 81, "duration": 343}, {"note": 0, "velocity": 0, "duration": 497}, {"note": 58, "velocity": 97, "duration": 240}, {"note": 60, "velocity": 88, "duration": 287}, {"note": 58, "velocity": 99, "duration": 116}, {"note": 57, "velocity": 90, "duration": 109}, {"note": 69, "velocity": 112, "duration": 205}, {"note": 67, "velocity": 88, "duration": 43}, {"note": 0, "velocity": 0, "duration": 77}, {"note": 67, "velocity": 112, "duration": 172}, {"note": 0, "velocity": 0, "duration": 68}, {"note": 65, "velocity": 96, "duration": 225}, {"note": 62, "velocity": 99, "duration": 123}, {"note": 68, "velocity": 127, "duration": 207}, {"note": 67, "velocity": 86, "duration": 41}, {"note": 0, "velocity": 0, "duration": 79}, {"note": 67, "velocity": 117, "duration": 174}, {"note": 0, "velocity": 0, "duration": 186}, {"note": 65, "velocity": 112, "duration": 47}, {"note": 0, "velocity": 0, "duration": 73}, {"note": 64, "velocity": 102, "duration": 727}, {"note": 0, "velocity": 0, "duration": 593}, {"note": 65, "velocity": 95, "duration": 47}, {"note": 0, "velocity": 0, "duration": 73}, {"note": 65, "velocity": 92, "duration": 44}, {"note": 0, "velocity": 0, "duration": 76}, {"note": 65, "velocity": 100, "duration": 160}, {"note": 0, "velocity": 0, "duration": 80}, {"note": 65, "velocity": 96, "duration": 53}, {"note": 0, "velocity": 0, "duration": 67}, {"note": 67, "velocity": 112, "duration": 154}, {"note": 0, "velocity": 0, "duration": 86}, {"note": 67, "velocity": 127, "duration": 706}, {"note": 0, "velocity": 0, "duration": 374}, {"note": 64, "velocity": 100, "duration": 42}, {"note": 0, "velocity": 0, "duration": 78}, {"note": 64, "velocity": 90, "duration": 44}, {"note": 0, "velocity": 0, "duration": 76}, {"note": 64, "velocity": 99, "duration": 161}, {"note": 0, "velocity": 0, "duration": 319}, {"note": 64, "velocity": 102, "duration": 188}, {"note": 65, "velocity": 99, "duration": 54}, {"note": 0, "velocity": 0, "duration": 66}, {"note": 62, "velocity": 99, "duration": 356}, {"note": 62, "velocity": 99, "duration": 76}, {"note": 64, "velocity": 95, "duration": 58}, {"note": 0, "velocity": 0, "duration": 62}, {"note": 65, "velocity": 99, "duration": 69}, {"note": 64, "velocity": 96, "duration": 51}, {"note": 0, "velocity": 0, "duration": 69}, {"note": 62, "velocity": 93, "duration": 61}, {"note": 64, "velocity": 102, "duration": 50}, {"note": 0, "velocity": 0, "duration": 70}, {"note": 65, "velocity": 117, "duration": 134}, {"note": 0, "velocity": 0, "duration": 106}, {"note": 62, "velocity": 100, "duration": 58}, {"note": 0, "velocity": 0, "duration": 62}, {"note": 64, "velocity": 93, "duration": 62}, {"note": 65, "velocity": 102, "duration": 67}, {"note": 64, "velocity": 96, "duration": 37}, {"note": 0, "velocity": 0, "duration": 83}, {"note": 62, "velocity": 92, "duration": 51}, {"note": 0, "velocity": 0, "duration": 69}, {"note": 64, "velocity": 100, "duration": 41}, {"note": 0, "velocity": 0, "duration": 79}, {"note": 65, "velocity": 127, "duration": 140}, {"note": 0, "velocity": 0, "duration": 100}, {"note": 67, "velocity": 112, "duration": 46}, {"note": 0, "velocity": 0, "duration": 74}, {"note": 69, "velocity": 122, "duration": 1080}, {"note": 0, "velocity": 0, "duration": 480}, {"note": 69, "velocity": 112, "duration": 232}, {"note": 67, "velocity": 117, "duration": 157}, {"note": 0, "velocity": 0, "duration": 83}, {"note": 65, "velocity": 127, "duration": 153}, {"note": 65, "velocity": 102, "duration": 33}, {"note": 0, "velocity": 0, "duration": 87}, {"note": 65, "velocity": 107, "duration": 67}, {"note": 64, "velocity": 96, "duration": 66}, {"note": 65, "velocity": 112, "duration": 123}, {"note": 69, "velocity": 99, "duration": 246}, {"note": 64, "velocity": 107, "duration": 120}, {"note": 0, "velocity": 0, "duration": 120}, {"note": 65, "velocity": 107, "duration": 106}, {"note": 64, "velocity": 93, "duration": 103}, {"note": 62, "velocity": 92, "duration": 95}, {"note": 62, "velocity": 122, "duration": 113}, {"note": 60, "velocity": 102, "duration": 177}, {"note": 0, "velocity": 0, "duration": 183}, {"note": 62, "velocity": 112, "duration": 92}, {"note": 64, "velocity": 95, "duration": 79}, {"note": 65, "velocity": 85, "duration": 105}, {"note": 67, "velocity": 112, "duration": 88}, {"note": 64, "velocity": 107, "duration": 92}, {"note": 60, "velocity": 100, "duration": 141}, {"note": 0, "velocity": 0, "duration": 99}, {"note": 55, "velocity": 86, "duration": 114}, {"note": 57, "velocity": 92, "duration": 457}, {"note": 0, "velocity": 0, "duration": 263}, {"note": 55, "velocity": 93, "duration": 91}, {"note": 57, "velocity": 93, "duration": 130}, {"note": 58, "velocity": 99, "duration": 50}, {"note": 0, "velocity": 0, "duration": 70}, {"note": 58, "velocity": 107, "duration": 53}, {"note": 0, "velocity": 0, "duration": 67}, {"note": 58, "velocity": 107, "duration": 62}, {"note": 57, "velocity": 90, "duration": 63}, {"note": 58, "velocity": 117, "duration": 101}, {"note": 69, "velocity": 122, "duration": 159}, {"note": 0, "velocity": 0, "duration": 81}, {"note": 67, "velocity": 112, "duration": 187}, {"note": 65, "velocity": 112, "duration": 109}, {"note": 64, "velocity": 92, "duration": 52}, {"note": 0, "velocity": 0, "duration": 68}, {"note": 64, "velocity": 107, "duration": 109}, {"note": 62, "velocity": 96, "duration": 205}, {"note": 0, "velocity": 0, "duration": 275}, {"note": 70, "velocity": 122, "duration": 50}, {"note": 0, "velocity": 0, "duration": 70}, {"note": 70, "velocity": 122, "duration": 53}, {"note": 0, "velocity": 0, "duration": 67}, {"note": 70, "velocity": 127, "duration": 50}, {"note": 0, "velocity": 0, "duration": 70}, {"note": 70, "velocity": 107, "duration": 40}, {"note": 0, "velocity": 0, "duration": 80}, {"note": 70, "velocity": 127, "duration": 74}, {"note": 69, "velocity": 122, "duration": 99}, {"note": 0, "velocity": 0, "duration": 141}, {"note": 67, "velocity": 99, "duration": 78}, {"note": 69, "velocity": 122, "duration": 393}, {"note": 0, "velocity": 0, "duration": 87}, {"note": 69, "velocity": 112, "duration": 232}, {"note": 67, "velocity": 117, "duration": 157}, {"note": 0, "velocity": 0, "duration": 83}, {"note": 65, "velocity": 127, "duration": 153}, {"note": 65, "velocity": 102, "duration": 33}, {"note": 0, "velocity": 0, "duration": 87}, {"note": 65, "velocity": 107, "duration": 67}, {"note": 64, "velocity": 96, "duration": 66}, {"note": 65, "velocity": 112, "duration": 123}, {"note": 69, "velocity": 99, "duration": 246}, {"note": 64, "velocity": 107, "duration": 120}, {"note": 0, "velocity": 0, "duration": 120}, {"note": 65, "velocity": 107, "duration": 106}, {"note": 64, "velocity": 93, "duration": 103}, {"note": 62, "velocity": 92, "duration": 95}, {"note": 62, "velocity": 122, "duration": 113}, {"note": 60, "velocity": 102, "duration": 177}, {"note": 0, "velocity": 0, "duration": 183}, {"note": 62, "velocity": 112, "duration": 92}, {"note": 64, "velocity": 95, "duration": 79}, {"note": 65, "velocity": 85, "duration": 105}, {"note": 67, "velocity": 112, "duration": 88}, {"note": 64, "velocity": 107, "duration": 92}, {"note": 67, "velocity": 127, "duration": 136}, {"note": 0, "velocity": 0, "duration": 104}, {"note": 70, "velocity": 122, "duration": 95}, {"note": 69, "velocity": 112, "duration": 226}, {"note": 0, "velocity": 0, "duration": 494}, {"note": 67, "velocity": 112, "duration": 73}, {"note": 69, "velocity": 117, "duration": 54}, {"note": 0, "velocity": 0, "duration": 66}, {"note": 70, "velocity": 127, "duration": 115}, {"note": 69, "velocity": 117, "duration": 124}, {"note": 0, "velocity": 0, "duration": 116}, {"note": 67, "velocity": 107, "duration": 183}, {"note": 0, "velocity": 0, "duration": 177}, {"note": 65, "velocity": 117, "duration": 92}, {"note": 67, "velocity": 99, "duration": 60}, {"note": 69, "velocity": 122, "duration": 123}, {"note": 67, "velocity": 122, "duration": 148}, {"note": 0, "velocity": 0, "duration": 92}, {"note": 65, "velocity": 107, "duration": 301}, {"note": 0, "velocity": 0, "duration": 299}, {"note": 62, "velocity": 107, "duration": 105}, {"note": 64, "velocity": 99, "duration": 96}, {"note": 65, "velocity": 96, "duration": 101}, {"note": 69, "velocity": 112, "duration": 108}, {"note": 67, "velocity": 107, "duration": 156}, {"note": 65, "velocity": 122, "duration": 200}, {"note": 64, "velocity": 96, "duration": 63}, {"note": 64, "velocity": 122, "duration": 260}, {"note": 65, "velocity": 102, "duration": 131}, {"note": 62, "velocity": 100, "duration": 691}, {"note": 0, "velocity": 0, "duration": 6869}, {"note": 65, "velocity": 100, "duration": 227}, {"note": 67, "velocity": 96, "duration": 307}, {"note": 65, "velocity": 89, "duration": 114}, {"note": 64, "velocity": 85, "duration": 110}, {"note": 65, "velocity": 72, "duration": 115}, {"note": 64, "velocity": 89, "duration": 102}, {"note": 60, "velocity": 88, "duration": 398}, {"note": 0, "velocity": 0, "duration": 442}, {"note": 62, "velocity": 112, "duration": 216}, {"note": 64, "velocity": 95, "duration": 303}, {"note": 62, "velocity": 97, "duration": 78}, {"note": 60, "velocity": 79, "duration": 72}, {"note": 62, "velocity": 82, "duration": 101}, {"note": 60, "velocity": 77, "duration": 55}, {"note": 0, "velocity": 0, "duration": 65}, {"note": 57, "velocity": 81, "duration": 343}, {"note": 0, "velocity": 0, "duration": 497}, {"note": 58, "velocity": 97, "duration": 240}, {"note": 60, "velocity": 88, "duration": 287}, {"note": 58, "velocity": 99, "duration": 116}, {"note": 57, "velocity": 90, "duration": 109}, {"note": 69, "velocity": 112, "duration": 205}, {"note": 67, "velocity": 88, "duration": 43}, {"note": 0, "velocity": 0, "duration": 77}, {"note": 67, "velocity": 112, "duration": 172}, {"note": 0, "velocity": 0, "duration": 68}, {"note": 65, "velocity": 96, "duration": 225}, {"note": 62, "velocity": 99, "duration": 123}, {"note": 68, "velocity": 127, "duration": 207}, {"note": 67, "velocity": 86, "duration": 41}, {"note": 0, "velocity": 0, "duration": 79}, {"note": 67, "velocity": 117, "duration": 174}, {"note": 0, "velocity": 0, "duration": 186}, {"note": 65, "velocity": 112, "duration": 47}, {"note": 0, "velocity": 0, "duration": 73}, {"note": 64, "velocity": 102, "duration": 727}, {"note": 0, "velocity": 0, "duration": 593}, {"note": 65, "velocity": 95, "duration": 47}, {"note": 0, "velocity": 0, "duration": 73}, {"note": 65, "velocity": 92, "duration": 44}, {"note": 0, "velocity": 0, "duration": 76}, {"note": 65, "velocity": 100, "duration": 160}, {"note": 0, "velocity": 0, "duration": 80}, {"note": 65, "velocity": 96, "duration": 53}, {"note": 0, "velocity": 0, "duration": 67}, {"note": 67, "velocity": 112, "duration": 154}, {"note": 0, "velocity": 0, "duration": 86}, {"note": 67, "velocity": 127, "duration": 706}, {"note": 0, "velocity": 0, "duration": 374}, {"note": 64, "velocity": 100, "duration": 42}, {"note": 0, "velocity": 0, "duration": 78}, {"note": 64, "velocity": 90, "duration": 44}, {"note": 0, "velocity": 0, "duration": 76}, {"note": 64, "velocity": 99, "duration": 161}, {"note": 0, "velocity": 0, "duration": 319}, {"note": 64, "velocity": 102, "duration": 188}, {"note": 65, "velocity": 99, "duration": 54}, {"note": 0, "velocity": 0, "duration": 66}, {"note": 62, "velocity": 99, "duration": 356}, {"note": 62, "velocity": 99, "duration": 76}, {"note": 64, "velocity": 95, "duration": 58}, {"note": 0, "velocity": 0, "duration": 62}, {"note": 65, "velocity": 99, "duration": 69}, {"note": 64, "velocity": 96, "duration": 51}, {"note": 0, "velocity": 0, "duration": 69}, {"note": 62, "velocity": 93, "duration": 61}, {"note": 64, "velocity": 102, "duration": 50}, {"note": 0, "velocity": 0, "duration": 70}, {"note": 65, "velocity": 117, "duration": 134}, {"note": 0, "velocity": 0, "duration": 106}, {"note": 62, "velocity": 100, "duration": 58}, {"note": 0, "velocity": 0, "duration": 62}, {"note": 64, "velocity": 93, "duration": 62}, {"note": 65, "velocity": 102, "duration": 67}, {"note": 64, "velocity": 96, "duration": 37}, {"note": 0, "velocity": 0, "duration": 83}, {"note": 62, "velocity": 92, "duration": 51}, {"note": 0, "velocity": 0, "duration": 69}, {"note": 64, "velocity": 100, "duration": 41}, {"note": 0, "velocity": 0, "duration": 79}, {"note": 65, "velocity": 127, "duration": 140}, {"note": 0, "velocity": 0, "duration": 100}, {"note": 67, "velocity": 112, "duration": 46}, {"note": 0, "velocity": 0, "duration": 74}, {"note": 69, "velocity": 122, "duration": 1080}, {"note": 0, "velocity": 0, "duration": 480}, {"note": 69, "velocity": 112, "duration": 232}, {"note": 67, "velocity": 117, "duration": 157}, {"note": 0, "velocity": 0, "duration": 83}, {"note": 65, "velocity": 127, "duration": 153}, {"note": 65, "velocity": 102, "duration": 33}, {"note": 0, "velocity": 0, "duration": 87}, {"note": 65, "velocity": 107, "duration": 67}, {"note": 64, "velocity": 96, "duration": 66}, {"note": 65, "velocity": 112, "duration": 123}, {"note": 69, "velocity": 99, "duration": 246}, {"note": 64, "velocity": 107, "duration": 120}, {"note": 0, "velocity": 0, "duration": 120}, {"note": 65, "velocity": 107, "duration": 106}, {"note": 64, "velocity": 93, "duration": 103}, {"note": 62, "velocity": 92, "duration": 95}, {"note": 62, "velocity": 122, "duration": 113}, {"note": 60, "velocity": 102, "duration": 177}, {"note": 0, "velocity": 0, "duration": 183}, {"note": 62, "velocity": 112, "duration": 92}, {"note": 64, "velocity": 95, "duration": 79}, {"note": 65, "velocity": 85, "duration": 105}, {"note": 67, "velocity": 112, "duration": 88}, {"note": 64, "velocity": 107, "duration": 92}, {"note": 60, "velocity": 100, "duration": 141}, {"note": 0, "velocity": 0, "duration": 99}, {"note": 55, "velocity": 86, "duration": 114}, {"note": 57, "velocity": 92, "duration": 457}, {"note": 0, "velocity": 0, "duration": 263}, {"note": 55, "velocity": 93, "duration": 91}, {"note": 57, "velocity": 93, "duration": 130}, {"note": 58, "velocity": 99, "duration": 50}, {"note": 0, "velocity": 0, "duration": 70}, {"note": 58, "velocity": 107, "duration": 53}, {"note": 0, "velocity": 0, "duration": 67}, {"note": 58, "velocity": 107, "duration": 62}, {"note": 57, "velocity": 90, "duration": 63}, {"note": 58, "velocity": 117, "duration": 101}, {"note": 69, "velocity": 122, "duration": 159}, {"note": 0, "velocity": 0, "duration": 81}, {"note": 67, "velocity": 112, "duration": 187}, {"note": 65, "velocity": 112, "duration": 109}, {"note": 64, "velocity": 92, "duration": 52}, {"note": 0, "velocity": 0, "duration": 68}, {"note": 64, "velocity": 107, "duration": 109}, {"note": 62, "velocity": 96, "duration": 205}, {"note": 0, "velocity": 0, "duration": 275}, {"note": 70, "velocity": 122, "duration": 50}, {"note": 0, "velocity": 0, "duration": 70}, {"note": 70, "velocity": 122, "duration": 53}, {"note": 0, "velocity": 0, "duration": 67}, {"note": 70, "velocity": 127, "duration": 50}, {"note": 0, "velocity": 0, "duration": 70}, {"note": 70, "velocity": 107, "duration": 40}, {"note": 0, "velocity": 0, "duration": 80}, {"note": 70, "velocity": 127, "duration": 74}, {"note": 69, "velocity": 122, "duration": 99}, {"note": 0, "velocity": 0, "duration": 141}, {"note": 67, "velocity": 99, "duration": 78}, {"note": 69, "velocity": 122, "duration": 393}, {"note": 0, "velocity": 0, "duration": 87}, {"note": 69, "velocity": 112, "duration": 232}, {"note": 67, "velocity": 117, "duration": 157}, {"note": 0, "velocity": 0, "duration": 83}, {"note": 65, "velocity": 127, "duration": 153}, {"note": 65, "velocity": 102, "duration": 33}, {"note": 0, "velocity": 0, "duration": 87}, {"note": 65, "velocity": 107, "duration": 67}, {"note": 64, "velocity": 96, "duration": 66}, {"note": 65, "velocity": 112, "duration": 123}, {"note": 69, "velocity": 99, "duration": 246}, {"note": 64, "velocity": 107, "duration": 120}, {"note": 0, "velocity": 0, "duration": 120}, {"note": 65, "velocity": 107, "duration": 106}, {"note": 64, "velocity": 93, "duration": 103}, {"note": 62, "velocity": 92, "duration": 95}, {"note": 62, "velocity": 122, "duration": 113}, {"note": 60, "velocity": 102, "duration": 177}, {"note": 0, "velocity": 0, "duration": 183}, {"note": 62, "velocity": 112, "duration": 92}, {"note": 64, "velocity": 95, "duration": 79}, {"note": 65, "velocity": 85, "duration": 105}, {"note": 67, "velocity": 112, "duration": 88}, {"note": 64, "velocity": 107, "duration": 92}, {"note": 67, "velocity": 127, "duration": 136}, {"note": 0, "velocity": 0, "duration": 104}, {"note": 70, "velocity": 122, "duration": 95}, {"note": 69, "velocity": 112, "duration": 226}, {"note": 0, "velocity": 0, "duration": 494}, {"note": 67, "velocity": 112, "duration": 73}, {"note": 69, "velocity": 117, "duration": 54}, {"note": 0, "velocity": 0, "duration": 66}, {"note": 70, "velocity": 127, "duration": 115}, {"note": 69, "velocity": 117, "duration": 124}, {"note": 0, "velocity": 0, "duration": 116}, {"note": 67, "velocity": 107, "duration": 183}, {"note": 0, "velocity": 0, "duration": 177}, {"note": 65, "velocity": 117, "duration": 92}, {"note": 67, "velocity": 99, "duration": 60}, {"note": 69, "velocity": 122, "duration": 123}, {"note": 67, "velocity": 122, "duration": 148}, {"note": 0, "velocity": 0, "duration": 92}, {"note": 65, "velocity": 107, "duration": 301}, {"note": 0, "velocity": 0, "duration": 299}, {"note": 62, "velocity": 107, "duration": 105}, {"note": 64, "velocity": 99, "duration": 96}, {"note": 65, "velocity": 96, "duration": 101}, {"note": 69, "velocity": 112, "duration": 108}, {"note": 67, "velocity": 107, "duration": 156}, {"note": 65, "velocity": 122, "duration": 200}, {"note": 64, "velocity": 96, "duration": 63}, {"note": 64, "velocity": 122, "duration": 260}, {"note": 65, "velocity": 102, "duration": 131}, {"note": 62, "velocity": 100, "duration": 691}, {"note": 0, "velocity": 0, "duration": 389}, {"note": 69, "velocity": 112, "duration": 232}, {"note": 67, "velocity": 117, "duration": 157}, {"note": 0, "velocity": 0, "duration": 83}, {"note": 65, "velocity": 127, "duration": 153}, {"note": 65, "velocity": 102, "duration": 33}, {"note": 0, "velocity": 0, "duration": 87}, {"note": 65, "velocity": 107, "duration": 67}, {"note": 64, "velocity": 96, "duration": 66}, {"note": 65, "velocity": 112, "duration": 123}, {"note": 69, "velocity": 99, "duration": 246}, {"note": 64, "velocity": 107, "duration": 120}, {"note": 0, "velocity": 0, "duration": 120}, {"note": 65, "velocity": 107, "duration": 106}, {"note": 64, "velocity": 93, "duration": 103}, {"note": 62, "velocity": 92, "duration": 95}, {"note": 62, "velocity": 122, "duration": 113}, {"note": 60, "velocity": 102, "duration": 177}, {"note": 0, "velocity": 0, "duration": 183}, {"note": 62, "velocity": 112, "duration": 92}, {"note": 64, "velocity": 95, "duration": 79}, {"note": 65, "velocity": 85, "duration": 105}, {"note": 67, "velocity": 112, "duration": 88}, {"note": 64, "velocity": 107, "duration": 92}, {"note": 60, "velocity": 100, "duration": 141}, {"note": 0, "velocity": 0, "duration": 99}, {"note": 55, "velocity": 86, "duration": 114}, {"note": 57, "velocity": 92, "duration": 457}, {"note": 0, "velocity": 0, "duration": 263}, {"note": 55, "velocity": 93, "duration": 91}, {"note": 57, "velocity": 93, "duration": 130}, {"note": 58, "velocity": 99, "duration": 50}, {"note": 0, "velocity": 0, "duration": 70}, {"note": 58, "velocity": 107, "duration": 53}, {"note": 0, "velocity": 0, "duration": 67}, {"note": 58, "velocity": 107, "duration": 62}, {"note": 57, "velocity": 90, "duration": 63}, {"note": 58, "velocity": 117, "duration": 101}, {"note": 69, "velocity": 122, "duration": 159}, {"note": 0, "velocity": 0, "duration": 81}, {"note": 67, "velocity": 112, "duration": 187}, {"note": 65, "velocity": 112, "duration": 109}, {"note": 64, "velocity": 92, "duration": 52}, {"note": 0, "velocity": 0, "duration": 68}, {"note": 64, "velocity": 107, "duration": 109}, {"note": 62, "velocity": 96, "duration": 205}, {"note": 0, "velocity": 0, "duration": 275}, {"note": 70, "velocity": 122, "duration": 50}, {"note": 0, "velocity": 0, "duration": 70}, {"note": 70, "velocity": 122, "duration": 53}, {"note": 0, "velocity": 0, "duration": 67}, {"note": 70, "velocity": 127, "duration": 50}, {"note": 0, "velocity": 0, "duration": 70}, {"note": 70, "velocity": 107, "duration": 40}, {"note": 0, "velocity": 0, "duration": 80}, {"note": 70, "velocity": 127, "duration": 74}, {"note": 69, "velocity": 122, "duration": 99}, {"note": 0, "velocity": 0, "duration": 141}, {"note": 67, "velocity": 99, "duration": 78}, {"note": 69, "velocity": 122, "duration": 393}, {"note": 0, "velocity": 0, "duration": 87}, {"note": 69, "velocity": 112, "duration": 232}, {"note": 67, "velocity": 117, "duration": 157}, {"note": 0, "velocity": 0, "duration": 83}, {"note": 65, "velocity": 127, "duration": 153}, {"note": 65, "velocity": 102, "duration": 33}, {"note": 0, "velocity": 0, "duration": 87}, {"note": 65, "velocity": 107, "duration": 67}, {"note": 64, "velocity": 96, "duration": 66}, {"note": 65, "velocity": 112, "duration": 123}, {"note": 69, "velocity": 99, "duration": 246}, {"note": 64, "velocity": 107, "duration": 120}, {"note": 0, "velocity": 0, "duration": 120}, {"note": 65, "velocity": 107, "duration": 106}, {"note": 64, "velocity": 93, "duration": 103}, {"note": 62, "velocity": 92, "duration": 95}, {"note": 62, "velocity": 122, "duration": 113}, {"note": 60, "velocity": 102, "duration": 177}, {"note": 0, "velocity": 0, "duration": 183}, {"note": 62, "velocity": 112, "duration": 92}, {"note": 64, "velocity": 95, "duration": 79}, {"note": 65, "velocity": 85, "duration": 105}, {"note": 67, "velocity": 112, "duration": 88}, {"note": 64, "velocity": 107, "duration": 92}, {"note": 67, "velocity": 127, "duration": 136}, {"note": 0, "velocity": 0, "duration": 104}, {"note": 70, "velocity": 122, "duration": 95}, {"note": 69, "velocity": 112, "duration": 226}, {"note": 0, "velocity": 0, "duration": 494}, {"note": 67, "velocity": 112, "duration": 73}, {"note": 69, "velocity": 117, "duration": 54}, {"note": 0, "velocity": 0, "duration": 66}, {"note": 70, "velocity": 127, "duration": 115}, {"note": 69, "velocity": 117, "duration": 124}, {"note": 0, "velocity": 0, "duration": 116}, {"note": 67, "velocity": 107, "duration": 183}, {"note": 0, "velocity": 0, "duration": 177}, {"note": 65, "velocity": 117, "duration": 92}, {"note": 67, "velocity": 99, "duration": 60}, {"note": 69, "velocity": 122, "duration": 123}, {"note": 67, "velocity": 122, "duration": 148}, {"note": 0, "velocity": 0, "duration": 92}, {"note": 65, "velocity": 107, "duration": 301}, {"note": 0, "velocity": 0, "duration": 299}, {"note": 62, "velocity": 107, "duration": 105}, {"note": 64, "velocity": 99, "duration": 96}, {"note": 65, "velocity": 96, "duration": 101}, {"note": 69, "velocity": 112, "duration": 108}, {"note": 67, "velocity": 107, "duration": 156}, {"note": 65, "velocity": 122, "duration": 200}, {"note": 64, "velocity": 96, "duration": 63}, {"note": 64, "velocity": 122, "duration": 260}, {"note": 65, "velocity": 102, "duration": 131}, {"note": 62, "velocity": 100, "duration": 691}]]