[[{"note": 70, "velocity": 127, "duration": 51}, {"note": 0, "velocity": 0, "duration": 69}, {"note": 70, "velocity": 122, "duration": 97}, {"note": 68, "velocity": 96, "duration": 46}, {"note": 0, "velocity": 0, "duration": 74}, {"note": 68, "velocity": 112, "duration": 40}, {"note": 0, "velocity": 0, "duration": 80}, {"note": 68, "velocity": 100, "duration": 33}, {"note": 0, "velocity": 0, "duration": 87}, {"note": 68, "velocity": 122, "duration": 66}, {"note": 68, "velocity": 102, "duration": 44}, {"note": 0, "velocity": 0, "duration": 76}, {"note": 68, "velocity": 102, "duration": 54}, {"note": 0, "velocity": 0, "duration": 66}, {"note": 70, "velocity": 127, "duration": 44}, {"note": 0, "velocity": 0, "duration": 76}, {"note": 70, "velocity": 127, "duration": 102}, {"note": 68, "velocity": 107, "duration": 40}, {"note": 0, "velocity": 0, "duration": 80}, {"note": 68, "velocity": 112, "duration": 71}, {"note": 68, "velocity": 112, "duration": 86}, {"note": 63, "velocity": 100, "duration": 50}, {"note": 0, "velocity": 0, "duration": 190}, {"note": 68, "velocity": 127, "duration": 109}, {"note": 70, "velocity": 105, "duration": 19}, {"note": 0, "velocity": 0, "duration": 101}, {"note": 70, "velocity": 106, "duration": 102}, {"note": 68, "velocity": 86, "duration": 35}, {"note": 0, "velocity": 0, "duration": 85}, {"note": 68, "velocity": 117, "duration": 75}, {"note": 68, "velocity": 96, "duration": 42}, {"note": 0, "velocity": 0, "duration": 78}, {"note": 68, "velocity": 127, "duration": 35}, {"note": 0, "velocity": 0, "duration": 85}, {"note": 68, "velocity": 107, "duration": 39}, {"note": 0, "velocity": 0, "duration": 81}, {"note": 68, "velocity": 122, "duration": 44}, {"note": 0, "velocity": 0, "duration": 76}, {"note": 70, "velocity": 117, "duration": 36}, {"note": 0, "velocity": 0, "duration": 84}, {"note": 70, "velocity": 127, "duration": 41}, {"note": 0, "velocity": 0, "duration": 79}, {"note": 70, "velocity": 122, "duration": 32}, {"note": 0, "velocity": 0, "duration": 88}, {"note": 70, "velocity": 127, "duration": 41}, {"note": 0, "velocity": 0, "duration": 79}, {"note": 68, "velocity": 107, "duration": 39}, {"note": 0, "velocity": 0, "duration": 81}, {"note": 68, "velocity": 117, "duration": 45}, {"note": 0, "velocity": 0, "duration": 75}, {"note": 68, "velocity": 93, "duration": 69}, {"note": 68, "velocity": 92, "duration": 188}, {"note": 70, "velocity": 127, "duration": 69}, {"note": 70, "velocity": 117, "duration": 59}, {"note": 0, "velocity": 0, "duration": 61}, {"note": 70, "velocity": 117, "duration": 54}, {"note": 0, "velocity": 0, "duration": 66}, {"note": 68, "velocity": 117, "duration": 47}, {"note": 0, "velocity": 0, "duration": 73}, {"note": 68, "velocity": 127, "duration": 90}, {"note": 0, "velocity": 0, "duration": 150}, {"note": 70, "velocity": 127, "duration": 46}, {"note": 0, "velocity": 0, "duration": 74}, {"note": 70, "velocity": 102, "duration": 46}, {"note": 0, "velocity": 0, "duration": 74}, {"note": 70, "velocity": 107, "duration": 43}, {"note": 0, "velocity": 0, "duration": 77}, {"note": 70, "velocity": 102, "duration": 50}, {"note": 0, "velocity": 0, "duration": 70}, {"note": 70, "velocity": 97, "duration": 51}, {"note": 0, "velocity": 0, "duration": 69}, {"note": 65, "velocity": 100, "duration": 65}, {"note": 68, "velocity": 100, "duration": 126}, {"note": 0, "velocity": 0, "duration": 234}, {"note": 68, "velocity": 102, "duration": 56}, {"note": 69, "velocity": 99, "duration": 62}, {"note": 70, "velocity": 127, "duration": 80}, {"note": 68, "velocity": 112, "duration": 34}, {"note": 0, "velocity": 0, "duration": 86}, {"note": 68, "velocity": 122, "duration": 53}, {"note": 0, "velocity": 0, "duration": 67}, {"note": 70, "velocity": 112, "duration": 32}, {"note": 0, "velocity": 0, "duration": 88}, {"note": 70, "velocity": 127, "duration": 59}, {"note": 0, "velocity": 0, "duration": 61}, {"note": 68, "velocity": 127, "duration": 37}, {"note": 0, "velocity": 0, "duration": 83}, {"note": 68, "velocity": 117, "duration": 80}, {"note": 70, "velocity": 122, "duration": 52}, {"note": 0, "velocity": 0, "duration": 68}, {"note": 70, "velocity": 127, "duration": 58}, {"note": 0, "velocity": 0, "duration": 62}, {"note": 68, "velocity": 127, "duration": 39}, {"note": 0, "velocity": 0, "duration": 81}, {"note": 68, "velocity": 99, "duration": 43}, {"note": 0, "velocity": 0, "duration": 77}, {"note": 68, "velocity": 97, "duration": 66}, {"note": 72, "velocity": 127, "duration": 204}, {"note": 70, "velocity": 127, "duration": 188}, {"note": 0, "velocity": 0, "duration": 172}, {"note": 72, "velocity": 117, "duration": 35}, {"note": 0, "velocity": 0, "duration": 85}, {"note": 75, "velocity": 127, "duration": 113}, {"note": 72, "velocity": 97, "duration": 67}, {"note": 72, "velocity": 122, "duration": 63}, {"note": 75, "velocity": 127, "duration": 102}, {"note": 72, "velocity": 127, "duration": 104}, {"note": 75, "velocity": 127, "duration": 93}, {"note": 0, "velocity": 0, "duration": 147}, {"note": 72, "velocity": 127, "duration": 64}, {"note": 75, "velocity": 127, "duration": 120}, {"note": 72, "velocity": 107, "duration": 36}, {"note": 0, "velocity": 0, "duration": 84}, {"note": 75, "velocity": 127, "duration": 117}, {"note": 75, "velocity": 115, "duration": 56}, {"note": 0, "velocity": 0, "duration": 64}, {"note": 75, "velocity": 113, "duration": 87}, {"note": 68, "velocity": 102, "duration": 94}, {"note": 0, "velocity": 0, "duration": 146}, {"note": 65, "velocity": 100, "duration": 28}, {"note": 68, "velocity": 100, "duration": 34}, {"note": 68, "velocity": 117, "duration": 46}, {"note": 0, "velocity": 0, "duration": 74}, {"note": 75, "velocity": 122, "duration": 56}, {"note": 0, "velocity": 0, "duration": 64}, {"note": 75, "velocity": 127, "duration": 104}, {"note": 70, "velocity": 117, "duration": 47}, {"note": 0, "velocity": 0, "duration": 73}, {"note": 70, "velocity": 127, "duration": 48}, {"note": 0, "velocity": 0, "duration": 72}, {"note": 70, "velocity": 122, "duration": 44}, {"note": 0, "velocity": 0, "duration": 76}, {"note": 70, "velocity": 127, "duration": 80}, {"note": 70, "velocity": 127, "duration": 45}, {"note": 0, "velocity": 0, "duration": 75}, {"note": 70, "velocity": 117, "duration": 102}, {"note": 68, "velocity": 95, "duration": 77}, {"note": 75, "velocity": 127, "duration": 101}, {"note": 72, "velocity": 127, "duration": 47}, {"note": 0, "velocity": 0, "duration": 73}, {"note": 72, "velocity": 127, "duration": 225}, {"note": 0, "velocity": 0, "duration": 135}, {"note": 75, "velocity": 127, "duration": 39}, {"note": 0, "velocity": 0, "duration": 81}, {"note": 75, "velocity": 127, "duration": 101}, {"note": 70, "velocity": 112, "duration": 37}, {"note": 0, "velocity": 0, "duration": 83}, {"note": 70, "velocity": 127, "duration": 92}, {"note": 70, "velocity": 117, "duration": 45}, {"note": 0, "velocity": 0, "duration": 75}, {"note": 70, "velocity": 127, "duration": 80}, {"note": 68, "velocity": 112, "duration": 44}, {"note": 0, "velocity": 0, "duration": 76}, {"note": 68, "velocity": 127, "duration": 106}, {"note": 75, "velocity": 127, "duration": 39}, {"note": 0, "velocity": 0, "duration": 81}, {"note": 75, "velocity": 127, "duration": 77}, {"note": 70, "velocity": 102, "duration": 36}, {"note": 0, "velocity": 0, "duration": 84}, {"note": 70, "velocity": 117, "duration": 58}, {"note": 0, "velocity": 0, "duration": 62}, {"note": 70, "velocity": 90, "duration": 50}, {"note": 0, "velocity": 0, "duration": 70}, {"note": 70, "velocity": 107, "duration": 66}, {"note": 68, "velocity": 122, "duration": 42}, {"note": 0, "velocity": 0, "duration": 78}, {"note": 68, "velocity": 127, "duration": 93}, {"note": 0, "velocity": 0, "duration": 267}, {"note": 68, "velocity": 107, "duration": 37}, {"note": 0, "velocity": 0, "duration": 83}, {"note": 68, "velocity": 107, "duration": 38}, {"note": 0, "velocity": 0, "duration": 82}, {"note": 68, "velocity": 107, "duration": 41}, {"note": 0, "velocity": 0, "duration": 79}, {"note": 68, "velocity": 112, "duration": 101}, {"note": 73, "velocity": 127, "duration": 46}, {"note": 0, "velocity": 0, "duration": 74}, {"note": 73, "velocity": 122, "duration": 106}, {"note": 72, "velocity": 127, "duration": 51}, {"note": 0, "velocity": 0, "duration": 69}, {"note": 72, "velocity": 127, "duration": 98}, {"note": 70, "velocity": 117, "duration": 46}, {"note": 0, "velocity": 0, "duration": 74}, {"note": 70, "velocity": 127, "duration": 87}, {"note": 68, "velocity": 127, "duration": 73}, {"note": 65, "velocity": 100, "duration": 96}, {"note": 68, "velocity": 117, "duration": 276}, {"note": 0, "velocity": 0, "duration": 204}, {"note": 68, "velocity": 95, "duration": 112}, {"note": 73, "velocity": 127, "duration": 178}, {"note": 0, "velocity": 0, "duration": 62}, {"note": 73, "velocity": 127, "duration": 201}, {"note": 72, "velocity": 127, "duration": 101}, {"note": 0, "velocity": 0, "duration": 139}, {"note": 70, "velocity": 117, "duration": 162}, {"note": 0, "velocity": 0, "duration": 78}, {"note": 70, "velocity": 127, "duration": 124}, {"note": 0, "velocity": 0, "duration": 116}, {"note": 68, "velocity": 112, "duration": 74}, {"note": 70, "velocity": 112, "duration": 61}, {"note": 72, "velocity": 127, "duration": 259}, {"note": 70, "velocity": 127, "duration": 118}, {"note": 68, "velocity": 100, "duration": 120}, {"note": 68, "velocity": 117, "duration": 171}, {"note": 0, "velocity": 0, "duration": 69}, {"note": 68, "velocity": 127, "duration": 170}, {"note": 0, "velocity": 0, "duration": 70}, {"note": 68, "velocity": 122, "duration": 117}, {"note": 67, "velocity": 107, "duration": 122}, {"note": 65, "velocity": 102, "duration": 322}, {"note": 0, "velocity": 0, "duration": 158}, {"note": 68, "velocity": 122, "duration": 68}, {"note": 70, "velocity": 112, "duration": 69}, {"note": 72, "velocity": 127, "duration": 179}, {"note": 0, "velocity": 0, "duration": 61}, {"note": 70, "velocity": 112, "duration": 83}, {"note": 68, "velocity": 107, "duration": 166}, {"note": 0, "velocity": 0, "duration": 194}, {"note": 70, "velocity": 112, "duration": 43}, {"note": 0, "velocity": 0, "duration": 77}, {"note": 72, "velocity": 127, "duration": 231}, {"note": 0, "velocity": 0, "duration": 129}, {"note": 70, "velocity": 122, "duration": 49}, {"note": 0, "velocity": 0, "duration": 71}, {"note": 72, "velocity": 127, "duration": 192}, {"note": 0, "velocity": 0, "duration": 168}, {"note": 77, "velocity": 122, "duration": 36}, {"note": 0, "velocity": 0, "duration": 84}, {"note": 77, "velocity": 127, "duration": 350}, {"note": 75, "velocity": 112, "duration": 35}, {"note": 0, "velocity": 0, "duration": 85}, {"note": 75, "velocity": 127, "duration": 568}, {"note": 0, "velocity": 0, "duration": 512}, {"note": 72, "velocity": 112, "duration": 230}, {"note": 75, "velocity": 122, "duration": 205}, {"note": 0, "velocity": 0, "duration": 395}, {"note": 75, "velocity": 122, "duration": 48}, {"note": 0, "velocity": 0, "duration": 72}, {"note": 75, "velocity": 112, "duration": 48}, {"note": 0, "velocity": 0, "duration": 72}, {"note": 75, "velocity": 112, "duration": 45}, {"note": 0, "velocity": 0, "duration": 75}, {"note": 75, "velocity": 112, "duration": 60}, {"note": 80, "velocity": 127, "duration": 42}, {"note": 0, "velocity": 0, "duration": 78}, {"note": 80, "velocity": 127, "duration": 102}, {"note": 79, "velocity": 122, "duration": 50}, {"note": 0, "velocity": 0, "duration": 70}, {"note": 79, "velocity": 127, "duration": 71}, {"note": 77, "velocity": 127, "duration": 38}, {"note": 0, "velocity": 0, "duration": 82}, {"note": 77, "velocity": 127, "duration": 102}, {"note": 0, "velocity": 0, "duration": 138}, {"note": 75, "velocity": 127, "duration": 41}, {"note": 0, "velocity": 0, "duration": 79}, {"note": 75, "velocity": 122, "duration": 42}, {"note": 0, "velocity": 0, "duration": 78}, {"note": 75, "velocity": 127, "duration": 66}, {"note": 72, "velocity": 117, "duration": 36}, {"note": 0, "velocity": 0, "duration": 84}, {"note": 72, "velocity": 112, "duration": 77}, {"note": 75, "velocity": 127, "duration": 43}, {"note": 0, "velocity": 0, "duration": 77}, {"note": 75, "velocity": 127, "duration": 58}, {"note": 0, "velocity": 0, "duration": 62}, {"note": 72, "velocity": 127, "duration": 40}, {"note": 0, "velocity": 0, "duration": 80}, {"note": 72, "velocity": 122, "duration": 67}, {"note": 75, "velocity": 127, "duration": 49}, {"note": 0, "velocity": 0, "duration": 71}, {"note": 75, "velocity": 127, "duration": 79}, {"note": 0, "velocity": 0, "duration": 281}, {"note": 72, "velocity": 112, "duration": 122}, {"note": 70, "velocity": 127, "duration": 367}, {"note": 68, "velocity": 127, "duration": 107}, {"note": 0, "velocity": 0, "duration": 373}, {"note": 75, "velocity": 122, "duration": 39}, {"note": 0, "velocity": 0, "duration": 81}, {"note": 75, "velocity": 107, "duration": 42}, {"note": 0, "velocity": 0, "duration": 78}, {"note": 75, "velocity": 112, "duration": 44}, {"note": 0, "velocity": 0, "duration": 76}, {"note": 75, "velocity": 122, "duration": 50}, {"note": 0, "velocity": 0, "duration": 70}, {"note": 80, "velocity": 127, "duration": 49}, {"note": 0, "velocity": 0, "duration": 71}, {"note": 80, "velocity": 127, "duration": 58}, {"note": 0, "velocity": 0, "duration": 62}, {"note": 79, "velocity": 127, "duration": 34}, {"note": 0, "velocity": 0, "duration": 86}, {"note": 79, "velocity": 127, "duration": 65}, {"note": 77, "velocity": 122, "duration": 37}, {"note": 0, "velocity": 0, "duration": 83}, {"note": 77, "velocity": 127, "duration": 97}, {"note": 0, "velocity": 0, "duration": 143}, {"note": 75, "velocity": 127, "duration": 71}, {"note": 77, "velocity": 122, "duration": 43}, {"note": 0, "velocity": 0, "duration": 77}, {"note": 77, "velocity": 127, "duration": 52}, {"note": 0, "velocity": 0, "duration": 68}, {"note": 75, "velocity": 122, "duration": 36}, {"note": 0, "velocity": 0, "duration": 84}, {"note": 75, "velocity": 127, "duration": 45}, {"note": 0, "velocity": 0, "duration": 75}, {"note": 77, "velocity": 122, "duration": 41}, {"note": 0, "velocity": 0, "duration": 79}, {"note": 77, "velocity": 127, "duration": 50}, {"note": 0, "velocity": 0, "duration": 70}, {"note": 75, "velocity": 112, "duration": 28}, {"note": 0, "velocity": 0, "duration": 92}, {"note": 75, "velocity": 127, "duration": 52}, {"note": 0, "velocity": 0, "duration": 68}, {"note": 77, "velocity": 122, "duration": 39}, {"note": 0, "velocity": 0, "duration": 81}, {"note": 77, "velocity": 127, "duration": 54}, {"note": 0, "velocity": 0, "duration": 66}, {"note": 75, "velocity": 117, "duration": 37}, {"note": 0, "velocity": 0, "duration": 83}, {"note": 75, "velocity": 127, "duration": 192}, {"note": 0, "velocity": 0, "duration": 168}, {"note": 72, "velocity": 127, "duration": 197}, {"note": 75, "velocity": 127, "duration": 113}, {"note": 0, "velocity": 0, "duration": 367}, {"note": 75, "velocity": 117, "duration": 52}, {"note": 0, "velocity": 0, "duration": 68}, {"note": 75, "velocity": 112, "duration": 58}, {"note": 0, "velocity": 0, "duration": 62}, {"note": 75, "velocity": 107, "duration": 52}, {"note": 0, "velocity": 0, "duration": 68}, {"note": 75, "velocity": 117, "duration": 57}, {"note": 0, "velocity": 0, "duration": 63}, {"note": 80, "velocity": 127, "duration": 41}, {"note": 0, "velocity": 0, "duration": 79}, {"note": 80, "velocity": 117, "duration": 91}, {"note": 79, "velocity": 127, "duration": 44}, {"note": 0, "velocity": 0, "duration": 76}, {"note": 79, "velocity": 127, "duration": 74}, {"note": 77, "velocity": 127, "duration": 40}, {"note": 0, "velocity": 0, "duration": 80}, {"note": 77, "velocity": 127, "duration": 96}, {"note": 0, "velocity": 0, "duration": 144}, {"note": 75, "velocity": 127, "duration": 39}, {"note": 0, "velocity": 0, "duration": 81}, {"note": 75, "velocity": 112, "duration": 40}, {"note": 0, "velocity": 0, "duration": 80}, {"note": 75, "velocity": 127, "duration": 92}, {"note": 72, "velocity": 102, "duration": 43}, {"note": 0, "velocity": 0, "duration": 77}, {"note": 72, "velocity": 107, "duration": 55}, {"note": 0, "velocity": 0, "duration": 65}, {"note": 75, "velocity": 127, "duration": 45}, {"note": 0, "velocity": 0, "duration": 75}, {"note": 75, "velocity": 127, "duration": 68}, {"note": 72, "velocity": 100, "duration": 36}, {"note": 0, "velocity": 0, "duration": 84}, {"note": 72, "velocity": 102, "duration": 55}, {"note": 0, "velocity": 0, "duration": 65}, {"note": 75, "velocity": 122, "duration": 49}, {"note": 0, "velocity": 0, "duration": 71}, {"note": 75, "velocity": 127, "duration": 83}, {"note": 0, "velocity": 0, "duration": 277}, {"note": 72, "velocity": 112, "duration": 102}, {"note": 70, "velocity": 117, "duration": 254}, {"note": 0, "velocity": 0, "duration": 106}, {"note": 68, "velocity": 117, "duration": 150}, {"note": 0, "velocity": 0, "duration": 330}, {"note": 75, "velocity": 102, "duration": 43}, {"note": 0, "velocity": 0, "duration": 77}, {"note": 75, "velocity": 122, "duration": 40}, {"note": 0, "velocity": 0, "duration": 80}, {"note": 75, "velocity": 117, "duration": 48}, {"note": 0, "velocity": 0, "duration": 72}, {"note": 75, "velocity": 117, "duration": 64}, {"note": 80, "velocity": 127, "duration": 50}, {"note": 0, "velocity": 0, "duration": 70}, {"note": 80, "velocity": 117, "duration": 57}, {"note": 0, "velocity": 0, "duration": 63}, {"note": 82, "velocity": 127, "duration": 39}, {"note": 0, "velocity": 0, "duration": 81}, {"note": 82, "velocity": 117, "duration": 59}, {"note": 0, "velocity": 0, "duration": 61}, {"note": 79, "velocity": 127, "duration": 46}, {"note": 0, "velocity": 0, "duration": 74}, {"note": 80, "velocity": 122, "duration": 92}, {"note": 0, "velocity": 0, "duration": 148}, {"note": 77, "velocity": 127, "duration": 52}, {"note": 0, "velocity": 0, "duration": 68}, {"note": 79, "velocity": 127, "duration": 47}, {"note": 0, "velocity": 0, "duration": 73}, {"note": 80, "velocity": 127, "duration": 156}, {"note": 0, "velocity": 0, "duration": 84}, {"note": 79, "velocity": 127, "duration": 153}, {"note": 0, "velocity": 0, "duration": 87}, {"note": 77, "velocity": 127, "duration": 99}, {"note": 0, "velocity": 0, "duration": 141}, {"note": 75, "velocity": 127, "duration": 78}, {"note": 77, "velocity": 112, "duration": 51}, {"note": 0, "velocity": 0, "duration": 69}, {"note": 77, "velocity": 127, "duration": 144}, {"note": 0, "velocity": 0, "duration": 96}, {"note": 75, "velocity": 127, "duration": 103}, {"note": 0, "velocity": 0, "duration": 137}, {"note": 72, "velocity": 127, "duration": 225}, {"note": 70, "velocity": 117, "duration": 134}, {"note": 0, "velocity": 0, "duration": 106}, {"note": 70, "velocity": 127, "duration": 97}, {"note": 68, "velocity": 99, "duration": 50}, {"note": 0, "velocity": 0, "duration": 70}, {"note": 68, "velocity": 127, "duration": 599}, {"note": 0, "velocity": 0, "duration": 1201}, {"note": 71, "velocity": 117, "duration": 35}, {"note": 0, "velocity": 0, "duration": 85}, {"note": 74, "velocity": 127, "duration": 113}, {"note": 0, "velocity": 0, "duration": 127}, {"note": 71, "velocity": 122, "duration": 63}, {"note": 74, "velocity": 127, "duration": 102}, {"note": 71, "velocity": 127, "duration": 104}, {"note": 74, "velocity": 127, "duration": 93}, {"note": 0, "velocity": 0, "duration": 147}, {"note": 71, "velocity": 127, "duration": 64}, {"note": 74, "velocity": 127, "duration": 120}, {"note": 71, "velocity": 107, "duration": 36}, {"note": 0, "velocity": 0, "duration": 84}, {"note": 74, "velocity": 127, "duration": 117}, {"note": 0, "velocity": 0, "duration": 123}, {"note": 67, "velocity": 102, "duration": 94}, {"note": 0, "velocity": 0, "duration": 266}, {"note": 64, "velocity": 100, "duration": 28}, {"note": 67, "velocity": 100, "duration": 34}, {"note": 67, "velocity": 117, "duration": 46}, {"note": 0, "velocity": 0, "duration": 74}, {"note": 74, "velocity": 122, "duration": 56}, {"note": 0, "velocity": 0, "duration": 64}, {"note": 74, "velocity": 127, "duration": 104}, {"note": 69, "velocity": 117, "duration": 47}, {"note": 0, "velocity": 0, "duration": 73}, {"note": 69, "velocity": 127, "duration": 48}, {"note": 0, "velocity": 0, "duration": 72}, {"note": 69, "velocity": 122, "duration": 44}, {"note": 0, "velocity": 0, "duration": 76}, {"note": 69, "velocity": 127, "duration": 80}, {"note": 69, "velocity": 127, "duration": 45}, {"note": 0, "velocity": 0, "duration": 75}, {"note": 69, "velocity": 117, "duration": 102}, {"note": 67, "velocity": 95, "duration": 77}, {"note": 74, "velocity": 127, "duration": 101}, {"note": 71, "velocity": 127, "duration": 47}, {"note": 0, "velocity": 0, "duration": 73}, {"note": 71, "velocity": 127, "duration": 225}, {"note": 0, "velocity": 0, "duration": 135}, {"note": 74, "velocity": 127, "duration": 39}, {"note": 0, "velocity": 0, "duration": 81}, {"note": 74, "velocity": 127, "duration": 101}, {"note": 69, "velocity": 112, "duration": 37}, {"note": 0, "velocity": 0, "duration": 83}, {"note": 69, "velocity": 127, "duration": 92}, {"note": 69, "velocity": 117, "duration": 45}, {"note": 0, "velocity": 0, "duration": 75}, {"note": 69, "velocity": 127, "duration": 80}, {"note": 67, "velocity": 112, "duration": 44}, {"note": 0, "velocity": 0, "duration": 76}, {"note": 67, "velocity": 127, "duration": 106}, {"note": 74, "velocity": 127, "duration": 39}, {"note": 0, "velocity": 0, "duration": 81}, {"note": 74, "velocity": 127, "duration": 77}, {"note": 69, "velocity": 102, "duration": 36}, {"note": 0, "velocity": 0, "duration": 84}, {"note": 69, "velocity": 117, "duration": 58}, {"note": 0, "velocity": 0, "duration": 62}, {"note": 69, "velocity": 90, "duration": 50}, {"note": 0, "velocity": 0, "duration": 70}, {"note": 69, "velocity": 107, "duration": 66}, {"note": 67, "velocity": 122, "duration": 42}, {"note": 0, "velocity": 0, "duration": 78}, {"note": 67, "velocity": 127, "duration": 93}, {"note": 0, "velocity": 0, "duration": 267}, {"note": 67, "velocity": 107, "duration": 37}, {"note": 0, "velocity": 0, "duration": 83}, {"note": 67, "velocity": 107, "duration": 38}, {"note": 0, "velocity": 0, "duration": 82}, {"note": 67, "velocity": 107, "duration": 41}, {"note": 0, "velocity": 0, "duration": 79}, {"note": 67, "velocity": 112, "duration": 101}, {"note": 72, "velocity": 127, "duration": 46}, {"note": 0, "velocity": 0, "duration": 74}, {"note": 72, "velocity": 122, "duration": 106}, {"note": 71, "velocity": 127, "duration": 51}, {"note": 0, "velocity": 0, "duration": 69}, {"note": 71, "velocity": 127, "duration": 98}, {"note": 69, "velocity": 117, "duration": 46}, {"note": 0, "velocity": 0, "duration": 74}, {"note": 69, "velocity": 127, "duration": 176}, {"note": 0, "velocity": 0, "duration": 64}, {"note": 64, "velocity": 100, "duration": 96}, {"note": 67, "velocity": 117, "duration": 276}, {"note": 0, "velocity": 0, "duration": 204}, {"note": 67, "velocity": 95, "duration": 112}, {"note": 72, "velocity": 127, "duration": 178}, {"note": 0, "velocity": 0, "duration": 62}, {"note": 72, "velocity": 127, "duration": 201}, {"note": 71, "velocity": 127, "duration": 101}, {"note": 0, "velocity": 0, "duration": 139}, {"note": 69, "velocity": 117, "duration": 162}, {"note": 0, "velocity": 0, "duration": 78}, {"note": 69, "velocity": 127, "duration": 124}, {"note": 0, "velocity": 0, "duration": 116}, {"note": 67, "velocity": 112, "duration": 74}, {"note": 69, "velocity": 112, "duration": 61}, {"note": 71, "velocity": 127, "duration": 163}, {"note": 0, "velocity": 0, "duration": 77}, {"note": 71, "velocity": 127, "duration": 101}, {"note": 76, "velocity": 122, "duration": 192}, {"note": 71, "velocity": 107, "duration": 114}, {"note": 74, "velocity": 127, "duration": 182}, {"note": 76, "velocity": 127, "duration": 172}, {"note": 0, "velocity": 0, "duration": 548}, {"note": 67, "velocity": 122, "duration": 68}, {"note": 69, "velocity": 112, "duration": 69}, {"note": 71, "velocity": 127, "duration": 179}, {"note": 0, "velocity": 0, "duration": 61}, {"note": 69, "velocity": 112, "duration": 83}, {"note": 67, "velocity": 107, "duration": 166}, {"note": 0, "velocity": 0, "duration": 194}, {"note": 69, "velocity": 112, "duration": 43}, {"note": 0, "velocity": 0, "duration": 77}, {"note": 71, "velocity": 127, "duration": 231}, {"note": 0, "velocity": 0, "duration": 129}, {"note": 69, "velocity": 122, "duration": 49}, {"note": 0, "velocity": 0, "duration": 71}, {"note": 71, "velocity": 127, "duration": 192}, {"note": 0, "velocity": 0, "duration": 168}, {"note": 76, "velocity": 122, "duration": 36}, {"note": 0, "velocity": 0, "duration": 84}, {"note": 76, "velocity": 127, "duration": 350}, {"note": 74, "velocity": 127, "duration": 689}, {"note": 0, "velocity": 0, "duration": 152}, {"note": 74, "velocity": 127, "duration": 127}, {"note": 79, "velocity": 100, "duration": 109}, {"note": 83, "velocity": 117, "duration": 277}, {"note": 0, "velocity": 0, "duration": 83}, {"note": 78, "velocity": 97, "duration": 120}, {"note": 79, "velocity": 127, "duration": 385}, {"note": 0, "velocity": 0, "duration": 86}, {"note": 74, "velocity": 122, "duration": 48}, {"note": 0, "velocity": 0, "duration": 72}, {"note": 74, "velocity": 112, "duration": 48}, {"note": 0, "velocity": 0, "duration": 72}, {"note": 74, "velocity": 112, "duration": 45}, {"note": 0, "velocity": 0, "duration": 75}, {"note": 74, "velocity": 112, "duration": 60}, {"note": 79, "velocity": 127, "duration": 42}, {"note": 0, "velocity": 0, "duration": 78}, {"note": 79, "velocity": 127, "duration": 102}, {"note": 78, "velocity": 122, "duration": 50}, {"note": 0, "velocity": 0, "duration": 70}, {"note": 78, "velocity": 127, "duration": 71}, {"note": 76, "velocity": 127, "duration": 38}, {"note": 0, "velocity": 0, "duration": 82}, {"note": 76, "velocity": 127, "duration": 102}, {"note": 0, "velocity": 0, "duration": 138}, {"note": 74, "velocity": 127, "duration": 41}, {"note": 0, "velocity": 0, "duration": 79}, {"note": 74, "velocity": 122, "duration": 42}, {"note": 0, "velocity": 0, "duration": 78}, {"note": 74, "velocity": 127, "duration": 66}, {"note": 71, "velocity": 117, "duration": 36}, {"note": 0, "velocity": 0, "duration": 84}, {"note": 71, "velocity": 112, "duration": 77}, {"note": 74, "velocity": 127, "duration": 43}, {"note": 0, "velocity": 0, "duration": 77}, {"note": 74, "velocity": 127, "duration": 58}, {"note": 0, "velocity": 0, "duration": 62}, {"note": 71, "velocity": 127, "duration": 40}, {"note": 0, "velocity": 0, "duration": 80}, {"note": 71, "velocity": 122, "duration": 67}, {"note": 74, "velocity": 127, "duration": 49}, {"note": 0, "velocity": 0, "duration": 71}, {"note": 74, "velocity": 127, "duration": 79}, {"note": 0, "velocity": 0, "duration": 281}, {"note": 71, "velocity": 112, "duration": 122}, {"note": 69, "velocity": 127, "duration": 367}, {"note": 67, "velocity": 127, "duration": 107}, {"note": 0, "velocity": 0, "duration": 373}, {"note": 74, "velocity": 122, "duration": 39}, {"note": 0, "velocity": 0, "duration": 81}, {"note": 74, "velocity": 107, "duration": 42}, {"note": 0, "velocity": 0, "duration": 78}, {"note": 74, "velocity": 112, "duration": 44}, {"note": 0, "velocity": 0, "duration": 76}, {"note": 74, "velocity": 122, "duration": 50}, {"note": 0, "velocity": 0, "duration": 70}, {"note": 79, "velocity": 127, "duration": 49}, {"note": 0, "velocity": 0, "duration": 71}, {"note": 79, "velocity": 127, "duration": 58}, {"note": 0, "velocity": 0, "duration": 62}, {"note": 78, "velocity": 127, "duration": 34}, {"note": 0, "velocity": 0, "duration": 86}, {"note": 78, "velocity": 127, "duration": 65}, {"note": 76, "velocity": 122, "duration": 37}, {"note": 0, "velocity": 0, "duration": 83}, {"note": 76, "velocity": 127, "duration": 97}, {"note": 0, "velocity": 0, "duration": 143}, {"note": 74, "velocity": 127, "duration": 71}, {"note": 76, "velocity": 122, "duration": 43}, {"note": 0, "velocity": 0, "duration": 77}, {"note": 76, "velocity": 127, "duration": 52}, {"note": 0, "velocity": 0, "duration": 68}, {"note": 74, "velocity": 122, "duration": 36}, {"note": 0, "velocity": 0, "duration": 84}, {"note": 74, "velocity": 127, "duration": 45}, {"note": 0, "velocity": 0, "duration": 75}, {"note": 76, "velocity": 122, "duration": 41}, {"note": 0, "velocity": 0, "duration": 79}, {"note": 76, "velocity": 127, "duration": 50}, {"note": 0, "velocity": 0, "duration": 70}, {"note": 74, "velocity": 112, "duration": 28}, {"note": 0, "velocity": 0, "duration": 92}, {"note": 74, "velocity": 127, "duration": 52}, {"note": 0, "velocity": 0, "duration": 68}, {"note": 76, "velocity": 122, "duration": 39}, {"note": 0, "velocity": 0, "duration": 81}, {"note": 76, "velocity": 127, "duration": 54}, {"note": 0, "velocity": 0, "duration": 66}, {"note": 74, "velocity": 117, "duration": 37}, {"note": 0, "velocity": 0, "duration": 83}, {"note": 74, "velocity": 127, "duration": 192}, {"note": 0, "velocity": 0, "duration": 168}, {"note": 71, "velocity": 127, "duration": 197}, {"note": 74, "velocity": 127, "duration": 113}, {"note": 0, "velocity": 0, "duration": 367}, {"note": 74, "velocity": 117, "duration": 52}, {"note": 0, "velocity": 0, "duration": 68}, {"note": 74, "velocity": 112, "duration": 58}, {"note": 0, "velocity": 0, "duration": 62}, {"note": 74, "velocity": 107, "duration": 52}, {"note": 0, "velocity": 0, "duration": 68}, {"note": 74, "velocity": 117, "duration": 57}, {"note": 0, "velocity": 0, "duration": 63}, {"note": 79, "velocity": 127, "duration": 41}, {"note": 0, "velocity": 0, "duration": 79}, {"note": 79, "velocity": 117, "duration": 91}, {"note": 78, "velocity": 127, "duration": 44}, {"note": 0, "velocity": 0, "duration": 76}, {"note": 78, "velocity": 127, "duration": 74}, {"note": 76, "velocity": 127, "duration": 40}, {"note": 0, "velocity": 0, "duration": 80}, {"note": 76, "velocity": 127, "duration": 96}, {"note": 0, "velocity": 0, "duration": 144}, {"note": 74, "velocity": 127, "duration": 39}, {"note": 0, "velocity": 0, "duration": 81}, {"note": 74, "velocity": 112, "duration": 40}, {"note": 0, "velocity": 0, "duration": 80}, {"note": 74, "velocity": 127, "duration": 92}, {"note": 71, "velocity": 102, "duration": 43}, {"note": 0, "velocity": 0, "duration": 77}, {"note": 71, "velocity": 107, "duration": 55}, {"note": 0, "velocity": 0, "duration": 65}, {"note": 74, "velocity": 127, "duration": 45}, {"note": 0, "velocity": 0, "duration": 75}, {"note": 74, "velocity": 127, "duration": 68}, {"note": 71, "velocity": 100, "duration": 36}, {"note": 0, "velocity": 0, "duration": 84}, {"note": 71, "velocity": 102, "duration": 55}, {"note": 0, "velocity": 0, "duration": 65}, {"note": 74, "velocity": 122, "duration": 49}, {"note": 0, "velocity": 0, "duration": 71}, {"note": 74, "velocity": 127, "duration": 83}, {"note": 0, "velocity": 0, "duration": 277}, {"note": 71, "velocity": 112, "duration": 102}, {"note": 69, "velocity": 117, "duration": 254}, {"note": 0, "velocity": 0, "duration": 106}, {"note": 67, "velocity": 117, "duration": 150}, {"note": 0, "velocity": 0, "duration": 330}, {"note": 74, "velocity": 102, "duration": 43}, {"note": 0, "velocity": 0, "duration": 77}, {"note": 74, "velocity": 122, "duration": 40}, {"note": 0, "velocity": 0, "duration": 80}, {"note": 74, "velocity": 117, "duration": 48}, {"note": 0, "velocity": 0, "duration": 72}, {"note": 74, "velocity": 117, "duration": 64}, {"note": 79, "velocity": 127, "duration": 50}, {"note": 0, "velocity": 0, "duration": 70}, {"note": 79, "velocity": 117, "duration": 57}, {"note": 0, "velocity": 0, "duration": 63}, {"note": 81, "velocity": 127, "duration": 39}, {"note": 0, "velocity": 0, "duration": 81}, {"note": 81, "velocity": 117, "duration": 59}, {"note": 0, "velocity": 0, "duration": 61}, {"note": 78, "velocity": 127, "duration": 46}, {"note": 0, "velocity": 0, "duration": 74}, {"note": 79, "velocity": 122, "duration": 92}, {"note": 0, "velocity": 0, "duration": 148}, {"note": 76, "velocity": 127, "duration": 52}, {"note": 0, "velocity": 0, "duration": 68}, {"note": 78, "velocity": 127, "duration": 47}, {"note": 0, "velocity": 0, "duration": 73}, {"note": 79, "velocity": 127, "duration": 156}, {"note": 0, "velocity": 0, "duration": 84}, {"note": 78, "velocity": 127, "duration": 153}, {"note": 0, "velocity": 0, "duration": 87}, {"note": 76, "velocity": 127, "duration": 99}, {"note": 0, "velocity": 0, "duration": 141}, {"note": 74, "velocity": 127, "duration": 78}, {"note": 76, "velocity": 112, "duration": 51}, {"note": 0, "velocity": 0, "duration": 69}, {"note": 76, "velocity": 127, "duration": 144}, {"note": 0, "velocity": 0, "duration": 96}, {"note": 74, "velocity": 127, "duration": 103}, {"note": 0, "velocity": 0, "duration": 137}, {"note": 71, "velocity": 127, "duration": 225}, {"note": 69, "velocity": 117, "duration": 134}, {"note": 0, "velocity": 0, "duration": 346}, {"note": 76, "velocity": 127, "duration": 134}, {"note": 0, "velocity": 0, "duration": 106}, {"note": 76, "velocity": 127, "duration": 161}, {"note": 0, "velocity": 0, "duration": 79}, {"note": 76, "velocity": 127, "duration": 170}, {"note": 0, "velocity": 0, "duration": 70}, {"note": 78, "velocity": 127, "duration": 178}, {"note": 0, "velocity": 0, "duration": 62}, {"note": 78, "velocity": 127, "duration": 60}, {"note": 78, "velocity": 127, "duration": 144}, {"note": 0, "velocity": 0, "duration": 216}, {"note": 78, "velocity": 112, "duration": 50}, {"note": 0, "velocity": 0, "duration": 70}, {"note": 78, "velocity": 96, "duration": 53}, {"note": 0, "velocity": 0, "duration": 67}, {"note": 79, "velocity": 127, "duration": 137}, {"note": 0, "velocity": 0, "duration": 103}, {"note": 79, "velocity": 127, "duration": 45}, {"note": 0, "velocity": 0, "duration": 75}, {"note": 81, "velocity": 127, "duration": 228}, {"note": 0, "velocity": 0, "duration": 132}, {"note": 78, "velocity": 112, "duration": 75}, {"note": 79, "velocity": 127, "duration": 288}, {"note": 0, "velocity": 0, "duration": 432}, {"note": 64, "velocity": 127, "duration": 80}, {"note": 76, "velocity": 117, "duration": 101}, {"note": 78, "velocity": 117, "duration": 47}, {"note": 0, "velocity": 0, "duration": 73}, {"note": 79, "velocity": 127, "duration": 132}, {"note": 0, "velocity": 0, "duration": 108}, {"note": 78, "velocity": 127, "duration": 50}, {"note": 0, "velocity": 0, "duration": 70}, {"note": 76, "velocity": 127, "duration": 130}, {"note": 0, "velocity": 0, "duration": 230}, {"note": 78, "velocity": 127, "duration": 43}, {"note": 0, "velocity": 0, "duration": 77}, {"note": 79, "velocity": 127, "duration": 216}, {"note": 0, "velocity": 0, "duration": 144}, {"note": 74, "velocity": 127, "duration": 52}, {"note": 0, "velocity": 0, "duration": 68}, {"note": 74, "velocity": 127, "duration": 121}, {"note": 0, "velocity": 0, "duration": 119}, {"note": 81, "velocity": 127, "duration": 135}, {"note": 0, "velocity": 0, "duration": 105}, {"note": 81, "velocity": 127, "duration": 600}, {"note": 0, "velocity": 0, "duration": 120}, {"note": 79, "velocity": 107, "duration": 58}, {"note": 0, "velocity": 0, "duration": 62}, {"note": 86, "velocity": 122, "duration": 61}, {"note": 83, "velocity": 117, "duration": 45}, {"note": 0, "velocity": 0, "duration": 75}, {"note": 81, "velocity": 127, "duration": 455}, {"note": 0, "velocity": 0, "duration": 865}, {"note": 75, "velocity": 122, "duration": 48}, {"note": 0, "velocity": 0, "duration": 72}, {"note": 75, "velocity": 112, "duration": 48}, {"note": 0, "velocity": 0, "duration": 72}, {"note": 75, "velocity": 112, "duration": 45}, {"note": 0, "velocity": 0, "duration": 75}, {"note": 75, "velocity": 112, "duration": 60}, {"note": 80, "velocity": 127, "duration": 42}, {"note": 0, "velocity": 0, "duration": 78}, {"note": 80, "velocity": 127, "duration": 102}, {"note": 79, "velocity": 122, "duration": 50}, {"note": 0, "velocity": 0, "duration": 70}, {"note": 79, "velocity": 127, "duration": 71}, {"note": 77, "velocity": 127, "duration": 38}, {"note": 0, "velocity": 0, "duration": 82}, {"note": 77, "velocity": 127, "duration": 102}, {"note": 0, "velocity": 0, "duration": 138}, {"note": 75, "velocity": 127, "duration": 41}, {"note": 0, "velocity": 0, "duration": 79}, {"note": 75, "velocity": 122, "duration": 42}, {"note": 0, "velocity": 0, "duration": 78}, {"note": 75, "velocity": 127, "duration": 66}, {"note": 72, "velocity": 117, "duration": 36}, {"note": 0, "velocity": 0, "duration": 84}, {"note": 72, "velocity": 112, "duration": 77}, {"note": 75, "velocity": 127, "duration": 43}, {"note": 0, "velocity": 0, "duration": 77}, {"note": 75, "velocity": 127, "duration": 58}, {"note": 0, "velocity": 0, "duration": 62}, {"note": 72, "velocity": 127, "duration": 40}, {"note": 0, "velocity": 0, "duration": 80}, {"note": 72, "velocity": 122, "duration": 67}, {"note": 75, "velocity": 127, "duration": 49}, {"note": 0, "velocity": 0, "duration": 71}, {"note": 75, "velocity": 127, "duration": 79}, {"note": 0, "velocity": 0, "duration": 281}, {"note": 72, "velocity": 112, "duration": 122}, {"note": 70, "velocity": 127, "duration": 367}, {"note": 68, "velocity": 127, "duration": 107}, {"note": 0, "velocity": 0, "duration": 373}, {"note": 75, "velocity": 122, "duration": 39}, {"note": 0, "velocity": 0, "duration": 81}, {"note": 75, "velocity": 107, "duration": 42}, {"note": 0, "velocity": 0, "duration": 78}, {"note": 75, "velocity": 112, "duration": 44}, {"note": 0, "velocity": 0, "duration": 76}, {"note": 75, "velocity": 122, "duration": 50}, {"note": 0, "velocity": 0, "duration": 70}, {"note": 80, "velocity": 127, "duration": 49}, {"note": 0, "velocity": 0, "duration": 71}, {"note": 80, "velocity": 127, "duration": 58}, {"note": 0, "velocity": 0, "duration": 62}, {"note": 79, "velocity": 127, "duration": 34}, {"note": 0, "velocity": 0, "duration": 86}, {"note": 79, "velocity": 127, "duration": 65}, {"note": 77, "velocity": 122, "duration": 37}, {"note": 0, "velocity": 0, "duration": 83}, {"note": 77, "velocity": 127, "duration": 97}, {"note": 0, "velocity": 0, "duration": 143}, {"note": 75, "velocity": 127, "duration": 71}, {"note": 77, "velocity": 122, "duration": 43}, {"note": 0, "velocity": 0, "duration": 77}, {"note": 77, "velocity": 127, "duration": 52}, {"note": 0, "velocity": 0, "duration": 68}, {"note": 75, "velocity": 122, "duration": 36}, {"note": 0, "velocity": 0, "duration": 84}, {"note": 75, "velocity": 127, "duration": 45}, {"note": 0, "velocity": 0, "duration": 75}, {"note": 77, "velocity": 122, "duration": 41}, {"note": 0, "velocity": 0, "duration": 79}, {"note": 77, "velocity": 127, "duration": 50}, {"note": 0, "velocity": 0, "duration": 70}, {"note": 75, "velocity": 112, "duration": 28}, {"note": 0, "velocity": 0, "duration": 92}, {"note": 75, "velocity": 127, "duration": 52}, {"note": 0, "velocity": 0, "duration": 68}, {"note": 77, "velocity": 122, "duration": 39}, {"note": 0, "velocity": 0, "duration": 81}, {"note": 77, "velocity": 127, "duration": 54}, {"note": 0, "velocity": 0, "duration": 66}, {"note": 75, "velocity": 117, "duration": 37}, {"note": 0, "velocity": 0, "duration": 83}, {"note": 75, "velocity": 127, "duration": 192}, {"note": 0, "velocity": 0, "duration": 168}, {"note": 72, "velocity": 127, "duration": 197}, {"note": 75, "velocity": 127, "duration": 113}, {"note": 0, "velocity": 0, "duration": 367}, {"note": 75, "velocity": 117, "duration": 52}, {"note": 0, "velocity": 0, "duration": 68}, {"note": 75, "velocity": 112, "duration": 58}, {"note": 0, "velocity": 0, "duration": 62}, {"note": 75, "velocity": 107, "duration": 52}, {"note": 0, "velocity": 0, "duration": 68}, {"note": 75, "velocity": 117, "duration": 57}, {"note": 0, "velocity": 0, "duration": 63}, {"note": 80, "velocity": 127, "duration": 41}, {"note": 0, "velocity": 0, "duration": 79}, {"note": 80, "velocity": 117, "duration": 91}, {"note": 79, "velocity": 127, "duration": 44}, {"note": 0, "velocity": 0, "duration": 76}, {"note": 79, "velocity": 127, "duration": 74}, {"note": 77, "velocity": 127, "duration": 40}, {"note": 0, "velocity": 0, "duration": 80}, {"note": 77, "velocity": 127, "duration": 96}, {"note": 0, "velocity": 0, "duration": 144}, {"note": 75, "velocity": 127, "duration": 39}, {"note": 0, "velocity": 0, "duration": 81}, {"note": 75, "velocity": 112, "duration": 40}, {"note": 0, "velocity": 0, "duration": 80}, {"note": 75, "velocity": 127, "duration": 92}, {"note": 72, "velocity": 102, "duration": 43}, {"note": 0, "velocity": 0, "duration": 77}, {"note": 72, "velocity": 107, "duration": 55}, {"note": 0, "velocity": 0, "duration": 65}, {"note": 75, "velocity": 127, "duration": 45}, {"note": 0, "velocity": 0, "duration": 75}, {"note": 75, "velocity": 127, "duration": 68}, {"note": 72, "velocity": 100, "duration": 36}, {"note": 0, "velocity": 0, "duration": 84}, {"note": 72, "velocity": 102, "duration": 55}, {"note": 0, "velocity": 0, "duration": 65}, {"note": 75, "velocity": 122, "duration": 49}, {"note": 0, "velocity": 0, "duration": 71}, {"note": 75, "velocity": 127, "duration": 83}, {"note": 0, "velocity": 0, "duration": 277}, {"note": 72, "velocity": 112, "duration": 102}, {"note": 70, "velocity": 117, "duration": 254}, {"note": 0, "velocity": 0, "duration": 106}, {"note": 68, "velocity": 117, "duration": 150}, {"note": 0, "velocity": 0, "duration": 330}, {"note": 75, "velocity": 102, "duration": 43}, {"note": 0, "velocity": 0, "duration": 77}, {"note": 75, "velocity": 122, "duration": 40}, {"note": 0, "velocity": 0, "duration": 80}, {"note": 75, "velocity": 117, "duration": 48}, {"note": 0, "velocity": 0, "duration": 72}, {"note": 75, "velocity": 117, "duration": 64}, {"note": 80, "velocity": 127, "duration": 50}, {"note": 0, "velocity": 0, "duration": 70}, {"note": 80, "velocity": 117, "duration": 57}, {"note": 0, "velocity": 0, "duration": 63}, {"note": 82, "velocity": 127, "duration": 39}, {"note": 0, "velocity": 0, "duration": 81}, {"note": 82, "velocity": 117, "duration": 59}, {"note": 0, "velocity": 0, "duration": 61}, {"note": 79, "velocity": 127, "duration": 46}, {"note": 0, "velocity": 0, "duration": 74}, {"note": 80, "velocity": 122, "duration": 92}, {"note": 0, "velocity": 0, "duration": 148}, {"note": 77, "velocity": 127, "duration": 52}, {"note": 0, "velocity": 0, "duration": 68}, {"note": 79, "velocity": 127, "duration": 47}, {"note": 0, "velocity": 0, "duration": 73}, {"note": 80, "velocity": 127, "duration": 156}, {"note": 0, "velocity": 0, "duration": 84}, {"note": 79, "velocity": 127, "duration": 153}, {"note": 0, "velocity": 0, "duration": 87}, {"note": 77, "velocity": 127, "duration": 99}, {"note": 0, "velocity": 0, "duration": 141}, {"note": 75, "velocity": 127, "duration": 78}, {"note": 77, "velocity": 112, "duration": 51}, {"note": 0, "velocity": 0, "duration": 69}, {"note": 77, "velocity": 127, "duration": 144}, {"note": 0, "velocity": 0, "duration": 96}, {"note": 75, "velocity": 127, "duration": 103}, {"note": 0, "velocity": 0, "duration": 137}, {"note": 72, "velocity": 127, "duration": 225}, {"note": 70, "velocity": 117, "duration": 134}, {"note": 63, "velocity": 99, "duration": 99}, {"note": 70, "velocity": 127, "duration": 97}, {"note": 72, "velocity": 127, "duration": 794}, {"note": 68, "velocity": 99, "duration": 50}, {"note": 68, "velocity": 127, "duration": 599}, {"note": 0, "velocity": 0, "duration": 121}, {"note": 73, "velocity": 127, "duration": 451}, {"note": 0, "velocity": 0, "duration": 269}, {"note": 72, "velocity": 122, "duration": 115}, {"note": 68, "velocity": 97, "duration": 603}, {"note": 0, "velocity": 0, "duration": 459}, {"note": 68, "velocity": 102, "duration": 61}, {"note": 70, "velocity": 89, "duration": 112}, {"note": 72, "velocity": 86, "duration": 94}, {"note": 75, "velocity": 102, "duration": 282}, {"note": 0, "velocity": 0, "duration": 335}, {"note": 63, "velocity": 100, "duration": 91}, {"note": 72, "velocity": 112, "duration": 709}, {"note": 0, "velocity": 0, "duration": 251}, {"note": 73, "velocity": 127, "duration": 327}, {"note": 72, "velocity": 112, "duration": 302}, {"note": 68, "velocity": 95, "duration": 36}, {"note": 0, "velocity": 0, "duration": 84}, {"note": 68, "velocity": 102, "duration": 1090}]]