[[{"note": 68, "velocity": 93, "duration": 181}, {"note": 71, "velocity": 66, "duration": 115}, {"note": 76, "velocity": 78, "duration": 155}, {"note": 75, "velocity": 112, "duration": 305}, {"note": 76, "velocity": 97, "duration": 627}, {"note": 0, "velocity": 0, "duration": 213}, {"note": 73, "velocity": 117, "duration": 224}, {"note": 71, "velocity": 78, "duration": 134}, {"note": 69, "velocity": 93, "duration": 452}, {"note": 0, "velocity": 0, "duration": 1468}, {"note": 68, "velocity": 78, "duration": 71}, {"note": 68, "velocity": 92, "duration": 134}, {"note": 71, "velocity": 65, "duration": 140}, {"note": 76, "velocity": 69, "duration": 166}, {"note": 75, "velocity": 99, "duration": 150}, {"note": 76, "velocity": 88, "duration": 544}, {"note": 0, "velocity": 0, "duration": 416}, {"note": 73, "velocity": 102, "duration": 230}, {"note": 71, "velocity": 66, "duration": 151}, {"note": 73, "velocity": 102, "duration": 700}, {"note": 0, "velocity": 0, "duration": 1220}, {"note": 71, "velocity": 81, "duration": 106}, {"note": 80, "velocity": 97, "duration": 62}, {"note": 80, "velocity": 85, "duration": 58}, {"note": 0, "velocity": 0, "duration": 62}, {"note": 80, "velocity": 93, "duration": 117}, {"note": 76, "velocity": 81, "duration": 130}, {"note": 78, "velocity": 102, "duration": 95}, {"note": 71, "velocity": 89, "duration": 676}, {"note": 0, "velocity": 0, "duration": 644}, {"note": 76, "velocity": 92, "duration": 48}, {"note": 0, "velocity": 0, "duration": 72}, {"note": 76, "velocity": 76, "duration": 41}, {"note": 0, "velocity": 0, "duration": 79}, {"note": 76, "velocity": 85, "duration": 83}, {"note": 73, "velocity": 85, "duration": 124}, {"note": 75, "velocity": 90, "duration": 253}, {"note": 0, "velocity": 0, "duration": 107}, {"note": 75, "velocity": 102, "duration": 426}, {"note": 71, "velocity": 83, "duration": 107}, {"note": 73, "velocity": 117, "duration": 600}, {"note": 0, "velocity": 0, "duration": 120}, {"note": 73, "velocity": 107, "duration": 141}, {"note": 0, "velocity": 0, "duration": 99}, {"note": 73, "velocity": 96, "duration": 113}, {"note": 71, "velocity": 88, "duration": 167}, {"note": 0, "velocity": 0, "duration": 73}, {"note": 71, "velocity": 96, "duration": 115}, {"note": 73, "velocity": 95, "duration": 157}, {"note": 0, "velocity": 0, "duration": 83}, {"note": 64, "velocity": 85, "duration": 509}, {"note": 0, "velocity": 0, "duration": 91}, {"note": 66, "velocity": 96, "duration": 43}, {"note": 0, "velocity": 0, "duration": 77}, {"note": 66, "velocity": 86, "duration": 47}, {"note": 0, "velocity": 0, "duration": 73}, {"note": 66, "velocity": 95, "duration": 100}, {"note": 68, "velocity": 82, "duration": 98}, {"note": 69, "velocity": 90, "duration": 156}, {"note": 76, "velocity": 95, "duration": 188}, {"note": 75, "velocity": 88, "duration": 273}, {"note": 71, "velocity": 93, "duration": 136}, {"note": 73, "velocity": 99, "duration": 197}, {"note": 75, "velocity": 96, "duration": 98}, {"note": 73, "velocity": 107, "duration": 231}, {"note": 71, "velocity": 93, "duration": 640}, {"note": 0, "velocity": 0, "duration": 320}, {"note": 73, "velocity": 100, "duration": 182}, {"note": 68, "velocity": 92, "duration": 125}, {"note": 73, "velocity": 90, "duration": 239}, {"note": 71, "velocity": 81, "duration": 549}, {"note": 0, "velocity": 0, "duration": 171}, {"note": 68, "velocity": 97, "duration": 140}, {"note": 71, "velocity": 72, "duration": 138}, {"note": 76, "velocity": 89, "duration": 139}, {"note": 75, "velocity": 100, "duration": 380}, {"note": 0, "velocity": 0, "duration": 580}, {"note": 76, "velocity": 92, "duration": 117}, {"note": 73, "velocity": 95, "duration": 258}, {"note": 71, "velocity": 77, "duration": 191}, {"note": 69, "velocity": 96, "duration": 416}, {"note": 0, "velocity": 0, "duration": 1624}, {"note": 68, "velocity": 89, "duration": 164}, {"note": 71, "velocity": 60, "duration": 133}, {"note": 76, "velocity": 70, "duration": 145}, {"note": 75, "velocity": 93, "duration": 255}, {"note": 76, "velocity": 83, "duration": 609}, {"note": 0, "velocity": 0, "duration": 111}, {"note": 71, "velocity": 83, "duration": 147}, {"note": 73, "velocity": 112, "duration": 228}, {"note": 71, "velocity": 81, "duration": 152}, {"note": 73, "velocity": 102, "duration": 478}, {"note": 0, "velocity": 0, "duration": 1442}, {"note": 80, "velocity": 112, "duration": 142}, {"note": 0, "velocity": 0, "duration": 98}, {"note": 80, "velocity": 107, "duration": 45}, {"note": 0, "velocity": 0, "duration": 75}, {"note": 80, "velocity": 107, "duration": 97}, {"note": 76, "velocity": 89, "duration": 113}, {"note": 78, "velocity": 100, "duration": 98}, {"note": 0, "velocity": 0, "duration": 142}, {"note": 71, "velocity": 102, "duration": 477}, {"note": 0, "velocity": 0, "duration": 723}, {"note": 76, "velocity": 96, "duration": 48}, {"note": 0, "velocity": 0, "duration": 72}, {"note": 76, "velocity": 76, "duration": 42}, {"note": 0, "velocity": 0, "duration": 78}, {"note": 76, "velocity": 93, "duration": 86}, {"note": 73, "velocity": 95, "duration": 61}, {"note": 75, "velocity": 100, "duration": 229}, {"note": 0, "velocity": 0, "duration": 131}, {"note": 80, "velocity": 117, "duration": 457}, {"note": 75, "velocity": 122, "duration": 148}, {"note": 71, "velocity": 101, "duration": 87}, {"note": 73, "velocity": 122, "duration": 579}, {"note": 75, "velocity": 107, "duration": 45}, {"note": 0, "velocity": 0, "duration": 75}, {"note": 75, "velocity": 99, "duration": 100}, {"note": 76, "velocity": 92, "duration": 77}, {"note": 71, "velocity": 99, "duration": 240}, {"note": 0, "velocity": 0, "duration": 120}, {"note": 76, "velocity": 100, "duration": 238}, {"note": 0, "velocity": 0, "duration": 602}, {"note": 76, "velocity": 99, "duration": 98}, {"note": 73, "velocity": 71, "duration": 96}, {"note": 76, "velocity": 99, "duration": 141}, {"note": 78, "velocity": 112, "duration": 148}, {"note": 0, "velocity": 0, "duration": 92}, {"note": 80, "velocity": 100, "duration": 81}, {"note": 81, "velocity": 100, "duration": 283}, {"note": 78, "velocity": 99, "duration": 125}, {"note": 76, "velocity": 93, "duration": 154}, {"note": 0, "velocity": 0, "duration": 86}, {"note": 78, "velocity": 107, "duration": 132}, {"note": 0, "velocity": 0, "duration": 108}, {"note": 78, "velocity": 112, "duration": 261}, {"note": 76, "velocity": 93, "duration": 814}, {"note": 0, "velocity": 0, "duration": 866}, {"note": 76, "velocity": 95, "duration": 130}, {"note": 80, "velocity": 127, "duration": 84}, {"note": 76, "velocity": 90, "duration": 63}, {"note": 76, "velocity": 82, "duration": 56}, {"note": 0, "velocity": 0, "duration": 64}, {"note": 76, "velocity": 92, "duration": 51}, {"note": 0, "velocity": 0, "duration": 69}, {"note": 76, "velocity": 112, "duration": 75}, {"note": 73, "velocity": 117, "duration": 100}, {"note": 0, "velocity": 0, "duration": 140}, {"note": 73, "velocity": 97, "duration": 78}, {"note": 73, "velocity": 127, "duration": 78}, {"note": 68, "velocity": 122, "duration": 136}, {"note": 0, "velocity": 0, "duration": 104}, {"note": 68, "velocity": 107, "duration": 61}, {"note": 68, "velocity": 117, "duration": 100}, {"note": 80, "velocity": 127, "duration": 334}, {"note": 78, "velocity": 122, "duration": 83}, {"note": 78, "velocity": 122, "duration": 39}, {"note": 0, "velocity": 0, "duration": 81}, {"note": 78, "velocity": 95, "duration": 49}, {"note": 0, "velocity": 0, "duration": 71}, {"note": 78, "velocity": 100, "duration": 43}, {"note": 0, "velocity": 0, "duration": 77}, {"note": 78, "velocity": 107, "duration": 80}, {"note": 75, "velocity": 112, "duration": 123}, {"note": 0, "velocity": 0, "duration": 117}, {"note": 75, "velocity": 127, "duration": 121}, {"note": 0, "velocity": 0, "duration": 119}, {"note": 71, "velocity": 100, "duration": 49}, {"note": 0, "velocity": 0, "duration": 71}, {"note": 71, "velocity": 89, "duration": 50}, {"note": 0, "velocity": 0, "duration": 70}, {"note": 71, "velocity": 92, "duration": 40}, {"note": 0, "velocity": 0, "duration": 80}, {"note": 71, "velocity": 100, "duration": 76}, {"note": 78, "velocity": 127, "duration": 240}, {"note": 76, "velocity": 100, "duration": 152}, {"note": 0, "velocity": 0, "duration": 208}, {"note": 76, "velocity": 112, "duration": 53}, {"note": 0, "velocity": 0, "duration": 67}, {"note": 76, "velocity": 97, "duration": 46}, {"note": 0, "velocity": 0, "duration": 74}, {"note": 76, "velocity": 99, "duration": 48}, {"note": 0, "velocity": 0, "duration": 72}, {"note": 76, "velocity": 117, "duration": 90}, {"note": 0, "velocity": 0, "duration": 150}, {"note": 76, "velocity": 100, "duration": 152}, {"note": 0, "velocity": 0, "duration": 88}, {"note": 75, "velocity": 117, "duration": 124}, {"note": 0, "velocity": 0, "duration": 116}, {"note": 73, "velocity": 122, "duration": 47}, {"note": 0, "velocity": 0, "duration": 73}, {"note": 73, "velocity": 117, "duration": 94}, {"note": 0, "velocity": 0, "duration": 146}, {"note": 76, "velocity": 107, "duration": 161}, {"note": 0, "velocity": 0, "duration": 79}, {"note": 73, "velocity": 127, "duration": 276}, {"note": 0, "velocity": 0, "duration": 84}, {"note": 71, "velocity": 107, "duration": 437}, {"note": 0, "velocity": 0, "duration": 1123}, {"note": 80, "velocity": 127, "duration": 84}, {"note": 76, "velocity": 90, "duration": 63}, {"note": 76, "velocity": 82, "duration": 56}, {"note": 0, "velocity": 0, "duration": 64}, {"note": 76, "velocity": 92, "duration": 51}, {"note": 0, "velocity": 0, "duration": 69}, {"note": 76, "velocity": 112, "duration": 75}, {"note": 73, "velocity": 117, "duration": 100}, {"note": 73, "velocity": 122, "duration": 63}, {"note": 73, "velocity": 97, "duration": 78}, {"note": 73, "velocity": 127, "duration": 78}, {"note": 68, "velocity": 122, "duration": 136}, {"note": 0, "velocity": 0, "duration": 104}, {"note": 68, "velocity": 107, "duration": 61}, {"note": 68, "velocity": 117, "duration": 100}, {"note": 80, "velocity": 127, "duration": 334}, {"note": 0, "velocity": 0, "duration": 266}, {"note": 78, "velocity": 95, "duration": 49}, {"note": 0, "velocity": 0, "duration": 71}, {"note": 78, "velocity": 100, "duration": 43}, {"note": 0, "velocity": 0, "duration": 77}, {"note": 78, "velocity": 107, "duration": 80}, {"note": 75, "velocity": 112, "duration": 123}, {"note": 75, "velocity": 122, "duration": 3}, {"note": 0, "velocity": 0, "duration": 117}, {"note": 75, "velocity": 127, "duration": 59}, {"note": 0, "velocity": 0, "duration": 61}, {"note": 75, "velocity": 117, "duration": 105}, {"note": 71, "velocity": 100, "duration": 49}, {"note": 0, "velocity": 0, "duration": 191}, {"note": 71, "velocity": 100, "duration": 40}, {"note": 0, "velocity": 0, "duration": 80}, {"note": 71, "velocity": 100, "duration": 76}, {"note": 78, "velocity": 127, "duration": 240}, {"note": 76, "velocity": 100, "duration": 152}, {"note": 0, "velocity": 0, "duration": 208}, {"note": 76, "velocity": 112, "duration": 53}, {"note": 0, "velocity": 0, "duration": 67}, {"note": 76, "velocity": 97, "duration": 46}, {"note": 0, "velocity": 0, "duration": 74}, {"note": 76, "velocity": 99, "duration": 48}, {"note": 0, "velocity": 0, "duration": 72}, {"note": 76, "velocity": 117, "duration": 90}, {"note": 0, "velocity": 0, "duration": 150}, {"note": 81, "velocity": 102, "duration": 175}, {"note": 0, "velocity": 0, "duration": 65}, {"note": 80, "velocity": 117, "duration": 146}, {"note": 0, "velocity": 0, "duration": 94}, {"note": 76, "velocity": 89, "duration": 69}, {"note": 76, "velocity": 100, "duration": 154}, {"note": 0, "velocity": 0, "duration": 86}, {"note": 73, "velocity": 127, "duration": 146}, {"note": 0, "velocity": 0, "duration": 94}, {"note": 78, "velocity": 122, "duration": 354}, {"note": 76, "velocity": 95, "duration": 397}, {"note": 0, "velocity": 0, "duration": 17003}, {"note": 68, "velocity": 97, "duration": 140}, {"note": 71, "velocity": 72, "duration": 138}, {"note": 76, "velocity": 89, "duration": 139}, {"note": 75, "velocity": 100, "duration": 380}, {"note": 0, "velocity": 0, "duration": 580}, {"note": 76, "velocity": 92, "duration": 117}, {"note": 73, "velocity": 95, "duration": 258}, {"note": 71, "velocity": 77, "duration": 191}, {"note": 71, "velocity": 112, "duration": 64}, {"note": 0, "velocity": 0, "duration": 158}, {"note": 69, "velocity": 112, "duration": 438}, {"note": 0, "velocity": 0, "duration": 1373}, {"note": 68, "velocity": 89, "duration": 164}, {"note": 71, "velocity": 60, "duration": 133}, {"note": 76, "velocity": 70, "duration": 145}, {"note": 75, "velocity": 93, "duration": 255}, {"note": 76, "velocity": 83, "duration": 609}, {"note": 0, "velocity": 0, "duration": 111}, {"note": 71, "velocity": 83, "duration": 147}, {"note": 73, "velocity": 112, "duration": 228}, {"note": 71, "velocity": 81, "duration": 152}, {"note": 73, "velocity": 102, "duration": 478}, {"note": 0, "velocity": 0, "duration": 1442}, {"note": 80, "velocity": 112, "duration": 142}, {"note": 0, "velocity": 0, "duration": 98}, {"note": 80, "velocity": 107, "duration": 45}, {"note": 0, "velocity": 0, "duration": 75}, {"note": 80, "velocity": 107, "duration": 97}, {"note": 76, "velocity": 89, "duration": 113}, {"note": 78, "velocity": 100, "duration": 98}, {"note": 0, "velocity": 0, "duration": 142}, {"note": 71, "velocity": 102, "duration": 477}, {"note": 0, "velocity": 0, "duration": 723}, {"note": 76, "velocity": 96, "duration": 48}, {"note": 0, "velocity": 0, "duration": 72}, {"note": 76, "velocity": 76, "duration": 42}, {"note": 0, "velocity": 0, "duration": 78}, {"note": 76, "velocity": 93, "duration": 86}, {"note": 73, "velocity": 95, "duration": 61}, {"note": 75, "velocity": 100, "duration": 229}, {"note": 0, "velocity": 0, "duration": 131}, {"note": 80, "velocity": 117, "duration": 457}, {"note": 75, "velocity": 122, "duration": 148}, {"note": 71, "velocity": 101, "duration": 87}, {"note": 73, "velocity": 122, "duration": 579}, {"note": 75, "velocity": 107, "duration": 45}, {"note": 0, "velocity": 0, "duration": 75}, {"note": 75, "velocity": 99, "duration": 100}, {"note": 76, "velocity": 92, "duration": 77}, {"note": 71, "velocity": 99, "duration": 240}, {"note": 0, "velocity": 0, "duration": 120}, {"note": 76, "velocity": 100, "duration": 238}, {"note": 0, "velocity": 0, "duration": 602}, {"note": 76, "velocity": 99, "duration": 98}, {"note": 73, "velocity": 71, "duration": 96}, {"note": 76, "velocity": 99, "duration": 141}, {"note": 78, "velocity": 112, "duration": 148}, {"note": 0, "velocity": 0, "duration": 92}, {"note": 80, "velocity": 100, "duration": 81}, {"note": 81, "velocity": 100, "duration": 283}, {"note": 78, "velocity": 99, "duration": 125}, {"note": 76, "velocity": 93, "duration": 154}, {"note": 0, "velocity": 0, "duration": 86}, {"note": 78, "velocity": 107, "duration": 132}, {"note": 0, "velocity": 0, "duration": 108}, {"note": 78, "velocity": 112, "duration": 261}, {"note": 76, "velocity": 93, "duration": 814}, {"note": 0, "velocity": 0, "duration": 866}, {"note": 76, "velocity": 95, "duration": 130}, {"note": 80, "velocity": 127, "duration": 84}, {"note": 76, "velocity": 90, "duration": 63}, {"note": 76, "velocity": 82, "duration": 56}, {"note": 0, "velocity": 0, "duration": 64}, {"note": 76, "velocity": 92, "duration": 51}, {"note": 0, "velocity": 0, "duration": 69}, {"note": 76, "velocity": 112, "duration": 75}, {"note": 73, "velocity": 117, "duration": 100}, {"note": 0, "velocity": 0, "duration": 140}, {"note": 73, "velocity": 97, "duration": 78}, {"note": 73, "velocity": 127, "duration": 78}, {"note": 68, "velocity": 122, "duration": 136}, {"note": 0, "velocity": 0, "duration": 104}, {"note": 68, "velocity": 107, "duration": 61}, {"note": 68, "velocity": 117, "duration": 100}, {"note": 80, "velocity": 127, "duration": 334}, {"note": 78, "velocity": 122, "duration": 83}, {"note": 78, "velocity": 122, "duration": 39}, {"note": 0, "velocity": 0, "duration": 81}, {"note": 78, "velocity": 95, "duration": 49}, {"note": 0, "velocity": 0, "duration": 71}, {"note": 78, "velocity": 100, "duration": 43}, {"note": 0, "velocity": 0, "duration": 77}, {"note": 78, "velocity": 107, "duration": 80}, {"note": 75, "velocity": 112, "duration": 123}, {"note": 0, "velocity": 0, "duration": 117}, {"note": 75, "velocity": 127, "duration": 121}, {"note": 0, "velocity": 0, "duration": 119}, {"note": 71, "velocity": 100, "duration": 49}, {"note": 0, "velocity": 0, "duration": 71}, {"note": 71, "velocity": 89, "duration": 50}, {"note": 0, "velocity": 0, "duration": 70}, {"note": 71, "velocity": 92, "duration": 40}, {"note": 0, "velocity": 0, "duration": 80}, {"note": 71, "velocity": 100, "duration": 76}, {"note": 78, "velocity": 127, "duration": 240}, {"note": 76, "velocity": 100, "duration": 152}, {"note": 0, "velocity": 0, "duration": 208}, {"note": 76, "velocity": 112, "duration": 53}, {"note": 0, "velocity": 0, "duration": 67}, {"note": 76, "velocity": 97, "duration": 46}, {"note": 0, "velocity": 0, "duration": 74}, {"note": 76, "velocity": 99, "duration": 48}, {"note": 0, "velocity": 0, "duration": 72}, {"note": 76, "velocity": 117, "duration": 90}, {"note": 0, "velocity": 0, "duration": 150}, {"note": 76, "velocity": 100, "duration": 152}, {"note": 0, "velocity": 0, "duration": 88}, {"note": 75, "velocity": 117, "duration": 124}, {"note": 0, "velocity": 0, "duration": 116}, {"note": 73, "velocity": 122, "duration": 47}, {"note": 0, "velocity": 0, "duration": 73}, {"note": 73, "velocity": 117, "duration": 94}, {"note": 0, "velocity": 0, "duration": 146}, {"note": 76, "velocity": 107, "duration": 161}, {"note": 0, "velocity": 0, "duration": 79}, {"note": 73, "velocity": 127, "duration": 276}, {"note": 0, "velocity": 0, "duration": 84}, {"note": 71, "velocity": 107, "duration": 437}, {"note": 0, "velocity": 0, "duration": 1123}, {"note": 80, "velocity": 127, "duration": 84}, {"note": 76, "velocity": 90, "duration": 63}, {"note": 76, "velocity": 82, "duration": 56}, {"note": 0, "velocity": 0, "duration": 64}, {"note": 76, "velocity": 92, "duration": 51}, {"note": 0, "velocity": 0, "duration": 69}, {"note": 76, "velocity": 112, "duration": 75}, {"note": 73, "velocity": 117, "duration": 100}, {"note": 73, "velocity": 122, "duration": 63}, {"note": 73, "velocity": 97, "duration": 78}, {"note": 73, "velocity": 127, "duration": 78}, {"note": 68, "velocity": 122, "duration": 136}, {"note": 0, "velocity": 0, "duration": 104}, {"note": 68, "velocity": 107, "duration": 61}, {"note": 68, "velocity": 117, "duration": 100}, {"note": 80, "velocity": 127, "duration": 334}, {"note": 0, "velocity": 0, "duration": 266}, {"note": 78, "velocity": 95, "duration": 49}, {"note": 0, "velocity": 0, "duration": 71}, {"note": 78, "velocity": 100, "duration": 43}, {"note": 0, "velocity": 0, "duration": 77}, {"note": 78, "velocity": 107, "duration": 80}, {"note": 75, "velocity": 112, "duration": 123}, {"note": 75, "velocity": 122, "duration": 3}, {"note": 0, "velocity": 0, "duration": 117}, {"note": 75, "velocity": 127, "duration": 59}, {"note": 0, "velocity": 0, "duration": 61}, {"note": 75, "velocity": 117, "duration": 105}, {"note": 71, "velocity": 100, "duration": 49}, {"note": 0, "velocity": 0, "duration": 191}, {"note": 71, "velocity": 100, "duration": 40}, {"note": 0, "velocity": 0, "duration": 80}, {"note": 71, "velocity": 100, "duration": 76}, {"note": 78, "velocity": 127, "duration": 240}, {"note": 76, "velocity": 100, "duration": 152}, {"note": 0, "velocity": 0, "duration": 208}, {"note": 76, "velocity": 112, "duration": 53}, {"note": 0, "velocity": 0, "duration": 67}, {"note": 76, "velocity": 97, "duration": 46}, {"note": 0, "velocity": 0, "duration": 74}, {"note": 76, "velocity": 99, "duration": 48}, {"note": 0, "velocity": 0, "duration": 72}, {"note": 76, "velocity": 117, "duration": 90}, {"note": 0, "velocity": 0, "duration": 150}, {"note": 81, "velocity": 102, "duration": 175}, {"note": 0, "velocity": 0, "duration": 65}, {"note": 80, "velocity": 117, "duration": 146}, {"note": 0, "velocity": 0, "duration": 94}, {"note": 76, "velocity": 89, "duration": 69}, {"note": 76, "velocity": 100, "duration": 154}, {"note": 0, "velocity": 0, "duration": 86}, {"note": 73, "velocity": 127, "duration": 146}, {"note": 0, "velocity": 0, "duration": 94}, {"note": 78, "velocity": 122, "duration": 354}, {"note": 76, "velocity": 95, "duration": 397}, {"note": 0, "velocity": 0, "duration": 1043}, {"note": 76, "velocity": 95, "duration": 130}, {"note": 80, "velocity": 127, "duration": 84}, {"note": 76, "velocity": 90, "duration": 63}, {"note": 76, "velocity": 82, "duration": 56}, {"note": 0, "velocity": 0, "duration": 64}, {"note": 76, "velocity": 92, "duration": 51}, {"note": 0, "velocity": 0, "duration": 69}, {"note": 76, "velocity": 112, "duration": 75}, {"note": 73, "velocity": 117, "duration": 100}, {"note": 0, "velocity": 0, "duration": 140}, {"note": 73, "velocity": 97, "duration": 78}, {"note": 73, "velocity": 127, "duration": 78}, {"note": 68, "velocity": 122, "duration": 136}, {"note": 0, "velocity": 0, "duration": 104}, {"note": 68, "velocity": 107, "duration": 61}, {"note": 68, "velocity": 117, "duration": 100}, {"note": 80, "velocity": 127, "duration": 334}, {"note": 78, "velocity": 122, "duration": 83}, {"note": 78, "velocity": 122, "duration": 39}, {"note": 0, "velocity": 0, "duration": 81}, {"note": 78, "velocity": 95, "duration": 49}, {"note": 0, "velocity": 0, "duration": 71}, {"note": 78, "velocity": 100, "duration": 43}, {"note": 0, "velocity": 0, "duration": 77}, {"note": 78, "velocity": 107, "duration": 80}, {"note": 75, "velocity": 112, "duration": 123}, {"note": 0, "velocity": 0, "duration": 117}, {"note": 75, "velocity": 127, "duration": 121}, {"note": 0, "velocity": 0, "duration": 119}, {"note": 71, "velocity": 100, "duration": 49}, {"note": 0, "velocity": 0, "duration": 71}, {"note": 71, "velocity": 89, "duration": 50}, {"note": 0, "velocity": 0, "duration": 70}, {"note": 71, "velocity": 92, "duration": 40}, {"note": 0, "velocity": 0, "duration": 80}, {"note": 71, "velocity": 100, "duration": 76}, {"note": 78, "velocity": 127, "duration": 240}, {"note": 76, "velocity": 100, "duration": 152}, {"note": 0, "velocity": 0, "duration": 208}, {"note": 76, "velocity": 112, "duration": 53}, {"note": 0, "velocity": 0, "duration": 67}, {"note": 76, "velocity": 97, "duration": 46}, {"note": 0, "velocity": 0, "duration": 74}, {"note": 76, "velocity": 99, "duration": 48}, {"note": 0, "velocity": 0, "duration": 72}, {"note": 76, "velocity": 117, "duration": 90}, {"note": 0, "velocity": 0, "duration": 150}, {"note": 76, "velocity": 100, "duration": 152}, {"note": 0, "velocity": 0, "duration": 88}, {"note": 75, "velocity": 117, "duration": 124}, {"note": 0, "velocity": 0, "duration": 116}, {"note": 73, "velocity": 122, "duration": 47}, {"note": 0, "velocity": 0, "duration": 73}, {"note": 73, "velocity": 117, "duration": 94}, {"note": 0, "velocity": 0, "duration": 146}, {"note": 76, "velocity": 107, "duration": 161}, {"note": 0, "velocity": 0, "duration": 79}, {"note": 73, "velocity": 127, "duration": 276}, {"note": 0, "velocity": 0, "duration": 84}, {"note": 71, "velocity": 107, "duration": 437}, {"note": 0, "velocity": 0, "duration": 1123}, {"note": 80, "velocity": 127, "duration": 84}, {"note": 76, "velocity": 90, "duration": 63}, {"note": 76, "velocity": 82, "duration": 56}, {"note": 0, "velocity": 0, "duration": 64}, {"note": 76, "velocity": 92, "duration": 51}, {"note": 0, "velocity": 0, "duration": 69}, {"note": 76, "velocity": 112, "duration": 75}, {"note": 73, "velocity": 117, "duration": 100}, {"note": 73, "velocity": 122, "duration": 63}, {"note": 73, "velocity": 97, "duration": 78}, {"note": 73, "velocity": 127, "duration": 78}, {"note": 68, "velocity": 122, "duration": 136}, {"note": 0, "velocity": 0, "duration": 104}, {"note": 68, "velocity": 107, "duration": 61}, {"note": 68, "velocity": 117, "duration": 100}, {"note": 80, "velocity": 127, "duration": 334}, {"note": 0, "velocity": 0, "duration": 266}, {"note": 78, "velocity": 95, "duration": 49}, {"note": 0, "velocity": 0, "duration": 71}, {"note": 78, "velocity": 100, "duration": 43}, {"note": 0, "velocity": 0, "duration": 77}, {"note": 78, "velocity": 107, "duration": 80}, {"note": 75, "velocity": 112, "duration": 123}, {"note": 75, "velocity": 122, "duration": 3}, {"note": 0, "velocity": 0, "duration": 117}, {"note": 75, "velocity": 127, "duration": 59}, {"note": 0, "velocity": 0, "duration": 61}, {"note": 75, "velocity": 117, "duration": 105}, {"note": 71, "velocity": 100, "duration": 49}, {"note": 0, "velocity": 0, "duration": 191}, {"note": 71, "velocity": 100, "duration": 40}, {"note": 0, "velocity": 0, "duration": 80}, {"note": 71, "velocity": 100, "duration": 76}, {"note": 78, "velocity": 127, "duration": 240}, {"note": 76, "velocity": 100, "duration": 152}, {"note": 0, "velocity": 0, "duration": 208}, {"note": 76, "velocity": 112, "duration": 53}, {"note": 0, "velocity": 0, "duration": 67}, {"note": 76, "velocity": 97, "duration": 46}, {"note": 0, "velocity": 0, "duration": 74}, {"note": 76, "velocity": 99, "duration": 48}, {"note": 0, "velocity": 0, "duration": 72}, {"note": 76, "velocity": 117, "duration": 90}, {"note": 0, "velocity": 0, "duration": 150}, {"note": 81, "velocity": 102, "duration": 175}, {"note": 0, "velocity": 0, "duration": 65}, {"note": 80, "velocity": 117, "duration": 146}, {"note": 0, "velocity": 0, "duration": 94}, {"note": 76, "velocity": 89, "duration": 69}, {"note": 76, "velocity": 100, "duration": 154}, {"note": 0, "velocity": 0, "duration": 86}, {"note": 73, "velocity": 127, "duration": 146}, {"note": 0, "velocity": 0, "duration": 94}, {"note": 78, "velocity": 122, "duration": 354}, {"note": 76, "velocity": 95, "duration": 397}]]