[[{"note": 64, "velocity": 89, "duration": 50}, {"note": 0, "velocity": 0, "duration": 70}, {"note": 64, "velocity": 86, "duration": 111}, {"note": 63, "velocity": 92, "duration": 101}, {"note": 61, "velocity": 59, "duration": 101}, {"note": 59, "velocity": 65, "duration": 70}, {"note": 59, "velocity": 76, "duration": 125}, {"note": 0, "velocity": 0, "duration": 235}, {"note": 56, "velocity": 72, "duration": 101}, {"note": 59, "velocity": 79, "duration": 213}, {"note": 63, "velocity": 90, "duration": 104}, {"note": 59, "velocity": 79, "duration": 152}, {"note": 0, "velocity": 0, "duration": 328}, {"note": 61, "velocity": 72, "duration": 66}, {"note": 61, "velocity": 92, "duration": 121}, {"note": 59, "velocity": 67, "duration": 73}, {"note": 59, "velocity": 75, "duration": 86}, {"note": 57, "velocity": 66, "duration": 66}, {"note": 57, "velocity": 82, "duration": 168}, {"note": 0, "velocity": 0, "duration": 192}, {"note": 64, "velocity": 71, "duration": 67}, {"note": 64, "velocity": 93, "duration": 97}, {"note": 56, "velocity": 67, "duration": 110}, {"note": 0, "velocity": 0, "duration": 130}, {"note": 56, "velocity": 64, "duration": 233}, {"note": 0, "velocity": 0, "duration": 247}, {"note": 59, "velocity": 73, "duration": 51}, {"note": 0, "velocity": 0, "duration": 69}, {"note": 59, "velocity": 88, "duration": 105}, {"note": 57, "velocity": 52, "duration": 58}, {"note": 0, "velocity": 0, "duration": 62}, {"note": 57, "velocity": 74, "duration": 128}, {"note": 56, "velocity": 46, "duration": 136}, {"note": 54, "velocity": 70, "duration": 115}, {"note": 0, "velocity": 0, "duration": 245}, {"note": 57, "velocity": 75, "duration": 60}, {"note": 57, "velocity": 83, "duration": 146}, {"note": 64, "velocity": 89, "duration": 172}, {"note": 0, "velocity": 0, "duration": 68}, {"note": 64, "velocity": 92, "duration": 501}, {"note": 0, "velocity": 0, "duration": 939}, {"note": 59, "velocity": 75, "duration": 67}, {"note": 59, "velocity": 78, "duration": 122}, {"note": 57, "velocity": 72, "duration": 65}, {"note": 57, "velocity": 81, "duration": 472}, {"note": 61, "velocity": 97, "duration": 249}, {"note": 59, "velocity": 83, "duration": 804}, {"note": 64, "velocity": 76, "duration": 40}, {"note": 0, "velocity": 0, "duration": 80}, {"note": 64, "velocity": 102, "duration": 116}, {"note": 63, "velocity": 89, "duration": 54}, {"note": 0, "velocity": 0, "duration": 66}, {"note": 61, "velocity": 100, "duration": 106}, {"note": 59, "velocity": 68, "duration": 69}, {"note": 59, "velocity": 73, "duration": 97}, {"note": 0, "velocity": 0, "duration": 263}, {"note": 56, "velocity": 97, "duration": 92}, {"note": 59, "velocity": 88, "duration": 271}, {"note": 63, "velocity": 83, "duration": 119}, {"note": 59, "velocity": 78, "duration": 345}, {"note": 0, "velocity": 0, "duration": 135}, {"note": 61, "velocity": 96, "duration": 41}, {"note": 0, "velocity": 0, "duration": 79}, {"note": 61, "velocity": 107, "duration": 116}, {"note": 59, "velocity": 78, "duration": 54}, {"note": 0, "velocity": 0, "duration": 66}, {"note": 59, "velocity": 82, "duration": 87}, {"note": 57, "velocity": 77, "duration": 54}, {"note": 0, "velocity": 0, "duration": 66}, {"note": 57, "velocity": 89, "duration": 154}, {"note": 0, "velocity": 0, "duration": 206}, {"note": 64, "velocity": 89, "duration": 45}, {"note": 0, "velocity": 0, "duration": 75}, {"note": 64, "velocity": 97, "duration": 116}, {"note": 56, "velocity": 72, "duration": 65}, {"note": 0, "velocity": 0, "duration": 175}, {"note": 56, "velocity": 75, "duration": 157}, {"note": 0, "velocity": 0, "duration": 323}, {"note": 59, "velocity": 81, "duration": 33}, {"note": 0, "velocity": 0, "duration": 87}, {"note": 59, "velocity": 88, "duration": 120}, {"note": 57, "velocity": 81, "duration": 48}, {"note": 0, "velocity": 0, "duration": 72}, {"note": 57, "velocity": 73, "duration": 101}, {"note": 56, "velocity": 61, "duration": 65}, {"note": 54, "velocity": 97, "duration": 105}, {"note": 0, "velocity": 0, "duration": 255}, {"note": 57, "velocity": 85, "duration": 49}, {"note": 0, "velocity": 0, "duration": 71}, {"note": 57, "velocity": 89, "duration": 130}, {"note": 64, "velocity": 86, "duration": 172}, {"note": 0, "velocity": 0, "duration": 68}, {"note": 64, "velocity": 86, "duration": 260}, {"note": 0, "velocity": 0, "duration": 460}, {"note": 59, "velocity": 92, "duration": 48}, {"note": 0, "velocity": 0, "duration": 72}, {"note": 59, "velocity": 82, "duration": 109}, {"note": 57, "velocity": 78, "duration": 42}, {"note": 0, "velocity": 0, "duration": 78}, {"note": 57, "velocity": 85, "duration": 183}, {"note": 0, "velocity": 0, "duration": 177}, {"note": 64, "velocity": 95, "duration": 121}, {"note": 66, "velocity": 100, "duration": 163}, {"note": 0, "velocity": 0, "duration": 77}, {"note": 66, "velocity": 117, "duration": 916}, {"note": 0, "velocity": 0, "duration": 644}, {"note": 59, "velocity": 93, "duration": 120}, {"note": 66, "velocity": 107, "duration": 106}, {"note": 71, "velocity": 95, "duration": 63}, {"note": 71, "velocity": 95, "duration": 117}, {"note": 66, "velocity": 85, "duration": 141}, {"note": 68, "velocity": 95, "duration": 207}, {"note": 66, "velocity": 97, "duration": 128}, {"note": 64, "velocity": 88, "duration": 105}, {"note": 63, "velocity": 93, "duration": 285}, {"note": 0, "velocity": 0, "duration": 75}, {"note": 71, "velocity": 102, "duration": 50}, {"note": 0, "velocity": 0, "duration": 70}, {"note": 71, "velocity": 102, "duration": 152}, {"note": 0, "velocity": 0, "duration": 208}, {"note": 63, "velocity": 100, "duration": 116}, {"note": 61, "velocity": 95, "duration": 97}, {"note": 69, "velocity": 96, "duration": 69}, {"note": 69, "velocity": 100, "duration": 222}, {"note": 0, "velocity": 0, "duration": 258}, {"note": 69, "velocity": 107, "duration": 99}, {"note": 71, "velocity": 88, "duration": 97}, {"note": 68, "velocity": 112, "duration": 243}, {"note": 66, "velocity": 97, "duration": 437}, {"note": 0, "velocity": 0, "duration": 163}, {"note": 59, "velocity": 96, "duration": 123}, {"note": 61, "velocity": 102, "duration": 118}, {"note": 64, "velocity": 96, "duration": 58}, {"note": 0, "velocity": 0, "duration": 62}, {"note": 64, "velocity": 89, "duration": 99}, {"note": 66, "velocity": 96, "duration": 81}, {"note": 61, "velocity": 100, "duration": 180}, {"note": 0, "velocity": 0, "duration": 180}, {"note": 59, "velocity": 93, "duration": 57}, {"note": 0, "velocity": 0, "duration": 63}, {"note": 71, "velocity": 100, "duration": 100}, {"note": 66, "velocity": 107, "duration": 95}, {"note": 0, "velocity": 0, "duration": 145}, {"note": 71, "velocity": 97, "duration": 65}, {"note": 68, "velocity": 99, "duration": 225}, {"note": 0, "velocity": 0, "duration": 135}, {"note": 68, "velocity": 117, "duration": 38}, {"note": 0, "velocity": 0, "duration": 82}, {"note": 69, "velocity": 107, "duration": 113}, {"note": 68, "velocity": 92, "duration": 105}, {"note": 66, "velocity": 97, "duration": 98}, {"note": 64, "velocity": 85, "duration": 46}, {"note": 0, "velocity": 0, "duration": 74}, {"note": 64, "velocity": 92, "duration": 134}, {"note": 61, "velocity": 112, "duration": 56}, {"note": 0, "velocity": 0, "duration": 184}, {"note": 69, "velocity": 97, "duration": 194}, {"note": 68, "velocity": 96, "duration": 56}, {"note": 0, "velocity": 0, "duration": 64}, {"note": 68, "velocity": 100, "duration": 119}, {"note": 66, "velocity": 86, "duration": 55}, {"note": 0, "velocity": 0, "duration": 65}, {"note": 66, "velocity": 100, "duration": 195}, {"note": 0, "velocity": 0, "duration": 165}, {"note": 59, "velocity": 93, "duration": 120}, {"note": 66, "velocity": 107, "duration": 106}, {"note": 71, "velocity": 95, "duration": 63}, {"note": 71, "velocity": 95, "duration": 117}, {"note": 66, "velocity": 85, "duration": 141}, {"note": 68, "velocity": 95, "duration": 207}, {"note": 66, "velocity": 97, "duration": 128}, {"note": 64, "velocity": 88, "duration": 105}, {"note": 63, "velocity": 93, "duration": 285}, {"note": 0, "velocity": 0, "duration": 75}, {"note": 71, "velocity": 102, "duration": 50}, {"note": 0, "velocity": 0, "duration": 70}, {"note": 71, "velocity": 102, "duration": 152}, {"note": 0, "velocity": 0, "duration": 208}, {"note": 63, "velocity": 100, "duration": 116}, {"note": 61, "velocity": 95, "duration": 97}, {"note": 69, "velocity": 96, "duration": 69}, {"note": 69, "velocity": 100, "duration": 222}, {"note": 0, "velocity": 0, "duration": 258}, {"note": 69, "velocity": 107, "duration": 99}, {"note": 71, "velocity": 88, "duration": 97}, {"note": 68, "velocity": 112, "duration": 243}, {"note": 66, "velocity": 97, "duration": 437}, {"note": 0, "velocity": 0, "duration": 163}, {"note": 59, "velocity": 96, "duration": 123}, {"note": 61, "velocity": 102, "duration": 118}, {"note": 64, "velocity": 96, "duration": 58}, {"note": 0, "velocity": 0, "duration": 62}, {"note": 64, "velocity": 89, "duration": 99}, {"note": 66, "velocity": 96, "duration": 81}, {"note": 61, "velocity": 100, "duration": 180}, {"note": 0, "velocity": 0, "duration": 180}, {"note": 59, "velocity": 93, "duration": 57}, {"note": 0, "velocity": 0, "duration": 63}, {"note": 71, "velocity": 100, "duration": 100}, {"note": 66, "velocity": 107, "duration": 95}, {"note": 0, "velocity": 0, "duration": 145}, {"note": 71, "velocity": 97, "duration": 65}, {"note": 68, "velocity": 99, "duration": 225}, {"note": 0, "velocity": 0, "duration": 135}, {"note": 68, "velocity": 117, "duration": 38}, {"note": 0, "velocity": 0, "duration": 82}, {"note": 69, "velocity": 107, "duration": 113}, {"note": 68, "velocity": 92, "duration": 105}, {"note": 66, "velocity": 97, "duration": 98}, {"note": 64, "velocity": 85, "duration": 46}, {"note": 0, "velocity": 0, "duration": 74}, {"note": 64, "velocity": 92, "duration": 134}, {"note": 61, "velocity": 112, "duration": 56}, {"note": 0, "velocity": 0, "duration": 304}, {"note": 69, "velocity": 117, "duration": 118}, {"note": 71, "velocity": 102, "duration": 161}, {"note": 0, "velocity": 0, "duration": 199}, {"note": 68, "velocity": 107, "duration": 142}, {"note": 0, "velocity": 0, "duration": 98}, {"note": 66, "velocity": 97, "duration": 60}, {"note": 66, "velocity": 97, "duration": 923}, {"note": 0, "velocity": 0, "duration": 637}, {"note": 59, "velocity": 97, "duration": 111}, {"note": 0, "velocity": 0, "duration": 129}, {"note": 66, "velocity": 97, "duration": 196}, {"note": 0, "velocity": 0, "duration": 164}, {"note": 61, "velocity": 95, "duration": 196}, {"note": 64, "velocity": 92, "duration": 799}, {"note": 0, "velocity": 0, "duration": 6401}, {"note": 64, "velocity": 76, "duration": 40}, {"note": 0, "velocity": 0, "duration": 80}, {"note": 64, "velocity": 102, "duration": 116}, {"note": 63, "velocity": 89, "duration": 54}, {"note": 0, "velocity": 0, "duration": 66}, {"note": 61, "velocity": 100, "duration": 106}, {"note": 59, "velocity": 68, "duration": 69}, {"note": 59, "velocity": 73, "duration": 97}, {"note": 0, "velocity": 0, "duration": 263}, {"note": 56, "velocity": 97, "duration": 92}, {"note": 59, "velocity": 88, "duration": 271}, {"note": 63, "velocity": 83, "duration": 119}, {"note": 59, "velocity": 78, "duration": 345}, {"note": 0, "velocity": 0, "duration": 135}, {"note": 61, "velocity": 96, "duration": 41}, {"note": 0, "velocity": 0, "duration": 79}, {"note": 61, "velocity": 107, "duration": 116}, {"note": 59, "velocity": 78, "duration": 54}, {"note": 0, "velocity": 0, "duration": 66}, {"note": 59, "velocity": 82, "duration": 87}, {"note": 57, "velocity": 77, "duration": 54}, {"note": 0, "velocity": 0, "duration": 66}, {"note": 57, "velocity": 89, "duration": 154}, {"note": 0, "velocity": 0, "duration": 206}, {"note": 64, "velocity": 89, "duration": 45}, {"note": 0, "velocity": 0, "duration": 75}, {"note": 64, "velocity": 97, "duration": 116}, {"note": 56, "velocity": 72, "duration": 65}, {"note": 0, "velocity": 0, "duration": 175}, {"note": 56, "velocity": 75, "duration": 157}, {"note": 0, "velocity": 0, "duration": 323}, {"note": 59, "velocity": 81, "duration": 33}, {"note": 0, "velocity": 0, "duration": 87}, {"note": 59, "velocity": 88, "duration": 120}, {"note": 57, "velocity": 81, "duration": 48}, {"note": 0, "velocity": 0, "duration": 72}, {"note": 57, "velocity": 73, "duration": 101}, {"note": 56, "velocity": 61, "duration": 65}, {"note": 54, "velocity": 97, "duration": 105}, {"note": 0, "velocity": 0, "duration": 255}, {"note": 57, "velocity": 85, "duration": 49}, {"note": 0, "velocity": 0, "duration": 71}, {"note": 57, "velocity": 89, "duration": 130}, {"note": 64, "velocity": 86, "duration": 172}, {"note": 0, "velocity": 0, "duration": 68}, {"note": 64, "velocity": 86, "duration": 260}, {"note": 0, "velocity": 0, "duration": 460}, {"note": 59, "velocity": 92, "duration": 48}, {"note": 0, "velocity": 0, "duration": 72}, {"note": 59, "velocity": 82, "duration": 109}, {"note": 57, "velocity": 78, "duration": 42}, {"note": 0, "velocity": 0, "duration": 78}, {"note": 57, "velocity": 85, "duration": 183}, {"note": 0, "velocity": 0, "duration": 177}, {"note": 64, "velocity": 95, "duration": 121}, {"note": 66, "velocity": 100, "duration": 163}, {"note": 0, "velocity": 0, "duration": 77}, {"note": 66, "velocity": 117, "duration": 916}, {"note": 0, "velocity": 0, "duration": 644}, {"note": 59, "velocity": 93, "duration": 120}, {"note": 66, "velocity": 107, "duration": 106}, {"note": 71, "velocity": 95, "duration": 63}, {"note": 71, "velocity": 95, "duration": 117}, {"note": 66, "velocity": 85, "duration": 141}, {"note": 68, "velocity": 95, "duration": 207}, {"note": 66, "velocity": 97, "duration": 128}, {"note": 64, "velocity": 88, "duration": 105}, {"note": 63, "velocity": 93, "duration": 285}, {"note": 0, "velocity": 0, "duration": 75}, {"note": 71, "velocity": 102, "duration": 50}, {"note": 0, "velocity": 0, "duration": 70}, {"note": 71, "velocity": 102, "duration": 152}, {"note": 0, "velocity": 0, "duration": 208}, {"note": 63, "velocity": 100, "duration": 116}, {"note": 61, "velocity": 95, "duration": 97}, {"note": 69, "velocity": 96, "duration": 69}, {"note": 69, "velocity": 100, "duration": 222}, {"note": 0, "velocity": 0, "duration": 258}, {"note": 69, "velocity": 107, "duration": 99}, {"note": 71, "velocity": 88, "duration": 97}, {"note": 68, "velocity": 112, "duration": 243}, {"note": 66, "velocity": 97, "duration": 437}, {"note": 0, "velocity": 0, "duration": 163}, {"note": 59, "velocity": 96, "duration": 123}, {"note": 61, "velocity": 102, "duration": 118}, {"note": 64, "velocity": 96, "duration": 58}, {"note": 0, "velocity": 0, "duration": 62}, {"note": 64, "velocity": 89, "duration": 99}, {"note": 66, "velocity": 96, "duration": 81}, {"note": 61, "velocity": 100, "duration": 180}, {"note": 0, "velocity": 0, "duration": 180}, {"note": 59, "velocity": 93, "duration": 57}, {"note": 0, "velocity": 0, "duration": 63}, {"note": 71, "velocity": 100, "duration": 100}, {"note": 66, "velocity": 107, "duration": 95}, {"note": 0, "velocity": 0, "duration": 145}, {"note": 71, "velocity": 97, "duration": 65}, {"note": 68, "velocity": 99, "duration": 225}, {"note": 0, "velocity": 0, "duration": 135}, {"note": 68, "velocity": 117, "duration": 38}, {"note": 0, "velocity": 0, "duration": 82}, {"note": 69, "velocity": 107, "duration": 113}, {"note": 68, "velocity": 92, "duration": 105}, {"note": 66, "velocity": 97, "duration": 98}, {"note": 64, "velocity": 85, "duration": 46}, {"note": 0, "velocity": 0, "duration": 74}, {"note": 64, "velocity": 92, "duration": 134}, {"note": 61, "velocity": 112, "duration": 56}, {"note": 0, "velocity": 0, "duration": 184}, {"note": 69, "velocity": 97, "duration": 194}, {"note": 68, "velocity": 96, "duration": 56}, {"note": 0, "velocity": 0, "duration": 64}, {"note": 68, "velocity": 100, "duration": 119}, {"note": 66, "velocity": 86, "duration": 55}, {"note": 0, "velocity": 0, "duration": 65}, {"note": 66, "velocity": 100, "duration": 195}, {"note": 0, "velocity": 0, "duration": 165}, {"note": 59, "velocity": 93, "duration": 120}, {"note": 66, "velocity": 107, "duration": 106}, {"note": 71, "velocity": 95, "duration": 63}, {"note": 71, "velocity": 95, "duration": 117}, {"note": 66, "velocity": 85, "duration": 141}, {"note": 68, "velocity": 95, "duration": 207}, {"note": 66, "velocity": 97, "duration": 128}, {"note": 64, "velocity": 88, "duration": 105}, {"note": 63, "velocity": 93, "duration": 285}, {"note": 0, "velocity": 0, "duration": 75}, {"note": 71, "velocity": 102, "duration": 50}, {"note": 0, "velocity": 0, "duration": 70}, {"note": 71, "velocity": 102, "duration": 152}, {"note": 0, "velocity": 0, "duration": 208}, {"note": 63, "velocity": 100, "duration": 116}, {"note": 61, "velocity": 95, "duration": 97}, {"note": 69, "velocity": 96, "duration": 69}, {"note": 69, "velocity": 100, "duration": 222}, {"note": 0, "velocity": 0, "duration": 258}, {"note": 69, "velocity": 107, "duration": 99}, {"note": 71, "velocity": 88, "duration": 97}, {"note": 68, "velocity": 112, "duration": 243}, {"note": 66, "velocity": 97, "duration": 437}, {"note": 0, "velocity": 0, "duration": 163}, {"note": 59, "velocity": 96, "duration": 123}, {"note": 61, "velocity": 102, "duration": 118}, {"note": 64, "velocity": 96, "duration": 58}, {"note": 0, "velocity": 0, "duration": 62}, {"note": 64, "velocity": 89, "duration": 99}, {"note": 66, "velocity": 96, "duration": 81}, {"note": 61, "velocity": 100, "duration": 180}, {"note": 0, "velocity": 0, "duration": 180}, {"note": 59, "velocity": 93, "duration": 57}, {"note": 0, "velocity": 0, "duration": 63}, {"note": 71, "velocity": 100, "duration": 100}, {"note": 66, "velocity": 107, "duration": 95}, {"note": 0, "velocity": 0, "duration": 145}, {"note": 71, "velocity": 97, "duration": 65}, {"note": 68, "velocity": 99, "duration": 225}, {"note": 0, "velocity": 0, "duration": 135}, {"note": 68, "velocity": 117, "duration": 38}, {"note": 0, "velocity": 0, "duration": 82}, {"note": 69, "velocity": 107, "duration": 113}, {"note": 68, "velocity": 92, "duration": 105}, {"note": 66, "velocity": 97, "duration": 98}, {"note": 64, "velocity": 85, "duration": 46}, {"note": 0, "velocity": 0, "duration": 74}, {"note": 64, "velocity": 92, "duration": 134}, {"note": 61, "velocity": 112, "duration": 56}, {"note": 0, "velocity": 0, "duration": 304}, {"note": 69, "velocity": 117, "duration": 118}, {"note": 71, "velocity": 102, "duration": 161}, {"note": 0, "velocity": 0, "duration": 199}, {"note": 68, "velocity": 107, "duration": 142}, {"note": 0, "velocity": 0, "duration": 98}, {"note": 66, "velocity": 97, "duration": 60}, {"note": 66, "velocity": 97, "duration": 923}, {"note": 0, "velocity": 0, "duration": 1357}, {"note": 63, "velocity": 127, "duration": 64}, {"note": 63, "velocity": 93, "duration": 66}, {"note": 63, "velocity": 127, "duration": 257}, {"note": 0, "velocity": 0, "duration": 103}, {"note": 66, "velocity": 117, "duration": 69}, {"note": 66, "velocity": 122, "duration": 249}, {"note": 64, "velocity": 117, "duration": 370}, {"note": 63, "velocity": 122, "duration": 143}, {"note": 0, "velocity": 0, "duration": 97}, {"note": 61, "velocity": 117, "duration": 105}, {"note": 59, "velocity": 99, "duration": 105}, {"note": 56, "velocity": 86, "duration": 91}, {"note": 59, "velocity": 102, "duration": 216}, {"note": 0, "velocity": 0, "duration": 144}, {"note": 66, "velocity": 102, "duration": 154}, {"note": 0, "velocity": 0, "duration": 86}, {"note": 68, "velocity": 122, "duration": 48}, {"note": 0, "velocity": 0, "duration": 72}, {"note": 68, "velocity": 127, "duration": 100}, {"note": 66, "velocity": 122, "duration": 67}, {"note": 64, "velocity": 112, "duration": 192}, {"note": 0, "velocity": 0, "duration": 168}, {"note": 64, "velocity": 117, "duration": 159}, {"note": 0, "velocity": 0, "duration": 81}, {"note": 63, "velocity": 122, "duration": 117}, {"note": 61, "velocity": 122, "duration": 44}, {"note": 0, "velocity": 0, "duration": 76}, {"note": 61, "velocity": 122, "duration": 48}, {"note": 0, "velocity": 0, "duration": 72}, {"note": 61, "velocity": 127, "duration": 94}, {"note": 61, "velocity": 107, "duration": 54}, {"note": 0, "velocity": 0, "duration": 66}, {"note": 61, "velocity": 117, "duration": 57}, {"note": 0, "velocity": 0, "duration": 63}, {"note": 61, "velocity": 127, "duration": 105}, {"note": 0, "velocity": 0, "duration": 255}, {"note": 59, "velocity": 112, "duration": 163}, {"note": 0, "velocity": 0, "duration": 77}, {"note": 61, "velocity": 127, "duration": 53}, {"note": 0, "velocity": 0, "duration": 67}, {"note": 63, "velocity": 127, "duration": 166}, {"note": 0, "velocity": 0, "duration": 194}, {"note": 61, "velocity": 127, "duration": 45}, {"note": 0, "velocity": 0, "duration": 75}, {"note": 63, "velocity": 117, "duration": 63}, {"note": 64, "velocity": 112, "duration": 50}, {"note": 0, "velocity": 0, "duration": 70}, {"note": 64, "velocity": 102, "duration": 43}, {"note": 0, "velocity": 0, "duration": 77}, {"note": 64, "velocity": 112, "duration": 59}, {"note": 0, "velocity": 0, "duration": 61}, {"note": 61, "velocity": 122, "duration": 50}, {"note": 0, "velocity": 0, "duration": 70}, {"note": 64, "velocity": 112, "duration": 82}, {"note": 73, "velocity": 127, "duration": 304}, {"note": 71, "velocity": 127, "duration": 721}, {"note": 0, "velocity": 0, "duration": 1079}, {"note": 59, "velocity": 93, "duration": 120}, {"note": 66, "velocity": 107, "duration": 106}, {"note": 71, "velocity": 95, "duration": 63}, {"note": 71, "velocity": 95, "duration": 117}, {"note": 66, "velocity": 85, "duration": 141}, {"note": 68, "velocity": 95, "duration": 207}, {"note": 66, "velocity": 97, "duration": 128}, {"note": 64, "velocity": 88, "duration": 105}, {"note": 63, "velocity": 93, "duration": 285}, {"note": 0, "velocity": 0, "duration": 75}, {"note": 71, "velocity": 102, "duration": 50}, {"note": 0, "velocity": 0, "duration": 70}, {"note": 71, "velocity": 102, "duration": 152}, {"note": 0, "velocity": 0, "duration": 208}, {"note": 63, "velocity": 100, "duration": 116}, {"note": 61, "velocity": 95, "duration": 97}, {"note": 69, "velocity": 96, "duration": 69}, {"note": 69, "velocity": 100, "duration": 222}, {"note": 0, "velocity": 0, "duration": 258}, {"note": 69, "velocity": 107, "duration": 99}, {"note": 71, "velocity": 88, "duration": 97}, {"note": 68, "velocity": 112, "duration": 243}, {"note": 66, "velocity": 97, "duration": 437}, {"note": 0, "velocity": 0, "duration": 163}, {"note": 59, "velocity": 96, "duration": 123}, {"note": 61, "velocity": 102, "duration": 118}, {"note": 64, "velocity": 96, "duration": 58}, {"note": 0, "velocity": 0, "duration": 62}, {"note": 64, "velocity": 89, "duration": 99}, {"note": 66, "velocity": 96, "duration": 81}, {"note": 61, "velocity": 100, "duration": 180}, {"note": 0, "velocity": 0, "duration": 180}, {"note": 59, "velocity": 93, "duration": 57}, {"note": 0, "velocity": 0, "duration": 63}, {"note": 71, "velocity": 100, "duration": 100}, {"note": 66, "velocity": 107, "duration": 95}, {"note": 0, "velocity": 0, "duration": 145}, {"note": 71, "velocity": 97, "duration": 65}, {"note": 68, "velocity": 99, "duration": 225}, {"note": 0, "velocity": 0, "duration": 135}, {"note": 68, "velocity": 117, "duration": 38}, {"note": 0, "velocity": 0, "duration": 82}, {"note": 69, "velocity": 107, "duration": 113}, {"note": 68, "velocity": 92, "duration": 105}, {"note": 66, "velocity": 97, "duration": 98}, {"note": 64, "velocity": 85, "duration": 46}, {"note": 0, "velocity": 0, "duration": 74}, {"note": 64, "velocity": 92, "duration": 134}, {"note": 61, "velocity": 112, "duration": 56}, {"note": 0, "velocity": 0, "duration": 184}, {"note": 69, "velocity": 97, "duration": 194}, {"note": 68, "velocity": 96, "duration": 56}, {"note": 0, "velocity": 0, "duration": 64}, {"note": 68, "velocity": 100, "duration": 119}, {"note": 66, "velocity": 86, "duration": 55}, {"note": 0, "velocity": 0, "duration": 65}, {"note": 66, "velocity": 100, "duration": 195}, {"note": 0, "velocity": 0, "duration": 165}, {"note": 59, "velocity": 93, "duration": 120}, {"note": 66, "velocity": 107, "duration": 106}, {"note": 71, "velocity": 95, "duration": 63}, {"note": 71, "velocity": 95, "duration": 117}, {"note": 66, "velocity": 85, "duration": 141}, {"note": 68, "velocity": 95, "duration": 207}, {"note": 66, "velocity": 97, "duration": 128}, {"note": 64, "velocity": 88, "duration": 105}, {"note": 63, "velocity": 93, "duration": 285}, {"note": 0, "velocity": 0, "duration": 75}, {"note": 71, "velocity": 102, "duration": 50}, {"note": 0, "velocity": 0, "duration": 70}, {"note": 71, "velocity": 102, "duration": 152}, {"note": 0, "velocity": 0, "duration": 208}, {"note": 63, "velocity": 100, "duration": 116}, {"note": 61, "velocity": 95, "duration": 97}, {"note": 69, "velocity": 96, "duration": 69}, {"note": 69, "velocity": 100, "duration": 222}, {"note": 0, "velocity": 0, "duration": 258}, {"note": 69, "velocity": 107, "duration": 99}, {"note": 71, "velocity": 88, "duration": 97}, {"note": 68, "velocity": 112, "duration": 243}, {"note": 66, "velocity": 97, "duration": 437}, {"note": 0, "velocity": 0, "duration": 163}, {"note": 59, "velocity": 96, "duration": 123}, {"note": 61, "velocity": 102, "duration": 118}, {"note": 64, "velocity": 96, "duration": 58}, {"note": 0, "velocity": 0, "duration": 62}, {"note": 64, "velocity": 89, "duration": 99}, {"note": 66, "velocity": 96, "duration": 81}, {"note": 61, "velocity": 100, "duration": 180}, {"note": 0, "velocity": 0, "duration": 180}, {"note": 59, "velocity": 93, "duration": 57}, {"note": 0, "velocity": 0, "duration": 63}, {"note": 71, "velocity": 100, "duration": 100}, {"note": 66, "velocity": 107, "duration": 95}, {"note": 0, "velocity": 0, "duration": 145}, {"note": 71, "velocity": 97, "duration": 65}, {"note": 68, "velocity": 99, "duration": 225}, {"note": 0, "velocity": 0, "duration": 135}, {"note": 68, "velocity": 117, "duration": 38}, {"note": 0, "velocity": 0, "duration": 82}, {"note": 69, "velocity": 107, "duration": 113}, {"note": 68, "velocity": 92, "duration": 105}, {"note": 66, "velocity": 97, "duration": 98}, {"note": 64, "velocity": 85, "duration": 46}, {"note": 0, "velocity": 0, "duration": 74}, {"note": 64, "velocity": 92, "duration": 134}, {"note": 61, "velocity": 112, "duration": 56}, {"note": 0, "velocity": 0, "duration": 304}, {"note": 69, "velocity": 117, "duration": 118}, {"note": 71, "velocity": 102, "duration": 161}, {"note": 0, "velocity": 0, "duration": 199}, {"note": 68, "velocity": 107, "duration": 142}, {"note": 0, "velocity": 0, "duration": 98}, {"note": 66, "velocity": 97, "duration": 60}, {"note": 66, "velocity": 97, "duration": 923}, {"note": 0, "velocity": 0, "duration": 785}, {"note": 59, "velocity": 97, "duration": 111}, {"note": 0, "velocity": 0, "duration": 129}, {"note": 66, "velocity": 97, "duration": 196}, {"note": 0, "velocity": 0, "duration": 374}, {"note": 61, "velocity": 95, "duration": 196}, {"note": 64, "velocity": 92, "duration": 799}]]