[[{"note": 67, "velocity": 99, "duration": 158}, {"note": 0, "velocity": 0, "duration": 82}, {"note": 67, "velocity": 93, "duration": 47}, {"note": 0, "velocity": 0, "duration": 73}, {"note": 67, "velocity": 93, "duration": 48}, {"note": 0, "velocity": 0, "duration": 72}, {"note": 67, "velocity": 95, "duration": 148}, {"note": 0, "velocity": 0, "duration": 92}, {"note": 72, "velocity": 100, "duration": 201}, {"note": 69, "velocity": 92, "duration": 627}, {"note": 0, "velocity": 0, "duration": 213}, {"note": 69, "velocity": 99, "duration": 101}, {"note": 67, "velocity": 97, "duration": 125}, {"note": 0, "velocity": 0, "duration": 115}, {"note": 69, "velocity": 100, "duration": 83}, {"note": 67, "velocity": 93, "duration": 133}, {"note": 0, "velocity": 0, "duration": 107}, {"note": 65, "velocity": 100, "duration": 323}, {"note": 64, "velocity": 88, "duration": 231}, {"note": 65, "velocity": 81, "duration": 140}, {"note": 67, "velocity": 97, "duration": 326}, {"note": 0, "velocity": 0, "duration": 394}, {"note": 67, "velocity": 100, "duration": 155}, {"note": 0, "velocity": 0, "duration": 85}, {"note": 67, "velocity": 92, "duration": 48}, {"note": 0, "velocity": 0, "duration": 72}, {"note": 67, "velocity": 79, "duration": 47}, {"note": 0, "velocity": 0, "duration": 73}, {"note": 67, "velocity": 97, "duration": 161}, {"note": 0, "velocity": 0, "duration": 79}, {"note": 72, "velocity": 100, "duration": 68}, {"note": 72, "velocity": 99, "duration": 179}, {"note": 0, "velocity": 0, "duration": 61}, {"note": 69, "velocity": 100, "duration": 546}, {"note": 0, "velocity": 0, "duration": 174}, {"note": 69, "velocity": 99, "duration": 99}, {"note": 67, "velocity": 93, "duration": 215}, {"note": 74, "velocity": 122, "duration": 69}, {"note": 74, "velocity": 36, "duration": 48}, {"note": 0, "velocity": 0, "duration": 72}, {"note": 74, "velocity": 107, "duration": 136}, {"note": 71, "velocity": 81, "duration": 148}, {"note": 0, "velocity": 0, "duration": 92}, {"note": 72, "velocity": 107, "duration": 445}, {"note": 0, "velocity": 0, "duration": 155}, {"note": 76, "velocity": 117, "duration": 154}, {"note": 0, "velocity": 0, "duration": 86}, {"note": 74, "velocity": 102, "duration": 94}, {"note": 72, "velocity": 96, "duration": 459}, {"note": 0, "velocity": 0, "duration": 141}, {"note": 72, "velocity": 127, "duration": 106}, {"note": 74, "velocity": 107, "duration": 143}, {"note": 76, "velocity": 112, "duration": 90}, {"note": 71, "velocity": 107, "duration": 489}, {"note": 0, "velocity": 0, "duration": 471}, {"note": 67, "velocity": 75, "duration": 125}, {"note": 69, "velocity": 92, "duration": 119}, {"note": 67, "velocity": 71, "duration": 114}, {"note": 69, "velocity": 90, "duration": 125}, {"note": 67, "velocity": 79, "duration": 136}, {"note": 69, "velocity": 100, "duration": 210}, {"note": 72, "velocity": 83, "duration": 123}, {"note": 79, "velocity": 102, "duration": 225}, {"note": 76, "velocity": 88, "duration": 81}, {"note": 74, "velocity": 92, "duration": 198}, {"note": 76, "velocity": 107, "duration": 204}, {"note": 74, "velocity": 97, "duration": 90}, {"note": 71, "velocity": 100, "duration": 285}, {"note": 0, "velocity": 0, "duration": 315}, {"note": 76, "velocity": 122, "duration": 125}, {"note": 79, "velocity": 99, "duration": 334}, {"note": 72, "velocity": 112, "duration": 400}, {"note": 0, "velocity": 0, "duration": 200}, {"note": 72, "velocity": 88, "duration": 90}, {"note": 74, "velocity": 86, "duration": 92}, {"note": 76, "velocity": 75, "duration": 64}, {"note": 77, "velocity": 92, "duration": 183}, {"note": 76, "velocity": 107, "duration": 74}, {"note": 72, "velocity": 92, "duration": 238}, {"note": 0, "velocity": 0, "duration": 242}, {"note": 76, "velocity": 93, "duration": 60}, {"note": 77, "velocity": 107, "duration": 115}, {"note": 76, "velocity": 97, "duration": 111}, {"note": 0, "velocity": 0, "duration": 129}, {"note": 72, "velocity": 100, "duration": 135}, {"note": 77, "velocity": 117, "duration": 136}, {"note": 76, "velocity": 99, "duration": 130}, {"note": 0, "velocity": 0, "duration": 110}, {"note": 72, "velocity": 93, "duration": 80}, {"note": 76, "velocity": 102, "duration": 356}, {"note": 0, "velocity": 0, "duration": 124}, {"note": 74, "velocity": 122, "duration": 305}, {"note": 0, "velocity": 0, "duration": 175}, {"note": 72, "velocity": 112, "duration": 390}, {"note": 0, "velocity": 0, "duration": 90}, {"note": 69, "velocity": 100, "duration": 376}, {"note": 0, "velocity": 0, "duration": 104}, {"note": 67, "velocity": 99, "duration": 158}, {"note": 0, "velocity": 0, "duration": 82}, {"note": 67, "velocity": 93, "duration": 47}, {"note": 0, "velocity": 0, "duration": 73}, {"note": 67, "velocity": 93, "duration": 48}, {"note": 0, "velocity": 0, "duration": 72}, {"note": 67, "velocity": 95, "duration": 148}, {"note": 0, "velocity": 0, "duration": 92}, {"note": 72, "velocity": 100, "duration": 92}, {"note": 72, "velocity": 97, "duration": 179}, {"note": 0, "velocity": 0, "duration": 61}, {"note": 69, "velocity": 92, "duration": 481}, {"note": 0, "velocity": 0, "duration": 239}, {"note": 69, "velocity": 99, "duration": 101}, {"note": 67, "velocity": 97, "duration": 125}, {"note": 0, "velocity": 0, "duration": 115}, {"note": 69, "velocity": 100, "duration": 83}, {"note": 67, "velocity": 93, "duration": 133}, {"note": 0, "velocity": 0, "duration": 107}, {"note": 65, "velocity": 100, "duration": 323}, {"note": 64, "velocity": 88, "duration": 231}, {"note": 65, "velocity": 81, "duration": 140}, {"note": 67, "velocity": 97, "duration": 326}, {"note": 0, "velocity": 0, "duration": 394}, {"note": 67, "velocity": 100, "duration": 155}, {"note": 0, "velocity": 0, "duration": 85}, {"note": 67, "velocity": 92, "duration": 48}, {"note": 0, "velocity": 0, "duration": 72}, {"note": 67, "velocity": 79, "duration": 47}, {"note": 0, "velocity": 0, "duration": 73}, {"note": 67, "velocity": 97, "duration": 161}, {"note": 0, "velocity": 0, "duration": 79}, {"note": 72, "velocity": 100, "duration": 68}, {"note": 72, "velocity": 99, "duration": 179}, {"note": 0, "velocity": 0, "duration": 61}, {"note": 69, "velocity": 100, "duration": 546}, {"note": 0, "velocity": 0, "duration": 174}, {"note": 69, "velocity": 99, "duration": 99}, {"note": 67, "velocity": 93, "duration": 215}, {"note": 74, "velocity": 122, "duration": 69}, {"note": 74, "velocity": 107, "duration": 136}, {"note": 0, "velocity": 0, "duration": 104}, {"note": 71, "velocity": 81, "duration": 148}, {"note": 0, "velocity": 0, "duration": 92}, {"note": 76, "velocity": 107, "duration": 445}, {"note": 0, "velocity": 0, "duration": 155}, {"note": 76, "velocity": 117, "duration": 154}, {"note": 0, "velocity": 0, "duration": 86}, {"note": 74, "velocity": 102, "duration": 94}, {"note": 72, "velocity": 96, "duration": 459}, {"note": 0, "velocity": 0, "duration": 141}, {"note": 72, "velocity": 127, "duration": 106}, {"note": 74, "velocity": 107, "duration": 143}, {"note": 76, "velocity": 112, "duration": 90}, {"note": 79, "velocity": 107, "duration": 489}, {"note": 0, "velocity": 0, "duration": 471}, {"note": 67, "velocity": 106, "duration": 125}, {"note": 69, "velocity": 92, "duration": 119}, {"note": 67, "velocity": 71, "duration": 114}, {"note": 69, "velocity": 90, "duration": 125}, {"note": 67, "velocity": 79, "duration": 136}, {"note": 69, "velocity": 100, "duration": 210}, {"note": 72, "velocity": 83, "duration": 123}, {"note": 79, "velocity": 102, "duration": 225}, {"note": 76, "velocity": 88, "duration": 81}, {"note": 74, "velocity": 92, "duration": 198}, {"note": 76, "velocity": 107, "duration": 204}, {"note": 74, "velocity": 97, "duration": 90}, {"note": 71, "velocity": 100, "duration": 285}, {"note": 0, "velocity": 0, "duration": 315}, {"note": 76, "velocity": 122, "duration": 125}, {"note": 79, "velocity": 99, "duration": 334}, {"note": 72, "velocity": 112, "duration": 400}, {"note": 0, "velocity": 0, "duration": 200}, {"note": 72, "velocity": 88, "duration": 90}, {"note": 74, "velocity": 86, "duration": 92}, {"note": 76, "velocity": 75, "duration": 64}, {"note": 77, "velocity": 92, "duration": 183}, {"note": 76, "velocity": 107, "duration": 74}, {"note": 72, "velocity": 92, "duration": 238}, {"note": 0, "velocity": 0, "duration": 242}, {"note": 76, "velocity": 93, "duration": 60}, {"note": 77, "velocity": 107, "duration": 115}, {"note": 76, "velocity": 97, "duration": 111}, {"note": 0, "velocity": 0, "duration": 129}, {"note": 72, "velocity": 100, "duration": 135}, {"note": 77, "velocity": 117, "duration": 136}, {"note": 76, "velocity": 99, "duration": 130}, {"note": 0, "velocity": 0, "duration": 110}, {"note": 72, "velocity": 93, "duration": 80}, {"note": 81, "velocity": 122, "duration": 830}, {"note": 0, "velocity": 0, "duration": 130}, {"note": 79, "velocity": 117, "duration": 354}, {"note": 67, "velocity": 102, "duration": 69}, {"note": 69, "velocity": 97, "duration": 61}, {"note": 67, "velocity": 93, "duration": 132}, {"note": 69, "velocity": 95, "duration": 50}, {"note": 0, "velocity": 0, "duration": 70}, {"note": 76, "velocity": 117, "duration": 342}, {"note": 0, "velocity": 0, "duration": 138}, {"note": 67, "velocity": 95, "duration": 70}, {"note": 69, "velocity": 102, "duration": 70}, {"note": 67, "velocity": 95, "duration": 113}, {"note": 69, "velocity": 93, "duration": 34}, {"note": 0, "velocity": 0, "duration": 86}, {"note": 74, "velocity": 127, "duration": 307}, {"note": 0, "velocity": 0, "duration": 173}, {"note": 67, "velocity": 85, "duration": 103}, {"note": 69, "velocity": 97, "duration": 96}, {"note": 67, "velocity": 89, "duration": 103}, {"note": 69, "velocity": 112, "duration": 61}, {"note": 72, "velocity": 112, "duration": 157}, {"note": 0, "velocity": 0, "duration": 83}, {"note": 72, "velocity": 102, "duration": 49}, {"note": 0, "velocity": 0, "duration": 71}, {"note": 72, "velocity": 95, "duration": 48}, {"note": 0, "velocity": 0, "duration": 72}, {"note": 72, "velocity": 107, "duration": 50}, {"note": 0, "velocity": 0, "duration": 70}, {"note": 74, "velocity": 112, "duration": 78}, {"note": 76, "velocity": 107, "duration": 126}, {"note": 0, "velocity": 0, "duration": 114}, {"note": 71, "velocity": 102, "duration": 260}, {"note": 0, "velocity": 0, "duration": 220}, {"note": 71, "velocity": 95, "duration": 38}, {"note": 0, "velocity": 0, "duration": 82}, {"note": 71, "velocity": 112, "duration": 108}, {"note": 72, "velocity": 117, "duration": 100}, {"note": 0, "velocity": 0, "duration": 140}, {"note": 74, "velocity": 112, "duration": 49}, {"note": 0, "velocity": 0, "duration": 71}, {"note": 76, "velocity": 100, "duration": 66}, {"note": 74, "velocity": 97, "duration": 77}, {"note": 72, "velocity": 127, "duration": 293}, {"note": 69, "velocity": 97, "duration": 66}, {"note": 69, "velocity": 107, "duration": 122}, {"note": 71, "velocity": 117, "duration": 107}, {"note": 0, "velocity": 0, "duration": 133}, {"note": 72, "velocity": 100, "duration": 108}, {"note": 76, "velocity": 112, "duration": 82}, {"note": 74, "velocity": 95, "duration": 71}, {"note": 72, "velocity": 96, "duration": 306}, {"note": 0, "velocity": 0, "duration": 379}, {"note": 69, "velocity": 107, "duration": 85}, {"note": 81, "velocity": 117, "duration": 42}, {"note": 0, "velocity": 0, "duration": 78}, {"note": 81, "velocity": 99, "duration": 46}, {"note": 0, "velocity": 0, "duration": 74}, {"note": 81, "velocity": 107, "duration": 45}, {"note": 0, "velocity": 0, "duration": 75}, {"note": 81, "velocity": 107, "duration": 53}, {"note": 0, "velocity": 0, "duration": 67}, {"note": 79, "velocity": 117, "duration": 100}, {"note": 76, "velocity": 99, "duration": 131}, {"note": 0, "velocity": 0, "duration": 109}, {"note": 74, "velocity": 102, "duration": 299}, {"note": 0, "velocity": 0, "duration": 181}, {"note": 67, "velocity": 102, "duration": 69}, {"note": 69, "velocity": 97, "duration": 61}, {"note": 67, "velocity": 93, "duration": 132}, {"note": 69, "velocity": 95, "duration": 50}, {"note": 0, "velocity": 0, "duration": 70}, {"note": 76, "velocity": 117, "duration": 342}, {"note": 0, "velocity": 0, "duration": 138}, {"note": 67, "velocity": 95, "duration": 70}, {"note": 69, "velocity": 102, "duration": 70}, {"note": 67, "velocity": 95, "duration": 113}, {"note": 69, "velocity": 93, "duration": 34}, {"note": 0, "velocity": 0, "duration": 86}, {"note": 74, "velocity": 127, "duration": 307}, {"note": 0, "velocity": 0, "duration": 173}, {"note": 67, "velocity": 85, "duration": 103}, {"note": 69, "velocity": 97, "duration": 96}, {"note": 67, "velocity": 89, "duration": 103}, {"note": 69, "velocity": 112, "duration": 61}, {"note": 72, "velocity": 112, "duration": 157}, {"note": 0, "velocity": 0, "duration": 83}, {"note": 72, "velocity": 102, "duration": 49}, {"note": 0, "velocity": 0, "duration": 71}, {"note": 72, "velocity": 95, "duration": 48}, {"note": 0, "velocity": 0, "duration": 72}, {"note": 72, "velocity": 107, "duration": 50}, {"note": 0, "velocity": 0, "duration": 70}, {"note": 74, "velocity": 112, "duration": 78}, {"note": 76, "velocity": 107, "duration": 126}, {"note": 0, "velocity": 0, "duration": 107}, {"note": 79, "velocity": 102, "duration": 260}, {"note": 0, "velocity": 0, "duration": 227}, {"note": 76, "velocity": 107, "duration": 46}, {"note": 0, "velocity": 0, "duration": 74}, {"note": 76, "velocity": 117, "duration": 95}, {"note": 77, "velocity": 117, "duration": 121}, {"note": 0, "velocity": 0, "duration": 119}, {"note": 79, "velocity": 127, "duration": 84}, {"note": 76, "velocity": 100, "duration": 66}, {"note": 74, "velocity": 97, "duration": 77}, {"note": 72, "velocity": 127, "duration": 293}, {"note": 76, "velocity": 112, "duration": 46}, {"note": 0, "velocity": 0, "duration": 67}, {"note": 76, "velocity": 112, "duration": 102}, {"note": 77, "velocity": 112, "duration": 115}, {"note": 0, "velocity": 0, "duration": 125}, {"note": 79, "velocity": 127, "duration": 68}, {"note": 0, "velocity": 0, "duration": 64}, {"note": 76, "velocity": 112, "duration": 82}, {"note": 74, "velocity": 95, "duration": 71}, {"note": 72, "velocity": 96, "duration": 306}, {"note": 0, "velocity": 0, "duration": 379}, {"note": 69, "velocity": 107, "duration": 85}, {"note": 81, "velocity": 117, "duration": 42}, {"note": 0, "velocity": 0, "duration": 78}, {"note": 79, "velocity": 99, "duration": 46}, {"note": 0, "velocity": 0, "duration": 74}, {"note": 79, "velocity": 107, "duration": 45}, {"note": 0, "velocity": 0, "duration": 75}, {"note": 79, "velocity": 107, "duration": 53}, {"note": 0, "velocity": 0, "duration": 67}, {"note": 79, "velocity": 117, "duration": 100}, {"note": 76, "velocity": 99, "duration": 131}, {"note": 0, "velocity": 0, "duration": 109}, {"note": 79, "velocity": 112, "duration": 652}, {"note": 0, "velocity": 0, "duration": 11948}, {"note": 67, "velocity": 99, "duration": 158}, {"note": 0, "velocity": 0, "duration": 82}, {"note": 67, "velocity": 93, "duration": 47}, {"note": 0, "velocity": 0, "duration": 73}, {"note": 67, "velocity": 93, "duration": 48}, {"note": 0, "velocity": 0, "duration": 72}, {"note": 67, "velocity": 95, "duration": 148}, {"note": 0, "velocity": 0, "duration": 92}, {"note": 72, "velocity": 100, "duration": 92}, {"note": 72, "velocity": 97, "duration": 179}, {"note": 0, "velocity": 0, "duration": 61}, {"note": 69, "velocity": 92, "duration": 481}, {"note": 0, "velocity": 0, "duration": 239}, {"note": 69, "velocity": 99, "duration": 101}, {"note": 67, "velocity": 97, "duration": 125}, {"note": 0, "velocity": 0, "duration": 115}, {"note": 69, "velocity": 100, "duration": 83}, {"note": 67, "velocity": 93, "duration": 133}, {"note": 0, "velocity": 0, "duration": 107}, {"note": 65, "velocity": 100, "duration": 323}, {"note": 64, "velocity": 88, "duration": 231}, {"note": 65, "velocity": 81, "duration": 140}, {"note": 67, "velocity": 97, "duration": 326}, {"note": 0, "velocity": 0, "duration": 394}, {"note": 67, "velocity": 100, "duration": 155}, {"note": 0, "velocity": 0, "duration": 85}, {"note": 67, "velocity": 92, "duration": 48}, {"note": 0, "velocity": 0, "duration": 72}, {"note": 67, "velocity": 79, "duration": 47}, {"note": 0, "velocity": 0, "duration": 73}, {"note": 67, "velocity": 97, "duration": 161}, {"note": 0, "velocity": 0, "duration": 79}, {"note": 72, "velocity": 100, "duration": 68}, {"note": 72, "velocity": 99, "duration": 179}, {"note": 0, "velocity": 0, "duration": 61}, {"note": 69, "velocity": 100, "duration": 546}, {"note": 0, "velocity": 0, "duration": 174}, {"note": 69, "velocity": 99, "duration": 99}, {"note": 67, "velocity": 93, "duration": 215}, {"note": 74, "velocity": 122, "duration": 69}, {"note": 74, "velocity": 107, "duration": 136}, {"note": 0, "velocity": 0, "duration": 104}, {"note": 71, "velocity": 81, "duration": 148}, {"note": 0, "velocity": 0, "duration": 92}, {"note": 76, "velocity": 107, "duration": 445}, {"note": 0, "velocity": 0, "duration": 155}, {"note": 76, "velocity": 117, "duration": 154}, {"note": 0, "velocity": 0, "duration": 86}, {"note": 74, "velocity": 102, "duration": 94}, {"note": 72, "velocity": 96, "duration": 459}, {"note": 0, "velocity": 0, "duration": 141}, {"note": 72, "velocity": 127, "duration": 106}, {"note": 74, "velocity": 107, "duration": 143}, {"note": 76, "velocity": 112, "duration": 90}, {"note": 79, "velocity": 107, "duration": 489}, {"note": 0, "velocity": 0, "duration": 471}, {"note": 67, "velocity": 106, "duration": 125}, {"note": 69, "velocity": 92, "duration": 119}, {"note": 67, "velocity": 71, "duration": 114}, {"note": 69, "velocity": 90, "duration": 125}, {"note": 67, "velocity": 79, "duration": 136}, {"note": 69, "velocity": 100, "duration": 210}, {"note": 72, "velocity": 83, "duration": 123}, {"note": 79, "velocity": 102, "duration": 225}, {"note": 76, "velocity": 88, "duration": 81}, {"note": 74, "velocity": 92, "duration": 198}, {"note": 76, "velocity": 107, "duration": 204}, {"note": 74, "velocity": 97, "duration": 90}, {"note": 71, "velocity": 100, "duration": 285}, {"note": 0, "velocity": 0, "duration": 315}, {"note": 76, "velocity": 122, "duration": 125}, {"note": 79, "velocity": 99, "duration": 334}, {"note": 72, "velocity": 112, "duration": 400}, {"note": 0, "velocity": 0, "duration": 200}, {"note": 72, "velocity": 88, "duration": 90}, {"note": 74, "velocity": 86, "duration": 92}, {"note": 76, "velocity": 75, "duration": 64}, {"note": 77, "velocity": 92, "duration": 183}, {"note": 76, "velocity": 107, "duration": 74}, {"note": 72, "velocity": 92, "duration": 238}, {"note": 0, "velocity": 0, "duration": 242}, {"note": 76, "velocity": 93, "duration": 60}, {"note": 77, "velocity": 107, "duration": 115}, {"note": 76, "velocity": 97, "duration": 111}, {"note": 0, "velocity": 0, "duration": 129}, {"note": 72, "velocity": 100, "duration": 135}, {"note": 77, "velocity": 117, "duration": 136}, {"note": 76, "velocity": 99, "duration": 130}, {"note": 0, "velocity": 0, "duration": 110}, {"note": 72, "velocity": 93, "duration": 80}, {"note": 81, "velocity": 122, "duration": 830}, {"note": 0, "velocity": 0, "duration": 130}, {"note": 79, "velocity": 117, "duration": 354}, {"note": 67, "velocity": 102, "duration": 69}, {"note": 69, "velocity": 97, "duration": 61}, {"note": 67, "velocity": 93, "duration": 132}, {"note": 69, "velocity": 95, "duration": 50}, {"note": 0, "velocity": 0, "duration": 70}, {"note": 76, "velocity": 117, "duration": 342}, {"note": 0, "velocity": 0, "duration": 138}, {"note": 67, "velocity": 95, "duration": 70}, {"note": 69, "velocity": 102, "duration": 70}, {"note": 67, "velocity": 95, "duration": 113}, {"note": 69, "velocity": 93, "duration": 34}, {"note": 0, "velocity": 0, "duration": 86}, {"note": 74, "velocity": 127, "duration": 307}, {"note": 0, "velocity": 0, "duration": 173}, {"note": 67, "velocity": 85, "duration": 103}, {"note": 69, "velocity": 97, "duration": 96}, {"note": 67, "velocity": 89, "duration": 103}, {"note": 69, "velocity": 112, "duration": 61}, {"note": 72, "velocity": 112, "duration": 157}, {"note": 0, "velocity": 0, "duration": 83}, {"note": 72, "velocity": 102, "duration": 49}, {"note": 0, "velocity": 0, "duration": 71}, {"note": 72, "velocity": 95, "duration": 48}, {"note": 0, "velocity": 0, "duration": 72}, {"note": 72, "velocity": 107, "duration": 50}, {"note": 0, "velocity": 0, "duration": 70}, {"note": 74, "velocity": 112, "duration": 78}, {"note": 76, "velocity": 107, "duration": 126}, {"note": 0, "velocity": 0, "duration": 114}, {"note": 71, "velocity": 102, "duration": 260}, {"note": 0, "velocity": 0, "duration": 220}, {"note": 71, "velocity": 95, "duration": 38}, {"note": 0, "velocity": 0, "duration": 82}, {"note": 71, "velocity": 112, "duration": 108}, {"note": 72, "velocity": 117, "duration": 100}, {"note": 0, "velocity": 0, "duration": 140}, {"note": 74, "velocity": 112, "duration": 49}, {"note": 0, "velocity": 0, "duration": 71}, {"note": 76, "velocity": 100, "duration": 66}, {"note": 74, "velocity": 97, "duration": 77}, {"note": 72, "velocity": 127, "duration": 293}, {"note": 69, "velocity": 97, "duration": 66}, {"note": 69, "velocity": 107, "duration": 122}, {"note": 71, "velocity": 117, "duration": 107}, {"note": 0, "velocity": 0, "duration": 133}, {"note": 72, "velocity": 100, "duration": 108}, {"note": 76, "velocity": 112, "duration": 82}, {"note": 74, "velocity": 95, "duration": 71}, {"note": 72, "velocity": 96, "duration": 306}, {"note": 0, "velocity": 0, "duration": 379}, {"note": 69, "velocity": 107, "duration": 85}, {"note": 81, "velocity": 117, "duration": 42}, {"note": 0, "velocity": 0, "duration": 78}, {"note": 81, "velocity": 99, "duration": 46}, {"note": 0, "velocity": 0, "duration": 74}, {"note": 81, "velocity": 107, "duration": 45}, {"note": 0, "velocity": 0, "duration": 75}, {"note": 81, "velocity": 107, "duration": 53}, {"note": 0, "velocity": 0, "duration": 67}, {"note": 79, "velocity": 117, "duration": 100}, {"note": 76, "velocity": 99, "duration": 131}, {"note": 0, "velocity": 0, "duration": 109}, {"note": 74, "velocity": 102, "duration": 299}, {"note": 0, "velocity": 0, "duration": 181}, {"note": 67, "velocity": 102, "duration": 69}, {"note": 69, "velocity": 97, "duration": 61}, {"note": 67, "velocity": 93, "duration": 132}, {"note": 69, "velocity": 95, "duration": 50}, {"note": 0, "velocity": 0, "duration": 70}, {"note": 76, "velocity": 117, "duration": 342}, {"note": 0, "velocity": 0, "duration": 138}, {"note": 67, "velocity": 95, "duration": 70}, {"note": 69, "velocity": 102, "duration": 70}, {"note": 67, "velocity": 95, "duration": 113}, {"note": 69, "velocity": 93, "duration": 34}, {"note": 0, "velocity": 0, "duration": 86}, {"note": 74, "velocity": 127, "duration": 307}, {"note": 0, "velocity": 0, "duration": 173}, {"note": 67, "velocity": 85, "duration": 103}, {"note": 69, "velocity": 97, "duration": 96}, {"note": 67, "velocity": 89, "duration": 103}, {"note": 69, "velocity": 112, "duration": 61}, {"note": 72, "velocity": 112, "duration": 157}, {"note": 0, "velocity": 0, "duration": 83}, {"note": 72, "velocity": 102, "duration": 49}, {"note": 0, "velocity": 0, "duration": 71}, {"note": 72, "velocity": 95, "duration": 48}, {"note": 0, "velocity": 0, "duration": 72}, {"note": 72, "velocity": 107, "duration": 50}, {"note": 0, "velocity": 0, "duration": 70}, {"note": 74, "velocity": 112, "duration": 78}, {"note": 76, "velocity": 107, "duration": 126}, {"note": 0, "velocity": 0, "duration": 107}, {"note": 79, "velocity": 102, "duration": 260}, {"note": 0, "velocity": 0, "duration": 227}, {"note": 76, "velocity": 107, "duration": 46}, {"note": 0, "velocity": 0, "duration": 74}, {"note": 76, "velocity": 117, "duration": 95}, {"note": 77, "velocity": 117, "duration": 121}, {"note": 0, "velocity": 0, "duration": 119}, {"note": 79, "velocity": 127, "duration": 84}, {"note": 76, "velocity": 100, "duration": 66}, {"note": 74, "velocity": 97, "duration": 77}, {"note": 72, "velocity": 127, "duration": 293}, {"note": 76, "velocity": 112, "duration": 46}, {"note": 0, "velocity": 0, "duration": 67}, {"note": 76, "velocity": 112, "duration": 102}, {"note": 77, "velocity": 112, "duration": 115}, {"note": 0, "velocity": 0, "duration": 125}, {"note": 79, "velocity": 127, "duration": 68}, {"note": 0, "velocity": 0, "duration": 64}, {"note": 76, "velocity": 112, "duration": 82}, {"note": 74, "velocity": 95, "duration": 71}, {"note": 72, "velocity": 96, "duration": 306}, {"note": 0, "velocity": 0, "duration": 379}, {"note": 69, "velocity": 107, "duration": 85}, {"note": 81, "velocity": 117, "duration": 42}, {"note": 0, "velocity": 0, "duration": 78}, {"note": 79, "velocity": 99, "duration": 46}, {"note": 0, "velocity": 0, "duration": 74}, {"note": 79, "velocity": 107, "duration": 45}, {"note": 0, "velocity": 0, "duration": 75}, {"note": 79, "velocity": 107, "duration": 53}, {"note": 0, "velocity": 0, "duration": 67}, {"note": 79, "velocity": 117, "duration": 100}, {"note": 76, "velocity": 99, "duration": 131}, {"note": 0, "velocity": 0, "duration": 109}, {"note": 79, "velocity": 112, "duration": 652}, {"note": 0, "velocity": 0, "duration": 428}, {"note": 80, "velocity": 127, "duration": 662}, {"note": 82, "velocity": 127, "duration": 127}, {"note": 80, "velocity": 127, "duration": 364}, {"note": 0, "velocity": 0, "duration": 116}, {"note": 68, "velocity": 102, "duration": 69}, {"note": 70, "velocity": 97, "duration": 61}, {"note": 68, "velocity": 93, "duration": 132}, {"note": 70, "velocity": 95, "duration": 50}, {"note": 0, "velocity": 0, "duration": 70}, {"note": 77, "velocity": 117, "duration": 342}, {"note": 0, "velocity": 0, "duration": 138}, {"note": 68, "velocity": 95, "duration": 70}, {"note": 70, "velocity": 102, "duration": 70}, {"note": 68, "velocity": 95, "duration": 113}, {"note": 70, "velocity": 93, "duration": 34}, {"note": 0, "velocity": 0, "duration": 86}, {"note": 75, "velocity": 127, "duration": 307}, {"note": 0, "velocity": 0, "duration": 173}, {"note": 68, "velocity": 85, "duration": 103}, {"note": 70, "velocity": 97, "duration": 96}, {"note": 68, "velocity": 89, "duration": 103}, {"note": 70, "velocity": 112, "duration": 61}, {"note": 73, "velocity": 112, "duration": 157}, {"note": 0, "velocity": 0, "duration": 83}, {"note": 73, "velocity": 102, "duration": 49}, {"note": 0, "velocity": 0, "duration": 71}, {"note": 73, "velocity": 95, "duration": 48}, {"note": 0, "velocity": 0, "duration": 72}, {"note": 73, "velocity": 107, "duration": 50}, {"note": 0, "velocity": 0, "duration": 70}, {"note": 75, "velocity": 112, "duration": 78}, {"note": 77, "velocity": 107, "duration": 126}, {"note": 0, "velocity": 0, "duration": 114}, {"note": 72, "velocity": 102, "duration": 260}, {"note": 0, "velocity": 0, "duration": 220}, {"note": 72, "velocity": 95, "duration": 38}, {"note": 0, "velocity": 0, "duration": 82}, {"note": 72, "velocity": 112, "duration": 108}, {"note": 73, "velocity": 117, "duration": 100}, {"note": 0, "velocity": 0, "duration": 140}, {"note": 75, "velocity": 112, "duration": 49}, {"note": 0, "velocity": 0, "duration": 71}, {"note": 77, "velocity": 100, "duration": 66}, {"note": 75, "velocity": 97, "duration": 77}, {"note": 73, "velocity": 127, "duration": 293}, {"note": 70, "velocity": 97, "duration": 66}, {"note": 70, "velocity": 107, "duration": 122}, {"note": 72, "velocity": 117, "duration": 107}, {"note": 0, "velocity": 0, "duration": 133}, {"note": 73, "velocity": 100, "duration": 108}, {"note": 77, "velocity": 112, "duration": 82}, {"note": 75, "velocity": 95, "duration": 71}, {"note": 73, "velocity": 96, "duration": 306}, {"note": 0, "velocity": 0, "duration": 379}, {"note": 70, "velocity": 107, "duration": 85}, {"note": 82, "velocity": 117, "duration": 42}, {"note": 0, "velocity": 0, "duration": 78}, {"note": 82, "velocity": 99, "duration": 46}, {"note": 0, "velocity": 0, "duration": 74}, {"note": 82, "velocity": 107, "duration": 45}, {"note": 0, "velocity": 0, "duration": 75}, {"note": 82, "velocity": 107, "duration": 53}, {"note": 0, "velocity": 0, "duration": 67}, {"note": 80, "velocity": 117, "duration": 100}, {"note": 77, "velocity": 99, "duration": 131}, {"note": 0, "velocity": 0, "duration": 109}, {"note": 80, "velocity": 102, "duration": 299}, {"note": 0, "velocity": 0, "duration": 181}, {"note": 68, "velocity": 102, "duration": 69}, {"note": 70, "velocity": 97, "duration": 61}, {"note": 68, "velocity": 93, "duration": 132}, {"note": 70, "velocity": 95, "duration": 50}, {"note": 0, "velocity": 0, "duration": 70}, {"note": 77, "velocity": 117, "duration": 342}, {"note": 0, "velocity": 0, "duration": 138}, {"note": 80, "velocity": 95, "duration": 70}, {"note": 80, "velocity": 102, "duration": 70}, {"note": 80, "velocity": 95, "duration": 113}, {"note": 82, "velocity": 93, "duration": 34}, {"note": 0, "velocity": 0, "duration": 81}, {"note": 77, "velocity": 100, "duration": 245}, {"note": 75, "velocity": 95, "duration": 180}, {"note": 0, "velocity": 0, "duration": 64}, {"note": 68, "velocity": 85, "duration": 103}, {"note": 70, "velocity": 97, "duration": 96}, {"note": 68, "velocity": 89, "duration": 103}, {"note": 70, "velocity": 112, "duration": 61}, {"note": 73, "velocity": 112, "duration": 157}, {"note": 0, "velocity": 0, "duration": 83}, {"note": 73, "velocity": 102, "duration": 49}, {"note": 0, "velocity": 0, "duration": 71}, {"note": 73, "velocity": 95, "duration": 48}, {"note": 0, "velocity": 0, "duration": 72}, {"note": 73, "velocity": 107, "duration": 50}, {"note": 0, "velocity": 0, "duration": 70}, {"note": 75, "velocity": 112, "duration": 78}, {"note": 77, "velocity": 107, "duration": 126}, {"note": 0, "velocity": 0, "duration": 107}, {"note": 80, "velocity": 102, "duration": 260}, {"note": 0, "velocity": 0, "duration": 227}, {"note": 77, "velocity": 107, "duration": 46}, {"note": 0, "velocity": 0, "duration": 74}, {"note": 77, "velocity": 117, "duration": 95}, {"note": 78, "velocity": 117, "duration": 121}, {"note": 0, "velocity": 0, "duration": 119}, {"note": 80, "velocity": 127, "duration": 84}, {"note": 77, "velocity": 100, "duration": 66}, {"note": 75, "velocity": 97, "duration": 77}, {"note": 73, "velocity": 127, "duration": 293}, {"note": 77, "velocity": 112, "duration": 46}, {"note": 0, "velocity": 0, "duration": 67}, {"note": 77, "velocity": 112, "duration": 102}, {"note": 78, "velocity": 112, "duration": 115}, {"note": 0, "velocity": 0, "duration": 125}, {"note": 80, "velocity": 127, "duration": 68}, {"note": 0, "velocity": 0, "duration": 64}, {"note": 77, "velocity": 112, "duration": 82}, {"note": 75, "velocity": 95, "duration": 71}, {"note": 73, "velocity": 96, "duration": 306}, {"note": 0, "velocity": 0, "duration": 379}, {"note": 70, "velocity": 107, "duration": 85}, {"note": 82, "velocity": 117, "duration": 42}, {"note": 0, "velocity": 0, "duration": 78}, {"note": 80, "velocity": 99, "duration": 46}, {"note": 0, "velocity": 0, "duration": 74}, {"note": 80, "velocity": 107, "duration": 45}, {"note": 0, "velocity": 0, "duration": 75}, {"note": 80, "velocity": 107, "duration": 53}, {"note": 0, "velocity": 0, "duration": 67}, {"note": 80, "velocity": 117, "duration": 100}, {"note": 77, "velocity": 99, "duration": 131}, {"note": 0, "velocity": 0, "duration": 109}, {"note": 80, "velocity": 112, "duration": 652}, {"note": 77, "velocity": 122, "duration": 120}, {"note": 0, "velocity": 0, "duration": 120}, {"note": 75, "velocity": 117, "duration": 115}, {"note": 0, "velocity": 0, "duration": 125}, {"note": 73, "velocity": 112, "duration": 108}, {"note": 0, "velocity": 0, "duration": 132}, {"note": 75, "velocity": 117, "duration": 233}, {"note": 73, "velocity": 97, "duration": 952}]]