[[{"note": 60, "velocity": 95, "duration": 111}, {"note": 62, "velocity": 73, "duration": 108}, {"note": 65, "velocity": 77, "duration": 142}, {"note": 67, "velocity": 83, "duration": 123}, {"note": 65, "velocity": 71, "duration": 150}, {"note": 67, "velocity": 93, "duration": 226}, {"note": 69, "velocity": 97, "duration": 155}, {"note": 0, "velocity": 0, "duration": 85}, {"note": 69, "velocity": 100, "duration": 196}, {"note": 69, "velocity": 93, "duration": 99}, {"note": 67, "velocity": 88, "duration": 100}, {"note": 65, "velocity": 88, "duration": 128}, {"note": 67, "velocity": 95, "duration": 125}, {"note": 69, "velocity": 99, "duration": 165}, {"note": 0, "velocity": 0, "duration": 75}, {"note": 69, "velocity": 93, "duration": 152}, {"note": 0, "velocity": 0, "duration": 88}, {"note": 69, "velocity": 96, "duration": 41}, {"note": 0, "velocity": 0, "duration": 79}, {"note": 67, "velocity": 93, "duration": 55}, {"note": 0, "velocity": 0, "duration": 65}, {"note": 65, "velocity": 74, "duration": 57}, {"note": 0, "velocity": 0, "duration": 63}, {"note": 67, "velocity": 99, "duration": 72}, {"note": 0, "velocity": 0, "duration": 168}, {"note": 65, "velocity": 93, "duration": 108}, {"note": 62, "velocity": 78, "duration": 98}, {"note": 65, "velocity": 83, "duration": 114}, {"note": 67, "velocity": 90, "duration": 129}, {"note": 0, "velocity": 0, "duration": 111}, {"note": 69, "velocity": 95, "duration": 73}, {"note": 69, "velocity": 102, "duration": 237}, {"note": 0, "velocity": 0, "duration": 123}, {"note": 60, "velocity": 93, "duration": 116}, {"note": 62, "velocity": 78, "duration": 121}, {"note": 65, "velocity": 85, "duration": 106}, {"note": 67, "velocity": 77, "duration": 94}, {"note": 65, "velocity": 92, "duration": 68}, {"note": 67, "velocity": 89, "duration": 105}, {"note": 65, "velocity": 89, "duration": 107}, {"note": 0, "velocity": 0, "duration": 133}, {"note": 72, "velocity": 102, "duration": 142}, {"note": 0, "velocity": 0, "duration": 98}, {"note": 69, "velocity": 96, "duration": 103}, {"note": 67, "velocity": 73, "duration": 113}, {"note": 69, "velocity": 79, "duration": 118}, {"note": 67, "velocity": 85, "duration": 78}, {"note": 65, "velocity": 92, "duration": 100}, {"note": 0, "velocity": 0, "duration": 140}, {"note": 69, "velocity": 102, "duration": 156}, {"note": 0, "velocity": 0, "duration": 84}, {"note": 69, "velocity": 112, "duration": 98}, {"note": 67, "velocity": 93, "duration": 111}, {"note": 65, "velocity": 81, "duration": 131}, {"note": 67, "velocity": 92, "duration": 186}, {"note": 67, "velocity": 99, "duration": 119}, {"note": 67, "velocity": 97, "duration": 68}, {"note": 67, "velocity": 102, "duration": 156}, {"note": 65, "velocity": 96, "duration": 124}, {"note": 62, "velocity": 82, "duration": 108}, {"note": 67, "velocity": 85, "duration": 183}, {"note": 0, "velocity": 0, "duration": 163}, {"note": 60, "velocity": 89, "duration": 78}, {"note": 62, "velocity": 97, "duration": 64}, {"note": 65, "velocity": 96, "duration": 60}, {"note": 67, "velocity": 99, "duration": 44}, {"note": 0, "velocity": 0, "duration": 76}, {"note": 65, "velocity": 99, "duration": 77}, {"note": 67, "velocity": 100, "duration": 61}, {"note": 69, "velocity": 122, "duration": 102}, {"note": 0, "velocity": 0, "duration": 134}, {"note": 72, "velocity": 112, "duration": 156}, {"note": 0, "velocity": 0, "duration": 87}, {"note": 69, "velocity": 96, "duration": 80}, {"note": 67, "velocity": 92, "duration": 53}, {"note": 0, "velocity": 0, "duration": 68}, {"note": 65, "velocity": 95, "duration": 54}, {"note": 0, "velocity": 0, "duration": 67}, {"note": 67, "velocity": 100, "duration": 83}, {"note": 69, "velocity": 99, "duration": 73}, {"note": 0, "velocity": 0, "duration": 158}, {"note": 74, "velocity": 100, "duration": 164}, {"note": 0, "velocity": 0, "duration": 70}, {"note": 69, "velocity": 107, "duration": 51}, {"note": 0, "velocity": 0, "duration": 64}, {"note": 67, "velocity": 100, "duration": 63}, {"note": 65, "velocity": 83, "duration": 52}, {"note": 0, "velocity": 0, "duration": 76}, {"note": 67, "velocity": 97, "duration": 87}, {"note": 65, "velocity": 100, "duration": 129}, {"note": 0, "velocity": 0, "duration": 72}, {"note": 62, "velocity": 93, "duration": 69}, {"note": 65, "velocity": 86, "duration": 99}, {"note": 0, "velocity": 0, "duration": 76}, {"note": 67, "velocity": 93, "duration": 111}, {"note": 0, "velocity": 0, "duration": 83}, {"note": 69, "velocity": 107, "duration": 75}, {"note": 72, "velocity": 90, "duration": 227}, {"note": 0, "velocity": 0, "duration": 122}, {"note": 60, "velocity": 93, "duration": 63}, {"note": 62, "velocity": 99, "duration": 61}, {"note": 0, "velocity": 0, "duration": 63}, {"note": 65, "velocity": 99, "duration": 46}, {"note": 0, "velocity": 0, "duration": 76}, {"note": 67, "velocity": 95, "duration": 51}, {"note": 0, "velocity": 0, "duration": 61}, {"note": 65, "velocity": 88, "duration": 41}, {"note": 0, "velocity": 0, "duration": 73}, {"note": 67, "velocity": 112, "duration": 52}, {"note": 0, "velocity": 0, "duration": 79}, {"note": 65, "velocity": 117, "duration": 86}, {"note": 0, "velocity": 0, "duration": 166}, {"note": 74, "velocity": 112, "duration": 142}, {"note": 0, "velocity": 0, "duration": 93}, {"note": 72, "velocity": 102, "duration": 42}, {"note": 0, "velocity": 0, "duration": 87}, {"note": 69, "velocity": 95, "duration": 45}, {"note": 0, "velocity": 0, "duration": 77}, {"note": 67, "velocity": 93, "duration": 44}, {"note": 0, "velocity": 0, "duration": 74}, {"note": 67, "velocity": 100, "duration": 55}, {"note": 0, "velocity": 0, "duration": 77}, {"note": 65, "velocity": 99, "duration": 61}, {"note": 0, "velocity": 0, "duration": 170}, {"note": 69, "velocity": 107, "duration": 160}, {"note": 0, "velocity": 0, "duration": 63}, {"note": 69, "velocity": 100, "duration": 48}, {"note": 0, "velocity": 0, "duration": 73}, {"note": 67, "velocity": 97, "duration": 44}, {"note": 0, "velocity": 0, "duration": 71}, {"note": 65, "velocity": 92, "duration": 52}, {"note": 0, "velocity": 0, "duration": 74}, {"note": 67, "velocity": 112, "duration": 53}, {"note": 0, "velocity": 0, "duration": 92}, {"note": 67, "velocity": 97, "duration": 52}, {"note": 0, "velocity": 0, "duration": 162}, {"note": 67, "velocity": 96, "duration": 40}, {"note": 0, "velocity": 0, "duration": 92}, {"note": 67, "velocity": 107, "duration": 66}, {"note": 0, "velocity": 0, "duration": 91}, {"note": 65, "velocity": 102, "duration": 111}, {"note": 0, "velocity": 0, "duration": 82}, {"note": 62, "velocity": 93, "duration": 108}, {"note": 65, "velocity": 107, "duration": 329}, {"note": 65, "velocity": 96, "duration": 100}, {"note": 77, "velocity": 122, "duration": 112}, {"note": 76, "velocity": 90, "duration": 64}, {"note": 76, "velocity": 99, "duration": 104}, {"note": 74, "velocity": 79, "duration": 114}, {"note": 76, "velocity": 100, "duration": 157}, {"note": 74, "velocity": 102, "duration": 148}, {"note": 72, "velocity": 102, "duration": 120}, {"note": 74, "velocity": 93, "duration": 132}, {"note": 72, "velocity": 97, "duration": 113}, {"note": 69, "velocity": 85, "duration": 127}, {"note": 67, "velocity": 85, "duration": 89}, {"note": 69, "velocity": 100, "duration": 141}, {"note": 72, "velocity": 117, "duration": 93}, {"note": 74, "velocity": 107, "duration": 103}, {"note": 72, "velocity": 95, "duration": 129}, {"note": 0, "velocity": 0, "duration": 121}, {"note": 72, "velocity": 97, "duration": 96}, {"note": 74, "velocity": 97, "duration": 56}, {"note": 72, "velocity": 99, "duration": 58}, {"note": 0, "velocity": 0, "duration": 66}, {"note": 74, "velocity": 127, "duration": 100}, {"note": 0, "velocity": 0, "duration": 86}, {"note": 74, "velocity": 107, "duration": 79}, {"note": 0, "velocity": 0, "duration": 85}, {"note": 74, "velocity": 122, "duration": 56}, {"note": 0, "velocity": 0, "duration": 72}, {"note": 74, "velocity": 127, "duration": 87}, {"note": 0, "velocity": 0, "duration": 103}, {"note": 72, "velocity": 127, "duration": 101}, {"note": 0, "velocity": 0, "duration": 95}, {"note": 74, "velocity": 117, "duration": 60}, {"note": 0, "velocity": 0, "duration": 69}, {"note": 72, "velocity": 127, "duration": 63}, {"note": 0, "velocity": 0, "duration": 69}, {"note": 69, "velocity": 112, "duration": 214}, {"note": 0, "velocity": 0, "duration": 240}, {"note": 65, "velocity": 95, "duration": 77}, {"note": 67, "velocity": 99, "duration": 67}, {"note": 69, "velocity": 93, "duration": 58}, {"note": 0, "velocity": 0, "duration": 62}, {"note": 72, "velocity": 112, "duration": 62}, {"note": 69, "velocity": 99, "duration": 57}, {"note": 0, "velocity": 0, "duration": 63}, {"note": 67, "velocity": 96, "duration": 49}, {"note": 0, "velocity": 0, "duration": 69}, {"note": 65, "velocity": 107, "duration": 88}, {"note": 0, "velocity": 0, "duration": 167}, {"note": 65, "velocity": 95, "duration": 43}, {"note": 0, "velocity": 0, "duration": 62}, {"note": 67, "velocity": 99, "duration": 47}, {"note": 0, "velocity": 0, "duration": 64}, {"note": 69, "velocity": 100, "duration": 37}, {"note": 0, "velocity": 0, "duration": 85}, {"note": 74, "velocity": 117, "duration": 42}, {"note": 0, "velocity": 0, "duration": 73}, {"note": 69, "velocity": 102, "duration": 51}, {"note": 0, "velocity": 0, "duration": 76}, {"note": 67, "velocity": 100, "duration": 43}, {"note": 0, "velocity": 0, "duration": 76}, {"note": 65, "velocity": 112, "duration": 73}, {"note": 0, "velocity": 0, "duration": 193}, {"note": 65, "velocity": 97, "duration": 46}, {"note": 0, "velocity": 0, "duration": 65}, {"note": 65, "velocity": 102, "duration": 51}, {"note": 65, "velocity": 99, "duration": 82}, {"note": 77, "velocity": 117, "duration": 74}, {"note": 0, "velocity": 0, "duration": 86}, {"note": 77, "velocity": 127, "duration": 106}, {"note": 0, "velocity": 0, "duration": 82}, {"note": 77, "velocity": 127, "duration": 59}, {"note": 0, "velocity": 0, "duration": 74}, {"note": 77, "velocity": 127, "duration": 82}, {"note": 0, "velocity": 0, "duration": 90}, {"note": 74, "velocity": 127, "duration": 139}, {"note": 0, "velocity": 0, "duration": 61}, {"note": 77, "velocity": 127, "duration": 71}, {"note": 74, "velocity": 112, "duration": 114}, {"note": 72, "velocity": 99, "duration": 143}, {"note": 0, "velocity": 0, "duration": 83}, {"note": 72, "velocity": 122, "duration": 63}, {"note": 0, "velocity": 0, "duration": 197}, {"note": 65, "velocity": 100, "duration": 65}, {"note": 77, "velocity": 102, "duration": 98}, {"note": 76, "velocity": 107, "duration": 141}, {"note": 77, "velocity": 127, "duration": 118}, {"note": 76, "velocity": 117, "duration": 114}, {"note": 74, "velocity": 96, "duration": 119}, {"note": 72, "velocity": 92, "duration": 142}, {"note": 74, "velocity": 127, "duration": 126}, {"note": 72, "velocity": 112, "duration": 89}, {"note": 69, "velocity": 96, "duration": 102}, {"note": 67, "velocity": 92, "duration": 66}, {"note": 69, "velocity": 95, "duration": 95}, {"note": 72, "velocity": 90, "duration": 61}, {"note": 0, "velocity": 0, "duration": 75}, {"note": 74, "velocity": 117, "duration": 72}, {"note": 72, "velocity": 112, "duration": 106}, {"note": 0, "velocity": 0, "duration": 136}, {"note": 72, "velocity": 107, "duration": 67}, {"note": 74, "velocity": 112, "duration": 54}, {"note": 72, "velocity": 102, "duration": 50}, {"note": 0, "velocity": 0, "duration": 65}, {"note": 74, "velocity": 127, "duration": 100}, {"note": 0, "velocity": 0, "duration": 63}, {"note": 74, "velocity": 107, "duration": 87}, {"note": 0, "velocity": 0, "duration": 117}, {"note": 74, "velocity": 112, "duration": 55}, {"note": 0, "velocity": 0, "duration": 65}, {"note": 74, "velocity": 127, "duration": 86}, {"note": 0, "velocity": 0, "duration": 76}, {"note": 72, "velocity": 112, "duration": 121}, {"note": 0, "velocity": 0, "duration": 69}, {"note": 74, "velocity": 107, "duration": 72}, {"note": 0, "velocity": 0, "duration": 61}, {"note": 72, "velocity": 112, "duration": 113}, {"note": 69, "velocity": 102, "duration": 287}, {"note": 0, "velocity": 0, "duration": 196}, {"note": 65, "velocity": 89, "duration": 107}, {"note": 67, "velocity": 92, "duration": 75}, {"note": 69, "velocity": 88, "duration": 62}, {"note": 72, "velocity": 107, "duration": 66}, {"note": 69, "velocity": 102, "duration": 58}, {"note": 0, "velocity": 0, "duration": 67}, {"note": 67, "velocity": 93, "duration": 53}, {"note": 0, "velocity": 0, "duration": 63}, {"note": 65, "velocity": 99, "duration": 102}, {"note": 0, "velocity": 0, "duration": 150}, {"note": 65, "velocity": 78, "duration": 81}, {"note": 67, "velocity": 93, "duration": 60}, {"note": 69, "velocity": 102, "duration": 46}, {"note": 0, "velocity": 0, "duration": 80}, {"note": 74, "velocity": 127, "duration": 61}, {"note": 69, "velocity": 102, "duration": 57}, {"note": 0, "velocity": 0, "duration": 64}, {"note": 67, "velocity": 117, "duration": 46}, {"note": 0, "velocity": 0, "duration": 76}, {"note": 65, "velocity": 112, "duration": 80}, {"note": 77, "velocity": 127, "duration": 945}, {"note": 0, "velocity": 0, "duration": 538}, {"note": 77, "velocity": 112, "duration": 96}, {"note": 74, "velocity": 85, "duration": 47}, {"note": 0, "velocity": 0, "duration": 69}, {"note": 77, "velocity": 107, "duration": 63}, {"note": 74, "velocity": 95, "duration": 49}, {"note": 0, "velocity": 0, "duration": 73}, {"note": 72, "velocity": 95, "duration": 235}, {"note": 0, "velocity": 0, "duration": 70}, {"note": 72, "velocity": 96, "duration": 51}, {"note": 0, "velocity": 0, "duration": 66}, {"note": 74, "velocity": 112, "duration": 87}, {"note": 72, "velocity": 97, "duration": 53}, {"note": 0, "velocity": 0, "duration": 75}, {"note": 69, "velocity": 95, "duration": 56}, {"note": 0, "velocity": 0, "duration": 69}, {"note": 67, "velocity": 92, "duration": 63}, {"note": 0, "velocity": 0, "duration": 61}, {"note": 69, "velocity": 107, "duration": 110}, {"note": 0, "velocity": 0, "duration": 62}, {"note": 67, "velocity": 96, "duration": 147}, {"note": 0, "velocity": 0, "duration": 105}, {"note": 65, "velocity": 102, "duration": 106}, {"note": 62, "velocity": 89, "duration": 120}, {"note": 65, "velocity": 97, "duration": 97}, {"note": 67, "velocity": 82, "duration": 172}, {"note": 65, "velocity": 95, "duration": 729}, {"note": 0, "velocity": 0, "duration": 406}, {"note": 60, "velocity": 100, "duration": 115}, {"note": 62, "velocity": 96, "duration": 106}, {"note": 65, "velocity": 95, "duration": 151}, {"note": 67, "velocity": 89, "duration": 159}, {"note": 65, "velocity": 99, "duration": 153}, {"note": 67, "velocity": 93, "duration": 226}, {"note": 69, "velocity": 97, "duration": 155}, {"note": 0, "velocity": 0, "duration": 85}, {"note": 69, "velocity": 100, "duration": 196}, {"note": 69, "velocity": 93, "duration": 99}, {"note": 67, "velocity": 88, "duration": 100}, {"note": 65, "velocity": 88, "duration": 128}, {"note": 67, "velocity": 95, "duration": 125}, {"note": 69, "velocity": 99, "duration": 165}, {"note": 0, "velocity": 0, "duration": 75}, {"note": 69, "velocity": 93, "duration": 152}, {"note": 0, "velocity": 0, "duration": 88}, {"note": 69, "velocity": 96, "duration": 41}, {"note": 0, "velocity": 0, "duration": 79}, {"note": 67, "velocity": 93, "duration": 55}, {"note": 0, "velocity": 0, "duration": 65}, {"note": 65, "velocity": 74, "duration": 57}, {"note": 0, "velocity": 0, "duration": 63}, {"note": 67, "velocity": 99, "duration": 72}, {"note": 0, "velocity": 0, "duration": 168}, {"note": 65, "velocity": 93, "duration": 108}, {"note": 62, "velocity": 78, "duration": 98}, {"note": 65, "velocity": 83, "duration": 114}, {"note": 67, "velocity": 90, "duration": 129}, {"note": 0, "velocity": 0, "duration": 111}, {"note": 69, "velocity": 95, "duration": 73}, {"note": 69, "velocity": 102, "duration": 237}, {"note": 0, "velocity": 0, "duration": 123}, {"note": 60, "velocity": 93, "duration": 116}, {"note": 62, "velocity": 78, "duration": 121}, {"note": 65, "velocity": 85, "duration": 106}, {"note": 67, "velocity": 77, "duration": 94}, {"note": 65, "velocity": 92, "duration": 68}, {"note": 67, "velocity": 89, "duration": 105}, {"note": 65, "velocity": 89, "duration": 107}, {"note": 0, "velocity": 0, "duration": 133}, {"note": 72, "velocity": 102, "duration": 142}, {"note": 0, "velocity": 0, "duration": 98}, {"note": 69, "velocity": 96, "duration": 103}, {"note": 67, "velocity": 73, "duration": 113}, {"note": 69, "velocity": 79, "duration": 118}, {"note": 67, "velocity": 85, "duration": 78}, {"note": 65, "velocity": 92, "duration": 100}, {"note": 0, "velocity": 0, "duration": 140}, {"note": 69, "velocity": 102, "duration": 156}, {"note": 0, "velocity": 0, "duration": 84}, {"note": 69, "velocity": 112, "duration": 98}, {"note": 67, "velocity": 93, "duration": 111}, {"note": 65, "velocity": 81, "duration": 131}, {"note": 67, "velocity": 92, "duration": 186}, {"note": 67, "velocity": 99, "duration": 119}, {"note": 67, "velocity": 97, "duration": 68}, {"note": 67, "velocity": 102, "duration": 156}, {"note": 65, "velocity": 96, "duration": 124}, {"note": 62, "velocity": 82, "duration": 108}, {"note": 67, "velocity": 85, "duration": 183}, {"note": 0, "velocity": 0, "duration": 163}, {"note": 60, "velocity": 89, "duration": 78}, {"note": 62, "velocity": 97, "duration": 64}, {"note": 65, "velocity": 96, "duration": 60}, {"note": 67, "velocity": 99, "duration": 44}, {"note": 0, "velocity": 0, "duration": 76}, {"note": 65, "velocity": 99, "duration": 77}, {"note": 67, "velocity": 100, "duration": 61}, {"note": 69, "velocity": 122, "duration": 102}, {"note": 0, "velocity": 0, "duration": 134}, {"note": 72, "velocity": 112, "duration": 156}, {"note": 0, "velocity": 0, "duration": 87}, {"note": 69, "velocity": 96, "duration": 80}, {"note": 67, "velocity": 92, "duration": 53}, {"note": 0, "velocity": 0, "duration": 68}, {"note": 65, "velocity": 95, "duration": 54}, {"note": 0, "velocity": 0, "duration": 67}, {"note": 67, "velocity": 100, "duration": 83}, {"note": 69, "velocity": 99, "duration": 73}, {"note": 0, "velocity": 0, "duration": 158}, {"note": 74, "velocity": 100, "duration": 164}, {"note": 0, "velocity": 0, "duration": 70}, {"note": 69, "velocity": 107, "duration": 51}, {"note": 0, "velocity": 0, "duration": 64}, {"note": 67, "velocity": 100, "duration": 63}, {"note": 65, "velocity": 83, "duration": 52}, {"note": 0, "velocity": 0, "duration": 76}, {"note": 67, "velocity": 97, "duration": 87}, {"note": 65, "velocity": 100, "duration": 129}, {"note": 0, "velocity": 0, "duration": 72}, {"note": 62, "velocity": 93, "duration": 69}, {"note": 65, "velocity": 86, "duration": 99}, {"note": 0, "velocity": 0, "duration": 76}, {"note": 67, "velocity": 93, "duration": 111}, {"note": 0, "velocity": 0, "duration": 83}, {"note": 69, "velocity": 107, "duration": 75}, {"note": 72, "velocity": 90, "duration": 227}, {"note": 0, "velocity": 0, "duration": 122}, {"note": 60, "velocity": 93, "duration": 63}, {"note": 62, "velocity": 99, "duration": 61}, {"note": 0, "velocity": 0, "duration": 63}, {"note": 65, "velocity": 99, "duration": 46}, {"note": 0, "velocity": 0, "duration": 76}, {"note": 67, "velocity": 95, "duration": 51}, {"note": 0, "velocity": 0, "duration": 61}, {"note": 65, "velocity": 88, "duration": 41}, {"note": 0, "velocity": 0, "duration": 73}, {"note": 67, "velocity": 112, "duration": 52}, {"note": 0, "velocity": 0, "duration": 79}, {"note": 65, "velocity": 117, "duration": 86}, {"note": 0, "velocity": 0, "duration": 166}, {"note": 74, "velocity": 112, "duration": 142}, {"note": 0, "velocity": 0, "duration": 93}, {"note": 72, "velocity": 102, "duration": 42}, {"note": 0, "velocity": 0, "duration": 87}, {"note": 69, "velocity": 95, "duration": 45}, {"note": 0, "velocity": 0, "duration": 77}, {"note": 67, "velocity": 93, "duration": 44}, {"note": 0, "velocity": 0, "duration": 74}, {"note": 67, "velocity": 100, "duration": 55}, {"note": 0, "velocity": 0, "duration": 77}, {"note": 65, "velocity": 99, "duration": 61}, {"note": 0, "velocity": 0, "duration": 170}, {"note": 69, "velocity": 107, "duration": 160}, {"note": 0, "velocity": 0, "duration": 63}, {"note": 69, "velocity": 100, "duration": 48}, {"note": 0, "velocity": 0, "duration": 73}, {"note": 67, "velocity": 97, "duration": 44}, {"note": 0, "velocity": 0, "duration": 71}, {"note": 65, "velocity": 92, "duration": 52}, {"note": 0, "velocity": 0, "duration": 74}, {"note": 67, "velocity": 112, "duration": 53}, {"note": 0, "velocity": 0, "duration": 92}, {"note": 67, "velocity": 97, "duration": 52}, {"note": 0, "velocity": 0, "duration": 162}, {"note": 67, "velocity": 96, "duration": 40}, {"note": 0, "velocity": 0, "duration": 92}, {"note": 67, "velocity": 107, "duration": 66}, {"note": 0, "velocity": 0, "duration": 91}, {"note": 65, "velocity": 102, "duration": 111}, {"note": 0, "velocity": 0, "duration": 82}, {"note": 62, "velocity": 93, "duration": 108}, {"note": 65, "velocity": 107, "duration": 329}, {"note": 65, "velocity": 96, "duration": 100}, {"note": 77, "velocity": 122, "duration": 113}, {"note": 76, "velocity": 90, "duration": 64}, {"note": 76, "velocity": 99, "duration": 104}, {"note": 74, "velocity": 79, "duration": 114}, {"note": 76, "velocity": 100, "duration": 157}, {"note": 74, "velocity": 102, "duration": 148}, {"note": 72, "velocity": 102, "duration": 120}, {"note": 74, "velocity": 93, "duration": 132}, {"note": 72, "velocity": 97, "duration": 113}, {"note": 69, "velocity": 85, "duration": 127}, {"note": 67, "velocity": 85, "duration": 89}, {"note": 69, "velocity": 100, "duration": 141}, {"note": 72, "velocity": 117, "duration": 93}, {"note": 74, "velocity": 107, "duration": 103}, {"note": 72, "velocity": 95, "duration": 129}, {"note": 0, "velocity": 0, "duration": 121}, {"note": 72, "velocity": 97, "duration": 96}, {"note": 74, "velocity": 97, "duration": 56}, {"note": 72, "velocity": 99, "duration": 58}, {"note": 0, "velocity": 0, "duration": 66}, {"note": 74, "velocity": 127, "duration": 100}, {"note": 0, "velocity": 0, "duration": 86}, {"note": 74, "velocity": 107, "duration": 79}, {"note": 0, "velocity": 0, "duration": 85}, {"note": 74, "velocity": 122, "duration": 56}, {"note": 0, "velocity": 0, "duration": 72}, {"note": 74, "velocity": 127, "duration": 87}, {"note": 0, "velocity": 0, "duration": 103}, {"note": 72, "velocity": 127, "duration": 101}, {"note": 0, "velocity": 0, "duration": 95}, {"note": 74, "velocity": 117, "duration": 60}, {"note": 0, "velocity": 0, "duration": 69}, {"note": 72, "velocity": 127, "duration": 63}, {"note": 0, "velocity": 0, "duration": 69}, {"note": 69, "velocity": 112, "duration": 214}, {"note": 0, "velocity": 0, "duration": 240}, {"note": 65, "velocity": 95, "duration": 77}, {"note": 67, "velocity": 99, "duration": 67}, {"note": 69, "velocity": 93, "duration": 58}, {"note": 0, "velocity": 0, "duration": 62}, {"note": 72, "velocity": 112, "duration": 62}, {"note": 69, "velocity": 99, "duration": 57}, {"note": 0, "velocity": 0, "duration": 63}, {"note": 67, "velocity": 96, "duration": 49}, {"note": 0, "velocity": 0, "duration": 69}, {"note": 65, "velocity": 107, "duration": 88}, {"note": 0, "velocity": 0, "duration": 167}, {"note": 65, "velocity": 95, "duration": 43}, {"note": 0, "velocity": 0, "duration": 62}, {"note": 67, "velocity": 99, "duration": 47}, {"note": 0, "velocity": 0, "duration": 64}, {"note": 69, "velocity": 100, "duration": 37}, {"note": 0, "velocity": 0, "duration": 85}, {"note": 74, "velocity": 117, "duration": 42}, {"note": 0, "velocity": 0, "duration": 73}, {"note": 69, "velocity": 102, "duration": 51}, {"note": 0, "velocity": 0, "duration": 76}, {"note": 67, "velocity": 100, "duration": 43}, {"note": 0, "velocity": 0, "duration": 76}, {"note": 65, "velocity": 112, "duration": 73}, {"note": 0, "velocity": 0, "duration": 193}, {"note": 65, "velocity": 97, "duration": 46}, {"note": 0, "velocity": 0, "duration": 65}, {"note": 65, "velocity": 102, "duration": 51}, {"note": 65, "velocity": 99, "duration": 82}, {"note": 77, "velocity": 117, "duration": 74}, {"note": 0, "velocity": 0, "duration": 86}, {"note": 77, "velocity": 127, "duration": 106}, {"note": 0, "velocity": 0, "duration": 82}, {"note": 77, "velocity": 127, "duration": 59}, {"note": 0, "velocity": 0, "duration": 74}, {"note": 77, "velocity": 127, "duration": 82}, {"note": 0, "velocity": 0, "duration": 90}, {"note": 74, "velocity": 127, "duration": 139}, {"note": 0, "velocity": 0, "duration": 61}, {"note": 77, "velocity": 127, "duration": 71}, {"note": 74, "velocity": 112, "duration": 114}, {"note": 72, "velocity": 99, "duration": 143}, {"note": 0, "velocity": 0, "duration": 83}, {"note": 72, "velocity": 122, "duration": 63}, {"note": 0, "velocity": 0, "duration": 197}, {"note": 65, "velocity": 100, "duration": 65}, {"note": 77, "velocity": 102, "duration": 98}, {"note": 76, "velocity": 107, "duration": 141}, {"note": 77, "velocity": 127, "duration": 118}, {"note": 76, "velocity": 117, "duration": 114}, {"note": 74, "velocity": 96, "duration": 119}, {"note": 72, "velocity": 92, "duration": 142}, {"note": 74, "velocity": 127, "duration": 126}, {"note": 72, "velocity": 112, "duration": 89}, {"note": 69, "velocity": 96, "duration": 102}, {"note": 67, "velocity": 92, "duration": 66}, {"note": 69, "velocity": 95, "duration": 95}, {"note": 72, "velocity": 90, "duration": 61}, {"note": 0, "velocity": 0, "duration": 75}, {"note": 74, "velocity": 117, "duration": 72}, {"note": 72, "velocity": 112, "duration": 106}, {"note": 0, "velocity": 0, "duration": 136}, {"note": 72, "velocity": 107, "duration": 67}, {"note": 74, "velocity": 112, "duration": 54}, {"note": 72, "velocity": 102, "duration": 50}, {"note": 0, "velocity": 0, "duration": 65}, {"note": 74, "velocity": 127, "duration": 100}, {"note": 0, "velocity": 0, "duration": 63}, {"note": 74, "velocity": 107, "duration": 87}, {"note": 0, "velocity": 0, "duration": 117}, {"note": 74, "velocity": 112, "duration": 55}, {"note": 0, "velocity": 0, "duration": 65}, {"note": 74, "velocity": 127, "duration": 86}, {"note": 0, "velocity": 0, "duration": 76}, {"note": 72, "velocity": 112, "duration": 121}, {"note": 0, "velocity": 0, "duration": 69}, {"note": 74, "velocity": 107, "duration": 72}, {"note": 0, "velocity": 0, "duration": 61}, {"note": 72, "velocity": 112, "duration": 113}, {"note": 69, "velocity": 102, "duration": 287}, {"note": 0, "velocity": 0, "duration": 196}, {"note": 65, "velocity": 89, "duration": 107}, {"note": 67, "velocity": 92, "duration": 75}, {"note": 69, "velocity": 88, "duration": 62}, {"note": 72, "velocity": 107, "duration": 66}, {"note": 69, "velocity": 102, "duration": 58}, {"note": 0, "velocity": 0, "duration": 67}, {"note": 67, "velocity": 93, "duration": 53}, {"note": 0, "velocity": 0, "duration": 63}, {"note": 65, "velocity": 99, "duration": 102}, {"note": 0, "velocity": 0, "duration": 150}, {"note": 65, "velocity": 78, "duration": 81}, {"note": 67, "velocity": 93, "duration": 60}, {"note": 69, "velocity": 102, "duration": 46}, {"note": 0, "velocity": 0, "duration": 80}, {"note": 74, "velocity": 127, "duration": 61}, {"note": 69, "velocity": 102, "duration": 57}, {"note": 0, "velocity": 0, "duration": 64}, {"note": 67, "velocity": 117, "duration": 46}, {"note": 0, "velocity": 0, "duration": 76}, {"note": 65, "velocity": 112, "duration": 80}, {"note": 77, "velocity": 127, "duration": 945}, {"note": 0, "velocity": 0, "duration": 538}, {"note": 77, "velocity": 112, "duration": 96}, {"note": 74, "velocity": 85, "duration": 47}, {"note": 0, "velocity": 0, "duration": 69}, {"note": 77, "velocity": 107, "duration": 63}, {"note": 74, "velocity": 95, "duration": 49}, {"note": 0, "velocity": 0, "duration": 73}, {"note": 72, "velocity": 95, "duration": 235}, {"note": 0, "velocity": 0, "duration": 80}, {"note": 72, "velocity": 96, "duration": 52}, {"note": 0, "velocity": 0, "duration": 65}, {"note": 74, "velocity": 112, "duration": 88}, {"note": 72, "velocity": 97, "duration": 54}, {"note": 0, "velocity": 0, "duration": 74}, {"note": 69, "velocity": 95, "duration": 57}, {"note": 0, "velocity": 0, "duration": 68}, {"note": 67, "velocity": 92, "duration": 63}, {"note": 0, "velocity": 0, "duration": 61}, {"note": 69, "velocity": 107, "duration": 111}, {"note": 0, "velocity": 0, "duration": 61}, {"note": 67, "velocity": 96, "duration": 147}, {"note": 0, "velocity": 0, "duration": 146}, {"note": 65, "velocity": 102, "duration": 106}, {"note": 62, "velocity": 89, "duration": 120}, {"note": 65, "velocity": 97, "duration": 97}, {"note": 67, "velocity": 82, "duration": 172}, {"note": 65, "velocity": 95, "duration": 729}, {"note": 0, "velocity": 0, "duration": 471}, {"note": 65, "velocity": 96, "duration": 100}, {"note": 77, "velocity": 122, "duration": 113}, {"note": 76, "velocity": 90, "duration": 64}, {"note": 76, "velocity": 99, "duration": 104}, {"note": 74, "velocity": 79, "duration": 114}, {"note": 76, "velocity": 100, "duration": 157}, {"note": 74, "velocity": 102, "duration": 148}, {"note": 72, "velocity": 102, "duration": 120}, {"note": 74, "velocity": 93, "duration": 132}, {"note": 72, "velocity": 97, "duration": 113}, {"note": 69, "velocity": 85, "duration": 127}, {"note": 67, "velocity": 85, "duration": 89}, {"note": 69, "velocity": 100, "duration": 141}, {"note": 72, "velocity": 117, "duration": 93}, {"note": 74, "velocity": 107, "duration": 103}, {"note": 72, "velocity": 95, "duration": 129}, {"note": 0, "velocity": 0, "duration": 121}, {"note": 72, "velocity": 97, "duration": 96}, {"note": 74, "velocity": 97, "duration": 56}, {"note": 72, "velocity": 99, "duration": 58}, {"note": 0, "velocity": 0, "duration": 66}, {"note": 74, "velocity": 127, "duration": 100}, {"note": 0, "velocity": 0, "duration": 86}, {"note": 74, "velocity": 107, "duration": 79}, {"note": 0, "velocity": 0, "duration": 85}, {"note": 74, "velocity": 122, "duration": 56}, {"note": 0, "velocity": 0, "duration": 72}, {"note": 74, "velocity": 127, "duration": 87}, {"note": 0, "velocity": 0, "duration": 103}, {"note": 72, "velocity": 127, "duration": 101}, {"note": 0, "velocity": 0, "duration": 95}, {"note": 74, "velocity": 117, "duration": 60}, {"note": 0, "velocity": 0, "duration": 69}, {"note": 72, "velocity": 127, "duration": 63}, {"note": 0, "velocity": 0, "duration": 69}, {"note": 69, "velocity": 112, "duration": 214}, {"note": 0, "velocity": 0, "duration": 240}, {"note": 65, "velocity": 95, "duration": 77}, {"note": 67, "velocity": 99, "duration": 67}, {"note": 69, "velocity": 93, "duration": 58}, {"note": 0, "velocity": 0, "duration": 62}, {"note": 72, "velocity": 112, "duration": 62}, {"note": 69, "velocity": 99, "duration": 57}, {"note": 0, "velocity": 0, "duration": 63}, {"note": 67, "velocity": 96, "duration": 49}, {"note": 0, "velocity": 0, "duration": 69}, {"note": 65, "velocity": 107, "duration": 88}, {"note": 0, "velocity": 0, "duration": 167}, {"note": 65, "velocity": 95, "duration": 43}, {"note": 0, "velocity": 0, "duration": 62}, {"note": 67, "velocity": 99, "duration": 47}, {"note": 0, "velocity": 0, "duration": 64}, {"note": 69, "velocity": 100, "duration": 37}, {"note": 0, "velocity": 0, "duration": 85}, {"note": 74, "velocity": 117, "duration": 42}, {"note": 0, "velocity": 0, "duration": 73}, {"note": 69, "velocity": 102, "duration": 51}, {"note": 0, "velocity": 0, "duration": 76}, {"note": 67, "velocity": 100, "duration": 43}, {"note": 0, "velocity": 0, "duration": 76}, {"note": 65, "velocity": 112, "duration": 73}, {"note": 0, "velocity": 0, "duration": 193}, {"note": 65, "velocity": 97, "duration": 46}, {"note": 0, "velocity": 0, "duration": 65}, {"note": 65, "velocity": 102, "duration": 51}, {"note": 65, "velocity": 99, "duration": 82}, {"note": 77, "velocity": 117, "duration": 74}, {"note": 0, "velocity": 0, "duration": 86}, {"note": 77, "velocity": 127, "duration": 106}, {"note": 0, "velocity": 0, "duration": 82}, {"note": 77, "velocity": 127, "duration": 59}, {"note": 0, "velocity": 0, "duration": 74}, {"note": 77, "velocity": 127, "duration": 82}, {"note": 0, "velocity": 0, "duration": 90}, {"note": 74, "velocity": 127, "duration": 139}, {"note": 0, "velocity": 0, "duration": 61}, {"note": 77, "velocity": 127, "duration": 71}, {"note": 74, "velocity": 112, "duration": 114}, {"note": 72, "velocity": 99, "duration": 143}, {"note": 0, "velocity": 0, "duration": 83}, {"note": 72, "velocity": 122, "duration": 63}, {"note": 0, "velocity": 0, "duration": 197}, {"note": 65, "velocity": 100, "duration": 65}, {"note": 77, "velocity": 102, "duration": 98}, {"note": 76, "velocity": 107, "duration": 141}, {"note": 77, "velocity": 127, "duration": 118}, {"note": 76, "velocity": 117, "duration": 114}, {"note": 74, "velocity": 96, "duration": 119}, {"note": 72, "velocity": 92, "duration": 142}, {"note": 74, "velocity": 127, "duration": 126}, {"note": 72, "velocity": 112, "duration": 89}, {"note": 69, "velocity": 96, "duration": 102}, {"note": 67, "velocity": 92, "duration": 66}, {"note": 69, "velocity": 95, "duration": 95}, {"note": 72, "velocity": 90, "duration": 61}, {"note": 0, "velocity": 0, "duration": 75}, {"note": 74, "velocity": 117, "duration": 72}, {"note": 72, "velocity": 112, "duration": 106}, {"note": 0, "velocity": 0, "duration": 136}, {"note": 72, "velocity": 107, "duration": 67}, {"note": 74, "velocity": 112, "duration": 54}, {"note": 72, "velocity": 102, "duration": 50}, {"note": 0, "velocity": 0, "duration": 65}, {"note": 74, "velocity": 127, "duration": 100}, {"note": 0, "velocity": 0, "duration": 63}, {"note": 74, "velocity": 107, "duration": 87}, {"note": 0, "velocity": 0, "duration": 117}, {"note": 74, "velocity": 112, "duration": 55}, {"note": 0, "velocity": 0, "duration": 65}, {"note": 74, "velocity": 127, "duration": 86}, {"note": 0, "velocity": 0, "duration": 76}, {"note": 72, "velocity": 112, "duration": 121}, {"note": 0, "velocity": 0, "duration": 69}, {"note": 74, "velocity": 107, "duration": 72}, {"note": 0, "velocity": 0, "duration": 61}, {"note": 72, "velocity": 112, "duration": 113}, {"note": 69, "velocity": 102, "duration": 287}, {"note": 0, "velocity": 0, "duration": 196}, {"note": 65, "velocity": 89, "duration": 107}, {"note": 67, "velocity": 92, "duration": 75}, {"note": 69, "velocity": 88, "duration": 62}, {"note": 72, "velocity": 107, "duration": 66}, {"note": 69, "velocity": 102, "duration": 58}, {"note": 0, "velocity": 0, "duration": 67}, {"note": 67, "velocity": 93, "duration": 53}, {"note": 0, "velocity": 0, "duration": 63}, {"note": 65, "velocity": 99, "duration": 102}, {"note": 0, "velocity": 0, "duration": 150}, {"note": 65, "velocity": 78, "duration": 81}, {"note": 67, "velocity": 93, "duration": 60}, {"note": 69, "velocity": 102, "duration": 46}, {"note": 0, "velocity": 0, "duration": 80}, {"note": 74, "velocity": 127, "duration": 61}, {"note": 69, "velocity": 102, "duration": 57}, {"note": 0, "velocity": 0, "duration": 64}, {"note": 67, "velocity": 117, "duration": 46}, {"note": 0, "velocity": 0, "duration": 76}, {"note": 65, "velocity": 112, "duration": 80}, {"note": 77, "velocity": 127, "duration": 945}, {"note": 0, "velocity": 0, "duration": 992}, {"note": 77, "velocity": 112, "duration": 96}, {"note": 74, "velocity": 85, "duration": 48}, {"note": 0, "velocity": 0, "duration": 72}, {"note": 77, "velocity": 107, "duration": 63}, {"note": 74, "velocity": 95, "duration": 49}, {"note": 0, "velocity": 0, "duration": 71}, {"note": 72, "velocity": 95, "duration": 235}, {"note": 0, "velocity": 0, "duration": 125}, {"note": 72, "velocity": 96, "duration": 52}, {"note": 0, "velocity": 0, "duration": 68}, {"note": 74, "velocity": 112, "duration": 88}, {"note": 72, "velocity": 97, "duration": 54}, {"note": 0, "velocity": 0, "duration": 66}, {"note": 69, "velocity": 95, "duration": 57}, {"note": 0, "velocity": 0, "duration": 63}, {"note": 67, "velocity": 92, "duration": 63}, {"note": 0, "velocity": 0, "duration": 140}, {"note": 69, "velocity": 100, "duration": 211}, {"note": 0, "velocity": 0, "duration": 154}, {"note": 67, "velocity": 95, "duration": 175}, {"note": 65, "velocity": 88, "duration": 136}, {"note": 62, "velocity": 89, "duration": 119}, {"note": 65, "velocity": 88, "duration": 227}, {"note": 67, "velocity": 89, "duration": 220}, {"note": 65, "velocity": 76, "duration": 1090}, {"note": 0, "velocity": 0, "duration": 65}, {"note": 65, "velocity": 93, "duration": 150}, {"note": 62, "velocity": 89, "duration": 126}, {"note": 65, "velocity": 96, "duration": 105}, {"note": 74, "velocity": 102, "duration": 143}, {"note": 72, "velocity": 107, "duration": 153}, {"note": 72, "velocity": 107, "duration": 115}, {"note": 74, "velocity": 107, "duration": 104}, {"note": 72, "velocity": 117, "duration": 99}, {"note": 69, "velocity": 97, "duration": 128}, {"note": 72, "velocity": 95, "duration": 162}, {"note": 81, "velocity": 107, "duration": 196}, {"note": 79, "velocity": 112, "duration": 160}, {"note": 77, "velocity": 100, "duration": 161}, {"note": 74, "velocity": 96, "duration": 147}, {"note": 77, "velocity": 102, "duration": 239}, {"note": 0, "velocity": 0, "duration": 130}, {"note": 79, "velocity": 112, "duration": 215}, {"note": 77, "velocity": 107, "duration": 1138}]]