[[{"note": 57, "velocity": 90, "duration": 262}, {"note": 60, "velocity": 95, "duration": 341}, {"note": 0, "velocity": 0, "duration": 139}, {"note": 64, "velocity": 99, "duration": 143}, {"note": 62, "velocity": 75, "duration": 140}, {"note": 60, "velocity": 70, "duration": 388}, {"note": 0, "velocity": 0, "duration": 572}, {"note": 65, "velocity": 102, "duration": 166}, {"note": 0, "velocity": 0, "duration": 74}, {"note": 65, "velocity": 112, "duration": 123}, {"note": 0, "velocity": 0, "duration": 117}, {"note": 62, "velocity": 107, "duration": 208}, {"note": 60, "velocity": 65, "duration": 186}, {"note": 60, "velocity": 99, "duration": 544}, {"note": 0, "velocity": 0, "duration": 416}, {"note": 65, "velocity": 107, "duration": 158}, {"note": 0, "velocity": 0, "duration": 82}, {"note": 65, "velocity": 102, "duration": 406}, {"note": 0, "velocity": 0, "duration": 74}, {"note": 62, "velocity": 107, "duration": 180}, {"note": 72, "velocity": 127, "duration": 392}, {"note": 0, "velocity": 0, "duration": 328}, {"note": 69, "velocity": 97, "duration": 223}, {"note": 67, "velocity": 93, "duration": 391}, {"note": 67, "velocity": 102, "duration": 151}, {"note": 0, "velocity": 0, "duration": 89}, {"note": 69, "velocity": 95, "duration": 202}, {"note": 65, "velocity": 88, "duration": 247}, {"note": 67, "velocity": 95, "duration": 327}, {"note": 0, "velocity": 0, "duration": 633}, {"note": 69, "velocity": 122, "duration": 160}, {"note": 0, "velocity": 0, "duration": 80}, {"note": 69, "velocity": 112, "duration": 234}, {"note": 67, "velocity": 96, "duration": 246}, {"note": 69, "velocity": 100, "duration": 247}, {"note": 72, "velocity": 117, "duration": 430}, {"note": 0, "velocity": 0, "duration": 530}, {"note": 62, "velocity": 107, "duration": 264}, {"note": 62, "velocity": 100, "duration": 24}, {"note": 0, "velocity": 0, "duration": 96}, {"note": 65, "velocity": 89, "duration": 94}, {"note": 60, "velocity": 89, "duration": 210}, {"note": 62, "velocity": 96, "duration": 210}, {"note": 65, "velocity": 100, "duration": 457}, {"note": 0, "velocity": 0, "duration": 503}, {"note": 65, "velocity": 107, "duration": 222}, {"note": 62, "velocity": 92, "duration": 226}, {"note": 69, "velocity": 112, "duration": 203}, {"note": 69, "velocity": 112, "duration": 172}, {"note": 0, "velocity": 0, "duration": 68}, {"note": 67, "velocity": 112, "duration": 269}, {"note": 64, "velocity": 97, "duration": 200}, {"note": 62, "velocity": 100, "duration": 222}, {"note": 57, "velocity": 88, "duration": 257}, {"note": 60, "velocity": 96, "duration": 513}, {"note": 0, "velocity": 0, "duration": 1407}, {"note": 74, "velocity": 127, "duration": 170}, {"note": 0, "velocity": 0, "duration": 70}, {"note": 74, "velocity": 127, "duration": 222}, {"note": 72, "velocity": 100, "duration": 201}, {"note": 74, "velocity": 122, "duration": 195}, {"note": 77, "velocity": 127, "duration": 520}, {"note": 0, "velocity": 0, "duration": 440}, {"note": 74, "velocity": 127, "duration": 164}, {"note": 0, "velocity": 0, "duration": 76}, {"note": 77, "velocity": 107, "duration": 155}, {"note": 0, "velocity": 0, "duration": 85}, {"note": 74, "velocity": 97, "duration": 154}, {"note": 0, "velocity": 0, "duration": 86}, {"note": 69, "velocity": 97, "duration": 157}, {"note": 0, "velocity": 0, "duration": 83}, {"note": 74, "velocity": 102, "duration": 240}, {"note": 72, "velocity": 100, "duration": 358}, {"note": 0, "velocity": 0, "duration": 362}, {"note": 72, "velocity": 112, "duration": 294}, {"note": 0, "velocity": 0, "duration": 66}, {"note": 74, "velocity": 102, "duration": 123}, {"note": 77, "velocity": 97, "duration": 224}, {"note": 76, "velocity": 112, "duration": 238}, {"note": 74, "velocity": 122, "duration": 238}, {"note": 72, "velocity": 100, "duration": 117}, {"note": 74, "velocity": 99, "duration": 112}, {"note": 72, "velocity": 112, "duration": 175}, {"note": 0, "velocity": 0, "duration": 65}, {"note": 69, "velocity": 99, "duration": 222}, {"note": 67, "velocity": 112, "duration": 236}, {"note": 67, "velocity": 102, "duration": 137}, {"note": 0, "velocity": 0, "duration": 103}, {"note": 69, "velocity": 117, "duration": 102}, {"note": 67, "velocity": 92, "duration": 113}, {"note": 65, "velocity": 100, "duration": 234}, {"note": 67, "velocity": 112, "duration": 335}, {"note": 0, "velocity": 0, "duration": 625}, {"note": 69, "velocity": 127, "duration": 152}, {"note": 0, "velocity": 0, "duration": 88}, {"note": 69, "velocity": 112, "duration": 150}, {"note": 0, "velocity": 0, "duration": 90}, {"note": 67, "velocity": 107, "duration": 181}, {"note": 69, "velocity": 112, "duration": 220}, {"note": 72, "velocity": 127, "duration": 432}, {"note": 0, "velocity": 0, "duration": 528}, {"note": 62, "velocity": 127, "duration": 226}, {"note": 65, "velocity": 100, "duration": 178}, {"note": 0, "velocity": 0, "duration": 62}, {"note": 60, "velocity": 100, "duration": 228}, {"note": 62, "velocity": 112, "duration": 208}, {"note": 65, "velocity": 127, "duration": 460}, {"note": 0, "velocity": 0, "duration": 500}, {"note": 65, "velocity": 107, "duration": 206}, {"note": 62, "velocity": 100, "duration": 212}, {"note": 72, "velocity": 122, "duration": 208}, {"note": 69, "velocity": 112, "duration": 131}, {"note": 72, "velocity": 99, "duration": 111}, {"note": 67, "velocity": 100, "duration": 428}, {"note": 0, "velocity": 0, "duration": 532}, {"note": 62, "velocity": 117, "duration": 134}, {"note": 0, "velocity": 0, "duration": 106}, {"note": 62, "velocity": 100, "duration": 103}, {"note": 65, "velocity": 93, "duration": 146}, {"note": 62, "velocity": 100, "duration": 149}, {"note": 0, "velocity": 0, "duration": 91}, {"note": 57, "velocity": 102, "duration": 186}, {"note": 62, "velocity": 100, "duration": 230}, {"note": 60, "velocity": 102, "duration": 586}, {"note": 0, "velocity": 0, "duration": 134}, {"note": 74, "velocity": 127, "duration": 170}, {"note": 0, "velocity": 0, "duration": 70}, {"note": 74, "velocity": 127, "duration": 222}, {"note": 72, "velocity": 100, "duration": 201}, {"note": 74, "velocity": 122, "duration": 195}, {"note": 77, "velocity": 127, "duration": 520}, {"note": 0, "velocity": 0, "duration": 440}, {"note": 74, "velocity": 127, "duration": 164}, {"note": 0, "velocity": 0, "duration": 76}, {"note": 77, "velocity": 107, "duration": 155}, {"note": 0, "velocity": 0, "duration": 85}, {"note": 74, "velocity": 97, "duration": 154}, {"note": 0, "velocity": 0, "duration": 86}, {"note": 69, "velocity": 97, "duration": 157}, {"note": 0, "velocity": 0, "duration": 83}, {"note": 74, "velocity": 102, "duration": 240}, {"note": 72, "velocity": 100, "duration": 358}, {"note": 0, "velocity": 0, "duration": 362}, {"note": 72, "velocity": 112, "duration": 294}, {"note": 0, "velocity": 0, "duration": 66}, {"note": 74, "velocity": 102, "duration": 123}, {"note": 77, "velocity": 97, "duration": 224}, {"note": 76, "velocity": 112, "duration": 238}, {"note": 74, "velocity": 122, "duration": 238}, {"note": 72, "velocity": 100, "duration": 117}, {"note": 74, "velocity": 99, "duration": 112}, {"note": 72, "velocity": 112, "duration": 175}, {"note": 0, "velocity": 0, "duration": 65}, {"note": 69, "velocity": 99, "duration": 222}, {"note": 67, "velocity": 112, "duration": 236}, {"note": 67, "velocity": 102, "duration": 137}, {"note": 0, "velocity": 0, "duration": 103}, {"note": 69, "velocity": 117, "duration": 102}, {"note": 67, "velocity": 92, "duration": 113}, {"note": 65, "velocity": 100, "duration": 234}, {"note": 67, "velocity": 112, "duration": 335}, {"note": 0, "velocity": 0, "duration": 625}, {"note": 69, "velocity": 127, "duration": 152}, {"note": 0, "velocity": 0, "duration": 88}, {"note": 69, "velocity": 112, "duration": 150}, {"note": 0, "velocity": 0, "duration": 90}, {"note": 67, "velocity": 107, "duration": 181}, {"note": 69, "velocity": 112, "duration": 220}, {"note": 72, "velocity": 127, "duration": 432}, {"note": 0, "velocity": 0, "duration": 528}, {"note": 62, "velocity": 127, "duration": 226}, {"note": 65, "velocity": 100, "duration": 178}, {"note": 0, "velocity": 0, "duration": 62}, {"note": 60, "velocity": 100, "duration": 228}, {"note": 62, "velocity": 112, "duration": 208}, {"note": 65, "velocity": 127, "duration": 460}, {"note": 0, "velocity": 0, "duration": 500}, {"note": 65, "velocity": 107, "duration": 206}, {"note": 62, "velocity": 100, "duration": 212}, {"note": 72, "velocity": 122, "duration": 208}, {"note": 69, "velocity": 112, "duration": 131}, {"note": 72, "velocity": 99, "duration": 111}, {"note": 67, "velocity": 100, "duration": 428}, {"note": 0, "velocity": 0, "duration": 532}, {"note": 62, "velocity": 117, "duration": 134}, {"note": 0, "velocity": 0, "duration": 106}, {"note": 62, "velocity": 100, "duration": 103}, {"note": 65, "velocity": 93, "duration": 146}, {"note": 62, "velocity": 100, "duration": 149}, {"note": 0, "velocity": 0, "duration": 91}, {"note": 57, "velocity": 102, "duration": 186}, {"note": 62, "velocity": 100, "duration": 230}, {"note": 60, "velocity": 102, "duration": 586}, {"note": 0, "velocity": 0, "duration": 7814}, {"note": 57, "velocity": 90, "duration": 262}, {"note": 60, "velocity": 95, "duration": 341}, {"note": 0, "velocity": 0, "duration": 139}, {"note": 64, "velocity": 99, "duration": 143}, {"note": 62, "velocity": 75, "duration": 140}, {"note": 60, "velocity": 70, "duration": 388}, {"note": 0, "velocity": 0, "duration": 572}, {"note": 65, "velocity": 102, "duration": 166}, {"note": 0, "velocity": 0, "duration": 74}, {"note": 65, "velocity": 112, "duration": 123}, {"note": 0, "velocity": 0, "duration": 117}, {"note": 62, "velocity": 107, "duration": 208}, {"note": 60, "velocity": 65, "duration": 186}, {"note": 60, "velocity": 99, "duration": 544}, {"note": 0, "velocity": 0, "duration": 416}, {"note": 65, "velocity": 107, "duration": 158}, {"note": 0, "velocity": 0, "duration": 82}, {"note": 65, "velocity": 102, "duration": 406}, {"note": 0, "velocity": 0, "duration": 74}, {"note": 62, "velocity": 107, "duration": 180}, {"note": 72, "velocity": 127, "duration": 392}, {"note": 0, "velocity": 0, "duration": 328}, {"note": 69, "velocity": 97, "duration": 223}, {"note": 67, "velocity": 93, "duration": 391}, {"note": 67, "velocity": 102, "duration": 151}, {"note": 0, "velocity": 0, "duration": 89}, {"note": 69, "velocity": 95, "duration": 202}, {"note": 65, "velocity": 88, "duration": 247}, {"note": 67, "velocity": 95, "duration": 327}, {"note": 0, "velocity": 0, "duration": 633}, {"note": 69, "velocity": 122, "duration": 160}, {"note": 0, "velocity": 0, "duration": 80}, {"note": 69, "velocity": 112, "duration": 234}, {"note": 67, "velocity": 96, "duration": 246}, {"note": 69, "velocity": 100, "duration": 247}, {"note": 72, "velocity": 117, "duration": 430}, {"note": 0, "velocity": 0, "duration": 530}, {"note": 62, "velocity": 107, "duration": 264}, {"note": 62, "velocity": 100, "duration": 24}, {"note": 0, "velocity": 0, "duration": 96}, {"note": 65, "velocity": 89, "duration": 94}, {"note": 60, "velocity": 89, "duration": 210}, {"note": 62, "velocity": 96, "duration": 210}, {"note": 65, "velocity": 100, "duration": 457}, {"note": 0, "velocity": 0, "duration": 503}, {"note": 65, "velocity": 107, "duration": 222}, {"note": 62, "velocity": 92, "duration": 226}, {"note": 69, "velocity": 112, "duration": 203}, {"note": 69, "velocity": 112, "duration": 172}, {"note": 0, "velocity": 0, "duration": 68}, {"note": 67, "velocity": 112, "duration": 269}, {"note": 64, "velocity": 97, "duration": 200}, {"note": 62, "velocity": 100, "duration": 222}, {"note": 57, "velocity": 88, "duration": 257}, {"note": 60, "velocity": 96, "duration": 513}, {"note": 0, "velocity": 0, "duration": 1407}, {"note": 74, "velocity": 127, "duration": 170}, {"note": 0, "velocity": 0, "duration": 70}, {"note": 74, "velocity": 127, "duration": 222}, {"note": 72, "velocity": 100, "duration": 201}, {"note": 74, "velocity": 122, "duration": 195}, {"note": 77, "velocity": 127, "duration": 520}, {"note": 0, "velocity": 0, "duration": 440}, {"note": 74, "velocity": 127, "duration": 164}, {"note": 0, "velocity": 0, "duration": 76}, {"note": 77, "velocity": 107, "duration": 155}, {"note": 0, "velocity": 0, "duration": 85}, {"note": 74, "velocity": 97, "duration": 154}, {"note": 0, "velocity": 0, "duration": 86}, {"note": 69, "velocity": 97, "duration": 157}, {"note": 0, "velocity": 0, "duration": 83}, {"note": 74, "velocity": 102, "duration": 240}, {"note": 72, "velocity": 100, "duration": 358}, {"note": 0, "velocity": 0, "duration": 362}, {"note": 72, "velocity": 112, "duration": 294}, {"note": 0, "velocity": 0, "duration": 66}, {"note": 74, "velocity": 102, "duration": 123}, {"note": 77, "velocity": 97, "duration": 224}, {"note": 76, "velocity": 112, "duration": 238}, {"note": 74, "velocity": 122, "duration": 238}, {"note": 72, "velocity": 100, "duration": 117}, {"note": 74, "velocity": 99, "duration": 112}, {"note": 72, "velocity": 112, "duration": 175}, {"note": 0, "velocity": 0, "duration": 65}, {"note": 69, "velocity": 99, "duration": 222}, {"note": 67, "velocity": 112, "duration": 236}, {"note": 67, "velocity": 102, "duration": 137}, {"note": 0, "velocity": 0, "duration": 103}, {"note": 69, "velocity": 117, "duration": 102}, {"note": 67, "velocity": 92, "duration": 113}, {"note": 65, "velocity": 100, "duration": 234}, {"note": 67, "velocity": 112, "duration": 335}, {"note": 0, "velocity": 0, "duration": 625}, {"note": 69, "velocity": 127, "duration": 152}, {"note": 0, "velocity": 0, "duration": 88}, {"note": 69, "velocity": 112, "duration": 150}, {"note": 0, "velocity": 0, "duration": 90}, {"note": 67, "velocity": 107, "duration": 181}, {"note": 69, "velocity": 112, "duration": 220}, {"note": 72, "velocity": 127, "duration": 432}, {"note": 0, "velocity": 0, "duration": 528}, {"note": 62, "velocity": 127, "duration": 226}, {"note": 65, "velocity": 100, "duration": 178}, {"note": 0, "velocity": 0, "duration": 62}, {"note": 60, "velocity": 100, "duration": 228}, {"note": 62, "velocity": 112, "duration": 208}, {"note": 65, "velocity": 127, "duration": 460}, {"note": 0, "velocity": 0, "duration": 500}, {"note": 65, "velocity": 107, "duration": 206}, {"note": 62, "velocity": 100, "duration": 212}, {"note": 72, "velocity": 122, "duration": 208}, {"note": 69, "velocity": 112, "duration": 131}, {"note": 72, "velocity": 99, "duration": 111}, {"note": 67, "velocity": 100, "duration": 428}, {"note": 0, "velocity": 0, "duration": 532}, {"note": 62, "velocity": 117, "duration": 134}, {"note": 0, "velocity": 0, "duration": 106}, {"note": 62, "velocity": 100, "duration": 103}, {"note": 65, "velocity": 93, "duration": 146}, {"note": 62, "velocity": 100, "duration": 149}, {"note": 0, "velocity": 0, "duration": 91}, {"note": 57, "velocity": 102, "duration": 186}, {"note": 62, "velocity": 100, "duration": 230}, {"note": 60, "velocity": 102, "duration": 586}, {"note": 0, "velocity": 0, "duration": 134}, {"note": 74, "velocity": 127, "duration": 170}, {"note": 0, "velocity": 0, "duration": 70}, {"note": 74, "velocity": 127, "duration": 222}, {"note": 72, "velocity": 100, "duration": 201}, {"note": 74, "velocity": 122, "duration": 195}, {"note": 77, "velocity": 127, "duration": 520}, {"note": 0, "velocity": 0, "duration": 440}, {"note": 74, "velocity": 127, "duration": 164}, {"note": 0, "velocity": 0, "duration": 76}, {"note": 77, "velocity": 107, "duration": 155}, {"note": 0, "velocity": 0, "duration": 85}, {"note": 74, "velocity": 97, "duration": 154}, {"note": 0, "velocity": 0, "duration": 86}, {"note": 69, "velocity": 97, "duration": 157}, {"note": 0, "velocity": 0, "duration": 83}, {"note": 74, "velocity": 102, "duration": 240}, {"note": 72, "velocity": 100, "duration": 358}, {"note": 0, "velocity": 0, "duration": 362}, {"note": 72, "velocity": 112, "duration": 294}, {"note": 0, "velocity": 0, "duration": 66}, {"note": 74, "velocity": 102, "duration": 123}, {"note": 77, "velocity": 97, "duration": 224}, {"note": 76, "velocity": 112, "duration": 238}, {"note": 74, "velocity": 122, "duration": 238}, {"note": 72, "velocity": 100, "duration": 117}, {"note": 74, "velocity": 99, "duration": 112}, {"note": 72, "velocity": 112, "duration": 175}, {"note": 0, "velocity": 0, "duration": 65}, {"note": 69, "velocity": 99, "duration": 222}, {"note": 67, "velocity": 112, "duration": 236}, {"note": 67, "velocity": 102, "duration": 137}, {"note": 0, "velocity": 0, "duration": 103}, {"note": 69, "velocity": 117, "duration": 102}, {"note": 67, "velocity": 92, "duration": 113}, {"note": 65, "velocity": 100, "duration": 234}, {"note": 67, "velocity": 112, "duration": 335}, {"note": 0, "velocity": 0, "duration": 625}, {"note": 69, "velocity": 127, "duration": 152}, {"note": 0, "velocity": 0, "duration": 88}, {"note": 69, "velocity": 112, "duration": 150}, {"note": 0, "velocity": 0, "duration": 90}, {"note": 67, "velocity": 107, "duration": 181}, {"note": 69, "velocity": 112, "duration": 220}, {"note": 72, "velocity": 127, "duration": 432}, {"note": 0, "velocity": 0, "duration": 528}, {"note": 62, "velocity": 127, "duration": 226}, {"note": 65, "velocity": 100, "duration": 178}, {"note": 0, "velocity": 0, "duration": 62}, {"note": 60, "velocity": 100, "duration": 228}, {"note": 62, "velocity": 112, "duration": 208}, {"note": 65, "velocity": 127, "duration": 460}, {"note": 0, "velocity": 0, "duration": 500}, {"note": 65, "velocity": 107, "duration": 206}, {"note": 62, "velocity": 100, "duration": 212}, {"note": 72, "velocity": 122, "duration": 208}, {"note": 69, "velocity": 112, "duration": 131}, {"note": 72, "velocity": 99, "duration": 111}, {"note": 67, "velocity": 100, "duration": 428}, {"note": 0, "velocity": 0, "duration": 532}, {"note": 62, "velocity": 117, "duration": 134}, {"note": 0, "velocity": 0, "duration": 106}, {"note": 62, "velocity": 100, "duration": 103}, {"note": 65, "velocity": 93, "duration": 146}, {"note": 62, "velocity": 100, "duration": 149}, {"note": 0, "velocity": 0, "duration": 91}, {"note": 57, "velocity": 102, "duration": 186}, {"note": 62, "velocity": 100, "duration": 230}, {"note": 60, "velocity": 102, "duration": 586}, {"note": 0, "velocity": 0, "duration": 134}, {"note": 74, "velocity": 127, "duration": 170}, {"note": 0, "velocity": 0, "duration": 70}, {"note": 74, "velocity": 127, "duration": 222}, {"note": 72, "velocity": 100, "duration": 201}, {"note": 74, "velocity": 122, "duration": 195}, {"note": 77, "velocity": 127, "duration": 520}, {"note": 0, "velocity": 0, "duration": 440}, {"note": 74, "velocity": 127, "duration": 164}, {"note": 0, "velocity": 0, "duration": 76}, {"note": 77, "velocity": 107, "duration": 155}, {"note": 0, "velocity": 0, "duration": 85}, {"note": 74, "velocity": 97, "duration": 154}, {"note": 0, "velocity": 0, "duration": 86}, {"note": 69, "velocity": 97, "duration": 157}, {"note": 0, "velocity": 0, "duration": 83}, {"note": 74, "velocity": 102, "duration": 240}, {"note": 72, "velocity": 100, "duration": 358}, {"note": 0, "velocity": 0, "duration": 362}, {"note": 72, "velocity": 112, "duration": 294}, {"note": 0, "velocity": 0, "duration": 66}, {"note": 74, "velocity": 102, "duration": 123}, {"note": 77, "velocity": 97, "duration": 224}, {"note": 76, "velocity": 112, "duration": 238}, {"note": 74, "velocity": 122, "duration": 238}, {"note": 72, "velocity": 100, "duration": 117}, {"note": 74, "velocity": 99, "duration": 112}, {"note": 72, "velocity": 112, "duration": 175}, {"note": 0, "velocity": 0, "duration": 65}, {"note": 69, "velocity": 99, "duration": 222}, {"note": 67, "velocity": 112, "duration": 236}, {"note": 67, "velocity": 102, "duration": 137}, {"note": 0, "velocity": 0, "duration": 103}, {"note": 69, "velocity": 117, "duration": 102}, {"note": 67, "velocity": 92, "duration": 113}, {"note": 65, "velocity": 100, "duration": 234}, {"note": 67, "velocity": 112, "duration": 335}, {"note": 0, "velocity": 0, "duration": 625}, {"note": 69, "velocity": 127, "duration": 152}, {"note": 0, "velocity": 0, "duration": 88}, {"note": 69, "velocity": 112, "duration": 150}, {"note": 0, "velocity": 0, "duration": 90}, {"note": 67, "velocity": 107, "duration": 181}, {"note": 69, "velocity": 112, "duration": 220}, {"note": 72, "velocity": 127, "duration": 432}, {"note": 0, "velocity": 0, "duration": 528}, {"note": 62, "velocity": 127, "duration": 226}, {"note": 65, "velocity": 100, "duration": 178}, {"note": 0, "velocity": 0, "duration": 62}, {"note": 60, "velocity": 100, "duration": 228}, {"note": 62, "velocity": 112, "duration": 208}, {"note": 65, "velocity": 127, "duration": 460}, {"note": 0, "velocity": 0, "duration": 500}, {"note": 65, "velocity": 107, "duration": 206}, {"note": 62, "velocity": 100, "duration": 212}, {"note": 72, "velocity": 122, "duration": 208}, {"note": 69, "velocity": 112, "duration": 131}, {"note": 72, "velocity": 99, "duration": 111}, {"note": 67, "velocity": 100, "duration": 428}, {"note": 0, "velocity": 0, "duration": 532}, {"note": 62, "velocity": 117, "duration": 134}, {"note": 0, "velocity": 0, "duration": 106}, {"note": 62, "velocity": 100, "duration": 103}, {"note": 65, "velocity": 93, "duration": 146}, {"note": 62, "velocity": 100, "duration": 149}, {"note": 0, "velocity": 0, "duration": 91}, {"note": 57, "velocity": 102, "duration": 186}, {"note": 62, "velocity": 100, "duration": 230}, {"note": 60, "velocity": 102, "duration": 586}, {"note": 0, "velocity": 0, "duration": 134}, {"note": 65, "velocity": 112, "duration": 199}, {"note": 62, "velocity": 107, "duration": 141}, {"note": 0, "velocity": 0, "duration": 99}, {"note": 72, "velocity": 117, "duration": 159}, {"note": 0, "velocity": 0, "duration": 81}, {"note": 70, "velocity": 127, "duration": 119}, {"note": 69, "velocity": 93, "duration": 121}, {"note": 67, "velocity": 90, "duration": 546}, {"note": 0, "velocity": 0, "duration": 432}, {"note": 62, "velocity": 117, "duration": 293}, {"note": 65, "velocity": 97, "duration": 389}, {"note": 62, "velocity": 99, "duration": 321}, {"note": 57, "velocity": 112, "duration": 808}, {"note": 0, "velocity": 0, "duration": 206}, {"note": 60, "velocity": 100, "duration": 1911}]]