[[{"note": 61, "velocity": 99, "duration": 231}, {"note": 64, "velocity": 43, "duration": 191}, {"note": 66, "velocity": 89, "duration": 73}, {"note": 0, "velocity": 0, "duration": 167}, {"note": 66, "velocity": 102, "duration": 106}, {"note": 0, "velocity": 0, "duration": 134}, {"note": 64, "velocity": 97, "duration": 107}, {"note": 0, "velocity": 0, "duration": 133}, {"note": 64, "velocity": 92, "duration": 259}, {"note": 61, "velocity": 102, "duration": 199}, {"note": 0, "velocity": 0, "duration": 281}, {"note": 61, "velocity": 102, "duration": 194}, {"note": 64, "velocity": 97, "duration": 181}, {"note": 68, "velocity": 107, "duration": 128}, {"note": 0, "velocity": 0, "duration": 112}, {"note": 68, "velocity": 99, "duration": 144}, {"note": 0, "velocity": 0, "duration": 96}, {"note": 68, "velocity": 112, "duration": 249}, {"note": 66, "velocity": 112, "duration": 404}, {"note": 0, "velocity": 0, "duration": 316}, {"note": 66, "velocity": 112, "duration": 334}, {"note": 0, "velocity": 0, "duration": 146}, {"note": 66, "velocity": 122, "duration": 111}, {"note": 0, "velocity": 0, "duration": 129}, {"note": 66, "velocity": 117, "duration": 109}, {"note": 0, "velocity": 0, "duration": 131}, {"note": 66, "velocity": 107, "duration": 114}, {"note": 0, "velocity": 0, "duration": 126}, {"note": 66, "velocity": 122, "duration": 168}, {"note": 0, "velocity": 0, "duration": 72}, {"note": 59, "velocity": 97, "duration": 160}, {"note": 0, "velocity": 0, "duration": 80}, {"note": 59, "velocity": 92, "duration": 138}, {"note": 0, "velocity": 0, "duration": 102}, {"note": 57, "velocity": 97, "duration": 211}, {"note": 59, "velocity": 112, "duration": 203}, {"note": 61, "velocity": 100, "duration": 140}, {"note": 0, "velocity": 0, "duration": 100}, {"note": 61, "velocity": 107, "duration": 147}, {"note": 0, "velocity": 0, "duration": 93}, {"note": 64, "velocity": 93, "duration": 175}, {"note": 0, "velocity": 0, "duration": 65}, {"note": 61, "velocity": 107, "duration": 445}, {"note": 0, "velocity": 0, "duration": 275}, {"note": 64, "velocity": 83, "duration": 108}, {"note": 0, "velocity": 0, "duration": 132}, {"note": 64, "velocity": 90, "duration": 194}, {"note": 66, "velocity": 107, "duration": 103}, {"note": 0, "velocity": 0, "duration": 137}, {"note": 66, "velocity": 99, "duration": 167}, {"note": 0, "velocity": 0, "duration": 73}, {"note": 61, "velocity": 96, "duration": 137}, {"note": 0, "velocity": 0, "duration": 103}, {"note": 59, "velocity": 90, "duration": 274}, {"note": 0, "velocity": 0, "duration": 446}, {"note": 59, "velocity": 96, "duration": 213}, {"note": 61, "velocity": 99, "duration": 220}, {"note": 64, "velocity": 92, "duration": 118}, {"note": 0, "velocity": 0, "duration": 122}, {"note": 64, "velocity": 93, "duration": 137}, {"note": 0, "velocity": 0, "duration": 103}, {"note": 68, "velocity": 97, "duration": 144}, {"note": 0, "velocity": 0, "duration": 96}, {"note": 66, "velocity": 99, "duration": 364}, {"note": 0, "velocity": 0, "duration": 356}, {"note": 66, "velocity": 100, "duration": 320}, {"note": 0, "velocity": 0, "duration": 160}, {"note": 66, "velocity": 112, "duration": 100}, {"note": 0, "velocity": 0, "duration": 140}, {"note": 66, "velocity": 112, "duration": 112}, {"note": 0, "velocity": 0, "duration": 128}, {"note": 66, "velocity": 117, "duration": 112}, {"note": 0, "velocity": 0, "duration": 128}, {"note": 66, "velocity": 127, "duration": 141}, {"note": 0, "velocity": 0, "duration": 99}, {"note": 59, "velocity": 88, "duration": 78}, {"note": 0, "velocity": 0, "duration": 162}, {"note": 59, "velocity": 96, "duration": 181}, {"note": 57, "velocity": 76, "duration": 167}, {"note": 0, "velocity": 0, "duration": 73}, {"note": 59, "velocity": 96, "duration": 166}, {"note": 0, "velocity": 0, "duration": 74}, {"note": 57, "velocity": 81, "duration": 108}, {"note": 0, "velocity": 0, "duration": 132}, {"note": 57, "velocity": 92, "duration": 232}, {"note": 56, "velocity": 88, "duration": 90}, {"note": 0, "velocity": 0, "duration": 150}, {"note": 54, "velocity": 95, "duration": 298}, {"note": 0, "velocity": 0, "duration": 422}, {"note": 61, "velocity": 99, "duration": 231}, {"note": 64, "velocity": 43, "duration": 191}, {"note": 66, "velocity": 89, "duration": 73}, {"note": 0, "velocity": 0, "duration": 167}, {"note": 66, "velocity": 102, "duration": 106}, {"note": 0, "velocity": 0, "duration": 134}, {"note": 64, "velocity": 97, "duration": 107}, {"note": 0, "velocity": 0, "duration": 133}, {"note": 64, "velocity": 92, "duration": 259}, {"note": 61, "velocity": 102, "duration": 199}, {"note": 0, "velocity": 0, "duration": 281}, {"note": 61, "velocity": 102, "duration": 194}, {"note": 64, "velocity": 97, "duration": 181}, {"note": 68, "velocity": 107, "duration": 128}, {"note": 0, "velocity": 0, "duration": 112}, {"note": 68, "velocity": 99, "duration": 144}, {"note": 0, "velocity": 0, "duration": 96}, {"note": 68, "velocity": 112, "duration": 249}, {"note": 66, "velocity": 112, "duration": 404}, {"note": 0, "velocity": 0, "duration": 316}, {"note": 66, "velocity": 112, "duration": 334}, {"note": 0, "velocity": 0, "duration": 146}, {"note": 66, "velocity": 122, "duration": 111}, {"note": 0, "velocity": 0, "duration": 129}, {"note": 66, "velocity": 117, "duration": 109}, {"note": 0, "velocity": 0, "duration": 131}, {"note": 66, "velocity": 107, "duration": 114}, {"note": 0, "velocity": 0, "duration": 126}, {"note": 66, "velocity": 122, "duration": 168}, {"note": 0, "velocity": 0, "duration": 72}, {"note": 66, "velocity": 97, "duration": 160}, {"note": 0, "velocity": 0, "duration": 80}, {"note": 59, "velocity": 92, "duration": 138}, {"note": 0, "velocity": 0, "duration": 102}, {"note": 57, "velocity": 97, "duration": 211}, {"note": 59, "velocity": 112, "duration": 203}, {"note": 61, "velocity": 100, "duration": 140}, {"note": 0, "velocity": 0, "duration": 100}, {"note": 61, "velocity": 107, "duration": 147}, {"note": 0, "velocity": 0, "duration": 93}, {"note": 68, "velocity": 93, "duration": 175}, {"note": 0, "velocity": 0, "duration": 65}, {"note": 64, "velocity": 107, "duration": 445}, {"note": 0, "velocity": 0, "duration": 275}, {"note": 64, "velocity": 83, "duration": 108}, {"note": 0, "velocity": 0, "duration": 132}, {"note": 64, "velocity": 90, "duration": 194}, {"note": 66, "velocity": 107, "duration": 103}, {"note": 0, "velocity": 0, "duration": 137}, {"note": 66, "velocity": 99, "duration": 167}, {"note": 0, "velocity": 0, "duration": 73}, {"note": 61, "velocity": 96, "duration": 137}, {"note": 0, "velocity": 0, "duration": 103}, {"note": 59, "velocity": 90, "duration": 274}, {"note": 0, "velocity": 0, "duration": 446}, {"note": 59, "velocity": 96, "duration": 213}, {"note": 61, "velocity": 99, "duration": 220}, {"note": 64, "velocity": 92, "duration": 118}, {"note": 0, "velocity": 0, "duration": 122}, {"note": 64, "velocity": 93, "duration": 137}, {"note": 0, "velocity": 0, "duration": 103}, {"note": 68, "velocity": 97, "duration": 144}, {"note": 0, "velocity": 0, "duration": 96}, {"note": 66, "velocity": 99, "duration": 364}, {"note": 0, "velocity": 0, "duration": 356}, {"note": 66, "velocity": 100, "duration": 320}, {"note": 0, "velocity": 0, "duration": 160}, {"note": 66, "velocity": 112, "duration": 100}, {"note": 0, "velocity": 0, "duration": 140}, {"note": 66, "velocity": 112, "duration": 112}, {"note": 0, "velocity": 0, "duration": 128}, {"note": 66, "velocity": 117, "duration": 112}, {"note": 0, "velocity": 0, "duration": 128}, {"note": 66, "velocity": 127, "duration": 141}, {"note": 0, "velocity": 0, "duration": 99}, {"note": 59, "velocity": 88, "duration": 78}, {"note": 0, "velocity": 0, "duration": 162}, {"note": 59, "velocity": 96, "duration": 181}, {"note": 57, "velocity": 76, "duration": 167}, {"note": 0, "velocity": 0, "duration": 73}, {"note": 59, "velocity": 96, "duration": 166}, {"note": 0, "velocity": 0, "duration": 74}, {"note": 57, "velocity": 81, "duration": 108}, {"note": 0, "velocity": 0, "duration": 132}, {"note": 57, "velocity": 92, "duration": 232}, {"note": 61, "velocity": 117, "duration": 126}, {"note": 0, "velocity": 0, "duration": 114}, {"note": 61, "velocity": 127, "duration": 142}, {"note": 0, "velocity": 0, "duration": 338}, {"note": 69, "velocity": 102, "duration": 176}, {"note": 0, "velocity": 0, "duration": 64}, {"note": 71, "velocity": 100, "duration": 100}, {"note": 0, "velocity": 0, "duration": 140}, {"note": 73, "velocity": 127, "duration": 278}, {"note": 0, "velocity": 0, "duration": 202}, {"note": 66, "velocity": 127, "duration": 195}, {"note": 73, "velocity": 127, "duration": 164}, {"note": 0, "velocity": 0, "duration": 76}, {"note": 71, "velocity": 117, "duration": 287}, {"note": 0, "velocity": 0, "duration": 193}, {"note": 69, "velocity": 112, "duration": 164}, {"note": 0, "velocity": 0, "duration": 76}, {"note": 71, "velocity": 97, "duration": 123}, {"note": 0, "velocity": 0, "duration": 117}, {"note": 73, "velocity": 122, "duration": 137}, {"note": 0, "velocity": 0, "duration": 103}, {"note": 66, "velocity": 122, "duration": 115}, {"note": 0, "velocity": 0, "duration": 125}, {"note": 66, "velocity": 117, "duration": 129}, {"note": 0, "velocity": 0, "duration": 111}, {"note": 69, "velocity": 95, "duration": 195}, {"note": 66, "velocity": 107, "duration": 265}, {"note": 0, "velocity": 0, "duration": 455}, {"note": 66, "velocity": 127, "duration": 220}, {"note": 69, "velocity": 96, "duration": 166}, {"note": 0, "velocity": 0, "duration": 74}, {"note": 71, "velocity": 112, "duration": 121}, {"note": 0, "velocity": 0, "duration": 119}, {"note": 71, "velocity": 117, "duration": 104}, {"note": 0, "velocity": 0, "duration": 136}, {"note": 71, "velocity": 112, "duration": 121}, {"note": 0, "velocity": 0, "duration": 119}, {"note": 71, "velocity": 117, "duration": 191}, {"note": 64, "velocity": 107, "duration": 107}, {"note": 0, "velocity": 0, "duration": 133}, {"note": 64, "velocity": 97, "duration": 119}, {"note": 0, "velocity": 0, "duration": 121}, {"note": 61, "velocity": 117, "duration": 140}, {"note": 0, "velocity": 0, "duration": 100}, {"note": 66, "velocity": 117, "duration": 271}, {"note": 0, "velocity": 0, "duration": 89}, {"note": 66, "velocity": 117, "duration": 221}, {"note": 0, "velocity": 0, "duration": 139}, {"note": 68, "velocity": 127, "duration": 129}, {"note": 0, "velocity": 0, "duration": 111}, {"note": 68, "velocity": 127, "duration": 200}, {"note": 0, "velocity": 0, "duration": 280}, {"note": 69, "velocity": 102, "duration": 176}, {"note": 0, "velocity": 0, "duration": 64}, {"note": 71, "velocity": 100, "duration": 100}, {"note": 0, "velocity": 0, "duration": 140}, {"note": 73, "velocity": 127, "duration": 278}, {"note": 0, "velocity": 0, "duration": 202}, {"note": 66, "velocity": 127, "duration": 195}, {"note": 73, "velocity": 127, "duration": 164}, {"note": 0, "velocity": 0, "duration": 76}, {"note": 71, "velocity": 117, "duration": 287}, {"note": 0, "velocity": 0, "duration": 193}, {"note": 69, "velocity": 112, "duration": 164}, {"note": 0, "velocity": 0, "duration": 76}, {"note": 71, "velocity": 97, "duration": 123}, {"note": 0, "velocity": 0, "duration": 117}, {"note": 73, "velocity": 122, "duration": 137}, {"note": 0, "velocity": 0, "duration": 103}, {"note": 66, "velocity": 122, "duration": 115}, {"note": 0, "velocity": 0, "duration": 125}, {"note": 66, "velocity": 117, "duration": 129}, {"note": 0, "velocity": 0, "duration": 111}, {"note": 69, "velocity": 95, "duration": 195}, {"note": 66, "velocity": 107, "duration": 265}, {"note": 0, "velocity": 0, "duration": 455}, {"note": 66, "velocity": 127, "duration": 220}, {"note": 69, "velocity": 96, "duration": 166}, {"note": 0, "velocity": 0, "duration": 74}, {"note": 71, "velocity": 112, "duration": 121}, {"note": 0, "velocity": 0, "duration": 119}, {"note": 71, "velocity": 117, "duration": 104}, {"note": 0, "velocity": 0, "duration": 136}, {"note": 71, "velocity": 112, "duration": 121}, {"note": 0, "velocity": 0, "duration": 119}, {"note": 71, "velocity": 117, "duration": 191}, {"note": 0, "velocity": 0, "duration": 289}, {"note": 71, "velocity": 127, "duration": 232}, {"note": 69, "velocity": 112, "duration": 128}, {"note": 0, "velocity": 0, "duration": 112}, {"note": 69, "velocity": 117, "duration": 183}, {"note": 69, "velocity": 112, "duration": 161}, {"note": 0, "velocity": 0, "duration": 79}, {"note": 71, "velocity": 117, "duration": 199}, {"note": 73, "velocity": 117, "duration": 112}, {"note": 0, "velocity": 0, "duration": 128}, {"note": 73, "velocity": 127, "duration": 304}, {"note": 0, "velocity": 0, "duration": 176}, {"note": 69, "velocity": 100, "duration": 233}, {"note": 0, "velocity": 0, "duration": 247}, {"note": 66, "velocity": 102, "duration": 798}, {"note": 0, "velocity": 0, "duration": 16242}, {"note": 61, "velocity": 99, "duration": 231}, {"note": 64, "velocity": 43, "duration": 191}, {"note": 66, "velocity": 89, "duration": 73}, {"note": 0, "velocity": 0, "duration": 167}, {"note": 66, "velocity": 102, "duration": 106}, {"note": 0, "velocity": 0, "duration": 134}, {"note": 64, "velocity": 97, "duration": 107}, {"note": 0, "velocity": 0, "duration": 133}, {"note": 64, "velocity": 92, "duration": 259}, {"note": 61, "velocity": 102, "duration": 199}, {"note": 0, "velocity": 0, "duration": 281}, {"note": 61, "velocity": 102, "duration": 194}, {"note": 64, "velocity": 97, "duration": 181}, {"note": 68, "velocity": 107, "duration": 128}, {"note": 0, "velocity": 0, "duration": 112}, {"note": 68, "velocity": 99, "duration": 144}, {"note": 0, "velocity": 0, "duration": 96}, {"note": 68, "velocity": 112, "duration": 249}, {"note": 66, "velocity": 112, "duration": 404}, {"note": 0, "velocity": 0, "duration": 316}, {"note": 66, "velocity": 112, "duration": 334}, {"note": 0, "velocity": 0, "duration": 146}, {"note": 66, "velocity": 122, "duration": 111}, {"note": 0, "velocity": 0, "duration": 129}, {"note": 66, "velocity": 117, "duration": 109}, {"note": 0, "velocity": 0, "duration": 131}, {"note": 66, "velocity": 107, "duration": 114}, {"note": 0, "velocity": 0, "duration": 126}, {"note": 66, "velocity": 122, "duration": 168}, {"note": 0, "velocity": 0, "duration": 72}, {"note": 66, "velocity": 97, "duration": 160}, {"note": 0, "velocity": 0, "duration": 80}, {"note": 59, "velocity": 92, "duration": 138}, {"note": 0, "velocity": 0, "duration": 102}, {"note": 57, "velocity": 97, "duration": 211}, {"note": 59, "velocity": 112, "duration": 203}, {"note": 61, "velocity": 100, "duration": 140}, {"note": 0, "velocity": 0, "duration": 100}, {"note": 61, "velocity": 107, "duration": 147}, {"note": 0, "velocity": 0, "duration": 93}, {"note": 68, "velocity": 93, "duration": 175}, {"note": 0, "velocity": 0, "duration": 65}, {"note": 64, "velocity": 107, "duration": 445}, {"note": 0, "velocity": 0, "duration": 275}, {"note": 64, "velocity": 83, "duration": 108}, {"note": 0, "velocity": 0, "duration": 132}, {"note": 64, "velocity": 90, "duration": 194}, {"note": 66, "velocity": 107, "duration": 103}, {"note": 0, "velocity": 0, "duration": 137}, {"note": 66, "velocity": 99, "duration": 167}, {"note": 0, "velocity": 0, "duration": 73}, {"note": 61, "velocity": 96, "duration": 137}, {"note": 0, "velocity": 0, "duration": 103}, {"note": 59, "velocity": 90, "duration": 274}, {"note": 0, "velocity": 0, "duration": 446}, {"note": 59, "velocity": 96, "duration": 213}, {"note": 61, "velocity": 99, "duration": 220}, {"note": 64, "velocity": 92, "duration": 118}, {"note": 0, "velocity": 0, "duration": 122}, {"note": 64, "velocity": 93, "duration": 137}, {"note": 0, "velocity": 0, "duration": 103}, {"note": 68, "velocity": 97, "duration": 144}, {"note": 0, "velocity": 0, "duration": 96}, {"note": 66, "velocity": 99, "duration": 364}, {"note": 0, "velocity": 0, "duration": 356}, {"note": 66, "velocity": 100, "duration": 320}, {"note": 0, "velocity": 0, "duration": 160}, {"note": 66, "velocity": 112, "duration": 100}, {"note": 0, "velocity": 0, "duration": 140}, {"note": 66, "velocity": 112, "duration": 112}, {"note": 0, "velocity": 0, "duration": 128}, {"note": 66, "velocity": 117, "duration": 112}, {"note": 0, "velocity": 0, "duration": 128}, {"note": 66, "velocity": 127, "duration": 141}, {"note": 0, "velocity": 0, "duration": 99}, {"note": 59, "velocity": 88, "duration": 78}, {"note": 0, "velocity": 0, "duration": 162}, {"note": 59, "velocity": 96, "duration": 181}, {"note": 57, "velocity": 76, "duration": 167}, {"note": 0, "velocity": 0, "duration": 73}, {"note": 59, "velocity": 96, "duration": 166}, {"note": 0, "velocity": 0, "duration": 74}, {"note": 57, "velocity": 81, "duration": 108}, {"note": 0, "velocity": 0, "duration": 132}, {"note": 57, "velocity": 92, "duration": 232}, {"note": 61, "velocity": 117, "duration": 126}, {"note": 0, "velocity": 0, "duration": 114}, {"note": 61, "velocity": 127, "duration": 142}, {"note": 0, "velocity": 0, "duration": 338}, {"note": 69, "velocity": 102, "duration": 176}, {"note": 0, "velocity": 0, "duration": 64}, {"note": 71, "velocity": 100, "duration": 100}, {"note": 0, "velocity": 0, "duration": 140}, {"note": 73, "velocity": 127, "duration": 278}, {"note": 0, "velocity": 0, "duration": 202}, {"note": 66, "velocity": 127, "duration": 195}, {"note": 73, "velocity": 127, "duration": 164}, {"note": 0, "velocity": 0, "duration": 76}, {"note": 71, "velocity": 117, "duration": 287}, {"note": 0, "velocity": 0, "duration": 193}, {"note": 69, "velocity": 112, "duration": 164}, {"note": 0, "velocity": 0, "duration": 76}, {"note": 71, "velocity": 97, "duration": 123}, {"note": 0, "velocity": 0, "duration": 117}, {"note": 73, "velocity": 122, "duration": 137}, {"note": 0, "velocity": 0, "duration": 103}, {"note": 66, "velocity": 122, "duration": 115}, {"note": 0, "velocity": 0, "duration": 125}, {"note": 66, "velocity": 117, "duration": 129}, {"note": 0, "velocity": 0, "duration": 111}, {"note": 69, "velocity": 95, "duration": 195}, {"note": 66, "velocity": 107, "duration": 265}, {"note": 0, "velocity": 0, "duration": 455}, {"note": 66, "velocity": 127, "duration": 220}, {"note": 69, "velocity": 96, "duration": 166}, {"note": 0, "velocity": 0, "duration": 74}, {"note": 71, "velocity": 112, "duration": 121}, {"note": 0, "velocity": 0, "duration": 119}, {"note": 71, "velocity": 117, "duration": 104}, {"note": 0, "velocity": 0, "duration": 136}, {"note": 71, "velocity": 112, "duration": 121}, {"note": 0, "velocity": 0, "duration": 119}, {"note": 71, "velocity": 117, "duration": 191}, {"note": 64, "velocity": 107, "duration": 107}, {"note": 0, "velocity": 0, "duration": 133}, {"note": 64, "velocity": 97, "duration": 119}, {"note": 0, "velocity": 0, "duration": 121}, {"note": 61, "velocity": 117, "duration": 140}, {"note": 0, "velocity": 0, "duration": 100}, {"note": 66, "velocity": 117, "duration": 271}, {"note": 0, "velocity": 0, "duration": 89}, {"note": 66, "velocity": 117, "duration": 221}, {"note": 0, "velocity": 0, "duration": 139}, {"note": 68, "velocity": 127, "duration": 129}, {"note": 0, "velocity": 0, "duration": 111}, {"note": 68, "velocity": 127, "duration": 200}, {"note": 0, "velocity": 0, "duration": 280}, {"note": 69, "velocity": 102, "duration": 176}, {"note": 0, "velocity": 0, "duration": 64}, {"note": 71, "velocity": 100, "duration": 100}, {"note": 0, "velocity": 0, "duration": 140}, {"note": 73, "velocity": 127, "duration": 278}, {"note": 0, "velocity": 0, "duration": 202}, {"note": 66, "velocity": 127, "duration": 195}, {"note": 73, "velocity": 127, "duration": 164}, {"note": 0, "velocity": 0, "duration": 76}, {"note": 71, "velocity": 117, "duration": 287}, {"note": 0, "velocity": 0, "duration": 193}, {"note": 69, "velocity": 112, "duration": 164}, {"note": 0, "velocity": 0, "duration": 76}, {"note": 71, "velocity": 97, "duration": 123}, {"note": 0, "velocity": 0, "duration": 117}, {"note": 73, "velocity": 122, "duration": 137}, {"note": 0, "velocity": 0, "duration": 103}, {"note": 66, "velocity": 122, "duration": 115}, {"note": 0, "velocity": 0, "duration": 125}, {"note": 66, "velocity": 117, "duration": 129}, {"note": 0, "velocity": 0, "duration": 111}, {"note": 69, "velocity": 95, "duration": 195}, {"note": 66, "velocity": 107, "duration": 265}, {"note": 0, "velocity": 0, "duration": 455}, {"note": 66, "velocity": 127, "duration": 220}, {"note": 69, "velocity": 96, "duration": 166}, {"note": 0, "velocity": 0, "duration": 74}, {"note": 71, "velocity": 112, "duration": 121}, {"note": 0, "velocity": 0, "duration": 119}, {"note": 71, "velocity": 117, "duration": 104}, {"note": 0, "velocity": 0, "duration": 136}, {"note": 71, "velocity": 112, "duration": 121}, {"note": 0, "velocity": 0, "duration": 119}, {"note": 71, "velocity": 117, "duration": 191}, {"note": 0, "velocity": 0, "duration": 289}, {"note": 71, "velocity": 127, "duration": 232}, {"note": 69, "velocity": 112, "duration": 128}, {"note": 0, "velocity": 0, "duration": 112}, {"note": 69, "velocity": 117, "duration": 183}, {"note": 69, "velocity": 112, "duration": 161}, {"note": 0, "velocity": 0, "duration": 79}, {"note": 71, "velocity": 117, "duration": 199}, {"note": 73, "velocity": 117, "duration": 112}, {"note": 0, "velocity": 0, "duration": 128}, {"note": 73, "velocity": 127, "duration": 304}, {"note": 0, "velocity": 0, "duration": 176}, {"note": 69, "velocity": 100, "duration": 233}, {"note": 0, "velocity": 0, "duration": 247}, {"note": 66, "velocity": 102, "duration": 798}, {"note": 0, "velocity": 0, "duration": 2922}, {"note": 59, "velocity": 89, "duration": 59}, {"note": 0, "velocity": 0, "duration": 61}, {"note": 61, "velocity": 127, "duration": 71}, {"note": 61, "velocity": 117, "duration": 81}, {"note": 0, "velocity": 0, "duration": 159}, {"note": 59, "velocity": 89, "duration": 82}, {"note": 61, "velocity": 117, "duration": 63}, {"note": 61, "velocity": 99, "duration": 75}, {"note": 0, "velocity": 0, "duration": 165}, {"note": 59, "velocity": 93, "duration": 70}, {"note": 61, "velocity": 117, "duration": 56}, {"note": 0, "velocity": 0, "duration": 64}, {"note": 61, "velocity": 82, "duration": 54}, {"note": 0, "velocity": 0, "duration": 66}, {"note": 61, "velocity": 97, "duration": 72}, {"note": 59, "velocity": 82, "duration": 81}, {"note": 61, "velocity": 127, "duration": 44}, {"note": 0, "velocity": 0, "duration": 76}, {"note": 61, "velocity": 112, "duration": 55}, {"note": 0, "velocity": 0, "duration": 65}, {"note": 61, "velocity": 88, "duration": 53}, {"note": 0, "velocity": 0, "duration": 67}, {"note": 61, "velocity": 122, "duration": 69}, {"note": 59, "velocity": 97, "duration": 49}, {"note": 0, "velocity": 0, "duration": 71}, {"note": 59, "velocity": 93, "duration": 55}, {"note": 0, "velocity": 0, "duration": 65}, {"note": 59, "velocity": 79, "duration": 55}, {"note": 0, "velocity": 0, "duration": 65}, {"note": 59, "velocity": 89, "duration": 52}, {"note": 0, "velocity": 0, "duration": 68}, {"note": 59, "velocity": 117, "duration": 41}, {"note": 0, "velocity": 0, "duration": 79}, {"note": 59, "velocity": 96, "duration": 47}, {"note": 0, "velocity": 0, "duration": 73}, {"note": 59, "velocity": 82, "duration": 48}, {"note": 0, "velocity": 0, "duration": 72}, {"note": 59, "velocity": 90, "duration": 52}, {"note": 0, "velocity": 0, "duration": 68}, {"note": 59, "velocity": 112, "duration": 46}, {"note": 71, "velocity": 127, "duration": 70}, {"note": 0, "velocity": 0, "duration": 170}, {"note": 71, "velocity": 127, "duration": 77}, {"note": 0, "velocity": 0, "duration": 163}, {"note": 69, "velocity": 117, "duration": 304}, {"note": 61, "velocity": 127, "duration": 90}, {"note": 59, "velocity": 93, "duration": 75}, {"note": 61, "velocity": 127, "duration": 71}, {"note": 0, "velocity": 0, "duration": 169}, {"note": 61, "velocity": 117, "duration": 119}, {"note": 59, "velocity": 92, "duration": 87}, {"note": 61, "velocity": 127, "duration": 65}, {"note": 0, "velocity": 0, "duration": 175}, {"note": 61, "velocity": 127, "duration": 103}, {"note": 59, "velocity": 89, "duration": 80}, {"note": 61, "velocity": 112, "duration": 113}, {"note": 59, "velocity": 88, "duration": 77}, {"note": 61, "velocity": 117, "duration": 105}, {"note": 59, "velocity": 92, "duration": 79}, {"note": 61, "velocity": 127, "duration": 45}, {"note": 0, "velocity": 0, "duration": 195}, {"note": 61, "velocity": 127, "duration": 52}, {"note": 0, "velocity": 0, "duration": 188}, {"note": 59, "velocity": 100, "duration": 51}, {"note": 0, "velocity": 0, "duration": 69}, {"note": 59, "velocity": 88, "duration": 56}, {"note": 0, "velocity": 0, "duration": 64}, {"note": 59, "velocity": 100, "duration": 51}, {"note": 0, "velocity": 0, "duration": 69}, {"note": 59, "velocity": 100, "duration": 48}, {"note": 0, "velocity": 0, "duration": 72}, {"note": 59, "velocity": 112, "duration": 41}, {"note": 0, "velocity": 0, "duration": 199}, {"note": 59, "velocity": 93, "duration": 52}, {"note": 0, "velocity": 0, "duration": 68}, {"note": 59, "velocity": 88, "duration": 51}, {"note": 0, "velocity": 0, "duration": 69}, {"note": 59, "velocity": 107, "duration": 55}, {"note": 0, "velocity": 0, "duration": 185}, {"note": 71, "velocity": 117, "duration": 97}, {"note": 59, "velocity": 102, "duration": 123}, {"note": 0, "velocity": 0, "duration": 117}, {"note": 69, "velocity": 112, "duration": 228}, {"note": 61, "velocity": 122, "duration": 358}, {"note": 0, "velocity": 0, "duration": 122}, {"note": 61, "velocity": 127, "duration": 60}, {"note": 0, "velocity": 0, "duration": 180}, {"note": 61, "velocity": 122, "duration": 74}, {"note": 0, "velocity": 0, "duration": 166}, {"note": 61, "velocity": 127, "duration": 79}, {"note": 0, "velocity": 0, "duration": 161}, {"note": 61, "velocity": 127, "duration": 108}, {"note": 59, "velocity": 96, "duration": 84}, {"note": 61, "velocity": 127, "duration": 59}, {"note": 0, "velocity": 0, "duration": 61}, {"note": 59, "velocity": 99, "duration": 80}, {"note": 61, "velocity": 112, "duration": 89}, {"note": 59, "velocity": 93, "duration": 59}, {"note": 0, "velocity": 0, "duration": 61}, {"note": 61, "velocity": 127, "duration": 53}, {"note": 0, "velocity": 0, "duration": 187}, {"note": 61, "velocity": 127, "duration": 186}, {"note": 59, "velocity": 117, "duration": 96}, {"note": 0, "velocity": 0, "duration": 144}, {"note": 59, "velocity": 122, "duration": 79}, {"note": 0, "velocity": 0, "duration": 161}, {"note": 59, "velocity": 112, "duration": 64}, {"note": 59, "velocity": 79, "duration": 56}, {"note": 0, "velocity": 0, "duration": 64}, {"note": 59, "velocity": 73, "duration": 49}, {"note": 0, "velocity": 0, "duration": 71}, {"note": 59, "velocity": 88, "duration": 50}, {"note": 0, "velocity": 0, "duration": 70}, {"note": 59, "velocity": 100, "duration": 42}, {"note": 71, "velocity": 122, "duration": 53}, {"note": 0, "velocity": 0, "duration": 67}, {"note": 71, "velocity": 93, "duration": 52}, {"note": 0, "velocity": 0, "duration": 68}, {"note": 71, "velocity": 122, "duration": 61}, {"note": 0, "velocity": 0, "duration": 179}, {"note": 69, "velocity": 127, "duration": 282}, {"note": 61, "velocity": 127, "duration": 106}, {"note": 59, "velocity": 92, "duration": 74}, {"note": 61, "velocity": 122, "duration": 78}, {"note": 0, "velocity": 0, "duration": 162}, {"note": 61, "velocity": 127, "duration": 123}, {"note": 59, "velocity": 93, "duration": 65}, {"note": 61, "velocity": 127, "duration": 64}, {"note": 0, "velocity": 0, "duration": 176}, {"note": 61, "velocity": 127, "duration": 113}, {"note": 59, "velocity": 85, "duration": 71}, {"note": 61, "velocity": 127, "duration": 76}, {"note": 59, "velocity": 82, "duration": 96}, {"note": 61, "velocity": 107, "duration": 102}, {"note": 59, "velocity": 79, "duration": 100}, {"note": 61, "velocity": 127, "duration": 49}, {"note": 0, "velocity": 0, "duration": 191}, {"note": 61, "velocity": 127, "duration": 45}, {"note": 0, "velocity": 0, "duration": 75}, {"note": 61, "velocity": 102, "duration": 88}, {"note": 59, "velocity": 96, "duration": 52}, {"note": 0, "velocity": 0, "duration": 68}, {"note": 59, "velocity": 92, "duration": 53}, {"note": 0, "velocity": 0, "duration": 67}, {"note": 59, "velocity": 81, "duration": 47}, {"note": 0, "velocity": 0, "duration": 73}, {"note": 59, "velocity": 93, "duration": 49}, {"note": 0, "velocity": 0, "duration": 71}, {"note": 59, "velocity": 102, "duration": 44}, {"note": 0, "velocity": 0, "duration": 196}, {"note": 59, "velocity": 99, "duration": 44}, {"note": 0, "velocity": 0, "duration": 76}, {"note": 59, "velocity": 89, "duration": 46}, {"note": 0, "velocity": 0, "duration": 74}, {"note": 59, "velocity": 112, "duration": 62}, {"note": 0, "velocity": 0, "duration": 178}, {"note": 59, "velocity": 107, "duration": 58}, {"note": 0, "velocity": 0, "duration": 182}, {"note": 69, "velocity": 102, "duration": 176}, {"note": 61, "velocity": 127, "duration": 232}, {"note": 71, "velocity": 100, "duration": 100}, {"note": 0, "velocity": 0, "duration": 140}, {"note": 73, "velocity": 127, "duration": 278}, {"note": 0, "velocity": 0, "duration": 202}, {"note": 66, "velocity": 127, "duration": 195}, {"note": 73, "velocity": 127, "duration": 164}, {"note": 0, "velocity": 0, "duration": 76}, {"note": 71, "velocity": 117, "duration": 287}, {"note": 0, "velocity": 0, "duration": 193}, {"note": 69, "velocity": 112, "duration": 164}, {"note": 0, "velocity": 0, "duration": 76}, {"note": 71, "velocity": 97, "duration": 123}, {"note": 0, "velocity": 0, "duration": 117}, {"note": 73, "velocity": 122, "duration": 137}, {"note": 0, "velocity": 0, "duration": 103}, {"note": 66, "velocity": 122, "duration": 115}, {"note": 0, "velocity": 0, "duration": 125}, {"note": 66, "velocity": 117, "duration": 129}, {"note": 0, "velocity": 0, "duration": 111}, {"note": 69, "velocity": 95, "duration": 195}, {"note": 66, "velocity": 107, "duration": 265}, {"note": 0, "velocity": 0, "duration": 455}, {"note": 66, "velocity": 127, "duration": 220}, {"note": 69, "velocity": 96, "duration": 166}, {"note": 0, "velocity": 0, "duration": 74}, {"note": 71, "velocity": 112, "duration": 121}, {"note": 0, "velocity": 0, "duration": 119}, {"note": 71, "velocity": 117, "duration": 104}, {"note": 0, "velocity": 0, "duration": 136}, {"note": 71, "velocity": 112, "duration": 121}, {"note": 0, "velocity": 0, "duration": 119}, {"note": 71, "velocity": 117, "duration": 191}, {"note": 64, "velocity": 107, "duration": 107}, {"note": 0, "velocity": 0, "duration": 133}, {"note": 64, "velocity": 97, "duration": 119}, {"note": 0, "velocity": 0, "duration": 121}, {"note": 61, "velocity": 117, "duration": 140}, {"note": 0, "velocity": 0, "duration": 100}, {"note": 66, "velocity": 117, "duration": 271}, {"note": 0, "velocity": 0, "duration": 89}, {"note": 66, "velocity": 117, "duration": 221}, {"note": 0, "velocity": 0, "duration": 139}, {"note": 68, "velocity": 127, "duration": 129}, {"note": 0, "velocity": 0, "duration": 111}, {"note": 68, "velocity": 127, "duration": 200}, {"note": 0, "velocity": 0, "duration": 280}, {"note": 69, "velocity": 102, "duration": 176}, {"note": 0, "velocity": 0, "duration": 64}, {"note": 71, "velocity": 100, "duration": 100}, {"note": 0, "velocity": 0, "duration": 140}, {"note": 73, "velocity": 127, "duration": 278}, {"note": 0, "velocity": 0, "duration": 202}, {"note": 66, "velocity": 127, "duration": 195}, {"note": 73, "velocity": 127, "duration": 164}, {"note": 0, "velocity": 0, "duration": 76}, {"note": 71, "velocity": 117, "duration": 287}, {"note": 0, "velocity": 0, "duration": 193}, {"note": 69, "velocity": 112, "duration": 164}, {"note": 0, "velocity": 0, "duration": 76}, {"note": 71, "velocity": 97, "duration": 123}, {"note": 0, "velocity": 0, "duration": 117}, {"note": 73, "velocity": 122, "duration": 137}, {"note": 0, "velocity": 0, "duration": 103}, {"note": 66, "velocity": 122, "duration": 115}, {"note": 0, "velocity": 0, "duration": 125}, {"note": 66, "velocity": 117, "duration": 129}, {"note": 0, "velocity": 0, "duration": 111}, {"note": 69, "velocity": 95, "duration": 195}, {"note": 66, "velocity": 107, "duration": 265}, {"note": 0, "velocity": 0, "duration": 455}, {"note": 66, "velocity": 127, "duration": 220}, {"note": 69, "velocity": 96, "duration": 166}, {"note": 0, "velocity": 0, "duration": 74}, {"note": 71, "velocity": 112, "duration": 121}, {"note": 0, "velocity": 0, "duration": 119}, {"note": 71, "velocity": 117, "duration": 104}, {"note": 0, "velocity": 0, "duration": 136}, {"note": 71, "velocity": 112, "duration": 121}, {"note": 0, "velocity": 0, "duration": 119}, {"note": 71, "velocity": 117, "duration": 191}, {"note": 0, "velocity": 0, "duration": 289}, {"note": 71, "velocity": 127, "duration": 232}, {"note": 69, "velocity": 112, "duration": 128}, {"note": 0, "velocity": 0, "duration": 112}, {"note": 69, "velocity": 117, "duration": 183}, {"note": 69, "velocity": 112, "duration": 161}, {"note": 0, "velocity": 0, "duration": 79}, {"note": 71, "velocity": 117, "duration": 199}, {"note": 73, "velocity": 117, "duration": 112}, {"note": 0, "velocity": 0, "duration": 128}, {"note": 73, "velocity": 127, "duration": 304}, {"note": 0, "velocity": 0, "duration": 176}, {"note": 69, "velocity": 100, "duration": 176}, {"note": 69, "velocity": 102, "duration": 176}, {"note": 0, "velocity": 0, "duration": 64}, {"note": 71, "velocity": 100, "duration": 100}, {"note": 0, "velocity": 0, "duration": 140}, {"note": 73, "velocity": 127, "duration": 278}, {"note": 0, "velocity": 0, "duration": 202}, {"note": 66, "velocity": 127, "duration": 195}, {"note": 73, "velocity": 127, "duration": 164}, {"note": 0, "velocity": 0, "duration": 76}, {"note": 71, "velocity": 117, "duration": 287}, {"note": 0, "velocity": 0, "duration": 193}, {"note": 69, "velocity": 112, "duration": 164}, {"note": 0, "velocity": 0, "duration": 76}, {"note": 71, "velocity": 97, "duration": 123}, {"note": 0, "velocity": 0, "duration": 117}, {"note": 73, "velocity": 122, "duration": 137}, {"note": 0, "velocity": 0, "duration": 103}, {"note": 66, "velocity": 122, "duration": 115}, {"note": 0, "velocity": 0, "duration": 125}, {"note": 66, "velocity": 117, "duration": 129}, {"note": 0, "velocity": 0, "duration": 111}, {"note": 69, "velocity": 95, "duration": 195}, {"note": 66, "velocity": 107, "duration": 265}, {"note": 0, "velocity": 0, "duration": 455}, {"note": 66, "velocity": 127, "duration": 220}, {"note": 69, "velocity": 96, "duration": 166}, {"note": 0, "velocity": 0, "duration": 74}, {"note": 71, "velocity": 112, "duration": 121}, {"note": 0, "velocity": 0, "duration": 119}, {"note": 71, "velocity": 117, "duration": 104}, {"note": 0, "velocity": 0, "duration": 136}, {"note": 71, "velocity": 112, "duration": 121}, {"note": 0, "velocity": 0, "duration": 119}, {"note": 71, "velocity": 117, "duration": 191}, {"note": 64, "velocity": 107, "duration": 107}, {"note": 0, "velocity": 0, "duration": 133}, {"note": 64, "velocity": 97, "duration": 119}, {"note": 0, "velocity": 0, "duration": 121}, {"note": 61, "velocity": 117, "duration": 140}, {"note": 0, "velocity": 0, "duration": 100}, {"note": 66, "velocity": 117, "duration": 271}, {"note": 0, "velocity": 0, "duration": 89}, {"note": 66, "velocity": 117, "duration": 221}, {"note": 0, "velocity": 0, "duration": 139}, {"note": 68, "velocity": 127, "duration": 129}, {"note": 0, "velocity": 0, "duration": 111}, {"note": 68, "velocity": 127, "duration": 200}, {"note": 0, "velocity": 0, "duration": 280}, {"note": 69, "velocity": 102, "duration": 176}, {"note": 0, "velocity": 0, "duration": 64}, {"note": 71, "velocity": 100, "duration": 100}, {"note": 0, "velocity": 0, "duration": 140}, {"note": 73, "velocity": 127, "duration": 278}, {"note": 0, "velocity": 0, "duration": 202}, {"note": 66, "velocity": 127, "duration": 195}, {"note": 73, "velocity": 127, "duration": 164}, {"note": 0, "velocity": 0, "duration": 76}, {"note": 71, "velocity": 117, "duration": 287}, {"note": 0, "velocity": 0, "duration": 193}, {"note": 69, "velocity": 112, "duration": 164}, {"note": 0, "velocity": 0, "duration": 76}, {"note": 71, "velocity": 97, "duration": 123}, {"note": 0, "velocity": 0, "duration": 117}, {"note": 73, "velocity": 122, "duration": 137}, {"note": 0, "velocity": 0, "duration": 103}, {"note": 66, "velocity": 122, "duration": 115}, {"note": 0, "velocity": 0, "duration": 125}, {"note": 66, "velocity": 117, "duration": 129}, {"note": 0, "velocity": 0, "duration": 111}, {"note": 69, "velocity": 95, "duration": 195}, {"note": 66, "velocity": 107, "duration": 265}, {"note": 0, "velocity": 0, "duration": 455}, {"note": 66, "velocity": 127, "duration": 220}, {"note": 69, "velocity": 96, "duration": 166}, {"note": 0, "velocity": 0, "duration": 74}, {"note": 71, "velocity": 112, "duration": 121}, {"note": 0, "velocity": 0, "duration": 119}, {"note": 71, "velocity": 117, "duration": 104}, {"note": 0, "velocity": 0, "duration": 136}, {"note": 71, "velocity": 112, "duration": 121}, {"note": 0, "velocity": 0, "duration": 119}, {"note": 71, "velocity": 117, "duration": 191}, {"note": 0, "velocity": 0, "duration": 289}, {"note": 71, "velocity": 127, "duration": 232}, {"note": 69, "velocity": 112, "duration": 128}, {"note": 0, "velocity": 0, "duration": 112}, {"note": 69, "velocity": 117, "duration": 183}, {"note": 69, "velocity": 112, "duration": 161}, {"note": 0, "velocity": 0, "duration": 79}, {"note": 71, "velocity": 117, "duration": 199}, {"note": 73, "velocity": 117, "duration": 112}, {"note": 0, "velocity": 0, "duration": 128}, {"note": 73, "velocity": 127, "duration": 304}, {"note": 0, "velocity": 0, "duration": 176}, {"note": 69, "velocity": 100, "duration": 176}, {"note": 69, "velocity": 102, "duration": 176}, {"note": 0, "velocity": 0, "duration": 64}, {"note": 71, "velocity": 100, "duration": 100}, {"note": 0, "velocity": 0, "duration": 140}, {"note": 73, "velocity": 127, "duration": 278}, {"note": 0, "velocity": 0, "duration": 202}, {"note": 66, "velocity": 127, "duration": 195}, {"note": 73, "velocity": 127, "duration": 164}, {"note": 0, "velocity": 0, "duration": 76}, {"note": 71, "velocity": 117, "duration": 287}, {"note": 0, "velocity": 0, "duration": 193}, {"note": 69, "velocity": 112, "duration": 164}, {"note": 0, "velocity": 0, "duration": 76}, {"note": 71, "velocity": 97, "duration": 123}, {"note": 0, "velocity": 0, "duration": 117}, {"note": 73, "velocity": 122, "duration": 137}, {"note": 0, "velocity": 0, "duration": 103}, {"note": 66, "velocity": 122, "duration": 115}, {"note": 0, "velocity": 0, "duration": 125}, {"note": 66, "velocity": 117, "duration": 129}, {"note": 0, "velocity": 0, "duration": 111}, {"note": 69, "velocity": 95, "duration": 195}, {"note": 66, "velocity": 107, "duration": 265}, {"note": 0, "velocity": 0, "duration": 455}, {"note": 66, "velocity": 127, "duration": 220}, {"note": 69, "velocity": 96, "duration": 166}, {"note": 0, "velocity": 0, "duration": 74}, {"note": 71, "velocity": 112, "duration": 121}, {"note": 0, "velocity": 0, "duration": 119}, {"note": 71, "velocity": 117, "duration": 104}, {"note": 0, "velocity": 0, "duration": 136}, {"note": 71, "velocity": 112, "duration": 121}, {"note": 0, "velocity": 0, "duration": 119}, {"note": 71, "velocity": 117, "duration": 191}, {"note": 71, "velocity": 127, "duration": 69}, {"note": 0, "velocity": 0, "duration": 149}, {"note": 71, "velocity": 117, "duration": 77}, {"note": 0, "velocity": 0, "duration": 156}, {"note": 69, "velocity": 102, "duration": 87}, {"note": 0, "velocity": 0, "duration": 154}, {"note": 69, "velocity": 112, "duration": 181}, {"note": 0, "velocity": 0, "duration": 103}, {"note": 69, "velocity": 112, "duration": 319}, {"note": 0, "velocity": 0, "duration": 139}, {"note": 73, "velocity": 99, "duration": 141}, {"note": 0, "velocity": 0, "duration": 103}, {"note": 73, "velocity": 127, "duration": 259}, {"note": 0, "velocity": 0, "duration": 233}, {"note": 69, "velocity": 102, "duration": 176}, {"note": 0, "velocity": 0, "duration": 64}, {"note": 71, "velocity": 100, "duration": 100}, {"note": 0, "velocity": 0, "duration": 140}, {"note": 73, "velocity": 127, "duration": 278}, {"note": 0, "velocity": 0, "duration": 202}, {"note": 66, "velocity": 127, "duration": 195}, {"note": 73, "velocity": 127, "duration": 164}, {"note": 0, "velocity": 0, "duration": 76}, {"note": 71, "velocity": 117, "duration": 287}, {"note": 0, "velocity": 0, "duration": 193}, {"note": 69, "velocity": 112, "duration": 164}, {"note": 0, "velocity": 0, "duration": 76}, {"note": 71, "velocity": 97, "duration": 123}, {"note": 0, "velocity": 0, "duration": 117}, {"note": 73, "velocity": 122, "duration": 137}, {"note": 0, "velocity": 0, "duration": 103}, {"note": 66, "velocity": 122, "duration": 115}, {"note": 0, "velocity": 0, "duration": 125}, {"note": 66, "velocity": 117, "duration": 129}, {"note": 0, "velocity": 0, "duration": 111}, {"note": 69, "velocity": 95, "duration": 195}, {"note": 66, "velocity": 107, "duration": 265}, {"note": 0, "velocity": 0, "duration": 455}, {"note": 66, "velocity": 127, "duration": 220}, {"note": 69, "velocity": 96, "duration": 166}, {"note": 0, "velocity": 0, "duration": 74}, {"note": 71, "velocity": 112, "duration": 121}, {"note": 0, "velocity": 0, "duration": 119}, {"note": 71, "velocity": 117, "duration": 104}, {"note": 0, "velocity": 0, "duration": 136}, {"note": 71, "velocity": 112, "duration": 121}, {"note": 0, "velocity": 0, "duration": 119}, {"note": 71, "velocity": 117, "duration": 191}, {"note": 0, "velocity": 0, "duration": 289}, {"note": 71, "velocity": 127, "duration": 232}, {"note": 69, "velocity": 112, "duration": 128}, {"note": 0, "velocity": 0, "duration": 112}, {"note": 69, "velocity": 117, "duration": 183}, {"note": 69, "velocity": 112, "duration": 161}, {"note": 0, "velocity": 0, "duration": 79}, {"note": 71, "velocity": 117, "duration": 199}, {"note": 73, "velocity": 117, "duration": 112}, {"note": 0, "velocity": 0, "duration": 128}, {"note": 73, "velocity": 127, "duration": 304}, {"note": 0, "velocity": 0, "duration": 176}, {"note": 69, "velocity": 100, "duration": 233}, {"note": 0, "velocity": 0, "duration": 247}, {"note": 66, "velocity": 102, "duration": 798}]]