[[{"note": 64, "velocity": 93, "duration": 204}, {"note": 64, "velocity": 85, "duration": 72}, {"note": 64, "velocity": 83, "duration": 72}, {"note": 64, "velocity": 93, "duration": 110}, {"note": 62, "velocity": 70, "duration": 74}, {"note": 60, "velocity": 90, "duration": 93}, {"note": 64, "velocity": 95, "duration": 371}, {"note": 0, "velocity": 0, "duration": 349}, {"note": 64, "velocity": 102, "duration": 72}, {"note": 67, "velocity": 87, "duration": 75}, {"note": 69, "velocity": 93, "duration": 89}, {"note": 67, "velocity": 87, "duration": 164}, {"note": 0, "velocity": 0, "duration": 76}, {"note": 67, "velocity": 87, "duration": 69}, {"note": 67, "velocity": 90, "duration": 167}, {"note": 0, "velocity": 0, "duration": 73}, {"note": 64, "velocity": 87, "duration": 205}, {"note": 62, "velocity": 93, "duration": 726}, {"note": 0, "velocity": 0, "duration": 354}, {"note": 69, "velocity": 93, "duration": 71}, {"note": 69, "velocity": 93, "duration": 62}, {"note": 69, "velocity": 93, "duration": 74}, {"note": 67, "velocity": 72, "duration": 68}, {"note": 69, "velocity": 90, "duration": 297}, {"note": 0, "velocity": 0, "duration": 63}, {"note": 72, "velocity": 93, "duration": 66}, {"note": 67, "velocity": 90, "duration": 326}, {"note": 0, "velocity": 0, "duration": 154}, {"note": 64, "velocity": 70, "duration": 66}, {"note": 62, "velocity": 93, "duration": 74}, {"note": 60, "velocity": 87, "duration": 69}, {"note": 62, "velocity": 74, "duration": 60}, {"note": 64, "velocity": 90, "duration": 192}, {"note": 67, "velocity": 85, "duration": 68}, {"note": 62, "velocity": 83, "duration": 196}, {"note": 67, "velocity": 102, "duration": 196}, {"note": 60, "velocity": 93, "duration": 729}, {"note": 69, "velocity": 95, "duration": 47}, {"note": 0, "velocity": 0, "duration": 73}, {"note": 69, "velocity": 102, "duration": 75}, {"note": 71, "velocity": 90, "duration": 62}, {"note": 72, "velocity": 83, "duration": 92}, {"note": 71, "velocity": 80, "duration": 56}, {"note": 0, "velocity": 0, "duration": 64}, {"note": 69, "velocity": 87, "duration": 69}, {"note": 69, "velocity": 95, "duration": 182}, {"note": 69, "velocity": 93, "duration": 55}, {"note": 0, "velocity": 0, "duration": 65}, {"note": 69, "velocity": 95, "duration": 93}, {"note": 72, "velocity": 90, "duration": 54}, {"note": 0, "velocity": 0, "duration": 66}, {"note": 69, "velocity": 102, "duration": 60}, {"note": 67, "velocity": 80, "duration": 51}, {"note": 0, "velocity": 0, "duration": 69}, {"note": 64, "velocity": 87, "duration": 60}, {"note": 67, "velocity": 87, "duration": 218}, {"note": 0, "velocity": 0, "duration": 262}, {"note": 67, "velocity": 87, "duration": 66}, {"note": 72, "velocity": 93, "duration": 149}, {"note": 0, "velocity": 0, "duration": 91}, {"note": 72, "velocity": 83, "duration": 164}, {"note": 0, "velocity": 0, "duration": 76}, {"note": 71, "velocity": 93, "duration": 178}, {"note": 0, "velocity": 0, "duration": 62}, {"note": 67, "velocity": 80, "duration": 93}, {"note": 69, "velocity": 74, "duration": 713}, {"note": 0, "velocity": 0, "duration": 367}, {"note": 72, "velocity": 87, "duration": 77}, {"note": 71, "velocity": 68, "duration": 66}, {"note": 69, "velocity": 93, "duration": 56}, {"note": 0, "velocity": 0, "duration": 64}, {"note": 72, "velocity": 93, "duration": 419}, {"note": 0, "velocity": 0, "duration": 181}, {"note": 71, "velocity": 93, "duration": 87}, {"note": 67, "velocity": 87, "duration": 241}, {"note": 0, "velocity": 0, "duration": 119}, {"note": 72, "velocity": 83, "duration": 160}, {"note": 0, "velocity": 0, "duration": 80}, {"note": 71, "velocity": 93, "duration": 66}, {"note": 69, "velocity": 102, "duration": 1229}, {"note": 0, "velocity": 0, "duration": 811}, {"note": 64, "velocity": 93, "duration": 204}, {"note": 64, "velocity": 85, "duration": 72}, {"note": 64, "velocity": 83, "duration": 72}, {"note": 64, "velocity": 93, "duration": 110}, {"note": 62, "velocity": 70, "duration": 74}, {"note": 60, "velocity": 90, "duration": 93}, {"note": 64, "velocity": 95, "duration": 371}, {"note": 0, "velocity": 0, "duration": 349}, {"note": 64, "velocity": 102, "duration": 72}, {"note": 67, "velocity": 87, "duration": 75}, {"note": 69, "velocity": 93, "duration": 89}, {"note": 67, "velocity": 87, "duration": 164}, {"note": 0, "velocity": 0, "duration": 76}, {"note": 67, "velocity": 87, "duration": 69}, {"note": 67, "velocity": 90, "duration": 167}, {"note": 0, "velocity": 0, "duration": 73}, {"note": 64, "velocity": 87, "duration": 205}, {"note": 62, "velocity": 93, "duration": 960}, {"note": 0, "velocity": 0, "duration": 120}, {"note": 69, "velocity": 93, "duration": 71}, {"note": 69, "velocity": 93, "duration": 62}, {"note": 69, "velocity": 93, "duration": 74}, {"note": 67, "velocity": 72, "duration": 68}, {"note": 69, "velocity": 90, "duration": 297}, {"note": 0, "velocity": 0, "duration": 63}, {"note": 72, "velocity": 93, "duration": 66}, {"note": 67, "velocity": 90, "duration": 326}, {"note": 0, "velocity": 0, "duration": 154}, {"note": 64, "velocity": 70, "duration": 66}, {"note": 62, "velocity": 93, "duration": 74}, {"note": 60, "velocity": 87, "duration": 69}, {"note": 62, "velocity": 74, "duration": 60}, {"note": 64, "velocity": 90, "duration": 192}, {"note": 67, "velocity": 85, "duration": 68}, {"note": 62, "velocity": 83, "duration": 196}, {"note": 67, "velocity": 102, "duration": 196}, {"note": 60, "velocity": 93, "duration": 729}, {"note": 69, "velocity": 95, "duration": 47}, {"note": 0, "velocity": 0, "duration": 73}, {"note": 69, "velocity": 102, "duration": 75}, {"note": 71, "velocity": 90, "duration": 62}, {"note": 72, "velocity": 83, "duration": 92}, {"note": 71, "velocity": 80, "duration": 56}, {"note": 0, "velocity": 0, "duration": 64}, {"note": 69, "velocity": 87, "duration": 69}, {"note": 69, "velocity": 95, "duration": 182}, {"note": 69, "velocity": 93, "duration": 55}, {"note": 0, "velocity": 0, "duration": 65}, {"note": 69, "velocity": 95, "duration": 93}, {"note": 72, "velocity": 90, "duration": 54}, {"note": 0, "velocity": 0, "duration": 66}, {"note": 69, "velocity": 102, "duration": 60}, {"note": 67, "velocity": 80, "duration": 51}, {"note": 0, "velocity": 0, "duration": 69}, {"note": 64, "velocity": 87, "duration": 60}, {"note": 67, "velocity": 87, "duration": 218}, {"note": 0, "velocity": 0, "duration": 262}, {"note": 67, "velocity": 87, "duration": 66}, {"note": 72, "velocity": 93, "duration": 149}, {"note": 0, "velocity": 0, "duration": 91}, {"note": 72, "velocity": 83, "duration": 164}, {"note": 0, "velocity": 0, "duration": 76}, {"note": 71, "velocity": 93, "duration": 178}, {"note": 0, "velocity": 0, "duration": 62}, {"note": 67, "velocity": 80, "duration": 93}, {"note": 69, "velocity": 74, "duration": 713}, {"note": 0, "velocity": 0, "duration": 367}, {"note": 72, "velocity": 87, "duration": 77}, {"note": 71, "velocity": 68, "duration": 66}, {"note": 69, "velocity": 93, "duration": 56}, {"note": 0, "velocity": 0, "duration": 64}, {"note": 72, "velocity": 93, "duration": 419}, {"note": 0, "velocity": 0, "duration": 181}, {"note": 71, "velocity": 93, "duration": 87}, {"note": 67, "velocity": 87, "duration": 241}, {"note": 72, "velocity": 83, "duration": 280}, {"note": 0, "velocity": 0, "duration": 80}, {"note": 71, "velocity": 93, "duration": 66}, {"note": 69, "velocity": 102, "duration": 1229}, {"note": 0, "velocity": 0, "duration": 451}, {"note": 67, "velocity": 87, "duration": 62}, {"note": 67, "velocity": 102, "duration": 53}, {"note": 0, "velocity": 0, "duration": 67}, {"note": 67, "velocity": 102, "duration": 67}, {"note": 76, "velocity": 102, "duration": 63}, {"note": 76, "velocity": 93, "duration": 49}, {"note": 0, "velocity": 0, "duration": 71}, {"note": 76, "velocity": 93, "duration": 60}, {"note": 74, "velocity": 93, "duration": 54}, {"note": 0, "velocity": 0, "duration": 66}, {"note": 76, "velocity": 103, "duration": 166}, {"note": 0, "velocity": 0, "duration": 74}, {"note": 72, "velocity": 80, "duration": 71}, {"note": 74, "velocity": 93, "duration": 582}, {"note": 0, "velocity": 0, "duration": 138}, {"note": 69, "velocity": 103, "duration": 79}, {"note": 74, "velocity": 93, "duration": 69}, {"note": 69, "velocity": 105, "duration": 68}, {"note": 72, "velocity": 95, "duration": 169}, {"note": 0, "velocity": 0, "duration": 71}, {"note": 74, "velocity": 93, "duration": 68}, {"note": 72, "velocity": 87, "duration": 90}, {"note": 0, "velocity": 0, "duration": 150}, {"note": 64, "velocity": 93, "duration": 60}, {"note": 69, "velocity": 69, "duration": 63}, {"note": 64, "velocity": 95, "duration": 56}, {"note": 0, "velocity": 0, "duration": 64}, {"note": 67, "velocity": 95, "duration": 188}, {"note": 69, "velocity": 93, "duration": 62}, {"note": 67, "velocity": 87, "duration": 102}, {"note": 0, "velocity": 0, "duration": 498}, {"note": 64, "velocity": 95, "duration": 81}, {"note": 62, "velocity": 72, "duration": 53}, {"note": 0, "velocity": 0, "duration": 67}, {"note": 62, "velocity": 87, "duration": 65}, {"note": 60, "velocity": 95, "duration": 63}, {"note": 62, "velocity": 93, "duration": 169}, {"note": 0, "velocity": 0, "duration": 71}, {"note": 72, "velocity": 80, "duration": 66}, {"note": 69, "velocity": 95, "duration": 188}, {"note": 0, "velocity": 0, "duration": 172}, {"note": 67, "velocity": 90, "duration": 240}, {"note": 0, "velocity": 0, "duration": 360}, {"note": 67, "velocity": 93, "duration": 84}, {"note": 69, "velocity": 103, "duration": 205}, {"note": 72, "velocity": 93, "duration": 151}, {"note": 0, "velocity": 0, "duration": 89}, {"note": 72, "velocity": 93, "duration": 196}, {"note": 74, "velocity": 90, "duration": 80}, {"note": 72, "velocity": 87, "duration": 63}, {"note": 74, "velocity": 102, "duration": 538}, {"note": 0, "velocity": 0, "duration": 62}, {"note": 67, "velocity": 87, "duration": 62}, {"note": 67, "velocity": 102, "duration": 53}, {"note": 0, "velocity": 0, "duration": 67}, {"note": 67, "velocity": 102, "duration": 67}, {"note": 76, "velocity": 102, "duration": 63}, {"note": 76, "velocity": 93, "duration": 49}, {"note": 0, "velocity": 0, "duration": 71}, {"note": 76, "velocity": 93, "duration": 60}, {"note": 74, "velocity": 93, "duration": 54}, {"note": 0, "velocity": 0, "duration": 66}, {"note": 76, "velocity": 103, "duration": 166}, {"note": 0, "velocity": 0, "duration": 74}, {"note": 72, "velocity": 80, "duration": 71}, {"note": 74, "velocity": 93, "duration": 582}, {"note": 0, "velocity": 0, "duration": 138}, {"note": 69, "velocity": 103, "duration": 79}, {"note": 74, "velocity": 93, "duration": 69}, {"note": 69, "velocity": 105, "duration": 68}, {"note": 72, "velocity": 95, "duration": 120}, {"note": 72, "velocity": 95, "duration": 120}, {"note": 74, "velocity": 93, "duration": 68}, {"note": 72, "velocity": 87, "duration": 90}, {"note": 0, "velocity": 0, "duration": 150}, {"note": 64, "velocity": 93, "duration": 60}, {"note": 69, "velocity": 69, "duration": 63}, {"note": 64, "velocity": 95, "duration": 56}, {"note": 0, "velocity": 0, "duration": 64}, {"note": 67, "velocity": 95, "duration": 188}, {"note": 69, "velocity": 93, "duration": 62}, {"note": 67, "velocity": 87, "duration": 102}, {"note": 0, "velocity": 0, "duration": 498}, {"note": 64, "velocity": 95, "duration": 81}, {"note": 62, "velocity": 72, "duration": 53}, {"note": 0, "velocity": 0, "duration": 67}, {"note": 62, "velocity": 87, "duration": 65}, {"note": 60, "velocity": 95, "duration": 63}, {"note": 62, "velocity": 93, "duration": 169}, {"note": 0, "velocity": 0, "duration": 71}, {"note": 72, "velocity": 80, "duration": 66}, {"note": 69, "velocity": 95, "duration": 188}, {"note": 0, "velocity": 0, "duration": 172}, {"note": 67, "velocity": 90, "duration": 240}, {"note": 0, "velocity": 0, "duration": 360}, {"note": 67, "velocity": 93, "duration": 84}, {"note": 69, "velocity": 103, "duration": 205}, {"note": 72, "velocity": 93, "duration": 151}, {"note": 0, "velocity": 0, "duration": 89}, {"note": 72, "velocity": 93, "duration": 196}, {"note": 74, "velocity": 90, "duration": 80}, {"note": 72, "velocity": 87, "duration": 63}, {"note": 74, "velocity": 102, "duration": 480}, {"note": 69, "velocity": 105, "duration": 171}, {"note": 0, "velocity": 0, "duration": 69}, {"note": 72, "velocity": 87, "duration": 93}, {"note": 74, "velocity": 87, "duration": 57}, {"note": 0, "velocity": 0, "duration": 63}, {"note": 74, "velocity": 95, "duration": 320}, {"note": 72, "velocity": 95, "duration": 1432}, {"note": 0, "velocity": 0, "duration": 9728}, {"note": 64, "velocity": 93, "duration": 204}, {"note": 64, "velocity": 85, "duration": 72}, {"note": 64, "velocity": 83, "duration": 72}, {"note": 64, "velocity": 93, "duration": 110}, {"note": 62, "velocity": 70, "duration": 74}, {"note": 60, "velocity": 90, "duration": 93}, {"note": 64, "velocity": 95, "duration": 371}, {"note": 0, "velocity": 0, "duration": 349}, {"note": 64, "velocity": 102, "duration": 72}, {"note": 67, "velocity": 87, "duration": 75}, {"note": 69, "velocity": 93, "duration": 89}, {"note": 67, "velocity": 87, "duration": 164}, {"note": 0, "velocity": 0, "duration": 76}, {"note": 67, "velocity": 87, "duration": 69}, {"note": 67, "velocity": 90, "duration": 167}, {"note": 0, "velocity": 0, "duration": 73}, {"note": 64, "velocity": 87, "duration": 205}, {"note": 62, "velocity": 93, "duration": 960}, {"note": 0, "velocity": 0, "duration": 120}, {"note": 69, "velocity": 93, "duration": 71}, {"note": 69, "velocity": 93, "duration": 62}, {"note": 69, "velocity": 93, "duration": 74}, {"note": 67, "velocity": 72, "duration": 68}, {"note": 69, "velocity": 90, "duration": 297}, {"note": 0, "velocity": 0, "duration": 63}, {"note": 72, "velocity": 93, "duration": 66}, {"note": 67, "velocity": 90, "duration": 326}, {"note": 0, "velocity": 0, "duration": 154}, {"note": 64, "velocity": 70, "duration": 66}, {"note": 62, "velocity": 93, "duration": 74}, {"note": 60, "velocity": 87, "duration": 69}, {"note": 62, "velocity": 74, "duration": 60}, {"note": 64, "velocity": 90, "duration": 192}, {"note": 67, "velocity": 85, "duration": 68}, {"note": 62, "velocity": 83, "duration": 196}, {"note": 67, "velocity": 102, "duration": 196}, {"note": 60, "velocity": 93, "duration": 729}, {"note": 69, "velocity": 95, "duration": 47}, {"note": 0, "velocity": 0, "duration": 73}, {"note": 69, "velocity": 102, "duration": 75}, {"note": 71, "velocity": 90, "duration": 62}, {"note": 72, "velocity": 83, "duration": 92}, {"note": 71, "velocity": 80, "duration": 56}, {"note": 0, "velocity": 0, "duration": 64}, {"note": 69, "velocity": 87, "duration": 69}, {"note": 69, "velocity": 95, "duration": 182}, {"note": 69, "velocity": 93, "duration": 55}, {"note": 0, "velocity": 0, "duration": 65}, {"note": 69, "velocity": 95, "duration": 93}, {"note": 72, "velocity": 90, "duration": 54}, {"note": 0, "velocity": 0, "duration": 66}, {"note": 69, "velocity": 102, "duration": 60}, {"note": 67, "velocity": 80, "duration": 51}, {"note": 0, "velocity": 0, "duration": 69}, {"note": 64, "velocity": 87, "duration": 60}, {"note": 67, "velocity": 87, "duration": 218}, {"note": 0, "velocity": 0, "duration": 262}, {"note": 67, "velocity": 87, "duration": 66}, {"note": 72, "velocity": 93, "duration": 149}, {"note": 0, "velocity": 0, "duration": 91}, {"note": 72, "velocity": 83, "duration": 164}, {"note": 0, "velocity": 0, "duration": 76}, {"note": 71, "velocity": 93, "duration": 178}, {"note": 0, "velocity": 0, "duration": 62}, {"note": 67, "velocity": 80, "duration": 93}, {"note": 69, "velocity": 74, "duration": 713}, {"note": 0, "velocity": 0, "duration": 367}, {"note": 72, "velocity": 87, "duration": 77}, {"note": 71, "velocity": 68, "duration": 66}, {"note": 69, "velocity": 93, "duration": 56}, {"note": 0, "velocity": 0, "duration": 64}, {"note": 72, "velocity": 93, "duration": 419}, {"note": 0, "velocity": 0, "duration": 181}, {"note": 71, "velocity": 93, "duration": 87}, {"note": 67, "velocity": 87, "duration": 241}, {"note": 72, "velocity": 83, "duration": 280}, {"note": 0, "velocity": 0, "duration": 80}, {"note": 71, "velocity": 93, "duration": 66}, {"note": 69, "velocity": 102, "duration": 1229}, {"note": 0, "velocity": 0, "duration": 451}, {"note": 67, "velocity": 87, "duration": 62}, {"note": 67, "velocity": 102, "duration": 53}, {"note": 0, "velocity": 0, "duration": 67}, {"note": 67, "velocity": 102, "duration": 67}, {"note": 76, "velocity": 102, "duration": 63}, {"note": 76, "velocity": 93, "duration": 49}, {"note": 0, "velocity": 0, "duration": 71}, {"note": 76, "velocity": 93, "duration": 60}, {"note": 74, "velocity": 93, "duration": 54}, {"note": 0, "velocity": 0, "duration": 66}, {"note": 76, "velocity": 103, "duration": 166}, {"note": 0, "velocity": 0, "duration": 74}, {"note": 72, "velocity": 80, "duration": 71}, {"note": 74, "velocity": 93, "duration": 582}, {"note": 0, "velocity": 0, "duration": 138}, {"note": 69, "velocity": 103, "duration": 79}, {"note": 74, "velocity": 93, "duration": 69}, {"note": 69, "velocity": 105, "duration": 68}, {"note": 72, "velocity": 95, "duration": 169}, {"note": 0, "velocity": 0, "duration": 71}, {"note": 74, "velocity": 93, "duration": 68}, {"note": 72, "velocity": 87, "duration": 90}, {"note": 0, "velocity": 0, "duration": 150}, {"note": 64, "velocity": 93, "duration": 60}, {"note": 69, "velocity": 69, "duration": 63}, {"note": 64, "velocity": 95, "duration": 56}, {"note": 0, "velocity": 0, "duration": 64}, {"note": 67, "velocity": 95, "duration": 188}, {"note": 69, "velocity": 93, "duration": 62}, {"note": 67, "velocity": 87, "duration": 102}, {"note": 0, "velocity": 0, "duration": 498}, {"note": 64, "velocity": 95, "duration": 81}, {"note": 62, "velocity": 72, "duration": 53}, {"note": 0, "velocity": 0, "duration": 67}, {"note": 62, "velocity": 87, "duration": 65}, {"note": 60, "velocity": 95, "duration": 63}, {"note": 62, "velocity": 93, "duration": 169}, {"note": 0, "velocity": 0, "duration": 71}, {"note": 72, "velocity": 80, "duration": 66}, {"note": 69, "velocity": 95, "duration": 188}, {"note": 0, "velocity": 0, "duration": 172}, {"note": 67, "velocity": 90, "duration": 240}, {"note": 0, "velocity": 0, "duration": 360}, {"note": 67, "velocity": 93, "duration": 84}, {"note": 69, "velocity": 103, "duration": 205}, {"note": 72, "velocity": 93, "duration": 151}, {"note": 0, "velocity": 0, "duration": 89}, {"note": 72, "velocity": 93, "duration": 196}, {"note": 74, "velocity": 90, "duration": 80}, {"note": 72, "velocity": 87, "duration": 63}, {"note": 74, "velocity": 102, "duration": 538}, {"note": 0, "velocity": 0, "duration": 62}, {"note": 67, "velocity": 87, "duration": 62}, {"note": 67, "velocity": 102, "duration": 53}, {"note": 0, "velocity": 0, "duration": 67}, {"note": 67, "velocity": 102, "duration": 67}, {"note": 76, "velocity": 102, "duration": 63}, {"note": 76, "velocity": 93, "duration": 49}, {"note": 0, "velocity": 0, "duration": 71}, {"note": 76, "velocity": 93, "duration": 60}, {"note": 74, "velocity": 93, "duration": 54}, {"note": 0, "velocity": 0, "duration": 66}, {"note": 76, "velocity": 103, "duration": 166}, {"note": 0, "velocity": 0, "duration": 74}, {"note": 72, "velocity": 80, "duration": 71}, {"note": 74, "velocity": 93, "duration": 582}, {"note": 0, "velocity": 0, "duration": 138}, {"note": 69, "velocity": 103, "duration": 79}, {"note": 74, "velocity": 93, "duration": 69}, {"note": 69, "velocity": 105, "duration": 68}, {"note": 72, "velocity": 95, "duration": 120}, {"note": 72, "velocity": 95, "duration": 120}, {"note": 74, "velocity": 93, "duration": 68}, {"note": 72, "velocity": 87, "duration": 90}, {"note": 0, "velocity": 0, "duration": 150}, {"note": 64, "velocity": 93, "duration": 60}, {"note": 69, "velocity": 69, "duration": 63}, {"note": 64, "velocity": 95, "duration": 56}, {"note": 0, "velocity": 0, "duration": 64}, {"note": 67, "velocity": 95, "duration": 188}, {"note": 69, "velocity": 93, "duration": 62}, {"note": 67, "velocity": 87, "duration": 102}, {"note": 0, "velocity": 0, "duration": 498}, {"note": 64, "velocity": 95, "duration": 81}, {"note": 62, "velocity": 72, "duration": 53}, {"note": 0, "velocity": 0, "duration": 67}, {"note": 62, "velocity": 87, "duration": 65}, {"note": 60, "velocity": 95, "duration": 63}, {"note": 62, "velocity": 93, "duration": 169}, {"note": 0, "velocity": 0, "duration": 71}, {"note": 72, "velocity": 80, "duration": 66}, {"note": 69, "velocity": 95, "duration": 188}, {"note": 0, "velocity": 0, "duration": 172}, {"note": 67, "velocity": 90, "duration": 240}, {"note": 0, "velocity": 0, "duration": 360}, {"note": 67, "velocity": 93, "duration": 84}, {"note": 69, "velocity": 103, "duration": 205}, {"note": 72, "velocity": 93, "duration": 151}, {"note": 0, "velocity": 0, "duration": 89}, {"note": 72, "velocity": 93, "duration": 196}, {"note": 74, "velocity": 90, "duration": 80}, {"note": 72, "velocity": 87, "duration": 63}, {"note": 74, "velocity": 102, "duration": 480}, {"note": 69, "velocity": 105, "duration": 171}, {"note": 0, "velocity": 0, "duration": 69}, {"note": 72, "velocity": 87, "duration": 93}, {"note": 74, "velocity": 87, "duration": 57}, {"note": 0, "velocity": 0, "duration": 63}, {"note": 74, "velocity": 95, "duration": 320}, {"note": 72, "velocity": 95, "duration": 1432}, {"note": 67, "velocity": 87, "duration": 62}, {"note": 67, "velocity": 102, "duration": 53}, {"note": 67, "velocity": 102, "duration": 67}, {"note": 76, "velocity": 102, "duration": 63}, {"note": 76, "velocity": 93, "duration": 49}, {"note": 0, "velocity": 0, "duration": 71}, {"note": 76, "velocity": 93, "duration": 60}, {"note": 74, "velocity": 93, "duration": 54}, {"note": 0, "velocity": 0, "duration": 66}, {"note": 76, "velocity": 103, "duration": 166}, {"note": 0, "velocity": 0, "duration": 74}, {"note": 72, "velocity": 80, "duration": 71}, {"note": 74, "velocity": 93, "duration": 582}, {"note": 0, "velocity": 0, "duration": 138}, {"note": 69, "velocity": 103, "duration": 79}, {"note": 74, "velocity": 93, "duration": 69}, {"note": 69, "velocity": 105, "duration": 68}, {"note": 72, "velocity": 95, "duration": 169}, {"note": 0, "velocity": 0, "duration": 71}, {"note": 74, "velocity": 93, "duration": 68}, {"note": 72, "velocity": 87, "duration": 90}, {"note": 0, "velocity": 0, "duration": 150}, {"note": 64, "velocity": 93, "duration": 60}, {"note": 69, "velocity": 69, "duration": 63}, {"note": 64, "velocity": 95, "duration": 56}, {"note": 0, "velocity": 0, "duration": 64}, {"note": 67, "velocity": 95, "duration": 188}, {"note": 69, "velocity": 93, "duration": 62}, {"note": 67, "velocity": 87, "duration": 102}, {"note": 0, "velocity": 0, "duration": 498}, {"note": 64, "velocity": 95, "duration": 81}, {"note": 62, "velocity": 72, "duration": 53}, {"note": 0, "velocity": 0, "duration": 67}, {"note": 62, "velocity": 87, "duration": 65}, {"note": 60, "velocity": 95, "duration": 63}, {"note": 62, "velocity": 93, "duration": 169}, {"note": 0, "velocity": 0, "duration": 71}, {"note": 72, "velocity": 80, "duration": 66}, {"note": 69, "velocity": 95, "duration": 188}, {"note": 0, "velocity": 0, "duration": 172}, {"note": 67, "velocity": 90, "duration": 240}, {"note": 0, "velocity": 0, "duration": 360}, {"note": 67, "velocity": 93, "duration": 84}, {"note": 69, "velocity": 103, "duration": 205}, {"note": 72, "velocity": 93, "duration": 151}, {"note": 0, "velocity": 0, "duration": 89}, {"note": 72, "velocity": 93, "duration": 196}, {"note": 74, "velocity": 90, "duration": 80}, {"note": 72, "velocity": 87, "duration": 63}, {"note": 74, "velocity": 102, "duration": 538}, {"note": 0, "velocity": 0, "duration": 62}, {"note": 67, "velocity": 87, "duration": 62}, {"note": 67, "velocity": 102, "duration": 53}, {"note": 0, "velocity": 0, "duration": 67}, {"note": 67, "velocity": 102, "duration": 67}, {"note": 76, "velocity": 102, "duration": 63}, {"note": 76, "velocity": 93, "duration": 49}, {"note": 0, "velocity": 0, "duration": 71}, {"note": 76, "velocity": 93, "duration": 60}, {"note": 74, "velocity": 93, "duration": 54}, {"note": 0, "velocity": 0, "duration": 66}, {"note": 76, "velocity": 103, "duration": 166}, {"note": 0, "velocity": 0, "duration": 74}, {"note": 72, "velocity": 80, "duration": 71}, {"note": 74, "velocity": 93, "duration": 582}, {"note": 0, "velocity": 0, "duration": 138}, {"note": 69, "velocity": 103, "duration": 79}, {"note": 74, "velocity": 93, "duration": 69}, {"note": 69, "velocity": 105, "duration": 68}, {"note": 72, "velocity": 95, "duration": 120}, {"note": 72, "velocity": 95, "duration": 120}, {"note": 74, "velocity": 93, "duration": 68}, {"note": 72, "velocity": 87, "duration": 90}, {"note": 0, "velocity": 0, "duration": 150}, {"note": 64, "velocity": 93, "duration": 60}, {"note": 69, "velocity": 69, "duration": 63}, {"note": 64, "velocity": 95, "duration": 56}, {"note": 0, "velocity": 0, "duration": 64}, {"note": 67, "velocity": 95, "duration": 188}, {"note": 69, "velocity": 93, "duration": 62}, {"note": 67, "velocity": 87, "duration": 102}, {"note": 0, "velocity": 0, "duration": 498}, {"note": 64, "velocity": 95, "duration": 81}, {"note": 62, "velocity": 72, "duration": 53}, {"note": 0, "velocity": 0, "duration": 67}, {"note": 62, "velocity": 87, "duration": 65}, {"note": 60, "velocity": 95, "duration": 63}, {"note": 62, "velocity": 93, "duration": 169}, {"note": 0, "velocity": 0, "duration": 71}, {"note": 72, "velocity": 80, "duration": 66}, {"note": 69, "velocity": 95, "duration": 188}, {"note": 0, "velocity": 0, "duration": 172}, {"note": 67, "velocity": 90, "duration": 240}, {"note": 0, "velocity": 0, "duration": 360}, {"note": 67, "velocity": 93, "duration": 84}, {"note": 69, "velocity": 103, "duration": 205}, {"note": 72, "velocity": 93, "duration": 151}, {"note": 0, "velocity": 0, "duration": 89}, {"note": 72, "velocity": 93, "duration": 196}, {"note": 74, "velocity": 90, "duration": 80}, {"note": 72, "velocity": 87, "duration": 63}, {"note": 74, "velocity": 102, "duration": 480}, {"note": 69, "velocity": 105, "duration": 171}, {"note": 0, "velocity": 0, "duration": 69}, {"note": 72, "velocity": 87, "duration": 93}, {"note": 74, "velocity": 87, "duration": 57}, {"note": 0, "velocity": 0, "duration": 63}, {"note": 74, "velocity": 95, "duration": 320}, {"note": 72, "velocity": 95, "duration": 1432}]]