[[{"note": 71, "velocity": 86, "duration": 249}, {"note": 70, "velocity": 70, "duration": 238}, {"note": 71, "velocity": 55, "duration": 238}, {"note": 70, "velocity": 60, "duration": 130}, {"note": 0, "velocity": 0, "duration": 110}, {"note": 68, "velocity": 45, "duration": 238}, {"note": 66, "velocity": 39, "duration": 118}, {"note": 70, "velocity": 55, "duration": 408}, {"note": 71, "velocity": 55, "duration": 130}, {"note": 70, "velocity": 55, "duration": 268}, {"note": 66, "velocity": 32, "duration": 146}, {"note": 63, "velocity": 32, "duration": 684}, {"note": 0, "velocity": 0, "duration": 396}, {"note": 66, "velocity": 43, "duration": 156}, {"note": 66, "velocity": 33, "duration": 118}, {"note": 66, "velocity": 30, "duration": 11}, {"note": 0, "velocity": 0, "duration": 268}, {"note": 68, "velocity": 32, "duration": 234}, {"note": 59, "velocity": 43, "duration": 598}, {"note": 0, "velocity": 0, "duration": 482}, {"note": 66, "velocity": 55, "duration": 228}, {"note": 66, "velocity": 41, "duration": 41}, {"note": 0, "velocity": 0, "duration": 79}, {"note": 66, "velocity": 41, "duration": 321}, {"note": 67, "velocity": 45, "duration": 192}, {"note": 67, "velocity": 51, "duration": 346}, {"note": 66, "velocity": 43, "duration": 243}, {"note": 64, "velocity": 48, "duration": 563}, {"note": 0, "velocity": 0, "duration": 466}, {"note": 71, "velocity": 55, "duration": 257}, {"note": 70, "velocity": 55, "duration": 104}, {"note": 71, "velocity": 51, "duration": 363}, {"note": 70, "velocity": 45, "duration": 121}, {"note": 68, "velocity": 45, "duration": 338}, {"note": 66, "velocity": 64, "duration": 236}, {"note": 73, "velocity": 80, "duration": 201}, {"note": 73, "velocity": 78, "duration": 53}, {"note": 0, "velocity": 0, "duration": 67}, {"note": 73, "velocity": 83, "duration": 238}, {"note": 0, "velocity": 0, "duration": 122}, {"note": 68, "velocity": 35, "duration": 257}, {"note": 66, "velocity": 51, "duration": 680}, {"note": 0, "velocity": 0, "duration": 282}, {"note": 66, "velocity": 60, "duration": 148}, {"note": 0, "velocity": 0, "duration": 89}, {"note": 66, "velocity": 51, "duration": 59}, {"note": 0, "velocity": 0, "duration": 68}, {"note": 66, "velocity": 48, "duration": 301}, {"note": 75, "velocity": 69, "duration": 238}, {"note": 73, "velocity": 80, "duration": 238}, {"note": 71, "velocity": 55, "duration": 230}, {"note": 0, "velocity": 0, "duration": 329}, {"note": 68, "velocity": 55, "duration": 128}, {"note": 70, "velocity": 55, "duration": 151}, {"note": 71, "velocity": 80, "duration": 162}, {"note": 0, "velocity": 0, "duration": 69}, {"note": 71, "velocity": 55, "duration": 61}, {"note": 71, "velocity": 51, "duration": 284}, {"note": 73, "velocity": 48, "duration": 279}, {"note": 71, "velocity": 51, "duration": 465}, {"note": 0, "velocity": 0, "duration": 559}, {"note": 70, "velocity": 80, "duration": 188}, {"note": 0, "velocity": 0, "duration": 69}, {"note": 70, "velocity": 60, "duration": 49}, {"note": 0, "velocity": 0, "duration": 66}, {"note": 70, "velocity": 60, "duration": 259}, {"note": 71, "velocity": 41, "duration": 228}, {"note": 73, "velocity": 60, "duration": 604}, {"note": 71, "velocity": 80, "duration": 250}, {"note": 70, "velocity": 48, "duration": 73}, {"note": 71, "velocity": 48, "duration": 262}, {"note": 0, "velocity": 0, "duration": 106}, {"note": 71, "velocity": 65, "duration": 53}, {"note": 0, "velocity": 0, "duration": 75}, {"note": 71, "velocity": 65, "duration": 249}, {"note": 73, "velocity": 76, "duration": 238}, {"note": 75, "velocity": 80, "duration": 516}, {"note": 0, "velocity": 0, "duration": 239}, {"note": 71, "velocity": 80, "duration": 159}, {"note": 0, "velocity": 0, "duration": 81}, {"note": 78, "velocity": 78, "duration": 223}, {"note": 75, "velocity": 80, "duration": 73}, {"note": 0, "velocity": 0, "duration": 70}, {"note": 76, "velocity": 70, "duration": 369}, {"note": 75, "velocity": 80, "duration": 238}, {"note": 73, "velocity": 64, "duration": 238}, {"note": 75, "velocity": 78, "duration": 119}, {"note": 71, "velocity": 70, "duration": 404}, {"note": 0, "velocity": 0, "duration": 91}, {"note": 66, "velocity": 51, "duration": 121}, {"note": 78, "velocity": 76, "duration": 192}, {"note": 76, "velocity": 76, "duration": 74}, {"note": 76, "velocity": 78, "duration": 373}, {"note": 75, "velocity": 92, "duration": 57}, {"note": 0, "velocity": 0, "duration": 68}, {"note": 75, "velocity": 75, "duration": 271}, {"note": 73, "velocity": 69, "duration": 676}, {"note": 0, "velocity": 0, "duration": 2754}, {"note": 66, "velocity": 71, "duration": 269}, {"note": 78, "velocity": 75, "duration": 477}, {"note": 75, "velocity": 92, "duration": 467}, {"note": 73, "velocity": 92, "duration": 238}, {"note": 71, "velocity": 55, "duration": 289}, {"note": 0, "velocity": 0, "duration": 191}, {"note": 78, "velocity": 55, "duration": 591}, {"note": 0, "velocity": 0, "duration": 1089}, {"note": 75, "velocity": 73, "duration": 129}, {"note": 76, "velocity": 73, "duration": 118}, {"note": 78, "velocity": 80, "duration": 76}, {"note": 78, "velocity": 80, "duration": 378}, {"note": 76, "velocity": 71, "duration": 71}, {"note": 76, "velocity": 70, "duration": 353}, {"note": 75, "velocity": 78, "duration": 195}, {"note": 73, "velocity": 75, "duration": 358}, {"note": 75, "velocity": 69, "duration": 113}, {"note": 71, "velocity": 65, "duration": 345}, {"note": 0, "velocity": 0, "duration": 135}, {"note": 66, "velocity": 70, "duration": 125}, {"note": 78, "velocity": 80, "duration": 209}, {"note": 76, "velocity": 78, "duration": 51}, {"note": 0, "velocity": 0, "duration": 69}, {"note": 76, "velocity": 78, "duration": 358}, {"note": 75, "velocity": 80, "duration": 118}, {"note": 75, "velocity": 70, "duration": 478}, {"note": 73, "velocity": 62, "duration": 461}, {"note": 0, "velocity": 0, "duration": 139}, {"note": 66, "velocity": 48, "duration": 148}, {"note": 78, "velocity": 80, "duration": 475}, {"note": 75, "velocity": 104, "duration": 488}, {"note": 73, "velocity": 80, "duration": 290}, {"note": 71, "velocity": 60, "duration": 452}, {"note": 78, "velocity": 104, "duration": 888}, {"note": 0, "velocity": 0, "duration": 792}, {"note": 75, "velocity": 104, "duration": 171}, {"note": 76, "velocity": 73, "duration": 133}, {"note": 78, "velocity": 75, "duration": 69}, {"note": 78, "velocity": 75, "duration": 309}, {"note": 76, "velocity": 69, "duration": 58}, {"note": 0, "velocity": 0, "duration": 62}, {"note": 76, "velocity": 80, "duration": 358}, {"note": 75, "velocity": 92, "duration": 56}, {"note": 0, "velocity": 0, "duration": 64}, {"note": 73, "velocity": 92, "duration": 361}, {"note": 75, "velocity": 71, "duration": 167}, {"note": 71, "velocity": 83, "duration": 379}, {"note": 0, "velocity": 0, "duration": 101}, {"note": 66, "velocity": 60, "duration": 130}, {"note": 78, "velocity": 75, "duration": 179}, {"note": 0, "velocity": 0, "duration": 61}, {"note": 76, "velocity": 55, "duration": 57}, {"note": 0, "velocity": 0, "duration": 63}, {"note": 76, "velocity": 65, "duration": 302}, {"note": 75, "velocity": 80, "duration": 118}, {"note": 0, "velocity": 0, "duration": 67}, {"note": 76, "velocity": 51, "duration": 172}, {"note": 73, "velocity": 75, "duration": 381}, {"note": 0, "velocity": 0, "duration": 99}, {"note": 73, "velocity": 78, "duration": 182}, {"note": 71, "velocity": 55, "duration": 65}, {"note": 71, "velocity": 60, "duration": 1378}, {"note": 0, "velocity": 0, "duration": 2702}, {"note": 73, "velocity": 92, "duration": 229}, {"note": 0, "velocity": 0, "duration": 131}, {"note": 73, "velocity": 80, "duration": 249}, {"note": 0, "velocity": 0, "duration": 231}, {"note": 73, "velocity": 87, "duration": 299}, {"note": 71, "velocity": 83, "duration": 403}, {"note": 0, "velocity": 0, "duration": 197}, {"note": 73, "velocity": 92, "duration": 478}, {"note": 75, "velocity": 104, "duration": 520}, {"note": 73, "velocity": 75, "duration": 783}, {"note": 0, "velocity": 0, "duration": 897}, {"note": 71, "velocity": 86, "duration": 249}, {"note": 70, "velocity": 70, "duration": 238}, {"note": 71, "velocity": 55, "duration": 238}, {"note": 70, "velocity": 60, "duration": 130}, {"note": 0, "velocity": 0, "duration": 110}, {"note": 68, "velocity": 45, "duration": 238}, {"note": 66, "velocity": 39, "duration": 118}, {"note": 70, "velocity": 55, "duration": 408}, {"note": 71, "velocity": 55, "duration": 130}, {"note": 70, "velocity": 55, "duration": 268}, {"note": 66, "velocity": 32, "duration": 146}, {"note": 63, "velocity": 32, "duration": 684}, {"note": 0, "velocity": 0, "duration": 276}, {"note": 66, "velocity": 51, "duration": 118}, {"note": 66, "velocity": 43, "duration": 156}, {"note": 66, "velocity": 33, "duration": 118}, {"note": 66, "velocity": 30, "duration": 11}, {"note": 0, "velocity": 0, "duration": 268}, {"note": 68, "velocity": 32, "duration": 234}, {"note": 59, "velocity": 43, "duration": 598}, {"note": 0, "velocity": 0, "duration": 362}, {"note": 66, "velocity": 70, "duration": 118}, {"note": 66, "velocity": 55, "duration": 228}, {"note": 66, "velocity": 66, "duration": 86}, {"note": 66, "velocity": 69, "duration": 118}, {"note": 0, "velocity": 0, "duration": 122}, {"note": 67, "velocity": 62, "duration": 192}, {"note": 67, "velocity": 80, "duration": 346}, {"note": 66, "velocity": 80, "duration": 243}, {"note": 64, "velocity": 76, "duration": 563}, {"note": 0, "velocity": 0, "duration": 528}, {"note": 71, "velocity": 69, "duration": 257}, {"note": 70, "velocity": 69, "duration": 104}, {"note": 71, "velocity": 69, "duration": 363}, {"note": 70, "velocity": 64, "duration": 121}, {"note": 68, "velocity": 71, "duration": 404}, {"note": 66, "velocity": 71, "duration": 236}, {"note": 73, "velocity": 66, "duration": 321}, {"note": 73, "velocity": 78, "duration": 53}, {"note": 0, "velocity": 0, "duration": 67}, {"note": 73, "velocity": 80, "duration": 238}, {"note": 68, "velocity": 76, "duration": 257}, {"note": 66, "velocity": 92, "duration": 679}, {"note": 0, "velocity": 0, "duration": 404}, {"note": 66, "velocity": 60, "duration": 148}, {"note": 0, "velocity": 0, "duration": 89}, {"note": 66, "velocity": 51, "duration": 59}, {"note": 0, "velocity": 0, "duration": 68}, {"note": 66, "velocity": 48, "duration": 301}, {"note": 75, "velocity": 69, "duration": 238}, {"note": 73, "velocity": 80, "duration": 238}, {"note": 71, "velocity": 55, "duration": 231}, {"note": 0, "velocity": 0, "duration": 355}, {"note": 68, "velocity": 87, "duration": 129}, {"note": 70, "velocity": 80, "duration": 151}, {"note": 71, "velocity": 78, "duration": 162}, {"note": 0, "velocity": 0, "duration": 70}, {"note": 71, "velocity": 94, "duration": 61}, {"note": 71, "velocity": 94, "duration": 283}, {"note": 73, "velocity": 94, "duration": 279}, {"note": 71, "velocity": 94, "duration": 293}, {"note": 73, "velocity": 94, "duration": 300}, {"note": 0, "velocity": 0, "duration": 540}, {"note": 70, "velocity": 80, "duration": 187}, {"note": 0, "velocity": 0, "duration": 69}, {"note": 70, "velocity": 75, "duration": 49}, {"note": 0, "velocity": 0, "duration": 67}, {"note": 70, "velocity": 75, "duration": 258}, {"note": 71, "velocity": 72, "duration": 229}, {"note": 73, "velocity": 71, "duration": 110}, {"note": 71, "velocity": 71, "duration": 69}, {"note": 73, "velocity": 71, "duration": 357}, {"note": 71, "velocity": 80, "duration": 250}, {"note": 70, "velocity": 48, "duration": 118}, {"note": 71, "velocity": 48, "duration": 263}, {"note": 0, "velocity": 0, "duration": 96}, {"note": 71, "velocity": 65, "duration": 53}, {"note": 0, "velocity": 0, "duration": 75}, {"note": 71, "velocity": 65, "duration": 249}, {"note": 73, "velocity": 76, "duration": 239}, {"note": 75, "velocity": 80, "duration": 516}, {"note": 0, "velocity": 0, "duration": 324}, {"note": 71, "velocity": 80, "duration": 159}, {"note": 0, "velocity": 0, "duration": 81}, {"note": 78, "velocity": 78, "duration": 223}, {"note": 76, "velocity": 80, "duration": 73}, {"note": 0, "velocity": 0, "duration": 62}, {"note": 76, "velocity": 70, "duration": 369}, {"note": 75, "velocity": 80, "duration": 238}, {"note": 73, "velocity": 64, "duration": 238}, {"note": 75, "velocity": 78, "duration": 119}, {"note": 71, "velocity": 70, "duration": 404}, {"note": 0, "velocity": 0, "duration": 64}, {"note": 66, "velocity": 51, "duration": 94}, {"note": 78, "velocity": 76, "duration": 192}, {"note": 76, "velocity": 76, "duration": 74}, {"note": 76, "velocity": 78, "duration": 373}, {"note": 75, "velocity": 92, "duration": 57}, {"note": 0, "velocity": 0, "duration": 68}, {"note": 75, "velocity": 75, "duration": 271}, {"note": 73, "velocity": 69, "duration": 676}, {"note": 0, "velocity": 0, "duration": 834}, {"note": 66, "velocity": 71, "duration": 269}, {"note": 78, "velocity": 75, "duration": 477}, {"note": 75, "velocity": 92, "duration": 467}, {"note": 73, "velocity": 92, "duration": 238}, {"note": 71, "velocity": 55, "duration": 289}, {"note": 0, "velocity": 0, "duration": 191}, {"note": 78, "velocity": 55, "duration": 591}, {"note": 0, "velocity": 0, "duration": 1089}, {"note": 75, "velocity": 73, "duration": 129}, {"note": 76, "velocity": 73, "duration": 118}, {"note": 78, "velocity": 80, "duration": 76}, {"note": 78, "velocity": 80, "duration": 378}, {"note": 76, "velocity": 71, "duration": 71}, {"note": 76, "velocity": 70, "duration": 353}, {"note": 75, "velocity": 78, "duration": 195}, {"note": 73, "velocity": 75, "duration": 358}, {"note": 75, "velocity": 69, "duration": 113}, {"note": 71, "velocity": 65, "duration": 345}, {"note": 0, "velocity": 0, "duration": 135}, {"note": 66, "velocity": 70, "duration": 125}, {"note": 78, "velocity": 80, "duration": 209}, {"note": 76, "velocity": 78, "duration": 51}, {"note": 0, "velocity": 0, "duration": 69}, {"note": 76, "velocity": 78, "duration": 358}, {"note": 75, "velocity": 80, "duration": 118}, {"note": 75, "velocity": 70, "duration": 478}, {"note": 73, "velocity": 62, "duration": 461}, {"note": 66, "velocity": 48, "duration": 247}, {"note": 78, "velocity": 80, "duration": 475}, {"note": 75, "velocity": 73, "duration": 488}, {"note": 73, "velocity": 80, "duration": 290}, {"note": 71, "velocity": 60, "duration": 452}, {"note": 78, "velocity": 76, "duration": 889}, {"note": 0, "velocity": 0, "duration": 909}, {"note": 75, "velocity": 104, "duration": 171}, {"note": 76, "velocity": 73, "duration": 133}, {"note": 78, "velocity": 75, "duration": 69}, {"note": 78, "velocity": 75, "duration": 309}, {"note": 76, "velocity": 69, "duration": 58}, {"note": 0, "velocity": 0, "duration": 62}, {"note": 76, "velocity": 80, "duration": 358}, {"note": 75, "velocity": 92, "duration": 56}, {"note": 0, "velocity": 0, "duration": 64}, {"note": 73, "velocity": 92, "duration": 361}, {"note": 75, "velocity": 71, "duration": 167}, {"note": 71, "velocity": 83, "duration": 379}, {"note": 0, "velocity": 0, "duration": 101}, {"note": 66, "velocity": 60, "duration": 130}, {"note": 78, "velocity": 75, "duration": 179}, {"note": 0, "velocity": 0, "duration": 61}, {"note": 76, "velocity": 55, "duration": 57}, {"note": 0, "velocity": 0, "duration": 63}, {"note": 76, "velocity": 65, "duration": 302}, {"note": 78, "velocity": 80, "duration": 83}, {"note": 73, "velocity": 80, "duration": 608}, {"note": 0, "velocity": 0, "duration": 219}, {"note": 66, "velocity": 71, "duration": 269}, {"note": 78, "velocity": 75, "duration": 477}, {"note": 75, "velocity": 92, "duration": 467}, {"note": 73, "velocity": 92, "duration": 238}, {"note": 71, "velocity": 55, "duration": 289}, {"note": 0, "velocity": 0, "duration": 191}, {"note": 78, "velocity": 55, "duration": 591}, {"note": 0, "velocity": 0, "duration": 1089}, {"note": 75, "velocity": 73, "duration": 129}, {"note": 76, "velocity": 73, "duration": 118}, {"note": 78, "velocity": 80, "duration": 76}, {"note": 78, "velocity": 80, "duration": 378}, {"note": 76, "velocity": 71, "duration": 71}, {"note": 76, "velocity": 70, "duration": 353}, {"note": 75, "velocity": 78, "duration": 195}, {"note": 73, "velocity": 75, "duration": 358}, {"note": 75, "velocity": 69, "duration": 113}, {"note": 71, "velocity": 65, "duration": 345}, {"note": 0, "velocity": 0, "duration": 135}, {"note": 66, "velocity": 70, "duration": 125}, {"note": 78, "velocity": 80, "duration": 209}, {"note": 76, "velocity": 78, "duration": 51}, {"note": 0, "velocity": 0, "duration": 69}, {"note": 76, "velocity": 78, "duration": 358}, {"note": 78, "velocity": 85, "duration": 88}, {"note": 73, "velocity": 80, "duration": 704}, {"note": 0, "velocity": 0, "duration": 146}, {"note": 66, "velocity": 48, "duration": 247}, {"note": 78, "velocity": 80, "duration": 475}, {"note": 75, "velocity": 73, "duration": 488}, {"note": 73, "velocity": 80, "duration": 290}, {"note": 71, "velocity": 60, "duration": 452}, {"note": 80, "velocity": 104, "duration": 170}, {"note": 0, "velocity": 0, "duration": 70}, {"note": 80, "velocity": 92, "duration": 249}, {"note": 78, "velocity": 92, "duration": 502}, {"note": 0, "velocity": 0, "duration": 698}, {"note": 75, "velocity": 104, "duration": 171}, {"note": 76, "velocity": 73, "duration": 133}, {"note": 78, "velocity": 75, "duration": 69}, {"note": 78, "velocity": 75, "duration": 309}, {"note": 76, "velocity": 69, "duration": 58}, {"note": 0, "velocity": 0, "duration": 62}, {"note": 76, "velocity": 80, "duration": 358}, {"note": 75, "velocity": 92, "duration": 56}, {"note": 0, "velocity": 0, "duration": 64}, {"note": 73, "velocity": 92, "duration": 361}, {"note": 75, "velocity": 71, "duration": 167}, {"note": 71, "velocity": 83, "duration": 379}, {"note": 0, "velocity": 0, "duration": 101}, {"note": 66, "velocity": 60, "duration": 130}, {"note": 78, "velocity": 75, "duration": 179}, {"note": 0, "velocity": 0, "duration": 61}, {"note": 76, "velocity": 55, "duration": 57}, {"note": 0, "velocity": 0, "duration": 63}, {"note": 76, "velocity": 65, "duration": 302}, {"note": 75, "velocity": 80, "duration": 156}, {"note": 0, "velocity": 0, "duration": 94}, {"note": 73, "velocity": 70, "duration": 126}, {"note": 75, "velocity": 80, "duration": 82}, {"note": 73, "velocity": 48, "duration": 813}, {"note": 0, "velocity": 0, "duration": 17462}, {"note": 78, "velocity": 104, "duration": 644}, {"note": 0, "velocity": 0, "duration": 69}, {"note": 78, "velocity": 110, "duration": 360}, {"note": 0, "velocity": 0, "duration": 103}, {"note": 75, "velocity": 110, "duration": 439}, {"note": 73, "velocity": 92, "duration": 319}, {"note": 71, "velocity": 87, "duration": 387}, {"note": 78, "velocity": 80, "duration": 678}, {"note": 0, "velocity": 0, "duration": 75}, {"note": 80, "velocity": 104, "duration": 267}, {"note": 78, "velocity": 104, "duration": 677}, {"note": 75, "velocity": 92, "duration": 120}, {"note": 76, "velocity": 92, "duration": 123}, {"note": 78, "velocity": 94, "duration": 58}, {"note": 0, "velocity": 0, "duration": 73}, {"note": 78, "velocity": 96, "duration": 413}, {"note": 76, "velocity": 80, "duration": 149}, {"note": 75, "velocity": 85, "duration": 259}, {"note": 0, "velocity": 0, "duration": 107}, {"note": 75, "velocity": 92, "duration": 116}, {"note": 73, "velocity": 80, "duration": 363}, {"note": 75, "velocity": 92, "duration": 110}, {"note": 73, "velocity": 75, "duration": 461}, {"note": 66, "velocity": 80, "duration": 157}, {"note": 78, "velocity": 92, "duration": 175}, {"note": 0, "velocity": 0, "duration": 90}, {"note": 76, "velocity": 80, "duration": 62}, {"note": 0, "velocity": 0, "duration": 68}, {"note": 76, "velocity": 92, "duration": 309}, {"note": 78, "velocity": 80, "duration": 122}, {"note": 71, "velocity": 70, "duration": 551}, {"note": 83, "velocity": 76, "duration": 369}, {"note": 0, "velocity": 0, "duration": 193}, {"note": 66, "velocity": 70, "duration": 135}, {"note": 80, "velocity": 76, "duration": 463}, {"note": 78, "velocity": 76, "duration": 267}, {"note": 75, "velocity": 73, "duration": 238}, {"note": 80, "velocity": 110, "duration": 83}, {"note": 0, "velocity": 0, "duration": 154}, {"note": 80, "velocity": 110, "duration": 257}, {"note": 78, "velocity": 92, "duration": 244}, {"note": 82, "velocity": 104, "duration": 1124}, {"note": 0, "velocity": 0, "duration": 98}, {"note": 78, "velocity": 78, "duration": 435}, {"note": 75, "velocity": 78, "duration": 137}, {"note": 76, "velocity": 78, "duration": 117}, {"note": 78, "velocity": 78, "duration": 55}, {"note": 0, "velocity": 0, "duration": 69}, {"note": 78, "velocity": 78, "duration": 310}, {"note": 76, "velocity": 78, "duration": 48}, {"note": 0, "velocity": 0, "duration": 73}, {"note": 76, "velocity": 78, "duration": 363}, {"note": 75, "velocity": 80, "duration": 132}, {"note": 73, "velocity": 80, "duration": 377}, {"note": 75, "velocity": 85, "duration": 123}, {"note": 73, "velocity": 90, "duration": 398}, {"note": 66, "velocity": 73, "duration": 111}, {"note": 78, "velocity": 76, "duration": 172}, {"note": 76, "velocity": 76, "duration": 54}, {"note": 0, "velocity": 0, "duration": 62}, {"note": 76, "velocity": 76, "duration": 362}, {"note": 75, "velocity": 76, "duration": 72}, {"note": 0, "velocity": 0, "duration": 70}, {"note": 75, "velocity": 76, "duration": 364}, {"note": 73, "velocity": 87, "duration": 1462}, {"note": 0, "velocity": 0, "duration": 807}, {"note": 66, "velocity": 92, "duration": 225}, {"note": 73, "velocity": 87, "duration": 504}, {"note": 71, "velocity": 87, "duration": 1405}, {"note": 68, "velocity": 80, "duration": 1442}]]