[[{"note": 59, "velocity": 93, "duration": 175}, {"note": 0, "velocity": 0, "duration": 65}, {"note": 61, "velocity": 102, "duration": 179}, {"note": 0, "velocity": 0, "duration": 61}, {"note": 68, "velocity": 100, "duration": 124}, {"note": 0, "velocity": 0, "duration": 116}, {"note": 68, "velocity": 112, "duration": 201}, {"note": 66, "velocity": 97, "duration": 192}, {"note": 64, "velocity": 90, "duration": 227}, {"note": 66, "velocity": 100, "duration": 114}, {"note": 64, "velocity": 74, "duration": 153}, {"note": 61, "velocity": 95, "duration": 186}, {"note": 59, "velocity": 79, "duration": 221}, {"note": 61, "velocity": 77, "duration": 628}, {"note": 0, "velocity": 0, "duration": 1292}, {"note": 64, "velocity": 99, "duration": 107}, {"note": 0, "velocity": 0, "duration": 133}, {"note": 64, "velocity": 107, "duration": 96}, {"note": 0, "velocity": 0, "duration": 144}, {"note": 64, "velocity": 102, "duration": 141}, {"note": 0, "velocity": 0, "duration": 99}, {"note": 61, "velocity": 102, "duration": 69}, {"note": 0, "velocity": 0, "duration": 171}, {"note": 73, "velocity": 127, "duration": 228}, {"note": 71, "velocity": 117, "duration": 163}, {"note": 0, "velocity": 0, "duration": 77}, {"note": 68, "velocity": 127, "duration": 222}, {"note": 66, "velocity": 100, "duration": 291}, {"note": 68, "velocity": 100, "duration": 1025}, {"note": 0, "velocity": 0, "duration": 895}, {"note": 68, "velocity": 127, "duration": 192}, {"note": 73, "velocity": 127, "duration": 111}, {"note": 0, "velocity": 0, "duration": 129}, {"note": 73, "velocity": 127, "duration": 146}, {"note": 0, "velocity": 0, "duration": 94}, {"note": 76, "velocity": 107, "duration": 121}, {"note": 0, "velocity": 0, "duration": 119}, {"note": 73, "velocity": 127, "duration": 230}, {"note": 0, "velocity": 0, "duration": 250}, {"note": 61, "velocity": 127, "duration": 100}, {"note": 0, "velocity": 0, "duration": 140}, {"note": 68, "velocity": 122, "duration": 106}, {"note": 0, "velocity": 0, "duration": 134}, {"note": 66, "velocity": 102, "duration": 46}, {"note": 0, "velocity": 0, "duration": 74}, {"note": 66, "velocity": 99, "duration": 92}, {"note": 0, "velocity": 0, "duration": 148}, {"note": 68, "velocity": 122, "duration": 71}, {"note": 66, "velocity": 112, "duration": 89}, {"note": 0, "velocity": 0, "duration": 151}, {"note": 64, "velocity": 97, "duration": 109}, {"note": 0, "velocity": 0, "duration": 131}, {"note": 66, "velocity": 107, "duration": 318}, {"note": 0, "velocity": 0, "duration": 642}, {"note": 71, "velocity": 107, "duration": 75}, {"note": 0, "velocity": 0, "duration": 165}, {"note": 71, "velocity": 107, "duration": 76}, {"note": 0, "velocity": 0, "duration": 164}, {"note": 71, "velocity": 127, "duration": 92}, {"note": 0, "velocity": 0, "duration": 148}, {"note": 68, "velocity": 107, "duration": 147}, {"note": 0, "velocity": 0, "duration": 93}, {"note": 66, "velocity": 102, "duration": 153}, {"note": 0, "velocity": 0, "duration": 87}, {"note": 64, "velocity": 97, "duration": 206}, {"note": 0, "velocity": 0, "duration": 274}, {"note": 59, "velocity": 97, "duration": 188}, {"note": 61, "velocity": 112, "duration": 781}, {"note": 0, "velocity": 0, "duration": 899}, {"note": 59, "velocity": 93, "duration": 175}, {"note": 0, "velocity": 0, "duration": 65}, {"note": 61, "velocity": 102, "duration": 179}, {"note": 0, "velocity": 0, "duration": 61}, {"note": 68, "velocity": 100, "duration": 124}, {"note": 0, "velocity": 0, "duration": 116}, {"note": 68, "velocity": 112, "duration": 201}, {"note": 66, "velocity": 97, "duration": 192}, {"note": 64, "velocity": 90, "duration": 227}, {"note": 66, "velocity": 100, "duration": 114}, {"note": 64, "velocity": 74, "duration": 153}, {"note": 61, "velocity": 95, "duration": 186}, {"note": 59, "velocity": 79, "duration": 221}, {"note": 61, "velocity": 77, "duration": 628}, {"note": 0, "velocity": 0, "duration": 1292}, {"note": 64, "velocity": 99, "duration": 107}, {"note": 0, "velocity": 0, "duration": 133}, {"note": 64, "velocity": 107, "duration": 96}, {"note": 0, "velocity": 0, "duration": 144}, {"note": 64, "velocity": 102, "duration": 141}, {"note": 0, "velocity": 0, "duration": 99}, {"note": 61, "velocity": 102, "duration": 69}, {"note": 0, "velocity": 0, "duration": 171}, {"note": 73, "velocity": 127, "duration": 228}, {"note": 71, "velocity": 117, "duration": 163}, {"note": 0, "velocity": 0, "duration": 77}, {"note": 68, "velocity": 127, "duration": 222}, {"note": 66, "velocity": 100, "duration": 291}, {"note": 68, "velocity": 100, "duration": 1025}, {"note": 0, "velocity": 0, "duration": 895}, {"note": 68, "velocity": 127, "duration": 192}, {"note": 73, "velocity": 127, "duration": 111}, {"note": 0, "velocity": 0, "duration": 129}, {"note": 73, "velocity": 127, "duration": 146}, {"note": 0, "velocity": 0, "duration": 94}, {"note": 76, "velocity": 107, "duration": 121}, {"note": 0, "velocity": 0, "duration": 119}, {"note": 73, "velocity": 127, "duration": 230}, {"note": 0, "velocity": 0, "duration": 250}, {"note": 61, "velocity": 127, "duration": 100}, {"note": 0, "velocity": 0, "duration": 140}, {"note": 68, "velocity": 122, "duration": 106}, {"note": 0, "velocity": 0, "duration": 134}, {"note": 66, "velocity": 102, "duration": 46}, {"note": 0, "velocity": 0, "duration": 74}, {"note": 66, "velocity": 99, "duration": 92}, {"note": 0, "velocity": 0, "duration": 148}, {"note": 68, "velocity": 122, "duration": 71}, {"note": 66, "velocity": 112, "duration": 89}, {"note": 0, "velocity": 0, "duration": 151}, {"note": 64, "velocity": 97, "duration": 109}, {"note": 0, "velocity": 0, "duration": 131}, {"note": 66, "velocity": 107, "duration": 318}, {"note": 0, "velocity": 0, "duration": 642}, {"note": 71, "velocity": 107, "duration": 75}, {"note": 0, "velocity": 0, "duration": 165}, {"note": 71, "velocity": 107, "duration": 76}, {"note": 0, "velocity": 0, "duration": 164}, {"note": 71, "velocity": 127, "duration": 92}, {"note": 0, "velocity": 0, "duration": 148}, {"note": 71, "velocity": 127, "duration": 98}, {"note": 0, "velocity": 0, "duration": 142}, {"note": 71, "velocity": 122, "duration": 135}, {"note": 0, "velocity": 0, "duration": 105}, {"note": 73, "velocity": 127, "duration": 129}, {"note": 71, "velocity": 92, "duration": 131}, {"note": 68, "velocity": 117, "duration": 164}, {"note": 0, "velocity": 0, "duration": 76}, {"note": 71, "velocity": 99, "duration": 245}, {"note": 73, "velocity": 122, "duration": 1023}, {"note": 0, "velocity": 0, "duration": 897}, {"note": 73, "velocity": 127, "duration": 64}, {"note": 0, "velocity": 0, "duration": 176}, {"note": 68, "velocity": 100, "duration": 98}, {"note": 71, "velocity": 96, "duration": 136}, {"note": 73, "velocity": 102, "duration": 93}, {"note": 0, "velocity": 0, "duration": 147}, {"note": 76, "velocity": 127, "duration": 162}, {"note": 0, "velocity": 0, "duration": 78}, {"note": 73, "velocity": 127, "duration": 477}, {"note": 0, "velocity": 0, "duration": 483}, {"note": 73, "velocity": 127, "duration": 105}, {"note": 0, "velocity": 0, "duration": 135}, {"note": 71, "velocity": 112, "duration": 101}, {"note": 73, "velocity": 96, "duration": 112}, {"note": 71, "velocity": 90, "duration": 137}, {"note": 0, "velocity": 0, "duration": 103}, {"note": 66, "velocity": 122, "duration": 103}, {"note": 0, "velocity": 0, "duration": 137}, {"note": 68, "velocity": 127, "duration": 591}, {"note": 0, "velocity": 0, "duration": 369}, {"note": 64, "velocity": 117, "duration": 95}, {"note": 0, "velocity": 0, "duration": 145}, {"note": 64, "velocity": 96, "duration": 90}, {"note": 0, "velocity": 0, "duration": 150}, {"note": 64, "velocity": 117, "duration": 124}, {"note": 0, "velocity": 0, "duration": 116}, {"note": 61, "velocity": 127, "duration": 125}, {"note": 0, "velocity": 0, "duration": 115}, {"note": 73, "velocity": 127, "duration": 142}, {"note": 0, "velocity": 0, "duration": 98}, {"note": 71, "velocity": 112, "duration": 142}, {"note": 0, "velocity": 0, "duration": 98}, {"note": 68, "velocity": 127, "duration": 101}, {"note": 71, "velocity": 95, "duration": 107}, {"note": 68, "velocity": 122, "duration": 177}, {"note": 66, "velocity": 112, "duration": 118}, {"note": 68, "velocity": 100, "duration": 1154}, {"note": 0, "velocity": 0, "duration": 766}, {"note": 73, "velocity": 127, "duration": 64}, {"note": 0, "velocity": 0, "duration": 176}, {"note": 68, "velocity": 100, "duration": 98}, {"note": 71, "velocity": 96, "duration": 136}, {"note": 73, "velocity": 102, "duration": 93}, {"note": 0, "velocity": 0, "duration": 147}, {"note": 76, "velocity": 127, "duration": 162}, {"note": 0, "velocity": 0, "duration": 78}, {"note": 73, "velocity": 127, "duration": 480}, {"note": 0, "velocity": 0, "duration": 240}, {"note": 76, "velocity": 99, "duration": 95}, {"note": 0, "velocity": 0, "duration": 145}, {"note": 78, "velocity": 127, "duration": 75}, {"note": 0, "velocity": 0, "duration": 165}, {"note": 78, "velocity": 122, "duration": 55}, {"note": 0, "velocity": 0, "duration": 65}, {"note": 78, "velocity": 96, "duration": 58}, {"note": 0, "velocity": 0, "duration": 62}, {"note": 78, "velocity": 117, "duration": 85}, {"note": 0, "velocity": 0, "duration": 155}, {"note": 76, "velocity": 97, "duration": 78}, {"note": 0, "velocity": 0, "duration": 162}, {"note": 78, "velocity": 127, "duration": 470}, {"note": 0, "velocity": 0, "duration": 490}, {"note": 75, "velocity": 127, "duration": 93}, {"note": 0, "velocity": 0, "duration": 147}, {"note": 75, "velocity": 122, "duration": 89}, {"note": 0, "velocity": 0, "duration": 151}, {"note": 75, "velocity": 127, "duration": 94}, {"note": 0, "velocity": 0, "duration": 146}, {"note": 73, "velocity": 122, "duration": 80}, {"note": 0, "velocity": 0, "duration": 160}, {"note": 71, "velocity": 117, "duration": 162}, {"note": 0, "velocity": 0, "duration": 78}, {"note": 73, "velocity": 127, "duration": 79}, {"note": 71, "velocity": 89, "duration": 101}, {"note": 68, "velocity": 117, "duration": 208}, {"note": 71, "velocity": 102, "duration": 160}, {"note": 0, "velocity": 0, "duration": 80}, {"note": 73, "velocity": 127, "duration": 1277}, {"note": 0, "velocity": 0, "duration": 15763}, {"note": 59, "velocity": 93, "duration": 175}, {"note": 0, "velocity": 0, "duration": 65}, {"note": 61, "velocity": 102, "duration": 179}, {"note": 0, "velocity": 0, "duration": 61}, {"note": 68, "velocity": 100, "duration": 124}, {"note": 0, "velocity": 0, "duration": 116}, {"note": 68, "velocity": 112, "duration": 201}, {"note": 66, "velocity": 97, "duration": 192}, {"note": 64, "velocity": 90, "duration": 227}, {"note": 66, "velocity": 100, "duration": 114}, {"note": 64, "velocity": 74, "duration": 153}, {"note": 61, "velocity": 95, "duration": 186}, {"note": 59, "velocity": 79, "duration": 221}, {"note": 61, "velocity": 77, "duration": 628}, {"note": 0, "velocity": 0, "duration": 1292}, {"note": 64, "velocity": 99, "duration": 107}, {"note": 0, "velocity": 0, "duration": 133}, {"note": 64, "velocity": 107, "duration": 96}, {"note": 0, "velocity": 0, "duration": 144}, {"note": 64, "velocity": 102, "duration": 141}, {"note": 0, "velocity": 0, "duration": 99}, {"note": 61, "velocity": 102, "duration": 69}, {"note": 0, "velocity": 0, "duration": 171}, {"note": 73, "velocity": 127, "duration": 228}, {"note": 71, "velocity": 117, "duration": 163}, {"note": 0, "velocity": 0, "duration": 77}, {"note": 68, "velocity": 127, "duration": 222}, {"note": 66, "velocity": 100, "duration": 291}, {"note": 68, "velocity": 100, "duration": 1025}, {"note": 0, "velocity": 0, "duration": 895}, {"note": 68, "velocity": 127, "duration": 192}, {"note": 73, "velocity": 127, "duration": 111}, {"note": 0, "velocity": 0, "duration": 129}, {"note": 73, "velocity": 127, "duration": 146}, {"note": 0, "velocity": 0, "duration": 94}, {"note": 76, "velocity": 107, "duration": 121}, {"note": 0, "velocity": 0, "duration": 119}, {"note": 73, "velocity": 127, "duration": 230}, {"note": 0, "velocity": 0, "duration": 250}, {"note": 61, "velocity": 127, "duration": 100}, {"note": 0, "velocity": 0, "duration": 140}, {"note": 68, "velocity": 122, "duration": 106}, {"note": 0, "velocity": 0, "duration": 134}, {"note": 66, "velocity": 102, "duration": 46}, {"note": 0, "velocity": 0, "duration": 74}, {"note": 66, "velocity": 99, "duration": 92}, {"note": 0, "velocity": 0, "duration": 148}, {"note": 68, "velocity": 122, "duration": 71}, {"note": 66, "velocity": 112, "duration": 89}, {"note": 0, "velocity": 0, "duration": 151}, {"note": 64, "velocity": 97, "duration": 109}, {"note": 0, "velocity": 0, "duration": 131}, {"note": 66, "velocity": 107, "duration": 318}, {"note": 0, "velocity": 0, "duration": 642}, {"note": 71, "velocity": 107, "duration": 75}, {"note": 0, "velocity": 0, "duration": 165}, {"note": 71, "velocity": 107, "duration": 76}, {"note": 0, "velocity": 0, "duration": 164}, {"note": 71, "velocity": 127, "duration": 92}, {"note": 0, "velocity": 0, "duration": 148}, {"note": 71, "velocity": 127, "duration": 98}, {"note": 0, "velocity": 0, "duration": 142}, {"note": 71, "velocity": 122, "duration": 135}, {"note": 0, "velocity": 0, "duration": 105}, {"note": 73, "velocity": 127, "duration": 129}, {"note": 71, "velocity": 92, "duration": 131}, {"note": 68, "velocity": 117, "duration": 164}, {"note": 0, "velocity": 0, "duration": 76}, {"note": 71, "velocity": 99, "duration": 245}, {"note": 73, "velocity": 122, "duration": 1023}, {"note": 0, "velocity": 0, "duration": 897}, {"note": 73, "velocity": 127, "duration": 64}, {"note": 0, "velocity": 0, "duration": 176}, {"note": 68, "velocity": 100, "duration": 98}, {"note": 71, "velocity": 96, "duration": 136}, {"note": 73, "velocity": 102, "duration": 93}, {"note": 0, "velocity": 0, "duration": 147}, {"note": 76, "velocity": 127, "duration": 162}, {"note": 0, "velocity": 0, "duration": 78}, {"note": 73, "velocity": 127, "duration": 477}, {"note": 0, "velocity": 0, "duration": 483}, {"note": 73, "velocity": 127, "duration": 105}, {"note": 0, "velocity": 0, "duration": 135}, {"note": 71, "velocity": 112, "duration": 101}, {"note": 73, "velocity": 96, "duration": 112}, {"note": 71, "velocity": 90, "duration": 137}, {"note": 0, "velocity": 0, "duration": 103}, {"note": 66, "velocity": 122, "duration": 103}, {"note": 0, "velocity": 0, "duration": 137}, {"note": 68, "velocity": 127, "duration": 591}, {"note": 0, "velocity": 0, "duration": 369}, {"note": 64, "velocity": 117, "duration": 95}, {"note": 0, "velocity": 0, "duration": 145}, {"note": 64, "velocity": 96, "duration": 90}, {"note": 0, "velocity": 0, "duration": 150}, {"note": 64, "velocity": 117, "duration": 124}, {"note": 0, "velocity": 0, "duration": 116}, {"note": 61, "velocity": 127, "duration": 125}, {"note": 0, "velocity": 0, "duration": 115}, {"note": 73, "velocity": 127, "duration": 142}, {"note": 0, "velocity": 0, "duration": 98}, {"note": 71, "velocity": 112, "duration": 142}, {"note": 0, "velocity": 0, "duration": 98}, {"note": 68, "velocity": 127, "duration": 101}, {"note": 71, "velocity": 95, "duration": 107}, {"note": 68, "velocity": 122, "duration": 177}, {"note": 66, "velocity": 112, "duration": 118}, {"note": 68, "velocity": 100, "duration": 1154}, {"note": 0, "velocity": 0, "duration": 766}, {"note": 73, "velocity": 127, "duration": 64}, {"note": 0, "velocity": 0, "duration": 176}, {"note": 68, "velocity": 100, "duration": 98}, {"note": 71, "velocity": 96, "duration": 136}, {"note": 73, "velocity": 102, "duration": 93}, {"note": 0, "velocity": 0, "duration": 147}, {"note": 76, "velocity": 127, "duration": 162}, {"note": 0, "velocity": 0, "duration": 78}, {"note": 73, "velocity": 127, "duration": 480}, {"note": 0, "velocity": 0, "duration": 240}, {"note": 76, "velocity": 99, "duration": 95}, {"note": 0, "velocity": 0, "duration": 145}, {"note": 78, "velocity": 127, "duration": 75}, {"note": 0, "velocity": 0, "duration": 165}, {"note": 78, "velocity": 122, "duration": 55}, {"note": 0, "velocity": 0, "duration": 65}, {"note": 78, "velocity": 96, "duration": 58}, {"note": 0, "velocity": 0, "duration": 62}, {"note": 78, "velocity": 117, "duration": 85}, {"note": 0, "velocity": 0, "duration": 155}, {"note": 76, "velocity": 97, "duration": 78}, {"note": 0, "velocity": 0, "duration": 162}, {"note": 78, "velocity": 127, "duration": 470}, {"note": 0, "velocity": 0, "duration": 490}, {"note": 75, "velocity": 127, "duration": 93}, {"note": 0, "velocity": 0, "duration": 147}, {"note": 75, "velocity": 122, "duration": 89}, {"note": 0, "velocity": 0, "duration": 151}, {"note": 75, "velocity": 127, "duration": 94}, {"note": 0, "velocity": 0, "duration": 146}, {"note": 73, "velocity": 122, "duration": 80}, {"note": 0, "velocity": 0, "duration": 160}, {"note": 71, "velocity": 117, "duration": 162}, {"note": 0, "velocity": 0, "duration": 78}, {"note": 73, "velocity": 127, "duration": 79}, {"note": 71, "velocity": 89, "duration": 101}, {"note": 68, "velocity": 117, "duration": 208}, {"note": 71, "velocity": 102, "duration": 160}, {"note": 0, "velocity": 0, "duration": 80}, {"note": 73, "velocity": 127, "duration": 1277}, {"note": 0, "velocity": 0, "duration": 403}, {"note": 59, "velocity": 93, "duration": 175}, {"note": 0, "velocity": 0, "duration": 65}, {"note": 61, "velocity": 102, "duration": 179}, {"note": 0, "velocity": 0, "duration": 61}, {"note": 68, "velocity": 100, "duration": 124}, {"note": 0, "velocity": 0, "duration": 116}, {"note": 68, "velocity": 112, "duration": 201}, {"note": 66, "velocity": 97, "duration": 192}, {"note": 64, "velocity": 90, "duration": 227}, {"note": 66, "velocity": 100, "duration": 114}, {"note": 64, "velocity": 74, "duration": 153}, {"note": 61, "velocity": 95, "duration": 186}, {"note": 59, "velocity": 79, "duration": 221}, {"note": 61, "velocity": 77, "duration": 628}, {"note": 0, "velocity": 0, "duration": 1292}, {"note": 64, "velocity": 99, "duration": 107}, {"note": 0, "velocity": 0, "duration": 133}, {"note": 64, "velocity": 107, "duration": 96}, {"note": 0, "velocity": 0, "duration": 144}, {"note": 64, "velocity": 102, "duration": 141}, {"note": 0, "velocity": 0, "duration": 99}, {"note": 61, "velocity": 102, "duration": 69}, {"note": 0, "velocity": 0, "duration": 171}, {"note": 73, "velocity": 127, "duration": 228}, {"note": 71, "velocity": 117, "duration": 163}, {"note": 0, "velocity": 0, "duration": 77}, {"note": 68, "velocity": 127, "duration": 222}, {"note": 66, "velocity": 100, "duration": 291}, {"note": 68, "velocity": 100, "duration": 1025}, {"note": 0, "velocity": 0, "duration": 895}, {"note": 68, "velocity": 127, "duration": 192}, {"note": 73, "velocity": 127, "duration": 111}, {"note": 0, "velocity": 0, "duration": 129}, {"note": 73, "velocity": 127, "duration": 146}, {"note": 0, "velocity": 0, "duration": 94}, {"note": 76, "velocity": 107, "duration": 121}, {"note": 0, "velocity": 0, "duration": 119}, {"note": 73, "velocity": 127, "duration": 230}, {"note": 0, "velocity": 0, "duration": 250}, {"note": 61, "velocity": 127, "duration": 100}, {"note": 0, "velocity": 0, "duration": 140}, {"note": 68, "velocity": 122, "duration": 106}, {"note": 0, "velocity": 0, "duration": 134}, {"note": 66, "velocity": 102, "duration": 46}, {"note": 0, "velocity": 0, "duration": 74}, {"note": 66, "velocity": 99, "duration": 92}, {"note": 0, "velocity": 0, "duration": 148}, {"note": 68, "velocity": 122, "duration": 71}, {"note": 66, "velocity": 112, "duration": 89}, {"note": 0, "velocity": 0, "duration": 151}, {"note": 64, "velocity": 97, "duration": 109}, {"note": 0, "velocity": 0, "duration": 131}, {"note": 66, "velocity": 107, "duration": 318}, {"note": 0, "velocity": 0, "duration": 642}, {"note": 71, "velocity": 107, "duration": 75}, {"note": 0, "velocity": 0, "duration": 165}, {"note": 71, "velocity": 107, "duration": 76}, {"note": 0, "velocity": 0, "duration": 164}, {"note": 71, "velocity": 127, "duration": 92}, {"note": 0, "velocity": 0, "duration": 148}, {"note": 71, "velocity": 127, "duration": 98}, {"note": 0, "velocity": 0, "duration": 142}, {"note": 71, "velocity": 122, "duration": 135}, {"note": 0, "velocity": 0, "duration": 105}, {"note": 73, "velocity": 127, "duration": 129}, {"note": 71, "velocity": 92, "duration": 131}, {"note": 68, "velocity": 117, "duration": 164}, {"note": 0, "velocity": 0, "duration": 76}, {"note": 71, "velocity": 99, "duration": 245}, {"note": 73, "velocity": 122, "duration": 1023}, {"note": 0, "velocity": 0, "duration": 897}, {"note": 73, "velocity": 127, "duration": 64}, {"note": 0, "velocity": 0, "duration": 176}, {"note": 68, "velocity": 100, "duration": 98}, {"note": 71, "velocity": 96, "duration": 136}, {"note": 73, "velocity": 102, "duration": 93}, {"note": 0, "velocity": 0, "duration": 147}, {"note": 76, "velocity": 127, "duration": 162}, {"note": 0, "velocity": 0, "duration": 78}, {"note": 73, "velocity": 127, "duration": 477}, {"note": 0, "velocity": 0, "duration": 483}, {"note": 73, "velocity": 127, "duration": 105}, {"note": 0, "velocity": 0, "duration": 135}, {"note": 71, "velocity": 112, "duration": 101}, {"note": 73, "velocity": 96, "duration": 112}, {"note": 71, "velocity": 90, "duration": 137}, {"note": 0, "velocity": 0, "duration": 103}, {"note": 66, "velocity": 122, "duration": 103}, {"note": 0, "velocity": 0, "duration": 137}, {"note": 68, "velocity": 127, "duration": 591}, {"note": 0, "velocity": 0, "duration": 369}, {"note": 64, "velocity": 117, "duration": 95}, {"note": 0, "velocity": 0, "duration": 145}, {"note": 64, "velocity": 96, "duration": 90}, {"note": 0, "velocity": 0, "duration": 150}, {"note": 64, "velocity": 117, "duration": 124}, {"note": 0, "velocity": 0, "duration": 116}, {"note": 61, "velocity": 127, "duration": 125}, {"note": 0, "velocity": 0, "duration": 115}, {"note": 73, "velocity": 127, "duration": 142}, {"note": 0, "velocity": 0, "duration": 98}, {"note": 71, "velocity": 112, "duration": 142}, {"note": 0, "velocity": 0, "duration": 98}, {"note": 68, "velocity": 127, "duration": 101}, {"note": 71, "velocity": 95, "duration": 107}, {"note": 68, "velocity": 122, "duration": 177}, {"note": 66, "velocity": 112, "duration": 118}, {"note": 68, "velocity": 100, "duration": 1154}, {"note": 0, "velocity": 0, "duration": 766}, {"note": 73, "velocity": 127, "duration": 64}, {"note": 0, "velocity": 0, "duration": 176}, {"note": 68, "velocity": 100, "duration": 98}, {"note": 71, "velocity": 96, "duration": 136}, {"note": 73, "velocity": 102, "duration": 93}, {"note": 0, "velocity": 0, "duration": 147}, {"note": 76, "velocity": 127, "duration": 162}, {"note": 0, "velocity": 0, "duration": 78}, {"note": 73, "velocity": 127, "duration": 480}, {"note": 0, "velocity": 0, "duration": 240}, {"note": 76, "velocity": 99, "duration": 95}, {"note": 0, "velocity": 0, "duration": 145}, {"note": 78, "velocity": 127, "duration": 75}, {"note": 0, "velocity": 0, "duration": 165}, {"note": 78, "velocity": 122, "duration": 55}, {"note": 0, "velocity": 0, "duration": 65}, {"note": 78, "velocity": 96, "duration": 58}, {"note": 0, "velocity": 0, "duration": 62}, {"note": 78, "velocity": 117, "duration": 85}, {"note": 0, "velocity": 0, "duration": 155}, {"note": 76, "velocity": 97, "duration": 78}, {"note": 0, "velocity": 0, "duration": 162}, {"note": 78, "velocity": 127, "duration": 470}, {"note": 0, "velocity": 0, "duration": 490}, {"note": 75, "velocity": 127, "duration": 93}, {"note": 0, "velocity": 0, "duration": 147}, {"note": 75, "velocity": 122, "duration": 89}, {"note": 0, "velocity": 0, "duration": 151}, {"note": 75, "velocity": 127, "duration": 94}, {"note": 0, "velocity": 0, "duration": 146}, {"note": 73, "velocity": 122, "duration": 80}, {"note": 0, "velocity": 0, "duration": 160}, {"note": 71, "velocity": 117, "duration": 162}, {"note": 0, "velocity": 0, "duration": 78}, {"note": 73, "velocity": 127, "duration": 79}, {"note": 71, "velocity": 89, "duration": 101}, {"note": 68, "velocity": 117, "duration": 208}, {"note": 71, "velocity": 102, "duration": 160}, {"note": 0, "velocity": 0, "duration": 80}, {"note": 73, "velocity": 127, "duration": 1277}, {"note": 0, "velocity": 0, "duration": 667}, {"note": 75, "velocity": 112, "duration": 132}, {"note": 0, "velocity": 0, "duration": 162}, {"note": 75, "velocity": 112, "duration": 117}, {"note": 0, "velocity": 0, "duration": 173}, {"note": 75, "velocity": 117, "duration": 196}, {"note": 0, "velocity": 0, "duration": 112}, {"note": 73, "velocity": 112, "duration": 144}, {"note": 0, "velocity": 0, "duration": 225}, {"note": 71, "velocity": 112, "duration": 306}, {"note": 0, "velocity": 0, "duration": 155}, {"note": 73, "velocity": 112, "duration": 146}, {"note": 71, "velocity": 79, "duration": 156}, {"note": 0, "velocity": 0, "duration": 72}, {"note": 68, "velocity": 107, "duration": 501}, {"note": 0, "velocity": 0, "duration": 101}, {"note": 71, "velocity": 92, "duration": 954}, {"note": 0, "velocity": 0, "duration": 126}, {"note": 73, "velocity": 127, "duration": 2343}]]