[[{"note": 57, "velocity": 107, "duration": 55}, {"note": 0, "velocity": 0, "duration": 65}, {"note": 57, "velocity": 92, "duration": 105}, {"note": 59, "velocity": 97, "duration": 103}, {"note": 61, "velocity": 112, "duration": 206}, {"note": 64, "velocity": 107, "duration": 65}, {"note": 64, "velocity": 117, "duration": 319}, {"note": 0, "velocity": 0, "duration": 161}, {"note": 64, "velocity": 89, "duration": 106}, {"note": 61, "velocity": 93, "duration": 160}, {"note": 64, "velocity": 90, "duration": 426}, {"note": 0, "velocity": 0, "duration": 174}, {"note": 66, "velocity": 127, "duration": 91}, {"note": 68, "velocity": 117, "duration": 87}, {"note": 69, "velocity": 117, "duration": 107}, {"note": 69, "velocity": 122, "duration": 144}, {"note": 0, "velocity": 0, "duration": 96}, {"note": 69, "velocity": 122, "duration": 134}, {"note": 69, "velocity": 122, "duration": 14}, {"note": 0, "velocity": 0, "duration": 346}, {"note": 61, "velocity": 100, "duration": 83}, {"note": 64, "velocity": 107, "duration": 480}, {"note": 0, "velocity": 0, "duration": 240}, {"note": 66, "velocity": 102, "duration": 105}, {"note": 68, "velocity": 100, "duration": 71}, {"note": 69, "velocity": 107, "duration": 124}, {"note": 69, "velocity": 100, "duration": 4}, {"note": 0, "velocity": 0, "duration": 236}, {"note": 69, "velocity": 107, "duration": 52}, {"note": 0, "velocity": 0, "duration": 68}, {"note": 69, "velocity": 112, "duration": 123}, {"note": 68, "velocity": 112, "duration": 114}, {"note": 0, "velocity": 0, "duration": 126}, {"note": 66, "velocity": 107, "duration": 98}, {"note": 64, "velocity": 100, "duration": 339}, {"note": 64, "velocity": 96, "duration": 73}, {"note": 61, "velocity": 93, "duration": 134}, {"note": 0, "velocity": 0, "duration": 106}, {"note": 59, "velocity": 88, "duration": 102}, {"note": 57, "velocity": 86, "duration": 91}, {"note": 59, "velocity": 90, "duration": 273}, {"note": 0, "velocity": 0, "duration": 87}, {"note": 59, "velocity": 97, "duration": 51}, {"note": 0, "velocity": 0, "duration": 69}, {"note": 57, "velocity": 102, "duration": 92}, {"note": 57, "velocity": 93, "duration": 110}, {"note": 0, "velocity": 0, "duration": 130}, {"note": 61, "velocity": 96, "duration": 60}, {"note": 59, "velocity": 89, "duration": 639}, {"note": 0, "velocity": 0, "duration": 81}, {"note": 61, "velocity": 112, "duration": 70}, {"note": 64, "velocity": 93, "duration": 47}, {"note": 0, "velocity": 0, "duration": 73}, {"note": 57, "velocity": 97, "duration": 71}, {"note": 57, "velocity": 93, "duration": 84}, {"note": 0, "velocity": 0, "duration": 156}, {"note": 57, "velocity": 92, "duration": 48}, {"note": 0, "velocity": 0, "duration": 72}, {"note": 57, "velocity": 96, "duration": 83}, {"note": 57, "velocity": 96, "duration": 96}, {"note": 0, "velocity": 0, "duration": 144}, {"note": 59, "velocity": 89, "duration": 73}, {"note": 61, "velocity": 112, "duration": 95}, {"note": 64, "velocity": 93, "duration": 340}, {"note": 0, "velocity": 0, "duration": 260}, {"note": 66, "velocity": 127, "duration": 91}, {"note": 68, "velocity": 117, "duration": 87}, {"note": 69, "velocity": 117, "duration": 193}, {"note": 0, "velocity": 0, "duration": 167}, {"note": 69, "velocity": 122, "duration": 63}, {"note": 69, "velocity": 122, "duration": 120}, {"note": 68, "velocity": 97, "duration": 120}, {"note": 0, "velocity": 0, "duration": 120}, {"note": 61, "velocity": 100, "duration": 83}, {"note": 64, "velocity": 107, "duration": 480}, {"note": 0, "velocity": 0, "duration": 240}, {"note": 66, "velocity": 102, "duration": 105}, {"note": 68, "velocity": 100, "duration": 71}, {"note": 69, "velocity": 107, "duration": 46}, {"note": 0, "velocity": 0, "duration": 194}, {"note": 69, "velocity": 100, "duration": 55}, {"note": 0, "velocity": 0, "duration": 65}, {"note": 69, "velocity": 107, "duration": 52}, {"note": 0, "velocity": 0, "duration": 68}, {"note": 69, "velocity": 112, "duration": 123}, {"note": 0, "velocity": 0, "duration": 117}, {"note": 68, "velocity": 112, "duration": 114}, {"note": 66, "velocity": 107, "duration": 98}, {"note": 64, "velocity": 100, "duration": 339}, {"note": 64, "velocity": 96, "duration": 73}, {"note": 61, "velocity": 93, "duration": 134}, {"note": 0, "velocity": 0, "duration": 106}, {"note": 59, "velocity": 88, "duration": 102}, {"note": 57, "velocity": 86, "duration": 91}, {"note": 59, "velocity": 90, "duration": 273}, {"note": 0, "velocity": 0, "duration": 87}, {"note": 59, "velocity": 97, "duration": 51}, {"note": 0, "velocity": 0, "duration": 69}, {"note": 61, "velocity": 122, "duration": 128}, {"note": 0, "velocity": 0, "duration": 112}, {"note": 54, "velocity": 102, "duration": 101}, {"note": 57, "velocity": 97, "duration": 151}, {"note": 0, "velocity": 0, "duration": 89}, {"note": 57, "velocity": 117, "duration": 754}, {"note": 0, "velocity": 0, "duration": 806}, {"note": 57, "velocity": 107, "duration": 162}, {"note": 0, "velocity": 0, "duration": 78}, {"note": 69, "velocity": 127, "duration": 324}, {"note": 0, "velocity": 0, "duration": 516}, {"note": 57, "velocity": 92, "duration": 136}, {"note": 64, "velocity": 99, "duration": 458}, {"note": 0, "velocity": 0, "duration": 382}, {"note": 57, "velocity": 99, "duration": 97}, {"note": 69, "velocity": 107, "duration": 55}, {"note": 0, "velocity": 0, "duration": 65}, {"note": 69, "velocity": 99, "duration": 51}, {"note": 0, "velocity": 0, "duration": 69}, {"note": 69, "velocity": 100, "duration": 45}, {"note": 0, "velocity": 0, "duration": 75}, {"note": 69, "velocity": 100, "duration": 44}, {"note": 0, "velocity": 0, "duration": 76}, {"note": 69, "velocity": 122, "duration": 85}, {"note": 68, "velocity": 122, "duration": 94}, {"note": 0, "velocity": 0, "duration": 146}, {"note": 57, "velocity": 102, "duration": 80}, {"note": 64, "velocity": 102, "duration": 454}, {"note": 0, "velocity": 0, "duration": 266}, {"note": 57, "velocity": 93, "duration": 158}, {"note": 0, "velocity": 0, "duration": 82}, {"note": 69, "velocity": 112, "duration": 378}, {"note": 0, "velocity": 0, "duration": 462}, {"note": 57, "velocity": 97, "duration": 72}, {"note": 64, "velocity": 112, "duration": 527}, {"note": 0, "velocity": 0, "duration": 193}, {"note": 57, "velocity": 88, "duration": 46}, {"note": 0, "velocity": 0, "duration": 74}, {"note": 57, "velocity": 92, "duration": 62}, {"note": 59, "velocity": 89, "duration": 49}, {"note": 0, "velocity": 0, "duration": 71}, {"note": 59, "velocity": 88, "duration": 51}, {"note": 0, "velocity": 0, "duration": 69}, {"note": 59, "velocity": 89, "duration": 45}, {"note": 0, "velocity": 0, "duration": 75}, {"note": 59, "velocity": 89, "duration": 45}, {"note": 0, "velocity": 0, "duration": 75}, {"note": 59, "velocity": 99, "duration": 84}, {"note": 57, "velocity": 102, "duration": 65}, {"note": 0, "velocity": 0, "duration": 175}, {"note": 61, "velocity": 112, "duration": 120}, {"note": 59, "velocity": 95, "duration": 472}, {"note": 0, "velocity": 0, "duration": 248}, {"note": 57, "velocity": 107, "duration": 162}, {"note": 0, "velocity": 0, "duration": 78}, {"note": 69, "velocity": 127, "duration": 324}, {"note": 0, "velocity": 0, "duration": 516}, {"note": 57, "velocity": 92, "duration": 136}, {"note": 64, "velocity": 99, "duration": 458}, {"note": 0, "velocity": 0, "duration": 382}, {"note": 57, "velocity": 99, "duration": 97}, {"note": 69, "velocity": 107, "duration": 55}, {"note": 0, "velocity": 0, "duration": 65}, {"note": 69, "velocity": 99, "duration": 51}, {"note": 0, "velocity": 0, "duration": 69}, {"note": 69, "velocity": 100, "duration": 45}, {"note": 0, "velocity": 0, "duration": 75}, {"note": 69, "velocity": 100, "duration": 44}, {"note": 0, "velocity": 0, "duration": 76}, {"note": 69, "velocity": 122, "duration": 85}, {"note": 68, "velocity": 122, "duration": 94}, {"note": 0, "velocity": 0, "duration": 146}, {"note": 57, "velocity": 102, "duration": 80}, {"note": 64, "velocity": 102, "duration": 454}, {"note": 0, "velocity": 0, "duration": 266}, {"note": 57, "velocity": 93, "duration": 64}, {"note": 57, "velocity": 107, "duration": 92}, {"note": 69, "velocity": 112, "duration": 106}, {"note": 69, "velocity": 127, "duration": 54}, {"note": 0, "velocity": 0, "duration": 66}, {"note": 69, "velocity": 112, "duration": 59}, {"note": 0, "velocity": 0, "duration": 61}, {"note": 69, "velocity": 127, "duration": 121}, {"note": 0, "velocity": 0, "duration": 359}, {"note": 57, "velocity": 97, "duration": 72}, {"note": 64, "velocity": 112, "duration": 170}, {"note": 0, "velocity": 0, "duration": 70}, {"note": 64, "velocity": 99, "duration": 58}, {"note": 0, "velocity": 0, "duration": 62}, {"note": 64, "velocity": 99, "duration": 106}, {"note": 0, "velocity": 0, "duration": 134}, {"note": 61, "velocity": 112, "duration": 86}, {"note": 59, "velocity": 93, "duration": 65}, {"note": 57, "velocity": 95, "duration": 74}, {"note": 59, "velocity": 99, "duration": 249}, {"note": 0, "velocity": 0, "duration": 231}, {"note": 61, "velocity": 127, "duration": 117}, {"note": 59, "velocity": 93, "duration": 109}, {"note": 0, "velocity": 0, "duration": 131}, {"note": 57, "velocity": 93, "duration": 63}, {"note": 57, "velocity": 100, "duration": 849}, {"note": 0, "velocity": 0, "duration": 8391}, {"note": 57, "velocity": 107, "duration": 55}, {"note": 0, "velocity": 0, "duration": 65}, {"note": 57, "velocity": 92, "duration": 105}, {"note": 59, "velocity": 97, "duration": 103}, {"note": 61, "velocity": 112, "duration": 206}, {"note": 61, "velocity": 107, "duration": 96}, {"note": 64, "velocity": 92, "duration": 49}, {"note": 0, "velocity": 0, "duration": 71}, {"note": 64, "velocity": 99, "duration": 68}, {"note": 64, "velocity": 96, "duration": 59}, {"note": 0, "velocity": 0, "duration": 181}, {"note": 64, "velocity": 89, "duration": 106}, {"note": 61, "velocity": 93, "duration": 160}, {"note": 64, "velocity": 90, "duration": 426}, {"note": 0, "velocity": 0, "duration": 174}, {"note": 66, "velocity": 127, "duration": 91}, {"note": 68, "velocity": 117, "duration": 87}, {"note": 69, "velocity": 117, "duration": 107}, {"note": 69, "velocity": 122, "duration": 144}, {"note": 0, "velocity": 0, "duration": 96}, {"note": 69, "velocity": 122, "duration": 62}, {"note": 69, "velocity": 122, "duration": 120}, {"note": 68, "velocity": 127, "duration": 97}, {"note": 0, "velocity": 0, "duration": 143}, {"note": 61, "velocity": 100, "duration": 83}, {"note": 64, "velocity": 107, "duration": 480}, {"note": 0, "velocity": 0, "duration": 240}, {"note": 66, "velocity": 102, "duration": 105}, {"note": 68, "velocity": 100, "duration": 71}, {"note": 69, "velocity": 107, "duration": 91}, {"note": 69, "velocity": 100, "duration": 119}, {"note": 0, "velocity": 0, "duration": 121}, {"note": 69, "velocity": 107, "duration": 52}, {"note": 0, "velocity": 0, "duration": 68}, {"note": 69, "velocity": 112, "duration": 123}, {"note": 68, "velocity": 112, "duration": 114}, {"note": 0, "velocity": 0, "duration": 126}, {"note": 66, "velocity": 107, "duration": 98}, {"note": 64, "velocity": 100, "duration": 339}, {"note": 64, "velocity": 96, "duration": 73}, {"note": 61, "velocity": 93, "duration": 134}, {"note": 0, "velocity": 0, "duration": 106}, {"note": 59, "velocity": 88, "duration": 102}, {"note": 57, "velocity": 86, "duration": 91}, {"note": 59, "velocity": 90, "duration": 273}, {"note": 0, "velocity": 0, "duration": 87}, {"note": 59, "velocity": 97, "duration": 51}, {"note": 0, "velocity": 0, "duration": 69}, {"note": 57, "velocity": 102, "duration": 92}, {"note": 57, "velocity": 93, "duration": 110}, {"note": 0, "velocity": 0, "duration": 130}, {"note": 61, "velocity": 96, "duration": 60}, {"note": 59, "velocity": 89, "duration": 639}, {"note": 0, "velocity": 0, "duration": 81}, {"note": 61, "velocity": 112, "duration": 70}, {"note": 64, "velocity": 93, "duration": 47}, {"note": 0, "velocity": 0, "duration": 73}, {"note": 57, "velocity": 97, "duration": 71}, {"note": 57, "velocity": 93, "duration": 84}, {"note": 0, "velocity": 0, "duration": 156}, {"note": 57, "velocity": 92, "duration": 48}, {"note": 0, "velocity": 0, "duration": 72}, {"note": 57, "velocity": 96, "duration": 83}, {"note": 57, "velocity": 96, "duration": 96}, {"note": 0, "velocity": 0, "duration": 144}, {"note": 59, "velocity": 89, "duration": 73}, {"note": 61, "velocity": 112, "duration": 95}, {"note": 64, "velocity": 93, "duration": 340}, {"note": 0, "velocity": 0, "duration": 260}, {"note": 66, "velocity": 127, "duration": 91}, {"note": 68, "velocity": 117, "duration": 87}, {"note": 69, "velocity": 117, "duration": 193}, {"note": 0, "velocity": 0, "duration": 167}, {"note": 69, "velocity": 122, "duration": 63}, {"note": 69, "velocity": 122, "duration": 120}, {"note": 68, "velocity": 97, "duration": 120}, {"note": 0, "velocity": 0, "duration": 120}, {"note": 66, "velocity": 100, "duration": 83}, {"note": 64, "velocity": 107, "duration": 480}, {"note": 0, "velocity": 0, "duration": 240}, {"note": 66, "velocity": 102, "duration": 105}, {"note": 68, "velocity": 100, "duration": 71}, {"note": 69, "velocity": 107, "duration": 46}, {"note": 0, "velocity": 0, "duration": 194}, {"note": 69, "velocity": 100, "duration": 55}, {"note": 0, "velocity": 0, "duration": 65}, {"note": 69, "velocity": 107, "duration": 52}, {"note": 0, "velocity": 0, "duration": 68}, {"note": 69, "velocity": 112, "duration": 123}, {"note": 0, "velocity": 0, "duration": 117}, {"note": 68, "velocity": 112, "duration": 114}, {"note": 66, "velocity": 107, "duration": 98}, {"note": 64, "velocity": 100, "duration": 339}, {"note": 64, "velocity": 96, "duration": 73}, {"note": 61, "velocity": 93, "duration": 134}, {"note": 0, "velocity": 0, "duration": 106}, {"note": 59, "velocity": 88, "duration": 102}, {"note": 57, "velocity": 86, "duration": 91}, {"note": 59, "velocity": 90, "duration": 273}, {"note": 0, "velocity": 0, "duration": 87}, {"note": 59, "velocity": 97, "duration": 51}, {"note": 0, "velocity": 0, "duration": 69}, {"note": 61, "velocity": 122, "duration": 128}, {"note": 0, "velocity": 0, "duration": 112}, {"note": 54, "velocity": 102, "duration": 101}, {"note": 57, "velocity": 97, "duration": 151}, {"note": 0, "velocity": 0, "duration": 89}, {"note": 57, "velocity": 117, "duration": 754}, {"note": 0, "velocity": 0, "duration": 806}, {"note": 57, "velocity": 107, "duration": 162}, {"note": 0, "velocity": 0, "duration": 78}, {"note": 69, "velocity": 127, "duration": 324}, {"note": 0, "velocity": 0, "duration": 516}, {"note": 57, "velocity": 92, "duration": 136}, {"note": 64, "velocity": 99, "duration": 458}, {"note": 0, "velocity": 0, "duration": 382}, {"note": 57, "velocity": 99, "duration": 97}, {"note": 69, "velocity": 107, "duration": 55}, {"note": 0, "velocity": 0, "duration": 65}, {"note": 69, "velocity": 99, "duration": 51}, {"note": 0, "velocity": 0, "duration": 69}, {"note": 69, "velocity": 100, "duration": 45}, {"note": 0, "velocity": 0, "duration": 75}, {"note": 69, "velocity": 100, "duration": 44}, {"note": 0, "velocity": 0, "duration": 76}, {"note": 69, "velocity": 122, "duration": 85}, {"note": 68, "velocity": 122, "duration": 94}, {"note": 0, "velocity": 0, "duration": 146}, {"note": 57, "velocity": 102, "duration": 80}, {"note": 64, "velocity": 102, "duration": 454}, {"note": 0, "velocity": 0, "duration": 266}, {"note": 57, "velocity": 93, "duration": 158}, {"note": 0, "velocity": 0, "duration": 82}, {"note": 69, "velocity": 112, "duration": 378}, {"note": 0, "velocity": 0, "duration": 462}, {"note": 57, "velocity": 97, "duration": 72}, {"note": 64, "velocity": 112, "duration": 527}, {"note": 0, "velocity": 0, "duration": 193}, {"note": 57, "velocity": 88, "duration": 46}, {"note": 0, "velocity": 0, "duration": 74}, {"note": 57, "velocity": 92, "duration": 62}, {"note": 59, "velocity": 89, "duration": 49}, {"note": 0, "velocity": 0, "duration": 71}, {"note": 59, "velocity": 88, "duration": 51}, {"note": 0, "velocity": 0, "duration": 69}, {"note": 59, "velocity": 89, "duration": 45}, {"note": 0, "velocity": 0, "duration": 75}, {"note": 59, "velocity": 89, "duration": 45}, {"note": 0, "velocity": 0, "duration": 75}, {"note": 59, "velocity": 99, "duration": 84}, {"note": 57, "velocity": 102, "duration": 65}, {"note": 0, "velocity": 0, "duration": 175}, {"note": 61, "velocity": 112, "duration": 120}, {"note": 59, "velocity": 95, "duration": 472}, {"note": 0, "velocity": 0, "duration": 248}, {"note": 57, "velocity": 107, "duration": 162}, {"note": 0, "velocity": 0, "duration": 78}, {"note": 69, "velocity": 127, "duration": 324}, {"note": 0, "velocity": 0, "duration": 516}, {"note": 57, "velocity": 92, "duration": 136}, {"note": 64, "velocity": 99, "duration": 458}, {"note": 0, "velocity": 0, "duration": 382}, {"note": 57, "velocity": 99, "duration": 97}, {"note": 69, "velocity": 107, "duration": 55}, {"note": 0, "velocity": 0, "duration": 65}, {"note": 69, "velocity": 99, "duration": 51}, {"note": 0, "velocity": 0, "duration": 69}, {"note": 69, "velocity": 100, "duration": 45}, {"note": 0, "velocity": 0, "duration": 75}, {"note": 69, "velocity": 100, "duration": 44}, {"note": 0, "velocity": 0, "duration": 76}, {"note": 69, "velocity": 122, "duration": 85}, {"note": 68, "velocity": 122, "duration": 94}, {"note": 0, "velocity": 0, "duration": 146}, {"note": 57, "velocity": 102, "duration": 80}, {"note": 64, "velocity": 102, "duration": 454}, {"note": 0, "velocity": 0, "duration": 266}, {"note": 57, "velocity": 93, "duration": 64}, {"note": 57, "velocity": 107, "duration": 92}, {"note": 69, "velocity": 112, "duration": 106}, {"note": 69, "velocity": 127, "duration": 54}, {"note": 0, "velocity": 0, "duration": 66}, {"note": 69, "velocity": 112, "duration": 59}, {"note": 0, "velocity": 0, "duration": 61}, {"note": 69, "velocity": 127, "duration": 121}, {"note": 0, "velocity": 0, "duration": 359}, {"note": 57, "velocity": 97, "duration": 72}, {"note": 64, "velocity": 112, "duration": 170}, {"note": 0, "velocity": 0, "duration": 70}, {"note": 64, "velocity": 99, "duration": 58}, {"note": 0, "velocity": 0, "duration": 62}, {"note": 64, "velocity": 99, "duration": 106}, {"note": 0, "velocity": 0, "duration": 134}, {"note": 61, "velocity": 112, "duration": 86}, {"note": 59, "velocity": 93, "duration": 65}, {"note": 57, "velocity": 95, "duration": 74}, {"note": 59, "velocity": 99, "duration": 249}, {"note": 0, "velocity": 0, "duration": 231}, {"note": 61, "velocity": 127, "duration": 117}, {"note": 59, "velocity": 114, "duration": 109}, {"note": 0, "velocity": 0, "duration": 131}, {"note": 57, "velocity": 93, "duration": 63}, {"note": 57, "velocity": 100, "duration": 849}, {"note": 0, "velocity": 0, "duration": 17151}, {"note": 57, "velocity": 107, "duration": 162}, {"note": 0, "velocity": 0, "duration": 78}, {"note": 69, "velocity": 127, "duration": 324}, {"note": 0, "velocity": 0, "duration": 516}, {"note": 57, "velocity": 92, "duration": 136}, {"note": 64, "velocity": 99, "duration": 458}, {"note": 0, "velocity": 0, "duration": 382}, {"note": 57, "velocity": 99, "duration": 97}, {"note": 69, "velocity": 107, "duration": 55}, {"note": 0, "velocity": 0, "duration": 65}, {"note": 69, "velocity": 99, "duration": 51}, {"note": 0, "velocity": 0, "duration": 69}, {"note": 69, "velocity": 100, "duration": 45}, {"note": 0, "velocity": 0, "duration": 75}, {"note": 69, "velocity": 100, "duration": 44}, {"note": 0, "velocity": 0, "duration": 76}, {"note": 69, "velocity": 122, "duration": 85}, {"note": 68, "velocity": 122, "duration": 94}, {"note": 0, "velocity": 0, "duration": 146}, {"note": 57, "velocity": 102, "duration": 80}, {"note": 64, "velocity": 102, "duration": 454}, {"note": 0, "velocity": 0, "duration": 266}, {"note": 57, "velocity": 93, "duration": 158}, {"note": 0, "velocity": 0, "duration": 82}, {"note": 69, "velocity": 112, "duration": 378}, {"note": 0, "velocity": 0, "duration": 462}, {"note": 57, "velocity": 97, "duration": 72}, {"note": 64, "velocity": 112, "duration": 527}, {"note": 0, "velocity": 0, "duration": 193}, {"note": 57, "velocity": 88, "duration": 46}, {"note": 0, "velocity": 0, "duration": 74}, {"note": 57, "velocity": 92, "duration": 62}, {"note": 59, "velocity": 89, "duration": 49}, {"note": 0, "velocity": 0, "duration": 71}, {"note": 59, "velocity": 88, "duration": 51}, {"note": 0, "velocity": 0, "duration": 69}, {"note": 59, "velocity": 89, "duration": 45}, {"note": 0, "velocity": 0, "duration": 75}, {"note": 59, "velocity": 89, "duration": 45}, {"note": 0, "velocity": 0, "duration": 75}, {"note": 59, "velocity": 99, "duration": 84}, {"note": 57, "velocity": 102, "duration": 65}, {"note": 0, "velocity": 0, "duration": 175}, {"note": 61, "velocity": 112, "duration": 120}, {"note": 59, "velocity": 95, "duration": 472}, {"note": 0, "velocity": 0, "duration": 248}, {"note": 57, "velocity": 107, "duration": 162}, {"note": 0, "velocity": 0, "duration": 78}, {"note": 69, "velocity": 127, "duration": 324}, {"note": 0, "velocity": 0, "duration": 516}, {"note": 57, "velocity": 92, "duration": 136}, {"note": 64, "velocity": 99, "duration": 458}, {"note": 0, "velocity": 0, "duration": 382}, {"note": 57, "velocity": 99, "duration": 97}, {"note": 69, "velocity": 107, "duration": 55}, {"note": 0, "velocity": 0, "duration": 65}, {"note": 69, "velocity": 99, "duration": 51}, {"note": 0, "velocity": 0, "duration": 69}, {"note": 69, "velocity": 100, "duration": 45}, {"note": 0, "velocity": 0, "duration": 75}, {"note": 69, "velocity": 100, "duration": 44}, {"note": 0, "velocity": 0, "duration": 76}, {"note": 69, "velocity": 122, "duration": 85}, {"note": 68, "velocity": 122, "duration": 94}, {"note": 0, "velocity": 0, "duration": 146}, {"note": 57, "velocity": 102, "duration": 80}, {"note": 64, "velocity": 102, "duration": 454}, {"note": 0, "velocity": 0, "duration": 266}, {"note": 57, "velocity": 93, "duration": 64}, {"note": 57, "velocity": 107, "duration": 92}, {"note": 69, "velocity": 112, "duration": 106}, {"note": 69, "velocity": 127, "duration": 54}, {"note": 0, "velocity": 0, "duration": 66}, {"note": 69, "velocity": 112, "duration": 59}, {"note": 0, "velocity": 0, "duration": 61}, {"note": 69, "velocity": 127, "duration": 121}, {"note": 0, "velocity": 0, "duration": 359}, {"note": 57, "velocity": 97, "duration": 72}, {"note": 64, "velocity": 112, "duration": 170}, {"note": 0, "velocity": 0, "duration": 70}, {"note": 64, "velocity": 99, "duration": 58}, {"note": 0, "velocity": 0, "duration": 62}, {"note": 64, "velocity": 99, "duration": 106}, {"note": 0, "velocity": 0, "duration": 134}, {"note": 61, "velocity": 112, "duration": 86}, {"note": 59, "velocity": 93, "duration": 65}, {"note": 57, "velocity": 95, "duration": 74}, {"note": 59, "velocity": 99, "duration": 249}, {"note": 0, "velocity": 0, "duration": 231}, {"note": 61, "velocity": 127, "duration": 117}, {"note": 59, "velocity": 114, "duration": 109}, {"note": 0, "velocity": 0, "duration": 131}, {"note": 57, "velocity": 93, "duration": 63}, {"note": 57, "velocity": 100, "duration": 849}]]