[[{"note": 61, "velocity": 41, "duration": 19}, {"note": 63, "velocity": 64, "duration": 143}, {"note": 64, "velocity": 68, "duration": 48}, {"note": 0, "velocity": 0, "duration": 192}, {"note": 57, "velocity": 60, "duration": 132}, {"note": 0, "velocity": 0, "duration": 108}, {"note": 57, "velocity": 71, "duration": 172}, {"note": 0, "velocity": 0, "duration": 68}, {"note": 64, "velocity": 70, "duration": 19}, {"note": 63, "velocity": 65, "duration": 72}, {"note": 59, "velocity": 73, "duration": 57}, {"note": 0, "velocity": 0, "duration": 63}, {"note": 61, "velocity": 66, "duration": 87}, {"note": 63, "velocity": 82, "duration": 31}, {"note": 0, "velocity": 0, "duration": 83}, {"note": 56, "velocity": 85, "duration": 135}, {"note": 63, "velocity": 66, "duration": 17}, {"note": 61, "velocity": 67, "duration": 216}, {"note": 0, "velocity": 0, "duration": 332}, {"note": 61, "velocity": 73, "duration": 92}, {"note": 59, "velocity": 63, "duration": 114}, {"note": 57, "velocity": 59, "duration": 283}, {"note": 0, "velocity": 0, "duration": 77}, {"note": 57, "velocity": 62, "duration": 208}, {"note": 61, "velocity": 79, "duration": 200}, {"note": 60, "velocity": 66, "duration": 359}, {"note": 61, "velocity": 71, "duration": 121}, {"note": 63, "velocity": 98, "duration": 222}, {"note": 56, "velocity": 71, "duration": 236}, {"note": 63, "velocity": 88, "duration": 685}, {"note": 0, "velocity": 0, "duration": 155}, {"note": 61, "velocity": 73, "duration": 129}, {"note": 63, "velocity": 88, "duration": 279}, {"note": 64, "velocity": 73, "duration": 440}, {"note": 61, "velocity": 72, "duration": 68}, {"note": 63, "velocity": 88, "duration": 13}, {"note": 64, "velocity": 85, "duration": 168}, {"note": 0, "velocity": 0, "duration": 72}, {"note": 57, "velocity": 71, "duration": 40}, {"note": 57, "velocity": 73, "duration": 228}, {"note": 64, "velocity": 88, "duration": 47}, {"note": 63, "velocity": 79, "duration": 380}, {"note": 64, "velocity": 98, "duration": 143}, {"note": 0, "velocity": 0, "duration": 97}, {"note": 64, "velocity": 95, "duration": 117}, {"note": 66, "velocity": 85, "duration": 208}, {"note": 63, "velocity": 79, "duration": 289}, {"note": 0, "velocity": 0, "duration": 71}, {"note": 63, "velocity": 71, "duration": 369}, {"note": 59, "velocity": 82, "duration": 232}, {"note": 61, "velocity": 73, "duration": 534}, {"note": 0, "velocity": 0, "duration": 186}, {"note": 61, "velocity": 88, "duration": 204}, {"note": 68, "velocity": 103, "duration": 1}, {"note": 66, "velocity": 106, "duration": 36}, {"note": 64, "velocity": 73, "duration": 247}, {"note": 61, "velocity": 98, "duration": 20}, {"note": 63, "velocity": 100, "duration": 399}, {"note": 64, "velocity": 95, "duration": 191}, {"note": 63, "velocity": 85, "duration": 213}, {"note": 56, "velocity": 75, "duration": 50}, {"note": 63, "velocity": 79, "duration": 721}, {"note": 64, "velocity": 71, "duration": 200}, {"note": 63, "velocity": 73, "duration": 85}, {"note": 61, "velocity": 76, "duration": 247}, {"note": 0, "velocity": 0, "duration": 68}, {"note": 69, "velocity": 106, "duration": 78}, {"note": 68, "velocity": 61, "duration": 75}, {"note": 69, "velocity": 82, "duration": 100}, {"note": 68, "velocity": 66, "duration": 23}, {"note": 69, "velocity": 100, "duration": 245}, {"note": 71, "velocity": 70, "duration": 31}, {"note": 66, "velocity": 82, "duration": 35}, {"note": 63, "velocity": 88, "duration": 45}, {"note": 68, "velocity": 106, "duration": 95}, {"note": 66, "velocity": 73, "duration": 78}, {"note": 68, "velocity": 75, "duration": 99}, {"note": 66, "velocity": 68, "duration": 3}, {"note": 68, "velocity": 98, "duration": 230}, {"note": 71, "velocity": 77, "duration": 32}, {"note": 64, "velocity": 95, "duration": 492}, {"note": 61, "velocity": 106, "duration": 78}, {"note": 63, "velocity": 69, "duration": 47}, {"note": 0, "velocity": 0, "duration": 73}, {"note": 64, "velocity": 95, "duration": 158}, {"note": 0, "velocity": 0, "duration": 82}, {"note": 63, "velocity": 66, "duration": 37}, {"note": 63, "velocity": 75, "duration": 229}, {"note": 61, "velocity": 71, "duration": 14}, {"note": 64, "velocity": 100, "duration": 164}, {"note": 0, "velocity": 0, "duration": 76}, {"note": 63, "velocity": 82, "duration": 27}, {"note": 63, "velocity": 88, "duration": 229}, {"note": 61, "velocity": 91, "duration": 42}, {"note": 63, "velocity": 103, "duration": 50}, {"note": 0, "velocity": 0, "duration": 360}, {"note": 61, "velocity": 95, "duration": 18}, {"note": 64, "velocity": 103, "duration": 86}, {"note": 0, "velocity": 0, "duration": 154}, {"note": 68, "velocity": 95, "duration": 16}, {"note": 71, "velocity": 88, "duration": 197}, {"note": 69, "velocity": 75, "duration": 35}, {"note": 69, "velocity": 95, "duration": 207}, {"note": 68, "velocity": 98, "duration": 95}, {"note": 66, "velocity": 91, "duration": 37}, {"note": 59, "velocity": 103, "duration": 134}, {"note": 0, "velocity": 0, "duration": 106}, {"note": 63, "velocity": 76, "duration": 107}, {"note": 0, "velocity": 0, "duration": 133}, {"note": 69, "velocity": 71, "duration": 2}, {"note": 69, "velocity": 109, "duration": 207}, {"note": 68, "velocity": 85, "duration": 177}, {"note": 0, "velocity": 0, "duration": 63}, {"note": 68, "velocity": 109, "duration": 221}, {"note": 66, "velocity": 88, "duration": 52}, {"note": 64, "velocity": 103, "duration": 84}, {"note": 61, "velocity": 98, "duration": 66}, {"note": 63, "velocity": 73, "duration": 54}, {"note": 0, "velocity": 0, "duration": 66}, {"note": 64, "velocity": 111, "duration": 51}, {"note": 0, "velocity": 0, "duration": 189}, {"note": 57, "velocity": 75, "duration": 172}, {"note": 0, "velocity": 0, "duration": 68}, {"note": 57, "velocity": 85, "duration": 217}, {"note": 64, "velocity": 98, "duration": 57}, {"note": 63, "velocity": 106, "duration": 71}, {"note": 63, "velocity": 103, "duration": 16}, {"note": 66, "velocity": 117, "duration": 202}, {"note": 63, "velocity": 98, "duration": 40}, {"note": 64, "velocity": 113, "duration": 34}, {"note": 0, "velocity": 0, "duration": 64}, {"note": 66, "velocity": 109, "duration": 41}, {"note": 68, "velocity": 103, "duration": 23}, {"note": 61, "velocity": 113, "duration": 180}, {"note": 64, "velocity": 76, "duration": 190}, {"note": 68, "velocity": 111, "duration": 224}, {"note": 71, "velocity": 98, "duration": 196}, {"note": 69, "velocity": 88, "duration": 176}, {"note": 0, "velocity": 0, "duration": 64}, {"note": 69, "velocity": 106, "duration": 225}, {"note": 68, "velocity": 111, "duration": 105}, {"note": 66, "velocity": 103, "duration": 41}, {"note": 0, "velocity": 0, "duration": 167}, {"note": 59, "velocity": 88, "duration": 72}, {"note": 63, "velocity": 98, "duration": 158}, {"note": 0, "velocity": 0, "duration": 82}, {"note": 69, "velocity": 85, "duration": 3}, {"note": 69, "velocity": 103, "duration": 197}, {"note": 68, "velocity": 95, "duration": 44}, {"note": 68, "velocity": 109, "duration": 179}, {"note": 0, "velocity": 0, "duration": 61}, {"note": 66, "velocity": 120, "duration": 209}, {"note": 64, "velocity": 109, "duration": 580}, {"note": 61, "velocity": 111, "duration": 86}, {"note": 63, "velocity": 95, "duration": 113}, {"note": 64, "velocity": 100, "duration": 315}, {"note": 57, "velocity": 79, "duration": 218}, {"note": 64, "velocity": 100, "duration": 205}, {"note": 63, "velocity": 100, "duration": 193}, {"note": 64, "velocity": 106, "duration": 222}, {"note": 66, "velocity": 100, "duration": 202}, {"note": 0, "velocity": 0, "duration": 73}, {"note": 63, "velocity": 103, "duration": 374}, {"note": 61, "velocity": 113, "duration": 282}, {"note": 0, "velocity": 0, "duration": 6340}, {"note": 61, "velocity": 41, "duration": 37}, {"note": 63, "velocity": 64, "duration": 143}, {"note": 64, "velocity": 68, "duration": 48}, {"note": 0, "velocity": 0, "duration": 192}, {"note": 57, "velocity": 60, "duration": 132}, {"note": 0, "velocity": 0, "duration": 108}, {"note": 57, "velocity": 71, "duration": 172}, {"note": 0, "velocity": 0, "duration": 68}, {"note": 64, "velocity": 70, "duration": 38}, {"note": 63, "velocity": 65, "duration": 91}, {"note": 59, "velocity": 73, "duration": 57}, {"note": 0, "velocity": 0, "duration": 63}, {"note": 61, "velocity": 66, "duration": 87}, {"note": 63, "velocity": 82, "duration": 31}, {"note": 0, "velocity": 0, "duration": 101}, {"note": 56, "velocity": 85, "duration": 153}, {"note": 0, "velocity": 0, "duration": 77}, {"note": 63, "velocity": 66, "duration": 35}, {"note": 61, "velocity": 67, "duration": 235}, {"note": 0, "velocity": 0, "duration": 332}, {"note": 61, "velocity": 73, "duration": 6}, {"note": 59, "velocity": 63, "duration": 114}, {"note": 57, "velocity": 59, "duration": 283}, {"note": 0, "velocity": 0, "duration": 77}, {"note": 57, "velocity": 62, "duration": 227}, {"note": 61, "velocity": 79, "duration": 7}, {"note": 60, "velocity": 66, "duration": 360}, {"note": 61, "velocity": 71, "duration": 137}, {"note": 63, "velocity": 98, "duration": 7}, {"note": 56, "velocity": 71, "duration": 236}, {"note": 63, "velocity": 88, "duration": 12}, {"note": 64, "velocity": 88, "duration": 82}, {"note": 63, "velocity": 73, "duration": 41}, {"note": 61, "velocity": 76, "duration": 41}, {"note": 69, "velocity": 106, "duration": 78}, {"note": 68, "velocity": 61, "duration": 75}, {"note": 69, "velocity": 82, "duration": 100}, {"note": 68, "velocity": 66, "duration": 27}, {"note": 69, "velocity": 100, "duration": 245}, {"note": 71, "velocity": 70, "duration": 36}, {"note": 66, "velocity": 82, "duration": 39}, {"note": 63, "velocity": 88, "duration": 49}, {"note": 68, "velocity": 106, "duration": 95}, {"note": 66, "velocity": 73, "duration": 78}, {"note": 68, "velocity": 75, "duration": 99}, {"note": 66, "velocity": 68, "duration": 8}, {"note": 68, "velocity": 98, "duration": 230}, {"note": 71, "velocity": 77, "duration": 37}, {"note": 64, "velocity": 95, "duration": 492}, {"note": 61, "velocity": 106, "duration": 78}, {"note": 63, "velocity": 69, "duration": 47}, {"note": 0, "velocity": 0, "duration": 73}, {"note": 64, "velocity": 95, "duration": 158}, {"note": 63, "velocity": 66, "duration": 41}, {"note": 63, "velocity": 75, "duration": 229}, {"note": 61, "velocity": 71, "duration": 18}, {"note": 64, "velocity": 100, "duration": 164}, {"note": 0, "velocity": 0, "duration": 76}, {"note": 63, "velocity": 82, "duration": 31}, {"note": 63, "velocity": 88, "duration": 229}, {"note": 61, "velocity": 91, "duration": 46}, {"note": 63, "velocity": 103, "duration": 54}, {"note": 0, "velocity": 0, "duration": 360}, {"note": 61, "velocity": 95, "duration": 23}, {"note": 64, "velocity": 103, "duration": 86}, {"note": 0, "velocity": 0, "duration": 154}, {"note": 68, "velocity": 95, "duration": 20}, {"note": 71, "velocity": 88, "duration": 197}, {"note": 69, "velocity": 75, "duration": 39}, {"note": 69, "velocity": 95, "duration": 207}, {"note": 68, "velocity": 98, "duration": 95}, {"note": 66, "velocity": 91, "duration": 41}, {"note": 59, "velocity": 103, "duration": 134}, {"note": 0, "velocity": 0, "duration": 106}, {"note": 63, "velocity": 76, "duration": 107}, {"note": 0, "velocity": 0, "duration": 133}, {"note": 69, "velocity": 71, "duration": 7}, {"note": 69, "velocity": 109, "duration": 207}, {"note": 68, "velocity": 85, "duration": 177}, {"note": 0, "velocity": 0, "duration": 63}, {"note": 68, "velocity": 109, "duration": 221}, {"note": 66, "velocity": 88, "duration": 57}, {"note": 64, "velocity": 103, "duration": 88}, {"note": 61, "velocity": 98, "duration": 66}, {"note": 63, "velocity": 73, "duration": 54}, {"note": 0, "velocity": 0, "duration": 66}, {"note": 64, "velocity": 111, "duration": 51}, {"note": 0, "velocity": 0, "duration": 189}, {"note": 57, "velocity": 75, "duration": 172}, {"note": 0, "velocity": 0, "duration": 68}, {"note": 57, "velocity": 85, "duration": 217}, {"note": 64, "velocity": 98, "duration": 62}, {"note": 63, "velocity": 106, "duration": 76}, {"note": 63, "velocity": 103, "duration": 20}, {"note": 66, "velocity": 117, "duration": 202}, {"note": 63, "velocity": 98, "duration": 45}, {"note": 64, "velocity": 113, "duration": 38}, {"note": 0, "velocity": 0, "duration": 68}, {"note": 66, "velocity": 109, "duration": 45}, {"note": 68, "velocity": 103, "duration": 31}, {"note": 61, "velocity": 113, "duration": 184}, {"note": 64, "velocity": 76, "duration": 190}, {"note": 68, "velocity": 111, "duration": 224}, {"note": 71, "velocity": 98, "duration": 196}, {"note": 69, "velocity": 88, "duration": 176}, {"note": 0, "velocity": 0, "duration": 64}, {"note": 69, "velocity": 106, "duration": 225}, {"note": 68, "velocity": 111, "duration": 105}, {"note": 66, "velocity": 103, "duration": 45}, {"note": 0, "velocity": 0, "duration": 167}, {"note": 59, "velocity": 88, "duration": 77}, {"note": 63, "velocity": 98, "duration": 158}, {"note": 0, "velocity": 0, "duration": 82}, {"note": 69, "velocity": 85, "duration": 7}, {"note": 69, "velocity": 103, "duration": 197}, {"note": 68, "velocity": 95, "duration": 49}, {"note": 68, "velocity": 109, "duration": 179}, {"note": 0, "velocity": 0, "duration": 61}, {"note": 66, "velocity": 120, "duration": 213}, {"note": 64, "velocity": 109, "duration": 585}, {"note": 61, "velocity": 111, "duration": 86}, {"note": 63, "velocity": 95, "duration": 118}, {"note": 64, "velocity": 100, "duration": 315}, {"note": 57, "velocity": 79, "duration": 222}, {"note": 64, "velocity": 100, "duration": 214}, {"note": 63, "velocity": 100, "duration": 198}, {"note": 64, "velocity": 106, "duration": 226}, {"note": 66, "velocity": 100, "duration": 202}, {"note": 0, "velocity": 0, "duration": 77}, {"note": 63, "velocity": 103, "duration": 378}, {"note": 61, "velocity": 113, "duration": 290}, {"note": 0, "velocity": 0, "duration": 105}, {"note": 61, "velocity": 103, "duration": 49}, {"note": 64, "velocity": 111, "duration": 68}, {"note": 0, "velocity": 0, "duration": 172}, {"note": 68, "velocity": 106, "duration": 42}, {"note": 71, "velocity": 98, "duration": 197}, {"note": 69, "velocity": 73, "duration": 5}, {"note": 69, "velocity": 100, "duration": 226}, {"note": 68, "velocity": 79, "duration": 58}, {"note": 66, "velocity": 95, "duration": 73}, {"note": 59, "velocity": 98, "duration": 92}, {"note": 63, "velocity": 109, "duration": 95}, {"note": 0, "velocity": 0, "duration": 145}, {"note": 69, "velocity": 111, "duration": 178}, {"note": 0, "velocity": 0, "duration": 62}, {"note": 69, "velocity": 111, "duration": 213}, {"note": 68, "velocity": 103, "duration": 44}, {"note": 68, "velocity": 103, "duration": 221}, {"note": 66, "velocity": 79, "duration": 200}, {"note": 64, "velocity": 77, "duration": 374}, {"note": 0, "velocity": 0, "duration": 72}, {"note": 61, "velocity": 95, "duration": 104}, {"note": 63, "velocity": 77, "duration": 75}, {"note": 64, "velocity": 85, "duration": 356}, {"note": 57, "velocity": 69, "duration": 278}, {"note": 64, "velocity": 95, "duration": 109}, {"note": 63, "velocity": 75, "duration": 371}, {"note": 61, "velocity": 88, "duration": 124}, {"note": 0, "velocity": 0, "duration": 202}, {"note": 60, "velocity": 55, "duration": 461}, {"note": 61, "velocity": 82, "duration": 1158}]]