[[{"note": 58, "velocity": 117, "duration": 599}, {"note": 0, "velocity": 0, "duration": 121}, {"note": 60, "velocity": 95, "duration": 143}, {"note": 0, "velocity": 0, "duration": 97}, {"note": 62, "velocity": 97, "duration": 249}, {"note": 65, "velocity": 90, "duration": 488}, {"note": 62, "velocity": 100, "duration": 243}, {"note": 60, "velocity": 93, "duration": 248}, {"note": 58, "velocity": 95, "duration": 170}, {"note": 0, "velocity": 0, "duration": 70}, {"note": 58, "velocity": 93, "duration": 704}, {"note": 0, "velocity": 0, "duration": 736}, {"note": 62, "velocity": 112, "duration": 505}, {"note": 0, "velocity": 0, "duration": 215}, {"note": 65, "velocity": 112, "duration": 195}, {"note": 67, "velocity": 96, "duration": 203}, {"note": 70, "velocity": 102, "duration": 361}, {"note": 0, "velocity": 0, "duration": 119}, {"note": 67, "velocity": 102, "duration": 157}, {"note": 0, "velocity": 0, "duration": 83}, {"note": 67, "velocity": 99, "duration": 269}, {"note": 0, "velocity": 0, "duration": 211}, {"note": 65, "velocity": 112, "duration": 602}, {"note": 0, "velocity": 0, "duration": 838}, {"note": 67, "velocity": 112, "duration": 575}, {"note": 0, "velocity": 0, "duration": 145}, {"note": 70, "velocity": 127, "duration": 184}, {"note": 72, "velocity": 112, "duration": 405}, {"note": 0, "velocity": 0, "duration": 315}, {"note": 70, "velocity": 127, "duration": 142}, {"note": 0, "velocity": 0, "duration": 98}, {"note": 72, "velocity": 100, "duration": 95}, {"note": 0, "velocity": 0, "duration": 145}, {"note": 70, "velocity": 127, "duration": 118}, {"note": 0, "velocity": 0, "duration": 122}, {"note": 67, "velocity": 102, "duration": 602}, {"note": 0, "velocity": 0, "duration": 358}, {"note": 65, "velocity": 112, "duration": 113}, {"note": 0, "velocity": 0, "duration": 127}, {"note": 67, "velocity": 99, "duration": 87}, {"note": 0, "velocity": 0, "duration": 153}, {"note": 65, "velocity": 107, "duration": 105}, {"note": 0, "velocity": 0, "duration": 135}, {"note": 65, "velocity": 122, "duration": 224}, {"note": 0, "velocity": 0, "duration": 256}, {"note": 62, "velocity": 97, "duration": 101}, {"note": 0, "velocity": 0, "duration": 139}, {"note": 62, "velocity": 107, "duration": 319}, {"note": 0, "velocity": 0, "duration": 161}, {"note": 60, "velocity": 117, "duration": 271}, {"note": 62, "velocity": 93, "duration": 240}, {"note": 60, "velocity": 100, "duration": 1233}, {"note": 0, "velocity": 0, "duration": 687}, {"note": 58, "velocity": 107, "duration": 89}, {"note": 0, "velocity": 0, "duration": 151}, {"note": 58, "velocity": 112, "duration": 277}, {"note": 0, "velocity": 0, "duration": 203}, {"note": 60, "velocity": 96, "duration": 122}, {"note": 0, "velocity": 0, "duration": 118}, {"note": 62, "velocity": 99, "duration": 177}, {"note": 0, "velocity": 0, "duration": 63}, {"note": 65, "velocity": 97, "duration": 369}, {"note": 0, "velocity": 0, "duration": 111}, {"note": 62, "velocity": 100, "duration": 85}, {"note": 0, "velocity": 0, "duration": 155}, {"note": 60, "velocity": 102, "duration": 214}, {"note": 58, "velocity": 96, "duration": 94}, {"note": 0, "velocity": 0, "duration": 146}, {"note": 58, "velocity": 112, "duration": 707}, {"note": 0, "velocity": 0, "duration": 733}, {"note": 62, "velocity": 112, "duration": 148}, {"note": 0, "velocity": 0, "duration": 92}, {"note": 62, "velocity": 102, "duration": 406}, {"note": 0, "velocity": 0, "duration": 74}, {"note": 65, "velocity": 112, "duration": 195}, {"note": 67, "velocity": 96, "duration": 203}, {"note": 70, "velocity": 102, "duration": 361}, {"note": 0, "velocity": 0, "duration": 119}, {"note": 67, "velocity": 102, "duration": 157}, {"note": 0, "velocity": 0, "duration": 83}, {"note": 67, "velocity": 99, "duration": 269}, {"note": 0, "velocity": 0, "duration": 211}, {"note": 65, "velocity": 112, "duration": 1108}, {"note": 0, "velocity": 0, "duration": 332}, {"note": 67, "velocity": 112, "duration": 168}, {"note": 0, "velocity": 0, "duration": 72}, {"note": 67, "velocity": 127, "duration": 291}, {"note": 0, "velocity": 0, "duration": 189}, {"note": 70, "velocity": 127, "duration": 184}, {"note": 72, "velocity": 112, "duration": 405}, {"note": 0, "velocity": 0, "duration": 315}, {"note": 70, "velocity": 127, "duration": 142}, {"note": 0, "velocity": 0, "duration": 98}, {"note": 72, "velocity": 100, "duration": 95}, {"note": 0, "velocity": 0, "duration": 145}, {"note": 70, "velocity": 127, "duration": 118}, {"note": 0, "velocity": 0, "duration": 122}, {"note": 67, "velocity": 102, "duration": 602}, {"note": 0, "velocity": 0, "duration": 358}, {"note": 65, "velocity": 112, "duration": 113}, {"note": 0, "velocity": 0, "duration": 127}, {"note": 67, "velocity": 99, "duration": 87}, {"note": 0, "velocity": 0, "duration": 153}, {"note": 65, "velocity": 107, "duration": 105}, {"note": 0, "velocity": 0, "duration": 135}, {"note": 65, "velocity": 122, "duration": 224}, {"note": 0, "velocity": 0, "duration": 256}, {"note": 62, "velocity": 97, "duration": 101}, {"note": 0, "velocity": 0, "duration": 139}, {"note": 62, "velocity": 107, "duration": 188}, {"note": 0, "velocity": 0, "duration": 172}, {"note": 58, "velocity": 102, "duration": 94}, {"note": 60, "velocity": 102, "duration": 282}, {"note": 0, "velocity": 0, "duration": 78}, {"note": 62, "velocity": 122, "duration": 462}, {"note": 58, "velocity": 100, "duration": 1259}, {"note": 0, "velocity": 0, "duration": 901}, {"note": 70, "velocity": 127, "duration": 209}, {"note": 72, "velocity": 117, "duration": 132}, {"note": 0, "velocity": 0, "duration": 108}, {"note": 74, "velocity": 127, "duration": 1920}, {"note": 0, "velocity": 0, "duration": 480}, {"note": 70, "velocity": 117, "duration": 238}, {"note": 72, "velocity": 99, "duration": 196}, {"note": 74, "velocity": 102, "duration": 212}, {"note": 0, "velocity": 0, "duration": 148}, {"note": 74, "velocity": 112, "duration": 389}, {"note": 69, "velocity": 117, "duration": 78}, {"note": 0, "velocity": 0, "duration": 162}, {"note": 67, "velocity": 117, "duration": 87}, {"note": 0, "velocity": 0, "duration": 153}, {"note": 69, "velocity": 117, "duration": 207}, {"note": 67, "velocity": 117, "duration": 172}, {"note": 0, "velocity": 0, "duration": 68}, {"note": 65, "velocity": 102, "duration": 176}, {"note": 0, "velocity": 0, "duration": 64}, {"note": 67, "velocity": 107, "duration": 361}, {"note": 0, "velocity": 0, "duration": 119}, {"note": 67, "velocity": 107, "duration": 147}, {"note": 0, "velocity": 0, "duration": 93}, {"note": 70, "velocity": 127, "duration": 99}, {"note": 0, "velocity": 0, "duration": 141}, {"note": 72, "velocity": 127, "duration": 154}, {"note": 0, "velocity": 0, "duration": 206}, {"note": 72, "velocity": 112, "duration": 66}, {"note": 72, "velocity": 122, "duration": 177}, {"note": 0, "velocity": 0, "duration": 63}, {"note": 69, "velocity": 107, "duration": 95}, {"note": 0, "velocity": 0, "duration": 145}, {"note": 67, "velocity": 117, "duration": 144}, {"note": 0, "velocity": 0, "duration": 96}, {"note": 67, "velocity": 112, "duration": 98}, {"note": 69, "velocity": 90, "duration": 123}, {"note": 67, "velocity": 112, "duration": 210}, {"note": 62, "velocity": 100, "duration": 159}, {"note": 0, "velocity": 0, "duration": 81}, {"note": 65, "velocity": 102, "duration": 274}, {"note": 67, "velocity": 97, "duration": 261}, {"note": 65, "velocity": 100, "duration": 647}, {"note": 0, "velocity": 0, "duration": 313}, {"note": 70, "velocity": 127, "duration": 209}, {"note": 72, "velocity": 117, "duration": 132}, {"note": 0, "velocity": 0, "duration": 108}, {"note": 74, "velocity": 127, "duration": 1768}, {"note": 0, "velocity": 0, "duration": 632}, {"note": 70, "velocity": 117, "duration": 238}, {"note": 72, "velocity": 99, "duration": 196}, {"note": 74, "velocity": 102, "duration": 212}, {"note": 0, "velocity": 0, "duration": 148}, {"note": 74, "velocity": 112, "duration": 389}, {"note": 69, "velocity": 117, "duration": 78}, {"note": 0, "velocity": 0, "duration": 162}, {"note": 67, "velocity": 117, "duration": 87}, {"note": 0, "velocity": 0, "duration": 153}, {"note": 69, "velocity": 117, "duration": 207}, {"note": 67, "velocity": 117, "duration": 172}, {"note": 0, "velocity": 0, "duration": 68}, {"note": 65, "velocity": 102, "duration": 176}, {"note": 0, "velocity": 0, "duration": 64}, {"note": 67, "velocity": 107, "duration": 361}, {"note": 0, "velocity": 0, "duration": 119}, {"note": 67, "velocity": 107, "duration": 147}, {"note": 0, "velocity": 0, "duration": 93}, {"note": 70, "velocity": 127, "duration": 99}, {"note": 0, "velocity": 0, "duration": 141}, {"note": 72, "velocity": 127, "duration": 154}, {"note": 0, "velocity": 0, "duration": 206}, {"note": 72, "velocity": 112, "duration": 66}, {"note": 72, "velocity": 122, "duration": 177}, {"note": 0, "velocity": 0, "duration": 63}, {"note": 69, "velocity": 107, "duration": 95}, {"note": 0, "velocity": 0, "duration": 145}, {"note": 67, "velocity": 117, "duration": 144}, {"note": 0, "velocity": 0, "duration": 96}, {"note": 67, "velocity": 112, "duration": 102}, {"note": 62, "velocity": 93, "duration": 107}, {"note": 65, "velocity": 107, "duration": 164}, {"note": 0, "velocity": 0, "duration": 76}, {"note": 67, "velocity": 102, "duration": 219}, {"note": 70, "velocity": 122, "duration": 1405}, {"note": 0, "velocity": 0, "duration": 23555}, {"note": 58, "velocity": 117, "duration": 599}, {"note": 0, "velocity": 0, "duration": 121}, {"note": 60, "velocity": 95, "duration": 143}, {"note": 0, "velocity": 0, "duration": 97}, {"note": 62, "velocity": 97, "duration": 249}, {"note": 65, "velocity": 90, "duration": 488}, {"note": 62, "velocity": 100, "duration": 243}, {"note": 60, "velocity": 93, "duration": 248}, {"note": 58, "velocity": 95, "duration": 170}, {"note": 0, "velocity": 0, "duration": 70}, {"note": 58, "velocity": 93, "duration": 704}, {"note": 0, "velocity": 0, "duration": 736}, {"note": 62, "velocity": 112, "duration": 505}, {"note": 0, "velocity": 0, "duration": 215}, {"note": 65, "velocity": 112, "duration": 195}, {"note": 67, "velocity": 96, "duration": 203}, {"note": 70, "velocity": 102, "duration": 361}, {"note": 0, "velocity": 0, "duration": 119}, {"note": 67, "velocity": 102, "duration": 157}, {"note": 0, "velocity": 0, "duration": 83}, {"note": 67, "velocity": 99, "duration": 269}, {"note": 0, "velocity": 0, "duration": 211}, {"note": 65, "velocity": 112, "duration": 602}, {"note": 0, "velocity": 0, "duration": 838}, {"note": 67, "velocity": 112, "duration": 575}, {"note": 0, "velocity": 0, "duration": 145}, {"note": 70, "velocity": 127, "duration": 184}, {"note": 72, "velocity": 112, "duration": 405}, {"note": 0, "velocity": 0, "duration": 315}, {"note": 70, "velocity": 127, "duration": 142}, {"note": 0, "velocity": 0, "duration": 98}, {"note": 72, "velocity": 100, "duration": 95}, {"note": 0, "velocity": 0, "duration": 145}, {"note": 70, "velocity": 127, "duration": 118}, {"note": 0, "velocity": 0, "duration": 122}, {"note": 67, "velocity": 102, "duration": 602}, {"note": 0, "velocity": 0, "duration": 358}, {"note": 65, "velocity": 112, "duration": 113}, {"note": 0, "velocity": 0, "duration": 127}, {"note": 67, "velocity": 99, "duration": 87}, {"note": 0, "velocity": 0, "duration": 153}, {"note": 65, "velocity": 107, "duration": 105}, {"note": 0, "velocity": 0, "duration": 135}, {"note": 65, "velocity": 122, "duration": 224}, {"note": 0, "velocity": 0, "duration": 256}, {"note": 62, "velocity": 97, "duration": 101}, {"note": 0, "velocity": 0, "duration": 139}, {"note": 62, "velocity": 107, "duration": 319}, {"note": 0, "velocity": 0, "duration": 161}, {"note": 60, "velocity": 117, "duration": 271}, {"note": 62, "velocity": 93, "duration": 240}, {"note": 60, "velocity": 100, "duration": 1233}, {"note": 0, "velocity": 0, "duration": 687}, {"note": 58, "velocity": 107, "duration": 89}, {"note": 0, "velocity": 0, "duration": 151}, {"note": 58, "velocity": 112, "duration": 277}, {"note": 0, "velocity": 0, "duration": 203}, {"note": 60, "velocity": 96, "duration": 122}, {"note": 0, "velocity": 0, "duration": 118}, {"note": 62, "velocity": 99, "duration": 177}, {"note": 0, "velocity": 0, "duration": 63}, {"note": 65, "velocity": 97, "duration": 369}, {"note": 0, "velocity": 0, "duration": 111}, {"note": 62, "velocity": 100, "duration": 85}, {"note": 0, "velocity": 0, "duration": 155}, {"note": 60, "velocity": 102, "duration": 214}, {"note": 58, "velocity": 96, "duration": 94}, {"note": 0, "velocity": 0, "duration": 146}, {"note": 58, "velocity": 112, "duration": 707}, {"note": 0, "velocity": 0, "duration": 733}, {"note": 62, "velocity": 112, "duration": 148}, {"note": 0, "velocity": 0, "duration": 92}, {"note": 62, "velocity": 102, "duration": 406}, {"note": 0, "velocity": 0, "duration": 74}, {"note": 65, "velocity": 112, "duration": 195}, {"note": 67, "velocity": 96, "duration": 203}, {"note": 70, "velocity": 102, "duration": 361}, {"note": 0, "velocity": 0, "duration": 119}, {"note": 67, "velocity": 102, "duration": 157}, {"note": 0, "velocity": 0, "duration": 83}, {"note": 67, "velocity": 99, "duration": 269}, {"note": 0, "velocity": 0, "duration": 211}, {"note": 65, "velocity": 112, "duration": 1108}, {"note": 0, "velocity": 0, "duration": 332}, {"note": 67, "velocity": 112, "duration": 168}, {"note": 0, "velocity": 0, "duration": 72}, {"note": 67, "velocity": 127, "duration": 291}, {"note": 0, "velocity": 0, "duration": 189}, {"note": 70, "velocity": 127, "duration": 184}, {"note": 72, "velocity": 112, "duration": 405}, {"note": 0, "velocity": 0, "duration": 315}, {"note": 70, "velocity": 127, "duration": 142}, {"note": 0, "velocity": 0, "duration": 98}, {"note": 72, "velocity": 100, "duration": 95}, {"note": 0, "velocity": 0, "duration": 145}, {"note": 70, "velocity": 127, "duration": 118}, {"note": 0, "velocity": 0, "duration": 122}, {"note": 67, "velocity": 102, "duration": 602}, {"note": 0, "velocity": 0, "duration": 358}, {"note": 65, "velocity": 112, "duration": 113}, {"note": 0, "velocity": 0, "duration": 127}, {"note": 67, "velocity": 99, "duration": 87}, {"note": 0, "velocity": 0, "duration": 153}, {"note": 65, "velocity": 107, "duration": 105}, {"note": 0, "velocity": 0, "duration": 135}, {"note": 65, "velocity": 122, "duration": 224}, {"note": 0, "velocity": 0, "duration": 256}, {"note": 62, "velocity": 97, "duration": 101}, {"note": 0, "velocity": 0, "duration": 139}, {"note": 62, "velocity": 107, "duration": 188}, {"note": 0, "velocity": 0, "duration": 172}, {"note": 58, "velocity": 102, "duration": 94}, {"note": 60, "velocity": 102, "duration": 282}, {"note": 0, "velocity": 0, "duration": 78}, {"note": 62, "velocity": 122, "duration": 462}, {"note": 58, "velocity": 100, "duration": 1259}, {"note": 0, "velocity": 0, "duration": 901}, {"note": 70, "velocity": 127, "duration": 209}, {"note": 72, "velocity": 117, "duration": 132}, {"note": 0, "velocity": 0, "duration": 108}, {"note": 74, "velocity": 127, "duration": 1920}, {"note": 0, "velocity": 0, "duration": 480}, {"note": 70, "velocity": 117, "duration": 238}, {"note": 72, "velocity": 99, "duration": 196}, {"note": 74, "velocity": 102, "duration": 212}, {"note": 0, "velocity": 0, "duration": 148}, {"note": 74, "velocity": 112, "duration": 389}, {"note": 69, "velocity": 117, "duration": 78}, {"note": 0, "velocity": 0, "duration": 162}, {"note": 67, "velocity": 117, "duration": 87}, {"note": 0, "velocity": 0, "duration": 153}, {"note": 69, "velocity": 117, "duration": 207}, {"note": 67, "velocity": 117, "duration": 172}, {"note": 0, "velocity": 0, "duration": 68}, {"note": 65, "velocity": 102, "duration": 176}, {"note": 0, "velocity": 0, "duration": 64}, {"note": 67, "velocity": 107, "duration": 361}, {"note": 0, "velocity": 0, "duration": 119}, {"note": 67, "velocity": 107, "duration": 147}, {"note": 0, "velocity": 0, "duration": 93}, {"note": 70, "velocity": 127, "duration": 99}, {"note": 0, "velocity": 0, "duration": 141}, {"note": 72, "velocity": 127, "duration": 154}, {"note": 0, "velocity": 0, "duration": 206}, {"note": 72, "velocity": 112, "duration": 66}, {"note": 72, "velocity": 122, "duration": 177}, {"note": 0, "velocity": 0, "duration": 63}, {"note": 69, "velocity": 107, "duration": 95}, {"note": 0, "velocity": 0, "duration": 145}, {"note": 67, "velocity": 117, "duration": 144}, {"note": 0, "velocity": 0, "duration": 96}, {"note": 67, "velocity": 112, "duration": 98}, {"note": 69, "velocity": 90, "duration": 123}, {"note": 67, "velocity": 112, "duration": 210}, {"note": 62, "velocity": 100, "duration": 159}, {"note": 0, "velocity": 0, "duration": 81}, {"note": 65, "velocity": 102, "duration": 274}, {"note": 67, "velocity": 97, "duration": 261}, {"note": 65, "velocity": 100, "duration": 647}, {"note": 0, "velocity": 0, "duration": 313}, {"note": 70, "velocity": 127, "duration": 209}, {"note": 72, "velocity": 117, "duration": 132}, {"note": 0, "velocity": 0, "duration": 108}, {"note": 74, "velocity": 127, "duration": 1768}, {"note": 0, "velocity": 0, "duration": 632}, {"note": 70, "velocity": 117, "duration": 238}, {"note": 72, "velocity": 99, "duration": 196}, {"note": 74, "velocity": 102, "duration": 212}, {"note": 0, "velocity": 0, "duration": 148}, {"note": 74, "velocity": 112, "duration": 389}, {"note": 69, "velocity": 117, "duration": 78}, {"note": 0, "velocity": 0, "duration": 162}, {"note": 67, "velocity": 117, "duration": 87}, {"note": 0, "velocity": 0, "duration": 153}, {"note": 69, "velocity": 117, "duration": 207}, {"note": 67, "velocity": 117, "duration": 172}, {"note": 0, "velocity": 0, "duration": 68}, {"note": 65, "velocity": 102, "duration": 176}, {"note": 0, "velocity": 0, "duration": 64}, {"note": 67, "velocity": 107, "duration": 361}, {"note": 0, "velocity": 0, "duration": 119}, {"note": 67, "velocity": 107, "duration": 147}, {"note": 0, "velocity": 0, "duration": 93}, {"note": 70, "velocity": 127, "duration": 99}, {"note": 0, "velocity": 0, "duration": 141}, {"note": 72, "velocity": 127, "duration": 154}, {"note": 0, "velocity": 0, "duration": 206}, {"note": 72, "velocity": 112, "duration": 66}, {"note": 72, "velocity": 122, "duration": 177}, {"note": 0, "velocity": 0, "duration": 63}, {"note": 69, "velocity": 107, "duration": 95}, {"note": 0, "velocity": 0, "duration": 145}, {"note": 67, "velocity": 117, "duration": 144}, {"note": 0, "velocity": 0, "duration": 96}, {"note": 67, "velocity": 112, "duration": 102}, {"note": 62, "velocity": 93, "duration": 107}, {"note": 65, "velocity": 107, "duration": 164}, {"note": 0, "velocity": 0, "duration": 76}, {"note": 67, "velocity": 102, "duration": 219}, {"note": 70, "velocity": 122, "duration": 1405}, {"note": 0, "velocity": 0, "duration": 995}, {"note": 70, "velocity": 127, "duration": 221}, {"note": 72, "velocity": 102, "duration": 241}, {"note": 74, "velocity": 102, "duration": 178}, {"note": 0, "velocity": 0, "duration": 62}, {"note": 74, "velocity": 102, "duration": 1886}, {"note": 0, "velocity": 0, "duration": 274}, {"note": 67, "velocity": 112, "duration": 227}, {"note": 70, "velocity": 107, "duration": 229}, {"note": 72, "velocity": 102, "duration": 198}, {"note": 72, "velocity": 107, "duration": 1190}, {"note": 0, "velocity": 0, "duration": 970}, {"note": 70, "velocity": 127, "duration": 209}, {"note": 72, "velocity": 112, "duration": 254}, {"note": 74, "velocity": 122, "duration": 175}, {"note": 0, "velocity": 0, "duration": 65}, {"note": 74, "velocity": 112, "duration": 1513}, {"note": 0, "velocity": 0, "duration": 647}, {"note": 65, "velocity": 102, "duration": 264}, {"note": 67, "velocity": 96, "duration": 245}, {"note": 70, "velocity": 117, "duration": 2265}]]