[[{"note": 66, "velocity": 85, "duration": 153}, {"note": 0, "velocity": 0, "duration": 87}, {"note": 66, "velocity": 93, "duration": 150}, {"note": 0, "velocity": 0, "duration": 90}, {"note": 68, "velocity": 95, "duration": 148}, {"note": 0, "velocity": 0, "duration": 92}, {"note": 70, "velocity": 107, "duration": 133}, {"note": 0, "velocity": 0, "duration": 107}, {"note": 70, "velocity": 100, "duration": 89}, {"note": 0, "velocity": 0, "duration": 151}, {"note": 68, "velocity": 100, "duration": 122}, {"note": 0, "velocity": 0, "duration": 118}, {"note": 70, "velocity": 122, "duration": 380}, {"note": 0, "velocity": 0, "duration": 580}, {"note": 66, "velocity": 99, "duration": 92}, {"note": 63, "velocity": 83, "duration": 40}, {"note": 0, "velocity": 0, "duration": 80}, {"note": 63, "velocity": 112, "duration": 253}, {"note": 66, "velocity": 90, "duration": 54}, {"note": 0, "velocity": 0, "duration": 186}, {"note": 68, "velocity": 107, "duration": 220}, {"note": 63, "velocity": 102, "duration": 759}, {"note": 0, "velocity": 0, "duration": 201}, {"note": 66, "velocity": 92, "duration": 102}, {"note": 68, "velocity": 65, "duration": 153}, {"note": 70, "velocity": 107, "duration": 182}, {"note": 70, "velocity": 117, "duration": 149}, {"note": 0, "velocity": 0, "duration": 331}, {"note": 70, "velocity": 122, "duration": 117}, {"note": 68, "velocity": 97, "duration": 45}, {"note": 0, "velocity": 0, "duration": 75}, {"note": 68, "velocity": 96, "duration": 135}, {"note": 0, "velocity": 0, "duration": 105}, {"note": 66, "velocity": 100, "duration": 178}, {"note": 0, "velocity": 0, "duration": 62}, {"note": 68, "velocity": 107, "duration": 106}, {"note": 0, "velocity": 0, "duration": 134}, {"note": 70, "velocity": 102, "duration": 151}, {"note": 0, "velocity": 0, "duration": 89}, {"note": 73, "velocity": 122, "duration": 502}, {"note": 0, "velocity": 0, "duration": 698}, {"note": 70, "velocity": 102, "duration": 103}, {"note": 0, "velocity": 0, "duration": 137}, {"note": 70, "velocity": 102, "duration": 94}, {"note": 0, "velocity": 0, "duration": 146}, {"note": 73, "velocity": 112, "duration": 136}, {"note": 0, "velocity": 0, "duration": 104}, {"note": 75, "velocity": 127, "duration": 214}, {"note": 75, "velocity": 127, "duration": 127}, {"note": 0, "velocity": 0, "duration": 113}, {"note": 73, "velocity": 112, "duration": 130}, {"note": 0, "velocity": 0, "duration": 110}, {"note": 70, "velocity": 102, "duration": 211}, {"note": 0, "velocity": 0, "duration": 269}, {"note": 70, "velocity": 96, "duration": 129}, {"note": 0, "velocity": 0, "duration": 111}, {"note": 70, "velocity": 107, "duration": 146}, {"note": 0, "velocity": 0, "duration": 94}, {"note": 75, "velocity": 117, "duration": 172}, {"note": 0, "velocity": 0, "duration": 68}, {"note": 73, "velocity": 117, "duration": 147}, {"note": 0, "velocity": 0, "duration": 93}, {"note": 73, "velocity": 117, "duration": 91}, {"note": 0, "velocity": 0, "duration": 149}, {"note": 70, "velocity": 107, "duration": 134}, {"note": 0, "velocity": 0, "duration": 106}, {"note": 68, "velocity": 95, "duration": 106}, {"note": 66, "velocity": 78, "duration": 356}, {"note": 0, "velocity": 0, "duration": 484}, {"note": 70, "velocity": 117, "duration": 76}, {"note": 68, "velocity": 88, "duration": 69}, {"note": 66, "velocity": 97, "duration": 132}, {"note": 0, "velocity": 0, "duration": 108}, {"note": 66, "velocity": 100, "duration": 198}, {"note": 0, "velocity": 0, "duration": 282}, {"note": 66, "velocity": 93, "duration": 83}, {"note": 61, "velocity": 79, "duration": 85}, {"note": 70, "velocity": 102, "duration": 115}, {"note": 0, "velocity": 0, "duration": 125}, {"note": 68, "velocity": 112, "duration": 140}, {"note": 66, "velocity": 100, "duration": 100}, {"note": 66, "velocity": 100, "duration": 52}, {"note": 0, "velocity": 0, "duration": 68}, {"note": 68, "velocity": 99, "duration": 292}, {"note": 0, "velocity": 0, "duration": 68}, {"note": 66, "velocity": 99, "duration": 740}, {"note": 0, "velocity": 0, "duration": 1180}, {"note": 70, "velocity": 100, "duration": 85}, {"note": 73, "velocity": 112, "duration": 73}, {"note": 0, "velocity": 0, "duration": 167}, {"note": 73, "velocity": 99, "duration": 61}, {"note": 73, "velocity": 107, "duration": 187}, {"note": 70, "velocity": 95, "duration": 237}, {"note": 75, "velocity": 127, "duration": 565}, {"note": 0, "velocity": 0, "duration": 395}, {"note": 75, "velocity": 117, "duration": 67}, {"note": 78, "velocity": 102, "duration": 107}, {"note": 0, "velocity": 0, "duration": 133}, {"note": 78, "velocity": 107, "duration": 48}, {"note": 0, "velocity": 0, "duration": 72}, {"note": 78, "velocity": 117, "duration": 100}, {"note": 0, "velocity": 0, "duration": 140}, {"note": 75, "velocity": 127, "duration": 151}, {"note": 0, "velocity": 0, "duration": 89}, {"note": 73, "velocity": 127, "duration": 185}, {"note": 70, "velocity": 100, "duration": 310}, {"note": 0, "velocity": 0, "duration": 410}, {"note": 63, "velocity": 97, "duration": 125}, {"note": 78, "velocity": 122, "duration": 135}, {"note": 0, "velocity": 0, "duration": 105}, {"note": 78, "velocity": 107, "duration": 55}, {"note": 0, "velocity": 0, "duration": 65}, {"note": 78, "velocity": 122, "duration": 131}, {"note": 0, "velocity": 0, "duration": 109}, {"note": 75, "velocity": 127, "duration": 103}, {"note": 0, "velocity": 0, "duration": 137}, {"note": 75, "velocity": 127, "duration": 187}, {"note": 73, "velocity": 127, "duration": 192}, {"note": 75, "velocity": 127, "duration": 134}, {"note": 0, "velocity": 0, "duration": 106}, {"note": 73, "velocity": 96, "duration": 145}, {"note": 0, "velocity": 0, "duration": 95}, {"note": 70, "velocity": 102, "duration": 515}, {"note": 0, "velocity": 0, "duration": 925}, {"note": 70, "velocity": 107, "duration": 164}, {"note": 0, "velocity": 0, "duration": 76}, {"note": 68, "velocity": 112, "duration": 191}, {"note": 66, "velocity": 112, "duration": 150}, {"note": 0, "velocity": 0, "duration": 90}, {"note": 66, "velocity": 97, "duration": 174}, {"note": 0, "velocity": 0, "duration": 66}, {"note": 68, "velocity": 127, "duration": 256}, {"note": 66, "velocity": 102, "duration": 537}, {"note": 0, "velocity": 0, "duration": 183}, {"note": 63, "velocity": 117, "duration": 175}, {"note": 0, "velocity": 0, "duration": 65}, {"note": 61, "velocity": 107, "duration": 177}, {"note": 0, "velocity": 0, "duration": 63}, {"note": 73, "velocity": 127, "duration": 168}, {"note": 0, "velocity": 0, "duration": 72}, {"note": 73, "velocity": 127, "duration": 178}, {"note": 0, "velocity": 0, "duration": 62}, {"note": 75, "velocity": 127, "duration": 150}, {"note": 0, "velocity": 0, "duration": 90}, {"note": 70, "velocity": 112, "duration": 120}, {"note": 68, "velocity": 82, "duration": 152}, {"note": 70, "velocity": 117, "duration": 484}, {"note": 0, "velocity": 0, "duration": 476}, {"note": 68, "velocity": 112, "duration": 145}, {"note": 0, "velocity": 0, "duration": 95}, {"note": 66, "velocity": 92, "duration": 162}, {"note": 0, "velocity": 0, "duration": 78}, {"note": 68, "velocity": 99, "duration": 150}, {"note": 0, "velocity": 0, "duration": 90}, {"note": 70, "velocity": 112, "duration": 166}, {"note": 0, "velocity": 0, "duration": 74}, {"note": 68, "velocity": 102, "duration": 178}, {"note": 0, "velocity": 0, "duration": 62}, {"note": 66, "velocity": 102, "duration": 241}, {"note": 63, "velocity": 112, "duration": 146}, {"note": 0, "velocity": 0, "duration": 94}, {"note": 68, "velocity": 107, "duration": 344}, {"note": 0, "velocity": 0, "duration": 136}, {"note": 66, "velocity": 107, "duration": 657}, {"note": 0, "velocity": 0, "duration": 7983}, {"note": 66, "velocity": 85, "duration": 153}, {"note": 0, "velocity": 0, "duration": 87}, {"note": 66, "velocity": 93, "duration": 150}, {"note": 0, "velocity": 0, "duration": 90}, {"note": 68, "velocity": 95, "duration": 148}, {"note": 0, "velocity": 0, "duration": 92}, {"note": 70, "velocity": 107, "duration": 133}, {"note": 0, "velocity": 0, "duration": 107}, {"note": 70, "velocity": 100, "duration": 89}, {"note": 0, "velocity": 0, "duration": 151}, {"note": 68, "velocity": 100, "duration": 122}, {"note": 0, "velocity": 0, "duration": 118}, {"note": 70, "velocity": 122, "duration": 380}, {"note": 0, "velocity": 0, "duration": 580}, {"note": 66, "velocity": 99, "duration": 92}, {"note": 63, "velocity": 83, "duration": 40}, {"note": 0, "velocity": 0, "duration": 80}, {"note": 63, "velocity": 112, "duration": 253}, {"note": 66, "velocity": 90, "duration": 54}, {"note": 0, "velocity": 0, "duration": 186}, {"note": 68, "velocity": 107, "duration": 220}, {"note": 63, "velocity": 102, "duration": 759}, {"note": 0, "velocity": 0, "duration": 201}, {"note": 66, "velocity": 92, "duration": 102}, {"note": 68, "velocity": 65, "duration": 153}, {"note": 70, "velocity": 107, "duration": 182}, {"note": 70, "velocity": 117, "duration": 149}, {"note": 0, "velocity": 0, "duration": 331}, {"note": 70, "velocity": 122, "duration": 117}, {"note": 68, "velocity": 97, "duration": 45}, {"note": 0, "velocity": 0, "duration": 75}, {"note": 68, "velocity": 96, "duration": 135}, {"note": 0, "velocity": 0, "duration": 105}, {"note": 66, "velocity": 100, "duration": 178}, {"note": 0, "velocity": 0, "duration": 62}, {"note": 68, "velocity": 107, "duration": 106}, {"note": 0, "velocity": 0, "duration": 134}, {"note": 70, "velocity": 102, "duration": 151}, {"note": 0, "velocity": 0, "duration": 89}, {"note": 73, "velocity": 122, "duration": 502}, {"note": 0, "velocity": 0, "duration": 698}, {"note": 70, "velocity": 102, "duration": 103}, {"note": 0, "velocity": 0, "duration": 137}, {"note": 70, "velocity": 102, "duration": 94}, {"note": 0, "velocity": 0, "duration": 146}, {"note": 73, "velocity": 112, "duration": 136}, {"note": 0, "velocity": 0, "duration": 104}, {"note": 75, "velocity": 127, "duration": 214}, {"note": 75, "velocity": 127, "duration": 127}, {"note": 0, "velocity": 0, "duration": 113}, {"note": 73, "velocity": 112, "duration": 130}, {"note": 0, "velocity": 0, "duration": 110}, {"note": 70, "velocity": 102, "duration": 211}, {"note": 0, "velocity": 0, "duration": 269}, {"note": 70, "velocity": 96, "duration": 129}, {"note": 0, "velocity": 0, "duration": 111}, {"note": 70, "velocity": 107, "duration": 146}, {"note": 0, "velocity": 0, "duration": 94}, {"note": 75, "velocity": 117, "duration": 172}, {"note": 0, "velocity": 0, "duration": 68}, {"note": 73, "velocity": 117, "duration": 147}, {"note": 0, "velocity": 0, "duration": 93}, {"note": 73, "velocity": 117, "duration": 91}, {"note": 0, "velocity": 0, "duration": 149}, {"note": 70, "velocity": 107, "duration": 134}, {"note": 0, "velocity": 0, "duration": 106}, {"note": 68, "velocity": 95, "duration": 106}, {"note": 66, "velocity": 78, "duration": 356}, {"note": 0, "velocity": 0, "duration": 484}, {"note": 70, "velocity": 117, "duration": 76}, {"note": 68, "velocity": 88, "duration": 69}, {"note": 66, "velocity": 97, "duration": 132}, {"note": 0, "velocity": 0, "duration": 108}, {"note": 66, "velocity": 100, "duration": 198}, {"note": 0, "velocity": 0, "duration": 282}, {"note": 66, "velocity": 93, "duration": 83}, {"note": 61, "velocity": 79, "duration": 85}, {"note": 70, "velocity": 102, "duration": 115}, {"note": 0, "velocity": 0, "duration": 125}, {"note": 68, "velocity": 112, "duration": 140}, {"note": 66, "velocity": 100, "duration": 100}, {"note": 66, "velocity": 100, "duration": 52}, {"note": 0, "velocity": 0, "duration": 68}, {"note": 68, "velocity": 99, "duration": 292}, {"note": 0, "velocity": 0, "duration": 68}, {"note": 66, "velocity": 99, "duration": 740}, {"note": 0, "velocity": 0, "duration": 2380}, {"note": 66, "velocity": 85, "duration": 153}, {"note": 0, "velocity": 0, "duration": 87}, {"note": 66, "velocity": 93, "duration": 150}, {"note": 0, "velocity": 0, "duration": 90}, {"note": 68, "velocity": 95, "duration": 148}, {"note": 0, "velocity": 0, "duration": 92}, {"note": 70, "velocity": 107, "duration": 133}, {"note": 0, "velocity": 0, "duration": 107}, {"note": 70, "velocity": 100, "duration": 89}, {"note": 0, "velocity": 0, "duration": 151}, {"note": 68, "velocity": 100, "duration": 122}, {"note": 0, "velocity": 0, "duration": 118}, {"note": 70, "velocity": 122, "duration": 380}, {"note": 0, "velocity": 0, "duration": 580}, {"note": 66, "velocity": 99, "duration": 92}, {"note": 63, "velocity": 83, "duration": 40}, {"note": 0, "velocity": 0, "duration": 80}, {"note": 63, "velocity": 112, "duration": 253}, {"note": 66, "velocity": 90, "duration": 54}, {"note": 0, "velocity": 0, "duration": 186}, {"note": 68, "velocity": 107, "duration": 220}, {"note": 63, "velocity": 102, "duration": 759}, {"note": 0, "velocity": 0, "duration": 201}, {"note": 66, "velocity": 92, "duration": 102}, {"note": 68, "velocity": 65, "duration": 153}, {"note": 70, "velocity": 107, "duration": 182}, {"note": 70, "velocity": 117, "duration": 149}, {"note": 0, "velocity": 0, "duration": 331}, {"note": 70, "velocity": 122, "duration": 117}, {"note": 68, "velocity": 97, "duration": 45}, {"note": 0, "velocity": 0, "duration": 75}, {"note": 68, "velocity": 96, "duration": 135}, {"note": 0, "velocity": 0, "duration": 105}, {"note": 66, "velocity": 100, "duration": 178}, {"note": 0, "velocity": 0, "duration": 62}, {"note": 68, "velocity": 107, "duration": 106}, {"note": 0, "velocity": 0, "duration": 134}, {"note": 70, "velocity": 102, "duration": 151}, {"note": 0, "velocity": 0, "duration": 89}, {"note": 73, "velocity": 122, "duration": 502}, {"note": 0, "velocity": 0, "duration": 698}, {"note": 70, "velocity": 102, "duration": 103}, {"note": 0, "velocity": 0, "duration": 137}, {"note": 70, "velocity": 102, "duration": 94}, {"note": 0, "velocity": 0, "duration": 146}, {"note": 73, "velocity": 112, "duration": 136}, {"note": 0, "velocity": 0, "duration": 104}, {"note": 75, "velocity": 127, "duration": 214}, {"note": 75, "velocity": 127, "duration": 127}, {"note": 0, "velocity": 0, "duration": 113}, {"note": 73, "velocity": 112, "duration": 130}, {"note": 0, "velocity": 0, "duration": 110}, {"note": 70, "velocity": 102, "duration": 211}, {"note": 0, "velocity": 0, "duration": 269}, {"note": 70, "velocity": 96, "duration": 129}, {"note": 0, "velocity": 0, "duration": 111}, {"note": 70, "velocity": 107, "duration": 146}, {"note": 0, "velocity": 0, "duration": 94}, {"note": 75, "velocity": 117, "duration": 172}, {"note": 0, "velocity": 0, "duration": 68}, {"note": 73, "velocity": 117, "duration": 147}, {"note": 0, "velocity": 0, "duration": 93}, {"note": 73, "velocity": 117, "duration": 91}, {"note": 0, "velocity": 0, "duration": 149}, {"note": 70, "velocity": 107, "duration": 134}, {"note": 0, "velocity": 0, "duration": 106}, {"note": 68, "velocity": 95, "duration": 106}, {"note": 66, "velocity": 78, "duration": 356}, {"note": 0, "velocity": 0, "duration": 484}, {"note": 70, "velocity": 117, "duration": 76}, {"note": 68, "velocity": 88, "duration": 69}, {"note": 66, "velocity": 97, "duration": 132}, {"note": 0, "velocity": 0, "duration": 108}, {"note": 66, "velocity": 100, "duration": 198}, {"note": 0, "velocity": 0, "duration": 282}, {"note": 66, "velocity": 93, "duration": 83}, {"note": 61, "velocity": 79, "duration": 85}, {"note": 70, "velocity": 102, "duration": 115}, {"note": 0, "velocity": 0, "duration": 125}, {"note": 68, "velocity": 112, "duration": 140}, {"note": 66, "velocity": 100, "duration": 100}, {"note": 66, "velocity": 100, "duration": 52}, {"note": 0, "velocity": 0, "duration": 68}, {"note": 68, "velocity": 99, "duration": 292}, {"note": 0, "velocity": 0, "duration": 68}, {"note": 66, "velocity": 99, "duration": 740}, {"note": 0, "velocity": 0, "duration": 3100}, {"note": 70, "velocity": 100, "duration": 85}, {"note": 73, "velocity": 112, "duration": 73}, {"note": 0, "velocity": 0, "duration": 167}, {"note": 73, "velocity": 99, "duration": 61}, {"note": 73, "velocity": 107, "duration": 187}, {"note": 70, "velocity": 95, "duration": 237}, {"note": 75, "velocity": 127, "duration": 565}, {"note": 0, "velocity": 0, "duration": 155}, {"note": 73, "velocity": 117, "duration": 66}, {"note": 0, "velocity": 0, "duration": 174}, {"note": 75, "velocity": 117, "duration": 67}, {"note": 78, "velocity": 102, "duration": 107}, {"note": 0, "velocity": 0, "duration": 133}, {"note": 78, "velocity": 107, "duration": 48}, {"note": 0, "velocity": 0, "duration": 72}, {"note": 78, "velocity": 117, "duration": 100}, {"note": 0, "velocity": 0, "duration": 140}, {"note": 75, "velocity": 127, "duration": 151}, {"note": 0, "velocity": 0, "duration": 89}, {"note": 73, "velocity": 127, "duration": 185}, {"note": 70, "velocity": 100, "duration": 310}, {"note": 0, "velocity": 0, "duration": 410}, {"note": 63, "velocity": 97, "duration": 125}, {"note": 78, "velocity": 122, "duration": 135}, {"note": 0, "velocity": 0, "duration": 105}, {"note": 78, "velocity": 107, "duration": 55}, {"note": 0, "velocity": 0, "duration": 65}, {"note": 78, "velocity": 122, "duration": 131}, {"note": 0, "velocity": 0, "duration": 109}, {"note": 75, "velocity": 127, "duration": 103}, {"note": 0, "velocity": 0, "duration": 137}, {"note": 75, "velocity": 127, "duration": 187}, {"note": 73, "velocity": 127, "duration": 192}, {"note": 75, "velocity": 127, "duration": 134}, {"note": 0, "velocity": 0, "duration": 106}, {"note": 73, "velocity": 96, "duration": 145}, {"note": 0, "velocity": 0, "duration": 95}, {"note": 70, "velocity": 102, "duration": 515}, {"note": 0, "velocity": 0, "duration": 925}, {"note": 70, "velocity": 107, "duration": 164}, {"note": 0, "velocity": 0, "duration": 76}, {"note": 68, "velocity": 112, "duration": 191}, {"note": 66, "velocity": 112, "duration": 150}, {"note": 0, "velocity": 0, "duration": 90}, {"note": 66, "velocity": 97, "duration": 174}, {"note": 0, "velocity": 0, "duration": 66}, {"note": 68, "velocity": 127, "duration": 256}, {"note": 66, "velocity": 102, "duration": 537}, {"note": 0, "velocity": 0, "duration": 183}, {"note": 63, "velocity": 117, "duration": 175}, {"note": 0, "velocity": 0, "duration": 65}, {"note": 61, "velocity": 107, "duration": 177}, {"note": 0, "velocity": 0, "duration": 63}, {"note": 73, "velocity": 127, "duration": 168}, {"note": 0, "velocity": 0, "duration": 72}, {"note": 73, "velocity": 127, "duration": 178}, {"note": 0, "velocity": 0, "duration": 62}, {"note": 75, "velocity": 127, "duration": 150}, {"note": 0, "velocity": 0, "duration": 90}, {"note": 70, "velocity": 112, "duration": 120}, {"note": 68, "velocity": 82, "duration": 152}, {"note": 70, "velocity": 117, "duration": 484}, {"note": 0, "velocity": 0, "duration": 476}, {"note": 68, "velocity": 112, "duration": 145}, {"note": 0, "velocity": 0, "duration": 95}, {"note": 66, "velocity": 92, "duration": 162}, {"note": 0, "velocity": 0, "duration": 78}, {"note": 68, "velocity": 99, "duration": 150}, {"note": 0, "velocity": 0, "duration": 90}, {"note": 70, "velocity": 112, "duration": 166}, {"note": 0, "velocity": 0, "duration": 74}, {"note": 68, "velocity": 102, "duration": 178}, {"note": 0, "velocity": 0, "duration": 62}, {"note": 66, "velocity": 102, "duration": 241}, {"note": 63, "velocity": 112, "duration": 146}, {"note": 0, "velocity": 0, "duration": 94}, {"note": 66, "velocity": 107, "duration": 240}, {"note": 73, "velocity": 107, "duration": 657}, {"note": 0, "velocity": 0, "duration": 1263}, {"note": 70, "velocity": 100, "duration": 85}, {"note": 73, "velocity": 112, "duration": 73}, {"note": 0, "velocity": 0, "duration": 167}, {"note": 73, "velocity": 99, "duration": 61}, {"note": 73, "velocity": 107, "duration": 187}, {"note": 70, "velocity": 95, "duration": 237}, {"note": 75, "velocity": 127, "duration": 565}, {"note": 0, "velocity": 0, "duration": 395}, {"note": 75, "velocity": 117, "duration": 67}, {"note": 78, "velocity": 102, "duration": 107}, {"note": 0, "velocity": 0, "duration": 133}, {"note": 78, "velocity": 107, "duration": 48}, {"note": 0, "velocity": 0, "duration": 72}, {"note": 78, "velocity": 117, "duration": 100}, {"note": 0, "velocity": 0, "duration": 140}, {"note": 75, "velocity": 127, "duration": 151}, {"note": 0, "velocity": 0, "duration": 89}, {"note": 73, "velocity": 127, "duration": 185}, {"note": 70, "velocity": 100, "duration": 310}, {"note": 0, "velocity": 0, "duration": 410}, {"note": 63, "velocity": 97, "duration": 125}, {"note": 78, "velocity": 122, "duration": 135}, {"note": 0, "velocity": 0, "duration": 105}, {"note": 78, "velocity": 107, "duration": 55}, {"note": 0, "velocity": 0, "duration": 65}, {"note": 78, "velocity": 122, "duration": 131}, {"note": 0, "velocity": 0, "duration": 109}, {"note": 75, "velocity": 127, "duration": 103}, {"note": 0, "velocity": 0, "duration": 137}, {"note": 75, "velocity": 127, "duration": 187}, {"note": 73, "velocity": 127, "duration": 192}, {"note": 75, "velocity": 127, "duration": 134}, {"note": 0, "velocity": 0, "duration": 106}, {"note": 73, "velocity": 96, "duration": 145}, {"note": 0, "velocity": 0, "duration": 95}, {"note": 70, "velocity": 102, "duration": 515}, {"note": 0, "velocity": 0, "duration": 925}, {"note": 70, "velocity": 107, "duration": 164}, {"note": 0, "velocity": 0, "duration": 76}, {"note": 68, "velocity": 112, "duration": 191}, {"note": 66, "velocity": 112, "duration": 150}, {"note": 0, "velocity": 0, "duration": 90}, {"note": 66, "velocity": 97, "duration": 174}, {"note": 0, "velocity": 0, "duration": 66}, {"note": 68, "velocity": 127, "duration": 256}, {"note": 66, "velocity": 102, "duration": 537}, {"note": 0, "velocity": 0, "duration": 183}, {"note": 63, "velocity": 117, "duration": 175}, {"note": 0, "velocity": 0, "duration": 65}, {"note": 61, "velocity": 107, "duration": 177}, {"note": 0, "velocity": 0, "duration": 63}, {"note": 73, "velocity": 127, "duration": 168}, {"note": 0, "velocity": 0, "duration": 72}, {"note": 73, "velocity": 127, "duration": 178}, {"note": 0, "velocity": 0, "duration": 62}, {"note": 75, "velocity": 127, "duration": 150}, {"note": 0, "velocity": 0, "duration": 90}, {"note": 70, "velocity": 112, "duration": 120}, {"note": 68, "velocity": 82, "duration": 152}, {"note": 70, "velocity": 117, "duration": 484}, {"note": 0, "velocity": 0, "duration": 476}, {"note": 68, "velocity": 112, "duration": 145}, {"note": 0, "velocity": 0, "duration": 95}, {"note": 66, "velocity": 92, "duration": 162}, {"note": 0, "velocity": 0, "duration": 78}, {"note": 68, "velocity": 99, "duration": 150}, {"note": 0, "velocity": 0, "duration": 90}, {"note": 70, "velocity": 112, "duration": 166}, {"note": 0, "velocity": 0, "duration": 74}, {"note": 68, "velocity": 102, "duration": 178}, {"note": 0, "velocity": 0, "duration": 62}, {"note": 66, "velocity": 102, "duration": 241}, {"note": 63, "velocity": 112, "duration": 146}, {"note": 0, "velocity": 0, "duration": 94}, {"note": 68, "velocity": 122, "duration": 350}, {"note": 0, "velocity": 0, "duration": 130}, {"note": 66, "velocity": 127, "duration": 1323}, {"note": 0, "velocity": 0, "duration": 7077}, {"note": 70, "velocity": 100, "duration": 85}, {"note": 73, "velocity": 112, "duration": 73}, {"note": 0, "velocity": 0, "duration": 167}, {"note": 73, "velocity": 99, "duration": 61}, {"note": 73, "velocity": 107, "duration": 187}, {"note": 70, "velocity": 95, "duration": 237}, {"note": 75, "velocity": 127, "duration": 565}, {"note": 0, "velocity": 0, "duration": 395}, {"note": 75, "velocity": 117, "duration": 67}, {"note": 78, "velocity": 102, "duration": 107}, {"note": 0, "velocity": 0, "duration": 133}, {"note": 78, "velocity": 107, "duration": 48}, {"note": 0, "velocity": 0, "duration": 72}, {"note": 78, "velocity": 117, "duration": 100}, {"note": 0, "velocity": 0, "duration": 140}, {"note": 75, "velocity": 127, "duration": 151}, {"note": 0, "velocity": 0, "duration": 89}, {"note": 73, "velocity": 127, "duration": 185}, {"note": 70, "velocity": 100, "duration": 310}, {"note": 0, "velocity": 0, "duration": 410}, {"note": 63, "velocity": 97, "duration": 125}, {"note": 78, "velocity": 122, "duration": 135}, {"note": 0, "velocity": 0, "duration": 105}, {"note": 78, "velocity": 107, "duration": 55}, {"note": 0, "velocity": 0, "duration": 65}, {"note": 78, "velocity": 122, "duration": 131}, {"note": 0, "velocity": 0, "duration": 109}, {"note": 75, "velocity": 127, "duration": 103}, {"note": 0, "velocity": 0, "duration": 137}, {"note": 75, "velocity": 127, "duration": 187}, {"note": 73, "velocity": 127, "duration": 192}, {"note": 75, "velocity": 127, "duration": 134}, {"note": 0, "velocity": 0, "duration": 106}, {"note": 73, "velocity": 96, "duration": 145}, {"note": 0, "velocity": 0, "duration": 95}, {"note": 70, "velocity": 102, "duration": 515}, {"note": 0, "velocity": 0, "duration": 925}, {"note": 70, "velocity": 107, "duration": 164}, {"note": 0, "velocity": 0, "duration": 76}, {"note": 68, "velocity": 112, "duration": 191}, {"note": 66, "velocity": 112, "duration": 150}, {"note": 0, "velocity": 0, "duration": 90}, {"note": 66, "velocity": 97, "duration": 174}, {"note": 0, "velocity": 0, "duration": 66}, {"note": 68, "velocity": 127, "duration": 256}, {"note": 66, "velocity": 102, "duration": 537}, {"note": 0, "velocity": 0, "duration": 183}, {"note": 63, "velocity": 117, "duration": 175}, {"note": 0, "velocity": 0, "duration": 65}, {"note": 61, "velocity": 107, "duration": 177}, {"note": 0, "velocity": 0, "duration": 63}, {"note": 73, "velocity": 127, "duration": 168}, {"note": 0, "velocity": 0, "duration": 72}, {"note": 73, "velocity": 127, "duration": 178}, {"note": 0, "velocity": 0, "duration": 62}, {"note": 75, "velocity": 127, "duration": 150}, {"note": 0, "velocity": 0, "duration": 90}, {"note": 70, "velocity": 112, "duration": 120}, {"note": 68, "velocity": 82, "duration": 152}, {"note": 70, "velocity": 117, "duration": 484}, {"note": 0, "velocity": 0, "duration": 476}, {"note": 68, "velocity": 112, "duration": 145}, {"note": 0, "velocity": 0, "duration": 95}, {"note": 66, "velocity": 92, "duration": 162}, {"note": 0, "velocity": 0, "duration": 78}, {"note": 68, "velocity": 99, "duration": 150}, {"note": 0, "velocity": 0, "duration": 90}, {"note": 70, "velocity": 112, "duration": 166}, {"note": 0, "velocity": 0, "duration": 74}, {"note": 68, "velocity": 102, "duration": 178}, {"note": 0, "velocity": 0, "duration": 62}, {"note": 66, "velocity": 102, "duration": 241}, {"note": 63, "velocity": 112, "duration": 146}, {"note": 0, "velocity": 0, "duration": 814}, {"note": 68, "velocity": 100, "duration": 377}, {"note": 0, "velocity": 0, "duration": 103}, {"note": 66, "velocity": 112, "duration": 1594}]]