[[{"note": 64, "velocity": 98, "duration": 79}, {"note": 0, "velocity": 0, "duration": 161}, {"note": 62, "velocity": 100, "duration": 525}, {"note": 0, "velocity": 0, "duration": 195}, {"note": 64, "velocity": 109, "duration": 70}, {"note": 0, "velocity": 0, "duration": 170}, {"note": 62, "velocity": 91, "duration": 593}, {"note": 0, "velocity": 0, "duration": 127}, {"note": 62, "velocity": 103, "duration": 67}, {"note": 0, "velocity": 0, "duration": 173}, {"note": 62, "velocity": 103, "duration": 210}, {"note": 64, "velocity": 75, "duration": 41}, {"note": 0, "velocity": 0, "duration": 199}, {"note": 62, "velocity": 109, "duration": 92}, {"note": 64, "velocity": 111, "duration": 108}, {"note": 67, "velocity": 106, "duration": 176}, {"note": 0, "velocity": 0, "duration": 64}, {"note": 66, "velocity": 109, "duration": 367}, {"note": 0, "velocity": 0, "duration": 353}, {"note": 64, "velocity": 100, "duration": 67}, {"note": 0, "velocity": 0, "duration": 173}, {"note": 62, "velocity": 91, "duration": 545}, {"note": 0, "velocity": 0, "duration": 175}, {"note": 64, "velocity": 103, "duration": 65}, {"note": 0, "velocity": 0, "duration": 175}, {"note": 62, "velocity": 82, "duration": 567}, {"note": 0, "velocity": 0, "duration": 153}, {"note": 62, "velocity": 100, "duration": 98}, {"note": 0, "velocity": 0, "duration": 142}, {"note": 61, "velocity": 91, "duration": 198}, {"note": 62, "velocity": 98, "duration": 84}, {"note": 64, "velocity": 100, "duration": 80}, {"note": 62, "velocity": 88, "duration": 217}, {"note": 61, "velocity": 73, "duration": 204}, {"note": 62, "velocity": 103, "duration": 712}, {"note": 66, "velocity": 115, "duration": 200}, {"note": 64, "velocity": 85, "duration": 209}, {"note": 62, "velocity": 106, "duration": 167}, {"note": 0, "velocity": 0, "duration": 73}, {"note": 61, "velocity": 95, "duration": 192}, {"note": 62, "velocity": 106, "duration": 163}, {"note": 0, "velocity": 0, "duration": 77}, {"note": 69, "velocity": 100, "duration": 106}, {"note": 0, "velocity": 0, "duration": 134}, {"note": 69, "velocity": 113, "duration": 486}, {"note": 0, "velocity": 0, "duration": 234}, {"note": 64, "velocity": 103, "duration": 66}, {"note": 0, "velocity": 0, "duration": 174}, {"note": 64, "velocity": 109, "duration": 183}, {"note": 66, "velocity": 106, "duration": 193}, {"note": 67, "velocity": 109, "duration": 212}, {"note": 64, "velocity": 103, "duration": 196}, {"note": 66, "velocity": 115, "duration": 508}, {"note": 66, "velocity": 113, "duration": 28}, {"note": 0, "velocity": 0, "duration": 212}, {"note": 64, "velocity": 91, "duration": 216}, {"note": 62, "velocity": 109, "duration": 193}, {"note": 61, "velocity": 109, "duration": 195}, {"note": 62, "velocity": 115, "duration": 175}, {"note": 0, "velocity": 0, "duration": 65}, {"note": 69, "velocity": 109, "duration": 123}, {"note": 0, "velocity": 0, "duration": 117}, {"note": 69, "velocity": 111, "duration": 148}, {"note": 0, "velocity": 0, "duration": 92}, {"note": 67, "velocity": 115, "duration": 125}, {"note": 0, "velocity": 0, "duration": 355}, {"note": 66, "velocity": 106, "duration": 134}, {"note": 0, "velocity": 0, "duration": 106}, {"note": 64, "velocity": 109, "duration": 238}, {"note": 66, "velocity": 91, "duration": 78}, {"note": 67, "velocity": 95, "duration": 87}, {"note": 66, "velocity": 115, "duration": 216}, {"note": 64, "velocity": 98, "duration": 216}, {"note": 62, "velocity": 115, "duration": 591}, {"note": 66, "velocity": 113, "duration": 190}, {"note": 64, "velocity": 106, "duration": 201}, {"note": 62, "velocity": 106, "duration": 179}, {"note": 0, "velocity": 0, "duration": 61}, {"note": 61, "velocity": 106, "duration": 203}, {"note": 62, "velocity": 111, "duration": 128}, {"note": 0, "velocity": 0, "duration": 112}, {"note": 69, "velocity": 113, "duration": 87}, {"note": 0, "velocity": 0, "duration": 153}, {"note": 69, "velocity": 115, "duration": 561}, {"note": 0, "velocity": 0, "duration": 159}, {"note": 64, "velocity": 109, "duration": 67}, {"note": 0, "velocity": 0, "duration": 173}, {"note": 64, "velocity": 103, "duration": 192}, {"note": 66, "velocity": 109, "duration": 197}, {"note": 67, "velocity": 106, "duration": 126}, {"note": 0, "velocity": 0, "duration": 108}, {"note": 73, "velocity": 113, "duration": 194}, {"note": 69, "velocity": 115, "duration": 311}, {"note": 0, "velocity": 0, "duration": 169}, {"note": 66, "velocity": 111, "duration": 184}, {"note": 64, "velocity": 100, "duration": 212}, {"note": 62, "velocity": 106, "duration": 111}, {"note": 0, "velocity": 0, "duration": 129}, {"note": 61, "velocity": 91, "duration": 207}, {"note": 62, "velocity": 109, "duration": 90}, {"note": 0, "velocity": 0, "duration": 150}, {"note": 69, "velocity": 95, "duration": 78}, {"note": 0, "velocity": 0, "duration": 162}, {"note": 69, "velocity": 113, "duration": 238}, {"note": 67, "velocity": 117, "duration": 104}, {"note": 0, "velocity": 0, "duration": 376}, {"note": 66, "velocity": 111, "duration": 122}, {"note": 0, "velocity": 0, "duration": 118}, {"note": 64, "velocity": 113, "duration": 106}, {"note": 0, "velocity": 0, "duration": 134}, {"note": 66, "velocity": 113, "duration": 62}, {"note": 67, "velocity": 95, "duration": 85}, {"note": 66, "velocity": 111, "duration": 188}, {"note": 64, "velocity": 103, "duration": 216}, {"note": 62, "velocity": 109, "duration": 853}, {"note": 0, "velocity": 0, "duration": 107}, {"note": 69, "velocity": 103, "duration": 107}, {"note": 0, "velocity": 0, "duration": 133}, {"note": 62, "velocity": 98, "duration": 73}, {"note": 0, "velocity": 0, "duration": 167}, {"note": 62, "velocity": 109, "duration": 57}, {"note": 0, "velocity": 0, "duration": 63}, {"note": 62, "velocity": 79, "duration": 56}, {"note": 0, "velocity": 0, "duration": 64}, {"note": 62, "velocity": 100, "duration": 53}, {"note": 0, "velocity": 0, "duration": 67}, {"note": 62, "velocity": 95, "duration": 77}, {"note": 69, "velocity": 103, "duration": 73}, {"note": 0, "velocity": 0, "duration": 167}, {"note": 62, "velocity": 100, "duration": 55}, {"note": 0, "velocity": 0, "duration": 185}, {"note": 62, "velocity": 103, "duration": 48}, {"note": 0, "velocity": 0, "duration": 72}, {"note": 62, "velocity": 103, "duration": 55}, {"note": 0, "velocity": 0, "duration": 65}, {"note": 62, "velocity": 103, "duration": 63}, {"note": 62, "velocity": 100, "duration": 66}, {"note": 64, "velocity": 111, "duration": 71}, {"note": 0, "velocity": 0, "duration": 169}, {"note": 64, "velocity": 113, "duration": 75}, {"note": 0, "velocity": 0, "duration": 165}, {"note": 64, "velocity": 111, "duration": 185}, {"note": 66, "velocity": 111, "duration": 78}, {"note": 0, "velocity": 0, "duration": 162}, {"note": 66, "velocity": 115, "duration": 303}, {"note": 0, "velocity": 0, "duration": 177}, {"note": 62, "velocity": 109, "duration": 55}, {"note": 0, "velocity": 0, "duration": 65}, {"note": 62, "velocity": 77, "duration": 59}, {"note": 0, "velocity": 0, "duration": 61}, {"note": 62, "velocity": 95, "duration": 53}, {"note": 0, "velocity": 0, "duration": 67}, {"note": 62, "velocity": 85, "duration": 80}, {"note": 69, "velocity": 113, "duration": 67}, {"note": 0, "velocity": 0, "duration": 173}, {"note": 62, "velocity": 111, "duration": 65}, {"note": 0, "velocity": 0, "duration": 175}, {"note": 62, "velocity": 113, "duration": 113}, {"note": 0, "velocity": 0, "duration": 127}, {"note": 62, "velocity": 100, "duration": 41}, {"note": 0, "velocity": 0, "duration": 79}, {"note": 62, "velocity": 103, "duration": 81}, {"note": 69, "velocity": 106, "duration": 73}, {"note": 0, "velocity": 0, "duration": 167}, {"note": 62, "velocity": 109, "duration": 67}, {"note": 0, "velocity": 0, "duration": 173}, {"note": 62, "velocity": 113, "duration": 53}, {"note": 0, "velocity": 0, "duration": 67}, {"note": 62, "velocity": 100, "duration": 55}, {"note": 0, "velocity": 0, "duration": 65}, {"note": 62, "velocity": 82, "duration": 52}, {"note": 0, "velocity": 0, "duration": 68}, {"note": 62, "velocity": 76, "duration": 71}, {"note": 64, "velocity": 103, "duration": 63}, {"note": 0, "velocity": 0, "duration": 177}, {"note": 64, "velocity": 103, "duration": 58}, {"note": 0, "velocity": 0, "duration": 182}, {"note": 64, "velocity": 111, "duration": 97}, {"note": 66, "velocity": 113, "duration": 147}, {"note": 0, "velocity": 0, "duration": 213}, {"note": 62, "velocity": 109, "duration": 190}, {"note": 0, "velocity": 0, "duration": 290}, {"note": 66, "velocity": 111, "duration": 173}, {"note": 0, "velocity": 0, "duration": 67}, {"note": 69, "velocity": 113, "duration": 61}, {"note": 0, "velocity": 0, "duration": 179}, {"note": 69, "velocity": 106, "duration": 102}, {"note": 0, "velocity": 0, "duration": 138}, {"note": 69, "velocity": 113, "duration": 62}, {"note": 0, "velocity": 0, "duration": 178}, {"note": 69, "velocity": 111, "duration": 97}, {"note": 0, "velocity": 0, "duration": 143}, {"note": 69, "velocity": 113, "duration": 43}, {"note": 0, "velocity": 0, "duration": 77}, {"note": 69, "velocity": 115, "duration": 70}, {"note": 0, "velocity": 0, "duration": 290}, {"note": 62, "velocity": 103, "duration": 52}, {"note": 0, "velocity": 0, "duration": 68}, {"note": 62, "velocity": 98, "duration": 60}, {"note": 62, "velocity": 103, "duration": 71}, {"note": 0, "velocity": 0, "duration": 169}, {"note": 62, "velocity": 109, "duration": 71}, {"note": 0, "velocity": 0, "duration": 169}, {"note": 64, "velocity": 109, "duration": 75}, {"note": 0, "velocity": 0, "duration": 165}, {"note": 64, "velocity": 109, "duration": 66}, {"note": 0, "velocity": 0, "duration": 174}, {"note": 64, "velocity": 106, "duration": 207}, {"note": 66, "velocity": 98, "duration": 54}, {"note": 0, "velocity": 0, "duration": 180}, {"note": 66, "velocity": 113, "duration": 109}, {"note": 0, "velocity": 0, "duration": 377}, {"note": 66, "velocity": 113, "duration": 191}, {"note": 69, "velocity": 111, "duration": 68}, {"note": 0, "velocity": 0, "duration": 172}, {"note": 69, "velocity": 117, "duration": 93}, {"note": 0, "velocity": 0, "duration": 147}, {"note": 69, "velocity": 113, "duration": 74}, {"note": 0, "velocity": 0, "duration": 166}, {"note": 69, "velocity": 115, "duration": 84}, {"note": 0, "velocity": 0, "duration": 156}, {"note": 69, "velocity": 111, "duration": 44}, {"note": 0, "velocity": 0, "duration": 76}, {"note": 69, "velocity": 117, "duration": 82}, {"note": 0, "velocity": 0, "duration": 278}, {"note": 62, "velocity": 106, "duration": 53}, {"note": 0, "velocity": 0, "duration": 67}, {"note": 62, "velocity": 103, "duration": 61}, {"note": 62, "velocity": 103, "duration": 70}, {"note": 0, "velocity": 0, "duration": 170}, {"note": 62, "velocity": 109, "duration": 83}, {"note": 0, "velocity": 0, "duration": 157}, {"note": 64, "velocity": 111, "duration": 79}, {"note": 0, "velocity": 0, "duration": 161}, {"note": 64, "velocity": 100, "duration": 71}, {"note": 0, "velocity": 0, "duration": 169}, {"note": 64, "velocity": 100, "duration": 206}, {"note": 66, "velocity": 106, "duration": 84}, {"note": 0, "velocity": 0, "duration": 156}, {"note": 62, "velocity": 111, "duration": 198}, {"note": 0, "velocity": 0, "duration": 762}, {"note": 62, "velocity": 103, "duration": 64}, {"note": 0, "velocity": 0, "duration": 176}, {"note": 62, "velocity": 111, "duration": 83}, {"note": 59, "velocity": 103, "duration": 104}, {"note": 62, "velocity": 117, "duration": 254}, {"note": 0, "velocity": 0, "duration": 106}, {"note": 62, "velocity": 113, "duration": 43}, {"note": 0, "velocity": 0, "duration": 77}, {"note": 62, "velocity": 113, "duration": 62}, {"note": 59, "velocity": 82, "duration": 97}, {"note": 62, "velocity": 117, "duration": 53}, {"note": 0, "velocity": 0, "duration": 67}, {"note": 59, "velocity": 53, "duration": 106}, {"note": 62, "velocity": 120, "duration": 151}, {"note": 0, "velocity": 0, "duration": 329}, {"note": 64, "velocity": 111, "duration": 91}, {"note": 0, "velocity": 0, "duration": 149}, {"note": 64, "velocity": 106, "duration": 71}, {"note": 0, "velocity": 0, "duration": 169}, {"note": 64, "velocity": 106, "duration": 185}, {"note": 67, "velocity": 109, "duration": 104}, {"note": 0, "velocity": 0, "duration": 136}, {"note": 66, "velocity": 115, "duration": 386}, {"note": 0, "velocity": 0, "duration": 94}, {"note": 66, "velocity": 113, "duration": 108}, {"note": 0, "velocity": 0, "duration": 132}, {"note": 66, "velocity": 115, "duration": 82}, {"note": 0, "velocity": 0, "duration": 158}, {"note": 62, "velocity": 113, "duration": 76}, {"note": 59, "velocity": 91, "duration": 112}, {"note": 62, "velocity": 111, "duration": 85}, {"note": 59, "velocity": 77, "duration": 114}, {"note": 62, "velocity": 120, "duration": 218}, {"note": 0, "velocity": 0, "duration": 142}, {"note": 59, "velocity": 111, "duration": 86}, {"note": 62, "velocity": 109, "duration": 66}, {"note": 59, "velocity": 85, "duration": 119}, {"note": 62, "velocity": 115, "duration": 87}, {"note": 59, "velocity": 100, "duration": 116}, {"note": 62, "velocity": 111, "duration": 214}, {"note": 0, "velocity": 0, "duration": 266}, {"note": 64, "velocity": 115, "duration": 59}, {"note": 0, "velocity": 0, "duration": 61}, {"note": 64, "velocity": 111, "duration": 51}, {"note": 0, "velocity": 0, "duration": 69}, {"note": 64, "velocity": 109, "duration": 55}, {"note": 0, "velocity": 0, "duration": 65}, {"note": 64, "velocity": 109, "duration": 57}, {"note": 0, "velocity": 0, "duration": 63}, {"note": 64, "velocity": 111, "duration": 196}, {"note": 66, "velocity": 111, "duration": 103}, {"note": 0, "velocity": 0, "duration": 137}, {"note": 62, "velocity": 109, "duration": 677}, {"note": 66, "velocity": 115, "duration": 163}, {"note": 64, "velocity": 100, "duration": 220}, {"note": 62, "velocity": 109, "duration": 193}, {"note": 61, "velocity": 100, "duration": 191}, {"note": 62, "velocity": 109, "duration": 108}, {"note": 0, "velocity": 0, "duration": 132}, {"note": 69, "velocity": 117, "duration": 82}, {"note": 0, "velocity": 0, "duration": 158}, {"note": 69, "velocity": 113, "duration": 223}, {"note": 67, "velocity": 111, "duration": 127}, {"note": 0, "velocity": 0, "duration": 353}, {"note": 64, "velocity": 109, "duration": 72}, {"note": 0, "velocity": 0, "duration": 168}, {"note": 64, "velocity": 111, "duration": 182}, {"note": 66, "velocity": 111, "duration": 123}, {"note": 0, "velocity": 0, "duration": 117}, {"note": 67, "velocity": 109, "duration": 227}, {"note": 64, "velocity": 103, "duration": 191}, {"note": 66, "velocity": 115, "duration": 370}, {"note": 0, "velocity": 0, "duration": 110}, {"note": 66, "velocity": 111, "duration": 177}, {"note": 0, "velocity": 0, "duration": 63}, {"note": 64, "velocity": 98, "duration": 199}, {"note": 62, "velocity": 106, "duration": 180}, {"note": 61, "velocity": 106, "duration": 194}, {"note": 62, "velocity": 111, "duration": 111}, {"note": 0, "velocity": 0, "duration": 129}, {"note": 69, "velocity": 100, "duration": 88}, {"note": 0, "velocity": 0, "duration": 152}, {"note": 69, "velocity": 115, "duration": 236}, {"note": 67, "velocity": 113, "duration": 166}, {"note": 0, "velocity": 0, "duration": 314}, {"note": 66, "velocity": 113, "duration": 146}, {"note": 0, "velocity": 0, "duration": 94}, {"note": 64, "velocity": 109, "duration": 160}, {"note": 0, "velocity": 0, "duration": 80}, {"note": 66, "velocity": 109, "duration": 64}, {"note": 67, "velocity": 106, "duration": 65}, {"note": 66, "velocity": 111, "duration": 203}, {"note": 64, "velocity": 100, "duration": 212}, {"note": 62, "velocity": 109, "duration": 468}, {"note": 66, "velocity": 113, "duration": 214}, {"note": 64, "velocity": 103, "duration": 201}, {"note": 62, "velocity": 106, "duration": 149}, {"note": 0, "velocity": 0, "duration": 91}, {"note": 61, "velocity": 109, "duration": 188}, {"note": 62, "velocity": 113, "duration": 88}, {"note": 0, "velocity": 0, "duration": 152}, {"note": 69, "velocity": 115, "duration": 75}, {"note": 0, "velocity": 0, "duration": 165}, {"note": 69, "velocity": 113, "duration": 220}, {"note": 67, "velocity": 109, "duration": 160}, {"note": 0, "velocity": 0, "duration": 320}, {"note": 66, "velocity": 100, "duration": 41}, {"note": 0, "velocity": 0, "duration": 79}, {"note": 66, "velocity": 103, "duration": 75}, {"note": 64, "velocity": 106, "duration": 188}, {"note": 66, "velocity": 95, "duration": 181}, {"note": 67, "velocity": 103, "duration": 93}, {"note": 0, "velocity": 0, "duration": 147}, {"note": 73, "velocity": 113, "duration": 164}, {"note": 0, "velocity": 0, "duration": 76}, {"note": 69, "velocity": 113, "duration": 356}, {"note": 0, "velocity": 0, "duration": 124}, {"note": 66, "velocity": 111, "duration": 178}, {"note": 0, "velocity": 0, "duration": 62}, {"note": 64, "velocity": 91, "duration": 211}, {"note": 62, "velocity": 100, "duration": 161}, {"note": 0, "velocity": 0, "duration": 79}, {"note": 61, "velocity": 106, "duration": 198}, {"note": 62, "velocity": 113, "duration": 82}, {"note": 0, "velocity": 0, "duration": 158}, {"note": 69, "velocity": 109, "duration": 97}, {"note": 0, "velocity": 0, "duration": 143}, {"note": 69, "velocity": 113, "duration": 198}, {"note": 67, "velocity": 113, "duration": 165}, {"note": 0, "velocity": 0, "duration": 315}, {"note": 66, "velocity": 111, "duration": 40}, {"note": 0, "velocity": 0, "duration": 80}, {"note": 66, "velocity": 106, "duration": 87}, {"note": 64, "velocity": 111, "duration": 178}, {"note": 0, "velocity": 0, "duration": 62}, {"note": 66, "velocity": 100, "duration": 66}, {"note": 67, "velocity": 103, "duration": 75}, {"note": 66, "velocity": 111, "duration": 220}, {"note": 64, "velocity": 100, "duration": 215}, {"note": 62, "velocity": 109, "duration": 858}, {"note": 0, "velocity": 0, "duration": 3942}, {"note": 69, "velocity": 103, "duration": 107}, {"note": 0, "velocity": 0, "duration": 133}, {"note": 62, "velocity": 98, "duration": 73}, {"note": 0, "velocity": 0, "duration": 167}, {"note": 62, "velocity": 109, "duration": 57}, {"note": 0, "velocity": 0, "duration": 63}, {"note": 62, "velocity": 79, "duration": 56}, {"note": 0, "velocity": 0, "duration": 64}, {"note": 62, "velocity": 100, "duration": 53}, {"note": 0, "velocity": 0, "duration": 67}, {"note": 62, "velocity": 95, "duration": 77}, {"note": 69, "velocity": 103, "duration": 73}, {"note": 0, "velocity": 0, "duration": 167}, {"note": 62, "velocity": 100, "duration": 55}, {"note": 0, "velocity": 0, "duration": 185}, {"note": 62, "velocity": 103, "duration": 48}, {"note": 0, "velocity": 0, "duration": 72}, {"note": 62, "velocity": 103, "duration": 55}, {"note": 0, "velocity": 0, "duration": 65}, {"note": 62, "velocity": 103, "duration": 63}, {"note": 62, "velocity": 100, "duration": 66}, {"note": 64, "velocity": 111, "duration": 71}, {"note": 0, "velocity": 0, "duration": 169}, {"note": 64, "velocity": 113, "duration": 75}, {"note": 0, "velocity": 0, "duration": 165}, {"note": 64, "velocity": 111, "duration": 185}, {"note": 66, "velocity": 111, "duration": 78}, {"note": 0, "velocity": 0, "duration": 162}, {"note": 66, "velocity": 115, "duration": 303}, {"note": 0, "velocity": 0, "duration": 177}, {"note": 62, "velocity": 109, "duration": 55}, {"note": 0, "velocity": 0, "duration": 65}, {"note": 62, "velocity": 77, "duration": 59}, {"note": 0, "velocity": 0, "duration": 61}, {"note": 62, "velocity": 95, "duration": 53}, {"note": 0, "velocity": 0, "duration": 67}, {"note": 62, "velocity": 85, "duration": 80}, {"note": 69, "velocity": 113, "duration": 67}, {"note": 0, "velocity": 0, "duration": 173}, {"note": 62, "velocity": 111, "duration": 65}, {"note": 0, "velocity": 0, "duration": 175}, {"note": 62, "velocity": 113, "duration": 113}, {"note": 0, "velocity": 0, "duration": 127}, {"note": 62, "velocity": 100, "duration": 41}, {"note": 0, "velocity": 0, "duration": 79}, {"note": 62, "velocity": 103, "duration": 81}, {"note": 69, "velocity": 106, "duration": 73}, {"note": 0, "velocity": 0, "duration": 167}, {"note": 62, "velocity": 109, "duration": 67}, {"note": 0, "velocity": 0, "duration": 173}, {"note": 62, "velocity": 113, "duration": 53}, {"note": 0, "velocity": 0, "duration": 67}, {"note": 62, "velocity": 100, "duration": 55}, {"note": 0, "velocity": 0, "duration": 65}, {"note": 62, "velocity": 82, "duration": 52}, {"note": 0, "velocity": 0, "duration": 68}, {"note": 62, "velocity": 76, "duration": 71}, {"note": 64, "velocity": 103, "duration": 63}, {"note": 0, "velocity": 0, "duration": 177}, {"note": 64, "velocity": 103, "duration": 58}, {"note": 0, "velocity": 0, "duration": 182}, {"note": 64, "velocity": 111, "duration": 97}, {"note": 66, "velocity": 113, "duration": 147}, {"note": 0, "velocity": 0, "duration": 213}, {"note": 62, "velocity": 109, "duration": 190}, {"note": 0, "velocity": 0, "duration": 290}, {"note": 66, "velocity": 111, "duration": 173}, {"note": 0, "velocity": 0, "duration": 67}, {"note": 69, "velocity": 113, "duration": 61}, {"note": 0, "velocity": 0, "duration": 179}, {"note": 69, "velocity": 106, "duration": 102}, {"note": 0, "velocity": 0, "duration": 138}, {"note": 69, "velocity": 113, "duration": 62}, {"note": 0, "velocity": 0, "duration": 178}, {"note": 69, "velocity": 111, "duration": 97}, {"note": 0, "velocity": 0, "duration": 143}, {"note": 69, "velocity": 113, "duration": 43}, {"note": 0, "velocity": 0, "duration": 77}, {"note": 69, "velocity": 115, "duration": 70}, {"note": 0, "velocity": 0, "duration": 290}, {"note": 62, "velocity": 103, "duration": 52}, {"note": 0, "velocity": 0, "duration": 68}, {"note": 62, "velocity": 98, "duration": 60}, {"note": 62, "velocity": 103, "duration": 71}, {"note": 0, "velocity": 0, "duration": 169}, {"note": 62, "velocity": 109, "duration": 71}, {"note": 0, "velocity": 0, "duration": 169}, {"note": 64, "velocity": 109, "duration": 75}, {"note": 0, "velocity": 0, "duration": 165}, {"note": 64, "velocity": 109, "duration": 66}, {"note": 0, "velocity": 0, "duration": 174}, {"note": 64, "velocity": 106, "duration": 207}, {"note": 66, "velocity": 98, "duration": 54}, {"note": 0, "velocity": 0, "duration": 180}, {"note": 66, "velocity": 113, "duration": 109}, {"note": 0, "velocity": 0, "duration": 377}, {"note": 66, "velocity": 113, "duration": 191}, {"note": 69, "velocity": 111, "duration": 68}, {"note": 0, "velocity": 0, "duration": 172}, {"note": 69, "velocity": 117, "duration": 93}, {"note": 0, "velocity": 0, "duration": 147}, {"note": 69, "velocity": 113, "duration": 74}, {"note": 0, "velocity": 0, "duration": 166}, {"note": 69, "velocity": 115, "duration": 84}, {"note": 0, "velocity": 0, "duration": 156}, {"note": 69, "velocity": 111, "duration": 44}, {"note": 0, "velocity": 0, "duration": 76}, {"note": 69, "velocity": 117, "duration": 82}, {"note": 0, "velocity": 0, "duration": 278}, {"note": 62, "velocity": 106, "duration": 53}, {"note": 0, "velocity": 0, "duration": 67}, {"note": 62, "velocity": 103, "duration": 61}, {"note": 62, "velocity": 103, "duration": 70}, {"note": 0, "velocity": 0, "duration": 170}, {"note": 62, "velocity": 109, "duration": 83}, {"note": 0, "velocity": 0, "duration": 157}, {"note": 64, "velocity": 111, "duration": 79}, {"note": 0, "velocity": 0, "duration": 161}, {"note": 64, "velocity": 100, "duration": 71}, {"note": 0, "velocity": 0, "duration": 169}, {"note": 64, "velocity": 100, "duration": 206}, {"note": 66, "velocity": 106, "duration": 84}, {"note": 0, "velocity": 0, "duration": 156}, {"note": 62, "velocity": 111, "duration": 198}, {"note": 0, "velocity": 0, "duration": 762}, {"note": 62, "velocity": 103, "duration": 64}, {"note": 0, "velocity": 0, "duration": 176}, {"note": 62, "velocity": 111, "duration": 83}, {"note": 59, "velocity": 103, "duration": 104}, {"note": 62, "velocity": 117, "duration": 254}, {"note": 0, "velocity": 0, "duration": 106}, {"note": 62, "velocity": 113, "duration": 43}, {"note": 0, "velocity": 0, "duration": 77}, {"note": 62, "velocity": 113, "duration": 62}, {"note": 59, "velocity": 82, "duration": 97}, {"note": 62, "velocity": 117, "duration": 53}, {"note": 0, "velocity": 0, "duration": 67}, {"note": 59, "velocity": 53, "duration": 106}, {"note": 62, "velocity": 120, "duration": 151}, {"note": 0, "velocity": 0, "duration": 329}, {"note": 64, "velocity": 111, "duration": 91}, {"note": 0, "velocity": 0, "duration": 149}, {"note": 64, "velocity": 106, "duration": 71}, {"note": 0, "velocity": 0, "duration": 169}, {"note": 64, "velocity": 106, "duration": 185}, {"note": 67, "velocity": 109, "duration": 104}, {"note": 0, "velocity": 0, "duration": 136}, {"note": 66, "velocity": 115, "duration": 386}, {"note": 0, "velocity": 0, "duration": 94}, {"note": 66, "velocity": 113, "duration": 108}, {"note": 0, "velocity": 0, "duration": 132}, {"note": 66, "velocity": 115, "duration": 82}, {"note": 0, "velocity": 0, "duration": 158}, {"note": 62, "velocity": 113, "duration": 76}, {"note": 59, "velocity": 91, "duration": 112}, {"note": 62, "velocity": 111, "duration": 85}, {"note": 59, "velocity": 77, "duration": 114}, {"note": 62, "velocity": 120, "duration": 218}, {"note": 0, "velocity": 0, "duration": 142}, {"note": 59, "velocity": 111, "duration": 86}, {"note": 62, "velocity": 109, "duration": 66}, {"note": 59, "velocity": 85, "duration": 119}, {"note": 62, "velocity": 115, "duration": 87}, {"note": 59, "velocity": 100, "duration": 116}, {"note": 62, "velocity": 111, "duration": 214}, {"note": 0, "velocity": 0, "duration": 266}, {"note": 64, "velocity": 115, "duration": 59}, {"note": 0, "velocity": 0, "duration": 61}, {"note": 64, "velocity": 111, "duration": 51}, {"note": 0, "velocity": 0, "duration": 69}, {"note": 64, "velocity": 109, "duration": 55}, {"note": 0, "velocity": 0, "duration": 65}, {"note": 64, "velocity": 109, "duration": 57}, {"note": 0, "velocity": 0, "duration": 63}, {"note": 64, "velocity": 111, "duration": 196}, {"note": 66, "velocity": 111, "duration": 103}, {"note": 0, "velocity": 0, "duration": 137}, {"note": 62, "velocity": 109, "duration": 416}, {"note": 0, "velocity": 0, "duration": 64}, {"note": 66, "velocity": 115, "duration": 163}, {"note": 0, "velocity": 0, "duration": 77}, {"note": 64, "velocity": 100, "duration": 220}, {"note": 62, "velocity": 109, "duration": 193}, {"note": 61, "velocity": 100, "duration": 191}, {"note": 62, "velocity": 109, "duration": 108}, {"note": 0, "velocity": 0, "duration": 132}, {"note": 69, "velocity": 117, "duration": 82}, {"note": 0, "velocity": 0, "duration": 158}, {"note": 69, "velocity": 113, "duration": 223}, {"note": 67, "velocity": 111, "duration": 127}, {"note": 0, "velocity": 0, "duration": 353}, {"note": 64, "velocity": 109, "duration": 72}, {"note": 0, "velocity": 0, "duration": 168}, {"note": 64, "velocity": 111, "duration": 182}, {"note": 66, "velocity": 111, "duration": 123}, {"note": 0, "velocity": 0, "duration": 117}, {"note": 67, "velocity": 109, "duration": 227}, {"note": 64, "velocity": 103, "duration": 191}, {"note": 66, "velocity": 115, "duration": 370}, {"note": 0, "velocity": 0, "duration": 110}, {"note": 66, "velocity": 111, "duration": 177}, {"note": 0, "velocity": 0, "duration": 63}, {"note": 64, "velocity": 98, "duration": 199}, {"note": 62, "velocity": 106, "duration": 180}, {"note": 61, "velocity": 106, "duration": 194}, {"note": 62, "velocity": 111, "duration": 111}, {"note": 0, "velocity": 0, "duration": 129}, {"note": 69, "velocity": 100, "duration": 88}, {"note": 0, "velocity": 0, "duration": 152}, {"note": 69, "velocity": 115, "duration": 236}, {"note": 67, "velocity": 113, "duration": 166}, {"note": 0, "velocity": 0, "duration": 314}, {"note": 66, "velocity": 113, "duration": 146}, {"note": 0, "velocity": 0, "duration": 94}, {"note": 64, "velocity": 109, "duration": 160}, {"note": 0, "velocity": 0, "duration": 80}, {"note": 66, "velocity": 109, "duration": 64}, {"note": 67, "velocity": 106, "duration": 65}, {"note": 66, "velocity": 111, "duration": 203}, {"note": 64, "velocity": 100, "duration": 212}, {"note": 62, "velocity": 109, "duration": 468}, {"note": 66, "velocity": 113, "duration": 214}, {"note": 64, "velocity": 103, "duration": 201}, {"note": 62, "velocity": 106, "duration": 149}, {"note": 0, "velocity": 0, "duration": 91}, {"note": 61, "velocity": 109, "duration": 188}, {"note": 62, "velocity": 113, "duration": 88}, {"note": 0, "velocity": 0, "duration": 152}, {"note": 69, "velocity": 115, "duration": 75}, {"note": 0, "velocity": 0, "duration": 165}, {"note": 69, "velocity": 113, "duration": 220}, {"note": 67, "velocity": 109, "duration": 160}, {"note": 0, "velocity": 0, "duration": 320}, {"note": 66, "velocity": 100, "duration": 41}, {"note": 0, "velocity": 0, "duration": 79}, {"note": 66, "velocity": 103, "duration": 75}, {"note": 64, "velocity": 106, "duration": 188}, {"note": 66, "velocity": 95, "duration": 181}, {"note": 67, "velocity": 103, "duration": 93}, {"note": 0, "velocity": 0, "duration": 147}, {"note": 73, "velocity": 113, "duration": 164}, {"note": 0, "velocity": 0, "duration": 76}, {"note": 69, "velocity": 113, "duration": 356}, {"note": 0, "velocity": 0, "duration": 124}, {"note": 66, "velocity": 111, "duration": 178}, {"note": 0, "velocity": 0, "duration": 62}, {"note": 64, "velocity": 91, "duration": 211}, {"note": 62, "velocity": 100, "duration": 161}, {"note": 0, "velocity": 0, "duration": 79}, {"note": 61, "velocity": 106, "duration": 198}, {"note": 62, "velocity": 113, "duration": 82}, {"note": 0, "velocity": 0, "duration": 158}, {"note": 69, "velocity": 109, "duration": 97}, {"note": 0, "velocity": 0, "duration": 143}, {"note": 69, "velocity": 113, "duration": 198}, {"note": 67, "velocity": 113, "duration": 165}, {"note": 0, "velocity": 0, "duration": 315}, {"note": 66, "velocity": 111, "duration": 40}, {"note": 0, "velocity": 0, "duration": 80}, {"note": 66, "velocity": 106, "duration": 87}, {"note": 64, "velocity": 111, "duration": 178}, {"note": 0, "velocity": 0, "duration": 62}, {"note": 66, "velocity": 100, "duration": 66}, {"note": 67, "velocity": 103, "duration": 75}, {"note": 66, "velocity": 111, "duration": 220}, {"note": 64, "velocity": 100, "duration": 215}, {"note": 62, "velocity": 109, "duration": 858}, {"note": 0, "velocity": 0, "duration": 9222}, {"note": 67, "velocity": 115, "duration": 163}, {"note": 0, "velocity": 0, "duration": 77}, {"note": 65, "velocity": 100, "duration": 220}, {"note": 63, "velocity": 109, "duration": 193}, {"note": 62, "velocity": 100, "duration": 191}, {"note": 63, "velocity": 109, "duration": 108}, {"note": 0, "velocity": 0, "duration": 132}, {"note": 70, "velocity": 117, "duration": 82}, {"note": 0, "velocity": 0, "duration": 158}, {"note": 70, "velocity": 113, "duration": 223}, {"note": 68, "velocity": 111, "duration": 127}, {"note": 0, "velocity": 0, "duration": 353}, {"note": 65, "velocity": 109, "duration": 72}, {"note": 0, "velocity": 0, "duration": 168}, {"note": 65, "velocity": 111, "duration": 182}, {"note": 67, "velocity": 111, "duration": 123}, {"note": 0, "velocity": 0, "duration": 117}, {"note": 68, "velocity": 109, "duration": 227}, {"note": 65, "velocity": 103, "duration": 191}, {"note": 67, "velocity": 115, "duration": 370}, {"note": 0, "velocity": 0, "duration": 110}, {"note": 67, "velocity": 111, "duration": 177}, {"note": 0, "velocity": 0, "duration": 63}, {"note": 65, "velocity": 98, "duration": 199}, {"note": 63, "velocity": 106, "duration": 180}, {"note": 62, "velocity": 106, "duration": 194}, {"note": 63, "velocity": 111, "duration": 111}, {"note": 0, "velocity": 0, "duration": 129}, {"note": 70, "velocity": 100, "duration": 88}, {"note": 0, "velocity": 0, "duration": 152}, {"note": 70, "velocity": 115, "duration": 236}, {"note": 68, "velocity": 113, "duration": 166}, {"note": 0, "velocity": 0, "duration": 314}, {"note": 67, "velocity": 113, "duration": 146}, {"note": 0, "velocity": 0, "duration": 94}, {"note": 65, "velocity": 109, "duration": 160}, {"note": 0, "velocity": 0, "duration": 80}, {"note": 67, "velocity": 109, "duration": 64}, {"note": 68, "velocity": 106, "duration": 65}, {"note": 67, "velocity": 111, "duration": 203}, {"note": 65, "velocity": 100, "duration": 212}, {"note": 63, "velocity": 109, "duration": 468}, {"note": 67, "velocity": 113, "duration": 214}, {"note": 65, "velocity": 103, "duration": 201}, {"note": 63, "velocity": 106, "duration": 149}, {"note": 0, "velocity": 0, "duration": 91}, {"note": 62, "velocity": 109, "duration": 188}, {"note": 63, "velocity": 113, "duration": 88}, {"note": 0, "velocity": 0, "duration": 152}, {"note": 70, "velocity": 115, "duration": 75}, {"note": 0, "velocity": 0, "duration": 165}, {"note": 70, "velocity": 113, "duration": 220}, {"note": 68, "velocity": 109, "duration": 160}, {"note": 0, "velocity": 0, "duration": 320}, {"note": 67, "velocity": 100, "duration": 41}, {"note": 0, "velocity": 0, "duration": 79}, {"note": 67, "velocity": 103, "duration": 75}, {"note": 65, "velocity": 106, "duration": 188}, {"note": 67, "velocity": 95, "duration": 181}, {"note": 68, "velocity": 103, "duration": 93}, {"note": 0, "velocity": 0, "duration": 147}, {"note": 74, "velocity": 113, "duration": 164}, {"note": 0, "velocity": 0, "duration": 76}, {"note": 70, "velocity": 113, "duration": 356}, {"note": 0, "velocity": 0, "duration": 124}, {"note": 67, "velocity": 111, "duration": 178}, {"note": 0, "velocity": 0, "duration": 62}, {"note": 65, "velocity": 91, "duration": 211}, {"note": 63, "velocity": 100, "duration": 161}, {"note": 0, "velocity": 0, "duration": 79}, {"note": 62, "velocity": 106, "duration": 198}, {"note": 63, "velocity": 113, "duration": 82}, {"note": 0, "velocity": 0, "duration": 158}, {"note": 70, "velocity": 109, "duration": 97}, {"note": 0, "velocity": 0, "duration": 143}, {"note": 70, "velocity": 113, "duration": 198}, {"note": 68, "velocity": 113, "duration": 165}, {"note": 0, "velocity": 0, "duration": 315}, {"note": 67, "velocity": 111, "duration": 40}, {"note": 0, "velocity": 0, "duration": 80}, {"note": 67, "velocity": 106, "duration": 87}, {"note": 65, "velocity": 111, "duration": 178}, {"note": 0, "velocity": 0, "duration": 62}, {"note": 67, "velocity": 100, "duration": 66}, {"note": 68, "velocity": 103, "duration": 75}, {"note": 67, "velocity": 111, "duration": 1440}, {"note": 0, "velocity": 0, "duration": 294}, {"note": 68, "velocity": 115, "duration": 208}, {"note": 67, "velocity": 98, "duration": 131}, {"note": 0, "velocity": 0, "duration": 262}, {"note": 65, "velocity": 115, "duration": 426}, {"note": 0, "velocity": 0, "duration": 134}, {"note": 63, "velocity": 109, "duration": 1919}]]