[[{"note": 65, "velocity": 60, "duration": 49}, {"note": 0, "velocity": 0, "duration": 68}, {"note": 65, "velocity": 51, "duration": 53}, {"note": 66, "velocity": 51, "duration": 59}, {"note": 0, "velocity": 0, "duration": 61}, {"note": 65, "velocity": 60, "duration": 147}, {"note": 0, "velocity": 0, "duration": 109}, {"note": 65, "velocity": 55, "duration": 123}, {"note": 66, "velocity": 43, "duration": 67}, {"note": 65, "velocity": 60, "duration": 167}, {"note": 0, "velocity": 0, "duration": 70}, {"note": 65, "velocity": 55, "duration": 123}, {"note": 66, "velocity": 55, "duration": 99}, {"note": 65, "velocity": 55, "duration": 183}, {"note": 0, "velocity": 0, "duration": 71}, {"note": 63, "velocity": 75, "duration": 122}, {"note": 61, "velocity": 51, "duration": 139}, {"note": 63, "velocity": 41, "duration": 200}, {"note": 0, "velocity": 0, "duration": 83}, {"note": 68, "velocity": 39, "duration": 692}, {"note": 0, "velocity": 0, "duration": 857}, {"note": 61, "velocity": 51, "duration": 64}, {"note": 61, "velocity": 26, "duration": 67}, {"note": 0, "velocity": 0, "duration": 64}, {"note": 73, "velocity": 70, "duration": 47}, {"note": 73, "velocity": 80, "duration": 50}, {"note": 0, "velocity": 0, "duration": 70}, {"note": 75, "velocity": 80, "duration": 66}, {"note": 73, "velocity": 75, "duration": 139}, {"note": 0, "velocity": 0, "duration": 97}, {"note": 73, "velocity": 80, "duration": 70}, {"note": 75, "velocity": 60, "duration": 106}, {"note": 73, "velocity": 75, "duration": 127}, {"note": 0, "velocity": 0, "duration": 96}, {"note": 73, "velocity": 80, "duration": 84}, {"note": 75, "velocity": 80, "duration": 122}, {"note": 77, "velocity": 92, "duration": 273}, {"note": 0, "velocity": 0, "duration": 281}, {"note": 68, "velocity": 33, "duration": 120}, {"note": 70, "velocity": 25, "duration": 167}, {"note": 68, "velocity": 32, "duration": 918}, {"note": 0, "velocity": 0, "duration": 630}, {"note": 65, "velocity": 55, "duration": 87}, {"note": 70, "velocity": 51, "duration": 90}, {"note": 0, "velocity": 0, "duration": 109}, {"note": 70, "velocity": 33, "duration": 64}, {"note": 72, "velocity": 60, "duration": 240}, {"note": 73, "velocity": 75, "duration": 222}, {"note": 75, "velocity": 55, "duration": 232}, {"note": 72, "velocity": 51, "duration": 221}, {"note": 70, "velocity": 45, "duration": 314}, {"note": 73, "velocity": 60, "duration": 114}, {"note": 75, "velocity": 55, "duration": 74}, {"note": 77, "velocity": 65, "duration": 120}, {"note": 0, "velocity": 0, "duration": 92}, {"note": 77, "velocity": 60, "duration": 56}, {"note": 0, "velocity": 0, "duration": 67}, {"note": 77, "velocity": 80, "duration": 203}, {"note": 0, "velocity": 0, "duration": 63}, {"note": 68, "velocity": 51, "duration": 227}, {"note": 70, "velocity": 60, "duration": 260}, {"note": 73, "velocity": 43, "duration": 450}, {"note": 0, "velocity": 0, "duration": 258}, {"note": 70, "velocity": 48, "duration": 95}, {"note": 73, "velocity": 80, "duration": 61}, {"note": 73, "velocity": 80, "duration": 74}, {"note": 75, "velocity": 92, "duration": 84}, {"note": 73, "velocity": 92, "duration": 216}, {"note": 75, "velocity": 70, "duration": 246}, {"note": 73, "velocity": 75, "duration": 192}, {"note": 0, "velocity": 0, "duration": 61}, {"note": 73, "velocity": 80, "duration": 125}, {"note": 75, "velocity": 80, "duration": 132}, {"note": 77, "velocity": 60, "duration": 305}, {"note": 75, "velocity": 80, "duration": 407}, {"note": 73, "velocity": 92, "duration": 275}, {"note": 75, "velocity": 104, "duration": 579}, {"note": 0, "velocity": 0, "duration": 960}, {"note": 65, "velocity": 80, "duration": 75}, {"note": 65, "velocity": 60, "duration": 48}, {"note": 0, "velocity": 0, "duration": 72}, {"note": 66, "velocity": 75, "duration": 58}, {"note": 0, "velocity": 0, "duration": 62}, {"note": 65, "velocity": 80, "duration": 200}, {"note": 65, "velocity": 65, "duration": 83}, {"note": 66, "velocity": 60, "duration": 99}, {"note": 65, "velocity": 65, "duration": 152}, {"note": 0, "velocity": 0, "duration": 88}, {"note": 65, "velocity": 55, "duration": 116}, {"note": 66, "velocity": 55, "duration": 76}, {"note": 65, "velocity": 70, "duration": 211}, {"note": 63, "velocity": 35, "duration": 222}, {"note": 61, "velocity": 48, "duration": 143}, {"note": 63, "velocity": 55, "duration": 228}, {"note": 68, "velocity": 39, "duration": 963}, {"note": 0, "velocity": 0, "duration": 477}, {"note": 61, "velocity": 55, "duration": 57}, {"note": 0, "velocity": 0, "duration": 63}, {"note": 61, "velocity": 43, "duration": 69}, {"note": 73, "velocity": 55, "duration": 35}, {"note": 0, "velocity": 0, "duration": 85}, {"note": 73, "velocity": 80, "duration": 50}, {"note": 0, "velocity": 0, "duration": 70}, {"note": 75, "velocity": 75, "duration": 113}, {"note": 73, "velocity": 80, "duration": 148}, {"note": 0, "velocity": 0, "duration": 92}, {"note": 73, "velocity": 75, "duration": 49}, {"note": 0, "velocity": 0, "duration": 71}, {"note": 75, "velocity": 104, "duration": 56}, {"note": 0, "velocity": 0, "duration": 64}, {"note": 73, "velocity": 80, "duration": 110}, {"note": 0, "velocity": 0, "duration": 130}, {"note": 73, "velocity": 70, "duration": 66}, {"note": 75, "velocity": 92, "duration": 115}, {"note": 77, "velocity": 65, "duration": 519}, {"note": 0, "velocity": 0, "duration": 81}, {"note": 68, "velocity": 60, "duration": 222}, {"note": 70, "velocity": 43, "duration": 243}, {"note": 68, "velocity": 43, "duration": 1065}, {"note": 0, "velocity": 0, "duration": 255}, {"note": 68, "velocity": 55, "duration": 110}, {"note": 70, "velocity": 70, "duration": 133}, {"note": 0, "velocity": 0, "duration": 107}, {"note": 70, "velocity": 70, "duration": 82}, {"note": 72, "velocity": 92, "duration": 127}, {"note": 0, "velocity": 0, "duration": 113}, {"note": 72, "velocity": 98, "duration": 225}, {"note": 73, "velocity": 92, "duration": 128}, {"note": 75, "velocity": 104, "duration": 214}, {"note": 70, "velocity": 75, "duration": 115}, {"note": 68, "velocity": 51, "duration": 378}, {"note": 73, "velocity": 104, "duration": 117}, {"note": 75, "velocity": 92, "duration": 105}, {"note": 77, "velocity": 92, "duration": 213}, {"note": 77, "velocity": 86, "duration": 123}, {"note": 75, "velocity": 104, "duration": 161}, {"note": 0, "velocity": 0, "duration": 79}, {"note": 68, "velocity": 55, "duration": 197}, {"note": 70, "velocity": 92, "duration": 248}, {"note": 73, "velocity": 104, "duration": 536}, {"note": 0, "velocity": 0, "duration": 184}, {"note": 73, "velocity": 80, "duration": 101}, {"note": 77, "velocity": 86, "duration": 187}, {"note": 75, "velocity": 70, "duration": 184}, {"note": 73, "velocity": 70, "duration": 160}, {"note": 77, "velocity": 70, "duration": 376}, {"note": 77, "velocity": 80, "duration": 16}, {"note": 0, "velocity": 0, "duration": 104}, {"note": 77, "velocity": 86, "duration": 151}, {"note": 75, "velocity": 92, "duration": 181}, {"note": 73, "velocity": 75, "duration": 147}, {"note": 77, "velocity": 98, "duration": 213}, {"note": 78, "velocity": 92, "duration": 208}, {"note": 77, "velocity": 92, "duration": 249}, {"note": 75, "velocity": 80, "duration": 663}, {"note": 0, "velocity": 0, "duration": 1017}, {"note": 77, "velocity": 80, "duration": 53}, {"note": 0, "velocity": 0, "duration": 67}, {"note": 77, "velocity": 55, "duration": 44}, {"note": 0, "velocity": 0, "duration": 76}, {"note": 77, "velocity": 70, "duration": 47}, {"note": 0, "velocity": 0, "duration": 73}, {"note": 77, "velocity": 70, "duration": 44}, {"note": 0, "velocity": 0, "duration": 76}, {"note": 77, "velocity": 70, "duration": 171}, {"note": 0, "velocity": 0, "duration": 69}, {"note": 68, "velocity": 43, "duration": 83}, {"note": 70, "velocity": 92, "duration": 385}, {"note": 73, "velocity": 110, "duration": 93}, {"note": 78, "velocity": 92, "duration": 333}, {"note": 77, "velocity": 80, "duration": 116}, {"note": 75, "velocity": 92, "duration": 321}, {"note": 73, "velocity": 104, "duration": 236}, {"note": 75, "velocity": 92, "duration": 225}, {"note": 73, "velocity": 104, "duration": 91}, {"note": 77, "velocity": 80, "duration": 505}, {"note": 0, "velocity": 0, "duration": 95}, {"note": 75, "velocity": 104, "duration": 208}, {"note": 77, "velocity": 55, "duration": 105}, {"note": 73, "velocity": 92, "duration": 355}, {"note": 0, "velocity": 0, "duration": 125}, {"note": 73, "velocity": 80, "duration": 129}, {"note": 80, "velocity": 110, "duration": 111}, {"note": 0, "velocity": 0, "duration": 129}, {"note": 80, "velocity": 104, "duration": 50}, {"note": 0, "velocity": 0, "duration": 70}, {"note": 80, "velocity": 104, "duration": 259}, {"note": 72, "velocity": 92, "duration": 229}, {"note": 73, "velocity": 104, "duration": 242}, {"note": 75, "velocity": 92, "duration": 221}, {"note": 73, "velocity": 104, "duration": 462}, {"note": 70, "velocity": 51, "duration": 126}, {"note": 78, "velocity": 104, "duration": 164}, {"note": 0, "velocity": 0, "duration": 76}, {"note": 77, "velocity": 70, "duration": 95}, {"note": 75, "velocity": 110, "duration": 321}, {"note": 75, "velocity": 127, "duration": 169}, {"note": 0, "velocity": 0, "duration": 71}, {"note": 73, "velocity": 110, "duration": 121}, {"note": 75, "velocity": 104, "duration": 331}, {"note": 77, "velocity": 80, "duration": 53}, {"note": 0, "velocity": 0, "duration": 67}, {"note": 77, "velocity": 55, "duration": 44}, {"note": 0, "velocity": 0, "duration": 76}, {"note": 77, "velocity": 70, "duration": 47}, {"note": 0, "velocity": 0, "duration": 73}, {"note": 77, "velocity": 70, "duration": 44}, {"note": 0, "velocity": 0, "duration": 76}, {"note": 77, "velocity": 70, "duration": 171}, {"note": 0, "velocity": 0, "duration": 69}, {"note": 68, "velocity": 43, "duration": 83}, {"note": 70, "velocity": 92, "duration": 385}, {"note": 73, "velocity": 110, "duration": 93}, {"note": 78, "velocity": 92, "duration": 333}, {"note": 77, "velocity": 80, "duration": 116}, {"note": 75, "velocity": 92, "duration": 321}, {"note": 73, "velocity": 104, "duration": 236}, {"note": 75, "velocity": 92, "duration": 225}, {"note": 73, "velocity": 104, "duration": 91}, {"note": 77, "velocity": 80, "duration": 505}, {"note": 0, "velocity": 0, "duration": 95}, {"note": 75, "velocity": 104, "duration": 142}, {"note": 73, "velocity": 80, "duration": 126}, {"note": 72, "velocity": 83, "duration": 147}, {"note": 73, "velocity": 104, "duration": 483}, {"note": 85, "velocity": 110, "duration": 191}, {"note": 84, "velocity": 92, "duration": 173}, {"note": 82, "velocity": 65, "duration": 157}, {"note": 80, "velocity": 104, "duration": 308}, {"note": 75, "velocity": 92, "duration": 224}, {"note": 0, "velocity": 0, "duration": 96}, {"note": 73, "velocity": 75, "duration": 156}, {"note": 82, "velocity": 110, "duration": 638}, {"note": 0, "velocity": 0, "duration": 482}, {"note": 78, "velocity": 104, "duration": 203}, {"note": 73, "velocity": 92, "duration": 51}, {"note": 0, "velocity": 0, "duration": 69}, {"note": 73, "velocity": 104, "duration": 217}, {"note": 75, "velocity": 110, "duration": 287}, {"note": 0, "velocity": 0, "duration": 73}, {"note": 73, "velocity": 104, "duration": 842}, {"note": 0, "velocity": 0, "duration": 8518}, {"note": 72, "velocity": 86, "duration": 424}, {"note": 65, "velocity": 60, "duration": 48}, {"note": 66, "velocity": 75, "duration": 58}, {"note": 0, "velocity": 0, "duration": 62}, {"note": 65, "velocity": 80, "duration": 200}, {"note": 65, "velocity": 65, "duration": 83}, {"note": 66, "velocity": 60, "duration": 99}, {"note": 65, "velocity": 65, "duration": 152}, {"note": 0, "velocity": 0, "duration": 88}, {"note": 65, "velocity": 55, "duration": 116}, {"note": 66, "velocity": 55, "duration": 76}, {"note": 65, "velocity": 70, "duration": 211}, {"note": 0, "velocity": 0, "duration": 149}, {"note": 63, "velocity": 75, "duration": 235}, {"note": 61, "velocity": 70, "duration": 216}, {"note": 63, "velocity": 75, "duration": 226}, {"note": 68, "velocity": 43, "duration": 920}, {"note": 0, "velocity": 0, "duration": 280}, {"note": 61, "velocity": 55, "duration": 57}, {"note": 0, "velocity": 0, "duration": 63}, {"note": 61, "velocity": 43, "duration": 69}, {"note": 73, "velocity": 55, "duration": 35}, {"note": 0, "velocity": 0, "duration": 85}, {"note": 73, "velocity": 80, "duration": 50}, {"note": 0, "velocity": 0, "duration": 70}, {"note": 75, "velocity": 75, "duration": 113}, {"note": 73, "velocity": 80, "duration": 148}, {"note": 0, "velocity": 0, "duration": 92}, {"note": 73, "velocity": 75, "duration": 49}, {"note": 0, "velocity": 0, "duration": 71}, {"note": 75, "velocity": 104, "duration": 56}, {"note": 0, "velocity": 0, "duration": 64}, {"note": 73, "velocity": 80, "duration": 110}, {"note": 0, "velocity": 0, "duration": 130}, {"note": 73, "velocity": 70, "duration": 66}, {"note": 75, "velocity": 92, "duration": 115}, {"note": 77, "velocity": 65, "duration": 519}, {"note": 0, "velocity": 0, "duration": 81}, {"note": 68, "velocity": 60, "duration": 222}, {"note": 70, "velocity": 43, "duration": 243}, {"note": 68, "velocity": 43, "duration": 1065}, {"note": 0, "velocity": 0, "duration": 255}, {"note": 68, "velocity": 55, "duration": 110}, {"note": 70, "velocity": 70, "duration": 133}, {"note": 0, "velocity": 0, "duration": 107}, {"note": 70, "velocity": 70, "duration": 82}, {"note": 72, "velocity": 92, "duration": 127}, {"note": 0, "velocity": 0, "duration": 113}, {"note": 72, "velocity": 98, "duration": 225}, {"note": 73, "velocity": 92, "duration": 128}, {"note": 75, "velocity": 104, "duration": 214}, {"note": 70, "velocity": 75, "duration": 115}, {"note": 68, "velocity": 51, "duration": 378}, {"note": 73, "velocity": 104, "duration": 117}, {"note": 75, "velocity": 92, "duration": 105}, {"note": 77, "velocity": 92, "duration": 213}, {"note": 77, "velocity": 86, "duration": 123}, {"note": 75, "velocity": 104, "duration": 161}, {"note": 0, "velocity": 0, "duration": 79}, {"note": 77, "velocity": 87, "duration": 197}, {"note": 80, "velocity": 92, "duration": 248}, {"note": 73, "velocity": 104, "duration": 536}, {"note": 0, "velocity": 0, "duration": 184}, {"note": 73, "velocity": 80, "duration": 101}, {"note": 77, "velocity": 86, "duration": 187}, {"note": 75, "velocity": 70, "duration": 184}, {"note": 73, "velocity": 70, "duration": 160}, {"note": 77, "velocity": 70, "duration": 376}, {"note": 77, "velocity": 80, "duration": 16}, {"note": 0, "velocity": 0, "duration": 104}, {"note": 77, "velocity": 86, "duration": 151}, {"note": 75, "velocity": 92, "duration": 181}, {"note": 73, "velocity": 75, "duration": 147}, {"note": 77, "velocity": 98, "duration": 213}, {"note": 78, "velocity": 92, "duration": 208}, {"note": 80, "velocity": 92, "duration": 249}, {"note": 77, "velocity": 80, "duration": 237}, {"note": 75, "velocity": 80, "duration": 424}, {"note": 73, "velocity": 92, "duration": 152}, {"note": 80, "velocity": 104, "duration": 114}, {"note": 82, "velocity": 92, "duration": 119}, {"note": 80, "velocity": 127, "duration": 498}, {"note": 0, "velocity": 0, "duration": 222}, {"note": 77, "velocity": 80, "duration": 53}, {"note": 0, "velocity": 0, "duration": 67}, {"note": 77, "velocity": 55, "duration": 44}, {"note": 0, "velocity": 0, "duration": 76}, {"note": 77, "velocity": 70, "duration": 47}, {"note": 0, "velocity": 0, "duration": 73}, {"note": 77, "velocity": 70, "duration": 44}, {"note": 0, "velocity": 0, "duration": 76}, {"note": 77, "velocity": 70, "duration": 171}, {"note": 0, "velocity": 0, "duration": 69}, {"note": 68, "velocity": 43, "duration": 83}, {"note": 70, "velocity": 92, "duration": 385}, {"note": 73, "velocity": 110, "duration": 93}, {"note": 78, "velocity": 92, "duration": 333}, {"note": 77, "velocity": 80, "duration": 116}, {"note": 75, "velocity": 92, "duration": 321}, {"note": 73, "velocity": 104, "duration": 236}, {"note": 75, "velocity": 92, "duration": 225}, {"note": 73, "velocity": 104, "duration": 91}, {"note": 77, "velocity": 80, "duration": 505}, {"note": 0, "velocity": 0, "duration": 95}, {"note": 75, "velocity": 104, "duration": 208}, {"note": 77, "velocity": 55, "duration": 105}, {"note": 73, "velocity": 92, "duration": 355}, {"note": 0, "velocity": 0, "duration": 125}, {"note": 73, "velocity": 80, "duration": 129}, {"note": 80, "velocity": 110, "duration": 111}, {"note": 0, "velocity": 0, "duration": 129}, {"note": 80, "velocity": 104, "duration": 50}, {"note": 0, "velocity": 0, "duration": 70}, {"note": 80, "velocity": 104, "duration": 259}, {"note": 72, "velocity": 92, "duration": 229}, {"note": 73, "velocity": 104, "duration": 242}, {"note": 75, "velocity": 92, "duration": 221}, {"note": 73, "velocity": 104, "duration": 462}, {"note": 0, "velocity": 0, "duration": 138}, {"note": 78, "velocity": 104, "duration": 164}, {"note": 0, "velocity": 0, "duration": 76}, {"note": 77, "velocity": 70, "duration": 95}, {"note": 75, "velocity": 110, "duration": 321}, {"note": 75, "velocity": 127, "duration": 169}, {"note": 0, "velocity": 0, "duration": 71}, {"note": 73, "velocity": 110, "duration": 121}, {"note": 75, "velocity": 104, "duration": 331}, {"note": 77, "velocity": 80, "duration": 53}, {"note": 0, "velocity": 0, "duration": 67}, {"note": 77, "velocity": 55, "duration": 44}, {"note": 0, "velocity": 0, "duration": 76}, {"note": 77, "velocity": 70, "duration": 47}, {"note": 0, "velocity": 0, "duration": 73}, {"note": 77, "velocity": 70, "duration": 44}, {"note": 0, "velocity": 0, "duration": 76}, {"note": 77, "velocity": 70, "duration": 171}, {"note": 0, "velocity": 0, "duration": 69}, {"note": 68, "velocity": 43, "duration": 83}, {"note": 70, "velocity": 92, "duration": 385}, {"note": 73, "velocity": 110, "duration": 93}, {"note": 78, "velocity": 92, "duration": 333}, {"note": 77, "velocity": 80, "duration": 116}, {"note": 75, "velocity": 92, "duration": 321}, {"note": 73, "velocity": 104, "duration": 236}, {"note": 75, "velocity": 92, "duration": 225}, {"note": 73, "velocity": 104, "duration": 91}, {"note": 77, "velocity": 80, "duration": 505}, {"note": 0, "velocity": 0, "duration": 95}, {"note": 75, "velocity": 104, "duration": 142}, {"note": 73, "velocity": 80, "duration": 126}, {"note": 72, "velocity": 83, "duration": 147}, {"note": 73, "velocity": 104, "duration": 483}, {"note": 85, "velocity": 110, "duration": 191}, {"note": 84, "velocity": 92, "duration": 173}, {"note": 82, "velocity": 65, "duration": 157}, {"note": 80, "velocity": 104, "duration": 308}, {"note": 75, "velocity": 92, "duration": 224}, {"note": 0, "velocity": 0, "duration": 96}, {"note": 73, "velocity": 75, "duration": 156}, {"note": 82, "velocity": 110, "duration": 638}, {"note": 0, "velocity": 0, "duration": 482}, {"note": 78, "velocity": 104, "duration": 203}, {"note": 73, "velocity": 92, "duration": 51}, {"note": 0, "velocity": 0, "duration": 69}, {"note": 73, "velocity": 104, "duration": 217}, {"note": 75, "velocity": 110, "duration": 287}, {"note": 0, "velocity": 0, "duration": 73}, {"note": 73, "velocity": 104, "duration": 842}, {"note": 0, "velocity": 0, "duration": 1078}, {"note": 77, "velocity": 80, "duration": 53}, {"note": 0, "velocity": 0, "duration": 67}, {"note": 77, "velocity": 55, "duration": 44}, {"note": 0, "velocity": 0, "duration": 76}, {"note": 77, "velocity": 70, "duration": 47}, {"note": 0, "velocity": 0, "duration": 73}, {"note": 77, "velocity": 70, "duration": 44}, {"note": 0, "velocity": 0, "duration": 76}, {"note": 77, "velocity": 70, "duration": 171}, {"note": 0, "velocity": 0, "duration": 69}, {"note": 68, "velocity": 43, "duration": 83}, {"note": 70, "velocity": 92, "duration": 385}, {"note": 73, "velocity": 110, "duration": 93}, {"note": 78, "velocity": 92, "duration": 333}, {"note": 0, "velocity": 0, "duration": 147}, {"note": 77, "velocity": 80, "duration": 116}, {"note": 75, "velocity": 92, "duration": 238}, {"note": 73, "velocity": 104, "duration": 236}, {"note": 75, "velocity": 92, "duration": 225}, {"note": 73, "velocity": 104, "duration": 238}, {"note": 77, "velocity": 80, "duration": 478}, {"note": 75, "velocity": 104, "duration": 208}, {"note": 77, "velocity": 55, "duration": 105}, {"note": 73, "velocity": 92, "duration": 355}, {"note": 0, "velocity": 0, "duration": 125}, {"note": 73, "velocity": 80, "duration": 129}, {"note": 80, "velocity": 110, "duration": 111}, {"note": 0, "velocity": 0, "duration": 129}, {"note": 80, "velocity": 104, "duration": 50}, {"note": 0, "velocity": 0, "duration": 70}, {"note": 80, "velocity": 104, "duration": 259}, {"note": 72, "velocity": 92, "duration": 229}, {"note": 73, "velocity": 104, "duration": 242}, {"note": 75, "velocity": 92, "duration": 221}, {"note": 73, "velocity": 104, "duration": 462}, {"note": 70, "velocity": 104, "duration": 90}, {"note": 78, "velocity": 104, "duration": 164}, {"note": 0, "velocity": 0, "duration": 76}, {"note": 77, "velocity": 70, "duration": 95}, {"note": 75, "velocity": 110, "duration": 321}, {"note": 75, "velocity": 127, "duration": 169}, {"note": 0, "velocity": 0, "duration": 71}, {"note": 73, "velocity": 110, "duration": 121}, {"note": 75, "velocity": 104, "duration": 331}, {"note": 77, "velocity": 80, "duration": 53}, {"note": 0, "velocity": 0, "duration": 67}, {"note": 77, "velocity": 55, "duration": 44}, {"note": 0, "velocity": 0, "duration": 76}, {"note": 77, "velocity": 70, "duration": 47}, {"note": 0, "velocity": 0, "duration": 73}, {"note": 77, "velocity": 70, "duration": 44}, {"note": 0, "velocity": 0, "duration": 76}, {"note": 77, "velocity": 70, "duration": 171}, {"note": 0, "velocity": 0, "duration": 69}, {"note": 68, "velocity": 43, "duration": 83}, {"note": 70, "velocity": 92, "duration": 385}, {"note": 73, "velocity": 110, "duration": 93}, {"note": 78, "velocity": 92, "duration": 333}, {"note": 77, "velocity": 80, "duration": 116}, {"note": 75, "velocity": 92, "duration": 321}, {"note": 73, "velocity": 104, "duration": 236}, {"note": 75, "velocity": 92, "duration": 225}, {"note": 73, "velocity": 104, "duration": 91}, {"note": 77, "velocity": 80, "duration": 505}, {"note": 0, "velocity": 0, "duration": 95}, {"note": 75, "velocity": 104, "duration": 142}, {"note": 73, "velocity": 80, "duration": 126}, {"note": 72, "velocity": 83, "duration": 147}, {"note": 73, "velocity": 104, "duration": 483}, {"note": 85, "velocity": 110, "duration": 191}, {"note": 84, "velocity": 92, "duration": 173}, {"note": 82, "velocity": 65, "duration": 157}, {"note": 80, "velocity": 104, "duration": 308}, {"note": 75, "velocity": 92, "duration": 224}, {"note": 0, "velocity": 0, "duration": 96}, {"note": 73, "velocity": 75, "duration": 156}, {"note": 82, "velocity": 110, "duration": 638}, {"note": 0, "velocity": 0, "duration": 482}, {"note": 78, "velocity": 104, "duration": 203}, {"note": 73, "velocity": 92, "duration": 51}, {"note": 0, "velocity": 0, "duration": 69}, {"note": 73, "velocity": 104, "duration": 217}, {"note": 75, "velocity": 110, "duration": 287}, {"note": 0, "velocity": 0, "duration": 73}, {"note": 73, "velocity": 104, "duration": 842}, {"note": 0, "velocity": 0, "duration": 358}, {"note": 77, "velocity": 98, "duration": 188}, {"note": 75, "velocity": 92, "duration": 259}, {"note": 72, "velocity": 90, "duration": 229}, {"note": 73, "velocity": 104, "duration": 427}, {"note": 85, "velocity": 104, "duration": 248}, {"note": 84, "velocity": 55, "duration": 235}, {"note": 82, "velocity": 43, "duration": 227}, {"note": 80, "velocity": 35, "duration": 238}, {"note": 75, "velocity": 80, "duration": 239}, {"note": 73, "velocity": 51, "duration": 244}, {"note": 82, "velocity": 75, "duration": 893}, {"note": 0, "velocity": 0, "duration": 202}, {"note": 78, "velocity": 75, "duration": 333}, {"note": 73, "velocity": 80, "duration": 167}, {"note": 0, "velocity": 0, "duration": 69}, {"note": 73, "velocity": 75, "duration": 1076}, {"note": 0, "velocity": 0, "duration": 319}, {"note": 75, "velocity": 75, "duration": 417}, {"note": 73, "velocity": 60, "duration": 1576}]]