[[{"note": 72, "velocity": 68, "duration": 63}, {"note": 72, "velocity": 69, "duration": 64}, {"note": 72, "velocity": 87, "duration": 58}, {"note": 0, "velocity": 0, "duration": 62}, {"note": 72, "velocity": 93, "duration": 117}, {"note": 0, "velocity": 0, "duration": 243}, {"note": 71, "velocity": 87, "duration": 197}, {"note": 72, "velocity": 83, "duration": 82}, {"note": 71, "velocity": 93, "duration": 213}, {"note": 67, "velocity": 93, "duration": 240}, {"note": 64, "velocity": 93, "duration": 66}, {"note": 69, "velocity": 83, "duration": 61}, {"note": 69, "velocity": 80, "duration": 49}, {"note": 0, "velocity": 0, "duration": 71}, {"note": 69, "velocity": 85, "duration": 55}, {"note": 0, "velocity": 0, "duration": 65}, {"note": 69, "velocity": 90, "duration": 61}, {"note": 69, "velocity": 102, "duration": 73}, {"note": 71, "velocity": 93, "duration": 58}, {"note": 0, "velocity": 0, "duration": 62}, {"note": 69, "velocity": 85, "duration": 58}, {"note": 0, "velocity": 0, "duration": 62}, {"note": 64, "velocity": 93, "duration": 659}, {"note": 0, "velocity": 0, "duration": 301}, {"note": 60, "velocity": 87, "duration": 76}, {"note": 65, "velocity": 87, "duration": 66}, {"note": 65, "velocity": 87, "duration": 114}, {"note": 0, "velocity": 0, "duration": 126}, {"note": 65, "velocity": 74, "duration": 54}, {"note": 0, "velocity": 0, "duration": 66}, {"note": 65, "velocity": 87, "duration": 240}, {"note": 64, "velocity": 80, "duration": 120}, {"note": 65, "velocity": 90, "duration": 583}, {"note": 0, "velocity": 0, "duration": 377}, {"note": 67, "velocity": 87, "duration": 73}, {"note": 71, "velocity": 72, "duration": 58}, {"note": 0, "velocity": 0, "duration": 62}, {"note": 71, "velocity": 87, "duration": 241}, {"note": 0, "velocity": 0, "duration": 119}, {"note": 71, "velocity": 95, "duration": 162}, {"note": 0, "velocity": 0, "duration": 78}, {"note": 72, "velocity": 80, "duration": 69}, {"note": 71, "velocity": 102, "duration": 236}, {"note": 69, "velocity": 87, "duration": 118}, {"note": 67, "velocity": 74, "duration": 611}, {"note": 0, "velocity": 0, "duration": 349}, {"note": 72, "velocity": 87, "duration": 66}, {"note": 72, "velocity": 80, "duration": 71}, {"note": 72, "velocity": 83, "duration": 79}, {"note": 79, "velocity": 103, "duration": 106}, {"note": 0, "velocity": 0, "duration": 254}, {"note": 71, "velocity": 80, "duration": 63}, {"note": 71, "velocity": 87, "duration": 60}, {"note": 71, "velocity": 93, "duration": 60}, {"note": 71, "velocity": 93, "duration": 63}, {"note": 71, "velocity": 95, "duration": 71}, {"note": 79, "velocity": 102, "duration": 238}, {"note": 0, "velocity": 0, "duration": 122}, {"note": 81, "velocity": 87, "duration": 55}, {"note": 0, "velocity": 0, "duration": 65}, {"note": 81, "velocity": 85, "duration": 52}, {"note": 0, "velocity": 0, "duration": 68}, {"note": 81, "velocity": 87, "duration": 51}, {"note": 0, "velocity": 0, "duration": 69}, {"note": 81, "velocity": 87, "duration": 49}, {"note": 0, "velocity": 0, "duration": 71}, {"note": 81, "velocity": 95, "duration": 171}, {"note": 0, "velocity": 0, "duration": 69}, {"note": 79, "velocity": 87, "duration": 63}, {"note": 76, "velocity": 93, "duration": 480}, {"note": 0, "velocity": 0, "duration": 120}, {"note": 76, "velocity": 87, "duration": 63}, {"note": 76, "velocity": 95, "duration": 75}, {"note": 74, "velocity": 93, "duration": 63}, {"note": 72, "velocity": 87, "duration": 64}, {"note": 74, "velocity": 87, "duration": 71}, {"note": 76, "velocity": 93, "duration": 54}, {"note": 0, "velocity": 0, "duration": 66}, {"note": 74, "velocity": 95, "duration": 948}, {"note": 0, "velocity": 0, "duration": 252}, {"note": 74, "velocity": 90, "duration": 71}, {"note": 76, "velocity": 93, "duration": 80}, {"note": 74, "velocity": 71, "duration": 65}, {"note": 72, "velocity": 74, "duration": 64}, {"note": 74, "velocity": 95, "duration": 200}, {"note": 72, "velocity": 95, "duration": 1151}, {"note": 0, "velocity": 0, "duration": 529}, {"note": 72, "velocity": 87, "duration": 413}, {"note": 0, "velocity": 0, "duration": 67}, {"note": 74, "velocity": 95, "duration": 374}, {"note": 0, "velocity": 0, "duration": 106}, {"note": 76, "velocity": 102, "duration": 96}, {"note": 74, "velocity": 87, "duration": 87}, {"note": 72, "velocity": 90, "duration": 76}, {"note": 74, "velocity": 102, "duration": 66}, {"note": 76, "velocity": 103, "duration": 216}, {"note": 79, "velocity": 102, "duration": 73}, {"note": 74, "velocity": 102, "duration": 438}, {"note": 0, "velocity": 0, "duration": 642}, {"note": 72, "velocity": 87, "duration": 104}, {"note": 71, "velocity": 87, "duration": 87}, {"note": 69, "velocity": 90, "duration": 74}, {"note": 71, "velocity": 93, "duration": 63}, {"note": 72, "velocity": 95, "duration": 226}, {"note": 69, "velocity": 93, "duration": 120}, {"note": 71, "velocity": 95, "duration": 606}, {"note": 0, "velocity": 0, "duration": 474}, {"note": 69, "velocity": 83, "duration": 123}, {"note": 67, "velocity": 80, "duration": 128}, {"note": 65, "velocity": 95, "duration": 114}, {"note": 67, "velocity": 87, "duration": 152}, {"note": 69, "velocity": 93, "duration": 253}, {"note": 72, "velocity": 93, "duration": 125}, {"note": 69, "velocity": 93, "duration": 241}, {"note": 67, "velocity": 87, "duration": 280}, {"note": 0, "velocity": 0, "duration": 80}, {"note": 72, "velocity": 93, "duration": 78}, {"note": 74, "velocity": 93, "duration": 77}, {"note": 76, "velocity": 93, "duration": 67}, {"note": 76, "velocity": 93, "duration": 61}, {"note": 76, "velocity": 95, "duration": 78}, {"note": 77, "velocity": 105, "duration": 286}, {"note": 0, "velocity": 0, "duration": 74}, {"note": 74, "velocity": 102, "duration": 203}, {"note": 72, "velocity": 87, "duration": 90}, {"note": 74, "velocity": 95, "duration": 843}, {"note": 0, "velocity": 0, "duration": 237}, {"note": 76, "velocity": 105, "duration": 105}, {"note": 74, "velocity": 87, "duration": 96}, {"note": 72, "velocity": 93, "duration": 85}, {"note": 74, "velocity": 93, "duration": 71}, {"note": 76, "velocity": 102, "duration": 235}, {"note": 79, "velocity": 93, "duration": 86}, {"note": 76, "velocity": 74, "duration": 225}, {"note": 74, "velocity": 103, "duration": 422}, {"note": 0, "velocity": 0, "duration": 418}, {"note": 72, "velocity": 93, "duration": 108}, {"note": 71, "velocity": 87, "duration": 108}, {"note": 69, "velocity": 95, "duration": 96}, {"note": 71, "velocity": 95, "duration": 104}, {"note": 72, "velocity": 93, "duration": 235}, {"note": 69, "velocity": 95, "duration": 111}, {"note": 71, "velocity": 102, "duration": 258}, {"note": 69, "velocity": 87, "duration": 121}, {"note": 67, "velocity": 87, "duration": 549}, {"note": 67, "velocity": 102, "duration": 105}, {"note": 69, "velocity": 105, "duration": 90}, {"note": 67, "velocity": 80, "duration": 108}, {"note": 65, "velocity": 72, "duration": 120}, {"note": 67, "velocity": 80, "duration": 76}, {"note": 69, "velocity": 102, "duration": 150}, {"note": 0, "velocity": 0, "duration": 90}, {"note": 69, "velocity": 87, "duration": 101}, {"note": 72, "velocity": 90, "duration": 64}, {"note": 69, "velocity": 87, "duration": 76}, {"note": 67, "velocity": 90, "duration": 233}, {"note": 0, "velocity": 0, "duration": 127}, {"note": 72, "velocity": 90, "duration": 70}, {"note": 74, "velocity": 93, "duration": 52}, {"note": 0, "velocity": 0, "duration": 68}, {"note": 76, "velocity": 102, "duration": 162}, {"note": 0, "velocity": 0, "duration": 78}, {"note": 76, "velocity": 102, "duration": 190}, {"note": 77, "velocity": 105, "duration": 161}, {"note": 0, "velocity": 0, "duration": 79}, {"note": 74, "velocity": 95, "duration": 235}, {"note": 72, "velocity": 87, "duration": 80}, {"note": 74, "velocity": 102, "duration": 429}, {"note": 0, "velocity": 0, "duration": 171}, {"note": 72, "velocity": 90, "duration": 236}, {"note": 71, "velocity": 93, "duration": 245}, {"note": 74, "velocity": 93, "duration": 228}, {"note": 72, "velocity": 87, "duration": 973}, {"note": 0, "velocity": 0, "duration": 7667}, {"note": 72, "velocity": 68, "duration": 63}, {"note": 72, "velocity": 69, "duration": 64}, {"note": 72, "velocity": 87, "duration": 58}, {"note": 0, "velocity": 0, "duration": 62}, {"note": 72, "velocity": 93, "duration": 117}, {"note": 0, "velocity": 0, "duration": 243}, {"note": 71, "velocity": 87, "duration": 197}, {"note": 72, "velocity": 83, "duration": 82}, {"note": 71, "velocity": 93, "duration": 213}, {"note": 67, "velocity": 93, "duration": 240}, {"note": 64, "velocity": 93, "duration": 66}, {"note": 69, "velocity": 83, "duration": 61}, {"note": 69, "velocity": 80, "duration": 49}, {"note": 0, "velocity": 0, "duration": 71}, {"note": 69, "velocity": 85, "duration": 55}, {"note": 0, "velocity": 0, "duration": 65}, {"note": 69, "velocity": 90, "duration": 61}, {"note": 69, "velocity": 102, "duration": 73}, {"note": 71, "velocity": 93, "duration": 58}, {"note": 0, "velocity": 0, "duration": 62}, {"note": 69, "velocity": 85, "duration": 58}, {"note": 0, "velocity": 0, "duration": 62}, {"note": 64, "velocity": 93, "duration": 659}, {"note": 0, "velocity": 0, "duration": 301}, {"note": 60, "velocity": 87, "duration": 76}, {"note": 65, "velocity": 87, "duration": 66}, {"note": 65, "velocity": 87, "duration": 114}, {"note": 0, "velocity": 0, "duration": 126}, {"note": 65, "velocity": 74, "duration": 54}, {"note": 0, "velocity": 0, "duration": 66}, {"note": 65, "velocity": 87, "duration": 240}, {"note": 64, "velocity": 80, "duration": 120}, {"note": 65, "velocity": 90, "duration": 583}, {"note": 0, "velocity": 0, "duration": 377}, {"note": 67, "velocity": 87, "duration": 73}, {"note": 71, "velocity": 72, "duration": 58}, {"note": 0, "velocity": 0, "duration": 62}, {"note": 71, "velocity": 87, "duration": 241}, {"note": 0, "velocity": 0, "duration": 119}, {"note": 71, "velocity": 95, "duration": 162}, {"note": 0, "velocity": 0, "duration": 78}, {"note": 72, "velocity": 80, "duration": 69}, {"note": 71, "velocity": 102, "duration": 236}, {"note": 69, "velocity": 87, "duration": 118}, {"note": 67, "velocity": 74, "duration": 611}, {"note": 0, "velocity": 0, "duration": 349}, {"note": 72, "velocity": 87, "duration": 66}, {"note": 72, "velocity": 80, "duration": 71}, {"note": 72, "velocity": 83, "duration": 79}, {"note": 79, "velocity": 103, "duration": 106}, {"note": 0, "velocity": 0, "duration": 254}, {"note": 71, "velocity": 80, "duration": 63}, {"note": 71, "velocity": 87, "duration": 60}, {"note": 71, "velocity": 93, "duration": 60}, {"note": 71, "velocity": 93, "duration": 63}, {"note": 71, "velocity": 95, "duration": 71}, {"note": 79, "velocity": 102, "duration": 238}, {"note": 0, "velocity": 0, "duration": 122}, {"note": 81, "velocity": 87, "duration": 55}, {"note": 0, "velocity": 0, "duration": 65}, {"note": 81, "velocity": 85, "duration": 52}, {"note": 0, "velocity": 0, "duration": 68}, {"note": 81, "velocity": 87, "duration": 51}, {"note": 0, "velocity": 0, "duration": 69}, {"note": 81, "velocity": 87, "duration": 49}, {"note": 0, "velocity": 0, "duration": 71}, {"note": 81, "velocity": 95, "duration": 171}, {"note": 0, "velocity": 0, "duration": 69}, {"note": 79, "velocity": 87, "duration": 63}, {"note": 76, "velocity": 93, "duration": 480}, {"note": 0, "velocity": 0, "duration": 120}, {"note": 76, "velocity": 87, "duration": 63}, {"note": 76, "velocity": 95, "duration": 75}, {"note": 74, "velocity": 93, "duration": 63}, {"note": 72, "velocity": 87, "duration": 64}, {"note": 74, "velocity": 87, "duration": 71}, {"note": 76, "velocity": 93, "duration": 54}, {"note": 0, "velocity": 0, "duration": 66}, {"note": 74, "velocity": 95, "duration": 948}, {"note": 0, "velocity": 0, "duration": 252}, {"note": 74, "velocity": 90, "duration": 71}, {"note": 76, "velocity": 93, "duration": 80}, {"note": 74, "velocity": 71, "duration": 65}, {"note": 72, "velocity": 74, "duration": 64}, {"note": 74, "velocity": 95, "duration": 200}, {"note": 72, "velocity": 95, "duration": 1151}, {"note": 0, "velocity": 0, "duration": 529}, {"note": 76, "velocity": 102, "duration": 96}, {"note": 74, "velocity": 87, "duration": 87}, {"note": 72, "velocity": 90, "duration": 76}, {"note": 74, "velocity": 102, "duration": 66}, {"note": 76, "velocity": 103, "duration": 216}, {"note": 79, "velocity": 102, "duration": 73}, {"note": 74, "velocity": 102, "duration": 438}, {"note": 0, "velocity": 0, "duration": 642}, {"note": 72, "velocity": 87, "duration": 104}, {"note": 71, "velocity": 87, "duration": 87}, {"note": 69, "velocity": 90, "duration": 74}, {"note": 71, "velocity": 93, "duration": 63}, {"note": 72, "velocity": 95, "duration": 226}, {"note": 69, "velocity": 93, "duration": 120}, {"note": 71, "velocity": 95, "duration": 606}, {"note": 0, "velocity": 0, "duration": 474}, {"note": 69, "velocity": 83, "duration": 123}, {"note": 67, "velocity": 80, "duration": 128}, {"note": 65, "velocity": 95, "duration": 114}, {"note": 67, "velocity": 87, "duration": 152}, {"note": 69, "velocity": 93, "duration": 253}, {"note": 72, "velocity": 93, "duration": 125}, {"note": 69, "velocity": 93, "duration": 241}, {"note": 67, "velocity": 87, "duration": 280}, {"note": 0, "velocity": 0, "duration": 80}, {"note": 72, "velocity": 93, "duration": 78}, {"note": 74, "velocity": 93, "duration": 77}, {"note": 76, "velocity": 93, "duration": 67}, {"note": 76, "velocity": 93, "duration": 61}, {"note": 76, "velocity": 95, "duration": 78}, {"note": 77, "velocity": 105, "duration": 286}, {"note": 0, "velocity": 0, "duration": 74}, {"note": 74, "velocity": 102, "duration": 203}, {"note": 72, "velocity": 87, "duration": 90}, {"note": 74, "velocity": 95, "duration": 843}, {"note": 0, "velocity": 0, "duration": 237}, {"note": 76, "velocity": 105, "duration": 105}, {"note": 74, "velocity": 87, "duration": 96}, {"note": 72, "velocity": 93, "duration": 85}, {"note": 74, "velocity": 93, "duration": 71}, {"note": 76, "velocity": 102, "duration": 235}, {"note": 79, "velocity": 93, "duration": 86}, {"note": 76, "velocity": 74, "duration": 225}, {"note": 74, "velocity": 103, "duration": 422}, {"note": 0, "velocity": 0, "duration": 418}, {"note": 72, "velocity": 93, "duration": 108}, {"note": 71, "velocity": 87, "duration": 108}, {"note": 69, "velocity": 95, "duration": 96}, {"note": 71, "velocity": 95, "duration": 104}, {"note": 72, "velocity": 93, "duration": 235}, {"note": 69, "velocity": 95, "duration": 111}, {"note": 71, "velocity": 102, "duration": 258}, {"note": 69, "velocity": 87, "duration": 121}, {"note": 67, "velocity": 87, "duration": 549}, {"note": 67, "velocity": 102, "duration": 105}, {"note": 69, "velocity": 105, "duration": 90}, {"note": 67, "velocity": 80, "duration": 108}, {"note": 65, "velocity": 72, "duration": 120}, {"note": 67, "velocity": 80, "duration": 76}, {"note": 69, "velocity": 102, "duration": 150}, {"note": 0, "velocity": 0, "duration": 90}, {"note": 69, "velocity": 87, "duration": 101}, {"note": 72, "velocity": 90, "duration": 64}, {"note": 69, "velocity": 87, "duration": 76}, {"note": 67, "velocity": 90, "duration": 233}, {"note": 0, "velocity": 0, "duration": 127}, {"note": 72, "velocity": 90, "duration": 70}, {"note": 74, "velocity": 93, "duration": 52}, {"note": 0, "velocity": 0, "duration": 68}, {"note": 76, "velocity": 102, "duration": 162}, {"note": 0, "velocity": 0, "duration": 78}, {"note": 76, "velocity": 102, "duration": 190}, {"note": 77, "velocity": 105, "duration": 161}, {"note": 0, "velocity": 0, "duration": 79}, {"note": 74, "velocity": 95, "duration": 235}, {"note": 72, "velocity": 87, "duration": 80}, {"note": 74, "velocity": 102, "duration": 429}, {"note": 0, "velocity": 0, "duration": 171}, {"note": 72, "velocity": 90, "duration": 236}, {"note": 71, "velocity": 93, "duration": 245}, {"note": 74, "velocity": 93, "duration": 228}, {"note": 72, "velocity": 87, "duration": 973}, {"note": 0, "velocity": 0, "duration": 10307}, {"note": 76, "velocity": 102, "duration": 96}, {"note": 74, "velocity": 87, "duration": 87}, {"note": 72, "velocity": 90, "duration": 76}, {"note": 74, "velocity": 102, "duration": 66}, {"note": 76, "velocity": 103, "duration": 216}, {"note": 79, "velocity": 102, "duration": 73}, {"note": 74, "velocity": 102, "duration": 438}, {"note": 0, "velocity": 0, "duration": 642}, {"note": 72, "velocity": 87, "duration": 104}, {"note": 71, "velocity": 87, "duration": 87}, {"note": 69, "velocity": 90, "duration": 74}, {"note": 71, "velocity": 93, "duration": 63}, {"note": 72, "velocity": 95, "duration": 226}, {"note": 69, "velocity": 93, "duration": 120}, {"note": 71, "velocity": 95, "duration": 606}, {"note": 0, "velocity": 0, "duration": 474}, {"note": 69, "velocity": 83, "duration": 123}, {"note": 67, "velocity": 80, "duration": 128}, {"note": 65, "velocity": 95, "duration": 114}, {"note": 67, "velocity": 87, "duration": 152}, {"note": 69, "velocity": 93, "duration": 253}, {"note": 72, "velocity": 93, "duration": 125}, {"note": 69, "velocity": 93, "duration": 241}, {"note": 67, "velocity": 87, "duration": 280}, {"note": 0, "velocity": 0, "duration": 80}, {"note": 72, "velocity": 93, "duration": 78}, {"note": 74, "velocity": 93, "duration": 77}, {"note": 76, "velocity": 93, "duration": 67}, {"note": 76, "velocity": 93, "duration": 61}, {"note": 76, "velocity": 95, "duration": 78}, {"note": 77, "velocity": 105, "duration": 286}, {"note": 0, "velocity": 0, "duration": 74}, {"note": 74, "velocity": 102, "duration": 203}, {"note": 72, "velocity": 87, "duration": 90}, {"note": 74, "velocity": 95, "duration": 843}, {"note": 0, "velocity": 0, "duration": 237}, {"note": 76, "velocity": 105, "duration": 105}, {"note": 74, "velocity": 87, "duration": 96}, {"note": 72, "velocity": 93, "duration": 85}, {"note": 74, "velocity": 93, "duration": 71}, {"note": 76, "velocity": 102, "duration": 235}, {"note": 79, "velocity": 93, "duration": 86}, {"note": 76, "velocity": 74, "duration": 225}, {"note": 74, "velocity": 103, "duration": 422}, {"note": 0, "velocity": 0, "duration": 418}, {"note": 72, "velocity": 93, "duration": 108}, {"note": 71, "velocity": 87, "duration": 108}, {"note": 69, "velocity": 95, "duration": 96}, {"note": 71, "velocity": 95, "duration": 104}, {"note": 72, "velocity": 93, "duration": 235}, {"note": 69, "velocity": 95, "duration": 111}, {"note": 71, "velocity": 102, "duration": 258}, {"note": 69, "velocity": 87, "duration": 121}, {"note": 67, "velocity": 87, "duration": 549}, {"note": 67, "velocity": 102, "duration": 105}, {"note": 69, "velocity": 105, "duration": 90}, {"note": 67, "velocity": 80, "duration": 108}, {"note": 65, "velocity": 72, "duration": 120}, {"note": 67, "velocity": 80, "duration": 76}, {"note": 69, "velocity": 102, "duration": 150}, {"note": 0, "velocity": 0, "duration": 90}, {"note": 69, "velocity": 87, "duration": 101}, {"note": 72, "velocity": 90, "duration": 64}, {"note": 69, "velocity": 87, "duration": 76}, {"note": 67, "velocity": 90, "duration": 233}, {"note": 0, "velocity": 0, "duration": 127}, {"note": 72, "velocity": 90, "duration": 70}, {"note": 74, "velocity": 93, "duration": 52}, {"note": 0, "velocity": 0, "duration": 68}, {"note": 76, "velocity": 102, "duration": 162}, {"note": 0, "velocity": 0, "duration": 78}, {"note": 76, "velocity": 102, "duration": 190}, {"note": 77, "velocity": 105, "duration": 161}, {"note": 0, "velocity": 0, "duration": 79}, {"note": 74, "velocity": 95, "duration": 235}, {"note": 72, "velocity": 87, "duration": 80}, {"note": 74, "velocity": 102, "duration": 429}, {"note": 0, "velocity": 0, "duration": 1086}, {"note": 72, "velocity": 93, "duration": 380}, {"note": 71, "velocity": 74, "duration": 139}, {"note": 74, "velocity": 102, "duration": 234}, {"note": 72, "velocity": 87, "duration": 752}]]