[[{"note": 64, "velocity": 80, "duration": 194}, {"note": 59, "velocity": 43, "duration": 269}, {"note": 64, "velocity": 55, "duration": 254}, {"note": 68, "velocity": 55, "duration": 228}, {"note": 69, "velocity": 55, "duration": 222}, {"note": 68, "velocity": 55, "duration": 243}, {"note": 66, "velocity": 51, "duration": 113}, {"note": 64, "velocity": 43, "duration": 358}, {"note": 64, "velocity": 80, "duration": 235}, {"note": 59, "velocity": 51, "duration": 260}, {"note": 64, "velocity": 55, "duration": 252}, {"note": 66, "velocity": 55, "duration": 138}, {"note": 68, "velocity": 48, "duration": 639}, {"note": 0, "velocity": 0, "duration": 441}, {"note": 64, "velocity": 60, "duration": 194}, {"note": 59, "velocity": 41, "duration": 238}, {"note": 64, "velocity": 51, "duration": 254}, {"note": 68, "velocity": 43, "duration": 238}, {"note": 69, "velocity": 43, "duration": 265}, {"note": 68, "velocity": 43, "duration": 238}, {"note": 66, "velocity": 55, "duration": 112}, {"note": 64, "velocity": 51, "duration": 302}, {"note": 68, "velocity": 70, "duration": 252}, {"note": 66, "velocity": 70, "duration": 238}, {"note": 66, "velocity": 80, "duration": 202}, {"note": 64, "velocity": 60, "duration": 139}, {"note": 0, "velocity": 0, "duration": 101}, {"note": 64, "velocity": 65, "duration": 609}, {"note": 0, "velocity": 0, "duration": 351}, {"note": 64, "velocity": 80, "duration": 230}, {"note": 59, "velocity": 51, "duration": 266}, {"note": 64, "velocity": 65, "duration": 275}, {"note": 68, "velocity": 35, "duration": 261}, {"note": 69, "velocity": 51, "duration": 255}, {"note": 68, "velocity": 45, "duration": 268}, {"note": 66, "velocity": 60, "duration": 110}, {"note": 64, "velocity": 60, "duration": 354}, {"note": 73, "velocity": 104, "duration": 206}, {"note": 71, "velocity": 55, "duration": 153}, {"note": 0, "velocity": 0, "duration": 87}, {"note": 71, "velocity": 60, "duration": 233}, {"note": 69, "velocity": 65, "duration": 238}, {"note": 68, "velocity": 39, "duration": 681}, {"note": 0, "velocity": 0, "duration": 279}, {"note": 64, "velocity": 60, "duration": 259}, {"note": 59, "velocity": 30, "duration": 269}, {"note": 64, "velocity": 55, "duration": 250}, {"note": 68, "velocity": 39, "duration": 269}, {"note": 69, "velocity": 51, "duration": 251}, {"note": 68, "velocity": 43, "duration": 107}, {"note": 66, "velocity": 48, "duration": 359}, {"note": 0, "velocity": 0, "duration": 121}, {"note": 64, "velocity": 43, "duration": 119}, {"note": 68, "velocity": 70, "duration": 219}, {"note": 66, "velocity": 60, "duration": 113}, {"note": 0, "velocity": 0, "duration": 127}, {"note": 66, "velocity": 80, "duration": 219}, {"note": 64, "velocity": 60, "duration": 141}, {"note": 0, "velocity": 0, "duration": 99}, {"note": 64, "velocity": 60, "duration": 674}, {"note": 64, "velocity": 60, "duration": 238}, {"note": 61, "velocity": 55, "duration": 446}, {"note": 73, "velocity": 92, "duration": 418}, {"note": 0, "velocity": 0, "duration": 62}, {"note": 71, "velocity": 80, "duration": 228}, {"note": 68, "velocity": 55, "duration": 118}, {"note": 0, "velocity": 0, "duration": 122}, {"note": 68, "velocity": 48, "duration": 238}, {"note": 0, "velocity": 0, "duration": 122}, {"note": 68, "velocity": 43, "duration": 118}, {"note": 69, "velocity": 51, "duration": 225}, {"note": 71, "velocity": 43, "duration": 235}, {"note": 64, "velocity": 55, "duration": 258}, {"note": 71, "velocity": 80, "duration": 241}, {"note": 68, "velocity": 75, "duration": 447}, {"note": 0, "velocity": 0, "duration": 93}, {"note": 64, "velocity": 65, "duration": 196}, {"note": 63, "velocity": 48, "duration": 246}, {"note": 61, "velocity": 39, "duration": 463}, {"note": 73, "velocity": 92, "duration": 171}, {"note": 0, "velocity": 0, "duration": 189}, {"note": 73, "velocity": 110, "duration": 60}, {"note": 73, "velocity": 55, "duration": 113}, {"note": 75, "velocity": 92, "duration": 118}, {"note": 71, "velocity": 55, "duration": 118}, {"note": 0, "velocity": 0, "duration": 122}, {"note": 71, "velocity": 80, "duration": 324}, {"note": 71, "velocity": 70, "duration": 118}, {"note": 73, "velocity": 92, "duration": 175}, {"note": 0, "velocity": 0, "duration": 65}, {"note": 71, "velocity": 65, "duration": 238}, {"note": 69, "velocity": 55, "duration": 177}, {"note": 0, "velocity": 0, "duration": 63}, {"note": 68, "velocity": 70, "duration": 135}, {"note": 0, "velocity": 0, "duration": 105}, {"note": 68, "velocity": 70, "duration": 925}, {"note": 66, "velocity": 75, "duration": 483}, {"note": 0, "velocity": 0, "duration": 1197}, {"note": 73, "velocity": 104, "duration": 126}, {"note": 75, "velocity": 104, "duration": 118}, {"note": 76, "velocity": 86, "duration": 137}, {"note": 0, "velocity": 0, "duration": 103}, {"note": 76, "velocity": 60, "duration": 57}, {"note": 0, "velocity": 0, "duration": 63}, {"note": 76, "velocity": 86, "duration": 208}, {"note": 0, "velocity": 0, "duration": 152}, {"note": 76, "velocity": 80, "duration": 227}, {"note": 75, "velocity": 104, "duration": 397}, {"note": 0, "velocity": 0, "duration": 323}, {"note": 75, "velocity": 75, "duration": 59}, {"note": 0, "velocity": 0, "duration": 61}, {"note": 75, "velocity": 80, "duration": 56}, {"note": 0, "velocity": 0, "duration": 64}, {"note": 75, "velocity": 104, "duration": 108}, {"note": 0, "velocity": 0, "duration": 132}, {"note": 75, "velocity": 92, "duration": 118}, {"note": 0, "velocity": 0, "duration": 122}, {"note": 75, "velocity": 104, "duration": 238}, {"note": 80, "velocity": 104, "duration": 238}, {"note": 78, "velocity": 92, "duration": 360}, {"note": 76, "velocity": 86, "duration": 271}, {"note": 0, "velocity": 0, "duration": 89}, {"note": 73, "velocity": 104, "duration": 118}, {"note": 75, "velocity": 92, "duration": 87}, {"note": 76, "velocity": 80, "duration": 103}, {"note": 0, "velocity": 0, "duration": 137}, {"note": 76, "velocity": 55, "duration": 54}, {"note": 0, "velocity": 0, "duration": 66}, {"note": 76, "velocity": 70, "duration": 185}, {"note": 0, "velocity": 0, "duration": 175}, {"note": 76, "velocity": 92, "duration": 216}, {"note": 75, "velocity": 104, "duration": 134}, {"note": 0, "velocity": 0, "duration": 106}, {"note": 75, "velocity": 92, "duration": 124}, {"note": 73, "velocity": 104, "duration": 344}, {"note": 75, "velocity": 92, "duration": 246}, {"note": 73, "velocity": 110, "duration": 341}, {"note": 71, "velocity": 45, "duration": 601}, {"note": 0, "velocity": 0, "duration": 727}, {"note": 73, "velocity": 104, "duration": 127}, {"note": 75, "velocity": 104, "duration": 118}, {"note": 76, "velocity": 86, "duration": 138}, {"note": 0, "velocity": 0, "duration": 102}, {"note": 76, "velocity": 60, "duration": 57}, {"note": 0, "velocity": 0, "duration": 63}, {"note": 76, "velocity": 86, "duration": 209}, {"note": 0, "velocity": 0, "duration": 151}, {"note": 76, "velocity": 80, "duration": 228}, {"note": 75, "velocity": 104, "duration": 397}, {"note": 0, "velocity": 0, "duration": 315}, {"note": 75, "velocity": 75, "duration": 59}, {"note": 0, "velocity": 0, "duration": 61}, {"note": 75, "velocity": 80, "duration": 56}, {"note": 0, "velocity": 0, "duration": 64}, {"note": 75, "velocity": 104, "duration": 108}, {"note": 0, "velocity": 0, "duration": 132}, {"note": 75, "velocity": 92, "duration": 118}, {"note": 75, "velocity": 104, "duration": 358}, {"note": 80, "velocity": 104, "duration": 238}, {"note": 75, "velocity": 92, "duration": 360}, {"note": 76, "velocity": 86, "duration": 271}, {"note": 0, "velocity": 0, "duration": 89}, {"note": 73, "velocity": 104, "duration": 118}, {"note": 75, "velocity": 92, "duration": 88}, {"note": 76, "velocity": 80, "duration": 103}, {"note": 0, "velocity": 0, "duration": 137}, {"note": 76, "velocity": 55, "duration": 54}, {"note": 0, "velocity": 0, "duration": 66}, {"note": 76, "velocity": 70, "duration": 186}, {"note": 0, "velocity": 0, "duration": 166}, {"note": 80, "velocity": 92, "duration": 216}, {"note": 78, "velocity": 104, "duration": 358}, {"note": 0, "velocity": 0, "duration": 122}, {"note": 75, "velocity": 92, "duration": 246}, {"note": 73, "velocity": 92, "duration": 118}, {"note": 0, "velocity": 0, "duration": 114}, {"note": 73, "velocity": 110, "duration": 350}, {"note": 0, "velocity": 0, "duration": 1330}, {"note": 73, "velocity": 104, "duration": 126}, {"note": 75, "velocity": 104, "duration": 118}, {"note": 76, "velocity": 86, "duration": 137}, {"note": 0, "velocity": 0, "duration": 103}, {"note": 76, "velocity": 60, "duration": 57}, {"note": 0, "velocity": 0, "duration": 63}, {"note": 76, "velocity": 86, "duration": 208}, {"note": 0, "velocity": 0, "duration": 152}, {"note": 76, "velocity": 80, "duration": 227}, {"note": 75, "velocity": 104, "duration": 397}, {"note": 0, "velocity": 0, "duration": 323}, {"note": 75, "velocity": 75, "duration": 59}, {"note": 0, "velocity": 0, "duration": 61}, {"note": 75, "velocity": 80, "duration": 56}, {"note": 0, "velocity": 0, "duration": 64}, {"note": 75, "velocity": 104, "duration": 108}, {"note": 0, "velocity": 0, "duration": 132}, {"note": 75, "velocity": 92, "duration": 48}, {"note": 0, "velocity": 0, "duration": 72}, {"note": 75, "velocity": 104, "duration": 364}, {"note": 80, "velocity": 104, "duration": 238}, {"note": 78, "velocity": 92, "duration": 360}, {"note": 76, "velocity": 86, "duration": 358}, {"note": 73, "velocity": 104, "duration": 118}, {"note": 75, "velocity": 92, "duration": 87}, {"note": 76, "velocity": 80, "duration": 103}, {"note": 0, "velocity": 0, "duration": 137}, {"note": 76, "velocity": 55, "duration": 54}, {"note": 0, "velocity": 0, "duration": 66}, {"note": 76, "velocity": 70, "duration": 185}, {"note": 0, "velocity": 0, "duration": 175}, {"note": 76, "velocity": 92, "duration": 216}, {"note": 75, "velocity": 104, "duration": 134}, {"note": 0, "velocity": 0, "duration": 106}, {"note": 75, "velocity": 92, "duration": 124}, {"note": 73, "velocity": 104, "duration": 344}, {"note": 75, "velocity": 92, "duration": 246}, {"note": 73, "velocity": 110, "duration": 341}, {"note": 71, "velocity": 45, "duration": 358}, {"note": 0, "velocity": 0, "duration": 970}, {"note": 73, "velocity": 104, "duration": 127}, {"note": 75, "velocity": 104, "duration": 118}, {"note": 76, "velocity": 86, "duration": 138}, {"note": 0, "velocity": 0, "duration": 102}, {"note": 76, "velocity": 60, "duration": 57}, {"note": 0, "velocity": 0, "duration": 63}, {"note": 76, "velocity": 86, "duration": 209}, {"note": 0, "velocity": 0, "duration": 151}, {"note": 76, "velocity": 80, "duration": 228}, {"note": 75, "velocity": 104, "duration": 397}, {"note": 0, "velocity": 0, "duration": 315}, {"note": 75, "velocity": 75, "duration": 59}, {"note": 0, "velocity": 0, "duration": 61}, {"note": 75, "velocity": 80, "duration": 56}, {"note": 0, "velocity": 0, "duration": 64}, {"note": 75, "velocity": 104, "duration": 108}, {"note": 0, "velocity": 0, "duration": 132}, {"note": 75, "velocity": 106, "duration": 118}, {"note": 75, "velocity": 104, "duration": 358}, {"note": 80, "velocity": 104, "duration": 238}, {"note": 75, "velocity": 92, "duration": 360}, {"note": 76, "velocity": 86, "duration": 358}, {"note": 73, "velocity": 104, "duration": 118}, {"note": 75, "velocity": 92, "duration": 88}, {"note": 76, "velocity": 80, "duration": 103}, {"note": 0, "velocity": 0, "duration": 137}, {"note": 76, "velocity": 55, "duration": 54}, {"note": 0, "velocity": 0, "duration": 66}, {"note": 76, "velocity": 70, "duration": 186}, {"note": 0, "velocity": 0, "duration": 166}, {"note": 80, "velocity": 92, "duration": 216}, {"note": 78, "velocity": 104, "duration": 358}, {"note": 0, "velocity": 0, "duration": 122}, {"note": 75, "velocity": 92, "duration": 246}, {"note": 73, "velocity": 92, "duration": 118}, {"note": 0, "velocity": 0, "duration": 114}, {"note": 73, "velocity": 110, "duration": 350}, {"note": 0, "velocity": 0, "duration": 5410}, {"note": 64, "velocity": 55, "duration": 199}, {"note": 59, "velocity": 31, "duration": 296}, {"note": 64, "velocity": 43, "duration": 254}, {"note": 68, "velocity": 30, "duration": 240}, {"note": 69, "velocity": 31, "duration": 256}, {"note": 68, "velocity": 28, "duration": 250}, {"note": 64, "velocity": 32, "duration": 389}, {"note": 0, "velocity": 0, "duration": 91}, {"note": 64, "velocity": 60, "duration": 246}, {"note": 59, "velocity": 45, "duration": 259}, {"note": 64, "velocity": 55, "duration": 238}, {"note": 66, "velocity": 43, "duration": 238}, {"note": 68, "velocity": 32, "duration": 478}, {"note": 0, "velocity": 0, "duration": 482}, {"note": 64, "velocity": 51, "duration": 222}, {"note": 59, "velocity": 30, "duration": 253}, {"note": 64, "velocity": 39, "duration": 249}, {"note": 68, "velocity": 26, "duration": 243}, {"note": 69, "velocity": 31, "duration": 118}, {"note": 68, "velocity": 18, "duration": 118}, {"note": 0, "velocity": 0, "duration": 62}, {"note": 66, "velocity": 39, "duration": 130}, {"note": 64, "velocity": 48, "duration": 320}, {"note": 0, "velocity": 0, "duration": 160}, {"note": 68, "velocity": 60, "duration": 250}, {"note": 66, "velocity": 48, "duration": 117}, {"note": 0, "velocity": 0, "duration": 123}, {"note": 66, "velocity": 60, "duration": 234}, {"note": 64, "velocity": 51, "duration": 154}, {"note": 0, "velocity": 0, "duration": 86}, {"note": 64, "velocity": 60, "duration": 478}, {"note": 0, "velocity": 0, "duration": 482}, {"note": 64, "velocity": 37, "duration": 249}, {"note": 59, "velocity": 28, "duration": 238}, {"note": 64, "velocity": 51, "duration": 271}, {"note": 68, "velocity": 37, "duration": 238}, {"note": 69, "velocity": 51, "duration": 257}, {"note": 68, "velocity": 29, "duration": 135}, {"note": 66, "velocity": 39, "duration": 123}, {"note": 64, "velocity": 37, "duration": 381}, {"note": 0, "velocity": 0, "duration": 99}, {"note": 73, "velocity": 92, "duration": 182}, {"note": 71, "velocity": 70, "duration": 117}, {"note": 0, "velocity": 0, "duration": 123}, {"note": 71, "velocity": 70, "duration": 107}, {"note": 69, "velocity": 51, "duration": 319}, {"note": 68, "velocity": 41, "duration": 478}, {"note": 0, "velocity": 0, "duration": 482}, {"note": 64, "velocity": 51, "duration": 222}, {"note": 59, "velocity": 30, "duration": 238}, {"note": 64, "velocity": 39, "duration": 249}, {"note": 68, "velocity": 26, "duration": 243}, {"note": 69, "velocity": 31, "duration": 219}, {"note": 68, "velocity": 18, "duration": 117}, {"note": 66, "velocity": 39, "duration": 118}, {"note": 64, "velocity": 48, "duration": 320}, {"note": 0, "velocity": 0, "duration": 160}, {"note": 68, "velocity": 60, "duration": 250}, {"note": 66, "velocity": 48, "duration": 117}, {"note": 0, "velocity": 0, "duration": 123}, {"note": 66, "velocity": 60, "duration": 234}, {"note": 64, "velocity": 51, "duration": 154}, {"note": 0, "velocity": 0, "duration": 86}, {"note": 64, "velocity": 60, "duration": 478}, {"note": 0, "velocity": 0, "duration": 242}, {"note": 64, "velocity": 55, "duration": 240}, {"note": 61, "velocity": 43, "duration": 502}, {"note": 73, "velocity": 92, "duration": 430}, {"note": 71, "velocity": 51, "duration": 258}, {"note": 68, "velocity": 30, "duration": 50}, {"note": 0, "velocity": 0, "duration": 70}, {"note": 68, "velocity": 33, "duration": 413}, {"note": 0, "velocity": 0, "duration": 67}, {"note": 68, "velocity": 33, "duration": 77}, {"note": 69, "velocity": 80, "duration": 248}, {"note": 71, "velocity": 45, "duration": 248}, {"note": 64, "velocity": 51, "duration": 270}, {"note": 71, "velocity": 92, "duration": 231}, {"note": 68, "velocity": 51, "duration": 401}, {"note": 0, "velocity": 0, "duration": 79}, {"note": 64, "velocity": 60, "duration": 238}, {"note": 63, "velocity": 48, "duration": 118}, {"note": 0, "velocity": 0, "duration": 62}, {"note": 61, "velocity": 43, "duration": 448}, {"note": 73, "velocity": 80, "duration": 107}, {"note": 0, "velocity": 0, "duration": 193}, {"note": 73, "velocity": 92, "duration": 53}, {"note": 0, "velocity": 0, "duration": 127}, {"note": 75, "velocity": 104, "duration": 185}, {"note": 73, "velocity": 80, "duration": 171}, {"note": 0, "velocity": 0, "duration": 69}, {"note": 71, "velocity": 45, "duration": 310}, {"note": 71, "velocity": 48, "duration": 145}, {"note": 73, "velocity": 92, "duration": 198}, {"note": 71, "velocity": 55, "duration": 118}, {"note": 69, "velocity": 55, "duration": 358}, {"note": 68, "velocity": 55, "duration": 126}, {"note": 0, "velocity": 0, "duration": 114}, {"note": 68, "velocity": 51, "duration": 926}, {"note": 66, "velocity": 51, "duration": 1098}, {"note": 0, "velocity": 0, "duration": 582}, {"note": 73, "velocity": 104, "duration": 126}, {"note": 75, "velocity": 104, "duration": 118}, {"note": 76, "velocity": 86, "duration": 137}, {"note": 0, "velocity": 0, "duration": 103}, {"note": 76, "velocity": 60, "duration": 57}, {"note": 0, "velocity": 0, "duration": 63}, {"note": 76, "velocity": 86, "duration": 208}, {"note": 0, "velocity": 0, "duration": 152}, {"note": 76, "velocity": 80, "duration": 227}, {"note": 75, "velocity": 104, "duration": 397}, {"note": 0, "velocity": 0, "duration": 323}, {"note": 75, "velocity": 75, "duration": 59}, {"note": 0, "velocity": 0, "duration": 61}, {"note": 75, "velocity": 80, "duration": 56}, {"note": 0, "velocity": 0, "duration": 64}, {"note": 75, "velocity": 104, "duration": 108}, {"note": 0, "velocity": 0, "duration": 132}, {"note": 75, "velocity": 92, "duration": 118}, {"note": 75, "velocity": 104, "duration": 358}, {"note": 80, "velocity": 104, "duration": 238}, {"note": 78, "velocity": 92, "duration": 360}, {"note": 76, "velocity": 86, "duration": 238}, {"note": 0, "velocity": 0, "duration": 122}, {"note": 73, "velocity": 104, "duration": 118}, {"note": 75, "velocity": 92, "duration": 87}, {"note": 76, "velocity": 80, "duration": 103}, {"note": 0, "velocity": 0, "duration": 137}, {"note": 76, "velocity": 55, "duration": 54}, {"note": 0, "velocity": 0, "duration": 66}, {"note": 76, "velocity": 70, "duration": 185}, {"note": 0, "velocity": 0, "duration": 175}, {"note": 76, "velocity": 92, "duration": 216}, {"note": 75, "velocity": 104, "duration": 134}, {"note": 0, "velocity": 0, "duration": 106}, {"note": 75, "velocity": 92, "duration": 124}, {"note": 73, "velocity": 104, "duration": 238}, {"note": 0, "velocity": 0, "duration": 62}, {"note": 75, "velocity": 92, "duration": 246}, {"note": 73, "velocity": 110, "duration": 341}, {"note": 71, "velocity": 45, "duration": 601}, {"note": 0, "velocity": 0, "duration": 779}, {"note": 73, "velocity": 104, "duration": 126}, {"note": 75, "velocity": 104, "duration": 118}, {"note": 76, "velocity": 86, "duration": 137}, {"note": 0, "velocity": 0, "duration": 103}, {"note": 76, "velocity": 60, "duration": 57}, {"note": 0, "velocity": 0, "duration": 63}, {"note": 76, "velocity": 86, "duration": 208}, {"note": 0, "velocity": 0, "duration": 152}, {"note": 76, "velocity": 80, "duration": 227}, {"note": 75, "velocity": 104, "duration": 397}, {"note": 0, "velocity": 0, "duration": 323}, {"note": 75, "velocity": 75, "duration": 59}, {"note": 0, "velocity": 0, "duration": 61}, {"note": 75, "velocity": 80, "duration": 56}, {"note": 0, "velocity": 0, "duration": 64}, {"note": 75, "velocity": 104, "duration": 108}, {"note": 0, "velocity": 0, "duration": 132}, {"note": 75, "velocity": 92, "duration": 118}, {"note": 0, "velocity": 0, "duration": 122}, {"note": 75, "velocity": 104, "duration": 238}, {"note": 80, "velocity": 104, "duration": 238}, {"note": 75, "velocity": 92, "duration": 360}, {"note": 76, "velocity": 86, "duration": 271}, {"note": 0, "velocity": 0, "duration": 89}, {"note": 73, "velocity": 104, "duration": 118}, {"note": 75, "velocity": 92, "duration": 88}, {"note": 76, "velocity": 80, "duration": 103}, {"note": 0, "velocity": 0, "duration": 137}, {"note": 76, "velocity": 55, "duration": 54}, {"note": 0, "velocity": 0, "duration": 66}, {"note": 76, "velocity": 70, "duration": 186}, {"note": 0, "velocity": 0, "duration": 166}, {"note": 80, "velocity": 92, "duration": 216}, {"note": 78, "velocity": 104, "duration": 358}, {"note": 0, "velocity": 0, "duration": 122}, {"note": 75, "velocity": 92, "duration": 246}, {"note": 73, "velocity": 92, "duration": 118}, {"note": 0, "velocity": 0, "duration": 114}, {"note": 73, "velocity": 110, "duration": 350}, {"note": 0, "velocity": 0, "duration": 1330}, {"note": 73, "velocity": 104, "duration": 126}, {"note": 75, "velocity": 104, "duration": 118}, {"note": 76, "velocity": 86, "duration": 137}, {"note": 0, "velocity": 0, "duration": 103}, {"note": 76, "velocity": 60, "duration": 57}, {"note": 0, "velocity": 0, "duration": 63}, {"note": 76, "velocity": 86, "duration": 208}, {"note": 0, "velocity": 0, "duration": 152}, {"note": 76, "velocity": 80, "duration": 227}, {"note": 75, "velocity": 104, "duration": 397}, {"note": 0, "velocity": 0, "duration": 323}, {"note": 75, "velocity": 75, "duration": 59}, {"note": 0, "velocity": 0, "duration": 61}, {"note": 75, "velocity": 80, "duration": 56}, {"note": 0, "velocity": 0, "duration": 64}, {"note": 75, "velocity": 104, "duration": 108}, {"note": 0, "velocity": 0, "duration": 132}, {"note": 75, "velocity": 92, "duration": 118}, {"note": 0, "velocity": 0, "duration": 122}, {"note": 75, "velocity": 104, "duration": 238}, {"note": 80, "velocity": 104, "duration": 118}, {"note": 0, "velocity": 0, "duration": 122}, {"note": 78, "velocity": 92, "duration": 360}, {"note": 76, "velocity": 86, "duration": 271}, {"note": 0, "velocity": 0, "duration": 89}, {"note": 73, "velocity": 104, "duration": 118}, {"note": 75, "velocity": 92, "duration": 87}, {"note": 76, "velocity": 80, "duration": 103}, {"note": 0, "velocity": 0, "duration": 137}, {"note": 76, "velocity": 55, "duration": 54}, {"note": 0, "velocity": 0, "duration": 66}, {"note": 76, "velocity": 70, "duration": 185}, {"note": 0, "velocity": 0, "duration": 175}, {"note": 76, "velocity": 92, "duration": 216}, {"note": 75, "velocity": 104, "duration": 134}, {"note": 0, "velocity": 0, "duration": 106}, {"note": 75, "velocity": 92, "duration": 124}, {"note": 73, "velocity": 104, "duration": 344}, {"note": 75, "velocity": 92, "duration": 246}, {"note": 73, "velocity": 110, "duration": 341}, {"note": 71, "velocity": 45, "duration": 358}, {"note": 0, "velocity": 0, "duration": 962}, {"note": 73, "velocity": 104, "duration": 126}, {"note": 75, "velocity": 104, "duration": 118}, {"note": 76, "velocity": 86, "duration": 137}, {"note": 0, "velocity": 0, "duration": 103}, {"note": 76, "velocity": 60, "duration": 57}, {"note": 0, "velocity": 0, "duration": 63}, {"note": 76, "velocity": 86, "duration": 208}, {"note": 0, "velocity": 0, "duration": 152}, {"note": 76, "velocity": 80, "duration": 227}, {"note": 75, "velocity": 104, "duration": 397}, {"note": 0, "velocity": 0, "duration": 323}, {"note": 75, "velocity": 75, "duration": 59}, {"note": 0, "velocity": 0, "duration": 61}, {"note": 75, "velocity": 80, "duration": 56}, {"note": 0, "velocity": 0, "duration": 64}, {"note": 75, "velocity": 104, "duration": 108}, {"note": 0, "velocity": 0, "duration": 132}, {"note": 75, "velocity": 106, "duration": 118}, {"note": 75, "velocity": 104, "duration": 358}, {"note": 80, "velocity": 104, "duration": 238}, {"note": 75, "velocity": 92, "duration": 360}, {"note": 76, "velocity": 86, "duration": 271}, {"note": 0, "velocity": 0, "duration": 89}, {"note": 73, "velocity": 104, "duration": 118}, {"note": 75, "velocity": 92, "duration": 88}, {"note": 76, "velocity": 80, "duration": 103}, {"note": 0, "velocity": 0, "duration": 137}, {"note": 76, "velocity": 55, "duration": 54}, {"note": 0, "velocity": 0, "duration": 66}, {"note": 76, "velocity": 70, "duration": 238}, {"note": 0, "velocity": 0, "duration": 122}, {"note": 80, "velocity": 92, "duration": 216}, {"note": 78, "velocity": 104, "duration": 358}, {"note": 0, "velocity": 0, "duration": 122}, {"note": 75, "velocity": 92, "duration": 246}, {"note": 73, "velocity": 92, "duration": 118}, {"note": 0, "velocity": 0, "duration": 114}, {"note": 73, "velocity": 110, "duration": 350}, {"note": 0, "velocity": 0, "duration": 1330}, {"note": 73, "velocity": 104, "duration": 126}, {"note": 75, "velocity": 104, "duration": 118}, {"note": 76, "velocity": 86, "duration": 137}, {"note": 0, "velocity": 0, "duration": 103}, {"note": 76, "velocity": 60, "duration": 57}, {"note": 0, "velocity": 0, "duration": 63}, {"note": 76, "velocity": 86, "duration": 208}, {"note": 0, "velocity": 0, "duration": 152}, {"note": 76, "velocity": 80, "duration": 227}, {"note": 75, "velocity": 104, "duration": 397}, {"note": 0, "velocity": 0, "duration": 323}, {"note": 75, "velocity": 75, "duration": 59}, {"note": 0, "velocity": 0, "duration": 61}, {"note": 75, "velocity": 80, "duration": 56}, {"note": 0, "velocity": 0, "duration": 64}, {"note": 75, "velocity": 104, "duration": 108}, {"note": 0, "velocity": 0, "duration": 132}, {"note": 75, "velocity": 92, "duration": 118}, {"note": 0, "velocity": 0, "duration": 122}, {"note": 75, "velocity": 104, "duration": 238}, {"note": 80, "velocity": 104, "duration": 118}, {"note": 0, "velocity": 0, "duration": 122}, {"note": 78, "velocity": 92, "duration": 360}, {"note": 76, "velocity": 86, "duration": 271}, {"note": 0, "velocity": 0, "duration": 89}, {"note": 73, "velocity": 104, "duration": 118}, {"note": 75, "velocity": 92, "duration": 87}, {"note": 76, "velocity": 80, "duration": 103}, {"note": 0, "velocity": 0, "duration": 137}, {"note": 76, "velocity": 55, "duration": 54}, {"note": 0, "velocity": 0, "duration": 66}, {"note": 76, "velocity": 70, "duration": 185}, {"note": 0, "velocity": 0, "duration": 175}, {"note": 76, "velocity": 92, "duration": 216}, {"note": 75, "velocity": 104, "duration": 134}, {"note": 0, "velocity": 0, "duration": 106}, {"note": 75, "velocity": 92, "duration": 124}, {"note": 73, "velocity": 104, "duration": 344}, {"note": 75, "velocity": 92, "duration": 246}, {"note": 73, "velocity": 110, "duration": 341}, {"note": 71, "velocity": 45, "duration": 358}, {"note": 0, "velocity": 0, "duration": 962}, {"note": 73, "velocity": 104, "duration": 126}, {"note": 75, "velocity": 104, "duration": 118}, {"note": 76, "velocity": 86, "duration": 137}, {"note": 0, "velocity": 0, "duration": 103}, {"note": 76, "velocity": 60, "duration": 57}, {"note": 0, "velocity": 0, "duration": 63}, {"note": 76, "velocity": 86, "duration": 208}, {"note": 0, "velocity": 0, "duration": 152}, {"note": 76, "velocity": 80, "duration": 227}, {"note": 75, "velocity": 104, "duration": 397}, {"note": 0, "velocity": 0, "duration": 323}, {"note": 75, "velocity": 75, "duration": 59}, {"note": 0, "velocity": 0, "duration": 61}, {"note": 75, "velocity": 80, "duration": 56}, {"note": 0, "velocity": 0, "duration": 64}, {"note": 75, "velocity": 104, "duration": 108}, {"note": 0, "velocity": 0, "duration": 132}, {"note": 75, "velocity": 106, "duration": 118}, {"note": 75, "velocity": 104, "duration": 358}, {"note": 80, "velocity": 104, "duration": 238}, {"note": 75, "velocity": 92, "duration": 360}, {"note": 76, "velocity": 86, "duration": 271}, {"note": 0, "velocity": 0, "duration": 89}, {"note": 73, "velocity": 104, "duration": 118}, {"note": 75, "velocity": 92, "duration": 88}, {"note": 76, "velocity": 80, "duration": 103}, {"note": 0, "velocity": 0, "duration": 137}, {"note": 76, "velocity": 55, "duration": 54}, {"note": 0, "velocity": 0, "duration": 66}, {"note": 76, "velocity": 70, "duration": 238}, {"note": 0, "velocity": 0, "duration": 122}, {"note": 80, "velocity": 92, "duration": 216}, {"note": 78, "velocity": 104, "duration": 358}, {"note": 0, "velocity": 0, "duration": 122}, {"note": 75, "velocity": 92, "duration": 246}, {"note": 73, "velocity": 92, "duration": 118}, {"note": 0, "velocity": 0, "duration": 114}, {"note": 73, "velocity": 110, "duration": 350}, {"note": 0, "velocity": 0, "duration": 1330}, {"note": 73, "velocity": 80, "duration": 118}, {"note": 75, "velocity": 104, "duration": 118}, {"note": 76, "velocity": 70, "duration": 142}, {"note": 0, "velocity": 0, "duration": 98}, {"note": 76, "velocity": 70, "duration": 52}, {"note": 0, "velocity": 0, "duration": 68}, {"note": 76, "velocity": 86, "duration": 238}, {"note": 80, "velocity": 110, "duration": 238}, {"note": 78, "velocity": 92, "duration": 1159}]]