[[{"note": 64, "velocity": 85, "duration": 116}, {"note": 62, "velocity": 85, "duration": 143}, {"note": 64, "velocity": 85, "duration": 206}, {"note": 67, "velocity": 85, "duration": 126}, {"note": 64, "velocity": 85, "duration": 422}, {"note": 0, "velocity": 0, "duration": 189}, {"note": 64, "velocity": 85, "duration": 189}, {"note": 67, "velocity": 85, "duration": 156}, {"note": 72, "velocity": 85, "duration": 170}, {"note": 71, "velocity": 85, "duration": 492}, {"note": 71, "velocity": 85, "duration": 55}, {"note": 0, "velocity": 0, "duration": 192}, {"note": 72, "velocity": 85, "duration": 110}, {"note": 69, "velocity": 85, "duration": 705}, {"note": 0, "velocity": 0, "duration": 140}, {"note": 69, "velocity": 85, "duration": 98}, {"note": 67, "velocity": 85, "duration": 94}, {"note": 69, "velocity": 85, "duration": 129}, {"note": 0, "velocity": 0, "duration": 128}, {"note": 69, "velocity": 85, "duration": 105}, {"note": 67, "velocity": 85, "duration": 105}, {"note": 69, "velocity": 85, "duration": 126}, {"note": 60, "velocity": 85, "duration": 425}, {"note": 0, "velocity": 0, "duration": 520}, {"note": 60, "velocity": 85, "duration": 82}, {"note": 65, "velocity": 85, "duration": 102}, {"note": 64, "velocity": 85, "duration": 758}, {"note": 65, "velocity": 85, "duration": 146}, {"note": 67, "velocity": 85, "duration": 617}, {"note": 0, "velocity": 0, "duration": 674}, {"note": 64, "velocity": 85, "duration": 110}, {"note": 62, "velocity": 85, "duration": 96}, {"note": 64, "velocity": 85, "duration": 223}, {"note": 62, "velocity": 85, "duration": 93}, {"note": 64, "velocity": 85, "duration": 267}, {"note": 67, "velocity": 85, "duration": 104}, {"note": 64, "velocity": 85, "duration": 294}, {"note": 0, "velocity": 0, "duration": 154}, {"note": 64, "velocity": 85, "duration": 128}, {"note": 72, "velocity": 85, "duration": 80}, {"note": 71, "velocity": 85, "duration": 707}, {"note": 72, "velocity": 85, "duration": 116}, {"note": 69, "velocity": 85, "duration": 594}, {"note": 0, "velocity": 0, "duration": 247}, {"note": 69, "velocity": 85, "duration": 96}, {"note": 67, "velocity": 85, "duration": 107}, {"note": 69, "velocity": 85, "duration": 114}, {"note": 0, "velocity": 0, "duration": 114}, {"note": 69, "velocity": 85, "duration": 106}, {"note": 60, "velocity": 83, "duration": 459}, {"note": 0, "velocity": 0, "duration": 545}, {"note": 60, "velocity": 83, "duration": 55}, {"note": 0, "velocity": 0, "duration": 79}, {"note": 60, "velocity": 83, "duration": 45}, {"note": 0, "velocity": 0, "duration": 70}, {"note": 60, "velocity": 83, "duration": 80}, {"note": 65, "velocity": 83, "duration": 95}, {"note": 64, "velocity": 83, "duration": 367}, {"note": 0, "velocity": 0, "duration": 121}, {"note": 64, "velocity": 83, "duration": 171}, {"note": 65, "velocity": 83, "duration": 228}, {"note": 62, "velocity": 83, "duration": 612}, {"note": 0, "velocity": 0, "duration": 284}, {"note": 71, "velocity": 83, "duration": 85}, {"note": 72, "velocity": 83, "duration": 199}, {"note": 71, "velocity": 83, "duration": 98}, {"note": 72, "velocity": 83, "duration": 353}, {"note": 71, "velocity": 83, "duration": 135}, {"note": 72, "velocity": 83, "duration": 318}, {"note": 71, "velocity": 83, "duration": 108}, {"note": 72, "velocity": 83, "duration": 348}, {"note": 79, "velocity": 83, "duration": 336}, {"note": 74, "velocity": 83, "duration": 242}, {"note": 0, "velocity": 0, "duration": 458}, {"note": 64, "velocity": 83, "duration": 221}, {"note": 71, "velocity": 83, "duration": 569}, {"note": 0, "velocity": 0, "duration": 172}, {"note": 69, "velocity": 80, "duration": 86}, {"note": 67, "velocity": 80, "duration": 95}, {"note": 69, "velocity": 80, "duration": 89}, {"note": 67, "velocity": 80, "duration": 98}, {"note": 69, "velocity": 80, "duration": 88}, {"note": 67, "velocity": 80, "duration": 81}, {"note": 69, "velocity": 80, "duration": 107}, {"note": 0, "velocity": 0, "duration": 125}, {"note": 69, "velocity": 80, "duration": 525}, {"note": 0, "velocity": 0, "duration": 196}, {"note": 69, "velocity": 80, "duration": 210}, {"note": 67, "velocity": 80, "duration": 99}, {"note": 0, "velocity": 0, "duration": 89}, {"note": 67, "velocity": 80, "duration": 70}, {"note": 0, "velocity": 0, "duration": 96}, {"note": 67, "velocity": 80, "duration": 636}, {"note": 62, "velocity": 80, "duration": 240}, {"note": 64, "velocity": 78, "duration": 584}, {"note": 0, "velocity": 0, "duration": 139}, {"note": 71, "velocity": 78, "duration": 52}, {"note": 71, "velocity": 78, "duration": 63}, {"note": 0, "velocity": 0, "duration": 64}, {"note": 72, "velocity": 78, "duration": 106}, {"note": 71, "velocity": 78, "duration": 94}, {"note": 72, "velocity": 78, "duration": 480}, {"note": 71, "velocity": 78, "duration": 235}, {"note": 72, "velocity": 78, "duration": 464}, {"note": 71, "velocity": 78, "duration": 271}, {"note": 76, "velocity": 78, "duration": 129}, {"note": 0, "velocity": 0, "duration": 122}, {"note": 76, "velocity": 78, "duration": 711}, {"note": 71, "velocity": 78, "duration": 93}, {"note": 0, "velocity": 0, "duration": 148}, {"note": 71, "velocity": 78, "duration": 533}, {"note": 0, "velocity": 0, "duration": 158}, {"note": 69, "velocity": 78, "duration": 101}, {"note": 67, "velocity": 78, "duration": 112}, {"note": 69, "velocity": 78, "duration": 79}, {"note": 67, "velocity": 78, "duration": 92}, {"note": 69, "velocity": 78, "duration": 66}, {"note": 0, "velocity": 0, "duration": 173}, {"note": 69, "velocity": 78, "duration": 116}, {"note": 0, "velocity": 0, "duration": 110}, {"note": 67, "velocity": 78, "duration": 55}, {"note": 0, "velocity": 0, "duration": 180}, {"note": 67, "velocity": 78, "duration": 69}, {"note": 0, "velocity": 0, "duration": 406}, {"note": 69, "velocity": 78, "duration": 216}, {"note": 67, "velocity": 78, "duration": 75}, {"note": 0, "velocity": 0, "duration": 86}, {"note": 67, "velocity": 78, "duration": 70}, {"note": 0, "velocity": 0, "duration": 92}, {"note": 67, "velocity": 78, "duration": 672}, {"note": 60, "velocity": 78, "duration": 239}, {"note": 62, "velocity": 80, "duration": 569}, {"note": 0, "velocity": 0, "duration": 393}, {"note": 76, "velocity": 80, "duration": 201}, {"note": 74, "velocity": 80, "duration": 103}, {"note": 76, "velocity": 80, "duration": 495}, {"note": 74, "velocity": 80, "duration": 144}, {"note": 76, "velocity": 80, "duration": 238}, {"note": 74, "velocity": 80, "duration": 119}, {"note": 76, "velocity": 83, "duration": 474}, {"note": 74, "velocity": 83, "duration": 229}, {"note": 67, "velocity": 83, "duration": 228}, {"note": 69, "velocity": 83, "duration": 770}, {"note": 0, "velocity": 0, "duration": 540}, {"note": 69, "velocity": 83, "duration": 50}, {"note": 69, "velocity": 83, "duration": 22}, {"note": 69, "velocity": 83, "duration": 55}, {"note": 72, "velocity": 83, "duration": 32}, {"note": 72, "velocity": 83, "duration": 51}, {"note": 0, "velocity": 0, "duration": 69}, {"note": 72, "velocity": 83, "duration": 30}, {"note": 0, "velocity": 0, "duration": 94}, {"note": 72, "velocity": 83, "duration": 31}, {"note": 0, "velocity": 0, "duration": 91}, {"note": 72, "velocity": 83, "duration": 360}, {"note": 71, "velocity": 83, "duration": 74}, {"note": 72, "velocity": 83, "duration": 409}, {"note": 0, "velocity": 0, "duration": 186}, {"note": 71, "velocity": 83, "duration": 123}, {"note": 72, "velocity": 83, "duration": 42}, {"note": 0, "velocity": 0, "duration": 77}, {"note": 72, "velocity": 83, "duration": 39}, {"note": 0, "velocity": 0, "duration": 79}, {"note": 72, "velocity": 83, "duration": 43}, {"note": 0, "velocity": 0, "duration": 97}, {"note": 62, "velocity": 83, "duration": 95}, {"note": 64, "velocity": 83, "duration": 229}, {"note": 64, "velocity": 83, "duration": 904}, {"note": 0, "velocity": 0, "duration": 440}, {"note": 74, "velocity": 83, "duration": 119}, {"note": 76, "velocity": 83, "duration": 239}, {"note": 74, "velocity": 83, "duration": 115}, {"note": 76, "velocity": 83, "duration": 309}, {"note": 74, "velocity": 83, "duration": 83}, {"note": 76, "velocity": 83, "duration": 96}, {"note": 0, "velocity": 0, "duration": 114}, {"note": 76, "velocity": 83, "duration": 372}, {"note": 0, "velocity": 0, "duration": 68}, {"note": 74, "velocity": 83, "duration": 148}, {"note": 76, "velocity": 83, "duration": 109}, {"note": 79, "velocity": 83, "duration": 479}, {"note": 69, "velocity": 83, "duration": 873}, {"note": 0, "velocity": 0, "duration": 821}, {"note": 77, "velocity": 83, "duration": 46}, {"note": 0, "velocity": 0, "duration": 93}, {"note": 77, "velocity": 83, "duration": 42}, {"note": 0, "velocity": 0, "duration": 89}, {"note": 77, "velocity": 83, "duration": 45}, {"note": 0, "velocity": 0, "duration": 81}, {"note": 77, "velocity": 83, "duration": 125}, {"note": 0, "velocity": 0, "duration": 104}, {"note": 77, "velocity": 83, "duration": 223}, {"note": 76, "velocity": 83, "duration": 94}, {"note": 77, "velocity": 83, "duration": 330}, {"note": 0, "velocity": 0, "duration": 151}, {"note": 77, "velocity": 83, "duration": 82}, {"note": 0, "velocity": 0, "duration": 113}, {"note": 77, "velocity": 83, "duration": 67}, {"note": 0, "velocity": 0, "duration": 90}, {"note": 77, "velocity": 83, "duration": 130}, {"note": 72, "velocity": 83, "duration": 209}, {"note": 74, "velocity": 83, "duration": 1576}, {"note": 0, "velocity": 0, "duration": 2204}, {"note": 64, "velocity": 83, "duration": 110}, {"note": 62, "velocity": 83, "duration": 95}, {"note": 64, "velocity": 83, "duration": 223}, {"note": 67, "velocity": 83, "duration": 92}, {"note": 64, "velocity": 83, "duration": 266}, {"note": 0, "velocity": 0, "duration": 324}, {"note": 64, "velocity": 83, "duration": 118}, {"note": 0, "velocity": 0, "duration": 62}, {"note": 67, "velocity": 83, "duration": 127}, {"note": 72, "velocity": 83, "duration": 79}, {"note": 71, "velocity": 83, "duration": 707}, {"note": 72, "velocity": 83, "duration": 116}, {"note": 69, "velocity": 83, "duration": 594}, {"note": 0, "velocity": 0, "duration": 248}, {"note": 69, "velocity": 83, "duration": 95}, {"note": 67, "velocity": 83, "duration": 107}, {"note": 69, "velocity": 83, "duration": 114}, {"note": 0, "velocity": 0, "duration": 114}, {"note": 60, "velocity": 83, "duration": 106}, {"note": 69, "velocity": 80, "duration": 238}, {"note": 0, "velocity": 0, "duration": 74}, {"note": 69, "velocity": 80, "duration": 51}, {"note": 0, "velocity": 0, "duration": 69}, {"note": 69, "velocity": 80, "duration": 478}, {"note": 0, "velocity": 0, "duration": 122}, {"note": 69, "velocity": 80, "duration": 140}, {"note": 0, "velocity": 0, "duration": 100}, {"note": 67, "velocity": 80, "duration": 80}, {"note": 0, "velocity": 0, "duration": 160}, {"note": 67, "velocity": 80, "duration": 478}, {"note": 0, "velocity": 0, "duration": 242}, {"note": 62, "velocity": 80, "duration": 228}, {"note": 64, "velocity": 80, "duration": 612}, {"note": 0, "velocity": 0, "duration": 588}, {"note": 64, "velocity": 80, "duration": 96}, {"note": 62, "velocity": 80, "duration": 83}, {"note": 64, "velocity": 80, "duration": 125}, {"note": 0, "velocity": 0, "duration": 115}, {"note": 62, "velocity": 80, "duration": 100}, {"note": 64, "velocity": 80, "duration": 263}, {"note": 67, "velocity": 80, "duration": 98}, {"note": 64, "velocity": 80, "duration": 218}, {"note": 0, "velocity": 0, "duration": 262}, {"note": 64, "velocity": 80, "duration": 134}, {"note": 72, "velocity": 80, "duration": 72}, {"note": 71, "velocity": 80, "duration": 495}, {"note": 0, "velocity": 0, "duration": 225}, {"note": 72, "velocity": 80, "duration": 128}, {"note": 69, "velocity": 80, "duration": 412}, {"note": 0, "velocity": 0, "duration": 428}, {"note": 69, "velocity": 80, "duration": 114}, {"note": 67, "velocity": 80, "duration": 104}, {"note": 69, "velocity": 80, "duration": 97}, {"note": 0, "velocity": 0, "duration": 143}, {"note": 69, "velocity": 80, "duration": 49}, {"note": 0, "velocity": 0, "duration": 71}, {"note": 69, "velocity": 80, "duration": 333}, {"note": 60, "velocity": 80, "duration": 166}, {"note": 0, "velocity": 0, "duration": 74}, {"note": 69, "velocity": 80, "duration": 89}, {"note": 0, "velocity": 0, "duration": 151}, {"note": 69, "velocity": 80, "duration": 361}, {"note": 0, "velocity": 0, "duration": 119}, {"note": 69, "velocity": 80, "duration": 122}, {"note": 67, "velocity": 80, "duration": 61}, {"note": 67, "velocity": 80, "duration": 678}, {"note": 64, "velocity": 83, "duration": 238}, {"note": 62, "velocity": 83, "duration": 605}, {"note": 0, "velocity": 0, "duration": 115}, {"note": 72, "velocity": 83, "duration": 100}, {"note": 71, "velocity": 83, "duration": 92}, {"note": 72, "velocity": 83, "duration": 84}, {"note": 71, "velocity": 83, "duration": 95}, {"note": 72, "velocity": 83, "duration": 498}, {"note": 71, "velocity": 83, "duration": 118}, {"note": 0, "velocity": 0, "duration": 122}, {"note": 72, "velocity": 83, "duration": 130}, {"note": 0, "velocity": 0, "duration": 110}, {"note": 72, "velocity": 83, "duration": 90}, {"note": 72, "velocity": 83, "duration": 356}, {"note": 76, "velocity": 83, "duration": 233}, {"note": 71, "velocity": 85, "duration": 652}, {"note": 0, "velocity": 0, "duration": 68}, {"note": 64, "velocity": 85, "duration": 238}, {"note": 71, "velocity": 85, "duration": 491}, {"note": 0, "velocity": 0, "duration": 229}, {"note": 69, "velocity": 85, "duration": 98}, {"note": 67, "velocity": 85, "duration": 82}, {"note": 69, "velocity": 85, "duration": 79}, {"note": 0, "velocity": 0, "duration": 161}, {"note": 69, "velocity": 85, "duration": 42}, {"note": 0, "velocity": 0, "duration": 78}, {"note": 69, "velocity": 85, "duration": 307}, {"note": 69, "velocity": 85, "duration": 48}, {"note": 0, "velocity": 0, "duration": 72}, {"note": 69, "velocity": 85, "duration": 352}, {"note": 0, "velocity": 0, "duration": 248}, {"note": 69, "velocity": 87, "duration": 198}, {"note": 67, "velocity": 87, "duration": 97}, {"note": 0, "velocity": 0, "duration": 83}, {"note": 67, "velocity": 87, "duration": 72}, {"note": 67, "velocity": 87, "duration": 678}, {"note": 62, "velocity": 87, "duration": 138}, {"note": 64, "velocity": 87, "duration": 894}, {"note": 72, "velocity": 90, "duration": 95}, {"note": 71, "velocity": 90, "duration": 79}, {"note": 72, "velocity": 90, "duration": 117}, {"note": 0, "velocity": 0, "duration": 123}, {"note": 72, "velocity": 90, "duration": 94}, {"note": 71, "velocity": 90, "duration": 74}, {"note": 72, "velocity": 90, "duration": 85}, {"note": 0, "velocity": 0, "duration": 155}, {"note": 72, "velocity": 90, "duration": 529}, {"note": 0, "velocity": 0, "duration": 431}, {"note": 72, "velocity": 90, "duration": 91}, {"note": 76, "velocity": 90, "duration": 43}, {"note": 0, "velocity": 0, "duration": 77}, {"note": 76, "velocity": 90, "duration": 712}, {"note": 71, "velocity": 90, "duration": 69}, {"note": 71, "velocity": 90, "duration": 497}, {"note": 0, "velocity": 0, "duration": 343}, {"note": 69, "velocity": 90, "duration": 87}, {"note": 67, "velocity": 90, "duration": 60}, {"note": 69, "velocity": 90, "duration": 175}, {"note": 67, "velocity": 90, "duration": 84}, {"note": 69, "velocity": 90, "duration": 536}, {"note": 0, "velocity": 0, "duration": 604}, {"note": 69, "velocity": 90, "duration": 39}, {"note": 0, "velocity": 0, "duration": 81}, {"note": 69, "velocity": 90, "duration": 44}, {"note": 0, "velocity": 0, "duration": 76}, {"note": 69, "velocity": 90, "duration": 61}, {"note": 72, "velocity": 90, "duration": 64}, {"note": 71, "velocity": 90, "duration": 223}, {"note": 67, "velocity": 90, "duration": 358}, {"note": 0, "velocity": 0, "duration": 62}, {"note": 76, "velocity": 90, "duration": 215}, {"note": 0, "velocity": 0, "duration": 85}, {"note": 74, "velocity": 90, "duration": 482}, {"note": 0, "velocity": 0, "duration": 358}, {"note": 74, "velocity": 90, "duration": 50}, {"note": 0, "velocity": 0, "duration": 70}, {"note": 76, "velocity": 90, "duration": 167}, {"note": 74, "velocity": 90, "duration": 74}, {"note": 76, "velocity": 90, "duration": 370}, {"note": 0, "velocity": 0, "duration": 110}, {"note": 74, "velocity": 90, "duration": 118}, {"note": 76, "velocity": 90, "duration": 238}, {"note": 74, "velocity": 90, "duration": 114}, {"note": 76, "velocity": 90, "duration": 540}, {"note": 0, "velocity": 0, "duration": 120}, {"note": 72, "velocity": 90, "duration": 118}, {"note": 67, "velocity": 90, "duration": 231}, {"note": 69, "velocity": 90, "duration": 571}, {"note": 0, "velocity": 0, "duration": 749}, {"note": 69, "velocity": 90, "duration": 45}, {"note": 0, "velocity": 0, "duration": 75}, {"note": 69, "velocity": 90, "duration": 48}, {"note": 0, "velocity": 0, "duration": 72}, {"note": 77, "velocity": 90, "duration": 47}, {"note": 0, "velocity": 0, "duration": 73}, {"note": 77, "velocity": 90, "duration": 33}, {"note": 0, "velocity": 0, "duration": 87}, {"note": 77, "velocity": 90, "duration": 42}, {"note": 0, "velocity": 0, "duration": 78}, {"note": 77, "velocity": 90, "duration": 354}, {"note": 76, "velocity": 90, "duration": 74}, {"note": 77, "velocity": 90, "duration": 311}, {"note": 0, "velocity": 0, "duration": 169}, {"note": 76, "velocity": 90, "duration": 112}, {"note": 77, "velocity": 90, "duration": 78}, {"note": 0, "velocity": 0, "duration": 162}, {"note": 77, "velocity": 90, "duration": 120}, {"note": 72, "velocity": 90, "duration": 238}, {"note": 0, "velocity": 0, "duration": 122}, {"note": 74, "velocity": 90, "duration": 51}, {"note": 0, "velocity": 0, "duration": 69}, {"note": 74, "velocity": 90, "duration": 737}, {"note": 0, "velocity": 0, "duration": 703}, {"note": 74, "velocity": 90, "duration": 106}, {"note": 76, "velocity": 90, "duration": 210}, {"note": 74, "velocity": 90, "duration": 87}, {"note": 76, "velocity": 90, "duration": 358}, {"note": 74, "velocity": 92, "duration": 129}, {"note": 76, "velocity": 92, "duration": 160}, {"note": 0, "velocity": 0, "duration": 80}, {"note": 76, "velocity": 92, "duration": 358}, {"note": 74, "velocity": 92, "duration": 143}, {"note": 76, "velocity": 92, "duration": 83}, {"note": 79, "velocity": 92, "duration": 487}, {"note": 69, "velocity": 92, "duration": 344}, {"note": 0, "velocity": 0, "duration": 1096}, {"note": 69, "velocity": 92, "duration": 131}, {"note": 0, "velocity": 0, "duration": 109}, {"note": 77, "velocity": 92, "duration": 56}, {"note": 0, "velocity": 0, "duration": 124}, {"note": 77, "velocity": 92, "duration": 49}, {"note": 0, "velocity": 0, "duration": 131}, {"note": 77, "velocity": 92, "duration": 159}, {"note": 77, "velocity": 92, "duration": 39}, {"note": 0, "velocity": 0, "duration": 201}, {"note": 76, "velocity": 92, "duration": 85}, {"note": 77, "velocity": 92, "duration": 319}, {"note": 0, "velocity": 0, "duration": 281}, {"note": 77, "velocity": 92, "duration": 95}, {"note": 0, "velocity": 0, "duration": 85}, {"note": 77, "velocity": 92, "duration": 70}, {"note": 0, "velocity": 0, "duration": 110}, {"note": 77, "velocity": 92, "duration": 123}, {"note": 74, "velocity": 92, "duration": 106}, {"note": 0, "velocity": 0, "duration": 134}, {"note": 74, "velocity": 92, "duration": 850}, {"note": 0, "velocity": 0, "duration": 12230}, {"note": 74, "velocity": 92, "duration": 118}, {"note": 76, "velocity": 92, "duration": 213}, {"note": 74, "velocity": 92, "duration": 142}, {"note": 76, "velocity": 92, "duration": 335}, {"note": 74, "velocity": 92, "duration": 174}, {"note": 76, "velocity": 90, "duration": 306}, {"note": 74, "velocity": 90, "duration": 147}, {"note": 76, "velocity": 90, "duration": 369}, {"note": 0, "velocity": 0, "duration": 111}, {"note": 72, "velocity": 90, "duration": 217}, {"note": 67, "velocity": 90, "duration": 244}, {"note": 69, "velocity": 90, "duration": 950}, {"note": 0, "velocity": 0, "duration": 490}, {"note": 69, "velocity": 90, "duration": 55}, {"note": 0, "velocity": 0, "duration": 65}, {"note": 69, "velocity": 90, "duration": 42}, {"note": 0, "velocity": 0, "duration": 78}, {"note": 72, "velocity": 90, "duration": 47}, {"note": 0, "velocity": 0, "duration": 73}, {"note": 72, "velocity": 90, "duration": 36}, {"note": 0, "velocity": 0, "duration": 84}, {"note": 72, "velocity": 90, "duration": 40}, {"note": 0, "velocity": 0, "duration": 80}, {"note": 72, "velocity": 90, "duration": 268}, {"note": 71, "velocity": 90, "duration": 101}, {"note": 0, "velocity": 0, "duration": 79}, {"note": 72, "velocity": 90, "duration": 332}, {"note": 0, "velocity": 0, "duration": 148}, {"note": 71, "velocity": 90, "duration": 81}, {"note": 72, "velocity": 90, "duration": 37}, {"note": 0, "velocity": 0, "duration": 83}, {"note": 72, "velocity": 90, "duration": 35}, {"note": 0, "velocity": 0, "duration": 85}, {"note": 72, "velocity": 90, "duration": 38}, {"note": 0, "velocity": 0, "duration": 82}, {"note": 62, "velocity": 90, "duration": 118}, {"note": 0, "velocity": 0, "duration": 62}, {"note": 64, "velocity": 90, "duration": 238}, {"note": 0, "velocity": 0, "duration": 62}, {"note": 64, "velocity": 90, "duration": 485}, {"note": 0, "velocity": 0, "duration": 964}, {"note": 74, "velocity": 87, "duration": 68}, {"note": 76, "velocity": 87, "duration": 196}, {"note": 74, "velocity": 87, "duration": 125}, {"note": 76, "velocity": 87, "duration": 264}, {"note": 74, "velocity": 87, "duration": 133}, {"note": 76, "velocity": 87, "duration": 118}, {"note": 0, "velocity": 0, "duration": 96}, {"note": 76, "velocity": 87, "duration": 377}, {"note": 74, "velocity": 87, "duration": 148}, {"note": 76, "velocity": 87, "duration": 97}, {"note": 79, "velocity": 87, "duration": 386}, {"note": 0, "velocity": 0, "duration": 140}, {"note": 69, "velocity": 87, "duration": 849}, {"note": 0, "velocity": 0, "duration": 757}, {"note": 69, "velocity": 87, "duration": 106}, {"note": 77, "velocity": 87, "duration": 44}, {"note": 0, "velocity": 0, "duration": 72}, {"note": 77, "velocity": 87, "duration": 41}, {"note": 0, "velocity": 0, "duration": 74}, {"note": 77, "velocity": 87, "duration": 73}, {"note": 76, "velocity": 87, "duration": 56}, {"note": 0, "velocity": 0, "duration": 61}, {"note": 77, "velocity": 87, "duration": 140}, {"note": 76, "velocity": 87, "duration": 56}, {"note": 0, "velocity": 0, "duration": 70}, {"note": 77, "velocity": 87, "duration": 147}, {"note": 0, "velocity": 0, "duration": 461}, {"note": 77, "velocity": 87, "duration": 76}, {"note": 0, "velocity": 0, "duration": 96}, {"note": 77, "velocity": 87, "duration": 85}, {"note": 0, "velocity": 0, "duration": 92}, {"note": 77, "velocity": 87, "duration": 93}, {"note": 0, "velocity": 0, "duration": 61}, {"note": 76, "velocity": 87, "duration": 179}, {"note": 0, "velocity": 0, "duration": 63}, {"note": 76, "velocity": 87, "duration": 220}, {"note": 74, "velocity": 87, "duration": 1255}, {"note": 0, "velocity": 0, "duration": 1982}, {"note": 76, "velocity": 83, "duration": 109}, {"note": 78, "velocity": 83, "duration": 238}, {"note": 76, "velocity": 83, "duration": 116}, {"note": 78, "velocity": 83, "duration": 358}, {"note": 76, "velocity": 83, "duration": 118}, {"note": 78, "velocity": 83, "duration": 238}, {"note": 76, "velocity": 83, "duration": 94}, {"note": 78, "velocity": 83, "duration": 478}, {"note": 0, "velocity": 0, "duration": 182}, {"note": 74, "velocity": 83, "duration": 147}, {"note": 69, "velocity": 83, "duration": 209}, {"note": 71, "velocity": 85, "duration": 662}, {"note": 0, "velocity": 0, "duration": 743}, {"note": 69, "velocity": 83, "duration": 95}, {"note": 79, "velocity": 83, "duration": 115}, {"note": 78, "velocity": 83, "duration": 76}, {"note": 79, "velocity": 83, "duration": 114}, {"note": 78, "velocity": 83, "duration": 65}, {"note": 0, "velocity": 0, "duration": 70}, {"note": 79, "velocity": 80, "duration": 227}, {"note": 78, "velocity": 80, "duration": 101}, {"note": 79, "velocity": 80, "duration": 516}, {"note": 0, "velocity": 0, "duration": 86}, {"note": 79, "velocity": 80, "duration": 201}, {"note": 78, "velocity": 80, "duration": 110}, {"note": 0, "velocity": 0, "duration": 91}, {"note": 78, "velocity": 80, "duration": 116}, {"note": 74, "velocity": 80, "duration": 186}, {"note": 76, "velocity": 80, "duration": 1048}, {"note": 0, "velocity": 0, "duration": 534}, {"note": 76, "velocity": 83, "duration": 83}, {"note": 78, "velocity": 83, "duration": 155}, {"note": 0, "velocity": 0, "duration": 66}, {"note": 76, "velocity": 83, "duration": 98}, {"note": 78, "velocity": 83, "duration": 361}, {"note": 76, "velocity": 83, "duration": 132}, {"note": 78, "velocity": 83, "duration": 159}, {"note": 0, "velocity": 0, "duration": 96}, {"note": 78, "velocity": 83, "duration": 460}, {"note": 0, "velocity": 0, "duration": 84}, {"note": 76, "velocity": 83, "duration": 140}, {"note": 78, "velocity": 83, "duration": 115}, {"note": 81, "velocity": 83, "duration": 718}, {"note": 71, "velocity": 83, "duration": 717}, {"note": 0, "velocity": 0, "duration": 342}, {"note": 71, "velocity": 83, "duration": 94}, {"note": 79, "velocity": 83, "duration": 60}, {"note": 0, "velocity": 0, "duration": 80}, {"note": 79, "velocity": 83, "duration": 197}, {"note": 78, "velocity": 83, "duration": 71}, {"note": 79, "velocity": 83, "duration": 205}, {"note": 78, "velocity": 83, "duration": 70}, {"note": 79, "velocity": 83, "duration": 569}, {"note": 0, "velocity": 0, "duration": 92}, {"note": 79, "velocity": 83, "duration": 169}, {"note": 78, "velocity": 83, "duration": 87}, {"note": 0, "velocity": 0, "duration": 103}, {"note": 78, "velocity": 83, "duration": 118}, {"note": 76, "velocity": 83, "duration": 118}, {"note": 0, "velocity": 0, "duration": 122}, {"note": 76, "velocity": 83, "duration": 1200}, {"note": 0, "velocity": 0, "duration": 512}, {"note": 78, "velocity": 83, "duration": 1190}, {"note": 0, "velocity": 0, "duration": 260}, {"note": 78, "velocity": 83, "duration": 247}, {"note": 81, "velocity": 83, "duration": 120}, {"note": 0, "velocity": 0, "duration": 113}, {"note": 81, "velocity": 83, "duration": 302}, {"note": 71, "velocity": 83, "duration": 1138}, {"note": 0, "velocity": 0, "duration": 473}, {"note": 76, "velocity": 83, "duration": 1358}, {"note": 74, "velocity": 83, "duration": 125}, {"note": 76, "velocity": 83, "duration": 116}, {"note": 74, "velocity": 83, "duration": 116}, {"note": 76, "velocity": 83, "duration": 64}, {"note": 0, "velocity": 0, "duration": 73}, {"note": 76, "velocity": 83, "duration": 1354}, {"note": 0, "velocity": 0, "duration": 73}, {"note": 74, "velocity": 83, "duration": 253}, {"note": 78, "velocity": 83, "duration": 129}, {"note": 0, "velocity": 0, "duration": 92}, {"note": 78, "velocity": 83, "duration": 1296}, {"note": 0, "velocity": 0, "duration": 142}, {"note": 78, "velocity": 83, "duration": 256}, {"note": 81, "velocity": 83, "duration": 217}, {"note": 71, "velocity": 83, "duration": 1407}, {"note": 0, "velocity": 0, "duration": 481}, {"note": 76, "velocity": 85, "duration": 1450}, {"note": 74, "velocity": 85, "duration": 120}, {"note": 76, "velocity": 85, "duration": 119}, {"note": 74, "velocity": 85, "duration": 109}, {"note": 76, "velocity": 85, "duration": 71}, {"note": 0, "velocity": 0, "duration": 70}, {"note": 76, "velocity": 85, "duration": 1924}]]