[[{"note": 71, "velocity": 87, "duration": 342}, {"note": 66, "velocity": 87, "duration": 146}, {"note": 71, "velocity": 87, "duration": 100}, {"note": 71, "velocity": 87, "duration": 309}, {"note": 74, "velocity": 87, "duration": 322}, {"note": 71, "velocity": 87, "duration": 142}, {"note": 74, "velocity": 87, "duration": 159}, {"note": 71, "velocity": 87, "duration": 82}, {"note": 73, "velocity": 87, "duration": 78}, {"note": 69, "velocity": 87, "duration": 165}, {"note": 71, "velocity": 87, "duration": 431}, {"note": 0, "velocity": 0, "duration": 529}, {"note": 71, "velocity": 87, "duration": 290}, {"note": 66, "velocity": 87, "duration": 79}, {"note": 64, "velocity": 87, "duration": 95}, {"note": 62, "velocity": 87, "duration": 334}, {"note": 59, "velocity": 87, "duration": 143}, {"note": 64, "velocity": 87, "duration": 97}, {"note": 0, "velocity": 0, "duration": 63}, {"note": 64, "velocity": 87, "duration": 169}, {"note": 66, "velocity": 87, "duration": 166}, {"note": 69, "velocity": 87, "duration": 358}, {"note": 71, "velocity": 87, "duration": 161}, {"note": 73, "velocity": 87, "duration": 163}, {"note": 69, "velocity": 87, "duration": 157}, {"note": 66, "velocity": 87, "duration": 295}, {"note": 0, "velocity": 0, "duration": 505}, {"note": 66, "velocity": 87, "duration": 87}, {"note": 0, "velocity": 0, "duration": 73}, {"note": 66, "velocity": 87, "duration": 167}, {"note": 71, "velocity": 87, "duration": 91}, {"note": 0, "velocity": 0, "duration": 69}, {"note": 71, "velocity": 87, "duration": 340}, {"note": 0, "velocity": 0, "duration": 140}, {"note": 71, "velocity": 87, "duration": 144}, {"note": 74, "velocity": 87, "duration": 142}, {"note": 71, "velocity": 87, "duration": 93}, {"note": 0, "velocity": 0, "duration": 67}, {"note": 78, "velocity": 87, "duration": 145}, {"note": 76, "velocity": 87, "duration": 166}, {"note": 0, "velocity": 0, "duration": 74}, {"note": 71, "velocity": 87, "duration": 58}, {"note": 76, "velocity": 87, "duration": 451}, {"note": 0, "velocity": 0, "duration": 509}, {"note": 74, "velocity": 87, "duration": 286}, {"note": 78, "velocity": 87, "duration": 149}, {"note": 76, "velocity": 87, "duration": 472}, {"note": 74, "velocity": 87, "duration": 77}, {"note": 0, "velocity": 0, "duration": 83}, {"note": 74, "velocity": 87, "duration": 152}, {"note": 78, "velocity": 87, "duration": 145}, {"note": 76, "velocity": 87, "duration": 315}, {"note": 78, "velocity": 87, "duration": 145}, {"note": 73, "velocity": 87, "duration": 312}, {"note": 66, "velocity": 87, "duration": 46}, {"note": 66, "velocity": 87, "duration": 53}, {"note": 69, "velocity": 87, "duration": 167}, {"note": 71, "velocity": 87, "duration": 148}, {"note": 73, "velocity": 87, "duration": 150}, {"note": 71, "velocity": 87, "duration": 445}, {"note": 0, "velocity": 0, "duration": 515}, {"note": 71, "velocity": 87, "duration": 301}, {"note": 66, "velocity": 87, "duration": 169}, {"note": 71, "velocity": 87, "duration": 92}, {"note": 0, "velocity": 0, "duration": 68}, {"note": 71, "velocity": 87, "duration": 270}, {"note": 74, "velocity": 87, "duration": 322}, {"note": 71, "velocity": 87, "duration": 152}, {"note": 73, "velocity": 87, "duration": 98}, {"note": 0, "velocity": 0, "duration": 62}, {"note": 73, "velocity": 87, "duration": 163}, {"note": 69, "velocity": 87, "duration": 157}, {"note": 71, "velocity": 87, "duration": 453}, {"note": 0, "velocity": 0, "duration": 507}, {"note": 71, "velocity": 87, "duration": 301}, {"note": 66, "velocity": 87, "duration": 69}, {"note": 64, "velocity": 87, "duration": 85}, {"note": 62, "velocity": 87, "duration": 93}, {"note": 0, "velocity": 0, "duration": 67}, {"note": 62, "velocity": 87, "duration": 153}, {"note": 59, "velocity": 87, "duration": 103}, {"note": 64, "velocity": 87, "duration": 114}, {"note": 64, "velocity": 87, "duration": 163}, {"note": 66, "velocity": 87, "duration": 144}, {"note": 69, "velocity": 87, "duration": 83}, {"note": 0, "velocity": 0, "duration": 77}, {"note": 71, "velocity": 87, "duration": 157}, {"note": 73, "velocity": 87, "duration": 153}, {"note": 66, "velocity": 87, "duration": 488}, {"note": 0, "velocity": 0, "duration": 472}, {"note": 66, "velocity": 85, "duration": 101}, {"note": 66, "velocity": 85, "duration": 118}, {"note": 71, "velocity": 85, "duration": 106}, {"note": 71, "velocity": 85, "duration": 382}, {"note": 0, "velocity": 0, "duration": 98}, {"note": 71, "velocity": 85, "duration": 136}, {"note": 74, "velocity": 85, "duration": 236}, {"note": 71, "velocity": 85, "duration": 80}, {"note": 78, "velocity": 85, "duration": 145}, {"note": 76, "velocity": 85, "duration": 227}, {"note": 71, "velocity": 85, "duration": 63}, {"note": 76, "velocity": 85, "duration": 108}, {"note": 76, "velocity": 85, "duration": 334}, {"note": 0, "velocity": 0, "duration": 466}, {"note": 74, "velocity": 85, "duration": 291}, {"note": 78, "velocity": 85, "duration": 130}, {"note": 76, "velocity": 85, "duration": 463}, {"note": 74, "velocity": 85, "duration": 47}, {"note": 0, "velocity": 0, "duration": 113}, {"note": 74, "velocity": 85, "duration": 26}, {"note": 74, "velocity": 85, "duration": 63}, {"note": 78, "velocity": 85, "duration": 135}, {"note": 76, "velocity": 85, "duration": 223}, {"note": 0, "velocity": 0, "duration": 97}, {"note": 78, "velocity": 85, "duration": 154}, {"note": 73, "velocity": 85, "duration": 232}, {"note": 0, "velocity": 0, "duration": 88}, {"note": 66, "velocity": 85, "duration": 146}, {"note": 69, "velocity": 85, "duration": 139}, {"note": 71, "velocity": 85, "duration": 161}, {"note": 73, "velocity": 85, "duration": 147}, {"note": 71, "velocity": 85, "duration": 443}, {"note": 0, "velocity": 0, "duration": 517}, {"note": 64, "velocity": 85, "duration": 427}, {"note": 76, "velocity": 85, "duration": 316}, {"note": 74, "velocity": 85, "duration": 83}, {"note": 73, "velocity": 85, "duration": 79}, {"note": 71, "velocity": 85, "duration": 70}, {"note": 73, "velocity": 85, "duration": 81}, {"note": 71, "velocity": 85, "duration": 301}, {"note": 0, "velocity": 0, "duration": 499}, {"note": 74, "velocity": 85, "duration": 175}, {"note": 76, "velocity": 85, "duration": 168}, {"note": 78, "velocity": 85, "duration": 164}, {"note": 71, "velocity": 85, "duration": 238}, {"note": 73, "velocity": 85, "duration": 76}, {"note": 71, "velocity": 85, "duration": 69}, {"note": 69, "velocity": 85, "duration": 76}, {"note": 66, "velocity": 85, "duration": 387}, {"note": 0, "velocity": 0, "duration": 573}, {"note": 66, "velocity": 85, "duration": 273}, {"note": 66, "velocity": 85, "duration": 125}, {"note": 71, "velocity": 85, "duration": 294}, {"note": 0, "velocity": 0, "duration": 66}, {"note": 78, "velocity": 85, "duration": 281}, {"note": 76, "velocity": 85, "duration": 70}, {"note": 78, "velocity": 85, "duration": 61}, {"note": 76, "velocity": 85, "duration": 569}, {"note": 0, "velocity": 0, "duration": 71}, {"note": 74, "velocity": 85, "duration": 298}, {"note": 71, "velocity": 85, "duration": 169}, {"note": 76, "velocity": 85, "duration": 152}, {"note": 74, "velocity": 85, "duration": 164}, {"note": 76, "velocity": 85, "duration": 165}, {"note": 78, "velocity": 85, "duration": 499}, {"note": 0, "velocity": 0, "duration": 1421}, {"note": 66, "velocity": 85, "duration": 104}, {"note": 66, "velocity": 85, "duration": 83}, {"note": 0, "velocity": 0, "duration": 77}, {"note": 66, "velocity": 85, "duration": 155}, {"note": 78, "velocity": 85, "duration": 464}, {"note": 76, "velocity": 85, "duration": 320}, {"note": 78, "velocity": 85, "duration": 156}, {"note": 74, "velocity": 85, "duration": 392}, {"note": 0, "velocity": 0, "duration": 88}, {"note": 64, "velocity": 85, "duration": 183}, {"note": 66, "velocity": 85, "duration": 130}, {"note": 74, "velocity": 85, "duration": 159}, {"note": 71, "velocity": 85, "duration": 312}, {"note": 69, "velocity": 85, "duration": 158}, {"note": 71, "velocity": 85, "duration": 158}, {"note": 73, "velocity": 85, "duration": 86}, {"note": 0, "velocity": 0, "duration": 74}, {"note": 69, "velocity": 85, "duration": 158}, {"note": 66, "velocity": 85, "duration": 290}, {"note": 0, "velocity": 0, "duration": 190}, {"note": 62, "velocity": 85, "duration": 104}, {"note": 64, "velocity": 85, "duration": 85}, {"note": 0, "velocity": 0, "duration": 75}, {"note": 66, "velocity": 85, "duration": 158}, {"note": 71, "velocity": 85, "duration": 166}, {"note": 0, "velocity": 0, "duration": 114}, {"note": 71, "velocity": 85, "duration": 147}, {"note": 69, "velocity": 85, "duration": 321}, {"note": 71, "velocity": 85, "duration": 166}, {"note": 64, "velocity": 85, "duration": 359}, {"note": 0, "velocity": 0, "duration": 121}, {"note": 64, "velocity": 85, "duration": 159}, {"note": 66, "velocity": 85, "duration": 106}, {"note": 76, "velocity": 85, "duration": 67}, {"note": 0, "velocity": 0, "duration": 93}, {"note": 76, "velocity": 85, "duration": 153}, {"note": 78, "velocity": 85, "duration": 163}, {"note": 74, "velocity": 85, "duration": 159}, {"note": 71, "velocity": 85, "duration": 481}, {"note": 0, "velocity": 0, "duration": 479}, {"note": 71, "velocity": 83, "duration": 83}, {"note": 0, "velocity": 0, "duration": 77}, {"note": 71, "velocity": 83, "duration": 66}, {"note": 0, "velocity": 0, "duration": 94}, {"note": 71, "velocity": 83, "duration": 165}, {"note": 78, "velocity": 83, "duration": 216}, {"note": 0, "velocity": 0, "duration": 104}, {"note": 78, "velocity": 83, "duration": 21}, {"note": 78, "velocity": 83, "duration": 47}, {"note": 76, "velocity": 83, "duration": 328}, {"note": 78, "velocity": 80, "duration": 161}, {"note": 76, "velocity": 80, "duration": 364}, {"note": 0, "velocity": 0, "duration": 116}, {"note": 76, "velocity": 80, "duration": 95}, {"note": 0, "velocity": 0, "duration": 65}, {"note": 76, "velocity": 80, "duration": 91}, {"note": 0, "velocity": 0, "duration": 69}, {"note": 76, "velocity": 80, "duration": 163}, {"note": 81, "velocity": 80, "duration": 305}, {"note": 76, "velocity": 78, "duration": 133}, {"note": 78, "velocity": 78, "duration": 72}, {"note": 79, "velocity": 78, "duration": 82}, {"note": 78, "velocity": 78, "duration": 324}, {"note": 0, "velocity": 0, "duration": 476}, {"note": 66, "velocity": 78, "duration": 77}, {"note": 0, "velocity": 0, "duration": 83}, {"note": 66, "velocity": 78, "duration": 58}, {"note": 0, "velocity": 0, "duration": 102}, {"note": 66, "velocity": 78, "duration": 111}, {"note": 78, "velocity": 78, "duration": 459}, {"note": 76, "velocity": 80, "duration": 99}, {"note": 0, "velocity": 0, "duration": 61}, {"note": 76, "velocity": 80, "duration": 72}, {"note": 78, "velocity": 80, "duration": 66}, {"note": 74, "velocity": 80, "duration": 158}, {"note": 76, "velocity": 80, "duration": 409}, {"note": 0, "velocity": 0, "duration": 71}, {"note": 66, "velocity": 80, "duration": 297}, {"note": 73, "velocity": 80, "duration": 146}, {"note": 69, "velocity": 80, "duration": 168}, {"note": 71, "velocity": 80, "duration": 146}, {"note": 73, "velocity": 80, "duration": 161}, {"note": 71, "velocity": 80, "duration": 308}, {"note": 0, "velocity": 0, "duration": 652}, {"note": 47, "velocity": 80, "duration": 54}, {"note": 0, "velocity": 0, "duration": 106}, {"note": 47, "velocity": 80, "duration": 20}, {"note": 47, "velocity": 80, "duration": 24}, {"note": 47, "velocity": 80, "duration": 25}, {"note": 47, "velocity": 80, "duration": 39}, {"note": 52, "velocity": 80, "duration": 40}, {"note": 54, "velocity": 80, "duration": 74}, {"note": 54, "velocity": 80, "duration": 15}, {"note": 54, "velocity": 80, "duration": 18}, {"note": 0, "velocity": 0, "duration": 62}, {"note": 54, "velocity": 80, "duration": 20}, {"note": 54, "velocity": 83, "duration": 25}, {"note": 54, "velocity": 83, "duration": 47}, {"note": 52, "velocity": 83, "duration": 38}, {"note": 0, "velocity": 0, "duration": 82}, {"note": 52, "velocity": 83, "duration": 22}, {"note": 52, "velocity": 83, "duration": 17}, {"note": 0, "velocity": 0, "duration": 63}, {"note": 52, "velocity": 83, "duration": 23}, {"note": 52, "velocity": 83, "duration": 27}, {"note": 52, "velocity": 83, "duration": 25}, {"note": 52, "velocity": 83, "duration": 28}, {"note": 0, "velocity": 0, "duration": 92}, {"note": 52, "velocity": 83, "duration": 22}, {"note": 52, "velocity": 83, "duration": 13}, {"note": 0, "velocity": 0, "duration": 67}, {"note": 52, "velocity": 83, "duration": 20}, {"note": 52, "velocity": 83, "duration": 25}, {"note": 52, "velocity": 83, "duration": 25}, {"note": 52, "velocity": 83, "duration": 53}, {"note": 0, "velocity": 0, "duration": 67}, {"note": 52, "velocity": 83, "duration": 24}, {"note": 52, "velocity": 83, "duration": 18}, {"note": 52, "velocity": 83, "duration": 24}, {"note": 52, "velocity": 83, "duration": 25}, {"note": 52, "velocity": 83, "duration": 22}, {"note": 52, "velocity": 83, "duration": 30}, {"note": 0, "velocity": 0, "duration": 90}, {"note": 52, "velocity": 83, "duration": 23}, {"note": 52, "velocity": 83, "duration": 19}, {"note": 52, "velocity": 83, "duration": 25}, {"note": 52, "velocity": 83, "duration": 27}, {"note": 52, "velocity": 83, "duration": 34}, {"note": 54, "velocity": 83, "duration": 242}, {"note": 52, "velocity": 83, "duration": 85}, {"note": 54, "velocity": 83, "duration": 145}, {"note": 0, "velocity": 0, "duration": 175}, {"note": 74, "velocity": 83, "duration": 109}, {"note": 74, "velocity": 83, "duration": 153}, {"note": 71, "velocity": 83, "duration": 269}, {"note": 74, "velocity": 83, "duration": 88}, {"note": 76, "velocity": 83, "duration": 78}, {"note": 78, "velocity": 83, "duration": 304}, {"note": 83, "velocity": 83, "duration": 142}, {"note": 76, "velocity": 83, "duration": 218}, {"note": 78, "velocity": 83, "duration": 66}, {"note": 74, "velocity": 83, "duration": 151}, {"note": 76, "velocity": 83, "duration": 429}, {"note": 64, "velocity": 83, "duration": 318}, {"note": 66, "velocity": 83, "duration": 154}, {"note": 69, "velocity": 83, "duration": 246}, {"note": 71, "velocity": 83, "duration": 84}, {"note": 73, "velocity": 83, "duration": 121}, {"note": 73, "velocity": 83, "duration": 198}, {"note": 71, "velocity": 83, "duration": 43}, {"note": 73, "velocity": 83, "duration": 318}, {"note": 71, "velocity": 83, "duration": 42}, {"note": 73, "velocity": 83, "duration": 26}, {"note": 74, "velocity": 83, "duration": 46}, {"note": 71, "velocity": 83, "duration": 35}, {"note": 73, "velocity": 83, "duration": 438}, {"note": 66, "velocity": 83, "duration": 176}, {"note": 68, "velocity": 83, "duration": 163}, {"note": 70, "velocity": 83, "duration": 150}, {"note": 66, "velocity": 83, "duration": 104}, {"note": 66, "velocity": 83, "duration": 83}, {"note": 0, "velocity": 0, "duration": 77}, {"note": 66, "velocity": 83, "duration": 155}, {"note": 78, "velocity": 83, "duration": 464}, {"note": 76, "velocity": 83, "duration": 320}, {"note": 78, "velocity": 83, "duration": 156}, {"note": 74, "velocity": 83, "duration": 392}, {"note": 0, "velocity": 0, "duration": 88}, {"note": 64, "velocity": 83, "duration": 183}, {"note": 66, "velocity": 83, "duration": 130}, {"note": 74, "velocity": 83, "duration": 159}, {"note": 71, "velocity": 83, "duration": 312}, {"note": 69, "velocity": 83, "duration": 158}, {"note": 71, "velocity": 83, "duration": 158}, {"note": 73, "velocity": 83, "duration": 86}, {"note": 0, "velocity": 0, "duration": 74}, {"note": 69, "velocity": 83, "duration": 158}, {"note": 66, "velocity": 83, "duration": 290}, {"note": 0, "velocity": 0, "duration": 190}, {"note": 62, "velocity": 83, "duration": 104}, {"note": 64, "velocity": 83, "duration": 85}, {"note": 0, "velocity": 0, "duration": 75}, {"note": 66, "velocity": 83, "duration": 158}, {"note": 71, "velocity": 83, "duration": 166}, {"note": 0, "velocity": 0, "duration": 114}, {"note": 71, "velocity": 83, "duration": 147}, {"note": 69, "velocity": 83, "duration": 321}, {"note": 71, "velocity": 83, "duration": 166}, {"note": 64, "velocity": 83, "duration": 359}, {"note": 0, "velocity": 0, "duration": 121}, {"note": 64, "velocity": 83, "duration": 159}, {"note": 66, "velocity": 83, "duration": 106}, {"note": 76, "velocity": 83, "duration": 67}, {"note": 0, "velocity": 0, "duration": 93}, {"note": 76, "velocity": 83, "duration": 153}, {"note": 78, "velocity": 83, "duration": 163}, {"note": 74, "velocity": 83, "duration": 159}, {"note": 71, "velocity": 83, "duration": 481}, {"note": 0, "velocity": 0, "duration": 479}, {"note": 71, "velocity": 83, "duration": 83}, {"note": 0, "velocity": 0, "duration": 77}, {"note": 71, "velocity": 83, "duration": 66}, {"note": 0, "velocity": 0, "duration": 94}, {"note": 71, "velocity": 83, "duration": 165}, {"note": 78, "velocity": 83, "duration": 216}, {"note": 0, "velocity": 0, "duration": 104}, {"note": 78, "velocity": 83, "duration": 21}, {"note": 78, "velocity": 83, "duration": 47}, {"note": 76, "velocity": 83, "duration": 328}, {"note": 78, "velocity": 83, "duration": 161}, {"note": 76, "velocity": 83, "duration": 364}, {"note": 0, "velocity": 0, "duration": 116}, {"note": 76, "velocity": 83, "duration": 95}, {"note": 0, "velocity": 0, "duration": 65}, {"note": 76, "velocity": 83, "duration": 91}, {"note": 0, "velocity": 0, "duration": 69}, {"note": 76, "velocity": 83, "duration": 163}, {"note": 81, "velocity": 83, "duration": 305}, {"note": 83, "velocity": 83, "duration": 158}, {"note": 78, "velocity": 83, "duration": 135}, {"note": 81, "velocity": 83, "duration": 144}, {"note": 78, "velocity": 83, "duration": 518}, {"note": 0, "velocity": 0, "duration": 125}, {"note": 66, "velocity": 83, "duration": 77}, {"note": 0, "velocity": 0, "duration": 83}, {"note": 66, "velocity": 83, "duration": 58}, {"note": 0, "velocity": 0, "duration": 102}, {"note": 66, "velocity": 83, "duration": 111}, {"note": 78, "velocity": 83, "duration": 459}, {"note": 76, "velocity": 83, "duration": 99}, {"note": 0, "velocity": 0, "duration": 61}, {"note": 76, "velocity": 83, "duration": 72}, {"note": 78, "velocity": 83, "duration": 66}, {"note": 74, "velocity": 83, "duration": 158}, {"note": 76, "velocity": 83, "duration": 409}, {"note": 0, "velocity": 0, "duration": 71}, {"note": 66, "velocity": 83, "duration": 297}, {"note": 73, "velocity": 83, "duration": 146}, {"note": 69, "velocity": 83, "duration": 168}, {"note": 71, "velocity": 83, "duration": 146}, {"note": 73, "velocity": 83, "duration": 161}, {"note": 71, "velocity": 83, "duration": 308}, {"note": 0, "velocity": 0, "duration": 639}, {"note": 71, "velocity": 83, "duration": 95}, {"note": 0, "velocity": 0, "duration": 63}, {"note": 71, "velocity": 83, "duration": 77}, {"note": 0, "velocity": 0, "duration": 77}, {"note": 71, "velocity": 83, "duration": 154}, {"note": 78, "velocity": 83, "duration": 311}, {"note": 83, "velocity": 83, "duration": 153}, {"note": 76, "velocity": 83, "duration": 113}, {"note": 76, "velocity": 85, "duration": 67}, {"note": 78, "velocity": 85, "duration": 77}, {"note": 74, "velocity": 85, "duration": 157}, {"note": 76, "velocity": 85, "duration": 335}, {"note": 0, "velocity": 0, "duration": 146}, {"note": 66, "velocity": 85, "duration": 340}, {"note": 73, "velocity": 85, "duration": 158}, {"note": 69, "velocity": 85, "duration": 142}, {"note": 71, "velocity": 85, "duration": 148}, {"note": 73, "velocity": 85, "duration": 154}, {"note": 71, "velocity": 85, "duration": 519}, {"note": 0, "velocity": 0, "duration": 481}, {"note": 66, "velocity": 85, "duration": 370}, {"note": 76, "velocity": 85, "duration": 164}, {"note": 0, "velocity": 0, "duration": 64}, {"note": 76, "velocity": 85, "duration": 292}, {"note": 78, "velocity": 85, "duration": 892}, {"note": 74, "velocity": 85, "duration": 169}, {"note": 76, "velocity": 85, "duration": 181}, {"note": 74, "velocity": 85, "duration": 238}, {"note": 74, "velocity": 83, "duration": 329}, {"note": 0, "velocity": 0, "duration": 71}, {"note": 71, "velocity": 80, "duration": 999}]]