[[{"note": 59, "velocity": 90, "duration": 186}, {"note": 67, "velocity": 90, "duration": 130}, {"note": 0, "velocity": 0, "duration": 110}, {"note": 67, "velocity": 84, "duration": 65}, {"note": 67, "velocity": 83, "duration": 209}, {"note": 0, "velocity": 0, "duration": 151}, {"note": 67, "velocity": 86, "duration": 127}, {"note": 0, "velocity": 0, "duration": 113}, {"note": 67, "velocity": 86, "duration": 142}, {"note": 0, "velocity": 0, "duration": 98}, {"note": 67, "velocity": 85, "duration": 68}, {"note": 69, "velocity": 85, "duration": 310}, {"note": 67, "velocity": 84, "duration": 145}, {"note": 0, "velocity": 0, "duration": 95}, {"note": 66, "velocity": 85, "duration": 61}, {"note": 66, "velocity": 78, "duration": 61}, {"note": 66, "velocity": 79, "duration": 57}, {"note": 0, "velocity": 0, "duration": 63}, {"note": 66, "velocity": 81, "duration": 55}, {"note": 0, "velocity": 0, "duration": 65}, {"note": 66, "velocity": 85, "duration": 160}, {"note": 0, "velocity": 0, "duration": 80}, {"note": 67, "velocity": 83, "duration": 50}, {"note": 0, "velocity": 0, "duration": 70}, {"note": 66, "velocity": 86, "duration": 308}, {"note": 0, "velocity": 0, "duration": 292}, {"note": 64, "velocity": 87, "duration": 184}, {"note": 62, "velocity": 84, "duration": 120}, {"note": 0, "velocity": 0, "duration": 120}, {"note": 64, "velocity": 87, "duration": 84}, {"note": 0, "velocity": 0, "duration": 156}, {"note": 64, "velocity": 87, "duration": 98}, {"note": 0, "velocity": 0, "duration": 142}, {"note": 64, "velocity": 87, "duration": 139}, {"note": 0, "velocity": 0, "duration": 101}, {"note": 64, "velocity": 83, "duration": 61}, {"note": 64, "velocity": 87, "duration": 247}, {"note": 0, "velocity": 0, "duration": 113}, {"note": 64, "velocity": 89, "duration": 145}, {"note": 0, "velocity": 0, "duration": 95}, {"note": 66, "velocity": 83, "duration": 159}, {"note": 0, "velocity": 0, "duration": 81}, {"note": 64, "velocity": 89, "duration": 127}, {"note": 0, "velocity": 0, "duration": 113}, {"note": 63, "velocity": 83, "duration": 58}, {"note": 0, "velocity": 0, "duration": 62}, {"note": 63, "velocity": 80, "duration": 64}, {"note": 63, "velocity": 82, "duration": 65}, {"note": 63, "velocity": 81, "duration": 61}, {"note": 63, "velocity": 84, "duration": 123}, {"note": 0, "velocity": 0, "duration": 117}, {"note": 59, "velocity": 84, "duration": 68}, {"note": 57, "velocity": 83, "duration": 196}, {"note": 59, "velocity": 85, "duration": 418}, {"note": 0, "velocity": 0, "duration": 182}, {"note": 59, "velocity": 87, "duration": 164}, {"note": 0, "velocity": 0, "duration": 76}, {"note": 67, "velocity": 86, "duration": 109}, {"note": 0, "velocity": 0, "duration": 131}, {"note": 67, "velocity": 85, "duration": 91}, {"note": 0, "velocity": 0, "duration": 149}, {"note": 67, "velocity": 84, "duration": 112}, {"note": 0, "velocity": 0, "duration": 128}, {"note": 67, "velocity": 80, "duration": 73}, {"note": 69, "velocity": 84, "duration": 257}, {"note": 0, "velocity": 0, "duration": 103}, {"note": 67, "velocity": 84, "duration": 254}, {"note": 0, "velocity": 0, "duration": 226}, {"note": 59, "velocity": 85, "duration": 120}, {"note": 0, "velocity": 0, "duration": 120}, {"note": 66, "velocity": 82, "duration": 102}, {"note": 0, "velocity": 0, "duration": 138}, {"note": 66, "velocity": 83, "duration": 84}, {"note": 0, "velocity": 0, "duration": 156}, {"note": 66, "velocity": 85, "duration": 107}, {"note": 0, "velocity": 0, "duration": 133}, {"note": 66, "velocity": 84, "duration": 59}, {"note": 0, "velocity": 0, "duration": 61}, {"note": 67, "velocity": 83, "duration": 268}, {"note": 0, "velocity": 0, "duration": 92}, {"note": 66, "velocity": 85, "duration": 209}, {"note": 64, "velocity": 84, "duration": 166}, {"note": 0, "velocity": 0, "duration": 74}, {"note": 62, "velocity": 84, "duration": 137}, {"note": 0, "velocity": 0, "duration": 103}, {"note": 64, "velocity": 87, "duration": 796}, {"note": 0, "velocity": 0, "duration": 644}, {"note": 62, "velocity": 87, "duration": 149}, {"note": 0, "velocity": 0, "duration": 91}, {"note": 62, "velocity": 85, "duration": 156}, {"note": 0, "velocity": 0, "duration": 84}, {"note": 64, "velocity": 89, "duration": 1550}, {"note": 0, "velocity": 0, "duration": 130}, {"note": 59, "velocity": 90, "duration": 186}, {"note": 67, "velocity": 90, "duration": 130}, {"note": 0, "velocity": 0, "duration": 110}, {"note": 67, "velocity": 84, "duration": 65}, {"note": 67, "velocity": 83, "duration": 209}, {"note": 0, "velocity": 0, "duration": 151}, {"note": 67, "velocity": 86, "duration": 127}, {"note": 0, "velocity": 0, "duration": 113}, {"note": 67, "velocity": 86, "duration": 142}, {"note": 0, "velocity": 0, "duration": 98}, {"note": 67, "velocity": 85, "duration": 68}, {"note": 69, "velocity": 85, "duration": 310}, {"note": 67, "velocity": 84, "duration": 145}, {"note": 0, "velocity": 0, "duration": 95}, {"note": 66, "velocity": 85, "duration": 61}, {"note": 66, "velocity": 78, "duration": 61}, {"note": 66, "velocity": 79, "duration": 57}, {"note": 0, "velocity": 0, "duration": 63}, {"note": 66, "velocity": 81, "duration": 55}, {"note": 0, "velocity": 0, "duration": 65}, {"note": 66, "velocity": 85, "duration": 160}, {"note": 0, "velocity": 0, "duration": 80}, {"note": 67, "velocity": 83, "duration": 50}, {"note": 0, "velocity": 0, "duration": 70}, {"note": 66, "velocity": 86, "duration": 308}, {"note": 0, "velocity": 0, "duration": 292}, {"note": 64, "velocity": 87, "duration": 184}, {"note": 62, "velocity": 84, "duration": 120}, {"note": 0, "velocity": 0, "duration": 120}, {"note": 64, "velocity": 87, "duration": 84}, {"note": 0, "velocity": 0, "duration": 156}, {"note": 64, "velocity": 87, "duration": 98}, {"note": 0, "velocity": 0, "duration": 142}, {"note": 64, "velocity": 87, "duration": 139}, {"note": 0, "velocity": 0, "duration": 101}, {"note": 64, "velocity": 83, "duration": 61}, {"note": 64, "velocity": 87, "duration": 247}, {"note": 0, "velocity": 0, "duration": 113}, {"note": 64, "velocity": 89, "duration": 145}, {"note": 0, "velocity": 0, "duration": 95}, {"note": 66, "velocity": 83, "duration": 159}, {"note": 0, "velocity": 0, "duration": 81}, {"note": 64, "velocity": 89, "duration": 127}, {"note": 0, "velocity": 0, "duration": 113}, {"note": 63, "velocity": 83, "duration": 58}, {"note": 0, "velocity": 0, "duration": 62}, {"note": 63, "velocity": 80, "duration": 64}, {"note": 63, "velocity": 82, "duration": 65}, {"note": 63, "velocity": 81, "duration": 61}, {"note": 63, "velocity": 84, "duration": 123}, {"note": 0, "velocity": 0, "duration": 117}, {"note": 59, "velocity": 84, "duration": 68}, {"note": 57, "velocity": 83, "duration": 196}, {"note": 59, "velocity": 85, "duration": 418}, {"note": 0, "velocity": 0, "duration": 182}, {"note": 59, "velocity": 87, "duration": 164}, {"note": 0, "velocity": 0, "duration": 76}, {"note": 67, "velocity": 86, "duration": 109}, {"note": 0, "velocity": 0, "duration": 131}, {"note": 67, "velocity": 85, "duration": 91}, {"note": 0, "velocity": 0, "duration": 149}, {"note": 67, "velocity": 84, "duration": 112}, {"note": 0, "velocity": 0, "duration": 128}, {"note": 67, "velocity": 80, "duration": 73}, {"note": 69, "velocity": 84, "duration": 257}, {"note": 0, "velocity": 0, "duration": 103}, {"note": 67, "velocity": 84, "duration": 254}, {"note": 0, "velocity": 0, "duration": 226}, {"note": 59, "velocity": 85, "duration": 120}, {"note": 0, "velocity": 0, "duration": 120}, {"note": 66, "velocity": 82, "duration": 102}, {"note": 0, "velocity": 0, "duration": 138}, {"note": 66, "velocity": 83, "duration": 84}, {"note": 0, "velocity": 0, "duration": 156}, {"note": 66, "velocity": 85, "duration": 107}, {"note": 0, "velocity": 0, "duration": 133}, {"note": 66, "velocity": 84, "duration": 59}, {"note": 0, "velocity": 0, "duration": 61}, {"note": 67, "velocity": 83, "duration": 268}, {"note": 0, "velocity": 0, "duration": 92}, {"note": 66, "velocity": 85, "duration": 209}, {"note": 64, "velocity": 84, "duration": 166}, {"note": 0, "velocity": 0, "duration": 74}, {"note": 62, "velocity": 84, "duration": 137}, {"note": 0, "velocity": 0, "duration": 103}, {"note": 64, "velocity": 87, "duration": 796}, {"note": 0, "velocity": 0, "duration": 644}, {"note": 62, "velocity": 87, "duration": 149}, {"note": 0, "velocity": 0, "duration": 91}, {"note": 62, "velocity": 85, "duration": 156}, {"note": 0, "velocity": 0, "duration": 84}, {"note": 64, "velocity": 89, "duration": 1200}, {"note": 0, "velocity": 0, "duration": 240}, {"note": 59, "velocity": 87, "duration": 134}, {"note": 0, "velocity": 0, "duration": 106}, {"note": 62, "velocity": 83, "duration": 178}, {"note": 0, "velocity": 0, "duration": 62}, {"note": 64, "velocity": 87, "duration": 341}, {"note": 0, "velocity": 0, "duration": 139}, {"note": 64, "velocity": 84, "duration": 164}, {"note": 0, "velocity": 0, "duration": 76}, {"note": 62, "velocity": 84, "duration": 134}, {"note": 0, "velocity": 0, "duration": 106}, {"note": 64, "velocity": 86, "duration": 170}, {"note": 0, "velocity": 0, "duration": 70}, {"note": 66, "velocity": 84, "duration": 133}, {"note": 0, "velocity": 0, "duration": 107}, {"note": 64, "velocity": 92, "duration": 155}, {"note": 0, "velocity": 0, "duration": 85}, {"note": 62, "velocity": 85, "duration": 123}, {"note": 0, "velocity": 0, "duration": 117}, {"note": 59, "velocity": 85, "duration": 294}, {"note": 0, "velocity": 0, "duration": 186}, {"note": 59, "velocity": 81, "duration": 159}, {"note": 0, "velocity": 0, "duration": 81}, {"note": 62, "velocity": 84, "duration": 175}, {"note": 0, "velocity": 0, "duration": 65}, {"note": 62, "velocity": 87, "duration": 254}, {"note": 0, "velocity": 0, "duration": 226}, {"note": 59, "velocity": 88, "duration": 137}, {"note": 0, "velocity": 0, "duration": 103}, {"note": 62, "velocity": 84, "duration": 156}, {"note": 0, "velocity": 0, "duration": 84}, {"note": 64, "velocity": 84, "duration": 355}, {"note": 0, "velocity": 0, "duration": 125}, {"note": 64, "velocity": 87, "duration": 183}, {"note": 62, "velocity": 84, "duration": 177}, {"note": 0, "velocity": 0, "duration": 63}, {"note": 64, "velocity": 87, "duration": 166}, {"note": 0, "velocity": 0, "duration": 74}, {"note": 66, "velocity": 83, "duration": 176}, {"note": 0, "velocity": 0, "duration": 64}, {"note": 64, "velocity": 87, "duration": 129}, {"note": 0, "velocity": 0, "duration": 111}, {"note": 62, "velocity": 85, "duration": 171}, {"note": 0, "velocity": 0, "duration": 69}, {"note": 59, "velocity": 85, "duration": 257}, {"note": 0, "velocity": 0, "duration": 223}, {"note": 64, "velocity": 87, "duration": 171}, {"note": 0, "velocity": 0, "duration": 69}, {"note": 62, "velocity": 85, "duration": 198}, {"note": 59, "velocity": 84, "duration": 373}, {"note": 0, "velocity": 0, "duration": 107}, {"note": 59, "velocity": 85, "duration": 184}, {"note": 62, "velocity": 84, "duration": 157}, {"note": 0, "velocity": 0, "duration": 83}, {"note": 64, "velocity": 84, "duration": 304}, {"note": 0, "velocity": 0, "duration": 176}, {"note": 64, "velocity": 87, "duration": 168}, {"note": 0, "velocity": 0, "duration": 72}, {"note": 62, "velocity": 84, "duration": 185}, {"note": 64, "velocity": 84, "duration": 170}, {"note": 0, "velocity": 0, "duration": 70}, {"note": 66, "velocity": 83, "duration": 167}, {"note": 0, "velocity": 0, "duration": 73}, {"note": 64, "velocity": 87, "duration": 182}, {"note": 62, "velocity": 84, "duration": 164}, {"note": 0, "velocity": 0, "duration": 76}, {"note": 59, "velocity": 84, "duration": 294}, {"note": 0, "velocity": 0, "duration": 186}, {"note": 64, "velocity": 84, "duration": 200}, {"note": 62, "velocity": 86, "duration": 77}, {"note": 59, "velocity": 85, "duration": 77}, {"note": 62, "velocity": 83, "duration": 316}, {"note": 0, "velocity": 0, "duration": 164}, {"note": 59, "velocity": 85, "duration": 156}, {"note": 0, "velocity": 0, "duration": 84}, {"note": 62, "velocity": 85, "duration": 152}, {"note": 0, "velocity": 0, "duration": 88}, {"note": 64, "velocity": 85, "duration": 297}, {"note": 0, "velocity": 0, "duration": 183}, {"note": 64, "velocity": 89, "duration": 175}, {"note": 0, "velocity": 0, "duration": 65}, {"note": 62, "velocity": 84, "duration": 173}, {"note": 0, "velocity": 0, "duration": 67}, {"note": 64, "velocity": 86, "duration": 150}, {"note": 0, "velocity": 0, "duration": 90}, {"note": 64, "velocity": 82, "duration": 170}, {"note": 0, "velocity": 0, "duration": 70}, {"note": 69, "velocity": 84, "duration": 151}, {"note": 0, "velocity": 0, "duration": 89}, {"note": 69, "velocity": 84, "duration": 186}, {"note": 62, "velocity": 85, "duration": 361}, {"note": 0, "velocity": 0, "duration": 119}, {"note": 66, "velocity": 86, "duration": 197}, {"note": 64, "velocity": 87, "duration": 127}, {"note": 0, "velocity": 0, "duration": 113}, {"note": 64, "velocity": 89, "duration": 348}, {"note": 0, "velocity": 0, "duration": 132}, {"note": 59, "velocity": 87, "duration": 134}, {"note": 0, "velocity": 0, "duration": 106}, {"note": 62, "velocity": 83, "duration": 178}, {"note": 0, "velocity": 0, "duration": 62}, {"note": 64, "velocity": 87, "duration": 341}, {"note": 0, "velocity": 0, "duration": 139}, {"note": 64, "velocity": 84, "duration": 164}, {"note": 0, "velocity": 0, "duration": 76}, {"note": 62, "velocity": 84, "duration": 134}, {"note": 0, "velocity": 0, "duration": 106}, {"note": 64, "velocity": 86, "duration": 170}, {"note": 0, "velocity": 0, "duration": 70}, {"note": 66, "velocity": 84, "duration": 133}, {"note": 0, "velocity": 0, "duration": 107}, {"note": 64, "velocity": 92, "duration": 155}, {"note": 0, "velocity": 0, "duration": 85}, {"note": 62, "velocity": 85, "duration": 123}, {"note": 0, "velocity": 0, "duration": 117}, {"note": 59, "velocity": 85, "duration": 294}, {"note": 0, "velocity": 0, "duration": 186}, {"note": 59, "velocity": 81, "duration": 159}, {"note": 0, "velocity": 0, "duration": 81}, {"note": 62, "velocity": 84, "duration": 175}, {"note": 0, "velocity": 0, "duration": 65}, {"note": 62, "velocity": 87, "duration": 254}, {"note": 0, "velocity": 0, "duration": 226}, {"note": 59, "velocity": 88, "duration": 137}, {"note": 0, "velocity": 0, "duration": 103}, {"note": 62, "velocity": 84, "duration": 156}, {"note": 0, "velocity": 0, "duration": 84}, {"note": 64, "velocity": 84, "duration": 355}, {"note": 0, "velocity": 0, "duration": 125}, {"note": 64, "velocity": 87, "duration": 183}, {"note": 62, "velocity": 84, "duration": 177}, {"note": 0, "velocity": 0, "duration": 63}, {"note": 64, "velocity": 87, "duration": 166}, {"note": 0, "velocity": 0, "duration": 74}, {"note": 66, "velocity": 83, "duration": 176}, {"note": 0, "velocity": 0, "duration": 64}, {"note": 64, "velocity": 87, "duration": 129}, {"note": 0, "velocity": 0, "duration": 111}, {"note": 62, "velocity": 85, "duration": 171}, {"note": 0, "velocity": 0, "duration": 69}, {"note": 59, "velocity": 85, "duration": 257}, {"note": 0, "velocity": 0, "duration": 223}, {"note": 64, "velocity": 87, "duration": 171}, {"note": 0, "velocity": 0, "duration": 69}, {"note": 62, "velocity": 85, "duration": 198}, {"note": 59, "velocity": 84, "duration": 373}, {"note": 0, "velocity": 0, "duration": 107}, {"note": 59, "velocity": 85, "duration": 184}, {"note": 62, "velocity": 84, "duration": 157}, {"note": 0, "velocity": 0, "duration": 83}, {"note": 64, "velocity": 84, "duration": 304}, {"note": 0, "velocity": 0, "duration": 176}, {"note": 64, "velocity": 87, "duration": 168}, {"note": 0, "velocity": 0, "duration": 72}, {"note": 62, "velocity": 84, "duration": 185}, {"note": 64, "velocity": 84, "duration": 170}, {"note": 0, "velocity": 0, "duration": 70}, {"note": 66, "velocity": 83, "duration": 167}, {"note": 0, "velocity": 0, "duration": 73}, {"note": 64, "velocity": 87, "duration": 182}, {"note": 62, "velocity": 84, "duration": 164}, {"note": 0, "velocity": 0, "duration": 76}, {"note": 59, "velocity": 84, "duration": 294}, {"note": 0, "velocity": 0, "duration": 186}, {"note": 64, "velocity": 84, "duration": 200}, {"note": 62, "velocity": 86, "duration": 77}, {"note": 59, "velocity": 85, "duration": 77}, {"note": 62, "velocity": 83, "duration": 316}, {"note": 0, "velocity": 0, "duration": 164}, {"note": 59, "velocity": 85, "duration": 156}, {"note": 0, "velocity": 0, "duration": 84}, {"note": 62, "velocity": 85, "duration": 152}, {"note": 0, "velocity": 0, "duration": 88}, {"note": 64, "velocity": 85, "duration": 297}, {"note": 0, "velocity": 0, "duration": 183}, {"note": 64, "velocity": 89, "duration": 175}, {"note": 0, "velocity": 0, "duration": 65}, {"note": 62, "velocity": 84, "duration": 173}, {"note": 0, "velocity": 0, "duration": 67}, {"note": 64, "velocity": 86, "duration": 150}, {"note": 0, "velocity": 0, "duration": 90}, {"note": 64, "velocity": 82, "duration": 170}, {"note": 0, "velocity": 0, "duration": 70}, {"note": 69, "velocity": 84, "duration": 151}, {"note": 0, "velocity": 0, "duration": 89}, {"note": 69, "velocity": 84, "duration": 186}, {"note": 62, "velocity": 85, "duration": 361}, {"note": 0, "velocity": 0, "duration": 119}, {"note": 66, "velocity": 86, "duration": 197}, {"note": 64, "velocity": 87, "duration": 127}, {"note": 0, "velocity": 0, "duration": 113}, {"note": 64, "velocity": 89, "duration": 348}, {"note": 0, "velocity": 0, "duration": 16692}, {"note": 59, "velocity": 90, "duration": 186}, {"note": 67, "velocity": 90, "duration": 130}, {"note": 0, "velocity": 0, "duration": 110}, {"note": 67, "velocity": 84, "duration": 65}, {"note": 67, "velocity": 83, "duration": 209}, {"note": 0, "velocity": 0, "duration": 151}, {"note": 67, "velocity": 86, "duration": 127}, {"note": 0, "velocity": 0, "duration": 113}, {"note": 67, "velocity": 86, "duration": 142}, {"note": 0, "velocity": 0, "duration": 98}, {"note": 67, "velocity": 85, "duration": 68}, {"note": 69, "velocity": 85, "duration": 310}, {"note": 67, "velocity": 84, "duration": 145}, {"note": 0, "velocity": 0, "duration": 95}, {"note": 66, "velocity": 85, "duration": 61}, {"note": 66, "velocity": 78, "duration": 61}, {"note": 66, "velocity": 79, "duration": 57}, {"note": 0, "velocity": 0, "duration": 63}, {"note": 66, "velocity": 81, "duration": 55}, {"note": 0, "velocity": 0, "duration": 65}, {"note": 66, "velocity": 85, "duration": 160}, {"note": 0, "velocity": 0, "duration": 80}, {"note": 67, "velocity": 83, "duration": 50}, {"note": 0, "velocity": 0, "duration": 70}, {"note": 66, "velocity": 86, "duration": 308}, {"note": 0, "velocity": 0, "duration": 292}, {"note": 64, "velocity": 87, "duration": 184}, {"note": 62, "velocity": 84, "duration": 120}, {"note": 0, "velocity": 0, "duration": 120}, {"note": 64, "velocity": 87, "duration": 84}, {"note": 0, "velocity": 0, "duration": 156}, {"note": 64, "velocity": 87, "duration": 98}, {"note": 0, "velocity": 0, "duration": 142}, {"note": 64, "velocity": 87, "duration": 139}, {"note": 0, "velocity": 0, "duration": 101}, {"note": 64, "velocity": 83, "duration": 61}, {"note": 64, "velocity": 87, "duration": 247}, {"note": 0, "velocity": 0, "duration": 113}, {"note": 64, "velocity": 89, "duration": 145}, {"note": 0, "velocity": 0, "duration": 95}, {"note": 66, "velocity": 83, "duration": 159}, {"note": 0, "velocity": 0, "duration": 81}, {"note": 64, "velocity": 89, "duration": 127}, {"note": 0, "velocity": 0, "duration": 113}, {"note": 63, "velocity": 83, "duration": 58}, {"note": 0, "velocity": 0, "duration": 62}, {"note": 63, "velocity": 80, "duration": 64}, {"note": 63, "velocity": 82, "duration": 65}, {"note": 63, "velocity": 81, "duration": 61}, {"note": 63, "velocity": 84, "duration": 123}, {"note": 0, "velocity": 0, "duration": 117}, {"note": 59, "velocity": 84, "duration": 68}, {"note": 57, "velocity": 83, "duration": 196}, {"note": 59, "velocity": 85, "duration": 418}, {"note": 0, "velocity": 0, "duration": 182}, {"note": 59, "velocity": 87, "duration": 164}, {"note": 0, "velocity": 0, "duration": 76}, {"note": 67, "velocity": 86, "duration": 109}, {"note": 0, "velocity": 0, "duration": 131}, {"note": 67, "velocity": 85, "duration": 91}, {"note": 0, "velocity": 0, "duration": 149}, {"note": 67, "velocity": 84, "duration": 112}, {"note": 0, "velocity": 0, "duration": 128}, {"note": 67, "velocity": 80, "duration": 73}, {"note": 69, "velocity": 84, "duration": 257}, {"note": 0, "velocity": 0, "duration": 103}, {"note": 67, "velocity": 84, "duration": 254}, {"note": 0, "velocity": 0, "duration": 226}, {"note": 59, "velocity": 85, "duration": 120}, {"note": 0, "velocity": 0, "duration": 120}, {"note": 66, "velocity": 82, "duration": 102}, {"note": 0, "velocity": 0, "duration": 138}, {"note": 66, "velocity": 83, "duration": 84}, {"note": 0, "velocity": 0, "duration": 156}, {"note": 66, "velocity": 85, "duration": 107}, {"note": 0, "velocity": 0, "duration": 133}, {"note": 66, "velocity": 84, "duration": 59}, {"note": 0, "velocity": 0, "duration": 61}, {"note": 67, "velocity": 83, "duration": 268}, {"note": 0, "velocity": 0, "duration": 92}, {"note": 66, "velocity": 85, "duration": 209}, {"note": 64, "velocity": 84, "duration": 166}, {"note": 0, "velocity": 0, "duration": 74}, {"note": 62, "velocity": 84, "duration": 137}, {"note": 0, "velocity": 0, "duration": 103}, {"note": 64, "velocity": 87, "duration": 796}, {"note": 0, "velocity": 0, "duration": 644}, {"note": 62, "velocity": 87, "duration": 149}, {"note": 0, "velocity": 0, "duration": 91}, {"note": 62, "velocity": 85, "duration": 156}, {"note": 0, "velocity": 0, "duration": 84}, {"note": 64, "velocity": 89, "duration": 1550}, {"note": 0, "velocity": 0, "duration": 130}, {"note": 59, "velocity": 90, "duration": 186}, {"note": 67, "velocity": 90, "duration": 130}, {"note": 0, "velocity": 0, "duration": 110}, {"note": 67, "velocity": 84, "duration": 65}, {"note": 67, "velocity": 83, "duration": 209}, {"note": 0, "velocity": 0, "duration": 151}, {"note": 67, "velocity": 86, "duration": 127}, {"note": 0, "velocity": 0, "duration": 113}, {"note": 67, "velocity": 86, "duration": 142}, {"note": 0, "velocity": 0, "duration": 98}, {"note": 67, "velocity": 85, "duration": 68}, {"note": 69, "velocity": 85, "duration": 310}, {"note": 67, "velocity": 84, "duration": 145}, {"note": 0, "velocity": 0, "duration": 95}, {"note": 66, "velocity": 85, "duration": 61}, {"note": 66, "velocity": 78, "duration": 61}, {"note": 66, "velocity": 79, "duration": 57}, {"note": 0, "velocity": 0, "duration": 63}, {"note": 66, "velocity": 81, "duration": 55}, {"note": 0, "velocity": 0, "duration": 65}, {"note": 66, "velocity": 85, "duration": 160}, {"note": 0, "velocity": 0, "duration": 80}, {"note": 67, "velocity": 83, "duration": 50}, {"note": 0, "velocity": 0, "duration": 70}, {"note": 66, "velocity": 86, "duration": 308}, {"note": 0, "velocity": 0, "duration": 292}, {"note": 64, "velocity": 87, "duration": 184}, {"note": 62, "velocity": 84, "duration": 120}, {"note": 0, "velocity": 0, "duration": 120}, {"note": 64, "velocity": 87, "duration": 84}, {"note": 0, "velocity": 0, "duration": 156}, {"note": 64, "velocity": 87, "duration": 98}, {"note": 0, "velocity": 0, "duration": 142}, {"note": 64, "velocity": 87, "duration": 139}, {"note": 0, "velocity": 0, "duration": 101}, {"note": 64, "velocity": 83, "duration": 61}, {"note": 64, "velocity": 87, "duration": 247}, {"note": 0, "velocity": 0, "duration": 113}, {"note": 64, "velocity": 89, "duration": 145}, {"note": 0, "velocity": 0, "duration": 95}, {"note": 66, "velocity": 83, "duration": 159}, {"note": 0, "velocity": 0, "duration": 81}, {"note": 64, "velocity": 89, "duration": 127}, {"note": 0, "velocity": 0, "duration": 113}, {"note": 63, "velocity": 83, "duration": 58}, {"note": 0, "velocity": 0, "duration": 62}, {"note": 63, "velocity": 80, "duration": 64}, {"note": 63, "velocity": 82, "duration": 65}, {"note": 63, "velocity": 81, "duration": 61}, {"note": 63, "velocity": 84, "duration": 123}, {"note": 0, "velocity": 0, "duration": 117}, {"note": 59, "velocity": 84, "duration": 68}, {"note": 57, "velocity": 83, "duration": 196}, {"note": 59, "velocity": 85, "duration": 418}, {"note": 0, "velocity": 0, "duration": 182}, {"note": 59, "velocity": 87, "duration": 164}, {"note": 0, "velocity": 0, "duration": 76}, {"note": 67, "velocity": 86, "duration": 109}, {"note": 0, "velocity": 0, "duration": 131}, {"note": 67, "velocity": 85, "duration": 91}, {"note": 0, "velocity": 0, "duration": 149}, {"note": 67, "velocity": 84, "duration": 112}, {"note": 0, "velocity": 0, "duration": 128}, {"note": 67, "velocity": 80, "duration": 73}, {"note": 69, "velocity": 84, "duration": 257}, {"note": 0, "velocity": 0, "duration": 103}, {"note": 67, "velocity": 84, "duration": 254}, {"note": 0, "velocity": 0, "duration": 226}, {"note": 59, "velocity": 85, "duration": 120}, {"note": 0, "velocity": 0, "duration": 120}, {"note": 66, "velocity": 82, "duration": 102}, {"note": 0, "velocity": 0, "duration": 138}, {"note": 66, "velocity": 83, "duration": 84}, {"note": 0, "velocity": 0, "duration": 156}, {"note": 66, "velocity": 85, "duration": 107}, {"note": 0, "velocity": 0, "duration": 133}, {"note": 66, "velocity": 84, "duration": 59}, {"note": 0, "velocity": 0, "duration": 61}, {"note": 67, "velocity": 83, "duration": 268}, {"note": 0, "velocity": 0, "duration": 92}, {"note": 66, "velocity": 85, "duration": 209}, {"note": 64, "velocity": 84, "duration": 166}, {"note": 0, "velocity": 0, "duration": 74}, {"note": 62, "velocity": 84, "duration": 137}, {"note": 0, "velocity": 0, "duration": 103}, {"note": 64, "velocity": 87, "duration": 796}, {"note": 0, "velocity": 0, "duration": 644}, {"note": 62, "velocity": 87, "duration": 149}, {"note": 0, "velocity": 0, "duration": 91}, {"note": 62, "velocity": 85, "duration": 156}, {"note": 0, "velocity": 0, "duration": 84}, {"note": 64, "velocity": 89, "duration": 1200}, {"note": 0, "velocity": 0, "duration": 240}, {"note": 59, "velocity": 87, "duration": 134}, {"note": 0, "velocity": 0, "duration": 106}, {"note": 62, "velocity": 83, "duration": 178}, {"note": 0, "velocity": 0, "duration": 62}, {"note": 64, "velocity": 87, "duration": 341}, {"note": 0, "velocity": 0, "duration": 139}, {"note": 64, "velocity": 84, "duration": 164}, {"note": 0, "velocity": 0, "duration": 76}, {"note": 62, "velocity": 84, "duration": 134}, {"note": 0, "velocity": 0, "duration": 106}, {"note": 64, "velocity": 86, "duration": 170}, {"note": 0, "velocity": 0, "duration": 70}, {"note": 66, "velocity": 84, "duration": 133}, {"note": 0, "velocity": 0, "duration": 107}, {"note": 64, "velocity": 92, "duration": 155}, {"note": 0, "velocity": 0, "duration": 85}, {"note": 62, "velocity": 85, "duration": 123}, {"note": 0, "velocity": 0, "duration": 117}, {"note": 59, "velocity": 85, "duration": 294}, {"note": 0, "velocity": 0, "duration": 186}, {"note": 59, "velocity": 81, "duration": 159}, {"note": 0, "velocity": 0, "duration": 81}, {"note": 62, "velocity": 84, "duration": 175}, {"note": 0, "velocity": 0, "duration": 65}, {"note": 62, "velocity": 87, "duration": 254}, {"note": 0, "velocity": 0, "duration": 226}, {"note": 59, "velocity": 88, "duration": 137}, {"note": 0, "velocity": 0, "duration": 103}, {"note": 62, "velocity": 84, "duration": 156}, {"note": 0, "velocity": 0, "duration": 84}, {"note": 64, "velocity": 84, "duration": 355}, {"note": 0, "velocity": 0, "duration": 125}, {"note": 64, "velocity": 87, "duration": 183}, {"note": 62, "velocity": 84, "duration": 177}, {"note": 0, "velocity": 0, "duration": 63}, {"note": 64, "velocity": 87, "duration": 166}, {"note": 0, "velocity": 0, "duration": 74}, {"note": 66, "velocity": 83, "duration": 176}, {"note": 0, "velocity": 0, "duration": 64}, {"note": 64, "velocity": 87, "duration": 129}, {"note": 0, "velocity": 0, "duration": 111}, {"note": 62, "velocity": 85, "duration": 171}, {"note": 0, "velocity": 0, "duration": 69}, {"note": 59, "velocity": 85, "duration": 257}, {"note": 0, "velocity": 0, "duration": 223}, {"note": 64, "velocity": 87, "duration": 171}, {"note": 0, "velocity": 0, "duration": 69}, {"note": 62, "velocity": 85, "duration": 198}, {"note": 59, "velocity": 84, "duration": 373}, {"note": 0, "velocity": 0, "duration": 107}, {"note": 59, "velocity": 85, "duration": 184}, {"note": 62, "velocity": 84, "duration": 157}, {"note": 0, "velocity": 0, "duration": 83}, {"note": 64, "velocity": 84, "duration": 304}, {"note": 0, "velocity": 0, "duration": 176}, {"note": 64, "velocity": 87, "duration": 168}, {"note": 0, "velocity": 0, "duration": 72}, {"note": 62, "velocity": 84, "duration": 185}, {"note": 64, "velocity": 84, "duration": 170}, {"note": 0, "velocity": 0, "duration": 70}, {"note": 66, "velocity": 83, "duration": 167}, {"note": 0, "velocity": 0, "duration": 73}, {"note": 64, "velocity": 87, "duration": 182}, {"note": 62, "velocity": 84, "duration": 164}, {"note": 0, "velocity": 0, "duration": 76}, {"note": 59, "velocity": 84, "duration": 294}, {"note": 0, "velocity": 0, "duration": 186}, {"note": 64, "velocity": 84, "duration": 200}, {"note": 62, "velocity": 86, "duration": 77}, {"note": 59, "velocity": 85, "duration": 77}, {"note": 62, "velocity": 83, "duration": 316}, {"note": 0, "velocity": 0, "duration": 164}, {"note": 59, "velocity": 85, "duration": 156}, {"note": 0, "velocity": 0, "duration": 84}, {"note": 62, "velocity": 85, "duration": 152}, {"note": 0, "velocity": 0, "duration": 88}, {"note": 64, "velocity": 85, "duration": 297}, {"note": 0, "velocity": 0, "duration": 183}, {"note": 64, "velocity": 89, "duration": 175}, {"note": 0, "velocity": 0, "duration": 65}, {"note": 62, "velocity": 84, "duration": 173}, {"note": 0, "velocity": 0, "duration": 67}, {"note": 64, "velocity": 86, "duration": 150}, {"note": 0, "velocity": 0, "duration": 90}, {"note": 64, "velocity": 82, "duration": 170}, {"note": 0, "velocity": 0, "duration": 70}, {"note": 69, "velocity": 84, "duration": 151}, {"note": 0, "velocity": 0, "duration": 89}, {"note": 69, "velocity": 84, "duration": 186}, {"note": 62, "velocity": 85, "duration": 361}, {"note": 0, "velocity": 0, "duration": 119}, {"note": 66, "velocity": 86, "duration": 197}, {"note": 64, "velocity": 87, "duration": 127}, {"note": 0, "velocity": 0, "duration": 113}, {"note": 64, "velocity": 89, "duration": 348}, {"note": 0, "velocity": 0, "duration": 132}, {"note": 59, "velocity": 87, "duration": 134}, {"note": 0, "velocity": 0, "duration": 106}, {"note": 62, "velocity": 83, "duration": 178}, {"note": 0, "velocity": 0, "duration": 62}, {"note": 64, "velocity": 87, "duration": 341}, {"note": 0, "velocity": 0, "duration": 139}, {"note": 64, "velocity": 84, "duration": 164}, {"note": 0, "velocity": 0, "duration": 76}, {"note": 62, "velocity": 84, "duration": 134}, {"note": 0, "velocity": 0, "duration": 106}, {"note": 64, "velocity": 86, "duration": 170}, {"note": 0, "velocity": 0, "duration": 70}, {"note": 66, "velocity": 84, "duration": 133}, {"note": 0, "velocity": 0, "duration": 107}, {"note": 64, "velocity": 92, "duration": 155}, {"note": 0, "velocity": 0, "duration": 85}, {"note": 62, "velocity": 85, "duration": 123}, {"note": 0, "velocity": 0, "duration": 117}, {"note": 59, "velocity": 85, "duration": 294}, {"note": 0, "velocity": 0, "duration": 186}, {"note": 59, "velocity": 81, "duration": 159}, {"note": 0, "velocity": 0, "duration": 81}, {"note": 62, "velocity": 84, "duration": 175}, {"note": 0, "velocity": 0, "duration": 65}, {"note": 62, "velocity": 87, "duration": 254}, {"note": 0, "velocity": 0, "duration": 226}, {"note": 59, "velocity": 88, "duration": 137}, {"note": 0, "velocity": 0, "duration": 103}, {"note": 62, "velocity": 84, "duration": 156}, {"note": 0, "velocity": 0, "duration": 84}, {"note": 64, "velocity": 84, "duration": 355}, {"note": 0, "velocity": 0, "duration": 125}, {"note": 64, "velocity": 87, "duration": 183}, {"note": 62, "velocity": 84, "duration": 177}, {"note": 0, "velocity": 0, "duration": 63}, {"note": 64, "velocity": 87, "duration": 166}, {"note": 0, "velocity": 0, "duration": 74}, {"note": 66, "velocity": 83, "duration": 176}, {"note": 0, "velocity": 0, "duration": 64}, {"note": 64, "velocity": 87, "duration": 129}, {"note": 0, "velocity": 0, "duration": 111}, {"note": 62, "velocity": 85, "duration": 171}, {"note": 0, "velocity": 0, "duration": 69}, {"note": 59, "velocity": 85, "duration": 257}, {"note": 0, "velocity": 0, "duration": 223}, {"note": 64, "velocity": 87, "duration": 171}, {"note": 0, "velocity": 0, "duration": 69}, {"note": 62, "velocity": 85, "duration": 198}, {"note": 59, "velocity": 84, "duration": 373}, {"note": 0, "velocity": 0, "duration": 107}, {"note": 59, "velocity": 85, "duration": 184}, {"note": 62, "velocity": 84, "duration": 157}, {"note": 0, "velocity": 0, "duration": 83}, {"note": 64, "velocity": 84, "duration": 304}, {"note": 0, "velocity": 0, "duration": 176}, {"note": 64, "velocity": 87, "duration": 168}, {"note": 0, "velocity": 0, "duration": 72}, {"note": 62, "velocity": 84, "duration": 185}, {"note": 64, "velocity": 84, "duration": 170}, {"note": 0, "velocity": 0, "duration": 70}, {"note": 66, "velocity": 83, "duration": 167}, {"note": 0, "velocity": 0, "duration": 73}, {"note": 64, "velocity": 87, "duration": 182}, {"note": 62, "velocity": 84, "duration": 164}, {"note": 0, "velocity": 0, "duration": 76}, {"note": 59, "velocity": 84, "duration": 294}, {"note": 0, "velocity": 0, "duration": 186}, {"note": 64, "velocity": 84, "duration": 200}, {"note": 62, "velocity": 86, "duration": 77}, {"note": 59, "velocity": 85, "duration": 77}, {"note": 62, "velocity": 83, "duration": 316}, {"note": 0, "velocity": 0, "duration": 164}, {"note": 59, "velocity": 85, "duration": 156}, {"note": 0, "velocity": 0, "duration": 84}, {"note": 62, "velocity": 85, "duration": 152}, {"note": 0, "velocity": 0, "duration": 88}, {"note": 64, "velocity": 85, "duration": 297}, {"note": 0, "velocity": 0, "duration": 183}, {"note": 64, "velocity": 89, "duration": 175}, {"note": 0, "velocity": 0, "duration": 65}, {"note": 62, "velocity": 84, "duration": 173}, {"note": 0, "velocity": 0, "duration": 67}, {"note": 64, "velocity": 86, "duration": 150}, {"note": 0, "velocity": 0, "duration": 90}, {"note": 64, "velocity": 82, "duration": 170}, {"note": 0, "velocity": 0, "duration": 70}, {"note": 69, "velocity": 84, "duration": 151}, {"note": 0, "velocity": 0, "duration": 89}, {"note": 69, "velocity": 84, "duration": 186}, {"note": 62, "velocity": 85, "duration": 361}, {"note": 0, "velocity": 0, "duration": 119}, {"note": 66, "velocity": 86, "duration": 197}, {"note": 64, "velocity": 87, "duration": 127}, {"note": 0, "velocity": 0, "duration": 113}, {"note": 64, "velocity": 89, "duration": 348}, {"note": 0, "velocity": 0, "duration": 372}, {"note": 59, "velocity": 90, "duration": 186}, {"note": 67, "velocity": 90, "duration": 130}, {"note": 0, "velocity": 0, "duration": 110}, {"note": 67, "velocity": 84, "duration": 65}, {"note": 67, "velocity": 83, "duration": 209}, {"note": 0, "velocity": 0, "duration": 151}, {"note": 67, "velocity": 86, "duration": 127}, {"note": 0, "velocity": 0, "duration": 113}, {"note": 67, "velocity": 86, "duration": 142}, {"note": 0, "velocity": 0, "duration": 98}, {"note": 67, "velocity": 85, "duration": 68}, {"note": 69, "velocity": 85, "duration": 310}, {"note": 67, "velocity": 84, "duration": 145}, {"note": 0, "velocity": 0, "duration": 95}, {"note": 66, "velocity": 85, "duration": 61}, {"note": 66, "velocity": 78, "duration": 61}, {"note": 66, "velocity": 79, "duration": 57}, {"note": 0, "velocity": 0, "duration": 63}, {"note": 66, "velocity": 81, "duration": 55}, {"note": 0, "velocity": 0, "duration": 65}, {"note": 66, "velocity": 85, "duration": 160}, {"note": 0, "velocity": 0, "duration": 80}, {"note": 67, "velocity": 83, "duration": 50}, {"note": 0, "velocity": 0, "duration": 70}, {"note": 66, "velocity": 86, "duration": 308}, {"note": 0, "velocity": 0, "duration": 292}, {"note": 64, "velocity": 87, "duration": 184}, {"note": 62, "velocity": 84, "duration": 120}, {"note": 0, "velocity": 0, "duration": 120}, {"note": 64, "velocity": 87, "duration": 84}, {"note": 0, "velocity": 0, "duration": 156}, {"note": 64, "velocity": 87, "duration": 98}, {"note": 0, "velocity": 0, "duration": 142}, {"note": 64, "velocity": 87, "duration": 139}, {"note": 0, "velocity": 0, "duration": 101}, {"note": 64, "velocity": 83, "duration": 61}, {"note": 64, "velocity": 87, "duration": 247}, {"note": 0, "velocity": 0, "duration": 113}, {"note": 64, "velocity": 89, "duration": 145}, {"note": 0, "velocity": 0, "duration": 95}, {"note": 66, "velocity": 83, "duration": 159}, {"note": 0, "velocity": 0, "duration": 81}, {"note": 64, "velocity": 89, "duration": 127}, {"note": 0, "velocity": 0, "duration": 113}, {"note": 63, "velocity": 83, "duration": 58}, {"note": 0, "velocity": 0, "duration": 62}, {"note": 63, "velocity": 80, "duration": 64}, {"note": 63, "velocity": 82, "duration": 65}, {"note": 63, "velocity": 81, "duration": 61}, {"note": 63, "velocity": 84, "duration": 123}, {"note": 0, "velocity": 0, "duration": 117}, {"note": 59, "velocity": 84, "duration": 68}, {"note": 57, "velocity": 83, "duration": 196}, {"note": 59, "velocity": 85, "duration": 418}, {"note": 0, "velocity": 0, "duration": 182}, {"note": 59, "velocity": 87, "duration": 164}, {"note": 0, "velocity": 0, "duration": 76}, {"note": 67, "velocity": 86, "duration": 109}, {"note": 0, "velocity": 0, "duration": 131}, {"note": 67, "velocity": 85, "duration": 91}, {"note": 0, "velocity": 0, "duration": 149}, {"note": 67, "velocity": 84, "duration": 112}, {"note": 0, "velocity": 0, "duration": 128}, {"note": 67, "velocity": 80, "duration": 73}, {"note": 69, "velocity": 84, "duration": 257}, {"note": 0, "velocity": 0, "duration": 103}, {"note": 67, "velocity": 84, "duration": 254}, {"note": 0, "velocity": 0, "duration": 226}, {"note": 59, "velocity": 85, "duration": 120}, {"note": 0, "velocity": 0, "duration": 120}, {"note": 66, "velocity": 82, "duration": 102}, {"note": 0, "velocity": 0, "duration": 138}, {"note": 66, "velocity": 83, "duration": 84}, {"note": 0, "velocity": 0, "duration": 156}, {"note": 66, "velocity": 85, "duration": 107}, {"note": 0, "velocity": 0, "duration": 133}, {"note": 66, "velocity": 84, "duration": 59}, {"note": 0, "velocity": 0, "duration": 61}, {"note": 67, "velocity": 83, "duration": 268}, {"note": 0, "velocity": 0, "duration": 92}, {"note": 66, "velocity": 85, "duration": 209}, {"note": 64, "velocity": 84, "duration": 166}, {"note": 0, "velocity": 0, "duration": 74}, {"note": 62, "velocity": 84, "duration": 137}, {"note": 0, "velocity": 0, "duration": 103}, {"note": 64, "velocity": 87, "duration": 796}, {"note": 0, "velocity": 0, "duration": 644}, {"note": 62, "velocity": 87, "duration": 149}, {"note": 0, "velocity": 0, "duration": 91}, {"note": 62, "velocity": 85, "duration": 156}, {"note": 0, "velocity": 0, "duration": 84}, {"note": 64, "velocity": 89, "duration": 1200}]]