[[{"note": 67, "velocity": 90, "duration": 162}, {"note": 0, "velocity": 0, "duration": 78}, {"note": 69, "velocity": 95, "duration": 194}, {"note": 72, "velocity": 91, "duration": 682}, {"note": 79, "velocity": 91, "duration": 278}, {"note": 76, "velocity": 93, "duration": 722}, {"note": 74, "velocity": 91, "duration": 265}, {"note": 76, "velocity": 89, "duration": 1154}, {"note": 0, "velocity": 0, "duration": 286}, {"note": 67, "velocity": 90, "duration": 175}, {"note": 0, "velocity": 0, "duration": 65}, {"note": 69, "velocity": 91, "duration": 224}, {"note": 72, "velocity": 89, "duration": 712}, {"note": 79, "velocity": 90, "duration": 254}, {"note": 74, "velocity": 91, "duration": 724}, {"note": 72, "velocity": 91, "duration": 256}, {"note": 74, "velocity": 90, "duration": 1413}, {"note": 76, "velocity": 92, "duration": 273}, {"note": 79, "velocity": 91, "duration": 233}, {"note": 81, "velocity": 89, "duration": 1266}, {"note": 0, "velocity": 0, "duration": 174}, {"note": 76, "velocity": 92, "duration": 172}, {"note": 0, "velocity": 0, "duration": 68}, {"note": 79, "velocity": 91, "duration": 207}, {"note": 72, "velocity": 90, "duration": 442}, {"note": 0, "velocity": 0, "duration": 278}, {"note": 76, "velocity": 90, "duration": 152}, {"note": 0, "velocity": 0, "duration": 88}, {"note": 74, "velocity": 96, "duration": 157}, {"note": 0, "velocity": 0, "duration": 83}, {"note": 71, "velocity": 91, "duration": 233}, {"note": 69, "velocity": 85, "duration": 477}, {"note": 0, "velocity": 0, "duration": 243}, {"note": 74, "velocity": 93, "duration": 368}, {"note": 0, "velocity": 0, "duration": 112}, {"note": 76, "velocity": 91, "duration": 188}, {"note": 74, "velocity": 93, "duration": 161}, {"note": 0, "velocity": 0, "duration": 79}, {"note": 74, "velocity": 95, "duration": 164}, {"note": 0, "velocity": 0, "duration": 76}, {"note": 71, "velocity": 90, "duration": 210}, {"note": 69, "velocity": 87, "duration": 191}, {"note": 67, "velocity": 89, "duration": 1191}, {"note": 0, "velocity": 0, "duration": 249}, {"note": 79, "velocity": 96, "duration": 191}, {"note": 81, "velocity": 89, "duration": 233}, {"note": 84, "velocity": 93, "duration": 644}, {"note": 0, "velocity": 0, "duration": 76}, {"note": 81, "velocity": 90, "duration": 251}, {"note": 84, "velocity": 95, "duration": 1330}, {"note": 0, "velocity": 0, "duration": 110}, {"note": 76, "velocity": 94, "duration": 194}, {"note": 84, "velocity": 96, "duration": 205}, {"note": 83, "velocity": 95, "duration": 723}, {"note": 81, "velocity": 88, "duration": 242}, {"note": 83, "velocity": 91, "duration": 1185}, {"note": 0, "velocity": 0, "duration": 255}, {"note": 81, "velocity": 92, "duration": 181}, {"note": 76, "velocity": 90, "duration": 169}, {"note": 0, "velocity": 0, "duration": 71}, {"note": 74, "velocity": 96, "duration": 609}, {"note": 0, "velocity": 0, "duration": 111}, {"note": 76, "velocity": 93, "duration": 214}, {"note": 83, "velocity": 92, "duration": 683}, {"note": 81, "velocity": 91, "duration": 223}, {"note": 79, "velocity": 90, "duration": 960}, {"note": 0, "velocity": 0, "duration": 480}, {"note": 79, "velocity": 93, "duration": 191}, {"note": 81, "velocity": 92, "duration": 226}, {"note": 84, "velocity": 94, "duration": 681}, {"note": 81, "velocity": 91, "duration": 250}, {"note": 84, "velocity": 94, "duration": 1122}, {"note": 0, "velocity": 0, "duration": 318}, {"note": 76, "velocity": 94, "duration": 218}, {"note": 84, "velocity": 92, "duration": 216}, {"note": 83, "velocity": 92, "duration": 684}, {"note": 81, "velocity": 88, "duration": 183}, {"note": 83, "velocity": 91, "duration": 1160}, {"note": 0, "velocity": 0, "duration": 280}, {"note": 81, "velocity": 89, "duration": 179}, {"note": 0, "velocity": 0, "duration": 61}, {"note": 76, "velocity": 93, "duration": 177}, {"note": 0, "velocity": 0, "duration": 63}, {"note": 74, "velocity": 96, "duration": 611}, {"note": 0, "velocity": 0, "duration": 109}, {"note": 76, "velocity": 94, "duration": 181}, {"note": 79, "velocity": 89, "duration": 919}, {"note": 0, "velocity": 0, "duration": 281}, {"note": 74, "velocity": 89, "duration": 170}, {"note": 0, "velocity": 0, "duration": 70}, {"note": 74, "velocity": 93, "duration": 243}, {"note": 69, "velocity": 88, "duration": 244}, {"note": 72, "velocity": 86, "duration": 1549}, {"note": 0, "velocity": 0, "duration": 23891}, {"note": 67, "velocity": 90, "duration": 162}, {"note": 0, "velocity": 0, "duration": 78}, {"note": 69, "velocity": 95, "duration": 194}, {"note": 72, "velocity": 91, "duration": 682}, {"note": 79, "velocity": 91, "duration": 278}, {"note": 76, "velocity": 93, "duration": 722}, {"note": 74, "velocity": 91, "duration": 265}, {"note": 76, "velocity": 89, "duration": 1154}, {"note": 0, "velocity": 0, "duration": 286}, {"note": 67, "velocity": 90, "duration": 175}, {"note": 0, "velocity": 0, "duration": 65}, {"note": 69, "velocity": 91, "duration": 224}, {"note": 72, "velocity": 89, "duration": 712}, {"note": 79, "velocity": 90, "duration": 254}, {"note": 74, "velocity": 91, "duration": 724}, {"note": 72, "velocity": 91, "duration": 256}, {"note": 74, "velocity": 90, "duration": 1413}, {"note": 76, "velocity": 92, "duration": 273}, {"note": 79, "velocity": 91, "duration": 233}, {"note": 81, "velocity": 89, "duration": 1266}, {"note": 0, "velocity": 0, "duration": 174}, {"note": 76, "velocity": 92, "duration": 172}, {"note": 0, "velocity": 0, "duration": 68}, {"note": 79, "velocity": 91, "duration": 207}, {"note": 72, "velocity": 90, "duration": 442}, {"note": 0, "velocity": 0, "duration": 278}, {"note": 76, "velocity": 90, "duration": 152}, {"note": 0, "velocity": 0, "duration": 88}, {"note": 74, "velocity": 96, "duration": 157}, {"note": 0, "velocity": 0, "duration": 83}, {"note": 71, "velocity": 91, "duration": 233}, {"note": 69, "velocity": 85, "duration": 477}, {"note": 0, "velocity": 0, "duration": 243}, {"note": 74, "velocity": 93, "duration": 368}, {"note": 0, "velocity": 0, "duration": 112}, {"note": 76, "velocity": 91, "duration": 188}, {"note": 74, "velocity": 93, "duration": 161}, {"note": 0, "velocity": 0, "duration": 79}, {"note": 74, "velocity": 95, "duration": 164}, {"note": 0, "velocity": 0, "duration": 76}, {"note": 71, "velocity": 90, "duration": 210}, {"note": 69, "velocity": 87, "duration": 191}, {"note": 67, "velocity": 89, "duration": 1191}, {"note": 0, "velocity": 0, "duration": 249}, {"note": 79, "velocity": 96, "duration": 191}, {"note": 81, "velocity": 89, "duration": 233}, {"note": 84, "velocity": 93, "duration": 644}, {"note": 0, "velocity": 0, "duration": 76}, {"note": 81, "velocity": 90, "duration": 251}, {"note": 84, "velocity": 95, "duration": 1330}, {"note": 0, "velocity": 0, "duration": 110}, {"note": 76, "velocity": 94, "duration": 194}, {"note": 84, "velocity": 96, "duration": 205}, {"note": 83, "velocity": 95, "duration": 723}, {"note": 81, "velocity": 88, "duration": 242}, {"note": 83, "velocity": 91, "duration": 1185}, {"note": 0, "velocity": 0, "duration": 255}, {"note": 81, "velocity": 92, "duration": 181}, {"note": 76, "velocity": 90, "duration": 169}, {"note": 0, "velocity": 0, "duration": 71}, {"note": 74, "velocity": 96, "duration": 609}, {"note": 0, "velocity": 0, "duration": 111}, {"note": 76, "velocity": 93, "duration": 214}, {"note": 83, "velocity": 92, "duration": 683}, {"note": 81, "velocity": 91, "duration": 223}, {"note": 79, "velocity": 90, "duration": 960}, {"note": 0, "velocity": 0, "duration": 480}, {"note": 79, "velocity": 93, "duration": 191}, {"note": 81, "velocity": 92, "duration": 226}, {"note": 84, "velocity": 94, "duration": 681}, {"note": 81, "velocity": 91, "duration": 250}, {"note": 84, "velocity": 94, "duration": 1122}, {"note": 0, "velocity": 0, "duration": 318}, {"note": 76, "velocity": 94, "duration": 218}, {"note": 84, "velocity": 92, "duration": 216}, {"note": 83, "velocity": 92, "duration": 684}, {"note": 81, "velocity": 88, "duration": 183}, {"note": 83, "velocity": 91, "duration": 1160}, {"note": 0, "velocity": 0, "duration": 280}, {"note": 81, "velocity": 89, "duration": 179}, {"note": 0, "velocity": 0, "duration": 61}, {"note": 76, "velocity": 93, "duration": 177}, {"note": 0, "velocity": 0, "duration": 63}, {"note": 74, "velocity": 96, "duration": 611}, {"note": 0, "velocity": 0, "duration": 109}, {"note": 76, "velocity": 94, "duration": 181}, {"note": 79, "velocity": 89, "duration": 919}, {"note": 0, "velocity": 0, "duration": 281}, {"note": 74, "velocity": 89, "duration": 170}, {"note": 0, "velocity": 0, "duration": 70}, {"note": 74, "velocity": 93, "duration": 243}, {"note": 69, "velocity": 88, "duration": 244}, {"note": 72, "velocity": 86, "duration": 1360}, {"note": 0, "velocity": 0, "duration": 80}, {"note": 81, "velocity": 91, "duration": 215}, {"note": 76, "velocity": 93, "duration": 215}, {"note": 74, "velocity": 92, "duration": 716}, {"note": 76, "velocity": 92, "duration": 251}, {"note": 79, "velocity": 94, "duration": 1040}, {"note": 0, "velocity": 0, "duration": 146}, {"note": 74, "velocity": 91, "duration": 178}, {"note": 0, "velocity": 0, "duration": 71}, {"note": 74, "velocity": 98, "duration": 253}, {"note": 69, "velocity": 90, "duration": 249}, {"note": 72, "velocity": 92, "duration": 1874}, {"note": 74, "velocity": 90, "duration": 860}, {"note": 0, "velocity": 0, "duration": 90}, {"note": 74, "velocity": 95, "duration": 474}, {"note": 69, "velocity": 90, "duration": 482}, {"note": 72, "velocity": 85, "duration": 1826}]]