[[{"note": 65, "velocity": 90, "duration": 609}, {"note": 0, "velocity": 0, "duration": 111}, {"note": 64, "velocity": 86, "duration": 180}, {"note": 60, "velocity": 90, "duration": 381}, {"note": 0, "velocity": 0, "duration": 99}, {"note": 60, "velocity": 90, "duration": 217}, {"note": 57, "velocity": 85, "duration": 180}, {"note": 60, "velocity": 87, "duration": 305}, {"note": 62, "velocity": 83, "duration": 1397}, {"note": 0, "velocity": 0, "duration": 163}, {"note": 77, "velocity": 88, "duration": 707}, {"note": 76, "velocity": 88, "duration": 210}, {"note": 72, "velocity": 87, "duration": 416}, {"note": 0, "velocity": 0, "duration": 64}, {"note": 72, "velocity": 87, "duration": 196}, {"note": 69, "velocity": 88, "duration": 169}, {"note": 0, "velocity": 0, "duration": 71}, {"note": 79, "velocity": 86, "duration": 302}, {"note": 81, "velocity": 83, "duration": 1018}, {"note": 0, "velocity": 0, "duration": 62}, {"note": 81, "velocity": 88, "duration": 226}, {"note": 84, "velocity": 97, "duration": 181}, {"note": 79, "velocity": 88, "duration": 552}, {"note": 0, "velocity": 0, "duration": 168}, {"note": 81, "velocity": 82, "duration": 156}, {"note": 0, "velocity": 0, "duration": 84}, {"note": 79, "velocity": 87, "duration": 376}, {"note": 0, "velocity": 0, "duration": 104}, {"note": 77, "velocity": 83, "duration": 169}, {"note": 0, "velocity": 0, "duration": 71}, {"note": 76, "velocity": 87, "duration": 158}, {"note": 0, "velocity": 0, "duration": 82}, {"note": 77, "velocity": 88, "duration": 204}, {"note": 76, "velocity": 92, "duration": 240}, {"note": 77, "velocity": 85, "duration": 241}, {"note": 79, "velocity": 81, "duration": 79}, {"note": 81, "velocity": 87, "duration": 438}, {"note": 0, "velocity": 0, "duration": 162}, {"note": 79, "velocity": 87, "duration": 219}, {"note": 81, "velocity": 85, "duration": 72}, {"note": 74, "velocity": 92, "duration": 492}, {"note": 0, "velocity": 0, "duration": 108}, {"note": 79, "velocity": 88, "duration": 211}, {"note": 81, "velocity": 83, "duration": 61}, {"note": 74, "velocity": 97, "duration": 488}, {"note": 0, "velocity": 0, "duration": 112}, {"note": 72, "velocity": 83, "duration": 408}, {"note": 0, "velocity": 0, "duration": 72}, {"note": 74, "velocity": 97, "duration": 1331}, {"note": 0, "velocity": 0, "duration": 589}, {"note": 65, "velocity": 90, "duration": 609}, {"note": 0, "velocity": 0, "duration": 111}, {"note": 64, "velocity": 86, "duration": 180}, {"note": 60, "velocity": 90, "duration": 381}, {"note": 0, "velocity": 0, "duration": 99}, {"note": 60, "velocity": 90, "duration": 217}, {"note": 57, "velocity": 85, "duration": 180}, {"note": 60, "velocity": 87, "duration": 305}, {"note": 62, "velocity": 83, "duration": 1397}, {"note": 0, "velocity": 0, "duration": 163}, {"note": 77, "velocity": 88, "duration": 707}, {"note": 76, "velocity": 88, "duration": 210}, {"note": 72, "velocity": 87, "duration": 416}, {"note": 0, "velocity": 0, "duration": 64}, {"note": 72, "velocity": 87, "duration": 196}, {"note": 69, "velocity": 88, "duration": 169}, {"note": 0, "velocity": 0, "duration": 71}, {"note": 79, "velocity": 86, "duration": 302}, {"note": 81, "velocity": 83, "duration": 1018}, {"note": 0, "velocity": 0, "duration": 62}, {"note": 81, "velocity": 88, "duration": 226}, {"note": 84, "velocity": 97, "duration": 181}, {"note": 79, "velocity": 88, "duration": 552}, {"note": 0, "velocity": 0, "duration": 168}, {"note": 81, "velocity": 82, "duration": 156}, {"note": 0, "velocity": 0, "duration": 84}, {"note": 79, "velocity": 87, "duration": 376}, {"note": 0, "velocity": 0, "duration": 104}, {"note": 77, "velocity": 83, "duration": 169}, {"note": 0, "velocity": 0, "duration": 71}, {"note": 76, "velocity": 87, "duration": 158}, {"note": 0, "velocity": 0, "duration": 82}, {"note": 77, "velocity": 88, "duration": 204}, {"note": 76, "velocity": 92, "duration": 240}, {"note": 77, "velocity": 85, "duration": 241}, {"note": 79, "velocity": 81, "duration": 79}, {"note": 81, "velocity": 87, "duration": 438}, {"note": 0, "velocity": 0, "duration": 162}, {"note": 79, "velocity": 87, "duration": 219}, {"note": 81, "velocity": 85, "duration": 72}, {"note": 74, "velocity": 92, "duration": 492}, {"note": 0, "velocity": 0, "duration": 108}, {"note": 79, "velocity": 88, "duration": 211}, {"note": 81, "velocity": 83, "duration": 61}, {"note": 74, "velocity": 97, "duration": 488}, {"note": 0, "velocity": 0, "duration": 112}, {"note": 72, "velocity": 83, "duration": 408}, {"note": 0, "velocity": 0, "duration": 72}, {"note": 74, "velocity": 97, "duration": 1331}, {"note": 0, "velocity": 0, "duration": 109}, {"note": 74, "velocity": 97, "duration": 180}, {"note": 77, "velocity": 85, "duration": 198}, {"note": 79, "velocity": 88, "duration": 316}, {"note": 81, "velocity": 87, "duration": 260}, {"note": 0, "velocity": 0, "duration": 100}, {"note": 74, "velocity": 88, "duration": 221}, {"note": 79, "velocity": 84, "duration": 291}, {"note": 0, "velocity": 0, "duration": 189}, {"note": 74, "velocity": 95, "duration": 178}, {"note": 0, "velocity": 0, "duration": 62}, {"note": 77, "velocity": 85, "duration": 173}, {"note": 0, "velocity": 0, "duration": 67}, {"note": 76, "velocity": 90, "duration": 240}, {"note": 0, "velocity": 0, "duration": 120}, {"note": 72, "velocity": 82, "duration": 355}, {"note": 69, "velocity": 83, "duration": 196}, {"note": 72, "velocity": 86, "duration": 410}, {"note": 0, "velocity": 0, "duration": 70}, {"note": 74, "velocity": 83, "duration": 161}, {"note": 0, "velocity": 0, "duration": 79}, {"note": 77, "velocity": 81, "duration": 162}, {"note": 0, "velocity": 0, "duration": 78}, {"note": 79, "velocity": 82, "duration": 324}, {"note": 81, "velocity": 81, "duration": 266}, {"note": 0, "velocity": 0, "duration": 94}, {"note": 74, "velocity": 88, "duration": 204}, {"note": 79, "velocity": 82, "duration": 311}, {"note": 81, "velocity": 84, "duration": 280}, {"note": 0, "velocity": 0, "duration": 80}, {"note": 84, "velocity": 85, "duration": 173}, {"note": 0, "velocity": 0, "duration": 67}, {"note": 81, "velocity": 84, "duration": 1200}, {"note": 0, "velocity": 0, "duration": 240}, {"note": 74, "velocity": 97, "duration": 180}, {"note": 77, "velocity": 85, "duration": 198}, {"note": 79, "velocity": 88, "duration": 316}, {"note": 81, "velocity": 87, "duration": 260}, {"note": 0, "velocity": 0, "duration": 100}, {"note": 74, "velocity": 88, "duration": 221}, {"note": 79, "velocity": 84, "duration": 291}, {"note": 0, "velocity": 0, "duration": 189}, {"note": 77, "velocity": 85, "duration": 164}, {"note": 0, "velocity": 0, "duration": 76}, {"note": 76, "velocity": 84, "duration": 165}, {"note": 0, "velocity": 0, "duration": 75}, {"note": 77, "velocity": 85, "duration": 186}, {"note": 76, "velocity": 88, "duration": 163}, {"note": 0, "velocity": 0, "duration": 77}, {"note": 77, "velocity": 83, "duration": 199}, {"note": 79, "velocity": 84, "duration": 61}, {"note": 81, "velocity": 83, "duration": 447}, {"note": 0, "velocity": 0, "duration": 153}, {"note": 79, "velocity": 86, "duration": 230}, {"note": 81, "velocity": 82, "duration": 77}, {"note": 74, "velocity": 92, "duration": 502}, {"note": 0, "velocity": 0, "duration": 98}, {"note": 79, "velocity": 83, "duration": 202}, {"note": 81, "velocity": 82, "duration": 205}, {"note": 74, "velocity": 92, "duration": 436}, {"note": 72, "velocity": 85, "duration": 443}, {"note": 74, "velocity": 85, "duration": 960}, {"note": 0, "velocity": 0, "duration": 240}, {"note": 81, "velocity": 83, "duration": 224}, {"note": 84, "velocity": 88, "duration": 219}, {"note": 81, "velocity": 85, "duration": 237}, {"note": 79, "velocity": 83, "duration": 678}, {"note": 81, "velocity": 83, "duration": 205}, {"note": 79, "velocity": 87, "duration": 458}, {"note": 77, "velocity": 86, "duration": 223}, {"note": 74, "velocity": 87, "duration": 480}, {"note": 81, "velocity": 85, "duration": 828}, {"note": 0, "velocity": 0, "duration": 132}, {"note": 81, "velocity": 86, "duration": 219}, {"note": 84, "velocity": 83, "duration": 193}, {"note": 81, "velocity": 85, "duration": 216}, {"note": 79, "velocity": 81, "duration": 731}, {"note": 81, "velocity": 86, "duration": 210}, {"note": 79, "velocity": 86, "duration": 498}, {"note": 84, "velocity": 87, "duration": 151}, {"note": 0, "velocity": 0, "duration": 89}, {"note": 86, "velocity": 85, "duration": 494}, {"note": 81, "velocity": 83, "duration": 766}, {"note": 0, "velocity": 0, "duration": 194}, {"note": 79, "velocity": 85, "duration": 186}, {"note": 81, "velocity": 83, "duration": 158}, {"note": 0, "velocity": 0, "duration": 82}, {"note": 84, "velocity": 88, "duration": 162}, {"note": 0, "velocity": 0, "duration": 78}, {"note": 86, "velocity": 87, "duration": 165}, {"note": 0, "velocity": 0, "duration": 75}, {"note": 84, "velocity": 87, "duration": 158}, {"note": 0, "velocity": 0, "duration": 82}, {"note": 81, "velocity": 84, "duration": 219}, {"note": 84, "velocity": 88, "duration": 217}, {"note": 79, "velocity": 81, "duration": 361}, {"note": 0, "velocity": 0, "duration": 119}, {"note": 81, "velocity": 81, "duration": 172}, {"note": 0, "velocity": 0, "duration": 68}, {"note": 79, "velocity": 82, "duration": 182}, {"note": 77, "velocity": 82, "duration": 172}, {"note": 0, "velocity": 0, "duration": 68}, {"note": 79, "velocity": 83, "duration": 133}, {"note": 0, "velocity": 0, "duration": 107}, {"note": 81, "velocity": 82, "duration": 136}, {"note": 0, "velocity": 0, "duration": 104}, {"note": 84, "velocity": 86, "duration": 178}, {"note": 0, "velocity": 0, "duration": 62}, {"note": 74, "velocity": 90, "duration": 382}, {"note": 0, "velocity": 0, "duration": 98}, {"note": 74, "velocity": 97, "duration": 164}, {"note": 0, "velocity": 0, "duration": 76}, {"note": 77, "velocity": 83, "duration": 136}, {"note": 0, "velocity": 0, "duration": 104}, {"note": 79, "velocity": 82, "duration": 137}, {"note": 0, "velocity": 0, "duration": 103}, {"note": 81, "velocity": 81, "duration": 105}, {"note": 0, "velocity": 0, "duration": 135}, {"note": 74, "velocity": 92, "duration": 364}, {"note": 0, "velocity": 0, "duration": 116}, {"note": 79, "velocity": 83, "duration": 172}, {"note": 0, "velocity": 0, "duration": 68}, {"note": 81, "velocity": 82, "duration": 132}, {"note": 0, "velocity": 0, "duration": 108}, {"note": 74, "velocity": 88, "duration": 175}, {"note": 0, "velocity": 0, "duration": 65}, {"note": 72, "velocity": 81, "duration": 169}, {"note": 0, "velocity": 0, "duration": 71}, {"note": 74, "velocity": 86, "duration": 1841}, {"note": 0, "velocity": 0, "duration": 15439}, {"note": 65, "velocity": 90, "duration": 609}, {"note": 0, "velocity": 0, "duration": 111}, {"note": 64, "velocity": 86, "duration": 180}, {"note": 60, "velocity": 90, "duration": 381}, {"note": 0, "velocity": 0, "duration": 99}, {"note": 60, "velocity": 90, "duration": 217}, {"note": 57, "velocity": 85, "duration": 180}, {"note": 60, "velocity": 87, "duration": 305}, {"note": 62, "velocity": 83, "duration": 1397}, {"note": 0, "velocity": 0, "duration": 163}, {"note": 77, "velocity": 88, "duration": 707}, {"note": 76, "velocity": 88, "duration": 210}, {"note": 72, "velocity": 87, "duration": 416}, {"note": 0, "velocity": 0, "duration": 64}, {"note": 72, "velocity": 87, "duration": 196}, {"note": 69, "velocity": 88, "duration": 169}, {"note": 0, "velocity": 0, "duration": 71}, {"note": 79, "velocity": 86, "duration": 302}, {"note": 81, "velocity": 83, "duration": 1018}, {"note": 0, "velocity": 0, "duration": 62}, {"note": 81, "velocity": 88, "duration": 226}, {"note": 84, "velocity": 97, "duration": 181}, {"note": 79, "velocity": 88, "duration": 552}, {"note": 0, "velocity": 0, "duration": 168}, {"note": 81, "velocity": 82, "duration": 156}, {"note": 0, "velocity": 0, "duration": 84}, {"note": 79, "velocity": 87, "duration": 376}, {"note": 0, "velocity": 0, "duration": 104}, {"note": 77, "velocity": 83, "duration": 169}, {"note": 0, "velocity": 0, "duration": 71}, {"note": 76, "velocity": 87, "duration": 158}, {"note": 0, "velocity": 0, "duration": 82}, {"note": 77, "velocity": 88, "duration": 204}, {"note": 76, "velocity": 92, "duration": 240}, {"note": 77, "velocity": 85, "duration": 241}, {"note": 79, "velocity": 81, "duration": 79}, {"note": 81, "velocity": 87, "duration": 438}, {"note": 0, "velocity": 0, "duration": 162}, {"note": 79, "velocity": 87, "duration": 219}, {"note": 81, "velocity": 85, "duration": 72}, {"note": 74, "velocity": 92, "duration": 492}, {"note": 0, "velocity": 0, "duration": 108}, {"note": 79, "velocity": 88, "duration": 211}, {"note": 81, "velocity": 83, "duration": 61}, {"note": 74, "velocity": 97, "duration": 488}, {"note": 0, "velocity": 0, "duration": 112}, {"note": 72, "velocity": 83, "duration": 408}, {"note": 0, "velocity": 0, "duration": 72}, {"note": 74, "velocity": 97, "duration": 1331}, {"note": 0, "velocity": 0, "duration": 109}, {"note": 74, "velocity": 97, "duration": 180}, {"note": 77, "velocity": 85, "duration": 198}, {"note": 79, "velocity": 88, "duration": 316}, {"note": 81, "velocity": 87, "duration": 260}, {"note": 0, "velocity": 0, "duration": 100}, {"note": 74, "velocity": 88, "duration": 221}, {"note": 79, "velocity": 84, "duration": 291}, {"note": 0, "velocity": 0, "duration": 189}, {"note": 74, "velocity": 95, "duration": 178}, {"note": 0, "velocity": 0, "duration": 62}, {"note": 77, "velocity": 85, "duration": 173}, {"note": 0, "velocity": 0, "duration": 67}, {"note": 76, "velocity": 90, "duration": 240}, {"note": 0, "velocity": 0, "duration": 120}, {"note": 72, "velocity": 82, "duration": 355}, {"note": 69, "velocity": 83, "duration": 196}, {"note": 72, "velocity": 86, "duration": 410}, {"note": 0, "velocity": 0, "duration": 70}, {"note": 74, "velocity": 83, "duration": 161}, {"note": 0, "velocity": 0, "duration": 79}, {"note": 77, "velocity": 81, "duration": 162}, {"note": 0, "velocity": 0, "duration": 78}, {"note": 79, "velocity": 82, "duration": 324}, {"note": 81, "velocity": 81, "duration": 266}, {"note": 0, "velocity": 0, "duration": 94}, {"note": 74, "velocity": 88, "duration": 204}, {"note": 79, "velocity": 82, "duration": 311}, {"note": 81, "velocity": 84, "duration": 280}, {"note": 0, "velocity": 0, "duration": 80}, {"note": 84, "velocity": 85, "duration": 173}, {"note": 0, "velocity": 0, "duration": 67}, {"note": 81, "velocity": 84, "duration": 1200}, {"note": 0, "velocity": 0, "duration": 240}, {"note": 74, "velocity": 97, "duration": 180}, {"note": 77, "velocity": 85, "duration": 198}, {"note": 79, "velocity": 88, "duration": 316}, {"note": 81, "velocity": 87, "duration": 260}, {"note": 0, "velocity": 0, "duration": 100}, {"note": 74, "velocity": 88, "duration": 221}, {"note": 79, "velocity": 84, "duration": 291}, {"note": 0, "velocity": 0, "duration": 189}, {"note": 77, "velocity": 85, "duration": 164}, {"note": 0, "velocity": 0, "duration": 76}, {"note": 76, "velocity": 84, "duration": 165}, {"note": 0, "velocity": 0, "duration": 75}, {"note": 77, "velocity": 85, "duration": 186}, {"note": 76, "velocity": 88, "duration": 163}, {"note": 0, "velocity": 0, "duration": 77}, {"note": 77, "velocity": 83, "duration": 199}, {"note": 79, "velocity": 84, "duration": 61}, {"note": 81, "velocity": 83, "duration": 447}, {"note": 0, "velocity": 0, "duration": 153}, {"note": 79, "velocity": 86, "duration": 230}, {"note": 81, "velocity": 82, "duration": 77}, {"note": 74, "velocity": 92, "duration": 502}, {"note": 0, "velocity": 0, "duration": 98}, {"note": 79, "velocity": 83, "duration": 202}, {"note": 81, "velocity": 82, "duration": 205}, {"note": 74, "velocity": 92, "duration": 436}, {"note": 72, "velocity": 85, "duration": 443}, {"note": 74, "velocity": 85, "duration": 960}, {"note": 0, "velocity": 0, "duration": 240}, {"note": 81, "velocity": 83, "duration": 224}, {"note": 84, "velocity": 88, "duration": 219}, {"note": 81, "velocity": 85, "duration": 237}, {"note": 79, "velocity": 83, "duration": 678}, {"note": 81, "velocity": 83, "duration": 205}, {"note": 79, "velocity": 87, "duration": 458}, {"note": 77, "velocity": 86, "duration": 223}, {"note": 74, "velocity": 87, "duration": 480}, {"note": 81, "velocity": 85, "duration": 828}, {"note": 0, "velocity": 0, "duration": 132}, {"note": 81, "velocity": 86, "duration": 219}, {"note": 84, "velocity": 83, "duration": 193}, {"note": 81, "velocity": 85, "duration": 216}, {"note": 79, "velocity": 81, "duration": 731}, {"note": 81, "velocity": 86, "duration": 210}, {"note": 79, "velocity": 86, "duration": 498}, {"note": 84, "velocity": 87, "duration": 151}, {"note": 0, "velocity": 0, "duration": 89}, {"note": 86, "velocity": 85, "duration": 494}, {"note": 81, "velocity": 83, "duration": 766}, {"note": 0, "velocity": 0, "duration": 194}, {"note": 79, "velocity": 85, "duration": 186}, {"note": 81, "velocity": 83, "duration": 158}, {"note": 0, "velocity": 0, "duration": 82}, {"note": 84, "velocity": 88, "duration": 162}, {"note": 0, "velocity": 0, "duration": 78}, {"note": 86, "velocity": 87, "duration": 165}, {"note": 0, "velocity": 0, "duration": 75}, {"note": 84, "velocity": 87, "duration": 158}, {"note": 0, "velocity": 0, "duration": 82}, {"note": 81, "velocity": 84, "duration": 219}, {"note": 84, "velocity": 88, "duration": 217}, {"note": 79, "velocity": 81, "duration": 361}, {"note": 0, "velocity": 0, "duration": 119}, {"note": 81, "velocity": 81, "duration": 172}, {"note": 0, "velocity": 0, "duration": 68}, {"note": 79, "velocity": 82, "duration": 182}, {"note": 77, "velocity": 82, "duration": 172}, {"note": 0, "velocity": 0, "duration": 68}, {"note": 79, "velocity": 83, "duration": 133}, {"note": 0, "velocity": 0, "duration": 107}, {"note": 81, "velocity": 82, "duration": 136}, {"note": 0, "velocity": 0, "duration": 104}, {"note": 84, "velocity": 86, "duration": 178}, {"note": 0, "velocity": 0, "duration": 62}, {"note": 74, "velocity": 90, "duration": 382}, {"note": 0, "velocity": 0, "duration": 98}, {"note": 74, "velocity": 97, "duration": 164}, {"note": 0, "velocity": 0, "duration": 76}, {"note": 77, "velocity": 83, "duration": 136}, {"note": 0, "velocity": 0, "duration": 104}, {"note": 79, "velocity": 82, "duration": 137}, {"note": 0, "velocity": 0, "duration": 103}, {"note": 81, "velocity": 81, "duration": 105}, {"note": 0, "velocity": 0, "duration": 135}, {"note": 74, "velocity": 92, "duration": 364}, {"note": 0, "velocity": 0, "duration": 116}, {"note": 79, "velocity": 83, "duration": 172}, {"note": 0, "velocity": 0, "duration": 68}, {"note": 81, "velocity": 82, "duration": 132}, {"note": 0, "velocity": 0, "duration": 108}, {"note": 74, "velocity": 88, "duration": 175}, {"note": 0, "velocity": 0, "duration": 65}, {"note": 72, "velocity": 81, "duration": 169}, {"note": 0, "velocity": 0, "duration": 71}, {"note": 74, "velocity": 86, "duration": 960}, {"note": 0, "velocity": 0, "duration": 240}, {"note": 81, "velocity": 83, "duration": 224}, {"note": 84, "velocity": 88, "duration": 219}, {"note": 81, "velocity": 85, "duration": 237}, {"note": 79, "velocity": 83, "duration": 678}, {"note": 81, "velocity": 83, "duration": 205}, {"note": 79, "velocity": 87, "duration": 458}, {"note": 77, "velocity": 86, "duration": 223}, {"note": 74, "velocity": 87, "duration": 480}, {"note": 81, "velocity": 85, "duration": 828}, {"note": 0, "velocity": 0, "duration": 132}, {"note": 81, "velocity": 86, "duration": 219}, {"note": 84, "velocity": 83, "duration": 193}, {"note": 81, "velocity": 85, "duration": 216}, {"note": 79, "velocity": 81, "duration": 731}, {"note": 81, "velocity": 86, "duration": 210}, {"note": 79, "velocity": 86, "duration": 498}, {"note": 84, "velocity": 87, "duration": 151}, {"note": 0, "velocity": 0, "duration": 89}, {"note": 86, "velocity": 85, "duration": 494}, {"note": 81, "velocity": 83, "duration": 766}, {"note": 0, "velocity": 0, "duration": 194}, {"note": 79, "velocity": 85, "duration": 186}, {"note": 81, "velocity": 83, "duration": 158}, {"note": 0, "velocity": 0, "duration": 82}, {"note": 84, "velocity": 88, "duration": 162}, {"note": 0, "velocity": 0, "duration": 78}, {"note": 86, "velocity": 87, "duration": 165}, {"note": 0, "velocity": 0, "duration": 75}, {"note": 84, "velocity": 87, "duration": 158}, {"note": 0, "velocity": 0, "duration": 82}, {"note": 81, "velocity": 84, "duration": 219}, {"note": 84, "velocity": 88, "duration": 217}, {"note": 79, "velocity": 81, "duration": 361}, {"note": 0, "velocity": 0, "duration": 119}, {"note": 81, "velocity": 81, "duration": 172}, {"note": 0, "velocity": 0, "duration": 68}, {"note": 79, "velocity": 82, "duration": 182}, {"note": 77, "velocity": 82, "duration": 172}, {"note": 0, "velocity": 0, "duration": 68}, {"note": 79, "velocity": 83, "duration": 133}, {"note": 0, "velocity": 0, "duration": 107}, {"note": 81, "velocity": 82, "duration": 136}, {"note": 0, "velocity": 0, "duration": 104}, {"note": 84, "velocity": 86, "duration": 178}, {"note": 0, "velocity": 0, "duration": 62}, {"note": 74, "velocity": 90, "duration": 382}, {"note": 0, "velocity": 0, "duration": 98}, {"note": 74, "velocity": 97, "duration": 164}, {"note": 0, "velocity": 0, "duration": 76}, {"note": 77, "velocity": 83, "duration": 136}, {"note": 0, "velocity": 0, "duration": 104}, {"note": 79, "velocity": 82, "duration": 137}, {"note": 0, "velocity": 0, "duration": 103}, {"note": 81, "velocity": 81, "duration": 105}, {"note": 0, "velocity": 0, "duration": 135}, {"note": 74, "velocity": 92, "duration": 364}, {"note": 0, "velocity": 0, "duration": 116}, {"note": 79, "velocity": 83, "duration": 172}, {"note": 0, "velocity": 0, "duration": 68}, {"note": 81, "velocity": 82, "duration": 132}, {"note": 0, "velocity": 0, "duration": 108}, {"note": 74, "velocity": 88, "duration": 175}, {"note": 0, "velocity": 0, "duration": 65}, {"note": 72, "velocity": 81, "duration": 169}, {"note": 0, "velocity": 0, "duration": 71}, {"note": 74, "velocity": 86, "duration": 1841}]]