[[{"note": 71, "velocity": 90, "duration": 185}, {"note": 69, "velocity": 89, "duration": 174}, {"note": 0, "velocity": 0, "duration": 66}, {"note": 68, "velocity": 89, "duration": 176}, {"note": 0, "velocity": 0, "duration": 64}, {"note": 68, "velocity": 89, "duration": 838}, {"note": 0, "velocity": 0, "duration": 122}, {"note": 68, "velocity": 83, "duration": 180}, {"note": 66, "velocity": 89, "duration": 170}, {"note": 0, "velocity": 0, "duration": 70}, {"note": 68, "velocity": 87, "duration": 196}, {"note": 64, "velocity": 91, "duration": 1243}, {"note": 0, "velocity": 0, "duration": 197}, {"note": 73, "velocity": 89, "duration": 165}, {"note": 0, "velocity": 0, "duration": 75}, {"note": 75, "velocity": 87, "duration": 166}, {"note": 0, "velocity": 0, "duration": 74}, {"note": 76, "velocity": 84, "duration": 149}, {"note": 0, "velocity": 0, "duration": 91}, {"note": 76, "velocity": 89, "duration": 906}, {"note": 75, "velocity": 85, "duration": 162}, {"note": 0, "velocity": 0, "duration": 78}, {"note": 73, "velocity": 91, "duration": 158}, {"note": 0, "velocity": 0, "duration": 82}, {"note": 75, "velocity": 87, "duration": 148}, {"note": 0, "velocity": 0, "duration": 92}, {"note": 71, "velocity": 89, "duration": 1054}, {"note": 0, "velocity": 0, "duration": 386}, {"note": 73, "velocity": 90, "duration": 173}, {"note": 0, "velocity": 0, "duration": 67}, {"note": 75, "velocity": 89, "duration": 134}, {"note": 0, "velocity": 0, "duration": 106}, {"note": 76, "velocity": 86, "duration": 480}, {"note": 76, "velocity": 91, "duration": 661}, {"note": 75, "velocity": 89, "duration": 480}, {"note": 73, "velocity": 90, "duration": 240}, {"note": 71, "velocity": 88, "duration": 436}, {"note": 73, "velocity": 84, "duration": 185}, {"note": 64, "velocity": 92, "duration": 611}, {"note": 0, "velocity": 0, "duration": 109}, {"note": 61, "velocity": 92, "duration": 133}, {"note": 0, "velocity": 0, "duration": 107}, {"note": 64, "velocity": 87, "duration": 164}, {"note": 0, "velocity": 0, "duration": 76}, {"note": 66, "velocity": 87, "duration": 172}, {"note": 0, "velocity": 0, "duration": 68}, {"note": 66, "velocity": 86, "duration": 480}, {"note": 68, "velocity": 89, "duration": 203}, {"note": 66, "velocity": 88, "duration": 419}, {"note": 0, "velocity": 0, "duration": 61}, {"note": 64, "velocity": 92, "duration": 167}, {"note": 0, "velocity": 0, "duration": 73}, {"note": 66, "velocity": 87, "duration": 1459}, {"note": 0, "velocity": 0, "duration": 221}, {"note": 71, "velocity": 79, "duration": 115}, {"note": 0, "velocity": 0, "duration": 125}, {"note": 69, "velocity": 86, "duration": 166}, {"note": 0, "velocity": 0, "duration": 74}, {"note": 68, "velocity": 85, "duration": 147}, {"note": 0, "velocity": 0, "duration": 93}, {"note": 68, "velocity": 87, "duration": 806}, {"note": 0, "velocity": 0, "duration": 154}, {"note": 68, "velocity": 86, "duration": 226}, {"note": 66, "velocity": 85, "duration": 167}, {"note": 0, "velocity": 0, "duration": 73}, {"note": 68, "velocity": 86, "duration": 165}, {"note": 0, "velocity": 0, "duration": 75}, {"note": 66, "velocity": 86, "duration": 202}, {"note": 64, "velocity": 88, "duration": 1043}, {"note": 0, "velocity": 0, "duration": 157}, {"note": 73, "velocity": 87, "duration": 175}, {"note": 0, "velocity": 0, "duration": 65}, {"note": 75, "velocity": 87, "duration": 139}, {"note": 0, "velocity": 0, "duration": 101}, {"note": 76, "velocity": 85, "duration": 143}, {"note": 0, "velocity": 0, "duration": 97}, {"note": 76, "velocity": 91, "duration": 893}, {"note": 0, "velocity": 0, "duration": 67}, {"note": 78, "velocity": 90, "duration": 176}, {"note": 0, "velocity": 0, "duration": 64}, {"note": 75, "velocity": 82, "duration": 151}, {"note": 0, "velocity": 0, "duration": 89}, {"note": 73, "velocity": 87, "duration": 168}, {"note": 0, "velocity": 0, "duration": 72}, {"note": 73, "velocity": 89, "duration": 194}, {"note": 71, "velocity": 87, "duration": 1090}, {"note": 0, "velocity": 0, "duration": 110}, {"note": 73, "velocity": 90, "duration": 153}, {"note": 0, "velocity": 0, "duration": 87}, {"note": 75, "velocity": 89, "duration": 157}, {"note": 0, "velocity": 0, "duration": 83}, {"note": 76, "velocity": 87, "duration": 379}, {"note": 0, "velocity": 0, "duration": 101}, {"note": 76, "velocity": 90, "duration": 153}, {"note": 0, "velocity": 0, "duration": 87}, {"note": 76, "velocity": 89, "duration": 446}, {"note": 0, "velocity": 0, "duration": 274}, {"note": 75, "velocity": 86, "duration": 212}, {"note": 73, "velocity": 76, "duration": 194}, {"note": 71, "velocity": 86, "duration": 240}, {"note": 0, "velocity": 0, "duration": 240}, {"note": 73, "velocity": 87, "duration": 213}, {"note": 64, "velocity": 96, "duration": 594}, {"note": 0, "velocity": 0, "duration": 126}, {"note": 61, "velocity": 91, "duration": 171}, {"note": 0, "velocity": 0, "duration": 69}, {"note": 64, "velocity": 89, "duration": 148}, {"note": 0, "velocity": 0, "duration": 92}, {"note": 68, "velocity": 81, "duration": 153}, {"note": 0, "velocity": 0, "duration": 87}, {"note": 66, "velocity": 80, "duration": 497}, {"note": 0, "velocity": 0, "duration": 223}, {"note": 71, "velocity": 86, "duration": 392}, {"note": 0, "velocity": 0, "duration": 88}, {"note": 66, "velocity": 87, "duration": 166}, {"note": 0, "velocity": 0, "duration": 74}, {"note": 64, "velocity": 89, "duration": 1409}, {"note": 0, "velocity": 0, "duration": 511}, {"note": 64, "velocity": 96, "duration": 170}, {"note": 0, "velocity": 0, "duration": 70}, {"note": 76, "velocity": 89, "duration": 585}, {"note": 0, "velocity": 0, "duration": 135}, {"note": 76, "velocity": 89, "duration": 630}, {"note": 0, "velocity": 0, "duration": 90}, {"note": 78, "velocity": 96, "duration": 148}, {"note": 0, "velocity": 0, "duration": 92}, {"note": 76, "velocity": 87, "duration": 133}, {"note": 0, "velocity": 0, "duration": 107}, {"note": 75, "velocity": 91, "duration": 433}, {"note": 71, "velocity": 90, "duration": 148}, {"note": 0, "velocity": 0, "duration": 92}, {"note": 68, "velocity": 87, "duration": 205}, {"note": 71, "velocity": 86, "duration": 179}, {"note": 0, "velocity": 0, "duration": 61}, {"note": 73, "velocity": 73, "duration": 377}, {"note": 0, "velocity": 0, "duration": 343}, {"note": 69, "velocity": 86, "duration": 180}, {"note": 69, "velocity": 83, "duration": 152}, {"note": 0, "velocity": 0, "duration": 88}, {"note": 69, "velocity": 85, "duration": 146}, {"note": 0, "velocity": 0, "duration": 94}, {"note": 69, "velocity": 85, "duration": 151}, {"note": 0, "velocity": 0, "duration": 89}, {"note": 69, "velocity": 89, "duration": 362}, {"note": 0, "velocity": 0, "duration": 118}, {"note": 71, "velocity": 87, "duration": 147}, {"note": 0, "velocity": 0, "duration": 93}, {"note": 73, "velocity": 87, "duration": 385}, {"note": 0, "velocity": 0, "duration": 95}, {"note": 71, "velocity": 87, "duration": 189}, {"note": 71, "velocity": 87, "duration": 820}, {"note": 0, "velocity": 0, "duration": 140}, {"note": 64, "velocity": 89, "duration": 165}, {"note": 0, "velocity": 0, "duration": 75}, {"note": 64, "velocity": 88, "duration": 169}, {"note": 0, "velocity": 0, "duration": 71}, {"note": 76, "velocity": 90, "duration": 144}, {"note": 0, "velocity": 0, "duration": 96}, {"note": 76, "velocity": 90, "duration": 378}, {"note": 0, "velocity": 0, "duration": 102}, {"note": 76, "velocity": 92, "duration": 480}, {"note": 76, "velocity": 92, "duration": 152}, {"note": 0, "velocity": 0, "duration": 88}, {"note": 78, "velocity": 96, "duration": 156}, {"note": 0, "velocity": 0, "duration": 84}, {"note": 76, "velocity": 87, "duration": 115}, {"note": 0, "velocity": 0, "duration": 125}, {"note": 75, "velocity": 87, "duration": 384}, {"note": 0, "velocity": 0, "duration": 96}, {"note": 71, "velocity": 91, "duration": 166}, {"note": 0, "velocity": 0, "duration": 74}, {"note": 73, "velocity": 87, "duration": 677}, {"note": 0, "velocity": 0, "duration": 283}, {"note": 73, "velocity": 94, "duration": 68}, {"note": 75, "velocity": 99, "duration": 89}, {"note": 76, "velocity": 91, "duration": 111}, {"note": 0, "velocity": 0, "duration": 129}, {"note": 73, "velocity": 88, "duration": 111}, {"note": 0, "velocity": 0, "duration": 129}, {"note": 76, "velocity": 87, "duration": 124}, {"note": 0, "velocity": 0, "duration": 116}, {"note": 73, "velocity": 89, "duration": 335}, {"note": 0, "velocity": 0, "duration": 145}, {"note": 76, "velocity": 87, "duration": 152}, {"note": 0, "velocity": 0, "duration": 88}, {"note": 73, "velocity": 90, "duration": 135}, {"note": 0, "velocity": 0, "duration": 105}, {"note": 76, "velocity": 89, "duration": 156}, {"note": 0, "velocity": 0, "duration": 84}, {"note": 71, "velocity": 79, "duration": 605}, {"note": 0, "velocity": 0, "duration": 835}, {"note": 71, "velocity": 79, "duration": 115}, {"note": 0, "velocity": 0, "duration": 125}, {"note": 69, "velocity": 86, "duration": 166}, {"note": 0, "velocity": 0, "duration": 74}, {"note": 68, "velocity": 85, "duration": 147}, {"note": 0, "velocity": 0, "duration": 93}, {"note": 68, "velocity": 87, "duration": 806}, {"note": 0, "velocity": 0, "duration": 154}, {"note": 68, "velocity": 86, "duration": 226}, {"note": 66, "velocity": 85, "duration": 167}, {"note": 0, "velocity": 0, "duration": 73}, {"note": 68, "velocity": 86, "duration": 165}, {"note": 0, "velocity": 0, "duration": 75}, {"note": 66, "velocity": 86, "duration": 202}, {"note": 64, "velocity": 88, "duration": 1043}, {"note": 0, "velocity": 0, "duration": 157}, {"note": 73, "velocity": 87, "duration": 175}, {"note": 0, "velocity": 0, "duration": 65}, {"note": 75, "velocity": 87, "duration": 139}, {"note": 0, "velocity": 0, "duration": 101}, {"note": 76, "velocity": 85, "duration": 143}, {"note": 0, "velocity": 0, "duration": 97}, {"note": 76, "velocity": 91, "duration": 893}, {"note": 0, "velocity": 0, "duration": 67}, {"note": 78, "velocity": 90, "duration": 176}, {"note": 0, "velocity": 0, "duration": 64}, {"note": 75, "velocity": 82, "duration": 151}, {"note": 0, "velocity": 0, "duration": 89}, {"note": 73, "velocity": 87, "duration": 168}, {"note": 0, "velocity": 0, "duration": 72}, {"note": 73, "velocity": 89, "duration": 194}, {"note": 71, "velocity": 87, "duration": 1090}, {"note": 0, "velocity": 0, "duration": 110}, {"note": 73, "velocity": 90, "duration": 153}, {"note": 0, "velocity": 0, "duration": 87}, {"note": 75, "velocity": 89, "duration": 157}, {"note": 0, "velocity": 0, "duration": 83}, {"note": 76, "velocity": 87, "duration": 379}, {"note": 0, "velocity": 0, "duration": 101}, {"note": 76, "velocity": 90, "duration": 153}, {"note": 0, "velocity": 0, "duration": 87}, {"note": 76, "velocity": 89, "duration": 446}, {"note": 0, "velocity": 0, "duration": 274}, {"note": 75, "velocity": 86, "duration": 212}, {"note": 73, "velocity": 76, "duration": 194}, {"note": 71, "velocity": 86, "duration": 240}, {"note": 0, "velocity": 0, "duration": 240}, {"note": 73, "velocity": 87, "duration": 213}, {"note": 64, "velocity": 96, "duration": 594}, {"note": 0, "velocity": 0, "duration": 126}, {"note": 61, "velocity": 91, "duration": 171}, {"note": 0, "velocity": 0, "duration": 69}, {"note": 64, "velocity": 89, "duration": 148}, {"note": 0, "velocity": 0, "duration": 92}, {"note": 68, "velocity": 81, "duration": 153}, {"note": 0, "velocity": 0, "duration": 87}, {"note": 66, "velocity": 80, "duration": 497}, {"note": 0, "velocity": 0, "duration": 223}, {"note": 71, "velocity": 86, "duration": 392}, {"note": 0, "velocity": 0, "duration": 88}, {"note": 66, "velocity": 87, "duration": 166}, {"note": 0, "velocity": 0, "duration": 74}, {"note": 64, "velocity": 89, "duration": 1409}, {"note": 0, "velocity": 0, "duration": 19471}, {"note": 71, "velocity": 90, "duration": 185}, {"note": 69, "velocity": 89, "duration": 174}, {"note": 0, "velocity": 0, "duration": 66}, {"note": 68, "velocity": 89, "duration": 176}, {"note": 0, "velocity": 0, "duration": 64}, {"note": 68, "velocity": 89, "duration": 838}, {"note": 0, "velocity": 0, "duration": 122}, {"note": 68, "velocity": 83, "duration": 180}, {"note": 66, "velocity": 89, "duration": 170}, {"note": 0, "velocity": 0, "duration": 70}, {"note": 68, "velocity": 87, "duration": 196}, {"note": 64, "velocity": 91, "duration": 1243}, {"note": 0, "velocity": 0, "duration": 197}, {"note": 73, "velocity": 89, "duration": 165}, {"note": 0, "velocity": 0, "duration": 75}, {"note": 75, "velocity": 87, "duration": 166}, {"note": 0, "velocity": 0, "duration": 74}, {"note": 76, "velocity": 84, "duration": 149}, {"note": 0, "velocity": 0, "duration": 91}, {"note": 76, "velocity": 89, "duration": 906}, {"note": 75, "velocity": 85, "duration": 162}, {"note": 0, "velocity": 0, "duration": 78}, {"note": 73, "velocity": 91, "duration": 158}, {"note": 0, "velocity": 0, "duration": 82}, {"note": 75, "velocity": 87, "duration": 148}, {"note": 0, "velocity": 0, "duration": 92}, {"note": 71, "velocity": 89, "duration": 1054}, {"note": 0, "velocity": 0, "duration": 386}, {"note": 73, "velocity": 90, "duration": 173}, {"note": 0, "velocity": 0, "duration": 67}, {"note": 75, "velocity": 89, "duration": 134}, {"note": 0, "velocity": 0, "duration": 106}, {"note": 76, "velocity": 86, "duration": 480}, {"note": 76, "velocity": 91, "duration": 661}, {"note": 75, "velocity": 89, "duration": 480}, {"note": 73, "velocity": 90, "duration": 240}, {"note": 71, "velocity": 88, "duration": 436}, {"note": 73, "velocity": 84, "duration": 185}, {"note": 64, "velocity": 92, "duration": 611}, {"note": 0, "velocity": 0, "duration": 109}, {"note": 61, "velocity": 92, "duration": 133}, {"note": 0, "velocity": 0, "duration": 107}, {"note": 64, "velocity": 87, "duration": 164}, {"note": 0, "velocity": 0, "duration": 76}, {"note": 66, "velocity": 87, "duration": 172}, {"note": 0, "velocity": 0, "duration": 68}, {"note": 66, "velocity": 86, "duration": 480}, {"note": 68, "velocity": 89, "duration": 203}, {"note": 66, "velocity": 88, "duration": 419}, {"note": 0, "velocity": 0, "duration": 61}, {"note": 64, "velocity": 92, "duration": 167}, {"note": 0, "velocity": 0, "duration": 73}, {"note": 66, "velocity": 87, "duration": 1459}, {"note": 0, "velocity": 0, "duration": 221}, {"note": 71, "velocity": 79, "duration": 115}, {"note": 0, "velocity": 0, "duration": 125}, {"note": 69, "velocity": 86, "duration": 166}, {"note": 0, "velocity": 0, "duration": 74}, {"note": 68, "velocity": 85, "duration": 147}, {"note": 0, "velocity": 0, "duration": 93}, {"note": 68, "velocity": 87, "duration": 806}, {"note": 0, "velocity": 0, "duration": 154}, {"note": 68, "velocity": 86, "duration": 226}, {"note": 66, "velocity": 85, "duration": 167}, {"note": 0, "velocity": 0, "duration": 73}, {"note": 68, "velocity": 86, "duration": 165}, {"note": 0, "velocity": 0, "duration": 75}, {"note": 66, "velocity": 86, "duration": 202}, {"note": 64, "velocity": 88, "duration": 1043}, {"note": 0, "velocity": 0, "duration": 157}, {"note": 73, "velocity": 87, "duration": 175}, {"note": 0, "velocity": 0, "duration": 65}, {"note": 75, "velocity": 87, "duration": 139}, {"note": 0, "velocity": 0, "duration": 101}, {"note": 76, "velocity": 85, "duration": 143}, {"note": 0, "velocity": 0, "duration": 97}, {"note": 76, "velocity": 91, "duration": 893}, {"note": 0, "velocity": 0, "duration": 67}, {"note": 78, "velocity": 90, "duration": 176}, {"note": 0, "velocity": 0, "duration": 64}, {"note": 75, "velocity": 82, "duration": 151}, {"note": 0, "velocity": 0, "duration": 89}, {"note": 73, "velocity": 87, "duration": 168}, {"note": 0, "velocity": 0, "duration": 72}, {"note": 73, "velocity": 89, "duration": 194}, {"note": 71, "velocity": 87, "duration": 1090}, {"note": 0, "velocity": 0, "duration": 110}, {"note": 73, "velocity": 90, "duration": 153}, {"note": 0, "velocity": 0, "duration": 87}, {"note": 75, "velocity": 89, "duration": 157}, {"note": 0, "velocity": 0, "duration": 83}, {"note": 76, "velocity": 87, "duration": 379}, {"note": 0, "velocity": 0, "duration": 101}, {"note": 76, "velocity": 90, "duration": 153}, {"note": 0, "velocity": 0, "duration": 87}, {"note": 76, "velocity": 89, "duration": 446}, {"note": 0, "velocity": 0, "duration": 274}, {"note": 75, "velocity": 86, "duration": 212}, {"note": 73, "velocity": 76, "duration": 194}, {"note": 71, "velocity": 86, "duration": 240}, {"note": 0, "velocity": 0, "duration": 240}, {"note": 73, "velocity": 87, "duration": 213}, {"note": 64, "velocity": 96, "duration": 594}, {"note": 0, "velocity": 0, "duration": 126}, {"note": 61, "velocity": 91, "duration": 171}, {"note": 0, "velocity": 0, "duration": 69}, {"note": 64, "velocity": 89, "duration": 148}, {"note": 0, "velocity": 0, "duration": 92}, {"note": 68, "velocity": 81, "duration": 153}, {"note": 0, "velocity": 0, "duration": 87}, {"note": 66, "velocity": 80, "duration": 497}, {"note": 0, "velocity": 0, "duration": 223}, {"note": 71, "velocity": 86, "duration": 392}, {"note": 0, "velocity": 0, "duration": 88}, {"note": 66, "velocity": 87, "duration": 166}, {"note": 0, "velocity": 0, "duration": 74}, {"note": 64, "velocity": 89, "duration": 1409}, {"note": 0, "velocity": 0, "duration": 511}, {"note": 64, "velocity": 96, "duration": 170}, {"note": 0, "velocity": 0, "duration": 70}, {"note": 76, "velocity": 89, "duration": 585}, {"note": 0, "velocity": 0, "duration": 135}, {"note": 76, "velocity": 89, "duration": 630}, {"note": 0, "velocity": 0, "duration": 90}, {"note": 78, "velocity": 96, "duration": 148}, {"note": 0, "velocity": 0, "duration": 92}, {"note": 76, "velocity": 87, "duration": 133}, {"note": 0, "velocity": 0, "duration": 107}, {"note": 75, "velocity": 91, "duration": 433}, {"note": 71, "velocity": 90, "duration": 148}, {"note": 0, "velocity": 0, "duration": 92}, {"note": 68, "velocity": 87, "duration": 205}, {"note": 71, "velocity": 86, "duration": 179}, {"note": 0, "velocity": 0, "duration": 61}, {"note": 73, "velocity": 73, "duration": 377}, {"note": 0, "velocity": 0, "duration": 343}, {"note": 69, "velocity": 86, "duration": 180}, {"note": 69, "velocity": 83, "duration": 152}, {"note": 0, "velocity": 0, "duration": 88}, {"note": 69, "velocity": 85, "duration": 146}, {"note": 0, "velocity": 0, "duration": 94}, {"note": 69, "velocity": 85, "duration": 151}, {"note": 0, "velocity": 0, "duration": 89}, {"note": 69, "velocity": 89, "duration": 362}, {"note": 0, "velocity": 0, "duration": 118}, {"note": 71, "velocity": 87, "duration": 147}, {"note": 0, "velocity": 0, "duration": 93}, {"note": 73, "velocity": 87, "duration": 385}, {"note": 0, "velocity": 0, "duration": 95}, {"note": 71, "velocity": 87, "duration": 189}, {"note": 71, "velocity": 87, "duration": 820}, {"note": 0, "velocity": 0, "duration": 140}, {"note": 64, "velocity": 89, "duration": 165}, {"note": 0, "velocity": 0, "duration": 75}, {"note": 64, "velocity": 88, "duration": 169}, {"note": 0, "velocity": 0, "duration": 71}, {"note": 76, "velocity": 90, "duration": 144}, {"note": 0, "velocity": 0, "duration": 96}, {"note": 76, "velocity": 90, "duration": 378}, {"note": 0, "velocity": 0, "duration": 102}, {"note": 76, "velocity": 92, "duration": 480}, {"note": 76, "velocity": 92, "duration": 152}, {"note": 0, "velocity": 0, "duration": 88}, {"note": 78, "velocity": 96, "duration": 156}, {"note": 0, "velocity": 0, "duration": 84}, {"note": 76, "velocity": 87, "duration": 115}, {"note": 0, "velocity": 0, "duration": 125}, {"note": 75, "velocity": 87, "duration": 384}, {"note": 0, "velocity": 0, "duration": 96}, {"note": 71, "velocity": 91, "duration": 166}, {"note": 0, "velocity": 0, "duration": 74}, {"note": 73, "velocity": 87, "duration": 677}, {"note": 0, "velocity": 0, "duration": 283}, {"note": 73, "velocity": 94, "duration": 68}, {"note": 75, "velocity": 99, "duration": 89}, {"note": 76, "velocity": 91, "duration": 111}, {"note": 0, "velocity": 0, "duration": 129}, {"note": 73, "velocity": 88, "duration": 111}, {"note": 0, "velocity": 0, "duration": 129}, {"note": 76, "velocity": 87, "duration": 124}, {"note": 0, "velocity": 0, "duration": 116}, {"note": 73, "velocity": 89, "duration": 335}, {"note": 0, "velocity": 0, "duration": 145}, {"note": 76, "velocity": 87, "duration": 152}, {"note": 0, "velocity": 0, "duration": 88}, {"note": 73, "velocity": 90, "duration": 135}, {"note": 0, "velocity": 0, "duration": 105}, {"note": 76, "velocity": 89, "duration": 156}, {"note": 0, "velocity": 0, "duration": 84}, {"note": 71, "velocity": 79, "duration": 605}, {"note": 0, "velocity": 0, "duration": 835}, {"note": 71, "velocity": 79, "duration": 115}, {"note": 0, "velocity": 0, "duration": 125}, {"note": 69, "velocity": 86, "duration": 166}, {"note": 0, "velocity": 0, "duration": 74}, {"note": 68, "velocity": 85, "duration": 147}, {"note": 0, "velocity": 0, "duration": 93}, {"note": 68, "velocity": 87, "duration": 806}, {"note": 0, "velocity": 0, "duration": 154}, {"note": 68, "velocity": 86, "duration": 226}, {"note": 66, "velocity": 85, "duration": 167}, {"note": 0, "velocity": 0, "duration": 73}, {"note": 68, "velocity": 86, "duration": 165}, {"note": 0, "velocity": 0, "duration": 75}, {"note": 66, "velocity": 86, "duration": 202}, {"note": 64, "velocity": 88, "duration": 1043}, {"note": 0, "velocity": 0, "duration": 157}, {"note": 73, "velocity": 87, "duration": 175}, {"note": 0, "velocity": 0, "duration": 65}, {"note": 75, "velocity": 87, "duration": 139}, {"note": 0, "velocity": 0, "duration": 101}, {"note": 76, "velocity": 85, "duration": 143}, {"note": 0, "velocity": 0, "duration": 97}, {"note": 76, "velocity": 91, "duration": 893}, {"note": 0, "velocity": 0, "duration": 67}, {"note": 78, "velocity": 90, "duration": 176}, {"note": 0, "velocity": 0, "duration": 64}, {"note": 75, "velocity": 82, "duration": 151}, {"note": 0, "velocity": 0, "duration": 89}, {"note": 73, "velocity": 87, "duration": 168}, {"note": 0, "velocity": 0, "duration": 72}, {"note": 73, "velocity": 89, "duration": 194}, {"note": 71, "velocity": 87, "duration": 1090}, {"note": 0, "velocity": 0, "duration": 110}, {"note": 73, "velocity": 90, "duration": 153}, {"note": 0, "velocity": 0, "duration": 87}, {"note": 75, "velocity": 89, "duration": 157}, {"note": 0, "velocity": 0, "duration": 83}, {"note": 76, "velocity": 87, "duration": 379}, {"note": 0, "velocity": 0, "duration": 101}, {"note": 76, "velocity": 90, "duration": 153}, {"note": 0, "velocity": 0, "duration": 87}, {"note": 76, "velocity": 89, "duration": 446}, {"note": 0, "velocity": 0, "duration": 274}, {"note": 75, "velocity": 86, "duration": 212}, {"note": 73, "velocity": 76, "duration": 194}, {"note": 71, "velocity": 86, "duration": 240}, {"note": 0, "velocity": 0, "duration": 240}, {"note": 73, "velocity": 87, "duration": 213}, {"note": 64, "velocity": 96, "duration": 594}, {"note": 0, "velocity": 0, "duration": 126}, {"note": 61, "velocity": 91, "duration": 171}, {"note": 0, "velocity": 0, "duration": 69}, {"note": 64, "velocity": 89, "duration": 148}, {"note": 0, "velocity": 0, "duration": 92}, {"note": 68, "velocity": 81, "duration": 153}, {"note": 0, "velocity": 0, "duration": 87}, {"note": 66, "velocity": 80, "duration": 497}, {"note": 0, "velocity": 0, "duration": 223}, {"note": 71, "velocity": 86, "duration": 392}, {"note": 0, "velocity": 0, "duration": 88}, {"note": 66, "velocity": 87, "duration": 166}, {"note": 0, "velocity": 0, "duration": 74}, {"note": 64, "velocity": 89, "duration": 1409}, {"note": 0, "velocity": 0, "duration": 511}, {"note": 64, "velocity": 96, "duration": 170}, {"note": 0, "velocity": 0, "duration": 70}, {"note": 76, "velocity": 89, "duration": 585}, {"note": 0, "velocity": 0, "duration": 135}, {"note": 76, "velocity": 89, "duration": 630}, {"note": 0, "velocity": 0, "duration": 90}, {"note": 78, "velocity": 96, "duration": 148}, {"note": 0, "velocity": 0, "duration": 92}, {"note": 76, "velocity": 87, "duration": 133}, {"note": 0, "velocity": 0, "duration": 107}, {"note": 75, "velocity": 91, "duration": 433}, {"note": 71, "velocity": 90, "duration": 148}, {"note": 0, "velocity": 0, "duration": 92}, {"note": 68, "velocity": 87, "duration": 205}, {"note": 71, "velocity": 86, "duration": 179}, {"note": 0, "velocity": 0, "duration": 61}, {"note": 73, "velocity": 73, "duration": 377}, {"note": 0, "velocity": 0, "duration": 343}, {"note": 69, "velocity": 86, "duration": 180}, {"note": 69, "velocity": 83, "duration": 152}, {"note": 0, "velocity": 0, "duration": 88}, {"note": 69, "velocity": 85, "duration": 146}, {"note": 0, "velocity": 0, "duration": 94}, {"note": 69, "velocity": 85, "duration": 151}, {"note": 0, "velocity": 0, "duration": 89}, {"note": 69, "velocity": 89, "duration": 362}, {"note": 0, "velocity": 0, "duration": 118}, {"note": 71, "velocity": 87, "duration": 147}, {"note": 0, "velocity": 0, "duration": 93}, {"note": 73, "velocity": 87, "duration": 385}, {"note": 0, "velocity": 0, "duration": 95}, {"note": 71, "velocity": 87, "duration": 189}, {"note": 71, "velocity": 87, "duration": 820}, {"note": 0, "velocity": 0, "duration": 140}, {"note": 64, "velocity": 89, "duration": 165}, {"note": 0, "velocity": 0, "duration": 75}, {"note": 64, "velocity": 88, "duration": 169}, {"note": 0, "velocity": 0, "duration": 71}, {"note": 76, "velocity": 90, "duration": 144}, {"note": 0, "velocity": 0, "duration": 96}, {"note": 76, "velocity": 90, "duration": 378}, {"note": 0, "velocity": 0, "duration": 102}, {"note": 76, "velocity": 92, "duration": 480}, {"note": 76, "velocity": 92, "duration": 152}, {"note": 0, "velocity": 0, "duration": 88}, {"note": 78, "velocity": 96, "duration": 156}, {"note": 0, "velocity": 0, "duration": 84}, {"note": 76, "velocity": 87, "duration": 115}, {"note": 0, "velocity": 0, "duration": 125}, {"note": 75, "velocity": 87, "duration": 384}, {"note": 0, "velocity": 0, "duration": 96}, {"note": 71, "velocity": 91, "duration": 166}, {"note": 0, "velocity": 0, "duration": 74}, {"note": 73, "velocity": 87, "duration": 677}, {"note": 0, "velocity": 0, "duration": 283}, {"note": 73, "velocity": 94, "duration": 68}, {"note": 75, "velocity": 99, "duration": 89}, {"note": 76, "velocity": 91, "duration": 111}, {"note": 0, "velocity": 0, "duration": 129}, {"note": 73, "velocity": 88, "duration": 111}, {"note": 0, "velocity": 0, "duration": 129}, {"note": 76, "velocity": 87, "duration": 124}, {"note": 0, "velocity": 0, "duration": 116}, {"note": 73, "velocity": 89, "duration": 335}, {"note": 0, "velocity": 0, "duration": 145}, {"note": 76, "velocity": 87, "duration": 152}, {"note": 0, "velocity": 0, "duration": 88}, {"note": 73, "velocity": 90, "duration": 135}, {"note": 0, "velocity": 0, "duration": 105}, {"note": 76, "velocity": 89, "duration": 156}, {"note": 0, "velocity": 0, "duration": 84}, {"note": 71, "velocity": 79, "duration": 605}, {"note": 0, "velocity": 0, "duration": 835}, {"note": 71, "velocity": 79, "duration": 115}, {"note": 0, "velocity": 0, "duration": 125}, {"note": 69, "velocity": 86, "duration": 166}, {"note": 0, "velocity": 0, "duration": 74}, {"note": 68, "velocity": 85, "duration": 147}, {"note": 0, "velocity": 0, "duration": 93}, {"note": 68, "velocity": 87, "duration": 806}, {"note": 0, "velocity": 0, "duration": 154}, {"note": 68, "velocity": 86, "duration": 226}, {"note": 66, "velocity": 85, "duration": 167}, {"note": 0, "velocity": 0, "duration": 73}, {"note": 68, "velocity": 86, "duration": 165}, {"note": 0, "velocity": 0, "duration": 75}, {"note": 66, "velocity": 86, "duration": 202}, {"note": 64, "velocity": 88, "duration": 1043}, {"note": 0, "velocity": 0, "duration": 157}, {"note": 73, "velocity": 87, "duration": 175}, {"note": 0, "velocity": 0, "duration": 65}, {"note": 75, "velocity": 87, "duration": 139}, {"note": 0, "velocity": 0, "duration": 101}, {"note": 76, "velocity": 85, "duration": 143}, {"note": 0, "velocity": 0, "duration": 97}, {"note": 76, "velocity": 91, "duration": 893}, {"note": 0, "velocity": 0, "duration": 67}, {"note": 78, "velocity": 90, "duration": 176}, {"note": 0, "velocity": 0, "duration": 64}, {"note": 75, "velocity": 82, "duration": 151}, {"note": 0, "velocity": 0, "duration": 89}, {"note": 73, "velocity": 87, "duration": 168}, {"note": 0, "velocity": 0, "duration": 72}, {"note": 73, "velocity": 89, "duration": 194}, {"note": 71, "velocity": 87, "duration": 1090}, {"note": 0, "velocity": 0, "duration": 110}, {"note": 73, "velocity": 90, "duration": 153}, {"note": 0, "velocity": 0, "duration": 87}, {"note": 75, "velocity": 89, "duration": 157}, {"note": 0, "velocity": 0, "duration": 83}, {"note": 76, "velocity": 87, "duration": 379}, {"note": 0, "velocity": 0, "duration": 101}, {"note": 76, "velocity": 90, "duration": 153}, {"note": 0, "velocity": 0, "duration": 87}, {"note": 76, "velocity": 89, "duration": 446}, {"note": 0, "velocity": 0, "duration": 274}, {"note": 75, "velocity": 86, "duration": 212}, {"note": 73, "velocity": 76, "duration": 194}, {"note": 71, "velocity": 86, "duration": 240}, {"note": 0, "velocity": 0, "duration": 240}, {"note": 73, "velocity": 87, "duration": 213}, {"note": 64, "velocity": 96, "duration": 594}, {"note": 0, "velocity": 0, "duration": 126}, {"note": 61, "velocity": 91, "duration": 171}, {"note": 0, "velocity": 0, "duration": 69}, {"note": 64, "velocity": 89, "duration": 148}, {"note": 0, "velocity": 0, "duration": 92}, {"note": 68, "velocity": 81, "duration": 153}, {"note": 0, "velocity": 0, "duration": 87}, {"note": 66, "velocity": 80, "duration": 497}, {"note": 0, "velocity": 0, "duration": 223}, {"note": 71, "velocity": 86, "duration": 392}, {"note": 0, "velocity": 0, "duration": 88}, {"note": 66, "velocity": 87, "duration": 166}, {"note": 0, "velocity": 0, "duration": 74}, {"note": 64, "velocity": 89, "duration": 1409}, {"note": 0, "velocity": 0, "duration": 271}, {"note": 73, "velocity": 90, "duration": 153}, {"note": 0, "velocity": 0, "duration": 87}, {"note": 75, "velocity": 89, "duration": 157}, {"note": 0, "velocity": 0, "duration": 83}, {"note": 76, "velocity": 87, "duration": 379}, {"note": 0, "velocity": 0, "duration": 101}, {"note": 76, "velocity": 90, "duration": 153}, {"note": 0, "velocity": 0, "duration": 87}, {"note": 76, "velocity": 89, "duration": 446}, {"note": 0, "velocity": 0, "duration": 274}, {"note": 75, "velocity": 86, "duration": 212}, {"note": 73, "velocity": 76, "duration": 194}, {"note": 71, "velocity": 86, "duration": 240}, {"note": 0, "velocity": 0, "duration": 240}, {"note": 73, "velocity": 87, "duration": 213}, {"note": 64, "velocity": 96, "duration": 594}, {"note": 0, "velocity": 0, "duration": 126}, {"note": 61, "velocity": 91, "duration": 171}, {"note": 0, "velocity": 0, "duration": 69}, {"note": 64, "velocity": 89, "duration": 148}, {"note": 0, "velocity": 0, "duration": 92}, {"note": 68, "velocity": 81, "duration": 153}, {"note": 0, "velocity": 0, "duration": 87}, {"note": 66, "velocity": 80, "duration": 497}, {"note": 0, "velocity": 0, "duration": 223}, {"note": 71, "velocity": 86, "duration": 392}, {"note": 0, "velocity": 0, "duration": 88}, {"note": 66, "velocity": 87, "duration": 166}, {"note": 0, "velocity": 0, "duration": 74}, {"note": 68, "velocity": 89, "duration": 1200}, {"note": 71, "velocity": 89, "duration": 960}, {"note": 69, "velocity": 89, "duration": 960}, {"note": 73, "velocity": 89, "duration": 960}, {"note": 76, "velocity": 89, "duration": 960}]]