[[{"note": 74, "velocity": 85, "duration": 575}, {"note": 0, "velocity": 0, "duration": 145}, {"note": 74, "velocity": 104, "duration": 193}, {"note": 72, "velocity": 102, "duration": 415}, {"note": 0, "velocity": 0, "duration": 65}, {"note": 67, "velocity": 92, "duration": 196}, {"note": 65, "velocity": 98, "duration": 176}, {"note": 0, "velocity": 0, "duration": 64}, {"note": 67, "velocity": 100, "duration": 387}, {"note": 0, "velocity": 0, "duration": 93}, {"note": 72, "velocity": 97, "duration": 178}, {"note": 0, "velocity": 0, "duration": 62}, {"note": 69, "velocity": 97, "duration": 584}, {"note": 0, "velocity": 0, "duration": 136}, {"note": 67, "velocity": 98, "duration": 164}, {"note": 0, "velocity": 0, "duration": 76}, {"note": 69, "velocity": 99, "duration": 137}, {"note": 0, "velocity": 0, "duration": 103}, {"note": 72, "velocity": 100, "duration": 289}, {"note": 74, "velocity": 99, "duration": 283}, {"note": 0, "velocity": 0, "duration": 197}, {"note": 69, "velocity": 97, "duration": 181}, {"note": 67, "velocity": 96, "duration": 377}, {"note": 0, "velocity": 0, "duration": 103}, {"note": 72, "velocity": 86, "duration": 193}, {"note": 69, "velocity": 98, "duration": 1164}, {"note": 0, "velocity": 0, "duration": 996}, {"note": 74, "velocity": 99, "duration": 603}, {"note": 0, "velocity": 0, "duration": 117}, {"note": 76, "velocity": 100, "duration": 183}, {"note": 72, "velocity": 98, "duration": 445}, {"note": 67, "velocity": 98, "duration": 176}, {"note": 0, "velocity": 0, "duration": 64}, {"note": 65, "velocity": 94, "duration": 156}, {"note": 0, "velocity": 0, "duration": 84}, {"note": 67, "velocity": 97, "duration": 301}, {"note": 72, "velocity": 97, "duration": 306}, {"note": 0, "velocity": 0, "duration": 174}, {"note": 74, "velocity": 104, "duration": 228}, {"note": 69, "velocity": 97, "duration": 378}, {"note": 0, "velocity": 0, "duration": 102}, {"note": 67, "velocity": 97, "duration": 173}, {"note": 0, "velocity": 0, "duration": 67}, {"note": 69, "velocity": 98, "duration": 163}, {"note": 0, "velocity": 0, "duration": 77}, {"note": 72, "velocity": 99, "duration": 322}, {"note": 69, "velocity": 98, "duration": 284}, {"note": 0, "velocity": 0, "duration": 196}, {"note": 60, "velocity": 93, "duration": 194}, {"note": 67, "velocity": 97, "duration": 272}, {"note": 0, "velocity": 0, "duration": 208}, {"note": 60, "velocity": 86, "duration": 240}, {"note": 64, "velocity": 97, "duration": 181}, {"note": 62, "velocity": 95, "duration": 1170}, {"note": 0, "velocity": 0, "duration": 270}, {"note": 62, "velocity": 98, "duration": 249}, {"note": 69, "velocity": 97, "duration": 513}, {"note": 67, "velocity": 97, "duration": 1009}, {"note": 0, "velocity": 0, "duration": 191}, {"note": 67, "velocity": 97, "duration": 235}, {"note": 65, "velocity": 97, "duration": 271}, {"note": 67, "velocity": 95, "duration": 394}, {"note": 72, "velocity": 98, "duration": 328}, {"note": 0, "velocity": 0, "duration": 152}, {"note": 67, "velocity": 95, "duration": 254}, {"note": 69, "velocity": 97, "duration": 410}, {"note": 0, "velocity": 0, "duration": 70}, {"note": 67, "velocity": 98, "duration": 162}, {"note": 0, "velocity": 0, "duration": 78}, {"note": 69, "velocity": 98, "duration": 187}, {"note": 72, "velocity": 99, "duration": 240}, {"note": 69, "velocity": 99, "duration": 509}, {"note": 0, "velocity": 0, "duration": 211}, {"note": 67, "velocity": 101, "duration": 301}, {"note": 0, "velocity": 0, "duration": 179}, {"note": 72, "velocity": 102, "duration": 197}, {"note": 74, "velocity": 99, "duration": 189}, {"note": 72, "velocity": 99, "duration": 226}, {"note": 69, "velocity": 95, "duration": 1020}, {"note": 0, "velocity": 0, "duration": 180}, {"note": 74, "velocity": 101, "duration": 207}, {"note": 72, "velocity": 98, "duration": 214}, {"note": 74, "velocity": 103, "duration": 673}, {"note": 77, "velocity": 96, "duration": 231}, {"note": 79, "velocity": 98, "duration": 645}, {"note": 0, "velocity": 0, "duration": 315}, {"note": 72, "velocity": 99, "duration": 448}, {"note": 69, "velocity": 98, "duration": 207}, {"note": 76, "velocity": 99, "duration": 254}, {"note": 74, "velocity": 103, "duration": 438}, {"note": 69, "velocity": 101, "duration": 165}, {"note": 0, "velocity": 0, "duration": 75}, {"note": 72, "velocity": 98, "duration": 144}, {"note": 0, "velocity": 0, "duration": 96}, {"note": 74, "velocity": 101, "duration": 280}, {"note": 81, "velocity": 97, "duration": 281}, {"note": 0, "velocity": 0, "duration": 199}, {"note": 74, "velocity": 104, "duration": 212}, {"note": 72, "velocity": 99, "duration": 319}, {"note": 69, "velocity": 99, "duration": 480}, {"note": 72, "velocity": 102, "duration": 240}, {"note": 74, "velocity": 101, "duration": 1228}, {"note": 0, "velocity": 0, "duration": 212}, {"note": 69, "velocity": 98, "duration": 150}, {"note": 0, "velocity": 0, "duration": 90}, {"note": 72, "velocity": 99, "duration": 147}, {"note": 0, "velocity": 0, "duration": 93}, {"note": 74, "velocity": 100, "duration": 322}, {"note": 77, "velocity": 93, "duration": 297}, {"note": 0, "velocity": 0, "duration": 183}, {"note": 74, "velocity": 98, "duration": 204}, {"note": 77, "velocity": 98, "duration": 341}, {"note": 0, "velocity": 0, "duration": 139}, {"note": 74, "velocity": 98, "duration": 176}, {"note": 0, "velocity": 0, "duration": 64}, {"note": 77, "velocity": 92, "duration": 121}, {"note": 0, "velocity": 0, "duration": 119}, {"note": 79, "velocity": 97, "duration": 396}, {"note": 0, "velocity": 0, "duration": 84}, {"note": 84, "velocity": 97, "duration": 191}, {"note": 72, "velocity": 96, "duration": 141}, {"note": 0, "velocity": 0, "duration": 99}, {"note": 74, "velocity": 101, "duration": 402}, {"note": 0, "velocity": 0, "duration": 78}, {"note": 69, "velocity": 93, "duration": 163}, {"note": 0, "velocity": 0, "duration": 77}, {"note": 72, "velocity": 93, "duration": 131}, {"note": 0, "velocity": 0, "duration": 109}, {"note": 74, "velocity": 98, "duration": 189}, {"note": 77, "velocity": 95, "duration": 147}, {"note": 0, "velocity": 0, "duration": 93}, {"note": 77, "velocity": 97, "duration": 131}, {"note": 0, "velocity": 0, "duration": 109}, {"note": 74, "velocity": 98, "duration": 145}, {"note": 0, "velocity": 0, "duration": 95}, {"note": 72, "velocity": 100, "duration": 394}, {"note": 69, "velocity": 96, "duration": 205}, {"note": 67, "velocity": 97, "duration": 186}, {"note": 72, "velocity": 98, "duration": 388}, {"note": 0, "velocity": 0, "duration": 92}, {"note": 69, "velocity": 98, "duration": 954}, {"note": 0, "velocity": 0, "duration": 246}, {"note": 69, "velocity": 97, "duration": 190}, {"note": 72, "velocity": 98, "duration": 183}, {"note": 74, "velocity": 99, "duration": 391}, {"note": 0, "velocity": 0, "duration": 89}, {"note": 77, "velocity": 92, "duration": 181}, {"note": 74, "velocity": 99, "duration": 168}, {"note": 0, "velocity": 0, "duration": 72}, {"note": 77, "velocity": 92, "duration": 378}, {"note": 0, "velocity": 0, "duration": 102}, {"note": 74, "velocity": 103, "duration": 163}, {"note": 0, "velocity": 0, "duration": 77}, {"note": 77, "velocity": 99, "duration": 165}, {"note": 0, "velocity": 0, "duration": 75}, {"note": 79, "velocity": 97, "duration": 378}, {"note": 0, "velocity": 0, "duration": 102}, {"note": 84, "velocity": 98, "duration": 201}, {"note": 72, "velocity": 89, "duration": 163}, {"note": 0, "velocity": 0, "duration": 77}, {"note": 74, "velocity": 100, "duration": 347}, {"note": 0, "velocity": 0, "duration": 133}, {"note": 69, "velocity": 98, "duration": 154}, {"note": 0, "velocity": 0, "duration": 86}, {"note": 72, "velocity": 98, "duration": 152}, {"note": 0, "velocity": 0, "duration": 88}, {"note": 74, "velocity": 102, "duration": 593}, {"note": 0, "velocity": 0, "duration": 127}, {"note": 81, "velocity": 97, "duration": 162}, {"note": 0, "velocity": 0, "duration": 78}, {"note": 79, "velocity": 98, "duration": 156}, {"note": 0, "velocity": 0, "duration": 84}, {"note": 77, "velocity": 98, "duration": 182}, {"note": 76, "velocity": 103, "duration": 174}, {"note": 0, "velocity": 0, "duration": 66}, {"note": 77, "velocity": 96, "duration": 393}, {"note": 0, "velocity": 0, "duration": 87}, {"note": 74, "velocity": 99, "duration": 1117}, {"note": 0, "velocity": 0, "duration": 17843}, {"note": 74, "velocity": 85, "duration": 575}, {"note": 0, "velocity": 0, "duration": 145}, {"note": 74, "velocity": 104, "duration": 193}, {"note": 72, "velocity": 102, "duration": 415}, {"note": 0, "velocity": 0, "duration": 65}, {"note": 67, "velocity": 92, "duration": 196}, {"note": 65, "velocity": 98, "duration": 176}, {"note": 0, "velocity": 0, "duration": 64}, {"note": 67, "velocity": 100, "duration": 387}, {"note": 0, "velocity": 0, "duration": 93}, {"note": 72, "velocity": 97, "duration": 178}, {"note": 0, "velocity": 0, "duration": 62}, {"note": 69, "velocity": 97, "duration": 584}, {"note": 0, "velocity": 0, "duration": 136}, {"note": 67, "velocity": 98, "duration": 164}, {"note": 0, "velocity": 0, "duration": 76}, {"note": 69, "velocity": 99, "duration": 137}, {"note": 0, "velocity": 0, "duration": 103}, {"note": 72, "velocity": 100, "duration": 289}, {"note": 74, "velocity": 99, "duration": 283}, {"note": 0, "velocity": 0, "duration": 197}, {"note": 69, "velocity": 97, "duration": 181}, {"note": 67, "velocity": 96, "duration": 377}, {"note": 0, "velocity": 0, "duration": 103}, {"note": 72, "velocity": 86, "duration": 193}, {"note": 69, "velocity": 98, "duration": 1164}, {"note": 0, "velocity": 0, "duration": 996}, {"note": 74, "velocity": 99, "duration": 603}, {"note": 0, "velocity": 0, "duration": 117}, {"note": 76, "velocity": 100, "duration": 183}, {"note": 72, "velocity": 98, "duration": 445}, {"note": 67, "velocity": 98, "duration": 176}, {"note": 0, "velocity": 0, "duration": 64}, {"note": 65, "velocity": 94, "duration": 156}, {"note": 0, "velocity": 0, "duration": 84}, {"note": 67, "velocity": 97, "duration": 301}, {"note": 72, "velocity": 97, "duration": 306}, {"note": 0, "velocity": 0, "duration": 174}, {"note": 74, "velocity": 104, "duration": 228}, {"note": 69, "velocity": 97, "duration": 378}, {"note": 0, "velocity": 0, "duration": 102}, {"note": 67, "velocity": 97, "duration": 173}, {"note": 0, "velocity": 0, "duration": 67}, {"note": 69, "velocity": 98, "duration": 163}, {"note": 0, "velocity": 0, "duration": 77}, {"note": 72, "velocity": 99, "duration": 322}, {"note": 69, "velocity": 98, "duration": 284}, {"note": 0, "velocity": 0, "duration": 196}, {"note": 60, "velocity": 93, "duration": 194}, {"note": 67, "velocity": 97, "duration": 272}, {"note": 0, "velocity": 0, "duration": 208}, {"note": 60, "velocity": 86, "duration": 240}, {"note": 64, "velocity": 97, "duration": 181}, {"note": 62, "velocity": 95, "duration": 1170}, {"note": 0, "velocity": 0, "duration": 270}, {"note": 62, "velocity": 98, "duration": 249}, {"note": 69, "velocity": 97, "duration": 513}, {"note": 67, "velocity": 97, "duration": 1009}, {"note": 0, "velocity": 0, "duration": 191}, {"note": 67, "velocity": 97, "duration": 235}, {"note": 65, "velocity": 97, "duration": 271}, {"note": 67, "velocity": 95, "duration": 394}, {"note": 72, "velocity": 98, "duration": 328}, {"note": 0, "velocity": 0, "duration": 152}, {"note": 67, "velocity": 95, "duration": 254}, {"note": 69, "velocity": 97, "duration": 410}, {"note": 0, "velocity": 0, "duration": 70}, {"note": 67, "velocity": 98, "duration": 162}, {"note": 0, "velocity": 0, "duration": 78}, {"note": 69, "velocity": 98, "duration": 187}, {"note": 72, "velocity": 99, "duration": 240}, {"note": 69, "velocity": 99, "duration": 509}, {"note": 0, "velocity": 0, "duration": 211}, {"note": 67, "velocity": 101, "duration": 301}, {"note": 0, "velocity": 0, "duration": 179}, {"note": 72, "velocity": 102, "duration": 197}, {"note": 74, "velocity": 99, "duration": 189}, {"note": 72, "velocity": 99, "duration": 226}, {"note": 69, "velocity": 95, "duration": 1020}, {"note": 0, "velocity": 0, "duration": 180}, {"note": 74, "velocity": 101, "duration": 207}, {"note": 72, "velocity": 98, "duration": 214}, {"note": 74, "velocity": 103, "duration": 673}, {"note": 77, "velocity": 96, "duration": 231}, {"note": 79, "velocity": 98, "duration": 645}, {"note": 0, "velocity": 0, "duration": 315}, {"note": 72, "velocity": 99, "duration": 448}, {"note": 69, "velocity": 98, "duration": 207}, {"note": 76, "velocity": 99, "duration": 254}, {"note": 74, "velocity": 103, "duration": 438}, {"note": 69, "velocity": 101, "duration": 165}, {"note": 0, "velocity": 0, "duration": 75}, {"note": 72, "velocity": 98, "duration": 144}, {"note": 0, "velocity": 0, "duration": 96}, {"note": 74, "velocity": 101, "duration": 280}, {"note": 81, "velocity": 97, "duration": 281}, {"note": 0, "velocity": 0, "duration": 199}, {"note": 74, "velocity": 104, "duration": 212}, {"note": 72, "velocity": 99, "duration": 319}, {"note": 69, "velocity": 99, "duration": 480}, {"note": 72, "velocity": 102, "duration": 240}, {"note": 74, "velocity": 101, "duration": 1228}, {"note": 0, "velocity": 0, "duration": 212}, {"note": 69, "velocity": 98, "duration": 150}, {"note": 0, "velocity": 0, "duration": 90}, {"note": 72, "velocity": 99, "duration": 147}, {"note": 0, "velocity": 0, "duration": 93}, {"note": 74, "velocity": 100, "duration": 322}, {"note": 77, "velocity": 93, "duration": 297}, {"note": 0, "velocity": 0, "duration": 183}, {"note": 74, "velocity": 98, "duration": 204}, {"note": 77, "velocity": 98, "duration": 341}, {"note": 0, "velocity": 0, "duration": 139}, {"note": 74, "velocity": 98, "duration": 176}, {"note": 0, "velocity": 0, "duration": 64}, {"note": 77, "velocity": 92, "duration": 121}, {"note": 0, "velocity": 0, "duration": 119}, {"note": 79, "velocity": 97, "duration": 396}, {"note": 0, "velocity": 0, "duration": 84}, {"note": 84, "velocity": 97, "duration": 191}, {"note": 72, "velocity": 96, "duration": 141}, {"note": 0, "velocity": 0, "duration": 99}, {"note": 74, "velocity": 101, "duration": 402}, {"note": 0, "velocity": 0, "duration": 78}, {"note": 69, "velocity": 93, "duration": 163}, {"note": 0, "velocity": 0, "duration": 77}, {"note": 72, "velocity": 93, "duration": 131}, {"note": 0, "velocity": 0, "duration": 109}, {"note": 74, "velocity": 98, "duration": 189}, {"note": 77, "velocity": 95, "duration": 147}, {"note": 0, "velocity": 0, "duration": 93}, {"note": 77, "velocity": 97, "duration": 131}, {"note": 0, "velocity": 0, "duration": 109}, {"note": 74, "velocity": 98, "duration": 145}, {"note": 0, "velocity": 0, "duration": 95}, {"note": 72, "velocity": 100, "duration": 394}, {"note": 69, "velocity": 96, "duration": 205}, {"note": 67, "velocity": 97, "duration": 186}, {"note": 72, "velocity": 98, "duration": 388}, {"note": 0, "velocity": 0, "duration": 92}, {"note": 69, "velocity": 98, "duration": 954}, {"note": 0, "velocity": 0, "duration": 246}, {"note": 69, "velocity": 97, "duration": 190}, {"note": 72, "velocity": 98, "duration": 183}, {"note": 74, "velocity": 99, "duration": 391}, {"note": 0, "velocity": 0, "duration": 89}, {"note": 77, "velocity": 92, "duration": 181}, {"note": 74, "velocity": 99, "duration": 168}, {"note": 0, "velocity": 0, "duration": 72}, {"note": 77, "velocity": 92, "duration": 378}, {"note": 0, "velocity": 0, "duration": 102}, {"note": 74, "velocity": 103, "duration": 163}, {"note": 0, "velocity": 0, "duration": 77}, {"note": 77, "velocity": 99, "duration": 165}, {"note": 0, "velocity": 0, "duration": 75}, {"note": 79, "velocity": 97, "duration": 378}, {"note": 0, "velocity": 0, "duration": 102}, {"note": 84, "velocity": 98, "duration": 201}, {"note": 72, "velocity": 89, "duration": 163}, {"note": 0, "velocity": 0, "duration": 77}, {"note": 74, "velocity": 100, "duration": 347}, {"note": 0, "velocity": 0, "duration": 133}, {"note": 69, "velocity": 98, "duration": 154}, {"note": 0, "velocity": 0, "duration": 86}, {"note": 72, "velocity": 98, "duration": 152}, {"note": 0, "velocity": 0, "duration": 88}, {"note": 74, "velocity": 102, "duration": 593}, {"note": 0, "velocity": 0, "duration": 127}, {"note": 81, "velocity": 97, "duration": 162}, {"note": 0, "velocity": 0, "duration": 78}, {"note": 79, "velocity": 98, "duration": 156}, {"note": 0, "velocity": 0, "duration": 84}, {"note": 77, "velocity": 98, "duration": 182}, {"note": 76, "velocity": 103, "duration": 174}, {"note": 0, "velocity": 0, "duration": 66}, {"note": 77, "velocity": 96, "duration": 393}, {"note": 0, "velocity": 0, "duration": 87}, {"note": 74, "velocity": 99, "duration": 1117}, {"note": 0, "velocity": 0, "duration": 83}, {"note": 69, "velocity": 98, "duration": 150}, {"note": 0, "velocity": 0, "duration": 90}, {"note": 72, "velocity": 99, "duration": 147}, {"note": 0, "velocity": 0, "duration": 93}, {"note": 74, "velocity": 100, "duration": 322}, {"note": 77, "velocity": 93, "duration": 297}, {"note": 0, "velocity": 0, "duration": 183}, {"note": 74, "velocity": 98, "duration": 204}, {"note": 77, "velocity": 98, "duration": 341}, {"note": 0, "velocity": 0, "duration": 139}, {"note": 74, "velocity": 98, "duration": 176}, {"note": 0, "velocity": 0, "duration": 64}, {"note": 77, "velocity": 92, "duration": 121}, {"note": 0, "velocity": 0, "duration": 119}, {"note": 79, "velocity": 97, "duration": 396}, {"note": 0, "velocity": 0, "duration": 84}, {"note": 84, "velocity": 97, "duration": 191}, {"note": 72, "velocity": 96, "duration": 141}, {"note": 0, "velocity": 0, "duration": 99}, {"note": 74, "velocity": 101, "duration": 402}, {"note": 0, "velocity": 0, "duration": 78}, {"note": 69, "velocity": 93, "duration": 163}, {"note": 0, "velocity": 0, "duration": 77}, {"note": 72, "velocity": 93, "duration": 131}, {"note": 0, "velocity": 0, "duration": 109}, {"note": 74, "velocity": 98, "duration": 189}, {"note": 77, "velocity": 95, "duration": 147}, {"note": 0, "velocity": 0, "duration": 93}, {"note": 77, "velocity": 97, "duration": 131}, {"note": 0, "velocity": 0, "duration": 109}, {"note": 74, "velocity": 98, "duration": 145}, {"note": 0, "velocity": 0, "duration": 95}, {"note": 72, "velocity": 100, "duration": 394}, {"note": 69, "velocity": 96, "duration": 205}, {"note": 67, "velocity": 97, "duration": 186}, {"note": 72, "velocity": 98, "duration": 388}, {"note": 0, "velocity": 0, "duration": 92}, {"note": 69, "velocity": 98, "duration": 954}, {"note": 0, "velocity": 0, "duration": 246}, {"note": 69, "velocity": 97, "duration": 190}, {"note": 72, "velocity": 98, "duration": 183}, {"note": 74, "velocity": 99, "duration": 391}, {"note": 0, "velocity": 0, "duration": 89}, {"note": 77, "velocity": 92, "duration": 181}, {"note": 74, "velocity": 99, "duration": 168}, {"note": 0, "velocity": 0, "duration": 72}, {"note": 77, "velocity": 92, "duration": 378}, {"note": 0, "velocity": 0, "duration": 102}, {"note": 74, "velocity": 103, "duration": 163}, {"note": 0, "velocity": 0, "duration": 77}, {"note": 77, "velocity": 99, "duration": 165}, {"note": 0, "velocity": 0, "duration": 75}, {"note": 79, "velocity": 97, "duration": 378}, {"note": 0, "velocity": 0, "duration": 102}, {"note": 84, "velocity": 98, "duration": 201}, {"note": 72, "velocity": 89, "duration": 163}, {"note": 0, "velocity": 0, "duration": 77}, {"note": 74, "velocity": 100, "duration": 347}, {"note": 0, "velocity": 0, "duration": 133}, {"note": 69, "velocity": 98, "duration": 154}, {"note": 0, "velocity": 0, "duration": 86}, {"note": 72, "velocity": 98, "duration": 152}, {"note": 0, "velocity": 0, "duration": 88}, {"note": 74, "velocity": 102, "duration": 593}, {"note": 0, "velocity": 0, "duration": 127}, {"note": 81, "velocity": 97, "duration": 162}, {"note": 0, "velocity": 0, "duration": 78}, {"note": 79, "velocity": 98, "duration": 156}, {"note": 0, "velocity": 0, "duration": 84}, {"note": 77, "velocity": 98, "duration": 182}, {"note": 76, "velocity": 103, "duration": 174}, {"note": 0, "velocity": 0, "duration": 66}, {"note": 77, "velocity": 96, "duration": 393}, {"note": 0, "velocity": 0, "duration": 87}, {"note": 74, "velocity": 99, "duration": 1117}, {"note": 0, "velocity": 0, "duration": 114}, {"note": 69, "velocity": 101, "duration": 213}, {"note": 72, "velocity": 98, "duration": 236}, {"note": 0, "velocity": 0, "duration": 67}, {"note": 74, "velocity": 101, "duration": 752}, {"note": 81, "velocity": 102, "duration": 326}, {"note": 79, "velocity": 103, "duration": 400}, {"note": 77, "velocity": 99, "duration": 303}, {"note": 79, "velocity": 98, "duration": 465}, {"note": 81, "velocity": 93, "duration": 2275}, {"note": 0, "velocity": 0, "duration": 1207}, {"note": 72, "velocity": 100, "duration": 544}, {"note": 0, "velocity": 0, "duration": 95}, {"note": 74, "velocity": 104, "duration": 2205}]]