[[{"note": 72, "velocity": 90, "duration": 442}, {"note": 68, "velocity": 87, "duration": 359}, {"note": 0, "velocity": 0, "duration": 121}, {"note": 60, "velocity": 92, "duration": 157}, {"note": 0, "velocity": 0, "duration": 83}, {"note": 58, "velocity": 86, "duration": 89}, {"note": 60, "velocity": 87, "duration": 186}, {"note": 68, "velocity": 87, "duration": 295}, {"note": 0, "velocity": 0, "duration": 65}, {"note": 68, "velocity": 85, "duration": 79}, {"note": 67, "velocity": 88, "duration": 53}, {"note": 0, "velocity": 0, "duration": 67}, {"note": 68, "velocity": 82, "duration": 78}, {"note": 67, "velocity": 88, "duration": 64}, {"note": 68, "velocity": 87, "duration": 173}, {"note": 0, "velocity": 0, "duration": 67}, {"note": 70, "velocity": 87, "duration": 240}, {"note": 60, "velocity": 83, "duration": 593}, {"note": 0, "velocity": 0, "duration": 367}, {"note": 72, "velocity": 87, "duration": 461}, {"note": 68, "velocity": 78, "duration": 292}, {"note": 0, "velocity": 0, "duration": 68}, {"note": 60, "velocity": 83, "duration": 78}, {"note": 60, "velocity": 87, "duration": 206}, {"note": 58, "velocity": 87, "duration": 74}, {"note": 60, "velocity": 87, "duration": 268}, {"note": 68, "velocity": 86, "duration": 331}, {"note": 67, "velocity": 83, "duration": 890}, {"note": 0, "velocity": 0, "duration": 1030}, {"note": 72, "velocity": 84, "duration": 350}, {"note": 0, "velocity": 0, "duration": 130}, {"note": 68, "velocity": 84, "duration": 326}, {"note": 0, "velocity": 0, "duration": 154}, {"note": 60, "velocity": 88, "duration": 145}, {"note": 0, "velocity": 0, "duration": 95}, {"note": 58, "velocity": 85, "duration": 92}, {"note": 60, "velocity": 88, "duration": 164}, {"note": 0, "velocity": 0, "duration": 76}, {"note": 68, "velocity": 89, "duration": 306}, {"note": 68, "velocity": 82, "duration": 71}, {"note": 67, "velocity": 86, "duration": 66}, {"note": 68, "velocity": 84, "duration": 62}, {"note": 67, "velocity": 88, "duration": 65}, {"note": 68, "velocity": 84, "duration": 193}, {"note": 70, "velocity": 87, "duration": 214}, {"note": 60, "velocity": 88, "duration": 720}, {"note": 58, "velocity": 87, "duration": 73}, {"note": 60, "velocity": 82, "duration": 78}, {"note": 61, "velocity": 89, "duration": 313}, {"note": 68, "velocity": 85, "duration": 685}, {"note": 0, "velocity": 0, "duration": 395}, {"note": 70, "velocity": 87, "duration": 240}, {"note": 68, "velocity": 87, "duration": 260}, {"note": 67, "velocity": 86, "duration": 915}, {"note": 0, "velocity": 0, "duration": 885}, {"note": 63, "velocity": 88, "duration": 73}, {"note": 65, "velocity": 93, "duration": 73}, {"note": 63, "velocity": 88, "duration": 57}, {"note": 0, "velocity": 0, "duration": 63}, {"note": 65, "velocity": 90, "duration": 69}, {"note": 73, "velocity": 93, "duration": 797}, {"note": 0, "velocity": 0, "duration": 163}, {"note": 73, "velocity": 83, "duration": 78}, {"note": 73, "velocity": 87, "duration": 83}, {"note": 75, "velocity": 90, "duration": 92}, {"note": 73, "velocity": 89, "duration": 98}, {"note": 72, "velocity": 86, "duration": 72}, {"note": 72, "velocity": 95, "duration": 152}, {"note": 0, "velocity": 0, "duration": 88}, {"note": 65, "velocity": 87, "duration": 73}, {"note": 65, "velocity": 88, "duration": 804}, {"note": 0, "velocity": 0, "duration": 636}, {"note": 67, "velocity": 84, "duration": 56}, {"note": 0, "velocity": 0, "duration": 64}, {"note": 67, "velocity": 88, "duration": 183}, {"note": 70, "velocity": 84, "duration": 86}, {"note": 67, "velocity": 88, "duration": 222}, {"note": 63, "velocity": 87, "duration": 690}, {"note": 0, "velocity": 0, "duration": 150}, {"note": 63, "velocity": 86, "duration": 85}, {"note": 65, "velocity": 88, "duration": 73}, {"note": 67, "velocity": 87, "duration": 70}, {"note": 68, "velocity": 86, "duration": 75}, {"note": 67, "velocity": 87, "duration": 343}, {"note": 65, "velocity": 89, "duration": 617}, {"note": 0, "velocity": 0, "duration": 703}, {"note": 72, "velocity": 102, "duration": 179}, {"note": 0, "velocity": 0, "duration": 61}, {"note": 77, "velocity": 90, "duration": 184}, {"note": 79, "velocity": 91, "duration": 162}, {"note": 0, "velocity": 0, "duration": 78}, {"note": 75, "velocity": 93, "duration": 151}, {"note": 0, "velocity": 0, "duration": 89}, {"note": 77, "velocity": 91, "duration": 164}, {"note": 0, "velocity": 0, "duration": 76}, {"note": 72, "velocity": 89, "duration": 173}, {"note": 0, "velocity": 0, "duration": 67}, {"note": 73, "velocity": 81, "duration": 81}, {"note": 70, "velocity": 91, "duration": 330}, {"note": 0, "velocity": 0, "duration": 270}, {"note": 68, "velocity": 86, "duration": 88}, {"note": 67, "velocity": 87, "duration": 62}, {"note": 68, "velocity": 85, "duration": 57}, {"note": 0, "velocity": 0, "duration": 63}, {"note": 67, "velocity": 90, "duration": 69}, {"note": 68, "velocity": 87, "duration": 176}, {"note": 0, "velocity": 0, "duration": 64}, {"note": 73, "velocity": 87, "duration": 177}, {"note": 0, "velocity": 0, "duration": 63}, {"note": 72, "velocity": 88, "duration": 641}, {"note": 0, "velocity": 0, "duration": 79}, {"note": 72, "velocity": 95, "duration": 167}, {"note": 0, "velocity": 0, "duration": 73}, {"note": 79, "velocity": 91, "duration": 157}, {"note": 0, "velocity": 0, "duration": 83}, {"note": 80, "velocity": 88, "duration": 153}, {"note": 0, "velocity": 0, "duration": 87}, {"note": 75, "velocity": 95, "duration": 149}, {"note": 0, "velocity": 0, "duration": 91}, {"note": 77, "velocity": 89, "duration": 154}, {"note": 0, "velocity": 0, "duration": 86}, {"note": 72, "velocity": 90, "duration": 189}, {"note": 75, "velocity": 88, "duration": 91}, {"note": 70, "velocity": 90, "duration": 333}, {"note": 0, "velocity": 0, "duration": 267}, {"note": 68, "velocity": 82, "duration": 78}, {"note": 67, "velocity": 86, "duration": 62}, {"note": 68, "velocity": 85, "duration": 64}, {"note": 67, "velocity": 86, "duration": 67}, {"note": 68, "velocity": 86, "duration": 182}, {"note": 72, "velocity": 90, "duration": 229}, {"note": 67, "velocity": 84, "duration": 623}, {"note": 0, "velocity": 0, "duration": 97}, {"note": 65, "velocity": 90, "duration": 140}, {"note": 0, "velocity": 0, "duration": 100}, {"note": 65, "velocity": 93, "duration": 179}, {"note": 0, "velocity": 0, "duration": 61}, {"note": 73, "velocity": 88, "duration": 103}, {"note": 72, "velocity": 90, "duration": 278}, {"note": 0, "velocity": 0, "duration": 82}, {"note": 65, "velocity": 90, "duration": 73}, {"note": 63, "velocity": 88, "duration": 65}, {"note": 65, "velocity": 92, "duration": 163}, {"note": 0, "velocity": 0, "duration": 77}, {"note": 73, "velocity": 93, "duration": 138}, {"note": 72, "velocity": 87, "duration": 309}, {"note": 65, "velocity": 88, "duration": 67}, {"note": 63, "velocity": 88, "duration": 65}, {"note": 65, "velocity": 90, "duration": 168}, {"note": 0, "velocity": 0, "duration": 72}, {"note": 67, "velocity": 89, "duration": 100}, {"note": 68, "velocity": 81, "duration": 358}, {"note": 75, "velocity": 92, "duration": 243}, {"note": 72, "velocity": 86, "duration": 539}, {"note": 0, "velocity": 0, "duration": 181}, {"note": 72, "velocity": 93, "duration": 167}, {"note": 0, "velocity": 0, "duration": 73}, {"note": 77, "velocity": 92, "duration": 171}, {"note": 0, "velocity": 0, "duration": 69}, {"note": 79, "velocity": 88, "duration": 173}, {"note": 0, "velocity": 0, "duration": 67}, {"note": 75, "velocity": 93, "duration": 180}, {"note": 77, "velocity": 90, "duration": 179}, {"note": 0, "velocity": 0, "duration": 61}, {"note": 72, "velocity": 88, "duration": 181}, {"note": 73, "velocity": 87, "duration": 91}, {"note": 70, "velocity": 87, "duration": 211}, {"note": 72, "velocity": 87, "duration": 248}, {"note": 68, "velocity": 78, "duration": 586}, {"note": 0, "velocity": 0, "duration": 734}, {"note": 65, "velocity": 86, "duration": 100}, {"note": 63, "velocity": 87, "duration": 98}, {"note": 65, "velocity": 90, "duration": 295}, {"note": 0, "velocity": 0, "duration": 65}, {"note": 73, "velocity": 87, "duration": 324}, {"note": 72, "velocity": 86, "duration": 1633}, {"note": 0, "velocity": 0, "duration": 1967}, {"note": 72, "velocity": 90, "duration": 442}, {"note": 68, "velocity": 87, "duration": 359}, {"note": 0, "velocity": 0, "duration": 121}, {"note": 60, "velocity": 92, "duration": 157}, {"note": 0, "velocity": 0, "duration": 83}, {"note": 58, "velocity": 86, "duration": 89}, {"note": 60, "velocity": 87, "duration": 186}, {"note": 68, "velocity": 87, "duration": 295}, {"note": 0, "velocity": 0, "duration": 65}, {"note": 68, "velocity": 85, "duration": 79}, {"note": 67, "velocity": 88, "duration": 53}, {"note": 0, "velocity": 0, "duration": 67}, {"note": 68, "velocity": 82, "duration": 78}, {"note": 67, "velocity": 88, "duration": 64}, {"note": 68, "velocity": 87, "duration": 173}, {"note": 0, "velocity": 0, "duration": 67}, {"note": 70, "velocity": 87, "duration": 240}, {"note": 60, "velocity": 83, "duration": 593}, {"note": 0, "velocity": 0, "duration": 367}, {"note": 72, "velocity": 87, "duration": 461}, {"note": 68, "velocity": 78, "duration": 292}, {"note": 0, "velocity": 0, "duration": 68}, {"note": 60, "velocity": 83, "duration": 78}, {"note": 60, "velocity": 87, "duration": 206}, {"note": 58, "velocity": 87, "duration": 74}, {"note": 60, "velocity": 87, "duration": 268}, {"note": 68, "velocity": 86, "duration": 331}, {"note": 67, "velocity": 83, "duration": 890}, {"note": 0, "velocity": 0, "duration": 1030}, {"note": 72, "velocity": 84, "duration": 350}, {"note": 0, "velocity": 0, "duration": 130}, {"note": 68, "velocity": 84, "duration": 326}, {"note": 0, "velocity": 0, "duration": 154}, {"note": 60, "velocity": 88, "duration": 145}, {"note": 0, "velocity": 0, "duration": 95}, {"note": 58, "velocity": 85, "duration": 92}, {"note": 60, "velocity": 88, "duration": 164}, {"note": 0, "velocity": 0, "duration": 76}, {"note": 68, "velocity": 89, "duration": 306}, {"note": 68, "velocity": 82, "duration": 71}, {"note": 67, "velocity": 86, "duration": 66}, {"note": 68, "velocity": 84, "duration": 62}, {"note": 67, "velocity": 88, "duration": 65}, {"note": 68, "velocity": 84, "duration": 193}, {"note": 70, "velocity": 87, "duration": 214}, {"note": 60, "velocity": 88, "duration": 720}, {"note": 58, "velocity": 87, "duration": 73}, {"note": 60, "velocity": 82, "duration": 78}, {"note": 61, "velocity": 89, "duration": 313}, {"note": 68, "velocity": 85, "duration": 685}, {"note": 0, "velocity": 0, "duration": 395}, {"note": 70, "velocity": 87, "duration": 240}, {"note": 68, "velocity": 87, "duration": 260}, {"note": 67, "velocity": 86, "duration": 915}, {"note": 0, "velocity": 0, "duration": 885}, {"note": 63, "velocity": 88, "duration": 73}, {"note": 65, "velocity": 93, "duration": 73}, {"note": 63, "velocity": 88, "duration": 57}, {"note": 0, "velocity": 0, "duration": 63}, {"note": 65, "velocity": 90, "duration": 69}, {"note": 73, "velocity": 93, "duration": 797}, {"note": 0, "velocity": 0, "duration": 163}, {"note": 73, "velocity": 83, "duration": 78}, {"note": 73, "velocity": 87, "duration": 83}, {"note": 75, "velocity": 90, "duration": 92}, {"note": 73, "velocity": 89, "duration": 98}, {"note": 72, "velocity": 86, "duration": 72}, {"note": 72, "velocity": 95, "duration": 152}, {"note": 0, "velocity": 0, "duration": 88}, {"note": 65, "velocity": 87, "duration": 73}, {"note": 65, "velocity": 88, "duration": 804}, {"note": 0, "velocity": 0, "duration": 636}, {"note": 67, "velocity": 84, "duration": 56}, {"note": 0, "velocity": 0, "duration": 64}, {"note": 67, "velocity": 88, "duration": 183}, {"note": 70, "velocity": 84, "duration": 86}, {"note": 67, "velocity": 88, "duration": 222}, {"note": 63, "velocity": 87, "duration": 690}, {"note": 0, "velocity": 0, "duration": 150}, {"note": 63, "velocity": 86, "duration": 85}, {"note": 65, "velocity": 88, "duration": 73}, {"note": 67, "velocity": 87, "duration": 70}, {"note": 68, "velocity": 86, "duration": 75}, {"note": 67, "velocity": 87, "duration": 343}, {"note": 65, "velocity": 89, "duration": 617}, {"note": 0, "velocity": 0, "duration": 1663}, {"note": 72, "velocity": 102, "duration": 179}, {"note": 0, "velocity": 0, "duration": 61}, {"note": 77, "velocity": 90, "duration": 184}, {"note": 79, "velocity": 91, "duration": 162}, {"note": 0, "velocity": 0, "duration": 78}, {"note": 75, "velocity": 93, "duration": 151}, {"note": 0, "velocity": 0, "duration": 89}, {"note": 77, "velocity": 91, "duration": 164}, {"note": 0, "velocity": 0, "duration": 76}, {"note": 72, "velocity": 89, "duration": 173}, {"note": 0, "velocity": 0, "duration": 67}, {"note": 73, "velocity": 81, "duration": 81}, {"note": 70, "velocity": 91, "duration": 330}, {"note": 0, "velocity": 0, "duration": 270}, {"note": 68, "velocity": 86, "duration": 88}, {"note": 67, "velocity": 87, "duration": 62}, {"note": 68, "velocity": 85, "duration": 57}, {"note": 0, "velocity": 0, "duration": 63}, {"note": 67, "velocity": 90, "duration": 69}, {"note": 68, "velocity": 87, "duration": 176}, {"note": 0, "velocity": 0, "duration": 64}, {"note": 73, "velocity": 87, "duration": 177}, {"note": 0, "velocity": 0, "duration": 63}, {"note": 72, "velocity": 88, "duration": 641}, {"note": 0, "velocity": 0, "duration": 79}, {"note": 72, "velocity": 95, "duration": 167}, {"note": 0, "velocity": 0, "duration": 73}, {"note": 79, "velocity": 91, "duration": 157}, {"note": 0, "velocity": 0, "duration": 83}, {"note": 80, "velocity": 88, "duration": 153}, {"note": 0, "velocity": 0, "duration": 87}, {"note": 75, "velocity": 95, "duration": 149}, {"note": 0, "velocity": 0, "duration": 91}, {"note": 77, "velocity": 89, "duration": 154}, {"note": 0, "velocity": 0, "duration": 86}, {"note": 72, "velocity": 90, "duration": 189}, {"note": 75, "velocity": 88, "duration": 91}, {"note": 70, "velocity": 90, "duration": 333}, {"note": 0, "velocity": 0, "duration": 267}, {"note": 68, "velocity": 82, "duration": 78}, {"note": 67, "velocity": 86, "duration": 62}, {"note": 68, "velocity": 85, "duration": 64}, {"note": 67, "velocity": 86, "duration": 67}, {"note": 68, "velocity": 86, "duration": 182}, {"note": 72, "velocity": 90, "duration": 229}, {"note": 67, "velocity": 84, "duration": 623}, {"note": 0, "velocity": 0, "duration": 97}, {"note": 65, "velocity": 90, "duration": 140}, {"note": 0, "velocity": 0, "duration": 100}, {"note": 65, "velocity": 93, "duration": 179}, {"note": 0, "velocity": 0, "duration": 61}, {"note": 73, "velocity": 88, "duration": 103}, {"note": 72, "velocity": 90, "duration": 278}, {"note": 0, "velocity": 0, "duration": 82}, {"note": 65, "velocity": 90, "duration": 73}, {"note": 63, "velocity": 88, "duration": 65}, {"note": 65, "velocity": 92, "duration": 163}, {"note": 0, "velocity": 0, "duration": 77}, {"note": 73, "velocity": 93, "duration": 138}, {"note": 72, "velocity": 87, "duration": 309}, {"note": 65, "velocity": 88, "duration": 67}, {"note": 63, "velocity": 88, "duration": 65}, {"note": 65, "velocity": 90, "duration": 168}, {"note": 0, "velocity": 0, "duration": 72}, {"note": 67, "velocity": 89, "duration": 100}, {"note": 68, "velocity": 81, "duration": 358}, {"note": 75, "velocity": 92, "duration": 243}, {"note": 72, "velocity": 86, "duration": 539}, {"note": 0, "velocity": 0, "duration": 181}, {"note": 72, "velocity": 93, "duration": 167}, {"note": 0, "velocity": 0, "duration": 73}, {"note": 77, "velocity": 92, "duration": 171}, {"note": 0, "velocity": 0, "duration": 69}, {"note": 79, "velocity": 88, "duration": 173}, {"note": 0, "velocity": 0, "duration": 67}, {"note": 75, "velocity": 93, "duration": 180}, {"note": 77, "velocity": 90, "duration": 179}, {"note": 0, "velocity": 0, "duration": 61}, {"note": 72, "velocity": 88, "duration": 181}, {"note": 73, "velocity": 87, "duration": 91}, {"note": 70, "velocity": 87, "duration": 211}, {"note": 72, "velocity": 87, "duration": 248}, {"note": 68, "velocity": 78, "duration": 586}, {"note": 0, "velocity": 0, "duration": 734}, {"note": 65, "velocity": 86, "duration": 100}, {"note": 63, "velocity": 87, "duration": 98}, {"note": 65, "velocity": 90, "duration": 295}, {"note": 0, "velocity": 0, "duration": 65}, {"note": 73, "velocity": 87, "duration": 324}, {"note": 72, "velocity": 86, "duration": 1633}, {"note": 67, "velocity": 90, "duration": 1324}, {"note": 0, "velocity": 0, "duration": 116}, {"note": 72, "velocity": 90, "duration": 438}, {"note": 65, "velocity": 91, "duration": 1445}, {"note": 0, "velocity": 0, "duration": 2155}, {"note": 72, "velocity": 102, "duration": 179}, {"note": 0, "velocity": 0, "duration": 61}, {"note": 77, "velocity": 90, "duration": 184}, {"note": 79, "velocity": 91, "duration": 162}, {"note": 0, "velocity": 0, "duration": 78}, {"note": 75, "velocity": 93, "duration": 151}, {"note": 0, "velocity": 0, "duration": 89}, {"note": 77, "velocity": 91, "duration": 164}, {"note": 0, "velocity": 0, "duration": 76}, {"note": 72, "velocity": 89, "duration": 173}, {"note": 0, "velocity": 0, "duration": 67}, {"note": 73, "velocity": 81, "duration": 81}, {"note": 70, "velocity": 91, "duration": 330}, {"note": 0, "velocity": 0, "duration": 270}, {"note": 68, "velocity": 86, "duration": 88}, {"note": 67, "velocity": 87, "duration": 62}, {"note": 68, "velocity": 85, "duration": 57}, {"note": 0, "velocity": 0, "duration": 63}, {"note": 67, "velocity": 90, "duration": 69}, {"note": 68, "velocity": 87, "duration": 176}, {"note": 0, "velocity": 0, "duration": 64}, {"note": 73, "velocity": 87, "duration": 177}, {"note": 0, "velocity": 0, "duration": 63}, {"note": 72, "velocity": 88, "duration": 641}, {"note": 0, "velocity": 0, "duration": 79}, {"note": 72, "velocity": 95, "duration": 167}, {"note": 0, "velocity": 0, "duration": 73}, {"note": 79, "velocity": 91, "duration": 157}, {"note": 0, "velocity": 0, "duration": 83}, {"note": 80, "velocity": 88, "duration": 153}, {"note": 0, "velocity": 0, "duration": 87}, {"note": 75, "velocity": 95, "duration": 149}, {"note": 0, "velocity": 0, "duration": 91}, {"note": 77, "velocity": 89, "duration": 154}, {"note": 0, "velocity": 0, "duration": 86}, {"note": 72, "velocity": 90, "duration": 189}, {"note": 75, "velocity": 88, "duration": 91}, {"note": 70, "velocity": 90, "duration": 333}, {"note": 0, "velocity": 0, "duration": 267}, {"note": 68, "velocity": 82, "duration": 78}, {"note": 67, "velocity": 86, "duration": 62}, {"note": 68, "velocity": 85, "duration": 64}, {"note": 67, "velocity": 86, "duration": 67}, {"note": 68, "velocity": 86, "duration": 182}, {"note": 72, "velocity": 90, "duration": 229}, {"note": 67, "velocity": 84, "duration": 623}, {"note": 0, "velocity": 0, "duration": 97}, {"note": 65, "velocity": 90, "duration": 140}, {"note": 0, "velocity": 0, "duration": 100}, {"note": 65, "velocity": 93, "duration": 179}, {"note": 0, "velocity": 0, "duration": 61}, {"note": 73, "velocity": 88, "duration": 103}, {"note": 72, "velocity": 90, "duration": 278}, {"note": 0, "velocity": 0, "duration": 82}, {"note": 65, "velocity": 90, "duration": 73}, {"note": 63, "velocity": 88, "duration": 65}, {"note": 65, "velocity": 92, "duration": 163}, {"note": 0, "velocity": 0, "duration": 77}, {"note": 73, "velocity": 93, "duration": 138}, {"note": 72, "velocity": 87, "duration": 309}, {"note": 65, "velocity": 88, "duration": 67}, {"note": 63, "velocity": 88, "duration": 65}, {"note": 65, "velocity": 90, "duration": 168}, {"note": 0, "velocity": 0, "duration": 72}, {"note": 67, "velocity": 89, "duration": 100}, {"note": 68, "velocity": 81, "duration": 358}, {"note": 75, "velocity": 92, "duration": 243}, {"note": 72, "velocity": 86, "duration": 539}, {"note": 0, "velocity": 0, "duration": 181}, {"note": 72, "velocity": 93, "duration": 167}, {"note": 0, "velocity": 0, "duration": 73}, {"note": 77, "velocity": 92, "duration": 171}, {"note": 0, "velocity": 0, "duration": 69}, {"note": 79, "velocity": 88, "duration": 173}, {"note": 0, "velocity": 0, "duration": 67}, {"note": 75, "velocity": 93, "duration": 180}, {"note": 77, "velocity": 90, "duration": 179}, {"note": 0, "velocity": 0, "duration": 61}, {"note": 72, "velocity": 88, "duration": 181}, {"note": 73, "velocity": 87, "duration": 91}, {"note": 70, "velocity": 87, "duration": 211}, {"note": 72, "velocity": 87, "duration": 248}, {"note": 68, "velocity": 78, "duration": 586}, {"note": 0, "velocity": 0, "duration": 734}, {"note": 65, "velocity": 86, "duration": 100}, {"note": 63, "velocity": 87, "duration": 98}, {"note": 65, "velocity": 90, "duration": 295}, {"note": 0, "velocity": 0, "duration": 65}, {"note": 73, "velocity": 87, "duration": 324}, {"note": 72, "velocity": 86, "duration": 1633}, {"note": 0, "velocity": 0, "duration": 2927}, {"note": 72, "velocity": 87, "duration": 407}, {"note": 0, "velocity": 0, "duration": 73}, {"note": 68, "velocity": 87, "duration": 341}, {"note": 0, "velocity": 0, "duration": 139}, {"note": 60, "velocity": 90, "duration": 177}, {"note": 0, "velocity": 0, "duration": 63}, {"note": 58, "velocity": 82, "duration": 90}, {"note": 60, "velocity": 85, "duration": 197}, {"note": 68, "velocity": 84, "duration": 316}, {"note": 0, "velocity": 0, "duration": 97}, {"note": 68, "velocity": 82, "duration": 116}, {"note": 67, "velocity": 87, "duration": 96}, {"note": 68, "velocity": 79, "duration": 98}, {"note": 67, "velocity": 77, "duration": 106}, {"note": 0, "velocity": 0, "duration": 70}, {"note": 68, "velocity": 82, "duration": 278}, {"note": 70, "velocity": 80, "duration": 607}, {"note": 72, "velocity": 77, "duration": 869}]]