[[{"note": 70, "velocity": 85, "duration": 191}, {"note": 70, "velocity": 95, "duration": 156}, {"note": 0, "velocity": 0, "duration": 84}, {"note": 70, "velocity": 93, "duration": 171}, {"note": 0, "velocity": 0, "duration": 69}, {"note": 66, "velocity": 92, "duration": 158}, {"note": 0, "velocity": 0, "duration": 82}, {"note": 66, "velocity": 95, "duration": 194}, {"note": 61, "velocity": 96, "duration": 184}, {"note": 68, "velocity": 94, "duration": 244}, {"note": 66, "velocity": 94, "duration": 214}, {"note": 65, "velocity": 93, "duration": 201}, {"note": 66, "velocity": 88, "duration": 544}, {"note": 0, "velocity": 0, "duration": 416}, {"note": 63, "velocity": 95, "duration": 186}, {"note": 70, "velocity": 92, "duration": 385}, {"note": 0, "velocity": 0, "duration": 95}, {"note": 71, "velocity": 94, "duration": 164}, {"note": 0, "velocity": 0, "duration": 76}, {"note": 70, "velocity": 95, "duration": 412}, {"note": 0, "velocity": 0, "duration": 68}, {"note": 66, "velocity": 95, "duration": 424}, {"note": 66, "velocity": 91, "duration": 159}, {"note": 0, "velocity": 0, "duration": 81}, {"note": 66, "velocity": 97, "duration": 268}, {"note": 68, "velocity": 98, "duration": 224}, {"note": 70, "velocity": 94, "duration": 244}, {"note": 68, "velocity": 97, "duration": 720}, {"note": 65, "velocity": 96, "duration": 201}, {"note": 63, "velocity": 98, "duration": 124}, {"note": 0, "velocity": 0, "duration": 116}, {"note": 61, "velocity": 93, "duration": 536}, {"note": 0, "velocity": 0, "duration": 184}, {"note": 73, "velocity": 88, "duration": 392}, {"note": 0, "velocity": 0, "duration": 88}, {"note": 71, "velocity": 93, "duration": 164}, {"note": 0, "velocity": 0, "duration": 76}, {"note": 70, "velocity": 94, "duration": 194}, {"note": 68, "velocity": 93, "duration": 185}, {"note": 68, "velocity": 93, "duration": 178}, {"note": 0, "velocity": 0, "duration": 62}, {"note": 66, "velocity": 93, "duration": 220}, {"note": 65, "velocity": 88, "duration": 171}, {"note": 0, "velocity": 0, "duration": 69}, {"note": 66, "velocity": 92, "duration": 624}, {"note": 0, "velocity": 0, "duration": 96}, {"note": 68, "velocity": 84, "duration": 159}, {"note": 0, "velocity": 0, "duration": 81}, {"note": 70, "velocity": 96, "duration": 160}, {"note": 0, "velocity": 0, "duration": 80}, {"note": 71, "velocity": 94, "duration": 394}, {"note": 0, "velocity": 0, "duration": 86}, {"note": 70, "velocity": 89, "duration": 154}, {"note": 0, "velocity": 0, "duration": 86}, {"note": 66, "velocity": 92, "duration": 454}, {"note": 63, "velocity": 97, "duration": 481}, {"note": 70, "velocity": 94, "duration": 389}, {"note": 0, "velocity": 0, "duration": 91}, {"note": 68, "velocity": 94, "duration": 1489}, {"note": 0, "velocity": 0, "duration": 671}, {"note": 70, "velocity": 85, "duration": 191}, {"note": 70, "velocity": 95, "duration": 156}, {"note": 0, "velocity": 0, "duration": 84}, {"note": 70, "velocity": 93, "duration": 171}, {"note": 0, "velocity": 0, "duration": 69}, {"note": 66, "velocity": 92, "duration": 158}, {"note": 0, "velocity": 0, "duration": 82}, {"note": 66, "velocity": 95, "duration": 194}, {"note": 61, "velocity": 96, "duration": 184}, {"note": 68, "velocity": 94, "duration": 244}, {"note": 66, "velocity": 94, "duration": 214}, {"note": 65, "velocity": 93, "duration": 201}, {"note": 66, "velocity": 88, "duration": 544}, {"note": 0, "velocity": 0, "duration": 416}, {"note": 63, "velocity": 95, "duration": 186}, {"note": 70, "velocity": 92, "duration": 385}, {"note": 0, "velocity": 0, "duration": 95}, {"note": 71, "velocity": 94, "duration": 164}, {"note": 0, "velocity": 0, "duration": 76}, {"note": 70, "velocity": 95, "duration": 412}, {"note": 0, "velocity": 0, "duration": 68}, {"note": 66, "velocity": 95, "duration": 424}, {"note": 66, "velocity": 91, "duration": 159}, {"note": 0, "velocity": 0, "duration": 81}, {"note": 66, "velocity": 97, "duration": 268}, {"note": 68, "velocity": 98, "duration": 224}, {"note": 70, "velocity": 94, "duration": 244}, {"note": 68, "velocity": 97, "duration": 720}, {"note": 65, "velocity": 96, "duration": 201}, {"note": 63, "velocity": 98, "duration": 124}, {"note": 0, "velocity": 0, "duration": 116}, {"note": 61, "velocity": 93, "duration": 536}, {"note": 0, "velocity": 0, "duration": 184}, {"note": 73, "velocity": 88, "duration": 392}, {"note": 0, "velocity": 0, "duration": 88}, {"note": 71, "velocity": 93, "duration": 164}, {"note": 0, "velocity": 0, "duration": 76}, {"note": 70, "velocity": 94, "duration": 194}, {"note": 68, "velocity": 93, "duration": 185}, {"note": 68, "velocity": 93, "duration": 178}, {"note": 0, "velocity": 0, "duration": 62}, {"note": 66, "velocity": 93, "duration": 220}, {"note": 65, "velocity": 88, "duration": 171}, {"note": 0, "velocity": 0, "duration": 69}, {"note": 66, "velocity": 92, "duration": 624}, {"note": 0, "velocity": 0, "duration": 96}, {"note": 68, "velocity": 84, "duration": 159}, {"note": 0, "velocity": 0, "duration": 81}, {"note": 70, "velocity": 96, "duration": 160}, {"note": 0, "velocity": 0, "duration": 80}, {"note": 71, "velocity": 94, "duration": 394}, {"note": 0, "velocity": 0, "duration": 86}, {"note": 70, "velocity": 89, "duration": 154}, {"note": 0, "velocity": 0, "duration": 86}, {"note": 66, "velocity": 92, "duration": 454}, {"note": 68, "velocity": 96, "duration": 177}, {"note": 0, "velocity": 0, "duration": 63}, {"note": 70, "velocity": 95, "duration": 188}, {"note": 71, "velocity": 93, "duration": 426}, {"note": 70, "velocity": 93, "duration": 423}, {"note": 68, "velocity": 92, "duration": 448}, {"note": 66, "velocity": 95, "duration": 168}, {"note": 0, "velocity": 0, "duration": 72}, {"note": 68, "velocity": 94, "duration": 181}, {"note": 68, "velocity": 93, "duration": 1233}, {"note": 0, "velocity": 0, "duration": 207}, {"note": 61, "velocity": 94, "duration": 184}, {"note": 68, "velocity": 93, "duration": 177}, {"note": 0, "velocity": 0, "duration": 63}, {"note": 70, "velocity": 89, "duration": 163}, {"note": 0, "velocity": 0, "duration": 77}, {"note": 70, "velocity": 96, "duration": 833}, {"note": 0, "velocity": 0, "duration": 127}, {"note": 66, "velocity": 93, "duration": 177}, {"note": 0, "velocity": 0, "duration": 63}, {"note": 68, "velocity": 95, "duration": 165}, {"note": 0, "velocity": 0, "duration": 75}, {"note": 70, "velocity": 93, "duration": 168}, {"note": 0, "velocity": 0, "duration": 72}, {"note": 75, "velocity": 94, "duration": 140}, {"note": 0, "velocity": 0, "duration": 100}, {"note": 75, "velocity": 94, "duration": 344}, {"note": 0, "velocity": 0, "duration": 136}, {"note": 73, "velocity": 97, "duration": 210}, {"note": 68, "velocity": 97, "duration": 351}, {"note": 0, "velocity": 0, "duration": 129}, {"note": 61, "velocity": 97, "duration": 175}, {"note": 0, "velocity": 0, "duration": 65}, {"note": 68, "velocity": 92, "duration": 159}, {"note": 0, "velocity": 0, "duration": 81}, {"note": 70, "velocity": 94, "duration": 224}, {"note": 70, "velocity": 88, "duration": 820}, {"note": 0, "velocity": 0, "duration": 140}, {"note": 66, "velocity": 94, "duration": 203}, {"note": 68, "velocity": 97, "duration": 168}, {"note": 0, "velocity": 0, "duration": 72}, {"note": 70, "velocity": 93, "duration": 171}, {"note": 0, "velocity": 0, "duration": 69}, {"note": 78, "velocity": 94, "duration": 217}, {"note": 77, "velocity": 94, "duration": 353}, {"note": 0, "velocity": 0, "duration": 127}, {"note": 78, "velocity": 89, "duration": 157}, {"note": 0, "velocity": 0, "duration": 83}, {"note": 77, "velocity": 97, "duration": 389}, {"note": 0, "velocity": 0, "duration": 91}, {"note": 73, "velocity": 98, "duration": 360}, {"note": 0, "velocity": 0, "duration": 120}, {"note": 66, "velocity": 94, "duration": 168}, {"note": 0, "velocity": 0, "duration": 72}, {"note": 75, "velocity": 95, "duration": 507}, {"note": 0, "velocity": 0, "duration": 213}, {"note": 66, "velocity": 88, "duration": 198}, {"note": 65, "velocity": 93, "duration": 167}, {"note": 0, "velocity": 0, "duration": 73}, {"note": 66, "velocity": 89, "duration": 172}, {"note": 0, "velocity": 0, "duration": 68}, {"note": 68, "velocity": 93, "duration": 170}, {"note": 0, "velocity": 0, "duration": 70}, {"note": 75, "velocity": 95, "duration": 196}, {"note": 73, "velocity": 99, "duration": 327}, {"note": 0, "velocity": 0, "duration": 153}, {"note": 70, "velocity": 99, "duration": 449}, {"note": 66, "velocity": 94, "duration": 454}, {"note": 63, "velocity": 98, "duration": 177}, {"note": 0, "velocity": 0, "duration": 63}, {"note": 71, "velocity": 95, "duration": 734}, {"note": 0, "velocity": 0, "duration": 226}, {"note": 63, "velocity": 100, "duration": 177}, {"note": 0, "velocity": 0, "duration": 63}, {"note": 73, "velocity": 97, "duration": 168}, {"note": 0, "velocity": 0, "duration": 72}, {"note": 71, "velocity": 93, "duration": 161}, {"note": 0, "velocity": 0, "duration": 79}, {"note": 70, "velocity": 93, "duration": 152}, {"note": 0, "velocity": 0, "duration": 88}, {"note": 70, "velocity": 94, "duration": 397}, {"note": 0, "velocity": 0, "duration": 83}, {"note": 71, "velocity": 93, "duration": 129}, {"note": 0, "velocity": 0, "duration": 111}, {"note": 70, "velocity": 91, "duration": 184}, {"note": 68, "velocity": 99, "duration": 411}, {"note": 0, "velocity": 0, "duration": 69}, {"note": 61, "velocity": 94, "duration": 184}, {"note": 68, "velocity": 93, "duration": 177}, {"note": 0, "velocity": 0, "duration": 63}, {"note": 70, "velocity": 89, "duration": 163}, {"note": 0, "velocity": 0, "duration": 77}, {"note": 70, "velocity": 96, "duration": 833}, {"note": 0, "velocity": 0, "duration": 127}, {"note": 66, "velocity": 93, "duration": 177}, {"note": 0, "velocity": 0, "duration": 63}, {"note": 68, "velocity": 95, "duration": 165}, {"note": 0, "velocity": 0, "duration": 75}, {"note": 70, "velocity": 93, "duration": 168}, {"note": 0, "velocity": 0, "duration": 72}, {"note": 75, "velocity": 94, "duration": 140}, {"note": 0, "velocity": 0, "duration": 100}, {"note": 75, "velocity": 94, "duration": 344}, {"note": 0, "velocity": 0, "duration": 136}, {"note": 73, "velocity": 97, "duration": 210}, {"note": 68, "velocity": 97, "duration": 351}, {"note": 0, "velocity": 0, "duration": 129}, {"note": 61, "velocity": 97, "duration": 175}, {"note": 0, "velocity": 0, "duration": 65}, {"note": 68, "velocity": 92, "duration": 159}, {"note": 0, "velocity": 0, "duration": 81}, {"note": 70, "velocity": 94, "duration": 224}, {"note": 70, "velocity": 88, "duration": 820}, {"note": 0, "velocity": 0, "duration": 140}, {"note": 66, "velocity": 94, "duration": 203}, {"note": 68, "velocity": 97, "duration": 168}, {"note": 0, "velocity": 0, "duration": 72}, {"note": 70, "velocity": 93, "duration": 171}, {"note": 0, "velocity": 0, "duration": 69}, {"note": 78, "velocity": 94, "duration": 217}, {"note": 77, "velocity": 94, "duration": 353}, {"note": 0, "velocity": 0, "duration": 127}, {"note": 78, "velocity": 89, "duration": 157}, {"note": 0, "velocity": 0, "duration": 83}, {"note": 77, "velocity": 97, "duration": 389}, {"note": 0, "velocity": 0, "duration": 91}, {"note": 73, "velocity": 98, "duration": 360}, {"note": 0, "velocity": 0, "duration": 120}, {"note": 66, "velocity": 94, "duration": 168}, {"note": 0, "velocity": 0, "duration": 72}, {"note": 75, "velocity": 95, "duration": 507}, {"note": 0, "velocity": 0, "duration": 213}, {"note": 66, "velocity": 88, "duration": 198}, {"note": 65, "velocity": 93, "duration": 167}, {"note": 0, "velocity": 0, "duration": 73}, {"note": 66, "velocity": 89, "duration": 172}, {"note": 0, "velocity": 0, "duration": 68}, {"note": 68, "velocity": 93, "duration": 170}, {"note": 0, "velocity": 0, "duration": 70}, {"note": 75, "velocity": 95, "duration": 196}, {"note": 73, "velocity": 99, "duration": 327}, {"note": 0, "velocity": 0, "duration": 153}, {"note": 70, "velocity": 99, "duration": 240}, {"note": 78, "velocity": 94, "duration": 454}, {"note": 66, "velocity": 97, "duration": 104}, {"note": 0, "velocity": 0, "duration": 136}, {"note": 68, "velocity": 93, "duration": 172}, {"note": 0, "velocity": 0, "duration": 68}, {"note": 70, "velocity": 93, "duration": 175}, {"note": 0, "velocity": 0, "duration": 65}, {"note": 71, "velocity": 94, "duration": 991}, {"note": 0, "velocity": 0, "duration": 209}, {"note": 73, "velocity": 99, "duration": 240}, {"note": 71, "velocity": 94, "duration": 231}, {"note": 70, "velocity": 89, "duration": 240}, {"note": 70, "velocity": 91, "duration": 249}, {"note": 68, "velocity": 89, "duration": 689}, {"note": 0, "velocity": 0, "duration": 271}, {"note": 66, "velocity": 94, "duration": 182}, {"note": 68, "velocity": 94, "duration": 203}, {"note": 70, "velocity": 94, "duration": 2082}, {"note": 0, "velocity": 0, "duration": 13998}, {"note": 70, "velocity": 85, "duration": 191}, {"note": 70, "velocity": 95, "duration": 156}, {"note": 0, "velocity": 0, "duration": 84}, {"note": 70, "velocity": 93, "duration": 171}, {"note": 0, "velocity": 0, "duration": 69}, {"note": 66, "velocity": 92, "duration": 158}, {"note": 0, "velocity": 0, "duration": 82}, {"note": 66, "velocity": 95, "duration": 194}, {"note": 61, "velocity": 96, "duration": 184}, {"note": 68, "velocity": 94, "duration": 244}, {"note": 66, "velocity": 94, "duration": 214}, {"note": 65, "velocity": 93, "duration": 201}, {"note": 66, "velocity": 88, "duration": 544}, {"note": 0, "velocity": 0, "duration": 416}, {"note": 63, "velocity": 95, "duration": 186}, {"note": 70, "velocity": 92, "duration": 385}, {"note": 0, "velocity": 0, "duration": 95}, {"note": 71, "velocity": 94, "duration": 164}, {"note": 0, "velocity": 0, "duration": 76}, {"note": 70, "velocity": 95, "duration": 412}, {"note": 0, "velocity": 0, "duration": 68}, {"note": 66, "velocity": 95, "duration": 424}, {"note": 66, "velocity": 91, "duration": 159}, {"note": 0, "velocity": 0, "duration": 81}, {"note": 66, "velocity": 97, "duration": 268}, {"note": 68, "velocity": 98, "duration": 224}, {"note": 70, "velocity": 94, "duration": 244}, {"note": 68, "velocity": 97, "duration": 720}, {"note": 65, "velocity": 96, "duration": 201}, {"note": 63, "velocity": 98, "duration": 124}, {"note": 0, "velocity": 0, "duration": 116}, {"note": 61, "velocity": 93, "duration": 536}, {"note": 0, "velocity": 0, "duration": 184}, {"note": 73, "velocity": 88, "duration": 392}, {"note": 0, "velocity": 0, "duration": 88}, {"note": 71, "velocity": 93, "duration": 164}, {"note": 0, "velocity": 0, "duration": 76}, {"note": 70, "velocity": 94, "duration": 194}, {"note": 68, "velocity": 93, "duration": 185}, {"note": 68, "velocity": 93, "duration": 178}, {"note": 0, "velocity": 0, "duration": 62}, {"note": 66, "velocity": 93, "duration": 220}, {"note": 65, "velocity": 88, "duration": 171}, {"note": 0, "velocity": 0, "duration": 69}, {"note": 66, "velocity": 92, "duration": 624}, {"note": 0, "velocity": 0, "duration": 96}, {"note": 68, "velocity": 84, "duration": 159}, {"note": 0, "velocity": 0, "duration": 81}, {"note": 70, "velocity": 96, "duration": 160}, {"note": 0, "velocity": 0, "duration": 80}, {"note": 71, "velocity": 94, "duration": 394}, {"note": 0, "velocity": 0, "duration": 86}, {"note": 70, "velocity": 89, "duration": 154}, {"note": 0, "velocity": 0, "duration": 86}, {"note": 66, "velocity": 92, "duration": 454}, {"note": 68, "velocity": 96, "duration": 177}, {"note": 0, "velocity": 0, "duration": 63}, {"note": 70, "velocity": 95, "duration": 188}, {"note": 71, "velocity": 93, "duration": 426}, {"note": 70, "velocity": 93, "duration": 423}, {"note": 68, "velocity": 92, "duration": 448}, {"note": 66, "velocity": 95, "duration": 168}, {"note": 0, "velocity": 0, "duration": 72}, {"note": 68, "velocity": 94, "duration": 181}, {"note": 68, "velocity": 93, "duration": 1233}, {"note": 0, "velocity": 0, "duration": 207}, {"note": 61, "velocity": 94, "duration": 184}, {"note": 68, "velocity": 93, "duration": 177}, {"note": 0, "velocity": 0, "duration": 63}, {"note": 70, "velocity": 89, "duration": 163}, {"note": 0, "velocity": 0, "duration": 77}, {"note": 70, "velocity": 96, "duration": 833}, {"note": 0, "velocity": 0, "duration": 127}, {"note": 66, "velocity": 93, "duration": 177}, {"note": 0, "velocity": 0, "duration": 63}, {"note": 68, "velocity": 95, "duration": 165}, {"note": 0, "velocity": 0, "duration": 75}, {"note": 70, "velocity": 93, "duration": 168}, {"note": 0, "velocity": 0, "duration": 72}, {"note": 75, "velocity": 94, "duration": 140}, {"note": 0, "velocity": 0, "duration": 100}, {"note": 75, "velocity": 94, "duration": 344}, {"note": 0, "velocity": 0, "duration": 136}, {"note": 73, "velocity": 97, "duration": 210}, {"note": 68, "velocity": 97, "duration": 351}, {"note": 0, "velocity": 0, "duration": 129}, {"note": 61, "velocity": 97, "duration": 175}, {"note": 0, "velocity": 0, "duration": 65}, {"note": 68, "velocity": 92, "duration": 159}, {"note": 0, "velocity": 0, "duration": 81}, {"note": 70, "velocity": 94, "duration": 224}, {"note": 70, "velocity": 88, "duration": 820}, {"note": 0, "velocity": 0, "duration": 140}, {"note": 66, "velocity": 94, "duration": 203}, {"note": 68, "velocity": 97, "duration": 168}, {"note": 0, "velocity": 0, "duration": 72}, {"note": 70, "velocity": 93, "duration": 171}, {"note": 0, "velocity": 0, "duration": 69}, {"note": 78, "velocity": 94, "duration": 217}, {"note": 77, "velocity": 94, "duration": 353}, {"note": 0, "velocity": 0, "duration": 127}, {"note": 78, "velocity": 89, "duration": 157}, {"note": 0, "velocity": 0, "duration": 83}, {"note": 77, "velocity": 97, "duration": 389}, {"note": 0, "velocity": 0, "duration": 91}, {"note": 73, "velocity": 98, "duration": 360}, {"note": 0, "velocity": 0, "duration": 120}, {"note": 66, "velocity": 94, "duration": 168}, {"note": 0, "velocity": 0, "duration": 72}, {"note": 75, "velocity": 95, "duration": 507}, {"note": 0, "velocity": 0, "duration": 213}, {"note": 66, "velocity": 88, "duration": 198}, {"note": 65, "velocity": 93, "duration": 167}, {"note": 0, "velocity": 0, "duration": 73}, {"note": 66, "velocity": 89, "duration": 172}, {"note": 0, "velocity": 0, "duration": 68}, {"note": 68, "velocity": 93, "duration": 170}, {"note": 0, "velocity": 0, "duration": 70}, {"note": 75, "velocity": 95, "duration": 196}, {"note": 73, "velocity": 99, "duration": 327}, {"note": 0, "velocity": 0, "duration": 153}, {"note": 70, "velocity": 99, "duration": 449}, {"note": 66, "velocity": 94, "duration": 454}, {"note": 63, "velocity": 98, "duration": 177}, {"note": 0, "velocity": 0, "duration": 63}, {"note": 71, "velocity": 95, "duration": 734}, {"note": 0, "velocity": 0, "duration": 226}, {"note": 63, "velocity": 100, "duration": 177}, {"note": 0, "velocity": 0, "duration": 63}, {"note": 73, "velocity": 97, "duration": 168}, {"note": 0, "velocity": 0, "duration": 72}, {"note": 71, "velocity": 93, "duration": 161}, {"note": 0, "velocity": 0, "duration": 79}, {"note": 70, "velocity": 93, "duration": 152}, {"note": 0, "velocity": 0, "duration": 88}, {"note": 70, "velocity": 94, "duration": 397}, {"note": 0, "velocity": 0, "duration": 83}, {"note": 71, "velocity": 93, "duration": 129}, {"note": 0, "velocity": 0, "duration": 111}, {"note": 70, "velocity": 91, "duration": 184}, {"note": 68, "velocity": 99, "duration": 411}, {"note": 0, "velocity": 0, "duration": 69}, {"note": 61, "velocity": 94, "duration": 184}, {"note": 68, "velocity": 93, "duration": 177}, {"note": 0, "velocity": 0, "duration": 63}, {"note": 70, "velocity": 89, "duration": 163}, {"note": 0, "velocity": 0, "duration": 77}, {"note": 70, "velocity": 96, "duration": 833}, {"note": 0, "velocity": 0, "duration": 127}, {"note": 66, "velocity": 93, "duration": 177}, {"note": 0, "velocity": 0, "duration": 63}, {"note": 68, "velocity": 95, "duration": 165}, {"note": 0, "velocity": 0, "duration": 75}, {"note": 70, "velocity": 93, "duration": 168}, {"note": 0, "velocity": 0, "duration": 72}, {"note": 75, "velocity": 94, "duration": 140}, {"note": 0, "velocity": 0, "duration": 100}, {"note": 75, "velocity": 94, "duration": 344}, {"note": 0, "velocity": 0, "duration": 136}, {"note": 73, "velocity": 97, "duration": 210}, {"note": 68, "velocity": 97, "duration": 351}, {"note": 0, "velocity": 0, "duration": 129}, {"note": 61, "velocity": 97, "duration": 175}, {"note": 0, "velocity": 0, "duration": 65}, {"note": 68, "velocity": 92, "duration": 159}, {"note": 0, "velocity": 0, "duration": 81}, {"note": 70, "velocity": 94, "duration": 224}, {"note": 70, "velocity": 88, "duration": 820}, {"note": 0, "velocity": 0, "duration": 140}, {"note": 66, "velocity": 94, "duration": 203}, {"note": 68, "velocity": 97, "duration": 168}, {"note": 0, "velocity": 0, "duration": 72}, {"note": 70, "velocity": 93, "duration": 171}, {"note": 0, "velocity": 0, "duration": 69}, {"note": 78, "velocity": 94, "duration": 217}, {"note": 77, "velocity": 94, "duration": 353}, {"note": 0, "velocity": 0, "duration": 127}, {"note": 78, "velocity": 89, "duration": 157}, {"note": 0, "velocity": 0, "duration": 83}, {"note": 77, "velocity": 97, "duration": 389}, {"note": 0, "velocity": 0, "duration": 91}, {"note": 73, "velocity": 98, "duration": 360}, {"note": 0, "velocity": 0, "duration": 120}, {"note": 66, "velocity": 94, "duration": 168}, {"note": 0, "velocity": 0, "duration": 72}, {"note": 75, "velocity": 95, "duration": 507}, {"note": 0, "velocity": 0, "duration": 213}, {"note": 66, "velocity": 88, "duration": 198}, {"note": 65, "velocity": 93, "duration": 167}, {"note": 0, "velocity": 0, "duration": 73}, {"note": 66, "velocity": 89, "duration": 172}, {"note": 0, "velocity": 0, "duration": 68}, {"note": 68, "velocity": 93, "duration": 170}, {"note": 0, "velocity": 0, "duration": 70}, {"note": 75, "velocity": 95, "duration": 196}, {"note": 73, "velocity": 99, "duration": 327}, {"note": 0, "velocity": 0, "duration": 153}, {"note": 70, "velocity": 99, "duration": 240}, {"note": 78, "velocity": 94, "duration": 454}, {"note": 66, "velocity": 97, "duration": 104}, {"note": 0, "velocity": 0, "duration": 136}, {"note": 68, "velocity": 93, "duration": 172}, {"note": 0, "velocity": 0, "duration": 68}, {"note": 70, "velocity": 93, "duration": 175}, {"note": 0, "velocity": 0, "duration": 65}, {"note": 71, "velocity": 94, "duration": 991}, {"note": 0, "velocity": 0, "duration": 209}, {"note": 73, "velocity": 99, "duration": 240}, {"note": 71, "velocity": 94, "duration": 231}, {"note": 70, "velocity": 89, "duration": 240}, {"note": 70, "velocity": 91, "duration": 249}, {"note": 68, "velocity": 89, "duration": 689}, {"note": 0, "velocity": 0, "duration": 271}, {"note": 66, "velocity": 94, "duration": 182}, {"note": 68, "velocity": 94, "duration": 203}, {"note": 70, "velocity": 94, "duration": 1200}, {"note": 0, "velocity": 0, "duration": 240}, {"note": 68, "velocity": 94, "duration": 184}, {"note": 68, "velocity": 93, "duration": 177}, {"note": 0, "velocity": 0, "duration": 63}, {"note": 70, "velocity": 89, "duration": 163}, {"note": 0, "velocity": 0, "duration": 77}, {"note": 72, "velocity": 96, "duration": 833}, {"note": 0, "velocity": 0, "duration": 127}, {"note": 68, "velocity": 93, "duration": 177}, {"note": 0, "velocity": 0, "duration": 63}, {"note": 70, "velocity": 95, "duration": 165}, {"note": 0, "velocity": 0, "duration": 75}, {"note": 72, "velocity": 93, "duration": 168}, {"note": 0, "velocity": 0, "duration": 72}, {"note": 77, "velocity": 94, "duration": 140}, {"note": 0, "velocity": 0, "duration": 100}, {"note": 77, "velocity": 94, "duration": 344}, {"note": 0, "velocity": 0, "duration": 136}, {"note": 75, "velocity": 97, "duration": 210}, {"note": 70, "velocity": 97, "duration": 351}, {"note": 0, "velocity": 0, "duration": 129}, {"note": 63, "velocity": 97, "duration": 175}, {"note": 0, "velocity": 0, "duration": 65}, {"note": 70, "velocity": 92, "duration": 159}, {"note": 0, "velocity": 0, "duration": 81}, {"note": 72, "velocity": 94, "duration": 224}, {"note": 72, "velocity": 88, "duration": 820}, {"note": 0, "velocity": 0, "duration": 140}, {"note": 68, "velocity": 94, "duration": 203}, {"note": 70, "velocity": 97, "duration": 168}, {"note": 0, "velocity": 0, "duration": 72}, {"note": 72, "velocity": 93, "duration": 171}, {"note": 0, "velocity": 0, "duration": 69}, {"note": 80, "velocity": 94, "duration": 217}, {"note": 79, "velocity": 94, "duration": 353}, {"note": 0, "velocity": 0, "duration": 127}, {"note": 80, "velocity": 89, "duration": 157}, {"note": 0, "velocity": 0, "duration": 83}, {"note": 79, "velocity": 97, "duration": 389}, {"note": 0, "velocity": 0, "duration": 91}, {"note": 75, "velocity": 98, "duration": 360}, {"note": 0, "velocity": 0, "duration": 120}, {"note": 68, "velocity": 94, "duration": 168}, {"note": 0, "velocity": 0, "duration": 72}, {"note": 77, "velocity": 95, "duration": 507}, {"note": 0, "velocity": 0, "duration": 213}, {"note": 68, "velocity": 88, "duration": 198}, {"note": 67, "velocity": 93, "duration": 167}, {"note": 0, "velocity": 0, "duration": 73}, {"note": 68, "velocity": 89, "duration": 172}, {"note": 0, "velocity": 0, "duration": 68}, {"note": 70, "velocity": 93, "duration": 170}, {"note": 0, "velocity": 0, "duration": 70}, {"note": 77, "velocity": 95, "duration": 196}, {"note": 75, "velocity": 99, "duration": 327}, {"note": 0, "velocity": 0, "duration": 153}, {"note": 72, "velocity": 99, "duration": 449}, {"note": 68, "velocity": 94, "duration": 454}, {"note": 65, "velocity": 98, "duration": 177}, {"note": 0, "velocity": 0, "duration": 63}, {"note": 73, "velocity": 95, "duration": 734}, {"note": 0, "velocity": 0, "duration": 226}, {"note": 65, "velocity": 100, "duration": 177}, {"note": 0, "velocity": 0, "duration": 63}, {"note": 75, "velocity": 97, "duration": 168}, {"note": 0, "velocity": 0, "duration": 72}, {"note": 73, "velocity": 93, "duration": 161}, {"note": 0, "velocity": 0, "duration": 79}, {"note": 72, "velocity": 93, "duration": 152}, {"note": 0, "velocity": 0, "duration": 88}, {"note": 72, "velocity": 94, "duration": 397}, {"note": 0, "velocity": 0, "duration": 83}, {"note": 73, "velocity": 93, "duration": 129}, {"note": 0, "velocity": 0, "duration": 111}, {"note": 72, "velocity": 91, "duration": 184}, {"note": 70, "velocity": 99, "duration": 411}, {"note": 0, "velocity": 0, "duration": 69}, {"note": 63, "velocity": 94, "duration": 184}, {"note": 70, "velocity": 93, "duration": 177}, {"note": 0, "velocity": 0, "duration": 63}, {"note": 72, "velocity": 89, "duration": 163}, {"note": 0, "velocity": 0, "duration": 77}, {"note": 72, "velocity": 96, "duration": 833}, {"note": 0, "velocity": 0, "duration": 127}, {"note": 68, "velocity": 93, "duration": 177}, {"note": 0, "velocity": 0, "duration": 63}, {"note": 70, "velocity": 95, "duration": 165}, {"note": 0, "velocity": 0, "duration": 75}, {"note": 72, "velocity": 93, "duration": 168}, {"note": 0, "velocity": 0, "duration": 72}, {"note": 77, "velocity": 94, "duration": 140}, {"note": 0, "velocity": 0, "duration": 100}, {"note": 77, "velocity": 94, "duration": 344}, {"note": 0, "velocity": 0, "duration": 136}, {"note": 75, "velocity": 97, "duration": 210}, {"note": 70, "velocity": 97, "duration": 351}, {"note": 0, "velocity": 0, "duration": 129}, {"note": 63, "velocity": 97, "duration": 175}, {"note": 0, "velocity": 0, "duration": 65}, {"note": 70, "velocity": 92, "duration": 159}, {"note": 0, "velocity": 0, "duration": 81}, {"note": 72, "velocity": 94, "duration": 224}, {"note": 72, "velocity": 88, "duration": 820}, {"note": 0, "velocity": 0, "duration": 140}, {"note": 68, "velocity": 94, "duration": 203}, {"note": 70, "velocity": 97, "duration": 168}, {"note": 0, "velocity": 0, "duration": 72}, {"note": 72, "velocity": 93, "duration": 171}, {"note": 0, "velocity": 0, "duration": 69}, {"note": 80, "velocity": 94, "duration": 217}, {"note": 79, "velocity": 94, "duration": 353}, {"note": 0, "velocity": 0, "duration": 127}, {"note": 80, "velocity": 89, "duration": 157}, {"note": 0, "velocity": 0, "duration": 83}, {"note": 79, "velocity": 97, "duration": 389}, {"note": 0, "velocity": 0, "duration": 91}, {"note": 75, "velocity": 98, "duration": 360}, {"note": 0, "velocity": 0, "duration": 120}, {"note": 68, "velocity": 94, "duration": 168}, {"note": 0, "velocity": 0, "duration": 72}, {"note": 77, "velocity": 95, "duration": 507}, {"note": 0, "velocity": 0, "duration": 213}, {"note": 68, "velocity": 88, "duration": 198}, {"note": 67, "velocity": 93, "duration": 167}, {"note": 0, "velocity": 0, "duration": 73}, {"note": 68, "velocity": 89, "duration": 172}, {"note": 0, "velocity": 0, "duration": 68}, {"note": 70, "velocity": 93, "duration": 170}, {"note": 0, "velocity": 0, "duration": 70}, {"note": 77, "velocity": 95, "duration": 196}, {"note": 75, "velocity": 99, "duration": 327}, {"note": 0, "velocity": 0, "duration": 153}, {"note": 72, "velocity": 99, "duration": 240}, {"note": 80, "velocity": 94, "duration": 1320}, {"note": 0, "velocity": 0, "duration": 1059}, {"note": 68, "velocity": 96, "duration": 207}, {"note": 70, "velocity": 95, "duration": 185}, {"note": 0, "velocity": 0, "duration": 68}, {"note": 72, "velocity": 93, "duration": 189}, {"note": 0, "velocity": 0, "duration": 90}, {"note": 73, "velocity": 99, "duration": 1037}, {"note": 0, "velocity": 0, "duration": 94}, {"note": 75, "velocity": 95, "duration": 462}, {"note": 73, "velocity": 95, "duration": 234}, {"note": 72, "velocity": 94, "duration": 227}, {"note": 70, "velocity": 94, "duration": 1479}, {"note": 0, "velocity": 0, "duration": 183}, {"note": 68, "velocity": 93, "duration": 304}, {"note": 0, "velocity": 0, "duration": 131}, {"note": 68, "velocity": 95, "duration": 301}, {"note": 0, "velocity": 0, "duration": 72}, {"note": 68, "velocity": 93, "duration": 2009}]]