[[{"note": 71, "velocity": 90, "duration": 120}, {"note": 71, "velocity": 86, "duration": 115}, {"note": 71, "velocity": 91, "duration": 131}, {"note": 71, "velocity": 93, "duration": 113}, {"note": 71, "velocity": 100, "duration": 131}, {"note": 68, "velocity": 85, "duration": 157}, {"note": 75, "velocity": 91, "duration": 660}, {"note": 0, "velocity": 0, "duration": 300}, {"note": 83, "velocity": 86, "duration": 161}, {"note": 82, "velocity": 87, "duration": 143}, {"note": 80, "velocity": 84, "duration": 131}, {"note": 78, "velocity": 86, "duration": 120}, {"note": 75, "velocity": 90, "duration": 115}, {"note": 78, "velocity": 85, "duration": 139}, {"note": 75, "velocity": 95, "duration": 497}, {"note": 0, "velocity": 0, "duration": 143}, {"note": 78, "velocity": 85, "duration": 112}, {"note": 75, "velocity": 87, "duration": 99}, {"note": 0, "velocity": 0, "duration": 61}, {"note": 73, "velocity": 85, "duration": 103}, {"note": 73, "velocity": 80, "duration": 107}, {"note": 73, "velocity": 82, "duration": 120}, {"note": 71, "velocity": 88, "duration": 113}, {"note": 73, "velocity": 85, "duration": 106}, {"note": 68, "velocity": 89, "duration": 129}, {"note": 78, "velocity": 85, "duration": 115}, {"note": 78, "velocity": 85, "duration": 109}, {"note": 78, "velocity": 90, "duration": 136}, {"note": 75, "velocity": 86, "duration": 101}, {"note": 73, "velocity": 82, "duration": 96}, {"note": 0, "velocity": 0, "duration": 64}, {"note": 75, "velocity": 85, "duration": 128}, {"note": 73, "velocity": 84, "duration": 105}, {"note": 73, "velocity": 84, "duration": 108}, {"note": 73, "velocity": 88, "duration": 106}, {"note": 75, "velocity": 91, "duration": 108}, {"note": 73, "velocity": 85, "duration": 116}, {"note": 68, "velocity": 85, "duration": 113}, {"note": 70, "velocity": 85, "duration": 752}, {"note": 0, "velocity": 0, "duration": 208}, {"note": 71, "velocity": 84, "duration": 120}, {"note": 71, "velocity": 79, "duration": 101}, {"note": 71, "velocity": 87, "duration": 120}, {"note": 71, "velocity": 85, "duration": 101}, {"note": 71, "velocity": 88, "duration": 103}, {"note": 68, "velocity": 85, "duration": 125}, {"note": 75, "velocity": 91, "duration": 642}, {"note": 0, "velocity": 0, "duration": 318}, {"note": 83, "velocity": 86, "duration": 112}, {"note": 82, "velocity": 87, "duration": 116}, {"note": 80, "velocity": 90, "duration": 139}, {"note": 78, "velocity": 85, "duration": 129}, {"note": 75, "velocity": 90, "duration": 118}, {"note": 78, "velocity": 90, "duration": 142}, {"note": 75, "velocity": 93, "duration": 494}, {"note": 0, "velocity": 0, "duration": 146}, {"note": 78, "velocity": 85, "duration": 108}, {"note": 75, "velocity": 89, "duration": 106}, {"note": 73, "velocity": 85, "duration": 107}, {"note": 73, "velocity": 85, "duration": 94}, {"note": 0, "velocity": 0, "duration": 66}, {"note": 73, "velocity": 84, "duration": 106}, {"note": 71, "velocity": 88, "duration": 117}, {"note": 73, "velocity": 85, "duration": 118}, {"note": 68, "velocity": 79, "duration": 130}, {"note": 78, "velocity": 85, "duration": 108}, {"note": 78, "velocity": 86, "duration": 108}, {"note": 78, "velocity": 86, "duration": 102}, {"note": 75, "velocity": 90, "duration": 108}, {"note": 73, "velocity": 88, "duration": 114}, {"note": 75, "velocity": 98, "duration": 112}, {"note": 82, "velocity": 84, "duration": 115}, {"note": 82, "velocity": 85, "duration": 91}, {"note": 0, "velocity": 0, "duration": 69}, {"note": 82, "velocity": 81, "duration": 100}, {"note": 83, "velocity": 85, "duration": 112}, {"note": 82, "velocity": 86, "duration": 97}, {"note": 0, "velocity": 0, "duration": 63}, {"note": 80, "velocity": 86, "duration": 124}, {"note": 82, "velocity": 88, "duration": 862}, {"note": 0, "velocity": 0, "duration": 98}, {"note": 83, "velocity": 86, "duration": 119}, {"note": 82, "velocity": 86, "duration": 110}, {"note": 80, "velocity": 86, "duration": 104}, {"note": 78, "velocity": 90, "duration": 142}, {"note": 71, "velocity": 90, "duration": 126}, {"note": 73, "velocity": 88, "duration": 142}, {"note": 75, "velocity": 90, "duration": 640}, {"note": 0, "velocity": 0, "duration": 320}, {"note": 80, "velocity": 86, "duration": 135}, {"note": 78, "velocity": 85, "duration": 101}, {"note": 80, "velocity": 85, "duration": 91}, {"note": 0, "velocity": 0, "duration": 69}, {"note": 83, "velocity": 91, "duration": 102}, {"note": 71, "velocity": 84, "duration": 108}, {"note": 78, "velocity": 85, "duration": 114}, {"note": 75, "velocity": 88, "duration": 573}, {"note": 0, "velocity": 0, "duration": 67}, {"note": 78, "velocity": 86, "duration": 115}, {"note": 75, "velocity": 90, "duration": 110}, {"note": 73, "velocity": 86, "duration": 111}, {"note": 73, "velocity": 86, "duration": 105}, {"note": 73, "velocity": 84, "duration": 119}, {"note": 71, "velocity": 85, "duration": 119}, {"note": 73, "velocity": 84, "duration": 136}, {"note": 68, "velocity": 89, "duration": 136}, {"note": 71, "velocity": 85, "duration": 103}, {"note": 71, "velocity": 85, "duration": 101}, {"note": 71, "velocity": 88, "duration": 122}, {"note": 73, "velocity": 85, "duration": 96}, {"note": 0, "velocity": 0, "duration": 64}, {"note": 75, "velocity": 91, "duration": 115}, {"note": 83, "velocity": 88, "duration": 107}, {"note": 82, "velocity": 84, "duration": 119}, {"note": 83, "velocity": 86, "duration": 93}, {"note": 0, "velocity": 0, "duration": 67}, {"note": 82, "velocity": 79, "duration": 96}, {"note": 0, "velocity": 0, "duration": 64}, {"note": 83, "velocity": 84, "duration": 122}, {"note": 82, "velocity": 88, "duration": 119}, {"note": 80, "velocity": 89, "duration": 110}, {"note": 82, "velocity": 90, "duration": 875}, {"note": 0, "velocity": 0, "duration": 85}, {"note": 83, "velocity": 86, "duration": 119}, {"note": 82, "velocity": 86, "duration": 110}, {"note": 80, "velocity": 86, "duration": 104}, {"note": 78, "velocity": 90, "duration": 142}, {"note": 71, "velocity": 90, "duration": 126}, {"note": 73, "velocity": 88, "duration": 142}, {"note": 75, "velocity": 90, "duration": 640}, {"note": 0, "velocity": 0, "duration": 320}, {"note": 80, "velocity": 86, "duration": 135}, {"note": 78, "velocity": 85, "duration": 101}, {"note": 80, "velocity": 85, "duration": 91}, {"note": 0, "velocity": 0, "duration": 69}, {"note": 83, "velocity": 91, "duration": 102}, {"note": 71, "velocity": 84, "duration": 108}, {"note": 78, "velocity": 85, "duration": 114}, {"note": 75, "velocity": 88, "duration": 573}, {"note": 0, "velocity": 0, "duration": 67}, {"note": 78, "velocity": 86, "duration": 115}, {"note": 75, "velocity": 90, "duration": 110}, {"note": 73, "velocity": 86, "duration": 111}, {"note": 73, "velocity": 86, "duration": 105}, {"note": 73, "velocity": 84, "duration": 119}, {"note": 71, "velocity": 85, "duration": 119}, {"note": 73, "velocity": 84, "duration": 136}, {"note": 68, "velocity": 89, "duration": 136}, {"note": 71, "velocity": 85, "duration": 103}, {"note": 71, "velocity": 85, "duration": 101}, {"note": 71, "velocity": 88, "duration": 122}, {"note": 73, "velocity": 85, "duration": 96}, {"note": 0, "velocity": 0, "duration": 64}, {"note": 75, "velocity": 91, "duration": 115}, {"note": 83, "velocity": 88, "duration": 107}, {"note": 82, "velocity": 84, "duration": 119}, {"note": 83, "velocity": 86, "duration": 93}, {"note": 0, "velocity": 0, "duration": 67}, {"note": 82, "velocity": 79, "duration": 96}, {"note": 0, "velocity": 0, "duration": 64}, {"note": 83, "velocity": 84, "duration": 122}, {"note": 82, "velocity": 88, "duration": 119}, {"note": 80, "velocity": 89, "duration": 110}, {"note": 80, "velocity": 90, "duration": 875}, {"note": 0, "velocity": 0, "duration": 11605}, {"note": 71, "velocity": 90, "duration": 120}, {"note": 71, "velocity": 86, "duration": 115}, {"note": 71, "velocity": 91, "duration": 131}, {"note": 71, "velocity": 93, "duration": 113}, {"note": 71, "velocity": 100, "duration": 131}, {"note": 68, "velocity": 85, "duration": 157}, {"note": 75, "velocity": 91, "duration": 660}, {"note": 0, "velocity": 0, "duration": 300}, {"note": 83, "velocity": 86, "duration": 161}, {"note": 82, "velocity": 87, "duration": 143}, {"note": 80, "velocity": 84, "duration": 131}, {"note": 78, "velocity": 86, "duration": 120}, {"note": 75, "velocity": 90, "duration": 115}, {"note": 78, "velocity": 85, "duration": 139}, {"note": 75, "velocity": 95, "duration": 497}, {"note": 0, "velocity": 0, "duration": 143}, {"note": 78, "velocity": 85, "duration": 112}, {"note": 75, "velocity": 87, "duration": 99}, {"note": 0, "velocity": 0, "duration": 61}, {"note": 73, "velocity": 85, "duration": 103}, {"note": 73, "velocity": 80, "duration": 107}, {"note": 73, "velocity": 82, "duration": 120}, {"note": 71, "velocity": 88, "duration": 113}, {"note": 73, "velocity": 85, "duration": 106}, {"note": 68, "velocity": 89, "duration": 129}, {"note": 78, "velocity": 85, "duration": 115}, {"note": 78, "velocity": 85, "duration": 109}, {"note": 78, "velocity": 90, "duration": 136}, {"note": 75, "velocity": 86, "duration": 101}, {"note": 73, "velocity": 82, "duration": 96}, {"note": 0, "velocity": 0, "duration": 64}, {"note": 75, "velocity": 85, "duration": 128}, {"note": 73, "velocity": 84, "duration": 105}, {"note": 73, "velocity": 84, "duration": 108}, {"note": 73, "velocity": 88, "duration": 106}, {"note": 75, "velocity": 91, "duration": 108}, {"note": 73, "velocity": 85, "duration": 116}, {"note": 68, "velocity": 85, "duration": 113}, {"note": 70, "velocity": 85, "duration": 752}, {"note": 0, "velocity": 0, "duration": 208}, {"note": 71, "velocity": 84, "duration": 120}, {"note": 71, "velocity": 79, "duration": 101}, {"note": 71, "velocity": 87, "duration": 120}, {"note": 71, "velocity": 85, "duration": 101}, {"note": 71, "velocity": 88, "duration": 103}, {"note": 68, "velocity": 85, "duration": 125}, {"note": 75, "velocity": 91, "duration": 642}, {"note": 0, "velocity": 0, "duration": 318}, {"note": 83, "velocity": 86, "duration": 112}, {"note": 82, "velocity": 87, "duration": 116}, {"note": 80, "velocity": 90, "duration": 139}, {"note": 78, "velocity": 85, "duration": 129}, {"note": 75, "velocity": 90, "duration": 118}, {"note": 78, "velocity": 90, "duration": 142}, {"note": 75, "velocity": 93, "duration": 494}, {"note": 0, "velocity": 0, "duration": 146}, {"note": 78, "velocity": 85, "duration": 108}, {"note": 75, "velocity": 89, "duration": 106}, {"note": 73, "velocity": 85, "duration": 107}, {"note": 73, "velocity": 85, "duration": 94}, {"note": 0, "velocity": 0, "duration": 66}, {"note": 73, "velocity": 84, "duration": 106}, {"note": 71, "velocity": 88, "duration": 117}, {"note": 73, "velocity": 85, "duration": 118}, {"note": 68, "velocity": 79, "duration": 130}, {"note": 78, "velocity": 85, "duration": 108}, {"note": 78, "velocity": 86, "duration": 108}, {"note": 78, "velocity": 86, "duration": 102}, {"note": 75, "velocity": 90, "duration": 108}, {"note": 73, "velocity": 88, "duration": 114}, {"note": 75, "velocity": 98, "duration": 112}, {"note": 82, "velocity": 84, "duration": 115}, {"note": 82, "velocity": 85, "duration": 91}, {"note": 0, "velocity": 0, "duration": 69}, {"note": 82, "velocity": 81, "duration": 100}, {"note": 83, "velocity": 85, "duration": 112}, {"note": 82, "velocity": 86, "duration": 97}, {"note": 0, "velocity": 0, "duration": 63}, {"note": 80, "velocity": 86, "duration": 124}, {"note": 82, "velocity": 88, "duration": 862}, {"note": 0, "velocity": 0, "duration": 98}, {"note": 83, "velocity": 86, "duration": 119}, {"note": 82, "velocity": 86, "duration": 110}, {"note": 80, "velocity": 86, "duration": 104}, {"note": 78, "velocity": 90, "duration": 142}, {"note": 71, "velocity": 90, "duration": 126}, {"note": 73, "velocity": 88, "duration": 142}, {"note": 75, "velocity": 90, "duration": 640}, {"note": 0, "velocity": 0, "duration": 320}, {"note": 80, "velocity": 86, "duration": 135}, {"note": 78, "velocity": 85, "duration": 101}, {"note": 80, "velocity": 85, "duration": 91}, {"note": 0, "velocity": 0, "duration": 69}, {"note": 83, "velocity": 91, "duration": 102}, {"note": 71, "velocity": 84, "duration": 108}, {"note": 78, "velocity": 85, "duration": 114}, {"note": 75, "velocity": 88, "duration": 573}, {"note": 0, "velocity": 0, "duration": 67}, {"note": 78, "velocity": 86, "duration": 115}, {"note": 75, "velocity": 90, "duration": 110}, {"note": 73, "velocity": 86, "duration": 111}, {"note": 73, "velocity": 86, "duration": 105}, {"note": 73, "velocity": 84, "duration": 119}, {"note": 71, "velocity": 85, "duration": 119}, {"note": 73, "velocity": 84, "duration": 136}, {"note": 68, "velocity": 89, "duration": 136}, {"note": 71, "velocity": 85, "duration": 103}, {"note": 71, "velocity": 85, "duration": 101}, {"note": 71, "velocity": 88, "duration": 122}, {"note": 73, "velocity": 85, "duration": 96}, {"note": 0, "velocity": 0, "duration": 64}, {"note": 75, "velocity": 91, "duration": 115}, {"note": 83, "velocity": 88, "duration": 107}, {"note": 82, "velocity": 84, "duration": 119}, {"note": 83, "velocity": 86, "duration": 93}, {"note": 0, "velocity": 0, "duration": 67}, {"note": 82, "velocity": 79, "duration": 96}, {"note": 0, "velocity": 0, "duration": 64}, {"note": 83, "velocity": 84, "duration": 122}, {"note": 82, "velocity": 88, "duration": 119}, {"note": 80, "velocity": 89, "duration": 110}, {"note": 82, "velocity": 90, "duration": 875}, {"note": 0, "velocity": 0, "duration": 85}, {"note": 83, "velocity": 86, "duration": 119}, {"note": 82, "velocity": 86, "duration": 110}, {"note": 80, "velocity": 86, "duration": 104}, {"note": 78, "velocity": 90, "duration": 142}, {"note": 71, "velocity": 90, "duration": 126}, {"note": 73, "velocity": 88, "duration": 142}, {"note": 75, "velocity": 90, "duration": 640}, {"note": 0, "velocity": 0, "duration": 320}, {"note": 80, "velocity": 86, "duration": 135}, {"note": 78, "velocity": 85, "duration": 101}, {"note": 80, "velocity": 85, "duration": 91}, {"note": 0, "velocity": 0, "duration": 69}, {"note": 83, "velocity": 91, "duration": 102}, {"note": 71, "velocity": 84, "duration": 108}, {"note": 78, "velocity": 85, "duration": 114}, {"note": 75, "velocity": 88, "duration": 573}, {"note": 0, "velocity": 0, "duration": 67}, {"note": 78, "velocity": 86, "duration": 115}, {"note": 75, "velocity": 90, "duration": 110}, {"note": 73, "velocity": 86, "duration": 111}, {"note": 73, "velocity": 86, "duration": 105}, {"note": 73, "velocity": 84, "duration": 119}, {"note": 71, "velocity": 85, "duration": 119}, {"note": 73, "velocity": 84, "duration": 136}, {"note": 68, "velocity": 89, "duration": 136}, {"note": 71, "velocity": 85, "duration": 103}, {"note": 71, "velocity": 85, "duration": 101}, {"note": 71, "velocity": 88, "duration": 122}, {"note": 73, "velocity": 85, "duration": 96}, {"note": 0, "velocity": 0, "duration": 64}, {"note": 75, "velocity": 91, "duration": 115}, {"note": 83, "velocity": 88, "duration": 107}, {"note": 82, "velocity": 84, "duration": 119}, {"note": 83, "velocity": 86, "duration": 93}, {"note": 0, "velocity": 0, "duration": 67}, {"note": 82, "velocity": 79, "duration": 96}, {"note": 0, "velocity": 0, "duration": 64}, {"note": 83, "velocity": 84, "duration": 122}, {"note": 82, "velocity": 88, "duration": 119}, {"note": 80, "velocity": 89, "duration": 110}, {"note": 80, "velocity": 90, "duration": 875}, {"note": 0, "velocity": 0, "duration": 2005}, {"note": 84, "velocity": 86, "duration": 119}, {"note": 83, "velocity": 86, "duration": 110}, {"note": 81, "velocity": 86, "duration": 104}, {"note": 79, "velocity": 90, "duration": 142}, {"note": 72, "velocity": 90, "duration": 126}, {"note": 74, "velocity": 88, "duration": 142}, {"note": 76, "velocity": 90, "duration": 640}, {"note": 0, "velocity": 0, "duration": 320}, {"note": 81, "velocity": 86, "duration": 135}, {"note": 79, "velocity": 85, "duration": 101}, {"note": 81, "velocity": 85, "duration": 91}, {"note": 0, "velocity": 0, "duration": 69}, {"note": 84, "velocity": 91, "duration": 102}, {"note": 72, "velocity": 84, "duration": 108}, {"note": 79, "velocity": 85, "duration": 114}, {"note": 76, "velocity": 88, "duration": 573}, {"note": 0, "velocity": 0, "duration": 67}, {"note": 79, "velocity": 86, "duration": 115}, {"note": 76, "velocity": 90, "duration": 110}, {"note": 74, "velocity": 86, "duration": 111}, {"note": 74, "velocity": 86, "duration": 105}, {"note": 74, "velocity": 84, "duration": 119}, {"note": 72, "velocity": 85, "duration": 119}, {"note": 74, "velocity": 84, "duration": 136}, {"note": 69, "velocity": 89, "duration": 136}, {"note": 72, "velocity": 85, "duration": 103}, {"note": 72, "velocity": 85, "duration": 101}, {"note": 72, "velocity": 88, "duration": 122}, {"note": 74, "velocity": 85, "duration": 96}, {"note": 0, "velocity": 0, "duration": 64}, {"note": 76, "velocity": 91, "duration": 115}, {"note": 84, "velocity": 88, "duration": 107}, {"note": 83, "velocity": 84, "duration": 119}, {"note": 84, "velocity": 86, "duration": 93}, {"note": 0, "velocity": 0, "duration": 67}, {"note": 83, "velocity": 79, "duration": 96}, {"note": 0, "velocity": 0, "duration": 64}, {"note": 84, "velocity": 84, "duration": 122}, {"note": 83, "velocity": 88, "duration": 119}, {"note": 81, "velocity": 89, "duration": 110}, {"note": 83, "velocity": 90, "duration": 875}, {"note": 0, "velocity": 0, "duration": 85}, {"note": 84, "velocity": 86, "duration": 119}, {"note": 83, "velocity": 86, "duration": 110}, {"note": 81, "velocity": 86, "duration": 104}, {"note": 79, "velocity": 90, "duration": 142}, {"note": 72, "velocity": 90, "duration": 126}, {"note": 74, "velocity": 88, "duration": 142}, {"note": 76, "velocity": 90, "duration": 640}, {"note": 0, "velocity": 0, "duration": 320}, {"note": 81, "velocity": 86, "duration": 135}, {"note": 79, "velocity": 85, "duration": 101}, {"note": 81, "velocity": 85, "duration": 91}, {"note": 0, "velocity": 0, "duration": 69}, {"note": 84, "velocity": 91, "duration": 102}, {"note": 72, "velocity": 84, "duration": 108}, {"note": 79, "velocity": 85, "duration": 114}, {"note": 76, "velocity": 88, "duration": 573}, {"note": 0, "velocity": 0, "duration": 67}, {"note": 79, "velocity": 86, "duration": 115}, {"note": 76, "velocity": 90, "duration": 110}, {"note": 74, "velocity": 86, "duration": 111}, {"note": 74, "velocity": 86, "duration": 105}, {"note": 74, "velocity": 84, "duration": 119}, {"note": 72, "velocity": 85, "duration": 119}, {"note": 74, "velocity": 84, "duration": 136}, {"note": 69, "velocity": 89, "duration": 136}, {"note": 72, "velocity": 85, "duration": 103}, {"note": 72, "velocity": 85, "duration": 101}, {"note": 72, "velocity": 88, "duration": 122}, {"note": 74, "velocity": 85, "duration": 96}, {"note": 0, "velocity": 0, "duration": 64}, {"note": 76, "velocity": 91, "duration": 115}, {"note": 84, "velocity": 88, "duration": 107}, {"note": 83, "velocity": 84, "duration": 119}, {"note": 84, "velocity": 86, "duration": 93}, {"note": 0, "velocity": 0, "duration": 67}, {"note": 83, "velocity": 79, "duration": 96}, {"note": 0, "velocity": 0, "duration": 64}, {"note": 84, "velocity": 84, "duration": 122}, {"note": 83, "velocity": 88, "duration": 119}, {"note": 81, "velocity": 89, "duration": 110}, {"note": 81, "velocity": 90, "duration": 875}]]