[[{"note": 68, "velocity": 90, "duration": 202}, {"note": 59, "velocity": 87, "duration": 71}, {"note": 59, "velocity": 92, "duration": 308}, {"note": 59, "velocity": 87, "duration": 66}, {"note": 59, "velocity": 94, "duration": 319}, {"note": 68, "velocity": 85, "duration": 359}, {"note": 0, "velocity": 0, "duration": 121}, {"note": 68, "velocity": 87, "duration": 53}, {"note": 0, "velocity": 0, "duration": 67}, {"note": 68, "velocity": 87, "duration": 66}, {"note": 66, "velocity": 88, "duration": 706}, {"note": 63, "velocity": 85, "duration": 449}, {"note": 59, "velocity": 87, "duration": 626}, {"note": 0, "velocity": 0, "duration": 94}, {"note": 64, "velocity": 86, "duration": 180}, {"note": 56, "velocity": 87, "duration": 65}, {"note": 56, "velocity": 83, "duration": 272}, {"note": 0, "velocity": 0, "duration": 88}, {"note": 56, "velocity": 85, "duration": 94}, {"note": 0, "velocity": 0, "duration": 146}, {"note": 64, "velocity": 86, "duration": 228}, {"note": 64, "velocity": 85, "duration": 331}, {"note": 0, "velocity": 0, "duration": 149}, {"note": 64, "velocity": 88, "duration": 66}, {"note": 64, "velocity": 83, "duration": 68}, {"note": 63, "velocity": 90, "duration": 335}, {"note": 0, "velocity": 0, "duration": 385}, {"note": 59, "velocity": 87, "duration": 411}, {"note": 0, "velocity": 0, "duration": 69}, {"note": 59, "velocity": 85, "duration": 557}, {"note": 52, "velocity": 84, "duration": 98}, {"note": 61, "velocity": 84, "duration": 149}, {"note": 0, "velocity": 0, "duration": 91}, {"note": 52, "velocity": 77, "duration": 69}, {"note": 52, "velocity": 84, "duration": 269}, {"note": 0, "velocity": 0, "duration": 91}, {"note": 52, "velocity": 84, "duration": 170}, {"note": 0, "velocity": 0, "duration": 70}, {"note": 52, "velocity": 84, "duration": 198}, {"note": 61, "velocity": 85, "duration": 332}, {"note": 0, "velocity": 0, "duration": 148}, {"note": 59, "velocity": 85, "duration": 76}, {"note": 56, "velocity": 85, "duration": 69}, {"note": 66, "velocity": 73, "duration": 162}, {"note": 0, "velocity": 0, "duration": 78}, {"note": 59, "velocity": 84, "duration": 463}, {"note": 56, "velocity": 84, "duration": 214}, {"note": 64, "velocity": 85, "duration": 422}, {"note": 0, "velocity": 0, "duration": 538}, {"note": 66, "velocity": 84, "duration": 214}, {"note": 61, "velocity": 83, "duration": 87}, {"note": 0, "velocity": 0, "duration": 153}, {"note": 61, "velocity": 85, "duration": 166}, {"note": 0, "velocity": 0, "duration": 74}, {"note": 59, "velocity": 81, "duration": 61}, {"note": 59, "velocity": 86, "duration": 262}, {"note": 0, "velocity": 0, "duration": 98}, {"note": 59, "velocity": 87, "duration": 310}, {"note": 0, "velocity": 0, "duration": 170}, {"note": 59, "velocity": 84, "duration": 240}, {"note": 59, "velocity": 87, "duration": 601}, {"note": 0, "velocity": 0, "duration": 119}, {"note": 59, "velocity": 89, "duration": 189}, {"note": 66, "velocity": 87, "duration": 584}, {"note": 0, "velocity": 0, "duration": 376}, {"note": 68, "velocity": 90, "duration": 202}, {"note": 59, "velocity": 87, "duration": 71}, {"note": 59, "velocity": 92, "duration": 308}, {"note": 59, "velocity": 87, "duration": 66}, {"note": 59, "velocity": 94, "duration": 319}, {"note": 68, "velocity": 85, "duration": 359}, {"note": 0, "velocity": 0, "duration": 121}, {"note": 68, "velocity": 87, "duration": 53}, {"note": 0, "velocity": 0, "duration": 67}, {"note": 68, "velocity": 87, "duration": 66}, {"note": 66, "velocity": 88, "duration": 706}, {"note": 63, "velocity": 85, "duration": 240}, {"note": 66, "velocity": 87, "duration": 626}, {"note": 0, "velocity": 0, "duration": 334}, {"note": 64, "velocity": 86, "duration": 180}, {"note": 56, "velocity": 87, "duration": 65}, {"note": 56, "velocity": 83, "duration": 272}, {"note": 0, "velocity": 0, "duration": 88}, {"note": 56, "velocity": 85, "duration": 94}, {"note": 0, "velocity": 0, "duration": 146}, {"note": 64, "velocity": 86, "duration": 228}, {"note": 64, "velocity": 85, "duration": 331}, {"note": 0, "velocity": 0, "duration": 149}, {"note": 66, "velocity": 88, "duration": 66}, {"note": 64, "velocity": 83, "duration": 68}, {"note": 63, "velocity": 90, "duration": 335}, {"note": 0, "velocity": 0, "duration": 385}, {"note": 56, "velocity": 87, "duration": 120}, {"note": 63, "velocity": 85, "duration": 720}, {"note": 0, "velocity": 0, "duration": 360}, {"note": 61, "velocity": 84, "duration": 240}, {"note": 0, "velocity": 0, "duration": 240}, {"note": 52, "velocity": 84, "duration": 149}, {"note": 0, "velocity": 0, "duration": 91}, {"note": 52, "velocity": 84, "duration": 120}, {"note": 61, "velocity": 84, "duration": 198}, {"note": 0, "velocity": 0, "duration": 162}, {"note": 61, "velocity": 85, "duration": 332}, {"note": 0, "velocity": 0, "duration": 148}, {"note": 59, "velocity": 85, "duration": 76}, {"note": 56, "velocity": 85, "duration": 69}, {"note": 66, "velocity": 73, "duration": 162}, {"note": 0, "velocity": 0, "duration": 78}, {"note": 59, "velocity": 84, "duration": 463}, {"note": 56, "velocity": 84, "duration": 214}, {"note": 64, "velocity": 85, "duration": 422}, {"note": 0, "velocity": 0, "duration": 538}, {"note": 66, "velocity": 84, "duration": 214}, {"note": 61, "velocity": 83, "duration": 87}, {"note": 0, "velocity": 0, "duration": 153}, {"note": 61, "velocity": 85, "duration": 166}, {"note": 0, "velocity": 0, "duration": 74}, {"note": 59, "velocity": 81, "duration": 61}, {"note": 59, "velocity": 86, "duration": 262}, {"note": 0, "velocity": 0, "duration": 98}, {"note": 59, "velocity": 87, "duration": 240}, {"note": 59, "velocity": 87, "duration": 240}, {"note": 59, "velocity": 84, "duration": 240}, {"note": 59, "velocity": 87, "duration": 601}, {"note": 0, "velocity": 0, "duration": 119}, {"note": 59, "velocity": 89, "duration": 189}, {"note": 66, "velocity": 87, "duration": 584}, {"note": 0, "velocity": 0, "duration": 8056}, {"note": 68, "velocity": 90, "duration": 202}, {"note": 59, "velocity": 87, "duration": 71}, {"note": 59, "velocity": 92, "duration": 308}, {"note": 59, "velocity": 87, "duration": 66}, {"note": 59, "velocity": 94, "duration": 319}, {"note": 68, "velocity": 85, "duration": 359}, {"note": 0, "velocity": 0, "duration": 121}, {"note": 68, "velocity": 87, "duration": 53}, {"note": 0, "velocity": 0, "duration": 67}, {"note": 68, "velocity": 87, "duration": 66}, {"note": 66, "velocity": 88, "duration": 706}, {"note": 63, "velocity": 85, "duration": 240}, {"note": 66, "velocity": 87, "duration": 626}, {"note": 0, "velocity": 0, "duration": 334}, {"note": 64, "velocity": 86, "duration": 180}, {"note": 56, "velocity": 87, "duration": 65}, {"note": 56, "velocity": 83, "duration": 272}, {"note": 0, "velocity": 0, "duration": 88}, {"note": 56, "velocity": 85, "duration": 94}, {"note": 0, "velocity": 0, "duration": 146}, {"note": 64, "velocity": 86, "duration": 228}, {"note": 64, "velocity": 85, "duration": 331}, {"note": 0, "velocity": 0, "duration": 149}, {"note": 66, "velocity": 88, "duration": 66}, {"note": 64, "velocity": 83, "duration": 68}, {"note": 63, "velocity": 90, "duration": 335}, {"note": 0, "velocity": 0, "duration": 385}, {"note": 56, "velocity": 87, "duration": 120}, {"note": 63, "velocity": 85, "duration": 720}, {"note": 0, "velocity": 0, "duration": 360}, {"note": 61, "velocity": 84, "duration": 240}, {"note": 0, "velocity": 0, "duration": 240}, {"note": 52, "velocity": 84, "duration": 149}, {"note": 0, "velocity": 0, "duration": 91}, {"note": 52, "velocity": 84, "duration": 120}, {"note": 61, "velocity": 84, "duration": 198}, {"note": 0, "velocity": 0, "duration": 162}, {"note": 61, "velocity": 85, "duration": 332}, {"note": 0, "velocity": 0, "duration": 148}, {"note": 59, "velocity": 85, "duration": 76}, {"note": 56, "velocity": 85, "duration": 69}, {"note": 66, "velocity": 73, "duration": 162}, {"note": 0, "velocity": 0, "duration": 78}, {"note": 59, "velocity": 84, "duration": 463}, {"note": 56, "velocity": 84, "duration": 214}, {"note": 64, "velocity": 85, "duration": 422}, {"note": 0, "velocity": 0, "duration": 538}, {"note": 66, "velocity": 84, "duration": 214}, {"note": 61, "velocity": 83, "duration": 87}, {"note": 0, "velocity": 0, "duration": 153}, {"note": 61, "velocity": 85, "duration": 166}, {"note": 0, "velocity": 0, "duration": 74}, {"note": 59, "velocity": 81, "duration": 61}, {"note": 59, "velocity": 86, "duration": 262}, {"note": 0, "velocity": 0, "duration": 98}, {"note": 59, "velocity": 87, "duration": 240}, {"note": 59, "velocity": 87, "duration": 240}, {"note": 59, "velocity": 84, "duration": 240}, {"note": 59, "velocity": 87, "duration": 601}, {"note": 0, "velocity": 0, "duration": 119}, {"note": 59, "velocity": 89, "duration": 189}, {"note": 66, "velocity": 87, "duration": 584}, {"note": 0, "velocity": 0, "duration": 376}, {"note": 68, "velocity": 90, "duration": 202}, {"note": 59, "velocity": 87, "duration": 71}, {"note": 59, "velocity": 92, "duration": 308}, {"note": 59, "velocity": 87, "duration": 66}, {"note": 59, "velocity": 94, "duration": 319}, {"note": 68, "velocity": 85, "duration": 359}, {"note": 0, "velocity": 0, "duration": 121}, {"note": 68, "velocity": 87, "duration": 53}, {"note": 0, "velocity": 0, "duration": 67}, {"note": 68, "velocity": 87, "duration": 66}, {"note": 66, "velocity": 88, "duration": 240}, {"note": 66, "velocity": 88, "duration": 240}, {"note": 66, "velocity": 88, "duration": 240}, {"note": 59, "velocity": 85, "duration": 240}, {"note": 68, "velocity": 87, "duration": 360}, {"note": 66, "velocity": 87, "duration": 626}, {"note": 0, "velocity": 0, "duration": 94}, {"note": 61, "velocity": 86, "duration": 180}, {"note": 0, "velocity": 0, "duration": 180}, {"note": 64, "velocity": 84, "duration": 349}, {"note": 61, "velocity": 94, "duration": 189}, {"note": 64, "velocity": 85, "duration": 128}, {"note": 0, "velocity": 0, "duration": 112}, {"note": 64, "velocity": 89, "duration": 224}, {"note": 66, "velocity": 88, "duration": 240}, {"note": 64, "velocity": 83, "duration": 188}, {"note": 63, "velocity": 90, "duration": 240}, {"note": 56, "velocity": 79, "duration": 197}, {"note": 63, "velocity": 84, "duration": 127}, {"note": 0, "velocity": 0, "duration": 113}, {"note": 56, "velocity": 87, "duration": 120}, {"note": 63, "velocity": 85, "duration": 720}, {"note": 0, "velocity": 0, "duration": 360}, {"note": 61, "velocity": 89, "duration": 166}, {"note": 0, "velocity": 0, "duration": 74}, {"note": 64, "velocity": 85, "duration": 142}, {"note": 0, "velocity": 0, "duration": 98}, {"note": 64, "velocity": 92, "duration": 204}, {"note": 61, "velocity": 84, "duration": 75}, {"note": 64, "velocity": 87, "duration": 326}, {"note": 61, "velocity": 87, "duration": 166}, {"note": 0, "velocity": 0, "duration": 74}, {"note": 61, "velocity": 89, "duration": 162}, {"note": 0, "velocity": 0, "duration": 78}, {"note": 59, "velocity": 89, "duration": 172}, {"note": 0, "velocity": 0, "duration": 68}, {"note": 66, "velocity": 80, "duration": 513}, {"note": 0, "velocity": 0, "duration": 207}, {"note": 68, "velocity": 90, "duration": 156}, {"note": 0, "velocity": 0, "duration": 84}, {"note": 66, "velocity": 87, "duration": 177}, {"note": 0, "velocity": 0, "duration": 63}, {"note": 61, "velocity": 84, "duration": 89}, {"note": 0, "velocity": 0, "duration": 151}, {"note": 64, "velocity": 86, "duration": 476}, {"note": 61, "velocity": 90, "duration": 77}, {"note": 64, "velocity": 83, "duration": 108}, {"note": 0, "velocity": 0, "duration": 132}, {"note": 64, "velocity": 87, "duration": 185}, {"note": 64, "velocity": 81, "duration": 65}, {"note": 64, "velocity": 87, "duration": 369}, {"note": 0, "velocity": 0, "duration": 111}, {"note": 64, "velocity": 89, "duration": 120}, {"note": 0, "velocity": 0, "duration": 120}, {"note": 64, "velocity": 90, "duration": 211}, {"note": 64, "velocity": 85, "duration": 59}, {"note": 0, "velocity": 0, "duration": 61}, {"note": 64, "velocity": 84, "duration": 55}, {"note": 0, "velocity": 0, "duration": 65}, {"note": 64, "velocity": 87, "duration": 152}, {"note": 0, "velocity": 0, "duration": 88}, {"note": 64, "velocity": 86, "duration": 56}, {"note": 0, "velocity": 0, "duration": 64}, {"note": 64, "velocity": 87, "duration": 333}, {"note": 61, "velocity": 85, "duration": 212}, {"note": 66, "velocity": 88, "duration": 480}, {"note": 59, "velocity": 94, "duration": 170}, {"note": 0, "velocity": 0, "duration": 70}, {"note": 59, "velocity": 90, "duration": 200}, {"note": 68, "velocity": 87, "duration": 524}, {"note": 0, "velocity": 0, "duration": 196}, {"note": 59, "velocity": 88, "duration": 116}, {"note": 0, "velocity": 0, "duration": 124}, {"note": 59, "velocity": 90, "duration": 142}, {"note": 0, "velocity": 0, "duration": 98}, {"note": 68, "velocity": 92, "duration": 163}, {"note": 0, "velocity": 0, "duration": 77}, {"note": 69, "velocity": 87, "duration": 187}, {"note": 68, "velocity": 87, "duration": 161}, {"note": 0, "velocity": 0, "duration": 79}, {"note": 68, "velocity": 90, "duration": 231}, {"note": 66, "velocity": 84, "duration": 48}, {"note": 0, "velocity": 0, "duration": 72}, {"note": 66, "velocity": 85, "duration": 302}, {"note": 59, "velocity": 87, "duration": 80}, {"note": 68, "velocity": 90, "duration": 312}, {"note": 66, "velocity": 89, "duration": 350}, {"note": 0, "velocity": 0, "duration": 370}, {"note": 61, "velocity": 87, "duration": 70}, {"note": 64, "velocity": 90, "duration": 449}, {"note": 0, "velocity": 0, "duration": 151}, {"note": 64, "velocity": 87, "duration": 60}, {"note": 64, "velocity": 90, "duration": 253}, {"note": 0, "velocity": 0, "duration": 107}, {"note": 64, "velocity": 94, "duration": 91}, {"note": 0, "velocity": 0, "duration": 149}, {"note": 66, "velocity": 87, "duration": 163}, {"note": 0, "velocity": 0, "duration": 77}, {"note": 64, "velocity": 88, "duration": 94}, {"note": 64, "velocity": 88, "duration": 94}, {"note": 63, "velocity": 87, "duration": 181}, {"note": 56, "velocity": 85, "duration": 225}, {"note": 59, "velocity": 82, "duration": 221}, {"note": 56, "velocity": 50, "duration": 56}, {"note": 0, "velocity": 0, "duration": 64}, {"note": 63, "velocity": 87, "duration": 503}, {"note": 0, "velocity": 0, "duration": 577}, {"note": 61, "velocity": 83, "duration": 241}, {"note": 52, "velocity": 94, "duration": 413}, {"note": 0, "velocity": 0, "duration": 67}, {"note": 61, "velocity": 94, "duration": 384}, {"note": 0, "velocity": 0, "duration": 96}, {"note": 61, "velocity": 84, "duration": 220}, {"note": 63, "velocity": 89, "duration": 208}, {"note": 61, "velocity": 83, "duration": 208}, {"note": 66, "velocity": 76, "duration": 225}, {"note": 59, "velocity": 87, "duration": 120}, {"note": 59, "velocity": 87, "duration": 120}, {"note": 0, "velocity": 0, "duration": 120}, {"note": 66, "velocity": 87, "duration": 307}, {"note": 64, "velocity": 85, "duration": 401}, {"note": 0, "velocity": 0, "duration": 559}, {"note": 66, "velocity": 75, "duration": 233}, {"note": 61, "velocity": 87, "duration": 396}, {"note": 0, "velocity": 0, "duration": 84}, {"note": 59, "velocity": 88, "duration": 127}, {"note": 0, "velocity": 0, "duration": 113}, {"note": 59, "velocity": 89, "duration": 360}, {"note": 0, "velocity": 0, "duration": 120}, {"note": 59, "velocity": 90, "duration": 197}, {"note": 59, "velocity": 90, "duration": 184}, {"note": 59, "velocity": 92, "duration": 190}, {"note": 66, "velocity": 86, "duration": 891}, {"note": 0, "velocity": 0, "duration": 69}, {"note": 59, "velocity": 90, "duration": 112}, {"note": 0, "velocity": 0, "duration": 128}, {"note": 66, "velocity": 85, "duration": 181}, {"note": 59, "velocity": 89, "duration": 180}, {"note": 64, "velocity": 84, "duration": 1863}, {"note": 66, "velocity": 84, "duration": 224}, {"note": 61, "velocity": 89, "duration": 388}, {"note": 0, "velocity": 0, "duration": 92}, {"note": 59, "velocity": 83, "duration": 148}, {"note": 0, "velocity": 0, "duration": 92}, {"note": 59, "velocity": 85, "duration": 358}, {"note": 0, "velocity": 0, "duration": 122}, {"note": 59, "velocity": 84, "duration": 149}, {"note": 0, "velocity": 0, "duration": 91}, {"note": 59, "velocity": 88, "duration": 152}, {"note": 0, "velocity": 0, "duration": 88}, {"note": 59, "velocity": 85, "duration": 229}, {"note": 64, "velocity": 85, "duration": 1720}, {"note": 0, "velocity": 0, "duration": 1880}, {"note": 68, "velocity": 90, "duration": 202}, {"note": 59, "velocity": 87, "duration": 71}, {"note": 59, "velocity": 92, "duration": 308}, {"note": 59, "velocity": 87, "duration": 66}, {"note": 59, "velocity": 94, "duration": 319}, {"note": 68, "velocity": 85, "duration": 359}, {"note": 0, "velocity": 0, "duration": 121}, {"note": 68, "velocity": 87, "duration": 53}, {"note": 0, "velocity": 0, "duration": 67}, {"note": 68, "velocity": 87, "duration": 66}, {"note": 66, "velocity": 88, "duration": 706}, {"note": 63, "velocity": 85, "duration": 240}, {"note": 66, "velocity": 87, "duration": 626}, {"note": 0, "velocity": 0, "duration": 334}, {"note": 64, "velocity": 86, "duration": 180}, {"note": 56, "velocity": 87, "duration": 65}, {"note": 56, "velocity": 83, "duration": 272}, {"note": 0, "velocity": 0, "duration": 88}, {"note": 56, "velocity": 85, "duration": 94}, {"note": 0, "velocity": 0, "duration": 146}, {"note": 64, "velocity": 86, "duration": 228}, {"note": 64, "velocity": 85, "duration": 331}, {"note": 0, "velocity": 0, "duration": 149}, {"note": 66, "velocity": 88, "duration": 66}, {"note": 64, "velocity": 83, "duration": 68}, {"note": 63, "velocity": 90, "duration": 335}, {"note": 0, "velocity": 0, "duration": 385}, {"note": 56, "velocity": 87, "duration": 120}, {"note": 63, "velocity": 85, "duration": 720}, {"note": 0, "velocity": 0, "duration": 360}, {"note": 61, "velocity": 84, "duration": 240}, {"note": 0, "velocity": 0, "duration": 240}, {"note": 52, "velocity": 84, "duration": 149}, {"note": 0, "velocity": 0, "duration": 91}, {"note": 52, "velocity": 84, "duration": 120}, {"note": 61, "velocity": 84, "duration": 198}, {"note": 0, "velocity": 0, "duration": 162}, {"note": 61, "velocity": 85, "duration": 332}, {"note": 0, "velocity": 0, "duration": 148}, {"note": 59, "velocity": 85, "duration": 76}, {"note": 56, "velocity": 85, "duration": 69}, {"note": 66, "velocity": 73, "duration": 162}, {"note": 0, "velocity": 0, "duration": 78}, {"note": 59, "velocity": 84, "duration": 463}, {"note": 56, "velocity": 84, "duration": 214}, {"note": 64, "velocity": 85, "duration": 422}, {"note": 0, "velocity": 0, "duration": 538}, {"note": 66, "velocity": 84, "duration": 214}, {"note": 61, "velocity": 83, "duration": 87}, {"note": 0, "velocity": 0, "duration": 153}, {"note": 61, "velocity": 85, "duration": 166}, {"note": 0, "velocity": 0, "duration": 74}, {"note": 59, "velocity": 81, "duration": 61}, {"note": 59, "velocity": 86, "duration": 262}, {"note": 0, "velocity": 0, "duration": 98}, {"note": 59, "velocity": 87, "duration": 240}, {"note": 59, "velocity": 87, "duration": 240}, {"note": 59, "velocity": 84, "duration": 240}, {"note": 59, "velocity": 87, "duration": 601}, {"note": 0, "velocity": 0, "duration": 119}, {"note": 59, "velocity": 89, "duration": 189}, {"note": 66, "velocity": 87, "duration": 584}]]