[[{"note": 70, "velocity": 90, "duration": 629}, {"note": 65, "velocity": 96, "duration": 195}, {"note": 70, "velocity": 95, "duration": 421}, {"note": 77, "velocity": 90, "duration": 135}, {"note": 0, "velocity": 0, "duration": 99}, {"note": 77, "velocity": 94, "duration": 190}, {"note": 75, "velocity": 103, "duration": 425}, {"note": 77, "velocity": 91, "duration": 104}, {"note": 73, "velocity": 90, "duration": 224}, {"note": 75, "velocity": 96, "duration": 181}, {"note": 0, "velocity": 0, "duration": 66}, {"note": 73, "velocity": 89, "duration": 213}, {"note": 70, "velocity": 91, "duration": 572}, {"note": 0, "velocity": 0, "duration": 148}, {"note": 72, "velocity": 91, "duration": 182}, {"note": 0, "velocity": 0, "duration": 72}, {"note": 72, "velocity": 93, "duration": 366}, {"note": 0, "velocity": 0, "duration": 91}, {"note": 73, "velocity": 95, "duration": 185}, {"note": 0, "velocity": 0, "duration": 82}, {"note": 72, "velocity": 93, "duration": 357}, {"note": 0, "velocity": 0, "duration": 104}, {"note": 70, "velocity": 89, "duration": 172}, {"note": 0, "velocity": 0, "duration": 72}, {"note": 72, "velocity": 90, "duration": 135}, {"note": 0, "velocity": 0, "duration": 113}, {"note": 68, "velocity": 89, "duration": 185}, {"note": 65, "velocity": 96, "duration": 1456}, {"note": 0, "velocity": 0, "duration": 234}, {"note": 70, "velocity": 91, "duration": 676}, {"note": 65, "velocity": 100, "duration": 209}, {"note": 70, "velocity": 96, "duration": 373}, {"note": 0, "velocity": 0, "duration": 90}, {"note": 73, "velocity": 95, "duration": 141}, {"note": 0, "velocity": 0, "duration": 108}, {"note": 73, "velocity": 94, "duration": 162}, {"note": 0, "velocity": 0, "duration": 82}, {"note": 75, "velocity": 96, "duration": 370}, {"note": 77, "velocity": 90, "duration": 113}, {"note": 73, "velocity": 98, "duration": 239}, {"note": 75, "velocity": 95, "duration": 175}, {"note": 0, "velocity": 0, "duration": 68}, {"note": 77, "velocity": 96, "duration": 724}, {"note": 0, "velocity": 0, "duration": 254}, {"note": 75, "velocity": 95, "duration": 122}, {"note": 0, "velocity": 0, "duration": 99}, {"note": 75, "velocity": 94, "duration": 404}, {"note": 73, "velocity": 93, "duration": 253}, {"note": 72, "velocity": 94, "duration": 266}, {"note": 70, "velocity": 85, "duration": 240}, {"note": 68, "velocity": 90, "duration": 508}, {"note": 70, "velocity": 91, "duration": 1549}, {"note": 0, "velocity": 0, "duration": 370}, {"note": 77, "velocity": 95, "duration": 375}, {"note": 0, "velocity": 0, "duration": 105}, {"note": 77, "velocity": 96, "duration": 180}, {"note": 75, "velocity": 96, "duration": 199}, {"note": 77, "velocity": 100, "duration": 448}, {"note": 80, "velocity": 96, "duration": 509}, {"note": 82, "velocity": 91, "duration": 380}, {"note": 0, "velocity": 0, "duration": 100}, {"note": 84, "velocity": 93, "duration": 268}, {"note": 82, "velocity": 92, "duration": 280}, {"note": 80, "velocity": 96, "duration": 462}, {"note": 77, "velocity": 98, "duration": 480}, {"note": 75, "velocity": 93, "duration": 713}, {"note": 70, "velocity": 90, "duration": 189}, {"note": 73, "velocity": 89, "duration": 237}, {"note": 75, "velocity": 103, "duration": 118}, {"note": 0, "velocity": 0, "duration": 122}, {"note": 80, "velocity": 90, "duration": 162}, {"note": 0, "velocity": 0, "duration": 78}, {"note": 79, "velocity": 90, "duration": 182}, {"note": 77, "velocity": 92, "duration": 1474}, {"note": 0, "velocity": 0, "duration": 446}, {"note": 77, "velocity": 93, "duration": 189}, {"note": 77, "velocity": 96, "duration": 379}, {"note": 0, "velocity": 0, "duration": 101}, {"note": 75, "velocity": 100, "duration": 153}, {"note": 0, "velocity": 0, "duration": 87}, {"note": 77, "velocity": 98, "duration": 337}, {"note": 0, "velocity": 0, "duration": 143}, {"note": 80, "velocity": 93, "duration": 346}, {"note": 0, "velocity": 0, "duration": 134}, {"note": 70, "velocity": 93, "duration": 183}, {"note": 72, "velocity": 92, "duration": 187}, {"note": 70, "velocity": 91, "duration": 131}, {"note": 0, "velocity": 0, "duration": 109}, {"note": 68, "velocity": 90, "duration": 145}, {"note": 0, "velocity": 0, "duration": 95}, {"note": 70, "velocity": 93, "duration": 423}, {"note": 0, "velocity": 0, "duration": 540}, {"note": 70, "velocity": 96, "duration": 372}, {"note": 0, "velocity": 0, "duration": 103}, {"note": 75, "velocity": 93, "duration": 163}, {"note": 0, "velocity": 0, "duration": 82}, {"note": 77, "velocity": 91, "duration": 156}, {"note": 0, "velocity": 0, "duration": 82}, {"note": 73, "velocity": 93, "duration": 308}, {"note": 75, "velocity": 89, "duration": 99}, {"note": 73, "velocity": 89, "duration": 189}, {"note": 72, "velocity": 93, "duration": 159}, {"note": 0, "velocity": 0, "duration": 76}, {"note": 70, "velocity": 93, "duration": 1578}, {"note": 0, "velocity": 0, "duration": 367}, {"note": 77, "velocity": 98, "duration": 252}, {"note": 75, "velocity": 94, "duration": 281}, {"note": 77, "velocity": 103, "duration": 948}, {"note": 80, "velocity": 93, "duration": 392}, {"note": 0, "velocity": 0, "duration": 88}, {"note": 82, "velocity": 91, "duration": 515}, {"note": 84, "velocity": 93, "duration": 508}, {"note": 82, "velocity": 91, "duration": 765}, {"note": 0, "velocity": 0, "duration": 195}, {"note": 77, "velocity": 94, "duration": 231}, {"note": 80, "velocity": 94, "duration": 417}, {"note": 0, "velocity": 0, "duration": 63}, {"note": 84, "velocity": 82, "duration": 243}, {"note": 82, "velocity": 91, "duration": 274}, {"note": 84, "velocity": 91, "duration": 270}, {"note": 80, "velocity": 91, "duration": 184}, {"note": 79, "velocity": 91, "duration": 201}, {"note": 77, "velocity": 93, "duration": 1419}, {"note": 0, "velocity": 0, "duration": 501}, {"note": 77, "velocity": 91, "duration": 185}, {"note": 75, "velocity": 91, "duration": 156}, {"note": 0, "velocity": 0, "duration": 84}, {"note": 77, "velocity": 95, "duration": 998}, {"note": 80, "velocity": 96, "duration": 509}, {"note": 70, "velocity": 96, "duration": 343}, {"note": 72, "velocity": 87, "duration": 189}, {"note": 70, "velocity": 90, "duration": 184}, {"note": 68, "velocity": 93, "duration": 266}, {"note": 65, "velocity": 91, "duration": 759}, {"note": 0, "velocity": 0, "duration": 201}, {"note": 70, "velocity": 91, "duration": 421}, {"note": 75, "velocity": 93, "duration": 194}, {"note": 77, "velocity": 90, "duration": 196}, {"note": 73, "velocity": 96, "duration": 226}, {"note": 75, "velocity": 90, "duration": 142}, {"note": 0, "velocity": 0, "duration": 98}, {"note": 73, "velocity": 90, "duration": 198}, {"note": 72, "velocity": 85, "duration": 150}, {"note": 0, "velocity": 0, "duration": 90}, {"note": 70, "velocity": 91, "duration": 1473}, {"note": 0, "velocity": 0, "duration": 15849}, {"note": 70, "velocity": 90, "duration": 629}, {"note": 65, "velocity": 96, "duration": 195}, {"note": 70, "velocity": 95, "duration": 421}, {"note": 77, "velocity": 90, "duration": 135}, {"note": 0, "velocity": 0, "duration": 99}, {"note": 77, "velocity": 94, "duration": 190}, {"note": 75, "velocity": 103, "duration": 425}, {"note": 77, "velocity": 91, "duration": 104}, {"note": 73, "velocity": 90, "duration": 224}, {"note": 75, "velocity": 96, "duration": 181}, {"note": 0, "velocity": 0, "duration": 66}, {"note": 73, "velocity": 89, "duration": 213}, {"note": 70, "velocity": 91, "duration": 572}, {"note": 0, "velocity": 0, "duration": 148}, {"note": 72, "velocity": 91, "duration": 182}, {"note": 0, "velocity": 0, "duration": 72}, {"note": 72, "velocity": 93, "duration": 366}, {"note": 0, "velocity": 0, "duration": 91}, {"note": 73, "velocity": 95, "duration": 185}, {"note": 0, "velocity": 0, "duration": 82}, {"note": 72, "velocity": 93, "duration": 357}, {"note": 0, "velocity": 0, "duration": 104}, {"note": 70, "velocity": 89, "duration": 172}, {"note": 0, "velocity": 0, "duration": 72}, {"note": 72, "velocity": 90, "duration": 135}, {"note": 0, "velocity": 0, "duration": 113}, {"note": 68, "velocity": 89, "duration": 185}, {"note": 65, "velocity": 96, "duration": 1456}, {"note": 0, "velocity": 0, "duration": 234}, {"note": 70, "velocity": 91, "duration": 676}, {"note": 65, "velocity": 100, "duration": 209}, {"note": 70, "velocity": 96, "duration": 373}, {"note": 0, "velocity": 0, "duration": 90}, {"note": 73, "velocity": 95, "duration": 141}, {"note": 0, "velocity": 0, "duration": 108}, {"note": 73, "velocity": 94, "duration": 162}, {"note": 0, "velocity": 0, "duration": 82}, {"note": 75, "velocity": 96, "duration": 370}, {"note": 77, "velocity": 90, "duration": 113}, {"note": 73, "velocity": 98, "duration": 239}, {"note": 75, "velocity": 95, "duration": 175}, {"note": 0, "velocity": 0, "duration": 68}, {"note": 77, "velocity": 96, "duration": 724}, {"note": 0, "velocity": 0, "duration": 254}, {"note": 75, "velocity": 95, "duration": 122}, {"note": 0, "velocity": 0, "duration": 99}, {"note": 75, "velocity": 94, "duration": 404}, {"note": 73, "velocity": 93, "duration": 253}, {"note": 72, "velocity": 94, "duration": 266}, {"note": 70, "velocity": 85, "duration": 240}, {"note": 68, "velocity": 90, "duration": 508}, {"note": 70, "velocity": 91, "duration": 1549}, {"note": 0, "velocity": 0, "duration": 370}, {"note": 77, "velocity": 95, "duration": 375}, {"note": 0, "velocity": 0, "duration": 105}, {"note": 77, "velocity": 96, "duration": 180}, {"note": 75, "velocity": 96, "duration": 199}, {"note": 77, "velocity": 100, "duration": 448}, {"note": 80, "velocity": 96, "duration": 509}, {"note": 82, "velocity": 91, "duration": 380}, {"note": 0, "velocity": 0, "duration": 100}, {"note": 84, "velocity": 93, "duration": 268}, {"note": 82, "velocity": 92, "duration": 280}, {"note": 80, "velocity": 96, "duration": 462}, {"note": 77, "velocity": 98, "duration": 480}, {"note": 75, "velocity": 93, "duration": 713}, {"note": 70, "velocity": 90, "duration": 189}, {"note": 73, "velocity": 89, "duration": 237}, {"note": 75, "velocity": 103, "duration": 118}, {"note": 0, "velocity": 0, "duration": 122}, {"note": 80, "velocity": 90, "duration": 162}, {"note": 0, "velocity": 0, "duration": 78}, {"note": 79, "velocity": 90, "duration": 182}, {"note": 77, "velocity": 92, "duration": 1474}, {"note": 0, "velocity": 0, "duration": 446}, {"note": 77, "velocity": 93, "duration": 189}, {"note": 77, "velocity": 96, "duration": 379}, {"note": 0, "velocity": 0, "duration": 101}, {"note": 75, "velocity": 100, "duration": 153}, {"note": 0, "velocity": 0, "duration": 87}, {"note": 77, "velocity": 98, "duration": 337}, {"note": 0, "velocity": 0, "duration": 143}, {"note": 80, "velocity": 93, "duration": 346}, {"note": 0, "velocity": 0, "duration": 134}, {"note": 70, "velocity": 93, "duration": 183}, {"note": 72, "velocity": 92, "duration": 187}, {"note": 70, "velocity": 91, "duration": 131}, {"note": 0, "velocity": 0, "duration": 109}, {"note": 68, "velocity": 90, "duration": 145}, {"note": 0, "velocity": 0, "duration": 95}, {"note": 70, "velocity": 93, "duration": 423}, {"note": 0, "velocity": 0, "duration": 540}, {"note": 70, "velocity": 96, "duration": 372}, {"note": 0, "velocity": 0, "duration": 103}, {"note": 75, "velocity": 93, "duration": 163}, {"note": 0, "velocity": 0, "duration": 82}, {"note": 77, "velocity": 91, "duration": 156}, {"note": 0, "velocity": 0, "duration": 82}, {"note": 73, "velocity": 93, "duration": 308}, {"note": 75, "velocity": 89, "duration": 99}, {"note": 73, "velocity": 89, "duration": 189}, {"note": 72, "velocity": 93, "duration": 159}, {"note": 0, "velocity": 0, "duration": 76}, {"note": 70, "velocity": 93, "duration": 1578}, {"note": 0, "velocity": 0, "duration": 367}, {"note": 77, "velocity": 98, "duration": 252}, {"note": 75, "velocity": 94, "duration": 281}, {"note": 77, "velocity": 103, "duration": 948}, {"note": 80, "velocity": 93, "duration": 392}, {"note": 0, "velocity": 0, "duration": 88}, {"note": 82, "velocity": 91, "duration": 515}, {"note": 84, "velocity": 93, "duration": 508}, {"note": 82, "velocity": 91, "duration": 765}, {"note": 0, "velocity": 0, "duration": 195}, {"note": 77, "velocity": 94, "duration": 231}, {"note": 80, "velocity": 94, "duration": 417}, {"note": 0, "velocity": 0, "duration": 63}, {"note": 84, "velocity": 82, "duration": 243}, {"note": 82, "velocity": 91, "duration": 274}, {"note": 84, "velocity": 91, "duration": 270}, {"note": 80, "velocity": 91, "duration": 184}, {"note": 79, "velocity": 91, "duration": 201}, {"note": 77, "velocity": 93, "duration": 1419}, {"note": 0, "velocity": 0, "duration": 501}, {"note": 77, "velocity": 91, "duration": 185}, {"note": 75, "velocity": 91, "duration": 156}, {"note": 0, "velocity": 0, "duration": 84}, {"note": 77, "velocity": 95, "duration": 998}, {"note": 80, "velocity": 96, "duration": 509}, {"note": 70, "velocity": 96, "duration": 343}, {"note": 72, "velocity": 87, "duration": 189}, {"note": 70, "velocity": 90, "duration": 184}, {"note": 68, "velocity": 93, "duration": 266}, {"note": 65, "velocity": 91, "duration": 759}, {"note": 0, "velocity": 0, "duration": 201}, {"note": 70, "velocity": 91, "duration": 421}, {"note": 75, "velocity": 93, "duration": 194}, {"note": 77, "velocity": 90, "duration": 196}, {"note": 73, "velocity": 96, "duration": 226}, {"note": 75, "velocity": 90, "duration": 142}, {"note": 0, "velocity": 0, "duration": 98}, {"note": 73, "velocity": 90, "duration": 198}, {"note": 72, "velocity": 85, "duration": 150}, {"note": 0, "velocity": 0, "duration": 90}, {"note": 70, "velocity": 91, "duration": 1473}, {"note": 0, "velocity": 0, "duration": 447}, {"note": 77, "velocity": 98, "duration": 252}, {"note": 75, "velocity": 94, "duration": 281}, {"note": 77, "velocity": 103, "duration": 948}, {"note": 80, "velocity": 93, "duration": 392}, {"note": 0, "velocity": 0, "duration": 88}, {"note": 82, "velocity": 91, "duration": 515}, {"note": 84, "velocity": 93, "duration": 508}, {"note": 82, "velocity": 91, "duration": 765}, {"note": 0, "velocity": 0, "duration": 195}, {"note": 77, "velocity": 94, "duration": 231}, {"note": 80, "velocity": 94, "duration": 417}, {"note": 0, "velocity": 0, "duration": 63}, {"note": 84, "velocity": 82, "duration": 243}, {"note": 82, "velocity": 91, "duration": 274}, {"note": 84, "velocity": 91, "duration": 270}, {"note": 80, "velocity": 91, "duration": 184}, {"note": 79, "velocity": 91, "duration": 201}, {"note": 77, "velocity": 93, "duration": 1419}, {"note": 0, "velocity": 0, "duration": 501}, {"note": 77, "velocity": 91, "duration": 185}, {"note": 75, "velocity": 91, "duration": 156}, {"note": 0, "velocity": 0, "duration": 84}, {"note": 77, "velocity": 95, "duration": 998}, {"note": 80, "velocity": 96, "duration": 509}, {"note": 70, "velocity": 96, "duration": 343}, {"note": 72, "velocity": 87, "duration": 189}, {"note": 70, "velocity": 90, "duration": 184}, {"note": 68, "velocity": 93, "duration": 266}, {"note": 65, "velocity": 91, "duration": 759}, {"note": 0, "velocity": 0, "duration": 201}, {"note": 70, "velocity": 91, "duration": 421}, {"note": 75, "velocity": 93, "duration": 194}, {"note": 77, "velocity": 90, "duration": 196}, {"note": 73, "velocity": 96, "duration": 226}, {"note": 75, "velocity": 90, "duration": 142}, {"note": 0, "velocity": 0, "duration": 98}, {"note": 73, "velocity": 90, "duration": 198}, {"note": 72, "velocity": 85, "duration": 150}, {"note": 0, "velocity": 0, "duration": 90}, {"note": 70, "velocity": 91, "duration": 1473}, {"note": 0, "velocity": 0, "duration": 450}, {"note": 70, "velocity": 96, "duration": 870}, {"note": 77, "velocity": 98, "duration": 276}, {"note": 75, "velocity": 100, "duration": 578}, {"note": 77, "velocity": 90, "duration": 270}, {"note": 73, "velocity": 96, "duration": 480}, {"note": 75, "velocity": 96, "duration": 557}, {"note": 72, "velocity": 92, "duration": 1623}, {"note": 0, "velocity": 0, "duration": 208}, {"note": 68, "velocity": 80, "duration": 627}, {"note": 65, "velocity": 89, "duration": 1083}, {"note": 0, "velocity": 0, "duration": 2792}, {"note": 73, "velocity": 93, "duration": 281}, {"note": 72, "velocity": 89, "duration": 259}, {"note": 70, "velocity": 90, "duration": 2074}]]