[[{"note": 73, "velocity": 90, "duration": 205}, {"note": 71, "velocity": 97, "duration": 178}, {"note": 0, "velocity": 0, "duration": 62}, {"note": 69, "velocity": 90, "duration": 146}, {"note": 0, "velocity": 0, "duration": 94}, {"note": 71, "velocity": 90, "duration": 163}, {"note": 0, "velocity": 0, "duration": 77}, {"note": 66, "velocity": 91, "duration": 141}, {"note": 0, "velocity": 0, "duration": 99}, {"note": 66, "velocity": 91, "duration": 455}, {"note": 0, "velocity": 0, "duration": 265}, {"note": 66, "velocity": 96, "duration": 124}, {"note": 0, "velocity": 0, "duration": 116}, {"note": 69, "velocity": 97, "duration": 114}, {"note": 0, "velocity": 0, "duration": 126}, {"note": 71, "velocity": 90, "duration": 114}, {"note": 0, "velocity": 0, "duration": 126}, {"note": 73, "velocity": 101, "duration": 116}, {"note": 0, "velocity": 0, "duration": 124}, {"note": 76, "velocity": 92, "duration": 125}, {"note": 0, "velocity": 0, "duration": 115}, {"note": 78, "velocity": 95, "duration": 113}, {"note": 0, "velocity": 0, "duration": 127}, {"note": 71, "velocity": 99, "duration": 325}, {"note": 0, "velocity": 0, "duration": 155}, {"note": 73, "velocity": 99, "duration": 125}, {"note": 0, "velocity": 0, "duration": 115}, {"note": 71, "velocity": 94, "duration": 120}, {"note": 0, "velocity": 0, "duration": 120}, {"note": 69, "velocity": 101, "duration": 98}, {"note": 0, "velocity": 0, "duration": 142}, {"note": 71, "velocity": 91, "duration": 136}, {"note": 0, "velocity": 0, "duration": 104}, {"note": 66, "velocity": 92, "duration": 137}, {"note": 0, "velocity": 0, "duration": 103}, {"note": 66, "velocity": 91, "duration": 454}, {"note": 0, "velocity": 0, "duration": 506}, {"note": 64, "velocity": 94, "duration": 188}, {"note": 61, "velocity": 91, "duration": 132}, {"note": 0, "velocity": 0, "duration": 108}, {"note": 64, "velocity": 92, "duration": 147}, {"note": 0, "velocity": 0, "duration": 93}, {"note": 66, "velocity": 89, "duration": 127}, {"note": 0, "velocity": 0, "duration": 113}, {"note": 66, "velocity": 92, "duration": 563}, {"note": 0, "velocity": 0, "duration": 157}, {"note": 73, "velocity": 90, "duration": 205}, {"note": 71, "velocity": 97, "duration": 178}, {"note": 0, "velocity": 0, "duration": 62}, {"note": 69, "velocity": 90, "duration": 146}, {"note": 0, "velocity": 0, "duration": 94}, {"note": 71, "velocity": 90, "duration": 163}, {"note": 0, "velocity": 0, "duration": 77}, {"note": 66, "velocity": 91, "duration": 141}, {"note": 0, "velocity": 0, "duration": 99}, {"note": 66, "velocity": 91, "duration": 455}, {"note": 0, "velocity": 0, "duration": 265}, {"note": 66, "velocity": 96, "duration": 124}, {"note": 0, "velocity": 0, "duration": 116}, {"note": 69, "velocity": 97, "duration": 114}, {"note": 0, "velocity": 0, "duration": 126}, {"note": 71, "velocity": 90, "duration": 114}, {"note": 0, "velocity": 0, "duration": 126}, {"note": 73, "velocity": 101, "duration": 116}, {"note": 0, "velocity": 0, "duration": 124}, {"note": 76, "velocity": 92, "duration": 125}, {"note": 0, "velocity": 0, "duration": 115}, {"note": 78, "velocity": 95, "duration": 113}, {"note": 0, "velocity": 0, "duration": 127}, {"note": 71, "velocity": 99, "duration": 325}, {"note": 0, "velocity": 0, "duration": 155}, {"note": 73, "velocity": 99, "duration": 125}, {"note": 0, "velocity": 0, "duration": 115}, {"note": 71, "velocity": 94, "duration": 120}, {"note": 0, "velocity": 0, "duration": 120}, {"note": 69, "velocity": 101, "duration": 98}, {"note": 0, "velocity": 0, "duration": 142}, {"note": 71, "velocity": 91, "duration": 136}, {"note": 0, "velocity": 0, "duration": 104}, {"note": 66, "velocity": 92, "duration": 137}, {"note": 0, "velocity": 0, "duration": 103}, {"note": 66, "velocity": 91, "duration": 454}, {"note": 0, "velocity": 0, "duration": 506}, {"note": 64, "velocity": 94, "duration": 188}, {"note": 61, "velocity": 91, "duration": 132}, {"note": 0, "velocity": 0, "duration": 108}, {"note": 64, "velocity": 92, "duration": 147}, {"note": 0, "velocity": 0, "duration": 93}, {"note": 66, "velocity": 89, "duration": 127}, {"note": 0, "velocity": 0, "duration": 113}, {"note": 66, "velocity": 95, "duration": 99}, {"note": 0, "velocity": 0, "duration": 141}, {"note": 66, "velocity": 91, "duration": 132}, {"note": 0, "velocity": 0, "duration": 108}, {"note": 71, "velocity": 94, "duration": 379}, {"note": 0, "velocity": 0, "duration": 101}, {"note": 69, "velocity": 95, "duration": 1438}, {"note": 0, "velocity": 0, "duration": 2642}, {"note": 64, "velocity": 94, "duration": 183}, {"note": 71, "velocity": 94, "duration": 394}, {"note": 0, "velocity": 0, "duration": 86}, {"note": 69, "velocity": 91, "duration": 1304}, {"note": 0, "velocity": 0, "duration": 1336}, {"note": 73, "velocity": 90, "duration": 205}, {"note": 71, "velocity": 97, "duration": 178}, {"note": 0, "velocity": 0, "duration": 62}, {"note": 69, "velocity": 90, "duration": 146}, {"note": 0, "velocity": 0, "duration": 94}, {"note": 71, "velocity": 90, "duration": 163}, {"note": 0, "velocity": 0, "duration": 77}, {"note": 66, "velocity": 91, "duration": 141}, {"note": 0, "velocity": 0, "duration": 99}, {"note": 66, "velocity": 91, "duration": 455}, {"note": 0, "velocity": 0, "duration": 265}, {"note": 66, "velocity": 96, "duration": 124}, {"note": 0, "velocity": 0, "duration": 116}, {"note": 69, "velocity": 97, "duration": 114}, {"note": 0, "velocity": 0, "duration": 126}, {"note": 71, "velocity": 90, "duration": 114}, {"note": 0, "velocity": 0, "duration": 126}, {"note": 73, "velocity": 101, "duration": 116}, {"note": 0, "velocity": 0, "duration": 124}, {"note": 76, "velocity": 92, "duration": 125}, {"note": 0, "velocity": 0, "duration": 115}, {"note": 78, "velocity": 95, "duration": 113}, {"note": 0, "velocity": 0, "duration": 127}, {"note": 71, "velocity": 99, "duration": 325}, {"note": 0, "velocity": 0, "duration": 155}, {"note": 73, "velocity": 99, "duration": 125}, {"note": 0, "velocity": 0, "duration": 115}, {"note": 71, "velocity": 94, "duration": 120}, {"note": 0, "velocity": 0, "duration": 120}, {"note": 69, "velocity": 101, "duration": 98}, {"note": 0, "velocity": 0, "duration": 142}, {"note": 71, "velocity": 91, "duration": 136}, {"note": 0, "velocity": 0, "duration": 104}, {"note": 66, "velocity": 92, "duration": 137}, {"note": 0, "velocity": 0, "duration": 103}, {"note": 66, "velocity": 91, "duration": 454}, {"note": 0, "velocity": 0, "duration": 506}, {"note": 64, "velocity": 94, "duration": 188}, {"note": 61, "velocity": 91, "duration": 132}, {"note": 0, "velocity": 0, "duration": 108}, {"note": 64, "velocity": 92, "duration": 147}, {"note": 0, "velocity": 0, "duration": 93}, {"note": 66, "velocity": 89, "duration": 127}, {"note": 0, "velocity": 0, "duration": 113}, {"note": 66, "velocity": 92, "duration": 563}, {"note": 0, "velocity": 0, "duration": 157}, {"note": 73, "velocity": 90, "duration": 205}, {"note": 71, "velocity": 97, "duration": 178}, {"note": 0, "velocity": 0, "duration": 62}, {"note": 69, "velocity": 90, "duration": 146}, {"note": 0, "velocity": 0, "duration": 94}, {"note": 71, "velocity": 90, "duration": 163}, {"note": 0, "velocity": 0, "duration": 77}, {"note": 66, "velocity": 91, "duration": 141}, {"note": 0, "velocity": 0, "duration": 99}, {"note": 66, "velocity": 91, "duration": 455}, {"note": 0, "velocity": 0, "duration": 265}, {"note": 66, "velocity": 96, "duration": 124}, {"note": 0, "velocity": 0, "duration": 116}, {"note": 69, "velocity": 97, "duration": 114}, {"note": 0, "velocity": 0, "duration": 126}, {"note": 71, "velocity": 90, "duration": 114}, {"note": 0, "velocity": 0, "duration": 126}, {"note": 73, "velocity": 101, "duration": 116}, {"note": 0, "velocity": 0, "duration": 124}, {"note": 76, "velocity": 92, "duration": 125}, {"note": 0, "velocity": 0, "duration": 115}, {"note": 78, "velocity": 95, "duration": 113}, {"note": 0, "velocity": 0, "duration": 127}, {"note": 71, "velocity": 99, "duration": 325}, {"note": 0, "velocity": 0, "duration": 155}, {"note": 73, "velocity": 99, "duration": 125}, {"note": 0, "velocity": 0, "duration": 115}, {"note": 71, "velocity": 94, "duration": 120}, {"note": 0, "velocity": 0, "duration": 120}, {"note": 69, "velocity": 101, "duration": 98}, {"note": 0, "velocity": 0, "duration": 142}, {"note": 71, "velocity": 91, "duration": 136}, {"note": 0, "velocity": 0, "duration": 104}, {"note": 66, "velocity": 92, "duration": 137}, {"note": 0, "velocity": 0, "duration": 103}, {"note": 66, "velocity": 91, "duration": 454}, {"note": 0, "velocity": 0, "duration": 506}, {"note": 64, "velocity": 94, "duration": 188}, {"note": 61, "velocity": 91, "duration": 132}, {"note": 0, "velocity": 0, "duration": 108}, {"note": 64, "velocity": 92, "duration": 147}, {"note": 0, "velocity": 0, "duration": 93}, {"note": 66, "velocity": 89, "duration": 127}, {"note": 0, "velocity": 0, "duration": 113}, {"note": 66, "velocity": 95, "duration": 99}, {"note": 0, "velocity": 0, "duration": 141}, {"note": 66, "velocity": 91, "duration": 132}, {"note": 0, "velocity": 0, "duration": 108}, {"note": 71, "velocity": 94, "duration": 379}, {"note": 0, "velocity": 0, "duration": 101}, {"note": 69, "velocity": 95, "duration": 1438}, {"note": 73, "velocity": 116, "duration": 370}, {"note": 0, "velocity": 0, "duration": 110}, {"note": 76, "velocity": 97, "duration": 384}, {"note": 0, "velocity": 0, "duration": 96}, {"note": 78, "velocity": 95, "duration": 900}, {"note": 73, "velocity": 99, "duration": 142}, {"note": 0, "velocity": 0, "duration": 98}, {"note": 76, "velocity": 92, "duration": 154}, {"note": 0, "velocity": 0, "duration": 86}, {"note": 78, "velocity": 96, "duration": 137}, {"note": 0, "velocity": 0, "duration": 103}, {"note": 71, "velocity": 97, "duration": 375}, {"note": 0, "velocity": 0, "duration": 105}, {"note": 69, "velocity": 97, "duration": 551}, {"note": 0, "velocity": 0, "duration": 169}, {"note": 73, "velocity": 101, "duration": 135}, {"note": 0, "velocity": 0, "duration": 105}, {"note": 76, "velocity": 94, "duration": 152}, {"note": 0, "velocity": 0, "duration": 88}, {"note": 78, "velocity": 101, "duration": 142}, {"note": 0, "velocity": 0, "duration": 98}, {"note": 71, "velocity": 101, "duration": 362}, {"note": 0, "velocity": 0, "duration": 118}, {"note": 69, "velocity": 93, "duration": 130}, {"note": 0, "velocity": 0, "duration": 110}, {"note": 69, "velocity": 99, "duration": 174}, {"note": 0, "velocity": 0, "duration": 66}, {"note": 64, "velocity": 101, "duration": 161}, {"note": 0, "velocity": 0, "duration": 79}, {"note": 76, "velocity": 94, "duration": 362}, {"note": 0, "velocity": 0, "duration": 118}, {"note": 71, "velocity": 88, "duration": 178}, {"note": 0, "velocity": 0, "duration": 62}, {"note": 73, "velocity": 92, "duration": 732}, {"note": 0, "velocity": 0, "duration": 468}, {"note": 73, "velocity": 104, "duration": 353}, {"note": 0, "velocity": 0, "duration": 127}, {"note": 76, "velocity": 99, "duration": 331}, {"note": 0, "velocity": 0, "duration": 149}, {"note": 78, "velocity": 91, "duration": 834}, {"note": 0, "velocity": 0, "duration": 126}, {"note": 81, "velocity": 97, "duration": 186}, {"note": 80, "velocity": 88, "duration": 184}, {"note": 78, "velocity": 93, "duration": 127}, {"note": 0, "velocity": 0, "duration": 113}, {"note": 71, "velocity": 97, "duration": 365}, {"note": 0, "velocity": 0, "duration": 115}, {"note": 69, "velocity": 92, "duration": 478}, {"note": 73, "velocity": 104, "duration": 109}, {"note": 0, "velocity": 0, "duration": 131}, {"note": 81, "velocity": 94, "duration": 157}, {"note": 0, "velocity": 0, "duration": 83}, {"note": 80, "velocity": 91, "duration": 173}, {"note": 0, "velocity": 0, "duration": 67}, {"note": 78, "velocity": 99, "duration": 117}, {"note": 0, "velocity": 0, "duration": 123}, {"note": 71, "velocity": 94, "duration": 388}, {"note": 0, "velocity": 0, "duration": 92}, {"note": 69, "velocity": 94, "duration": 238}, {"note": 71, "velocity": 91, "duration": 159}, {"note": 0, "velocity": 0, "duration": 81}, {"note": 73, "velocity": 92, "duration": 168}, {"note": 0, "velocity": 0, "duration": 72}, {"note": 71, "velocity": 92, "duration": 238}, {"note": 69, "velocity": 92, "duration": 208}, {"note": 66, "velocity": 90, "duration": 135}, {"note": 0, "velocity": 0, "duration": 105}, {"note": 69, "velocity": 91, "duration": 903}, {"note": 0, "velocity": 0, "duration": 297}, {"note": 73, "velocity": 116, "duration": 370}, {"note": 0, "velocity": 0, "duration": 110}, {"note": 76, "velocity": 97, "duration": 384}, {"note": 0, "velocity": 0, "duration": 96}, {"note": 78, "velocity": 95, "duration": 900}, {"note": 73, "velocity": 99, "duration": 142}, {"note": 0, "velocity": 0, "duration": 98}, {"note": 76, "velocity": 92, "duration": 154}, {"note": 0, "velocity": 0, "duration": 86}, {"note": 78, "velocity": 96, "duration": 137}, {"note": 0, "velocity": 0, "duration": 103}, {"note": 71, "velocity": 97, "duration": 375}, {"note": 0, "velocity": 0, "duration": 105}, {"note": 69, "velocity": 97, "duration": 551}, {"note": 0, "velocity": 0, "duration": 169}, {"note": 73, "velocity": 101, "duration": 135}, {"note": 0, "velocity": 0, "duration": 105}, {"note": 76, "velocity": 94, "duration": 152}, {"note": 0, "velocity": 0, "duration": 88}, {"note": 78, "velocity": 101, "duration": 142}, {"note": 0, "velocity": 0, "duration": 98}, {"note": 71, "velocity": 101, "duration": 362}, {"note": 0, "velocity": 0, "duration": 118}, {"note": 69, "velocity": 93, "duration": 130}, {"note": 0, "velocity": 0, "duration": 110}, {"note": 69, "velocity": 99, "duration": 174}, {"note": 0, "velocity": 0, "duration": 66}, {"note": 64, "velocity": 101, "duration": 161}, {"note": 0, "velocity": 0, "duration": 79}, {"note": 76, "velocity": 94, "duration": 362}, {"note": 0, "velocity": 0, "duration": 118}, {"note": 71, "velocity": 88, "duration": 178}, {"note": 0, "velocity": 0, "duration": 62}, {"note": 73, "velocity": 92, "duration": 732}, {"note": 0, "velocity": 0, "duration": 468}, {"note": 73, "velocity": 104, "duration": 353}, {"note": 0, "velocity": 0, "duration": 127}, {"note": 76, "velocity": 99, "duration": 331}, {"note": 0, "velocity": 0, "duration": 149}, {"note": 78, "velocity": 91, "duration": 834}, {"note": 0, "velocity": 0, "duration": 126}, {"note": 81, "velocity": 97, "duration": 186}, {"note": 80, "velocity": 88, "duration": 184}, {"note": 78, "velocity": 93, "duration": 127}, {"note": 0, "velocity": 0, "duration": 113}, {"note": 71, "velocity": 97, "duration": 365}, {"note": 0, "velocity": 0, "duration": 115}, {"note": 69, "velocity": 92, "duration": 478}, {"note": 73, "velocity": 104, "duration": 109}, {"note": 0, "velocity": 0, "duration": 131}, {"note": 81, "velocity": 94, "duration": 157}, {"note": 0, "velocity": 0, "duration": 83}, {"note": 80, "velocity": 91, "duration": 173}, {"note": 0, "velocity": 0, "duration": 67}, {"note": 78, "velocity": 99, "duration": 117}, {"note": 0, "velocity": 0, "duration": 123}, {"note": 71, "velocity": 94, "duration": 388}, {"note": 0, "velocity": 0, "duration": 92}, {"note": 69, "velocity": 94, "duration": 238}, {"note": 71, "velocity": 91, "duration": 159}, {"note": 0, "velocity": 0, "duration": 81}, {"note": 73, "velocity": 92, "duration": 168}, {"note": 0, "velocity": 0, "duration": 72}, {"note": 71, "velocity": 92, "duration": 238}, {"note": 69, "velocity": 92, "duration": 208}, {"note": 66, "velocity": 90, "duration": 135}, {"note": 0, "velocity": 0, "duration": 105}, {"note": 71, "velocity": 94, "duration": 404}, {"note": 0, "velocity": 0, "duration": 76}, {"note": 69, "velocity": 93, "duration": 142}, {"note": 0, "velocity": 0, "duration": 98}, {"note": 71, "velocity": 92, "duration": 125}, {"note": 0, "velocity": 0, "duration": 115}, {"note": 73, "velocity": 91, "duration": 152}, {"note": 0, "velocity": 0, "duration": 88}, {"note": 71, "velocity": 95, "duration": 188}, {"note": 69, "velocity": 92, "duration": 147}, {"note": 0, "velocity": 0, "duration": 93}, {"note": 69, "velocity": 85, "duration": 183}, {"note": 66, "velocity": 93, "duration": 148}, {"note": 0, "velocity": 0, "duration": 92}, {"note": 74, "velocity": 97, "duration": 737}, {"note": 0, "velocity": 0, "duration": 223}, {"note": 76, "velocity": 93, "duration": 147}, {"note": 0, "velocity": 0, "duration": 93}, {"note": 73, "velocity": 92, "duration": 183}, {"note": 71, "velocity": 94, "duration": 238}, {"note": 69, "velocity": 94, "duration": 238}, {"note": 66, "velocity": 92, "duration": 1023}, {"note": 0, "velocity": 0, "duration": 5937}, {"note": 73, "velocity": 90, "duration": 205}, {"note": 71, "velocity": 97, "duration": 178}, {"note": 0, "velocity": 0, "duration": 62}, {"note": 69, "velocity": 90, "duration": 146}, {"note": 0, "velocity": 0, "duration": 94}, {"note": 71, "velocity": 90, "duration": 163}, {"note": 0, "velocity": 0, "duration": 77}, {"note": 66, "velocity": 91, "duration": 141}, {"note": 0, "velocity": 0, "duration": 99}, {"note": 66, "velocity": 91, "duration": 455}, {"note": 0, "velocity": 0, "duration": 265}, {"note": 66, "velocity": 96, "duration": 124}, {"note": 0, "velocity": 0, "duration": 116}, {"note": 69, "velocity": 97, "duration": 114}, {"note": 0, "velocity": 0, "duration": 126}, {"note": 71, "velocity": 90, "duration": 114}, {"note": 0, "velocity": 0, "duration": 126}, {"note": 73, "velocity": 101, "duration": 116}, {"note": 0, "velocity": 0, "duration": 124}, {"note": 76, "velocity": 92, "duration": 125}, {"note": 0, "velocity": 0, "duration": 115}, {"note": 78, "velocity": 95, "duration": 113}, {"note": 0, "velocity": 0, "duration": 127}, {"note": 71, "velocity": 99, "duration": 325}, {"note": 0, "velocity": 0, "duration": 155}, {"note": 73, "velocity": 99, "duration": 125}, {"note": 0, "velocity": 0, "duration": 115}, {"note": 71, "velocity": 94, "duration": 120}, {"note": 0, "velocity": 0, "duration": 120}, {"note": 69, "velocity": 101, "duration": 98}, {"note": 0, "velocity": 0, "duration": 142}, {"note": 71, "velocity": 91, "duration": 136}, {"note": 0, "velocity": 0, "duration": 104}, {"note": 66, "velocity": 92, "duration": 137}, {"note": 0, "velocity": 0, "duration": 103}, {"note": 66, "velocity": 91, "duration": 454}, {"note": 0, "velocity": 0, "duration": 506}, {"note": 64, "velocity": 94, "duration": 188}, {"note": 61, "velocity": 91, "duration": 132}, {"note": 0, "velocity": 0, "duration": 108}, {"note": 64, "velocity": 92, "duration": 147}, {"note": 0, "velocity": 0, "duration": 93}, {"note": 66, "velocity": 89, "duration": 127}, {"note": 0, "velocity": 0, "duration": 113}, {"note": 66, "velocity": 92, "duration": 563}, {"note": 0, "velocity": 0, "duration": 157}, {"note": 73, "velocity": 90, "duration": 205}, {"note": 71, "velocity": 97, "duration": 178}, {"note": 0, "velocity": 0, "duration": 62}, {"note": 69, "velocity": 90, "duration": 146}, {"note": 0, "velocity": 0, "duration": 94}, {"note": 71, "velocity": 90, "duration": 163}, {"note": 0, "velocity": 0, "duration": 77}, {"note": 66, "velocity": 91, "duration": 141}, {"note": 0, "velocity": 0, "duration": 99}, {"note": 66, "velocity": 91, "duration": 455}, {"note": 0, "velocity": 0, "duration": 265}, {"note": 66, "velocity": 96, "duration": 124}, {"note": 0, "velocity": 0, "duration": 116}, {"note": 69, "velocity": 97, "duration": 114}, {"note": 0, "velocity": 0, "duration": 126}, {"note": 71, "velocity": 90, "duration": 114}, {"note": 0, "velocity": 0, "duration": 126}, {"note": 73, "velocity": 101, "duration": 116}, {"note": 0, "velocity": 0, "duration": 124}, {"note": 76, "velocity": 92, "duration": 125}, {"note": 0, "velocity": 0, "duration": 115}, {"note": 78, "velocity": 95, "duration": 113}, {"note": 0, "velocity": 0, "duration": 127}, {"note": 71, "velocity": 99, "duration": 325}, {"note": 0, "velocity": 0, "duration": 155}, {"note": 73, "velocity": 99, "duration": 125}, {"note": 0, "velocity": 0, "duration": 115}, {"note": 71, "velocity": 94, "duration": 120}, {"note": 0, "velocity": 0, "duration": 120}, {"note": 69, "velocity": 101, "duration": 98}, {"note": 0, "velocity": 0, "duration": 142}, {"note": 71, "velocity": 91, "duration": 136}, {"note": 0, "velocity": 0, "duration": 104}, {"note": 66, "velocity": 92, "duration": 137}, {"note": 0, "velocity": 0, "duration": 103}, {"note": 66, "velocity": 91, "duration": 454}, {"note": 0, "velocity": 0, "duration": 506}, {"note": 64, "velocity": 94, "duration": 188}, {"note": 61, "velocity": 91, "duration": 132}, {"note": 0, "velocity": 0, "duration": 108}, {"note": 64, "velocity": 92, "duration": 147}, {"note": 0, "velocity": 0, "duration": 93}, {"note": 66, "velocity": 89, "duration": 127}, {"note": 0, "velocity": 0, "duration": 113}, {"note": 66, "velocity": 95, "duration": 99}, {"note": 0, "velocity": 0, "duration": 141}, {"note": 66, "velocity": 91, "duration": 132}, {"note": 0, "velocity": 0, "duration": 108}, {"note": 71, "velocity": 94, "duration": 379}, {"note": 0, "velocity": 0, "duration": 101}, {"note": 69, "velocity": 95, "duration": 1438}, {"note": 73, "velocity": 116, "duration": 370}, {"note": 0, "velocity": 0, "duration": 110}, {"note": 76, "velocity": 97, "duration": 384}, {"note": 0, "velocity": 0, "duration": 96}, {"note": 78, "velocity": 95, "duration": 900}, {"note": 73, "velocity": 99, "duration": 142}, {"note": 0, "velocity": 0, "duration": 98}, {"note": 76, "velocity": 92, "duration": 154}, {"note": 0, "velocity": 0, "duration": 86}, {"note": 78, "velocity": 96, "duration": 137}, {"note": 0, "velocity": 0, "duration": 103}, {"note": 71, "velocity": 97, "duration": 375}, {"note": 0, "velocity": 0, "duration": 105}, {"note": 69, "velocity": 97, "duration": 551}, {"note": 0, "velocity": 0, "duration": 169}, {"note": 73, "velocity": 101, "duration": 135}, {"note": 0, "velocity": 0, "duration": 105}, {"note": 76, "velocity": 94, "duration": 152}, {"note": 0, "velocity": 0, "duration": 88}, {"note": 78, "velocity": 101, "duration": 142}, {"note": 0, "velocity": 0, "duration": 98}, {"note": 71, "velocity": 101, "duration": 362}, {"note": 0, "velocity": 0, "duration": 118}, {"note": 69, "velocity": 93, "duration": 130}, {"note": 0, "velocity": 0, "duration": 110}, {"note": 69, "velocity": 99, "duration": 174}, {"note": 0, "velocity": 0, "duration": 66}, {"note": 64, "velocity": 101, "duration": 161}, {"note": 0, "velocity": 0, "duration": 79}, {"note": 76, "velocity": 94, "duration": 362}, {"note": 0, "velocity": 0, "duration": 118}, {"note": 71, "velocity": 88, "duration": 178}, {"note": 0, "velocity": 0, "duration": 62}, {"note": 73, "velocity": 92, "duration": 732}, {"note": 0, "velocity": 0, "duration": 468}, {"note": 73, "velocity": 104, "duration": 353}, {"note": 0, "velocity": 0, "duration": 127}, {"note": 76, "velocity": 99, "duration": 331}, {"note": 0, "velocity": 0, "duration": 149}, {"note": 78, "velocity": 91, "duration": 834}, {"note": 0, "velocity": 0, "duration": 126}, {"note": 81, "velocity": 97, "duration": 186}, {"note": 80, "velocity": 88, "duration": 184}, {"note": 78, "velocity": 93, "duration": 127}, {"note": 0, "velocity": 0, "duration": 113}, {"note": 71, "velocity": 97, "duration": 365}, {"note": 0, "velocity": 0, "duration": 115}, {"note": 69, "velocity": 92, "duration": 478}, {"note": 73, "velocity": 104, "duration": 109}, {"note": 0, "velocity": 0, "duration": 131}, {"note": 81, "velocity": 94, "duration": 157}, {"note": 0, "velocity": 0, "duration": 83}, {"note": 80, "velocity": 91, "duration": 173}, {"note": 0, "velocity": 0, "duration": 67}, {"note": 78, "velocity": 99, "duration": 117}, {"note": 0, "velocity": 0, "duration": 123}, {"note": 71, "velocity": 94, "duration": 388}, {"note": 0, "velocity": 0, "duration": 92}, {"note": 69, "velocity": 94, "duration": 238}, {"note": 71, "velocity": 91, "duration": 159}, {"note": 0, "velocity": 0, "duration": 81}, {"note": 73, "velocity": 92, "duration": 168}, {"note": 0, "velocity": 0, "duration": 72}, {"note": 71, "velocity": 92, "duration": 238}, {"note": 69, "velocity": 92, "duration": 208}, {"note": 66, "velocity": 90, "duration": 135}, {"note": 0, "velocity": 0, "duration": 105}, {"note": 69, "velocity": 91, "duration": 903}, {"note": 0, "velocity": 0, "duration": 297}, {"note": 73, "velocity": 116, "duration": 370}, {"note": 0, "velocity": 0, "duration": 110}, {"note": 76, "velocity": 97, "duration": 384}, {"note": 0, "velocity": 0, "duration": 96}, {"note": 78, "velocity": 95, "duration": 900}, {"note": 73, "velocity": 99, "duration": 142}, {"note": 0, "velocity": 0, "duration": 98}, {"note": 76, "velocity": 92, "duration": 154}, {"note": 0, "velocity": 0, "duration": 86}, {"note": 78, "velocity": 96, "duration": 137}, {"note": 0, "velocity": 0, "duration": 103}, {"note": 71, "velocity": 97, "duration": 375}, {"note": 0, "velocity": 0, "duration": 105}, {"note": 69, "velocity": 97, "duration": 551}, {"note": 0, "velocity": 0, "duration": 169}, {"note": 73, "velocity": 101, "duration": 135}, {"note": 0, "velocity": 0, "duration": 105}, {"note": 76, "velocity": 94, "duration": 152}, {"note": 0, "velocity": 0, "duration": 88}, {"note": 78, "velocity": 101, "duration": 142}, {"note": 0, "velocity": 0, "duration": 98}, {"note": 71, "velocity": 101, "duration": 362}, {"note": 0, "velocity": 0, "duration": 118}, {"note": 69, "velocity": 93, "duration": 130}, {"note": 0, "velocity": 0, "duration": 110}, {"note": 69, "velocity": 99, "duration": 174}, {"note": 0, "velocity": 0, "duration": 66}, {"note": 64, "velocity": 101, "duration": 161}, {"note": 0, "velocity": 0, "duration": 79}, {"note": 76, "velocity": 94, "duration": 362}, {"note": 0, "velocity": 0, "duration": 118}, {"note": 71, "velocity": 88, "duration": 178}, {"note": 0, "velocity": 0, "duration": 62}, {"note": 73, "velocity": 92, "duration": 732}, {"note": 0, "velocity": 0, "duration": 468}, {"note": 73, "velocity": 104, "duration": 353}, {"note": 0, "velocity": 0, "duration": 127}, {"note": 76, "velocity": 99, "duration": 331}, {"note": 0, "velocity": 0, "duration": 149}, {"note": 78, "velocity": 91, "duration": 834}, {"note": 0, "velocity": 0, "duration": 126}, {"note": 81, "velocity": 97, "duration": 186}, {"note": 80, "velocity": 88, "duration": 184}, {"note": 78, "velocity": 93, "duration": 127}, {"note": 0, "velocity": 0, "duration": 113}, {"note": 71, "velocity": 97, "duration": 365}, {"note": 0, "velocity": 0, "duration": 115}, {"note": 69, "velocity": 92, "duration": 478}, {"note": 73, "velocity": 104, "duration": 109}, {"note": 0, "velocity": 0, "duration": 131}, {"note": 81, "velocity": 94, "duration": 157}, {"note": 0, "velocity": 0, "duration": 83}, {"note": 80, "velocity": 91, "duration": 173}, {"note": 0, "velocity": 0, "duration": 67}, {"note": 78, "velocity": 99, "duration": 117}, {"note": 0, "velocity": 0, "duration": 123}, {"note": 71, "velocity": 94, "duration": 388}, {"note": 0, "velocity": 0, "duration": 92}, {"note": 69, "velocity": 94, "duration": 238}, {"note": 71, "velocity": 91, "duration": 159}, {"note": 0, "velocity": 0, "duration": 81}, {"note": 73, "velocity": 92, "duration": 168}, {"note": 0, "velocity": 0, "duration": 72}, {"note": 71, "velocity": 92, "duration": 238}, {"note": 69, "velocity": 92, "duration": 208}, {"note": 66, "velocity": 90, "duration": 135}, {"note": 0, "velocity": 0, "duration": 105}, {"note": 71, "velocity": 94, "duration": 404}, {"note": 0, "velocity": 0, "duration": 76}, {"note": 69, "velocity": 93, "duration": 142}, {"note": 0, "velocity": 0, "duration": 98}, {"note": 71, "velocity": 92, "duration": 125}, {"note": 0, "velocity": 0, "duration": 115}, {"note": 73, "velocity": 91, "duration": 152}, {"note": 0, "velocity": 0, "duration": 88}, {"note": 71, "velocity": 95, "duration": 188}, {"note": 69, "velocity": 92, "duration": 147}, {"note": 0, "velocity": 0, "duration": 93}, {"note": 69, "velocity": 85, "duration": 183}, {"note": 66, "velocity": 93, "duration": 148}, {"note": 0, "velocity": 0, "duration": 92}, {"note": 74, "velocity": 97, "duration": 737}, {"note": 0, "velocity": 0, "duration": 223}, {"note": 76, "velocity": 93, "duration": 147}, {"note": 0, "velocity": 0, "duration": 93}, {"note": 73, "velocity": 92, "duration": 183}, {"note": 71, "velocity": 94, "duration": 238}, {"note": 69, "velocity": 94, "duration": 238}, {"note": 66, "velocity": 92, "duration": 1023}, {"note": 0, "velocity": 0, "duration": 13377}, {"note": 73, "velocity": 116, "duration": 370}, {"note": 0, "velocity": 0, "duration": 110}, {"note": 76, "velocity": 97, "duration": 384}, {"note": 0, "velocity": 0, "duration": 96}, {"note": 78, "velocity": 95, "duration": 900}, {"note": 73, "velocity": 99, "duration": 142}, {"note": 0, "velocity": 0, "duration": 98}, {"note": 76, "velocity": 92, "duration": 154}, {"note": 0, "velocity": 0, "duration": 86}, {"note": 78, "velocity": 96, "duration": 137}, {"note": 0, "velocity": 0, "duration": 103}, {"note": 71, "velocity": 97, "duration": 375}, {"note": 0, "velocity": 0, "duration": 105}, {"note": 69, "velocity": 97, "duration": 551}, {"note": 0, "velocity": 0, "duration": 169}, {"note": 73, "velocity": 101, "duration": 135}, {"note": 0, "velocity": 0, "duration": 105}, {"note": 76, "velocity": 94, "duration": 152}, {"note": 0, "velocity": 0, "duration": 88}, {"note": 78, "velocity": 101, "duration": 142}, {"note": 0, "velocity": 0, "duration": 98}, {"note": 71, "velocity": 101, "duration": 362}, {"note": 0, "velocity": 0, "duration": 118}, {"note": 69, "velocity": 93, "duration": 130}, {"note": 0, "velocity": 0, "duration": 110}, {"note": 69, "velocity": 99, "duration": 174}, {"note": 0, "velocity": 0, "duration": 66}, {"note": 64, "velocity": 101, "duration": 161}, {"note": 0, "velocity": 0, "duration": 79}, {"note": 76, "velocity": 94, "duration": 362}, {"note": 0, "velocity": 0, "duration": 118}, {"note": 71, "velocity": 88, "duration": 178}, {"note": 0, "velocity": 0, "duration": 62}, {"note": 73, "velocity": 92, "duration": 732}, {"note": 0, "velocity": 0, "duration": 468}, {"note": 73, "velocity": 104, "duration": 353}, {"note": 0, "velocity": 0, "duration": 127}, {"note": 76, "velocity": 99, "duration": 331}, {"note": 0, "velocity": 0, "duration": 149}, {"note": 78, "velocity": 91, "duration": 834}, {"note": 0, "velocity": 0, "duration": 126}, {"note": 81, "velocity": 97, "duration": 186}, {"note": 80, "velocity": 88, "duration": 184}, {"note": 78, "velocity": 93, "duration": 127}, {"note": 0, "velocity": 0, "duration": 113}, {"note": 71, "velocity": 97, "duration": 365}, {"note": 0, "velocity": 0, "duration": 115}, {"note": 69, "velocity": 92, "duration": 478}, {"note": 73, "velocity": 104, "duration": 109}, {"note": 0, "velocity": 0, "duration": 131}, {"note": 81, "velocity": 94, "duration": 157}, {"note": 0, "velocity": 0, "duration": 83}, {"note": 80, "velocity": 91, "duration": 173}, {"note": 0, "velocity": 0, "duration": 67}, {"note": 78, "velocity": 99, "duration": 117}, {"note": 0, "velocity": 0, "duration": 123}, {"note": 71, "velocity": 94, "duration": 388}, {"note": 0, "velocity": 0, "duration": 92}, {"note": 69, "velocity": 94, "duration": 238}, {"note": 71, "velocity": 91, "duration": 159}, {"note": 0, "velocity": 0, "duration": 81}, {"note": 73, "velocity": 92, "duration": 168}, {"note": 0, "velocity": 0, "duration": 72}, {"note": 71, "velocity": 92, "duration": 238}, {"note": 69, "velocity": 92, "duration": 208}, {"note": 66, "velocity": 90, "duration": 135}, {"note": 0, "velocity": 0, "duration": 105}, {"note": 69, "velocity": 91, "duration": 903}, {"note": 0, "velocity": 0, "duration": 297}, {"note": 73, "velocity": 116, "duration": 370}, {"note": 0, "velocity": 0, "duration": 110}, {"note": 76, "velocity": 97, "duration": 384}, {"note": 0, "velocity": 0, "duration": 96}, {"note": 78, "velocity": 95, "duration": 900}, {"note": 73, "velocity": 99, "duration": 142}, {"note": 0, "velocity": 0, "duration": 98}, {"note": 76, "velocity": 92, "duration": 154}, {"note": 0, "velocity": 0, "duration": 86}, {"note": 78, "velocity": 96, "duration": 137}, {"note": 0, "velocity": 0, "duration": 103}, {"note": 71, "velocity": 97, "duration": 375}, {"note": 0, "velocity": 0, "duration": 105}, {"note": 69, "velocity": 97, "duration": 551}, {"note": 0, "velocity": 0, "duration": 169}, {"note": 73, "velocity": 101, "duration": 135}, {"note": 0, "velocity": 0, "duration": 105}, {"note": 76, "velocity": 94, "duration": 152}, {"note": 0, "velocity": 0, "duration": 88}, {"note": 78, "velocity": 101, "duration": 142}, {"note": 0, "velocity": 0, "duration": 98}, {"note": 71, "velocity": 101, "duration": 362}, {"note": 0, "velocity": 0, "duration": 118}, {"note": 69, "velocity": 93, "duration": 130}, {"note": 0, "velocity": 0, "duration": 110}, {"note": 69, "velocity": 99, "duration": 174}, {"note": 0, "velocity": 0, "duration": 66}, {"note": 64, "velocity": 101, "duration": 161}, {"note": 0, "velocity": 0, "duration": 79}, {"note": 76, "velocity": 94, "duration": 362}, {"note": 0, "velocity": 0, "duration": 118}, {"note": 71, "velocity": 88, "duration": 178}, {"note": 0, "velocity": 0, "duration": 62}, {"note": 73, "velocity": 92, "duration": 732}, {"note": 0, "velocity": 0, "duration": 468}, {"note": 73, "velocity": 104, "duration": 353}, {"note": 0, "velocity": 0, "duration": 127}, {"note": 76, "velocity": 99, "duration": 331}, {"note": 0, "velocity": 0, "duration": 149}, {"note": 78, "velocity": 91, "duration": 834}, {"note": 0, "velocity": 0, "duration": 126}, {"note": 81, "velocity": 97, "duration": 186}, {"note": 80, "velocity": 88, "duration": 184}, {"note": 78, "velocity": 93, "duration": 127}, {"note": 0, "velocity": 0, "duration": 113}, {"note": 71, "velocity": 97, "duration": 365}, {"note": 0, "velocity": 0, "duration": 115}, {"note": 69, "velocity": 92, "duration": 478}, {"note": 73, "velocity": 104, "duration": 109}, {"note": 0, "velocity": 0, "duration": 131}, {"note": 81, "velocity": 94, "duration": 157}, {"note": 0, "velocity": 0, "duration": 83}, {"note": 80, "velocity": 91, "duration": 173}, {"note": 0, "velocity": 0, "duration": 67}, {"note": 78, "velocity": 99, "duration": 117}, {"note": 0, "velocity": 0, "duration": 123}, {"note": 71, "velocity": 94, "duration": 388}, {"note": 0, "velocity": 0, "duration": 92}, {"note": 69, "velocity": 94, "duration": 238}, {"note": 71, "velocity": 91, "duration": 159}, {"note": 0, "velocity": 0, "duration": 81}, {"note": 73, "velocity": 92, "duration": 168}, {"note": 0, "velocity": 0, "duration": 72}, {"note": 71, "velocity": 92, "duration": 238}, {"note": 69, "velocity": 92, "duration": 208}, {"note": 66, "velocity": 90, "duration": 135}, {"note": 0, "velocity": 0, "duration": 105}, {"note": 71, "velocity": 94, "duration": 404}, {"note": 0, "velocity": 0, "duration": 76}, {"note": 69, "velocity": 93, "duration": 142}, {"note": 0, "velocity": 0, "duration": 98}, {"note": 71, "velocity": 92, "duration": 125}, {"note": 0, "velocity": 0, "duration": 115}, {"note": 73, "velocity": 91, "duration": 152}, {"note": 0, "velocity": 0, "duration": 88}, {"note": 71, "velocity": 95, "duration": 188}, {"note": 69, "velocity": 92, "duration": 147}, {"note": 0, "velocity": 0, "duration": 93}, {"note": 69, "velocity": 85, "duration": 183}, {"note": 66, "velocity": 93, "duration": 148}, {"note": 0, "velocity": 0, "duration": 92}, {"note": 74, "velocity": 97, "duration": 737}, {"note": 0, "velocity": 0, "duration": 223}, {"note": 76, "velocity": 93, "duration": 147}, {"note": 0, "velocity": 0, "duration": 93}, {"note": 73, "velocity": 92, "duration": 183}, {"note": 71, "velocity": 94, "duration": 238}, {"note": 69, "velocity": 94, "duration": 238}, {"note": 66, "velocity": 92, "duration": 1023}]]