[[{"note": 61, "velocity": 87, "duration": 165}, {"note": 0, "velocity": 0, "duration": 75}, {"note": 66, "velocity": 81, "duration": 155}, {"note": 0, "velocity": 0, "duration": 85}, {"note": 66, "velocity": 86, "duration": 123}, {"note": 0, "velocity": 0, "duration": 117}, {"note": 66, "velocity": 86, "duration": 110}, {"note": 0, "velocity": 0, "duration": 130}, {"note": 66, "velocity": 77, "duration": 62}, {"note": 66, "velocity": 79, "duration": 67}, {"note": 64, "velocity": 88, "duration": 130}, {"note": 66, "velocity": 97, "duration": 120}, {"note": 66, "velocity": 97, "duration": 120}, {"note": 66, "velocity": 97, "duration": 120}, {"note": 66, "velocity": 97, "duration": 120}, {"note": 66, "velocity": 97, "duration": 120}, {"note": 64, "velocity": 97, "duration": 120}, {"note": 64, "velocity": 97, "duration": 120}, {"note": 66, "velocity": 97, "duration": 120}, {"note": 66, "velocity": 97, "duration": 120}, {"note": 66, "velocity": 97, "duration": 120}, {"note": 66, "velocity": 97, "duration": 120}, {"note": 66, "velocity": 97, "duration": 240}, {"note": 64, "velocity": 97, "duration": 240}, {"note": 66, "velocity": 97, "duration": 240}, {"note": 64, "velocity": 97, "duration": 120}, {"note": 64, "velocity": 97, "duration": 240}, {"note": 66, "velocity": 97, "duration": 120}, {"note": 66, "velocity": 97, "duration": 120}, {"note": 64, "velocity": 97, "duration": 120}, {"note": 66, "velocity": 97, "duration": 120}, {"note": 66, "velocity": 97, "duration": 120}, {"note": 69, "velocity": 97, "duration": 120}, {"note": 66, "velocity": 97, "duration": 240}, {"note": 66, "velocity": 97, "duration": 120}, {"note": 66, "velocity": 97, "duration": 120}, {"note": 64, "velocity": 97, "duration": 120}, {"note": 66, "velocity": 97, "duration": 120}, {"note": 66, "velocity": 97, "duration": 120}, {"note": 69, "velocity": 97, "duration": 120}, {"note": 66, "velocity": 97, "duration": 240}, {"note": 66, "velocity": 97, "duration": 120}, {"note": 66, "velocity": 97, "duration": 120}, {"note": 66, "velocity": 97, "duration": 120}, {"note": 66, "velocity": 97, "duration": 120}, {"note": 66, "velocity": 97, "duration": 120}, {"note": 64, "velocity": 97, "duration": 120}, {"note": 66, "velocity": 97, "duration": 240}, {"note": 66, "velocity": 97, "duration": 120}, {"note": 66, "velocity": 97, "duration": 120}, {"note": 66, "velocity": 97, "duration": 120}, {"note": 66, "velocity": 97, "duration": 240}, {"note": 61, "velocity": 97, "duration": 120}, {"note": 66, "velocity": 97, "duration": 360}, {"note": 66, "velocity": 97, "duration": 120}, {"note": 66, "velocity": 97, "duration": 240}, {"note": 66, "velocity": 97, "duration": 120}, {"note": 66, "velocity": 97, "duration": 120}, {"note": 64, "velocity": 97, "duration": 120}, {"note": 66, "velocity": 97, "duration": 120}, {"note": 66, "velocity": 97, "duration": 240}, {"note": 66, "velocity": 97, "duration": 120}, {"note": 66, "velocity": 97, "duration": 120}, {"note": 66, "velocity": 97, "duration": 120}, {"note": 64, "velocity": 97, "duration": 120}, {"note": 61, "velocity": 97, "duration": 120}, {"note": 0, "velocity": 0, "duration": 120}, {"note": 66, "velocity": 97, "duration": 120}, {"note": 66, "velocity": 97, "duration": 120}, {"note": 66, "velocity": 97, "duration": 120}, {"note": 66, "velocity": 97, "duration": 120}, {"note": 66, "velocity": 97, "duration": 120}, {"note": 66, "velocity": 97, "duration": 120}, {"note": 66, "velocity": 97, "duration": 240}, {"note": 66, "velocity": 97, "duration": 240}, {"note": 64, "velocity": 97, "duration": 120}, {"note": 61, "velocity": 97, "duration": 120}, {"note": 64, "velocity": 97, "duration": 120}, {"note": 66, "velocity": 97, "duration": 120}, {"note": 61, "velocity": 97, "duration": 240}, {"note": 66, "velocity": 97, "duration": 120}, {"note": 66, "velocity": 97, "duration": 120}, {"note": 66, "velocity": 97, "duration": 120}, {"note": 66, "velocity": 97, "duration": 240}, {"note": 69, "velocity": 97, "duration": 120}, {"note": 69, "velocity": 97, "duration": 240}, {"note": 71, "velocity": 97, "duration": 240}, {"note": 0, "velocity": 0, "duration": 120}, {"note": 74, "velocity": 97, "duration": 240}, {"note": 73, "velocity": 97, "duration": 120}, {"note": 71, "velocity": 97, "duration": 240}, {"note": 69, "velocity": 97, "duration": 360}, {"note": 66, "velocity": 97, "duration": 960}, {"note": 0, "velocity": 0, "duration": 240}, {"note": 61, "velocity": 89, "duration": 178}, {"note": 0, "velocity": 0, "duration": 62}, {"note": 73, "velocity": 90, "duration": 164}, {"note": 0, "velocity": 0, "duration": 76}, {"note": 71, "velocity": 87, "duration": 152}, {"note": 0, "velocity": 0, "duration": 88}, {"note": 69, "velocity": 87, "duration": 406}, {"note": 0, "velocity": 0, "duration": 74}, {"note": 68, "velocity": 87, "duration": 305}, {"note": 66, "velocity": 90, "duration": 231}, {"note": 0, "velocity": 0, "duration": 129}, {"note": 61, "velocity": 91, "duration": 161}, {"note": 0, "velocity": 0, "duration": 79}, {"note": 73, "velocity": 86, "duration": 155}, {"note": 0, "velocity": 0, "duration": 85}, {"note": 71, "velocity": 88, "duration": 143}, {"note": 0, "velocity": 0, "duration": 97}, {"note": 69, "velocity": 87, "duration": 128}, {"note": 0, "velocity": 0, "duration": 112}, {"note": 69, "velocity": 90, "duration": 173}, {"note": 0, "velocity": 0, "duration": 67}, {"note": 69, "velocity": 88, "duration": 213}, {"note": 68, "velocity": 86, "duration": 93}, {"note": 66, "velocity": 86, "duration": 332}, {"note": 0, "velocity": 0, "duration": 268}, {"note": 71, "velocity": 84, "duration": 189}, {"note": 69, "velocity": 87, "duration": 195}, {"note": 68, "velocity": 87, "duration": 157}, {"note": 0, "velocity": 0, "duration": 83}, {"note": 68, "velocity": 87, "duration": 66}, {"note": 68, "velocity": 92, "duration": 190}, {"note": 68, "velocity": 87, "duration": 162}, {"note": 0, "velocity": 0, "duration": 198}, {"note": 68, "velocity": 92, "duration": 156}, {"note": 0, "velocity": 0, "duration": 84}, {"note": 68, "velocity": 84, "duration": 69}, {"note": 68, "velocity": 87, "duration": 209}, {"note": 64, "velocity": 87, "duration": 244}, {"note": 0, "velocity": 0, "duration": 116}, {"note": 71, "velocity": 87, "duration": 186}, {"note": 69, "velocity": 89, "duration": 86}, {"note": 71, "velocity": 87, "duration": 161}, {"note": 0, "velocity": 0, "duration": 79}, {"note": 76, "velocity": 86, "duration": 209}, {"note": 73, "velocity": 102, "duration": 461}, {"note": 0, "velocity": 0, "duration": 139}, {"note": 71, "velocity": 86, "duration": 178}, {"note": 0, "velocity": 0, "duration": 62}, {"note": 73, "velocity": 90, "duration": 192}, {"note": 78, "velocity": 86, "duration": 398}, {"note": 0, "velocity": 0, "duration": 82}, {"note": 66, "velocity": 87, "duration": 289}, {"note": 0, "velocity": 0, "duration": 71}, {"note": 68, "velocity": 87, "duration": 258}, {"note": 0, "velocity": 0, "duration": 102}, {"note": 78, "velocity": 86, "duration": 166}, {"note": 0, "velocity": 0, "duration": 74}, {"note": 76, "velocity": 87, "duration": 151}, {"note": 0, "velocity": 0, "duration": 89}, {"note": 74, "velocity": 87, "duration": 162}, {"note": 0, "velocity": 0, "duration": 78}, {"note": 76, "velocity": 86, "duration": 358}, {"note": 0, "velocity": 0, "duration": 122}, {"note": 68, "velocity": 78, "duration": 326}, {"note": 66, "velocity": 86, "duration": 273}, {"note": 0, "velocity": 0, "duration": 327}, {"note": 71, "velocity": 90, "duration": 182}, {"note": 73, "velocity": 91, "duration": 165}, {"note": 0, "velocity": 0, "duration": 75}, {"note": 74, "velocity": 86, "duration": 141}, {"note": 0, "velocity": 0, "duration": 99}, {"note": 74, "velocity": 91, "duration": 134}, {"note": 0, "velocity": 0, "duration": 106}, {"note": 74, "velocity": 85, "duration": 156}, {"note": 0, "velocity": 0, "duration": 84}, {"note": 66, "velocity": 87, "duration": 59}, {"note": 0, "velocity": 0, "duration": 61}, {"note": 66, "velocity": 81, "duration": 66}, {"note": 65, "velocity": 83, "duration": 165}, {"note": 0, "velocity": 0, "duration": 75}, {"note": 65, "velocity": 85, "duration": 192}, {"note": 73, "velocity": 90, "duration": 89}, {"note": 71, "velocity": 86, "duration": 333}, {"note": 66, "velocity": 82, "duration": 969}, {"note": 0, "velocity": 0, "duration": 231}, {"note": 61, "velocity": 89, "duration": 178}, {"note": 0, "velocity": 0, "duration": 62}, {"note": 73, "velocity": 90, "duration": 164}, {"note": 0, "velocity": 0, "duration": 76}, {"note": 71, "velocity": 87, "duration": 152}, {"note": 0, "velocity": 0, "duration": 88}, {"note": 69, "velocity": 87, "duration": 406}, {"note": 0, "velocity": 0, "duration": 74}, {"note": 68, "velocity": 87, "duration": 305}, {"note": 66, "velocity": 90, "duration": 231}, {"note": 0, "velocity": 0, "duration": 129}, {"note": 61, "velocity": 91, "duration": 161}, {"note": 0, "velocity": 0, "duration": 79}, {"note": 73, "velocity": 86, "duration": 155}, {"note": 0, "velocity": 0, "duration": 85}, {"note": 71, "velocity": 88, "duration": 143}, {"note": 0, "velocity": 0, "duration": 97}, {"note": 69, "velocity": 87, "duration": 128}, {"note": 0, "velocity": 0, "duration": 112}, {"note": 69, "velocity": 90, "duration": 173}, {"note": 0, "velocity": 0, "duration": 67}, {"note": 69, "velocity": 88, "duration": 213}, {"note": 68, "velocity": 86, "duration": 93}, {"note": 66, "velocity": 86, "duration": 332}, {"note": 0, "velocity": 0, "duration": 268}, {"note": 71, "velocity": 84, "duration": 189}, {"note": 69, "velocity": 87, "duration": 195}, {"note": 68, "velocity": 87, "duration": 157}, {"note": 0, "velocity": 0, "duration": 83}, {"note": 68, "velocity": 87, "duration": 66}, {"note": 68, "velocity": 92, "duration": 190}, {"note": 68, "velocity": 87, "duration": 162}, {"note": 0, "velocity": 0, "duration": 198}, {"note": 68, "velocity": 92, "duration": 156}, {"note": 0, "velocity": 0, "duration": 84}, {"note": 68, "velocity": 84, "duration": 69}, {"note": 68, "velocity": 87, "duration": 209}, {"note": 64, "velocity": 87, "duration": 244}, {"note": 0, "velocity": 0, "duration": 116}, {"note": 71, "velocity": 87, "duration": 186}, {"note": 69, "velocity": 89, "duration": 86}, {"note": 71, "velocity": 87, "duration": 161}, {"note": 0, "velocity": 0, "duration": 79}, {"note": 76, "velocity": 86, "duration": 209}, {"note": 73, "velocity": 102, "duration": 461}, {"note": 0, "velocity": 0, "duration": 139}, {"note": 71, "velocity": 86, "duration": 178}, {"note": 0, "velocity": 0, "duration": 62}, {"note": 73, "velocity": 90, "duration": 192}, {"note": 78, "velocity": 86, "duration": 398}, {"note": 0, "velocity": 0, "duration": 82}, {"note": 66, "velocity": 87, "duration": 289}, {"note": 0, "velocity": 0, "duration": 71}, {"note": 68, "velocity": 87, "duration": 258}, {"note": 0, "velocity": 0, "duration": 102}, {"note": 78, "velocity": 86, "duration": 166}, {"note": 0, "velocity": 0, "duration": 74}, {"note": 76, "velocity": 87, "duration": 151}, {"note": 0, "velocity": 0, "duration": 89}, {"note": 74, "velocity": 87, "duration": 162}, {"note": 0, "velocity": 0, "duration": 78}, {"note": 76, "velocity": 86, "duration": 358}, {"note": 0, "velocity": 0, "duration": 122}, {"note": 68, "velocity": 78, "duration": 326}, {"note": 66, "velocity": 86, "duration": 273}, {"note": 0, "velocity": 0, "duration": 327}, {"note": 71, "velocity": 90, "duration": 182}, {"note": 73, "velocity": 91, "duration": 165}, {"note": 0, "velocity": 0, "duration": 75}, {"note": 74, "velocity": 86, "duration": 141}, {"note": 0, "velocity": 0, "duration": 99}, {"note": 74, "velocity": 91, "duration": 134}, {"note": 0, "velocity": 0, "duration": 106}, {"note": 74, "velocity": 85, "duration": 156}, {"note": 0, "velocity": 0, "duration": 84}, {"note": 66, "velocity": 87, "duration": 59}, {"note": 0, "velocity": 0, "duration": 61}, {"note": 66, "velocity": 81, "duration": 66}, {"note": 65, "velocity": 83, "duration": 165}, {"note": 0, "velocity": 0, "duration": 75}, {"note": 65, "velocity": 85, "duration": 192}, {"note": 73, "velocity": 90, "duration": 89}, {"note": 71, "velocity": 86, "duration": 333}, {"note": 66, "velocity": 82, "duration": 969}, {"note": 0, "velocity": 0, "duration": 951}, {"note": 61, "velocity": 81, "duration": 155}, {"note": 0, "velocity": 0, "duration": 85}, {"note": 66, "velocity": 86, "duration": 123}, {"note": 0, "velocity": 0, "duration": 117}, {"note": 66, "velocity": 86, "duration": 110}, {"note": 0, "velocity": 0, "duration": 130}, {"note": 66, "velocity": 77, "duration": 62}, {"note": 66, "velocity": 79, "duration": 120}, {"note": 0, "velocity": 0, "duration": 120}, {"note": 66, "velocity": 97, "duration": 120}, {"note": 66, "velocity": 97, "duration": 120}, {"note": 66, "velocity": 97, "duration": 120}, {"note": 66, "velocity": 97, "duration": 120}, {"note": 66, "velocity": 97, "duration": 120}, {"note": 66, "velocity": 97, "duration": 120}, {"note": 61, "velocity": 97, "duration": 120}, {"note": 66, "velocity": 97, "duration": 120}, {"note": 0, "velocity": 0, "duration": 120}, {"note": 66, "velocity": 97, "duration": 120}, {"note": 66, "velocity": 97, "duration": 120}, {"note": 66, "velocity": 97, "duration": 120}, {"note": 66, "velocity": 97, "duration": 120}, {"note": 66, "velocity": 97, "duration": 120}, {"note": 66, "velocity": 97, "duration": 120}, {"note": 66, "velocity": 97, "duration": 120}, {"note": 66, "velocity": 97, "duration": 120}, {"note": 66, "velocity": 97, "duration": 120}, {"note": 66, "velocity": 97, "duration": 240}, {"note": 0, "velocity": 0, "duration": 120}, {"note": 61, "velocity": 97, "duration": 240}, {"note": 0, "velocity": 0, "duration": 120}, {"note": 66, "velocity": 97, "duration": 120}, {"note": 66, "velocity": 97, "duration": 120}, {"note": 66, "velocity": 97, "duration": 120}, {"note": 69, "velocity": 97, "duration": 240}, {"note": 0, "velocity": 0, "duration": 240}, {"note": 66, "velocity": 97, "duration": 120}, {"note": 66, "velocity": 97, "duration": 120}, {"note": 66, "velocity": 97, "duration": 120}, {"note": 69, "velocity": 97, "duration": 240}, {"note": 69, "velocity": 97, "duration": 120}, {"note": 69, "velocity": 97, "duration": 120}, {"note": 69, "velocity": 97, "duration": 120}, {"note": 69, "velocity": 97, "duration": 120}, {"note": 0, "velocity": 0, "duration": 120}, {"note": 69, "velocity": 97, "duration": 120}, {"note": 69, "velocity": 97, "duration": 120}, {"note": 69, "velocity": 97, "duration": 120}, {"note": 69, "velocity": 97, "duration": 120}, {"note": 69, "velocity": 97, "duration": 120}, {"note": 69, "velocity": 97, "duration": 120}, {"note": 69, "velocity": 97, "duration": 120}, {"note": 66, "velocity": 97, "duration": 120}, {"note": 64, "velocity": 97, "duration": 120}, {"note": 66, "velocity": 97, "duration": 240}, {"note": 66, "velocity": 97, "duration": 120}, {"note": 66, "velocity": 97, "duration": 120}, {"note": 66, "velocity": 97, "duration": 120}, {"note": 66, "velocity": 97, "duration": 120}, {"note": 66, "velocity": 97, "duration": 120}, {"note": 0, "velocity": 0, "duration": 120}, {"note": 66, "velocity": 97, "duration": 120}, {"note": 66, "velocity": 97, "duration": 120}, {"note": 66, "velocity": 97, "duration": 120}, {"note": 66, "velocity": 97, "duration": 120}, {"note": 66, "velocity": 97, "duration": 120}, {"note": 61, "velocity": 97, "duration": 240}, {"note": 66, "velocity": 97, "duration": 120}, {"note": 66, "velocity": 97, "duration": 120}, {"note": 66, "velocity": 97, "duration": 120}, {"note": 66, "velocity": 97, "duration": 120}, {"note": 66, "velocity": 97, "duration": 120}, {"note": 66, "velocity": 97, "duration": 120}, {"note": 61, "velocity": 97, "duration": 120}, {"note": 0, "velocity": 0, "duration": 120}, {"note": 66, "velocity": 97, "duration": 120}, {"note": 66, "velocity": 97, "duration": 240}, {"note": 66, "velocity": 97, "duration": 120}, {"note": 66, "velocity": 97, "duration": 120}, {"note": 69, "velocity": 97, "duration": 120}, {"note": 0, "velocity": 0, "duration": 120}, {"note": 64, "velocity": 97, "duration": 120}, {"note": 66, "velocity": 97, "duration": 120}, {"note": 61, "velocity": 97, "duration": 240}, {"note": 69, "velocity": 97, "duration": 120}, {"note": 69, "velocity": 97, "duration": 120}, {"note": 69, "velocity": 97, "duration": 120}, {"note": 71, "velocity": 97, "duration": 240}, {"note": 71, "velocity": 97, "duration": 120}, {"note": 0, "velocity": 0, "duration": 120}, {"note": 71, "velocity": 97, "duration": 120}, {"note": 69, "velocity": 97, "duration": 240}, {"note": 71, "velocity": 97, "duration": 120}, {"note": 73, "velocity": 97, "duration": 240}, {"note": 71, "velocity": 97, "duration": 240}, {"note": 71, "velocity": 97, "duration": 120}, {"note": 69, "velocity": 97, "duration": 240}, {"note": 66, "velocity": 97, "duration": 1080}, {"note": 0, "velocity": 0, "duration": 240}, {"note": 61, "velocity": 89, "duration": 178}, {"note": 0, "velocity": 0, "duration": 62}, {"note": 73, "velocity": 90, "duration": 164}, {"note": 0, "velocity": 0, "duration": 76}, {"note": 71, "velocity": 87, "duration": 152}, {"note": 0, "velocity": 0, "duration": 88}, {"note": 69, "velocity": 87, "duration": 406}, {"note": 0, "velocity": 0, "duration": 74}, {"note": 68, "velocity": 87, "duration": 305}, {"note": 66, "velocity": 90, "duration": 231}, {"note": 0, "velocity": 0, "duration": 129}, {"note": 61, "velocity": 91, "duration": 161}, {"note": 0, "velocity": 0, "duration": 79}, {"note": 73, "velocity": 86, "duration": 155}, {"note": 0, "velocity": 0, "duration": 85}, {"note": 71, "velocity": 88, "duration": 143}, {"note": 0, "velocity": 0, "duration": 97}, {"note": 69, "velocity": 87, "duration": 128}, {"note": 0, "velocity": 0, "duration": 112}, {"note": 69, "velocity": 90, "duration": 173}, {"note": 0, "velocity": 0, "duration": 67}, {"note": 69, "velocity": 88, "duration": 213}, {"note": 68, "velocity": 86, "duration": 93}, {"note": 66, "velocity": 86, "duration": 332}, {"note": 0, "velocity": 0, "duration": 268}, {"note": 71, "velocity": 84, "duration": 189}, {"note": 69, "velocity": 87, "duration": 195}, {"note": 68, "velocity": 87, "duration": 157}, {"note": 0, "velocity": 0, "duration": 83}, {"note": 68, "velocity": 87, "duration": 66}, {"note": 68, "velocity": 92, "duration": 190}, {"note": 68, "velocity": 87, "duration": 162}, {"note": 0, "velocity": 0, "duration": 198}, {"note": 68, "velocity": 92, "duration": 156}, {"note": 0, "velocity": 0, "duration": 84}, {"note": 68, "velocity": 84, "duration": 69}, {"note": 68, "velocity": 87, "duration": 209}, {"note": 64, "velocity": 87, "duration": 244}, {"note": 0, "velocity": 0, "duration": 116}, {"note": 71, "velocity": 87, "duration": 186}, {"note": 69, "velocity": 89, "duration": 86}, {"note": 71, "velocity": 87, "duration": 161}, {"note": 0, "velocity": 0, "duration": 79}, {"note": 76, "velocity": 86, "duration": 209}, {"note": 73, "velocity": 102, "duration": 461}, {"note": 0, "velocity": 0, "duration": 139}, {"note": 71, "velocity": 86, "duration": 178}, {"note": 0, "velocity": 0, "duration": 62}, {"note": 73, "velocity": 90, "duration": 192}, {"note": 78, "velocity": 86, "duration": 398}, {"note": 0, "velocity": 0, "duration": 82}, {"note": 66, "velocity": 87, "duration": 289}, {"note": 0, "velocity": 0, "duration": 71}, {"note": 68, "velocity": 87, "duration": 258}, {"note": 0, "velocity": 0, "duration": 102}, {"note": 78, "velocity": 86, "duration": 166}, {"note": 0, "velocity": 0, "duration": 74}, {"note": 76, "velocity": 87, "duration": 151}, {"note": 0, "velocity": 0, "duration": 89}, {"note": 74, "velocity": 87, "duration": 162}, {"note": 0, "velocity": 0, "duration": 78}, {"note": 76, "velocity": 86, "duration": 358}, {"note": 0, "velocity": 0, "duration": 122}, {"note": 68, "velocity": 78, "duration": 326}, {"note": 66, "velocity": 86, "duration": 273}, {"note": 0, "velocity": 0, "duration": 327}, {"note": 71, "velocity": 90, "duration": 182}, {"note": 73, "velocity": 91, "duration": 165}, {"note": 0, "velocity": 0, "duration": 75}, {"note": 74, "velocity": 86, "duration": 141}, {"note": 0, "velocity": 0, "duration": 99}, {"note": 74, "velocity": 91, "duration": 134}, {"note": 0, "velocity": 0, "duration": 106}, {"note": 74, "velocity": 85, "duration": 156}, {"note": 0, "velocity": 0, "duration": 84}, {"note": 66, "velocity": 87, "duration": 59}, {"note": 0, "velocity": 0, "duration": 61}, {"note": 66, "velocity": 81, "duration": 66}, {"note": 65, "velocity": 83, "duration": 165}, {"note": 0, "velocity": 0, "duration": 75}, {"note": 65, "velocity": 85, "duration": 192}, {"note": 73, "velocity": 90, "duration": 89}, {"note": 71, "velocity": 86, "duration": 333}, {"note": 66, "velocity": 82, "duration": 969}, {"note": 0, "velocity": 0, "duration": 231}, {"note": 61, "velocity": 89, "duration": 178}, {"note": 0, "velocity": 0, "duration": 62}, {"note": 73, "velocity": 90, "duration": 164}, {"note": 0, "velocity": 0, "duration": 76}, {"note": 71, "velocity": 87, "duration": 152}, {"note": 0, "velocity": 0, "duration": 88}, {"note": 69, "velocity": 87, "duration": 406}, {"note": 0, "velocity": 0, "duration": 74}, {"note": 68, "velocity": 87, "duration": 305}, {"note": 66, "velocity": 90, "duration": 231}, {"note": 0, "velocity": 0, "duration": 129}, {"note": 61, "velocity": 91, "duration": 161}, {"note": 0, "velocity": 0, "duration": 79}, {"note": 73, "velocity": 86, "duration": 155}, {"note": 0, "velocity": 0, "duration": 85}, {"note": 71, "velocity": 88, "duration": 143}, {"note": 0, "velocity": 0, "duration": 97}, {"note": 69, "velocity": 87, "duration": 128}, {"note": 0, "velocity": 0, "duration": 112}, {"note": 69, "velocity": 90, "duration": 173}, {"note": 0, "velocity": 0, "duration": 67}, {"note": 69, "velocity": 88, "duration": 213}, {"note": 68, "velocity": 86, "duration": 93}, {"note": 66, "velocity": 86, "duration": 332}, {"note": 0, "velocity": 0, "duration": 268}, {"note": 71, "velocity": 84, "duration": 189}, {"note": 69, "velocity": 87, "duration": 195}, {"note": 68, "velocity": 87, "duration": 157}, {"note": 0, "velocity": 0, "duration": 83}, {"note": 68, "velocity": 87, "duration": 66}, {"note": 68, "velocity": 92, "duration": 190}, {"note": 68, "velocity": 87, "duration": 162}, {"note": 0, "velocity": 0, "duration": 198}, {"note": 68, "velocity": 92, "duration": 156}, {"note": 0, "velocity": 0, "duration": 84}, {"note": 68, "velocity": 84, "duration": 69}, {"note": 68, "velocity": 87, "duration": 209}, {"note": 64, "velocity": 87, "duration": 244}, {"note": 0, "velocity": 0, "duration": 116}, {"note": 71, "velocity": 87, "duration": 186}, {"note": 69, "velocity": 89, "duration": 86}, {"note": 71, "velocity": 87, "duration": 161}, {"note": 0, "velocity": 0, "duration": 79}, {"note": 76, "velocity": 86, "duration": 209}, {"note": 73, "velocity": 102, "duration": 461}, {"note": 0, "velocity": 0, "duration": 139}, {"note": 71, "velocity": 86, "duration": 178}, {"note": 0, "velocity": 0, "duration": 62}, {"note": 73, "velocity": 90, "duration": 192}, {"note": 78, "velocity": 86, "duration": 398}, {"note": 0, "velocity": 0, "duration": 82}, {"note": 66, "velocity": 87, "duration": 289}, {"note": 0, "velocity": 0, "duration": 71}, {"note": 68, "velocity": 87, "duration": 258}, {"note": 0, "velocity": 0, "duration": 102}, {"note": 78, "velocity": 86, "duration": 166}, {"note": 0, "velocity": 0, "duration": 74}, {"note": 76, "velocity": 87, "duration": 151}, {"note": 0, "velocity": 0, "duration": 89}, {"note": 74, "velocity": 87, "duration": 162}, {"note": 0, "velocity": 0, "duration": 78}, {"note": 76, "velocity": 86, "duration": 358}, {"note": 0, "velocity": 0, "duration": 122}, {"note": 68, "velocity": 78, "duration": 326}, {"note": 66, "velocity": 86, "duration": 273}, {"note": 0, "velocity": 0, "duration": 327}, {"note": 71, "velocity": 90, "duration": 182}, {"note": 73, "velocity": 91, "duration": 165}, {"note": 0, "velocity": 0, "duration": 75}, {"note": 74, "velocity": 86, "duration": 141}, {"note": 0, "velocity": 0, "duration": 99}, {"note": 74, "velocity": 91, "duration": 134}, {"note": 0, "velocity": 0, "duration": 106}, {"note": 74, "velocity": 85, "duration": 156}, {"note": 0, "velocity": 0, "duration": 84}, {"note": 66, "velocity": 87, "duration": 59}, {"note": 0, "velocity": 0, "duration": 61}, {"note": 66, "velocity": 81, "duration": 66}, {"note": 65, "velocity": 83, "duration": 165}, {"note": 0, "velocity": 0, "duration": 75}, {"note": 65, "velocity": 85, "duration": 192}, {"note": 73, "velocity": 90, "duration": 89}, {"note": 71, "velocity": 86, "duration": 333}, {"note": 66, "velocity": 82, "duration": 969}, {"note": 0, "velocity": 0, "duration": 471}, {"note": 66, "velocity": 90, "duration": 163}, {"note": 0, "velocity": 0, "duration": 77}, {"note": 66, "velocity": 88, "duration": 173}, {"note": 0, "velocity": 0, "duration": 67}, {"note": 78, "velocity": 88, "duration": 144}, {"note": 0, "velocity": 0, "duration": 96}, {"note": 78, "velocity": 86, "duration": 130}, {"note": 0, "velocity": 0, "duration": 110}, {"note": 78, "velocity": 87, "duration": 117}, {"note": 0, "velocity": 0, "duration": 123}, {"note": 78, "velocity": 84, "duration": 68}, {"note": 78, "velocity": 86, "duration": 244}, {"note": 0, "velocity": 0, "duration": 116}, {"note": 78, "velocity": 87, "duration": 182}, {"note": 76, "velocity": 87, "duration": 162}, {"note": 0, "velocity": 0, "duration": 78}, {"note": 74, "velocity": 86, "duration": 175}, {"note": 0, "velocity": 0, "duration": 65}, {"note": 76, "velocity": 86, "duration": 937}, {"note": 0, "velocity": 0, "duration": 503}, {"note": 71, "velocity": 88, "duration": 148}, {"note": 0, "velocity": 0, "duration": 92}, {"note": 73, "velocity": 93, "duration": 147}, {"note": 0, "velocity": 0, "duration": 93}, {"note": 74, "velocity": 87, "duration": 163}, {"note": 0, "velocity": 0, "duration": 77}, {"note": 74, "velocity": 87, "duration": 69}, {"note": 74, "velocity": 85, "duration": 271}, {"note": 0, "velocity": 0, "duration": 89}, {"note": 74, "velocity": 87, "duration": 181}, {"note": 73, "velocity": 97, "duration": 152}, {"note": 0, "velocity": 0, "duration": 88}, {"note": 71, "velocity": 89, "duration": 173}, {"note": 0, "velocity": 0, "duration": 67}, {"note": 69, "velocity": 87, "duration": 73}, {"note": 71, "velocity": 86, "duration": 286}, {"note": 0, "velocity": 0, "duration": 74}, {"note": 73, "velocity": 90, "duration": 969}, {"note": 0, "velocity": 0, "duration": 471}, {"note": 71, "velocity": 90, "duration": 163}, {"note": 0, "velocity": 0, "duration": 77}, {"note": 73, "velocity": 92, "duration": 148}, {"note": 0, "velocity": 0, "duration": 92}, {"note": 74, "velocity": 88, "duration": 167}, {"note": 0, "velocity": 0, "duration": 73}, {"note": 74, "velocity": 88, "duration": 120}, {"note": 0, "velocity": 0, "duration": 120}, {"note": 74, "velocity": 88, "duration": 120}, {"note": 73, "velocity": 93, "duration": 202}, {"note": 0, "velocity": 0, "duration": 158}, {"note": 76, "velocity": 85, "duration": 240}, {"note": 74, "velocity": 84, "duration": 65}, {"note": 73, "velocity": 90, "duration": 178}, {"note": 0, "velocity": 0, "duration": 62}, {"note": 71, "velocity": 86, "duration": 293}, {"note": 0, "velocity": 0, "duration": 67}, {"note": 69, "velocity": 78, "duration": 878}, {"note": 0, "velocity": 0, "duration": 562}, {"note": 71, "velocity": 86, "duration": 152}, {"note": 0, "velocity": 0, "duration": 88}, {"note": 69, "velocity": 87, "duration": 181}, {"note": 67, "velocity": 87, "duration": 555}, {"note": 0, "velocity": 0, "duration": 165}, {"note": 67, "velocity": 88, "duration": 197}, {"note": 69, "velocity": 86, "duration": 376}, {"note": 0, "velocity": 0, "duration": 104}, {"note": 71, "velocity": 85, "duration": 413}, {"note": 0, "velocity": 0, "duration": 67}, {"note": 73, "velocity": 92, "duration": 960}, {"note": 0, "velocity": 0, "duration": 240}, {"note": 73, "velocity": 90, "duration": 182}, {"note": 73, "velocity": 90, "duration": 164}, {"note": 0, "velocity": 0, "duration": 76}, {"note": 71, "velocity": 87, "duration": 152}, {"note": 0, "velocity": 0, "duration": 88}, {"note": 69, "velocity": 87, "duration": 406}, {"note": 0, "velocity": 0, "duration": 74}, {"note": 68, "velocity": 87, "duration": 305}, {"note": 66, "velocity": 90, "duration": 231}, {"note": 0, "velocity": 0, "duration": 129}, {"note": 61, "velocity": 91, "duration": 161}, {"note": 0, "velocity": 0, "duration": 79}, {"note": 73, "velocity": 86, "duration": 155}, {"note": 0, "velocity": 0, "duration": 85}, {"note": 71, "velocity": 88, "duration": 143}, {"note": 0, "velocity": 0, "duration": 97}, {"note": 69, "velocity": 87, "duration": 128}, {"note": 0, "velocity": 0, "duration": 112}, {"note": 69, "velocity": 90, "duration": 173}, {"note": 0, "velocity": 0, "duration": 67}, {"note": 69, "velocity": 88, "duration": 213}, {"note": 68, "velocity": 86, "duration": 93}, {"note": 66, "velocity": 86, "duration": 332}, {"note": 0, "velocity": 0, "duration": 268}, {"note": 71, "velocity": 84, "duration": 189}, {"note": 69, "velocity": 87, "duration": 195}, {"note": 68, "velocity": 87, "duration": 157}, {"note": 0, "velocity": 0, "duration": 83}, {"note": 68, "velocity": 87, "duration": 66}, {"note": 68, "velocity": 92, "duration": 190}, {"note": 68, "velocity": 87, "duration": 162}, {"note": 0, "velocity": 0, "duration": 198}, {"note": 68, "velocity": 92, "duration": 156}, {"note": 0, "velocity": 0, "duration": 84}, {"note": 68, "velocity": 84, "duration": 69}, {"note": 68, "velocity": 87, "duration": 209}, {"note": 64, "velocity": 87, "duration": 244}, {"note": 0, "velocity": 0, "duration": 116}, {"note": 71, "velocity": 87, "duration": 186}, {"note": 69, "velocity": 89, "duration": 86}, {"note": 71, "velocity": 87, "duration": 161}, {"note": 0, "velocity": 0, "duration": 79}, {"note": 76, "velocity": 86, "duration": 209}, {"note": 73, "velocity": 102, "duration": 461}, {"note": 0, "velocity": 0, "duration": 139}, {"note": 71, "velocity": 86, "duration": 178}, {"note": 0, "velocity": 0, "duration": 62}, {"note": 73, "velocity": 90, "duration": 192}, {"note": 78, "velocity": 86, "duration": 398}, {"note": 0, "velocity": 0, "duration": 82}, {"note": 66, "velocity": 87, "duration": 289}, {"note": 0, "velocity": 0, "duration": 71}, {"note": 68, "velocity": 87, "duration": 258}, {"note": 0, "velocity": 0, "duration": 102}, {"note": 78, "velocity": 86, "duration": 166}, {"note": 0, "velocity": 0, "duration": 74}, {"note": 76, "velocity": 87, "duration": 151}, {"note": 0, "velocity": 0, "duration": 89}, {"note": 74, "velocity": 87, "duration": 162}, {"note": 0, "velocity": 0, "duration": 78}, {"note": 76, "velocity": 86, "duration": 358}, {"note": 0, "velocity": 0, "duration": 122}, {"note": 68, "velocity": 78, "duration": 326}, {"note": 66, "velocity": 86, "duration": 273}, {"note": 0, "velocity": 0, "duration": 327}, {"note": 71, "velocity": 90, "duration": 182}, {"note": 73, "velocity": 91, "duration": 165}, {"note": 0, "velocity": 0, "duration": 75}, {"note": 74, "velocity": 86, "duration": 141}, {"note": 0, "velocity": 0, "duration": 99}, {"note": 74, "velocity": 91, "duration": 134}, {"note": 0, "velocity": 0, "duration": 106}, {"note": 74, "velocity": 85, "duration": 156}, {"note": 0, "velocity": 0, "duration": 84}, {"note": 66, "velocity": 87, "duration": 59}, {"note": 0, "velocity": 0, "duration": 61}, {"note": 66, "velocity": 81, "duration": 66}, {"note": 65, "velocity": 83, "duration": 165}, {"note": 0, "velocity": 0, "duration": 75}, {"note": 65, "velocity": 85, "duration": 192}, {"note": 73, "velocity": 90, "duration": 89}, {"note": 71, "velocity": 86, "duration": 333}, {"note": 66, "velocity": 82, "duration": 969}, {"note": 0, "velocity": 0, "duration": 231}, {"note": 61, "velocity": 89, "duration": 178}, {"note": 0, "velocity": 0, "duration": 62}, {"note": 73, "velocity": 90, "duration": 164}, {"note": 0, "velocity": 0, "duration": 76}, {"note": 71, "velocity": 87, "duration": 152}, {"note": 0, "velocity": 0, "duration": 88}, {"note": 69, "velocity": 87, "duration": 406}, {"note": 0, "velocity": 0, "duration": 74}, {"note": 68, "velocity": 87, "duration": 305}, {"note": 66, "velocity": 90, "duration": 231}, {"note": 0, "velocity": 0, "duration": 129}, {"note": 61, "velocity": 91, "duration": 161}, {"note": 0, "velocity": 0, "duration": 79}, {"note": 73, "velocity": 86, "duration": 155}, {"note": 0, "velocity": 0, "duration": 85}, {"note": 71, "velocity": 88, "duration": 143}, {"note": 0, "velocity": 0, "duration": 97}, {"note": 69, "velocity": 87, "duration": 128}, {"note": 0, "velocity": 0, "duration": 112}, {"note": 69, "velocity": 90, "duration": 173}, {"note": 0, "velocity": 0, "duration": 67}, {"note": 69, "velocity": 88, "duration": 213}, {"note": 68, "velocity": 86, "duration": 93}, {"note": 66, "velocity": 86, "duration": 332}, {"note": 0, "velocity": 0, "duration": 268}, {"note": 71, "velocity": 84, "duration": 189}, {"note": 69, "velocity": 87, "duration": 195}, {"note": 68, "velocity": 87, "duration": 157}, {"note": 0, "velocity": 0, "duration": 83}, {"note": 68, "velocity": 87, "duration": 66}, {"note": 68, "velocity": 92, "duration": 190}, {"note": 68, "velocity": 87, "duration": 162}, {"note": 0, "velocity": 0, "duration": 198}, {"note": 68, "velocity": 92, "duration": 156}, {"note": 0, "velocity": 0, "duration": 84}, {"note": 68, "velocity": 84, "duration": 69}, {"note": 68, "velocity": 87, "duration": 209}, {"note": 64, "velocity": 87, "duration": 244}, {"note": 0, "velocity": 0, "duration": 116}, {"note": 71, "velocity": 87, "duration": 186}, {"note": 69, "velocity": 89, "duration": 86}, {"note": 71, "velocity": 87, "duration": 161}, {"note": 0, "velocity": 0, "duration": 79}, {"note": 76, "velocity": 86, "duration": 209}, {"note": 73, "velocity": 102, "duration": 461}, {"note": 0, "velocity": 0, "duration": 139}, {"note": 71, "velocity": 86, "duration": 178}, {"note": 0, "velocity": 0, "duration": 62}, {"note": 73, "velocity": 90, "duration": 192}, {"note": 78, "velocity": 86, "duration": 398}, {"note": 0, "velocity": 0, "duration": 82}, {"note": 66, "velocity": 87, "duration": 289}, {"note": 0, "velocity": 0, "duration": 71}, {"note": 68, "velocity": 87, "duration": 258}, {"note": 0, "velocity": 0, "duration": 102}, {"note": 78, "velocity": 86, "duration": 166}, {"note": 0, "velocity": 0, "duration": 74}, {"note": 76, "velocity": 87, "duration": 151}, {"note": 0, "velocity": 0, "duration": 89}, {"note": 74, "velocity": 87, "duration": 162}, {"note": 0, "velocity": 0, "duration": 78}, {"note": 76, "velocity": 86, "duration": 358}, {"note": 0, "velocity": 0, "duration": 122}, {"note": 68, "velocity": 78, "duration": 326}, {"note": 66, "velocity": 86, "duration": 273}, {"note": 0, "velocity": 0, "duration": 327}, {"note": 71, "velocity": 90, "duration": 182}, {"note": 73, "velocity": 91, "duration": 165}, {"note": 0, "velocity": 0, "duration": 75}, {"note": 74, "velocity": 86, "duration": 141}, {"note": 0, "velocity": 0, "duration": 99}, {"note": 74, "velocity": 91, "duration": 134}, {"note": 0, "velocity": 0, "duration": 106}, {"note": 74, "velocity": 85, "duration": 156}, {"note": 0, "velocity": 0, "duration": 84}, {"note": 66, "velocity": 87, "duration": 59}, {"note": 0, "velocity": 0, "duration": 61}, {"note": 66, "velocity": 81, "duration": 66}, {"note": 65, "velocity": 83, "duration": 165}, {"note": 0, "velocity": 0, "duration": 75}, {"note": 65, "velocity": 85, "duration": 192}, {"note": 73, "velocity": 90, "duration": 89}, {"note": 71, "velocity": 86, "duration": 333}, {"note": 66, "velocity": 82, "duration": 969}, {"note": 0, "velocity": 0, "duration": 471}, {"note": 71, "velocity": 87, "duration": 172}, {"note": 0, "velocity": 0, "duration": 68}, {"note": 73, "velocity": 93, "duration": 137}, {"note": 0, "velocity": 0, "duration": 103}, {"note": 74, "velocity": 88, "duration": 146}, {"note": 0, "velocity": 0, "duration": 94}, {"note": 74, "velocity": 88, "duration": 137}, {"note": 0, "velocity": 0, "duration": 103}, {"note": 74, "velocity": 90, "duration": 117}, {"note": 0, "velocity": 0, "duration": 123}, {"note": 66, "velocity": 87, "duration": 76}, {"note": 65, "velocity": 86, "duration": 249}, {"note": 0, "velocity": 0, "duration": 111}, {"note": 65, "velocity": 86, "duration": 844}]]