[[{"note": 66, "velocity": 86, "duration": 223}, {"note": 63, "velocity": 84, "duration": 248}, {"note": 66, "velocity": 83, "duration": 904}, {"note": 68, "velocity": 90, "duration": 407}, {"note": 0, "velocity": 0, "duration": 73}, {"note": 63, "velocity": 89, "duration": 223}, {"note": 66, "velocity": 77, "duration": 237}, {"note": 63, "velocity": 85, "duration": 262}, {"note": 61, "velocity": 81, "duration": 238}, {"note": 59, "velocity": 84, "duration": 480}, {"note": 56, "velocity": 88, "duration": 260}, {"note": 0, "velocity": 0, "duration": 220}, {"note": 66, "velocity": 84, "duration": 362}, {"note": 0, "velocity": 0, "duration": 118}, {"note": 63, "velocity": 87, "duration": 220}, {"note": 66, "velocity": 81, "duration": 177}, {"note": 0, "velocity": 0, "duration": 63}, {"note": 68, "velocity": 84, "duration": 235}, {"note": 73, "velocity": 85, "duration": 173}, {"note": 0, "velocity": 0, "duration": 67}, {"note": 70, "velocity": 83, "duration": 234}, {"note": 68, "velocity": 84, "duration": 240}, {"note": 66, "velocity": 83, "duration": 740}, {"note": 0, "velocity": 0, "duration": 1180}, {"note": 71, "velocity": 83, "duration": 235}, {"note": 68, "velocity": 82, "duration": 262}, {"note": 71, "velocity": 83, "duration": 1033}, {"note": 73, "velocity": 85, "duration": 329}, {"note": 0, "velocity": 0, "duration": 151}, {"note": 68, "velocity": 84, "duration": 183}, {"note": 71, "velocity": 84, "duration": 143}, {"note": 0, "velocity": 0, "duration": 97}, {"note": 68, "velocity": 83, "duration": 186}, {"note": 66, "velocity": 78, "duration": 153}, {"note": 0, "velocity": 0, "duration": 87}, {"note": 66, "velocity": 82, "duration": 474}, {"note": 63, "velocity": 85, "duration": 414}, {"note": 0, "velocity": 0, "duration": 66}, {"note": 61, "velocity": 84, "duration": 434}, {"note": 59, "velocity": 84, "duration": 201}, {"note": 61, "velocity": 85, "duration": 212}, {"note": 63, "velocity": 87, "duration": 224}, {"note": 66, "velocity": 80, "duration": 243}, {"note": 63, "velocity": 85, "duration": 260}, {"note": 61, "velocity": 84, "duration": 243}, {"note": 59, "velocity": 83, "duration": 1819}, {"note": 0, "velocity": 0, "duration": 101}, {"note": 63, "velocity": 82, "duration": 211}, {"note": 61, "velocity": 83, "duration": 258}, {"note": 63, "velocity": 87, "duration": 945}, {"note": 66, "velocity": 84, "duration": 386}, {"note": 0, "velocity": 0, "duration": 94}, {"note": 61, "velocity": 79, "duration": 210}, {"note": 63, "velocity": 83, "duration": 261}, {"note": 61, "velocity": 85, "duration": 239}, {"note": 59, "velocity": 85, "duration": 253}, {"note": 56, "velocity": 79, "duration": 410}, {"note": 0, "velocity": 0, "duration": 70}, {"note": 54, "velocity": 84, "duration": 342}, {"note": 0, "velocity": 0, "duration": 138}, {"note": 59, "velocity": 85, "duration": 755}, {"note": 61, "velocity": 84, "duration": 197}, {"note": 66, "velocity": 82, "duration": 348}, {"note": 0, "velocity": 0, "duration": 132}, {"note": 68, "velocity": 84, "duration": 233}, {"note": 66, "velocity": 76, "duration": 220}, {"note": 63, "velocity": 87, "duration": 229}, {"note": 66, "velocity": 75, "duration": 230}, {"note": 63, "velocity": 85, "duration": 1364}, {"note": 0, "velocity": 0, "duration": 76}, {"note": 66, "velocity": 83, "duration": 434}, {"note": 63, "velocity": 78, "duration": 270}, {"note": 66, "velocity": 82, "duration": 252}, {"note": 68, "velocity": 82, "duration": 253}, {"note": 71, "velocity": 84, "duration": 248}, {"note": 66, "velocity": 77, "duration": 268}, {"note": 68, "velocity": 83, "duration": 264}, {"note": 71, "velocity": 80, "duration": 730}, {"note": 0, "velocity": 0, "duration": 710}, {"note": 73, "velocity": 89, "duration": 335}, {"note": 0, "velocity": 0, "duration": 145}, {"note": 68, "velocity": 85, "duration": 157}, {"note": 0, "velocity": 0, "duration": 83}, {"note": 63, "velocity": 84, "duration": 171}, {"note": 0, "velocity": 0, "duration": 69}, {"note": 66, "velocity": 84, "duration": 130}, {"note": 0, "velocity": 0, "duration": 110}, {"note": 68, "velocity": 85, "duration": 125}, {"note": 0, "velocity": 0, "duration": 115}, {"note": 70, "velocity": 84, "duration": 138}, {"note": 0, "velocity": 0, "duration": 102}, {"note": 73, "velocity": 87, "duration": 178}, {"note": 0, "velocity": 0, "duration": 62}, {"note": 70, "velocity": 77, "duration": 145}, {"note": 0, "velocity": 0, "duration": 95}, {"note": 68, "velocity": 84, "duration": 187}, {"note": 66, "velocity": 83, "duration": 1349}, {"note": 0, "velocity": 0, "duration": 91}, {"note": 68, "velocity": 85, "duration": 349}, {"note": 0, "velocity": 0, "duration": 131}, {"note": 59, "velocity": 85, "duration": 472}, {"note": 0, "velocity": 0, "duration": 248}, {"note": 61, "velocity": 87, "duration": 148}, {"note": 0, "velocity": 0, "duration": 92}, {"note": 63, "velocity": 84, "duration": 129}, {"note": 0, "velocity": 0, "duration": 111}, {"note": 66, "velocity": 85, "duration": 158}, {"note": 0, "velocity": 0, "duration": 82}, {"note": 61, "velocity": 85, "duration": 335}, {"note": 0, "velocity": 0, "duration": 145}, {"note": 59, "velocity": 83, "duration": 1736}, {"note": 0, "velocity": 0, "duration": 184}, {"note": 59, "velocity": 83, "duration": 628}, {"note": 0, "velocity": 0, "duration": 92}, {"note": 61, "velocity": 84, "duration": 177}, {"note": 0, "velocity": 0, "duration": 63}, {"note": 58, "velocity": 81, "duration": 215}, {"note": 56, "velocity": 83, "duration": 172}, {"note": 0, "velocity": 0, "duration": 68}, {"note": 54, "velocity": 84, "duration": 417}, {"note": 0, "velocity": 0, "duration": 63}, {"note": 59, "velocity": 84, "duration": 1202}, {"note": 0, "velocity": 0, "duration": 238}, {"note": 61, "velocity": 87, "duration": 348}, {"note": 0, "velocity": 0, "duration": 132}, {"note": 63, "velocity": 83, "duration": 349}, {"note": 0, "velocity": 0, "duration": 131}, {"note": 61, "velocity": 83, "duration": 268}, {"note": 59, "velocity": 84, "duration": 196}, {"note": 58, "velocity": 83, "duration": 257}, {"note": 61, "velocity": 80, "duration": 220}, {"note": 56, "velocity": 84, "duration": 433}, {"note": 54, "velocity": 84, "duration": 1160}, {"note": 0, "velocity": 0, "duration": 760}, {"note": 66, "velocity": 83, "duration": 389}, {"note": 0, "velocity": 0, "duration": 91}, {"note": 66, "velocity": 84, "duration": 833}, {"note": 0, "velocity": 0, "duration": 127}, {"note": 63, "velocity": 87, "duration": 230}, {"note": 66, "velocity": 83, "duration": 168}, {"note": 0, "velocity": 0, "duration": 72}, {"note": 68, "velocity": 83, "duration": 363}, {"note": 0, "velocity": 0, "duration": 117}, {"note": 70, "velocity": 84, "duration": 214}, {"note": 73, "velocity": 85, "duration": 221}, {"note": 68, "velocity": 87, "duration": 555}, {"note": 0, "velocity": 0, "duration": 405}, {"note": 68, "velocity": 83, "duration": 193}, {"note": 63, "velocity": 85, "duration": 193}, {"note": 66, "velocity": 85, "duration": 154}, {"note": 0, "velocity": 0, "duration": 86}, {"note": 68, "velocity": 85, "duration": 154}, {"note": 0, "velocity": 0, "duration": 86}, {"note": 70, "velocity": 84, "duration": 149}, {"note": 0, "velocity": 0, "duration": 91}, {"note": 73, "velocity": 89, "duration": 158}, {"note": 0, "velocity": 0, "duration": 82}, {"note": 70, "velocity": 83, "duration": 159}, {"note": 0, "velocity": 0, "duration": 81}, {"note": 68, "velocity": 88, "duration": 230}, {"note": 66, "velocity": 79, "duration": 1712}, {"note": 0, "velocity": 0, "duration": 208}, {"note": 71, "velocity": 87, "duration": 359}, {"note": 0, "velocity": 0, "duration": 121}, {"note": 71, "velocity": 85, "duration": 354}, {"note": 0, "velocity": 0, "duration": 126}, {"note": 66, "velocity": 83, "duration": 210}, {"note": 63, "velocity": 87, "duration": 177}, {"note": 0, "velocity": 0, "duration": 63}, {"note": 66, "velocity": 84, "duration": 156}, {"note": 0, "velocity": 0, "duration": 84}, {"note": 68, "velocity": 84, "duration": 181}, {"note": 71, "velocity": 85, "duration": 1544}, {"note": 73, "velocity": 90, "duration": 359}, {"note": 0, "velocity": 0, "duration": 121}, {"note": 59, "velocity": 89, "duration": 530}, {"note": 0, "velocity": 0, "duration": 190}, {"note": 61, "velocity": 84, "duration": 174}, {"note": 0, "velocity": 0, "duration": 66}, {"note": 66, "velocity": 83, "duration": 385}, {"note": 0, "velocity": 0, "duration": 95}, {"note": 66, "velocity": 79, "duration": 178}, {"note": 0, "velocity": 0, "duration": 62}, {"note": 68, "velocity": 83, "duration": 274}, {"note": 66, "velocity": 83, "duration": 486}, {"note": 63, "velocity": 85, "duration": 1033}, {"note": 0, "velocity": 0, "duration": 407}, {"note": 66, "velocity": 84, "duration": 359}, {"note": 0, "velocity": 0, "duration": 121}, {"note": 66, "velocity": 85, "duration": 445}, {"note": 63, "velocity": 90, "duration": 472}, {"note": 66, "velocity": 81, "duration": 494}, {"note": 68, "velocity": 86, "duration": 524}, {"note": 70, "velocity": 87, "duration": 260}, {"note": 73, "velocity": 89, "duration": 264}, {"note": 68, "velocity": 83, "duration": 734}, {"note": 0, "velocity": 0, "duration": 226}, {"note": 68, "velocity": 84, "duration": 210}, {"note": 63, "velocity": 86, "duration": 274}, {"note": 66, "velocity": 83, "duration": 263}, {"note": 68, "velocity": 84, "duration": 303}, {"note": 70, "velocity": 83, "duration": 258}, {"note": 73, "velocity": 90, "duration": 251}, {"note": 70, "velocity": 84, "duration": 286}, {"note": 68, "velocity": 80, "duration": 248}, {"note": 66, "velocity": 83, "duration": 1670}, {"note": 68, "velocity": 79, "duration": 348}, {"note": 0, "velocity": 0, "duration": 132}, {"note": 59, "velocity": 87, "duration": 481}, {"note": 0, "velocity": 0, "duration": 239}, {"note": 61, "velocity": 84, "duration": 171}, {"note": 0, "velocity": 0, "duration": 69}, {"note": 63, "velocity": 87, "duration": 211}, {"note": 66, "velocity": 81, "duration": 181}, {"note": 61, "velocity": 85, "duration": 463}, {"note": 59, "velocity": 85, "duration": 1915}, {"note": 0, "velocity": 0, "duration": 15365}, {"note": 66, "velocity": 86, "duration": 223}, {"note": 63, "velocity": 84, "duration": 248}, {"note": 66, "velocity": 83, "duration": 904}, {"note": 68, "velocity": 90, "duration": 407}, {"note": 0, "velocity": 0, "duration": 73}, {"note": 63, "velocity": 89, "duration": 223}, {"note": 66, "velocity": 77, "duration": 237}, {"note": 63, "velocity": 85, "duration": 262}, {"note": 61, "velocity": 81, "duration": 238}, {"note": 59, "velocity": 84, "duration": 480}, {"note": 56, "velocity": 88, "duration": 260}, {"note": 0, "velocity": 0, "duration": 220}, {"note": 66, "velocity": 84, "duration": 362}, {"note": 0, "velocity": 0, "duration": 118}, {"note": 63, "velocity": 87, "duration": 220}, {"note": 66, "velocity": 81, "duration": 177}, {"note": 0, "velocity": 0, "duration": 63}, {"note": 68, "velocity": 84, "duration": 235}, {"note": 73, "velocity": 85, "duration": 173}, {"note": 0, "velocity": 0, "duration": 67}, {"note": 70, "velocity": 83, "duration": 234}, {"note": 68, "velocity": 84, "duration": 240}, {"note": 66, "velocity": 83, "duration": 740}, {"note": 0, "velocity": 0, "duration": 1180}, {"note": 71, "velocity": 83, "duration": 235}, {"note": 68, "velocity": 82, "duration": 262}, {"note": 71, "velocity": 83, "duration": 1033}, {"note": 73, "velocity": 85, "duration": 329}, {"note": 0, "velocity": 0, "duration": 151}, {"note": 68, "velocity": 84, "duration": 183}, {"note": 71, "velocity": 84, "duration": 143}, {"note": 0, "velocity": 0, "duration": 97}, {"note": 68, "velocity": 83, "duration": 186}, {"note": 66, "velocity": 78, "duration": 153}, {"note": 0, "velocity": 0, "duration": 87}, {"note": 66, "velocity": 82, "duration": 474}, {"note": 63, "velocity": 85, "duration": 414}, {"note": 0, "velocity": 0, "duration": 66}, {"note": 61, "velocity": 84, "duration": 434}, {"note": 59, "velocity": 84, "duration": 201}, {"note": 61, "velocity": 85, "duration": 212}, {"note": 63, "velocity": 87, "duration": 224}, {"note": 66, "velocity": 80, "duration": 243}, {"note": 63, "velocity": 85, "duration": 260}, {"note": 61, "velocity": 84, "duration": 243}, {"note": 59, "velocity": 83, "duration": 1819}, {"note": 0, "velocity": 0, "duration": 101}, {"note": 63, "velocity": 82, "duration": 211}, {"note": 61, "velocity": 83, "duration": 258}, {"note": 63, "velocity": 87, "duration": 945}, {"note": 66, "velocity": 84, "duration": 386}, {"note": 0, "velocity": 0, "duration": 94}, {"note": 61, "velocity": 79, "duration": 210}, {"note": 63, "velocity": 83, "duration": 261}, {"note": 61, "velocity": 85, "duration": 239}, {"note": 59, "velocity": 85, "duration": 253}, {"note": 56, "velocity": 79, "duration": 410}, {"note": 0, "velocity": 0, "duration": 70}, {"note": 54, "velocity": 84, "duration": 342}, {"note": 0, "velocity": 0, "duration": 138}, {"note": 59, "velocity": 85, "duration": 755}, {"note": 61, "velocity": 84, "duration": 197}, {"note": 66, "velocity": 82, "duration": 348}, {"note": 0, "velocity": 0, "duration": 132}, {"note": 68, "velocity": 84, "duration": 233}, {"note": 66, "velocity": 76, "duration": 220}, {"note": 63, "velocity": 87, "duration": 229}, {"note": 66, "velocity": 75, "duration": 230}, {"note": 63, "velocity": 85, "duration": 1364}, {"note": 0, "velocity": 0, "duration": 76}, {"note": 66, "velocity": 83, "duration": 434}, {"note": 63, "velocity": 78, "duration": 270}, {"note": 66, "velocity": 82, "duration": 252}, {"note": 68, "velocity": 82, "duration": 253}, {"note": 71, "velocity": 84, "duration": 248}, {"note": 66, "velocity": 77, "duration": 268}, {"note": 68, "velocity": 83, "duration": 264}, {"note": 71, "velocity": 80, "duration": 730}, {"note": 0, "velocity": 0, "duration": 710}, {"note": 73, "velocity": 89, "duration": 335}, {"note": 0, "velocity": 0, "duration": 145}, {"note": 68, "velocity": 85, "duration": 157}, {"note": 0, "velocity": 0, "duration": 83}, {"note": 63, "velocity": 84, "duration": 171}, {"note": 0, "velocity": 0, "duration": 69}, {"note": 66, "velocity": 84, "duration": 130}, {"note": 0, "velocity": 0, "duration": 110}, {"note": 68, "velocity": 85, "duration": 125}, {"note": 0, "velocity": 0, "duration": 115}, {"note": 70, "velocity": 84, "duration": 138}, {"note": 0, "velocity": 0, "duration": 102}, {"note": 73, "velocity": 87, "duration": 178}, {"note": 0, "velocity": 0, "duration": 62}, {"note": 70, "velocity": 77, "duration": 145}, {"note": 0, "velocity": 0, "duration": 95}, {"note": 68, "velocity": 84, "duration": 187}, {"note": 66, "velocity": 83, "duration": 1349}, {"note": 0, "velocity": 0, "duration": 91}, {"note": 68, "velocity": 85, "duration": 349}, {"note": 0, "velocity": 0, "duration": 131}, {"note": 59, "velocity": 85, "duration": 472}, {"note": 0, "velocity": 0, "duration": 248}, {"note": 61, "velocity": 87, "duration": 148}, {"note": 0, "velocity": 0, "duration": 92}, {"note": 63, "velocity": 84, "duration": 129}, {"note": 0, "velocity": 0, "duration": 111}, {"note": 66, "velocity": 85, "duration": 158}, {"note": 0, "velocity": 0, "duration": 82}, {"note": 61, "velocity": 85, "duration": 335}, {"note": 0, "velocity": 0, "duration": 145}, {"note": 59, "velocity": 83, "duration": 1736}, {"note": 0, "velocity": 0, "duration": 184}, {"note": 59, "velocity": 83, "duration": 628}, {"note": 0, "velocity": 0, "duration": 92}, {"note": 61, "velocity": 84, "duration": 177}, {"note": 0, "velocity": 0, "duration": 63}, {"note": 58, "velocity": 81, "duration": 215}, {"note": 56, "velocity": 83, "duration": 172}, {"note": 0, "velocity": 0, "duration": 68}, {"note": 54, "velocity": 84, "duration": 417}, {"note": 0, "velocity": 0, "duration": 63}, {"note": 59, "velocity": 84, "duration": 1202}, {"note": 0, "velocity": 0, "duration": 238}, {"note": 61, "velocity": 87, "duration": 348}, {"note": 0, "velocity": 0, "duration": 132}, {"note": 63, "velocity": 83, "duration": 349}, {"note": 0, "velocity": 0, "duration": 131}, {"note": 61, "velocity": 83, "duration": 268}, {"note": 59, "velocity": 84, "duration": 196}, {"note": 58, "velocity": 83, "duration": 257}, {"note": 61, "velocity": 80, "duration": 220}, {"note": 56, "velocity": 84, "duration": 433}, {"note": 54, "velocity": 84, "duration": 1160}, {"note": 0, "velocity": 0, "duration": 760}, {"note": 66, "velocity": 83, "duration": 389}, {"note": 0, "velocity": 0, "duration": 91}, {"note": 66, "velocity": 84, "duration": 833}, {"note": 0, "velocity": 0, "duration": 127}, {"note": 63, "velocity": 87, "duration": 230}, {"note": 66, "velocity": 83, "duration": 168}, {"note": 0, "velocity": 0, "duration": 72}, {"note": 68, "velocity": 83, "duration": 363}, {"note": 0, "velocity": 0, "duration": 117}, {"note": 70, "velocity": 84, "duration": 214}, {"note": 73, "velocity": 85, "duration": 221}, {"note": 68, "velocity": 87, "duration": 555}, {"note": 0, "velocity": 0, "duration": 405}, {"note": 68, "velocity": 83, "duration": 193}, {"note": 63, "velocity": 85, "duration": 193}, {"note": 66, "velocity": 85, "duration": 154}, {"note": 0, "velocity": 0, "duration": 86}, {"note": 68, "velocity": 85, "duration": 154}, {"note": 0, "velocity": 0, "duration": 86}, {"note": 70, "velocity": 84, "duration": 149}, {"note": 0, "velocity": 0, "duration": 91}, {"note": 73, "velocity": 89, "duration": 158}, {"note": 0, "velocity": 0, "duration": 82}, {"note": 70, "velocity": 83, "duration": 159}, {"note": 0, "velocity": 0, "duration": 81}, {"note": 68, "velocity": 88, "duration": 230}, {"note": 66, "velocity": 79, "duration": 1712}, {"note": 0, "velocity": 0, "duration": 208}, {"note": 71, "velocity": 87, "duration": 359}, {"note": 0, "velocity": 0, "duration": 121}, {"note": 71, "velocity": 85, "duration": 354}, {"note": 0, "velocity": 0, "duration": 126}, {"note": 66, "velocity": 83, "duration": 210}, {"note": 63, "velocity": 87, "duration": 177}, {"note": 0, "velocity": 0, "duration": 63}, {"note": 66, "velocity": 84, "duration": 156}, {"note": 0, "velocity": 0, "duration": 84}, {"note": 68, "velocity": 84, "duration": 181}, {"note": 71, "velocity": 85, "duration": 1544}, {"note": 73, "velocity": 90, "duration": 359}, {"note": 0, "velocity": 0, "duration": 121}, {"note": 59, "velocity": 89, "duration": 530}, {"note": 0, "velocity": 0, "duration": 190}, {"note": 61, "velocity": 84, "duration": 174}, {"note": 0, "velocity": 0, "duration": 66}, {"note": 66, "velocity": 83, "duration": 385}, {"note": 0, "velocity": 0, "duration": 95}, {"note": 66, "velocity": 79, "duration": 178}, {"note": 0, "velocity": 0, "duration": 62}, {"note": 68, "velocity": 83, "duration": 274}, {"note": 66, "velocity": 83, "duration": 486}, {"note": 63, "velocity": 85, "duration": 1033}, {"note": 0, "velocity": 0, "duration": 407}, {"note": 66, "velocity": 84, "duration": 359}, {"note": 0, "velocity": 0, "duration": 121}, {"note": 66, "velocity": 85, "duration": 445}, {"note": 63, "velocity": 90, "duration": 472}, {"note": 66, "velocity": 81, "duration": 494}, {"note": 68, "velocity": 86, "duration": 524}, {"note": 70, "velocity": 87, "duration": 260}, {"note": 73, "velocity": 89, "duration": 264}, {"note": 68, "velocity": 83, "duration": 734}, {"note": 0, "velocity": 0, "duration": 226}, {"note": 68, "velocity": 84, "duration": 210}, {"note": 63, "velocity": 86, "duration": 274}, {"note": 66, "velocity": 83, "duration": 263}, {"note": 68, "velocity": 84, "duration": 303}, {"note": 70, "velocity": 83, "duration": 258}, {"note": 73, "velocity": 90, "duration": 251}, {"note": 70, "velocity": 84, "duration": 286}, {"note": 68, "velocity": 80, "duration": 248}, {"note": 66, "velocity": 83, "duration": 1670}, {"note": 68, "velocity": 79, "duration": 348}, {"note": 0, "velocity": 0, "duration": 132}, {"note": 59, "velocity": 87, "duration": 481}, {"note": 0, "velocity": 0, "duration": 804}, {"note": 61, "velocity": 84, "duration": 501}, {"note": 63, "velocity": 87, "duration": 485}, {"note": 66, "velocity": 80, "duration": 458}, {"note": 61, "velocity": 83, "duration": 978}, {"note": 59, "velocity": 84, "duration": 2074}]]