[[{"note": 60, "velocity": 86, "duration": 195}, {"note": 60, "velocity": 86, "duration": 188}, {"note": 62, "velocity": 86, "duration": 194}, {"note": 65, "velocity": 85, "duration": 218}, {"note": 69, "velocity": 82, "duration": 805}, {"note": 0, "velocity": 0, "duration": 155}, {"note": 67, "velocity": 81, "duration": 181}, {"note": 65, "velocity": 86, "duration": 185}, {"note": 67, "velocity": 81, "duration": 205}, {"note": 62, "velocity": 87, "duration": 224}, {"note": 65, "velocity": 86, "duration": 794}, {"note": 0, "velocity": 0, "duration": 166}, {"note": 69, "velocity": 85, "duration": 186}, {"note": 69, "velocity": 89, "duration": 170}, {"note": 0, "velocity": 0, "duration": 70}, {"note": 69, "velocity": 88, "duration": 210}, {"note": 72, "velocity": 85, "duration": 169}, {"note": 0, "velocity": 0, "duration": 71}, {"note": 74, "velocity": 88, "duration": 222}, {"note": 72, "velocity": 89, "duration": 249}, {"note": 69, "velocity": 87, "duration": 129}, {"note": 67, "velocity": 84, "duration": 102}, {"note": 65, "velocity": 86, "duration": 226}, {"note": 67, "velocity": 81, "duration": 1490}, {"note": 0, "velocity": 0, "duration": 430}, {"note": 69, "velocity": 86, "duration": 227}, {"note": 72, "velocity": 87, "duration": 170}, {"note": 0, "velocity": 0, "duration": 70}, {"note": 72, "velocity": 86, "duration": 162}, {"note": 0, "velocity": 0, "duration": 78}, {"note": 72, "velocity": 88, "duration": 166}, {"note": 0, "velocity": 0, "duration": 74}, {"note": 72, "velocity": 86, "duration": 759}, {"note": 0, "velocity": 0, "duration": 201}, {"note": 69, "velocity": 81, "duration": 184}, {"note": 69, "velocity": 85, "duration": 208}, {"note": 67, "velocity": 84, "duration": 189}, {"note": 69, "velocity": 86, "duration": 231}, {"note": 65, "velocity": 86, "duration": 829}, {"note": 0, "velocity": 0, "duration": 131}, {"note": 60, "velocity": 85, "duration": 171}, {"note": 0, "velocity": 0, "duration": 69}, {"note": 62, "velocity": 87, "duration": 191}, {"note": 65, "velocity": 87, "duration": 179}, {"note": 0, "velocity": 0, "duration": 61}, {"note": 69, "velocity": 84, "duration": 183}, {"note": 67, "velocity": 83, "duration": 643}, {"note": 0, "velocity": 0, "duration": 77}, {"note": 62, "velocity": 87, "duration": 222}, {"note": 65, "velocity": 85, "duration": 1575}, {"note": 0, "velocity": 0, "duration": 345}, {"note": 60, "velocity": 86, "duration": 195}, {"note": 60, "velocity": 86, "duration": 188}, {"note": 62, "velocity": 86, "duration": 194}, {"note": 65, "velocity": 85, "duration": 218}, {"note": 69, "velocity": 82, "duration": 805}, {"note": 0, "velocity": 0, "duration": 155}, {"note": 67, "velocity": 81, "duration": 181}, {"note": 65, "velocity": 86, "duration": 185}, {"note": 67, "velocity": 81, "duration": 205}, {"note": 62, "velocity": 87, "duration": 224}, {"note": 65, "velocity": 86, "duration": 794}, {"note": 0, "velocity": 0, "duration": 166}, {"note": 69, "velocity": 85, "duration": 186}, {"note": 69, "velocity": 89, "duration": 170}, {"note": 0, "velocity": 0, "duration": 70}, {"note": 69, "velocity": 88, "duration": 210}, {"note": 72, "velocity": 85, "duration": 169}, {"note": 0, "velocity": 0, "duration": 71}, {"note": 74, "velocity": 88, "duration": 222}, {"note": 72, "velocity": 89, "duration": 249}, {"note": 69, "velocity": 87, "duration": 129}, {"note": 67, "velocity": 84, "duration": 102}, {"note": 65, "velocity": 86, "duration": 226}, {"note": 67, "velocity": 81, "duration": 1490}, {"note": 0, "velocity": 0, "duration": 430}, {"note": 69, "velocity": 86, "duration": 227}, {"note": 72, "velocity": 87, "duration": 170}, {"note": 0, "velocity": 0, "duration": 70}, {"note": 72, "velocity": 86, "duration": 162}, {"note": 0, "velocity": 0, "duration": 78}, {"note": 72, "velocity": 88, "duration": 166}, {"note": 0, "velocity": 0, "duration": 74}, {"note": 72, "velocity": 86, "duration": 759}, {"note": 0, "velocity": 0, "duration": 201}, {"note": 69, "velocity": 81, "duration": 184}, {"note": 69, "velocity": 85, "duration": 208}, {"note": 67, "velocity": 84, "duration": 189}, {"note": 69, "velocity": 86, "duration": 231}, {"note": 65, "velocity": 86, "duration": 829}, {"note": 0, "velocity": 0, "duration": 131}, {"note": 60, "velocity": 85, "duration": 171}, {"note": 0, "velocity": 0, "duration": 69}, {"note": 62, "velocity": 87, "duration": 191}, {"note": 65, "velocity": 87, "duration": 179}, {"note": 0, "velocity": 0, "duration": 61}, {"note": 69, "velocity": 84, "duration": 183}, {"note": 67, "velocity": 83, "duration": 643}, {"note": 0, "velocity": 0, "duration": 77}, {"note": 62, "velocity": 87, "duration": 222}, {"note": 65, "velocity": 85, "duration": 1575}, {"note": 0, "velocity": 0, "duration": 345}, {"note": 67, "velocity": 77, "duration": 64}, {"note": 67, "velocity": 85, "duration": 49}, {"note": 0, "velocity": 0, "duration": 71}, {"note": 67, "velocity": 85, "duration": 55}, {"note": 0, "velocity": 0, "duration": 65}, {"note": 67, "velocity": 85, "duration": 78}, {"note": 67, "velocity": 86, "duration": 87}, {"note": 65, "velocity": 89, "duration": 374}, {"note": 67, "velocity": 86, "duration": 407}, {"note": 0, "velocity": 0, "duration": 73}, {"note": 65, "velocity": 86, "duration": 184}, {"note": 62, "velocity": 94, "duration": 167}, {"note": 0, "velocity": 0, "duration": 73}, {"note": 69, "velocity": 86, "duration": 64}, {"note": 69, "velocity": 85, "duration": 61}, {"note": 69, "velocity": 85, "duration": 66}, {"note": 69, "velocity": 85, "duration": 72}, {"note": 69, "velocity": 85, "duration": 240}, {"note": 67, "velocity": 86, "duration": 240}, {"note": 69, "velocity": 86, "duration": 440}, {"note": 69, "velocity": 89, "duration": 200}, {"note": 72, "velocity": 89, "duration": 195}, {"note": 74, "velocity": 87, "duration": 64}, {"note": 74, "velocity": 89, "duration": 63}, {"note": 74, "velocity": 89, "duration": 70}, {"note": 74, "velocity": 92, "duration": 69}, {"note": 74, "velocity": 94, "duration": 227}, {"note": 72, "velocity": 88, "duration": 248}, {"note": 74, "velocity": 86, "duration": 455}, {"note": 74, "velocity": 101, "duration": 230}, {"note": 77, "velocity": 89, "duration": 210}, {"note": 72, "velocity": 92, "duration": 317}, {"note": 72, "velocity": 92, "duration": 971}, {"note": 0, "velocity": 0, "duration": 109}, {"note": 72, "velocity": 92, "duration": 181}, {"note": 74, "velocity": 99, "duration": 185}, {"note": 77, "velocity": 91, "duration": 55}, {"note": 0, "velocity": 0, "duration": 65}, {"note": 77, "velocity": 85, "duration": 64}, {"note": 77, "velocity": 89, "duration": 64}, {"note": 77, "velocity": 86, "duration": 84}, {"note": 79, "velocity": 89, "duration": 87}, {"note": 77, "velocity": 89, "duration": 73}, {"note": 74, "velocity": 94, "duration": 174}, {"note": 0, "velocity": 0, "duration": 66}, {"note": 77, "velocity": 89, "duration": 443}, {"note": 72, "velocity": 89, "duration": 181}, {"note": 74, "velocity": 94, "duration": 154}, {"note": 0, "velocity": 0, "duration": 86}, {"note": 77, "velocity": 85, "duration": 65}, {"note": 77, "velocity": 84, "duration": 62}, {"note": 77, "velocity": 84, "duration": 64}, {"note": 77, "velocity": 84, "duration": 82}, {"note": 79, "velocity": 89, "duration": 81}, {"note": 77, "velocity": 87, "duration": 64}, {"note": 74, "velocity": 89, "duration": 198}, {"note": 72, "velocity": 88, "duration": 436}, {"note": 65, "velocity": 87, "duration": 168}, {"note": 0, "velocity": 0, "duration": 72}, {"note": 69, "velocity": 85, "duration": 170}, {"note": 0, "velocity": 0, "duration": 70}, {"note": 67, "velocity": 85, "duration": 67}, {"note": 67, "velocity": 85, "duration": 61}, {"note": 67, "velocity": 80, "duration": 66}, {"note": 67, "velocity": 81, "duration": 67}, {"note": 67, "velocity": 87, "duration": 240}, {"note": 65, "velocity": 87, "duration": 250}, {"note": 67, "velocity": 87, "duration": 417}, {"note": 0, "velocity": 0, "duration": 63}, {"note": 65, "velocity": 87, "duration": 198}, {"note": 62, "velocity": 92, "duration": 165}, {"note": 0, "velocity": 0, "duration": 75}, {"note": 72, "velocity": 86, "duration": 67}, {"note": 72, "velocity": 86, "duration": 55}, {"note": 0, "velocity": 0, "duration": 65}, {"note": 72, "velocity": 85, "duration": 66}, {"note": 72, "velocity": 86, "duration": 72}, {"note": 74, "velocity": 92, "duration": 72}, {"note": 72, "velocity": 85, "duration": 96}, {"note": 69, "velocity": 87, "duration": 211}, {"note": 67, "velocity": 87, "duration": 431}, {"note": 72, "velocity": 92, "duration": 181}, {"note": 74, "velocity": 99, "duration": 185}, {"note": 77, "velocity": 91, "duration": 55}, {"note": 0, "velocity": 0, "duration": 65}, {"note": 77, "velocity": 85, "duration": 64}, {"note": 77, "velocity": 89, "duration": 64}, {"note": 77, "velocity": 86, "duration": 84}, {"note": 79, "velocity": 89, "duration": 87}, {"note": 77, "velocity": 89, "duration": 73}, {"note": 74, "velocity": 94, "duration": 174}, {"note": 0, "velocity": 0, "duration": 66}, {"note": 77, "velocity": 89, "duration": 443}, {"note": 72, "velocity": 89, "duration": 181}, {"note": 74, "velocity": 94, "duration": 154}, {"note": 0, "velocity": 0, "duration": 86}, {"note": 77, "velocity": 85, "duration": 65}, {"note": 77, "velocity": 84, "duration": 62}, {"note": 77, "velocity": 84, "duration": 64}, {"note": 77, "velocity": 84, "duration": 82}, {"note": 79, "velocity": 89, "duration": 81}, {"note": 77, "velocity": 87, "duration": 64}, {"note": 74, "velocity": 89, "duration": 198}, {"note": 72, "velocity": 88, "duration": 436}, {"note": 65, "velocity": 87, "duration": 168}, {"note": 0, "velocity": 0, "duration": 72}, {"note": 69, "velocity": 85, "duration": 170}, {"note": 0, "velocity": 0, "duration": 70}, {"note": 67, "velocity": 85, "duration": 67}, {"note": 67, "velocity": 85, "duration": 61}, {"note": 67, "velocity": 80, "duration": 66}, {"note": 67, "velocity": 81, "duration": 67}, {"note": 67, "velocity": 87, "duration": 240}, {"note": 65, "velocity": 87, "duration": 250}, {"note": 67, "velocity": 87, "duration": 417}, {"note": 0, "velocity": 0, "duration": 63}, {"note": 65, "velocity": 87, "duration": 198}, {"note": 62, "velocity": 92, "duration": 165}, {"note": 0, "velocity": 0, "duration": 75}, {"note": 72, "velocity": 86, "duration": 67}, {"note": 72, "velocity": 86, "duration": 55}, {"note": 0, "velocity": 0, "duration": 65}, {"note": 72, "velocity": 85, "duration": 66}, {"note": 72, "velocity": 86, "duration": 72}, {"note": 74, "velocity": 92, "duration": 72}, {"note": 72, "velocity": 85, "duration": 96}, {"note": 69, "velocity": 87, "duration": 211}, {"note": 67, "velocity": 87, "duration": 431}, {"note": 60, "velocity": 85, "duration": 163}, {"note": 0, "velocity": 0, "duration": 77}, {"note": 62, "velocity": 85, "duration": 458}, {"note": 65, "velocity": 85, "duration": 1557}, {"note": 0, "velocity": 0, "duration": 9723}, {"note": 60, "velocity": 86, "duration": 195}, {"note": 60, "velocity": 86, "duration": 188}, {"note": 62, "velocity": 86, "duration": 194}, {"note": 65, "velocity": 85, "duration": 218}, {"note": 69, "velocity": 82, "duration": 805}, {"note": 0, "velocity": 0, "duration": 155}, {"note": 67, "velocity": 81, "duration": 181}, {"note": 65, "velocity": 86, "duration": 185}, {"note": 67, "velocity": 81, "duration": 205}, {"note": 62, "velocity": 87, "duration": 224}, {"note": 65, "velocity": 86, "duration": 794}, {"note": 0, "velocity": 0, "duration": 166}, {"note": 69, "velocity": 85, "duration": 186}, {"note": 69, "velocity": 89, "duration": 170}, {"note": 0, "velocity": 0, "duration": 70}, {"note": 69, "velocity": 88, "duration": 210}, {"note": 72, "velocity": 85, "duration": 169}, {"note": 0, "velocity": 0, "duration": 71}, {"note": 74, "velocity": 88, "duration": 222}, {"note": 72, "velocity": 89, "duration": 249}, {"note": 69, "velocity": 87, "duration": 129}, {"note": 67, "velocity": 84, "duration": 102}, {"note": 65, "velocity": 86, "duration": 226}, {"note": 67, "velocity": 81, "duration": 1490}, {"note": 0, "velocity": 0, "duration": 430}, {"note": 69, "velocity": 86, "duration": 227}, {"note": 72, "velocity": 87, "duration": 170}, {"note": 0, "velocity": 0, "duration": 70}, {"note": 72, "velocity": 86, "duration": 162}, {"note": 0, "velocity": 0, "duration": 78}, {"note": 72, "velocity": 88, "duration": 166}, {"note": 0, "velocity": 0, "duration": 74}, {"note": 72, "velocity": 86, "duration": 759}, {"note": 0, "velocity": 0, "duration": 201}, {"note": 69, "velocity": 81, "duration": 184}, {"note": 69, "velocity": 85, "duration": 208}, {"note": 67, "velocity": 84, "duration": 189}, {"note": 69, "velocity": 86, "duration": 231}, {"note": 65, "velocity": 86, "duration": 829}, {"note": 0, "velocity": 0, "duration": 131}, {"note": 60, "velocity": 85, "duration": 171}, {"note": 0, "velocity": 0, "duration": 69}, {"note": 62, "velocity": 87, "duration": 191}, {"note": 65, "velocity": 87, "duration": 179}, {"note": 0, "velocity": 0, "duration": 61}, {"note": 69, "velocity": 84, "duration": 183}, {"note": 67, "velocity": 83, "duration": 643}, {"note": 0, "velocity": 0, "duration": 77}, {"note": 62, "velocity": 87, "duration": 222}, {"note": 65, "velocity": 85, "duration": 1575}, {"note": 0, "velocity": 0, "duration": 345}, {"note": 67, "velocity": 77, "duration": 64}, {"note": 67, "velocity": 85, "duration": 49}, {"note": 0, "velocity": 0, "duration": 71}, {"note": 67, "velocity": 85, "duration": 55}, {"note": 0, "velocity": 0, "duration": 65}, {"note": 67, "velocity": 85, "duration": 78}, {"note": 67, "velocity": 86, "duration": 87}, {"note": 65, "velocity": 89, "duration": 374}, {"note": 67, "velocity": 86, "duration": 407}, {"note": 0, "velocity": 0, "duration": 73}, {"note": 65, "velocity": 86, "duration": 184}, {"note": 62, "velocity": 94, "duration": 167}, {"note": 0, "velocity": 0, "duration": 73}, {"note": 69, "velocity": 86, "duration": 64}, {"note": 69, "velocity": 85, "duration": 61}, {"note": 69, "velocity": 85, "duration": 66}, {"note": 69, "velocity": 85, "duration": 72}, {"note": 69, "velocity": 85, "duration": 240}, {"note": 67, "velocity": 86, "duration": 240}, {"note": 69, "velocity": 86, "duration": 440}, {"note": 69, "velocity": 89, "duration": 200}, {"note": 72, "velocity": 89, "duration": 195}, {"note": 74, "velocity": 87, "duration": 64}, {"note": 74, "velocity": 89, "duration": 63}, {"note": 74, "velocity": 89, "duration": 70}, {"note": 74, "velocity": 92, "duration": 69}, {"note": 74, "velocity": 94, "duration": 227}, {"note": 72, "velocity": 88, "duration": 248}, {"note": 74, "velocity": 86, "duration": 455}, {"note": 74, "velocity": 101, "duration": 230}, {"note": 77, "velocity": 89, "duration": 210}, {"note": 72, "velocity": 92, "duration": 317}, {"note": 72, "velocity": 92, "duration": 971}, {"note": 0, "velocity": 0, "duration": 109}, {"note": 72, "velocity": 92, "duration": 181}, {"note": 74, "velocity": 99, "duration": 185}, {"note": 77, "velocity": 91, "duration": 55}, {"note": 0, "velocity": 0, "duration": 65}, {"note": 77, "velocity": 85, "duration": 64}, {"note": 77, "velocity": 89, "duration": 64}, {"note": 77, "velocity": 86, "duration": 84}, {"note": 79, "velocity": 89, "duration": 87}, {"note": 77, "velocity": 89, "duration": 73}, {"note": 74, "velocity": 94, "duration": 174}, {"note": 0, "velocity": 0, "duration": 66}, {"note": 77, "velocity": 89, "duration": 443}, {"note": 72, "velocity": 89, "duration": 181}, {"note": 74, "velocity": 94, "duration": 154}, {"note": 0, "velocity": 0, "duration": 86}, {"note": 77, "velocity": 85, "duration": 65}, {"note": 77, "velocity": 84, "duration": 62}, {"note": 77, "velocity": 84, "duration": 64}, {"note": 77, "velocity": 84, "duration": 82}, {"note": 79, "velocity": 89, "duration": 81}, {"note": 77, "velocity": 87, "duration": 64}, {"note": 74, "velocity": 89, "duration": 198}, {"note": 72, "velocity": 88, "duration": 436}, {"note": 65, "velocity": 87, "duration": 168}, {"note": 0, "velocity": 0, "duration": 72}, {"note": 69, "velocity": 85, "duration": 170}, {"note": 0, "velocity": 0, "duration": 70}, {"note": 67, "velocity": 85, "duration": 67}, {"note": 67, "velocity": 85, "duration": 61}, {"note": 67, "velocity": 80, "duration": 66}, {"note": 67, "velocity": 81, "duration": 67}, {"note": 67, "velocity": 87, "duration": 240}, {"note": 65, "velocity": 87, "duration": 250}, {"note": 67, "velocity": 87, "duration": 417}, {"note": 0, "velocity": 0, "duration": 63}, {"note": 65, "velocity": 87, "duration": 198}, {"note": 62, "velocity": 92, "duration": 165}, {"note": 0, "velocity": 0, "duration": 75}, {"note": 72, "velocity": 86, "duration": 67}, {"note": 72, "velocity": 86, "duration": 55}, {"note": 0, "velocity": 0, "duration": 65}, {"note": 72, "velocity": 85, "duration": 66}, {"note": 72, "velocity": 86, "duration": 72}, {"note": 74, "velocity": 92, "duration": 72}, {"note": 72, "velocity": 85, "duration": 96}, {"note": 69, "velocity": 87, "duration": 211}, {"note": 67, "velocity": 87, "duration": 431}, {"note": 72, "velocity": 92, "duration": 181}, {"note": 74, "velocity": 99, "duration": 185}, {"note": 77, "velocity": 91, "duration": 55}, {"note": 0, "velocity": 0, "duration": 65}, {"note": 77, "velocity": 85, "duration": 64}, {"note": 77, "velocity": 89, "duration": 64}, {"note": 77, "velocity": 86, "duration": 84}, {"note": 79, "velocity": 89, "duration": 87}, {"note": 77, "velocity": 89, "duration": 73}, {"note": 74, "velocity": 94, "duration": 174}, {"note": 0, "velocity": 0, "duration": 66}, {"note": 77, "velocity": 89, "duration": 443}, {"note": 72, "velocity": 89, "duration": 181}, {"note": 74, "velocity": 94, "duration": 154}, {"note": 0, "velocity": 0, "duration": 86}, {"note": 77, "velocity": 85, "duration": 65}, {"note": 77, "velocity": 84, "duration": 62}, {"note": 77, "velocity": 84, "duration": 64}, {"note": 77, "velocity": 84, "duration": 82}, {"note": 79, "velocity": 89, "duration": 81}, {"note": 77, "velocity": 87, "duration": 64}, {"note": 74, "velocity": 89, "duration": 198}, {"note": 72, "velocity": 88, "duration": 436}, {"note": 65, "velocity": 87, "duration": 168}, {"note": 0, "velocity": 0, "duration": 72}, {"note": 69, "velocity": 85, "duration": 170}, {"note": 0, "velocity": 0, "duration": 70}, {"note": 67, "velocity": 85, "duration": 67}, {"note": 67, "velocity": 85, "duration": 61}, {"note": 67, "velocity": 80, "duration": 66}, {"note": 67, "velocity": 81, "duration": 67}, {"note": 67, "velocity": 87, "duration": 240}, {"note": 65, "velocity": 87, "duration": 250}, {"note": 67, "velocity": 87, "duration": 417}, {"note": 0, "velocity": 0, "duration": 63}, {"note": 65, "velocity": 87, "duration": 198}, {"note": 62, "velocity": 92, "duration": 165}, {"note": 0, "velocity": 0, "duration": 75}, {"note": 72, "velocity": 86, "duration": 67}, {"note": 72, "velocity": 86, "duration": 55}, {"note": 0, "velocity": 0, "duration": 65}, {"note": 72, "velocity": 85, "duration": 66}, {"note": 72, "velocity": 86, "duration": 72}, {"note": 74, "velocity": 92, "duration": 72}, {"note": 72, "velocity": 85, "duration": 96}, {"note": 69, "velocity": 87, "duration": 211}, {"note": 67, "velocity": 87, "duration": 431}, {"note": 60, "velocity": 85, "duration": 163}, {"note": 0, "velocity": 0, "duration": 77}, {"note": 62, "velocity": 85, "duration": 458}, {"note": 65, "velocity": 85, "duration": 960}, {"note": 0, "velocity": 0, "duration": 240}, {"note": 72, "velocity": 92, "duration": 181}, {"note": 74, "velocity": 99, "duration": 185}, {"note": 77, "velocity": 91, "duration": 55}, {"note": 0, "velocity": 0, "duration": 65}, {"note": 77, "velocity": 85, "duration": 64}, {"note": 77, "velocity": 89, "duration": 64}, {"note": 77, "velocity": 86, "duration": 84}, {"note": 79, "velocity": 89, "duration": 87}, {"note": 77, "velocity": 89, "duration": 73}, {"note": 74, "velocity": 94, "duration": 174}, {"note": 0, "velocity": 0, "duration": 66}, {"note": 77, "velocity": 89, "duration": 443}, {"note": 72, "velocity": 89, "duration": 181}, {"note": 74, "velocity": 94, "duration": 154}, {"note": 0, "velocity": 0, "duration": 86}, {"note": 77, "velocity": 85, "duration": 65}, {"note": 77, "velocity": 84, "duration": 62}, {"note": 77, "velocity": 84, "duration": 64}, {"note": 77, "velocity": 84, "duration": 82}, {"note": 79, "velocity": 89, "duration": 81}, {"note": 77, "velocity": 87, "duration": 64}, {"note": 74, "velocity": 89, "duration": 198}, {"note": 72, "velocity": 88, "duration": 436}, {"note": 65, "velocity": 87, "duration": 168}, {"note": 0, "velocity": 0, "duration": 72}, {"note": 69, "velocity": 85, "duration": 170}, {"note": 0, "velocity": 0, "duration": 70}, {"note": 67, "velocity": 85, "duration": 67}, {"note": 67, "velocity": 85, "duration": 61}, {"note": 67, "velocity": 80, "duration": 66}, {"note": 67, "velocity": 81, "duration": 67}, {"note": 67, "velocity": 87, "duration": 240}, {"note": 65, "velocity": 87, "duration": 250}, {"note": 67, "velocity": 87, "duration": 417}, {"note": 0, "velocity": 0, "duration": 63}, {"note": 65, "velocity": 87, "duration": 198}, {"note": 62, "velocity": 92, "duration": 165}, {"note": 0, "velocity": 0, "duration": 75}, {"note": 72, "velocity": 86, "duration": 67}, {"note": 72, "velocity": 86, "duration": 55}, {"note": 0, "velocity": 0, "duration": 65}, {"note": 72, "velocity": 85, "duration": 66}, {"note": 72, "velocity": 86, "duration": 72}, {"note": 74, "velocity": 92, "duration": 72}, {"note": 72, "velocity": 85, "duration": 96}, {"note": 69, "velocity": 87, "duration": 211}, {"note": 67, "velocity": 87, "duration": 431}, {"note": 72, "velocity": 92, "duration": 181}, {"note": 74, "velocity": 99, "duration": 185}, {"note": 77, "velocity": 91, "duration": 55}, {"note": 0, "velocity": 0, "duration": 65}, {"note": 77, "velocity": 85, "duration": 64}, {"note": 77, "velocity": 89, "duration": 64}, {"note": 77, "velocity": 86, "duration": 84}, {"note": 79, "velocity": 89, "duration": 87}, {"note": 77, "velocity": 89, "duration": 73}, {"note": 74, "velocity": 94, "duration": 174}, {"note": 0, "velocity": 0, "duration": 66}, {"note": 77, "velocity": 89, "duration": 443}, {"note": 72, "velocity": 89, "duration": 181}, {"note": 74, "velocity": 94, "duration": 154}, {"note": 0, "velocity": 0, "duration": 86}, {"note": 77, "velocity": 85, "duration": 65}, {"note": 77, "velocity": 84, "duration": 62}, {"note": 77, "velocity": 84, "duration": 64}, {"note": 77, "velocity": 84, "duration": 82}, {"note": 79, "velocity": 89, "duration": 81}, {"note": 77, "velocity": 87, "duration": 64}, {"note": 74, "velocity": 89, "duration": 198}, {"note": 72, "velocity": 88, "duration": 436}, {"note": 65, "velocity": 87, "duration": 168}, {"note": 0, "velocity": 0, "duration": 72}, {"note": 69, "velocity": 85, "duration": 170}, {"note": 0, "velocity": 0, "duration": 70}, {"note": 67, "velocity": 85, "duration": 67}, {"note": 67, "velocity": 85, "duration": 61}, {"note": 67, "velocity": 80, "duration": 66}, {"note": 67, "velocity": 81, "duration": 67}, {"note": 67, "velocity": 87, "duration": 240}, {"note": 65, "velocity": 87, "duration": 250}, {"note": 67, "velocity": 87, "duration": 417}, {"note": 0, "velocity": 0, "duration": 63}, {"note": 65, "velocity": 87, "duration": 198}, {"note": 62, "velocity": 92, "duration": 165}, {"note": 0, "velocity": 0, "duration": 75}, {"note": 72, "velocity": 86, "duration": 67}, {"note": 72, "velocity": 86, "duration": 55}, {"note": 0, "velocity": 0, "duration": 65}, {"note": 72, "velocity": 85, "duration": 66}, {"note": 72, "velocity": 86, "duration": 72}, {"note": 74, "velocity": 92, "duration": 72}, {"note": 72, "velocity": 85, "duration": 96}, {"note": 69, "velocity": 87, "duration": 211}, {"note": 67, "velocity": 87, "duration": 431}, {"note": 60, "velocity": 85, "duration": 163}, {"note": 0, "velocity": 0, "duration": 77}, {"note": 62, "velocity": 85, "duration": 458}, {"note": 65, "velocity": 85, "duration": 960}, {"note": 0, "velocity": 0, "duration": 240}, {"note": 72, "velocity": 92, "duration": 181}, {"note": 74, "velocity": 99, "duration": 185}, {"note": 77, "velocity": 91, "duration": 55}, {"note": 0, "velocity": 0, "duration": 65}, {"note": 77, "velocity": 85, "duration": 64}, {"note": 77, "velocity": 89, "duration": 64}, {"note": 77, "velocity": 86, "duration": 84}, {"note": 79, "velocity": 89, "duration": 87}, {"note": 77, "velocity": 89, "duration": 73}, {"note": 74, "velocity": 94, "duration": 174}, {"note": 0, "velocity": 0, "duration": 66}, {"note": 77, "velocity": 89, "duration": 443}, {"note": 72, "velocity": 89, "duration": 181}, {"note": 74, "velocity": 94, "duration": 154}, {"note": 0, "velocity": 0, "duration": 86}, {"note": 77, "velocity": 85, "duration": 65}, {"note": 77, "velocity": 84, "duration": 62}, {"note": 77, "velocity": 84, "duration": 64}, {"note": 77, "velocity": 84, "duration": 82}, {"note": 79, "velocity": 89, "duration": 81}, {"note": 77, "velocity": 87, "duration": 64}, {"note": 74, "velocity": 89, "duration": 198}, {"note": 72, "velocity": 88, "duration": 436}, {"note": 65, "velocity": 87, "duration": 168}, {"note": 0, "velocity": 0, "duration": 72}, {"note": 69, "velocity": 85, "duration": 170}, {"note": 0, "velocity": 0, "duration": 70}, {"note": 67, "velocity": 85, "duration": 67}, {"note": 67, "velocity": 85, "duration": 61}, {"note": 67, "velocity": 80, "duration": 66}, {"note": 67, "velocity": 81, "duration": 67}, {"note": 67, "velocity": 87, "duration": 240}, {"note": 65, "velocity": 87, "duration": 250}, {"note": 67, "velocity": 87, "duration": 417}, {"note": 0, "velocity": 0, "duration": 63}, {"note": 65, "velocity": 87, "duration": 198}, {"note": 62, "velocity": 92, "duration": 165}, {"note": 0, "velocity": 0, "duration": 75}, {"note": 72, "velocity": 86, "duration": 67}, {"note": 72, "velocity": 86, "duration": 55}, {"note": 0, "velocity": 0, "duration": 65}, {"note": 72, "velocity": 85, "duration": 66}, {"note": 72, "velocity": 86, "duration": 72}, {"note": 74, "velocity": 92, "duration": 72}, {"note": 72, "velocity": 85, "duration": 96}, {"note": 69, "velocity": 87, "duration": 211}, {"note": 67, "velocity": 87, "duration": 1440}, {"note": 0, "velocity": 0, "duration": 480}, {"note": 60, "velocity": 80, "duration": 513}, {"note": 62, "velocity": 85, "duration": 503}, {"note": 65, "velocity": 78, "duration": 1471}]]