[[{"note": 71, "velocity": 85, "duration": 212}, {"note": 76, "velocity": 90, "duration": 186}, {"note": 75, "velocity": 94, "duration": 199}, {"note": 73, "velocity": 90, "duration": 378}, {"note": 0, "velocity": 0, "duration": 102}, {"note": 73, "velocity": 89, "duration": 151}, {"note": 0, "velocity": 0, "duration": 89}, {"note": 76, "velocity": 88, "duration": 170}, {"note": 0, "velocity": 0, "duration": 70}, {"note": 75, "velocity": 91, "duration": 381}, {"note": 0, "velocity": 0, "duration": 99}, {"note": 73, "velocity": 88, "duration": 181}, {"note": 75, "velocity": 83, "duration": 217}, {"note": 71, "velocity": 89, "duration": 421}, {"note": 76, "velocity": 87, "duration": 160}, {"note": 0, "velocity": 0, "duration": 80}, {"note": 76, "velocity": 87, "duration": 313}, {"note": 0, "velocity": 0, "duration": 167}, {"note": 68, "velocity": 81, "duration": 117}, {"note": 0, "velocity": 0, "duration": 123}, {"note": 68, "velocity": 87, "duration": 153}, {"note": 0, "velocity": 0, "duration": 87}, {"note": 71, "velocity": 84, "duration": 170}, {"note": 0, "velocity": 0, "duration": 70}, {"note": 69, "velocity": 87, "duration": 392}, {"note": 0, "velocity": 0, "duration": 88}, {"note": 69, "velocity": 88, "duration": 177}, {"note": 0, "velocity": 0, "duration": 63}, {"note": 73, "velocity": 89, "duration": 147}, {"note": 0, "velocity": 0, "duration": 93}, {"note": 71, "velocity": 86, "duration": 315}, {"note": 0, "velocity": 0, "duration": 165}, {"note": 71, "velocity": 87, "duration": 199}, {"note": 69, "velocity": 88, "duration": 167}, {"note": 0, "velocity": 0, "duration": 73}, {"note": 71, "velocity": 87, "duration": 1098}, {"note": 0, "velocity": 0, "duration": 102}, {"note": 71, "velocity": 89, "duration": 128}, {"note": 0, "velocity": 0, "duration": 112}, {"note": 76, "velocity": 88, "duration": 160}, {"note": 0, "velocity": 0, "duration": 80}, {"note": 75, "velocity": 88, "duration": 155}, {"note": 0, "velocity": 0, "duration": 85}, {"note": 73, "velocity": 94, "duration": 356}, {"note": 0, "velocity": 0, "duration": 124}, {"note": 73, "velocity": 92, "duration": 144}, {"note": 0, "velocity": 0, "duration": 96}, {"note": 76, "velocity": 87, "duration": 145}, {"note": 0, "velocity": 0, "duration": 95}, {"note": 75, "velocity": 91, "duration": 340}, {"note": 0, "velocity": 0, "duration": 140}, {"note": 73, "velocity": 89, "duration": 169}, {"note": 0, "velocity": 0, "duration": 71}, {"note": 75, "velocity": 87, "duration": 194}, {"note": 71, "velocity": 88, "duration": 179}, {"note": 0, "velocity": 0, "duration": 61}, {"note": 76, "velocity": 84, "duration": 132}, {"note": 0, "velocity": 0, "duration": 108}, {"note": 76, "velocity": 83, "duration": 131}, {"note": 0, "velocity": 0, "duration": 109}, {"note": 76, "velocity": 87, "duration": 319}, {"note": 0, "velocity": 0, "duration": 161}, {"note": 68, "velocity": 88, "duration": 103}, {"note": 0, "velocity": 0, "duration": 137}, {"note": 68, "velocity": 87, "duration": 149}, {"note": 0, "velocity": 0, "duration": 91}, {"note": 71, "velocity": 85, "duration": 149}, {"note": 0, "velocity": 0, "duration": 91}, {"note": 69, "velocity": 87, "duration": 382}, {"note": 0, "velocity": 0, "duration": 98}, {"note": 69, "velocity": 89, "duration": 155}, {"note": 0, "velocity": 0, "duration": 85}, {"note": 68, "velocity": 85, "duration": 141}, {"note": 0, "velocity": 0, "duration": 99}, {"note": 64, "velocity": 87, "duration": 396}, {"note": 0, "velocity": 0, "duration": 84}, {"note": 66, "velocity": 82, "duration": 145}, {"note": 0, "velocity": 0, "duration": 95}, {"note": 64, "velocity": 83, "duration": 1731}, {"note": 0, "velocity": 0, "duration": 5709}, {"note": 68, "velocity": 89, "duration": 164}, {"note": 0, "velocity": 0, "duration": 76}, {"note": 69, "velocity": 87, "duration": 157}, {"note": 0, "velocity": 0, "duration": 83}, {"note": 71, "velocity": 88, "duration": 372}, {"note": 0, "velocity": 0, "duration": 108}, {"note": 71, "velocity": 88, "duration": 370}, {"note": 0, "velocity": 0, "duration": 110}, {"note": 69, "velocity": 92, "duration": 142}, {"note": 0, "velocity": 0, "duration": 98}, {"note": 68, "velocity": 81, "duration": 143}, {"note": 0, "velocity": 0, "duration": 97}, {"note": 66, "velocity": 87, "duration": 373}, {"note": 0, "velocity": 0, "duration": 107}, {"note": 64, "velocity": 89, "duration": 325}, {"note": 0, "velocity": 0, "duration": 155}, {"note": 64, "velocity": 87, "duration": 357}, {"note": 0, "velocity": 0, "duration": 123}, {"note": 66, "velocity": 86, "duration": 144}, {"note": 0, "velocity": 0, "duration": 96}, {"note": 64, "velocity": 85, "duration": 121}, {"note": 0, "velocity": 0, "duration": 119}, {"note": 63, "velocity": 91, "duration": 135}, {"note": 0, "velocity": 0, "duration": 105}, {"note": 64, "velocity": 80, "duration": 168}, {"note": 0, "velocity": 0, "duration": 72}, {"note": 68, "velocity": 87, "duration": 318}, {"note": 0, "velocity": 0, "duration": 162}, {"note": 68, "velocity": 88, "duration": 339}, {"note": 0, "velocity": 0, "duration": 141}, {"note": 66, "velocity": 82, "duration": 136}, {"note": 0, "velocity": 0, "duration": 104}, {"note": 68, "velocity": 86, "duration": 159}, {"note": 0, "velocity": 0, "duration": 81}, {"note": 69, "velocity": 88, "duration": 407}, {"note": 0, "velocity": 0, "duration": 73}, {"note": 68, "velocity": 86, "duration": 905}, {"note": 0, "velocity": 0, "duration": 295}, {"note": 68, "velocity": 88, "duration": 135}, {"note": 0, "velocity": 0, "duration": 105}, {"note": 68, "velocity": 87, "duration": 175}, {"note": 0, "velocity": 0, "duration": 65}, {"note": 69, "velocity": 88, "duration": 145}, {"note": 0, "velocity": 0, "duration": 95}, {"note": 71, "velocity": 88, "duration": 357}, {"note": 0, "velocity": 0, "duration": 123}, {"note": 71, "velocity": 88, "duration": 295}, {"note": 0, "velocity": 0, "duration": 185}, {"note": 69, "velocity": 90, "duration": 170}, {"note": 0, "velocity": 0, "duration": 70}, {"note": 68, "velocity": 87, "duration": 121}, {"note": 0, "velocity": 0, "duration": 119}, {"note": 66, "velocity": 87, "duration": 418}, {"note": 0, "velocity": 0, "duration": 62}, {"note": 64, "velocity": 87, "duration": 391}, {"note": 0, "velocity": 0, "duration": 89}, {"note": 64, "velocity": 88, "duration": 319}, {"note": 0, "velocity": 0, "duration": 161}, {"note": 66, "velocity": 82, "duration": 164}, {"note": 0, "velocity": 0, "duration": 76}, {"note": 68, "velocity": 86, "duration": 173}, {"note": 0, "velocity": 0, "duration": 67}, {"note": 66, "velocity": 88, "duration": 451}, {"note": 64, "velocity": 88, "duration": 348}, {"note": 0, "velocity": 0, "duration": 132}, {"note": 64, "velocity": 89, "duration": 354}, {"note": 0, "velocity": 0, "duration": 126}, {"note": 66, "velocity": 81, "duration": 120}, {"note": 0, "velocity": 0, "duration": 120}, {"note": 68, "velocity": 84, "duration": 151}, {"note": 0, "velocity": 0, "duration": 89}, {"note": 66, "velocity": 80, "duration": 346}, {"note": 0, "velocity": 0, "duration": 134}, {"note": 64, "velocity": 88, "duration": 1086}, {"note": 0, "velocity": 0, "duration": 114}, {"note": 68, "velocity": 82, "duration": 107}, {"note": 0, "velocity": 0, "duration": 133}, {"note": 68, "velocity": 89, "duration": 164}, {"note": 0, "velocity": 0, "duration": 76}, {"note": 69, "velocity": 87, "duration": 157}, {"note": 0, "velocity": 0, "duration": 83}, {"note": 71, "velocity": 88, "duration": 372}, {"note": 0, "velocity": 0, "duration": 108}, {"note": 71, "velocity": 88, "duration": 370}, {"note": 0, "velocity": 0, "duration": 110}, {"note": 69, "velocity": 92, "duration": 142}, {"note": 0, "velocity": 0, "duration": 98}, {"note": 68, "velocity": 81, "duration": 143}, {"note": 0, "velocity": 0, "duration": 97}, {"note": 66, "velocity": 87, "duration": 373}, {"note": 0, "velocity": 0, "duration": 107}, {"note": 64, "velocity": 89, "duration": 325}, {"note": 0, "velocity": 0, "duration": 155}, {"note": 64, "velocity": 87, "duration": 357}, {"note": 0, "velocity": 0, "duration": 123}, {"note": 66, "velocity": 86, "duration": 144}, {"note": 0, "velocity": 0, "duration": 96}, {"note": 64, "velocity": 85, "duration": 121}, {"note": 0, "velocity": 0, "duration": 119}, {"note": 63, "velocity": 91, "duration": 135}, {"note": 0, "velocity": 0, "duration": 105}, {"note": 64, "velocity": 80, "duration": 168}, {"note": 0, "velocity": 0, "duration": 72}, {"note": 68, "velocity": 87, "duration": 318}, {"note": 0, "velocity": 0, "duration": 162}, {"note": 68, "velocity": 88, "duration": 339}, {"note": 0, "velocity": 0, "duration": 141}, {"note": 66, "velocity": 82, "duration": 136}, {"note": 0, "velocity": 0, "duration": 104}, {"note": 68, "velocity": 86, "duration": 159}, {"note": 0, "velocity": 0, "duration": 81}, {"note": 69, "velocity": 88, "duration": 407}, {"note": 0, "velocity": 0, "duration": 73}, {"note": 68, "velocity": 86, "duration": 905}, {"note": 0, "velocity": 0, "duration": 295}, {"note": 68, "velocity": 88, "duration": 135}, {"note": 0, "velocity": 0, "duration": 105}, {"note": 68, "velocity": 87, "duration": 175}, {"note": 0, "velocity": 0, "duration": 65}, {"note": 69, "velocity": 88, "duration": 145}, {"note": 0, "velocity": 0, "duration": 95}, {"note": 71, "velocity": 88, "duration": 357}, {"note": 0, "velocity": 0, "duration": 123}, {"note": 71, "velocity": 88, "duration": 295}, {"note": 0, "velocity": 0, "duration": 185}, {"note": 71, "velocity": 89, "duration": 198}, {"note": 76, "velocity": 86, "duration": 155}, {"note": 0, "velocity": 0, "duration": 85}, {"note": 76, "velocity": 87, "duration": 160}, {"note": 0, "velocity": 0, "duration": 80}, {"note": 78, "velocity": 84, "duration": 150}, {"note": 0, "velocity": 0, "duration": 90}, {"note": 80, "velocity": 87, "duration": 348}, {"note": 0, "velocity": 0, "duration": 132}, {"note": 80, "velocity": 90, "duration": 341}, {"note": 0, "velocity": 0, "duration": 139}, {"note": 78, "velocity": 87, "duration": 165}, {"note": 0, "velocity": 0, "duration": 75}, {"note": 76, "velocity": 87, "duration": 141}, {"note": 0, "velocity": 0, "duration": 99}, {"note": 76, "velocity": 88, "duration": 263}, {"note": 78, "velocity": 85, "duration": 151}, {"note": 0, "velocity": 0, "duration": 89}, {"note": 80, "velocity": 84, "duration": 314}, {"note": 0, "velocity": 0, "duration": 166}, {"note": 80, "velocity": 89, "duration": 359}, {"note": 0, "velocity": 0, "duration": 121}, {"note": 78, "velocity": 86, "duration": 155}, {"note": 0, "velocity": 0, "duration": 85}, {"note": 76, "velocity": 82, "duration": 240}, {"note": 0, "velocity": 0, "duration": 240}, {"note": 76, "velocity": 89, "duration": 480}, {"note": 0, "velocity": 0, "duration": 960}, {"note": 71, "velocity": 82, "duration": 145}, {"note": 0, "velocity": 0, "duration": 95}, {"note": 71, "velocity": 83, "duration": 133}, {"note": 0, "velocity": 0, "duration": 107}, {"note": 71, "velocity": 83, "duration": 140}, {"note": 0, "velocity": 0, "duration": 100}, {"note": 71, "velocity": 85, "duration": 156}, {"note": 0, "velocity": 0, "duration": 84}, {"note": 71, "velocity": 89, "duration": 155}, {"note": 0, "velocity": 0, "duration": 85}, {"note": 71, "velocity": 85, "duration": 176}, {"note": 0, "velocity": 0, "duration": 64}, {"note": 71, "velocity": 87, "duration": 160}, {"note": 0, "velocity": 0, "duration": 80}, {"note": 71, "velocity": 83, "duration": 155}, {"note": 0, "velocity": 0, "duration": 85}, {"note": 73, "velocity": 88, "duration": 162}, {"note": 0, "velocity": 0, "duration": 78}, {"note": 71, "velocity": 87, "duration": 160}, {"note": 0, "velocity": 0, "duration": 80}, {"note": 69, "velocity": 87, "duration": 160}, {"note": 0, "velocity": 0, "duration": 80}, {"note": 71, "velocity": 87, "duration": 159}, {"note": 0, "velocity": 0, "duration": 321}, {"note": 71, "velocity": 87, "duration": 174}, {"note": 0, "velocity": 0, "duration": 66}, {"note": 71, "velocity": 86, "duration": 271}, {"note": 0, "velocity": 0, "duration": 449}, {"note": 71, "velocity": 88, "duration": 135}, {"note": 0, "velocity": 0, "duration": 105}, {"note": 71, "velocity": 87, "duration": 151}, {"note": 0, "velocity": 0, "duration": 89}, {"note": 69, "velocity": 87, "duration": 151}, {"note": 0, "velocity": 0, "duration": 89}, {"note": 69, "velocity": 80, "duration": 131}, {"note": 0, "velocity": 0, "duration": 109}, {"note": 69, "velocity": 83, "duration": 152}, {"note": 0, "velocity": 0, "duration": 88}, {"note": 68, "velocity": 89, "duration": 126}, {"note": 0, "velocity": 0, "duration": 114}, {"note": 68, "velocity": 89, "duration": 169}, {"note": 0, "velocity": 0, "duration": 71}, {"note": 66, "velocity": 87, "duration": 184}, {"note": 0, "velocity": 0, "duration": 296}, {"note": 69, "velocity": 86, "duration": 175}, {"note": 0, "velocity": 0, "duration": 65}, {"note": 68, "velocity": 88, "duration": 374}, {"note": 0, "velocity": 0, "duration": 106}, {"note": 68, "velocity": 83, "duration": 169}, {"note": 0, "velocity": 0, "duration": 71}, {"note": 68, "velocity": 87, "duration": 296}, {"note": 0, "velocity": 0, "duration": 184}, {"note": 71, "velocity": 85, "duration": 150}, {"note": 0, "velocity": 0, "duration": 90}, {"note": 71, "velocity": 89, "duration": 130}, {"note": 0, "velocity": 0, "duration": 110}, {"note": 71, "velocity": 87, "duration": 140}, {"note": 0, "velocity": 0, "duration": 100}, {"note": 73, "velocity": 93, "duration": 356}, {"note": 0, "velocity": 0, "duration": 124}, {"note": 73, "velocity": 88, "duration": 480}, {"note": 75, "velocity": 88, "duration": 131}, {"note": 0, "velocity": 0, "duration": 109}, {"note": 75, "velocity": 88, "duration": 125}, {"note": 0, "velocity": 0, "duration": 115}, {"note": 75, "velocity": 88, "duration": 325}, {"note": 0, "velocity": 0, "duration": 155}, {"note": 76, "velocity": 88, "duration": 342}, {"note": 0, "velocity": 0, "duration": 138}, {"note": 71, "velocity": 87, "duration": 184}, {"note": 68, "velocity": 87, "duration": 499}, {"note": 71, "velocity": 87, "duration": 528}, {"note": 0, "velocity": 0, "duration": 192}, {"note": 69, "velocity": 86, "duration": 136}, {"note": 0, "velocity": 0, "duration": 104}, {"note": 69, "velocity": 82, "duration": 127}, {"note": 0, "velocity": 0, "duration": 113}, {"note": 69, "velocity": 88, "duration": 155}, {"note": 0, "velocity": 0, "duration": 85}, {"note": 68, "velocity": 83, "duration": 163}, {"note": 0, "velocity": 0, "duration": 77}, {"note": 64, "velocity": 89, "duration": 161}, {"note": 0, "velocity": 0, "duration": 79}, {"note": 66, "velocity": 85, "duration": 145}, {"note": 0, "velocity": 0, "duration": 95}, {"note": 68, "velocity": 86, "duration": 156}, {"note": 0, "velocity": 0, "duration": 84}, {"note": 66, "velocity": 83, "duration": 1757}, {"note": 0, "velocity": 0, "duration": 1603}, {"note": 71, "velocity": 85, "duration": 212}, {"note": 76, "velocity": 90, "duration": 186}, {"note": 75, "velocity": 94, "duration": 199}, {"note": 73, "velocity": 90, "duration": 378}, {"note": 0, "velocity": 0, "duration": 102}, {"note": 73, "velocity": 89, "duration": 151}, {"note": 0, "velocity": 0, "duration": 89}, {"note": 76, "velocity": 88, "duration": 170}, {"note": 0, "velocity": 0, "duration": 70}, {"note": 75, "velocity": 91, "duration": 381}, {"note": 0, "velocity": 0, "duration": 99}, {"note": 73, "velocity": 88, "duration": 181}, {"note": 75, "velocity": 83, "duration": 217}, {"note": 71, "velocity": 89, "duration": 421}, {"note": 76, "velocity": 87, "duration": 160}, {"note": 0, "velocity": 0, "duration": 80}, {"note": 76, "velocity": 87, "duration": 313}, {"note": 0, "velocity": 0, "duration": 167}, {"note": 68, "velocity": 81, "duration": 117}, {"note": 0, "velocity": 0, "duration": 123}, {"note": 68, "velocity": 87, "duration": 153}, {"note": 0, "velocity": 0, "duration": 87}, {"note": 71, "velocity": 84, "duration": 170}, {"note": 0, "velocity": 0, "duration": 70}, {"note": 69, "velocity": 87, "duration": 392}, {"note": 0, "velocity": 0, "duration": 88}, {"note": 69, "velocity": 88, "duration": 177}, {"note": 0, "velocity": 0, "duration": 63}, {"note": 73, "velocity": 89, "duration": 147}, {"note": 0, "velocity": 0, "duration": 93}, {"note": 71, "velocity": 86, "duration": 315}, {"note": 0, "velocity": 0, "duration": 165}, {"note": 71, "velocity": 87, "duration": 199}, {"note": 69, "velocity": 88, "duration": 167}, {"note": 0, "velocity": 0, "duration": 73}, {"note": 71, "velocity": 87, "duration": 1098}, {"note": 0, "velocity": 0, "duration": 102}, {"note": 71, "velocity": 89, "duration": 128}, {"note": 0, "velocity": 0, "duration": 112}, {"note": 76, "velocity": 88, "duration": 160}, {"note": 0, "velocity": 0, "duration": 80}, {"note": 75, "velocity": 88, "duration": 155}, {"note": 0, "velocity": 0, "duration": 85}, {"note": 73, "velocity": 94, "duration": 356}, {"note": 0, "velocity": 0, "duration": 124}, {"note": 73, "velocity": 92, "duration": 144}, {"note": 0, "velocity": 0, "duration": 96}, {"note": 76, "velocity": 87, "duration": 145}, {"note": 0, "velocity": 0, "duration": 95}, {"note": 75, "velocity": 91, "duration": 340}, {"note": 0, "velocity": 0, "duration": 140}, {"note": 73, "velocity": 89, "duration": 169}, {"note": 0, "velocity": 0, "duration": 71}, {"note": 75, "velocity": 87, "duration": 194}, {"note": 71, "velocity": 88, "duration": 179}, {"note": 0, "velocity": 0, "duration": 61}, {"note": 76, "velocity": 84, "duration": 132}, {"note": 0, "velocity": 0, "duration": 108}, {"note": 76, "velocity": 83, "duration": 131}, {"note": 0, "velocity": 0, "duration": 109}, {"note": 76, "velocity": 87, "duration": 319}, {"note": 0, "velocity": 0, "duration": 161}, {"note": 68, "velocity": 88, "duration": 103}, {"note": 0, "velocity": 0, "duration": 137}, {"note": 68, "velocity": 87, "duration": 149}, {"note": 0, "velocity": 0, "duration": 91}, {"note": 71, "velocity": 85, "duration": 149}, {"note": 0, "velocity": 0, "duration": 91}, {"note": 69, "velocity": 87, "duration": 382}, {"note": 0, "velocity": 0, "duration": 98}, {"note": 69, "velocity": 89, "duration": 155}, {"note": 0, "velocity": 0, "duration": 85}, {"note": 68, "velocity": 85, "duration": 141}, {"note": 0, "velocity": 0, "duration": 99}, {"note": 64, "velocity": 87, "duration": 396}, {"note": 0, "velocity": 0, "duration": 84}, {"note": 66, "velocity": 82, "duration": 145}, {"note": 0, "velocity": 0, "duration": 95}, {"note": 64, "velocity": 83, "duration": 960}, {"note": 0, "velocity": 0, "duration": 480}, {"note": 71, "velocity": 85, "duration": 212}, {"note": 76, "velocity": 90, "duration": 186}, {"note": 75, "velocity": 94, "duration": 199}, {"note": 73, "velocity": 90, "duration": 378}, {"note": 0, "velocity": 0, "duration": 102}, {"note": 73, "velocity": 89, "duration": 151}, {"note": 0, "velocity": 0, "duration": 89}, {"note": 76, "velocity": 88, "duration": 170}, {"note": 0, "velocity": 0, "duration": 70}, {"note": 75, "velocity": 91, "duration": 381}, {"note": 0, "velocity": 0, "duration": 99}, {"note": 73, "velocity": 88, "duration": 181}, {"note": 75, "velocity": 83, "duration": 217}, {"note": 71, "velocity": 89, "duration": 421}, {"note": 76, "velocity": 87, "duration": 160}, {"note": 0, "velocity": 0, "duration": 80}, {"note": 76, "velocity": 87, "duration": 313}, {"note": 0, "velocity": 0, "duration": 167}, {"note": 68, "velocity": 81, "duration": 117}, {"note": 0, "velocity": 0, "duration": 123}, {"note": 68, "velocity": 87, "duration": 153}, {"note": 0, "velocity": 0, "duration": 87}, {"note": 71, "velocity": 84, "duration": 170}, {"note": 0, "velocity": 0, "duration": 70}, {"note": 69, "velocity": 87, "duration": 392}, {"note": 0, "velocity": 0, "duration": 88}, {"note": 69, "velocity": 88, "duration": 177}, {"note": 0, "velocity": 0, "duration": 63}, {"note": 73, "velocity": 89, "duration": 147}, {"note": 0, "velocity": 0, "duration": 93}, {"note": 71, "velocity": 86, "duration": 315}, {"note": 0, "velocity": 0, "duration": 165}, {"note": 71, "velocity": 87, "duration": 199}, {"note": 69, "velocity": 88, "duration": 167}, {"note": 0, "velocity": 0, "duration": 73}, {"note": 71, "velocity": 87, "duration": 1098}, {"note": 0, "velocity": 0, "duration": 102}, {"note": 71, "velocity": 89, "duration": 128}, {"note": 0, "velocity": 0, "duration": 112}, {"note": 76, "velocity": 88, "duration": 160}, {"note": 0, "velocity": 0, "duration": 80}, {"note": 75, "velocity": 88, "duration": 155}, {"note": 0, "velocity": 0, "duration": 85}, {"note": 73, "velocity": 94, "duration": 356}, {"note": 0, "velocity": 0, "duration": 124}, {"note": 73, "velocity": 92, "duration": 144}, {"note": 0, "velocity": 0, "duration": 96}, {"note": 76, "velocity": 87, "duration": 145}, {"note": 0, "velocity": 0, "duration": 95}, {"note": 75, "velocity": 91, "duration": 340}, {"note": 0, "velocity": 0, "duration": 140}, {"note": 73, "velocity": 89, "duration": 169}, {"note": 0, "velocity": 0, "duration": 71}, {"note": 75, "velocity": 87, "duration": 194}, {"note": 71, "velocity": 88, "duration": 179}, {"note": 0, "velocity": 0, "duration": 61}, {"note": 76, "velocity": 84, "duration": 132}, {"note": 0, "velocity": 0, "duration": 108}, {"note": 76, "velocity": 83, "duration": 131}, {"note": 0, "velocity": 0, "duration": 109}, {"note": 76, "velocity": 87, "duration": 319}, {"note": 0, "velocity": 0, "duration": 161}, {"note": 68, "velocity": 88, "duration": 103}, {"note": 0, "velocity": 0, "duration": 137}, {"note": 68, "velocity": 87, "duration": 149}, {"note": 0, "velocity": 0, "duration": 91}, {"note": 71, "velocity": 85, "duration": 149}, {"note": 0, "velocity": 0, "duration": 91}, {"note": 69, "velocity": 87, "duration": 382}, {"note": 0, "velocity": 0, "duration": 98}, {"note": 69, "velocity": 89, "duration": 155}, {"note": 0, "velocity": 0, "duration": 85}, {"note": 68, "velocity": 85, "duration": 141}, {"note": 0, "velocity": 0, "duration": 99}, {"note": 64, "velocity": 87, "duration": 396}, {"note": 0, "velocity": 0, "duration": 84}, {"note": 66, "velocity": 82, "duration": 145}, {"note": 0, "velocity": 0, "duration": 95}, {"note": 64, "velocity": 83, "duration": 1731}, {"note": 0, "velocity": 0, "duration": 17229}, {"note": 68, "velocity": 89, "duration": 164}, {"note": 0, "velocity": 0, "duration": 76}, {"note": 69, "velocity": 87, "duration": 157}, {"note": 0, "velocity": 0, "duration": 83}, {"note": 71, "velocity": 88, "duration": 372}, {"note": 0, "velocity": 0, "duration": 108}, {"note": 71, "velocity": 88, "duration": 370}, {"note": 0, "velocity": 0, "duration": 110}, {"note": 69, "velocity": 92, "duration": 142}, {"note": 0, "velocity": 0, "duration": 98}, {"note": 68, "velocity": 81, "duration": 143}, {"note": 0, "velocity": 0, "duration": 97}, {"note": 66, "velocity": 87, "duration": 373}, {"note": 0, "velocity": 0, "duration": 107}, {"note": 64, "velocity": 89, "duration": 325}, {"note": 0, "velocity": 0, "duration": 155}, {"note": 64, "velocity": 87, "duration": 357}, {"note": 0, "velocity": 0, "duration": 123}, {"note": 66, "velocity": 86, "duration": 144}, {"note": 0, "velocity": 0, "duration": 96}, {"note": 64, "velocity": 85, "duration": 121}, {"note": 0, "velocity": 0, "duration": 119}, {"note": 63, "velocity": 91, "duration": 135}, {"note": 0, "velocity": 0, "duration": 105}, {"note": 64, "velocity": 80, "duration": 168}, {"note": 0, "velocity": 0, "duration": 72}, {"note": 68, "velocity": 87, "duration": 318}, {"note": 0, "velocity": 0, "duration": 162}, {"note": 68, "velocity": 88, "duration": 339}, {"note": 0, "velocity": 0, "duration": 141}, {"note": 66, "velocity": 82, "duration": 136}, {"note": 0, "velocity": 0, "duration": 104}, {"note": 68, "velocity": 86, "duration": 159}, {"note": 0, "velocity": 0, "duration": 81}, {"note": 69, "velocity": 88, "duration": 407}, {"note": 0, "velocity": 0, "duration": 73}, {"note": 68, "velocity": 86, "duration": 905}, {"note": 0, "velocity": 0, "duration": 295}, {"note": 68, "velocity": 88, "duration": 135}, {"note": 0, "velocity": 0, "duration": 105}, {"note": 68, "velocity": 87, "duration": 175}, {"note": 0, "velocity": 0, "duration": 65}, {"note": 69, "velocity": 88, "duration": 145}, {"note": 0, "velocity": 0, "duration": 95}, {"note": 71, "velocity": 88, "duration": 357}, {"note": 0, "velocity": 0, "duration": 123}, {"note": 71, "velocity": 88, "duration": 295}, {"note": 0, "velocity": 0, "duration": 185}, {"note": 69, "velocity": 90, "duration": 170}, {"note": 0, "velocity": 0, "duration": 70}, {"note": 68, "velocity": 87, "duration": 121}, {"note": 0, "velocity": 0, "duration": 119}, {"note": 66, "velocity": 87, "duration": 418}, {"note": 0, "velocity": 0, "duration": 62}, {"note": 64, "velocity": 87, "duration": 391}, {"note": 0, "velocity": 0, "duration": 89}, {"note": 64, "velocity": 88, "duration": 319}, {"note": 0, "velocity": 0, "duration": 161}, {"note": 66, "velocity": 82, "duration": 164}, {"note": 0, "velocity": 0, "duration": 76}, {"note": 68, "velocity": 86, "duration": 173}, {"note": 0, "velocity": 0, "duration": 67}, {"note": 66, "velocity": 88, "duration": 451}, {"note": 64, "velocity": 88, "duration": 348}, {"note": 0, "velocity": 0, "duration": 372}, {"note": 59, "velocity": 89, "duration": 240}, {"note": 68, "velocity": 81, "duration": 240}, {"note": 66, "velocity": 84, "duration": 240}, {"note": 64, "velocity": 80, "duration": 240}, {"note": 64, "velocity": 88, "duration": 1326}, {"note": 0, "velocity": 0, "duration": 114}, {"note": 71, "velocity": 82, "duration": 145}, {"note": 0, "velocity": 0, "duration": 95}, {"note": 71, "velocity": 83, "duration": 133}, {"note": 0, "velocity": 0, "duration": 107}, {"note": 71, "velocity": 83, "duration": 140}, {"note": 0, "velocity": 0, "duration": 100}, {"note": 71, "velocity": 85, "duration": 156}, {"note": 0, "velocity": 0, "duration": 84}, {"note": 71, "velocity": 89, "duration": 155}, {"note": 0, "velocity": 0, "duration": 85}, {"note": 71, "velocity": 85, "duration": 176}, {"note": 0, "velocity": 0, "duration": 64}, {"note": 71, "velocity": 87, "duration": 160}, {"note": 0, "velocity": 0, "duration": 80}, {"note": 71, "velocity": 83, "duration": 155}, {"note": 0, "velocity": 0, "duration": 85}, {"note": 73, "velocity": 88, "duration": 162}, {"note": 0, "velocity": 0, "duration": 78}, {"note": 71, "velocity": 87, "duration": 160}, {"note": 0, "velocity": 0, "duration": 80}, {"note": 69, "velocity": 87, "duration": 160}, {"note": 0, "velocity": 0, "duration": 80}, {"note": 71, "velocity": 87, "duration": 159}, {"note": 0, "velocity": 0, "duration": 321}, {"note": 71, "velocity": 87, "duration": 174}, {"note": 0, "velocity": 0, "duration": 66}, {"note": 71, "velocity": 86, "duration": 271}, {"note": 0, "velocity": 0, "duration": 449}, {"note": 71, "velocity": 88, "duration": 135}, {"note": 0, "velocity": 0, "duration": 105}, {"note": 71, "velocity": 87, "duration": 151}, {"note": 0, "velocity": 0, "duration": 89}, {"note": 69, "velocity": 87, "duration": 151}, {"note": 0, "velocity": 0, "duration": 89}, {"note": 69, "velocity": 80, "duration": 131}, {"note": 0, "velocity": 0, "duration": 109}, {"note": 69, "velocity": 83, "duration": 152}, {"note": 0, "velocity": 0, "duration": 88}, {"note": 68, "velocity": 89, "duration": 126}, {"note": 0, "velocity": 0, "duration": 114}, {"note": 68, "velocity": 89, "duration": 169}, {"note": 0, "velocity": 0, "duration": 71}, {"note": 66, "velocity": 87, "duration": 184}, {"note": 68, "velocity": 86, "duration": 156}, {"note": 0, "velocity": 0, "duration": 84}, {"note": 69, "velocity": 86, "duration": 175}, {"note": 0, "velocity": 0, "duration": 65}, {"note": 68, "velocity": 88, "duration": 374}, {"note": 0, "velocity": 0, "duration": 106}, {"note": 68, "velocity": 83, "duration": 169}, {"note": 0, "velocity": 0, "duration": 71}, {"note": 68, "velocity": 87, "duration": 296}, {"note": 0, "velocity": 0, "duration": 184}, {"note": 71, "velocity": 85, "duration": 150}, {"note": 0, "velocity": 0, "duration": 90}, {"note": 71, "velocity": 89, "duration": 130}, {"note": 0, "velocity": 0, "duration": 110}, {"note": 71, "velocity": 87, "duration": 140}, {"note": 0, "velocity": 0, "duration": 100}, {"note": 73, "velocity": 93, "duration": 356}, {"note": 0, "velocity": 0, "duration": 124}, {"note": 73, "velocity": 88, "duration": 480}, {"note": 75, "velocity": 88, "duration": 131}, {"note": 0, "velocity": 0, "duration": 109}, {"note": 75, "velocity": 88, "duration": 125}, {"note": 0, "velocity": 0, "duration": 115}, {"note": 75, "velocity": 88, "duration": 325}, {"note": 0, "velocity": 0, "duration": 155}, {"note": 76, "velocity": 88, "duration": 342}, {"note": 0, "velocity": 0, "duration": 138}, {"note": 71, "velocity": 87, "duration": 184}, {"note": 68, "velocity": 87, "duration": 499}, {"note": 71, "velocity": 87, "duration": 528}, {"note": 0, "velocity": 0, "duration": 192}, {"note": 69, "velocity": 86, "duration": 136}, {"note": 0, "velocity": 0, "duration": 104}, {"note": 69, "velocity": 82, "duration": 127}, {"note": 0, "velocity": 0, "duration": 113}, {"note": 69, "velocity": 88, "duration": 155}, {"note": 0, "velocity": 0, "duration": 85}, {"note": 68, "velocity": 83, "duration": 163}, {"note": 0, "velocity": 0, "duration": 77}, {"note": 64, "velocity": 89, "duration": 161}, {"note": 0, "velocity": 0, "duration": 79}, {"note": 66, "velocity": 85, "duration": 145}, {"note": 0, "velocity": 0, "duration": 95}, {"note": 68, "velocity": 86, "duration": 156}, {"note": 0, "velocity": 0, "duration": 84}, {"note": 66, "velocity": 83, "duration": 1757}, {"note": 0, "velocity": 0, "duration": 1603}, {"note": 71, "velocity": 85, "duration": 212}, {"note": 76, "velocity": 90, "duration": 186}, {"note": 75, "velocity": 94, "duration": 199}, {"note": 73, "velocity": 90, "duration": 378}, {"note": 0, "velocity": 0, "duration": 102}, {"note": 73, "velocity": 89, "duration": 151}, {"note": 0, "velocity": 0, "duration": 89}, {"note": 76, "velocity": 88, "duration": 170}, {"note": 0, "velocity": 0, "duration": 70}, {"note": 75, "velocity": 91, "duration": 381}, {"note": 0, "velocity": 0, "duration": 99}, {"note": 73, "velocity": 88, "duration": 181}, {"note": 75, "velocity": 83, "duration": 217}, {"note": 71, "velocity": 89, "duration": 421}, {"note": 76, "velocity": 87, "duration": 160}, {"note": 0, "velocity": 0, "duration": 80}, {"note": 76, "velocity": 87, "duration": 313}, {"note": 0, "velocity": 0, "duration": 167}, {"note": 68, "velocity": 81, "duration": 117}, {"note": 0, "velocity": 0, "duration": 123}, {"note": 68, "velocity": 87, "duration": 153}, {"note": 0, "velocity": 0, "duration": 87}, {"note": 71, "velocity": 84, "duration": 170}, {"note": 0, "velocity": 0, "duration": 70}, {"note": 69, "velocity": 87, "duration": 392}, {"note": 0, "velocity": 0, "duration": 88}, {"note": 69, "velocity": 88, "duration": 177}, {"note": 0, "velocity": 0, "duration": 63}, {"note": 73, "velocity": 89, "duration": 147}, {"note": 0, "velocity": 0, "duration": 93}, {"note": 71, "velocity": 86, "duration": 315}, {"note": 0, "velocity": 0, "duration": 165}, {"note": 71, "velocity": 87, "duration": 199}, {"note": 69, "velocity": 88, "duration": 167}, {"note": 0, "velocity": 0, "duration": 73}, {"note": 71, "velocity": 87, "duration": 1098}, {"note": 0, "velocity": 0, "duration": 102}, {"note": 71, "velocity": 89, "duration": 128}, {"note": 0, "velocity": 0, "duration": 112}, {"note": 76, "velocity": 88, "duration": 160}, {"note": 0, "velocity": 0, "duration": 80}, {"note": 75, "velocity": 88, "duration": 155}, {"note": 0, "velocity": 0, "duration": 85}, {"note": 73, "velocity": 94, "duration": 356}, {"note": 0, "velocity": 0, "duration": 124}, {"note": 73, "velocity": 92, "duration": 144}, {"note": 0, "velocity": 0, "duration": 96}, {"note": 76, "velocity": 87, "duration": 145}, {"note": 0, "velocity": 0, "duration": 95}, {"note": 75, "velocity": 91, "duration": 340}, {"note": 0, "velocity": 0, "duration": 140}, {"note": 73, "velocity": 89, "duration": 169}, {"note": 0, "velocity": 0, "duration": 71}, {"note": 75, "velocity": 87, "duration": 194}, {"note": 71, "velocity": 88, "duration": 179}, {"note": 0, "velocity": 0, "duration": 61}, {"note": 76, "velocity": 84, "duration": 132}, {"note": 0, "velocity": 0, "duration": 108}, {"note": 76, "velocity": 83, "duration": 131}, {"note": 0, "velocity": 0, "duration": 109}, {"note": 76, "velocity": 87, "duration": 319}, {"note": 0, "velocity": 0, "duration": 161}, {"note": 68, "velocity": 88, "duration": 103}, {"note": 0, "velocity": 0, "duration": 137}, {"note": 68, "velocity": 87, "duration": 149}, {"note": 0, "velocity": 0, "duration": 91}, {"note": 71, "velocity": 85, "duration": 149}, {"note": 0, "velocity": 0, "duration": 91}, {"note": 69, "velocity": 87, "duration": 382}, {"note": 0, "velocity": 0, "duration": 98}, {"note": 69, "velocity": 89, "duration": 155}, {"note": 0, "velocity": 0, "duration": 85}, {"note": 68, "velocity": 85, "duration": 141}, {"note": 0, "velocity": 0, "duration": 99}, {"note": 64, "velocity": 87, "duration": 396}, {"note": 0, "velocity": 0, "duration": 84}, {"note": 66, "velocity": 82, "duration": 145}, {"note": 0, "velocity": 0, "duration": 95}, {"note": 64, "velocity": 83, "duration": 960}, {"note": 0, "velocity": 0, "duration": 480}, {"note": 71, "velocity": 85, "duration": 212}, {"note": 76, "velocity": 90, "duration": 186}, {"note": 75, "velocity": 94, "duration": 199}, {"note": 73, "velocity": 90, "duration": 378}, {"note": 0, "velocity": 0, "duration": 102}, {"note": 73, "velocity": 89, "duration": 151}, {"note": 0, "velocity": 0, "duration": 89}, {"note": 76, "velocity": 88, "duration": 170}, {"note": 0, "velocity": 0, "duration": 70}, {"note": 75, "velocity": 91, "duration": 381}, {"note": 0, "velocity": 0, "duration": 99}, {"note": 73, "velocity": 88, "duration": 181}, {"note": 75, "velocity": 83, "duration": 217}, {"note": 71, "velocity": 89, "duration": 421}, {"note": 76, "velocity": 87, "duration": 160}, {"note": 0, "velocity": 0, "duration": 80}, {"note": 76, "velocity": 87, "duration": 313}, {"note": 0, "velocity": 0, "duration": 167}, {"note": 68, "velocity": 81, "duration": 117}, {"note": 0, "velocity": 0, "duration": 123}, {"note": 68, "velocity": 87, "duration": 153}, {"note": 0, "velocity": 0, "duration": 87}, {"note": 71, "velocity": 84, "duration": 170}, {"note": 0, "velocity": 0, "duration": 70}, {"note": 69, "velocity": 87, "duration": 392}, {"note": 0, "velocity": 0, "duration": 88}, {"note": 69, "velocity": 88, "duration": 177}, {"note": 0, "velocity": 0, "duration": 63}, {"note": 73, "velocity": 89, "duration": 147}, {"note": 0, "velocity": 0, "duration": 93}, {"note": 71, "velocity": 86, "duration": 315}, {"note": 0, "velocity": 0, "duration": 165}, {"note": 71, "velocity": 87, "duration": 199}, {"note": 69, "velocity": 88, "duration": 167}, {"note": 0, "velocity": 0, "duration": 73}, {"note": 71, "velocity": 87, "duration": 1098}, {"note": 0, "velocity": 0, "duration": 102}, {"note": 71, "velocity": 89, "duration": 128}, {"note": 0, "velocity": 0, "duration": 112}, {"note": 76, "velocity": 88, "duration": 160}, {"note": 0, "velocity": 0, "duration": 80}, {"note": 75, "velocity": 88, "duration": 155}, {"note": 0, "velocity": 0, "duration": 85}, {"note": 73, "velocity": 94, "duration": 356}, {"note": 0, "velocity": 0, "duration": 124}, {"note": 73, "velocity": 92, "duration": 144}, {"note": 0, "velocity": 0, "duration": 96}, {"note": 76, "velocity": 87, "duration": 145}, {"note": 0, "velocity": 0, "duration": 95}, {"note": 75, "velocity": 91, "duration": 340}, {"note": 0, "velocity": 0, "duration": 140}, {"note": 73, "velocity": 89, "duration": 169}, {"note": 0, "velocity": 0, "duration": 71}, {"note": 75, "velocity": 87, "duration": 194}, {"note": 71, "velocity": 88, "duration": 179}, {"note": 0, "velocity": 0, "duration": 61}, {"note": 76, "velocity": 84, "duration": 132}, {"note": 0, "velocity": 0, "duration": 108}, {"note": 76, "velocity": 83, "duration": 131}, {"note": 0, "velocity": 0, "duration": 109}, {"note": 76, "velocity": 87, "duration": 319}, {"note": 0, "velocity": 0, "duration": 161}, {"note": 68, "velocity": 88, "duration": 103}, {"note": 0, "velocity": 0, "duration": 137}, {"note": 68, "velocity": 87, "duration": 149}, {"note": 0, "velocity": 0, "duration": 91}, {"note": 71, "velocity": 85, "duration": 149}, {"note": 0, "velocity": 0, "duration": 91}, {"note": 69, "velocity": 87, "duration": 382}, {"note": 0, "velocity": 0, "duration": 98}, {"note": 69, "velocity": 89, "duration": 155}, {"note": 0, "velocity": 0, "duration": 85}, {"note": 68, "velocity": 85, "duration": 141}, {"note": 0, "velocity": 0, "duration": 99}, {"note": 64, "velocity": 87, "duration": 396}, {"note": 0, "velocity": 0, "duration": 84}, {"note": 66, "velocity": 82, "duration": 145}, {"note": 0, "velocity": 0, "duration": 95}, {"note": 64, "velocity": 83, "duration": 1200}, {"note": 0, "velocity": 0, "duration": 240}, {"note": 71, "velocity": 85, "duration": 212}, {"note": 76, "velocity": 90, "duration": 186}, {"note": 75, "velocity": 94, "duration": 199}, {"note": 73, "velocity": 90, "duration": 378}, {"note": 0, "velocity": 0, "duration": 102}, {"note": 73, "velocity": 89, "duration": 151}, {"note": 0, "velocity": 0, "duration": 89}, {"note": 76, "velocity": 88, "duration": 170}, {"note": 0, "velocity": 0, "duration": 70}, {"note": 75, "velocity": 91, "duration": 381}, {"note": 0, "velocity": 0, "duration": 99}, {"note": 73, "velocity": 88, "duration": 181}, {"note": 75, "velocity": 83, "duration": 217}, {"note": 71, "velocity": 89, "duration": 421}, {"note": 76, "velocity": 87, "duration": 160}, {"note": 0, "velocity": 0, "duration": 80}, {"note": 76, "velocity": 87, "duration": 313}, {"note": 0, "velocity": 0, "duration": 167}, {"note": 68, "velocity": 81, "duration": 117}, {"note": 0, "velocity": 0, "duration": 123}, {"note": 68, "velocity": 87, "duration": 153}, {"note": 0, "velocity": 0, "duration": 87}, {"note": 71, "velocity": 84, "duration": 170}, {"note": 0, "velocity": 0, "duration": 70}, {"note": 69, "velocity": 87, "duration": 392}, {"note": 0, "velocity": 0, "duration": 88}, {"note": 69, "velocity": 88, "duration": 177}, {"note": 0, "velocity": 0, "duration": 63}, {"note": 73, "velocity": 89, "duration": 147}, {"note": 0, "velocity": 0, "duration": 93}, {"note": 71, "velocity": 86, "duration": 315}, {"note": 0, "velocity": 0, "duration": 165}, {"note": 71, "velocity": 87, "duration": 199}, {"note": 69, "velocity": 88, "duration": 167}, {"note": 0, "velocity": 0, "duration": 73}, {"note": 71, "velocity": 87, "duration": 1098}, {"note": 0, "velocity": 0, "duration": 102}, {"note": 71, "velocity": 89, "duration": 128}, {"note": 0, "velocity": 0, "duration": 112}, {"note": 76, "velocity": 88, "duration": 160}, {"note": 0, "velocity": 0, "duration": 80}, {"note": 75, "velocity": 88, "duration": 155}, {"note": 0, "velocity": 0, "duration": 85}, {"note": 73, "velocity": 94, "duration": 356}, {"note": 0, "velocity": 0, "duration": 124}, {"note": 73, "velocity": 92, "duration": 144}, {"note": 0, "velocity": 0, "duration": 96}, {"note": 76, "velocity": 87, "duration": 145}, {"note": 0, "velocity": 0, "duration": 95}, {"note": 75, "velocity": 91, "duration": 340}, {"note": 0, "velocity": 0, "duration": 140}, {"note": 73, "velocity": 89, "duration": 169}, {"note": 0, "velocity": 0, "duration": 71}, {"note": 75, "velocity": 87, "duration": 194}, {"note": 71, "velocity": 88, "duration": 179}, {"note": 0, "velocity": 0, "duration": 61}, {"note": 76, "velocity": 84, "duration": 132}, {"note": 0, "velocity": 0, "duration": 108}, {"note": 76, "velocity": 83, "duration": 131}, {"note": 0, "velocity": 0, "duration": 109}, {"note": 76, "velocity": 87, "duration": 319}, {"note": 0, "velocity": 0, "duration": 161}, {"note": 68, "velocity": 88, "duration": 103}, {"note": 0, "velocity": 0, "duration": 137}, {"note": 68, "velocity": 87, "duration": 149}, {"note": 0, "velocity": 0, "duration": 91}, {"note": 71, "velocity": 85, "duration": 149}, {"note": 0, "velocity": 0, "duration": 91}, {"note": 69, "velocity": 87, "duration": 382}, {"note": 0, "velocity": 0, "duration": 98}, {"note": 69, "velocity": 89, "duration": 155}, {"note": 0, "velocity": 0, "duration": 85}, {"note": 68, "velocity": 85, "duration": 141}, {"note": 0, "velocity": 0, "duration": 99}, {"note": 64, "velocity": 87, "duration": 396}, {"note": 0, "velocity": 0, "duration": 84}, {"note": 66, "velocity": 82, "duration": 145}, {"note": 0, "velocity": 0, "duration": 95}, {"note": 64, "velocity": 83, "duration": 960}, {"note": 0, "velocity": 0, "duration": 480}, {"note": 71, "velocity": 85, "duration": 212}, {"note": 76, "velocity": 90, "duration": 186}, {"note": 75, "velocity": 94, "duration": 199}, {"note": 73, "velocity": 90, "duration": 378}, {"note": 0, "velocity": 0, "duration": 102}, {"note": 73, "velocity": 89, "duration": 151}, {"note": 0, "velocity": 0, "duration": 89}, {"note": 76, "velocity": 88, "duration": 170}, {"note": 0, "velocity": 0, "duration": 70}, {"note": 75, "velocity": 91, "duration": 381}, {"note": 0, "velocity": 0, "duration": 99}, {"note": 73, "velocity": 88, "duration": 181}, {"note": 75, "velocity": 83, "duration": 217}, {"note": 71, "velocity": 89, "duration": 421}, {"note": 76, "velocity": 87, "duration": 160}, {"note": 0, "velocity": 0, "duration": 80}, {"note": 76, "velocity": 87, "duration": 313}, {"note": 0, "velocity": 0, "duration": 167}, {"note": 68, "velocity": 81, "duration": 117}, {"note": 0, "velocity": 0, "duration": 123}, {"note": 68, "velocity": 87, "duration": 153}, {"note": 0, "velocity": 0, "duration": 87}, {"note": 71, "velocity": 84, "duration": 170}, {"note": 0, "velocity": 0, "duration": 70}, {"note": 69, "velocity": 87, "duration": 392}, {"note": 0, "velocity": 0, "duration": 88}, {"note": 69, "velocity": 88, "duration": 177}, {"note": 0, "velocity": 0, "duration": 63}, {"note": 73, "velocity": 89, "duration": 147}, {"note": 0, "velocity": 0, "duration": 93}, {"note": 71, "velocity": 86, "duration": 315}, {"note": 0, "velocity": 0, "duration": 165}, {"note": 71, "velocity": 87, "duration": 199}, {"note": 69, "velocity": 88, "duration": 167}, {"note": 0, "velocity": 0, "duration": 73}, {"note": 71, "velocity": 87, "duration": 1098}, {"note": 0, "velocity": 0, "duration": 102}, {"note": 71, "velocity": 89, "duration": 128}, {"note": 0, "velocity": 0, "duration": 112}, {"note": 76, "velocity": 88, "duration": 160}, {"note": 0, "velocity": 0, "duration": 80}, {"note": 75, "velocity": 88, "duration": 155}, {"note": 0, "velocity": 0, "duration": 85}, {"note": 73, "velocity": 94, "duration": 356}, {"note": 0, "velocity": 0, "duration": 124}, {"note": 73, "velocity": 92, "duration": 144}, {"note": 0, "velocity": 0, "duration": 96}, {"note": 76, "velocity": 87, "duration": 145}, {"note": 0, "velocity": 0, "duration": 95}, {"note": 75, "velocity": 91, "duration": 340}, {"note": 0, "velocity": 0, "duration": 140}, {"note": 73, "velocity": 89, "duration": 169}, {"note": 0, "velocity": 0, "duration": 71}, {"note": 75, "velocity": 87, "duration": 194}, {"note": 71, "velocity": 88, "duration": 179}, {"note": 0, "velocity": 0, "duration": 61}, {"note": 76, "velocity": 84, "duration": 132}, {"note": 0, "velocity": 0, "duration": 108}, {"note": 76, "velocity": 83, "duration": 131}, {"note": 0, "velocity": 0, "duration": 109}, {"note": 76, "velocity": 87, "duration": 319}, {"note": 0, "velocity": 0, "duration": 161}, {"note": 68, "velocity": 88, "duration": 103}, {"note": 0, "velocity": 0, "duration": 137}, {"note": 68, "velocity": 87, "duration": 149}, {"note": 0, "velocity": 0, "duration": 91}, {"note": 71, "velocity": 85, "duration": 149}, {"note": 0, "velocity": 0, "duration": 91}, {"note": 69, "velocity": 87, "duration": 382}, {"note": 0, "velocity": 0, "duration": 98}, {"note": 69, "velocity": 89, "duration": 155}, {"note": 0, "velocity": 0, "duration": 85}, {"note": 68, "velocity": 85, "duration": 141}, {"note": 0, "velocity": 0, "duration": 99}, {"note": 64, "velocity": 87, "duration": 396}, {"note": 0, "velocity": 0, "duration": 84}, {"note": 66, "velocity": 82, "duration": 145}, {"note": 0, "velocity": 0, "duration": 95}, {"note": 64, "velocity": 83, "duration": 1731}]]