[[{"note": 66, "velocity": 90, "duration": 811}, {"note": 0, "velocity": 0, "duration": 149}, {"note": 69, "velocity": 87, "duration": 378}, {"note": 0, "velocity": 0, "duration": 102}, {"note": 71, "velocity": 88, "duration": 399}, {"note": 0, "velocity": 0, "duration": 81}, {"note": 66, "velocity": 90, "duration": 1140}, {"note": 0, "velocity": 0, "duration": 300}, {"note": 62, "velocity": 88, "duration": 403}, {"note": 0, "velocity": 0, "duration": 77}, {"note": 64, "velocity": 92, "duration": 586}, {"note": 0, "velocity": 0, "duration": 134}, {"note": 62, "velocity": 90, "duration": 233}, {"note": 64, "velocity": 92, "duration": 405}, {"note": 0, "velocity": 0, "duration": 75}, {"note": 69, "velocity": 88, "duration": 413}, {"note": 0, "velocity": 0, "duration": 67}, {"note": 66, "velocity": 88, "duration": 1243}, {"note": 0, "velocity": 0, "duration": 677}, {"note": 64, "velocity": 88, "duration": 420}, {"note": 66, "velocity": 86, "duration": 340}, {"note": 0, "velocity": 0, "duration": 140}, {"note": 64, "velocity": 92, "duration": 351}, {"note": 0, "velocity": 0, "duration": 129}, {"note": 66, "velocity": 90, "duration": 377}, {"note": 0, "velocity": 0, "duration": 103}, {"note": 64, "velocity": 88, "duration": 365}, {"note": 0, "velocity": 0, "duration": 115}, {"note": 62, "velocity": 88, "duration": 393}, {"note": 0, "velocity": 0, "duration": 87}, {"note": 59, "velocity": 87, "duration": 351}, {"note": 0, "velocity": 0, "duration": 129}, {"note": 57, "velocity": 88, "duration": 391}, {"note": 0, "velocity": 0, "duration": 89}, {"note": 62, "velocity": 87, "duration": 1410}, {"note": 64, "velocity": 92, "duration": 367}, {"note": 0, "velocity": 0, "duration": 113}, {"note": 66, "velocity": 92, "duration": 591}, {"note": 0, "velocity": 0, "duration": 129}, {"note": 64, "velocity": 95, "duration": 163}, {"note": 0, "velocity": 0, "duration": 77}, {"note": 66, "velocity": 87, "duration": 208}, {"note": 64, "velocity": 87, "duration": 155}, {"note": 0, "velocity": 0, "duration": 85}, {"note": 66, "velocity": 89, "duration": 191}, {"note": 69, "velocity": 87, "duration": 209}, {"note": 64, "velocity": 91, "duration": 1951}, {"note": 0, "velocity": 0, "duration": 1889}, {"note": 66, "velocity": 90, "duration": 811}, {"note": 0, "velocity": 0, "duration": 149}, {"note": 69, "velocity": 87, "duration": 378}, {"note": 0, "velocity": 0, "duration": 102}, {"note": 71, "velocity": 88, "duration": 399}, {"note": 0, "velocity": 0, "duration": 81}, {"note": 66, "velocity": 90, "duration": 1140}, {"note": 0, "velocity": 0, "duration": 300}, {"note": 62, "velocity": 88, "duration": 403}, {"note": 0, "velocity": 0, "duration": 77}, {"note": 64, "velocity": 92, "duration": 586}, {"note": 0, "velocity": 0, "duration": 134}, {"note": 62, "velocity": 90, "duration": 233}, {"note": 64, "velocity": 92, "duration": 405}, {"note": 0, "velocity": 0, "duration": 75}, {"note": 69, "velocity": 88, "duration": 413}, {"note": 0, "velocity": 0, "duration": 67}, {"note": 66, "velocity": 88, "duration": 1243}, {"note": 0, "velocity": 0, "duration": 677}, {"note": 64, "velocity": 88, "duration": 420}, {"note": 66, "velocity": 86, "duration": 340}, {"note": 0, "velocity": 0, "duration": 140}, {"note": 64, "velocity": 92, "duration": 351}, {"note": 0, "velocity": 0, "duration": 129}, {"note": 66, "velocity": 90, "duration": 377}, {"note": 0, "velocity": 0, "duration": 103}, {"note": 64, "velocity": 88, "duration": 365}, {"note": 0, "velocity": 0, "duration": 115}, {"note": 62, "velocity": 88, "duration": 393}, {"note": 0, "velocity": 0, "duration": 87}, {"note": 59, "velocity": 87, "duration": 351}, {"note": 0, "velocity": 0, "duration": 129}, {"note": 57, "velocity": 88, "duration": 391}, {"note": 0, "velocity": 0, "duration": 89}, {"note": 62, "velocity": 87, "duration": 1410}, {"note": 66, "velocity": 92, "duration": 367}, {"note": 0, "velocity": 0, "duration": 113}, {"note": 64, "velocity": 92, "duration": 480}, {"note": 62, "velocity": 88, "duration": 362}, {"note": 0, "velocity": 0, "duration": 118}, {"note": 59, "velocity": 90, "duration": 408}, {"note": 0, "velocity": 0, "duration": 72}, {"note": 57, "velocity": 89, "duration": 411}, {"note": 0, "velocity": 0, "duration": 69}, {"note": 62, "velocity": 87, "duration": 1919}, {"note": 0, "velocity": 0, "duration": 1921}, {"note": 66, "velocity": 88, "duration": 1381}, {"note": 0, "velocity": 0, "duration": 539}, {"note": 57, "velocity": 90, "duration": 801}, {"note": 0, "velocity": 0, "duration": 159}, {"note": 59, "velocity": 90, "duration": 421}, {"note": 57, "velocity": 88, "duration": 125}, {"note": 0, "velocity": 0, "duration": 115}, {"note": 59, "velocity": 88, "duration": 180}, {"note": 62, "velocity": 87, "duration": 2042}, {"note": 0, "velocity": 0, "duration": 1798}, {"note": 59, "velocity": 89, "duration": 497}, {"note": 62, "velocity": 90, "duration": 538}, {"note": 59, "velocity": 90, "duration": 507}, {"note": 62, "velocity": 90, "duration": 487}, {"note": 59, "velocity": 92, "duration": 501}, {"note": 62, "velocity": 91, "duration": 488}, {"note": 59, "velocity": 97, "duration": 452}, {"note": 57, "velocity": 92, "duration": 491}, {"note": 66, "velocity": 93, "duration": 2779}, {"note": 0, "velocity": 0, "duration": 1061}, {"note": 59, "velocity": 89, "duration": 497}, {"note": 62, "velocity": 90, "duration": 538}, {"note": 59, "velocity": 90, "duration": 507}, {"note": 62, "velocity": 90, "duration": 487}, {"note": 59, "velocity": 92, "duration": 501}, {"note": 62, "velocity": 91, "duration": 488}, {"note": 59, "velocity": 97, "duration": 452}, {"note": 57, "velocity": 92, "duration": 491}, {"note": 66, "velocity": 93, "duration": 2779}, {"note": 0, "velocity": 0, "duration": 581}, {"note": 71, "velocity": 88, "duration": 444}, {"note": 69, "velocity": 90, "duration": 1327}, {"note": 0, "velocity": 0, "duration": 113}, {"note": 71, "velocity": 90, "duration": 395}, {"note": 0, "velocity": 0, "duration": 85}, {"note": 69, "velocity": 90, "duration": 787}, {"note": 0, "velocity": 0, "duration": 653}, {"note": 71, "velocity": 88, "duration": 311}, {"note": 0, "velocity": 0, "duration": 169}, {"note": 69, "velocity": 87, "duration": 389}, {"note": 0, "velocity": 0, "duration": 91}, {"note": 71, "velocity": 88, "duration": 397}, {"note": 0, "velocity": 0, "duration": 83}, {"note": 69, "velocity": 86, "duration": 380}, {"note": 0, "velocity": 0, "duration": 100}, {"note": 71, "velocity": 87, "duration": 389}, {"note": 0, "velocity": 0, "duration": 91}, {"note": 69, "velocity": 88, "duration": 1735}, {"note": 0, "velocity": 0, "duration": 185}, {"note": 66, "velocity": 90, "duration": 811}, {"note": 0, "velocity": 0, "duration": 149}, {"note": 69, "velocity": 87, "duration": 378}, {"note": 0, "velocity": 0, "duration": 102}, {"note": 71, "velocity": 88, "duration": 399}, {"note": 0, "velocity": 0, "duration": 81}, {"note": 66, "velocity": 90, "duration": 1140}, {"note": 0, "velocity": 0, "duration": 300}, {"note": 62, "velocity": 88, "duration": 403}, {"note": 0, "velocity": 0, "duration": 77}, {"note": 64, "velocity": 92, "duration": 586}, {"note": 0, "velocity": 0, "duration": 134}, {"note": 62, "velocity": 90, "duration": 233}, {"note": 64, "velocity": 92, "duration": 405}, {"note": 0, "velocity": 0, "duration": 75}, {"note": 69, "velocity": 88, "duration": 413}, {"note": 0, "velocity": 0, "duration": 67}, {"note": 66, "velocity": 88, "duration": 1243}, {"note": 0, "velocity": 0, "duration": 677}, {"note": 64, "velocity": 88, "duration": 420}, {"note": 66, "velocity": 86, "duration": 340}, {"note": 0, "velocity": 0, "duration": 140}, {"note": 64, "velocity": 92, "duration": 351}, {"note": 0, "velocity": 0, "duration": 129}, {"note": 66, "velocity": 90, "duration": 377}, {"note": 0, "velocity": 0, "duration": 103}, {"note": 64, "velocity": 88, "duration": 365}, {"note": 0, "velocity": 0, "duration": 115}, {"note": 62, "velocity": 88, "duration": 393}, {"note": 0, "velocity": 0, "duration": 87}, {"note": 59, "velocity": 87, "duration": 351}, {"note": 0, "velocity": 0, "duration": 129}, {"note": 57, "velocity": 88, "duration": 391}, {"note": 0, "velocity": 0, "duration": 89}, {"note": 62, "velocity": 87, "duration": 1410}, {"note": 66, "velocity": 92, "duration": 367}, {"note": 0, "velocity": 0, "duration": 113}, {"note": 64, "velocity": 92, "duration": 480}, {"note": 62, "velocity": 88, "duration": 362}, {"note": 0, "velocity": 0, "duration": 118}, {"note": 59, "velocity": 90, "duration": 408}, {"note": 0, "velocity": 0, "duration": 72}, {"note": 57, "velocity": 89, "duration": 411}, {"note": 0, "velocity": 0, "duration": 69}, {"note": 62, "velocity": 87, "duration": 1919}, {"note": 0, "velocity": 0, "duration": 1921}, {"note": 66, "velocity": 88, "duration": 1381}, {"note": 0, "velocity": 0, "duration": 539}, {"note": 57, "velocity": 90, "duration": 801}, {"note": 0, "velocity": 0, "duration": 159}, {"note": 59, "velocity": 90, "duration": 421}, {"note": 57, "velocity": 88, "duration": 125}, {"note": 0, "velocity": 0, "duration": 115}, {"note": 59, "velocity": 88, "duration": 180}, {"note": 62, "velocity": 87, "duration": 2042}, {"note": 0, "velocity": 0, "duration": 20998}, {"note": 66, "velocity": 90, "duration": 811}, {"note": 0, "velocity": 0, "duration": 149}, {"note": 69, "velocity": 87, "duration": 378}, {"note": 0, "velocity": 0, "duration": 102}, {"note": 71, "velocity": 88, "duration": 399}, {"note": 0, "velocity": 0, "duration": 81}, {"note": 66, "velocity": 90, "duration": 1140}, {"note": 0, "velocity": 0, "duration": 300}, {"note": 62, "velocity": 88, "duration": 403}, {"note": 0, "velocity": 0, "duration": 77}, {"note": 64, "velocity": 92, "duration": 586}, {"note": 0, "velocity": 0, "duration": 134}, {"note": 62, "velocity": 90, "duration": 233}, {"note": 64, "velocity": 92, "duration": 405}, {"note": 0, "velocity": 0, "duration": 75}, {"note": 69, "velocity": 88, "duration": 413}, {"note": 0, "velocity": 0, "duration": 67}, {"note": 66, "velocity": 88, "duration": 1243}, {"note": 0, "velocity": 0, "duration": 677}, {"note": 64, "velocity": 88, "duration": 420}, {"note": 66, "velocity": 86, "duration": 340}, {"note": 0, "velocity": 0, "duration": 140}, {"note": 64, "velocity": 92, "duration": 351}, {"note": 0, "velocity": 0, "duration": 129}, {"note": 66, "velocity": 90, "duration": 377}, {"note": 0, "velocity": 0, "duration": 103}, {"note": 64, "velocity": 88, "duration": 365}, {"note": 0, "velocity": 0, "duration": 115}, {"note": 62, "velocity": 88, "duration": 393}, {"note": 0, "velocity": 0, "duration": 87}, {"note": 59, "velocity": 87, "duration": 351}, {"note": 0, "velocity": 0, "duration": 129}, {"note": 57, "velocity": 88, "duration": 391}, {"note": 0, "velocity": 0, "duration": 89}, {"note": 62, "velocity": 87, "duration": 1410}, {"note": 66, "velocity": 92, "duration": 367}, {"note": 0, "velocity": 0, "duration": 113}, {"note": 64, "velocity": 92, "duration": 480}, {"note": 62, "velocity": 88, "duration": 362}, {"note": 0, "velocity": 0, "duration": 118}, {"note": 59, "velocity": 90, "duration": 408}, {"note": 0, "velocity": 0, "duration": 72}, {"note": 57, "velocity": 89, "duration": 411}, {"note": 0, "velocity": 0, "duration": 69}, {"note": 62, "velocity": 87, "duration": 1919}, {"note": 0, "velocity": 0, "duration": 1921}, {"note": 66, "velocity": 88, "duration": 1381}, {"note": 0, "velocity": 0, "duration": 539}, {"note": 57, "velocity": 90, "duration": 801}, {"note": 0, "velocity": 0, "duration": 159}, {"note": 59, "velocity": 90, "duration": 421}, {"note": 57, "velocity": 88, "duration": 125}, {"note": 0, "velocity": 0, "duration": 115}, {"note": 59, "velocity": 88, "duration": 180}, {"note": 62, "velocity": 87, "duration": 2042}, {"note": 0, "velocity": 0, "duration": 1798}, {"note": 59, "velocity": 89, "duration": 497}, {"note": 62, "velocity": 90, "duration": 538}, {"note": 59, "velocity": 90, "duration": 507}, {"note": 62, "velocity": 90, "duration": 487}, {"note": 59, "velocity": 92, "duration": 501}, {"note": 62, "velocity": 91, "duration": 488}, {"note": 59, "velocity": 97, "duration": 452}, {"note": 57, "velocity": 92, "duration": 491}, {"note": 66, "velocity": 93, "duration": 2779}, {"note": 0, "velocity": 0, "duration": 1061}, {"note": 59, "velocity": 89, "duration": 497}, {"note": 62, "velocity": 90, "duration": 538}, {"note": 59, "velocity": 90, "duration": 507}, {"note": 62, "velocity": 90, "duration": 487}, {"note": 59, "velocity": 92, "duration": 501}, {"note": 62, "velocity": 91, "duration": 488}, {"note": 59, "velocity": 97, "duration": 452}, {"note": 57, "velocity": 92, "duration": 491}, {"note": 66, "velocity": 93, "duration": 2779}, {"note": 0, "velocity": 0, "duration": 581}, {"note": 71, "velocity": 88, "duration": 444}, {"note": 69, "velocity": 90, "duration": 1327}, {"note": 0, "velocity": 0, "duration": 113}, {"note": 71, "velocity": 90, "duration": 395}, {"note": 0, "velocity": 0, "duration": 85}, {"note": 69, "velocity": 90, "duration": 787}, {"note": 0, "velocity": 0, "duration": 653}, {"note": 71, "velocity": 88, "duration": 311}, {"note": 0, "velocity": 0, "duration": 169}, {"note": 69, "velocity": 87, "duration": 389}, {"note": 0, "velocity": 0, "duration": 91}, {"note": 71, "velocity": 88, "duration": 397}, {"note": 0, "velocity": 0, "duration": 83}, {"note": 69, "velocity": 86, "duration": 380}, {"note": 0, "velocity": 0, "duration": 100}, {"note": 71, "velocity": 87, "duration": 389}, {"note": 0, "velocity": 0, "duration": 91}, {"note": 69, "velocity": 88, "duration": 1735}, {"note": 0, "velocity": 0, "duration": 185}, {"note": 66, "velocity": 90, "duration": 811}, {"note": 0, "velocity": 0, "duration": 149}, {"note": 69, "velocity": 87, "duration": 378}, {"note": 0, "velocity": 0, "duration": 102}, {"note": 71, "velocity": 88, "duration": 399}, {"note": 0, "velocity": 0, "duration": 81}, {"note": 66, "velocity": 90, "duration": 1140}, {"note": 0, "velocity": 0, "duration": 300}, {"note": 62, "velocity": 88, "duration": 403}, {"note": 0, "velocity": 0, "duration": 77}, {"note": 64, "velocity": 92, "duration": 586}, {"note": 0, "velocity": 0, "duration": 134}, {"note": 62, "velocity": 90, "duration": 233}, {"note": 64, "velocity": 92, "duration": 405}, {"note": 0, "velocity": 0, "duration": 75}, {"note": 69, "velocity": 88, "duration": 413}, {"note": 0, "velocity": 0, "duration": 67}, {"note": 66, "velocity": 88, "duration": 1243}, {"note": 0, "velocity": 0, "duration": 677}, {"note": 64, "velocity": 88, "duration": 420}, {"note": 66, "velocity": 86, "duration": 340}, {"note": 0, "velocity": 0, "duration": 140}, {"note": 64, "velocity": 92, "duration": 351}, {"note": 0, "velocity": 0, "duration": 129}, {"note": 66, "velocity": 90, "duration": 377}, {"note": 0, "velocity": 0, "duration": 103}, {"note": 64, "velocity": 88, "duration": 365}, {"note": 0, "velocity": 0, "duration": 115}, {"note": 62, "velocity": 88, "duration": 393}, {"note": 0, "velocity": 0, "duration": 87}, {"note": 59, "velocity": 87, "duration": 351}, {"note": 0, "velocity": 0, "duration": 129}, {"note": 57, "velocity": 88, "duration": 391}, {"note": 0, "velocity": 0, "duration": 89}, {"note": 62, "velocity": 87, "duration": 1410}, {"note": 66, "velocity": 92, "duration": 367}, {"note": 0, "velocity": 0, "duration": 113}, {"note": 64, "velocity": 92, "duration": 480}, {"note": 62, "velocity": 88, "duration": 362}, {"note": 0, "velocity": 0, "duration": 118}, {"note": 59, "velocity": 90, "duration": 408}, {"note": 0, "velocity": 0, "duration": 72}, {"note": 57, "velocity": 89, "duration": 411}, {"note": 0, "velocity": 0, "duration": 69}, {"note": 62, "velocity": 87, "duration": 1919}, {"note": 0, "velocity": 0, "duration": 1921}, {"note": 66, "velocity": 88, "duration": 1381}, {"note": 0, "velocity": 0, "duration": 539}, {"note": 57, "velocity": 90, "duration": 801}, {"note": 0, "velocity": 0, "duration": 159}, {"note": 59, "velocity": 90, "duration": 421}, {"note": 57, "velocity": 88, "duration": 125}, {"note": 0, "velocity": 0, "duration": 115}, {"note": 59, "velocity": 88, "duration": 180}, {"note": 62, "velocity": 87, "duration": 2042}]]