[[{"note": 73, "velocity": 90, "duration": 351}, {"note": 0, "velocity": 0, "duration": 129}, {"note": 73, "velocity": 95, "duration": 143}, {"note": 0, "velocity": 0, "duration": 97}, {"note": 73, "velocity": 90, "duration": 128}, {"note": 0, "velocity": 0, "duration": 112}, {"note": 71, "velocity": 92, "duration": 124}, {"note": 0, "velocity": 0, "duration": 116}, {"note": 69, "velocity": 95, "duration": 412}, {"note": 0, "velocity": 0, "duration": 308}, {"note": 76, "velocity": 90, "duration": 311}, {"note": 0, "velocity": 0, "duration": 169}, {"note": 73, "velocity": 93, "duration": 175}, {"note": 0, "velocity": 0, "duration": 65}, {"note": 73, "velocity": 88, "duration": 141}, {"note": 0, "velocity": 0, "duration": 99}, {"note": 71, "velocity": 90, "duration": 180}, {"note": 69, "velocity": 91, "duration": 499}, {"note": 0, "velocity": 0, "duration": 221}, {"note": 69, "velocity": 91, "duration": 321}, {"note": 0, "velocity": 0, "duration": 159}, {"note": 69, "velocity": 88, "duration": 181}, {"note": 69, "velocity": 89, "duration": 144}, {"note": 0, "velocity": 0, "duration": 96}, {"note": 71, "velocity": 92, "duration": 175}, {"note": 0, "velocity": 0, "duration": 65}, {"note": 69, "velocity": 92, "duration": 555}, {"note": 0, "velocity": 0, "duration": 165}, {"note": 69, "velocity": 87, "duration": 224}, {"note": 68, "velocity": 91, "duration": 181}, {"note": 66, "velocity": 87, "duration": 186}, {"note": 69, "velocity": 87, "duration": 131}, {"note": 0, "velocity": 0, "duration": 109}, {"note": 76, "velocity": 88, "duration": 187}, {"note": 73, "velocity": 74, "duration": 522}, {"note": 0, "velocity": 0, "duration": 198}, {"note": 73, "velocity": 90, "duration": 351}, {"note": 0, "velocity": 0, "duration": 129}, {"note": 73, "velocity": 95, "duration": 143}, {"note": 0, "velocity": 0, "duration": 97}, {"note": 73, "velocity": 90, "duration": 128}, {"note": 0, "velocity": 0, "duration": 112}, {"note": 71, "velocity": 92, "duration": 124}, {"note": 0, "velocity": 0, "duration": 116}, {"note": 69, "velocity": 95, "duration": 412}, {"note": 0, "velocity": 0, "duration": 308}, {"note": 76, "velocity": 90, "duration": 311}, {"note": 0, "velocity": 0, "duration": 169}, {"note": 73, "velocity": 93, "duration": 175}, {"note": 0, "velocity": 0, "duration": 65}, {"note": 73, "velocity": 88, "duration": 141}, {"note": 0, "velocity": 0, "duration": 99}, {"note": 71, "velocity": 90, "duration": 180}, {"note": 69, "velocity": 91, "duration": 499}, {"note": 0, "velocity": 0, "duration": 221}, {"note": 69, "velocity": 91, "duration": 321}, {"note": 0, "velocity": 0, "duration": 159}, {"note": 69, "velocity": 88, "duration": 181}, {"note": 69, "velocity": 89, "duration": 144}, {"note": 0, "velocity": 0, "duration": 96}, {"note": 71, "velocity": 92, "duration": 175}, {"note": 0, "velocity": 0, "duration": 65}, {"note": 69, "velocity": 92, "duration": 555}, {"note": 0, "velocity": 0, "duration": 165}, {"note": 71, "velocity": 88, "duration": 347}, {"note": 0, "velocity": 0, "duration": 133}, {"note": 73, "velocity": 87, "duration": 408}, {"note": 0, "velocity": 0, "duration": 72}, {"note": 71, "velocity": 90, "duration": 222}, {"note": 69, "velocity": 90, "duration": 141}, {"note": 0, "velocity": 0, "duration": 99}, {"note": 71, "velocity": 93, "duration": 382}, {"note": 0, "velocity": 0, "duration": 98}, {"note": 71, "velocity": 92, "duration": 2640}, {"note": 68, "velocity": 86, "duration": 170}, {"note": 0, "velocity": 0, "duration": 70}, {"note": 69, "velocity": 88, "duration": 482}, {"note": 66, "velocity": 86, "duration": 222}, {"note": 64, "velocity": 88, "duration": 2328}, {"note": 0, "velocity": 0, "duration": 1272}, {"note": 57, "velocity": 87, "duration": 189}, {"note": 64, "velocity": 87, "duration": 206}, {"note": 66, "velocity": 80, "duration": 132}, {"note": 0, "velocity": 0, "duration": 108}, {"note": 66, "velocity": 87, "duration": 177}, {"note": 0, "velocity": 0, "duration": 63}, {"note": 64, "velocity": 87, "duration": 165}, {"note": 0, "velocity": 0, "duration": 75}, {"note": 66, "velocity": 87, "duration": 413}, {"note": 0, "velocity": 0, "duration": 67}, {"note": 64, "velocity": 86, "duration": 145}, {"note": 0, "velocity": 0, "duration": 95}, {"note": 66, "velocity": 87, "duration": 377}, {"note": 0, "velocity": 0, "duration": 103}, {"note": 66, "velocity": 87, "duration": 334}, {"note": 0, "velocity": 0, "duration": 146}, {"note": 64, "velocity": 87, "duration": 139}, {"note": 0, "velocity": 0, "duration": 101}, {"note": 66, "velocity": 89, "duration": 401}, {"note": 0, "velocity": 0, "duration": 319}, {"note": 64, "velocity": 87, "duration": 141}, {"note": 0, "velocity": 0, "duration": 99}, {"note": 64, "velocity": 90, "duration": 480}, {"note": 61, "velocity": 88, "duration": 1671}, {"note": 0, "velocity": 0, "duration": 1449}, {"note": 57, "velocity": 87, "duration": 189}, {"note": 64, "velocity": 87, "duration": 206}, {"note": 66, "velocity": 80, "duration": 132}, {"note": 0, "velocity": 0, "duration": 108}, {"note": 66, "velocity": 87, "duration": 177}, {"note": 0, "velocity": 0, "duration": 63}, {"note": 64, "velocity": 87, "duration": 165}, {"note": 0, "velocity": 0, "duration": 75}, {"note": 66, "velocity": 87, "duration": 413}, {"note": 0, "velocity": 0, "duration": 67}, {"note": 64, "velocity": 86, "duration": 145}, {"note": 0, "velocity": 0, "duration": 95}, {"note": 66, "velocity": 87, "duration": 377}, {"note": 0, "velocity": 0, "duration": 103}, {"note": 66, "velocity": 87, "duration": 334}, {"note": 0, "velocity": 0, "duration": 146}, {"note": 66, "velocity": 87, "duration": 139}, {"note": 0, "velocity": 0, "duration": 101}, {"note": 69, "velocity": 89, "duration": 401}, {"note": 0, "velocity": 0, "duration": 319}, {"note": 66, "velocity": 87, "duration": 141}, {"note": 0, "velocity": 0, "duration": 99}, {"note": 66, "velocity": 90, "duration": 480}, {"note": 64, "velocity": 88, "duration": 1671}, {"note": 0, "velocity": 0, "duration": 2169}, {"note": 71, "velocity": 92, "duration": 133}, {"note": 0, "velocity": 0, "duration": 107}, {"note": 71, "velocity": 89, "duration": 196}, {"note": 71, "velocity": 89, "duration": 197}, {"note": 69, "velocity": 88, "duration": 403}, {"note": 0, "velocity": 0, "duration": 77}, {"note": 71, "velocity": 92, "duration": 414}, {"note": 0, "velocity": 0, "duration": 66}, {"note": 71, "velocity": 88, "duration": 720}, {"note": 0, "velocity": 0, "duration": 1440}, {"note": 71, "velocity": 92, "duration": 199}, {"note": 69, "velocity": 86, "duration": 177}, {"note": 0, "velocity": 0, "duration": 63}, {"note": 71, "velocity": 93, "duration": 198}, {"note": 69, "velocity": 87, "duration": 133}, {"note": 0, "velocity": 0, "duration": 107}, {"note": 69, "velocity": 88, "duration": 132}, {"note": 0, "velocity": 0, "duration": 108}, {"note": 71, "velocity": 93, "duration": 351}, {"note": 0, "velocity": 0, "duration": 129}, {"note": 73, "velocity": 90, "duration": 172}, {"note": 0, "velocity": 0, "duration": 68}, {"note": 71, "velocity": 92, "duration": 228}, {"note": 69, "velocity": 92, "duration": 900}, {"note": 0, "velocity": 0, "duration": 780}, {"note": 71, "velocity": 86, "duration": 149}, {"note": 0, "velocity": 0, "duration": 91}, {"note": 71, "velocity": 86, "duration": 145}, {"note": 0, "velocity": 0, "duration": 95}, {"note": 71, "velocity": 92, "duration": 188}, {"note": 69, "velocity": 92, "duration": 380}, {"note": 0, "velocity": 0, "duration": 100}, {"note": 71, "velocity": 95, "duration": 382}, {"note": 0, "velocity": 0, "duration": 98}, {"note": 71, "velocity": 90, "duration": 1134}, {"note": 0, "velocity": 0, "duration": 786}, {"note": 71, "velocity": 88, "duration": 128}, {"note": 0, "velocity": 0, "duration": 112}, {"note": 71, "velocity": 92, "duration": 159}, {"note": 0, "velocity": 0, "duration": 81}, {"note": 69, "velocity": 88, "duration": 184}, {"note": 71, "velocity": 88, "duration": 166}, {"note": 0, "velocity": 0, "duration": 74}, {"note": 73, "velocity": 88, "duration": 386}, {"note": 0, "velocity": 0, "duration": 94}, {"note": 71, "velocity": 93, "duration": 1260}, {"note": 0, "velocity": 0, "duration": 660}, {"note": 69, "velocity": 97, "duration": 196}, {"note": 78, "velocity": 87, "duration": 398}, {"note": 0, "velocity": 0, "duration": 82}, {"note": 76, "velocity": 90, "duration": 170}, {"note": 0, "velocity": 0, "duration": 70}, {"note": 76, "velocity": 91, "duration": 146}, {"note": 0, "velocity": 0, "duration": 94}, {"note": 76, "velocity": 97, "duration": 365}, {"note": 0, "velocity": 0, "duration": 115}, {"note": 73, "velocity": 91, "duration": 170}, {"note": 0, "velocity": 0, "duration": 70}, {"note": 76, "velocity": 95, "duration": 388}, {"note": 0, "velocity": 0, "duration": 92}, {"note": 73, "velocity": 91, "duration": 483}, {"note": 0, "velocity": 0, "duration": 237}, {"note": 64, "velocity": 97, "duration": 159}, {"note": 0, "velocity": 0, "duration": 81}, {"note": 64, "velocity": 92, "duration": 155}, {"note": 0, "velocity": 0, "duration": 85}, {"note": 66, "velocity": 90, "duration": 144}, {"note": 0, "velocity": 0, "duration": 96}, {"note": 69, "velocity": 88, "duration": 154}, {"note": 0, "velocity": 0, "duration": 86}, {"note": 71, "velocity": 90, "duration": 412}, {"note": 0, "velocity": 0, "duration": 68}, {"note": 71, "velocity": 90, "duration": 165}, {"note": 0, "velocity": 0, "duration": 75}, {"note": 69, "velocity": 86, "duration": 198}, {"note": 71, "velocity": 89, "duration": 378}, {"note": 0, "velocity": 0, "duration": 102}, {"note": 69, "velocity": 88, "duration": 159}, {"note": 0, "velocity": 0, "duration": 81}, {"note": 69, "velocity": 90, "duration": 1080}, {"note": 0, "velocity": 0, "duration": 120}, {"note": 78, "velocity": 90, "duration": 213}, {"note": 76, "velocity": 88, "duration": 159}, {"note": 0, "velocity": 0, "duration": 81}, {"note": 73, "velocity": 91, "duration": 175}, {"note": 0, "velocity": 0, "duration": 65}, {"note": 73, "velocity": 92, "duration": 172}, {"note": 0, "velocity": 0, "duration": 68}, {"note": 76, "velocity": 92, "duration": 337}, {"note": 0, "velocity": 0, "duration": 143}, {"note": 76, "velocity": 90, "duration": 240}, {"note": 0, "velocity": 0, "duration": 240}, {"note": 76, "velocity": 93, "duration": 360}, {"note": 0, "velocity": 0, "duration": 120}, {"note": 73, "velocity": 65, "duration": 124}, {"note": 0, "velocity": 0, "duration": 116}, {"note": 76, "velocity": 97, "duration": 361}, {"note": 0, "velocity": 0, "duration": 119}, {"note": 73, "velocity": 92, "duration": 385}, {"note": 0, "velocity": 0, "duration": 335}, {"note": 64, "velocity": 91, "duration": 162}, {"note": 0, "velocity": 0, "duration": 78}, {"note": 64, "velocity": 90, "duration": 170}, {"note": 0, "velocity": 0, "duration": 70}, {"note": 66, "velocity": 88, "duration": 158}, {"note": 0, "velocity": 0, "duration": 82}, {"note": 69, "velocity": 87, "duration": 160}, {"note": 0, "velocity": 0, "duration": 80}, {"note": 71, "velocity": 88, "duration": 351}, {"note": 0, "velocity": 0, "duration": 129}, {"note": 71, "velocity": 88, "duration": 201}, {"note": 69, "velocity": 88, "duration": 175}, {"note": 0, "velocity": 0, "duration": 65}, {"note": 71, "velocity": 91, "duration": 388}, {"note": 0, "velocity": 0, "duration": 92}, {"note": 71, "velocity": 91, "duration": 154}, {"note": 0, "velocity": 0, "duration": 86}, {"note": 69, "velocity": 85, "duration": 899}, {"note": 0, "velocity": 0, "duration": 301}, {"note": 78, "velocity": 92, "duration": 203}, {"note": 76, "velocity": 90, "duration": 147}, {"note": 0, "velocity": 0, "duration": 93}, {"note": 76, "velocity": 92, "duration": 184}, {"note": 73, "velocity": 95, "duration": 193}, {"note": 73, "velocity": 93, "duration": 1872}, {"note": 0, "velocity": 0, "duration": 1008}, {"note": 78, "velocity": 93, "duration": 180}, {"note": 76, "velocity": 93, "duration": 106}, {"note": 0, "velocity": 0, "duration": 134}, {"note": 76, "velocity": 91, "duration": 158}, {"note": 0, "velocity": 0, "duration": 82}, {"note": 73, "velocity": 89, "duration": 93}, {"note": 76, "velocity": 86, "duration": 67}, {"note": 73, "velocity": 88, "duration": 2029}, {"note": 0, "velocity": 0, "duration": 2291}, {"note": 71, "velocity": 88, "duration": 132}, {"note": 0, "velocity": 0, "duration": 108}, {"note": 71, "velocity": 87, "duration": 158}, {"note": 0, "velocity": 0, "duration": 82}, {"note": 71, "velocity": 87, "duration": 187}, {"note": 69, "velocity": 90, "duration": 431}, {"note": 71, "velocity": 88, "duration": 378}, {"note": 0, "velocity": 0, "duration": 102}, {"note": 71, "velocity": 92, "duration": 802}, {"note": 0, "velocity": 0, "duration": 1118}, {"note": 71, "velocity": 90, "duration": 158}, {"note": 0, "velocity": 0, "duration": 82}, {"note": 71, "velocity": 92, "duration": 164}, {"note": 0, "velocity": 0, "duration": 76}, {"note": 69, "velocity": 89, "duration": 172}, {"note": 0, "velocity": 0, "duration": 68}, {"note": 71, "velocity": 93, "duration": 175}, {"note": 0, "velocity": 0, "duration": 65}, {"note": 73, "velocity": 87, "duration": 217}, {"note": 69, "velocity": 90, "duration": 201}, {"note": 71, "velocity": 90, "duration": 1951}, {"note": 0, "velocity": 0, "duration": 449}, {"note": 73, "velocity": 90, "duration": 351}, {"note": 0, "velocity": 0, "duration": 129}, {"note": 73, "velocity": 95, "duration": 143}, {"note": 0, "velocity": 0, "duration": 97}, {"note": 73, "velocity": 90, "duration": 128}, {"note": 0, "velocity": 0, "duration": 112}, {"note": 71, "velocity": 92, "duration": 124}, {"note": 0, "velocity": 0, "duration": 116}, {"note": 69, "velocity": 95, "duration": 412}, {"note": 0, "velocity": 0, "duration": 308}, {"note": 76, "velocity": 90, "duration": 311}, {"note": 0, "velocity": 0, "duration": 169}, {"note": 73, "velocity": 93, "duration": 175}, {"note": 0, "velocity": 0, "duration": 65}, {"note": 73, "velocity": 88, "duration": 141}, {"note": 0, "velocity": 0, "duration": 99}, {"note": 71, "velocity": 90, "duration": 180}, {"note": 69, "velocity": 91, "duration": 499}, {"note": 0, "velocity": 0, "duration": 221}, {"note": 69, "velocity": 91, "duration": 321}, {"note": 0, "velocity": 0, "duration": 159}, {"note": 69, "velocity": 88, "duration": 181}, {"note": 69, "velocity": 89, "duration": 144}, {"note": 0, "velocity": 0, "duration": 96}, {"note": 71, "velocity": 92, "duration": 175}, {"note": 0, "velocity": 0, "duration": 65}, {"note": 69, "velocity": 92, "duration": 555}, {"note": 0, "velocity": 0, "duration": 165}, {"note": 69, "velocity": 87, "duration": 224}, {"note": 68, "velocity": 91, "duration": 181}, {"note": 66, "velocity": 87, "duration": 186}, {"note": 69, "velocity": 87, "duration": 131}, {"note": 0, "velocity": 0, "duration": 109}, {"note": 76, "velocity": 88, "duration": 187}, {"note": 73, "velocity": 74, "duration": 522}, {"note": 0, "velocity": 0, "duration": 198}, {"note": 73, "velocity": 90, "duration": 351}, {"note": 0, "velocity": 0, "duration": 129}, {"note": 73, "velocity": 95, "duration": 143}, {"note": 0, "velocity": 0, "duration": 97}, {"note": 73, "velocity": 90, "duration": 128}, {"note": 0, "velocity": 0, "duration": 112}, {"note": 71, "velocity": 92, "duration": 124}, {"note": 0, "velocity": 0, "duration": 116}, {"note": 69, "velocity": 95, "duration": 412}, {"note": 0, "velocity": 0, "duration": 308}, {"note": 76, "velocity": 90, "duration": 311}, {"note": 0, "velocity": 0, "duration": 169}, {"note": 73, "velocity": 93, "duration": 175}, {"note": 0, "velocity": 0, "duration": 65}, {"note": 73, "velocity": 88, "duration": 141}, {"note": 0, "velocity": 0, "duration": 99}, {"note": 71, "velocity": 90, "duration": 180}, {"note": 69, "velocity": 91, "duration": 499}, {"note": 0, "velocity": 0, "duration": 221}, {"note": 69, "velocity": 91, "duration": 321}, {"note": 0, "velocity": 0, "duration": 159}, {"note": 69, "velocity": 88, "duration": 181}, {"note": 69, "velocity": 89, "duration": 144}, {"note": 0, "velocity": 0, "duration": 96}, {"note": 71, "velocity": 92, "duration": 175}, {"note": 0, "velocity": 0, "duration": 65}, {"note": 69, "velocity": 92, "duration": 555}, {"note": 0, "velocity": 0, "duration": 165}, {"note": 71, "velocity": 88, "duration": 347}, {"note": 0, "velocity": 0, "duration": 133}, {"note": 73, "velocity": 87, "duration": 408}, {"note": 0, "velocity": 0, "duration": 72}, {"note": 71, "velocity": 90, "duration": 222}, {"note": 69, "velocity": 90, "duration": 141}, {"note": 0, "velocity": 0, "duration": 99}, {"note": 71, "velocity": 93, "duration": 382}, {"note": 0, "velocity": 0, "duration": 98}, {"note": 71, "velocity": 92, "duration": 2640}, {"note": 68, "velocity": 86, "duration": 170}, {"note": 0, "velocity": 0, "duration": 70}, {"note": 69, "velocity": 88, "duration": 482}, {"note": 66, "velocity": 86, "duration": 222}, {"note": 64, "velocity": 88, "duration": 2328}, {"note": 0, "velocity": 0, "duration": 1272}, {"note": 57, "velocity": 87, "duration": 189}, {"note": 64, "velocity": 87, "duration": 206}, {"note": 66, "velocity": 80, "duration": 132}, {"note": 0, "velocity": 0, "duration": 108}, {"note": 66, "velocity": 87, "duration": 177}, {"note": 0, "velocity": 0, "duration": 63}, {"note": 64, "velocity": 87, "duration": 165}, {"note": 0, "velocity": 0, "duration": 75}, {"note": 66, "velocity": 87, "duration": 413}, {"note": 0, "velocity": 0, "duration": 67}, {"note": 64, "velocity": 86, "duration": 145}, {"note": 0, "velocity": 0, "duration": 95}, {"note": 66, "velocity": 87, "duration": 377}, {"note": 0, "velocity": 0, "duration": 103}, {"note": 66, "velocity": 87, "duration": 334}, {"note": 0, "velocity": 0, "duration": 146}, {"note": 64, "velocity": 87, "duration": 139}, {"note": 0, "velocity": 0, "duration": 101}, {"note": 66, "velocity": 89, "duration": 401}, {"note": 0, "velocity": 0, "duration": 319}, {"note": 64, "velocity": 87, "duration": 141}, {"note": 0, "velocity": 0, "duration": 99}, {"note": 64, "velocity": 90, "duration": 480}, {"note": 61, "velocity": 88, "duration": 1671}, {"note": 0, "velocity": 0, "duration": 1449}, {"note": 57, "velocity": 87, "duration": 189}, {"note": 64, "velocity": 87, "duration": 206}, {"note": 66, "velocity": 80, "duration": 132}, {"note": 0, "velocity": 0, "duration": 108}, {"note": 66, "velocity": 87, "duration": 177}, {"note": 0, "velocity": 0, "duration": 63}, {"note": 64, "velocity": 87, "duration": 165}, {"note": 0, "velocity": 0, "duration": 75}, {"note": 66, "velocity": 87, "duration": 413}, {"note": 0, "velocity": 0, "duration": 67}, {"note": 64, "velocity": 86, "duration": 145}, {"note": 0, "velocity": 0, "duration": 95}, {"note": 66, "velocity": 87, "duration": 377}, {"note": 0, "velocity": 0, "duration": 103}, {"note": 66, "velocity": 87, "duration": 334}, {"note": 0, "velocity": 0, "duration": 146}, {"note": 66, "velocity": 87, "duration": 139}, {"note": 0, "velocity": 0, "duration": 101}, {"note": 69, "velocity": 89, "duration": 401}, {"note": 0, "velocity": 0, "duration": 319}, {"note": 66, "velocity": 87, "duration": 141}, {"note": 0, "velocity": 0, "duration": 99}, {"note": 66, "velocity": 90, "duration": 480}, {"note": 64, "velocity": 88, "duration": 1671}, {"note": 0, "velocity": 0, "duration": 2169}, {"note": 71, "velocity": 92, "duration": 133}, {"note": 0, "velocity": 0, "duration": 107}, {"note": 71, "velocity": 89, "duration": 196}, {"note": 71, "velocity": 89, "duration": 197}, {"note": 69, "velocity": 88, "duration": 403}, {"note": 0, "velocity": 0, "duration": 77}, {"note": 71, "velocity": 92, "duration": 414}, {"note": 0, "velocity": 0, "duration": 66}, {"note": 71, "velocity": 88, "duration": 720}, {"note": 0, "velocity": 0, "duration": 1440}, {"note": 71, "velocity": 92, "duration": 199}, {"note": 69, "velocity": 86, "duration": 177}, {"note": 0, "velocity": 0, "duration": 63}, {"note": 71, "velocity": 93, "duration": 198}, {"note": 69, "velocity": 87, "duration": 133}, {"note": 0, "velocity": 0, "duration": 107}, {"note": 69, "velocity": 88, "duration": 132}, {"note": 0, "velocity": 0, "duration": 108}, {"note": 71, "velocity": 93, "duration": 351}, {"note": 0, "velocity": 0, "duration": 129}, {"note": 73, "velocity": 90, "duration": 172}, {"note": 0, "velocity": 0, "duration": 68}, {"note": 71, "velocity": 92, "duration": 228}, {"note": 69, "velocity": 92, "duration": 900}, {"note": 0, "velocity": 0, "duration": 780}, {"note": 71, "velocity": 86, "duration": 149}, {"note": 0, "velocity": 0, "duration": 91}, {"note": 71, "velocity": 86, "duration": 145}, {"note": 0, "velocity": 0, "duration": 95}, {"note": 71, "velocity": 92, "duration": 188}, {"note": 69, "velocity": 92, "duration": 380}, {"note": 0, "velocity": 0, "duration": 100}, {"note": 71, "velocity": 95, "duration": 382}, {"note": 0, "velocity": 0, "duration": 98}, {"note": 71, "velocity": 90, "duration": 1134}, {"note": 0, "velocity": 0, "duration": 786}, {"note": 71, "velocity": 88, "duration": 128}, {"note": 0, "velocity": 0, "duration": 112}, {"note": 71, "velocity": 92, "duration": 159}, {"note": 0, "velocity": 0, "duration": 81}, {"note": 69, "velocity": 88, "duration": 184}, {"note": 71, "velocity": 88, "duration": 166}, {"note": 0, "velocity": 0, "duration": 74}, {"note": 73, "velocity": 88, "duration": 386}, {"note": 0, "velocity": 0, "duration": 94}, {"note": 71, "velocity": 93, "duration": 1260}, {"note": 0, "velocity": 0, "duration": 660}, {"note": 69, "velocity": 97, "duration": 196}, {"note": 78, "velocity": 87, "duration": 398}, {"note": 0, "velocity": 0, "duration": 82}, {"note": 76, "velocity": 90, "duration": 170}, {"note": 0, "velocity": 0, "duration": 70}, {"note": 76, "velocity": 91, "duration": 146}, {"note": 0, "velocity": 0, "duration": 94}, {"note": 76, "velocity": 97, "duration": 365}, {"note": 0, "velocity": 0, "duration": 115}, {"note": 73, "velocity": 91, "duration": 170}, {"note": 0, "velocity": 0, "duration": 70}, {"note": 76, "velocity": 95, "duration": 388}, {"note": 0, "velocity": 0, "duration": 92}, {"note": 73, "velocity": 91, "duration": 483}, {"note": 0, "velocity": 0, "duration": 237}, {"note": 64, "velocity": 97, "duration": 159}, {"note": 0, "velocity": 0, "duration": 81}, {"note": 64, "velocity": 92, "duration": 155}, {"note": 0, "velocity": 0, "duration": 85}, {"note": 66, "velocity": 90, "duration": 144}, {"note": 0, "velocity": 0, "duration": 96}, {"note": 69, "velocity": 88, "duration": 154}, {"note": 0, "velocity": 0, "duration": 86}, {"note": 71, "velocity": 90, "duration": 412}, {"note": 0, "velocity": 0, "duration": 68}, {"note": 71, "velocity": 90, "duration": 165}, {"note": 0, "velocity": 0, "duration": 75}, {"note": 69, "velocity": 86, "duration": 198}, {"note": 71, "velocity": 89, "duration": 378}, {"note": 0, "velocity": 0, "duration": 102}, {"note": 69, "velocity": 88, "duration": 159}, {"note": 0, "velocity": 0, "duration": 81}, {"note": 69, "velocity": 90, "duration": 1080}, {"note": 0, "velocity": 0, "duration": 120}, {"note": 78, "velocity": 90, "duration": 213}, {"note": 76, "velocity": 88, "duration": 159}, {"note": 0, "velocity": 0, "duration": 81}, {"note": 73, "velocity": 91, "duration": 175}, {"note": 0, "velocity": 0, "duration": 65}, {"note": 73, "velocity": 92, "duration": 172}, {"note": 0, "velocity": 0, "duration": 68}, {"note": 76, "velocity": 92, "duration": 337}, {"note": 0, "velocity": 0, "duration": 143}, {"note": 76, "velocity": 90, "duration": 240}, {"note": 0, "velocity": 0, "duration": 240}, {"note": 76, "velocity": 93, "duration": 360}, {"note": 0, "velocity": 0, "duration": 120}, {"note": 73, "velocity": 65, "duration": 124}, {"note": 0, "velocity": 0, "duration": 116}, {"note": 76, "velocity": 97, "duration": 361}, {"note": 0, "velocity": 0, "duration": 119}, {"note": 73, "velocity": 92, "duration": 385}, {"note": 0, "velocity": 0, "duration": 335}, {"note": 64, "velocity": 91, "duration": 162}, {"note": 0, "velocity": 0, "duration": 78}, {"note": 64, "velocity": 90, "duration": 170}, {"note": 0, "velocity": 0, "duration": 70}, {"note": 66, "velocity": 88, "duration": 158}, {"note": 0, "velocity": 0, "duration": 82}, {"note": 69, "velocity": 87, "duration": 160}, {"note": 0, "velocity": 0, "duration": 80}, {"note": 71, "velocity": 88, "duration": 351}, {"note": 0, "velocity": 0, "duration": 129}, {"note": 71, "velocity": 88, "duration": 201}, {"note": 69, "velocity": 88, "duration": 175}, {"note": 0, "velocity": 0, "duration": 65}, {"note": 71, "velocity": 91, "duration": 388}, {"note": 0, "velocity": 0, "duration": 92}, {"note": 71, "velocity": 91, "duration": 154}, {"note": 0, "velocity": 0, "duration": 86}, {"note": 69, "velocity": 85, "duration": 899}, {"note": 0, "velocity": 0, "duration": 301}, {"note": 78, "velocity": 92, "duration": 203}, {"note": 76, "velocity": 90, "duration": 147}, {"note": 0, "velocity": 0, "duration": 93}, {"note": 76, "velocity": 92, "duration": 184}, {"note": 73, "velocity": 95, "duration": 193}, {"note": 73, "velocity": 93, "duration": 1872}, {"note": 0, "velocity": 0, "duration": 1008}, {"note": 78, "velocity": 93, "duration": 180}, {"note": 76, "velocity": 93, "duration": 106}, {"note": 0, "velocity": 0, "duration": 134}, {"note": 76, "velocity": 91, "duration": 158}, {"note": 0, "velocity": 0, "duration": 82}, {"note": 73, "velocity": 89, "duration": 93}, {"note": 76, "velocity": 86, "duration": 67}, {"note": 73, "velocity": 88, "duration": 2029}, {"note": 0, "velocity": 0, "duration": 2291}, {"note": 71, "velocity": 88, "duration": 132}, {"note": 0, "velocity": 0, "duration": 108}, {"note": 71, "velocity": 87, "duration": 158}, {"note": 0, "velocity": 0, "duration": 82}, {"note": 71, "velocity": 87, "duration": 187}, {"note": 69, "velocity": 90, "duration": 431}, {"note": 71, "velocity": 88, "duration": 378}, {"note": 0, "velocity": 0, "duration": 102}, {"note": 71, "velocity": 92, "duration": 802}, {"note": 0, "velocity": 0, "duration": 1118}, {"note": 71, "velocity": 90, "duration": 158}, {"note": 0, "velocity": 0, "duration": 82}, {"note": 71, "velocity": 92, "duration": 164}, {"note": 0, "velocity": 0, "duration": 76}, {"note": 69, "velocity": 89, "duration": 172}, {"note": 0, "velocity": 0, "duration": 68}, {"note": 71, "velocity": 93, "duration": 175}, {"note": 0, "velocity": 0, "duration": 65}, {"note": 73, "velocity": 87, "duration": 217}, {"note": 69, "velocity": 90, "duration": 201}, {"note": 71, "velocity": 90, "duration": 1951}, {"note": 69, "velocity": 97, "duration": 196}, {"note": 78, "velocity": 87, "duration": 398}, {"note": 0, "velocity": 0, "duration": 82}, {"note": 76, "velocity": 90, "duration": 170}, {"note": 0, "velocity": 0, "duration": 70}, {"note": 76, "velocity": 91, "duration": 146}, {"note": 0, "velocity": 0, "duration": 94}, {"note": 76, "velocity": 97, "duration": 365}, {"note": 0, "velocity": 0, "duration": 115}, {"note": 73, "velocity": 91, "duration": 170}, {"note": 0, "velocity": 0, "duration": 70}, {"note": 76, "velocity": 95, "duration": 388}, {"note": 0, "velocity": 0, "duration": 92}, {"note": 73, "velocity": 91, "duration": 483}, {"note": 0, "velocity": 0, "duration": 237}, {"note": 64, "velocity": 97, "duration": 159}, {"note": 0, "velocity": 0, "duration": 81}, {"note": 64, "velocity": 92, "duration": 155}, {"note": 0, "velocity": 0, "duration": 85}, {"note": 66, "velocity": 90, "duration": 144}, {"note": 0, "velocity": 0, "duration": 96}, {"note": 69, "velocity": 88, "duration": 154}, {"note": 0, "velocity": 0, "duration": 86}, {"note": 71, "velocity": 90, "duration": 412}, {"note": 0, "velocity": 0, "duration": 68}, {"note": 71, "velocity": 90, "duration": 165}, {"note": 0, "velocity": 0, "duration": 75}, {"note": 69, "velocity": 86, "duration": 198}, {"note": 71, "velocity": 89, "duration": 378}, {"note": 0, "velocity": 0, "duration": 102}, {"note": 69, "velocity": 88, "duration": 159}, {"note": 0, "velocity": 0, "duration": 81}, {"note": 69, "velocity": 90, "duration": 1080}, {"note": 0, "velocity": 0, "duration": 120}, {"note": 78, "velocity": 90, "duration": 213}, {"note": 76, "velocity": 88, "duration": 159}, {"note": 0, "velocity": 0, "duration": 81}, {"note": 73, "velocity": 91, "duration": 175}, {"note": 0, "velocity": 0, "duration": 65}, {"note": 73, "velocity": 92, "duration": 172}, {"note": 0, "velocity": 0, "duration": 68}, {"note": 76, "velocity": 92, "duration": 337}, {"note": 0, "velocity": 0, "duration": 143}, {"note": 76, "velocity": 90, "duration": 240}, {"note": 0, "velocity": 0, "duration": 240}, {"note": 76, "velocity": 93, "duration": 360}, {"note": 0, "velocity": 0, "duration": 120}, {"note": 73, "velocity": 65, "duration": 124}, {"note": 0, "velocity": 0, "duration": 116}, {"note": 76, "velocity": 97, "duration": 361}, {"note": 0, "velocity": 0, "duration": 119}, {"note": 73, "velocity": 92, "duration": 385}, {"note": 0, "velocity": 0, "duration": 335}, {"note": 64, "velocity": 91, "duration": 162}, {"note": 0, "velocity": 0, "duration": 78}, {"note": 64, "velocity": 90, "duration": 170}, {"note": 0, "velocity": 0, "duration": 70}, {"note": 66, "velocity": 88, "duration": 158}, {"note": 0, "velocity": 0, "duration": 82}, {"note": 69, "velocity": 87, "duration": 160}, {"note": 0, "velocity": 0, "duration": 80}, {"note": 71, "velocity": 88, "duration": 351}, {"note": 0, "velocity": 0, "duration": 129}, {"note": 71, "velocity": 88, "duration": 201}, {"note": 69, "velocity": 88, "duration": 175}, {"note": 0, "velocity": 0, "duration": 65}, {"note": 71, "velocity": 91, "duration": 388}, {"note": 0, "velocity": 0, "duration": 92}, {"note": 71, "velocity": 91, "duration": 154}, {"note": 0, "velocity": 0, "duration": 86}, {"note": 69, "velocity": 85, "duration": 899}, {"note": 0, "velocity": 0, "duration": 301}, {"note": 78, "velocity": 92, "duration": 203}, {"note": 76, "velocity": 90, "duration": 147}, {"note": 0, "velocity": 0, "duration": 93}, {"note": 76, "velocity": 92, "duration": 184}, {"note": 73, "velocity": 95, "duration": 193}, {"note": 73, "velocity": 93, "duration": 1872}, {"note": 0, "velocity": 0, "duration": 1008}, {"note": 78, "velocity": 93, "duration": 180}, {"note": 76, "velocity": 93, "duration": 106}, {"note": 0, "velocity": 0, "duration": 134}, {"note": 76, "velocity": 91, "duration": 158}, {"note": 0, "velocity": 0, "duration": 82}, {"note": 73, "velocity": 89, "duration": 93}, {"note": 76, "velocity": 86, "duration": 67}, {"note": 73, "velocity": 88, "duration": 2029}, {"note": 0, "velocity": 0, "duration": 2291}, {"note": 71, "velocity": 88, "duration": 132}, {"note": 0, "velocity": 0, "duration": 108}, {"note": 71, "velocity": 87, "duration": 158}, {"note": 0, "velocity": 0, "duration": 82}, {"note": 71, "velocity": 87, "duration": 187}, {"note": 69, "velocity": 90, "duration": 431}, {"note": 71, "velocity": 88, "duration": 378}, {"note": 0, "velocity": 0, "duration": 102}, {"note": 71, "velocity": 92, "duration": 802}, {"note": 0, "velocity": 0, "duration": 1118}, {"note": 71, "velocity": 90, "duration": 158}, {"note": 0, "velocity": 0, "duration": 82}, {"note": 71, "velocity": 92, "duration": 164}, {"note": 0, "velocity": 0, "duration": 76}, {"note": 69, "velocity": 89, "duration": 172}, {"note": 0, "velocity": 0, "duration": 68}, {"note": 71, "velocity": 93, "duration": 175}, {"note": 0, "velocity": 0, "duration": 65}, {"note": 73, "velocity": 87, "duration": 217}, {"note": 0, "velocity": 0, "duration": 263}, {"note": 76, "velocity": 90, "duration": 1951}, {"note": 69, "velocity": 97, "duration": 196}, {"note": 78, "velocity": 87, "duration": 398}, {"note": 0, "velocity": 0, "duration": 82}, {"note": 76, "velocity": 90, "duration": 170}, {"note": 0, "velocity": 0, "duration": 70}, {"note": 76, "velocity": 91, "duration": 146}, {"note": 0, "velocity": 0, "duration": 94}, {"note": 76, "velocity": 97, "duration": 365}, {"note": 0, "velocity": 0, "duration": 115}, {"note": 73, "velocity": 91, "duration": 170}, {"note": 0, "velocity": 0, "duration": 70}, {"note": 76, "velocity": 95, "duration": 388}, {"note": 0, "velocity": 0, "duration": 92}, {"note": 73, "velocity": 91, "duration": 483}, {"note": 0, "velocity": 0, "duration": 237}, {"note": 64, "velocity": 97, "duration": 159}, {"note": 0, "velocity": 0, "duration": 81}, {"note": 64, "velocity": 92, "duration": 155}, {"note": 0, "velocity": 0, "duration": 85}, {"note": 66, "velocity": 90, "duration": 144}, {"note": 0, "velocity": 0, "duration": 96}, {"note": 69, "velocity": 88, "duration": 154}, {"note": 0, "velocity": 0, "duration": 86}, {"note": 71, "velocity": 90, "duration": 412}, {"note": 0, "velocity": 0, "duration": 68}, {"note": 71, "velocity": 90, "duration": 165}, {"note": 0, "velocity": 0, "duration": 75}, {"note": 69, "velocity": 86, "duration": 198}, {"note": 71, "velocity": 89, "duration": 378}, {"note": 0, "velocity": 0, "duration": 102}, {"note": 69, "velocity": 88, "duration": 159}, {"note": 0, "velocity": 0, "duration": 81}, {"note": 69, "velocity": 90, "duration": 1080}, {"note": 0, "velocity": 0, "duration": 120}, {"note": 78, "velocity": 90, "duration": 213}, {"note": 76, "velocity": 88, "duration": 159}, {"note": 0, "velocity": 0, "duration": 81}, {"note": 73, "velocity": 91, "duration": 175}, {"note": 0, "velocity": 0, "duration": 65}, {"note": 73, "velocity": 92, "duration": 172}, {"note": 0, "velocity": 0, "duration": 68}, {"note": 76, "velocity": 92, "duration": 337}, {"note": 0, "velocity": 0, "duration": 143}, {"note": 76, "velocity": 90, "duration": 240}, {"note": 0, "velocity": 0, "duration": 240}, {"note": 76, "velocity": 93, "duration": 360}, {"note": 0, "velocity": 0, "duration": 120}, {"note": 73, "velocity": 65, "duration": 124}, {"note": 0, "velocity": 0, "duration": 116}, {"note": 76, "velocity": 97, "duration": 361}, {"note": 0, "velocity": 0, "duration": 119}, {"note": 73, "velocity": 92, "duration": 385}, {"note": 0, "velocity": 0, "duration": 335}, {"note": 64, "velocity": 91, "duration": 162}, {"note": 0, "velocity": 0, "duration": 78}, {"note": 64, "velocity": 90, "duration": 170}, {"note": 0, "velocity": 0, "duration": 70}, {"note": 66, "velocity": 88, "duration": 158}, {"note": 0, "velocity": 0, "duration": 82}, {"note": 69, "velocity": 87, "duration": 160}, {"note": 0, "velocity": 0, "duration": 80}, {"note": 71, "velocity": 88, "duration": 351}, {"note": 0, "velocity": 0, "duration": 129}, {"note": 71, "velocity": 88, "duration": 201}, {"note": 69, "velocity": 88, "duration": 175}, {"note": 0, "velocity": 0, "duration": 65}, {"note": 71, "velocity": 91, "duration": 388}, {"note": 0, "velocity": 0, "duration": 92}, {"note": 71, "velocity": 91, "duration": 154}, {"note": 0, "velocity": 0, "duration": 86}, {"note": 69, "velocity": 85, "duration": 899}, {"note": 0, "velocity": 0, "duration": 301}, {"note": 78, "velocity": 92, "duration": 203}, {"note": 76, "velocity": 90, "duration": 147}, {"note": 0, "velocity": 0, "duration": 93}, {"note": 76, "velocity": 92, "duration": 184}, {"note": 73, "velocity": 95, "duration": 193}, {"note": 73, "velocity": 93, "duration": 1872}, {"note": 0, "velocity": 0, "duration": 1008}, {"note": 78, "velocity": 93, "duration": 180}, {"note": 76, "velocity": 93, "duration": 106}, {"note": 0, "velocity": 0, "duration": 134}, {"note": 76, "velocity": 91, "duration": 158}, {"note": 0, "velocity": 0, "duration": 82}, {"note": 73, "velocity": 89, "duration": 93}, {"note": 76, "velocity": 86, "duration": 67}, {"note": 73, "velocity": 88, "duration": 2029}, {"note": 0, "velocity": 0, "duration": 2291}, {"note": 71, "velocity": 88, "duration": 132}, {"note": 0, "velocity": 0, "duration": 108}, {"note": 71, "velocity": 87, "duration": 158}, {"note": 0, "velocity": 0, "duration": 82}, {"note": 71, "velocity": 87, "duration": 187}, {"note": 69, "velocity": 90, "duration": 431}, {"note": 71, "velocity": 88, "duration": 378}, {"note": 0, "velocity": 0, "duration": 102}, {"note": 71, "velocity": 92, "duration": 802}, {"note": 0, "velocity": 0, "duration": 1118}, {"note": 71, "velocity": 90, "duration": 158}, {"note": 0, "velocity": 0, "duration": 82}, {"note": 71, "velocity": 92, "duration": 164}, {"note": 0, "velocity": 0, "duration": 76}, {"note": 69, "velocity": 89, "duration": 172}, {"note": 0, "velocity": 0, "duration": 68}, {"note": 71, "velocity": 93, "duration": 175}, {"note": 0, "velocity": 0, "duration": 65}, {"note": 73, "velocity": 87, "duration": 217}, {"note": 69, "velocity": 90, "duration": 201}, {"note": 71, "velocity": 90, "duration": 1951}, {"note": 0, "velocity": 0, "duration": 181}, {"note": 66, "velocity": 81, "duration": 175}, {"note": 0, "velocity": 0, "duration": 79}, {"note": 66, "velocity": 79, "duration": 136}, {"note": 0, "velocity": 0, "duration": 110}, {"note": 66, "velocity": 87, "duration": 162}, {"note": 0, "velocity": 0, "duration": 64}, {"note": 64, "velocity": 92, "duration": 164}, {"note": 0, "velocity": 0, "duration": 91}, {"note": 66, "velocity": 87, "duration": 378}, {"note": 0, "velocity": 0, "duration": 91}, {"note": 64, "velocity": 90, "duration": 144}, {"note": 0, "velocity": 0, "duration": 126}, {"note": 66, "velocity": 87, "duration": 468}, {"note": 66, "velocity": 87, "duration": 291}, {"note": 0, "velocity": 0, "duration": 171}, {"note": 64, "velocity": 86, "duration": 181}, {"note": 0, "velocity": 0, "duration": 67}, {"note": 66, "velocity": 84, "duration": 530}, {"note": 64, "velocity": 87, "duration": 485}, {"note": 0, "velocity": 0, "duration": 122}, {"note": 64, "velocity": 85, "duration": 736}, {"note": 61, "velocity": 79, "duration": 1425}]]