[[{"note": 70, "velocity": 90, "duration": 120}, {"note": 65, "velocity": 97, "duration": 63}, {"note": 70, "velocity": 92, "duration": 82}, {"note": 72, "velocity": 89, "duration": 70}, {"note": 73, "velocity": 87, "duration": 113}, {"note": 72, "velocity": 88, "duration": 82}, {"note": 70, "velocity": 92, "duration": 120}, {"note": 77, "velocity": 93, "duration": 120}, {"note": 72, "velocity": 88, "duration": 599}, {"note": 0, "velocity": 0, "duration": 121}, {"note": 68, "velocity": 89, "duration": 128}, {"note": 70, "velocity": 97, "duration": 128}, {"note": 72, "velocity": 87, "duration": 85}, {"note": 72, "velocity": 88, "duration": 184}, {"note": 72, "velocity": 86, "duration": 93}, {"note": 73, "velocity": 93, "duration": 118}, {"note": 72, "velocity": 87, "duration": 120}, {"note": 70, "velocity": 90, "duration": 120}, {"note": 68, "velocity": 86, "duration": 152}, {"note": 70, "velocity": 97, "duration": 715}, {"note": 0, "velocity": 0, "duration": 125}, {"note": 70, "velocity": 92, "duration": 52}, {"note": 0, "velocity": 0, "duration": 68}, {"note": 70, "velocity": 88, "duration": 113}, {"note": 65, "velocity": 91, "duration": 114}, {"note": 70, "velocity": 87, "duration": 143}, {"note": 72, "velocity": 87, "duration": 137}, {"note": 73, "velocity": 84, "duration": 135}, {"note": 72, "velocity": 85, "duration": 127}, {"note": 70, "velocity": 90, "duration": 125}, {"note": 77, "velocity": 91, "duration": 120}, {"note": 72, "velocity": 89, "duration": 597}, {"note": 0, "velocity": 0, "duration": 123}, {"note": 68, "velocity": 90, "duration": 123}, {"note": 70, "velocity": 92, "duration": 134}, {"note": 72, "velocity": 97, "duration": 75}, {"note": 72, "velocity": 88, "duration": 203}, {"note": 73, "velocity": 88, "duration": 249}, {"note": 72, "velocity": 89, "duration": 145}, {"note": 70, "velocity": 88, "duration": 73}, {"note": 70, "velocity": 90, "duration": 745}, {"note": 0, "velocity": 0, "duration": 95}, {"note": 73, "velocity": 92, "duration": 138}, {"note": 75, "velocity": 93, "duration": 132}, {"note": 77, "velocity": 93, "duration": 80}, {"note": 77, "velocity": 93, "duration": 63}, {"note": 77, "velocity": 88, "duration": 74}, {"note": 77, "velocity": 88, "duration": 100}, {"note": 75, "velocity": 90, "duration": 241}, {"note": 73, "velocity": 87, "duration": 108}, {"note": 75, "velocity": 93, "duration": 655}, {"note": 0, "velocity": 0, "duration": 185}, {"note": 75, "velocity": 90, "duration": 126}, {"note": 77, "velocity": 91, "duration": 102}, {"note": 78, "velocity": 87, "duration": 70}, {"note": 78, "velocity": 86, "duration": 70}, {"note": 78, "velocity": 88, "duration": 83}, {"note": 78, "velocity": 87, "duration": 108}, {"note": 77, "velocity": 93, "duration": 244}, {"note": 75, "velocity": 88, "duration": 68}, {"note": 75, "velocity": 90, "duration": 245}, {"note": 73, "velocity": 93, "duration": 477}, {"note": 0, "velocity": 0, "duration": 123}, {"note": 73, "velocity": 88, "duration": 108}, {"note": 75, "velocity": 102, "duration": 86}, {"note": 77, "velocity": 95, "duration": 66}, {"note": 77, "velocity": 89, "duration": 176}, {"note": 0, "velocity": 0, "duration": 64}, {"note": 77, "velocity": 97, "duration": 240}, {"note": 73, "velocity": 87, "duration": 80}, {"note": 73, "velocity": 87, "duration": 80}, {"note": 77, "velocity": 87, "duration": 80}, {"note": 77, "velocity": 89, "duration": 73}, {"note": 75, "velocity": 88, "duration": 197}, {"note": 72, "velocity": 86, "duration": 87}, {"note": 73, "velocity": 82, "duration": 68}, {"note": 73, "velocity": 87, "duration": 81}, {"note": 72, "velocity": 90, "duration": 106}, {"note": 70, "velocity": 88, "duration": 963}, {"note": 0, "velocity": 0, "duration": 597}, {"note": 73, "velocity": 93, "duration": 180}, {"note": 75, "velocity": 100, "duration": 194}, {"note": 77, "velocity": 92, "duration": 65}, {"note": 77, "velocity": 88, "duration": 65}, {"note": 77, "velocity": 89, "duration": 66}, {"note": 77, "velocity": 89, "duration": 73}, {"note": 77, "velocity": 90, "duration": 86}, {"note": 75, "velocity": 100, "duration": 58}, {"note": 0, "velocity": 0, "duration": 62}, {"note": 73, "velocity": 92, "duration": 70}, {"note": 77, "velocity": 92, "duration": 70}, {"note": 77, "velocity": 93, "duration": 88}, {"note": 75, "velocity": 103, "duration": 177}, {"note": 0, "velocity": 0, "duration": 63}, {"note": 75, "velocity": 102, "duration": 273}, {"note": 0, "velocity": 0, "duration": 87}, {"note": 75, "velocity": 102, "duration": 102}, {"note": 77, "velocity": 95, "duration": 71}, {"note": 78, "velocity": 87, "duration": 72}, {"note": 78, "velocity": 86, "duration": 65}, {"note": 78, "velocity": 87, "duration": 67}, {"note": 78, "velocity": 88, "duration": 97}, {"note": 77, "velocity": 97, "duration": 174}, {"note": 0, "velocity": 0, "duration": 66}, {"note": 75, "velocity": 92, "duration": 60}, {"note": 75, "velocity": 92, "duration": 168}, {"note": 0, "velocity": 0, "duration": 72}, {"note": 73, "velocity": 92, "duration": 272}, {"note": 0, "velocity": 0, "duration": 328}, {"note": 73, "velocity": 97, "duration": 93}, {"note": 75, "velocity": 102, "duration": 74}, {"note": 77, "velocity": 91, "duration": 67}, {"note": 77, "velocity": 88, "duration": 65}, {"note": 77, "velocity": 87, "duration": 70}, {"note": 77, "velocity": 89, "duration": 74}, {"note": 77, "velocity": 92, "duration": 85}, {"note": 75, "velocity": 102, "duration": 57}, {"note": 0, "velocity": 0, "duration": 63}, {"note": 73, "velocity": 93, "duration": 77}, {"note": 77, "velocity": 90, "duration": 60}, {"note": 77, "velocity": 95, "duration": 107}, {"note": 75, "velocity": 91, "duration": 112}, {"note": 73, "velocity": 87, "duration": 90}, {"note": 75, "velocity": 97, "duration": 313}, {"note": 0, "velocity": 0, "duration": 287}, {"note": 73, "velocity": 95, "duration": 65}, {"note": 73, "velocity": 87, "duration": 65}, {"note": 73, "velocity": 97, "duration": 182}, {"note": 73, "velocity": 93, "duration": 73}, {"note": 75, "velocity": 102, "duration": 164}, {"note": 0, "velocity": 0, "duration": 76}, {"note": 75, "velocity": 97, "duration": 542}, {"note": 73, "velocity": 97, "duration": 208}, {"note": 75, "velocity": 100, "duration": 193}, {"note": 77, "velocity": 92, "duration": 65}, {"note": 77, "velocity": 88, "duration": 65}, {"note": 77, "velocity": 89, "duration": 66}, {"note": 77, "velocity": 89, "duration": 73}, {"note": 77, "velocity": 90, "duration": 86}, {"note": 75, "velocity": 100, "duration": 58}, {"note": 0, "velocity": 0, "duration": 62}, {"note": 73, "velocity": 92, "duration": 70}, {"note": 77, "velocity": 92, "duration": 70}, {"note": 77, "velocity": 93, "duration": 88}, {"note": 75, "velocity": 103, "duration": 177}, {"note": 0, "velocity": 0, "duration": 63}, {"note": 75, "velocity": 102, "duration": 273}, {"note": 0, "velocity": 0, "duration": 87}, {"note": 75, "velocity": 102, "duration": 102}, {"note": 77, "velocity": 95, "duration": 71}, {"note": 78, "velocity": 87, "duration": 72}, {"note": 78, "velocity": 86, "duration": 65}, {"note": 78, "velocity": 87, "duration": 67}, {"note": 78, "velocity": 88, "duration": 97}, {"note": 77, "velocity": 97, "duration": 174}, {"note": 0, "velocity": 0, "duration": 66}, {"note": 75, "velocity": 92, "duration": 60}, {"note": 75, "velocity": 92, "duration": 168}, {"note": 0, "velocity": 0, "duration": 72}, {"note": 73, "velocity": 92, "duration": 272}, {"note": 0, "velocity": 0, "duration": 328}, {"note": 70, "velocity": 90, "duration": 83}, {"note": 72, "velocity": 91, "duration": 75}, {"note": 73, "velocity": 87, "duration": 75}, {"note": 73, "velocity": 86, "duration": 65}, {"note": 73, "velocity": 85, "duration": 70}, {"note": 73, "velocity": 86, "duration": 65}, {"note": 73, "velocity": 87, "duration": 62}, {"note": 73, "velocity": 87, "duration": 84}, {"note": 77, "velocity": 86, "duration": 80}, {"note": 72, "velocity": 89, "duration": 176}, {"note": 0, "velocity": 0, "duration": 64}, {"note": 72, "velocity": 88, "duration": 71}, {"note": 72, "velocity": 87, "duration": 60}, {"note": 72, "velocity": 87, "duration": 60}, {"note": 73, "velocity": 90, "duration": 102}, {"note": 72, "velocity": 90, "duration": 70}, {"note": 70, "velocity": 90, "duration": 67}, {"note": 70, "velocity": 89, "duration": 1961}, {"note": 0, "velocity": 0, "duration": 11599}, {"note": 70, "velocity": 90, "duration": 120}, {"note": 65, "velocity": 97, "duration": 63}, {"note": 70, "velocity": 92, "duration": 82}, {"note": 72, "velocity": 89, "duration": 70}, {"note": 73, "velocity": 87, "duration": 113}, {"note": 72, "velocity": 88, "duration": 82}, {"note": 70, "velocity": 92, "duration": 120}, {"note": 77, "velocity": 93, "duration": 120}, {"note": 72, "velocity": 88, "duration": 599}, {"note": 0, "velocity": 0, "duration": 121}, {"note": 68, "velocity": 89, "duration": 128}, {"note": 70, "velocity": 97, "duration": 128}, {"note": 72, "velocity": 87, "duration": 85}, {"note": 72, "velocity": 88, "duration": 184}, {"note": 72, "velocity": 86, "duration": 93}, {"note": 73, "velocity": 93, "duration": 118}, {"note": 72, "velocity": 87, "duration": 120}, {"note": 70, "velocity": 90, "duration": 120}, {"note": 68, "velocity": 86, "duration": 152}, {"note": 70, "velocity": 97, "duration": 715}, {"note": 0, "velocity": 0, "duration": 125}, {"note": 70, "velocity": 92, "duration": 52}, {"note": 0, "velocity": 0, "duration": 68}, {"note": 70, "velocity": 88, "duration": 113}, {"note": 65, "velocity": 91, "duration": 114}, {"note": 70, "velocity": 87, "duration": 143}, {"note": 72, "velocity": 87, "duration": 137}, {"note": 73, "velocity": 84, "duration": 135}, {"note": 72, "velocity": 85, "duration": 127}, {"note": 70, "velocity": 90, "duration": 125}, {"note": 77, "velocity": 91, "duration": 120}, {"note": 72, "velocity": 89, "duration": 597}, {"note": 0, "velocity": 0, "duration": 123}, {"note": 68, "velocity": 90, "duration": 123}, {"note": 70, "velocity": 92, "duration": 134}, {"note": 72, "velocity": 97, "duration": 75}, {"note": 72, "velocity": 88, "duration": 203}, {"note": 73, "velocity": 88, "duration": 249}, {"note": 72, "velocity": 89, "duration": 145}, {"note": 70, "velocity": 88, "duration": 73}, {"note": 70, "velocity": 90, "duration": 745}, {"note": 0, "velocity": 0, "duration": 95}, {"note": 73, "velocity": 92, "duration": 138}, {"note": 75, "velocity": 93, "duration": 132}, {"note": 77, "velocity": 93, "duration": 80}, {"note": 77, "velocity": 93, "duration": 63}, {"note": 77, "velocity": 88, "duration": 74}, {"note": 77, "velocity": 88, "duration": 100}, {"note": 75, "velocity": 90, "duration": 241}, {"note": 73, "velocity": 87, "duration": 108}, {"note": 75, "velocity": 93, "duration": 655}, {"note": 0, "velocity": 0, "duration": 185}, {"note": 75, "velocity": 90, "duration": 126}, {"note": 77, "velocity": 91, "duration": 102}, {"note": 78, "velocity": 87, "duration": 70}, {"note": 78, "velocity": 86, "duration": 70}, {"note": 78, "velocity": 88, "duration": 83}, {"note": 78, "velocity": 87, "duration": 108}, {"note": 77, "velocity": 93, "duration": 244}, {"note": 75, "velocity": 88, "duration": 68}, {"note": 75, "velocity": 90, "duration": 245}, {"note": 73, "velocity": 93, "duration": 477}, {"note": 0, "velocity": 0, "duration": 123}, {"note": 73, "velocity": 88, "duration": 108}, {"note": 75, "velocity": 102, "duration": 86}, {"note": 77, "velocity": 95, "duration": 66}, {"note": 77, "velocity": 89, "duration": 176}, {"note": 0, "velocity": 0, "duration": 64}, {"note": 77, "velocity": 97, "duration": 240}, {"note": 73, "velocity": 87, "duration": 80}, {"note": 73, "velocity": 87, "duration": 80}, {"note": 77, "velocity": 87, "duration": 80}, {"note": 77, "velocity": 89, "duration": 73}, {"note": 75, "velocity": 88, "duration": 197}, {"note": 72, "velocity": 86, "duration": 87}, {"note": 73, "velocity": 82, "duration": 68}, {"note": 73, "velocity": 87, "duration": 81}, {"note": 72, "velocity": 90, "duration": 106}, {"note": 70, "velocity": 88, "duration": 963}, {"note": 0, "velocity": 0, "duration": 597}, {"note": 73, "velocity": 93, "duration": 180}, {"note": 75, "velocity": 100, "duration": 194}, {"note": 77, "velocity": 92, "duration": 65}, {"note": 77, "velocity": 88, "duration": 65}, {"note": 77, "velocity": 89, "duration": 66}, {"note": 77, "velocity": 89, "duration": 73}, {"note": 77, "velocity": 90, "duration": 86}, {"note": 75, "velocity": 100, "duration": 58}, {"note": 0, "velocity": 0, "duration": 62}, {"note": 73, "velocity": 92, "duration": 70}, {"note": 77, "velocity": 92, "duration": 70}, {"note": 77, "velocity": 93, "duration": 88}, {"note": 75, "velocity": 103, "duration": 177}, {"note": 0, "velocity": 0, "duration": 63}, {"note": 75, "velocity": 102, "duration": 273}, {"note": 0, "velocity": 0, "duration": 87}, {"note": 75, "velocity": 102, "duration": 102}, {"note": 77, "velocity": 95, "duration": 71}, {"note": 78, "velocity": 87, "duration": 72}, {"note": 78, "velocity": 86, "duration": 65}, {"note": 78, "velocity": 87, "duration": 67}, {"note": 78, "velocity": 88, "duration": 97}, {"note": 77, "velocity": 97, "duration": 174}, {"note": 0, "velocity": 0, "duration": 66}, {"note": 75, "velocity": 92, "duration": 60}, {"note": 75, "velocity": 92, "duration": 168}, {"note": 0, "velocity": 0, "duration": 72}, {"note": 73, "velocity": 92, "duration": 272}, {"note": 0, "velocity": 0, "duration": 328}, {"note": 73, "velocity": 97, "duration": 93}, {"note": 75, "velocity": 102, "duration": 74}, {"note": 77, "velocity": 91, "duration": 67}, {"note": 77, "velocity": 88, "duration": 65}, {"note": 77, "velocity": 87, "duration": 70}, {"note": 77, "velocity": 89, "duration": 74}, {"note": 77, "velocity": 92, "duration": 85}, {"note": 75, "velocity": 102, "duration": 57}, {"note": 0, "velocity": 0, "duration": 63}, {"note": 73, "velocity": 93, "duration": 77}, {"note": 77, "velocity": 90, "duration": 60}, {"note": 77, "velocity": 95, "duration": 107}, {"note": 75, "velocity": 91, "duration": 112}, {"note": 73, "velocity": 87, "duration": 90}, {"note": 75, "velocity": 97, "duration": 313}, {"note": 0, "velocity": 0, "duration": 287}, {"note": 73, "velocity": 95, "duration": 65}, {"note": 73, "velocity": 87, "duration": 65}, {"note": 73, "velocity": 97, "duration": 182}, {"note": 73, "velocity": 93, "duration": 73}, {"note": 75, "velocity": 102, "duration": 164}, {"note": 0, "velocity": 0, "duration": 76}, {"note": 75, "velocity": 97, "duration": 542}, {"note": 73, "velocity": 97, "duration": 208}, {"note": 75, "velocity": 100, "duration": 193}, {"note": 77, "velocity": 92, "duration": 65}, {"note": 77, "velocity": 88, "duration": 65}, {"note": 77, "velocity": 89, "duration": 66}, {"note": 77, "velocity": 89, "duration": 73}, {"note": 77, "velocity": 90, "duration": 86}, {"note": 75, "velocity": 100, "duration": 58}, {"note": 0, "velocity": 0, "duration": 62}, {"note": 73, "velocity": 92, "duration": 70}, {"note": 77, "velocity": 92, "duration": 70}, {"note": 77, "velocity": 93, "duration": 88}, {"note": 75, "velocity": 103, "duration": 177}, {"note": 0, "velocity": 0, "duration": 63}, {"note": 75, "velocity": 102, "duration": 273}, {"note": 0, "velocity": 0, "duration": 87}, {"note": 75, "velocity": 102, "duration": 102}, {"note": 77, "velocity": 95, "duration": 71}, {"note": 78, "velocity": 87, "duration": 72}, {"note": 78, "velocity": 86, "duration": 65}, {"note": 78, "velocity": 87, "duration": 67}, {"note": 78, "velocity": 88, "duration": 97}, {"note": 77, "velocity": 97, "duration": 174}, {"note": 0, "velocity": 0, "duration": 66}, {"note": 75, "velocity": 92, "duration": 60}, {"note": 75, "velocity": 92, "duration": 168}, {"note": 0, "velocity": 0, "duration": 72}, {"note": 73, "velocity": 92, "duration": 272}, {"note": 0, "velocity": 0, "duration": 328}, {"note": 70, "velocity": 90, "duration": 83}, {"note": 72, "velocity": 91, "duration": 75}, {"note": 73, "velocity": 87, "duration": 75}, {"note": 73, "velocity": 86, "duration": 65}, {"note": 73, "velocity": 85, "duration": 70}, {"note": 73, "velocity": 86, "duration": 65}, {"note": 73, "velocity": 87, "duration": 62}, {"note": 73, "velocity": 87, "duration": 84}, {"note": 77, "velocity": 86, "duration": 80}, {"note": 72, "velocity": 89, "duration": 176}, {"note": 0, "velocity": 0, "duration": 64}, {"note": 72, "velocity": 88, "duration": 71}, {"note": 72, "velocity": 87, "duration": 60}, {"note": 72, "velocity": 87, "duration": 60}, {"note": 73, "velocity": 90, "duration": 102}, {"note": 72, "velocity": 90, "duration": 70}, {"note": 70, "velocity": 90, "duration": 67}, {"note": 70, "velocity": 89, "duration": 1961}, {"note": 0, "velocity": 0, "duration": 3919}, {"note": 70, "velocity": 82, "duration": 67}, {"note": 70, "velocity": 78, "duration": 60}, {"note": 70, "velocity": 82, "duration": 65}, {"note": 70, "velocity": 87, "duration": 60}, {"note": 70, "velocity": 87, "duration": 70}, {"note": 73, "velocity": 87, "duration": 60}, {"note": 72, "velocity": 89, "duration": 50}, {"note": 0, "velocity": 0, "duration": 70}, {"note": 72, "velocity": 93, "duration": 67}, {"note": 0, "velocity": 0, "duration": 173}, {"note": 72, "velocity": 87, "duration": 61}, {"note": 72, "velocity": 87, "duration": 65}, {"note": 72, "velocity": 90, "duration": 67}, {"note": 72, "velocity": 93, "duration": 63}, {"note": 75, "velocity": 93, "duration": 60}, {"note": 73, "velocity": 95, "duration": 53}, {"note": 0, "velocity": 0, "duration": 67}, {"note": 75, "velocity": 100, "duration": 151}, {"note": 0, "velocity": 0, "duration": 89}, {"note": 73, "velocity": 88, "duration": 53}, {"note": 0, "velocity": 0, "duration": 67}, {"note": 73, "velocity": 92, "duration": 75}, {"note": 70, "velocity": 90, "duration": 65}, {"note": 73, "velocity": 91, "duration": 68}, {"note": 70, "velocity": 88, "duration": 56}, {"note": 0, "velocity": 0, "duration": 64}, {"note": 73, "velocity": 90, "duration": 58}, {"note": 0, "velocity": 0, "duration": 62}, {"note": 75, "velocity": 90, "duration": 56}, {"note": 0, "velocity": 0, "duration": 64}, {"note": 77, "velocity": 90, "duration": 65}, {"note": 77, "velocity": 87, "duration": 57}, {"note": 0, "velocity": 0, "duration": 63}, {"note": 78, "velocity": 86, "duration": 55}, {"note": 0, "velocity": 0, "duration": 65}, {"note": 75, "velocity": 88, "duration": 170}, {"note": 0, "velocity": 0, "duration": 70}, {"note": 77, "velocity": 97, "duration": 862}, {"note": 73, "velocity": 93, "duration": 180}, {"note": 75, "velocity": 100, "duration": 194}, {"note": 77, "velocity": 92, "duration": 65}, {"note": 77, "velocity": 88, "duration": 65}, {"note": 77, "velocity": 89, "duration": 66}, {"note": 77, "velocity": 89, "duration": 73}, {"note": 77, "velocity": 90, "duration": 86}, {"note": 75, "velocity": 100, "duration": 58}, {"note": 0, "velocity": 0, "duration": 62}, {"note": 73, "velocity": 92, "duration": 70}, {"note": 77, "velocity": 92, "duration": 70}, {"note": 77, "velocity": 93, "duration": 88}, {"note": 75, "velocity": 103, "duration": 177}, {"note": 0, "velocity": 0, "duration": 63}, {"note": 75, "velocity": 102, "duration": 273}, {"note": 0, "velocity": 0, "duration": 87}, {"note": 75, "velocity": 102, "duration": 102}, {"note": 77, "velocity": 95, "duration": 71}, {"note": 78, "velocity": 87, "duration": 72}, {"note": 78, "velocity": 86, "duration": 65}, {"note": 78, "velocity": 87, "duration": 67}, {"note": 78, "velocity": 88, "duration": 97}, {"note": 77, "velocity": 97, "duration": 174}, {"note": 0, "velocity": 0, "duration": 66}, {"note": 75, "velocity": 92, "duration": 60}, {"note": 75, "velocity": 92, "duration": 168}, {"note": 0, "velocity": 0, "duration": 72}, {"note": 73, "velocity": 92, "duration": 272}, {"note": 0, "velocity": 0, "duration": 328}, {"note": 73, "velocity": 97, "duration": 93}, {"note": 75, "velocity": 102, "duration": 74}, {"note": 77, "velocity": 91, "duration": 67}, {"note": 77, "velocity": 88, "duration": 65}, {"note": 77, "velocity": 87, "duration": 70}, {"note": 77, "velocity": 89, "duration": 74}, {"note": 77, "velocity": 92, "duration": 85}, {"note": 75, "velocity": 102, "duration": 57}, {"note": 0, "velocity": 0, "duration": 63}, {"note": 73, "velocity": 93, "duration": 77}, {"note": 77, "velocity": 90, "duration": 60}, {"note": 77, "velocity": 95, "duration": 107}, {"note": 75, "velocity": 91, "duration": 112}, {"note": 73, "velocity": 87, "duration": 90}, {"note": 75, "velocity": 97, "duration": 313}, {"note": 0, "velocity": 0, "duration": 287}, {"note": 73, "velocity": 95, "duration": 65}, {"note": 73, "velocity": 87, "duration": 65}, {"note": 73, "velocity": 97, "duration": 182}, {"note": 73, "velocity": 93, "duration": 73}, {"note": 75, "velocity": 102, "duration": 164}, {"note": 0, "velocity": 0, "duration": 76}, {"note": 75, "velocity": 97, "duration": 542}, {"note": 73, "velocity": 97, "duration": 208}, {"note": 75, "velocity": 100, "duration": 193}, {"note": 77, "velocity": 92, "duration": 65}, {"note": 77, "velocity": 88, "duration": 65}, {"note": 77, "velocity": 89, "duration": 66}, {"note": 77, "velocity": 89, "duration": 73}, {"note": 77, "velocity": 90, "duration": 86}, {"note": 75, "velocity": 100, "duration": 58}, {"note": 0, "velocity": 0, "duration": 62}, {"note": 73, "velocity": 92, "duration": 70}, {"note": 77, "velocity": 92, "duration": 70}, {"note": 77, "velocity": 93, "duration": 88}, {"note": 75, "velocity": 103, "duration": 177}, {"note": 0, "velocity": 0, "duration": 63}, {"note": 75, "velocity": 102, "duration": 273}, {"note": 0, "velocity": 0, "duration": 87}, {"note": 75, "velocity": 102, "duration": 102}, {"note": 77, "velocity": 95, "duration": 71}, {"note": 78, "velocity": 87, "duration": 72}, {"note": 78, "velocity": 86, "duration": 65}, {"note": 78, "velocity": 87, "duration": 67}, {"note": 78, "velocity": 88, "duration": 97}, {"note": 77, "velocity": 97, "duration": 174}, {"note": 0, "velocity": 0, "duration": 66}, {"note": 75, "velocity": 92, "duration": 60}, {"note": 75, "velocity": 92, "duration": 168}, {"note": 0, "velocity": 0, "duration": 72}, {"note": 73, "velocity": 92, "duration": 272}, {"note": 0, "velocity": 0, "duration": 328}, {"note": 70, "velocity": 90, "duration": 83}, {"note": 72, "velocity": 91, "duration": 75}, {"note": 73, "velocity": 87, "duration": 75}, {"note": 73, "velocity": 86, "duration": 65}, {"note": 73, "velocity": 85, "duration": 70}, {"note": 73, "velocity": 86, "duration": 65}, {"note": 73, "velocity": 87, "duration": 62}, {"note": 73, "velocity": 87, "duration": 84}, {"note": 77, "velocity": 86, "duration": 80}, {"note": 72, "velocity": 89, "duration": 176}, {"note": 0, "velocity": 0, "duration": 64}, {"note": 72, "velocity": 88, "duration": 71}, {"note": 72, "velocity": 87, "duration": 60}, {"note": 72, "velocity": 87, "duration": 60}, {"note": 73, "velocity": 90, "duration": 102}, {"note": 72, "velocity": 90, "duration": 70}, {"note": 70, "velocity": 90, "duration": 67}, {"note": 70, "velocity": 89, "duration": 1500}, {"note": 0, "velocity": 0, "duration": 335}, {"note": 70, "velocity": 92, "duration": 70}, {"note": 72, "velocity": 88, "duration": 63}, {"note": 73, "velocity": 93, "duration": 208}, {"note": 73, "velocity": 90, "duration": 73}, {"note": 73, "velocity": 93, "duration": 202}, {"note": 75, "velocity": 100, "duration": 78}, {"note": 77, "velocity": 97, "duration": 204}, {"note": 75, "velocity": 107, "duration": 590}, {"note": 80, "velocity": 102, "duration": 149}, {"note": 82, "velocity": 93, "duration": 179}, {"note": 82, "velocity": 97, "duration": 1875}]]