[[{"note": 68, "velocity": 86, "duration": 251}, {"note": 77, "velocity": 88, "duration": 698}, {"note": 68, "velocity": 85, "duration": 254}, {"note": 75, "velocity": 85, "duration": 585}, {"note": 0, "velocity": 0, "duration": 255}, {"note": 77, "velocity": 85, "duration": 124}, {"note": 75, "velocity": 84, "duration": 114}, {"note": 73, "velocity": 78, "duration": 75}, {"note": 73, "velocity": 83, "duration": 65}, {"note": 72, "velocity": 84, "duration": 83}, {"note": 73, "velocity": 85, "duration": 235}, {"note": 80, "velocity": 87, "duration": 179}, {"note": 0, "velocity": 0, "duration": 61}, {"note": 80, "velocity": 84, "duration": 523}, {"note": 0, "velocity": 0, "duration": 197}, {"note": 73, "velocity": 83, "duration": 248}, {"note": 82, "velocity": 83, "duration": 611}, {"note": 0, "velocity": 0, "duration": 109}, {"note": 85, "velocity": 87, "duration": 256}, {"note": 80, "velocity": 82, "duration": 548}, {"note": 0, "velocity": 0, "duration": 292}, {"note": 85, "velocity": 81, "duration": 83}, {"note": 85, "velocity": 84, "duration": 95}, {"note": 84, "velocity": 85, "duration": 66}, {"note": 84, "velocity": 84, "duration": 96}, {"note": 82, "velocity": 83, "duration": 65}, {"note": 82, "velocity": 84, "duration": 93}, {"note": 80, "velocity": 75, "duration": 63}, {"note": 80, "velocity": 79, "duration": 89}, {"note": 77, "velocity": 85, "duration": 240}, {"note": 75, "velocity": 83, "duration": 117}, {"note": 73, "velocity": 85, "duration": 134}, {"note": 75, "velocity": 84, "duration": 381}, {"note": 68, "velocity": 83, "duration": 271}, {"note": 77, "velocity": 83, "duration": 558}, {"note": 0, "velocity": 0, "duration": 162}, {"note": 80, "velocity": 85, "duration": 127}, {"note": 82, "velocity": 84, "duration": 253}, {"note": 80, "velocity": 84, "duration": 490}, {"note": 0, "velocity": 0, "duration": 230}, {"note": 84, "velocity": 84, "duration": 71}, {"note": 84, "velocity": 84, "duration": 86}, {"note": 82, "velocity": 76, "duration": 60}, {"note": 82, "velocity": 83, "duration": 78}, {"note": 80, "velocity": 81, "duration": 79}, {"note": 82, "velocity": 85, "duration": 159}, {"note": 0, "velocity": 0, "duration": 81}, {"note": 80, "velocity": 84, "duration": 86}, {"note": 77, "velocity": 85, "duration": 213}, {"note": 80, "velocity": 83, "duration": 199}, {"note": 73, "velocity": 87, "duration": 360}, {"note": 73, "velocity": 76, "duration": 240}, {"note": 82, "velocity": 83, "duration": 469}, {"note": 0, "velocity": 0, "duration": 251}, {"note": 89, "velocity": 88, "duration": 176}, {"note": 0, "velocity": 0, "duration": 64}, {"note": 87, "velocity": 84, "duration": 110}, {"note": 85, "velocity": 84, "duration": 471}, {"note": 0, "velocity": 0, "duration": 249}, {"note": 85, "velocity": 87, "duration": 213}, {"note": 87, "velocity": 88, "duration": 63}, {"note": 87, "velocity": 84, "duration": 101}, {"note": 85, "velocity": 87, "duration": 85}, {"note": 87, "velocity": 88, "duration": 290}, {"note": 0, "velocity": 0, "duration": 70}, {"note": 85, "velocity": 90, "duration": 204}, {"note": 87, "velocity": 85, "duration": 69}, {"note": 87, "velocity": 85, "duration": 86}, {"note": 85, "velocity": 86, "duration": 80}, {"note": 87, "velocity": 90, "duration": 244}, {"note": 85, "velocity": 85, "duration": 262}, {"note": 87, "velocity": 86, "duration": 615}, {"note": 0, "velocity": 0, "duration": 105}, {"note": 89, "velocity": 87, "duration": 83}, {"note": 89, "velocity": 89, "duration": 328}, {"note": 87, "velocity": 85, "duration": 126}, {"note": 85, "velocity": 88, "duration": 324}, {"note": 89, "velocity": 87, "duration": 85}, {"note": 87, "velocity": 86, "duration": 356}, {"note": 85, "velocity": 85, "duration": 129}, {"note": 84, "velocity": 85, "duration": 353}, {"note": 0, "velocity": 0, "duration": 127}, {"note": 80, "velocity": 85, "duration": 71}, {"note": 85, "velocity": 89, "duration": 87}, {"note": 84, "velocity": 84, "duration": 61}, {"note": 85, "velocity": 90, "duration": 62}, {"note": 87, "velocity": 85, "duration": 71}, {"note": 89, "velocity": 87, "duration": 183}, {"note": 85, "velocity": 85, "duration": 73}, {"note": 84, "velocity": 85, "duration": 246}, {"note": 85, "velocity": 83, "duration": 91}, {"note": 84, "velocity": 85, "duration": 112}, {"note": 85, "velocity": 80, "duration": 73}, {"note": 84, "velocity": 80, "duration": 269}, {"note": 80, "velocity": 84, "duration": 88}, {"note": 78, "velocity": 84, "duration": 222}, {"note": 85, "velocity": 87, "duration": 384}, {"note": 0, "velocity": 0, "duration": 216}, {"note": 78, "velocity": 87, "duration": 115}, {"note": 77, "velocity": 90, "duration": 216}, {"note": 89, "velocity": 90, "duration": 139}, {"note": 87, "velocity": 84, "duration": 133}, {"note": 85, "velocity": 84, "duration": 410}, {"note": 0, "velocity": 0, "duration": 78}, {"note": 85, "velocity": 84, "duration": 53}, {"note": 87, "velocity": 90, "duration": 128}, {"note": 89, "velocity": 84, "duration": 85}, {"note": 87, "velocity": 88, "duration": 79}, {"note": 89, "velocity": 89, "duration": 123}, {"note": 87, "velocity": 87, "duration": 158}, {"note": 0, "velocity": 0, "duration": 82}, {"note": 82, "velocity": 83, "duration": 89}, {"note": 87, "velocity": 89, "duration": 204}, {"note": 89, "velocity": 85, "duration": 98}, {"note": 87, "velocity": 83, "duration": 102}, {"note": 89, "velocity": 88, "duration": 73}, {"note": 87, "velocity": 92, "duration": 223}, {"note": 89, "velocity": 87, "duration": 83}, {"note": 89, "velocity": 89, "duration": 328}, {"note": 87, "velocity": 85, "duration": 126}, {"note": 85, "velocity": 88, "duration": 324}, {"note": 89, "velocity": 87, "duration": 85}, {"note": 87, "velocity": 86, "duration": 356}, {"note": 85, "velocity": 85, "duration": 129}, {"note": 84, "velocity": 85, "duration": 353}, {"note": 0, "velocity": 0, "duration": 127}, {"note": 80, "velocity": 85, "duration": 71}, {"note": 82, "velocity": 89, "duration": 87}, {"note": 84, "velocity": 84, "duration": 61}, {"note": 85, "velocity": 90, "duration": 62}, {"note": 87, "velocity": 85, "duration": 71}, {"note": 89, "velocity": 87, "duration": 183}, {"note": 94, "velocity": 85, "duration": 73}, {"note": 92, "velocity": 85, "duration": 246}, {"note": 0, "velocity": 0, "duration": 594}, {"note": 80, "velocity": 84, "duration": 120}, {"note": 82, "velocity": 87, "duration": 240}, {"note": 0, "velocity": 0, "duration": 120}, {"note": 89, "velocity": 89, "duration": 76}, {"note": 90, "velocity": 89, "duration": 292}, {"note": 0, "velocity": 0, "duration": 68}, {"note": 89, "velocity": 85, "duration": 91}, {"note": 87, "velocity": 85, "duration": 240}, {"note": 85, "velocity": 87, "duration": 426}, {"note": 0, "velocity": 0, "duration": 294}, {"note": 77, "velocity": 86, "duration": 80}, {"note": 78, "velocity": 89, "duration": 214}, {"note": 85, "velocity": 87, "duration": 532}, {"note": 0, "velocity": 0, "duration": 188}, {"note": 78, "velocity": 85, "duration": 200}, {"note": 87, "velocity": 84, "duration": 96}, {"note": 85, "velocity": 84, "duration": 451}, {"note": 84, "velocity": 76, "duration": 137}, {"note": 85, "velocity": 86, "duration": 1072}, {"note": 0, "velocity": 0, "duration": 608}, {"note": 68, "velocity": 86, "duration": 251}, {"note": 77, "velocity": 88, "duration": 698}, {"note": 68, "velocity": 85, "duration": 254}, {"note": 75, "velocity": 85, "duration": 585}, {"note": 0, "velocity": 0, "duration": 135}, {"note": 77, "velocity": 85, "duration": 124}, {"note": 75, "velocity": 84, "duration": 240}, {"note": 73, "velocity": 78, "duration": 75}, {"note": 73, "velocity": 83, "duration": 65}, {"note": 72, "velocity": 84, "duration": 83}, {"note": 73, "velocity": 85, "duration": 235}, {"note": 80, "velocity": 87, "duration": 179}, {"note": 0, "velocity": 0, "duration": 61}, {"note": 80, "velocity": 84, "duration": 523}, {"note": 0, "velocity": 0, "duration": 197}, {"note": 73, "velocity": 83, "duration": 248}, {"note": 82, "velocity": 83, "duration": 611}, {"note": 0, "velocity": 0, "duration": 109}, {"note": 85, "velocity": 87, "duration": 256}, {"note": 80, "velocity": 82, "duration": 548}, {"note": 0, "velocity": 0, "duration": 292}, {"note": 85, "velocity": 81, "duration": 83}, {"note": 85, "velocity": 84, "duration": 95}, {"note": 84, "velocity": 85, "duration": 66}, {"note": 84, "velocity": 84, "duration": 96}, {"note": 82, "velocity": 83, "duration": 65}, {"note": 82, "velocity": 84, "duration": 93}, {"note": 80, "velocity": 75, "duration": 63}, {"note": 80, "velocity": 79, "duration": 89}, {"note": 77, "velocity": 85, "duration": 240}, {"note": 75, "velocity": 83, "duration": 117}, {"note": 73, "velocity": 85, "duration": 134}, {"note": 75, "velocity": 84, "duration": 381}, {"note": 68, "velocity": 83, "duration": 271}, {"note": 77, "velocity": 83, "duration": 558}, {"note": 0, "velocity": 0, "duration": 162}, {"note": 80, "velocity": 85, "duration": 127}, {"note": 82, "velocity": 84, "duration": 253}, {"note": 80, "velocity": 84, "duration": 490}, {"note": 0, "velocity": 0, "duration": 230}, {"note": 84, "velocity": 84, "duration": 71}, {"note": 84, "velocity": 84, "duration": 86}, {"note": 82, "velocity": 76, "duration": 60}, {"note": 82, "velocity": 83, "duration": 78}, {"note": 80, "velocity": 81, "duration": 79}, {"note": 82, "velocity": 85, "duration": 159}, {"note": 0, "velocity": 0, "duration": 81}, {"note": 80, "velocity": 84, "duration": 86}, {"note": 89, "velocity": 85, "duration": 188}, {"note": 89, "velocity": 87, "duration": 188}, {"note": 90, "velocity": 90, "duration": 178}, {"note": 0, "velocity": 0, "duration": 62}, {"note": 89, "velocity": 87, "duration": 201}, {"note": 87, "velocity": 85, "duration": 89}, {"note": 85, "velocity": 82, "duration": 127}, {"note": 87, "velocity": 81, "duration": 125}, {"note": 85, "velocity": 86, "duration": 120}, {"note": 82, "velocity": 86, "duration": 83}, {"note": 85, "velocity": 89, "duration": 129}, {"note": 0, "velocity": 0, "duration": 111}, {"note": 89, "velocity": 87, "duration": 125}, {"note": 87, "velocity": 89, "duration": 109}, {"note": 85, "velocity": 89, "duration": 103}, {"note": 87, "velocity": 85, "duration": 254}, {"note": 82, "velocity": 97, "duration": 110}, {"note": 85, "velocity": 84, "duration": 240}, {"note": 89, "velocity": 89, "duration": 129}, {"note": 87, "velocity": 88, "duration": 103}, {"note": 85, "velocity": 85, "duration": 108}, {"note": 89, "velocity": 89, "duration": 381}, {"note": 90, "velocity": 90, "duration": 133}, {"note": 92, "velocity": 90, "duration": 364}, {"note": 89, "velocity": 84, "duration": 125}, {"note": 92, "velocity": 90, "duration": 1631}, {"note": 0, "velocity": 0, "duration": 169}, {"note": 89, "velocity": 87, "duration": 83}, {"note": 89, "velocity": 89, "duration": 328}, {"note": 87, "velocity": 85, "duration": 126}, {"note": 85, "velocity": 88, "duration": 324}, {"note": 89, "velocity": 87, "duration": 85}, {"note": 87, "velocity": 86, "duration": 356}, {"note": 85, "velocity": 85, "duration": 129}, {"note": 84, "velocity": 85, "duration": 353}, {"note": 0, "velocity": 0, "duration": 127}, {"note": 80, "velocity": 85, "duration": 71}, {"note": 85, "velocity": 89, "duration": 87}, {"note": 84, "velocity": 84, "duration": 61}, {"note": 85, "velocity": 90, "duration": 62}, {"note": 87, "velocity": 85, "duration": 71}, {"note": 89, "velocity": 87, "duration": 183}, {"note": 85, "velocity": 85, "duration": 73}, {"note": 84, "velocity": 85, "duration": 246}, {"note": 85, "velocity": 83, "duration": 91}, {"note": 84, "velocity": 85, "duration": 112}, {"note": 85, "velocity": 80, "duration": 73}, {"note": 84, "velocity": 80, "duration": 269}, {"note": 80, "velocity": 84, "duration": 88}, {"note": 78, "velocity": 84, "duration": 222}, {"note": 85, "velocity": 87, "duration": 384}, {"note": 0, "velocity": 0, "duration": 216}, {"note": 78, "velocity": 87, "duration": 115}, {"note": 77, "velocity": 90, "duration": 216}, {"note": 89, "velocity": 90, "duration": 139}, {"note": 87, "velocity": 84, "duration": 133}, {"note": 85, "velocity": 84, "duration": 410}, {"note": 0, "velocity": 0, "duration": 78}, {"note": 85, "velocity": 84, "duration": 53}, {"note": 87, "velocity": 90, "duration": 128}, {"note": 89, "velocity": 84, "duration": 85}, {"note": 87, "velocity": 88, "duration": 79}, {"note": 89, "velocity": 89, "duration": 123}, {"note": 87, "velocity": 87, "duration": 158}, {"note": 0, "velocity": 0, "duration": 82}, {"note": 82, "velocity": 83, "duration": 89}, {"note": 87, "velocity": 89, "duration": 204}, {"note": 89, "velocity": 85, "duration": 98}, {"note": 87, "velocity": 83, "duration": 102}, {"note": 89, "velocity": 88, "duration": 73}, {"note": 87, "velocity": 92, "duration": 223}, {"note": 89, "velocity": 87, "duration": 83}, {"note": 89, "velocity": 89, "duration": 328}, {"note": 87, "velocity": 85, "duration": 126}, {"note": 85, "velocity": 88, "duration": 324}, {"note": 89, "velocity": 87, "duration": 85}, {"note": 87, "velocity": 86, "duration": 356}, {"note": 85, "velocity": 85, "duration": 129}, {"note": 84, "velocity": 85, "duration": 353}, {"note": 0, "velocity": 0, "duration": 127}, {"note": 80, "velocity": 85, "duration": 71}, {"note": 82, "velocity": 89, "duration": 87}, {"note": 84, "velocity": 84, "duration": 61}, {"note": 85, "velocity": 90, "duration": 62}, {"note": 87, "velocity": 85, "duration": 71}, {"note": 89, "velocity": 87, "duration": 183}, {"note": 94, "velocity": 85, "duration": 73}, {"note": 92, "velocity": 85, "duration": 246}, {"note": 0, "velocity": 0, "duration": 594}, {"note": 80, "velocity": 84, "duration": 120}, {"note": 82, "velocity": 87, "duration": 240}, {"note": 0, "velocity": 0, "duration": 120}, {"note": 89, "velocity": 89, "duration": 76}, {"note": 90, "velocity": 89, "duration": 292}, {"note": 0, "velocity": 0, "duration": 68}, {"note": 89, "velocity": 85, "duration": 91}, {"note": 87, "velocity": 85, "duration": 240}, {"note": 85, "velocity": 87, "duration": 426}, {"note": 0, "velocity": 0, "duration": 294}, {"note": 77, "velocity": 86, "duration": 80}, {"note": 78, "velocity": 89, "duration": 214}, {"note": 85, "velocity": 87, "duration": 240}, {"note": 85, "velocity": 87, "duration": 292}, {"note": 0, "velocity": 0, "duration": 68}, {"note": 77, "velocity": 88, "duration": 120}, {"note": 78, "velocity": 85, "duration": 200}, {"note": 87, "velocity": 84, "duration": 96}, {"note": 85, "velocity": 84, "duration": 451}, {"note": 84, "velocity": 76, "duration": 137}, {"note": 85, "velocity": 86, "duration": 1072}, {"note": 0, "velocity": 0, "duration": 1088}, {"note": 85, "velocity": 92, "duration": 91}, {"note": 84, "velocity": 84, "duration": 115}, {"note": 85, "velocity": 97, "duration": 134}, {"note": 0, "velocity": 0, "duration": 106}, {"note": 85, "velocity": 92, "duration": 101}, {"note": 84, "velocity": 86, "duration": 113}, {"note": 85, "velocity": 94, "duration": 151}, {"note": 0, "velocity": 0, "duration": 89}, {"note": 92, "velocity": 87, "duration": 78}, {"note": 89, "velocity": 87, "duration": 120}, {"note": 87, "velocity": 82, "duration": 79}, {"note": 85, "velocity": 87, "duration": 120}, {"note": 82, "velocity": 87, "duration": 120}, {"note": 85, "velocity": 87, "duration": 120}, {"note": 0, "velocity": 0, "duration": 120}, {"note": 82, "velocity": 89, "duration": 85}, {"note": 85, "velocity": 90, "duration": 89}, {"note": 90, "velocity": 87, "duration": 101}, {"note": 89, "velocity": 90, "duration": 114}, {"note": 87, "velocity": 84, "duration": 118}, {"note": 85, "velocity": 88, "duration": 130}, {"note": 87, "velocity": 83, "duration": 136}, {"note": 85, "velocity": 94, "duration": 360}, {"note": 82, "velocity": 86, "duration": 236}, {"note": 80, "velocity": 87, "duration": 400}, {"note": 0, "velocity": 0, "duration": 200}, {"note": 85, "velocity": 99, "duration": 79}, {"note": 84, "velocity": 87, "duration": 83}, {"note": 85, "velocity": 92, "duration": 136}, {"note": 0, "velocity": 0, "duration": 104}, {"note": 85, "velocity": 100, "duration": 93}, {"note": 84, "velocity": 85, "duration": 101}, {"note": 85, "velocity": 89, "duration": 205}, {"note": 92, "velocity": 84, "duration": 83}, {"note": 89, "velocity": 92, "duration": 247}, {"note": 85, "velocity": 84, "duration": 132}, {"note": 82, "velocity": 92, "duration": 115}, {"note": 85, "velocity": 76, "duration": 104}, {"note": 90, "velocity": 92, "duration": 615}, {"note": 0, "velocity": 0, "duration": 105}, {"note": 87, "velocity": 90, "duration": 102}, {"note": 89, "velocity": 87, "duration": 76}, {"note": 90, "velocity": 90, "duration": 189}, {"note": 90, "velocity": 86, "duration": 91}, {"note": 89, "velocity": 87, "duration": 360}, {"note": 85, "velocity": 88, "duration": 253}, {"note": 92, "velocity": 90, "duration": 360}, {"note": 0, "velocity": 0, "duration": 120}, {"note": 94, "velocity": 90, "duration": 648}, {"note": 0, "velocity": 0, "duration": 792}, {"note": 91, "velocity": 89, "duration": 240}, {"note": 91, "velocity": 85, "duration": 126}, {"note": 89, "velocity": 88, "duration": 240}, {"note": 87, "velocity": 87, "duration": 85}, {"note": 0, "velocity": 0, "duration": 155}, {"note": 89, "velocity": 86, "duration": 356}, {"note": 87, "velocity": 85, "duration": 129}, {"note": 86, "velocity": 85, "duration": 353}, {"note": 0, "velocity": 0, "duration": 127}, {"note": 82, "velocity": 85, "duration": 71}, {"note": 87, "velocity": 89, "duration": 87}, {"note": 86, "velocity": 84, "duration": 61}, {"note": 87, "velocity": 90, "duration": 62}, {"note": 89, "velocity": 85, "duration": 71}, {"note": 91, "velocity": 87, "duration": 183}, {"note": 87, "velocity": 85, "duration": 73}, {"note": 86, "velocity": 85, "duration": 246}, {"note": 87, "velocity": 83, "duration": 91}, {"note": 86, "velocity": 85, "duration": 112}, {"note": 87, "velocity": 80, "duration": 73}, {"note": 86, "velocity": 80, "duration": 269}, {"note": 82, "velocity": 84, "duration": 88}, {"note": 80, "velocity": 84, "duration": 222}, {"note": 87, "velocity": 87, "duration": 384}, {"note": 0, "velocity": 0, "duration": 216}, {"note": 80, "velocity": 87, "duration": 115}, {"note": 79, "velocity": 90, "duration": 216}, {"note": 91, "velocity": 90, "duration": 139}, {"note": 89, "velocity": 84, "duration": 133}, {"note": 87, "velocity": 84, "duration": 410}, {"note": 0, "velocity": 0, "duration": 78}, {"note": 87, "velocity": 84, "duration": 53}, {"note": 89, "velocity": 90, "duration": 128}, {"note": 91, "velocity": 84, "duration": 85}, {"note": 89, "velocity": 88, "duration": 79}, {"note": 91, "velocity": 89, "duration": 123}, {"note": 89, "velocity": 87, "duration": 158}, {"note": 0, "velocity": 0, "duration": 82}, {"note": 84, "velocity": 83, "duration": 89}, {"note": 89, "velocity": 89, "duration": 204}, {"note": 91, "velocity": 85, "duration": 98}, {"note": 89, "velocity": 83, "duration": 102}, {"note": 91, "velocity": 88, "duration": 73}, {"note": 89, "velocity": 92, "duration": 223}, {"note": 0, "velocity": 0, "duration": 137}, {"note": 87, "velocity": 87, "duration": 83}, {"note": 94, "velocity": 89, "duration": 240}, {"note": 91, "velocity": 85, "duration": 240}, {"note": 0, "velocity": 0, "duration": 240}, {"note": 91, "velocity": 87, "duration": 120}, {"note": 89, "velocity": 86, "duration": 356}, {"note": 91, "velocity": 85, "duration": 129}, {"note": 89, "velocity": 85, "duration": 353}, {"note": 0, "velocity": 0, "duration": 127}, {"note": 82, "velocity": 85, "duration": 71}, {"note": 84, "velocity": 89, "duration": 87}, {"note": 86, "velocity": 84, "duration": 61}, {"note": 87, "velocity": 90, "duration": 62}, {"note": 89, "velocity": 85, "duration": 71}, {"note": 91, "velocity": 87, "duration": 183}, {"note": 96, "velocity": 85, "duration": 73}, {"note": 94, "velocity": 85, "duration": 600}, {"note": 0, "velocity": 0, "duration": 240}, {"note": 82, "velocity": 84, "duration": 120}, {"note": 84, "velocity": 87, "duration": 240}, {"note": 0, "velocity": 0, "duration": 120}, {"note": 91, "velocity": 89, "duration": 76}, {"note": 92, "velocity": 89, "duration": 292}, {"note": 0, "velocity": 0, "duration": 68}, {"note": 91, "velocity": 85, "duration": 91}, {"note": 89, "velocity": 85, "duration": 240}, {"note": 87, "velocity": 87, "duration": 426}, {"note": 0, "velocity": 0, "duration": 294}, {"note": 79, "velocity": 86, "duration": 80}, {"note": 80, "velocity": 89, "duration": 214}, {"note": 87, "velocity": 87, "duration": 480}, {"note": 0, "velocity": 0, "duration": 120}, {"note": 79, "velocity": 88, "duration": 120}, {"note": 80, "velocity": 85, "duration": 200}, {"note": 89, "velocity": 84, "duration": 96}, {"note": 87, "velocity": 84, "duration": 451}, {"note": 86, "velocity": 76, "duration": 137}, {"note": 87, "velocity": 86, "duration": 1072}, {"note": 0, "velocity": 0, "duration": 728}, {"note": 82, "velocity": 83, "duration": 103}, {"note": 84, "velocity": 89, "duration": 174}, {"note": 0, "velocity": 0, "duration": 66}, {"note": 91, "velocity": 94, "duration": 77}, {"note": 92, "velocity": 87, "duration": 322}, {"note": 91, "velocity": 89, "duration": 216}, {"note": 89, "velocity": 84, "duration": 127}, {"note": 87, "velocity": 84, "duration": 545}, {"note": 0, "velocity": 0, "duration": 175}, {"note": 79, "velocity": 79, "duration": 76}, {"note": 80, "velocity": 87, "duration": 239}, {"note": 87, "velocity": 90, "duration": 169}, {"note": 0, "velocity": 0, "duration": 71}, {"note": 87, "velocity": 89, "duration": 641}, {"note": 0, "velocity": 0, "duration": 187}, {"note": 80, "velocity": 88, "duration": 265}, {"note": 89, "velocity": 86, "duration": 274}, {"note": 87, "velocity": 84, "duration": 567}, {"note": 0, "velocity": 0, "duration": 298}, {"note": 86, "velocity": 85, "duration": 209}, {"note": 0, "velocity": 0, "duration": 83}, {"note": 91, "velocity": 87, "duration": 150}, {"note": 89, "velocity": 78, "duration": 151}, {"note": 87, "velocity": 79, "duration": 1483}]]