[[{"note": 71, "velocity": 87, "duration": 188}, {"note": 71, "velocity": 89, "duration": 81}, {"note": 71, "velocity": 90, "duration": 341}, {"note": 0, "velocity": 0, "duration": 139}, {"note": 62, "velocity": 85, "duration": 94}, {"note": 64, "velocity": 90, "duration": 175}, {"note": 0, "velocity": 0, "duration": 65}, {"note": 67, "velocity": 87, "duration": 84}, {"note": 69, "velocity": 89, "duration": 197}, {"note": 67, "velocity": 85, "duration": 288}, {"note": 0, "velocity": 0, "duration": 72}, {"note": 71, "velocity": 82, "duration": 192}, {"note": 71, "velocity": 88, "duration": 68}, {"note": 71, "velocity": 90, "duration": 326}, {"note": 0, "velocity": 0, "duration": 154}, {"note": 62, "velocity": 84, "duration": 84}, {"note": 64, "velocity": 91, "duration": 174}, {"note": 0, "velocity": 0, "duration": 66}, {"note": 67, "velocity": 84, "duration": 82}, {"note": 69, "velocity": 85, "duration": 186}, {"note": 67, "velocity": 91, "duration": 320}, {"note": 71, "velocity": 89, "duration": 184}, {"note": 71, "velocity": 89, "duration": 76}, {"note": 71, "velocity": 89, "duration": 347}, {"note": 0, "velocity": 0, "duration": 133}, {"note": 62, "velocity": 87, "duration": 92}, {"note": 64, "velocity": 89, "duration": 218}, {"note": 67, "velocity": 88, "duration": 151}, {"note": 69, "velocity": 90, "duration": 344}, {"note": 67, "velocity": 89, "duration": 189}, {"note": 67, "velocity": 89, "duration": 1360}, {"note": 0, "velocity": 0, "duration": 560}, {"note": 71, "velocity": 87, "duration": 188}, {"note": 71, "velocity": 89, "duration": 81}, {"note": 71, "velocity": 90, "duration": 341}, {"note": 0, "velocity": 0, "duration": 139}, {"note": 62, "velocity": 85, "duration": 94}, {"note": 64, "velocity": 90, "duration": 175}, {"note": 0, "velocity": 0, "duration": 65}, {"note": 67, "velocity": 87, "duration": 84}, {"note": 69, "velocity": 89, "duration": 197}, {"note": 67, "velocity": 85, "duration": 288}, {"note": 0, "velocity": 0, "duration": 72}, {"note": 71, "velocity": 82, "duration": 192}, {"note": 71, "velocity": 88, "duration": 68}, {"note": 71, "velocity": 90, "duration": 326}, {"note": 0, "velocity": 0, "duration": 154}, {"note": 62, "velocity": 84, "duration": 84}, {"note": 64, "velocity": 91, "duration": 174}, {"note": 0, "velocity": 0, "duration": 66}, {"note": 67, "velocity": 84, "duration": 82}, {"note": 69, "velocity": 85, "duration": 186}, {"note": 67, "velocity": 91, "duration": 320}, {"note": 71, "velocity": 89, "duration": 184}, {"note": 71, "velocity": 89, "duration": 76}, {"note": 71, "velocity": 89, "duration": 347}, {"note": 0, "velocity": 0, "duration": 133}, {"note": 62, "velocity": 87, "duration": 92}, {"note": 64, "velocity": 89, "duration": 218}, {"note": 67, "velocity": 88, "duration": 151}, {"note": 69, "velocity": 90, "duration": 344}, {"note": 67, "velocity": 89, "duration": 189}, {"note": 67, "velocity": 89, "duration": 1360}, {"note": 0, "velocity": 0, "duration": 440}, {"note": 71, "velocity": 89, "duration": 136}, {"note": 74, "velocity": 92, "duration": 240}, {"note": 71, "velocity": 87, "duration": 142}, {"note": 74, "velocity": 91, "duration": 360}, {"note": 71, "velocity": 89, "duration": 250}, {"note": 67, "velocity": 85, "duration": 728}, {"note": 0, "velocity": 0, "duration": 112}, {"note": 71, "velocity": 78, "duration": 98}, {"note": 74, "velocity": 95, "duration": 220}, {"note": 71, "velocity": 90, "duration": 234}, {"note": 74, "velocity": 95, "duration": 244}, {"note": 71, "velocity": 89, "duration": 231}, {"note": 67, "velocity": 85, "duration": 712}, {"note": 0, "velocity": 0, "duration": 128}, {"note": 67, "velocity": 86, "duration": 98}, {"note": 69, "velocity": 90, "duration": 203}, {"note": 71, "velocity": 90, "duration": 220}, {"note": 69, "velocity": 89, "duration": 223}, {"note": 71, "velocity": 90, "duration": 197}, {"note": 74, "velocity": 96, "duration": 168}, {"note": 0, "velocity": 0, "duration": 72}, {"note": 76, "velocity": 90, "duration": 141}, {"note": 0, "velocity": 0, "duration": 99}, {"note": 74, "velocity": 94, "duration": 228}, {"note": 71, "velocity": 91, "duration": 145}, {"note": 0, "velocity": 0, "duration": 95}, {"note": 69, "velocity": 95, "duration": 1324}, {"note": 0, "velocity": 0, "duration": 116}, {"note": 74, "velocity": 96, "duration": 82}, {"note": 76, "velocity": 94, "duration": 300}, {"note": 74, "velocity": 93, "duration": 386}, {"note": 0, "velocity": 0, "duration": 94}, {"note": 74, "velocity": 95, "duration": 86}, {"note": 76, "velocity": 91, "duration": 277}, {"note": 0, "velocity": 0, "duration": 83}, {"note": 74, "velocity": 93, "duration": 374}, {"note": 0, "velocity": 0, "duration": 106}, {"note": 74, "velocity": 100, "duration": 236}, {"note": 76, "velocity": 93, "duration": 193}, {"note": 79, "velocity": 91, "duration": 189}, {"note": 79, "velocity": 90, "duration": 190}, {"note": 76, "velocity": 94, "duration": 223}, {"note": 74, "velocity": 96, "duration": 153}, {"note": 0, "velocity": 0, "duration": 87}, {"note": 71, "velocity": 91, "duration": 437}, {"note": 69, "velocity": 89, "duration": 99}, {"note": 71, "velocity": 89, "duration": 333}, {"note": 69, "velocity": 89, "duration": 407}, {"note": 0, "velocity": 0, "duration": 73}, {"note": 69, "velocity": 88, "duration": 240}, {"note": 71, "velocity": 89, "duration": 201}, {"note": 69, "velocity": 90, "duration": 430}, {"note": 69, "velocity": 90, "duration": 182}, {"note": 71, "velocity": 91, "duration": 224}, {"note": 74, "velocity": 92, "duration": 175}, {"note": 0, "velocity": 0, "duration": 65}, {"note": 74, "velocity": 93, "duration": 159}, {"note": 0, "velocity": 0, "duration": 81}, {"note": 74, "velocity": 95, "duration": 160}, {"note": 0, "velocity": 0, "duration": 80}, {"note": 71, "velocity": 90, "duration": 168}, {"note": 0, "velocity": 0, "duration": 72}, {"note": 69, "velocity": 89, "duration": 393}, {"note": 0, "velocity": 0, "duration": 87}, {"note": 74, "velocity": 96, "duration": 82}, {"note": 76, "velocity": 94, "duration": 300}, {"note": 74, "velocity": 93, "duration": 386}, {"note": 0, "velocity": 0, "duration": 94}, {"note": 74, "velocity": 95, "duration": 86}, {"note": 76, "velocity": 91, "duration": 277}, {"note": 0, "velocity": 0, "duration": 83}, {"note": 74, "velocity": 93, "duration": 374}, {"note": 0, "velocity": 0, "duration": 106}, {"note": 74, "velocity": 100, "duration": 236}, {"note": 76, "velocity": 93, "duration": 193}, {"note": 79, "velocity": 91, "duration": 189}, {"note": 79, "velocity": 90, "duration": 190}, {"note": 76, "velocity": 94, "duration": 223}, {"note": 74, "velocity": 96, "duration": 153}, {"note": 0, "velocity": 0, "duration": 87}, {"note": 71, "velocity": 91, "duration": 437}, {"note": 69, "velocity": 89, "duration": 99}, {"note": 71, "velocity": 89, "duration": 333}, {"note": 69, "velocity": 89, "duration": 407}, {"note": 0, "velocity": 0, "duration": 73}, {"note": 69, "velocity": 88, "duration": 240}, {"note": 71, "velocity": 89, "duration": 120}, {"note": 74, "velocity": 90, "duration": 430}, {"note": 0, "velocity": 0, "duration": 170}, {"note": 69, "velocity": 89, "duration": 90}, {"note": 71, "velocity": 90, "duration": 182}, {"note": 62, "velocity": 89, "duration": 105}, {"note": 67, "velocity": 89, "duration": 155}, {"note": 0, "velocity": 0, "duration": 85}, {"note": 67, "velocity": 86, "duration": 174}, {"note": 0, "velocity": 0, "duration": 66}, {"note": 67, "velocity": 88, "duration": 167}, {"note": 0, "velocity": 0, "duration": 73}, {"note": 69, "velocity": 86, "duration": 198}, {"note": 67, "velocity": 85, "duration": 1232}, {"note": 0, "velocity": 0, "duration": 4528}, {"note": 71, "velocity": 87, "duration": 188}, {"note": 71, "velocity": 89, "duration": 81}, {"note": 71, "velocity": 90, "duration": 341}, {"note": 0, "velocity": 0, "duration": 139}, {"note": 62, "velocity": 85, "duration": 94}, {"note": 64, "velocity": 90, "duration": 175}, {"note": 0, "velocity": 0, "duration": 65}, {"note": 67, "velocity": 87, "duration": 84}, {"note": 69, "velocity": 89, "duration": 197}, {"note": 67, "velocity": 85, "duration": 288}, {"note": 0, "velocity": 0, "duration": 72}, {"note": 71, "velocity": 82, "duration": 192}, {"note": 71, "velocity": 88, "duration": 68}, {"note": 71, "velocity": 90, "duration": 326}, {"note": 0, "velocity": 0, "duration": 154}, {"note": 62, "velocity": 84, "duration": 84}, {"note": 64, "velocity": 91, "duration": 174}, {"note": 0, "velocity": 0, "duration": 66}, {"note": 67, "velocity": 84, "duration": 82}, {"note": 69, "velocity": 85, "duration": 186}, {"note": 67, "velocity": 91, "duration": 320}, {"note": 71, "velocity": 89, "duration": 184}, {"note": 71, "velocity": 89, "duration": 76}, {"note": 71, "velocity": 89, "duration": 347}, {"note": 0, "velocity": 0, "duration": 133}, {"note": 62, "velocity": 87, "duration": 92}, {"note": 64, "velocity": 89, "duration": 218}, {"note": 67, "velocity": 88, "duration": 151}, {"note": 69, "velocity": 90, "duration": 344}, {"note": 67, "velocity": 89, "duration": 189}, {"note": 67, "velocity": 89, "duration": 1360}, {"note": 0, "velocity": 0, "duration": 560}, {"note": 71, "velocity": 87, "duration": 188}, {"note": 71, "velocity": 89, "duration": 81}, {"note": 71, "velocity": 90, "duration": 341}, {"note": 0, "velocity": 0, "duration": 139}, {"note": 62, "velocity": 85, "duration": 94}, {"note": 64, "velocity": 90, "duration": 175}, {"note": 0, "velocity": 0, "duration": 65}, {"note": 67, "velocity": 87, "duration": 84}, {"note": 69, "velocity": 89, "duration": 197}, {"note": 67, "velocity": 85, "duration": 288}, {"note": 0, "velocity": 0, "duration": 72}, {"note": 71, "velocity": 82, "duration": 192}, {"note": 71, "velocity": 88, "duration": 68}, {"note": 71, "velocity": 90, "duration": 326}, {"note": 0, "velocity": 0, "duration": 154}, {"note": 62, "velocity": 84, "duration": 84}, {"note": 64, "velocity": 91, "duration": 174}, {"note": 0, "velocity": 0, "duration": 66}, {"note": 67, "velocity": 84, "duration": 82}, {"note": 69, "velocity": 85, "duration": 186}, {"note": 67, "velocity": 91, "duration": 320}, {"note": 71, "velocity": 89, "duration": 184}, {"note": 71, "velocity": 89, "duration": 76}, {"note": 71, "velocity": 89, "duration": 347}, {"note": 0, "velocity": 0, "duration": 133}, {"note": 62, "velocity": 87, "duration": 92}, {"note": 64, "velocity": 89, "duration": 218}, {"note": 67, "velocity": 88, "duration": 151}, {"note": 69, "velocity": 90, "duration": 344}, {"note": 67, "velocity": 89, "duration": 189}, {"note": 67, "velocity": 89, "duration": 1360}, {"note": 0, "velocity": 0, "duration": 440}, {"note": 71, "velocity": 89, "duration": 136}, {"note": 74, "velocity": 92, "duration": 240}, {"note": 71, "velocity": 87, "duration": 142}, {"note": 74, "velocity": 91, "duration": 360}, {"note": 71, "velocity": 89, "duration": 250}, {"note": 67, "velocity": 85, "duration": 728}, {"note": 0, "velocity": 0, "duration": 112}, {"note": 71, "velocity": 78, "duration": 98}, {"note": 74, "velocity": 95, "duration": 220}, {"note": 71, "velocity": 90, "duration": 234}, {"note": 74, "velocity": 95, "duration": 244}, {"note": 71, "velocity": 89, "duration": 231}, {"note": 67, "velocity": 85, "duration": 712}, {"note": 0, "velocity": 0, "duration": 128}, {"note": 67, "velocity": 86, "duration": 98}, {"note": 69, "velocity": 90, "duration": 203}, {"note": 71, "velocity": 90, "duration": 220}, {"note": 69, "velocity": 89, "duration": 223}, {"note": 71, "velocity": 90, "duration": 197}, {"note": 74, "velocity": 96, "duration": 168}, {"note": 0, "velocity": 0, "duration": 72}, {"note": 76, "velocity": 90, "duration": 141}, {"note": 0, "velocity": 0, "duration": 99}, {"note": 74, "velocity": 94, "duration": 228}, {"note": 71, "velocity": 91, "duration": 145}, {"note": 0, "velocity": 0, "duration": 95}, {"note": 69, "velocity": 95, "duration": 1324}, {"note": 0, "velocity": 0, "duration": 116}, {"note": 74, "velocity": 96, "duration": 82}, {"note": 76, "velocity": 94, "duration": 300}, {"note": 74, "velocity": 93, "duration": 386}, {"note": 0, "velocity": 0, "duration": 94}, {"note": 74, "velocity": 95, "duration": 86}, {"note": 76, "velocity": 91, "duration": 277}, {"note": 0, "velocity": 0, "duration": 83}, {"note": 74, "velocity": 93, "duration": 374}, {"note": 0, "velocity": 0, "duration": 106}, {"note": 74, "velocity": 100, "duration": 236}, {"note": 76, "velocity": 93, "duration": 193}, {"note": 79, "velocity": 91, "duration": 189}, {"note": 79, "velocity": 90, "duration": 190}, {"note": 76, "velocity": 94, "duration": 223}, {"note": 74, "velocity": 96, "duration": 153}, {"note": 0, "velocity": 0, "duration": 87}, {"note": 71, "velocity": 91, "duration": 437}, {"note": 69, "velocity": 89, "duration": 99}, {"note": 71, "velocity": 89, "duration": 333}, {"note": 69, "velocity": 89, "duration": 407}, {"note": 0, "velocity": 0, "duration": 73}, {"note": 69, "velocity": 88, "duration": 240}, {"note": 71, "velocity": 89, "duration": 201}, {"note": 69, "velocity": 90, "duration": 430}, {"note": 69, "velocity": 90, "duration": 182}, {"note": 71, "velocity": 91, "duration": 224}, {"note": 74, "velocity": 92, "duration": 175}, {"note": 0, "velocity": 0, "duration": 65}, {"note": 74, "velocity": 93, "duration": 159}, {"note": 0, "velocity": 0, "duration": 81}, {"note": 74, "velocity": 95, "duration": 160}, {"note": 0, "velocity": 0, "duration": 80}, {"note": 71, "velocity": 90, "duration": 168}, {"note": 0, "velocity": 0, "duration": 72}, {"note": 69, "velocity": 89, "duration": 393}, {"note": 0, "velocity": 0, "duration": 87}, {"note": 74, "velocity": 96, "duration": 82}, {"note": 76, "velocity": 94, "duration": 300}, {"note": 74, "velocity": 93, "duration": 386}, {"note": 0, "velocity": 0, "duration": 94}, {"note": 74, "velocity": 95, "duration": 86}, {"note": 76, "velocity": 91, "duration": 277}, {"note": 0, "velocity": 0, "duration": 83}, {"note": 74, "velocity": 93, "duration": 374}, {"note": 0, "velocity": 0, "duration": 106}, {"note": 74, "velocity": 100, "duration": 236}, {"note": 76, "velocity": 93, "duration": 193}, {"note": 79, "velocity": 91, "duration": 189}, {"note": 79, "velocity": 90, "duration": 190}, {"note": 76, "velocity": 94, "duration": 223}, {"note": 74, "velocity": 96, "duration": 153}, {"note": 0, "velocity": 0, "duration": 87}, {"note": 71, "velocity": 91, "duration": 437}, {"note": 69, "velocity": 89, "duration": 99}, {"note": 71, "velocity": 89, "duration": 333}, {"note": 69, "velocity": 89, "duration": 407}, {"note": 0, "velocity": 0, "duration": 73}, {"note": 69, "velocity": 88, "duration": 240}, {"note": 71, "velocity": 89, "duration": 120}, {"note": 74, "velocity": 90, "duration": 430}, {"note": 0, "velocity": 0, "duration": 170}, {"note": 69, "velocity": 89, "duration": 90}, {"note": 71, "velocity": 90, "duration": 182}, {"note": 62, "velocity": 89, "duration": 105}, {"note": 67, "velocity": 89, "duration": 155}, {"note": 0, "velocity": 0, "duration": 85}, {"note": 67, "velocity": 86, "duration": 174}, {"note": 0, "velocity": 0, "duration": 66}, {"note": 67, "velocity": 88, "duration": 167}, {"note": 0, "velocity": 0, "duration": 73}, {"note": 69, "velocity": 86, "duration": 198}, {"note": 67, "velocity": 85, "duration": 1232}, {"note": 0, "velocity": 0, "duration": 7888}, {"note": 74, "velocity": 96, "duration": 82}, {"note": 76, "velocity": 94, "duration": 300}, {"note": 74, "velocity": 93, "duration": 386}, {"note": 0, "velocity": 0, "duration": 94}, {"note": 74, "velocity": 95, "duration": 86}, {"note": 76, "velocity": 91, "duration": 277}, {"note": 0, "velocity": 0, "duration": 83}, {"note": 74, "velocity": 93, "duration": 374}, {"note": 0, "velocity": 0, "duration": 106}, {"note": 74, "velocity": 100, "duration": 236}, {"note": 76, "velocity": 93, "duration": 193}, {"note": 79, "velocity": 91, "duration": 189}, {"note": 79, "velocity": 90, "duration": 190}, {"note": 76, "velocity": 94, "duration": 223}, {"note": 74, "velocity": 96, "duration": 153}, {"note": 0, "velocity": 0, "duration": 87}, {"note": 71, "velocity": 91, "duration": 437}, {"note": 69, "velocity": 89, "duration": 99}, {"note": 71, "velocity": 89, "duration": 333}, {"note": 69, "velocity": 89, "duration": 407}, {"note": 0, "velocity": 0, "duration": 73}, {"note": 69, "velocity": 88, "duration": 240}, {"note": 71, "velocity": 89, "duration": 201}, {"note": 69, "velocity": 90, "duration": 430}, {"note": 69, "velocity": 90, "duration": 182}, {"note": 71, "velocity": 91, "duration": 224}, {"note": 74, "velocity": 92, "duration": 175}, {"note": 0, "velocity": 0, "duration": 65}, {"note": 74, "velocity": 93, "duration": 159}, {"note": 0, "velocity": 0, "duration": 81}, {"note": 74, "velocity": 95, "duration": 160}, {"note": 0, "velocity": 0, "duration": 80}, {"note": 71, "velocity": 90, "duration": 168}, {"note": 0, "velocity": 0, "duration": 72}, {"note": 69, "velocity": 89, "duration": 393}, {"note": 0, "velocity": 0, "duration": 87}, {"note": 74, "velocity": 96, "duration": 82}, {"note": 76, "velocity": 94, "duration": 300}, {"note": 74, "velocity": 93, "duration": 386}, {"note": 0, "velocity": 0, "duration": 94}, {"note": 74, "velocity": 95, "duration": 86}, {"note": 76, "velocity": 91, "duration": 277}, {"note": 0, "velocity": 0, "duration": 83}, {"note": 74, "velocity": 93, "duration": 374}, {"note": 0, "velocity": 0, "duration": 106}, {"note": 74, "velocity": 100, "duration": 236}, {"note": 76, "velocity": 93, "duration": 193}, {"note": 79, "velocity": 91, "duration": 189}, {"note": 79, "velocity": 90, "duration": 190}, {"note": 76, "velocity": 94, "duration": 223}, {"note": 74, "velocity": 96, "duration": 153}, {"note": 0, "velocity": 0, "duration": 87}, {"note": 71, "velocity": 91, "duration": 437}, {"note": 69, "velocity": 89, "duration": 99}, {"note": 71, "velocity": 89, "duration": 333}, {"note": 69, "velocity": 89, "duration": 407}, {"note": 0, "velocity": 0, "duration": 73}, {"note": 69, "velocity": 88, "duration": 240}, {"note": 71, "velocity": 89, "duration": 120}, {"note": 74, "velocity": 90, "duration": 430}, {"note": 0, "velocity": 0, "duration": 170}, {"note": 69, "velocity": 89, "duration": 90}, {"note": 71, "velocity": 90, "duration": 182}, {"note": 62, "velocity": 89, "duration": 105}, {"note": 67, "velocity": 89, "duration": 155}, {"note": 0, "velocity": 0, "duration": 85}, {"note": 67, "velocity": 86, "duration": 174}, {"note": 0, "velocity": 0, "duration": 66}, {"note": 67, "velocity": 88, "duration": 167}, {"note": 0, "velocity": 0, "duration": 73}, {"note": 69, "velocity": 86, "duration": 198}, {"note": 67, "velocity": 85, "duration": 1232}, {"note": 0, "velocity": 0, "duration": 208}, {"note": 75, "velocity": 96, "duration": 82}, {"note": 77, "velocity": 94, "duration": 300}, {"note": 75, "velocity": 93, "duration": 386}, {"note": 0, "velocity": 0, "duration": 94}, {"note": 75, "velocity": 95, "duration": 86}, {"note": 77, "velocity": 91, "duration": 277}, {"note": 0, "velocity": 0, "duration": 83}, {"note": 75, "velocity": 93, "duration": 374}, {"note": 0, "velocity": 0, "duration": 106}, {"note": 75, "velocity": 100, "duration": 236}, {"note": 77, "velocity": 93, "duration": 193}, {"note": 80, "velocity": 91, "duration": 189}, {"note": 80, "velocity": 90, "duration": 190}, {"note": 77, "velocity": 94, "duration": 223}, {"note": 75, "velocity": 96, "duration": 153}, {"note": 0, "velocity": 0, "duration": 87}, {"note": 72, "velocity": 91, "duration": 437}, {"note": 70, "velocity": 89, "duration": 99}, {"note": 72, "velocity": 89, "duration": 333}, {"note": 70, "velocity": 89, "duration": 407}, {"note": 0, "velocity": 0, "duration": 73}, {"note": 70, "velocity": 88, "duration": 240}, {"note": 72, "velocity": 89, "duration": 201}, {"note": 70, "velocity": 90, "duration": 430}, {"note": 70, "velocity": 90, "duration": 182}, {"note": 72, "velocity": 91, "duration": 224}, {"note": 75, "velocity": 92, "duration": 175}, {"note": 0, "velocity": 0, "duration": 65}, {"note": 75, "velocity": 93, "duration": 159}, {"note": 0, "velocity": 0, "duration": 81}, {"note": 75, "velocity": 95, "duration": 160}, {"note": 0, "velocity": 0, "duration": 80}, {"note": 72, "velocity": 90, "duration": 168}, {"note": 0, "velocity": 0, "duration": 72}, {"note": 70, "velocity": 89, "duration": 393}, {"note": 0, "velocity": 0, "duration": 87}, {"note": 75, "velocity": 96, "duration": 82}, {"note": 77, "velocity": 94, "duration": 300}, {"note": 75, "velocity": 93, "duration": 386}, {"note": 0, "velocity": 0, "duration": 94}, {"note": 75, "velocity": 95, "duration": 86}, {"note": 77, "velocity": 91, "duration": 277}, {"note": 0, "velocity": 0, "duration": 83}, {"note": 75, "velocity": 93, "duration": 374}, {"note": 0, "velocity": 0, "duration": 106}, {"note": 75, "velocity": 100, "duration": 236}, {"note": 77, "velocity": 93, "duration": 193}, {"note": 80, "velocity": 91, "duration": 189}, {"note": 80, "velocity": 90, "duration": 190}, {"note": 77, "velocity": 94, "duration": 223}, {"note": 75, "velocity": 96, "duration": 153}, {"note": 0, "velocity": 0, "duration": 87}, {"note": 72, "velocity": 91, "duration": 437}, {"note": 70, "velocity": 89, "duration": 99}, {"note": 72, "velocity": 89, "duration": 333}, {"note": 70, "velocity": 89, "duration": 407}, {"note": 0, "velocity": 0, "duration": 73}, {"note": 70, "velocity": 88, "duration": 240}, {"note": 72, "velocity": 89, "duration": 120}, {"note": 75, "velocity": 90, "duration": 430}, {"note": 0, "velocity": 0, "duration": 170}, {"note": 70, "velocity": 89, "duration": 90}, {"note": 72, "velocity": 90, "duration": 182}, {"note": 63, "velocity": 89, "duration": 105}, {"note": 68, "velocity": 89, "duration": 155}, {"note": 0, "velocity": 0, "duration": 85}, {"note": 68, "velocity": 86, "duration": 174}, {"note": 0, "velocity": 0, "duration": 66}, {"note": 68, "velocity": 88, "duration": 167}, {"note": 0, "velocity": 0, "duration": 73}, {"note": 70, "velocity": 86, "duration": 198}, {"note": 68, "velocity": 85, "duration": 1232}, {"note": 0, "velocity": 0, "duration": 208}, {"note": 70, "velocity": 89, "duration": 99}, {"note": 72, "velocity": 89, "duration": 333}, {"note": 70, "velocity": 89, "duration": 407}, {"note": 0, "velocity": 0, "duration": 73}, {"note": 70, "velocity": 88, "duration": 120}, {"note": 72, "velocity": 89, "duration": 240}, {"note": 65, "velocity": 89, "duration": 120}, {"note": 75, "velocity": 90, "duration": 430}, {"note": 70, "velocity": 89, "duration": 90}, {"note": 72, "velocity": 90, "duration": 182}, {"note": 63, "velocity": 89, "duration": 105}, {"note": 68, "velocity": 89, "duration": 155}, {"note": 0, "velocity": 0, "duration": 85}, {"note": 68, "velocity": 86, "duration": 174}, {"note": 0, "velocity": 0, "duration": 130}, {"note": 68, "velocity": 88, "duration": 167}, {"note": 0, "velocity": 0, "duration": 98}, {"note": 70, "velocity": 86, "duration": 198}, {"note": 0, "velocity": 0, "duration": 98}, {"note": 68, "velocity": 85, "duration": 1231}]]