[[{"note": 67, "velocity": 90, "duration": 122}, {"note": 70, "velocity": 86, "duration": 75}, {"note": 72, "velocity": 88, "duration": 93}, {"note": 75, "velocity": 94, "duration": 762}, {"note": 0, "velocity": 0, "duration": 78}, {"note": 74, "velocity": 98, "duration": 115}, {"note": 74, "velocity": 98, "duration": 115}, {"note": 74, "velocity": 91, "duration": 203}, {"note": 72, "velocity": 87, "duration": 317}, {"note": 0, "velocity": 0, "duration": 163}, {"note": 72, "velocity": 89, "duration": 63}, {"note": 70, "velocity": 87, "duration": 71}, {"note": 70, "velocity": 83, "duration": 208}, {"note": 67, "velocity": 83, "duration": 661}, {"note": 0, "velocity": 0, "duration": 539}, {"note": 67, "velocity": 89, "duration": 98}, {"note": 70, "velocity": 90, "duration": 75}, {"note": 72, "velocity": 88, "duration": 98}, {"note": 75, "velocity": 90, "duration": 695}, {"note": 0, "velocity": 0, "duration": 145}, {"note": 75, "velocity": 93, "duration": 84}, {"note": 77, "velocity": 89, "duration": 64}, {"note": 79, "velocity": 87, "duration": 189}, {"note": 77, "velocity": 87, "duration": 362}, {"note": 0, "velocity": 0, "duration": 118}, {"note": 75, "velocity": 88, "duration": 104}, {"note": 74, "velocity": 84, "duration": 78}, {"note": 75, "velocity": 89, "duration": 626}, {"note": 0, "velocity": 0, "duration": 814}, {"note": 79, "velocity": 89, "duration": 188}, {"note": 77, "velocity": 85, "duration": 67}, {"note": 77, "velocity": 87, "duration": 327}, {"note": 75, "velocity": 81, "duration": 374}, {"note": 0, "velocity": 0, "duration": 106}, {"note": 74, "velocity": 90, "duration": 86}, {"note": 75, "velocity": 84, "duration": 118}, {"note": 74, "velocity": 88, "duration": 214}, {"note": 72, "velocity": 89, "duration": 468}, {"note": 0, "velocity": 0, "duration": 132}, {"note": 70, "velocity": 90, "duration": 66}, {"note": 70, "velocity": 88, "duration": 265}, {"note": 67, "velocity": 85, "duration": 663}, {"note": 0, "velocity": 0, "duration": 537}, {"note": 67, "velocity": 91, "duration": 97}, {"note": 70, "velocity": 83, "duration": 76}, {"note": 72, "velocity": 83, "duration": 98}, {"note": 75, "velocity": 88, "duration": 361}, {"note": 77, "velocity": 85, "duration": 230}, {"note": 74, "velocity": 88, "duration": 171}, {"note": 0, "velocity": 0, "duration": 69}, {"note": 75, "velocity": 91, "duration": 257}, {"note": 74, "velocity": 87, "duration": 149}, {"note": 72, "velocity": 79, "duration": 794}, {"note": 75, "velocity": 89, "duration": 418}, {"note": 0, "velocity": 0, "duration": 62}, {"note": 77, "velocity": 87, "duration": 387}, {"note": 0, "velocity": 0, "duration": 93}, {"note": 79, "velocity": 87, "duration": 543}, {"note": 84, "velocity": 98, "duration": 196}, {"note": 82, "velocity": 89, "duration": 67}, {"note": 82, "velocity": 88, "duration": 203}, {"note": 79, "velocity": 88, "duration": 524}, {"note": 0, "velocity": 0, "duration": 556}, {"note": 75, "velocity": 93, "duration": 61}, {"note": 75, "velocity": 89, "duration": 89}, {"note": 74, "velocity": 92, "duration": 61}, {"note": 74, "velocity": 94, "duration": 84}, {"note": 72, "velocity": 89, "duration": 64}, {"note": 72, "velocity": 91, "duration": 205}, {"note": 70, "velocity": 83, "duration": 69}, {"note": 70, "velocity": 89, "duration": 539}, {"note": 0, "velocity": 0, "duration": 541}, {"note": 75, "velocity": 91, "duration": 196}, {"note": 77, "velocity": 86, "duration": 172}, {"note": 0, "velocity": 0, "duration": 68}, {"note": 79, "velocity": 90, "duration": 185}, {"note": 84, "velocity": 91, "duration": 178}, {"note": 0, "velocity": 0, "duration": 62}, {"note": 82, "velocity": 89, "duration": 187}, {"note": 77, "velocity": 89, "duration": 90}, {"note": 79, "velocity": 89, "duration": 1061}, {"note": 0, "velocity": 0, "duration": 1459}, {"note": 84, "velocity": 93, "duration": 193}, {"note": 82, "velocity": 88, "duration": 240}, {"note": 82, "velocity": 88, "duration": 214}, {"note": 79, "velocity": 88, "duration": 199}, {"note": 79, "velocity": 89, "duration": 205}, {"note": 77, "velocity": 85, "duration": 64}, {"note": 77, "velocity": 86, "duration": 315}, {"note": 75, "velocity": 85, "duration": 583}, {"note": 72, "velocity": 81, "duration": 72}, {"note": 72, "velocity": 88, "duration": 230}, {"note": 70, "velocity": 87, "duration": 717}, {"note": 0, "velocity": 0, "duration": 363}, {"note": 70, "velocity": 93, "duration": 73}, {"note": 84, "velocity": 88, "duration": 177}, {"note": 0, "velocity": 0, "duration": 63}, {"note": 82, "velocity": 85, "duration": 160}, {"note": 0, "velocity": 0, "duration": 80}, {"note": 82, "velocity": 89, "duration": 159}, {"note": 0, "velocity": 0, "duration": 81}, {"note": 79, "velocity": 89, "duration": 118}, {"note": 0, "velocity": 0, "duration": 122}, {"note": 79, "velocity": 89, "duration": 174}, {"note": 0, "velocity": 0, "duration": 66}, {"note": 77, "velocity": 82, "duration": 75}, {"note": 79, "velocity": 87, "duration": 1089}, {"note": 0, "velocity": 0, "duration": 1431}, {"note": 84, "velocity": 93, "duration": 193}, {"note": 82, "velocity": 88, "duration": 240}, {"note": 82, "velocity": 88, "duration": 214}, {"note": 79, "velocity": 88, "duration": 199}, {"note": 79, "velocity": 89, "duration": 205}, {"note": 77, "velocity": 85, "duration": 64}, {"note": 77, "velocity": 86, "duration": 315}, {"note": 75, "velocity": 85, "duration": 583}, {"note": 0, "velocity": 0, "duration": 137}, {"note": 72, "velocity": 88, "duration": 230}, {"note": 70, "velocity": 87, "duration": 717}, {"note": 0, "velocity": 0, "duration": 483}, {"note": 84, "velocity": 88, "duration": 177}, {"note": 0, "velocity": 0, "duration": 63}, {"note": 82, "velocity": 85, "duration": 160}, {"note": 0, "velocity": 0, "duration": 80}, {"note": 82, "velocity": 89, "duration": 159}, {"note": 0, "velocity": 0, "duration": 81}, {"note": 79, "velocity": 89, "duration": 118}, {"note": 0, "velocity": 0, "duration": 122}, {"note": 79, "velocity": 89, "duration": 174}, {"note": 0, "velocity": 0, "duration": 66}, {"note": 77, "velocity": 82, "duration": 75}, {"note": 79, "velocity": 87, "duration": 1089}, {"note": 0, "velocity": 0, "duration": 16791}, {"note": 67, "velocity": 90, "duration": 122}, {"note": 70, "velocity": 86, "duration": 75}, {"note": 72, "velocity": 88, "duration": 93}, {"note": 75, "velocity": 94, "duration": 762}, {"note": 0, "velocity": 0, "duration": 78}, {"note": 74, "velocity": 98, "duration": 115}, {"note": 74, "velocity": 98, "duration": 115}, {"note": 74, "velocity": 91, "duration": 203}, {"note": 72, "velocity": 87, "duration": 317}, {"note": 0, "velocity": 0, "duration": 163}, {"note": 72, "velocity": 89, "duration": 63}, {"note": 70, "velocity": 87, "duration": 71}, {"note": 70, "velocity": 83, "duration": 208}, {"note": 67, "velocity": 83, "duration": 661}, {"note": 0, "velocity": 0, "duration": 539}, {"note": 67, "velocity": 89, "duration": 98}, {"note": 70, "velocity": 90, "duration": 75}, {"note": 72, "velocity": 88, "duration": 98}, {"note": 75, "velocity": 90, "duration": 695}, {"note": 0, "velocity": 0, "duration": 145}, {"note": 75, "velocity": 93, "duration": 84}, {"note": 77, "velocity": 89, "duration": 64}, {"note": 79, "velocity": 87, "duration": 189}, {"note": 77, "velocity": 87, "duration": 362}, {"note": 0, "velocity": 0, "duration": 118}, {"note": 75, "velocity": 88, "duration": 104}, {"note": 74, "velocity": 84, "duration": 78}, {"note": 75, "velocity": 89, "duration": 626}, {"note": 0, "velocity": 0, "duration": 814}, {"note": 79, "velocity": 89, "duration": 188}, {"note": 77, "velocity": 85, "duration": 67}, {"note": 77, "velocity": 87, "duration": 327}, {"note": 75, "velocity": 81, "duration": 374}, {"note": 0, "velocity": 0, "duration": 106}, {"note": 74, "velocity": 90, "duration": 86}, {"note": 75, "velocity": 84, "duration": 118}, {"note": 74, "velocity": 88, "duration": 214}, {"note": 72, "velocity": 89, "duration": 468}, {"note": 0, "velocity": 0, "duration": 132}, {"note": 70, "velocity": 90, "duration": 66}, {"note": 70, "velocity": 88, "duration": 265}, {"note": 67, "velocity": 85, "duration": 663}, {"note": 0, "velocity": 0, "duration": 537}, {"note": 67, "velocity": 91, "duration": 97}, {"note": 70, "velocity": 83, "duration": 76}, {"note": 72, "velocity": 83, "duration": 98}, {"note": 75, "velocity": 88, "duration": 361}, {"note": 77, "velocity": 85, "duration": 230}, {"note": 74, "velocity": 88, "duration": 171}, {"note": 0, "velocity": 0, "duration": 69}, {"note": 75, "velocity": 91, "duration": 257}, {"note": 74, "velocity": 87, "duration": 149}, {"note": 72, "velocity": 79, "duration": 794}, {"note": 75, "velocity": 89, "duration": 418}, {"note": 0, "velocity": 0, "duration": 62}, {"note": 77, "velocity": 87, "duration": 387}, {"note": 0, "velocity": 0, "duration": 93}, {"note": 79, "velocity": 87, "duration": 543}, {"note": 84, "velocity": 98, "duration": 196}, {"note": 82, "velocity": 89, "duration": 67}, {"note": 82, "velocity": 88, "duration": 203}, {"note": 79, "velocity": 88, "duration": 524}, {"note": 0, "velocity": 0, "duration": 556}, {"note": 75, "velocity": 93, "duration": 61}, {"note": 75, "velocity": 89, "duration": 89}, {"note": 74, "velocity": 92, "duration": 61}, {"note": 74, "velocity": 94, "duration": 84}, {"note": 72, "velocity": 89, "duration": 64}, {"note": 72, "velocity": 91, "duration": 205}, {"note": 70, "velocity": 83, "duration": 69}, {"note": 70, "velocity": 89, "duration": 539}, {"note": 0, "velocity": 0, "duration": 541}, {"note": 75, "velocity": 91, "duration": 196}, {"note": 77, "velocity": 86, "duration": 172}, {"note": 0, "velocity": 0, "duration": 68}, {"note": 79, "velocity": 90, "duration": 185}, {"note": 84, "velocity": 91, "duration": 178}, {"note": 0, "velocity": 0, "duration": 62}, {"note": 82, "velocity": 89, "duration": 187}, {"note": 77, "velocity": 89, "duration": 90}, {"note": 79, "velocity": 89, "duration": 1061}, {"note": 0, "velocity": 0, "duration": 1459}, {"note": 84, "velocity": 93, "duration": 193}, {"note": 82, "velocity": 88, "duration": 240}, {"note": 82, "velocity": 88, "duration": 214}, {"note": 79, "velocity": 88, "duration": 199}, {"note": 79, "velocity": 89, "duration": 205}, {"note": 77, "velocity": 85, "duration": 64}, {"note": 77, "velocity": 86, "duration": 315}, {"note": 75, "velocity": 85, "duration": 583}, {"note": 72, "velocity": 81, "duration": 72}, {"note": 72, "velocity": 88, "duration": 230}, {"note": 70, "velocity": 87, "duration": 717}, {"note": 0, "velocity": 0, "duration": 363}, {"note": 70, "velocity": 93, "duration": 73}, {"note": 84, "velocity": 88, "duration": 177}, {"note": 0, "velocity": 0, "duration": 63}, {"note": 82, "velocity": 85, "duration": 160}, {"note": 0, "velocity": 0, "duration": 80}, {"note": 82, "velocity": 89, "duration": 159}, {"note": 0, "velocity": 0, "duration": 81}, {"note": 79, "velocity": 89, "duration": 118}, {"note": 0, "velocity": 0, "duration": 122}, {"note": 79, "velocity": 89, "duration": 174}, {"note": 0, "velocity": 0, "duration": 66}, {"note": 77, "velocity": 82, "duration": 75}, {"note": 79, "velocity": 87, "duration": 1089}, {"note": 0, "velocity": 0, "duration": 1431}, {"note": 84, "velocity": 93, "duration": 193}, {"note": 82, "velocity": 88, "duration": 240}, {"note": 82, "velocity": 88, "duration": 214}, {"note": 79, "velocity": 88, "duration": 199}, {"note": 79, "velocity": 89, "duration": 205}, {"note": 77, "velocity": 85, "duration": 64}, {"note": 77, "velocity": 86, "duration": 315}, {"note": 75, "velocity": 85, "duration": 583}, {"note": 0, "velocity": 0, "duration": 137}, {"note": 72, "velocity": 88, "duration": 230}, {"note": 70, "velocity": 87, "duration": 717}, {"note": 0, "velocity": 0, "duration": 483}, {"note": 84, "velocity": 88, "duration": 177}, {"note": 0, "velocity": 0, "duration": 63}, {"note": 82, "velocity": 85, "duration": 160}, {"note": 0, "velocity": 0, "duration": 80}, {"note": 82, "velocity": 89, "duration": 159}, {"note": 0, "velocity": 0, "duration": 81}, {"note": 79, "velocity": 89, "duration": 118}, {"note": 0, "velocity": 0, "duration": 122}, {"note": 79, "velocity": 89, "duration": 174}, {"note": 0, "velocity": 0, "duration": 66}, {"note": 77, "velocity": 82, "duration": 75}, {"note": 79, "velocity": 87, "duration": 1089}, {"note": 0, "velocity": 0, "duration": 1431}, {"note": 84, "velocity": 93, "duration": 193}, {"note": 82, "velocity": 88, "duration": 240}, {"note": 82, "velocity": 88, "duration": 214}, {"note": 79, "velocity": 88, "duration": 199}, {"note": 79, "velocity": 89, "duration": 205}, {"note": 77, "velocity": 85, "duration": 64}, {"note": 77, "velocity": 86, "duration": 315}, {"note": 75, "velocity": 85, "duration": 583}, {"note": 70, "velocity": 81, "duration": 72}, {"note": 84, "velocity": 88, "duration": 230}, {"note": 82, "velocity": 87, "duration": 717}, {"note": 0, "velocity": 0, "duration": 363}, {"note": 70, "velocity": 93, "duration": 73}, {"note": 84, "velocity": 88, "duration": 177}, {"note": 0, "velocity": 0, "duration": 63}, {"note": 82, "velocity": 85, "duration": 160}, {"note": 0, "velocity": 0, "duration": 80}, {"note": 82, "velocity": 89, "duration": 159}, {"note": 0, "velocity": 0, "duration": 81}, {"note": 79, "velocity": 89, "duration": 118}, {"note": 0, "velocity": 0, "duration": 122}, {"note": 79, "velocity": 89, "duration": 174}, {"note": 0, "velocity": 0, "duration": 66}, {"note": 77, "velocity": 82, "duration": 75}, {"note": 79, "velocity": 87, "duration": 1089}, {"note": 0, "velocity": 0, "duration": 1431}, {"note": 84, "velocity": 93, "duration": 193}, {"note": 82, "velocity": 88, "duration": 240}, {"note": 82, "velocity": 88, "duration": 214}, {"note": 79, "velocity": 88, "duration": 199}, {"note": 79, "velocity": 89, "duration": 205}, {"note": 77, "velocity": 85, "duration": 64}, {"note": 77, "velocity": 86, "duration": 315}, {"note": 75, "velocity": 85, "duration": 583}, {"note": 0, "velocity": 0, "duration": 137}, {"note": 72, "velocity": 88, "duration": 230}, {"note": 70, "velocity": 87, "duration": 717}, {"note": 0, "velocity": 0, "duration": 483}, {"note": 84, "velocity": 88, "duration": 177}, {"note": 0, "velocity": 0, "duration": 63}, {"note": 82, "velocity": 85, "duration": 160}, {"note": 0, "velocity": 0, "duration": 80}, {"note": 82, "velocity": 89, "duration": 159}, {"note": 0, "velocity": 0, "duration": 81}, {"note": 79, "velocity": 89, "duration": 118}, {"note": 0, "velocity": 0, "duration": 122}, {"note": 79, "velocity": 89, "duration": 174}, {"note": 0, "velocity": 0, "duration": 66}, {"note": 77, "velocity": 82, "duration": 75}, {"note": 79, "velocity": 87, "duration": 1089}]]