[[{"note": 71, "velocity": 88, "duration": 103}, {"note": 70, "velocity": 89, "duration": 72}, {"note": 71, "velocity": 100, "duration": 74}, {"note": 63, "velocity": 90, "duration": 723}, {"note": 0, "velocity": 0, "duration": 237}, {"note": 63, "velocity": 88, "duration": 63}, {"note": 63, "velocity": 95, "duration": 83}, {"note": 68, "velocity": 74, "duration": 98}, {"note": 70, "velocity": 85, "duration": 74}, {"note": 71, "velocity": 84, "duration": 122}, {"note": 70, "velocity": 85, "duration": 132}, {"note": 68, "velocity": 84, "duration": 82}, {"note": 70, "velocity": 85, "duration": 126}, {"note": 63, "velocity": 84, "duration": 573}, {"note": 0, "velocity": 0, "duration": 387}, {"note": 63, "velocity": 91, "duration": 73}, {"note": 63, "velocity": 85, "duration": 89}, {"note": 68, "velocity": 85, "duration": 61}, {"note": 70, "velocity": 85, "duration": 80}, {"note": 71, "velocity": 85, "duration": 66}, {"note": 68, "velocity": 85, "duration": 74}, {"note": 66, "velocity": 84, "duration": 68}, {"note": 68, "velocity": 88, "duration": 58}, {"note": 0, "velocity": 0, "duration": 62}, {"note": 59, "velocity": 88, "duration": 556}, {"note": 0, "velocity": 0, "duration": 404}, {"note": 58, "velocity": 91, "duration": 74}, {"note": 59, "velocity": 91, "duration": 109}, {"note": 68, "velocity": 88, "duration": 168}, {"note": 0, "velocity": 0, "duration": 72}, {"note": 68, "velocity": 86, "duration": 71}, {"note": 68, "velocity": 87, "duration": 112}, {"note": 0, "velocity": 0, "duration": 128}, {"note": 66, "velocity": 80, "duration": 71}, {"note": 66, "velocity": 85, "duration": 69}, {"note": 66, "velocity": 86, "duration": 196}, {"note": 63, "velocity": 91, "duration": 167}, {"note": 0, "velocity": 0, "duration": 73}, {"note": 61, "velocity": 89, "duration": 600}, {"note": 0, "velocity": 0, "duration": 360}, {"note": 71, "velocity": 88, "duration": 103}, {"note": 70, "velocity": 89, "duration": 72}, {"note": 71, "velocity": 100, "duration": 74}, {"note": 63, "velocity": 90, "duration": 723}, {"note": 0, "velocity": 0, "duration": 237}, {"note": 63, "velocity": 88, "duration": 63}, {"note": 63, "velocity": 95, "duration": 83}, {"note": 68, "velocity": 74, "duration": 98}, {"note": 70, "velocity": 85, "duration": 74}, {"note": 71, "velocity": 84, "duration": 122}, {"note": 71, "velocity": 76, "duration": 2}, {"note": 73, "velocity": 80, "duration": 156}, {"note": 0, "velocity": 0, "duration": 84}, {"note": 73, "velocity": 89, "duration": 71}, {"note": 73, "velocity": 91, "duration": 68}, {"note": 73, "velocity": 95, "duration": 185}, {"note": 73, "velocity": 85, "duration": 82}, {"note": 71, "velocity": 87, "duration": 205}, {"note": 70, "velocity": 90, "duration": 431}, {"note": 0, "velocity": 0, "duration": 289}, {"note": 59, "velocity": 88, "duration": 104}, {"note": 66, "velocity": 85, "duration": 167}, {"note": 0, "velocity": 0, "duration": 73}, {"note": 68, "velocity": 80, "duration": 452}, {"note": 71, "velocity": 86, "duration": 52}, {"note": 0, "velocity": 0, "duration": 68}, {"note": 71, "velocity": 84, "duration": 71}, {"note": 70, "velocity": 91, "duration": 208}, {"note": 68, "velocity": 86, "duration": 196}, {"note": 70, "velocity": 86, "duration": 180}, {"note": 68, "velocity": 86, "duration": 107}, {"note": 66, "velocity": 85, "duration": 348}, {"note": 68, "velocity": 85, "duration": 1199}, {"note": 0, "velocity": 0, "duration": 241}, {"note": 73, "velocity": 101, "duration": 76}, {"note": 75, "velocity": 95, "duration": 69}, {"note": 76, "velocity": 88, "duration": 233}, {"note": 75, "velocity": 87, "duration": 71}, {"note": 76, "velocity": 88, "duration": 212}, {"note": 68, "velocity": 89, "duration": 258}, {"note": 0, "velocity": 0, "duration": 102}, {"note": 76, "velocity": 90, "duration": 131}, {"note": 0, "velocity": 0, "duration": 109}, {"note": 76, "velocity": 88, "duration": 66}, {"note": 76, "velocity": 85, "duration": 70}, {"note": 76, "velocity": 89, "duration": 118}, {"note": 68, "velocity": 86, "duration": 120}, {"note": 73, "velocity": 95, "duration": 85}, {"note": 76, "velocity": 93, "duration": 89}, {"note": 75, "velocity": 90, "duration": 120}, {"note": 75, "velocity": 90, "duration": 120}, {"note": 75, "velocity": 86, "duration": 62}, {"note": 73, "velocity": 86, "duration": 71}, {"note": 71, "velocity": 90, "duration": 240}, {"note": 73, "velocity": 91, "duration": 78}, {"note": 75, "velocity": 91, "duration": 769}, {"note": 0, "velocity": 0, "duration": 71}, {"note": 73, "velocity": 101, "duration": 57}, {"note": 0, "velocity": 0, "duration": 63}, {"note": 75, "velocity": 90, "duration": 74}, {"note": 76, "velocity": 87, "duration": 210}, {"note": 75, "velocity": 90, "duration": 59}, {"note": 0, "velocity": 0, "duration": 61}, {"note": 76, "velocity": 89, "duration": 181}, {"note": 68, "velocity": 88, "duration": 251}, {"note": 0, "velocity": 0, "duration": 109}, {"note": 76, "velocity": 93, "duration": 168}, {"note": 0, "velocity": 0, "duration": 72}, {"note": 76, "velocity": 88, "duration": 60}, {"note": 76, "velocity": 86, "duration": 65}, {"note": 80, "velocity": 91, "duration": 284}, {"note": 0, "velocity": 0, "duration": 76}, {"note": 80, "velocity": 86, "duration": 71}, {"note": 78, "velocity": 86, "duration": 213}, {"note": 75, "velocity": 91, "duration": 1127}, {"note": 0, "velocity": 0, "duration": 313}, {"note": 73, "velocity": 101, "duration": 76}, {"note": 75, "velocity": 95, "duration": 69}, {"note": 76, "velocity": 88, "duration": 233}, {"note": 75, "velocity": 87, "duration": 71}, {"note": 76, "velocity": 88, "duration": 212}, {"note": 68, "velocity": 89, "duration": 258}, {"note": 0, "velocity": 0, "duration": 102}, {"note": 76, "velocity": 90, "duration": 131}, {"note": 0, "velocity": 0, "duration": 109}, {"note": 76, "velocity": 88, "duration": 66}, {"note": 76, "velocity": 85, "duration": 70}, {"note": 76, "velocity": 89, "duration": 118}, {"note": 68, "velocity": 86, "duration": 120}, {"note": 73, "velocity": 95, "duration": 85}, {"note": 76, "velocity": 93, "duration": 89}, {"note": 75, "velocity": 90, "duration": 120}, {"note": 0, "velocity": 0, "duration": 120}, {"note": 75, "velocity": 86, "duration": 62}, {"note": 73, "velocity": 86, "duration": 71}, {"note": 0, "velocity": 0, "duration": 169}, {"note": 71, "velocity": 90, "duration": 360}, {"note": 73, "velocity": 98, "duration": 181}, {"note": 73, "velocity": 90, "duration": 82}, {"note": 71, "velocity": 86, "duration": 190}, {"note": 70, "velocity": 90, "duration": 265}, {"note": 0, "velocity": 0, "duration": 95}, {"note": 71, "velocity": 87, "duration": 194}, {"note": 71, "velocity": 85, "duration": 87}, {"note": 70, "velocity": 88, "duration": 211}, {"note": 68, "velocity": 88, "duration": 409}, {"note": 0, "velocity": 0, "duration": 71}, {"note": 70, "velocity": 78, "duration": 71}, {"note": 70, "velocity": 82, "duration": 60}, {"note": 70, "velocity": 85, "duration": 70}, {"note": 70, "velocity": 89, "duration": 185}, {"note": 68, "velocity": 88, "duration": 95}, {"note": 66, "velocity": 85, "duration": 235}, {"note": 68, "velocity": 89, "duration": 1765}, {"note": 0, "velocity": 0, "duration": 15395}, {"note": 71, "velocity": 88, "duration": 103}, {"note": 70, "velocity": 89, "duration": 72}, {"note": 71, "velocity": 100, "duration": 74}, {"note": 63, "velocity": 90, "duration": 723}, {"note": 0, "velocity": 0, "duration": 237}, {"note": 63, "velocity": 88, "duration": 63}, {"note": 63, "velocity": 95, "duration": 83}, {"note": 68, "velocity": 74, "duration": 98}, {"note": 70, "velocity": 85, "duration": 74}, {"note": 71, "velocity": 84, "duration": 122}, {"note": 70, "velocity": 85, "duration": 132}, {"note": 68, "velocity": 84, "duration": 82}, {"note": 70, "velocity": 85, "duration": 126}, {"note": 63, "velocity": 84, "duration": 573}, {"note": 0, "velocity": 0, "duration": 387}, {"note": 63, "velocity": 91, "duration": 73}, {"note": 63, "velocity": 85, "duration": 89}, {"note": 68, "velocity": 85, "duration": 61}, {"note": 70, "velocity": 85, "duration": 80}, {"note": 71, "velocity": 85, "duration": 66}, {"note": 68, "velocity": 85, "duration": 74}, {"note": 66, "velocity": 84, "duration": 68}, {"note": 68, "velocity": 88, "duration": 58}, {"note": 0, "velocity": 0, "duration": 62}, {"note": 59, "velocity": 88, "duration": 556}, {"note": 0, "velocity": 0, "duration": 404}, {"note": 58, "velocity": 91, "duration": 74}, {"note": 59, "velocity": 91, "duration": 109}, {"note": 68, "velocity": 88, "duration": 168}, {"note": 0, "velocity": 0, "duration": 72}, {"note": 68, "velocity": 86, "duration": 71}, {"note": 68, "velocity": 87, "duration": 112}, {"note": 66, "velocity": 80, "duration": 71}, {"note": 0, "velocity": 0, "duration": 168}, {"note": 66, "velocity": 85, "duration": 69}, {"note": 66, "velocity": 86, "duration": 196}, {"note": 71, "velocity": 91, "duration": 167}, {"note": 73, "velocity": 89, "duration": 600}, {"note": 0, "velocity": 0, "duration": 445}, {"note": 71, "velocity": 88, "duration": 103}, {"note": 70, "velocity": 89, "duration": 72}, {"note": 71, "velocity": 100, "duration": 74}, {"note": 63, "velocity": 90, "duration": 723}, {"note": 0, "velocity": 0, "duration": 237}, {"note": 63, "velocity": 88, "duration": 63}, {"note": 63, "velocity": 95, "duration": 83}, {"note": 68, "velocity": 74, "duration": 98}, {"note": 70, "velocity": 85, "duration": 74}, {"note": 71, "velocity": 84, "duration": 122}, {"note": 71, "velocity": 76, "duration": 2}, {"note": 73, "velocity": 80, "duration": 156}, {"note": 0, "velocity": 0, "duration": 84}, {"note": 73, "velocity": 89, "duration": 71}, {"note": 73, "velocity": 91, "duration": 68}, {"note": 73, "velocity": 95, "duration": 185}, {"note": 73, "velocity": 85, "duration": 82}, {"note": 71, "velocity": 87, "duration": 205}, {"note": 70, "velocity": 90, "duration": 431}, {"note": 0, "velocity": 0, "duration": 289}, {"note": 59, "velocity": 88, "duration": 104}, {"note": 66, "velocity": 85, "duration": 167}, {"note": 0, "velocity": 0, "duration": 73}, {"note": 68, "velocity": 80, "duration": 452}, {"note": 71, "velocity": 86, "duration": 52}, {"note": 0, "velocity": 0, "duration": 68}, {"note": 71, "velocity": 84, "duration": 71}, {"note": 70, "velocity": 91, "duration": 208}, {"note": 68, "velocity": 86, "duration": 196}, {"note": 70, "velocity": 86, "duration": 180}, {"note": 68, "velocity": 86, "duration": 107}, {"note": 66, "velocity": 85, "duration": 348}, {"note": 68, "velocity": 85, "duration": 1199}, {"note": 0, "velocity": 0, "duration": 241}, {"note": 73, "velocity": 101, "duration": 76}, {"note": 75, "velocity": 95, "duration": 69}, {"note": 76, "velocity": 88, "duration": 233}, {"note": 75, "velocity": 87, "duration": 71}, {"note": 76, "velocity": 88, "duration": 212}, {"note": 68, "velocity": 89, "duration": 258}, {"note": 0, "velocity": 0, "duration": 102}, {"note": 76, "velocity": 90, "duration": 131}, {"note": 0, "velocity": 0, "duration": 109}, {"note": 76, "velocity": 88, "duration": 66}, {"note": 76, "velocity": 85, "duration": 70}, {"note": 76, "velocity": 89, "duration": 118}, {"note": 68, "velocity": 86, "duration": 120}, {"note": 73, "velocity": 95, "duration": 85}, {"note": 76, "velocity": 93, "duration": 89}, {"note": 75, "velocity": 90, "duration": 120}, {"note": 75, "velocity": 90, "duration": 120}, {"note": 75, "velocity": 86, "duration": 62}, {"note": 73, "velocity": 86, "duration": 71}, {"note": 71, "velocity": 90, "duration": 240}, {"note": 73, "velocity": 91, "duration": 78}, {"note": 75, "velocity": 91, "duration": 769}, {"note": 0, "velocity": 0, "duration": 71}, {"note": 73, "velocity": 101, "duration": 57}, {"note": 0, "velocity": 0, "duration": 63}, {"note": 75, "velocity": 90, "duration": 74}, {"note": 76, "velocity": 87, "duration": 210}, {"note": 75, "velocity": 90, "duration": 59}, {"note": 0, "velocity": 0, "duration": 61}, {"note": 76, "velocity": 89, "duration": 181}, {"note": 68, "velocity": 88, "duration": 251}, {"note": 0, "velocity": 0, "duration": 109}, {"note": 76, "velocity": 93, "duration": 168}, {"note": 0, "velocity": 0, "duration": 72}, {"note": 76, "velocity": 88, "duration": 60}, {"note": 76, "velocity": 86, "duration": 65}, {"note": 80, "velocity": 91, "duration": 284}, {"note": 0, "velocity": 0, "duration": 76}, {"note": 80, "velocity": 86, "duration": 71}, {"note": 78, "velocity": 86, "duration": 213}, {"note": 75, "velocity": 91, "duration": 1127}, {"note": 0, "velocity": 0, "duration": 313}, {"note": 73, "velocity": 101, "duration": 76}, {"note": 75, "velocity": 95, "duration": 69}, {"note": 76, "velocity": 88, "duration": 233}, {"note": 75, "velocity": 87, "duration": 71}, {"note": 76, "velocity": 88, "duration": 212}, {"note": 68, "velocity": 89, "duration": 258}, {"note": 0, "velocity": 0, "duration": 102}, {"note": 76, "velocity": 90, "duration": 131}, {"note": 0, "velocity": 0, "duration": 109}, {"note": 76, "velocity": 88, "duration": 66}, {"note": 76, "velocity": 85, "duration": 70}, {"note": 76, "velocity": 89, "duration": 118}, {"note": 68, "velocity": 86, "duration": 120}, {"note": 73, "velocity": 95, "duration": 85}, {"note": 76, "velocity": 93, "duration": 89}, {"note": 75, "velocity": 90, "duration": 120}, {"note": 0, "velocity": 0, "duration": 120}, {"note": 75, "velocity": 86, "duration": 62}, {"note": 73, "velocity": 86, "duration": 71}, {"note": 0, "velocity": 0, "duration": 169}, {"note": 71, "velocity": 90, "duration": 360}, {"note": 73, "velocity": 98, "duration": 181}, {"note": 73, "velocity": 90, "duration": 82}, {"note": 71, "velocity": 86, "duration": 190}, {"note": 70, "velocity": 90, "duration": 265}, {"note": 0, "velocity": 0, "duration": 95}, {"note": 71, "velocity": 87, "duration": 194}, {"note": 71, "velocity": 85, "duration": 87}, {"note": 70, "velocity": 88, "duration": 211}, {"note": 68, "velocity": 88, "duration": 409}, {"note": 0, "velocity": 0, "duration": 71}, {"note": 70, "velocity": 78, "duration": 71}, {"note": 70, "velocity": 82, "duration": 60}, {"note": 70, "velocity": 85, "duration": 70}, {"note": 70, "velocity": 89, "duration": 185}, {"note": 68, "velocity": 88, "duration": 95}, {"note": 66, "velocity": 85, "duration": 235}, {"note": 68, "velocity": 89, "duration": 840}, {"note": 0, "velocity": 0, "duration": 720}, {"note": 74, "velocity": 101, "duration": 76}, {"note": 76, "velocity": 95, "duration": 69}, {"note": 77, "velocity": 88, "duration": 233}, {"note": 76, "velocity": 87, "duration": 71}, {"note": 77, "velocity": 88, "duration": 212}, {"note": 69, "velocity": 89, "duration": 258}, {"note": 0, "velocity": 0, "duration": 102}, {"note": 77, "velocity": 90, "duration": 131}, {"note": 0, "velocity": 0, "duration": 109}, {"note": 77, "velocity": 88, "duration": 66}, {"note": 77, "velocity": 85, "duration": 70}, {"note": 77, "velocity": 89, "duration": 118}, {"note": 69, "velocity": 86, "duration": 120}, {"note": 74, "velocity": 95, "duration": 85}, {"note": 77, "velocity": 93, "duration": 89}, {"note": 76, "velocity": 90, "duration": 120}, {"note": 76, "velocity": 90, "duration": 120}, {"note": 76, "velocity": 86, "duration": 62}, {"note": 74, "velocity": 86, "duration": 71}, {"note": 72, "velocity": 90, "duration": 240}, {"note": 74, "velocity": 91, "duration": 78}, {"note": 76, "velocity": 91, "duration": 769}, {"note": 0, "velocity": 0, "duration": 71}, {"note": 74, "velocity": 101, "duration": 57}, {"note": 0, "velocity": 0, "duration": 63}, {"note": 76, "velocity": 90, "duration": 74}, {"note": 77, "velocity": 87, "duration": 210}, {"note": 76, "velocity": 90, "duration": 59}, {"note": 0, "velocity": 0, "duration": 61}, {"note": 77, "velocity": 89, "duration": 181}, {"note": 69, "velocity": 88, "duration": 251}, {"note": 0, "velocity": 0, "duration": 109}, {"note": 77, "velocity": 93, "duration": 168}, {"note": 0, "velocity": 0, "duration": 72}, {"note": 77, "velocity": 88, "duration": 60}, {"note": 77, "velocity": 86, "duration": 65}, {"note": 81, "velocity": 91, "duration": 284}, {"note": 0, "velocity": 0, "duration": 76}, {"note": 81, "velocity": 86, "duration": 71}, {"note": 79, "velocity": 86, "duration": 213}, {"note": 76, "velocity": 91, "duration": 1127}, {"note": 0, "velocity": 0, "duration": 313}, {"note": 74, "velocity": 101, "duration": 76}, {"note": 76, "velocity": 95, "duration": 69}, {"note": 77, "velocity": 88, "duration": 233}, {"note": 76, "velocity": 87, "duration": 71}, {"note": 77, "velocity": 88, "duration": 212}, {"note": 69, "velocity": 89, "duration": 258}, {"note": 0, "velocity": 0, "duration": 102}, {"note": 77, "velocity": 90, "duration": 131}, {"note": 0, "velocity": 0, "duration": 109}, {"note": 77, "velocity": 88, "duration": 66}, {"note": 77, "velocity": 85, "duration": 70}, {"note": 77, "velocity": 89, "duration": 118}, {"note": 69, "velocity": 86, "duration": 120}, {"note": 74, "velocity": 95, "duration": 85}, {"note": 77, "velocity": 93, "duration": 89}, {"note": 76, "velocity": 90, "duration": 120}, {"note": 0, "velocity": 0, "duration": 120}, {"note": 76, "velocity": 86, "duration": 62}, {"note": 74, "velocity": 86, "duration": 71}, {"note": 0, "velocity": 0, "duration": 169}, {"note": 72, "velocity": 90, "duration": 360}, {"note": 74, "velocity": 98, "duration": 181}, {"note": 74, "velocity": 90, "duration": 82}, {"note": 72, "velocity": 86, "duration": 190}, {"note": 71, "velocity": 90, "duration": 265}, {"note": 0, "velocity": 0, "duration": 95}, {"note": 72, "velocity": 87, "duration": 194}, {"note": 72, "velocity": 85, "duration": 87}, {"note": 71, "velocity": 88, "duration": 211}, {"note": 69, "velocity": 88, "duration": 409}, {"note": 0, "velocity": 0, "duration": 71}, {"note": 71, "velocity": 78, "duration": 71}, {"note": 71, "velocity": 82, "duration": 60}, {"note": 71, "velocity": 85, "duration": 70}, {"note": 71, "velocity": 89, "duration": 185}, {"note": 69, "velocity": 88, "duration": 95}, {"note": 67, "velocity": 85, "duration": 235}, {"note": 69, "velocity": 89, "duration": 1440}, {"note": 0, "velocity": 0, "duration": 134}, {"note": 67, "velocity": 84, "duration": 96}, {"note": 69, "velocity": 83, "duration": 105}, {"note": 74, "velocity": 90, "duration": 255}, {"note": 74, "velocity": 80, "duration": 115}, {"note": 72, "velocity": 83, "duration": 224}, {"note": 71, "velocity": 80, "duration": 395}, {"note": 71, "velocity": 82, "duration": 107}, {"note": 71, "velocity": 82, "duration": 215}, {"note": 71, "velocity": 80, "duration": 115}, {"note": 69, "velocity": 82, "duration": 240}, {"note": 67, "velocity": 79, "duration": 178}, {"note": 0, "velocity": 0, "duration": 62}, {"note": 69, "velocity": 84, "duration": 1080}]]