[[{"note": 58, "velocity": 86, "duration": 150}, {"note": 65, "velocity": 91, "duration": 656}, {"note": 0, "velocity": 0, "duration": 198}, {"note": 65, "velocity": 86, "duration": 131}, {"note": 63, "velocity": 91, "duration": 766}, {"note": 0, "velocity": 0, "duration": 179}, {"note": 65, "velocity": 90, "duration": 225}, {"note": 58, "velocity": 91, "duration": 195}, {"note": 0, "velocity": 0, "duration": 63}, {"note": 61, "velocity": 91, "duration": 196}, {"note": 63, "velocity": 92, "duration": 95}, {"note": 65, "velocity": 91, "duration": 643}, {"note": 0, "velocity": 0, "duration": 658}, {"note": 65, "velocity": 91, "duration": 172}, {"note": 0, "velocity": 0, "duration": 76}, {"note": 65, "velocity": 97, "duration": 210}, {"note": 73, "velocity": 88, "duration": 185}, {"note": 72, "velocity": 91, "duration": 220}, {"note": 70, "velocity": 83, "duration": 120}, {"note": 68, "velocity": 89, "duration": 361}, {"note": 0, "velocity": 0, "duration": 111}, {"note": 65, "velocity": 86, "duration": 145}, {"note": 70, "velocity": 90, "duration": 940}, {"note": 0, "velocity": 0, "duration": 836}, {"note": 58, "velocity": 86, "duration": 150}, {"note": 65, "velocity": 91, "duration": 657}, {"note": 0, "velocity": 0, "duration": 197}, {"note": 65, "velocity": 86, "duration": 132}, {"note": 63, "velocity": 91, "duration": 765}, {"note": 58, "velocity": 89, "duration": 120}, {"note": 65, "velocity": 90, "duration": 225}, {"note": 58, "velocity": 91, "duration": 195}, {"note": 0, "velocity": 0, "duration": 62}, {"note": 61, "velocity": 91, "duration": 196}, {"note": 63, "velocity": 92, "duration": 94}, {"note": 65, "velocity": 91, "duration": 643}, {"note": 0, "velocity": 0, "duration": 657}, {"note": 65, "velocity": 91, "duration": 173}, {"note": 0, "velocity": 0, "duration": 76}, {"note": 65, "velocity": 97, "duration": 210}, {"note": 73, "velocity": 88, "duration": 184}, {"note": 72, "velocity": 91, "duration": 220}, {"note": 70, "velocity": 83, "duration": 120}, {"note": 68, "velocity": 89, "duration": 361}, {"note": 0, "velocity": 0, "duration": 91}, {"note": 65, "velocity": 86, "duration": 145}, {"note": 70, "velocity": 90, "duration": 939}, {"note": 0, "velocity": 0, "duration": 1199}, {"note": 73, "velocity": 94, "duration": 176}, {"note": 0, "velocity": 0, "duration": 72}, {"note": 73, "velocity": 92, "duration": 174}, {"note": 0, "velocity": 0, "duration": 64}, {"note": 73, "velocity": 93, "duration": 151}, {"note": 0, "velocity": 0, "duration": 94}, {"note": 72, "velocity": 92, "duration": 176}, {"note": 0, "velocity": 0, "duration": 64}, {"note": 70, "velocity": 91, "duration": 97}, {"note": 68, "velocity": 85, "duration": 440}, {"note": 65, "velocity": 90, "duration": 136}, {"note": 70, "velocity": 90, "duration": 534}, {"note": 0, "velocity": 0, "duration": 2948}, {"note": 73, "velocity": 92, "duration": 96}, {"note": 75, "velocity": 106, "duration": 165}, {"note": 77, "velocity": 91, "duration": 672}, {"note": 70, "velocity": 93, "duration": 91}, {"note": 77, "velocity": 95, "duration": 164}, {"note": 75, "velocity": 93, "duration": 766}, {"note": 0, "velocity": 0, "duration": 176}, {"note": 70, "velocity": 91, "duration": 78}, {"note": 77, "velocity": 101, "duration": 149}, {"note": 0, "velocity": 0, "duration": 88}, {"note": 77, "velocity": 97, "duration": 111}, {"note": 0, "velocity": 0, "duration": 138}, {"note": 77, "velocity": 95, "duration": 144}, {"note": 0, "velocity": 0, "duration": 85}, {"note": 77, "velocity": 93, "duration": 234}, {"note": 75, "velocity": 91, "duration": 240}, {"note": 77, "velocity": 91, "duration": 168}, {"note": 0, "velocity": 0, "duration": 335}, {"note": 73, "velocity": 99, "duration": 135}, {"note": 75, "velocity": 94, "duration": 84}, {"note": 77, "velocity": 95, "duration": 114}, {"note": 77, "velocity": 94, "duration": 159}, {"note": 0, "velocity": 0, "duration": 68}, {"note": 77, "velocity": 97, "duration": 216}, {"note": 0, "velocity": 0, "duration": 368}, {"note": 75, "velocity": 101, "duration": 100}, {"note": 75, "velocity": 94, "duration": 146}, {"note": 0, "velocity": 0, "duration": 78}, {"note": 75, "velocity": 95, "duration": 251}, {"note": 73, "velocity": 92, "duration": 62}, {"note": 75, "velocity": 97, "duration": 138}, {"note": 73, "velocity": 90, "duration": 62}, {"note": 77, "velocity": 94, "duration": 399}, {"note": 0, "velocity": 0, "duration": 133}, {"note": 77, "velocity": 90, "duration": 129}, {"note": 0, "velocity": 0, "duration": 76}, {"note": 77, "velocity": 94, "duration": 167}, {"note": 77, "velocity": 101, "duration": 159}, {"note": 0, "velocity": 0, "duration": 83}, {"note": 75, "velocity": 97, "duration": 120}, {"note": 75, "velocity": 94, "duration": 266}, {"note": 0, "velocity": 0, "duration": 87}, {"note": 73, "velocity": 85, "duration": 166}, {"note": 77, "velocity": 94, "duration": 568}, {"note": 0, "velocity": 0, "duration": 240}, {"note": 80, "velocity": 92, "duration": 120}, {"note": 77, "velocity": 95, "duration": 256}, {"note": 75, "velocity": 91, "duration": 416}, {"note": 0, "velocity": 0, "duration": 413}, {"note": 77, "velocity": 101, "duration": 159}, {"note": 0, "velocity": 0, "duration": 77}, {"note": 77, "velocity": 96, "duration": 114}, {"note": 0, "velocity": 0, "duration": 119}, {"note": 77, "velocity": 97, "duration": 150}, {"note": 0, "velocity": 0, "duration": 96}, {"note": 77, "velocity": 95, "duration": 100}, {"note": 75, "velocity": 91, "duration": 258}, {"note": 77, "velocity": 92, "duration": 102}, {"note": 0, "velocity": 0, "duration": 960}, {"note": 77, "velocity": 92, "duration": 221}, {"note": 70, "velocity": 96, "duration": 250}, {"note": 80, "velocity": 94, "duration": 258}, {"note": 77, "velocity": 91, "duration": 231}, {"note": 75, "velocity": 94, "duration": 480}, {"note": 73, "velocity": 86, "duration": 125}, {"note": 70, "velocity": 86, "duration": 720}, {"note": 0, "velocity": 0, "duration": 877}, {"note": 68, "velocity": 91, "duration": 137}, {"note": 70, "velocity": 84, "duration": 256}, {"note": 65, "velocity": 91, "duration": 617}, {"note": 0, "velocity": 0, "duration": 3170}, {"note": 58, "velocity": 86, "duration": 150}, {"note": 65, "velocity": 91, "duration": 656}, {"note": 0, "velocity": 0, "duration": 198}, {"note": 65, "velocity": 86, "duration": 131}, {"note": 63, "velocity": 91, "duration": 766}, {"note": 0, "velocity": 0, "duration": 86}, {"note": 58, "velocity": 83, "duration": 120}, {"note": 65, "velocity": 90, "duration": 225}, {"note": 58, "velocity": 91, "duration": 195}, {"note": 0, "velocity": 0, "duration": 63}, {"note": 61, "velocity": 91, "duration": 196}, {"note": 63, "velocity": 92, "duration": 95}, {"note": 65, "velocity": 91, "duration": 643}, {"note": 0, "velocity": 0, "duration": 658}, {"note": 65, "velocity": 91, "duration": 172}, {"note": 0, "velocity": 0, "duration": 76}, {"note": 65, "velocity": 97, "duration": 210}, {"note": 73, "velocity": 88, "duration": 185}, {"note": 72, "velocity": 91, "duration": 220}, {"note": 70, "velocity": 83, "duration": 120}, {"note": 68, "velocity": 89, "duration": 361}, {"note": 0, "velocity": 0, "duration": 111}, {"note": 65, "velocity": 86, "duration": 145}, {"note": 70, "velocity": 90, "duration": 940}, {"note": 0, "velocity": 0, "duration": 836}, {"note": 58, "velocity": 86, "duration": 150}, {"note": 65, "velocity": 91, "duration": 657}, {"note": 0, "velocity": 0, "duration": 197}, {"note": 65, "velocity": 86, "duration": 132}, {"note": 63, "velocity": 91, "duration": 765}, {"note": 58, "velocity": 89, "duration": 120}, {"note": 65, "velocity": 90, "duration": 225}, {"note": 58, "velocity": 91, "duration": 195}, {"note": 0, "velocity": 0, "duration": 62}, {"note": 61, "velocity": 91, "duration": 196}, {"note": 63, "velocity": 92, "duration": 94}, {"note": 65, "velocity": 91, "duration": 643}, {"note": 0, "velocity": 0, "duration": 657}, {"note": 65, "velocity": 91, "duration": 173}, {"note": 0, "velocity": 0, "duration": 76}, {"note": 65, "velocity": 97, "duration": 210}, {"note": 73, "velocity": 88, "duration": 184}, {"note": 72, "velocity": 91, "duration": 220}, {"note": 70, "velocity": 83, "duration": 120}, {"note": 68, "velocity": 89, "duration": 361}, {"note": 0, "velocity": 0, "duration": 91}, {"note": 65, "velocity": 86, "duration": 145}, {"note": 70, "velocity": 90, "duration": 939}, {"note": 0, "velocity": 0, "duration": 1199}, {"note": 73, "velocity": 94, "duration": 176}, {"note": 0, "velocity": 0, "duration": 72}, {"note": 73, "velocity": 92, "duration": 174}, {"note": 0, "velocity": 0, "duration": 64}, {"note": 73, "velocity": 93, "duration": 151}, {"note": 0, "velocity": 0, "duration": 94}, {"note": 72, "velocity": 92, "duration": 176}, {"note": 0, "velocity": 0, "duration": 64}, {"note": 70, "velocity": 91, "duration": 97}, {"note": 68, "velocity": 85, "duration": 440}, {"note": 70, "velocity": 90, "duration": 136}, {"note": 66, "velocity": 90, "duration": 720}, {"note": 0, "velocity": 0, "duration": 963}, {"note": 73, "velocity": 101, "duration": 102}, {"note": 75, "velocity": 94, "duration": 75}, {"note": 77, "velocity": 92, "duration": 146}, {"note": 0, "velocity": 0, "duration": 83}, {"note": 77, "velocity": 101, "duration": 121}, {"note": 0, "velocity": 0, "duration": 113}, {"note": 77, "velocity": 96, "duration": 135}, {"note": 0, "velocity": 0, "duration": 106}, {"note": 77, "velocity": 97, "duration": 160}, {"note": 0, "velocity": 0, "duration": 95}, {"note": 77, "velocity": 95, "duration": 106}, {"note": 77, "velocity": 87, "duration": 78}, {"note": 75, "velocity": 92, "duration": 96}, {"note": 77, "velocity": 106, "duration": 158}, {"note": 73, "velocity": 92, "duration": 96}, {"note": 75, "velocity": 106, "duration": 165}, {"note": 77, "velocity": 91, "duration": 672}, {"note": 70, "velocity": 93, "duration": 91}, {"note": 77, "velocity": 95, "duration": 164}, {"note": 75, "velocity": 93, "duration": 766}, {"note": 0, "velocity": 0, "duration": 176}, {"note": 70, "velocity": 91, "duration": 78}, {"note": 77, "velocity": 101, "duration": 149}, {"note": 0, "velocity": 0, "duration": 88}, {"note": 77, "velocity": 97, "duration": 111}, {"note": 0, "velocity": 0, "duration": 138}, {"note": 77, "velocity": 95, "duration": 144}, {"note": 0, "velocity": 0, "duration": 85}, {"note": 77, "velocity": 93, "duration": 234}, {"note": 75, "velocity": 91, "duration": 240}, {"note": 77, "velocity": 91, "duration": 168}, {"note": 0, "velocity": 0, "duration": 335}, {"note": 73, "velocity": 99, "duration": 135}, {"note": 75, "velocity": 94, "duration": 84}, {"note": 77, "velocity": 95, "duration": 114}, {"note": 77, "velocity": 94, "duration": 159}, {"note": 0, "velocity": 0, "duration": 68}, {"note": 77, "velocity": 97, "duration": 216}, {"note": 0, "velocity": 0, "duration": 368}, {"note": 75, "velocity": 101, "duration": 100}, {"note": 75, "velocity": 94, "duration": 146}, {"note": 0, "velocity": 0, "duration": 78}, {"note": 75, "velocity": 95, "duration": 251}, {"note": 73, "velocity": 92, "duration": 62}, {"note": 75, "velocity": 97, "duration": 138}, {"note": 73, "velocity": 90, "duration": 62}, {"note": 77, "velocity": 94, "duration": 399}, {"note": 0, "velocity": 0, "duration": 133}, {"note": 77, "velocity": 90, "duration": 129}, {"note": 0, "velocity": 0, "duration": 76}, {"note": 77, "velocity": 94, "duration": 167}, {"note": 77, "velocity": 101, "duration": 159}, {"note": 0, "velocity": 0, "duration": 83}, {"note": 75, "velocity": 97, "duration": 120}, {"note": 75, "velocity": 94, "duration": 266}, {"note": 0, "velocity": 0, "duration": 87}, {"note": 73, "velocity": 85, "duration": 166}, {"note": 77, "velocity": 94, "duration": 568}, {"note": 0, "velocity": 0, "duration": 240}, {"note": 80, "velocity": 92, "duration": 120}, {"note": 77, "velocity": 95, "duration": 256}, {"note": 75, "velocity": 91, "duration": 416}, {"note": 0, "velocity": 0, "duration": 413}, {"note": 77, "velocity": 101, "duration": 159}, {"note": 0, "velocity": 0, "duration": 77}, {"note": 77, "velocity": 96, "duration": 114}, {"note": 0, "velocity": 0, "duration": 119}, {"note": 77, "velocity": 97, "duration": 150}, {"note": 0, "velocity": 0, "duration": 96}, {"note": 77, "velocity": 95, "duration": 100}, {"note": 75, "velocity": 91, "duration": 258}, {"note": 77, "velocity": 92, "duration": 102}, {"note": 0, "velocity": 0, "duration": 960}, {"note": 77, "velocity": 92, "duration": 221}, {"note": 70, "velocity": 96, "duration": 250}, {"note": 80, "velocity": 94, "duration": 258}, {"note": 77, "velocity": 91, "duration": 231}, {"note": 75, "velocity": 94, "duration": 480}, {"note": 73, "velocity": 86, "duration": 125}, {"note": 70, "velocity": 86, "duration": 720}, {"note": 0, "velocity": 0, "duration": 877}, {"note": 68, "velocity": 91, "duration": 137}, {"note": 70, "velocity": 84, "duration": 256}, {"note": 65, "velocity": 91, "duration": 617}, {"note": 0, "velocity": 0, "duration": 20360}, {"note": 75, "velocity": 106, "duration": 165}, {"note": 77, "velocity": 91, "duration": 672}, {"note": 70, "velocity": 93, "duration": 91}, {"note": 77, "velocity": 95, "duration": 164}, {"note": 75, "velocity": 93, "duration": 766}, {"note": 0, "velocity": 0, "duration": 176}, {"note": 78, "velocity": 91, "duration": 78}, {"note": 77, "velocity": 101, "duration": 360}, {"note": 70, "velocity": 91, "duration": 66}, {"note": 77, "velocity": 92, "duration": 101}, {"note": 75, "velocity": 90, "duration": 62}, {"note": 73, "velocity": 86, "duration": 124}, {"note": 70, "velocity": 90, "duration": 83}, {"note": 68, "velocity": 90, "duration": 511}, {"note": 0, "velocity": 0, "duration": 229}, {"note": 73, "velocity": 99, "duration": 135}, {"note": 75, "velocity": 94, "duration": 84}, {"note": 77, "velocity": 95, "duration": 114}, {"note": 77, "velocity": 94, "duration": 159}, {"note": 0, "velocity": 0, "duration": 68}, {"note": 77, "velocity": 97, "duration": 216}, {"note": 0, "velocity": 0, "duration": 128}, {"note": 77, "velocity": 92, "duration": 102}, {"note": 70, "velocity": 93, "duration": 62}, {"note": 75, "velocity": 101, "duration": 100}, {"note": 75, "velocity": 94, "duration": 146}, {"note": 0, "velocity": 0, "duration": 78}, {"note": 75, "velocity": 95, "duration": 251}, {"note": 73, "velocity": 92, "duration": 62}, {"note": 75, "velocity": 97, "duration": 138}, {"note": 73, "velocity": 90, "duration": 62}, {"note": 77, "velocity": 94, "duration": 399}, {"note": 0, "velocity": 0, "duration": 133}, {"note": 77, "velocity": 90, "duration": 129}, {"note": 0, "velocity": 0, "duration": 76}, {"note": 77, "velocity": 94, "duration": 167}, {"note": 77, "velocity": 101, "duration": 159}, {"note": 0, "velocity": 0, "duration": 83}, {"note": 75, "velocity": 97, "duration": 120}, {"note": 75, "velocity": 94, "duration": 266}, {"note": 0, "velocity": 0, "duration": 87}, {"note": 73, "velocity": 85, "duration": 166}, {"note": 77, "velocity": 94, "duration": 568}, {"note": 0, "velocity": 0, "duration": 240}, {"note": 80, "velocity": 92, "duration": 120}, {"note": 77, "velocity": 95, "duration": 256}, {"note": 75, "velocity": 91, "duration": 416}, {"note": 0, "velocity": 0, "duration": 413}, {"note": 77, "velocity": 101, "duration": 159}, {"note": 0, "velocity": 0, "duration": 77}, {"note": 77, "velocity": 96, "duration": 114}, {"note": 0, "velocity": 0, "duration": 119}, {"note": 77, "velocity": 97, "duration": 150}, {"note": 0, "velocity": 0, "duration": 96}, {"note": 77, "velocity": 95, "duration": 100}, {"note": 75, "velocity": 91, "duration": 258}, {"note": 77, "velocity": 92, "duration": 102}, {"note": 0, "velocity": 0, "duration": 960}, {"note": 77, "velocity": 92, "duration": 221}, {"note": 70, "velocity": 96, "duration": 250}, {"note": 80, "velocity": 94, "duration": 258}, {"note": 77, "velocity": 91, "duration": 231}, {"note": 75, "velocity": 94, "duration": 480}, {"note": 73, "velocity": 86, "duration": 125}, {"note": 70, "velocity": 86, "duration": 720}, {"note": 0, "velocity": 0, "duration": 399}, {"note": 77, "velocity": 96, "duration": 777}, {"note": 70, "velocity": 97, "duration": 103}, {"note": 77, "velocity": 94, "duration": 548}, {"note": 0, "velocity": 0, "duration": 281}, {"note": 77, "velocity": 97, "duration": 123}, {"note": 75, "velocity": 97, "duration": 170}, {"note": 77, "velocity": 92, "duration": 176}, {"note": 0, "velocity": 0, "duration": 643}, {"note": 77, "velocity": 99, "duration": 157}, {"note": 0, "velocity": 0, "duration": 80}, {"note": 77, "velocity": 97, "duration": 101}, {"note": 0, "velocity": 0, "duration": 144}, {"note": 77, "velocity": 97, "duration": 155}, {"note": 0, "velocity": 0, "duration": 89}, {"note": 77, "velocity": 96, "duration": 71}, {"note": 75, "velocity": 107, "duration": 234}, {"note": 77, "velocity": 95, "duration": 264}, {"note": 0, "velocity": 0, "duration": 574}, {"note": 77, "velocity": 96, "duration": 96}, {"note": 77, "velocity": 92, "duration": 125}, {"note": 0, "velocity": 0, "duration": 106}, {"note": 77, "velocity": 97, "duration": 364}, {"note": 0, "velocity": 0, "duration": 130}, {"note": 73, "velocity": 89, "duration": 69}, {"note": 75, "velocity": 101, "duration": 127}, {"note": 75, "velocity": 94, "duration": 107}, {"note": 0, "velocity": 0, "duration": 101}, {"note": 75, "velocity": 107, "duration": 291}, {"note": 75, "velocity": 106, "duration": 127}, {"note": 73, "velocity": 92, "duration": 52}, {"note": 77, "velocity": 97, "duration": 341}, {"note": 0, "velocity": 0, "duration": 144}, {"note": 77, "velocity": 101, "duration": 149}, {"note": 0, "velocity": 0, "duration": 94}, {"note": 77, "velocity": 101, "duration": 151}, {"note": 0, "velocity": 0, "duration": 96}, {"note": 77, "velocity": 107, "duration": 81}, {"note": 77, "velocity": 104, "duration": 122}, {"note": 0, "velocity": 0, "duration": 107}, {"note": 75, "velocity": 107, "duration": 281}, {"note": 73, "velocity": 91, "duration": 171}, {"note": 0, "velocity": 0, "duration": 88}, {"note": 77, "velocity": 90, "duration": 506}, {"note": 0, "velocity": 0, "duration": 210}, {"note": 80, "velocity": 92, "duration": 99}, {"note": 77, "velocity": 97, "duration": 253}, {"note": 75, "velocity": 92, "duration": 425}, {"note": 0, "velocity": 0, "duration": 155}, {"note": 73, "velocity": 97, "duration": 97}, {"note": 72, "velocity": 97, "duration": 100}, {"note": 70, "velocity": 93, "duration": 177}, {"note": 72, "velocity": 104, "duration": 182}, {"note": 0, "velocity": 0, "duration": 66}, {"note": 73, "velocity": 94, "duration": 151}, {"note": 0, "velocity": 0, "duration": 82}, {"note": 75, "velocity": 107, "duration": 151}, {"note": 0, "velocity": 0, "duration": 85}, {"note": 77, "velocity": 106, "duration": 446}, {"note": 0, "velocity": 0, "duration": 747}, {"note": 77, "velocity": 101, "duration": 177}, {"note": 0, "velocity": 0, "duration": 72}, {"note": 70, "velocity": 96, "duration": 185}, {"note": 80, "velocity": 93, "duration": 141}, {"note": 0, "velocity": 0, "duration": 97}, {"note": 77, "velocity": 94, "duration": 189}, {"note": 75, "velocity": 97, "duration": 396}, {"note": 0, "velocity": 0, "duration": 107}, {"note": 73, "velocity": 94, "duration": 117}, {"note": 70, "velocity": 83, "duration": 1011}, {"note": 0, "velocity": 0, "duration": 580}, {"note": 70, "velocity": 90, "duration": 224}, {"note": 65, "velocity": 91, "duration": 240}]]