[[{"note": 74, "velocity": 90, "duration": 405}, {"note": 0, "velocity": 0, "duration": 75}, {"note": 74, "velocity": 93, "duration": 189}, {"note": 74, "velocity": 89, "duration": 175}, {"note": 0, "velocity": 0, "duration": 65}, {"note": 73, "velocity": 90, "duration": 168}, {"note": 0, "velocity": 0, "duration": 72}, {"note": 73, "velocity": 81, "duration": 176}, {"note": 0, "velocity": 0, "duration": 64}, {"note": 78, "velocity": 95, "duration": 375}, {"note": 0, "velocity": 0, "duration": 105}, {"note": 71, "velocity": 86, "duration": 441}, {"note": 69, "velocity": 86, "duration": 200}, {"note": 69, "velocity": 80, "duration": 213}, {"note": 66, "velocity": 83, "duration": 758}, {"note": 0, "velocity": 0, "duration": 202}, {"note": 67, "velocity": 79, "duration": 410}, {"note": 0, "velocity": 0, "duration": 70}, {"note": 67, "velocity": 83, "duration": 184}, {"note": 67, "velocity": 84, "duration": 174}, {"note": 0, "velocity": 0, "duration": 66}, {"note": 66, "velocity": 75, "duration": 174}, {"note": 0, "velocity": 0, "duration": 66}, {"note": 66, "velocity": 90, "duration": 179}, {"note": 0, "velocity": 0, "duration": 61}, {"note": 71, "velocity": 86, "duration": 417}, {"note": 0, "velocity": 0, "duration": 63}, {"note": 74, "velocity": 88, "duration": 276}, {"note": 0, "velocity": 0, "duration": 84}, {"note": 74, "velocity": 90, "duration": 289}, {"note": 0, "velocity": 0, "duration": 71}, {"note": 76, "velocity": 90, "duration": 198}, {"note": 73, "velocity": 80, "duration": 847}, {"note": 0, "velocity": 0, "duration": 113}, {"note": 74, "velocity": 90, "duration": 433}, {"note": 74, "velocity": 91, "duration": 192}, {"note": 74, "velocity": 88, "duration": 183}, {"note": 73, "velocity": 85, "duration": 164}, {"note": 0, "velocity": 0, "duration": 76}, {"note": 73, "velocity": 88, "duration": 174}, {"note": 0, "velocity": 0, "duration": 66}, {"note": 78, "velocity": 85, "duration": 400}, {"note": 0, "velocity": 0, "duration": 80}, {"note": 71, "velocity": 91, "duration": 385}, {"note": 0, "velocity": 0, "duration": 95}, {"note": 69, "velocity": 86, "duration": 184}, {"note": 71, "velocity": 85, "duration": 204}, {"note": 66, "velocity": 84, "duration": 739}, {"note": 0, "velocity": 0, "duration": 221}, {"note": 67, "velocity": 80, "duration": 411}, {"note": 0, "velocity": 0, "duration": 69}, {"note": 67, "velocity": 85, "duration": 185}, {"note": 67, "velocity": 85, "duration": 183}, {"note": 66, "velocity": 82, "duration": 173}, {"note": 0, "velocity": 0, "duration": 67}, {"note": 66, "velocity": 85, "duration": 170}, {"note": 0, "velocity": 0, "duration": 70}, {"note": 71, "velocity": 85, "duration": 424}, {"note": 74, "velocity": 87, "duration": 165}, {"note": 0, "velocity": 0, "duration": 75}, {"note": 78, "velocity": 86, "duration": 170}, {"note": 0, "velocity": 0, "duration": 70}, {"note": 73, "velocity": 85, "duration": 190}, {"note": 74, "velocity": 86, "duration": 68}, {"note": 73, "velocity": 86, "duration": 81}, {"note": 71, "velocity": 86, "duration": 1175}, {"note": 0, "velocity": 0, "duration": 505}, {"note": 76, "velocity": 98, "duration": 184}, {"note": 78, "velocity": 91, "duration": 173}, {"note": 0, "velocity": 0, "duration": 67}, {"note": 78, "velocity": 88, "duration": 84}, {"note": 76, "velocity": 90, "duration": 67}, {"note": 78, "velocity": 90, "duration": 158}, {"note": 0, "velocity": 0, "duration": 82}, {"note": 86, "velocity": 86, "duration": 155}, {"note": 0, "velocity": 0, "duration": 85}, {"note": 85, "velocity": 89, "duration": 189}, {"note": 83, "velocity": 84, "duration": 184}, {"note": 81, "velocity": 86, "duration": 288}, {"note": 0, "velocity": 0, "duration": 192}, {"note": 83, "velocity": 86, "duration": 156}, {"note": 0, "velocity": 0, "duration": 84}, {"note": 83, "velocity": 87, "duration": 78}, {"note": 81, "velocity": 85, "duration": 63}, {"note": 78, "velocity": 86, "duration": 184}, {"note": 76, "velocity": 91, "duration": 177}, {"note": 0, "velocity": 0, "duration": 63}, {"note": 78, "velocity": 86, "duration": 545}, {"note": 0, "velocity": 0, "duration": 415}, {"note": 79, "velocity": 84, "duration": 181}, {"note": 79, "velocity": 85, "duration": 86}, {"note": 78, "velocity": 85, "duration": 65}, {"note": 79, "velocity": 87, "duration": 183}, {"note": 79, "velocity": 85, "duration": 68}, {"note": 81, "velocity": 85, "duration": 58}, {"note": 0, "velocity": 0, "duration": 62}, {"note": 78, "velocity": 88, "duration": 179}, {"note": 0, "velocity": 0, "duration": 61}, {"note": 76, "velocity": 90, "duration": 169}, {"note": 0, "velocity": 0, "duration": 71}, {"note": 74, "velocity": 85, "duration": 328}, {"note": 0, "velocity": 0, "duration": 152}, {"note": 74, "velocity": 89, "duration": 179}, {"note": 0, "velocity": 0, "duration": 61}, {"note": 74, "velocity": 91, "duration": 78}, {"note": 71, "velocity": 90, "duration": 91}, {"note": 74, "velocity": 101, "duration": 160}, {"note": 0, "velocity": 0, "duration": 80}, {"note": 76, "velocity": 88, "duration": 165}, {"note": 0, "velocity": 0, "duration": 75}, {"note": 78, "velocity": 87, "duration": 627}, {"note": 0, "velocity": 0, "duration": 93}, {"note": 76, "velocity": 95, "duration": 188}, {"note": 78, "velocity": 89, "duration": 154}, {"note": 0, "velocity": 0, "duration": 86}, {"note": 78, "velocity": 90, "duration": 67}, {"note": 76, "velocity": 91, "duration": 62}, {"note": 78, "velocity": 91, "duration": 156}, {"note": 0, "velocity": 0, "duration": 84}, {"note": 86, "velocity": 88, "duration": 171}, {"note": 0, "velocity": 0, "duration": 69}, {"note": 85, "velocity": 93, "duration": 179}, {"note": 0, "velocity": 0, "duration": 61}, {"note": 83, "velocity": 86, "duration": 159}, {"note": 0, "velocity": 0, "duration": 81}, {"note": 81, "velocity": 90, "duration": 314}, {"note": 0, "velocity": 0, "duration": 166}, {"note": 83, "velocity": 86, "duration": 153}, {"note": 0, "velocity": 0, "duration": 87}, {"note": 83, "velocity": 88, "duration": 62}, {"note": 81, "velocity": 86, "duration": 69}, {"note": 78, "velocity": 86, "duration": 168}, {"note": 0, "velocity": 0, "duration": 72}, {"note": 76, "velocity": 90, "duration": 187}, {"note": 78, "velocity": 88, "duration": 562}, {"note": 0, "velocity": 0, "duration": 398}, {"note": 79, "velocity": 85, "duration": 185}, {"note": 79, "velocity": 85, "duration": 67}, {"note": 78, "velocity": 86, "duration": 66}, {"note": 79, "velocity": 87, "duration": 147}, {"note": 0, "velocity": 0, "duration": 93}, {"note": 81, "velocity": 87, "duration": 149}, {"note": 0, "velocity": 0, "duration": 91}, {"note": 78, "velocity": 88, "duration": 183}, {"note": 76, "velocity": 88, "duration": 178}, {"note": 0, "velocity": 0, "duration": 62}, {"note": 74, "velocity": 93, "duration": 360}, {"note": 0, "velocity": 0, "duration": 120}, {"note": 74, "velocity": 93, "duration": 175}, {"note": 0, "velocity": 0, "duration": 65}, {"note": 78, "velocity": 88, "duration": 203}, {"note": 73, "velocity": 89, "duration": 194}, {"note": 74, "velocity": 90, "duration": 206}, {"note": 71, "velocity": 88, "duration": 960}, {"note": 0, "velocity": 0, "duration": 7680}, {"note": 74, "velocity": 90, "duration": 433}, {"note": 74, "velocity": 91, "duration": 192}, {"note": 74, "velocity": 88, "duration": 183}, {"note": 73, "velocity": 85, "duration": 164}, {"note": 0, "velocity": 0, "duration": 76}, {"note": 73, "velocity": 88, "duration": 174}, {"note": 0, "velocity": 0, "duration": 66}, {"note": 78, "velocity": 85, "duration": 400}, {"note": 0, "velocity": 0, "duration": 80}, {"note": 71, "velocity": 91, "duration": 385}, {"note": 0, "velocity": 0, "duration": 95}, {"note": 69, "velocity": 86, "duration": 184}, {"note": 71, "velocity": 85, "duration": 204}, {"note": 66, "velocity": 84, "duration": 739}, {"note": 0, "velocity": 0, "duration": 221}, {"note": 67, "velocity": 80, "duration": 411}, {"note": 0, "velocity": 0, "duration": 69}, {"note": 67, "velocity": 85, "duration": 185}, {"note": 67, "velocity": 85, "duration": 183}, {"note": 66, "velocity": 82, "duration": 173}, {"note": 0, "velocity": 0, "duration": 67}, {"note": 66, "velocity": 85, "duration": 170}, {"note": 0, "velocity": 0, "duration": 70}, {"note": 71, "velocity": 85, "duration": 424}, {"note": 74, "velocity": 87, "duration": 165}, {"note": 0, "velocity": 0, "duration": 75}, {"note": 78, "velocity": 86, "duration": 170}, {"note": 0, "velocity": 0, "duration": 70}, {"note": 73, "velocity": 85, "duration": 190}, {"note": 74, "velocity": 86, "duration": 68}, {"note": 73, "velocity": 86, "duration": 81}, {"note": 71, "velocity": 86, "duration": 480}, {"note": 0, "velocity": 0, "duration": 240}, {"note": 76, "velocity": 98, "duration": 184}, {"note": 78, "velocity": 91, "duration": 173}, {"note": 0, "velocity": 0, "duration": 67}, {"note": 78, "velocity": 88, "duration": 84}, {"note": 76, "velocity": 90, "duration": 67}, {"note": 78, "velocity": 90, "duration": 158}, {"note": 0, "velocity": 0, "duration": 82}, {"note": 86, "velocity": 86, "duration": 155}, {"note": 0, "velocity": 0, "duration": 85}, {"note": 85, "velocity": 89, "duration": 189}, {"note": 83, "velocity": 84, "duration": 184}, {"note": 81, "velocity": 86, "duration": 288}, {"note": 0, "velocity": 0, "duration": 192}, {"note": 83, "velocity": 86, "duration": 156}, {"note": 0, "velocity": 0, "duration": 84}, {"note": 83, "velocity": 87, "duration": 78}, {"note": 81, "velocity": 85, "duration": 63}, {"note": 78, "velocity": 86, "duration": 184}, {"note": 76, "velocity": 91, "duration": 177}, {"note": 0, "velocity": 0, "duration": 63}, {"note": 78, "velocity": 86, "duration": 545}, {"note": 0, "velocity": 0, "duration": 415}, {"note": 79, "velocity": 84, "duration": 181}, {"note": 79, "velocity": 85, "duration": 86}, {"note": 78, "velocity": 85, "duration": 65}, {"note": 79, "velocity": 87, "duration": 183}, {"note": 79, "velocity": 85, "duration": 68}, {"note": 81, "velocity": 85, "duration": 58}, {"note": 0, "velocity": 0, "duration": 62}, {"note": 78, "velocity": 88, "duration": 179}, {"note": 0, "velocity": 0, "duration": 61}, {"note": 76, "velocity": 90, "duration": 169}, {"note": 0, "velocity": 0, "duration": 71}, {"note": 74, "velocity": 85, "duration": 328}, {"note": 0, "velocity": 0, "duration": 152}, {"note": 74, "velocity": 89, "duration": 179}, {"note": 0, "velocity": 0, "duration": 61}, {"note": 74, "velocity": 91, "duration": 78}, {"note": 71, "velocity": 90, "duration": 91}, {"note": 74, "velocity": 101, "duration": 160}, {"note": 0, "velocity": 0, "duration": 80}, {"note": 76, "velocity": 88, "duration": 165}, {"note": 0, "velocity": 0, "duration": 75}, {"note": 78, "velocity": 87, "duration": 627}, {"note": 0, "velocity": 0, "duration": 93}, {"note": 76, "velocity": 95, "duration": 188}, {"note": 78, "velocity": 89, "duration": 154}, {"note": 0, "velocity": 0, "duration": 86}, {"note": 78, "velocity": 90, "duration": 67}, {"note": 76, "velocity": 91, "duration": 62}, {"note": 78, "velocity": 91, "duration": 156}, {"note": 0, "velocity": 0, "duration": 84}, {"note": 86, "velocity": 88, "duration": 171}, {"note": 0, "velocity": 0, "duration": 69}, {"note": 85, "velocity": 93, "duration": 179}, {"note": 0, "velocity": 0, "duration": 61}, {"note": 83, "velocity": 86, "duration": 159}, {"note": 0, "velocity": 0, "duration": 81}, {"note": 81, "velocity": 90, "duration": 314}, {"note": 0, "velocity": 0, "duration": 166}, {"note": 83, "velocity": 86, "duration": 153}, {"note": 0, "velocity": 0, "duration": 87}, {"note": 83, "velocity": 88, "duration": 62}, {"note": 81, "velocity": 86, "duration": 69}, {"note": 78, "velocity": 86, "duration": 168}, {"note": 0, "velocity": 0, "duration": 72}, {"note": 76, "velocity": 90, "duration": 187}, {"note": 78, "velocity": 88, "duration": 562}, {"note": 0, "velocity": 0, "duration": 398}, {"note": 79, "velocity": 85, "duration": 185}, {"note": 79, "velocity": 85, "duration": 67}, {"note": 78, "velocity": 86, "duration": 66}, {"note": 79, "velocity": 87, "duration": 147}, {"note": 0, "velocity": 0, "duration": 93}, {"note": 81, "velocity": 87, "duration": 149}, {"note": 0, "velocity": 0, "duration": 91}, {"note": 78, "velocity": 88, "duration": 183}, {"note": 76, "velocity": 88, "duration": 178}, {"note": 0, "velocity": 0, "duration": 62}, {"note": 74, "velocity": 93, "duration": 360}, {"note": 0, "velocity": 0, "duration": 120}, {"note": 74, "velocity": 93, "duration": 175}, {"note": 0, "velocity": 0, "duration": 65}, {"note": 78, "velocity": 88, "duration": 203}, {"note": 73, "velocity": 89, "duration": 194}, {"note": 74, "velocity": 90, "duration": 206}, {"note": 71, "velocity": 88, "duration": 960}, {"note": 0, "velocity": 0, "duration": 7440}, {"note": 76, "velocity": 98, "duration": 184}, {"note": 78, "velocity": 91, "duration": 173}, {"note": 0, "velocity": 0, "duration": 67}, {"note": 78, "velocity": 88, "duration": 84}, {"note": 76, "velocity": 90, "duration": 67}, {"note": 78, "velocity": 90, "duration": 158}, {"note": 0, "velocity": 0, "duration": 82}, {"note": 86, "velocity": 86, "duration": 155}, {"note": 0, "velocity": 0, "duration": 85}, {"note": 85, "velocity": 89, "duration": 189}, {"note": 83, "velocity": 84, "duration": 184}, {"note": 81, "velocity": 86, "duration": 288}, {"note": 0, "velocity": 0, "duration": 192}, {"note": 83, "velocity": 86, "duration": 156}, {"note": 0, "velocity": 0, "duration": 84}, {"note": 83, "velocity": 87, "duration": 78}, {"note": 81, "velocity": 85, "duration": 63}, {"note": 78, "velocity": 86, "duration": 184}, {"note": 76, "velocity": 91, "duration": 177}, {"note": 0, "velocity": 0, "duration": 63}, {"note": 78, "velocity": 86, "duration": 545}, {"note": 0, "velocity": 0, "duration": 415}, {"note": 79, "velocity": 84, "duration": 181}, {"note": 79, "velocity": 85, "duration": 86}, {"note": 78, "velocity": 85, "duration": 65}, {"note": 79, "velocity": 87, "duration": 183}, {"note": 79, "velocity": 85, "duration": 68}, {"note": 81, "velocity": 85, "duration": 58}, {"note": 0, "velocity": 0, "duration": 62}, {"note": 78, "velocity": 88, "duration": 179}, {"note": 0, "velocity": 0, "duration": 61}, {"note": 76, "velocity": 90, "duration": 169}, {"note": 0, "velocity": 0, "duration": 71}, {"note": 74, "velocity": 85, "duration": 328}, {"note": 0, "velocity": 0, "duration": 152}, {"note": 74, "velocity": 89, "duration": 179}, {"note": 0, "velocity": 0, "duration": 61}, {"note": 74, "velocity": 91, "duration": 78}, {"note": 71, "velocity": 90, "duration": 91}, {"note": 74, "velocity": 101, "duration": 160}, {"note": 0, "velocity": 0, "duration": 80}, {"note": 76, "velocity": 88, "duration": 165}, {"note": 0, "velocity": 0, "duration": 75}, {"note": 78, "velocity": 87, "duration": 627}, {"note": 0, "velocity": 0, "duration": 93}, {"note": 76, "velocity": 95, "duration": 188}, {"note": 78, "velocity": 89, "duration": 154}, {"note": 0, "velocity": 0, "duration": 86}, {"note": 78, "velocity": 90, "duration": 67}, {"note": 76, "velocity": 91, "duration": 62}, {"note": 78, "velocity": 91, "duration": 156}, {"note": 0, "velocity": 0, "duration": 84}, {"note": 86, "velocity": 88, "duration": 171}, {"note": 0, "velocity": 0, "duration": 69}, {"note": 85, "velocity": 93, "duration": 179}, {"note": 0, "velocity": 0, "duration": 61}, {"note": 83, "velocity": 86, "duration": 159}, {"note": 0, "velocity": 0, "duration": 81}, {"note": 81, "velocity": 90, "duration": 314}, {"note": 0, "velocity": 0, "duration": 166}, {"note": 83, "velocity": 86, "duration": 153}, {"note": 0, "velocity": 0, "duration": 87}, {"note": 83, "velocity": 88, "duration": 62}, {"note": 81, "velocity": 86, "duration": 69}, {"note": 78, "velocity": 86, "duration": 168}, {"note": 0, "velocity": 0, "duration": 72}, {"note": 76, "velocity": 90, "duration": 187}, {"note": 78, "velocity": 88, "duration": 562}, {"note": 0, "velocity": 0, "duration": 398}, {"note": 79, "velocity": 85, "duration": 185}, {"note": 79, "velocity": 85, "duration": 67}, {"note": 78, "velocity": 86, "duration": 66}, {"note": 79, "velocity": 87, "duration": 147}, {"note": 0, "velocity": 0, "duration": 93}, {"note": 81, "velocity": 87, "duration": 149}, {"note": 0, "velocity": 0, "duration": 91}, {"note": 78, "velocity": 88, "duration": 183}, {"note": 76, "velocity": 88, "duration": 178}, {"note": 0, "velocity": 0, "duration": 62}, {"note": 74, "velocity": 93, "duration": 360}, {"note": 0, "velocity": 0, "duration": 120}, {"note": 74, "velocity": 93, "duration": 175}, {"note": 0, "velocity": 0, "duration": 65}, {"note": 78, "velocity": 88, "duration": 203}, {"note": 73, "velocity": 89, "duration": 194}, {"note": 74, "velocity": 90, "duration": 206}, {"note": 71, "velocity": 88, "duration": 960}]]