[[{"note": 67, "velocity": 88, "duration": 188}, {"note": 70, "velocity": 87, "duration": 141}, {"note": 0, "velocity": 0, "duration": 99}, {"note": 70, "velocity": 88, "duration": 174}, {"note": 0, "velocity": 0, "duration": 66}, {"note": 67, "velocity": 86, "duration": 165}, {"note": 0, "velocity": 0, "duration": 75}, {"note": 67, "velocity": 86, "duration": 402}, {"note": 0, "velocity": 0, "duration": 78}, {"note": 63, "velocity": 86, "duration": 188}, {"note": 65, "velocity": 90, "duration": 202}, {"note": 67, "velocity": 91, "duration": 201}, {"note": 72, "velocity": 90, "duration": 149}, {"note": 0, "velocity": 0, "duration": 91}, {"note": 72, "velocity": 88, "duration": 170}, {"note": 0, "velocity": 0, "duration": 70}, {"note": 70, "velocity": 81, "duration": 80}, {"note": 72, "velocity": 86, "duration": 880}, {"note": 0, "velocity": 0, "duration": 200}, {"note": 72, "velocity": 87, "duration": 88}, {"note": 72, "velocity": 90, "duration": 162}, {"note": 0, "velocity": 0, "duration": 78}, {"note": 72, "velocity": 87, "duration": 81}, {"note": 72, "velocity": 87, "duration": 190}, {"note": 70, "velocity": 87, "duration": 165}, {"note": 0, "velocity": 0, "duration": 75}, {"note": 72, "velocity": 87, "duration": 74}, {"note": 72, "velocity": 87, "duration": 133}, {"note": 0, "velocity": 0, "duration": 107}, {"note": 72, "velocity": 82, "duration": 74}, {"note": 72, "velocity": 87, "duration": 153}, {"note": 0, "velocity": 0, "duration": 87}, {"note": 67, "velocity": 88, "duration": 165}, {"note": 0, "velocity": 0, "duration": 75}, {"note": 67, "velocity": 90, "duration": 240}, {"note": 65, "velocity": 89, "duration": 165}, {"note": 0, "velocity": 0, "duration": 75}, {"note": 65, "velocity": 91, "duration": 172}, {"note": 0, "velocity": 0, "duration": 68}, {"note": 67, "velocity": 87, "duration": 198}, {"note": 70, "velocity": 87, "duration": 794}, {"note": 0, "velocity": 0, "duration": 166}, {"note": 67, "velocity": 88, "duration": 188}, {"note": 70, "velocity": 87, "duration": 141}, {"note": 0, "velocity": 0, "duration": 99}, {"note": 70, "velocity": 88, "duration": 174}, {"note": 0, "velocity": 0, "duration": 66}, {"note": 67, "velocity": 86, "duration": 165}, {"note": 0, "velocity": 0, "duration": 75}, {"note": 67, "velocity": 86, "duration": 402}, {"note": 0, "velocity": 0, "duration": 78}, {"note": 63, "velocity": 86, "duration": 188}, {"note": 65, "velocity": 90, "duration": 202}, {"note": 67, "velocity": 91, "duration": 201}, {"note": 72, "velocity": 90, "duration": 149}, {"note": 0, "velocity": 0, "duration": 91}, {"note": 72, "velocity": 88, "duration": 170}, {"note": 0, "velocity": 0, "duration": 70}, {"note": 70, "velocity": 81, "duration": 80}, {"note": 72, "velocity": 86, "duration": 880}, {"note": 0, "velocity": 0, "duration": 200}, {"note": 72, "velocity": 87, "duration": 88}, {"note": 72, "velocity": 90, "duration": 162}, {"note": 0, "velocity": 0, "duration": 78}, {"note": 72, "velocity": 87, "duration": 81}, {"note": 72, "velocity": 87, "duration": 190}, {"note": 70, "velocity": 87, "duration": 165}, {"note": 0, "velocity": 0, "duration": 75}, {"note": 72, "velocity": 87, "duration": 74}, {"note": 72, "velocity": 87, "duration": 133}, {"note": 0, "velocity": 0, "duration": 107}, {"note": 72, "velocity": 82, "duration": 74}, {"note": 72, "velocity": 87, "duration": 153}, {"note": 0, "velocity": 0, "duration": 87}, {"note": 70, "velocity": 88, "duration": 165}, {"note": 0, "velocity": 0, "duration": 75}, {"note": 70, "velocity": 90, "duration": 240}, {"note": 70, "velocity": 89, "duration": 165}, {"note": 0, "velocity": 0, "duration": 75}, {"note": 70, "velocity": 91, "duration": 172}, {"note": 0, "velocity": 0, "duration": 68}, {"note": 72, "velocity": 87, "duration": 120}, {"note": 74, "velocity": 87, "duration": 794}, {"note": 0, "velocity": 0, "duration": 526}, {"note": 74, "velocity": 74, "duration": 113}, {"note": 0, "velocity": 0, "duration": 127}, {"note": 74, "velocity": 90, "duration": 152}, {"note": 0, "velocity": 0, "duration": 88}, {"note": 74, "velocity": 92, "duration": 78}, {"note": 0, "velocity": 0, "duration": 162}, {"note": 74, "velocity": 90, "duration": 240}, {"note": 67, "velocity": 93, "duration": 154}, {"note": 0, "velocity": 0, "duration": 86}, {"note": 67, "velocity": 93, "duration": 152}, {"note": 0, "velocity": 0, "duration": 88}, {"note": 77, "velocity": 90, "duration": 107}, {"note": 0, "velocity": 0, "duration": 133}, {"note": 77, "velocity": 88, "duration": 180}, {"note": 75, "velocity": 93, "duration": 147}, {"note": 0, "velocity": 0, "duration": 93}, {"note": 75, "velocity": 93, "duration": 180}, {"note": 74, "velocity": 87, "duration": 95}, {"note": 72, "velocity": 88, "duration": 1024}, {"note": 0, "velocity": 0, "duration": 296}, {"note": 74, "velocity": 74, "duration": 113}, {"note": 0, "velocity": 0, "duration": 127}, {"note": 74, "velocity": 90, "duration": 152}, {"note": 0, "velocity": 0, "duration": 88}, {"note": 74, "velocity": 92, "duration": 78}, {"note": 0, "velocity": 0, "duration": 162}, {"note": 74, "velocity": 90, "duration": 240}, {"note": 67, "velocity": 93, "duration": 154}, {"note": 0, "velocity": 0, "duration": 86}, {"note": 67, "velocity": 93, "duration": 152}, {"note": 0, "velocity": 0, "duration": 88}, {"note": 77, "velocity": 90, "duration": 107}, {"note": 0, "velocity": 0, "duration": 133}, {"note": 77, "velocity": 88, "duration": 180}, {"note": 75, "velocity": 93, "duration": 147}, {"note": 0, "velocity": 0, "duration": 93}, {"note": 75, "velocity": 93, "duration": 180}, {"note": 74, "velocity": 87, "duration": 95}, {"note": 75, "velocity": 88, "duration": 840}, {"note": 72, "velocity": 93, "duration": 183}, {"note": 79, "velocity": 87, "duration": 177}, {"note": 0, "velocity": 0, "duration": 63}, {"note": 77, "velocity": 89, "duration": 146}, {"note": 0, "velocity": 0, "duration": 94}, {"note": 77, "velocity": 92, "duration": 162}, {"note": 0, "velocity": 0, "duration": 78}, {"note": 75, "velocity": 97, "duration": 154}, {"note": 0, "velocity": 0, "duration": 86}, {"note": 75, "velocity": 93, "duration": 187}, {"note": 72, "velocity": 90, "duration": 187}, {"note": 72, "velocity": 88, "duration": 73}, {"note": 75, "velocity": 88, "duration": 281}, {"note": 0, "velocity": 0, "duration": 79}, {"note": 74, "velocity": 87, "duration": 180}, {"note": 74, "velocity": 82, "duration": 76}, {"note": 74, "velocity": 87, "duration": 64}, {"note": 74, "velocity": 87, "duration": 159}, {"note": 0, "velocity": 0, "duration": 81}, {"note": 75, "velocity": 92, "duration": 152}, {"note": 0, "velocity": 0, "duration": 88}, {"note": 77, "velocity": 92, "duration": 268}, {"note": 0, "velocity": 0, "duration": 92}, {"note": 70, "velocity": 92, "duration": 62}, {"note": 75, "velocity": 93, "duration": 74}, {"note": 77, "velocity": 92, "duration": 309}, {"note": 79, "velocity": 87, "duration": 113}, {"note": 79, "velocity": 87, "duration": 92}, {"note": 0, "velocity": 0, "duration": 68}, {"note": 79, "velocity": 87, "duration": 98}, {"note": 0, "velocity": 0, "duration": 62}, {"note": 79, "velocity": 89, "duration": 113}, {"note": 77, "velocity": 92, "duration": 116}, {"note": 75, "velocity": 90, "duration": 111}, {"note": 79, "velocity": 90, "duration": 110}, {"note": 79, "velocity": 86, "duration": 92}, {"note": 0, "velocity": 0, "duration": 68}, {"note": 79, "velocity": 89, "duration": 102}, {"note": 79, "velocity": 88, "duration": 117}, {"note": 77, "velocity": 90, "duration": 101}, {"note": 75, "velocity": 90, "duration": 92}, {"note": 0, "velocity": 0, "duration": 68}, {"note": 75, "velocity": 86, "duration": 101}, {"note": 75, "velocity": 80, "duration": 96}, {"note": 0, "velocity": 0, "duration": 64}, {"note": 75, "velocity": 82, "duration": 94}, {"note": 0, "velocity": 0, "duration": 66}, {"note": 75, "velocity": 84, "duration": 169}, {"note": 0, "velocity": 0, "duration": 71}, {"note": 74, "velocity": 84, "duration": 240}, {"note": 72, "velocity": 86, "duration": 362}, {"note": 0, "velocity": 0, "duration": 102}, {"note": 72, "velocity": 97, "duration": 185}, {"note": 75, "velocity": 95, "duration": 156}, {"note": 0, "velocity": 0, "duration": 64}, {"note": 77, "velocity": 89, "duration": 134}, {"note": 77, "velocity": 88, "duration": 99}, {"note": 0, "velocity": 0, "duration": 63}, {"note": 77, "velocity": 90, "duration": 97}, {"note": 77, "velocity": 88, "duration": 125}, {"note": 75, "velocity": 93, "duration": 117}, {"note": 72, "velocity": 92, "duration": 107}, {"note": 77, "velocity": 90, "duration": 113}, {"note": 77, "velocity": 87, "duration": 101}, {"note": 0, "velocity": 0, "duration": 61}, {"note": 77, "velocity": 90, "duration": 97}, {"note": 77, "velocity": 88, "duration": 128}, {"note": 0, "velocity": 0, "duration": 130}, {"note": 75, "velocity": 93, "duration": 138}, {"note": 0, "velocity": 0, "duration": 95}, {"note": 79, "velocity": 86, "duration": 215}, {"note": 77, "velocity": 92, "duration": 186}, {"note": 0, "velocity": 0, "duration": 93}, {"note": 77, "velocity": 92, "duration": 174}, {"note": 0, "velocity": 0, "duration": 66}, {"note": 75, "velocity": 93, "duration": 74}, {"note": 72, "velocity": 88, "duration": 82}, {"note": 70, "velocity": 86, "duration": 240}, {"note": 0, "velocity": 0, "duration": 120}, {"note": 70, "velocity": 92, "duration": 62}, {"note": 75, "velocity": 93, "duration": 74}, {"note": 77, "velocity": 92, "duration": 309}, {"note": 79, "velocity": 87, "duration": 113}, {"note": 79, "velocity": 87, "duration": 92}, {"note": 0, "velocity": 0, "duration": 68}, {"note": 79, "velocity": 87, "duration": 98}, {"note": 0, "velocity": 0, "duration": 62}, {"note": 79, "velocity": 89, "duration": 113}, {"note": 77, "velocity": 92, "duration": 116}, {"note": 75, "velocity": 90, "duration": 111}, {"note": 79, "velocity": 90, "duration": 110}, {"note": 79, "velocity": 86, "duration": 92}, {"note": 0, "velocity": 0, "duration": 68}, {"note": 79, "velocity": 89, "duration": 102}, {"note": 79, "velocity": 88, "duration": 117}, {"note": 77, "velocity": 90, "duration": 101}, {"note": 75, "velocity": 90, "duration": 92}, {"note": 0, "velocity": 0, "duration": 68}, {"note": 77, "velocity": 86, "duration": 101}, {"note": 75, "velocity": 80, "duration": 96}, {"note": 0, "velocity": 0, "duration": 64}, {"note": 75, "velocity": 82, "duration": 94}, {"note": 0, "velocity": 0, "duration": 66}, {"note": 75, "velocity": 84, "duration": 169}, {"note": 0, "velocity": 0, "duration": 71}, {"note": 74, "velocity": 84, "duration": 240}, {"note": 75, "velocity": 86, "duration": 362}, {"note": 0, "velocity": 0, "duration": 358}, {"note": 72, "velocity": 97, "duration": 120}, {"note": 75, "velocity": 95, "duration": 120}, {"note": 75, "velocity": 92, "duration": 13}, {"note": 0, "velocity": 0, "duration": 233}, {"note": 74, "velocity": 87, "duration": 176}, {"note": 0, "velocity": 0, "duration": 68}, {"note": 75, "velocity": 97, "duration": 202}, {"note": 0, "velocity": 0, "duration": 152}, {"note": 75, "velocity": 97, "duration": 101}, {"note": 77, "velocity": 87, "duration": 168}, {"note": 77, "velocity": 93, "duration": 169}, {"note": 0, "velocity": 0, "duration": 95}, {"note": 75, "velocity": 95, "duration": 92}, {"note": 74, "velocity": 87, "duration": 322}, {"note": 75, "velocity": 90, "duration": 1438}, {"note": 0, "velocity": 0, "duration": 13922}, {"note": 67, "velocity": 88, "duration": 188}, {"note": 70, "velocity": 87, "duration": 141}, {"note": 0, "velocity": 0, "duration": 99}, {"note": 70, "velocity": 88, "duration": 174}, {"note": 0, "velocity": 0, "duration": 66}, {"note": 67, "velocity": 86, "duration": 165}, {"note": 0, "velocity": 0, "duration": 75}, {"note": 67, "velocity": 86, "duration": 402}, {"note": 0, "velocity": 0, "duration": 78}, {"note": 63, "velocity": 86, "duration": 188}, {"note": 65, "velocity": 90, "duration": 202}, {"note": 67, "velocity": 91, "duration": 201}, {"note": 72, "velocity": 90, "duration": 149}, {"note": 0, "velocity": 0, "duration": 91}, {"note": 72, "velocity": 88, "duration": 170}, {"note": 0, "velocity": 0, "duration": 70}, {"note": 70, "velocity": 81, "duration": 80}, {"note": 72, "velocity": 86, "duration": 880}, {"note": 0, "velocity": 0, "duration": 200}, {"note": 72, "velocity": 87, "duration": 88}, {"note": 72, "velocity": 90, "duration": 162}, {"note": 0, "velocity": 0, "duration": 78}, {"note": 72, "velocity": 87, "duration": 81}, {"note": 72, "velocity": 87, "duration": 190}, {"note": 70, "velocity": 87, "duration": 165}, {"note": 0, "velocity": 0, "duration": 75}, {"note": 72, "velocity": 87, "duration": 74}, {"note": 72, "velocity": 87, "duration": 133}, {"note": 0, "velocity": 0, "duration": 107}, {"note": 72, "velocity": 82, "duration": 74}, {"note": 72, "velocity": 87, "duration": 153}, {"note": 0, "velocity": 0, "duration": 87}, {"note": 67, "velocity": 88, "duration": 165}, {"note": 0, "velocity": 0, "duration": 75}, {"note": 67, "velocity": 90, "duration": 240}, {"note": 65, "velocity": 89, "duration": 165}, {"note": 0, "velocity": 0, "duration": 75}, {"note": 65, "velocity": 91, "duration": 172}, {"note": 0, "velocity": 0, "duration": 68}, {"note": 67, "velocity": 87, "duration": 198}, {"note": 70, "velocity": 87, "duration": 794}, {"note": 0, "velocity": 0, "duration": 166}, {"note": 67, "velocity": 88, "duration": 188}, {"note": 70, "velocity": 87, "duration": 141}, {"note": 0, "velocity": 0, "duration": 99}, {"note": 70, "velocity": 88, "duration": 174}, {"note": 0, "velocity": 0, "duration": 66}, {"note": 67, "velocity": 86, "duration": 165}, {"note": 0, "velocity": 0, "duration": 75}, {"note": 67, "velocity": 86, "duration": 402}, {"note": 0, "velocity": 0, "duration": 78}, {"note": 63, "velocity": 86, "duration": 188}, {"note": 65, "velocity": 90, "duration": 202}, {"note": 67, "velocity": 91, "duration": 201}, {"note": 72, "velocity": 90, "duration": 149}, {"note": 0, "velocity": 0, "duration": 91}, {"note": 72, "velocity": 88, "duration": 170}, {"note": 0, "velocity": 0, "duration": 70}, {"note": 70, "velocity": 81, "duration": 80}, {"note": 72, "velocity": 86, "duration": 880}, {"note": 0, "velocity": 0, "duration": 200}, {"note": 72, "velocity": 87, "duration": 88}, {"note": 72, "velocity": 90, "duration": 162}, {"note": 0, "velocity": 0, "duration": 78}, {"note": 72, "velocity": 87, "duration": 81}, {"note": 72, "velocity": 87, "duration": 190}, {"note": 70, "velocity": 87, "duration": 165}, {"note": 0, "velocity": 0, "duration": 75}, {"note": 72, "velocity": 87, "duration": 74}, {"note": 72, "velocity": 87, "duration": 133}, {"note": 0, "velocity": 0, "duration": 107}, {"note": 72, "velocity": 82, "duration": 74}, {"note": 72, "velocity": 87, "duration": 153}, {"note": 0, "velocity": 0, "duration": 87}, {"note": 70, "velocity": 88, "duration": 165}, {"note": 0, "velocity": 0, "duration": 75}, {"note": 70, "velocity": 90, "duration": 240}, {"note": 70, "velocity": 89, "duration": 165}, {"note": 0, "velocity": 0, "duration": 75}, {"note": 70, "velocity": 91, "duration": 172}, {"note": 0, "velocity": 0, "duration": 68}, {"note": 72, "velocity": 87, "duration": 120}, {"note": 74, "velocity": 87, "duration": 794}, {"note": 0, "velocity": 0, "duration": 526}, {"note": 74, "velocity": 74, "duration": 113}, {"note": 0, "velocity": 0, "duration": 127}, {"note": 74, "velocity": 90, "duration": 152}, {"note": 0, "velocity": 0, "duration": 88}, {"note": 74, "velocity": 92, "duration": 78}, {"note": 0, "velocity": 0, "duration": 162}, {"note": 74, "velocity": 90, "duration": 240}, {"note": 67, "velocity": 93, "duration": 154}, {"note": 0, "velocity": 0, "duration": 86}, {"note": 67, "velocity": 93, "duration": 152}, {"note": 0, "velocity": 0, "duration": 88}, {"note": 77, "velocity": 90, "duration": 107}, {"note": 0, "velocity": 0, "duration": 133}, {"note": 77, "velocity": 88, "duration": 180}, {"note": 75, "velocity": 93, "duration": 147}, {"note": 0, "velocity": 0, "duration": 93}, {"note": 75, "velocity": 93, "duration": 180}, {"note": 74, "velocity": 87, "duration": 95}, {"note": 72, "velocity": 88, "duration": 1024}, {"note": 0, "velocity": 0, "duration": 296}, {"note": 74, "velocity": 74, "duration": 113}, {"note": 0, "velocity": 0, "duration": 127}, {"note": 74, "velocity": 90, "duration": 152}, {"note": 0, "velocity": 0, "duration": 88}, {"note": 74, "velocity": 92, "duration": 78}, {"note": 0, "velocity": 0, "duration": 162}, {"note": 74, "velocity": 90, "duration": 240}, {"note": 67, "velocity": 93, "duration": 154}, {"note": 0, "velocity": 0, "duration": 86}, {"note": 67, "velocity": 93, "duration": 152}, {"note": 0, "velocity": 0, "duration": 88}, {"note": 77, "velocity": 90, "duration": 107}, {"note": 0, "velocity": 0, "duration": 133}, {"note": 77, "velocity": 88, "duration": 180}, {"note": 75, "velocity": 93, "duration": 147}, {"note": 0, "velocity": 0, "duration": 93}, {"note": 75, "velocity": 93, "duration": 180}, {"note": 74, "velocity": 87, "duration": 95}, {"note": 75, "velocity": 88, "duration": 840}, {"note": 72, "velocity": 93, "duration": 183}, {"note": 79, "velocity": 87, "duration": 177}, {"note": 0, "velocity": 0, "duration": 63}, {"note": 77, "velocity": 89, "duration": 146}, {"note": 0, "velocity": 0, "duration": 94}, {"note": 77, "velocity": 92, "duration": 162}, {"note": 0, "velocity": 0, "duration": 78}, {"note": 75, "velocity": 97, "duration": 154}, {"note": 0, "velocity": 0, "duration": 86}, {"note": 75, "velocity": 93, "duration": 187}, {"note": 72, "velocity": 90, "duration": 187}, {"note": 72, "velocity": 88, "duration": 73}, {"note": 75, "velocity": 88, "duration": 281}, {"note": 0, "velocity": 0, "duration": 79}, {"note": 74, "velocity": 87, "duration": 180}, {"note": 74, "velocity": 82, "duration": 76}, {"note": 74, "velocity": 87, "duration": 64}, {"note": 74, "velocity": 87, "duration": 159}, {"note": 0, "velocity": 0, "duration": 81}, {"note": 75, "velocity": 92, "duration": 152}, {"note": 0, "velocity": 0, "duration": 88}, {"note": 77, "velocity": 92, "duration": 268}, {"note": 0, "velocity": 0, "duration": 92}, {"note": 70, "velocity": 92, "duration": 62}, {"note": 75, "velocity": 93, "duration": 74}, {"note": 77, "velocity": 92, "duration": 309}, {"note": 79, "velocity": 87, "duration": 113}, {"note": 79, "velocity": 87, "duration": 92}, {"note": 0, "velocity": 0, "duration": 68}, {"note": 79, "velocity": 87, "duration": 98}, {"note": 0, "velocity": 0, "duration": 62}, {"note": 79, "velocity": 89, "duration": 113}, {"note": 77, "velocity": 92, "duration": 116}, {"note": 75, "velocity": 90, "duration": 111}, {"note": 79, "velocity": 90, "duration": 110}, {"note": 79, "velocity": 86, "duration": 92}, {"note": 0, "velocity": 0, "duration": 68}, {"note": 79, "velocity": 89, "duration": 102}, {"note": 79, "velocity": 88, "duration": 117}, {"note": 77, "velocity": 90, "duration": 101}, {"note": 75, "velocity": 90, "duration": 92}, {"note": 0, "velocity": 0, "duration": 68}, {"note": 75, "velocity": 86, "duration": 101}, {"note": 75, "velocity": 80, "duration": 96}, {"note": 0, "velocity": 0, "duration": 64}, {"note": 75, "velocity": 82, "duration": 94}, {"note": 0, "velocity": 0, "duration": 66}, {"note": 75, "velocity": 84, "duration": 169}, {"note": 0, "velocity": 0, "duration": 71}, {"note": 74, "velocity": 84, "duration": 240}, {"note": 72, "velocity": 86, "duration": 362}, {"note": 0, "velocity": 0, "duration": 102}, {"note": 72, "velocity": 97, "duration": 185}, {"note": 75, "velocity": 95, "duration": 156}, {"note": 0, "velocity": 0, "duration": 64}, {"note": 77, "velocity": 89, "duration": 134}, {"note": 77, "velocity": 88, "duration": 99}, {"note": 0, "velocity": 0, "duration": 63}, {"note": 77, "velocity": 90, "duration": 97}, {"note": 77, "velocity": 88, "duration": 125}, {"note": 75, "velocity": 93, "duration": 117}, {"note": 72, "velocity": 92, "duration": 107}, {"note": 77, "velocity": 90, "duration": 113}, {"note": 77, "velocity": 87, "duration": 101}, {"note": 0, "velocity": 0, "duration": 61}, {"note": 77, "velocity": 90, "duration": 97}, {"note": 77, "velocity": 88, "duration": 128}, {"note": 0, "velocity": 0, "duration": 130}, {"note": 75, "velocity": 93, "duration": 138}, {"note": 0, "velocity": 0, "duration": 95}, {"note": 79, "velocity": 86, "duration": 215}, {"note": 77, "velocity": 92, "duration": 186}, {"note": 0, "velocity": 0, "duration": 93}, {"note": 77, "velocity": 92, "duration": 174}, {"note": 0, "velocity": 0, "duration": 66}, {"note": 75, "velocity": 93, "duration": 74}, {"note": 72, "velocity": 88, "duration": 82}, {"note": 70, "velocity": 86, "duration": 240}, {"note": 0, "velocity": 0, "duration": 120}, {"note": 70, "velocity": 92, "duration": 62}, {"note": 75, "velocity": 93, "duration": 74}, {"note": 77, "velocity": 92, "duration": 309}, {"note": 79, "velocity": 87, "duration": 113}, {"note": 79, "velocity": 87, "duration": 92}, {"note": 0, "velocity": 0, "duration": 68}, {"note": 79, "velocity": 87, "duration": 98}, {"note": 0, "velocity": 0, "duration": 62}, {"note": 79, "velocity": 89, "duration": 113}, {"note": 77, "velocity": 92, "duration": 116}, {"note": 75, "velocity": 90, "duration": 111}, {"note": 79, "velocity": 90, "duration": 110}, {"note": 79, "velocity": 86, "duration": 92}, {"note": 0, "velocity": 0, "duration": 68}, {"note": 79, "velocity": 89, "duration": 102}, {"note": 79, "velocity": 88, "duration": 117}, {"note": 77, "velocity": 90, "duration": 101}, {"note": 75, "velocity": 90, "duration": 92}, {"note": 0, "velocity": 0, "duration": 68}, {"note": 77, "velocity": 86, "duration": 101}, {"note": 75, "velocity": 80, "duration": 96}, {"note": 0, "velocity": 0, "duration": 64}, {"note": 75, "velocity": 82, "duration": 94}, {"note": 0, "velocity": 0, "duration": 66}, {"note": 75, "velocity": 84, "duration": 169}, {"note": 0, "velocity": 0, "duration": 71}, {"note": 74, "velocity": 84, "duration": 240}, {"note": 75, "velocity": 86, "duration": 362}, {"note": 0, "velocity": 0, "duration": 358}, {"note": 72, "velocity": 97, "duration": 120}, {"note": 75, "velocity": 95, "duration": 120}, {"note": 75, "velocity": 92, "duration": 13}, {"note": 0, "velocity": 0, "duration": 233}, {"note": 74, "velocity": 87, "duration": 176}, {"note": 0, "velocity": 0, "duration": 68}, {"note": 75, "velocity": 97, "duration": 202}, {"note": 0, "velocity": 0, "duration": 152}, {"note": 75, "velocity": 97, "duration": 101}, {"note": 77, "velocity": 87, "duration": 168}, {"note": 77, "velocity": 93, "duration": 169}, {"note": 0, "velocity": 0, "duration": 95}, {"note": 75, "velocity": 95, "duration": 92}, {"note": 74, "velocity": 87, "duration": 322}, {"note": 75, "velocity": 90, "duration": 1080}, {"note": 0, "velocity": 0, "duration": 120}, {"note": 70, "velocity": 92, "duration": 240}, {"note": 75, "velocity": 93, "duration": 240}, {"note": 77, "velocity": 92, "duration": 189}, {"note": 79, "velocity": 87, "duration": 113}, {"note": 79, "velocity": 87, "duration": 92}, {"note": 0, "velocity": 0, "duration": 68}, {"note": 79, "velocity": 87, "duration": 98}, {"note": 0, "velocity": 0, "duration": 62}, {"note": 79, "velocity": 89, "duration": 113}, {"note": 77, "velocity": 92, "duration": 116}, {"note": 75, "velocity": 90, "duration": 111}, {"note": 79, "velocity": 90, "duration": 110}, {"note": 79, "velocity": 86, "duration": 92}, {"note": 0, "velocity": 0, "duration": 68}, {"note": 79, "velocity": 89, "duration": 102}, {"note": 79, "velocity": 88, "duration": 117}, {"note": 77, "velocity": 90, "duration": 101}, {"note": 75, "velocity": 90, "duration": 92}, {"note": 0, "velocity": 0, "duration": 68}, {"note": 75, "velocity": 86, "duration": 101}, {"note": 75, "velocity": 80, "duration": 96}, {"note": 0, "velocity": 0, "duration": 64}, {"note": 75, "velocity": 82, "duration": 94}, {"note": 0, "velocity": 0, "duration": 66}, {"note": 75, "velocity": 84, "duration": 169}, {"note": 0, "velocity": 0, "duration": 71}, {"note": 74, "velocity": 84, "duration": 240}, {"note": 72, "velocity": 86, "duration": 362}, {"note": 0, "velocity": 0, "duration": 102}, {"note": 72, "velocity": 97, "duration": 185}, {"note": 75, "velocity": 95, "duration": 156}, {"note": 0, "velocity": 0, "duration": 64}, {"note": 77, "velocity": 89, "duration": 134}, {"note": 77, "velocity": 88, "duration": 99}, {"note": 0, "velocity": 0, "duration": 63}, {"note": 77, "velocity": 90, "duration": 97}, {"note": 77, "velocity": 88, "duration": 125}, {"note": 75, "velocity": 93, "duration": 117}, {"note": 72, "velocity": 92, "duration": 107}, {"note": 77, "velocity": 90, "duration": 113}, {"note": 77, "velocity": 87, "duration": 101}, {"note": 0, "velocity": 0, "duration": 61}, {"note": 77, "velocity": 90, "duration": 97}, {"note": 77, "velocity": 88, "duration": 128}, {"note": 0, "velocity": 0, "duration": 130}, {"note": 75, "velocity": 93, "duration": 138}, {"note": 0, "velocity": 0, "duration": 95}, {"note": 79, "velocity": 86, "duration": 215}, {"note": 77, "velocity": 92, "duration": 186}, {"note": 0, "velocity": 0, "duration": 93}, {"note": 77, "velocity": 92, "duration": 174}, {"note": 0, "velocity": 0, "duration": 66}, {"note": 75, "velocity": 93, "duration": 74}, {"note": 72, "velocity": 88, "duration": 82}, {"note": 70, "velocity": 86, "duration": 240}, {"note": 0, "velocity": 0, "duration": 120}, {"note": 70, "velocity": 92, "duration": 62}, {"note": 75, "velocity": 93, "duration": 74}, {"note": 77, "velocity": 92, "duration": 309}, {"note": 79, "velocity": 87, "duration": 113}, {"note": 79, "velocity": 87, "duration": 92}, {"note": 0, "velocity": 0, "duration": 68}, {"note": 79, "velocity": 87, "duration": 98}, {"note": 0, "velocity": 0, "duration": 62}, {"note": 79, "velocity": 89, "duration": 113}, {"note": 77, "velocity": 92, "duration": 116}, {"note": 75, "velocity": 90, "duration": 111}, {"note": 79, "velocity": 90, "duration": 110}, {"note": 79, "velocity": 86, "duration": 92}, {"note": 0, "velocity": 0, "duration": 68}, {"note": 79, "velocity": 89, "duration": 102}, {"note": 79, "velocity": 88, "duration": 117}, {"note": 77, "velocity": 90, "duration": 101}, {"note": 75, "velocity": 90, "duration": 92}, {"note": 0, "velocity": 0, "duration": 68}, {"note": 77, "velocity": 86, "duration": 101}, {"note": 75, "velocity": 80, "duration": 96}, {"note": 0, "velocity": 0, "duration": 64}, {"note": 75, "velocity": 82, "duration": 94}, {"note": 0, "velocity": 0, "duration": 66}, {"note": 75, "velocity": 84, "duration": 169}, {"note": 0, "velocity": 0, "duration": 71}, {"note": 74, "velocity": 84, "duration": 240}, {"note": 75, "velocity": 86, "duration": 362}, {"note": 0, "velocity": 0, "duration": 358}, {"note": 72, "velocity": 97, "duration": 120}, {"note": 75, "velocity": 95, "duration": 120}, {"note": 75, "velocity": 92, "duration": 13}, {"note": 0, "velocity": 0, "duration": 233}, {"note": 74, "velocity": 87, "duration": 176}, {"note": 0, "velocity": 0, "duration": 68}, {"note": 75, "velocity": 97, "duration": 202}, {"note": 0, "velocity": 0, "duration": 152}, {"note": 75, "velocity": 97, "duration": 101}, {"note": 77, "velocity": 87, "duration": 168}, {"note": 77, "velocity": 93, "duration": 169}, {"note": 0, "velocity": 0, "duration": 95}, {"note": 75, "velocity": 95, "duration": 92}, {"note": 74, "velocity": 87, "duration": 322}, {"note": 75, "velocity": 90, "duration": 1438}]]