[[{"note": 70, "velocity": 84, "duration": 177}, {"note": 0, "velocity": 0, "duration": 63}, {"note": 70, "velocity": 83, "duration": 183}, {"note": 70, "velocity": 83, "duration": 180}, {"note": 70, "velocity": 86, "duration": 186}, {"note": 68, "velocity": 80, "duration": 88}, {"note": 67, "velocity": 81, "duration": 269}, {"note": 0, "velocity": 0, "duration": 91}, {"note": 67, "velocity": 85, "duration": 79}, {"note": 68, "velocity": 84, "duration": 71}, {"note": 70, "velocity": 84, "duration": 173}, {"note": 0, "velocity": 0, "duration": 67}, {"note": 70, "velocity": 83, "duration": 170}, {"note": 0, "velocity": 0, "duration": 70}, {"note": 70, "velocity": 85, "duration": 165}, {"note": 0, "velocity": 0, "duration": 75}, {"note": 68, "velocity": 86, "duration": 120}, {"note": 67, "velocity": 86, "duration": 480}, {"note": 0, "velocity": 0, "duration": 120}, {"note": 67, "velocity": 85, "duration": 87}, {"note": 75, "velocity": 94, "duration": 198}, {"note": 75, "velocity": 88, "duration": 79}, {"note": 72, "velocity": 72, "duration": 229}, {"note": 70, "velocity": 78, "duration": 87}, {"note": 72, "velocity": 84, "duration": 332}, {"note": 75, "velocity": 92, "duration": 251}, {"note": 0, "velocity": 0, "duration": 109}, {"note": 74, "velocity": 87, "duration": 191}, {"note": 72, "velocity": 83, "duration": 73}, {"note": 72, "velocity": 86, "duration": 223}, {"note": 74, "velocity": 89, "duration": 342}, {"note": 70, "velocity": 87, "duration": 992}, {"note": 0, "velocity": 0, "duration": 208}, {"note": 67, "velocity": 86, "duration": 230}, {"note": 68, "velocity": 84, "duration": 238}, {"note": 70, "velocity": 89, "duration": 254}, {"note": 72, "velocity": 86, "duration": 493}, {"note": 67, "velocity": 85, "duration": 376}, {"note": 65, "velocity": 84, "duration": 543}, {"note": 65, "velocity": 90, "duration": 204}, {"note": 74, "velocity": 83, "duration": 177}, {"note": 0, "velocity": 0, "duration": 63}, {"note": 70, "velocity": 87, "duration": 418}, {"note": 0, "velocity": 0, "duration": 62}, {"note": 68, "velocity": 84, "duration": 297}, {"note": 0, "velocity": 0, "duration": 63}, {"note": 67, "velocity": 81, "duration": 630}, {"note": 0, "velocity": 0, "duration": 210}, {"note": 67, "velocity": 85, "duration": 201}, {"note": 68, "velocity": 85, "duration": 218}, {"note": 67, "velocity": 89, "duration": 248}, {"note": 68, "velocity": 82, "duration": 251}, {"note": 67, "velocity": 86, "duration": 237}, {"note": 68, "velocity": 84, "duration": 388}, {"note": 0, "velocity": 0, "duration": 92}, {"note": 70, "velocity": 90, "duration": 240}, {"note": 65, "velocity": 92, "duration": 1225}, {"note": 0, "velocity": 0, "duration": 1175}, {"note": 70, "velocity": 84, "duration": 177}, {"note": 0, "velocity": 0, "duration": 63}, {"note": 70, "velocity": 83, "duration": 183}, {"note": 70, "velocity": 83, "duration": 180}, {"note": 70, "velocity": 86, "duration": 186}, {"note": 68, "velocity": 80, "duration": 88}, {"note": 67, "velocity": 81, "duration": 269}, {"note": 0, "velocity": 0, "duration": 91}, {"note": 67, "velocity": 85, "duration": 79}, {"note": 68, "velocity": 84, "duration": 71}, {"note": 70, "velocity": 84, "duration": 173}, {"note": 0, "velocity": 0, "duration": 67}, {"note": 70, "velocity": 83, "duration": 170}, {"note": 0, "velocity": 0, "duration": 70}, {"note": 70, "velocity": 85, "duration": 165}, {"note": 0, "velocity": 0, "duration": 75}, {"note": 68, "velocity": 86, "duration": 120}, {"note": 68, "velocity": 86, "duration": 240}, {"note": 67, "velocity": 86, "duration": 240}, {"note": 0, "velocity": 0, "duration": 120}, {"note": 67, "velocity": 85, "duration": 87}, {"note": 75, "velocity": 94, "duration": 198}, {"note": 0, "velocity": 0, "duration": 162}, {"note": 72, "velocity": 72, "duration": 229}, {"note": 70, "velocity": 78, "duration": 87}, {"note": 72, "velocity": 84, "duration": 332}, {"note": 75, "velocity": 92, "duration": 251}, {"note": 0, "velocity": 0, "duration": 109}, {"note": 74, "velocity": 87, "duration": 191}, {"note": 72, "velocity": 83, "duration": 73}, {"note": 72, "velocity": 86, "duration": 223}, {"note": 74, "velocity": 89, "duration": 342}, {"note": 70, "velocity": 87, "duration": 992}, {"note": 0, "velocity": 0, "duration": 208}, {"note": 67, "velocity": 86, "duration": 230}, {"note": 68, "velocity": 84, "duration": 238}, {"note": 70, "velocity": 89, "duration": 254}, {"note": 72, "velocity": 86, "duration": 493}, {"note": 79, "velocity": 85, "duration": 376}, {"note": 77, "velocity": 84, "duration": 543}, {"note": 74, "velocity": 90, "duration": 204}, {"note": 72, "velocity": 83, "duration": 177}, {"note": 0, "velocity": 0, "duration": 63}, {"note": 70, "velocity": 87, "duration": 418}, {"note": 0, "velocity": 0, "duration": 62}, {"note": 80, "velocity": 84, "duration": 297}, {"note": 0, "velocity": 0, "duration": 63}, {"note": 79, "velocity": 81, "duration": 630}, {"note": 0, "velocity": 0, "duration": 210}, {"note": 67, "velocity": 85, "duration": 201}, {"note": 68, "velocity": 85, "duration": 218}, {"note": 70, "velocity": 89, "duration": 248}, {"note": 72, "velocity": 82, "duration": 251}, {"note": 74, "velocity": 86, "duration": 237}, {"note": 75, "velocity": 84, "duration": 600}, {"note": 0, "velocity": 0, "duration": 120}, {"note": 77, "velocity": 90, "duration": 240}, {"note": 75, "velocity": 92, "duration": 1225}, {"note": 0, "velocity": 0, "duration": 455}, {"note": 74, "velocity": 84, "duration": 129}, {"note": 75, "velocity": 90, "duration": 129}, {"note": 82, "velocity": 86, "duration": 246}, {"note": 75, "velocity": 89, "duration": 240}, {"note": 75, "velocity": 89, "duration": 364}, {"note": 0, "velocity": 0, "duration": 116}, {"note": 74, "velocity": 94, "duration": 184}, {"note": 75, "velocity": 99, "duration": 77}, {"note": 77, "velocity": 87, "duration": 217}, {"note": 75, "velocity": 88, "duration": 87}, {"note": 77, "velocity": 99, "duration": 87}, {"note": 75, "velocity": 90, "duration": 78}, {"note": 82, "velocity": 86, "duration": 198}, {"note": 74, "velocity": 89, "duration": 120}, {"note": 74, "velocity": 86, "duration": 274}, {"note": 0, "velocity": 0, "duration": 206}, {"note": 70, "velocity": 86, "duration": 72}, {"note": 70, "velocity": 87, "duration": 77}, {"note": 74, "velocity": 85, "duration": 174}, {"note": 0, "velocity": 0, "duration": 66}, {"note": 75, "velocity": 97, "duration": 258}, {"note": 0, "velocity": 0, "duration": 102}, {"note": 72, "velocity": 87, "duration": 122}, {"note": 74, "velocity": 80, "duration": 66}, {"note": 75, "velocity": 94, "duration": 195}, {"note": 68, "velocity": 83, "duration": 71}, {"note": 68, "velocity": 84, "duration": 316}, {"note": 75, "velocity": 94, "duration": 71}, {"note": 77, "velocity": 87, "duration": 74}, {"note": 75, "velocity": 94, "duration": 183}, {"note": 70, "velocity": 85, "duration": 68}, {"note": 70, "velocity": 87, "duration": 384}, {"note": 0, "velocity": 0, "duration": 96}, {"note": 70, "velocity": 90, "duration": 79}, {"note": 80, "velocity": 88, "duration": 360}, {"note": 82, "velocity": 85, "duration": 309}, {"note": 77, "velocity": 82, "duration": 73}, {"note": 79, "velocity": 84, "duration": 412}, {"note": 0, "velocity": 0, "duration": 308}, {"note": 75, "velocity": 84, "duration": 129}, {"note": 77, "velocity": 84, "duration": 129}, {"note": 75, "velocity": 90, "duration": 129}, {"note": 82, "velocity": 86, "duration": 246}, {"note": 75, "velocity": 89, "duration": 240}, {"note": 75, "velocity": 89, "duration": 364}, {"note": 0, "velocity": 0, "duration": 116}, {"note": 74, "velocity": 94, "duration": 184}, {"note": 75, "velocity": 99, "duration": 77}, {"note": 77, "velocity": 87, "duration": 217}, {"note": 75, "velocity": 88, "duration": 87}, {"note": 77, "velocity": 99, "duration": 87}, {"note": 75, "velocity": 90, "duration": 78}, {"note": 82, "velocity": 86, "duration": 198}, {"note": 74, "velocity": 89, "duration": 120}, {"note": 74, "velocity": 86, "duration": 274}, {"note": 0, "velocity": 0, "duration": 206}, {"note": 70, "velocity": 86, "duration": 72}, {"note": 70, "velocity": 87, "duration": 77}, {"note": 74, "velocity": 85, "duration": 174}, {"note": 0, "velocity": 0, "duration": 66}, {"note": 75, "velocity": 97, "duration": 258}, {"note": 0, "velocity": 0, "duration": 102}, {"note": 72, "velocity": 87, "duration": 122}, {"note": 74, "velocity": 80, "duration": 66}, {"note": 75, "velocity": 94, "duration": 195}, {"note": 68, "velocity": 83, "duration": 71}, {"note": 68, "velocity": 84, "duration": 316}, {"note": 0, "velocity": 0, "duration": 164}, {"note": 75, "velocity": 94, "duration": 71}, {"note": 74, "velocity": 94, "duration": 183}, {"note": 75, "velocity": 85, "duration": 68}, {"note": 75, "velocity": 87, "duration": 360}, {"note": 77, "velocity": 86, "duration": 94}, {"note": 77, "velocity": 87, "duration": 331}, {"note": 75, "velocity": 87, "duration": 1264}, {"note": 0, "velocity": 0, "duration": 6416}, {"note": 70, "velocity": 84, "duration": 177}, {"note": 0, "velocity": 0, "duration": 63}, {"note": 70, "velocity": 83, "duration": 183}, {"note": 70, "velocity": 83, "duration": 180}, {"note": 70, "velocity": 86, "duration": 186}, {"note": 68, "velocity": 80, "duration": 88}, {"note": 67, "velocity": 81, "duration": 269}, {"note": 0, "velocity": 0, "duration": 91}, {"note": 67, "velocity": 85, "duration": 79}, {"note": 68, "velocity": 84, "duration": 71}, {"note": 70, "velocity": 84, "duration": 173}, {"note": 0, "velocity": 0, "duration": 67}, {"note": 70, "velocity": 83, "duration": 170}, {"note": 0, "velocity": 0, "duration": 70}, {"note": 70, "velocity": 85, "duration": 165}, {"note": 0, "velocity": 0, "duration": 75}, {"note": 68, "velocity": 86, "duration": 120}, {"note": 67, "velocity": 86, "duration": 480}, {"note": 0, "velocity": 0, "duration": 120}, {"note": 67, "velocity": 85, "duration": 87}, {"note": 75, "velocity": 94, "duration": 198}, {"note": 75, "velocity": 88, "duration": 79}, {"note": 72, "velocity": 72, "duration": 229}, {"note": 70, "velocity": 78, "duration": 87}, {"note": 72, "velocity": 84, "duration": 332}, {"note": 75, "velocity": 92, "duration": 251}, {"note": 0, "velocity": 0, "duration": 109}, {"note": 74, "velocity": 87, "duration": 191}, {"note": 72, "velocity": 83, "duration": 73}, {"note": 72, "velocity": 86, "duration": 223}, {"note": 74, "velocity": 89, "duration": 342}, {"note": 70, "velocity": 87, "duration": 992}, {"note": 0, "velocity": 0, "duration": 208}, {"note": 67, "velocity": 86, "duration": 230}, {"note": 68, "velocity": 84, "duration": 238}, {"note": 70, "velocity": 89, "duration": 254}, {"note": 72, "velocity": 86, "duration": 493}, {"note": 67, "velocity": 85, "duration": 376}, {"note": 65, "velocity": 84, "duration": 543}, {"note": 65, "velocity": 90, "duration": 204}, {"note": 74, "velocity": 83, "duration": 177}, {"note": 0, "velocity": 0, "duration": 63}, {"note": 70, "velocity": 87, "duration": 418}, {"note": 0, "velocity": 0, "duration": 62}, {"note": 68, "velocity": 84, "duration": 297}, {"note": 0, "velocity": 0, "duration": 63}, {"note": 67, "velocity": 81, "duration": 630}, {"note": 0, "velocity": 0, "duration": 210}, {"note": 67, "velocity": 85, "duration": 201}, {"note": 68, "velocity": 85, "duration": 218}, {"note": 67, "velocity": 89, "duration": 248}, {"note": 68, "velocity": 82, "duration": 251}, {"note": 67, "velocity": 86, "duration": 237}, {"note": 68, "velocity": 84, "duration": 388}, {"note": 0, "velocity": 0, "duration": 92}, {"note": 70, "velocity": 90, "duration": 240}, {"note": 65, "velocity": 92, "duration": 1225}, {"note": 0, "velocity": 0, "duration": 1175}, {"note": 70, "velocity": 84, "duration": 177}, {"note": 0, "velocity": 0, "duration": 63}, {"note": 70, "velocity": 83, "duration": 183}, {"note": 70, "velocity": 83, "duration": 180}, {"note": 70, "velocity": 86, "duration": 186}, {"note": 68, "velocity": 80, "duration": 88}, {"note": 67, "velocity": 81, "duration": 269}, {"note": 0, "velocity": 0, "duration": 91}, {"note": 67, "velocity": 85, "duration": 79}, {"note": 68, "velocity": 84, "duration": 71}, {"note": 70, "velocity": 84, "duration": 173}, {"note": 0, "velocity": 0, "duration": 67}, {"note": 70, "velocity": 83, "duration": 170}, {"note": 0, "velocity": 0, "duration": 70}, {"note": 70, "velocity": 85, "duration": 165}, {"note": 0, "velocity": 0, "duration": 75}, {"note": 68, "velocity": 86, "duration": 120}, {"note": 68, "velocity": 86, "duration": 240}, {"note": 67, "velocity": 86, "duration": 240}, {"note": 0, "velocity": 0, "duration": 120}, {"note": 67, "velocity": 85, "duration": 87}, {"note": 75, "velocity": 94, "duration": 198}, {"note": 0, "velocity": 0, "duration": 162}, {"note": 72, "velocity": 72, "duration": 229}, {"note": 70, "velocity": 78, "duration": 87}, {"note": 72, "velocity": 84, "duration": 332}, {"note": 75, "velocity": 92, "duration": 251}, {"note": 0, "velocity": 0, "duration": 109}, {"note": 74, "velocity": 87, "duration": 191}, {"note": 72, "velocity": 83, "duration": 73}, {"note": 72, "velocity": 86, "duration": 223}, {"note": 74, "velocity": 89, "duration": 342}, {"note": 70, "velocity": 87, "duration": 992}, {"note": 0, "velocity": 0, "duration": 208}, {"note": 67, "velocity": 86, "duration": 230}, {"note": 68, "velocity": 84, "duration": 238}, {"note": 70, "velocity": 89, "duration": 254}, {"note": 72, "velocity": 86, "duration": 493}, {"note": 79, "velocity": 85, "duration": 376}, {"note": 77, "velocity": 84, "duration": 543}, {"note": 74, "velocity": 90, "duration": 204}, {"note": 72, "velocity": 83, "duration": 177}, {"note": 0, "velocity": 0, "duration": 63}, {"note": 70, "velocity": 87, "duration": 418}, {"note": 0, "velocity": 0, "duration": 62}, {"note": 80, "velocity": 84, "duration": 297}, {"note": 0, "velocity": 0, "duration": 63}, {"note": 79, "velocity": 81, "duration": 630}, {"note": 0, "velocity": 0, "duration": 210}, {"note": 67, "velocity": 85, "duration": 201}, {"note": 68, "velocity": 85, "duration": 218}, {"note": 70, "velocity": 89, "duration": 248}, {"note": 72, "velocity": 82, "duration": 251}, {"note": 74, "velocity": 86, "duration": 237}, {"note": 75, "velocity": 84, "duration": 600}, {"note": 0, "velocity": 0, "duration": 120}, {"note": 77, "velocity": 90, "duration": 240}, {"note": 75, "velocity": 92, "duration": 1225}, {"note": 0, "velocity": 0, "duration": 455}, {"note": 74, "velocity": 84, "duration": 129}, {"note": 75, "velocity": 90, "duration": 129}, {"note": 82, "velocity": 86, "duration": 246}, {"note": 75, "velocity": 89, "duration": 240}, {"note": 75, "velocity": 89, "duration": 364}, {"note": 0, "velocity": 0, "duration": 116}, {"note": 74, "velocity": 94, "duration": 184}, {"note": 75, "velocity": 99, "duration": 77}, {"note": 77, "velocity": 87, "duration": 217}, {"note": 75, "velocity": 88, "duration": 87}, {"note": 77, "velocity": 99, "duration": 87}, {"note": 75, "velocity": 90, "duration": 78}, {"note": 82, "velocity": 86, "duration": 198}, {"note": 74, "velocity": 89, "duration": 120}, {"note": 74, "velocity": 86, "duration": 274}, {"note": 0, "velocity": 0, "duration": 206}, {"note": 70, "velocity": 86, "duration": 72}, {"note": 70, "velocity": 87, "duration": 77}, {"note": 74, "velocity": 85, "duration": 174}, {"note": 0, "velocity": 0, "duration": 66}, {"note": 75, "velocity": 97, "duration": 258}, {"note": 0, "velocity": 0, "duration": 102}, {"note": 72, "velocity": 87, "duration": 122}, {"note": 74, "velocity": 80, "duration": 66}, {"note": 75, "velocity": 94, "duration": 195}, {"note": 68, "velocity": 83, "duration": 71}, {"note": 68, "velocity": 84, "duration": 316}, {"note": 75, "velocity": 94, "duration": 71}, {"note": 77, "velocity": 87, "duration": 74}, {"note": 75, "velocity": 94, "duration": 183}, {"note": 70, "velocity": 85, "duration": 68}, {"note": 70, "velocity": 87, "duration": 384}, {"note": 0, "velocity": 0, "duration": 96}, {"note": 70, "velocity": 90, "duration": 79}, {"note": 80, "velocity": 88, "duration": 360}, {"note": 82, "velocity": 85, "duration": 309}, {"note": 77, "velocity": 82, "duration": 73}, {"note": 79, "velocity": 84, "duration": 412}, {"note": 0, "velocity": 0, "duration": 308}, {"note": 75, "velocity": 84, "duration": 129}, {"note": 77, "velocity": 84, "duration": 129}, {"note": 75, "velocity": 90, "duration": 129}, {"note": 82, "velocity": 86, "duration": 246}, {"note": 75, "velocity": 89, "duration": 240}, {"note": 75, "velocity": 89, "duration": 364}, {"note": 0, "velocity": 0, "duration": 116}, {"note": 74, "velocity": 94, "duration": 184}, {"note": 75, "velocity": 99, "duration": 77}, {"note": 77, "velocity": 87, "duration": 217}, {"note": 75, "velocity": 88, "duration": 87}, {"note": 77, "velocity": 99, "duration": 87}, {"note": 75, "velocity": 90, "duration": 78}, {"note": 82, "velocity": 86, "duration": 198}, {"note": 74, "velocity": 89, "duration": 120}, {"note": 74, "velocity": 86, "duration": 274}, {"note": 0, "velocity": 0, "duration": 206}, {"note": 70, "velocity": 86, "duration": 72}, {"note": 70, "velocity": 87, "duration": 77}, {"note": 74, "velocity": 85, "duration": 174}, {"note": 0, "velocity": 0, "duration": 66}, {"note": 75, "velocity": 97, "duration": 258}, {"note": 0, "velocity": 0, "duration": 102}, {"note": 72, "velocity": 87, "duration": 122}, {"note": 74, "velocity": 80, "duration": 66}, {"note": 75, "velocity": 94, "duration": 195}, {"note": 68, "velocity": 83, "duration": 71}, {"note": 68, "velocity": 84, "duration": 316}, {"note": 0, "velocity": 0, "duration": 164}, {"note": 75, "velocity": 94, "duration": 71}, {"note": 74, "velocity": 94, "duration": 183}, {"note": 75, "velocity": 85, "duration": 68}, {"note": 75, "velocity": 87, "duration": 360}, {"note": 77, "velocity": 86, "duration": 94}, {"note": 77, "velocity": 87, "duration": 331}, {"note": 70, "velocity": 72, "duration": 60}, {"note": 70, "velocity": 74, "duration": 56}, {"note": 75, "velocity": 87, "duration": 1264}, {"note": 70, "velocity": 74, "duration": 51}, {"note": 70, "velocity": 74, "duration": 72}, {"note": 67, "velocity": 71, "duration": 76}, {"note": 70, "velocity": 79, "duration": 89}, {"note": 70, "velocity": 73, "duration": 61}, {"note": 70, "velocity": 73, "duration": 61}, {"note": 70, "velocity": 75, "duration": 56}, {"note": 70, "velocity": 76, "duration": 56}, {"note": 70, "velocity": 74, "duration": 72}, {"note": 67, "velocity": 71, "duration": 57}, {"note": 0, "velocity": 0, "duration": 63}, {"note": 70, "velocity": 75, "duration": 144}, {"note": 0, "velocity": 0, "duration": 216}, {"note": 70, "velocity": 71, "duration": 71}, {"note": 70, "velocity": 72, "duration": 56}, {"note": 0, "velocity": 0, "duration": 64}, {"note": 70, "velocity": 74, "duration": 58}, {"note": 0, "velocity": 0, "duration": 62}, {"note": 70, "velocity": 75, "duration": 60}, {"note": 70, "velocity": 77, "duration": 56}, {"note": 0, "velocity": 0, "duration": 64}, {"note": 70, "velocity": 75, "duration": 58}, {"note": 0, "velocity": 0, "duration": 62}, {"note": 70, "velocity": 77, "duration": 56}, {"note": 0, "velocity": 0, "duration": 64}, {"note": 70, "velocity": 78, "duration": 58}, {"note": 0, "velocity": 0, "duration": 62}, {"note": 70, "velocity": 77, "duration": 59}, {"note": 0, "velocity": 0, "duration": 61}, {"note": 70, "velocity": 76, "duration": 57}, {"note": 0, "velocity": 0, "duration": 63}, {"note": 70, "velocity": 78, "duration": 53}, {"note": 0, "velocity": 0, "duration": 67}, {"note": 70, "velocity": 77, "duration": 56}, {"note": 0, "velocity": 0, "duration": 64}, {"note": 67, "velocity": 70, "duration": 71}, {"note": 70, "velocity": 81, "duration": 219}, {"note": 0, "velocity": 0, "duration": 141}, {"note": 70, "velocity": 76, "duration": 61}, {"note": 70, "velocity": 78, "duration": 64}, {"note": 70, "velocity": 81, "duration": 63}, {"note": 70, "velocity": 83, "duration": 67}, {"note": 72, "velocity": 80, "duration": 161}, {"note": 0, "velocity": 0, "duration": 79}, {"note": 70, "velocity": 83, "duration": 161}, {"note": 0, "velocity": 0, "duration": 79}, {"note": 70, "velocity": 79, "duration": 56}, {"note": 0, "velocity": 0, "duration": 64}, {"note": 70, "velocity": 78, "duration": 54}, {"note": 0, "velocity": 0, "duration": 66}, {"note": 70, "velocity": 73, "duration": 49}, {"note": 0, "velocity": 0, "duration": 71}, {"note": 70, "velocity": 74, "duration": 77}, {"note": 72, "velocity": 73, "duration": 191}, {"note": 70, "velocity": 81, "duration": 1080}, {"note": 0, "velocity": 0, "duration": 1080}, {"note": 70, "velocity": 72, "duration": 60}, {"note": 70, "velocity": 74, "duration": 56}, {"note": 0, "velocity": 0, "duration": 64}, {"note": 70, "velocity": 74, "duration": 51}, {"note": 0, "velocity": 0, "duration": 69}, {"note": 70, "velocity": 74, "duration": 72}, {"note": 67, "velocity": 71, "duration": 76}, {"note": 70, "velocity": 79, "duration": 89}, {"note": 0, "velocity": 0, "duration": 151}, {"note": 70, "velocity": 73, "duration": 61}, {"note": 70, "velocity": 73, "duration": 61}, {"note": 70, "velocity": 75, "duration": 56}, {"note": 0, "velocity": 0, "duration": 64}, {"note": 70, "velocity": 76, "duration": 56}, {"note": 0, "velocity": 0, "duration": 64}, {"note": 70, "velocity": 74, "duration": 72}, {"note": 67, "velocity": 71, "duration": 57}, {"note": 0, "velocity": 0, "duration": 63}, {"note": 70, "velocity": 75, "duration": 144}, {"note": 0, "velocity": 0, "duration": 216}, {"note": 70, "velocity": 71, "duration": 71}, {"note": 70, "velocity": 72, "duration": 56}, {"note": 0, "velocity": 0, "duration": 64}, {"note": 70, "velocity": 74, "duration": 58}, {"note": 0, "velocity": 0, "duration": 62}, {"note": 70, "velocity": 75, "duration": 60}, {"note": 70, "velocity": 77, "duration": 56}, {"note": 0, "velocity": 0, "duration": 64}, {"note": 70, "velocity": 75, "duration": 58}, {"note": 0, "velocity": 0, "duration": 62}, {"note": 70, "velocity": 77, "duration": 56}, {"note": 0, "velocity": 0, "duration": 64}, {"note": 70, "velocity": 78, "duration": 58}, {"note": 0, "velocity": 0, "duration": 62}, {"note": 70, "velocity": 77, "duration": 59}, {"note": 0, "velocity": 0, "duration": 61}, {"note": 70, "velocity": 76, "duration": 57}, {"note": 0, "velocity": 0, "duration": 63}, {"note": 70, "velocity": 78, "duration": 53}, {"note": 0, "velocity": 0, "duration": 67}, {"note": 70, "velocity": 77, "duration": 56}, {"note": 0, "velocity": 0, "duration": 64}, {"note": 67, "velocity": 70, "duration": 71}, {"note": 70, "velocity": 81, "duration": 219}, {"note": 0, "velocity": 0, "duration": 141}, {"note": 70, "velocity": 76, "duration": 61}, {"note": 70, "velocity": 78, "duration": 64}, {"note": 70, "velocity": 81, "duration": 63}, {"note": 70, "velocity": 83, "duration": 67}, {"note": 72, "velocity": 80, "duration": 161}, {"note": 0, "velocity": 0, "duration": 79}, {"note": 70, "velocity": 83, "duration": 161}, {"note": 0, "velocity": 0, "duration": 79}, {"note": 70, "velocity": 79, "duration": 56}, {"note": 0, "velocity": 0, "duration": 64}, {"note": 70, "velocity": 78, "duration": 54}, {"note": 0, "velocity": 0, "duration": 66}, {"note": 70, "velocity": 73, "duration": 49}, {"note": 0, "velocity": 0, "duration": 71}, {"note": 70, "velocity": 74, "duration": 77}, {"note": 77, "velocity": 73, "duration": 191}, {"note": 75, "velocity": 81, "duration": 1080}, {"note": 0, "velocity": 0, "duration": 720}, {"note": 74, "velocity": 84, "duration": 129}, {"note": 75, "velocity": 90, "duration": 129}, {"note": 82, "velocity": 86, "duration": 246}, {"note": 75, "velocity": 89, "duration": 240}, {"note": 75, "velocity": 89, "duration": 364}, {"note": 0, "velocity": 0, "duration": 116}, {"note": 74, "velocity": 94, "duration": 184}, {"note": 75, "velocity": 99, "duration": 77}, {"note": 77, "velocity": 87, "duration": 217}, {"note": 75, "velocity": 88, "duration": 87}, {"note": 77, "velocity": 99, "duration": 87}, {"note": 75, "velocity": 90, "duration": 78}, {"note": 82, "velocity": 86, "duration": 198}, {"note": 74, "velocity": 89, "duration": 120}, {"note": 74, "velocity": 86, "duration": 274}, {"note": 0, "velocity": 0, "duration": 206}, {"note": 70, "velocity": 86, "duration": 72}, {"note": 70, "velocity": 87, "duration": 77}, {"note": 74, "velocity": 85, "duration": 174}, {"note": 0, "velocity": 0, "duration": 66}, {"note": 75, "velocity": 97, "duration": 258}, {"note": 0, "velocity": 0, "duration": 102}, {"note": 72, "velocity": 87, "duration": 122}, {"note": 74, "velocity": 80, "duration": 66}, {"note": 75, "velocity": 94, "duration": 195}, {"note": 68, "velocity": 83, "duration": 71}, {"note": 68, "velocity": 84, "duration": 316}, {"note": 75, "velocity": 94, "duration": 71}, {"note": 77, "velocity": 87, "duration": 74}, {"note": 75, "velocity": 94, "duration": 183}, {"note": 70, "velocity": 85, "duration": 68}, {"note": 70, "velocity": 87, "duration": 384}, {"note": 0, "velocity": 0, "duration": 96}, {"note": 70, "velocity": 90, "duration": 79}, {"note": 80, "velocity": 88, "duration": 360}, {"note": 82, "velocity": 85, "duration": 309}, {"note": 77, "velocity": 82, "duration": 73}, {"note": 79, "velocity": 84, "duration": 412}, {"note": 0, "velocity": 0, "duration": 308}, {"note": 75, "velocity": 84, "duration": 129}, {"note": 77, "velocity": 84, "duration": 129}, {"note": 75, "velocity": 90, "duration": 129}, {"note": 82, "velocity": 86, "duration": 246}, {"note": 75, "velocity": 89, "duration": 240}, {"note": 75, "velocity": 89, "duration": 364}, {"note": 0, "velocity": 0, "duration": 116}, {"note": 74, "velocity": 94, "duration": 184}, {"note": 75, "velocity": 99, "duration": 77}, {"note": 77, "velocity": 87, "duration": 217}, {"note": 75, "velocity": 88, "duration": 87}, {"note": 77, "velocity": 99, "duration": 87}, {"note": 75, "velocity": 90, "duration": 78}, {"note": 82, "velocity": 86, "duration": 198}, {"note": 74, "velocity": 89, "duration": 120}, {"note": 74, "velocity": 86, "duration": 274}, {"note": 0, "velocity": 0, "duration": 206}, {"note": 70, "velocity": 86, "duration": 72}, {"note": 70, "velocity": 87, "duration": 77}, {"note": 74, "velocity": 85, "duration": 174}, {"note": 0, "velocity": 0, "duration": 66}, {"note": 75, "velocity": 97, "duration": 258}, {"note": 0, "velocity": 0, "duration": 102}, {"note": 72, "velocity": 87, "duration": 122}, {"note": 74, "velocity": 80, "duration": 66}, {"note": 75, "velocity": 94, "duration": 195}, {"note": 68, "velocity": 83, "duration": 71}, {"note": 68, "velocity": 84, "duration": 316}, {"note": 0, "velocity": 0, "duration": 164}, {"note": 75, "velocity": 94, "duration": 71}, {"note": 74, "velocity": 94, "duration": 183}, {"note": 75, "velocity": 85, "duration": 68}, {"note": 75, "velocity": 87, "duration": 360}, {"note": 77, "velocity": 86, "duration": 94}, {"note": 77, "velocity": 87, "duration": 331}, {"note": 75, "velocity": 87, "duration": 1264}]]