[[{"note": 73, "velocity": 86, "duration": 240}, {"note": 75, "velocity": 87, "duration": 409}, {"note": 0, "velocity": 0, "duration": 71}, {"note": 82, "velocity": 86, "duration": 148}, {"note": 0, "velocity": 0, "duration": 92}, {"note": 75, "velocity": 93, "duration": 73}, {"note": 73, "velocity": 84, "duration": 55}, {"note": 0, "velocity": 0, "duration": 65}, {"note": 75, "velocity": 89, "duration": 58}, {"note": 0, "velocity": 0, "duration": 62}, {"note": 73, "velocity": 83, "duration": 68}, {"note": 75, "velocity": 91, "duration": 161}, {"note": 0, "velocity": 0, "duration": 79}, {"note": 73, "velocity": 85, "duration": 153}, {"note": 0, "velocity": 0, "duration": 87}, {"note": 73, "velocity": 84, "duration": 170}, {"note": 0, "velocity": 0, "duration": 70}, {"note": 70, "velocity": 84, "duration": 146}, {"note": 0, "velocity": 0, "duration": 94}, {"note": 73, "velocity": 84, "duration": 166}, {"note": 0, "velocity": 0, "duration": 74}, {"note": 70, "velocity": 83, "duration": 140}, {"note": 0, "velocity": 0, "duration": 100}, {"note": 68, "velocity": 82, "duration": 60}, {"note": 70, "velocity": 83, "duration": 57}, {"note": 0, "velocity": 0, "duration": 63}, {"note": 68, "velocity": 82, "duration": 75}, {"note": 70, "velocity": 84, "duration": 73}, {"note": 73, "velocity": 82, "duration": 200}, {"note": 70, "velocity": 84, "duration": 199}, {"note": 73, "velocity": 84, "duration": 239}, {"note": 75, "velocity": 83, "duration": 325}, {"note": 0, "velocity": 0, "duration": 155}, {"note": 82, "velocity": 83, "duration": 174}, {"note": 0, "velocity": 0, "duration": 66}, {"note": 75, "velocity": 93, "duration": 64}, {"note": 73, "velocity": 82, "duration": 59}, {"note": 0, "velocity": 0, "duration": 61}, {"note": 75, "velocity": 89, "duration": 74}, {"note": 73, "velocity": 84, "duration": 66}, {"note": 75, "velocity": 91, "duration": 177}, {"note": 0, "velocity": 0, "duration": 63}, {"note": 73, "velocity": 84, "duration": 197}, {"note": 73, "velocity": 83, "duration": 220}, {"note": 70, "velocity": 83, "duration": 150}, {"note": 0, "velocity": 0, "duration": 90}, {"note": 73, "velocity": 83, "duration": 214}, {"note": 70, "velocity": 84, "duration": 130}, {"note": 0, "velocity": 0, "duration": 110}, {"note": 68, "velocity": 83, "duration": 60}, {"note": 70, "velocity": 84, "duration": 52}, {"note": 0, "velocity": 0, "duration": 68}, {"note": 68, "velocity": 84, "duration": 68}, {"note": 70, "velocity": 86, "duration": 66}, {"note": 75, "velocity": 89, "duration": 179}, {"note": 0, "velocity": 0, "duration": 61}, {"note": 73, "velocity": 83, "duration": 218}, {"note": 78, "velocity": 78, "duration": 558}, {"note": 0, "velocity": 0, "duration": 282}, {"note": 73, "velocity": 80, "duration": 78}, {"note": 75, "velocity": 88, "duration": 75}, {"note": 73, "velocity": 82, "duration": 73}, {"note": 75, "velocity": 88, "duration": 85}, {"note": 73, "velocity": 83, "duration": 73}, {"note": 75, "velocity": 87, "duration": 235}, {"note": 82, "velocity": 77, "duration": 223}, {"note": 78, "velocity": 84, "duration": 468}, {"note": 0, "velocity": 0, "duration": 372}, {"note": 73, "velocity": 82, "duration": 73}, {"note": 75, "velocity": 89, "duration": 87}, {"note": 73, "velocity": 83, "duration": 93}, {"note": 75, "velocity": 85, "duration": 115}, {"note": 73, "velocity": 79, "duration": 138}, {"note": 75, "velocity": 86, "duration": 230}, {"note": 82, "velocity": 85, "duration": 233}, {"note": 78, "velocity": 86, "duration": 537}, {"note": 0, "velocity": 0, "duration": 303}, {"note": 73, "velocity": 83, "duration": 80}, {"note": 75, "velocity": 89, "duration": 84}, {"note": 73, "velocity": 80, "duration": 73}, {"note": 75, "velocity": 89, "duration": 101}, {"note": 73, "velocity": 82, "duration": 68}, {"note": 75, "velocity": 87, "duration": 214}, {"note": 78, "velocity": 84, "duration": 226}, {"note": 75, "velocity": 88, "duration": 220}, {"note": 73, "velocity": 83, "duration": 139}, {"note": 0, "velocity": 0, "duration": 101}, {"note": 75, "velocity": 86, "duration": 223}, {"note": 73, "velocity": 83, "duration": 143}, {"note": 0, "velocity": 0, "duration": 97}, {"note": 70, "velocity": 82, "duration": 66}, {"note": 73, "velocity": 79, "duration": 60}, {"note": 73, "velocity": 81, "duration": 76}, {"note": 73, "velocity": 83, "duration": 68}, {"note": 78, "velocity": 86, "duration": 196}, {"note": 73, "velocity": 83, "duration": 140}, {"note": 0, "velocity": 0, "duration": 100}, {"note": 85, "velocity": 84, "duration": 250}, {"note": 87, "velocity": 82, "duration": 115}, {"note": 85, "velocity": 87, "duration": 386}, {"note": 0, "velocity": 0, "duration": 214}, {"note": 87, "velocity": 83, "duration": 160}, {"note": 0, "velocity": 0, "duration": 80}, {"note": 85, "velocity": 86, "duration": 140}, {"note": 0, "velocity": 0, "duration": 100}, {"note": 82, "velocity": 86, "duration": 380}, {"note": 0, "velocity": 0, "duration": 100}, {"note": 82, "velocity": 82, "duration": 190}, {"note": 85, "velocity": 89, "duration": 151}, {"note": 0, "velocity": 0, "duration": 89}, {"note": 80, "velocity": 83, "duration": 243}, {"note": 0, "velocity": 0, "duration": 237}, {"note": 80, "velocity": 83, "duration": 92}, {"note": 78, "velocity": 77, "duration": 75}, {"note": 80, "velocity": 84, "duration": 166}, {"note": 0, "velocity": 0, "duration": 74}, {"note": 85, "velocity": 84, "duration": 385}, {"note": 0, "velocity": 0, "duration": 95}, {"note": 85, "velocity": 84, "duration": 202}, {"note": 87, "velocity": 83, "duration": 193}, {"note": 85, "velocity": 84, "duration": 380}, {"note": 0, "velocity": 0, "duration": 100}, {"note": 87, "velocity": 85, "duration": 154}, {"note": 0, "velocity": 0, "duration": 86}, {"note": 82, "velocity": 83, "duration": 111}, {"note": 85, "velocity": 83, "duration": 123}, {"note": 82, "velocity": 84, "duration": 391}, {"note": 0, "velocity": 0, "duration": 89}, {"note": 82, "velocity": 83, "duration": 179}, {"note": 0, "velocity": 0, "duration": 61}, {"note": 85, "velocity": 93, "duration": 175}, {"note": 0, "velocity": 0, "duration": 65}, {"note": 80, "velocity": 83, "duration": 385}, {"note": 0, "velocity": 0, "duration": 95}, {"note": 80, "velocity": 82, "duration": 89}, {"note": 78, "velocity": 82, "duration": 80}, {"note": 80, "velocity": 83, "duration": 56}, {"note": 0, "velocity": 0, "duration": 64}, {"note": 80, "velocity": 80, "duration": 127}, {"note": 85, "velocity": 85, "duration": 360}, {"note": 0, "velocity": 0, "duration": 120}, {"note": 85, "velocity": 84, "duration": 202}, {"note": 87, "velocity": 83, "duration": 193}, {"note": 85, "velocity": 84, "duration": 380}, {"note": 0, "velocity": 0, "duration": 100}, {"note": 87, "velocity": 85, "duration": 154}, {"note": 0, "velocity": 0, "duration": 86}, {"note": 85, "velocity": 83, "duration": 243}, {"note": 82, "velocity": 84, "duration": 391}, {"note": 0, "velocity": 0, "duration": 89}, {"note": 82, "velocity": 83, "duration": 179}, {"note": 0, "velocity": 0, "duration": 61}, {"note": 85, "velocity": 93, "duration": 175}, {"note": 0, "velocity": 0, "duration": 65}, {"note": 80, "velocity": 83, "duration": 385}, {"note": 0, "velocity": 0, "duration": 95}, {"note": 80, "velocity": 82, "duration": 89}, {"note": 78, "velocity": 82, "duration": 80}, {"note": 80, "velocity": 83, "duration": 56}, {"note": 0, "velocity": 0, "duration": 64}, {"note": 80, "velocity": 80, "duration": 127}, {"note": 85, "velocity": 85, "duration": 360}, {"note": 0, "velocity": 0, "duration": 120}, {"note": 85, "velocity": 88, "duration": 239}, {"note": 87, "velocity": 86, "duration": 128}, {"note": 85, "velocity": 84, "duration": 469}, {"note": 0, "velocity": 0, "duration": 131}, {"note": 87, "velocity": 84, "duration": 168}, {"note": 0, "velocity": 0, "duration": 72}, {"note": 85, "velocity": 86, "duration": 192}, {"note": 82, "velocity": 83, "duration": 370}, {"note": 0, "velocity": 0, "duration": 110}, {"note": 82, "velocity": 83, "duration": 158}, {"note": 0, "velocity": 0, "duration": 82}, {"note": 85, "velocity": 89, "duration": 134}, {"note": 0, "velocity": 0, "duration": 106}, {"note": 80, "velocity": 84, "duration": 359}, {"note": 0, "velocity": 0, "duration": 121}, {"note": 80, "velocity": 80, "duration": 117}, {"note": 78, "velocity": 77, "duration": 66}, {"note": 80, "velocity": 85, "duration": 241}, {"note": 85, "velocity": 83, "duration": 480}, {"note": 75, "velocity": 86, "duration": 1287}, {"note": 0, "velocity": 0, "duration": 153}, {"note": 87, "velocity": 83, "duration": 245}, {"note": 85, "velocity": 84, "duration": 269}, {"note": 0, "velocity": 0, "duration": 211}, {"note": 73, "velocity": 82, "duration": 971}, {"note": 0, "velocity": 0, "duration": 709}, {"note": 78, "velocity": 83, "duration": 377}, {"note": 0, "velocity": 0, "duration": 103}, {"note": 78, "velocity": 83, "duration": 404}, {"note": 0, "velocity": 0, "duration": 76}, {"note": 77, "velocity": 85, "duration": 204}, {"note": 77, "velocity": 85, "duration": 158}, {"note": 0, "velocity": 0, "duration": 82}, {"note": 75, "velocity": 88, "duration": 73}, {"note": 73, "velocity": 84, "duration": 65}, {"note": 75, "velocity": 84, "duration": 83}, {"note": 73, "velocity": 83, "duration": 64}, {"note": 70, "velocity": 82, "duration": 387}, {"note": 73, "velocity": 75, "duration": 980}, {"note": 0, "velocity": 0, "duration": 580}, {"note": 78, "velocity": 84, "duration": 339}, {"note": 0, "velocity": 0, "duration": 141}, {"note": 78, "velocity": 83, "duration": 386}, {"note": 0, "velocity": 0, "duration": 94}, {"note": 77, "velocity": 84, "duration": 177}, {"note": 0, "velocity": 0, "duration": 63}, {"note": 77, "velocity": 83, "duration": 176}, {"note": 0, "velocity": 0, "duration": 64}, {"note": 75, "velocity": 84, "duration": 85}, {"note": 73, "velocity": 74, "duration": 63}, {"note": 75, "velocity": 86, "duration": 62}, {"note": 73, "velocity": 83, "duration": 75}, {"note": 70, "velocity": 83, "duration": 275}, {"note": 0, "velocity": 0, "duration": 85}, {"note": 73, "velocity": 85, "duration": 1144}, {"note": 0, "velocity": 0, "duration": 416}, {"note": 78, "velocity": 79, "duration": 93}, {"note": 80, "velocity": 77, "duration": 139}, {"note": 0, "velocity": 0, "duration": 101}, {"note": 78, "velocity": 84, "duration": 78}, {"note": 75, "velocity": 84, "duration": 179}, {"note": 0, "velocity": 0, "duration": 61}, {"note": 78, "velocity": 83, "duration": 166}, {"note": 0, "velocity": 0, "duration": 74}, {"note": 80, "velocity": 81, "duration": 456}, {"note": 0, "velocity": 0, "duration": 504}, {"note": 75, "velocity": 88, "duration": 109}, {"note": 73, "velocity": 83, "duration": 146}, {"note": 0, "velocity": 0, "duration": 94}, {"note": 75, "velocity": 86, "duration": 101}, {"note": 78, "velocity": 82, "duration": 161}, {"note": 0, "velocity": 0, "duration": 79}, {"note": 75, "velocity": 85, "duration": 226}, {"note": 70, "velocity": 83, "duration": 1355}, {"note": 0, "velocity": 0, "duration": 7285}, {"note": 73, "velocity": 86, "duration": 240}, {"note": 75, "velocity": 87, "duration": 409}, {"note": 0, "velocity": 0, "duration": 71}, {"note": 82, "velocity": 86, "duration": 148}, {"note": 0, "velocity": 0, "duration": 92}, {"note": 75, "velocity": 93, "duration": 73}, {"note": 73, "velocity": 84, "duration": 55}, {"note": 0, "velocity": 0, "duration": 65}, {"note": 75, "velocity": 89, "duration": 58}, {"note": 0, "velocity": 0, "duration": 62}, {"note": 73, "velocity": 83, "duration": 68}, {"note": 75, "velocity": 91, "duration": 161}, {"note": 0, "velocity": 0, "duration": 79}, {"note": 73, "velocity": 85, "duration": 153}, {"note": 0, "velocity": 0, "duration": 87}, {"note": 73, "velocity": 84, "duration": 170}, {"note": 0, "velocity": 0, "duration": 70}, {"note": 70, "velocity": 84, "duration": 146}, {"note": 0, "velocity": 0, "duration": 94}, {"note": 73, "velocity": 84, "duration": 166}, {"note": 0, "velocity": 0, "duration": 74}, {"note": 70, "velocity": 83, "duration": 140}, {"note": 0, "velocity": 0, "duration": 100}, {"note": 68, "velocity": 82, "duration": 60}, {"note": 70, "velocity": 83, "duration": 57}, {"note": 0, "velocity": 0, "duration": 63}, {"note": 68, "velocity": 82, "duration": 75}, {"note": 70, "velocity": 84, "duration": 73}, {"note": 73, "velocity": 82, "duration": 200}, {"note": 70, "velocity": 84, "duration": 199}, {"note": 73, "velocity": 84, "duration": 239}, {"note": 75, "velocity": 83, "duration": 325}, {"note": 0, "velocity": 0, "duration": 155}, {"note": 82, "velocity": 83, "duration": 174}, {"note": 0, "velocity": 0, "duration": 66}, {"note": 75, "velocity": 93, "duration": 64}, {"note": 73, "velocity": 82, "duration": 59}, {"note": 0, "velocity": 0, "duration": 61}, {"note": 75, "velocity": 89, "duration": 74}, {"note": 73, "velocity": 84, "duration": 66}, {"note": 75, "velocity": 91, "duration": 177}, {"note": 0, "velocity": 0, "duration": 63}, {"note": 73, "velocity": 84, "duration": 197}, {"note": 73, "velocity": 83, "duration": 220}, {"note": 70, "velocity": 83, "duration": 150}, {"note": 0, "velocity": 0, "duration": 90}, {"note": 73, "velocity": 83, "duration": 214}, {"note": 70, "velocity": 84, "duration": 130}, {"note": 0, "velocity": 0, "duration": 110}, {"note": 68, "velocity": 83, "duration": 60}, {"note": 70, "velocity": 84, "duration": 52}, {"note": 0, "velocity": 0, "duration": 68}, {"note": 68, "velocity": 84, "duration": 68}, {"note": 70, "velocity": 86, "duration": 66}, {"note": 75, "velocity": 89, "duration": 179}, {"note": 0, "velocity": 0, "duration": 61}, {"note": 73, "velocity": 83, "duration": 218}, {"note": 78, "velocity": 78, "duration": 558}, {"note": 0, "velocity": 0, "duration": 282}, {"note": 73, "velocity": 80, "duration": 78}, {"note": 75, "velocity": 88, "duration": 75}, {"note": 73, "velocity": 82, "duration": 73}, {"note": 75, "velocity": 88, "duration": 85}, {"note": 73, "velocity": 83, "duration": 73}, {"note": 75, "velocity": 87, "duration": 235}, {"note": 82, "velocity": 77, "duration": 223}, {"note": 78, "velocity": 84, "duration": 468}, {"note": 0, "velocity": 0, "duration": 372}, {"note": 73, "velocity": 82, "duration": 73}, {"note": 75, "velocity": 89, "duration": 87}, {"note": 73, "velocity": 83, "duration": 93}, {"note": 75, "velocity": 85, "duration": 115}, {"note": 73, "velocity": 79, "duration": 138}, {"note": 75, "velocity": 86, "duration": 230}, {"note": 82, "velocity": 85, "duration": 233}, {"note": 78, "velocity": 86, "duration": 537}, {"note": 0, "velocity": 0, "duration": 303}, {"note": 73, "velocity": 83, "duration": 80}, {"note": 75, "velocity": 89, "duration": 84}, {"note": 73, "velocity": 80, "duration": 73}, {"note": 75, "velocity": 89, "duration": 101}, {"note": 73, "velocity": 82, "duration": 68}, {"note": 75, "velocity": 87, "duration": 214}, {"note": 78, "velocity": 84, "duration": 226}, {"note": 75, "velocity": 88, "duration": 220}, {"note": 73, "velocity": 83, "duration": 139}, {"note": 0, "velocity": 0, "duration": 101}, {"note": 75, "velocity": 86, "duration": 223}, {"note": 73, "velocity": 83, "duration": 143}, {"note": 0, "velocity": 0, "duration": 97}, {"note": 70, "velocity": 82, "duration": 66}, {"note": 73, "velocity": 79, "duration": 60}, {"note": 73, "velocity": 81, "duration": 76}, {"note": 73, "velocity": 83, "duration": 68}, {"note": 78, "velocity": 86, "duration": 196}, {"note": 73, "velocity": 83, "duration": 140}, {"note": 0, "velocity": 0, "duration": 100}, {"note": 85, "velocity": 84, "duration": 250}, {"note": 87, "velocity": 82, "duration": 115}, {"note": 85, "velocity": 87, "duration": 386}, {"note": 0, "velocity": 0, "duration": 214}, {"note": 87, "velocity": 83, "duration": 160}, {"note": 0, "velocity": 0, "duration": 80}, {"note": 85, "velocity": 86, "duration": 140}, {"note": 0, "velocity": 0, "duration": 100}, {"note": 82, "velocity": 86, "duration": 380}, {"note": 0, "velocity": 0, "duration": 100}, {"note": 82, "velocity": 82, "duration": 190}, {"note": 85, "velocity": 89, "duration": 151}, {"note": 0, "velocity": 0, "duration": 89}, {"note": 80, "velocity": 83, "duration": 243}, {"note": 0, "velocity": 0, "duration": 237}, {"note": 80, "velocity": 83, "duration": 92}, {"note": 78, "velocity": 77, "duration": 75}, {"note": 80, "velocity": 84, "duration": 166}, {"note": 0, "velocity": 0, "duration": 74}, {"note": 85, "velocity": 84, "duration": 385}, {"note": 0, "velocity": 0, "duration": 95}, {"note": 85, "velocity": 84, "duration": 202}, {"note": 87, "velocity": 83, "duration": 193}, {"note": 85, "velocity": 84, "duration": 380}, {"note": 0, "velocity": 0, "duration": 100}, {"note": 87, "velocity": 85, "duration": 154}, {"note": 0, "velocity": 0, "duration": 86}, {"note": 82, "velocity": 83, "duration": 111}, {"note": 85, "velocity": 83, "duration": 123}, {"note": 82, "velocity": 84, "duration": 391}, {"note": 0, "velocity": 0, "duration": 89}, {"note": 82, "velocity": 83, "duration": 179}, {"note": 0, "velocity": 0, "duration": 61}, {"note": 85, "velocity": 93, "duration": 175}, {"note": 0, "velocity": 0, "duration": 65}, {"note": 80, "velocity": 83, "duration": 385}, {"note": 0, "velocity": 0, "duration": 95}, {"note": 80, "velocity": 82, "duration": 89}, {"note": 78, "velocity": 82, "duration": 80}, {"note": 80, "velocity": 83, "duration": 56}, {"note": 0, "velocity": 0, "duration": 64}, {"note": 80, "velocity": 80, "duration": 127}, {"note": 85, "velocity": 85, "duration": 360}, {"note": 0, "velocity": 0, "duration": 120}, {"note": 85, "velocity": 84, "duration": 202}, {"note": 87, "velocity": 83, "duration": 193}, {"note": 85, "velocity": 84, "duration": 380}, {"note": 0, "velocity": 0, "duration": 100}, {"note": 87, "velocity": 85, "duration": 154}, {"note": 0, "velocity": 0, "duration": 86}, {"note": 85, "velocity": 83, "duration": 243}, {"note": 82, "velocity": 84, "duration": 391}, {"note": 0, "velocity": 0, "duration": 89}, {"note": 82, "velocity": 83, "duration": 179}, {"note": 0, "velocity": 0, "duration": 61}, {"note": 85, "velocity": 93, "duration": 175}, {"note": 0, "velocity": 0, "duration": 65}, {"note": 80, "velocity": 83, "duration": 385}, {"note": 0, "velocity": 0, "duration": 95}, {"note": 80, "velocity": 82, "duration": 89}, {"note": 78, "velocity": 82, "duration": 80}, {"note": 80, "velocity": 83, "duration": 56}, {"note": 0, "velocity": 0, "duration": 64}, {"note": 80, "velocity": 80, "duration": 127}, {"note": 85, "velocity": 85, "duration": 360}, {"note": 0, "velocity": 0, "duration": 120}, {"note": 85, "velocity": 88, "duration": 239}, {"note": 87, "velocity": 86, "duration": 128}, {"note": 85, "velocity": 84, "duration": 469}, {"note": 0, "velocity": 0, "duration": 131}, {"note": 87, "velocity": 84, "duration": 168}, {"note": 0, "velocity": 0, "duration": 72}, {"note": 85, "velocity": 86, "duration": 192}, {"note": 82, "velocity": 83, "duration": 370}, {"note": 0, "velocity": 0, "duration": 110}, {"note": 82, "velocity": 83, "duration": 158}, {"note": 0, "velocity": 0, "duration": 82}, {"note": 85, "velocity": 89, "duration": 134}, {"note": 0, "velocity": 0, "duration": 106}, {"note": 80, "velocity": 84, "duration": 359}, {"note": 0, "velocity": 0, "duration": 121}, {"note": 80, "velocity": 80, "duration": 117}, {"note": 78, "velocity": 77, "duration": 66}, {"note": 80, "velocity": 85, "duration": 241}, {"note": 85, "velocity": 83, "duration": 480}, {"note": 75, "velocity": 86, "duration": 1287}, {"note": 0, "velocity": 0, "duration": 153}, {"note": 87, "velocity": 83, "duration": 245}, {"note": 85, "velocity": 84, "duration": 269}, {"note": 0, "velocity": 0, "duration": 211}, {"note": 73, "velocity": 82, "duration": 971}, {"note": 0, "velocity": 0, "duration": 709}, {"note": 78, "velocity": 83, "duration": 377}, {"note": 0, "velocity": 0, "duration": 103}, {"note": 78, "velocity": 83, "duration": 404}, {"note": 0, "velocity": 0, "duration": 76}, {"note": 77, "velocity": 85, "duration": 204}, {"note": 77, "velocity": 85, "duration": 158}, {"note": 0, "velocity": 0, "duration": 82}, {"note": 75, "velocity": 88, "duration": 73}, {"note": 73, "velocity": 84, "duration": 65}, {"note": 75, "velocity": 84, "duration": 83}, {"note": 73, "velocity": 83, "duration": 64}, {"note": 70, "velocity": 82, "duration": 387}, {"note": 73, "velocity": 75, "duration": 980}, {"note": 0, "velocity": 0, "duration": 580}, {"note": 78, "velocity": 84, "duration": 339}, {"note": 0, "velocity": 0, "duration": 141}, {"note": 78, "velocity": 83, "duration": 386}, {"note": 0, "velocity": 0, "duration": 94}, {"note": 77, "velocity": 84, "duration": 177}, {"note": 0, "velocity": 0, "duration": 63}, {"note": 77, "velocity": 83, "duration": 176}, {"note": 0, "velocity": 0, "duration": 64}, {"note": 75, "velocity": 84, "duration": 85}, {"note": 73, "velocity": 74, "duration": 63}, {"note": 75, "velocity": 86, "duration": 62}, {"note": 73, "velocity": 83, "duration": 75}, {"note": 70, "velocity": 83, "duration": 275}, {"note": 0, "velocity": 0, "duration": 85}, {"note": 73, "velocity": 85, "duration": 1144}, {"note": 0, "velocity": 0, "duration": 416}, {"note": 78, "velocity": 79, "duration": 93}, {"note": 80, "velocity": 77, "duration": 139}, {"note": 0, "velocity": 0, "duration": 101}, {"note": 78, "velocity": 84, "duration": 78}, {"note": 75, "velocity": 84, "duration": 179}, {"note": 0, "velocity": 0, "duration": 61}, {"note": 78, "velocity": 83, "duration": 166}, {"note": 0, "velocity": 0, "duration": 74}, {"note": 80, "velocity": 81, "duration": 456}, {"note": 0, "velocity": 0, "duration": 504}, {"note": 75, "velocity": 88, "duration": 109}, {"note": 73, "velocity": 83, "duration": 146}, {"note": 0, "velocity": 0, "duration": 94}, {"note": 75, "velocity": 86, "duration": 101}, {"note": 78, "velocity": 82, "duration": 161}, {"note": 0, "velocity": 0, "duration": 79}, {"note": 75, "velocity": 85, "duration": 226}, {"note": 70, "velocity": 83, "duration": 480}, {"note": 73, "velocity": 83, "duration": 875}]]