[[{"note": 59, "velocity": 87, "duration": 170}, {"note": 0, "velocity": 0, "duration": 70}, {"note": 61, "velocity": 91, "duration": 144}, {"note": 0, "velocity": 0, "duration": 96}, {"note": 63, "velocity": 88, "duration": 140}, {"note": 0, "velocity": 0, "duration": 100}, {"note": 63, "velocity": 87, "duration": 135}, {"note": 0, "velocity": 0, "duration": 105}, {"note": 63, "velocity": 87, "duration": 146}, {"note": 0, "velocity": 0, "duration": 94}, {"note": 63, "velocity": 87, "duration": 131}, {"note": 0, "velocity": 0, "duration": 109}, {"note": 63, "velocity": 88, "duration": 163}, {"note": 0, "velocity": 0, "duration": 77}, {"note": 61, "velocity": 91, "duration": 210}, {"note": 66, "velocity": 83, "duration": 450}, {"note": 61, "velocity": 91, "duration": 1080}, {"note": 0, "velocity": 0, "duration": 360}, {"note": 59, "velocity": 89, "duration": 175}, {"note": 0, "velocity": 0, "duration": 65}, {"note": 59, "velocity": 88, "duration": 205}, {"note": 71, "velocity": 87, "duration": 140}, {"note": 0, "velocity": 0, "duration": 100}, {"note": 71, "velocity": 88, "duration": 359}, {"note": 0, "velocity": 0, "duration": 121}, {"note": 71, "velocity": 88, "duration": 193}, {"note": 68, "velocity": 87, "duration": 152}, {"note": 0, "velocity": 0, "duration": 88}, {"note": 63, "velocity": 90, "duration": 152}, {"note": 0, "velocity": 0, "duration": 88}, {"note": 68, "velocity": 88, "duration": 240}, {"note": 66, "velocity": 81, "duration": 1319}, {"note": 0, "velocity": 0, "duration": 361}, {"note": 66, "velocity": 87, "duration": 122}, {"note": 0, "velocity": 0, "duration": 118}, {"note": 66, "velocity": 86, "duration": 166}, {"note": 0, "velocity": 0, "duration": 74}, {"note": 68, "velocity": 89, "duration": 367}, {"note": 0, "velocity": 0, "duration": 113}, {"note": 63, "velocity": 89, "duration": 178}, {"note": 0, "velocity": 0, "duration": 62}, {"note": 63, "velocity": 88, "duration": 360}, {"note": 0, "velocity": 0, "duration": 120}, {"note": 63, "velocity": 87, "duration": 135}, {"note": 0, "velocity": 0, "duration": 105}, {"note": 63, "velocity": 89, "duration": 192}, {"note": 68, "velocity": 88, "duration": 163}, {"note": 0, "velocity": 0, "duration": 77}, {"note": 66, "velocity": 83, "duration": 136}, {"note": 0, "velocity": 0, "duration": 104}, {"note": 66, "velocity": 82, "duration": 146}, {"note": 0, "velocity": 0, "duration": 94}, {"note": 68, "velocity": 88, "duration": 348}, {"note": 0, "velocity": 0, "duration": 132}, {"note": 59, "velocity": 88, "duration": 530}, {"note": 0, "velocity": 0, "duration": 190}, {"note": 63, "velocity": 87, "duration": 161}, {"note": 0, "velocity": 0, "duration": 79}, {"note": 63, "velocity": 87, "duration": 170}, {"note": 0, "velocity": 0, "duration": 70}, {"note": 64, "velocity": 87, "duration": 175}, {"note": 0, "velocity": 0, "duration": 65}, {"note": 63, "velocity": 89, "duration": 129}, {"note": 0, "velocity": 0, "duration": 111}, {"note": 64, "velocity": 86, "duration": 192}, {"note": 63, "velocity": 91, "duration": 300}, {"note": 0, "velocity": 0, "duration": 180}, {"note": 59, "velocity": 87, "duration": 161}, {"note": 0, "velocity": 0, "duration": 79}, {"note": 56, "velocity": 88, "duration": 600}, {"note": 0, "velocity": 0, "duration": 120}, {"note": 63, "velocity": 87, "duration": 208}, {"note": 61, "velocity": 86, "duration": 1320}, {"note": 0, "velocity": 0, "duration": 1320}, {"note": 59, "velocity": 88, "duration": 195}, {"note": 61, "velocity": 87, "duration": 151}, {"note": 0, "velocity": 0, "duration": 89}, {"note": 63, "velocity": 87, "duration": 139}, {"note": 0, "velocity": 0, "duration": 101}, {"note": 63, "velocity": 87, "duration": 144}, {"note": 0, "velocity": 0, "duration": 96}, {"note": 63, "velocity": 83, "duration": 140}, {"note": 0, "velocity": 0, "duration": 100}, {"note": 64, "velocity": 83, "duration": 167}, {"note": 0, "velocity": 0, "duration": 73}, {"note": 63, "velocity": 88, "duration": 158}, {"note": 0, "velocity": 0, "duration": 82}, {"note": 61, "velocity": 89, "duration": 152}, {"note": 0, "velocity": 0, "duration": 88}, {"note": 66, "velocity": 88, "duration": 458}, {"note": 61, "velocity": 86, "duration": 1119}, {"note": 0, "velocity": 0, "duration": 321}, {"note": 59, "velocity": 89, "duration": 112}, {"note": 0, "velocity": 0, "duration": 128}, {"note": 59, "velocity": 88, "duration": 152}, {"note": 0, "velocity": 0, "duration": 88}, {"note": 71, "velocity": 88, "duration": 125}, {"note": 0, "velocity": 0, "duration": 115}, {"note": 71, "velocity": 87, "duration": 113}, {"note": 0, "velocity": 0, "duration": 127}, {"note": 71, "velocity": 86, "duration": 129}, {"note": 0, "velocity": 0, "duration": 111}, {"note": 71, "velocity": 87, "duration": 169}, {"note": 0, "velocity": 0, "duration": 71}, {"note": 68, "velocity": 72, "duration": 241}, {"note": 63, "velocity": 87, "duration": 201}, {"note": 68, "velocity": 87, "duration": 240}, {"note": 66, "velocity": 86, "duration": 1313}, {"note": 0, "velocity": 0, "duration": 367}, {"note": 66, "velocity": 88, "duration": 134}, {"note": 0, "velocity": 0, "duration": 106}, {"note": 66, "velocity": 87, "duration": 161}, {"note": 0, "velocity": 0, "duration": 79}, {"note": 68, "velocity": 89, "duration": 452}, {"note": 71, "velocity": 87, "duration": 371}, {"note": 0, "velocity": 0, "duration": 109}, {"note": 71, "velocity": 89, "duration": 334}, {"note": 0, "velocity": 0, "duration": 386}, {"note": 68, "velocity": 89, "duration": 275}, {"note": 66, "velocity": 87, "duration": 411}, {"note": 0, "velocity": 0, "duration": 69}, {"note": 70, "velocity": 84, "duration": 480}, {"note": 71, "velocity": 86, "duration": 480}, {"note": 68, "velocity": 90, "duration": 241}, {"note": 66, "velocity": 86, "duration": 192}, {"note": 75, "velocity": 92, "duration": 121}, {"note": 0, "velocity": 0, "duration": 119}, {"note": 75, "velocity": 88, "duration": 131}, {"note": 0, "velocity": 0, "duration": 109}, {"note": 75, "velocity": 89, "duration": 147}, {"note": 0, "velocity": 0, "duration": 93}, {"note": 76, "velocity": 88, "duration": 153}, {"note": 0, "velocity": 0, "duration": 87}, {"note": 75, "velocity": 89, "duration": 172}, {"note": 0, "velocity": 0, "duration": 68}, {"note": 73, "velocity": 91, "duration": 156}, {"note": 0, "velocity": 0, "duration": 84}, {"note": 71, "velocity": 87, "duration": 482}, {"note": 73, "velocity": 88, "duration": 2880}, {"note": 0, "velocity": 0, "duration": 480}, {"note": 71, "velocity": 92, "duration": 160}, {"note": 0, "velocity": 0, "duration": 80}, {"note": 73, "velocity": 98, "duration": 182}, {"note": 75, "velocity": 89, "duration": 137}, {"note": 0, "velocity": 0, "duration": 103}, {"note": 75, "velocity": 87, "duration": 130}, {"note": 0, "velocity": 0, "duration": 110}, {"note": 75, "velocity": 88, "duration": 141}, {"note": 0, "velocity": 0, "duration": 99}, {"note": 76, "velocity": 87, "duration": 178}, {"note": 0, "velocity": 0, "duration": 62}, {"note": 75, "velocity": 91, "duration": 160}, {"note": 0, "velocity": 0, "duration": 80}, {"note": 73, "velocity": 89, "duration": 115}, {"note": 0, "velocity": 0, "duration": 125}, {"note": 73, "velocity": 93, "duration": 170}, {"note": 0, "velocity": 0, "duration": 70}, {"note": 71, "velocity": 88, "duration": 208}, {"note": 73, "velocity": 94, "duration": 324}, {"note": 0, "velocity": 0, "duration": 156}, {"note": 73, "velocity": 91, "duration": 173}, {"note": 0, "velocity": 0, "duration": 67}, {"note": 78, "velocity": 89, "duration": 170}, {"note": 0, "velocity": 0, "duration": 70}, {"note": 73, "velocity": 98, "duration": 305}, {"note": 0, "velocity": 0, "duration": 175}, {"note": 71, "velocity": 89, "duration": 181}, {"note": 70, "velocity": 88, "duration": 161}, {"note": 0, "velocity": 0, "duration": 79}, {"note": 71, "velocity": 88, "duration": 139}, {"note": 0, "velocity": 0, "duration": 101}, {"note": 71, "velocity": 86, "duration": 153}, {"note": 0, "velocity": 0, "duration": 87}, {"note": 71, "velocity": 88, "duration": 167}, {"note": 0, "velocity": 0, "duration": 73}, {"note": 75, "velocity": 89, "duration": 124}, {"note": 0, "velocity": 0, "duration": 116}, {"note": 75, "velocity": 90, "duration": 166}, {"note": 0, "velocity": 0, "duration": 74}, {"note": 71, "velocity": 88, "duration": 125}, {"note": 0, "velocity": 0, "duration": 115}, {"note": 71, "velocity": 87, "duration": 218}, {"note": 68, "velocity": 82, "duration": 186}, {"note": 70, "velocity": 88, "duration": 424}, {"note": 70, "velocity": 85, "duration": 165}, {"note": 0, "velocity": 0, "duration": 75}, {"note": 75, "velocity": 88, "duration": 107}, {"note": 0, "velocity": 0, "duration": 133}, {"note": 70, "velocity": 90, "duration": 289}, {"note": 0, "velocity": 0, "duration": 191}, {"note": 68, "velocity": 91, "duration": 192}, {"note": 66, "velocity": 87, "duration": 206}, {"note": 68, "velocity": 93, "duration": 329}, {"note": 0, "velocity": 0, "duration": 151}, {"note": 68, "velocity": 91, "duration": 127}, {"note": 0, "velocity": 0, "duration": 113}, {"note": 68, "velocity": 91, "duration": 197}, {"note": 76, "velocity": 91, "duration": 547}, {"note": 0, "velocity": 0, "duration": 173}, {"note": 76, "velocity": 86, "duration": 209}, {"note": 75, "velocity": 89, "duration": 334}, {"note": 0, "velocity": 0, "duration": 146}, {"note": 78, "velocity": 90, "duration": 124}, {"note": 0, "velocity": 0, "duration": 116}, {"note": 71, "velocity": 89, "duration": 451}, {"note": 0, "velocity": 0, "duration": 269}, {"note": 68, "velocity": 91, "duration": 112}, {"note": 0, "velocity": 0, "duration": 128}, {"note": 66, "velocity": 88, "duration": 184}, {"note": 68, "velocity": 91, "duration": 131}, {"note": 0, "velocity": 0, "duration": 109}, {"note": 68, "velocity": 89, "duration": 125}, {"note": 0, "velocity": 0, "duration": 115}, {"note": 68, "velocity": 87, "duration": 160}, {"note": 0, "velocity": 0, "duration": 80}, {"note": 76, "velocity": 89, "duration": 135}, {"note": 0, "velocity": 0, "duration": 105}, {"note": 76, "velocity": 91, "duration": 144}, {"note": 0, "velocity": 0, "duration": 96}, {"note": 71, "velocity": 85, "duration": 117}, {"note": 0, "velocity": 0, "duration": 123}, {"note": 71, "velocity": 88, "duration": 135}, {"note": 0, "velocity": 0, "duration": 105}, {"note": 68, "velocity": 89, "duration": 240}, {"note": 73, "velocity": 91, "duration": 1012}, {"note": 0, "velocity": 0, "duration": 188}, {"note": 71, "velocity": 89, "duration": 191}, {"note": 71, "velocity": 92, "duration": 160}, {"note": 0, "velocity": 0, "duration": 80}, {"note": 73, "velocity": 98, "duration": 182}, {"note": 75, "velocity": 89, "duration": 137}, {"note": 0, "velocity": 0, "duration": 103}, {"note": 75, "velocity": 87, "duration": 130}, {"note": 0, "velocity": 0, "duration": 110}, {"note": 75, "velocity": 88, "duration": 141}, {"note": 0, "velocity": 0, "duration": 99}, {"note": 76, "velocity": 87, "duration": 178}, {"note": 0, "velocity": 0, "duration": 62}, {"note": 75, "velocity": 91, "duration": 160}, {"note": 0, "velocity": 0, "duration": 80}, {"note": 73, "velocity": 89, "duration": 115}, {"note": 0, "velocity": 0, "duration": 125}, {"note": 73, "velocity": 93, "duration": 170}, {"note": 0, "velocity": 0, "duration": 70}, {"note": 71, "velocity": 88, "duration": 208}, {"note": 73, "velocity": 94, "duration": 324}, {"note": 0, "velocity": 0, "duration": 156}, {"note": 73, "velocity": 91, "duration": 173}, {"note": 0, "velocity": 0, "duration": 67}, {"note": 78, "velocity": 89, "duration": 170}, {"note": 0, "velocity": 0, "duration": 70}, {"note": 73, "velocity": 98, "duration": 305}, {"note": 0, "velocity": 0, "duration": 175}, {"note": 71, "velocity": 89, "duration": 181}, {"note": 70, "velocity": 88, "duration": 161}, {"note": 0, "velocity": 0, "duration": 79}, {"note": 71, "velocity": 88, "duration": 139}, {"note": 0, "velocity": 0, "duration": 101}, {"note": 71, "velocity": 86, "duration": 153}, {"note": 0, "velocity": 0, "duration": 87}, {"note": 71, "velocity": 88, "duration": 167}, {"note": 0, "velocity": 0, "duration": 73}, {"note": 75, "velocity": 89, "duration": 124}, {"note": 0, "velocity": 0, "duration": 116}, {"note": 75, "velocity": 90, "duration": 166}, {"note": 0, "velocity": 0, "duration": 74}, {"note": 71, "velocity": 88, "duration": 125}, {"note": 0, "velocity": 0, "duration": 115}, {"note": 71, "velocity": 87, "duration": 218}, {"note": 68, "velocity": 82, "duration": 186}, {"note": 70, "velocity": 88, "duration": 424}, {"note": 70, "velocity": 85, "duration": 165}, {"note": 0, "velocity": 0, "duration": 75}, {"note": 75, "velocity": 88, "duration": 107}, {"note": 0, "velocity": 0, "duration": 133}, {"note": 70, "velocity": 90, "duration": 289}, {"note": 0, "velocity": 0, "duration": 191}, {"note": 68, "velocity": 91, "duration": 192}, {"note": 66, "velocity": 87, "duration": 206}, {"note": 68, "velocity": 93, "duration": 329}, {"note": 0, "velocity": 0, "duration": 151}, {"note": 68, "velocity": 91, "duration": 480}, {"note": 76, "velocity": 91, "duration": 547}, {"note": 0, "velocity": 0, "duration": 173}, {"note": 76, "velocity": 86, "duration": 209}, {"note": 75, "velocity": 89, "duration": 334}, {"note": 0, "velocity": 0, "duration": 146}, {"note": 78, "velocity": 90, "duration": 124}, {"note": 0, "velocity": 0, "duration": 116}, {"note": 71, "velocity": 89, "duration": 451}, {"note": 0, "velocity": 0, "duration": 269}, {"note": 68, "velocity": 91, "duration": 112}, {"note": 0, "velocity": 0, "duration": 128}, {"note": 66, "velocity": 88, "duration": 184}, {"note": 68, "velocity": 91, "duration": 131}, {"note": 0, "velocity": 0, "duration": 109}, {"note": 68, "velocity": 89, "duration": 125}, {"note": 0, "velocity": 0, "duration": 115}, {"note": 68, "velocity": 87, "duration": 160}, {"note": 0, "velocity": 0, "duration": 80}, {"note": 76, "velocity": 89, "duration": 135}, {"note": 0, "velocity": 0, "duration": 105}, {"note": 76, "velocity": 91, "duration": 240}, {"note": 71, "velocity": 88, "duration": 313}, {"note": 0, "velocity": 0, "duration": 89}, {"note": 71, "velocity": 88, "duration": 204}, {"note": 0, "velocity": 0, "duration": 68}, {"note": 71, "velocity": 88, "duration": 1187}, {"note": 0, "velocity": 0, "duration": 206}, {"note": 70, "velocity": 91, "duration": 403}, {"note": 0, "velocity": 0, "duration": 120}, {"note": 71, "velocity": 93, "duration": 2750}, {"note": 0, "velocity": 0, "duration": 27486}, {"note": 59, "velocity": 88, "duration": 195}, {"note": 61, "velocity": 87, "duration": 151}, {"note": 0, "velocity": 0, "duration": 89}, {"note": 63, "velocity": 87, "duration": 139}, {"note": 0, "velocity": 0, "duration": 101}, {"note": 63, "velocity": 87, "duration": 144}, {"note": 0, "velocity": 0, "duration": 96}, {"note": 63, "velocity": 83, "duration": 140}, {"note": 0, "velocity": 0, "duration": 100}, {"note": 64, "velocity": 83, "duration": 167}, {"note": 0, "velocity": 0, "duration": 73}, {"note": 63, "velocity": 88, "duration": 158}, {"note": 0, "velocity": 0, "duration": 82}, {"note": 61, "velocity": 89, "duration": 152}, {"note": 0, "velocity": 0, "duration": 88}, {"note": 66, "velocity": 88, "duration": 458}, {"note": 61, "velocity": 86, "duration": 1119}, {"note": 0, "velocity": 0, "duration": 321}, {"note": 59, "velocity": 89, "duration": 112}, {"note": 0, "velocity": 0, "duration": 128}, {"note": 59, "velocity": 88, "duration": 152}, {"note": 0, "velocity": 0, "duration": 88}, {"note": 71, "velocity": 88, "duration": 125}, {"note": 0, "velocity": 0, "duration": 115}, {"note": 71, "velocity": 87, "duration": 113}, {"note": 0, "velocity": 0, "duration": 127}, {"note": 71, "velocity": 86, "duration": 129}, {"note": 0, "velocity": 0, "duration": 111}, {"note": 71, "velocity": 87, "duration": 169}, {"note": 0, "velocity": 0, "duration": 71}, {"note": 68, "velocity": 72, "duration": 241}, {"note": 63, "velocity": 87, "duration": 201}, {"note": 68, "velocity": 87, "duration": 240}, {"note": 66, "velocity": 86, "duration": 1313}, {"note": 0, "velocity": 0, "duration": 367}, {"note": 66, "velocity": 88, "duration": 134}, {"note": 0, "velocity": 0, "duration": 106}, {"note": 66, "velocity": 87, "duration": 161}, {"note": 0, "velocity": 0, "duration": 79}, {"note": 68, "velocity": 89, "duration": 452}, {"note": 71, "velocity": 87, "duration": 371}, {"note": 0, "velocity": 0, "duration": 109}, {"note": 71, "velocity": 89, "duration": 334}, {"note": 0, "velocity": 0, "duration": 386}, {"note": 68, "velocity": 89, "duration": 275}, {"note": 66, "velocity": 87, "duration": 411}, {"note": 0, "velocity": 0, "duration": 69}, {"note": 70, "velocity": 84, "duration": 480}, {"note": 71, "velocity": 86, "duration": 480}, {"note": 68, "velocity": 90, "duration": 241}, {"note": 66, "velocity": 86, "duration": 192}, {"note": 75, "velocity": 92, "duration": 121}, {"note": 0, "velocity": 0, "duration": 119}, {"note": 75, "velocity": 88, "duration": 131}, {"note": 0, "velocity": 0, "duration": 109}, {"note": 75, "velocity": 89, "duration": 147}, {"note": 0, "velocity": 0, "duration": 93}, {"note": 76, "velocity": 88, "duration": 153}, {"note": 0, "velocity": 0, "duration": 87}, {"note": 75, "velocity": 89, "duration": 172}, {"note": 0, "velocity": 0, "duration": 68}, {"note": 73, "velocity": 91, "duration": 156}, {"note": 0, "velocity": 0, "duration": 84}, {"note": 71, "velocity": 87, "duration": 482}, {"note": 73, "velocity": 88, "duration": 2880}, {"note": 0, "velocity": 0, "duration": 480}, {"note": 71, "velocity": 92, "duration": 160}, {"note": 0, "velocity": 0, "duration": 80}, {"note": 73, "velocity": 98, "duration": 182}, {"note": 75, "velocity": 89, "duration": 137}, {"note": 0, "velocity": 0, "duration": 103}, {"note": 75, "velocity": 87, "duration": 130}, {"note": 0, "velocity": 0, "duration": 110}, {"note": 75, "velocity": 88, "duration": 141}, {"note": 0, "velocity": 0, "duration": 99}, {"note": 76, "velocity": 87, "duration": 178}, {"note": 0, "velocity": 0, "duration": 62}, {"note": 75, "velocity": 91, "duration": 160}, {"note": 0, "velocity": 0, "duration": 80}, {"note": 73, "velocity": 89, "duration": 115}, {"note": 0, "velocity": 0, "duration": 125}, {"note": 73, "velocity": 93, "duration": 170}, {"note": 0, "velocity": 0, "duration": 70}, {"note": 71, "velocity": 88, "duration": 208}, {"note": 73, "velocity": 94, "duration": 324}, {"note": 0, "velocity": 0, "duration": 156}, {"note": 73, "velocity": 91, "duration": 173}, {"note": 0, "velocity": 0, "duration": 67}, {"note": 78, "velocity": 89, "duration": 170}, {"note": 0, "velocity": 0, "duration": 70}, {"note": 73, "velocity": 98, "duration": 305}, {"note": 0, "velocity": 0, "duration": 175}, {"note": 71, "velocity": 89, "duration": 181}, {"note": 70, "velocity": 88, "duration": 161}, {"note": 0, "velocity": 0, "duration": 79}, {"note": 71, "velocity": 88, "duration": 139}, {"note": 0, "velocity": 0, "duration": 101}, {"note": 71, "velocity": 86, "duration": 153}, {"note": 0, "velocity": 0, "duration": 87}, {"note": 71, "velocity": 88, "duration": 167}, {"note": 0, "velocity": 0, "duration": 73}, {"note": 75, "velocity": 89, "duration": 124}, {"note": 0, "velocity": 0, "duration": 116}, {"note": 75, "velocity": 90, "duration": 166}, {"note": 0, "velocity": 0, "duration": 74}, {"note": 71, "velocity": 88, "duration": 125}, {"note": 0, "velocity": 0, "duration": 115}, {"note": 71, "velocity": 87, "duration": 218}, {"note": 68, "velocity": 82, "duration": 186}, {"note": 70, "velocity": 88, "duration": 424}, {"note": 70, "velocity": 85, "duration": 165}, {"note": 0, "velocity": 0, "duration": 75}, {"note": 75, "velocity": 88, "duration": 107}, {"note": 0, "velocity": 0, "duration": 133}, {"note": 70, "velocity": 90, "duration": 289}, {"note": 0, "velocity": 0, "duration": 191}, {"note": 68, "velocity": 91, "duration": 192}, {"note": 66, "velocity": 87, "duration": 206}, {"note": 68, "velocity": 93, "duration": 329}, {"note": 0, "velocity": 0, "duration": 151}, {"note": 68, "velocity": 91, "duration": 127}, {"note": 0, "velocity": 0, "duration": 113}, {"note": 68, "velocity": 91, "duration": 197}, {"note": 76, "velocity": 91, "duration": 547}, {"note": 0, "velocity": 0, "duration": 173}, {"note": 76, "velocity": 86, "duration": 209}, {"note": 75, "velocity": 89, "duration": 334}, {"note": 0, "velocity": 0, "duration": 146}, {"note": 78, "velocity": 90, "duration": 124}, {"note": 0, "velocity": 0, "duration": 116}, {"note": 71, "velocity": 89, "duration": 451}, {"note": 0, "velocity": 0, "duration": 269}, {"note": 68, "velocity": 91, "duration": 112}, {"note": 0, "velocity": 0, "duration": 128}, {"note": 66, "velocity": 88, "duration": 184}, {"note": 68, "velocity": 91, "duration": 131}, {"note": 0, "velocity": 0, "duration": 109}, {"note": 68, "velocity": 89, "duration": 125}, {"note": 0, "velocity": 0, "duration": 115}, {"note": 68, "velocity": 87, "duration": 160}, {"note": 0, "velocity": 0, "duration": 80}, {"note": 76, "velocity": 89, "duration": 135}, {"note": 0, "velocity": 0, "duration": 105}, {"note": 76, "velocity": 91, "duration": 144}, {"note": 0, "velocity": 0, "duration": 136}, {"note": 71, "velocity": 91, "duration": 344}, {"note": 0, "velocity": 0, "duration": 98}, {"note": 71, "velocity": 89, "duration": 160}, {"note": 0, "velocity": 0, "duration": 116}, {"note": 71, "velocity": 94, "duration": 1218}, {"note": 0, "velocity": 0, "duration": 152}, {"note": 70, "velocity": 94, "duration": 391}, {"note": 0, "velocity": 0, "duration": 84}, {"note": 71, "velocity": 89, "duration": 2957}, {"note": 0, "velocity": 0, "duration": 440}, {"note": 71, "velocity": 91, "duration": 175}, {"note": 0, "velocity": 0, "duration": 65}, {"note": 73, "velocity": 98, "duration": 135}, {"note": 0, "velocity": 0, "duration": 105}, {"note": 75, "velocity": 90, "duration": 161}, {"note": 0, "velocity": 0, "duration": 79}, {"note": 71, "velocity": 92, "duration": 131}, {"note": 0, "velocity": 0, "duration": 109}, {"note": 71, "velocity": 92, "duration": 156}, {"note": 0, "velocity": 0, "duration": 84}, {"note": 68, "velocity": 91, "duration": 174}, {"note": 0, "velocity": 0, "duration": 66}, {"note": 71, "velocity": 103, "duration": 373}, {"note": 0, "velocity": 0, "duration": 107}, {"note": 68, "velocity": 93, "duration": 326}, {"note": 0, "velocity": 0, "duration": 154}, {"note": 71, "velocity": 94, "duration": 359}, {"note": 0, "velocity": 0, "duration": 121}, {"note": 73, "velocity": 94, "duration": 170}, {"note": 0, "velocity": 0, "duration": 70}, {"note": 71, "velocity": 103, "duration": 477}, {"note": 0, "velocity": 0, "duration": 243}, {"note": 71, "velocity": 92, "duration": 166}, {"note": 0, "velocity": 0, "duration": 74}, {"note": 73, "velocity": 98, "duration": 147}, {"note": 0, "velocity": 0, "duration": 93}, {"note": 70, "velocity": 91, "duration": 192}, {"note": 66, "velocity": 85, "duration": 127}, {"note": 0, "velocity": 0, "duration": 113}, {"note": 66, "velocity": 83, "duration": 134}, {"note": 0, "velocity": 0, "duration": 106}, {"note": 66, "velocity": 89, "duration": 202}, {"note": 73, "velocity": 93, "duration": 240}, {"note": 75, "velocity": 92, "duration": 480}, {"note": 73, "velocity": 98, "duration": 480}, {"note": 71, "velocity": 87, "duration": 960}, {"note": 0, "velocity": 0, "duration": 240}, {"note": 71, "velocity": 91, "duration": 161}, {"note": 0, "velocity": 0, "duration": 79}, {"note": 73, "velocity": 90, "duration": 163}, {"note": 0, "velocity": 0, "duration": 77}, {"note": 75, "velocity": 89, "duration": 174}, {"note": 0, "velocity": 0, "duration": 66}, {"note": 71, "velocity": 91, "duration": 153}, {"note": 0, "velocity": 0, "duration": 87}, {"note": 71, "velocity": 89, "duration": 214}, {"note": 68, "velocity": 84, "duration": 226}, {"note": 71, "velocity": 92, "duration": 344}, {"note": 0, "velocity": 0, "duration": 136}, {"note": 71, "velocity": 89, "duration": 162}, {"note": 0, "velocity": 0, "duration": 78}, {"note": 73, "velocity": 98, "duration": 156}, {"note": 0, "velocity": 0, "duration": 84}, {"note": 75, "velocity": 89, "duration": 180}, {"note": 71, "velocity": 87, "duration": 144}, {"note": 0, "velocity": 0, "duration": 96}, {"note": 71, "velocity": 88, "duration": 229}, {"note": 68, "velocity": 90, "duration": 192}, {"note": 71, "velocity": 94, "duration": 351}, {"note": 0, "velocity": 0, "duration": 129}, {"note": 71, "velocity": 94, "duration": 184}, {"note": 73, "velocity": 96, "duration": 187}, {"note": 75, "velocity": 91, "duration": 153}, {"note": 0, "velocity": 0, "duration": 87}, {"note": 75, "velocity": 89, "duration": 126}, {"note": 0, "velocity": 0, "duration": 114}, {"note": 75, "velocity": 90, "duration": 135}, {"note": 0, "velocity": 0, "duration": 105}, {"note": 75, "velocity": 91, "duration": 134}, {"note": 0, "velocity": 0, "duration": 106}, {"note": 75, "velocity": 93, "duration": 397}, {"note": 0, "velocity": 0, "duration": 72}, {"note": 76, "velocity": 91, "duration": 440}, {"note": 75, "velocity": 94, "duration": 339}, {"note": 73, "velocity": 89, "duration": 2215}, {"note": 0, "velocity": 0, "duration": 800}, {"note": 71, "velocity": 92, "duration": 160}, {"note": 0, "velocity": 0, "duration": 80}, {"note": 73, "velocity": 98, "duration": 182}, {"note": 75, "velocity": 89, "duration": 137}, {"note": 0, "velocity": 0, "duration": 103}, {"note": 75, "velocity": 87, "duration": 130}, {"note": 0, "velocity": 0, "duration": 110}, {"note": 75, "velocity": 88, "duration": 141}, {"note": 0, "velocity": 0, "duration": 99}, {"note": 76, "velocity": 87, "duration": 178}, {"note": 0, "velocity": 0, "duration": 62}, {"note": 75, "velocity": 91, "duration": 160}, {"note": 0, "velocity": 0, "duration": 80}, {"note": 73, "velocity": 89, "duration": 115}, {"note": 0, "velocity": 0, "duration": 125}, {"note": 73, "velocity": 93, "duration": 170}, {"note": 0, "velocity": 0, "duration": 70}, {"note": 71, "velocity": 88, "duration": 208}, {"note": 73, "velocity": 94, "duration": 324}, {"note": 0, "velocity": 0, "duration": 156}, {"note": 73, "velocity": 91, "duration": 173}, {"note": 0, "velocity": 0, "duration": 67}, {"note": 78, "velocity": 89, "duration": 170}, {"note": 0, "velocity": 0, "duration": 70}, {"note": 73, "velocity": 98, "duration": 305}, {"note": 0, "velocity": 0, "duration": 175}, {"note": 71, "velocity": 89, "duration": 181}, {"note": 70, "velocity": 88, "duration": 161}, {"note": 0, "velocity": 0, "duration": 79}, {"note": 71, "velocity": 88, "duration": 139}, {"note": 0, "velocity": 0, "duration": 101}, {"note": 71, "velocity": 86, "duration": 153}, {"note": 0, "velocity": 0, "duration": 87}, {"note": 71, "velocity": 88, "duration": 167}, {"note": 0, "velocity": 0, "duration": 73}, {"note": 75, "velocity": 89, "duration": 124}, {"note": 0, "velocity": 0, "duration": 116}, {"note": 75, "velocity": 90, "duration": 166}, {"note": 0, "velocity": 0, "duration": 74}, {"note": 71, "velocity": 88, "duration": 125}, {"note": 0, "velocity": 0, "duration": 115}, {"note": 71, "velocity": 87, "duration": 218}, {"note": 68, "velocity": 82, "duration": 186}, {"note": 70, "velocity": 88, "duration": 424}, {"note": 70, "velocity": 85, "duration": 165}, {"note": 0, "velocity": 0, "duration": 75}, {"note": 75, "velocity": 88, "duration": 107}, {"note": 0, "velocity": 0, "duration": 133}, {"note": 70, "velocity": 90, "duration": 289}, {"note": 0, "velocity": 0, "duration": 191}, {"note": 68, "velocity": 91, "duration": 192}, {"note": 66, "velocity": 87, "duration": 206}, {"note": 68, "velocity": 93, "duration": 329}, {"note": 0, "velocity": 0, "duration": 151}, {"note": 68, "velocity": 91, "duration": 127}, {"note": 0, "velocity": 0, "duration": 113}, {"note": 68, "velocity": 91, "duration": 197}, {"note": 76, "velocity": 91, "duration": 547}, {"note": 0, "velocity": 0, "duration": 173}, {"note": 76, "velocity": 86, "duration": 209}, {"note": 75, "velocity": 89, "duration": 334}, {"note": 0, "velocity": 0, "duration": 146}, {"note": 78, "velocity": 90, "duration": 124}, {"note": 0, "velocity": 0, "duration": 116}, {"note": 71, "velocity": 89, "duration": 451}, {"note": 0, "velocity": 0, "duration": 269}, {"note": 68, "velocity": 91, "duration": 112}, {"note": 0, "velocity": 0, "duration": 128}, {"note": 66, "velocity": 88, "duration": 184}, {"note": 68, "velocity": 91, "duration": 131}, {"note": 0, "velocity": 0, "duration": 109}, {"note": 68, "velocity": 89, "duration": 125}, {"note": 0, "velocity": 0, "duration": 115}, {"note": 68, "velocity": 87, "duration": 160}, {"note": 0, "velocity": 0, "duration": 80}, {"note": 76, "velocity": 89, "duration": 135}, {"note": 0, "velocity": 0, "duration": 105}, {"note": 76, "velocity": 91, "duration": 144}, {"note": 0, "velocity": 0, "duration": 96}, {"note": 71, "velocity": 85, "duration": 117}, {"note": 0, "velocity": 0, "duration": 123}, {"note": 71, "velocity": 88, "duration": 135}, {"note": 0, "velocity": 0, "duration": 105}, {"note": 68, "velocity": 89, "duration": 240}, {"note": 73, "velocity": 91, "duration": 1012}, {"note": 0, "velocity": 0, "duration": 188}, {"note": 71, "velocity": 89, "duration": 191}, {"note": 71, "velocity": 92, "duration": 160}, {"note": 0, "velocity": 0, "duration": 80}, {"note": 73, "velocity": 98, "duration": 182}, {"note": 75, "velocity": 89, "duration": 137}, {"note": 0, "velocity": 0, "duration": 103}, {"note": 75, "velocity": 87, "duration": 130}, {"note": 0, "velocity": 0, "duration": 110}, {"note": 75, "velocity": 88, "duration": 141}, {"note": 0, "velocity": 0, "duration": 99}, {"note": 76, "velocity": 87, "duration": 178}, {"note": 0, "velocity": 0, "duration": 62}, {"note": 75, "velocity": 91, "duration": 160}, {"note": 0, "velocity": 0, "duration": 80}, {"note": 73, "velocity": 89, "duration": 115}, {"note": 0, "velocity": 0, "duration": 125}, {"note": 73, "velocity": 93, "duration": 170}, {"note": 0, "velocity": 0, "duration": 70}, {"note": 71, "velocity": 88, "duration": 208}, {"note": 73, "velocity": 94, "duration": 324}, {"note": 0, "velocity": 0, "duration": 156}, {"note": 73, "velocity": 91, "duration": 173}, {"note": 0, "velocity": 0, "duration": 67}, {"note": 78, "velocity": 89, "duration": 170}, {"note": 0, "velocity": 0, "duration": 70}, {"note": 73, "velocity": 98, "duration": 305}, {"note": 0, "velocity": 0, "duration": 175}, {"note": 71, "velocity": 89, "duration": 181}, {"note": 70, "velocity": 88, "duration": 161}, {"note": 0, "velocity": 0, "duration": 79}, {"note": 71, "velocity": 88, "duration": 139}, {"note": 0, "velocity": 0, "duration": 101}, {"note": 71, "velocity": 86, "duration": 153}, {"note": 0, "velocity": 0, "duration": 87}, {"note": 71, "velocity": 88, "duration": 167}, {"note": 0, "velocity": 0, "duration": 73}, {"note": 75, "velocity": 89, "duration": 124}, {"note": 0, "velocity": 0, "duration": 116}, {"note": 75, "velocity": 90, "duration": 166}, {"note": 0, "velocity": 0, "duration": 74}, {"note": 71, "velocity": 88, "duration": 125}, {"note": 0, "velocity": 0, "duration": 115}, {"note": 71, "velocity": 87, "duration": 218}, {"note": 68, "velocity": 82, "duration": 186}, {"note": 70, "velocity": 88, "duration": 424}, {"note": 70, "velocity": 85, "duration": 165}, {"note": 0, "velocity": 0, "duration": 75}, {"note": 75, "velocity": 88, "duration": 107}, {"note": 0, "velocity": 0, "duration": 133}, {"note": 70, "velocity": 90, "duration": 289}, {"note": 0, "velocity": 0, "duration": 191}, {"note": 68, "velocity": 91, "duration": 192}, {"note": 66, "velocity": 87, "duration": 206}, {"note": 68, "velocity": 93, "duration": 329}, {"note": 0, "velocity": 0, "duration": 151}, {"note": 68, "velocity": 91, "duration": 480}, {"note": 76, "velocity": 91, "duration": 547}, {"note": 0, "velocity": 0, "duration": 173}, {"note": 76, "velocity": 86, "duration": 209}, {"note": 75, "velocity": 89, "duration": 334}, {"note": 0, "velocity": 0, "duration": 146}, {"note": 78, "velocity": 90, "duration": 124}, {"note": 0, "velocity": 0, "duration": 116}, {"note": 71, "velocity": 89, "duration": 451}, {"note": 0, "velocity": 0, "duration": 269}, {"note": 68, "velocity": 91, "duration": 112}, {"note": 0, "velocity": 0, "duration": 128}, {"note": 66, "velocity": 88, "duration": 184}, {"note": 68, "velocity": 91, "duration": 131}, {"note": 0, "velocity": 0, "duration": 109}, {"note": 68, "velocity": 89, "duration": 125}, {"note": 0, "velocity": 0, "duration": 115}, {"note": 68, "velocity": 87, "duration": 160}, {"note": 0, "velocity": 0, "duration": 80}, {"note": 76, "velocity": 89, "duration": 135}, {"note": 0, "velocity": 0, "duration": 105}, {"note": 76, "velocity": 91, "duration": 240}, {"note": 71, "velocity": 88, "duration": 313}, {"note": 0, "velocity": 0, "duration": 89}, {"note": 71, "velocity": 88, "duration": 204}, {"note": 0, "velocity": 0, "duration": 68}, {"note": 71, "velocity": 88, "duration": 1187}, {"note": 0, "velocity": 0, "duration": 206}, {"note": 70, "velocity": 91, "duration": 403}, {"note": 0, "velocity": 0, "duration": 120}, {"note": 71, "velocity": 93, "duration": 2750}, {"note": 0, "velocity": 0, "duration": 634}, {"note": 68, "velocity": 88, "duration": 276}, {"note": 66, "velocity": 78, "duration": 297}, {"note": 68, "velocity": 88, "duration": 193}, {"note": 0, "velocity": 0, "duration": 66}, {"note": 68, "velocity": 87, "duration": 187}, {"note": 0, "velocity": 0, "duration": 104}, {"note": 68, "velocity": 89, "duration": 582}, {"note": 76, "velocity": 98, "duration": 526}, {"note": 0, "velocity": 0, "duration": 158}, {"note": 76, "velocity": 89, "duration": 212}, {"note": 0, "velocity": 0, "duration": 69}, {"note": 75, "velocity": 93, "duration": 464}, {"note": 78, "velocity": 87, "duration": 432}, {"note": 71, "velocity": 88, "duration": 837}, {"note": 68, "velocity": 89, "duration": 239}, {"note": 66, "velocity": 80, "duration": 273}, {"note": 68, "velocity": 88, "duration": 220}, {"note": 0, "velocity": 0, "duration": 95}, {"note": 68, "velocity": 88, "duration": 186}, {"note": 0, "velocity": 0, "duration": 112}, {"note": 68, "velocity": 89, "duration": 279}, {"note": 76, "velocity": 88, "duration": 219}, {"note": 0, "velocity": 0, "duration": 88}, {"note": 76, "velocity": 87, "duration": 273}, {"note": 75, "velocity": 88, "duration": 367}, {"note": 0, "velocity": 0, "duration": 80}, {"note": 71, "velocity": 89, "duration": 440}, {"note": 0, "velocity": 0, "duration": 115}, {"note": 71, "velocity": 88, "duration": 1409}, {"note": 0, "velocity": 0, "duration": 560}, {"note": 70, "velocity": 87, "duration": 1371}, {"note": 71, "velocity": 89, "duration": 259}]]