[[{"note": 71, "velocity": 88, "duration": 607}, {"note": 0, "velocity": 0, "duration": 113}, {"note": 72, "velocity": 88, "duration": 202}, {"note": 71, "velocity": 96, "duration": 418}, {"note": 0, "velocity": 0, "duration": 62}, {"note": 79, "velocity": 93, "duration": 715}, {"note": 0, "velocity": 0, "duration": 245}, {"note": 76, "velocity": 81, "duration": 394}, {"note": 0, "velocity": 0, "duration": 86}, {"note": 78, "velocity": 89, "duration": 600}, {"note": 0, "velocity": 0, "duration": 120}, {"note": 79, "velocity": 83, "duration": 162}, {"note": 0, "velocity": 0, "duration": 78}, {"note": 78, "velocity": 91, "duration": 146}, {"note": 0, "velocity": 0, "duration": 94}, {"note": 76, "velocity": 89, "duration": 201}, {"note": 71, "velocity": 93, "duration": 1219}, {"note": 0, "velocity": 0, "duration": 221}, {"note": 69, "velocity": 86, "duration": 672}, {"note": 72, "velocity": 88, "duration": 188}, {"note": 69, "velocity": 89, "duration": 128}, {"note": 0, "velocity": 0, "duration": 112}, {"note": 69, "velocity": 84, "duration": 165}, {"note": 0, "velocity": 0, "duration": 75}, {"note": 78, "velocity": 87, "duration": 763}, {"note": 0, "velocity": 0, "duration": 197}, {"note": 69, "velocity": 85, "duration": 373}, {"note": 0, "velocity": 0, "duration": 107}, {"note": 71, "velocity": 86, "duration": 356}, {"note": 0, "velocity": 0, "duration": 124}, {"note": 75, "velocity": 84, "duration": 390}, {"note": 0, "velocity": 0, "duration": 90}, {"note": 78, "velocity": 85, "duration": 351}, {"note": 0, "velocity": 0, "duration": 129}, {"note": 76, "velocity": 86, "duration": 1056}, {"note": 0, "velocity": 0, "duration": 384}, {"note": 76, "velocity": 89, "duration": 386}, {"note": 0, "velocity": 0, "duration": 94}, {"note": 77, "velocity": 89, "duration": 395}, {"note": 0, "velocity": 0, "duration": 85}, {"note": 76, "velocity": 93, "duration": 418}, {"note": 0, "velocity": 0, "duration": 62}, {"note": 88, "velocity": 96, "duration": 754}, {"note": 0, "velocity": 0, "duration": 206}, {"note": 83, "velocity": 93, "duration": 400}, {"note": 0, "velocity": 0, "duration": 80}, {"note": 84, "velocity": 88, "duration": 600}, {"note": 0, "velocity": 0, "duration": 120}, {"note": 86, "velocity": 85, "duration": 173}, {"note": 0, "velocity": 0, "duration": 67}, {"note": 84, "velocity": 86, "duration": 143}, {"note": 0, "velocity": 0, "duration": 97}, {"note": 81, "velocity": 57, "duration": 108}, {"note": 0, "velocity": 0, "duration": 132}, {"note": 83, "velocity": 82, "duration": 1075}, {"note": 0, "velocity": 0, "duration": 365}, {"note": 83, "velocity": 84, "duration": 602}, {"note": 0, "velocity": 0, "duration": 118}, {"note": 79, "velocity": 83, "duration": 137}, {"note": 0, "velocity": 0, "duration": 103}, {"note": 81, "velocity": 84, "duration": 133}, {"note": 0, "velocity": 0, "duration": 107}, {"note": 83, "velocity": 86, "duration": 147}, {"note": 0, "velocity": 0, "duration": 93}, {"note": 81, "velocity": 83, "duration": 657}, {"note": 0, "velocity": 0, "duration": 303}, {"note": 79, "velocity": 82, "duration": 364}, {"note": 0, "velocity": 0, "duration": 116}, {"note": 78, "velocity": 88, "duration": 347}, {"note": 0, "velocity": 0, "duration": 133}, {"note": 71, "velocity": 89, "duration": 316}, {"note": 0, "velocity": 0, "duration": 164}, {"note": 83, "velocity": 87, "duration": 133}, {"note": 0, "velocity": 0, "duration": 107}, {"note": 81, "velocity": 85, "duration": 152}, {"note": 0, "velocity": 0, "duration": 88}, {"note": 76, "velocity": 87, "duration": 1291}, {"note": 0, "velocity": 0, "duration": 149}, {"note": 71, "velocity": 88, "duration": 607}, {"note": 0, "velocity": 0, "duration": 113}, {"note": 72, "velocity": 88, "duration": 202}, {"note": 71, "velocity": 96, "duration": 418}, {"note": 0, "velocity": 0, "duration": 62}, {"note": 79, "velocity": 93, "duration": 715}, {"note": 0, "velocity": 0, "duration": 245}, {"note": 76, "velocity": 81, "duration": 394}, {"note": 0, "velocity": 0, "duration": 86}, {"note": 78, "velocity": 89, "duration": 600}, {"note": 0, "velocity": 0, "duration": 120}, {"note": 79, "velocity": 83, "duration": 162}, {"note": 0, "velocity": 0, "duration": 78}, {"note": 78, "velocity": 91, "duration": 146}, {"note": 0, "velocity": 0, "duration": 94}, {"note": 76, "velocity": 89, "duration": 201}, {"note": 71, "velocity": 93, "duration": 1219}, {"note": 0, "velocity": 0, "duration": 221}, {"note": 69, "velocity": 86, "duration": 672}, {"note": 72, "velocity": 88, "duration": 188}, {"note": 69, "velocity": 89, "duration": 478}, {"note": 78, "velocity": 87, "duration": 478}, {"note": 76, "velocity": 84, "duration": 478}, {"note": 69, "velocity": 85, "duration": 373}, {"note": 0, "velocity": 0, "duration": 107}, {"note": 71, "velocity": 86, "duration": 356}, {"note": 0, "velocity": 0, "duration": 124}, {"note": 75, "velocity": 84, "duration": 390}, {"note": 0, "velocity": 0, "duration": 90}, {"note": 78, "velocity": 85, "duration": 351}, {"note": 0, "velocity": 0, "duration": 129}, {"note": 76, "velocity": 86, "duration": 1056}, {"note": 0, "velocity": 0, "duration": 384}, {"note": 76, "velocity": 89, "duration": 386}, {"note": 0, "velocity": 0, "duration": 94}, {"note": 77, "velocity": 89, "duration": 395}, {"note": 0, "velocity": 0, "duration": 85}, {"note": 76, "velocity": 93, "duration": 418}, {"note": 0, "velocity": 0, "duration": 62}, {"note": 88, "velocity": 96, "duration": 754}, {"note": 0, "velocity": 0, "duration": 206}, {"note": 83, "velocity": 93, "duration": 400}, {"note": 0, "velocity": 0, "duration": 80}, {"note": 84, "velocity": 88, "duration": 600}, {"note": 0, "velocity": 0, "duration": 120}, {"note": 86, "velocity": 85, "duration": 173}, {"note": 0, "velocity": 0, "duration": 67}, {"note": 84, "velocity": 86, "duration": 143}, {"note": 0, "velocity": 0, "duration": 97}, {"note": 81, "velocity": 84, "duration": 108}, {"note": 0, "velocity": 0, "duration": 132}, {"note": 83, "velocity": 82, "duration": 1075}, {"note": 0, "velocity": 0, "duration": 365}, {"note": 83, "velocity": 84, "duration": 602}, {"note": 0, "velocity": 0, "duration": 118}, {"note": 79, "velocity": 83, "duration": 137}, {"note": 0, "velocity": 0, "duration": 103}, {"note": 81, "velocity": 84, "duration": 133}, {"note": 0, "velocity": 0, "duration": 107}, {"note": 83, "velocity": 86, "duration": 147}, {"note": 0, "velocity": 0, "duration": 93}, {"note": 81, "velocity": 83, "duration": 657}, {"note": 0, "velocity": 0, "duration": 303}, {"note": 79, "velocity": 82, "duration": 364}, {"note": 0, "velocity": 0, "duration": 116}, {"note": 78, "velocity": 88, "duration": 347}, {"note": 0, "velocity": 0, "duration": 133}, {"note": 71, "velocity": 89, "duration": 316}, {"note": 0, "velocity": 0, "duration": 164}, {"note": 83, "velocity": 87, "duration": 133}, {"note": 0, "velocity": 0, "duration": 107}, {"note": 81, "velocity": 85, "duration": 152}, {"note": 0, "velocity": 0, "duration": 88}, {"note": 76, "velocity": 87, "duration": 1291}, {"note": 0, "velocity": 0, "duration": 149}, {"note": 88, "velocity": 91, "duration": 586}, {"note": 0, "velocity": 0, "duration": 134}, {"note": 83, "velocity": 83, "duration": 157}, {"note": 0, "velocity": 0, "duration": 83}, {"note": 83, "velocity": 83, "duration": 123}, {"note": 0, "velocity": 0, "duration": 117}, {"note": 83, "velocity": 84, "duration": 138}, {"note": 0, "velocity": 0, "duration": 102}, {"note": 84, "velocity": 93, "duration": 547}, {"note": 0, "velocity": 0, "duration": 173}, {"note": 81, "velocity": 80, "duration": 153}, {"note": 0, "velocity": 0, "duration": 87}, {"note": 76, "velocity": 87, "duration": 178}, {"note": 0, "velocity": 0, "duration": 62}, {"note": 81, "velocity": 85, "duration": 127}, {"note": 0, "velocity": 0, "duration": 113}, {"note": 86, "velocity": 86, "duration": 415}, {"note": 0, "velocity": 0, "duration": 65}, {"note": 86, "velocity": 84, "duration": 172}, {"note": 0, "velocity": 0, "duration": 68}, {"note": 88, "velocity": 89, "duration": 200}, {"note": 86, "velocity": 89, "duration": 123}, {"note": 0, "velocity": 0, "duration": 117}, {"note": 88, "velocity": 86, "duration": 167}, {"note": 0, "velocity": 0, "duration": 73}, {"note": 83, "velocity": 84, "duration": 1133}, {"note": 0, "velocity": 0, "duration": 307}, {"note": 83, "velocity": 87, "duration": 373}, {"note": 0, "velocity": 0, "duration": 347}, {"note": 81, "velocity": 89, "duration": 238}, {"note": 79, "velocity": 82, "duration": 123}, {"note": 0, "velocity": 0, "duration": 117}, {"note": 78, "velocity": 84, "duration": 178}, {"note": 0, "velocity": 0, "duration": 62}, {"note": 72, "velocity": 83, "duration": 335}, {"note": 0, "velocity": 0, "duration": 145}, {"note": 81, "velocity": 85, "duration": 143}, {"note": 0, "velocity": 0, "duration": 97}, {"note": 79, "velocity": 83, "duration": 165}, {"note": 0, "velocity": 0, "duration": 75}, {"note": 78, "velocity": 89, "duration": 203}, {"note": 76, "velocity": 86, "duration": 144}, {"note": 0, "velocity": 0, "duration": 96}, {"note": 78, "velocity": 84, "duration": 145}, {"note": 0, "velocity": 0, "duration": 95}, {"note": 78, "velocity": 78, "duration": 127}, {"note": 0, "velocity": 0, "duration": 113}, {"note": 78, "velocity": 86, "duration": 109}, {"note": 0, "velocity": 0, "duration": 131}, {"note": 71, "velocity": 91, "duration": 121}, {"note": 0, "velocity": 0, "duration": 119}, {"note": 83, "velocity": 89, "duration": 164}, {"note": 0, "velocity": 0, "duration": 76}, {"note": 81, "velocity": 80, "duration": 139}, {"note": 0, "velocity": 0, "duration": 101}, {"note": 83, "velocity": 86, "duration": 1153}, {"note": 0, "velocity": 0, "duration": 287}, {"note": 88, "velocity": 93, "duration": 593}, {"note": 0, "velocity": 0, "duration": 127}, {"note": 90, "velocity": 93, "duration": 127}, {"note": 0, "velocity": 0, "duration": 113}, {"note": 91, "velocity": 86, "duration": 158}, {"note": 0, "velocity": 0, "duration": 82}, {"note": 90, "velocity": 93, "duration": 138}, {"note": 0, "velocity": 0, "duration": 102}, {"note": 84, "velocity": 93, "duration": 598}, {"note": 0, "velocity": 0, "duration": 122}, {"note": 81, "velocity": 87, "duration": 128}, {"note": 0, "velocity": 0, "duration": 112}, {"note": 76, "velocity": 87, "duration": 139}, {"note": 0, "velocity": 0, "duration": 101}, {"note": 81, "velocity": 84, "duration": 147}, {"note": 0, "velocity": 0, "duration": 93}, {"note": 86, "velocity": 89, "duration": 361}, {"note": 0, "velocity": 0, "duration": 119}, {"note": 88, "velocity": 86, "duration": 296}, {"note": 0, "velocity": 0, "duration": 184}, {"note": 90, "velocity": 93, "duration": 400}, {"note": 0, "velocity": 0, "duration": 80}, {"note": 83, "velocity": 91, "duration": 1091}, {"note": 0, "velocity": 0, "duration": 349}, {"note": 83, "velocity": 85, "duration": 637}, {"note": 0, "velocity": 0, "duration": 83}, {"note": 79, "velocity": 84, "duration": 154}, {"note": 0, "velocity": 0, "duration": 86}, {"note": 81, "velocity": 86, "duration": 158}, {"note": 0, "velocity": 0, "duration": 82}, {"note": 83, "velocity": 85, "duration": 145}, {"note": 0, "velocity": 0, "duration": 95}, {"note": 81, "velocity": 86, "duration": 726}, {"note": 0, "velocity": 0, "duration": 234}, {"note": 79, "velocity": 84, "duration": 347}, {"note": 0, "velocity": 0, "duration": 133}, {"note": 78, "velocity": 89, "duration": 347}, {"note": 0, "velocity": 0, "duration": 133}, {"note": 71, "velocity": 87, "duration": 322}, {"note": 0, "velocity": 0, "duration": 158}, {"note": 83, "velocity": 84, "duration": 151}, {"note": 0, "velocity": 0, "duration": 89}, {"note": 81, "velocity": 85, "duration": 152}, {"note": 0, "velocity": 0, "duration": 88}, {"note": 76, "velocity": 88, "duration": 1438}, {"note": 71, "velocity": 88, "duration": 607}, {"note": 0, "velocity": 0, "duration": 113}, {"note": 72, "velocity": 88, "duration": 202}, {"note": 71, "velocity": 96, "duration": 418}, {"note": 0, "velocity": 0, "duration": 62}, {"note": 79, "velocity": 93, "duration": 715}, {"note": 0, "velocity": 0, "duration": 245}, {"note": 76, "velocity": 81, "duration": 394}, {"note": 0, "velocity": 0, "duration": 86}, {"note": 78, "velocity": 89, "duration": 600}, {"note": 0, "velocity": 0, "duration": 120}, {"note": 79, "velocity": 83, "duration": 162}, {"note": 0, "velocity": 0, "duration": 78}, {"note": 78, "velocity": 91, "duration": 146}, {"note": 0, "velocity": 0, "duration": 94}, {"note": 76, "velocity": 89, "duration": 201}, {"note": 71, "velocity": 93, "duration": 1219}, {"note": 0, "velocity": 0, "duration": 221}, {"note": 69, "velocity": 86, "duration": 672}, {"note": 72, "velocity": 88, "duration": 188}, {"note": 69, "velocity": 89, "duration": 478}, {"note": 78, "velocity": 87, "duration": 478}, {"note": 76, "velocity": 84, "duration": 478}, {"note": 69, "velocity": 85, "duration": 373}, {"note": 0, "velocity": 0, "duration": 107}, {"note": 71, "velocity": 86, "duration": 356}, {"note": 0, "velocity": 0, "duration": 124}, {"note": 75, "velocity": 84, "duration": 390}, {"note": 0, "velocity": 0, "duration": 90}, {"note": 78, "velocity": 85, "duration": 351}, {"note": 0, "velocity": 0, "duration": 129}, {"note": 76, "velocity": 86, "duration": 1056}, {"note": 0, "velocity": 0, "duration": 384}, {"note": 76, "velocity": 89, "duration": 386}, {"note": 0, "velocity": 0, "duration": 94}, {"note": 77, "velocity": 89, "duration": 395}, {"note": 0, "velocity": 0, "duration": 85}, {"note": 76, "velocity": 93, "duration": 418}, {"note": 0, "velocity": 0, "duration": 62}, {"note": 88, "velocity": 96, "duration": 754}, {"note": 0, "velocity": 0, "duration": 206}, {"note": 83, "velocity": 93, "duration": 400}, {"note": 0, "velocity": 0, "duration": 80}, {"note": 84, "velocity": 88, "duration": 600}, {"note": 0, "velocity": 0, "duration": 120}, {"note": 86, "velocity": 85, "duration": 173}, {"note": 0, "velocity": 0, "duration": 67}, {"note": 84, "velocity": 86, "duration": 143}, {"note": 0, "velocity": 0, "duration": 97}, {"note": 81, "velocity": 84, "duration": 108}, {"note": 0, "velocity": 0, "duration": 132}, {"note": 83, "velocity": 82, "duration": 1075}, {"note": 0, "velocity": 0, "duration": 365}, {"note": 83, "velocity": 84, "duration": 602}, {"note": 0, "velocity": 0, "duration": 118}, {"note": 79, "velocity": 83, "duration": 137}, {"note": 0, "velocity": 0, "duration": 103}, {"note": 81, "velocity": 84, "duration": 133}, {"note": 0, "velocity": 0, "duration": 107}, {"note": 83, "velocity": 86, "duration": 147}, {"note": 0, "velocity": 0, "duration": 93}, {"note": 81, "velocity": 83, "duration": 657}, {"note": 0, "velocity": 0, "duration": 303}, {"note": 79, "velocity": 82, "duration": 364}, {"note": 0, "velocity": 0, "duration": 116}, {"note": 78, "velocity": 88, "duration": 347}, {"note": 0, "velocity": 0, "duration": 133}, {"note": 71, "velocity": 89, "duration": 316}, {"note": 0, "velocity": 0, "duration": 164}, {"note": 83, "velocity": 87, "duration": 133}, {"note": 0, "velocity": 0, "duration": 107}, {"note": 81, "velocity": 85, "duration": 152}, {"note": 0, "velocity": 0, "duration": 88}, {"note": 76, "velocity": 87, "duration": 1291}, {"note": 0, "velocity": 0, "duration": 149}, {"note": 71, "velocity": 88, "duration": 607}, {"note": 0, "velocity": 0, "duration": 113}, {"note": 72, "velocity": 88, "duration": 202}, {"note": 71, "velocity": 96, "duration": 418}, {"note": 0, "velocity": 0, "duration": 62}, {"note": 79, "velocity": 93, "duration": 715}, {"note": 0, "velocity": 0, "duration": 245}, {"note": 76, "velocity": 81, "duration": 394}, {"note": 0, "velocity": 0, "duration": 86}, {"note": 78, "velocity": 89, "duration": 600}, {"note": 0, "velocity": 0, "duration": 120}, {"note": 79, "velocity": 83, "duration": 162}, {"note": 0, "velocity": 0, "duration": 78}, {"note": 78, "velocity": 91, "duration": 146}, {"note": 0, "velocity": 0, "duration": 94}, {"note": 76, "velocity": 89, "duration": 201}, {"note": 71, "velocity": 93, "duration": 1219}, {"note": 0, "velocity": 0, "duration": 221}, {"note": 69, "velocity": 86, "duration": 672}, {"note": 72, "velocity": 88, "duration": 188}, {"note": 69, "velocity": 89, "duration": 478}, {"note": 78, "velocity": 87, "duration": 478}, {"note": 76, "velocity": 84, "duration": 478}, {"note": 69, "velocity": 85, "duration": 373}, {"note": 0, "velocity": 0, "duration": 107}, {"note": 71, "velocity": 86, "duration": 356}, {"note": 0, "velocity": 0, "duration": 124}, {"note": 75, "velocity": 84, "duration": 390}, {"note": 0, "velocity": 0, "duration": 90}, {"note": 78, "velocity": 85, "duration": 351}, {"note": 0, "velocity": 0, "duration": 129}, {"note": 76, "velocity": 86, "duration": 1056}, {"note": 0, "velocity": 0, "duration": 384}, {"note": 76, "velocity": 89, "duration": 386}, {"note": 0, "velocity": 0, "duration": 94}, {"note": 77, "velocity": 89, "duration": 395}, {"note": 0, "velocity": 0, "duration": 85}, {"note": 76, "velocity": 93, "duration": 418}, {"note": 0, "velocity": 0, "duration": 62}, {"note": 88, "velocity": 96, "duration": 754}, {"note": 0, "velocity": 0, "duration": 206}, {"note": 83, "velocity": 93, "duration": 400}, {"note": 0, "velocity": 0, "duration": 80}, {"note": 84, "velocity": 88, "duration": 600}, {"note": 0, "velocity": 0, "duration": 120}, {"note": 86, "velocity": 85, "duration": 173}, {"note": 0, "velocity": 0, "duration": 67}, {"note": 84, "velocity": 86, "duration": 143}, {"note": 0, "velocity": 0, "duration": 97}, {"note": 81, "velocity": 84, "duration": 108}, {"note": 0, "velocity": 0, "duration": 132}, {"note": 83, "velocity": 82, "duration": 1075}, {"note": 0, "velocity": 0, "duration": 365}, {"note": 83, "velocity": 84, "duration": 602}, {"note": 0, "velocity": 0, "duration": 118}, {"note": 79, "velocity": 83, "duration": 137}, {"note": 0, "velocity": 0, "duration": 103}, {"note": 81, "velocity": 84, "duration": 133}, {"note": 0, "velocity": 0, "duration": 107}, {"note": 83, "velocity": 86, "duration": 147}, {"note": 0, "velocity": 0, "duration": 93}, {"note": 81, "velocity": 83, "duration": 657}, {"note": 0, "velocity": 0, "duration": 303}, {"note": 79, "velocity": 82, "duration": 364}, {"note": 0, "velocity": 0, "duration": 116}, {"note": 78, "velocity": 88, "duration": 347}, {"note": 0, "velocity": 0, "duration": 133}, {"note": 71, "velocity": 89, "duration": 316}, {"note": 0, "velocity": 0, "duration": 164}, {"note": 83, "velocity": 87, "duration": 133}, {"note": 0, "velocity": 0, "duration": 107}, {"note": 81, "velocity": 85, "duration": 152}, {"note": 0, "velocity": 0, "duration": 88}, {"note": 76, "velocity": 87, "duration": 1291}, {"note": 0, "velocity": 0, "duration": 149}, {"note": 88, "velocity": 91, "duration": 586}, {"note": 0, "velocity": 0, "duration": 134}, {"note": 83, "velocity": 83, "duration": 157}, {"note": 0, "velocity": 0, "duration": 83}, {"note": 83, "velocity": 83, "duration": 123}, {"note": 0, "velocity": 0, "duration": 117}, {"note": 83, "velocity": 84, "duration": 138}, {"note": 0, "velocity": 0, "duration": 102}, {"note": 84, "velocity": 93, "duration": 547}, {"note": 0, "velocity": 0, "duration": 173}, {"note": 81, "velocity": 80, "duration": 153}, {"note": 0, "velocity": 0, "duration": 87}, {"note": 76, "velocity": 87, "duration": 178}, {"note": 0, "velocity": 0, "duration": 62}, {"note": 81, "velocity": 85, "duration": 127}, {"note": 0, "velocity": 0, "duration": 113}, {"note": 86, "velocity": 86, "duration": 415}, {"note": 0, "velocity": 0, "duration": 65}, {"note": 86, "velocity": 84, "duration": 172}, {"note": 0, "velocity": 0, "duration": 68}, {"note": 88, "velocity": 89, "duration": 200}, {"note": 86, "velocity": 89, "duration": 123}, {"note": 0, "velocity": 0, "duration": 117}, {"note": 88, "velocity": 86, "duration": 167}, {"note": 0, "velocity": 0, "duration": 73}, {"note": 83, "velocity": 84, "duration": 1133}, {"note": 0, "velocity": 0, "duration": 307}, {"note": 83, "velocity": 87, "duration": 373}, {"note": 0, "velocity": 0, "duration": 347}, {"note": 81, "velocity": 89, "duration": 238}, {"note": 79, "velocity": 82, "duration": 123}, {"note": 0, "velocity": 0, "duration": 117}, {"note": 78, "velocity": 84, "duration": 178}, {"note": 0, "velocity": 0, "duration": 62}, {"note": 72, "velocity": 83, "duration": 335}, {"note": 0, "velocity": 0, "duration": 145}, {"note": 81, "velocity": 85, "duration": 143}, {"note": 0, "velocity": 0, "duration": 97}, {"note": 79, "velocity": 83, "duration": 165}, {"note": 0, "velocity": 0, "duration": 75}, {"note": 78, "velocity": 89, "duration": 203}, {"note": 76, "velocity": 86, "duration": 144}, {"note": 0, "velocity": 0, "duration": 96}, {"note": 78, "velocity": 84, "duration": 145}, {"note": 0, "velocity": 0, "duration": 95}, {"note": 78, "velocity": 78, "duration": 127}, {"note": 0, "velocity": 0, "duration": 113}, {"note": 78, "velocity": 86, "duration": 109}, {"note": 0, "velocity": 0, "duration": 131}, {"note": 71, "velocity": 91, "duration": 121}, {"note": 0, "velocity": 0, "duration": 119}, {"note": 83, "velocity": 89, "duration": 164}, {"note": 0, "velocity": 0, "duration": 76}, {"note": 81, "velocity": 80, "duration": 139}, {"note": 0, "velocity": 0, "duration": 101}, {"note": 83, "velocity": 86, "duration": 1153}, {"note": 0, "velocity": 0, "duration": 287}, {"note": 88, "velocity": 93, "duration": 593}, {"note": 0, "velocity": 0, "duration": 127}, {"note": 90, "velocity": 93, "duration": 127}, {"note": 0, "velocity": 0, "duration": 113}, {"note": 91, "velocity": 86, "duration": 158}, {"note": 0, "velocity": 0, "duration": 82}, {"note": 90, "velocity": 93, "duration": 138}, {"note": 0, "velocity": 0, "duration": 102}, {"note": 84, "velocity": 93, "duration": 598}, {"note": 0, "velocity": 0, "duration": 122}, {"note": 81, "velocity": 87, "duration": 128}, {"note": 0, "velocity": 0, "duration": 112}, {"note": 76, "velocity": 87, "duration": 139}, {"note": 0, "velocity": 0, "duration": 101}, {"note": 81, "velocity": 84, "duration": 147}, {"note": 0, "velocity": 0, "duration": 93}, {"note": 86, "velocity": 89, "duration": 361}, {"note": 0, "velocity": 0, "duration": 119}, {"note": 88, "velocity": 86, "duration": 296}, {"note": 0, "velocity": 0, "duration": 184}, {"note": 90, "velocity": 93, "duration": 400}, {"note": 0, "velocity": 0, "duration": 80}, {"note": 83, "velocity": 91, "duration": 1091}, {"note": 0, "velocity": 0, "duration": 349}, {"note": 83, "velocity": 85, "duration": 637}, {"note": 0, "velocity": 0, "duration": 83}, {"note": 79, "velocity": 84, "duration": 154}, {"note": 0, "velocity": 0, "duration": 86}, {"note": 81, "velocity": 86, "duration": 158}, {"note": 0, "velocity": 0, "duration": 82}, {"note": 83, "velocity": 85, "duration": 145}, {"note": 0, "velocity": 0, "duration": 95}, {"note": 81, "velocity": 86, "duration": 726}, {"note": 0, "velocity": 0, "duration": 234}, {"note": 79, "velocity": 84, "duration": 347}, {"note": 0, "velocity": 0, "duration": 133}, {"note": 78, "velocity": 89, "duration": 347}, {"note": 0, "velocity": 0, "duration": 133}, {"note": 71, "velocity": 87, "duration": 322}, {"note": 0, "velocity": 0, "duration": 158}, {"note": 83, "velocity": 84, "duration": 151}, {"note": 0, "velocity": 0, "duration": 89}, {"note": 81, "velocity": 85, "duration": 152}, {"note": 0, "velocity": 0, "duration": 88}, {"note": 76, "velocity": 88, "duration": 1438}, {"note": 71, "velocity": 88, "duration": 607}, {"note": 0, "velocity": 0, "duration": 113}, {"note": 72, "velocity": 88, "duration": 202}, {"note": 71, "velocity": 96, "duration": 418}, {"note": 0, "velocity": 0, "duration": 62}, {"note": 79, "velocity": 93, "duration": 715}, {"note": 0, "velocity": 0, "duration": 245}, {"note": 76, "velocity": 81, "duration": 394}, {"note": 0, "velocity": 0, "duration": 86}, {"note": 78, "velocity": 89, "duration": 600}, {"note": 0, "velocity": 0, "duration": 120}, {"note": 79, "velocity": 83, "duration": 162}, {"note": 0, "velocity": 0, "duration": 78}, {"note": 78, "velocity": 91, "duration": 146}, {"note": 0, "velocity": 0, "duration": 94}, {"note": 76, "velocity": 89, "duration": 201}, {"note": 71, "velocity": 93, "duration": 1219}, {"note": 0, "velocity": 0, "duration": 221}, {"note": 69, "velocity": 86, "duration": 672}, {"note": 72, "velocity": 88, "duration": 188}, {"note": 69, "velocity": 89, "duration": 478}, {"note": 78, "velocity": 87, "duration": 478}, {"note": 76, "velocity": 84, "duration": 478}, {"note": 69, "velocity": 85, "duration": 373}, {"note": 0, "velocity": 0, "duration": 107}, {"note": 71, "velocity": 86, "duration": 356}, {"note": 0, "velocity": 0, "duration": 124}, {"note": 75, "velocity": 84, "duration": 390}, {"note": 0, "velocity": 0, "duration": 90}, {"note": 78, "velocity": 85, "duration": 351}, {"note": 0, "velocity": 0, "duration": 129}, {"note": 76, "velocity": 86, "duration": 1056}, {"note": 0, "velocity": 0, "duration": 384}, {"note": 76, "velocity": 89, "duration": 386}, {"note": 0, "velocity": 0, "duration": 94}, {"note": 77, "velocity": 89, "duration": 395}, {"note": 0, "velocity": 0, "duration": 85}, {"note": 76, "velocity": 93, "duration": 418}, {"note": 0, "velocity": 0, "duration": 62}, {"note": 88, "velocity": 96, "duration": 754}, {"note": 0, "velocity": 0, "duration": 206}, {"note": 83, "velocity": 93, "duration": 400}, {"note": 0, "velocity": 0, "duration": 80}, {"note": 84, "velocity": 88, "duration": 600}, {"note": 0, "velocity": 0, "duration": 120}, {"note": 86, "velocity": 85, "duration": 173}, {"note": 0, "velocity": 0, "duration": 67}, {"note": 84, "velocity": 86, "duration": 143}, {"note": 0, "velocity": 0, "duration": 97}, {"note": 81, "velocity": 84, "duration": 108}, {"note": 0, "velocity": 0, "duration": 132}, {"note": 83, "velocity": 82, "duration": 1075}, {"note": 0, "velocity": 0, "duration": 365}, {"note": 83, "velocity": 84, "duration": 602}, {"note": 0, "velocity": 0, "duration": 118}, {"note": 79, "velocity": 83, "duration": 137}, {"note": 0, "velocity": 0, "duration": 103}, {"note": 81, "velocity": 84, "duration": 133}, {"note": 0, "velocity": 0, "duration": 107}, {"note": 83, "velocity": 86, "duration": 147}, {"note": 0, "velocity": 0, "duration": 93}, {"note": 81, "velocity": 83, "duration": 657}, {"note": 0, "velocity": 0, "duration": 303}, {"note": 79, "velocity": 82, "duration": 364}, {"note": 0, "velocity": 0, "duration": 116}, {"note": 78, "velocity": 88, "duration": 347}, {"note": 0, "velocity": 0, "duration": 133}, {"note": 71, "velocity": 89, "duration": 316}, {"note": 0, "velocity": 0, "duration": 164}, {"note": 83, "velocity": 87, "duration": 133}, {"note": 0, "velocity": 0, "duration": 107}, {"note": 81, "velocity": 85, "duration": 152}, {"note": 0, "velocity": 0, "duration": 88}, {"note": 76, "velocity": 87, "duration": 1291}, {"note": 0, "velocity": 0, "duration": 149}, {"note": 76, "velocity": 89, "duration": 386}, {"note": 0, "velocity": 0, "duration": 94}, {"note": 77, "velocity": 89, "duration": 395}, {"note": 0, "velocity": 0, "duration": 85}, {"note": 76, "velocity": 93, "duration": 418}, {"note": 0, "velocity": 0, "duration": 62}, {"note": 88, "velocity": 96, "duration": 754}, {"note": 0, "velocity": 0, "duration": 206}, {"note": 83, "velocity": 93, "duration": 400}, {"note": 0, "velocity": 0, "duration": 80}, {"note": 84, "velocity": 88, "duration": 600}, {"note": 0, "velocity": 0, "duration": 120}, {"note": 86, "velocity": 85, "duration": 173}, {"note": 0, "velocity": 0, "duration": 67}, {"note": 84, "velocity": 86, "duration": 143}, {"note": 0, "velocity": 0, "duration": 97}, {"note": 81, "velocity": 84, "duration": 108}, {"note": 0, "velocity": 0, "duration": 132}, {"note": 83, "velocity": 82, "duration": 1075}, {"note": 0, "velocity": 0, "duration": 365}, {"note": 83, "velocity": 84, "duration": 602}, {"note": 0, "velocity": 0, "duration": 118}, {"note": 79, "velocity": 83, "duration": 137}, {"note": 0, "velocity": 0, "duration": 103}, {"note": 81, "velocity": 84, "duration": 133}, {"note": 0, "velocity": 0, "duration": 107}, {"note": 83, "velocity": 86, "duration": 147}, {"note": 0, "velocity": 0, "duration": 93}, {"note": 81, "velocity": 83, "duration": 657}, {"note": 0, "velocity": 0, "duration": 303}, {"note": 79, "velocity": 82, "duration": 364}, {"note": 0, "velocity": 0, "duration": 116}, {"note": 78, "velocity": 88, "duration": 347}, {"note": 0, "velocity": 0, "duration": 133}, {"note": 71, "velocity": 89, "duration": 316}, {"note": 0, "velocity": 0, "duration": 164}, {"note": 83, "velocity": 87, "duration": 133}, {"note": 0, "velocity": 0, "duration": 107}, {"note": 81, "velocity": 85, "duration": 152}, {"note": 0, "velocity": 0, "duration": 88}, {"note": 76, "velocity": 87, "duration": 1291}]]