[[{"note": 62, "velocity": 87, "duration": 173}, {"note": 0, "velocity": 0, "duration": 67}, {"note": 61, "velocity": 90, "duration": 219}, {"note": 59, "velocity": 87, "duration": 877}, {"note": 0, "velocity": 0, "duration": 83}, {"note": 66, "velocity": 86, "duration": 208}, {"note": 62, "velocity": 87, "duration": 187}, {"note": 64, "velocity": 89, "duration": 527}, {"note": 66, "velocity": 86, "duration": 401}, {"note": 0, "velocity": 0, "duration": 79}, {"note": 54, "velocity": 88, "duration": 231}, {"note": 57, "velocity": 85, "duration": 173}, {"note": 0, "velocity": 0, "duration": 67}, {"note": 59, "velocity": 87, "duration": 163}, {"note": 0, "velocity": 0, "duration": 77}, {"note": 66, "velocity": 88, "duration": 175}, {"note": 0, "velocity": 0, "duration": 65}, {"note": 64, "velocity": 87, "duration": 193}, {"note": 62, "velocity": 85, "duration": 176}, {"note": 0, "velocity": 0, "duration": 64}, {"note": 64, "velocity": 89, "duration": 189}, {"note": 69, "velocity": 87, "duration": 182}, {"note": 66, "velocity": 84, "duration": 829}, {"note": 0, "velocity": 0, "duration": 131}, {"note": 62, "velocity": 80, "duration": 163}, {"note": 0, "velocity": 0, "duration": 77}, {"note": 61, "velocity": 88, "duration": 196}, {"note": 59, "velocity": 87, "duration": 643}, {"note": 0, "velocity": 0, "duration": 317}, {"note": 66, "velocity": 86, "duration": 173}, {"note": 0, "velocity": 0, "duration": 67}, {"note": 62, "velocity": 87, "duration": 172}, {"note": 0, "velocity": 0, "duration": 68}, {"note": 64, "velocity": 91, "duration": 186}, {"note": 69, "velocity": 86, "duration": 160}, {"note": 0, "velocity": 0, "duration": 80}, {"note": 66, "velocity": 87, "duration": 353}, {"note": 0, "velocity": 0, "duration": 127}, {"note": 62, "velocity": 86, "duration": 160}, {"note": 0, "velocity": 0, "duration": 80}, {"note": 61, "velocity": 89, "duration": 193}, {"note": 59, "velocity": 86, "duration": 458}, {"note": 0, "velocity": 0, "duration": 502}, {"note": 62, "velocity": 86, "duration": 158}, {"note": 0, "velocity": 0, "duration": 82}, {"note": 61, "velocity": 89, "duration": 206}, {"note": 59, "velocity": 89, "duration": 1440}, {"note": 0, "velocity": 0, "duration": 960}, {"note": 62, "velocity": 87, "duration": 173}, {"note": 0, "velocity": 0, "duration": 67}, {"note": 61, "velocity": 90, "duration": 219}, {"note": 59, "velocity": 87, "duration": 877}, {"note": 0, "velocity": 0, "duration": 83}, {"note": 66, "velocity": 86, "duration": 208}, {"note": 62, "velocity": 87, "duration": 187}, {"note": 64, "velocity": 89, "duration": 527}, {"note": 66, "velocity": 86, "duration": 401}, {"note": 0, "velocity": 0, "duration": 79}, {"note": 54, "velocity": 88, "duration": 231}, {"note": 57, "velocity": 85, "duration": 173}, {"note": 0, "velocity": 0, "duration": 67}, {"note": 59, "velocity": 87, "duration": 163}, {"note": 0, "velocity": 0, "duration": 77}, {"note": 66, "velocity": 88, "duration": 175}, {"note": 0, "velocity": 0, "duration": 65}, {"note": 64, "velocity": 87, "duration": 193}, {"note": 62, "velocity": 85, "duration": 176}, {"note": 0, "velocity": 0, "duration": 64}, {"note": 64, "velocity": 89, "duration": 189}, {"note": 69, "velocity": 87, "duration": 182}, {"note": 66, "velocity": 84, "duration": 829}, {"note": 0, "velocity": 0, "duration": 131}, {"note": 62, "velocity": 80, "duration": 163}, {"note": 0, "velocity": 0, "duration": 77}, {"note": 61, "velocity": 88, "duration": 196}, {"note": 59, "velocity": 87, "duration": 643}, {"note": 0, "velocity": 0, "duration": 317}, {"note": 66, "velocity": 86, "duration": 173}, {"note": 0, "velocity": 0, "duration": 67}, {"note": 62, "velocity": 87, "duration": 172}, {"note": 0, "velocity": 0, "duration": 68}, {"note": 64, "velocity": 91, "duration": 186}, {"note": 69, "velocity": 86, "duration": 160}, {"note": 0, "velocity": 0, "duration": 80}, {"note": 66, "velocity": 87, "duration": 353}, {"note": 0, "velocity": 0, "duration": 127}, {"note": 62, "velocity": 86, "duration": 160}, {"note": 0, "velocity": 0, "duration": 80}, {"note": 61, "velocity": 89, "duration": 193}, {"note": 59, "velocity": 86, "duration": 458}, {"note": 0, "velocity": 0, "duration": 502}, {"note": 62, "velocity": 86, "duration": 158}, {"note": 0, "velocity": 0, "duration": 82}, {"note": 61, "velocity": 89, "duration": 206}, {"note": 59, "velocity": 89, "duration": 1440}, {"note": 0, "velocity": 0, "duration": 960}, {"note": 62, "velocity": 94, "duration": 164}, {"note": 0, "velocity": 0, "duration": 76}, {"note": 64, "velocity": 99, "duration": 199}, {"note": 66, "velocity": 91, "duration": 186}, {"note": 66, "velocity": 87, "duration": 170}, {"note": 0, "velocity": 0, "duration": 70}, {"note": 66, "velocity": 90, "duration": 171}, {"note": 0, "velocity": 0, "duration": 69}, {"note": 66, "velocity": 91, "duration": 190}, {"note": 64, "velocity": 96, "duration": 205}, {"note": 62, "velocity": 87, "duration": 214}, {"note": 64, "velocity": 89, "duration": 833}, {"note": 0, "velocity": 0, "duration": 127}, {"note": 64, "velocity": 89, "duration": 150}, {"note": 0, "velocity": 0, "duration": 90}, {"note": 66, "velocity": 88, "duration": 167}, {"note": 0, "velocity": 0, "duration": 73}, {"note": 67, "velocity": 87, "duration": 173}, {"note": 0, "velocity": 0, "duration": 67}, {"note": 67, "velocity": 87, "duration": 165}, {"note": 0, "velocity": 0, "duration": 75}, {"note": 67, "velocity": 86, "duration": 169}, {"note": 0, "velocity": 0, "duration": 71}, {"note": 66, "velocity": 92, "duration": 206}, {"note": 64, "velocity": 91, "duration": 177}, {"note": 0, "velocity": 0, "duration": 63}, {"note": 67, "velocity": 86, "duration": 194}, {"note": 66, "velocity": 92, "duration": 800}, {"note": 0, "velocity": 0, "duration": 160}, {"note": 62, "velocity": 89, "duration": 163}, {"note": 0, "velocity": 0, "duration": 77}, {"note": 64, "velocity": 89, "duration": 195}, {"note": 66, "velocity": 87, "duration": 419}, {"note": 0, "velocity": 0, "duration": 61}, {"note": 66, "velocity": 89, "duration": 240}, {"note": 66, "velocity": 89, "duration": 240}, {"note": 69, "velocity": 92, "duration": 183}, {"note": 66, "velocity": 89, "duration": 173}, {"note": 0, "velocity": 0, "duration": 67}, {"note": 64, "velocity": 96, "duration": 731}, {"note": 0, "velocity": 0, "duration": 229}, {"note": 66, "velocity": 88, "duration": 471}, {"note": 64, "velocity": 90, "duration": 951}, {"note": 67, "velocity": 85, "duration": 394}, {"note": 0, "velocity": 0, "duration": 86}, {"note": 66, "velocity": 83, "duration": 894}, {"note": 0, "velocity": 0, "duration": 66}, {"note": 74, "velocity": 96, "duration": 213}, {"note": 73, "velocity": 90, "duration": 155}, {"note": 74, "velocity": 111, "duration": 963}, {"note": 0, "velocity": 0, "duration": 117}, {"note": 66, "velocity": 89, "duration": 175}, {"note": 0, "velocity": 0, "duration": 65}, {"note": 74, "velocity": 99, "duration": 205}, {"note": 73, "velocity": 87, "duration": 397}, {"note": 0, "velocity": 0, "duration": 83}, {"note": 69, "velocity": 89, "duration": 355}, {"note": 0, "velocity": 0, "duration": 125}, {"note": 71, "velocity": 91, "duration": 272}, {"note": 69, "velocity": 88, "duration": 213}, {"note": 71, "velocity": 92, "duration": 800}, {"note": 0, "velocity": 0, "duration": 160}, {"note": 62, "velocity": 96, "duration": 209}, {"note": 71, "velocity": 87, "duration": 176}, {"note": 0, "velocity": 0, "duration": 64}, {"note": 71, "velocity": 90, "duration": 432}, {"note": 69, "velocity": 92, "duration": 391}, {"note": 0, "velocity": 0, "duration": 89}, {"note": 74, "velocity": 102, "duration": 212}, {"note": 73, "velocity": 92, "duration": 150}, {"note": 74, "velocity": 101, "duration": 962}, {"note": 0, "velocity": 0, "duration": 118}, {"note": 66, "velocity": 87, "duration": 221}, {"note": 78, "velocity": 94, "duration": 219}, {"note": 76, "velocity": 85, "duration": 447}, {"note": 73, "velocity": 87, "duration": 761}, {"note": 0, "velocity": 0, "duration": 199}, {"note": 71, "velocity": 96, "duration": 189}, {"note": 73, "velocity": 89, "duration": 209}, {"note": 74, "velocity": 92, "duration": 226}, {"note": 71, "velocity": 87, "duration": 234}, {"note": 74, "velocity": 99, "duration": 400}, {"note": 0, "velocity": 0, "duration": 80}, {"note": 73, "velocity": 96, "duration": 848}, {"note": 0, "velocity": 0, "duration": 112}, {"note": 74, "velocity": 96, "duration": 213}, {"note": 73, "velocity": 90, "duration": 155}, {"note": 74, "velocity": 111, "duration": 963}, {"note": 0, "velocity": 0, "duration": 117}, {"note": 66, "velocity": 89, "duration": 175}, {"note": 0, "velocity": 0, "duration": 65}, {"note": 74, "velocity": 99, "duration": 205}, {"note": 73, "velocity": 87, "duration": 397}, {"note": 0, "velocity": 0, "duration": 83}, {"note": 69, "velocity": 89, "duration": 355}, {"note": 0, "velocity": 0, "duration": 125}, {"note": 71, "velocity": 91, "duration": 272}, {"note": 69, "velocity": 88, "duration": 213}, {"note": 71, "velocity": 92, "duration": 800}, {"note": 0, "velocity": 0, "duration": 160}, {"note": 62, "velocity": 96, "duration": 209}, {"note": 71, "velocity": 87, "duration": 176}, {"note": 0, "velocity": 0, "duration": 64}, {"note": 71, "velocity": 90, "duration": 432}, {"note": 69, "velocity": 92, "duration": 391}, {"note": 0, "velocity": 0, "duration": 89}, {"note": 74, "velocity": 102, "duration": 212}, {"note": 73, "velocity": 92, "duration": 150}, {"note": 74, "velocity": 101, "duration": 962}, {"note": 0, "velocity": 0, "duration": 118}, {"note": 66, "velocity": 87, "duration": 221}, {"note": 78, "velocity": 94, "duration": 219}, {"note": 76, "velocity": 85, "duration": 447}, {"note": 73, "velocity": 87, "duration": 761}, {"note": 0, "velocity": 0, "duration": 199}, {"note": 71, "velocity": 96, "duration": 189}, {"note": 73, "velocity": 89, "duration": 209}, {"note": 74, "velocity": 92, "duration": 226}, {"note": 73, "velocity": 87, "duration": 120}, {"note": 71, "velocity": 99, "duration": 360}, {"note": 69, "velocity": 89, "duration": 214}, {"note": 71, "velocity": 96, "duration": 848}, {"note": 0, "velocity": 0, "duration": 13072}, {"note": 62, "velocity": 94, "duration": 164}, {"note": 0, "velocity": 0, "duration": 76}, {"note": 64, "velocity": 99, "duration": 199}, {"note": 66, "velocity": 91, "duration": 186}, {"note": 66, "velocity": 87, "duration": 170}, {"note": 0, "velocity": 0, "duration": 70}, {"note": 66, "velocity": 90, "duration": 171}, {"note": 0, "velocity": 0, "duration": 69}, {"note": 66, "velocity": 91, "duration": 190}, {"note": 64, "velocity": 96, "duration": 205}, {"note": 62, "velocity": 87, "duration": 214}, {"note": 64, "velocity": 89, "duration": 833}, {"note": 0, "velocity": 0, "duration": 127}, {"note": 64, "velocity": 89, "duration": 150}, {"note": 0, "velocity": 0, "duration": 90}, {"note": 66, "velocity": 88, "duration": 167}, {"note": 0, "velocity": 0, "duration": 73}, {"note": 67, "velocity": 87, "duration": 173}, {"note": 0, "velocity": 0, "duration": 67}, {"note": 67, "velocity": 87, "duration": 165}, {"note": 0, "velocity": 0, "duration": 75}, {"note": 67, "velocity": 86, "duration": 169}, {"note": 0, "velocity": 0, "duration": 71}, {"note": 66, "velocity": 92, "duration": 206}, {"note": 64, "velocity": 91, "duration": 177}, {"note": 0, "velocity": 0, "duration": 63}, {"note": 67, "velocity": 86, "duration": 194}, {"note": 66, "velocity": 92, "duration": 800}, {"note": 0, "velocity": 0, "duration": 160}, {"note": 62, "velocity": 89, "duration": 163}, {"note": 0, "velocity": 0, "duration": 77}, {"note": 64, "velocity": 89, "duration": 195}, {"note": 66, "velocity": 87, "duration": 419}, {"note": 0, "velocity": 0, "duration": 61}, {"note": 66, "velocity": 89, "duration": 240}, {"note": 66, "velocity": 89, "duration": 240}, {"note": 69, "velocity": 92, "duration": 183}, {"note": 66, "velocity": 89, "duration": 173}, {"note": 0, "velocity": 0, "duration": 67}, {"note": 64, "velocity": 96, "duration": 731}, {"note": 0, "velocity": 0, "duration": 229}, {"note": 66, "velocity": 88, "duration": 471}, {"note": 64, "velocity": 90, "duration": 951}, {"note": 67, "velocity": 85, "duration": 394}, {"note": 0, "velocity": 0, "duration": 86}, {"note": 66, "velocity": 83, "duration": 894}, {"note": 0, "velocity": 0, "duration": 66}, {"note": 74, "velocity": 96, "duration": 213}, {"note": 73, "velocity": 90, "duration": 155}, {"note": 74, "velocity": 111, "duration": 963}, {"note": 0, "velocity": 0, "duration": 117}, {"note": 66, "velocity": 89, "duration": 175}, {"note": 0, "velocity": 0, "duration": 65}, {"note": 74, "velocity": 99, "duration": 205}, {"note": 73, "velocity": 87, "duration": 397}, {"note": 0, "velocity": 0, "duration": 83}, {"note": 69, "velocity": 89, "duration": 355}, {"note": 0, "velocity": 0, "duration": 125}, {"note": 71, "velocity": 91, "duration": 272}, {"note": 69, "velocity": 88, "duration": 213}, {"note": 71, "velocity": 92, "duration": 800}, {"note": 0, "velocity": 0, "duration": 160}, {"note": 62, "velocity": 96, "duration": 209}, {"note": 71, "velocity": 87, "duration": 176}, {"note": 0, "velocity": 0, "duration": 64}, {"note": 71, "velocity": 90, "duration": 432}, {"note": 69, "velocity": 92, "duration": 391}, {"note": 0, "velocity": 0, "duration": 89}, {"note": 74, "velocity": 102, "duration": 212}, {"note": 73, "velocity": 92, "duration": 150}, {"note": 74, "velocity": 101, "duration": 962}, {"note": 0, "velocity": 0, "duration": 118}, {"note": 66, "velocity": 87, "duration": 221}, {"note": 78, "velocity": 94, "duration": 219}, {"note": 76, "velocity": 85, "duration": 447}, {"note": 73, "velocity": 87, "duration": 761}, {"note": 0, "velocity": 0, "duration": 199}, {"note": 71, "velocity": 96, "duration": 189}, {"note": 73, "velocity": 89, "duration": 209}, {"note": 74, "velocity": 92, "duration": 226}, {"note": 71, "velocity": 87, "duration": 234}, {"note": 74, "velocity": 99, "duration": 400}, {"note": 0, "velocity": 0, "duration": 80}, {"note": 73, "velocity": 96, "duration": 848}, {"note": 0, "velocity": 0, "duration": 112}, {"note": 74, "velocity": 96, "duration": 213}, {"note": 73, "velocity": 90, "duration": 155}, {"note": 74, "velocity": 111, "duration": 963}, {"note": 0, "velocity": 0, "duration": 117}, {"note": 66, "velocity": 89, "duration": 175}, {"note": 0, "velocity": 0, "duration": 65}, {"note": 74, "velocity": 99, "duration": 205}, {"note": 73, "velocity": 87, "duration": 397}, {"note": 0, "velocity": 0, "duration": 83}, {"note": 69, "velocity": 89, "duration": 355}, {"note": 0, "velocity": 0, "duration": 125}, {"note": 71, "velocity": 91, "duration": 272}, {"note": 69, "velocity": 88, "duration": 213}, {"note": 71, "velocity": 92, "duration": 800}, {"note": 0, "velocity": 0, "duration": 160}, {"note": 62, "velocity": 96, "duration": 209}, {"note": 71, "velocity": 87, "duration": 176}, {"note": 0, "velocity": 0, "duration": 64}, {"note": 71, "velocity": 90, "duration": 432}, {"note": 69, "velocity": 92, "duration": 391}, {"note": 0, "velocity": 0, "duration": 89}, {"note": 74, "velocity": 102, "duration": 212}, {"note": 73, "velocity": 92, "duration": 150}, {"note": 74, "velocity": 101, "duration": 962}, {"note": 0, "velocity": 0, "duration": 118}, {"note": 66, "velocity": 87, "duration": 221}, {"note": 78, "velocity": 94, "duration": 219}, {"note": 76, "velocity": 85, "duration": 447}, {"note": 73, "velocity": 87, "duration": 761}, {"note": 0, "velocity": 0, "duration": 199}, {"note": 71, "velocity": 96, "duration": 189}, {"note": 73, "velocity": 89, "duration": 209}, {"note": 74, "velocity": 92, "duration": 226}, {"note": 73, "velocity": 87, "duration": 120}, {"note": 71, "velocity": 99, "duration": 360}, {"note": 69, "velocity": 89, "duration": 214}, {"note": 71, "velocity": 96, "duration": 848}, {"note": 0, "velocity": 0, "duration": 112}, {"note": 75, "velocity": 96, "duration": 213}, {"note": 74, "velocity": 90, "duration": 155}, {"note": 75, "velocity": 111, "duration": 963}, {"note": 0, "velocity": 0, "duration": 117}, {"note": 67, "velocity": 89, "duration": 175}, {"note": 0, "velocity": 0, "duration": 65}, {"note": 75, "velocity": 99, "duration": 205}, {"note": 74, "velocity": 87, "duration": 397}, {"note": 0, "velocity": 0, "duration": 83}, {"note": 70, "velocity": 89, "duration": 355}, {"note": 0, "velocity": 0, "duration": 125}, {"note": 72, "velocity": 91, "duration": 272}, {"note": 70, "velocity": 88, "duration": 213}, {"note": 72, "velocity": 92, "duration": 800}, {"note": 0, "velocity": 0, "duration": 160}, {"note": 63, "velocity": 96, "duration": 209}, {"note": 72, "velocity": 87, "duration": 176}, {"note": 0, "velocity": 0, "duration": 64}, {"note": 72, "velocity": 90, "duration": 432}, {"note": 70, "velocity": 92, "duration": 391}, {"note": 0, "velocity": 0, "duration": 89}, {"note": 75, "velocity": 102, "duration": 212}, {"note": 74, "velocity": 92, "duration": 150}, {"note": 75, "velocity": 101, "duration": 962}, {"note": 0, "velocity": 0, "duration": 118}, {"note": 67, "velocity": 87, "duration": 221}, {"note": 79, "velocity": 94, "duration": 219}, {"note": 77, "velocity": 85, "duration": 447}, {"note": 74, "velocity": 87, "duration": 761}, {"note": 0, "velocity": 0, "duration": 199}, {"note": 72, "velocity": 96, "duration": 189}, {"note": 74, "velocity": 89, "duration": 209}, {"note": 75, "velocity": 92, "duration": 226}, {"note": 72, "velocity": 87, "duration": 234}, {"note": 75, "velocity": 99, "duration": 400}, {"note": 0, "velocity": 0, "duration": 80}, {"note": 74, "velocity": 96, "duration": 848}, {"note": 0, "velocity": 0, "duration": 112}, {"note": 75, "velocity": 96, "duration": 213}, {"note": 74, "velocity": 90, "duration": 155}, {"note": 75, "velocity": 111, "duration": 963}, {"note": 0, "velocity": 0, "duration": 117}, {"note": 67, "velocity": 89, "duration": 175}, {"note": 0, "velocity": 0, "duration": 65}, {"note": 75, "velocity": 99, "duration": 205}, {"note": 74, "velocity": 87, "duration": 397}, {"note": 0, "velocity": 0, "duration": 83}, {"note": 70, "velocity": 89, "duration": 355}, {"note": 0, "velocity": 0, "duration": 125}, {"note": 72, "velocity": 91, "duration": 272}, {"note": 70, "velocity": 88, "duration": 213}, {"note": 72, "velocity": 92, "duration": 800}, {"note": 0, "velocity": 0, "duration": 160}, {"note": 63, "velocity": 96, "duration": 209}, {"note": 72, "velocity": 87, "duration": 176}, {"note": 0, "velocity": 0, "duration": 64}, {"note": 72, "velocity": 90, "duration": 432}, {"note": 70, "velocity": 92, "duration": 391}, {"note": 0, "velocity": 0, "duration": 89}, {"note": 75, "velocity": 102, "duration": 212}, {"note": 74, "velocity": 92, "duration": 150}, {"note": 75, "velocity": 101, "duration": 962}, {"note": 0, "velocity": 0, "duration": 118}, {"note": 67, "velocity": 87, "duration": 221}, {"note": 79, "velocity": 94, "duration": 219}, {"note": 77, "velocity": 85, "duration": 447}, {"note": 74, "velocity": 87, "duration": 761}, {"note": 0, "velocity": 0, "duration": 199}, {"note": 72, "velocity": 96, "duration": 189}, {"note": 74, "velocity": 89, "duration": 209}, {"note": 75, "velocity": 92, "duration": 226}, {"note": 74, "velocity": 87, "duration": 120}, {"note": 72, "velocity": 99, "duration": 360}, {"note": 70, "velocity": 89, "duration": 214}, {"note": 72, "velocity": 96, "duration": 848}]]