[[{"note": 68, "velocity": 90, "duration": 310}, {"note": 0, "velocity": 0, "duration": 170}, {"note": 68, "velocity": 92, "duration": 392}, {"note": 0, "velocity": 0, "duration": 88}, {"note": 61, "velocity": 83, "duration": 586}, {"note": 0, "velocity": 0, "duration": 374}, {"note": 64, "velocity": 83, "duration": 368}, {"note": 0, "velocity": 0, "duration": 112}, {"note": 61, "velocity": 83, "duration": 199}, {"note": 59, "velocity": 85, "duration": 173}, {"note": 0, "velocity": 0, "duration": 67}, {"note": 61, "velocity": 85, "duration": 735}, {"note": 0, "velocity": 0, "duration": 225}, {"note": 61, "velocity": 86, "duration": 195}, {"note": 64, "velocity": 88, "duration": 164}, {"note": 0, "velocity": 0, "duration": 76}, {"note": 64, "velocity": 85, "duration": 129}, {"note": 0, "velocity": 0, "duration": 111}, {"note": 64, "velocity": 85, "duration": 131}, {"note": 0, "velocity": 0, "duration": 109}, {"note": 64, "velocity": 95, "duration": 336}, {"note": 0, "velocity": 0, "duration": 144}, {"note": 64, "velocity": 88, "duration": 180}, {"note": 61, "velocity": 85, "duration": 175}, {"note": 0, "velocity": 0, "duration": 65}, {"note": 64, "velocity": 92, "duration": 372}, {"note": 0, "velocity": 0, "duration": 108}, {"note": 68, "velocity": 83, "duration": 381}, {"note": 0, "velocity": 0, "duration": 99}, {"note": 68, "velocity": 87, "duration": 743}, {"note": 0, "velocity": 0, "duration": 217}, {"note": 68, "velocity": 85, "duration": 368}, {"note": 0, "velocity": 0, "duration": 112}, {"note": 71, "velocity": 92, "duration": 336}, {"note": 0, "velocity": 0, "duration": 144}, {"note": 61, "velocity": 92, "duration": 385}, {"note": 0, "velocity": 0, "duration": 95}, {"note": 64, "velocity": 88, "duration": 399}, {"note": 0, "velocity": 0, "duration": 81}, {"note": 61, "velocity": 88, "duration": 418}, {"note": 0, "velocity": 0, "duration": 62}, {"note": 61, "velocity": 85, "duration": 205}, {"note": 59, "velocity": 85, "duration": 178}, {"note": 0, "velocity": 0, "duration": 62}, {"note": 56, "velocity": 87, "duration": 534}, {"note": 0, "velocity": 0, "duration": 426}, {"note": 66, "velocity": 75, "duration": 129}, {"note": 0, "velocity": 0, "duration": 111}, {"note": 66, "velocity": 82, "duration": 139}, {"note": 0, "velocity": 0, "duration": 101}, {"note": 66, "velocity": 82, "duration": 146}, {"note": 0, "velocity": 0, "duration": 94}, {"note": 68, "velocity": 83, "duration": 155}, {"note": 0, "velocity": 0, "duration": 85}, {"note": 59, "velocity": 90, "duration": 385}, {"note": 0, "velocity": 0, "duration": 95}, {"note": 63, "velocity": 86, "duration": 399}, {"note": 0, "velocity": 0, "duration": 81}, {"note": 61, "velocity": 83, "duration": 1781}, {"note": 0, "velocity": 0, "duration": 139}, {"note": 73, "velocity": 92, "duration": 126}, {"note": 0, "velocity": 0, "duration": 114}, {"note": 73, "velocity": 90, "duration": 118}, {"note": 0, "velocity": 0, "duration": 122}, {"note": 73, "velocity": 88, "duration": 142}, {"note": 0, "velocity": 0, "duration": 98}, {"note": 73, "velocity": 92, "duration": 213}, {"note": 68, "velocity": 92, "duration": 393}, {"note": 0, "velocity": 0, "duration": 87}, {"note": 71, "velocity": 83, "duration": 157}, {"note": 0, "velocity": 0, "duration": 83}, {"note": 71, "velocity": 88, "duration": 368}, {"note": 0, "velocity": 0, "duration": 112}, {"note": 71, "velocity": 83, "duration": 154}, {"note": 0, "velocity": 0, "duration": 86}, {"note": 71, "velocity": 86, "duration": 186}, {"note": 68, "velocity": 88, "duration": 174}, {"note": 0, "velocity": 0, "duration": 66}, {"note": 73, "velocity": 95, "duration": 163}, {"note": 0, "velocity": 0, "duration": 77}, {"note": 71, "velocity": 88, "duration": 566}, {"note": 0, "velocity": 0, "duration": 154}, {"note": 69, "velocity": 85, "duration": 143}, {"note": 0, "velocity": 0, "duration": 97}, {"note": 69, "velocity": 84, "duration": 130}, {"note": 0, "velocity": 0, "duration": 110}, {"note": 69, "velocity": 86, "duration": 118}, {"note": 0, "velocity": 0, "duration": 122}, {"note": 69, "velocity": 85, "duration": 125}, {"note": 0, "velocity": 0, "duration": 115}, {"note": 69, "velocity": 87, "duration": 355}, {"note": 0, "velocity": 0, "duration": 125}, {"note": 61, "velocity": 84, "duration": 181}, {"note": 64, "velocity": 87, "duration": 369}, {"note": 0, "velocity": 0, "duration": 111}, {"note": 64, "velocity": 81, "duration": 139}, {"note": 0, "velocity": 0, "duration": 101}, {"note": 66, "velocity": 82, "duration": 150}, {"note": 0, "velocity": 0, "duration": 90}, {"note": 64, "velocity": 83, "duration": 130}, {"note": 0, "velocity": 0, "duration": 110}, {"note": 66, "velocity": 82, "duration": 151}, {"note": 0, "velocity": 0, "duration": 89}, {"note": 68, "velocity": 88, "duration": 553}, {"note": 0, "velocity": 0, "duration": 167}, {"note": 73, "velocity": 92, "duration": 126}, {"note": 0, "velocity": 0, "duration": 114}, {"note": 73, "velocity": 90, "duration": 118}, {"note": 0, "velocity": 0, "duration": 122}, {"note": 73, "velocity": 88, "duration": 142}, {"note": 0, "velocity": 0, "duration": 98}, {"note": 73, "velocity": 92, "duration": 213}, {"note": 68, "velocity": 92, "duration": 393}, {"note": 0, "velocity": 0, "duration": 87}, {"note": 71, "velocity": 83, "duration": 157}, {"note": 0, "velocity": 0, "duration": 83}, {"note": 71, "velocity": 88, "duration": 368}, {"note": 0, "velocity": 0, "duration": 112}, {"note": 71, "velocity": 83, "duration": 154}, {"note": 0, "velocity": 0, "duration": 86}, {"note": 71, "velocity": 86, "duration": 186}, {"note": 68, "velocity": 88, "duration": 174}, {"note": 0, "velocity": 0, "duration": 66}, {"note": 73, "velocity": 95, "duration": 163}, {"note": 0, "velocity": 0, "duration": 77}, {"note": 71, "velocity": 88, "duration": 566}, {"note": 0, "velocity": 0, "duration": 154}, {"note": 73, "velocity": 97, "duration": 171}, {"note": 0, "velocity": 0, "duration": 69}, {"note": 73, "velocity": 92, "duration": 150}, {"note": 0, "velocity": 0, "duration": 90}, {"note": 73, "velocity": 90, "duration": 119}, {"note": 0, "velocity": 0, "duration": 121}, {"note": 73, "velocity": 92, "duration": 163}, {"note": 0, "velocity": 0, "duration": 77}, {"note": 76, "velocity": 85, "duration": 381}, {"note": 0, "velocity": 0, "duration": 99}, {"note": 73, "velocity": 85, "duration": 157}, {"note": 0, "velocity": 0, "duration": 83}, {"note": 71, "velocity": 87, "duration": 364}, {"note": 0, "velocity": 0, "duration": 116}, {"note": 71, "velocity": 88, "duration": 138}, {"note": 0, "velocity": 0, "duration": 102}, {"note": 71, "velocity": 90, "duration": 162}, {"note": 0, "velocity": 0, "duration": 78}, {"note": 71, "velocity": 88, "duration": 160}, {"note": 0, "velocity": 0, "duration": 80}, {"note": 68, "velocity": 88, "duration": 176}, {"note": 0, "velocity": 0, "duration": 64}, {"note": 71, "velocity": 87, "duration": 451}, {"note": 0, "velocity": 0, "duration": 269}, {"note": 66, "velocity": 82, "duration": 154}, {"note": 0, "velocity": 0, "duration": 86}, {"note": 66, "velocity": 85, "duration": 186}, {"note": 64, "velocity": 83, "duration": 150}, {"note": 0, "velocity": 0, "duration": 90}, {"note": 66, "velocity": 82, "duration": 189}, {"note": 68, "velocity": 79, "duration": 168}, {"note": 0, "velocity": 0, "duration": 72}, {"note": 66, "velocity": 78, "duration": 198}, {"note": 64, "velocity": 85, "duration": 181}, {"note": 66, "velocity": 81, "duration": 63}, {"note": 66, "velocity": 81, "duration": 72}, {"note": 68, "velocity": 87, "duration": 193}, {"note": 66, "velocity": 83, "duration": 178}, {"note": 0, "velocity": 0, "duration": 62}, {"note": 68, "velocity": 87, "duration": 180}, {"note": 71, "velocity": 84, "duration": 419}, {"note": 0, "velocity": 0, "duration": 781}, {"note": 64, "velocity": 88, "duration": 177}, {"note": 0, "velocity": 0, "duration": 63}, {"note": 66, "velocity": 82, "duration": 154}, {"note": 0, "velocity": 0, "duration": 86}, {"note": 68, "velocity": 85, "duration": 186}, {"note": 71, "velocity": 83, "duration": 146}, {"note": 0, "velocity": 0, "duration": 94}, {"note": 71, "velocity": 92, "duration": 354}, {"note": 0, "velocity": 0, "duration": 126}, {"note": 63, "velocity": 88, "duration": 365}, {"note": 0, "velocity": 0, "duration": 115}, {"note": 61, "velocity": 87, "duration": 1471}, {"note": 0, "velocity": 0, "duration": 449}, {"note": 68, "velocity": 90, "duration": 310}, {"note": 0, "velocity": 0, "duration": 170}, {"note": 68, "velocity": 92, "duration": 392}, {"note": 0, "velocity": 0, "duration": 88}, {"note": 61, "velocity": 83, "duration": 586}, {"note": 0, "velocity": 0, "duration": 374}, {"note": 64, "velocity": 83, "duration": 368}, {"note": 0, "velocity": 0, "duration": 112}, {"note": 61, "velocity": 83, "duration": 199}, {"note": 59, "velocity": 85, "duration": 173}, {"note": 0, "velocity": 0, "duration": 67}, {"note": 61, "velocity": 85, "duration": 735}, {"note": 0, "velocity": 0, "duration": 225}, {"note": 61, "velocity": 86, "duration": 195}, {"note": 64, "velocity": 88, "duration": 164}, {"note": 0, "velocity": 0, "duration": 76}, {"note": 64, "velocity": 85, "duration": 129}, {"note": 0, "velocity": 0, "duration": 111}, {"note": 64, "velocity": 85, "duration": 131}, {"note": 0, "velocity": 0, "duration": 109}, {"note": 64, "velocity": 95, "duration": 336}, {"note": 0, "velocity": 0, "duration": 144}, {"note": 64, "velocity": 88, "duration": 180}, {"note": 61, "velocity": 85, "duration": 175}, {"note": 0, "velocity": 0, "duration": 65}, {"note": 64, "velocity": 92, "duration": 372}, {"note": 0, "velocity": 0, "duration": 108}, {"note": 68, "velocity": 83, "duration": 381}, {"note": 0, "velocity": 0, "duration": 99}, {"note": 68, "velocity": 87, "duration": 743}, {"note": 0, "velocity": 0, "duration": 217}, {"note": 68, "velocity": 85, "duration": 368}, {"note": 0, "velocity": 0, "duration": 112}, {"note": 71, "velocity": 92, "duration": 336}, {"note": 0, "velocity": 0, "duration": 144}, {"note": 61, "velocity": 92, "duration": 385}, {"note": 0, "velocity": 0, "duration": 95}, {"note": 64, "velocity": 88, "duration": 399}, {"note": 0, "velocity": 0, "duration": 81}, {"note": 61, "velocity": 88, "duration": 418}, {"note": 0, "velocity": 0, "duration": 62}, {"note": 61, "velocity": 85, "duration": 205}, {"note": 59, "velocity": 85, "duration": 178}, {"note": 0, "velocity": 0, "duration": 62}, {"note": 56, "velocity": 87, "duration": 534}, {"note": 0, "velocity": 0, "duration": 426}, {"note": 66, "velocity": 75, "duration": 129}, {"note": 0, "velocity": 0, "duration": 111}, {"note": 66, "velocity": 82, "duration": 139}, {"note": 0, "velocity": 0, "duration": 101}, {"note": 66, "velocity": 82, "duration": 146}, {"note": 0, "velocity": 0, "duration": 94}, {"note": 68, "velocity": 83, "duration": 155}, {"note": 0, "velocity": 0, "duration": 85}, {"note": 59, "velocity": 90, "duration": 385}, {"note": 0, "velocity": 0, "duration": 95}, {"note": 63, "velocity": 86, "duration": 399}, {"note": 0, "velocity": 0, "duration": 81}, {"note": 61, "velocity": 83, "duration": 1781}, {"note": 0, "velocity": 0, "duration": 139}, {"note": 73, "velocity": 92, "duration": 126}, {"note": 0, "velocity": 0, "duration": 114}, {"note": 73, "velocity": 90, "duration": 118}, {"note": 0, "velocity": 0, "duration": 122}, {"note": 73, "velocity": 88, "duration": 142}, {"note": 0, "velocity": 0, "duration": 98}, {"note": 73, "velocity": 92, "duration": 213}, {"note": 68, "velocity": 92, "duration": 393}, {"note": 0, "velocity": 0, "duration": 87}, {"note": 71, "velocity": 83, "duration": 157}, {"note": 0, "velocity": 0, "duration": 83}, {"note": 71, "velocity": 88, "duration": 368}, {"note": 0, "velocity": 0, "duration": 112}, {"note": 71, "velocity": 83, "duration": 154}, {"note": 0, "velocity": 0, "duration": 86}, {"note": 71, "velocity": 86, "duration": 186}, {"note": 68, "velocity": 88, "duration": 174}, {"note": 0, "velocity": 0, "duration": 66}, {"note": 73, "velocity": 95, "duration": 163}, {"note": 0, "velocity": 0, "duration": 77}, {"note": 71, "velocity": 88, "duration": 566}, {"note": 0, "velocity": 0, "duration": 154}, {"note": 69, "velocity": 85, "duration": 143}, {"note": 0, "velocity": 0, "duration": 97}, {"note": 69, "velocity": 84, "duration": 130}, {"note": 0, "velocity": 0, "duration": 110}, {"note": 69, "velocity": 86, "duration": 118}, {"note": 0, "velocity": 0, "duration": 122}, {"note": 69, "velocity": 85, "duration": 125}, {"note": 0, "velocity": 0, "duration": 115}, {"note": 69, "velocity": 87, "duration": 355}, {"note": 0, "velocity": 0, "duration": 125}, {"note": 61, "velocity": 84, "duration": 181}, {"note": 64, "velocity": 87, "duration": 369}, {"note": 0, "velocity": 0, "duration": 111}, {"note": 64, "velocity": 81, "duration": 139}, {"note": 0, "velocity": 0, "duration": 101}, {"note": 66, "velocity": 82, "duration": 150}, {"note": 0, "velocity": 0, "duration": 90}, {"note": 64, "velocity": 83, "duration": 130}, {"note": 0, "velocity": 0, "duration": 110}, {"note": 66, "velocity": 82, "duration": 151}, {"note": 0, "velocity": 0, "duration": 89}, {"note": 68, "velocity": 88, "duration": 553}, {"note": 0, "velocity": 0, "duration": 167}, {"note": 73, "velocity": 92, "duration": 126}, {"note": 0, "velocity": 0, "duration": 114}, {"note": 73, "velocity": 90, "duration": 118}, {"note": 0, "velocity": 0, "duration": 122}, {"note": 73, "velocity": 88, "duration": 142}, {"note": 0, "velocity": 0, "duration": 98}, {"note": 73, "velocity": 92, "duration": 213}, {"note": 68, "velocity": 92, "duration": 393}, {"note": 0, "velocity": 0, "duration": 87}, {"note": 71, "velocity": 83, "duration": 157}, {"note": 0, "velocity": 0, "duration": 83}, {"note": 71, "velocity": 88, "duration": 368}, {"note": 0, "velocity": 0, "duration": 112}, {"note": 71, "velocity": 83, "duration": 154}, {"note": 0, "velocity": 0, "duration": 86}, {"note": 71, "velocity": 86, "duration": 186}, {"note": 68, "velocity": 88, "duration": 174}, {"note": 0, "velocity": 0, "duration": 66}, {"note": 73, "velocity": 95, "duration": 163}, {"note": 0, "velocity": 0, "duration": 77}, {"note": 71, "velocity": 88, "duration": 566}, {"note": 0, "velocity": 0, "duration": 154}, {"note": 73, "velocity": 97, "duration": 171}, {"note": 0, "velocity": 0, "duration": 69}, {"note": 73, "velocity": 92, "duration": 150}, {"note": 0, "velocity": 0, "duration": 90}, {"note": 73, "velocity": 90, "duration": 119}, {"note": 0, "velocity": 0, "duration": 121}, {"note": 73, "velocity": 92, "duration": 163}, {"note": 0, "velocity": 0, "duration": 77}, {"note": 76, "velocity": 85, "duration": 381}, {"note": 0, "velocity": 0, "duration": 99}, {"note": 73, "velocity": 85, "duration": 157}, {"note": 0, "velocity": 0, "duration": 83}, {"note": 71, "velocity": 87, "duration": 364}, {"note": 0, "velocity": 0, "duration": 116}, {"note": 71, "velocity": 88, "duration": 138}, {"note": 0, "velocity": 0, "duration": 102}, {"note": 71, "velocity": 90, "duration": 162}, {"note": 0, "velocity": 0, "duration": 78}, {"note": 71, "velocity": 88, "duration": 160}, {"note": 0, "velocity": 0, "duration": 80}, {"note": 68, "velocity": 88, "duration": 176}, {"note": 0, "velocity": 0, "duration": 64}, {"note": 71, "velocity": 87, "duration": 451}, {"note": 0, "velocity": 0, "duration": 269}, {"note": 66, "velocity": 82, "duration": 154}, {"note": 0, "velocity": 0, "duration": 86}, {"note": 66, "velocity": 85, "duration": 186}, {"note": 64, "velocity": 83, "duration": 150}, {"note": 0, "velocity": 0, "duration": 90}, {"note": 66, "velocity": 82, "duration": 189}, {"note": 68, "velocity": 79, "duration": 168}, {"note": 0, "velocity": 0, "duration": 72}, {"note": 66, "velocity": 78, "duration": 198}, {"note": 64, "velocity": 85, "duration": 181}, {"note": 66, "velocity": 81, "duration": 63}, {"note": 66, "velocity": 81, "duration": 72}, {"note": 68, "velocity": 87, "duration": 193}, {"note": 66, "velocity": 83, "duration": 178}, {"note": 0, "velocity": 0, "duration": 62}, {"note": 68, "velocity": 87, "duration": 180}, {"note": 71, "velocity": 84, "duration": 419}, {"note": 0, "velocity": 0, "duration": 781}, {"note": 64, "velocity": 88, "duration": 177}, {"note": 0, "velocity": 0, "duration": 63}, {"note": 66, "velocity": 82, "duration": 154}, {"note": 0, "velocity": 0, "duration": 86}, {"note": 68, "velocity": 85, "duration": 186}, {"note": 71, "velocity": 83, "duration": 146}, {"note": 0, "velocity": 0, "duration": 94}, {"note": 71, "velocity": 92, "duration": 354}, {"note": 0, "velocity": 0, "duration": 126}, {"note": 68, "velocity": 88, "duration": 240}, {"note": 73, "velocity": 87, "duration": 1471}]]