[[{"note": 76, "velocity": 95, "duration": 110}, {"note": 0, "velocity": 0, "duration": 130}, {"note": 73, "velocity": 87, "duration": 115}, {"note": 0, "velocity": 0, "duration": 125}, {"note": 76, "velocity": 93, "duration": 110}, {"note": 0, "velocity": 0, "duration": 130}, {"note": 73, "velocity": 87, "duration": 118}, {"note": 0, "velocity": 0, "duration": 122}, {"note": 76, "velocity": 95, "duration": 108}, {"note": 0, "velocity": 0, "duration": 132}, {"note": 76, "velocity": 103, "duration": 194}, {"note": 0, "velocity": 0, "duration": 526}, {"note": 75, "velocity": 95, "duration": 113}, {"note": 0, "velocity": 0, "duration": 127}, {"note": 75, "velocity": 93, "duration": 113}, {"note": 0, "velocity": 0, "duration": 127}, {"note": 75, "velocity": 90, "duration": 132}, {"note": 0, "velocity": 0, "duration": 108}, {"note": 76, "velocity": 87, "duration": 132}, {"note": 0, "velocity": 0, "duration": 108}, {"note": 75, "velocity": 103, "duration": 534}, {"note": 0, "velocity": 0, "duration": 426}, {"note": 76, "velocity": 102, "duration": 166}, {"note": 0, "velocity": 0, "duration": 74}, {"note": 73, "velocity": 93, "duration": 137}, {"note": 0, "velocity": 0, "duration": 103}, {"note": 76, "velocity": 103, "duration": 110}, {"note": 0, "velocity": 0, "duration": 130}, {"note": 73, "velocity": 95, "duration": 98}, {"note": 0, "velocity": 0, "duration": 142}, {"note": 76, "velocity": 102, "duration": 714}, {"note": 0, "velocity": 0, "duration": 246}, {"note": 75, "velocity": 87, "duration": 127}, {"note": 0, "velocity": 0, "duration": 113}, {"note": 75, "velocity": 93, "duration": 149}, {"note": 0, "velocity": 0, "duration": 91}, {"note": 75, "velocity": 93, "duration": 127}, {"note": 0, "velocity": 0, "duration": 113}, {"note": 76, "velocity": 102, "duration": 139}, {"note": 0, "velocity": 0, "duration": 101}, {"note": 75, "velocity": 102, "duration": 594}, {"note": 0, "velocity": 0, "duration": 366}, {"note": 76, "velocity": 102, "duration": 156}, {"note": 0, "velocity": 0, "duration": 84}, {"note": 73, "velocity": 93, "duration": 134}, {"note": 0, "velocity": 0, "duration": 106}, {"note": 76, "velocity": 102, "duration": 139}, {"note": 0, "velocity": 0, "duration": 101}, {"note": 73, "velocity": 102, "duration": 106}, {"note": 0, "velocity": 0, "duration": 134}, {"note": 76, "velocity": 102, "duration": 213}, {"note": 76, "velocity": 102, "duration": 455}, {"note": 0, "velocity": 0, "duration": 265}, {"note": 80, "velocity": 87, "duration": 91}, {"note": 0, "velocity": 0, "duration": 149}, {"note": 80, "velocity": 80, "duration": 103}, {"note": 0, "velocity": 0, "duration": 137}, {"note": 80, "velocity": 87, "duration": 132}, {"note": 0, "velocity": 0, "duration": 108}, {"note": 78, "velocity": 93, "duration": 163}, {"note": 0, "velocity": 0, "duration": 77}, {"note": 75, "velocity": 95, "duration": 480}, {"note": 73, "velocity": 93, "duration": 142}, {"note": 0, "velocity": 0, "duration": 98}, {"note": 71, "velocity": 87, "duration": 144}, {"note": 0, "velocity": 0, "duration": 96}, {"note": 73, "velocity": 93, "duration": 411}, {"note": 0, "velocity": 0, "duration": 69}, {"note": 76, "velocity": 105, "duration": 362}, {"note": 0, "velocity": 0, "duration": 118}, {"note": 76, "velocity": 105, "duration": 146}, {"note": 0, "velocity": 0, "duration": 94}, {"note": 76, "velocity": 102, "duration": 720}, {"note": 80, "velocity": 93, "duration": 166}, {"note": 0, "velocity": 0, "duration": 74}, {"note": 80, "velocity": 93, "duration": 130}, {"note": 0, "velocity": 0, "duration": 110}, {"note": 80, "velocity": 102, "duration": 132}, {"note": 0, "velocity": 0, "duration": 108}, {"note": 83, "velocity": 102, "duration": 122}, {"note": 0, "velocity": 0, "duration": 118}, {"note": 80, "velocity": 103, "duration": 362}, {"note": 0, "velocity": 0, "duration": 118}, {"note": 76, "velocity": 105, "duration": 148}, {"note": 0, "velocity": 0, "duration": 92}, {"note": 78, "velocity": 102, "duration": 167}, {"note": 0, "velocity": 0, "duration": 73}, {"note": 80, "velocity": 87, "duration": 120}, {"note": 0, "velocity": 0, "duration": 360}, {"note": 80, "velocity": 93, "duration": 192}, {"note": 0, "velocity": 0, "duration": 288}, {"note": 80, "velocity": 93, "duration": 245}, {"note": 0, "velocity": 0, "duration": 235}, {"note": 78, "velocity": 93, "duration": 120}, {"note": 0, "velocity": 0, "duration": 120}, {"note": 76, "velocity": 103, "duration": 126}, {"note": 0, "velocity": 0, "duration": 114}, {"note": 78, "velocity": 103, "duration": 141}, {"note": 0, "velocity": 0, "duration": 339}, {"note": 78, "velocity": 87, "duration": 178}, {"note": 0, "velocity": 0, "duration": 62}, {"note": 80, "velocity": 90, "duration": 126}, {"note": 0, "velocity": 0, "duration": 114}, {"note": 78, "velocity": 95, "duration": 266}, {"note": 0, "velocity": 0, "duration": 214}, {"note": 76, "velocity": 87, "duration": 132}, {"note": 0, "velocity": 0, "duration": 108}, {"note": 78, "velocity": 87, "duration": 132}, {"note": 0, "velocity": 0, "duration": 108}, {"note": 80, "velocity": 87, "duration": 139}, {"note": 0, "velocity": 0, "duration": 101}, {"note": 73, "velocity": 90, "duration": 115}, {"note": 0, "velocity": 0, "duration": 125}, {"note": 73, "velocity": 93, "duration": 130}, {"note": 0, "velocity": 0, "duration": 110}, {"note": 80, "velocity": 93, "duration": 131}, {"note": 0, "velocity": 0, "duration": 109}, {"note": 80, "velocity": 95, "duration": 130}, {"note": 0, "velocity": 0, "duration": 110}, {"note": 73, "velocity": 102, "duration": 110}, {"note": 0, "velocity": 0, "duration": 130}, {"note": 73, "velocity": 103, "duration": 130}, {"note": 0, "velocity": 0, "duration": 350}, {"note": 80, "velocity": 85, "duration": 133}, {"note": 0, "velocity": 0, "duration": 107}, {"note": 80, "velocity": 87, "duration": 122}, {"note": 0, "velocity": 0, "duration": 118}, {"note": 80, "velocity": 87, "duration": 150}, {"note": 0, "velocity": 0, "duration": 90}, {"note": 83, "velocity": 93, "duration": 127}, {"note": 0, "velocity": 0, "duration": 113}, {"note": 80, "velocity": 103, "duration": 316}, {"note": 0, "velocity": 0, "duration": 164}, {"note": 76, "velocity": 102, "duration": 112}, {"note": 0, "velocity": 0, "duration": 128}, {"note": 78, "velocity": 85, "duration": 118}, {"note": 0, "velocity": 0, "duration": 122}, {"note": 80, "velocity": 95, "duration": 122}, {"note": 0, "velocity": 0, "duration": 358}, {"note": 80, "velocity": 93, "duration": 137}, {"note": 0, "velocity": 0, "duration": 343}, {"note": 80, "velocity": 93, "duration": 182}, {"note": 0, "velocity": 0, "duration": 298}, {"note": 78, "velocity": 93, "duration": 110}, {"note": 0, "velocity": 0, "duration": 130}, {"note": 76, "velocity": 105, "duration": 106}, {"note": 0, "velocity": 0, "duration": 134}, {"note": 78, "velocity": 95, "duration": 480}, {"note": 78, "velocity": 95, "duration": 132}, {"note": 0, "velocity": 0, "duration": 108}, {"note": 80, "velocity": 90, "duration": 122}, {"note": 0, "velocity": 0, "duration": 118}, {"note": 78, "velocity": 103, "duration": 290}, {"note": 0, "velocity": 0, "duration": 190}, {"note": 76, "velocity": 93, "duration": 119}, {"note": 0, "velocity": 0, "duration": 121}, {"note": 78, "velocity": 87, "duration": 127}, {"note": 0, "velocity": 0, "duration": 113}, {"note": 80, "velocity": 93, "duration": 115}, {"note": 0, "velocity": 0, "duration": 125}, {"note": 73, "velocity": 93, "duration": 108}, {"note": 0, "velocity": 0, "duration": 132}, {"note": 73, "velocity": 102, "duration": 130}, {"note": 0, "velocity": 0, "duration": 110}, {"note": 80, "velocity": 90, "duration": 115}, {"note": 0, "velocity": 0, "duration": 125}, {"note": 80, "velocity": 95, "duration": 134}, {"note": 0, "velocity": 0, "duration": 106}, {"note": 73, "velocity": 102, "duration": 233}, {"note": 0, "velocity": 0, "duration": 487}, {"note": 80, "velocity": 95, "duration": 345}, {"note": 0, "velocity": 0, "duration": 135}, {"note": 80, "velocity": 93, "duration": 144}, {"note": 0, "velocity": 0, "duration": 96}, {"note": 78, "velocity": 95, "duration": 143}, {"note": 0, "velocity": 0, "duration": 97}, {"note": 80, "velocity": 95, "duration": 922}, {"note": 0, "velocity": 0, "duration": 7718}, {"note": 76, "velocity": 95, "duration": 110}, {"note": 0, "velocity": 0, "duration": 130}, {"note": 73, "velocity": 87, "duration": 115}, {"note": 0, "velocity": 0, "duration": 125}, {"note": 76, "velocity": 93, "duration": 110}, {"note": 0, "velocity": 0, "duration": 130}, {"note": 73, "velocity": 87, "duration": 118}, {"note": 0, "velocity": 0, "duration": 122}, {"note": 76, "velocity": 95, "duration": 108}, {"note": 0, "velocity": 0, "duration": 132}, {"note": 73, "velocity": 93, "duration": 154}, {"note": 0, "velocity": 0, "duration": 86}, {"note": 76, "velocity": 105, "duration": 143}, {"note": 0, "velocity": 0, "duration": 97}, {"note": 78, "velocity": 95, "duration": 118}, {"note": 0, "velocity": 0, "duration": 122}, {"note": 75, "velocity": 95, "duration": 113}, {"note": 0, "velocity": 0, "duration": 127}, {"note": 75, "velocity": 93, "duration": 113}, {"note": 0, "velocity": 0, "duration": 127}, {"note": 75, "velocity": 90, "duration": 132}, {"note": 0, "velocity": 0, "duration": 108}, {"note": 76, "velocity": 87, "duration": 132}, {"note": 0, "velocity": 0, "duration": 108}, {"note": 75, "velocity": 103, "duration": 534}, {"note": 0, "velocity": 0, "duration": 426}, {"note": 76, "velocity": 102, "duration": 166}, {"note": 0, "velocity": 0, "duration": 74}, {"note": 73, "velocity": 93, "duration": 137}, {"note": 0, "velocity": 0, "duration": 103}, {"note": 76, "velocity": 103, "duration": 110}, {"note": 0, "velocity": 0, "duration": 130}, {"note": 73, "velocity": 95, "duration": 98}, {"note": 0, "velocity": 0, "duration": 142}, {"note": 76, "velocity": 102, "duration": 714}, {"note": 76, "velocity": 100, "duration": 240}, {"note": 75, "velocity": 87, "duration": 127}, {"note": 0, "velocity": 0, "duration": 113}, {"note": 75, "velocity": 93, "duration": 149}, {"note": 0, "velocity": 0, "duration": 91}, {"note": 75, "velocity": 93, "duration": 127}, {"note": 0, "velocity": 0, "duration": 113}, {"note": 76, "velocity": 102, "duration": 139}, {"note": 0, "velocity": 0, "duration": 101}, {"note": 75, "velocity": 102, "duration": 480}, {"note": 73, "velocity": 69, "duration": 134}, {"note": 0, "velocity": 0, "duration": 106}, {"note": 71, "velocity": 87, "duration": 132}, {"note": 0, "velocity": 0, "duration": 108}, {"note": 73, "velocity": 95, "duration": 458}, {"note": 76, "velocity": 102, "duration": 367}, {"note": 0, "velocity": 0, "duration": 113}, {"note": 76, "velocity": 95, "duration": 137}, {"note": 0, "velocity": 0, "duration": 103}, {"note": 76, "velocity": 105, "duration": 458}, {"note": 0, "velocity": 0, "duration": 262}, {"note": 80, "velocity": 87, "duration": 480}, {"note": 0, "velocity": 0, "duration": 240}, {"note": 78, "velocity": 93, "duration": 163}, {"note": 0, "velocity": 0, "duration": 77}, {"note": 75, "velocity": 95, "duration": 480}, {"note": 73, "velocity": 93, "duration": 142}, {"note": 0, "velocity": 0, "duration": 98}, {"note": 71, "velocity": 87, "duration": 144}, {"note": 0, "velocity": 0, "duration": 96}, {"note": 73, "velocity": 93, "duration": 411}, {"note": 0, "velocity": 0, "duration": 69}, {"note": 76, "velocity": 105, "duration": 362}, {"note": 0, "velocity": 0, "duration": 118}, {"note": 76, "velocity": 105, "duration": 146}, {"note": 0, "velocity": 0, "duration": 94}, {"note": 76, "velocity": 102, "duration": 720}, {"note": 80, "velocity": 93, "duration": 166}, {"note": 0, "velocity": 0, "duration": 74}, {"note": 80, "velocity": 93, "duration": 130}, {"note": 0, "velocity": 0, "duration": 110}, {"note": 80, "velocity": 102, "duration": 132}, {"note": 0, "velocity": 0, "duration": 108}, {"note": 83, "velocity": 102, "duration": 122}, {"note": 0, "velocity": 0, "duration": 118}, {"note": 80, "velocity": 103, "duration": 362}, {"note": 0, "velocity": 0, "duration": 118}, {"note": 76, "velocity": 105, "duration": 148}, {"note": 0, "velocity": 0, "duration": 92}, {"note": 78, "velocity": 102, "duration": 167}, {"note": 0, "velocity": 0, "duration": 73}, {"note": 80, "velocity": 87, "duration": 120}, {"note": 0, "velocity": 0, "duration": 360}, {"note": 80, "velocity": 93, "duration": 192}, {"note": 0, "velocity": 0, "duration": 288}, {"note": 80, "velocity": 93, "duration": 245}, {"note": 0, "velocity": 0, "duration": 235}, {"note": 78, "velocity": 93, "duration": 120}, {"note": 0, "velocity": 0, "duration": 120}, {"note": 76, "velocity": 103, "duration": 126}, {"note": 0, "velocity": 0, "duration": 114}, {"note": 78, "velocity": 103, "duration": 141}, {"note": 0, "velocity": 0, "duration": 339}, {"note": 78, "velocity": 87, "duration": 178}, {"note": 0, "velocity": 0, "duration": 62}, {"note": 80, "velocity": 90, "duration": 126}, {"note": 0, "velocity": 0, "duration": 114}, {"note": 78, "velocity": 95, "duration": 266}, {"note": 0, "velocity": 0, "duration": 214}, {"note": 76, "velocity": 87, "duration": 132}, {"note": 0, "velocity": 0, "duration": 108}, {"note": 78, "velocity": 87, "duration": 132}, {"note": 0, "velocity": 0, "duration": 108}, {"note": 80, "velocity": 87, "duration": 139}, {"note": 0, "velocity": 0, "duration": 101}, {"note": 73, "velocity": 90, "duration": 115}, {"note": 0, "velocity": 0, "duration": 125}, {"note": 73, "velocity": 93, "duration": 130}, {"note": 0, "velocity": 0, "duration": 110}, {"note": 80, "velocity": 93, "duration": 131}, {"note": 0, "velocity": 0, "duration": 109}, {"note": 80, "velocity": 95, "duration": 130}, {"note": 0, "velocity": 0, "duration": 110}, {"note": 73, "velocity": 102, "duration": 110}, {"note": 0, "velocity": 0, "duration": 130}, {"note": 73, "velocity": 103, "duration": 130}, {"note": 0, "velocity": 0, "duration": 350}, {"note": 80, "velocity": 85, "duration": 133}, {"note": 0, "velocity": 0, "duration": 107}, {"note": 80, "velocity": 87, "duration": 122}, {"note": 0, "velocity": 0, "duration": 118}, {"note": 80, "velocity": 87, "duration": 150}, {"note": 0, "velocity": 0, "duration": 90}, {"note": 83, "velocity": 93, "duration": 127}, {"note": 0, "velocity": 0, "duration": 113}, {"note": 80, "velocity": 103, "duration": 316}, {"note": 0, "velocity": 0, "duration": 164}, {"note": 76, "velocity": 102, "duration": 112}, {"note": 0, "velocity": 0, "duration": 128}, {"note": 78, "velocity": 85, "duration": 118}, {"note": 0, "velocity": 0, "duration": 122}, {"note": 80, "velocity": 95, "duration": 122}, {"note": 0, "velocity": 0, "duration": 358}, {"note": 80, "velocity": 93, "duration": 137}, {"note": 0, "velocity": 0, "duration": 343}, {"note": 80, "velocity": 93, "duration": 182}, {"note": 0, "velocity": 0, "duration": 298}, {"note": 78, "velocity": 93, "duration": 110}, {"note": 0, "velocity": 0, "duration": 130}, {"note": 76, "velocity": 105, "duration": 106}, {"note": 0, "velocity": 0, "duration": 134}, {"note": 78, "velocity": 95, "duration": 480}, {"note": 78, "velocity": 95, "duration": 132}, {"note": 0, "velocity": 0, "duration": 108}, {"note": 80, "velocity": 90, "duration": 122}, {"note": 0, "velocity": 0, "duration": 118}, {"note": 78, "velocity": 103, "duration": 290}, {"note": 0, "velocity": 0, "duration": 190}, {"note": 76, "velocity": 93, "duration": 119}, {"note": 0, "velocity": 0, "duration": 121}, {"note": 78, "velocity": 87, "duration": 127}, {"note": 0, "velocity": 0, "duration": 113}, {"note": 80, "velocity": 93, "duration": 115}, {"note": 0, "velocity": 0, "duration": 125}, {"note": 73, "velocity": 93, "duration": 108}, {"note": 0, "velocity": 0, "duration": 132}, {"note": 73, "velocity": 102, "duration": 130}, {"note": 0, "velocity": 0, "duration": 110}, {"note": 80, "velocity": 90, "duration": 115}, {"note": 0, "velocity": 0, "duration": 125}, {"note": 80, "velocity": 95, "duration": 134}, {"note": 0, "velocity": 0, "duration": 106}, {"note": 73, "velocity": 102, "duration": 233}, {"note": 0, "velocity": 0, "duration": 487}, {"note": 80, "velocity": 95, "duration": 345}, {"note": 0, "velocity": 0, "duration": 135}, {"note": 80, "velocity": 93, "duration": 144}, {"note": 0, "velocity": 0, "duration": 96}, {"note": 78, "velocity": 95, "duration": 143}, {"note": 0, "velocity": 0, "duration": 97}, {"note": 75, "velocity": 95, "duration": 480}, {"note": 63, "velocity": 105, "duration": 211}, {"note": 64, "velocity": 87, "duration": 122}, {"note": 63, "velocity": 93, "duration": 82}, {"note": 61, "velocity": 105, "duration": 1212}, {"note": 0, "velocity": 0, "duration": 10308}, {"note": 76, "velocity": 95, "duration": 110}, {"note": 0, "velocity": 0, "duration": 130}, {"note": 73, "velocity": 87, "duration": 115}, {"note": 0, "velocity": 0, "duration": 125}, {"note": 76, "velocity": 93, "duration": 110}, {"note": 0, "velocity": 0, "duration": 130}, {"note": 73, "velocity": 87, "duration": 118}, {"note": 0, "velocity": 0, "duration": 122}, {"note": 76, "velocity": 95, "duration": 108}, {"note": 0, "velocity": 0, "duration": 132}, {"note": 76, "velocity": 103, "duration": 194}, {"note": 0, "velocity": 0, "duration": 526}, {"note": 75, "velocity": 95, "duration": 113}, {"note": 0, "velocity": 0, "duration": 127}, {"note": 75, "velocity": 93, "duration": 113}, {"note": 0, "velocity": 0, "duration": 127}, {"note": 75, "velocity": 90, "duration": 132}, {"note": 0, "velocity": 0, "duration": 108}, {"note": 76, "velocity": 87, "duration": 132}, {"note": 0, "velocity": 0, "duration": 108}, {"note": 75, "velocity": 103, "duration": 534}, {"note": 0, "velocity": 0, "duration": 426}, {"note": 76, "velocity": 102, "duration": 166}, {"note": 0, "velocity": 0, "duration": 74}, {"note": 73, "velocity": 93, "duration": 137}, {"note": 0, "velocity": 0, "duration": 103}, {"note": 76, "velocity": 103, "duration": 110}, {"note": 0, "velocity": 0, "duration": 130}, {"note": 73, "velocity": 95, "duration": 98}, {"note": 0, "velocity": 0, "duration": 142}, {"note": 76, "velocity": 102, "duration": 714}, {"note": 0, "velocity": 0, "duration": 246}, {"note": 75, "velocity": 87, "duration": 127}, {"note": 0, "velocity": 0, "duration": 113}, {"note": 75, "velocity": 93, "duration": 149}, {"note": 0, "velocity": 0, "duration": 91}, {"note": 75, "velocity": 93, "duration": 127}, {"note": 0, "velocity": 0, "duration": 113}, {"note": 76, "velocity": 102, "duration": 139}, {"note": 0, "velocity": 0, "duration": 101}, {"note": 75, "velocity": 102, "duration": 594}, {"note": 0, "velocity": 0, "duration": 366}, {"note": 76, "velocity": 102, "duration": 156}, {"note": 0, "velocity": 0, "duration": 84}, {"note": 73, "velocity": 93, "duration": 134}, {"note": 0, "velocity": 0, "duration": 106}, {"note": 76, "velocity": 102, "duration": 139}, {"note": 0, "velocity": 0, "duration": 101}, {"note": 73, "velocity": 102, "duration": 106}, {"note": 0, "velocity": 0, "duration": 134}, {"note": 76, "velocity": 102, "duration": 213}, {"note": 76, "velocity": 102, "duration": 455}, {"note": 0, "velocity": 0, "duration": 265}, {"note": 80, "velocity": 87, "duration": 91}, {"note": 0, "velocity": 0, "duration": 149}, {"note": 80, "velocity": 80, "duration": 103}, {"note": 0, "velocity": 0, "duration": 137}, {"note": 80, "velocity": 87, "duration": 132}, {"note": 0, "velocity": 0, "duration": 108}, {"note": 78, "velocity": 93, "duration": 163}, {"note": 0, "velocity": 0, "duration": 77}, {"note": 75, "velocity": 95, "duration": 480}, {"note": 73, "velocity": 93, "duration": 142}, {"note": 0, "velocity": 0, "duration": 98}, {"note": 71, "velocity": 87, "duration": 144}, {"note": 0, "velocity": 0, "duration": 96}, {"note": 73, "velocity": 93, "duration": 411}, {"note": 0, "velocity": 0, "duration": 69}, {"note": 76, "velocity": 105, "duration": 362}, {"note": 0, "velocity": 0, "duration": 118}, {"note": 76, "velocity": 105, "duration": 146}, {"note": 0, "velocity": 0, "duration": 94}, {"note": 76, "velocity": 102, "duration": 720}, {"note": 80, "velocity": 93, "duration": 166}, {"note": 0, "velocity": 0, "duration": 74}, {"note": 80, "velocity": 93, "duration": 130}, {"note": 0, "velocity": 0, "duration": 110}, {"note": 80, "velocity": 102, "duration": 132}, {"note": 0, "velocity": 0, "duration": 108}, {"note": 83, "velocity": 102, "duration": 122}, {"note": 0, "velocity": 0, "duration": 118}, {"note": 80, "velocity": 103, "duration": 362}, {"note": 0, "velocity": 0, "duration": 118}, {"note": 76, "velocity": 105, "duration": 148}, {"note": 0, "velocity": 0, "duration": 92}, {"note": 78, "velocity": 102, "duration": 167}, {"note": 0, "velocity": 0, "duration": 73}, {"note": 80, "velocity": 87, "duration": 120}, {"note": 0, "velocity": 0, "duration": 360}, {"note": 80, "velocity": 93, "duration": 192}, {"note": 0, "velocity": 0, "duration": 288}, {"note": 80, "velocity": 93, "duration": 245}, {"note": 0, "velocity": 0, "duration": 235}, {"note": 78, "velocity": 93, "duration": 120}, {"note": 0, "velocity": 0, "duration": 120}, {"note": 76, "velocity": 103, "duration": 126}, {"note": 0, "velocity": 0, "duration": 114}, {"note": 78, "velocity": 103, "duration": 141}, {"note": 0, "velocity": 0, "duration": 339}, {"note": 78, "velocity": 87, "duration": 178}, {"note": 0, "velocity": 0, "duration": 62}, {"note": 80, "velocity": 90, "duration": 126}, {"note": 0, "velocity": 0, "duration": 114}, {"note": 78, "velocity": 95, "duration": 266}, {"note": 0, "velocity": 0, "duration": 214}, {"note": 76, "velocity": 87, "duration": 132}, {"note": 0, "velocity": 0, "duration": 108}, {"note": 78, "velocity": 87, "duration": 132}, {"note": 0, "velocity": 0, "duration": 108}, {"note": 80, "velocity": 87, "duration": 139}, {"note": 0, "velocity": 0, "duration": 101}, {"note": 73, "velocity": 90, "duration": 115}, {"note": 0, "velocity": 0, "duration": 125}, {"note": 73, "velocity": 93, "duration": 130}, {"note": 0, "velocity": 0, "duration": 110}, {"note": 80, "velocity": 93, "duration": 131}, {"note": 0, "velocity": 0, "duration": 109}, {"note": 80, "velocity": 95, "duration": 130}, {"note": 0, "velocity": 0, "duration": 110}, {"note": 73, "velocity": 102, "duration": 110}, {"note": 0, "velocity": 0, "duration": 130}, {"note": 73, "velocity": 103, "duration": 130}, {"note": 0, "velocity": 0, "duration": 350}, {"note": 80, "velocity": 85, "duration": 133}, {"note": 0, "velocity": 0, "duration": 107}, {"note": 80, "velocity": 87, "duration": 122}, {"note": 0, "velocity": 0, "duration": 118}, {"note": 80, "velocity": 87, "duration": 150}, {"note": 0, "velocity": 0, "duration": 90}, {"note": 83, "velocity": 93, "duration": 127}, {"note": 0, "velocity": 0, "duration": 113}, {"note": 80, "velocity": 103, "duration": 316}, {"note": 0, "velocity": 0, "duration": 164}, {"note": 76, "velocity": 102, "duration": 112}, {"note": 0, "velocity": 0, "duration": 128}, {"note": 78, "velocity": 85, "duration": 118}, {"note": 0, "velocity": 0, "duration": 122}, {"note": 80, "velocity": 95, "duration": 122}, {"note": 0, "velocity": 0, "duration": 358}, {"note": 80, "velocity": 93, "duration": 137}, {"note": 0, "velocity": 0, "duration": 343}, {"note": 80, "velocity": 93, "duration": 182}, {"note": 0, "velocity": 0, "duration": 298}, {"note": 78, "velocity": 93, "duration": 110}, {"note": 0, "velocity": 0, "duration": 130}, {"note": 76, "velocity": 105, "duration": 106}, {"note": 0, "velocity": 0, "duration": 134}, {"note": 78, "velocity": 95, "duration": 480}, {"note": 78, "velocity": 95, "duration": 132}, {"note": 0, "velocity": 0, "duration": 108}, {"note": 80, "velocity": 90, "duration": 122}, {"note": 0, "velocity": 0, "duration": 118}, {"note": 78, "velocity": 103, "duration": 290}, {"note": 0, "velocity": 0, "duration": 190}, {"note": 76, "velocity": 93, "duration": 119}, {"note": 0, "velocity": 0, "duration": 121}, {"note": 78, "velocity": 87, "duration": 127}, {"note": 0, "velocity": 0, "duration": 113}, {"note": 80, "velocity": 93, "duration": 115}, {"note": 0, "velocity": 0, "duration": 125}, {"note": 73, "velocity": 93, "duration": 108}, {"note": 0, "velocity": 0, "duration": 132}, {"note": 73, "velocity": 102, "duration": 130}, {"note": 0, "velocity": 0, "duration": 110}, {"note": 80, "velocity": 90, "duration": 115}, {"note": 0, "velocity": 0, "duration": 125}, {"note": 80, "velocity": 95, "duration": 134}, {"note": 0, "velocity": 0, "duration": 106}, {"note": 73, "velocity": 102, "duration": 233}, {"note": 0, "velocity": 0, "duration": 487}, {"note": 80, "velocity": 95, "duration": 345}, {"note": 0, "velocity": 0, "duration": 135}, {"note": 80, "velocity": 93, "duration": 144}, {"note": 0, "velocity": 0, "duration": 96}, {"note": 78, "velocity": 95, "duration": 143}, {"note": 0, "velocity": 0, "duration": 97}, {"note": 80, "velocity": 95, "duration": 922}, {"note": 0, "velocity": 0, "duration": 7718}, {"note": 76, "velocity": 95, "duration": 110}, {"note": 0, "velocity": 0, "duration": 130}, {"note": 73, "velocity": 87, "duration": 115}, {"note": 0, "velocity": 0, "duration": 125}, {"note": 76, "velocity": 93, "duration": 110}, {"note": 0, "velocity": 0, "duration": 130}, {"note": 73, "velocity": 87, "duration": 118}, {"note": 0, "velocity": 0, "duration": 122}, {"note": 76, "velocity": 95, "duration": 108}, {"note": 0, "velocity": 0, "duration": 132}, {"note": 73, "velocity": 93, "duration": 154}, {"note": 0, "velocity": 0, "duration": 86}, {"note": 76, "velocity": 105, "duration": 143}, {"note": 0, "velocity": 0, "duration": 97}, {"note": 78, "velocity": 95, "duration": 118}, {"note": 0, "velocity": 0, "duration": 122}, {"note": 75, "velocity": 95, "duration": 113}, {"note": 0, "velocity": 0, "duration": 127}, {"note": 75, "velocity": 93, "duration": 113}, {"note": 0, "velocity": 0, "duration": 127}, {"note": 75, "velocity": 90, "duration": 132}, {"note": 0, "velocity": 0, "duration": 108}, {"note": 76, "velocity": 87, "duration": 132}, {"note": 0, "velocity": 0, "duration": 108}, {"note": 75, "velocity": 103, "duration": 534}, {"note": 0, "velocity": 0, "duration": 426}, {"note": 76, "velocity": 102, "duration": 166}, {"note": 0, "velocity": 0, "duration": 74}, {"note": 73, "velocity": 93, "duration": 137}, {"note": 0, "velocity": 0, "duration": 103}, {"note": 76, "velocity": 103, "duration": 110}, {"note": 0, "velocity": 0, "duration": 130}, {"note": 73, "velocity": 95, "duration": 98}, {"note": 0, "velocity": 0, "duration": 142}, {"note": 76, "velocity": 102, "duration": 714}, {"note": 76, "velocity": 100, "duration": 240}, {"note": 75, "velocity": 87, "duration": 127}, {"note": 0, "velocity": 0, "duration": 113}, {"note": 75, "velocity": 93, "duration": 149}, {"note": 0, "velocity": 0, "duration": 91}, {"note": 75, "velocity": 93, "duration": 127}, {"note": 0, "velocity": 0, "duration": 113}, {"note": 76, "velocity": 102, "duration": 139}, {"note": 0, "velocity": 0, "duration": 101}, {"note": 75, "velocity": 102, "duration": 480}, {"note": 73, "velocity": 69, "duration": 134}, {"note": 0, "velocity": 0, "duration": 106}, {"note": 71, "velocity": 87, "duration": 132}, {"note": 0, "velocity": 0, "duration": 108}, {"note": 73, "velocity": 95, "duration": 458}, {"note": 76, "velocity": 102, "duration": 367}, {"note": 0, "velocity": 0, "duration": 113}, {"note": 76, "velocity": 95, "duration": 137}, {"note": 0, "velocity": 0, "duration": 103}, {"note": 76, "velocity": 105, "duration": 458}, {"note": 0, "velocity": 0, "duration": 262}, {"note": 80, "velocity": 87, "duration": 480}, {"note": 0, "velocity": 0, "duration": 240}, {"note": 78, "velocity": 93, "duration": 163}, {"note": 0, "velocity": 0, "duration": 77}, {"note": 75, "velocity": 95, "duration": 480}, {"note": 73, "velocity": 93, "duration": 142}, {"note": 0, "velocity": 0, "duration": 98}, {"note": 71, "velocity": 87, "duration": 144}, {"note": 0, "velocity": 0, "duration": 96}, {"note": 73, "velocity": 93, "duration": 411}, {"note": 0, "velocity": 0, "duration": 69}, {"note": 76, "velocity": 105, "duration": 362}, {"note": 0, "velocity": 0, "duration": 118}, {"note": 76, "velocity": 105, "duration": 146}, {"note": 0, "velocity": 0, "duration": 94}, {"note": 76, "velocity": 102, "duration": 720}, {"note": 80, "velocity": 93, "duration": 166}, {"note": 0, "velocity": 0, "duration": 74}, {"note": 80, "velocity": 93, "duration": 130}, {"note": 0, "velocity": 0, "duration": 110}, {"note": 80, "velocity": 102, "duration": 132}, {"note": 0, "velocity": 0, "duration": 108}, {"note": 83, "velocity": 102, "duration": 122}, {"note": 0, "velocity": 0, "duration": 118}, {"note": 80, "velocity": 103, "duration": 362}, {"note": 0, "velocity": 0, "duration": 118}, {"note": 76, "velocity": 105, "duration": 148}, {"note": 0, "velocity": 0, "duration": 92}, {"note": 78, "velocity": 102, "duration": 167}, {"note": 0, "velocity": 0, "duration": 73}, {"note": 80, "velocity": 87, "duration": 120}, {"note": 0, "velocity": 0, "duration": 360}, {"note": 80, "velocity": 93, "duration": 192}, {"note": 0, "velocity": 0, "duration": 288}, {"note": 80, "velocity": 93, "duration": 245}, {"note": 0, "velocity": 0, "duration": 235}, {"note": 78, "velocity": 93, "duration": 120}, {"note": 0, "velocity": 0, "duration": 120}, {"note": 76, "velocity": 103, "duration": 126}, {"note": 0, "velocity": 0, "duration": 114}, {"note": 78, "velocity": 103, "duration": 141}, {"note": 0, "velocity": 0, "duration": 339}, {"note": 78, "velocity": 87, "duration": 178}, {"note": 0, "velocity": 0, "duration": 62}, {"note": 80, "velocity": 90, "duration": 126}, {"note": 0, "velocity": 0, "duration": 114}, {"note": 78, "velocity": 95, "duration": 266}, {"note": 0, "velocity": 0, "duration": 214}, {"note": 76, "velocity": 87, "duration": 132}, {"note": 0, "velocity": 0, "duration": 108}, {"note": 78, "velocity": 87, "duration": 132}, {"note": 0, "velocity": 0, "duration": 108}, {"note": 80, "velocity": 87, "duration": 139}, {"note": 0, "velocity": 0, "duration": 101}, {"note": 73, "velocity": 90, "duration": 115}, {"note": 0, "velocity": 0, "duration": 125}, {"note": 73, "velocity": 93, "duration": 130}, {"note": 0, "velocity": 0, "duration": 110}, {"note": 80, "velocity": 93, "duration": 131}, {"note": 0, "velocity": 0, "duration": 109}, {"note": 80, "velocity": 95, "duration": 130}, {"note": 0, "velocity": 0, "duration": 110}, {"note": 73, "velocity": 102, "duration": 110}, {"note": 0, "velocity": 0, "duration": 130}, {"note": 73, "velocity": 103, "duration": 130}, {"note": 0, "velocity": 0, "duration": 350}, {"note": 80, "velocity": 85, "duration": 133}, {"note": 0, "velocity": 0, "duration": 107}, {"note": 80, "velocity": 87, "duration": 122}, {"note": 0, "velocity": 0, "duration": 118}, {"note": 80, "velocity": 87, "duration": 150}, {"note": 0, "velocity": 0, "duration": 90}, {"note": 83, "velocity": 93, "duration": 127}, {"note": 0, "velocity": 0, "duration": 113}, {"note": 80, "velocity": 103, "duration": 316}, {"note": 0, "velocity": 0, "duration": 164}, {"note": 76, "velocity": 102, "duration": 112}, {"note": 0, "velocity": 0, "duration": 128}, {"note": 78, "velocity": 85, "duration": 118}, {"note": 0, "velocity": 0, "duration": 122}, {"note": 80, "velocity": 95, "duration": 122}, {"note": 0, "velocity": 0, "duration": 358}, {"note": 80, "velocity": 93, "duration": 137}, {"note": 0, "velocity": 0, "duration": 343}, {"note": 80, "velocity": 93, "duration": 182}, {"note": 0, "velocity": 0, "duration": 298}, {"note": 78, "velocity": 93, "duration": 110}, {"note": 0, "velocity": 0, "duration": 130}, {"note": 76, "velocity": 105, "duration": 106}, {"note": 0, "velocity": 0, "duration": 134}, {"note": 78, "velocity": 95, "duration": 480}, {"note": 78, "velocity": 95, "duration": 132}, {"note": 0, "velocity": 0, "duration": 108}, {"note": 80, "velocity": 90, "duration": 122}, {"note": 0, "velocity": 0, "duration": 118}, {"note": 78, "velocity": 103, "duration": 290}, {"note": 0, "velocity": 0, "duration": 190}, {"note": 76, "velocity": 93, "duration": 119}, {"note": 0, "velocity": 0, "duration": 121}, {"note": 78, "velocity": 87, "duration": 127}, {"note": 0, "velocity": 0, "duration": 113}, {"note": 80, "velocity": 93, "duration": 115}, {"note": 0, "velocity": 0, "duration": 125}, {"note": 73, "velocity": 93, "duration": 108}, {"note": 0, "velocity": 0, "duration": 132}, {"note": 73, "velocity": 102, "duration": 130}, {"note": 0, "velocity": 0, "duration": 110}, {"note": 80, "velocity": 90, "duration": 115}, {"note": 0, "velocity": 0, "duration": 125}, {"note": 80, "velocity": 95, "duration": 134}, {"note": 0, "velocity": 0, "duration": 106}, {"note": 73, "velocity": 102, "duration": 233}, {"note": 0, "velocity": 0, "duration": 487}, {"note": 80, "velocity": 95, "duration": 345}, {"note": 0, "velocity": 0, "duration": 135}, {"note": 80, "velocity": 93, "duration": 144}, {"note": 0, "velocity": 0, "duration": 96}, {"note": 78, "velocity": 95, "duration": 143}, {"note": 0, "velocity": 0, "duration": 97}, {"note": 75, "velocity": 95, "duration": 480}, {"note": 63, "velocity": 105, "duration": 211}, {"note": 64, "velocity": 87, "duration": 122}, {"note": 63, "velocity": 93, "duration": 82}, {"note": 61, "velocity": 105, "duration": 1212}, {"note": 0, "velocity": 0, "duration": 228}, {"note": 76, "velocity": 105, "duration": 148}, {"note": 0, "velocity": 0, "duration": 92}, {"note": 78, "velocity": 102, "duration": 167}, {"note": 0, "velocity": 0, "duration": 73}, {"note": 80, "velocity": 87, "duration": 120}, {"note": 0, "velocity": 0, "duration": 360}, {"note": 80, "velocity": 93, "duration": 192}, {"note": 0, "velocity": 0, "duration": 288}, {"note": 80, "velocity": 93, "duration": 245}, {"note": 0, "velocity": 0, "duration": 235}, {"note": 78, "velocity": 93, "duration": 120}, {"note": 0, "velocity": 0, "duration": 120}, {"note": 76, "velocity": 103, "duration": 126}, {"note": 0, "velocity": 0, "duration": 114}, {"note": 78, "velocity": 103, "duration": 141}, {"note": 0, "velocity": 0, "duration": 339}, {"note": 78, "velocity": 87, "duration": 178}, {"note": 0, "velocity": 0, "duration": 62}, {"note": 80, "velocity": 90, "duration": 126}, {"note": 0, "velocity": 0, "duration": 114}, {"note": 78, "velocity": 95, "duration": 266}, {"note": 0, "velocity": 0, "duration": 214}, {"note": 76, "velocity": 87, "duration": 132}, {"note": 0, "velocity": 0, "duration": 108}, {"note": 78, "velocity": 87, "duration": 132}, {"note": 0, "velocity": 0, "duration": 108}, {"note": 80, "velocity": 87, "duration": 139}, {"note": 0, "velocity": 0, "duration": 101}, {"note": 73, "velocity": 90, "duration": 115}, {"note": 0, "velocity": 0, "duration": 125}, {"note": 73, "velocity": 93, "duration": 130}, {"note": 0, "velocity": 0, "duration": 110}, {"note": 80, "velocity": 93, "duration": 131}, {"note": 0, "velocity": 0, "duration": 109}, {"note": 80, "velocity": 95, "duration": 130}, {"note": 0, "velocity": 0, "duration": 110}, {"note": 73, "velocity": 102, "duration": 110}, {"note": 0, "velocity": 0, "duration": 130}, {"note": 73, "velocity": 103, "duration": 130}, {"note": 0, "velocity": 0, "duration": 350}, {"note": 80, "velocity": 85, "duration": 133}, {"note": 0, "velocity": 0, "duration": 107}, {"note": 80, "velocity": 87, "duration": 122}, {"note": 0, "velocity": 0, "duration": 118}, {"note": 80, "velocity": 87, "duration": 150}, {"note": 0, "velocity": 0, "duration": 90}, {"note": 83, "velocity": 93, "duration": 127}, {"note": 0, "velocity": 0, "duration": 113}, {"note": 80, "velocity": 103, "duration": 316}, {"note": 0, "velocity": 0, "duration": 164}, {"note": 76, "velocity": 102, "duration": 112}, {"note": 0, "velocity": 0, "duration": 128}, {"note": 78, "velocity": 85, "duration": 118}, {"note": 0, "velocity": 0, "duration": 122}, {"note": 80, "velocity": 95, "duration": 122}, {"note": 0, "velocity": 0, "duration": 358}, {"note": 80, "velocity": 93, "duration": 137}, {"note": 0, "velocity": 0, "duration": 343}, {"note": 80, "velocity": 93, "duration": 182}, {"note": 0, "velocity": 0, "duration": 298}, {"note": 78, "velocity": 93, "duration": 110}, {"note": 0, "velocity": 0, "duration": 130}, {"note": 76, "velocity": 105, "duration": 106}, {"note": 0, "velocity": 0, "duration": 134}, {"note": 78, "velocity": 95, "duration": 480}, {"note": 78, "velocity": 95, "duration": 132}, {"note": 0, "velocity": 0, "duration": 108}, {"note": 80, "velocity": 90, "duration": 122}, {"note": 0, "velocity": 0, "duration": 118}, {"note": 78, "velocity": 103, "duration": 290}, {"note": 0, "velocity": 0, "duration": 190}, {"note": 76, "velocity": 93, "duration": 119}, {"note": 0, "velocity": 0, "duration": 121}, {"note": 78, "velocity": 87, "duration": 127}, {"note": 0, "velocity": 0, "duration": 113}, {"note": 80, "velocity": 93, "duration": 115}, {"note": 0, "velocity": 0, "duration": 125}, {"note": 73, "velocity": 93, "duration": 108}, {"note": 0, "velocity": 0, "duration": 132}, {"note": 73, "velocity": 102, "duration": 130}, {"note": 0, "velocity": 0, "duration": 110}, {"note": 80, "velocity": 90, "duration": 115}, {"note": 0, "velocity": 0, "duration": 125}, {"note": 80, "velocity": 95, "duration": 134}, {"note": 0, "velocity": 0, "duration": 106}, {"note": 73, "velocity": 102, "duration": 233}, {"note": 0, "velocity": 0, "duration": 487}, {"note": 80, "velocity": 95, "duration": 345}, {"note": 0, "velocity": 0, "duration": 135}, {"note": 80, "velocity": 93, "duration": 144}, {"note": 0, "velocity": 0, "duration": 96}, {"note": 78, "velocity": 95, "duration": 143}, {"note": 0, "velocity": 0, "duration": 97}, {"note": 75, "velocity": 95, "duration": 480}, {"note": 63, "velocity": 105, "duration": 211}, {"note": 64, "velocity": 87, "duration": 122}, {"note": 63, "velocity": 93, "duration": 82}, {"note": 61, "velocity": 105, "duration": 1212}]]