[[{"note": 62, "velocity": 86, "duration": 105}, {"note": 60, "velocity": 85, "duration": 117}, {"note": 59, "velocity": 86, "duration": 206}, {"note": 62, "velocity": 84, "duration": 75}, {"note": 62, "velocity": 85, "duration": 240}, {"note": 66, "velocity": 85, "duration": 214}, {"note": 67, "velocity": 84, "duration": 331}, {"note": 66, "velocity": 87, "duration": 127}, {"note": 64, "velocity": 85, "duration": 229}, {"note": 62, "velocity": 84, "duration": 210}, {"note": 60, "velocity": 86, "duration": 315}, {"note": 0, "velocity": 0, "duration": 525}, {"note": 62, "velocity": 86, "duration": 101}, {"note": 60, "velocity": 80, "duration": 337}, {"note": 59, "velocity": 82, "duration": 446}, {"note": 59, "velocity": 83, "duration": 104}, {"note": 57, "velocity": 82, "duration": 109}, {"note": 55, "velocity": 86, "duration": 254}, {"note": 59, "velocity": 86, "duration": 136}, {"note": 64, "velocity": 86, "duration": 249}, {"note": 59, "velocity": 78, "duration": 249}, {"note": 62, "velocity": 89, "duration": 484}, {"note": 0, "velocity": 0, "duration": 476}, {"note": 59, "velocity": 85, "duration": 94}, {"note": 64, "velocity": 87, "duration": 166}, {"note": 0, "velocity": 0, "duration": 74}, {"note": 62, "velocity": 80, "duration": 79}, {"note": 64, "velocity": 85, "duration": 150}, {"note": 0, "velocity": 0, "duration": 90}, {"note": 55, "velocity": 83, "duration": 155}, {"note": 0, "velocity": 0, "duration": 85}, {"note": 57, "velocity": 81, "duration": 724}, {"note": 0, "velocity": 0, "duration": 116}, {"note": 62, "velocity": 84, "duration": 68}, {"note": 60, "velocity": 84, "duration": 84}, {"note": 59, "velocity": 84, "duration": 199}, {"note": 62, "velocity": 85, "duration": 120}, {"note": 62, "velocity": 86, "duration": 153}, {"note": 0, "velocity": 0, "duration": 87}, {"note": 66, "velocity": 84, "duration": 159}, {"note": 0, "velocity": 0, "duration": 81}, {"note": 67, "velocity": 84, "duration": 274}, {"note": 0, "velocity": 0, "duration": 86}, {"note": 66, "velocity": 84, "duration": 91}, {"note": 64, "velocity": 86, "duration": 240}, {"note": 62, "velocity": 85, "duration": 185}, {"note": 60, "velocity": 85, "duration": 670}, {"note": 0, "velocity": 0, "duration": 170}, {"note": 62, "velocity": 84, "duration": 86}, {"note": 60, "velocity": 83, "duration": 171}, {"note": 0, "velocity": 0, "duration": 69}, {"note": 59, "velocity": 80, "duration": 519}, {"note": 0, "velocity": 0, "duration": 81}, {"note": 59, "velocity": 84, "duration": 85}, {"note": 62, "velocity": 88, "duration": 79}, {"note": 64, "velocity": 86, "duration": 197}, {"note": 67, "velocity": 82, "duration": 72}, {"note": 67, "velocity": 85, "duration": 177}, {"note": 0, "velocity": 0, "duration": 63}, {"note": 64, "velocity": 88, "duration": 152}, {"note": 0, "velocity": 0, "duration": 88}, {"note": 67, "velocity": 85, "duration": 360}, {"note": 0, "velocity": 0, "duration": 120}, {"note": 67, "velocity": 80, "duration": 81}, {"note": 71, "velocity": 85, "duration": 109}, {"note": 69, "velocity": 84, "duration": 123}, {"note": 67, "velocity": 80, "duration": 68}, {"note": 67, "velocity": 80, "duration": 1510}, {"note": 0, "velocity": 0, "duration": 770}, {"note": 64, "velocity": 86, "duration": 65}, {"note": 67, "velocity": 77, "duration": 72}, {"note": 67, "velocity": 83, "duration": 290}, {"note": 0, "velocity": 0, "duration": 70}, {"note": 64, "velocity": 85, "duration": 86}, {"note": 64, "velocity": 95, "duration": 176}, {"note": 0, "velocity": 0, "duration": 64}, {"note": 67, "velocity": 78, "duration": 83}, {"note": 67, "velocity": 80, "duration": 360}, {"note": 55, "velocity": 85, "duration": 124}, {"note": 57, "velocity": 82, "duration": 97}, {"note": 59, "velocity": 85, "duration": 71}, {"note": 59, "velocity": 82, "duration": 935}, {"note": 0, "velocity": 0, "duration": 1096}, {"note": 64, "velocity": 95, "duration": 65}, {"note": 64, "velocity": 85, "duration": 79}, {"note": 64, "velocity": 88, "duration": 83}, {"note": 67, "velocity": 82, "duration": 184}, {"note": 0, "velocity": 0, "duration": 62}, {"note": 67, "velocity": 86, "duration": 177}, {"note": 64, "velocity": 90, "duration": 150}, {"note": 0, "velocity": 0, "duration": 77}, {"note": 64, "velocity": 85, "duration": 83}, {"note": 69, "velocity": 85, "duration": 83}, {"note": 72, "velocity": 83, "duration": 157}, {"note": 0, "velocity": 0, "duration": 65}, {"note": 69, "velocity": 79, "duration": 76}, {"note": 71, "velocity": 82, "duration": 162}, {"note": 71, "velocity": 84, "duration": 1201}, {"note": 0, "velocity": 0, "duration": 753}, {"note": 64, "velocity": 89, "duration": 89}, {"note": 67, "velocity": 78, "duration": 68}, {"note": 67, "velocity": 80, "duration": 107}, {"note": 67, "velocity": 80, "duration": 142}, {"note": 64, "velocity": 86, "duration": 85}, {"note": 64, "velocity": 85, "duration": 102}, {"note": 67, "velocity": 77, "duration": 501}, {"note": 0, "velocity": 0, "duration": 77}, {"note": 64, "velocity": 88, "duration": 59}, {"note": 67, "velocity": 85, "duration": 67}, {"note": 0, "velocity": 0, "duration": 64}, {"note": 71, "velocity": 86, "duration": 302}, {"note": 72, "velocity": 84, "duration": 91}, {"note": 69, "velocity": 88, "duration": 255}, {"note": 71, "velocity": 83, "duration": 242}, {"note": 67, "velocity": 81, "duration": 528}, {"note": 0, "velocity": 0, "duration": 210}, {"note": 62, "velocity": 90, "duration": 72}, {"note": 62, "velocity": 84, "duration": 68}, {"note": 64, "velocity": 85, "duration": 93}, {"note": 67, "velocity": 71, "duration": 181}, {"note": 64, "velocity": 88, "duration": 80}, {"note": 67, "velocity": 83, "duration": 750}, {"note": 0, "velocity": 0, "duration": 65}, {"note": 64, "velocity": 85, "duration": 88}, {"note": 71, "velocity": 85, "duration": 236}, {"note": 64, "velocity": 82, "duration": 235}, {"note": 69, "velocity": 86, "duration": 1200}, {"note": 0, "velocity": 0, "duration": 1080}, {"note": 62, "velocity": 88, "duration": 92}, {"note": 74, "velocity": 95, "duration": 175}, {"note": 71, "velocity": 86, "duration": 164}, {"note": 0, "velocity": 0, "duration": 75}, {"note": 69, "velocity": 84, "duration": 261}, {"note": 0, "velocity": 0, "duration": 225}, {"note": 74, "velocity": 91, "duration": 161}, {"note": 0, "velocity": 0, "duration": 96}, {"note": 66, "velocity": 77, "duration": 156}, {"note": 67, "velocity": 83, "duration": 443}, {"note": 0, "velocity": 0, "duration": 379}, {"note": 67, "velocity": 82, "duration": 69}, {"note": 62, "velocity": 88, "duration": 178}, {"note": 0, "velocity": 0, "duration": 69}, {"note": 64, "velocity": 85, "duration": 90}, {"note": 67, "velocity": 84, "duration": 189}, {"note": 64, "velocity": 88, "duration": 137}, {"note": 0, "velocity": 0, "duration": 105}, {"note": 67, "velocity": 85, "duration": 632}, {"note": 0, "velocity": 0, "duration": 298}, {"note": 64, "velocity": 85, "duration": 119}, {"note": 62, "velocity": 86, "duration": 239}, {"note": 67, "velocity": 84, "duration": 109}, {"note": 69, "velocity": 88, "duration": 181}, {"note": 71, "velocity": 84, "duration": 177}, {"note": 72, "velocity": 84, "duration": 259}, {"note": 71, "velocity": 86, "duration": 197}, {"note": 69, "velocity": 79, "duration": 229}, {"note": 67, "velocity": 85, "duration": 301}, {"note": 64, "velocity": 91, "duration": 243}, {"note": 67, "velocity": 85, "duration": 167}, {"note": 0, "velocity": 0, "duration": 70}, {"note": 70, "velocity": 88, "duration": 130}, {"note": 69, "velocity": 84, "duration": 124}, {"note": 67, "velocity": 82, "duration": 197}, {"note": 67, "velocity": 86, "duration": 338}, {"note": 62, "velocity": 86, "duration": 75}, {"note": 74, "velocity": 93, "duration": 181}, {"note": 71, "velocity": 86, "duration": 216}, {"note": 69, "velocity": 81, "duration": 323}, {"note": 0, "velocity": 0, "duration": 158}, {"note": 74, "velocity": 93, "duration": 220}, {"note": 66, "velocity": 85, "duration": 191}, {"note": 67, "velocity": 86, "duration": 490}, {"note": 0, "velocity": 0, "duration": 350}, {"note": 64, "velocity": 85, "duration": 116}, {"note": 62, "velocity": 86, "duration": 150}, {"note": 0, "velocity": 0, "duration": 90}, {"note": 64, "velocity": 87, "duration": 80}, {"note": 67, "velocity": 80, "duration": 210}, {"note": 64, "velocity": 85, "duration": 213}, {"note": 67, "velocity": 86, "duration": 589}, {"note": 0, "velocity": 0, "duration": 339}, {"note": 64, "velocity": 85, "duration": 99}, {"note": 62, "velocity": 86, "duration": 182}, {"note": 0, "velocity": 0, "duration": 66}, {"note": 67, "velocity": 87, "duration": 87}, {"note": 69, "velocity": 86, "duration": 177}, {"note": 71, "velocity": 85, "duration": 171}, {"note": 0, "velocity": 0, "duration": 66}, {"note": 72, "velocity": 85, "duration": 285}, {"note": 71, "velocity": 85, "duration": 172}, {"note": 69, "velocity": 86, "duration": 212}, {"note": 67, "velocity": 85, "duration": 290}, {"note": 0, "velocity": 0, "duration": 98}, {"note": 64, "velocity": 89, "duration": 156}, {"note": 0, "velocity": 0, "duration": 71}, {"note": 67, "velocity": 86, "duration": 80}, {"note": 64, "velocity": 91, "duration": 189}, {"note": 69, "velocity": 88, "duration": 547}, {"note": 67, "velocity": 75, "duration": 832}, {"note": 0, "velocity": 0, "duration": 15521}, {"note": 64, "velocity": 86, "duration": 65}, {"note": 67, "velocity": 77, "duration": 72}, {"note": 67, "velocity": 83, "duration": 290}, {"note": 0, "velocity": 0, "duration": 70}, {"note": 64, "velocity": 85, "duration": 86}, {"note": 64, "velocity": 95, "duration": 176}, {"note": 0, "velocity": 0, "duration": 64}, {"note": 67, "velocity": 78, "duration": 83}, {"note": 67, "velocity": 80, "duration": 360}, {"note": 55, "velocity": 85, "duration": 124}, {"note": 57, "velocity": 82, "duration": 97}, {"note": 59, "velocity": 85, "duration": 71}, {"note": 59, "velocity": 82, "duration": 935}, {"note": 0, "velocity": 0, "duration": 1096}, {"note": 64, "velocity": 95, "duration": 65}, {"note": 64, "velocity": 85, "duration": 79}, {"note": 64, "velocity": 88, "duration": 83}, {"note": 67, "velocity": 82, "duration": 184}, {"note": 0, "velocity": 0, "duration": 62}, {"note": 67, "velocity": 86, "duration": 177}, {"note": 64, "velocity": 90, "duration": 150}, {"note": 0, "velocity": 0, "duration": 77}, {"note": 64, "velocity": 85, "duration": 83}, {"note": 69, "velocity": 85, "duration": 83}, {"note": 72, "velocity": 83, "duration": 157}, {"note": 0, "velocity": 0, "duration": 65}, {"note": 69, "velocity": 79, "duration": 76}, {"note": 71, "velocity": 82, "duration": 162}, {"note": 71, "velocity": 84, "duration": 1201}, {"note": 0, "velocity": 0, "duration": 753}, {"note": 64, "velocity": 89, "duration": 89}, {"note": 67, "velocity": 78, "duration": 68}, {"note": 67, "velocity": 80, "duration": 107}, {"note": 67, "velocity": 80, "duration": 142}, {"note": 64, "velocity": 86, "duration": 85}, {"note": 64, "velocity": 85, "duration": 102}, {"note": 67, "velocity": 77, "duration": 501}, {"note": 0, "velocity": 0, "duration": 77}, {"note": 64, "velocity": 88, "duration": 59}, {"note": 67, "velocity": 85, "duration": 67}, {"note": 0, "velocity": 0, "duration": 64}, {"note": 71, "velocity": 86, "duration": 302}, {"note": 72, "velocity": 84, "duration": 91}, {"note": 69, "velocity": 88, "duration": 255}, {"note": 71, "velocity": 83, "duration": 242}, {"note": 67, "velocity": 81, "duration": 528}, {"note": 0, "velocity": 0, "duration": 210}, {"note": 62, "velocity": 90, "duration": 72}, {"note": 62, "velocity": 84, "duration": 68}, {"note": 64, "velocity": 85, "duration": 93}, {"note": 67, "velocity": 71, "duration": 181}, {"note": 64, "velocity": 88, "duration": 80}, {"note": 67, "velocity": 83, "duration": 750}, {"note": 0, "velocity": 0, "duration": 65}, {"note": 64, "velocity": 85, "duration": 88}, {"note": 71, "velocity": 85, "duration": 236}, {"note": 64, "velocity": 82, "duration": 235}, {"note": 69, "velocity": 86, "duration": 1200}, {"note": 0, "velocity": 0, "duration": 1080}, {"note": 62, "velocity": 88, "duration": 92}, {"note": 74, "velocity": 95, "duration": 175}, {"note": 71, "velocity": 86, "duration": 164}, {"note": 0, "velocity": 0, "duration": 75}, {"note": 69, "velocity": 84, "duration": 261}, {"note": 0, "velocity": 0, "duration": 225}, {"note": 74, "velocity": 91, "duration": 161}, {"note": 0, "velocity": 0, "duration": 96}, {"note": 66, "velocity": 77, "duration": 156}, {"note": 67, "velocity": 83, "duration": 443}, {"note": 0, "velocity": 0, "duration": 379}, {"note": 67, "velocity": 82, "duration": 69}, {"note": 62, "velocity": 88, "duration": 178}, {"note": 0, "velocity": 0, "duration": 69}, {"note": 64, "velocity": 85, "duration": 90}, {"note": 67, "velocity": 84, "duration": 189}, {"note": 64, "velocity": 88, "duration": 137}, {"note": 0, "velocity": 0, "duration": 105}, {"note": 67, "velocity": 85, "duration": 632}, {"note": 0, "velocity": 0, "duration": 298}, {"note": 64, "velocity": 85, "duration": 119}, {"note": 62, "velocity": 86, "duration": 239}, {"note": 67, "velocity": 84, "duration": 109}, {"note": 69, "velocity": 88, "duration": 181}, {"note": 71, "velocity": 84, "duration": 177}, {"note": 72, "velocity": 84, "duration": 259}, {"note": 71, "velocity": 86, "duration": 197}, {"note": 69, "velocity": 79, "duration": 229}, {"note": 67, "velocity": 85, "duration": 301}, {"note": 64, "velocity": 91, "duration": 243}, {"note": 67, "velocity": 85, "duration": 167}, {"note": 0, "velocity": 0, "duration": 70}, {"note": 70, "velocity": 88, "duration": 130}, {"note": 69, "velocity": 84, "duration": 124}, {"note": 67, "velocity": 82, "duration": 197}, {"note": 67, "velocity": 86, "duration": 338}, {"note": 62, "velocity": 86, "duration": 75}, {"note": 74, "velocity": 93, "duration": 181}, {"note": 71, "velocity": 86, "duration": 216}, {"note": 69, "velocity": 81, "duration": 323}, {"note": 0, "velocity": 0, "duration": 158}, {"note": 74, "velocity": 93, "duration": 220}, {"note": 66, "velocity": 85, "duration": 191}, {"note": 67, "velocity": 86, "duration": 490}, {"note": 0, "velocity": 0, "duration": 350}, {"note": 64, "velocity": 85, "duration": 116}, {"note": 62, "velocity": 86, "duration": 150}, {"note": 0, "velocity": 0, "duration": 90}, {"note": 64, "velocity": 87, "duration": 80}, {"note": 67, "velocity": 80, "duration": 210}, {"note": 64, "velocity": 85, "duration": 213}, {"note": 67, "velocity": 86, "duration": 589}, {"note": 0, "velocity": 0, "duration": 339}, {"note": 64, "velocity": 85, "duration": 99}, {"note": 62, "velocity": 86, "duration": 182}, {"note": 0, "velocity": 0, "duration": 66}, {"note": 67, "velocity": 87, "duration": 87}, {"note": 69, "velocity": 86, "duration": 177}, {"note": 71, "velocity": 85, "duration": 171}, {"note": 0, "velocity": 0, "duration": 66}, {"note": 72, "velocity": 85, "duration": 285}, {"note": 71, "velocity": 85, "duration": 172}, {"note": 69, "velocity": 86, "duration": 212}, {"note": 67, "velocity": 85, "duration": 290}, {"note": 0, "velocity": 0, "duration": 98}, {"note": 64, "velocity": 89, "duration": 156}, {"note": 0, "velocity": 0, "duration": 71}, {"note": 67, "velocity": 86, "duration": 80}, {"note": 64, "velocity": 91, "duration": 189}, {"note": 69, "velocity": 88, "duration": 547}, {"note": 67, "velocity": 75, "duration": 832}, {"note": 0, "velocity": 0, "duration": 7005}, {"note": 62, "velocity": 88, "duration": 92}, {"note": 74, "velocity": 95, "duration": 175}, {"note": 71, "velocity": 86, "duration": 164}, {"note": 0, "velocity": 0, "duration": 75}, {"note": 69, "velocity": 84, "duration": 261}, {"note": 0, "velocity": 0, "duration": 225}, {"note": 74, "velocity": 91, "duration": 161}, {"note": 0, "velocity": 0, "duration": 96}, {"note": 66, "velocity": 77, "duration": 156}, {"note": 67, "velocity": 83, "duration": 443}, {"note": 0, "velocity": 0, "duration": 379}, {"note": 67, "velocity": 82, "duration": 69}, {"note": 62, "velocity": 88, "duration": 178}, {"note": 0, "velocity": 0, "duration": 69}, {"note": 64, "velocity": 85, "duration": 90}, {"note": 67, "velocity": 84, "duration": 189}, {"note": 64, "velocity": 88, "duration": 137}, {"note": 0, "velocity": 0, "duration": 105}, {"note": 67, "velocity": 85, "duration": 632}, {"note": 0, "velocity": 0, "duration": 298}, {"note": 64, "velocity": 85, "duration": 119}, {"note": 62, "velocity": 86, "duration": 239}, {"note": 67, "velocity": 84, "duration": 109}, {"note": 69, "velocity": 88, "duration": 181}, {"note": 71, "velocity": 84, "duration": 177}, {"note": 72, "velocity": 84, "duration": 259}, {"note": 71, "velocity": 86, "duration": 197}, {"note": 69, "velocity": 79, "duration": 229}, {"note": 67, "velocity": 85, "duration": 301}, {"note": 64, "velocity": 91, "duration": 243}, {"note": 67, "velocity": 85, "duration": 167}, {"note": 0, "velocity": 0, "duration": 70}, {"note": 70, "velocity": 88, "duration": 130}, {"note": 69, "velocity": 84, "duration": 124}, {"note": 67, "velocity": 82, "duration": 197}, {"note": 67, "velocity": 86, "duration": 338}, {"note": 62, "velocity": 86, "duration": 75}, {"note": 74, "velocity": 93, "duration": 181}, {"note": 71, "velocity": 86, "duration": 216}, {"note": 69, "velocity": 81, "duration": 323}, {"note": 0, "velocity": 0, "duration": 158}, {"note": 74, "velocity": 93, "duration": 220}, {"note": 66, "velocity": 85, "duration": 191}, {"note": 67, "velocity": 86, "duration": 490}, {"note": 0, "velocity": 0, "duration": 350}, {"note": 64, "velocity": 85, "duration": 116}, {"note": 62, "velocity": 86, "duration": 150}, {"note": 0, "velocity": 0, "duration": 90}, {"note": 64, "velocity": 87, "duration": 80}, {"note": 67, "velocity": 80, "duration": 210}, {"note": 64, "velocity": 85, "duration": 213}, {"note": 67, "velocity": 86, "duration": 589}, {"note": 0, "velocity": 0, "duration": 339}, {"note": 64, "velocity": 85, "duration": 99}, {"note": 62, "velocity": 86, "duration": 182}, {"note": 0, "velocity": 0, "duration": 66}, {"note": 67, "velocity": 87, "duration": 87}, {"note": 69, "velocity": 86, "duration": 177}, {"note": 71, "velocity": 85, "duration": 171}, {"note": 0, "velocity": 0, "duration": 66}, {"note": 72, "velocity": 85, "duration": 285}, {"note": 71, "velocity": 85, "duration": 172}, {"note": 69, "velocity": 86, "duration": 212}, {"note": 67, "velocity": 85, "duration": 290}, {"note": 0, "velocity": 0, "duration": 95}, {"note": 72, "velocity": 87, "duration": 104}, {"note": 71, "velocity": 86, "duration": 660}, {"note": 67, "velocity": 85, "duration": 760}, {"note": 0, "velocity": 0, "duration": 485}, {"note": 69, "velocity": 82, "duration": 584}, {"note": 67, "velocity": 77, "duration": 1147}]]