[[{"note": 76, "velocity": 89, "duration": 404}, {"note": 0, "velocity": 0, "duration": 76}, {"note": 76, "velocity": 86, "duration": 188}, {"note": 74, "velocity": 86, "duration": 160}, {"note": 0, "velocity": 0, "duration": 80}, {"note": 74, "velocity": 89, "duration": 554}, {"note": 0, "velocity": 0, "duration": 166}, {"note": 69, "velocity": 86, "duration": 175}, {"note": 0, "velocity": 0, "duration": 65}, {"note": 72, "velocity": 85, "duration": 433}, {"note": 72, "velocity": 85, "duration": 163}, {"note": 0, "velocity": 0, "duration": 77}, {"note": 74, "velocity": 85, "duration": 177}, {"note": 0, "velocity": 0, "duration": 63}, {"note": 74, "velocity": 88, "duration": 397}, {"note": 0, "velocity": 0, "duration": 83}, {"note": 72, "velocity": 80, "duration": 177}, {"note": 0, "velocity": 0, "duration": 63}, {"note": 71, "velocity": 84, "duration": 180}, {"note": 69, "velocity": 84, "duration": 365}, {"note": 0, "velocity": 0, "duration": 115}, {"note": 72, "velocity": 85, "duration": 434}, {"note": 74, "velocity": 87, "duration": 180}, {"note": 74, "velocity": 87, "duration": 176}, {"note": 0, "velocity": 0, "duration": 64}, {"note": 72, "velocity": 85, "duration": 173}, {"note": 0, "velocity": 0, "duration": 67}, {"note": 74, "velocity": 87, "duration": 170}, {"note": 0, "velocity": 0, "duration": 70}, {"note": 76, "velocity": 84, "duration": 404}, {"note": 0, "velocity": 0, "duration": 76}, {"note": 76, "velocity": 84, "duration": 160}, {"note": 0, "velocity": 0, "duration": 80}, {"note": 74, "velocity": 84, "duration": 170}, {"note": 0, "velocity": 0, "duration": 70}, {"note": 74, "velocity": 89, "duration": 756}, {"note": 0, "velocity": 0, "duration": 204}, {"note": 76, "velocity": 88, "duration": 177}, {"note": 0, "velocity": 0, "duration": 63}, {"note": 76, "velocity": 87, "duration": 153}, {"note": 0, "velocity": 0, "duration": 87}, {"note": 76, "velocity": 87, "duration": 169}, {"note": 0, "velocity": 0, "duration": 71}, {"note": 79, "velocity": 79, "duration": 176}, {"note": 0, "velocity": 0, "duration": 64}, {"note": 79, "velocity": 84, "duration": 596}, {"note": 0, "velocity": 0, "duration": 124}, {"note": 79, "velocity": 83, "duration": 184}, {"note": 81, "velocity": 79, "duration": 167}, {"note": 0, "velocity": 0, "duration": 73}, {"note": 76, "velocity": 82, "duration": 180}, {"note": 76, "velocity": 86, "duration": 191}, {"note": 74, "velocity": 85, "duration": 180}, {"note": 76, "velocity": 85, "duration": 420}, {"note": 0, "velocity": 0, "duration": 540}, {"note": 76, "velocity": 97, "duration": 624}, {"note": 0, "velocity": 0, "duration": 96}, {"note": 79, "velocity": 87, "duration": 156}, {"note": 0, "velocity": 0, "duration": 84}, {"note": 79, "velocity": 85, "duration": 132}, {"note": 0, "velocity": 0, "duration": 108}, {"note": 79, "velocity": 79, "duration": 117}, {"note": 0, "velocity": 0, "duration": 123}, {"note": 79, "velocity": 85, "duration": 157}, {"note": 0, "velocity": 0, "duration": 83}, {"note": 81, "velocity": 85, "duration": 392}, {"note": 0, "velocity": 0, "duration": 88}, {"note": 76, "velocity": 89, "duration": 965}, {"note": 0, "velocity": 0, "duration": 235}, {"note": 76, "velocity": 84, "duration": 177}, {"note": 0, "velocity": 0, "duration": 63}, {"note": 74, "velocity": 87, "duration": 178}, {"note": 0, "velocity": 0, "duration": 62}, {"note": 72, "velocity": 84, "duration": 150}, {"note": 0, "velocity": 0, "duration": 90}, {"note": 69, "velocity": 87, "duration": 156}, {"note": 0, "velocity": 0, "duration": 84}, {"note": 72, "velocity": 83, "duration": 167}, {"note": 0, "velocity": 0, "duration": 73}, {"note": 76, "velocity": 85, "duration": 174}, {"note": 0, "velocity": 0, "duration": 66}, {"note": 74, "velocity": 90, "duration": 384}, {"note": 0, "velocity": 0, "duration": 96}, {"note": 72, "velocity": 84, "duration": 180}, {"note": 74, "velocity": 90, "duration": 180}, {"note": 76, "velocity": 85, "duration": 449}, {"note": 79, "velocity": 84, "duration": 419}, {"note": 0, "velocity": 0, "duration": 61}, {"note": 81, "velocity": 84, "duration": 372}, {"note": 0, "velocity": 0, "duration": 108}, {"note": 76, "velocity": 86, "duration": 160}, {"note": 0, "velocity": 0, "duration": 80}, {"note": 74, "velocity": 85, "duration": 179}, {"note": 0, "velocity": 0, "duration": 61}, {"note": 72, "velocity": 85, "duration": 376}, {"note": 0, "velocity": 0, "duration": 104}, {"note": 72, "velocity": 84, "duration": 177}, {"note": 0, "velocity": 0, "duration": 63}, {"note": 76, "velocity": 85, "duration": 160}, {"note": 0, "velocity": 0, "duration": 80}, {"note": 74, "velocity": 89, "duration": 384}, {"note": 0, "velocity": 0, "duration": 96}, {"note": 72, "velocity": 83, "duration": 180}, {"note": 71, "velocity": 84, "duration": 201}, {"note": 69, "velocity": 85, "duration": 1356}, {"note": 0, "velocity": 0, "duration": 564}, {"note": 76, "velocity": 89, "duration": 404}, {"note": 0, "velocity": 0, "duration": 76}, {"note": 76, "velocity": 86, "duration": 188}, {"note": 74, "velocity": 86, "duration": 160}, {"note": 0, "velocity": 0, "duration": 80}, {"note": 74, "velocity": 89, "duration": 554}, {"note": 0, "velocity": 0, "duration": 166}, {"note": 69, "velocity": 86, "duration": 175}, {"note": 0, "velocity": 0, "duration": 65}, {"note": 72, "velocity": 85, "duration": 433}, {"note": 72, "velocity": 85, "duration": 163}, {"note": 0, "velocity": 0, "duration": 77}, {"note": 74, "velocity": 85, "duration": 177}, {"note": 0, "velocity": 0, "duration": 63}, {"note": 74, "velocity": 88, "duration": 397}, {"note": 0, "velocity": 0, "duration": 83}, {"note": 72, "velocity": 80, "duration": 177}, {"note": 0, "velocity": 0, "duration": 63}, {"note": 71, "velocity": 84, "duration": 180}, {"note": 69, "velocity": 84, "duration": 365}, {"note": 0, "velocity": 0, "duration": 115}, {"note": 72, "velocity": 85, "duration": 434}, {"note": 74, "velocity": 87, "duration": 180}, {"note": 74, "velocity": 87, "duration": 176}, {"note": 0, "velocity": 0, "duration": 64}, {"note": 72, "velocity": 85, "duration": 173}, {"note": 0, "velocity": 0, "duration": 67}, {"note": 74, "velocity": 87, "duration": 170}, {"note": 0, "velocity": 0, "duration": 70}, {"note": 76, "velocity": 84, "duration": 404}, {"note": 0, "velocity": 0, "duration": 76}, {"note": 76, "velocity": 84, "duration": 160}, {"note": 0, "velocity": 0, "duration": 80}, {"note": 74, "velocity": 84, "duration": 170}, {"note": 0, "velocity": 0, "duration": 70}, {"note": 74, "velocity": 89, "duration": 756}, {"note": 0, "velocity": 0, "duration": 204}, {"note": 76, "velocity": 88, "duration": 177}, {"note": 0, "velocity": 0, "duration": 63}, {"note": 76, "velocity": 87, "duration": 153}, {"note": 0, "velocity": 0, "duration": 87}, {"note": 76, "velocity": 87, "duration": 169}, {"note": 0, "velocity": 0, "duration": 71}, {"note": 79, "velocity": 79, "duration": 176}, {"note": 0, "velocity": 0, "duration": 64}, {"note": 79, "velocity": 84, "duration": 596}, {"note": 0, "velocity": 0, "duration": 124}, {"note": 79, "velocity": 83, "duration": 184}, {"note": 81, "velocity": 79, "duration": 167}, {"note": 0, "velocity": 0, "duration": 73}, {"note": 76, "velocity": 82, "duration": 180}, {"note": 76, "velocity": 86, "duration": 191}, {"note": 74, "velocity": 85, "duration": 180}, {"note": 76, "velocity": 85, "duration": 420}, {"note": 0, "velocity": 0, "duration": 540}, {"note": 76, "velocity": 87, "duration": 156}, {"note": 0, "velocity": 0, "duration": 84}, {"note": 76, "velocity": 85, "duration": 132}, {"note": 0, "velocity": 0, "duration": 108}, {"note": 76, "velocity": 79, "duration": 117}, {"note": 0, "velocity": 0, "duration": 123}, {"note": 79, "velocity": 87, "duration": 156}, {"note": 0, "velocity": 0, "duration": 84}, {"note": 79, "velocity": 85, "duration": 132}, {"note": 0, "velocity": 0, "duration": 108}, {"note": 79, "velocity": 79, "duration": 117}, {"note": 0, "velocity": 0, "duration": 123}, {"note": 79, "velocity": 85, "duration": 157}, {"note": 0, "velocity": 0, "duration": 83}, {"note": 81, "velocity": 85, "duration": 392}, {"note": 0, "velocity": 0, "duration": 88}, {"note": 76, "velocity": 89, "duration": 965}, {"note": 0, "velocity": 0, "duration": 235}, {"note": 76, "velocity": 84, "duration": 177}, {"note": 0, "velocity": 0, "duration": 63}, {"note": 74, "velocity": 87, "duration": 178}, {"note": 0, "velocity": 0, "duration": 62}, {"note": 72, "velocity": 84, "duration": 150}, {"note": 0, "velocity": 0, "duration": 90}, {"note": 69, "velocity": 87, "duration": 156}, {"note": 0, "velocity": 0, "duration": 84}, {"note": 72, "velocity": 83, "duration": 167}, {"note": 0, "velocity": 0, "duration": 73}, {"note": 76, "velocity": 85, "duration": 174}, {"note": 0, "velocity": 0, "duration": 66}, {"note": 74, "velocity": 90, "duration": 384}, {"note": 0, "velocity": 0, "duration": 96}, {"note": 72, "velocity": 84, "duration": 180}, {"note": 74, "velocity": 90, "duration": 180}, {"note": 76, "velocity": 85, "duration": 449}, {"note": 79, "velocity": 84, "duration": 419}, {"note": 0, "velocity": 0, "duration": 61}, {"note": 81, "velocity": 84, "duration": 372}, {"note": 0, "velocity": 0, "duration": 108}, {"note": 76, "velocity": 86, "duration": 160}, {"note": 0, "velocity": 0, "duration": 80}, {"note": 74, "velocity": 85, "duration": 179}, {"note": 0, "velocity": 0, "duration": 61}, {"note": 72, "velocity": 85, "duration": 376}, {"note": 0, "velocity": 0, "duration": 104}, {"note": 72, "velocity": 84, "duration": 177}, {"note": 0, "velocity": 0, "duration": 63}, {"note": 76, "velocity": 85, "duration": 160}, {"note": 0, "velocity": 0, "duration": 80}, {"note": 74, "velocity": 89, "duration": 384}, {"note": 0, "velocity": 0, "duration": 96}, {"note": 72, "velocity": 83, "duration": 180}, {"note": 71, "velocity": 84, "duration": 201}, {"note": 69, "velocity": 85, "duration": 1356}, {"note": 0, "velocity": 0, "duration": 564}, {"note": 74, "velocity": 99, "duration": 814}, {"note": 0, "velocity": 0, "duration": 146}, {"note": 72, "velocity": 85, "duration": 571}, {"note": 0, "velocity": 0, "duration": 149}, {"note": 76, "velocity": 88, "duration": 186}, {"note": 79, "velocity": 87, "duration": 198}, {"note": 76, "velocity": 90, "duration": 1330}, {"note": 0, "velocity": 0, "duration": 350}, {"note": 74, "velocity": 86, "duration": 962}, {"note": 0, "velocity": 0, "duration": 238}, {"note": 72, "velocity": 83, "duration": 182}, {"note": 71, "velocity": 85, "duration": 257}, {"note": 69, "velocity": 83, "duration": 173}, {"note": 0, "velocity": 0, "duration": 67}, {"note": 69, "velocity": 85, "duration": 1490}, {"note": 0, "velocity": 0, "duration": 430}, {"note": 74, "velocity": 99, "duration": 480}, {"note": 0, "velocity": 0, "duration": 240}, {"note": 74, "velocity": 85, "duration": 203}, {"note": 72, "velocity": 87, "duration": 407}, {"note": 0, "velocity": 0, "duration": 73}, {"note": 74, "velocity": 87, "duration": 413}, {"note": 0, "velocity": 0, "duration": 67}, {"note": 76, "velocity": 90, "duration": 402}, {"note": 0, "velocity": 0, "duration": 78}, {"note": 79, "velocity": 86, "duration": 421}, {"note": 81, "velocity": 85, "duration": 502}, {"note": 0, "velocity": 0, "duration": 218}, {"note": 84, "velocity": 87, "duration": 132}, {"note": 0, "velocity": 0, "duration": 108}, {"note": 84, "velocity": 89, "duration": 871}, {"note": 0, "velocity": 0, "duration": 89}, {"note": 83, "velocity": 84, "duration": 655}, {"note": 0, "velocity": 0, "duration": 65}, {"note": 84, "velocity": 88, "duration": 211}, {"note": 83, "velocity": 86, "duration": 203}, {"note": 81, "velocity": 83, "duration": 1200}, {"note": 0, "velocity": 0, "duration": 4320}, {"note": 76, "velocity": 89, "duration": 404}, {"note": 0, "velocity": 0, "duration": 76}, {"note": 76, "velocity": 86, "duration": 188}, {"note": 74, "velocity": 86, "duration": 160}, {"note": 0, "velocity": 0, "duration": 80}, {"note": 74, "velocity": 89, "duration": 554}, {"note": 0, "velocity": 0, "duration": 166}, {"note": 69, "velocity": 86, "duration": 175}, {"note": 0, "velocity": 0, "duration": 65}, {"note": 72, "velocity": 85, "duration": 433}, {"note": 72, "velocity": 85, "duration": 163}, {"note": 0, "velocity": 0, "duration": 77}, {"note": 74, "velocity": 85, "duration": 177}, {"note": 0, "velocity": 0, "duration": 63}, {"note": 74, "velocity": 88, "duration": 397}, {"note": 0, "velocity": 0, "duration": 83}, {"note": 72, "velocity": 80, "duration": 177}, {"note": 0, "velocity": 0, "duration": 63}, {"note": 71, "velocity": 84, "duration": 180}, {"note": 69, "velocity": 84, "duration": 365}, {"note": 0, "velocity": 0, "duration": 115}, {"note": 72, "velocity": 85, "duration": 434}, {"note": 74, "velocity": 87, "duration": 180}, {"note": 74, "velocity": 87, "duration": 176}, {"note": 0, "velocity": 0, "duration": 64}, {"note": 72, "velocity": 85, "duration": 173}, {"note": 0, "velocity": 0, "duration": 67}, {"note": 74, "velocity": 87, "duration": 170}, {"note": 0, "velocity": 0, "duration": 70}, {"note": 76, "velocity": 84, "duration": 404}, {"note": 0, "velocity": 0, "duration": 76}, {"note": 76, "velocity": 84, "duration": 160}, {"note": 0, "velocity": 0, "duration": 80}, {"note": 74, "velocity": 84, "duration": 170}, {"note": 0, "velocity": 0, "duration": 70}, {"note": 74, "velocity": 89, "duration": 756}, {"note": 0, "velocity": 0, "duration": 204}, {"note": 76, "velocity": 88, "duration": 177}, {"note": 0, "velocity": 0, "duration": 63}, {"note": 76, "velocity": 87, "duration": 153}, {"note": 0, "velocity": 0, "duration": 87}, {"note": 76, "velocity": 87, "duration": 169}, {"note": 0, "velocity": 0, "duration": 71}, {"note": 79, "velocity": 79, "duration": 176}, {"note": 0, "velocity": 0, "duration": 64}, {"note": 79, "velocity": 84, "duration": 596}, {"note": 0, "velocity": 0, "duration": 124}, {"note": 79, "velocity": 83, "duration": 184}, {"note": 81, "velocity": 79, "duration": 167}, {"note": 0, "velocity": 0, "duration": 73}, {"note": 76, "velocity": 82, "duration": 180}, {"note": 76, "velocity": 86, "duration": 191}, {"note": 74, "velocity": 85, "duration": 180}, {"note": 76, "velocity": 85, "duration": 420}, {"note": 0, "velocity": 0, "duration": 543}, {"note": 76, "velocity": 87, "duration": 156}, {"note": 0, "velocity": 0, "duration": 84}, {"note": 76, "velocity": 85, "duration": 132}, {"note": 0, "velocity": 0, "duration": 108}, {"note": 76, "velocity": 79, "duration": 117}, {"note": 0, "velocity": 0, "duration": 120}, {"note": 79, "velocity": 87, "duration": 156}, {"note": 0, "velocity": 0, "duration": 84}, {"note": 79, "velocity": 85, "duration": 132}, {"note": 0, "velocity": 0, "duration": 108}, {"note": 79, "velocity": 79, "duration": 117}, {"note": 0, "velocity": 0, "duration": 123}, {"note": 79, "velocity": 85, "duration": 157}, {"note": 0, "velocity": 0, "duration": 83}, {"note": 81, "velocity": 85, "duration": 392}, {"note": 0, "velocity": 0, "duration": 88}, {"note": 76, "velocity": 89, "duration": 965}, {"note": 0, "velocity": 0, "duration": 235}, {"note": 76, "velocity": 84, "duration": 177}, {"note": 0, "velocity": 0, "duration": 63}, {"note": 74, "velocity": 87, "duration": 178}, {"note": 0, "velocity": 0, "duration": 62}, {"note": 72, "velocity": 84, "duration": 150}, {"note": 0, "velocity": 0, "duration": 90}, {"note": 69, "velocity": 87, "duration": 156}, {"note": 0, "velocity": 0, "duration": 84}, {"note": 72, "velocity": 83, "duration": 167}, {"note": 0, "velocity": 0, "duration": 73}, {"note": 76, "velocity": 85, "duration": 174}, {"note": 0, "velocity": 0, "duration": 66}, {"note": 74, "velocity": 90, "duration": 384}, {"note": 0, "velocity": 0, "duration": 96}, {"note": 72, "velocity": 84, "duration": 180}, {"note": 74, "velocity": 90, "duration": 180}, {"note": 76, "velocity": 85, "duration": 449}, {"note": 79, "velocity": 84, "duration": 419}, {"note": 0, "velocity": 0, "duration": 61}, {"note": 81, "velocity": 84, "duration": 372}, {"note": 0, "velocity": 0, "duration": 108}, {"note": 76, "velocity": 86, "duration": 160}, {"note": 0, "velocity": 0, "duration": 80}, {"note": 74, "velocity": 85, "duration": 179}, {"note": 0, "velocity": 0, "duration": 61}, {"note": 72, "velocity": 85, "duration": 376}, {"note": 0, "velocity": 0, "duration": 104}, {"note": 72, "velocity": 84, "duration": 177}, {"note": 0, "velocity": 0, "duration": 63}, {"note": 76, "velocity": 85, "duration": 160}, {"note": 0, "velocity": 0, "duration": 80}, {"note": 74, "velocity": 89, "duration": 384}, {"note": 0, "velocity": 0, "duration": 96}, {"note": 72, "velocity": 83, "duration": 180}, {"note": 71, "velocity": 84, "duration": 201}, {"note": 69, "velocity": 85, "duration": 1356}, {"note": 0, "velocity": 0, "duration": 15924}, {"note": 76, "velocity": 89, "duration": 404}, {"note": 0, "velocity": 0, "duration": 76}, {"note": 76, "velocity": 86, "duration": 188}, {"note": 74, "velocity": 86, "duration": 160}, {"note": 0, "velocity": 0, "duration": 80}, {"note": 74, "velocity": 89, "duration": 554}, {"note": 0, "velocity": 0, "duration": 166}, {"note": 69, "velocity": 86, "duration": 175}, {"note": 0, "velocity": 0, "duration": 65}, {"note": 72, "velocity": 85, "duration": 433}, {"note": 72, "velocity": 85, "duration": 163}, {"note": 0, "velocity": 0, "duration": 77}, {"note": 74, "velocity": 85, "duration": 177}, {"note": 0, "velocity": 0, "duration": 63}, {"note": 74, "velocity": 88, "duration": 397}, {"note": 0, "velocity": 0, "duration": 83}, {"note": 72, "velocity": 80, "duration": 177}, {"note": 0, "velocity": 0, "duration": 63}, {"note": 71, "velocity": 84, "duration": 180}, {"note": 69, "velocity": 84, "duration": 365}, {"note": 0, "velocity": 0, "duration": 115}, {"note": 72, "velocity": 85, "duration": 434}, {"note": 74, "velocity": 87, "duration": 180}, {"note": 74, "velocity": 87, "duration": 176}, {"note": 0, "velocity": 0, "duration": 64}, {"note": 72, "velocity": 85, "duration": 173}, {"note": 0, "velocity": 0, "duration": 67}, {"note": 74, "velocity": 87, "duration": 170}, {"note": 0, "velocity": 0, "duration": 70}, {"note": 76, "velocity": 84, "duration": 404}, {"note": 0, "velocity": 0, "duration": 76}, {"note": 76, "velocity": 84, "duration": 160}, {"note": 0, "velocity": 0, "duration": 80}, {"note": 74, "velocity": 84, "duration": 170}, {"note": 0, "velocity": 0, "duration": 70}, {"note": 74, "velocity": 89, "duration": 756}, {"note": 0, "velocity": 0, "duration": 204}, {"note": 76, "velocity": 88, "duration": 177}, {"note": 0, "velocity": 0, "duration": 63}, {"note": 76, "velocity": 87, "duration": 153}, {"note": 0, "velocity": 0, "duration": 87}, {"note": 76, "velocity": 87, "duration": 169}, {"note": 0, "velocity": 0, "duration": 71}, {"note": 79, "velocity": 79, "duration": 176}, {"note": 0, "velocity": 0, "duration": 64}, {"note": 79, "velocity": 84, "duration": 596}, {"note": 0, "velocity": 0, "duration": 124}, {"note": 79, "velocity": 83, "duration": 184}, {"note": 81, "velocity": 79, "duration": 167}, {"note": 0, "velocity": 0, "duration": 73}, {"note": 76, "velocity": 82, "duration": 180}, {"note": 76, "velocity": 86, "duration": 191}, {"note": 74, "velocity": 85, "duration": 180}, {"note": 76, "velocity": 85, "duration": 420}, {"note": 0, "velocity": 0, "duration": 540}, {"note": 76, "velocity": 97, "duration": 624}, {"note": 0, "velocity": 0, "duration": 96}, {"note": 79, "velocity": 87, "duration": 156}, {"note": 0, "velocity": 0, "duration": 84}, {"note": 79, "velocity": 85, "duration": 132}, {"note": 0, "velocity": 0, "duration": 108}, {"note": 79, "velocity": 79, "duration": 117}, {"note": 0, "velocity": 0, "duration": 123}, {"note": 79, "velocity": 85, "duration": 157}, {"note": 0, "velocity": 0, "duration": 83}, {"note": 81, "velocity": 85, "duration": 392}, {"note": 0, "velocity": 0, "duration": 88}, {"note": 76, "velocity": 89, "duration": 965}, {"note": 0, "velocity": 0, "duration": 235}, {"note": 76, "velocity": 84, "duration": 177}, {"note": 0, "velocity": 0, "duration": 63}, {"note": 74, "velocity": 87, "duration": 178}, {"note": 0, "velocity": 0, "duration": 62}, {"note": 72, "velocity": 84, "duration": 150}, {"note": 0, "velocity": 0, "duration": 90}, {"note": 69, "velocity": 87, "duration": 156}, {"note": 0, "velocity": 0, "duration": 84}, {"note": 72, "velocity": 83, "duration": 167}, {"note": 0, "velocity": 0, "duration": 73}, {"note": 76, "velocity": 85, "duration": 174}, {"note": 0, "velocity": 0, "duration": 66}, {"note": 74, "velocity": 90, "duration": 384}, {"note": 0, "velocity": 0, "duration": 96}, {"note": 72, "velocity": 84, "duration": 180}, {"note": 74, "velocity": 90, "duration": 180}, {"note": 76, "velocity": 85, "duration": 449}, {"note": 79, "velocity": 84, "duration": 419}, {"note": 0, "velocity": 0, "duration": 61}, {"note": 81, "velocity": 84, "duration": 372}, {"note": 0, "velocity": 0, "duration": 108}, {"note": 76, "velocity": 86, "duration": 160}, {"note": 0, "velocity": 0, "duration": 80}, {"note": 74, "velocity": 85, "duration": 179}, {"note": 0, "velocity": 0, "duration": 61}, {"note": 72, "velocity": 85, "duration": 376}, {"note": 0, "velocity": 0, "duration": 104}, {"note": 72, "velocity": 84, "duration": 177}, {"note": 0, "velocity": 0, "duration": 63}, {"note": 76, "velocity": 85, "duration": 160}, {"note": 0, "velocity": 0, "duration": 80}, {"note": 74, "velocity": 89, "duration": 384}, {"note": 0, "velocity": 0, "duration": 96}, {"note": 72, "velocity": 83, "duration": 180}, {"note": 71, "velocity": 84, "duration": 201}, {"note": 69, "velocity": 85, "duration": 1356}, {"note": 0, "velocity": 0, "duration": 564}, {"note": 74, "velocity": 99, "duration": 814}, {"note": 0, "velocity": 0, "duration": 146}, {"note": 72, "velocity": 85, "duration": 571}, {"note": 0, "velocity": 0, "duration": 149}, {"note": 76, "velocity": 88, "duration": 186}, {"note": 79, "velocity": 87, "duration": 198}, {"note": 76, "velocity": 90, "duration": 1330}, {"note": 0, "velocity": 0, "duration": 350}, {"note": 74, "velocity": 86, "duration": 962}, {"note": 0, "velocity": 0, "duration": 238}, {"note": 72, "velocity": 83, "duration": 182}, {"note": 71, "velocity": 85, "duration": 257}, {"note": 69, "velocity": 83, "duration": 173}, {"note": 0, "velocity": 0, "duration": 67}, {"note": 69, "velocity": 85, "duration": 1490}, {"note": 0, "velocity": 0, "duration": 430}, {"note": 74, "velocity": 99, "duration": 480}, {"note": 0, "velocity": 0, "duration": 240}, {"note": 74, "velocity": 85, "duration": 203}, {"note": 72, "velocity": 87, "duration": 407}, {"note": 0, "velocity": 0, "duration": 73}, {"note": 74, "velocity": 87, "duration": 413}, {"note": 0, "velocity": 0, "duration": 67}, {"note": 76, "velocity": 90, "duration": 402}, {"note": 0, "velocity": 0, "duration": 78}, {"note": 79, "velocity": 86, "duration": 421}, {"note": 81, "velocity": 85, "duration": 502}, {"note": 0, "velocity": 0, "duration": 218}, {"note": 84, "velocity": 87, "duration": 132}, {"note": 0, "velocity": 0, "duration": 108}, {"note": 84, "velocity": 89, "duration": 871}, {"note": 0, "velocity": 0, "duration": 89}, {"note": 83, "velocity": 84, "duration": 655}, {"note": 0, "velocity": 0, "duration": 65}, {"note": 84, "velocity": 88, "duration": 211}, {"note": 83, "velocity": 86, "duration": 203}, {"note": 81, "velocity": 83, "duration": 1200}, {"note": 0, "velocity": 0, "duration": 480}, {"note": 74, "velocity": 99, "duration": 480}, {"note": 0, "velocity": 0, "duration": 240}, {"note": 74, "velocity": 85, "duration": 203}, {"note": 72, "velocity": 87, "duration": 407}, {"note": 0, "velocity": 0, "duration": 73}, {"note": 74, "velocity": 87, "duration": 413}, {"note": 0, "velocity": 0, "duration": 67}, {"note": 76, "velocity": 90, "duration": 402}, {"note": 0, "velocity": 0, "duration": 78}, {"note": 79, "velocity": 86, "duration": 421}, {"note": 81, "velocity": 85, "duration": 502}, {"note": 0, "velocity": 0, "duration": 218}, {"note": 84, "velocity": 87, "duration": 132}, {"note": 0, "velocity": 0, "duration": 108}, {"note": 84, "velocity": 89, "duration": 871}, {"note": 0, "velocity": 0, "duration": 89}, {"note": 83, "velocity": 84, "duration": 655}, {"note": 0, "velocity": 0, "duration": 65}, {"note": 84, "velocity": 88, "duration": 211}, {"note": 83, "velocity": 86, "duration": 203}, {"note": 81, "velocity": 83, "duration": 1200}]]