[[{"note": 69, "velocity": 88, "duration": 186}, {"note": 76, "velocity": 84, "duration": 84}, {"note": 76, "velocity": 84, "duration": 303}, {"note": 76, "velocity": 86, "duration": 98}, {"note": 74, "velocity": 83, "duration": 70}, {"note": 76, "velocity": 83, "duration": 770}, {"note": 0, "velocity": 0, "duration": 190}, {"note": 71, "velocity": 83, "duration": 188}, {"note": 71, "velocity": 83, "duration": 187}, {"note": 69, "velocity": 82, "duration": 232}, {"note": 67, "velocity": 79, "duration": 241}, {"note": 69, "velocity": 82, "duration": 777}, {"note": 0, "velocity": 0, "duration": 183}, {"note": 69, "velocity": 84, "duration": 184}, {"note": 74, "velocity": 87, "duration": 158}, {"note": 0, "velocity": 0, "duration": 82}, {"note": 74, "velocity": 87, "duration": 216}, {"note": 69, "velocity": 84, "duration": 222}, {"note": 74, "velocity": 85, "duration": 254}, {"note": 76, "velocity": 82, "duration": 257}, {"note": 74, "velocity": 83, "duration": 433}, {"note": 72, "velocity": 85, "duration": 261}, {"note": 69, "velocity": 80, "duration": 254}, {"note": 72, "velocity": 83, "duration": 230}, {"note": 76, "velocity": 84, "duration": 176}, {"note": 0, "velocity": 0, "duration": 64}, {"note": 76, "velocity": 84, "duration": 843}, {"note": 0, "velocity": 0, "duration": 117}, {"note": 76, "velocity": 86, "duration": 198}, {"note": 81, "velocity": 87, "duration": 160}, {"note": 0, "velocity": 0, "duration": 80}, {"note": 81, "velocity": 84, "duration": 205}, {"note": 74, "velocity": 88, "duration": 185}, {"note": 76, "velocity": 93, "duration": 417}, {"note": 0, "velocity": 0, "duration": 63}, {"note": 74, "velocity": 86, "duration": 380}, {"note": 0, "velocity": 0, "duration": 100}, {"note": 76, "velocity": 84, "duration": 197}, {"note": 79, "velocity": 85, "duration": 168}, {"note": 0, "velocity": 0, "duration": 72}, {"note": 79, "velocity": 84, "duration": 185}, {"note": 74, "velocity": 86, "duration": 66}, {"note": 76, "velocity": 88, "duration": 114}, {"note": 72, "velocity": 83, "duration": 796}, {"note": 0, "velocity": 0, "duration": 164}, {"note": 74, "velocity": 85, "duration": 285}, {"note": 0, "velocity": 0, "duration": 75}, {"note": 74, "velocity": 87, "duration": 73}, {"note": 74, "velocity": 87, "duration": 185}, {"note": 69, "velocity": 84, "duration": 90}, {"note": 69, "velocity": 84, "duration": 85}, {"note": 74, "velocity": 86, "duration": 334}, {"note": 76, "velocity": 80, "duration": 137}, {"note": 74, "velocity": 86, "duration": 409}, {"note": 0, "velocity": 0, "duration": 71}, {"note": 67, "velocity": 82, "duration": 198}, {"note": 69, "velocity": 83, "duration": 220}, {"note": 72, "velocity": 82, "duration": 235}, {"note": 71, "velocity": 80, "duration": 256}, {"note": 69, "velocity": 81, "duration": 924}, {"note": 69, "velocity": 88, "duration": 186}, {"note": 76, "velocity": 84, "duration": 84}, {"note": 76, "velocity": 84, "duration": 303}, {"note": 76, "velocity": 86, "duration": 98}, {"note": 74, "velocity": 83, "duration": 70}, {"note": 76, "velocity": 83, "duration": 770}, {"note": 0, "velocity": 0, "duration": 190}, {"note": 71, "velocity": 83, "duration": 188}, {"note": 71, "velocity": 83, "duration": 187}, {"note": 69, "velocity": 82, "duration": 232}, {"note": 67, "velocity": 79, "duration": 241}, {"note": 69, "velocity": 82, "duration": 777}, {"note": 0, "velocity": 0, "duration": 183}, {"note": 69, "velocity": 84, "duration": 184}, {"note": 74, "velocity": 87, "duration": 158}, {"note": 0, "velocity": 0, "duration": 82}, {"note": 74, "velocity": 87, "duration": 216}, {"note": 69, "velocity": 84, "duration": 222}, {"note": 74, "velocity": 85, "duration": 254}, {"note": 76, "velocity": 82, "duration": 257}, {"note": 74, "velocity": 83, "duration": 433}, {"note": 72, "velocity": 85, "duration": 261}, {"note": 69, "velocity": 80, "duration": 254}, {"note": 72, "velocity": 83, "duration": 230}, {"note": 76, "velocity": 84, "duration": 176}, {"note": 0, "velocity": 0, "duration": 64}, {"note": 76, "velocity": 84, "duration": 843}, {"note": 0, "velocity": 0, "duration": 117}, {"note": 76, "velocity": 86, "duration": 198}, {"note": 81, "velocity": 87, "duration": 160}, {"note": 0, "velocity": 0, "duration": 80}, {"note": 81, "velocity": 84, "duration": 205}, {"note": 74, "velocity": 88, "duration": 185}, {"note": 76, "velocity": 93, "duration": 417}, {"note": 0, "velocity": 0, "duration": 63}, {"note": 74, "velocity": 86, "duration": 380}, {"note": 0, "velocity": 0, "duration": 100}, {"note": 76, "velocity": 84, "duration": 197}, {"note": 79, "velocity": 85, "duration": 168}, {"note": 0, "velocity": 0, "duration": 72}, {"note": 79, "velocity": 84, "duration": 185}, {"note": 74, "velocity": 86, "duration": 66}, {"note": 76, "velocity": 88, "duration": 114}, {"note": 72, "velocity": 83, "duration": 796}, {"note": 0, "velocity": 0, "duration": 164}, {"note": 74, "velocity": 85, "duration": 285}, {"note": 0, "velocity": 0, "duration": 75}, {"note": 74, "velocity": 87, "duration": 73}, {"note": 74, "velocity": 87, "duration": 185}, {"note": 69, "velocity": 84, "duration": 90}, {"note": 69, "velocity": 84, "duration": 85}, {"note": 74, "velocity": 86, "duration": 334}, {"note": 76, "velocity": 80, "duration": 137}, {"note": 74, "velocity": 86, "duration": 409}, {"note": 0, "velocity": 0, "duration": 71}, {"note": 67, "velocity": 82, "duration": 198}, {"note": 69, "velocity": 83, "duration": 220}, {"note": 72, "velocity": 82, "duration": 235}, {"note": 71, "velocity": 80, "duration": 256}, {"note": 69, "velocity": 81, "duration": 924}, {"note": 76, "velocity": 93, "duration": 450}, {"note": 81, "velocity": 89, "duration": 455}, {"note": 81, "velocity": 86, "duration": 798}, {"note": 0, "velocity": 0, "duration": 162}, {"note": 79, "velocity": 86, "duration": 193}, {"note": 81, "velocity": 88, "duration": 196}, {"note": 83, "velocity": 86, "duration": 244}, {"note": 79, "velocity": 85, "duration": 118}, {"note": 81, "velocity": 87, "duration": 71}, {"note": 81, "velocity": 83, "duration": 756}, {"note": 0, "velocity": 0, "duration": 204}, {"note": 76, "velocity": 88, "duration": 215}, {"note": 81, "velocity": 83, "duration": 160}, {"note": 0, "velocity": 0, "duration": 80}, {"note": 81, "velocity": 84, "duration": 170}, {"note": 0, "velocity": 0, "duration": 70}, {"note": 83, "velocity": 84, "duration": 185}, {"note": 81, "velocity": 83, "duration": 435}, {"note": 79, "velocity": 83, "duration": 394}, {"note": 0, "velocity": 0, "duration": 86}, {"note": 74, "velocity": 89, "duration": 183}, {"note": 76, "velocity": 89, "duration": 180}, {"note": 79, "velocity": 86, "duration": 190}, {"note": 78, "velocity": 83, "duration": 203}, {"note": 76, "velocity": 86, "duration": 895}, {"note": 0, "velocity": 0, "duration": 65}, {"note": 69, "velocity": 83, "duration": 418}, {"note": 0, "velocity": 0, "duration": 62}, {"note": 74, "velocity": 86, "duration": 238}, {"note": 76, "velocity": 83, "duration": 259}, {"note": 74, "velocity": 83, "duration": 831}, {"note": 0, "velocity": 0, "duration": 129}, {"note": 79, "velocity": 84, "duration": 196}, {"note": 76, "velocity": 84, "duration": 451}, {"note": 74, "velocity": 85, "duration": 235}, {"note": 76, "velocity": 85, "duration": 126}, {"note": 74, "velocity": 82, "duration": 141}, {"note": 72, "velocity": 82, "duration": 608}, {"note": 0, "velocity": 0, "duration": 112}, {"note": 74, "velocity": 84, "duration": 273}, {"note": 0, "velocity": 0, "duration": 87}, {"note": 74, "velocity": 86, "duration": 80}, {"note": 74, "velocity": 89, "duration": 216}, {"note": 76, "velocity": 83, "duration": 188}, {"note": 74, "velocity": 83, "duration": 380}, {"note": 76, "velocity": 84, "duration": 118}, {"note": 74, "velocity": 84, "duration": 405}, {"note": 0, "velocity": 0, "duration": 75}, {"note": 76, "velocity": 84, "duration": 188}, {"note": 74, "velocity": 85, "duration": 437}, {"note": 67, "velocity": 83, "duration": 185}, {"note": 69, "velocity": 84, "duration": 874}, {"note": 0, "velocity": 0, "duration": 86}, {"note": 76, "velocity": 93, "duration": 450}, {"note": 81, "velocity": 89, "duration": 455}, {"note": 81, "velocity": 86, "duration": 798}, {"note": 0, "velocity": 0, "duration": 162}, {"note": 79, "velocity": 86, "duration": 193}, {"note": 81, "velocity": 88, "duration": 196}, {"note": 83, "velocity": 86, "duration": 244}, {"note": 79, "velocity": 85, "duration": 118}, {"note": 81, "velocity": 87, "duration": 71}, {"note": 81, "velocity": 83, "duration": 756}, {"note": 0, "velocity": 0, "duration": 204}, {"note": 76, "velocity": 88, "duration": 215}, {"note": 81, "velocity": 83, "duration": 120}, {"note": 81, "velocity": 83, "duration": 120}, {"note": 81, "velocity": 84, "duration": 170}, {"note": 0, "velocity": 0, "duration": 70}, {"note": 83, "velocity": 84, "duration": 185}, {"note": 81, "velocity": 83, "duration": 435}, {"note": 79, "velocity": 83, "duration": 394}, {"note": 0, "velocity": 0, "duration": 86}, {"note": 74, "velocity": 89, "duration": 183}, {"note": 76, "velocity": 89, "duration": 180}, {"note": 79, "velocity": 86, "duration": 190}, {"note": 78, "velocity": 83, "duration": 203}, {"note": 76, "velocity": 86, "duration": 895}, {"note": 0, "velocity": 0, "duration": 65}, {"note": 69, "velocity": 83, "duration": 418}, {"note": 0, "velocity": 0, "duration": 62}, {"note": 74, "velocity": 86, "duration": 238}, {"note": 76, "velocity": 83, "duration": 259}, {"note": 74, "velocity": 83, "duration": 831}, {"note": 0, "velocity": 0, "duration": 129}, {"note": 79, "velocity": 84, "duration": 196}, {"note": 76, "velocity": 84, "duration": 451}, {"note": 74, "velocity": 85, "duration": 235}, {"note": 76, "velocity": 85, "duration": 126}, {"note": 74, "velocity": 82, "duration": 141}, {"note": 72, "velocity": 82, "duration": 608}, {"note": 0, "velocity": 0, "duration": 112}, {"note": 74, "velocity": 84, "duration": 273}, {"note": 0, "velocity": 0, "duration": 87}, {"note": 74, "velocity": 86, "duration": 80}, {"note": 74, "velocity": 89, "duration": 216}, {"note": 76, "velocity": 83, "duration": 188}, {"note": 74, "velocity": 83, "duration": 380}, {"note": 76, "velocity": 84, "duration": 118}, {"note": 74, "velocity": 84, "duration": 405}, {"note": 0, "velocity": 0, "duration": 75}, {"note": 76, "velocity": 84, "duration": 188}, {"note": 74, "velocity": 85, "duration": 437}, {"note": 67, "velocity": 83, "duration": 185}, {"note": 69, "velocity": 84, "duration": 874}, {"note": 0, "velocity": 0, "duration": 15446}, {"note": 69, "velocity": 88, "duration": 186}, {"note": 76, "velocity": 84, "duration": 84}, {"note": 76, "velocity": 84, "duration": 303}, {"note": 76, "velocity": 86, "duration": 98}, {"note": 74, "velocity": 83, "duration": 70}, {"note": 76, "velocity": 83, "duration": 770}, {"note": 0, "velocity": 0, "duration": 190}, {"note": 71, "velocity": 83, "duration": 188}, {"note": 71, "velocity": 83, "duration": 187}, {"note": 69, "velocity": 82, "duration": 232}, {"note": 67, "velocity": 79, "duration": 241}, {"note": 69, "velocity": 82, "duration": 777}, {"note": 0, "velocity": 0, "duration": 183}, {"note": 69, "velocity": 84, "duration": 184}, {"note": 74, "velocity": 87, "duration": 158}, {"note": 0, "velocity": 0, "duration": 82}, {"note": 74, "velocity": 87, "duration": 216}, {"note": 69, "velocity": 84, "duration": 222}, {"note": 74, "velocity": 85, "duration": 254}, {"note": 76, "velocity": 82, "duration": 257}, {"note": 74, "velocity": 83, "duration": 433}, {"note": 72, "velocity": 85, "duration": 261}, {"note": 69, "velocity": 80, "duration": 254}, {"note": 72, "velocity": 83, "duration": 230}, {"note": 76, "velocity": 84, "duration": 176}, {"note": 0, "velocity": 0, "duration": 64}, {"note": 76, "velocity": 84, "duration": 843}, {"note": 0, "velocity": 0, "duration": 117}, {"note": 76, "velocity": 86, "duration": 198}, {"note": 81, "velocity": 87, "duration": 160}, {"note": 0, "velocity": 0, "duration": 80}, {"note": 81, "velocity": 84, "duration": 205}, {"note": 74, "velocity": 88, "duration": 185}, {"note": 76, "velocity": 93, "duration": 417}, {"note": 0, "velocity": 0, "duration": 63}, {"note": 74, "velocity": 86, "duration": 380}, {"note": 0, "velocity": 0, "duration": 100}, {"note": 76, "velocity": 84, "duration": 197}, {"note": 79, "velocity": 85, "duration": 168}, {"note": 0, "velocity": 0, "duration": 72}, {"note": 79, "velocity": 84, "duration": 185}, {"note": 74, "velocity": 86, "duration": 66}, {"note": 76, "velocity": 88, "duration": 114}, {"note": 72, "velocity": 83, "duration": 796}, {"note": 0, "velocity": 0, "duration": 164}, {"note": 74, "velocity": 85, "duration": 285}, {"note": 0, "velocity": 0, "duration": 75}, {"note": 74, "velocity": 87, "duration": 73}, {"note": 74, "velocity": 87, "duration": 185}, {"note": 69, "velocity": 84, "duration": 90}, {"note": 69, "velocity": 84, "duration": 85}, {"note": 74, "velocity": 86, "duration": 334}, {"note": 76, "velocity": 80, "duration": 137}, {"note": 74, "velocity": 86, "duration": 409}, {"note": 0, "velocity": 0, "duration": 71}, {"note": 67, "velocity": 82, "duration": 198}, {"note": 69, "velocity": 83, "duration": 220}, {"note": 72, "velocity": 82, "duration": 235}, {"note": 71, "velocity": 80, "duration": 256}, {"note": 69, "velocity": 81, "duration": 924}, {"note": 76, "velocity": 93, "duration": 450}, {"note": 81, "velocity": 89, "duration": 455}, {"note": 81, "velocity": 86, "duration": 798}, {"note": 0, "velocity": 0, "duration": 162}, {"note": 79, "velocity": 86, "duration": 193}, {"note": 81, "velocity": 88, "duration": 196}, {"note": 83, "velocity": 86, "duration": 244}, {"note": 79, "velocity": 85, "duration": 118}, {"note": 81, "velocity": 87, "duration": 71}, {"note": 81, "velocity": 83, "duration": 756}, {"note": 0, "velocity": 0, "duration": 204}, {"note": 76, "velocity": 88, "duration": 215}, {"note": 81, "velocity": 83, "duration": 160}, {"note": 0, "velocity": 0, "duration": 80}, {"note": 81, "velocity": 84, "duration": 170}, {"note": 0, "velocity": 0, "duration": 70}, {"note": 83, "velocity": 84, "duration": 185}, {"note": 81, "velocity": 83, "duration": 435}, {"note": 79, "velocity": 83, "duration": 394}, {"note": 0, "velocity": 0, "duration": 86}, {"note": 74, "velocity": 89, "duration": 183}, {"note": 76, "velocity": 89, "duration": 180}, {"note": 79, "velocity": 86, "duration": 190}, {"note": 78, "velocity": 83, "duration": 203}, {"note": 76, "velocity": 86, "duration": 895}, {"note": 0, "velocity": 0, "duration": 65}, {"note": 69, "velocity": 83, "duration": 418}, {"note": 0, "velocity": 0, "duration": 62}, {"note": 74, "velocity": 86, "duration": 238}, {"note": 76, "velocity": 83, "duration": 259}, {"note": 74, "velocity": 83, "duration": 831}, {"note": 0, "velocity": 0, "duration": 129}, {"note": 79, "velocity": 84, "duration": 196}, {"note": 76, "velocity": 84, "duration": 451}, {"note": 74, "velocity": 85, "duration": 235}, {"note": 76, "velocity": 85, "duration": 126}, {"note": 74, "velocity": 82, "duration": 141}, {"note": 72, "velocity": 82, "duration": 608}, {"note": 0, "velocity": 0, "duration": 112}, {"note": 74, "velocity": 84, "duration": 273}, {"note": 0, "velocity": 0, "duration": 87}, {"note": 74, "velocity": 86, "duration": 80}, {"note": 74, "velocity": 89, "duration": 216}, {"note": 76, "velocity": 83, "duration": 188}, {"note": 74, "velocity": 83, "duration": 380}, {"note": 76, "velocity": 84, "duration": 118}, {"note": 74, "velocity": 84, "duration": 405}, {"note": 0, "velocity": 0, "duration": 75}, {"note": 76, "velocity": 84, "duration": 188}, {"note": 74, "velocity": 85, "duration": 437}, {"note": 67, "velocity": 83, "duration": 185}, {"note": 69, "velocity": 84, "duration": 874}, {"note": 0, "velocity": 0, "duration": 86}, {"note": 76, "velocity": 93, "duration": 450}, {"note": 81, "velocity": 89, "duration": 455}, {"note": 81, "velocity": 86, "duration": 798}, {"note": 0, "velocity": 0, "duration": 162}, {"note": 79, "velocity": 86, "duration": 193}, {"note": 81, "velocity": 88, "duration": 196}, {"note": 83, "velocity": 86, "duration": 244}, {"note": 79, "velocity": 85, "duration": 118}, {"note": 81, "velocity": 87, "duration": 71}, {"note": 81, "velocity": 83, "duration": 756}, {"note": 0, "velocity": 0, "duration": 204}, {"note": 76, "velocity": 88, "duration": 215}, {"note": 81, "velocity": 83, "duration": 120}, {"note": 81, "velocity": 83, "duration": 120}, {"note": 81, "velocity": 84, "duration": 170}, {"note": 0, "velocity": 0, "duration": 70}, {"note": 83, "velocity": 84, "duration": 185}, {"note": 81, "velocity": 83, "duration": 435}, {"note": 79, "velocity": 83, "duration": 394}, {"note": 0, "velocity": 0, "duration": 86}, {"note": 74, "velocity": 89, "duration": 183}, {"note": 76, "velocity": 89, "duration": 180}, {"note": 79, "velocity": 86, "duration": 190}, {"note": 78, "velocity": 83, "duration": 203}, {"note": 76, "velocity": 86, "duration": 895}, {"note": 0, "velocity": 0, "duration": 65}, {"note": 69, "velocity": 83, "duration": 418}, {"note": 0, "velocity": 0, "duration": 62}, {"note": 74, "velocity": 86, "duration": 238}, {"note": 76, "velocity": 83, "duration": 259}, {"note": 74, "velocity": 83, "duration": 831}, {"note": 0, "velocity": 0, "duration": 129}, {"note": 79, "velocity": 84, "duration": 196}, {"note": 76, "velocity": 84, "duration": 451}, {"note": 74, "velocity": 85, "duration": 235}, {"note": 76, "velocity": 85, "duration": 126}, {"note": 74, "velocity": 82, "duration": 141}, {"note": 72, "velocity": 82, "duration": 608}, {"note": 0, "velocity": 0, "duration": 112}, {"note": 74, "velocity": 84, "duration": 273}, {"note": 0, "velocity": 0, "duration": 87}, {"note": 74, "velocity": 86, "duration": 80}, {"note": 74, "velocity": 89, "duration": 216}, {"note": 76, "velocity": 83, "duration": 188}, {"note": 74, "velocity": 83, "duration": 380}, {"note": 76, "velocity": 84, "duration": 118}, {"note": 74, "velocity": 84, "duration": 405}, {"note": 0, "velocity": 0, "duration": 75}, {"note": 76, "velocity": 84, "duration": 188}, {"note": 74, "velocity": 85, "duration": 437}, {"note": 67, "velocity": 83, "duration": 185}, {"note": 69, "velocity": 84, "duration": 874}, {"note": 0, "velocity": 0, "duration": 86}, {"note": 74, "velocity": 84, "duration": 273}, {"note": 0, "velocity": 0, "duration": 87}, {"note": 74, "velocity": 86, "duration": 80}, {"note": 74, "velocity": 89, "duration": 216}, {"note": 76, "velocity": 83, "duration": 188}, {"note": 74, "velocity": 83, "duration": 380}, {"note": 76, "velocity": 84, "duration": 118}, {"note": 74, "velocity": 84, "duration": 405}, {"note": 0, "velocity": 0, "duration": 75}, {"note": 79, "velocity": 86, "duration": 163}, {"note": 0, "velocity": 0, "duration": 77}, {"note": 79, "velocity": 89, "duration": 939}, {"note": 83, "velocity": 86, "duration": 490}, {"note": 81, "velocity": 86, "duration": 242}, {"note": 81, "velocity": 86, "duration": 2}]]