[[{"note": 68, "velocity": 86, "duration": 362}, {"note": 0, "velocity": 0, "duration": 118}, {"note": 68, "velocity": 81, "duration": 183}, {"note": 70, "velocity": 80, "duration": 193}, {"note": 73, "velocity": 84, "duration": 394}, {"note": 0, "velocity": 0, "duration": 86}, {"note": 70, "velocity": 83, "duration": 223}, {"note": 68, "velocity": 80, "duration": 155}, {"note": 0, "velocity": 0, "duration": 85}, {"note": 68, "velocity": 81, "duration": 1743}, {"note": 0, "velocity": 0, "duration": 177}, {"note": 68, "velocity": 74, "duration": 161}, {"note": 0, "velocity": 0, "duration": 79}, {"note": 68, "velocity": 79, "duration": 150}, {"note": 0, "velocity": 0, "duration": 90}, {"note": 68, "velocity": 81, "duration": 146}, {"note": 0, "velocity": 0, "duration": 94}, {"note": 70, "velocity": 85, "duration": 178}, {"note": 0, "velocity": 0, "duration": 62}, {"note": 73, "velocity": 83, "duration": 240}, {"note": 73, "velocity": 83, "duration": 240}, {"note": 70, "velocity": 80, "duration": 178}, {"note": 0, "velocity": 0, "duration": 62}, {"note": 68, "velocity": 80, "duration": 155}, {"note": 0, "velocity": 0, "duration": 85}, {"note": 65, "velocity": 80, "duration": 1459}, {"note": 0, "velocity": 0, "duration": 461}, {"note": 68, "velocity": 84, "duration": 192}, {"note": 68, "velocity": 84, "duration": 151}, {"note": 0, "velocity": 0, "duration": 89}, {"note": 68, "velocity": 82, "duration": 141}, {"note": 0, "velocity": 0, "duration": 99}, {"note": 70, "velocity": 84, "duration": 141}, {"note": 0, "velocity": 0, "duration": 99}, {"note": 73, "velocity": 84, "duration": 405}, {"note": 0, "velocity": 0, "duration": 75}, {"note": 70, "velocity": 80, "duration": 196}, {"note": 68, "velocity": 81, "duration": 161}, {"note": 0, "velocity": 0, "duration": 79}, {"note": 61, "velocity": 90, "duration": 1644}, {"note": 0, "velocity": 0, "duration": 276}, {"note": 68, "velocity": 80, "duration": 149}, {"note": 0, "velocity": 0, "duration": 91}, {"note": 68, "velocity": 79, "duration": 145}, {"note": 0, "velocity": 0, "duration": 95}, {"note": 68, "velocity": 80, "duration": 135}, {"note": 0, "velocity": 0, "duration": 105}, {"note": 70, "velocity": 80, "duration": 166}, {"note": 0, "velocity": 0, "duration": 74}, {"note": 68, "velocity": 84, "duration": 142}, {"note": 0, "velocity": 0, "duration": 98}, {"note": 65, "velocity": 86, "duration": 136}, {"note": 0, "velocity": 0, "duration": 104}, {"note": 65, "velocity": 81, "duration": 136}, {"note": 0, "velocity": 0, "duration": 104}, {"note": 61, "velocity": 80, "duration": 183}, {"note": 63, "velocity": 75, "duration": 1784}, {"note": 0, "velocity": 0, "duration": 136}, {"note": 68, "velocity": 80, "duration": 147}, {"note": 0, "velocity": 0, "duration": 93}, {"note": 68, "velocity": 77, "duration": 169}, {"note": 0, "velocity": 0, "duration": 71}, {"note": 68, "velocity": 81, "duration": 155}, {"note": 0, "velocity": 0, "duration": 85}, {"note": 70, "velocity": 83, "duration": 172}, {"note": 0, "velocity": 0, "duration": 68}, {"note": 73, "velocity": 82, "duration": 430}, {"note": 70, "velocity": 81, "duration": 220}, {"note": 68, "velocity": 76, "duration": 159}, {"note": 0, "velocity": 0, "duration": 81}, {"note": 68, "velocity": 81, "duration": 1771}, {"note": 0, "velocity": 0, "duration": 149}, {"note": 68, "velocity": 80, "duration": 155}, {"note": 0, "velocity": 0, "duration": 85}, {"note": 68, "velocity": 80, "duration": 134}, {"note": 0, "velocity": 0, "duration": 106}, {"note": 68, "velocity": 81, "duration": 132}, {"note": 0, "velocity": 0, "duration": 108}, {"note": 70, "velocity": 85, "duration": 174}, {"note": 0, "velocity": 0, "duration": 66}, {"note": 73, "velocity": 82, "duration": 480}, {"note": 70, "velocity": 82, "duration": 194}, {"note": 68, "velocity": 80, "duration": 187}, {"note": 65, "velocity": 80, "duration": 1680}, {"note": 61, "velocity": 82, "duration": 206}, {"note": 68, "velocity": 75, "duration": 136}, {"note": 0, "velocity": 0, "duration": 104}, {"note": 68, "velocity": 75, "duration": 145}, {"note": 0, "velocity": 0, "duration": 95}, {"note": 68, "velocity": 74, "duration": 167}, {"note": 0, "velocity": 0, "duration": 73}, {"note": 70, "velocity": 74, "duration": 163}, {"note": 0, "velocity": 0, "duration": 77}, {"note": 73, "velocity": 85, "duration": 388}, {"note": 0, "velocity": 0, "duration": 92}, {"note": 70, "velocity": 84, "duration": 164}, {"note": 0, "velocity": 0, "duration": 76}, {"note": 68, "velocity": 78, "duration": 135}, {"note": 0, "velocity": 0, "duration": 105}, {"note": 61, "velocity": 83, "duration": 960}, {"note": 0, "velocity": 0, "duration": 480}, {"note": 58, "velocity": 83, "duration": 173}, {"note": 0, "velocity": 0, "duration": 67}, {"note": 61, "velocity": 86, "duration": 177}, {"note": 0, "velocity": 0, "duration": 63}, {"note": 63, "velocity": 80, "duration": 135}, {"note": 0, "velocity": 0, "duration": 105}, {"note": 63, "velocity": 79, "duration": 113}, {"note": 0, "velocity": 0, "duration": 127}, {"note": 63, "velocity": 80, "duration": 144}, {"note": 0, "velocity": 0, "duration": 96}, {"note": 65, "velocity": 80, "duration": 159}, {"note": 0, "velocity": 0, "duration": 81}, {"note": 63, "velocity": 81, "duration": 398}, {"note": 0, "velocity": 0, "duration": 82}, {"note": 61, "velocity": 82, "duration": 197}, {"note": 63, "velocity": 80, "duration": 159}, {"note": 0, "velocity": 0, "duration": 81}, {"note": 61, "velocity": 81, "duration": 1551}, {"note": 0, "velocity": 0, "duration": 129}, {"note": 70, "velocity": 85, "duration": 168}, {"note": 0, "velocity": 0, "duration": 72}, {"note": 73, "velocity": 83, "duration": 147}, {"note": 0, "velocity": 0, "duration": 93}, {"note": 73, "velocity": 83, "duration": 141}, {"note": 0, "velocity": 0, "duration": 99}, {"note": 73, "velocity": 85, "duration": 146}, {"note": 0, "velocity": 0, "duration": 94}, {"note": 75, "velocity": 83, "duration": 149}, {"note": 0, "velocity": 0, "duration": 91}, {"note": 77, "velocity": 84, "duration": 240}, {"note": 77, "velocity": 84, "duration": 240}, {"note": 75, "velocity": 86, "duration": 177}, {"note": 0, "velocity": 0, "duration": 63}, {"note": 73, "velocity": 85, "duration": 193}, {"note": 70, "velocity": 83, "duration": 1538}, {"note": 0, "velocity": 0, "duration": 382}, {"note": 75, "velocity": 86, "duration": 150}, {"note": 0, "velocity": 0, "duration": 90}, {"note": 75, "velocity": 81, "duration": 147}, {"note": 0, "velocity": 0, "duration": 93}, {"note": 75, "velocity": 90, "duration": 151}, {"note": 0, "velocity": 0, "duration": 89}, {"note": 77, "velocity": 81, "duration": 164}, {"note": 0, "velocity": 0, "duration": 76}, {"note": 75, "velocity": 84, "duration": 135}, {"note": 0, "velocity": 0, "duration": 105}, {"note": 73, "velocity": 83, "duration": 206}, {"note": 70, "velocity": 81, "duration": 416}, {"note": 0, "velocity": 0, "duration": 64}, {"note": 68, "velocity": 79, "duration": 1501}, {"note": 0, "velocity": 0, "duration": 419}, {"note": 65, "velocity": 84, "duration": 187}, {"note": 68, "velocity": 82, "duration": 145}, {"note": 0, "velocity": 0, "duration": 95}, {"note": 68, "velocity": 83, "duration": 158}, {"note": 0, "velocity": 0, "duration": 82}, {"note": 65, "velocity": 95, "duration": 176}, {"note": 0, "velocity": 0, "duration": 64}, {"note": 73, "velocity": 83, "duration": 136}, {"note": 0, "velocity": 0, "duration": 104}, {"note": 73, "velocity": 83, "duration": 156}, {"note": 0, "velocity": 0, "duration": 84}, {"note": 72, "velocity": 83, "duration": 402}, {"note": 0, "velocity": 0, "duration": 78}, {"note": 70, "velocity": 80, "duration": 1241}, {"note": 0, "velocity": 0, "duration": 439}, {"note": 68, "velocity": 79, "duration": 194}, {"note": 70, "velocity": 83, "duration": 164}, {"note": 0, "velocity": 0, "duration": 76}, {"note": 73, "velocity": 81, "duration": 132}, {"note": 0, "velocity": 0, "duration": 108}, {"note": 73, "velocity": 81, "duration": 145}, {"note": 0, "velocity": 0, "duration": 95}, {"note": 73, "velocity": 85, "duration": 118}, {"note": 0, "velocity": 0, "duration": 122}, {"note": 73, "velocity": 84, "duration": 371}, {"note": 0, "velocity": 0, "duration": 109}, {"note": 73, "velocity": 82, "duration": 183}, {"note": 70, "velocity": 82, "duration": 217}, {"note": 75, "velocity": 90, "duration": 1680}, {"note": 70, "velocity": 86, "duration": 137}, {"note": 0, "velocity": 0, "duration": 103}, {"note": 73, "velocity": 81, "duration": 164}, {"note": 0, "velocity": 0, "duration": 76}, {"note": 73, "velocity": 83, "duration": 135}, {"note": 0, "velocity": 0, "duration": 105}, {"note": 73, "velocity": 85, "duration": 171}, {"note": 0, "velocity": 0, "duration": 69}, {"note": 75, "velocity": 86, "duration": 147}, {"note": 0, "velocity": 0, "duration": 93}, {"note": 77, "velocity": 86, "duration": 144}, {"note": 0, "velocity": 0, "duration": 96}, {"note": 77, "velocity": 88, "duration": 146}, {"note": 0, "velocity": 0, "duration": 94}, {"note": 75, "velocity": 84, "duration": 183}, {"note": 73, "velocity": 84, "duration": 232}, {"note": 70, "velocity": 83, "duration": 1448}, {"note": 0, "velocity": 0, "duration": 472}, {"note": 75, "velocity": 86, "duration": 132}, {"note": 0, "velocity": 0, "duration": 108}, {"note": 75, "velocity": 81, "duration": 141}, {"note": 0, "velocity": 0, "duration": 99}, {"note": 75, "velocity": 90, "duration": 154}, {"note": 0, "velocity": 0, "duration": 86}, {"note": 77, "velocity": 81, "duration": 155}, {"note": 0, "velocity": 0, "duration": 85}, {"note": 75, "velocity": 86, "duration": 184}, {"note": 73, "velocity": 86, "duration": 210}, {"note": 70, "velocity": 83, "duration": 482}, {"note": 68, "velocity": 82, "duration": 1513}, {"note": 0, "velocity": 0, "duration": 407}, {"note": 65, "velocity": 86, "duration": 196}, {"note": 68, "velocity": 80, "duration": 142}, {"note": 0, "velocity": 0, "duration": 98}, {"note": 68, "velocity": 81, "duration": 161}, {"note": 0, "velocity": 0, "duration": 79}, {"note": 65, "velocity": 88, "duration": 183}, {"note": 73, "velocity": 84, "duration": 130}, {"note": 0, "velocity": 0, "duration": 110}, {"note": 73, "velocity": 81, "duration": 150}, {"note": 0, "velocity": 0, "duration": 90}, {"note": 72, "velocity": 83, "duration": 436}, {"note": 70, "velocity": 80, "duration": 1200}, {"note": 70, "velocity": 88, "duration": 131}, {"note": 0, "velocity": 0, "duration": 109}, {"note": 70, "velocity": 81, "duration": 191}, {"note": 73, "velocity": 84, "duration": 141}, {"note": 0, "velocity": 0, "duration": 99}, {"note": 75, "velocity": 85, "duration": 145}, {"note": 0, "velocity": 0, "duration": 95}, {"note": 75, "velocity": 85, "duration": 138}, {"note": 0, "velocity": 0, "duration": 102}, {"note": 75, "velocity": 85, "duration": 222}, {"note": 73, "velocity": 80, "duration": 154}, {"note": 0, "velocity": 0, "duration": 86}, {"note": 68, "velocity": 83, "duration": 439}, {"note": 70, "velocity": 81, "duration": 417}, {"note": 0, "velocity": 0, "duration": 63}, {"note": 73, "velocity": 81, "duration": 1853}, {"note": 0, "velocity": 0, "duration": 30787}, {"note": 68, "velocity": 80, "duration": 147}, {"note": 0, "velocity": 0, "duration": 93}, {"note": 68, "velocity": 77, "duration": 169}, {"note": 0, "velocity": 0, "duration": 71}, {"note": 68, "velocity": 81, "duration": 155}, {"note": 0, "velocity": 0, "duration": 85}, {"note": 70, "velocity": 83, "duration": 172}, {"note": 0, "velocity": 0, "duration": 68}, {"note": 73, "velocity": 82, "duration": 430}, {"note": 70, "velocity": 81, "duration": 220}, {"note": 68, "velocity": 76, "duration": 159}, {"note": 0, "velocity": 0, "duration": 81}, {"note": 68, "velocity": 81, "duration": 820}, {"note": 0, "velocity": 0, "duration": 1100}, {"note": 68, "velocity": 80, "duration": 155}, {"note": 0, "velocity": 0, "duration": 85}, {"note": 68, "velocity": 80, "duration": 134}, {"note": 0, "velocity": 0, "duration": 106}, {"note": 68, "velocity": 81, "duration": 132}, {"note": 0, "velocity": 0, "duration": 108}, {"note": 70, "velocity": 85, "duration": 174}, {"note": 0, "velocity": 0, "duration": 66}, {"note": 73, "velocity": 82, "duration": 225}, {"note": 73, "velocity": 82, "duration": 226}, {"note": 70, "velocity": 82, "duration": 194}, {"note": 68, "velocity": 80, "duration": 187}, {"note": 65, "velocity": 80, "duration": 332}, {"note": 0, "velocity": 0, "duration": 1348}, {"note": 61, "velocity": 82, "duration": 206}, {"note": 68, "velocity": 75, "duration": 136}, {"note": 0, "velocity": 0, "duration": 104}, {"note": 68, "velocity": 75, "duration": 145}, {"note": 0, "velocity": 0, "duration": 95}, {"note": 68, "velocity": 74, "duration": 167}, {"note": 0, "velocity": 0, "duration": 73}, {"note": 70, "velocity": 74, "duration": 163}, {"note": 0, "velocity": 0, "duration": 77}, {"note": 73, "velocity": 85, "duration": 388}, {"note": 0, "velocity": 0, "duration": 92}, {"note": 70, "velocity": 84, "duration": 164}, {"note": 0, "velocity": 0, "duration": 76}, {"note": 68, "velocity": 78, "duration": 135}, {"note": 0, "velocity": 0, "duration": 105}, {"note": 61, "velocity": 83, "duration": 821}, {"note": 0, "velocity": 0, "duration": 619}, {"note": 58, "velocity": 83, "duration": 173}, {"note": 0, "velocity": 0, "duration": 67}, {"note": 61, "velocity": 86, "duration": 177}, {"note": 0, "velocity": 0, "duration": 63}, {"note": 63, "velocity": 80, "duration": 135}, {"note": 0, "velocity": 0, "duration": 105}, {"note": 63, "velocity": 79, "duration": 113}, {"note": 0, "velocity": 0, "duration": 127}, {"note": 63, "velocity": 80, "duration": 144}, {"note": 0, "velocity": 0, "duration": 96}, {"note": 65, "velocity": 80, "duration": 159}, {"note": 0, "velocity": 0, "duration": 81}, {"note": 63, "velocity": 81, "duration": 398}, {"note": 0, "velocity": 0, "duration": 82}, {"note": 61, "velocity": 82, "duration": 197}, {"note": 63, "velocity": 80, "duration": 159}, {"note": 0, "velocity": 0, "duration": 81}, {"note": 61, "velocity": 81, "duration": 742}, {"note": 0, "velocity": 0, "duration": 938}, {"note": 70, "velocity": 85, "duration": 168}, {"note": 0, "velocity": 0, "duration": 72}, {"note": 73, "velocity": 83, "duration": 147}, {"note": 0, "velocity": 0, "duration": 93}, {"note": 73, "velocity": 83, "duration": 141}, {"note": 0, "velocity": 0, "duration": 99}, {"note": 73, "velocity": 85, "duration": 146}, {"note": 0, "velocity": 0, "duration": 94}, {"note": 75, "velocity": 83, "duration": 149}, {"note": 0, "velocity": 0, "duration": 91}, {"note": 77, "velocity": 84, "duration": 240}, {"note": 77, "velocity": 84, "duration": 240}, {"note": 75, "velocity": 86, "duration": 177}, {"note": 0, "velocity": 0, "duration": 63}, {"note": 73, "velocity": 85, "duration": 193}, {"note": 70, "velocity": 83, "duration": 1538}, {"note": 0, "velocity": 0, "duration": 382}, {"note": 75, "velocity": 86, "duration": 150}, {"note": 0, "velocity": 0, "duration": 90}, {"note": 75, "velocity": 81, "duration": 147}, {"note": 0, "velocity": 0, "duration": 93}, {"note": 75, "velocity": 90, "duration": 151}, {"note": 0, "velocity": 0, "duration": 89}, {"note": 77, "velocity": 81, "duration": 164}, {"note": 0, "velocity": 0, "duration": 76}, {"note": 75, "velocity": 84, "duration": 135}, {"note": 0, "velocity": 0, "duration": 105}, {"note": 73, "velocity": 83, "duration": 206}, {"note": 70, "velocity": 81, "duration": 416}, {"note": 0, "velocity": 0, "duration": 64}, {"note": 68, "velocity": 79, "duration": 1501}, {"note": 0, "velocity": 0, "duration": 419}, {"note": 65, "velocity": 84, "duration": 187}, {"note": 68, "velocity": 82, "duration": 145}, {"note": 0, "velocity": 0, "duration": 95}, {"note": 68, "velocity": 83, "duration": 158}, {"note": 0, "velocity": 0, "duration": 82}, {"note": 65, "velocity": 95, "duration": 176}, {"note": 0, "velocity": 0, "duration": 64}, {"note": 73, "velocity": 83, "duration": 136}, {"note": 0, "velocity": 0, "duration": 104}, {"note": 73, "velocity": 83, "duration": 156}, {"note": 0, "velocity": 0, "duration": 84}, {"note": 72, "velocity": 83, "duration": 402}, {"note": 0, "velocity": 0, "duration": 78}, {"note": 70, "velocity": 80, "duration": 1241}, {"note": 0, "velocity": 0, "duration": 439}, {"note": 68, "velocity": 79, "duration": 194}, {"note": 70, "velocity": 83, "duration": 164}, {"note": 0, "velocity": 0, "duration": 76}, {"note": 73, "velocity": 81, "duration": 132}, {"note": 0, "velocity": 0, "duration": 108}, {"note": 73, "velocity": 81, "duration": 145}, {"note": 0, "velocity": 0, "duration": 95}, {"note": 73, "velocity": 85, "duration": 118}, {"note": 0, "velocity": 0, "duration": 122}, {"note": 73, "velocity": 84, "duration": 371}, {"note": 0, "velocity": 0, "duration": 109}, {"note": 73, "velocity": 82, "duration": 183}, {"note": 70, "velocity": 82, "duration": 217}, {"note": 75, "velocity": 90, "duration": 1680}, {"note": 70, "velocity": 86, "duration": 137}, {"note": 0, "velocity": 0, "duration": 103}, {"note": 73, "velocity": 81, "duration": 164}, {"note": 0, "velocity": 0, "duration": 76}, {"note": 73, "velocity": 83, "duration": 135}, {"note": 0, "velocity": 0, "duration": 105}, {"note": 73, "velocity": 85, "duration": 171}, {"note": 0, "velocity": 0, "duration": 69}, {"note": 75, "velocity": 86, "duration": 147}, {"note": 0, "velocity": 0, "duration": 93}, {"note": 77, "velocity": 86, "duration": 144}, {"note": 0, "velocity": 0, "duration": 96}, {"note": 77, "velocity": 88, "duration": 146}, {"note": 0, "velocity": 0, "duration": 94}, {"note": 75, "velocity": 84, "duration": 183}, {"note": 73, "velocity": 84, "duration": 232}, {"note": 70, "velocity": 83, "duration": 1448}, {"note": 0, "velocity": 0, "duration": 472}, {"note": 75, "velocity": 86, "duration": 132}, {"note": 0, "velocity": 0, "duration": 108}, {"note": 75, "velocity": 81, "duration": 141}, {"note": 0, "velocity": 0, "duration": 99}, {"note": 75, "velocity": 90, "duration": 154}, {"note": 0, "velocity": 0, "duration": 86}, {"note": 77, "velocity": 81, "duration": 155}, {"note": 0, "velocity": 0, "duration": 85}, {"note": 75, "velocity": 86, "duration": 184}, {"note": 73, "velocity": 86, "duration": 210}, {"note": 70, "velocity": 83, "duration": 482}, {"note": 68, "velocity": 82, "duration": 1513}, {"note": 0, "velocity": 0, "duration": 407}, {"note": 65, "velocity": 86, "duration": 196}, {"note": 68, "velocity": 80, "duration": 142}, {"note": 0, "velocity": 0, "duration": 98}, {"note": 68, "velocity": 81, "duration": 161}, {"note": 0, "velocity": 0, "duration": 79}, {"note": 65, "velocity": 88, "duration": 183}, {"note": 73, "velocity": 84, "duration": 130}, {"note": 0, "velocity": 0, "duration": 110}, {"note": 73, "velocity": 81, "duration": 150}, {"note": 0, "velocity": 0, "duration": 90}, {"note": 72, "velocity": 83, "duration": 436}, {"note": 70, "velocity": 80, "duration": 1200}, {"note": 70, "velocity": 88, "duration": 131}, {"note": 0, "velocity": 0, "duration": 109}, {"note": 70, "velocity": 81, "duration": 191}, {"note": 73, "velocity": 84, "duration": 141}, {"note": 0, "velocity": 0, "duration": 99}, {"note": 75, "velocity": 85, "duration": 145}, {"note": 0, "velocity": 0, "duration": 95}, {"note": 75, "velocity": 85, "duration": 138}, {"note": 0, "velocity": 0, "duration": 102}, {"note": 75, "velocity": 85, "duration": 222}, {"note": 73, "velocity": 80, "duration": 154}, {"note": 0, "velocity": 0, "duration": 86}, {"note": 68, "velocity": 83, "duration": 439}, {"note": 70, "velocity": 81, "duration": 417}, {"note": 0, "velocity": 0, "duration": 63}, {"note": 73, "velocity": 81, "duration": 1440}, {"note": 0, "velocity": 0, "duration": 240}, {"note": 70, "velocity": 85, "duration": 168}, {"note": 0, "velocity": 0, "duration": 72}, {"note": 73, "velocity": 83, "duration": 147}, {"note": 0, "velocity": 0, "duration": 93}, {"note": 73, "velocity": 83, "duration": 141}, {"note": 0, "velocity": 0, "duration": 99}, {"note": 73, "velocity": 85, "duration": 146}, {"note": 0, "velocity": 0, "duration": 94}, {"note": 75, "velocity": 83, "duration": 149}, {"note": 0, "velocity": 0, "duration": 91}, {"note": 77, "velocity": 84, "duration": 240}, {"note": 77, "velocity": 84, "duration": 240}, {"note": 75, "velocity": 86, "duration": 177}, {"note": 0, "velocity": 0, "duration": 63}, {"note": 73, "velocity": 85, "duration": 193}, {"note": 70, "velocity": 83, "duration": 1538}, {"note": 0, "velocity": 0, "duration": 382}, {"note": 75, "velocity": 86, "duration": 150}, {"note": 0, "velocity": 0, "duration": 90}, {"note": 75, "velocity": 81, "duration": 147}, {"note": 0, "velocity": 0, "duration": 93}, {"note": 75, "velocity": 90, "duration": 151}, {"note": 0, "velocity": 0, "duration": 89}, {"note": 77, "velocity": 81, "duration": 164}, {"note": 0, "velocity": 0, "duration": 76}, {"note": 75, "velocity": 84, "duration": 135}, {"note": 0, "velocity": 0, "duration": 105}, {"note": 73, "velocity": 83, "duration": 206}, {"note": 70, "velocity": 81, "duration": 416}, {"note": 0, "velocity": 0, "duration": 64}, {"note": 68, "velocity": 79, "duration": 1501}, {"note": 0, "velocity": 0, "duration": 419}, {"note": 65, "velocity": 84, "duration": 187}, {"note": 68, "velocity": 82, "duration": 145}, {"note": 0, "velocity": 0, "duration": 95}, {"note": 68, "velocity": 83, "duration": 158}, {"note": 0, "velocity": 0, "duration": 82}, {"note": 65, "velocity": 95, "duration": 176}, {"note": 0, "velocity": 0, "duration": 64}, {"note": 73, "velocity": 83, "duration": 136}, {"note": 0, "velocity": 0, "duration": 104}, {"note": 73, "velocity": 83, "duration": 156}, {"note": 0, "velocity": 0, "duration": 84}, {"note": 72, "velocity": 83, "duration": 402}, {"note": 0, "velocity": 0, "duration": 78}, {"note": 70, "velocity": 80, "duration": 1241}, {"note": 0, "velocity": 0, "duration": 439}, {"note": 68, "velocity": 79, "duration": 194}, {"note": 70, "velocity": 83, "duration": 164}, {"note": 0, "velocity": 0, "duration": 76}, {"note": 73, "velocity": 81, "duration": 132}, {"note": 0, "velocity": 0, "duration": 108}, {"note": 73, "velocity": 81, "duration": 145}, {"note": 0, "velocity": 0, "duration": 95}, {"note": 73, "velocity": 85, "duration": 118}, {"note": 0, "velocity": 0, "duration": 122}, {"note": 73, "velocity": 84, "duration": 371}, {"note": 0, "velocity": 0, "duration": 109}, {"note": 73, "velocity": 82, "duration": 183}, {"note": 70, "velocity": 82, "duration": 217}, {"note": 75, "velocity": 90, "duration": 1680}, {"note": 70, "velocity": 86, "duration": 137}, {"note": 0, "velocity": 0, "duration": 103}, {"note": 73, "velocity": 81, "duration": 164}, {"note": 0, "velocity": 0, "duration": 76}, {"note": 73, "velocity": 83, "duration": 135}, {"note": 0, "velocity": 0, "duration": 105}, {"note": 73, "velocity": 85, "duration": 171}, {"note": 0, "velocity": 0, "duration": 69}, {"note": 75, "velocity": 86, "duration": 147}, {"note": 0, "velocity": 0, "duration": 93}, {"note": 77, "velocity": 86, "duration": 144}, {"note": 0, "velocity": 0, "duration": 96}, {"note": 77, "velocity": 88, "duration": 146}, {"note": 0, "velocity": 0, "duration": 94}, {"note": 75, "velocity": 84, "duration": 183}, {"note": 73, "velocity": 84, "duration": 232}, {"note": 70, "velocity": 83, "duration": 1448}, {"note": 0, "velocity": 0, "duration": 472}, {"note": 75, "velocity": 86, "duration": 132}, {"note": 0, "velocity": 0, "duration": 108}, {"note": 75, "velocity": 81, "duration": 141}, {"note": 0, "velocity": 0, "duration": 99}, {"note": 75, "velocity": 90, "duration": 154}, {"note": 0, "velocity": 0, "duration": 86}, {"note": 77, "velocity": 81, "duration": 155}, {"note": 0, "velocity": 0, "duration": 85}, {"note": 75, "velocity": 86, "duration": 184}, {"note": 73, "velocity": 86, "duration": 210}, {"note": 70, "velocity": 83, "duration": 482}, {"note": 68, "velocity": 82, "duration": 1513}, {"note": 0, "velocity": 0, "duration": 407}, {"note": 65, "velocity": 86, "duration": 196}, {"note": 68, "velocity": 80, "duration": 142}, {"note": 0, "velocity": 0, "duration": 98}, {"note": 68, "velocity": 81, "duration": 161}, {"note": 0, "velocity": 0, "duration": 79}, {"note": 65, "velocity": 88, "duration": 183}, {"note": 73, "velocity": 84, "duration": 130}, {"note": 0, "velocity": 0, "duration": 110}, {"note": 73, "velocity": 81, "duration": 150}, {"note": 0, "velocity": 0, "duration": 90}, {"note": 72, "velocity": 83, "duration": 436}, {"note": 70, "velocity": 80, "duration": 1200}, {"note": 70, "velocity": 88, "duration": 131}, {"note": 0, "velocity": 0, "duration": 109}, {"note": 70, "velocity": 81, "duration": 191}, {"note": 73, "velocity": 84, "duration": 141}, {"note": 0, "velocity": 0, "duration": 99}, {"note": 75, "velocity": 85, "duration": 145}, {"note": 0, "velocity": 0, "duration": 95}, {"note": 75, "velocity": 85, "duration": 138}, {"note": 0, "velocity": 0, "duration": 102}, {"note": 75, "velocity": 85, "duration": 222}, {"note": 73, "velocity": 80, "duration": 154}, {"note": 0, "velocity": 0, "duration": 86}, {"note": 68, "velocity": 83, "duration": 439}, {"note": 70, "velocity": 81, "duration": 417}, {"note": 0, "velocity": 0, "duration": 63}, {"note": 73, "velocity": 81, "duration": 960}, {"note": 0, "velocity": 0, "duration": 248}, {"note": 70, "velocity": 84, "duration": 191}, {"note": 0, "velocity": 0, "duration": 72}, {"note": 70, "velocity": 90, "duration": 162}, {"note": 0, "velocity": 0, "duration": 61}, {"note": 73, "velocity": 86, "duration": 185}, {"note": 0, "velocity": 0, "duration": 85}, {"note": 75, "velocity": 95, "duration": 182}, {"note": 0, "velocity": 0, "duration": 81}, {"note": 75, "velocity": 95, "duration": 210}, {"note": 0, "velocity": 0, "duration": 97}, {"note": 75, "velocity": 93, "duration": 227}, {"note": 0, "velocity": 0, "duration": 88}, {"note": 73, "velocity": 86, "duration": 521}, {"note": 68, "velocity": 79, "duration": 1970}, {"note": 70, "velocity": 86, "duration": 1471}, {"note": 73, "velocity": 79, "duration": 3504}]]