[[{"note": 69, "velocity": 89, "duration": 204}, {"note": 76, "velocity": 96, "duration": 409}, {"note": 0, "velocity": 0, "duration": 71}, {"note": 74, "velocity": 92, "duration": 89}, {"note": 72, "velocity": 78, "duration": 70}, {"note": 74, "velocity": 92, "duration": 208}, {"note": 79, "velocity": 89, "duration": 176}, {"note": 0, "velocity": 0, "duration": 64}, {"note": 72, "velocity": 88, "duration": 207}, {"note": 69, "velocity": 87, "duration": 120}, {"note": 69, "velocity": 87, "duration": 120}, {"note": 67, "velocity": 85, "duration": 186}, {"note": 69, "velocity": 87, "duration": 1465}, {"note": 0, "velocity": 0, "duration": 215}, {"note": 69, "velocity": 91, "duration": 185}, {"note": 74, "velocity": 96, "duration": 65}, {"note": 74, "velocity": 102, "duration": 303}, {"note": 72, "velocity": 86, "duration": 211}, {"note": 69, "velocity": 89, "duration": 200}, {"note": 79, "velocity": 90, "duration": 207}, {"note": 79, "velocity": 92, "duration": 208}, {"note": 76, "velocity": 92, "duration": 100}, {"note": 74, "velocity": 87, "duration": 88}, {"note": 76, "velocity": 91, "duration": 1556}, {"note": 0, "velocity": 0, "duration": 364}, {"note": 76, "velocity": 92, "duration": 309}, {"note": 81, "velocity": 92, "duration": 89}, {"note": 79, "velocity": 89, "duration": 210}, {"note": 76, "velocity": 92, "duration": 185}, {"note": 74, "velocity": 79, "duration": 187}, {"note": 74, "velocity": 94, "duration": 442}, {"note": 69, "velocity": 89, "duration": 116}, {"note": 72, "velocity": 87, "duration": 80}, {"note": 74, "velocity": 96, "duration": 1462}, {"note": 0, "velocity": 0, "duration": 218}, {"note": 79, "velocity": 88, "duration": 73}, {"note": 76, "velocity": 87, "duration": 69}, {"note": 74, "velocity": 99, "duration": 179}, {"note": 0, "velocity": 0, "duration": 61}, {"note": 72, "velocity": 79, "duration": 382}, {"note": 0, "velocity": 0, "duration": 98}, {"note": 67, "velocity": 86, "duration": 62}, {"note": 67, "velocity": 83, "duration": 72}, {"note": 67, "velocity": 89, "duration": 179}, {"note": 0, "velocity": 0, "duration": 61}, {"note": 74, "velocity": 89, "duration": 188}, {"note": 72, "velocity": 86, "duration": 213}, {"note": 74, "velocity": 88, "duration": 240}, {"note": 72, "velocity": 86, "duration": 240}, {"note": 69, "velocity": 86, "duration": 1051}, {"note": 0, "velocity": 0, "duration": 629}, {"note": 69, "velocity": 89, "duration": 204}, {"note": 76, "velocity": 96, "duration": 409}, {"note": 0, "velocity": 0, "duration": 71}, {"note": 74, "velocity": 92, "duration": 89}, {"note": 72, "velocity": 78, "duration": 70}, {"note": 74, "velocity": 92, "duration": 208}, {"note": 79, "velocity": 89, "duration": 176}, {"note": 0, "velocity": 0, "duration": 64}, {"note": 72, "velocity": 88, "duration": 207}, {"note": 69, "velocity": 87, "duration": 120}, {"note": 69, "velocity": 87, "duration": 120}, {"note": 67, "velocity": 85, "duration": 186}, {"note": 69, "velocity": 87, "duration": 1465}, {"note": 0, "velocity": 0, "duration": 215}, {"note": 69, "velocity": 91, "duration": 185}, {"note": 74, "velocity": 96, "duration": 65}, {"note": 74, "velocity": 102, "duration": 303}, {"note": 72, "velocity": 86, "duration": 211}, {"note": 69, "velocity": 89, "duration": 200}, {"note": 79, "velocity": 90, "duration": 207}, {"note": 79, "velocity": 92, "duration": 208}, {"note": 76, "velocity": 92, "duration": 100}, {"note": 74, "velocity": 87, "duration": 88}, {"note": 76, "velocity": 91, "duration": 1556}, {"note": 0, "velocity": 0, "duration": 364}, {"note": 76, "velocity": 92, "duration": 309}, {"note": 81, "velocity": 92, "duration": 89}, {"note": 79, "velocity": 89, "duration": 210}, {"note": 76, "velocity": 92, "duration": 185}, {"note": 74, "velocity": 79, "duration": 187}, {"note": 74, "velocity": 94, "duration": 442}, {"note": 69, "velocity": 89, "duration": 116}, {"note": 72, "velocity": 87, "duration": 80}, {"note": 74, "velocity": 96, "duration": 1462}, {"note": 0, "velocity": 0, "duration": 218}, {"note": 74, "velocity": 99, "duration": 59}, {"note": 0, "velocity": 0, "duration": 61}, {"note": 76, "velocity": 92, "duration": 83}, {"note": 79, "velocity": 90, "duration": 203}, {"note": 76, "velocity": 92, "duration": 389}, {"note": 0, "velocity": 0, "duration": 91}, {"note": 74, "velocity": 96, "duration": 72}, {"note": 76, "velocity": 96, "duration": 79}, {"note": 79, "velocity": 91, "duration": 145}, {"note": 0, "velocity": 0, "duration": 95}, {"note": 79, "velocity": 87, "duration": 157}, {"note": 0, "velocity": 0, "duration": 83}, {"note": 79, "velocity": 89, "duration": 240}, {"note": 79, "velocity": 86, "duration": 97}, {"note": 79, "velocity": 89, "duration": 120}, {"note": 76, "velocity": 96, "duration": 208}, {"note": 81, "velocity": 83, "duration": 1200}, {"note": 0, "velocity": 0, "duration": 240}, {"note": 76, "velocity": 101, "duration": 172}, {"note": 0, "velocity": 0, "duration": 68}, {"note": 81, "velocity": 99, "duration": 176}, {"note": 0, "velocity": 0, "duration": 64}, {"note": 81, "velocity": 92, "duration": 120}, {"note": 0, "velocity": 0, "duration": 120}, {"note": 79, "velocity": 90, "duration": 164}, {"note": 0, "velocity": 0, "duration": 76}, {"note": 79, "velocity": 88, "duration": 165}, {"note": 0, "velocity": 0, "duration": 75}, {"note": 81, "velocity": 86, "duration": 240}, {"note": 0, "velocity": 0, "duration": 120}, {"note": 84, "velocity": 80, "duration": 86}, {"note": 81, "velocity": 91, "duration": 191}, {"note": 79, "velocity": 89, "duration": 229}, {"note": 76, "velocity": 96, "duration": 180}, {"note": 79, "velocity": 89, "duration": 414}, {"note": 0, "velocity": 0, "duration": 66}, {"note": 74, "velocity": 96, "duration": 179}, {"note": 0, "velocity": 0, "duration": 61}, {"note": 72, "velocity": 87, "duration": 219}, {"note": 69, "velocity": 87, "duration": 441}, {"note": 69, "velocity": 92, "duration": 114}, {"note": 72, "velocity": 87, "duration": 70}, {"note": 74, "velocity": 101, "duration": 660}, {"note": 74, "velocity": 111, "duration": 69}, {"note": 76, "velocity": 92, "duration": 67}, {"note": 79, "velocity": 90, "duration": 178}, {"note": 0, "velocity": 0, "duration": 62}, {"note": 81, "velocity": 90, "duration": 178}, {"note": 0, "velocity": 0, "duration": 62}, {"note": 79, "velocity": 89, "duration": 63}, {"note": 76, "velocity": 94, "duration": 70}, {"note": 74, "velocity": 99, "duration": 184}, {"note": 76, "velocity": 89, "duration": 1485}, {"note": 0, "velocity": 0, "duration": 195}, {"note": 76, "velocity": 101, "duration": 172}, {"note": 0, "velocity": 0, "duration": 68}, {"note": 81, "velocity": 99, "duration": 176}, {"note": 0, "velocity": 0, "duration": 64}, {"note": 81, "velocity": 92, "duration": 120}, {"note": 0, "velocity": 0, "duration": 120}, {"note": 79, "velocity": 90, "duration": 164}, {"note": 0, "velocity": 0, "duration": 76}, {"note": 79, "velocity": 88, "duration": 165}, {"note": 0, "velocity": 0, "duration": 75}, {"note": 81, "velocity": 86, "duration": 240}, {"note": 0, "velocity": 0, "duration": 120}, {"note": 84, "velocity": 80, "duration": 86}, {"note": 81, "velocity": 91, "duration": 191}, {"note": 79, "velocity": 89, "duration": 229}, {"note": 76, "velocity": 96, "duration": 180}, {"note": 79, "velocity": 89, "duration": 414}, {"note": 0, "velocity": 0, "duration": 66}, {"note": 74, "velocity": 96, "duration": 179}, {"note": 0, "velocity": 0, "duration": 61}, {"note": 72, "velocity": 87, "duration": 219}, {"note": 69, "velocity": 87, "duration": 441}, {"note": 69, "velocity": 92, "duration": 114}, {"note": 72, "velocity": 87, "duration": 70}, {"note": 74, "velocity": 101, "duration": 660}, {"note": 76, "velocity": 99, "duration": 199}, {"note": 79, "velocity": 89, "duration": 172}, {"note": 0, "velocity": 0, "duration": 68}, {"note": 79, "velocity": 90, "duration": 176}, {"note": 0, "velocity": 0, "duration": 64}, {"note": 79, "velocity": 87, "duration": 240}, {"note": 79, "velocity": 87, "duration": 240}, {"note": 76, "velocity": 96, "duration": 1440}, {"note": 0, "velocity": 0, "duration": 240}, {"note": 76, "velocity": 101, "duration": 172}, {"note": 0, "velocity": 0, "duration": 68}, {"note": 81, "velocity": 99, "duration": 176}, {"note": 0, "velocity": 0, "duration": 64}, {"note": 81, "velocity": 92, "duration": 120}, {"note": 0, "velocity": 0, "duration": 120}, {"note": 79, "velocity": 90, "duration": 164}, {"note": 0, "velocity": 0, "duration": 76}, {"note": 79, "velocity": 88, "duration": 165}, {"note": 0, "velocity": 0, "duration": 75}, {"note": 81, "velocity": 86, "duration": 240}, {"note": 0, "velocity": 0, "duration": 120}, {"note": 84, "velocity": 80, "duration": 86}, {"note": 81, "velocity": 91, "duration": 191}, {"note": 79, "velocity": 89, "duration": 229}, {"note": 76, "velocity": 96, "duration": 180}, {"note": 79, "velocity": 89, "duration": 414}, {"note": 0, "velocity": 0, "duration": 66}, {"note": 74, "velocity": 96, "duration": 179}, {"note": 0, "velocity": 0, "duration": 61}, {"note": 72, "velocity": 87, "duration": 219}, {"note": 69, "velocity": 87, "duration": 441}, {"note": 69, "velocity": 92, "duration": 114}, {"note": 72, "velocity": 87, "duration": 70}, {"note": 74, "velocity": 101, "duration": 660}, {"note": 74, "velocity": 111, "duration": 69}, {"note": 76, "velocity": 92, "duration": 67}, {"note": 79, "velocity": 90, "duration": 178}, {"note": 0, "velocity": 0, "duration": 62}, {"note": 81, "velocity": 90, "duration": 178}, {"note": 0, "velocity": 0, "duration": 62}, {"note": 79, "velocity": 89, "duration": 63}, {"note": 76, "velocity": 94, "duration": 70}, {"note": 74, "velocity": 99, "duration": 184}, {"note": 76, "velocity": 89, "duration": 1485}, {"note": 0, "velocity": 0, "duration": 195}, {"note": 76, "velocity": 101, "duration": 120}, {"note": 79, "velocity": 101, "duration": 120}, {"note": 81, "velocity": 99, "duration": 176}, {"note": 0, "velocity": 0, "duration": 64}, {"note": 81, "velocity": 92, "duration": 120}, {"note": 0, "velocity": 0, "duration": 120}, {"note": 79, "velocity": 90, "duration": 164}, {"note": 0, "velocity": 0, "duration": 76}, {"note": 79, "velocity": 88, "duration": 165}, {"note": 0, "velocity": 0, "duration": 75}, {"note": 81, "velocity": 86, "duration": 240}, {"note": 0, "velocity": 0, "duration": 120}, {"note": 84, "velocity": 80, "duration": 86}, {"note": 81, "velocity": 91, "duration": 191}, {"note": 79, "velocity": 89, "duration": 229}, {"note": 76, "velocity": 96, "duration": 180}, {"note": 79, "velocity": 89, "duration": 414}, {"note": 0, "velocity": 0, "duration": 66}, {"note": 74, "velocity": 96, "duration": 179}, {"note": 0, "velocity": 0, "duration": 61}, {"note": 72, "velocity": 87, "duration": 219}, {"note": 69, "velocity": 87, "duration": 441}, {"note": 69, "velocity": 92, "duration": 114}, {"note": 72, "velocity": 87, "duration": 70}, {"note": 74, "velocity": 101, "duration": 240}, {"note": 74, "velocity": 101, "duration": 420}, {"note": 74, "velocity": 99, "duration": 120}, {"note": 76, "velocity": 89, "duration": 120}, {"note": 79, "velocity": 90, "duration": 176}, {"note": 0, "velocity": 0, "duration": 64}, {"note": 79, "velocity": 87, "duration": 480}, {"note": 67, "velocity": 87, "duration": 240}, {"note": 69, "velocity": 96, "duration": 1440}, {"note": 0, "velocity": 0, "duration": 15840}, {"note": 69, "velocity": 89, "duration": 204}, {"note": 76, "velocity": 96, "duration": 409}, {"note": 0, "velocity": 0, "duration": 71}, {"note": 74, "velocity": 92, "duration": 89}, {"note": 72, "velocity": 78, "duration": 70}, {"note": 74, "velocity": 92, "duration": 208}, {"note": 79, "velocity": 89, "duration": 176}, {"note": 0, "velocity": 0, "duration": 64}, {"note": 72, "velocity": 88, "duration": 207}, {"note": 69, "velocity": 87, "duration": 120}, {"note": 69, "velocity": 87, "duration": 120}, {"note": 67, "velocity": 85, "duration": 186}, {"note": 69, "velocity": 87, "duration": 1465}, {"note": 0, "velocity": 0, "duration": 215}, {"note": 69, "velocity": 91, "duration": 185}, {"note": 74, "velocity": 96, "duration": 65}, {"note": 74, "velocity": 102, "duration": 303}, {"note": 72, "velocity": 86, "duration": 211}, {"note": 69, "velocity": 89, "duration": 200}, {"note": 79, "velocity": 90, "duration": 207}, {"note": 79, "velocity": 92, "duration": 208}, {"note": 76, "velocity": 92, "duration": 100}, {"note": 74, "velocity": 87, "duration": 88}, {"note": 76, "velocity": 91, "duration": 1556}, {"note": 0, "velocity": 0, "duration": 364}, {"note": 76, "velocity": 92, "duration": 309}, {"note": 81, "velocity": 92, "duration": 89}, {"note": 79, "velocity": 89, "duration": 210}, {"note": 76, "velocity": 92, "duration": 185}, {"note": 74, "velocity": 79, "duration": 187}, {"note": 74, "velocity": 94, "duration": 442}, {"note": 69, "velocity": 89, "duration": 116}, {"note": 72, "velocity": 87, "duration": 80}, {"note": 74, "velocity": 96, "duration": 1462}, {"note": 0, "velocity": 0, "duration": 218}, {"note": 74, "velocity": 99, "duration": 59}, {"note": 0, "velocity": 0, "duration": 61}, {"note": 76, "velocity": 92, "duration": 83}, {"note": 79, "velocity": 90, "duration": 203}, {"note": 76, "velocity": 92, "duration": 389}, {"note": 0, "velocity": 0, "duration": 91}, {"note": 74, "velocity": 96, "duration": 72}, {"note": 76, "velocity": 96, "duration": 79}, {"note": 79, "velocity": 91, "duration": 145}, {"note": 0, "velocity": 0, "duration": 95}, {"note": 79, "velocity": 87, "duration": 157}, {"note": 0, "velocity": 0, "duration": 83}, {"note": 79, "velocity": 89, "duration": 240}, {"note": 79, "velocity": 86, "duration": 97}, {"note": 79, "velocity": 89, "duration": 120}, {"note": 76, "velocity": 96, "duration": 208}, {"note": 81, "velocity": 83, "duration": 1200}, {"note": 0, "velocity": 0, "duration": 240}, {"note": 76, "velocity": 101, "duration": 172}, {"note": 0, "velocity": 0, "duration": 68}, {"note": 81, "velocity": 99, "duration": 176}, {"note": 0, "velocity": 0, "duration": 64}, {"note": 81, "velocity": 92, "duration": 120}, {"note": 0, "velocity": 0, "duration": 120}, {"note": 79, "velocity": 90, "duration": 164}, {"note": 0, "velocity": 0, "duration": 76}, {"note": 79, "velocity": 88, "duration": 165}, {"note": 0, "velocity": 0, "duration": 75}, {"note": 81, "velocity": 86, "duration": 240}, {"note": 0, "velocity": 0, "duration": 120}, {"note": 84, "velocity": 80, "duration": 86}, {"note": 81, "velocity": 91, "duration": 191}, {"note": 79, "velocity": 89, "duration": 229}, {"note": 76, "velocity": 96, "duration": 180}, {"note": 79, "velocity": 89, "duration": 414}, {"note": 0, "velocity": 0, "duration": 66}, {"note": 74, "velocity": 96, "duration": 179}, {"note": 0, "velocity": 0, "duration": 61}, {"note": 72, "velocity": 87, "duration": 219}, {"note": 69, "velocity": 87, "duration": 441}, {"note": 69, "velocity": 92, "duration": 114}, {"note": 72, "velocity": 87, "duration": 70}, {"note": 74, "velocity": 101, "duration": 660}, {"note": 74, "velocity": 111, "duration": 69}, {"note": 76, "velocity": 92, "duration": 67}, {"note": 79, "velocity": 90, "duration": 178}, {"note": 0, "velocity": 0, "duration": 62}, {"note": 81, "velocity": 90, "duration": 178}, {"note": 0, "velocity": 0, "duration": 62}, {"note": 79, "velocity": 89, "duration": 63}, {"note": 76, "velocity": 94, "duration": 70}, {"note": 74, "velocity": 99, "duration": 184}, {"note": 76, "velocity": 89, "duration": 1485}, {"note": 0, "velocity": 0, "duration": 195}, {"note": 76, "velocity": 101, "duration": 172}, {"note": 0, "velocity": 0, "duration": 68}, {"note": 81, "velocity": 99, "duration": 176}, {"note": 0, "velocity": 0, "duration": 64}, {"note": 81, "velocity": 92, "duration": 120}, {"note": 0, "velocity": 0, "duration": 120}, {"note": 79, "velocity": 90, "duration": 164}, {"note": 0, "velocity": 0, "duration": 76}, {"note": 79, "velocity": 88, "duration": 165}, {"note": 0, "velocity": 0, "duration": 75}, {"note": 81, "velocity": 86, "duration": 240}, {"note": 0, "velocity": 0, "duration": 120}, {"note": 84, "velocity": 80, "duration": 86}, {"note": 81, "velocity": 91, "duration": 191}, {"note": 79, "velocity": 89, "duration": 229}, {"note": 76, "velocity": 96, "duration": 180}, {"note": 79, "velocity": 89, "duration": 414}, {"note": 0, "velocity": 0, "duration": 66}, {"note": 74, "velocity": 96, "duration": 179}, {"note": 0, "velocity": 0, "duration": 61}, {"note": 72, "velocity": 87, "duration": 219}, {"note": 69, "velocity": 87, "duration": 441}, {"note": 69, "velocity": 92, "duration": 114}, {"note": 72, "velocity": 87, "duration": 70}, {"note": 74, "velocity": 101, "duration": 660}, {"note": 76, "velocity": 99, "duration": 199}, {"note": 79, "velocity": 89, "duration": 172}, {"note": 0, "velocity": 0, "duration": 68}, {"note": 79, "velocity": 90, "duration": 176}, {"note": 0, "velocity": 0, "duration": 64}, {"note": 79, "velocity": 87, "duration": 240}, {"note": 79, "velocity": 87, "duration": 240}, {"note": 76, "velocity": 96, "duration": 1440}, {"note": 0, "velocity": 0, "duration": 720}, {"note": 74, "velocity": 92, "duration": 75}, {"note": 74, "velocity": 91, "duration": 74}, {"note": 74, "velocity": 102, "duration": 181}, {"note": 72, "velocity": 96, "duration": 192}, {"note": 69, "velocity": 91, "duration": 179}, {"note": 0, "velocity": 0, "duration": 61}, {"note": 72, "velocity": 99, "duration": 177}, {"note": 0, "velocity": 0, "duration": 63}, {"note": 79, "velocity": 92, "duration": 165}, {"note": 0, "velocity": 0, "duration": 75}, {"note": 76, "velocity": 91, "duration": 106}, {"note": 74, "velocity": 96, "duration": 128}, {"note": 76, "velocity": 94, "duration": 1550}, {"note": 0, "velocity": 0, "duration": 610}, {"note": 74, "velocity": 92, "duration": 66}, {"note": 74, "velocity": 96, "duration": 72}, {"note": 74, "velocity": 99, "duration": 190}, {"note": 74, "velocity": 106, "duration": 91}, {"note": 76, "velocity": 92, "duration": 74}, {"note": 79, "velocity": 90, "duration": 240}, {"note": 79, "velocity": 90, "duration": 123}, {"note": 0, "velocity": 0, "duration": 117}, {"note": 79, "velocity": 90, "duration": 174}, {"note": 0, "velocity": 0, "duration": 66}, {"note": 79, "velocity": 90, "duration": 97}, {"note": 76, "velocity": 92, "duration": 85}, {"note": 81, "velocity": 101, "duration": 1609}, {"note": 0, "velocity": 0, "duration": 71}, {"note": 76, "velocity": 101, "duration": 172}, {"note": 0, "velocity": 0, "duration": 68}, {"note": 81, "velocity": 99, "duration": 176}, {"note": 0, "velocity": 0, "duration": 64}, {"note": 81, "velocity": 92, "duration": 120}, {"note": 0, "velocity": 0, "duration": 120}, {"note": 79, "velocity": 90, "duration": 164}, {"note": 0, "velocity": 0, "duration": 76}, {"note": 79, "velocity": 88, "duration": 165}, {"note": 0, "velocity": 0, "duration": 75}, {"note": 81, "velocity": 86, "duration": 240}, {"note": 0, "velocity": 0, "duration": 120}, {"note": 84, "velocity": 80, "duration": 86}, {"note": 81, "velocity": 91, "duration": 191}, {"note": 79, "velocity": 89, "duration": 229}, {"note": 76, "velocity": 96, "duration": 180}, {"note": 79, "velocity": 89, "duration": 414}, {"note": 0, "velocity": 0, "duration": 66}, {"note": 74, "velocity": 96, "duration": 179}, {"note": 0, "velocity": 0, "duration": 61}, {"note": 72, "velocity": 87, "duration": 219}, {"note": 69, "velocity": 87, "duration": 441}, {"note": 69, "velocity": 92, "duration": 114}, {"note": 72, "velocity": 87, "duration": 70}, {"note": 74, "velocity": 101, "duration": 660}, {"note": 74, "velocity": 111, "duration": 69}, {"note": 76, "velocity": 92, "duration": 67}, {"note": 79, "velocity": 90, "duration": 178}, {"note": 0, "velocity": 0, "duration": 62}, {"note": 81, "velocity": 90, "duration": 178}, {"note": 0, "velocity": 0, "duration": 62}, {"note": 79, "velocity": 89, "duration": 63}, {"note": 76, "velocity": 94, "duration": 70}, {"note": 74, "velocity": 99, "duration": 184}, {"note": 76, "velocity": 89, "duration": 1485}, {"note": 0, "velocity": 0, "duration": 195}, {"note": 76, "velocity": 101, "duration": 120}, {"note": 79, "velocity": 101, "duration": 120}, {"note": 81, "velocity": 99, "duration": 176}, {"note": 0, "velocity": 0, "duration": 64}, {"note": 81, "velocity": 92, "duration": 120}, {"note": 0, "velocity": 0, "duration": 120}, {"note": 79, "velocity": 90, "duration": 164}, {"note": 0, "velocity": 0, "duration": 76}, {"note": 79, "velocity": 88, "duration": 165}, {"note": 0, "velocity": 0, "duration": 75}, {"note": 81, "velocity": 86, "duration": 240}, {"note": 0, "velocity": 0, "duration": 120}, {"note": 84, "velocity": 80, "duration": 86}, {"note": 81, "velocity": 91, "duration": 191}, {"note": 79, "velocity": 89, "duration": 229}, {"note": 76, "velocity": 96, "duration": 180}, {"note": 79, "velocity": 89, "duration": 414}, {"note": 0, "velocity": 0, "duration": 66}, {"note": 74, "velocity": 96, "duration": 179}, {"note": 0, "velocity": 0, "duration": 61}, {"note": 72, "velocity": 87, "duration": 219}, {"note": 69, "velocity": 87, "duration": 441}, {"note": 69, "velocity": 92, "duration": 114}, {"note": 72, "velocity": 87, "duration": 70}, {"note": 74, "velocity": 101, "duration": 240}, {"note": 74, "velocity": 101, "duration": 420}, {"note": 74, "velocity": 99, "duration": 120}, {"note": 76, "velocity": 89, "duration": 120}, {"note": 79, "velocity": 90, "duration": 176}, {"note": 0, "velocity": 0, "duration": 64}, {"note": 84, "velocity": 87, "duration": 480}, {"note": 79, "velocity": 87, "duration": 240}, {"note": 81, "velocity": 96, "duration": 1440}]]