[[{"note": 61, "velocity": 88, "duration": 846}, {"note": 0, "velocity": 0, "duration": 114}, {"note": 68, "velocity": 84, "duration": 372}, {"note": 0, "velocity": 0, "duration": 108}, {"note": 68, "velocity": 88, "duration": 840}, {"note": 0, "velocity": 0, "duration": 120}, {"note": 66, "velocity": 83, "duration": 380}, {"note": 0, "velocity": 0, "duration": 100}, {"note": 68, "velocity": 85, "duration": 1982}, {"note": 0, "velocity": 0, "duration": 898}, {"note": 66, "velocity": 81, "duration": 855}, {"note": 0, "velocity": 0, "duration": 105}, {"note": 68, "velocity": 84, "duration": 341}, {"note": 0, "velocity": 0, "duration": 139}, {"note": 64, "velocity": 83, "duration": 352}, {"note": 0, "velocity": 0, "duration": 128}, {"note": 61, "velocity": 85, "duration": 437}, {"note": 59, "velocity": 85, "duration": 385}, {"note": 0, "velocity": 0, "duration": 95}, {"note": 61, "velocity": 85, "duration": 1889}, {"note": 0, "velocity": 0, "duration": 991}, {"note": 61, "velocity": 88, "duration": 374}, {"note": 0, "velocity": 0, "duration": 106}, {"note": 61, "velocity": 85, "duration": 386}, {"note": 0, "velocity": 0, "duration": 94}, {"note": 61, "velocity": 85, "duration": 393}, {"note": 0, "velocity": 0, "duration": 87}, {"note": 68, "velocity": 82, "duration": 816}, {"note": 0, "velocity": 0, "duration": 144}, {"note": 68, "velocity": 88, "duration": 168}, {"note": 0, "velocity": 0, "duration": 72}, {"note": 66, "velocity": 80, "duration": 155}, {"note": 0, "velocity": 0, "duration": 85}, {"note": 64, "velocity": 82, "duration": 386}, {"note": 0, "velocity": 0, "duration": 94}, {"note": 66, "velocity": 81, "duration": 350}, {"note": 0, "velocity": 0, "duration": 130}, {"note": 68, "velocity": 84, "duration": 325}, {"note": 0, "velocity": 0, "duration": 155}, {"note": 66, "velocity": 82, "duration": 1049}, {"note": 0, "velocity": 0, "duration": 391}, {"note": 56, "velocity": 85, "duration": 291}, {"note": 0, "velocity": 0, "duration": 189}, {"note": 56, "velocity": 84, "duration": 311}, {"note": 0, "velocity": 0, "duration": 169}, {"note": 56, "velocity": 87, "duration": 433}, {"note": 66, "velocity": 81, "duration": 846}, {"note": 0, "velocity": 0, "duration": 114}, {"note": 64, "velocity": 84, "duration": 174}, {"note": 0, "velocity": 0, "duration": 66}, {"note": 61, "velocity": 81, "duration": 206}, {"note": 63, "velocity": 81, "duration": 2564}, {"note": 0, "velocity": 0, "duration": 316}, {"note": 61, "velocity": 88, "duration": 846}, {"note": 0, "velocity": 0, "duration": 114}, {"note": 68, "velocity": 84, "duration": 372}, {"note": 0, "velocity": 0, "duration": 108}, {"note": 68, "velocity": 88, "duration": 840}, {"note": 0, "velocity": 0, "duration": 120}, {"note": 66, "velocity": 83, "duration": 380}, {"note": 0, "velocity": 0, "duration": 100}, {"note": 68, "velocity": 85, "duration": 1982}, {"note": 0, "velocity": 0, "duration": 898}, {"note": 66, "velocity": 81, "duration": 855}, {"note": 0, "velocity": 0, "duration": 105}, {"note": 68, "velocity": 84, "duration": 341}, {"note": 0, "velocity": 0, "duration": 139}, {"note": 64, "velocity": 83, "duration": 352}, {"note": 0, "velocity": 0, "duration": 128}, {"note": 61, "velocity": 85, "duration": 437}, {"note": 59, "velocity": 85, "duration": 385}, {"note": 0, "velocity": 0, "duration": 95}, {"note": 61, "velocity": 85, "duration": 1889}, {"note": 0, "velocity": 0, "duration": 991}, {"note": 61, "velocity": 88, "duration": 374}, {"note": 0, "velocity": 0, "duration": 106}, {"note": 61, "velocity": 85, "duration": 386}, {"note": 0, "velocity": 0, "duration": 94}, {"note": 61, "velocity": 85, "duration": 393}, {"note": 0, "velocity": 0, "duration": 87}, {"note": 68, "velocity": 82, "duration": 816}, {"note": 0, "velocity": 0, "duration": 144}, {"note": 68, "velocity": 88, "duration": 168}, {"note": 0, "velocity": 0, "duration": 72}, {"note": 66, "velocity": 80, "duration": 155}, {"note": 0, "velocity": 0, "duration": 85}, {"note": 64, "velocity": 82, "duration": 386}, {"note": 0, "velocity": 0, "duration": 94}, {"note": 66, "velocity": 81, "duration": 350}, {"note": 0, "velocity": 0, "duration": 130}, {"note": 68, "velocity": 84, "duration": 325}, {"note": 0, "velocity": 0, "duration": 155}, {"note": 66, "velocity": 82, "duration": 1049}, {"note": 0, "velocity": 0, "duration": 391}, {"note": 56, "velocity": 85, "duration": 291}, {"note": 0, "velocity": 0, "duration": 189}, {"note": 56, "velocity": 84, "duration": 311}, {"note": 0, "velocity": 0, "duration": 169}, {"note": 56, "velocity": 87, "duration": 433}, {"note": 66, "velocity": 81, "duration": 846}, {"note": 0, "velocity": 0, "duration": 114}, {"note": 64, "velocity": 84, "duration": 174}, {"note": 0, "velocity": 0, "duration": 66}, {"note": 61, "velocity": 81, "duration": 206}, {"note": 61, "velocity": 81, "duration": 2564}, {"note": 0, "velocity": 0, "duration": 316}, {"note": 68, "velocity": 92, "duration": 805}, {"note": 0, "velocity": 0, "duration": 155}, {"note": 68, "velocity": 88, "duration": 351}, {"note": 0, "velocity": 0, "duration": 129}, {"note": 68, "velocity": 85, "duration": 964}, {"note": 66, "velocity": 90, "duration": 205}, {"note": 64, "velocity": 84, "duration": 207}, {"note": 68, "velocity": 87, "duration": 2429}, {"note": 0, "velocity": 0, "duration": 451}, {"note": 68, "velocity": 88, "duration": 371}, {"note": 0, "velocity": 0, "duration": 109}, {"note": 68, "velocity": 88, "duration": 341}, {"note": 0, "velocity": 0, "duration": 139}, {"note": 71, "velocity": 87, "duration": 345}, {"note": 0, "velocity": 0, "duration": 135}, {"note": 73, "velocity": 88, "duration": 909}, {"note": 71, "velocity": 87, "duration": 185}, {"note": 66, "velocity": 82, "duration": 181}, {"note": 68, "velocity": 87, "duration": 2483}, {"note": 0, "velocity": 0, "duration": 397}, {"note": 71, "velocity": 85, "duration": 315}, {"note": 0, "velocity": 0, "duration": 165}, {"note": 71, "velocity": 95, "duration": 369}, {"note": 0, "velocity": 0, "duration": 111}, {"note": 68, "velocity": 86, "duration": 325}, {"note": 0, "velocity": 0, "duration": 155}, {"note": 64, "velocity": 88, "duration": 480}, {"note": 63, "velocity": 87, "duration": 386}, {"note": 0, "velocity": 0, "duration": 94}, {"note": 61, "velocity": 85, "duration": 427}, {"note": 59, "velocity": 88, "duration": 958}, {"note": 56, "velocity": 85, "duration": 438}, {"note": 61, "velocity": 87, "duration": 1200}, {"note": 0, "velocity": 0, "duration": 240}, {"note": 64, "velocity": 88, "duration": 363}, {"note": 0, "velocity": 0, "duration": 117}, {"note": 64, "velocity": 87, "duration": 425}, {"note": 61, "velocity": 81, "duration": 412}, {"note": 0, "velocity": 0, "duration": 68}, {"note": 66, "velocity": 83, "duration": 899}, {"note": 0, "velocity": 0, "duration": 61}, {"note": 68, "velocity": 87, "duration": 336}, {"note": 0, "velocity": 0, "duration": 144}, {"note": 66, "velocity": 83, "duration": 2699}, {"note": 0, "velocity": 0, "duration": 181}, {"note": 68, "velocity": 92, "duration": 805}, {"note": 0, "velocity": 0, "duration": 155}, {"note": 68, "velocity": 88, "duration": 351}, {"note": 0, "velocity": 0, "duration": 129}, {"note": 68, "velocity": 85, "duration": 964}, {"note": 66, "velocity": 90, "duration": 205}, {"note": 64, "velocity": 84, "duration": 207}, {"note": 68, "velocity": 87, "duration": 2429}, {"note": 0, "velocity": 0, "duration": 451}, {"note": 68, "velocity": 88, "duration": 371}, {"note": 0, "velocity": 0, "duration": 109}, {"note": 68, "velocity": 88, "duration": 341}, {"note": 0, "velocity": 0, "duration": 139}, {"note": 71, "velocity": 87, "duration": 345}, {"note": 0, "velocity": 0, "duration": 135}, {"note": 73, "velocity": 88, "duration": 909}, {"note": 71, "velocity": 87, "duration": 185}, {"note": 66, "velocity": 82, "duration": 181}, {"note": 68, "velocity": 87, "duration": 2483}, {"note": 0, "velocity": 0, "duration": 397}, {"note": 71, "velocity": 85, "duration": 315}, {"note": 0, "velocity": 0, "duration": 165}, {"note": 71, "velocity": 95, "duration": 369}, {"note": 0, "velocity": 0, "duration": 111}, {"note": 68, "velocity": 86, "duration": 325}, {"note": 0, "velocity": 0, "duration": 155}, {"note": 64, "velocity": 88, "duration": 480}, {"note": 63, "velocity": 87, "duration": 386}, {"note": 0, "velocity": 0, "duration": 94}, {"note": 61, "velocity": 85, "duration": 427}, {"note": 59, "velocity": 88, "duration": 958}, {"note": 56, "velocity": 85, "duration": 438}, {"note": 61, "velocity": 87, "duration": 1200}, {"note": 0, "velocity": 0, "duration": 240}, {"note": 63, "velocity": 88, "duration": 363}, {"note": 0, "velocity": 0, "duration": 117}, {"note": 63, "velocity": 87, "duration": 425}, {"note": 59, "velocity": 81, "duration": 412}, {"note": 0, "velocity": 0, "duration": 68}, {"note": 66, "velocity": 83, "duration": 899}, {"note": 0, "velocity": 0, "duration": 61}, {"note": 68, "velocity": 87, "duration": 336}, {"note": 0, "velocity": 0, "duration": 144}, {"note": 64, "velocity": 83, "duration": 2699}, {"note": 0, "velocity": 0, "duration": 17461}, {"note": 61, "velocity": 88, "duration": 846}, {"note": 0, "velocity": 0, "duration": 114}, {"note": 68, "velocity": 84, "duration": 372}, {"note": 0, "velocity": 0, "duration": 108}, {"note": 68, "velocity": 88, "duration": 840}, {"note": 0, "velocity": 0, "duration": 120}, {"note": 66, "velocity": 83, "duration": 380}, {"note": 0, "velocity": 0, "duration": 100}, {"note": 68, "velocity": 85, "duration": 1982}, {"note": 0, "velocity": 0, "duration": 898}, {"note": 66, "velocity": 81, "duration": 855}, {"note": 0, "velocity": 0, "duration": 105}, {"note": 68, "velocity": 84, "duration": 341}, {"note": 0, "velocity": 0, "duration": 139}, {"note": 64, "velocity": 83, "duration": 352}, {"note": 0, "velocity": 0, "duration": 128}, {"note": 61, "velocity": 85, "duration": 437}, {"note": 59, "velocity": 85, "duration": 385}, {"note": 0, "velocity": 0, "duration": 95}, {"note": 61, "velocity": 85, "duration": 1889}, {"note": 0, "velocity": 0, "duration": 991}, {"note": 61, "velocity": 88, "duration": 374}, {"note": 0, "velocity": 0, "duration": 106}, {"note": 61, "velocity": 85, "duration": 386}, {"note": 0, "velocity": 0, "duration": 94}, {"note": 61, "velocity": 85, "duration": 393}, {"note": 0, "velocity": 0, "duration": 87}, {"note": 68, "velocity": 82, "duration": 816}, {"note": 0, "velocity": 0, "duration": 144}, {"note": 68, "velocity": 88, "duration": 168}, {"note": 0, "velocity": 0, "duration": 72}, {"note": 66, "velocity": 80, "duration": 155}, {"note": 0, "velocity": 0, "duration": 85}, {"note": 64, "velocity": 82, "duration": 386}, {"note": 0, "velocity": 0, "duration": 94}, {"note": 66, "velocity": 81, "duration": 350}, {"note": 0, "velocity": 0, "duration": 130}, {"note": 68, "velocity": 84, "duration": 325}, {"note": 0, "velocity": 0, "duration": 155}, {"note": 66, "velocity": 82, "duration": 1049}, {"note": 0, "velocity": 0, "duration": 391}, {"note": 56, "velocity": 85, "duration": 291}, {"note": 0, "velocity": 0, "duration": 189}, {"note": 56, "velocity": 84, "duration": 311}, {"note": 0, "velocity": 0, "duration": 169}, {"note": 56, "velocity": 87, "duration": 433}, {"note": 66, "velocity": 81, "duration": 846}, {"note": 0, "velocity": 0, "duration": 114}, {"note": 64, "velocity": 84, "duration": 174}, {"note": 0, "velocity": 0, "duration": 66}, {"note": 61, "velocity": 81, "duration": 206}, {"note": 61, "velocity": 81, "duration": 2564}, {"note": 0, "velocity": 0, "duration": 316}, {"note": 68, "velocity": 92, "duration": 805}, {"note": 0, "velocity": 0, "duration": 155}, {"note": 68, "velocity": 88, "duration": 351}, {"note": 0, "velocity": 0, "duration": 129}, {"note": 68, "velocity": 85, "duration": 964}, {"note": 66, "velocity": 90, "duration": 205}, {"note": 64, "velocity": 84, "duration": 207}, {"note": 68, "velocity": 87, "duration": 2429}, {"note": 0, "velocity": 0, "duration": 451}, {"note": 68, "velocity": 88, "duration": 371}, {"note": 0, "velocity": 0, "duration": 109}, {"note": 68, "velocity": 88, "duration": 341}, {"note": 0, "velocity": 0, "duration": 139}, {"note": 71, "velocity": 87, "duration": 345}, {"note": 0, "velocity": 0, "duration": 135}, {"note": 73, "velocity": 88, "duration": 909}, {"note": 71, "velocity": 87, "duration": 185}, {"note": 66, "velocity": 82, "duration": 181}, {"note": 68, "velocity": 87, "duration": 2483}, {"note": 0, "velocity": 0, "duration": 397}, {"note": 71, "velocity": 85, "duration": 315}, {"note": 0, "velocity": 0, "duration": 165}, {"note": 71, "velocity": 95, "duration": 369}, {"note": 0, "velocity": 0, "duration": 111}, {"note": 68, "velocity": 86, "duration": 325}, {"note": 0, "velocity": 0, "duration": 155}, {"note": 64, "velocity": 88, "duration": 480}, {"note": 63, "velocity": 87, "duration": 386}, {"note": 0, "velocity": 0, "duration": 94}, {"note": 61, "velocity": 85, "duration": 427}, {"note": 59, "velocity": 88, "duration": 958}, {"note": 56, "velocity": 85, "duration": 438}, {"note": 61, "velocity": 87, "duration": 1200}, {"note": 0, "velocity": 0, "duration": 240}, {"note": 64, "velocity": 88, "duration": 363}, {"note": 0, "velocity": 0, "duration": 117}, {"note": 64, "velocity": 87, "duration": 425}, {"note": 61, "velocity": 81, "duration": 412}, {"note": 0, "velocity": 0, "duration": 68}, {"note": 66, "velocity": 83, "duration": 899}, {"note": 0, "velocity": 0, "duration": 61}, {"note": 68, "velocity": 87, "duration": 336}, {"note": 0, "velocity": 0, "duration": 144}, {"note": 66, "velocity": 83, "duration": 2699}, {"note": 0, "velocity": 0, "duration": 181}, {"note": 68, "velocity": 92, "duration": 805}, {"note": 0, "velocity": 0, "duration": 155}, {"note": 68, "velocity": 88, "duration": 351}, {"note": 0, "velocity": 0, "duration": 129}, {"note": 68, "velocity": 85, "duration": 964}, {"note": 66, "velocity": 90, "duration": 205}, {"note": 64, "velocity": 84, "duration": 207}, {"note": 68, "velocity": 87, "duration": 2429}, {"note": 0, "velocity": 0, "duration": 451}, {"note": 68, "velocity": 88, "duration": 371}, {"note": 0, "velocity": 0, "duration": 109}, {"note": 68, "velocity": 88, "duration": 341}, {"note": 0, "velocity": 0, "duration": 139}, {"note": 71, "velocity": 87, "duration": 345}, {"note": 0, "velocity": 0, "duration": 135}, {"note": 73, "velocity": 88, "duration": 909}, {"note": 71, "velocity": 87, "duration": 185}, {"note": 66, "velocity": 82, "duration": 181}, {"note": 68, "velocity": 87, "duration": 2483}, {"note": 0, "velocity": 0, "duration": 397}, {"note": 71, "velocity": 85, "duration": 315}, {"note": 0, "velocity": 0, "duration": 165}, {"note": 71, "velocity": 95, "duration": 369}, {"note": 0, "velocity": 0, "duration": 111}, {"note": 68, "velocity": 86, "duration": 325}, {"note": 0, "velocity": 0, "duration": 155}, {"note": 64, "velocity": 88, "duration": 480}, {"note": 63, "velocity": 87, "duration": 386}, {"note": 0, "velocity": 0, "duration": 94}, {"note": 61, "velocity": 85, "duration": 427}, {"note": 59, "velocity": 88, "duration": 958}, {"note": 56, "velocity": 85, "duration": 438}, {"note": 61, "velocity": 87, "duration": 1200}, {"note": 0, "velocity": 0, "duration": 240}, {"note": 63, "velocity": 88, "duration": 363}, {"note": 0, "velocity": 0, "duration": 117}, {"note": 63, "velocity": 87, "duration": 425}, {"note": 59, "velocity": 81, "duration": 412}, {"note": 0, "velocity": 0, "duration": 68}, {"note": 66, "velocity": 83, "duration": 899}, {"note": 0, "velocity": 0, "duration": 61}, {"note": 68, "velocity": 87, "duration": 336}, {"note": 0, "velocity": 0, "duration": 144}, {"note": 64, "velocity": 83, "duration": 2699}, {"note": 0, "velocity": 0, "duration": 181}, {"note": 68, "velocity": 92, "duration": 805}, {"note": 0, "velocity": 0, "duration": 155}, {"note": 68, "velocity": 88, "duration": 351}, {"note": 0, "velocity": 0, "duration": 129}, {"note": 68, "velocity": 85, "duration": 964}, {"note": 66, "velocity": 90, "duration": 205}, {"note": 64, "velocity": 84, "duration": 207}, {"note": 68, "velocity": 87, "duration": 2429}, {"note": 0, "velocity": 0, "duration": 451}, {"note": 68, "velocity": 88, "duration": 371}, {"note": 0, "velocity": 0, "duration": 109}, {"note": 68, "velocity": 88, "duration": 341}, {"note": 0, "velocity": 0, "duration": 139}, {"note": 71, "velocity": 87, "duration": 345}, {"note": 0, "velocity": 0, "duration": 135}, {"note": 73, "velocity": 88, "duration": 909}, {"note": 71, "velocity": 87, "duration": 185}, {"note": 66, "velocity": 82, "duration": 181}, {"note": 68, "velocity": 87, "duration": 2483}, {"note": 0, "velocity": 0, "duration": 397}, {"note": 71, "velocity": 85, "duration": 315}, {"note": 0, "velocity": 0, "duration": 165}, {"note": 71, "velocity": 95, "duration": 369}, {"note": 0, "velocity": 0, "duration": 111}, {"note": 68, "velocity": 86, "duration": 325}, {"note": 0, "velocity": 0, "duration": 155}, {"note": 64, "velocity": 88, "duration": 480}, {"note": 63, "velocity": 87, "duration": 386}, {"note": 0, "velocity": 0, "duration": 94}, {"note": 61, "velocity": 85, "duration": 427}, {"note": 59, "velocity": 88, "duration": 958}, {"note": 56, "velocity": 85, "duration": 438}, {"note": 61, "velocity": 87, "duration": 1200}, {"note": 0, "velocity": 0, "duration": 240}, {"note": 64, "velocity": 88, "duration": 363}, {"note": 0, "velocity": 0, "duration": 117}, {"note": 64, "velocity": 87, "duration": 425}, {"note": 61, "velocity": 81, "duration": 412}, {"note": 0, "velocity": 0, "duration": 68}, {"note": 66, "velocity": 83, "duration": 899}, {"note": 0, "velocity": 0, "duration": 61}, {"note": 68, "velocity": 87, "duration": 240}, {"note": 66, "velocity": 87, "duration": 240}, {"note": 66, "velocity": 83, "duration": 2699}, {"note": 0, "velocity": 0, "duration": 181}, {"note": 68, "velocity": 92, "duration": 805}, {"note": 0, "velocity": 0, "duration": 155}, {"note": 68, "velocity": 88, "duration": 351}, {"note": 0, "velocity": 0, "duration": 129}, {"note": 68, "velocity": 85, "duration": 964}, {"note": 66, "velocity": 90, "duration": 205}, {"note": 64, "velocity": 84, "duration": 207}, {"note": 68, "velocity": 87, "duration": 2429}, {"note": 0, "velocity": 0, "duration": 451}, {"note": 68, "velocity": 88, "duration": 371}, {"note": 0, "velocity": 0, "duration": 109}, {"note": 68, "velocity": 88, "duration": 341}, {"note": 0, "velocity": 0, "duration": 139}, {"note": 71, "velocity": 87, "duration": 345}, {"note": 0, "velocity": 0, "duration": 135}, {"note": 73, "velocity": 88, "duration": 909}, {"note": 71, "velocity": 87, "duration": 185}, {"note": 66, "velocity": 82, "duration": 181}, {"note": 68, "velocity": 87, "duration": 2483}, {"note": 0, "velocity": 0, "duration": 397}, {"note": 71, "velocity": 85, "duration": 315}, {"note": 0, "velocity": 0, "duration": 165}, {"note": 71, "velocity": 95, "duration": 369}, {"note": 0, "velocity": 0, "duration": 111}, {"note": 68, "velocity": 86, "duration": 325}, {"note": 0, "velocity": 0, "duration": 155}, {"note": 64, "velocity": 88, "duration": 480}, {"note": 63, "velocity": 87, "duration": 386}, {"note": 0, "velocity": 0, "duration": 94}, {"note": 61, "velocity": 85, "duration": 427}, {"note": 59, "velocity": 88, "duration": 958}, {"note": 56, "velocity": 85, "duration": 438}, {"note": 61, "velocity": 87, "duration": 1200}, {"note": 0, "velocity": 0, "duration": 240}, {"note": 64, "velocity": 88, "duration": 363}, {"note": 0, "velocity": 0, "duration": 117}, {"note": 64, "velocity": 87, "duration": 425}, {"note": 61, "velocity": 81, "duration": 412}, {"note": 0, "velocity": 0, "duration": 68}, {"note": 66, "velocity": 83, "duration": 899}, {"note": 0, "velocity": 0, "duration": 61}, {"note": 66, "velocity": 87, "duration": 240}, {"note": 64, "velocity": 87, "duration": 240}, {"note": 64, "velocity": 83, "duration": 2699}]]