[[{"note": 65, "velocity": 88, "duration": 181}, {"note": 68, "velocity": 87, "duration": 192}, {"note": 70, "velocity": 84, "duration": 440}, {"note": 70, "velocity": 88, "duration": 202}, {"note": 77, "velocity": 85, "duration": 150}, {"note": 0, "velocity": 0, "duration": 90}, {"note": 75, "velocity": 90, "duration": 173}, {"note": 0, "velocity": 0, "duration": 67}, {"note": 73, "velocity": 87, "duration": 196}, {"note": 72, "velocity": 86, "duration": 227}, {"note": 75, "velocity": 93, "duration": 205}, {"note": 73, "velocity": 84, "duration": 161}, {"note": 0, "velocity": 0, "duration": 79}, {"note": 72, "velocity": 88, "duration": 207}, {"note": 70, "velocity": 80, "duration": 192}, {"note": 68, "velocity": 79, "duration": 190}, {"note": 70, "velocity": 82, "duration": 403}, {"note": 0, "velocity": 0, "duration": 317}, {"note": 68, "velocity": 84, "duration": 179}, {"note": 0, "velocity": 0, "duration": 61}, {"note": 70, "velocity": 84, "duration": 484}, {"note": 77, "velocity": 87, "duration": 376}, {"note": 0, "velocity": 0, "duration": 104}, {"note": 75, "velocity": 89, "duration": 374}, {"note": 0, "velocity": 0, "duration": 106}, {"note": 80, "velocity": 85, "duration": 350}, {"note": 0, "velocity": 0, "duration": 130}, {"note": 77, "velocity": 88, "duration": 1269}, {"note": 0, "velocity": 0, "duration": 171}, {"note": 65, "velocity": 88, "duration": 180}, {"note": 68, "velocity": 87, "duration": 165}, {"note": 0, "velocity": 0, "duration": 75}, {"note": 70, "velocity": 87, "duration": 367}, {"note": 0, "velocity": 0, "duration": 113}, {"note": 70, "velocity": 87, "duration": 185}, {"note": 77, "velocity": 89, "duration": 161}, {"note": 0, "velocity": 0, "duration": 79}, {"note": 75, "velocity": 90, "duration": 196}, {"note": 73, "velocity": 87, "duration": 187}, {"note": 72, "velocity": 88, "duration": 180}, {"note": 75, "velocity": 91, "duration": 169}, {"note": 0, "velocity": 0, "duration": 71}, {"note": 73, "velocity": 86, "duration": 185}, {"note": 72, "velocity": 87, "duration": 199}, {"note": 70, "velocity": 87, "duration": 161}, {"note": 0, "velocity": 0, "duration": 79}, {"note": 68, "velocity": 87, "duration": 181}, {"note": 70, "velocity": 87, "duration": 500}, {"note": 0, "velocity": 0, "duration": 220}, {"note": 68, "velocity": 84, "duration": 178}, {"note": 0, "velocity": 0, "duration": 62}, {"note": 70, "velocity": 87, "duration": 414}, {"note": 0, "velocity": 0, "duration": 66}, {"note": 77, "velocity": 92, "duration": 343}, {"note": 0, "velocity": 0, "duration": 137}, {"note": 75, "velocity": 92, "duration": 354}, {"note": 0, "velocity": 0, "duration": 126}, {"note": 72, "velocity": 82, "duration": 436}, {"note": 70, "velocity": 87, "duration": 1341}, {"note": 0, "velocity": 0, "duration": 99}, {"note": 73, "velocity": 90, "duration": 148}, {"note": 0, "velocity": 0, "duration": 92}, {"note": 75, "velocity": 90, "duration": 195}, {"note": 77, "velocity": 86, "duration": 342}, {"note": 0, "velocity": 0, "duration": 138}, {"note": 80, "velocity": 86, "duration": 387}, {"note": 0, "velocity": 0, "duration": 93}, {"note": 82, "velocity": 87, "duration": 173}, {"note": 0, "velocity": 0, "duration": 67}, {"note": 80, "velocity": 88, "duration": 189}, {"note": 77, "velocity": 90, "duration": 155}, {"note": 0, "velocity": 0, "duration": 85}, {"note": 75, "velocity": 79, "duration": 181}, {"note": 73, "velocity": 85, "duration": 422}, {"note": 73, "velocity": 85, "duration": 211}, {"note": 72, "velocity": 86, "duration": 184}, {"note": 73, "velocity": 87, "duration": 403}, {"note": 0, "velocity": 0, "duration": 317}, {"note": 72, "velocity": 86, "duration": 216}, {"note": 70, "velocity": 84, "duration": 447}, {"note": 77, "velocity": 88, "duration": 373}, {"note": 0, "velocity": 0, "duration": 107}, {"note": 75, "velocity": 87, "duration": 413}, {"note": 0, "velocity": 0, "duration": 67}, {"note": 80, "velocity": 88, "duration": 387}, {"note": 0, "velocity": 0, "duration": 93}, {"note": 77, "velocity": 92, "duration": 1245}, {"note": 0, "velocity": 0, "duration": 195}, {"note": 73, "velocity": 86, "duration": 173}, {"note": 0, "velocity": 0, "duration": 67}, {"note": 75, "velocity": 82, "duration": 238}, {"note": 77, "velocity": 89, "duration": 482}, {"note": 80, "velocity": 81, "duration": 434}, {"note": 82, "velocity": 87, "duration": 211}, {"note": 80, "velocity": 90, "duration": 213}, {"note": 77, "velocity": 89, "duration": 218}, {"note": 75, "velocity": 88, "duration": 218}, {"note": 73, "velocity": 85, "duration": 401}, {"note": 0, "velocity": 0, "duration": 79}, {"note": 73, "velocity": 87, "duration": 188}, {"note": 72, "velocity": 83, "duration": 183}, {"note": 73, "velocity": 88, "duration": 616}, {"note": 0, "velocity": 0, "duration": 104}, {"note": 72, "velocity": 87, "duration": 184}, {"note": 73, "velocity": 88, "duration": 619}, {"note": 0, "velocity": 0, "duration": 101}, {"note": 73, "velocity": 87, "duration": 184}, {"note": 73, "velocity": 86, "duration": 162}, {"note": 0, "velocity": 0, "duration": 78}, {"note": 75, "velocity": 91, "duration": 160}, {"note": 0, "velocity": 0, "duration": 80}, {"note": 77, "velocity": 88, "duration": 354}, {"note": 0, "velocity": 0, "duration": 126}, {"note": 80, "velocity": 87, "duration": 720}, {"note": 77, "velocity": 97, "duration": 200}, {"note": 85, "velocity": 89, "duration": 175}, {"note": 0, "velocity": 0, "duration": 65}, {"note": 84, "velocity": 88, "duration": 204}, {"note": 82, "velocity": 90, "duration": 169}, {"note": 0, "velocity": 0, "duration": 71}, {"note": 80, "velocity": 87, "duration": 192}, {"note": 82, "velocity": 88, "duration": 390}, {"note": 0, "velocity": 0, "duration": 90}, {"note": 82, "velocity": 89, "duration": 165}, {"note": 0, "velocity": 0, "duration": 75}, {"note": 84, "velocity": 90, "duration": 141}, {"note": 0, "velocity": 0, "duration": 99}, {"note": 85, "velocity": 90, "duration": 168}, {"note": 0, "velocity": 0, "duration": 72}, {"note": 84, "velocity": 89, "duration": 172}, {"note": 0, "velocity": 0, "duration": 68}, {"note": 82, "velocity": 88, "duration": 207}, {"note": 80, "velocity": 87, "duration": 174}, {"note": 0, "velocity": 0, "duration": 66}, {"note": 80, "velocity": 87, "duration": 931}, {"note": 0, "velocity": 0, "duration": 269}, {"note": 77, "velocity": 88, "duration": 154}, {"note": 0, "velocity": 0, "duration": 86}, {"note": 77, "velocity": 92, "duration": 204}, {"note": 80, "velocity": 86, "duration": 177}, {"note": 0, "velocity": 0, "duration": 63}, {"note": 82, "velocity": 88, "duration": 210}, {"note": 73, "velocity": 87, "duration": 166}, {"note": 0, "velocity": 0, "duration": 74}, {"note": 73, "velocity": 92, "duration": 171}, {"note": 0, "velocity": 0, "duration": 69}, {"note": 73, "velocity": 86, "duration": 151}, {"note": 0, "velocity": 0, "duration": 89}, {"note": 73, "velocity": 81, "duration": 111}, {"note": 0, "velocity": 0, "duration": 129}, {"note": 75, "velocity": 84, "duration": 240}, {"note": 75, "velocity": 84, "duration": 240}, {"note": 73, "velocity": 89, "duration": 166}, {"note": 0, "velocity": 0, "duration": 74}, {"note": 75, "velocity": 92, "duration": 184}, {"note": 77, "velocity": 86, "duration": 177}, {"note": 0, "velocity": 0, "duration": 63}, {"note": 77, "velocity": 90, "duration": 177}, {"note": 0, "velocity": 0, "duration": 63}, {"note": 75, "velocity": 88, "duration": 176}, {"note": 0, "velocity": 0, "duration": 64}, {"note": 77, "velocity": 90, "duration": 479}, {"note": 0, "velocity": 0, "duration": 241}, {"note": 75, "velocity": 89, "duration": 181}, {"note": 75, "velocity": 91, "duration": 172}, {"note": 0, "velocity": 0, "duration": 68}, {"note": 73, "velocity": 88, "duration": 160}, {"note": 0, "velocity": 0, "duration": 80}, {"note": 73, "velocity": 82, "duration": 134}, {"note": 0, "velocity": 0, "duration": 106}, {"note": 72, "velocity": 90, "duration": 166}, {"note": 0, "velocity": 0, "duration": 74}, {"note": 73, "velocity": 87, "duration": 151}, {"note": 0, "velocity": 0, "duration": 89}, {"note": 75, "velocity": 95, "duration": 480}, {"note": 77, "velocity": 92, "duration": 172}, {"note": 0, "velocity": 0, "duration": 68}, {"note": 84, "velocity": 87, "duration": 173}, {"note": 0, "velocity": 0, "duration": 67}, {"note": 85, "velocity": 87, "duration": 163}, {"note": 0, "velocity": 0, "duration": 77}, {"note": 84, "velocity": 90, "duration": 173}, {"note": 0, "velocity": 0, "duration": 67}, {"note": 82, "velocity": 89, "duration": 160}, {"note": 0, "velocity": 0, "duration": 80}, {"note": 80, "velocity": 89, "duration": 240}, {"note": 80, "velocity": 87, "duration": 421}, {"note": 80, "velocity": 87, "duration": 171}, {"note": 0, "velocity": 0, "duration": 69}, {"note": 82, "velocity": 88, "duration": 365}, {"note": 0, "velocity": 0, "duration": 355}, {"note": 82, "velocity": 91, "duration": 166}, {"note": 0, "velocity": 0, "duration": 74}, {"note": 82, "velocity": 90, "duration": 404}, {"note": 0, "velocity": 0, "duration": 76}, {"note": 82, "velocity": 87, "duration": 357}, {"note": 0, "velocity": 0, "duration": 123}, {"note": 80, "velocity": 91, "duration": 960}, {"note": 85, "velocity": 91, "duration": 168}, {"note": 0, "velocity": 0, "duration": 72}, {"note": 84, "velocity": 83, "duration": 160}, {"note": 0, "velocity": 0, "duration": 80}, {"note": 82, "velocity": 90, "duration": 192}, {"note": 80, "velocity": 90, "duration": 196}, {"note": 82, "velocity": 89, "duration": 417}, {"note": 0, "velocity": 0, "duration": 63}, {"note": 82, "velocity": 90, "duration": 166}, {"note": 0, "velocity": 0, "duration": 74}, {"note": 84, "velocity": 88, "duration": 161}, {"note": 0, "velocity": 0, "duration": 79}, {"note": 85, "velocity": 93, "duration": 180}, {"note": 84, "velocity": 87, "duration": 210}, {"note": 82, "velocity": 90, "duration": 453}, {"note": 80, "velocity": 87, "duration": 1031}, {"note": 0, "velocity": 0, "duration": 169}, {"note": 77, "velocity": 90, "duration": 158}, {"note": 0, "velocity": 0, "duration": 82}, {"note": 77, "velocity": 93, "duration": 161}, {"note": 0, "velocity": 0, "duration": 79}, {"note": 80, "velocity": 88, "duration": 160}, {"note": 0, "velocity": 0, "duration": 80}, {"note": 82, "velocity": 87, "duration": 171}, {"note": 0, "velocity": 0, "duration": 69}, {"note": 73, "velocity": 60, "duration": 161}, {"note": 0, "velocity": 0, "duration": 79}, {"note": 73, "velocity": 88, "duration": 169}, {"note": 0, "velocity": 0, "duration": 71}, {"note": 73, "velocity": 90, "duration": 146}, {"note": 0, "velocity": 0, "duration": 94}, {"note": 73, "velocity": 90, "duration": 188}, {"note": 75, "velocity": 92, "duration": 161}, {"note": 0, "velocity": 0, "duration": 79}, {"note": 75, "velocity": 102, "duration": 180}, {"note": 73, "velocity": 85, "duration": 180}, {"note": 75, "velocity": 92, "duration": 245}, {"note": 77, "velocity": 86, "duration": 169}, {"note": 0, "velocity": 0, "duration": 71}, {"note": 77, "velocity": 89, "duration": 240}, {"note": 75, "velocity": 89, "duration": 240}, {"note": 77, "velocity": 90, "duration": 624}, {"note": 0, "velocity": 0, "duration": 96}, {"note": 75, "velocity": 90, "duration": 167}, {"note": 0, "velocity": 0, "duration": 73}, {"note": 75, "velocity": 93, "duration": 172}, {"note": 0, "velocity": 0, "duration": 68}, {"note": 73, "velocity": 86, "duration": 176}, {"note": 0, "velocity": 0, "duration": 64}, {"note": 73, "velocity": 88, "duration": 171}, {"note": 0, "velocity": 0, "duration": 69}, {"note": 72, "velocity": 87, "duration": 176}, {"note": 0, "velocity": 0, "duration": 64}, {"note": 73, "velocity": 86, "duration": 149}, {"note": 0, "velocity": 0, "duration": 91}, {"note": 75, "velocity": 93, "duration": 161}, {"note": 0, "velocity": 0, "duration": 79}, {"note": 77, "velocity": 90, "duration": 146}, {"note": 0, "velocity": 0, "duration": 94}, {"note": 80, "velocity": 87, "duration": 127}, {"note": 0, "velocity": 0, "duration": 113}, {"note": 84, "velocity": 89, "duration": 149}, {"note": 0, "velocity": 0, "duration": 91}, {"note": 85, "velocity": 90, "duration": 176}, {"note": 0, "velocity": 0, "duration": 64}, {"note": 84, "velocity": 90, "duration": 145}, {"note": 0, "velocity": 0, "duration": 95}, {"note": 82, "velocity": 87, "duration": 480}, {"note": 80, "velocity": 87, "duration": 480}, {"note": 80, "velocity": 93, "duration": 173}, {"note": 0, "velocity": 0, "duration": 67}, {"note": 82, "velocity": 85, "duration": 372}, {"note": 0, "velocity": 0, "duration": 108}, {"note": 82, "velocity": 88, "duration": 240}, {"note": 82, "velocity": 88, "duration": 240}, {"note": 82, "velocity": 87, "duration": 418}, {"note": 0, "velocity": 0, "duration": 62}, {"note": 82, "velocity": 85, "duration": 391}, {"note": 0, "velocity": 0, "duration": 89}, {"note": 80, "velocity": 88, "duration": 1820}, {"note": 0, "velocity": 0, "duration": 1540}, {"note": 65, "velocity": 88, "duration": 181}, {"note": 68, "velocity": 87, "duration": 192}, {"note": 70, "velocity": 84, "duration": 440}, {"note": 70, "velocity": 88, "duration": 202}, {"note": 77, "velocity": 85, "duration": 150}, {"note": 0, "velocity": 0, "duration": 90}, {"note": 75, "velocity": 90, "duration": 173}, {"note": 0, "velocity": 0, "duration": 67}, {"note": 73, "velocity": 87, "duration": 196}, {"note": 72, "velocity": 86, "duration": 227}, {"note": 75, "velocity": 93, "duration": 205}, {"note": 73, "velocity": 84, "duration": 161}, {"note": 0, "velocity": 0, "duration": 79}, {"note": 72, "velocity": 88, "duration": 207}, {"note": 70, "velocity": 80, "duration": 192}, {"note": 68, "velocity": 79, "duration": 190}, {"note": 70, "velocity": 82, "duration": 403}, {"note": 0, "velocity": 0, "duration": 317}, {"note": 68, "velocity": 84, "duration": 179}, {"note": 0, "velocity": 0, "duration": 61}, {"note": 70, "velocity": 84, "duration": 484}, {"note": 77, "velocity": 87, "duration": 376}, {"note": 0, "velocity": 0, "duration": 104}, {"note": 75, "velocity": 89, "duration": 374}, {"note": 0, "velocity": 0, "duration": 106}, {"note": 80, "velocity": 85, "duration": 350}, {"note": 0, "velocity": 0, "duration": 130}, {"note": 77, "velocity": 88, "duration": 1269}, {"note": 0, "velocity": 0, "duration": 171}, {"note": 65, "velocity": 88, "duration": 180}, {"note": 68, "velocity": 87, "duration": 165}, {"note": 0, "velocity": 0, "duration": 75}, {"note": 70, "velocity": 87, "duration": 367}, {"note": 0, "velocity": 0, "duration": 113}, {"note": 70, "velocity": 87, "duration": 185}, {"note": 77, "velocity": 89, "duration": 161}, {"note": 0, "velocity": 0, "duration": 79}, {"note": 75, "velocity": 90, "duration": 196}, {"note": 73, "velocity": 87, "duration": 187}, {"note": 72, "velocity": 88, "duration": 180}, {"note": 75, "velocity": 91, "duration": 169}, {"note": 0, "velocity": 0, "duration": 71}, {"note": 73, "velocity": 86, "duration": 185}, {"note": 72, "velocity": 87, "duration": 199}, {"note": 70, "velocity": 87, "duration": 161}, {"note": 0, "velocity": 0, "duration": 79}, {"note": 68, "velocity": 87, "duration": 181}, {"note": 70, "velocity": 87, "duration": 500}, {"note": 0, "velocity": 0, "duration": 220}, {"note": 68, "velocity": 84, "duration": 178}, {"note": 0, "velocity": 0, "duration": 62}, {"note": 70, "velocity": 87, "duration": 414}, {"note": 0, "velocity": 0, "duration": 66}, {"note": 77, "velocity": 92, "duration": 343}, {"note": 0, "velocity": 0, "duration": 137}, {"note": 75, "velocity": 92, "duration": 354}, {"note": 0, "velocity": 0, "duration": 126}, {"note": 72, "velocity": 82, "duration": 436}, {"note": 70, "velocity": 87, "duration": 1341}, {"note": 0, "velocity": 0, "duration": 15459}, {"note": 73, "velocity": 90, "duration": 148}, {"note": 0, "velocity": 0, "duration": 92}, {"note": 75, "velocity": 90, "duration": 195}, {"note": 77, "velocity": 86, "duration": 342}, {"note": 0, "velocity": 0, "duration": 138}, {"note": 80, "velocity": 86, "duration": 387}, {"note": 0, "velocity": 0, "duration": 93}, {"note": 82, "velocity": 87, "duration": 173}, {"note": 0, "velocity": 0, "duration": 67}, {"note": 80, "velocity": 88, "duration": 189}, {"note": 77, "velocity": 90, "duration": 155}, {"note": 0, "velocity": 0, "duration": 85}, {"note": 75, "velocity": 79, "duration": 181}, {"note": 73, "velocity": 85, "duration": 422}, {"note": 73, "velocity": 85, "duration": 211}, {"note": 72, "velocity": 86, "duration": 184}, {"note": 73, "velocity": 87, "duration": 403}, {"note": 0, "velocity": 0, "duration": 317}, {"note": 72, "velocity": 86, "duration": 216}, {"note": 70, "velocity": 84, "duration": 447}, {"note": 77, "velocity": 88, "duration": 373}, {"note": 0, "velocity": 0, "duration": 107}, {"note": 75, "velocity": 87, "duration": 413}, {"note": 0, "velocity": 0, "duration": 67}, {"note": 80, "velocity": 88, "duration": 387}, {"note": 0, "velocity": 0, "duration": 93}, {"note": 77, "velocity": 92, "duration": 1245}, {"note": 0, "velocity": 0, "duration": 195}, {"note": 73, "velocity": 86, "duration": 173}, {"note": 0, "velocity": 0, "duration": 67}, {"note": 75, "velocity": 82, "duration": 238}, {"note": 77, "velocity": 89, "duration": 482}, {"note": 80, "velocity": 81, "duration": 434}, {"note": 82, "velocity": 87, "duration": 211}, {"note": 80, "velocity": 90, "duration": 213}, {"note": 77, "velocity": 89, "duration": 218}, {"note": 75, "velocity": 88, "duration": 218}, {"note": 73, "velocity": 85, "duration": 401}, {"note": 0, "velocity": 0, "duration": 79}, {"note": 73, "velocity": 87, "duration": 188}, {"note": 72, "velocity": 83, "duration": 183}, {"note": 73, "velocity": 88, "duration": 616}, {"note": 0, "velocity": 0, "duration": 104}, {"note": 72, "velocity": 87, "duration": 184}, {"note": 73, "velocity": 88, "duration": 619}, {"note": 0, "velocity": 0, "duration": 101}, {"note": 73, "velocity": 87, "duration": 184}, {"note": 73, "velocity": 86, "duration": 162}, {"note": 0, "velocity": 0, "duration": 78}, {"note": 75, "velocity": 91, "duration": 160}, {"note": 0, "velocity": 0, "duration": 80}, {"note": 77, "velocity": 88, "duration": 354}, {"note": 0, "velocity": 0, "duration": 126}, {"note": 80, "velocity": 87, "duration": 720}, {"note": 77, "velocity": 97, "duration": 200}, {"note": 85, "velocity": 89, "duration": 175}, {"note": 0, "velocity": 0, "duration": 65}, {"note": 84, "velocity": 88, "duration": 204}, {"note": 82, "velocity": 90, "duration": 169}, {"note": 0, "velocity": 0, "duration": 71}, {"note": 80, "velocity": 87, "duration": 192}, {"note": 82, "velocity": 88, "duration": 390}, {"note": 0, "velocity": 0, "duration": 90}, {"note": 82, "velocity": 89, "duration": 165}, {"note": 0, "velocity": 0, "duration": 75}, {"note": 84, "velocity": 90, "duration": 141}, {"note": 0, "velocity": 0, "duration": 99}, {"note": 85, "velocity": 90, "duration": 168}, {"note": 0, "velocity": 0, "duration": 72}, {"note": 84, "velocity": 89, "duration": 172}, {"note": 0, "velocity": 0, "duration": 68}, {"note": 82, "velocity": 88, "duration": 207}, {"note": 80, "velocity": 87, "duration": 174}, {"note": 0, "velocity": 0, "duration": 66}, {"note": 80, "velocity": 87, "duration": 931}, {"note": 0, "velocity": 0, "duration": 269}, {"note": 77, "velocity": 88, "duration": 154}, {"note": 0, "velocity": 0, "duration": 86}, {"note": 77, "velocity": 92, "duration": 204}, {"note": 80, "velocity": 86, "duration": 177}, {"note": 0, "velocity": 0, "duration": 63}, {"note": 82, "velocity": 88, "duration": 210}, {"note": 73, "velocity": 87, "duration": 166}, {"note": 0, "velocity": 0, "duration": 74}, {"note": 73, "velocity": 92, "duration": 171}, {"note": 0, "velocity": 0, "duration": 69}, {"note": 73, "velocity": 86, "duration": 151}, {"note": 0, "velocity": 0, "duration": 89}, {"note": 73, "velocity": 81, "duration": 111}, {"note": 0, "velocity": 0, "duration": 129}, {"note": 75, "velocity": 84, "duration": 240}, {"note": 75, "velocity": 84, "duration": 240}, {"note": 73, "velocity": 89, "duration": 166}, {"note": 0, "velocity": 0, "duration": 74}, {"note": 75, "velocity": 92, "duration": 184}, {"note": 77, "velocity": 86, "duration": 177}, {"note": 0, "velocity": 0, "duration": 63}, {"note": 77, "velocity": 90, "duration": 177}, {"note": 0, "velocity": 0, "duration": 63}, {"note": 75, "velocity": 88, "duration": 176}, {"note": 0, "velocity": 0, "duration": 64}, {"note": 77, "velocity": 90, "duration": 479}, {"note": 0, "velocity": 0, "duration": 241}, {"note": 75, "velocity": 89, "duration": 181}, {"note": 75, "velocity": 91, "duration": 172}, {"note": 0, "velocity": 0, "duration": 68}, {"note": 73, "velocity": 88, "duration": 160}, {"note": 0, "velocity": 0, "duration": 80}, {"note": 73, "velocity": 82, "duration": 134}, {"note": 0, "velocity": 0, "duration": 106}, {"note": 72, "velocity": 90, "duration": 166}, {"note": 0, "velocity": 0, "duration": 74}, {"note": 73, "velocity": 87, "duration": 151}, {"note": 0, "velocity": 0, "duration": 89}, {"note": 75, "velocity": 95, "duration": 480}, {"note": 77, "velocity": 92, "duration": 172}, {"note": 0, "velocity": 0, "duration": 68}, {"note": 84, "velocity": 87, "duration": 173}, {"note": 0, "velocity": 0, "duration": 67}, {"note": 85, "velocity": 87, "duration": 163}, {"note": 0, "velocity": 0, "duration": 77}, {"note": 84, "velocity": 90, "duration": 173}, {"note": 0, "velocity": 0, "duration": 67}, {"note": 82, "velocity": 89, "duration": 160}, {"note": 0, "velocity": 0, "duration": 80}, {"note": 80, "velocity": 89, "duration": 240}, {"note": 80, "velocity": 87, "duration": 421}, {"note": 80, "velocity": 87, "duration": 171}, {"note": 0, "velocity": 0, "duration": 69}, {"note": 82, "velocity": 88, "duration": 365}, {"note": 0, "velocity": 0, "duration": 355}, {"note": 82, "velocity": 91, "duration": 166}, {"note": 0, "velocity": 0, "duration": 74}, {"note": 82, "velocity": 90, "duration": 404}, {"note": 0, "velocity": 0, "duration": 76}, {"note": 82, "velocity": 87, "duration": 357}, {"note": 0, "velocity": 0, "duration": 123}, {"note": 80, "velocity": 91, "duration": 960}, {"note": 85, "velocity": 91, "duration": 168}, {"note": 0, "velocity": 0, "duration": 72}, {"note": 84, "velocity": 83, "duration": 160}, {"note": 0, "velocity": 0, "duration": 80}, {"note": 82, "velocity": 90, "duration": 192}, {"note": 80, "velocity": 90, "duration": 196}, {"note": 82, "velocity": 89, "duration": 417}, {"note": 0, "velocity": 0, "duration": 63}, {"note": 82, "velocity": 90, "duration": 166}, {"note": 0, "velocity": 0, "duration": 74}, {"note": 84, "velocity": 88, "duration": 161}, {"note": 0, "velocity": 0, "duration": 79}, {"note": 85, "velocity": 93, "duration": 180}, {"note": 84, "velocity": 87, "duration": 210}, {"note": 82, "velocity": 90, "duration": 453}, {"note": 80, "velocity": 87, "duration": 1031}, {"note": 0, "velocity": 0, "duration": 169}, {"note": 77, "velocity": 90, "duration": 158}, {"note": 0, "velocity": 0, "duration": 82}, {"note": 77, "velocity": 93, "duration": 161}, {"note": 0, "velocity": 0, "duration": 79}, {"note": 80, "velocity": 88, "duration": 160}, {"note": 0, "velocity": 0, "duration": 80}, {"note": 82, "velocity": 87, "duration": 171}, {"note": 0, "velocity": 0, "duration": 69}, {"note": 73, "velocity": 60, "duration": 161}, {"note": 0, "velocity": 0, "duration": 79}, {"note": 73, "velocity": 88, "duration": 169}, {"note": 0, "velocity": 0, "duration": 71}, {"note": 73, "velocity": 90, "duration": 146}, {"note": 0, "velocity": 0, "duration": 94}, {"note": 73, "velocity": 90, "duration": 188}, {"note": 75, "velocity": 92, "duration": 161}, {"note": 0, "velocity": 0, "duration": 79}, {"note": 75, "velocity": 102, "duration": 180}, {"note": 73, "velocity": 85, "duration": 180}, {"note": 75, "velocity": 92, "duration": 245}, {"note": 77, "velocity": 86, "duration": 169}, {"note": 0, "velocity": 0, "duration": 71}, {"note": 77, "velocity": 89, "duration": 240}, {"note": 75, "velocity": 89, "duration": 240}, {"note": 77, "velocity": 90, "duration": 624}, {"note": 0, "velocity": 0, "duration": 96}, {"note": 75, "velocity": 90, "duration": 167}, {"note": 0, "velocity": 0, "duration": 73}, {"note": 75, "velocity": 93, "duration": 172}, {"note": 0, "velocity": 0, "duration": 68}, {"note": 73, "velocity": 86, "duration": 176}, {"note": 0, "velocity": 0, "duration": 64}, {"note": 73, "velocity": 88, "duration": 171}, {"note": 0, "velocity": 0, "duration": 69}, {"note": 72, "velocity": 87, "duration": 176}, {"note": 0, "velocity": 0, "duration": 64}, {"note": 73, "velocity": 86, "duration": 149}, {"note": 0, "velocity": 0, "duration": 91}, {"note": 75, "velocity": 93, "duration": 161}, {"note": 0, "velocity": 0, "duration": 79}, {"note": 77, "velocity": 90, "duration": 146}, {"note": 0, "velocity": 0, "duration": 94}, {"note": 80, "velocity": 87, "duration": 127}, {"note": 0, "velocity": 0, "duration": 113}, {"note": 84, "velocity": 89, "duration": 149}, {"note": 0, "velocity": 0, "duration": 91}, {"note": 85, "velocity": 90, "duration": 176}, {"note": 0, "velocity": 0, "duration": 64}, {"note": 84, "velocity": 90, "duration": 145}, {"note": 0, "velocity": 0, "duration": 95}, {"note": 82, "velocity": 87, "duration": 480}, {"note": 80, "velocity": 87, "duration": 480}, {"note": 80, "velocity": 93, "duration": 173}, {"note": 0, "velocity": 0, "duration": 67}, {"note": 82, "velocity": 85, "duration": 372}, {"note": 0, "velocity": 0, "duration": 108}, {"note": 82, "velocity": 88, "duration": 240}, {"note": 82, "velocity": 88, "duration": 240}, {"note": 82, "velocity": 87, "duration": 418}, {"note": 0, "velocity": 0, "duration": 62}, {"note": 82, "velocity": 85, "duration": 391}, {"note": 0, "velocity": 0, "duration": 89}, {"note": 80, "velocity": 88, "duration": 1820}, {"note": 0, "velocity": 0, "duration": 1540}, {"note": 65, "velocity": 88, "duration": 181}, {"note": 68, "velocity": 87, "duration": 192}, {"note": 70, "velocity": 84, "duration": 440}, {"note": 70, "velocity": 88, "duration": 202}, {"note": 77, "velocity": 85, "duration": 150}, {"note": 0, "velocity": 0, "duration": 90}, {"note": 75, "velocity": 90, "duration": 173}, {"note": 0, "velocity": 0, "duration": 67}, {"note": 73, "velocity": 87, "duration": 196}, {"note": 72, "velocity": 86, "duration": 227}, {"note": 75, "velocity": 93, "duration": 205}, {"note": 73, "velocity": 84, "duration": 161}, {"note": 0, "velocity": 0, "duration": 79}, {"note": 72, "velocity": 88, "duration": 207}, {"note": 70, "velocity": 80, "duration": 192}, {"note": 68, "velocity": 79, "duration": 190}, {"note": 70, "velocity": 82, "duration": 403}, {"note": 0, "velocity": 0, "duration": 317}, {"note": 68, "velocity": 84, "duration": 179}, {"note": 0, "velocity": 0, "duration": 61}, {"note": 70, "velocity": 84, "duration": 484}, {"note": 77, "velocity": 87, "duration": 376}, {"note": 0, "velocity": 0, "duration": 104}, {"note": 75, "velocity": 89, "duration": 374}, {"note": 0, "velocity": 0, "duration": 106}, {"note": 80, "velocity": 85, "duration": 350}, {"note": 0, "velocity": 0, "duration": 130}, {"note": 77, "velocity": 88, "duration": 1269}, {"note": 0, "velocity": 0, "duration": 171}, {"note": 65, "velocity": 88, "duration": 180}, {"note": 68, "velocity": 87, "duration": 165}, {"note": 0, "velocity": 0, "duration": 75}, {"note": 70, "velocity": 87, "duration": 367}, {"note": 0, "velocity": 0, "duration": 113}, {"note": 70, "velocity": 87, "duration": 185}, {"note": 77, "velocity": 89, "duration": 161}, {"note": 0, "velocity": 0, "duration": 79}, {"note": 75, "velocity": 90, "duration": 196}, {"note": 73, "velocity": 87, "duration": 187}, {"note": 72, "velocity": 88, "duration": 180}, {"note": 75, "velocity": 91, "duration": 169}, {"note": 0, "velocity": 0, "duration": 71}, {"note": 73, "velocity": 86, "duration": 185}, {"note": 72, "velocity": 87, "duration": 199}, {"note": 70, "velocity": 87, "duration": 161}, {"note": 0, "velocity": 0, "duration": 79}, {"note": 68, "velocity": 87, "duration": 181}, {"note": 70, "velocity": 87, "duration": 500}, {"note": 0, "velocity": 0, "duration": 220}, {"note": 68, "velocity": 84, "duration": 178}, {"note": 0, "velocity": 0, "duration": 62}, {"note": 70, "velocity": 87, "duration": 414}, {"note": 0, "velocity": 0, "duration": 66}, {"note": 77, "velocity": 92, "duration": 343}, {"note": 0, "velocity": 0, "duration": 137}, {"note": 75, "velocity": 92, "duration": 354}, {"note": 0, "velocity": 0, "duration": 126}, {"note": 72, "velocity": 82, "duration": 436}, {"note": 70, "velocity": 87, "duration": 1341}, {"note": 0, "velocity": 0, "duration": 338}, {"note": 68, "velocity": 77, "duration": 230}, {"note": 0, "velocity": 0, "duration": 81}, {"note": 70, "velocity": 86, "duration": 693}, {"note": 77, "velocity": 86, "duration": 774}, {"note": 75, "velocity": 87, "duration": 1736}, {"note": 0, "velocity": 0, "duration": 196}, {"note": 73, "velocity": 85, "duration": 703}, {"note": 72, "velocity": 81, "duration": 286}, {"note": 70, "velocity": 77, "duration": 2813}]]