[[{"note": 73, "velocity": 90, "duration": 173}, {"note": 0, "velocity": 0, "duration": 67}, {"note": 75, "velocity": 93, "duration": 181}, {"note": 77, "velocity": 91, "duration": 431}, {"note": 80, "velocity": 90, "duration": 153}, {"note": 0, "velocity": 0, "duration": 87}, {"note": 77, "velocity": 91, "duration": 922}, {"note": 0, "velocity": 0, "duration": 278}, {"note": 77, "velocity": 91, "duration": 371}, {"note": 0, "velocity": 0, "duration": 109}, {"note": 80, "velocity": 85, "duration": 172}, {"note": 0, "velocity": 0, "duration": 68}, {"note": 77, "velocity": 90, "duration": 791}, {"note": 0, "velocity": 0, "duration": 169}, {"note": 77, "velocity": 90, "duration": 166}, {"note": 0, "velocity": 0, "duration": 74}, {"note": 75, "velocity": 93, "duration": 178}, {"note": 0, "velocity": 0, "duration": 62}, {"note": 73, "velocity": 89, "duration": 113}, {"note": 0, "velocity": 0, "duration": 127}, {"note": 70, "velocity": 83, "duration": 155}, {"note": 0, "velocity": 0, "duration": 85}, {"note": 77, "velocity": 92, "duration": 144}, {"note": 0, "velocity": 0, "duration": 96}, {"note": 75, "velocity": 93, "duration": 356}, {"note": 0, "velocity": 0, "duration": 124}, {"note": 73, "velocity": 90, "duration": 136}, {"note": 0, "velocity": 0, "duration": 104}, {"note": 77, "velocity": 89, "duration": 150}, {"note": 0, "velocity": 0, "duration": 90}, {"note": 75, "velocity": 91, "duration": 375}, {"note": 0, "velocity": 0, "duration": 105}, {"note": 73, "velocity": 87, "duration": 161}, {"note": 0, "velocity": 0, "duration": 79}, {"note": 75, "velocity": 89, "duration": 602}, {"note": 0, "velocity": 0, "duration": 118}, {"note": 73, "velocity": 89, "duration": 127}, {"note": 0, "velocity": 0, "duration": 113}, {"note": 75, "velocity": 89, "duration": 146}, {"note": 0, "velocity": 0, "duration": 94}, {"note": 77, "velocity": 90, "duration": 357}, {"note": 0, "velocity": 0, "duration": 123}, {"note": 68, "velocity": 82, "duration": 187}, {"note": 70, "velocity": 91, "duration": 364}, {"note": 0, "velocity": 0, "duration": 116}, {"note": 73, "velocity": 85, "duration": 161}, {"note": 0, "velocity": 0, "duration": 79}, {"note": 75, "velocity": 90, "duration": 198}, {"note": 73, "velocity": 84, "duration": 197}, {"note": 70, "velocity": 84, "duration": 370}, {"note": 0, "velocity": 0, "duration": 110}, {"note": 68, "velocity": 87, "duration": 216}, {"note": 70, "velocity": 91, "duration": 598}, {"note": 0, "velocity": 0, "duration": 122}, {"note": 73, "velocity": 89, "duration": 194}, {"note": 75, "velocity": 90, "duration": 161}, {"note": 0, "velocity": 0, "duration": 79}, {"note": 77, "velocity": 90, "duration": 385}, {"note": 0, "velocity": 0, "duration": 95}, {"note": 75, "velocity": 92, "duration": 164}, {"note": 0, "velocity": 0, "duration": 76}, {"note": 77, "velocity": 91, "duration": 141}, {"note": 0, "velocity": 0, "duration": 99}, {"note": 80, "velocity": 91, "duration": 152}, {"note": 0, "velocity": 0, "duration": 88}, {"note": 77, "velocity": 93, "duration": 169}, {"note": 0, "velocity": 0, "duration": 71}, {"note": 77, "velocity": 86, "duration": 186}, {"note": 80, "velocity": 84, "duration": 480}, {"note": 75, "velocity": 90, "duration": 972}, {"note": 0, "velocity": 0, "duration": 228}, {"note": 73, "velocity": 90, "duration": 173}, {"note": 0, "velocity": 0, "duration": 67}, {"note": 75, "velocity": 93, "duration": 181}, {"note": 77, "velocity": 91, "duration": 431}, {"note": 80, "velocity": 90, "duration": 153}, {"note": 0, "velocity": 0, "duration": 87}, {"note": 77, "velocity": 91, "duration": 922}, {"note": 0, "velocity": 0, "duration": 278}, {"note": 77, "velocity": 91, "duration": 371}, {"note": 0, "velocity": 0, "duration": 109}, {"note": 80, "velocity": 85, "duration": 172}, {"note": 0, "velocity": 0, "duration": 68}, {"note": 77, "velocity": 90, "duration": 791}, {"note": 0, "velocity": 0, "duration": 169}, {"note": 77, "velocity": 90, "duration": 166}, {"note": 0, "velocity": 0, "duration": 74}, {"note": 75, "velocity": 93, "duration": 178}, {"note": 0, "velocity": 0, "duration": 62}, {"note": 73, "velocity": 89, "duration": 113}, {"note": 0, "velocity": 0, "duration": 127}, {"note": 70, "velocity": 83, "duration": 155}, {"note": 0, "velocity": 0, "duration": 85}, {"note": 77, "velocity": 92, "duration": 144}, {"note": 0, "velocity": 0, "duration": 96}, {"note": 75, "velocity": 93, "duration": 356}, {"note": 0, "velocity": 0, "duration": 124}, {"note": 73, "velocity": 90, "duration": 136}, {"note": 0, "velocity": 0, "duration": 104}, {"note": 77, "velocity": 89, "duration": 150}, {"note": 0, "velocity": 0, "duration": 90}, {"note": 75, "velocity": 91, "duration": 375}, {"note": 0, "velocity": 0, "duration": 105}, {"note": 73, "velocity": 87, "duration": 161}, {"note": 0, "velocity": 0, "duration": 79}, {"note": 75, "velocity": 89, "duration": 602}, {"note": 0, "velocity": 0, "duration": 118}, {"note": 73, "velocity": 89, "duration": 127}, {"note": 0, "velocity": 0, "duration": 113}, {"note": 75, "velocity": 89, "duration": 146}, {"note": 0, "velocity": 0, "duration": 94}, {"note": 77, "velocity": 90, "duration": 357}, {"note": 0, "velocity": 0, "duration": 123}, {"note": 68, "velocity": 82, "duration": 187}, {"note": 70, "velocity": 91, "duration": 364}, {"note": 0, "velocity": 0, "duration": 116}, {"note": 73, "velocity": 85, "duration": 161}, {"note": 0, "velocity": 0, "duration": 79}, {"note": 75, "velocity": 90, "duration": 198}, {"note": 73, "velocity": 84, "duration": 197}, {"note": 70, "velocity": 84, "duration": 370}, {"note": 0, "velocity": 0, "duration": 110}, {"note": 68, "velocity": 87, "duration": 216}, {"note": 70, "velocity": 91, "duration": 598}, {"note": 0, "velocity": 0, "duration": 362}, {"note": 73, "velocity": 90, "duration": 161}, {"note": 0, "velocity": 0, "duration": 79}, {"note": 80, "velocity": 90, "duration": 240}, {"note": 77, "velocity": 92, "duration": 164}, {"note": 0, "velocity": 0, "duration": 76}, {"note": 73, "velocity": 91, "duration": 141}, {"note": 0, "velocity": 0, "duration": 99}, {"note": 80, "velocity": 91, "duration": 152}, {"note": 0, "velocity": 0, "duration": 88}, {"note": 77, "velocity": 93, "duration": 169}, {"note": 0, "velocity": 0, "duration": 71}, {"note": 73, "velocity": 86, "duration": 186}, {"note": 75, "velocity": 86, "duration": 186}, {"note": 70, "velocity": 84, "duration": 240}, {"note": 73, "velocity": 90, "duration": 1440}, {"note": 0, "velocity": 0, "duration": 1680}, {"note": 73, "velocity": 90, "duration": 147}, {"note": 0, "velocity": 0, "duration": 93}, {"note": 75, "velocity": 93, "duration": 185}, {"note": 77, "velocity": 90, "duration": 182}, {"note": 80, "velocity": 90, "duration": 159}, {"note": 0, "velocity": 0, "duration": 81}, {"note": 77, "velocity": 90, "duration": 127}, {"note": 0, "velocity": 0, "duration": 113}, {"note": 77, "velocity": 90, "duration": 365}, {"note": 0, "velocity": 0, "duration": 115}, {"note": 75, "velocity": 95, "duration": 212}, {"note": 73, "velocity": 84, "duration": 170}, {"note": 0, "velocity": 0, "duration": 70}, {"note": 73, "velocity": 87, "duration": 397}, {"note": 0, "velocity": 0, "duration": 83}, {"note": 75, "velocity": 91, "duration": 178}, {"note": 0, "velocity": 0, "duration": 62}, {"note": 80, "velocity": 90, "duration": 355}, {"note": 0, "velocity": 0, "duration": 125}, {"note": 77, "velocity": 93, "duration": 480}, {"note": 0, "velocity": 0, "duration": 240}, {"note": 77, "velocity": 98, "duration": 206}, {"note": 80, "velocity": 93, "duration": 172}, {"note": 0, "velocity": 0, "duration": 68}, {"note": 85, "velocity": 92, "duration": 159}, {"note": 0, "velocity": 0, "duration": 81}, {"note": 82, "velocity": 88, "duration": 164}, {"note": 0, "velocity": 0, "duration": 76}, {"note": 80, "velocity": 93, "duration": 136}, {"note": 0, "velocity": 0, "duration": 104}, {"note": 77, "velocity": 95, "duration": 146}, {"note": 0, "velocity": 0, "duration": 94}, {"note": 75, "velocity": 93, "duration": 208}, {"note": 80, "velocity": 90, "duration": 720}, {"note": 77, "velocity": 90, "duration": 1250}, {"note": 0, "velocity": 0, "duration": 430}, {"note": 80, "velocity": 89, "duration": 163}, {"note": 0, "velocity": 0, "duration": 77}, {"note": 82, "velocity": 93, "duration": 132}, {"note": 0, "velocity": 0, "duration": 108}, {"note": 80, "velocity": 89, "duration": 211}, {"note": 78, "velocity": 90, "duration": 176}, {"note": 0, "velocity": 0, "duration": 64}, {"note": 77, "velocity": 95, "duration": 127}, {"note": 0, "velocity": 0, "duration": 113}, {"note": 75, "velocity": 91, "duration": 391}, {"note": 0, "velocity": 0, "duration": 89}, {"note": 77, "velocity": 90, "duration": 132}, {"note": 0, "velocity": 0, "duration": 108}, {"note": 78, "velocity": 89, "duration": 134}, {"note": 0, "velocity": 0, "duration": 106}, {"note": 80, "velocity": 93, "duration": 332}, {"note": 0, "velocity": 0, "duration": 148}, {"note": 72, "velocity": 89, "duration": 160}, {"note": 0, "velocity": 0, "duration": 80}, {"note": 73, "velocity": 90, "duration": 480}, {"note": 77, "velocity": 91, "duration": 153}, {"note": 0, "velocity": 0, "duration": 87}, {"note": 77, "velocity": 91, "duration": 155}, {"note": 0, "velocity": 0, "duration": 85}, {"note": 75, "velocity": 95, "duration": 133}, {"note": 0, "velocity": 0, "duration": 107}, {"note": 73, "velocity": 92, "duration": 174}, {"note": 0, "velocity": 0, "duration": 66}, {"note": 85, "velocity": 92, "duration": 127}, {"note": 0, "velocity": 0, "duration": 113}, {"note": 85, "velocity": 94, "duration": 115}, {"note": 0, "velocity": 0, "duration": 125}, {"note": 80, "velocity": 87, "duration": 118}, {"note": 0, "velocity": 0, "duration": 122}, {"note": 82, "velocity": 91, "duration": 375}, {"note": 0, "velocity": 0, "duration": 105}, {"note": 80, "velocity": 90, "duration": 158}, {"note": 0, "velocity": 0, "duration": 82}, {"note": 77, "velocity": 89, "duration": 162}, {"note": 0, "velocity": 0, "duration": 78}, {"note": 75, "velocity": 92, "duration": 991}, {"note": 0, "velocity": 0, "duration": 209}, {"note": 73, "velocity": 90, "duration": 147}, {"note": 0, "velocity": 0, "duration": 93}, {"note": 75, "velocity": 93, "duration": 185}, {"note": 77, "velocity": 90, "duration": 182}, {"note": 80, "velocity": 90, "duration": 159}, {"note": 0, "velocity": 0, "duration": 81}, {"note": 77, "velocity": 90, "duration": 127}, {"note": 0, "velocity": 0, "duration": 113}, {"note": 77, "velocity": 90, "duration": 365}, {"note": 0, "velocity": 0, "duration": 115}, {"note": 75, "velocity": 95, "duration": 212}, {"note": 73, "velocity": 84, "duration": 170}, {"note": 0, "velocity": 0, "duration": 70}, {"note": 73, "velocity": 87, "duration": 397}, {"note": 0, "velocity": 0, "duration": 83}, {"note": 75, "velocity": 91, "duration": 178}, {"note": 0, "velocity": 0, "duration": 62}, {"note": 80, "velocity": 90, "duration": 355}, {"note": 0, "velocity": 0, "duration": 125}, {"note": 77, "velocity": 93, "duration": 480}, {"note": 0, "velocity": 0, "duration": 240}, {"note": 77, "velocity": 98, "duration": 206}, {"note": 80, "velocity": 93, "duration": 172}, {"note": 0, "velocity": 0, "duration": 68}, {"note": 85, "velocity": 92, "duration": 159}, {"note": 0, "velocity": 0, "duration": 81}, {"note": 82, "velocity": 88, "duration": 164}, {"note": 0, "velocity": 0, "duration": 76}, {"note": 80, "velocity": 93, "duration": 136}, {"note": 0, "velocity": 0, "duration": 104}, {"note": 82, "velocity": 95, "duration": 146}, {"note": 0, "velocity": 0, "duration": 94}, {"note": 75, "velocity": 93, "duration": 208}, {"note": 80, "velocity": 90, "duration": 720}, {"note": 77, "velocity": 90, "duration": 1250}, {"note": 0, "velocity": 0, "duration": 430}, {"note": 80, "velocity": 89, "duration": 163}, {"note": 0, "velocity": 0, "duration": 77}, {"note": 82, "velocity": 93, "duration": 132}, {"note": 0, "velocity": 0, "duration": 108}, {"note": 80, "velocity": 89, "duration": 211}, {"note": 78, "velocity": 90, "duration": 176}, {"note": 0, "velocity": 0, "duration": 64}, {"note": 77, "velocity": 95, "duration": 127}, {"note": 0, "velocity": 0, "duration": 113}, {"note": 75, "velocity": 91, "duration": 391}, {"note": 0, "velocity": 0, "duration": 89}, {"note": 77, "velocity": 90, "duration": 132}, {"note": 0, "velocity": 0, "duration": 108}, {"note": 78, "velocity": 89, "duration": 134}, {"note": 0, "velocity": 0, "duration": 106}, {"note": 80, "velocity": 93, "duration": 332}, {"note": 0, "velocity": 0, "duration": 148}, {"note": 72, "velocity": 89, "duration": 160}, {"note": 0, "velocity": 0, "duration": 80}, {"note": 73, "velocity": 90, "duration": 480}, {"note": 0, "velocity": 0, "duration": 480}, {"note": 77, "velocity": 91, "duration": 169}, {"note": 0, "velocity": 0, "duration": 71}, {"note": 77, "velocity": 93, "duration": 185}, {"note": 75, "velocity": 91, "duration": 146}, {"note": 0, "velocity": 0, "duration": 94}, {"note": 77, "velocity": 96, "duration": 170}, {"note": 0, "velocity": 0, "duration": 70}, {"note": 80, "velocity": 93, "duration": 155}, {"note": 0, "velocity": 0, "duration": 85}, {"note": 77, "velocity": 96, "duration": 285}, {"note": 0, "velocity": 0, "duration": 195}, {"note": 68, "velocity": 91, "duration": 240}, {"note": 75, "velocity": 93, "duration": 1330}, {"note": 0, "velocity": 0, "duration": 110}, {"note": 77, "velocity": 93, "duration": 461}, {"note": 80, "velocity": 91, "duration": 201}, {"note": 77, "velocity": 95, "duration": 220}, {"note": 75, "velocity": 88, "duration": 258}, {"note": 73, "velocity": 90, "duration": 2589}, {"note": 0, "velocity": 0, "duration": 11811}, {"note": 73, "velocity": 90, "duration": 173}, {"note": 0, "velocity": 0, "duration": 67}, {"note": 75, "velocity": 93, "duration": 181}, {"note": 77, "velocity": 91, "duration": 431}, {"note": 80, "velocity": 90, "duration": 153}, {"note": 0, "velocity": 0, "duration": 87}, {"note": 77, "velocity": 91, "duration": 922}, {"note": 0, "velocity": 0, "duration": 278}, {"note": 77, "velocity": 91, "duration": 371}, {"note": 0, "velocity": 0, "duration": 109}, {"note": 80, "velocity": 85, "duration": 172}, {"note": 0, "velocity": 0, "duration": 68}, {"note": 77, "velocity": 90, "duration": 791}, {"note": 0, "velocity": 0, "duration": 169}, {"note": 77, "velocity": 90, "duration": 166}, {"note": 0, "velocity": 0, "duration": 74}, {"note": 75, "velocity": 93, "duration": 178}, {"note": 0, "velocity": 0, "duration": 62}, {"note": 73, "velocity": 89, "duration": 113}, {"note": 0, "velocity": 0, "duration": 127}, {"note": 70, "velocity": 83, "duration": 155}, {"note": 0, "velocity": 0, "duration": 85}, {"note": 77, "velocity": 92, "duration": 144}, {"note": 0, "velocity": 0, "duration": 96}, {"note": 75, "velocity": 93, "duration": 356}, {"note": 0, "velocity": 0, "duration": 124}, {"note": 73, "velocity": 90, "duration": 136}, {"note": 0, "velocity": 0, "duration": 104}, {"note": 77, "velocity": 89, "duration": 150}, {"note": 0, "velocity": 0, "duration": 90}, {"note": 75, "velocity": 91, "duration": 375}, {"note": 0, "velocity": 0, "duration": 105}, {"note": 73, "velocity": 87, "duration": 161}, {"note": 0, "velocity": 0, "duration": 79}, {"note": 75, "velocity": 89, "duration": 602}, {"note": 0, "velocity": 0, "duration": 118}, {"note": 73, "velocity": 89, "duration": 127}, {"note": 0, "velocity": 0, "duration": 113}, {"note": 75, "velocity": 89, "duration": 146}, {"note": 0, "velocity": 0, "duration": 94}, {"note": 77, "velocity": 90, "duration": 357}, {"note": 0, "velocity": 0, "duration": 123}, {"note": 68, "velocity": 82, "duration": 187}, {"note": 70, "velocity": 91, "duration": 364}, {"note": 0, "velocity": 0, "duration": 116}, {"note": 73, "velocity": 85, "duration": 161}, {"note": 0, "velocity": 0, "duration": 79}, {"note": 75, "velocity": 90, "duration": 198}, {"note": 73, "velocity": 84, "duration": 197}, {"note": 70, "velocity": 84, "duration": 370}, {"note": 0, "velocity": 0, "duration": 110}, {"note": 68, "velocity": 87, "duration": 216}, {"note": 70, "velocity": 91, "duration": 598}, {"note": 0, "velocity": 0, "duration": 362}, {"note": 73, "velocity": 90, "duration": 161}, {"note": 0, "velocity": 0, "duration": 79}, {"note": 80, "velocity": 90, "duration": 240}, {"note": 77, "velocity": 92, "duration": 164}, {"note": 0, "velocity": 0, "duration": 76}, {"note": 73, "velocity": 91, "duration": 141}, {"note": 0, "velocity": 0, "duration": 99}, {"note": 80, "velocity": 91, "duration": 152}, {"note": 0, "velocity": 0, "duration": 88}, {"note": 77, "velocity": 93, "duration": 169}, {"note": 0, "velocity": 0, "duration": 71}, {"note": 73, "velocity": 86, "duration": 186}, {"note": 75, "velocity": 86, "duration": 186}, {"note": 70, "velocity": 84, "duration": 240}, {"note": 73, "velocity": 90, "duration": 1440}, {"note": 0, "velocity": 0, "duration": 1680}, {"note": 73, "velocity": 90, "duration": 147}, {"note": 0, "velocity": 0, "duration": 93}, {"note": 75, "velocity": 93, "duration": 185}, {"note": 77, "velocity": 90, "duration": 182}, {"note": 80, "velocity": 90, "duration": 159}, {"note": 0, "velocity": 0, "duration": 81}, {"note": 77, "velocity": 90, "duration": 127}, {"note": 0, "velocity": 0, "duration": 113}, {"note": 77, "velocity": 90, "duration": 365}, {"note": 0, "velocity": 0, "duration": 115}, {"note": 75, "velocity": 95, "duration": 212}, {"note": 73, "velocity": 84, "duration": 170}, {"note": 0, "velocity": 0, "duration": 70}, {"note": 73, "velocity": 87, "duration": 397}, {"note": 0, "velocity": 0, "duration": 83}, {"note": 75, "velocity": 91, "duration": 178}, {"note": 0, "velocity": 0, "duration": 62}, {"note": 80, "velocity": 90, "duration": 355}, {"note": 0, "velocity": 0, "duration": 125}, {"note": 77, "velocity": 93, "duration": 480}, {"note": 0, "velocity": 0, "duration": 240}, {"note": 77, "velocity": 98, "duration": 206}, {"note": 80, "velocity": 93, "duration": 172}, {"note": 0, "velocity": 0, "duration": 68}, {"note": 85, "velocity": 92, "duration": 159}, {"note": 0, "velocity": 0, "duration": 81}, {"note": 82, "velocity": 88, "duration": 164}, {"note": 0, "velocity": 0, "duration": 76}, {"note": 80, "velocity": 93, "duration": 136}, {"note": 0, "velocity": 0, "duration": 104}, {"note": 77, "velocity": 95, "duration": 146}, {"note": 0, "velocity": 0, "duration": 94}, {"note": 75, "velocity": 93, "duration": 208}, {"note": 80, "velocity": 90, "duration": 720}, {"note": 77, "velocity": 90, "duration": 1250}, {"note": 0, "velocity": 0, "duration": 430}, {"note": 80, "velocity": 89, "duration": 163}, {"note": 0, "velocity": 0, "duration": 77}, {"note": 82, "velocity": 93, "duration": 132}, {"note": 0, "velocity": 0, "duration": 108}, {"note": 80, "velocity": 89, "duration": 211}, {"note": 78, "velocity": 90, "duration": 176}, {"note": 0, "velocity": 0, "duration": 64}, {"note": 77, "velocity": 95, "duration": 127}, {"note": 0, "velocity": 0, "duration": 113}, {"note": 75, "velocity": 91, "duration": 391}, {"note": 0, "velocity": 0, "duration": 89}, {"note": 77, "velocity": 90, "duration": 132}, {"note": 0, "velocity": 0, "duration": 108}, {"note": 78, "velocity": 89, "duration": 134}, {"note": 0, "velocity": 0, "duration": 106}, {"note": 80, "velocity": 93, "duration": 332}, {"note": 0, "velocity": 0, "duration": 148}, {"note": 72, "velocity": 89, "duration": 160}, {"note": 0, "velocity": 0, "duration": 80}, {"note": 73, "velocity": 90, "duration": 480}, {"note": 77, "velocity": 91, "duration": 153}, {"note": 0, "velocity": 0, "duration": 87}, {"note": 77, "velocity": 91, "duration": 155}, {"note": 0, "velocity": 0, "duration": 85}, {"note": 75, "velocity": 95, "duration": 133}, {"note": 0, "velocity": 0, "duration": 107}, {"note": 73, "velocity": 92, "duration": 174}, {"note": 0, "velocity": 0, "duration": 66}, {"note": 85, "velocity": 92, "duration": 127}, {"note": 0, "velocity": 0, "duration": 113}, {"note": 85, "velocity": 94, "duration": 115}, {"note": 0, "velocity": 0, "duration": 125}, {"note": 80, "velocity": 87, "duration": 118}, {"note": 0, "velocity": 0, "duration": 122}, {"note": 82, "velocity": 91, "duration": 375}, {"note": 0, "velocity": 0, "duration": 105}, {"note": 80, "velocity": 90, "duration": 158}, {"note": 0, "velocity": 0, "duration": 82}, {"note": 77, "velocity": 89, "duration": 162}, {"note": 0, "velocity": 0, "duration": 78}, {"note": 75, "velocity": 92, "duration": 991}, {"note": 0, "velocity": 0, "duration": 209}, {"note": 73, "velocity": 90, "duration": 147}, {"note": 0, "velocity": 0, "duration": 93}, {"note": 75, "velocity": 93, "duration": 185}, {"note": 77, "velocity": 90, "duration": 182}, {"note": 80, "velocity": 90, "duration": 159}, {"note": 0, "velocity": 0, "duration": 81}, {"note": 77, "velocity": 90, "duration": 127}, {"note": 0, "velocity": 0, "duration": 113}, {"note": 77, "velocity": 90, "duration": 365}, {"note": 0, "velocity": 0, "duration": 115}, {"note": 75, "velocity": 95, "duration": 212}, {"note": 73, "velocity": 84, "duration": 170}, {"note": 0, "velocity": 0, "duration": 70}, {"note": 73, "velocity": 87, "duration": 397}, {"note": 0, "velocity": 0, "duration": 83}, {"note": 75, "velocity": 91, "duration": 178}, {"note": 0, "velocity": 0, "duration": 62}, {"note": 80, "velocity": 90, "duration": 355}, {"note": 0, "velocity": 0, "duration": 125}, {"note": 77, "velocity": 93, "duration": 480}, {"note": 0, "velocity": 0, "duration": 240}, {"note": 77, "velocity": 98, "duration": 206}, {"note": 80, "velocity": 93, "duration": 172}, {"note": 0, "velocity": 0, "duration": 68}, {"note": 85, "velocity": 92, "duration": 159}, {"note": 0, "velocity": 0, "duration": 81}, {"note": 82, "velocity": 88, "duration": 164}, {"note": 0, "velocity": 0, "duration": 76}, {"note": 80, "velocity": 93, "duration": 136}, {"note": 0, "velocity": 0, "duration": 104}, {"note": 82, "velocity": 95, "duration": 146}, {"note": 0, "velocity": 0, "duration": 94}, {"note": 75, "velocity": 93, "duration": 208}, {"note": 80, "velocity": 90, "duration": 720}, {"note": 77, "velocity": 90, "duration": 1250}, {"note": 0, "velocity": 0, "duration": 430}, {"note": 80, "velocity": 89, "duration": 163}, {"note": 0, "velocity": 0, "duration": 77}, {"note": 82, "velocity": 93, "duration": 132}, {"note": 0, "velocity": 0, "duration": 108}, {"note": 80, "velocity": 89, "duration": 211}, {"note": 78, "velocity": 90, "duration": 176}, {"note": 0, "velocity": 0, "duration": 64}, {"note": 77, "velocity": 95, "duration": 127}, {"note": 0, "velocity": 0, "duration": 113}, {"note": 75, "velocity": 91, "duration": 391}, {"note": 0, "velocity": 0, "duration": 89}, {"note": 77, "velocity": 90, "duration": 132}, {"note": 0, "velocity": 0, "duration": 108}, {"note": 78, "velocity": 89, "duration": 134}, {"note": 0, "velocity": 0, "duration": 106}, {"note": 80, "velocity": 93, "duration": 332}, {"note": 0, "velocity": 0, "duration": 148}, {"note": 72, "velocity": 89, "duration": 160}, {"note": 0, "velocity": 0, "duration": 80}, {"note": 73, "velocity": 90, "duration": 480}, {"note": 0, "velocity": 0, "duration": 480}, {"note": 77, "velocity": 91, "duration": 169}, {"note": 0, "velocity": 0, "duration": 71}, {"note": 77, "velocity": 93, "duration": 185}, {"note": 75, "velocity": 91, "duration": 146}, {"note": 0, "velocity": 0, "duration": 94}, {"note": 77, "velocity": 96, "duration": 170}, {"note": 0, "velocity": 0, "duration": 70}, {"note": 80, "velocity": 93, "duration": 155}, {"note": 0, "velocity": 0, "duration": 85}, {"note": 77, "velocity": 96, "duration": 285}, {"note": 0, "velocity": 0, "duration": 195}, {"note": 68, "velocity": 91, "duration": 363}, {"note": 0, "velocity": 0, "duration": 117}, {"note": 75, "velocity": 93, "duration": 1090}, {"note": 0, "velocity": 0, "duration": 350}, {"note": 77, "velocity": 93, "duration": 221}, {"note": 80, "velocity": 91, "duration": 201}, {"note": 77, "velocity": 95, "duration": 220}, {"note": 75, "velocity": 88, "duration": 258}, {"note": 73, "velocity": 90, "duration": 2589}, {"note": 0, "velocity": 0, "duration": 1011}, {"note": 78, "velocity": 87, "duration": 165}, {"note": 0, "velocity": 0, "duration": 75}, {"note": 78, "velocity": 91, "duration": 192}, {"note": 77, "velocity": 93, "duration": 211}, {"note": 75, "velocity": 100, "duration": 152}, {"note": 0, "velocity": 0, "duration": 88}, {"note": 73, "velocity": 92, "duration": 209}, {"note": 70, "velocity": 93, "duration": 215}, {"note": 73, "velocity": 93, "duration": 159}, {"note": 0, "velocity": 0, "duration": 81}, {"note": 75, "velocity": 93, "duration": 151}, {"note": 0, "velocity": 0, "duration": 89}, {"note": 75, "velocity": 94, "duration": 163}, {"note": 0, "velocity": 0, "duration": 77}, {"note": 77, "velocity": 91, "duration": 171}, {"note": 0, "velocity": 0, "duration": 69}, {"note": 75, "velocity": 100, "duration": 501}, {"note": 0, "velocity": 0, "duration": 219}, {"note": 73, "velocity": 95, "duration": 164}, {"note": 0, "velocity": 0, "duration": 76}, {"note": 75, "velocity": 96, "duration": 226}, {"note": 80, "velocity": 92, "duration": 361}, {"note": 0, "velocity": 0, "duration": 119}, {"note": 77, "velocity": 93, "duration": 304}, {"note": 75, "velocity": 91, "duration": 82}, {"note": 77, "velocity": 91, "duration": 145}, {"note": 0, "velocity": 0, "duration": 95}, {"note": 75, "velocity": 105, "duration": 194}, {"note": 73, "velocity": 91, "duration": 346}, {"note": 0, "velocity": 0, "duration": 134}, {"note": 70, "velocity": 93, "duration": 174}, {"note": 0, "velocity": 0, "duration": 66}, {"note": 73, "velocity": 91, "duration": 720}, {"note": 0, "velocity": 0, "duration": 1200}, {"note": 78, "velocity": 91, "duration": 122}, {"note": 0, "velocity": 0, "duration": 118}, {"note": 78, "velocity": 90, "duration": 177}, {"note": 0, "velocity": 0, "duration": 63}, {"note": 77, "velocity": 91, "duration": 131}, {"note": 0, "velocity": 0, "duration": 109}, {"note": 78, "velocity": 95, "duration": 196}, {"note": 77, "velocity": 91, "duration": 189}, {"note": 75, "velocity": 96, "duration": 258}, {"note": 77, "velocity": 94, "duration": 219}, {"note": 78, "velocity": 93, "duration": 139}, {"note": 0, "velocity": 0, "duration": 101}, {"note": 78, "velocity": 90, "duration": 155}, {"note": 0, "velocity": 0, "duration": 85}, {"note": 80, "velocity": 91, "duration": 155}, {"note": 0, "velocity": 0, "duration": 85}, {"note": 82, "velocity": 90, "duration": 328}, {"note": 0, "velocity": 0, "duration": 392}, {"note": 82, "velocity": 98, "duration": 153}, {"note": 0, "velocity": 0, "duration": 87}, {"note": 85, "velocity": 106, "duration": 168}, {"note": 0, "velocity": 0, "duration": 72}, {"note": 84, "velocity": 96, "duration": 248}, {"note": 0, "velocity": 0, "duration": 112}, {"note": 82, "velocity": 94, "duration": 79}, {"note": 84, "velocity": 92, "duration": 164}, {"note": 0, "velocity": 0, "duration": 76}, {"note": 82, "velocity": 96, "duration": 127}, {"note": 0, "velocity": 0, "duration": 113}, {"note": 84, "velocity": 94, "duration": 126}, {"note": 0, "velocity": 0, "duration": 114}, {"note": 82, "velocity": 98, "duration": 143}, {"note": 0, "velocity": 0, "duration": 97}, {"note": 80, "velocity": 100, "duration": 117}, {"note": 0, "velocity": 0, "duration": 123}, {"note": 75, "velocity": 103, "duration": 159}, {"note": 0, "velocity": 0, "duration": 81}, {"note": 80, "velocity": 91, "duration": 2880}, {"note": 0, "velocity": 0, "duration": 240}, {"note": 73, "velocity": 90, "duration": 147}, {"note": 0, "velocity": 0, "duration": 93}, {"note": 75, "velocity": 93, "duration": 185}, {"note": 77, "velocity": 90, "duration": 182}, {"note": 80, "velocity": 90, "duration": 159}, {"note": 0, "velocity": 0, "duration": 81}, {"note": 77, "velocity": 90, "duration": 127}, {"note": 0, "velocity": 0, "duration": 113}, {"note": 77, "velocity": 90, "duration": 365}, {"note": 0, "velocity": 0, "duration": 115}, {"note": 75, "velocity": 95, "duration": 212}, {"note": 73, "velocity": 84, "duration": 170}, {"note": 0, "velocity": 0, "duration": 70}, {"note": 73, "velocity": 87, "duration": 397}, {"note": 0, "velocity": 0, "duration": 83}, {"note": 75, "velocity": 91, "duration": 178}, {"note": 0, "velocity": 0, "duration": 62}, {"note": 80, "velocity": 90, "duration": 355}, {"note": 0, "velocity": 0, "duration": 125}, {"note": 77, "velocity": 93, "duration": 480}, {"note": 0, "velocity": 0, "duration": 240}, {"note": 77, "velocity": 98, "duration": 206}, {"note": 80, "velocity": 93, "duration": 172}, {"note": 0, "velocity": 0, "duration": 68}, {"note": 85, "velocity": 92, "duration": 159}, {"note": 0, "velocity": 0, "duration": 81}, {"note": 82, "velocity": 88, "duration": 164}, {"note": 0, "velocity": 0, "duration": 76}, {"note": 80, "velocity": 93, "duration": 136}, {"note": 0, "velocity": 0, "duration": 104}, {"note": 77, "velocity": 95, "duration": 146}, {"note": 0, "velocity": 0, "duration": 94}, {"note": 75, "velocity": 93, "duration": 208}, {"note": 80, "velocity": 90, "duration": 720}, {"note": 77, "velocity": 90, "duration": 1250}, {"note": 0, "velocity": 0, "duration": 430}, {"note": 80, "velocity": 89, "duration": 163}, {"note": 0, "velocity": 0, "duration": 77}, {"note": 82, "velocity": 93, "duration": 132}, {"note": 0, "velocity": 0, "duration": 108}, {"note": 80, "velocity": 89, "duration": 211}, {"note": 78, "velocity": 90, "duration": 176}, {"note": 0, "velocity": 0, "duration": 64}, {"note": 77, "velocity": 95, "duration": 127}, {"note": 0, "velocity": 0, "duration": 113}, {"note": 75, "velocity": 91, "duration": 391}, {"note": 0, "velocity": 0, "duration": 89}, {"note": 77, "velocity": 90, "duration": 132}, {"note": 0, "velocity": 0, "duration": 108}, {"note": 78, "velocity": 89, "duration": 134}, {"note": 0, "velocity": 0, "duration": 106}, {"note": 80, "velocity": 93, "duration": 332}, {"note": 0, "velocity": 0, "duration": 148}, {"note": 72, "velocity": 89, "duration": 160}, {"note": 0, "velocity": 0, "duration": 80}, {"note": 73, "velocity": 90, "duration": 480}, {"note": 77, "velocity": 91, "duration": 153}, {"note": 0, "velocity": 0, "duration": 87}, {"note": 77, "velocity": 91, "duration": 155}, {"note": 0, "velocity": 0, "duration": 85}, {"note": 75, "velocity": 95, "duration": 133}, {"note": 0, "velocity": 0, "duration": 107}, {"note": 73, "velocity": 92, "duration": 174}, {"note": 0, "velocity": 0, "duration": 66}, {"note": 85, "velocity": 92, "duration": 127}, {"note": 0, "velocity": 0, "duration": 113}, {"note": 85, "velocity": 94, "duration": 115}, {"note": 0, "velocity": 0, "duration": 125}, {"note": 80, "velocity": 87, "duration": 118}, {"note": 0, "velocity": 0, "duration": 122}, {"note": 82, "velocity": 91, "duration": 375}, {"note": 0, "velocity": 0, "duration": 105}, {"note": 80, "velocity": 90, "duration": 158}, {"note": 0, "velocity": 0, "duration": 82}, {"note": 77, "velocity": 89, "duration": 162}, {"note": 0, "velocity": 0, "duration": 78}, {"note": 75, "velocity": 92, "duration": 991}, {"note": 0, "velocity": 0, "duration": 209}, {"note": 73, "velocity": 90, "duration": 147}, {"note": 0, "velocity": 0, "duration": 93}, {"note": 75, "velocity": 93, "duration": 185}, {"note": 77, "velocity": 90, "duration": 182}, {"note": 80, "velocity": 90, "duration": 159}, {"note": 0, "velocity": 0, "duration": 81}, {"note": 77, "velocity": 90, "duration": 127}, {"note": 0, "velocity": 0, "duration": 113}, {"note": 77, "velocity": 90, "duration": 365}, {"note": 0, "velocity": 0, "duration": 115}, {"note": 75, "velocity": 95, "duration": 212}, {"note": 73, "velocity": 84, "duration": 170}, {"note": 0, "velocity": 0, "duration": 70}, {"note": 73, "velocity": 87, "duration": 397}, {"note": 0, "velocity": 0, "duration": 83}, {"note": 75, "velocity": 91, "duration": 178}, {"note": 0, "velocity": 0, "duration": 62}, {"note": 80, "velocity": 90, "duration": 355}, {"note": 0, "velocity": 0, "duration": 125}, {"note": 77, "velocity": 93, "duration": 480}, {"note": 0, "velocity": 0, "duration": 240}, {"note": 77, "velocity": 98, "duration": 206}, {"note": 80, "velocity": 93, "duration": 172}, {"note": 0, "velocity": 0, "duration": 68}, {"note": 85, "velocity": 92, "duration": 159}, {"note": 0, "velocity": 0, "duration": 81}, {"note": 82, "velocity": 88, "duration": 164}, {"note": 0, "velocity": 0, "duration": 76}, {"note": 80, "velocity": 93, "duration": 136}, {"note": 0, "velocity": 0, "duration": 104}, {"note": 82, "velocity": 95, "duration": 146}, {"note": 0, "velocity": 0, "duration": 94}, {"note": 75, "velocity": 93, "duration": 208}, {"note": 80, "velocity": 90, "duration": 720}, {"note": 77, "velocity": 90, "duration": 1250}, {"note": 0, "velocity": 0, "duration": 430}, {"note": 80, "velocity": 89, "duration": 163}, {"note": 0, "velocity": 0, "duration": 77}, {"note": 82, "velocity": 93, "duration": 132}, {"note": 0, "velocity": 0, "duration": 108}, {"note": 80, "velocity": 89, "duration": 211}, {"note": 78, "velocity": 90, "duration": 176}, {"note": 0, "velocity": 0, "duration": 64}, {"note": 77, "velocity": 95, "duration": 127}, {"note": 0, "velocity": 0, "duration": 113}, {"note": 75, "velocity": 91, "duration": 391}, {"note": 0, "velocity": 0, "duration": 89}, {"note": 77, "velocity": 90, "duration": 132}, {"note": 0, "velocity": 0, "duration": 108}, {"note": 78, "velocity": 89, "duration": 134}, {"note": 0, "velocity": 0, "duration": 106}, {"note": 80, "velocity": 93, "duration": 332}, {"note": 0, "velocity": 0, "duration": 148}, {"note": 72, "velocity": 89, "duration": 160}, {"note": 0, "velocity": 0, "duration": 80}, {"note": 73, "velocity": 90, "duration": 480}, {"note": 0, "velocity": 0, "duration": 480}, {"note": 77, "velocity": 91, "duration": 169}, {"note": 0, "velocity": 0, "duration": 71}, {"note": 77, "velocity": 93, "duration": 185}, {"note": 75, "velocity": 91, "duration": 146}, {"note": 0, "velocity": 0, "duration": 94}, {"note": 77, "velocity": 96, "duration": 170}, {"note": 0, "velocity": 0, "duration": 70}, {"note": 80, "velocity": 93, "duration": 155}, {"note": 0, "velocity": 0, "duration": 85}, {"note": 77, "velocity": 96, "duration": 285}, {"note": 0, "velocity": 0, "duration": 195}, {"note": 68, "velocity": 91, "duration": 363}, {"note": 0, "velocity": 0, "duration": 117}, {"note": 75, "velocity": 93, "duration": 1090}, {"note": 0, "velocity": 0, "duration": 350}, {"note": 77, "velocity": 93, "duration": 221}, {"note": 80, "velocity": 91, "duration": 201}, {"note": 77, "velocity": 95, "duration": 220}, {"note": 75, "velocity": 88, "duration": 258}, {"note": 73, "velocity": 90, "duration": 2589}]]