[[{"note": 66, "velocity": 87, "duration": 294}, {"note": 0, "velocity": 0, "duration": 61}, {"note": 66, "velocity": 91, "duration": 128}, {"note": 68, "velocity": 93, "duration": 160}, {"note": 70, "velocity": 91, "duration": 311}, {"note": 75, "velocity": 93, "duration": 340}, {"note": 73, "velocity": 94, "duration": 838}, {"note": 54, "velocity": 92, "duration": 355}, {"note": 0, "velocity": 0, "duration": 69}, {"note": 54, "velocity": 86, "duration": 128}, {"note": 56, "velocity": 87, "duration": 113}, {"note": 58, "velocity": 92, "duration": 216}, {"note": 0, "velocity": 0, "duration": 103}, {"note": 63, "velocity": 96, "duration": 233}, {"note": 0, "velocity": 0, "duration": 66}, {"note": 61, "velocity": 87, "duration": 1828}, {"note": 0, "velocity": 0, "duration": 668}, {"note": 66, "velocity": 96, "duration": 256}, {"note": 82, "velocity": 96, "duration": 256}, {"note": 0, "velocity": 0, "duration": 70}, {"note": 66, "velocity": 95, "duration": 104}, {"note": 82, "velocity": 95, "duration": 105}, {"note": 68, "velocity": 94, "duration": 102}, {"note": 80, "velocity": 94, "duration": 102}, {"note": 70, "velocity": 94, "duration": 193}, {"note": 78, "velocity": 94, "duration": 192}, {"note": 0, "velocity": 0, "duration": 115}, {"note": 75, "velocity": 94, "duration": 1509}, {"note": 80, "velocity": 94, "duration": 1509}, {"note": 0, "velocity": 0, "duration": 269}, {"note": 70, "velocity": 93, "duration": 1398}, {"note": 73, "velocity": 97, "duration": 1398}, {"note": 0, "velocity": 0, "duration": 5802}, {"note": 70, "velocity": 94, "duration": 117}, {"note": 68, "velocity": 93, "duration": 109}, {"note": 66, "velocity": 95, "duration": 125}, {"note": 63, "velocity": 97, "duration": 140}, {"note": 66, "velocity": 95, "duration": 161}, {"note": 0, "velocity": 0, "duration": 79}, {"note": 66, "velocity": 96, "duration": 92}, {"note": 63, "velocity": 99, "duration": 118}, {"note": 66, "velocity": 96, "duration": 175}, {"note": 0, "velocity": 0, "duration": 65}, {"note": 70, "velocity": 93, "duration": 182}, {"note": 70, "velocity": 96, "duration": 349}, {"note": 0, "velocity": 0, "duration": 131}, {"note": 70, "velocity": 95, "duration": 113}, {"note": 68, "velocity": 92, "duration": 123}, {"note": 66, "velocity": 93, "duration": 108}, {"note": 63, "velocity": 97, "duration": 137}, {"note": 66, "velocity": 95, "duration": 151}, {"note": 0, "velocity": 0, "duration": 89}, {"note": 66, "velocity": 95, "duration": 86}, {"note": 63, "velocity": 98, "duration": 134}, {"note": 66, "velocity": 94, "duration": 133}, {"note": 0, "velocity": 0, "duration": 107}, {"note": 66, "velocity": 96, "duration": 137}, {"note": 0, "velocity": 0, "duration": 103}, {"note": 66, "velocity": 93, "duration": 348}, {"note": 0, "velocity": 0, "duration": 132}, {"note": 70, "velocity": 94, "duration": 97}, {"note": 68, "velocity": 94, "duration": 97}, {"note": 66, "velocity": 97, "duration": 106}, {"note": 63, "velocity": 95, "duration": 139}, {"note": 66, "velocity": 97, "duration": 159}, {"note": 0, "velocity": 0, "duration": 81}, {"note": 66, "velocity": 93, "duration": 90}, {"note": 68, "velocity": 96, "duration": 82}, {"note": 70, "velocity": 97, "duration": 175}, {"note": 0, "velocity": 0, "duration": 65}, {"note": 71, "velocity": 95, "duration": 77}, {"note": 70, "velocity": 93, "duration": 327}, {"note": 66, "velocity": 92, "duration": 56}, {"note": 0, "velocity": 0, "duration": 64}, {"note": 66, "velocity": 90, "duration": 241}, {"note": 0, "velocity": 0, "duration": 359}, {"note": 63, "velocity": 98, "duration": 194}, {"note": 66, "velocity": 92, "duration": 85}, {"note": 66, "velocity": 91, "duration": 295}, {"note": 0, "velocity": 0, "duration": 65}, {"note": 68, "velocity": 93, "duration": 76}, {"note": 68, "velocity": 93, "duration": 502}, {"note": 0, "velocity": 0, "duration": 98}, {"note": 70, "velocity": 94, "duration": 117}, {"note": 68, "velocity": 93, "duration": 109}, {"note": 66, "velocity": 95, "duration": 125}, {"note": 63, "velocity": 97, "duration": 140}, {"note": 66, "velocity": 95, "duration": 161}, {"note": 0, "velocity": 0, "duration": 79}, {"note": 66, "velocity": 96, "duration": 92}, {"note": 63, "velocity": 99, "duration": 118}, {"note": 66, "velocity": 96, "duration": 175}, {"note": 0, "velocity": 0, "duration": 65}, {"note": 70, "velocity": 93, "duration": 182}, {"note": 70, "velocity": 96, "duration": 349}, {"note": 0, "velocity": 0, "duration": 131}, {"note": 70, "velocity": 95, "duration": 113}, {"note": 68, "velocity": 92, "duration": 123}, {"note": 66, "velocity": 93, "duration": 108}, {"note": 63, "velocity": 97, "duration": 137}, {"note": 66, "velocity": 95, "duration": 151}, {"note": 0, "velocity": 0, "duration": 89}, {"note": 66, "velocity": 95, "duration": 86}, {"note": 68, "velocity": 98, "duration": 134}, {"note": 70, "velocity": 94, "duration": 238}, {"note": 68, "velocity": 96, "duration": 118}, {"note": 66, "velocity": 93, "duration": 468}, {"note": 66, "velocity": 93, "duration": 118}, {"note": 66, "velocity": 94, "duration": 97}, {"note": 68, "velocity": 94, "duration": 97}, {"note": 70, "velocity": 97, "duration": 106}, {"note": 71, "velocity": 95, "duration": 139}, {"note": 73, "velocity": 97, "duration": 159}, {"note": 0, "velocity": 0, "duration": 81}, {"note": 71, "velocity": 93, "duration": 90}, {"note": 70, "velocity": 96, "duration": 238}, {"note": 71, "velocity": 95, "duration": 197}, {"note": 73, "velocity": 93, "duration": 238}, {"note": 71, "velocity": 92, "duration": 238}, {"note": 70, "velocity": 90, "duration": 478}, {"note": 61, "velocity": 98, "duration": 118}, {"note": 63, "velocity": 98, "duration": 194}, {"note": 66, "velocity": 92, "duration": 85}, {"note": 66, "velocity": 91, "duration": 295}, {"note": 0, "velocity": 0, "duration": 65}, {"note": 68, "velocity": 93, "duration": 76}, {"note": 68, "velocity": 93, "duration": 502}, {"note": 0, "velocity": 0, "duration": 98}, {"note": 61, "velocity": 101, "duration": 134}, {"note": 63, "velocity": 94, "duration": 89}, {"note": 66, "velocity": 95, "duration": 87}, {"note": 63, "velocity": 96, "duration": 145}, {"note": 66, "velocity": 92, "duration": 166}, {"note": 0, "velocity": 0, "duration": 74}, {"note": 66, "velocity": 96, "duration": 97}, {"note": 68, "velocity": 94, "duration": 80}, {"note": 70, "velocity": 98, "duration": 167}, {"note": 0, "velocity": 0, "duration": 73}, {"note": 75, "velocity": 98, "duration": 205}, {"note": 73, "velocity": 106, "duration": 316}, {"note": 73, "velocity": 94, "duration": 82}, {"note": 73, "velocity": 103, "duration": 75}, {"note": 70, "velocity": 93, "duration": 92}, {"note": 68, "velocity": 94, "duration": 65}, {"note": 66, "velocity": 92, "duration": 84}, {"note": 68, "velocity": 92, "duration": 183}, {"note": 68, "velocity": 94, "duration": 74}, {"note": 70, "velocity": 93, "duration": 76}, {"note": 68, "velocity": 92, "duration": 182}, {"note": 66, "velocity": 94, "duration": 183}, {"note": 61, "velocity": 94, "duration": 355}, {"note": 0, "velocity": 0, "duration": 125}, {"note": 61, "velocity": 94, "duration": 75}, {"note": 63, "velocity": 98, "duration": 86}, {"note": 66, "velocity": 93, "duration": 78}, {"note": 63, "velocity": 94, "duration": 75}, {"note": 66, "velocity": 93, "duration": 170}, {"note": 0, "velocity": 0, "duration": 70}, {"note": 66, "velocity": 92, "duration": 73}, {"note": 68, "velocity": 93, "duration": 94}, {"note": 70, "velocity": 92, "duration": 159}, {"note": 0, "velocity": 0, "duration": 81}, {"note": 75, "velocity": 99, "duration": 190}, {"note": 73, "velocity": 96, "duration": 318}, {"note": 73, "velocity": 94, "duration": 89}, {"note": 73, "velocity": 99, "duration": 65}, {"note": 70, "velocity": 93, "duration": 76}, {"note": 68, "velocity": 94, "duration": 66}, {"note": 66, "velocity": 94, "duration": 82}, {"note": 68, "velocity": 94, "duration": 160}, {"note": 0, "velocity": 0, "duration": 80}, {"note": 68, "velocity": 93, "duration": 66}, {"note": 70, "velocity": 93, "duration": 87}, {"note": 68, "velocity": 98, "duration": 194}, {"note": 66, "velocity": 93, "duration": 211}, {"note": 68, "velocity": 93, "duration": 370}, {"note": 0, "velocity": 0, "duration": 110}, {"note": 61, "velocity": 101, "duration": 134}, {"note": 63, "velocity": 94, "duration": 89}, {"note": 66, "velocity": 95, "duration": 87}, {"note": 63, "velocity": 96, "duration": 145}, {"note": 66, "velocity": 92, "duration": 166}, {"note": 0, "velocity": 0, "duration": 74}, {"note": 66, "velocity": 96, "duration": 97}, {"note": 68, "velocity": 94, "duration": 80}, {"note": 70, "velocity": 98, "duration": 167}, {"note": 0, "velocity": 0, "duration": 73}, {"note": 75, "velocity": 98, "duration": 205}, {"note": 73, "velocity": 106, "duration": 316}, {"note": 73, "velocity": 94, "duration": 82}, {"note": 73, "velocity": 103, "duration": 75}, {"note": 70, "velocity": 93, "duration": 92}, {"note": 68, "velocity": 94, "duration": 65}, {"note": 66, "velocity": 92, "duration": 84}, {"note": 68, "velocity": 92, "duration": 183}, {"note": 68, "velocity": 94, "duration": 74}, {"note": 70, "velocity": 93, "duration": 76}, {"note": 68, "velocity": 92, "duration": 182}, {"note": 66, "velocity": 94, "duration": 183}, {"note": 61, "velocity": 94, "duration": 355}, {"note": 0, "velocity": 0, "duration": 125}, {"note": 61, "velocity": 94, "duration": 75}, {"note": 63, "velocity": 98, "duration": 86}, {"note": 66, "velocity": 93, "duration": 78}, {"note": 63, "velocity": 94, "duration": 75}, {"note": 66, "velocity": 93, "duration": 170}, {"note": 0, "velocity": 0, "duration": 70}, {"note": 66, "velocity": 92, "duration": 73}, {"note": 68, "velocity": 93, "duration": 94}, {"note": 70, "velocity": 92, "duration": 159}, {"note": 0, "velocity": 0, "duration": 81}, {"note": 75, "velocity": 99, "duration": 190}, {"note": 73, "velocity": 96, "duration": 318}, {"note": 73, "velocity": 94, "duration": 89}, {"note": 73, "velocity": 99, "duration": 65}, {"note": 70, "velocity": 93, "duration": 76}, {"note": 68, "velocity": 94, "duration": 66}, {"note": 66, "velocity": 94, "duration": 82}, {"note": 68, "velocity": 94, "duration": 160}, {"note": 0, "velocity": 0, "duration": 80}, {"note": 68, "velocity": 93, "duration": 66}, {"note": 70, "velocity": 93, "duration": 87}, {"note": 71, "velocity": 94, "duration": 199}, {"note": 70, "velocity": 96, "duration": 239}, {"note": 68, "velocity": 89, "duration": 219}, {"note": 70, "velocity": 96, "duration": 168}, {"note": 0, "velocity": 0, "duration": 72}, {"note": 68, "velocity": 94, "duration": 220}, {"note": 66, "velocity": 94, "duration": 94}, {"note": 68, "velocity": 94, "duration": 364}, {"note": 66, "velocity": 88, "duration": 932}, {"note": 0, "velocity": 0, "duration": 7948}, {"note": 70, "velocity": 94, "duration": 117}, {"note": 68, "velocity": 93, "duration": 109}, {"note": 66, "velocity": 95, "duration": 125}, {"note": 63, "velocity": 97, "duration": 140}, {"note": 66, "velocity": 95, "duration": 161}, {"note": 0, "velocity": 0, "duration": 79}, {"note": 66, "velocity": 96, "duration": 92}, {"note": 63, "velocity": 99, "duration": 118}, {"note": 66, "velocity": 96, "duration": 175}, {"note": 0, "velocity": 0, "duration": 65}, {"note": 70, "velocity": 93, "duration": 182}, {"note": 70, "velocity": 96, "duration": 349}, {"note": 0, "velocity": 0, "duration": 131}, {"note": 70, "velocity": 95, "duration": 113}, {"note": 68, "velocity": 92, "duration": 123}, {"note": 66, "velocity": 93, "duration": 108}, {"note": 63, "velocity": 97, "duration": 137}, {"note": 66, "velocity": 95, "duration": 151}, {"note": 0, "velocity": 0, "duration": 89}, {"note": 66, "velocity": 95, "duration": 86}, {"note": 68, "velocity": 98, "duration": 134}, {"note": 70, "velocity": 94, "duration": 238}, {"note": 68, "velocity": 96, "duration": 118}, {"note": 66, "velocity": 93, "duration": 468}, {"note": 66, "velocity": 93, "duration": 118}, {"note": 66, "velocity": 94, "duration": 97}, {"note": 68, "velocity": 94, "duration": 97}, {"note": 70, "velocity": 97, "duration": 106}, {"note": 71, "velocity": 95, "duration": 139}, {"note": 73, "velocity": 97, "duration": 159}, {"note": 0, "velocity": 0, "duration": 81}, {"note": 71, "velocity": 93, "duration": 90}, {"note": 70, "velocity": 96, "duration": 238}, {"note": 71, "velocity": 95, "duration": 197}, {"note": 73, "velocity": 93, "duration": 238}, {"note": 71, "velocity": 92, "duration": 238}, {"note": 70, "velocity": 90, "duration": 478}, {"note": 61, "velocity": 98, "duration": 118}, {"note": 63, "velocity": 98, "duration": 194}, {"note": 66, "velocity": 92, "duration": 85}, {"note": 66, "velocity": 91, "duration": 295}, {"note": 0, "velocity": 0, "duration": 65}, {"note": 68, "velocity": 93, "duration": 76}, {"note": 68, "velocity": 93, "duration": 502}, {"note": 0, "velocity": 0, "duration": 98}, {"note": 61, "velocity": 101, "duration": 134}, {"note": 63, "velocity": 94, "duration": 89}, {"note": 66, "velocity": 95, "duration": 87}, {"note": 63, "velocity": 96, "duration": 145}, {"note": 66, "velocity": 92, "duration": 166}, {"note": 0, "velocity": 0, "duration": 74}, {"note": 66, "velocity": 96, "duration": 97}, {"note": 68, "velocity": 94, "duration": 80}, {"note": 70, "velocity": 98, "duration": 167}, {"note": 0, "velocity": 0, "duration": 73}, {"note": 75, "velocity": 98, "duration": 205}, {"note": 73, "velocity": 106, "duration": 316}, {"note": 73, "velocity": 94, "duration": 82}, {"note": 73, "velocity": 103, "duration": 75}, {"note": 70, "velocity": 93, "duration": 92}, {"note": 68, "velocity": 94, "duration": 65}, {"note": 66, "velocity": 92, "duration": 84}, {"note": 68, "velocity": 92, "duration": 183}, {"note": 68, "velocity": 94, "duration": 74}, {"note": 70, "velocity": 93, "duration": 76}, {"note": 68, "velocity": 92, "duration": 182}, {"note": 66, "velocity": 94, "duration": 183}, {"note": 61, "velocity": 94, "duration": 355}, {"note": 0, "velocity": 0, "duration": 125}, {"note": 61, "velocity": 94, "duration": 75}, {"note": 63, "velocity": 98, "duration": 86}, {"note": 66, "velocity": 93, "duration": 78}, {"note": 63, "velocity": 94, "duration": 75}, {"note": 66, "velocity": 93, "duration": 170}, {"note": 0, "velocity": 0, "duration": 70}, {"note": 66, "velocity": 92, "duration": 73}, {"note": 68, "velocity": 93, "duration": 94}, {"note": 70, "velocity": 92, "duration": 159}, {"note": 0, "velocity": 0, "duration": 81}, {"note": 75, "velocity": 99, "duration": 190}, {"note": 73, "velocity": 96, "duration": 318}, {"note": 73, "velocity": 94, "duration": 89}, {"note": 73, "velocity": 99, "duration": 65}, {"note": 70, "velocity": 93, "duration": 76}, {"note": 68, "velocity": 94, "duration": 66}, {"note": 66, "velocity": 94, "duration": 82}, {"note": 68, "velocity": 94, "duration": 160}, {"note": 0, "velocity": 0, "duration": 80}, {"note": 68, "velocity": 93, "duration": 66}, {"note": 70, "velocity": 93, "duration": 87}, {"note": 68, "velocity": 98, "duration": 194}, {"note": 66, "velocity": 93, "duration": 211}, {"note": 68, "velocity": 93, "duration": 370}, {"note": 0, "velocity": 0, "duration": 110}, {"note": 61, "velocity": 101, "duration": 134}, {"note": 63, "velocity": 94, "duration": 89}, {"note": 66, "velocity": 95, "duration": 87}, {"note": 63, "velocity": 96, "duration": 145}, {"note": 66, "velocity": 92, "duration": 166}, {"note": 0, "velocity": 0, "duration": 74}, {"note": 66, "velocity": 96, "duration": 97}, {"note": 68, "velocity": 94, "duration": 80}, {"note": 70, "velocity": 98, "duration": 167}, {"note": 0, "velocity": 0, "duration": 73}, {"note": 75, "velocity": 98, "duration": 205}, {"note": 73, "velocity": 106, "duration": 316}, {"note": 73, "velocity": 94, "duration": 82}, {"note": 73, "velocity": 103, "duration": 75}, {"note": 70, "velocity": 93, "duration": 92}, {"note": 68, "velocity": 94, "duration": 65}, {"note": 66, "velocity": 92, "duration": 84}, {"note": 68, "velocity": 92, "duration": 183}, {"note": 68, "velocity": 94, "duration": 74}, {"note": 70, "velocity": 93, "duration": 76}, {"note": 68, "velocity": 92, "duration": 182}, {"note": 66, "velocity": 94, "duration": 183}, {"note": 61, "velocity": 94, "duration": 355}, {"note": 0, "velocity": 0, "duration": 125}, {"note": 61, "velocity": 94, "duration": 75}, {"note": 63, "velocity": 98, "duration": 86}, {"note": 66, "velocity": 93, "duration": 78}, {"note": 63, "velocity": 94, "duration": 75}, {"note": 66, "velocity": 93, "duration": 170}, {"note": 0, "velocity": 0, "duration": 70}, {"note": 66, "velocity": 92, "duration": 73}, {"note": 68, "velocity": 93, "duration": 94}, {"note": 70, "velocity": 92, "duration": 159}, {"note": 0, "velocity": 0, "duration": 81}, {"note": 75, "velocity": 99, "duration": 190}, {"note": 73, "velocity": 96, "duration": 318}, {"note": 73, "velocity": 94, "duration": 89}, {"note": 73, "velocity": 99, "duration": 65}, {"note": 70, "velocity": 93, "duration": 76}, {"note": 68, "velocity": 94, "duration": 66}, {"note": 66, "velocity": 94, "duration": 82}, {"note": 68, "velocity": 94, "duration": 160}, {"note": 0, "velocity": 0, "duration": 80}, {"note": 68, "velocity": 93, "duration": 66}, {"note": 70, "velocity": 93, "duration": 87}, {"note": 71, "velocity": 94, "duration": 199}, {"note": 70, "velocity": 96, "duration": 239}, {"note": 68, "velocity": 89, "duration": 219}, {"note": 70, "velocity": 96, "duration": 168}, {"note": 0, "velocity": 0, "duration": 72}, {"note": 68, "velocity": 94, "duration": 220}, {"note": 66, "velocity": 94, "duration": 94}, {"note": 68, "velocity": 94, "duration": 364}, {"note": 66, "velocity": 88, "duration": 932}, {"note": 0, "velocity": 0, "duration": 268}, {"note": 62, "velocity": 101, "duration": 134}, {"note": 64, "velocity": 94, "duration": 89}, {"note": 67, "velocity": 95, "duration": 87}, {"note": 64, "velocity": 96, "duration": 145}, {"note": 67, "velocity": 92, "duration": 166}, {"note": 0, "velocity": 0, "duration": 74}, {"note": 67, "velocity": 96, "duration": 97}, {"note": 69, "velocity": 94, "duration": 80}, {"note": 71, "velocity": 98, "duration": 167}, {"note": 0, "velocity": 0, "duration": 73}, {"note": 76, "velocity": 98, "duration": 205}, {"note": 74, "velocity": 106, "duration": 316}, {"note": 74, "velocity": 94, "duration": 82}, {"note": 74, "velocity": 103, "duration": 75}, {"note": 71, "velocity": 93, "duration": 92}, {"note": 69, "velocity": 94, "duration": 65}, {"note": 67, "velocity": 92, "duration": 84}, {"note": 69, "velocity": 92, "duration": 183}, {"note": 69, "velocity": 94, "duration": 74}, {"note": 71, "velocity": 93, "duration": 76}, {"note": 69, "velocity": 92, "duration": 182}, {"note": 67, "velocity": 94, "duration": 183}, {"note": 62, "velocity": 94, "duration": 355}, {"note": 0, "velocity": 0, "duration": 125}, {"note": 62, "velocity": 94, "duration": 75}, {"note": 64, "velocity": 98, "duration": 86}, {"note": 67, "velocity": 93, "duration": 78}, {"note": 64, "velocity": 94, "duration": 75}, {"note": 67, "velocity": 93, "duration": 170}, {"note": 0, "velocity": 0, "duration": 70}, {"note": 67, "velocity": 92, "duration": 73}, {"note": 69, "velocity": 93, "duration": 94}, {"note": 71, "velocity": 92, "duration": 159}, {"note": 0, "velocity": 0, "duration": 81}, {"note": 76, "velocity": 99, "duration": 190}, {"note": 74, "velocity": 96, "duration": 318}, {"note": 74, "velocity": 94, "duration": 89}, {"note": 74, "velocity": 99, "duration": 65}, {"note": 71, "velocity": 93, "duration": 76}, {"note": 69, "velocity": 94, "duration": 66}, {"note": 67, "velocity": 94, "duration": 82}, {"note": 69, "velocity": 94, "duration": 160}, {"note": 0, "velocity": 0, "duration": 80}, {"note": 69, "velocity": 93, "duration": 66}, {"note": 71, "velocity": 93, "duration": 87}, {"note": 69, "velocity": 98, "duration": 194}, {"note": 67, "velocity": 93, "duration": 211}, {"note": 69, "velocity": 93, "duration": 370}, {"note": 0, "velocity": 0, "duration": 110}, {"note": 62, "velocity": 101, "duration": 134}, {"note": 64, "velocity": 94, "duration": 89}, {"note": 67, "velocity": 95, "duration": 87}, {"note": 64, "velocity": 96, "duration": 145}, {"note": 67, "velocity": 92, "duration": 166}, {"note": 0, "velocity": 0, "duration": 74}, {"note": 67, "velocity": 96, "duration": 97}, {"note": 69, "velocity": 94, "duration": 80}, {"note": 71, "velocity": 98, "duration": 167}, {"note": 0, "velocity": 0, "duration": 73}, {"note": 76, "velocity": 98, "duration": 205}, {"note": 74, "velocity": 106, "duration": 316}, {"note": 74, "velocity": 94, "duration": 82}, {"note": 74, "velocity": 103, "duration": 75}, {"note": 71, "velocity": 93, "duration": 92}, {"note": 69, "velocity": 94, "duration": 65}, {"note": 67, "velocity": 92, "duration": 84}, {"note": 69, "velocity": 92, "duration": 183}, {"note": 69, "velocity": 94, "duration": 74}, {"note": 71, "velocity": 93, "duration": 76}, {"note": 69, "velocity": 92, "duration": 182}, {"note": 67, "velocity": 94, "duration": 183}, {"note": 62, "velocity": 94, "duration": 355}, {"note": 0, "velocity": 0, "duration": 125}, {"note": 62, "velocity": 94, "duration": 75}, {"note": 64, "velocity": 98, "duration": 86}, {"note": 67, "velocity": 93, "duration": 78}, {"note": 64, "velocity": 94, "duration": 75}, {"note": 67, "velocity": 93, "duration": 170}, {"note": 0, "velocity": 0, "duration": 70}, {"note": 67, "velocity": 92, "duration": 73}, {"note": 69, "velocity": 93, "duration": 94}, {"note": 71, "velocity": 92, "duration": 159}, {"note": 0, "velocity": 0, "duration": 81}, {"note": 76, "velocity": 99, "duration": 190}, {"note": 74, "velocity": 96, "duration": 318}, {"note": 74, "velocity": 94, "duration": 89}, {"note": 74, "velocity": 99, "duration": 65}, {"note": 71, "velocity": 93, "duration": 76}, {"note": 69, "velocity": 94, "duration": 66}, {"note": 67, "velocity": 94, "duration": 82}, {"note": 69, "velocity": 94, "duration": 160}, {"note": 0, "velocity": 0, "duration": 80}, {"note": 69, "velocity": 93, "duration": 66}, {"note": 71, "velocity": 93, "duration": 87}, {"note": 72, "velocity": 94, "duration": 199}, {"note": 71, "velocity": 96, "duration": 239}, {"note": 69, "velocity": 89, "duration": 219}, {"note": 71, "velocity": 96, "duration": 168}, {"note": 0, "velocity": 0, "duration": 72}, {"note": 69, "velocity": 94, "duration": 220}, {"note": 67, "velocity": 94, "duration": 94}, {"note": 69, "velocity": 94, "duration": 364}, {"note": 67, "velocity": 88, "duration": 932}]]