[[{"note": 64, "velocity": 85, "duration": 184}, {"note": 66, "velocity": 84, "duration": 188}, {"note": 68, "velocity": 87, "duration": 573}, {"note": 0, "velocity": 0, "duration": 147}, {"note": 66, "velocity": 79, "duration": 189}, {"note": 68, "velocity": 84, "duration": 145}, {"note": 0, "velocity": 0, "duration": 95}, {"note": 71, "velocity": 88, "duration": 175}, {"note": 0, "velocity": 0, "duration": 65}, {"note": 76, "velocity": 72, "duration": 201}, {"note": 73, "velocity": 84, "duration": 141}, {"note": 0, "velocity": 0, "duration": 99}, {"note": 71, "velocity": 86, "duration": 860}, {"note": 0, "velocity": 0, "duration": 580}, {"note": 73, "velocity": 89, "duration": 176}, {"note": 0, "velocity": 0, "duration": 64}, {"note": 75, "velocity": 86, "duration": 167}, {"note": 0, "velocity": 0, "duration": 73}, {"note": 73, "velocity": 91, "duration": 590}, {"note": 0, "velocity": 0, "duration": 130}, {"note": 73, "velocity": 98, "duration": 102}, {"note": 71, "velocity": 82, "duration": 77}, {"note": 68, "velocity": 82, "duration": 207}, {"note": 71, "velocity": 84, "duration": 73}, {"note": 71, "velocity": 84, "duration": 347}, {"note": 68, "velocity": 84, "duration": 190}, {"note": 66, "velocity": 84, "duration": 1245}, {"note": 0, "velocity": 0, "duration": 195}, {"note": 66, "velocity": 82, "duration": 161}, {"note": 0, "velocity": 0, "duration": 79}, {"note": 68, "velocity": 86, "duration": 160}, {"note": 0, "velocity": 0, "duration": 80}, {"note": 71, "velocity": 83, "duration": 525}, {"note": 0, "velocity": 0, "duration": 195}, {"note": 71, "velocity": 87, "duration": 89}, {"note": 68, "velocity": 83, "duration": 88}, {"note": 66, "velocity": 84, "duration": 195}, {"note": 68, "velocity": 83, "duration": 186}, {"note": 64, "velocity": 83, "duration": 190}, {"note": 63, "velocity": 84, "duration": 215}, {"note": 61, "velocity": 81, "duration": 1116}, {"note": 0, "velocity": 0, "duration": 324}, {"note": 61, "velocity": 86, "duration": 82}, {"note": 0, "velocity": 0, "duration": 158}, {"note": 61, "velocity": 83, "duration": 82}, {"note": 68, "velocity": 77, "duration": 81}, {"note": 66, "velocity": 76, "duration": 574}, {"note": 0, "velocity": 0, "duration": 146}, {"note": 64, "velocity": 86, "duration": 211}, {"note": 61, "velocity": 84, "duration": 192}, {"note": 64, "velocity": 82, "duration": 66}, {"note": 64, "velocity": 82, "duration": 300}, {"note": 68, "velocity": 85, "duration": 190}, {"note": 66, "velocity": 82, "duration": 1252}, {"note": 0, "velocity": 0, "duration": 188}, {"note": 64, "velocity": 85, "duration": 184}, {"note": 66, "velocity": 84, "duration": 188}, {"note": 68, "velocity": 87, "duration": 573}, {"note": 0, "velocity": 0, "duration": 147}, {"note": 66, "velocity": 79, "duration": 189}, {"note": 68, "velocity": 84, "duration": 145}, {"note": 0, "velocity": 0, "duration": 95}, {"note": 71, "velocity": 88, "duration": 175}, {"note": 0, "velocity": 0, "duration": 65}, {"note": 76, "velocity": 72, "duration": 201}, {"note": 73, "velocity": 84, "duration": 141}, {"note": 0, "velocity": 0, "duration": 99}, {"note": 71, "velocity": 86, "duration": 860}, {"note": 0, "velocity": 0, "duration": 580}, {"note": 73, "velocity": 89, "duration": 176}, {"note": 0, "velocity": 0, "duration": 64}, {"note": 75, "velocity": 86, "duration": 167}, {"note": 0, "velocity": 0, "duration": 73}, {"note": 73, "velocity": 91, "duration": 590}, {"note": 0, "velocity": 0, "duration": 130}, {"note": 73, "velocity": 98, "duration": 102}, {"note": 71, "velocity": 82, "duration": 77}, {"note": 68, "velocity": 82, "duration": 207}, {"note": 71, "velocity": 84, "duration": 73}, {"note": 71, "velocity": 84, "duration": 347}, {"note": 68, "velocity": 84, "duration": 190}, {"note": 66, "velocity": 84, "duration": 1245}, {"note": 0, "velocity": 0, "duration": 195}, {"note": 66, "velocity": 82, "duration": 161}, {"note": 0, "velocity": 0, "duration": 79}, {"note": 68, "velocity": 86, "duration": 160}, {"note": 0, "velocity": 0, "duration": 80}, {"note": 71, "velocity": 83, "duration": 360}, {"note": 71, "velocity": 83, "duration": 67}, {"note": 71, "velocity": 91, "duration": 180}, {"note": 68, "velocity": 85, "duration": 179}, {"note": 0, "velocity": 0, "duration": 61}, {"note": 66, "velocity": 84, "duration": 195}, {"note": 68, "velocity": 83, "duration": 186}, {"note": 64, "velocity": 83, "duration": 190}, {"note": 63, "velocity": 84, "duration": 215}, {"note": 61, "velocity": 81, "duration": 1116}, {"note": 0, "velocity": 0, "duration": 324}, {"note": 61, "velocity": 86, "duration": 240}, {"note": 61, "velocity": 83, "duration": 120}, {"note": 68, "velocity": 77, "duration": 81}, {"note": 66, "velocity": 76, "duration": 574}, {"note": 0, "velocity": 0, "duration": 146}, {"note": 66, "velocity": 86, "duration": 120}, {"note": 64, "velocity": 86, "duration": 120}, {"note": 66, "velocity": 84, "duration": 192}, {"note": 64, "velocity": 82, "duration": 66}, {"note": 66, "velocity": 82, "duration": 300}, {"note": 73, "velocity": 85, "duration": 190}, {"note": 71, "velocity": 82, "duration": 1252}, {"note": 0, "velocity": 0, "duration": 188}, {"note": 71, "velocity": 85, "duration": 138}, {"note": 0, "velocity": 0, "duration": 102}, {"note": 73, "velocity": 93, "duration": 168}, {"note": 0, "velocity": 0, "duration": 72}, {"note": 80, "velocity": 85, "duration": 287}, {"note": 0, "velocity": 0, "duration": 73}, {"note": 78, "velocity": 84, "duration": 304}, {"note": 76, "velocity": 78, "duration": 138}, {"note": 0, "velocity": 0, "duration": 102}, {"note": 76, "velocity": 84, "duration": 153}, {"note": 0, "velocity": 0, "duration": 87}, {"note": 68, "velocity": 86, "duration": 170}, {"note": 0, "velocity": 0, "duration": 70}, {"note": 73, "velocity": 93, "duration": 200}, {"note": 75, "velocity": 84, "duration": 88}, {"note": 73, "velocity": 86, "duration": 106}, {"note": 71, "velocity": 84, "duration": 1254}, {"note": 0, "velocity": 0, "duration": 186}, {"note": 71, "velocity": 83, "duration": 143}, {"note": 0, "velocity": 0, "duration": 97}, {"note": 73, "velocity": 89, "duration": 196}, {"note": 76, "velocity": 86, "duration": 334}, {"note": 73, "velocity": 89, "duration": 295}, {"note": 0, "velocity": 0, "duration": 65}, {"note": 73, "velocity": 86, "duration": 111}, {"note": 71, "velocity": 87, "duration": 81}, {"note": 68, "velocity": 85, "duration": 163}, {"note": 0, "velocity": 0, "duration": 77}, {"note": 71, "velocity": 89, "duration": 169}, {"note": 0, "velocity": 0, "duration": 71}, {"note": 71, "velocity": 89, "duration": 211}, {"note": 68, "velocity": 86, "duration": 177}, {"note": 0, "velocity": 0, "duration": 63}, {"note": 66, "velocity": 85, "duration": 1271}, {"note": 0, "velocity": 0, "duration": 169}, {"note": 66, "velocity": 84, "duration": 164}, {"note": 0, "velocity": 0, "duration": 76}, {"note": 68, "velocity": 84, "duration": 168}, {"note": 0, "velocity": 0, "duration": 72}, {"note": 71, "velocity": 86, "duration": 285}, {"note": 0, "velocity": 0, "duration": 75}, {"note": 71, "velocity": 85, "duration": 66}, {"note": 71, "velocity": 86, "duration": 168}, {"note": 0, "velocity": 0, "duration": 72}, {"note": 68, "velocity": 84, "duration": 161}, {"note": 0, "velocity": 0, "duration": 79}, {"note": 68, "velocity": 84, "duration": 209}, {"note": 71, "velocity": 84, "duration": 392}, {"note": 0, "velocity": 0, "duration": 88}, {"note": 66, "velocity": 84, "duration": 95}, {"note": 64, "velocity": 83, "duration": 66}, {"note": 61, "velocity": 89, "duration": 1170}, {"note": 0, "velocity": 0, "duration": 510}, {"note": 61, "velocity": 86, "duration": 88}, {"note": 68, "velocity": 82, "duration": 63}, {"note": 66, "velocity": 88, "duration": 233}, {"note": 0, "velocity": 0, "duration": 127}, {"note": 66, "velocity": 82, "duration": 59}, {"note": 0, "velocity": 0, "duration": 61}, {"note": 66, "velocity": 82, "duration": 142}, {"note": 0, "velocity": 0, "duration": 98}, {"note": 68, "velocity": 93, "duration": 240}, {"note": 78, "velocity": 88, "duration": 146}, {"note": 0, "velocity": 0, "duration": 94}, {"note": 78, "velocity": 93, "duration": 55}, {"note": 0, "velocity": 0, "duration": 65}, {"note": 78, "velocity": 89, "duration": 279}, {"note": 0, "velocity": 0, "duration": 81}, {"note": 73, "velocity": 96, "duration": 207}, {"note": 71, "velocity": 89, "duration": 1302}, {"note": 0, "velocity": 0, "duration": 138}, {"note": 71, "velocity": 85, "duration": 138}, {"note": 0, "velocity": 0, "duration": 102}, {"note": 73, "velocity": 93, "duration": 168}, {"note": 0, "velocity": 0, "duration": 72}, {"note": 80, "velocity": 85, "duration": 287}, {"note": 0, "velocity": 0, "duration": 73}, {"note": 78, "velocity": 84, "duration": 304}, {"note": 76, "velocity": 78, "duration": 138}, {"note": 0, "velocity": 0, "duration": 102}, {"note": 76, "velocity": 84, "duration": 153}, {"note": 0, "velocity": 0, "duration": 87}, {"note": 68, "velocity": 86, "duration": 170}, {"note": 0, "velocity": 0, "duration": 70}, {"note": 73, "velocity": 93, "duration": 200}, {"note": 75, "velocity": 84, "duration": 88}, {"note": 73, "velocity": 86, "duration": 106}, {"note": 71, "velocity": 84, "duration": 1254}, {"note": 0, "velocity": 0, "duration": 186}, {"note": 71, "velocity": 83, "duration": 143}, {"note": 0, "velocity": 0, "duration": 97}, {"note": 73, "velocity": 89, "duration": 196}, {"note": 76, "velocity": 86, "duration": 334}, {"note": 73, "velocity": 89, "duration": 295}, {"note": 0, "velocity": 0, "duration": 65}, {"note": 73, "velocity": 86, "duration": 111}, {"note": 71, "velocity": 87, "duration": 81}, {"note": 68, "velocity": 85, "duration": 163}, {"note": 0, "velocity": 0, "duration": 77}, {"note": 71, "velocity": 89, "duration": 169}, {"note": 0, "velocity": 0, "duration": 71}, {"note": 71, "velocity": 89, "duration": 211}, {"note": 68, "velocity": 86, "duration": 177}, {"note": 0, "velocity": 0, "duration": 63}, {"note": 66, "velocity": 85, "duration": 1271}, {"note": 0, "velocity": 0, "duration": 169}, {"note": 66, "velocity": 84, "duration": 164}, {"note": 0, "velocity": 0, "duration": 76}, {"note": 68, "velocity": 84, "duration": 168}, {"note": 0, "velocity": 0, "duration": 72}, {"note": 71, "velocity": 86, "duration": 285}, {"note": 0, "velocity": 0, "duration": 435}, {"note": 71, "velocity": 86, "duration": 120}, {"note": 68, "velocity": 84, "duration": 120}, {"note": 68, "velocity": 84, "duration": 209}, {"note": 71, "velocity": 84, "duration": 392}, {"note": 0, "velocity": 0, "duration": 88}, {"note": 66, "velocity": 84, "duration": 95}, {"note": 64, "velocity": 83, "duration": 66}, {"note": 61, "velocity": 89, "duration": 1170}, {"note": 0, "velocity": 0, "duration": 510}, {"note": 61, "velocity": 86, "duration": 88}, {"note": 68, "velocity": 82, "duration": 63}, {"note": 66, "velocity": 88, "duration": 600}, {"note": 0, "velocity": 0, "duration": 120}, {"note": 68, "velocity": 82, "duration": 117}, {"note": 71, "velocity": 86, "duration": 84}, {"note": 68, "velocity": 86, "duration": 318}, {"note": 66, "velocity": 84, "duration": 330}, {"note": 61, "velocity": 84, "duration": 221}, {"note": 64, "velocity": 83, "duration": 1776}, {"note": 0, "velocity": 0, "duration": 15024}, {"note": 64, "velocity": 85, "duration": 184}, {"note": 66, "velocity": 84, "duration": 188}, {"note": 68, "velocity": 87, "duration": 573}, {"note": 0, "velocity": 0, "duration": 147}, {"note": 66, "velocity": 79, "duration": 189}, {"note": 68, "velocity": 84, "duration": 145}, {"note": 0, "velocity": 0, "duration": 95}, {"note": 71, "velocity": 88, "duration": 175}, {"note": 0, "velocity": 0, "duration": 65}, {"note": 76, "velocity": 72, "duration": 201}, {"note": 73, "velocity": 84, "duration": 141}, {"note": 0, "velocity": 0, "duration": 99}, {"note": 71, "velocity": 86, "duration": 860}, {"note": 0, "velocity": 0, "duration": 580}, {"note": 73, "velocity": 89, "duration": 176}, {"note": 0, "velocity": 0, "duration": 64}, {"note": 75, "velocity": 86, "duration": 167}, {"note": 0, "velocity": 0, "duration": 73}, {"note": 73, "velocity": 91, "duration": 590}, {"note": 0, "velocity": 0, "duration": 130}, {"note": 73, "velocity": 98, "duration": 102}, {"note": 71, "velocity": 82, "duration": 77}, {"note": 68, "velocity": 82, "duration": 207}, {"note": 71, "velocity": 84, "duration": 73}, {"note": 71, "velocity": 84, "duration": 347}, {"note": 68, "velocity": 84, "duration": 190}, {"note": 66, "velocity": 84, "duration": 1245}, {"note": 0, "velocity": 0, "duration": 195}, {"note": 66, "velocity": 82, "duration": 161}, {"note": 0, "velocity": 0, "duration": 79}, {"note": 68, "velocity": 86, "duration": 160}, {"note": 0, "velocity": 0, "duration": 80}, {"note": 71, "velocity": 83, "duration": 360}, {"note": 71, "velocity": 83, "duration": 67}, {"note": 71, "velocity": 91, "duration": 180}, {"note": 68, "velocity": 85, "duration": 179}, {"note": 0, "velocity": 0, "duration": 61}, {"note": 66, "velocity": 84, "duration": 195}, {"note": 68, "velocity": 83, "duration": 186}, {"note": 64, "velocity": 83, "duration": 190}, {"note": 63, "velocity": 84, "duration": 215}, {"note": 61, "velocity": 81, "duration": 1116}, {"note": 0, "velocity": 0, "duration": 324}, {"note": 61, "velocity": 86, "duration": 240}, {"note": 61, "velocity": 83, "duration": 120}, {"note": 68, "velocity": 77, "duration": 81}, {"note": 66, "velocity": 76, "duration": 574}, {"note": 0, "velocity": 0, "duration": 146}, {"note": 66, "velocity": 86, "duration": 120}, {"note": 64, "velocity": 86, "duration": 120}, {"note": 66, "velocity": 84, "duration": 192}, {"note": 64, "velocity": 82, "duration": 66}, {"note": 66, "velocity": 82, "duration": 300}, {"note": 73, "velocity": 85, "duration": 190}, {"note": 71, "velocity": 82, "duration": 1252}, {"note": 0, "velocity": 0, "duration": 188}, {"note": 71, "velocity": 85, "duration": 138}, {"note": 0, "velocity": 0, "duration": 102}, {"note": 73, "velocity": 93, "duration": 168}, {"note": 0, "velocity": 0, "duration": 72}, {"note": 80, "velocity": 85, "duration": 287}, {"note": 0, "velocity": 0, "duration": 73}, {"note": 78, "velocity": 84, "duration": 304}, {"note": 76, "velocity": 78, "duration": 138}, {"note": 0, "velocity": 0, "duration": 102}, {"note": 76, "velocity": 84, "duration": 153}, {"note": 0, "velocity": 0, "duration": 87}, {"note": 68, "velocity": 86, "duration": 170}, {"note": 0, "velocity": 0, "duration": 70}, {"note": 73, "velocity": 93, "duration": 200}, {"note": 75, "velocity": 84, "duration": 88}, {"note": 73, "velocity": 86, "duration": 106}, {"note": 71, "velocity": 84, "duration": 1254}, {"note": 0, "velocity": 0, "duration": 186}, {"note": 71, "velocity": 83, "duration": 143}, {"note": 0, "velocity": 0, "duration": 97}, {"note": 73, "velocity": 89, "duration": 196}, {"note": 76, "velocity": 86, "duration": 334}, {"note": 73, "velocity": 89, "duration": 295}, {"note": 0, "velocity": 0, "duration": 65}, {"note": 73, "velocity": 86, "duration": 111}, {"note": 71, "velocity": 87, "duration": 81}, {"note": 68, "velocity": 85, "duration": 163}, {"note": 0, "velocity": 0, "duration": 77}, {"note": 71, "velocity": 89, "duration": 169}, {"note": 0, "velocity": 0, "duration": 71}, {"note": 71, "velocity": 89, "duration": 211}, {"note": 68, "velocity": 86, "duration": 177}, {"note": 0, "velocity": 0, "duration": 63}, {"note": 66, "velocity": 85, "duration": 1271}, {"note": 0, "velocity": 0, "duration": 169}, {"note": 66, "velocity": 84, "duration": 164}, {"note": 0, "velocity": 0, "duration": 76}, {"note": 68, "velocity": 84, "duration": 168}, {"note": 0, "velocity": 0, "duration": 72}, {"note": 71, "velocity": 86, "duration": 285}, {"note": 0, "velocity": 0, "duration": 75}, {"note": 71, "velocity": 85, "duration": 66}, {"note": 71, "velocity": 86, "duration": 168}, {"note": 0, "velocity": 0, "duration": 72}, {"note": 68, "velocity": 84, "duration": 161}, {"note": 0, "velocity": 0, "duration": 79}, {"note": 68, "velocity": 84, "duration": 209}, {"note": 71, "velocity": 84, "duration": 392}, {"note": 0, "velocity": 0, "duration": 88}, {"note": 66, "velocity": 84, "duration": 95}, {"note": 64, "velocity": 83, "duration": 66}, {"note": 61, "velocity": 89, "duration": 1170}, {"note": 0, "velocity": 0, "duration": 510}, {"note": 61, "velocity": 86, "duration": 88}, {"note": 68, "velocity": 82, "duration": 63}, {"note": 66, "velocity": 88, "duration": 233}, {"note": 0, "velocity": 0, "duration": 127}, {"note": 66, "velocity": 82, "duration": 59}, {"note": 0, "velocity": 0, "duration": 61}, {"note": 66, "velocity": 82, "duration": 142}, {"note": 0, "velocity": 0, "duration": 98}, {"note": 68, "velocity": 93, "duration": 240}, {"note": 78, "velocity": 88, "duration": 146}, {"note": 0, "velocity": 0, "duration": 94}, {"note": 78, "velocity": 93, "duration": 55}, {"note": 0, "velocity": 0, "duration": 65}, {"note": 78, "velocity": 89, "duration": 279}, {"note": 0, "velocity": 0, "duration": 81}, {"note": 73, "velocity": 96, "duration": 207}, {"note": 71, "velocity": 89, "duration": 1302}, {"note": 0, "velocity": 0, "duration": 138}, {"note": 71, "velocity": 85, "duration": 138}, {"note": 0, "velocity": 0, "duration": 102}, {"note": 73, "velocity": 93, "duration": 168}, {"note": 0, "velocity": 0, "duration": 72}, {"note": 80, "velocity": 85, "duration": 287}, {"note": 0, "velocity": 0, "duration": 73}, {"note": 78, "velocity": 84, "duration": 304}, {"note": 76, "velocity": 78, "duration": 138}, {"note": 0, "velocity": 0, "duration": 102}, {"note": 76, "velocity": 84, "duration": 153}, {"note": 0, "velocity": 0, "duration": 87}, {"note": 68, "velocity": 86, "duration": 170}, {"note": 0, "velocity": 0, "duration": 70}, {"note": 73, "velocity": 93, "duration": 200}, {"note": 75, "velocity": 84, "duration": 88}, {"note": 73, "velocity": 86, "duration": 106}, {"note": 71, "velocity": 84, "duration": 1254}, {"note": 0, "velocity": 0, "duration": 186}, {"note": 71, "velocity": 83, "duration": 143}, {"note": 0, "velocity": 0, "duration": 97}, {"note": 73, "velocity": 89, "duration": 196}, {"note": 76, "velocity": 86, "duration": 334}, {"note": 73, "velocity": 89, "duration": 295}, {"note": 0, "velocity": 0, "duration": 65}, {"note": 73, "velocity": 86, "duration": 111}, {"note": 71, "velocity": 87, "duration": 81}, {"note": 68, "velocity": 85, "duration": 163}, {"note": 0, "velocity": 0, "duration": 77}, {"note": 71, "velocity": 89, "duration": 169}, {"note": 0, "velocity": 0, "duration": 71}, {"note": 71, "velocity": 89, "duration": 211}, {"note": 68, "velocity": 86, "duration": 177}, {"note": 0, "velocity": 0, "duration": 63}, {"note": 66, "velocity": 85, "duration": 1271}, {"note": 0, "velocity": 0, "duration": 169}, {"note": 66, "velocity": 84, "duration": 164}, {"note": 0, "velocity": 0, "duration": 76}, {"note": 68, "velocity": 84, "duration": 168}, {"note": 0, "velocity": 0, "duration": 72}, {"note": 71, "velocity": 86, "duration": 285}, {"note": 0, "velocity": 0, "duration": 435}, {"note": 71, "velocity": 86, "duration": 120}, {"note": 68, "velocity": 84, "duration": 120}, {"note": 68, "velocity": 84, "duration": 209}, {"note": 71, "velocity": 84, "duration": 392}, {"note": 0, "velocity": 0, "duration": 88}, {"note": 66, "velocity": 84, "duration": 95}, {"note": 64, "velocity": 83, "duration": 66}, {"note": 61, "velocity": 89, "duration": 1170}, {"note": 0, "velocity": 0, "duration": 510}, {"note": 61, "velocity": 86, "duration": 88}, {"note": 68, "velocity": 82, "duration": 63}, {"note": 66, "velocity": 88, "duration": 600}, {"note": 0, "velocity": 0, "duration": 120}, {"note": 68, "velocity": 82, "duration": 117}, {"note": 71, "velocity": 86, "duration": 84}, {"note": 68, "velocity": 86, "duration": 318}, {"note": 66, "velocity": 84, "duration": 330}, {"note": 61, "velocity": 84, "duration": 221}, {"note": 64, "velocity": 83, "duration": 1080}, {"note": 0, "velocity": 0, "duration": 360}, {"note": 71, "velocity": 85, "duration": 138}, {"note": 0, "velocity": 0, "duration": 102}, {"note": 73, "velocity": 93, "duration": 168}, {"note": 0, "velocity": 0, "duration": 72}, {"note": 80, "velocity": 85, "duration": 287}, {"note": 0, "velocity": 0, "duration": 73}, {"note": 78, "velocity": 84, "duration": 304}, {"note": 76, "velocity": 78, "duration": 138}, {"note": 0, "velocity": 0, "duration": 102}, {"note": 76, "velocity": 84, "duration": 153}, {"note": 0, "velocity": 0, "duration": 87}, {"note": 68, "velocity": 86, "duration": 170}, {"note": 0, "velocity": 0, "duration": 70}, {"note": 73, "velocity": 93, "duration": 200}, {"note": 75, "velocity": 84, "duration": 88}, {"note": 73, "velocity": 86, "duration": 106}, {"note": 71, "velocity": 84, "duration": 1254}, {"note": 0, "velocity": 0, "duration": 186}, {"note": 71, "velocity": 83, "duration": 143}, {"note": 0, "velocity": 0, "duration": 97}, {"note": 73, "velocity": 89, "duration": 196}, {"note": 76, "velocity": 86, "duration": 334}, {"note": 73, "velocity": 89, "duration": 295}, {"note": 0, "velocity": 0, "duration": 65}, {"note": 73, "velocity": 86, "duration": 111}, {"note": 71, "velocity": 87, "duration": 81}, {"note": 68, "velocity": 85, "duration": 163}, {"note": 0, "velocity": 0, "duration": 77}, {"note": 71, "velocity": 89, "duration": 169}, {"note": 0, "velocity": 0, "duration": 71}, {"note": 71, "velocity": 89, "duration": 211}, {"note": 68, "velocity": 86, "duration": 177}, {"note": 0, "velocity": 0, "duration": 63}, {"note": 66, "velocity": 85, "duration": 1271}, {"note": 0, "velocity": 0, "duration": 169}, {"note": 66, "velocity": 84, "duration": 164}, {"note": 0, "velocity": 0, "duration": 76}, {"note": 68, "velocity": 84, "duration": 168}, {"note": 0, "velocity": 0, "duration": 72}, {"note": 71, "velocity": 86, "duration": 285}, {"note": 0, "velocity": 0, "duration": 75}, {"note": 71, "velocity": 85, "duration": 66}, {"note": 71, "velocity": 86, "duration": 168}, {"note": 0, "velocity": 0, "duration": 72}, {"note": 68, "velocity": 84, "duration": 161}, {"note": 0, "velocity": 0, "duration": 79}, {"note": 68, "velocity": 84, "duration": 209}, {"note": 71, "velocity": 84, "duration": 392}, {"note": 0, "velocity": 0, "duration": 88}, {"note": 66, "velocity": 84, "duration": 95}, {"note": 64, "velocity": 83, "duration": 66}, {"note": 61, "velocity": 89, "duration": 1170}, {"note": 0, "velocity": 0, "duration": 510}, {"note": 61, "velocity": 86, "duration": 88}, {"note": 68, "velocity": 82, "duration": 63}, {"note": 66, "velocity": 88, "duration": 233}, {"note": 0, "velocity": 0, "duration": 127}, {"note": 66, "velocity": 82, "duration": 59}, {"note": 0, "velocity": 0, "duration": 61}, {"note": 66, "velocity": 82, "duration": 142}, {"note": 0, "velocity": 0, "duration": 98}, {"note": 68, "velocity": 93, "duration": 240}, {"note": 78, "velocity": 88, "duration": 146}, {"note": 0, "velocity": 0, "duration": 94}, {"note": 78, "velocity": 93, "duration": 55}, {"note": 0, "velocity": 0, "duration": 65}, {"note": 78, "velocity": 89, "duration": 279}, {"note": 0, "velocity": 0, "duration": 81}, {"note": 73, "velocity": 96, "duration": 207}, {"note": 71, "velocity": 89, "duration": 1302}, {"note": 0, "velocity": 0, "duration": 138}, {"note": 71, "velocity": 85, "duration": 138}, {"note": 0, "velocity": 0, "duration": 102}, {"note": 73, "velocity": 93, "duration": 168}, {"note": 0, "velocity": 0, "duration": 72}, {"note": 80, "velocity": 85, "duration": 287}, {"note": 0, "velocity": 0, "duration": 73}, {"note": 78, "velocity": 84, "duration": 304}, {"note": 76, "velocity": 78, "duration": 138}, {"note": 0, "velocity": 0, "duration": 102}, {"note": 76, "velocity": 84, "duration": 153}, {"note": 0, "velocity": 0, "duration": 87}, {"note": 68, "velocity": 86, "duration": 170}, {"note": 0, "velocity": 0, "duration": 70}, {"note": 73, "velocity": 93, "duration": 200}, {"note": 75, "velocity": 84, "duration": 88}, {"note": 73, "velocity": 86, "duration": 106}, {"note": 71, "velocity": 84, "duration": 1254}, {"note": 0, "velocity": 0, "duration": 186}, {"note": 71, "velocity": 83, "duration": 143}, {"note": 0, "velocity": 0, "duration": 97}, {"note": 73, "velocity": 89, "duration": 196}, {"note": 76, "velocity": 86, "duration": 334}, {"note": 73, "velocity": 89, "duration": 295}, {"note": 0, "velocity": 0, "duration": 65}, {"note": 73, "velocity": 86, "duration": 111}, {"note": 71, "velocity": 87, "duration": 81}, {"note": 68, "velocity": 85, "duration": 163}, {"note": 0, "velocity": 0, "duration": 77}, {"note": 71, "velocity": 89, "duration": 169}, {"note": 0, "velocity": 0, "duration": 71}, {"note": 71, "velocity": 89, "duration": 211}, {"note": 68, "velocity": 86, "duration": 177}, {"note": 0, "velocity": 0, "duration": 63}, {"note": 66, "velocity": 85, "duration": 1271}, {"note": 0, "velocity": 0, "duration": 169}, {"note": 66, "velocity": 84, "duration": 164}, {"note": 0, "velocity": 0, "duration": 76}, {"note": 68, "velocity": 84, "duration": 168}, {"note": 0, "velocity": 0, "duration": 72}, {"note": 71, "velocity": 86, "duration": 285}, {"note": 0, "velocity": 0, "duration": 435}, {"note": 71, "velocity": 86, "duration": 120}, {"note": 68, "velocity": 84, "duration": 120}, {"note": 68, "velocity": 84, "duration": 209}, {"note": 71, "velocity": 84, "duration": 392}, {"note": 0, "velocity": 0, "duration": 88}, {"note": 66, "velocity": 84, "duration": 95}, {"note": 64, "velocity": 83, "duration": 66}, {"note": 61, "velocity": 89, "duration": 1170}, {"note": 0, "velocity": 0, "duration": 510}, {"note": 61, "velocity": 86, "duration": 88}, {"note": 68, "velocity": 82, "duration": 63}, {"note": 66, "velocity": 88, "duration": 600}, {"note": 0, "velocity": 0, "duration": 120}, {"note": 68, "velocity": 82, "duration": 117}, {"note": 71, "velocity": 86, "duration": 84}, {"note": 68, "velocity": 86, "duration": 318}, {"note": 66, "velocity": 84, "duration": 330}, {"note": 61, "velocity": 84, "duration": 221}, {"note": 64, "velocity": 83, "duration": 1080}]]