[[{"note": 70, "velocity": 100, "duration": 398}, {"note": 0, "velocity": 0, "duration": 135}, {"note": 68, "velocity": 87, "duration": 211}, {"note": 0, "velocity": 0, "duration": 73}, {"note": 66, "velocity": 82, "duration": 393}, {"note": 0, "velocity": 0, "duration": 161}, {"note": 63, "velocity": 92, "duration": 362}, {"note": 0, "velocity": 0, "duration": 155}, {"note": 70, "velocity": 87, "duration": 1223}, {"note": 0, "velocity": 0, "duration": 468}, {"note": 68, "velocity": 76, "duration": 239}, {"note": 0, "velocity": 0, "duration": 79}, {"note": 70, "velocity": 82, "duration": 175}, {"note": 0, "velocity": 0, "duration": 84}, {"note": 71, "velocity": 82, "duration": 328}, {"note": 0, "velocity": 0, "duration": 205}, {"note": 70, "velocity": 87, "duration": 187}, {"note": 0, "velocity": 0, "duration": 87}, {"note": 68, "velocity": 73, "duration": 339}, {"note": 0, "velocity": 0, "duration": 176}, {"note": 71, "velocity": 71, "duration": 346}, {"note": 0, "velocity": 0, "duration": 218}, {"note": 70, "velocity": 82, "duration": 1622}, {"note": 0, "velocity": 0, "duration": 16183}, {"note": 71, "velocity": 86, "duration": 334}, {"note": 0, "velocity": 0, "duration": 146}, {"note": 69, "velocity": 85, "duration": 173}, {"note": 0, "velocity": 0, "duration": 67}, {"note": 67, "velocity": 85, "duration": 360}, {"note": 0, "velocity": 0, "duration": 120}, {"note": 64, "velocity": 88, "duration": 357}, {"note": 0, "velocity": 0, "duration": 123}, {"note": 71, "velocity": 85, "duration": 1339}, {"note": 0, "velocity": 0, "duration": 101}, {"note": 69, "velocity": 81, "duration": 187}, {"note": 69, "velocity": 84, "duration": 158}, {"note": 0, "velocity": 0, "duration": 82}, {"note": 71, "velocity": 85, "duration": 164}, {"note": 0, "velocity": 0, "duration": 76}, {"note": 72, "velocity": 85, "duration": 369}, {"note": 0, "velocity": 0, "duration": 111}, {"note": 71, "velocity": 87, "duration": 212}, {"note": 69, "velocity": 84, "duration": 718}, {"note": 72, "velocity": 84, "duration": 238}, {"note": 71, "velocity": 85, "duration": 1438}, {"note": 0, "velocity": 0, "duration": 242}, {"note": 71, "velocity": 83, "duration": 209}, {"note": 67, "velocity": 86, "duration": 186}, {"note": 69, "velocity": 85, "duration": 521}, {"note": 0, "velocity": 0, "duration": 199}, {"note": 67, "velocity": 84, "duration": 154}, {"note": 0, "velocity": 0, "duration": 86}, {"note": 69, "velocity": 84, "duration": 367}, {"note": 0, "velocity": 0, "duration": 113}, {"note": 67, "velocity": 85, "duration": 510}, {"note": 64, "velocity": 85, "duration": 958}, {"note": 0, "velocity": 0, "duration": 242}, {"note": 64, "velocity": 88, "duration": 113}, {"note": 0, "velocity": 0, "duration": 127}, {"note": 64, "velocity": 88, "duration": 134}, {"note": 0, "velocity": 0, "duration": 106}, {"note": 64, "velocity": 86, "duration": 154}, {"note": 0, "velocity": 0, "duration": 86}, {"note": 66, "velocity": 86, "duration": 405}, {"note": 0, "velocity": 0, "duration": 75}, {"note": 64, "velocity": 86, "duration": 123}, {"note": 0, "velocity": 0, "duration": 117}, {"note": 63, "velocity": 83, "duration": 615}, {"note": 0, "velocity": 0, "duration": 105}, {"note": 64, "velocity": 86, "duration": 172}, {"note": 0, "velocity": 0, "duration": 68}, {"note": 66, "velocity": 85, "duration": 1926}, {"note": 0, "velocity": 0, "duration": 234}, {"note": 71, "velocity": 86, "duration": 334}, {"note": 0, "velocity": 0, "duration": 146}, {"note": 69, "velocity": 85, "duration": 173}, {"note": 0, "velocity": 0, "duration": 67}, {"note": 67, "velocity": 85, "duration": 360}, {"note": 0, "velocity": 0, "duration": 120}, {"note": 64, "velocity": 88, "duration": 357}, {"note": 0, "velocity": 0, "duration": 123}, {"note": 71, "velocity": 85, "duration": 1339}, {"note": 0, "velocity": 0, "duration": 101}, {"note": 69, "velocity": 81, "duration": 187}, {"note": 69, "velocity": 84, "duration": 158}, {"note": 0, "velocity": 0, "duration": 82}, {"note": 71, "velocity": 85, "duration": 164}, {"note": 0, "velocity": 0, "duration": 76}, {"note": 72, "velocity": 85, "duration": 369}, {"note": 0, "velocity": 0, "duration": 111}, {"note": 71, "velocity": 87, "duration": 212}, {"note": 69, "velocity": 84, "duration": 718}, {"note": 72, "velocity": 84, "duration": 238}, {"note": 71, "velocity": 85, "duration": 1438}, {"note": 0, "velocity": 0, "duration": 242}, {"note": 71, "velocity": 83, "duration": 209}, {"note": 67, "velocity": 86, "duration": 186}, {"note": 69, "velocity": 85, "duration": 521}, {"note": 0, "velocity": 0, "duration": 199}, {"note": 71, "velocity": 85, "duration": 176}, {"note": 0, "velocity": 0, "duration": 64}, {"note": 72, "velocity": 87, "duration": 386}, {"note": 0, "velocity": 0, "duration": 94}, {"note": 74, "velocity": 87, "duration": 163}, {"note": 0, "velocity": 0, "duration": 77}, {"note": 76, "velocity": 88, "duration": 1247}, {"note": 0, "velocity": 0, "duration": 193}, {"note": 76, "velocity": 85, "duration": 138}, {"note": 0, "velocity": 0, "duration": 102}, {"note": 76, "velocity": 86, "duration": 141}, {"note": 0, "velocity": 0, "duration": 99}, {"note": 76, "velocity": 86, "duration": 208}, {"note": 75, "velocity": 91, "duration": 322}, {"note": 0, "velocity": 0, "duration": 158}, {"note": 71, "velocity": 89, "duration": 182}, {"note": 81, "velocity": 88, "duration": 404}, {"note": 0, "velocity": 0, "duration": 76}, {"note": 78, "velocity": 86, "duration": 436}, {"note": 76, "velocity": 82, "duration": 2825}, {"note": 0, "velocity": 0, "duration": 1255}, {"note": 76, "velocity": 88, "duration": 1254}, {"note": 0, "velocity": 0, "duration": 186}, {"note": 79, "velocity": 90, "duration": 377}, {"note": 0, "velocity": 0, "duration": 103}, {"note": 72, "velocity": 91, "duration": 360}, {"note": 0, "velocity": 0, "duration": 120}, {"note": 72, "velocity": 85, "duration": 191}, {"note": 76, "velocity": 87, "duration": 815}, {"note": 0, "velocity": 0, "duration": 145}, {"note": 76, "velocity": 84, "duration": 160}, {"note": 0, "velocity": 0, "duration": 80}, {"note": 74, "velocity": 88, "duration": 324}, {"note": 0, "velocity": 0, "duration": 156}, {"note": 76, "velocity": 86, "duration": 154}, {"note": 0, "velocity": 0, "duration": 86}, {"note": 78, "velocity": 85, "duration": 422}, {"note": 74, "velocity": 90, "duration": 451}, {"note": 71, "velocity": 85, "duration": 1210}, {"note": 0, "velocity": 0, "duration": 710}, {"note": 67, "velocity": 84, "duration": 187}, {"note": 69, "velocity": 88, "duration": 354}, {"note": 0, "velocity": 0, "duration": 126}, {"note": 67, "velocity": 82, "duration": 123}, {"note": 0, "velocity": 0, "duration": 117}, {"note": 69, "velocity": 85, "duration": 662}, {"note": 67, "velocity": 86, "duration": 163}, {"note": 0, "velocity": 0, "duration": 77}, {"note": 69, "velocity": 87, "duration": 1272}, {"note": 0, "velocity": 0, "duration": 648}, {"note": 64, "velocity": 84, "duration": 172}, {"note": 0, "velocity": 0, "duration": 68}, {"note": 64, "velocity": 87, "duration": 329}, {"note": 0, "velocity": 0, "duration": 151}, {"note": 64, "velocity": 84, "duration": 185}, {"note": 63, "velocity": 85, "duration": 332}, {"note": 0, "velocity": 0, "duration": 148}, {"note": 64, "velocity": 88, "duration": 362}, {"note": 0, "velocity": 0, "duration": 118}, {"note": 66, "velocity": 85, "duration": 1920}, {"note": 0, "velocity": 0, "duration": 240}, {"note": 71, "velocity": 90, "duration": 211}, {"note": 76, "velocity": 90, "duration": 429}, {"note": 78, "velocity": 89, "duration": 756}, {"note": 0, "velocity": 0, "duration": 204}, {"note": 79, "velocity": 86, "duration": 148}, {"note": 0, "velocity": 0, "duration": 92}, {"note": 72, "velocity": 84, "duration": 364}, {"note": 0, "velocity": 0, "duration": 116}, {"note": 72, "velocity": 84, "duration": 208}, {"note": 76, "velocity": 86, "duration": 948}, {"note": 76, "velocity": 88, "duration": 200}, {"note": 74, "velocity": 90, "duration": 357}, {"note": 0, "velocity": 0, "duration": 123}, {"note": 76, "velocity": 87, "duration": 212}, {"note": 78, "velocity": 86, "duration": 423}, {"note": 74, "velocity": 91, "duration": 455}, {"note": 71, "velocity": 87, "duration": 1684}, {"note": 0, "velocity": 0, "duration": 236}, {"note": 67, "velocity": 85, "duration": 188}, {"note": 69, "velocity": 88, "duration": 382}, {"note": 0, "velocity": 0, "duration": 98}, {"note": 69, "velocity": 85, "duration": 158}, {"note": 0, "velocity": 0, "duration": 82}, {"note": 69, "velocity": 86, "duration": 366}, {"note": 0, "velocity": 0, "duration": 114}, {"note": 76, "velocity": 90, "duration": 365}, {"note": 0, "velocity": 0, "duration": 115}, {"note": 75, "velocity": 88, "duration": 1352}, {"note": 0, "velocity": 0, "duration": 568}, {"note": 71, "velocity": 91, "duration": 190}, {"note": 83, "velocity": 91, "duration": 213}, {"note": 81, "velocity": 81, "duration": 136}, {"note": 0, "velocity": 0, "duration": 104}, {"note": 81, "velocity": 86, "duration": 182}, {"note": 79, "velocity": 84, "duration": 543}, {"note": 78, "velocity": 84, "duration": 410}, {"note": 0, "velocity": 0, "duration": 70}, {"note": 79, "velocity": 86, "duration": 714}, {"note": 78, "velocity": 80, "duration": 234}, {"note": 76, "velocity": 85, "duration": 2329}, {"note": 0, "velocity": 0, "duration": 791}, {"note": 71, "velocity": 86, "duration": 334}, {"note": 0, "velocity": 0, "duration": 146}, {"note": 69, "velocity": 85, "duration": 173}, {"note": 0, "velocity": 0, "duration": 67}, {"note": 67, "velocity": 85, "duration": 360}, {"note": 0, "velocity": 0, "duration": 120}, {"note": 64, "velocity": 88, "duration": 357}, {"note": 0, "velocity": 0, "duration": 123}, {"note": 71, "velocity": 85, "duration": 1339}, {"note": 0, "velocity": 0, "duration": 101}, {"note": 69, "velocity": 81, "duration": 187}, {"note": 69, "velocity": 84, "duration": 158}, {"note": 0, "velocity": 0, "duration": 82}, {"note": 71, "velocity": 85, "duration": 164}, {"note": 0, "velocity": 0, "duration": 76}, {"note": 72, "velocity": 85, "duration": 369}, {"note": 0, "velocity": 0, "duration": 111}, {"note": 71, "velocity": 87, "duration": 212}, {"note": 69, "velocity": 84, "duration": 718}, {"note": 67, "velocity": 84, "duration": 238}, {"note": 71, "velocity": 85, "duration": 1438}, {"note": 0, "velocity": 0, "duration": 242}, {"note": 71, "velocity": 83, "duration": 209}, {"note": 67, "velocity": 86, "duration": 186}, {"note": 69, "velocity": 85, "duration": 521}, {"note": 0, "velocity": 0, "duration": 199}, {"note": 67, "velocity": 85, "duration": 176}, {"note": 0, "velocity": 0, "duration": 64}, {"note": 69, "velocity": 87, "duration": 386}, {"note": 0, "velocity": 0, "duration": 94}, {"note": 71, "velocity": 87, "duration": 478}, {"note": 69, "velocity": 88, "duration": 1247}, {"note": 64, "velocity": 85, "duration": 138}, {"note": 0, "velocity": 0, "duration": 102}, {"note": 64, "velocity": 86, "duration": 141}, {"note": 0, "velocity": 0, "duration": 99}, {"note": 64, "velocity": 86, "duration": 208}, {"note": 66, "velocity": 91, "duration": 322}, {"note": 0, "velocity": 0, "duration": 158}, {"note": 59, "velocity": 89, "duration": 182}, {"note": 69, "velocity": 88, "duration": 404}, {"note": 0, "velocity": 0, "duration": 76}, {"note": 66, "velocity": 86, "duration": 436}, {"note": 66, "velocity": 82, "duration": 1678}, {"note": 0, "velocity": 0, "duration": 482}, {"note": 71, "velocity": 86, "duration": 334}, {"note": 0, "velocity": 0, "duration": 146}, {"note": 69, "velocity": 85, "duration": 173}, {"note": 0, "velocity": 0, "duration": 67}, {"note": 67, "velocity": 85, "duration": 360}, {"note": 0, "velocity": 0, "duration": 120}, {"note": 64, "velocity": 88, "duration": 357}, {"note": 0, "velocity": 0, "duration": 123}, {"note": 71, "velocity": 85, "duration": 1339}, {"note": 0, "velocity": 0, "duration": 101}, {"note": 69, "velocity": 81, "duration": 187}, {"note": 69, "velocity": 84, "duration": 158}, {"note": 0, "velocity": 0, "duration": 82}, {"note": 71, "velocity": 85, "duration": 164}, {"note": 0, "velocity": 0, "duration": 76}, {"note": 72, "velocity": 85, "duration": 369}, {"note": 0, "velocity": 0, "duration": 111}, {"note": 71, "velocity": 87, "duration": 212}, {"note": 69, "velocity": 84, "duration": 718}, {"note": 72, "velocity": 84, "duration": 238}, {"note": 71, "velocity": 85, "duration": 1438}, {"note": 0, "velocity": 0, "duration": 242}, {"note": 71, "velocity": 83, "duration": 209}, {"note": 67, "velocity": 86, "duration": 186}, {"note": 69, "velocity": 85, "duration": 521}, {"note": 0, "velocity": 0, "duration": 199}, {"note": 71, "velocity": 85, "duration": 176}, {"note": 0, "velocity": 0, "duration": 64}, {"note": 72, "velocity": 87, "duration": 386}, {"note": 0, "velocity": 0, "duration": 94}, {"note": 74, "velocity": 87, "duration": 163}, {"note": 0, "velocity": 0, "duration": 77}, {"note": 76, "velocity": 88, "duration": 1247}, {"note": 0, "velocity": 0, "duration": 193}, {"note": 76, "velocity": 85, "duration": 138}, {"note": 0, "velocity": 0, "duration": 102}, {"note": 76, "velocity": 86, "duration": 141}, {"note": 0, "velocity": 0, "duration": 99}, {"note": 76, "velocity": 86, "duration": 208}, {"note": 75, "velocity": 91, "duration": 322}, {"note": 0, "velocity": 0, "duration": 158}, {"note": 71, "velocity": 89, "duration": 182}, {"note": 81, "velocity": 88, "duration": 404}, {"note": 0, "velocity": 0, "duration": 76}, {"note": 78, "velocity": 86, "duration": 436}, {"note": 76, "velocity": 82, "duration": 2825}, {"note": 0, "velocity": 0, "duration": 1255}, {"note": 76, "velocity": 88, "duration": 1254}, {"note": 0, "velocity": 0, "duration": 186}, {"note": 79, "velocity": 90, "duration": 377}, {"note": 0, "velocity": 0, "duration": 103}, {"note": 72, "velocity": 91, "duration": 360}, {"note": 0, "velocity": 0, "duration": 120}, {"note": 72, "velocity": 85, "duration": 191}, {"note": 76, "velocity": 87, "duration": 815}, {"note": 0, "velocity": 0, "duration": 145}, {"note": 76, "velocity": 84, "duration": 160}, {"note": 0, "velocity": 0, "duration": 80}, {"note": 74, "velocity": 88, "duration": 324}, {"note": 0, "velocity": 0, "duration": 156}, {"note": 76, "velocity": 86, "duration": 154}, {"note": 0, "velocity": 0, "duration": 86}, {"note": 78, "velocity": 85, "duration": 422}, {"note": 74, "velocity": 90, "duration": 451}, {"note": 71, "velocity": 85, "duration": 1210}, {"note": 0, "velocity": 0, "duration": 710}, {"note": 67, "velocity": 84, "duration": 187}, {"note": 69, "velocity": 88, "duration": 354}, {"note": 0, "velocity": 0, "duration": 126}, {"note": 67, "velocity": 82, "duration": 123}, {"note": 0, "velocity": 0, "duration": 117}, {"note": 69, "velocity": 85, "duration": 662}, {"note": 67, "velocity": 86, "duration": 163}, {"note": 0, "velocity": 0, "duration": 77}, {"note": 69, "velocity": 87, "duration": 1272}, {"note": 0, "velocity": 0, "duration": 648}, {"note": 64, "velocity": 84, "duration": 172}, {"note": 0, "velocity": 0, "duration": 68}, {"note": 64, "velocity": 87, "duration": 329}, {"note": 0, "velocity": 0, "duration": 151}, {"note": 64, "velocity": 84, "duration": 185}, {"note": 63, "velocity": 85, "duration": 332}, {"note": 0, "velocity": 0, "duration": 148}, {"note": 64, "velocity": 88, "duration": 362}, {"note": 0, "velocity": 0, "duration": 118}, {"note": 66, "velocity": 85, "duration": 1920}, {"note": 0, "velocity": 0, "duration": 240}, {"note": 71, "velocity": 90, "duration": 211}, {"note": 76, "velocity": 90, "duration": 429}, {"note": 78, "velocity": 89, "duration": 756}, {"note": 0, "velocity": 0, "duration": 204}, {"note": 79, "velocity": 86, "duration": 148}, {"note": 0, "velocity": 0, "duration": 92}, {"note": 72, "velocity": 84, "duration": 364}, {"note": 0, "velocity": 0, "duration": 116}, {"note": 72, "velocity": 84, "duration": 208}, {"note": 76, "velocity": 86, "duration": 948}, {"note": 76, "velocity": 88, "duration": 200}, {"note": 74, "velocity": 90, "duration": 357}, {"note": 0, "velocity": 0, "duration": 123}, {"note": 76, "velocity": 87, "duration": 212}, {"note": 78, "velocity": 86, "duration": 423}, {"note": 74, "velocity": 91, "duration": 455}, {"note": 71, "velocity": 87, "duration": 1684}, {"note": 0, "velocity": 0, "duration": 236}, {"note": 67, "velocity": 85, "duration": 188}, {"note": 69, "velocity": 88, "duration": 382}, {"note": 0, "velocity": 0, "duration": 98}, {"note": 69, "velocity": 85, "duration": 158}, {"note": 0, "velocity": 0, "duration": 82}, {"note": 69, "velocity": 86, "duration": 366}, {"note": 0, "velocity": 0, "duration": 114}, {"note": 76, "velocity": 90, "duration": 365}, {"note": 0, "velocity": 0, "duration": 115}, {"note": 75, "velocity": 88, "duration": 1352}, {"note": 0, "velocity": 0, "duration": 568}, {"note": 71, "velocity": 91, "duration": 190}, {"note": 83, "velocity": 91, "duration": 213}, {"note": 81, "velocity": 81, "duration": 136}, {"note": 0, "velocity": 0, "duration": 104}, {"note": 81, "velocity": 86, "duration": 182}, {"note": 79, "velocity": 84, "duration": 543}, {"note": 78, "velocity": 84, "duration": 410}, {"note": 0, "velocity": 0, "duration": 70}, {"note": 79, "velocity": 86, "duration": 714}, {"note": 78, "velocity": 80, "duration": 234}, {"note": 76, "velocity": 85, "duration": 2329}, {"note": 0, "velocity": 0, "duration": 31511}, {"note": 76, "velocity": 89, "duration": 806}, {"note": 0, "velocity": 0, "duration": 154}, {"note": 76, "velocity": 89, "duration": 214}, {"note": 79, "velocity": 90, "duration": 210}, {"note": 83, "velocity": 88, "duration": 461}, {"note": 76, "velocity": 88, "duration": 1254}, {"note": 0, "velocity": 0, "duration": 186}, {"note": 79, "velocity": 90, "duration": 377}, {"note": 0, "velocity": 0, "duration": 103}, {"note": 72, "velocity": 91, "duration": 360}, {"note": 0, "velocity": 0, "duration": 120}, {"note": 72, "velocity": 85, "duration": 191}, {"note": 76, "velocity": 87, "duration": 815}, {"note": 0, "velocity": 0, "duration": 145}, {"note": 76, "velocity": 84, "duration": 160}, {"note": 0, "velocity": 0, "duration": 80}, {"note": 74, "velocity": 88, "duration": 324}, {"note": 0, "velocity": 0, "duration": 156}, {"note": 76, "velocity": 86, "duration": 154}, {"note": 0, "velocity": 0, "duration": 86}, {"note": 78, "velocity": 85, "duration": 422}, {"note": 74, "velocity": 90, "duration": 451}, {"note": 71, "velocity": 85, "duration": 1210}, {"note": 0, "velocity": 0, "duration": 710}, {"note": 67, "velocity": 84, "duration": 187}, {"note": 69, "velocity": 88, "duration": 354}, {"note": 0, "velocity": 0, "duration": 126}, {"note": 67, "velocity": 82, "duration": 123}, {"note": 0, "velocity": 0, "duration": 117}, {"note": 69, "velocity": 85, "duration": 662}, {"note": 67, "velocity": 86, "duration": 163}, {"note": 0, "velocity": 0, "duration": 77}, {"note": 69, "velocity": 87, "duration": 1272}, {"note": 0, "velocity": 0, "duration": 648}, {"note": 64, "velocity": 84, "duration": 172}, {"note": 0, "velocity": 0, "duration": 68}, {"note": 64, "velocity": 87, "duration": 329}, {"note": 0, "velocity": 0, "duration": 151}, {"note": 64, "velocity": 84, "duration": 185}, {"note": 63, "velocity": 85, "duration": 332}, {"note": 0, "velocity": 0, "duration": 148}, {"note": 64, "velocity": 88, "duration": 362}, {"note": 0, "velocity": 0, "duration": 118}, {"note": 66, "velocity": 85, "duration": 1920}, {"note": 0, "velocity": 0, "duration": 240}, {"note": 71, "velocity": 90, "duration": 211}, {"note": 76, "velocity": 90, "duration": 429}, {"note": 78, "velocity": 89, "duration": 756}, {"note": 0, "velocity": 0, "duration": 204}, {"note": 79, "velocity": 86, "duration": 148}, {"note": 0, "velocity": 0, "duration": 92}, {"note": 72, "velocity": 84, "duration": 364}, {"note": 0, "velocity": 0, "duration": 116}, {"note": 72, "velocity": 84, "duration": 208}, {"note": 76, "velocity": 86, "duration": 948}, {"note": 76, "velocity": 88, "duration": 200}, {"note": 74, "velocity": 90, "duration": 357}, {"note": 0, "velocity": 0, "duration": 123}, {"note": 76, "velocity": 87, "duration": 212}, {"note": 78, "velocity": 86, "duration": 423}, {"note": 74, "velocity": 91, "duration": 455}, {"note": 71, "velocity": 87, "duration": 1684}, {"note": 0, "velocity": 0, "duration": 236}, {"note": 67, "velocity": 85, "duration": 188}, {"note": 69, "velocity": 88, "duration": 382}, {"note": 0, "velocity": 0, "duration": 98}, {"note": 69, "velocity": 85, "duration": 158}, {"note": 0, "velocity": 0, "duration": 82}, {"note": 69, "velocity": 86, "duration": 366}, {"note": 0, "velocity": 0, "duration": 114}, {"note": 76, "velocity": 90, "duration": 365}, {"note": 0, "velocity": 0, "duration": 115}, {"note": 75, "velocity": 88, "duration": 1352}, {"note": 0, "velocity": 0, "duration": 568}, {"note": 71, "velocity": 91, "duration": 190}, {"note": 83, "velocity": 91, "duration": 213}, {"note": 81, "velocity": 81, "duration": 136}, {"note": 0, "velocity": 0, "duration": 104}, {"note": 81, "velocity": 86, "duration": 182}, {"note": 79, "velocity": 84, "duration": 543}, {"note": 78, "velocity": 84, "duration": 410}, {"note": 0, "velocity": 0, "duration": 70}, {"note": 79, "velocity": 86, "duration": 714}, {"note": 78, "velocity": 80, "duration": 234}, {"note": 76, "velocity": 85, "duration": 2329}, {"note": 0, "velocity": 0, "duration": 551}, {"note": 67, "velocity": 85, "duration": 188}, {"note": 69, "velocity": 88, "duration": 382}, {"note": 0, "velocity": 0, "duration": 98}, {"note": 69, "velocity": 85, "duration": 158}, {"note": 0, "velocity": 0, "duration": 82}, {"note": 69, "velocity": 86, "duration": 366}, {"note": 0, "velocity": 0, "duration": 114}, {"note": 76, "velocity": 90, "duration": 365}, {"note": 0, "velocity": 0, "duration": 115}, {"note": 75, "velocity": 88, "duration": 1352}, {"note": 0, "velocity": 0, "duration": 568}, {"note": 71, "velocity": 91, "duration": 190}, {"note": 83, "velocity": 91, "duration": 213}, {"note": 81, "velocity": 81, "duration": 136}, {"note": 0, "velocity": 0, "duration": 104}, {"note": 81, "velocity": 86, "duration": 182}, {"note": 79, "velocity": 84, "duration": 543}, {"note": 78, "velocity": 84, "duration": 410}, {"note": 0, "velocity": 0, "duration": 70}, {"note": 79, "velocity": 86, "duration": 714}, {"note": 78, "velocity": 80, "duration": 234}, {"note": 76, "velocity": 85, "duration": 2329}, {"note": 71, "velocity": 85, "duration": 173}, {"note": 76, "velocity": 86, "duration": 77}, {"note": 0, "velocity": 0, "duration": 201}, {"note": 74, "velocity": 91, "duration": 269}, {"note": 72, "velocity": 85, "duration": 301}, {"note": 71, "velocity": 84, "duration": 239}, {"note": 72, "velocity": 77, "duration": 1179}, {"note": 0, "velocity": 0, "duration": 229}, {"note": 67, "velocity": 78, "duration": 562}, {"note": 66, "velocity": 79, "duration": 1388}, {"note": 0, "velocity": 0, "duration": 78}, {"note": 71, "velocity": 85, "duration": 150}, {"note": 0, "velocity": 0, "duration": 128}, {"note": 71, "velocity": 85, "duration": 1783}, {"note": 0, "velocity": 0, "duration": 133}, {"note": 69, "velocity": 90, "duration": 534}, {"note": 67, "velocity": 85, "duration": 1091}, {"note": 0, "velocity": 0, "duration": 71}, {"note": 67, "velocity": 86, "duration": 315}, {"note": 71, "velocity": 88, "duration": 453}, {"note": 0, "velocity": 0, "duration": 121}, {"note": 71, "velocity": 85, "duration": 195}, {"note": 0, "velocity": 0, "duration": 162}, {"note": 71, "velocity": 82, "duration": 301}, {"note": 69, "velocity": 79, "duration": 1422}, {"note": 0, "velocity": 0, "duration": 188}, {"note": 60, "velocity": 82, "duration": 607}, {"note": 59, "velocity": 84, "duration": 741}, {"note": 69, "velocity": 85, "duration": 686}, {"note": 66, "velocity": 83, "duration": 1487}, {"note": 67, "velocity": 76, "duration": 597}, {"note": 66, "velocity": 75, "duration": 2329}, {"note": 64, "velocity": 82, "duration": 2341}]]