[[{"note": 75, "velocity": 88, "duration": 306}, {"note": 0, "velocity": 0, "duration": 174}, {"note": 75, "velocity": 88, "duration": 345}, {"note": 0, "velocity": 0, "duration": 135}, {"note": 75, "velocity": 83, "duration": 753}, {"note": 0, "velocity": 0, "duration": 207}, {"note": 75, "velocity": 93, "duration": 204}, {"note": 73, "velocity": 78, "duration": 133}, {"note": 0, "velocity": 0, "duration": 107}, {"note": 73, "velocity": 79, "duration": 179}, {"note": 0, "velocity": 0, "duration": 61}, {"note": 70, "velocity": 81, "duration": 799}, {"note": 0, "velocity": 0, "duration": 401}, {"note": 70, "velocity": 83, "duration": 103}, {"note": 0, "velocity": 0, "duration": 137}, {"note": 70, "velocity": 79, "duration": 127}, {"note": 0, "velocity": 0, "duration": 113}, {"note": 70, "velocity": 82, "duration": 108}, {"note": 0, "velocity": 0, "duration": 132}, {"note": 70, "velocity": 84, "duration": 390}, {"note": 0, "velocity": 0, "duration": 90}, {"note": 70, "velocity": 78, "duration": 112}, {"note": 0, "velocity": 0, "duration": 128}, {"note": 70, "velocity": 79, "duration": 133}, {"note": 0, "velocity": 0, "duration": 107}, {"note": 73, "velocity": 80, "duration": 140}, {"note": 0, "velocity": 0, "duration": 100}, {"note": 73, "velocity": 79, "duration": 594}, {"note": 0, "velocity": 0, "duration": 126}, {"note": 68, "velocity": 81, "duration": 992}, {"note": 0, "velocity": 0, "duration": 208}, {"note": 75, "velocity": 88, "duration": 335}, {"note": 0, "velocity": 0, "duration": 145}, {"note": 75, "velocity": 88, "duration": 361}, {"note": 0, "velocity": 0, "duration": 119}, {"note": 75, "velocity": 93, "duration": 582}, {"note": 0, "velocity": 0, "duration": 138}, {"note": 73, "velocity": 82, "duration": 142}, {"note": 0, "velocity": 0, "duration": 98}, {"note": 75, "velocity": 91, "duration": 148}, {"note": 0, "velocity": 0, "duration": 92}, {"note": 73, "velocity": 88, "duration": 423}, {"note": 70, "velocity": 83, "duration": 926}, {"note": 0, "velocity": 0, "duration": 274}, {"note": 70, "velocity": 81, "duration": 125}, {"note": 0, "velocity": 0, "duration": 115}, {"note": 70, "velocity": 82, "duration": 139}, {"note": 0, "velocity": 0, "duration": 101}, {"note": 70, "velocity": 79, "duration": 139}, {"note": 0, "velocity": 0, "duration": 101}, {"note": 70, "velocity": 81, "duration": 159}, {"note": 0, "velocity": 0, "duration": 81}, {"note": 70, "velocity": 82, "duration": 321}, {"note": 0, "velocity": 0, "duration": 159}, {"note": 70, "velocity": 84, "duration": 134}, {"note": 0, "velocity": 0, "duration": 106}, {"note": 73, "velocity": 81, "duration": 148}, {"note": 0, "velocity": 0, "duration": 92}, {"note": 78, "velocity": 93, "duration": 629}, {"note": 0, "velocity": 0, "duration": 91}, {"note": 77, "velocity": 81, "duration": 915}, {"note": 0, "velocity": 0, "duration": 285}, {"note": 78, "velocity": 88, "duration": 240}, {"note": 75, "velocity": 88, "duration": 240}, {"note": 0, "velocity": 0, "duration": 240}, {"note": 75, "velocity": 83, "duration": 720}, {"note": 0, "velocity": 0, "duration": 240}, {"note": 73, "velocity": 78, "duration": 133}, {"note": 0, "velocity": 0, "duration": 107}, {"note": 75, "velocity": 93, "duration": 204}, {"note": 73, "velocity": 79, "duration": 480}, {"note": 70, "velocity": 81, "duration": 799}, {"note": 0, "velocity": 0, "duration": 401}, {"note": 70, "velocity": 83, "duration": 103}, {"note": 0, "velocity": 0, "duration": 137}, {"note": 70, "velocity": 79, "duration": 127}, {"note": 0, "velocity": 0, "duration": 113}, {"note": 70, "velocity": 82, "duration": 108}, {"note": 0, "velocity": 0, "duration": 132}, {"note": 70, "velocity": 84, "duration": 240}, {"note": 70, "velocity": 78, "duration": 240}, {"note": 0, "velocity": 0, "duration": 240}, {"note": 70, "velocity": 79, "duration": 133}, {"note": 0, "velocity": 0, "duration": 107}, {"note": 73, "velocity": 80, "duration": 140}, {"note": 0, "velocity": 0, "duration": 100}, {"note": 73, "velocity": 79, "duration": 594}, {"note": 0, "velocity": 0, "duration": 126}, {"note": 68, "velocity": 81, "duration": 992}, {"note": 0, "velocity": 0, "duration": 208}, {"note": 75, "velocity": 88, "duration": 335}, {"note": 0, "velocity": 0, "duration": 145}, {"note": 75, "velocity": 88, "duration": 361}, {"note": 0, "velocity": 0, "duration": 119}, {"note": 75, "velocity": 93, "duration": 582}, {"note": 0, "velocity": 0, "duration": 378}, {"note": 75, "velocity": 91, "duration": 148}, {"note": 0, "velocity": 0, "duration": 92}, {"note": 78, "velocity": 88, "duration": 423}, {"note": 75, "velocity": 83, "duration": 926}, {"note": 0, "velocity": 0, "duration": 274}, {"note": 73, "velocity": 81, "duration": 125}, {"note": 0, "velocity": 0, "duration": 115}, {"note": 73, "velocity": 82, "duration": 139}, {"note": 0, "velocity": 0, "duration": 101}, {"note": 73, "velocity": 79, "duration": 139}, {"note": 0, "velocity": 0, "duration": 101}, {"note": 73, "velocity": 81, "duration": 159}, {"note": 0, "velocity": 0, "duration": 81}, {"note": 73, "velocity": 82, "duration": 321}, {"note": 0, "velocity": 0, "duration": 159}, {"note": 73, "velocity": 84, "duration": 134}, {"note": 0, "velocity": 0, "duration": 346}, {"note": 73, "velocity": 81, "duration": 148}, {"note": 0, "velocity": 0, "duration": 92}, {"note": 78, "velocity": 93, "duration": 480}, {"note": 77, "velocity": 81, "duration": 915}, {"note": 0, "velocity": 0, "duration": 765}, {"note": 68, "velocity": 78, "duration": 180}, {"note": 68, "velocity": 78, "duration": 158}, {"note": 0, "velocity": 0, "duration": 82}, {"note": 72, "velocity": 83, "duration": 367}, {"note": 0, "velocity": 0, "duration": 113}, {"note": 72, "velocity": 78, "duration": 138}, {"note": 0, "velocity": 0, "duration": 102}, {"note": 72, "velocity": 83, "duration": 179}, {"note": 0, "velocity": 0, "duration": 61}, {"note": 75, "velocity": 86, "duration": 372}, {"note": 0, "velocity": 0, "duration": 108}, {"note": 75, "velocity": 88, "duration": 118}, {"note": 0, "velocity": 0, "duration": 122}, {"note": 75, "velocity": 91, "duration": 167}, {"note": 0, "velocity": 0, "duration": 73}, {"note": 78, "velocity": 80, "duration": 377}, {"note": 0, "velocity": 0, "duration": 103}, {"note": 75, "velocity": 93, "duration": 133}, {"note": 0, "velocity": 0, "duration": 107}, {"note": 78, "velocity": 81, "duration": 657}, {"note": 0, "velocity": 0, "duration": 63}, {"note": 75, "velocity": 94, "duration": 370}, {"note": 0, "velocity": 0, "duration": 110}, {"note": 78, "velocity": 79, "duration": 540}, {"note": 75, "velocity": 93, "duration": 183}, {"note": 80, "velocity": 81, "duration": 344}, {"note": 0, "velocity": 0, "duration": 136}, {"note": 80, "velocity": 83, "duration": 170}, {"note": 0, "velocity": 0, "duration": 70}, {"note": 78, "velocity": 83, "duration": 165}, {"note": 0, "velocity": 0, "duration": 75}, {"note": 77, "velocity": 84, "duration": 193}, {"note": 75, "velocity": 88, "duration": 1013}, {"note": 0, "velocity": 0, "duration": 453}, {"note": 68, "velocity": 78, "duration": 99}, {"note": 0, "velocity": 0, "duration": 115}, {"note": 68, "velocity": 79, "duration": 175}, {"note": 0, "velocity": 0, "duration": 65}, {"note": 72, "velocity": 79, "duration": 354}, {"note": 0, "velocity": 0, "duration": 126}, {"note": 72, "velocity": 82, "duration": 129}, {"note": 0, "velocity": 0, "duration": 111}, {"note": 72, "velocity": 84, "duration": 149}, {"note": 0, "velocity": 0, "duration": 91}, {"note": 75, "velocity": 91, "duration": 322}, {"note": 0, "velocity": 0, "duration": 158}, {"note": 75, "velocity": 88, "duration": 126}, {"note": 0, "velocity": 0, "duration": 114}, {"note": 75, "velocity": 93, "duration": 145}, {"note": 0, "velocity": 0, "duration": 95}, {"note": 78, "velocity": 86, "duration": 398}, {"note": 0, "velocity": 0, "duration": 82}, {"note": 75, "velocity": 98, "duration": 139}, {"note": 0, "velocity": 0, "duration": 101}, {"note": 78, "velocity": 82, "duration": 599}, {"note": 0, "velocity": 0, "duration": 121}, {"note": 75, "velocity": 98, "duration": 363}, {"note": 0, "velocity": 0, "duration": 117}, {"note": 78, "velocity": 82, "duration": 177}, {"note": 0, "velocity": 0, "duration": 63}, {"note": 80, "velocity": 79, "duration": 157}, {"note": 0, "velocity": 0, "duration": 83}, {"note": 78, "velocity": 86, "duration": 157}, {"note": 0, "velocity": 0, "duration": 83}, {"note": 82, "velocity": 82, "duration": 1913}, {"note": 0, "velocity": 0, "duration": 278}, {"note": 78, "velocity": 79, "duration": 419}, {"note": 75, "velocity": 88, "duration": 363}, {"note": 0, "velocity": 0, "duration": 117}, {"note": 78, "velocity": 82, "duration": 548}, {"note": 0, "velocity": 0, "duration": 172}, {"note": 75, "velocity": 86, "duration": 148}, {"note": 0, "velocity": 0, "duration": 92}, {"note": 78, "velocity": 88, "duration": 234}, {"note": 75, "velocity": 83, "duration": 99}, {"note": 0, "velocity": 0, "duration": 141}, {"note": 75, "velocity": 82, "duration": 139}, {"note": 0, "velocity": 0, "duration": 101}, {"note": 75, "velocity": 93, "duration": 513}, {"note": 75, "velocity": 113, "duration": 33}, {"note": 0, "velocity": 0, "duration": 207}, {"note": 75, "velocity": 93, "duration": 102}, {"note": 0, "velocity": 0, "duration": 138}, {"note": 75, "velocity": 93, "duration": 123}, {"note": 0, "velocity": 0, "duration": 117}, {"note": 82, "velocity": 86, "duration": 388}, {"note": 0, "velocity": 0, "duration": 92}, {"note": 80, "velocity": 83, "duration": 124}, {"note": 0, "velocity": 0, "duration": 116}, {"note": 78, "velocity": 86, "duration": 495}, {"note": 0, "velocity": 0, "duration": 705}, {"note": 80, "velocity": 82, "duration": 357}, {"note": 0, "velocity": 0, "duration": 123}, {"note": 78, "velocity": 79, "duration": 143}, {"note": 0, "velocity": 0, "duration": 97}, {"note": 77, "velocity": 88, "duration": 1034}, {"note": 0, "velocity": 0, "duration": 166}, {"note": 78, "velocity": 83, "duration": 426}, {"note": 75, "velocity": 91, "duration": 372}, {"note": 0, "velocity": 0, "duration": 108}, {"note": 78, "velocity": 81, "duration": 428}, {"note": 75, "velocity": 86, "duration": 107}, {"note": 0, "velocity": 0, "duration": 133}, {"note": 75, "velocity": 88, "duration": 125}, {"note": 0, "velocity": 0, "duration": 115}, {"note": 78, "velocity": 82, "duration": 211}, {"note": 75, "velocity": 93, "duration": 103}, {"note": 0, "velocity": 0, "duration": 137}, {"note": 75, "velocity": 86, "duration": 104}, {"note": 0, "velocity": 0, "duration": 136}, {"note": 75, "velocity": 94, "duration": 240}, {"note": 0, "velocity": 0, "duration": 240}, {"note": 75, "velocity": 93, "duration": 123}, {"note": 0, "velocity": 0, "duration": 117}, {"note": 75, "velocity": 91, "duration": 118}, {"note": 0, "velocity": 0, "duration": 122}, {"note": 75, "velocity": 94, "duration": 122}, {"note": 0, "velocity": 0, "duration": 118}, {"note": 82, "velocity": 84, "duration": 635}, {"note": 0, "velocity": 0, "duration": 85}, {"note": 78, "velocity": 84, "duration": 796}, {"note": 0, "velocity": 0, "duration": 404}, {"note": 80, "velocity": 86, "duration": 607}, {"note": 0, "velocity": 0, "duration": 113}, {"note": 77, "velocity": 83, "duration": 578}, {"note": 0, "velocity": 0, "duration": 653}, {"note": 78, "velocity": 79, "duration": 419}, {"note": 75, "velocity": 88, "duration": 363}, {"note": 0, "velocity": 0, "duration": 117}, {"note": 78, "velocity": 82, "duration": 548}, {"note": 0, "velocity": 0, "duration": 172}, {"note": 75, "velocity": 86, "duration": 148}, {"note": 0, "velocity": 0, "duration": 92}, {"note": 78, "velocity": 88, "duration": 234}, {"note": 75, "velocity": 83, "duration": 99}, {"note": 0, "velocity": 0, "duration": 141}, {"note": 75, "velocity": 82, "duration": 139}, {"note": 0, "velocity": 0, "duration": 101}, {"note": 75, "velocity": 93, "duration": 513}, {"note": 75, "velocity": 113, "duration": 33}, {"note": 0, "velocity": 0, "duration": 207}, {"note": 75, "velocity": 93, "duration": 102}, {"note": 0, "velocity": 0, "duration": 138}, {"note": 75, "velocity": 93, "duration": 123}, {"note": 0, "velocity": 0, "duration": 117}, {"note": 82, "velocity": 86, "duration": 388}, {"note": 0, "velocity": 0, "duration": 92}, {"note": 80, "velocity": 83, "duration": 124}, {"note": 0, "velocity": 0, "duration": 116}, {"note": 78, "velocity": 86, "duration": 495}, {"note": 0, "velocity": 0, "duration": 705}, {"note": 80, "velocity": 82, "duration": 357}, {"note": 0, "velocity": 0, "duration": 123}, {"note": 78, "velocity": 79, "duration": 143}, {"note": 0, "velocity": 0, "duration": 97}, {"note": 77, "velocity": 88, "duration": 1034}, {"note": 0, "velocity": 0, "duration": 166}, {"note": 78, "velocity": 83, "duration": 426}, {"note": 75, "velocity": 91, "duration": 372}, {"note": 0, "velocity": 0, "duration": 108}, {"note": 78, "velocity": 81, "duration": 428}, {"note": 75, "velocity": 86, "duration": 107}, {"note": 0, "velocity": 0, "duration": 133}, {"note": 75, "velocity": 88, "duration": 125}, {"note": 0, "velocity": 0, "duration": 115}, {"note": 78, "velocity": 82, "duration": 211}, {"note": 75, "velocity": 93, "duration": 103}, {"note": 0, "velocity": 0, "duration": 137}, {"note": 75, "velocity": 86, "duration": 104}, {"note": 0, "velocity": 0, "duration": 136}, {"note": 75, "velocity": 94, "duration": 240}, {"note": 0, "velocity": 0, "duration": 240}, {"note": 75, "velocity": 93, "duration": 123}, {"note": 0, "velocity": 0, "duration": 117}, {"note": 75, "velocity": 91, "duration": 118}, {"note": 0, "velocity": 0, "duration": 122}, {"note": 75, "velocity": 94, "duration": 122}, {"note": 0, "velocity": 0, "duration": 118}, {"note": 82, "velocity": 84, "duration": 635}, {"note": 0, "velocity": 0, "duration": 85}, {"note": 78, "velocity": 84, "duration": 796}, {"note": 0, "velocity": 0, "duration": 404}, {"note": 80, "velocity": 86, "duration": 607}, {"note": 0, "velocity": 0, "duration": 113}, {"note": 77, "velocity": 83, "duration": 578}, {"note": 0, "velocity": 0, "duration": 638}, {"note": 78, "velocity": 97, "duration": 1523}, {"note": 0, "velocity": 0, "duration": 15741}, {"note": 78, "velocity": 88, "duration": 240}, {"note": 75, "velocity": 88, "duration": 240}, {"note": 0, "velocity": 0, "duration": 240}, {"note": 75, "velocity": 83, "duration": 720}, {"note": 0, "velocity": 0, "duration": 240}, {"note": 73, "velocity": 78, "duration": 133}, {"note": 0, "velocity": 0, "duration": 107}, {"note": 75, "velocity": 93, "duration": 204}, {"note": 73, "velocity": 79, "duration": 480}, {"note": 70, "velocity": 81, "duration": 799}, {"note": 0, "velocity": 0, "duration": 401}, {"note": 70, "velocity": 83, "duration": 103}, {"note": 0, "velocity": 0, "duration": 137}, {"note": 70, "velocity": 79, "duration": 127}, {"note": 0, "velocity": 0, "duration": 113}, {"note": 70, "velocity": 82, "duration": 108}, {"note": 0, "velocity": 0, "duration": 132}, {"note": 70, "velocity": 84, "duration": 240}, {"note": 70, "velocity": 78, "duration": 240}, {"note": 0, "velocity": 0, "duration": 240}, {"note": 70, "velocity": 79, "duration": 133}, {"note": 0, "velocity": 0, "duration": 107}, {"note": 73, "velocity": 80, "duration": 140}, {"note": 0, "velocity": 0, "duration": 100}, {"note": 73, "velocity": 79, "duration": 594}, {"note": 0, "velocity": 0, "duration": 126}, {"note": 68, "velocity": 81, "duration": 992}, {"note": 0, "velocity": 0, "duration": 208}, {"note": 75, "velocity": 88, "duration": 335}, {"note": 0, "velocity": 0, "duration": 145}, {"note": 75, "velocity": 88, "duration": 361}, {"note": 0, "velocity": 0, "duration": 119}, {"note": 75, "velocity": 93, "duration": 582}, {"note": 0, "velocity": 0, "duration": 378}, {"note": 75, "velocity": 91, "duration": 148}, {"note": 0, "velocity": 0, "duration": 92}, {"note": 78, "velocity": 88, "duration": 423}, {"note": 75, "velocity": 83, "duration": 926}, {"note": 0, "velocity": 0, "duration": 274}, {"note": 73, "velocity": 81, "duration": 125}, {"note": 0, "velocity": 0, "duration": 115}, {"note": 73, "velocity": 82, "duration": 139}, {"note": 0, "velocity": 0, "duration": 101}, {"note": 73, "velocity": 79, "duration": 139}, {"note": 0, "velocity": 0, "duration": 101}, {"note": 73, "velocity": 81, "duration": 159}, {"note": 0, "velocity": 0, "duration": 81}, {"note": 73, "velocity": 82, "duration": 321}, {"note": 0, "velocity": 0, "duration": 159}, {"note": 73, "velocity": 84, "duration": 134}, {"note": 0, "velocity": 0, "duration": 346}, {"note": 73, "velocity": 81, "duration": 148}, {"note": 0, "velocity": 0, "duration": 92}, {"note": 78, "velocity": 93, "duration": 480}, {"note": 77, "velocity": 81, "duration": 915}, {"note": 0, "velocity": 0, "duration": 765}, {"note": 68, "velocity": 78, "duration": 180}, {"note": 68, "velocity": 78, "duration": 158}, {"note": 0, "velocity": 0, "duration": 82}, {"note": 72, "velocity": 83, "duration": 367}, {"note": 0, "velocity": 0, "duration": 113}, {"note": 72, "velocity": 78, "duration": 138}, {"note": 0, "velocity": 0, "duration": 102}, {"note": 72, "velocity": 83, "duration": 179}, {"note": 0, "velocity": 0, "duration": 61}, {"note": 75, "velocity": 86, "duration": 372}, {"note": 0, "velocity": 0, "duration": 108}, {"note": 75, "velocity": 88, "duration": 118}, {"note": 0, "velocity": 0, "duration": 122}, {"note": 75, "velocity": 91, "duration": 167}, {"note": 0, "velocity": 0, "duration": 73}, {"note": 78, "velocity": 80, "duration": 377}, {"note": 0, "velocity": 0, "duration": 103}, {"note": 75, "velocity": 93, "duration": 133}, {"note": 0, "velocity": 0, "duration": 107}, {"note": 78, "velocity": 81, "duration": 657}, {"note": 0, "velocity": 0, "duration": 63}, {"note": 75, "velocity": 94, "duration": 370}, {"note": 0, "velocity": 0, "duration": 110}, {"note": 78, "velocity": 79, "duration": 540}, {"note": 75, "velocity": 93, "duration": 183}, {"note": 80, "velocity": 81, "duration": 344}, {"note": 0, "velocity": 0, "duration": 136}, {"note": 80, "velocity": 83, "duration": 170}, {"note": 0, "velocity": 0, "duration": 70}, {"note": 78, "velocity": 83, "duration": 165}, {"note": 0, "velocity": 0, "duration": 75}, {"note": 77, "velocity": 84, "duration": 193}, {"note": 75, "velocity": 88, "duration": 1013}, {"note": 0, "velocity": 0, "duration": 453}, {"note": 68, "velocity": 78, "duration": 99}, {"note": 0, "velocity": 0, "duration": 115}, {"note": 68, "velocity": 79, "duration": 175}, {"note": 0, "velocity": 0, "duration": 65}, {"note": 72, "velocity": 79, "duration": 354}, {"note": 0, "velocity": 0, "duration": 126}, {"note": 72, "velocity": 82, "duration": 129}, {"note": 0, "velocity": 0, "duration": 111}, {"note": 72, "velocity": 84, "duration": 149}, {"note": 0, "velocity": 0, "duration": 91}, {"note": 75, "velocity": 91, "duration": 322}, {"note": 0, "velocity": 0, "duration": 158}, {"note": 75, "velocity": 88, "duration": 126}, {"note": 0, "velocity": 0, "duration": 114}, {"note": 75, "velocity": 93, "duration": 145}, {"note": 0, "velocity": 0, "duration": 95}, {"note": 78, "velocity": 86, "duration": 398}, {"note": 0, "velocity": 0, "duration": 82}, {"note": 75, "velocity": 98, "duration": 139}, {"note": 0, "velocity": 0, "duration": 101}, {"note": 78, "velocity": 82, "duration": 599}, {"note": 0, "velocity": 0, "duration": 121}, {"note": 75, "velocity": 98, "duration": 363}, {"note": 0, "velocity": 0, "duration": 117}, {"note": 78, "velocity": 82, "duration": 177}, {"note": 0, "velocity": 0, "duration": 63}, {"note": 80, "velocity": 79, "duration": 157}, {"note": 0, "velocity": 0, "duration": 83}, {"note": 78, "velocity": 86, "duration": 157}, {"note": 0, "velocity": 0, "duration": 83}, {"note": 82, "velocity": 82, "duration": 1913}, {"note": 0, "velocity": 0, "duration": 278}, {"note": 78, "velocity": 79, "duration": 419}, {"note": 75, "velocity": 88, "duration": 363}, {"note": 0, "velocity": 0, "duration": 117}, {"note": 78, "velocity": 82, "duration": 548}, {"note": 0, "velocity": 0, "duration": 172}, {"note": 75, "velocity": 86, "duration": 148}, {"note": 0, "velocity": 0, "duration": 92}, {"note": 78, "velocity": 88, "duration": 234}, {"note": 75, "velocity": 83, "duration": 99}, {"note": 0, "velocity": 0, "duration": 141}, {"note": 75, "velocity": 82, "duration": 139}, {"note": 0, "velocity": 0, "duration": 101}, {"note": 75, "velocity": 93, "duration": 513}, {"note": 75, "velocity": 113, "duration": 33}, {"note": 0, "velocity": 0, "duration": 207}, {"note": 75, "velocity": 93, "duration": 102}, {"note": 0, "velocity": 0, "duration": 138}, {"note": 75, "velocity": 93, "duration": 123}, {"note": 0, "velocity": 0, "duration": 117}, {"note": 82, "velocity": 86, "duration": 388}, {"note": 0, "velocity": 0, "duration": 92}, {"note": 80, "velocity": 83, "duration": 124}, {"note": 0, "velocity": 0, "duration": 116}, {"note": 78, "velocity": 86, "duration": 495}, {"note": 0, "velocity": 0, "duration": 705}, {"note": 80, "velocity": 82, "duration": 357}, {"note": 0, "velocity": 0, "duration": 123}, {"note": 78, "velocity": 79, "duration": 143}, {"note": 0, "velocity": 0, "duration": 97}, {"note": 77, "velocity": 88, "duration": 1034}, {"note": 0, "velocity": 0, "duration": 166}, {"note": 78, "velocity": 83, "duration": 426}, {"note": 75, "velocity": 91, "duration": 372}, {"note": 0, "velocity": 0, "duration": 108}, {"note": 78, "velocity": 81, "duration": 428}, {"note": 75, "velocity": 86, "duration": 107}, {"note": 0, "velocity": 0, "duration": 133}, {"note": 75, "velocity": 88, "duration": 125}, {"note": 0, "velocity": 0, "duration": 115}, {"note": 78, "velocity": 82, "duration": 211}, {"note": 75, "velocity": 93, "duration": 103}, {"note": 0, "velocity": 0, "duration": 137}, {"note": 75, "velocity": 86, "duration": 104}, {"note": 0, "velocity": 0, "duration": 136}, {"note": 75, "velocity": 94, "duration": 240}, {"note": 0, "velocity": 0, "duration": 240}, {"note": 75, "velocity": 93, "duration": 123}, {"note": 0, "velocity": 0, "duration": 117}, {"note": 75, "velocity": 91, "duration": 118}, {"note": 0, "velocity": 0, "duration": 122}, {"note": 75, "velocity": 94, "duration": 122}, {"note": 0, "velocity": 0, "duration": 118}, {"note": 82, "velocity": 84, "duration": 635}, {"note": 0, "velocity": 0, "duration": 85}, {"note": 78, "velocity": 84, "duration": 796}, {"note": 0, "velocity": 0, "duration": 404}, {"note": 80, "velocity": 86, "duration": 607}, {"note": 0, "velocity": 0, "duration": 113}, {"note": 77, "velocity": 83, "duration": 578}, {"note": 0, "velocity": 0, "duration": 653}, {"note": 78, "velocity": 79, "duration": 419}, {"note": 75, "velocity": 88, "duration": 363}, {"note": 0, "velocity": 0, "duration": 117}, {"note": 78, "velocity": 82, "duration": 548}, {"note": 0, "velocity": 0, "duration": 172}, {"note": 75, "velocity": 86, "duration": 148}, {"note": 0, "velocity": 0, "duration": 92}, {"note": 78, "velocity": 88, "duration": 234}, {"note": 75, "velocity": 83, "duration": 99}, {"note": 0, "velocity": 0, "duration": 141}, {"note": 75, "velocity": 82, "duration": 139}, {"note": 0, "velocity": 0, "duration": 101}, {"note": 75, "velocity": 93, "duration": 513}, {"note": 75, "velocity": 113, "duration": 33}, {"note": 0, "velocity": 0, "duration": 207}, {"note": 75, "velocity": 93, "duration": 102}, {"note": 0, "velocity": 0, "duration": 138}, {"note": 75, "velocity": 93, "duration": 123}, {"note": 0, "velocity": 0, "duration": 117}, {"note": 82, "velocity": 86, "duration": 388}, {"note": 0, "velocity": 0, "duration": 92}, {"note": 80, "velocity": 83, "duration": 124}, {"note": 0, "velocity": 0, "duration": 116}, {"note": 78, "velocity": 86, "duration": 495}, {"note": 0, "velocity": 0, "duration": 705}, {"note": 80, "velocity": 82, "duration": 357}, {"note": 0, "velocity": 0, "duration": 123}, {"note": 78, "velocity": 79, "duration": 143}, {"note": 0, "velocity": 0, "duration": 97}, {"note": 77, "velocity": 88, "duration": 1034}, {"note": 0, "velocity": 0, "duration": 166}, {"note": 78, "velocity": 83, "duration": 426}, {"note": 75, "velocity": 91, "duration": 372}, {"note": 0, "velocity": 0, "duration": 108}, {"note": 78, "velocity": 81, "duration": 428}, {"note": 75, "velocity": 86, "duration": 107}, {"note": 0, "velocity": 0, "duration": 133}, {"note": 75, "velocity": 88, "duration": 125}, {"note": 0, "velocity": 0, "duration": 115}, {"note": 78, "velocity": 82, "duration": 211}, {"note": 75, "velocity": 93, "duration": 103}, {"note": 0, "velocity": 0, "duration": 137}, {"note": 75, "velocity": 86, "duration": 104}, {"note": 0, "velocity": 0, "duration": 136}, {"note": 75, "velocity": 94, "duration": 240}, {"note": 0, "velocity": 0, "duration": 240}, {"note": 75, "velocity": 93, "duration": 123}, {"note": 0, "velocity": 0, "duration": 117}, {"note": 75, "velocity": 91, "duration": 118}, {"note": 0, "velocity": 0, "duration": 122}, {"note": 75, "velocity": 94, "duration": 122}, {"note": 0, "velocity": 0, "duration": 118}, {"note": 82, "velocity": 84, "duration": 635}, {"note": 0, "velocity": 0, "duration": 85}, {"note": 78, "velocity": 84, "duration": 796}, {"note": 0, "velocity": 0, "duration": 404}, {"note": 80, "velocity": 86, "duration": 607}, {"note": 0, "velocity": 0, "duration": 113}, {"note": 77, "velocity": 83, "duration": 1200}, {"note": 78, "velocity": 83, "duration": 1440}]]