[[{"note": 79, "velocity": 86, "duration": 395}, {"note": 0, "velocity": 0, "duration": 85}, {"note": 79, "velocity": 86, "duration": 263}, {"note": 77, "velocity": 85, "duration": 217}, {"note": 75, "velocity": 86, "duration": 577}, {"note": 0, "velocity": 0, "duration": 143}, {"note": 77, "velocity": 85, "duration": 159}, {"note": 0, "velocity": 0, "duration": 81}, {"note": 79, "velocity": 86, "duration": 191}, {"note": 82, "velocity": 81, "duration": 164}, {"note": 0, "velocity": 0, "duration": 76}, {"note": 79, "velocity": 81, "duration": 232}, {"note": 77, "velocity": 85, "duration": 220}, {"note": 79, "velocity": 85, "duration": 751}, {"note": 0, "velocity": 0, "duration": 209}, {"note": 79, "velocity": 85, "duration": 360}, {"note": 0, "velocity": 0, "duration": 120}, {"note": 79, "velocity": 85, "duration": 169}, {"note": 0, "velocity": 0, "duration": 71}, {"note": 77, "velocity": 79, "duration": 174}, {"note": 0, "velocity": 0, "duration": 66}, {"note": 75, "velocity": 90, "duration": 196}, {"note": 72, "velocity": 85, "duration": 158}, {"note": 0, "velocity": 0, "duration": 82}, {"note": 82, "velocity": 83, "duration": 143}, {"note": 0, "velocity": 0, "duration": 97}, {"note": 79, "velocity": 83, "duration": 206}, {"note": 77, "velocity": 84, "duration": 1705}, {"note": 0, "velocity": 0, "duration": 215}, {"note": 79, "velocity": 81, "duration": 371}, {"note": 0, "velocity": 0, "duration": 109}, {"note": 75, "velocity": 86, "duration": 131}, {"note": 0, "velocity": 0, "duration": 109}, {"note": 72, "velocity": 84, "duration": 162}, {"note": 0, "velocity": 0, "duration": 78}, {"note": 70, "velocity": 81, "duration": 534}, {"note": 0, "velocity": 0, "duration": 186}, {"note": 72, "velocity": 83, "duration": 183}, {"note": 75, "velocity": 88, "duration": 399}, {"note": 0, "velocity": 0, "duration": 81}, {"note": 72, "velocity": 85, "duration": 172}, {"note": 0, "velocity": 0, "duration": 68}, {"note": 75, "velocity": 85, "duration": 183}, {"note": 77, "velocity": 80, "duration": 720}, {"note": 77, "velocity": 82, "duration": 141}, {"note": 0, "velocity": 0, "duration": 99}, {"note": 77, "velocity": 83, "duration": 664}, {"note": 72, "velocity": 85, "duration": 231}, {"note": 75, "velocity": 84, "duration": 452}, {"note": 72, "velocity": 80, "duration": 458}, {"note": 70, "velocity": 79, "duration": 1800}, {"note": 0, "velocity": 0, "duration": 120}, {"note": 82, "velocity": 81, "duration": 458}, {"note": 77, "velocity": 84, "duration": 369}, {"note": 0, "velocity": 0, "duration": 111}, {"note": 77, "velocity": 90, "duration": 480}, {"note": 79, "velocity": 81, "duration": 342}, {"note": 0, "velocity": 0, "duration": 138}, {"note": 77, "velocity": 81, "duration": 335}, {"note": 0, "velocity": 0, "duration": 145}, {"note": 77, "velocity": 85, "duration": 208}, {"note": 75, "velocity": 81, "duration": 160}, {"note": 0, "velocity": 0, "duration": 80}, {"note": 72, "velocity": 67, "duration": 470}, {"note": 70, "velocity": 79, "duration": 325}, {"note": 0, "velocity": 0, "duration": 155}, {"note": 79, "velocity": 79, "duration": 369}, {"note": 0, "velocity": 0, "duration": 111}, {"note": 79, "velocity": 81, "duration": 164}, {"note": 0, "velocity": 0, "duration": 76}, {"note": 77, "velocity": 80, "duration": 179}, {"note": 0, "velocity": 0, "duration": 61}, {"note": 75, "velocity": 95, "duration": 214}, {"note": 72, "velocity": 85, "duration": 192}, {"note": 82, "velocity": 82, "duration": 186}, {"note": 79, "velocity": 83, "duration": 213}, {"note": 77, "velocity": 85, "duration": 1780}, {"note": 0, "velocity": 0, "duration": 140}, {"note": 82, "velocity": 80, "duration": 395}, {"note": 0, "velocity": 0, "duration": 85}, {"note": 75, "velocity": 81, "duration": 165}, {"note": 0, "velocity": 0, "duration": 75}, {"note": 72, "velocity": 82, "duration": 206}, {"note": 70, "velocity": 81, "duration": 597}, {"note": 0, "velocity": 0, "duration": 123}, {"note": 72, "velocity": 79, "duration": 204}, {"note": 75, "velocity": 86, "duration": 422}, {"note": 72, "velocity": 83, "duration": 200}, {"note": 75, "velocity": 85, "duration": 165}, {"note": 0, "velocity": 0, "duration": 75}, {"note": 77, "velocity": 83, "duration": 720}, {"note": 77, "velocity": 69, "duration": 190}, {"note": 77, "velocity": 85, "duration": 655}, {"note": 0, "velocity": 0, "duration": 65}, {"note": 72, "velocity": 80, "duration": 196}, {"note": 75, "velocity": 81, "duration": 467}, {"note": 72, "velocity": 82, "duration": 156}, {"note": 0, "velocity": 0, "duration": 84}, {"note": 70, "velocity": 80, "duration": 174}, {"note": 0, "velocity": 0, "duration": 66}, {"note": 70, "velocity": 80, "duration": 1767}, {"note": 0, "velocity": 0, "duration": 3993}, {"note": 79, "velocity": 86, "duration": 395}, {"note": 0, "velocity": 0, "duration": 85}, {"note": 79, "velocity": 86, "duration": 263}, {"note": 77, "velocity": 85, "duration": 217}, {"note": 75, "velocity": 86, "duration": 577}, {"note": 0, "velocity": 0, "duration": 143}, {"note": 77, "velocity": 85, "duration": 159}, {"note": 0, "velocity": 0, "duration": 81}, {"note": 79, "velocity": 86, "duration": 191}, {"note": 82, "velocity": 81, "duration": 164}, {"note": 0, "velocity": 0, "duration": 76}, {"note": 79, "velocity": 81, "duration": 232}, {"note": 77, "velocity": 85, "duration": 220}, {"note": 79, "velocity": 85, "duration": 751}, {"note": 0, "velocity": 0, "duration": 209}, {"note": 79, "velocity": 85, "duration": 360}, {"note": 0, "velocity": 0, "duration": 120}, {"note": 79, "velocity": 85, "duration": 169}, {"note": 0, "velocity": 0, "duration": 71}, {"note": 77, "velocity": 79, "duration": 174}, {"note": 0, "velocity": 0, "duration": 66}, {"note": 75, "velocity": 90, "duration": 196}, {"note": 72, "velocity": 85, "duration": 158}, {"note": 0, "velocity": 0, "duration": 82}, {"note": 82, "velocity": 83, "duration": 143}, {"note": 0, "velocity": 0, "duration": 97}, {"note": 79, "velocity": 83, "duration": 206}, {"note": 77, "velocity": 84, "duration": 1705}, {"note": 0, "velocity": 0, "duration": 215}, {"note": 79, "velocity": 81, "duration": 371}, {"note": 0, "velocity": 0, "duration": 109}, {"note": 75, "velocity": 86, "duration": 131}, {"note": 0, "velocity": 0, "duration": 109}, {"note": 72, "velocity": 84, "duration": 162}, {"note": 0, "velocity": 0, "duration": 78}, {"note": 70, "velocity": 81, "duration": 534}, {"note": 0, "velocity": 0, "duration": 186}, {"note": 72, "velocity": 83, "duration": 183}, {"note": 75, "velocity": 88, "duration": 399}, {"note": 0, "velocity": 0, "duration": 81}, {"note": 72, "velocity": 85, "duration": 172}, {"note": 0, "velocity": 0, "duration": 68}, {"note": 75, "velocity": 85, "duration": 183}, {"note": 77, "velocity": 80, "duration": 720}, {"note": 77, "velocity": 82, "duration": 141}, {"note": 0, "velocity": 0, "duration": 99}, {"note": 77, "velocity": 83, "duration": 664}, {"note": 72, "velocity": 85, "duration": 231}, {"note": 75, "velocity": 84, "duration": 452}, {"note": 72, "velocity": 80, "duration": 458}, {"note": 70, "velocity": 79, "duration": 1800}, {"note": 0, "velocity": 0, "duration": 120}, {"note": 82, "velocity": 81, "duration": 458}, {"note": 77, "velocity": 84, "duration": 369}, {"note": 0, "velocity": 0, "duration": 111}, {"note": 77, "velocity": 90, "duration": 480}, {"note": 79, "velocity": 81, "duration": 342}, {"note": 0, "velocity": 0, "duration": 138}, {"note": 77, "velocity": 81, "duration": 335}, {"note": 0, "velocity": 0, "duration": 145}, {"note": 77, "velocity": 85, "duration": 208}, {"note": 75, "velocity": 81, "duration": 160}, {"note": 0, "velocity": 0, "duration": 80}, {"note": 72, "velocity": 67, "duration": 470}, {"note": 70, "velocity": 79, "duration": 325}, {"note": 0, "velocity": 0, "duration": 155}, {"note": 79, "velocity": 79, "duration": 369}, {"note": 0, "velocity": 0, "duration": 111}, {"note": 79, "velocity": 81, "duration": 164}, {"note": 0, "velocity": 0, "duration": 76}, {"note": 77, "velocity": 80, "duration": 179}, {"note": 0, "velocity": 0, "duration": 61}, {"note": 75, "velocity": 95, "duration": 214}, {"note": 72, "velocity": 85, "duration": 192}, {"note": 82, "velocity": 82, "duration": 186}, {"note": 79, "velocity": 83, "duration": 213}, {"note": 77, "velocity": 85, "duration": 1780}, {"note": 0, "velocity": 0, "duration": 140}, {"note": 82, "velocity": 80, "duration": 395}, {"note": 0, "velocity": 0, "duration": 85}, {"note": 75, "velocity": 81, "duration": 165}, {"note": 0, "velocity": 0, "duration": 75}, {"note": 72, "velocity": 82, "duration": 206}, {"note": 70, "velocity": 81, "duration": 597}, {"note": 0, "velocity": 0, "duration": 123}, {"note": 72, "velocity": 79, "duration": 204}, {"note": 75, "velocity": 86, "duration": 422}, {"note": 72, "velocity": 83, "duration": 200}, {"note": 75, "velocity": 85, "duration": 165}, {"note": 0, "velocity": 0, "duration": 75}, {"note": 77, "velocity": 83, "duration": 720}, {"note": 77, "velocity": 69, "duration": 190}, {"note": 77, "velocity": 85, "duration": 655}, {"note": 0, "velocity": 0, "duration": 65}, {"note": 72, "velocity": 80, "duration": 196}, {"note": 75, "velocity": 81, "duration": 467}, {"note": 72, "velocity": 82, "duration": 156}, {"note": 0, "velocity": 0, "duration": 84}, {"note": 70, "velocity": 80, "duration": 174}, {"note": 0, "velocity": 0, "duration": 66}, {"note": 70, "velocity": 80, "duration": 1767}, {"note": 0, "velocity": 0, "duration": 15513}, {"note": 79, "velocity": 86, "duration": 395}, {"note": 0, "velocity": 0, "duration": 85}, {"note": 79, "velocity": 86, "duration": 263}, {"note": 77, "velocity": 85, "duration": 217}, {"note": 75, "velocity": 86, "duration": 577}, {"note": 0, "velocity": 0, "duration": 143}, {"note": 77, "velocity": 85, "duration": 159}, {"note": 0, "velocity": 0, "duration": 81}, {"note": 79, "velocity": 86, "duration": 191}, {"note": 82, "velocity": 81, "duration": 164}, {"note": 0, "velocity": 0, "duration": 76}, {"note": 79, "velocity": 81, "duration": 232}, {"note": 77, "velocity": 85, "duration": 220}, {"note": 79, "velocity": 85, "duration": 751}, {"note": 0, "velocity": 0, "duration": 209}, {"note": 79, "velocity": 85, "duration": 360}, {"note": 0, "velocity": 0, "duration": 120}, {"note": 79, "velocity": 85, "duration": 169}, {"note": 0, "velocity": 0, "duration": 71}, {"note": 77, "velocity": 79, "duration": 174}, {"note": 0, "velocity": 0, "duration": 66}, {"note": 75, "velocity": 90, "duration": 196}, {"note": 72, "velocity": 85, "duration": 158}, {"note": 0, "velocity": 0, "duration": 82}, {"note": 82, "velocity": 83, "duration": 143}, {"note": 0, "velocity": 0, "duration": 97}, {"note": 79, "velocity": 83, "duration": 206}, {"note": 77, "velocity": 84, "duration": 1705}, {"note": 0, "velocity": 0, "duration": 215}, {"note": 79, "velocity": 81, "duration": 371}, {"note": 0, "velocity": 0, "duration": 109}, {"note": 75, "velocity": 86, "duration": 131}, {"note": 0, "velocity": 0, "duration": 109}, {"note": 72, "velocity": 84, "duration": 162}, {"note": 0, "velocity": 0, "duration": 78}, {"note": 70, "velocity": 81, "duration": 534}, {"note": 0, "velocity": 0, "duration": 186}, {"note": 72, "velocity": 83, "duration": 183}, {"note": 75, "velocity": 88, "duration": 399}, {"note": 0, "velocity": 0, "duration": 81}, {"note": 72, "velocity": 85, "duration": 172}, {"note": 0, "velocity": 0, "duration": 68}, {"note": 75, "velocity": 85, "duration": 183}, {"note": 77, "velocity": 80, "duration": 720}, {"note": 77, "velocity": 82, "duration": 141}, {"note": 0, "velocity": 0, "duration": 99}, {"note": 77, "velocity": 83, "duration": 664}, {"note": 72, "velocity": 85, "duration": 231}, {"note": 75, "velocity": 84, "duration": 452}, {"note": 72, "velocity": 80, "duration": 458}, {"note": 70, "velocity": 79, "duration": 1800}, {"note": 0, "velocity": 0, "duration": 120}, {"note": 82, "velocity": 81, "duration": 458}, {"note": 77, "velocity": 84, "duration": 369}, {"note": 0, "velocity": 0, "duration": 111}, {"note": 77, "velocity": 90, "duration": 480}, {"note": 79, "velocity": 81, "duration": 342}, {"note": 0, "velocity": 0, "duration": 138}, {"note": 77, "velocity": 81, "duration": 335}, {"note": 0, "velocity": 0, "duration": 145}, {"note": 77, "velocity": 85, "duration": 208}, {"note": 75, "velocity": 81, "duration": 160}, {"note": 0, "velocity": 0, "duration": 80}, {"note": 72, "velocity": 67, "duration": 470}, {"note": 70, "velocity": 79, "duration": 325}, {"note": 0, "velocity": 0, "duration": 155}, {"note": 79, "velocity": 79, "duration": 369}, {"note": 0, "velocity": 0, "duration": 111}, {"note": 79, "velocity": 81, "duration": 164}, {"note": 0, "velocity": 0, "duration": 76}, {"note": 77, "velocity": 80, "duration": 179}, {"note": 0, "velocity": 0, "duration": 61}, {"note": 75, "velocity": 95, "duration": 214}, {"note": 72, "velocity": 85, "duration": 192}, {"note": 82, "velocity": 82, "duration": 186}, {"note": 79, "velocity": 83, "duration": 213}, {"note": 77, "velocity": 85, "duration": 1780}, {"note": 0, "velocity": 0, "duration": 140}, {"note": 82, "velocity": 80, "duration": 395}, {"note": 0, "velocity": 0, "duration": 85}, {"note": 75, "velocity": 81, "duration": 165}, {"note": 0, "velocity": 0, "duration": 75}, {"note": 72, "velocity": 82, "duration": 206}, {"note": 70, "velocity": 81, "duration": 597}, {"note": 0, "velocity": 0, "duration": 123}, {"note": 72, "velocity": 79, "duration": 204}, {"note": 75, "velocity": 86, "duration": 422}, {"note": 72, "velocity": 83, "duration": 200}, {"note": 75, "velocity": 85, "duration": 165}, {"note": 0, "velocity": 0, "duration": 75}, {"note": 77, "velocity": 83, "duration": 720}, {"note": 77, "velocity": 69, "duration": 190}, {"note": 77, "velocity": 85, "duration": 655}, {"note": 0, "velocity": 0, "duration": 139}, {"note": 72, "velocity": 86, "duration": 321}, {"note": 0, "velocity": 0, "duration": 99}, {"note": 75, "velocity": 93, "duration": 753}, {"note": 72, "velocity": 83, "duration": 372}, {"note": 70, "velocity": 85, "duration": 2160}]]