[[{"note": 68, "velocity": 84, "duration": 186}, {"note": 66, "velocity": 85, "duration": 224}, {"note": 68, "velocity": 87, "duration": 360}, {"note": 0, "velocity": 0, "duration": 120}, {"note": 71, "velocity": 84, "duration": 161}, {"note": 0, "velocity": 0, "duration": 79}, {"note": 73, "velocity": 88, "duration": 434}, {"note": 71, "velocity": 87, "duration": 796}, {"note": 0, "velocity": 0, "duration": 1364}, {"note": 66, "velocity": 81, "duration": 157}, {"note": 0, "velocity": 0, "duration": 83}, {"note": 66, "velocity": 79, "duration": 166}, {"note": 0, "velocity": 0, "duration": 74}, {"note": 66, "velocity": 85, "duration": 371}, {"note": 0, "velocity": 0, "duration": 109}, {"note": 71, "velocity": 87, "duration": 153}, {"note": 0, "velocity": 0, "duration": 87}, {"note": 73, "velocity": 85, "duration": 380}, {"note": 0, "velocity": 0, "duration": 100}, {"note": 71, "velocity": 86, "duration": 1404}, {"note": 0, "velocity": 0, "duration": 756}, {"note": 73, "velocity": 89, "duration": 148}, {"note": 0, "velocity": 0, "duration": 92}, {"note": 73, "velocity": 87, "duration": 151}, {"note": 0, "velocity": 0, "duration": 89}, {"note": 73, "velocity": 90, "duration": 298}, {"note": 0, "velocity": 0, "duration": 182}, {"note": 73, "velocity": 92, "duration": 185}, {"note": 71, "velocity": 85, "duration": 189}, {"note": 76, "velocity": 85, "duration": 432}, {"note": 73, "velocity": 90, "duration": 600}, {"note": 0, "velocity": 0, "duration": 120}, {"note": 73, "velocity": 87, "duration": 171}, {"note": 0, "velocity": 0, "duration": 69}, {"note": 71, "velocity": 84, "duration": 162}, {"note": 0, "velocity": 0, "duration": 78}, {"note": 68, "velocity": 85, "duration": 146}, {"note": 0, "velocity": 0, "duration": 94}, {"note": 73, "velocity": 92, "duration": 423}, {"note": 71, "velocity": 87, "duration": 360}, {"note": 0, "velocity": 0, "duration": 120}, {"note": 71, "velocity": 84, "duration": 452}, {"note": 68, "velocity": 83, "duration": 480}, {"note": 66, "velocity": 84, "duration": 636}, {"note": 0, "velocity": 0, "duration": 804}, {"note": 68, "velocity": 89, "duration": 152}, {"note": 0, "velocity": 0, "duration": 88}, {"note": 69, "velocity": 85, "duration": 179}, {"note": 0, "velocity": 0, "duration": 61}, {"note": 71, "velocity": 84, "duration": 234}, {"note": 0, "velocity": 0, "duration": 126}, {"note": 71, "velocity": 85, "duration": 220}, {"note": 0, "velocity": 0, "duration": 140}, {"note": 71, "velocity": 86, "duration": 186}, {"note": 71, "velocity": 85, "duration": 356}, {"note": 71, "velocity": 83, "duration": 240}, {"note": 0, "velocity": 0, "duration": 120}, {"note": 68, "velocity": 83, "duration": 188}, {"note": 75, "velocity": 85, "duration": 691}, {"note": 0, "velocity": 0, "duration": 269}, {"note": 75, "velocity": 88, "duration": 293}, {"note": 0, "velocity": 0, "duration": 67}, {"note": 76, "velocity": 88, "duration": 270}, {"note": 0, "velocity": 0, "duration": 90}, {"note": 78, "velocity": 84, "duration": 187}, {"note": 78, "velocity": 85, "duration": 268}, {"note": 0, "velocity": 0, "duration": 92}, {"note": 76, "velocity": 89, "duration": 239}, {"note": 0, "velocity": 0, "duration": 121}, {"note": 73, "velocity": 83, "duration": 219}, {"note": 76, "velocity": 83, "duration": 283}, {"note": 0, "velocity": 0, "duration": 77}, {"note": 76, "velocity": 85, "duration": 232}, {"note": 0, "velocity": 0, "duration": 128}, {"note": 78, "velocity": 87, "duration": 187}, {"note": 80, "velocity": 83, "duration": 240}, {"note": 78, "velocity": 83, "duration": 240}, {"note": 76, "velocity": 84, "duration": 774}, {"note": 0, "velocity": 0, "duration": 186}, {"note": 71, "velocity": 84, "duration": 156}, {"note": 0, "velocity": 0, "duration": 84}, {"note": 73, "velocity": 92, "duration": 176}, {"note": 0, "velocity": 0, "duration": 64}, {"note": 76, "velocity": 86, "duration": 327}, {"note": 73, "velocity": 94, "duration": 283}, {"note": 0, "velocity": 0, "duration": 77}, {"note": 71, "velocity": 85, "duration": 231}, {"note": 73, "velocity": 92, "duration": 650}, {"note": 0, "velocity": 0, "duration": 310}, {"note": 76, "velocity": 86, "duration": 283}, {"note": 0, "velocity": 0, "duration": 77}, {"note": 73, "velocity": 94, "duration": 273}, {"note": 0, "velocity": 0, "duration": 87}, {"note": 71, "velocity": 85, "duration": 205}, {"note": 76, "velocity": 94, "duration": 330}, {"note": 0, "velocity": 0, "duration": 164}, {"note": 78, "velocity": 85, "duration": 124}, {"note": 0, "velocity": 0, "duration": 102}, {"note": 80, "velocity": 85, "duration": 412}, {"note": 0, "velocity": 0, "duration": 68}, {"note": 78, "velocity": 89, "duration": 2160}, {"note": 0, "velocity": 0, "duration": 240}, {"note": 71, "velocity": 87, "duration": 191}, {"note": 76, "velocity": 94, "duration": 429}, {"note": 78, "velocity": 86, "duration": 170}, {"note": 0, "velocity": 0, "duration": 70}, {"note": 80, "velocity": 83, "duration": 147}, {"note": 0, "velocity": 0, "duration": 93}, {"note": 80, "velocity": 90, "duration": 458}, {"note": 80, "velocity": 84, "duration": 196}, {"note": 80, "velocity": 73, "duration": 471}, {"note": 0, "velocity": 0, "duration": 249}, {"note": 80, "velocity": 85, "duration": 173}, {"note": 0, "velocity": 0, "duration": 67}, {"note": 83, "velocity": 85, "duration": 169}, {"note": 0, "velocity": 0, "duration": 71}, {"note": 85, "velocity": 89, "duration": 392}, {"note": 0, "velocity": 0, "duration": 88}, {"note": 83, "velocity": 90, "duration": 146}, {"note": 0, "velocity": 0, "duration": 94}, {"note": 83, "velocity": 97, "duration": 515}, {"note": 0, "velocity": 0, "duration": 205}, {"note": 80, "velocity": 80, "duration": 223}, {"note": 83, "velocity": 94, "duration": 99}, {"note": 0, "velocity": 0, "duration": 141}, {"note": 78, "velocity": 86, "duration": 386}, {"note": 0, "velocity": 0, "duration": 94}, {"note": 76, "velocity": 85, "duration": 165}, {"note": 0, "velocity": 0, "duration": 315}, {"note": 76, "velocity": 86, "duration": 350}, {"note": 0, "velocity": 0, "duration": 130}, {"note": 73, "velocity": 90, "duration": 146}, {"note": 0, "velocity": 0, "duration": 94}, {"note": 71, "velocity": 86, "duration": 175}, {"note": 0, "velocity": 0, "duration": 65}, {"note": 78, "velocity": 79, "duration": 400}, {"note": 0, "velocity": 0, "duration": 80}, {"note": 80, "velocity": 85, "duration": 938}, {"note": 0, "velocity": 0, "duration": 262}, {"note": 83, "velocity": 86, "duration": 157}, {"note": 0, "velocity": 0, "duration": 83}, {"note": 83, "velocity": 87, "duration": 348}, {"note": 0, "velocity": 0, "duration": 132}, {"note": 81, "velocity": 85, "duration": 156}, {"note": 0, "velocity": 0, "duration": 84}, {"note": 81, "velocity": 84, "duration": 675}, {"note": 0, "velocity": 0, "duration": 285}, {"note": 80, "velocity": 70, "duration": 134}, {"note": 0, "velocity": 0, "duration": 106}, {"note": 80, "velocity": 85, "duration": 403}, {"note": 0, "velocity": 0, "duration": 77}, {"note": 78, "velocity": 84, "duration": 146}, {"note": 0, "velocity": 0, "duration": 94}, {"note": 76, "velocity": 79, "duration": 546}, {"note": 0, "velocity": 0, "duration": 174}, {"note": 73, "velocity": 90, "duration": 161}, {"note": 0, "velocity": 0, "duration": 79}, {"note": 71, "velocity": 88, "duration": 180}, {"note": 80, "velocity": 87, "duration": 329}, {"note": 0, "velocity": 0, "duration": 151}, {"note": 78, "velocity": 85, "duration": 357}, {"note": 0, "velocity": 0, "duration": 123}, {"note": 78, "velocity": 83, "duration": 346}, {"note": 0, "velocity": 0, "duration": 134}, {"note": 76, "velocity": 82, "duration": 171}, {"note": 0, "velocity": 0, "duration": 69}, {"note": 78, "velocity": 84, "duration": 960}, {"note": 71, "velocity": 87, "duration": 217}, {"note": 76, "velocity": 87, "duration": 391}, {"note": 0, "velocity": 0, "duration": 89}, {"note": 78, "velocity": 84, "duration": 161}, {"note": 0, "velocity": 0, "duration": 79}, {"note": 80, "velocity": 86, "duration": 150}, {"note": 0, "velocity": 0, "duration": 90}, {"note": 80, "velocity": 83, "duration": 326}, {"note": 0, "velocity": 0, "duration": 154}, {"note": 80, "velocity": 83, "duration": 150}, {"note": 0, "velocity": 0, "duration": 90}, {"note": 80, "velocity": 85, "duration": 601}, {"note": 0, "velocity": 0, "duration": 119}, {"note": 80, "velocity": 89, "duration": 137}, {"note": 0, "velocity": 0, "duration": 103}, {"note": 83, "velocity": 90, "duration": 142}, {"note": 0, "velocity": 0, "duration": 98}, {"note": 85, "velocity": 85, "duration": 372}, {"note": 0, "velocity": 0, "duration": 108}, {"note": 83, "velocity": 94, "duration": 132}, {"note": 0, "velocity": 0, "duration": 108}, {"note": 83, "velocity": 89, "duration": 425}, {"note": 0, "velocity": 0, "duration": 295}, {"note": 80, "velocity": 85, "duration": 195}, {"note": 83, "velocity": 89, "duration": 161}, {"note": 0, "velocity": 0, "duration": 79}, {"note": 78, "velocity": 90, "duration": 392}, {"note": 0, "velocity": 0, "duration": 88}, {"note": 76, "velocity": 87, "duration": 390}, {"note": 0, "velocity": 0, "duration": 90}, {"note": 76, "velocity": 92, "duration": 406}, {"note": 0, "velocity": 0, "duration": 74}, {"note": 73, "velocity": 89, "duration": 118}, {"note": 0, "velocity": 0, "duration": 122}, {"note": 71, "velocity": 84, "duration": 181}, {"note": 78, "velocity": 85, "duration": 369}, {"note": 0, "velocity": 0, "duration": 111}, {"note": 80, "velocity": 87, "duration": 747}, {"note": 0, "velocity": 0, "duration": 453}, {"note": 83, "velocity": 94, "duration": 111}, {"note": 0, "velocity": 0, "duration": 129}, {"note": 83, "velocity": 92, "duration": 277}, {"note": 0, "velocity": 0, "duration": 203}, {"note": 81, "velocity": 83, "duration": 127}, {"note": 0, "velocity": 0, "duration": 113}, {"note": 81, "velocity": 85, "duration": 639}, {"note": 0, "velocity": 0, "duration": 321}, {"note": 80, "velocity": 80, "duration": 157}, {"note": 0, "velocity": 0, "duration": 83}, {"note": 80, "velocity": 84, "duration": 364}, {"note": 0, "velocity": 0, "duration": 116}, {"note": 78, "velocity": 84, "duration": 194}, {"note": 76, "velocity": 84, "duration": 446}, {"note": 0, "velocity": 0, "duration": 274}, {"note": 73, "velocity": 89, "duration": 175}, {"note": 0, "velocity": 0, "duration": 65}, {"note": 71, "velocity": 89, "duration": 191}, {"note": 80, "velocity": 86, "duration": 330}, {"note": 0, "velocity": 0, "duration": 150}, {"note": 78, "velocity": 87, "duration": 625}, {"note": 0, "velocity": 0, "duration": 335}, {"note": 73, "velocity": 92, "duration": 130}, {"note": 0, "velocity": 0, "duration": 110}, {"note": 71, "velocity": 87, "duration": 148}, {"note": 0, "velocity": 0, "duration": 92}, {"note": 80, "velocity": 90, "duration": 372}, {"note": 0, "velocity": 0, "duration": 108}, {"note": 78, "velocity": 84, "duration": 344}, {"note": 0, "velocity": 0, "duration": 136}, {"note": 80, "velocity": 84, "duration": 425}, {"note": 83, "velocity": 85, "duration": 391}, {"note": 0, "velocity": 0, "duration": 89}, {"note": 73, "velocity": 79, "duration": 447}, {"note": 76, "velocity": 85, "duration": 2451}, {"note": 0, "velocity": 0, "duration": 37869}, {"note": 68, "velocity": 84, "duration": 186}, {"note": 66, "velocity": 85, "duration": 224}, {"note": 68, "velocity": 87, "duration": 360}, {"note": 0, "velocity": 0, "duration": 120}, {"note": 71, "velocity": 84, "duration": 161}, {"note": 0, "velocity": 0, "duration": 79}, {"note": 73, "velocity": 88, "duration": 434}, {"note": 71, "velocity": 87, "duration": 796}, {"note": 0, "velocity": 0, "duration": 1364}, {"note": 66, "velocity": 81, "duration": 157}, {"note": 0, "velocity": 0, "duration": 83}, {"note": 66, "velocity": 79, "duration": 166}, {"note": 0, "velocity": 0, "duration": 74}, {"note": 66, "velocity": 85, "duration": 371}, {"note": 0, "velocity": 0, "duration": 109}, {"note": 71, "velocity": 87, "duration": 153}, {"note": 0, "velocity": 0, "duration": 87}, {"note": 73, "velocity": 85, "duration": 380}, {"note": 0, "velocity": 0, "duration": 100}, {"note": 71, "velocity": 86, "duration": 1404}, {"note": 0, "velocity": 0, "duration": 756}, {"note": 73, "velocity": 89, "duration": 148}, {"note": 0, "velocity": 0, "duration": 92}, {"note": 73, "velocity": 87, "duration": 151}, {"note": 0, "velocity": 0, "duration": 89}, {"note": 73, "velocity": 90, "duration": 298}, {"note": 0, "velocity": 0, "duration": 182}, {"note": 73, "velocity": 92, "duration": 185}, {"note": 71, "velocity": 85, "duration": 189}, {"note": 76, "velocity": 85, "duration": 432}, {"note": 73, "velocity": 90, "duration": 600}, {"note": 0, "velocity": 0, "duration": 120}, {"note": 73, "velocity": 87, "duration": 171}, {"note": 0, "velocity": 0, "duration": 69}, {"note": 71, "velocity": 84, "duration": 162}, {"note": 0, "velocity": 0, "duration": 78}, {"note": 68, "velocity": 85, "duration": 146}, {"note": 0, "velocity": 0, "duration": 94}, {"note": 73, "velocity": 92, "duration": 423}, {"note": 71, "velocity": 87, "duration": 360}, {"note": 0, "velocity": 0, "duration": 120}, {"note": 71, "velocity": 84, "duration": 452}, {"note": 68, "velocity": 83, "duration": 480}, {"note": 66, "velocity": 84, "duration": 636}, {"note": 0, "velocity": 0, "duration": 804}, {"note": 68, "velocity": 89, "duration": 152}, {"note": 0, "velocity": 0, "duration": 88}, {"note": 69, "velocity": 85, "duration": 179}, {"note": 0, "velocity": 0, "duration": 61}, {"note": 71, "velocity": 84, "duration": 234}, {"note": 0, "velocity": 0, "duration": 126}, {"note": 71, "velocity": 85, "duration": 220}, {"note": 0, "velocity": 0, "duration": 140}, {"note": 71, "velocity": 86, "duration": 186}, {"note": 71, "velocity": 85, "duration": 356}, {"note": 71, "velocity": 83, "duration": 240}, {"note": 0, "velocity": 0, "duration": 120}, {"note": 68, "velocity": 83, "duration": 188}, {"note": 75, "velocity": 85, "duration": 691}, {"note": 0, "velocity": 0, "duration": 269}, {"note": 75, "velocity": 88, "duration": 293}, {"note": 0, "velocity": 0, "duration": 67}, {"note": 76, "velocity": 88, "duration": 270}, {"note": 0, "velocity": 0, "duration": 90}, {"note": 78, "velocity": 84, "duration": 187}, {"note": 78, "velocity": 85, "duration": 268}, {"note": 0, "velocity": 0, "duration": 92}, {"note": 76, "velocity": 89, "duration": 239}, {"note": 0, "velocity": 0, "duration": 121}, {"note": 73, "velocity": 83, "duration": 219}, {"note": 76, "velocity": 83, "duration": 283}, {"note": 0, "velocity": 0, "duration": 77}, {"note": 76, "velocity": 85, "duration": 232}, {"note": 0, "velocity": 0, "duration": 128}, {"note": 78, "velocity": 87, "duration": 187}, {"note": 80, "velocity": 83, "duration": 240}, {"note": 78, "velocity": 83, "duration": 240}, {"note": 76, "velocity": 84, "duration": 774}, {"note": 0, "velocity": 0, "duration": 186}, {"note": 71, "velocity": 84, "duration": 156}, {"note": 0, "velocity": 0, "duration": 84}, {"note": 73, "velocity": 92, "duration": 176}, {"note": 0, "velocity": 0, "duration": 64}, {"note": 76, "velocity": 86, "duration": 327}, {"note": 73, "velocity": 94, "duration": 283}, {"note": 0, "velocity": 0, "duration": 77}, {"note": 71, "velocity": 85, "duration": 231}, {"note": 73, "velocity": 92, "duration": 650}, {"note": 0, "velocity": 0, "duration": 310}, {"note": 76, "velocity": 86, "duration": 283}, {"note": 0, "velocity": 0, "duration": 77}, {"note": 73, "velocity": 94, "duration": 273}, {"note": 0, "velocity": 0, "duration": 87}, {"note": 71, "velocity": 85, "duration": 205}, {"note": 76, "velocity": 94, "duration": 330}, {"note": 0, "velocity": 0, "duration": 164}, {"note": 78, "velocity": 85, "duration": 124}, {"note": 0, "velocity": 0, "duration": 102}, {"note": 80, "velocity": 85, "duration": 412}, {"note": 0, "velocity": 0, "duration": 68}, {"note": 78, "velocity": 89, "duration": 2160}, {"note": 0, "velocity": 0, "duration": 240}, {"note": 71, "velocity": 87, "duration": 191}, {"note": 76, "velocity": 94, "duration": 429}, {"note": 78, "velocity": 86, "duration": 170}, {"note": 0, "velocity": 0, "duration": 70}, {"note": 80, "velocity": 83, "duration": 147}, {"note": 0, "velocity": 0, "duration": 93}, {"note": 80, "velocity": 90, "duration": 458}, {"note": 80, "velocity": 84, "duration": 196}, {"note": 80, "velocity": 73, "duration": 471}, {"note": 0, "velocity": 0, "duration": 249}, {"note": 80, "velocity": 85, "duration": 173}, {"note": 0, "velocity": 0, "duration": 67}, {"note": 83, "velocity": 85, "duration": 169}, {"note": 0, "velocity": 0, "duration": 71}, {"note": 85, "velocity": 89, "duration": 392}, {"note": 0, "velocity": 0, "duration": 88}, {"note": 83, "velocity": 90, "duration": 146}, {"note": 0, "velocity": 0, "duration": 94}, {"note": 83, "velocity": 97, "duration": 515}, {"note": 0, "velocity": 0, "duration": 205}, {"note": 80, "velocity": 80, "duration": 223}, {"note": 83, "velocity": 94, "duration": 99}, {"note": 0, "velocity": 0, "duration": 141}, {"note": 78, "velocity": 86, "duration": 386}, {"note": 0, "velocity": 0, "duration": 94}, {"note": 76, "velocity": 85, "duration": 165}, {"note": 0, "velocity": 0, "duration": 315}, {"note": 76, "velocity": 86, "duration": 350}, {"note": 0, "velocity": 0, "duration": 130}, {"note": 73, "velocity": 90, "duration": 146}, {"note": 0, "velocity": 0, "duration": 94}, {"note": 71, "velocity": 86, "duration": 175}, {"note": 0, "velocity": 0, "duration": 65}, {"note": 78, "velocity": 79, "duration": 400}, {"note": 0, "velocity": 0, "duration": 80}, {"note": 80, "velocity": 85, "duration": 938}, {"note": 0, "velocity": 0, "duration": 262}, {"note": 83, "velocity": 86, "duration": 157}, {"note": 0, "velocity": 0, "duration": 83}, {"note": 83, "velocity": 87, "duration": 348}, {"note": 0, "velocity": 0, "duration": 132}, {"note": 81, "velocity": 85, "duration": 156}, {"note": 0, "velocity": 0, "duration": 84}, {"note": 81, "velocity": 84, "duration": 675}, {"note": 0, "velocity": 0, "duration": 285}, {"note": 80, "velocity": 70, "duration": 134}, {"note": 0, "velocity": 0, "duration": 106}, {"note": 80, "velocity": 85, "duration": 403}, {"note": 0, "velocity": 0, "duration": 77}, {"note": 78, "velocity": 84, "duration": 146}, {"note": 0, "velocity": 0, "duration": 94}, {"note": 76, "velocity": 79, "duration": 546}, {"note": 0, "velocity": 0, "duration": 174}, {"note": 73, "velocity": 90, "duration": 161}, {"note": 0, "velocity": 0, "duration": 79}, {"note": 71, "velocity": 88, "duration": 180}, {"note": 80, "velocity": 87, "duration": 329}, {"note": 0, "velocity": 0, "duration": 151}, {"note": 78, "velocity": 85, "duration": 357}, {"note": 0, "velocity": 0, "duration": 123}, {"note": 78, "velocity": 83, "duration": 346}, {"note": 0, "velocity": 0, "duration": 134}, {"note": 76, "velocity": 82, "duration": 171}, {"note": 0, "velocity": 0, "duration": 69}, {"note": 78, "velocity": 84, "duration": 960}, {"note": 71, "velocity": 87, "duration": 217}, {"note": 76, "velocity": 87, "duration": 391}, {"note": 0, "velocity": 0, "duration": 89}, {"note": 78, "velocity": 84, "duration": 161}, {"note": 0, "velocity": 0, "duration": 79}, {"note": 80, "velocity": 86, "duration": 150}, {"note": 0, "velocity": 0, "duration": 90}, {"note": 80, "velocity": 83, "duration": 326}, {"note": 0, "velocity": 0, "duration": 154}, {"note": 80, "velocity": 83, "duration": 150}, {"note": 0, "velocity": 0, "duration": 90}, {"note": 80, "velocity": 85, "duration": 601}, {"note": 0, "velocity": 0, "duration": 119}, {"note": 80, "velocity": 89, "duration": 137}, {"note": 0, "velocity": 0, "duration": 103}, {"note": 83, "velocity": 90, "duration": 142}, {"note": 0, "velocity": 0, "duration": 98}, {"note": 85, "velocity": 85, "duration": 372}, {"note": 0, "velocity": 0, "duration": 108}, {"note": 83, "velocity": 94, "duration": 132}, {"note": 0, "velocity": 0, "duration": 108}, {"note": 83, "velocity": 89, "duration": 425}, {"note": 0, "velocity": 0, "duration": 295}, {"note": 80, "velocity": 85, "duration": 195}, {"note": 83, "velocity": 89, "duration": 161}, {"note": 0, "velocity": 0, "duration": 79}, {"note": 78, "velocity": 90, "duration": 392}, {"note": 0, "velocity": 0, "duration": 88}, {"note": 76, "velocity": 87, "duration": 390}, {"note": 0, "velocity": 0, "duration": 90}, {"note": 76, "velocity": 92, "duration": 406}, {"note": 0, "velocity": 0, "duration": 74}, {"note": 73, "velocity": 89, "duration": 118}, {"note": 0, "velocity": 0, "duration": 122}, {"note": 71, "velocity": 84, "duration": 181}, {"note": 78, "velocity": 85, "duration": 369}, {"note": 0, "velocity": 0, "duration": 111}, {"note": 80, "velocity": 87, "duration": 747}, {"note": 0, "velocity": 0, "duration": 453}, {"note": 83, "velocity": 94, "duration": 111}, {"note": 0, "velocity": 0, "duration": 129}, {"note": 83, "velocity": 92, "duration": 277}, {"note": 0, "velocity": 0, "duration": 203}, {"note": 81, "velocity": 83, "duration": 127}, {"note": 0, "velocity": 0, "duration": 113}, {"note": 81, "velocity": 85, "duration": 639}, {"note": 0, "velocity": 0, "duration": 321}, {"note": 80, "velocity": 80, "duration": 157}, {"note": 0, "velocity": 0, "duration": 83}, {"note": 80, "velocity": 84, "duration": 364}, {"note": 0, "velocity": 0, "duration": 116}, {"note": 78, "velocity": 84, "duration": 194}, {"note": 76, "velocity": 84, "duration": 446}, {"note": 0, "velocity": 0, "duration": 274}, {"note": 73, "velocity": 89, "duration": 175}, {"note": 0, "velocity": 0, "duration": 65}, {"note": 71, "velocity": 89, "duration": 191}, {"note": 80, "velocity": 86, "duration": 330}, {"note": 0, "velocity": 0, "duration": 150}, {"note": 78, "velocity": 87, "duration": 625}, {"note": 0, "velocity": 0, "duration": 335}, {"note": 73, "velocity": 92, "duration": 130}, {"note": 0, "velocity": 0, "duration": 110}, {"note": 71, "velocity": 87, "duration": 148}, {"note": 0, "velocity": 0, "duration": 92}, {"note": 80, "velocity": 90, "duration": 372}, {"note": 0, "velocity": 0, "duration": 108}, {"note": 78, "velocity": 84, "duration": 344}, {"note": 0, "velocity": 0, "duration": 136}, {"note": 80, "velocity": 84, "duration": 425}, {"note": 83, "velocity": 85, "duration": 391}, {"note": 0, "velocity": 0, "duration": 89}, {"note": 73, "velocity": 79, "duration": 447}, {"note": 76, "velocity": 85, "duration": 1920}, {"note": 0, "velocity": 0, "duration": 240}, {"note": 71, "velocity": 87, "duration": 191}, {"note": 76, "velocity": 94, "duration": 429}, {"note": 78, "velocity": 86, "duration": 170}, {"note": 0, "velocity": 0, "duration": 70}, {"note": 80, "velocity": 83, "duration": 147}, {"note": 0, "velocity": 0, "duration": 93}, {"note": 80, "velocity": 90, "duration": 458}, {"note": 80, "velocity": 84, "duration": 196}, {"note": 80, "velocity": 73, "duration": 471}, {"note": 0, "velocity": 0, "duration": 249}, {"note": 80, "velocity": 85, "duration": 173}, {"note": 0, "velocity": 0, "duration": 67}, {"note": 83, "velocity": 85, "duration": 169}, {"note": 0, "velocity": 0, "duration": 71}, {"note": 85, "velocity": 89, "duration": 392}, {"note": 0, "velocity": 0, "duration": 88}, {"note": 83, "velocity": 90, "duration": 146}, {"note": 0, "velocity": 0, "duration": 94}, {"note": 83, "velocity": 97, "duration": 515}, {"note": 0, "velocity": 0, "duration": 205}, {"note": 80, "velocity": 80, "duration": 223}, {"note": 83, "velocity": 94, "duration": 99}, {"note": 0, "velocity": 0, "duration": 141}, {"note": 78, "velocity": 86, "duration": 386}, {"note": 0, "velocity": 0, "duration": 94}, {"note": 76, "velocity": 85, "duration": 165}, {"note": 0, "velocity": 0, "duration": 315}, {"note": 76, "velocity": 86, "duration": 350}, {"note": 0, "velocity": 0, "duration": 130}, {"note": 73, "velocity": 90, "duration": 146}, {"note": 0, "velocity": 0, "duration": 94}, {"note": 71, "velocity": 86, "duration": 175}, {"note": 0, "velocity": 0, "duration": 65}, {"note": 78, "velocity": 79, "duration": 400}, {"note": 0, "velocity": 0, "duration": 80}, {"note": 80, "velocity": 85, "duration": 938}, {"note": 0, "velocity": 0, "duration": 262}, {"note": 83, "velocity": 86, "duration": 157}, {"note": 0, "velocity": 0, "duration": 83}, {"note": 83, "velocity": 87, "duration": 348}, {"note": 0, "velocity": 0, "duration": 132}, {"note": 81, "velocity": 85, "duration": 156}, {"note": 0, "velocity": 0, "duration": 84}, {"note": 81, "velocity": 84, "duration": 675}, {"note": 0, "velocity": 0, "duration": 285}, {"note": 80, "velocity": 70, "duration": 134}, {"note": 0, "velocity": 0, "duration": 106}, {"note": 80, "velocity": 85, "duration": 403}, {"note": 0, "velocity": 0, "duration": 77}, {"note": 78, "velocity": 84, "duration": 146}, {"note": 0, "velocity": 0, "duration": 94}, {"note": 76, "velocity": 79, "duration": 546}, {"note": 0, "velocity": 0, "duration": 174}, {"note": 73, "velocity": 90, "duration": 161}, {"note": 0, "velocity": 0, "duration": 79}, {"note": 71, "velocity": 88, "duration": 180}, {"note": 80, "velocity": 87, "duration": 329}, {"note": 0, "velocity": 0, "duration": 151}, {"note": 78, "velocity": 85, "duration": 357}, {"note": 0, "velocity": 0, "duration": 123}, {"note": 78, "velocity": 83, "duration": 346}, {"note": 0, "velocity": 0, "duration": 134}, {"note": 76, "velocity": 82, "duration": 171}, {"note": 0, "velocity": 0, "duration": 69}, {"note": 78, "velocity": 84, "duration": 960}, {"note": 71, "velocity": 87, "duration": 217}, {"note": 76, "velocity": 87, "duration": 391}, {"note": 0, "velocity": 0, "duration": 89}, {"note": 78, "velocity": 84, "duration": 161}, {"note": 0, "velocity": 0, "duration": 79}, {"note": 80, "velocity": 86, "duration": 150}, {"note": 0, "velocity": 0, "duration": 90}, {"note": 80, "velocity": 83, "duration": 326}, {"note": 0, "velocity": 0, "duration": 154}, {"note": 80, "velocity": 83, "duration": 150}, {"note": 0, "velocity": 0, "duration": 90}, {"note": 80, "velocity": 85, "duration": 601}, {"note": 0, "velocity": 0, "duration": 119}, {"note": 80, "velocity": 89, "duration": 137}, {"note": 0, "velocity": 0, "duration": 103}, {"note": 83, "velocity": 90, "duration": 142}, {"note": 0, "velocity": 0, "duration": 98}, {"note": 85, "velocity": 85, "duration": 372}, {"note": 0, "velocity": 0, "duration": 108}, {"note": 83, "velocity": 94, "duration": 132}, {"note": 0, "velocity": 0, "duration": 108}, {"note": 83, "velocity": 89, "duration": 425}, {"note": 0, "velocity": 0, "duration": 295}, {"note": 80, "velocity": 85, "duration": 195}, {"note": 83, "velocity": 89, "duration": 161}, {"note": 0, "velocity": 0, "duration": 79}, {"note": 78, "velocity": 90, "duration": 392}, {"note": 0, "velocity": 0, "duration": 88}, {"note": 76, "velocity": 87, "duration": 390}, {"note": 0, "velocity": 0, "duration": 90}, {"note": 76, "velocity": 92, "duration": 406}, {"note": 0, "velocity": 0, "duration": 74}, {"note": 73, "velocity": 89, "duration": 118}, {"note": 0, "velocity": 0, "duration": 122}, {"note": 71, "velocity": 84, "duration": 181}, {"note": 78, "velocity": 85, "duration": 369}, {"note": 0, "velocity": 0, "duration": 111}, {"note": 80, "velocity": 87, "duration": 747}, {"note": 0, "velocity": 0, "duration": 453}, {"note": 83, "velocity": 94, "duration": 111}, {"note": 0, "velocity": 0, "duration": 129}, {"note": 83, "velocity": 92, "duration": 277}, {"note": 0, "velocity": 0, "duration": 203}, {"note": 81, "velocity": 83, "duration": 127}, {"note": 0, "velocity": 0, "duration": 113}, {"note": 81, "velocity": 85, "duration": 639}, {"note": 0, "velocity": 0, "duration": 321}, {"note": 80, "velocity": 80, "duration": 157}, {"note": 0, "velocity": 0, "duration": 83}, {"note": 80, "velocity": 84, "duration": 364}, {"note": 0, "velocity": 0, "duration": 116}, {"note": 78, "velocity": 84, "duration": 194}, {"note": 76, "velocity": 84, "duration": 446}, {"note": 0, "velocity": 0, "duration": 274}, {"note": 73, "velocity": 89, "duration": 175}, {"note": 0, "velocity": 0, "duration": 65}, {"note": 71, "velocity": 89, "duration": 191}, {"note": 80, "velocity": 86, "duration": 330}, {"note": 0, "velocity": 0, "duration": 150}, {"note": 78, "velocity": 87, "duration": 625}, {"note": 0, "velocity": 0, "duration": 335}, {"note": 73, "velocity": 92, "duration": 130}, {"note": 0, "velocity": 0, "duration": 110}, {"note": 71, "velocity": 87, "duration": 148}, {"note": 0, "velocity": 0, "duration": 92}, {"note": 80, "velocity": 90, "duration": 372}, {"note": 0, "velocity": 0, "duration": 108}, {"note": 78, "velocity": 84, "duration": 344}, {"note": 0, "velocity": 0, "duration": 136}, {"note": 80, "velocity": 84, "duration": 425}, {"note": 83, "velocity": 85, "duration": 391}, {"note": 0, "velocity": 0, "duration": 89}, {"note": 73, "velocity": 79, "duration": 447}, {"note": 76, "velocity": 85, "duration": 2451}, {"note": 0, "velocity": 0, "duration": 2111}, {"note": 73, "velocity": 94, "duration": 348}, {"note": 71, "velocity": 94, "duration": 346}, {"note": 80, "velocity": 93, "duration": 684}, {"note": 78, "velocity": 93, "duration": 971}, {"note": 0, "velocity": 0, "duration": 229}, {"note": 73, "velocity": 93, "duration": 250}, {"note": 71, "velocity": 93, "duration": 320}, {"note": 80, "velocity": 93, "duration": 675}, {"note": 78, "velocity": 93, "duration": 818}, {"note": 0, "velocity": 0, "duration": 69}, {"note": 80, "velocity": 93, "duration": 439}, {"note": 83, "velocity": 93, "duration": 1803}, {"note": 0, "velocity": 0, "duration": 217}, {"note": 73, "velocity": 93, "duration": 805}, {"note": 76, "velocity": 93, "duration": 1806}]]