[[{"note": 61, "velocity": 87, "duration": 481}, {"note": 63, "velocity": 82, "duration": 277}, {"note": 66, "velocity": 87, "duration": 239}, {"note": 68, "velocity": 81, "duration": 384}, {"note": 0, "velocity": 0, "duration": 96}, {"note": 68, "velocity": 81, "duration": 259}, {"note": 70, "velocity": 82, "duration": 260}, {"note": 68, "velocity": 81, "duration": 971}, {"note": 66, "velocity": 83, "duration": 240}, {"note": 63, "velocity": 67, "duration": 188}, {"note": 63, "velocity": 82, "duration": 411}, {"note": 0, "velocity": 0, "duration": 69}, {"note": 63, "velocity": 82, "duration": 187}, {"note": 63, "velocity": 81, "duration": 207}, {"note": 66, "velocity": 81, "duration": 200}, {"note": 68, "velocity": 81, "duration": 177}, {"note": 0, "velocity": 0, "duration": 63}, {"note": 70, "velocity": 80, "duration": 427}, {"note": 70, "velocity": 84, "duration": 238}, {"note": 68, "velocity": 67, "duration": 221}, {"note": 68, "velocity": 76, "duration": 1789}, {"note": 0, "velocity": 0, "duration": 131}, {"note": 61, "velocity": 87, "duration": 481}, {"note": 63, "velocity": 82, "duration": 277}, {"note": 66, "velocity": 87, "duration": 239}, {"note": 68, "velocity": 81, "duration": 384}, {"note": 0, "velocity": 0, "duration": 96}, {"note": 68, "velocity": 81, "duration": 259}, {"note": 73, "velocity": 82, "duration": 260}, {"note": 70, "velocity": 81, "duration": 971}, {"note": 68, "velocity": 83, "duration": 206}, {"note": 66, "velocity": 77, "duration": 188}, {"note": 66, "velocity": 82, "duration": 411}, {"note": 0, "velocity": 0, "duration": 69}, {"note": 63, "velocity": 82, "duration": 480}, {"note": 63, "velocity": 81, "duration": 200}, {"note": 66, "velocity": 81, "duration": 177}, {"note": 0, "velocity": 0, "duration": 63}, {"note": 66, "velocity": 80, "duration": 427}, {"note": 66, "velocity": 84, "duration": 501}, {"note": 63, "velocity": 76, "duration": 1789}, {"note": 0, "velocity": 0, "duration": 131}, {"note": 61, "velocity": 87, "duration": 481}, {"note": 63, "velocity": 82, "duration": 277}, {"note": 66, "velocity": 87, "duration": 239}, {"note": 68, "velocity": 81, "duration": 384}, {"note": 0, "velocity": 0, "duration": 96}, {"note": 68, "velocity": 81, "duration": 259}, {"note": 70, "velocity": 82, "duration": 260}, {"note": 68, "velocity": 81, "duration": 971}, {"note": 66, "velocity": 83, "duration": 266}, {"note": 63, "velocity": 67, "duration": 165}, {"note": 63, "velocity": 82, "duration": 411}, {"note": 0, "velocity": 0, "duration": 69}, {"note": 63, "velocity": 82, "duration": 187}, {"note": 63, "velocity": 81, "duration": 207}, {"note": 66, "velocity": 81, "duration": 200}, {"note": 68, "velocity": 81, "duration": 177}, {"note": 0, "velocity": 0, "duration": 63}, {"note": 70, "velocity": 80, "duration": 427}, {"note": 70, "velocity": 84, "duration": 239}, {"note": 68, "velocity": 70, "duration": 206}, {"note": 68, "velocity": 76, "duration": 1789}, {"note": 0, "velocity": 0, "duration": 131}, {"note": 61, "velocity": 87, "duration": 481}, {"note": 63, "velocity": 82, "duration": 277}, {"note": 66, "velocity": 87, "duration": 239}, {"note": 68, "velocity": 81, "duration": 384}, {"note": 0, "velocity": 0, "duration": 96}, {"note": 68, "velocity": 81, "duration": 259}, {"note": 73, "velocity": 82, "duration": 260}, {"note": 70, "velocity": 81, "duration": 971}, {"note": 68, "velocity": 83, "duration": 203}, {"note": 66, "velocity": 74, "duration": 161}, {"note": 0, "velocity": 0, "duration": 71}, {"note": 66, "velocity": 82, "duration": 411}, {"note": 0, "velocity": 0, "duration": 69}, {"note": 63, "velocity": 82, "duration": 480}, {"note": 63, "velocity": 81, "duration": 200}, {"note": 66, "velocity": 81, "duration": 177}, {"note": 0, "velocity": 0, "duration": 63}, {"note": 66, "velocity": 80, "duration": 427}, {"note": 66, "velocity": 84, "duration": 235}, {"note": 63, "velocity": 65, "duration": 199}, {"note": 63, "velocity": 76, "duration": 1789}, {"note": 0, "velocity": 0, "duration": 21251}, {"note": 61, "velocity": 87, "duration": 481}, {"note": 63, "velocity": 82, "duration": 277}, {"note": 66, "velocity": 87, "duration": 239}, {"note": 68, "velocity": 81, "duration": 384}, {"note": 0, "velocity": 0, "duration": 96}, {"note": 68, "velocity": 81, "duration": 259}, {"note": 70, "velocity": 82, "duration": 260}, {"note": 68, "velocity": 81, "duration": 971}, {"note": 66, "velocity": 83, "duration": 292}, {"note": 63, "velocity": 70, "duration": 184}, {"note": 63, "velocity": 82, "duration": 411}, {"note": 0, "velocity": 0, "duration": 69}, {"note": 63, "velocity": 82, "duration": 187}, {"note": 63, "velocity": 81, "duration": 207}, {"note": 66, "velocity": 81, "duration": 200}, {"note": 68, "velocity": 81, "duration": 177}, {"note": 0, "velocity": 0, "duration": 63}, {"note": 70, "velocity": 80, "duration": 427}, {"note": 70, "velocity": 84, "duration": 254}, {"note": 68, "velocity": 70, "duration": 178}, {"note": 68, "velocity": 76, "duration": 1789}, {"note": 0, "velocity": 0, "duration": 131}, {"note": 61, "velocity": 87, "duration": 481}, {"note": 63, "velocity": 82, "duration": 277}, {"note": 66, "velocity": 87, "duration": 239}, {"note": 68, "velocity": 81, "duration": 384}, {"note": 0, "velocity": 0, "duration": 96}, {"note": 68, "velocity": 81, "duration": 259}, {"note": 73, "velocity": 82, "duration": 260}, {"note": 70, "velocity": 81, "duration": 971}, {"note": 68, "velocity": 83, "duration": 239}, {"note": 66, "velocity": 74, "duration": 216}, {"note": 66, "velocity": 82, "duration": 411}, {"note": 0, "velocity": 0, "duration": 69}, {"note": 63, "velocity": 82, "duration": 480}, {"note": 63, "velocity": 81, "duration": 200}, {"note": 66, "velocity": 81, "duration": 177}, {"note": 0, "velocity": 0, "duration": 63}, {"note": 66, "velocity": 80, "duration": 427}, {"note": 66, "velocity": 84, "duration": 234}, {"note": 63, "velocity": 70, "duration": 189}, {"note": 63, "velocity": 76, "duration": 1789}, {"note": 0, "velocity": 0, "duration": 131}, {"note": 61, "velocity": 87, "duration": 481}, {"note": 63, "velocity": 82, "duration": 277}, {"note": 66, "velocity": 87, "duration": 239}, {"note": 68, "velocity": 81, "duration": 384}, {"note": 0, "velocity": 0, "duration": 96}, {"note": 68, "velocity": 81, "duration": 259}, {"note": 70, "velocity": 82, "duration": 260}, {"note": 68, "velocity": 81, "duration": 971}, {"note": 66, "velocity": 83, "duration": 268}, {"note": 63, "velocity": 79, "duration": 189}, {"note": 63, "velocity": 82, "duration": 411}, {"note": 0, "velocity": 0, "duration": 69}, {"note": 63, "velocity": 82, "duration": 187}, {"note": 63, "velocity": 81, "duration": 207}, {"note": 66, "velocity": 81, "duration": 200}, {"note": 68, "velocity": 81, "duration": 177}, {"note": 0, "velocity": 0, "duration": 63}, {"note": 70, "velocity": 80, "duration": 427}, {"note": 70, "velocity": 84, "duration": 289}, {"note": 68, "velocity": 71, "duration": 173}, {"note": 68, "velocity": 76, "duration": 1789}, {"note": 0, "velocity": 0, "duration": 131}, {"note": 61, "velocity": 87, "duration": 481}, {"note": 63, "velocity": 82, "duration": 277}, {"note": 66, "velocity": 87, "duration": 239}, {"note": 68, "velocity": 81, "duration": 384}, {"note": 0, "velocity": 0, "duration": 96}, {"note": 68, "velocity": 81, "duration": 259}, {"note": 73, "velocity": 82, "duration": 260}, {"note": 70, "velocity": 81, "duration": 971}, {"note": 68, "velocity": 83, "duration": 274}, {"note": 66, "velocity": 76, "duration": 211}, {"note": 66, "velocity": 82, "duration": 411}, {"note": 0, "velocity": 0, "duration": 69}, {"note": 63, "velocity": 82, "duration": 480}, {"note": 63, "velocity": 81, "duration": 200}, {"note": 66, "velocity": 81, "duration": 177}, {"note": 0, "velocity": 0, "duration": 63}, {"note": 66, "velocity": 80, "duration": 427}, {"note": 66, "velocity": 84, "duration": 274}, {"note": 63, "velocity": 78, "duration": 200}, {"note": 63, "velocity": 76, "duration": 1789}, {"note": 0, "velocity": 0, "duration": 5891}, {"note": 61, "velocity": 87, "duration": 481}, {"note": 63, "velocity": 82, "duration": 277}, {"note": 66, "velocity": 87, "duration": 239}, {"note": 68, "velocity": 81, "duration": 384}, {"note": 0, "velocity": 0, "duration": 96}, {"note": 68, "velocity": 81, "duration": 259}, {"note": 70, "velocity": 82, "duration": 260}, {"note": 68, "velocity": 81, "duration": 971}, {"note": 66, "velocity": 83, "duration": 240}, {"note": 63, "velocity": 73, "duration": 171}, {"note": 63, "velocity": 82, "duration": 411}, {"note": 0, "velocity": 0, "duration": 69}, {"note": 63, "velocity": 82, "duration": 187}, {"note": 63, "velocity": 81, "duration": 207}, {"note": 66, "velocity": 81, "duration": 200}, {"note": 68, "velocity": 81, "duration": 177}, {"note": 0, "velocity": 0, "duration": 63}, {"note": 70, "velocity": 80, "duration": 427}, {"note": 70, "velocity": 84, "duration": 261}, {"note": 68, "velocity": 79, "duration": 179}, {"note": 68, "velocity": 76, "duration": 1789}, {"note": 0, "velocity": 0, "duration": 131}, {"note": 61, "velocity": 87, "duration": 481}, {"note": 63, "velocity": 82, "duration": 277}, {"note": 66, "velocity": 87, "duration": 239}, {"note": 68, "velocity": 81, "duration": 384}, {"note": 0, "velocity": 0, "duration": 96}, {"note": 68, "velocity": 81, "duration": 259}, {"note": 73, "velocity": 82, "duration": 260}, {"note": 70, "velocity": 81, "duration": 971}, {"note": 68, "velocity": 83, "duration": 258}, {"note": 66, "velocity": 71, "duration": 155}, {"note": 0, "velocity": 0, "duration": 82}, {"note": 66, "velocity": 82, "duration": 411}, {"note": 0, "velocity": 0, "duration": 69}, {"note": 63, "velocity": 82, "duration": 480}, {"note": 63, "velocity": 81, "duration": 200}, {"note": 66, "velocity": 81, "duration": 177}, {"note": 0, "velocity": 0, "duration": 63}, {"note": 66, "velocity": 80, "duration": 427}, {"note": 66, "velocity": 84, "duration": 232}, {"note": 63, "velocity": 97, "duration": 179}, {"note": 0, "velocity": 0, "duration": 61}, {"note": 63, "velocity": 76, "duration": 1789}, {"note": 0, "velocity": 0, "duration": 131}, {"note": 61, "velocity": 87, "duration": 481}, {"note": 63, "velocity": 82, "duration": 277}, {"note": 66, "velocity": 87, "duration": 239}, {"note": 68, "velocity": 81, "duration": 384}, {"note": 0, "velocity": 0, "duration": 96}, {"note": 68, "velocity": 81, "duration": 259}, {"note": 73, "velocity": 82, "duration": 260}, {"note": 70, "velocity": 81, "duration": 971}, {"note": 68, "velocity": 83, "duration": 222}, {"note": 66, "velocity": 65, "duration": 210}, {"note": 66, "velocity": 82, "duration": 411}, {"note": 0, "velocity": 0, "duration": 69}, {"note": 63, "velocity": 82, "duration": 480}, {"note": 63, "velocity": 81, "duration": 200}, {"note": 66, "velocity": 81, "duration": 177}, {"note": 0, "velocity": 0, "duration": 123}, {"note": 66, "velocity": 84, "duration": 411}, {"note": 0, "velocity": 0, "duration": 134}, {"note": 66, "velocity": 85, "duration": 219}, {"note": 63, "velocity": 81, "duration": 132}, {"note": 0, "velocity": 0, "duration": 64}, {"note": 63, "velocity": 81, "duration": 1849}]]