[[{"note": 74, "velocity": 87, "duration": 126}, {"note": 0, "velocity": 0, "duration": 114}, {"note": 75, "velocity": 82, "duration": 123}, {"note": 0, "velocity": 0, "duration": 117}, {"note": 77, "velocity": 81, "duration": 148}, {"note": 0, "velocity": 0, "duration": 92}, {"note": 79, "velocity": 83, "duration": 151}, {"note": 0, "velocity": 0, "duration": 89}, {"note": 77, "velocity": 85, "duration": 637}, {"note": 0, "velocity": 0, "duration": 323}, {"note": 74, "velocity": 86, "duration": 117}, {"note": 0, "velocity": 0, "duration": 123}, {"note": 75, "velocity": 80, "duration": 122}, {"note": 0, "velocity": 0, "duration": 118}, {"note": 77, "velocity": 81, "duration": 130}, {"note": 0, "velocity": 0, "duration": 110}, {"note": 79, "velocity": 81, "duration": 141}, {"note": 0, "velocity": 0, "duration": 99}, {"note": 77, "velocity": 82, "duration": 478}, {"note": 0, "velocity": 0, "duration": 482}, {"note": 74, "velocity": 86, "duration": 121}, {"note": 0, "velocity": 0, "duration": 119}, {"note": 75, "velocity": 83, "duration": 105}, {"note": 0, "velocity": 0, "duration": 135}, {"note": 77, "velocity": 82, "duration": 118}, {"note": 0, "velocity": 0, "duration": 122}, {"note": 82, "velocity": 84, "duration": 122}, {"note": 0, "velocity": 0, "duration": 118}, {"note": 81, "velocity": 81, "duration": 366}, {"note": 0, "velocity": 0, "duration": 114}, {"note": 79, "velocity": 80, "duration": 322}, {"note": 0, "velocity": 0, "duration": 158}, {"note": 77, "velocity": 82, "duration": 1190}, {"note": 0, "velocity": 0, "duration": 730}, {"note": 74, "velocity": 87, "duration": 126}, {"note": 0, "velocity": 0, "duration": 114}, {"note": 75, "velocity": 82, "duration": 123}, {"note": 0, "velocity": 0, "duration": 117}, {"note": 77, "velocity": 81, "duration": 148}, {"note": 0, "velocity": 0, "duration": 92}, {"note": 79, "velocity": 83, "duration": 151}, {"note": 0, "velocity": 0, "duration": 89}, {"note": 77, "velocity": 85, "duration": 637}, {"note": 0, "velocity": 0, "duration": 323}, {"note": 74, "velocity": 86, "duration": 117}, {"note": 0, "velocity": 0, "duration": 123}, {"note": 75, "velocity": 80, "duration": 122}, {"note": 0, "velocity": 0, "duration": 118}, {"note": 77, "velocity": 81, "duration": 130}, {"note": 0, "velocity": 0, "duration": 110}, {"note": 79, "velocity": 81, "duration": 141}, {"note": 0, "velocity": 0, "duration": 99}, {"note": 77, "velocity": 82, "duration": 478}, {"note": 0, "velocity": 0, "duration": 482}, {"note": 72, "velocity": 84, "duration": 153}, {"note": 0, "velocity": 0, "duration": 87}, {"note": 74, "velocity": 86, "duration": 142}, {"note": 0, "velocity": 0, "duration": 98}, {"note": 75, "velocity": 82, "duration": 168}, {"note": 0, "velocity": 0, "duration": 72}, {"note": 79, "velocity": 81, "duration": 146}, {"note": 0, "velocity": 0, "duration": 94}, {"note": 77, "velocity": 81, "duration": 138}, {"note": 0, "velocity": 0, "duration": 102}, {"note": 75, "velocity": 81, "duration": 167}, {"note": 0, "velocity": 0, "duration": 73}, {"note": 74, "velocity": 84, "duration": 122}, {"note": 0, "velocity": 0, "duration": 118}, {"note": 72, "velocity": 83, "duration": 144}, {"note": 0, "velocity": 0, "duration": 96}, {"note": 70, "velocity": 84, "duration": 1097}, {"note": 0, "velocity": 0, "duration": 823}, {"note": 82, "velocity": 83, "duration": 410}, {"note": 0, "velocity": 0, "duration": 70}, {"note": 81, "velocity": 79, "duration": 233}, {"note": 82, "velocity": 86, "duration": 237}, {"note": 79, "velocity": 81, "duration": 838}, {"note": 0, "velocity": 0, "duration": 122}, {"note": 81, "velocity": 77, "duration": 142}, {"note": 0, "velocity": 0, "duration": 98}, {"note": 81, "velocity": 78, "duration": 138}, {"note": 0, "velocity": 0, "duration": 102}, {"note": 79, "velocity": 81, "duration": 156}, {"note": 0, "velocity": 0, "duration": 84}, {"note": 81, "velocity": 81, "duration": 169}, {"note": 0, "velocity": 0, "duration": 71}, {"note": 77, "velocity": 78, "duration": 759}, {"note": 0, "velocity": 0, "duration": 201}, {"note": 79, "velocity": 81, "duration": 344}, {"note": 0, "velocity": 0, "duration": 136}, {"note": 77, "velocity": 81, "duration": 174}, {"note": 0, "velocity": 0, "duration": 66}, {"note": 79, "velocity": 83, "duration": 209}, {"note": 74, "velocity": 91, "duration": 713}, {"note": 0, "velocity": 0, "duration": 247}, {"note": 75, "velocity": 81, "duration": 180}, {"note": 75, "velocity": 82, "duration": 142}, {"note": 0, "velocity": 0, "duration": 98}, {"note": 74, "velocity": 84, "duration": 159}, {"note": 0, "velocity": 0, "duration": 81}, {"note": 77, "velocity": 66, "duration": 236}, {"note": 72, "velocity": 84, "duration": 694}, {"note": 0, "velocity": 0, "duration": 266}, {"note": 70, "velocity": 83, "duration": 366}, {"note": 0, "velocity": 0, "duration": 114}, {"note": 75, "velocity": 91, "duration": 167}, {"note": 0, "velocity": 0, "duration": 73}, {"note": 77, "velocity": 78, "duration": 138}, {"note": 0, "velocity": 0, "duration": 102}, {"note": 82, "velocity": 81, "duration": 349}, {"note": 0, "velocity": 0, "duration": 131}, {"note": 82, "velocity": 84, "duration": 351}, {"note": 0, "velocity": 0, "duration": 129}, {"note": 81, "velocity": 73, "duration": 175}, {"note": 0, "velocity": 0, "duration": 65}, {"note": 81, "velocity": 77, "duration": 179}, {"note": 0, "velocity": 0, "duration": 61}, {"note": 79, "velocity": 80, "duration": 189}, {"note": 77, "velocity": 82, "duration": 187}, {"note": 79, "velocity": 82, "duration": 798}, {"note": 0, "velocity": 0, "duration": 162}, {"note": 77, "velocity": 82, "duration": 385}, {"note": 0, "velocity": 0, "duration": 95}, {"note": 82, "velocity": 82, "duration": 284}, {"note": 0, "velocity": 0, "duration": 196}, {"note": 74, "velocity": 86, "duration": 179}, {"note": 0, "velocity": 0, "duration": 61}, {"note": 79, "velocity": 81, "duration": 169}, {"note": 0, "velocity": 0, "duration": 71}, {"note": 77, "velocity": 81, "duration": 283}, {"note": 0, "velocity": 0, "duration": 197}, {"note": 72, "velocity": 75, "duration": 180}, {"note": 75, "velocity": 81, "duration": 150}, {"note": 0, "velocity": 0, "duration": 90}, {"note": 74, "velocity": 81, "duration": 174}, {"note": 0, "velocity": 0, "duration": 66}, {"note": 72, "velocity": 80, "duration": 178}, {"note": 0, "velocity": 0, "duration": 62}, {"note": 70, "velocity": 78, "duration": 854}, {"note": 0, "velocity": 0, "duration": 11626}, {"note": 74, "velocity": 87, "duration": 126}, {"note": 0, "velocity": 0, "duration": 114}, {"note": 75, "velocity": 82, "duration": 123}, {"note": 0, "velocity": 0, "duration": 117}, {"note": 77, "velocity": 81, "duration": 148}, {"note": 0, "velocity": 0, "duration": 92}, {"note": 79, "velocity": 83, "duration": 151}, {"note": 0, "velocity": 0, "duration": 89}, {"note": 77, "velocity": 85, "duration": 637}, {"note": 0, "velocity": 0, "duration": 323}, {"note": 74, "velocity": 86, "duration": 117}, {"note": 0, "velocity": 0, "duration": 123}, {"note": 75, "velocity": 80, "duration": 122}, {"note": 0, "velocity": 0, "duration": 118}, {"note": 77, "velocity": 81, "duration": 130}, {"note": 0, "velocity": 0, "duration": 110}, {"note": 79, "velocity": 81, "duration": 141}, {"note": 0, "velocity": 0, "duration": 99}, {"note": 77, "velocity": 82, "duration": 478}, {"note": 0, "velocity": 0, "duration": 482}, {"note": 74, "velocity": 86, "duration": 121}, {"note": 0, "velocity": 0, "duration": 119}, {"note": 75, "velocity": 83, "duration": 105}, {"note": 0, "velocity": 0, "duration": 135}, {"note": 77, "velocity": 82, "duration": 118}, {"note": 0, "velocity": 0, "duration": 122}, {"note": 82, "velocity": 84, "duration": 122}, {"note": 0, "velocity": 0, "duration": 118}, {"note": 81, "velocity": 81, "duration": 366}, {"note": 0, "velocity": 0, "duration": 114}, {"note": 79, "velocity": 80, "duration": 322}, {"note": 0, "velocity": 0, "duration": 158}, {"note": 77, "velocity": 82, "duration": 1190}, {"note": 0, "velocity": 0, "duration": 730}, {"note": 74, "velocity": 87, "duration": 126}, {"note": 0, "velocity": 0, "duration": 114}, {"note": 75, "velocity": 82, "duration": 123}, {"note": 0, "velocity": 0, "duration": 117}, {"note": 77, "velocity": 81, "duration": 148}, {"note": 0, "velocity": 0, "duration": 92}, {"note": 79, "velocity": 83, "duration": 151}, {"note": 0, "velocity": 0, "duration": 89}, {"note": 77, "velocity": 85, "duration": 637}, {"note": 0, "velocity": 0, "duration": 323}, {"note": 74, "velocity": 86, "duration": 117}, {"note": 0, "velocity": 0, "duration": 123}, {"note": 75, "velocity": 80, "duration": 122}, {"note": 0, "velocity": 0, "duration": 118}, {"note": 77, "velocity": 81, "duration": 130}, {"note": 0, "velocity": 0, "duration": 110}, {"note": 79, "velocity": 81, "duration": 141}, {"note": 0, "velocity": 0, "duration": 99}, {"note": 77, "velocity": 82, "duration": 478}, {"note": 0, "velocity": 0, "duration": 482}, {"note": 72, "velocity": 84, "duration": 153}, {"note": 0, "velocity": 0, "duration": 87}, {"note": 74, "velocity": 86, "duration": 142}, {"note": 0, "velocity": 0, "duration": 98}, {"note": 75, "velocity": 82, "duration": 168}, {"note": 0, "velocity": 0, "duration": 72}, {"note": 79, "velocity": 81, "duration": 146}, {"note": 0, "velocity": 0, "duration": 94}, {"note": 77, "velocity": 81, "duration": 138}, {"note": 0, "velocity": 0, "duration": 102}, {"note": 75, "velocity": 81, "duration": 167}, {"note": 0, "velocity": 0, "duration": 73}, {"note": 74, "velocity": 84, "duration": 122}, {"note": 0, "velocity": 0, "duration": 118}, {"note": 72, "velocity": 83, "duration": 144}, {"note": 0, "velocity": 0, "duration": 96}, {"note": 70, "velocity": 84, "duration": 1097}, {"note": 0, "velocity": 0, "duration": 823}, {"note": 82, "velocity": 83, "duration": 410}, {"note": 0, "velocity": 0, "duration": 70}, {"note": 81, "velocity": 79, "duration": 233}, {"note": 82, "velocity": 86, "duration": 237}, {"note": 79, "velocity": 81, "duration": 838}, {"note": 0, "velocity": 0, "duration": 122}, {"note": 81, "velocity": 77, "duration": 142}, {"note": 0, "velocity": 0, "duration": 98}, {"note": 81, "velocity": 78, "duration": 138}, {"note": 0, "velocity": 0, "duration": 102}, {"note": 79, "velocity": 81, "duration": 156}, {"note": 0, "velocity": 0, "duration": 84}, {"note": 81, "velocity": 81, "duration": 169}, {"note": 0, "velocity": 0, "duration": 71}, {"note": 77, "velocity": 78, "duration": 759}, {"note": 0, "velocity": 0, "duration": 201}, {"note": 79, "velocity": 81, "duration": 344}, {"note": 0, "velocity": 0, "duration": 136}, {"note": 77, "velocity": 81, "duration": 174}, {"note": 0, "velocity": 0, "duration": 66}, {"note": 79, "velocity": 83, "duration": 209}, {"note": 74, "velocity": 91, "duration": 713}, {"note": 0, "velocity": 0, "duration": 247}, {"note": 75, "velocity": 81, "duration": 180}, {"note": 75, "velocity": 82, "duration": 142}, {"note": 0, "velocity": 0, "duration": 98}, {"note": 74, "velocity": 84, "duration": 159}, {"note": 0, "velocity": 0, "duration": 81}, {"note": 77, "velocity": 66, "duration": 236}, {"note": 72, "velocity": 84, "duration": 694}, {"note": 0, "velocity": 0, "duration": 266}, {"note": 70, "velocity": 83, "duration": 366}, {"note": 0, "velocity": 0, "duration": 114}, {"note": 75, "velocity": 91, "duration": 167}, {"note": 0, "velocity": 0, "duration": 73}, {"note": 77, "velocity": 78, "duration": 138}, {"note": 0, "velocity": 0, "duration": 102}, {"note": 82, "velocity": 81, "duration": 349}, {"note": 0, "velocity": 0, "duration": 131}, {"note": 82, "velocity": 84, "duration": 351}, {"note": 0, "velocity": 0, "duration": 129}, {"note": 81, "velocity": 73, "duration": 175}, {"note": 0, "velocity": 0, "duration": 65}, {"note": 81, "velocity": 77, "duration": 179}, {"note": 0, "velocity": 0, "duration": 61}, {"note": 79, "velocity": 80, "duration": 189}, {"note": 77, "velocity": 82, "duration": 187}, {"note": 79, "velocity": 82, "duration": 798}, {"note": 0, "velocity": 0, "duration": 162}, {"note": 77, "velocity": 82, "duration": 385}, {"note": 0, "velocity": 0, "duration": 95}, {"note": 82, "velocity": 82, "duration": 284}, {"note": 0, "velocity": 0, "duration": 196}, {"note": 74, "velocity": 86, "duration": 179}, {"note": 0, "velocity": 0, "duration": 61}, {"note": 79, "velocity": 81, "duration": 169}, {"note": 0, "velocity": 0, "duration": 71}, {"note": 77, "velocity": 81, "duration": 283}, {"note": 0, "velocity": 0, "duration": 197}, {"note": 72, "velocity": 75, "duration": 180}, {"note": 75, "velocity": 81, "duration": 150}, {"note": 0, "velocity": 0, "duration": 90}, {"note": 74, "velocity": 81, "duration": 174}, {"note": 0, "velocity": 0, "duration": 66}, {"note": 72, "velocity": 80, "duration": 178}, {"note": 0, "velocity": 0, "duration": 62}, {"note": 70, "velocity": 78, "duration": 854}]]