[[{"note": 66, "velocity": 89, "duration": 175}, {"note": 0, "velocity": 0, "duration": 65}, {"note": 69, "velocity": 87, "duration": 177}, {"note": 0, "velocity": 0, "duration": 63}, {"note": 69, "velocity": 87, "duration": 176}, {"note": 0, "velocity": 0, "duration": 64}, {"note": 66, "velocity": 86, "duration": 76}, {"note": 69, "velocity": 87, "duration": 869}, {"note": 0, "velocity": 0, "duration": 211}, {"note": 66, "velocity": 90, "duration": 176}, {"note": 0, "velocity": 0, "duration": 64}, {"note": 62, "velocity": 87, "duration": 167}, {"note": 0, "velocity": 0, "duration": 73}, {"note": 62, "velocity": 89, "duration": 200}, {"note": 59, "velocity": 87, "duration": 72}, {"note": 62, "velocity": 86, "duration": 919}, {"note": 0, "velocity": 0, "duration": 161}, {"note": 66, "velocity": 85, "duration": 189}, {"note": 69, "velocity": 87, "duration": 171}, {"note": 0, "velocity": 0, "duration": 69}, {"note": 71, "velocity": 85, "duration": 284}, {"note": 0, "velocity": 0, "duration": 76}, {"note": 69, "velocity": 86, "duration": 866}, {"note": 0, "velocity": 0, "duration": 214}, {"note": 64, "velocity": 89, "duration": 194}, {"note": 66, "velocity": 86, "duration": 173}, {"note": 0, "velocity": 0, "duration": 67}, {"note": 69, "velocity": 86, "duration": 168}, {"note": 0, "velocity": 0, "duration": 72}, {"note": 66, "velocity": 86, "duration": 92}, {"note": 64, "velocity": 76, "duration": 827}, {"note": 0, "velocity": 0, "duration": 253}, {"note": 66, "velocity": 86, "duration": 178}, {"note": 0, "velocity": 0, "duration": 62}, {"note": 62, "velocity": 86, "duration": 159}, {"note": 0, "velocity": 0, "duration": 81}, {"note": 62, "velocity": 89, "duration": 209}, {"note": 59, "velocity": 86, "duration": 79}, {"note": 66, "velocity": 85, "duration": 600}, {"note": 0, "velocity": 0, "duration": 240}, {"note": 57, "velocity": 85, "duration": 72}, {"note": 59, "velocity": 86, "duration": 67}, {"note": 66, "velocity": 87, "duration": 159}, {"note": 0, "velocity": 0, "duration": 81}, {"note": 62, "velocity": 86, "duration": 157}, {"note": 0, "velocity": 0, "duration": 83}, {"note": 62, "velocity": 86, "duration": 185}, {"note": 59, "velocity": 85, "duration": 96}, {"note": 66, "velocity": 79, "duration": 701}, {"note": 0, "velocity": 0, "duration": 379}, {"note": 66, "velocity": 85, "duration": 192}, {"note": 64, "velocity": 86, "duration": 63}, {"note": 64, "velocity": 86, "duration": 168}, {"note": 0, "velocity": 0, "duration": 72}, {"note": 62, "velocity": 85, "duration": 158}, {"note": 0, "velocity": 0, "duration": 82}, {"note": 59, "velocity": 85, "duration": 83}, {"note": 66, "velocity": 78, "duration": 195}, {"note": 64, "velocity": 85, "duration": 66}, {"note": 64, "velocity": 85, "duration": 288}, {"note": 0, "velocity": 0, "duration": 312}, {"note": 57, "velocity": 81, "duration": 149}, {"note": 0, "velocity": 0, "duration": 91}, {"note": 69, "velocity": 87, "duration": 67}, {"note": 69, "velocity": 85, "duration": 77}, {"note": 64, "velocity": 80, "duration": 169}, {"note": 0, "velocity": 0, "duration": 71}, {"note": 66, "velocity": 81, "duration": 69}, {"note": 62, "velocity": 81, "duration": 927}, {"note": 0, "velocity": 0, "duration": 153}, {"note": 66, "velocity": 89, "duration": 175}, {"note": 0, "velocity": 0, "duration": 65}, {"note": 69, "velocity": 87, "duration": 177}, {"note": 0, "velocity": 0, "duration": 63}, {"note": 69, "velocity": 87, "duration": 176}, {"note": 0, "velocity": 0, "duration": 64}, {"note": 66, "velocity": 86, "duration": 76}, {"note": 69, "velocity": 87, "duration": 869}, {"note": 0, "velocity": 0, "duration": 91}, {"note": 66, "velocity": 90, "duration": 120}, {"note": 66, "velocity": 90, "duration": 176}, {"note": 0, "velocity": 0, "duration": 64}, {"note": 62, "velocity": 87, "duration": 167}, {"note": 0, "velocity": 0, "duration": 73}, {"note": 62, "velocity": 89, "duration": 200}, {"note": 59, "velocity": 87, "duration": 72}, {"note": 62, "velocity": 86, "duration": 919}, {"note": 0, "velocity": 0, "duration": 161}, {"note": 66, "velocity": 85, "duration": 189}, {"note": 69, "velocity": 87, "duration": 171}, {"note": 0, "velocity": 0, "duration": 69}, {"note": 71, "velocity": 85, "duration": 284}, {"note": 0, "velocity": 0, "duration": 76}, {"note": 69, "velocity": 86, "duration": 866}, {"note": 0, "velocity": 0, "duration": 94}, {"note": 66, "velocity": 89, "duration": 194}, {"note": 64, "velocity": 89, "duration": 194}, {"note": 66, "velocity": 86, "duration": 173}, {"note": 0, "velocity": 0, "duration": 67}, {"note": 69, "velocity": 86, "duration": 168}, {"note": 0, "velocity": 0, "duration": 72}, {"note": 66, "velocity": 86, "duration": 92}, {"note": 64, "velocity": 76, "duration": 827}, {"note": 0, "velocity": 0, "duration": 253}, {"note": 66, "velocity": 86, "duration": 178}, {"note": 0, "velocity": 0, "duration": 62}, {"note": 62, "velocity": 86, "duration": 159}, {"note": 0, "velocity": 0, "duration": 81}, {"note": 62, "velocity": 89, "duration": 209}, {"note": 59, "velocity": 86, "duration": 79}, {"note": 66, "velocity": 85, "duration": 600}, {"note": 0, "velocity": 0, "duration": 240}, {"note": 57, "velocity": 85, "duration": 72}, {"note": 59, "velocity": 86, "duration": 67}, {"note": 66, "velocity": 87, "duration": 159}, {"note": 0, "velocity": 0, "duration": 81}, {"note": 62, "velocity": 86, "duration": 157}, {"note": 0, "velocity": 0, "duration": 83}, {"note": 62, "velocity": 86, "duration": 185}, {"note": 59, "velocity": 85, "duration": 96}, {"note": 66, "velocity": 79, "duration": 701}, {"note": 0, "velocity": 0, "duration": 379}, {"note": 66, "velocity": 85, "duration": 192}, {"note": 64, "velocity": 86, "duration": 63}, {"note": 64, "velocity": 86, "duration": 168}, {"note": 0, "velocity": 0, "duration": 72}, {"note": 62, "velocity": 85, "duration": 158}, {"note": 0, "velocity": 0, "duration": 82}, {"note": 59, "velocity": 85, "duration": 83}, {"note": 66, "velocity": 78, "duration": 195}, {"note": 64, "velocity": 85, "duration": 66}, {"note": 64, "velocity": 85, "duration": 288}, {"note": 0, "velocity": 0, "duration": 312}, {"note": 57, "velocity": 81, "duration": 149}, {"note": 0, "velocity": 0, "duration": 91}, {"note": 69, "velocity": 87, "duration": 67}, {"note": 69, "velocity": 85, "duration": 77}, {"note": 64, "velocity": 80, "duration": 169}, {"note": 0, "velocity": 0, "duration": 71}, {"note": 66, "velocity": 81, "duration": 69}, {"note": 62, "velocity": 81, "duration": 927}, {"note": 0, "velocity": 0, "duration": 2073}, {"note": 74, "velocity": 92, "duration": 164}, {"note": 0, "velocity": 0, "duration": 76}, {"note": 74, "velocity": 92, "duration": 137}, {"note": 0, "velocity": 0, "duration": 103}, {"note": 66, "velocity": 88, "duration": 159}, {"note": 0, "velocity": 0, "duration": 81}, {"note": 69, "velocity": 87, "duration": 789}, {"note": 0, "velocity": 0, "duration": 171}, {"note": 66, "velocity": 94, "duration": 73}, {"note": 64, "velocity": 87, "duration": 63}, {"note": 62, "velocity": 89, "duration": 163}, {"note": 0, "velocity": 0, "duration": 77}, {"note": 62, "velocity": 91, "duration": 194}, {"note": 71, "velocity": 89, "duration": 184}, {"note": 69, "velocity": 94, "duration": 789}, {"note": 0, "velocity": 0, "duration": 411}, {"note": 71, "velocity": 86, "duration": 179}, {"note": 0, "velocity": 0, "duration": 61}, {"note": 71, "velocity": 87, "duration": 172}, {"note": 0, "velocity": 0, "duration": 68}, {"note": 71, "velocity": 86, "duration": 203}, {"note": 62, "velocity": 87, "duration": 761}, {"note": 0, "velocity": 0, "duration": 199}, {"note": 59, "velocity": 89, "duration": 86}, {"note": 62, "velocity": 86, "duration": 85}, {"note": 69, "velocity": 88, "duration": 177}, {"note": 0, "velocity": 0, "duration": 63}, {"note": 66, "velocity": 85, "duration": 184}, {"note": 66, "velocity": 86, "duration": 144}, {"note": 0, "velocity": 0, "duration": 96}, {"note": 64, "velocity": 91, "duration": 1088}, {"note": 0, "velocity": 0, "duration": 112}, {"note": 74, "velocity": 92, "duration": 164}, {"note": 0, "velocity": 0, "duration": 76}, {"note": 74, "velocity": 92, "duration": 137}, {"note": 0, "velocity": 0, "duration": 103}, {"note": 66, "velocity": 88, "duration": 159}, {"note": 0, "velocity": 0, "duration": 81}, {"note": 69, "velocity": 87, "duration": 789}, {"note": 0, "velocity": 0, "duration": 171}, {"note": 66, "velocity": 94, "duration": 73}, {"note": 64, "velocity": 87, "duration": 63}, {"note": 62, "velocity": 89, "duration": 163}, {"note": 0, "velocity": 0, "duration": 77}, {"note": 62, "velocity": 91, "duration": 194}, {"note": 71, "velocity": 89, "duration": 184}, {"note": 69, "velocity": 94, "duration": 789}, {"note": 0, "velocity": 0, "duration": 411}, {"note": 66, "velocity": 91, "duration": 186}, {"note": 62, "velocity": 88, "duration": 58}, {"note": 0, "velocity": 0, "duration": 62}, {"note": 62, "velocity": 88, "duration": 281}, {"note": 0, "velocity": 0, "duration": 79}, {"note": 59, "velocity": 86, "duration": 66}, {"note": 59, "velocity": 86, "duration": 102}, {"note": 66, "velocity": 86, "duration": 182}, {"note": 64, "velocity": 85, "duration": 61}, {"note": 64, "velocity": 89, "duration": 401}, {"note": 0, "velocity": 0, "duration": 199}, {"note": 57, "velocity": 87, "duration": 58}, {"note": 0, "velocity": 0, "duration": 62}, {"note": 57, "velocity": 86, "duration": 77}, {"note": 69, "velocity": 89, "duration": 120}, {"note": 69, "velocity": 89, "duration": 120}, {"note": 64, "velocity": 87, "duration": 120}, {"note": 66, "velocity": 86, "duration": 240}, {"note": 62, "velocity": 86, "duration": 1038}, {"note": 0, "velocity": 0, "duration": 15402}, {"note": 66, "velocity": 89, "duration": 175}, {"note": 0, "velocity": 0, "duration": 65}, {"note": 69, "velocity": 87, "duration": 177}, {"note": 0, "velocity": 0, "duration": 63}, {"note": 69, "velocity": 87, "duration": 176}, {"note": 0, "velocity": 0, "duration": 64}, {"note": 66, "velocity": 86, "duration": 76}, {"note": 69, "velocity": 87, "duration": 869}, {"note": 0, "velocity": 0, "duration": 91}, {"note": 66, "velocity": 90, "duration": 120}, {"note": 66, "velocity": 90, "duration": 176}, {"note": 0, "velocity": 0, "duration": 64}, {"note": 62, "velocity": 87, "duration": 167}, {"note": 0, "velocity": 0, "duration": 73}, {"note": 62, "velocity": 89, "duration": 200}, {"note": 59, "velocity": 87, "duration": 72}, {"note": 62, "velocity": 86, "duration": 919}, {"note": 0, "velocity": 0, "duration": 161}, {"note": 66, "velocity": 85, "duration": 189}, {"note": 69, "velocity": 87, "duration": 171}, {"note": 0, "velocity": 0, "duration": 69}, {"note": 71, "velocity": 85, "duration": 284}, {"note": 0, "velocity": 0, "duration": 76}, {"note": 69, "velocity": 86, "duration": 866}, {"note": 0, "velocity": 0, "duration": 94}, {"note": 66, "velocity": 89, "duration": 194}, {"note": 64, "velocity": 89, "duration": 194}, {"note": 66, "velocity": 86, "duration": 173}, {"note": 0, "velocity": 0, "duration": 67}, {"note": 69, "velocity": 86, "duration": 168}, {"note": 0, "velocity": 0, "duration": 72}, {"note": 66, "velocity": 86, "duration": 92}, {"note": 64, "velocity": 76, "duration": 827}, {"note": 0, "velocity": 0, "duration": 253}, {"note": 66, "velocity": 86, "duration": 178}, {"note": 0, "velocity": 0, "duration": 62}, {"note": 62, "velocity": 86, "duration": 159}, {"note": 0, "velocity": 0, "duration": 81}, {"note": 62, "velocity": 89, "duration": 209}, {"note": 59, "velocity": 86, "duration": 79}, {"note": 66, "velocity": 85, "duration": 600}, {"note": 0, "velocity": 0, "duration": 240}, {"note": 57, "velocity": 85, "duration": 72}, {"note": 59, "velocity": 86, "duration": 67}, {"note": 66, "velocity": 87, "duration": 159}, {"note": 0, "velocity": 0, "duration": 81}, {"note": 62, "velocity": 86, "duration": 157}, {"note": 0, "velocity": 0, "duration": 83}, {"note": 62, "velocity": 86, "duration": 185}, {"note": 59, "velocity": 85, "duration": 96}, {"note": 66, "velocity": 79, "duration": 701}, {"note": 0, "velocity": 0, "duration": 379}, {"note": 66, "velocity": 85, "duration": 192}, {"note": 64, "velocity": 86, "duration": 63}, {"note": 64, "velocity": 86, "duration": 168}, {"note": 0, "velocity": 0, "duration": 72}, {"note": 62, "velocity": 85, "duration": 158}, {"note": 0, "velocity": 0, "duration": 82}, {"note": 59, "velocity": 85, "duration": 83}, {"note": 66, "velocity": 78, "duration": 195}, {"note": 64, "velocity": 85, "duration": 66}, {"note": 64, "velocity": 85, "duration": 288}, {"note": 0, "velocity": 0, "duration": 312}, {"note": 57, "velocity": 81, "duration": 149}, {"note": 0, "velocity": 0, "duration": 91}, {"note": 69, "velocity": 87, "duration": 67}, {"note": 69, "velocity": 85, "duration": 77}, {"note": 64, "velocity": 80, "duration": 169}, {"note": 0, "velocity": 0, "duration": 71}, {"note": 66, "velocity": 81, "duration": 69}, {"note": 62, "velocity": 81, "duration": 927}, {"note": 0, "velocity": 0, "duration": 153}, {"note": 74, "velocity": 92, "duration": 164}, {"note": 0, "velocity": 0, "duration": 76}, {"note": 74, "velocity": 92, "duration": 137}, {"note": 0, "velocity": 0, "duration": 103}, {"note": 66, "velocity": 88, "duration": 159}, {"note": 0, "velocity": 0, "duration": 81}, {"note": 69, "velocity": 87, "duration": 789}, {"note": 0, "velocity": 0, "duration": 171}, {"note": 66, "velocity": 94, "duration": 73}, {"note": 64, "velocity": 87, "duration": 63}, {"note": 62, "velocity": 89, "duration": 163}, {"note": 0, "velocity": 0, "duration": 77}, {"note": 62, "velocity": 91, "duration": 194}, {"note": 71, "velocity": 89, "duration": 184}, {"note": 69, "velocity": 94, "duration": 789}, {"note": 0, "velocity": 0, "duration": 411}, {"note": 71, "velocity": 86, "duration": 179}, {"note": 0, "velocity": 0, "duration": 61}, {"note": 71, "velocity": 87, "duration": 172}, {"note": 0, "velocity": 0, "duration": 68}, {"note": 71, "velocity": 86, "duration": 203}, {"note": 62, "velocity": 87, "duration": 761}, {"note": 0, "velocity": 0, "duration": 199}, {"note": 59, "velocity": 89, "duration": 86}, {"note": 62, "velocity": 86, "duration": 85}, {"note": 69, "velocity": 88, "duration": 177}, {"note": 0, "velocity": 0, "duration": 63}, {"note": 66, "velocity": 85, "duration": 184}, {"note": 66, "velocity": 86, "duration": 144}, {"note": 0, "velocity": 0, "duration": 96}, {"note": 64, "velocity": 91, "duration": 1088}, {"note": 0, "velocity": 0, "duration": 112}, {"note": 74, "velocity": 92, "duration": 164}, {"note": 0, "velocity": 0, "duration": 76}, {"note": 74, "velocity": 92, "duration": 137}, {"note": 0, "velocity": 0, "duration": 103}, {"note": 66, "velocity": 88, "duration": 159}, {"note": 0, "velocity": 0, "duration": 81}, {"note": 69, "velocity": 87, "duration": 789}, {"note": 0, "velocity": 0, "duration": 171}, {"note": 66, "velocity": 94, "duration": 73}, {"note": 64, "velocity": 87, "duration": 63}, {"note": 62, "velocity": 89, "duration": 163}, {"note": 0, "velocity": 0, "duration": 77}, {"note": 62, "velocity": 91, "duration": 194}, {"note": 71, "velocity": 89, "duration": 184}, {"note": 69, "velocity": 94, "duration": 789}, {"note": 0, "velocity": 0, "duration": 411}, {"note": 66, "velocity": 91, "duration": 186}, {"note": 62, "velocity": 88, "duration": 58}, {"note": 0, "velocity": 0, "duration": 62}, {"note": 62, "velocity": 88, "duration": 281}, {"note": 0, "velocity": 0, "duration": 79}, {"note": 59, "velocity": 86, "duration": 66}, {"note": 59, "velocity": 86, "duration": 102}, {"note": 66, "velocity": 86, "duration": 182}, {"note": 64, "velocity": 85, "duration": 61}, {"note": 64, "velocity": 89, "duration": 401}, {"note": 0, "velocity": 0, "duration": 199}, {"note": 57, "velocity": 87, "duration": 58}, {"note": 0, "velocity": 0, "duration": 62}, {"note": 57, "velocity": 86, "duration": 77}, {"note": 69, "velocity": 89, "duration": 120}, {"note": 69, "velocity": 89, "duration": 120}, {"note": 64, "velocity": 87, "duration": 120}, {"note": 66, "velocity": 86, "duration": 240}, {"note": 62, "velocity": 86, "duration": 1038}, {"note": 74, "velocity": 92, "duration": 164}, {"note": 0, "velocity": 0, "duration": 76}, {"note": 74, "velocity": 92, "duration": 137}, {"note": 0, "velocity": 0, "duration": 103}, {"note": 66, "velocity": 88, "duration": 159}, {"note": 0, "velocity": 0, "duration": 81}, {"note": 69, "velocity": 87, "duration": 789}, {"note": 0, "velocity": 0, "duration": 171}, {"note": 66, "velocity": 94, "duration": 73}, {"note": 64, "velocity": 87, "duration": 63}, {"note": 62, "velocity": 89, "duration": 163}, {"note": 0, "velocity": 0, "duration": 77}, {"note": 62, "velocity": 91, "duration": 194}, {"note": 71, "velocity": 89, "duration": 184}, {"note": 69, "velocity": 94, "duration": 789}, {"note": 0, "velocity": 0, "duration": 411}, {"note": 71, "velocity": 86, "duration": 179}, {"note": 0, "velocity": 0, "duration": 61}, {"note": 71, "velocity": 87, "duration": 172}, {"note": 0, "velocity": 0, "duration": 68}, {"note": 71, "velocity": 86, "duration": 203}, {"note": 62, "velocity": 87, "duration": 761}, {"note": 0, "velocity": 0, "duration": 199}, {"note": 59, "velocity": 89, "duration": 86}, {"note": 62, "velocity": 86, "duration": 85}, {"note": 69, "velocity": 88, "duration": 177}, {"note": 0, "velocity": 0, "duration": 63}, {"note": 66, "velocity": 85, "duration": 184}, {"note": 66, "velocity": 86, "duration": 144}, {"note": 0, "velocity": 0, "duration": 96}, {"note": 64, "velocity": 91, "duration": 1088}, {"note": 0, "velocity": 0, "duration": 112}, {"note": 74, "velocity": 92, "duration": 164}, {"note": 0, "velocity": 0, "duration": 76}, {"note": 74, "velocity": 92, "duration": 137}, {"note": 0, "velocity": 0, "duration": 103}, {"note": 66, "velocity": 88, "duration": 159}, {"note": 0, "velocity": 0, "duration": 81}, {"note": 69, "velocity": 87, "duration": 789}, {"note": 0, "velocity": 0, "duration": 171}, {"note": 66, "velocity": 94, "duration": 73}, {"note": 64, "velocity": 87, "duration": 63}, {"note": 62, "velocity": 89, "duration": 163}, {"note": 0, "velocity": 0, "duration": 77}, {"note": 62, "velocity": 91, "duration": 194}, {"note": 71, "velocity": 89, "duration": 184}, {"note": 69, "velocity": 94, "duration": 789}, {"note": 0, "velocity": 0, "duration": 411}, {"note": 66, "velocity": 91, "duration": 186}, {"note": 62, "velocity": 88, "duration": 58}, {"note": 0, "velocity": 0, "duration": 62}, {"note": 62, "velocity": 88, "duration": 281}, {"note": 0, "velocity": 0, "duration": 79}, {"note": 59, "velocity": 86, "duration": 66}, {"note": 59, "velocity": 86, "duration": 102}, {"note": 66, "velocity": 86, "duration": 182}, {"note": 64, "velocity": 85, "duration": 61}, {"note": 64, "velocity": 89, "duration": 401}, {"note": 0, "velocity": 0, "duration": 199}, {"note": 57, "velocity": 87, "duration": 58}, {"note": 0, "velocity": 0, "duration": 62}, {"note": 57, "velocity": 86, "duration": 77}, {"note": 69, "velocity": 89, "duration": 120}, {"note": 69, "velocity": 89, "duration": 120}, {"note": 64, "velocity": 87, "duration": 120}, {"note": 66, "velocity": 86, "duration": 360}, {"note": 62, "velocity": 86, "duration": 1800}]]