[[{"note": 76, "velocity": 86, "duration": 180}, {"note": 76, "velocity": 89, "duration": 165}, {"note": 0, "velocity": 0, "duration": 75}, {"note": 76, "velocity": 89, "duration": 162}, {"note": 0, "velocity": 0, "duration": 78}, {"note": 76, "velocity": 87, "duration": 179}, {"note": 0, "velocity": 0, "duration": 61}, {"note": 76, "velocity": 85, "duration": 148}, {"note": 0, "velocity": 0, "duration": 92}, {"note": 76, "velocity": 84, "duration": 157}, {"note": 0, "velocity": 0, "duration": 83}, {"note": 76, "velocity": 88, "duration": 164}, {"note": 0, "velocity": 0, "duration": 76}, {"note": 75, "velocity": 91, "duration": 188}, {"note": 71, "velocity": 90, "duration": 191}, {"note": 71, "velocity": 84, "duration": 198}, {"note": 76, "velocity": 93, "duration": 437}, {"note": 0, "velocity": 0, "duration": 283}, {"note": 71, "velocity": 91, "duration": 234}, {"note": 76, "velocity": 91, "duration": 494}, {"note": 0, "velocity": 0, "duration": 226}, {"note": 76, "velocity": 89, "duration": 177}, {"note": 0, "velocity": 0, "duration": 63}, {"note": 76, "velocity": 89, "duration": 171}, {"note": 0, "velocity": 0, "duration": 69}, {"note": 76, "velocity": 91, "duration": 181}, {"note": 75, "velocity": 93, "duration": 189}, {"note": 73, "velocity": 91, "duration": 200}, {"note": 71, "velocity": 88, "duration": 1200}, {"note": 0, "velocity": 0, "duration": 480}, {"note": 75, "velocity": 91, "duration": 205}, {"note": 76, "velocity": 89, "duration": 396}, {"note": 0, "velocity": 0, "duration": 84}, {"note": 76, "velocity": 83, "duration": 157}, {"note": 0, "velocity": 0, "duration": 83}, {"note": 76, "velocity": 90, "duration": 157}, {"note": 0, "velocity": 0, "duration": 83}, {"note": 76, "velocity": 88, "duration": 157}, {"note": 0, "velocity": 0, "duration": 83}, {"note": 76, "velocity": 91, "duration": 187}, {"note": 78, "velocity": 90, "duration": 226}, {"note": 76, "velocity": 90, "duration": 229}, {"note": 80, "velocity": 90, "duration": 480}, {"note": 78, "velocity": 89, "duration": 145}, {"note": 0, "velocity": 0, "duration": 95}, {"note": 80, "velocity": 91, "duration": 296}, {"note": 0, "velocity": 0, "duration": 64}, {"note": 73, "velocity": 90, "duration": 663}, {"note": 0, "velocity": 0, "duration": 177}, {"note": 73, "velocity": 96, "duration": 80}, {"note": 75, "velocity": 93, "duration": 70}, {"note": 76, "velocity": 87, "duration": 171}, {"note": 0, "velocity": 0, "duration": 69}, {"note": 76, "velocity": 86, "duration": 160}, {"note": 0, "velocity": 0, "duration": 80}, {"note": 76, "velocity": 85, "duration": 159}, {"note": 0, "velocity": 0, "duration": 81}, {"note": 76, "velocity": 85, "duration": 364}, {"note": 0, "velocity": 0, "duration": 116}, {"note": 76, "velocity": 91, "duration": 178}, {"note": 0, "velocity": 0, "duration": 62}, {"note": 78, "velocity": 91, "duration": 224}, {"note": 76, "velocity": 89, "duration": 172}, {"note": 0, "velocity": 0, "duration": 68}, {"note": 78, "velocity": 90, "duration": 1700}, {"note": 0, "velocity": 0, "duration": 460}, {"note": 76, "velocity": 86, "duration": 180}, {"note": 76, "velocity": 89, "duration": 165}, {"note": 0, "velocity": 0, "duration": 75}, {"note": 76, "velocity": 89, "duration": 162}, {"note": 0, "velocity": 0, "duration": 78}, {"note": 76, "velocity": 87, "duration": 179}, {"note": 0, "velocity": 0, "duration": 61}, {"note": 76, "velocity": 85, "duration": 148}, {"note": 0, "velocity": 0, "duration": 92}, {"note": 76, "velocity": 84, "duration": 157}, {"note": 0, "velocity": 0, "duration": 83}, {"note": 76, "velocity": 88, "duration": 164}, {"note": 0, "velocity": 0, "duration": 76}, {"note": 75, "velocity": 91, "duration": 188}, {"note": 71, "velocity": 90, "duration": 191}, {"note": 71, "velocity": 84, "duration": 198}, {"note": 76, "velocity": 93, "duration": 437}, {"note": 0, "velocity": 0, "duration": 283}, {"note": 71, "velocity": 91, "duration": 234}, {"note": 76, "velocity": 91, "duration": 494}, {"note": 0, "velocity": 0, "duration": 226}, {"note": 76, "velocity": 89, "duration": 177}, {"note": 0, "velocity": 0, "duration": 63}, {"note": 76, "velocity": 89, "duration": 171}, {"note": 0, "velocity": 0, "duration": 69}, {"note": 76, "velocity": 91, "duration": 181}, {"note": 75, "velocity": 93, "duration": 189}, {"note": 73, "velocity": 91, "duration": 200}, {"note": 71, "velocity": 88, "duration": 1200}, {"note": 0, "velocity": 0, "duration": 480}, {"note": 75, "velocity": 91, "duration": 480}, {"note": 0, "velocity": 0, "duration": 240}, {"note": 76, "velocity": 83, "duration": 157}, {"note": 0, "velocity": 0, "duration": 83}, {"note": 76, "velocity": 90, "duration": 157}, {"note": 0, "velocity": 0, "duration": 83}, {"note": 76, "velocity": 88, "duration": 157}, {"note": 0, "velocity": 0, "duration": 83}, {"note": 76, "velocity": 91, "duration": 187}, {"note": 78, "velocity": 90, "duration": 226}, {"note": 76, "velocity": 90, "duration": 229}, {"note": 80, "velocity": 90, "duration": 480}, {"note": 78, "velocity": 89, "duration": 145}, {"note": 0, "velocity": 0, "duration": 95}, {"note": 80, "velocity": 91, "duration": 296}, {"note": 0, "velocity": 0, "duration": 64}, {"note": 73, "velocity": 90, "duration": 663}, {"note": 0, "velocity": 0, "duration": 177}, {"note": 73, "velocity": 96, "duration": 80}, {"note": 75, "velocity": 93, "duration": 70}, {"note": 76, "velocity": 87, "duration": 171}, {"note": 0, "velocity": 0, "duration": 69}, {"note": 76, "velocity": 86, "duration": 160}, {"note": 0, "velocity": 0, "duration": 80}, {"note": 76, "velocity": 85, "duration": 159}, {"note": 0, "velocity": 0, "duration": 81}, {"note": 80, "velocity": 85, "duration": 364}, {"note": 0, "velocity": 0, "duration": 116}, {"note": 81, "velocity": 92, "duration": 208}, {"note": 80, "velocity": 89, "duration": 157}, {"note": 0, "velocity": 0, "duration": 83}, {"note": 80, "velocity": 90, "duration": 486}, {"note": 78, "velocity": 91, "duration": 675}, {"note": 68, "velocity": 96, "duration": 161}, {"note": 0, "velocity": 0, "duration": 79}, {"note": 69, "velocity": 100, "duration": 178}, {"note": 0, "velocity": 0, "duration": 62}, {"note": 71, "velocity": 95, "duration": 150}, {"note": 0, "velocity": 0, "duration": 90}, {"note": 80, "velocity": 95, "duration": 1095}, {"note": 0, "velocity": 0, "duration": 105}, {"note": 80, "velocity": 92, "duration": 213}, {"note": 78, "velocity": 95, "duration": 239}, {"note": 76, "velocity": 90, "duration": 236}, {"note": 80, "velocity": 93, "duration": 499}, {"note": 78, "velocity": 91, "duration": 625}, {"note": 0, "velocity": 0, "duration": 95}, {"note": 68, "velocity": 91, "duration": 154}, {"note": 0, "velocity": 0, "duration": 86}, {"note": 69, "velocity": 91, "duration": 167}, {"note": 0, "velocity": 0, "duration": 73}, {"note": 71, "velocity": 87, "duration": 193}, {"note": 76, "velocity": 90, "duration": 1058}, {"note": 0, "velocity": 0, "duration": 142}, {"note": 76, "velocity": 89, "duration": 194}, {"note": 75, "velocity": 91, "duration": 209}, {"note": 73, "velocity": 95, "duration": 164}, {"note": 0, "velocity": 0, "duration": 76}, {"note": 75, "velocity": 90, "duration": 861}, {"note": 0, "velocity": 0, "duration": 339}, {"note": 68, "velocity": 93, "duration": 200}, {"note": 69, "velocity": 95, "duration": 172}, {"note": 0, "velocity": 0, "duration": 68}, {"note": 71, "velocity": 92, "duration": 179}, {"note": 0, "velocity": 0, "duration": 61}, {"note": 80, "velocity": 91, "duration": 1086}, {"note": 0, "velocity": 0, "duration": 114}, {"note": 80, "velocity": 90, "duration": 177}, {"note": 0, "velocity": 0, "duration": 63}, {"note": 78, "velocity": 90, "duration": 234}, {"note": 76, "velocity": 90, "duration": 207}, {"note": 76, "velocity": 95, "duration": 960}, {"note": 0, "velocity": 0, "duration": 240}, {"note": 68, "velocity": 89, "duration": 162}, {"note": 0, "velocity": 0, "duration": 78}, {"note": 69, "velocity": 92, "duration": 172}, {"note": 0, "velocity": 0, "duration": 68}, {"note": 71, "velocity": 89, "duration": 182}, {"note": 80, "velocity": 93, "duration": 480}, {"note": 78, "velocity": 90, "duration": 228}, {"note": 76, "velocity": 90, "duration": 244}, {"note": 80, "velocity": 90, "duration": 399}, {"note": 0, "velocity": 0, "duration": 81}, {"note": 78, "velocity": 90, "duration": 216}, {"note": 76, "velocity": 84, "duration": 263}, {"note": 80, "velocity": 90, "duration": 481}, {"note": 81, "velocity": 91, "duration": 257}, {"note": 80, "velocity": 91, "duration": 235}, {"note": 78, "velocity": 90, "duration": 432}, {"note": 76, "velocity": 89, "duration": 210}, {"note": 78, "velocity": 91, "duration": 238}, {"note": 76, "velocity": 90, "duration": 138}, {"note": 80, "velocity": 90, "duration": 960}, {"note": 0, "velocity": 0, "duration": 120}, {"note": 80, "velocity": 90, "duration": 259}, {"note": 78, "velocity": 89, "duration": 260}, {"note": 76, "velocity": 90, "duration": 256}, {"note": 80, "velocity": 91, "duration": 478}, {"note": 78, "velocity": 89, "duration": 582}, {"note": 0, "velocity": 0, "duration": 138}, {"note": 68, "velocity": 90, "duration": 210}, {"note": 69, "velocity": 90, "duration": 244}, {"note": 71, "velocity": 87, "duration": 244}, {"note": 76, "velocity": 90, "duration": 1066}, {"note": 0, "velocity": 0, "duration": 134}, {"note": 76, "velocity": 91, "duration": 214}, {"note": 75, "velocity": 93, "duration": 271}, {"note": 73, "velocity": 93, "duration": 237}, {"note": 75, "velocity": 91, "duration": 737}, {"note": 0, "velocity": 0, "duration": 463}, {"note": 68, "velocity": 90, "duration": 187}, {"note": 69, "velocity": 92, "duration": 196}, {"note": 71, "velocity": 88, "duration": 200}, {"note": 80, "velocity": 90, "duration": 1041}, {"note": 0, "velocity": 0, "duration": 159}, {"note": 80, "velocity": 90, "duration": 238}, {"note": 78, "velocity": 91, "duration": 244}, {"note": 76, "velocity": 89, "duration": 175}, {"note": 0, "velocity": 0, "duration": 65}, {"note": 76, "velocity": 92, "duration": 864}, {"note": 0, "velocity": 0, "duration": 336}, {"note": 68, "velocity": 89, "duration": 207}, {"note": 69, "velocity": 93, "duration": 190}, {"note": 71, "velocity": 91, "duration": 197}, {"note": 76, "velocity": 90, "duration": 1703}, {"note": 0, "velocity": 0, "duration": 217}, {"note": 75, "velocity": 92, "duration": 373}, {"note": 73, "velocity": 90, "duration": 93}, {"note": 71, "velocity": 89, "duration": 1144}, {"note": 75, "velocity": 90, "duration": 201}, {"note": 76, "velocity": 90, "duration": 1036}, {"note": 0, "velocity": 0, "duration": 7124}, {"note": 76, "velocity": 86, "duration": 180}, {"note": 76, "velocity": 89, "duration": 165}, {"note": 0, "velocity": 0, "duration": 75}, {"note": 76, "velocity": 89, "duration": 162}, {"note": 0, "velocity": 0, "duration": 78}, {"note": 76, "velocity": 87, "duration": 179}, {"note": 0, "velocity": 0, "duration": 61}, {"note": 76, "velocity": 85, "duration": 148}, {"note": 0, "velocity": 0, "duration": 92}, {"note": 76, "velocity": 84, "duration": 157}, {"note": 0, "velocity": 0, "duration": 83}, {"note": 76, "velocity": 88, "duration": 164}, {"note": 0, "velocity": 0, "duration": 76}, {"note": 75, "velocity": 91, "duration": 188}, {"note": 71, "velocity": 90, "duration": 191}, {"note": 71, "velocity": 84, "duration": 198}, {"note": 76, "velocity": 93, "duration": 437}, {"note": 0, "velocity": 0, "duration": 283}, {"note": 71, "velocity": 91, "duration": 234}, {"note": 76, "velocity": 91, "duration": 494}, {"note": 0, "velocity": 0, "duration": 226}, {"note": 76, "velocity": 89, "duration": 177}, {"note": 0, "velocity": 0, "duration": 63}, {"note": 76, "velocity": 89, "duration": 171}, {"note": 0, "velocity": 0, "duration": 69}, {"note": 76, "velocity": 91, "duration": 181}, {"note": 75, "velocity": 93, "duration": 189}, {"note": 73, "velocity": 91, "duration": 200}, {"note": 71, "velocity": 88, "duration": 1200}, {"note": 0, "velocity": 0, "duration": 480}, {"note": 75, "velocity": 91, "duration": 480}, {"note": 0, "velocity": 0, "duration": 240}, {"note": 76, "velocity": 83, "duration": 157}, {"note": 0, "velocity": 0, "duration": 83}, {"note": 76, "velocity": 90, "duration": 157}, {"note": 0, "velocity": 0, "duration": 83}, {"note": 76, "velocity": 88, "duration": 157}, {"note": 0, "velocity": 0, "duration": 83}, {"note": 76, "velocity": 91, "duration": 187}, {"note": 78, "velocity": 90, "duration": 226}, {"note": 76, "velocity": 90, "duration": 229}, {"note": 80, "velocity": 90, "duration": 480}, {"note": 78, "velocity": 89, "duration": 145}, {"note": 0, "velocity": 0, "duration": 95}, {"note": 80, "velocity": 91, "duration": 296}, {"note": 0, "velocity": 0, "duration": 64}, {"note": 73, "velocity": 90, "duration": 663}, {"note": 0, "velocity": 0, "duration": 177}, {"note": 73, "velocity": 96, "duration": 80}, {"note": 75, "velocity": 93, "duration": 70}, {"note": 76, "velocity": 87, "duration": 171}, {"note": 0, "velocity": 0, "duration": 69}, {"note": 76, "velocity": 86, "duration": 160}, {"note": 0, "velocity": 0, "duration": 80}, {"note": 76, "velocity": 85, "duration": 159}, {"note": 0, "velocity": 0, "duration": 81}, {"note": 80, "velocity": 85, "duration": 364}, {"note": 0, "velocity": 0, "duration": 116}, {"note": 81, "velocity": 92, "duration": 208}, {"note": 80, "velocity": 89, "duration": 157}, {"note": 0, "velocity": 0, "duration": 83}, {"note": 80, "velocity": 90, "duration": 486}, {"note": 78, "velocity": 91, "duration": 675}, {"note": 68, "velocity": 96, "duration": 161}, {"note": 0, "velocity": 0, "duration": 79}, {"note": 69, "velocity": 100, "duration": 178}, {"note": 0, "velocity": 0, "duration": 62}, {"note": 71, "velocity": 95, "duration": 150}, {"note": 0, "velocity": 0, "duration": 90}, {"note": 80, "velocity": 95, "duration": 1095}, {"note": 0, "velocity": 0, "duration": 105}, {"note": 80, "velocity": 92, "duration": 213}, {"note": 78, "velocity": 95, "duration": 239}, {"note": 76, "velocity": 90, "duration": 236}, {"note": 80, "velocity": 93, "duration": 499}, {"note": 78, "velocity": 91, "duration": 625}, {"note": 0, "velocity": 0, "duration": 95}, {"note": 68, "velocity": 91, "duration": 154}, {"note": 0, "velocity": 0, "duration": 86}, {"note": 69, "velocity": 91, "duration": 167}, {"note": 0, "velocity": 0, "duration": 73}, {"note": 71, "velocity": 87, "duration": 193}, {"note": 76, "velocity": 90, "duration": 1058}, {"note": 0, "velocity": 0, "duration": 142}, {"note": 76, "velocity": 89, "duration": 194}, {"note": 75, "velocity": 91, "duration": 209}, {"note": 73, "velocity": 95, "duration": 164}, {"note": 0, "velocity": 0, "duration": 76}, {"note": 75, "velocity": 90, "duration": 861}, {"note": 0, "velocity": 0, "duration": 339}, {"note": 68, "velocity": 93, "duration": 200}, {"note": 69, "velocity": 95, "duration": 172}, {"note": 0, "velocity": 0, "duration": 68}, {"note": 71, "velocity": 92, "duration": 179}, {"note": 0, "velocity": 0, "duration": 61}, {"note": 80, "velocity": 91, "duration": 1086}, {"note": 0, "velocity": 0, "duration": 114}, {"note": 80, "velocity": 90, "duration": 177}, {"note": 0, "velocity": 0, "duration": 63}, {"note": 78, "velocity": 90, "duration": 234}, {"note": 76, "velocity": 90, "duration": 207}, {"note": 76, "velocity": 95, "duration": 960}, {"note": 0, "velocity": 0, "duration": 240}, {"note": 68, "velocity": 89, "duration": 162}, {"note": 0, "velocity": 0, "duration": 78}, {"note": 69, "velocity": 92, "duration": 172}, {"note": 0, "velocity": 0, "duration": 68}, {"note": 71, "velocity": 89, "duration": 182}, {"note": 80, "velocity": 93, "duration": 480}, {"note": 78, "velocity": 90, "duration": 228}, {"note": 76, "velocity": 90, "duration": 244}, {"note": 80, "velocity": 90, "duration": 399}, {"note": 0, "velocity": 0, "duration": 81}, {"note": 78, "velocity": 90, "duration": 216}, {"note": 76, "velocity": 84, "duration": 263}, {"note": 80, "velocity": 90, "duration": 481}, {"note": 81, "velocity": 91, "duration": 257}, {"note": 80, "velocity": 91, "duration": 235}, {"note": 78, "velocity": 90, "duration": 432}, {"note": 76, "velocity": 89, "duration": 210}, {"note": 78, "velocity": 91, "duration": 238}, {"note": 76, "velocity": 90, "duration": 138}, {"note": 80, "velocity": 90, "duration": 960}, {"note": 0, "velocity": 0, "duration": 120}, {"note": 80, "velocity": 90, "duration": 259}, {"note": 78, "velocity": 89, "duration": 260}, {"note": 76, "velocity": 90, "duration": 256}, {"note": 80, "velocity": 91, "duration": 478}, {"note": 78, "velocity": 89, "duration": 582}, {"note": 0, "velocity": 0, "duration": 138}, {"note": 68, "velocity": 90, "duration": 210}, {"note": 69, "velocity": 90, "duration": 244}, {"note": 71, "velocity": 87, "duration": 244}, {"note": 76, "velocity": 90, "duration": 1066}, {"note": 0, "velocity": 0, "duration": 134}, {"note": 76, "velocity": 91, "duration": 214}, {"note": 75, "velocity": 93, "duration": 271}, {"note": 73, "velocity": 93, "duration": 237}, {"note": 75, "velocity": 91, "duration": 737}, {"note": 0, "velocity": 0, "duration": 463}, {"note": 68, "velocity": 90, "duration": 187}, {"note": 69, "velocity": 92, "duration": 196}, {"note": 71, "velocity": 88, "duration": 200}, {"note": 80, "velocity": 90, "duration": 1041}, {"note": 0, "velocity": 0, "duration": 159}, {"note": 80, "velocity": 90, "duration": 238}, {"note": 78, "velocity": 91, "duration": 244}, {"note": 76, "velocity": 89, "duration": 175}, {"note": 0, "velocity": 0, "duration": 65}, {"note": 76, "velocity": 92, "duration": 864}, {"note": 0, "velocity": 0, "duration": 336}, {"note": 68, "velocity": 89, "duration": 207}, {"note": 69, "velocity": 93, "duration": 190}, {"note": 71, "velocity": 91, "duration": 197}, {"note": 76, "velocity": 90, "duration": 1703}, {"note": 0, "velocity": 0, "duration": 217}, {"note": 75, "velocity": 92, "duration": 373}, {"note": 73, "velocity": 90, "duration": 93}, {"note": 71, "velocity": 89, "duration": 1144}, {"note": 75, "velocity": 90, "duration": 201}, {"note": 76, "velocity": 90, "duration": 1036}, {"note": 0, "velocity": 0, "duration": 2324}, {"note": 77, "velocity": 89, "duration": 210}, {"note": 79, "velocity": 91, "duration": 238}, {"note": 77, "velocity": 90, "duration": 138}, {"note": 81, "velocity": 90, "duration": 960}, {"note": 0, "velocity": 0, "duration": 120}, {"note": 81, "velocity": 90, "duration": 259}, {"note": 79, "velocity": 89, "duration": 260}, {"note": 77, "velocity": 90, "duration": 256}, {"note": 81, "velocity": 91, "duration": 478}, {"note": 79, "velocity": 89, "duration": 582}, {"note": 0, "velocity": 0, "duration": 138}, {"note": 69, "velocity": 90, "duration": 210}, {"note": 70, "velocity": 90, "duration": 244}, {"note": 72, "velocity": 87, "duration": 244}, {"note": 77, "velocity": 90, "duration": 1066}, {"note": 0, "velocity": 0, "duration": 134}, {"note": 77, "velocity": 91, "duration": 214}, {"note": 76, "velocity": 93, "duration": 271}, {"note": 74, "velocity": 93, "duration": 237}, {"note": 76, "velocity": 91, "duration": 737}, {"note": 0, "velocity": 0, "duration": 463}, {"note": 69, "velocity": 90, "duration": 187}, {"note": 70, "velocity": 92, "duration": 196}, {"note": 72, "velocity": 88, "duration": 200}, {"note": 81, "velocity": 90, "duration": 1041}, {"note": 0, "velocity": 0, "duration": 159}, {"note": 81, "velocity": 90, "duration": 238}, {"note": 79, "velocity": 91, "duration": 244}, {"note": 77, "velocity": 89, "duration": 175}, {"note": 0, "velocity": 0, "duration": 65}, {"note": 77, "velocity": 92, "duration": 864}, {"note": 0, "velocity": 0, "duration": 336}, {"note": 69, "velocity": 89, "duration": 207}, {"note": 70, "velocity": 93, "duration": 190}, {"note": 72, "velocity": 91, "duration": 197}, {"note": 77, "velocity": 90, "duration": 1703}, {"note": 0, "velocity": 0, "duration": 217}, {"note": 76, "velocity": 92, "duration": 373}, {"note": 74, "velocity": 90, "duration": 93}, {"note": 72, "velocity": 89, "duration": 1144}, {"note": 76, "velocity": 90, "duration": 201}, {"note": 77, "velocity": 90, "duration": 1036}]]