[[{"note": 72, "velocity": 86, "duration": 120}, {"note": 77, "velocity": 82, "duration": 174}, {"note": 77, "velocity": 86, "duration": 64}, {"note": 77, "velocity": 86, "duration": 345}, {"note": 80, "velocity": 81, "duration": 199}, {"note": 77, "velocity": 89, "duration": 317}, {"note": 77, "velocity": 86, "duration": 300}, {"note": 75, "velocity": 86, "duration": 94}, {"note": 72, "velocity": 85, "duration": 133}, {"note": 77, "velocity": 87, "duration": 1503}, {"note": 0, "velocity": 0, "duration": 160}, {"note": 72, "velocity": 86, "duration": 70}, {"note": 72, "velocity": 87, "duration": 97}, {"note": 77, "velocity": 90, "duration": 304}, {"note": 80, "velocity": 86, "duration": 315}, {"note": 87, "velocity": 87, "duration": 208}, {"note": 84, "velocity": 87, "duration": 295}, {"note": 82, "velocity": 84, "duration": 312}, {"note": 80, "velocity": 83, "duration": 94}, {"note": 77, "velocity": 87, "duration": 108}, {"note": 84, "velocity": 86, "duration": 1538}, {"note": 0, "velocity": 0, "duration": 297}, {"note": 72, "velocity": 86, "duration": 120}, {"note": 77, "velocity": 82, "duration": 174}, {"note": 77, "velocity": 86, "duration": 64}, {"note": 77, "velocity": 86, "duration": 345}, {"note": 80, "velocity": 81, "duration": 199}, {"note": 77, "velocity": 89, "duration": 317}, {"note": 77, "velocity": 86, "duration": 300}, {"note": 75, "velocity": 86, "duration": 94}, {"note": 72, "velocity": 85, "duration": 133}, {"note": 77, "velocity": 87, "duration": 1503}, {"note": 77, "velocity": 88, "duration": 69}, {"note": 77, "velocity": 89, "duration": 82}, {"note": 80, "velocity": 87, "duration": 77}, {"note": 84, "velocity": 87, "duration": 319}, {"note": 84, "velocity": 87, "duration": 293}, {"note": 87, "velocity": 89, "duration": 171}, {"note": 0, "velocity": 0, "duration": 71}, {"note": 82, "velocity": 89, "duration": 310}, {"note": 82, "velocity": 87, "duration": 286}, {"note": 0, "velocity": 0, "duration": 68}, {"note": 80, "velocity": 86, "duration": 91}, {"note": 77, "velocity": 90, "duration": 107}, {"note": 84, "velocity": 82, "duration": 101}, {"note": 87, "velocity": 87, "duration": 122}, {"note": 84, "velocity": 83, "duration": 1246}, {"note": 0, "velocity": 0, "duration": 97}, {"note": 84, "velocity": 87, "duration": 66}, {"note": 84, "velocity": 89, "duration": 97}, {"note": 87, "velocity": 86, "duration": 77}, {"note": 89, "velocity": 87, "duration": 313}, {"note": 0, "velocity": 0, "duration": 64}, {"note": 89, "velocity": 90, "duration": 281}, {"note": 87, "velocity": 88, "duration": 232}, {"note": 84, "velocity": 84, "duration": 141}, {"note": 87, "velocity": 86, "duration": 121}, {"note": 84, "velocity": 80, "duration": 355}, {"note": 0, "velocity": 0, "duration": 135}, {"note": 82, "velocity": 87, "duration": 106}, {"note": 80, "velocity": 81, "duration": 119}, {"note": 82, "velocity": 86, "duration": 266}, {"note": 0, "velocity": 0, "duration": 80}, {"note": 84, "velocity": 88, "duration": 116}, {"note": 87, "velocity": 90, "duration": 199}, {"note": 89, "velocity": 88, "duration": 134}, {"note": 87, "velocity": 90, "duration": 110}, {"note": 84, "velocity": 86, "duration": 561}, {"note": 84, "velocity": 90, "duration": 60}, {"note": 84, "velocity": 87, "duration": 89}, {"note": 87, "velocity": 86, "duration": 87}, {"note": 89, "velocity": 87, "duration": 323}, {"note": 89, "velocity": 90, "duration": 354}, {"note": 92, "velocity": 90, "duration": 236}, {"note": 89, "velocity": 87, "duration": 447}, {"note": 0, "velocity": 0, "duration": 253}, {"note": 87, "velocity": 87, "duration": 89}, {"note": 84, "velocity": 86, "duration": 99}, {"note": 82, "velocity": 86, "duration": 287}, {"note": 84, "velocity": 79, "duration": 103}, {"note": 82, "velocity": 87, "duration": 218}, {"note": 80, "velocity": 86, "duration": 242}, {"note": 77, "velocity": 88, "duration": 748}, {"note": 0, "velocity": 0, "duration": 84}, {"note": 84, "velocity": 85, "duration": 120}, {"note": 89, "velocity": 90, "duration": 726}, {"note": 87, "velocity": 87, "duration": 110}, {"note": 84, "velocity": 86, "duration": 113}, {"note": 89, "velocity": 92, "duration": 168}, {"note": 0, "velocity": 0, "duration": 66}, {"note": 89, "velocity": 90, "duration": 180}, {"note": 0, "velocity": 0, "duration": 68}, {"note": 89, "velocity": 93, "duration": 102}, {"note": 0, "velocity": 0, "duration": 154}, {"note": 92, "velocity": 87, "duration": 115}, {"note": 91, "velocity": 84, "duration": 112}, {"note": 89, "velocity": 88, "duration": 552}, {"note": 0, "velocity": 0, "duration": 276}, {"note": 84, "velocity": 86, "duration": 136}, {"note": 89, "velocity": 91, "duration": 714}, {"note": 87, "velocity": 85, "duration": 122}, {"note": 84, "velocity": 81, "duration": 148}, {"note": 89, "velocity": 88, "duration": 174}, {"note": 89, "velocity": 86, "duration": 53}, {"note": 0, "velocity": 0, "duration": 62}, {"note": 89, "velocity": 86, "duration": 56}, {"note": 0, "velocity": 0, "duration": 63}, {"note": 89, "velocity": 88, "duration": 94}, {"note": 92, "velocity": 87, "duration": 88}, {"note": 89, "velocity": 89, "duration": 110}, {"note": 87, "velocity": 85, "duration": 72}, {"note": 84, "velocity": 86, "duration": 568}, {"note": 0, "velocity": 0, "duration": 149}, {"note": 84, "velocity": 93, "duration": 191}, {"note": 89, "velocity": 90, "duration": 346}, {"note": 92, "velocity": 88, "duration": 122}, {"note": 89, "velocity": 92, "duration": 220}, {"note": 84, "velocity": 88, "duration": 122}, {"note": 87, "velocity": 83, "duration": 115}, {"note": 82, "velocity": 87, "duration": 357}, {"note": 82, "velocity": 86, "duration": 208}, {"note": 0, "velocity": 0, "duration": 139}, {"note": 80, "velocity": 89, "duration": 114}, {"note": 82, "velocity": 81, "duration": 100}, {"note": 84, "velocity": 87, "duration": 322}, {"note": 84, "velocity": 87, "duration": 148}, {"note": 82, "velocity": 87, "duration": 224}, {"note": 80, "velocity": 88, "duration": 198}, {"note": 84, "velocity": 87, "duration": 535}, {"note": 0, "velocity": 0, "duration": 300}, {"note": 84, "velocity": 85, "duration": 120}, {"note": 89, "velocity": 90, "duration": 726}, {"note": 87, "velocity": 87, "duration": 110}, {"note": 84, "velocity": 86, "duration": 113}, {"note": 89, "velocity": 92, "duration": 168}, {"note": 0, "velocity": 0, "duration": 66}, {"note": 89, "velocity": 90, "duration": 180}, {"note": 0, "velocity": 0, "duration": 68}, {"note": 89, "velocity": 93, "duration": 102}, {"note": 0, "velocity": 0, "duration": 154}, {"note": 92, "velocity": 87, "duration": 115}, {"note": 91, "velocity": 84, "duration": 112}, {"note": 89, "velocity": 88, "duration": 552}, {"note": 0, "velocity": 0, "duration": 276}, {"note": 84, "velocity": 86, "duration": 136}, {"note": 89, "velocity": 91, "duration": 714}, {"note": 87, "velocity": 85, "duration": 122}, {"note": 84, "velocity": 81, "duration": 148}, {"note": 89, "velocity": 88, "duration": 174}, {"note": 89, "velocity": 86, "duration": 53}, {"note": 0, "velocity": 0, "duration": 62}, {"note": 89, "velocity": 86, "duration": 56}, {"note": 0, "velocity": 0, "duration": 63}, {"note": 89, "velocity": 88, "duration": 94}, {"note": 92, "velocity": 87, "duration": 88}, {"note": 89, "velocity": 89, "duration": 110}, {"note": 87, "velocity": 85, "duration": 72}, {"note": 84, "velocity": 86, "duration": 568}, {"note": 0, "velocity": 0, "duration": 149}, {"note": 84, "velocity": 93, "duration": 191}, {"note": 89, "velocity": 90, "duration": 346}, {"note": 92, "velocity": 88, "duration": 122}, {"note": 89, "velocity": 92, "duration": 220}, {"note": 84, "velocity": 88, "duration": 122}, {"note": 87, "velocity": 83, "duration": 115}, {"note": 82, "velocity": 87, "duration": 357}, {"note": 82, "velocity": 86, "duration": 208}, {"note": 0, "velocity": 0, "duration": 139}, {"note": 80, "velocity": 89, "duration": 114}, {"note": 82, "velocity": 81, "duration": 100}, {"note": 84, "velocity": 87, "duration": 322}, {"note": 84, "velocity": 87, "duration": 148}, {"note": 82, "velocity": 87, "duration": 224}, {"note": 80, "velocity": 88, "duration": 198}, {"note": 84, "velocity": 87, "duration": 535}, {"note": 75, "velocity": 88, "duration": 151}, {"note": 0, "velocity": 0, "duration": 79}, {"note": 77, "velocity": 88, "duration": 150}, {"note": 0, "velocity": 0, "duration": 95}, {"note": 82, "velocity": 89, "duration": 263}, {"note": 0, "velocity": 0, "duration": 100}, {"note": 84, "velocity": 86, "duration": 131}, {"note": 82, "velocity": 86, "duration": 232}, {"note": 80, "velocity": 81, "duration": 137}, {"note": 82, "velocity": 82, "duration": 121}, {"note": 77, "velocity": 85, "duration": 1680}, {"note": 0, "velocity": 0, "duration": 16444}, {"note": 72, "velocity": 86, "duration": 120}, {"note": 77, "velocity": 82, "duration": 174}, {"note": 77, "velocity": 86, "duration": 64}, {"note": 77, "velocity": 86, "duration": 345}, {"note": 80, "velocity": 81, "duration": 199}, {"note": 77, "velocity": 89, "duration": 317}, {"note": 77, "velocity": 86, "duration": 300}, {"note": 75, "velocity": 86, "duration": 94}, {"note": 72, "velocity": 85, "duration": 133}, {"note": 77, "velocity": 87, "duration": 1503}, {"note": 0, "velocity": 0, "duration": 160}, {"note": 72, "velocity": 86, "duration": 70}, {"note": 72, "velocity": 87, "duration": 97}, {"note": 77, "velocity": 90, "duration": 304}, {"note": 80, "velocity": 86, "duration": 315}, {"note": 87, "velocity": 87, "duration": 208}, {"note": 84, "velocity": 87, "duration": 295}, {"note": 82, "velocity": 84, "duration": 312}, {"note": 80, "velocity": 83, "duration": 94}, {"note": 77, "velocity": 87, "duration": 108}, {"note": 84, "velocity": 86, "duration": 1538}, {"note": 0, "velocity": 0, "duration": 297}, {"note": 72, "velocity": 86, "duration": 120}, {"note": 77, "velocity": 82, "duration": 174}, {"note": 77, "velocity": 86, "duration": 64}, {"note": 77, "velocity": 86, "duration": 345}, {"note": 80, "velocity": 81, "duration": 199}, {"note": 77, "velocity": 89, "duration": 317}, {"note": 77, "velocity": 86, "duration": 300}, {"note": 75, "velocity": 86, "duration": 94}, {"note": 72, "velocity": 85, "duration": 133}, {"note": 77, "velocity": 87, "duration": 1503}, {"note": 77, "velocity": 88, "duration": 69}, {"note": 77, "velocity": 89, "duration": 82}, {"note": 80, "velocity": 87, "duration": 77}, {"note": 84, "velocity": 87, "duration": 319}, {"note": 84, "velocity": 87, "duration": 293}, {"note": 87, "velocity": 89, "duration": 171}, {"note": 0, "velocity": 0, "duration": 71}, {"note": 82, "velocity": 89, "duration": 310}, {"note": 82, "velocity": 87, "duration": 286}, {"note": 0, "velocity": 0, "duration": 68}, {"note": 80, "velocity": 86, "duration": 91}, {"note": 77, "velocity": 90, "duration": 107}, {"note": 84, "velocity": 82, "duration": 101}, {"note": 87, "velocity": 87, "duration": 122}, {"note": 84, "velocity": 83, "duration": 1246}, {"note": 0, "velocity": 0, "duration": 97}, {"note": 84, "velocity": 87, "duration": 66}, {"note": 84, "velocity": 89, "duration": 97}, {"note": 87, "velocity": 86, "duration": 77}, {"note": 89, "velocity": 87, "duration": 313}, {"note": 0, "velocity": 0, "duration": 64}, {"note": 89, "velocity": 90, "duration": 281}, {"note": 87, "velocity": 88, "duration": 232}, {"note": 84, "velocity": 84, "duration": 141}, {"note": 87, "velocity": 86, "duration": 121}, {"note": 84, "velocity": 80, "duration": 355}, {"note": 0, "velocity": 0, "duration": 135}, {"note": 82, "velocity": 87, "duration": 106}, {"note": 80, "velocity": 81, "duration": 119}, {"note": 82, "velocity": 86, "duration": 266}, {"note": 0, "velocity": 0, "duration": 80}, {"note": 84, "velocity": 88, "duration": 116}, {"note": 87, "velocity": 90, "duration": 199}, {"note": 89, "velocity": 88, "duration": 134}, {"note": 87, "velocity": 90, "duration": 110}, {"note": 84, "velocity": 86, "duration": 561}, {"note": 84, "velocity": 90, "duration": 60}, {"note": 84, "velocity": 87, "duration": 89}, {"note": 87, "velocity": 86, "duration": 87}, {"note": 89, "velocity": 87, "duration": 323}, {"note": 89, "velocity": 90, "duration": 354}, {"note": 92, "velocity": 90, "duration": 236}, {"note": 89, "velocity": 87, "duration": 447}, {"note": 0, "velocity": 0, "duration": 253}, {"note": 87, "velocity": 87, "duration": 89}, {"note": 84, "velocity": 86, "duration": 99}, {"note": 82, "velocity": 86, "duration": 287}, {"note": 84, "velocity": 79, "duration": 103}, {"note": 82, "velocity": 87, "duration": 218}, {"note": 80, "velocity": 86, "duration": 242}, {"note": 77, "velocity": 88, "duration": 748}, {"note": 0, "velocity": 0, "duration": 84}, {"note": 84, "velocity": 85, "duration": 120}, {"note": 89, "velocity": 90, "duration": 726}, {"note": 87, "velocity": 87, "duration": 110}, {"note": 84, "velocity": 86, "duration": 113}, {"note": 89, "velocity": 92, "duration": 168}, {"note": 0, "velocity": 0, "duration": 66}, {"note": 89, "velocity": 90, "duration": 180}, {"note": 0, "velocity": 0, "duration": 68}, {"note": 89, "velocity": 93, "duration": 102}, {"note": 0, "velocity": 0, "duration": 154}, {"note": 92, "velocity": 87, "duration": 115}, {"note": 91, "velocity": 84, "duration": 112}, {"note": 89, "velocity": 88, "duration": 552}, {"note": 0, "velocity": 0, "duration": 276}, {"note": 84, "velocity": 86, "duration": 136}, {"note": 89, "velocity": 91, "duration": 714}, {"note": 87, "velocity": 85, "duration": 122}, {"note": 84, "velocity": 81, "duration": 148}, {"note": 89, "velocity": 88, "duration": 174}, {"note": 89, "velocity": 86, "duration": 53}, {"note": 0, "velocity": 0, "duration": 62}, {"note": 89, "velocity": 86, "duration": 56}, {"note": 0, "velocity": 0, "duration": 63}, {"note": 89, "velocity": 88, "duration": 94}, {"note": 92, "velocity": 87, "duration": 88}, {"note": 89, "velocity": 89, "duration": 110}, {"note": 87, "velocity": 85, "duration": 72}, {"note": 84, "velocity": 86, "duration": 568}, {"note": 0, "velocity": 0, "duration": 149}, {"note": 84, "velocity": 93, "duration": 191}, {"note": 89, "velocity": 90, "duration": 346}, {"note": 92, "velocity": 88, "duration": 122}, {"note": 89, "velocity": 92, "duration": 220}, {"note": 84, "velocity": 88, "duration": 122}, {"note": 87, "velocity": 83, "duration": 115}, {"note": 82, "velocity": 87, "duration": 357}, {"note": 82, "velocity": 86, "duration": 208}, {"note": 0, "velocity": 0, "duration": 139}, {"note": 80, "velocity": 89, "duration": 114}, {"note": 82, "velocity": 81, "duration": 100}, {"note": 84, "velocity": 87, "duration": 322}, {"note": 84, "velocity": 87, "duration": 148}, {"note": 82, "velocity": 87, "duration": 224}, {"note": 80, "velocity": 88, "duration": 198}, {"note": 84, "velocity": 87, "duration": 535}, {"note": 0, "velocity": 0, "duration": 300}, {"note": 84, "velocity": 85, "duration": 120}, {"note": 89, "velocity": 90, "duration": 726}, {"note": 87, "velocity": 87, "duration": 110}, {"note": 84, "velocity": 86, "duration": 113}, {"note": 89, "velocity": 92, "duration": 168}, {"note": 0, "velocity": 0, "duration": 66}, {"note": 89, "velocity": 90, "duration": 180}, {"note": 0, "velocity": 0, "duration": 68}, {"note": 89, "velocity": 93, "duration": 102}, {"note": 0, "velocity": 0, "duration": 154}, {"note": 92, "velocity": 87, "duration": 115}, {"note": 91, "velocity": 84, "duration": 112}, {"note": 89, "velocity": 88, "duration": 552}, {"note": 0, "velocity": 0, "duration": 276}, {"note": 84, "velocity": 86, "duration": 136}, {"note": 89, "velocity": 91, "duration": 714}, {"note": 87, "velocity": 85, "duration": 122}, {"note": 84, "velocity": 81, "duration": 148}, {"note": 89, "velocity": 88, "duration": 174}, {"note": 89, "velocity": 86, "duration": 53}, {"note": 0, "velocity": 0, "duration": 62}, {"note": 89, "velocity": 86, "duration": 56}, {"note": 0, "velocity": 0, "duration": 63}, {"note": 89, "velocity": 88, "duration": 94}, {"note": 92, "velocity": 87, "duration": 88}, {"note": 89, "velocity": 89, "duration": 110}, {"note": 87, "velocity": 85, "duration": 72}, {"note": 84, "velocity": 86, "duration": 568}, {"note": 0, "velocity": 0, "duration": 149}, {"note": 84, "velocity": 93, "duration": 191}, {"note": 89, "velocity": 90, "duration": 346}, {"note": 92, "velocity": 88, "duration": 122}, {"note": 89, "velocity": 92, "duration": 220}, {"note": 84, "velocity": 88, "duration": 122}, {"note": 87, "velocity": 83, "duration": 115}, {"note": 82, "velocity": 87, "duration": 357}, {"note": 82, "velocity": 86, "duration": 208}, {"note": 0, "velocity": 0, "duration": 139}, {"note": 80, "velocity": 89, "duration": 114}, {"note": 82, "velocity": 81, "duration": 100}, {"note": 84, "velocity": 87, "duration": 322}, {"note": 84, "velocity": 87, "duration": 148}, {"note": 82, "velocity": 87, "duration": 224}, {"note": 80, "velocity": 88, "duration": 198}, {"note": 84, "velocity": 87, "duration": 535}, {"note": 75, "velocity": 88, "duration": 151}, {"note": 0, "velocity": 0, "duration": 79}, {"note": 77, "velocity": 88, "duration": 150}, {"note": 0, "velocity": 0, "duration": 95}, {"note": 82, "velocity": 89, "duration": 263}, {"note": 0, "velocity": 0, "duration": 100}, {"note": 84, "velocity": 86, "duration": 131}, {"note": 82, "velocity": 86, "duration": 232}, {"note": 80, "velocity": 81, "duration": 137}, {"note": 82, "velocity": 82, "duration": 121}, {"note": 77, "velocity": 85, "duration": 1680}, {"note": 0, "velocity": 0, "duration": 104}, {"note": 84, "velocity": 85, "duration": 120}, {"note": 89, "velocity": 90, "duration": 726}, {"note": 87, "velocity": 87, "duration": 110}, {"note": 84, "velocity": 86, "duration": 113}, {"note": 89, "velocity": 92, "duration": 168}, {"note": 0, "velocity": 0, "duration": 66}, {"note": 89, "velocity": 90, "duration": 180}, {"note": 0, "velocity": 0, "duration": 68}, {"note": 89, "velocity": 93, "duration": 102}, {"note": 0, "velocity": 0, "duration": 154}, {"note": 92, "velocity": 87, "duration": 115}, {"note": 91, "velocity": 84, "duration": 112}, {"note": 89, "velocity": 88, "duration": 552}, {"note": 0, "velocity": 0, "duration": 276}, {"note": 84, "velocity": 86, "duration": 136}, {"note": 89, "velocity": 91, "duration": 714}, {"note": 87, "velocity": 85, "duration": 122}, {"note": 84, "velocity": 81, "duration": 148}, {"note": 89, "velocity": 88, "duration": 174}, {"note": 89, "velocity": 86, "duration": 53}, {"note": 0, "velocity": 0, "duration": 62}, {"note": 89, "velocity": 86, "duration": 56}, {"note": 0, "velocity": 0, "duration": 63}, {"note": 89, "velocity": 88, "duration": 94}, {"note": 92, "velocity": 87, "duration": 88}, {"note": 89, "velocity": 89, "duration": 110}, {"note": 87, "velocity": 85, "duration": 72}, {"note": 84, "velocity": 86, "duration": 568}, {"note": 0, "velocity": 0, "duration": 149}, {"note": 84, "velocity": 93, "duration": 191}, {"note": 89, "velocity": 90, "duration": 346}, {"note": 92, "velocity": 88, "duration": 122}, {"note": 89, "velocity": 92, "duration": 220}, {"note": 84, "velocity": 88, "duration": 122}, {"note": 87, "velocity": 83, "duration": 115}, {"note": 82, "velocity": 87, "duration": 357}, {"note": 82, "velocity": 86, "duration": 208}, {"note": 0, "velocity": 0, "duration": 139}, {"note": 80, "velocity": 89, "duration": 114}, {"note": 82, "velocity": 81, "duration": 100}, {"note": 84, "velocity": 87, "duration": 322}, {"note": 84, "velocity": 87, "duration": 148}, {"note": 82, "velocity": 87, "duration": 224}, {"note": 80, "velocity": 88, "duration": 198}, {"note": 84, "velocity": 87, "duration": 535}, {"note": 0, "velocity": 0, "duration": 300}, {"note": 84, "velocity": 85, "duration": 120}, {"note": 89, "velocity": 90, "duration": 726}, {"note": 87, "velocity": 87, "duration": 110}, {"note": 84, "velocity": 86, "duration": 113}, {"note": 89, "velocity": 92, "duration": 168}, {"note": 0, "velocity": 0, "duration": 66}, {"note": 89, "velocity": 90, "duration": 180}, {"note": 0, "velocity": 0, "duration": 68}, {"note": 89, "velocity": 93, "duration": 102}, {"note": 0, "velocity": 0, "duration": 154}, {"note": 92, "velocity": 87, "duration": 115}, {"note": 91, "velocity": 84, "duration": 112}, {"note": 89, "velocity": 88, "duration": 552}, {"note": 0, "velocity": 0, "duration": 276}, {"note": 84, "velocity": 86, "duration": 136}, {"note": 89, "velocity": 91, "duration": 714}, {"note": 87, "velocity": 85, "duration": 122}, {"note": 84, "velocity": 81, "duration": 148}, {"note": 89, "velocity": 88, "duration": 174}, {"note": 89, "velocity": 86, "duration": 53}, {"note": 0, "velocity": 0, "duration": 62}, {"note": 89, "velocity": 86, "duration": 56}, {"note": 0, "velocity": 0, "duration": 63}, {"note": 89, "velocity": 88, "duration": 94}, {"note": 92, "velocity": 87, "duration": 88}, {"note": 89, "velocity": 89, "duration": 110}, {"note": 87, "velocity": 85, "duration": 72}, {"note": 84, "velocity": 86, "duration": 568}, {"note": 0, "velocity": 0, "duration": 149}, {"note": 84, "velocity": 93, "duration": 191}, {"note": 89, "velocity": 90, "duration": 346}, {"note": 92, "velocity": 88, "duration": 122}, {"note": 89, "velocity": 92, "duration": 220}, {"note": 84, "velocity": 88, "duration": 122}, {"note": 87, "velocity": 83, "duration": 115}, {"note": 82, "velocity": 87, "duration": 357}, {"note": 82, "velocity": 86, "duration": 208}, {"note": 0, "velocity": 0, "duration": 139}, {"note": 80, "velocity": 89, "duration": 114}, {"note": 82, "velocity": 81, "duration": 100}, {"note": 84, "velocity": 87, "duration": 322}, {"note": 84, "velocity": 87, "duration": 148}, {"note": 82, "velocity": 87, "duration": 224}, {"note": 80, "velocity": 88, "duration": 198}, {"note": 84, "velocity": 87, "duration": 535}, {"note": 75, "velocity": 88, "duration": 151}, {"note": 0, "velocity": 0, "duration": 79}, {"note": 77, "velocity": 88, "duration": 150}, {"note": 0, "velocity": 0, "duration": 95}, {"note": 82, "velocity": 89, "duration": 263}, {"note": 0, "velocity": 0, "duration": 100}, {"note": 84, "velocity": 86, "duration": 131}, {"note": 82, "velocity": 86, "duration": 232}, {"note": 80, "velocity": 81, "duration": 137}, {"note": 82, "velocity": 82, "duration": 121}, {"note": 77, "velocity": 85, "duration": 1142}, {"note": 0, "velocity": 0, "duration": 152}, {"note": 72, "velocity": 88, "duration": 180}, {"note": 75, "velocity": 87, "duration": 230}, {"note": 77, "velocity": 87, "duration": 225}, {"note": 82, "velocity": 87, "duration": 168}, {"note": 0, "velocity": 0, "duration": 76}, {"note": 82, "velocity": 86, "duration": 122}, {"note": 84, "velocity": 82, "duration": 141}, {"note": 82, "velocity": 90, "duration": 101}, {"note": 80, "velocity": 84, "duration": 135}, {"note": 82, "velocity": 80, "duration": 133}, {"note": 80, "velocity": 79, "duration": 102}, {"note": 77, "velocity": 88, "duration": 873}, {"note": 0, "velocity": 0, "duration": 78}, {"note": 82, "velocity": 86, "duration": 291}, {"note": 0, "velocity": 0, "duration": 67}, {"note": 84, "velocity": 86, "duration": 143}, {"note": 82, "velocity": 82, "duration": 125}, {"note": 80, "velocity": 85, "duration": 91}, {"note": 82, "velocity": 82, "duration": 71}, {"note": 80, "velocity": 75, "duration": 57}, {"note": 77, "velocity": 86, "duration": 117}, {"note": 77, "velocity": 86, "duration": 864}, {"note": 0, "velocity": 0, "duration": 73}, {"note": 82, "velocity": 82, "duration": 237}, {"note": 0, "velocity": 0, "duration": 106}, {"note": 84, "velocity": 82, "duration": 148}, {"note": 82, "velocity": 81, "duration": 108}, {"note": 80, "velocity": 77, "duration": 109}, {"note": 82, "velocity": 76, "duration": 84}, {"note": 80, "velocity": 79, "duration": 52}, {"note": 77, "velocity": 85, "duration": 102}, {"note": 0, "velocity": 0, "duration": 62}, {"note": 77, "velocity": 86, "duration": 788}, {"note": 0, "velocity": 0, "duration": 141}, {"note": 82, "velocity": 80, "duration": 279}, {"note": 0, "velocity": 0, "duration": 82}, {"note": 84, "velocity": 81, "duration": 153}, {"note": 82, "velocity": 82, "duration": 105}, {"note": 80, "velocity": 80, "duration": 88}, {"note": 82, "velocity": 86, "duration": 69}, {"note": 80, "velocity": 77, "duration": 60}, {"note": 77, "velocity": 83, "duration": 86}, {"note": 0, "velocity": 0, "duration": 71}, {"note": 77, "velocity": 84, "duration": 922}]]