[[{"note": 67, "velocity": 83, "duration": 187}, {"note": 70, "velocity": 86, "duration": 237}, {"note": 72, "velocity": 84, "duration": 189}, {"note": 70, "velocity": 83, "duration": 252}, {"note": 72, "velocity": 80, "duration": 241}, {"note": 75, "velocity": 86, "duration": 214}, {"note": 74, "velocity": 84, "duration": 240}, {"note": 75, "velocity": 84, "duration": 203}, {"note": 74, "velocity": 90, "duration": 337}, {"note": 0, "velocity": 0, "duration": 143}, {"note": 70, "velocity": 83, "duration": 234}, {"note": 67, "velocity": 78, "duration": 816}, {"note": 0, "velocity": 0, "duration": 384}, {"note": 67, "velocity": 82, "duration": 185}, {"note": 70, "velocity": 80, "duration": 184}, {"note": 72, "velocity": 81, "duration": 213}, {"note": 70, "velocity": 84, "duration": 221}, {"note": 72, "velocity": 80, "duration": 154}, {"note": 0, "velocity": 0, "duration": 86}, {"note": 75, "velocity": 86, "duration": 185}, {"note": 74, "velocity": 85, "duration": 167}, {"note": 0, "velocity": 0, "duration": 73}, {"note": 72, "velocity": 86, "duration": 191}, {"note": 72, "velocity": 79, "duration": 210}, {"note": 70, "velocity": 90, "duration": 491}, {"note": 79, "velocity": 81, "duration": 959}, {"note": 0, "velocity": 0, "duration": 481}, {"note": 70, "velocity": 86, "duration": 197}, {"note": 79, "velocity": 84, "duration": 282}, {"note": 0, "velocity": 0, "duration": 78}, {"note": 77, "velocity": 82, "duration": 299}, {"note": 0, "velocity": 0, "duration": 61}, {"note": 75, "velocity": 84, "duration": 216}, {"note": 77, "velocity": 81, "duration": 530}, {"note": 0, "velocity": 0, "duration": 190}, {"note": 70, "velocity": 85, "duration": 191}, {"note": 77, "velocity": 83, "duration": 299}, {"note": 0, "velocity": 0, "duration": 61}, {"note": 77, "velocity": 80, "duration": 285}, {"note": 0, "velocity": 0, "duration": 75}, {"note": 72, "velocity": 90, "duration": 158}, {"note": 0, "velocity": 0, "duration": 82}, {"note": 75, "velocity": 83, "duration": 482}, {"note": 0, "velocity": 0, "duration": 238}, {"note": 70, "velocity": 88, "duration": 190}, {"note": 72, "velocity": 67, "duration": 291}, {"note": 0, "velocity": 0, "duration": 69}, {"note": 79, "velocity": 83, "duration": 227}, {"note": 0, "velocity": 0, "duration": 133}, {"note": 70, "velocity": 80, "duration": 163}, {"note": 0, "velocity": 0, "duration": 77}, {"note": 72, "velocity": 82, "duration": 305}, {"note": 79, "velocity": 83, "duration": 288}, {"note": 0, "velocity": 0, "duration": 72}, {"note": 70, "velocity": 80, "duration": 212}, {"note": 72, "velocity": 72, "duration": 1440}, {"note": 67, "velocity": 83, "duration": 187}, {"note": 70, "velocity": 86, "duration": 237}, {"note": 72, "velocity": 84, "duration": 189}, {"note": 70, "velocity": 83, "duration": 252}, {"note": 72, "velocity": 80, "duration": 241}, {"note": 75, "velocity": 86, "duration": 214}, {"note": 74, "velocity": 84, "duration": 240}, {"note": 75, "velocity": 84, "duration": 203}, {"note": 74, "velocity": 90, "duration": 337}, {"note": 0, "velocity": 0, "duration": 143}, {"note": 70, "velocity": 83, "duration": 234}, {"note": 67, "velocity": 78, "duration": 816}, {"note": 0, "velocity": 0, "duration": 384}, {"note": 67, "velocity": 82, "duration": 185}, {"note": 70, "velocity": 80, "duration": 184}, {"note": 72, "velocity": 81, "duration": 213}, {"note": 70, "velocity": 84, "duration": 221}, {"note": 72, "velocity": 80, "duration": 154}, {"note": 0, "velocity": 0, "duration": 86}, {"note": 75, "velocity": 86, "duration": 185}, {"note": 74, "velocity": 85, "duration": 167}, {"note": 0, "velocity": 0, "duration": 73}, {"note": 72, "velocity": 86, "duration": 191}, {"note": 72, "velocity": 79, "duration": 210}, {"note": 70, "velocity": 90, "duration": 491}, {"note": 79, "velocity": 81, "duration": 959}, {"note": 0, "velocity": 0, "duration": 481}, {"note": 70, "velocity": 86, "duration": 197}, {"note": 79, "velocity": 84, "duration": 282}, {"note": 0, "velocity": 0, "duration": 78}, {"note": 77, "velocity": 82, "duration": 299}, {"note": 0, "velocity": 0, "duration": 61}, {"note": 75, "velocity": 84, "duration": 216}, {"note": 77, "velocity": 81, "duration": 530}, {"note": 0, "velocity": 0, "duration": 190}, {"note": 70, "velocity": 85, "duration": 191}, {"note": 77, "velocity": 83, "duration": 299}, {"note": 0, "velocity": 0, "duration": 61}, {"note": 77, "velocity": 80, "duration": 285}, {"note": 0, "velocity": 0, "duration": 75}, {"note": 72, "velocity": 90, "duration": 158}, {"note": 0, "velocity": 0, "duration": 82}, {"note": 75, "velocity": 83, "duration": 482}, {"note": 0, "velocity": 0, "duration": 238}, {"note": 70, "velocity": 88, "duration": 190}, {"note": 72, "velocity": 67, "duration": 291}, {"note": 0, "velocity": 0, "duration": 69}, {"note": 79, "velocity": 83, "duration": 227}, {"note": 0, "velocity": 0, "duration": 133}, {"note": 70, "velocity": 80, "duration": 163}, {"note": 0, "velocity": 0, "duration": 77}, {"note": 72, "velocity": 82, "duration": 305}, {"note": 79, "velocity": 83, "duration": 288}, {"note": 0, "velocity": 0, "duration": 72}, {"note": 75, "velocity": 80, "duration": 212}, {"note": 72, "velocity": 72, "duration": 960}, {"note": 0, "velocity": 0, "duration": 240}, {"note": 75, "velocity": 90, "duration": 214}, {"note": 72, "velocity": 85, "duration": 160}, {"note": 0, "velocity": 0, "duration": 80}, {"note": 72, "velocity": 88, "duration": 184}, {"note": 82, "velocity": 85, "duration": 297}, {"note": 0, "velocity": 0, "duration": 63}, {"note": 79, "velocity": 83, "duration": 288}, {"note": 0, "velocity": 0, "duration": 72}, {"note": 75, "velocity": 90, "duration": 179}, {"note": 0, "velocity": 0, "duration": 61}, {"note": 77, "velocity": 80, "duration": 534}, {"note": 0, "velocity": 0, "duration": 186}, {"note": 70, "velocity": 86, "duration": 181}, {"note": 82, "velocity": 80, "duration": 272}, {"note": 0, "velocity": 0, "duration": 88}, {"note": 82, "velocity": 79, "duration": 259}, {"note": 0, "velocity": 0, "duration": 101}, {"note": 75, "velocity": 82, "duration": 200}, {"note": 72, "velocity": 86, "duration": 533}, {"note": 0, "velocity": 0, "duration": 187}, {"note": 70, "velocity": 86, "duration": 166}, {"note": 0, "velocity": 0, "duration": 74}, {"note": 72, "velocity": 85, "duration": 305}, {"note": 82, "velocity": 80, "duration": 251}, {"note": 0, "velocity": 0, "duration": 109}, {"note": 70, "velocity": 83, "duration": 169}, {"note": 0, "velocity": 0, "duration": 71}, {"note": 72, "velocity": 86, "duration": 320}, {"note": 82, "velocity": 85, "duration": 245}, {"note": 0, "velocity": 0, "duration": 115}, {"note": 77, "velocity": 84, "duration": 420}, {"note": 79, "velocity": 82, "duration": 909}, {"note": 75, "velocity": 82, "duration": 194}, {"note": 72, "velocity": 86, "duration": 160}, {"note": 0, "velocity": 0, "duration": 80}, {"note": 72, "velocity": 85, "duration": 166}, {"note": 0, "velocity": 0, "duration": 74}, {"note": 82, "velocity": 83, "duration": 290}, {"note": 0, "velocity": 0, "duration": 70}, {"note": 79, "velocity": 80, "duration": 272}, {"note": 0, "velocity": 0, "duration": 88}, {"note": 75, "velocity": 83, "duration": 196}, {"note": 77, "velocity": 79, "duration": 540}, {"note": 0, "velocity": 0, "duration": 180}, {"note": 70, "velocity": 86, "duration": 188}, {"note": 82, "velocity": 81, "duration": 267}, {"note": 0, "velocity": 0, "duration": 93}, {"note": 82, "velocity": 80, "duration": 279}, {"note": 0, "velocity": 0, "duration": 81}, {"note": 70, "velocity": 79, "duration": 157}, {"note": 0, "velocity": 0, "duration": 83}, {"note": 72, "velocity": 80, "duration": 540}, {"note": 0, "velocity": 0, "duration": 180}, {"note": 70, "velocity": 84, "duration": 187}, {"note": 72, "velocity": 83, "duration": 279}, {"note": 0, "velocity": 0, "duration": 81}, {"note": 79, "velocity": 81, "duration": 243}, {"note": 0, "velocity": 0, "duration": 117}, {"note": 70, "velocity": 82, "duration": 188}, {"note": 72, "velocity": 82, "duration": 303}, {"note": 79, "velocity": 83, "duration": 255}, {"note": 0, "velocity": 0, "duration": 105}, {"note": 70, "velocity": 84, "duration": 466}, {"note": 72, "velocity": 88, "duration": 1480}, {"note": 0, "velocity": 0, "duration": 15080}, {"note": 67, "velocity": 83, "duration": 187}, {"note": 70, "velocity": 86, "duration": 237}, {"note": 72, "velocity": 84, "duration": 189}, {"note": 70, "velocity": 83, "duration": 252}, {"note": 72, "velocity": 80, "duration": 241}, {"note": 75, "velocity": 86, "duration": 214}, {"note": 74, "velocity": 84, "duration": 240}, {"note": 75, "velocity": 84, "duration": 203}, {"note": 74, "velocity": 90, "duration": 337}, {"note": 0, "velocity": 0, "duration": 143}, {"note": 70, "velocity": 83, "duration": 234}, {"note": 67, "velocity": 78, "duration": 816}, {"note": 0, "velocity": 0, "duration": 384}, {"note": 67, "velocity": 82, "duration": 185}, {"note": 70, "velocity": 80, "duration": 184}, {"note": 72, "velocity": 81, "duration": 213}, {"note": 70, "velocity": 84, "duration": 221}, {"note": 72, "velocity": 80, "duration": 154}, {"note": 0, "velocity": 0, "duration": 86}, {"note": 75, "velocity": 86, "duration": 185}, {"note": 74, "velocity": 85, "duration": 167}, {"note": 0, "velocity": 0, "duration": 73}, {"note": 72, "velocity": 86, "duration": 191}, {"note": 72, "velocity": 79, "duration": 210}, {"note": 70, "velocity": 90, "duration": 491}, {"note": 79, "velocity": 81, "duration": 959}, {"note": 0, "velocity": 0, "duration": 481}, {"note": 70, "velocity": 86, "duration": 197}, {"note": 79, "velocity": 84, "duration": 282}, {"note": 0, "velocity": 0, "duration": 78}, {"note": 77, "velocity": 82, "duration": 299}, {"note": 0, "velocity": 0, "duration": 61}, {"note": 75, "velocity": 84, "duration": 216}, {"note": 77, "velocity": 81, "duration": 530}, {"note": 0, "velocity": 0, "duration": 190}, {"note": 70, "velocity": 85, "duration": 191}, {"note": 77, "velocity": 83, "duration": 299}, {"note": 0, "velocity": 0, "duration": 61}, {"note": 77, "velocity": 80, "duration": 285}, {"note": 0, "velocity": 0, "duration": 75}, {"note": 72, "velocity": 90, "duration": 158}, {"note": 0, "velocity": 0, "duration": 82}, {"note": 75, "velocity": 83, "duration": 482}, {"note": 0, "velocity": 0, "duration": 238}, {"note": 70, "velocity": 88, "duration": 190}, {"note": 72, "velocity": 67, "duration": 291}, {"note": 0, "velocity": 0, "duration": 69}, {"note": 79, "velocity": 83, "duration": 227}, {"note": 0, "velocity": 0, "duration": 133}, {"note": 70, "velocity": 80, "duration": 163}, {"note": 0, "velocity": 0, "duration": 77}, {"note": 72, "velocity": 82, "duration": 305}, {"note": 79, "velocity": 83, "duration": 288}, {"note": 0, "velocity": 0, "duration": 72}, {"note": 75, "velocity": 80, "duration": 212}, {"note": 72, "velocity": 72, "duration": 960}, {"note": 0, "velocity": 0, "duration": 240}, {"note": 75, "velocity": 90, "duration": 214}, {"note": 72, "velocity": 85, "duration": 160}, {"note": 0, "velocity": 0, "duration": 80}, {"note": 72, "velocity": 88, "duration": 184}, {"note": 82, "velocity": 85, "duration": 297}, {"note": 0, "velocity": 0, "duration": 63}, {"note": 79, "velocity": 83, "duration": 288}, {"note": 0, "velocity": 0, "duration": 72}, {"note": 75, "velocity": 90, "duration": 179}, {"note": 0, "velocity": 0, "duration": 61}, {"note": 77, "velocity": 80, "duration": 534}, {"note": 0, "velocity": 0, "duration": 186}, {"note": 70, "velocity": 86, "duration": 181}, {"note": 82, "velocity": 80, "duration": 272}, {"note": 0, "velocity": 0, "duration": 88}, {"note": 82, "velocity": 79, "duration": 259}, {"note": 0, "velocity": 0, "duration": 101}, {"note": 75, "velocity": 82, "duration": 200}, {"note": 72, "velocity": 86, "duration": 533}, {"note": 0, "velocity": 0, "duration": 187}, {"note": 70, "velocity": 86, "duration": 166}, {"note": 0, "velocity": 0, "duration": 74}, {"note": 72, "velocity": 85, "duration": 305}, {"note": 82, "velocity": 80, "duration": 251}, {"note": 0, "velocity": 0, "duration": 109}, {"note": 70, "velocity": 83, "duration": 169}, {"note": 0, "velocity": 0, "duration": 71}, {"note": 72, "velocity": 86, "duration": 320}, {"note": 82, "velocity": 85, "duration": 245}, {"note": 0, "velocity": 0, "duration": 115}, {"note": 77, "velocity": 84, "duration": 420}, {"note": 79, "velocity": 82, "duration": 909}, {"note": 75, "velocity": 82, "duration": 194}, {"note": 72, "velocity": 86, "duration": 160}, {"note": 0, "velocity": 0, "duration": 80}, {"note": 72, "velocity": 85, "duration": 166}, {"note": 0, "velocity": 0, "duration": 74}, {"note": 82, "velocity": 83, "duration": 290}, {"note": 0, "velocity": 0, "duration": 70}, {"note": 79, "velocity": 80, "duration": 272}, {"note": 0, "velocity": 0, "duration": 88}, {"note": 75, "velocity": 83, "duration": 196}, {"note": 77, "velocity": 79, "duration": 540}, {"note": 0, "velocity": 0, "duration": 180}, {"note": 70, "velocity": 86, "duration": 188}, {"note": 82, "velocity": 81, "duration": 267}, {"note": 0, "velocity": 0, "duration": 93}, {"note": 82, "velocity": 80, "duration": 279}, {"note": 0, "velocity": 0, "duration": 81}, {"note": 70, "velocity": 79, "duration": 157}, {"note": 0, "velocity": 0, "duration": 83}, {"note": 72, "velocity": 80, "duration": 540}, {"note": 0, "velocity": 0, "duration": 180}, {"note": 70, "velocity": 84, "duration": 187}, {"note": 72, "velocity": 83, "duration": 279}, {"note": 0, "velocity": 0, "duration": 81}, {"note": 79, "velocity": 81, "duration": 243}, {"note": 0, "velocity": 0, "duration": 117}, {"note": 70, "velocity": 82, "duration": 188}, {"note": 72, "velocity": 82, "duration": 303}, {"note": 79, "velocity": 83, "duration": 255}, {"note": 0, "velocity": 0, "duration": 105}, {"note": 70, "velocity": 84, "duration": 240}, {"note": 72, "velocity": 88, "duration": 960}, {"note": 0, "velocity": 0, "duration": 240}, {"note": 75, "velocity": 90, "duration": 214}, {"note": 72, "velocity": 85, "duration": 160}, {"note": 0, "velocity": 0, "duration": 80}, {"note": 72, "velocity": 88, "duration": 184}, {"note": 82, "velocity": 85, "duration": 297}, {"note": 0, "velocity": 0, "duration": 63}, {"note": 79, "velocity": 83, "duration": 288}, {"note": 0, "velocity": 0, "duration": 72}, {"note": 75, "velocity": 90, "duration": 179}, {"note": 0, "velocity": 0, "duration": 61}, {"note": 77, "velocity": 80, "duration": 534}, {"note": 0, "velocity": 0, "duration": 186}, {"note": 70, "velocity": 86, "duration": 181}, {"note": 82, "velocity": 80, "duration": 272}, {"note": 0, "velocity": 0, "duration": 88}, {"note": 82, "velocity": 79, "duration": 259}, {"note": 0, "velocity": 0, "duration": 101}, {"note": 75, "velocity": 82, "duration": 200}, {"note": 72, "velocity": 86, "duration": 533}, {"note": 0, "velocity": 0, "duration": 187}, {"note": 70, "velocity": 86, "duration": 166}, {"note": 0, "velocity": 0, "duration": 74}, {"note": 72, "velocity": 85, "duration": 305}, {"note": 82, "velocity": 80, "duration": 251}, {"note": 0, "velocity": 0, "duration": 109}, {"note": 70, "velocity": 83, "duration": 169}, {"note": 0, "velocity": 0, "duration": 71}, {"note": 72, "velocity": 86, "duration": 320}, {"note": 82, "velocity": 85, "duration": 245}, {"note": 0, "velocity": 0, "duration": 115}, {"note": 77, "velocity": 84, "duration": 420}, {"note": 79, "velocity": 82, "duration": 909}, {"note": 75, "velocity": 82, "duration": 194}, {"note": 72, "velocity": 86, "duration": 160}, {"note": 0, "velocity": 0, "duration": 80}, {"note": 72, "velocity": 85, "duration": 166}, {"note": 0, "velocity": 0, "duration": 74}, {"note": 82, "velocity": 83, "duration": 290}, {"note": 0, "velocity": 0, "duration": 70}, {"note": 79, "velocity": 80, "duration": 272}, {"note": 0, "velocity": 0, "duration": 88}, {"note": 75, "velocity": 83, "duration": 196}, {"note": 77, "velocity": 79, "duration": 540}, {"note": 0, "velocity": 0, "duration": 180}, {"note": 70, "velocity": 86, "duration": 188}, {"note": 82, "velocity": 81, "duration": 267}, {"note": 0, "velocity": 0, "duration": 93}, {"note": 82, "velocity": 80, "duration": 279}, {"note": 0, "velocity": 0, "duration": 81}, {"note": 70, "velocity": 79, "duration": 157}, {"note": 0, "velocity": 0, "duration": 83}, {"note": 72, "velocity": 80, "duration": 540}, {"note": 0, "velocity": 0, "duration": 180}, {"note": 70, "velocity": 84, "duration": 187}, {"note": 72, "velocity": 83, "duration": 279}, {"note": 0, "velocity": 0, "duration": 81}, {"note": 79, "velocity": 81, "duration": 243}, {"note": 0, "velocity": 0, "duration": 117}, {"note": 70, "velocity": 82, "duration": 188}, {"note": 72, "velocity": 82, "duration": 303}, {"note": 79, "velocity": 83, "duration": 255}, {"note": 0, "velocity": 0, "duration": 105}, {"note": 70, "velocity": 84, "duration": 240}, {"note": 72, "velocity": 88, "duration": 1200}, {"note": 0, "velocity": 0, "duration": 480}, {"note": 70, "velocity": 84, "duration": 187}, {"note": 72, "velocity": 83, "duration": 279}, {"note": 0, "velocity": 0, "duration": 81}, {"note": 79, "velocity": 81, "duration": 243}, {"note": 0, "velocity": 0, "duration": 117}, {"note": 70, "velocity": 82, "duration": 188}, {"note": 72, "velocity": 82, "duration": 303}, {"note": 79, "velocity": 83, "duration": 255}, {"note": 0, "velocity": 0, "duration": 105}, {"note": 70, "velocity": 84, "duration": 240}, {"note": 72, "velocity": 88, "duration": 1200}]]