[[{"note": 69, "velocity": 85, "duration": 76}, {"note": 71, "velocity": 92, "duration": 85}, {"note": 72, "velocity": 83, "duration": 195}, {"note": 71, "velocity": 92, "duration": 90}, {"note": 69, "velocity": 81, "duration": 81}, {"note": 69, "velocity": 87, "duration": 186}, {"note": 71, "velocity": 82, "duration": 78}, {"note": 69, "velocity": 88, "duration": 647}, {"note": 0, "velocity": 0, "duration": 193}, {"note": 72, "velocity": 90, "duration": 69}, {"note": 74, "velocity": 95, "duration": 74}, {"note": 76, "velocity": 86, "duration": 184}, {"note": 74, "velocity": 98, "duration": 89}, {"note": 72, "velocity": 85, "duration": 84}, {"note": 71, "velocity": 82, "duration": 194}, {"note": 72, "velocity": 69, "duration": 79}, {"note": 71, "velocity": 95, "duration": 346}, {"note": 69, "velocity": 85, "duration": 321}, {"note": 0, "velocity": 0, "duration": 279}, {"note": 69, "velocity": 83, "duration": 98}, {"note": 71, "velocity": 86, "duration": 667}, {"note": 69, "velocity": 87, "duration": 270}, {"note": 67, "velocity": 77, "duration": 226}, {"note": 69, "velocity": 85, "duration": 72}, {"note": 71, "velocity": 82, "duration": 339}, {"note": 67, "velocity": 83, "duration": 252}, {"note": 64, "velocity": 82, "duration": 480}, {"note": 62, "velocity": 83, "duration": 208}, {"note": 64, "velocity": 83, "duration": 115}, {"note": 0, "velocity": 0, "duration": 125}, {"note": 64, "velocity": 82, "duration": 576}, {"note": 0, "velocity": 0, "duration": 144}, {"note": 69, "velocity": 85, "duration": 76}, {"note": 71, "velocity": 92, "duration": 85}, {"note": 72, "velocity": 83, "duration": 195}, {"note": 71, "velocity": 92, "duration": 90}, {"note": 69, "velocity": 81, "duration": 81}, {"note": 69, "velocity": 87, "duration": 186}, {"note": 71, "velocity": 82, "duration": 78}, {"note": 69, "velocity": 88, "duration": 647}, {"note": 0, "velocity": 0, "duration": 193}, {"note": 72, "velocity": 90, "duration": 69}, {"note": 74, "velocity": 95, "duration": 74}, {"note": 76, "velocity": 86, "duration": 184}, {"note": 74, "velocity": 98, "duration": 89}, {"note": 72, "velocity": 85, "duration": 84}, {"note": 71, "velocity": 82, "duration": 194}, {"note": 72, "velocity": 69, "duration": 79}, {"note": 71, "velocity": 95, "duration": 346}, {"note": 69, "velocity": 85, "duration": 321}, {"note": 0, "velocity": 0, "duration": 399}, {"note": 74, "velocity": 98, "duration": 165}, {"note": 0, "velocity": 0, "duration": 75}, {"note": 74, "velocity": 98, "duration": 137}, {"note": 0, "velocity": 0, "duration": 103}, {"note": 74, "velocity": 98, "duration": 181}, {"note": 76, "velocity": 90, "duration": 165}, {"note": 0, "velocity": 0, "duration": 75}, {"note": 77, "velocity": 86, "duration": 223}, {"note": 76, "velocity": 86, "duration": 211}, {"note": 74, "velocity": 95, "duration": 188}, {"note": 72, "velocity": 83, "duration": 218}, {"note": 77, "velocity": 84, "duration": 173}, {"note": 0, "velocity": 0, "duration": 67}, {"note": 76, "velocity": 88, "duration": 198}, {"note": 74, "velocity": 97, "duration": 191}, {"note": 77, "velocity": 83, "duration": 75}, {"note": 76, "velocity": 97, "duration": 804}, {"note": 0, "velocity": 0, "duration": 156}, {"note": 76, "velocity": 92, "duration": 89}, {"note": 81, "velocity": 87, "duration": 157}, {"note": 0, "velocity": 0, "duration": 83}, {"note": 81, "velocity": 86, "duration": 142}, {"note": 0, "velocity": 0, "duration": 98}, {"note": 81, "velocity": 88, "duration": 190}, {"note": 76, "velocity": 92, "duration": 184}, {"note": 74, "velocity": 95, "duration": 524}, {"note": 0, "velocity": 0, "duration": 316}, {"note": 74, "velocity": 95, "duration": 86}, {"note": 79, "velocity": 83, "duration": 146}, {"note": 0, "velocity": 0, "duration": 94}, {"note": 79, "velocity": 87, "duration": 117}, {"note": 0, "velocity": 0, "duration": 123}, {"note": 79, "velocity": 92, "duration": 159}, {"note": 0, "velocity": 0, "duration": 81}, {"note": 74, "velocity": 90, "duration": 84}, {"note": 76, "velocity": 86, "duration": 592}, {"note": 74, "velocity": 97, "duration": 79}, {"note": 72, "velocity": 88, "duration": 302}, {"note": 81, "velocity": 87, "duration": 169}, {"note": 0, "velocity": 0, "duration": 71}, {"note": 81, "velocity": 85, "duration": 139}, {"note": 0, "velocity": 0, "duration": 101}, {"note": 81, "velocity": 88, "duration": 185}, {"note": 76, "velocity": 88, "duration": 192}, {"note": 74, "velocity": 95, "duration": 532}, {"note": 0, "velocity": 0, "duration": 308}, {"note": 74, "velocity": 92, "duration": 101}, {"note": 79, "velocity": 87, "duration": 162}, {"note": 0, "velocity": 0, "duration": 78}, {"note": 79, "velocity": 85, "duration": 137}, {"note": 0, "velocity": 0, "duration": 103}, {"note": 79, "velocity": 85, "duration": 193}, {"note": 74, "velocity": 90, "duration": 184}, {"note": 76, "velocity": 85, "duration": 513}, {"note": 0, "velocity": 0, "duration": 207}, {"note": 74, "velocity": 88, "duration": 69}, {"note": 76, "velocity": 88, "duration": 68}, {"note": 77, "velocity": 83, "duration": 168}, {"note": 0, "velocity": 0, "duration": 72}, {"note": 76, "velocity": 90, "duration": 154}, {"note": 0, "velocity": 0, "duration": 86}, {"note": 74, "velocity": 92, "duration": 393}, {"note": 0, "velocity": 0, "duration": 87}, {"note": 76, "velocity": 85, "duration": 168}, {"note": 0, "velocity": 0, "duration": 72}, {"note": 74, "velocity": 85, "duration": 220}, {"note": 72, "velocity": 85, "duration": 246}, {"note": 74, "velocity": 90, "duration": 64}, {"note": 76, "velocity": 88, "duration": 68}, {"note": 77, "velocity": 85, "duration": 176}, {"note": 0, "velocity": 0, "duration": 64}, {"note": 76, "velocity": 97, "duration": 151}, {"note": 0, "velocity": 0, "duration": 89}, {"note": 74, "velocity": 98, "duration": 240}, {"note": 77, "velocity": 81, "duration": 173}, {"note": 0, "velocity": 0, "duration": 67}, {"note": 76, "velocity": 88, "duration": 165}, {"note": 0, "velocity": 0, "duration": 75}, {"note": 76, "velocity": 86, "duration": 158}, {"note": 0, "velocity": 0, "duration": 82}, {"note": 76, "velocity": 85, "duration": 153}, {"note": 0, "velocity": 0, "duration": 87}, {"note": 76, "velocity": 83, "duration": 174}, {"note": 0, "velocity": 0, "duration": 66}, {"note": 76, "velocity": 86, "duration": 180}, {"note": 74, "velocity": 24, "duration": 201}, {"note": 72, "velocity": 85, "duration": 179}, {"note": 0, "velocity": 0, "duration": 61}, {"note": 71, "velocity": 83, "duration": 233}, {"note": 69, "velocity": 82, "duration": 431}, {"note": 76, "velocity": 87, "duration": 407}, {"note": 0, "velocity": 0, "duration": 73}, {"note": 74, "velocity": 87, "duration": 518}, {"note": 71, "velocity": 80, "duration": 207}, {"note": 67, "velocity": 84, "duration": 194}, {"note": 69, "velocity": 85, "duration": 413}, {"note": 0, "velocity": 0, "duration": 67}, {"note": 76, "velocity": 88, "duration": 399}, {"note": 0, "velocity": 0, "duration": 81}, {"note": 74, "velocity": 92, "duration": 452}, {"note": 71, "velocity": 83, "duration": 199}, {"note": 67, "velocity": 84, "duration": 194}, {"note": 69, "velocity": 86, "duration": 927}, {"note": 0, "velocity": 0, "duration": 513}, {"note": 67, "velocity": 86, "duration": 221}, {"note": 64, "velocity": 92, "duration": 207}, {"note": 69, "velocity": 82, "duration": 1440}, {"note": 72, "velocity": 87, "duration": 255}, {"note": 71, "velocity": 82, "duration": 242}, {"note": 69, "velocity": 82, "duration": 1165}, {"note": 0, "velocity": 0, "duration": 15875}, {"note": 69, "velocity": 85, "duration": 76}, {"note": 71, "velocity": 92, "duration": 85}, {"note": 72, "velocity": 83, "duration": 195}, {"note": 71, "velocity": 92, "duration": 90}, {"note": 69, "velocity": 81, "duration": 81}, {"note": 69, "velocity": 87, "duration": 186}, {"note": 71, "velocity": 82, "duration": 78}, {"note": 69, "velocity": 88, "duration": 647}, {"note": 0, "velocity": 0, "duration": 193}, {"note": 72, "velocity": 90, "duration": 69}, {"note": 74, "velocity": 95, "duration": 74}, {"note": 76, "velocity": 86, "duration": 184}, {"note": 74, "velocity": 98, "duration": 89}, {"note": 72, "velocity": 85, "duration": 84}, {"note": 71, "velocity": 82, "duration": 194}, {"note": 72, "velocity": 69, "duration": 79}, {"note": 71, "velocity": 95, "duration": 346}, {"note": 69, "velocity": 85, "duration": 321}, {"note": 0, "velocity": 0, "duration": 279}, {"note": 69, "velocity": 83, "duration": 98}, {"note": 71, "velocity": 86, "duration": 667}, {"note": 69, "velocity": 87, "duration": 270}, {"note": 67, "velocity": 77, "duration": 226}, {"note": 69, "velocity": 85, "duration": 72}, {"note": 71, "velocity": 82, "duration": 339}, {"note": 67, "velocity": 83, "duration": 252}, {"note": 64, "velocity": 82, "duration": 480}, {"note": 62, "velocity": 83, "duration": 208}, {"note": 64, "velocity": 83, "duration": 115}, {"note": 0, "velocity": 0, "duration": 125}, {"note": 64, "velocity": 82, "duration": 576}, {"note": 0, "velocity": 0, "duration": 144}, {"note": 69, "velocity": 85, "duration": 76}, {"note": 71, "velocity": 92, "duration": 85}, {"note": 72, "velocity": 83, "duration": 195}, {"note": 71, "velocity": 92, "duration": 90}, {"note": 69, "velocity": 81, "duration": 81}, {"note": 69, "velocity": 87, "duration": 186}, {"note": 71, "velocity": 82, "duration": 78}, {"note": 69, "velocity": 88, "duration": 647}, {"note": 0, "velocity": 0, "duration": 193}, {"note": 72, "velocity": 90, "duration": 69}, {"note": 74, "velocity": 95, "duration": 74}, {"note": 76, "velocity": 86, "duration": 184}, {"note": 74, "velocity": 98, "duration": 89}, {"note": 72, "velocity": 85, "duration": 84}, {"note": 71, "velocity": 82, "duration": 194}, {"note": 72, "velocity": 69, "duration": 79}, {"note": 71, "velocity": 95, "duration": 346}, {"note": 69, "velocity": 85, "duration": 321}, {"note": 0, "velocity": 0, "duration": 399}, {"note": 74, "velocity": 98, "duration": 165}, {"note": 0, "velocity": 0, "duration": 75}, {"note": 74, "velocity": 98, "duration": 137}, {"note": 0, "velocity": 0, "duration": 103}, {"note": 74, "velocity": 98, "duration": 181}, {"note": 76, "velocity": 90, "duration": 165}, {"note": 0, "velocity": 0, "duration": 75}, {"note": 77, "velocity": 86, "duration": 223}, {"note": 76, "velocity": 86, "duration": 211}, {"note": 74, "velocity": 95, "duration": 188}, {"note": 72, "velocity": 83, "duration": 218}, {"note": 77, "velocity": 84, "duration": 173}, {"note": 0, "velocity": 0, "duration": 67}, {"note": 76, "velocity": 88, "duration": 198}, {"note": 74, "velocity": 97, "duration": 191}, {"note": 77, "velocity": 83, "duration": 75}, {"note": 76, "velocity": 97, "duration": 804}, {"note": 0, "velocity": 0, "duration": 156}, {"note": 76, "velocity": 92, "duration": 89}, {"note": 81, "velocity": 87, "duration": 157}, {"note": 0, "velocity": 0, "duration": 83}, {"note": 81, "velocity": 86, "duration": 142}, {"note": 0, "velocity": 0, "duration": 98}, {"note": 81, "velocity": 88, "duration": 190}, {"note": 76, "velocity": 92, "duration": 184}, {"note": 74, "velocity": 95, "duration": 524}, {"note": 0, "velocity": 0, "duration": 316}, {"note": 74, "velocity": 95, "duration": 86}, {"note": 79, "velocity": 83, "duration": 146}, {"note": 0, "velocity": 0, "duration": 94}, {"note": 79, "velocity": 87, "duration": 117}, {"note": 0, "velocity": 0, "duration": 123}, {"note": 79, "velocity": 92, "duration": 159}, {"note": 0, "velocity": 0, "duration": 81}, {"note": 74, "velocity": 90, "duration": 84}, {"note": 76, "velocity": 86, "duration": 592}, {"note": 74, "velocity": 97, "duration": 79}, {"note": 72, "velocity": 88, "duration": 302}, {"note": 81, "velocity": 87, "duration": 169}, {"note": 0, "velocity": 0, "duration": 71}, {"note": 81, "velocity": 85, "duration": 139}, {"note": 0, "velocity": 0, "duration": 101}, {"note": 81, "velocity": 88, "duration": 185}, {"note": 76, "velocity": 88, "duration": 192}, {"note": 74, "velocity": 95, "duration": 532}, {"note": 0, "velocity": 0, "duration": 308}, {"note": 74, "velocity": 92, "duration": 101}, {"note": 79, "velocity": 87, "duration": 162}, {"note": 0, "velocity": 0, "duration": 78}, {"note": 79, "velocity": 85, "duration": 137}, {"note": 0, "velocity": 0, "duration": 103}, {"note": 79, "velocity": 85, "duration": 193}, {"note": 74, "velocity": 90, "duration": 184}, {"note": 76, "velocity": 85, "duration": 513}, {"note": 0, "velocity": 0, "duration": 207}, {"note": 74, "velocity": 88, "duration": 69}, {"note": 76, "velocity": 88, "duration": 68}, {"note": 77, "velocity": 83, "duration": 168}, {"note": 0, "velocity": 0, "duration": 72}, {"note": 76, "velocity": 90, "duration": 154}, {"note": 0, "velocity": 0, "duration": 86}, {"note": 74, "velocity": 92, "duration": 393}, {"note": 0, "velocity": 0, "duration": 87}, {"note": 76, "velocity": 85, "duration": 168}, {"note": 0, "velocity": 0, "duration": 72}, {"note": 74, "velocity": 85, "duration": 220}, {"note": 72, "velocity": 85, "duration": 246}, {"note": 74, "velocity": 90, "duration": 64}, {"note": 76, "velocity": 88, "duration": 68}, {"note": 77, "velocity": 85, "duration": 176}, {"note": 0, "velocity": 0, "duration": 64}, {"note": 76, "velocity": 97, "duration": 151}, {"note": 0, "velocity": 0, "duration": 89}, {"note": 74, "velocity": 98, "duration": 240}, {"note": 77, "velocity": 81, "duration": 173}, {"note": 0, "velocity": 0, "duration": 67}, {"note": 76, "velocity": 88, "duration": 165}, {"note": 0, "velocity": 0, "duration": 75}, {"note": 76, "velocity": 86, "duration": 158}, {"note": 0, "velocity": 0, "duration": 82}, {"note": 76, "velocity": 85, "duration": 153}, {"note": 0, "velocity": 0, "duration": 87}, {"note": 76, "velocity": 83, "duration": 174}, {"note": 0, "velocity": 0, "duration": 66}, {"note": 76, "velocity": 86, "duration": 180}, {"note": 0, "velocity": 0, "duration": 1260}, {"note": 76, "velocity": 87, "duration": 407}, {"note": 0, "velocity": 0, "duration": 73}, {"note": 74, "velocity": 87, "duration": 518}, {"note": 0, "velocity": 0, "duration": 322}, {"note": 76, "velocity": 92, "duration": 89}, {"note": 81, "velocity": 87, "duration": 157}, {"note": 0, "velocity": 0, "duration": 83}, {"note": 81, "velocity": 86, "duration": 142}, {"note": 0, "velocity": 0, "duration": 98}, {"note": 81, "velocity": 88, "duration": 190}, {"note": 76, "velocity": 92, "duration": 184}, {"note": 74, "velocity": 95, "duration": 524}, {"note": 0, "velocity": 0, "duration": 316}, {"note": 74, "velocity": 95, "duration": 86}, {"note": 79, "velocity": 83, "duration": 146}, {"note": 0, "velocity": 0, "duration": 94}, {"note": 79, "velocity": 87, "duration": 117}, {"note": 0, "velocity": 0, "duration": 123}, {"note": 79, "velocity": 92, "duration": 159}, {"note": 0, "velocity": 0, "duration": 81}, {"note": 74, "velocity": 90, "duration": 84}, {"note": 76, "velocity": 86, "duration": 592}, {"note": 74, "velocity": 97, "duration": 79}, {"note": 72, "velocity": 88, "duration": 302}, {"note": 81, "velocity": 87, "duration": 169}, {"note": 0, "velocity": 0, "duration": 71}, {"note": 81, "velocity": 85, "duration": 139}, {"note": 0, "velocity": 0, "duration": 101}, {"note": 81, "velocity": 88, "duration": 185}, {"note": 76, "velocity": 88, "duration": 192}, {"note": 74, "velocity": 95, "duration": 532}, {"note": 0, "velocity": 0, "duration": 308}, {"note": 74, "velocity": 92, "duration": 101}, {"note": 79, "velocity": 87, "duration": 162}, {"note": 0, "velocity": 0, "duration": 78}, {"note": 79, "velocity": 85, "duration": 137}, {"note": 0, "velocity": 0, "duration": 103}, {"note": 79, "velocity": 85, "duration": 193}, {"note": 74, "velocity": 90, "duration": 184}, {"note": 76, "velocity": 85, "duration": 513}, {"note": 0, "velocity": 0, "duration": 207}, {"note": 74, "velocity": 88, "duration": 69}, {"note": 76, "velocity": 88, "duration": 68}, {"note": 77, "velocity": 83, "duration": 168}, {"note": 0, "velocity": 0, "duration": 72}, {"note": 76, "velocity": 90, "duration": 154}, {"note": 0, "velocity": 0, "duration": 86}, {"note": 74, "velocity": 92, "duration": 393}, {"note": 0, "velocity": 0, "duration": 87}, {"note": 76, "velocity": 85, "duration": 168}, {"note": 0, "velocity": 0, "duration": 72}, {"note": 74, "velocity": 85, "duration": 220}, {"note": 72, "velocity": 85, "duration": 246}, {"note": 74, "velocity": 90, "duration": 64}, {"note": 76, "velocity": 88, "duration": 68}, {"note": 77, "velocity": 85, "duration": 176}, {"note": 0, "velocity": 0, "duration": 64}, {"note": 76, "velocity": 97, "duration": 151}, {"note": 0, "velocity": 0, "duration": 89}, {"note": 74, "velocity": 98, "duration": 240}, {"note": 77, "velocity": 81, "duration": 173}, {"note": 0, "velocity": 0, "duration": 67}, {"note": 76, "velocity": 88, "duration": 165}, {"note": 0, "velocity": 0, "duration": 75}, {"note": 76, "velocity": 86, "duration": 158}, {"note": 0, "velocity": 0, "duration": 82}, {"note": 76, "velocity": 85, "duration": 153}, {"note": 0, "velocity": 0, "duration": 87}, {"note": 76, "velocity": 83, "duration": 174}, {"note": 0, "velocity": 0, "duration": 66}, {"note": 76, "velocity": 86, "duration": 180}, {"note": 74, "velocity": 24, "duration": 201}, {"note": 72, "velocity": 85, "duration": 179}, {"note": 0, "velocity": 0, "duration": 61}, {"note": 71, "velocity": 83, "duration": 233}, {"note": 69, "velocity": 82, "duration": 431}, {"note": 76, "velocity": 87, "duration": 407}, {"note": 0, "velocity": 0, "duration": 73}, {"note": 74, "velocity": 87, "duration": 518}, {"note": 71, "velocity": 80, "duration": 207}, {"note": 67, "velocity": 84, "duration": 194}, {"note": 69, "velocity": 85, "duration": 413}, {"note": 0, "velocity": 0, "duration": 67}, {"note": 76, "velocity": 88, "duration": 399}, {"note": 0, "velocity": 0, "duration": 81}, {"note": 74, "velocity": 92, "duration": 452}, {"note": 71, "velocity": 83, "duration": 199}, {"note": 67, "velocity": 84, "duration": 194}, {"note": 69, "velocity": 86, "duration": 927}, {"note": 0, "velocity": 0, "duration": 513}, {"note": 67, "velocity": 86, "duration": 221}, {"note": 64, "velocity": 92, "duration": 207}, {"note": 69, "velocity": 82, "duration": 1440}, {"note": 72, "velocity": 87, "duration": 255}, {"note": 71, "velocity": 82, "duration": 242}, {"note": 69, "velocity": 82, "duration": 1165}]]