[[{"note": 68, "velocity": 89, "duration": 279}, {"note": 68, "velocity": 89, "duration": 114}, {"note": 68, "velocity": 91, "duration": 117}, {"note": 70, "velocity": 88, "duration": 120}, {"note": 71, "velocity": 88, "duration": 124}, {"note": 75, "velocity": 86, "duration": 824}, {"note": 0, "velocity": 0, "duration": 136}, {"note": 73, "velocity": 94, "duration": 252}, {"note": 0, "velocity": 0, "duration": 68}, {"note": 73, "velocity": 93, "duration": 93}, {"note": 0, "velocity": 0, "duration": 67}, {"note": 73, "velocity": 94, "duration": 83}, {"note": 0, "velocity": 0, "duration": 77}, {"note": 73, "velocity": 94, "duration": 128}, {"note": 71, "velocity": 98, "duration": 331}, {"note": 68, "velocity": 88, "duration": 705}, {"note": 0, "velocity": 0, "duration": 95}, {"note": 66, "velocity": 88, "duration": 102}, {"note": 66, "velocity": 89, "duration": 107}, {"note": 66, "velocity": 89, "duration": 109}, {"note": 66, "velocity": 87, "duration": 97}, {"note": 0, "velocity": 0, "duration": 63}, {"note": 66, "velocity": 83, "duration": 103}, {"note": 68, "velocity": 88, "duration": 114}, {"note": 70, "velocity": 85, "duration": 290}, {"note": 68, "velocity": 89, "duration": 425}, {"note": 66, "velocity": 87, "duration": 143}, {"note": 63, "velocity": 78, "duration": 1403}, {"note": 0, "velocity": 0, "duration": 517}, {"note": 68, "velocity": 89, "duration": 279}, {"note": 68, "velocity": 89, "duration": 114}, {"note": 68, "velocity": 91, "duration": 117}, {"note": 70, "velocity": 88, "duration": 120}, {"note": 71, "velocity": 88, "duration": 124}, {"note": 75, "velocity": 86, "duration": 824}, {"note": 0, "velocity": 0, "duration": 136}, {"note": 73, "velocity": 94, "duration": 252}, {"note": 0, "velocity": 0, "duration": 68}, {"note": 73, "velocity": 93, "duration": 93}, {"note": 0, "velocity": 0, "duration": 67}, {"note": 73, "velocity": 94, "duration": 83}, {"note": 0, "velocity": 0, "duration": 77}, {"note": 73, "velocity": 94, "duration": 128}, {"note": 71, "velocity": 98, "duration": 176}, {"note": 73, "velocity": 88, "duration": 705}, {"note": 0, "velocity": 0, "duration": 260}, {"note": 66, "velocity": 88, "duration": 102}, {"note": 66, "velocity": 89, "duration": 107}, {"note": 66, "velocity": 89, "duration": 109}, {"note": 66, "velocity": 87, "duration": 97}, {"note": 0, "velocity": 0, "duration": 63}, {"note": 68, "velocity": 83, "duration": 103}, {"note": 70, "velocity": 88, "duration": 114}, {"note": 70, "velocity": 85, "duration": 290}, {"note": 66, "velocity": 89, "duration": 425}, {"note": 70, "velocity": 87, "duration": 143}, {"note": 68, "velocity": 78, "duration": 1403}, {"note": 0, "velocity": 0, "duration": 517}, {"note": 73, "velocity": 89, "duration": 115}, {"note": 73, "velocity": 93, "duration": 106}, {"note": 73, "velocity": 96, "duration": 112}, {"note": 73, "velocity": 93, "duration": 103}, {"note": 73, "velocity": 98, "duration": 128}, {"note": 71, "velocity": 96, "duration": 191}, {"note": 68, "velocity": 88, "duration": 767}, {"note": 0, "velocity": 0, "duration": 193}, {"note": 66, "velocity": 89, "duration": 103}, {"note": 66, "velocity": 88, "duration": 116}, {"note": 66, "velocity": 88, "duration": 109}, {"note": 66, "velocity": 91, "duration": 122}, {"note": 68, "velocity": 91, "duration": 131}, {"note": 70, "velocity": 87, "duration": 149}, {"note": 68, "velocity": 91, "duration": 921}, {"note": 73, "velocity": 92, "duration": 101}, {"note": 73, "velocity": 93, "duration": 112}, {"note": 73, "velocity": 98, "duration": 111}, {"note": 73, "velocity": 98, "duration": 106}, {"note": 73, "velocity": 98, "duration": 123}, {"note": 71, "velocity": 91, "duration": 116}, {"note": 73, "velocity": 94, "duration": 743}, {"note": 0, "velocity": 0, "duration": 217}, {"note": 78, "velocity": 87, "duration": 105}, {"note": 78, "velocity": 89, "duration": 104}, {"note": 78, "velocity": 91, "duration": 103}, {"note": 78, "velocity": 93, "duration": 118}, {"note": 75, "velocity": 89, "duration": 120}, {"note": 73, "velocity": 94, "duration": 126}, {"note": 75, "velocity": 91, "duration": 2044}, {"note": 0, "velocity": 0, "duration": 356}, {"note": 75, "velocity": 101, "duration": 120}, {"note": 78, "velocity": 91, "duration": 106}, {"note": 80, "velocity": 89, "duration": 117}, {"note": 80, "velocity": 92, "duration": 373}, {"note": 0, "velocity": 0, "duration": 107}, {"note": 75, "velocity": 96, "duration": 129}, {"note": 78, "velocity": 89, "duration": 108}, {"note": 80, "velocity": 89, "duration": 106}, {"note": 80, "velocity": 89, "duration": 390}, {"note": 0, "velocity": 0, "duration": 90}, {"note": 75, "velocity": 96, "duration": 104}, {"note": 78, "velocity": 92, "duration": 123}, {"note": 80, "velocity": 89, "duration": 123}, {"note": 78, "velocity": 96, "duration": 139}, {"note": 75, "velocity": 92, "duration": 106}, {"note": 73, "velocity": 98, "duration": 137}, {"note": 75, "velocity": 90, "duration": 882}, {"note": 0, "velocity": 0, "duration": 78}, {"note": 68, "velocity": 90, "duration": 119}, {"note": 71, "velocity": 93, "duration": 115}, {"note": 73, "velocity": 91, "duration": 109}, {"note": 73, "velocity": 98, "duration": 422}, {"note": 68, "velocity": 91, "duration": 129}, {"note": 71, "velocity": 91, "duration": 103}, {"note": 73, "velocity": 94, "duration": 108}, {"note": 73, "velocity": 94, "duration": 404}, {"note": 0, "velocity": 0, "duration": 76}, {"note": 73, "velocity": 94, "duration": 142}, {"note": 71, "velocity": 91, "duration": 132}, {"note": 73, "velocity": 94, "duration": 132}, {"note": 78, "velocity": 91, "duration": 128}, {"note": 75, "velocity": 91, "duration": 143}, {"note": 73, "velocity": 92, "duration": 141}, {"note": 75, "velocity": 89, "duration": 897}, {"note": 0, "velocity": 0, "duration": 63}, {"note": 75, "velocity": 91, "duration": 134}, {"note": 78, "velocity": 89, "duration": 111}, {"note": 80, "velocity": 89, "duration": 102}, {"note": 80, "velocity": 92, "duration": 471}, {"note": 75, "velocity": 96, "duration": 124}, {"note": 78, "velocity": 91, "duration": 106}, {"note": 80, "velocity": 89, "duration": 111}, {"note": 80, "velocity": 88, "duration": 467}, {"note": 75, "velocity": 89, "duration": 119}, {"note": 78, "velocity": 93, "duration": 106}, {"note": 80, "velocity": 91, "duration": 136}, {"note": 78, "velocity": 96, "duration": 194}, {"note": 75, "velocity": 91, "duration": 126}, {"note": 73, "velocity": 98, "duration": 120}, {"note": 75, "velocity": 90, "duration": 868}, {"note": 0, "velocity": 0, "duration": 92}, {"note": 68, "velocity": 93, "duration": 128}, {"note": 71, "velocity": 92, "duration": 106}, {"note": 73, "velocity": 91, "duration": 106}, {"note": 73, "velocity": 94, "duration": 451}, {"note": 68, "velocity": 93, "duration": 124}, {"note": 71, "velocity": 91, "duration": 105}, {"note": 75, "velocity": 94, "duration": 109}, {"note": 73, "velocity": 101, "duration": 414}, {"note": 0, "velocity": 0, "duration": 66}, {"note": 73, "velocity": 94, "duration": 123}, {"note": 71, "velocity": 94, "duration": 100}, {"note": 73, "velocity": 94, "duration": 103}, {"note": 75, "velocity": 96, "duration": 247}, {"note": 0, "velocity": 0, "duration": 73}, {"note": 78, "velocity": 91, "duration": 138}, {"note": 66, "velocity": 89, "duration": 299}, {"note": 68, "velocity": 87, "duration": 1236}, {"note": 0, "velocity": 0, "duration": 15724}, {"note": 68, "velocity": 89, "duration": 279}, {"note": 68, "velocity": 89, "duration": 114}, {"note": 68, "velocity": 91, "duration": 117}, {"note": 70, "velocity": 88, "duration": 120}, {"note": 71, "velocity": 88, "duration": 124}, {"note": 75, "velocity": 86, "duration": 824}, {"note": 0, "velocity": 0, "duration": 136}, {"note": 73, "velocity": 94, "duration": 252}, {"note": 0, "velocity": 0, "duration": 68}, {"note": 73, "velocity": 93, "duration": 93}, {"note": 0, "velocity": 0, "duration": 67}, {"note": 73, "velocity": 94, "duration": 83}, {"note": 0, "velocity": 0, "duration": 77}, {"note": 73, "velocity": 94, "duration": 128}, {"note": 71, "velocity": 98, "duration": 176}, {"note": 73, "velocity": 88, "duration": 705}, {"note": 0, "velocity": 0, "duration": 260}, {"note": 66, "velocity": 88, "duration": 102}, {"note": 66, "velocity": 89, "duration": 107}, {"note": 66, "velocity": 89, "duration": 109}, {"note": 66, "velocity": 87, "duration": 97}, {"note": 0, "velocity": 0, "duration": 63}, {"note": 68, "velocity": 83, "duration": 103}, {"note": 70, "velocity": 88, "duration": 114}, {"note": 70, "velocity": 85, "duration": 290}, {"note": 66, "velocity": 89, "duration": 425}, {"note": 70, "velocity": 87, "duration": 143}, {"note": 68, "velocity": 78, "duration": 1403}, {"note": 0, "velocity": 0, "duration": 517}, {"note": 73, "velocity": 89, "duration": 115}, {"note": 73, "velocity": 93, "duration": 106}, {"note": 73, "velocity": 96, "duration": 112}, {"note": 73, "velocity": 93, "duration": 103}, {"note": 73, "velocity": 98, "duration": 128}, {"note": 71, "velocity": 96, "duration": 191}, {"note": 68, "velocity": 88, "duration": 767}, {"note": 0, "velocity": 0, "duration": 193}, {"note": 66, "velocity": 89, "duration": 103}, {"note": 66, "velocity": 88, "duration": 116}, {"note": 66, "velocity": 88, "duration": 109}, {"note": 66, "velocity": 91, "duration": 122}, {"note": 68, "velocity": 91, "duration": 131}, {"note": 70, "velocity": 87, "duration": 149}, {"note": 68, "velocity": 91, "duration": 921}, {"note": 73, "velocity": 92, "duration": 101}, {"note": 73, "velocity": 93, "duration": 112}, {"note": 73, "velocity": 98, "duration": 111}, {"note": 73, "velocity": 98, "duration": 106}, {"note": 73, "velocity": 98, "duration": 123}, {"note": 71, "velocity": 91, "duration": 116}, {"note": 73, "velocity": 94, "duration": 743}, {"note": 0, "velocity": 0, "duration": 217}, {"note": 78, "velocity": 87, "duration": 105}, {"note": 78, "velocity": 89, "duration": 104}, {"note": 78, "velocity": 91, "duration": 103}, {"note": 78, "velocity": 93, "duration": 118}, {"note": 75, "velocity": 89, "duration": 120}, {"note": 73, "velocity": 94, "duration": 126}, {"note": 75, "velocity": 91, "duration": 2044}, {"note": 0, "velocity": 0, "duration": 356}, {"note": 75, "velocity": 101, "duration": 120}, {"note": 78, "velocity": 91, "duration": 106}, {"note": 80, "velocity": 89, "duration": 117}, {"note": 80, "velocity": 92, "duration": 373}, {"note": 0, "velocity": 0, "duration": 107}, {"note": 75, "velocity": 96, "duration": 129}, {"note": 78, "velocity": 89, "duration": 108}, {"note": 80, "velocity": 89, "duration": 106}, {"note": 80, "velocity": 89, "duration": 390}, {"note": 0, "velocity": 0, "duration": 90}, {"note": 75, "velocity": 96, "duration": 104}, {"note": 78, "velocity": 92, "duration": 123}, {"note": 80, "velocity": 89, "duration": 123}, {"note": 78, "velocity": 96, "duration": 139}, {"note": 75, "velocity": 92, "duration": 106}, {"note": 73, "velocity": 98, "duration": 137}, {"note": 75, "velocity": 90, "duration": 882}, {"note": 0, "velocity": 0, "duration": 78}, {"note": 68, "velocity": 90, "duration": 119}, {"note": 71, "velocity": 93, "duration": 115}, {"note": 73, "velocity": 91, "duration": 109}, {"note": 73, "velocity": 98, "duration": 422}, {"note": 68, "velocity": 91, "duration": 129}, {"note": 71, "velocity": 91, "duration": 103}, {"note": 73, "velocity": 94, "duration": 108}, {"note": 73, "velocity": 94, "duration": 404}, {"note": 0, "velocity": 0, "duration": 76}, {"note": 73, "velocity": 94, "duration": 142}, {"note": 71, "velocity": 91, "duration": 132}, {"note": 73, "velocity": 94, "duration": 132}, {"note": 78, "velocity": 91, "duration": 128}, {"note": 75, "velocity": 91, "duration": 143}, {"note": 73, "velocity": 92, "duration": 141}, {"note": 75, "velocity": 89, "duration": 897}, {"note": 0, "velocity": 0, "duration": 63}, {"note": 75, "velocity": 91, "duration": 134}, {"note": 78, "velocity": 89, "duration": 111}, {"note": 80, "velocity": 89, "duration": 102}, {"note": 80, "velocity": 92, "duration": 471}, {"note": 75, "velocity": 96, "duration": 124}, {"note": 78, "velocity": 91, "duration": 106}, {"note": 80, "velocity": 89, "duration": 111}, {"note": 80, "velocity": 88, "duration": 467}, {"note": 75, "velocity": 89, "duration": 119}, {"note": 78, "velocity": 93, "duration": 106}, {"note": 80, "velocity": 91, "duration": 136}, {"note": 78, "velocity": 96, "duration": 194}, {"note": 75, "velocity": 91, "duration": 126}, {"note": 73, "velocity": 98, "duration": 120}, {"note": 75, "velocity": 90, "duration": 868}, {"note": 0, "velocity": 0, "duration": 92}, {"note": 68, "velocity": 93, "duration": 128}, {"note": 71, "velocity": 92, "duration": 106}, {"note": 73, "velocity": 91, "duration": 106}, {"note": 73, "velocity": 94, "duration": 451}, {"note": 68, "velocity": 93, "duration": 124}, {"note": 71, "velocity": 91, "duration": 105}, {"note": 75, "velocity": 94, "duration": 109}, {"note": 73, "velocity": 101, "duration": 414}, {"note": 0, "velocity": 0, "duration": 66}, {"note": 73, "velocity": 94, "duration": 123}, {"note": 71, "velocity": 94, "duration": 100}, {"note": 73, "velocity": 94, "duration": 103}, {"note": 75, "velocity": 96, "duration": 247}, {"note": 0, "velocity": 0, "duration": 73}, {"note": 78, "velocity": 91, "duration": 138}, {"note": 66, "velocity": 89, "duration": 299}, {"note": 68, "velocity": 87, "duration": 1120}, {"note": 75, "velocity": 101, "duration": 120}, {"note": 78, "velocity": 91, "duration": 106}, {"note": 80, "velocity": 89, "duration": 117}, {"note": 80, "velocity": 92, "duration": 373}, {"note": 0, "velocity": 0, "duration": 107}, {"note": 75, "velocity": 96, "duration": 129}, {"note": 78, "velocity": 89, "duration": 108}, {"note": 80, "velocity": 89, "duration": 106}, {"note": 80, "velocity": 89, "duration": 390}, {"note": 0, "velocity": 0, "duration": 90}, {"note": 75, "velocity": 96, "duration": 104}, {"note": 78, "velocity": 92, "duration": 123}, {"note": 80, "velocity": 89, "duration": 123}, {"note": 78, "velocity": 96, "duration": 139}, {"note": 75, "velocity": 92, "duration": 106}, {"note": 73, "velocity": 98, "duration": 137}, {"note": 75, "velocity": 90, "duration": 882}, {"note": 0, "velocity": 0, "duration": 78}, {"note": 68, "velocity": 90, "duration": 119}, {"note": 71, "velocity": 93, "duration": 115}, {"note": 73, "velocity": 91, "duration": 109}, {"note": 73, "velocity": 98, "duration": 422}, {"note": 68, "velocity": 91, "duration": 129}, {"note": 71, "velocity": 91, "duration": 103}, {"note": 73, "velocity": 94, "duration": 108}, {"note": 73, "velocity": 94, "duration": 404}, {"note": 0, "velocity": 0, "duration": 76}, {"note": 73, "velocity": 94, "duration": 142}, {"note": 71, "velocity": 91, "duration": 132}, {"note": 73, "velocity": 94, "duration": 132}, {"note": 78, "velocity": 91, "duration": 128}, {"note": 75, "velocity": 91, "duration": 143}, {"note": 73, "velocity": 92, "duration": 141}, {"note": 75, "velocity": 89, "duration": 897}, {"note": 0, "velocity": 0, "duration": 63}, {"note": 75, "velocity": 91, "duration": 134}, {"note": 78, "velocity": 89, "duration": 111}, {"note": 80, "velocity": 89, "duration": 102}, {"note": 80, "velocity": 92, "duration": 471}, {"note": 75, "velocity": 96, "duration": 124}, {"note": 78, "velocity": 91, "duration": 106}, {"note": 80, "velocity": 89, "duration": 111}, {"note": 80, "velocity": 88, "duration": 467}, {"note": 75, "velocity": 89, "duration": 119}, {"note": 78, "velocity": 93, "duration": 106}, {"note": 80, "velocity": 91, "duration": 136}, {"note": 78, "velocity": 96, "duration": 194}, {"note": 75, "velocity": 91, "duration": 126}, {"note": 73, "velocity": 98, "duration": 120}, {"note": 75, "velocity": 90, "duration": 868}, {"note": 0, "velocity": 0, "duration": 92}, {"note": 68, "velocity": 93, "duration": 128}, {"note": 71, "velocity": 92, "duration": 106}, {"note": 73, "velocity": 91, "duration": 106}, {"note": 73, "velocity": 94, "duration": 451}, {"note": 68, "velocity": 93, "duration": 124}, {"note": 71, "velocity": 91, "duration": 105}, {"note": 75, "velocity": 94, "duration": 109}, {"note": 73, "velocity": 101, "duration": 414}, {"note": 0, "velocity": 0, "duration": 66}, {"note": 73, "velocity": 94, "duration": 123}, {"note": 71, "velocity": 94, "duration": 100}, {"note": 73, "velocity": 94, "duration": 103}, {"note": 75, "velocity": 96, "duration": 247}, {"note": 0, "velocity": 0, "duration": 73}, {"note": 78, "velocity": 91, "duration": 138}, {"note": 66, "velocity": 89, "duration": 299}, {"note": 68, "velocity": 87, "duration": 1120}, {"note": 68, "velocity": 94, "duration": 273}, {"note": 71, "velocity": 93, "duration": 162}, {"note": 73, "velocity": 90, "duration": 123}, {"note": 73, "velocity": 91, "duration": 534}, {"note": 68, "velocity": 91, "duration": 233}, {"note": 71, "velocity": 94, "duration": 159}, {"note": 75, "velocity": 92, "duration": 214}, {"note": 73, "velocity": 92, "duration": 461}, {"note": 0, "velocity": 0, "duration": 142}, {"note": 73, "velocity": 93, "duration": 310}, {"note": 71, "velocity": 87, "duration": 265}, {"note": 73, "velocity": 92, "duration": 262}, {"note": 75, "velocity": 88, "duration": 320}, {"note": 78, "velocity": 89, "duration": 1215}, {"note": 0, "velocity": 0, "duration": 537}, {"note": 66, "velocity": 86, "duration": 579}, {"note": 68, "velocity": 89, "duration": 1789}, {"note": 0, "velocity": 0, "duration": 574}, {"note": 78, "velocity": 87, "duration": 1591}, {"note": 0, "velocity": 0, "duration": 575}, {"note": 80, "velocity": 80, "duration": 1235}]]