[[{"note": 65, "velocity": 88, "duration": 206}, {"note": 70, "velocity": 77, "duration": 151}, {"note": 0, "velocity": 0, "duration": 89}, {"note": 70, "velocity": 78, "duration": 135}, {"note": 0, "velocity": 0, "duration": 105}, {"note": 70, "velocity": 78, "duration": 191}, {"note": 68, "velocity": 75, "duration": 194}, {"note": 70, "velocity": 77, "duration": 195}, {"note": 73, "velocity": 76, "duration": 184}, {"note": 72, "velocity": 73, "duration": 191}, {"note": 70, "velocity": 77, "duration": 1642}, {"note": 0, "velocity": 0, "duration": 278}, {"note": 65, "velocity": 85, "duration": 190}, {"note": 70, "velocity": 75, "duration": 156}, {"note": 0, "velocity": 0, "duration": 84}, {"note": 70, "velocity": 75, "duration": 132}, {"note": 0, "velocity": 0, "duration": 108}, {"note": 70, "velocity": 77, "duration": 164}, {"note": 0, "velocity": 0, "duration": 76}, {"note": 63, "velocity": 75, "duration": 191}, {"note": 65, "velocity": 75, "duration": 178}, {"note": 0, "velocity": 0, "duration": 62}, {"note": 68, "velocity": 74, "duration": 192}, {"note": 67, "velocity": 77, "duration": 229}, {"note": 65, "velocity": 78, "duration": 1559}, {"note": 0, "velocity": 0, "duration": 361}, {"note": 65, "velocity": 85, "duration": 607}, {"note": 0, "velocity": 0, "duration": 113}, {"note": 73, "velocity": 71, "duration": 160}, {"note": 0, "velocity": 0, "duration": 80}, {"note": 68, "velocity": 71, "duration": 240}, {"note": 70, "velocity": 65, "duration": 199}, {"note": 73, "velocity": 75, "duration": 433}, {"note": 68, "velocity": 66, "duration": 265}, {"note": 70, "velocity": 70, "duration": 216}, {"note": 68, "velocity": 71, "duration": 256}, {"note": 66, "velocity": 71, "duration": 241}, {"note": 65, "velocity": 71, "duration": 720}, {"note": 0, "velocity": 0, "duration": 240}, {"note": 63, "velocity": 72, "duration": 167}, {"note": 0, "velocity": 0, "duration": 73}, {"note": 63, "velocity": 70, "duration": 166}, {"note": 0, "velocity": 0, "duration": 74}, {"note": 63, "velocity": 75, "duration": 165}, {"note": 0, "velocity": 0, "duration": 75}, {"note": 58, "velocity": 76, "duration": 177}, {"note": 0, "velocity": 0, "duration": 63}, {"note": 68, "velocity": 74, "duration": 169}, {"note": 0, "velocity": 0, "duration": 71}, {"note": 67, "velocity": 75, "duration": 179}, {"note": 0, "velocity": 0, "duration": 61}, {"note": 65, "velocity": 72, "duration": 172}, {"note": 0, "velocity": 0, "duration": 68}, {"note": 63, "velocity": 73, "duration": 212}, {"note": 65, "velocity": 73, "duration": 1698}, {"note": 0, "velocity": 0, "duration": 222}, {"note": 65, "velocity": 88, "duration": 206}, {"note": 70, "velocity": 77, "duration": 151}, {"note": 0, "velocity": 0, "duration": 89}, {"note": 70, "velocity": 78, "duration": 135}, {"note": 0, "velocity": 0, "duration": 105}, {"note": 70, "velocity": 78, "duration": 191}, {"note": 68, "velocity": 75, "duration": 194}, {"note": 70, "velocity": 77, "duration": 195}, {"note": 73, "velocity": 76, "duration": 184}, {"note": 72, "velocity": 73, "duration": 191}, {"note": 70, "velocity": 77, "duration": 1642}, {"note": 0, "velocity": 0, "duration": 278}, {"note": 65, "velocity": 85, "duration": 190}, {"note": 70, "velocity": 75, "duration": 156}, {"note": 0, "velocity": 0, "duration": 84}, {"note": 70, "velocity": 75, "duration": 132}, {"note": 0, "velocity": 0, "duration": 108}, {"note": 70, "velocity": 77, "duration": 164}, {"note": 0, "velocity": 0, "duration": 76}, {"note": 63, "velocity": 75, "duration": 191}, {"note": 65, "velocity": 75, "duration": 178}, {"note": 0, "velocity": 0, "duration": 62}, {"note": 68, "velocity": 74, "duration": 192}, {"note": 67, "velocity": 77, "duration": 229}, {"note": 65, "velocity": 78, "duration": 1559}, {"note": 0, "velocity": 0, "duration": 361}, {"note": 65, "velocity": 85, "duration": 607}, {"note": 0, "velocity": 0, "duration": 113}, {"note": 73, "velocity": 71, "duration": 160}, {"note": 0, "velocity": 0, "duration": 80}, {"note": 68, "velocity": 71, "duration": 240}, {"note": 70, "velocity": 65, "duration": 199}, {"note": 73, "velocity": 75, "duration": 433}, {"note": 68, "velocity": 66, "duration": 265}, {"note": 70, "velocity": 70, "duration": 216}, {"note": 70, "velocity": 71, "duration": 256}, {"note": 68, "velocity": 71, "duration": 241}, {"note": 65, "velocity": 71, "duration": 240}, {"note": 63, "velocity": 71, "duration": 240}, {"note": 61, "velocity": 71, "duration": 480}, {"note": 75, "velocity": 78, "duration": 139}, {"note": 0, "velocity": 0, "duration": 101}, {"note": 75, "velocity": 82, "duration": 128}, {"note": 0, "velocity": 0, "duration": 112}, {"note": 75, "velocity": 85, "duration": 187}, {"note": 73, "velocity": 76, "duration": 185}, {"note": 72, "velocity": 87, "duration": 196}, {"note": 70, "velocity": 76, "duration": 181}, {"note": 68, "velocity": 77, "duration": 434}, {"note": 70, "velocity": 77, "duration": 2992}, {"note": 0, "velocity": 0, "duration": 848}, {"note": 70, "velocity": 82, "duration": 182}, {"note": 77, "velocity": 78, "duration": 153}, {"note": 0, "velocity": 0, "duration": 87}, {"note": 77, "velocity": 77, "duration": 140}, {"note": 0, "velocity": 0, "duration": 100}, {"note": 77, "velocity": 77, "duration": 142}, {"note": 0, "velocity": 0, "duration": 98}, {"note": 77, "velocity": 82, "duration": 599}, {"note": 0, "velocity": 0, "duration": 121}, {"note": 73, "velocity": 77, "duration": 182}, {"note": 75, "velocity": 80, "duration": 1799}, {"note": 0, "velocity": 0, "duration": 121}, {"note": 75, "velocity": 76, "duration": 134}, {"note": 0, "velocity": 0, "duration": 106}, {"note": 75, "velocity": 76, "duration": 131}, {"note": 0, "velocity": 0, "duration": 109}, {"note": 75, "velocity": 82, "duration": 147}, {"note": 0, "velocity": 0, "duration": 93}, {"note": 77, "velocity": 78, "duration": 164}, {"note": 0, "velocity": 0, "duration": 76}, {"note": 72, "velocity": 78, "duration": 198}, {"note": 70, "velocity": 75, "duration": 169}, {"note": 0, "velocity": 0, "duration": 71}, {"note": 68, "velocity": 75, "duration": 438}, {"note": 70, "velocity": 75, "duration": 1598}, {"note": 0, "velocity": 0, "duration": 322}, {"note": 70, "velocity": 77, "duration": 556}, {"note": 0, "velocity": 0, "duration": 164}, {"note": 75, "velocity": 68, "duration": 168}, {"note": 0, "velocity": 0, "duration": 72}, {"note": 75, "velocity": 73, "duration": 480}, {"note": 73, "velocity": 72, "duration": 212}, {"note": 70, "velocity": 75, "duration": 240}, {"note": 68, "velocity": 73, "duration": 240}, {"note": 70, "velocity": 72, "duration": 206}, {"note": 68, "velocity": 74, "duration": 455}, {"note": 65, "velocity": 77, "duration": 833}, {"note": 0, "velocity": 0, "duration": 127}, {"note": 75, "velocity": 78, "duration": 299}, {"note": 0, "velocity": 0, "duration": 181}, {"note": 75, "velocity": 80, "duration": 416}, {"note": 0, "velocity": 0, "duration": 64}, {"note": 73, "velocity": 73, "duration": 225}, {"note": 70, "velocity": 73, "duration": 243}, {"note": 73, "velocity": 73, "duration": 265}, {"note": 75, "velocity": 77, "duration": 296}, {"note": 77, "velocity": 75, "duration": 1814}, {"note": 0, "velocity": 0, "duration": 106}, {"note": 70, "velocity": 82, "duration": 182}, {"note": 77, "velocity": 78, "duration": 153}, {"note": 0, "velocity": 0, "duration": 87}, {"note": 77, "velocity": 77, "duration": 140}, {"note": 0, "velocity": 0, "duration": 100}, {"note": 77, "velocity": 77, "duration": 142}, {"note": 0, "velocity": 0, "duration": 98}, {"note": 77, "velocity": 82, "duration": 599}, {"note": 0, "velocity": 0, "duration": 121}, {"note": 73, "velocity": 77, "duration": 182}, {"note": 75, "velocity": 80, "duration": 1799}, {"note": 0, "velocity": 0, "duration": 121}, {"note": 75, "velocity": 76, "duration": 134}, {"note": 0, "velocity": 0, "duration": 106}, {"note": 75, "velocity": 76, "duration": 131}, {"note": 0, "velocity": 0, "duration": 109}, {"note": 75, "velocity": 82, "duration": 147}, {"note": 0, "velocity": 0, "duration": 93}, {"note": 77, "velocity": 78, "duration": 164}, {"note": 0, "velocity": 0, "duration": 76}, {"note": 72, "velocity": 78, "duration": 198}, {"note": 70, "velocity": 75, "duration": 169}, {"note": 0, "velocity": 0, "duration": 71}, {"note": 68, "velocity": 75, "duration": 438}, {"note": 70, "velocity": 75, "duration": 1598}, {"note": 0, "velocity": 0, "duration": 322}, {"note": 70, "velocity": 77, "duration": 556}, {"note": 0, "velocity": 0, "duration": 164}, {"note": 75, "velocity": 68, "duration": 168}, {"note": 0, "velocity": 0, "duration": 72}, {"note": 75, "velocity": 73, "duration": 480}, {"note": 73, "velocity": 72, "duration": 212}, {"note": 70, "velocity": 75, "duration": 240}, {"note": 68, "velocity": 73, "duration": 240}, {"note": 70, "velocity": 72, "duration": 206}, {"note": 68, "velocity": 74, "duration": 455}, {"note": 65, "velocity": 77, "duration": 833}, {"note": 0, "velocity": 0, "duration": 127}, {"note": 75, "velocity": 78, "duration": 240}, {"note": 75, "velocity": 78, "duration": 240}, {"note": 75, "velocity": 80, "duration": 240}, {"note": 77, "velocity": 80, "duration": 240}, {"note": 73, "velocity": 73, "duration": 225}, {"note": 70, "velocity": 73, "duration": 243}, {"note": 70, "velocity": 73, "duration": 3}, {"note": 0, "velocity": 0, "duration": 237}, {"note": 68, "velocity": 77, "duration": 296}, {"note": 70, "velocity": 75, "duration": 1814}, {"note": 0, "velocity": 0, "duration": 19306}, {"note": 65, "velocity": 88, "duration": 206}, {"note": 70, "velocity": 77, "duration": 151}, {"note": 0, "velocity": 0, "duration": 89}, {"note": 70, "velocity": 78, "duration": 135}, {"note": 0, "velocity": 0, "duration": 105}, {"note": 70, "velocity": 78, "duration": 191}, {"note": 68, "velocity": 75, "duration": 194}, {"note": 70, "velocity": 77, "duration": 195}, {"note": 73, "velocity": 76, "duration": 184}, {"note": 72, "velocity": 73, "duration": 191}, {"note": 70, "velocity": 77, "duration": 1642}, {"note": 0, "velocity": 0, "duration": 278}, {"note": 65, "velocity": 85, "duration": 190}, {"note": 70, "velocity": 75, "duration": 156}, {"note": 0, "velocity": 0, "duration": 84}, {"note": 70, "velocity": 75, "duration": 132}, {"note": 0, "velocity": 0, "duration": 108}, {"note": 70, "velocity": 77, "duration": 164}, {"note": 0, "velocity": 0, "duration": 76}, {"note": 63, "velocity": 75, "duration": 191}, {"note": 65, "velocity": 75, "duration": 178}, {"note": 0, "velocity": 0, "duration": 62}, {"note": 68, "velocity": 74, "duration": 192}, {"note": 67, "velocity": 77, "duration": 229}, {"note": 65, "velocity": 78, "duration": 1559}, {"note": 0, "velocity": 0, "duration": 361}, {"note": 65, "velocity": 85, "duration": 607}, {"note": 0, "velocity": 0, "duration": 113}, {"note": 73, "velocity": 71, "duration": 160}, {"note": 0, "velocity": 0, "duration": 80}, {"note": 68, "velocity": 71, "duration": 240}, {"note": 70, "velocity": 65, "duration": 199}, {"note": 73, "velocity": 75, "duration": 433}, {"note": 68, "velocity": 66, "duration": 265}, {"note": 70, "velocity": 70, "duration": 216}, {"note": 70, "velocity": 71, "duration": 256}, {"note": 68, "velocity": 71, "duration": 241}, {"note": 65, "velocity": 71, "duration": 240}, {"note": 63, "velocity": 71, "duration": 240}, {"note": 61, "velocity": 71, "duration": 480}, {"note": 75, "velocity": 78, "duration": 139}, {"note": 0, "velocity": 0, "duration": 101}, {"note": 75, "velocity": 82, "duration": 128}, {"note": 0, "velocity": 0, "duration": 112}, {"note": 75, "velocity": 85, "duration": 187}, {"note": 73, "velocity": 76, "duration": 185}, {"note": 72, "velocity": 87, "duration": 196}, {"note": 70, "velocity": 76, "duration": 181}, {"note": 68, "velocity": 77, "duration": 434}, {"note": 70, "velocity": 77, "duration": 2992}, {"note": 0, "velocity": 0, "duration": 848}, {"note": 70, "velocity": 82, "duration": 182}, {"note": 77, "velocity": 78, "duration": 153}, {"note": 0, "velocity": 0, "duration": 87}, {"note": 77, "velocity": 77, "duration": 140}, {"note": 0, "velocity": 0, "duration": 100}, {"note": 77, "velocity": 77, "duration": 142}, {"note": 0, "velocity": 0, "duration": 98}, {"note": 77, "velocity": 82, "duration": 599}, {"note": 0, "velocity": 0, "duration": 121}, {"note": 73, "velocity": 77, "duration": 182}, {"note": 75, "velocity": 80, "duration": 1799}, {"note": 0, "velocity": 0, "duration": 121}, {"note": 75, "velocity": 76, "duration": 134}, {"note": 0, "velocity": 0, "duration": 106}, {"note": 75, "velocity": 76, "duration": 131}, {"note": 0, "velocity": 0, "duration": 109}, {"note": 75, "velocity": 82, "duration": 147}, {"note": 0, "velocity": 0, "duration": 93}, {"note": 77, "velocity": 78, "duration": 164}, {"note": 0, "velocity": 0, "duration": 76}, {"note": 72, "velocity": 78, "duration": 198}, {"note": 70, "velocity": 75, "duration": 169}, {"note": 0, "velocity": 0, "duration": 71}, {"note": 68, "velocity": 75, "duration": 438}, {"note": 70, "velocity": 75, "duration": 1598}, {"note": 0, "velocity": 0, "duration": 322}, {"note": 70, "velocity": 77, "duration": 556}, {"note": 0, "velocity": 0, "duration": 164}, {"note": 75, "velocity": 68, "duration": 168}, {"note": 0, "velocity": 0, "duration": 72}, {"note": 75, "velocity": 73, "duration": 480}, {"note": 73, "velocity": 72, "duration": 212}, {"note": 70, "velocity": 75, "duration": 240}, {"note": 68, "velocity": 73, "duration": 240}, {"note": 70, "velocity": 72, "duration": 206}, {"note": 68, "velocity": 74, "duration": 455}, {"note": 65, "velocity": 77, "duration": 833}, {"note": 0, "velocity": 0, "duration": 127}, {"note": 75, "velocity": 78, "duration": 299}, {"note": 0, "velocity": 0, "duration": 181}, {"note": 75, "velocity": 80, "duration": 416}, {"note": 0, "velocity": 0, "duration": 64}, {"note": 73, "velocity": 73, "duration": 225}, {"note": 70, "velocity": 73, "duration": 243}, {"note": 73, "velocity": 73, "duration": 265}, {"note": 75, "velocity": 77, "duration": 296}, {"note": 77, "velocity": 75, "duration": 1814}, {"note": 0, "velocity": 0, "duration": 106}, {"note": 70, "velocity": 82, "duration": 182}, {"note": 77, "velocity": 78, "duration": 153}, {"note": 0, "velocity": 0, "duration": 87}, {"note": 77, "velocity": 77, "duration": 140}, {"note": 0, "velocity": 0, "duration": 100}, {"note": 77, "velocity": 77, "duration": 142}, {"note": 0, "velocity": 0, "duration": 98}, {"note": 77, "velocity": 82, "duration": 599}, {"note": 0, "velocity": 0, "duration": 121}, {"note": 73, "velocity": 77, "duration": 182}, {"note": 75, "velocity": 80, "duration": 1799}, {"note": 0, "velocity": 0, "duration": 121}, {"note": 75, "velocity": 76, "duration": 134}, {"note": 0, "velocity": 0, "duration": 106}, {"note": 75, "velocity": 76, "duration": 131}, {"note": 0, "velocity": 0, "duration": 109}, {"note": 75, "velocity": 82, "duration": 147}, {"note": 0, "velocity": 0, "duration": 93}, {"note": 77, "velocity": 78, "duration": 164}, {"note": 0, "velocity": 0, "duration": 76}, {"note": 72, "velocity": 78, "duration": 198}, {"note": 70, "velocity": 75, "duration": 169}, {"note": 0, "velocity": 0, "duration": 71}, {"note": 68, "velocity": 75, "duration": 438}, {"note": 70, "velocity": 75, "duration": 1598}, {"note": 0, "velocity": 0, "duration": 322}, {"note": 70, "velocity": 77, "duration": 556}, {"note": 0, "velocity": 0, "duration": 164}, {"note": 75, "velocity": 68, "duration": 168}, {"note": 0, "velocity": 0, "duration": 72}, {"note": 75, "velocity": 73, "duration": 480}, {"note": 73, "velocity": 72, "duration": 212}, {"note": 70, "velocity": 75, "duration": 240}, {"note": 68, "velocity": 73, "duration": 240}, {"note": 70, "velocity": 72, "duration": 206}, {"note": 68, "velocity": 74, "duration": 455}, {"note": 65, "velocity": 77, "duration": 833}, {"note": 0, "velocity": 0, "duration": 127}, {"note": 75, "velocity": 78, "duration": 240}, {"note": 75, "velocity": 78, "duration": 240}, {"note": 75, "velocity": 80, "duration": 240}, {"note": 77, "velocity": 80, "duration": 240}, {"note": 73, "velocity": 73, "duration": 225}, {"note": 70, "velocity": 73, "duration": 243}, {"note": 70, "velocity": 73, "duration": 3}, {"note": 0, "velocity": 0, "duration": 237}, {"note": 68, "velocity": 77, "duration": 296}, {"note": 70, "velocity": 75, "duration": 1814}, {"note": 0, "velocity": 0, "duration": 106}, {"note": 70, "velocity": 82, "duration": 182}, {"note": 77, "velocity": 78, "duration": 153}, {"note": 0, "velocity": 0, "duration": 87}, {"note": 77, "velocity": 77, "duration": 140}, {"note": 0, "velocity": 0, "duration": 100}, {"note": 77, "velocity": 77, "duration": 142}, {"note": 0, "velocity": 0, "duration": 98}, {"note": 77, "velocity": 82, "duration": 599}, {"note": 0, "velocity": 0, "duration": 121}, {"note": 73, "velocity": 77, "duration": 182}, {"note": 75, "velocity": 80, "duration": 1799}, {"note": 0, "velocity": 0, "duration": 121}, {"note": 75, "velocity": 76, "duration": 134}, {"note": 0, "velocity": 0, "duration": 106}, {"note": 75, "velocity": 76, "duration": 131}, {"note": 0, "velocity": 0, "duration": 109}, {"note": 75, "velocity": 82, "duration": 147}, {"note": 0, "velocity": 0, "duration": 93}, {"note": 77, "velocity": 78, "duration": 164}, {"note": 0, "velocity": 0, "duration": 76}, {"note": 72, "velocity": 78, "duration": 198}, {"note": 70, "velocity": 75, "duration": 169}, {"note": 0, "velocity": 0, "duration": 71}, {"note": 68, "velocity": 75, "duration": 438}, {"note": 70, "velocity": 75, "duration": 1598}, {"note": 0, "velocity": 0, "duration": 322}, {"note": 70, "velocity": 77, "duration": 556}, {"note": 0, "velocity": 0, "duration": 164}, {"note": 75, "velocity": 68, "duration": 168}, {"note": 0, "velocity": 0, "duration": 72}, {"note": 75, "velocity": 73, "duration": 480}, {"note": 73, "velocity": 72, "duration": 212}, {"note": 70, "velocity": 75, "duration": 240}, {"note": 68, "velocity": 73, "duration": 240}, {"note": 70, "velocity": 72, "duration": 206}, {"note": 68, "velocity": 74, "duration": 455}, {"note": 65, "velocity": 77, "duration": 833}, {"note": 0, "velocity": 0, "duration": 127}, {"note": 75, "velocity": 78, "duration": 299}, {"note": 0, "velocity": 0, "duration": 181}, {"note": 75, "velocity": 80, "duration": 416}, {"note": 0, "velocity": 0, "duration": 64}, {"note": 73, "velocity": 73, "duration": 225}, {"note": 70, "velocity": 73, "duration": 243}, {"note": 73, "velocity": 73, "duration": 265}, {"note": 75, "velocity": 77, "duration": 296}, {"note": 77, "velocity": 75, "duration": 1814}, {"note": 0, "velocity": 0, "duration": 106}, {"note": 70, "velocity": 82, "duration": 182}, {"note": 77, "velocity": 78, "duration": 153}, {"note": 0, "velocity": 0, "duration": 87}, {"note": 77, "velocity": 77, "duration": 140}, {"note": 0, "velocity": 0, "duration": 100}, {"note": 77, "velocity": 77, "duration": 142}, {"note": 0, "velocity": 0, "duration": 98}, {"note": 77, "velocity": 82, "duration": 599}, {"note": 0, "velocity": 0, "duration": 121}, {"note": 73, "velocity": 77, "duration": 182}, {"note": 75, "velocity": 80, "duration": 1799}, {"note": 0, "velocity": 0, "duration": 121}, {"note": 75, "velocity": 76, "duration": 134}, {"note": 0, "velocity": 0, "duration": 106}, {"note": 75, "velocity": 76, "duration": 131}, {"note": 0, "velocity": 0, "duration": 109}, {"note": 75, "velocity": 82, "duration": 147}, {"note": 0, "velocity": 0, "duration": 93}, {"note": 77, "velocity": 78, "duration": 164}, {"note": 0, "velocity": 0, "duration": 76}, {"note": 72, "velocity": 78, "duration": 198}, {"note": 70, "velocity": 75, "duration": 169}, {"note": 0, "velocity": 0, "duration": 71}, {"note": 68, "velocity": 75, "duration": 438}, {"note": 70, "velocity": 75, "duration": 1598}, {"note": 0, "velocity": 0, "duration": 322}, {"note": 70, "velocity": 77, "duration": 556}, {"note": 0, "velocity": 0, "duration": 164}, {"note": 75, "velocity": 68, "duration": 168}, {"note": 0, "velocity": 0, "duration": 72}, {"note": 75, "velocity": 73, "duration": 480}, {"note": 73, "velocity": 72, "duration": 212}, {"note": 70, "velocity": 75, "duration": 240}, {"note": 68, "velocity": 73, "duration": 240}, {"note": 70, "velocity": 72, "duration": 206}, {"note": 68, "velocity": 74, "duration": 455}, {"note": 65, "velocity": 77, "duration": 833}, {"note": 0, "velocity": 0, "duration": 127}, {"note": 75, "velocity": 78, "duration": 240}, {"note": 75, "velocity": 78, "duration": 240}, {"note": 75, "velocity": 80, "duration": 240}, {"note": 77, "velocity": 80, "duration": 240}, {"note": 73, "velocity": 73, "duration": 225}, {"note": 70, "velocity": 73, "duration": 243}, {"note": 70, "velocity": 73, "duration": 3}, {"note": 0, "velocity": 0, "duration": 237}, {"note": 68, "velocity": 77, "duration": 296}, {"note": 70, "velocity": 75, "duration": 1814}, {"note": 0, "velocity": 0, "duration": 106}, {"note": 70, "velocity": 77, "duration": 556}, {"note": 0, "velocity": 0, "duration": 164}, {"note": 75, "velocity": 68, "duration": 168}, {"note": 0, "velocity": 0, "duration": 72}, {"note": 75, "velocity": 73, "duration": 480}, {"note": 73, "velocity": 72, "duration": 212}, {"note": 70, "velocity": 75, "duration": 240}, {"note": 68, "velocity": 73, "duration": 240}, {"note": 70, "velocity": 72, "duration": 206}, {"note": 68, "velocity": 74, "duration": 455}, {"note": 65, "velocity": 77, "duration": 833}, {"note": 0, "velocity": 0, "duration": 555}, {"note": 75, "velocity": 80, "duration": 335}, {"note": 0, "velocity": 0, "duration": 107}, {"note": 75, "velocity": 82, "duration": 288}, {"note": 0, "velocity": 0, "duration": 78}, {"note": 75, "velocity": 77, "duration": 329}, {"note": 0, "velocity": 0, "duration": 99}, {"note": 77, "velocity": 78, "duration": 322}, {"note": 0, "velocity": 0, "duration": 73}, {"note": 72, "velocity": 80, "duration": 365}, {"note": 70, "velocity": 72, "duration": 314}, {"note": 0, "velocity": 0, "duration": 92}, {"note": 70, "velocity": 68, "duration": 483}, {"note": 68, "velocity": 62, "duration": 2357}, {"note": 70, "velocity": 74, "duration": 3594}]]