[[{"note": 59, "velocity": 84, "duration": 92}, {"note": 67, "velocity": 90, "duration": 172}, {"note": 0, "velocity": 0, "duration": 68}, {"note": 67, "velocity": 88, "duration": 75}, {"note": 67, "velocity": 90, "duration": 280}, {"note": 0, "velocity": 0, "duration": 200}, {"note": 59, "velocity": 86, "duration": 104}, {"note": 66, "velocity": 91, "duration": 168}, {"note": 0, "velocity": 0, "duration": 72}, {"note": 66, "velocity": 91, "duration": 65}, {"note": 66, "velocity": 91, "duration": 381}, {"note": 0, "velocity": 0, "duration": 99}, {"note": 62, "velocity": 87, "duration": 84}, {"note": 64, "velocity": 92, "duration": 159}, {"note": 0, "velocity": 0, "duration": 81}, {"note": 64, "velocity": 92, "duration": 176}, {"note": 0, "velocity": 0, "duration": 64}, {"note": 62, "velocity": 92, "duration": 221}, {"note": 60, "velocity": 92, "duration": 204}, {"note": 62, "velocity": 91, "duration": 731}, {"note": 0, "velocity": 0, "duration": 109}, {"note": 59, "velocity": 90, "duration": 79}, {"note": 67, "velocity": 91, "duration": 170}, {"note": 0, "velocity": 0, "duration": 70}, {"note": 67, "velocity": 90, "duration": 69}, {"note": 67, "velocity": 91, "duration": 264}, {"note": 0, "velocity": 0, "duration": 216}, {"note": 59, "velocity": 86, "duration": 82}, {"note": 66, "velocity": 91, "duration": 161}, {"note": 0, "velocity": 0, "duration": 79}, {"note": 66, "velocity": 82, "duration": 70}, {"note": 66, "velocity": 91, "duration": 345}, {"note": 0, "velocity": 0, "duration": 135}, {"note": 62, "velocity": 86, "duration": 84}, {"note": 64, "velocity": 94, "duration": 180}, {"note": 67, "velocity": 94, "duration": 168}, {"note": 0, "velocity": 0, "duration": 72}, {"note": 69, "velocity": 92, "duration": 173}, {"note": 0, "velocity": 0, "duration": 67}, {"note": 71, "velocity": 90, "duration": 145}, {"note": 0, "velocity": 0, "duration": 95}, {"note": 71, "velocity": 91, "duration": 731}, {"note": 0, "velocity": 0, "duration": 109}, {"note": 59, "velocity": 84, "duration": 92}, {"note": 67, "velocity": 90, "duration": 172}, {"note": 0, "velocity": 0, "duration": 68}, {"note": 67, "velocity": 88, "duration": 75}, {"note": 67, "velocity": 90, "duration": 280}, {"note": 0, "velocity": 0, "duration": 200}, {"note": 59, "velocity": 86, "duration": 104}, {"note": 66, "velocity": 91, "duration": 168}, {"note": 0, "velocity": 0, "duration": 72}, {"note": 66, "velocity": 91, "duration": 65}, {"note": 66, "velocity": 91, "duration": 381}, {"note": 0, "velocity": 0, "duration": 99}, {"note": 62, "velocity": 87, "duration": 84}, {"note": 64, "velocity": 92, "duration": 159}, {"note": 0, "velocity": 0, "duration": 81}, {"note": 64, "velocity": 92, "duration": 176}, {"note": 0, "velocity": 0, "duration": 64}, {"note": 62, "velocity": 92, "duration": 221}, {"note": 60, "velocity": 92, "duration": 204}, {"note": 62, "velocity": 91, "duration": 731}, {"note": 0, "velocity": 0, "duration": 109}, {"note": 59, "velocity": 90, "duration": 79}, {"note": 67, "velocity": 91, "duration": 170}, {"note": 0, "velocity": 0, "duration": 70}, {"note": 67, "velocity": 90, "duration": 69}, {"note": 67, "velocity": 91, "duration": 264}, {"note": 0, "velocity": 0, "duration": 216}, {"note": 59, "velocity": 86, "duration": 82}, {"note": 66, "velocity": 91, "duration": 161}, {"note": 0, "velocity": 0, "duration": 79}, {"note": 66, "velocity": 82, "duration": 70}, {"note": 66, "velocity": 91, "duration": 345}, {"note": 0, "velocity": 0, "duration": 135}, {"note": 62, "velocity": 86, "duration": 84}, {"note": 64, "velocity": 94, "duration": 180}, {"note": 67, "velocity": 94, "duration": 168}, {"note": 0, "velocity": 0, "duration": 72}, {"note": 69, "velocity": 92, "duration": 173}, {"note": 0, "velocity": 0, "duration": 67}, {"note": 67, "velocity": 90, "duration": 145}, {"note": 0, "velocity": 0, "duration": 95}, {"note": 67, "velocity": 91, "duration": 624}, {"note": 0, "velocity": 0, "duration": 96}, {"note": 67, "velocity": 94, "duration": 72}, {"note": 69, "velocity": 95, "duration": 61}, {"note": 71, "velocity": 92, "duration": 409}, {"note": 0, "velocity": 0, "duration": 71}, {"note": 67, "velocity": 92, "duration": 189}, {"note": 67, "velocity": 90, "duration": 72}, {"note": 69, "velocity": 91, "duration": 90}, {"note": 71, "velocity": 91, "duration": 513}, {"note": 0, "velocity": 0, "duration": 207}, {"note": 67, "velocity": 87, "duration": 72}, {"note": 69, "velocity": 91, "duration": 62}, {"note": 71, "velocity": 96, "duration": 169}, {"note": 0, "velocity": 0, "duration": 71}, {"note": 76, "velocity": 96, "duration": 176}, {"note": 0, "velocity": 0, "duration": 64}, {"note": 71, "velocity": 92, "duration": 166}, {"note": 0, "velocity": 0, "duration": 74}, {"note": 69, "velocity": 94, "duration": 75}, {"note": 67, "velocity": 92, "duration": 72}, {"note": 69, "velocity": 96, "duration": 217}, {"note": 67, "velocity": 91, "duration": 82}, {"note": 64, "velocity": 97, "duration": 287}, {"note": 0, "velocity": 0, "duration": 793}, {"note": 76, "velocity": 95, "duration": 174}, {"note": 0, "velocity": 0, "duration": 66}, {"note": 76, "velocity": 99, "duration": 85}, {"note": 74, "velocity": 96, "duration": 60}, {"note": 76, "velocity": 99, "duration": 219}, {"note": 74, "velocity": 91, "duration": 59}, {"note": 0, "velocity": 0, "duration": 61}, {"note": 74, "velocity": 96, "duration": 312}, {"note": 69, "velocity": 96, "duration": 186}, {"note": 71, "velocity": 92, "duration": 1495}, {"note": 0, "velocity": 0, "duration": 185}, {"note": 67, "velocity": 94, "duration": 72}, {"note": 69, "velocity": 95, "duration": 61}, {"note": 71, "velocity": 92, "duration": 409}, {"note": 0, "velocity": 0, "duration": 311}, {"note": 67, "velocity": 90, "duration": 72}, {"note": 69, "velocity": 91, "duration": 90}, {"note": 71, "velocity": 91, "duration": 513}, {"note": 0, "velocity": 0, "duration": 207}, {"note": 67, "velocity": 87, "duration": 72}, {"note": 69, "velocity": 91, "duration": 62}, {"note": 71, "velocity": 96, "duration": 169}, {"note": 0, "velocity": 0, "duration": 71}, {"note": 76, "velocity": 96, "duration": 176}, {"note": 0, "velocity": 0, "duration": 64}, {"note": 78, "velocity": 92, "duration": 480}, {"note": 76, "velocity": 96, "duration": 1091}, {"note": 0, "velocity": 0, "duration": 349}, {"note": 76, "velocity": 94, "duration": 394}, {"note": 0, "velocity": 0, "duration": 86}, {"note": 76, "velocity": 94, "duration": 221}, {"note": 74, "velocity": 96, "duration": 160}, {"note": 0, "velocity": 0, "duration": 80}, {"note": 74, "velocity": 101, "duration": 227}, {"note": 71, "velocity": 91, "duration": 235}, {"note": 76, "velocity": 96, "duration": 1582}, {"note": 0, "velocity": 0, "duration": 98}, {"note": 76, "velocity": 99, "duration": 96}, {"note": 78, "velocity": 85, "duration": 69}, {"note": 79, "velocity": 91, "duration": 205}, {"note": 78, "velocity": 95, "duration": 85}, {"note": 79, "velocity": 94, "duration": 189}, {"note": 79, "velocity": 92, "duration": 269}, {"note": 0, "velocity": 0, "duration": 91}, {"note": 78, "velocity": 99, "duration": 202}, {"note": 78, "velocity": 91, "duration": 101}, {"note": 76, "velocity": 97, "duration": 215}, {"note": 74, "velocity": 97, "duration": 270}, {"note": 0, "velocity": 0, "duration": 90}, {"note": 76, "velocity": 92, "duration": 166}, {"note": 0, "velocity": 0, "duration": 74}, {"note": 76, "velocity": 95, "duration": 214}, {"note": 74, "velocity": 101, "duration": 115}, {"note": 72, "velocity": 92, "duration": 319}, {"note": 74, "velocity": 94, "duration": 565}, {"note": 0, "velocity": 0, "duration": 155}, {"note": 76, "velocity": 96, "duration": 72}, {"note": 78, "velocity": 95, "duration": 66}, {"note": 79, "velocity": 92, "duration": 158}, {"note": 0, "velocity": 0, "duration": 82}, {"note": 79, "velocity": 91, "duration": 70}, {"note": 79, "velocity": 90, "duration": 186}, {"note": 79, "velocity": 91, "duration": 251}, {"note": 0, "velocity": 0, "duration": 109}, {"note": 78, "velocity": 97, "duration": 178}, {"note": 0, "velocity": 0, "duration": 62}, {"note": 76, "velocity": 94, "duration": 69}, {"note": 74, "velocity": 101, "duration": 290}, {"note": 0, "velocity": 0, "duration": 310}, {"note": 76, "velocity": 97, "duration": 189}, {"note": 79, "velocity": 91, "duration": 141}, {"note": 0, "velocity": 0, "duration": 99}, {"note": 78, "velocity": 96, "duration": 216}, {"note": 74, "velocity": 96, "duration": 186}, {"note": 76, "velocity": 91, "duration": 480}, {"note": 0, "velocity": 0, "duration": 240}, {"note": 76, "velocity": 99, "duration": 96}, {"note": 78, "velocity": 85, "duration": 69}, {"note": 79, "velocity": 91, "duration": 205}, {"note": 78, "velocity": 95, "duration": 85}, {"note": 79, "velocity": 94, "duration": 189}, {"note": 79, "velocity": 92, "duration": 269}, {"note": 0, "velocity": 0, "duration": 91}, {"note": 78, "velocity": 99, "duration": 202}, {"note": 78, "velocity": 91, "duration": 101}, {"note": 76, "velocity": 97, "duration": 215}, {"note": 74, "velocity": 97, "duration": 270}, {"note": 0, "velocity": 0, "duration": 90}, {"note": 76, "velocity": 92, "duration": 166}, {"note": 0, "velocity": 0, "duration": 74}, {"note": 76, "velocity": 95, "duration": 214}, {"note": 74, "velocity": 101, "duration": 115}, {"note": 72, "velocity": 92, "duration": 319}, {"note": 74, "velocity": 94, "duration": 565}, {"note": 0, "velocity": 0, "duration": 155}, {"note": 76, "velocity": 96, "duration": 72}, {"note": 78, "velocity": 95, "duration": 66}, {"note": 79, "velocity": 92, "duration": 158}, {"note": 0, "velocity": 0, "duration": 82}, {"note": 79, "velocity": 91, "duration": 70}, {"note": 79, "velocity": 90, "duration": 186}, {"note": 79, "velocity": 91, "duration": 251}, {"note": 0, "velocity": 0, "duration": 109}, {"note": 78, "velocity": 97, "duration": 178}, {"note": 0, "velocity": 0, "duration": 62}, {"note": 76, "velocity": 94, "duration": 69}, {"note": 74, "velocity": 101, "duration": 360}, {"note": 74, "velocity": 101, "duration": 240}, {"note": 76, "velocity": 97, "duration": 189}, {"note": 79, "velocity": 91, "duration": 141}, {"note": 0, "velocity": 0, "duration": 99}, {"note": 78, "velocity": 96, "duration": 216}, {"note": 74, "velocity": 96, "duration": 186}, {"note": 76, "velocity": 91, "duration": 676}, {"note": 0, "velocity": 0, "duration": 764}, {"note": 79, "velocity": 90, "duration": 183}, {"note": 78, "velocity": 92, "duration": 212}, {"note": 76, "velocity": 92, "duration": 1436}, {"note": 0, "velocity": 0, "duration": 18604}, {"note": 59, "velocity": 84, "duration": 92}, {"note": 67, "velocity": 90, "duration": 172}, {"note": 0, "velocity": 0, "duration": 68}, {"note": 67, "velocity": 88, "duration": 75}, {"note": 67, "velocity": 90, "duration": 280}, {"note": 0, "velocity": 0, "duration": 200}, {"note": 59, "velocity": 86, "duration": 104}, {"note": 66, "velocity": 91, "duration": 168}, {"note": 0, "velocity": 0, "duration": 72}, {"note": 66, "velocity": 91, "duration": 65}, {"note": 66, "velocity": 91, "duration": 381}, {"note": 0, "velocity": 0, "duration": 99}, {"note": 62, "velocity": 87, "duration": 84}, {"note": 64, "velocity": 92, "duration": 159}, {"note": 0, "velocity": 0, "duration": 81}, {"note": 64, "velocity": 92, "duration": 176}, {"note": 0, "velocity": 0, "duration": 64}, {"note": 62, "velocity": 92, "duration": 221}, {"note": 60, "velocity": 92, "duration": 204}, {"note": 62, "velocity": 91, "duration": 731}, {"note": 0, "velocity": 0, "duration": 109}, {"note": 59, "velocity": 90, "duration": 79}, {"note": 67, "velocity": 91, "duration": 170}, {"note": 0, "velocity": 0, "duration": 70}, {"note": 67, "velocity": 90, "duration": 69}, {"note": 67, "velocity": 91, "duration": 264}, {"note": 0, "velocity": 0, "duration": 216}, {"note": 59, "velocity": 86, "duration": 82}, {"note": 66, "velocity": 91, "duration": 161}, {"note": 0, "velocity": 0, "duration": 79}, {"note": 66, "velocity": 82, "duration": 70}, {"note": 66, "velocity": 91, "duration": 345}, {"note": 0, "velocity": 0, "duration": 135}, {"note": 62, "velocity": 86, "duration": 84}, {"note": 64, "velocity": 94, "duration": 180}, {"note": 67, "velocity": 94, "duration": 168}, {"note": 0, "velocity": 0, "duration": 72}, {"note": 69, "velocity": 92, "duration": 173}, {"note": 0, "velocity": 0, "duration": 67}, {"note": 67, "velocity": 90, "duration": 145}, {"note": 0, "velocity": 0, "duration": 95}, {"note": 67, "velocity": 91, "duration": 624}, {"note": 0, "velocity": 0, "duration": 96}, {"note": 67, "velocity": 94, "duration": 72}, {"note": 69, "velocity": 95, "duration": 61}, {"note": 71, "velocity": 92, "duration": 409}, {"note": 0, "velocity": 0, "duration": 71}, {"note": 67, "velocity": 92, "duration": 189}, {"note": 67, "velocity": 90, "duration": 72}, {"note": 69, "velocity": 91, "duration": 90}, {"note": 71, "velocity": 91, "duration": 513}, {"note": 0, "velocity": 0, "duration": 207}, {"note": 67, "velocity": 87, "duration": 72}, {"note": 69, "velocity": 91, "duration": 62}, {"note": 71, "velocity": 96, "duration": 169}, {"note": 0, "velocity": 0, "duration": 71}, {"note": 76, "velocity": 96, "duration": 176}, {"note": 0, "velocity": 0, "duration": 64}, {"note": 71, "velocity": 92, "duration": 166}, {"note": 0, "velocity": 0, "duration": 74}, {"note": 69, "velocity": 94, "duration": 75}, {"note": 67, "velocity": 92, "duration": 72}, {"note": 69, "velocity": 96, "duration": 217}, {"note": 67, "velocity": 91, "duration": 82}, {"note": 64, "velocity": 97, "duration": 287}, {"note": 0, "velocity": 0, "duration": 793}, {"note": 76, "velocity": 95, "duration": 174}, {"note": 0, "velocity": 0, "duration": 66}, {"note": 76, "velocity": 99, "duration": 85}, {"note": 74, "velocity": 96, "duration": 60}, {"note": 76, "velocity": 99, "duration": 219}, {"note": 74, "velocity": 91, "duration": 59}, {"note": 0, "velocity": 0, "duration": 61}, {"note": 74, "velocity": 96, "duration": 312}, {"note": 69, "velocity": 96, "duration": 186}, {"note": 71, "velocity": 92, "duration": 1495}, {"note": 0, "velocity": 0, "duration": 185}, {"note": 67, "velocity": 94, "duration": 72}, {"note": 69, "velocity": 95, "duration": 61}, {"note": 71, "velocity": 92, "duration": 409}, {"note": 0, "velocity": 0, "duration": 311}, {"note": 67, "velocity": 90, "duration": 72}, {"note": 69, "velocity": 91, "duration": 90}, {"note": 71, "velocity": 91, "duration": 513}, {"note": 0, "velocity": 0, "duration": 207}, {"note": 67, "velocity": 87, "duration": 72}, {"note": 69, "velocity": 91, "duration": 62}, {"note": 71, "velocity": 96, "duration": 169}, {"note": 0, "velocity": 0, "duration": 71}, {"note": 76, "velocity": 96, "duration": 176}, {"note": 0, "velocity": 0, "duration": 64}, {"note": 78, "velocity": 92, "duration": 480}, {"note": 76, "velocity": 96, "duration": 1091}, {"note": 0, "velocity": 0, "duration": 349}, {"note": 76, "velocity": 94, "duration": 394}, {"note": 0, "velocity": 0, "duration": 86}, {"note": 76, "velocity": 94, "duration": 221}, {"note": 74, "velocity": 96, "duration": 160}, {"note": 0, "velocity": 0, "duration": 80}, {"note": 74, "velocity": 101, "duration": 227}, {"note": 71, "velocity": 91, "duration": 235}, {"note": 76, "velocity": 96, "duration": 1582}, {"note": 0, "velocity": 0, "duration": 98}, {"note": 76, "velocity": 99, "duration": 96}, {"note": 78, "velocity": 85, "duration": 69}, {"note": 79, "velocity": 91, "duration": 205}, {"note": 78, "velocity": 95, "duration": 85}, {"note": 79, "velocity": 94, "duration": 189}, {"note": 79, "velocity": 92, "duration": 269}, {"note": 0, "velocity": 0, "duration": 91}, {"note": 78, "velocity": 99, "duration": 202}, {"note": 78, "velocity": 91, "duration": 101}, {"note": 76, "velocity": 97, "duration": 215}, {"note": 74, "velocity": 97, "duration": 270}, {"note": 0, "velocity": 0, "duration": 90}, {"note": 76, "velocity": 92, "duration": 166}, {"note": 0, "velocity": 0, "duration": 74}, {"note": 76, "velocity": 95, "duration": 214}, {"note": 74, "velocity": 101, "duration": 115}, {"note": 72, "velocity": 92, "duration": 319}, {"note": 74, "velocity": 94, "duration": 565}, {"note": 0, "velocity": 0, "duration": 155}, {"note": 76, "velocity": 96, "duration": 72}, {"note": 78, "velocity": 95, "duration": 66}, {"note": 79, "velocity": 92, "duration": 158}, {"note": 0, "velocity": 0, "duration": 82}, {"note": 79, "velocity": 91, "duration": 70}, {"note": 79, "velocity": 90, "duration": 186}, {"note": 79, "velocity": 91, "duration": 251}, {"note": 0, "velocity": 0, "duration": 109}, {"note": 78, "velocity": 97, "duration": 178}, {"note": 0, "velocity": 0, "duration": 62}, {"note": 76, "velocity": 94, "duration": 69}, {"note": 74, "velocity": 101, "duration": 290}, {"note": 0, "velocity": 0, "duration": 310}, {"note": 76, "velocity": 97, "duration": 189}, {"note": 79, "velocity": 91, "duration": 141}, {"note": 0, "velocity": 0, "duration": 99}, {"note": 78, "velocity": 96, "duration": 216}, {"note": 74, "velocity": 96, "duration": 186}, {"note": 76, "velocity": 91, "duration": 480}, {"note": 0, "velocity": 0, "duration": 240}, {"note": 76, "velocity": 99, "duration": 96}, {"note": 78, "velocity": 85, "duration": 69}, {"note": 79, "velocity": 91, "duration": 205}, {"note": 78, "velocity": 95, "duration": 85}, {"note": 79, "velocity": 94, "duration": 189}, {"note": 79, "velocity": 92, "duration": 269}, {"note": 0, "velocity": 0, "duration": 91}, {"note": 78, "velocity": 99, "duration": 202}, {"note": 78, "velocity": 91, "duration": 101}, {"note": 76, "velocity": 97, "duration": 215}, {"note": 74, "velocity": 97, "duration": 270}, {"note": 0, "velocity": 0, "duration": 90}, {"note": 76, "velocity": 92, "duration": 166}, {"note": 0, "velocity": 0, "duration": 74}, {"note": 76, "velocity": 95, "duration": 214}, {"note": 74, "velocity": 101, "duration": 115}, {"note": 72, "velocity": 92, "duration": 319}, {"note": 74, "velocity": 94, "duration": 565}, {"note": 0, "velocity": 0, "duration": 155}, {"note": 76, "velocity": 96, "duration": 72}, {"note": 78, "velocity": 95, "duration": 66}, {"note": 79, "velocity": 92, "duration": 158}, {"note": 0, "velocity": 0, "duration": 82}, {"note": 79, "velocity": 91, "duration": 70}, {"note": 79, "velocity": 90, "duration": 186}, {"note": 79, "velocity": 91, "duration": 251}, {"note": 0, "velocity": 0, "duration": 109}, {"note": 78, "velocity": 97, "duration": 178}, {"note": 0, "velocity": 0, "duration": 62}, {"note": 76, "velocity": 94, "duration": 69}, {"note": 74, "velocity": 101, "duration": 360}, {"note": 74, "velocity": 101, "duration": 240}, {"note": 76, "velocity": 97, "duration": 189}, {"note": 79, "velocity": 91, "duration": 141}, {"note": 0, "velocity": 0, "duration": 99}, {"note": 78, "velocity": 96, "duration": 216}, {"note": 74, "velocity": 96, "duration": 186}, {"note": 76, "velocity": 91, "duration": 676}, {"note": 0, "velocity": 0, "duration": 764}, {"note": 76, "velocity": 99, "duration": 96}, {"note": 78, "velocity": 85, "duration": 240}, {"note": 0, "velocity": 0, "duration": 120}, {"note": 79, "velocity": 91, "duration": 205}, {"note": 78, "velocity": 95, "duration": 85}, {"note": 79, "velocity": 94, "duration": 189}, {"note": 79, "velocity": 92, "duration": 269}, {"note": 0, "velocity": 0, "duration": 91}, {"note": 78, "velocity": 99, "duration": 202}, {"note": 78, "velocity": 91, "duration": 101}, {"note": 76, "velocity": 97, "duration": 215}, {"note": 74, "velocity": 97, "duration": 270}, {"note": 0, "velocity": 0, "duration": 90}, {"note": 76, "velocity": 92, "duration": 166}, {"note": 0, "velocity": 0, "duration": 74}, {"note": 76, "velocity": 95, "duration": 214}, {"note": 74, "velocity": 101, "duration": 115}, {"note": 72, "velocity": 92, "duration": 319}, {"note": 74, "velocity": 94, "duration": 565}, {"note": 0, "velocity": 0, "duration": 155}, {"note": 76, "velocity": 96, "duration": 72}, {"note": 78, "velocity": 95, "duration": 66}, {"note": 79, "velocity": 92, "duration": 158}, {"note": 0, "velocity": 0, "duration": 82}, {"note": 79, "velocity": 91, "duration": 70}, {"note": 79, "velocity": 90, "duration": 186}, {"note": 79, "velocity": 91, "duration": 251}, {"note": 0, "velocity": 0, "duration": 109}, {"note": 78, "velocity": 97, "duration": 178}, {"note": 0, "velocity": 0, "duration": 62}, {"note": 76, "velocity": 94, "duration": 69}, {"note": 74, "velocity": 101, "duration": 290}, {"note": 0, "velocity": 0, "duration": 310}, {"note": 76, "velocity": 97, "duration": 189}, {"note": 79, "velocity": 91, "duration": 141}, {"note": 0, "velocity": 0, "duration": 99}, {"note": 78, "velocity": 96, "duration": 216}, {"note": 74, "velocity": 96, "duration": 186}, {"note": 76, "velocity": 91, "duration": 480}, {"note": 0, "velocity": 0, "duration": 240}, {"note": 76, "velocity": 99, "duration": 96}, {"note": 78, "velocity": 85, "duration": 69}, {"note": 79, "velocity": 91, "duration": 205}, {"note": 78, "velocity": 95, "duration": 85}, {"note": 79, "velocity": 94, "duration": 189}, {"note": 79, "velocity": 92, "duration": 269}, {"note": 0, "velocity": 0, "duration": 91}, {"note": 78, "velocity": 99, "duration": 202}, {"note": 78, "velocity": 91, "duration": 101}, {"note": 76, "velocity": 97, "duration": 215}, {"note": 74, "velocity": 97, "duration": 270}, {"note": 0, "velocity": 0, "duration": 90}, {"note": 76, "velocity": 92, "duration": 166}, {"note": 0, "velocity": 0, "duration": 74}, {"note": 76, "velocity": 95, "duration": 214}, {"note": 74, "velocity": 101, "duration": 115}, {"note": 72, "velocity": 92, "duration": 319}, {"note": 74, "velocity": 94, "duration": 565}, {"note": 0, "velocity": 0, "duration": 155}, {"note": 76, "velocity": 96, "duration": 72}, {"note": 78, "velocity": 95, "duration": 66}, {"note": 79, "velocity": 92, "duration": 158}, {"note": 0, "velocity": 0, "duration": 82}, {"note": 79, "velocity": 91, "duration": 70}, {"note": 79, "velocity": 90, "duration": 186}, {"note": 79, "velocity": 91, "duration": 251}, {"note": 0, "velocity": 0, "duration": 109}, {"note": 78, "velocity": 97, "duration": 178}, {"note": 0, "velocity": 0, "duration": 62}, {"note": 76, "velocity": 94, "duration": 69}, {"note": 74, "velocity": 101, "duration": 360}, {"note": 74, "velocity": 101, "duration": 240}, {"note": 76, "velocity": 97, "duration": 189}, {"note": 79, "velocity": 91, "duration": 141}, {"note": 0, "velocity": 0, "duration": 99}, {"note": 78, "velocity": 96, "duration": 216}, {"note": 74, "velocity": 96, "duration": 186}, {"note": 76, "velocity": 91, "duration": 676}, {"note": 0, "velocity": 0, "duration": 764}, {"note": 79, "velocity": 90, "duration": 183}, {"note": 78, "velocity": 92, "duration": 212}, {"note": 76, "velocity": 92, "duration": 1436}, {"note": 76, "velocity": 99, "duration": 96}, {"note": 78, "velocity": 85, "duration": 360}, {"note": 79, "velocity": 91, "duration": 205}, {"note": 78, "velocity": 95, "duration": 85}, {"note": 79, "velocity": 94, "duration": 189}, {"note": 79, "velocity": 92, "duration": 269}, {"note": 0, "velocity": 0, "duration": 91}, {"note": 78, "velocity": 99, "duration": 202}, {"note": 78, "velocity": 91, "duration": 101}, {"note": 76, "velocity": 97, "duration": 215}, {"note": 74, "velocity": 97, "duration": 270}, {"note": 0, "velocity": 0, "duration": 90}, {"note": 76, "velocity": 92, "duration": 166}, {"note": 0, "velocity": 0, "duration": 74}, {"note": 76, "velocity": 95, "duration": 214}, {"note": 74, "velocity": 101, "duration": 115}, {"note": 72, "velocity": 92, "duration": 319}, {"note": 74, "velocity": 94, "duration": 565}, {"note": 0, "velocity": 0, "duration": 155}, {"note": 76, "velocity": 96, "duration": 72}, {"note": 78, "velocity": 95, "duration": 66}, {"note": 79, "velocity": 92, "duration": 158}, {"note": 0, "velocity": 0, "duration": 82}, {"note": 79, "velocity": 91, "duration": 70}, {"note": 79, "velocity": 90, "duration": 186}, {"note": 79, "velocity": 91, "duration": 251}, {"note": 0, "velocity": 0, "duration": 109}, {"note": 78, "velocity": 97, "duration": 178}, {"note": 0, "velocity": 0, "duration": 62}, {"note": 76, "velocity": 94, "duration": 69}, {"note": 74, "velocity": 101, "duration": 840}, {"note": 0, "velocity": 0, "duration": 246}, {"note": 76, "velocity": 94, "duration": 321}, {"note": 79, "velocity": 91, "duration": 346}, {"note": 78, "velocity": 94, "duration": 770}, {"note": 74, "velocity": 86, "duration": 1015}, {"note": 76, "velocity": 95, "duration": 1738}]]