[[{"note": 72, "velocity": 90, "duration": 176}, {"note": 0, "velocity": 0, "duration": 64}, {"note": 67, "velocity": 94, "duration": 158}, {"note": 0, "velocity": 0, "duration": 82}, {"note": 70, "velocity": 99, "duration": 135}, {"note": 0, "velocity": 0, "duration": 105}, {"note": 72, "velocity": 92, "duration": 143}, {"note": 0, "velocity": 0, "duration": 97}, {"note": 72, "velocity": 93, "duration": 159}, {"note": 0, "velocity": 0, "duration": 81}, {"note": 75, "velocity": 98, "duration": 130}, {"note": 0, "velocity": 0, "duration": 110}, {"note": 75, "velocity": 94, "duration": 173}, {"note": 0, "velocity": 0, "duration": 67}, {"note": 72, "velocity": 93, "duration": 167}, {"note": 0, "velocity": 0, "duration": 73}, {"note": 70, "velocity": 94, "duration": 199}, {"note": 72, "velocity": 93, "duration": 599}, {"note": 0, "velocity": 0, "duration": 1081}, {"note": 70, "velocity": 92, "duration": 157}, {"note": 0, "velocity": 0, "duration": 83}, {"note": 70, "velocity": 92, "duration": 171}, {"note": 0, "velocity": 0, "duration": 69}, {"note": 72, "velocity": 92, "duration": 181}, {"note": 70, "velocity": 99, "duration": 259}, {"note": 0, "velocity": 0, "duration": 221}, {"note": 70, "velocity": 88, "duration": 238}, {"note": 67, "velocity": 92, "duration": 160}, {"note": 0, "velocity": 0, "duration": 80}, {"note": 65, "velocity": 88, "duration": 176}, {"note": 0, "velocity": 0, "duration": 64}, {"note": 63, "velocity": 95, "duration": 153}, {"note": 0, "velocity": 0, "duration": 87}, {"note": 67, "velocity": 92, "duration": 718}, {"note": 60, "velocity": 93, "duration": 171}, {"note": 0, "velocity": 0, "duration": 69}, {"note": 63, "velocity": 93, "duration": 144}, {"note": 0, "velocity": 0, "duration": 96}, {"note": 65, "velocity": 90, "duration": 716}, {"note": 0, "velocity": 0, "duration": 244}, {"note": 65, "velocity": 93, "duration": 400}, {"note": 0, "velocity": 0, "duration": 80}, {"note": 63, "velocity": 92, "duration": 147}, {"note": 0, "velocity": 0, "duration": 93}, {"note": 65, "velocity": 90, "duration": 152}, {"note": 0, "velocity": 0, "duration": 88}, {"note": 67, "velocity": 86, "duration": 139}, {"note": 0, "velocity": 0, "duration": 101}, {"note": 67, "velocity": 89, "duration": 167}, {"note": 0, "velocity": 0, "duration": 73}, {"note": 65, "velocity": 89, "duration": 153}, {"note": 0, "velocity": 0, "duration": 87}, {"note": 67, "velocity": 92, "duration": 486}, {"note": 0, "velocity": 0, "duration": 234}, {"note": 67, "velocity": 93, "duration": 161}, {"note": 0, "velocity": 0, "duration": 79}, {"note": 70, "velocity": 93, "duration": 139}, {"note": 0, "velocity": 0, "duration": 101}, {"note": 72, "velocity": 95, "duration": 143}, {"note": 0, "velocity": 0, "duration": 97}, {"note": 72, "velocity": 94, "duration": 383}, {"note": 0, "velocity": 0, "duration": 97}, {"note": 70, "velocity": 97, "duration": 176}, {"note": 0, "velocity": 0, "duration": 64}, {"note": 72, "velocity": 93, "duration": 358}, {"note": 0, "velocity": 0, "duration": 122}, {"note": 75, "velocity": 96, "duration": 396}, {"note": 0, "velocity": 0, "duration": 84}, {"note": 74, "velocity": 94, "duration": 224}, {"note": 72, "velocity": 97, "duration": 427}, {"note": 70, "velocity": 99, "duration": 628}, {"note": 0, "velocity": 0, "duration": 1052}, {"note": 72, "velocity": 90, "duration": 176}, {"note": 0, "velocity": 0, "duration": 64}, {"note": 67, "velocity": 94, "duration": 158}, {"note": 0, "velocity": 0, "duration": 82}, {"note": 70, "velocity": 99, "duration": 135}, {"note": 0, "velocity": 0, "duration": 105}, {"note": 72, "velocity": 92, "duration": 143}, {"note": 0, "velocity": 0, "duration": 97}, {"note": 72, "velocity": 93, "duration": 159}, {"note": 0, "velocity": 0, "duration": 81}, {"note": 75, "velocity": 98, "duration": 130}, {"note": 0, "velocity": 0, "duration": 110}, {"note": 75, "velocity": 94, "duration": 173}, {"note": 0, "velocity": 0, "duration": 67}, {"note": 72, "velocity": 93, "duration": 167}, {"note": 0, "velocity": 0, "duration": 73}, {"note": 70, "velocity": 94, "duration": 199}, {"note": 72, "velocity": 93, "duration": 599}, {"note": 0, "velocity": 0, "duration": 841}, {"note": 70, "velocity": 92, "duration": 157}, {"note": 0, "velocity": 0, "duration": 83}, {"note": 70, "velocity": 92, "duration": 157}, {"note": 0, "velocity": 0, "duration": 83}, {"note": 70, "velocity": 92, "duration": 171}, {"note": 0, "velocity": 0, "duration": 69}, {"note": 72, "velocity": 92, "duration": 181}, {"note": 70, "velocity": 99, "duration": 259}, {"note": 0, "velocity": 0, "duration": 221}, {"note": 70, "velocity": 88, "duration": 238}, {"note": 67, "velocity": 92, "duration": 160}, {"note": 0, "velocity": 0, "duration": 80}, {"note": 65, "velocity": 88, "duration": 176}, {"note": 0, "velocity": 0, "duration": 64}, {"note": 63, "velocity": 95, "duration": 153}, {"note": 0, "velocity": 0, "duration": 87}, {"note": 67, "velocity": 92, "duration": 718}, {"note": 60, "velocity": 93, "duration": 171}, {"note": 0, "velocity": 0, "duration": 69}, {"note": 63, "velocity": 93, "duration": 144}, {"note": 0, "velocity": 0, "duration": 96}, {"note": 65, "velocity": 90, "duration": 478}, {"note": 65, "velocity": 90, "duration": 238}, {"note": 65, "velocity": 90, "duration": 238}, {"note": 65, "velocity": 93, "duration": 400}, {"note": 0, "velocity": 0, "duration": 80}, {"note": 63, "velocity": 92, "duration": 147}, {"note": 0, "velocity": 0, "duration": 93}, {"note": 65, "velocity": 90, "duration": 152}, {"note": 0, "velocity": 0, "duration": 88}, {"note": 67, "velocity": 86, "duration": 139}, {"note": 0, "velocity": 0, "duration": 101}, {"note": 67, "velocity": 89, "duration": 167}, {"note": 0, "velocity": 0, "duration": 73}, {"note": 70, "velocity": 89, "duration": 153}, {"note": 0, "velocity": 0, "duration": 87}, {"note": 67, "velocity": 92, "duration": 238}, {"note": 0, "velocity": 0, "duration": 242}, {"note": 67, "velocity": 92, "duration": 238}, {"note": 70, "velocity": 93, "duration": 161}, {"note": 0, "velocity": 0, "duration": 79}, {"note": 67, "velocity": 93, "duration": 139}, {"note": 0, "velocity": 0, "duration": 101}, {"note": 72, "velocity": 95, "duration": 143}, {"note": 0, "velocity": 0, "duration": 97}, {"note": 72, "velocity": 94, "duration": 238}, {"note": 72, "velocity": 94, "duration": 238}, {"note": 75, "velocity": 97, "duration": 176}, {"note": 0, "velocity": 0, "duration": 64}, {"note": 77, "velocity": 93, "duration": 358}, {"note": 0, "velocity": 0, "duration": 122}, {"note": 75, "velocity": 96, "duration": 238}, {"note": 72, "velocity": 94, "duration": 224}, {"note": 74, "velocity": 97, "duration": 1438}, {"note": 0, "velocity": 0, "duration": 1442}, {"note": 67, "velocity": 96, "duration": 410}, {"note": 0, "velocity": 0, "duration": 70}, {"note": 70, "velocity": 97, "duration": 358}, {"note": 0, "velocity": 0, "duration": 122}, {"note": 72, "velocity": 95, "duration": 156}, {"note": 0, "velocity": 0, "duration": 84}, {"note": 72, "velocity": 92, "duration": 148}, {"note": 0, "velocity": 0, "duration": 92}, {"note": 72, "velocity": 94, "duration": 177}, {"note": 0, "velocity": 0, "duration": 63}, {"note": 70, "velocity": 98, "duration": 178}, {"note": 0, "velocity": 0, "duration": 62}, {"note": 72, "velocity": 96, "duration": 200}, {"note": 79, "velocity": 96, "duration": 172}, {"note": 0, "velocity": 0, "duration": 68}, {"note": 77, "velocity": 93, "duration": 154}, {"note": 0, "velocity": 0, "duration": 86}, {"note": 75, "velocity": 90, "duration": 172}, {"note": 0, "velocity": 0, "duration": 68}, {"note": 77, "velocity": 94, "duration": 405}, {"note": 0, "velocity": 0, "duration": 75}, {"note": 77, "velocity": 93, "duration": 157}, {"note": 0, "velocity": 0, "duration": 83}, {"note": 75, "velocity": 96, "duration": 417}, {"note": 0, "velocity": 0, "duration": 63}, {"note": 72, "velocity": 95, "duration": 478}, {"note": 72, "velocity": 94, "duration": 146}, {"note": 0, "velocity": 0, "duration": 94}, {"note": 74, "velocity": 103, "duration": 139}, {"note": 0, "velocity": 0, "duration": 101}, {"note": 74, "velocity": 96, "duration": 148}, {"note": 0, "velocity": 0, "duration": 92}, {"note": 74, "velocity": 98, "duration": 154}, {"note": 0, "velocity": 0, "duration": 86}, {"note": 75, "velocity": 96, "duration": 152}, {"note": 0, "velocity": 0, "duration": 88}, {"note": 77, "velocity": 88, "duration": 156}, {"note": 0, "velocity": 0, "duration": 84}, {"note": 75, "velocity": 96, "duration": 156}, {"note": 0, "velocity": 0, "duration": 84}, {"note": 77, "velocity": 93, "duration": 129}, {"note": 0, "velocity": 0, "duration": 111}, {"note": 80, "velocity": 96, "duration": 386}, {"note": 0, "velocity": 0, "duration": 94}, {"note": 79, "velocity": 94, "duration": 594}, {"note": 0, "velocity": 0, "duration": 1086}, {"note": 79, "velocity": 93, "duration": 108}, {"note": 0, "velocity": 0, "duration": 132}, {"note": 79, "velocity": 93, "duration": 114}, {"note": 0, "velocity": 0, "duration": 126}, {"note": 79, "velocity": 93, "duration": 129}, {"note": 0, "velocity": 0, "duration": 111}, {"note": 79, "velocity": 92, "duration": 125}, {"note": 0, "velocity": 0, "duration": 115}, {"note": 79, "velocity": 93, "duration": 153}, {"note": 0, "velocity": 0, "duration": 87}, {"note": 77, "velocity": 93, "duration": 142}, {"note": 0, "velocity": 0, "duration": 98}, {"note": 77, "velocity": 91, "duration": 140}, {"note": 0, "velocity": 0, "duration": 100}, {"note": 75, "velocity": 94, "duration": 153}, {"note": 0, "velocity": 0, "duration": 87}, {"note": 75, "velocity": 93, "duration": 157}, {"note": 0, "velocity": 0, "duration": 83}, {"note": 77, "velocity": 85, "duration": 129}, {"note": 0, "velocity": 0, "duration": 111}, {"note": 77, "velocity": 87, "duration": 141}, {"note": 0, "velocity": 0, "duration": 99}, {"note": 75, "velocity": 93, "duration": 457}, {"note": 72, "velocity": 93, "duration": 556}, {"note": 0, "velocity": 0, "duration": 164}, {"note": 74, "velocity": 92, "duration": 114}, {"note": 0, "velocity": 0, "duration": 126}, {"note": 74, "velocity": 94, "duration": 139}, {"note": 0, "velocity": 0, "duration": 101}, {"note": 74, "velocity": 99, "duration": 126}, {"note": 0, "velocity": 0, "duration": 114}, {"note": 72, "velocity": 93, "duration": 157}, {"note": 0, "velocity": 0, "duration": 83}, {"note": 70, "velocity": 95, "duration": 204}, {"note": 67, "velocity": 91, "duration": 163}, {"note": 0, "velocity": 0, "duration": 77}, {"note": 70, "velocity": 92, "duration": 170}, {"note": 0, "velocity": 0, "duration": 70}, {"note": 72, "velocity": 93, "duration": 363}, {"note": 0, "velocity": 0, "duration": 117}, {"note": 72, "velocity": 93, "duration": 1202}, {"note": 67, "velocity": 96, "duration": 238}, {"note": 70, "velocity": 97, "duration": 238}, {"note": 72, "velocity": 95, "duration": 156}, {"note": 0, "velocity": 0, "duration": 84}, {"note": 72, "velocity": 92, "duration": 148}, {"note": 0, "velocity": 0, "duration": 92}, {"note": 72, "velocity": 94, "duration": 177}, {"note": 0, "velocity": 0, "duration": 63}, {"note": 70, "velocity": 98, "duration": 178}, {"note": 0, "velocity": 0, "duration": 62}, {"note": 72, "velocity": 96, "duration": 200}, {"note": 79, "velocity": 96, "duration": 172}, {"note": 0, "velocity": 0, "duration": 68}, {"note": 77, "velocity": 93, "duration": 154}, {"note": 0, "velocity": 0, "duration": 86}, {"note": 75, "velocity": 90, "duration": 172}, {"note": 0, "velocity": 0, "duration": 68}, {"note": 77, "velocity": 94, "duration": 405}, {"note": 0, "velocity": 0, "duration": 75}, {"note": 77, "velocity": 93, "duration": 157}, {"note": 0, "velocity": 0, "duration": 83}, {"note": 75, "velocity": 96, "duration": 417}, {"note": 0, "velocity": 0, "duration": 63}, {"note": 72, "velocity": 95, "duration": 478}, {"note": 72, "velocity": 94, "duration": 146}, {"note": 0, "velocity": 0, "duration": 94}, {"note": 74, "velocity": 103, "duration": 139}, {"note": 0, "velocity": 0, "duration": 101}, {"note": 74, "velocity": 96, "duration": 148}, {"note": 0, "velocity": 0, "duration": 92}, {"note": 74, "velocity": 98, "duration": 154}, {"note": 0, "velocity": 0, "duration": 86}, {"note": 75, "velocity": 96, "duration": 152}, {"note": 0, "velocity": 0, "duration": 88}, {"note": 77, "velocity": 88, "duration": 156}, {"note": 0, "velocity": 0, "duration": 84}, {"note": 75, "velocity": 96, "duration": 156}, {"note": 0, "velocity": 0, "duration": 84}, {"note": 77, "velocity": 93, "duration": 129}, {"note": 0, "velocity": 0, "duration": 111}, {"note": 80, "velocity": 96, "duration": 386}, {"note": 0, "velocity": 0, "duration": 94}, {"note": 79, "velocity": 94, "duration": 594}, {"note": 0, "velocity": 0, "duration": 1086}, {"note": 79, "velocity": 93, "duration": 108}, {"note": 0, "velocity": 0, "duration": 132}, {"note": 79, "velocity": 93, "duration": 114}, {"note": 0, "velocity": 0, "duration": 126}, {"note": 79, "velocity": 93, "duration": 129}, {"note": 0, "velocity": 0, "duration": 111}, {"note": 79, "velocity": 92, "duration": 125}, {"note": 0, "velocity": 0, "duration": 115}, {"note": 79, "velocity": 93, "duration": 153}, {"note": 0, "velocity": 0, "duration": 87}, {"note": 77, "velocity": 93, "duration": 142}, {"note": 0, "velocity": 0, "duration": 98}, {"note": 77, "velocity": 91, "duration": 140}, {"note": 0, "velocity": 0, "duration": 100}, {"note": 75, "velocity": 94, "duration": 153}, {"note": 0, "velocity": 0, "duration": 87}, {"note": 77, "velocity": 93, "duration": 238}, {"note": 0, "velocity": 0, "duration": 242}, {"note": 77, "velocity": 87, "duration": 141}, {"note": 0, "velocity": 0, "duration": 99}, {"note": 75, "velocity": 93, "duration": 457}, {"note": 72, "velocity": 93, "duration": 478}, {"note": 72, "velocity": 93, "duration": 238}, {"note": 74, "velocity": 92, "duration": 114}, {"note": 0, "velocity": 0, "duration": 126}, {"note": 74, "velocity": 94, "duration": 139}, {"note": 0, "velocity": 0, "duration": 101}, {"note": 74, "velocity": 99, "duration": 126}, {"note": 0, "velocity": 0, "duration": 114}, {"note": 72, "velocity": 93, "duration": 157}, {"note": 0, "velocity": 0, "duration": 83}, {"note": 70, "velocity": 95, "duration": 204}, {"note": 67, "velocity": 91, "duration": 163}, {"note": 0, "velocity": 0, "duration": 77}, {"note": 70, "velocity": 92, "duration": 170}, {"note": 0, "velocity": 0, "duration": 70}, {"note": 72, "velocity": 93, "duration": 363}, {"note": 0, "velocity": 0, "duration": 117}, {"note": 72, "velocity": 93, "duration": 1202}, {"note": 0, "velocity": 0, "duration": 18238}, {"note": 72, "velocity": 90, "duration": 176}, {"note": 0, "velocity": 0, "duration": 64}, {"note": 67, "velocity": 94, "duration": 158}, {"note": 0, "velocity": 0, "duration": 82}, {"note": 70, "velocity": 99, "duration": 135}, {"note": 0, "velocity": 0, "duration": 105}, {"note": 72, "velocity": 92, "duration": 143}, {"note": 0, "velocity": 0, "duration": 97}, {"note": 72, "velocity": 93, "duration": 159}, {"note": 0, "velocity": 0, "duration": 81}, {"note": 75, "velocity": 98, "duration": 130}, {"note": 0, "velocity": 0, "duration": 110}, {"note": 75, "velocity": 94, "duration": 173}, {"note": 0, "velocity": 0, "duration": 67}, {"note": 72, "velocity": 93, "duration": 167}, {"note": 0, "velocity": 0, "duration": 73}, {"note": 70, "velocity": 94, "duration": 199}, {"note": 72, "velocity": 93, "duration": 599}, {"note": 0, "velocity": 0, "duration": 841}, {"note": 70, "velocity": 92, "duration": 157}, {"note": 0, "velocity": 0, "duration": 83}, {"note": 70, "velocity": 92, "duration": 157}, {"note": 0, "velocity": 0, "duration": 83}, {"note": 70, "velocity": 92, "duration": 171}, {"note": 0, "velocity": 0, "duration": 69}, {"note": 72, "velocity": 92, "duration": 181}, {"note": 70, "velocity": 99, "duration": 259}, {"note": 0, "velocity": 0, "duration": 221}, {"note": 70, "velocity": 88, "duration": 238}, {"note": 67, "velocity": 92, "duration": 160}, {"note": 0, "velocity": 0, "duration": 80}, {"note": 65, "velocity": 88, "duration": 176}, {"note": 0, "velocity": 0, "duration": 64}, {"note": 63, "velocity": 95, "duration": 153}, {"note": 0, "velocity": 0, "duration": 87}, {"note": 67, "velocity": 92, "duration": 718}, {"note": 60, "velocity": 93, "duration": 171}, {"note": 0, "velocity": 0, "duration": 69}, {"note": 63, "velocity": 93, "duration": 144}, {"note": 0, "velocity": 0, "duration": 96}, {"note": 65, "velocity": 90, "duration": 478}, {"note": 65, "velocity": 90, "duration": 238}, {"note": 65, "velocity": 90, "duration": 238}, {"note": 65, "velocity": 93, "duration": 400}, {"note": 0, "velocity": 0, "duration": 80}, {"note": 63, "velocity": 92, "duration": 147}, {"note": 0, "velocity": 0, "duration": 93}, {"note": 65, "velocity": 90, "duration": 152}, {"note": 0, "velocity": 0, "duration": 88}, {"note": 67, "velocity": 86, "duration": 139}, {"note": 0, "velocity": 0, "duration": 101}, {"note": 67, "velocity": 89, "duration": 167}, {"note": 0, "velocity": 0, "duration": 73}, {"note": 70, "velocity": 89, "duration": 153}, {"note": 0, "velocity": 0, "duration": 87}, {"note": 67, "velocity": 92, "duration": 238}, {"note": 0, "velocity": 0, "duration": 242}, {"note": 67, "velocity": 92, "duration": 238}, {"note": 70, "velocity": 93, "duration": 161}, {"note": 0, "velocity": 0, "duration": 79}, {"note": 67, "velocity": 93, "duration": 139}, {"note": 0, "velocity": 0, "duration": 101}, {"note": 72, "velocity": 95, "duration": 143}, {"note": 0, "velocity": 0, "duration": 97}, {"note": 72, "velocity": 94, "duration": 238}, {"note": 72, "velocity": 94, "duration": 238}, {"note": 75, "velocity": 97, "duration": 176}, {"note": 0, "velocity": 0, "duration": 64}, {"note": 77, "velocity": 93, "duration": 358}, {"note": 0, "velocity": 0, "duration": 122}, {"note": 75, "velocity": 96, "duration": 238}, {"note": 72, "velocity": 94, "duration": 224}, {"note": 74, "velocity": 97, "duration": 1438}, {"note": 0, "velocity": 0, "duration": 1442}, {"note": 67, "velocity": 96, "duration": 410}, {"note": 0, "velocity": 0, "duration": 70}, {"note": 70, "velocity": 97, "duration": 358}, {"note": 0, "velocity": 0, "duration": 122}, {"note": 72, "velocity": 95, "duration": 156}, {"note": 0, "velocity": 0, "duration": 84}, {"note": 72, "velocity": 92, "duration": 148}, {"note": 0, "velocity": 0, "duration": 92}, {"note": 72, "velocity": 94, "duration": 177}, {"note": 0, "velocity": 0, "duration": 63}, {"note": 70, "velocity": 98, "duration": 178}, {"note": 0, "velocity": 0, "duration": 62}, {"note": 72, "velocity": 96, "duration": 200}, {"note": 79, "velocity": 96, "duration": 172}, {"note": 0, "velocity": 0, "duration": 68}, {"note": 77, "velocity": 93, "duration": 154}, {"note": 0, "velocity": 0, "duration": 86}, {"note": 75, "velocity": 90, "duration": 172}, {"note": 0, "velocity": 0, "duration": 68}, {"note": 77, "velocity": 94, "duration": 405}, {"note": 0, "velocity": 0, "duration": 75}, {"note": 77, "velocity": 93, "duration": 157}, {"note": 0, "velocity": 0, "duration": 83}, {"note": 75, "velocity": 96, "duration": 417}, {"note": 0, "velocity": 0, "duration": 63}, {"note": 72, "velocity": 95, "duration": 478}, {"note": 72, "velocity": 94, "duration": 146}, {"note": 0, "velocity": 0, "duration": 94}, {"note": 74, "velocity": 103, "duration": 139}, {"note": 0, "velocity": 0, "duration": 101}, {"note": 74, "velocity": 96, "duration": 148}, {"note": 0, "velocity": 0, "duration": 92}, {"note": 74, "velocity": 98, "duration": 154}, {"note": 0, "velocity": 0, "duration": 86}, {"note": 75, "velocity": 96, "duration": 152}, {"note": 0, "velocity": 0, "duration": 88}, {"note": 77, "velocity": 88, "duration": 156}, {"note": 0, "velocity": 0, "duration": 84}, {"note": 75, "velocity": 96, "duration": 156}, {"note": 0, "velocity": 0, "duration": 84}, {"note": 77, "velocity": 93, "duration": 129}, {"note": 0, "velocity": 0, "duration": 111}, {"note": 80, "velocity": 96, "duration": 386}, {"note": 0, "velocity": 0, "duration": 94}, {"note": 79, "velocity": 94, "duration": 594}, {"note": 0, "velocity": 0, "duration": 1086}, {"note": 79, "velocity": 93, "duration": 108}, {"note": 0, "velocity": 0, "duration": 132}, {"note": 79, "velocity": 93, "duration": 114}, {"note": 0, "velocity": 0, "duration": 126}, {"note": 79, "velocity": 93, "duration": 129}, {"note": 0, "velocity": 0, "duration": 111}, {"note": 79, "velocity": 92, "duration": 125}, {"note": 0, "velocity": 0, "duration": 115}, {"note": 79, "velocity": 93, "duration": 153}, {"note": 0, "velocity": 0, "duration": 87}, {"note": 77, "velocity": 93, "duration": 142}, {"note": 0, "velocity": 0, "duration": 98}, {"note": 77, "velocity": 91, "duration": 140}, {"note": 0, "velocity": 0, "duration": 100}, {"note": 75, "velocity": 94, "duration": 153}, {"note": 0, "velocity": 0, "duration": 87}, {"note": 75, "velocity": 93, "duration": 157}, {"note": 0, "velocity": 0, "duration": 83}, {"note": 77, "velocity": 85, "duration": 129}, {"note": 0, "velocity": 0, "duration": 111}, {"note": 77, "velocity": 87, "duration": 141}, {"note": 0, "velocity": 0, "duration": 99}, {"note": 75, "velocity": 93, "duration": 457}, {"note": 72, "velocity": 93, "duration": 556}, {"note": 0, "velocity": 0, "duration": 164}, {"note": 74, "velocity": 92, "duration": 114}, {"note": 0, "velocity": 0, "duration": 126}, {"note": 74, "velocity": 94, "duration": 139}, {"note": 0, "velocity": 0, "duration": 101}, {"note": 74, "velocity": 99, "duration": 126}, {"note": 0, "velocity": 0, "duration": 114}, {"note": 72, "velocity": 93, "duration": 157}, {"note": 0, "velocity": 0, "duration": 83}, {"note": 70, "velocity": 95, "duration": 204}, {"note": 67, "velocity": 91, "duration": 163}, {"note": 0, "velocity": 0, "duration": 77}, {"note": 70, "velocity": 92, "duration": 170}, {"note": 0, "velocity": 0, "duration": 70}, {"note": 72, "velocity": 93, "duration": 363}, {"note": 0, "velocity": 0, "duration": 117}, {"note": 72, "velocity": 93, "duration": 1202}, {"note": 67, "velocity": 96, "duration": 238}, {"note": 70, "velocity": 97, "duration": 238}, {"note": 72, "velocity": 95, "duration": 156}, {"note": 0, "velocity": 0, "duration": 84}, {"note": 72, "velocity": 92, "duration": 148}, {"note": 0, "velocity": 0, "duration": 92}, {"note": 72, "velocity": 94, "duration": 177}, {"note": 0, "velocity": 0, "duration": 63}, {"note": 70, "velocity": 98, "duration": 178}, {"note": 0, "velocity": 0, "duration": 62}, {"note": 72, "velocity": 96, "duration": 200}, {"note": 79, "velocity": 96, "duration": 172}, {"note": 0, "velocity": 0, "duration": 68}, {"note": 77, "velocity": 93, "duration": 154}, {"note": 0, "velocity": 0, "duration": 86}, {"note": 75, "velocity": 90, "duration": 172}, {"note": 0, "velocity": 0, "duration": 68}, {"note": 77, "velocity": 94, "duration": 405}, {"note": 0, "velocity": 0, "duration": 75}, {"note": 77, "velocity": 93, "duration": 157}, {"note": 0, "velocity": 0, "duration": 83}, {"note": 75, "velocity": 96, "duration": 417}, {"note": 0, "velocity": 0, "duration": 63}, {"note": 72, "velocity": 95, "duration": 478}, {"note": 72, "velocity": 94, "duration": 146}, {"note": 0, "velocity": 0, "duration": 94}, {"note": 74, "velocity": 103, "duration": 139}, {"note": 0, "velocity": 0, "duration": 101}, {"note": 74, "velocity": 96, "duration": 148}, {"note": 0, "velocity": 0, "duration": 92}, {"note": 74, "velocity": 98, "duration": 154}, {"note": 0, "velocity": 0, "duration": 86}, {"note": 75, "velocity": 96, "duration": 152}, {"note": 0, "velocity": 0, "duration": 88}, {"note": 77, "velocity": 88, "duration": 156}, {"note": 0, "velocity": 0, "duration": 84}, {"note": 75, "velocity": 96, "duration": 156}, {"note": 0, "velocity": 0, "duration": 84}, {"note": 77, "velocity": 93, "duration": 129}, {"note": 0, "velocity": 0, "duration": 111}, {"note": 80, "velocity": 96, "duration": 386}, {"note": 0, "velocity": 0, "duration": 94}, {"note": 79, "velocity": 94, "duration": 594}, {"note": 0, "velocity": 0, "duration": 1086}, {"note": 79, "velocity": 93, "duration": 108}, {"note": 0, "velocity": 0, "duration": 132}, {"note": 79, "velocity": 93, "duration": 114}, {"note": 0, "velocity": 0, "duration": 126}, {"note": 79, "velocity": 93, "duration": 129}, {"note": 0, "velocity": 0, "duration": 111}, {"note": 79, "velocity": 92, "duration": 125}, {"note": 0, "velocity": 0, "duration": 115}, {"note": 79, "velocity": 93, "duration": 153}, {"note": 0, "velocity": 0, "duration": 87}, {"note": 77, "velocity": 93, "duration": 142}, {"note": 0, "velocity": 0, "duration": 98}, {"note": 77, "velocity": 91, "duration": 140}, {"note": 0, "velocity": 0, "duration": 100}, {"note": 75, "velocity": 94, "duration": 153}, {"note": 0, "velocity": 0, "duration": 87}, {"note": 77, "velocity": 93, "duration": 238}, {"note": 0, "velocity": 0, "duration": 242}, {"note": 77, "velocity": 87, "duration": 141}, {"note": 0, "velocity": 0, "duration": 99}, {"note": 75, "velocity": 93, "duration": 457}, {"note": 72, "velocity": 93, "duration": 478}, {"note": 72, "velocity": 93, "duration": 238}, {"note": 74, "velocity": 92, "duration": 114}, {"note": 0, "velocity": 0, "duration": 126}, {"note": 74, "velocity": 94, "duration": 139}, {"note": 0, "velocity": 0, "duration": 101}, {"note": 74, "velocity": 99, "duration": 126}, {"note": 0, "velocity": 0, "duration": 114}, {"note": 72, "velocity": 93, "duration": 157}, {"note": 0, "velocity": 0, "duration": 83}, {"note": 70, "velocity": 95, "duration": 204}, {"note": 67, "velocity": 91, "duration": 163}, {"note": 0, "velocity": 0, "duration": 77}, {"note": 70, "velocity": 92, "duration": 170}, {"note": 0, "velocity": 0, "duration": 70}, {"note": 72, "velocity": 93, "duration": 363}, {"note": 0, "velocity": 0, "duration": 117}, {"note": 72, "velocity": 93, "duration": 1202}, {"note": 0, "velocity": 0, "duration": 478}, {"note": 79, "velocity": 94, "duration": 1136}, {"note": 0, "velocity": 0, "duration": 64}, {"note": 79, "velocity": 94, "duration": 247}, {"note": 77, "velocity": 87, "duration": 252}, {"note": 75, "velocity": 93, "duration": 129}, {"note": 0, "velocity": 0, "duration": 111}, {"note": 77, "velocity": 92, "duration": 238}, {"note": 79, "velocity": 96, "duration": 478}, {"note": 72, "velocity": 94, "duration": 726}, {"note": 0, "velocity": 0, "duration": 234}, {"note": 72, "velocity": 94, "duration": 199}, {"note": 74, "velocity": 103, "duration": 114}, {"note": 0, "velocity": 0, "duration": 126}, {"note": 74, "velocity": 96, "duration": 134}, {"note": 0, "velocity": 0, "duration": 106}, {"note": 74, "velocity": 99, "duration": 169}, {"note": 0, "velocity": 0, "duration": 71}, {"note": 75, "velocity": 96, "duration": 139}, {"note": 0, "velocity": 0, "duration": 101}, {"note": 77, "velocity": 92, "duration": 135}, {"note": 0, "velocity": 0, "duration": 105}, {"note": 75, "velocity": 94, "duration": 226}, {"note": 77, "velocity": 93, "duration": 105}, {"note": 0, "velocity": 0, "duration": 135}, {"note": 80, "velocity": 94, "duration": 359}, {"note": 0, "velocity": 0, "duration": 121}, {"note": 79, "velocity": 95, "duration": 1404}, {"note": 0, "velocity": 0, "duration": 276}, {"note": 79, "velocity": 94, "duration": 1136}, {"note": 0, "velocity": 0, "duration": 64}, {"note": 79, "velocity": 94, "duration": 247}, {"note": 77, "velocity": 87, "duration": 252}, {"note": 75, "velocity": 93, "duration": 129}, {"note": 0, "velocity": 0, "duration": 111}, {"note": 77, "velocity": 92, "duration": 238}, {"note": 79, "velocity": 96, "duration": 478}, {"note": 72, "velocity": 94, "duration": 726}, {"note": 0, "velocity": 0, "duration": 234}, {"note": 72, "velocity": 94, "duration": 199}, {"note": 74, "velocity": 103, "duration": 114}, {"note": 0, "velocity": 0, "duration": 126}, {"note": 74, "velocity": 96, "duration": 134}, {"note": 0, "velocity": 0, "duration": 106}, {"note": 74, "velocity": 99, "duration": 169}, {"note": 0, "velocity": 0, "duration": 71}, {"note": 75, "velocity": 96, "duration": 139}, {"note": 0, "velocity": 0, "duration": 101}, {"note": 74, "velocity": 92, "duration": 135}, {"note": 0, "velocity": 0, "duration": 105}, {"note": 72, "velocity": 94, "duration": 478}, {"note": 70, "velocity": 94, "duration": 238}, {"note": 72, "velocity": 95, "duration": 478}, {"note": 72, "velocity": 95, "duration": 924}, {"note": 0, "velocity": 0, "duration": 240}, {"note": 72, "velocity": 94, "duration": 189}, {"note": 0, "velocity": 0, "duration": 68}, {"note": 74, "velocity": 98, "duration": 129}, {"note": 0, "velocity": 0, "duration": 112}, {"note": 74, "velocity": 96, "duration": 134}, {"note": 0, "velocity": 0, "duration": 109}, {"note": 74, "velocity": 96, "duration": 157}, {"note": 0, "velocity": 0, "duration": 87}, {"note": 75, "velocity": 94, "duration": 228}, {"note": 0, "velocity": 0, "duration": 62}, {"note": 74, "velocity": 103, "duration": 241}, {"note": 0, "velocity": 0, "duration": 95}, {"note": 72, "velocity": 93, "duration": 268}, {"note": 0, "velocity": 0, "duration": 115}, {"note": 70, "velocity": 94, "duration": 1787}, {"note": 0, "velocity": 0, "duration": 815}, {"note": 72, "velocity": 92, "duration": 718}, {"note": 0, "velocity": 0, "duration": 786}, {"note": 72, "velocity": 93, "duration": 1664}]]