[[{"note": 62, "velocity": 88, "duration": 205}, {"note": 64, "velocity": 91, "duration": 222}, {"note": 65, "velocity": 85, "duration": 198}, {"note": 67, "velocity": 82, "duration": 287}, {"note": 0, "velocity": 0, "duration": 73}, {"note": 67, "velocity": 85, "duration": 98}, {"note": 64, "velocity": 88, "duration": 224}, {"note": 62, "velocity": 84, "duration": 252}, {"note": 60, "velocity": 84, "duration": 273}, {"note": 62, "velocity": 88, "duration": 996}, {"note": 0, "velocity": 0, "duration": 924}, {"note": 62, "velocity": 88, "duration": 245}, {"note": 64, "velocity": 88, "duration": 225}, {"note": 65, "velocity": 84, "duration": 269}, {"note": 67, "velocity": 84, "duration": 323}, {"note": 67, "velocity": 84, "duration": 77}, {"note": 67, "velocity": 86, "duration": 194}, {"note": 72, "velocity": 90, "duration": 170}, {"note": 0, "velocity": 0, "duration": 70}, {"note": 74, "velocity": 91, "duration": 270}, {"note": 72, "velocity": 88, "duration": 130}, {"note": 69, "velocity": 85, "duration": 1107}, {"note": 0, "velocity": 0, "duration": 693}, {"note": 74, "velocity": 85, "duration": 80}, {"note": 74, "velocity": 88, "duration": 82}, {"note": 74, "velocity": 89, "duration": 169}, {"note": 0, "velocity": 0, "duration": 71}, {"note": 72, "velocity": 84, "duration": 89}, {"note": 74, "velocity": 88, "duration": 359}, {"note": 72, "velocity": 84, "duration": 707}, {"note": 0, "velocity": 0, "duration": 253}, {"note": 69, "velocity": 84, "duration": 69}, {"note": 69, "velocity": 84, "duration": 91}, {"note": 67, "velocity": 86, "duration": 222}, {"note": 65, "velocity": 83, "duration": 239}, {"note": 67, "velocity": 84, "duration": 253}, {"note": 69, "velocity": 83, "duration": 734}, {"note": 0, "velocity": 0, "duration": 226}, {"note": 62, "velocity": 85, "duration": 65}, {"note": 62, "velocity": 84, "duration": 85}, {"note": 64, "velocity": 88, "duration": 176}, {"note": 0, "velocity": 0, "duration": 64}, {"note": 65, "velocity": 84, "duration": 172}, {"note": 0, "velocity": 0, "duration": 68}, {"note": 67, "velocity": 80, "duration": 297}, {"note": 0, "velocity": 0, "duration": 63}, {"note": 67, "velocity": 85, "duration": 98}, {"note": 64, "velocity": 86, "duration": 222}, {"note": 62, "velocity": 85, "duration": 269}, {"note": 60, "velocity": 87, "duration": 246}, {"note": 62, "velocity": 81, "duration": 1637}, {"note": 0, "velocity": 0, "duration": 283}, {"note": 62, "velocity": 88, "duration": 205}, {"note": 64, "velocity": 91, "duration": 222}, {"note": 65, "velocity": 85, "duration": 198}, {"note": 67, "velocity": 82, "duration": 457}, {"note": 64, "velocity": 88, "duration": 224}, {"note": 62, "velocity": 84, "duration": 252}, {"note": 60, "velocity": 84, "duration": 273}, {"note": 62, "velocity": 88, "duration": 996}, {"note": 0, "velocity": 0, "duration": 924}, {"note": 62, "velocity": 88, "duration": 245}, {"note": 64, "velocity": 88, "duration": 225}, {"note": 65, "velocity": 84, "duration": 269}, {"note": 67, "velocity": 84, "duration": 323}, {"note": 67, "velocity": 84, "duration": 77}, {"note": 67, "velocity": 86, "duration": 194}, {"note": 72, "velocity": 90, "duration": 170}, {"note": 0, "velocity": 0, "duration": 70}, {"note": 74, "velocity": 91, "duration": 270}, {"note": 72, "velocity": 88, "duration": 130}, {"note": 69, "velocity": 85, "duration": 1107}, {"note": 0, "velocity": 0, "duration": 693}, {"note": 74, "velocity": 85, "duration": 80}, {"note": 74, "velocity": 88, "duration": 82}, {"note": 74, "velocity": 89, "duration": 169}, {"note": 0, "velocity": 0, "duration": 71}, {"note": 72, "velocity": 84, "duration": 89}, {"note": 74, "velocity": 88, "duration": 359}, {"note": 72, "velocity": 84, "duration": 707}, {"note": 0, "velocity": 0, "duration": 253}, {"note": 69, "velocity": 84, "duration": 69}, {"note": 69, "velocity": 84, "duration": 91}, {"note": 67, "velocity": 86, "duration": 222}, {"note": 65, "velocity": 83, "duration": 239}, {"note": 67, "velocity": 84, "duration": 253}, {"note": 69, "velocity": 83, "duration": 734}, {"note": 0, "velocity": 0, "duration": 226}, {"note": 62, "velocity": 85, "duration": 65}, {"note": 62, "velocity": 84, "duration": 85}, {"note": 64, "velocity": 88, "duration": 176}, {"note": 0, "velocity": 0, "duration": 64}, {"note": 65, "velocity": 84, "duration": 172}, {"note": 0, "velocity": 0, "duration": 68}, {"note": 67, "velocity": 80, "duration": 297}, {"note": 0, "velocity": 0, "duration": 63}, {"note": 67, "velocity": 85, "duration": 98}, {"note": 64, "velocity": 86, "duration": 222}, {"note": 62, "velocity": 85, "duration": 269}, {"note": 60, "velocity": 87, "duration": 246}, {"note": 62, "velocity": 81, "duration": 1637}, {"note": 0, "velocity": 0, "duration": 283}, {"note": 67, "velocity": 84, "duration": 68}, {"note": 67, "velocity": 84, "duration": 56}, {"note": 0, "velocity": 0, "duration": 64}, {"note": 67, "velocity": 87, "duration": 219}, {"note": 65, "velocity": 85, "duration": 253}, {"note": 67, "velocity": 85, "duration": 917}, {"note": 0, "velocity": 0, "duration": 283}, {"note": 67, "velocity": 85, "duration": 105}, {"note": 67, "velocity": 85, "duration": 105}, {"note": 64, "velocity": 86, "duration": 241}, {"note": 62, "velocity": 84, "duration": 84}, {"note": 60, "velocity": 80, "duration": 263}, {"note": 62, "velocity": 85, "duration": 834}, {"note": 0, "velocity": 0, "duration": 246}, {"note": 67, "velocity": 85, "duration": 66}, {"note": 67, "velocity": 84, "duration": 68}, {"note": 67, "velocity": 88, "duration": 229}, {"note": 65, "velocity": 90, "duration": 259}, {"note": 67, "velocity": 88, "duration": 486}, {"note": 72, "velocity": 91, "duration": 89}, {"note": 69, "velocity": 86, "duration": 66}, {"note": 69, "velocity": 88, "duration": 97}, {"note": 72, "velocity": 90, "duration": 74}, {"note": 76, "velocity": 93, "duration": 1290}, {"note": 0, "velocity": 0, "duration": 510}, {"note": 69, "velocity": 88, "duration": 127}, {"note": 74, "velocity": 88, "duration": 105}, {"note": 72, "velocity": 88, "duration": 130}, {"note": 74, "velocity": 87, "duration": 110}, {"note": 72, "velocity": 87, "duration": 134}, {"note": 74, "velocity": 89, "duration": 131}, {"note": 77, "velocity": 88, "duration": 232}, {"note": 0, "velocity": 0, "duration": 128}, {"note": 74, "velocity": 88, "duration": 78}, {"note": 72, "velocity": 88, "duration": 59}, {"note": 0, "velocity": 0, "duration": 61}, {"note": 72, "velocity": 87, "duration": 95}, {"note": 72, "velocity": 86, "duration": 92}, {"note": 74, "velocity": 86, "duration": 207}, {"note": 72, "velocity": 85, "duration": 184}, {"note": 65, "velocity": 90, "duration": 74}, {"note": 65, "velocity": 85, "duration": 57}, {"note": 0, "velocity": 0, "duration": 63}, {"note": 65, "velocity": 86, "duration": 57}, {"note": 0, "velocity": 0, "duration": 63}, {"note": 65, "velocity": 86, "duration": 71}, {"note": 67, "velocity": 90, "duration": 234}, {"note": 65, "velocity": 86, "duration": 83}, {"note": 69, "velocity": 86, "duration": 615}, {"note": 0, "velocity": 0, "duration": 345}, {"note": 69, "velocity": 84, "duration": 120}, {"note": 74, "velocity": 91, "duration": 101}, {"note": 72, "velocity": 87, "duration": 119}, {"note": 74, "velocity": 86, "duration": 105}, {"note": 72, "velocity": 86, "duration": 133}, {"note": 74, "velocity": 93, "duration": 125}, {"note": 77, "velocity": 91, "duration": 278}, {"note": 79, "velocity": 86, "duration": 190}, {"note": 79, "velocity": 84, "duration": 76}, {"note": 79, "velocity": 85, "duration": 76}, {"note": 76, "velocity": 84, "duration": 69}, {"note": 74, "velocity": 88, "duration": 63}, {"note": 72, "velocity": 91, "duration": 296}, {"note": 0, "velocity": 0, "duration": 64}, {"note": 74, "velocity": 84, "duration": 72}, {"note": 74, "velocity": 88, "duration": 56}, {"note": 0, "velocity": 0, "duration": 64}, {"note": 74, "velocity": 86, "duration": 55}, {"note": 0, "velocity": 0, "duration": 65}, {"note": 74, "velocity": 91, "duration": 62}, {"note": 74, "velocity": 95, "duration": 66}, {"note": 77, "velocity": 86, "duration": 339}, {"note": 76, "velocity": 88, "duration": 730}, {"note": 0, "velocity": 0, "duration": 110}, {"note": 69, "velocity": 88, "duration": 127}, {"note": 74, "velocity": 88, "duration": 105}, {"note": 72, "velocity": 88, "duration": 130}, {"note": 74, "velocity": 87, "duration": 110}, {"note": 72, "velocity": 87, "duration": 134}, {"note": 74, "velocity": 89, "duration": 131}, {"note": 77, "velocity": 88, "duration": 232}, {"note": 0, "velocity": 0, "duration": 128}, {"note": 74, "velocity": 88, "duration": 78}, {"note": 72, "velocity": 88, "duration": 59}, {"note": 0, "velocity": 0, "duration": 61}, {"note": 72, "velocity": 87, "duration": 95}, {"note": 72, "velocity": 86, "duration": 92}, {"note": 74, "velocity": 86, "duration": 207}, {"note": 72, "velocity": 85, "duration": 184}, {"note": 65, "velocity": 90, "duration": 74}, {"note": 65, "velocity": 85, "duration": 57}, {"note": 0, "velocity": 0, "duration": 63}, {"note": 65, "velocity": 86, "duration": 57}, {"note": 0, "velocity": 0, "duration": 63}, {"note": 65, "velocity": 86, "duration": 71}, {"note": 67, "velocity": 90, "duration": 234}, {"note": 65, "velocity": 86, "duration": 83}, {"note": 67, "velocity": 86, "duration": 240}, {"note": 69, "velocity": 86, "duration": 375}, {"note": 0, "velocity": 0, "duration": 345}, {"note": 69, "velocity": 84, "duration": 120}, {"note": 74, "velocity": 91, "duration": 101}, {"note": 72, "velocity": 87, "duration": 119}, {"note": 74, "velocity": 86, "duration": 105}, {"note": 72, "velocity": 86, "duration": 133}, {"note": 74, "velocity": 93, "duration": 125}, {"note": 77, "velocity": 91, "duration": 278}, {"note": 79, "velocity": 86, "duration": 190}, {"note": 79, "velocity": 84, "duration": 76}, {"note": 79, "velocity": 85, "duration": 76}, {"note": 76, "velocity": 84, "duration": 69}, {"note": 74, "velocity": 88, "duration": 63}, {"note": 72, "velocity": 91, "duration": 296}, {"note": 0, "velocity": 0, "duration": 64}, {"note": 74, "velocity": 84, "duration": 72}, {"note": 74, "velocity": 88, "duration": 56}, {"note": 0, "velocity": 0, "duration": 64}, {"note": 74, "velocity": 86, "duration": 55}, {"note": 0, "velocity": 0, "duration": 65}, {"note": 74, "velocity": 91, "duration": 62}, {"note": 74, "velocity": 95, "duration": 66}, {"note": 77, "velocity": 86, "duration": 339}, {"note": 76, "velocity": 88, "duration": 480}, {"note": 77, "velocity": 87, "duration": 216}, {"note": 76, "velocity": 87, "duration": 240}, {"note": 72, "velocity": 84, "duration": 243}, {"note": 74, "velocity": 91, "duration": 1635}, {"note": 0, "velocity": 0, "duration": 7965}, {"note": 62, "velocity": 88, "duration": 205}, {"note": 64, "velocity": 91, "duration": 222}, {"note": 65, "velocity": 85, "duration": 198}, {"note": 67, "velocity": 82, "duration": 457}, {"note": 64, "velocity": 88, "duration": 224}, {"note": 62, "velocity": 84, "duration": 252}, {"note": 60, "velocity": 84, "duration": 273}, {"note": 62, "velocity": 88, "duration": 996}, {"note": 0, "velocity": 0, "duration": 924}, {"note": 62, "velocity": 88, "duration": 245}, {"note": 64, "velocity": 88, "duration": 225}, {"note": 65, "velocity": 84, "duration": 269}, {"note": 67, "velocity": 84, "duration": 323}, {"note": 67, "velocity": 84, "duration": 77}, {"note": 67, "velocity": 86, "duration": 194}, {"note": 72, "velocity": 90, "duration": 170}, {"note": 0, "velocity": 0, "duration": 70}, {"note": 74, "velocity": 91, "duration": 270}, {"note": 72, "velocity": 88, "duration": 130}, {"note": 69, "velocity": 85, "duration": 1107}, {"note": 0, "velocity": 0, "duration": 693}, {"note": 74, "velocity": 85, "duration": 80}, {"note": 74, "velocity": 88, "duration": 82}, {"note": 74, "velocity": 89, "duration": 169}, {"note": 0, "velocity": 0, "duration": 71}, {"note": 72, "velocity": 84, "duration": 89}, {"note": 74, "velocity": 88, "duration": 359}, {"note": 72, "velocity": 84, "duration": 707}, {"note": 0, "velocity": 0, "duration": 253}, {"note": 69, "velocity": 84, "duration": 69}, {"note": 69, "velocity": 84, "duration": 91}, {"note": 67, "velocity": 86, "duration": 222}, {"note": 65, "velocity": 83, "duration": 239}, {"note": 67, "velocity": 84, "duration": 253}, {"note": 69, "velocity": 83, "duration": 734}, {"note": 0, "velocity": 0, "duration": 226}, {"note": 62, "velocity": 85, "duration": 65}, {"note": 62, "velocity": 84, "duration": 85}, {"note": 64, "velocity": 88, "duration": 176}, {"note": 0, "velocity": 0, "duration": 64}, {"note": 65, "velocity": 84, "duration": 172}, {"note": 0, "velocity": 0, "duration": 68}, {"note": 67, "velocity": 80, "duration": 297}, {"note": 0, "velocity": 0, "duration": 63}, {"note": 67, "velocity": 85, "duration": 98}, {"note": 64, "velocity": 86, "duration": 222}, {"note": 62, "velocity": 85, "duration": 269}, {"note": 60, "velocity": 87, "duration": 246}, {"note": 62, "velocity": 81, "duration": 1637}, {"note": 0, "velocity": 0, "duration": 283}, {"note": 67, "velocity": 84, "duration": 68}, {"note": 67, "velocity": 84, "duration": 56}, {"note": 0, "velocity": 0, "duration": 64}, {"note": 67, "velocity": 87, "duration": 219}, {"note": 65, "velocity": 85, "duration": 253}, {"note": 67, "velocity": 85, "duration": 917}, {"note": 0, "velocity": 0, "duration": 283}, {"note": 67, "velocity": 85, "duration": 105}, {"note": 67, "velocity": 85, "duration": 105}, {"note": 64, "velocity": 86, "duration": 241}, {"note": 62, "velocity": 84, "duration": 84}, {"note": 60, "velocity": 80, "duration": 263}, {"note": 62, "velocity": 85, "duration": 834}, {"note": 0, "velocity": 0, "duration": 246}, {"note": 67, "velocity": 85, "duration": 66}, {"note": 67, "velocity": 84, "duration": 68}, {"note": 67, "velocity": 88, "duration": 229}, {"note": 65, "velocity": 90, "duration": 259}, {"note": 67, "velocity": 88, "duration": 486}, {"note": 72, "velocity": 91, "duration": 89}, {"note": 69, "velocity": 86, "duration": 66}, {"note": 69, "velocity": 88, "duration": 97}, {"note": 72, "velocity": 90, "duration": 74}, {"note": 76, "velocity": 93, "duration": 1290}, {"note": 0, "velocity": 0, "duration": 510}, {"note": 69, "velocity": 88, "duration": 127}, {"note": 74, "velocity": 88, "duration": 105}, {"note": 72, "velocity": 88, "duration": 130}, {"note": 74, "velocity": 87, "duration": 110}, {"note": 72, "velocity": 87, "duration": 134}, {"note": 74, "velocity": 89, "duration": 131}, {"note": 77, "velocity": 88, "duration": 232}, {"note": 0, "velocity": 0, "duration": 128}, {"note": 74, "velocity": 88, "duration": 78}, {"note": 72, "velocity": 88, "duration": 59}, {"note": 0, "velocity": 0, "duration": 61}, {"note": 72, "velocity": 87, "duration": 95}, {"note": 72, "velocity": 86, "duration": 92}, {"note": 74, "velocity": 86, "duration": 207}, {"note": 72, "velocity": 85, "duration": 184}, {"note": 65, "velocity": 90, "duration": 74}, {"note": 65, "velocity": 85, "duration": 57}, {"note": 0, "velocity": 0, "duration": 63}, {"note": 65, "velocity": 86, "duration": 57}, {"note": 0, "velocity": 0, "duration": 63}, {"note": 65, "velocity": 86, "duration": 71}, {"note": 67, "velocity": 90, "duration": 234}, {"note": 65, "velocity": 86, "duration": 83}, {"note": 69, "velocity": 86, "duration": 615}, {"note": 0, "velocity": 0, "duration": 345}, {"note": 69, "velocity": 84, "duration": 120}, {"note": 74, "velocity": 91, "duration": 101}, {"note": 72, "velocity": 87, "duration": 119}, {"note": 74, "velocity": 86, "duration": 105}, {"note": 72, "velocity": 86, "duration": 133}, {"note": 74, "velocity": 93, "duration": 125}, {"note": 77, "velocity": 91, "duration": 278}, {"note": 79, "velocity": 86, "duration": 190}, {"note": 79, "velocity": 84, "duration": 76}, {"note": 79, "velocity": 85, "duration": 76}, {"note": 76, "velocity": 84, "duration": 69}, {"note": 74, "velocity": 88, "duration": 63}, {"note": 72, "velocity": 91, "duration": 296}, {"note": 0, "velocity": 0, "duration": 64}, {"note": 74, "velocity": 84, "duration": 72}, {"note": 74, "velocity": 88, "duration": 56}, {"note": 0, "velocity": 0, "duration": 64}, {"note": 74, "velocity": 86, "duration": 55}, {"note": 0, "velocity": 0, "duration": 65}, {"note": 74, "velocity": 91, "duration": 62}, {"note": 74, "velocity": 95, "duration": 66}, {"note": 77, "velocity": 86, "duration": 339}, {"note": 76, "velocity": 88, "duration": 730}, {"note": 0, "velocity": 0, "duration": 110}, {"note": 69, "velocity": 88, "duration": 127}, {"note": 74, "velocity": 88, "duration": 105}, {"note": 72, "velocity": 88, "duration": 130}, {"note": 74, "velocity": 87, "duration": 110}, {"note": 72, "velocity": 87, "duration": 134}, {"note": 74, "velocity": 89, "duration": 131}, {"note": 77, "velocity": 88, "duration": 232}, {"note": 0, "velocity": 0, "duration": 128}, {"note": 74, "velocity": 88, "duration": 78}, {"note": 72, "velocity": 88, "duration": 59}, {"note": 0, "velocity": 0, "duration": 61}, {"note": 72, "velocity": 87, "duration": 95}, {"note": 72, "velocity": 86, "duration": 92}, {"note": 74, "velocity": 86, "duration": 207}, {"note": 72, "velocity": 85, "duration": 184}, {"note": 65, "velocity": 90, "duration": 74}, {"note": 65, "velocity": 85, "duration": 57}, {"note": 0, "velocity": 0, "duration": 63}, {"note": 65, "velocity": 86, "duration": 57}, {"note": 0, "velocity": 0, "duration": 63}, {"note": 65, "velocity": 86, "duration": 71}, {"note": 67, "velocity": 90, "duration": 234}, {"note": 65, "velocity": 86, "duration": 83}, {"note": 67, "velocity": 86, "duration": 240}, {"note": 69, "velocity": 86, "duration": 375}, {"note": 0, "velocity": 0, "duration": 345}, {"note": 69, "velocity": 84, "duration": 120}, {"note": 74, "velocity": 91, "duration": 101}, {"note": 72, "velocity": 87, "duration": 119}, {"note": 74, "velocity": 86, "duration": 105}, {"note": 72, "velocity": 86, "duration": 133}, {"note": 74, "velocity": 93, "duration": 125}, {"note": 77, "velocity": 91, "duration": 278}, {"note": 79, "velocity": 86, "duration": 190}, {"note": 79, "velocity": 84, "duration": 76}, {"note": 79, "velocity": 85, "duration": 76}, {"note": 76, "velocity": 84, "duration": 69}, {"note": 74, "velocity": 88, "duration": 63}, {"note": 72, "velocity": 91, "duration": 296}, {"note": 0, "velocity": 0, "duration": 64}, {"note": 74, "velocity": 84, "duration": 72}, {"note": 74, "velocity": 88, "duration": 56}, {"note": 0, "velocity": 0, "duration": 64}, {"note": 74, "velocity": 86, "duration": 55}, {"note": 0, "velocity": 0, "duration": 65}, {"note": 74, "velocity": 91, "duration": 62}, {"note": 74, "velocity": 95, "duration": 66}, {"note": 77, "velocity": 86, "duration": 339}, {"note": 76, "velocity": 88, "duration": 480}, {"note": 77, "velocity": 87, "duration": 216}, {"note": 76, "velocity": 87, "duration": 240}, {"note": 72, "velocity": 84, "duration": 243}, {"note": 74, "velocity": 91, "duration": 1635}, {"note": 0, "velocity": 0, "duration": 885}, {"note": 69, "velocity": 88, "duration": 127}, {"note": 74, "velocity": 88, "duration": 105}, {"note": 72, "velocity": 88, "duration": 130}, {"note": 74, "velocity": 87, "duration": 110}, {"note": 72, "velocity": 87, "duration": 134}, {"note": 74, "velocity": 89, "duration": 131}, {"note": 77, "velocity": 88, "duration": 232}, {"note": 0, "velocity": 0, "duration": 128}, {"note": 74, "velocity": 88, "duration": 78}, {"note": 72, "velocity": 88, "duration": 59}, {"note": 0, "velocity": 0, "duration": 61}, {"note": 72, "velocity": 87, "duration": 95}, {"note": 72, "velocity": 86, "duration": 92}, {"note": 74, "velocity": 86, "duration": 207}, {"note": 72, "velocity": 85, "duration": 184}, {"note": 65, "velocity": 90, "duration": 74}, {"note": 65, "velocity": 85, "duration": 57}, {"note": 0, "velocity": 0, "duration": 63}, {"note": 65, "velocity": 86, "duration": 57}, {"note": 0, "velocity": 0, "duration": 63}, {"note": 65, "velocity": 86, "duration": 71}, {"note": 67, "velocity": 90, "duration": 234}, {"note": 65, "velocity": 86, "duration": 83}, {"note": 69, "velocity": 86, "duration": 615}, {"note": 0, "velocity": 0, "duration": 345}, {"note": 69, "velocity": 84, "duration": 120}, {"note": 74, "velocity": 91, "duration": 101}, {"note": 72, "velocity": 87, "duration": 119}, {"note": 74, "velocity": 86, "duration": 105}, {"note": 72, "velocity": 86, "duration": 133}, {"note": 74, "velocity": 93, "duration": 125}, {"note": 77, "velocity": 91, "duration": 278}, {"note": 79, "velocity": 86, "duration": 190}, {"note": 79, "velocity": 84, "duration": 76}, {"note": 79, "velocity": 85, "duration": 76}, {"note": 76, "velocity": 84, "duration": 69}, {"note": 74, "velocity": 88, "duration": 63}, {"note": 72, "velocity": 91, "duration": 296}, {"note": 0, "velocity": 0, "duration": 64}, {"note": 74, "velocity": 84, "duration": 72}, {"note": 74, "velocity": 88, "duration": 56}, {"note": 0, "velocity": 0, "duration": 64}, {"note": 74, "velocity": 86, "duration": 55}, {"note": 0, "velocity": 0, "duration": 65}, {"note": 74, "velocity": 91, "duration": 62}, {"note": 74, "velocity": 95, "duration": 66}, {"note": 77, "velocity": 86, "duration": 339}, {"note": 76, "velocity": 88, "duration": 730}, {"note": 0, "velocity": 0, "duration": 110}, {"note": 69, "velocity": 88, "duration": 127}, {"note": 74, "velocity": 88, "duration": 105}, {"note": 72, "velocity": 88, "duration": 130}, {"note": 74, "velocity": 87, "duration": 110}, {"note": 72, "velocity": 87, "duration": 134}, {"note": 74, "velocity": 89, "duration": 131}, {"note": 77, "velocity": 88, "duration": 232}, {"note": 0, "velocity": 0, "duration": 128}, {"note": 74, "velocity": 88, "duration": 78}, {"note": 72, "velocity": 88, "duration": 59}, {"note": 0, "velocity": 0, "duration": 61}, {"note": 72, "velocity": 87, "duration": 95}, {"note": 72, "velocity": 86, "duration": 92}, {"note": 74, "velocity": 86, "duration": 207}, {"note": 72, "velocity": 85, "duration": 184}, {"note": 65, "velocity": 90, "duration": 74}, {"note": 65, "velocity": 85, "duration": 57}, {"note": 0, "velocity": 0, "duration": 63}, {"note": 65, "velocity": 86, "duration": 57}, {"note": 0, "velocity": 0, "duration": 63}, {"note": 65, "velocity": 86, "duration": 71}, {"note": 67, "velocity": 90, "duration": 234}, {"note": 65, "velocity": 86, "duration": 83}, {"note": 67, "velocity": 86, "duration": 240}, {"note": 69, "velocity": 86, "duration": 375}, {"note": 0, "velocity": 0, "duration": 345}, {"note": 69, "velocity": 84, "duration": 120}, {"note": 74, "velocity": 91, "duration": 101}, {"note": 72, "velocity": 87, "duration": 119}, {"note": 74, "velocity": 86, "duration": 105}, {"note": 72, "velocity": 86, "duration": 133}, {"note": 74, "velocity": 93, "duration": 125}, {"note": 77, "velocity": 91, "duration": 278}, {"note": 79, "velocity": 86, "duration": 190}, {"note": 79, "velocity": 84, "duration": 76}, {"note": 79, "velocity": 85, "duration": 76}, {"note": 76, "velocity": 84, "duration": 69}, {"note": 74, "velocity": 88, "duration": 63}, {"note": 72, "velocity": 91, "duration": 296}, {"note": 0, "velocity": 0, "duration": 64}, {"note": 74, "velocity": 84, "duration": 72}, {"note": 74, "velocity": 88, "duration": 56}, {"note": 0, "velocity": 0, "duration": 64}, {"note": 74, "velocity": 86, "duration": 55}, {"note": 0, "velocity": 0, "duration": 65}, {"note": 74, "velocity": 91, "duration": 62}, {"note": 74, "velocity": 95, "duration": 66}, {"note": 77, "velocity": 86, "duration": 339}, {"note": 76, "velocity": 88, "duration": 480}, {"note": 0, "velocity": 0, "duration": 443}, {"note": 77, "velocity": 90, "duration": 300}, {"note": 76, "velocity": 90, "duration": 397}, {"note": 72, "velocity": 88, "duration": 256}, {"note": 74, "velocity": 90, "duration": 2313}]]