[[{"note": 63, "velocity": 85, "duration": 102}, {"note": 62, "velocity": 80, "duration": 76}, {"note": 63, "velocity": 85, "duration": 203}, {"note": 62, "velocity": 84, "duration": 90}, {"note": 63, "velocity": 84, "duration": 601}, {"note": 0, "velocity": 0, "duration": 239}, {"note": 63, "velocity": 87, "duration": 131}, {"note": 65, "velocity": 85, "duration": 135}, {"note": 67, "velocity": 84, "duration": 215}, {"note": 65, "velocity": 77, "duration": 146}, {"note": 67, "velocity": 87, "duration": 248}, {"note": 70, "velocity": 86, "duration": 259}, {"note": 67, "velocity": 84, "duration": 252}, {"note": 65, "velocity": 81, "duration": 729}, {"note": 0, "velocity": 0, "duration": 351}, {"note": 72, "velocity": 84, "duration": 120}, {"note": 70, "velocity": 88, "duration": 118}, {"note": 72, "velocity": 90, "duration": 254}, {"note": 70, "velocity": 88, "duration": 138}, {"note": 72, "velocity": 86, "duration": 353}, {"note": 70, "velocity": 88, "duration": 410}, {"note": 0, "velocity": 0, "duration": 70}, {"note": 68, "velocity": 85, "duration": 136}, {"note": 70, "velocity": 86, "duration": 141}, {"note": 67, "velocity": 77, "duration": 873}, {"note": 0, "velocity": 0, "duration": 1287}, {"note": 63, "velocity": 85, "duration": 102}, {"note": 62, "velocity": 80, "duration": 76}, {"note": 63, "velocity": 85, "duration": 203}, {"note": 62, "velocity": 84, "duration": 90}, {"note": 63, "velocity": 84, "duration": 601}, {"note": 0, "velocity": 0, "duration": 239}, {"note": 63, "velocity": 87, "duration": 131}, {"note": 65, "velocity": 85, "duration": 135}, {"note": 67, "velocity": 84, "duration": 215}, {"note": 65, "velocity": 77, "duration": 146}, {"note": 67, "velocity": 87, "duration": 248}, {"note": 70, "velocity": 86, "duration": 259}, {"note": 67, "velocity": 84, "duration": 252}, {"note": 65, "velocity": 81, "duration": 729}, {"note": 0, "velocity": 0, "duration": 351}, {"note": 72, "velocity": 84, "duration": 120}, {"note": 70, "velocity": 88, "duration": 118}, {"note": 72, "velocity": 90, "duration": 254}, {"note": 70, "velocity": 88, "duration": 138}, {"note": 72, "velocity": 86, "duration": 353}, {"note": 70, "velocity": 88, "duration": 410}, {"note": 0, "velocity": 0, "duration": 70}, {"note": 70, "velocity": 85, "duration": 136}, {"note": 68, "velocity": 86, "duration": 255}, {"note": 70, "velocity": 86, "duration": 141}, {"note": 67, "velocity": 77, "duration": 618}, {"note": 0, "velocity": 0, "duration": 1287}, {"note": 75, "velocity": 85, "duration": 82}, {"note": 75, "velocity": 84, "duration": 348}, {"note": 74, "velocity": 86, "duration": 138}, {"note": 75, "velocity": 93, "duration": 661}, {"note": 0, "velocity": 0, "duration": 299}, {"note": 75, "velocity": 87, "duration": 170}, {"note": 74, "velocity": 86, "duration": 343}, {"note": 70, "velocity": 80, "duration": 110}, {"note": 0, "velocity": 0, "duration": 130}, {"note": 70, "velocity": 90, "duration": 236}, {"note": 67, "velocity": 81, "duration": 149}, {"note": 70, "velocity": 91, "duration": 810}, {"note": 63, "velocity": 88, "duration": 129}, {"note": 62, "velocity": 85, "duration": 142}, {"note": 63, "velocity": 90, "duration": 507}, {"note": 0, "velocity": 0, "duration": 213}, {"note": 63, "velocity": 87, "duration": 136}, {"note": 62, "velocity": 85, "duration": 120}, {"note": 63, "velocity": 87, "duration": 440}, {"note": 0, "velocity": 0, "duration": 280}, {"note": 67, "velocity": 85, "duration": 108}, {"note": 70, "velocity": 91, "duration": 86}, {"note": 72, "velocity": 84, "duration": 261}, {"note": 70, "velocity": 89, "duration": 128}, {"note": 0, "velocity": 0, "duration": 112}, {"note": 70, "velocity": 88, "duration": 237}, {"note": 67, "velocity": 81, "duration": 116}, {"note": 70, "velocity": 90, "duration": 690}, {"note": 0, "velocity": 0, "duration": 270}, {"note": 75, "velocity": 95, "duration": 71}, {"note": 82, "velocity": 95, "duration": 160}, {"note": 0, "velocity": 0, "duration": 80}, {"note": 82, "velocity": 90, "duration": 189}, {"note": 75, "velocity": 93, "duration": 204}, {"note": 72, "velocity": 88, "duration": 78}, {"note": 75, "velocity": 88, "duration": 652}, {"note": 0, "velocity": 0, "duration": 308}, {"note": 70, "velocity": 86, "duration": 66}, {"note": 70, "velocity": 89, "duration": 206}, {"note": 79, "velocity": 88, "duration": 103}, {"note": 79, "velocity": 88, "duration": 104}, {"note": 79, "velocity": 90, "duration": 187}, {"note": 77, "velocity": 85, "duration": 63}, {"note": 77, "velocity": 85, "duration": 626}, {"note": 0, "velocity": 0, "duration": 334}, {"note": 75, "velocity": 95, "duration": 71}, {"note": 82, "velocity": 95, "duration": 160}, {"note": 0, "velocity": 0, "duration": 80}, {"note": 82, "velocity": 90, "duration": 189}, {"note": 75, "velocity": 93, "duration": 204}, {"note": 72, "velocity": 88, "duration": 78}, {"note": 75, "velocity": 88, "duration": 652}, {"note": 0, "velocity": 0, "duration": 308}, {"note": 70, "velocity": 86, "duration": 66}, {"note": 70, "velocity": 89, "duration": 206}, {"note": 79, "velocity": 88, "duration": 172}, {"note": 0, "velocity": 0, "duration": 68}, {"note": 79, "velocity": 90, "duration": 187}, {"note": 77, "velocity": 85, "duration": 63}, {"note": 77, "velocity": 85, "duration": 626}, {"note": 0, "velocity": 0, "duration": 334}, {"note": 75, "velocity": 95, "duration": 71}, {"note": 82, "velocity": 95, "duration": 160}, {"note": 0, "velocity": 0, "duration": 80}, {"note": 82, "velocity": 90, "duration": 189}, {"note": 75, "velocity": 93, "duration": 204}, {"note": 72, "velocity": 88, "duration": 78}, {"note": 75, "velocity": 88, "duration": 652}, {"note": 0, "velocity": 0, "duration": 308}, {"note": 70, "velocity": 86, "duration": 66}, {"note": 70, "velocity": 89, "duration": 206}, {"note": 79, "velocity": 88, "duration": 101}, {"note": 79, "velocity": 88, "duration": 101}, {"note": 79, "velocity": 90, "duration": 187}, {"note": 77, "velocity": 85, "duration": 63}, {"note": 77, "velocity": 85, "duration": 626}, {"note": 0, "velocity": 0, "duration": 246}, {"note": 75, "velocity": 91, "duration": 91}, {"note": 75, "velocity": 88, "duration": 1275}, {"note": 0, "velocity": 0, "duration": 528}, {"note": 75, "velocity": 88, "duration": 104}, {"note": 75, "velocity": 88, "duration": 104}, {"note": 79, "velocity": 88, "duration": 157}, {"note": 0, "velocity": 0, "duration": 83}, {"note": 79, "velocity": 88, "duration": 162}, {"note": 0, "velocity": 0, "duration": 78}, {"note": 79, "velocity": 88, "duration": 190}, {"note": 77, "velocity": 83, "duration": 61}, {"note": 0, "velocity": 0, "duration": 77}, {"note": 77, "velocity": 83, "duration": 919}, {"note": 0, "velocity": 0, "duration": 8126}, {"note": 63, "velocity": 85, "duration": 102}, {"note": 62, "velocity": 80, "duration": 76}, {"note": 63, "velocity": 85, "duration": 203}, {"note": 62, "velocity": 84, "duration": 90}, {"note": 63, "velocity": 84, "duration": 601}, {"note": 0, "velocity": 0, "duration": 239}, {"note": 63, "velocity": 87, "duration": 131}, {"note": 65, "velocity": 85, "duration": 135}, {"note": 67, "velocity": 84, "duration": 215}, {"note": 65, "velocity": 77, "duration": 146}, {"note": 67, "velocity": 87, "duration": 248}, {"note": 70, "velocity": 86, "duration": 259}, {"note": 67, "velocity": 84, "duration": 252}, {"note": 65, "velocity": 81, "duration": 729}, {"note": 0, "velocity": 0, "duration": 351}, {"note": 72, "velocity": 84, "duration": 120}, {"note": 70, "velocity": 88, "duration": 118}, {"note": 72, "velocity": 90, "duration": 254}, {"note": 70, "velocity": 88, "duration": 138}, {"note": 72, "velocity": 86, "duration": 353}, {"note": 70, "velocity": 88, "duration": 410}, {"note": 0, "velocity": 0, "duration": 70}, {"note": 68, "velocity": 85, "duration": 136}, {"note": 70, "velocity": 86, "duration": 141}, {"note": 67, "velocity": 77, "duration": 873}, {"note": 0, "velocity": 0, "duration": 1287}, {"note": 75, "velocity": 85, "duration": 82}, {"note": 75, "velocity": 84, "duration": 348}, {"note": 74, "velocity": 86, "duration": 138}, {"note": 75, "velocity": 93, "duration": 661}, {"note": 0, "velocity": 0, "duration": 299}, {"note": 75, "velocity": 87, "duration": 170}, {"note": 74, "velocity": 86, "duration": 343}, {"note": 70, "velocity": 80, "duration": 110}, {"note": 0, "velocity": 0, "duration": 130}, {"note": 70, "velocity": 90, "duration": 236}, {"note": 67, "velocity": 81, "duration": 149}, {"note": 70, "velocity": 91, "duration": 810}, {"note": 63, "velocity": 88, "duration": 129}, {"note": 62, "velocity": 85, "duration": 142}, {"note": 63, "velocity": 90, "duration": 507}, {"note": 0, "velocity": 0, "duration": 213}, {"note": 63, "velocity": 87, "duration": 136}, {"note": 62, "velocity": 85, "duration": 120}, {"note": 63, "velocity": 87, "duration": 440}, {"note": 0, "velocity": 0, "duration": 280}, {"note": 67, "velocity": 85, "duration": 108}, {"note": 70, "velocity": 91, "duration": 86}, {"note": 72, "velocity": 84, "duration": 261}, {"note": 70, "velocity": 89, "duration": 128}, {"note": 0, "velocity": 0, "duration": 112}, {"note": 70, "velocity": 88, "duration": 237}, {"note": 67, "velocity": 81, "duration": 116}, {"note": 70, "velocity": 90, "duration": 690}, {"note": 0, "velocity": 0, "duration": 270}, {"note": 75, "velocity": 95, "duration": 71}, {"note": 82, "velocity": 95, "duration": 160}, {"note": 0, "velocity": 0, "duration": 80}, {"note": 82, "velocity": 90, "duration": 189}, {"note": 75, "velocity": 93, "duration": 204}, {"note": 72, "velocity": 88, "duration": 78}, {"note": 75, "velocity": 88, "duration": 652}, {"note": 0, "velocity": 0, "duration": 308}, {"note": 70, "velocity": 86, "duration": 66}, {"note": 70, "velocity": 89, "duration": 206}, {"note": 79, "velocity": 88, "duration": 106}, {"note": 79, "velocity": 88, "duration": 107}, {"note": 79, "velocity": 90, "duration": 187}, {"note": 77, "velocity": 85, "duration": 63}, {"note": 77, "velocity": 85, "duration": 626}, {"note": 0, "velocity": 0, "duration": 334}, {"note": 75, "velocity": 95, "duration": 71}, {"note": 82, "velocity": 95, "duration": 160}, {"note": 0, "velocity": 0, "duration": 80}, {"note": 82, "velocity": 90, "duration": 189}, {"note": 75, "velocity": 93, "duration": 204}, {"note": 72, "velocity": 88, "duration": 78}, {"note": 75, "velocity": 88, "duration": 652}, {"note": 0, "velocity": 0, "duration": 308}, {"note": 70, "velocity": 86, "duration": 66}, {"note": 70, "velocity": 89, "duration": 206}, {"note": 79, "velocity": 88, "duration": 172}, {"note": 0, "velocity": 0, "duration": 68}, {"note": 79, "velocity": 90, "duration": 187}, {"note": 77, "velocity": 85, "duration": 63}, {"note": 77, "velocity": 85, "duration": 626}, {"note": 0, "velocity": 0, "duration": 334}, {"note": 75, "velocity": 95, "duration": 71}, {"note": 82, "velocity": 95, "duration": 160}, {"note": 0, "velocity": 0, "duration": 80}, {"note": 82, "velocity": 90, "duration": 189}, {"note": 75, "velocity": 93, "duration": 204}, {"note": 72, "velocity": 88, "duration": 78}, {"note": 75, "velocity": 88, "duration": 652}, {"note": 0, "velocity": 0, "duration": 308}, {"note": 70, "velocity": 86, "duration": 66}, {"note": 70, "velocity": 89, "duration": 206}, {"note": 79, "velocity": 88, "duration": 101}, {"note": 79, "velocity": 88, "duration": 101}, {"note": 79, "velocity": 90, "duration": 187}, {"note": 77, "velocity": 85, "duration": 63}, {"note": 77, "velocity": 85, "duration": 626}, {"note": 0, "velocity": 0, "duration": 214}, {"note": 75, "velocity": 91, "duration": 91}, {"note": 75, "velocity": 88, "duration": 1275}, {"note": 0, "velocity": 0, "duration": 645}, {"note": 75, "velocity": 88, "duration": 104}, {"note": 79, "velocity": 88, "duration": 157}, {"note": 0, "velocity": 0, "duration": 83}, {"note": 79, "velocity": 88, "duration": 114}, {"note": 79, "velocity": 88, "duration": 115}, {"note": 79, "velocity": 88, "duration": 160}, {"note": 77, "velocity": 83, "duration": 142}, {"note": 77, "velocity": 83, "duration": 919}, {"note": 0, "velocity": 0, "duration": 7721}, {"note": 75, "velocity": 95, "duration": 71}, {"note": 82, "velocity": 95, "duration": 160}, {"note": 0, "velocity": 0, "duration": 80}, {"note": 82, "velocity": 90, "duration": 189}, {"note": 75, "velocity": 93, "duration": 204}, {"note": 72, "velocity": 88, "duration": 78}, {"note": 75, "velocity": 88, "duration": 652}, {"note": 0, "velocity": 0, "duration": 308}, {"note": 70, "velocity": 86, "duration": 66}, {"note": 70, "velocity": 89, "duration": 206}, {"note": 79, "velocity": 88, "duration": 122}, {"note": 79, "velocity": 88, "duration": 112}, {"note": 79, "velocity": 90, "duration": 187}, {"note": 77, "velocity": 85, "duration": 63}, {"note": 77, "velocity": 85, "duration": 626}, {"note": 0, "velocity": 0, "duration": 334}, {"note": 75, "velocity": 95, "duration": 71}, {"note": 82, "velocity": 95, "duration": 160}, {"note": 0, "velocity": 0, "duration": 80}, {"note": 82, "velocity": 90, "duration": 189}, {"note": 75, "velocity": 93, "duration": 204}, {"note": 72, "velocity": 88, "duration": 78}, {"note": 75, "velocity": 88, "duration": 652}, {"note": 0, "velocity": 0, "duration": 308}, {"note": 70, "velocity": 86, "duration": 66}, {"note": 70, "velocity": 89, "duration": 206}, {"note": 79, "velocity": 88, "duration": 172}, {"note": 0, "velocity": 0, "duration": 68}, {"note": 79, "velocity": 90, "duration": 187}, {"note": 77, "velocity": 85, "duration": 63}, {"note": 77, "velocity": 85, "duration": 626}, {"note": 0, "velocity": 0, "duration": 334}, {"note": 75, "velocity": 95, "duration": 71}, {"note": 82, "velocity": 95, "duration": 160}, {"note": 0, "velocity": 0, "duration": 80}, {"note": 82, "velocity": 90, "duration": 189}, {"note": 75, "velocity": 93, "duration": 204}, {"note": 72, "velocity": 88, "duration": 78}, {"note": 75, "velocity": 88, "duration": 652}, {"note": 0, "velocity": 0, "duration": 308}, {"note": 70, "velocity": 86, "duration": 66}, {"note": 70, "velocity": 89, "duration": 206}, {"note": 79, "velocity": 88, "duration": 91}, {"note": 79, "velocity": 88, "duration": 92}, {"note": 79, "velocity": 90, "duration": 187}, {"note": 77, "velocity": 85, "duration": 63}, {"note": 77, "velocity": 85, "duration": 626}, {"note": 0, "velocity": 0, "duration": 214}, {"note": 75, "velocity": 91, "duration": 91}, {"note": 75, "velocity": 88, "duration": 1275}, {"note": 0, "velocity": 0, "duration": 645}, {"note": 75, "velocity": 88, "duration": 104}, {"note": 79, "velocity": 88, "duration": 157}, {"note": 0, "velocity": 0, "duration": 83}, {"note": 79, "velocity": 88, "duration": 162}, {"note": 0, "velocity": 0, "duration": 78}, {"note": 79, "velocity": 88, "duration": 164}, {"note": 77, "velocity": 83, "duration": 61}, {"note": 0, "velocity": 0, "duration": 139}, {"note": 77, "velocity": 83, "duration": 598}, {"note": 0, "velocity": 0, "duration": 362}, {"note": 76, "velocity": 95, "duration": 71}, {"note": 83, "velocity": 95, "duration": 160}, {"note": 0, "velocity": 0, "duration": 80}, {"note": 83, "velocity": 90, "duration": 189}, {"note": 76, "velocity": 93, "duration": 204}, {"note": 73, "velocity": 88, "duration": 78}, {"note": 76, "velocity": 88, "duration": 652}, {"note": 0, "velocity": 0, "duration": 308}, {"note": 71, "velocity": 86, "duration": 66}, {"note": 71, "velocity": 89, "duration": 206}, {"note": 80, "velocity": 88, "duration": 118}, {"note": 80, "velocity": 88, "duration": 112}, {"note": 80, "velocity": 90, "duration": 187}, {"note": 78, "velocity": 85, "duration": 82}, {"note": 0, "velocity": 0, "duration": 83}, {"note": 78, "velocity": 85, "duration": 667}, {"note": 0, "velocity": 0, "duration": 334}, {"note": 76, "velocity": 95, "duration": 71}, {"note": 83, "velocity": 95, "duration": 160}, {"note": 0, "velocity": 0, "duration": 80}, {"note": 83, "velocity": 90, "duration": 189}, {"note": 76, "velocity": 93, "duration": 204}, {"note": 73, "velocity": 88, "duration": 78}, {"note": 76, "velocity": 88, "duration": 195}, {"note": 76, "velocity": 88, "duration": 285}, {"note": 0, "velocity": 0, "duration": 420}, {"note": 71, "velocity": 86, "duration": 66}, {"note": 71, "velocity": 89, "duration": 206}, {"note": 80, "velocity": 88, "duration": 172}, {"note": 0, "velocity": 0, "duration": 68}, {"note": 80, "velocity": 90, "duration": 187}, {"note": 78, "velocity": 85, "duration": 63}, {"note": 78, "velocity": 85, "duration": 626}, {"note": 0, "velocity": 0, "duration": 334}, {"note": 76, "velocity": 95, "duration": 71}, {"note": 83, "velocity": 95, "duration": 160}, {"note": 0, "velocity": 0, "duration": 80}, {"note": 83, "velocity": 90, "duration": 189}, {"note": 76, "velocity": 93, "duration": 204}, {"note": 73, "velocity": 88, "duration": 78}, {"note": 76, "velocity": 88, "duration": 255}, {"note": 78, "velocity": 88, "duration": 375}, {"note": 0, "velocity": 0, "duration": 330}, {"note": 71, "velocity": 86, "duration": 66}, {"note": 71, "velocity": 89, "duration": 206}, {"note": 80, "velocity": 88, "duration": 172}, {"note": 0, "velocity": 0, "duration": 68}, {"note": 80, "velocity": 90, "duration": 187}, {"note": 78, "velocity": 85, "duration": 63}, {"note": 78, "velocity": 85, "duration": 626}, {"note": 0, "velocity": 0, "duration": 214}, {"note": 76, "velocity": 91, "duration": 91}, {"note": 76, "velocity": 88, "duration": 1275}, {"note": 0, "velocity": 0, "duration": 645}, {"note": 76, "velocity": 88, "duration": 104}, {"note": 80, "velocity": 88, "duration": 157}, {"note": 0, "velocity": 0, "duration": 83}, {"note": 80, "velocity": 88, "duration": 162}, {"note": 0, "velocity": 0, "duration": 78}, {"note": 80, "velocity": 88, "duration": 190}, {"note": 78, "velocity": 83, "duration": 61}, {"note": 78, "velocity": 83, "duration": 919}]]