[[{"note": 57, "velocity": 88, "duration": 200}, {"note": 66, "velocity": 94, "duration": 379}, {"note": 0, "velocity": 0, "duration": 101}, {"note": 66, "velocity": 94, "duration": 229}, {"note": 62, "velocity": 83, "duration": 177}, {"note": 0, "velocity": 0, "duration": 63}, {"note": 64, "velocity": 90, "duration": 185}, {"note": 62, "velocity": 90, "duration": 220}, {"note": 61, "velocity": 94, "duration": 321}, {"note": 62, "velocity": 89, "duration": 1221}, {"note": 0, "velocity": 0, "duration": 579}, {"note": 62, "velocity": 89, "duration": 185}, {"note": 67, "velocity": 86, "duration": 381}, {"note": 0, "velocity": 0, "duration": 99}, {"note": 67, "velocity": 88, "duration": 220}, {"note": 66, "velocity": 93, "duration": 264}, {"note": 67, "velocity": 87, "duration": 228}, {"note": 66, "velocity": 94, "duration": 255}, {"note": 67, "velocity": 90, "duration": 83}, {"note": 69, "velocity": 93, "duration": 359}, {"note": 64, "velocity": 91, "duration": 1183}, {"note": 62, "velocity": 93, "duration": 188}, {"note": 61, "velocity": 94, "duration": 186}, {"note": 62, "velocity": 94, "duration": 165}, {"note": 0, "velocity": 0, "duration": 75}, {"note": 71, "velocity": 87, "duration": 367}, {"note": 0, "velocity": 0, "duration": 113}, {"note": 71, "velocity": 95, "duration": 196}, {"note": 73, "velocity": 94, "duration": 94}, {"note": 76, "velocity": 94, "duration": 293}, {"note": 0, "velocity": 0, "duration": 67}, {"note": 74, "velocity": 94, "duration": 182}, {"note": 73, "velocity": 86, "duration": 219}, {"note": 71, "velocity": 92, "duration": 209}, {"note": 69, "velocity": 82, "duration": 382}, {"note": 0, "velocity": 0, "duration": 98}, {"note": 69, "velocity": 91, "duration": 87}, {"note": 71, "velocity": 90, "duration": 266}, {"note": 0, "velocity": 0, "duration": 94}, {"note": 66, "velocity": 88, "duration": 187}, {"note": 62, "velocity": 93, "duration": 263}, {"note": 61, "velocity": 81, "duration": 235}, {"note": 62, "velocity": 92, "duration": 239}, {"note": 69, "velocity": 88, "duration": 356}, {"note": 0, "velocity": 0, "duration": 484}, {"note": 69, "velocity": 86, "duration": 70}, {"note": 69, "velocity": 89, "duration": 153}, {"note": 0, "velocity": 0, "duration": 87}, {"note": 67, "velocity": 85, "duration": 156}, {"note": 0, "velocity": 0, "duration": 84}, {"note": 59, "velocity": 93, "duration": 195}, {"note": 61, "velocity": 95, "duration": 186}, {"note": 62, "velocity": 85, "duration": 861}, {"note": 0, "velocity": 0, "duration": 819}, {"note": 57, "velocity": 88, "duration": 200}, {"note": 66, "velocity": 94, "duration": 379}, {"note": 0, "velocity": 0, "duration": 101}, {"note": 66, "velocity": 94, "duration": 229}, {"note": 62, "velocity": 83, "duration": 177}, {"note": 0, "velocity": 0, "duration": 63}, {"note": 64, "velocity": 90, "duration": 185}, {"note": 62, "velocity": 90, "duration": 220}, {"note": 61, "velocity": 94, "duration": 321}, {"note": 62, "velocity": 89, "duration": 1221}, {"note": 0, "velocity": 0, "duration": 579}, {"note": 62, "velocity": 89, "duration": 185}, {"note": 67, "velocity": 86, "duration": 381}, {"note": 0, "velocity": 0, "duration": 99}, {"note": 67, "velocity": 88, "duration": 220}, {"note": 66, "velocity": 93, "duration": 264}, {"note": 67, "velocity": 87, "duration": 228}, {"note": 66, "velocity": 94, "duration": 255}, {"note": 67, "velocity": 90, "duration": 83}, {"note": 69, "velocity": 93, "duration": 359}, {"note": 64, "velocity": 91, "duration": 1183}, {"note": 62, "velocity": 93, "duration": 188}, {"note": 61, "velocity": 94, "duration": 186}, {"note": 62, "velocity": 94, "duration": 165}, {"note": 0, "velocity": 0, "duration": 75}, {"note": 71, "velocity": 87, "duration": 367}, {"note": 0, "velocity": 0, "duration": 113}, {"note": 71, "velocity": 95, "duration": 196}, {"note": 73, "velocity": 94, "duration": 94}, {"note": 76, "velocity": 94, "duration": 293}, {"note": 0, "velocity": 0, "duration": 67}, {"note": 74, "velocity": 94, "duration": 182}, {"note": 73, "velocity": 86, "duration": 219}, {"note": 71, "velocity": 92, "duration": 209}, {"note": 69, "velocity": 82, "duration": 382}, {"note": 0, "velocity": 0, "duration": 98}, {"note": 69, "velocity": 91, "duration": 87}, {"note": 71, "velocity": 90, "duration": 266}, {"note": 0, "velocity": 0, "duration": 94}, {"note": 66, "velocity": 88, "duration": 187}, {"note": 62, "velocity": 93, "duration": 263}, {"note": 61, "velocity": 81, "duration": 235}, {"note": 62, "velocity": 92, "duration": 239}, {"note": 69, "velocity": 88, "duration": 598}, {"note": 0, "velocity": 0, "duration": 242}, {"note": 69, "velocity": 86, "duration": 70}, {"note": 69, "velocity": 89, "duration": 153}, {"note": 0, "velocity": 0, "duration": 87}, {"note": 67, "velocity": 85, "duration": 156}, {"note": 0, "velocity": 0, "duration": 84}, {"note": 59, "velocity": 93, "duration": 195}, {"note": 61, "velocity": 95, "duration": 186}, {"note": 62, "velocity": 85, "duration": 861}, {"note": 0, "velocity": 0, "duration": 579}, {"note": 71, "velocity": 94, "duration": 157}, {"note": 0, "velocity": 0, "duration": 83}, {"note": 73, "velocity": 93, "duration": 169}, {"note": 0, "velocity": 0, "duration": 71}, {"note": 74, "velocity": 95, "duration": 405}, {"note": 0, "velocity": 0, "duration": 75}, {"note": 78, "velocity": 99, "duration": 386}, {"note": 0, "velocity": 0, "duration": 94}, {"note": 76, "velocity": 97, "duration": 229}, {"note": 0, "velocity": 0, "duration": 251}, {"note": 74, "velocity": 90, "duration": 217}, {"note": 76, "velocity": 95, "duration": 135}, {"note": 0, "velocity": 0, "duration": 105}, {"note": 69, "velocity": 95, "duration": 426}, {"note": 76, "velocity": 94, "duration": 426}, {"note": 74, "velocity": 95, "duration": 442}, {"note": 71, "velocity": 94, "duration": 202}, {"note": 73, "velocity": 93, "duration": 197}, {"note": 74, "velocity": 97, "duration": 418}, {"note": 0, "velocity": 0, "duration": 62}, {"note": 78, "velocity": 98, "duration": 470}, {"note": 76, "velocity": 95, "duration": 468}, {"note": 74, "velocity": 102, "duration": 418}, {"note": 0, "velocity": 0, "duration": 62}, {"note": 78, "velocity": 93, "duration": 1295}, {"note": 0, "velocity": 0, "duration": 145}, {"note": 71, "velocity": 94, "duration": 178}, {"note": 0, "velocity": 0, "duration": 62}, {"note": 73, "velocity": 93, "duration": 188}, {"note": 74, "velocity": 95, "duration": 426}, {"note": 78, "velocity": 96, "duration": 396}, {"note": 0, "velocity": 0, "duration": 84}, {"note": 76, "velocity": 94, "duration": 398}, {"note": 0, "velocity": 0, "duration": 82}, {"note": 81, "velocity": 95, "duration": 164}, {"note": 0, "velocity": 0, "duration": 76}, {"note": 76, "velocity": 95, "duration": 166}, {"note": 0, "velocity": 0, "duration": 74}, {"note": 79, "velocity": 94, "duration": 165}, {"note": 0, "velocity": 0, "duration": 75}, {"note": 78, "velocity": 93, "duration": 111}, {"note": 76, "velocity": 93, "duration": 170}, {"note": 0, "velocity": 0, "duration": 70}, {"note": 78, "velocity": 94, "duration": 319}, {"note": 74, "velocity": 97, "duration": 391}, {"note": 0, "velocity": 0, "duration": 89}, {"note": 71, "velocity": 95, "duration": 182}, {"note": 73, "velocity": 92, "duration": 210}, {"note": 74, "velocity": 94, "duration": 373}, {"note": 0, "velocity": 0, "duration": 107}, {"note": 78, "velocity": 93, "duration": 482}, {"note": 76, "velocity": 94, "duration": 433}, {"note": 74, "velocity": 95, "duration": 358}, {"note": 0, "velocity": 0, "duration": 122}, {"note": 74, "velocity": 96, "duration": 1354}, {"note": 0, "velocity": 0, "duration": 326}, {"note": 57, "velocity": 99, "duration": 205}, {"note": 66, "velocity": 90, "duration": 381}, {"note": 0, "velocity": 0, "duration": 99}, {"note": 66, "velocity": 94, "duration": 165}, {"note": 0, "velocity": 0, "duration": 75}, {"note": 66, "velocity": 86, "duration": 79}, {"note": 62, "velocity": 91, "duration": 74}, {"note": 64, "velocity": 93, "duration": 176}, {"note": 0, "velocity": 0, "duration": 64}, {"note": 66, "velocity": 92, "duration": 83}, {"note": 67, "velocity": 89, "duration": 79}, {"note": 66, "velocity": 95, "duration": 195}, {"note": 61, "velocity": 97, "duration": 235}, {"note": 62, "velocity": 89, "duration": 495}, {"note": 0, "velocity": 0, "duration": 1185}, {"note": 62, "velocity": 94, "duration": 191}, {"note": 67, "velocity": 89, "duration": 397}, {"note": 0, "velocity": 0, "duration": 83}, {"note": 67, "velocity": 90, "duration": 197}, {"note": 66, "velocity": 89, "duration": 92}, {"note": 67, "velocity": 88, "duration": 347}, {"note": 66, "velocity": 94, "duration": 188}, {"note": 67, "velocity": 86, "duration": 169}, {"note": 0, "velocity": 0, "duration": 71}, {"note": 69, "velocity": 91, "duration": 238}, {"note": 64, "velocity": 94, "duration": 888}, {"note": 0, "velocity": 0, "duration": 312}, {"note": 62, "velocity": 94, "duration": 176}, {"note": 0, "velocity": 0, "duration": 64}, {"note": 61, "velocity": 93, "duration": 167}, {"note": 0, "velocity": 0, "duration": 73}, {"note": 62, "velocity": 93, "duration": 93}, {"note": 71, "velocity": 94, "duration": 486}, {"note": 0, "velocity": 0, "duration": 114}, {"note": 71, "velocity": 94, "duration": 166}, {"note": 0, "velocity": 0, "duration": 74}, {"note": 73, "velocity": 88, "duration": 72}, {"note": 76, "velocity": 94, "duration": 298}, {"note": 0, "velocity": 0, "duration": 62}, {"note": 74, "velocity": 93, "duration": 213}, {"note": 73, "velocity": 94, "duration": 118}, {"note": 71, "velocity": 94, "duration": 358}, {"note": 69, "velocity": 91, "duration": 391}, {"note": 0, "velocity": 0, "duration": 89}, {"note": 69, "velocity": 88, "duration": 74}, {"note": 71, "velocity": 93, "duration": 317}, {"note": 66, "velocity": 89, "duration": 206}, {"note": 62, "velocity": 87, "duration": 194}, {"note": 61, "velocity": 94, "duration": 175}, {"note": 0, "velocity": 0, "duration": 65}, {"note": 62, "velocity": 87, "duration": 200}, {"note": 69, "velocity": 93, "duration": 689}, {"note": 0, "velocity": 0, "duration": 151}, {"note": 69, "velocity": 83, "duration": 69}, {"note": 69, "velocity": 93, "duration": 212}, {"note": 67, "velocity": 94, "duration": 168}, {"note": 0, "velocity": 0, "duration": 72}, {"note": 78, "velocity": 94, "duration": 164}, {"note": 0, "velocity": 0, "duration": 76}, {"note": 78, "velocity": 93, "duration": 173}, {"note": 0, "velocity": 0, "duration": 67}, {"note": 74, "velocity": 99, "duration": 1862}, {"note": 0, "velocity": 0, "duration": 14458}, {"note": 74, "velocity": 104, "duration": 514}, {"note": 76, "velocity": 97, "duration": 522}, {"note": 0, "velocity": 0, "duration": 198}, {"note": 78, "velocity": 99, "duration": 54}, {"note": 0, "velocity": 0, "duration": 66}, {"note": 78, "velocity": 95, "duration": 63}, {"note": 78, "velocity": 97, "duration": 174}, {"note": 0, "velocity": 0, "duration": 66}, {"note": 74, "velocity": 94, "duration": 57}, {"note": 0, "velocity": 0, "duration": 63}, {"note": 74, "velocity": 97, "duration": 62}, {"note": 74, "velocity": 104, "duration": 191}, {"note": 71, "velocity": 97, "duration": 68}, {"note": 71, "velocity": 94, "duration": 66}, {"note": 71, "velocity": 100, "duration": 72}, {"note": 78, "velocity": 95, "duration": 478}, {"note": 0, "velocity": 0, "duration": 122}, {"note": 76, "velocity": 94, "duration": 59}, {"note": 0, "velocity": 0, "duration": 61}, {"note": 76, "velocity": 94, "duration": 67}, {"note": 76, "velocity": 98, "duration": 173}, {"note": 0, "velocity": 0, "duration": 67}, {"note": 76, "velocity": 93, "duration": 63}, {"note": 76, "velocity": 88, "duration": 65}, {"note": 76, "velocity": 89, "duration": 120}, {"note": 0, "velocity": 0, "duration": 120}, {"note": 79, "velocity": 94, "duration": 82}, {"note": 78, "velocity": 99, "duration": 336}, {"note": 73, "velocity": 96, "duration": 197}, {"note": 74, "velocity": 98, "duration": 598}, {"note": 71, "velocity": 95, "duration": 65}, {"note": 71, "velocity": 95, "duration": 88}, {"note": 73, "velocity": 94, "duration": 86}, {"note": 74, "velocity": 97, "duration": 541}, {"note": 71, "velocity": 98, "duration": 57}, {"note": 0, "velocity": 0, "duration": 63}, {"note": 71, "velocity": 94, "duration": 81}, {"note": 74, "velocity": 94, "duration": 103}, {"note": 78, "velocity": 98, "duration": 164}, {"note": 0, "velocity": 0, "duration": 76}, {"note": 76, "velocity": 89, "duration": 141}, {"note": 0, "velocity": 0, "duration": 99}, {"note": 76, "velocity": 94, "duration": 195}, {"note": 74, "velocity": 99, "duration": 118}, {"note": 78, "velocity": 95, "duration": 358}, {"note": 76, "velocity": 93, "duration": 170}, {"note": 0, "velocity": 0, "duration": 70}, {"note": 76, "velocity": 95, "duration": 188}, {"note": 74, "velocity": 99, "duration": 164}, {"note": 0, "velocity": 0, "duration": 76}, {"note": 78, "velocity": 95, "duration": 169}, {"note": 0, "velocity": 0, "duration": 71}, {"note": 76, "velocity": 95, "duration": 176}, {"note": 0, "velocity": 0, "duration": 64}, {"note": 76, "velocity": 95, "duration": 211}, {"note": 74, "velocity": 99, "duration": 96}, {"note": 76, "velocity": 95, "duration": 598}, {"note": 71, "velocity": 94, "duration": 157}, {"note": 0, "velocity": 0, "duration": 83}, {"note": 73, "velocity": 93, "duration": 169}, {"note": 0, "velocity": 0, "duration": 71}, {"note": 74, "velocity": 95, "duration": 405}, {"note": 0, "velocity": 0, "duration": 75}, {"note": 78, "velocity": 99, "duration": 386}, {"note": 0, "velocity": 0, "duration": 94}, {"note": 76, "velocity": 97, "duration": 229}, {"note": 0, "velocity": 0, "duration": 251}, {"note": 74, "velocity": 90, "duration": 217}, {"note": 76, "velocity": 95, "duration": 135}, {"note": 0, "velocity": 0, "duration": 105}, {"note": 69, "velocity": 95, "duration": 426}, {"note": 76, "velocity": 94, "duration": 426}, {"note": 74, "velocity": 95, "duration": 442}, {"note": 71, "velocity": 94, "duration": 202}, {"note": 73, "velocity": 93, "duration": 197}, {"note": 74, "velocity": 97, "duration": 418}, {"note": 0, "velocity": 0, "duration": 62}, {"note": 78, "velocity": 98, "duration": 470}, {"note": 76, "velocity": 95, "duration": 468}, {"note": 74, "velocity": 102, "duration": 418}, {"note": 0, "velocity": 0, "duration": 62}, {"note": 78, "velocity": 93, "duration": 1295}, {"note": 0, "velocity": 0, "duration": 145}, {"note": 71, "velocity": 94, "duration": 178}, {"note": 0, "velocity": 0, "duration": 62}, {"note": 73, "velocity": 93, "duration": 188}, {"note": 74, "velocity": 95, "duration": 426}, {"note": 78, "velocity": 96, "duration": 396}, {"note": 0, "velocity": 0, "duration": 84}, {"note": 76, "velocity": 94, "duration": 398}, {"note": 0, "velocity": 0, "duration": 82}, {"note": 81, "velocity": 95, "duration": 164}, {"note": 0, "velocity": 0, "duration": 76}, {"note": 76, "velocity": 95, "duration": 166}, {"note": 0, "velocity": 0, "duration": 74}, {"note": 79, "velocity": 94, "duration": 165}, {"note": 0, "velocity": 0, "duration": 75}, {"note": 78, "velocity": 93, "duration": 111}, {"note": 76, "velocity": 93, "duration": 170}, {"note": 0, "velocity": 0, "duration": 70}, {"note": 78, "velocity": 94, "duration": 319}, {"note": 74, "velocity": 97, "duration": 391}, {"note": 0, "velocity": 0, "duration": 89}, {"note": 71, "velocity": 95, "duration": 182}, {"note": 73, "velocity": 92, "duration": 210}, {"note": 74, "velocity": 94, "duration": 373}, {"note": 0, "velocity": 0, "duration": 107}, {"note": 78, "velocity": 93, "duration": 482}, {"note": 76, "velocity": 94, "duration": 433}, {"note": 74, "velocity": 95, "duration": 358}, {"note": 0, "velocity": 0, "duration": 122}, {"note": 74, "velocity": 96, "duration": 1354}, {"note": 0, "velocity": 0, "duration": 326}, {"note": 57, "velocity": 88, "duration": 200}, {"note": 66, "velocity": 94, "duration": 379}, {"note": 0, "velocity": 0, "duration": 101}, {"note": 66, "velocity": 94, "duration": 229}, {"note": 62, "velocity": 83, "duration": 177}, {"note": 0, "velocity": 0, "duration": 63}, {"note": 64, "velocity": 90, "duration": 185}, {"note": 62, "velocity": 90, "duration": 220}, {"note": 61, "velocity": 94, "duration": 321}, {"note": 62, "velocity": 89, "duration": 1221}, {"note": 0, "velocity": 0, "duration": 579}, {"note": 62, "velocity": 89, "duration": 185}, {"note": 67, "velocity": 86, "duration": 381}, {"note": 0, "velocity": 0, "duration": 99}, {"note": 67, "velocity": 88, "duration": 220}, {"note": 66, "velocity": 93, "duration": 264}, {"note": 67, "velocity": 87, "duration": 228}, {"note": 66, "velocity": 94, "duration": 255}, {"note": 67, "velocity": 90, "duration": 83}, {"note": 69, "velocity": 93, "duration": 359}, {"note": 64, "velocity": 91, "duration": 1183}, {"note": 62, "velocity": 93, "duration": 188}, {"note": 61, "velocity": 94, "duration": 186}, {"note": 62, "velocity": 94, "duration": 165}, {"note": 0, "velocity": 0, "duration": 75}, {"note": 71, "velocity": 87, "duration": 367}, {"note": 0, "velocity": 0, "duration": 113}, {"note": 71, "velocity": 95, "duration": 196}, {"note": 73, "velocity": 94, "duration": 94}, {"note": 76, "velocity": 94, "duration": 293}, {"note": 0, "velocity": 0, "duration": 67}, {"note": 74, "velocity": 94, "duration": 182}, {"note": 73, "velocity": 86, "duration": 219}, {"note": 71, "velocity": 92, "duration": 209}, {"note": 69, "velocity": 82, "duration": 382}, {"note": 0, "velocity": 0, "duration": 98}, {"note": 69, "velocity": 91, "duration": 87}, {"note": 71, "velocity": 90, "duration": 266}, {"note": 0, "velocity": 0, "duration": 94}, {"note": 66, "velocity": 88, "duration": 187}, {"note": 62, "velocity": 93, "duration": 263}, {"note": 61, "velocity": 81, "duration": 235}, {"note": 62, "velocity": 92, "duration": 239}, {"note": 69, "velocity": 88, "duration": 598}, {"note": 0, "velocity": 0, "duration": 242}, {"note": 69, "velocity": 86, "duration": 70}, {"note": 69, "velocity": 89, "duration": 153}, {"note": 0, "velocity": 0, "duration": 87}, {"note": 67, "velocity": 85, "duration": 156}, {"note": 0, "velocity": 0, "duration": 84}, {"note": 59, "velocity": 93, "duration": 195}, {"note": 61, "velocity": 95, "duration": 186}, {"note": 62, "velocity": 85, "duration": 861}, {"note": 0, "velocity": 0, "duration": 339}, {"note": 62, "velocity": 93, "duration": 188}, {"note": 61, "velocity": 94, "duration": 186}, {"note": 62, "velocity": 94, "duration": 165}, {"note": 0, "velocity": 0, "duration": 75}, {"note": 71, "velocity": 87, "duration": 367}, {"note": 0, "velocity": 0, "duration": 113}, {"note": 71, "velocity": 95, "duration": 196}, {"note": 73, "velocity": 94, "duration": 94}, {"note": 76, "velocity": 94, "duration": 293}, {"note": 0, "velocity": 0, "duration": 67}, {"note": 74, "velocity": 94, "duration": 182}, {"note": 73, "velocity": 86, "duration": 219}, {"note": 71, "velocity": 92, "duration": 209}, {"note": 69, "velocity": 82, "duration": 382}, {"note": 0, "velocity": 0, "duration": 98}, {"note": 69, "velocity": 91, "duration": 87}, {"note": 71, "velocity": 90, "duration": 266}, {"note": 0, "velocity": 0, "duration": 94}, {"note": 66, "velocity": 88, "duration": 187}, {"note": 62, "velocity": 93, "duration": 263}, {"note": 61, "velocity": 81, "duration": 235}, {"note": 62, "velocity": 92, "duration": 239}, {"note": 69, "velocity": 88, "duration": 598}, {"note": 0, "velocity": 0, "duration": 242}, {"note": 69, "velocity": 94, "duration": 194}, {"note": 69, "velocity": 97, "duration": 258}, {"note": 67, "velocity": 94, "duration": 385}, {"note": 59, "velocity": 94, "duration": 1022}, {"note": 61, "velocity": 89, "duration": 564}, {"note": 62, "velocity": 91, "duration": 1867}]]