[[{"note": 64, "velocity": 85, "duration": 168}, {"note": 0, "velocity": 0, "duration": 72}, {"note": 64, "velocity": 85, "duration": 151}, {"note": 0, "velocity": 0, "duration": 89}, {"note": 69, "velocity": 82, "duration": 165}, {"note": 0, "velocity": 0, "duration": 75}, {"note": 71, "velocity": 83, "duration": 349}, {"note": 0, "velocity": 0, "duration": 131}, {"note": 69, "velocity": 84, "duration": 427}, {"note": 67, "velocity": 83, "duration": 444}, {"note": 64, "velocity": 83, "duration": 431}, {"note": 0, "velocity": 0, "duration": 1249}, {"note": 69, "velocity": 81, "duration": 186}, {"note": 64, "velocity": 86, "duration": 140}, {"note": 0, "velocity": 0, "duration": 100}, {"note": 69, "velocity": 82, "duration": 139}, {"note": 0, "velocity": 0, "duration": 101}, {"note": 71, "velocity": 78, "duration": 264}, {"note": 0, "velocity": 0, "duration": 216}, {"note": 72, "velocity": 82, "duration": 321}, {"note": 0, "velocity": 0, "duration": 159}, {"note": 71, "velocity": 83, "duration": 333}, {"note": 0, "velocity": 0, "duration": 147}, {"note": 69, "velocity": 82, "duration": 240}, {"note": 69, "velocity": 82, "duration": 240}, {"note": 64, "velocity": 82, "duration": 240}, {"note": 69, "velocity": 81, "duration": 135}, {"note": 0, "velocity": 0, "duration": 105}, {"note": 67, "velocity": 82, "duration": 795}, {"note": 0, "velocity": 0, "duration": 645}, {"note": 69, "velocity": 81, "duration": 447}, {"note": 64, "velocity": 83, "duration": 1285}, {"note": 0, "velocity": 0, "duration": 155}, {"note": 62, "velocity": 81, "duration": 193}, {"note": 64, "velocity": 83, "duration": 153}, {"note": 0, "velocity": 0, "duration": 87}, {"note": 65, "velocity": 81, "duration": 394}, {"note": 0, "velocity": 0, "duration": 86}, {"note": 64, "velocity": 83, "duration": 804}, {"note": 0, "velocity": 0, "duration": 3276}, {"note": 64, "velocity": 85, "duration": 168}, {"note": 0, "velocity": 0, "duration": 72}, {"note": 64, "velocity": 85, "duration": 151}, {"note": 0, "velocity": 0, "duration": 89}, {"note": 69, "velocity": 82, "duration": 165}, {"note": 0, "velocity": 0, "duration": 75}, {"note": 71, "velocity": 83, "duration": 349}, {"note": 0, "velocity": 0, "duration": 131}, {"note": 69, "velocity": 84, "duration": 427}, {"note": 67, "velocity": 83, "duration": 444}, {"note": 64, "velocity": 83, "duration": 431}, {"note": 0, "velocity": 0, "duration": 1009}, {"note": 69, "velocity": 77, "duration": 142}, {"note": 0, "velocity": 0, "duration": 98}, {"note": 69, "velocity": 81, "duration": 180}, {"note": 67, "velocity": 81, "duration": 182}, {"note": 69, "velocity": 81, "duration": 183}, {"note": 67, "velocity": 81, "duration": 147}, {"note": 0, "velocity": 0, "duration": 93}, {"note": 69, "velocity": 79, "duration": 141}, {"note": 0, "velocity": 0, "duration": 99}, {"note": 71, "velocity": 81, "duration": 143}, {"note": 0, "velocity": 0, "duration": 97}, {"note": 72, "velocity": 81, "duration": 598}, {"note": 0, "velocity": 0, "duration": 122}, {"note": 71, "velocity": 82, "duration": 240}, {"note": 69, "velocity": 81, "duration": 167}, {"note": 0, "velocity": 0, "duration": 73}, {"note": 71, "velocity": 80, "duration": 666}, {"note": 0, "velocity": 0, "duration": 294}, {"note": 67, "velocity": 75, "duration": 699}, {"note": 0, "velocity": 0, "duration": 261}, {"note": 69, "velocity": 81, "duration": 447}, {"note": 64, "velocity": 83, "duration": 1285}, {"note": 0, "velocity": 0, "duration": 155}, {"note": 67, "velocity": 80, "duration": 142}, {"note": 0, "velocity": 0, "duration": 98}, {"note": 69, "velocity": 81, "duration": 172}, {"note": 0, "velocity": 0, "duration": 68}, {"note": 72, "velocity": 82, "duration": 422}, {"note": 71, "velocity": 79, "duration": 236}, {"note": 69, "velocity": 76, "duration": 1342}, {"note": 0, "velocity": 0, "duration": 1058}, {"note": 69, "velocity": 81, "duration": 159}, {"note": 0, "velocity": 0, "duration": 81}, {"note": 71, "velocity": 81, "duration": 234}, {"note": 72, "velocity": 81, "duration": 147}, {"note": 0, "velocity": 0, "duration": 93}, {"note": 74, "velocity": 81, "duration": 179}, {"note": 0, "velocity": 0, "duration": 61}, {"note": 76, "velocity": 81, "duration": 368}, {"note": 0, "velocity": 0, "duration": 112}, {"note": 72, "velocity": 78, "duration": 201}, {"note": 69, "velocity": 76, "duration": 208}, {"note": 76, "velocity": 77, "duration": 400}, {"note": 0, "velocity": 0, "duration": 80}, {"note": 72, "velocity": 82, "duration": 189}, {"note": 69, "velocity": 82, "duration": 218}, {"note": 79, "velocity": 85, "duration": 151}, {"note": 0, "velocity": 0, "duration": 89}, {"note": 79, "velocity": 81, "duration": 240}, {"note": 79, "velocity": 72, "duration": 230}, {"note": 74, "velocity": 81, "duration": 480}, {"note": 72, "velocity": 83, "duration": 195}, {"note": 71, "velocity": 79, "duration": 172}, {"note": 0, "velocity": 0, "duration": 68}, {"note": 72, "velocity": 81, "duration": 184}, {"note": 74, "velocity": 83, "duration": 472}, {"note": 71, "velocity": 81, "duration": 182}, {"note": 67, "velocity": 82, "duration": 158}, {"note": 0, "velocity": 0, "duration": 82}, {"note": 79, "velocity": 82, "duration": 164}, {"note": 0, "velocity": 0, "duration": 76}, {"note": 77, "velocity": 79, "duration": 184}, {"note": 76, "velocity": 82, "duration": 168}, {"note": 0, "velocity": 0, "duration": 72}, {"note": 74, "velocity": 86, "duration": 172}, {"note": 0, "velocity": 0, "duration": 68}, {"note": 74, "velocity": 85, "duration": 193}, {"note": 76, "velocity": 77, "duration": 151}, {"note": 0, "velocity": 0, "duration": 89}, {"note": 74, "velocity": 85, "duration": 159}, {"note": 0, "velocity": 0, "duration": 81}, {"note": 73, "velocity": 77, "duration": 451}, {"note": 73, "velocity": 81, "duration": 148}, {"note": 0, "velocity": 0, "duration": 92}, {"note": 74, "velocity": 85, "duration": 132}, {"note": 0, "velocity": 0, "duration": 108}, {"note": 76, "velocity": 82, "duration": 148}, {"note": 0, "velocity": 0, "duration": 92}, {"note": 77, "velocity": 82, "duration": 355}, {"note": 0, "velocity": 0, "duration": 125}, {"note": 72, "velocity": 77, "duration": 152}, {"note": 0, "velocity": 0, "duration": 88}, {"note": 69, "velocity": 75, "duration": 202}, {"note": 76, "velocity": 81, "duration": 317}, {"note": 0, "velocity": 0, "duration": 163}, {"note": 72, "velocity": 76, "duration": 376}, {"note": 0, "velocity": 0, "duration": 104}, {"note": 71, "velocity": 81, "duration": 155}, {"note": 0, "velocity": 0, "duration": 85}, {"note": 71, "velocity": 82, "duration": 185}, {"note": 72, "velocity": 79, "duration": 176}, {"note": 0, "velocity": 0, "duration": 64}, {"note": 71, "velocity": 82, "duration": 148}, {"note": 0, "velocity": 0, "duration": 332}, {"note": 74, "velocity": 85, "duration": 163}, {"note": 0, "velocity": 0, "duration": 77}, {"note": 74, "velocity": 83, "duration": 176}, {"note": 0, "velocity": 0, "duration": 64}, {"note": 72, "velocity": 81, "duration": 219}, {"note": 77, "velocity": 75, "duration": 377}, {"note": 0, "velocity": 0, "duration": 103}, {"note": 74, "velocity": 82, "duration": 372}, {"note": 0, "velocity": 0, "duration": 108}, {"note": 74, "velocity": 82, "duration": 198}, {"note": 72, "velocity": 82, "duration": 159}, {"note": 0, "velocity": 0, "duration": 81}, {"note": 74, "velocity": 90, "duration": 213}, {"note": 72, "velocity": 83, "duration": 184}, {"note": 77, "velocity": 81, "duration": 184}, {"note": 76, "velocity": 83, "duration": 179}, {"note": 0, "velocity": 0, "duration": 61}, {"note": 74, "velocity": 85, "duration": 147}, {"note": 0, "velocity": 0, "duration": 93}, {"note": 76, "velocity": 83, "duration": 337}, {"note": 0, "velocity": 0, "duration": 143}, {"note": 69, "velocity": 82, "duration": 135}, {"note": 0, "velocity": 0, "duration": 105}, {"note": 72, "velocity": 81, "duration": 151}, {"note": 0, "velocity": 0, "duration": 89}, {"note": 74, "velocity": 81, "duration": 145}, {"note": 0, "velocity": 0, "duration": 95}, {"note": 76, "velocity": 81, "duration": 340}, {"note": 0, "velocity": 0, "duration": 140}, {"note": 72, "velocity": 82, "duration": 139}, {"note": 0, "velocity": 0, "duration": 101}, {"note": 69, "velocity": 78, "duration": 150}, {"note": 0, "velocity": 0, "duration": 90}, {"note": 76, "velocity": 82, "duration": 384}, {"note": 0, "velocity": 0, "duration": 96}, {"note": 72, "velocity": 82, "duration": 163}, {"note": 0, "velocity": 0, "duration": 77}, {"note": 69, "velocity": 81, "duration": 190}, {"note": 79, "velocity": 81, "duration": 151}, {"note": 0, "velocity": 0, "duration": 89}, {"note": 79, "velocity": 77, "duration": 130}, {"note": 0, "velocity": 0, "duration": 110}, {"note": 79, "velocity": 79, "duration": 185}, {"note": 74, "velocity": 83, "duration": 361}, {"note": 0, "velocity": 0, "duration": 119}, {"note": 72, "velocity": 77, "duration": 114}, {"note": 0, "velocity": 0, "duration": 126}, {"note": 71, "velocity": 78, "duration": 155}, {"note": 0, "velocity": 0, "duration": 85}, {"note": 72, "velocity": 79, "duration": 144}, {"note": 0, "velocity": 0, "duration": 96}, {"note": 74, "velocity": 82, "duration": 344}, {"note": 0, "velocity": 0, "duration": 136}, {"note": 71, "velocity": 81, "duration": 192}, {"note": 67, "velocity": 77, "duration": 185}, {"note": 79, "velocity": 83, "duration": 155}, {"note": 0, "velocity": 0, "duration": 85}, {"note": 77, "velocity": 81, "duration": 139}, {"note": 0, "velocity": 0, "duration": 101}, {"note": 76, "velocity": 87, "duration": 117}, {"note": 0, "velocity": 0, "duration": 123}, {"note": 74, "velocity": 83, "duration": 143}, {"note": 0, "velocity": 0, "duration": 97}, {"note": 74, "velocity": 83, "duration": 175}, {"note": 0, "velocity": 0, "duration": 65}, {"note": 76, "velocity": 82, "duration": 171}, {"note": 0, "velocity": 0, "duration": 69}, {"note": 74, "velocity": 82, "duration": 147}, {"note": 0, "velocity": 0, "duration": 93}, {"note": 73, "velocity": 81, "duration": 374}, {"note": 0, "velocity": 0, "duration": 106}, {"note": 74, "velocity": 85, "duration": 142}, {"note": 0, "velocity": 0, "duration": 98}, {"note": 74, "velocity": 83, "duration": 130}, {"note": 0, "velocity": 0, "duration": 110}, {"note": 76, "velocity": 81, "duration": 143}, {"note": 0, "velocity": 0, "duration": 97}, {"note": 77, "velocity": 81, "duration": 400}, {"note": 0, "velocity": 0, "duration": 80}, {"note": 72, "velocity": 80, "duration": 472}, {"note": 69, "velocity": 81, "duration": 429}, {"note": 76, "velocity": 82, "duration": 137}, {"note": 0, "velocity": 0, "duration": 103}, {"note": 74, "velocity": 81, "duration": 348}, {"note": 0, "velocity": 0, "duration": 132}, {"note": 71, "velocity": 80, "duration": 327}, {"note": 0, "velocity": 0, "duration": 153}, {"note": 67, "velocity": 62, "duration": 151}, {"note": 0, "velocity": 0, "duration": 89}, {"note": 67, "velocity": 82, "duration": 240}, {"note": 76, "velocity": 82, "duration": 383}, {"note": 0, "velocity": 0, "duration": 97}, {"note": 74, "velocity": 86, "duration": 737}, {"note": 72, "velocity": 77, "duration": 1200}, {"note": 71, "velocity": 81, "duration": 740}, {"note": 69, "velocity": 70, "duration": 280}, {"note": 71, "velocity": 80, "duration": 1093}, {"note": 0, "velocity": 0, "duration": 8267}, {"note": 64, "velocity": 85, "duration": 168}, {"note": 0, "velocity": 0, "duration": 72}, {"note": 64, "velocity": 85, "duration": 151}, {"note": 0, "velocity": 0, "duration": 89}, {"note": 69, "velocity": 82, "duration": 165}, {"note": 0, "velocity": 0, "duration": 75}, {"note": 71, "velocity": 83, "duration": 349}, {"note": 0, "velocity": 0, "duration": 131}, {"note": 69, "velocity": 84, "duration": 427}, {"note": 67, "velocity": 83, "duration": 444}, {"note": 64, "velocity": 83, "duration": 431}, {"note": 0, "velocity": 0, "duration": 1009}, {"note": 69, "velocity": 77, "duration": 142}, {"note": 0, "velocity": 0, "duration": 98}, {"note": 69, "velocity": 81, "duration": 180}, {"note": 67, "velocity": 81, "duration": 182}, {"note": 69, "velocity": 81, "duration": 183}, {"note": 67, "velocity": 81, "duration": 147}, {"note": 0, "velocity": 0, "duration": 93}, {"note": 69, "velocity": 79, "duration": 141}, {"note": 0, "velocity": 0, "duration": 99}, {"note": 71, "velocity": 81, "duration": 143}, {"note": 0, "velocity": 0, "duration": 97}, {"note": 72, "velocity": 81, "duration": 598}, {"note": 0, "velocity": 0, "duration": 122}, {"note": 71, "velocity": 82, "duration": 240}, {"note": 69, "velocity": 81, "duration": 167}, {"note": 0, "velocity": 0, "duration": 73}, {"note": 71, "velocity": 80, "duration": 666}, {"note": 0, "velocity": 0, "duration": 294}, {"note": 67, "velocity": 75, "duration": 699}, {"note": 0, "velocity": 0, "duration": 261}, {"note": 69, "velocity": 81, "duration": 447}, {"note": 65, "velocity": 83, "duration": 1285}, {"note": 0, "velocity": 0, "duration": 155}, {"note": 67, "velocity": 80, "duration": 142}, {"note": 0, "velocity": 0, "duration": 98}, {"note": 69, "velocity": 81, "duration": 172}, {"note": 0, "velocity": 0, "duration": 68}, {"note": 72, "velocity": 82, "duration": 422}, {"note": 71, "velocity": 79, "duration": 236}, {"note": 69, "velocity": 76, "duration": 1342}, {"note": 0, "velocity": 0, "duration": 1058}, {"note": 69, "velocity": 81, "duration": 159}, {"note": 0, "velocity": 0, "duration": 81}, {"note": 71, "velocity": 81, "duration": 234}, {"note": 72, "velocity": 81, "duration": 147}, {"note": 0, "velocity": 0, "duration": 93}, {"note": 74, "velocity": 81, "duration": 179}, {"note": 0, "velocity": 0, "duration": 61}, {"note": 76, "velocity": 81, "duration": 368}, {"note": 0, "velocity": 0, "duration": 112}, {"note": 72, "velocity": 78, "duration": 201}, {"note": 69, "velocity": 76, "duration": 208}, {"note": 76, "velocity": 77, "duration": 400}, {"note": 0, "velocity": 0, "duration": 80}, {"note": 72, "velocity": 82, "duration": 189}, {"note": 69, "velocity": 82, "duration": 218}, {"note": 79, "velocity": 85, "duration": 151}, {"note": 0, "velocity": 0, "duration": 89}, {"note": 79, "velocity": 81, "duration": 240}, {"note": 79, "velocity": 72, "duration": 230}, {"note": 74, "velocity": 81, "duration": 480}, {"note": 72, "velocity": 83, "duration": 195}, {"note": 71, "velocity": 79, "duration": 172}, {"note": 0, "velocity": 0, "duration": 68}, {"note": 72, "velocity": 81, "duration": 184}, {"note": 74, "velocity": 83, "duration": 472}, {"note": 71, "velocity": 81, "duration": 182}, {"note": 67, "velocity": 82, "duration": 158}, {"note": 0, "velocity": 0, "duration": 82}, {"note": 79, "velocity": 82, "duration": 164}, {"note": 0, "velocity": 0, "duration": 76}, {"note": 77, "velocity": 79, "duration": 184}, {"note": 76, "velocity": 82, "duration": 168}, {"note": 0, "velocity": 0, "duration": 72}, {"note": 74, "velocity": 86, "duration": 172}, {"note": 0, "velocity": 0, "duration": 68}, {"note": 74, "velocity": 85, "duration": 193}, {"note": 76, "velocity": 77, "duration": 151}, {"note": 0, "velocity": 0, "duration": 89}, {"note": 74, "velocity": 85, "duration": 159}, {"note": 0, "velocity": 0, "duration": 81}, {"note": 73, "velocity": 77, "duration": 451}, {"note": 73, "velocity": 81, "duration": 148}, {"note": 0, "velocity": 0, "duration": 92}, {"note": 74, "velocity": 85, "duration": 132}, {"note": 0, "velocity": 0, "duration": 108}, {"note": 76, "velocity": 82, "duration": 148}, {"note": 0, "velocity": 0, "duration": 92}, {"note": 77, "velocity": 82, "duration": 355}, {"note": 0, "velocity": 0, "duration": 125}, {"note": 72, "velocity": 77, "duration": 152}, {"note": 0, "velocity": 0, "duration": 88}, {"note": 69, "velocity": 75, "duration": 202}, {"note": 76, "velocity": 81, "duration": 317}, {"note": 0, "velocity": 0, "duration": 163}, {"note": 72, "velocity": 76, "duration": 376}, {"note": 0, "velocity": 0, "duration": 104}, {"note": 71, "velocity": 81, "duration": 155}, {"note": 0, "velocity": 0, "duration": 85}, {"note": 71, "velocity": 82, "duration": 185}, {"note": 72, "velocity": 79, "duration": 176}, {"note": 0, "velocity": 0, "duration": 64}, {"note": 71, "velocity": 82, "duration": 148}, {"note": 0, "velocity": 0, "duration": 332}, {"note": 74, "velocity": 85, "duration": 163}, {"note": 0, "velocity": 0, "duration": 77}, {"note": 74, "velocity": 83, "duration": 176}, {"note": 0, "velocity": 0, "duration": 64}, {"note": 72, "velocity": 81, "duration": 219}, {"note": 77, "velocity": 75, "duration": 377}, {"note": 0, "velocity": 0, "duration": 103}, {"note": 74, "velocity": 82, "duration": 372}, {"note": 0, "velocity": 0, "duration": 108}, {"note": 74, "velocity": 82, "duration": 198}, {"note": 72, "velocity": 82, "duration": 159}, {"note": 0, "velocity": 0, "duration": 81}, {"note": 74, "velocity": 90, "duration": 213}, {"note": 72, "velocity": 83, "duration": 184}, {"note": 77, "velocity": 81, "duration": 184}, {"note": 76, "velocity": 83, "duration": 179}, {"note": 0, "velocity": 0, "duration": 61}, {"note": 74, "velocity": 85, "duration": 147}, {"note": 0, "velocity": 0, "duration": 93}, {"note": 76, "velocity": 83, "duration": 337}, {"note": 0, "velocity": 0, "duration": 143}, {"note": 69, "velocity": 82, "duration": 135}, {"note": 0, "velocity": 0, "duration": 105}, {"note": 72, "velocity": 81, "duration": 151}, {"note": 0, "velocity": 0, "duration": 89}, {"note": 74, "velocity": 81, "duration": 145}, {"note": 0, "velocity": 0, "duration": 95}, {"note": 76, "velocity": 81, "duration": 340}, {"note": 0, "velocity": 0, "duration": 140}, {"note": 72, "velocity": 82, "duration": 139}, {"note": 0, "velocity": 0, "duration": 101}, {"note": 69, "velocity": 78, "duration": 150}, {"note": 0, "velocity": 0, "duration": 90}, {"note": 76, "velocity": 82, "duration": 384}, {"note": 0, "velocity": 0, "duration": 96}, {"note": 72, "velocity": 82, "duration": 163}, {"note": 0, "velocity": 0, "duration": 77}, {"note": 69, "velocity": 81, "duration": 190}, {"note": 79, "velocity": 81, "duration": 151}, {"note": 0, "velocity": 0, "duration": 89}, {"note": 79, "velocity": 77, "duration": 130}, {"note": 0, "velocity": 0, "duration": 110}, {"note": 79, "velocity": 79, "duration": 185}, {"note": 74, "velocity": 83, "duration": 361}, {"note": 0, "velocity": 0, "duration": 119}, {"note": 72, "velocity": 77, "duration": 114}, {"note": 0, "velocity": 0, "duration": 126}, {"note": 71, "velocity": 78, "duration": 155}, {"note": 0, "velocity": 0, "duration": 85}, {"note": 72, "velocity": 79, "duration": 144}, {"note": 0, "velocity": 0, "duration": 96}, {"note": 74, "velocity": 82, "duration": 344}, {"note": 0, "velocity": 0, "duration": 136}, {"note": 71, "velocity": 81, "duration": 192}, {"note": 67, "velocity": 77, "duration": 185}, {"note": 79, "velocity": 83, "duration": 155}, {"note": 0, "velocity": 0, "duration": 85}, {"note": 77, "velocity": 81, "duration": 139}, {"note": 0, "velocity": 0, "duration": 101}, {"note": 76, "velocity": 87, "duration": 117}, {"note": 0, "velocity": 0, "duration": 123}, {"note": 74, "velocity": 83, "duration": 143}, {"note": 0, "velocity": 0, "duration": 97}, {"note": 74, "velocity": 83, "duration": 175}, {"note": 0, "velocity": 0, "duration": 65}, {"note": 76, "velocity": 82, "duration": 171}, {"note": 0, "velocity": 0, "duration": 69}, {"note": 74, "velocity": 82, "duration": 147}, {"note": 0, "velocity": 0, "duration": 93}, {"note": 73, "velocity": 81, "duration": 374}, {"note": 0, "velocity": 0, "duration": 106}, {"note": 74, "velocity": 85, "duration": 142}, {"note": 0, "velocity": 0, "duration": 98}, {"note": 74, "velocity": 83, "duration": 130}, {"note": 0, "velocity": 0, "duration": 110}, {"note": 76, "velocity": 81, "duration": 143}, {"note": 0, "velocity": 0, "duration": 97}, {"note": 77, "velocity": 81, "duration": 400}, {"note": 0, "velocity": 0, "duration": 80}, {"note": 72, "velocity": 80, "duration": 472}, {"note": 69, "velocity": 81, "duration": 429}, {"note": 76, "velocity": 82, "duration": 137}, {"note": 0, "velocity": 0, "duration": 103}, {"note": 74, "velocity": 81, "duration": 348}, {"note": 0, "velocity": 0, "duration": 132}, {"note": 71, "velocity": 80, "duration": 327}, {"note": 0, "velocity": 0, "duration": 153}, {"note": 67, "velocity": 62, "duration": 151}, {"note": 0, "velocity": 0, "duration": 89}, {"note": 67, "velocity": 82, "duration": 240}, {"note": 76, "velocity": 82, "duration": 383}, {"note": 0, "velocity": 0, "duration": 97}, {"note": 74, "velocity": 86, "duration": 737}, {"note": 72, "velocity": 77, "duration": 1200}, {"note": 71, "velocity": 81, "duration": 740}, {"note": 69, "velocity": 70, "duration": 280}, {"note": 71, "velocity": 80, "duration": 1093}, {"note": 0, "velocity": 0, "duration": 14507}, {"note": 69, "velocity": 81, "duration": 159}, {"note": 0, "velocity": 0, "duration": 81}, {"note": 71, "velocity": 81, "duration": 234}, {"note": 72, "velocity": 81, "duration": 147}, {"note": 0, "velocity": 0, "duration": 93}, {"note": 74, "velocity": 81, "duration": 179}, {"note": 0, "velocity": 0, "duration": 61}, {"note": 76, "velocity": 81, "duration": 368}, {"note": 0, "velocity": 0, "duration": 112}, {"note": 72, "velocity": 78, "duration": 201}, {"note": 69, "velocity": 76, "duration": 208}, {"note": 76, "velocity": 77, "duration": 400}, {"note": 0, "velocity": 0, "duration": 80}, {"note": 72, "velocity": 82, "duration": 189}, {"note": 69, "velocity": 82, "duration": 218}, {"note": 79, "velocity": 85, "duration": 151}, {"note": 0, "velocity": 0, "duration": 89}, {"note": 79, "velocity": 81, "duration": 240}, {"note": 79, "velocity": 72, "duration": 230}, {"note": 74, "velocity": 81, "duration": 480}, {"note": 72, "velocity": 83, "duration": 195}, {"note": 71, "velocity": 79, "duration": 172}, {"note": 0, "velocity": 0, "duration": 68}, {"note": 72, "velocity": 81, "duration": 184}, {"note": 74, "velocity": 83, "duration": 472}, {"note": 71, "velocity": 81, "duration": 182}, {"note": 67, "velocity": 82, "duration": 158}, {"note": 0, "velocity": 0, "duration": 82}, {"note": 79, "velocity": 82, "duration": 164}, {"note": 0, "velocity": 0, "duration": 76}, {"note": 77, "velocity": 79, "duration": 184}, {"note": 76, "velocity": 82, "duration": 168}, {"note": 0, "velocity": 0, "duration": 72}, {"note": 74, "velocity": 86, "duration": 172}, {"note": 0, "velocity": 0, "duration": 68}, {"note": 74, "velocity": 85, "duration": 193}, {"note": 76, "velocity": 77, "duration": 151}, {"note": 0, "velocity": 0, "duration": 89}, {"note": 74, "velocity": 85, "duration": 159}, {"note": 0, "velocity": 0, "duration": 81}, {"note": 73, "velocity": 77, "duration": 451}, {"note": 73, "velocity": 81, "duration": 148}, {"note": 0, "velocity": 0, "duration": 92}, {"note": 74, "velocity": 85, "duration": 132}, {"note": 0, "velocity": 0, "duration": 108}, {"note": 76, "velocity": 82, "duration": 148}, {"note": 0, "velocity": 0, "duration": 92}, {"note": 77, "velocity": 82, "duration": 355}, {"note": 0, "velocity": 0, "duration": 125}, {"note": 72, "velocity": 77, "duration": 152}, {"note": 0, "velocity": 0, "duration": 88}, {"note": 69, "velocity": 75, "duration": 202}, {"note": 76, "velocity": 81, "duration": 317}, {"note": 0, "velocity": 0, "duration": 163}, {"note": 72, "velocity": 76, "duration": 376}, {"note": 0, "velocity": 0, "duration": 104}, {"note": 71, "velocity": 81, "duration": 155}, {"note": 0, "velocity": 0, "duration": 85}, {"note": 71, "velocity": 82, "duration": 185}, {"note": 72, "velocity": 79, "duration": 176}, {"note": 0, "velocity": 0, "duration": 64}, {"note": 71, "velocity": 82, "duration": 148}, {"note": 0, "velocity": 0, "duration": 332}, {"note": 74, "velocity": 85, "duration": 163}, {"note": 0, "velocity": 0, "duration": 77}, {"note": 74, "velocity": 83, "duration": 176}, {"note": 0, "velocity": 0, "duration": 64}, {"note": 72, "velocity": 81, "duration": 219}, {"note": 77, "velocity": 75, "duration": 377}, {"note": 0, "velocity": 0, "duration": 103}, {"note": 74, "velocity": 82, "duration": 372}, {"note": 0, "velocity": 0, "duration": 108}, {"note": 74, "velocity": 82, "duration": 198}, {"note": 72, "velocity": 82, "duration": 159}, {"note": 0, "velocity": 0, "duration": 81}, {"note": 74, "velocity": 90, "duration": 213}, {"note": 72, "velocity": 83, "duration": 184}, {"note": 77, "velocity": 81, "duration": 184}, {"note": 76, "velocity": 83, "duration": 179}, {"note": 0, "velocity": 0, "duration": 61}, {"note": 74, "velocity": 85, "duration": 147}, {"note": 0, "velocity": 0, "duration": 93}, {"note": 76, "velocity": 83, "duration": 337}, {"note": 0, "velocity": 0, "duration": 143}, {"note": 69, "velocity": 82, "duration": 135}, {"note": 0, "velocity": 0, "duration": 105}, {"note": 72, "velocity": 81, "duration": 151}, {"note": 0, "velocity": 0, "duration": 89}, {"note": 74, "velocity": 81, "duration": 145}, {"note": 0, "velocity": 0, "duration": 95}, {"note": 76, "velocity": 81, "duration": 340}, {"note": 0, "velocity": 0, "duration": 140}, {"note": 72, "velocity": 82, "duration": 139}, {"note": 0, "velocity": 0, "duration": 101}, {"note": 69, "velocity": 78, "duration": 150}, {"note": 0, "velocity": 0, "duration": 90}, {"note": 76, "velocity": 82, "duration": 384}, {"note": 0, "velocity": 0, "duration": 96}, {"note": 72, "velocity": 82, "duration": 163}, {"note": 0, "velocity": 0, "duration": 77}, {"note": 69, "velocity": 81, "duration": 190}, {"note": 79, "velocity": 81, "duration": 151}, {"note": 0, "velocity": 0, "duration": 89}, {"note": 79, "velocity": 77, "duration": 130}, {"note": 0, "velocity": 0, "duration": 110}, {"note": 79, "velocity": 79, "duration": 185}, {"note": 74, "velocity": 83, "duration": 361}, {"note": 0, "velocity": 0, "duration": 119}, {"note": 72, "velocity": 77, "duration": 114}, {"note": 0, "velocity": 0, "duration": 126}, {"note": 71, "velocity": 78, "duration": 155}, {"note": 0, "velocity": 0, "duration": 85}, {"note": 72, "velocity": 79, "duration": 144}, {"note": 0, "velocity": 0, "duration": 96}, {"note": 74, "velocity": 82, "duration": 344}, {"note": 0, "velocity": 0, "duration": 136}, {"note": 71, "velocity": 81, "duration": 192}, {"note": 67, "velocity": 77, "duration": 185}, {"note": 79, "velocity": 83, "duration": 155}, {"note": 0, "velocity": 0, "duration": 85}, {"note": 77, "velocity": 81, "duration": 139}, {"note": 0, "velocity": 0, "duration": 101}, {"note": 76, "velocity": 87, "duration": 117}, {"note": 0, "velocity": 0, "duration": 123}, {"note": 74, "velocity": 83, "duration": 143}, {"note": 0, "velocity": 0, "duration": 97}, {"note": 74, "velocity": 83, "duration": 175}, {"note": 0, "velocity": 0, "duration": 65}, {"note": 76, "velocity": 82, "duration": 171}, {"note": 0, "velocity": 0, "duration": 69}, {"note": 74, "velocity": 82, "duration": 147}, {"note": 0, "velocity": 0, "duration": 93}, {"note": 73, "velocity": 81, "duration": 374}, {"note": 0, "velocity": 0, "duration": 106}, {"note": 74, "velocity": 85, "duration": 142}, {"note": 0, "velocity": 0, "duration": 98}, {"note": 74, "velocity": 83, "duration": 130}, {"note": 0, "velocity": 0, "duration": 110}, {"note": 76, "velocity": 81, "duration": 143}, {"note": 0, "velocity": 0, "duration": 97}, {"note": 77, "velocity": 81, "duration": 400}, {"note": 0, "velocity": 0, "duration": 80}, {"note": 72, "velocity": 80, "duration": 472}, {"note": 69, "velocity": 81, "duration": 429}, {"note": 76, "velocity": 82, "duration": 137}, {"note": 0, "velocity": 0, "duration": 103}, {"note": 74, "velocity": 81, "duration": 348}, {"note": 0, "velocity": 0, "duration": 132}, {"note": 71, "velocity": 80, "duration": 327}, {"note": 0, "velocity": 0, "duration": 153}, {"note": 67, "velocity": 62, "duration": 151}, {"note": 0, "velocity": 0, "duration": 89}, {"note": 67, "velocity": 82, "duration": 240}, {"note": 76, "velocity": 82, "duration": 383}, {"note": 0, "velocity": 0, "duration": 97}, {"note": 74, "velocity": 86, "duration": 737}, {"note": 72, "velocity": 77, "duration": 1200}, {"note": 71, "velocity": 81, "duration": 740}, {"note": 69, "velocity": 70, "duration": 280}, {"note": 71, "velocity": 80, "duration": 1093}]]