[[{"note": 65, "velocity": 81, "duration": 180}, {"note": 72, "velocity": 82, "duration": 117}, {"note": 0, "velocity": 0, "duration": 123}, {"note": 72, "velocity": 85, "duration": 115}, {"note": 0, "velocity": 0, "duration": 125}, {"note": 72, "velocity": 81, "duration": 148}, {"note": 0, "velocity": 0, "duration": 92}, {"note": 77, "velocity": 82, "duration": 350}, {"note": 75, "velocity": 74, "duration": 104}, {"note": 72, "velocity": 80, "duration": 387}, {"note": 0, "velocity": 0, "duration": 93}, {"note": 70, "velocity": 74, "duration": 192}, {"note": 72, "velocity": 81, "duration": 381}, {"note": 0, "velocity": 0, "duration": 99}, {"note": 68, "velocity": 75, "duration": 213}, {"note": 65, "velocity": 80, "duration": 846}, {"note": 0, "velocity": 0, "duration": 114}, {"note": 65, "velocity": 81, "duration": 213}, {"note": 68, "velocity": 75, "duration": 160}, {"note": 0, "velocity": 0, "duration": 80}, {"note": 68, "velocity": 80, "duration": 234}, {"note": 65, "velocity": 82, "duration": 192}, {"note": 77, "velocity": 84, "duration": 472}, {"note": 75, "velocity": 85, "duration": 223}, {"note": 70, "velocity": 81, "duration": 234}, {"note": 72, "velocity": 79, "duration": 1787}, {"note": 0, "velocity": 0, "duration": 133}, {"note": 72, "velocity": 84, "duration": 243}, {"note": 77, "velocity": 80, "duration": 369}, {"note": 0, "velocity": 0, "duration": 111}, {"note": 80, "velocity": 81, "duration": 169}, {"note": 0, "velocity": 0, "duration": 71}, {"note": 77, "velocity": 87, "duration": 639}, {"note": 0, "velocity": 0, "duration": 81}, {"note": 75, "velocity": 82, "duration": 174}, {"note": 0, "velocity": 0, "duration": 66}, {"note": 77, "velocity": 83, "duration": 237}, {"note": 75, "velocity": 84, "duration": 417}, {"note": 0, "velocity": 0, "duration": 63}, {"note": 68, "velocity": 80, "duration": 295}, {"note": 70, "velocity": 81, "duration": 781}, {"note": 0, "velocity": 0, "duration": 179}, {"note": 70, "velocity": 82, "duration": 155}, {"note": 0, "velocity": 0, "duration": 85}, {"note": 72, "velocity": 81, "duration": 152}, {"note": 0, "velocity": 0, "duration": 88}, {"note": 75, "velocity": 87, "duration": 142}, {"note": 0, "velocity": 0, "duration": 98}, {"note": 72, "velocity": 83, "duration": 117}, {"note": 0, "velocity": 0, "duration": 123}, {"note": 70, "velocity": 83, "duration": 171}, {"note": 0, "velocity": 0, "duration": 69}, {"note": 72, "velocity": 81, "duration": 384}, {"note": 0, "velocity": 0, "duration": 96}, {"note": 68, "velocity": 76, "duration": 481}, {"note": 65, "velocity": 81, "duration": 1262}, {"note": 0, "velocity": 0, "duration": 418}, {"note": 65, "velocity": 81, "duration": 180}, {"note": 72, "velocity": 82, "duration": 117}, {"note": 0, "velocity": 0, "duration": 123}, {"note": 72, "velocity": 85, "duration": 115}, {"note": 0, "velocity": 0, "duration": 125}, {"note": 72, "velocity": 81, "duration": 148}, {"note": 0, "velocity": 0, "duration": 92}, {"note": 77, "velocity": 82, "duration": 350}, {"note": 75, "velocity": 74, "duration": 104}, {"note": 72, "velocity": 80, "duration": 387}, {"note": 0, "velocity": 0, "duration": 93}, {"note": 70, "velocity": 74, "duration": 192}, {"note": 72, "velocity": 81, "duration": 381}, {"note": 0, "velocity": 0, "duration": 99}, {"note": 68, "velocity": 75, "duration": 213}, {"note": 65, "velocity": 80, "duration": 846}, {"note": 0, "velocity": 0, "duration": 114}, {"note": 65, "velocity": 81, "duration": 213}, {"note": 68, "velocity": 75, "duration": 160}, {"note": 0, "velocity": 0, "duration": 80}, {"note": 68, "velocity": 80, "duration": 234}, {"note": 65, "velocity": 82, "duration": 192}, {"note": 77, "velocity": 84, "duration": 472}, {"note": 75, "velocity": 85, "duration": 223}, {"note": 70, "velocity": 81, "duration": 234}, {"note": 72, "velocity": 79, "duration": 1787}, {"note": 0, "velocity": 0, "duration": 133}, {"note": 72, "velocity": 84, "duration": 243}, {"note": 77, "velocity": 80, "duration": 369}, {"note": 0, "velocity": 0, "duration": 111}, {"note": 80, "velocity": 81, "duration": 169}, {"note": 0, "velocity": 0, "duration": 71}, {"note": 77, "velocity": 87, "duration": 639}, {"note": 0, "velocity": 0, "duration": 81}, {"note": 75, "velocity": 82, "duration": 174}, {"note": 0, "velocity": 0, "duration": 66}, {"note": 77, "velocity": 83, "duration": 237}, {"note": 75, "velocity": 84, "duration": 417}, {"note": 0, "velocity": 0, "duration": 63}, {"note": 68, "velocity": 80, "duration": 295}, {"note": 70, "velocity": 81, "duration": 781}, {"note": 0, "velocity": 0, "duration": 179}, {"note": 70, "velocity": 82, "duration": 155}, {"note": 0, "velocity": 0, "duration": 85}, {"note": 72, "velocity": 81, "duration": 152}, {"note": 0, "velocity": 0, "duration": 88}, {"note": 75, "velocity": 87, "duration": 142}, {"note": 0, "velocity": 0, "duration": 98}, {"note": 72, "velocity": 83, "duration": 117}, {"note": 0, "velocity": 0, "duration": 123}, {"note": 70, "velocity": 83, "duration": 171}, {"note": 0, "velocity": 0, "duration": 69}, {"note": 72, "velocity": 81, "duration": 384}, {"note": 0, "velocity": 0, "duration": 96}, {"note": 68, "velocity": 76, "duration": 481}, {"note": 65, "velocity": 81, "duration": 1262}, {"note": 0, "velocity": 0, "duration": 418}, {"note": 77, "velocity": 89, "duration": 411}, {"note": 0, "velocity": 0, "duration": 69}, {"note": 77, "velocity": 84, "duration": 220}, {"note": 75, "velocity": 82, "duration": 291}, {"note": 77, "velocity": 85, "duration": 251}, {"note": 80, "velocity": 81, "duration": 285}, {"note": 82, "velocity": 81, "duration": 294}, {"note": 84, "velocity": 84, "duration": 289}, {"note": 82, "velocity": 82, "duration": 346}, {"note": 80, "velocity": 81, "duration": 230}, {"note": 77, "velocity": 81, "duration": 269}, {"note": 75, "velocity": 82, "duration": 237}, {"note": 72, "velocity": 78, "duration": 738}, {"note": 0, "velocity": 0, "duration": 222}, {"note": 77, "velocity": 82, "duration": 180}, {"note": 77, "velocity": 83, "duration": 126}, {"note": 0, "velocity": 0, "duration": 114}, {"note": 77, "velocity": 86, "duration": 162}, {"note": 0, "velocity": 0, "duration": 78}, {"note": 80, "velocity": 83, "duration": 175}, {"note": 0, "velocity": 0, "duration": 65}, {"note": 77, "velocity": 82, "duration": 214}, {"note": 75, "velocity": 83, "duration": 143}, {"note": 0, "velocity": 0, "duration": 97}, {"note": 70, "velocity": 81, "duration": 192}, {"note": 75, "velocity": 84, "duration": 169}, {"note": 0, "velocity": 0, "duration": 71}, {"note": 72, "velocity": 76, "duration": 1680}, {"note": 0, "velocity": 0, "duration": 240}, {"note": 72, "velocity": 86, "duration": 226}, {"note": 77, "velocity": 82, "duration": 169}, {"note": 0, "velocity": 0, "duration": 71}, {"note": 77, "velocity": 82, "duration": 159}, {"note": 0, "velocity": 0, "duration": 81}, {"note": 80, "velocity": 81, "duration": 200}, {"note": 77, "velocity": 83, "duration": 603}, {"note": 0, "velocity": 0, "duration": 117}, {"note": 75, "velocity": 83, "duration": 217}, {"note": 77, "velocity": 81, "duration": 163}, {"note": 0, "velocity": 0, "duration": 77}, {"note": 80, "velocity": 77, "duration": 163}, {"note": 0, "velocity": 0, "duration": 77}, {"note": 82, "velocity": 80, "duration": 149}, {"note": 0, "velocity": 0, "duration": 91}, {"note": 84, "velocity": 81, "duration": 149}, {"note": 0, "velocity": 0, "duration": 91}, {"note": 82, "velocity": 80, "duration": 742}, {"note": 0, "velocity": 0, "duration": 218}, {"note": 72, "velocity": 84, "duration": 217}, {"note": 75, "velocity": 85, "duration": 134}, {"note": 0, "velocity": 0, "duration": 106}, {"note": 75, "velocity": 84, "duration": 148}, {"note": 0, "velocity": 0, "duration": 92}, {"note": 84, "velocity": 84, "duration": 151}, {"note": 0, "velocity": 0, "duration": 89}, {"note": 82, "velocity": 81, "duration": 168}, {"note": 0, "velocity": 0, "duration": 72}, {"note": 80, "velocity": 80, "duration": 391}, {"note": 0, "velocity": 0, "duration": 89}, {"note": 75, "velocity": 84, "duration": 180}, {"note": 77, "velocity": 80, "duration": 1787}, {"note": 0, "velocity": 0, "duration": 133}, {"note": 77, "velocity": 89, "duration": 411}, {"note": 0, "velocity": 0, "duration": 69}, {"note": 77, "velocity": 84, "duration": 220}, {"note": 75, "velocity": 82, "duration": 291}, {"note": 77, "velocity": 85, "duration": 251}, {"note": 80, "velocity": 81, "duration": 285}, {"note": 82, "velocity": 81, "duration": 294}, {"note": 84, "velocity": 84, "duration": 289}, {"note": 82, "velocity": 82, "duration": 346}, {"note": 80, "velocity": 81, "duration": 230}, {"note": 77, "velocity": 81, "duration": 269}, {"note": 75, "velocity": 82, "duration": 237}, {"note": 72, "velocity": 78, "duration": 738}, {"note": 0, "velocity": 0, "duration": 222}, {"note": 77, "velocity": 82, "duration": 180}, {"note": 77, "velocity": 83, "duration": 126}, {"note": 0, "velocity": 0, "duration": 114}, {"note": 77, "velocity": 86, "duration": 162}, {"note": 0, "velocity": 0, "duration": 78}, {"note": 80, "velocity": 83, "duration": 175}, {"note": 0, "velocity": 0, "duration": 65}, {"note": 77, "velocity": 82, "duration": 214}, {"note": 75, "velocity": 83, "duration": 143}, {"note": 0, "velocity": 0, "duration": 97}, {"note": 70, "velocity": 81, "duration": 192}, {"note": 75, "velocity": 84, "duration": 169}, {"note": 0, "velocity": 0, "duration": 71}, {"note": 72, "velocity": 76, "duration": 1680}, {"note": 0, "velocity": 0, "duration": 240}, {"note": 72, "velocity": 86, "duration": 226}, {"note": 77, "velocity": 82, "duration": 169}, {"note": 0, "velocity": 0, "duration": 71}, {"note": 77, "velocity": 82, "duration": 159}, {"note": 0, "velocity": 0, "duration": 81}, {"note": 80, "velocity": 81, "duration": 200}, {"note": 77, "velocity": 83, "duration": 603}, {"note": 0, "velocity": 0, "duration": 117}, {"note": 75, "velocity": 83, "duration": 217}, {"note": 77, "velocity": 81, "duration": 163}, {"note": 0, "velocity": 0, "duration": 77}, {"note": 80, "velocity": 77, "duration": 163}, {"note": 0, "velocity": 0, "duration": 77}, {"note": 82, "velocity": 80, "duration": 149}, {"note": 0, "velocity": 0, "duration": 91}, {"note": 84, "velocity": 81, "duration": 149}, {"note": 0, "velocity": 0, "duration": 91}, {"note": 82, "velocity": 80, "duration": 742}, {"note": 0, "velocity": 0, "duration": 218}, {"note": 72, "velocity": 84, "duration": 217}, {"note": 75, "velocity": 85, "duration": 134}, {"note": 0, "velocity": 0, "duration": 106}, {"note": 75, "velocity": 84, "duration": 148}, {"note": 0, "velocity": 0, "duration": 92}, {"note": 84, "velocity": 84, "duration": 151}, {"note": 0, "velocity": 0, "duration": 89}, {"note": 82, "velocity": 81, "duration": 168}, {"note": 0, "velocity": 0, "duration": 72}, {"note": 80, "velocity": 80, "duration": 391}, {"note": 0, "velocity": 0, "duration": 89}, {"note": 75, "velocity": 84, "duration": 180}, {"note": 77, "velocity": 80, "duration": 1787}, {"note": 0, "velocity": 0, "duration": 15493}, {"note": 65, "velocity": 81, "duration": 180}, {"note": 72, "velocity": 82, "duration": 117}, {"note": 0, "velocity": 0, "duration": 123}, {"note": 72, "velocity": 85, "duration": 115}, {"note": 0, "velocity": 0, "duration": 125}, {"note": 72, "velocity": 81, "duration": 148}, {"note": 0, "velocity": 0, "duration": 92}, {"note": 77, "velocity": 82, "duration": 350}, {"note": 75, "velocity": 74, "duration": 104}, {"note": 72, "velocity": 80, "duration": 387}, {"note": 0, "velocity": 0, "duration": 93}, {"note": 70, "velocity": 74, "duration": 192}, {"note": 72, "velocity": 81, "duration": 381}, {"note": 0, "velocity": 0, "duration": 99}, {"note": 68, "velocity": 75, "duration": 213}, {"note": 65, "velocity": 80, "duration": 846}, {"note": 0, "velocity": 0, "duration": 114}, {"note": 65, "velocity": 81, "duration": 213}, {"note": 68, "velocity": 75, "duration": 160}, {"note": 0, "velocity": 0, "duration": 80}, {"note": 68, "velocity": 80, "duration": 234}, {"note": 65, "velocity": 82, "duration": 192}, {"note": 77, "velocity": 84, "duration": 472}, {"note": 75, "velocity": 85, "duration": 223}, {"note": 70, "velocity": 81, "duration": 234}, {"note": 72, "velocity": 79, "duration": 1787}, {"note": 0, "velocity": 0, "duration": 133}, {"note": 72, "velocity": 84, "duration": 243}, {"note": 77, "velocity": 80, "duration": 369}, {"note": 0, "velocity": 0, "duration": 111}, {"note": 80, "velocity": 81, "duration": 169}, {"note": 0, "velocity": 0, "duration": 71}, {"note": 77, "velocity": 87, "duration": 639}, {"note": 0, "velocity": 0, "duration": 81}, {"note": 75, "velocity": 82, "duration": 174}, {"note": 0, "velocity": 0, "duration": 66}, {"note": 77, "velocity": 83, "duration": 237}, {"note": 75, "velocity": 84, "duration": 417}, {"note": 0, "velocity": 0, "duration": 63}, {"note": 68, "velocity": 80, "duration": 295}, {"note": 70, "velocity": 81, "duration": 781}, {"note": 0, "velocity": 0, "duration": 179}, {"note": 70, "velocity": 82, "duration": 155}, {"note": 0, "velocity": 0, "duration": 85}, {"note": 72, "velocity": 81, "duration": 152}, {"note": 0, "velocity": 0, "duration": 88}, {"note": 75, "velocity": 87, "duration": 142}, {"note": 0, "velocity": 0, "duration": 98}, {"note": 72, "velocity": 83, "duration": 117}, {"note": 0, "velocity": 0, "duration": 123}, {"note": 70, "velocity": 83, "duration": 171}, {"note": 0, "velocity": 0, "duration": 69}, {"note": 72, "velocity": 81, "duration": 384}, {"note": 0, "velocity": 0, "duration": 96}, {"note": 68, "velocity": 76, "duration": 481}, {"note": 65, "velocity": 81, "duration": 1262}, {"note": 0, "velocity": 0, "duration": 418}, {"note": 65, "velocity": 81, "duration": 180}, {"note": 72, "velocity": 82, "duration": 117}, {"note": 0, "velocity": 0, "duration": 123}, {"note": 72, "velocity": 85, "duration": 115}, {"note": 0, "velocity": 0, "duration": 125}, {"note": 72, "velocity": 81, "duration": 148}, {"note": 0, "velocity": 0, "duration": 92}, {"note": 77, "velocity": 82, "duration": 350}, {"note": 75, "velocity": 74, "duration": 104}, {"note": 72, "velocity": 80, "duration": 387}, {"note": 0, "velocity": 0, "duration": 93}, {"note": 70, "velocity": 74, "duration": 192}, {"note": 72, "velocity": 81, "duration": 381}, {"note": 0, "velocity": 0, "duration": 99}, {"note": 68, "velocity": 75, "duration": 213}, {"note": 65, "velocity": 80, "duration": 846}, {"note": 0, "velocity": 0, "duration": 114}, {"note": 65, "velocity": 81, "duration": 213}, {"note": 68, "velocity": 75, "duration": 160}, {"note": 0, "velocity": 0, "duration": 80}, {"note": 68, "velocity": 80, "duration": 234}, {"note": 65, "velocity": 82, "duration": 192}, {"note": 77, "velocity": 84, "duration": 472}, {"note": 75, "velocity": 85, "duration": 223}, {"note": 70, "velocity": 81, "duration": 234}, {"note": 72, "velocity": 79, "duration": 1787}, {"note": 0, "velocity": 0, "duration": 133}, {"note": 72, "velocity": 84, "duration": 243}, {"note": 77, "velocity": 80, "duration": 369}, {"note": 0, "velocity": 0, "duration": 111}, {"note": 80, "velocity": 81, "duration": 169}, {"note": 0, "velocity": 0, "duration": 71}, {"note": 77, "velocity": 87, "duration": 639}, {"note": 0, "velocity": 0, "duration": 81}, {"note": 75, "velocity": 82, "duration": 174}, {"note": 0, "velocity": 0, "duration": 66}, {"note": 77, "velocity": 83, "duration": 237}, {"note": 75, "velocity": 84, "duration": 417}, {"note": 0, "velocity": 0, "duration": 63}, {"note": 68, "velocity": 80, "duration": 295}, {"note": 70, "velocity": 81, "duration": 781}, {"note": 0, "velocity": 0, "duration": 179}, {"note": 70, "velocity": 82, "duration": 155}, {"note": 0, "velocity": 0, "duration": 85}, {"note": 72, "velocity": 81, "duration": 152}, {"note": 0, "velocity": 0, "duration": 88}, {"note": 75, "velocity": 87, "duration": 142}, {"note": 0, "velocity": 0, "duration": 98}, {"note": 72, "velocity": 83, "duration": 117}, {"note": 0, "velocity": 0, "duration": 123}, {"note": 70, "velocity": 83, "duration": 171}, {"note": 0, "velocity": 0, "duration": 69}, {"note": 72, "velocity": 81, "duration": 384}, {"note": 0, "velocity": 0, "duration": 96}, {"note": 68, "velocity": 76, "duration": 481}, {"note": 65, "velocity": 81, "duration": 1262}, {"note": 0, "velocity": 0, "duration": 418}, {"note": 77, "velocity": 89, "duration": 411}, {"note": 0, "velocity": 0, "duration": 69}, {"note": 77, "velocity": 84, "duration": 220}, {"note": 75, "velocity": 82, "duration": 291}, {"note": 77, "velocity": 85, "duration": 251}, {"note": 80, "velocity": 81, "duration": 285}, {"note": 82, "velocity": 81, "duration": 294}, {"note": 84, "velocity": 84, "duration": 289}, {"note": 82, "velocity": 82, "duration": 346}, {"note": 80, "velocity": 81, "duration": 230}, {"note": 77, "velocity": 81, "duration": 269}, {"note": 75, "velocity": 82, "duration": 237}, {"note": 72, "velocity": 78, "duration": 738}, {"note": 0, "velocity": 0, "duration": 222}, {"note": 77, "velocity": 82, "duration": 180}, {"note": 77, "velocity": 83, "duration": 126}, {"note": 0, "velocity": 0, "duration": 114}, {"note": 77, "velocity": 86, "duration": 162}, {"note": 0, "velocity": 0, "duration": 78}, {"note": 80, "velocity": 83, "duration": 175}, {"note": 0, "velocity": 0, "duration": 65}, {"note": 77, "velocity": 82, "duration": 214}, {"note": 75, "velocity": 83, "duration": 143}, {"note": 0, "velocity": 0, "duration": 97}, {"note": 70, "velocity": 81, "duration": 192}, {"note": 75, "velocity": 84, "duration": 169}, {"note": 0, "velocity": 0, "duration": 71}, {"note": 72, "velocity": 76, "duration": 1680}, {"note": 0, "velocity": 0, "duration": 240}, {"note": 72, "velocity": 86, "duration": 226}, {"note": 77, "velocity": 82, "duration": 169}, {"note": 0, "velocity": 0, "duration": 71}, {"note": 77, "velocity": 82, "duration": 159}, {"note": 0, "velocity": 0, "duration": 81}, {"note": 80, "velocity": 81, "duration": 200}, {"note": 77, "velocity": 83, "duration": 603}, {"note": 0, "velocity": 0, "duration": 117}, {"note": 75, "velocity": 83, "duration": 217}, {"note": 77, "velocity": 81, "duration": 163}, {"note": 0, "velocity": 0, "duration": 77}, {"note": 80, "velocity": 77, "duration": 163}, {"note": 0, "velocity": 0, "duration": 77}, {"note": 82, "velocity": 80, "duration": 149}, {"note": 0, "velocity": 0, "duration": 91}, {"note": 84, "velocity": 81, "duration": 149}, {"note": 0, "velocity": 0, "duration": 91}, {"note": 82, "velocity": 80, "duration": 742}, {"note": 0, "velocity": 0, "duration": 218}, {"note": 72, "velocity": 84, "duration": 217}, {"note": 75, "velocity": 85, "duration": 134}, {"note": 0, "velocity": 0, "duration": 106}, {"note": 75, "velocity": 84, "duration": 148}, {"note": 0, "velocity": 0, "duration": 92}, {"note": 84, "velocity": 84, "duration": 151}, {"note": 0, "velocity": 0, "duration": 89}, {"note": 82, "velocity": 81, "duration": 168}, {"note": 0, "velocity": 0, "duration": 72}, {"note": 80, "velocity": 80, "duration": 391}, {"note": 0, "velocity": 0, "duration": 89}, {"note": 75, "velocity": 84, "duration": 180}, {"note": 77, "velocity": 80, "duration": 1787}, {"note": 0, "velocity": 0, "duration": 133}, {"note": 77, "velocity": 89, "duration": 411}, {"note": 0, "velocity": 0, "duration": 69}, {"note": 77, "velocity": 84, "duration": 220}, {"note": 75, "velocity": 82, "duration": 291}, {"note": 77, "velocity": 85, "duration": 251}, {"note": 80, "velocity": 81, "duration": 285}, {"note": 82, "velocity": 81, "duration": 294}, {"note": 84, "velocity": 84, "duration": 289}, {"note": 82, "velocity": 82, "duration": 346}, {"note": 80, "velocity": 81, "duration": 230}, {"note": 77, "velocity": 81, "duration": 269}, {"note": 75, "velocity": 82, "duration": 237}, {"note": 72, "velocity": 78, "duration": 738}, {"note": 0, "velocity": 0, "duration": 222}, {"note": 77, "velocity": 82, "duration": 180}, {"note": 77, "velocity": 83, "duration": 126}, {"note": 0, "velocity": 0, "duration": 114}, {"note": 77, "velocity": 86, "duration": 162}, {"note": 0, "velocity": 0, "duration": 78}, {"note": 80, "velocity": 83, "duration": 175}, {"note": 0, "velocity": 0, "duration": 65}, {"note": 77, "velocity": 82, "duration": 214}, {"note": 75, "velocity": 83, "duration": 143}, {"note": 0, "velocity": 0, "duration": 97}, {"note": 70, "velocity": 81, "duration": 192}, {"note": 75, "velocity": 84, "duration": 169}, {"note": 0, "velocity": 0, "duration": 71}, {"note": 72, "velocity": 76, "duration": 1680}, {"note": 0, "velocity": 0, "duration": 240}, {"note": 72, "velocity": 86, "duration": 226}, {"note": 77, "velocity": 82, "duration": 169}, {"note": 0, "velocity": 0, "duration": 71}, {"note": 77, "velocity": 82, "duration": 159}, {"note": 0, "velocity": 0, "duration": 81}, {"note": 80, "velocity": 81, "duration": 200}, {"note": 77, "velocity": 83, "duration": 603}, {"note": 0, "velocity": 0, "duration": 117}, {"note": 75, "velocity": 83, "duration": 217}, {"note": 77, "velocity": 81, "duration": 163}, {"note": 0, "velocity": 0, "duration": 77}, {"note": 80, "velocity": 77, "duration": 163}, {"note": 0, "velocity": 0, "duration": 77}, {"note": 82, "velocity": 80, "duration": 149}, {"note": 0, "velocity": 0, "duration": 91}, {"note": 84, "velocity": 81, "duration": 149}, {"note": 0, "velocity": 0, "duration": 91}, {"note": 82, "velocity": 80, "duration": 742}, {"note": 0, "velocity": 0, "duration": 218}, {"note": 72, "velocity": 84, "duration": 217}, {"note": 75, "velocity": 85, "duration": 134}, {"note": 0, "velocity": 0, "duration": 106}, {"note": 75, "velocity": 84, "duration": 148}, {"note": 0, "velocity": 0, "duration": 92}, {"note": 84, "velocity": 84, "duration": 151}, {"note": 0, "velocity": 0, "duration": 89}, {"note": 82, "velocity": 81, "duration": 168}, {"note": 0, "velocity": 0, "duration": 72}, {"note": 80, "velocity": 80, "duration": 391}, {"note": 0, "velocity": 0, "duration": 89}, {"note": 75, "velocity": 84, "duration": 180}, {"note": 77, "velocity": 80, "duration": 1787}, {"note": 0, "velocity": 0, "duration": 133}, {"note": 77, "velocity": 89, "duration": 411}, {"note": 0, "velocity": 0, "duration": 69}, {"note": 77, "velocity": 84, "duration": 220}, {"note": 75, "velocity": 82, "duration": 291}, {"note": 77, "velocity": 85, "duration": 251}, {"note": 80, "velocity": 81, "duration": 285}, {"note": 82, "velocity": 81, "duration": 294}, {"note": 84, "velocity": 84, "duration": 289}, {"note": 82, "velocity": 82, "duration": 346}, {"note": 80, "velocity": 81, "duration": 230}, {"note": 77, "velocity": 81, "duration": 269}, {"note": 75, "velocity": 82, "duration": 237}, {"note": 72, "velocity": 78, "duration": 738}, {"note": 0, "velocity": 0, "duration": 222}, {"note": 77, "velocity": 82, "duration": 180}, {"note": 77, "velocity": 83, "duration": 126}, {"note": 0, "velocity": 0, "duration": 114}, {"note": 77, "velocity": 86, "duration": 162}, {"note": 0, "velocity": 0, "duration": 78}, {"note": 80, "velocity": 83, "duration": 175}, {"note": 0, "velocity": 0, "duration": 65}, {"note": 77, "velocity": 82, "duration": 214}, {"note": 75, "velocity": 83, "duration": 143}, {"note": 0, "velocity": 0, "duration": 97}, {"note": 70, "velocity": 81, "duration": 192}, {"note": 75, "velocity": 84, "duration": 169}, {"note": 0, "velocity": 0, "duration": 71}, {"note": 72, "velocity": 76, "duration": 1680}, {"note": 0, "velocity": 0, "duration": 240}, {"note": 72, "velocity": 86, "duration": 226}, {"note": 77, "velocity": 82, "duration": 169}, {"note": 0, "velocity": 0, "duration": 71}, {"note": 77, "velocity": 82, "duration": 159}, {"note": 0, "velocity": 0, "duration": 81}, {"note": 80, "velocity": 81, "duration": 200}, {"note": 77, "velocity": 83, "duration": 603}, {"note": 0, "velocity": 0, "duration": 117}, {"note": 75, "velocity": 83, "duration": 217}, {"note": 77, "velocity": 81, "duration": 163}, {"note": 0, "velocity": 0, "duration": 77}, {"note": 80, "velocity": 77, "duration": 163}, {"note": 0, "velocity": 0, "duration": 77}, {"note": 82, "velocity": 80, "duration": 149}, {"note": 0, "velocity": 0, "duration": 91}, {"note": 84, "velocity": 81, "duration": 149}, {"note": 0, "velocity": 0, "duration": 91}, {"note": 82, "velocity": 80, "duration": 742}, {"note": 0, "velocity": 0, "duration": 218}, {"note": 72, "velocity": 84, "duration": 217}, {"note": 75, "velocity": 85, "duration": 134}, {"note": 0, "velocity": 0, "duration": 106}, {"note": 75, "velocity": 84, "duration": 148}, {"note": 0, "velocity": 0, "duration": 92}, {"note": 84, "velocity": 84, "duration": 151}, {"note": 0, "velocity": 0, "duration": 89}, {"note": 82, "velocity": 81, "duration": 168}, {"note": 0, "velocity": 0, "duration": 72}, {"note": 80, "velocity": 80, "duration": 391}, {"note": 0, "velocity": 0, "duration": 89}, {"note": 75, "velocity": 84, "duration": 180}, {"note": 77, "velocity": 80, "duration": 1787}, {"note": 0, "velocity": 0, "duration": 133}, {"note": 77, "velocity": 89, "duration": 411}, {"note": 0, "velocity": 0, "duration": 69}, {"note": 77, "velocity": 84, "duration": 220}, {"note": 75, "velocity": 82, "duration": 291}, {"note": 77, "velocity": 85, "duration": 251}, {"note": 80, "velocity": 81, "duration": 285}, {"note": 82, "velocity": 81, "duration": 294}, {"note": 84, "velocity": 84, "duration": 289}, {"note": 82, "velocity": 82, "duration": 346}, {"note": 80, "velocity": 81, "duration": 230}, {"note": 77, "velocity": 81, "duration": 269}, {"note": 75, "velocity": 82, "duration": 237}, {"note": 72, "velocity": 78, "duration": 738}, {"note": 0, "velocity": 0, "duration": 222}, {"note": 77, "velocity": 82, "duration": 180}, {"note": 77, "velocity": 83, "duration": 126}, {"note": 0, "velocity": 0, "duration": 114}, {"note": 77, "velocity": 86, "duration": 162}, {"note": 0, "velocity": 0, "duration": 78}, {"note": 80, "velocity": 83, "duration": 175}, {"note": 0, "velocity": 0, "duration": 65}, {"note": 77, "velocity": 82, "duration": 214}, {"note": 75, "velocity": 83, "duration": 143}, {"note": 0, "velocity": 0, "duration": 97}, {"note": 70, "velocity": 81, "duration": 192}, {"note": 75, "velocity": 84, "duration": 169}, {"note": 0, "velocity": 0, "duration": 71}, {"note": 72, "velocity": 76, "duration": 1680}, {"note": 0, "velocity": 0, "duration": 240}, {"note": 72, "velocity": 86, "duration": 226}, {"note": 77, "velocity": 82, "duration": 169}, {"note": 0, "velocity": 0, "duration": 71}, {"note": 77, "velocity": 82, "duration": 159}, {"note": 0, "velocity": 0, "duration": 81}, {"note": 80, "velocity": 81, "duration": 200}, {"note": 77, "velocity": 83, "duration": 603}, {"note": 0, "velocity": 0, "duration": 117}, {"note": 75, "velocity": 83, "duration": 217}, {"note": 77, "velocity": 81, "duration": 163}, {"note": 0, "velocity": 0, "duration": 77}, {"note": 80, "velocity": 77, "duration": 163}, {"note": 0, "velocity": 0, "duration": 77}, {"note": 82, "velocity": 80, "duration": 149}, {"note": 0, "velocity": 0, "duration": 91}, {"note": 84, "velocity": 81, "duration": 149}, {"note": 0, "velocity": 0, "duration": 91}, {"note": 82, "velocity": 80, "duration": 742}, {"note": 0, "velocity": 0, "duration": 218}, {"note": 72, "velocity": 84, "duration": 217}, {"note": 75, "velocity": 85, "duration": 134}, {"note": 0, "velocity": 0, "duration": 106}, {"note": 75, "velocity": 84, "duration": 148}, {"note": 0, "velocity": 0, "duration": 92}, {"note": 84, "velocity": 84, "duration": 151}, {"note": 0, "velocity": 0, "duration": 89}, {"note": 82, "velocity": 81, "duration": 168}, {"note": 0, "velocity": 0, "duration": 72}, {"note": 80, "velocity": 80, "duration": 391}, {"note": 0, "velocity": 0, "duration": 89}, {"note": 75, "velocity": 84, "duration": 180}, {"note": 77, "velocity": 80, "duration": 1787}, {"note": 0, "velocity": 0, "duration": 133}, {"note": 72, "velocity": 84, "duration": 217}, {"note": 75, "velocity": 85, "duration": 134}, {"note": 0, "velocity": 0, "duration": 106}, {"note": 75, "velocity": 84, "duration": 148}, {"note": 0, "velocity": 0, "duration": 92}, {"note": 84, "velocity": 84, "duration": 151}, {"note": 0, "velocity": 0, "duration": 89}, {"note": 82, "velocity": 81, "duration": 168}, {"note": 0, "velocity": 0, "duration": 72}, {"note": 80, "velocity": 80, "duration": 240}, {"note": 75, "velocity": 80, "duration": 1440}, {"note": 0, "velocity": 0, "duration": 480}, {"note": 75, "velocity": 89, "duration": 233}, {"note": 80, "velocity": 79, "duration": 258}, {"note": 77, "velocity": 86, "duration": 1889}]]