[[{"note": 64, "velocity": 83, "duration": 140}, {"note": 0, "velocity": 0, "duration": 100}, {"note": 64, "velocity": 83, "duration": 142}, {"note": 0, "velocity": 0, "duration": 98}, {"note": 64, "velocity": 86, "duration": 565}, {"note": 0, "velocity": 0, "duration": 155}, {"note": 61, "velocity": 83, "duration": 146}, {"note": 0, "velocity": 0, "duration": 94}, {"note": 66, "velocity": 88, "duration": 127}, {"note": 0, "velocity": 0, "duration": 113}, {"note": 68, "velocity": 85, "duration": 379}, {"note": 0, "velocity": 0, "duration": 101}, {"note": 66, "velocity": 85, "duration": 414}, {"note": 0, "velocity": 0, "duration": 66}, {"note": 66, "velocity": 83, "duration": 130}, {"note": 0, "velocity": 0, "duration": 110}, {"note": 66, "velocity": 81, "duration": 162}, {"note": 0, "velocity": 0, "duration": 78}, {"note": 64, "velocity": 90, "duration": 151}, {"note": 0, "velocity": 0, "duration": 89}, {"note": 69, "velocity": 85, "duration": 322}, {"note": 0, "velocity": 0, "duration": 158}, {"note": 69, "velocity": 84, "duration": 378}, {"note": 0, "velocity": 0, "duration": 102}, {"note": 69, "velocity": 87, "duration": 166}, {"note": 0, "velocity": 0, "duration": 74}, {"note": 66, "velocity": 85, "duration": 188}, {"note": 69, "velocity": 83, "duration": 259}, {"note": 66, "velocity": 86, "duration": 128}, {"note": 0, "velocity": 0, "duration": 112}, {"note": 64, "velocity": 87, "duration": 1161}, {"note": 0, "velocity": 0, "duration": 1239}, {"note": 61, "velocity": 89, "duration": 209}, {"note": 64, "velocity": 85, "duration": 132}, {"note": 0, "velocity": 0, "duration": 108}, {"note": 64, "velocity": 83, "duration": 509}, {"note": 0, "velocity": 0, "duration": 211}, {"note": 61, "velocity": 84, "duration": 146}, {"note": 0, "velocity": 0, "duration": 94}, {"note": 66, "velocity": 87, "duration": 130}, {"note": 0, "velocity": 0, "duration": 110}, {"note": 68, "velocity": 85, "duration": 350}, {"note": 0, "velocity": 0, "duration": 130}, {"note": 66, "velocity": 83, "duration": 296}, {"note": 0, "velocity": 0, "duration": 424}, {"note": 66, "velocity": 89, "duration": 166}, {"note": 0, "velocity": 0, "duration": 74}, {"note": 64, "velocity": 85, "duration": 180}, {"note": 69, "velocity": 84, "duration": 322}, {"note": 0, "velocity": 0, "duration": 158}, {"note": 69, "velocity": 84, "duration": 360}, {"note": 0, "velocity": 0, "duration": 120}, {"note": 69, "velocity": 84, "duration": 184}, {"note": 66, "velocity": 85, "duration": 117}, {"note": 0, "velocity": 0, "duration": 123}, {"note": 69, "velocity": 85, "duration": 375}, {"note": 0, "velocity": 0, "duration": 105}, {"note": 71, "velocity": 84, "duration": 913}, {"note": 0, "velocity": 0, "duration": 1007}, {"note": 76, "velocity": 84, "duration": 145}, {"note": 0, "velocity": 0, "duration": 95}, {"note": 76, "velocity": 85, "duration": 338}, {"note": 0, "velocity": 0, "duration": 142}, {"note": 76, "velocity": 89, "duration": 341}, {"note": 0, "velocity": 0, "duration": 139}, {"note": 76, "velocity": 85, "duration": 145}, {"note": 0, "velocity": 0, "duration": 95}, {"note": 73, "velocity": 86, "duration": 191}, {"note": 71, "velocity": 84, "duration": 127}, {"note": 0, "velocity": 0, "duration": 113}, {"note": 69, "velocity": 85, "duration": 165}, {"note": 0, "velocity": 0, "duration": 75}, {"note": 69, "velocity": 83, "duration": 402}, {"note": 0, "velocity": 0, "duration": 78}, {"note": 66, "velocity": 84, "duration": 316}, {"note": 0, "velocity": 0, "duration": 164}, {"note": 69, "velocity": 84, "duration": 127}, {"note": 0, "velocity": 0, "duration": 113}, {"note": 66, "velocity": 84, "duration": 162}, {"note": 0, "velocity": 0, "duration": 78}, {"note": 69, "velocity": 84, "duration": 126}, {"note": 0, "velocity": 0, "duration": 114}, {"note": 71, "velocity": 84, "duration": 117}, {"note": 0, "velocity": 0, "duration": 123}, {"note": 71, "velocity": 83, "duration": 114}, {"note": 0, "velocity": 0, "duration": 126}, {"note": 71, "velocity": 84, "duration": 127}, {"note": 0, "velocity": 0, "duration": 113}, {"note": 71, "velocity": 82, "duration": 104}, {"note": 0, "velocity": 0, "duration": 136}, {"note": 71, "velocity": 84, "duration": 167}, {"note": 0, "velocity": 0, "duration": 73}, {"note": 69, "velocity": 83, "duration": 169}, {"note": 0, "velocity": 0, "duration": 71}, {"note": 73, "velocity": 79, "duration": 379}, {"note": 0, "velocity": 0, "duration": 101}, {"note": 71, "velocity": 81, "duration": 1122}, {"note": 0, "velocity": 0, "duration": 798}, {"note": 73, "velocity": 87, "duration": 144}, {"note": 0, "velocity": 0, "duration": 96}, {"note": 73, "velocity": 87, "duration": 345}, {"note": 0, "velocity": 0, "duration": 135}, {"note": 73, "velocity": 85, "duration": 132}, {"note": 0, "velocity": 0, "duration": 108}, {"note": 73, "velocity": 85, "duration": 353}, {"note": 0, "velocity": 0, "duration": 127}, {"note": 71, "velocity": 85, "duration": 379}, {"note": 0, "velocity": 0, "duration": 101}, {"note": 69, "velocity": 84, "duration": 138}, {"note": 0, "velocity": 0, "duration": 102}, {"note": 69, "velocity": 83, "duration": 326}, {"note": 0, "velocity": 0, "duration": 154}, {"note": 69, "velocity": 83, "duration": 141}, {"note": 0, "velocity": 0, "duration": 99}, {"note": 71, "velocity": 84, "duration": 163}, {"note": 0, "velocity": 0, "duration": 77}, {"note": 69, "velocity": 84, "duration": 152}, {"note": 0, "velocity": 0, "duration": 88}, {"note": 66, "velocity": 84, "duration": 240}, {"note": 64, "velocity": 84, "duration": 240}, {"note": 64, "velocity": 83, "duration": 142}, {"note": 0, "velocity": 0, "duration": 98}, {"note": 64, "velocity": 90, "duration": 331}, {"note": 0, "velocity": 0, "duration": 149}, {"note": 64, "velocity": 89, "duration": 141}, {"note": 0, "velocity": 0, "duration": 99}, {"note": 66, "velocity": 89, "duration": 161}, {"note": 0, "velocity": 0, "duration": 79}, {"note": 64, "velocity": 89, "duration": 131}, {"note": 0, "velocity": 0, "duration": 109}, {"note": 71, "velocity": 86, "duration": 168}, {"note": 0, "velocity": 0, "duration": 72}, {"note": 73, "velocity": 75, "duration": 176}, {"note": 0, "velocity": 0, "duration": 64}, {"note": 69, "velocity": 83, "duration": 1883}, {"note": 0, "velocity": 0, "duration": 2437}, {"note": 61, "velocity": 83, "duration": 140}, {"note": 0, "velocity": 0, "duration": 100}, {"note": 64, "velocity": 83, "duration": 142}, {"note": 0, "velocity": 0, "duration": 98}, {"note": 64, "velocity": 86, "duration": 480}, {"note": 64, "velocity": 86, "duration": 240}, {"note": 61, "velocity": 83, "duration": 146}, {"note": 0, "velocity": 0, "duration": 94}, {"note": 66, "velocity": 88, "duration": 127}, {"note": 0, "velocity": 0, "duration": 113}, {"note": 66, "velocity": 85, "duration": 240}, {"note": 68, "velocity": 85, "duration": 240}, {"note": 66, "velocity": 85, "duration": 414}, {"note": 0, "velocity": 0, "duration": 306}, {"note": 66, "velocity": 81, "duration": 162}, {"note": 0, "velocity": 0, "duration": 78}, {"note": 64, "velocity": 90, "duration": 151}, {"note": 0, "velocity": 0, "duration": 89}, {"note": 69, "velocity": 85, "duration": 322}, {"note": 0, "velocity": 0, "duration": 158}, {"note": 69, "velocity": 84, "duration": 285}, {"note": 69, "velocity": 84, "duration": 286}, {"note": 69, "velocity": 87, "duration": 91}, {"note": 0, "velocity": 0, "duration": 149}, {"note": 66, "velocity": 85, "duration": 188}, {"note": 69, "velocity": 83, "duration": 259}, {"note": 66, "velocity": 86, "duration": 128}, {"note": 0, "velocity": 0, "duration": 112}, {"note": 64, "velocity": 87, "duration": 1161}, {"note": 0, "velocity": 0, "duration": 1239}, {"note": 61, "velocity": 89, "duration": 209}, {"note": 64, "velocity": 85, "duration": 132}, {"note": 0, "velocity": 0, "duration": 108}, {"note": 64, "velocity": 83, "duration": 509}, {"note": 0, "velocity": 0, "duration": 211}, {"note": 61, "velocity": 84, "duration": 146}, {"note": 0, "velocity": 0, "duration": 94}, {"note": 66, "velocity": 87, "duration": 130}, {"note": 0, "velocity": 0, "duration": 110}, {"note": 68, "velocity": 85, "duration": 350}, {"note": 0, "velocity": 0, "duration": 130}, {"note": 66, "velocity": 83, "duration": 296}, {"note": 0, "velocity": 0, "duration": 424}, {"note": 66, "velocity": 89, "duration": 166}, {"note": 0, "velocity": 0, "duration": 74}, {"note": 64, "velocity": 85, "duration": 180}, {"note": 69, "velocity": 84, "duration": 322}, {"note": 0, "velocity": 0, "duration": 158}, {"note": 69, "velocity": 84, "duration": 240}, {"note": 69, "velocity": 84, "duration": 240}, {"note": 69, "velocity": 84, "duration": 184}, {"note": 66, "velocity": 85, "duration": 117}, {"note": 0, "velocity": 0, "duration": 123}, {"note": 66, "velocity": 85, "duration": 240}, {"note": 69, "velocity": 85, "duration": 240}, {"note": 71, "velocity": 84, "duration": 913}, {"note": 0, "velocity": 0, "duration": 1007}, {"note": 76, "velocity": 84, "duration": 145}, {"note": 0, "velocity": 0, "duration": 95}, {"note": 76, "velocity": 85, "duration": 338}, {"note": 0, "velocity": 0, "duration": 142}, {"note": 76, "velocity": 89, "duration": 341}, {"note": 0, "velocity": 0, "duration": 139}, {"note": 76, "velocity": 85, "duration": 145}, {"note": 0, "velocity": 0, "duration": 95}, {"note": 73, "velocity": 86, "duration": 191}, {"note": 71, "velocity": 84, "duration": 127}, {"note": 0, "velocity": 0, "duration": 113}, {"note": 69, "velocity": 85, "duration": 165}, {"note": 0, "velocity": 0, "duration": 75}, {"note": 69, "velocity": 83, "duration": 402}, {"note": 0, "velocity": 0, "duration": 78}, {"note": 66, "velocity": 84, "duration": 316}, {"note": 0, "velocity": 0, "duration": 164}, {"note": 69, "velocity": 84, "duration": 127}, {"note": 0, "velocity": 0, "duration": 113}, {"note": 66, "velocity": 84, "duration": 162}, {"note": 0, "velocity": 0, "duration": 78}, {"note": 69, "velocity": 84, "duration": 126}, {"note": 0, "velocity": 0, "duration": 114}, {"note": 71, "velocity": 84, "duration": 117}, {"note": 0, "velocity": 0, "duration": 123}, {"note": 71, "velocity": 83, "duration": 114}, {"note": 0, "velocity": 0, "duration": 126}, {"note": 71, "velocity": 84, "duration": 127}, {"note": 0, "velocity": 0, "duration": 113}, {"note": 71, "velocity": 82, "duration": 104}, {"note": 0, "velocity": 0, "duration": 136}, {"note": 71, "velocity": 84, "duration": 167}, {"note": 0, "velocity": 0, "duration": 73}, {"note": 69, "velocity": 83, "duration": 169}, {"note": 0, "velocity": 0, "duration": 71}, {"note": 73, "velocity": 79, "duration": 379}, {"note": 0, "velocity": 0, "duration": 101}, {"note": 71, "velocity": 81, "duration": 1122}, {"note": 0, "velocity": 0, "duration": 798}, {"note": 73, "velocity": 87, "duration": 144}, {"note": 0, "velocity": 0, "duration": 96}, {"note": 73, "velocity": 87, "duration": 345}, {"note": 0, "velocity": 0, "duration": 135}, {"note": 73, "velocity": 85, "duration": 132}, {"note": 0, "velocity": 0, "duration": 108}, {"note": 73, "velocity": 85, "duration": 353}, {"note": 0, "velocity": 0, "duration": 127}, {"note": 71, "velocity": 85, "duration": 379}, {"note": 0, "velocity": 0, "duration": 101}, {"note": 69, "velocity": 84, "duration": 138}, {"note": 0, "velocity": 0, "duration": 102}, {"note": 69, "velocity": 83, "duration": 326}, {"note": 0, "velocity": 0, "duration": 154}, {"note": 69, "velocity": 83, "duration": 141}, {"note": 0, "velocity": 0, "duration": 99}, {"note": 71, "velocity": 84, "duration": 163}, {"note": 0, "velocity": 0, "duration": 77}, {"note": 69, "velocity": 84, "duration": 152}, {"note": 0, "velocity": 0, "duration": 88}, {"note": 66, "velocity": 84, "duration": 240}, {"note": 64, "velocity": 84, "duration": 240}, {"note": 64, "velocity": 83, "duration": 142}, {"note": 0, "velocity": 0, "duration": 98}, {"note": 64, "velocity": 90, "duration": 331}, {"note": 0, "velocity": 0, "duration": 149}, {"note": 64, "velocity": 89, "duration": 141}, {"note": 0, "velocity": 0, "duration": 99}, {"note": 66, "velocity": 89, "duration": 161}, {"note": 0, "velocity": 0, "duration": 79}, {"note": 64, "velocity": 89, "duration": 131}, {"note": 0, "velocity": 0, "duration": 109}, {"note": 71, "velocity": 86, "duration": 168}, {"note": 0, "velocity": 0, "duration": 72}, {"note": 73, "velocity": 75, "duration": 176}, {"note": 0, "velocity": 0, "duration": 64}, {"note": 69, "velocity": 83, "duration": 1883}, {"note": 0, "velocity": 0, "duration": 517}, {"note": 61, "velocity": 83, "duration": 140}, {"note": 0, "velocity": 0, "duration": 100}, {"note": 64, "velocity": 83, "duration": 142}, {"note": 0, "velocity": 0, "duration": 98}, {"note": 64, "velocity": 86, "duration": 480}, {"note": 61, "velocity": 86, "duration": 240}, {"note": 64, "velocity": 83, "duration": 146}, {"note": 0, "velocity": 0, "duration": 94}, {"note": 66, "velocity": 88, "duration": 127}, {"note": 0, "velocity": 0, "duration": 113}, {"note": 66, "velocity": 85, "duration": 240}, {"note": 68, "velocity": 85, "duration": 240}, {"note": 66, "velocity": 85, "duration": 414}, {"note": 0, "velocity": 0, "duration": 66}, {"note": 66, "velocity": 81, "duration": 162}, {"note": 0, "velocity": 0, "duration": 78}, {"note": 66, "velocity": 81, "duration": 162}, {"note": 0, "velocity": 0, "duration": 78}, {"note": 64, "velocity": 90, "duration": 151}, {"note": 0, "velocity": 0, "duration": 89}, {"note": 69, "velocity": 85, "duration": 322}, {"note": 0, "velocity": 0, "duration": 158}, {"note": 69, "velocity": 84, "duration": 285}, {"note": 66, "velocity": 84, "duration": 285}, {"note": 69, "velocity": 87, "duration": 166}, {"note": 0, "velocity": 0, "duration": 74}, {"note": 66, "velocity": 85, "duration": 188}, {"note": 69, "velocity": 83, "duration": 259}, {"note": 66, "velocity": 86, "duration": 128}, {"note": 0, "velocity": 0, "duration": 112}, {"note": 64, "velocity": 87, "duration": 1161}, {"note": 0, "velocity": 0, "duration": 1239}, {"note": 61, "velocity": 89, "duration": 209}, {"note": 64, "velocity": 85, "duration": 132}, {"note": 0, "velocity": 0, "duration": 108}, {"note": 64, "velocity": 83, "duration": 509}, {"note": 61, "velocity": 84, "duration": 146}, {"note": 0, "velocity": 0, "duration": 94}, {"note": 64, "velocity": 84, "duration": 146}, {"note": 0, "velocity": 0, "duration": 94}, {"note": 66, "velocity": 87, "duration": 130}, {"note": 0, "velocity": 0, "duration": 110}, {"note": 68, "velocity": 85, "duration": 350}, {"note": 0, "velocity": 0, "duration": 130}, {"note": 66, "velocity": 83, "duration": 296}, {"note": 0, "velocity": 0, "duration": 184}, {"note": 66, "velocity": 89, "duration": 166}, {"note": 0, "velocity": 0, "duration": 74}, {"note": 66, "velocity": 89, "duration": 166}, {"note": 0, "velocity": 0, "duration": 74}, {"note": 64, "velocity": 85, "duration": 180}, {"note": 69, "velocity": 84, "duration": 322}, {"note": 0, "velocity": 0, "duration": 158}, {"note": 69, "velocity": 84, "duration": 240}, {"note": 69, "velocity": 84, "duration": 240}, {"note": 69, "velocity": 84, "duration": 184}, {"note": 66, "velocity": 85, "duration": 117}, {"note": 0, "velocity": 0, "duration": 123}, {"note": 66, "velocity": 85, "duration": 240}, {"note": 69, "velocity": 85, "duration": 240}, {"note": 71, "velocity": 84, "duration": 913}, {"note": 0, "velocity": 0, "duration": 1007}, {"note": 76, "velocity": 84, "duration": 145}, {"note": 0, "velocity": 0, "duration": 95}, {"note": 76, "velocity": 85, "duration": 338}, {"note": 0, "velocity": 0, "duration": 142}, {"note": 76, "velocity": 89, "duration": 341}, {"note": 0, "velocity": 0, "duration": 139}, {"note": 76, "velocity": 85, "duration": 145}, {"note": 0, "velocity": 0, "duration": 95}, {"note": 73, "velocity": 86, "duration": 191}, {"note": 71, "velocity": 84, "duration": 127}, {"note": 0, "velocity": 0, "duration": 113}, {"note": 69, "velocity": 85, "duration": 240}, {"note": 0, "velocity": 0, "duration": 240}, {"note": 69, "velocity": 83, "duration": 240}, {"note": 69, "velocity": 84, "duration": 240}, {"note": 66, "velocity": 84, "duration": 240}, {"note": 69, "velocity": 84, "duration": 127}, {"note": 0, "velocity": 0, "duration": 113}, {"note": 66, "velocity": 84, "duration": 162}, {"note": 0, "velocity": 0, "duration": 78}, {"note": 69, "velocity": 84, "duration": 126}, {"note": 0, "velocity": 0, "duration": 114}, {"note": 71, "velocity": 84, "duration": 117}, {"note": 0, "velocity": 0, "duration": 123}, {"note": 71, "velocity": 83, "duration": 114}, {"note": 0, "velocity": 0, "duration": 126}, {"note": 71, "velocity": 84, "duration": 127}, {"note": 0, "velocity": 0, "duration": 113}, {"note": 71, "velocity": 82, "duration": 104}, {"note": 0, "velocity": 0, "duration": 136}, {"note": 71, "velocity": 84, "duration": 167}, {"note": 0, "velocity": 0, "duration": 73}, {"note": 69, "velocity": 83, "duration": 169}, {"note": 0, "velocity": 0, "duration": 71}, {"note": 73, "velocity": 79, "duration": 379}, {"note": 0, "velocity": 0, "duration": 101}, {"note": 71, "velocity": 81, "duration": 1122}, {"note": 0, "velocity": 0, "duration": 798}, {"note": 73, "velocity": 87, "duration": 144}, {"note": 0, "velocity": 0, "duration": 96}, {"note": 73, "velocity": 87, "duration": 345}, {"note": 0, "velocity": 0, "duration": 135}, {"note": 73, "velocity": 85, "duration": 132}, {"note": 0, "velocity": 0, "duration": 108}, {"note": 73, "velocity": 85, "duration": 353}, {"note": 0, "velocity": 0, "duration": 127}, {"note": 71, "velocity": 85, "duration": 379}, {"note": 0, "velocity": 0, "duration": 101}, {"note": 69, "velocity": 84, "duration": 138}, {"note": 0, "velocity": 0, "duration": 102}, {"note": 69, "velocity": 83, "duration": 326}, {"note": 0, "velocity": 0, "duration": 154}, {"note": 69, "velocity": 83, "duration": 141}, {"note": 0, "velocity": 0, "duration": 99}, {"note": 71, "velocity": 84, "duration": 163}, {"note": 0, "velocity": 0, "duration": 77}, {"note": 69, "velocity": 84, "duration": 152}, {"note": 0, "velocity": 0, "duration": 88}, {"note": 66, "velocity": 84, "duration": 240}, {"note": 64, "velocity": 84, "duration": 240}, {"note": 64, "velocity": 83, "duration": 142}, {"note": 0, "velocity": 0, "duration": 98}, {"note": 64, "velocity": 90, "duration": 331}, {"note": 0, "velocity": 0, "duration": 149}, {"note": 64, "velocity": 89, "duration": 141}, {"note": 0, "velocity": 0, "duration": 99}, {"note": 66, "velocity": 89, "duration": 161}, {"note": 0, "velocity": 0, "duration": 79}, {"note": 64, "velocity": 89, "duration": 131}, {"note": 0, "velocity": 0, "duration": 109}, {"note": 71, "velocity": 86, "duration": 168}, {"note": 0, "velocity": 0, "duration": 72}, {"note": 73, "velocity": 75, "duration": 176}, {"note": 0, "velocity": 0, "duration": 64}, {"note": 69, "velocity": 83, "duration": 1883}, {"note": 0, "velocity": 0, "duration": 35077}, {"note": 64, "velocity": 83, "duration": 140}, {"note": 0, "velocity": 0, "duration": 100}, {"note": 64, "velocity": 83, "duration": 142}, {"note": 0, "velocity": 0, "duration": 98}, {"note": 64, "velocity": 86, "duration": 565}, {"note": 0, "velocity": 0, "duration": 155}, {"note": 61, "velocity": 83, "duration": 146}, {"note": 0, "velocity": 0, "duration": 94}, {"note": 66, "velocity": 88, "duration": 127}, {"note": 0, "velocity": 0, "duration": 113}, {"note": 68, "velocity": 85, "duration": 379}, {"note": 0, "velocity": 0, "duration": 101}, {"note": 66, "velocity": 85, "duration": 414}, {"note": 0, "velocity": 0, "duration": 66}, {"note": 66, "velocity": 83, "duration": 130}, {"note": 0, "velocity": 0, "duration": 110}, {"note": 66, "velocity": 81, "duration": 162}, {"note": 0, "velocity": 0, "duration": 78}, {"note": 64, "velocity": 90, "duration": 151}, {"note": 0, "velocity": 0, "duration": 89}, {"note": 69, "velocity": 85, "duration": 322}, {"note": 0, "velocity": 0, "duration": 158}, {"note": 69, "velocity": 84, "duration": 378}, {"note": 0, "velocity": 0, "duration": 102}, {"note": 69, "velocity": 87, "duration": 166}, {"note": 0, "velocity": 0, "duration": 74}, {"note": 66, "velocity": 85, "duration": 188}, {"note": 69, "velocity": 83, "duration": 259}, {"note": 66, "velocity": 86, "duration": 128}, {"note": 0, "velocity": 0, "duration": 112}, {"note": 64, "velocity": 87, "duration": 1161}, {"note": 0, "velocity": 0, "duration": 1239}, {"note": 61, "velocity": 89, "duration": 209}, {"note": 64, "velocity": 85, "duration": 132}, {"note": 0, "velocity": 0, "duration": 108}, {"note": 64, "velocity": 83, "duration": 480}, {"note": 64, "velocity": 94, "duration": 240}, {"note": 61, "velocity": 84, "duration": 146}, {"note": 0, "velocity": 0, "duration": 94}, {"note": 66, "velocity": 87, "duration": 130}, {"note": 0, "velocity": 0, "duration": 110}, {"note": 68, "velocity": 85, "duration": 350}, {"note": 0, "velocity": 0, "duration": 130}, {"note": 66, "velocity": 83, "duration": 296}, {"note": 0, "velocity": 0, "duration": 184}, {"note": 66, "velocity": 94, "duration": 240}, {"note": 66, "velocity": 89, "duration": 166}, {"note": 0, "velocity": 0, "duration": 74}, {"note": 64, "velocity": 85, "duration": 180}, {"note": 69, "velocity": 84, "duration": 322}, {"note": 0, "velocity": 0, "duration": 158}, {"note": 69, "velocity": 84, "duration": 360}, {"note": 0, "velocity": 0, "duration": 120}, {"note": 69, "velocity": 84, "duration": 184}, {"note": 66, "velocity": 85, "duration": 117}, {"note": 0, "velocity": 0, "duration": 123}, {"note": 69, "velocity": 85, "duration": 375}, {"note": 0, "velocity": 0, "duration": 105}, {"note": 71, "velocity": 84, "duration": 913}, {"note": 0, "velocity": 0, "duration": 1007}, {"note": 76, "velocity": 84, "duration": 145}, {"note": 0, "velocity": 0, "duration": 95}, {"note": 76, "velocity": 85, "duration": 338}, {"note": 0, "velocity": 0, "duration": 142}, {"note": 76, "velocity": 89, "duration": 341}, {"note": 0, "velocity": 0, "duration": 139}, {"note": 76, "velocity": 85, "duration": 145}, {"note": 0, "velocity": 0, "duration": 95}, {"note": 73, "velocity": 86, "duration": 191}, {"note": 71, "velocity": 84, "duration": 127}, {"note": 0, "velocity": 0, "duration": 113}, {"note": 69, "velocity": 85, "duration": 165}, {"note": 0, "velocity": 0, "duration": 75}, {"note": 69, "velocity": 83, "duration": 402}, {"note": 0, "velocity": 0, "duration": 78}, {"note": 66, "velocity": 84, "duration": 316}, {"note": 0, "velocity": 0, "duration": 164}, {"note": 69, "velocity": 84, "duration": 127}, {"note": 0, "velocity": 0, "duration": 113}, {"note": 66, "velocity": 84, "duration": 162}, {"note": 0, "velocity": 0, "duration": 78}, {"note": 69, "velocity": 84, "duration": 126}, {"note": 0, "velocity": 0, "duration": 114}, {"note": 71, "velocity": 84, "duration": 117}, {"note": 0, "velocity": 0, "duration": 123}, {"note": 71, "velocity": 83, "duration": 114}, {"note": 0, "velocity": 0, "duration": 126}, {"note": 71, "velocity": 84, "duration": 127}, {"note": 0, "velocity": 0, "duration": 113}, {"note": 71, "velocity": 82, "duration": 104}, {"note": 0, "velocity": 0, "duration": 136}, {"note": 71, "velocity": 84, "duration": 167}, {"note": 0, "velocity": 0, "duration": 73}, {"note": 69, "velocity": 83, "duration": 169}, {"note": 0, "velocity": 0, "duration": 71}, {"note": 73, "velocity": 79, "duration": 379}, {"note": 0, "velocity": 0, "duration": 101}, {"note": 71, "velocity": 81, "duration": 1122}, {"note": 0, "velocity": 0, "duration": 798}, {"note": 73, "velocity": 87, "duration": 144}, {"note": 0, "velocity": 0, "duration": 96}, {"note": 73, "velocity": 87, "duration": 345}, {"note": 0, "velocity": 0, "duration": 135}, {"note": 73, "velocity": 85, "duration": 132}, {"note": 0, "velocity": 0, "duration": 108}, {"note": 73, "velocity": 85, "duration": 353}, {"note": 0, "velocity": 0, "duration": 127}, {"note": 71, "velocity": 85, "duration": 379}, {"note": 0, "velocity": 0, "duration": 101}, {"note": 69, "velocity": 84, "duration": 138}, {"note": 0, "velocity": 0, "duration": 102}, {"note": 69, "velocity": 83, "duration": 326}, {"note": 0, "velocity": 0, "duration": 154}, {"note": 69, "velocity": 83, "duration": 141}, {"note": 0, "velocity": 0, "duration": 99}, {"note": 71, "velocity": 84, "duration": 163}, {"note": 0, "velocity": 0, "duration": 77}, {"note": 69, "velocity": 84, "duration": 152}, {"note": 0, "velocity": 0, "duration": 88}, {"note": 66, "velocity": 84, "duration": 240}, {"note": 64, "velocity": 84, "duration": 240}, {"note": 64, "velocity": 83, "duration": 142}, {"note": 0, "velocity": 0, "duration": 98}, {"note": 64, "velocity": 90, "duration": 331}, {"note": 0, "velocity": 0, "duration": 149}, {"note": 64, "velocity": 89, "duration": 141}, {"note": 0, "velocity": 0, "duration": 99}, {"note": 66, "velocity": 89, "duration": 161}, {"note": 0, "velocity": 0, "duration": 79}, {"note": 64, "velocity": 89, "duration": 131}, {"note": 0, "velocity": 0, "duration": 109}, {"note": 71, "velocity": 86, "duration": 168}, {"note": 0, "velocity": 0, "duration": 72}, {"note": 73, "velocity": 75, "duration": 176}, {"note": 0, "velocity": 0, "duration": 64}, {"note": 69, "velocity": 83, "duration": 1883}, {"note": 0, "velocity": 0, "duration": 2437}, {"note": 61, "velocity": 83, "duration": 140}, {"note": 0, "velocity": 0, "duration": 100}, {"note": 64, "velocity": 83, "duration": 142}, {"note": 0, "velocity": 0, "duration": 98}, {"note": 64, "velocity": 86, "duration": 480}, {"note": 64, "velocity": 86, "duration": 240}, {"note": 61, "velocity": 83, "duration": 146}, {"note": 0, "velocity": 0, "duration": 94}, {"note": 66, "velocity": 88, "duration": 127}, {"note": 0, "velocity": 0, "duration": 113}, {"note": 66, "velocity": 85, "duration": 240}, {"note": 68, "velocity": 85, "duration": 240}, {"note": 66, "velocity": 85, "duration": 414}, {"note": 0, "velocity": 0, "duration": 66}, {"note": 66, "velocity": 94, "duration": 240}, {"note": 66, "velocity": 81, "duration": 162}, {"note": 0, "velocity": 0, "duration": 78}, {"note": 64, "velocity": 90, "duration": 151}, {"note": 0, "velocity": 0, "duration": 89}, {"note": 69, "velocity": 85, "duration": 322}, {"note": 0, "velocity": 0, "duration": 158}, {"note": 69, "velocity": 84, "duration": 285}, {"note": 69, "velocity": 84, "duration": 286}, {"note": 0, "velocity": 0, "duration": 149}, {"note": 66, "velocity": 85, "duration": 188}, {"note": 69, "velocity": 83, "duration": 259}, {"note": 66, "velocity": 86, "duration": 128}, {"note": 0, "velocity": 0, "duration": 112}, {"note": 64, "velocity": 87, "duration": 1161}, {"note": 0, "velocity": 0, "duration": 1239}, {"note": 61, "velocity": 89, "duration": 209}, {"note": 64, "velocity": 85, "duration": 132}, {"note": 0, "velocity": 0, "duration": 108}, {"note": 64, "velocity": 83, "duration": 509}, {"note": 61, "velocity": 84, "duration": 146}, {"note": 0, "velocity": 0, "duration": 94}, {"note": 64, "velocity": 94, "duration": 240}, {"note": 66, "velocity": 87, "duration": 130}, {"note": 0, "velocity": 0, "duration": 110}, {"note": 68, "velocity": 85, "duration": 350}, {"note": 0, "velocity": 0, "duration": 130}, {"note": 66, "velocity": 83, "duration": 296}, {"note": 0, "velocity": 0, "duration": 424}, {"note": 66, "velocity": 89, "duration": 166}, {"note": 0, "velocity": 0, "duration": 74}, {"note": 64, "velocity": 85, "duration": 180}, {"note": 69, "velocity": 84, "duration": 322}, {"note": 0, "velocity": 0, "duration": 158}, {"note": 69, "velocity": 84, "duration": 240}, {"note": 69, "velocity": 84, "duration": 240}, {"note": 69, "velocity": 84, "duration": 184}, {"note": 66, "velocity": 85, "duration": 117}, {"note": 0, "velocity": 0, "duration": 123}, {"note": 66, "velocity": 85, "duration": 240}, {"note": 69, "velocity": 85, "duration": 240}, {"note": 71, "velocity": 84, "duration": 913}, {"note": 0, "velocity": 0, "duration": 1007}, {"note": 76, "velocity": 84, "duration": 145}, {"note": 0, "velocity": 0, "duration": 95}, {"note": 76, "velocity": 85, "duration": 338}, {"note": 0, "velocity": 0, "duration": 142}, {"note": 76, "velocity": 89, "duration": 341}, {"note": 0, "velocity": 0, "duration": 139}, {"note": 76, "velocity": 85, "duration": 145}, {"note": 0, "velocity": 0, "duration": 95}, {"note": 73, "velocity": 86, "duration": 191}, {"note": 71, "velocity": 84, "duration": 127}, {"note": 0, "velocity": 0, "duration": 113}, {"note": 69, "velocity": 85, "duration": 165}, {"note": 0, "velocity": 0, "duration": 75}, {"note": 69, "velocity": 83, "duration": 240}, {"note": 69, "velocity": 83, "duration": 240}, {"note": 69, "velocity": 84, "duration": 240}, {"note": 66, "velocity": 94, "duration": 240}, {"note": 69, "velocity": 84, "duration": 127}, {"note": 0, "velocity": 0, "duration": 113}, {"note": 66, "velocity": 84, "duration": 162}, {"note": 0, "velocity": 0, "duration": 78}, {"note": 69, "velocity": 84, "duration": 126}, {"note": 0, "velocity": 0, "duration": 114}, {"note": 71, "velocity": 84, "duration": 117}, {"note": 0, "velocity": 0, "duration": 363}, {"note": 71, "velocity": 84, "duration": 127}, {"note": 0, "velocity": 0, "duration": 113}, {"note": 71, "velocity": 82, "duration": 104}, {"note": 0, "velocity": 0, "duration": 136}, {"note": 71, "velocity": 84, "duration": 167}, {"note": 0, "velocity": 0, "duration": 73}, {"note": 69, "velocity": 83, "duration": 169}, {"note": 0, "velocity": 0, "duration": 71}, {"note": 73, "velocity": 79, "duration": 240}, {"note": 71, "velocity": 94, "duration": 240}, {"note": 71, "velocity": 81, "duration": 1122}, {"note": 0, "velocity": 0, "duration": 798}, {"note": 73, "velocity": 87, "duration": 144}, {"note": 0, "velocity": 0, "duration": 96}, {"note": 73, "velocity": 87, "duration": 345}, {"note": 0, "velocity": 0, "duration": 135}, {"note": 73, "velocity": 85, "duration": 132}, {"note": 0, "velocity": 0, "duration": 108}, {"note": 73, "velocity": 85, "duration": 353}, {"note": 0, "velocity": 0, "duration": 127}, {"note": 71, "velocity": 85, "duration": 379}, {"note": 0, "velocity": 0, "duration": 101}, {"note": 69, "velocity": 84, "duration": 138}, {"note": 0, "velocity": 0, "duration": 102}, {"note": 69, "velocity": 83, "duration": 326}, {"note": 0, "velocity": 0, "duration": 154}, {"note": 69, "velocity": 83, "duration": 141}, {"note": 0, "velocity": 0, "duration": 99}, {"note": 71, "velocity": 84, "duration": 163}, {"note": 0, "velocity": 0, "duration": 77}, {"note": 69, "velocity": 84, "duration": 152}, {"note": 0, "velocity": 0, "duration": 88}, {"note": 66, "velocity": 84, "duration": 240}, {"note": 64, "velocity": 84, "duration": 240}, {"note": 64, "velocity": 83, "duration": 142}, {"note": 0, "velocity": 0, "duration": 98}, {"note": 64, "velocity": 90, "duration": 331}, {"note": 0, "velocity": 0, "duration": 149}, {"note": 64, "velocity": 89, "duration": 141}, {"note": 0, "velocity": 0, "duration": 99}, {"note": 66, "velocity": 89, "duration": 161}, {"note": 0, "velocity": 0, "duration": 79}, {"note": 64, "velocity": 89, "duration": 131}, {"note": 0, "velocity": 0, "duration": 109}, {"note": 71, "velocity": 86, "duration": 168}, {"note": 0, "velocity": 0, "duration": 72}, {"note": 73, "velocity": 75, "duration": 176}, {"note": 0, "velocity": 0, "duration": 64}, {"note": 69, "velocity": 83, "duration": 1883}, {"note": 73, "velocity": 87, "duration": 144}, {"note": 0, "velocity": 0, "duration": 96}, {"note": 73, "velocity": 87, "duration": 345}, {"note": 0, "velocity": 0, "duration": 135}, {"note": 73, "velocity": 85, "duration": 132}, {"note": 0, "velocity": 0, "duration": 108}, {"note": 73, "velocity": 85, "duration": 353}, {"note": 0, "velocity": 0, "duration": 127}, {"note": 71, "velocity": 85, "duration": 379}, {"note": 0, "velocity": 0, "duration": 101}, {"note": 69, "velocity": 84, "duration": 138}, {"note": 0, "velocity": 0, "duration": 102}, {"note": 69, "velocity": 83, "duration": 326}, {"note": 0, "velocity": 0, "duration": 154}, {"note": 69, "velocity": 83, "duration": 141}, {"note": 0, "velocity": 0, "duration": 99}, {"note": 71, "velocity": 84, "duration": 163}, {"note": 0, "velocity": 0, "duration": 77}, {"note": 69, "velocity": 84, "duration": 152}, {"note": 0, "velocity": 0, "duration": 88}, {"note": 66, "velocity": 84, "duration": 240}, {"note": 64, "velocity": 84, "duration": 240}, {"note": 64, "velocity": 83, "duration": 142}, {"note": 0, "velocity": 0, "duration": 98}, {"note": 64, "velocity": 90, "duration": 331}, {"note": 0, "velocity": 0, "duration": 149}, {"note": 64, "velocity": 89, "duration": 141}, {"note": 0, "velocity": 0, "duration": 99}, {"note": 66, "velocity": 89, "duration": 161}, {"note": 0, "velocity": 0, "duration": 79}, {"note": 64, "velocity": 89, "duration": 131}, {"note": 0, "velocity": 0, "duration": 109}, {"note": 71, "velocity": 86, "duration": 168}, {"note": 0, "velocity": 0, "duration": 72}, {"note": 73, "velocity": 75, "duration": 176}, {"note": 0, "velocity": 0, "duration": 64}, {"note": 69, "velocity": 83, "duration": 1883}]]