[[{"note": 69, "velocity": 86, "duration": 76}, {"note": 71, "velocity": 83, "duration": 70}, {"note": 72, "velocity": 85, "duration": 91}, {"note": 71, "velocity": 74, "duration": 61}, {"note": 72, "velocity": 79, "duration": 91}, {"note": 71, "velocity": 85, "duration": 68}, {"note": 69, "velocity": 84, "duration": 176}, {"note": 0, "velocity": 0, "duration": 64}, {"note": 76, "velocity": 84, "duration": 88}, {"note": 74, "velocity": 86, "duration": 537}, {"note": 0, "velocity": 0, "duration": 303}, {"note": 69, "velocity": 85, "duration": 75}, {"note": 71, "velocity": 82, "duration": 64}, {"note": 72, "velocity": 84, "duration": 74}, {"note": 71, "velocity": 83, "duration": 56}, {"note": 0, "velocity": 0, "duration": 64}, {"note": 72, "velocity": 84, "duration": 85}, {"note": 71, "velocity": 84, "duration": 60}, {"note": 69, "velocity": 86, "duration": 117}, {"note": 0, "velocity": 0, "duration": 123}, {"note": 71, "velocity": 83, "duration": 79}, {"note": 64, "velocity": 86, "duration": 304}, {"note": 0, "velocity": 0, "duration": 536}, {"note": 69, "velocity": 83, "duration": 78}, {"note": 71, "velocity": 83, "duration": 63}, {"note": 72, "velocity": 83, "duration": 88}, {"note": 71, "velocity": 83, "duration": 56}, {"note": 0, "velocity": 0, "duration": 64}, {"note": 72, "velocity": 81, "duration": 90}, {"note": 71, "velocity": 84, "duration": 95}, {"note": 69, "velocity": 84, "duration": 109}, {"note": 0, "velocity": 0, "duration": 131}, {"note": 76, "velocity": 86, "duration": 67}, {"note": 79, "velocity": 83, "duration": 242}, {"note": 0, "velocity": 0, "duration": 598}, {"note": 76, "velocity": 83, "duration": 65}, {"note": 76, "velocity": 82, "duration": 90}, {"note": 74, "velocity": 88, "duration": 67}, {"note": 72, "velocity": 84, "duration": 71}, {"note": 74, "velocity": 86, "duration": 88}, {"note": 72, "velocity": 73, "duration": 47}, {"note": 0, "velocity": 0, "duration": 73}, {"note": 74, "velocity": 84, "duration": 149}, {"note": 0, "velocity": 0, "duration": 91}, {"note": 72, "velocity": 80, "duration": 91}, {"note": 71, "velocity": 83, "duration": 668}, {"note": 0, "velocity": 0, "duration": 172}, {"note": 69, "velocity": 78, "duration": 83}, {"note": 71, "velocity": 83, "duration": 69}, {"note": 72, "velocity": 79, "duration": 74}, {"note": 71, "velocity": 80, "duration": 62}, {"note": 72, "velocity": 83, "duration": 71}, {"note": 71, "velocity": 84, "duration": 64}, {"note": 69, "velocity": 84, "duration": 143}, {"note": 0, "velocity": 0, "duration": 97}, {"note": 76, "velocity": 85, "duration": 76}, {"note": 74, "velocity": 85, "duration": 631}, {"note": 0, "velocity": 0, "duration": 209}, {"note": 69, "velocity": 85, "duration": 60}, {"note": 71, "velocity": 83, "duration": 65}, {"note": 72, "velocity": 83, "duration": 83}, {"note": 71, "velocity": 83, "duration": 60}, {"note": 72, "velocity": 76, "duration": 62}, {"note": 71, "velocity": 82, "duration": 66}, {"note": 69, "velocity": 85, "duration": 160}, {"note": 0, "velocity": 0, "duration": 80}, {"note": 71, "velocity": 81, "duration": 71}, {"note": 64, "velocity": 82, "duration": 634}, {"note": 0, "velocity": 0, "duration": 206}, {"note": 69, "velocity": 83, "duration": 67}, {"note": 71, "velocity": 83, "duration": 67}, {"note": 72, "velocity": 81, "duration": 84}, {"note": 71, "velocity": 83, "duration": 67}, {"note": 72, "velocity": 81, "duration": 92}, {"note": 71, "velocity": 83, "duration": 62}, {"note": 69, "velocity": 84, "duration": 138}, {"note": 0, "velocity": 0, "duration": 102}, {"note": 76, "velocity": 86, "duration": 76}, {"note": 79, "velocity": 82, "duration": 471}, {"note": 0, "velocity": 0, "duration": 249}, {"note": 76, "velocity": 88, "duration": 74}, {"note": 76, "velocity": 83, "duration": 81}, {"note": 79, "velocity": 82, "duration": 91}, {"note": 78, "velocity": 98, "duration": 59}, {"note": 0, "velocity": 0, "duration": 61}, {"note": 78, "velocity": 76, "duration": 62}, {"note": 78, "velocity": 82, "duration": 63}, {"note": 78, "velocity": 86, "duration": 173}, {"note": 0, "velocity": 0, "duration": 67}, {"note": 76, "velocity": 87, "duration": 62}, {"note": 78, "velocity": 85, "duration": 70}, {"note": 78, "velocity": 82, "duration": 173}, {"note": 0, "velocity": 0, "duration": 67}, {"note": 76, "velocity": 86, "duration": 443}, {"note": 0, "velocity": 0, "duration": 157}, {"note": 76, "velocity": 87, "duration": 74}, {"note": 76, "velocity": 86, "duration": 68}, {"note": 81, "velocity": 83, "duration": 71}, {"note": 79, "velocity": 77, "duration": 65}, {"note": 81, "velocity": 84, "duration": 83}, {"note": 79, "velocity": 86, "duration": 86}, {"note": 77, "velocity": 84, "duration": 170}, {"note": 0, "velocity": 0, "duration": 70}, {"note": 81, "velocity": 83, "duration": 67}, {"note": 79, "velocity": 83, "duration": 586}, {"note": 0, "velocity": 0, "duration": 134}, {"note": 76, "velocity": 85, "duration": 64}, {"note": 76, "velocity": 85, "duration": 60}, {"note": 76, "velocity": 84, "duration": 65}, {"note": 78, "velocity": 83, "duration": 75}, {"note": 78, "velocity": 85, "duration": 56}, {"note": 0, "velocity": 0, "duration": 64}, {"note": 78, "velocity": 88, "duration": 70}, {"note": 76, "velocity": 83, "duration": 62}, {"note": 78, "velocity": 91, "duration": 78}, {"note": 76, "velocity": 87, "duration": 65}, {"note": 74, "velocity": 84, "duration": 71}, {"note": 78, "velocity": 85, "duration": 188}, {"note": 76, "velocity": 86, "duration": 355}, {"note": 0, "velocity": 0, "duration": 245}, {"note": 76, "velocity": 89, "duration": 71}, {"note": 76, "velocity": 84, "duration": 65}, {"note": 81, "velocity": 83, "duration": 82}, {"note": 79, "velocity": 88, "duration": 53}, {"note": 0, "velocity": 0, "duration": 67}, {"note": 81, "velocity": 86, "duration": 88}, {"note": 79, "velocity": 86, "duration": 67}, {"note": 77, "velocity": 88, "duration": 170}, {"note": 0, "velocity": 0, "duration": 70}, {"note": 81, "velocity": 86, "duration": 72}, {"note": 79, "velocity": 88, "duration": 508}, {"note": 0, "velocity": 0, "duration": 332}, {"note": 76, "velocity": 85, "duration": 65}, {"note": 76, "velocity": 87, "duration": 74}, {"note": 74, "velocity": 84, "duration": 144}, {"note": 0, "velocity": 0, "duration": 96}, {"note": 74, "velocity": 89, "duration": 147}, {"note": 0, "velocity": 0, "duration": 93}, {"note": 74, "velocity": 88, "duration": 203}, {"note": 72, "velocity": 84, "duration": 188}, {"note": 71, "velocity": 84, "duration": 342}, {"note": 0, "velocity": 0, "duration": 138}, {"note": 76, "velocity": 84, "duration": 172}, {"note": 0, "velocity": 0, "duration": 68}, {"note": 74, "velocity": 86, "duration": 164}, {"note": 0, "velocity": 0, "duration": 76}, {"note": 72, "velocity": 86, "duration": 212}, {"note": 69, "velocity": 85, "duration": 199}, {"note": 72, "velocity": 85, "duration": 179}, {"note": 0, "velocity": 0, "duration": 61}, {"note": 74, "velocity": 86, "duration": 167}, {"note": 0, "velocity": 0, "duration": 73}, {"note": 76, "velocity": 83, "duration": 191}, {"note": 79, "velocity": 84, "duration": 242}, {"note": 76, "velocity": 86, "duration": 189}, {"note": 74, "velocity": 87, "duration": 176}, {"note": 0, "velocity": 0, "duration": 64}, {"note": 72, "velocity": 86, "duration": 188}, {"note": 69, "velocity": 84, "duration": 164}, {"note": 0, "velocity": 0, "duration": 76}, {"note": 69, "velocity": 82, "duration": 178}, {"note": 0, "velocity": 0, "duration": 62}, {"note": 67, "velocity": 84, "duration": 209}, {"note": 64, "velocity": 93, "duration": 386}, {"note": 0, "velocity": 0, "duration": 334}, {"note": 72, "velocity": 84, "duration": 74}, {"note": 71, "velocity": 86, "duration": 97}, {"note": 69, "velocity": 85, "duration": 190}, {"note": 67, "velocity": 83, "duration": 166}, {"note": 0, "velocity": 0, "duration": 74}, {"note": 69, "velocity": 84, "duration": 181}, {"note": 72, "velocity": 84, "duration": 176}, {"note": 0, "velocity": 0, "duration": 64}, {"note": 72, "velocity": 86, "duration": 180}, {"note": 79, "velocity": 85, "duration": 167}, {"note": 0, "velocity": 0, "duration": 73}, {"note": 76, "velocity": 83, "duration": 191}, {"note": 76, "velocity": 86, "duration": 108}, {"note": 74, "velocity": 78, "duration": 73}, {"note": 72, "velocity": 86, "duration": 172}, {"note": 0, "velocity": 0, "duration": 68}, {"note": 72, "velocity": 83, "duration": 192}, {"note": 72, "velocity": 84, "duration": 176}, {"note": 0, "velocity": 0, "duration": 64}, {"note": 69, "velocity": 83, "duration": 175}, {"note": 0, "velocity": 0, "duration": 65}, {"note": 71, "velocity": 84, "duration": 712}, {"note": 76, "velocity": 86, "duration": 88}, {"note": 74, "velocity": 85, "duration": 67}, {"note": 76, "velocity": 86, "duration": 219}, {"note": 74, "velocity": 86, "duration": 185}, {"note": 76, "velocity": 83, "duration": 202}, {"note": 79, "velocity": 86, "duration": 179}, {"note": 0, "velocity": 0, "duration": 61}, {"note": 81, "velocity": 83, "duration": 210}, {"note": 79, "velocity": 83, "duration": 183}, {"note": 79, "velocity": 83, "duration": 120}, {"note": 79, "velocity": 84, "duration": 170}, {"note": 0, "velocity": 0, "duration": 70}, {"note": 76, "velocity": 83, "duration": 132}, {"note": 81, "velocity": 88, "duration": 152}, {"note": 79, "velocity": 86, "duration": 161}, {"note": 0, "velocity": 0, "duration": 79}, {"note": 77, "velocity": 84, "duration": 181}, {"note": 79, "velocity": 83, "duration": 172}, {"note": 0, "velocity": 0, "duration": 68}, {"note": 77, "velocity": 83, "duration": 209}, {"note": 76, "velocity": 89, "duration": 544}, {"note": 0, "velocity": 0, "duration": 176}, {"note": 74, "velocity": 89, "duration": 101}, {"note": 76, "velocity": 84, "duration": 68}, {"note": 77, "velocity": 84, "duration": 184}, {"note": 76, "velocity": 89, "duration": 190}, {"note": 74, "velocity": 93, "duration": 262}, {"note": 0, "velocity": 0, "duration": 98}, {"note": 69, "velocity": 84, "duration": 76}, {"note": 76, "velocity": 86, "duration": 193}, {"note": 74, "velocity": 89, "duration": 120}, {"note": 72, "velocity": 87, "duration": 199}, {"note": 72, "velocity": 82, "duration": 67}, {"note": 72, "velocity": 83, "duration": 62}, {"note": 72, "velocity": 84, "duration": 80}, {"note": 71, "velocity": 85, "duration": 62}, {"note": 71, "velocity": 86, "duration": 185}, {"note": 71, "velocity": 84, "duration": 71}, {"note": 71, "velocity": 88, "duration": 120}, {"note": 71, "velocity": 88, "duration": 120}, {"note": 0, "velocity": 0, "duration": 120}, {"note": 69, "velocity": 86, "duration": 120}, {"note": 71, "velocity": 88, "duration": 625}, {"note": 0, "velocity": 0, "duration": 8735}, {"note": 69, "velocity": 86, "duration": 76}, {"note": 71, "velocity": 83, "duration": 70}, {"note": 72, "velocity": 85, "duration": 91}, {"note": 71, "velocity": 74, "duration": 61}, {"note": 72, "velocity": 79, "duration": 91}, {"note": 71, "velocity": 85, "duration": 68}, {"note": 69, "velocity": 84, "duration": 176}, {"note": 0, "velocity": 0, "duration": 64}, {"note": 76, "velocity": 84, "duration": 88}, {"note": 74, "velocity": 86, "duration": 537}, {"note": 0, "velocity": 0, "duration": 303}, {"note": 69, "velocity": 85, "duration": 75}, {"note": 71, "velocity": 82, "duration": 64}, {"note": 72, "velocity": 84, "duration": 74}, {"note": 71, "velocity": 83, "duration": 56}, {"note": 0, "velocity": 0, "duration": 64}, {"note": 72, "velocity": 84, "duration": 85}, {"note": 71, "velocity": 84, "duration": 60}, {"note": 69, "velocity": 86, "duration": 117}, {"note": 0, "velocity": 0, "duration": 123}, {"note": 71, "velocity": 83, "duration": 79}, {"note": 64, "velocity": 86, "duration": 304}, {"note": 0, "velocity": 0, "duration": 536}, {"note": 69, "velocity": 83, "duration": 78}, {"note": 71, "velocity": 83, "duration": 63}, {"note": 72, "velocity": 83, "duration": 88}, {"note": 71, "velocity": 83, "duration": 56}, {"note": 0, "velocity": 0, "duration": 64}, {"note": 72, "velocity": 81, "duration": 90}, {"note": 71, "velocity": 84, "duration": 95}, {"note": 69, "velocity": 84, "duration": 109}, {"note": 0, "velocity": 0, "duration": 131}, {"note": 76, "velocity": 86, "duration": 67}, {"note": 79, "velocity": 83, "duration": 242}, {"note": 0, "velocity": 0, "duration": 598}, {"note": 76, "velocity": 83, "duration": 65}, {"note": 76, "velocity": 82, "duration": 90}, {"note": 74, "velocity": 88, "duration": 67}, {"note": 72, "velocity": 84, "duration": 71}, {"note": 74, "velocity": 86, "duration": 88}, {"note": 72, "velocity": 73, "duration": 47}, {"note": 0, "velocity": 0, "duration": 73}, {"note": 74, "velocity": 84, "duration": 149}, {"note": 0, "velocity": 0, "duration": 91}, {"note": 72, "velocity": 80, "duration": 91}, {"note": 71, "velocity": 83, "duration": 668}, {"note": 0, "velocity": 0, "duration": 172}, {"note": 69, "velocity": 78, "duration": 83}, {"note": 71, "velocity": 83, "duration": 69}, {"note": 72, "velocity": 79, "duration": 74}, {"note": 71, "velocity": 80, "duration": 62}, {"note": 72, "velocity": 83, "duration": 71}, {"note": 71, "velocity": 84, "duration": 64}, {"note": 69, "velocity": 84, "duration": 143}, {"note": 0, "velocity": 0, "duration": 97}, {"note": 76, "velocity": 85, "duration": 76}, {"note": 74, "velocity": 85, "duration": 631}, {"note": 0, "velocity": 0, "duration": 209}, {"note": 69, "velocity": 85, "duration": 60}, {"note": 71, "velocity": 83, "duration": 65}, {"note": 72, "velocity": 83, "duration": 83}, {"note": 71, "velocity": 83, "duration": 60}, {"note": 72, "velocity": 76, "duration": 62}, {"note": 71, "velocity": 82, "duration": 66}, {"note": 69, "velocity": 85, "duration": 160}, {"note": 0, "velocity": 0, "duration": 80}, {"note": 71, "velocity": 81, "duration": 71}, {"note": 64, "velocity": 82, "duration": 634}, {"note": 0, "velocity": 0, "duration": 206}, {"note": 69, "velocity": 83, "duration": 67}, {"note": 71, "velocity": 83, "duration": 67}, {"note": 72, "velocity": 81, "duration": 84}, {"note": 71, "velocity": 83, "duration": 67}, {"note": 72, "velocity": 81, "duration": 92}, {"note": 71, "velocity": 83, "duration": 62}, {"note": 69, "velocity": 84, "duration": 138}, {"note": 0, "velocity": 0, "duration": 102}, {"note": 76, "velocity": 86, "duration": 76}, {"note": 79, "velocity": 82, "duration": 471}, {"note": 0, "velocity": 0, "duration": 249}, {"note": 76, "velocity": 88, "duration": 74}, {"note": 76, "velocity": 83, "duration": 81}, {"note": 79, "velocity": 82, "duration": 91}, {"note": 78, "velocity": 98, "duration": 59}, {"note": 0, "velocity": 0, "duration": 61}, {"note": 78, "velocity": 76, "duration": 62}, {"note": 78, "velocity": 82, "duration": 63}, {"note": 78, "velocity": 86, "duration": 173}, {"note": 0, "velocity": 0, "duration": 67}, {"note": 76, "velocity": 87, "duration": 62}, {"note": 78, "velocity": 85, "duration": 70}, {"note": 78, "velocity": 82, "duration": 173}, {"note": 0, "velocity": 0, "duration": 67}, {"note": 76, "velocity": 86, "duration": 443}, {"note": 0, "velocity": 0, "duration": 157}, {"note": 76, "velocity": 87, "duration": 74}, {"note": 76, "velocity": 86, "duration": 68}, {"note": 81, "velocity": 83, "duration": 71}, {"note": 79, "velocity": 77, "duration": 65}, {"note": 81, "velocity": 84, "duration": 83}, {"note": 79, "velocity": 86, "duration": 86}, {"note": 77, "velocity": 84, "duration": 170}, {"note": 0, "velocity": 0, "duration": 70}, {"note": 81, "velocity": 83, "duration": 67}, {"note": 79, "velocity": 83, "duration": 586}, {"note": 0, "velocity": 0, "duration": 134}, {"note": 76, "velocity": 85, "duration": 64}, {"note": 76, "velocity": 85, "duration": 60}, {"note": 76, "velocity": 84, "duration": 65}, {"note": 78, "velocity": 83, "duration": 75}, {"note": 78, "velocity": 85, "duration": 56}, {"note": 0, "velocity": 0, "duration": 64}, {"note": 78, "velocity": 88, "duration": 70}, {"note": 76, "velocity": 83, "duration": 62}, {"note": 78, "velocity": 91, "duration": 78}, {"note": 76, "velocity": 87, "duration": 65}, {"note": 74, "velocity": 84, "duration": 71}, {"note": 78, "velocity": 85, "duration": 188}, {"note": 76, "velocity": 86, "duration": 355}, {"note": 0, "velocity": 0, "duration": 245}, {"note": 76, "velocity": 89, "duration": 71}, {"note": 76, "velocity": 84, "duration": 65}, {"note": 81, "velocity": 83, "duration": 82}, {"note": 79, "velocity": 88, "duration": 53}, {"note": 0, "velocity": 0, "duration": 67}, {"note": 81, "velocity": 86, "duration": 88}, {"note": 79, "velocity": 86, "duration": 67}, {"note": 77, "velocity": 88, "duration": 170}, {"note": 0, "velocity": 0, "duration": 70}, {"note": 81, "velocity": 86, "duration": 72}, {"note": 79, "velocity": 88, "duration": 508}, {"note": 0, "velocity": 0, "duration": 332}, {"note": 76, "velocity": 85, "duration": 65}, {"note": 76, "velocity": 87, "duration": 74}, {"note": 74, "velocity": 84, "duration": 144}, {"note": 0, "velocity": 0, "duration": 96}, {"note": 74, "velocity": 89, "duration": 147}, {"note": 0, "velocity": 0, "duration": 93}, {"note": 74, "velocity": 88, "duration": 203}, {"note": 72, "velocity": 84, "duration": 188}, {"note": 71, "velocity": 84, "duration": 342}, {"note": 0, "velocity": 0, "duration": 138}, {"note": 76, "velocity": 84, "duration": 172}, {"note": 0, "velocity": 0, "duration": 68}, {"note": 74, "velocity": 86, "duration": 164}, {"note": 0, "velocity": 0, "duration": 76}, {"note": 72, "velocity": 86, "duration": 212}, {"note": 69, "velocity": 85, "duration": 199}, {"note": 72, "velocity": 85, "duration": 179}, {"note": 0, "velocity": 0, "duration": 61}, {"note": 74, "velocity": 86, "duration": 167}, {"note": 0, "velocity": 0, "duration": 73}, {"note": 76, "velocity": 83, "duration": 191}, {"note": 79, "velocity": 84, "duration": 242}, {"note": 76, "velocity": 86, "duration": 189}, {"note": 74, "velocity": 87, "duration": 176}, {"note": 0, "velocity": 0, "duration": 64}, {"note": 72, "velocity": 86, "duration": 188}, {"note": 69, "velocity": 84, "duration": 164}, {"note": 0, "velocity": 0, "duration": 76}, {"note": 69, "velocity": 82, "duration": 178}, {"note": 0, "velocity": 0, "duration": 62}, {"note": 67, "velocity": 84, "duration": 209}, {"note": 64, "velocity": 93, "duration": 386}, {"note": 0, "velocity": 0, "duration": 334}, {"note": 72, "velocity": 84, "duration": 74}, {"note": 71, "velocity": 86, "duration": 97}, {"note": 69, "velocity": 85, "duration": 190}, {"note": 67, "velocity": 83, "duration": 166}, {"note": 0, "velocity": 0, "duration": 74}, {"note": 69, "velocity": 84, "duration": 181}, {"note": 72, "velocity": 84, "duration": 176}, {"note": 0, "velocity": 0, "duration": 64}, {"note": 72, "velocity": 86, "duration": 180}, {"note": 79, "velocity": 85, "duration": 167}, {"note": 0, "velocity": 0, "duration": 73}, {"note": 76, "velocity": 83, "duration": 191}, {"note": 76, "velocity": 86, "duration": 108}, {"note": 74, "velocity": 78, "duration": 73}, {"note": 72, "velocity": 86, "duration": 172}, {"note": 0, "velocity": 0, "duration": 68}, {"note": 72, "velocity": 83, "duration": 192}, {"note": 72, "velocity": 84, "duration": 176}, {"note": 0, "velocity": 0, "duration": 64}, {"note": 69, "velocity": 83, "duration": 175}, {"note": 0, "velocity": 0, "duration": 65}, {"note": 71, "velocity": 84, "duration": 712}, {"note": 76, "velocity": 86, "duration": 88}, {"note": 74, "velocity": 85, "duration": 67}, {"note": 76, "velocity": 86, "duration": 219}, {"note": 74, "velocity": 86, "duration": 185}, {"note": 76, "velocity": 83, "duration": 202}, {"note": 79, "velocity": 86, "duration": 179}, {"note": 0, "velocity": 0, "duration": 61}, {"note": 81, "velocity": 83, "duration": 210}, {"note": 79, "velocity": 83, "duration": 183}, {"note": 79, "velocity": 83, "duration": 120}, {"note": 79, "velocity": 84, "duration": 170}, {"note": 0, "velocity": 0, "duration": 70}, {"note": 76, "velocity": 83, "duration": 132}, {"note": 81, "velocity": 88, "duration": 152}, {"note": 79, "velocity": 86, "duration": 161}, {"note": 0, "velocity": 0, "duration": 79}, {"note": 77, "velocity": 84, "duration": 181}, {"note": 79, "velocity": 83, "duration": 172}, {"note": 0, "velocity": 0, "duration": 68}, {"note": 77, "velocity": 83, "duration": 209}, {"note": 76, "velocity": 89, "duration": 544}, {"note": 0, "velocity": 0, "duration": 176}, {"note": 74, "velocity": 89, "duration": 101}, {"note": 76, "velocity": 84, "duration": 68}, {"note": 77, "velocity": 84, "duration": 184}, {"note": 76, "velocity": 89, "duration": 190}, {"note": 74, "velocity": 93, "duration": 262}, {"note": 0, "velocity": 0, "duration": 98}, {"note": 69, "velocity": 84, "duration": 76}, {"note": 76, "velocity": 86, "duration": 193}, {"note": 74, "velocity": 89, "duration": 120}, {"note": 72, "velocity": 87, "duration": 199}, {"note": 72, "velocity": 82, "duration": 67}, {"note": 72, "velocity": 83, "duration": 62}, {"note": 72, "velocity": 84, "duration": 80}, {"note": 71, "velocity": 85, "duration": 62}, {"note": 71, "velocity": 86, "duration": 185}, {"note": 71, "velocity": 84, "duration": 71}, {"note": 71, "velocity": 88, "duration": 120}, {"note": 71, "velocity": 88, "duration": 120}, {"note": 0, "velocity": 0, "duration": 120}, {"note": 69, "velocity": 86, "duration": 120}, {"note": 71, "velocity": 88, "duration": 625}, {"note": 0, "velocity": 0, "duration": 95}, {"note": 76, "velocity": 84, "duration": 172}, {"note": 74, "velocity": 86, "duration": 120}, {"note": 72, "velocity": 86, "duration": 212}, {"note": 69, "velocity": 85, "duration": 199}, {"note": 72, "velocity": 85, "duration": 179}, {"note": 0, "velocity": 0, "duration": 61}, {"note": 74, "velocity": 86, "duration": 167}, {"note": 0, "velocity": 0, "duration": 73}, {"note": 76, "velocity": 83, "duration": 191}, {"note": 79, "velocity": 84, "duration": 242}, {"note": 76, "velocity": 86, "duration": 189}, {"note": 74, "velocity": 87, "duration": 176}, {"note": 0, "velocity": 0, "duration": 64}, {"note": 72, "velocity": 86, "duration": 188}, {"note": 69, "velocity": 84, "duration": 164}, {"note": 0, "velocity": 0, "duration": 76}, {"note": 69, "velocity": 82, "duration": 178}, {"note": 0, "velocity": 0, "duration": 62}, {"note": 67, "velocity": 84, "duration": 209}, {"note": 64, "velocity": 93, "duration": 386}, {"note": 0, "velocity": 0, "duration": 334}, {"note": 72, "velocity": 84, "duration": 74}, {"note": 71, "velocity": 86, "duration": 97}, {"note": 69, "velocity": 85, "duration": 190}, {"note": 67, "velocity": 83, "duration": 166}, {"note": 0, "velocity": 0, "duration": 74}, {"note": 69, "velocity": 84, "duration": 181}, {"note": 72, "velocity": 84, "duration": 176}, {"note": 0, "velocity": 0, "duration": 64}, {"note": 72, "velocity": 86, "duration": 180}, {"note": 79, "velocity": 85, "duration": 167}, {"note": 0, "velocity": 0, "duration": 73}, {"note": 76, "velocity": 83, "duration": 191}, {"note": 76, "velocity": 86, "duration": 108}, {"note": 74, "velocity": 78, "duration": 73}, {"note": 72, "velocity": 86, "duration": 172}, {"note": 0, "velocity": 0, "duration": 68}, {"note": 72, "velocity": 83, "duration": 192}, {"note": 72, "velocity": 84, "duration": 176}, {"note": 0, "velocity": 0, "duration": 64}, {"note": 69, "velocity": 83, "duration": 175}, {"note": 0, "velocity": 0, "duration": 65}, {"note": 71, "velocity": 84, "duration": 712}, {"note": 76, "velocity": 86, "duration": 88}, {"note": 74, "velocity": 85, "duration": 67}, {"note": 76, "velocity": 86, "duration": 219}, {"note": 74, "velocity": 86, "duration": 185}, {"note": 76, "velocity": 83, "duration": 202}, {"note": 79, "velocity": 86, "duration": 179}, {"note": 0, "velocity": 0, "duration": 61}, {"note": 81, "velocity": 83, "duration": 210}, {"note": 79, "velocity": 83, "duration": 183}, {"note": 79, "velocity": 83, "duration": 120}, {"note": 79, "velocity": 84, "duration": 170}, {"note": 0, "velocity": 0, "duration": 70}, {"note": 76, "velocity": 83, "duration": 132}, {"note": 81, "velocity": 88, "duration": 152}, {"note": 79, "velocity": 86, "duration": 161}, {"note": 0, "velocity": 0, "duration": 79}, {"note": 77, "velocity": 84, "duration": 181}, {"note": 79, "velocity": 83, "duration": 172}, {"note": 0, "velocity": 0, "duration": 68}, {"note": 77, "velocity": 83, "duration": 209}, {"note": 76, "velocity": 89, "duration": 544}, {"note": 0, "velocity": 0, "duration": 176}, {"note": 74, "velocity": 89, "duration": 101}, {"note": 76, "velocity": 84, "duration": 68}, {"note": 77, "velocity": 84, "duration": 184}, {"note": 76, "velocity": 89, "duration": 190}, {"note": 74, "velocity": 93, "duration": 262}, {"note": 0, "velocity": 0, "duration": 98}, {"note": 69, "velocity": 84, "duration": 76}, {"note": 76, "velocity": 86, "duration": 193}, {"note": 74, "velocity": 89, "duration": 120}, {"note": 72, "velocity": 87, "duration": 199}, {"note": 72, "velocity": 82, "duration": 67}, {"note": 72, "velocity": 83, "duration": 62}, {"note": 72, "velocity": 84, "duration": 80}, {"note": 71, "velocity": 85, "duration": 62}, {"note": 71, "velocity": 86, "duration": 185}, {"note": 71, "velocity": 84, "duration": 71}, {"note": 71, "velocity": 88, "duration": 120}, {"note": 71, "velocity": 88, "duration": 120}, {"note": 0, "velocity": 0, "duration": 120}, {"note": 69, "velocity": 86, "duration": 120}, {"note": 71, "velocity": 88, "duration": 480}, {"note": 68, "velocity": 86, "duration": 207}, {"note": 71, "velocity": 87, "duration": 192}, {"note": 69, "velocity": 89, "duration": 822}]]