[[{"note": 69, "velocity": 85, "duration": 327}, {"note": 0, "velocity": 0, "duration": 153}, {"note": 69, "velocity": 83, "duration": 155}, {"note": 65, "velocity": 82, "duration": 156}, {"note": 69, "velocity": 83, "duration": 158}, {"note": 67, "velocity": 78, "duration": 669}, {"note": 0, "velocity": 0, "duration": 291}, {"note": 65, "velocity": 78, "duration": 117}, {"note": 65, "velocity": 72, "duration": 120}, {"note": 65, "velocity": 83, "duration": 110}, {"note": 65, "velocity": 85, "duration": 137}, {"note": 62, "velocity": 83, "duration": 135}, {"note": 65, "velocity": 82, "duration": 150}, {"note": 64, "velocity": 83, "duration": 641}, {"note": 0, "velocity": 0, "duration": 319}, {"note": 65, "velocity": 80, "duration": 454}, {"note": 65, "velocity": 80, "duration": 141}, {"note": 64, "velocity": 82, "duration": 123}, {"note": 65, "velocity": 79, "duration": 139}, {"note": 65, "velocity": 82, "duration": 443}, {"note": 69, "velocity": 84, "duration": 407}, {"note": 0, "velocity": 0, "duration": 73}, {"note": 67, "velocity": 82, "duration": 118}, {"note": 67, "velocity": 75, "duration": 99}, {"note": 0, "velocity": 0, "duration": 61}, {"note": 67, "velocity": 82, "duration": 112}, {"note": 67, "velocity": 82, "duration": 127}, {"note": 65, "velocity": 84, "duration": 128}, {"note": 64, "velocity": 86, "duration": 158}, {"note": 69, "velocity": 83, "duration": 667}, {"note": 0, "velocity": 0, "duration": 293}, {"note": 69, "velocity": 84, "duration": 480}, {"note": 69, "velocity": 84, "duration": 147}, {"note": 74, "velocity": 83, "duration": 147}, {"note": 65, "velocity": 84, "duration": 171}, {"note": 67, "velocity": 80, "duration": 758}, {"note": 0, "velocity": 0, "duration": 202}, {"note": 69, "velocity": 83, "duration": 70}, {"note": 67, "velocity": 78, "duration": 64}, {"note": 69, "velocity": 73, "duration": 78}, {"note": 67, "velocity": 72, "duration": 76}, {"note": 69, "velocity": 78, "duration": 87}, {"note": 67, "velocity": 79, "duration": 88}, {"note": 69, "velocity": 81, "duration": 180}, {"note": 74, "velocity": 87, "duration": 198}, {"note": 65, "velocity": 77, "duration": 166}, {"note": 67, "velocity": 78, "duration": 611}, {"note": 0, "velocity": 0, "duration": 349}, {"note": 65, "velocity": 76, "duration": 432}, {"note": 65, "velocity": 80, "duration": 147}, {"note": 64, "velocity": 81, "duration": 169}, {"note": 65, "velocity": 84, "duration": 128}, {"note": 65, "velocity": 83, "duration": 482}, {"note": 69, "velocity": 79, "duration": 394}, {"note": 0, "velocity": 0, "duration": 86}, {"note": 67, "velocity": 77, "duration": 78}, {"note": 65, "velocity": 76, "duration": 88}, {"note": 67, "velocity": 77, "duration": 80}, {"note": 65, "velocity": 75, "duration": 85}, {"note": 67, "velocity": 81, "duration": 86}, {"note": 65, "velocity": 82, "duration": 75}, {"note": 67, "velocity": 82, "duration": 151}, {"note": 65, "velocity": 82, "duration": 133}, {"note": 64, "velocity": 81, "duration": 121}, {"note": 69, "velocity": 76, "duration": 648}, {"note": 0, "velocity": 0, "duration": 312}, {"note": 62, "velocity": 82, "duration": 424}, {"note": 65, "velocity": 77, "duration": 383}, {"note": 0, "velocity": 0, "duration": 97}, {"note": 65, "velocity": 82, "duration": 190}, {"note": 64, "velocity": 83, "duration": 152}, {"note": 62, "velocity": 80, "duration": 195}, {"note": 67, "velocity": 76, "duration": 335}, {"note": 0, "velocity": 0, "duration": 145}, {"note": 69, "velocity": 77, "duration": 114}, {"note": 69, "velocity": 75, "duration": 129}, {"note": 69, "velocity": 75, "duration": 109}, {"note": 69, "velocity": 77, "duration": 142}, {"note": 67, "velocity": 76, "duration": 136}, {"note": 65, "velocity": 81, "duration": 161}, {"note": 69, "velocity": 76, "duration": 180}, {"note": 67, "velocity": 78, "duration": 149}, {"note": 65, "velocity": 75, "duration": 170}, {"note": 67, "velocity": 82, "duration": 350}, {"note": 0, "velocity": 0, "duration": 130}, {"note": 62, "velocity": 86, "duration": 482}, {"note": 65, "velocity": 82, "duration": 390}, {"note": 0, "velocity": 0, "duration": 90}, {"note": 65, "velocity": 82, "duration": 203}, {"note": 64, "velocity": 79, "duration": 145}, {"note": 62, "velocity": 79, "duration": 171}, {"note": 67, "velocity": 76, "duration": 352}, {"note": 0, "velocity": 0, "duration": 128}, {"note": 69, "velocity": 83, "duration": 102}, {"note": 69, "velocity": 80, "duration": 113}, {"note": 69, "velocity": 86, "duration": 117}, {"note": 69, "velocity": 83, "duration": 110}, {"note": 72, "velocity": 86, "duration": 126}, {"note": 74, "velocity": 87, "duration": 112}, {"note": 74, "velocity": 88, "duration": 458}, {"note": 72, "velocity": 83, "duration": 338}, {"note": 0, "velocity": 0, "duration": 142}, {"note": 72, "velocity": 86, "duration": 216}, {"note": 0, "velocity": 0, "duration": 104}, {"note": 72, "velocity": 83, "duration": 120}, {"note": 72, "velocity": 82, "duration": 119}, {"note": 70, "velocity": 86, "duration": 104}, {"note": 69, "velocity": 83, "duration": 131}, {"note": 76, "velocity": 83, "duration": 252}, {"note": 0, "velocity": 0, "duration": 68}, {"note": 76, "velocity": 80, "duration": 104}, {"note": 74, "velocity": 83, "duration": 113}, {"note": 74, "velocity": 82, "duration": 94}, {"note": 0, "velocity": 0, "duration": 66}, {"note": 76, "velocity": 75, "duration": 122}, {"note": 77, "velocity": 74, "duration": 218}, {"note": 0, "velocity": 0, "duration": 102}, {"note": 65, "velocity": 82, "duration": 115}, {"note": 65, "velocity": 82, "duration": 115}, {"note": 67, "velocity": 83, "duration": 94}, {"note": 0, "velocity": 0, "duration": 66}, {"note": 69, "velocity": 76, "duration": 111}, {"note": 69, "velocity": 80, "duration": 416}, {"note": 0, "velocity": 0, "duration": 64}, {"note": 69, "velocity": 83, "duration": 119}, {"note": 72, "velocity": 78, "duration": 142}, {"note": 69, "velocity": 82, "duration": 140}, {"note": 67, "velocity": 79, "duration": 160}, {"note": 65, "velocity": 83, "duration": 286}, {"note": 0, "velocity": 0, "duration": 194}, {"note": 74, "velocity": 88, "duration": 196}, {"note": 69, "velocity": 84, "duration": 73}, {"note": 67, "velocity": 75, "duration": 160}, {"note": 65, "velocity": 80, "duration": 347}, {"note": 0, "velocity": 0, "duration": 453}, {"note": 67, "velocity": 73, "duration": 103}, {"note": 67, "velocity": 77, "duration": 97}, {"note": 0, "velocity": 0, "duration": 63}, {"note": 67, "velocity": 78, "duration": 100}, {"note": 67, "velocity": 75, "duration": 102}, {"note": 65, "velocity": 83, "duration": 126}, {"note": 62, "velocity": 82, "duration": 131}, {"note": 69, "velocity": 81, "duration": 480}, {"note": 67, "velocity": 75, "duration": 413}, {"note": 0, "velocity": 0, "duration": 67}, {"note": 72, "velocity": 86, "duration": 216}, {"note": 0, "velocity": 0, "duration": 104}, {"note": 72, "velocity": 83, "duration": 120}, {"note": 72, "velocity": 82, "duration": 119}, {"note": 70, "velocity": 86, "duration": 104}, {"note": 69, "velocity": 83, "duration": 131}, {"note": 76, "velocity": 83, "duration": 252}, {"note": 0, "velocity": 0, "duration": 68}, {"note": 76, "velocity": 80, "duration": 104}, {"note": 74, "velocity": 83, "duration": 113}, {"note": 74, "velocity": 82, "duration": 94}, {"note": 0, "velocity": 0, "duration": 66}, {"note": 76, "velocity": 75, "duration": 122}, {"note": 77, "velocity": 74, "duration": 218}, {"note": 0, "velocity": 0, "duration": 102}, {"note": 65, "velocity": 82, "duration": 115}, {"note": 65, "velocity": 82, "duration": 115}, {"note": 67, "velocity": 83, "duration": 94}, {"note": 0, "velocity": 0, "duration": 66}, {"note": 69, "velocity": 76, "duration": 111}, {"note": 69, "velocity": 80, "duration": 416}, {"note": 0, "velocity": 0, "duration": 64}, {"note": 69, "velocity": 83, "duration": 119}, {"note": 72, "velocity": 78, "duration": 142}, {"note": 69, "velocity": 82, "duration": 140}, {"note": 67, "velocity": 79, "duration": 160}, {"note": 65, "velocity": 83, "duration": 286}, {"note": 0, "velocity": 0, "duration": 194}, {"note": 74, "velocity": 88, "duration": 196}, {"note": 69, "velocity": 84, "duration": 153}, {"note": 67, "velocity": 75, "duration": 240}, {"note": 0, "velocity": 0, "duration": 80}, {"note": 69, "velocity": 80, "duration": 158}, {"note": 67, "velocity": 75, "duration": 299}, {"note": 65, "velocity": 82, "duration": 166}, {"note": 62, "velocity": 81, "duration": 917}, {"note": 0, "velocity": 0, "duration": 2923}, {"note": 69, "velocity": 85, "duration": 327}, {"note": 0, "velocity": 0, "duration": 153}, {"note": 69, "velocity": 83, "duration": 155}, {"note": 65, "velocity": 82, "duration": 156}, {"note": 69, "velocity": 83, "duration": 158}, {"note": 67, "velocity": 78, "duration": 669}, {"note": 0, "velocity": 0, "duration": 291}, {"note": 65, "velocity": 78, "duration": 117}, {"note": 65, "velocity": 72, "duration": 120}, {"note": 65, "velocity": 83, "duration": 110}, {"note": 65, "velocity": 85, "duration": 137}, {"note": 62, "velocity": 83, "duration": 135}, {"note": 65, "velocity": 82, "duration": 150}, {"note": 64, "velocity": 83, "duration": 641}, {"note": 0, "velocity": 0, "duration": 319}, {"note": 65, "velocity": 80, "duration": 454}, {"note": 65, "velocity": 80, "duration": 141}, {"note": 64, "velocity": 82, "duration": 123}, {"note": 65, "velocity": 79, "duration": 139}, {"note": 65, "velocity": 82, "duration": 443}, {"note": 69, "velocity": 84, "duration": 407}, {"note": 0, "velocity": 0, "duration": 73}, {"note": 67, "velocity": 82, "duration": 118}, {"note": 67, "velocity": 75, "duration": 99}, {"note": 0, "velocity": 0, "duration": 61}, {"note": 67, "velocity": 82, "duration": 112}, {"note": 67, "velocity": 82, "duration": 127}, {"note": 65, "velocity": 84, "duration": 128}, {"note": 64, "velocity": 86, "duration": 158}, {"note": 69, "velocity": 83, "duration": 667}, {"note": 0, "velocity": 0, "duration": 293}, {"note": 69, "velocity": 84, "duration": 480}, {"note": 69, "velocity": 84, "duration": 147}, {"note": 74, "velocity": 83, "duration": 147}, {"note": 65, "velocity": 84, "duration": 171}, {"note": 67, "velocity": 80, "duration": 758}, {"note": 0, "velocity": 0, "duration": 202}, {"note": 69, "velocity": 83, "duration": 70}, {"note": 67, "velocity": 78, "duration": 64}, {"note": 69, "velocity": 73, "duration": 78}, {"note": 67, "velocity": 72, "duration": 76}, {"note": 69, "velocity": 78, "duration": 87}, {"note": 67, "velocity": 79, "duration": 88}, {"note": 69, "velocity": 81, "duration": 180}, {"note": 74, "velocity": 87, "duration": 198}, {"note": 65, "velocity": 77, "duration": 166}, {"note": 67, "velocity": 78, "duration": 611}, {"note": 0, "velocity": 0, "duration": 349}, {"note": 65, "velocity": 76, "duration": 432}, {"note": 65, "velocity": 80, "duration": 147}, {"note": 64, "velocity": 81, "duration": 169}, {"note": 65, "velocity": 84, "duration": 128}, {"note": 65, "velocity": 83, "duration": 482}, {"note": 69, "velocity": 79, "duration": 394}, {"note": 0, "velocity": 0, "duration": 86}, {"note": 67, "velocity": 77, "duration": 78}, {"note": 65, "velocity": 76, "duration": 88}, {"note": 67, "velocity": 77, "duration": 80}, {"note": 65, "velocity": 75, "duration": 85}, {"note": 67, "velocity": 81, "duration": 86}, {"note": 65, "velocity": 82, "duration": 75}, {"note": 67, "velocity": 82, "duration": 151}, {"note": 65, "velocity": 82, "duration": 133}, {"note": 64, "velocity": 81, "duration": 121}, {"note": 69, "velocity": 76, "duration": 648}, {"note": 0, "velocity": 0, "duration": 312}, {"note": 62, "velocity": 82, "duration": 424}, {"note": 65, "velocity": 77, "duration": 383}, {"note": 0, "velocity": 0, "duration": 97}, {"note": 65, "velocity": 82, "duration": 190}, {"note": 64, "velocity": 83, "duration": 152}, {"note": 62, "velocity": 80, "duration": 195}, {"note": 67, "velocity": 76, "duration": 335}, {"note": 0, "velocity": 0, "duration": 145}, {"note": 69, "velocity": 77, "duration": 114}, {"note": 69, "velocity": 75, "duration": 129}, {"note": 69, "velocity": 75, "duration": 109}, {"note": 69, "velocity": 77, "duration": 142}, {"note": 67, "velocity": 76, "duration": 136}, {"note": 65, "velocity": 81, "duration": 161}, {"note": 69, "velocity": 76, "duration": 180}, {"note": 67, "velocity": 78, "duration": 149}, {"note": 65, "velocity": 75, "duration": 170}, {"note": 67, "velocity": 82, "duration": 350}, {"note": 0, "velocity": 0, "duration": 130}, {"note": 62, "velocity": 86, "duration": 482}, {"note": 65, "velocity": 82, "duration": 390}, {"note": 0, "velocity": 0, "duration": 90}, {"note": 65, "velocity": 82, "duration": 203}, {"note": 64, "velocity": 79, "duration": 145}, {"note": 62, "velocity": 79, "duration": 171}, {"note": 67, "velocity": 76, "duration": 352}, {"note": 0, "velocity": 0, "duration": 128}, {"note": 69, "velocity": 83, "duration": 102}, {"note": 69, "velocity": 80, "duration": 113}, {"note": 69, "velocity": 86, "duration": 117}, {"note": 69, "velocity": 83, "duration": 110}, {"note": 72, "velocity": 86, "duration": 126}, {"note": 74, "velocity": 87, "duration": 112}, {"note": 74, "velocity": 88, "duration": 458}, {"note": 72, "velocity": 83, "duration": 338}, {"note": 0, "velocity": 0, "duration": 142}, {"note": 72, "velocity": 86, "duration": 216}, {"note": 0, "velocity": 0, "duration": 104}, {"note": 72, "velocity": 83, "duration": 120}, {"note": 72, "velocity": 82, "duration": 119}, {"note": 70, "velocity": 86, "duration": 104}, {"note": 69, "velocity": 83, "duration": 131}, {"note": 76, "velocity": 83, "duration": 252}, {"note": 0, "velocity": 0, "duration": 68}, {"note": 76, "velocity": 80, "duration": 104}, {"note": 74, "velocity": 83, "duration": 113}, {"note": 74, "velocity": 82, "duration": 94}, {"note": 0, "velocity": 0, "duration": 66}, {"note": 76, "velocity": 75, "duration": 122}, {"note": 77, "velocity": 74, "duration": 218}, {"note": 0, "velocity": 0, "duration": 102}, {"note": 65, "velocity": 82, "duration": 115}, {"note": 65, "velocity": 82, "duration": 115}, {"note": 67, "velocity": 83, "duration": 94}, {"note": 0, "velocity": 0, "duration": 66}, {"note": 69, "velocity": 76, "duration": 111}, {"note": 69, "velocity": 80, "duration": 416}, {"note": 0, "velocity": 0, "duration": 64}, {"note": 69, "velocity": 83, "duration": 119}, {"note": 72, "velocity": 78, "duration": 142}, {"note": 69, "velocity": 82, "duration": 140}, {"note": 67, "velocity": 79, "duration": 160}, {"note": 65, "velocity": 83, "duration": 286}, {"note": 0, "velocity": 0, "duration": 194}, {"note": 74, "velocity": 88, "duration": 196}, {"note": 69, "velocity": 84, "duration": 73}, {"note": 67, "velocity": 75, "duration": 160}, {"note": 65, "velocity": 80, "duration": 347}, {"note": 0, "velocity": 0, "duration": 453}, {"note": 67, "velocity": 73, "duration": 103}, {"note": 67, "velocity": 77, "duration": 97}, {"note": 0, "velocity": 0, "duration": 63}, {"note": 67, "velocity": 78, "duration": 100}, {"note": 67, "velocity": 75, "duration": 102}, {"note": 65, "velocity": 83, "duration": 126}, {"note": 62, "velocity": 82, "duration": 131}, {"note": 69, "velocity": 81, "duration": 480}, {"note": 67, "velocity": 75, "duration": 413}, {"note": 0, "velocity": 0, "duration": 67}, {"note": 72, "velocity": 86, "duration": 216}, {"note": 0, "velocity": 0, "duration": 104}, {"note": 72, "velocity": 83, "duration": 120}, {"note": 72, "velocity": 82, "duration": 119}, {"note": 70, "velocity": 86, "duration": 104}, {"note": 69, "velocity": 83, "duration": 131}, {"note": 76, "velocity": 83, "duration": 252}, {"note": 0, "velocity": 0, "duration": 68}, {"note": 76, "velocity": 80, "duration": 104}, {"note": 74, "velocity": 83, "duration": 113}, {"note": 74, "velocity": 82, "duration": 94}, {"note": 0, "velocity": 0, "duration": 66}, {"note": 76, "velocity": 75, "duration": 122}, {"note": 77, "velocity": 74, "duration": 218}, {"note": 0, "velocity": 0, "duration": 102}, {"note": 65, "velocity": 82, "duration": 115}, {"note": 65, "velocity": 82, "duration": 115}, {"note": 67, "velocity": 83, "duration": 94}, {"note": 0, "velocity": 0, "duration": 66}, {"note": 69, "velocity": 76, "duration": 111}, {"note": 69, "velocity": 80, "duration": 416}, {"note": 0, "velocity": 0, "duration": 64}, {"note": 69, "velocity": 83, "duration": 119}, {"note": 72, "velocity": 78, "duration": 142}, {"note": 69, "velocity": 82, "duration": 140}, {"note": 67, "velocity": 79, "duration": 160}, {"note": 65, "velocity": 83, "duration": 286}, {"note": 0, "velocity": 0, "duration": 194}, {"note": 74, "velocity": 88, "duration": 196}, {"note": 69, "velocity": 84, "duration": 153}, {"note": 67, "velocity": 75, "duration": 240}, {"note": 0, "velocity": 0, "duration": 80}, {"note": 69, "velocity": 80, "duration": 158}, {"note": 67, "velocity": 75, "duration": 299}, {"note": 65, "velocity": 82, "duration": 166}, {"note": 62, "velocity": 81, "duration": 917}, {"note": 0, "velocity": 0, "duration": 14443}, {"note": 74, "velocity": 85, "duration": 130}, {"note": 74, "velocity": 84, "duration": 101}, {"note": 74, "velocity": 88, "duration": 105}, {"note": 74, "velocity": 89, "duration": 115}, {"note": 72, "velocity": 86, "duration": 136}, {"note": 69, "velocity": 84, "duration": 152}, {"note": 67, "velocity": 82, "duration": 864}, {"note": 0, "velocity": 0, "duration": 96}, {"note": 76, "velocity": 84, "duration": 107}, {"note": 76, "velocity": 82, "duration": 99}, {"note": 0, "velocity": 0, "duration": 61}, {"note": 76, "velocity": 83, "duration": 112}, {"note": 76, "velocity": 83, "duration": 125}, {"note": 74, "velocity": 87, "duration": 126}, {"note": 72, "velocity": 84, "duration": 117}, {"note": 69, "velocity": 83, "duration": 480}, {"note": 0, "velocity": 0, "duration": 480}, {"note": 67, "velocity": 80, "duration": 119}, {"note": 67, "velocity": 78, "duration": 110}, {"note": 67, "velocity": 81, "duration": 115}, {"note": 67, "velocity": 82, "duration": 144}, {"note": 65, "velocity": 85, "duration": 140}, {"note": 64, "velocity": 85, "duration": 139}, {"note": 67, "velocity": 83, "duration": 110}, {"note": 67, "velocity": 81, "duration": 101}, {"note": 67, "velocity": 82, "duration": 123}, {"note": 67, "velocity": 83, "duration": 100}, {"note": 70, "velocity": 88, "duration": 92}, {"note": 0, "velocity": 0, "duration": 68}, {"note": 74, "velocity": 83, "duration": 114}, {"note": 76, "velocity": 89, "duration": 160}, {"note": 76, "velocity": 80, "duration": 99}, {"note": 0, "velocity": 0, "duration": 61}, {"note": 76, "velocity": 83, "duration": 92}, {"note": 0, "velocity": 0, "duration": 68}, {"note": 76, "velocity": 87, "duration": 143}, {"note": 76, "velocity": 93, "duration": 92}, {"note": 0, "velocity": 0, "duration": 68}, {"note": 74, "velocity": 86, "duration": 106}, {"note": 74, "velocity": 83, "duration": 451}, {"note": 72, "velocity": 82, "duration": 406}, {"note": 0, "velocity": 0, "duration": 74}, {"note": 72, "velocity": 86, "duration": 216}, {"note": 0, "velocity": 0, "duration": 104}, {"note": 72, "velocity": 83, "duration": 120}, {"note": 72, "velocity": 82, "duration": 119}, {"note": 70, "velocity": 86, "duration": 104}, {"note": 69, "velocity": 83, "duration": 131}, {"note": 76, "velocity": 83, "duration": 252}, {"note": 0, "velocity": 0, "duration": 68}, {"note": 76, "velocity": 80, "duration": 104}, {"note": 74, "velocity": 83, "duration": 113}, {"note": 74, "velocity": 82, "duration": 94}, {"note": 0, "velocity": 0, "duration": 66}, {"note": 76, "velocity": 75, "duration": 122}, {"note": 77, "velocity": 74, "duration": 218}, {"note": 0, "velocity": 0, "duration": 102}, {"note": 65, "velocity": 82, "duration": 115}, {"note": 65, "velocity": 82, "duration": 115}, {"note": 67, "velocity": 83, "duration": 94}, {"note": 0, "velocity": 0, "duration": 66}, {"note": 69, "velocity": 76, "duration": 111}, {"note": 69, "velocity": 80, "duration": 416}, {"note": 0, "velocity": 0, "duration": 64}, {"note": 69, "velocity": 83, "duration": 119}, {"note": 72, "velocity": 78, "duration": 142}, {"note": 69, "velocity": 82, "duration": 140}, {"note": 67, "velocity": 79, "duration": 160}, {"note": 65, "velocity": 83, "duration": 286}, {"note": 0, "velocity": 0, "duration": 194}, {"note": 74, "velocity": 88, "duration": 196}, {"note": 69, "velocity": 84, "duration": 73}, {"note": 67, "velocity": 75, "duration": 160}, {"note": 65, "velocity": 80, "duration": 347}, {"note": 0, "velocity": 0, "duration": 453}, {"note": 67, "velocity": 73, "duration": 103}, {"note": 67, "velocity": 77, "duration": 97}, {"note": 0, "velocity": 0, "duration": 63}, {"note": 67, "velocity": 78, "duration": 100}, {"note": 67, "velocity": 75, "duration": 102}, {"note": 65, "velocity": 83, "duration": 126}, {"note": 62, "velocity": 82, "duration": 131}, {"note": 69, "velocity": 81, "duration": 480}, {"note": 67, "velocity": 75, "duration": 413}, {"note": 0, "velocity": 0, "duration": 67}, {"note": 72, "velocity": 86, "duration": 216}, {"note": 0, "velocity": 0, "duration": 104}, {"note": 72, "velocity": 83, "duration": 120}, {"note": 72, "velocity": 82, "duration": 119}, {"note": 70, "velocity": 86, "duration": 104}, {"note": 69, "velocity": 83, "duration": 131}, {"note": 76, "velocity": 83, "duration": 252}, {"note": 0, "velocity": 0, "duration": 68}, {"note": 76, "velocity": 80, "duration": 104}, {"note": 74, "velocity": 83, "duration": 113}, {"note": 74, "velocity": 82, "duration": 94}, {"note": 0, "velocity": 0, "duration": 66}, {"note": 76, "velocity": 75, "duration": 122}, {"note": 77, "velocity": 74, "duration": 218}, {"note": 0, "velocity": 0, "duration": 102}, {"note": 65, "velocity": 82, "duration": 115}, {"note": 65, "velocity": 82, "duration": 115}, {"note": 67, "velocity": 83, "duration": 94}, {"note": 0, "velocity": 0, "duration": 66}, {"note": 69, "velocity": 76, "duration": 111}, {"note": 69, "velocity": 80, "duration": 416}, {"note": 0, "velocity": 0, "duration": 64}, {"note": 69, "velocity": 83, "duration": 119}, {"note": 72, "velocity": 78, "duration": 142}, {"note": 69, "velocity": 82, "duration": 140}, {"note": 67, "velocity": 79, "duration": 160}, {"note": 65, "velocity": 83, "duration": 286}, {"note": 0, "velocity": 0, "duration": 194}, {"note": 74, "velocity": 88, "duration": 196}, {"note": 69, "velocity": 84, "duration": 153}, {"note": 67, "velocity": 75, "duration": 240}, {"note": 0, "velocity": 0, "duration": 80}, {"note": 69, "velocity": 80, "duration": 158}, {"note": 67, "velocity": 75, "duration": 299}, {"note": 65, "velocity": 82, "duration": 166}, {"note": 65, "velocity": 81, "duration": 6}]]