[[{"note": 64, "velocity": 63, "duration": 163}, {"note": 0, "velocity": 0, "duration": 77}, {"note": 67, "velocity": 58, "duration": 162}, {"note": 0, "velocity": 0, "duration": 78}, {"note": 69, "velocity": 60, "duration": 351}, {"note": 0, "velocity": 0, "duration": 129}, {"note": 64, "velocity": 65, "duration": 162}, {"note": 0, "velocity": 0, "duration": 78}, {"note": 67, "velocity": 64, "duration": 552}, {"note": 0, "velocity": 0, "duration": 168}, {"note": 64, "velocity": 67, "duration": 121}, {"note": 0, "velocity": 0, "duration": 119}, {"note": 67, "velocity": 58, "duration": 137}, {"note": 0, "velocity": 0, "duration": 103}, {"note": 69, "velocity": 60, "duration": 368}, {"note": 0, "velocity": 0, "duration": 112}, {"note": 69, "velocity": 63, "duration": 189}, {"note": 67, "velocity": 64, "duration": 831}, {"note": 0, "velocity": 0, "duration": 369}, {"note": 60, "velocity": 62, "duration": 178}, {"note": 0, "velocity": 0, "duration": 62}, {"note": 62, "velocity": 59, "duration": 169}, {"note": 0, "velocity": 0, "duration": 71}, {"note": 64, "velocity": 60, "duration": 188}, {"note": 62, "velocity": 63, "duration": 489}, {"note": 64, "velocity": 60, "duration": 234}, {"note": 0, "velocity": 0, "duration": 271}, {"note": 57, "velocity": 60, "duration": 1304}, {"note": 0, "velocity": 0, "duration": 856}, {"note": 60, "velocity": 69, "duration": 158}, {"note": 0, "velocity": 0, "duration": 82}, {"note": 62, "velocity": 55, "duration": 121}, {"note": 0, "velocity": 0, "duration": 119}, {"note": 64, "velocity": 56, "duration": 178}, {"note": 0, "velocity": 0, "duration": 62}, {"note": 62, "velocity": 57, "duration": 572}, {"note": 0, "velocity": 0, "duration": 148}, {"note": 57, "velocity": 60, "duration": 138}, {"note": 0, "velocity": 0, "duration": 102}, {"note": 60, "velocity": 59, "duration": 137}, {"note": 0, "velocity": 0, "duration": 103}, {"note": 64, "velocity": 60, "duration": 183}, {"note": 62, "velocity": 59, "duration": 143}, {"note": 0, "velocity": 0, "duration": 97}, {"note": 64, "velocity": 59, "duration": 153}, {"note": 0, "velocity": 0, "duration": 87}, {"note": 62, "velocity": 60, "duration": 600}, {"note": 0, "velocity": 0, "duration": 600}, {"note": 69, "velocity": 59, "duration": 186}, {"note": 67, "velocity": 58, "duration": 146}, {"note": 0, "velocity": 0, "duration": 94}, {"note": 67, "velocity": 59, "duration": 127}, {"note": 0, "velocity": 0, "duration": 113}, {"note": 67, "velocity": 59, "duration": 127}, {"note": 0, "velocity": 0, "duration": 113}, {"note": 67, "velocity": 60, "duration": 334}, {"note": 0, "velocity": 0, "duration": 146}, {"note": 67, "velocity": 56, "duration": 152}, {"note": 0, "velocity": 0, "duration": 88}, {"note": 64, "velocity": 63, "duration": 331}, {"note": 0, "velocity": 0, "duration": 149}, {"note": 62, "velocity": 59, "duration": 947}, {"note": 0, "velocity": 0, "duration": 253}, {"note": 64, "velocity": 63, "duration": 152}, {"note": 0, "velocity": 0, "duration": 88}, {"note": 67, "velocity": 62, "duration": 121}, {"note": 0, "velocity": 0, "duration": 119}, {"note": 69, "velocity": 64, "duration": 400}, {"note": 0, "velocity": 0, "duration": 80}, {"note": 64, "velocity": 63, "duration": 140}, {"note": 0, "velocity": 0, "duration": 100}, {"note": 67, "velocity": 60, "duration": 538}, {"note": 0, "velocity": 0, "duration": 182}, {"note": 64, "velocity": 63, "duration": 163}, {"note": 0, "velocity": 0, "duration": 77}, {"note": 67, "velocity": 60, "duration": 142}, {"note": 0, "velocity": 0, "duration": 98}, {"note": 69, "velocity": 60, "duration": 371}, {"note": 0, "velocity": 0, "duration": 109}, {"note": 69, "velocity": 58, "duration": 163}, {"note": 0, "velocity": 0, "duration": 77}, {"note": 67, "velocity": 60, "duration": 972}, {"note": 0, "velocity": 0, "duration": 228}, {"note": 60, "velocity": 60, "duration": 133}, {"note": 0, "velocity": 0, "duration": 107}, {"note": 62, "velocity": 57, "duration": 164}, {"note": 0, "velocity": 0, "duration": 76}, {"note": 64, "velocity": 59, "duration": 198}, {"note": 62, "velocity": 60, "duration": 359}, {"note": 0, "velocity": 0, "duration": 121}, {"note": 64, "velocity": 60, "duration": 366}, {"note": 0, "velocity": 0, "duration": 114}, {"note": 57, "velocity": 58, "duration": 1288}, {"note": 0, "velocity": 0, "duration": 872}, {"note": 60, "velocity": 59, "duration": 189}, {"note": 62, "velocity": 53, "duration": 121}, {"note": 0, "velocity": 0, "duration": 119}, {"note": 64, "velocity": 58, "duration": 162}, {"note": 0, "velocity": 0, "duration": 78}, {"note": 62, "velocity": 59, "duration": 579}, {"note": 0, "velocity": 0, "duration": 141}, {"note": 57, "velocity": 58, "duration": 163}, {"note": 0, "velocity": 0, "duration": 77}, {"note": 60, "velocity": 59, "duration": 143}, {"note": 0, "velocity": 0, "duration": 97}, {"note": 64, "velocity": 61, "duration": 168}, {"note": 0, "velocity": 0, "duration": 72}, {"note": 62, "velocity": 54, "duration": 146}, {"note": 0, "velocity": 0, "duration": 94}, {"note": 64, "velocity": 59, "duration": 146}, {"note": 0, "velocity": 0, "duration": 94}, {"note": 62, "velocity": 60, "duration": 579}, {"note": 0, "velocity": 0, "duration": 621}, {"note": 69, "velocity": 60, "duration": 203}, {"note": 67, "velocity": 54, "duration": 117}, {"note": 0, "velocity": 0, "duration": 123}, {"note": 67, "velocity": 58, "duration": 128}, {"note": 0, "velocity": 0, "duration": 112}, {"note": 67, "velocity": 59, "duration": 139}, {"note": 0, "velocity": 0, "duration": 101}, {"note": 67, "velocity": 64, "duration": 314}, {"note": 0, "velocity": 0, "duration": 166}, {"note": 67, "velocity": 59, "duration": 245}, {"note": 64, "velocity": 61, "duration": 158}, {"note": 0, "velocity": 0, "duration": 82}, {"note": 69, "velocity": 60, "duration": 149}, {"note": 0, "velocity": 0, "duration": 91}, {"note": 71, "velocity": 59, "duration": 136}, {"note": 0, "velocity": 0, "duration": 104}, {"note": 69, "velocity": 53, "duration": 155}, {"note": 0, "velocity": 0, "duration": 85}, {"note": 67, "velocity": 61, "duration": 518}, {"note": 0, "velocity": 0, "duration": 202}, {"note": 67, "velocity": 63, "duration": 137}, {"note": 0, "velocity": 0, "duration": 103}, {"note": 69, "velocity": 63, "duration": 152}, {"note": 0, "velocity": 0, "duration": 88}, {"note": 72, "velocity": 63, "duration": 374}, {"note": 0, "velocity": 0, "duration": 106}, {"note": 72, "velocity": 62, "duration": 133}, {"note": 0, "velocity": 0, "duration": 107}, {"note": 69, "velocity": 63, "duration": 126}, {"note": 0, "velocity": 0, "duration": 114}, {"note": 67, "velocity": 59, "duration": 330}, {"note": 0, "velocity": 0, "duration": 150}, {"note": 67, "velocity": 59, "duration": 158}, {"note": 0, "velocity": 0, "duration": 82}, {"note": 69, "velocity": 59, "duration": 138}, {"note": 0, "velocity": 0, "duration": 102}, {"note": 72, "velocity": 61, "duration": 143}, {"note": 0, "velocity": 0, "duration": 97}, {"note": 74, "velocity": 62, "duration": 149}, {"note": 0, "velocity": 0, "duration": 91}, {"note": 72, "velocity": 62, "duration": 143}, {"note": 0, "velocity": 0, "duration": 97}, {"note": 69, "velocity": 61, "duration": 148}, {"note": 0, "velocity": 0, "duration": 92}, {"note": 67, "velocity": 60, "duration": 328}, {"note": 0, "velocity": 0, "duration": 152}, {"note": 67, "velocity": 59, "duration": 152}, {"note": 0, "velocity": 0, "duration": 88}, {"note": 69, "velocity": 59, "duration": 204}, {"note": 67, "velocity": 62, "duration": 365}, {"note": 0, "velocity": 0, "duration": 115}, {"note": 62, "velocity": 59, "duration": 191}, {"note": 64, "velocity": 55, "duration": 193}, {"note": 62, "velocity": 61, "duration": 1984}, {"note": 0, "velocity": 0, "duration": 416}, {"note": 62, "velocity": 60, "duration": 158}, {"note": 0, "velocity": 0, "duration": 82}, {"note": 64, "velocity": 59, "duration": 170}, {"note": 0, "velocity": 0, "duration": 70}, {"note": 67, "velocity": 58, "duration": 310}, {"note": 0, "velocity": 0, "duration": 170}, {"note": 67, "velocity": 54, "duration": 153}, {"note": 0, "velocity": 0, "duration": 87}, {"note": 64, "velocity": 60, "duration": 144}, {"note": 0, "velocity": 0, "duration": 96}, {"note": 62, "velocity": 58, "duration": 341}, {"note": 0, "velocity": 0, "duration": 139}, {"note": 62, "velocity": 60, "duration": 186}, {"note": 64, "velocity": 64, "duration": 132}, {"note": 0, "velocity": 0, "duration": 108}, {"note": 67, "velocity": 60, "duration": 118}, {"note": 0, "velocity": 0, "duration": 122}, {"note": 69, "velocity": 60, "duration": 132}, {"note": 0, "velocity": 0, "duration": 108}, {"note": 67, "velocity": 59, "duration": 122}, {"note": 0, "velocity": 0, "duration": 118}, {"note": 64, "velocity": 61, "duration": 137}, {"note": 0, "velocity": 0, "duration": 103}, {"note": 62, "velocity": 59, "duration": 339}, {"note": 0, "velocity": 0, "duration": 141}, {"note": 62, "velocity": 58, "duration": 152}, {"note": 0, "velocity": 0, "duration": 88}, {"note": 55, "velocity": 61, "duration": 153}, {"note": 0, "velocity": 0, "duration": 87}, {"note": 57, "velocity": 60, "duration": 558}, {"note": 0, "velocity": 0, "duration": 162}, {"note": 64, "velocity": 64, "duration": 2270}, {"note": 0, "velocity": 0, "duration": 370}, {"note": 67, "velocity": 63, "duration": 137}, {"note": 0, "velocity": 0, "duration": 103}, {"note": 69, "velocity": 63, "duration": 152}, {"note": 0, "velocity": 0, "duration": 88}, {"note": 72, "velocity": 63, "duration": 374}, {"note": 0, "velocity": 0, "duration": 106}, {"note": 72, "velocity": 62, "duration": 133}, {"note": 0, "velocity": 0, "duration": 107}, {"note": 69, "velocity": 63, "duration": 126}, {"note": 0, "velocity": 0, "duration": 114}, {"note": 67, "velocity": 59, "duration": 330}, {"note": 0, "velocity": 0, "duration": 150}, {"note": 67, "velocity": 59, "duration": 158}, {"note": 0, "velocity": 0, "duration": 82}, {"note": 69, "velocity": 59, "duration": 138}, {"note": 0, "velocity": 0, "duration": 102}, {"note": 72, "velocity": 61, "duration": 143}, {"note": 0, "velocity": 0, "duration": 97}, {"note": 74, "velocity": 62, "duration": 149}, {"note": 0, "velocity": 0, "duration": 91}, {"note": 72, "velocity": 62, "duration": 143}, {"note": 0, "velocity": 0, "duration": 97}, {"note": 69, "velocity": 61, "duration": 148}, {"note": 0, "velocity": 0, "duration": 92}, {"note": 67, "velocity": 60, "duration": 328}, {"note": 0, "velocity": 0, "duration": 152}, {"note": 67, "velocity": 59, "duration": 152}, {"note": 0, "velocity": 0, "duration": 88}, {"note": 69, "velocity": 59, "duration": 204}, {"note": 67, "velocity": 62, "duration": 365}, {"note": 0, "velocity": 0, "duration": 115}, {"note": 62, "velocity": 59, "duration": 191}, {"note": 64, "velocity": 55, "duration": 193}, {"note": 62, "velocity": 61, "duration": 1984}, {"note": 0, "velocity": 0, "duration": 416}, {"note": 62, "velocity": 60, "duration": 158}, {"note": 0, "velocity": 0, "duration": 82}, {"note": 64, "velocity": 59, "duration": 170}, {"note": 0, "velocity": 0, "duration": 70}, {"note": 67, "velocity": 58, "duration": 310}, {"note": 0, "velocity": 0, "duration": 170}, {"note": 67, "velocity": 54, "duration": 153}, {"note": 0, "velocity": 0, "duration": 87}, {"note": 64, "velocity": 60, "duration": 144}, {"note": 0, "velocity": 0, "duration": 96}, {"note": 62, "velocity": 58, "duration": 341}, {"note": 0, "velocity": 0, "duration": 139}, {"note": 62, "velocity": 60, "duration": 186}, {"note": 64, "velocity": 64, "duration": 132}, {"note": 0, "velocity": 0, "duration": 108}, {"note": 67, "velocity": 60, "duration": 118}, {"note": 0, "velocity": 0, "duration": 122}, {"note": 69, "velocity": 60, "duration": 132}, {"note": 0, "velocity": 0, "duration": 108}, {"note": 67, "velocity": 59, "duration": 122}, {"note": 0, "velocity": 0, "duration": 118}, {"note": 64, "velocity": 61, "duration": 137}, {"note": 0, "velocity": 0, "duration": 103}, {"note": 62, "velocity": 59, "duration": 240}, {"note": 62, "velocity": 59, "duration": 240}, {"note": 62, "velocity": 58, "duration": 240}, {"note": 64, "velocity": 58, "duration": 240}, {"note": 62, "velocity": 60, "duration": 558}, {"note": 0, "velocity": 0, "duration": 162}, {"note": 60, "velocity": 64, "duration": 2270}, {"note": 0, "velocity": 0, "duration": 15730}, {"note": 64, "velocity": 63, "duration": 163}, {"note": 0, "velocity": 0, "duration": 77}, {"note": 67, "velocity": 58, "duration": 162}, {"note": 0, "velocity": 0, "duration": 78}, {"note": 69, "velocity": 60, "duration": 351}, {"note": 0, "velocity": 0, "duration": 129}, {"note": 64, "velocity": 65, "duration": 162}, {"note": 0, "velocity": 0, "duration": 78}, {"note": 67, "velocity": 64, "duration": 552}, {"note": 0, "velocity": 0, "duration": 168}, {"note": 64, "velocity": 67, "duration": 121}, {"note": 0, "velocity": 0, "duration": 119}, {"note": 67, "velocity": 58, "duration": 137}, {"note": 0, "velocity": 0, "duration": 103}, {"note": 69, "velocity": 60, "duration": 165}, {"note": 0, "velocity": 0, "duration": 68}, {"note": 69, "velocity": 63, "duration": 175}, {"note": 0, "velocity": 0, "duration": 312}, {"note": 67, "velocity": 64, "duration": 831}, {"note": 0, "velocity": 0, "duration": 369}, {"note": 60, "velocity": 62, "duration": 178}, {"note": 0, "velocity": 0, "duration": 62}, {"note": 62, "velocity": 59, "duration": 169}, {"note": 0, "velocity": 0, "duration": 71}, {"note": 64, "velocity": 60, "duration": 188}, {"note": 62, "velocity": 63, "duration": 473}, {"note": 64, "velocity": 60, "duration": 234}, {"note": 0, "velocity": 0, "duration": 258}, {"note": 57, "velocity": 60, "duration": 1304}, {"note": 0, "velocity": 0, "duration": 856}, {"note": 60, "velocity": 69, "duration": 158}, {"note": 0, "velocity": 0, "duration": 82}, {"note": 62, "velocity": 55, "duration": 121}, {"note": 0, "velocity": 0, "duration": 119}, {"note": 64, "velocity": 56, "duration": 178}, {"note": 0, "velocity": 0, "duration": 62}, {"note": 62, "velocity": 57, "duration": 572}, {"note": 0, "velocity": 0, "duration": 148}, {"note": 57, "velocity": 60, "duration": 138}, {"note": 0, "velocity": 0, "duration": 102}, {"note": 60, "velocity": 59, "duration": 137}, {"note": 0, "velocity": 0, "duration": 103}, {"note": 64, "velocity": 60, "duration": 183}, {"note": 62, "velocity": 59, "duration": 143}, {"note": 0, "velocity": 0, "duration": 97}, {"note": 64, "velocity": 59, "duration": 153}, {"note": 0, "velocity": 0, "duration": 87}, {"note": 62, "velocity": 60, "duration": 600}, {"note": 0, "velocity": 0, "duration": 600}, {"note": 69, "velocity": 59, "duration": 186}, {"note": 67, "velocity": 58, "duration": 146}, {"note": 0, "velocity": 0, "duration": 94}, {"note": 67, "velocity": 59, "duration": 127}, {"note": 0, "velocity": 0, "duration": 113}, {"note": 67, "velocity": 59, "duration": 127}, {"note": 0, "velocity": 0, "duration": 113}, {"note": 67, "velocity": 60, "duration": 334}, {"note": 0, "velocity": 0, "duration": 146}, {"note": 67, "velocity": 56, "duration": 152}, {"note": 0, "velocity": 0, "duration": 88}, {"note": 64, "velocity": 63, "duration": 331}, {"note": 0, "velocity": 0, "duration": 149}, {"note": 62, "velocity": 59, "duration": 947}, {"note": 0, "velocity": 0, "duration": 253}, {"note": 64, "velocity": 63, "duration": 152}, {"note": 0, "velocity": 0, "duration": 88}, {"note": 67, "velocity": 62, "duration": 121}, {"note": 0, "velocity": 0, "duration": 119}, {"note": 69, "velocity": 64, "duration": 400}, {"note": 0, "velocity": 0, "duration": 80}, {"note": 64, "velocity": 63, "duration": 140}, {"note": 0, "velocity": 0, "duration": 100}, {"note": 67, "velocity": 60, "duration": 538}, {"note": 0, "velocity": 0, "duration": 182}, {"note": 64, "velocity": 63, "duration": 163}, {"note": 0, "velocity": 0, "duration": 77}, {"note": 67, "velocity": 60, "duration": 142}, {"note": 0, "velocity": 0, "duration": 98}, {"note": 69, "velocity": 60, "duration": 371}, {"note": 0, "velocity": 0, "duration": 109}, {"note": 69, "velocity": 58, "duration": 163}, {"note": 0, "velocity": 0, "duration": 77}, {"note": 67, "velocity": 60, "duration": 972}, {"note": 0, "velocity": 0, "duration": 228}, {"note": 60, "velocity": 60, "duration": 133}, {"note": 0, "velocity": 0, "duration": 107}, {"note": 62, "velocity": 57, "duration": 164}, {"note": 0, "velocity": 0, "duration": 76}, {"note": 64, "velocity": 59, "duration": 198}, {"note": 62, "velocity": 60, "duration": 359}, {"note": 0, "velocity": 0, "duration": 121}, {"note": 64, "velocity": 60, "duration": 366}, {"note": 0, "velocity": 0, "duration": 114}, {"note": 57, "velocity": 58, "duration": 1288}, {"note": 0, "velocity": 0, "duration": 872}, {"note": 60, "velocity": 59, "duration": 189}, {"note": 62, "velocity": 53, "duration": 121}, {"note": 0, "velocity": 0, "duration": 119}, {"note": 64, "velocity": 58, "duration": 162}, {"note": 0, "velocity": 0, "duration": 78}, {"note": 62, "velocity": 59, "duration": 579}, {"note": 0, "velocity": 0, "duration": 141}, {"note": 57, "velocity": 58, "duration": 163}, {"note": 0, "velocity": 0, "duration": 77}, {"note": 60, "velocity": 59, "duration": 143}, {"note": 0, "velocity": 0, "duration": 97}, {"note": 64, "velocity": 61, "duration": 168}, {"note": 0, "velocity": 0, "duration": 72}, {"note": 62, "velocity": 54, "duration": 146}, {"note": 0, "velocity": 0, "duration": 94}, {"note": 64, "velocity": 59, "duration": 146}, {"note": 0, "velocity": 0, "duration": 94}, {"note": 62, "velocity": 60, "duration": 579}, {"note": 0, "velocity": 0, "duration": 621}, {"note": 69, "velocity": 60, "duration": 203}, {"note": 67, "velocity": 54, "duration": 117}, {"note": 0, "velocity": 0, "duration": 123}, {"note": 67, "velocity": 58, "duration": 128}, {"note": 0, "velocity": 0, "duration": 112}, {"note": 67, "velocity": 59, "duration": 139}, {"note": 0, "velocity": 0, "duration": 101}, {"note": 67, "velocity": 64, "duration": 314}, {"note": 0, "velocity": 0, "duration": 166}, {"note": 67, "velocity": 59, "duration": 245}, {"note": 64, "velocity": 61, "duration": 158}, {"note": 0, "velocity": 0, "duration": 82}, {"note": 69, "velocity": 60, "duration": 149}, {"note": 0, "velocity": 0, "duration": 91}, {"note": 71, "velocity": 59, "duration": 136}, {"note": 0, "velocity": 0, "duration": 104}, {"note": 69, "velocity": 53, "duration": 155}, {"note": 0, "velocity": 0, "duration": 85}, {"note": 67, "velocity": 61, "duration": 518}, {"note": 0, "velocity": 0, "duration": 202}, {"note": 67, "velocity": 63, "duration": 137}, {"note": 0, "velocity": 0, "duration": 103}, {"note": 69, "velocity": 63, "duration": 152}, {"note": 0, "velocity": 0, "duration": 88}, {"note": 72, "velocity": 63, "duration": 374}, {"note": 0, "velocity": 0, "duration": 106}, {"note": 72, "velocity": 62, "duration": 133}, {"note": 0, "velocity": 0, "duration": 107}, {"note": 69, "velocity": 63, "duration": 126}, {"note": 0, "velocity": 0, "duration": 114}, {"note": 67, "velocity": 59, "duration": 330}, {"note": 0, "velocity": 0, "duration": 150}, {"note": 67, "velocity": 59, "duration": 158}, {"note": 0, "velocity": 0, "duration": 82}, {"note": 69, "velocity": 59, "duration": 138}, {"note": 0, "velocity": 0, "duration": 102}, {"note": 72, "velocity": 61, "duration": 143}, {"note": 0, "velocity": 0, "duration": 97}, {"note": 74, "velocity": 62, "duration": 149}, {"note": 0, "velocity": 0, "duration": 91}, {"note": 72, "velocity": 62, "duration": 143}, {"note": 0, "velocity": 0, "duration": 97}, {"note": 69, "velocity": 61, "duration": 148}, {"note": 0, "velocity": 0, "duration": 92}, {"note": 67, "velocity": 60, "duration": 328}, {"note": 0, "velocity": 0, "duration": 152}, {"note": 67, "velocity": 59, "duration": 152}, {"note": 0, "velocity": 0, "duration": 88}, {"note": 69, "velocity": 59, "duration": 204}, {"note": 67, "velocity": 62, "duration": 365}, {"note": 0, "velocity": 0, "duration": 115}, {"note": 62, "velocity": 59, "duration": 191}, {"note": 64, "velocity": 55, "duration": 193}, {"note": 62, "velocity": 61, "duration": 1984}, {"note": 0, "velocity": 0, "duration": 416}, {"note": 62, "velocity": 60, "duration": 158}, {"note": 0, "velocity": 0, "duration": 82}, {"note": 64, "velocity": 59, "duration": 170}, {"note": 0, "velocity": 0, "duration": 70}, {"note": 67, "velocity": 58, "duration": 310}, {"note": 0, "velocity": 0, "duration": 170}, {"note": 67, "velocity": 54, "duration": 153}, {"note": 0, "velocity": 0, "duration": 87}, {"note": 64, "velocity": 60, "duration": 144}, {"note": 0, "velocity": 0, "duration": 96}, {"note": 62, "velocity": 58, "duration": 341}, {"note": 0, "velocity": 0, "duration": 139}, {"note": 62, "velocity": 60, "duration": 186}, {"note": 64, "velocity": 64, "duration": 132}, {"note": 0, "velocity": 0, "duration": 108}, {"note": 67, "velocity": 60, "duration": 118}, {"note": 0, "velocity": 0, "duration": 122}, {"note": 69, "velocity": 60, "duration": 132}, {"note": 0, "velocity": 0, "duration": 108}, {"note": 67, "velocity": 59, "duration": 122}, {"note": 0, "velocity": 0, "duration": 118}, {"note": 64, "velocity": 61, "duration": 137}, {"note": 0, "velocity": 0, "duration": 103}, {"note": 62, "velocity": 59, "duration": 339}, {"note": 0, "velocity": 0, "duration": 141}, {"note": 62, "velocity": 58, "duration": 152}, {"note": 0, "velocity": 0, "duration": 88}, {"note": 55, "velocity": 61, "duration": 153}, {"note": 0, "velocity": 0, "duration": 87}, {"note": 57, "velocity": 60, "duration": 558}, {"note": 0, "velocity": 0, "duration": 162}, {"note": 64, "velocity": 64, "duration": 2270}, {"note": 0, "velocity": 0, "duration": 370}, {"note": 67, "velocity": 63, "duration": 137}, {"note": 0, "velocity": 0, "duration": 103}, {"note": 69, "velocity": 63, "duration": 152}, {"note": 0, "velocity": 0, "duration": 88}, {"note": 72, "velocity": 63, "duration": 374}, {"note": 0, "velocity": 0, "duration": 106}, {"note": 72, "velocity": 62, "duration": 133}, {"note": 0, "velocity": 0, "duration": 107}, {"note": 69, "velocity": 63, "duration": 126}, {"note": 0, "velocity": 0, "duration": 114}, {"note": 67, "velocity": 59, "duration": 330}, {"note": 0, "velocity": 0, "duration": 150}, {"note": 67, "velocity": 59, "duration": 158}, {"note": 0, "velocity": 0, "duration": 82}, {"note": 69, "velocity": 59, "duration": 138}, {"note": 0, "velocity": 0, "duration": 102}, {"note": 72, "velocity": 61, "duration": 143}, {"note": 0, "velocity": 0, "duration": 97}, {"note": 74, "velocity": 62, "duration": 149}, {"note": 0, "velocity": 0, "duration": 91}, {"note": 72, "velocity": 62, "duration": 143}, {"note": 0, "velocity": 0, "duration": 97}, {"note": 69, "velocity": 61, "duration": 148}, {"note": 0, "velocity": 0, "duration": 92}, {"note": 67, "velocity": 60, "duration": 328}, {"note": 0, "velocity": 0, "duration": 152}, {"note": 67, "velocity": 59, "duration": 152}, {"note": 0, "velocity": 0, "duration": 88}, {"note": 69, "velocity": 59, "duration": 204}, {"note": 67, "velocity": 62, "duration": 365}, {"note": 0, "velocity": 0, "duration": 115}, {"note": 62, "velocity": 59, "duration": 191}, {"note": 64, "velocity": 55, "duration": 193}, {"note": 62, "velocity": 61, "duration": 1984}, {"note": 0, "velocity": 0, "duration": 416}, {"note": 62, "velocity": 60, "duration": 158}, {"note": 0, "velocity": 0, "duration": 82}, {"note": 64, "velocity": 59, "duration": 170}, {"note": 0, "velocity": 0, "duration": 70}, {"note": 67, "velocity": 58, "duration": 310}, {"note": 0, "velocity": 0, "duration": 170}, {"note": 67, "velocity": 54, "duration": 153}, {"note": 0, "velocity": 0, "duration": 87}, {"note": 64, "velocity": 60, "duration": 144}, {"note": 0, "velocity": 0, "duration": 96}, {"note": 62, "velocity": 58, "duration": 341}, {"note": 0, "velocity": 0, "duration": 139}, {"note": 62, "velocity": 60, "duration": 186}, {"note": 64, "velocity": 64, "duration": 132}, {"note": 0, "velocity": 0, "duration": 108}, {"note": 67, "velocity": 60, "duration": 118}, {"note": 0, "velocity": 0, "duration": 122}, {"note": 69, "velocity": 60, "duration": 132}, {"note": 0, "velocity": 0, "duration": 108}, {"note": 67, "velocity": 59, "duration": 122}, {"note": 0, "velocity": 0, "duration": 118}, {"note": 64, "velocity": 61, "duration": 137}, {"note": 0, "velocity": 0, "duration": 103}, {"note": 62, "velocity": 59, "duration": 240}, {"note": 62, "velocity": 59, "duration": 240}, {"note": 62, "velocity": 58, "duration": 240}, {"note": 64, "velocity": 58, "duration": 240}, {"note": 62, "velocity": 60, "duration": 558}, {"note": 0, "velocity": 0, "duration": 162}, {"note": 60, "velocity": 64, "duration": 2270}, {"note": 0, "velocity": 0, "duration": 31090}, {"note": 67, "velocity": 63, "duration": 137}, {"note": 0, "velocity": 0, "duration": 103}, {"note": 69, "velocity": 63, "duration": 152}, {"note": 0, "velocity": 0, "duration": 88}, {"note": 72, "velocity": 63, "duration": 374}, {"note": 0, "velocity": 0, "duration": 106}, {"note": 72, "velocity": 62, "duration": 133}, {"note": 0, "velocity": 0, "duration": 107}, {"note": 69, "velocity": 63, "duration": 126}, {"note": 0, "velocity": 0, "duration": 114}, {"note": 67, "velocity": 59, "duration": 330}, {"note": 0, "velocity": 0, "duration": 150}, {"note": 67, "velocity": 59, "duration": 158}, {"note": 0, "velocity": 0, "duration": 82}, {"note": 69, "velocity": 59, "duration": 138}, {"note": 0, "velocity": 0, "duration": 102}, {"note": 72, "velocity": 61, "duration": 143}, {"note": 0, "velocity": 0, "duration": 97}, {"note": 74, "velocity": 62, "duration": 149}, {"note": 0, "velocity": 0, "duration": 91}, {"note": 72, "velocity": 62, "duration": 143}, {"note": 0, "velocity": 0, "duration": 97}, {"note": 69, "velocity": 61, "duration": 148}, {"note": 0, "velocity": 0, "duration": 92}, {"note": 67, "velocity": 60, "duration": 328}, {"note": 0, "velocity": 0, "duration": 152}, {"note": 67, "velocity": 59, "duration": 152}, {"note": 0, "velocity": 0, "duration": 88}, {"note": 69, "velocity": 59, "duration": 204}, {"note": 67, "velocity": 62, "duration": 365}, {"note": 0, "velocity": 0, "duration": 115}, {"note": 62, "velocity": 59, "duration": 191}, {"note": 64, "velocity": 55, "duration": 193}, {"note": 62, "velocity": 61, "duration": 1984}, {"note": 0, "velocity": 0, "duration": 416}, {"note": 62, "velocity": 60, "duration": 158}, {"note": 0, "velocity": 0, "duration": 82}, {"note": 64, "velocity": 59, "duration": 170}, {"note": 0, "velocity": 0, "duration": 70}, {"note": 67, "velocity": 58, "duration": 310}, {"note": 0, "velocity": 0, "duration": 170}, {"note": 67, "velocity": 54, "duration": 153}, {"note": 0, "velocity": 0, "duration": 87}, {"note": 64, "velocity": 60, "duration": 144}, {"note": 0, "velocity": 0, "duration": 96}, {"note": 62, "velocity": 58, "duration": 341}, {"note": 0, "velocity": 0, "duration": 139}, {"note": 62, "velocity": 60, "duration": 186}, {"note": 64, "velocity": 64, "duration": 132}, {"note": 0, "velocity": 0, "duration": 108}, {"note": 67, "velocity": 60, "duration": 118}, {"note": 0, "velocity": 0, "duration": 122}, {"note": 69, "velocity": 60, "duration": 132}, {"note": 0, "velocity": 0, "duration": 108}, {"note": 67, "velocity": 59, "duration": 122}, {"note": 0, "velocity": 0, "duration": 118}, {"note": 64, "velocity": 61, "duration": 137}, {"note": 0, "velocity": 0, "duration": 103}, {"note": 62, "velocity": 59, "duration": 339}, {"note": 0, "velocity": 0, "duration": 141}, {"note": 62, "velocity": 58, "duration": 152}, {"note": 0, "velocity": 0, "duration": 88}, {"note": 55, "velocity": 61, "duration": 153}, {"note": 0, "velocity": 0, "duration": 87}, {"note": 57, "velocity": 60, "duration": 558}, {"note": 0, "velocity": 0, "duration": 162}, {"note": 64, "velocity": 64, "duration": 2270}, {"note": 0, "velocity": 0, "duration": 370}, {"note": 67, "velocity": 63, "duration": 137}, {"note": 0, "velocity": 0, "duration": 103}, {"note": 69, "velocity": 63, "duration": 152}, {"note": 0, "velocity": 0, "duration": 88}, {"note": 72, "velocity": 63, "duration": 374}, {"note": 0, "velocity": 0, "duration": 106}, {"note": 72, "velocity": 62, "duration": 133}, {"note": 0, "velocity": 0, "duration": 107}, {"note": 69, "velocity": 63, "duration": 126}, {"note": 0, "velocity": 0, "duration": 114}, {"note": 67, "velocity": 59, "duration": 330}, {"note": 0, "velocity": 0, "duration": 150}, {"note": 67, "velocity": 59, "duration": 158}, {"note": 0, "velocity": 0, "duration": 82}, {"note": 69, "velocity": 59, "duration": 138}, {"note": 0, "velocity": 0, "duration": 102}, {"note": 72, "velocity": 61, "duration": 143}, {"note": 0, "velocity": 0, "duration": 97}, {"note": 74, "velocity": 62, "duration": 149}, {"note": 0, "velocity": 0, "duration": 91}, {"note": 72, "velocity": 62, "duration": 143}, {"note": 0, "velocity": 0, "duration": 97}, {"note": 69, "velocity": 61, "duration": 148}, {"note": 0, "velocity": 0, "duration": 92}, {"note": 67, "velocity": 60, "duration": 328}, {"note": 0, "velocity": 0, "duration": 152}, {"note": 67, "velocity": 59, "duration": 152}, {"note": 0, "velocity": 0, "duration": 88}, {"note": 69, "velocity": 59, "duration": 204}, {"note": 67, "velocity": 62, "duration": 365}, {"note": 0, "velocity": 0, "duration": 115}, {"note": 62, "velocity": 59, "duration": 191}, {"note": 64, "velocity": 55, "duration": 193}, {"note": 62, "velocity": 61, "duration": 1984}, {"note": 0, "velocity": 0, "duration": 416}, {"note": 62, "velocity": 60, "duration": 158}, {"note": 0, "velocity": 0, "duration": 82}, {"note": 64, "velocity": 59, "duration": 170}, {"note": 0, "velocity": 0, "duration": 70}, {"note": 67, "velocity": 58, "duration": 310}, {"note": 0, "velocity": 0, "duration": 170}, {"note": 67, "velocity": 54, "duration": 153}, {"note": 0, "velocity": 0, "duration": 87}, {"note": 64, "velocity": 60, "duration": 144}, {"note": 0, "velocity": 0, "duration": 96}, {"note": 62, "velocity": 58, "duration": 341}, {"note": 0, "velocity": 0, "duration": 139}, {"note": 62, "velocity": 60, "duration": 186}, {"note": 64, "velocity": 64, "duration": 132}, {"note": 0, "velocity": 0, "duration": 108}, {"note": 67, "velocity": 60, "duration": 118}, {"note": 0, "velocity": 0, "duration": 122}, {"note": 69, "velocity": 60, "duration": 132}, {"note": 0, "velocity": 0, "duration": 108}, {"note": 67, "velocity": 59, "duration": 122}, {"note": 0, "velocity": 0, "duration": 118}, {"note": 64, "velocity": 61, "duration": 137}, {"note": 0, "velocity": 0, "duration": 103}, {"note": 62, "velocity": 59, "duration": 240}, {"note": 62, "velocity": 59, "duration": 240}, {"note": 62, "velocity": 58, "duration": 240}, {"note": 64, "velocity": 58, "duration": 240}, {"note": 62, "velocity": 60, "duration": 558}, {"note": 0, "velocity": 0, "duration": 162}, {"note": 60, "velocity": 64, "duration": 2270}, {"note": 0, "velocity": 0, "duration": 370}, {"note": 67, "velocity": 63, "duration": 137}, {"note": 0, "velocity": 0, "duration": 103}, {"note": 69, "velocity": 63, "duration": 152}, {"note": 0, "velocity": 0, "duration": 88}, {"note": 72, "velocity": 63, "duration": 374}, {"note": 0, "velocity": 0, "duration": 106}, {"note": 72, "velocity": 62, "duration": 133}, {"note": 0, "velocity": 0, "duration": 107}, {"note": 69, "velocity": 63, "duration": 126}, {"note": 0, "velocity": 0, "duration": 114}, {"note": 67, "velocity": 59, "duration": 330}, {"note": 0, "velocity": 0, "duration": 150}, {"note": 67, "velocity": 59, "duration": 158}, {"note": 0, "velocity": 0, "duration": 82}, {"note": 69, "velocity": 59, "duration": 138}, {"note": 0, "velocity": 0, "duration": 102}, {"note": 72, "velocity": 61, "duration": 143}, {"note": 0, "velocity": 0, "duration": 97}, {"note": 74, "velocity": 62, "duration": 149}, {"note": 0, "velocity": 0, "duration": 91}, {"note": 72, "velocity": 62, "duration": 143}, {"note": 0, "velocity": 0, "duration": 97}, {"note": 69, "velocity": 61, "duration": 148}, {"note": 0, "velocity": 0, "duration": 92}, {"note": 67, "velocity": 60, "duration": 328}, {"note": 0, "velocity": 0, "duration": 152}, {"note": 67, "velocity": 59, "duration": 152}, {"note": 0, "velocity": 0, "duration": 88}, {"note": 69, "velocity": 59, "duration": 204}, {"note": 67, "velocity": 62, "duration": 365}, {"note": 0, "velocity": 0, "duration": 115}, {"note": 62, "velocity": 59, "duration": 191}, {"note": 64, "velocity": 55, "duration": 193}, {"note": 62, "velocity": 61, "duration": 1984}, {"note": 0, "velocity": 0, "duration": 416}, {"note": 62, "velocity": 60, "duration": 158}, {"note": 0, "velocity": 0, "duration": 82}, {"note": 64, "velocity": 59, "duration": 170}, {"note": 0, "velocity": 0, "duration": 70}, {"note": 67, "velocity": 58, "duration": 310}, {"note": 0, "velocity": 0, "duration": 170}, {"note": 67, "velocity": 54, "duration": 153}, {"note": 0, "velocity": 0, "duration": 87}, {"note": 64, "velocity": 60, "duration": 144}, {"note": 0, "velocity": 0, "duration": 96}, {"note": 62, "velocity": 58, "duration": 341}, {"note": 0, "velocity": 0, "duration": 139}, {"note": 62, "velocity": 60, "duration": 186}, {"note": 64, "velocity": 64, "duration": 132}, {"note": 0, "velocity": 0, "duration": 108}, {"note": 67, "velocity": 60, "duration": 118}, {"note": 0, "velocity": 0, "duration": 122}, {"note": 69, "velocity": 60, "duration": 132}, {"note": 0, "velocity": 0, "duration": 108}, {"note": 67, "velocity": 59, "duration": 122}, {"note": 0, "velocity": 0, "duration": 118}, {"note": 64, "velocity": 61, "duration": 137}, {"note": 0, "velocity": 0, "duration": 103}, {"note": 62, "velocity": 59, "duration": 339}, {"note": 0, "velocity": 0, "duration": 141}, {"note": 62, "velocity": 58, "duration": 152}, {"note": 0, "velocity": 0, "duration": 88}, {"note": 55, "velocity": 61, "duration": 153}, {"note": 0, "velocity": 0, "duration": 87}, {"note": 57, "velocity": 60, "duration": 558}, {"note": 0, "velocity": 0, "duration": 162}, {"note": 64, "velocity": 64, "duration": 2270}, {"note": 0, "velocity": 0, "duration": 370}, {"note": 67, "velocity": 63, "duration": 137}, {"note": 0, "velocity": 0, "duration": 103}, {"note": 69, "velocity": 63, "duration": 152}, {"note": 0, "velocity": 0, "duration": 88}, {"note": 72, "velocity": 63, "duration": 374}, {"note": 0, "velocity": 0, "duration": 106}, {"note": 72, "velocity": 62, "duration": 133}, {"note": 0, "velocity": 0, "duration": 107}, {"note": 69, "velocity": 63, "duration": 126}, {"note": 0, "velocity": 0, "duration": 114}, {"note": 67, "velocity": 59, "duration": 330}, {"note": 0, "velocity": 0, "duration": 150}, {"note": 67, "velocity": 59, "duration": 158}, {"note": 0, "velocity": 0, "duration": 82}, {"note": 69, "velocity": 59, "duration": 138}, {"note": 0, "velocity": 0, "duration": 102}, {"note": 72, "velocity": 61, "duration": 143}, {"note": 0, "velocity": 0, "duration": 97}, {"note": 74, "velocity": 62, "duration": 149}, {"note": 0, "velocity": 0, "duration": 91}, {"note": 72, "velocity": 62, "duration": 143}, {"note": 0, "velocity": 0, "duration": 97}, {"note": 69, "velocity": 61, "duration": 148}, {"note": 0, "velocity": 0, "duration": 92}, {"note": 67, "velocity": 60, "duration": 328}, {"note": 0, "velocity": 0, "duration": 152}, {"note": 67, "velocity": 59, "duration": 152}, {"note": 0, "velocity": 0, "duration": 88}, {"note": 69, "velocity": 59, "duration": 204}, {"note": 67, "velocity": 62, "duration": 365}, {"note": 0, "velocity": 0, "duration": 115}, {"note": 62, "velocity": 59, "duration": 191}, {"note": 64, "velocity": 55, "duration": 193}, {"note": 62, "velocity": 61, "duration": 1984}, {"note": 0, "velocity": 0, "duration": 416}, {"note": 62, "velocity": 60, "duration": 158}, {"note": 0, "velocity": 0, "duration": 82}, {"note": 64, "velocity": 59, "duration": 170}, {"note": 0, "velocity": 0, "duration": 70}, {"note": 67, "velocity": 58, "duration": 310}, {"note": 0, "velocity": 0, "duration": 170}, {"note": 67, "velocity": 54, "duration": 153}, {"note": 0, "velocity": 0, "duration": 87}, {"note": 64, "velocity": 60, "duration": 144}, {"note": 0, "velocity": 0, "duration": 96}, {"note": 62, "velocity": 58, "duration": 341}, {"note": 0, "velocity": 0, "duration": 139}, {"note": 62, "velocity": 60, "duration": 186}, {"note": 64, "velocity": 64, "duration": 132}, {"note": 0, "velocity": 0, "duration": 108}, {"note": 67, "velocity": 60, "duration": 118}, {"note": 0, "velocity": 0, "duration": 122}, {"note": 69, "velocity": 60, "duration": 132}, {"note": 0, "velocity": 0, "duration": 108}, {"note": 67, "velocity": 59, "duration": 122}, {"note": 0, "velocity": 0, "duration": 118}, {"note": 64, "velocity": 61, "duration": 137}, {"note": 0, "velocity": 0, "duration": 103}, {"note": 62, "velocity": 59, "duration": 240}, {"note": 62, "velocity": 59, "duration": 240}, {"note": 62, "velocity": 58, "duration": 240}, {"note": 64, "velocity": 58, "duration": 240}, {"note": 62, "velocity": 60, "duration": 558}, {"note": 0, "velocity": 0, "duration": 162}, {"note": 60, "velocity": 64, "duration": 2270}]]