[[{"note": 64, "velocity": 88, "duration": 145}, {"note": 0, "velocity": 0, "duration": 95}, {"note": 66, "velocity": 85, "duration": 149}, {"note": 0, "velocity": 0, "duration": 91}, {"note": 64, "velocity": 85, "duration": 135}, {"note": 0, "velocity": 0, "duration": 105}, {"note": 73, "velocity": 81, "duration": 793}, {"note": 0, "velocity": 0, "duration": 407}, {"note": 64, "velocity": 86, "duration": 151}, {"note": 0, "velocity": 0, "duration": 89}, {"note": 66, "velocity": 81, "duration": 168}, {"note": 0, "velocity": 0, "duration": 72}, {"note": 64, "velocity": 86, "duration": 155}, {"note": 0, "velocity": 0, "duration": 85}, {"note": 71, "velocity": 80, "duration": 917}, {"note": 0, "velocity": 0, "duration": 283}, {"note": 64, "velocity": 84, "duration": 140}, {"note": 0, "velocity": 0, "duration": 100}, {"note": 66, "velocity": 81, "duration": 207}, {"note": 64, "velocity": 83, "duration": 141}, {"note": 0, "velocity": 0, "duration": 99}, {"note": 69, "velocity": 81, "duration": 367}, {"note": 0, "velocity": 0, "duration": 113}, {"note": 69, "velocity": 80, "duration": 360}, {"note": 0, "velocity": 0, "duration": 120}, {"note": 71, "velocity": 79, "duration": 154}, {"note": 0, "velocity": 0, "duration": 86}, {"note": 69, "velocity": 80, "duration": 164}, {"note": 0, "velocity": 0, "duration": 76}, {"note": 66, "velocity": 81, "duration": 476}, {"note": 64, "velocity": 83, "duration": 1022}, {"note": 0, "velocity": 0, "duration": 178}, {"note": 64, "velocity": 88, "duration": 75}, {"note": 64, "velocity": 81, "duration": 87}, {"note": 66, "velocity": 86, "duration": 122}, {"note": 0, "velocity": 0, "duration": 118}, {"note": 64, "velocity": 86, "duration": 125}, {"note": 0, "velocity": 0, "duration": 115}, {"note": 76, "velocity": 79, "duration": 908}, {"note": 0, "velocity": 0, "duration": 292}, {"note": 64, "velocity": 82, "duration": 153}, {"note": 0, "velocity": 0, "duration": 87}, {"note": 66, "velocity": 81, "duration": 247}, {"note": 64, "velocity": 83, "duration": 148}, {"note": 0, "velocity": 0, "duration": 92}, {"note": 74, "velocity": 93, "duration": 1005}, {"note": 0, "velocity": 0, "duration": 195}, {"note": 64, "velocity": 90, "duration": 190}, {"note": 66, "velocity": 81, "duration": 205}, {"note": 64, "velocity": 83, "duration": 145}, {"note": 0, "velocity": 0, "duration": 95}, {"note": 73, "velocity": 81, "duration": 341}, {"note": 0, "velocity": 0, "duration": 139}, {"note": 73, "velocity": 82, "duration": 319}, {"note": 0, "velocity": 0, "duration": 161}, {"note": 73, "velocity": 82, "duration": 172}, {"note": 0, "velocity": 0, "duration": 68}, {"note": 71, "velocity": 81, "duration": 144}, {"note": 0, "velocity": 0, "duration": 96}, {"note": 69, "velocity": 81, "duration": 167}, {"note": 0, "velocity": 0, "duration": 73}, {"note": 71, "velocity": 79, "duration": 1123}, {"note": 0, "velocity": 0, "duration": 317}, {"note": 64, "velocity": 88, "duration": 145}, {"note": 0, "velocity": 0, "duration": 95}, {"note": 66, "velocity": 85, "duration": 149}, {"note": 0, "velocity": 0, "duration": 91}, {"note": 64, "velocity": 85, "duration": 135}, {"note": 0, "velocity": 0, "duration": 105}, {"note": 73, "velocity": 81, "duration": 793}, {"note": 0, "velocity": 0, "duration": 407}, {"note": 64, "velocity": 86, "duration": 151}, {"note": 0, "velocity": 0, "duration": 89}, {"note": 66, "velocity": 81, "duration": 168}, {"note": 0, "velocity": 0, "duration": 72}, {"note": 64, "velocity": 86, "duration": 155}, {"note": 0, "velocity": 0, "duration": 85}, {"note": 71, "velocity": 80, "duration": 917}, {"note": 0, "velocity": 0, "duration": 283}, {"note": 64, "velocity": 84, "duration": 140}, {"note": 0, "velocity": 0, "duration": 100}, {"note": 66, "velocity": 81, "duration": 207}, {"note": 64, "velocity": 83, "duration": 141}, {"note": 0, "velocity": 0, "duration": 99}, {"note": 69, "velocity": 81, "duration": 367}, {"note": 0, "velocity": 0, "duration": 113}, {"note": 69, "velocity": 80, "duration": 360}, {"note": 0, "velocity": 0, "duration": 120}, {"note": 71, "velocity": 79, "duration": 154}, {"note": 0, "velocity": 0, "duration": 86}, {"note": 69, "velocity": 80, "duration": 164}, {"note": 0, "velocity": 0, "duration": 76}, {"note": 66, "velocity": 81, "duration": 476}, {"note": 64, "velocity": 83, "duration": 1022}, {"note": 0, "velocity": 0, "duration": 178}, {"note": 64, "velocity": 88, "duration": 75}, {"note": 64, "velocity": 81, "duration": 87}, {"note": 66, "velocity": 86, "duration": 122}, {"note": 0, "velocity": 0, "duration": 118}, {"note": 64, "velocity": 86, "duration": 125}, {"note": 0, "velocity": 0, "duration": 115}, {"note": 76, "velocity": 79, "duration": 908}, {"note": 0, "velocity": 0, "duration": 292}, {"note": 64, "velocity": 82, "duration": 153}, {"note": 0, "velocity": 0, "duration": 87}, {"note": 66, "velocity": 81, "duration": 247}, {"note": 64, "velocity": 83, "duration": 148}, {"note": 0, "velocity": 0, "duration": 92}, {"note": 74, "velocity": 93, "duration": 1005}, {"note": 0, "velocity": 0, "duration": 915}, {"note": 73, "velocity": 81, "duration": 134}, {"note": 0, "velocity": 0, "duration": 106}, {"note": 73, "velocity": 79, "duration": 125}, {"note": 0, "velocity": 0, "duration": 115}, {"note": 73, "velocity": 76, "duration": 132}, {"note": 0, "velocity": 0, "duration": 108}, {"note": 73, "velocity": 80, "duration": 149}, {"note": 0, "velocity": 0, "duration": 91}, {"note": 73, "velocity": 83, "duration": 123}, {"note": 0, "velocity": 0, "duration": 117}, {"note": 71, "velocity": 82, "duration": 710}, {"note": 69, "velocity": 80, "duration": 1060}, {"note": 0, "velocity": 0, "duration": 860}, {"note": 78, "velocity": 82, "duration": 391}, {"note": 0, "velocity": 0, "duration": 89}, {"note": 76, "velocity": 85, "duration": 135}, {"note": 0, "velocity": 0, "duration": 105}, {"note": 74, "velocity": 83, "duration": 172}, {"note": 0, "velocity": 0, "duration": 68}, {"note": 78, "velocity": 80, "duration": 415}, {"note": 0, "velocity": 0, "duration": 65}, {"note": 76, "velocity": 86, "duration": 196}, {"note": 74, "velocity": 84, "duration": 158}, {"note": 0, "velocity": 0, "duration": 82}, {"note": 78, "velocity": 85, "duration": 122}, {"note": 0, "velocity": 0, "duration": 118}, {"note": 78, "velocity": 80, "duration": 133}, {"note": 0, "velocity": 0, "duration": 107}, {"note": 78, "velocity": 90, "duration": 113}, {"note": 0, "velocity": 0, "duration": 127}, {"note": 76, "velocity": 81, "duration": 246}, {"note": 73, "velocity": 88, "duration": 378}, {"note": 0, "velocity": 0, "duration": 102}, {"note": 76, "velocity": 85, "duration": 294}, {"note": 0, "velocity": 0, "duration": 186}, {"note": 78, "velocity": 81, "duration": 382}, {"note": 0, "velocity": 0, "duration": 98}, {"note": 76, "velocity": 84, "duration": 131}, {"note": 0, "velocity": 0, "duration": 109}, {"note": 74, "velocity": 90, "duration": 140}, {"note": 0, "velocity": 0, "duration": 100}, {"note": 78, "velocity": 83, "duration": 355}, {"note": 0, "velocity": 0, "duration": 125}, {"note": 76, "velocity": 86, "duration": 118}, {"note": 0, "velocity": 0, "duration": 122}, {"note": 74, "velocity": 90, "duration": 164}, {"note": 0, "velocity": 0, "duration": 76}, {"note": 78, "velocity": 83, "duration": 125}, {"note": 0, "velocity": 0, "duration": 115}, {"note": 78, "velocity": 90, "duration": 369}, {"note": 0, "velocity": 0, "duration": 111}, {"note": 76, "velocity": 80, "duration": 144}, {"note": 0, "velocity": 0, "duration": 96}, {"note": 73, "velocity": 82, "duration": 181}, {"note": 73, "velocity": 81, "duration": 235}, {"note": 71, "velocity": 84, "duration": 296}, {"note": 0, "velocity": 0, "duration": 184}, {"note": 71, "velocity": 78, "duration": 181}, {"note": 71, "velocity": 79, "duration": 168}, {"note": 0, "velocity": 0, "duration": 72}, {"note": 71, "velocity": 79, "duration": 164}, {"note": 0, "velocity": 0, "duration": 76}, {"note": 69, "velocity": 82, "duration": 698}, {"note": 71, "velocity": 86, "duration": 322}, {"note": 0, "velocity": 0, "duration": 158}, {"note": 73, "velocity": 85, "duration": 140}, {"note": 0, "velocity": 0, "duration": 100}, {"note": 73, "velocity": 77, "duration": 139}, {"note": 0, "velocity": 0, "duration": 101}, {"note": 73, "velocity": 82, "duration": 145}, {"note": 71, "velocity": 83, "duration": 148}, {"note": 0, "velocity": 0, "duration": 92}, {"note": 73, "velocity": 83, "duration": 84}, {"note": 0, "velocity": 0, "duration": 156}, {"note": 73, "velocity": 78, "duration": 308}, {"note": 76, "velocity": 85, "duration": 345}, {"note": 0, "velocity": 0, "duration": 135}, {"note": 78, "velocity": 83, "duration": 75}, {"note": 78, "velocity": 78, "duration": 103}, {"note": 0, "velocity": 0, "duration": 137}, {"note": 78, "velocity": 82, "duration": 75}, {"note": 78, "velocity": 79, "duration": 135}, {"note": 0, "velocity": 0, "duration": 105}, {"note": 76, "velocity": 86, "duration": 116}, {"note": 0, "velocity": 0, "duration": 124}, {"note": 78, "velocity": 88, "duration": 494}, {"note": 0, "velocity": 0, "duration": 466}, {"note": 78, "velocity": 81, "duration": 142}, {"note": 0, "velocity": 0, "duration": 98}, {"note": 78, "velocity": 75, "duration": 122}, {"note": 0, "velocity": 0, "duration": 118}, {"note": 78, "velocity": 81, "duration": 116}, {"note": 0, "velocity": 0, "duration": 124}, {"note": 78, "velocity": 75, "duration": 122}, {"note": 0, "velocity": 0, "duration": 118}, {"note": 78, "velocity": 80, "duration": 130}, {"note": 0, "velocity": 0, "duration": 110}, {"note": 73, "velocity": 83, "duration": 514}, {"note": 76, "velocity": 86, "duration": 2075}, {"note": 0, "velocity": 0, "duration": 1285}, {"note": 64, "velocity": 88, "duration": 145}, {"note": 0, "velocity": 0, "duration": 95}, {"note": 66, "velocity": 85, "duration": 149}, {"note": 0, "velocity": 0, "duration": 91}, {"note": 64, "velocity": 85, "duration": 135}, {"note": 0, "velocity": 0, "duration": 105}, {"note": 73, "velocity": 81, "duration": 793}, {"note": 0, "velocity": 0, "duration": 407}, {"note": 64, "velocity": 86, "duration": 151}, {"note": 0, "velocity": 0, "duration": 89}, {"note": 66, "velocity": 81, "duration": 168}, {"note": 0, "velocity": 0, "duration": 72}, {"note": 64, "velocity": 86, "duration": 155}, {"note": 0, "velocity": 0, "duration": 85}, {"note": 71, "velocity": 80, "duration": 917}, {"note": 0, "velocity": 0, "duration": 283}, {"note": 64, "velocity": 84, "duration": 140}, {"note": 0, "velocity": 0, "duration": 100}, {"note": 66, "velocity": 81, "duration": 207}, {"note": 64, "velocity": 83, "duration": 141}, {"note": 0, "velocity": 0, "duration": 99}, {"note": 69, "velocity": 81, "duration": 367}, {"note": 0, "velocity": 0, "duration": 113}, {"note": 69, "velocity": 80, "duration": 360}, {"note": 0, "velocity": 0, "duration": 120}, {"note": 71, "velocity": 79, "duration": 154}, {"note": 0, "velocity": 0, "duration": 86}, {"note": 69, "velocity": 80, "duration": 164}, {"note": 0, "velocity": 0, "duration": 68}, {"note": 71, "velocity": 81, "duration": 476}, {"note": 69, "velocity": 83, "duration": 1022}, {"note": 0, "velocity": 0, "duration": 15538}, {"note": 64, "velocity": 88, "duration": 145}, {"note": 0, "velocity": 0, "duration": 95}, {"note": 66, "velocity": 85, "duration": 149}, {"note": 0, "velocity": 0, "duration": 91}, {"note": 64, "velocity": 85, "duration": 135}, {"note": 0, "velocity": 0, "duration": 105}, {"note": 73, "velocity": 81, "duration": 793}, {"note": 0, "velocity": 0, "duration": 407}, {"note": 64, "velocity": 86, "duration": 151}, {"note": 0, "velocity": 0, "duration": 89}, {"note": 66, "velocity": 81, "duration": 168}, {"note": 0, "velocity": 0, "duration": 72}, {"note": 64, "velocity": 86, "duration": 155}, {"note": 0, "velocity": 0, "duration": 85}, {"note": 71, "velocity": 80, "duration": 917}, {"note": 0, "velocity": 0, "duration": 283}, {"note": 64, "velocity": 84, "duration": 140}, {"note": 0, "velocity": 0, "duration": 100}, {"note": 66, "velocity": 81, "duration": 207}, {"note": 64, "velocity": 83, "duration": 141}, {"note": 0, "velocity": 0, "duration": 99}, {"note": 69, "velocity": 81, "duration": 367}, {"note": 0, "velocity": 0, "duration": 113}, {"note": 69, "velocity": 80, "duration": 360}, {"note": 0, "velocity": 0, "duration": 120}, {"note": 71, "velocity": 79, "duration": 154}, {"note": 0, "velocity": 0, "duration": 86}, {"note": 69, "velocity": 80, "duration": 164}, {"note": 0, "velocity": 0, "duration": 76}, {"note": 66, "velocity": 81, "duration": 476}, {"note": 64, "velocity": 83, "duration": 1022}, {"note": 0, "velocity": 0, "duration": 178}, {"note": 64, "velocity": 88, "duration": 75}, {"note": 64, "velocity": 81, "duration": 87}, {"note": 66, "velocity": 86, "duration": 122}, {"note": 0, "velocity": 0, "duration": 118}, {"note": 64, "velocity": 86, "duration": 125}, {"note": 0, "velocity": 0, "duration": 115}, {"note": 76, "velocity": 79, "duration": 908}, {"note": 0, "velocity": 0, "duration": 292}, {"note": 64, "velocity": 82, "duration": 153}, {"note": 0, "velocity": 0, "duration": 87}, {"note": 66, "velocity": 81, "duration": 247}, {"note": 64, "velocity": 83, "duration": 148}, {"note": 0, "velocity": 0, "duration": 92}, {"note": 74, "velocity": 93, "duration": 1005}, {"note": 0, "velocity": 0, "duration": 195}, {"note": 64, "velocity": 90, "duration": 190}, {"note": 66, "velocity": 81, "duration": 205}, {"note": 64, "velocity": 83, "duration": 145}, {"note": 0, "velocity": 0, "duration": 95}, {"note": 73, "velocity": 81, "duration": 341}, {"note": 0, "velocity": 0, "duration": 139}, {"note": 73, "velocity": 82, "duration": 319}, {"note": 0, "velocity": 0, "duration": 161}, {"note": 73, "velocity": 82, "duration": 172}, {"note": 0, "velocity": 0, "duration": 68}, {"note": 71, "velocity": 81, "duration": 144}, {"note": 0, "velocity": 0, "duration": 96}, {"note": 69, "velocity": 81, "duration": 167}, {"note": 0, "velocity": 0, "duration": 73}, {"note": 71, "velocity": 79, "duration": 1123}, {"note": 0, "velocity": 0, "duration": 317}, {"note": 64, "velocity": 88, "duration": 145}, {"note": 0, "velocity": 0, "duration": 95}, {"note": 66, "velocity": 85, "duration": 149}, {"note": 0, "velocity": 0, "duration": 91}, {"note": 64, "velocity": 85, "duration": 135}, {"note": 0, "velocity": 0, "duration": 105}, {"note": 73, "velocity": 81, "duration": 793}, {"note": 0, "velocity": 0, "duration": 407}, {"note": 64, "velocity": 86, "duration": 151}, {"note": 0, "velocity": 0, "duration": 89}, {"note": 66, "velocity": 81, "duration": 168}, {"note": 0, "velocity": 0, "duration": 72}, {"note": 64, "velocity": 86, "duration": 155}, {"note": 0, "velocity": 0, "duration": 85}, {"note": 71, "velocity": 80, "duration": 917}, {"note": 0, "velocity": 0, "duration": 283}, {"note": 64, "velocity": 84, "duration": 140}, {"note": 0, "velocity": 0, "duration": 100}, {"note": 66, "velocity": 81, "duration": 207}, {"note": 64, "velocity": 83, "duration": 141}, {"note": 0, "velocity": 0, "duration": 99}, {"note": 69, "velocity": 81, "duration": 367}, {"note": 0, "velocity": 0, "duration": 113}, {"note": 69, "velocity": 80, "duration": 360}, {"note": 0, "velocity": 0, "duration": 120}, {"note": 71, "velocity": 79, "duration": 154}, {"note": 0, "velocity": 0, "duration": 86}, {"note": 69, "velocity": 80, "duration": 164}, {"note": 0, "velocity": 0, "duration": 76}, {"note": 66, "velocity": 81, "duration": 476}, {"note": 64, "velocity": 83, "duration": 1022}, {"note": 0, "velocity": 0, "duration": 178}, {"note": 64, "velocity": 88, "duration": 75}, {"note": 64, "velocity": 81, "duration": 87}, {"note": 66, "velocity": 86, "duration": 122}, {"note": 0, "velocity": 0, "duration": 118}, {"note": 64, "velocity": 86, "duration": 125}, {"note": 0, "velocity": 0, "duration": 115}, {"note": 76, "velocity": 79, "duration": 908}, {"note": 0, "velocity": 0, "duration": 292}, {"note": 64, "velocity": 82, "duration": 153}, {"note": 0, "velocity": 0, "duration": 87}, {"note": 66, "velocity": 81, "duration": 247}, {"note": 64, "velocity": 83, "duration": 148}, {"note": 0, "velocity": 0, "duration": 92}, {"note": 74, "velocity": 93, "duration": 1005}, {"note": 0, "velocity": 0, "duration": 915}, {"note": 73, "velocity": 81, "duration": 134}, {"note": 0, "velocity": 0, "duration": 106}, {"note": 73, "velocity": 79, "duration": 125}, {"note": 0, "velocity": 0, "duration": 115}, {"note": 73, "velocity": 76, "duration": 132}, {"note": 0, "velocity": 0, "duration": 108}, {"note": 73, "velocity": 80, "duration": 149}, {"note": 0, "velocity": 0, "duration": 91}, {"note": 73, "velocity": 83, "duration": 123}, {"note": 0, "velocity": 0, "duration": 117}, {"note": 71, "velocity": 82, "duration": 710}, {"note": 69, "velocity": 80, "duration": 1060}, {"note": 0, "velocity": 0, "duration": 860}, {"note": 78, "velocity": 82, "duration": 391}, {"note": 0, "velocity": 0, "duration": 89}, {"note": 76, "velocity": 85, "duration": 135}, {"note": 0, "velocity": 0, "duration": 105}, {"note": 74, "velocity": 83, "duration": 172}, {"note": 0, "velocity": 0, "duration": 68}, {"note": 78, "velocity": 80, "duration": 415}, {"note": 0, "velocity": 0, "duration": 65}, {"note": 76, "velocity": 86, "duration": 196}, {"note": 74, "velocity": 84, "duration": 158}, {"note": 0, "velocity": 0, "duration": 82}, {"note": 78, "velocity": 85, "duration": 122}, {"note": 0, "velocity": 0, "duration": 118}, {"note": 78, "velocity": 80, "duration": 133}, {"note": 0, "velocity": 0, "duration": 107}, {"note": 78, "velocity": 90, "duration": 113}, {"note": 0, "velocity": 0, "duration": 127}, {"note": 76, "velocity": 81, "duration": 246}, {"note": 73, "velocity": 88, "duration": 378}, {"note": 0, "velocity": 0, "duration": 102}, {"note": 76, "velocity": 85, "duration": 294}, {"note": 0, "velocity": 0, "duration": 186}, {"note": 78, "velocity": 81, "duration": 382}, {"note": 0, "velocity": 0, "duration": 98}, {"note": 76, "velocity": 84, "duration": 131}, {"note": 0, "velocity": 0, "duration": 109}, {"note": 74, "velocity": 90, "duration": 140}, {"note": 0, "velocity": 0, "duration": 100}, {"note": 78, "velocity": 83, "duration": 355}, {"note": 0, "velocity": 0, "duration": 125}, {"note": 76, "velocity": 86, "duration": 118}, {"note": 0, "velocity": 0, "duration": 122}, {"note": 74, "velocity": 90, "duration": 164}, {"note": 0, "velocity": 0, "duration": 76}, {"note": 78, "velocity": 83, "duration": 125}, {"note": 0, "velocity": 0, "duration": 115}, {"note": 78, "velocity": 90, "duration": 369}, {"note": 0, "velocity": 0, "duration": 111}, {"note": 76, "velocity": 80, "duration": 144}, {"note": 0, "velocity": 0, "duration": 96}, {"note": 73, "velocity": 82, "duration": 181}, {"note": 73, "velocity": 81, "duration": 235}, {"note": 71, "velocity": 84, "duration": 296}, {"note": 0, "velocity": 0, "duration": 184}, {"note": 71, "velocity": 78, "duration": 181}, {"note": 71, "velocity": 79, "duration": 168}, {"note": 0, "velocity": 0, "duration": 72}, {"note": 71, "velocity": 79, "duration": 164}, {"note": 0, "velocity": 0, "duration": 76}, {"note": 69, "velocity": 82, "duration": 698}, {"note": 71, "velocity": 86, "duration": 322}, {"note": 0, "velocity": 0, "duration": 158}, {"note": 73, "velocity": 85, "duration": 140}, {"note": 0, "velocity": 0, "duration": 100}, {"note": 73, "velocity": 77, "duration": 139}, {"note": 0, "velocity": 0, "duration": 101}, {"note": 73, "velocity": 82, "duration": 145}, {"note": 71, "velocity": 83, "duration": 148}, {"note": 0, "velocity": 0, "duration": 92}, {"note": 73, "velocity": 83, "duration": 84}, {"note": 0, "velocity": 0, "duration": 156}, {"note": 73, "velocity": 78, "duration": 308}, {"note": 76, "velocity": 85, "duration": 345}, {"note": 0, "velocity": 0, "duration": 135}, {"note": 78, "velocity": 83, "duration": 75}, {"note": 78, "velocity": 78, "duration": 103}, {"note": 0, "velocity": 0, "duration": 137}, {"note": 78, "velocity": 82, "duration": 75}, {"note": 78, "velocity": 79, "duration": 135}, {"note": 0, "velocity": 0, "duration": 105}, {"note": 76, "velocity": 86, "duration": 116}, {"note": 0, "velocity": 0, "duration": 124}, {"note": 78, "velocity": 88, "duration": 494}, {"note": 0, "velocity": 0, "duration": 466}, {"note": 78, "velocity": 81, "duration": 142}, {"note": 0, "velocity": 0, "duration": 98}, {"note": 78, "velocity": 75, "duration": 122}, {"note": 0, "velocity": 0, "duration": 118}, {"note": 78, "velocity": 81, "duration": 116}, {"note": 0, "velocity": 0, "duration": 124}, {"note": 78, "velocity": 75, "duration": 122}, {"note": 0, "velocity": 0, "duration": 118}, {"note": 78, "velocity": 80, "duration": 130}, {"note": 0, "velocity": 0, "duration": 110}, {"note": 73, "velocity": 83, "duration": 514}, {"note": 76, "velocity": 86, "duration": 2075}, {"note": 0, "velocity": 0, "duration": 1285}, {"note": 64, "velocity": 88, "duration": 145}, {"note": 0, "velocity": 0, "duration": 95}, {"note": 66, "velocity": 85, "duration": 149}, {"note": 0, "velocity": 0, "duration": 91}, {"note": 64, "velocity": 85, "duration": 135}, {"note": 0, "velocity": 0, "duration": 105}, {"note": 73, "velocity": 81, "duration": 793}, {"note": 0, "velocity": 0, "duration": 407}, {"note": 64, "velocity": 86, "duration": 151}, {"note": 0, "velocity": 0, "duration": 89}, {"note": 66, "velocity": 81, "duration": 168}, {"note": 0, "velocity": 0, "duration": 72}, {"note": 64, "velocity": 86, "duration": 155}, {"note": 0, "velocity": 0, "duration": 85}, {"note": 71, "velocity": 80, "duration": 917}, {"note": 0, "velocity": 0, "duration": 283}, {"note": 64, "velocity": 84, "duration": 140}, {"note": 0, "velocity": 0, "duration": 100}, {"note": 66, "velocity": 81, "duration": 207}, {"note": 64, "velocity": 83, "duration": 141}, {"note": 0, "velocity": 0, "duration": 99}, {"note": 69, "velocity": 81, "duration": 367}, {"note": 0, "velocity": 0, "duration": 113}, {"note": 69, "velocity": 80, "duration": 360}, {"note": 0, "velocity": 0, "duration": 120}, {"note": 71, "velocity": 79, "duration": 154}, {"note": 0, "velocity": 0, "duration": 86}, {"note": 69, "velocity": 80, "duration": 164}, {"note": 0, "velocity": 0, "duration": 76}, {"note": 66, "velocity": 81, "duration": 476}, {"note": 64, "velocity": 83, "duration": 1022}, {"note": 0, "velocity": 0, "duration": 178}, {"note": 64, "velocity": 88, "duration": 75}, {"note": 64, "velocity": 81, "duration": 87}, {"note": 66, "velocity": 86, "duration": 122}, {"note": 0, "velocity": 0, "duration": 118}, {"note": 64, "velocity": 86, "duration": 125}, {"note": 0, "velocity": 0, "duration": 115}, {"note": 76, "velocity": 79, "duration": 908}, {"note": 0, "velocity": 0, "duration": 292}, {"note": 64, "velocity": 82, "duration": 153}, {"note": 0, "velocity": 0, "duration": 87}, {"note": 66, "velocity": 81, "duration": 247}, {"note": 64, "velocity": 83, "duration": 148}, {"note": 0, "velocity": 0, "duration": 92}, {"note": 74, "velocity": 93, "duration": 1005}, {"note": 0, "velocity": 0, "duration": 195}, {"note": 64, "velocity": 90, "duration": 190}, {"note": 66, "velocity": 81, "duration": 205}, {"note": 64, "velocity": 83, "duration": 145}, {"note": 0, "velocity": 0, "duration": 95}, {"note": 73, "velocity": 81, "duration": 341}, {"note": 0, "velocity": 0, "duration": 139}, {"note": 73, "velocity": 82, "duration": 319}, {"note": 0, "velocity": 0, "duration": 161}, {"note": 73, "velocity": 82, "duration": 172}, {"note": 0, "velocity": 0, "duration": 68}, {"note": 71, "velocity": 81, "duration": 144}, {"note": 0, "velocity": 0, "duration": 96}, {"note": 69, "velocity": 81, "duration": 167}, {"note": 0, "velocity": 0, "duration": 73}, {"note": 71, "velocity": 79, "duration": 1123}, {"note": 0, "velocity": 0, "duration": 317}, {"note": 64, "velocity": 88, "duration": 145}, {"note": 0, "velocity": 0, "duration": 95}, {"note": 66, "velocity": 85, "duration": 149}, {"note": 0, "velocity": 0, "duration": 91}, {"note": 64, "velocity": 85, "duration": 135}, {"note": 0, "velocity": 0, "duration": 105}, {"note": 73, "velocity": 81, "duration": 793}, {"note": 0, "velocity": 0, "duration": 407}, {"note": 64, "velocity": 86, "duration": 151}, {"note": 0, "velocity": 0, "duration": 89}, {"note": 66, "velocity": 81, "duration": 168}, {"note": 0, "velocity": 0, "duration": 72}, {"note": 64, "velocity": 86, "duration": 155}, {"note": 0, "velocity": 0, "duration": 85}, {"note": 71, "velocity": 80, "duration": 917}, {"note": 0, "velocity": 0, "duration": 283}, {"note": 64, "velocity": 84, "duration": 140}, {"note": 0, "velocity": 0, "duration": 100}, {"note": 66, "velocity": 81, "duration": 207}, {"note": 64, "velocity": 83, "duration": 141}, {"note": 0, "velocity": 0, "duration": 99}, {"note": 69, "velocity": 81, "duration": 367}, {"note": 0, "velocity": 0, "duration": 113}, {"note": 69, "velocity": 80, "duration": 360}, {"note": 0, "velocity": 0, "duration": 120}, {"note": 71, "velocity": 79, "duration": 154}, {"note": 0, "velocity": 0, "duration": 86}, {"note": 69, "velocity": 80, "duration": 164}, {"note": 0, "velocity": 0, "duration": 76}, {"note": 66, "velocity": 81, "duration": 476}, {"note": 64, "velocity": 83, "duration": 1022}, {"note": 0, "velocity": 0, "duration": 178}, {"note": 64, "velocity": 88, "duration": 75}, {"note": 64, "velocity": 81, "duration": 87}, {"note": 66, "velocity": 86, "duration": 122}, {"note": 0, "velocity": 0, "duration": 118}, {"note": 64, "velocity": 86, "duration": 125}, {"note": 0, "velocity": 0, "duration": 115}, {"note": 76, "velocity": 79, "duration": 908}, {"note": 0, "velocity": 0, "duration": 292}, {"note": 64, "velocity": 82, "duration": 153}, {"note": 0, "velocity": 0, "duration": 87}, {"note": 66, "velocity": 81, "duration": 247}, {"note": 64, "velocity": 83, "duration": 148}, {"note": 0, "velocity": 0, "duration": 92}, {"note": 74, "velocity": 93, "duration": 1005}, {"note": 0, "velocity": 0, "duration": 915}, {"note": 73, "velocity": 81, "duration": 134}, {"note": 0, "velocity": 0, "duration": 106}, {"note": 73, "velocity": 79, "duration": 125}, {"note": 0, "velocity": 0, "duration": 115}, {"note": 73, "velocity": 76, "duration": 132}, {"note": 0, "velocity": 0, "duration": 108}, {"note": 73, "velocity": 80, "duration": 149}, {"note": 0, "velocity": 0, "duration": 91}, {"note": 73, "velocity": 83, "duration": 123}, {"note": 0, "velocity": 0, "duration": 117}, {"note": 71, "velocity": 82, "duration": 710}, {"note": 69, "velocity": 80, "duration": 1060}, {"note": 0, "velocity": 0, "duration": 16220}, {"note": 78, "velocity": 82, "duration": 391}, {"note": 0, "velocity": 0, "duration": 89}, {"note": 76, "velocity": 85, "duration": 135}, {"note": 0, "velocity": 0, "duration": 105}, {"note": 74, "velocity": 83, "duration": 172}, {"note": 0, "velocity": 0, "duration": 68}, {"note": 78, "velocity": 80, "duration": 415}, {"note": 0, "velocity": 0, "duration": 65}, {"note": 76, "velocity": 86, "duration": 196}, {"note": 74, "velocity": 84, "duration": 158}, {"note": 0, "velocity": 0, "duration": 82}, {"note": 78, "velocity": 85, "duration": 122}, {"note": 0, "velocity": 0, "duration": 118}, {"note": 78, "velocity": 80, "duration": 133}, {"note": 0, "velocity": 0, "duration": 107}, {"note": 78, "velocity": 90, "duration": 113}, {"note": 0, "velocity": 0, "duration": 127}, {"note": 76, "velocity": 81, "duration": 246}, {"note": 73, "velocity": 88, "duration": 378}, {"note": 0, "velocity": 0, "duration": 102}, {"note": 76, "velocity": 85, "duration": 294}, {"note": 0, "velocity": 0, "duration": 186}, {"note": 78, "velocity": 81, "duration": 382}, {"note": 0, "velocity": 0, "duration": 98}, {"note": 76, "velocity": 84, "duration": 131}, {"note": 0, "velocity": 0, "duration": 109}, {"note": 74, "velocity": 90, "duration": 140}, {"note": 0, "velocity": 0, "duration": 100}, {"note": 78, "velocity": 83, "duration": 355}, {"note": 0, "velocity": 0, "duration": 125}, {"note": 76, "velocity": 86, "duration": 118}, {"note": 0, "velocity": 0, "duration": 122}, {"note": 74, "velocity": 90, "duration": 164}, {"note": 0, "velocity": 0, "duration": 76}, {"note": 78, "velocity": 83, "duration": 125}, {"note": 0, "velocity": 0, "duration": 115}, {"note": 78, "velocity": 90, "duration": 369}, {"note": 0, "velocity": 0, "duration": 111}, {"note": 76, "velocity": 80, "duration": 144}, {"note": 0, "velocity": 0, "duration": 96}, {"note": 73, "velocity": 82, "duration": 181}, {"note": 73, "velocity": 81, "duration": 235}, {"note": 71, "velocity": 84, "duration": 296}, {"note": 0, "velocity": 0, "duration": 184}, {"note": 71, "velocity": 78, "duration": 181}, {"note": 71, "velocity": 79, "duration": 168}, {"note": 0, "velocity": 0, "duration": 72}, {"note": 71, "velocity": 79, "duration": 164}, {"note": 0, "velocity": 0, "duration": 76}, {"note": 69, "velocity": 82, "duration": 698}, {"note": 71, "velocity": 86, "duration": 322}, {"note": 0, "velocity": 0, "duration": 158}, {"note": 73, "velocity": 85, "duration": 140}, {"note": 0, "velocity": 0, "duration": 100}, {"note": 73, "velocity": 77, "duration": 139}, {"note": 0, "velocity": 0, "duration": 101}, {"note": 73, "velocity": 82, "duration": 145}, {"note": 71, "velocity": 83, "duration": 148}, {"note": 0, "velocity": 0, "duration": 92}, {"note": 73, "velocity": 83, "duration": 84}, {"note": 0, "velocity": 0, "duration": 156}, {"note": 73, "velocity": 78, "duration": 308}, {"note": 76, "velocity": 85, "duration": 345}, {"note": 0, "velocity": 0, "duration": 135}, {"note": 78, "velocity": 83, "duration": 75}, {"note": 78, "velocity": 78, "duration": 103}, {"note": 0, "velocity": 0, "duration": 137}, {"note": 78, "velocity": 82, "duration": 75}, {"note": 78, "velocity": 79, "duration": 135}, {"note": 0, "velocity": 0, "duration": 105}, {"note": 76, "velocity": 86, "duration": 116}, {"note": 0, "velocity": 0, "duration": 124}, {"note": 78, "velocity": 88, "duration": 494}, {"note": 0, "velocity": 0, "duration": 466}, {"note": 78, "velocity": 81, "duration": 142}, {"note": 0, "velocity": 0, "duration": 98}, {"note": 78, "velocity": 75, "duration": 122}, {"note": 0, "velocity": 0, "duration": 118}, {"note": 78, "velocity": 81, "duration": 116}, {"note": 0, "velocity": 0, "duration": 124}, {"note": 78, "velocity": 75, "duration": 122}, {"note": 0, "velocity": 0, "duration": 118}, {"note": 78, "velocity": 80, "duration": 130}, {"note": 0, "velocity": 0, "duration": 110}, {"note": 73, "velocity": 83, "duration": 514}, {"note": 76, "velocity": 86, "duration": 2075}, {"note": 0, "velocity": 0, "duration": 1285}, {"note": 64, "velocity": 88, "duration": 145}, {"note": 0, "velocity": 0, "duration": 95}, {"note": 66, "velocity": 85, "duration": 149}, {"note": 0, "velocity": 0, "duration": 91}, {"note": 64, "velocity": 85, "duration": 135}, {"note": 0, "velocity": 0, "duration": 105}, {"note": 73, "velocity": 81, "duration": 793}, {"note": 0, "velocity": 0, "duration": 407}, {"note": 64, "velocity": 86, "duration": 151}, {"note": 0, "velocity": 0, "duration": 89}, {"note": 66, "velocity": 81, "duration": 168}, {"note": 0, "velocity": 0, "duration": 72}, {"note": 64, "velocity": 86, "duration": 155}, {"note": 0, "velocity": 0, "duration": 85}, {"note": 71, "velocity": 80, "duration": 917}, {"note": 0, "velocity": 0, "duration": 283}, {"note": 64, "velocity": 84, "duration": 140}, {"note": 0, "velocity": 0, "duration": 100}, {"note": 66, "velocity": 81, "duration": 207}, {"note": 64, "velocity": 83, "duration": 141}, {"note": 0, "velocity": 0, "duration": 99}, {"note": 69, "velocity": 81, "duration": 367}, {"note": 0, "velocity": 0, "duration": 113}, {"note": 69, "velocity": 80, "duration": 360}, {"note": 0, "velocity": 0, "duration": 120}, {"note": 71, "velocity": 79, "duration": 154}, {"note": 0, "velocity": 0, "duration": 86}, {"note": 69, "velocity": 80, "duration": 164}, {"note": 0, "velocity": 0, "duration": 68}, {"note": 71, "velocity": 81, "duration": 476}, {"note": 69, "velocity": 83, "duration": 1022}]]