[[{"note": 71, "velocity": 85, "duration": 88}, {"note": 73, "velocity": 89, "duration": 84}, {"note": 75, "velocity": 86, "duration": 849}, {"note": 0, "velocity": 0, "duration": 111}, {"note": 73, "velocity": 93, "duration": 279}, {"note": 0, "velocity": 0, "duration": 81}, {"note": 71, "velocity": 84, "duration": 315}, {"note": 70, "velocity": 87, "duration": 214}, {"note": 71, "velocity": 80, "duration": 845}, {"note": 0, "velocity": 0, "duration": 955}, {"note": 66, "velocity": 75, "duration": 77}, {"note": 71, "velocity": 84, "duration": 142}, {"note": 0, "velocity": 0, "duration": 98}, {"note": 71, "velocity": 80, "duration": 112}, {"note": 0, "velocity": 0, "duration": 128}, {"note": 71, "velocity": 83, "duration": 136}, {"note": 0, "velocity": 0, "duration": 104}, {"note": 71, "velocity": 83, "duration": 119}, {"note": 70, "velocity": 84, "duration": 161}, {"note": 0, "velocity": 0, "duration": 151}, {"note": 70, "velocity": 83, "duration": 182}, {"note": 68, "velocity": 86, "duration": 240}, {"note": 68, "velocity": 84, "duration": 480}, {"note": 66, "velocity": 78, "duration": 762}, {"note": 0, "velocity": 0, "duration": 678}, {"note": 71, "velocity": 86, "duration": 83}, {"note": 73, "velocity": 88, "duration": 67}, {"note": 75, "velocity": 86, "duration": 845}, {"note": 0, "velocity": 0, "duration": 115}, {"note": 73, "velocity": 84, "duration": 304}, {"note": 71, "velocity": 83, "duration": 308}, {"note": 70, "velocity": 83, "duration": 198}, {"note": 71, "velocity": 82, "duration": 1320}, {"note": 0, "velocity": 0, "duration": 360}, {"note": 78, "velocity": 85, "duration": 67}, {"note": 75, "velocity": 89, "duration": 57}, {"note": 0, "velocity": 0, "duration": 63}, {"note": 73, "velocity": 91, "duration": 209}, {"note": 71, "velocity": 86, "duration": 596}, {"note": 0, "velocity": 0, "duration": 124}, {"note": 73, "velocity": 84, "duration": 145}, {"note": 0, "velocity": 0, "duration": 95}, {"note": 73, "velocity": 83, "duration": 155}, {"note": 0, "velocity": 0, "duration": 85}, {"note": 73, "velocity": 82, "duration": 166}, {"note": 0, "velocity": 0, "duration": 74}, {"note": 75, "velocity": 83, "duration": 451}, {"note": 71, "velocity": 83, "duration": 840}, {"note": 0, "velocity": 0, "duration": 120}, {"note": 71, "velocity": 88, "duration": 179}, {"note": 0, "velocity": 0, "duration": 61}, {"note": 75, "velocity": 89, "duration": 168}, {"note": 0, "velocity": 0, "duration": 72}, {"note": 78, "velocity": 88, "duration": 151}, {"note": 0, "velocity": 0, "duration": 89}, {"note": 80, "velocity": 84, "duration": 623}, {"note": 0, "velocity": 0, "duration": 97}, {"note": 80, "velocity": 84, "duration": 172}, {"note": 0, "velocity": 0, "duration": 68}, {"note": 78, "velocity": 82, "duration": 191}, {"note": 73, "velocity": 87, "duration": 158}, {"note": 0, "velocity": 0, "duration": 82}, {"note": 73, "velocity": 89, "duration": 181}, {"note": 76, "velocity": 83, "duration": 172}, {"note": 0, "velocity": 0, "duration": 68}, {"note": 75, "velocity": 85, "duration": 1138}, {"note": 0, "velocity": 0, "duration": 62}, {"note": 71, "velocity": 85, "duration": 168}, {"note": 0, "velocity": 0, "duration": 72}, {"note": 75, "velocity": 88, "duration": 175}, {"note": 0, "velocity": 0, "duration": 65}, {"note": 78, "velocity": 85, "duration": 168}, {"note": 0, "velocity": 0, "duration": 72}, {"note": 78, "velocity": 86, "duration": 195}, {"note": 78, "velocity": 87, "duration": 195}, {"note": 76, "velocity": 84, "duration": 59}, {"note": 0, "velocity": 0, "duration": 61}, {"note": 76, "velocity": 83, "duration": 249}, {"note": 0, "velocity": 0, "duration": 111}, {"note": 75, "velocity": 83, "duration": 171}, {"note": 0, "velocity": 0, "duration": 69}, {"note": 76, "velocity": 84, "duration": 188}, {"note": 75, "velocity": 89, "duration": 165}, {"note": 0, "velocity": 0, "duration": 75}, {"note": 73, "velocity": 89, "duration": 151}, {"note": 0, "velocity": 0, "duration": 89}, {"note": 71, "velocity": 91, "duration": 373}, {"note": 0, "velocity": 0, "duration": 107}, {"note": 75, "velocity": 96, "duration": 703}, {"note": 0, "velocity": 0, "duration": 257}, {"note": 71, "velocity": 88, "duration": 189}, {"note": 75, "velocity": 87, "duration": 145}, {"note": 0, "velocity": 0, "duration": 95}, {"note": 78, "velocity": 86, "duration": 167}, {"note": 0, "velocity": 0, "duration": 73}, {"note": 80, "velocity": 83, "duration": 600}, {"note": 0, "velocity": 0, "duration": 120}, {"note": 80, "velocity": 87, "duration": 210}, {"note": 82, "velocity": 86, "duration": 214}, {"note": 80, "velocity": 87, "duration": 228}, {"note": 82, "velocity": 84, "duration": 193}, {"note": 83, "velocity": 87, "duration": 153}, {"note": 0, "velocity": 0, "duration": 87}, {"note": 83, "velocity": 87, "duration": 241}, {"note": 78, "velocity": 79, "duration": 175}, {"note": 0, "velocity": 0, "duration": 73}, {"note": 78, "velocity": 83, "duration": 178}, {"note": 0, "velocity": 0, "duration": 62}, {"note": 75, "velocity": 86, "duration": 243}, {"note": 71, "velocity": 83, "duration": 545}, {"note": 0, "velocity": 0, "duration": 175}, {"note": 71, "velocity": 87, "duration": 168}, {"note": 0, "velocity": 0, "duration": 72}, {"note": 80, "velocity": 88, "duration": 177}, {"note": 0, "velocity": 0, "duration": 63}, {"note": 78, "velocity": 83, "duration": 64}, {"note": 78, "velocity": 84, "duration": 232}, {"note": 0, "velocity": 0, "duration": 128}, {"note": 78, "velocity": 83, "duration": 141}, {"note": 0, "velocity": 0, "duration": 99}, {"note": 78, "velocity": 86, "duration": 247}, {"note": 0, "velocity": 0, "duration": 112}, {"note": 75, "velocity": 83, "duration": 141}, {"note": 0, "velocity": 0, "duration": 220}, {"note": 75, "velocity": 86, "duration": 389}, {"note": 0, "velocity": 0, "duration": 91}, {"note": 73, "velocity": 89, "duration": 1047}, {"note": 0, "velocity": 0, "duration": 153}, {"note": 78, "velocity": 86, "duration": 204}, {"note": 75, "velocity": 83, "duration": 169}, {"note": 0, "velocity": 0, "duration": 71}, {"note": 73, "velocity": 87, "duration": 134}, {"note": 0, "velocity": 0, "duration": 106}, {"note": 71, "velocity": 86, "duration": 478}, {"note": 75, "velocity": 84, "duration": 667}, {"note": 78, "velocity": 85, "duration": 187}, {"note": 75, "velocity": 86, "duration": 167}, {"note": 0, "velocity": 0, "duration": 73}, {"note": 73, "velocity": 84, "duration": 195}, {"note": 71, "velocity": 83, "duration": 421}, {"note": 73, "velocity": 88, "duration": 360}, {"note": 0, "velocity": 0, "duration": 120}, {"note": 73, "velocity": 84, "duration": 151}, {"note": 0, "velocity": 0, "duration": 89}, {"note": 73, "velocity": 86, "duration": 165}, {"note": 0, "velocity": 0, "duration": 75}, {"note": 75, "velocity": 82, "duration": 175}, {"note": 0, "velocity": 0, "duration": 65}, {"note": 73, "velocity": 84, "duration": 169}, {"note": 0, "velocity": 0, "duration": 71}, {"note": 71, "velocity": 83, "duration": 116}, {"note": 0, "velocity": 0, "duration": 124}, {"note": 71, "velocity": 84, "duration": 165}, {"note": 0, "velocity": 0, "duration": 75}, {"note": 83, "velocity": 87, "duration": 171}, {"note": 0, "velocity": 0, "duration": 69}, {"note": 83, "velocity": 84, "duration": 165}, {"note": 0, "velocity": 0, "duration": 75}, {"note": 82, "velocity": 86, "duration": 173}, {"note": 0, "velocity": 0, "duration": 67}, {"note": 80, "velocity": 83, "duration": 164}, {"note": 0, "velocity": 0, "duration": 76}, {"note": 78, "velocity": 83, "duration": 822}, {"note": 0, "velocity": 0, "duration": 138}, {"note": 71, "velocity": 84, "duration": 161}, {"note": 0, "velocity": 0, "duration": 79}, {"note": 71, "velocity": 86, "duration": 210}, {"note": 70, "velocity": 82, "duration": 175}, {"note": 0, "velocity": 0, "duration": 65}, {"note": 71, "velocity": 86, "duration": 171}, {"note": 0, "velocity": 0, "duration": 69}, {"note": 80, "velocity": 83, "duration": 147}, {"note": 0, "velocity": 0, "duration": 93}, {"note": 80, "velocity": 82, "duration": 514}, {"note": 0, "velocity": 0, "duration": 206}, {"note": 80, "velocity": 84, "duration": 143}, {"note": 0, "velocity": 0, "duration": 97}, {"note": 80, "velocity": 84, "duration": 165}, {"note": 0, "velocity": 0, "duration": 75}, {"note": 78, "velocity": 82, "duration": 185}, {"note": 75, "velocity": 85, "duration": 175}, {"note": 0, "velocity": 0, "duration": 65}, {"note": 78, "velocity": 83, "duration": 168}, {"note": 0, "velocity": 0, "duration": 72}, {"note": 78, "velocity": 82, "duration": 543}, {"note": 0, "velocity": 0, "duration": 177}, {"note": 75, "velocity": 86, "duration": 155}, {"note": 0, "velocity": 0, "duration": 85}, {"note": 75, "velocity": 88, "duration": 179}, {"note": 0, "velocity": 0, "duration": 61}, {"note": 76, "velocity": 85, "duration": 179}, {"note": 0, "velocity": 0, "duration": 61}, {"note": 78, "velocity": 83, "duration": 129}, {"note": 0, "velocity": 0, "duration": 111}, {"note": 75, "velocity": 88, "duration": 436}, {"note": 71, "velocity": 86, "duration": 144}, {"note": 0, "velocity": 0, "duration": 96}, {"note": 80, "velocity": 82, "duration": 151}, {"note": 0, "velocity": 0, "duration": 89}, {"note": 78, "velocity": 86, "duration": 369}, {"note": 0, "velocity": 0, "duration": 111}, {"note": 75, "velocity": 84, "duration": 153}, {"note": 0, "velocity": 0, "duration": 87}, {"note": 75, "velocity": 87, "duration": 172}, {"note": 0, "velocity": 0, "duration": 68}, {"note": 73, "velocity": 84, "duration": 1414}, {"note": 0, "velocity": 0, "duration": 266}, {"note": 78, "velocity": 86, "duration": 204}, {"note": 75, "velocity": 83, "duration": 169}, {"note": 0, "velocity": 0, "duration": 71}, {"note": 73, "velocity": 87, "duration": 134}, {"note": 0, "velocity": 0, "duration": 106}, {"note": 71, "velocity": 86, "duration": 478}, {"note": 75, "velocity": 84, "duration": 667}, {"note": 78, "velocity": 85, "duration": 187}, {"note": 75, "velocity": 86, "duration": 167}, {"note": 0, "velocity": 0, "duration": 73}, {"note": 73, "velocity": 84, "duration": 195}, {"note": 71, "velocity": 83, "duration": 421}, {"note": 73, "velocity": 88, "duration": 360}, {"note": 0, "velocity": 0, "duration": 120}, {"note": 73, "velocity": 84, "duration": 151}, {"note": 0, "velocity": 0, "duration": 89}, {"note": 73, "velocity": 86, "duration": 165}, {"note": 0, "velocity": 0, "duration": 75}, {"note": 75, "velocity": 82, "duration": 175}, {"note": 0, "velocity": 0, "duration": 65}, {"note": 73, "velocity": 84, "duration": 169}, {"note": 0, "velocity": 0, "duration": 71}, {"note": 71, "velocity": 83, "duration": 116}, {"note": 0, "velocity": 0, "duration": 124}, {"note": 71, "velocity": 84, "duration": 165}, {"note": 0, "velocity": 0, "duration": 75}, {"note": 83, "velocity": 87, "duration": 171}, {"note": 0, "velocity": 0, "duration": 69}, {"note": 83, "velocity": 84, "duration": 165}, {"note": 0, "velocity": 0, "duration": 75}, {"note": 82, "velocity": 86, "duration": 173}, {"note": 0, "velocity": 0, "duration": 67}, {"note": 80, "velocity": 83, "duration": 164}, {"note": 0, "velocity": 0, "duration": 76}, {"note": 78, "velocity": 83, "duration": 822}, {"note": 0, "velocity": 0, "duration": 138}, {"note": 71, "velocity": 84, "duration": 161}, {"note": 0, "velocity": 0, "duration": 79}, {"note": 71, "velocity": 86, "duration": 210}, {"note": 70, "velocity": 82, "duration": 175}, {"note": 0, "velocity": 0, "duration": 65}, {"note": 71, "velocity": 86, "duration": 171}, {"note": 0, "velocity": 0, "duration": 69}, {"note": 80, "velocity": 83, "duration": 147}, {"note": 0, "velocity": 0, "duration": 93}, {"note": 80, "velocity": 82, "duration": 514}, {"note": 0, "velocity": 0, "duration": 206}, {"note": 80, "velocity": 84, "duration": 143}, {"note": 0, "velocity": 0, "duration": 97}, {"note": 80, "velocity": 84, "duration": 165}, {"note": 0, "velocity": 0, "duration": 75}, {"note": 78, "velocity": 82, "duration": 185}, {"note": 75, "velocity": 85, "duration": 175}, {"note": 0, "velocity": 0, "duration": 65}, {"note": 78, "velocity": 83, "duration": 168}, {"note": 0, "velocity": 0, "duration": 72}, {"note": 78, "velocity": 82, "duration": 543}, {"note": 0, "velocity": 0, "duration": 177}, {"note": 75, "velocity": 86, "duration": 155}, {"note": 0, "velocity": 0, "duration": 85}, {"note": 75, "velocity": 88, "duration": 179}, {"note": 0, "velocity": 0, "duration": 61}, {"note": 76, "velocity": 85, "duration": 179}, {"note": 0, "velocity": 0, "duration": 61}, {"note": 78, "velocity": 83, "duration": 129}, {"note": 0, "velocity": 0, "duration": 111}, {"note": 75, "velocity": 88, "duration": 436}, {"note": 71, "velocity": 86, "duration": 144}, {"note": 0, "velocity": 0, "duration": 96}, {"note": 80, "velocity": 82, "duration": 151}, {"note": 0, "velocity": 0, "duration": 89}, {"note": 78, "velocity": 86, "duration": 369}, {"note": 0, "velocity": 0, "duration": 111}, {"note": 75, "velocity": 84, "duration": 153}, {"note": 0, "velocity": 0, "duration": 87}, {"note": 73, "velocity": 87, "duration": 172}, {"note": 0, "velocity": 0, "duration": 68}, {"note": 73, "velocity": 84, "duration": 1414}, {"note": 0, "velocity": 0, "duration": 266}, {"note": 71, "velocity": 84, "duration": 187}, {"note": 71, "velocity": 85, "duration": 2055}, {"note": 0, "velocity": 0, "duration": 13305}, {"note": 71, "velocity": 85, "duration": 88}, {"note": 73, "velocity": 89, "duration": 84}, {"note": 75, "velocity": 86, "duration": 849}, {"note": 0, "velocity": 0, "duration": 111}, {"note": 73, "velocity": 93, "duration": 279}, {"note": 0, "velocity": 0, "duration": 81}, {"note": 71, "velocity": 84, "duration": 315}, {"note": 70, "velocity": 87, "duration": 214}, {"note": 71, "velocity": 80, "duration": 845}, {"note": 0, "velocity": 0, "duration": 955}, {"note": 66, "velocity": 75, "duration": 77}, {"note": 71, "velocity": 84, "duration": 142}, {"note": 0, "velocity": 0, "duration": 98}, {"note": 71, "velocity": 80, "duration": 112}, {"note": 0, "velocity": 0, "duration": 128}, {"note": 71, "velocity": 83, "duration": 136}, {"note": 0, "velocity": 0, "duration": 104}, {"note": 71, "velocity": 83, "duration": 119}, {"note": 70, "velocity": 84, "duration": 161}, {"note": 0, "velocity": 0, "duration": 187}, {"note": 70, "velocity": 83, "duration": 182}, {"note": 68, "velocity": 86, "duration": 240}, {"note": 70, "velocity": 84, "duration": 480}, {"note": 66, "velocity": 78, "duration": 762}, {"note": 0, "velocity": 0, "duration": 678}, {"note": 71, "velocity": 86, "duration": 83}, {"note": 73, "velocity": 88, "duration": 67}, {"note": 75, "velocity": 86, "duration": 845}, {"note": 0, "velocity": 0, "duration": 115}, {"note": 78, "velocity": 84, "duration": 304}, {"note": 73, "velocity": 83, "duration": 308}, {"note": 75, "velocity": 83, "duration": 386}, {"note": 0, "velocity": 0, "duration": 83}, {"note": 73, "velocity": 84, "duration": 135}, {"note": 71, "velocity": 82, "duration": 956}, {"note": 0, "velocity": 0, "duration": 360}, {"note": 78, "velocity": 85, "duration": 67}, {"note": 75, "velocity": 89, "duration": 57}, {"note": 0, "velocity": 0, "duration": 63}, {"note": 73, "velocity": 91, "duration": 209}, {"note": 71, "velocity": 86, "duration": 596}, {"note": 0, "velocity": 0, "duration": 124}, {"note": 73, "velocity": 84, "duration": 145}, {"note": 0, "velocity": 0, "duration": 95}, {"note": 73, "velocity": 83, "duration": 155}, {"note": 0, "velocity": 0, "duration": 85}, {"note": 73, "velocity": 82, "duration": 166}, {"note": 0, "velocity": 0, "duration": 74}, {"note": 75, "velocity": 83, "duration": 451}, {"note": 71, "velocity": 83, "duration": 840}, {"note": 0, "velocity": 0, "duration": 120}, {"note": 71, "velocity": 88, "duration": 179}, {"note": 0, "velocity": 0, "duration": 61}, {"note": 75, "velocity": 89, "duration": 168}, {"note": 0, "velocity": 0, "duration": 72}, {"note": 78, "velocity": 88, "duration": 151}, {"note": 0, "velocity": 0, "duration": 89}, {"note": 80, "velocity": 84, "duration": 623}, {"note": 0, "velocity": 0, "duration": 97}, {"note": 80, "velocity": 84, "duration": 172}, {"note": 0, "velocity": 0, "duration": 68}, {"note": 78, "velocity": 82, "duration": 191}, {"note": 73, "velocity": 87, "duration": 158}, {"note": 0, "velocity": 0, "duration": 82}, {"note": 73, "velocity": 89, "duration": 181}, {"note": 76, "velocity": 83, "duration": 172}, {"note": 0, "velocity": 0, "duration": 68}, {"note": 75, "velocity": 85, "duration": 1138}, {"note": 0, "velocity": 0, "duration": 62}, {"note": 71, "velocity": 85, "duration": 168}, {"note": 0, "velocity": 0, "duration": 72}, {"note": 75, "velocity": 88, "duration": 175}, {"note": 0, "velocity": 0, "duration": 65}, {"note": 78, "velocity": 85, "duration": 168}, {"note": 0, "velocity": 0, "duration": 72}, {"note": 78, "velocity": 86, "duration": 195}, {"note": 78, "velocity": 87, "duration": 195}, {"note": 76, "velocity": 84, "duration": 59}, {"note": 0, "velocity": 0, "duration": 61}, {"note": 76, "velocity": 83, "duration": 249}, {"note": 0, "velocity": 0, "duration": 111}, {"note": 75, "velocity": 83, "duration": 171}, {"note": 0, "velocity": 0, "duration": 69}, {"note": 76, "velocity": 84, "duration": 188}, {"note": 75, "velocity": 89, "duration": 165}, {"note": 0, "velocity": 0, "duration": 75}, {"note": 73, "velocity": 89, "duration": 151}, {"note": 0, "velocity": 0, "duration": 89}, {"note": 71, "velocity": 91, "duration": 373}, {"note": 0, "velocity": 0, "duration": 107}, {"note": 75, "velocity": 96, "duration": 703}, {"note": 0, "velocity": 0, "duration": 257}, {"note": 71, "velocity": 88, "duration": 189}, {"note": 75, "velocity": 87, "duration": 145}, {"note": 0, "velocity": 0, "duration": 95}, {"note": 78, "velocity": 86, "duration": 167}, {"note": 0, "velocity": 0, "duration": 73}, {"note": 80, "velocity": 83, "duration": 600}, {"note": 0, "velocity": 0, "duration": 120}, {"note": 80, "velocity": 87, "duration": 210}, {"note": 82, "velocity": 86, "duration": 214}, {"note": 80, "velocity": 87, "duration": 228}, {"note": 82, "velocity": 84, "duration": 193}, {"note": 83, "velocity": 87, "duration": 153}, {"note": 0, "velocity": 0, "duration": 87}, {"note": 83, "velocity": 87, "duration": 157}, {"note": 0, "velocity": 0, "duration": 128}, {"note": 78, "velocity": 80, "duration": 186}, {"note": 78, "velocity": 83, "duration": 178}, {"note": 0, "velocity": 0, "duration": 62}, {"note": 75, "velocity": 86, "duration": 243}, {"note": 71, "velocity": 83, "duration": 545}, {"note": 0, "velocity": 0, "duration": 175}, {"note": 71, "velocity": 87, "duration": 168}, {"note": 0, "velocity": 0, "duration": 72}, {"note": 80, "velocity": 88, "duration": 177}, {"note": 0, "velocity": 0, "duration": 63}, {"note": 78, "velocity": 83, "duration": 64}, {"note": 78, "velocity": 84, "duration": 232}, {"note": 0, "velocity": 0, "duration": 128}, {"note": 78, "velocity": 83, "duration": 141}, {"note": 0, "velocity": 0, "duration": 99}, {"note": 78, "velocity": 86, "duration": 307}, {"note": 75, "velocity": 83, "duration": 141}, {"note": 0, "velocity": 0, "duration": 223}, {"note": 75, "velocity": 86, "duration": 389}, {"note": 0, "velocity": 0, "duration": 91}, {"note": 73, "velocity": 89, "duration": 1047}, {"note": 0, "velocity": 0, "duration": 153}, {"note": 78, "velocity": 86, "duration": 204}, {"note": 75, "velocity": 83, "duration": 169}, {"note": 0, "velocity": 0, "duration": 71}, {"note": 73, "velocity": 87, "duration": 134}, {"note": 0, "velocity": 0, "duration": 106}, {"note": 71, "velocity": 86, "duration": 478}, {"note": 75, "velocity": 84, "duration": 667}, {"note": 78, "velocity": 85, "duration": 187}, {"note": 75, "velocity": 86, "duration": 167}, {"note": 0, "velocity": 0, "duration": 73}, {"note": 73, "velocity": 84, "duration": 195}, {"note": 71, "velocity": 83, "duration": 421}, {"note": 73, "velocity": 88, "duration": 360}, {"note": 0, "velocity": 0, "duration": 120}, {"note": 73, "velocity": 84, "duration": 151}, {"note": 0, "velocity": 0, "duration": 89}, {"note": 73, "velocity": 86, "duration": 165}, {"note": 0, "velocity": 0, "duration": 75}, {"note": 75, "velocity": 82, "duration": 175}, {"note": 0, "velocity": 0, "duration": 65}, {"note": 73, "velocity": 84, "duration": 169}, {"note": 0, "velocity": 0, "duration": 71}, {"note": 71, "velocity": 83, "duration": 116}, {"note": 0, "velocity": 0, "duration": 124}, {"note": 71, "velocity": 84, "duration": 165}, {"note": 0, "velocity": 0, "duration": 75}, {"note": 83, "velocity": 87, "duration": 171}, {"note": 0, "velocity": 0, "duration": 69}, {"note": 83, "velocity": 84, "duration": 165}, {"note": 0, "velocity": 0, "duration": 75}, {"note": 82, "velocity": 86, "duration": 173}, {"note": 0, "velocity": 0, "duration": 67}, {"note": 80, "velocity": 83, "duration": 164}, {"note": 0, "velocity": 0, "duration": 76}, {"note": 78, "velocity": 83, "duration": 822}, {"note": 0, "velocity": 0, "duration": 138}, {"note": 71, "velocity": 84, "duration": 161}, {"note": 0, "velocity": 0, "duration": 79}, {"note": 71, "velocity": 86, "duration": 210}, {"note": 70, "velocity": 82, "duration": 175}, {"note": 0, "velocity": 0, "duration": 65}, {"note": 71, "velocity": 86, "duration": 171}, {"note": 0, "velocity": 0, "duration": 69}, {"note": 80, "velocity": 83, "duration": 147}, {"note": 0, "velocity": 0, "duration": 93}, {"note": 80, "velocity": 82, "duration": 514}, {"note": 0, "velocity": 0, "duration": 206}, {"note": 80, "velocity": 84, "duration": 143}, {"note": 0, "velocity": 0, "duration": 97}, {"note": 80, "velocity": 84, "duration": 165}, {"note": 0, "velocity": 0, "duration": 75}, {"note": 78, "velocity": 82, "duration": 185}, {"note": 75, "velocity": 85, "duration": 175}, {"note": 0, "velocity": 0, "duration": 65}, {"note": 78, "velocity": 83, "duration": 168}, {"note": 0, "velocity": 0, "duration": 72}, {"note": 78, "velocity": 82, "duration": 543}, {"note": 0, "velocity": 0, "duration": 177}, {"note": 75, "velocity": 86, "duration": 155}, {"note": 0, "velocity": 0, "duration": 85}, {"note": 75, "velocity": 88, "duration": 179}, {"note": 0, "velocity": 0, "duration": 61}, {"note": 76, "velocity": 85, "duration": 179}, {"note": 0, "velocity": 0, "duration": 61}, {"note": 78, "velocity": 83, "duration": 129}, {"note": 0, "velocity": 0, "duration": 111}, {"note": 75, "velocity": 88, "duration": 436}, {"note": 71, "velocity": 86, "duration": 144}, {"note": 0, "velocity": 0, "duration": 96}, {"note": 80, "velocity": 82, "duration": 151}, {"note": 0, "velocity": 0, "duration": 89}, {"note": 78, "velocity": 86, "duration": 369}, {"note": 0, "velocity": 0, "duration": 111}, {"note": 75, "velocity": 84, "duration": 153}, {"note": 0, "velocity": 0, "duration": 87}, {"note": 75, "velocity": 87, "duration": 172}, {"note": 0, "velocity": 0, "duration": 68}, {"note": 73, "velocity": 84, "duration": 1414}, {"note": 0, "velocity": 0, "duration": 266}, {"note": 78, "velocity": 86, "duration": 204}, {"note": 75, "velocity": 83, "duration": 169}, {"note": 0, "velocity": 0, "duration": 71}, {"note": 73, "velocity": 87, "duration": 134}, {"note": 0, "velocity": 0, "duration": 106}, {"note": 71, "velocity": 86, "duration": 478}, {"note": 75, "velocity": 84, "duration": 667}, {"note": 78, "velocity": 85, "duration": 187}, {"note": 75, "velocity": 86, "duration": 167}, {"note": 0, "velocity": 0, "duration": 73}, {"note": 73, "velocity": 84, "duration": 195}, {"note": 71, "velocity": 83, "duration": 421}, {"note": 73, "velocity": 88, "duration": 360}, {"note": 0, "velocity": 0, "duration": 120}, {"note": 73, "velocity": 84, "duration": 151}, {"note": 0, "velocity": 0, "duration": 89}, {"note": 73, "velocity": 86, "duration": 165}, {"note": 0, "velocity": 0, "duration": 75}, {"note": 75, "velocity": 82, "duration": 175}, {"note": 0, "velocity": 0, "duration": 65}, {"note": 73, "velocity": 84, "duration": 169}, {"note": 0, "velocity": 0, "duration": 71}, {"note": 71, "velocity": 83, "duration": 116}, {"note": 0, "velocity": 0, "duration": 124}, {"note": 71, "velocity": 84, "duration": 165}, {"note": 0, "velocity": 0, "duration": 75}, {"note": 83, "velocity": 87, "duration": 171}, {"note": 0, "velocity": 0, "duration": 69}, {"note": 83, "velocity": 84, "duration": 165}, {"note": 0, "velocity": 0, "duration": 75}, {"note": 82, "velocity": 86, "duration": 173}, {"note": 0, "velocity": 0, "duration": 67}, {"note": 80, "velocity": 83, "duration": 164}, {"note": 0, "velocity": 0, "duration": 76}, {"note": 78, "velocity": 83, "duration": 822}, {"note": 0, "velocity": 0, "duration": 138}, {"note": 71, "velocity": 84, "duration": 161}, {"note": 0, "velocity": 0, "duration": 79}, {"note": 71, "velocity": 86, "duration": 210}, {"note": 70, "velocity": 82, "duration": 175}, {"note": 0, "velocity": 0, "duration": 65}, {"note": 71, "velocity": 86, "duration": 171}, {"note": 0, "velocity": 0, "duration": 69}, {"note": 80, "velocity": 83, "duration": 147}, {"note": 0, "velocity": 0, "duration": 93}, {"note": 80, "velocity": 82, "duration": 514}, {"note": 0, "velocity": 0, "duration": 206}, {"note": 80, "velocity": 84, "duration": 143}, {"note": 0, "velocity": 0, "duration": 97}, {"note": 80, "velocity": 84, "duration": 165}, {"note": 0, "velocity": 0, "duration": 75}, {"note": 78, "velocity": 82, "duration": 185}, {"note": 75, "velocity": 85, "duration": 175}, {"note": 0, "velocity": 0, "duration": 65}, {"note": 78, "velocity": 83, "duration": 168}, {"note": 0, "velocity": 0, "duration": 72}, {"note": 78, "velocity": 82, "duration": 543}, {"note": 0, "velocity": 0, "duration": 177}, {"note": 75, "velocity": 86, "duration": 155}, {"note": 0, "velocity": 0, "duration": 85}, {"note": 75, "velocity": 88, "duration": 179}, {"note": 0, "velocity": 0, "duration": 61}, {"note": 76, "velocity": 85, "duration": 179}, {"note": 0, "velocity": 0, "duration": 61}, {"note": 78, "velocity": 83, "duration": 129}, {"note": 0, "velocity": 0, "duration": 111}, {"note": 75, "velocity": 88, "duration": 468}, {"note": 71, "velocity": 86, "duration": 144}, {"note": 0, "velocity": 0, "duration": 96}, {"note": 80, "velocity": 82, "duration": 151}, {"note": 0, "velocity": 0, "duration": 89}, {"note": 78, "velocity": 86, "duration": 369}, {"note": 0, "velocity": 0, "duration": 111}, {"note": 75, "velocity": 84, "duration": 153}, {"note": 0, "velocity": 0, "duration": 87}, {"note": 73, "velocity": 87, "duration": 172}, {"note": 0, "velocity": 0, "duration": 68}, {"note": 73, "velocity": 84, "duration": 1414}, {"note": 0, "velocity": 0, "duration": 266}, {"note": 71, "velocity": 84, "duration": 187}, {"note": 71, "velocity": 85, "duration": 2055}]]