[[{"note": 64, "velocity": 89, "duration": 57}, {"note": 0, "velocity": 0, "duration": 103}, {"note": 67, "velocity": 69, "duration": 108}, {"note": 69, "velocity": 75, "duration": 108}, {"note": 71, "velocity": 76, "duration": 88}, {"note": 0, "velocity": 0, "duration": 72}, {"note": 71, "velocity": 70, "duration": 72}, {"note": 0, "velocity": 0, "duration": 88}, {"note": 71, "velocity": 69, "duration": 72}, {"note": 0, "velocity": 0, "duration": 88}, {"note": 71, "velocity": 74, "duration": 111}, {"note": 69, "velocity": 73, "duration": 85}, {"note": 0, "velocity": 0, "duration": 75}, {"note": 67, "velocity": 68, "duration": 78}, {"note": 0, "velocity": 0, "duration": 82}, {"note": 71, "velocity": 74, "duration": 85}, {"note": 0, "velocity": 0, "duration": 75}, {"note": 71, "velocity": 69, "duration": 81}, {"note": 0, "velocity": 0, "duration": 79}, {"note": 71, "velocity": 72, "duration": 81}, {"note": 0, "velocity": 0, "duration": 79}, {"note": 71, "velocity": 75, "duration": 96}, {"note": 0, "velocity": 0, "duration": 64}, {"note": 69, "velocity": 75, "duration": 81}, {"note": 0, "velocity": 0, "duration": 79}, {"note": 67, "velocity": 75, "duration": 74}, {"note": 0, "velocity": 0, "duration": 86}, {"note": 69, "velocity": 71, "duration": 72}, {"note": 0, "velocity": 0, "duration": 88}, {"note": 69, "velocity": 73, "duration": 69}, {"note": 0, "velocity": 0, "duration": 91}, {"note": 69, "velocity": 72, "duration": 88}, {"note": 0, "velocity": 0, "duration": 72}, {"note": 69, "velocity": 69, "duration": 81}, {"note": 0, "velocity": 0, "duration": 79}, {"note": 67, "velocity": 71, "duration": 85}, {"note": 0, "velocity": 0, "duration": 75}, {"note": 69, "velocity": 74, "duration": 114}, {"note": 64, "velocity": 74, "duration": 516}, {"note": 0, "velocity": 0, "duration": 444}, {"note": 76, "velocity": 73, "duration": 72}, {"note": 0, "velocity": 0, "duration": 88}, {"note": 76, "velocity": 73, "duration": 77}, {"note": 0, "velocity": 0, "duration": 83}, {"note": 76, "velocity": 72, "duration": 83}, {"note": 0, "velocity": 0, "duration": 77}, {"note": 76, "velocity": 75, "duration": 102}, {"note": 74, "velocity": 78, "duration": 74}, {"note": 0, "velocity": 0, "duration": 86}, {"note": 76, "velocity": 77, "duration": 70}, {"note": 0, "velocity": 0, "duration": 90}, {"note": 69, "velocity": 69, "duration": 78}, {"note": 0, "velocity": 0, "duration": 82}, {"note": 69, "velocity": 69, "duration": 77}, {"note": 0, "velocity": 0, "duration": 83}, {"note": 69, "velocity": 71, "duration": 71}, {"note": 0, "velocity": 0, "duration": 89}, {"note": 69, "velocity": 69, "duration": 87}, {"note": 0, "velocity": 0, "duration": 73}, {"note": 67, "velocity": 66, "duration": 77}, {"note": 0, "velocity": 0, "duration": 83}, {"note": 69, "velocity": 68, "duration": 85}, {"note": 0, "velocity": 0, "duration": 75}, {"note": 69, "velocity": 70, "duration": 81}, {"note": 0, "velocity": 0, "duration": 79}, {"note": 69, "velocity": 68, "duration": 74}, {"note": 0, "velocity": 0, "duration": 86}, {"note": 69, "velocity": 64, "duration": 87}, {"note": 0, "velocity": 0, "duration": 73}, {"note": 69, "velocity": 67, "duration": 101}, {"note": 67, "velocity": 66, "duration": 101}, {"note": 69, "velocity": 67, "duration": 114}, {"note": 71, "velocity": 74, "duration": 474}, {"note": 0, "velocity": 0, "duration": 486}, {"note": 76, "velocity": 74, "duration": 383}, {"note": 0, "velocity": 0, "duration": 97}, {"note": 76, "velocity": 77, "duration": 399}, {"note": 0, "velocity": 0, "duration": 81}, {"note": 74, "velocity": 77, "duration": 380}, {"note": 0, "velocity": 0, "duration": 100}, {"note": 74, "velocity": 80, "duration": 95}, {"note": 0, "velocity": 0, "duration": 65}, {"note": 71, "velocity": 71, "duration": 112}, {"note": 67, "velocity": 62, "duration": 101}, {"note": 69, "velocity": 65, "duration": 99}, {"note": 0, "velocity": 0, "duration": 61}, {"note": 69, "velocity": 67, "duration": 85}, {"note": 0, "velocity": 0, "duration": 75}, {"note": 69, "velocity": 66, "duration": 88}, {"note": 0, "velocity": 0, "duration": 72}, {"note": 69, "velocity": 73, "duration": 121}, {"note": 67, "velocity": 68, "duration": 92}, {"note": 0, "velocity": 0, "duration": 68}, {"note": 69, "velocity": 73, "duration": 105}, {"note": 71, "velocity": 71, "duration": 205}, {"note": 0, "velocity": 0, "duration": 115}, {"note": 64, "velocity": 77, "duration": 413}, {"note": 0, "velocity": 0, "duration": 227}, {"note": 67, "velocity": 74, "duration": 287}, {"note": 0, "velocity": 0, "duration": 193}, {"note": 71, "velocity": 75, "duration": 299}, {"note": 0, "velocity": 0, "duration": 181}, {"note": 69, "velocity": 74, "duration": 345}, {"note": 0, "velocity": 0, "duration": 455}, {"note": 74, "velocity": 77, "duration": 160}, {"note": 71, "velocity": 74, "duration": 1145}, {"note": 0, "velocity": 0, "duration": 295}, {"note": 64, "velocity": 89, "duration": 57}, {"note": 0, "velocity": 0, "duration": 103}, {"note": 67, "velocity": 69, "duration": 108}, {"note": 69, "velocity": 75, "duration": 108}, {"note": 71, "velocity": 76, "duration": 88}, {"note": 0, "velocity": 0, "duration": 72}, {"note": 71, "velocity": 70, "duration": 72}, {"note": 0, "velocity": 0, "duration": 88}, {"note": 71, "velocity": 69, "duration": 72}, {"note": 0, "velocity": 0, "duration": 88}, {"note": 71, "velocity": 74, "duration": 111}, {"note": 69, "velocity": 73, "duration": 85}, {"note": 0, "velocity": 0, "duration": 75}, {"note": 67, "velocity": 68, "duration": 78}, {"note": 0, "velocity": 0, "duration": 82}, {"note": 71, "velocity": 74, "duration": 85}, {"note": 0, "velocity": 0, "duration": 75}, {"note": 71, "velocity": 69, "duration": 81}, {"note": 0, "velocity": 0, "duration": 79}, {"note": 71, "velocity": 72, "duration": 81}, {"note": 0, "velocity": 0, "duration": 79}, {"note": 71, "velocity": 75, "duration": 96}, {"note": 0, "velocity": 0, "duration": 64}, {"note": 69, "velocity": 75, "duration": 81}, {"note": 0, "velocity": 0, "duration": 79}, {"note": 67, "velocity": 75, "duration": 74}, {"note": 0, "velocity": 0, "duration": 86}, {"note": 69, "velocity": 71, "duration": 72}, {"note": 0, "velocity": 0, "duration": 88}, {"note": 69, "velocity": 73, "duration": 69}, {"note": 0, "velocity": 0, "duration": 91}, {"note": 69, "velocity": 72, "duration": 88}, {"note": 0, "velocity": 0, "duration": 72}, {"note": 69, "velocity": 69, "duration": 81}, {"note": 0, "velocity": 0, "duration": 79}, {"note": 67, "velocity": 71, "duration": 85}, {"note": 0, "velocity": 0, "duration": 75}, {"note": 69, "velocity": 74, "duration": 114}, {"note": 64, "velocity": 74, "duration": 516}, {"note": 0, "velocity": 0, "duration": 444}, {"note": 76, "velocity": 73, "duration": 72}, {"note": 0, "velocity": 0, "duration": 88}, {"note": 76, "velocity": 73, "duration": 77}, {"note": 0, "velocity": 0, "duration": 83}, {"note": 76, "velocity": 72, "duration": 83}, {"note": 0, "velocity": 0, "duration": 77}, {"note": 76, "velocity": 75, "duration": 102}, {"note": 74, "velocity": 78, "duration": 74}, {"note": 0, "velocity": 0, "duration": 86}, {"note": 76, "velocity": 77, "duration": 70}, {"note": 0, "velocity": 0, "duration": 90}, {"note": 69, "velocity": 69, "duration": 78}, {"note": 0, "velocity": 0, "duration": 82}, {"note": 69, "velocity": 69, "duration": 77}, {"note": 0, "velocity": 0, "duration": 83}, {"note": 69, "velocity": 71, "duration": 71}, {"note": 0, "velocity": 0, "duration": 89}, {"note": 69, "velocity": 69, "duration": 87}, {"note": 0, "velocity": 0, "duration": 73}, {"note": 67, "velocity": 66, "duration": 77}, {"note": 0, "velocity": 0, "duration": 83}, {"note": 69, "velocity": 68, "duration": 85}, {"note": 0, "velocity": 0, "duration": 75}, {"note": 69, "velocity": 70, "duration": 81}, {"note": 0, "velocity": 0, "duration": 79}, {"note": 69, "velocity": 68, "duration": 74}, {"note": 0, "velocity": 0, "duration": 86}, {"note": 69, "velocity": 64, "duration": 87}, {"note": 0, "velocity": 0, "duration": 73}, {"note": 69, "velocity": 67, "duration": 101}, {"note": 67, "velocity": 66, "duration": 101}, {"note": 69, "velocity": 67, "duration": 114}, {"note": 71, "velocity": 74, "duration": 474}, {"note": 0, "velocity": 0, "duration": 486}, {"note": 76, "velocity": 74, "duration": 383}, {"note": 0, "velocity": 0, "duration": 97}, {"note": 76, "velocity": 77, "duration": 399}, {"note": 0, "velocity": 0, "duration": 81}, {"note": 74, "velocity": 77, "duration": 380}, {"note": 0, "velocity": 0, "duration": 100}, {"note": 74, "velocity": 80, "duration": 95}, {"note": 0, "velocity": 0, "duration": 65}, {"note": 71, "velocity": 71, "duration": 112}, {"note": 67, "velocity": 62, "duration": 101}, {"note": 69, "velocity": 65, "duration": 99}, {"note": 0, "velocity": 0, "duration": 61}, {"note": 69, "velocity": 67, "duration": 85}, {"note": 0, "velocity": 0, "duration": 75}, {"note": 69, "velocity": 66, "duration": 88}, {"note": 0, "velocity": 0, "duration": 72}, {"note": 69, "velocity": 73, "duration": 121}, {"note": 67, "velocity": 68, "duration": 92}, {"note": 0, "velocity": 0, "duration": 68}, {"note": 69, "velocity": 73, "duration": 105}, {"note": 71, "velocity": 71, "duration": 205}, {"note": 0, "velocity": 0, "duration": 115}, {"note": 76, "velocity": 77, "duration": 413}, {"note": 0, "velocity": 0, "duration": 227}, {"note": 67, "velocity": 74, "duration": 287}, {"note": 0, "velocity": 0, "duration": 193}, {"note": 71, "velocity": 75, "duration": 299}, {"note": 0, "velocity": 0, "duration": 181}, {"note": 69, "velocity": 74, "duration": 345}, {"note": 0, "velocity": 0, "duration": 135}, {"note": 74, "velocity": 80, "duration": 305}, {"note": 71, "velocity": 69, "duration": 108}, {"note": 71, "velocity": 77, "duration": 297}, {"note": 76, "velocity": 78, "duration": 893}, {"note": 0, "velocity": 0, "duration": 227}, {"note": 79, "velocity": 74, "duration": 236}, {"note": 0, "velocity": 0, "duration": 84}, {"note": 78, "velocity": 78, "duration": 140}, {"note": 76, "velocity": 77, "duration": 160}, {"note": 0, "velocity": 0, "duration": 160}, {"note": 76, "velocity": 74, "duration": 90}, {"note": 0, "velocity": 0, "duration": 70}, {"note": 76, "velocity": 77, "duration": 195}, {"note": 0, "velocity": 0, "duration": 125}, {"note": 76, "velocity": 76, "duration": 110}, {"note": 78, "velocity": 74, "duration": 192}, {"note": 0, "velocity": 0, "duration": 128}, {"note": 78, "velocity": 75, "duration": 112}, {"note": 78, "velocity": 77, "duration": 262}, {"note": 76, "velocity": 75, "duration": 117}, {"note": 74, "velocity": 78, "duration": 198}, {"note": 0, "velocity": 0, "duration": 122}, {"note": 74, "velocity": 74, "duration": 96}, {"note": 0, "velocity": 0, "duration": 64}, {"note": 71, "velocity": 75, "duration": 258}, {"note": 0, "velocity": 0, "duration": 62}, {"note": 69, "velocity": 73, "duration": 97}, {"note": 0, "velocity": 0, "duration": 63}, {"note": 71, "velocity": 73, "duration": 387}, {"note": 0, "velocity": 0, "duration": 573}, {"note": 67, "velocity": 76, "duration": 327}, {"note": 0, "velocity": 0, "duration": 153}, {"note": 76, "velocity": 76, "duration": 383}, {"note": 0, "velocity": 0, "duration": 97}, {"note": 74, "velocity": 77, "duration": 392}, {"note": 0, "velocity": 0, "duration": 88}, {"note": 71, "velocity": 75, "duration": 289}, {"note": 69, "velocity": 74, "duration": 134}, {"note": 71, "velocity": 73, "duration": 1101}, {"note": 0, "velocity": 0, "duration": 339}, {"note": 79, "velocity": 74, "duration": 236}, {"note": 0, "velocity": 0, "duration": 84}, {"note": 78, "velocity": 78, "duration": 140}, {"note": 76, "velocity": 77, "duration": 160}, {"note": 0, "velocity": 0, "duration": 160}, {"note": 76, "velocity": 74, "duration": 90}, {"note": 0, "velocity": 0, "duration": 70}, {"note": 76, "velocity": 77, "duration": 195}, {"note": 0, "velocity": 0, "duration": 125}, {"note": 76, "velocity": 76, "duration": 110}, {"note": 78, "velocity": 74, "duration": 192}, {"note": 0, "velocity": 0, "duration": 128}, {"note": 78, "velocity": 75, "duration": 112}, {"note": 78, "velocity": 77, "duration": 262}, {"note": 76, "velocity": 75, "duration": 117}, {"note": 74, "velocity": 78, "duration": 198}, {"note": 0, "velocity": 0, "duration": 282}, {"note": 71, "velocity": 75, "duration": 258}, {"note": 0, "velocity": 0, "duration": 62}, {"note": 74, "velocity": 73, "duration": 97}, {"note": 0, "velocity": 0, "duration": 63}, {"note": 76, "velocity": 73, "duration": 387}, {"note": 0, "velocity": 0, "duration": 573}, {"note": 72, "velocity": 77, "duration": 375}, {"note": 0, "velocity": 0, "duration": 105}, {"note": 79, "velocity": 67, "duration": 407}, {"note": 0, "velocity": 0, "duration": 73}, {"note": 78, "velocity": 75, "duration": 430}, {"note": 76, "velocity": 76, "duration": 243}, {"note": 0, "velocity": 0, "duration": 77}, {"note": 74, "velocity": 77, "duration": 112}, {"note": 76, "velocity": 75, "duration": 1117}, {"note": 0, "velocity": 0, "duration": 17603}, {"note": 64, "velocity": 89, "duration": 57}, {"note": 0, "velocity": 0, "duration": 103}, {"note": 67, "velocity": 69, "duration": 108}, {"note": 69, "velocity": 75, "duration": 108}, {"note": 71, "velocity": 76, "duration": 88}, {"note": 0, "velocity": 0, "duration": 72}, {"note": 71, "velocity": 70, "duration": 72}, {"note": 0, "velocity": 0, "duration": 88}, {"note": 71, "velocity": 69, "duration": 72}, {"note": 0, "velocity": 0, "duration": 88}, {"note": 71, "velocity": 74, "duration": 111}, {"note": 69, "velocity": 73, "duration": 85}, {"note": 0, "velocity": 0, "duration": 75}, {"note": 67, "velocity": 68, "duration": 78}, {"note": 0, "velocity": 0, "duration": 82}, {"note": 71, "velocity": 74, "duration": 85}, {"note": 0, "velocity": 0, "duration": 75}, {"note": 71, "velocity": 69, "duration": 81}, {"note": 0, "velocity": 0, "duration": 79}, {"note": 71, "velocity": 72, "duration": 81}, {"note": 0, "velocity": 0, "duration": 79}, {"note": 71, "velocity": 75, "duration": 96}, {"note": 0, "velocity": 0, "duration": 64}, {"note": 69, "velocity": 75, "duration": 81}, {"note": 0, "velocity": 0, "duration": 79}, {"note": 67, "velocity": 75, "duration": 74}, {"note": 0, "velocity": 0, "duration": 86}, {"note": 69, "velocity": 71, "duration": 72}, {"note": 0, "velocity": 0, "duration": 88}, {"note": 69, "velocity": 73, "duration": 69}, {"note": 0, "velocity": 0, "duration": 91}, {"note": 69, "velocity": 72, "duration": 88}, {"note": 0, "velocity": 0, "duration": 72}, {"note": 69, "velocity": 69, "duration": 81}, {"note": 0, "velocity": 0, "duration": 79}, {"note": 67, "velocity": 71, "duration": 85}, {"note": 0, "velocity": 0, "duration": 75}, {"note": 69, "velocity": 74, "duration": 114}, {"note": 64, "velocity": 74, "duration": 516}, {"note": 0, "velocity": 0, "duration": 444}, {"note": 76, "velocity": 73, "duration": 72}, {"note": 0, "velocity": 0, "duration": 88}, {"note": 76, "velocity": 73, "duration": 77}, {"note": 0, "velocity": 0, "duration": 83}, {"note": 76, "velocity": 72, "duration": 83}, {"note": 0, "velocity": 0, "duration": 77}, {"note": 76, "velocity": 75, "duration": 102}, {"note": 74, "velocity": 78, "duration": 74}, {"note": 0, "velocity": 0, "duration": 86}, {"note": 76, "velocity": 77, "duration": 70}, {"note": 0, "velocity": 0, "duration": 90}, {"note": 69, "velocity": 69, "duration": 78}, {"note": 0, "velocity": 0, "duration": 82}, {"note": 69, "velocity": 69, "duration": 77}, {"note": 0, "velocity": 0, "duration": 83}, {"note": 69, "velocity": 71, "duration": 71}, {"note": 0, "velocity": 0, "duration": 89}, {"note": 69, "velocity": 69, "duration": 87}, {"note": 0, "velocity": 0, "duration": 73}, {"note": 67, "velocity": 66, "duration": 77}, {"note": 0, "velocity": 0, "duration": 83}, {"note": 69, "velocity": 68, "duration": 85}, {"note": 0, "velocity": 0, "duration": 75}, {"note": 69, "velocity": 70, "duration": 81}, {"note": 0, "velocity": 0, "duration": 79}, {"note": 69, "velocity": 68, "duration": 74}, {"note": 0, "velocity": 0, "duration": 86}, {"note": 69, "velocity": 64, "duration": 87}, {"note": 0, "velocity": 0, "duration": 73}, {"note": 69, "velocity": 67, "duration": 101}, {"note": 67, "velocity": 66, "duration": 101}, {"note": 69, "velocity": 67, "duration": 114}, {"note": 71, "velocity": 74, "duration": 474}, {"note": 0, "velocity": 0, "duration": 486}, {"note": 76, "velocity": 74, "duration": 383}, {"note": 0, "velocity": 0, "duration": 97}, {"note": 76, "velocity": 77, "duration": 399}, {"note": 0, "velocity": 0, "duration": 81}, {"note": 74, "velocity": 77, "duration": 380}, {"note": 0, "velocity": 0, "duration": 100}, {"note": 74, "velocity": 80, "duration": 95}, {"note": 0, "velocity": 0, "duration": 65}, {"note": 71, "velocity": 71, "duration": 112}, {"note": 67, "velocity": 62, "duration": 101}, {"note": 69, "velocity": 65, "duration": 99}, {"note": 0, "velocity": 0, "duration": 61}, {"note": 69, "velocity": 67, "duration": 85}, {"note": 0, "velocity": 0, "duration": 75}, {"note": 69, "velocity": 66, "duration": 88}, {"note": 0, "velocity": 0, "duration": 72}, {"note": 69, "velocity": 73, "duration": 121}, {"note": 67, "velocity": 68, "duration": 92}, {"note": 0, "velocity": 0, "duration": 68}, {"note": 69, "velocity": 73, "duration": 105}, {"note": 71, "velocity": 71, "duration": 205}, {"note": 0, "velocity": 0, "duration": 115}, {"note": 76, "velocity": 77, "duration": 413}, {"note": 64, "velocity": 76, "duration": 126}, {"note": 66, "velocity": 77, "duration": 129}, {"note": 67, "velocity": 74, "duration": 287}, {"note": 0, "velocity": 0, "duration": 193}, {"note": 71, "velocity": 75, "duration": 299}, {"note": 0, "velocity": 0, "duration": 181}, {"note": 69, "velocity": 74, "duration": 345}, {"note": 0, "velocity": 0, "duration": 135}, {"note": 74, "velocity": 80, "duration": 305}, {"note": 71, "velocity": 69, "duration": 108}, {"note": 71, "velocity": 77, "duration": 297}, {"note": 76, "velocity": 78, "duration": 893}, {"note": 0, "velocity": 0, "duration": 227}, {"note": 79, "velocity": 74, "duration": 236}, {"note": 0, "velocity": 0, "duration": 84}, {"note": 78, "velocity": 78, "duration": 140}, {"note": 76, "velocity": 77, "duration": 160}, {"note": 0, "velocity": 0, "duration": 160}, {"note": 76, "velocity": 74, "duration": 90}, {"note": 0, "velocity": 0, "duration": 70}, {"note": 76, "velocity": 77, "duration": 195}, {"note": 0, "velocity": 0, "duration": 125}, {"note": 76, "velocity": 76, "duration": 110}, {"note": 78, "velocity": 74, "duration": 192}, {"note": 0, "velocity": 0, "duration": 128}, {"note": 78, "velocity": 75, "duration": 112}, {"note": 78, "velocity": 77, "duration": 262}, {"note": 76, "velocity": 75, "duration": 117}, {"note": 74, "velocity": 78, "duration": 198}, {"note": 0, "velocity": 0, "duration": 122}, {"note": 74, "velocity": 74, "duration": 96}, {"note": 0, "velocity": 0, "duration": 64}, {"note": 71, "velocity": 75, "duration": 258}, {"note": 0, "velocity": 0, "duration": 62}, {"note": 69, "velocity": 73, "duration": 97}, {"note": 0, "velocity": 0, "duration": 63}, {"note": 71, "velocity": 73, "duration": 387}, {"note": 0, "velocity": 0, "duration": 573}, {"note": 67, "velocity": 76, "duration": 327}, {"note": 0, "velocity": 0, "duration": 153}, {"note": 76, "velocity": 76, "duration": 383}, {"note": 0, "velocity": 0, "duration": 97}, {"note": 74, "velocity": 77, "duration": 392}, {"note": 0, "velocity": 0, "duration": 88}, {"note": 71, "velocity": 75, "duration": 289}, {"note": 69, "velocity": 74, "duration": 134}, {"note": 71, "velocity": 73, "duration": 1101}, {"note": 0, "velocity": 0, "duration": 339}, {"note": 79, "velocity": 74, "duration": 236}, {"note": 0, "velocity": 0, "duration": 84}, {"note": 78, "velocity": 78, "duration": 140}, {"note": 76, "velocity": 77, "duration": 160}, {"note": 0, "velocity": 0, "duration": 160}, {"note": 76, "velocity": 74, "duration": 90}, {"note": 0, "velocity": 0, "duration": 70}, {"note": 76, "velocity": 77, "duration": 195}, {"note": 0, "velocity": 0, "duration": 125}, {"note": 76, "velocity": 76, "duration": 110}, {"note": 78, "velocity": 74, "duration": 192}, {"note": 0, "velocity": 0, "duration": 128}, {"note": 78, "velocity": 75, "duration": 112}, {"note": 78, "velocity": 77, "duration": 262}, {"note": 76, "velocity": 75, "duration": 117}, {"note": 74, "velocity": 78, "duration": 198}, {"note": 0, "velocity": 0, "duration": 282}, {"note": 71, "velocity": 75, "duration": 258}, {"note": 0, "velocity": 0, "duration": 62}, {"note": 74, "velocity": 73, "duration": 97}, {"note": 0, "velocity": 0, "duration": 63}, {"note": 76, "velocity": 73, "duration": 387}, {"note": 0, "velocity": 0, "duration": 573}, {"note": 72, "velocity": 77, "duration": 375}, {"note": 0, "velocity": 0, "duration": 105}, {"note": 79, "velocity": 67, "duration": 407}, {"note": 0, "velocity": 0, "duration": 73}, {"note": 78, "velocity": 75, "duration": 430}, {"note": 76, "velocity": 76, "duration": 243}, {"note": 0, "velocity": 0, "duration": 77}, {"note": 74, "velocity": 77, "duration": 112}, {"note": 76, "velocity": 75, "duration": 1117}, {"note": 0, "velocity": 0, "duration": 323}, {"note": 79, "velocity": 74, "duration": 236}, {"note": 0, "velocity": 0, "duration": 84}, {"note": 78, "velocity": 78, "duration": 140}, {"note": 76, "velocity": 77, "duration": 160}, {"note": 0, "velocity": 0, "duration": 160}, {"note": 76, "velocity": 74, "duration": 90}, {"note": 0, "velocity": 0, "duration": 70}, {"note": 76, "velocity": 77, "duration": 195}, {"note": 0, "velocity": 0, "duration": 125}, {"note": 76, "velocity": 76, "duration": 110}, {"note": 78, "velocity": 74, "duration": 192}, {"note": 0, "velocity": 0, "duration": 128}, {"note": 78, "velocity": 75, "duration": 112}, {"note": 78, "velocity": 77, "duration": 262}, {"note": 76, "velocity": 75, "duration": 117}, {"note": 74, "velocity": 78, "duration": 198}, {"note": 0, "velocity": 0, "duration": 122}, {"note": 74, "velocity": 74, "duration": 96}, {"note": 0, "velocity": 0, "duration": 64}, {"note": 71, "velocity": 75, "duration": 258}, {"note": 0, "velocity": 0, "duration": 62}, {"note": 69, "velocity": 73, "duration": 97}, {"note": 0, "velocity": 0, "duration": 63}, {"note": 71, "velocity": 73, "duration": 387}, {"note": 0, "velocity": 0, "duration": 573}, {"note": 67, "velocity": 76, "duration": 327}, {"note": 0, "velocity": 0, "duration": 153}, {"note": 76, "velocity": 76, "duration": 383}, {"note": 0, "velocity": 0, "duration": 97}, {"note": 74, "velocity": 77, "duration": 392}, {"note": 0, "velocity": 0, "duration": 88}, {"note": 71, "velocity": 75, "duration": 289}, {"note": 69, "velocity": 74, "duration": 134}, {"note": 71, "velocity": 73, "duration": 1101}, {"note": 0, "velocity": 0, "duration": 339}, {"note": 79, "velocity": 74, "duration": 236}, {"note": 0, "velocity": 0, "duration": 84}, {"note": 78, "velocity": 78, "duration": 140}, {"note": 76, "velocity": 77, "duration": 160}, {"note": 0, "velocity": 0, "duration": 160}, {"note": 76, "velocity": 74, "duration": 90}, {"note": 0, "velocity": 0, "duration": 70}, {"note": 76, "velocity": 77, "duration": 195}, {"note": 0, "velocity": 0, "duration": 125}, {"note": 76, "velocity": 76, "duration": 110}, {"note": 78, "velocity": 74, "duration": 192}, {"note": 0, "velocity": 0, "duration": 128}, {"note": 78, "velocity": 75, "duration": 112}, {"note": 78, "velocity": 77, "duration": 262}, {"note": 76, "velocity": 75, "duration": 117}, {"note": 74, "velocity": 78, "duration": 198}, {"note": 0, "velocity": 0, "duration": 282}, {"note": 71, "velocity": 75, "duration": 258}, {"note": 0, "velocity": 0, "duration": 62}, {"note": 74, "velocity": 73, "duration": 97}, {"note": 0, "velocity": 0, "duration": 63}, {"note": 76, "velocity": 73, "duration": 387}, {"note": 0, "velocity": 0, "duration": 573}, {"note": 72, "velocity": 77, "duration": 375}, {"note": 0, "velocity": 0, "duration": 105}, {"note": 79, "velocity": 67, "duration": 407}, {"note": 0, "velocity": 0, "duration": 73}, {"note": 78, "velocity": 75, "duration": 430}, {"note": 76, "velocity": 76, "duration": 243}, {"note": 0, "velocity": 0, "duration": 77}, {"note": 74, "velocity": 77, "duration": 112}, {"note": 76, "velocity": 75, "duration": 1117}, {"note": 0, "velocity": 0, "duration": 803}, {"note": 72, "velocity": 77, "duration": 375}, {"note": 0, "velocity": 0, "duration": 105}, {"note": 79, "velocity": 67, "duration": 407}, {"note": 0, "velocity": 0, "duration": 73}, {"note": 78, "velocity": 75, "duration": 430}, {"note": 76, "velocity": 76, "duration": 243}, {"note": 0, "velocity": 0, "duration": 77}, {"note": 74, "velocity": 77, "duration": 112}, {"note": 76, "velocity": 75, "duration": 1117}]]