[[{"note": 72, "velocity": 85, "duration": 165}, {"note": 0, "velocity": 0, "duration": 75}, {"note": 72, "velocity": 91, "duration": 147}, {"note": 0, "velocity": 0, "duration": 93}, {"note": 71, "velocity": 89, "duration": 144}, {"note": 0, "velocity": 0, "duration": 96}, {"note": 69, "velocity": 90, "duration": 124}, {"note": 0, "velocity": 0, "duration": 116}, {"note": 67, "velocity": 88, "duration": 778}, {"note": 0, "velocity": 0, "duration": 182}, {"note": 67, "velocity": 83, "duration": 163}, {"note": 0, "velocity": 0, "duration": 77}, {"note": 67, "velocity": 85, "duration": 175}, {"note": 0, "velocity": 0, "duration": 65}, {"note": 69, "velocity": 86, "duration": 157}, {"note": 0, "velocity": 0, "duration": 83}, {"note": 71, "velocity": 85, "duration": 146}, {"note": 0, "velocity": 0, "duration": 94}, {"note": 72, "velocity": 86, "duration": 418}, {"note": 0, "velocity": 0, "duration": 62}, {"note": 64, "velocity": 90, "duration": 358}, {"note": 0, "velocity": 0, "duration": 362}, {"note": 64, "velocity": 93, "duration": 197}, {"note": 65, "velocity": 85, "duration": 179}, {"note": 0, "velocity": 0, "duration": 61}, {"note": 67, "velocity": 84, "duration": 169}, {"note": 0, "velocity": 0, "duration": 71}, {"note": 69, "velocity": 85, "duration": 2009}, {"note": 0, "velocity": 0, "duration": 871}, {"note": 72, "velocity": 85, "duration": 165}, {"note": 0, "velocity": 0, "duration": 75}, {"note": 72, "velocity": 91, "duration": 147}, {"note": 0, "velocity": 0, "duration": 93}, {"note": 71, "velocity": 89, "duration": 144}, {"note": 0, "velocity": 0, "duration": 96}, {"note": 69, "velocity": 90, "duration": 124}, {"note": 0, "velocity": 0, "duration": 116}, {"note": 67, "velocity": 88, "duration": 778}, {"note": 0, "velocity": 0, "duration": 182}, {"note": 67, "velocity": 83, "duration": 163}, {"note": 0, "velocity": 0, "duration": 77}, {"note": 67, "velocity": 85, "duration": 175}, {"note": 0, "velocity": 0, "duration": 65}, {"note": 69, "velocity": 86, "duration": 157}, {"note": 0, "velocity": 0, "duration": 83}, {"note": 71, "velocity": 85, "duration": 146}, {"note": 0, "velocity": 0, "duration": 94}, {"note": 72, "velocity": 86, "duration": 418}, {"note": 0, "velocity": 0, "duration": 62}, {"note": 64, "velocity": 90, "duration": 358}, {"note": 0, "velocity": 0, "duration": 362}, {"note": 64, "velocity": 93, "duration": 197}, {"note": 65, "velocity": 85, "duration": 179}, {"note": 0, "velocity": 0, "duration": 61}, {"note": 67, "velocity": 84, "duration": 169}, {"note": 0, "velocity": 0, "duration": 71}, {"note": 69, "velocity": 85, "duration": 2009}, {"note": 0, "velocity": 0, "duration": 631}, {"note": 69, "velocity": 86, "duration": 133}, {"note": 0, "velocity": 0, "duration": 107}, {"note": 69, "velocity": 84, "duration": 165}, {"note": 0, "velocity": 0, "duration": 75}, {"note": 69, "velocity": 86, "duration": 159}, {"note": 0, "velocity": 0, "duration": 81}, {"note": 76, "velocity": 88, "duration": 365}, {"note": 0, "velocity": 0, "duration": 115}, {"note": 74, "velocity": 90, "duration": 478}, {"note": 71, "velocity": 87, "duration": 112}, {"note": 0, "velocity": 0, "duration": 128}, {"note": 69, "velocity": 85, "duration": 151}, {"note": 0, "velocity": 0, "duration": 89}, {"note": 67, "velocity": 84, "duration": 582}, {"note": 0, "velocity": 0, "duration": 618}, {"note": 67, "velocity": 84, "duration": 190}, {"note": 64, "velocity": 85, "duration": 178}, {"note": 0, "velocity": 0, "duration": 62}, {"note": 67, "velocity": 85, "duration": 213}, {"note": 64, "velocity": 88, "duration": 177}, {"note": 0, "velocity": 0, "duration": 63}, {"note": 67, "velocity": 86, "duration": 182}, {"note": 74, "velocity": 93, "duration": 368}, {"note": 0, "velocity": 0, "duration": 112}, {"note": 72, "velocity": 85, "duration": 1268}, {"note": 0, "velocity": 0, "duration": 1372}, {"note": 69, "velocity": 86, "duration": 141}, {"note": 0, "velocity": 0, "duration": 99}, {"note": 69, "velocity": 85, "duration": 143}, {"note": 0, "velocity": 0, "duration": 97}, {"note": 69, "velocity": 84, "duration": 178}, {"note": 0, "velocity": 0, "duration": 62}, {"note": 76, "velocity": 86, "duration": 325}, {"note": 0, "velocity": 0, "duration": 155}, {"note": 74, "velocity": 93, "duration": 304}, {"note": 0, "velocity": 0, "duration": 176}, {"note": 71, "velocity": 85, "duration": 147}, {"note": 0, "velocity": 0, "duration": 93}, {"note": 69, "velocity": 85, "duration": 154}, {"note": 0, "velocity": 0, "duration": 86}, {"note": 67, "velocity": 89, "duration": 838}, {"note": 0, "velocity": 0, "duration": 122}, {"note": 67, "velocity": 86, "duration": 174}, {"note": 0, "velocity": 0, "duration": 66}, {"note": 76, "velocity": 87, "duration": 131}, {"note": 0, "velocity": 0, "duration": 109}, {"note": 77, "velocity": 78, "duration": 129}, {"note": 0, "velocity": 0, "duration": 111}, {"note": 76, "velocity": 86, "duration": 120}, {"note": 0, "velocity": 0, "duration": 120}, {"note": 77, "velocity": 82, "duration": 155}, {"note": 0, "velocity": 0, "duration": 85}, {"note": 76, "velocity": 85, "duration": 346}, {"note": 0, "velocity": 0, "duration": 134}, {"note": 71, "velocity": 88, "duration": 138}, {"note": 0, "velocity": 0, "duration": 102}, {"note": 72, "velocity": 85, "duration": 1026}, {"note": 0, "velocity": 0, "duration": 174}, {"note": 72, "velocity": 85, "duration": 185}, {"note": 71, "velocity": 85, "duration": 108}, {"note": 0, "velocity": 0, "duration": 132}, {"note": 72, "velocity": 90, "duration": 103}, {"note": 0, "velocity": 0, "duration": 137}, {"note": 64, "velocity": 88, "duration": 154}, {"note": 0, "velocity": 0, "duration": 86}, {"note": 65, "velocity": 84, "duration": 365}, {"note": 0, "velocity": 0, "duration": 115}, {"note": 64, "velocity": 84, "duration": 113}, {"note": 0, "velocity": 0, "duration": 127}, {"note": 65, "velocity": 88, "duration": 398}, {"note": 0, "velocity": 0, "duration": 322}, {"note": 76, "velocity": 88, "duration": 238}, {"note": 74, "velocity": 86, "duration": 1198}, {"note": 0, "velocity": 0, "duration": 482}, {"note": 72, "velocity": 84, "duration": 194}, {"note": 72, "velocity": 90, "duration": 2189}, {"note": 0, "velocity": 0, "duration": 691}, {"note": 67, "velocity": 88, "duration": 171}, {"note": 0, "velocity": 0, "duration": 69}, {"note": 77, "velocity": 91, "duration": 164}, {"note": 0, "velocity": 0, "duration": 76}, {"note": 76, "velocity": 91, "duration": 148}, {"note": 0, "velocity": 0, "duration": 92}, {"note": 74, "velocity": 100, "duration": 143}, {"note": 0, "velocity": 0, "duration": 97}, {"note": 76, "velocity": 93, "duration": 858}, {"note": 0, "velocity": 0, "duration": 102}, {"note": 67, "velocity": 85, "duration": 139}, {"note": 0, "velocity": 0, "duration": 101}, {"note": 76, "velocity": 93, "duration": 189}, {"note": 74, "velocity": 95, "duration": 129}, {"note": 0, "velocity": 0, "duration": 111}, {"note": 72, "velocity": 84, "duration": 199}, {"note": 74, "velocity": 87, "duration": 582}, {"note": 67, "velocity": 85, "duration": 553}, {"note": 0, "velocity": 0, "duration": 167}, {"note": 67, "velocity": 88, "duration": 157}, {"note": 0, "velocity": 0, "duration": 83}, {"note": 69, "velocity": 86, "duration": 138}, {"note": 0, "velocity": 0, "duration": 102}, {"note": 71, "velocity": 85, "duration": 143}, {"note": 0, "velocity": 0, "duration": 97}, {"note": 72, "velocity": 86, "duration": 360}, {"note": 0, "velocity": 0, "duration": 120}, {"note": 71, "velocity": 83, "duration": 107}, {"note": 0, "velocity": 0, "duration": 133}, {"note": 72, "velocity": 85, "duration": 133}, {"note": 0, "velocity": 0, "duration": 107}, {"note": 71, "velocity": 85, "duration": 131}, {"note": 0, "velocity": 0, "duration": 109}, {"note": 72, "velocity": 85, "duration": 299}, {"note": 0, "velocity": 0, "duration": 181}, {"note": 64, "velocity": 85, "duration": 179}, {"note": 0, "velocity": 0, "duration": 61}, {"note": 69, "velocity": 85, "duration": 797}, {"note": 0, "velocity": 0, "duration": 163}, {"note": 67, "velocity": 89, "duration": 177}, {"note": 0, "velocity": 0, "duration": 63}, {"note": 77, "velocity": 90, "duration": 159}, {"note": 0, "velocity": 0, "duration": 81}, {"note": 76, "velocity": 86, "duration": 138}, {"note": 0, "velocity": 0, "duration": 102}, {"note": 74, "velocity": 89, "duration": 138}, {"note": 0, "velocity": 0, "duration": 102}, {"note": 76, "velocity": 87, "duration": 811}, {"note": 0, "velocity": 0, "duration": 149}, {"note": 67, "velocity": 85, "duration": 143}, {"note": 0, "velocity": 0, "duration": 97}, {"note": 76, "velocity": 86, "duration": 133}, {"note": 0, "velocity": 0, "duration": 107}, {"note": 74, "velocity": 83, "duration": 147}, {"note": 0, "velocity": 0, "duration": 93}, {"note": 72, "velocity": 85, "duration": 134}, {"note": 0, "velocity": 0, "duration": 106}, {"note": 74, "velocity": 90, "duration": 369}, {"note": 0, "velocity": 0, "duration": 111}, {"note": 67, "velocity": 86, "duration": 312}, {"note": 0, "velocity": 0, "duration": 408}, {"note": 67, "velocity": 88, "duration": 136}, {"note": 0, "velocity": 0, "duration": 104}, {"note": 69, "velocity": 86, "duration": 152}, {"note": 0, "velocity": 0, "duration": 88}, {"note": 71, "velocity": 84, "duration": 142}, {"note": 0, "velocity": 0, "duration": 98}, {"note": 72, "velocity": 88, "duration": 432}, {"note": 71, "velocity": 86, "duration": 142}, {"note": 0, "velocity": 0, "duration": 98}, {"note": 72, "velocity": 87, "duration": 200}, {"note": 71, "velocity": 87, "duration": 172}, {"note": 0, "velocity": 0, "duration": 68}, {"note": 72, "velocity": 85, "duration": 164}, {"note": 0, "velocity": 0, "duration": 76}, {"note": 81, "velocity": 82, "duration": 194}, {"note": 76, "velocity": 76, "duration": 190}, {"note": 79, "velocity": 85, "duration": 1016}, {"note": 0, "velocity": 0, "duration": 424}, {"note": 76, "velocity": 89, "duration": 169}, {"note": 0, "velocity": 0, "duration": 71}, {"note": 77, "velocity": 86, "duration": 119}, {"note": 0, "velocity": 0, "duration": 121}, {"note": 79, "velocity": 86, "duration": 330}, {"note": 0, "velocity": 0, "duration": 150}, {"note": 72, "velocity": 80, "duration": 129}, {"note": 0, "velocity": 0, "duration": 111}, {"note": 72, "velocity": 85, "duration": 176}, {"note": 0, "velocity": 0, "duration": 64}, {"note": 72, "velocity": 88, "duration": 271}, {"note": 0, "velocity": 0, "duration": 209}, {"note": 79, "velocity": 85, "duration": 112}, {"note": 0, "velocity": 0, "duration": 128}, {"note": 72, "velocity": 87, "duration": 147}, {"note": 0, "velocity": 0, "duration": 93}, {"note": 72, "velocity": 86, "duration": 939}, {"note": 0, "velocity": 0, "duration": 741}, {"note": 72, "velocity": 86, "duration": 146}, {"note": 0, "velocity": 0, "duration": 94}, {"note": 72, "velocity": 86, "duration": 623}, {"note": 0, "velocity": 0, "duration": 97}, {"note": 72, "velocity": 88, "duration": 155}, {"note": 0, "velocity": 0, "duration": 85}, {"note": 72, "velocity": 85, "duration": 381}, {"note": 0, "velocity": 0, "duration": 99}, {"note": 74, "velocity": 91, "duration": 365}, {"note": 0, "velocity": 0, "duration": 115}, {"note": 74, "velocity": 95, "duration": 745}, {"note": 0, "velocity": 0, "duration": 215}, {"note": 67, "velocity": 88, "duration": 171}, {"note": 0, "velocity": 0, "duration": 69}, {"note": 77, "velocity": 91, "duration": 164}, {"note": 0, "velocity": 0, "duration": 76}, {"note": 76, "velocity": 91, "duration": 148}, {"note": 0, "velocity": 0, "duration": 92}, {"note": 74, "velocity": 100, "duration": 143}, {"note": 0, "velocity": 0, "duration": 97}, {"note": 76, "velocity": 93, "duration": 858}, {"note": 0, "velocity": 0, "duration": 102}, {"note": 67, "velocity": 85, "duration": 139}, {"note": 0, "velocity": 0, "duration": 101}, {"note": 76, "velocity": 93, "duration": 189}, {"note": 74, "velocity": 95, "duration": 129}, {"note": 0, "velocity": 0, "duration": 111}, {"note": 72, "velocity": 84, "duration": 199}, {"note": 74, "velocity": 87, "duration": 582}, {"note": 67, "velocity": 85, "duration": 553}, {"note": 0, "velocity": 0, "duration": 167}, {"note": 67, "velocity": 88, "duration": 157}, {"note": 0, "velocity": 0, "duration": 83}, {"note": 69, "velocity": 86, "duration": 138}, {"note": 0, "velocity": 0, "duration": 102}, {"note": 71, "velocity": 85, "duration": 143}, {"note": 0, "velocity": 0, "duration": 97}, {"note": 72, "velocity": 86, "duration": 360}, {"note": 0, "velocity": 0, "duration": 120}, {"note": 71, "velocity": 83, "duration": 107}, {"note": 0, "velocity": 0, "duration": 133}, {"note": 72, "velocity": 85, "duration": 133}, {"note": 0, "velocity": 0, "duration": 107}, {"note": 71, "velocity": 85, "duration": 131}, {"note": 0, "velocity": 0, "duration": 109}, {"note": 72, "velocity": 85, "duration": 299}, {"note": 0, "velocity": 0, "duration": 181}, {"note": 64, "velocity": 85, "duration": 179}, {"note": 0, "velocity": 0, "duration": 61}, {"note": 69, "velocity": 85, "duration": 797}, {"note": 0, "velocity": 0, "duration": 163}, {"note": 67, "velocity": 89, "duration": 177}, {"note": 0, "velocity": 0, "duration": 63}, {"note": 77, "velocity": 90, "duration": 159}, {"note": 0, "velocity": 0, "duration": 81}, {"note": 76, "velocity": 86, "duration": 138}, {"note": 0, "velocity": 0, "duration": 102}, {"note": 74, "velocity": 89, "duration": 138}, {"note": 0, "velocity": 0, "duration": 102}, {"note": 76, "velocity": 87, "duration": 360}, {"note": 74, "velocity": 82, "duration": 111}, {"note": 72, "velocity": 86, "duration": 386}, {"note": 0, "velocity": 0, "duration": 94}, {"note": 67, "velocity": 85, "duration": 143}, {"note": 0, "velocity": 0, "duration": 97}, {"note": 76, "velocity": 86, "duration": 133}, {"note": 0, "velocity": 0, "duration": 107}, {"note": 74, "velocity": 83, "duration": 147}, {"note": 0, "velocity": 0, "duration": 93}, {"note": 72, "velocity": 85, "duration": 134}, {"note": 0, "velocity": 0, "duration": 106}, {"note": 74, "velocity": 90, "duration": 369}, {"note": 0, "velocity": 0, "duration": 111}, {"note": 67, "velocity": 86, "duration": 312}, {"note": 0, "velocity": 0, "duration": 408}, {"note": 67, "velocity": 88, "duration": 136}, {"note": 0, "velocity": 0, "duration": 104}, {"note": 69, "velocity": 86, "duration": 152}, {"note": 0, "velocity": 0, "duration": 88}, {"note": 71, "velocity": 84, "duration": 142}, {"note": 0, "velocity": 0, "duration": 98}, {"note": 72, "velocity": 88, "duration": 432}, {"note": 71, "velocity": 86, "duration": 142}, {"note": 0, "velocity": 0, "duration": 98}, {"note": 72, "velocity": 87, "duration": 200}, {"note": 71, "velocity": 87, "duration": 172}, {"note": 0, "velocity": 0, "duration": 68}, {"note": 72, "velocity": 85, "duration": 164}, {"note": 0, "velocity": 0, "duration": 76}, {"note": 81, "velocity": 82, "duration": 194}, {"note": 76, "velocity": 76, "duration": 190}, {"note": 79, "velocity": 85, "duration": 1016}, {"note": 0, "velocity": 0, "duration": 424}, {"note": 76, "velocity": 89, "duration": 169}, {"note": 0, "velocity": 0, "duration": 71}, {"note": 77, "velocity": 86, "duration": 119}, {"note": 0, "velocity": 0, "duration": 121}, {"note": 79, "velocity": 86, "duration": 330}, {"note": 0, "velocity": 0, "duration": 150}, {"note": 72, "velocity": 80, "duration": 129}, {"note": 0, "velocity": 0, "duration": 111}, {"note": 72, "velocity": 85, "duration": 176}, {"note": 0, "velocity": 0, "duration": 64}, {"note": 79, "velocity": 88, "duration": 271}, {"note": 0, "velocity": 0, "duration": 209}, {"note": 72, "velocity": 85, "duration": 112}, {"note": 0, "velocity": 0, "duration": 128}, {"note": 72, "velocity": 87, "duration": 147}, {"note": 0, "velocity": 0, "duration": 93}, {"note": 72, "velocity": 86, "duration": 939}, {"note": 0, "velocity": 0, "duration": 261}, {"note": 74, "velocity": 86, "duration": 800}, {"note": 72, "velocity": 87, "duration": 240}, {"note": 72, "velocity": 85, "duration": 1975}, {"note": 0, "velocity": 0, "duration": 10025}, {"note": 69, "velocity": 86, "duration": 133}, {"note": 0, "velocity": 0, "duration": 107}, {"note": 69, "velocity": 84, "duration": 165}, {"note": 0, "velocity": 0, "duration": 75}, {"note": 69, "velocity": 86, "duration": 159}, {"note": 0, "velocity": 0, "duration": 81}, {"note": 76, "velocity": 88, "duration": 365}, {"note": 0, "velocity": 0, "duration": 115}, {"note": 74, "velocity": 90, "duration": 478}, {"note": 71, "velocity": 87, "duration": 112}, {"note": 0, "velocity": 0, "duration": 128}, {"note": 69, "velocity": 85, "duration": 151}, {"note": 0, "velocity": 0, "duration": 89}, {"note": 67, "velocity": 84, "duration": 582}, {"note": 0, "velocity": 0, "duration": 618}, {"note": 67, "velocity": 84, "duration": 190}, {"note": 64, "velocity": 85, "duration": 178}, {"note": 0, "velocity": 0, "duration": 62}, {"note": 67, "velocity": 85, "duration": 213}, {"note": 64, "velocity": 88, "duration": 177}, {"note": 0, "velocity": 0, "duration": 63}, {"note": 67, "velocity": 86, "duration": 182}, {"note": 74, "velocity": 93, "duration": 368}, {"note": 0, "velocity": 0, "duration": 112}, {"note": 72, "velocity": 85, "duration": 1268}, {"note": 0, "velocity": 0, "duration": 1372}, {"note": 69, "velocity": 86, "duration": 141}, {"note": 0, "velocity": 0, "duration": 99}, {"note": 69, "velocity": 85, "duration": 143}, {"note": 0, "velocity": 0, "duration": 97}, {"note": 69, "velocity": 84, "duration": 178}, {"note": 0, "velocity": 0, "duration": 62}, {"note": 76, "velocity": 86, "duration": 325}, {"note": 0, "velocity": 0, "duration": 155}, {"note": 74, "velocity": 93, "duration": 304}, {"note": 0, "velocity": 0, "duration": 176}, {"note": 71, "velocity": 85, "duration": 147}, {"note": 0, "velocity": 0, "duration": 93}, {"note": 69, "velocity": 85, "duration": 154}, {"note": 0, "velocity": 0, "duration": 86}, {"note": 67, "velocity": 89, "duration": 838}, {"note": 0, "velocity": 0, "duration": 122}, {"note": 67, "velocity": 86, "duration": 174}, {"note": 0, "velocity": 0, "duration": 66}, {"note": 76, "velocity": 87, "duration": 131}, {"note": 0, "velocity": 0, "duration": 109}, {"note": 77, "velocity": 78, "duration": 129}, {"note": 0, "velocity": 0, "duration": 111}, {"note": 76, "velocity": 86, "duration": 120}, {"note": 0, "velocity": 0, "duration": 120}, {"note": 77, "velocity": 82, "duration": 155}, {"note": 0, "velocity": 0, "duration": 85}, {"note": 76, "velocity": 85, "duration": 346}, {"note": 0, "velocity": 0, "duration": 134}, {"note": 71, "velocity": 88, "duration": 138}, {"note": 0, "velocity": 0, "duration": 102}, {"note": 72, "velocity": 85, "duration": 1026}, {"note": 0, "velocity": 0, "duration": 174}, {"note": 72, "velocity": 85, "duration": 185}, {"note": 71, "velocity": 85, "duration": 108}, {"note": 0, "velocity": 0, "duration": 132}, {"note": 72, "velocity": 90, "duration": 103}, {"note": 0, "velocity": 0, "duration": 137}, {"note": 64, "velocity": 88, "duration": 154}, {"note": 0, "velocity": 0, "duration": 86}, {"note": 65, "velocity": 84, "duration": 365}, {"note": 0, "velocity": 0, "duration": 115}, {"note": 64, "velocity": 84, "duration": 113}, {"note": 0, "velocity": 0, "duration": 127}, {"note": 65, "velocity": 88, "duration": 398}, {"note": 0, "velocity": 0, "duration": 322}, {"note": 76, "velocity": 88, "duration": 238}, {"note": 74, "velocity": 86, "duration": 1198}, {"note": 0, "velocity": 0, "duration": 482}, {"note": 72, "velocity": 84, "duration": 194}, {"note": 72, "velocity": 90, "duration": 2189}, {"note": 0, "velocity": 0, "duration": 691}, {"note": 67, "velocity": 88, "duration": 171}, {"note": 0, "velocity": 0, "duration": 69}, {"note": 77, "velocity": 91, "duration": 164}, {"note": 0, "velocity": 0, "duration": 76}, {"note": 76, "velocity": 91, "duration": 148}, {"note": 0, "velocity": 0, "duration": 92}, {"note": 74, "velocity": 100, "duration": 143}, {"note": 0, "velocity": 0, "duration": 97}, {"note": 76, "velocity": 93, "duration": 858}, {"note": 0, "velocity": 0, "duration": 102}, {"note": 67, "velocity": 85, "duration": 139}, {"note": 0, "velocity": 0, "duration": 101}, {"note": 76, "velocity": 93, "duration": 189}, {"note": 74, "velocity": 95, "duration": 129}, {"note": 0, "velocity": 0, "duration": 111}, {"note": 72, "velocity": 84, "duration": 199}, {"note": 74, "velocity": 87, "duration": 582}, {"note": 67, "velocity": 85, "duration": 553}, {"note": 0, "velocity": 0, "duration": 167}, {"note": 67, "velocity": 88, "duration": 157}, {"note": 0, "velocity": 0, "duration": 83}, {"note": 69, "velocity": 86, "duration": 138}, {"note": 0, "velocity": 0, "duration": 102}, {"note": 71, "velocity": 85, "duration": 143}, {"note": 0, "velocity": 0, "duration": 97}, {"note": 72, "velocity": 86, "duration": 360}, {"note": 0, "velocity": 0, "duration": 120}, {"note": 71, "velocity": 83, "duration": 107}, {"note": 0, "velocity": 0, "duration": 133}, {"note": 72, "velocity": 85, "duration": 133}, {"note": 0, "velocity": 0, "duration": 107}, {"note": 71, "velocity": 85, "duration": 131}, {"note": 0, "velocity": 0, "duration": 109}, {"note": 72, "velocity": 85, "duration": 299}, {"note": 0, "velocity": 0, "duration": 181}, {"note": 64, "velocity": 85, "duration": 179}, {"note": 0, "velocity": 0, "duration": 61}, {"note": 69, "velocity": 85, "duration": 797}, {"note": 0, "velocity": 0, "duration": 163}, {"note": 67, "velocity": 89, "duration": 177}, {"note": 0, "velocity": 0, "duration": 63}, {"note": 77, "velocity": 90, "duration": 159}, {"note": 0, "velocity": 0, "duration": 81}, {"note": 76, "velocity": 86, "duration": 138}, {"note": 0, "velocity": 0, "duration": 102}, {"note": 74, "velocity": 89, "duration": 138}, {"note": 0, "velocity": 0, "duration": 102}, {"note": 76, "velocity": 87, "duration": 811}, {"note": 0, "velocity": 0, "duration": 149}, {"note": 67, "velocity": 85, "duration": 143}, {"note": 0, "velocity": 0, "duration": 97}, {"note": 76, "velocity": 86, "duration": 133}, {"note": 0, "velocity": 0, "duration": 107}, {"note": 74, "velocity": 83, "duration": 147}, {"note": 0, "velocity": 0, "duration": 93}, {"note": 72, "velocity": 85, "duration": 134}, {"note": 0, "velocity": 0, "duration": 106}, {"note": 74, "velocity": 90, "duration": 369}, {"note": 0, "velocity": 0, "duration": 111}, {"note": 67, "velocity": 86, "duration": 312}, {"note": 0, "velocity": 0, "duration": 408}, {"note": 67, "velocity": 88, "duration": 136}, {"note": 0, "velocity": 0, "duration": 104}, {"note": 69, "velocity": 86, "duration": 152}, {"note": 0, "velocity": 0, "duration": 88}, {"note": 71, "velocity": 84, "duration": 142}, {"note": 0, "velocity": 0, "duration": 98}, {"note": 72, "velocity": 88, "duration": 432}, {"note": 71, "velocity": 86, "duration": 142}, {"note": 0, "velocity": 0, "duration": 98}, {"note": 72, "velocity": 87, "duration": 200}, {"note": 71, "velocity": 87, "duration": 172}, {"note": 0, "velocity": 0, "duration": 68}, {"note": 72, "velocity": 85, "duration": 164}, {"note": 0, "velocity": 0, "duration": 76}, {"note": 81, "velocity": 82, "duration": 194}, {"note": 76, "velocity": 76, "duration": 190}, {"note": 79, "velocity": 85, "duration": 1016}, {"note": 0, "velocity": 0, "duration": 424}, {"note": 76, "velocity": 89, "duration": 169}, {"note": 0, "velocity": 0, "duration": 71}, {"note": 77, "velocity": 86, "duration": 119}, {"note": 0, "velocity": 0, "duration": 121}, {"note": 79, "velocity": 86, "duration": 330}, {"note": 0, "velocity": 0, "duration": 150}, {"note": 72, "velocity": 80, "duration": 129}, {"note": 0, "velocity": 0, "duration": 111}, {"note": 72, "velocity": 85, "duration": 176}, {"note": 0, "velocity": 0, "duration": 64}, {"note": 72, "velocity": 88, "duration": 271}, {"note": 0, "velocity": 0, "duration": 209}, {"note": 79, "velocity": 85, "duration": 112}, {"note": 0, "velocity": 0, "duration": 128}, {"note": 72, "velocity": 87, "duration": 147}, {"note": 0, "velocity": 0, "duration": 93}, {"note": 72, "velocity": 86, "duration": 939}, {"note": 0, "velocity": 0, "duration": 261}, {"note": 74, "velocity": 86, "duration": 750}, {"note": 72, "velocity": 87, "duration": 160}, {"note": 0, "velocity": 0, "duration": 80}, {"note": 72, "velocity": 85, "duration": 1975}, {"note": 0, "velocity": 0, "duration": 2345}, {"note": 69, "velocity": 88, "duration": 163}, {"note": 0, "velocity": 0, "duration": 77}, {"note": 69, "velocity": 87, "duration": 164}, {"note": 0, "velocity": 0, "duration": 76}, {"note": 69, "velocity": 88, "duration": 378}, {"note": 0, "velocity": 0, "duration": 102}, {"note": 69, "velocity": 89, "duration": 164}, {"note": 0, "velocity": 0, "duration": 76}, {"note": 71, "velocity": 88, "duration": 404}, {"note": 0, "velocity": 0, "duration": 76}, {"note": 71, "velocity": 91, "duration": 1054}, {"note": 0, "velocity": 0, "duration": 146}, {"note": 71, "velocity": 85, "duration": 182}, {"note": 71, "velocity": 87, "duration": 152}, {"note": 0, "velocity": 0, "duration": 88}, {"note": 71, "velocity": 91, "duration": 381}, {"note": 0, "velocity": 0, "duration": 99}, {"note": 71, "velocity": 87, "duration": 143}, {"note": 0, "velocity": 0, "duration": 97}, {"note": 71, "velocity": 86, "duration": 516}, {"note": 0, "velocity": 0, "duration": 204}, {"note": 71, "velocity": 84, "duration": 290}, {"note": 72, "velocity": 86, "duration": 400}, {"note": 71, "velocity": 86, "duration": 153}, {"note": 69, "velocity": 84, "duration": 1360}, {"note": 0, "velocity": 0, "duration": 800}, {"note": 69, "velocity": 91, "duration": 124}, {"note": 0, "velocity": 0, "duration": 116}, {"note": 69, "velocity": 85, "duration": 147}, {"note": 0, "velocity": 0, "duration": 93}, {"note": 69, "velocity": 88, "duration": 351}, {"note": 0, "velocity": 0, "duration": 129}, {"note": 69, "velocity": 85, "duration": 148}, {"note": 0, "velocity": 0, "duration": 92}, {"note": 71, "velocity": 88, "duration": 393}, {"note": 0, "velocity": 0, "duration": 87}, {"note": 71, "velocity": 91, "duration": 927}, {"note": 0, "velocity": 0, "duration": 273}, {"note": 67, "velocity": 91, "duration": 399}, {"note": 0, "velocity": 0, "duration": 81}, {"note": 74, "velocity": 77, "duration": 496}, {"note": 76, "velocity": 85, "duration": 139}, {"note": 0, "velocity": 0, "duration": 101}, {"note": 76, "velocity": 98, "duration": 1865}, {"note": 69, "velocity": 88, "duration": 171}, {"note": 0, "velocity": 0, "duration": 69}, {"note": 79, "velocity": 91, "duration": 164}, {"note": 0, "velocity": 0, "duration": 76}, {"note": 78, "velocity": 91, "duration": 148}, {"note": 0, "velocity": 0, "duration": 92}, {"note": 76, "velocity": 100, "duration": 143}, {"note": 0, "velocity": 0, "duration": 97}, {"note": 78, "velocity": 93, "duration": 858}, {"note": 0, "velocity": 0, "duration": 102}, {"note": 69, "velocity": 85, "duration": 139}, {"note": 0, "velocity": 0, "duration": 101}, {"note": 78, "velocity": 93, "duration": 189}, {"note": 76, "velocity": 95, "duration": 129}, {"note": 0, "velocity": 0, "duration": 111}, {"note": 74, "velocity": 84, "duration": 199}, {"note": 76, "velocity": 87, "duration": 582}, {"note": 69, "velocity": 85, "duration": 553}, {"note": 0, "velocity": 0, "duration": 167}, {"note": 69, "velocity": 88, "duration": 157}, {"note": 0, "velocity": 0, "duration": 83}, {"note": 71, "velocity": 86, "duration": 138}, {"note": 0, "velocity": 0, "duration": 102}, {"note": 73, "velocity": 85, "duration": 143}, {"note": 0, "velocity": 0, "duration": 97}, {"note": 74, "velocity": 86, "duration": 360}, {"note": 0, "velocity": 0, "duration": 120}, {"note": 73, "velocity": 83, "duration": 107}, {"note": 0, "velocity": 0, "duration": 133}, {"note": 74, "velocity": 85, "duration": 133}, {"note": 0, "velocity": 0, "duration": 107}, {"note": 73, "velocity": 85, "duration": 131}, {"note": 0, "velocity": 0, "duration": 109}, {"note": 74, "velocity": 85, "duration": 299}, {"note": 0, "velocity": 0, "duration": 181}, {"note": 66, "velocity": 85, "duration": 179}, {"note": 0, "velocity": 0, "duration": 61}, {"note": 71, "velocity": 85, "duration": 797}, {"note": 0, "velocity": 0, "duration": 163}, {"note": 69, "velocity": 89, "duration": 177}, {"note": 0, "velocity": 0, "duration": 63}, {"note": 79, "velocity": 90, "duration": 159}, {"note": 0, "velocity": 0, "duration": 81}, {"note": 78, "velocity": 86, "duration": 138}, {"note": 0, "velocity": 0, "duration": 102}, {"note": 76, "velocity": 89, "duration": 138}, {"note": 0, "velocity": 0, "duration": 102}, {"note": 78, "velocity": 87, "duration": 811}, {"note": 0, "velocity": 0, "duration": 149}, {"note": 69, "velocity": 85, "duration": 143}, {"note": 0, "velocity": 0, "duration": 97}, {"note": 78, "velocity": 86, "duration": 133}, {"note": 0, "velocity": 0, "duration": 107}, {"note": 76, "velocity": 83, "duration": 147}, {"note": 0, "velocity": 0, "duration": 93}, {"note": 74, "velocity": 85, "duration": 134}, {"note": 0, "velocity": 0, "duration": 106}, {"note": 76, "velocity": 90, "duration": 369}, {"note": 0, "velocity": 0, "duration": 111}, {"note": 69, "velocity": 86, "duration": 312}, {"note": 0, "velocity": 0, "duration": 408}, {"note": 69, "velocity": 88, "duration": 136}, {"note": 0, "velocity": 0, "duration": 104}, {"note": 71, "velocity": 86, "duration": 152}, {"note": 0, "velocity": 0, "duration": 88}, {"note": 73, "velocity": 84, "duration": 142}, {"note": 0, "velocity": 0, "duration": 98}, {"note": 74, "velocity": 88, "duration": 432}, {"note": 73, "velocity": 86, "duration": 142}, {"note": 0, "velocity": 0, "duration": 98}, {"note": 74, "velocity": 87, "duration": 200}, {"note": 73, "velocity": 87, "duration": 172}, {"note": 0, "velocity": 0, "duration": 68}, {"note": 74, "velocity": 85, "duration": 164}, {"note": 0, "velocity": 0, "duration": 76}, {"note": 83, "velocity": 82, "duration": 194}, {"note": 78, "velocity": 76, "duration": 190}, {"note": 81, "velocity": 85, "duration": 1016}, {"note": 0, "velocity": 0, "duration": 424}, {"note": 78, "velocity": 89, "duration": 169}, {"note": 0, "velocity": 0, "duration": 71}, {"note": 79, "velocity": 86, "duration": 119}, {"note": 0, "velocity": 0, "duration": 121}, {"note": 81, "velocity": 86, "duration": 330}, {"note": 0, "velocity": 0, "duration": 150}, {"note": 74, "velocity": 80, "duration": 129}, {"note": 0, "velocity": 0, "duration": 111}, {"note": 74, "velocity": 85, "duration": 176}, {"note": 0, "velocity": 0, "duration": 64}, {"note": 74, "velocity": 88, "duration": 478}, {"note": 81, "velocity": 85, "duration": 112}, {"note": 0, "velocity": 0, "duration": 128}, {"note": 74, "velocity": 87, "duration": 147}, {"note": 0, "velocity": 0, "duration": 93}, {"note": 74, "velocity": 86, "duration": 939}, {"note": 0, "velocity": 0, "duration": 741}, {"note": 74, "velocity": 90, "duration": 186}, {"note": 74, "velocity": 88, "duration": 657}, {"note": 0, "velocity": 0, "duration": 63}, {"note": 74, "velocity": 100, "duration": 131}, {"note": 0, "velocity": 0, "duration": 109}, {"note": 74, "velocity": 91, "duration": 348}, {"note": 0, "velocity": 0, "duration": 132}, {"note": 76, "velocity": 91, "duration": 385}, {"note": 0, "velocity": 0, "duration": 95}, {"note": 76, "velocity": 91, "duration": 835}, {"note": 0, "velocity": 0, "duration": 125}, {"note": 69, "velocity": 88, "duration": 171}, {"note": 0, "velocity": 0, "duration": 69}, {"note": 79, "velocity": 91, "duration": 164}, {"note": 0, "velocity": 0, "duration": 76}, {"note": 78, "velocity": 91, "duration": 148}, {"note": 0, "velocity": 0, "duration": 92}, {"note": 76, "velocity": 100, "duration": 143}, {"note": 0, "velocity": 0, "duration": 97}, {"note": 78, "velocity": 93, "duration": 858}, {"note": 0, "velocity": 0, "duration": 102}, {"note": 69, "velocity": 85, "duration": 139}, {"note": 0, "velocity": 0, "duration": 101}, {"note": 78, "velocity": 93, "duration": 189}, {"note": 76, "velocity": 95, "duration": 129}, {"note": 0, "velocity": 0, "duration": 111}, {"note": 74, "velocity": 84, "duration": 199}, {"note": 76, "velocity": 87, "duration": 582}, {"note": 69, "velocity": 85, "duration": 553}, {"note": 0, "velocity": 0, "duration": 167}, {"note": 69, "velocity": 88, "duration": 157}, {"note": 0, "velocity": 0, "duration": 83}, {"note": 71, "velocity": 86, "duration": 138}, {"note": 0, "velocity": 0, "duration": 102}, {"note": 73, "velocity": 85, "duration": 143}, {"note": 0, "velocity": 0, "duration": 97}, {"note": 74, "velocity": 86, "duration": 360}, {"note": 0, "velocity": 0, "duration": 120}, {"note": 73, "velocity": 83, "duration": 107}, {"note": 0, "velocity": 0, "duration": 133}, {"note": 74, "velocity": 85, "duration": 133}, {"note": 0, "velocity": 0, "duration": 107}, {"note": 73, "velocity": 85, "duration": 131}, {"note": 0, "velocity": 0, "duration": 109}, {"note": 74, "velocity": 85, "duration": 299}, {"note": 0, "velocity": 0, "duration": 181}, {"note": 66, "velocity": 85, "duration": 179}, {"note": 0, "velocity": 0, "duration": 61}, {"note": 71, "velocity": 85, "duration": 797}, {"note": 0, "velocity": 0, "duration": 163}, {"note": 69, "velocity": 89, "duration": 177}, {"note": 0, "velocity": 0, "duration": 63}, {"note": 79, "velocity": 90, "duration": 159}, {"note": 0, "velocity": 0, "duration": 81}, {"note": 78, "velocity": 86, "duration": 138}, {"note": 0, "velocity": 0, "duration": 102}, {"note": 76, "velocity": 89, "duration": 138}, {"note": 0, "velocity": 0, "duration": 102}, {"note": 78, "velocity": 87, "duration": 360}, {"note": 76, "velocity": 75, "duration": 136}, {"note": 74, "velocity": 84, "duration": 364}, {"note": 0, "velocity": 0, "duration": 116}, {"note": 69, "velocity": 85, "duration": 143}, {"note": 0, "velocity": 0, "duration": 97}, {"note": 78, "velocity": 86, "duration": 133}, {"note": 0, "velocity": 0, "duration": 107}, {"note": 76, "velocity": 83, "duration": 147}, {"note": 0, "velocity": 0, "duration": 93}, {"note": 74, "velocity": 85, "duration": 134}, {"note": 0, "velocity": 0, "duration": 106}, {"note": 76, "velocity": 90, "duration": 369}, {"note": 0, "velocity": 0, "duration": 111}, {"note": 69, "velocity": 86, "duration": 312}, {"note": 0, "velocity": 0, "duration": 408}, {"note": 69, "velocity": 88, "duration": 136}, {"note": 0, "velocity": 0, "duration": 104}, {"note": 71, "velocity": 86, "duration": 152}, {"note": 0, "velocity": 0, "duration": 88}, {"note": 73, "velocity": 84, "duration": 142}, {"note": 0, "velocity": 0, "duration": 98}, {"note": 74, "velocity": 88, "duration": 432}, {"note": 73, "velocity": 86, "duration": 142}, {"note": 0, "velocity": 0, "duration": 98}, {"note": 74, "velocity": 87, "duration": 200}, {"note": 73, "velocity": 87, "duration": 172}, {"note": 0, "velocity": 0, "duration": 68}, {"note": 74, "velocity": 85, "duration": 164}, {"note": 0, "velocity": 0, "duration": 76}, {"note": 83, "velocity": 82, "duration": 194}, {"note": 78, "velocity": 76, "duration": 190}, {"note": 81, "velocity": 85, "duration": 1016}, {"note": 0, "velocity": 0, "duration": 2427}, {"note": 78, "velocity": 77, "duration": 218}, {"note": 79, "velocity": 84, "duration": 198}, {"note": 0, "velocity": 0, "duration": 81}, {"note": 81, "velocity": 74, "duration": 485}, {"note": 74, "velocity": 82, "duration": 169}, {"note": 0, "velocity": 0, "duration": 97}, {"note": 74, "velocity": 85, "duration": 208}, {"note": 81, "velocity": 82, "duration": 683}, {"note": 74, "velocity": 85, "duration": 160}, {"note": 0, "velocity": 0, "duration": 88}, {"note": 74, "velocity": 85, "duration": 160}, {"note": 0, "velocity": 0, "duration": 81}, {"note": 74, "velocity": 85, "duration": 1336}, {"note": 0, "velocity": 0, "duration": 404}, {"note": 76, "velocity": 85, "duration": 745}, {"note": 74, "velocity": 84, "duration": 560}, {"note": 74, "velocity": 81, "duration": 3918}]]