[[{"note": 68, "velocity": 83, "duration": 185}, {"note": 67, "velocity": 79, "duration": 147}, {"note": 0, "velocity": 0, "duration": 93}, {"note": 63, "velocity": 80, "duration": 173}, {"note": 0, "velocity": 0, "duration": 67}, {"note": 60, "velocity": 83, "duration": 1054}, {"note": 0, "velocity": 0, "duration": 146}, {"note": 68, "velocity": 81, "duration": 205}, {"note": 67, "velocity": 74, "duration": 144}, {"note": 0, "velocity": 0, "duration": 96}, {"note": 67, "velocity": 79, "duration": 475}, {"note": 65, "velocity": 80, "duration": 834}, {"note": 0, "velocity": 0, "duration": 126}, {"note": 67, "velocity": 80, "duration": 180}, {"note": 65, "velocity": 80, "duration": 168}, {"note": 0, "velocity": 0, "duration": 72}, {"note": 63, "velocity": 80, "duration": 158}, {"note": 0, "velocity": 0, "duration": 82}, {"note": 63, "velocity": 79, "duration": 221}, {"note": 60, "velocity": 78, "duration": 176}, {"note": 0, "velocity": 0, "duration": 64}, {"note": 63, "velocity": 81, "duration": 229}, {"note": 60, "velocity": 79, "duration": 146}, {"note": 0, "velocity": 0, "duration": 94}, {"note": 63, "velocity": 75, "duration": 221}, {"note": 60, "velocity": 78, "duration": 157}, {"note": 0, "velocity": 0, "duration": 83}, {"note": 63, "velocity": 78, "duration": 262}, {"note": 60, "velocity": 79, "duration": 153}, {"note": 0, "velocity": 0, "duration": 87}, {"note": 65, "velocity": 80, "duration": 137}, {"note": 0, "velocity": 0, "duration": 103}, {"note": 65, "velocity": 76, "duration": 196}, {"note": 63, "velocity": 83, "duration": 217}, {"note": 62, "velocity": 80, "duration": 317}, {"note": 0, "velocity": 0, "duration": 163}, {"note": 68, "velocity": 83, "duration": 156}, {"note": 0, "velocity": 0, "duration": 84}, {"note": 67, "velocity": 79, "duration": 145}, {"note": 0, "velocity": 0, "duration": 95}, {"note": 63, "velocity": 80, "duration": 164}, {"note": 0, "velocity": 0, "duration": 76}, {"note": 60, "velocity": 83, "duration": 1086}, {"note": 0, "velocity": 0, "duration": 114}, {"note": 68, "velocity": 79, "duration": 192}, {"note": 67, "velocity": 73, "duration": 134}, {"note": 0, "velocity": 0, "duration": 106}, {"note": 67, "velocity": 75, "duration": 489}, {"note": 65, "velocity": 71, "duration": 822}, {"note": 0, "velocity": 0, "duration": 138}, {"note": 67, "velocity": 80, "duration": 228}, {"note": 65, "velocity": 80, "duration": 190}, {"note": 62, "velocity": 79, "duration": 149}, {"note": 0, "velocity": 0, "duration": 91}, {"note": 63, "velocity": 75, "duration": 208}, {"note": 60, "velocity": 78, "duration": 188}, {"note": 63, "velocity": 80, "duration": 212}, {"note": 60, "velocity": 79, "duration": 170}, {"note": 0, "velocity": 0, "duration": 70}, {"note": 63, "velocity": 81, "duration": 224}, {"note": 60, "velocity": 79, "duration": 169}, {"note": 0, "velocity": 0, "duration": 71}, {"note": 63, "velocity": 83, "duration": 278}, {"note": 60, "velocity": 79, "duration": 158}, {"note": 0, "velocity": 0, "duration": 82}, {"note": 65, "velocity": 80, "duration": 131}, {"note": 0, "velocity": 0, "duration": 109}, {"note": 65, "velocity": 72, "duration": 201}, {"note": 63, "velocity": 81, "duration": 212}, {"note": 67, "velocity": 79, "duration": 357}, {"note": 0, "velocity": 0, "duration": 123}, {"note": 67, "velocity": 82, "duration": 137}, {"note": 0, "velocity": 0, "duration": 103}, {"note": 67, "velocity": 82, "duration": 127}, {"note": 0, "velocity": 0, "duration": 113}, {"note": 67, "velocity": 81, "duration": 347}, {"note": 0, "velocity": 0, "duration": 133}, {"note": 67, "velocity": 79, "duration": 110}, {"note": 0, "velocity": 0, "duration": 130}, {"note": 67, "velocity": 80, "duration": 135}, {"note": 0, "velocity": 0, "duration": 105}, {"note": 63, "velocity": 80, "duration": 173}, {"note": 0, "velocity": 0, "duration": 67}, {"note": 65, "velocity": 80, "duration": 154}, {"note": 0, "velocity": 0, "duration": 86}, {"note": 67, "velocity": 78, "duration": 126}, {"note": 0, "velocity": 0, "duration": 114}, {"note": 68, "velocity": 83, "duration": 129}, {"note": 0, "velocity": 0, "duration": 111}, {"note": 67, "velocity": 78, "duration": 294}, {"note": 0, "velocity": 0, "duration": 186}, {"note": 63, "velocity": 72, "duration": 110}, {"note": 0, "velocity": 0, "duration": 130}, {"note": 63, "velocity": 73, "duration": 125}, {"note": 0, "velocity": 0, "duration": 115}, {"note": 60, "velocity": 75, "duration": 138}, {"note": 0, "velocity": 0, "duration": 102}, {"note": 62, "velocity": 78, "duration": 145}, {"note": 0, "velocity": 0, "duration": 95}, {"note": 63, "velocity": 83, "duration": 134}, {"note": 0, "velocity": 0, "duration": 106}, {"note": 65, "velocity": 81, "duration": 149}, {"note": 0, "velocity": 0, "duration": 91}, {"note": 67, "velocity": 80, "duration": 240}, {"note": 63, "velocity": 80, "duration": 244}, {"note": 0, "velocity": 0, "duration": 236}, {"note": 65, "velocity": 79, "duration": 137}, {"note": 0, "velocity": 0, "duration": 103}, {"note": 63, "velocity": 83, "duration": 263}, {"note": 0, "velocity": 0, "duration": 217}, {"note": 60, "velocity": 80, "duration": 158}, {"note": 0, "velocity": 0, "duration": 82}, {"note": 60, "velocity": 83, "duration": 158}, {"note": 0, "velocity": 0, "duration": 82}, {"note": 60, "velocity": 82, "duration": 137}, {"note": 0, "velocity": 0, "duration": 103}, {"note": 67, "velocity": 78, "duration": 146}, {"note": 0, "velocity": 0, "duration": 94}, {"note": 68, "velocity": 68, "duration": 158}, {"note": 0, "velocity": 0, "duration": 82}, {"note": 70, "velocity": 77, "duration": 134}, {"note": 0, "velocity": 0, "duration": 106}, {"note": 67, "velocity": 84, "duration": 141}, {"note": 0, "velocity": 0, "duration": 99}, {"note": 65, "velocity": 78, "duration": 480}, {"note": 0, "velocity": 0, "duration": 240}, {"note": 58, "velocity": 85, "duration": 162}, {"note": 0, "velocity": 0, "duration": 78}, {"note": 70, "velocity": 85, "duration": 450}, {"note": 0, "velocity": 0, "duration": 270}, {"note": 70, "velocity": 83, "duration": 152}, {"note": 0, "velocity": 0, "duration": 88}, {"note": 70, "velocity": 81, "duration": 164}, {"note": 0, "velocity": 0, "duration": 76}, {"note": 72, "velocity": 80, "duration": 131}, {"note": 0, "velocity": 0, "duration": 109}, {"note": 70, "velocity": 81, "duration": 194}, {"note": 68, "velocity": 75, "duration": 134}, {"note": 0, "velocity": 0, "duration": 106}, {"note": 67, "velocity": 78, "duration": 607}, {"note": 0, "velocity": 0, "duration": 113}, {"note": 67, "velocity": 79, "duration": 161}, {"note": 0, "velocity": 0, "duration": 79}, {"note": 67, "velocity": 80, "duration": 152}, {"note": 0, "velocity": 0, "duration": 88}, {"note": 68, "velocity": 81, "duration": 218}, {"note": 67, "velocity": 83, "duration": 192}, {"note": 65, "velocity": 80, "duration": 153}, {"note": 0, "velocity": 0, "duration": 87}, {"note": 63, "velocity": 80, "duration": 631}, {"note": 0, "velocity": 0, "duration": 89}, {"note": 60, "velocity": 83, "duration": 125}, {"note": 0, "velocity": 0, "duration": 115}, {"note": 63, "velocity": 81, "duration": 169}, {"note": 0, "velocity": 0, "duration": 71}, {"note": 65, "velocity": 84, "duration": 152}, {"note": 0, "velocity": 0, "duration": 88}, {"note": 67, "velocity": 82, "duration": 145}, {"note": 0, "velocity": 0, "duration": 95}, {"note": 68, "velocity": 83, "duration": 86}, {"note": 67, "velocity": 84, "duration": 1171}, {"note": 0, "velocity": 0, "duration": 149}, {"note": 70, "velocity": 79, "duration": 149}, {"note": 0, "velocity": 0, "duration": 91}, {"note": 70, "velocity": 83, "duration": 131}, {"note": 0, "velocity": 0, "duration": 109}, {"note": 70, "velocity": 79, "duration": 137}, {"note": 0, "velocity": 0, "duration": 103}, {"note": 70, "velocity": 90, "duration": 635}, {"note": 0, "velocity": 0, "duration": 85}, {"note": 70, "velocity": 82, "duration": 131}, {"note": 0, "velocity": 0, "duration": 109}, {"note": 70, "velocity": 81, "duration": 153}, {"note": 0, "velocity": 0, "duration": 87}, {"note": 72, "velocity": 82, "duration": 140}, {"note": 0, "velocity": 0, "duration": 100}, {"note": 70, "velocity": 82, "duration": 149}, {"note": 0, "velocity": 0, "duration": 91}, {"note": 68, "velocity": 81, "duration": 200}, {"note": 67, "velocity": 79, "duration": 618}, {"note": 0, "velocity": 0, "duration": 102}, {"note": 67, "velocity": 81, "duration": 161}, {"note": 0, "velocity": 0, "duration": 79}, {"note": 67, "velocity": 80, "duration": 130}, {"note": 0, "velocity": 0, "duration": 110}, {"note": 68, "velocity": 83, "duration": 162}, {"note": 0, "velocity": 0, "duration": 78}, {"note": 67, "velocity": 80, "duration": 199}, {"note": 65, "velocity": 76, "duration": 185}, {"note": 63, "velocity": 70, "duration": 194}, {"note": 0, "velocity": 0, "duration": 526}, {"note": 60, "velocity": 84, "duration": 176}, {"note": 0, "velocity": 0, "duration": 64}, {"note": 63, "velocity": 83, "duration": 150}, {"note": 0, "velocity": 0, "duration": 90}, {"note": 65, "velocity": 79, "duration": 158}, {"note": 0, "velocity": 0, "duration": 82}, {"note": 67, "velocity": 82, "duration": 137}, {"note": 0, "velocity": 0, "duration": 103}, {"note": 68, "velocity": 81, "duration": 196}, {"note": 67, "velocity": 79, "duration": 114}, {"note": 65, "velocity": 71, "duration": 103}, {"note": 63, "velocity": 83, "duration": 1302}, {"note": 0, "velocity": 0, "duration": 9258}, {"note": 68, "velocity": 83, "duration": 185}, {"note": 67, "velocity": 79, "duration": 147}, {"note": 0, "velocity": 0, "duration": 93}, {"note": 63, "velocity": 80, "duration": 173}, {"note": 0, "velocity": 0, "duration": 67}, {"note": 60, "velocity": 83, "duration": 1054}, {"note": 0, "velocity": 0, "duration": 146}, {"note": 68, "velocity": 81, "duration": 205}, {"note": 67, "velocity": 74, "duration": 144}, {"note": 0, "velocity": 0, "duration": 96}, {"note": 67, "velocity": 79, "duration": 475}, {"note": 65, "velocity": 80, "duration": 834}, {"note": 0, "velocity": 0, "duration": 126}, {"note": 67, "velocity": 80, "duration": 180}, {"note": 65, "velocity": 80, "duration": 168}, {"note": 0, "velocity": 0, "duration": 72}, {"note": 63, "velocity": 80, "duration": 158}, {"note": 0, "velocity": 0, "duration": 82}, {"note": 63, "velocity": 79, "duration": 221}, {"note": 60, "velocity": 78, "duration": 176}, {"note": 0, "velocity": 0, "duration": 64}, {"note": 63, "velocity": 81, "duration": 229}, {"note": 60, "velocity": 79, "duration": 146}, {"note": 0, "velocity": 0, "duration": 94}, {"note": 63, "velocity": 75, "duration": 221}, {"note": 60, "velocity": 78, "duration": 157}, {"note": 0, "velocity": 0, "duration": 83}, {"note": 63, "velocity": 78, "duration": 262}, {"note": 60, "velocity": 79, "duration": 153}, {"note": 0, "velocity": 0, "duration": 87}, {"note": 65, "velocity": 80, "duration": 137}, {"note": 0, "velocity": 0, "duration": 103}, {"note": 65, "velocity": 76, "duration": 196}, {"note": 63, "velocity": 83, "duration": 217}, {"note": 62, "velocity": 80, "duration": 317}, {"note": 0, "velocity": 0, "duration": 163}, {"note": 68, "velocity": 83, "duration": 156}, {"note": 0, "velocity": 0, "duration": 84}, {"note": 67, "velocity": 79, "duration": 145}, {"note": 0, "velocity": 0, "duration": 95}, {"note": 63, "velocity": 80, "duration": 164}, {"note": 0, "velocity": 0, "duration": 76}, {"note": 60, "velocity": 83, "duration": 1086}, {"note": 0, "velocity": 0, "duration": 114}, {"note": 68, "velocity": 79, "duration": 192}, {"note": 67, "velocity": 73, "duration": 134}, {"note": 0, "velocity": 0, "duration": 106}, {"note": 67, "velocity": 75, "duration": 489}, {"note": 65, "velocity": 71, "duration": 822}, {"note": 0, "velocity": 0, "duration": 138}, {"note": 67, "velocity": 80, "duration": 228}, {"note": 65, "velocity": 80, "duration": 190}, {"note": 62, "velocity": 79, "duration": 149}, {"note": 0, "velocity": 0, "duration": 91}, {"note": 63, "velocity": 75, "duration": 208}, {"note": 60, "velocity": 78, "duration": 188}, {"note": 63, "velocity": 80, "duration": 212}, {"note": 60, "velocity": 79, "duration": 170}, {"note": 0, "velocity": 0, "duration": 70}, {"note": 63, "velocity": 81, "duration": 224}, {"note": 60, "velocity": 79, "duration": 169}, {"note": 0, "velocity": 0, "duration": 71}, {"note": 63, "velocity": 83, "duration": 278}, {"note": 60, "velocity": 79, "duration": 158}, {"note": 0, "velocity": 0, "duration": 82}, {"note": 65, "velocity": 80, "duration": 131}, {"note": 0, "velocity": 0, "duration": 109}, {"note": 65, "velocity": 72, "duration": 201}, {"note": 63, "velocity": 81, "duration": 212}, {"note": 67, "velocity": 79, "duration": 357}, {"note": 0, "velocity": 0, "duration": 123}, {"note": 67, "velocity": 82, "duration": 137}, {"note": 0, "velocity": 0, "duration": 103}, {"note": 67, "velocity": 82, "duration": 127}, {"note": 0, "velocity": 0, "duration": 113}, {"note": 67, "velocity": 81, "duration": 347}, {"note": 0, "velocity": 0, "duration": 133}, {"note": 67, "velocity": 79, "duration": 110}, {"note": 0, "velocity": 0, "duration": 130}, {"note": 67, "velocity": 80, "duration": 135}, {"note": 0, "velocity": 0, "duration": 105}, {"note": 63, "velocity": 80, "duration": 173}, {"note": 0, "velocity": 0, "duration": 67}, {"note": 65, "velocity": 80, "duration": 154}, {"note": 0, "velocity": 0, "duration": 86}, {"note": 67, "velocity": 78, "duration": 126}, {"note": 0, "velocity": 0, "duration": 114}, {"note": 68, "velocity": 83, "duration": 129}, {"note": 0, "velocity": 0, "duration": 111}, {"note": 67, "velocity": 78, "duration": 294}, {"note": 0, "velocity": 0, "duration": 186}, {"note": 63, "velocity": 72, "duration": 110}, {"note": 0, "velocity": 0, "duration": 130}, {"note": 63, "velocity": 73, "duration": 125}, {"note": 0, "velocity": 0, "duration": 115}, {"note": 60, "velocity": 75, "duration": 138}, {"note": 0, "velocity": 0, "duration": 102}, {"note": 62, "velocity": 78, "duration": 145}, {"note": 0, "velocity": 0, "duration": 95}, {"note": 63, "velocity": 83, "duration": 134}, {"note": 0, "velocity": 0, "duration": 106}, {"note": 65, "velocity": 81, "duration": 149}, {"note": 0, "velocity": 0, "duration": 91}, {"note": 67, "velocity": 80, "duration": 240}, {"note": 63, "velocity": 80, "duration": 244}, {"note": 0, "velocity": 0, "duration": 236}, {"note": 65, "velocity": 79, "duration": 137}, {"note": 0, "velocity": 0, "duration": 103}, {"note": 63, "velocity": 83, "duration": 263}, {"note": 0, "velocity": 0, "duration": 217}, {"note": 60, "velocity": 80, "duration": 158}, {"note": 0, "velocity": 0, "duration": 82}, {"note": 60, "velocity": 83, "duration": 158}, {"note": 0, "velocity": 0, "duration": 82}, {"note": 60, "velocity": 82, "duration": 137}, {"note": 0, "velocity": 0, "duration": 103}, {"note": 67, "velocity": 78, "duration": 146}, {"note": 0, "velocity": 0, "duration": 94}, {"note": 68, "velocity": 68, "duration": 158}, {"note": 0, "velocity": 0, "duration": 82}, {"note": 70, "velocity": 77, "duration": 134}, {"note": 0, "velocity": 0, "duration": 106}, {"note": 67, "velocity": 84, "duration": 141}, {"note": 0, "velocity": 0, "duration": 99}, {"note": 65, "velocity": 78, "duration": 480}, {"note": 0, "velocity": 0, "duration": 240}, {"note": 58, "velocity": 85, "duration": 162}, {"note": 0, "velocity": 0, "duration": 78}, {"note": 70, "velocity": 85, "duration": 450}, {"note": 0, "velocity": 0, "duration": 270}, {"note": 70, "velocity": 83, "duration": 152}, {"note": 0, "velocity": 0, "duration": 88}, {"note": 70, "velocity": 81, "duration": 164}, {"note": 0, "velocity": 0, "duration": 76}, {"note": 72, "velocity": 80, "duration": 131}, {"note": 0, "velocity": 0, "duration": 109}, {"note": 70, "velocity": 81, "duration": 194}, {"note": 68, "velocity": 75, "duration": 134}, {"note": 0, "velocity": 0, "duration": 106}, {"note": 67, "velocity": 78, "duration": 607}, {"note": 0, "velocity": 0, "duration": 113}, {"note": 67, "velocity": 79, "duration": 161}, {"note": 0, "velocity": 0, "duration": 79}, {"note": 67, "velocity": 80, "duration": 152}, {"note": 0, "velocity": 0, "duration": 88}, {"note": 68, "velocity": 81, "duration": 218}, {"note": 67, "velocity": 83, "duration": 192}, {"note": 65, "velocity": 80, "duration": 153}, {"note": 0, "velocity": 0, "duration": 87}, {"note": 63, "velocity": 80, "duration": 631}, {"note": 0, "velocity": 0, "duration": 89}, {"note": 60, "velocity": 83, "duration": 125}, {"note": 0, "velocity": 0, "duration": 115}, {"note": 63, "velocity": 81, "duration": 169}, {"note": 0, "velocity": 0, "duration": 71}, {"note": 65, "velocity": 84, "duration": 152}, {"note": 0, "velocity": 0, "duration": 88}, {"note": 67, "velocity": 82, "duration": 145}, {"note": 0, "velocity": 0, "duration": 95}, {"note": 68, "velocity": 83, "duration": 86}, {"note": 67, "velocity": 84, "duration": 1171}, {"note": 0, "velocity": 0, "duration": 149}, {"note": 70, "velocity": 79, "duration": 149}, {"note": 0, "velocity": 0, "duration": 91}, {"note": 70, "velocity": 83, "duration": 131}, {"note": 0, "velocity": 0, "duration": 109}, {"note": 70, "velocity": 79, "duration": 137}, {"note": 0, "velocity": 0, "duration": 103}, {"note": 70, "velocity": 90, "duration": 635}, {"note": 0, "velocity": 0, "duration": 85}, {"note": 70, "velocity": 82, "duration": 131}, {"note": 0, "velocity": 0, "duration": 109}, {"note": 70, "velocity": 81, "duration": 153}, {"note": 0, "velocity": 0, "duration": 87}, {"note": 72, "velocity": 82, "duration": 140}, {"note": 0, "velocity": 0, "duration": 100}, {"note": 70, "velocity": 82, "duration": 149}, {"note": 0, "velocity": 0, "duration": 91}, {"note": 68, "velocity": 81, "duration": 200}, {"note": 67, "velocity": 79, "duration": 618}, {"note": 0, "velocity": 0, "duration": 102}, {"note": 67, "velocity": 81, "duration": 161}, {"note": 0, "velocity": 0, "duration": 79}, {"note": 67, "velocity": 80, "duration": 130}, {"note": 0, "velocity": 0, "duration": 110}, {"note": 68, "velocity": 83, "duration": 162}, {"note": 0, "velocity": 0, "duration": 78}, {"note": 67, "velocity": 80, "duration": 199}, {"note": 65, "velocity": 76, "duration": 185}, {"note": 63, "velocity": 70, "duration": 194}, {"note": 0, "velocity": 0, "duration": 526}, {"note": 60, "velocity": 84, "duration": 176}, {"note": 0, "velocity": 0, "duration": 64}, {"note": 63, "velocity": 83, "duration": 150}, {"note": 0, "velocity": 0, "duration": 90}, {"note": 65, "velocity": 79, "duration": 158}, {"note": 0, "velocity": 0, "duration": 82}, {"note": 67, "velocity": 82, "duration": 137}, {"note": 0, "velocity": 0, "duration": 103}, {"note": 68, "velocity": 81, "duration": 196}, {"note": 67, "velocity": 79, "duration": 114}, {"note": 65, "velocity": 71, "duration": 103}, {"note": 63, "velocity": 83, "duration": 1302}, {"note": 0, "velocity": 0, "duration": 11178}, {"note": 67, "velocity": 82, "duration": 137}, {"note": 0, "velocity": 0, "duration": 103}, {"note": 67, "velocity": 82, "duration": 127}, {"note": 0, "velocity": 0, "duration": 113}, {"note": 67, "velocity": 81, "duration": 347}, {"note": 0, "velocity": 0, "duration": 133}, {"note": 67, "velocity": 79, "duration": 110}, {"note": 0, "velocity": 0, "duration": 130}, {"note": 67, "velocity": 80, "duration": 135}, {"note": 0, "velocity": 0, "duration": 105}, {"note": 63, "velocity": 80, "duration": 173}, {"note": 0, "velocity": 0, "duration": 67}, {"note": 65, "velocity": 80, "duration": 154}, {"note": 0, "velocity": 0, "duration": 86}, {"note": 67, "velocity": 78, "duration": 126}, {"note": 0, "velocity": 0, "duration": 114}, {"note": 68, "velocity": 83, "duration": 129}, {"note": 0, "velocity": 0, "duration": 111}, {"note": 67, "velocity": 78, "duration": 294}, {"note": 0, "velocity": 0, "duration": 186}, {"note": 63, "velocity": 72, "duration": 110}, {"note": 0, "velocity": 0, "duration": 130}, {"note": 63, "velocity": 73, "duration": 125}, {"note": 0, "velocity": 0, "duration": 115}, {"note": 60, "velocity": 75, "duration": 138}, {"note": 0, "velocity": 0, "duration": 102}, {"note": 62, "velocity": 78, "duration": 145}, {"note": 0, "velocity": 0, "duration": 95}, {"note": 63, "velocity": 83, "duration": 134}, {"note": 0, "velocity": 0, "duration": 106}, {"note": 65, "velocity": 81, "duration": 149}, {"note": 0, "velocity": 0, "duration": 91}, {"note": 67, "velocity": 80, "duration": 240}, {"note": 63, "velocity": 80, "duration": 244}, {"note": 0, "velocity": 0, "duration": 236}, {"note": 65, "velocity": 79, "duration": 137}, {"note": 0, "velocity": 0, "duration": 103}, {"note": 63, "velocity": 83, "duration": 263}, {"note": 0, "velocity": 0, "duration": 217}, {"note": 60, "velocity": 80, "duration": 158}, {"note": 0, "velocity": 0, "duration": 82}, {"note": 60, "velocity": 83, "duration": 158}, {"note": 0, "velocity": 0, "duration": 82}, {"note": 60, "velocity": 82, "duration": 137}, {"note": 0, "velocity": 0, "duration": 103}, {"note": 67, "velocity": 78, "duration": 146}, {"note": 0, "velocity": 0, "duration": 94}, {"note": 68, "velocity": 68, "duration": 158}, {"note": 0, "velocity": 0, "duration": 82}, {"note": 70, "velocity": 77, "duration": 134}, {"note": 0, "velocity": 0, "duration": 106}, {"note": 67, "velocity": 84, "duration": 141}, {"note": 0, "velocity": 0, "duration": 99}, {"note": 65, "velocity": 78, "duration": 480}, {"note": 0, "velocity": 0, "duration": 240}, {"note": 58, "velocity": 85, "duration": 162}, {"note": 0, "velocity": 0, "duration": 78}, {"note": 70, "velocity": 85, "duration": 450}, {"note": 0, "velocity": 0, "duration": 270}, {"note": 70, "velocity": 83, "duration": 152}, {"note": 0, "velocity": 0, "duration": 88}, {"note": 70, "velocity": 81, "duration": 164}, {"note": 0, "velocity": 0, "duration": 76}, {"note": 72, "velocity": 80, "duration": 131}, {"note": 0, "velocity": 0, "duration": 109}, {"note": 70, "velocity": 81, "duration": 194}, {"note": 68, "velocity": 75, "duration": 134}, {"note": 0, "velocity": 0, "duration": 106}, {"note": 67, "velocity": 78, "duration": 607}, {"note": 0, "velocity": 0, "duration": 113}, {"note": 67, "velocity": 79, "duration": 161}, {"note": 0, "velocity": 0, "duration": 79}, {"note": 67, "velocity": 80, "duration": 152}, {"note": 0, "velocity": 0, "duration": 88}, {"note": 68, "velocity": 81, "duration": 218}, {"note": 67, "velocity": 83, "duration": 192}, {"note": 65, "velocity": 80, "duration": 153}, {"note": 0, "velocity": 0, "duration": 87}, {"note": 63, "velocity": 80, "duration": 631}, {"note": 0, "velocity": 0, "duration": 89}, {"note": 60, "velocity": 83, "duration": 125}, {"note": 0, "velocity": 0, "duration": 115}, {"note": 63, "velocity": 81, "duration": 169}, {"note": 0, "velocity": 0, "duration": 71}, {"note": 65, "velocity": 84, "duration": 152}, {"note": 0, "velocity": 0, "duration": 88}, {"note": 67, "velocity": 82, "duration": 145}, {"note": 0, "velocity": 0, "duration": 95}, {"note": 68, "velocity": 83, "duration": 86}, {"note": 67, "velocity": 84, "duration": 1171}, {"note": 0, "velocity": 0, "duration": 149}, {"note": 70, "velocity": 79, "duration": 149}, {"note": 0, "velocity": 0, "duration": 91}, {"note": 70, "velocity": 83, "duration": 131}, {"note": 0, "velocity": 0, "duration": 109}, {"note": 70, "velocity": 79, "duration": 137}, {"note": 0, "velocity": 0, "duration": 103}, {"note": 70, "velocity": 90, "duration": 635}, {"note": 0, "velocity": 0, "duration": 85}, {"note": 70, "velocity": 82, "duration": 131}, {"note": 0, "velocity": 0, "duration": 109}, {"note": 70, "velocity": 81, "duration": 153}, {"note": 0, "velocity": 0, "duration": 87}, {"note": 72, "velocity": 82, "duration": 140}, {"note": 0, "velocity": 0, "duration": 100}, {"note": 70, "velocity": 82, "duration": 149}, {"note": 0, "velocity": 0, "duration": 91}, {"note": 68, "velocity": 81, "duration": 200}, {"note": 67, "velocity": 79, "duration": 618}, {"note": 0, "velocity": 0, "duration": 102}, {"note": 67, "velocity": 81, "duration": 161}, {"note": 0, "velocity": 0, "duration": 79}, {"note": 67, "velocity": 80, "duration": 130}, {"note": 0, "velocity": 0, "duration": 110}, {"note": 68, "velocity": 83, "duration": 162}, {"note": 0, "velocity": 0, "duration": 78}, {"note": 67, "velocity": 80, "duration": 199}, {"note": 65, "velocity": 76, "duration": 185}, {"note": 63, "velocity": 70, "duration": 194}, {"note": 0, "velocity": 0, "duration": 526}, {"note": 60, "velocity": 84, "duration": 176}, {"note": 0, "velocity": 0, "duration": 64}, {"note": 63, "velocity": 83, "duration": 150}, {"note": 0, "velocity": 0, "duration": 90}, {"note": 65, "velocity": 79, "duration": 158}, {"note": 0, "velocity": 0, "duration": 82}, {"note": 67, "velocity": 82, "duration": 137}, {"note": 0, "velocity": 0, "duration": 103}, {"note": 68, "velocity": 81, "duration": 196}, {"note": 67, "velocity": 79, "duration": 114}, {"note": 65, "velocity": 71, "duration": 103}, {"note": 63, "velocity": 83, "duration": 720}, {"note": 0, "velocity": 0, "duration": 240}, {"note": 70, "velocity": 83, "duration": 181}, {"note": 70, "velocity": 83, "duration": 159}, {"note": 0, "velocity": 0, "duration": 81}, {"note": 70, "velocity": 81, "duration": 149}, {"note": 0, "velocity": 0, "duration": 91}, {"note": 72, "velocity": 83, "duration": 158}, {"note": 0, "velocity": 0, "duration": 82}, {"note": 70, "velocity": 85, "duration": 157}, {"note": 0, "velocity": 0, "duration": 83}, {"note": 67, "velocity": 81, "duration": 186}, {"note": 72, "velocity": 85, "duration": 154}, {"note": 0, "velocity": 0, "duration": 86}, {"note": 70, "velocity": 86, "duration": 157}, {"note": 0, "velocity": 0, "duration": 83}, {"note": 67, "velocity": 81, "duration": 185}, {"note": 72, "velocity": 86, "duration": 158}, {"note": 0, "velocity": 0, "duration": 82}, {"note": 70, "velocity": 86, "duration": 215}, {"note": 67, "velocity": 84, "duration": 604}, {"note": 0, "velocity": 0, "duration": 116}, {"note": 67, "velocity": 80, "duration": 147}, {"note": 0, "velocity": 0, "duration": 93}, {"note": 67, "velocity": 79, "duration": 173}, {"note": 0, "velocity": 0, "duration": 67}, {"note": 68, "velocity": 83, "duration": 161}, {"note": 0, "velocity": 0, "duration": 79}, {"note": 67, "velocity": 80, "duration": 165}, {"note": 0, "velocity": 0, "duration": 75}, {"note": 65, "velocity": 80, "duration": 143}, {"note": 0, "velocity": 0, "duration": 97}, {"note": 63, "velocity": 85, "duration": 616}, {"note": 0, "velocity": 0, "duration": 104}, {"note": 60, "velocity": 83, "duration": 191}, {"note": 63, "velocity": 81, "duration": 169}, {"note": 0, "velocity": 0, "duration": 71}, {"note": 65, "velocity": 81, "duration": 141}, {"note": 0, "velocity": 0, "duration": 99}, {"note": 67, "velocity": 79, "duration": 138}, {"note": 0, "velocity": 0, "duration": 102}, {"note": 68, "velocity": 86, "duration": 149}, {"note": 0, "velocity": 0, "duration": 91}, {"note": 67, "velocity": 81, "duration": 1101}, {"note": 0, "velocity": 0, "duration": 99}, {"note": 70, "velocity": 81, "duration": 183}, {"note": 70, "velocity": 88, "duration": 177}, {"note": 0, "velocity": 0, "duration": 63}, {"note": 70, "velocity": 82, "duration": 154}, {"note": 0, "velocity": 0, "duration": 86}, {"note": 72, "velocity": 80, "duration": 161}, {"note": 0, "velocity": 0, "duration": 79}, {"note": 70, "velocity": 83, "duration": 188}, {"note": 67, "velocity": 80, "duration": 169}, {"note": 0, "velocity": 0, "duration": 71}, {"note": 72, "velocity": 82, "duration": 167}, {"note": 0, "velocity": 0, "duration": 73}, {"note": 70, "velocity": 86, "duration": 173}, {"note": 0, "velocity": 0, "duration": 67}, {"note": 67, "velocity": 81, "duration": 182}, {"note": 72, "velocity": 84, "duration": 150}, {"note": 0, "velocity": 0, "duration": 90}, {"note": 70, "velocity": 86, "duration": 215}, {"note": 67, "velocity": 83, "duration": 660}, {"note": 67, "velocity": 79, "duration": 148}, {"note": 0, "velocity": 0, "duration": 92}, {"note": 67, "velocity": 79, "duration": 152}, {"note": 0, "velocity": 0, "duration": 88}, {"note": 68, "velocity": 81, "duration": 143}, {"note": 0, "velocity": 0, "duration": 97}, {"note": 67, "velocity": 80, "duration": 129}, {"note": 0, "velocity": 0, "duration": 111}, {"note": 65, "velocity": 80, "duration": 172}, {"note": 0, "velocity": 0, "duration": 68}, {"note": 63, "velocity": 79, "duration": 663}, {"note": 60, "velocity": 80, "duration": 166}, {"note": 0, "velocity": 0, "duration": 74}, {"note": 63, "velocity": 80, "duration": 193}, {"note": 65, "velocity": 78, "duration": 161}, {"note": 0, "velocity": 0, "duration": 79}, {"note": 67, "velocity": 76, "duration": 143}, {"note": 0, "velocity": 0, "duration": 97}, {"note": 68, "velocity": 82, "duration": 165}, {"note": 0, "velocity": 0, "duration": 75}, {"note": 67, "velocity": 79, "duration": 772}, {"note": 67, "velocity": 80, "duration": 52}, {"note": 0, "velocity": 0, "duration": 188}, {"note": 67, "velocity": 80, "duration": 196}, {"note": 65, "velocity": 80, "duration": 161}, {"note": 0, "velocity": 0, "duration": 79}, {"note": 65, "velocity": 79, "duration": 286}, {"note": 63, "velocity": 74, "duration": 177}, {"note": 0, "velocity": 0, "duration": 63}, {"note": 63, "velocity": 80, "duration": 630}, {"note": 0, "velocity": 0, "duration": 90}, {"note": 60, "velocity": 79, "duration": 173}, {"note": 0, "velocity": 0, "duration": 67}, {"note": 60, "velocity": 81, "duration": 168}, {"note": 0, "velocity": 0, "duration": 72}, {"note": 62, "velocity": 80, "duration": 153}, {"note": 0, "velocity": 0, "duration": 87}, {"note": 63, "velocity": 81, "duration": 177}, {"note": 0, "velocity": 0, "duration": 63}, {"note": 65, "velocity": 78, "duration": 225}, {"note": 62, "velocity": 83, "duration": 1812}]]