[[{"note": 75, "velocity": 85, "duration": 185}, {"note": 75, "velocity": 96, "duration": 181}, {"note": 75, "velocity": 87, "duration": 72}, {"note": 76, "velocity": 86, "duration": 301}, {"note": 72, "velocity": 84, "duration": 146}, {"note": 0, "velocity": 0, "duration": 94}, {"note": 70, "velocity": 84, "duration": 214}, {"note": 72, "velocity": 74, "duration": 109}, {"note": 70, "velocity": 76, "duration": 309}, {"note": 68, "velocity": 73, "duration": 660}, {"note": 0, "velocity": 0, "duration": 180}, {"note": 73, "velocity": 80, "duration": 180}, {"note": 72, "velocity": 82, "duration": 155}, {"note": 0, "velocity": 0, "duration": 85}, {"note": 70, "velocity": 84, "duration": 220}, {"note": 68, "velocity": 78, "duration": 200}, {"note": 77, "velocity": 84, "duration": 717}, {"note": 0, "velocity": 0, "duration": 123}, {"note": 77, "velocity": 80, "duration": 92}, {"note": 75, "velocity": 84, "duration": 187}, {"note": 77, "velocity": 80, "duration": 99}, {"note": 75, "velocity": 80, "duration": 361}, {"note": 70, "velocity": 73, "duration": 245}, {"note": 72, "velocity": 77, "duration": 915}, {"note": 0, "velocity": 0, "duration": 1005}, {"note": 72, "velocity": 82, "duration": 178}, {"note": 0, "velocity": 0, "duration": 62}, {"note": 72, "velocity": 74, "duration": 164}, {"note": 0, "velocity": 0, "duration": 76}, {"note": 72, "velocity": 75, "duration": 177}, {"note": 0, "velocity": 0, "duration": 63}, {"note": 73, "velocity": 81, "duration": 172}, {"note": 0, "velocity": 0, "duration": 68}, {"note": 72, "velocity": 80, "duration": 187}, {"note": 73, "velocity": 75, "duration": 84}, {"note": 72, "velocity": 81, "duration": 372}, {"note": 0, "velocity": 0, "duration": 228}, {"note": 72, "velocity": 83, "duration": 205}, {"note": 72, "velocity": 82, "duration": 161}, {"note": 0, "velocity": 0, "duration": 79}, {"note": 72, "velocity": 82, "duration": 151}, {"note": 0, "velocity": 0, "duration": 89}, {"note": 72, "velocity": 85, "duration": 172}, {"note": 0, "velocity": 0, "duration": 68}, {"note": 77, "velocity": 82, "duration": 181}, {"note": 72, "velocity": 84, "duration": 96}, {"note": 70, "velocity": 82, "duration": 225}, {"note": 68, "velocity": 80, "duration": 353}, {"note": 0, "velocity": 0, "duration": 247}, {"note": 72, "velocity": 81, "duration": 174}, {"note": 0, "velocity": 0, "duration": 66}, {"note": 75, "velocity": 89, "duration": 167}, {"note": 0, "velocity": 0, "duration": 73}, {"note": 68, "velocity": 80, "duration": 99}, {"note": 70, "velocity": 76, "duration": 263}, {"note": 0, "velocity": 0, "duration": 97}, {"note": 72, "velocity": 80, "duration": 185}, {"note": 75, "velocity": 82, "duration": 347}, {"note": 0, "velocity": 0, "duration": 133}, {"note": 68, "velocity": 74, "duration": 181}, {"note": 70, "velocity": 80, "duration": 1523}, {"note": 0, "velocity": 0, "duration": 397}, {"note": 75, "velocity": 85, "duration": 185}, {"note": 75, "velocity": 96, "duration": 181}, {"note": 75, "velocity": 87, "duration": 72}, {"note": 76, "velocity": 86, "duration": 301}, {"note": 72, "velocity": 84, "duration": 146}, {"note": 0, "velocity": 0, "duration": 94}, {"note": 70, "velocity": 84, "duration": 214}, {"note": 72, "velocity": 74, "duration": 109}, {"note": 70, "velocity": 76, "duration": 240}, {"note": 68, "velocity": 73, "duration": 660}, {"note": 0, "velocity": 0, "duration": 180}, {"note": 73, "velocity": 80, "duration": 180}, {"note": 72, "velocity": 82, "duration": 155}, {"note": 0, "velocity": 0, "duration": 85}, {"note": 70, "velocity": 84, "duration": 220}, {"note": 68, "velocity": 78, "duration": 200}, {"note": 77, "velocity": 84, "duration": 717}, {"note": 0, "velocity": 0, "duration": 123}, {"note": 77, "velocity": 80, "duration": 92}, {"note": 75, "velocity": 84, "duration": 187}, {"note": 77, "velocity": 80, "duration": 99}, {"note": 75, "velocity": 80, "duration": 361}, {"note": 70, "velocity": 73, "duration": 245}, {"note": 72, "velocity": 77, "duration": 1440}, {"note": 0, "velocity": 0, "duration": 240}, {"note": 72, "velocity": 81, "duration": 68}, {"note": 73, "velocity": 82, "duration": 83}, {"note": 75, "velocity": 86, "duration": 193}, {"note": 68, "velocity": 76, "duration": 68}, {"note": 68, "velocity": 78, "duration": 312}, {"note": 70, "velocity": 74, "duration": 95}, {"note": 68, "velocity": 73, "duration": 654}, {"note": 0, "velocity": 0, "duration": 186}, {"note": 72, "velocity": 85, "duration": 71}, {"note": 73, "velocity": 80, "duration": 74}, {"note": 75, "velocity": 85, "duration": 207}, {"note": 72, "velocity": 84, "duration": 78}, {"note": 75, "velocity": 89, "duration": 159}, {"note": 0, "velocity": 0, "duration": 81}, {"note": 79, "velocity": 85, "duration": 195}, {"note": 75, "velocity": 87, "duration": 460}, {"note": 0, "velocity": 0, "duration": 140}, {"note": 77, "velocity": 83, "duration": 70}, {"note": 75, "velocity": 81, "duration": 70}, {"note": 73, "velocity": 81, "duration": 89}, {"note": 72, "velocity": 80, "duration": 76}, {"note": 73, "velocity": 78, "duration": 172}, {"note": 0, "velocity": 0, "duration": 68}, {"note": 75, "velocity": 76, "duration": 78}, {"note": 77, "velocity": 80, "duration": 446}, {"note": 0, "velocity": 0, "duration": 154}, {"note": 77, "velocity": 87, "duration": 170}, {"note": 0, "velocity": 0, "duration": 70}, {"note": 79, "velocity": 82, "duration": 75}, {"note": 80, "velocity": 82, "duration": 329}, {"note": 77, "velocity": 81, "duration": 220}, {"note": 75, "velocity": 84, "duration": 1209}, {"note": 0, "velocity": 0, "duration": 711}, {"note": 80, "velocity": 82, "duration": 193}, {"note": 79, "velocity": 87, "duration": 186}, {"note": 80, "velocity": 82, "duration": 170}, {"note": 0, "velocity": 0, "duration": 70}, {"note": 75, "velocity": 84, "duration": 394}, {"note": 0, "velocity": 0, "duration": 86}, {"note": 72, "velocity": 86, "duration": 178}, {"note": 0, "velocity": 0, "duration": 62}, {"note": 72, "velocity": 89, "duration": 176}, {"note": 0, "velocity": 0, "duration": 64}, {"note": 82, "velocity": 82, "duration": 163}, {"note": 0, "velocity": 0, "duration": 77}, {"note": 82, "velocity": 82, "duration": 169}, {"note": 0, "velocity": 0, "duration": 71}, {"note": 80, "velocity": 82, "duration": 164}, {"note": 0, "velocity": 0, "duration": 76}, {"note": 82, "velocity": 82, "duration": 181}, {"note": 75, "velocity": 91, "duration": 371}, {"note": 0, "velocity": 0, "duration": 109}, {"note": 72, "velocity": 86, "duration": 166}, {"note": 0, "velocity": 0, "duration": 74}, {"note": 72, "velocity": 87, "duration": 161}, {"note": 0, "velocity": 0, "duration": 79}, {"note": 84, "velocity": 82, "duration": 135}, {"note": 0, "velocity": 0, "duration": 105}, {"note": 84, "velocity": 84, "duration": 193}, {"note": 82, "velocity": 80, "duration": 63}, {"note": 82, "velocity": 84, "duration": 288}, {"note": 0, "velocity": 0, "duration": 72}, {"note": 80, "velocity": 81, "duration": 176}, {"note": 0, "velocity": 0, "duration": 64}, {"note": 80, "velocity": 79, "duration": 196}, {"note": 82, "velocity": 79, "duration": 150}, {"note": 0, "velocity": 0, "duration": 90}, {"note": 80, "velocity": 78, "duration": 194}, {"note": 84, "velocity": 82, "duration": 258}, {"note": 82, "velocity": 82, "duration": 167}, {"note": 0, "velocity": 0, "duration": 73}, {"note": 82, "velocity": 82, "duration": 229}, {"note": 82, "velocity": 82, "duration": 179}, {"note": 0, "velocity": 0, "duration": 61}, {"note": 80, "velocity": 86, "duration": 343}, {"note": 0, "velocity": 0, "duration": 377}, {"note": 80, "velocity": 89, "duration": 178}, {"note": 0, "velocity": 0, "duration": 62}, {"note": 82, "velocity": 86, "duration": 100}, {"note": 80, "velocity": 83, "duration": 117}, {"note": 84, "velocity": 85, "duration": 207}, {"note": 77, "velocity": 84, "duration": 173}, {"note": 0, "velocity": 0, "duration": 67}, {"note": 77, "velocity": 81, "duration": 172}, {"note": 0, "velocity": 0, "duration": 68}, {"note": 77, "velocity": 91, "duration": 583}, {"note": 0, "velocity": 0, "duration": 137}, {"note": 80, "velocity": 86, "duration": 193}, {"note": 82, "velocity": 83, "duration": 92}, {"note": 80, "velocity": 82, "duration": 89}, {"note": 84, "velocity": 85, "duration": 205}, {"note": 75, "velocity": 74, "duration": 130}, {"note": 0, "velocity": 0, "duration": 110}, {"note": 75, "velocity": 89, "duration": 164}, {"note": 0, "velocity": 0, "duration": 76}, {"note": 77, "velocity": 84, "duration": 240}, {"note": 75, "velocity": 75, "duration": 480}, {"note": 0, "velocity": 0, "duration": 240}, {"note": 77, "velocity": 86, "duration": 75}, {"note": 79, "velocity": 80, "duration": 97}, {"note": 80, "velocity": 82, "duration": 178}, {"note": 0, "velocity": 0, "duration": 62}, {"note": 80, "velocity": 81, "duration": 189}, {"note": 80, "velocity": 81, "duration": 182}, {"note": 79, "velocity": 83, "duration": 95}, {"note": 80, "velocity": 81, "duration": 645}, {"note": 0, "velocity": 0, "duration": 195}, {"note": 77, "velocity": 84, "duration": 87}, {"note": 79, "velocity": 76, "duration": 78}, {"note": 80, "velocity": 82, "duration": 177}, {"note": 0, "velocity": 0, "duration": 63}, {"note": 80, "velocity": 81, "duration": 192}, {"note": 80, "velocity": 82, "duration": 187}, {"note": 79, "velocity": 86, "duration": 182}, {"note": 80, "velocity": 82, "duration": 438}, {"note": 82, "velocity": 82, "duration": 409}, {"note": 0, "velocity": 0, "duration": 71}, {"note": 80, "velocity": 82, "duration": 193}, {"note": 79, "velocity": 87, "duration": 186}, {"note": 80, "velocity": 82, "duration": 170}, {"note": 0, "velocity": 0, "duration": 70}, {"note": 75, "velocity": 84, "duration": 394}, {"note": 0, "velocity": 0, "duration": 86}, {"note": 72, "velocity": 86, "duration": 178}, {"note": 0, "velocity": 0, "duration": 62}, {"note": 72, "velocity": 89, "duration": 176}, {"note": 0, "velocity": 0, "duration": 64}, {"note": 82, "velocity": 82, "duration": 163}, {"note": 0, "velocity": 0, "duration": 77}, {"note": 82, "velocity": 82, "duration": 169}, {"note": 0, "velocity": 0, "duration": 71}, {"note": 80, "velocity": 82, "duration": 164}, {"note": 0, "velocity": 0, "duration": 76}, {"note": 82, "velocity": 82, "duration": 181}, {"note": 75, "velocity": 91, "duration": 371}, {"note": 0, "velocity": 0, "duration": 109}, {"note": 72, "velocity": 86, "duration": 166}, {"note": 0, "velocity": 0, "duration": 74}, {"note": 72, "velocity": 87, "duration": 161}, {"note": 0, "velocity": 0, "duration": 79}, {"note": 84, "velocity": 82, "duration": 135}, {"note": 0, "velocity": 0, "duration": 105}, {"note": 84, "velocity": 84, "duration": 193}, {"note": 82, "velocity": 80, "duration": 63}, {"note": 82, "velocity": 84, "duration": 288}, {"note": 0, "velocity": 0, "duration": 72}, {"note": 80, "velocity": 81, "duration": 176}, {"note": 0, "velocity": 0, "duration": 64}, {"note": 80, "velocity": 79, "duration": 196}, {"note": 82, "velocity": 79, "duration": 150}, {"note": 0, "velocity": 0, "duration": 90}, {"note": 80, "velocity": 78, "duration": 194}, {"note": 84, "velocity": 82, "duration": 258}, {"note": 82, "velocity": 82, "duration": 167}, {"note": 0, "velocity": 0, "duration": 73}, {"note": 82, "velocity": 82, "duration": 229}, {"note": 82, "velocity": 82, "duration": 179}, {"note": 0, "velocity": 0, "duration": 61}, {"note": 80, "velocity": 86, "duration": 343}, {"note": 0, "velocity": 0, "duration": 377}, {"note": 80, "velocity": 89, "duration": 178}, {"note": 0, "velocity": 0, "duration": 62}, {"note": 82, "velocity": 86, "duration": 100}, {"note": 80, "velocity": 83, "duration": 117}, {"note": 84, "velocity": 85, "duration": 207}, {"note": 77, "velocity": 84, "duration": 173}, {"note": 0, "velocity": 0, "duration": 67}, {"note": 77, "velocity": 81, "duration": 172}, {"note": 0, "velocity": 0, "duration": 68}, {"note": 77, "velocity": 91, "duration": 583}, {"note": 0, "velocity": 0, "duration": 137}, {"note": 80, "velocity": 86, "duration": 193}, {"note": 82, "velocity": 83, "duration": 92}, {"note": 80, "velocity": 82, "duration": 89}, {"note": 84, "velocity": 85, "duration": 205}, {"note": 75, "velocity": 74, "duration": 130}, {"note": 0, "velocity": 0, "duration": 110}, {"note": 75, "velocity": 89, "duration": 164}, {"note": 0, "velocity": 0, "duration": 76}, {"note": 77, "velocity": 84, "duration": 240}, {"note": 75, "velocity": 75, "duration": 480}, {"note": 0, "velocity": 0, "duration": 240}, {"note": 72, "velocity": 87, "duration": 235}, {"note": 73, "velocity": 81, "duration": 241}, {"note": 72, "velocity": 82, "duration": 265}, {"note": 73, "velocity": 85, "duration": 273}, {"note": 75, "velocity": 82, "duration": 256}, {"note": 77, "velocity": 80, "duration": 563}, {"note": 0, "velocity": 0, "duration": 157}, {"note": 72, "velocity": 80, "duration": 241}, {"note": 73, "velocity": 83, "duration": 243}, {"note": 72, "velocity": 80, "duration": 279}, {"note": 73, "velocity": 87, "duration": 226}, {"note": 75, "velocity": 86, "duration": 221}, {"note": 77, "velocity": 80, "duration": 416}, {"note": 0, "velocity": 0, "duration": 64}, {"note": 79, "velocity": 84, "duration": 417}, {"note": 0, "velocity": 0, "duration": 63}, {"note": 80, "velocity": 80, "duration": 1858}, {"note": 0, "velocity": 0, "duration": 6062}, {"note": 75, "velocity": 85, "duration": 185}, {"note": 75, "velocity": 96, "duration": 181}, {"note": 75, "velocity": 87, "duration": 72}, {"note": 76, "velocity": 86, "duration": 301}, {"note": 72, "velocity": 84, "duration": 146}, {"note": 0, "velocity": 0, "duration": 94}, {"note": 70, "velocity": 84, "duration": 214}, {"note": 72, "velocity": 74, "duration": 109}, {"note": 70, "velocity": 76, "duration": 240}, {"note": 68, "velocity": 73, "duration": 660}, {"note": 0, "velocity": 0, "duration": 180}, {"note": 73, "velocity": 80, "duration": 180}, {"note": 72, "velocity": 82, "duration": 155}, {"note": 0, "velocity": 0, "duration": 85}, {"note": 70, "velocity": 84, "duration": 220}, {"note": 68, "velocity": 78, "duration": 200}, {"note": 77, "velocity": 84, "duration": 717}, {"note": 0, "velocity": 0, "duration": 123}, {"note": 77, "velocity": 80, "duration": 92}, {"note": 75, "velocity": 84, "duration": 187}, {"note": 77, "velocity": 80, "duration": 99}, {"note": 75, "velocity": 80, "duration": 361}, {"note": 70, "velocity": 73, "duration": 245}, {"note": 72, "velocity": 77, "duration": 1440}, {"note": 0, "velocity": 0, "duration": 240}, {"note": 72, "velocity": 81, "duration": 68}, {"note": 73, "velocity": 82, "duration": 83}, {"note": 75, "velocity": 86, "duration": 193}, {"note": 68, "velocity": 76, "duration": 68}, {"note": 68, "velocity": 78, "duration": 312}, {"note": 70, "velocity": 74, "duration": 95}, {"note": 68, "velocity": 73, "duration": 654}, {"note": 0, "velocity": 0, "duration": 186}, {"note": 72, "velocity": 85, "duration": 71}, {"note": 73, "velocity": 80, "duration": 74}, {"note": 75, "velocity": 85, "duration": 207}, {"note": 72, "velocity": 84, "duration": 78}, {"note": 75, "velocity": 89, "duration": 159}, {"note": 0, "velocity": 0, "duration": 81}, {"note": 79, "velocity": 85, "duration": 195}, {"note": 75, "velocity": 87, "duration": 460}, {"note": 0, "velocity": 0, "duration": 140}, {"note": 77, "velocity": 83, "duration": 70}, {"note": 75, "velocity": 81, "duration": 70}, {"note": 73, "velocity": 81, "duration": 89}, {"note": 72, "velocity": 80, "duration": 76}, {"note": 73, "velocity": 78, "duration": 172}, {"note": 0, "velocity": 0, "duration": 68}, {"note": 75, "velocity": 76, "duration": 78}, {"note": 77, "velocity": 80, "duration": 446}, {"note": 0, "velocity": 0, "duration": 154}, {"note": 77, "velocity": 87, "duration": 170}, {"note": 0, "velocity": 0, "duration": 70}, {"note": 79, "velocity": 82, "duration": 75}, {"note": 80, "velocity": 82, "duration": 329}, {"note": 77, "velocity": 81, "duration": 220}, {"note": 75, "velocity": 84, "duration": 1209}, {"note": 0, "velocity": 0, "duration": 711}, {"note": 80, "velocity": 82, "duration": 193}, {"note": 79, "velocity": 87, "duration": 186}, {"note": 80, "velocity": 82, "duration": 170}, {"note": 0, "velocity": 0, "duration": 70}, {"note": 75, "velocity": 84, "duration": 394}, {"note": 0, "velocity": 0, "duration": 86}, {"note": 72, "velocity": 86, "duration": 178}, {"note": 0, "velocity": 0, "duration": 62}, {"note": 72, "velocity": 89, "duration": 176}, {"note": 0, "velocity": 0, "duration": 64}, {"note": 82, "velocity": 82, "duration": 163}, {"note": 0, "velocity": 0, "duration": 77}, {"note": 82, "velocity": 82, "duration": 169}, {"note": 0, "velocity": 0, "duration": 71}, {"note": 80, "velocity": 82, "duration": 164}, {"note": 0, "velocity": 0, "duration": 76}, {"note": 82, "velocity": 82, "duration": 181}, {"note": 75, "velocity": 91, "duration": 371}, {"note": 0, "velocity": 0, "duration": 109}, {"note": 72, "velocity": 86, "duration": 166}, {"note": 0, "velocity": 0, "duration": 74}, {"note": 72, "velocity": 87, "duration": 161}, {"note": 0, "velocity": 0, "duration": 79}, {"note": 84, "velocity": 82, "duration": 135}, {"note": 0, "velocity": 0, "duration": 105}, {"note": 84, "velocity": 84, "duration": 193}, {"note": 82, "velocity": 80, "duration": 63}, {"note": 82, "velocity": 84, "duration": 288}, {"note": 0, "velocity": 0, "duration": 72}, {"note": 80, "velocity": 81, "duration": 176}, {"note": 0, "velocity": 0, "duration": 64}, {"note": 80, "velocity": 79, "duration": 196}, {"note": 82, "velocity": 79, "duration": 150}, {"note": 0, "velocity": 0, "duration": 90}, {"note": 80, "velocity": 78, "duration": 194}, {"note": 84, "velocity": 82, "duration": 258}, {"note": 82, "velocity": 82, "duration": 167}, {"note": 0, "velocity": 0, "duration": 73}, {"note": 82, "velocity": 82, "duration": 229}, {"note": 82, "velocity": 82, "duration": 179}, {"note": 0, "velocity": 0, "duration": 61}, {"note": 80, "velocity": 86, "duration": 343}, {"note": 0, "velocity": 0, "duration": 377}, {"note": 80, "velocity": 89, "duration": 178}, {"note": 0, "velocity": 0, "duration": 62}, {"note": 82, "velocity": 86, "duration": 100}, {"note": 80, "velocity": 83, "duration": 117}, {"note": 84, "velocity": 85, "duration": 207}, {"note": 77, "velocity": 84, "duration": 173}, {"note": 0, "velocity": 0, "duration": 67}, {"note": 77, "velocity": 81, "duration": 172}, {"note": 0, "velocity": 0, "duration": 68}, {"note": 77, "velocity": 91, "duration": 583}, {"note": 0, "velocity": 0, "duration": 137}, {"note": 80, "velocity": 86, "duration": 193}, {"note": 82, "velocity": 83, "duration": 92}, {"note": 80, "velocity": 82, "duration": 89}, {"note": 84, "velocity": 85, "duration": 205}, {"note": 75, "velocity": 74, "duration": 130}, {"note": 0, "velocity": 0, "duration": 110}, {"note": 75, "velocity": 89, "duration": 164}, {"note": 0, "velocity": 0, "duration": 76}, {"note": 77, "velocity": 84, "duration": 240}, {"note": 75, "velocity": 75, "duration": 480}, {"note": 0, "velocity": 0, "duration": 240}, {"note": 77, "velocity": 86, "duration": 75}, {"note": 79, "velocity": 80, "duration": 97}, {"note": 80, "velocity": 82, "duration": 178}, {"note": 0, "velocity": 0, "duration": 62}, {"note": 80, "velocity": 81, "duration": 189}, {"note": 80, "velocity": 81, "duration": 182}, {"note": 79, "velocity": 83, "duration": 95}, {"note": 80, "velocity": 81, "duration": 645}, {"note": 0, "velocity": 0, "duration": 195}, {"note": 77, "velocity": 84, "duration": 87}, {"note": 79, "velocity": 76, "duration": 78}, {"note": 80, "velocity": 82, "duration": 177}, {"note": 0, "velocity": 0, "duration": 63}, {"note": 80, "velocity": 81, "duration": 192}, {"note": 80, "velocity": 82, "duration": 187}, {"note": 79, "velocity": 86, "duration": 182}, {"note": 80, "velocity": 82, "duration": 438}, {"note": 82, "velocity": 82, "duration": 409}, {"note": 0, "velocity": 0, "duration": 71}, {"note": 80, "velocity": 82, "duration": 193}, {"note": 79, "velocity": 87, "duration": 186}, {"note": 80, "velocity": 82, "duration": 170}, {"note": 0, "velocity": 0, "duration": 70}, {"note": 75, "velocity": 84, "duration": 394}, {"note": 0, "velocity": 0, "duration": 86}, {"note": 72, "velocity": 86, "duration": 178}, {"note": 0, "velocity": 0, "duration": 62}, {"note": 72, "velocity": 89, "duration": 176}, {"note": 0, "velocity": 0, "duration": 64}, {"note": 82, "velocity": 82, "duration": 163}, {"note": 0, "velocity": 0, "duration": 77}, {"note": 82, "velocity": 82, "duration": 169}, {"note": 0, "velocity": 0, "duration": 71}, {"note": 80, "velocity": 82, "duration": 164}, {"note": 0, "velocity": 0, "duration": 76}, {"note": 82, "velocity": 82, "duration": 181}, {"note": 75, "velocity": 91, "duration": 371}, {"note": 0, "velocity": 0, "duration": 109}, {"note": 72, "velocity": 86, "duration": 166}, {"note": 0, "velocity": 0, "duration": 74}, {"note": 72, "velocity": 87, "duration": 161}, {"note": 0, "velocity": 0, "duration": 79}, {"note": 84, "velocity": 82, "duration": 135}, {"note": 0, "velocity": 0, "duration": 105}, {"note": 84, "velocity": 84, "duration": 193}, {"note": 82, "velocity": 80, "duration": 63}, {"note": 82, "velocity": 84, "duration": 288}, {"note": 0, "velocity": 0, "duration": 72}, {"note": 80, "velocity": 81, "duration": 176}, {"note": 0, "velocity": 0, "duration": 64}, {"note": 80, "velocity": 79, "duration": 196}, {"note": 82, "velocity": 79, "duration": 150}, {"note": 0, "velocity": 0, "duration": 90}, {"note": 80, "velocity": 78, "duration": 194}, {"note": 84, "velocity": 82, "duration": 258}, {"note": 82, "velocity": 82, "duration": 167}, {"note": 0, "velocity": 0, "duration": 73}, {"note": 82, "velocity": 82, "duration": 229}, {"note": 82, "velocity": 82, "duration": 179}, {"note": 0, "velocity": 0, "duration": 61}, {"note": 80, "velocity": 86, "duration": 343}, {"note": 0, "velocity": 0, "duration": 377}, {"note": 80, "velocity": 89, "duration": 178}, {"note": 0, "velocity": 0, "duration": 62}, {"note": 82, "velocity": 86, "duration": 100}, {"note": 80, "velocity": 83, "duration": 117}, {"note": 84, "velocity": 85, "duration": 207}, {"note": 77, "velocity": 84, "duration": 173}, {"note": 0, "velocity": 0, "duration": 67}, {"note": 77, "velocity": 81, "duration": 172}, {"note": 0, "velocity": 0, "duration": 68}, {"note": 77, "velocity": 91, "duration": 583}, {"note": 0, "velocity": 0, "duration": 137}, {"note": 80, "velocity": 86, "duration": 193}, {"note": 82, "velocity": 83, "duration": 92}, {"note": 80, "velocity": 82, "duration": 89}, {"note": 84, "velocity": 85, "duration": 205}, {"note": 75, "velocity": 74, "duration": 130}, {"note": 0, "velocity": 0, "duration": 110}, {"note": 75, "velocity": 89, "duration": 164}, {"note": 0, "velocity": 0, "duration": 76}, {"note": 77, "velocity": 84, "duration": 240}, {"note": 75, "velocity": 75, "duration": 480}, {"note": 0, "velocity": 0, "duration": 240}, {"note": 72, "velocity": 87, "duration": 235}, {"note": 73, "velocity": 81, "duration": 241}, {"note": 72, "velocity": 82, "duration": 265}, {"note": 73, "velocity": 85, "duration": 273}, {"note": 75, "velocity": 82, "duration": 256}, {"note": 77, "velocity": 80, "duration": 563}, {"note": 0, "velocity": 0, "duration": 157}, {"note": 72, "velocity": 80, "duration": 241}, {"note": 73, "velocity": 83, "duration": 243}, {"note": 72, "velocity": 80, "duration": 279}, {"note": 73, "velocity": 87, "duration": 226}, {"note": 75, "velocity": 86, "duration": 221}, {"note": 77, "velocity": 80, "duration": 416}, {"note": 0, "velocity": 0, "duration": 64}, {"note": 79, "velocity": 84, "duration": 417}, {"note": 0, "velocity": 0, "duration": 63}, {"note": 80, "velocity": 80, "duration": 1858}, {"note": 0, "velocity": 0, "duration": 1982}, {"note": 80, "velocity": 82, "duration": 193}, {"note": 79, "velocity": 87, "duration": 186}, {"note": 80, "velocity": 82, "duration": 170}, {"note": 0, "velocity": 0, "duration": 70}, {"note": 75, "velocity": 84, "duration": 394}, {"note": 0, "velocity": 0, "duration": 86}, {"note": 72, "velocity": 86, "duration": 178}, {"note": 0, "velocity": 0, "duration": 62}, {"note": 72, "velocity": 89, "duration": 176}, {"note": 0, "velocity": 0, "duration": 64}, {"note": 82, "velocity": 82, "duration": 163}, {"note": 0, "velocity": 0, "duration": 77}, {"note": 82, "velocity": 82, "duration": 169}, {"note": 0, "velocity": 0, "duration": 71}, {"note": 80, "velocity": 82, "duration": 164}, {"note": 0, "velocity": 0, "duration": 76}, {"note": 82, "velocity": 82, "duration": 181}, {"note": 75, "velocity": 91, "duration": 371}, {"note": 0, "velocity": 0, "duration": 109}, {"note": 72, "velocity": 86, "duration": 166}, {"note": 0, "velocity": 0, "duration": 74}, {"note": 72, "velocity": 87, "duration": 161}, {"note": 0, "velocity": 0, "duration": 79}, {"note": 84, "velocity": 82, "duration": 135}, {"note": 0, "velocity": 0, "duration": 105}, {"note": 84, "velocity": 84, "duration": 193}, {"note": 82, "velocity": 80, "duration": 63}, {"note": 82, "velocity": 84, "duration": 288}, {"note": 0, "velocity": 0, "duration": 72}, {"note": 80, "velocity": 81, "duration": 176}, {"note": 0, "velocity": 0, "duration": 64}, {"note": 80, "velocity": 79, "duration": 196}, {"note": 82, "velocity": 79, "duration": 150}, {"note": 0, "velocity": 0, "duration": 90}, {"note": 80, "velocity": 78, "duration": 194}, {"note": 84, "velocity": 82, "duration": 258}, {"note": 82, "velocity": 82, "duration": 167}, {"note": 0, "velocity": 0, "duration": 73}, {"note": 82, "velocity": 82, "duration": 229}, {"note": 82, "velocity": 82, "duration": 179}, {"note": 0, "velocity": 0, "duration": 61}, {"note": 80, "velocity": 86, "duration": 343}, {"note": 0, "velocity": 0, "duration": 377}, {"note": 80, "velocity": 89, "duration": 178}, {"note": 0, "velocity": 0, "duration": 62}, {"note": 82, "velocity": 86, "duration": 100}, {"note": 80, "velocity": 83, "duration": 117}, {"note": 84, "velocity": 85, "duration": 207}, {"note": 77, "velocity": 84, "duration": 173}, {"note": 0, "velocity": 0, "duration": 67}, {"note": 77, "velocity": 81, "duration": 172}, {"note": 0, "velocity": 0, "duration": 68}, {"note": 77, "velocity": 91, "duration": 583}, {"note": 0, "velocity": 0, "duration": 137}, {"note": 80, "velocity": 86, "duration": 193}, {"note": 82, "velocity": 83, "duration": 92}, {"note": 80, "velocity": 82, "duration": 89}, {"note": 84, "velocity": 85, "duration": 205}, {"note": 75, "velocity": 74, "duration": 130}, {"note": 0, "velocity": 0, "duration": 110}, {"note": 75, "velocity": 89, "duration": 164}, {"note": 0, "velocity": 0, "duration": 76}, {"note": 77, "velocity": 84, "duration": 240}, {"note": 75, "velocity": 75, "duration": 480}, {"note": 0, "velocity": 0, "duration": 240}, {"note": 72, "velocity": 87, "duration": 235}, {"note": 73, "velocity": 81, "duration": 241}, {"note": 72, "velocity": 82, "duration": 265}, {"note": 73, "velocity": 85, "duration": 273}, {"note": 75, "velocity": 82, "duration": 256}, {"note": 77, "velocity": 80, "duration": 563}, {"note": 0, "velocity": 0, "duration": 157}, {"note": 72, "velocity": 80, "duration": 241}, {"note": 73, "velocity": 83, "duration": 243}, {"note": 72, "velocity": 80, "duration": 279}, {"note": 73, "velocity": 87, "duration": 226}, {"note": 75, "velocity": 86, "duration": 221}, {"note": 77, "velocity": 80, "duration": 416}, {"note": 0, "velocity": 0, "duration": 64}, {"note": 79, "velocity": 84, "duration": 417}, {"note": 0, "velocity": 0, "duration": 63}, {"note": 80, "velocity": 80, "duration": 1858}]]