[[{"note": 55, "velocity": 84, "duration": 121}, {"note": 67, "velocity": 85, "duration": 210}, {"note": 0, "velocity": 0, "duration": 89}, {"note": 65, "velocity": 82, "duration": 143}, {"note": 63, "velocity": 83, "duration": 256}, {"note": 62, "velocity": 79, "duration": 135}, {"note": 63, "velocity": 87, "duration": 401}, {"note": 60, "velocity": 86, "duration": 103}, {"note": 63, "velocity": 89, "duration": 169}, {"note": 70, "velocity": 83, "duration": 168}, {"note": 0, "velocity": 0, "duration": 72}, {"note": 70, "velocity": 94, "duration": 191}, {"note": 68, "velocity": 85, "duration": 160}, {"note": 0, "velocity": 0, "duration": 75}, {"note": 68, "velocity": 85, "duration": 248}, {"note": 67, "velocity": 74, "duration": 233}, {"note": 65, "velocity": 83, "duration": 701}, {"note": 0, "velocity": 0, "duration": 267}, {"note": 62, "velocity": 85, "duration": 322}, {"note": 63, "velocity": 75, "duration": 91}, {"note": 65, "velocity": 84, "duration": 183}, {"note": 0, "velocity": 0, "duration": 61}, {"note": 62, "velocity": 85, "duration": 110}, {"note": 58, "velocity": 83, "duration": 392}, {"note": 0, "velocity": 0, "duration": 83}, {"note": 58, "velocity": 81, "duration": 106}, {"note": 60, "velocity": 85, "duration": 227}, {"note": 72, "velocity": 85, "duration": 151}, {"note": 0, "velocity": 0, "duration": 82}, {"note": 72, "velocity": 89, "duration": 177}, {"note": 70, "velocity": 92, "duration": 175}, {"note": 0, "velocity": 0, "duration": 76}, {"note": 70, "velocity": 86, "duration": 240}, {"note": 68, "velocity": 83, "duration": 117}, {"note": 67, "velocity": 79, "duration": 833}, {"note": 65, "velocity": 83, "duration": 101}, {"note": 67, "velocity": 83, "duration": 99}, {"note": 68, "velocity": 85, "duration": 238}, {"note": 67, "velocity": 75, "duration": 117}, {"note": 65, "velocity": 79, "duration": 492}, {"note": 0, "velocity": 0, "duration": 96}, {"note": 62, "velocity": 79, "duration": 178}, {"note": 0, "velocity": 0, "duration": 61}, {"note": 62, "velocity": 78, "duration": 96}, {"note": 63, "velocity": 84, "duration": 203}, {"note": 65, "velocity": 87, "duration": 319}, {"note": 67, "velocity": 88, "duration": 316}, {"note": 72, "velocity": 83, "duration": 274}, {"note": 0, "velocity": 0, "duration": 93}, {"note": 67, "velocity": 83, "duration": 103}, {"note": 65, "velocity": 81, "duration": 125}, {"note": 63, "velocity": 84, "duration": 566}, {"note": 0, "velocity": 0, "duration": 289}, {"note": 55, "velocity": 85, "duration": 97}, {"note": 67, "velocity": 83, "duration": 169}, {"note": 65, "velocity": 83, "duration": 68}, {"note": 65, "velocity": 81, "duration": 70}, {"note": 0, "velocity": 0, "duration": 62}, {"note": 63, "velocity": 84, "duration": 199}, {"note": 62, "velocity": 84, "duration": 162}, {"note": 0, "velocity": 0, "duration": 78}, {"note": 62, "velocity": 86, "duration": 201}, {"note": 63, "velocity": 84, "duration": 198}, {"note": 62, "velocity": 83, "duration": 164}, {"note": 58, "velocity": 85, "duration": 185}, {"note": 62, "velocity": 79, "duration": 468}, {"note": 62, "velocity": 83, "duration": 176}, {"note": 60, "velocity": 84, "duration": 230}, {"note": 60, "velocity": 84, "duration": 783}, {"note": 0, "velocity": 0, "duration": 176}, {"note": 68, "velocity": 87, "duration": 103}, {"note": 67, "velocity": 80, "duration": 95}, {"note": 68, "velocity": 90, "duration": 109}, {"note": 67, "velocity": 83, "duration": 79}, {"note": 68, "velocity": 92, "duration": 178}, {"note": 0, "velocity": 0, "duration": 62}, {"note": 68, "velocity": 85, "duration": 72}, {"note": 70, "velocity": 89, "duration": 77}, {"note": 72, "velocity": 88, "duration": 282}, {"note": 0, "velocity": 0, "duration": 78}, {"note": 70, "velocity": 88, "duration": 317}, {"note": 68, "velocity": 85, "duration": 177}, {"note": 0, "velocity": 0, "duration": 63}, {"note": 67, "velocity": 84, "duration": 128}, {"note": 68, "velocity": 86, "duration": 138}, {"note": 67, "velocity": 84, "duration": 1257}, {"note": 0, "velocity": 0, "duration": 423}, {"note": 65, "velocity": 84, "duration": 82}, {"note": 63, "velocity": 83, "duration": 90}, {"note": 65, "velocity": 83, "duration": 90}, {"note": 63, "velocity": 84, "duration": 87}, {"note": 65, "velocity": 85, "duration": 183}, {"note": 65, "velocity": 83, "duration": 60}, {"note": 67, "velocity": 84, "duration": 62}, {"note": 68, "velocity": 85, "duration": 180}, {"note": 67, "velocity": 86, "duration": 173}, {"note": 0, "velocity": 0, "duration": 67}, {"note": 62, "velocity": 84, "duration": 72}, {"note": 67, "velocity": 82, "duration": 312}, {"note": 67, "velocity": 85, "duration": 1238}, {"note": 0, "velocity": 0, "duration": 682}, {"note": 68, "velocity": 94, "duration": 77}, {"note": 67, "velocity": 74, "duration": 75}, {"note": 68, "velocity": 84, "duration": 91}, {"note": 67, "velocity": 83, "duration": 72}, {"note": 68, "velocity": 85, "duration": 193}, {"note": 68, "velocity": 88, "duration": 77}, {"note": 70, "velocity": 87, "duration": 77}, {"note": 72, "velocity": 87, "duration": 226}, {"note": 70, "velocity": 86, "duration": 75}, {"note": 70, "velocity": 87, "duration": 304}, {"note": 68, "velocity": 84, "duration": 217}, {"note": 67, "velocity": 87, "duration": 277}, {"note": 0, "velocity": 0, "duration": 83}, {"note": 70, "velocity": 87, "duration": 313}, {"note": 75, "velocity": 88, "duration": 83}, {"note": 74, "velocity": 83, "duration": 98}, {"note": 72, "velocity": 84, "duration": 813}, {"note": 0, "velocity": 0, "duration": 627}, {"note": 72, "velocity": 83, "duration": 80}, {"note": 72, "velocity": 84, "duration": 72}, {"note": 72, "velocity": 85, "duration": 72}, {"note": 72, "velocity": 85, "duration": 78}, {"note": 72, "velocity": 84, "duration": 175}, {"note": 0, "velocity": 0, "duration": 65}, {"note": 74, "velocity": 87, "duration": 72}, {"note": 75, "velocity": 84, "duration": 342}, {"note": 72, "velocity": 88, "duration": 219}, {"note": 74, "velocity": 94, "duration": 207}, {"note": 75, "velocity": 89, "duration": 71}, {"note": 74, "velocity": 88, "duration": 829}, {"note": 67, "velocity": 87, "duration": 173}, {"note": 0, "velocity": 0, "duration": 67}, {"note": 79, "velocity": 85, "duration": 185}, {"note": 77, "velocity": 86, "duration": 153}, {"note": 0, "velocity": 0, "duration": 87}, {"note": 75, "velocity": 87, "duration": 199}, {"note": 74, "velocity": 84, "duration": 77}, {"note": 75, "velocity": 86, "duration": 787}, {"note": 67, "velocity": 88, "duration": 177}, {"note": 0, "velocity": 0, "duration": 63}, {"note": 79, "velocity": 87, "duration": 175}, {"note": 0, "velocity": 0, "duration": 65}, {"note": 77, "velocity": 87, "duration": 182}, {"note": 75, "velocity": 89, "duration": 360}, {"note": 68, "velocity": 86, "duration": 712}, {"note": 0, "velocity": 0, "duration": 128}, {"note": 65, "velocity": 99, "duration": 195}, {"note": 77, "velocity": 87, "duration": 176}, {"note": 0, "velocity": 0, "duration": 64}, {"note": 75, "velocity": 90, "duration": 178}, {"note": 0, "velocity": 0, "duration": 62}, {"note": 74, "velocity": 83, "duration": 72}, {"note": 75, "velocity": 87, "duration": 95}, {"note": 74, "velocity": 97, "duration": 240}, {"note": 74, "velocity": 94, "duration": 142}, {"note": 0, "velocity": 0, "duration": 98}, {"note": 72, "velocity": 84, "duration": 82}, {"note": 70, "velocity": 89, "duration": 304}, {"note": 72, "velocity": 85, "duration": 181}, {"note": 74, "velocity": 92, "duration": 180}, {"note": 68, "velocity": 87, "duration": 175}, {"note": 0, "velocity": 0, "duration": 65}, {"note": 68, "velocity": 90, "duration": 228}, {"note": 67, "velocity": 85, "duration": 80}, {"note": 67, "velocity": 88, "duration": 120}, {"note": 70, "velocity": 89, "duration": 179}, {"note": 0, "velocity": 0, "duration": 61}, {"note": 68, "velocity": 85, "duration": 70}, {"note": 67, "velocity": 84, "duration": 299}, {"note": 0, "velocity": 0, "duration": 61}, {"note": 67, "velocity": 88, "duration": 197}, {"note": 79, "velocity": 89, "duration": 181}, {"note": 77, "velocity": 90, "duration": 211}, {"note": 75, "velocity": 87, "duration": 236}, {"note": 74, "velocity": 86, "duration": 72}, {"note": 75, "velocity": 85, "duration": 650}, {"note": 0, "velocity": 0, "duration": 190}, {"note": 72, "velocity": 87, "duration": 143}, {"note": 0, "velocity": 0, "duration": 97}, {"note": 75, "velocity": 90, "duration": 223}, {"note": 79, "velocity": 88, "duration": 178}, {"note": 0, "velocity": 0, "duration": 62}, {"note": 80, "velocity": 90, "duration": 305}, {"note": 80, "velocity": 89, "duration": 349}, {"note": 79, "velocity": 83, "duration": 109}, {"note": 77, "velocity": 85, "duration": 600}, {"note": 0, "velocity": 0, "duration": 720}, {"note": 74, "velocity": 94, "duration": 97}, {"note": 75, "velocity": 87, "duration": 118}, {"note": 74, "velocity": 94, "duration": 200}, {"note": 75, "velocity": 85, "duration": 115}, {"note": 74, "velocity": 86, "duration": 304}, {"note": 75, "velocity": 87, "duration": 185}, {"note": 74, "velocity": 90, "duration": 162}, {"note": 0, "velocity": 0, "duration": 78}, {"note": 67, "velocity": 87, "duration": 195}, {"note": 74, "velocity": 94, "duration": 470}, {"note": 72, "velocity": 87, "duration": 1315}, {"note": 0, "velocity": 0, "duration": 15485}, {"note": 68, "velocity": 87, "duration": 103}, {"note": 67, "velocity": 80, "duration": 95}, {"note": 68, "velocity": 90, "duration": 109}, {"note": 67, "velocity": 83, "duration": 79}, {"note": 68, "velocity": 92, "duration": 178}, {"note": 0, "velocity": 0, "duration": 62}, {"note": 68, "velocity": 85, "duration": 72}, {"note": 70, "velocity": 89, "duration": 77}, {"note": 72, "velocity": 88, "duration": 282}, {"note": 0, "velocity": 0, "duration": 78}, {"note": 70, "velocity": 88, "duration": 317}, {"note": 68, "velocity": 85, "duration": 177}, {"note": 0, "velocity": 0, "duration": 63}, {"note": 67, "velocity": 84, "duration": 128}, {"note": 68, "velocity": 86, "duration": 138}, {"note": 67, "velocity": 84, "duration": 1257}, {"note": 0, "velocity": 0, "duration": 423}, {"note": 65, "velocity": 84, "duration": 82}, {"note": 63, "velocity": 83, "duration": 90}, {"note": 65, "velocity": 83, "duration": 90}, {"note": 63, "velocity": 84, "duration": 87}, {"note": 65, "velocity": 85, "duration": 183}, {"note": 65, "velocity": 83, "duration": 60}, {"note": 67, "velocity": 84, "duration": 62}, {"note": 68, "velocity": 85, "duration": 180}, {"note": 67, "velocity": 86, "duration": 173}, {"note": 0, "velocity": 0, "duration": 67}, {"note": 62, "velocity": 84, "duration": 72}, {"note": 67, "velocity": 82, "duration": 312}, {"note": 67, "velocity": 85, "duration": 1238}, {"note": 0, "velocity": 0, "duration": 682}, {"note": 68, "velocity": 94, "duration": 77}, {"note": 67, "velocity": 74, "duration": 75}, {"note": 68, "velocity": 84, "duration": 91}, {"note": 67, "velocity": 83, "duration": 72}, {"note": 68, "velocity": 85, "duration": 193}, {"note": 68, "velocity": 88, "duration": 77}, {"note": 70, "velocity": 87, "duration": 77}, {"note": 72, "velocity": 87, "duration": 226}, {"note": 70, "velocity": 86, "duration": 75}, {"note": 70, "velocity": 87, "duration": 304}, {"note": 68, "velocity": 84, "duration": 217}, {"note": 67, "velocity": 87, "duration": 277}, {"note": 0, "velocity": 0, "duration": 83}, {"note": 70, "velocity": 87, "duration": 313}, {"note": 75, "velocity": 88, "duration": 83}, {"note": 74, "velocity": 83, "duration": 98}, {"note": 72, "velocity": 84, "duration": 813}, {"note": 0, "velocity": 0, "duration": 627}, {"note": 72, "velocity": 83, "duration": 80}, {"note": 72, "velocity": 84, "duration": 72}, {"note": 72, "velocity": 85, "duration": 72}, {"note": 72, "velocity": 85, "duration": 78}, {"note": 72, "velocity": 84, "duration": 175}, {"note": 0, "velocity": 0, "duration": 65}, {"note": 74, "velocity": 87, "duration": 72}, {"note": 75, "velocity": 84, "duration": 342}, {"note": 72, "velocity": 88, "duration": 219}, {"note": 74, "velocity": 94, "duration": 207}, {"note": 75, "velocity": 89, "duration": 71}, {"note": 74, "velocity": 88, "duration": 829}, {"note": 67, "velocity": 87, "duration": 173}, {"note": 0, "velocity": 0, "duration": 67}, {"note": 79, "velocity": 85, "duration": 185}, {"note": 77, "velocity": 86, "duration": 153}, {"note": 0, "velocity": 0, "duration": 87}, {"note": 75, "velocity": 87, "duration": 199}, {"note": 74, "velocity": 84, "duration": 77}, {"note": 75, "velocity": 86, "duration": 787}, {"note": 67, "velocity": 88, "duration": 177}, {"note": 0, "velocity": 0, "duration": 63}, {"note": 79, "velocity": 87, "duration": 175}, {"note": 0, "velocity": 0, "duration": 65}, {"note": 77, "velocity": 87, "duration": 182}, {"note": 75, "velocity": 89, "duration": 360}, {"note": 68, "velocity": 86, "duration": 712}, {"note": 0, "velocity": 0, "duration": 128}, {"note": 65, "velocity": 99, "duration": 195}, {"note": 77, "velocity": 87, "duration": 176}, {"note": 0, "velocity": 0, "duration": 64}, {"note": 75, "velocity": 90, "duration": 178}, {"note": 0, "velocity": 0, "duration": 62}, {"note": 74, "velocity": 83, "duration": 72}, {"note": 75, "velocity": 87, "duration": 95}, {"note": 74, "velocity": 97, "duration": 240}, {"note": 74, "velocity": 94, "duration": 142}, {"note": 0, "velocity": 0, "duration": 98}, {"note": 72, "velocity": 84, "duration": 82}, {"note": 70, "velocity": 89, "duration": 304}, {"note": 72, "velocity": 85, "duration": 181}, {"note": 74, "velocity": 92, "duration": 180}, {"note": 68, "velocity": 87, "duration": 175}, {"note": 0, "velocity": 0, "duration": 65}, {"note": 68, "velocity": 90, "duration": 228}, {"note": 67, "velocity": 85, "duration": 80}, {"note": 67, "velocity": 88, "duration": 120}, {"note": 70, "velocity": 89, "duration": 179}, {"note": 0, "velocity": 0, "duration": 61}, {"note": 68, "velocity": 85, "duration": 70}, {"note": 67, "velocity": 84, "duration": 299}, {"note": 0, "velocity": 0, "duration": 61}, {"note": 67, "velocity": 88, "duration": 197}, {"note": 79, "velocity": 89, "duration": 181}, {"note": 77, "velocity": 90, "duration": 211}, {"note": 75, "velocity": 87, "duration": 236}, {"note": 74, "velocity": 86, "duration": 72}, {"note": 75, "velocity": 85, "duration": 650}, {"note": 0, "velocity": 0, "duration": 190}, {"note": 72, "velocity": 87, "duration": 143}, {"note": 0, "velocity": 0, "duration": 97}, {"note": 75, "velocity": 90, "duration": 223}, {"note": 79, "velocity": 88, "duration": 178}, {"note": 0, "velocity": 0, "duration": 62}, {"note": 80, "velocity": 90, "duration": 305}, {"note": 80, "velocity": 89, "duration": 349}, {"note": 79, "velocity": 83, "duration": 109}, {"note": 77, "velocity": 85, "duration": 600}, {"note": 0, "velocity": 0, "duration": 720}, {"note": 74, "velocity": 94, "duration": 97}, {"note": 75, "velocity": 87, "duration": 118}, {"note": 74, "velocity": 94, "duration": 200}, {"note": 75, "velocity": 85, "duration": 115}, {"note": 74, "velocity": 86, "duration": 304}, {"note": 75, "velocity": 87, "duration": 185}, {"note": 74, "velocity": 90, "duration": 162}, {"note": 0, "velocity": 0, "duration": 78}, {"note": 67, "velocity": 87, "duration": 195}, {"note": 74, "velocity": 94, "duration": 470}, {"note": 72, "velocity": 87, "duration": 604}, {"note": 0, "velocity": 0, "duration": 116}, {"note": 67, "velocity": 87, "duration": 173}, {"note": 0, "velocity": 0, "duration": 67}, {"note": 79, "velocity": 85, "duration": 185}, {"note": 77, "velocity": 86, "duration": 153}, {"note": 0, "velocity": 0, "duration": 87}, {"note": 75, "velocity": 87, "duration": 199}, {"note": 74, "velocity": 84, "duration": 77}, {"note": 75, "velocity": 86, "duration": 787}, {"note": 67, "velocity": 88, "duration": 177}, {"note": 0, "velocity": 0, "duration": 63}, {"note": 79, "velocity": 87, "duration": 175}, {"note": 0, "velocity": 0, "duration": 65}, {"note": 77, "velocity": 87, "duration": 182}, {"note": 75, "velocity": 89, "duration": 360}, {"note": 68, "velocity": 86, "duration": 712}, {"note": 0, "velocity": 0, "duration": 128}, {"note": 65, "velocity": 99, "duration": 195}, {"note": 77, "velocity": 87, "duration": 176}, {"note": 0, "velocity": 0, "duration": 64}, {"note": 75, "velocity": 90, "duration": 178}, {"note": 0, "velocity": 0, "duration": 62}, {"note": 74, "velocity": 83, "duration": 72}, {"note": 75, "velocity": 87, "duration": 95}, {"note": 74, "velocity": 97, "duration": 240}, {"note": 74, "velocity": 94, "duration": 142}, {"note": 0, "velocity": 0, "duration": 98}, {"note": 72, "velocity": 84, "duration": 82}, {"note": 70, "velocity": 89, "duration": 304}, {"note": 72, "velocity": 85, "duration": 181}, {"note": 74, "velocity": 92, "duration": 180}, {"note": 68, "velocity": 87, "duration": 175}, {"note": 0, "velocity": 0, "duration": 65}, {"note": 68, "velocity": 90, "duration": 228}, {"note": 67, "velocity": 85, "duration": 80}, {"note": 67, "velocity": 88, "duration": 120}, {"note": 70, "velocity": 89, "duration": 179}, {"note": 0, "velocity": 0, "duration": 61}, {"note": 68, "velocity": 85, "duration": 70}, {"note": 67, "velocity": 84, "duration": 299}, {"note": 0, "velocity": 0, "duration": 61}, {"note": 67, "velocity": 88, "duration": 197}, {"note": 79, "velocity": 89, "duration": 181}, {"note": 77, "velocity": 90, "duration": 211}, {"note": 75, "velocity": 87, "duration": 236}, {"note": 74, "velocity": 86, "duration": 72}, {"note": 75, "velocity": 85, "duration": 650}, {"note": 0, "velocity": 0, "duration": 190}, {"note": 72, "velocity": 87, "duration": 143}, {"note": 0, "velocity": 0, "duration": 97}, {"note": 75, "velocity": 90, "duration": 223}, {"note": 79, "velocity": 88, "duration": 178}, {"note": 0, "velocity": 0, "duration": 62}, {"note": 80, "velocity": 90, "duration": 305}, {"note": 80, "velocity": 89, "duration": 349}, {"note": 79, "velocity": 83, "duration": 109}, {"note": 77, "velocity": 85, "duration": 600}, {"note": 0, "velocity": 0, "duration": 720}, {"note": 74, "velocity": 94, "duration": 97}, {"note": 75, "velocity": 87, "duration": 118}, {"note": 74, "velocity": 94, "duration": 200}, {"note": 75, "velocity": 85, "duration": 115}, {"note": 74, "velocity": 86, "duration": 304}, {"note": 75, "velocity": 87, "duration": 185}, {"note": 74, "velocity": 90, "duration": 162}, {"note": 0, "velocity": 0, "duration": 78}, {"note": 67, "velocity": 87, "duration": 195}, {"note": 74, "velocity": 94, "duration": 470}, {"note": 72, "velocity": 87, "duration": 1315}]]