[[{"note": 61, "velocity": 84, "duration": 177}, {"note": 0, "velocity": 0, "duration": 63}, {"note": 61, "velocity": 89, "duration": 198}, {"note": 66, "velocity": 86, "duration": 228}, {"note": 65, "velocity": 86, "duration": 247}, {"note": 66, "velocity": 87, "duration": 180}, {"note": 66, "velocity": 85, "duration": 549}, {"note": 0, "velocity": 0, "duration": 171}, {"note": 61, "velocity": 84, "duration": 155}, {"note": 0, "velocity": 0, "duration": 85}, {"note": 61, "velocity": 84, "duration": 181}, {"note": 66, "velocity": 84, "duration": 222}, {"note": 65, "velocity": 83, "duration": 480}, {"note": 61, "velocity": 87, "duration": 370}, {"note": 0, "velocity": 0, "duration": 350}, {"note": 58, "velocity": 77, "duration": 158}, {"note": 0, "velocity": 0, "duration": 82}, {"note": 58, "velocity": 86, "duration": 170}, {"note": 0, "velocity": 0, "duration": 70}, {"note": 61, "velocity": 92, "duration": 174}, {"note": 0, "velocity": 0, "duration": 66}, {"note": 61, "velocity": 85, "duration": 165}, {"note": 0, "velocity": 0, "duration": 75}, {"note": 54, "velocity": 84, "duration": 169}, {"note": 0, "velocity": 0, "duration": 71}, {"note": 56, "velocity": 84, "duration": 200}, {"note": 54, "velocity": 84, "duration": 69}, {"note": 54, "velocity": 83, "duration": 91}, {"note": 54, "velocity": 84, "duration": 187}, {"note": 56, "velocity": 84, "duration": 188}, {"note": 58, "velocity": 86, "duration": 210}, {"note": 56, "velocity": 87, "duration": 325}, {"note": 0, "velocity": 0, "duration": 155}, {"note": 54, "velocity": 83, "duration": 175}, {"note": 0, "velocity": 0, "duration": 65}, {"note": 58, "velocity": 83, "duration": 192}, {"note": 56, "velocity": 84, "duration": 266}, {"note": 0, "velocity": 0, "duration": 214}, {"note": 61, "velocity": 84, "duration": 177}, {"note": 0, "velocity": 0, "duration": 63}, {"note": 61, "velocity": 89, "duration": 198}, {"note": 66, "velocity": 86, "duration": 228}, {"note": 65, "velocity": 86, "duration": 247}, {"note": 66, "velocity": 87, "duration": 180}, {"note": 66, "velocity": 85, "duration": 549}, {"note": 0, "velocity": 0, "duration": 171}, {"note": 66, "velocity": 83, "duration": 202}, {"note": 68, "velocity": 87, "duration": 211}, {"note": 66, "velocity": 83, "duration": 209}, {"note": 70, "velocity": 84, "duration": 216}, {"note": 66, "velocity": 84, "duration": 203}, {"note": 68, "velocity": 81, "duration": 201}, {"note": 66, "velocity": 84, "duration": 303}, {"note": 0, "velocity": 0, "duration": 177}, {"note": 73, "velocity": 84, "duration": 171}, {"note": 0, "velocity": 0, "duration": 69}, {"note": 70, "velocity": 82, "duration": 192}, {"note": 66, "velocity": 82, "duration": 168}, {"note": 0, "velocity": 0, "duration": 72}, {"note": 68, "velocity": 82, "duration": 190}, {"note": 66, "velocity": 83, "duration": 173}, {"note": 0, "velocity": 0, "duration": 67}, {"note": 61, "velocity": 85, "duration": 181}, {"note": 66, "velocity": 87, "duration": 360}, {"note": 0, "velocity": 0, "duration": 120}, {"note": 66, "velocity": 86, "duration": 186}, {"note": 70, "velocity": 85, "duration": 206}, {"note": 66, "velocity": 84, "duration": 168}, {"note": 0, "velocity": 0, "duration": 72}, {"note": 66, "velocity": 85, "duration": 433}, {"note": 68, "velocity": 83, "duration": 386}, {"note": 0, "velocity": 0, "duration": 94}, {"note": 70, "velocity": 86, "duration": 617}, {"note": 0, "velocity": 0, "duration": 103}, {"note": 70, "velocity": 87, "duration": 183}, {"note": 68, "velocity": 85, "duration": 171}, {"note": 0, "velocity": 0, "duration": 69}, {"note": 70, "velocity": 86, "duration": 177}, {"note": 0, "velocity": 0, "duration": 63}, {"note": 68, "velocity": 84, "duration": 187}, {"note": 66, "velocity": 85, "duration": 152}, {"note": 0, "velocity": 0, "duration": 88}, {"note": 63, "velocity": 85, "duration": 171}, {"note": 0, "velocity": 0, "duration": 69}, {"note": 66, "velocity": 84, "duration": 169}, {"note": 0, "velocity": 0, "duration": 71}, {"note": 68, "velocity": 84, "duration": 169}, {"note": 0, "velocity": 0, "duration": 71}, {"note": 70, "velocity": 85, "duration": 163}, {"note": 0, "velocity": 0, "duration": 77}, {"note": 70, "velocity": 84, "duration": 352}, {"note": 0, "velocity": 0, "duration": 128}, {"note": 61, "velocity": 87, "duration": 402}, {"note": 0, "velocity": 0, "duration": 78}, {"note": 70, "velocity": 86, "duration": 579}, {"note": 0, "velocity": 0, "duration": 141}, {"note": 73, "velocity": 85, "duration": 162}, {"note": 0, "velocity": 0, "duration": 78}, {"note": 73, "velocity": 85, "duration": 166}, {"note": 0, "velocity": 0, "duration": 74}, {"note": 70, "velocity": 82, "duration": 152}, {"note": 0, "velocity": 0, "duration": 88}, {"note": 68, "velocity": 81, "duration": 225}, {"note": 66, "velocity": 84, "duration": 188}, {"note": 66, "velocity": 84, "duration": 247}, {"note": 0, "velocity": 0, "duration": 233}, {"note": 68, "velocity": 86, "duration": 368}, {"note": 0, "velocity": 0, "duration": 112}, {"note": 70, "velocity": 84, "duration": 393}, {"note": 0, "velocity": 0, "duration": 87}, {"note": 68, "velocity": 82, "duration": 418}, {"note": 0, "velocity": 0, "duration": 2222}, {"note": 73, "velocity": 82, "duration": 171}, {"note": 0, "velocity": 0, "duration": 69}, {"note": 70, "velocity": 89, "duration": 181}, {"note": 68, "velocity": 82, "duration": 195}, {"note": 66, "velocity": 84, "duration": 171}, {"note": 0, "velocity": 0, "duration": 69}, {"note": 68, "velocity": 81, "duration": 171}, {"note": 0, "velocity": 0, "duration": 69}, {"note": 70, "velocity": 88, "duration": 484}, {"note": 0, "velocity": 0, "duration": 236}, {"note": 73, "velocity": 84, "duration": 165}, {"note": 0, "velocity": 0, "duration": 75}, {"note": 70, "velocity": 84, "duration": 162}, {"note": 0, "velocity": 0, "duration": 78}, {"note": 73, "velocity": 86, "duration": 141}, {"note": 0, "velocity": 0, "duration": 99}, {"note": 70, "velocity": 84, "duration": 441}, {"note": 66, "velocity": 85, "duration": 417}, {"note": 0, "velocity": 0, "duration": 303}, {"note": 61, "velocity": 86, "duration": 167}, {"note": 0, "velocity": 0, "duration": 73}, {"note": 63, "velocity": 85, "duration": 186}, {"note": 66, "velocity": 84, "duration": 177}, {"note": 0, "velocity": 0, "duration": 63}, {"note": 61, "velocity": 84, "duration": 168}, {"note": 0, "velocity": 0, "duration": 72}, {"note": 63, "velocity": 85, "duration": 191}, {"note": 66, "velocity": 84, "duration": 291}, {"note": 0, "velocity": 0, "duration": 69}, {"note": 66, "velocity": 84, "duration": 64}, {"note": 66, "velocity": 83, "duration": 148}, {"note": 0, "velocity": 0, "duration": 92}, {"note": 68, "velocity": 84, "duration": 163}, {"note": 0, "velocity": 0, "duration": 77}, {"note": 70, "velocity": 85, "duration": 200}, {"note": 66, "velocity": 85, "duration": 184}, {"note": 70, "velocity": 87, "duration": 411}, {"note": 0, "velocity": 0, "duration": 69}, {"note": 68, "velocity": 81, "duration": 373}, {"note": 0, "velocity": 0, "duration": 347}, {"note": 73, "velocity": 82, "duration": 171}, {"note": 0, "velocity": 0, "duration": 69}, {"note": 70, "velocity": 89, "duration": 181}, {"note": 68, "velocity": 82, "duration": 195}, {"note": 66, "velocity": 84, "duration": 171}, {"note": 0, "velocity": 0, "duration": 69}, {"note": 68, "velocity": 81, "duration": 171}, {"note": 0, "velocity": 0, "duration": 69}, {"note": 70, "velocity": 88, "duration": 484}, {"note": 0, "velocity": 0, "duration": 236}, {"note": 73, "velocity": 84, "duration": 165}, {"note": 0, "velocity": 0, "duration": 75}, {"note": 70, "velocity": 84, "duration": 162}, {"note": 0, "velocity": 0, "duration": 78}, {"note": 73, "velocity": 86, "duration": 141}, {"note": 0, "velocity": 0, "duration": 99}, {"note": 75, "velocity": 84, "duration": 240}, {"note": 73, "velocity": 84, "duration": 168}, {"note": 0, "velocity": 0, "duration": 72}, {"note": 70, "velocity": 92, "duration": 171}, {"note": 0, "velocity": 0, "duration": 69}, {"note": 66, "velocity": 86, "duration": 282}, {"note": 0, "velocity": 0, "duration": 198}, {"note": 61, "velocity": 86, "duration": 167}, {"note": 0, "velocity": 0, "duration": 73}, {"note": 63, "velocity": 85, "duration": 186}, {"note": 66, "velocity": 84, "duration": 177}, {"note": 0, "velocity": 0, "duration": 63}, {"note": 61, "velocity": 84, "duration": 168}, {"note": 0, "velocity": 0, "duration": 72}, {"note": 63, "velocity": 85, "duration": 191}, {"note": 66, "velocity": 84, "duration": 291}, {"note": 0, "velocity": 0, "duration": 69}, {"note": 66, "velocity": 84, "duration": 64}, {"note": 66, "velocity": 83, "duration": 148}, {"note": 0, "velocity": 0, "duration": 92}, {"note": 68, "velocity": 84, "duration": 163}, {"note": 0, "velocity": 0, "duration": 77}, {"note": 70, "velocity": 85, "duration": 200}, {"note": 66, "velocity": 85, "duration": 184}, {"note": 0, "velocity": 0, "duration": 296}, {"note": 61, "velocity": 85, "duration": 178}, {"note": 0, "velocity": 0, "duration": 62}, {"note": 68, "velocity": 82, "duration": 387}, {"note": 0, "velocity": 0, "duration": 93}, {"note": 66, "velocity": 79, "duration": 1497}, {"note": 0, "velocity": 0, "duration": 14103}, {"note": 61, "velocity": 84, "duration": 177}, {"note": 0, "velocity": 0, "duration": 63}, {"note": 61, "velocity": 89, "duration": 198}, {"note": 66, "velocity": 86, "duration": 228}, {"note": 65, "velocity": 86, "duration": 247}, {"note": 66, "velocity": 87, "duration": 180}, {"note": 66, "velocity": 85, "duration": 549}, {"note": 0, "velocity": 0, "duration": 171}, {"note": 61, "velocity": 84, "duration": 155}, {"note": 0, "velocity": 0, "duration": 85}, {"note": 61, "velocity": 84, "duration": 181}, {"note": 66, "velocity": 84, "duration": 222}, {"note": 65, "velocity": 83, "duration": 480}, {"note": 61, "velocity": 87, "duration": 370}, {"note": 0, "velocity": 0, "duration": 350}, {"note": 58, "velocity": 77, "duration": 158}, {"note": 0, "velocity": 0, "duration": 82}, {"note": 58, "velocity": 86, "duration": 170}, {"note": 0, "velocity": 0, "duration": 70}, {"note": 61, "velocity": 92, "duration": 174}, {"note": 0, "velocity": 0, "duration": 66}, {"note": 61, "velocity": 85, "duration": 165}, {"note": 0, "velocity": 0, "duration": 75}, {"note": 54, "velocity": 84, "duration": 169}, {"note": 0, "velocity": 0, "duration": 71}, {"note": 56, "velocity": 84, "duration": 200}, {"note": 54, "velocity": 84, "duration": 69}, {"note": 54, "velocity": 83, "duration": 91}, {"note": 54, "velocity": 84, "duration": 187}, {"note": 56, "velocity": 84, "duration": 188}, {"note": 58, "velocity": 86, "duration": 210}, {"note": 56, "velocity": 87, "duration": 325}, {"note": 0, "velocity": 0, "duration": 155}, {"note": 54, "velocity": 83, "duration": 175}, {"note": 0, "velocity": 0, "duration": 65}, {"note": 58, "velocity": 83, "duration": 192}, {"note": 56, "velocity": 84, "duration": 266}, {"note": 0, "velocity": 0, "duration": 214}, {"note": 61, "velocity": 84, "duration": 177}, {"note": 0, "velocity": 0, "duration": 63}, {"note": 61, "velocity": 89, "duration": 198}, {"note": 66, "velocity": 86, "duration": 228}, {"note": 65, "velocity": 86, "duration": 247}, {"note": 66, "velocity": 87, "duration": 180}, {"note": 66, "velocity": 85, "duration": 549}, {"note": 0, "velocity": 0, "duration": 171}, {"note": 66, "velocity": 83, "duration": 202}, {"note": 68, "velocity": 87, "duration": 211}, {"note": 66, "velocity": 83, "duration": 209}, {"note": 70, "velocity": 84, "duration": 216}, {"note": 73, "velocity": 84, "duration": 203}, {"note": 70, "velocity": 81, "duration": 118}, {"note": 68, "velocity": 79, "duration": 105}, {"note": 66, "velocity": 84, "duration": 303}, {"note": 0, "velocity": 0, "duration": 177}, {"note": 73, "velocity": 84, "duration": 171}, {"note": 0, "velocity": 0, "duration": 69}, {"note": 70, "velocity": 82, "duration": 192}, {"note": 66, "velocity": 82, "duration": 168}, {"note": 0, "velocity": 0, "duration": 72}, {"note": 68, "velocity": 82, "duration": 190}, {"note": 66, "velocity": 83, "duration": 173}, {"note": 0, "velocity": 0, "duration": 67}, {"note": 61, "velocity": 85, "duration": 181}, {"note": 66, "velocity": 87, "duration": 360}, {"note": 0, "velocity": 0, "duration": 120}, {"note": 66, "velocity": 86, "duration": 186}, {"note": 70, "velocity": 85, "duration": 206}, {"note": 66, "velocity": 84, "duration": 168}, {"note": 0, "velocity": 0, "duration": 72}, {"note": 66, "velocity": 85, "duration": 433}, {"note": 68, "velocity": 83, "duration": 386}, {"note": 0, "velocity": 0, "duration": 94}, {"note": 70, "velocity": 86, "duration": 617}, {"note": 0, "velocity": 0, "duration": 103}, {"note": 70, "velocity": 87, "duration": 183}, {"note": 68, "velocity": 85, "duration": 171}, {"note": 0, "velocity": 0, "duration": 69}, {"note": 70, "velocity": 86, "duration": 177}, {"note": 0, "velocity": 0, "duration": 63}, {"note": 68, "velocity": 84, "duration": 187}, {"note": 66, "velocity": 85, "duration": 152}, {"note": 0, "velocity": 0, "duration": 88}, {"note": 63, "velocity": 85, "duration": 171}, {"note": 0, "velocity": 0, "duration": 69}, {"note": 66, "velocity": 84, "duration": 169}, {"note": 0, "velocity": 0, "duration": 71}, {"note": 68, "velocity": 84, "duration": 169}, {"note": 0, "velocity": 0, "duration": 71}, {"note": 70, "velocity": 85, "duration": 163}, {"note": 0, "velocity": 0, "duration": 77}, {"note": 70, "velocity": 84, "duration": 352}, {"note": 0, "velocity": 0, "duration": 128}, {"note": 61, "velocity": 87, "duration": 402}, {"note": 0, "velocity": 0, "duration": 78}, {"note": 70, "velocity": 86, "duration": 579}, {"note": 0, "velocity": 0, "duration": 141}, {"note": 73, "velocity": 85, "duration": 162}, {"note": 0, "velocity": 0, "duration": 78}, {"note": 73, "velocity": 85, "duration": 166}, {"note": 0, "velocity": 0, "duration": 74}, {"note": 70, "velocity": 82, "duration": 152}, {"note": 0, "velocity": 0, "duration": 88}, {"note": 68, "velocity": 81, "duration": 225}, {"note": 66, "velocity": 84, "duration": 188}, {"note": 66, "velocity": 84, "duration": 247}, {"note": 0, "velocity": 0, "duration": 233}, {"note": 68, "velocity": 86, "duration": 368}, {"note": 0, "velocity": 0, "duration": 112}, {"note": 70, "velocity": 84, "duration": 393}, {"note": 0, "velocity": 0, "duration": 87}, {"note": 68, "velocity": 82, "duration": 418}, {"note": 0, "velocity": 0, "duration": 2222}, {"note": 73, "velocity": 82, "duration": 171}, {"note": 0, "velocity": 0, "duration": 69}, {"note": 70, "velocity": 89, "duration": 181}, {"note": 68, "velocity": 82, "duration": 195}, {"note": 66, "velocity": 84, "duration": 171}, {"note": 0, "velocity": 0, "duration": 69}, {"note": 68, "velocity": 81, "duration": 171}, {"note": 0, "velocity": 0, "duration": 69}, {"note": 70, "velocity": 88, "duration": 484}, {"note": 0, "velocity": 0, "duration": 236}, {"note": 73, "velocity": 84, "duration": 165}, {"note": 0, "velocity": 0, "duration": 75}, {"note": 70, "velocity": 84, "duration": 162}, {"note": 0, "velocity": 0, "duration": 78}, {"note": 73, "velocity": 86, "duration": 141}, {"note": 0, "velocity": 0, "duration": 99}, {"note": 70, "velocity": 84, "duration": 441}, {"note": 66, "velocity": 85, "duration": 417}, {"note": 0, "velocity": 0, "duration": 303}, {"note": 61, "velocity": 86, "duration": 167}, {"note": 0, "velocity": 0, "duration": 73}, {"note": 63, "velocity": 85, "duration": 186}, {"note": 66, "velocity": 84, "duration": 177}, {"note": 0, "velocity": 0, "duration": 63}, {"note": 61, "velocity": 84, "duration": 168}, {"note": 0, "velocity": 0, "duration": 72}, {"note": 63, "velocity": 85, "duration": 191}, {"note": 66, "velocity": 84, "duration": 291}, {"note": 0, "velocity": 0, "duration": 69}, {"note": 66, "velocity": 84, "duration": 64}, {"note": 66, "velocity": 83, "duration": 148}, {"note": 0, "velocity": 0, "duration": 92}, {"note": 68, "velocity": 84, "duration": 163}, {"note": 0, "velocity": 0, "duration": 77}, {"note": 70, "velocity": 85, "duration": 200}, {"note": 66, "velocity": 85, "duration": 184}, {"note": 70, "velocity": 87, "duration": 271}, {"note": 68, "velocity": 79, "duration": 131}, {"note": 0, "velocity": 0, "duration": 110}, {"note": 68, "velocity": 81, "duration": 373}, {"note": 0, "velocity": 0, "duration": 347}, {"note": 73, "velocity": 82, "duration": 171}, {"note": 0, "velocity": 0, "duration": 69}, {"note": 70, "velocity": 89, "duration": 181}, {"note": 68, "velocity": 82, "duration": 195}, {"note": 66, "velocity": 84, "duration": 171}, {"note": 0, "velocity": 0, "duration": 69}, {"note": 68, "velocity": 81, "duration": 171}, {"note": 0, "velocity": 0, "duration": 69}, {"note": 70, "velocity": 88, "duration": 484}, {"note": 0, "velocity": 0, "duration": 236}, {"note": 73, "velocity": 84, "duration": 165}, {"note": 0, "velocity": 0, "duration": 75}, {"note": 70, "velocity": 84, "duration": 162}, {"note": 0, "velocity": 0, "duration": 78}, {"note": 73, "velocity": 86, "duration": 141}, {"note": 0, "velocity": 0, "duration": 99}, {"note": 75, "velocity": 84, "duration": 240}, {"note": 73, "velocity": 84, "duration": 168}, {"note": 0, "velocity": 0, "duration": 72}, {"note": 70, "velocity": 92, "duration": 171}, {"note": 0, "velocity": 0, "duration": 69}, {"note": 66, "velocity": 86, "duration": 282}, {"note": 0, "velocity": 0, "duration": 198}, {"note": 61, "velocity": 86, "duration": 167}, {"note": 0, "velocity": 0, "duration": 73}, {"note": 63, "velocity": 85, "duration": 186}, {"note": 66, "velocity": 84, "duration": 177}, {"note": 0, "velocity": 0, "duration": 63}, {"note": 61, "velocity": 84, "duration": 168}, {"note": 0, "velocity": 0, "duration": 72}, {"note": 63, "velocity": 85, "duration": 191}, {"note": 66, "velocity": 84, "duration": 291}, {"note": 0, "velocity": 0, "duration": 69}, {"note": 66, "velocity": 84, "duration": 64}, {"note": 66, "velocity": 83, "duration": 148}, {"note": 0, "velocity": 0, "duration": 92}, {"note": 68, "velocity": 84, "duration": 163}, {"note": 0, "velocity": 0, "duration": 77}, {"note": 70, "velocity": 85, "duration": 200}, {"note": 66, "velocity": 85, "duration": 184}, {"note": 0, "velocity": 0, "duration": 296}, {"note": 61, "velocity": 85, "duration": 178}, {"note": 0, "velocity": 0, "duration": 62}, {"note": 68, "velocity": 82, "duration": 228}, {"note": 66, "velocity": 79, "duration": 158}, {"note": 0, "velocity": 0, "duration": 88}, {"note": 66, "velocity": 79, "duration": 1497}, {"note": 0, "velocity": 0, "duration": 2583}, {"note": 73, "velocity": 82, "duration": 171}, {"note": 0, "velocity": 0, "duration": 69}, {"note": 70, "velocity": 89, "duration": 181}, {"note": 68, "velocity": 82, "duration": 195}, {"note": 66, "velocity": 84, "duration": 171}, {"note": 0, "velocity": 0, "duration": 69}, {"note": 68, "velocity": 81, "duration": 171}, {"note": 0, "velocity": 0, "duration": 69}, {"note": 70, "velocity": 88, "duration": 484}, {"note": 0, "velocity": 0, "duration": 236}, {"note": 73, "velocity": 84, "duration": 165}, {"note": 0, "velocity": 0, "duration": 75}, {"note": 70, "velocity": 84, "duration": 162}, {"note": 0, "velocity": 0, "duration": 78}, {"note": 73, "velocity": 86, "duration": 141}, {"note": 0, "velocity": 0, "duration": 99}, {"note": 70, "velocity": 84, "duration": 441}, {"note": 66, "velocity": 85, "duration": 417}, {"note": 0, "velocity": 0, "duration": 303}, {"note": 61, "velocity": 86, "duration": 167}, {"note": 0, "velocity": 0, "duration": 73}, {"note": 63, "velocity": 85, "duration": 186}, {"note": 66, "velocity": 84, "duration": 177}, {"note": 0, "velocity": 0, "duration": 63}, {"note": 61, "velocity": 84, "duration": 168}, {"note": 0, "velocity": 0, "duration": 72}, {"note": 63, "velocity": 85, "duration": 191}, {"note": 66, "velocity": 84, "duration": 291}, {"note": 0, "velocity": 0, "duration": 69}, {"note": 66, "velocity": 84, "duration": 64}, {"note": 66, "velocity": 83, "duration": 148}, {"note": 0, "velocity": 0, "duration": 92}, {"note": 68, "velocity": 84, "duration": 163}, {"note": 0, "velocity": 0, "duration": 77}, {"note": 70, "velocity": 85, "duration": 200}, {"note": 66, "velocity": 85, "duration": 184}, {"note": 70, "velocity": 87, "duration": 411}, {"note": 0, "velocity": 0, "duration": 69}, {"note": 68, "velocity": 81, "duration": 373}, {"note": 0, "velocity": 0, "duration": 347}, {"note": 73, "velocity": 82, "duration": 171}, {"note": 0, "velocity": 0, "duration": 69}, {"note": 70, "velocity": 89, "duration": 181}, {"note": 68, "velocity": 82, "duration": 195}, {"note": 66, "velocity": 84, "duration": 171}, {"note": 0, "velocity": 0, "duration": 69}, {"note": 68, "velocity": 81, "duration": 171}, {"note": 0, "velocity": 0, "duration": 69}, {"note": 70, "velocity": 88, "duration": 484}, {"note": 0, "velocity": 0, "duration": 236}, {"note": 73, "velocity": 84, "duration": 165}, {"note": 0, "velocity": 0, "duration": 75}, {"note": 70, "velocity": 84, "duration": 162}, {"note": 0, "velocity": 0, "duration": 78}, {"note": 73, "velocity": 86, "duration": 141}, {"note": 0, "velocity": 0, "duration": 99}, {"note": 75, "velocity": 84, "duration": 240}, {"note": 73, "velocity": 84, "duration": 168}, {"note": 0, "velocity": 0, "duration": 72}, {"note": 70, "velocity": 92, "duration": 171}, {"note": 0, "velocity": 0, "duration": 69}, {"note": 66, "velocity": 86, "duration": 282}, {"note": 0, "velocity": 0, "duration": 198}, {"note": 61, "velocity": 86, "duration": 167}, {"note": 0, "velocity": 0, "duration": 73}, {"note": 63, "velocity": 85, "duration": 186}, {"note": 66, "velocity": 84, "duration": 177}, {"note": 0, "velocity": 0, "duration": 63}, {"note": 61, "velocity": 84, "duration": 168}, {"note": 0, "velocity": 0, "duration": 72}, {"note": 63, "velocity": 85, "duration": 191}, {"note": 66, "velocity": 84, "duration": 291}, {"note": 0, "velocity": 0, "duration": 69}, {"note": 66, "velocity": 84, "duration": 64}, {"note": 66, "velocity": 83, "duration": 148}, {"note": 0, "velocity": 0, "duration": 92}, {"note": 68, "velocity": 84, "duration": 163}, {"note": 0, "velocity": 0, "duration": 77}, {"note": 70, "velocity": 85, "duration": 200}, {"note": 66, "velocity": 85, "duration": 184}, {"note": 0, "velocity": 0, "duration": 296}, {"note": 61, "velocity": 85, "duration": 178}, {"note": 0, "velocity": 0, "duration": 62}, {"note": 68, "velocity": 82, "duration": 247}, {"note": 66, "velocity": 81, "duration": 162}, {"note": 0, "velocity": 0, "duration": 86}, {"note": 66, "velocity": 79, "duration": 1497}]]