[[{"note": 70, "velocity": 86, "duration": 331}, {"note": 0, "velocity": 0, "duration": 149}, {"note": 70, "velocity": 83, "duration": 285}, {"note": 73, "velocity": 87, "duration": 184}, {"note": 68, "velocity": 81, "duration": 174}, {"note": 0, "velocity": 0, "duration": 66}, {"note": 70, "velocity": 83, "duration": 178}, {"note": 0, "velocity": 0, "duration": 62}, {"note": 66, "velocity": 81, "duration": 184}, {"note": 63, "velocity": 81, "duration": 173}, {"note": 0, "velocity": 0, "duration": 67}, {"note": 61, "velocity": 82, "duration": 770}, {"note": 0, "velocity": 0, "duration": 1150}, {"note": 63, "velocity": 81, "duration": 182}, {"note": 66, "velocity": 81, "duration": 181}, {"note": 66, "velocity": 82, "duration": 191}, {"note": 63, "velocity": 83, "duration": 168}, {"note": 0, "velocity": 0, "duration": 72}, {"note": 75, "velocity": 87, "duration": 181}, {"note": 73, "velocity": 81, "duration": 172}, {"note": 0, "velocity": 0, "duration": 68}, {"note": 66, "velocity": 82, "duration": 207}, {"note": 70, "velocity": 76, "duration": 203}, {"note": 68, "velocity": 77, "duration": 1274}, {"note": 0, "velocity": 0, "duration": 646}, {"note": 68, "velocity": 78, "duration": 175}, {"note": 0, "velocity": 0, "duration": 65}, {"note": 68, "velocity": 80, "duration": 159}, {"note": 0, "velocity": 0, "duration": 81}, {"note": 68, "velocity": 81, "duration": 187}, {"note": 66, "velocity": 80, "duration": 195}, {"note": 68, "velocity": 80, "duration": 370}, {"note": 0, "velocity": 0, "duration": 110}, {"note": 70, "velocity": 80, "duration": 163}, {"note": 0, "velocity": 0, "duration": 77}, {"note": 73, "velocity": 80, "duration": 171}, {"note": 0, "velocity": 0, "duration": 69}, {"note": 70, "velocity": 80, "duration": 392}, {"note": 0, "velocity": 0, "duration": 88}, {"note": 68, "velocity": 77, "duration": 191}, {"note": 66, "velocity": 78, "duration": 218}, {"note": 63, "velocity": 80, "duration": 727}, {"note": 0, "velocity": 0, "duration": 233}, {"note": 68, "velocity": 76, "duration": 157}, {"note": 0, "velocity": 0, "duration": 83}, {"note": 68, "velocity": 75, "duration": 177}, {"note": 0, "velocity": 0, "duration": 63}, {"note": 68, "velocity": 77, "duration": 167}, {"note": 0, "velocity": 0, "duration": 73}, {"note": 70, "velocity": 80, "duration": 174}, {"note": 0, "velocity": 0, "duration": 66}, {"note": 68, "velocity": 80, "duration": 175}, {"note": 0, "velocity": 0, "duration": 65}, {"note": 66, "velocity": 79, "duration": 177}, {"note": 0, "velocity": 0, "duration": 63}, {"note": 66, "velocity": 79, "duration": 195}, {"note": 63, "velocity": 79, "duration": 182}, {"note": 68, "velocity": 72, "duration": 1497}, {"note": 0, "velocity": 0, "duration": 423}, {"note": 70, "velocity": 86, "duration": 331}, {"note": 0, "velocity": 0, "duration": 149}, {"note": 70, "velocity": 83, "duration": 285}, {"note": 73, "velocity": 87, "duration": 184}, {"note": 68, "velocity": 81, "duration": 174}, {"note": 0, "velocity": 0, "duration": 66}, {"note": 70, "velocity": 83, "duration": 178}, {"note": 0, "velocity": 0, "duration": 62}, {"note": 66, "velocity": 81, "duration": 184}, {"note": 63, "velocity": 81, "duration": 173}, {"note": 0, "velocity": 0, "duration": 67}, {"note": 61, "velocity": 82, "duration": 770}, {"note": 0, "velocity": 0, "duration": 1150}, {"note": 63, "velocity": 81, "duration": 182}, {"note": 66, "velocity": 81, "duration": 181}, {"note": 66, "velocity": 82, "duration": 191}, {"note": 63, "velocity": 83, "duration": 168}, {"note": 0, "velocity": 0, "duration": 72}, {"note": 75, "velocity": 87, "duration": 181}, {"note": 73, "velocity": 81, "duration": 172}, {"note": 0, "velocity": 0, "duration": 68}, {"note": 66, "velocity": 82, "duration": 207}, {"note": 70, "velocity": 76, "duration": 203}, {"note": 68, "velocity": 77, "duration": 1274}, {"note": 0, "velocity": 0, "duration": 646}, {"note": 68, "velocity": 78, "duration": 175}, {"note": 0, "velocity": 0, "duration": 65}, {"note": 68, "velocity": 80, "duration": 159}, {"note": 0, "velocity": 0, "duration": 81}, {"note": 68, "velocity": 81, "duration": 187}, {"note": 66, "velocity": 80, "duration": 195}, {"note": 68, "velocity": 80, "duration": 370}, {"note": 0, "velocity": 0, "duration": 110}, {"note": 70, "velocity": 80, "duration": 163}, {"note": 0, "velocity": 0, "duration": 77}, {"note": 73, "velocity": 80, "duration": 171}, {"note": 0, "velocity": 0, "duration": 69}, {"note": 70, "velocity": 80, "duration": 392}, {"note": 0, "velocity": 0, "duration": 88}, {"note": 68, "velocity": 77, "duration": 191}, {"note": 66, "velocity": 78, "duration": 218}, {"note": 63, "velocity": 80, "duration": 727}, {"note": 0, "velocity": 0, "duration": 233}, {"note": 68, "velocity": 76, "duration": 157}, {"note": 0, "velocity": 0, "duration": 83}, {"note": 68, "velocity": 75, "duration": 177}, {"note": 0, "velocity": 0, "duration": 63}, {"note": 68, "velocity": 77, "duration": 167}, {"note": 0, "velocity": 0, "duration": 73}, {"note": 70, "velocity": 80, "duration": 174}, {"note": 0, "velocity": 0, "duration": 66}, {"note": 68, "velocity": 80, "duration": 175}, {"note": 0, "velocity": 0, "duration": 65}, {"note": 66, "velocity": 79, "duration": 177}, {"note": 0, "velocity": 0, "duration": 63}, {"note": 68, "velocity": 79, "duration": 195}, {"note": 70, "velocity": 79, "duration": 182}, {"note": 73, "velocity": 72, "duration": 1497}, {"note": 0, "velocity": 0, "duration": 207}, {"note": 70, "velocity": 73, "duration": 137}, {"note": 73, "velocity": 83, "duration": 144}, {"note": 0, "velocity": 0, "duration": 88}, {"note": 73, "velocity": 81, "duration": 154}, {"note": 0, "velocity": 0, "duration": 87}, {"note": 73, "velocity": 81, "duration": 181}, {"note": 0, "velocity": 0, "duration": 74}, {"note": 75, "velocity": 84, "duration": 190}, {"note": 78, "velocity": 80, "duration": 648}, {"note": 0, "velocity": 0, "duration": 69}, {"note": 77, "velocity": 83, "duration": 178}, {"note": 75, "velocity": 85, "duration": 1056}, {"note": 0, "velocity": 0, "duration": 621}, {"note": 73, "velocity": 84, "duration": 189}, {"note": 75, "velocity": 87, "duration": 182}, {"note": 0, "velocity": 0, "duration": 61}, {"note": 78, "velocity": 84, "duration": 180}, {"note": 75, "velocity": 84, "duration": 200}, {"note": 73, "velocity": 81, "duration": 180}, {"note": 0, "velocity": 0, "duration": 66}, {"note": 70, "velocity": 81, "duration": 167}, {"note": 0, "velocity": 0, "duration": 77}, {"note": 63, "velocity": 82, "duration": 425}, {"note": 70, "velocity": 81, "duration": 179}, {"note": 0, "velocity": 0, "duration": 66}, {"note": 68, "velocity": 82, "duration": 988}, {"note": 0, "velocity": 0, "duration": 954}, {"note": 68, "velocity": 81, "duration": 168}, {"note": 0, "velocity": 0, "duration": 72}, {"note": 68, "velocity": 82, "duration": 141}, {"note": 0, "velocity": 0, "duration": 99}, {"note": 68, "velocity": 83, "duration": 195}, {"note": 66, "velocity": 84, "duration": 184}, {"note": 68, "velocity": 83, "duration": 240}, {"note": 68, "velocity": 83, "duration": 480}, {"note": 70, "velocity": 82, "duration": 193}, {"note": 73, "velocity": 81, "duration": 555}, {"note": 0, "velocity": 0, "duration": 165}, {"note": 75, "velocity": 87, "duration": 174}, {"note": 0, "velocity": 0, "duration": 66}, {"note": 75, "velocity": 87, "duration": 766}, {"note": 0, "velocity": 0, "duration": 194}, {"note": 68, "velocity": 78, "duration": 174}, {"note": 0, "velocity": 0, "duration": 66}, {"note": 68, "velocity": 82, "duration": 197}, {"note": 68, "velocity": 63, "duration": 186}, {"note": 70, "velocity": 86, "duration": 164}, {"note": 0, "velocity": 0, "duration": 76}, {"note": 75, "velocity": 89, "duration": 191}, {"note": 78, "velocity": 80, "duration": 433}, {"note": 75, "velocity": 87, "duration": 184}, {"note": 73, "velocity": 81, "duration": 1350}, {"note": 0, "velocity": 0, "duration": 354}, {"note": 70, "velocity": 73, "duration": 137}, {"note": 73, "velocity": 83, "duration": 144}, {"note": 0, "velocity": 0, "duration": 88}, {"note": 73, "velocity": 81, "duration": 154}, {"note": 0, "velocity": 0, "duration": 87}, {"note": 73, "velocity": 81, "duration": 181}, {"note": 0, "velocity": 0, "duration": 74}, {"note": 75, "velocity": 84, "duration": 190}, {"note": 78, "velocity": 80, "duration": 648}, {"note": 0, "velocity": 0, "duration": 69}, {"note": 77, "velocity": 83, "duration": 178}, {"note": 75, "velocity": 85, "duration": 1056}, {"note": 0, "velocity": 0, "duration": 861}, {"note": 75, "velocity": 87, "duration": 182}, {"note": 0, "velocity": 0, "duration": 61}, {"note": 78, "velocity": 84, "duration": 180}, {"note": 75, "velocity": 84, "duration": 200}, {"note": 73, "velocity": 81, "duration": 180}, {"note": 0, "velocity": 0, "duration": 66}, {"note": 70, "velocity": 81, "duration": 167}, {"note": 0, "velocity": 0, "duration": 77}, {"note": 63, "velocity": 82, "duration": 425}, {"note": 70, "velocity": 81, "duration": 179}, {"note": 0, "velocity": 0, "duration": 66}, {"note": 68, "velocity": 82, "duration": 988}, {"note": 0, "velocity": 0, "duration": 954}, {"note": 68, "velocity": 81, "duration": 168}, {"note": 0, "velocity": 0, "duration": 72}, {"note": 68, "velocity": 82, "duration": 141}, {"note": 0, "velocity": 0, "duration": 99}, {"note": 68, "velocity": 83, "duration": 195}, {"note": 66, "velocity": 84, "duration": 184}, {"note": 68, "velocity": 83, "duration": 240}, {"note": 68, "velocity": 83, "duration": 480}, {"note": 70, "velocity": 82, "duration": 193}, {"note": 73, "velocity": 81, "duration": 555}, {"note": 0, "velocity": 0, "duration": 165}, {"note": 75, "velocity": 87, "duration": 174}, {"note": 0, "velocity": 0, "duration": 66}, {"note": 75, "velocity": 87, "duration": 766}, {"note": 0, "velocity": 0, "duration": 194}, {"note": 68, "velocity": 78, "duration": 174}, {"note": 0, "velocity": 0, "duration": 66}, {"note": 68, "velocity": 82, "duration": 197}, {"note": 68, "velocity": 63, "duration": 186}, {"note": 70, "velocity": 86, "duration": 164}, {"note": 0, "velocity": 0, "duration": 76}, {"note": 75, "velocity": 89, "duration": 191}, {"note": 78, "velocity": 80, "duration": 433}, {"note": 75, "velocity": 87, "duration": 184}, {"note": 73, "velocity": 81, "duration": 1350}, {"note": 0, "velocity": 0, "duration": 570}, {"note": 68, "velocity": 82, "duration": 160}, {"note": 0, "velocity": 0, "duration": 80}, {"note": 68, "velocity": 83, "duration": 150}, {"note": 0, "velocity": 0, "duration": 90}, {"note": 68, "velocity": 83, "duration": 148}, {"note": 0, "velocity": 0, "duration": 92}, {"note": 70, "velocity": 82, "duration": 174}, {"note": 0, "velocity": 0, "duration": 66}, {"note": 73, "velocity": 83, "duration": 177}, {"note": 0, "velocity": 0, "duration": 63}, {"note": 75, "velocity": 89, "duration": 347}, {"note": 0, "velocity": 0, "duration": 133}, {"note": 70, "velocity": 81, "duration": 88}, {"note": 68, "velocity": 71, "duration": 74}, {"note": 66, "velocity": 81, "duration": 1474}, {"note": 0, "velocity": 0, "duration": 15806}, {"note": 70, "velocity": 86, "duration": 331}, {"note": 0, "velocity": 0, "duration": 149}, {"note": 70, "velocity": 83, "duration": 285}, {"note": 73, "velocity": 87, "duration": 184}, {"note": 68, "velocity": 81, "duration": 174}, {"note": 0, "velocity": 0, "duration": 66}, {"note": 70, "velocity": 83, "duration": 178}, {"note": 0, "velocity": 0, "duration": 62}, {"note": 66, "velocity": 81, "duration": 184}, {"note": 63, "velocity": 81, "duration": 173}, {"note": 0, "velocity": 0, "duration": 67}, {"note": 61, "velocity": 82, "duration": 770}, {"note": 0, "velocity": 0, "duration": 1150}, {"note": 63, "velocity": 81, "duration": 182}, {"note": 66, "velocity": 81, "duration": 181}, {"note": 66, "velocity": 82, "duration": 191}, {"note": 63, "velocity": 83, "duration": 168}, {"note": 0, "velocity": 0, "duration": 72}, {"note": 75, "velocity": 87, "duration": 181}, {"note": 73, "velocity": 81, "duration": 172}, {"note": 0, "velocity": 0, "duration": 68}, {"note": 66, "velocity": 82, "duration": 207}, {"note": 70, "velocity": 76, "duration": 203}, {"note": 68, "velocity": 77, "duration": 1274}, {"note": 0, "velocity": 0, "duration": 646}, {"note": 68, "velocity": 78, "duration": 175}, {"note": 0, "velocity": 0, "duration": 65}, {"note": 68, "velocity": 80, "duration": 159}, {"note": 0, "velocity": 0, "duration": 81}, {"note": 68, "velocity": 81, "duration": 187}, {"note": 66, "velocity": 80, "duration": 195}, {"note": 68, "velocity": 80, "duration": 370}, {"note": 0, "velocity": 0, "duration": 110}, {"note": 70, "velocity": 80, "duration": 163}, {"note": 0, "velocity": 0, "duration": 77}, {"note": 73, "velocity": 80, "duration": 171}, {"note": 0, "velocity": 0, "duration": 69}, {"note": 70, "velocity": 80, "duration": 392}, {"note": 0, "velocity": 0, "duration": 88}, {"note": 68, "velocity": 77, "duration": 191}, {"note": 66, "velocity": 78, "duration": 218}, {"note": 63, "velocity": 80, "duration": 727}, {"note": 0, "velocity": 0, "duration": 233}, {"note": 68, "velocity": 76, "duration": 157}, {"note": 0, "velocity": 0, "duration": 83}, {"note": 68, "velocity": 75, "duration": 177}, {"note": 0, "velocity": 0, "duration": 63}, {"note": 68, "velocity": 77, "duration": 167}, {"note": 0, "velocity": 0, "duration": 73}, {"note": 70, "velocity": 80, "duration": 174}, {"note": 0, "velocity": 0, "duration": 66}, {"note": 68, "velocity": 80, "duration": 175}, {"note": 0, "velocity": 0, "duration": 65}, {"note": 66, "velocity": 79, "duration": 177}, {"note": 0, "velocity": 0, "duration": 63}, {"note": 68, "velocity": 79, "duration": 195}, {"note": 70, "velocity": 79, "duration": 182}, {"note": 73, "velocity": 72, "duration": 1497}, {"note": 0, "velocity": 0, "duration": 207}, {"note": 70, "velocity": 73, "duration": 137}, {"note": 73, "velocity": 83, "duration": 144}, {"note": 0, "velocity": 0, "duration": 88}, {"note": 73, "velocity": 81, "duration": 154}, {"note": 0, "velocity": 0, "duration": 87}, {"note": 73, "velocity": 81, "duration": 181}, {"note": 0, "velocity": 0, "duration": 74}, {"note": 75, "velocity": 84, "duration": 190}, {"note": 78, "velocity": 80, "duration": 648}, {"note": 0, "velocity": 0, "duration": 69}, {"note": 77, "velocity": 83, "duration": 178}, {"note": 75, "velocity": 85, "duration": 1056}, {"note": 0, "velocity": 0, "duration": 621}, {"note": 73, "velocity": 84, "duration": 189}, {"note": 75, "velocity": 87, "duration": 182}, {"note": 0, "velocity": 0, "duration": 61}, {"note": 78, "velocity": 84, "duration": 180}, {"note": 75, "velocity": 84, "duration": 200}, {"note": 73, "velocity": 81, "duration": 180}, {"note": 0, "velocity": 0, "duration": 66}, {"note": 70, "velocity": 81, "duration": 167}, {"note": 0, "velocity": 0, "duration": 77}, {"note": 63, "velocity": 82, "duration": 425}, {"note": 70, "velocity": 81, "duration": 179}, {"note": 0, "velocity": 0, "duration": 66}, {"note": 68, "velocity": 82, "duration": 988}, {"note": 0, "velocity": 0, "duration": 954}, {"note": 68, "velocity": 81, "duration": 168}, {"note": 0, "velocity": 0, "duration": 72}, {"note": 68, "velocity": 82, "duration": 141}, {"note": 0, "velocity": 0, "duration": 99}, {"note": 68, "velocity": 83, "duration": 195}, {"note": 66, "velocity": 84, "duration": 184}, {"note": 68, "velocity": 83, "duration": 240}, {"note": 68, "velocity": 83, "duration": 480}, {"note": 70, "velocity": 82, "duration": 193}, {"note": 73, "velocity": 81, "duration": 555}, {"note": 0, "velocity": 0, "duration": 165}, {"note": 75, "velocity": 87, "duration": 174}, {"note": 0, "velocity": 0, "duration": 66}, {"note": 75, "velocity": 87, "duration": 766}, {"note": 0, "velocity": 0, "duration": 194}, {"note": 68, "velocity": 78, "duration": 174}, {"note": 0, "velocity": 0, "duration": 66}, {"note": 68, "velocity": 82, "duration": 197}, {"note": 68, "velocity": 63, "duration": 186}, {"note": 70, "velocity": 86, "duration": 164}, {"note": 0, "velocity": 0, "duration": 76}, {"note": 75, "velocity": 89, "duration": 191}, {"note": 78, "velocity": 80, "duration": 433}, {"note": 75, "velocity": 87, "duration": 184}, {"note": 73, "velocity": 81, "duration": 1350}, {"note": 0, "velocity": 0, "duration": 354}, {"note": 70, "velocity": 73, "duration": 137}, {"note": 73, "velocity": 83, "duration": 144}, {"note": 0, "velocity": 0, "duration": 88}, {"note": 73, "velocity": 81, "duration": 154}, {"note": 0, "velocity": 0, "duration": 87}, {"note": 73, "velocity": 81, "duration": 181}, {"note": 0, "velocity": 0, "duration": 74}, {"note": 75, "velocity": 84, "duration": 190}, {"note": 78, "velocity": 80, "duration": 648}, {"note": 0, "velocity": 0, "duration": 69}, {"note": 77, "velocity": 83, "duration": 178}, {"note": 75, "velocity": 85, "duration": 1056}, {"note": 0, "velocity": 0, "duration": 861}, {"note": 75, "velocity": 87, "duration": 182}, {"note": 0, "velocity": 0, "duration": 61}, {"note": 78, "velocity": 84, "duration": 180}, {"note": 75, "velocity": 84, "duration": 200}, {"note": 73, "velocity": 81, "duration": 180}, {"note": 0, "velocity": 0, "duration": 66}, {"note": 70, "velocity": 81, "duration": 167}, {"note": 0, "velocity": 0, "duration": 77}, {"note": 63, "velocity": 82, "duration": 425}, {"note": 70, "velocity": 81, "duration": 179}, {"note": 0, "velocity": 0, "duration": 66}, {"note": 68, "velocity": 82, "duration": 988}, {"note": 0, "velocity": 0, "duration": 954}, {"note": 68, "velocity": 81, "duration": 168}, {"note": 0, "velocity": 0, "duration": 72}, {"note": 68, "velocity": 82, "duration": 141}, {"note": 0, "velocity": 0, "duration": 99}, {"note": 68, "velocity": 83, "duration": 195}, {"note": 66, "velocity": 84, "duration": 184}, {"note": 68, "velocity": 83, "duration": 240}, {"note": 68, "velocity": 83, "duration": 480}, {"note": 70, "velocity": 82, "duration": 193}, {"note": 73, "velocity": 81, "duration": 555}, {"note": 0, "velocity": 0, "duration": 165}, {"note": 75, "velocity": 87, "duration": 174}, {"note": 0, "velocity": 0, "duration": 66}, {"note": 75, "velocity": 87, "duration": 766}, {"note": 0, "velocity": 0, "duration": 194}, {"note": 68, "velocity": 78, "duration": 174}, {"note": 0, "velocity": 0, "duration": 66}, {"note": 68, "velocity": 82, "duration": 197}, {"note": 68, "velocity": 63, "duration": 186}, {"note": 70, "velocity": 86, "duration": 164}, {"note": 0, "velocity": 0, "duration": 76}, {"note": 75, "velocity": 89, "duration": 191}, {"note": 78, "velocity": 80, "duration": 433}, {"note": 75, "velocity": 87, "duration": 184}, {"note": 73, "velocity": 81, "duration": 1350}, {"note": 0, "velocity": 0, "duration": 570}, {"note": 68, "velocity": 82, "duration": 160}, {"note": 0, "velocity": 0, "duration": 80}, {"note": 68, "velocity": 83, "duration": 150}, {"note": 0, "velocity": 0, "duration": 90}, {"note": 68, "velocity": 83, "duration": 148}, {"note": 0, "velocity": 0, "duration": 92}, {"note": 70, "velocity": 82, "duration": 174}, {"note": 0, "velocity": 0, "duration": 66}, {"note": 73, "velocity": 83, "duration": 177}, {"note": 0, "velocity": 0, "duration": 63}, {"note": 75, "velocity": 89, "duration": 347}, {"note": 0, "velocity": 0, "duration": 133}, {"note": 70, "velocity": 81, "duration": 88}, {"note": 68, "velocity": 71, "duration": 74}, {"note": 66, "velocity": 81, "duration": 1474}, {"note": 0, "velocity": 0, "duration": 230}, {"note": 70, "velocity": 73, "duration": 137}, {"note": 73, "velocity": 83, "duration": 144}, {"note": 0, "velocity": 0, "duration": 88}, {"note": 73, "velocity": 81, "duration": 154}, {"note": 0, "velocity": 0, "duration": 87}, {"note": 73, "velocity": 81, "duration": 181}, {"note": 0, "velocity": 0, "duration": 74}, {"note": 75, "velocity": 84, "duration": 190}, {"note": 78, "velocity": 80, "duration": 648}, {"note": 0, "velocity": 0, "duration": 69}, {"note": 77, "velocity": 83, "duration": 178}, {"note": 75, "velocity": 85, "duration": 1056}, {"note": 0, "velocity": 0, "duration": 621}, {"note": 73, "velocity": 84, "duration": 189}, {"note": 75, "velocity": 87, "duration": 182}, {"note": 0, "velocity": 0, "duration": 61}, {"note": 78, "velocity": 84, "duration": 180}, {"note": 75, "velocity": 84, "duration": 200}, {"note": 73, "velocity": 81, "duration": 180}, {"note": 0, "velocity": 0, "duration": 66}, {"note": 70, "velocity": 81, "duration": 167}, {"note": 0, "velocity": 0, "duration": 77}, {"note": 63, "velocity": 82, "duration": 425}, {"note": 70, "velocity": 81, "duration": 179}, {"note": 0, "velocity": 0, "duration": 66}, {"note": 68, "velocity": 82, "duration": 988}, {"note": 0, "velocity": 0, "duration": 954}, {"note": 68, "velocity": 81, "duration": 168}, {"note": 0, "velocity": 0, "duration": 72}, {"note": 68, "velocity": 82, "duration": 141}, {"note": 0, "velocity": 0, "duration": 99}, {"note": 68, "velocity": 83, "duration": 195}, {"note": 66, "velocity": 84, "duration": 184}, {"note": 68, "velocity": 83, "duration": 240}, {"note": 68, "velocity": 83, "duration": 480}, {"note": 70, "velocity": 82, "duration": 193}, {"note": 73, "velocity": 81, "duration": 555}, {"note": 0, "velocity": 0, "duration": 165}, {"note": 75, "velocity": 87, "duration": 174}, {"note": 0, "velocity": 0, "duration": 66}, {"note": 75, "velocity": 87, "duration": 766}, {"note": 0, "velocity": 0, "duration": 194}, {"note": 68, "velocity": 78, "duration": 174}, {"note": 0, "velocity": 0, "duration": 66}, {"note": 68, "velocity": 82, "duration": 197}, {"note": 68, "velocity": 63, "duration": 186}, {"note": 70, "velocity": 86, "duration": 164}, {"note": 0, "velocity": 0, "duration": 76}, {"note": 75, "velocity": 89, "duration": 191}, {"note": 78, "velocity": 80, "duration": 433}, {"note": 75, "velocity": 87, "duration": 184}, {"note": 73, "velocity": 81, "duration": 1350}, {"note": 0, "velocity": 0, "duration": 354}, {"note": 70, "velocity": 73, "duration": 137}, {"note": 73, "velocity": 83, "duration": 144}, {"note": 0, "velocity": 0, "duration": 88}, {"note": 73, "velocity": 81, "duration": 154}, {"note": 0, "velocity": 0, "duration": 87}, {"note": 73, "velocity": 81, "duration": 181}, {"note": 0, "velocity": 0, "duration": 74}, {"note": 75, "velocity": 84, "duration": 190}, {"note": 78, "velocity": 80, "duration": 648}, {"note": 0, "velocity": 0, "duration": 69}, {"note": 77, "velocity": 83, "duration": 178}, {"note": 75, "velocity": 85, "duration": 1056}, {"note": 0, "velocity": 0, "duration": 861}, {"note": 75, "velocity": 87, "duration": 182}, {"note": 0, "velocity": 0, "duration": 61}, {"note": 78, "velocity": 84, "duration": 180}, {"note": 75, "velocity": 84, "duration": 200}, {"note": 73, "velocity": 81, "duration": 180}, {"note": 0, "velocity": 0, "duration": 66}, {"note": 70, "velocity": 81, "duration": 167}, {"note": 0, "velocity": 0, "duration": 77}, {"note": 63, "velocity": 82, "duration": 425}, {"note": 70, "velocity": 81, "duration": 179}, {"note": 0, "velocity": 0, "duration": 66}, {"note": 68, "velocity": 82, "duration": 988}, {"note": 0, "velocity": 0, "duration": 954}, {"note": 68, "velocity": 81, "duration": 168}, {"note": 0, "velocity": 0, "duration": 72}, {"note": 68, "velocity": 82, "duration": 141}, {"note": 0, "velocity": 0, "duration": 99}, {"note": 68, "velocity": 83, "duration": 195}, {"note": 66, "velocity": 84, "duration": 184}, {"note": 68, "velocity": 83, "duration": 240}, {"note": 68, "velocity": 83, "duration": 480}, {"note": 70, "velocity": 82, "duration": 193}, {"note": 73, "velocity": 81, "duration": 555}, {"note": 0, "velocity": 0, "duration": 165}, {"note": 75, "velocity": 87, "duration": 174}, {"note": 0, "velocity": 0, "duration": 66}, {"note": 75, "velocity": 87, "duration": 766}, {"note": 0, "velocity": 0, "duration": 194}, {"note": 68, "velocity": 78, "duration": 174}, {"note": 0, "velocity": 0, "duration": 66}, {"note": 68, "velocity": 82, "duration": 197}, {"note": 68, "velocity": 63, "duration": 186}, {"note": 70, "velocity": 86, "duration": 164}, {"note": 0, "velocity": 0, "duration": 76}, {"note": 75, "velocity": 89, "duration": 191}, {"note": 78, "velocity": 80, "duration": 433}, {"note": 75, "velocity": 87, "duration": 184}, {"note": 73, "velocity": 81, "duration": 1350}, {"note": 0, "velocity": 0, "duration": 562}, {"note": 68, "velocity": 80, "duration": 199}, {"note": 0, "velocity": 0, "duration": 64}, {"note": 68, "velocity": 81, "duration": 217}, {"note": 0, "velocity": 0, "duration": 78}, {"note": 68, "velocity": 82, "duration": 190}, {"note": 0, "velocity": 0, "duration": 74}, {"note": 70, "velocity": 85, "duration": 366}, {"note": 73, "velocity": 85, "duration": 441}, {"note": 75, "velocity": 85, "duration": 470}, {"note": 70, "velocity": 82, "duration": 422}, {"note": 68, "velocity": 75, "duration": 354}, {"note": 0, "velocity": 0, "duration": 87}, {"note": 66, "velocity": 81, "duration": 1550}]]