[[{"note": 68, "velocity": 87, "duration": 538}, {"note": 0, "velocity": 0, "duration": 182}, {"note": 65, "velocity": 94, "duration": 205}, {"note": 63, "velocity": 92, "duration": 445}, {"note": 65, "velocity": 94, "duration": 1362}, {"note": 0, "velocity": 0, "duration": 1038}, {"note": 68, "velocity": 92, "duration": 352}, {"note": 0, "velocity": 0, "duration": 128}, {"note": 65, "velocity": 91, "duration": 141}, {"note": 0, "velocity": 0, "duration": 99}, {"note": 65, "velocity": 94, "duration": 174}, {"note": 0, "velocity": 0, "duration": 66}, {"note": 63, "velocity": 90, "duration": 391}, {"note": 0, "velocity": 0, "duration": 89}, {"note": 65, "velocity": 90, "duration": 1183}, {"note": 0, "velocity": 0, "duration": 1217}, {"note": 68, "velocity": 92, "duration": 576}, {"note": 0, "velocity": 0, "duration": 144}, {"note": 61, "velocity": 94, "duration": 244}, {"note": 58, "velocity": 89, "duration": 449}, {"note": 63, "velocity": 86, "duration": 262}, {"note": 61, "velocity": 93, "duration": 1713}, {"note": 0, "velocity": 0, "duration": 447}, {"note": 58, "velocity": 93, "duration": 506}, {"note": 61, "velocity": 94, "duration": 205}, {"note": 61, "velocity": 93, "duration": 168}, {"note": 0, "velocity": 0, "duration": 72}, {"note": 61, "velocity": 94, "duration": 346}, {"note": 0, "velocity": 0, "duration": 134}, {"note": 63, "velocity": 93, "duration": 1488}, {"note": 0, "velocity": 0, "duration": 672}, {"note": 56, "velocity": 87, "duration": 196}, {"note": 61, "velocity": 92, "duration": 407}, {"note": 0, "velocity": 0, "duration": 73}, {"note": 63, "velocity": 92, "duration": 255}, {"note": 61, "velocity": 86, "duration": 295}, {"note": 65, "velocity": 91, "duration": 1853}, {"note": 0, "velocity": 0, "duration": 1027}, {"note": 68, "velocity": 92, "duration": 422}, {"note": 70, "velocity": 94, "duration": 187}, {"note": 73, "velocity": 91, "duration": 182}, {"note": 75, "velocity": 96, "duration": 626}, {"note": 0, "velocity": 0, "duration": 94}, {"note": 73, "velocity": 89, "duration": 1676}, {"note": 0, "velocity": 0, "duration": 244}, {"note": 73, "velocity": 94, "duration": 153}, {"note": 0, "velocity": 0, "duration": 87}, {"note": 73, "velocity": 92, "duration": 462}, {"note": 0, "velocity": 0, "duration": 258}, {"note": 58, "velocity": 90, "duration": 196}, {"note": 63, "velocity": 89, "duration": 459}, {"note": 61, "velocity": 92, "duration": 1544}, {"note": 0, "velocity": 0, "duration": 856}, {"note": 58, "velocity": 93, "duration": 485}, {"note": 61, "velocity": 92, "duration": 389}, {"note": 0, "velocity": 0, "duration": 91}, {"note": 61, "velocity": 92, "duration": 214}, {"note": 63, "velocity": 92, "duration": 2131}, {"note": 0, "velocity": 0, "duration": 509}, {"note": 73, "velocity": 94, "duration": 416}, {"note": 0, "velocity": 0, "duration": 64}, {"note": 72, "velocity": 94, "duration": 353}, {"note": 0, "velocity": 0, "duration": 127}, {"note": 73, "velocity": 93, "duration": 127}, {"note": 0, "velocity": 0, "duration": 113}, {"note": 72, "velocity": 93, "duration": 106}, {"note": 0, "velocity": 0, "duration": 134}, {"note": 73, "velocity": 93, "duration": 129}, {"note": 0, "velocity": 0, "duration": 111}, {"note": 72, "velocity": 94, "duration": 141}, {"note": 0, "velocity": 0, "duration": 99}, {"note": 68, "velocity": 92, "duration": 331}, {"note": 0, "velocity": 0, "duration": 149}, {"note": 63, "velocity": 93, "duration": 168}, {"note": 0, "velocity": 0, "duration": 66}, {"note": 65, "velocity": 87, "duration": 254}, {"note": 68, "velocity": 92, "duration": 480}, {"note": 65, "velocity": 93, "duration": 670}, {"note": 73, "velocity": 95, "duration": 129}, {"note": 0, "velocity": 0, "duration": 111}, {"note": 73, "velocity": 94, "duration": 143}, {"note": 0, "velocity": 0, "duration": 97}, {"note": 72, "velocity": 93, "duration": 143}, {"note": 0, "velocity": 0, "duration": 97}, {"note": 73, "velocity": 94, "duration": 149}, {"note": 0, "velocity": 0, "duration": 91}, {"note": 72, "velocity": 91, "duration": 126}, {"note": 0, "velocity": 0, "duration": 114}, {"note": 73, "velocity": 92, "duration": 139}, {"note": 0, "velocity": 0, "duration": 101}, {"note": 72, "velocity": 88, "duration": 142}, {"note": 0, "velocity": 0, "duration": 98}, {"note": 68, "velocity": 88, "duration": 139}, {"note": 0, "velocity": 0, "duration": 101}, {"note": 63, "velocity": 88, "duration": 147}, {"note": 0, "velocity": 0, "duration": 93}, {"note": 65, "velocity": 85, "duration": 193}, {"note": 68, "velocity": 88, "duration": 406}, {"note": 0, "velocity": 0, "duration": 74}, {"note": 65, "velocity": 93, "duration": 795}, {"note": 0, "velocity": 0, "duration": 165}, {"note": 68, "velocity": 85, "duration": 181}, {"note": 70, "velocity": 94, "duration": 168}, {"note": 0, "velocity": 0, "duration": 72}, {"note": 68, "velocity": 94, "duration": 165}, {"note": 0, "velocity": 0, "duration": 75}, {"note": 70, "velocity": 96, "duration": 397}, {"note": 0, "velocity": 0, "duration": 83}, {"note": 68, "velocity": 92, "duration": 214}, {"note": 77, "velocity": 94, "duration": 405}, {"note": 0, "velocity": 0, "duration": 75}, {"note": 68, "velocity": 92, "duration": 153}, {"note": 0, "velocity": 0, "duration": 87}, {"note": 70, "velocity": 93, "duration": 131}, {"note": 0, "velocity": 0, "duration": 109}, {"note": 68, "velocity": 94, "duration": 165}, {"note": 0, "velocity": 0, "duration": 75}, {"note": 70, "velocity": 91, "duration": 440}, {"note": 68, "velocity": 92, "duration": 220}, {"note": 77, "velocity": 93, "duration": 720}, {"note": 0, "velocity": 0, "duration": 240}, {"note": 77, "velocity": 93, "duration": 165}, {"note": 0, "velocity": 0, "duration": 75}, {"note": 78, "velocity": 94, "duration": 195}, {"note": 77, "velocity": 94, "duration": 185}, {"note": 75, "velocity": 96, "duration": 212}, {"note": 73, "velocity": 92, "duration": 143}, {"note": 0, "velocity": 0, "duration": 97}, {"note": 73, "velocity": 90, "duration": 144}, {"note": 0, "velocity": 0, "duration": 96}, {"note": 70, "velocity": 93, "duration": 205}, {"note": 73, "velocity": 89, "duration": 168}, {"note": 0, "velocity": 0, "duration": 72}, {"note": 75, "velocity": 94, "duration": 1283}, {"note": 0, "velocity": 0, "duration": 157}, {"note": 68, "velocity": 94, "duration": 240}, {"note": 73, "velocity": 94, "duration": 240}, {"note": 72, "velocity": 94, "duration": 240}, {"note": 73, "velocity": 93, "duration": 127}, {"note": 0, "velocity": 0, "duration": 113}, {"note": 72, "velocity": 93, "duration": 106}, {"note": 0, "velocity": 0, "duration": 134}, {"note": 73, "velocity": 93, "duration": 129}, {"note": 0, "velocity": 0, "duration": 111}, {"note": 72, "velocity": 94, "duration": 141}, {"note": 0, "velocity": 0, "duration": 99}, {"note": 68, "velocity": 92, "duration": 331}, {"note": 0, "velocity": 0, "duration": 149}, {"note": 63, "velocity": 93, "duration": 168}, {"note": 0, "velocity": 0, "duration": 66}, {"note": 65, "velocity": 87, "duration": 254}, {"note": 68, "velocity": 92, "duration": 480}, {"note": 65, "velocity": 93, "duration": 670}, {"note": 73, "velocity": 95, "duration": 129}, {"note": 0, "velocity": 0, "duration": 111}, {"note": 73, "velocity": 94, "duration": 143}, {"note": 0, "velocity": 0, "duration": 97}, {"note": 72, "velocity": 93, "duration": 143}, {"note": 0, "velocity": 0, "duration": 97}, {"note": 73, "velocity": 94, "duration": 149}, {"note": 0, "velocity": 0, "duration": 91}, {"note": 72, "velocity": 91, "duration": 126}, {"note": 0, "velocity": 0, "duration": 114}, {"note": 73, "velocity": 92, "duration": 139}, {"note": 0, "velocity": 0, "duration": 101}, {"note": 72, "velocity": 88, "duration": 142}, {"note": 0, "velocity": 0, "duration": 98}, {"note": 68, "velocity": 88, "duration": 139}, {"note": 0, "velocity": 0, "duration": 101}, {"note": 63, "velocity": 88, "duration": 147}, {"note": 0, "velocity": 0, "duration": 93}, {"note": 65, "velocity": 85, "duration": 193}, {"note": 63, "velocity": 88, "duration": 406}, {"note": 0, "velocity": 0, "duration": 74}, {"note": 65, "velocity": 93, "duration": 795}, {"note": 0, "velocity": 0, "duration": 165}, {"note": 68, "velocity": 85, "duration": 181}, {"note": 70, "velocity": 94, "duration": 168}, {"note": 0, "velocity": 0, "duration": 72}, {"note": 68, "velocity": 94, "duration": 165}, {"note": 0, "velocity": 0, "duration": 75}, {"note": 70, "velocity": 96, "duration": 397}, {"note": 0, "velocity": 0, "duration": 83}, {"note": 68, "velocity": 92, "duration": 214}, {"note": 77, "velocity": 94, "duration": 405}, {"note": 0, "velocity": 0, "duration": 75}, {"note": 68, "velocity": 92, "duration": 153}, {"note": 0, "velocity": 0, "duration": 87}, {"note": 70, "velocity": 93, "duration": 131}, {"note": 0, "velocity": 0, "duration": 109}, {"note": 68, "velocity": 94, "duration": 165}, {"note": 0, "velocity": 0, "duration": 75}, {"note": 70, "velocity": 91, "duration": 440}, {"note": 68, "velocity": 92, "duration": 220}, {"note": 77, "velocity": 93, "duration": 720}, {"note": 0, "velocity": 0, "duration": 240}, {"note": 77, "velocity": 93, "duration": 165}, {"note": 0, "velocity": 0, "duration": 75}, {"note": 78, "velocity": 94, "duration": 195}, {"note": 77, "velocity": 94, "duration": 185}, {"note": 75, "velocity": 96, "duration": 212}, {"note": 73, "velocity": 92, "duration": 143}, {"note": 0, "velocity": 0, "duration": 97}, {"note": 73, "velocity": 90, "duration": 144}, {"note": 0, "velocity": 0, "duration": 96}, {"note": 70, "velocity": 93, "duration": 205}, {"note": 73, "velocity": 89, "duration": 168}, {"note": 0, "velocity": 0, "duration": 72}, {"note": 75, "velocity": 94, "duration": 1200}, {"note": 73, "velocity": 92, "duration": 449}, {"note": 68, "velocity": 85, "duration": 232}, {"note": 75, "velocity": 95, "duration": 497}, {"note": 73, "velocity": 94, "duration": 1623}, {"note": 0, "velocity": 0, "duration": 12537}, {"note": 68, "velocity": 87, "duration": 538}, {"note": 0, "velocity": 0, "duration": 182}, {"note": 65, "velocity": 94, "duration": 205}, {"note": 63, "velocity": 92, "duration": 445}, {"note": 65, "velocity": 94, "duration": 1362}, {"note": 0, "velocity": 0, "duration": 1038}, {"note": 68, "velocity": 92, "duration": 352}, {"note": 0, "velocity": 0, "duration": 128}, {"note": 65, "velocity": 91, "duration": 141}, {"note": 0, "velocity": 0, "duration": 99}, {"note": 65, "velocity": 94, "duration": 174}, {"note": 0, "velocity": 0, "duration": 66}, {"note": 63, "velocity": 90, "duration": 391}, {"note": 0, "velocity": 0, "duration": 89}, {"note": 65, "velocity": 90, "duration": 1183}, {"note": 0, "velocity": 0, "duration": 1217}, {"note": 68, "velocity": 92, "duration": 576}, {"note": 0, "velocity": 0, "duration": 144}, {"note": 61, "velocity": 94, "duration": 244}, {"note": 58, "velocity": 89, "duration": 449}, {"note": 63, "velocity": 86, "duration": 262}, {"note": 61, "velocity": 93, "duration": 1713}, {"note": 0, "velocity": 0, "duration": 447}, {"note": 58, "velocity": 93, "duration": 506}, {"note": 61, "velocity": 94, "duration": 205}, {"note": 61, "velocity": 93, "duration": 168}, {"note": 0, "velocity": 0, "duration": 72}, {"note": 61, "velocity": 94, "duration": 346}, {"note": 0, "velocity": 0, "duration": 134}, {"note": 63, "velocity": 93, "duration": 1488}, {"note": 0, "velocity": 0, "duration": 672}, {"note": 56, "velocity": 87, "duration": 196}, {"note": 61, "velocity": 92, "duration": 407}, {"note": 0, "velocity": 0, "duration": 73}, {"note": 63, "velocity": 92, "duration": 255}, {"note": 61, "velocity": 86, "duration": 295}, {"note": 65, "velocity": 91, "duration": 1853}, {"note": 0, "velocity": 0, "duration": 1027}, {"note": 68, "velocity": 92, "duration": 422}, {"note": 70, "velocity": 94, "duration": 187}, {"note": 73, "velocity": 91, "duration": 182}, {"note": 75, "velocity": 96, "duration": 626}, {"note": 0, "velocity": 0, "duration": 94}, {"note": 73, "velocity": 89, "duration": 1676}, {"note": 0, "velocity": 0, "duration": 244}, {"note": 73, "velocity": 94, "duration": 153}, {"note": 0, "velocity": 0, "duration": 87}, {"note": 73, "velocity": 92, "duration": 360}, {"note": 73, "velocity": 92, "duration": 360}, {"note": 63, "velocity": 90, "duration": 196}, {"note": 65, "velocity": 89, "duration": 459}, {"note": 63, "velocity": 92, "duration": 240}, {"note": 61, "velocity": 92, "duration": 1304}, {"note": 0, "velocity": 0, "duration": 616}, {"note": 58, "velocity": 83, "duration": 224}, {"note": 70, "velocity": 93, "duration": 436}, {"note": 68, "velocity": 91, "duration": 525}, {"note": 61, "velocity": 94, "duration": 744}, {"note": 63, "velocity": 92, "duration": 1694}, {"note": 0, "velocity": 0, "duration": 466}, {"note": 73, "velocity": 94, "duration": 416}, {"note": 0, "velocity": 0, "duration": 64}, {"note": 72, "velocity": 94, "duration": 353}, {"note": 0, "velocity": 0, "duration": 127}, {"note": 73, "velocity": 93, "duration": 127}, {"note": 0, "velocity": 0, "duration": 113}, {"note": 72, "velocity": 93, "duration": 106}, {"note": 0, "velocity": 0, "duration": 134}, {"note": 73, "velocity": 93, "duration": 129}, {"note": 0, "velocity": 0, "duration": 111}, {"note": 72, "velocity": 94, "duration": 141}, {"note": 0, "velocity": 0, "duration": 99}, {"note": 68, "velocity": 92, "duration": 176}, {"note": 0, "velocity": 0, "duration": 67}, {"note": 63, "velocity": 93, "duration": 168}, {"note": 0, "velocity": 0, "duration": 66}, {"note": 65, "velocity": 87, "duration": 254}, {"note": 68, "velocity": 92, "duration": 480}, {"note": 65, "velocity": 93, "duration": 670}, {"note": 0, "velocity": 0, "duration": 287}, {"note": 73, "velocity": 95, "duration": 129}, {"note": 0, "velocity": 0, "duration": 111}, {"note": 73, "velocity": 94, "duration": 143}, {"note": 0, "velocity": 0, "duration": 97}, {"note": 72, "velocity": 93, "duration": 143}, {"note": 0, "velocity": 0, "duration": 97}, {"note": 73, "velocity": 94, "duration": 149}, {"note": 0, "velocity": 0, "duration": 91}, {"note": 72, "velocity": 91, "duration": 126}, {"note": 0, "velocity": 0, "duration": 114}, {"note": 73, "velocity": 92, "duration": 139}, {"note": 0, "velocity": 0, "duration": 101}, {"note": 72, "velocity": 88, "duration": 142}, {"note": 0, "velocity": 0, "duration": 98}, {"note": 68, "velocity": 88, "duration": 139}, {"note": 0, "velocity": 0, "duration": 101}, {"note": 63, "velocity": 88, "duration": 147}, {"note": 0, "velocity": 0, "duration": 93}, {"note": 65, "velocity": 85, "duration": 193}, {"note": 68, "velocity": 88, "duration": 406}, {"note": 0, "velocity": 0, "duration": 74}, {"note": 65, "velocity": 93, "duration": 795}, {"note": 0, "velocity": 0, "duration": 165}, {"note": 68, "velocity": 85, "duration": 181}, {"note": 70, "velocity": 94, "duration": 168}, {"note": 0, "velocity": 0, "duration": 72}, {"note": 68, "velocity": 94, "duration": 165}, {"note": 0, "velocity": 0, "duration": 75}, {"note": 70, "velocity": 96, "duration": 333}, {"note": 68, "velocity": 92, "duration": 214}, {"note": 0, "velocity": 0, "duration": 162}, {"note": 77, "velocity": 94, "duration": 405}, {"note": 0, "velocity": 0, "duration": 75}, {"note": 68, "velocity": 92, "duration": 153}, {"note": 0, "velocity": 0, "duration": 87}, {"note": 70, "velocity": 93, "duration": 131}, {"note": 0, "velocity": 0, "duration": 109}, {"note": 68, "velocity": 94, "duration": 165}, {"note": 0, "velocity": 0, "duration": 75}, {"note": 70, "velocity": 91, "duration": 440}, {"note": 68, "velocity": 92, "duration": 220}, {"note": 0, "velocity": 0, "duration": 97}, {"note": 77, "velocity": 93, "duration": 720}, {"note": 0, "velocity": 0, "duration": 240}, {"note": 77, "velocity": 93, "duration": 165}, {"note": 0, "velocity": 0, "duration": 75}, {"note": 78, "velocity": 94, "duration": 195}, {"note": 77, "velocity": 94, "duration": 185}, {"note": 75, "velocity": 96, "duration": 212}, {"note": 73, "velocity": 92, "duration": 143}, {"note": 0, "velocity": 0, "duration": 97}, {"note": 73, "velocity": 90, "duration": 144}, {"note": 0, "velocity": 0, "duration": 96}, {"note": 70, "velocity": 93, "duration": 205}, {"note": 73, "velocity": 89, "duration": 168}, {"note": 0, "velocity": 0, "duration": 71}, {"note": 73, "velocity": 97, "duration": 102}, {"note": 75, "velocity": 94, "duration": 1162}, {"note": 0, "velocity": 0, "duration": 157}, {"note": 68, "velocity": 94, "duration": 240}, {"note": 73, "velocity": 94, "duration": 240}, {"note": 72, "velocity": 94, "duration": 240}, {"note": 73, "velocity": 93, "duration": 127}, {"note": 0, "velocity": 0, "duration": 113}, {"note": 72, "velocity": 93, "duration": 106}, {"note": 0, "velocity": 0, "duration": 134}, {"note": 73, "velocity": 93, "duration": 129}, {"note": 0, "velocity": 0, "duration": 111}, {"note": 72, "velocity": 94, "duration": 141}, {"note": 0, "velocity": 0, "duration": 99}, {"note": 68, "velocity": 92, "duration": 331}, {"note": 63, "velocity": 93, "duration": 168}, {"note": 0, "velocity": 0, "duration": 66}, {"note": 65, "velocity": 87, "duration": 224}, {"note": 65, "velocity": 97, "duration": 183}, {"note": 68, "velocity": 92, "duration": 250}, {"note": 0, "velocity": 0, "duration": 127}, {"note": 65, "velocity": 93, "duration": 543}, {"note": 0, "velocity": 0, "duration": 289}, {"note": 73, "velocity": 95, "duration": 129}, {"note": 0, "velocity": 0, "duration": 111}, {"note": 73, "velocity": 94, "duration": 143}, {"note": 0, "velocity": 0, "duration": 97}, {"note": 72, "velocity": 93, "duration": 143}, {"note": 0, "velocity": 0, "duration": 97}, {"note": 73, "velocity": 94, "duration": 149}, {"note": 0, "velocity": 0, "duration": 91}, {"note": 72, "velocity": 91, "duration": 126}, {"note": 0, "velocity": 0, "duration": 114}, {"note": 73, "velocity": 92, "duration": 139}, {"note": 0, "velocity": 0, "duration": 101}, {"note": 72, "velocity": 88, "duration": 142}, {"note": 0, "velocity": 0, "duration": 98}, {"note": 68, "velocity": 88, "duration": 139}, {"note": 0, "velocity": 0, "duration": 101}, {"note": 63, "velocity": 88, "duration": 147}, {"note": 0, "velocity": 0, "duration": 93}, {"note": 65, "velocity": 85, "duration": 193}, {"note": 63, "velocity": 88, "duration": 406}, {"note": 0, "velocity": 0, "duration": 74}, {"note": 65, "velocity": 93, "duration": 795}, {"note": 0, "velocity": 0, "duration": 165}, {"note": 68, "velocity": 85, "duration": 181}, {"note": 70, "velocity": 94, "duration": 168}, {"note": 0, "velocity": 0, "duration": 72}, {"note": 68, "velocity": 94, "duration": 165}, {"note": 0, "velocity": 0, "duration": 75}, {"note": 70, "velocity": 96, "duration": 397}, {"note": 68, "velocity": 92, "duration": 214}, {"note": 0, "velocity": 0, "duration": 172}, {"note": 77, "velocity": 94, "duration": 405}, {"note": 0, "velocity": 0, "duration": 75}, {"note": 68, "velocity": 92, "duration": 153}, {"note": 0, "velocity": 0, "duration": 87}, {"note": 70, "velocity": 93, "duration": 131}, {"note": 0, "velocity": 0, "duration": 109}, {"note": 68, "velocity": 94, "duration": 165}, {"note": 0, "velocity": 0, "duration": 75}, {"note": 70, "velocity": 91, "duration": 440}, {"note": 68, "velocity": 92, "duration": 220}, {"note": 0, "velocity": 0, "duration": 158}, {"note": 77, "velocity": 93, "duration": 720}, {"note": 0, "velocity": 0, "duration": 240}, {"note": 77, "velocity": 93, "duration": 165}, {"note": 0, "velocity": 0, "duration": 75}, {"note": 78, "velocity": 94, "duration": 195}, {"note": 77, "velocity": 94, "duration": 185}, {"note": 75, "velocity": 96, "duration": 212}, {"note": 73, "velocity": 92, "duration": 143}, {"note": 0, "velocity": 0, "duration": 97}, {"note": 73, "velocity": 90, "duration": 144}, {"note": 0, "velocity": 0, "duration": 96}, {"note": 70, "velocity": 93, "duration": 205}, {"note": 73, "velocity": 89, "duration": 168}, {"note": 0, "velocity": 0, "duration": 72}, {"note": 75, "velocity": 94, "duration": 1200}, {"note": 73, "velocity": 92, "duration": 449}, {"note": 68, "velocity": 85, "duration": 232}, {"note": 75, "velocity": 95, "duration": 497}, {"note": 77, "velocity": 94, "duration": 645}, {"note": 0, "velocity": 0, "duration": 279}, {"note": 77, "velocity": 91, "duration": 88}, {"note": 0, "velocity": 0, "duration": 137}, {"note": 77, "velocity": 91, "duration": 182}, {"note": 75, "velocity": 96, "duration": 534}, {"note": 0, "velocity": 0, "duration": 6727}, {"note": 70, "velocity": 94, "duration": 240}, {"note": 75, "velocity": 94, "duration": 240}, {"note": 74, "velocity": 94, "duration": 240}, {"note": 75, "velocity": 93, "duration": 127}, {"note": 0, "velocity": 0, "duration": 113}, {"note": 74, "velocity": 93, "duration": 106}, {"note": 0, "velocity": 0, "duration": 134}, {"note": 75, "velocity": 93, "duration": 129}, {"note": 0, "velocity": 0, "duration": 111}, {"note": 74, "velocity": 94, "duration": 141}, {"note": 0, "velocity": 0, "duration": 99}, {"note": 70, "velocity": 92, "duration": 331}, {"note": 0, "velocity": 0, "duration": 149}, {"note": 65, "velocity": 93, "duration": 168}, {"note": 0, "velocity": 0, "duration": 66}, {"note": 67, "velocity": 87, "duration": 254}, {"note": 70, "velocity": 92, "duration": 480}, {"note": 67, "velocity": 93, "duration": 670}, {"note": 70, "velocity": 95, "duration": 129}, {"note": 0, "velocity": 0, "duration": 111}, {"note": 75, "velocity": 94, "duration": 143}, {"note": 0, "velocity": 0, "duration": 97}, {"note": 74, "velocity": 93, "duration": 143}, {"note": 0, "velocity": 0, "duration": 97}, {"note": 75, "velocity": 94, "duration": 149}, {"note": 0, "velocity": 0, "duration": 91}, {"note": 74, "velocity": 91, "duration": 126}, {"note": 0, "velocity": 0, "duration": 114}, {"note": 75, "velocity": 92, "duration": 139}, {"note": 0, "velocity": 0, "duration": 101}, {"note": 74, "velocity": 88, "duration": 142}, {"note": 0, "velocity": 0, "duration": 98}, {"note": 70, "velocity": 88, "duration": 139}, {"note": 0, "velocity": 0, "duration": 101}, {"note": 65, "velocity": 88, "duration": 147}, {"note": 0, "velocity": 0, "duration": 93}, {"note": 67, "velocity": 85, "duration": 193}, {"note": 70, "velocity": 88, "duration": 406}, {"note": 0, "velocity": 0, "duration": 74}, {"note": 67, "velocity": 93, "duration": 795}, {"note": 0, "velocity": 0, "duration": 165}, {"note": 70, "velocity": 85, "duration": 181}, {"note": 72, "velocity": 94, "duration": 168}, {"note": 0, "velocity": 0, "duration": 72}, {"note": 70, "velocity": 94, "duration": 165}, {"note": 0, "velocity": 0, "duration": 75}, {"note": 72, "velocity": 96, "duration": 397}, {"note": 0, "velocity": 0, "duration": 83}, {"note": 70, "velocity": 92, "duration": 214}, {"note": 79, "velocity": 94, "duration": 405}, {"note": 0, "velocity": 0, "duration": 75}, {"note": 70, "velocity": 92, "duration": 153}, {"note": 0, "velocity": 0, "duration": 87}, {"note": 72, "velocity": 93, "duration": 131}, {"note": 0, "velocity": 0, "duration": 109}, {"note": 70, "velocity": 94, "duration": 165}, {"note": 0, "velocity": 0, "duration": 75}, {"note": 72, "velocity": 91, "duration": 440}, {"note": 70, "velocity": 92, "duration": 220}, {"note": 79, "velocity": 93, "duration": 720}, {"note": 0, "velocity": 0, "duration": 240}, {"note": 79, "velocity": 93, "duration": 165}, {"note": 0, "velocity": 0, "duration": 75}, {"note": 80, "velocity": 94, "duration": 195}, {"note": 79, "velocity": 94, "duration": 185}, {"note": 77, "velocity": 96, "duration": 212}, {"note": 75, "velocity": 92, "duration": 143}, {"note": 0, "velocity": 0, "duration": 97}, {"note": 75, "velocity": 90, "duration": 144}, {"note": 0, "velocity": 0, "duration": 96}, {"note": 72, "velocity": 93, "duration": 205}, {"note": 75, "velocity": 89, "duration": 168}, {"note": 0, "velocity": 0, "duration": 72}, {"note": 77, "velocity": 94, "duration": 1283}, {"note": 0, "velocity": 0, "duration": 157}, {"note": 75, "velocity": 94, "duration": 140}, {"note": 0, "velocity": 0, "duration": 100}, {"note": 75, "velocity": 94, "duration": 240}, {"note": 74, "velocity": 94, "duration": 240}, {"note": 75, "velocity": 93, "duration": 127}, {"note": 0, "velocity": 0, "duration": 113}, {"note": 74, "velocity": 93, "duration": 106}, {"note": 0, "velocity": 0, "duration": 134}, {"note": 75, "velocity": 93, "duration": 129}, {"note": 0, "velocity": 0, "duration": 111}, {"note": 74, "velocity": 94, "duration": 141}, {"note": 0, "velocity": 0, "duration": 99}, {"note": 70, "velocity": 92, "duration": 331}, {"note": 0, "velocity": 0, "duration": 144}, {"note": 65, "velocity": 93, "duration": 168}, {"note": 0, "velocity": 0, "duration": 71}, {"note": 67, "velocity": 87, "duration": 420}, {"note": 0, "velocity": 0, "duration": 62}, {"note": 65, "velocity": 92, "duration": 244}, {"note": 67, "velocity": 93, "duration": 670}, {"note": 75, "velocity": 95, "duration": 129}, {"note": 0, "velocity": 0, "duration": 111}, {"note": 75, "velocity": 94, "duration": 143}, {"note": 0, "velocity": 0, "duration": 97}, {"note": 74, "velocity": 93, "duration": 143}, {"note": 0, "velocity": 0, "duration": 97}, {"note": 75, "velocity": 94, "duration": 149}, {"note": 0, "velocity": 0, "duration": 91}, {"note": 74, "velocity": 91, "duration": 126}, {"note": 0, "velocity": 0, "duration": 114}, {"note": 75, "velocity": 92, "duration": 139}, {"note": 0, "velocity": 0, "duration": 101}, {"note": 74, "velocity": 88, "duration": 142}, {"note": 0, "velocity": 0, "duration": 98}, {"note": 70, "velocity": 88, "duration": 139}, {"note": 0, "velocity": 0, "duration": 101}, {"note": 65, "velocity": 88, "duration": 147}, {"note": 0, "velocity": 0, "duration": 93}, {"note": 67, "velocity": 85, "duration": 193}, {"note": 65, "velocity": 88, "duration": 406}, {"note": 0, "velocity": 0, "duration": 74}, {"note": 67, "velocity": 93, "duration": 795}, {"note": 0, "velocity": 0, "duration": 165}, {"note": 70, "velocity": 85, "duration": 181}, {"note": 72, "velocity": 94, "duration": 168}, {"note": 0, "velocity": 0, "duration": 72}, {"note": 70, "velocity": 94, "duration": 165}, {"note": 0, "velocity": 0, "duration": 75}, {"note": 72, "velocity": 96, "duration": 397}, {"note": 0, "velocity": 0, "duration": 83}, {"note": 70, "velocity": 92, "duration": 214}, {"note": 79, "velocity": 94, "duration": 405}, {"note": 0, "velocity": 0, "duration": 75}, {"note": 70, "velocity": 92, "duration": 153}, {"note": 0, "velocity": 0, "duration": 87}, {"note": 72, "velocity": 93, "duration": 131}, {"note": 0, "velocity": 0, "duration": 109}, {"note": 70, "velocity": 94, "duration": 165}, {"note": 0, "velocity": 0, "duration": 75}, {"note": 72, "velocity": 91, "duration": 440}, {"note": 70, "velocity": 92, "duration": 220}, {"note": 79, "velocity": 93, "duration": 720}, {"note": 0, "velocity": 0, "duration": 240}, {"note": 79, "velocity": 93, "duration": 165}, {"note": 0, "velocity": 0, "duration": 75}, {"note": 80, "velocity": 94, "duration": 195}, {"note": 79, "velocity": 94, "duration": 185}, {"note": 77, "velocity": 96, "duration": 212}, {"note": 75, "velocity": 92, "duration": 143}, {"note": 0, "velocity": 0, "duration": 97}, {"note": 82, "velocity": 90, "duration": 144}, {"note": 0, "velocity": 0, "duration": 336}, {"note": 82, "velocity": 93, "duration": 205}, {"note": 75, "velocity": 89, "duration": 480}, {"note": 77, "velocity": 94, "duration": 1920}, {"note": 0, "velocity": 0, "duration": 720}, {"note": 75, "velocity": 97, "duration": 439}, {"note": 70, "velocity": 94, "duration": 228}, {"note": 77, "velocity": 94, "duration": 405}, {"note": 0, "velocity": 0, "duration": 75}, {"note": 75, "velocity": 96, "duration": 2028}, {"note": 0, "velocity": 0, "duration": 4452}, {"note": 75, "velocity": 99, "duration": 439}, {"note": 70, "velocity": 93, "duration": 197}, {"note": 77, "velocity": 96, "duration": 409}, {"note": 0, "velocity": 0, "duration": 71}, {"note": 79, "velocity": 93, "duration": 2396}, {"note": 0, "velocity": 0, "duration": 244}, {"note": 75, "velocity": 99, "duration": 376}, {"note": 0, "velocity": 0, "duration": 104}, {"note": 70, "velocity": 93, "duration": 220}, {"note": 77, "velocity": 96, "duration": 947}, {"note": 75, "velocity": 96, "duration": 1989}]]