[[{"note": 59, "velocity": 86, "duration": 77}, {"note": 59, "velocity": 86, "duration": 106}, {"note": 66, "velocity": 82, "duration": 207}, {"note": 68, "velocity": 77, "duration": 171}, {"note": 0, "velocity": 0, "duration": 69}, {"note": 66, "velocity": 86, "duration": 199}, {"note": 64, "velocity": 85, "duration": 100}, {"note": 66, "velocity": 85, "duration": 695}, {"note": 0, "velocity": 0, "duration": 121}, {"note": 64, "velocity": 79, "duration": 82}, {"note": 63, "velocity": 79, "duration": 71}, {"note": 64, "velocity": 85, "duration": 215}, {"note": 0, "velocity": 0, "duration": 262}, {"note": 66, "velocity": 86, "duration": 184}, {"note": 0, "velocity": 0, "duration": 61}, {"note": 68, "velocity": 85, "duration": 78}, {"note": 63, "velocity": 85, "duration": 722}, {"note": 0, "velocity": 0, "duration": 224}, {"note": 59, "velocity": 81, "duration": 91}, {"note": 61, "velocity": 86, "duration": 202}, {"note": 64, "velocity": 86, "duration": 164}, {"note": 0, "velocity": 0, "duration": 74}, {"note": 64, "velocity": 86, "duration": 174}, {"note": 0, "velocity": 0, "duration": 61}, {"note": 73, "velocity": 87, "duration": 177}, {"note": 0, "velocity": 0, "duration": 64}, {"note": 71, "velocity": 85, "duration": 508}, {"note": 0, "velocity": 0, "duration": 211}, {"note": 66, "velocity": 86, "duration": 274}, {"note": 68, "velocity": 86, "duration": 1178}, {"note": 0, "velocity": 0, "duration": 517}, {"note": 59, "velocity": 81, "duration": 64}, {"note": 59, "velocity": 85, "duration": 91}, {"note": 68, "velocity": 86, "duration": 380}, {"note": 0, "velocity": 0, "duration": 96}, {"note": 66, "velocity": 85, "duration": 190}, {"note": 0, "velocity": 0, "duration": 61}, {"note": 64, "velocity": 78, "duration": 83}, {"note": 66, "velocity": 80, "duration": 693}, {"note": 0, "velocity": 0, "duration": 135}, {"note": 64, "velocity": 86, "duration": 99}, {"note": 63, "velocity": 87, "duration": 94}, {"note": 64, "velocity": 88, "duration": 235}, {"note": 63, "velocity": 85, "duration": 109}, {"note": 64, "velocity": 88, "duration": 335}, {"note": 73, "velocity": 92, "duration": 252}, {"note": 71, "velocity": 86, "duration": 561}, {"note": 0, "velocity": 0, "duration": 269}, {"note": 59, "velocity": 80, "duration": 97}, {"note": 61, "velocity": 86, "duration": 200}, {"note": 64, "velocity": 86, "duration": 156}, {"note": 0, "velocity": 0, "duration": 77}, {"note": 64, "velocity": 85, "duration": 201}, {"note": 69, "velocity": 85, "duration": 221}, {"note": 68, "velocity": 85, "duration": 619}, {"note": 0, "velocity": 0, "duration": 113}, {"note": 66, "velocity": 85, "duration": 195}, {"note": 64, "velocity": 84, "duration": 1306}, {"note": 0, "velocity": 0, "duration": 125}, {"note": 64, "velocity": 86, "duration": 135}, {"note": 68, "velocity": 88, "duration": 105}, {"note": 71, "velocity": 88, "duration": 103}, {"note": 71, "velocity": 87, "duration": 169}, {"note": 73, "velocity": 94, "duration": 830}, {"note": 0, "velocity": 0, "duration": 414}, {"note": 73, "velocity": 99, "duration": 152}, {"note": 71, "velocity": 89, "duration": 141}, {"note": 68, "velocity": 86, "duration": 149}, {"note": 73, "velocity": 90, "duration": 377}, {"note": 71, "velocity": 90, "duration": 883}, {"note": 0, "velocity": 0, "duration": 372}, {"note": 68, "velocity": 86, "duration": 107}, {"note": 71, "velocity": 85, "duration": 86}, {"note": 68, "velocity": 87, "duration": 151}, {"note": 66, "velocity": 81, "duration": 110}, {"note": 66, "velocity": 83, "duration": 91}, {"note": 0, "velocity": 0, "duration": 66}, {"note": 66, "velocity": 86, "duration": 198}, {"note": 64, "velocity": 86, "duration": 185}, {"note": 64, "velocity": 87, "duration": 240}, {"note": 59, "velocity": 86, "duration": 164}, {"note": 0, "velocity": 0, "duration": 76}, {"note": 73, "velocity": 96, "duration": 193}, {"note": 75, "velocity": 90, "duration": 77}, {"note": 73, "velocity": 99, "duration": 348}, {"note": 71, "velocity": 89, "duration": 815}, {"note": 0, "velocity": 0, "duration": 394}, {"note": 64, "velocity": 87, "duration": 134}, {"note": 68, "velocity": 86, "duration": 111}, {"note": 71, "velocity": 88, "duration": 93}, {"note": 0, "velocity": 0, "duration": 62}, {"note": 71, "velocity": 85, "duration": 179}, {"note": 73, "velocity": 92, "duration": 1001}, {"note": 0, "velocity": 0, "duration": 201}, {"note": 76, "velocity": 87, "duration": 122}, {"note": 75, "velocity": 87, "duration": 130}, {"note": 73, "velocity": 92, "duration": 99}, {"note": 0, "velocity": 0, "duration": 63}, {"note": 73, "velocity": 87, "duration": 240}, {"note": 0, "velocity": 0, "duration": 72}, {"note": 71, "velocity": 86, "duration": 79}, {"note": 0, "velocity": 0, "duration": 105}, {"note": 71, "velocity": 92, "duration": 193}, {"note": 78, "velocity": 90, "duration": 177}, {"note": 76, "velocity": 86, "duration": 1199}, {"note": 0, "velocity": 0, "duration": 959}, {"note": 71, "velocity": 86, "duration": 74}, {"note": 73, "velocity": 91, "duration": 88}, {"note": 0, "velocity": 0, "duration": 83}, {"note": 68, "velocity": 76, "duration": 219}, {"note": 66, "velocity": 80, "duration": 72}, {"note": 66, "velocity": 85, "duration": 258}, {"note": 0, "velocity": 0, "duration": 66}, {"note": 64, "velocity": 85, "duration": 663}, {"note": 0, "velocity": 0, "duration": 83}, {"note": 66, "velocity": 87, "duration": 416}, {"note": 64, "velocity": 87, "duration": 1541}, {"note": 0, "velocity": 0, "duration": 123}, {"note": 59, "velocity": 86, "duration": 77}, {"note": 59, "velocity": 86, "duration": 106}, {"note": 66, "velocity": 82, "duration": 207}, {"note": 68, "velocity": 77, "duration": 171}, {"note": 0, "velocity": 0, "duration": 69}, {"note": 66, "velocity": 86, "duration": 199}, {"note": 64, "velocity": 85, "duration": 100}, {"note": 66, "velocity": 85, "duration": 695}, {"note": 0, "velocity": 0, "duration": 121}, {"note": 64, "velocity": 79, "duration": 82}, {"note": 63, "velocity": 79, "duration": 71}, {"note": 64, "velocity": 85, "duration": 215}, {"note": 0, "velocity": 0, "duration": 262}, {"note": 66, "velocity": 86, "duration": 184}, {"note": 0, "velocity": 0, "duration": 61}, {"note": 68, "velocity": 85, "duration": 78}, {"note": 63, "velocity": 85, "duration": 722}, {"note": 0, "velocity": 0, "duration": 224}, {"note": 59, "velocity": 81, "duration": 91}, {"note": 61, "velocity": 86, "duration": 202}, {"note": 64, "velocity": 86, "duration": 164}, {"note": 0, "velocity": 0, "duration": 74}, {"note": 64, "velocity": 86, "duration": 174}, {"note": 0, "velocity": 0, "duration": 61}, {"note": 73, "velocity": 87, "duration": 177}, {"note": 0, "velocity": 0, "duration": 64}, {"note": 71, "velocity": 85, "duration": 508}, {"note": 0, "velocity": 0, "duration": 211}, {"note": 66, "velocity": 86, "duration": 274}, {"note": 68, "velocity": 86, "duration": 1178}, {"note": 0, "velocity": 0, "duration": 517}, {"note": 59, "velocity": 81, "duration": 64}, {"note": 59, "velocity": 85, "duration": 91}, {"note": 68, "velocity": 86, "duration": 380}, {"note": 0, "velocity": 0, "duration": 96}, {"note": 66, "velocity": 85, "duration": 190}, {"note": 0, "velocity": 0, "duration": 61}, {"note": 64, "velocity": 78, "duration": 83}, {"note": 66, "velocity": 80, "duration": 693}, {"note": 0, "velocity": 0, "duration": 135}, {"note": 64, "velocity": 86, "duration": 99}, {"note": 63, "velocity": 87, "duration": 94}, {"note": 64, "velocity": 88, "duration": 235}, {"note": 63, "velocity": 85, "duration": 109}, {"note": 64, "velocity": 88, "duration": 335}, {"note": 73, "velocity": 92, "duration": 252}, {"note": 71, "velocity": 86, "duration": 561}, {"note": 0, "velocity": 0, "duration": 269}, {"note": 59, "velocity": 80, "duration": 97}, {"note": 61, "velocity": 86, "duration": 200}, {"note": 64, "velocity": 86, "duration": 156}, {"note": 0, "velocity": 0, "duration": 77}, {"note": 64, "velocity": 85, "duration": 201}, {"note": 69, "velocity": 85, "duration": 221}, {"note": 68, "velocity": 85, "duration": 619}, {"note": 0, "velocity": 0, "duration": 113}, {"note": 66, "velocity": 85, "duration": 195}, {"note": 64, "velocity": 84, "duration": 1306}, {"note": 0, "velocity": 0, "duration": 11645}, {"note": 65, "velocity": 86, "duration": 135}, {"note": 69, "velocity": 88, "duration": 105}, {"note": 72, "velocity": 88, "duration": 103}, {"note": 72, "velocity": 87, "duration": 169}, {"note": 74, "velocity": 94, "duration": 830}, {"note": 0, "velocity": 0, "duration": 414}, {"note": 74, "velocity": 99, "duration": 152}, {"note": 72, "velocity": 89, "duration": 141}, {"note": 69, "velocity": 86, "duration": 149}, {"note": 74, "velocity": 90, "duration": 377}, {"note": 72, "velocity": 90, "duration": 883}, {"note": 0, "velocity": 0, "duration": 372}, {"note": 69, "velocity": 86, "duration": 107}, {"note": 72, "velocity": 85, "duration": 86}, {"note": 69, "velocity": 87, "duration": 151}, {"note": 67, "velocity": 81, "duration": 110}, {"note": 67, "velocity": 83, "duration": 91}, {"note": 0, "velocity": 0, "duration": 66}, {"note": 67, "velocity": 86, "duration": 198}, {"note": 65, "velocity": 86, "duration": 185}, {"note": 65, "velocity": 87, "duration": 240}, {"note": 60, "velocity": 86, "duration": 164}, {"note": 0, "velocity": 0, "duration": 76}, {"note": 74, "velocity": 96, "duration": 193}, {"note": 76, "velocity": 90, "duration": 77}, {"note": 74, "velocity": 99, "duration": 348}, {"note": 72, "velocity": 89, "duration": 815}, {"note": 0, "velocity": 0, "duration": 394}, {"note": 65, "velocity": 87, "duration": 134}, {"note": 69, "velocity": 86, "duration": 111}, {"note": 72, "velocity": 88, "duration": 93}, {"note": 0, "velocity": 0, "duration": 62}, {"note": 72, "velocity": 85, "duration": 179}, {"note": 74, "velocity": 92, "duration": 1001}, {"note": 0, "velocity": 0, "duration": 201}, {"note": 77, "velocity": 87, "duration": 122}, {"note": 76, "velocity": 87, "duration": 130}, {"note": 74, "velocity": 92, "duration": 99}, {"note": 0, "velocity": 0, "duration": 63}, {"note": 74, "velocity": 87, "duration": 240}, {"note": 0, "velocity": 0, "duration": 72}, {"note": 72, "velocity": 86, "duration": 79}, {"note": 0, "velocity": 0, "duration": 105}, {"note": 72, "velocity": 92, "duration": 193}, {"note": 79, "velocity": 90, "duration": 177}, {"note": 77, "velocity": 86, "duration": 1199}, {"note": 0, "velocity": 0, "duration": 959}, {"note": 72, "velocity": 86, "duration": 74}, {"note": 74, "velocity": 91, "duration": 88}, {"note": 0, "velocity": 0, "duration": 83}, {"note": 69, "velocity": 76, "duration": 219}, {"note": 67, "velocity": 80, "duration": 72}, {"note": 67, "velocity": 85, "duration": 258}, {"note": 0, "velocity": 0, "duration": 66}, {"note": 65, "velocity": 85, "duration": 663}, {"note": 0, "velocity": 0, "duration": 83}, {"note": 67, "velocity": 87, "duration": 416}, {"note": 65, "velocity": 87, "duration": 1541}, {"note": 0, "velocity": 0, "duration": 123}, {"note": 72, "velocity": 86, "duration": 77}, {"note": 74, "velocity": 86, "duration": 106}, {"note": 69, "velocity": 82, "duration": 207}, {"note": 67, "velocity": 77, "duration": 171}, {"note": 0, "velocity": 0, "duration": 69}, {"note": 67, "velocity": 86, "duration": 199}, {"note": 65, "velocity": 85, "duration": 100}, {"note": 65, "velocity": 85, "duration": 695}, {"note": 0, "velocity": 0, "duration": 121}, {"note": 67, "velocity": 79, "duration": 317}, {"note": 0, "velocity": 0, "duration": 177}, {"note": 65, "velocity": 85, "duration": 1192}]]