[[{"note": 69, "velocity": 87, "duration": 131}, {"note": 0, "velocity": 0, "duration": 109}, {"note": 69, "velocity": 87, "duration": 146}, {"note": 0, "velocity": 0, "duration": 94}, {"note": 72, "velocity": 90, "duration": 150}, {"note": 0, "velocity": 0, "duration": 90}, {"note": 72, "velocity": 90, "duration": 162}, {"note": 0, "velocity": 0, "duration": 78}, {"note": 69, "velocity": 93, "duration": 169}, {"note": 0, "velocity": 0, "duration": 71}, {"note": 72, "velocity": 93, "duration": 469}, {"note": 0, "velocity": 0, "duration": 251}, {"note": 67, "velocity": 87, "duration": 131}, {"note": 0, "velocity": 0, "duration": 109}, {"note": 69, "velocity": 87, "duration": 146}, {"note": 0, "velocity": 0, "duration": 94}, {"note": 72, "velocity": 90, "duration": 150}, {"note": 0, "velocity": 0, "duration": 90}, {"note": 72, "velocity": 90, "duration": 162}, {"note": 0, "velocity": 0, "duration": 78}, {"note": 69, "velocity": 93, "duration": 169}, {"note": 0, "velocity": 0, "duration": 71}, {"note": 72, "velocity": 93, "duration": 469}, {"note": 0, "velocity": 0, "duration": 251}, {"note": 69, "velocity": 88, "duration": 172}, {"note": 0, "velocity": 0, "duration": 68}, {"note": 69, "velocity": 90, "duration": 155}, {"note": 0, "velocity": 0, "duration": 85}, {"note": 72, "velocity": 87, "duration": 146}, {"note": 0, "velocity": 0, "duration": 94}, {"note": 72, "velocity": 88, "duration": 168}, {"note": 0, "velocity": 0, "duration": 72}, {"note": 69, "velocity": 88, "duration": 172}, {"note": 0, "velocity": 0, "duration": 68}, {"note": 72, "velocity": 92, "duration": 150}, {"note": 0, "velocity": 0, "duration": 90}, {"note": 67, "velocity": 87, "duration": 85}, {"note": 69, "velocity": 90, "duration": 77}, {"note": 72, "velocity": 90, "duration": 126}, {"note": 0, "velocity": 0, "duration": 114}, {"note": 69, "velocity": 90, "duration": 117}, {"note": 0, "velocity": 0, "duration": 123}, {"note": 72, "velocity": 90, "duration": 137}, {"note": 0, "velocity": 0, "duration": 103}, {"note": 74, "velocity": 93, "duration": 150}, {"note": 0, "velocity": 0, "duration": 90}, {"note": 74, "velocity": 90, "duration": 375}, {"note": 0, "velocity": 0, "duration": 105}, {"note": 72, "velocity": 93, "duration": 458}, {"note": 0, "velocity": 0, "duration": 262}, {"note": 69, "velocity": 87, "duration": 131}, {"note": 0, "velocity": 0, "duration": 109}, {"note": 69, "velocity": 87, "duration": 146}, {"note": 0, "velocity": 0, "duration": 94}, {"note": 72, "velocity": 90, "duration": 150}, {"note": 0, "velocity": 0, "duration": 90}, {"note": 72, "velocity": 90, "duration": 162}, {"note": 0, "velocity": 0, "duration": 78}, {"note": 69, "velocity": 93, "duration": 169}, {"note": 0, "velocity": 0, "duration": 71}, {"note": 72, "velocity": 93, "duration": 469}, {"note": 0, "velocity": 0, "duration": 251}, {"note": 67, "velocity": 87, "duration": 131}, {"note": 0, "velocity": 0, "duration": 109}, {"note": 69, "velocity": 87, "duration": 146}, {"note": 0, "velocity": 0, "duration": 94}, {"note": 72, "velocity": 90, "duration": 150}, {"note": 0, "velocity": 0, "duration": 90}, {"note": 72, "velocity": 90, "duration": 162}, {"note": 0, "velocity": 0, "duration": 78}, {"note": 69, "velocity": 93, "duration": 169}, {"note": 0, "velocity": 0, "duration": 71}, {"note": 72, "velocity": 93, "duration": 469}, {"note": 0, "velocity": 0, "duration": 251}, {"note": 69, "velocity": 88, "duration": 172}, {"note": 0, "velocity": 0, "duration": 68}, {"note": 69, "velocity": 90, "duration": 155}, {"note": 0, "velocity": 0, "duration": 85}, {"note": 72, "velocity": 87, "duration": 146}, {"note": 0, "velocity": 0, "duration": 94}, {"note": 72, "velocity": 88, "duration": 168}, {"note": 0, "velocity": 0, "duration": 72}, {"note": 69, "velocity": 88, "duration": 172}, {"note": 0, "velocity": 0, "duration": 68}, {"note": 72, "velocity": 92, "duration": 150}, {"note": 0, "velocity": 0, "duration": 90}, {"note": 67, "velocity": 87, "duration": 85}, {"note": 69, "velocity": 90, "duration": 77}, {"note": 72, "velocity": 90, "duration": 126}, {"note": 0, "velocity": 0, "duration": 114}, {"note": 69, "velocity": 90, "duration": 117}, {"note": 0, "velocity": 0, "duration": 123}, {"note": 72, "velocity": 90, "duration": 137}, {"note": 0, "velocity": 0, "duration": 103}, {"note": 74, "velocity": 93, "duration": 150}, {"note": 0, "velocity": 0, "duration": 90}, {"note": 74, "velocity": 90, "duration": 375}, {"note": 0, "velocity": 0, "duration": 105}, {"note": 72, "velocity": 93, "duration": 458}, {"note": 0, "velocity": 0, "duration": 262}, {"note": 72, "velocity": 90, "duration": 119}, {"note": 0, "velocity": 0, "duration": 121}, {"note": 72, "velocity": 95, "duration": 356}, {"note": 0, "velocity": 0, "duration": 124}, {"note": 72, "velocity": 86, "duration": 105}, {"note": 0, "velocity": 0, "duration": 135}, {"note": 72, "velocity": 91, "duration": 323}, {"note": 0, "velocity": 0, "duration": 157}, {"note": 72, "velocity": 92, "duration": 127}, {"note": 0, "velocity": 0, "duration": 113}, {"note": 71, "velocity": 93, "duration": 181}, {"note": 69, "velocity": 91, "duration": 123}, {"note": 0, "velocity": 0, "duration": 123}, {"note": 71, "velocity": 86, "duration": 127}, {"note": 0, "velocity": 0, "duration": 113}, {"note": 72, "velocity": 89, "duration": 485}, {"note": 0, "velocity": 0, "duration": 235}, {"note": 67, "velocity": 88, "duration": 218}, {"note": 72, "velocity": 88, "duration": 304}, {"note": 0, "velocity": 0, "duration": 176}, {"note": 72, "velocity": 88, "duration": 82}, {"note": 0, "velocity": 0, "duration": 158}, {"note": 72, "velocity": 90, "duration": 392}, {"note": 0, "velocity": 0, "duration": 88}, {"note": 71, "velocity": 87, "duration": 179}, {"note": 0, "velocity": 0, "duration": 61}, {"note": 72, "velocity": 89, "duration": 291}, {"note": 0, "velocity": 0, "duration": 189}, {"note": 72, "velocity": 87, "duration": 182}, {"note": 71, "velocity": 88, "duration": 174}, {"note": 0, "velocity": 0, "duration": 66}, {"note": 69, "velocity": 86, "duration": 157}, {"note": 0, "velocity": 0, "duration": 83}, {"note": 67, "velocity": 84, "duration": 137}, {"note": 0, "velocity": 0, "duration": 103}, {"note": 67, "velocity": 88, "duration": 501}, {"note": 64, "velocity": 88, "duration": 175}, {"note": 0, "velocity": 0, "duration": 65}, {"note": 65, "velocity": 86, "duration": 189}, {"note": 67, "velocity": 85, "duration": 252}, {"note": 0, "velocity": 0, "duration": 228}, {"note": 67, "velocity": 89, "duration": 93}, {"note": 0, "velocity": 0, "duration": 147}, {"note": 72, "velocity": 89, "duration": 380}, {"note": 0, "velocity": 0, "duration": 100}, {"note": 72, "velocity": 88, "duration": 202}, {"note": 72, "velocity": 82, "duration": 137}, {"note": 0, "velocity": 0, "duration": 103}, {"note": 67, "velocity": 95, "duration": 80}, {"note": 0, "velocity": 0, "duration": 160}, {"note": 72, "velocity": 81, "duration": 162}, {"note": 0, "velocity": 0, "duration": 78}, {"note": 71, "velocity": 88, "duration": 174}, {"note": 0, "velocity": 0, "duration": 66}, {"note": 69, "velocity": 84, "duration": 141}, {"note": 0, "velocity": 0, "duration": 99}, {"note": 71, "velocity": 88, "duration": 140}, {"note": 0, "velocity": 0, "duration": 100}, {"note": 72, "velocity": 90, "duration": 364}, {"note": 0, "velocity": 0, "duration": 118}, {"note": 74, "velocity": 93, "duration": 159}, {"note": 0, "velocity": 0, "duration": 79}, {"note": 76, "velocity": 93, "duration": 364}, {"note": 0, "velocity": 0, "duration": 116}, {"note": 77, "velocity": 88, "duration": 146}, {"note": 0, "velocity": 0, "duration": 94}, {"note": 77, "velocity": 87, "duration": 131}, {"note": 0, "velocity": 0, "duration": 109}, {"note": 77, "velocity": 92, "duration": 189}, {"note": 76, "velocity": 93, "duration": 191}, {"note": 76, "velocity": 102, "duration": 273}, {"note": 0, "velocity": 0, "duration": 207}, {"note": 74, "velocity": 92, "duration": 190}, {"note": 79, "velocity": 87, "duration": 202}, {"note": 77, "velocity": 87, "duration": 146}, {"note": 0, "velocity": 0, "duration": 94}, {"note": 77, "velocity": 86, "duration": 145}, {"note": 0, "velocity": 0, "duration": 95}, {"note": 77, "velocity": 89, "duration": 155}, {"note": 0, "velocity": 0, "duration": 85}, {"note": 76, "velocity": 92, "duration": 153}, {"note": 0, "velocity": 0, "duration": 87}, {"note": 74, "velocity": 93, "duration": 356}, {"note": 0, "velocity": 0, "duration": 124}, {"note": 72, "velocity": 93, "duration": 388}, {"note": 0, "velocity": 0, "duration": 332}, {"note": 67, "velocity": 90, "duration": 160}, {"note": 0, "velocity": 0, "duration": 80}, {"note": 72, "velocity": 93, "duration": 176}, {"note": 0, "velocity": 0, "duration": 64}, {"note": 74, "velocity": 97, "duration": 162}, {"note": 0, "velocity": 0, "duration": 78}, {"note": 76, "velocity": 90, "duration": 186}, {"note": 74, "velocity": 91, "duration": 164}, {"note": 0, "velocity": 0, "duration": 76}, {"note": 76, "velocity": 93, "duration": 134}, {"note": 0, "velocity": 0, "duration": 106}, {"note": 77, "velocity": 90, "duration": 146}, {"note": 0, "velocity": 0, "duration": 94}, {"note": 79, "velocity": 93, "duration": 181}, {"note": 79, "velocity": 86, "duration": 152}, {"note": 0, "velocity": 0, "duration": 88}, {"note": 79, "velocity": 93, "duration": 170}, {"note": 0, "velocity": 0, "duration": 70}, {"note": 77, "velocity": 88, "duration": 158}, {"note": 0, "velocity": 0, "duration": 82}, {"note": 76, "velocity": 92, "duration": 455}, {"note": 74, "velocity": 93, "duration": 405}, {"note": 0, "velocity": 0, "duration": 315}, {"note": 67, "velocity": 87, "duration": 162}, {"note": 0, "velocity": 0, "duration": 78}, {"note": 72, "velocity": 90, "duration": 193}, {"note": 74, "velocity": 92, "duration": 158}, {"note": 0, "velocity": 0, "duration": 82}, {"note": 76, "velocity": 92, "duration": 186}, {"note": 74, "velocity": 90, "duration": 186}, {"note": 76, "velocity": 91, "duration": 129}, {"note": 0, "velocity": 0, "duration": 111}, {"note": 77, "velocity": 88, "duration": 150}, {"note": 0, "velocity": 0, "duration": 90}, {"note": 79, "velocity": 89, "duration": 113}, {"note": 0, "velocity": 0, "duration": 127}, {"note": 79, "velocity": 88, "duration": 126}, {"note": 0, "velocity": 0, "duration": 114}, {"note": 79, "velocity": 88, "duration": 138}, {"note": 0, "velocity": 0, "duration": 102}, {"note": 81, "velocity": 90, "duration": 145}, {"note": 0, "velocity": 0, "duration": 95}, {"note": 79, "velocity": 90, "duration": 376}, {"note": 0, "velocity": 0, "duration": 104}, {"note": 76, "velocity": 90, "duration": 427}, {"note": 72, "velocity": 90, "duration": 340}, {"note": 0, "velocity": 0, "duration": 140}, {"note": 72, "velocity": 91, "duration": 210}, {"note": 69, "velocity": 88, "duration": 175}, {"note": 0, "velocity": 0, "duration": 65}, {"note": 74, "velocity": 90, "duration": 187}, {"note": 74, "velocity": 88, "duration": 171}, {"note": 0, "velocity": 0, "duration": 69}, {"note": 76, "velocity": 88, "duration": 179}, {"note": 0, "velocity": 0, "duration": 61}, {"note": 76, "velocity": 88, "duration": 218}, {"note": 72, "velocity": 90, "duration": 377}, {"note": 0, "velocity": 0, "duration": 103}, {"note": 79, "velocity": 87, "duration": 149}, {"note": 79, "velocity": 90, "duration": 149}, {"note": 0, "velocity": 0, "duration": 91}, {"note": 72, "velocity": 90, "duration": 138}, {"note": 0, "velocity": 0, "duration": 102}, {"note": 67, "velocity": 89, "duration": 180}, {"note": 72, "velocity": 90, "duration": 155}, {"note": 0, "velocity": 0, "duration": 85}, {"note": 71, "velocity": 87, "duration": 150}, {"note": 0, "velocity": 0, "duration": 90}, {"note": 72, "velocity": 87, "duration": 374}, {"note": 0, "velocity": 0, "duration": 346}, {"note": 72, "velocity": 89, "duration": 197}, {"note": 69, "velocity": 88, "duration": 182}, {"note": 74, "velocity": 88, "duration": 159}, {"note": 0, "velocity": 0, "duration": 81}, {"note": 74, "velocity": 87, "duration": 138}, {"note": 0, "velocity": 0, "duration": 102}, {"note": 76, "velocity": 88, "duration": 139}, {"note": 0, "velocity": 0, "duration": 101}, {"note": 76, "velocity": 87, "duration": 162}, {"note": 0, "velocity": 0, "duration": 78}, {"note": 77, "velocity": 86, "duration": 178}, {"note": 0, "velocity": 0, "duration": 62}, {"note": 77, "velocity": 82, "duration": 129}, {"note": 0, "velocity": 0, "duration": 111}, {"note": 77, "velocity": 92, "duration": 149}, {"note": 0, "velocity": 0, "duration": 91}, {"note": 76, "velocity": 87, "duration": 126}, {"note": 0, "velocity": 0, "duration": 114}, {"note": 74, "velocity": 91, "duration": 297}, {"note": 0, "velocity": 0, "duration": 183}, {"note": 72, "velocity": 88, "duration": 492}, {"note": 0, "velocity": 0, "duration": 228}, {"note": 67, "velocity": 90, "duration": 160}, {"note": 0, "velocity": 0, "duration": 80}, {"note": 72, "velocity": 93, "duration": 176}, {"note": 0, "velocity": 0, "duration": 64}, {"note": 74, "velocity": 97, "duration": 162}, {"note": 0, "velocity": 0, "duration": 78}, {"note": 76, "velocity": 90, "duration": 186}, {"note": 74, "velocity": 91, "duration": 164}, {"note": 0, "velocity": 0, "duration": 76}, {"note": 76, "velocity": 93, "duration": 134}, {"note": 0, "velocity": 0, "duration": 106}, {"note": 77, "velocity": 90, "duration": 146}, {"note": 0, "velocity": 0, "duration": 94}, {"note": 79, "velocity": 93, "duration": 181}, {"note": 79, "velocity": 86, "duration": 152}, {"note": 0, "velocity": 0, "duration": 88}, {"note": 79, "velocity": 93, "duration": 170}, {"note": 0, "velocity": 0, "duration": 70}, {"note": 77, "velocity": 88, "duration": 158}, {"note": 0, "velocity": 0, "duration": 82}, {"note": 76, "velocity": 92, "duration": 455}, {"note": 74, "velocity": 93, "duration": 405}, {"note": 0, "velocity": 0, "duration": 315}, {"note": 67, "velocity": 87, "duration": 162}, {"note": 0, "velocity": 0, "duration": 78}, {"note": 72, "velocity": 90, "duration": 193}, {"note": 74, "velocity": 92, "duration": 158}, {"note": 0, "velocity": 0, "duration": 82}, {"note": 76, "velocity": 92, "duration": 186}, {"note": 74, "velocity": 90, "duration": 186}, {"note": 76, "velocity": 91, "duration": 129}, {"note": 0, "velocity": 0, "duration": 111}, {"note": 77, "velocity": 88, "duration": 150}, {"note": 0, "velocity": 0, "duration": 90}, {"note": 79, "velocity": 89, "duration": 113}, {"note": 0, "velocity": 0, "duration": 127}, {"note": 79, "velocity": 88, "duration": 126}, {"note": 0, "velocity": 0, "duration": 114}, {"note": 79, "velocity": 88, "duration": 138}, {"note": 0, "velocity": 0, "duration": 102}, {"note": 81, "velocity": 90, "duration": 145}, {"note": 0, "velocity": 0, "duration": 95}, {"note": 79, "velocity": 90, "duration": 376}, {"note": 0, "velocity": 0, "duration": 104}, {"note": 76, "velocity": 90, "duration": 427}, {"note": 72, "velocity": 90, "duration": 340}, {"note": 0, "velocity": 0, "duration": 140}, {"note": 72, "velocity": 91, "duration": 210}, {"note": 69, "velocity": 88, "duration": 175}, {"note": 0, "velocity": 0, "duration": 65}, {"note": 74, "velocity": 90, "duration": 187}, {"note": 74, "velocity": 88, "duration": 171}, {"note": 0, "velocity": 0, "duration": 69}, {"note": 76, "velocity": 88, "duration": 179}, {"note": 0, "velocity": 0, "duration": 61}, {"note": 76, "velocity": 88, "duration": 218}, {"note": 72, "velocity": 90, "duration": 377}, {"note": 0, "velocity": 0, "duration": 103}, {"note": 79, "velocity": 87, "duration": 149}, {"note": 79, "velocity": 90, "duration": 149}, {"note": 0, "velocity": 0, "duration": 91}, {"note": 72, "velocity": 90, "duration": 138}, {"note": 0, "velocity": 0, "duration": 102}, {"note": 67, "velocity": 89, "duration": 180}, {"note": 72, "velocity": 90, "duration": 155}, {"note": 0, "velocity": 0, "duration": 85}, {"note": 71, "velocity": 87, "duration": 150}, {"note": 0, "velocity": 0, "duration": 90}, {"note": 72, "velocity": 87, "duration": 374}, {"note": 0, "velocity": 0, "duration": 346}, {"note": 72, "velocity": 89, "duration": 197}, {"note": 69, "velocity": 88, "duration": 182}, {"note": 74, "velocity": 88, "duration": 159}, {"note": 0, "velocity": 0, "duration": 81}, {"note": 74, "velocity": 87, "duration": 138}, {"note": 0, "velocity": 0, "duration": 102}, {"note": 76, "velocity": 88, "duration": 139}, {"note": 0, "velocity": 0, "duration": 101}, {"note": 76, "velocity": 87, "duration": 162}, {"note": 0, "velocity": 0, "duration": 78}, {"note": 77, "velocity": 86, "duration": 178}, {"note": 0, "velocity": 0, "duration": 62}, {"note": 77, "velocity": 82, "duration": 129}, {"note": 0, "velocity": 0, "duration": 111}, {"note": 76, "velocity": 92, "duration": 349}, {"note": 0, "velocity": 0, "duration": 131}, {"note": 74, "velocity": 95, "duration": 169}, {"note": 0, "velocity": 0, "duration": 71}, {"note": 72, "velocity": 86, "duration": 171}, {"note": 0, "velocity": 0, "duration": 69}, {"note": 72, "velocity": 85, "duration": 357}, {"note": 0, "velocity": 0, "duration": 123}, {"note": 72, "velocity": 87, "duration": 1814}, {"note": 0, "velocity": 0, "duration": 106}, {"note": 72, "velocity": 92, "duration": 369}, {"note": 0, "velocity": 0, "duration": 111}, {"note": 71, "velocity": 92, "duration": 458}, {"note": 69, "velocity": 88, "duration": 226}, {"note": 67, "velocity": 85, "duration": 174}, {"note": 0, "velocity": 0, "duration": 66}, {"note": 69, "velocity": 88, "duration": 183}, {"note": 71, "velocity": 88, "duration": 182}, {"note": 72, "velocity": 87, "duration": 1562}, {"note": 0, "velocity": 0, "duration": 2278}, {"note": 72, "velocity": 87, "duration": 1814}, {"note": 0, "velocity": 0, "duration": 106}, {"note": 72, "velocity": 92, "duration": 369}, {"note": 0, "velocity": 0, "duration": 111}, {"note": 71, "velocity": 92, "duration": 458}, {"note": 69, "velocity": 88, "duration": 226}, {"note": 67, "velocity": 85, "duration": 174}, {"note": 0, "velocity": 0, "duration": 66}, {"note": 69, "velocity": 88, "duration": 183}, {"note": 71, "velocity": 88, "duration": 182}, {"note": 72, "velocity": 87, "duration": 1562}, {"note": 0, "velocity": 0, "duration": 2518}, {"note": 69, "velocity": 87, "duration": 131}, {"note": 0, "velocity": 0, "duration": 109}, {"note": 69, "velocity": 87, "duration": 146}, {"note": 0, "velocity": 0, "duration": 94}, {"note": 72, "velocity": 90, "duration": 150}, {"note": 0, "velocity": 0, "duration": 90}, {"note": 72, "velocity": 90, "duration": 162}, {"note": 0, "velocity": 0, "duration": 78}, {"note": 69, "velocity": 93, "duration": 169}, {"note": 0, "velocity": 0, "duration": 71}, {"note": 72, "velocity": 93, "duration": 469}, {"note": 0, "velocity": 0, "duration": 251}, {"note": 67, "velocity": 87, "duration": 131}, {"note": 0, "velocity": 0, "duration": 109}, {"note": 69, "velocity": 87, "duration": 146}, {"note": 0, "velocity": 0, "duration": 94}, {"note": 72, "velocity": 90, "duration": 150}, {"note": 0, "velocity": 0, "duration": 90}, {"note": 72, "velocity": 90, "duration": 162}, {"note": 0, "velocity": 0, "duration": 78}, {"note": 69, "velocity": 93, "duration": 169}, {"note": 0, "velocity": 0, "duration": 71}, {"note": 72, "velocity": 93, "duration": 469}, {"note": 0, "velocity": 0, "duration": 251}, {"note": 69, "velocity": 88, "duration": 172}, {"note": 0, "velocity": 0, "duration": 68}, {"note": 69, "velocity": 90, "duration": 155}, {"note": 0, "velocity": 0, "duration": 85}, {"note": 72, "velocity": 87, "duration": 146}, {"note": 0, "velocity": 0, "duration": 94}, {"note": 72, "velocity": 88, "duration": 168}, {"note": 0, "velocity": 0, "duration": 72}, {"note": 69, "velocity": 88, "duration": 172}, {"note": 0, "velocity": 0, "duration": 68}, {"note": 72, "velocity": 92, "duration": 150}, {"note": 0, "velocity": 0, "duration": 90}, {"note": 67, "velocity": 87, "duration": 85}, {"note": 69, "velocity": 90, "duration": 77}, {"note": 72, "velocity": 90, "duration": 126}, {"note": 0, "velocity": 0, "duration": 114}, {"note": 69, "velocity": 90, "duration": 117}, {"note": 0, "velocity": 0, "duration": 123}, {"note": 72, "velocity": 90, "duration": 137}, {"note": 0, "velocity": 0, "duration": 103}, {"note": 74, "velocity": 93, "duration": 150}, {"note": 0, "velocity": 0, "duration": 90}, {"note": 74, "velocity": 90, "duration": 375}, {"note": 0, "velocity": 0, "duration": 105}, {"note": 72, "velocity": 93, "duration": 458}, {"note": 0, "velocity": 0, "duration": 262}, {"note": 72, "velocity": 90, "duration": 119}, {"note": 0, "velocity": 0, "duration": 121}, {"note": 72, "velocity": 95, "duration": 356}, {"note": 0, "velocity": 0, "duration": 124}, {"note": 72, "velocity": 86, "duration": 105}, {"note": 0, "velocity": 0, "duration": 135}, {"note": 72, "velocity": 91, "duration": 323}, {"note": 0, "velocity": 0, "duration": 157}, {"note": 72, "velocity": 92, "duration": 127}, {"note": 0, "velocity": 0, "duration": 113}, {"note": 71, "velocity": 93, "duration": 181}, {"note": 69, "velocity": 91, "duration": 123}, {"note": 0, "velocity": 0, "duration": 123}, {"note": 71, "velocity": 86, "duration": 127}, {"note": 0, "velocity": 0, "duration": 113}, {"note": 72, "velocity": 89, "duration": 485}, {"note": 0, "velocity": 0, "duration": 235}, {"note": 67, "velocity": 88, "duration": 218}, {"note": 72, "velocity": 88, "duration": 304}, {"note": 0, "velocity": 0, "duration": 176}, {"note": 72, "velocity": 88, "duration": 82}, {"note": 0, "velocity": 0, "duration": 158}, {"note": 72, "velocity": 90, "duration": 392}, {"note": 0, "velocity": 0, "duration": 88}, {"note": 71, "velocity": 87, "duration": 179}, {"note": 0, "velocity": 0, "duration": 61}, {"note": 72, "velocity": 89, "duration": 291}, {"note": 0, "velocity": 0, "duration": 189}, {"note": 72, "velocity": 87, "duration": 182}, {"note": 71, "velocity": 88, "duration": 174}, {"note": 0, "velocity": 0, "duration": 66}, {"note": 69, "velocity": 86, "duration": 157}, {"note": 0, "velocity": 0, "duration": 83}, {"note": 67, "velocity": 84, "duration": 137}, {"note": 0, "velocity": 0, "duration": 103}, {"note": 67, "velocity": 88, "duration": 501}, {"note": 64, "velocity": 88, "duration": 175}, {"note": 0, "velocity": 0, "duration": 65}, {"note": 65, "velocity": 86, "duration": 189}, {"note": 67, "velocity": 85, "duration": 252}, {"note": 0, "velocity": 0, "duration": 228}, {"note": 67, "velocity": 89, "duration": 93}, {"note": 0, "velocity": 0, "duration": 147}, {"note": 72, "velocity": 89, "duration": 380}, {"note": 0, "velocity": 0, "duration": 100}, {"note": 72, "velocity": 88, "duration": 202}, {"note": 72, "velocity": 82, "duration": 137}, {"note": 0, "velocity": 0, "duration": 103}, {"note": 67, "velocity": 95, "duration": 80}, {"note": 0, "velocity": 0, "duration": 160}, {"note": 72, "velocity": 81, "duration": 162}, {"note": 0, "velocity": 0, "duration": 78}, {"note": 71, "velocity": 88, "duration": 174}, {"note": 0, "velocity": 0, "duration": 66}, {"note": 69, "velocity": 84, "duration": 141}, {"note": 0, "velocity": 0, "duration": 99}, {"note": 71, "velocity": 88, "duration": 140}, {"note": 0, "velocity": 0, "duration": 100}, {"note": 72, "velocity": 90, "duration": 364}, {"note": 0, "velocity": 0, "duration": 118}, {"note": 74, "velocity": 93, "duration": 159}, {"note": 0, "velocity": 0, "duration": 79}, {"note": 76, "velocity": 93, "duration": 364}, {"note": 0, "velocity": 0, "duration": 116}, {"note": 77, "velocity": 88, "duration": 146}, {"note": 0, "velocity": 0, "duration": 94}, {"note": 77, "velocity": 87, "duration": 131}, {"note": 0, "velocity": 0, "duration": 109}, {"note": 77, "velocity": 92, "duration": 189}, {"note": 76, "velocity": 93, "duration": 191}, {"note": 76, "velocity": 102, "duration": 273}, {"note": 0, "velocity": 0, "duration": 207}, {"note": 74, "velocity": 92, "duration": 190}, {"note": 79, "velocity": 87, "duration": 202}, {"note": 77, "velocity": 87, "duration": 146}, {"note": 0, "velocity": 0, "duration": 94}, {"note": 77, "velocity": 86, "duration": 145}, {"note": 0, "velocity": 0, "duration": 95}, {"note": 77, "velocity": 89, "duration": 155}, {"note": 0, "velocity": 0, "duration": 85}, {"note": 76, "velocity": 92, "duration": 153}, {"note": 0, "velocity": 0, "duration": 87}, {"note": 74, "velocity": 93, "duration": 356}, {"note": 0, "velocity": 0, "duration": 124}, {"note": 72, "velocity": 93, "duration": 388}, {"note": 0, "velocity": 0, "duration": 332}, {"note": 67, "velocity": 90, "duration": 160}, {"note": 0, "velocity": 0, "duration": 80}, {"note": 72, "velocity": 93, "duration": 176}, {"note": 0, "velocity": 0, "duration": 64}, {"note": 74, "velocity": 97, "duration": 162}, {"note": 0, "velocity": 0, "duration": 78}, {"note": 76, "velocity": 90, "duration": 186}, {"note": 74, "velocity": 91, "duration": 164}, {"note": 0, "velocity": 0, "duration": 76}, {"note": 76, "velocity": 93, "duration": 134}, {"note": 0, "velocity": 0, "duration": 106}, {"note": 77, "velocity": 90, "duration": 146}, {"note": 0, "velocity": 0, "duration": 94}, {"note": 79, "velocity": 93, "duration": 181}, {"note": 79, "velocity": 86, "duration": 152}, {"note": 0, "velocity": 0, "duration": 88}, {"note": 79, "velocity": 93, "duration": 170}, {"note": 0, "velocity": 0, "duration": 70}, {"note": 77, "velocity": 88, "duration": 158}, {"note": 0, "velocity": 0, "duration": 82}, {"note": 76, "velocity": 92, "duration": 455}, {"note": 74, "velocity": 93, "duration": 405}, {"note": 0, "velocity": 0, "duration": 315}, {"note": 67, "velocity": 87, "duration": 162}, {"note": 0, "velocity": 0, "duration": 78}, {"note": 72, "velocity": 90, "duration": 193}, {"note": 74, "velocity": 92, "duration": 158}, {"note": 0, "velocity": 0, "duration": 82}, {"note": 76, "velocity": 92, "duration": 186}, {"note": 74, "velocity": 90, "duration": 186}, {"note": 76, "velocity": 91, "duration": 129}, {"note": 0, "velocity": 0, "duration": 111}, {"note": 77, "velocity": 88, "duration": 150}, {"note": 0, "velocity": 0, "duration": 90}, {"note": 79, "velocity": 89, "duration": 113}, {"note": 0, "velocity": 0, "duration": 127}, {"note": 79, "velocity": 88, "duration": 126}, {"note": 0, "velocity": 0, "duration": 114}, {"note": 79, "velocity": 88, "duration": 138}, {"note": 0, "velocity": 0, "duration": 102}, {"note": 81, "velocity": 90, "duration": 145}, {"note": 0, "velocity": 0, "duration": 95}, {"note": 79, "velocity": 90, "duration": 376}, {"note": 0, "velocity": 0, "duration": 104}, {"note": 76, "velocity": 90, "duration": 427}, {"note": 72, "velocity": 90, "duration": 340}, {"note": 0, "velocity": 0, "duration": 140}, {"note": 72, "velocity": 91, "duration": 210}, {"note": 69, "velocity": 88, "duration": 175}, {"note": 0, "velocity": 0, "duration": 65}, {"note": 74, "velocity": 90, "duration": 187}, {"note": 74, "velocity": 88, "duration": 171}, {"note": 0, "velocity": 0, "duration": 69}, {"note": 76, "velocity": 88, "duration": 179}, {"note": 0, "velocity": 0, "duration": 61}, {"note": 76, "velocity": 88, "duration": 218}, {"note": 72, "velocity": 90, "duration": 377}, {"note": 0, "velocity": 0, "duration": 103}, {"note": 79, "velocity": 87, "duration": 149}, {"note": 79, "velocity": 90, "duration": 149}, {"note": 0, "velocity": 0, "duration": 91}, {"note": 72, "velocity": 90, "duration": 138}, {"note": 0, "velocity": 0, "duration": 102}, {"note": 67, "velocity": 89, "duration": 180}, {"note": 72, "velocity": 90, "duration": 155}, {"note": 0, "velocity": 0, "duration": 85}, {"note": 71, "velocity": 87, "duration": 150}, {"note": 0, "velocity": 0, "duration": 90}, {"note": 72, "velocity": 87, "duration": 374}, {"note": 0, "velocity": 0, "duration": 346}, {"note": 72, "velocity": 89, "duration": 197}, {"note": 69, "velocity": 88, "duration": 182}, {"note": 74, "velocity": 88, "duration": 159}, {"note": 0, "velocity": 0, "duration": 81}, {"note": 74, "velocity": 87, "duration": 138}, {"note": 0, "velocity": 0, "duration": 102}, {"note": 76, "velocity": 88, "duration": 139}, {"note": 0, "velocity": 0, "duration": 101}, {"note": 76, "velocity": 87, "duration": 162}, {"note": 0, "velocity": 0, "duration": 78}, {"note": 77, "velocity": 86, "duration": 178}, {"note": 0, "velocity": 0, "duration": 62}, {"note": 77, "velocity": 82, "duration": 129}, {"note": 0, "velocity": 0, "duration": 111}, {"note": 77, "velocity": 92, "duration": 149}, {"note": 0, "velocity": 0, "duration": 91}, {"note": 76, "velocity": 87, "duration": 126}, {"note": 0, "velocity": 0, "duration": 114}, {"note": 74, "velocity": 91, "duration": 297}, {"note": 0, "velocity": 0, "duration": 183}, {"note": 72, "velocity": 88, "duration": 492}, {"note": 0, "velocity": 0, "duration": 228}, {"note": 67, "velocity": 90, "duration": 160}, {"note": 0, "velocity": 0, "duration": 80}, {"note": 72, "velocity": 93, "duration": 176}, {"note": 0, "velocity": 0, "duration": 64}, {"note": 74, "velocity": 97, "duration": 162}, {"note": 0, "velocity": 0, "duration": 78}, {"note": 76, "velocity": 90, "duration": 186}, {"note": 74, "velocity": 91, "duration": 164}, {"note": 0, "velocity": 0, "duration": 76}, {"note": 76, "velocity": 93, "duration": 134}, {"note": 0, "velocity": 0, "duration": 106}, {"note": 77, "velocity": 90, "duration": 146}, {"note": 0, "velocity": 0, "duration": 94}, {"note": 79, "velocity": 93, "duration": 181}, {"note": 79, "velocity": 86, "duration": 152}, {"note": 0, "velocity": 0, "duration": 88}, {"note": 79, "velocity": 93, "duration": 170}, {"note": 0, "velocity": 0, "duration": 70}, {"note": 77, "velocity": 88, "duration": 158}, {"note": 0, "velocity": 0, "duration": 82}, {"note": 76, "velocity": 92, "duration": 455}, {"note": 74, "velocity": 93, "duration": 405}, {"note": 0, "velocity": 0, "duration": 315}, {"note": 67, "velocity": 87, "duration": 162}, {"note": 0, "velocity": 0, "duration": 78}, {"note": 72, "velocity": 90, "duration": 193}, {"note": 74, "velocity": 92, "duration": 158}, {"note": 0, "velocity": 0, "duration": 82}, {"note": 76, "velocity": 92, "duration": 186}, {"note": 74, "velocity": 90, "duration": 186}, {"note": 76, "velocity": 91, "duration": 129}, {"note": 0, "velocity": 0, "duration": 111}, {"note": 77, "velocity": 88, "duration": 150}, {"note": 0, "velocity": 0, "duration": 90}, {"note": 79, "velocity": 89, "duration": 113}, {"note": 0, "velocity": 0, "duration": 127}, {"note": 79, "velocity": 88, "duration": 126}, {"note": 0, "velocity": 0, "duration": 114}, {"note": 79, "velocity": 88, "duration": 138}, {"note": 0, "velocity": 0, "duration": 102}, {"note": 81, "velocity": 90, "duration": 145}, {"note": 0, "velocity": 0, "duration": 95}, {"note": 79, "velocity": 90, "duration": 376}, {"note": 0, "velocity": 0, "duration": 104}, {"note": 76, "velocity": 90, "duration": 427}, {"note": 72, "velocity": 90, "duration": 340}, {"note": 0, "velocity": 0, "duration": 140}, {"note": 72, "velocity": 91, "duration": 210}, {"note": 69, "velocity": 88, "duration": 175}, {"note": 0, "velocity": 0, "duration": 65}, {"note": 74, "velocity": 90, "duration": 187}, {"note": 74, "velocity": 88, "duration": 171}, {"note": 0, "velocity": 0, "duration": 69}, {"note": 76, "velocity": 88, "duration": 179}, {"note": 0, "velocity": 0, "duration": 61}, {"note": 76, "velocity": 88, "duration": 218}, {"note": 72, "velocity": 90, "duration": 377}, {"note": 0, "velocity": 0, "duration": 103}, {"note": 79, "velocity": 87, "duration": 149}, {"note": 79, "velocity": 90, "duration": 149}, {"note": 0, "velocity": 0, "duration": 91}, {"note": 72, "velocity": 90, "duration": 138}, {"note": 0, "velocity": 0, "duration": 102}, {"note": 67, "velocity": 89, "duration": 180}, {"note": 72, "velocity": 90, "duration": 155}, {"note": 0, "velocity": 0, "duration": 85}, {"note": 71, "velocity": 87, "duration": 150}, {"note": 0, "velocity": 0, "duration": 90}, {"note": 72, "velocity": 87, "duration": 374}, {"note": 0, "velocity": 0, "duration": 346}, {"note": 72, "velocity": 89, "duration": 197}, {"note": 69, "velocity": 88, "duration": 182}, {"note": 74, "velocity": 88, "duration": 159}, {"note": 0, "velocity": 0, "duration": 81}, {"note": 74, "velocity": 87, "duration": 138}, {"note": 0, "velocity": 0, "duration": 102}, {"note": 76, "velocity": 88, "duration": 139}, {"note": 0, "velocity": 0, "duration": 101}, {"note": 76, "velocity": 87, "duration": 162}, {"note": 0, "velocity": 0, "duration": 78}, {"note": 77, "velocity": 86, "duration": 178}, {"note": 0, "velocity": 0, "duration": 62}, {"note": 77, "velocity": 82, "duration": 129}, {"note": 0, "velocity": 0, "duration": 111}, {"note": 76, "velocity": 92, "duration": 349}, {"note": 0, "velocity": 0, "duration": 131}, {"note": 74, "velocity": 95, "duration": 169}, {"note": 0, "velocity": 0, "duration": 71}, {"note": 72, "velocity": 86, "duration": 171}, {"note": 0, "velocity": 0, "duration": 69}, {"note": 72, "velocity": 85, "duration": 357}, {"note": 0, "velocity": 0, "duration": 123}, {"note": 72, "velocity": 87, "duration": 791}, {"note": 72, "velocity": 127, "duration": 356}, {"note": 0, "velocity": 0, "duration": 121}, {"note": 79, "velocity": 127, "duration": 354}, {"note": 0, "velocity": 0, "duration": 141}, {"note": 76, "velocity": 127, "duration": 403}, {"note": 0, "velocity": 0, "duration": 108}, {"note": 74, "velocity": 127, "duration": 339}, {"note": 72, "velocity": 92, "duration": 369}, {"note": 0, "velocity": 0, "duration": 98}, {"note": 72, "velocity": 127, "duration": 363}, {"note": 71, "velocity": 92, "duration": 458}, {"note": 79, "velocity": 127, "duration": 380}, {"note": 69, "velocity": 88, "duration": 226}, {"note": 67, "velocity": 85, "duration": 174}, {"note": 0, "velocity": 0, "duration": 66}, {"note": 69, "velocity": 88, "duration": 183}, {"note": 76, "velocity": 127, "duration": 330}, {"note": 71, "velocity": 88, "duration": 182}, {"note": 72, "velocity": 87, "duration": 799}, {"note": 72, "velocity": 127, "duration": 351}, {"note": 0, "velocity": 0, "duration": 125}, {"note": 79, "velocity": 127, "duration": 378}, {"note": 0, "velocity": 0, "duration": 99}, {"note": 76, "velocity": 127, "duration": 395}, {"note": 0, "velocity": 0, "duration": 83}, {"note": 74, "velocity": 127, "duration": 370}, {"note": 0, "velocity": 0, "duration": 108}, {"note": 76, "velocity": 127, "duration": 403}, {"note": 0, "velocity": 0, "duration": 115}, {"note": 74, "velocity": 127, "duration": 255}, {"note": 72, "velocity": 105, "duration": 99}, {"note": 0, "velocity": 0, "duration": 140}, {"note": 72, "velocity": 127, "duration": 385}, {"note": 0, "velocity": 0, "duration": 97}, {"note": 76, "velocity": 87, "duration": 1794}, {"note": 72, "velocity": 87, "duration": 802}, {"note": 72, "velocity": 127, "duration": 348}, {"note": 79, "velocity": 127, "duration": 380}, {"note": 76, "velocity": 127, "duration": 380}, {"note": 0, "velocity": 0, "duration": 108}, {"note": 74, "velocity": 127, "duration": 383}, {"note": 72, "velocity": 92, "duration": 369}, {"note": 0, "velocity": 0, "duration": 111}, {"note": 71, "velocity": 92, "duration": 458}, {"note": 72, "velocity": 127, "duration": 348}, {"note": 79, "velocity": 125, "duration": 369}, {"note": 69, "velocity": 88, "duration": 226}, {"note": 67, "velocity": 85, "duration": 174}, {"note": 76, "velocity": 127, "duration": 340}, {"note": 69, "velocity": 88, "duration": 183}, {"note": 71, "velocity": 88, "duration": 182}, {"note": 76, "velocity": 127, "duration": 211}, {"note": 72, "velocity": 87, "duration": 787}, {"note": 72, "velocity": 123, "duration": 349}, {"note": 0, "velocity": 0, "duration": 115}, {"note": 79, "velocity": 123, "duration": 355}, {"note": 0, "velocity": 0, "duration": 125}, {"note": 76, "velocity": 127, "duration": 372}, {"note": 0, "velocity": 0, "duration": 125}, {"note": 74, "velocity": 127, "duration": 370}, {"note": 0, "velocity": 0, "duration": 124}, {"note": 76, "velocity": 127, "duration": 378}, {"note": 0, "velocity": 0, "duration": 125}, {"note": 74, "velocity": 127, "duration": 205}, {"note": 72, "velocity": 106, "duration": 83}, {"note": 0, "velocity": 0, "duration": 165}, {"note": 72, "velocity": 127, "duration": 371}, {"note": 0, "velocity": 0, "duration": 384}, {"note": 67, "velocity": 122, "duration": 222}, {"note": 72, "velocity": 127, "duration": 233}, {"note": 74, "velocity": 127, "duration": 240}, {"note": 76, "velocity": 127, "duration": 239}, {"note": 74, "velocity": 127, "duration": 258}, {"note": 76, "velocity": 127, "duration": 239}, {"note": 77, "velocity": 127, "duration": 257}, {"note": 79, "velocity": 127, "duration": 111}, {"note": 0, "velocity": 0, "duration": 103}, {"note": 79, "velocity": 121, "duration": 107}, {"note": 0, "velocity": 0, "duration": 133}, {"note": 79, "velocity": 127, "duration": 255}, {"note": 77, "velocity": 127, "duration": 271}, {"note": 76, "velocity": 127, "duration": 447}, {"note": 74, "velocity": 127, "duration": 338}, {"note": 0, "velocity": 0, "duration": 413}, {"note": 67, "velocity": 116, "duration": 232}, {"note": 72, "velocity": 114, "duration": 248}, {"note": 74, "velocity": 127, "duration": 240}, {"note": 76, "velocity": 127, "duration": 241}, {"note": 74, "velocity": 127, "duration": 254}, {"note": 76, "velocity": 127, "duration": 238}, {"note": 77, "velocity": 118, "duration": 278}, {"note": 79, "velocity": 109, "duration": 131}, {"note": 0, "velocity": 0, "duration": 108}, {"note": 79, "velocity": 127, "duration": 108}, {"note": 0, "velocity": 0, "duration": 124}, {"note": 79, "velocity": 127, "duration": 181}, {"note": 0, "velocity": 0, "duration": 72}, {"note": 81, "velocity": 127, "duration": 214}, {"note": 79, "velocity": 127, "duration": 296}, {"note": 0, "velocity": 0, "duration": 148}, {"note": 76, "velocity": 127, "duration": 379}, {"note": 0, "velocity": 0, "duration": 617}, {"note": 72, "velocity": 93, "duration": 194}, {"note": 69, "velocity": 91, "duration": 186}, {"note": 74, "velocity": 95, "duration": 160}, {"note": 0, "velocity": 0, "duration": 80}, {"note": 74, "velocity": 89, "duration": 146}, {"note": 0, "velocity": 0, "duration": 94}, {"note": 74, "velocity": 95, "duration": 153}, {"note": 0, "velocity": 0, "duration": 87}, {"note": 76, "velocity": 88, "duration": 187}, {"note": 72, "velocity": 90, "duration": 374}, {"note": 0, "velocity": 0, "duration": 106}, {"note": 79, "velocity": 79, "duration": 234}, {"note": 72, "velocity": 89, "duration": 195}, {"note": 67, "velocity": 88, "duration": 223}, {"note": 72, "velocity": 86, "duration": 200}, {"note": 71, "velocity": 89, "duration": 173}, {"note": 0, "velocity": 0, "duration": 67}, {"note": 72, "velocity": 88, "duration": 316}, {"note": 0, "velocity": 0, "duration": 404}, {"note": 72, "velocity": 93, "duration": 217}, {"note": 69, "velocity": 88, "duration": 198}, {"note": 74, "velocity": 95, "duration": 158}, {"note": 0, "velocity": 0, "duration": 82}, {"note": 74, "velocity": 87, "duration": 141}, {"note": 0, "velocity": 0, "duration": 99}, {"note": 74, "velocity": 92, "duration": 154}, {"note": 0, "velocity": 0, "duration": 86}, {"note": 76, "velocity": 88, "duration": 193}, {"note": 77, "velocity": 86, "duration": 134}, {"note": 0, "velocity": 0, "duration": 106}, {"note": 77, "velocity": 87, "duration": 125}, {"note": 0, "velocity": 0, "duration": 115}, {"note": 77, "velocity": 88, "duration": 146}, {"note": 0, "velocity": 0, "duration": 94}, {"note": 76, "velocity": 93, "duration": 142}, {"note": 0, "velocity": 0, "duration": 98}, {"note": 74, "velocity": 93, "duration": 376}, {"note": 0, "velocity": 0, "duration": 104}, {"note": 72, "velocity": 88, "duration": 385}, {"note": 0, "velocity": 0, "duration": 335}, {"note": 67, "velocity": 90, "duration": 160}, {"note": 0, "velocity": 0, "duration": 80}, {"note": 72, "velocity": 93, "duration": 176}, {"note": 0, "velocity": 0, "duration": 64}, {"note": 74, "velocity": 97, "duration": 162}, {"note": 0, "velocity": 0, "duration": 78}, {"note": 76, "velocity": 90, "duration": 186}, {"note": 74, "velocity": 91, "duration": 164}, {"note": 0, "velocity": 0, "duration": 76}, {"note": 76, "velocity": 93, "duration": 134}, {"note": 0, "velocity": 0, "duration": 106}, {"note": 77, "velocity": 90, "duration": 146}, {"note": 0, "velocity": 0, "duration": 94}, {"note": 79, "velocity": 93, "duration": 181}, {"note": 79, "velocity": 86, "duration": 152}, {"note": 0, "velocity": 0, "duration": 88}, {"note": 79, "velocity": 93, "duration": 170}, {"note": 0, "velocity": 0, "duration": 70}, {"note": 77, "velocity": 88, "duration": 158}, {"note": 0, "velocity": 0, "duration": 82}, {"note": 76, "velocity": 92, "duration": 455}, {"note": 74, "velocity": 93, "duration": 405}, {"note": 0, "velocity": 0, "duration": 315}, {"note": 67, "velocity": 87, "duration": 162}, {"note": 0, "velocity": 0, "duration": 78}, {"note": 72, "velocity": 90, "duration": 193}, {"note": 74, "velocity": 92, "duration": 158}, {"note": 0, "velocity": 0, "duration": 82}, {"note": 76, "velocity": 92, "duration": 186}, {"note": 74, "velocity": 90, "duration": 186}, {"note": 76, "velocity": 91, "duration": 129}, {"note": 0, "velocity": 0, "duration": 111}, {"note": 77, "velocity": 88, "duration": 150}, {"note": 0, "velocity": 0, "duration": 90}, {"note": 79, "velocity": 89, "duration": 113}, {"note": 0, "velocity": 0, "duration": 127}, {"note": 79, "velocity": 88, "duration": 126}, {"note": 0, "velocity": 0, "duration": 114}, {"note": 79, "velocity": 88, "duration": 138}, {"note": 0, "velocity": 0, "duration": 102}, {"note": 81, "velocity": 90, "duration": 145}, {"note": 0, "velocity": 0, "duration": 95}, {"note": 79, "velocity": 90, "duration": 376}, {"note": 0, "velocity": 0, "duration": 104}, {"note": 76, "velocity": 90, "duration": 427}, {"note": 72, "velocity": 90, "duration": 340}, {"note": 0, "velocity": 0, "duration": 140}, {"note": 72, "velocity": 91, "duration": 210}, {"note": 69, "velocity": 88, "duration": 175}, {"note": 0, "velocity": 0, "duration": 65}, {"note": 74, "velocity": 90, "duration": 187}, {"note": 74, "velocity": 88, "duration": 171}, {"note": 0, "velocity": 0, "duration": 69}, {"note": 76, "velocity": 88, "duration": 179}, {"note": 0, "velocity": 0, "duration": 61}, {"note": 76, "velocity": 88, "duration": 218}, {"note": 72, "velocity": 90, "duration": 377}, {"note": 0, "velocity": 0, "duration": 103}, {"note": 79, "velocity": 87, "duration": 149}, {"note": 79, "velocity": 90, "duration": 149}, {"note": 0, "velocity": 0, "duration": 91}, {"note": 72, "velocity": 90, "duration": 138}, {"note": 0, "velocity": 0, "duration": 102}, {"note": 67, "velocity": 89, "duration": 180}, {"note": 72, "velocity": 90, "duration": 155}, {"note": 0, "velocity": 0, "duration": 85}, {"note": 71, "velocity": 87, "duration": 150}, {"note": 0, "velocity": 0, "duration": 90}, {"note": 72, "velocity": 87, "duration": 374}, {"note": 0, "velocity": 0, "duration": 346}, {"note": 72, "velocity": 89, "duration": 197}, {"note": 69, "velocity": 88, "duration": 182}, {"note": 74, "velocity": 88, "duration": 159}, {"note": 0, "velocity": 0, "duration": 81}, {"note": 74, "velocity": 87, "duration": 138}, {"note": 0, "velocity": 0, "duration": 102}, {"note": 76, "velocity": 88, "duration": 139}, {"note": 0, "velocity": 0, "duration": 101}, {"note": 76, "velocity": 87, "duration": 162}, {"note": 0, "velocity": 0, "duration": 78}, {"note": 77, "velocity": 86, "duration": 178}, {"note": 0, "velocity": 0, "duration": 62}, {"note": 77, "velocity": 82, "duration": 129}, {"note": 0, "velocity": 0, "duration": 111}, {"note": 76, "velocity": 92, "duration": 349}, {"note": 0, "velocity": 0, "duration": 131}, {"note": 74, "velocity": 95, "duration": 169}, {"note": 0, "velocity": 0, "duration": 71}, {"note": 72, "velocity": 86, "duration": 171}, {"note": 0, "velocity": 0, "duration": 69}, {"note": 72, "velocity": 85, "duration": 357}]]