[[{"note": 69, "velocity": 87, "duration": 192}, {"note": 71, "velocity": 84, "duration": 80}, {"note": 71, "velocity": 85, "duration": 305}, {"note": 0, "velocity": 0, "duration": 175}, {"note": 62, "velocity": 85, "duration": 96}, {"note": 74, "velocity": 96, "duration": 182}, {"note": 74, "velocity": 96, "duration": 186}, {"note": 72, "velocity": 86, "duration": 221}, {"note": 71, "velocity": 74, "duration": 243}, {"note": 69, "velocity": 79, "duration": 1327}, {"note": 0, "velocity": 0, "duration": 113}, {"note": 69, "velocity": 86, "duration": 125}, {"note": 71, "velocity": 82, "duration": 93}, {"note": 72, "velocity": 86, "duration": 155}, {"note": 71, "velocity": 87, "duration": 98}, {"note": 67, "velocity": 86, "duration": 614}, {"note": 0, "velocity": 0, "duration": 226}, {"note": 62, "velocity": 81, "duration": 114}, {"note": 67, "velocity": 85, "duration": 206}, {"note": 69, "velocity": 89, "duration": 212}, {"note": 71, "velocity": 87, "duration": 255}, {"note": 72, "velocity": 90, "duration": 252}, {"note": 71, "velocity": 85, "duration": 1473}, {"note": 0, "velocity": 0, "duration": 327}, {"note": 74, "velocity": 99, "duration": 217}, {"note": 76, "velocity": 85, "duration": 68}, {"note": 76, "velocity": 86, "duration": 103}, {"note": 74, "velocity": 92, "duration": 79}, {"note": 74, "velocity": 87, "duration": 120}, {"note": 76, "velocity": 86, "duration": 240}, {"note": 74, "velocity": 92, "duration": 185}, {"note": 76, "velocity": 86, "duration": 55}, {"note": 0, "velocity": 0, "duration": 65}, {"note": 76, "velocity": 87, "duration": 95}, {"note": 74, "velocity": 91, "duration": 71}, {"note": 79, "velocity": 89, "duration": 200}, {"note": 76, "velocity": 89, "duration": 208}, {"note": 71, "velocity": 82, "duration": 120}, {"note": 74, "velocity": 89, "duration": 103}, {"note": 76, "velocity": 85, "duration": 71}, {"note": 76, "velocity": 87, "duration": 98}, {"note": 74, "velocity": 92, "duration": 188}, {"note": 0, "velocity": 0, "duration": 172}, {"note": 74, "velocity": 87, "duration": 106}, {"note": 69, "velocity": 85, "duration": 138}, {"note": 71, "velocity": 84, "duration": 600}, {"note": 0, "velocity": 0, "duration": 120}, {"note": 69, "velocity": 81, "duration": 79}, {"note": 71, "velocity": 85, "duration": 103}, {"note": 64, "velocity": 87, "duration": 190}, {"note": 67, "velocity": 77, "duration": 67}, {"note": 67, "velocity": 80, "duration": 436}, {"note": 0, "velocity": 0, "duration": 164}, {"note": 64, "velocity": 87, "duration": 198}, {"note": 76, "velocity": 87, "duration": 240}, {"note": 0, "velocity": 0, "duration": 120}, {"note": 76, "velocity": 89, "duration": 351}, {"note": 74, "velocity": 92, "duration": 240}, {"note": 69, "velocity": 85, "duration": 960}, {"note": 0, "velocity": 0, "duration": 720}, {"note": 69, "velocity": 87, "duration": 192}, {"note": 71, "velocity": 84, "duration": 80}, {"note": 71, "velocity": 85, "duration": 305}, {"note": 0, "velocity": 0, "duration": 175}, {"note": 62, "velocity": 85, "duration": 96}, {"note": 74, "velocity": 96, "duration": 182}, {"note": 74, "velocity": 96, "duration": 186}, {"note": 76, "velocity": 86, "duration": 221}, {"note": 78, "velocity": 74, "duration": 120}, {"note": 79, "velocity": 79, "duration": 1327}, {"note": 0, "velocity": 0, "duration": 473}, {"note": 79, "velocity": 86, "duration": 111}, {"note": 74, "velocity": 89, "duration": 83}, {"note": 74, "velocity": 89, "duration": 166}, {"note": 0, "velocity": 0, "duration": 74}, {"note": 76, "velocity": 87, "duration": 83}, {"note": 76, "velocity": 86, "duration": 355}, {"note": 0, "velocity": 0, "duration": 125}, {"note": 74, "velocity": 83, "duration": 82}, {"note": 74, "velocity": 92, "duration": 181}, {"note": 76, "velocity": 81, "duration": 86}, {"note": 74, "velocity": 89, "duration": 352}, {"note": 72, "velocity": 87, "duration": 239}, {"note": 71, "velocity": 86, "duration": 1024}, {"note": 0, "velocity": 0, "duration": 896}, {"note": 74, "velocity": 99, "duration": 217}, {"note": 76, "velocity": 85, "duration": 68}, {"note": 76, "velocity": 86, "duration": 103}, {"note": 74, "velocity": 92, "duration": 79}, {"note": 74, "velocity": 87, "duration": 120}, {"note": 76, "velocity": 86, "duration": 240}, {"note": 74, "velocity": 92, "duration": 185}, {"note": 76, "velocity": 86, "duration": 55}, {"note": 0, "velocity": 0, "duration": 65}, {"note": 76, "velocity": 87, "duration": 95}, {"note": 74, "velocity": 91, "duration": 71}, {"note": 79, "velocity": 89, "duration": 110}, {"note": 76, "velocity": 89, "duration": 208}, {"note": 71, "velocity": 82, "duration": 120}, {"note": 74, "velocity": 89, "duration": 103}, {"note": 76, "velocity": 85, "duration": 71}, {"note": 76, "velocity": 87, "duration": 98}, {"note": 74, "velocity": 92, "duration": 188}, {"note": 74, "velocity": 87, "duration": 106}, {"note": 69, "velocity": 85, "duration": 260}, {"note": 71, "velocity": 84, "duration": 600}, {"note": 0, "velocity": 0, "duration": 120}, {"note": 74, "velocity": 81, "duration": 79}, {"note": 74, "velocity": 85, "duration": 103}, {"note": 74, "velocity": 87, "duration": 215}, {"note": 72, "velocity": 77, "duration": 67}, {"note": 72, "velocity": 80, "duration": 436}, {"note": 74, "velocity": 87, "duration": 120}, {"note": 76, "velocity": 87, "duration": 240}, {"note": 79, "velocity": 91, "duration": 120}, {"note": 0, "velocity": 0, "duration": 120}, {"note": 79, "velocity": 91, "duration": 120}, {"note": 79, "velocity": 94, "duration": 130}, {"note": 76, "velocity": 89, "duration": 119}, {"note": 81, "velocity": 89, "duration": 813}, {"note": 0, "velocity": 0, "duration": 147}, {"note": 74, "velocity": 99, "duration": 177}, {"note": 0, "velocity": 0, "duration": 63}, {"note": 76, "velocity": 94, "duration": 273}, {"note": 79, "velocity": 90, "duration": 186}, {"note": 81, "velocity": 94, "duration": 166}, {"note": 0, "velocity": 0, "duration": 74}, {"note": 83, "velocity": 91, "duration": 461}, {"note": 74, "velocity": 92, "duration": 322}, {"note": 74, "velocity": 96, "duration": 82}, {"note": 84, "velocity": 96, "duration": 172}, {"note": 0, "velocity": 0, "duration": 68}, {"note": 83, "velocity": 89, "duration": 217}, {"note": 81, "velocity": 92, "duration": 211}, {"note": 79, "velocity": 92, "duration": 140}, {"note": 81, "velocity": 88, "duration": 393}, {"note": 74, "velocity": 89, "duration": 388}, {"note": 0, "velocity": 0, "duration": 332}, {"note": 74, "velocity": 99, "duration": 204}, {"note": 76, "velocity": 91, "duration": 184}, {"note": 78, "velocity": 89, "duration": 200}, {"note": 74, "velocity": 87, "duration": 236}, {"note": 81, "velocity": 91, "duration": 312}, {"note": 79, "velocity": 91, "duration": 428}, {"note": 71, "velocity": 89, "duration": 78}, {"note": 79, "velocity": 89, "duration": 186}, {"note": 78, "velocity": 94, "duration": 215}, {"note": 76, "velocity": 92, "duration": 187}, {"note": 78, "velocity": 87, "duration": 268}, {"note": 76, "velocity": 90, "duration": 326}, {"note": 74, "velocity": 90, "duration": 525}, {"note": 0, "velocity": 0, "duration": 75}, {"note": 76, "velocity": 99, "duration": 266}, {"note": 76, "velocity": 89, "duration": 26}, {"note": 0, "velocity": 0, "duration": 214}, {"note": 79, "velocity": 88, "duration": 166}, {"note": 0, "velocity": 0, "duration": 74}, {"note": 79, "velocity": 86, "duration": 184}, {"note": 78, "velocity": 89, "duration": 324}, {"note": 76, "velocity": 91, "duration": 383}, {"note": 0, "velocity": 0, "duration": 217}, {"note": 74, "velocity": 91, "duration": 210}, {"note": 71, "velocity": 90, "duration": 177}, {"note": 0, "velocity": 0, "duration": 63}, {"note": 74, "velocity": 92, "duration": 165}, {"note": 0, "velocity": 0, "duration": 75}, {"note": 83, "velocity": 89, "duration": 174}, {"note": 0, "velocity": 0, "duration": 66}, {"note": 81, "velocity": 87, "duration": 301}, {"note": 79, "velocity": 90, "duration": 558}, {"note": 74, "velocity": 89, "duration": 164}, {"note": 0, "velocity": 0, "duration": 76}, {"note": 76, "velocity": 91, "duration": 227}, {"note": 79, "velocity": 89, "duration": 181}, {"note": 81, "velocity": 87, "duration": 146}, {"note": 0, "velocity": 0, "duration": 94}, {"note": 83, "velocity": 89, "duration": 306}, {"note": 81, "velocity": 90, "duration": 358}, {"note": 0, "velocity": 0, "duration": 242}, {"note": 79, "velocity": 90, "duration": 211}, {"note": 76, "velocity": 91, "duration": 173}, {"note": 0, "velocity": 0, "duration": 67}, {"note": 79, "velocity": 92, "duration": 178}, {"note": 0, "velocity": 0, "duration": 62}, {"note": 83, "velocity": 90, "duration": 160}, {"note": 0, "velocity": 0, "duration": 80}, {"note": 83, "velocity": 91, "duration": 301}, {"note": 81, "velocity": 87, "duration": 432}, {"note": 0, "velocity": 0, "duration": 168}, {"note": 74, "velocity": 99, "duration": 177}, {"note": 0, "velocity": 0, "duration": 63}, {"note": 76, "velocity": 94, "duration": 273}, {"note": 79, "velocity": 90, "duration": 186}, {"note": 81, "velocity": 94, "duration": 166}, {"note": 0, "velocity": 0, "duration": 74}, {"note": 83, "velocity": 91, "duration": 461}, {"note": 74, "velocity": 92, "duration": 322}, {"note": 74, "velocity": 96, "duration": 82}, {"note": 84, "velocity": 96, "duration": 172}, {"note": 0, "velocity": 0, "duration": 68}, {"note": 83, "velocity": 89, "duration": 217}, {"note": 81, "velocity": 92, "duration": 211}, {"note": 79, "velocity": 92, "duration": 135}, {"note": 81, "velocity": 88, "duration": 380}, {"note": 74, "velocity": 89, "duration": 388}, {"note": 0, "velocity": 0, "duration": 332}, {"note": 74, "velocity": 99, "duration": 204}, {"note": 76, "velocity": 91, "duration": 184}, {"note": 78, "velocity": 89, "duration": 200}, {"note": 74, "velocity": 87, "duration": 236}, {"note": 81, "velocity": 91, "duration": 440}, {"note": 79, "velocity": 91, "duration": 428}, {"note": 0, "velocity": 0, "duration": 172}, {"note": 79, "velocity": 89, "duration": 186}, {"note": 78, "velocity": 94, "duration": 215}, {"note": 76, "velocity": 92, "duration": 187}, {"note": 78, "velocity": 87, "duration": 268}, {"note": 76, "velocity": 90, "duration": 326}, {"note": 74, "velocity": 90, "duration": 525}, {"note": 0, "velocity": 0, "duration": 75}, {"note": 74, "velocity": 99, "duration": 266}, {"note": 76, "velocity": 89, "duration": 152}, {"note": 0, "velocity": 0, "duration": 88}, {"note": 78, "velocity": 88, "duration": 166}, {"note": 0, "velocity": 0, "duration": 74}, {"note": 79, "velocity": 86, "duration": 184}, {"note": 78, "velocity": 89, "duration": 324}, {"note": 76, "velocity": 91, "duration": 383}, {"note": 0, "velocity": 0, "duration": 217}, {"note": 74, "velocity": 91, "duration": 210}, {"note": 71, "velocity": 90, "duration": 177}, {"note": 0, "velocity": 0, "duration": 63}, {"note": 74, "velocity": 92, "duration": 165}, {"note": 0, "velocity": 0, "duration": 75}, {"note": 83, "velocity": 89, "duration": 174}, {"note": 0, "velocity": 0, "duration": 66}, {"note": 81, "velocity": 87, "duration": 301}, {"note": 79, "velocity": 90, "duration": 558}, {"note": 74, "velocity": 89, "duration": 164}, {"note": 0, "velocity": 0, "duration": 76}, {"note": 76, "velocity": 91, "duration": 227}, {"note": 79, "velocity": 89, "duration": 181}, {"note": 81, "velocity": 87, "duration": 146}, {"note": 0, "velocity": 0, "duration": 94}, {"note": 83, "velocity": 89, "duration": 306}, {"note": 81, "velocity": 90, "duration": 358}, {"note": 0, "velocity": 0, "duration": 242}, {"note": 79, "velocity": 90, "duration": 211}, {"note": 76, "velocity": 91, "duration": 173}, {"note": 0, "velocity": 0, "duration": 67}, {"note": 79, "velocity": 92, "duration": 178}, {"note": 0, "velocity": 0, "duration": 62}, {"note": 83, "velocity": 90, "duration": 160}, {"note": 0, "velocity": 0, "duration": 80}, {"note": 83, "velocity": 91, "duration": 301}, {"note": 81, "velocity": 87, "duration": 432}, {"note": 0, "velocity": 0, "duration": 648}, {"note": 79, "velocity": 90, "duration": 211}, {"note": 76, "velocity": 92, "duration": 374}, {"note": 81, "velocity": 86, "duration": 437}, {"note": 79, "velocity": 84, "duration": 1128}, {"note": 0, "velocity": 0, "duration": 14592}, {"note": 69, "velocity": 87, "duration": 192}, {"note": 71, "velocity": 84, "duration": 80}, {"note": 71, "velocity": 85, "duration": 305}, {"note": 0, "velocity": 0, "duration": 175}, {"note": 62, "velocity": 85, "duration": 96}, {"note": 74, "velocity": 96, "duration": 182}, {"note": 74, "velocity": 96, "duration": 186}, {"note": 76, "velocity": 86, "duration": 360}, {"note": 78, "velocity": 74, "duration": 120}, {"note": 79, "velocity": 79, "duration": 1327}, {"note": 0, "velocity": 0, "duration": 473}, {"note": 79, "velocity": 86, "duration": 111}, {"note": 74, "velocity": 89, "duration": 83}, {"note": 74, "velocity": 89, "duration": 166}, {"note": 0, "velocity": 0, "duration": 74}, {"note": 76, "velocity": 87, "duration": 83}, {"note": 76, "velocity": 86, "duration": 355}, {"note": 0, "velocity": 0, "duration": 125}, {"note": 74, "velocity": 83, "duration": 82}, {"note": 74, "velocity": 92, "duration": 181}, {"note": 76, "velocity": 81, "duration": 86}, {"note": 74, "velocity": 89, "duration": 285}, {"note": 72, "velocity": 87, "duration": 239}, {"note": 71, "velocity": 86, "duration": 1024}, {"note": 0, "velocity": 0, "duration": 896}, {"note": 74, "velocity": 99, "duration": 120}, {"note": 74, "velocity": 99, "duration": 120}, {"note": 76, "velocity": 85, "duration": 68}, {"note": 76, "velocity": 86, "duration": 103}, {"note": 74, "velocity": 92, "duration": 79}, {"note": 74, "velocity": 87, "duration": 120}, {"note": 76, "velocity": 86, "duration": 240}, {"note": 74, "velocity": 92, "duration": 120}, {"note": 74, "velocity": 92, "duration": 120}, {"note": 76, "velocity": 86, "duration": 55}, {"note": 0, "velocity": 0, "duration": 65}, {"note": 76, "velocity": 87, "duration": 95}, {"note": 74, "velocity": 91, "duration": 71}, {"note": 79, "velocity": 89, "duration": 110}, {"note": 76, "velocity": 89, "duration": 208}, {"note": 71, "velocity": 82, "duration": 120}, {"note": 74, "velocity": 89, "duration": 103}, {"note": 76, "velocity": 85, "duration": 71}, {"note": 76, "velocity": 87, "duration": 98}, {"note": 74, "velocity": 92, "duration": 188}, {"note": 74, "velocity": 87, "duration": 106}, {"note": 69, "velocity": 85, "duration": 138}, {"note": 71, "velocity": 84, "duration": 600}, {"note": 0, "velocity": 0, "duration": 240}, {"note": 74, "velocity": 81, "duration": 79}, {"note": 74, "velocity": 85, "duration": 103}, {"note": 74, "velocity": 87, "duration": 190}, {"note": 72, "velocity": 77, "duration": 67}, {"note": 72, "velocity": 80, "duration": 436}, {"note": 74, "velocity": 87, "duration": 120}, {"note": 76, "velocity": 87, "duration": 240}, {"note": 79, "velocity": 91, "duration": 291}, {"note": 83, "velocity": 89, "duration": 119}, {"note": 0, "velocity": 0, "duration": 61}, {"note": 81, "velocity": 89, "duration": 119}, {"note": 79, "velocity": 89, "duration": 119}, {"note": 81, "velocity": 89, "duration": 813}, {"note": 0, "velocity": 0, "duration": 147}, {"note": 74, "velocity": 99, "duration": 177}, {"note": 0, "velocity": 0, "duration": 63}, {"note": 76, "velocity": 94, "duration": 273}, {"note": 79, "velocity": 90, "duration": 186}, {"note": 81, "velocity": 94, "duration": 166}, {"note": 0, "velocity": 0, "duration": 74}, {"note": 83, "velocity": 91, "duration": 461}, {"note": 74, "velocity": 92, "duration": 322}, {"note": 74, "velocity": 96, "duration": 82}, {"note": 84, "velocity": 96, "duration": 172}, {"note": 0, "velocity": 0, "duration": 68}, {"note": 83, "velocity": 89, "duration": 217}, {"note": 81, "velocity": 92, "duration": 211}, {"note": 79, "velocity": 92, "duration": 140}, {"note": 81, "velocity": 88, "duration": 420}, {"note": 74, "velocity": 89, "duration": 388}, {"note": 0, "velocity": 0, "duration": 332}, {"note": 74, "velocity": 99, "duration": 204}, {"note": 76, "velocity": 91, "duration": 184}, {"note": 78, "velocity": 89, "duration": 200}, {"note": 74, "velocity": 87, "duration": 236}, {"note": 81, "velocity": 91, "duration": 426}, {"note": 79, "velocity": 91, "duration": 428}, {"note": 71, "velocity": 89, "duration": 78}, {"note": 79, "velocity": 89, "duration": 186}, {"note": 78, "velocity": 94, "duration": 215}, {"note": 76, "velocity": 92, "duration": 187}, {"note": 78, "velocity": 87, "duration": 268}, {"note": 76, "velocity": 90, "duration": 326}, {"note": 74, "velocity": 90, "duration": 525}, {"note": 0, "velocity": 0, "duration": 75}, {"note": 74, "velocity": 99, "duration": 266}, {"note": 76, "velocity": 89, "duration": 152}, {"note": 0, "velocity": 0, "duration": 88}, {"note": 78, "velocity": 88, "duration": 166}, {"note": 0, "velocity": 0, "duration": 74}, {"note": 79, "velocity": 86, "duration": 184}, {"note": 78, "velocity": 89, "duration": 324}, {"note": 76, "velocity": 91, "duration": 383}, {"note": 0, "velocity": 0, "duration": 217}, {"note": 74, "velocity": 91, "duration": 210}, {"note": 71, "velocity": 90, "duration": 177}, {"note": 0, "velocity": 0, "duration": 63}, {"note": 74, "velocity": 92, "duration": 165}, {"note": 0, "velocity": 0, "duration": 75}, {"note": 83, "velocity": 89, "duration": 174}, {"note": 0, "velocity": 0, "duration": 66}, {"note": 81, "velocity": 87, "duration": 301}, {"note": 79, "velocity": 90, "duration": 558}, {"note": 74, "velocity": 89, "duration": 164}, {"note": 0, "velocity": 0, "duration": 76}, {"note": 76, "velocity": 91, "duration": 227}, {"note": 79, "velocity": 89, "duration": 181}, {"note": 81, "velocity": 87, "duration": 146}, {"note": 0, "velocity": 0, "duration": 94}, {"note": 83, "velocity": 89, "duration": 306}, {"note": 81, "velocity": 90, "duration": 358}, {"note": 0, "velocity": 0, "duration": 242}, {"note": 79, "velocity": 90, "duration": 211}, {"note": 76, "velocity": 91, "duration": 173}, {"note": 0, "velocity": 0, "duration": 67}, {"note": 79, "velocity": 92, "duration": 178}, {"note": 0, "velocity": 0, "duration": 62}, {"note": 83, "velocity": 90, "duration": 160}, {"note": 0, "velocity": 0, "duration": 80}, {"note": 83, "velocity": 91, "duration": 301}, {"note": 81, "velocity": 87, "duration": 432}, {"note": 0, "velocity": 0, "duration": 168}, {"note": 74, "velocity": 99, "duration": 177}, {"note": 0, "velocity": 0, "duration": 63}, {"note": 76, "velocity": 94, "duration": 273}, {"note": 79, "velocity": 90, "duration": 186}, {"note": 81, "velocity": 94, "duration": 166}, {"note": 0, "velocity": 0, "duration": 74}, {"note": 83, "velocity": 91, "duration": 461}, {"note": 74, "velocity": 92, "duration": 322}, {"note": 74, "velocity": 96, "duration": 82}, {"note": 84, "velocity": 96, "duration": 172}, {"note": 0, "velocity": 0, "duration": 68}, {"note": 83, "velocity": 89, "duration": 217}, {"note": 81, "velocity": 92, "duration": 211}, {"note": 79, "velocity": 92, "duration": 150}, {"note": 81, "velocity": 88, "duration": 340}, {"note": 74, "velocity": 89, "duration": 388}, {"note": 0, "velocity": 0, "duration": 332}, {"note": 74, "velocity": 99, "duration": 204}, {"note": 76, "velocity": 91, "duration": 184}, {"note": 78, "velocity": 89, "duration": 200}, {"note": 74, "velocity": 87, "duration": 236}, {"note": 81, "velocity": 91, "duration": 204}, {"note": 79, "velocity": 91, "duration": 428}, {"note": 0, "velocity": 0, "duration": 292}, {"note": 79, "velocity": 89, "duration": 186}, {"note": 78, "velocity": 94, "duration": 215}, {"note": 76, "velocity": 92, "duration": 187}, {"note": 78, "velocity": 87, "duration": 268}, {"note": 76, "velocity": 90, "duration": 326}, {"note": 74, "velocity": 90, "duration": 525}, {"note": 0, "velocity": 0, "duration": 75}, {"note": 74, "velocity": 99, "duration": 266}, {"note": 76, "velocity": 89, "duration": 152}, {"note": 0, "velocity": 0, "duration": 88}, {"note": 78, "velocity": 88, "duration": 166}, {"note": 0, "velocity": 0, "duration": 74}, {"note": 79, "velocity": 86, "duration": 184}, {"note": 78, "velocity": 89, "duration": 324}, {"note": 76, "velocity": 91, "duration": 383}, {"note": 0, "velocity": 0, "duration": 217}, {"note": 74, "velocity": 91, "duration": 210}, {"note": 71, "velocity": 90, "duration": 177}, {"note": 0, "velocity": 0, "duration": 63}, {"note": 74, "velocity": 92, "duration": 165}, {"note": 0, "velocity": 0, "duration": 75}, {"note": 83, "velocity": 89, "duration": 174}, {"note": 0, "velocity": 0, "duration": 66}, {"note": 81, "velocity": 87, "duration": 301}, {"note": 79, "velocity": 90, "duration": 558}, {"note": 74, "velocity": 89, "duration": 164}, {"note": 0, "velocity": 0, "duration": 76}, {"note": 76, "velocity": 91, "duration": 227}, {"note": 79, "velocity": 89, "duration": 181}, {"note": 81, "velocity": 87, "duration": 146}, {"note": 0, "velocity": 0, "duration": 94}, {"note": 83, "velocity": 89, "duration": 460}, {"note": 81, "velocity": 90, "duration": 358}, {"note": 0, "velocity": 0, "duration": 122}, {"note": 79, "velocity": 90, "duration": 211}, {"note": 76, "velocity": 91, "duration": 173}, {"note": 0, "velocity": 0, "duration": 67}, {"note": 79, "velocity": 92, "duration": 178}, {"note": 0, "velocity": 0, "duration": 62}, {"note": 83, "velocity": 90, "duration": 160}, {"note": 0, "velocity": 0, "duration": 80}, {"note": 83, "velocity": 91, "duration": 531}, {"note": 81, "velocity": 87, "duration": 432}, {"note": 0, "velocity": 0, "duration": 528}, {"note": 79, "velocity": 90, "duration": 211}, {"note": 76, "velocity": 92, "duration": 374}, {"note": 81, "velocity": 86, "duration": 437}, {"note": 79, "velocity": 84, "duration": 1128}]]