[[{"note": 65, "velocity": 86, "duration": 153}, {"note": 0, "velocity": 0, "duration": 87}, {"note": 63, "velocity": 88, "duration": 150}, {"note": 0, "velocity": 0, "duration": 90}, {"note": 65, "velocity": 90, "duration": 162}, {"note": 0, "velocity": 0, "duration": 78}, {"note": 63, "velocity": 90, "duration": 140}, {"note": 0, "velocity": 0, "duration": 100}, {"note": 65, "velocity": 95, "duration": 578}, {"note": 0, "velocity": 0, "duration": 142}, {"note": 63, "velocity": 84, "duration": 135}, {"note": 0, "velocity": 0, "duration": 105}, {"note": 65, "velocity": 86, "duration": 130}, {"note": 0, "velocity": 0, "duration": 110}, {"note": 63, "velocity": 86, "duration": 140}, {"note": 0, "velocity": 0, "duration": 100}, {"note": 65, "velocity": 88, "duration": 147}, {"note": 0, "velocity": 0, "duration": 93}, {"note": 63, "velocity": 83, "duration": 175}, {"note": 0, "velocity": 0, "duration": 65}, {"note": 65, "velocity": 88, "duration": 591}, {"note": 0, "velocity": 0, "duration": 369}, {"note": 65, "velocity": 85, "duration": 142}, {"note": 0, "velocity": 0, "duration": 98}, {"note": 63, "velocity": 86, "duration": 166}, {"note": 0, "velocity": 0, "duration": 74}, {"note": 65, "velocity": 87, "duration": 153}, {"note": 0, "velocity": 0, "duration": 87}, {"note": 63, "velocity": 85, "duration": 162}, {"note": 0, "velocity": 0, "duration": 78}, {"note": 65, "velocity": 86, "duration": 361}, {"note": 0, "velocity": 0, "duration": 119}, {"note": 61, "velocity": 85, "duration": 193}, {"note": 63, "velocity": 85, "duration": 173}, {"note": 0, "velocity": 0, "duration": 67}, {"note": 65, "velocity": 84, "duration": 153}, {"note": 0, "velocity": 0, "duration": 87}, {"note": 63, "velocity": 85, "duration": 154}, {"note": 0, "velocity": 0, "duration": 86}, {"note": 65, "velocity": 85, "duration": 142}, {"note": 0, "velocity": 0, "duration": 98}, {"note": 63, "velocity": 86, "duration": 163}, {"note": 0, "velocity": 0, "duration": 77}, {"note": 65, "velocity": 85, "duration": 506}, {"note": 0, "velocity": 0, "duration": 454}, {"note": 63, "velocity": 82, "duration": 216}, {"note": 61, "velocity": 79, "duration": 198}, {"note": 63, "velocity": 85, "duration": 246}, {"note": 61, "velocity": 81, "duration": 179}, {"note": 0, "velocity": 0, "duration": 61}, {"note": 63, "velocity": 86, "duration": 263}, {"note": 61, "velocity": 85, "duration": 161}, {"note": 0, "velocity": 0, "duration": 79}, {"note": 63, "velocity": 86, "duration": 246}, {"note": 61, "velocity": 83, "duration": 152}, {"note": 0, "velocity": 0, "duration": 88}, {"note": 63, "velocity": 88, "duration": 219}, {"note": 61, "velocity": 87, "duration": 189}, {"note": 65, "velocity": 86, "duration": 362}, {"note": 0, "velocity": 0, "duration": 118}, {"note": 58, "velocity": 85, "duration": 163}, {"note": 0, "velocity": 0, "duration": 77}, {"note": 61, "velocity": 88, "duration": 757}, {"note": 0, "velocity": 0, "duration": 443}, {"note": 65, "velocity": 88, "duration": 336}, {"note": 0, "velocity": 0, "duration": 144}, {"note": 58, "velocity": 84, "duration": 170}, {"note": 0, "velocity": 0, "duration": 70}, {"note": 61, "velocity": 85, "duration": 1156}, {"note": 0, "velocity": 0, "duration": 1484}, {"note": 65, "velocity": 86, "duration": 153}, {"note": 0, "velocity": 0, "duration": 87}, {"note": 63, "velocity": 88, "duration": 150}, {"note": 0, "velocity": 0, "duration": 90}, {"note": 65, "velocity": 90, "duration": 162}, {"note": 0, "velocity": 0, "duration": 78}, {"note": 63, "velocity": 90, "duration": 140}, {"note": 0, "velocity": 0, "duration": 100}, {"note": 65, "velocity": 95, "duration": 578}, {"note": 0, "velocity": 0, "duration": 142}, {"note": 63, "velocity": 84, "duration": 135}, {"note": 0, "velocity": 0, "duration": 105}, {"note": 65, "velocity": 86, "duration": 130}, {"note": 0, "velocity": 0, "duration": 110}, {"note": 63, "velocity": 86, "duration": 140}, {"note": 0, "velocity": 0, "duration": 100}, {"note": 65, "velocity": 88, "duration": 147}, {"note": 0, "velocity": 0, "duration": 93}, {"note": 63, "velocity": 83, "duration": 175}, {"note": 0, "velocity": 0, "duration": 65}, {"note": 65, "velocity": 88, "duration": 591}, {"note": 0, "velocity": 0, "duration": 369}, {"note": 65, "velocity": 85, "duration": 142}, {"note": 0, "velocity": 0, "duration": 98}, {"note": 63, "velocity": 86, "duration": 166}, {"note": 0, "velocity": 0, "duration": 74}, {"note": 65, "velocity": 87, "duration": 153}, {"note": 0, "velocity": 0, "duration": 87}, {"note": 63, "velocity": 85, "duration": 162}, {"note": 0, "velocity": 0, "duration": 78}, {"note": 65, "velocity": 86, "duration": 361}, {"note": 0, "velocity": 0, "duration": 119}, {"note": 61, "velocity": 85, "duration": 193}, {"note": 63, "velocity": 85, "duration": 173}, {"note": 0, "velocity": 0, "duration": 67}, {"note": 65, "velocity": 84, "duration": 153}, {"note": 0, "velocity": 0, "duration": 87}, {"note": 63, "velocity": 85, "duration": 154}, {"note": 0, "velocity": 0, "duration": 86}, {"note": 65, "velocity": 85, "duration": 142}, {"note": 0, "velocity": 0, "duration": 98}, {"note": 63, "velocity": 86, "duration": 163}, {"note": 0, "velocity": 0, "duration": 77}, {"note": 65, "velocity": 85, "duration": 506}, {"note": 0, "velocity": 0, "duration": 454}, {"note": 63, "velocity": 82, "duration": 216}, {"note": 61, "velocity": 79, "duration": 198}, {"note": 63, "velocity": 85, "duration": 246}, {"note": 61, "velocity": 81, "duration": 179}, {"note": 0, "velocity": 0, "duration": 61}, {"note": 63, "velocity": 86, "duration": 263}, {"note": 61, "velocity": 85, "duration": 161}, {"note": 0, "velocity": 0, "duration": 79}, {"note": 63, "velocity": 86, "duration": 246}, {"note": 61, "velocity": 83, "duration": 152}, {"note": 0, "velocity": 0, "duration": 88}, {"note": 63, "velocity": 88, "duration": 219}, {"note": 61, "velocity": 87, "duration": 189}, {"note": 65, "velocity": 86, "duration": 362}, {"note": 0, "velocity": 0, "duration": 118}, {"note": 58, "velocity": 85, "duration": 163}, {"note": 0, "velocity": 0, "duration": 77}, {"note": 61, "velocity": 88, "duration": 757}, {"note": 0, "velocity": 0, "duration": 443}, {"note": 65, "velocity": 88, "duration": 336}, {"note": 0, "velocity": 0, "duration": 144}, {"note": 58, "velocity": 84, "duration": 170}, {"note": 0, "velocity": 0, "duration": 70}, {"note": 61, "velocity": 85, "duration": 1156}, {"note": 0, "velocity": 0, "duration": 1484}, {"note": 73, "velocity": 84, "duration": 192}, {"note": 72, "velocity": 86, "duration": 206}, {"note": 73, "velocity": 86, "duration": 189}, {"note": 72, "velocity": 88, "duration": 141}, {"note": 0, "velocity": 0, "duration": 99}, {"note": 73, "velocity": 89, "duration": 157}, {"note": 0, "velocity": 0, "duration": 83}, {"note": 72, "velocity": 90, "duration": 121}, {"note": 0, "velocity": 0, "duration": 119}, {"note": 73, "velocity": 90, "duration": 161}, {"note": 0, "velocity": 0, "duration": 79}, {"note": 72, "velocity": 88, "duration": 122}, {"note": 0, "velocity": 0, "duration": 118}, {"note": 73, "velocity": 89, "duration": 144}, {"note": 0, "velocity": 0, "duration": 96}, {"note": 72, "velocity": 91, "duration": 157}, {"note": 0, "velocity": 0, "duration": 83}, {"note": 75, "velocity": 93, "duration": 368}, {"note": 0, "velocity": 0, "duration": 112}, {"note": 72, "velocity": 90, "duration": 149}, {"note": 0, "velocity": 0, "duration": 91}, {"note": 73, "velocity": 88, "duration": 558}, {"note": 0, "velocity": 0, "duration": 162}, {"note": 73, "velocity": 86, "duration": 185}, {"note": 72, "velocity": 85, "duration": 143}, {"note": 0, "velocity": 0, "duration": 97}, {"note": 73, "velocity": 91, "duration": 213}, {"note": 72, "velocity": 86, "duration": 157}, {"note": 0, "velocity": 0, "duration": 83}, {"note": 73, "velocity": 89, "duration": 229}, {"note": 72, "velocity": 86, "duration": 183}, {"note": 73, "velocity": 88, "duration": 211}, {"note": 72, "velocity": 85, "duration": 183}, {"note": 73, "velocity": 88, "duration": 139}, {"note": 0, "velocity": 0, "duration": 101}, {"note": 75, "velocity": 91, "duration": 166}, {"note": 0, "velocity": 0, "duration": 74}, {"note": 77, "velocity": 91, "duration": 354}, {"note": 0, "velocity": 0, "duration": 126}, {"note": 73, "velocity": 86, "duration": 182}, {"note": 80, "velocity": 88, "duration": 2221}, {"note": 0, "velocity": 0, "duration": 419}, {"note": 73, "velocity": 90, "duration": 396}, {"note": 0, "velocity": 0, "duration": 84}, {"note": 80, "velocity": 86, "duration": 393}, {"note": 0, "velocity": 0, "duration": 87}, {"note": 82, "velocity": 86, "duration": 146}, {"note": 0, "velocity": 0, "duration": 94}, {"note": 77, "velocity": 85, "duration": 501}, {"note": 75, "velocity": 90, "duration": 2070}, {"note": 0, "velocity": 0, "duration": 330}, {"note": 68, "velocity": 84, "duration": 167}, {"note": 0, "velocity": 0, "duration": 73}, {"note": 77, "velocity": 91, "duration": 204}, {"note": 75, "velocity": 95, "duration": 132}, {"note": 0, "velocity": 0, "duration": 108}, {"note": 73, "velocity": 90, "duration": 148}, {"note": 0, "velocity": 0, "duration": 92}, {"note": 77, "velocity": 91, "duration": 425}, {"note": 70, "velocity": 90, "duration": 597}, {"note": 0, "velocity": 0, "duration": 123}, {"note": 77, "velocity": 91, "duration": 193}, {"note": 75, "velocity": 93, "duration": 103}, {"note": 0, "velocity": 0, "duration": 137}, {"note": 73, "velocity": 90, "duration": 188}, {"note": 77, "velocity": 91, "duration": 308}, {"note": 0, "velocity": 0, "duration": 172}, {"note": 75, "velocity": 98, "duration": 548}, {"note": 0, "velocity": 0, "duration": 172}, {"note": 75, "velocity": 95, "duration": 242}, {"note": 73, "velocity": 85, "duration": 215}, {"note": 72, "velocity": 88, "duration": 198}, {"note": 75, "velocity": 98, "duration": 409}, {"note": 0, "velocity": 0, "duration": 71}, {"note": 73, "velocity": 91, "duration": 214}, {"note": 72, "velocity": 88, "duration": 198}, {"note": 75, "velocity": 95, "duration": 397}, {"note": 0, "velocity": 0, "duration": 83}, {"note": 80, "velocity": 86, "duration": 126}, {"note": 0, "velocity": 0, "duration": 114}, {"note": 80, "velocity": 90, "duration": 149}, {"note": 0, "velocity": 0, "duration": 91}, {"note": 75, "velocity": 91, "duration": 447}, {"note": 73, "velocity": 85, "duration": 516}, {"note": 73, "velocity": 76, "duration": 36}, {"note": 0, "velocity": 0, "duration": 204}, {"note": 73, "velocity": 86, "duration": 175}, {"note": 0, "velocity": 0, "duration": 65}, {"note": 72, "velocity": 88, "duration": 210}, {"note": 70, "velocity": 85, "duration": 187}, {"note": 73, "velocity": 88, "duration": 452}, {"note": 0, "velocity": 0, "duration": 508}, {"note": 73, "velocity": 85, "duration": 152}, {"note": 0, "velocity": 0, "duration": 88}, {"note": 73, "velocity": 89, "duration": 205}, {"note": 72, "velocity": 91, "duration": 218}, {"note": 70, "velocity": 86, "duration": 207}, {"note": 73, "velocity": 88, "duration": 634}, {"note": 0, "velocity": 0, "duration": 326}, {"note": 73, "velocity": 90, "duration": 186}, {"note": 73, "velocity": 91, "duration": 183}, {"note": 72, "velocity": 86, "duration": 177}, {"note": 0, "velocity": 0, "duration": 63}, {"note": 73, "velocity": 86, "duration": 126}, {"note": 0, "velocity": 0, "duration": 114}, {"note": 75, "velocity": 88, "duration": 185}, {"note": 78, "velocity": 85, "duration": 441}, {"note": 77, "velocity": 88, "duration": 157}, {"note": 0, "velocity": 0, "duration": 83}, {"note": 77, "velocity": 88, "duration": 415}, {"note": 0, "velocity": 0, "duration": 65}, {"note": 75, "velocity": 89, "duration": 175}, {"note": 0, "velocity": 0, "duration": 65}, {"note": 73, "velocity": 91, "duration": 150}, {"note": 0, "velocity": 0, "duration": 90}, {"note": 77, "velocity": 91, "duration": 813}, {"note": 0, "velocity": 0, "duration": 147}, {"note": 77, "velocity": 84, "duration": 167}, {"note": 0, "velocity": 0, "duration": 73}, {"note": 77, "velocity": 91, "duration": 204}, {"note": 75, "velocity": 95, "duration": 132}, {"note": 0, "velocity": 0, "duration": 108}, {"note": 73, "velocity": 90, "duration": 148}, {"note": 0, "velocity": 0, "duration": 92}, {"note": 77, "velocity": 91, "duration": 425}, {"note": 70, "velocity": 90, "duration": 597}, {"note": 0, "velocity": 0, "duration": 123}, {"note": 77, "velocity": 91, "duration": 193}, {"note": 75, "velocity": 93, "duration": 103}, {"note": 0, "velocity": 0, "duration": 137}, {"note": 73, "velocity": 90, "duration": 188}, {"note": 77, "velocity": 91, "duration": 308}, {"note": 0, "velocity": 0, "duration": 172}, {"note": 75, "velocity": 98, "duration": 548}, {"note": 0, "velocity": 0, "duration": 172}, {"note": 75, "velocity": 95, "duration": 242}, {"note": 73, "velocity": 85, "duration": 215}, {"note": 72, "velocity": 88, "duration": 198}, {"note": 75, "velocity": 98, "duration": 409}, {"note": 0, "velocity": 0, "duration": 71}, {"note": 73, "velocity": 91, "duration": 214}, {"note": 72, "velocity": 88, "duration": 198}, {"note": 75, "velocity": 95, "duration": 397}, {"note": 0, "velocity": 0, "duration": 83}, {"note": 80, "velocity": 86, "duration": 126}, {"note": 0, "velocity": 0, "duration": 114}, {"note": 80, "velocity": 90, "duration": 149}, {"note": 0, "velocity": 0, "duration": 91}, {"note": 75, "velocity": 91, "duration": 447}, {"note": 73, "velocity": 85, "duration": 480}, {"note": 68, "velocity": 76, "duration": 108}, {"note": 0, "velocity": 0, "duration": 132}, {"note": 80, "velocity": 86, "duration": 175}, {"note": 0, "velocity": 0, "duration": 65}, {"note": 80, "velocity": 88, "duration": 210}, {"note": 80, "velocity": 85, "duration": 187}, {"note": 80, "velocity": 85, "duration": 187}, {"note": 80, "velocity": 88, "duration": 452}, {"note": 78, "velocity": 85, "duration": 152}, {"note": 0, "velocity": 0, "duration": 88}, {"note": 78, "velocity": 89, "duration": 480}, {"note": 0, "velocity": 0, "duration": 240}, {"note": 73, "velocity": 91, "duration": 218}, {"note": 75, "velocity": 86, "duration": 207}, {"note": 77, "velocity": 88, "duration": 634}, {"note": 0, "velocity": 0, "duration": 86}, {"note": 78, "velocity": 90, "duration": 186}, {"note": 77, "velocity": 91, "duration": 240}, {"note": 75, "velocity": 86, "duration": 177}, {"note": 0, "velocity": 0, "duration": 63}, {"note": 73, "velocity": 88, "duration": 185}, {"note": 75, "velocity": 85, "duration": 441}, {"note": 73, "velocity": 88, "duration": 1680}, {"note": 0, "velocity": 0, "duration": 13920}, {"note": 65, "velocity": 86, "duration": 153}, {"note": 0, "velocity": 0, "duration": 87}, {"note": 63, "velocity": 88, "duration": 150}, {"note": 0, "velocity": 0, "duration": 90}, {"note": 65, "velocity": 90, "duration": 162}, {"note": 0, "velocity": 0, "duration": 78}, {"note": 63, "velocity": 90, "duration": 140}, {"note": 0, "velocity": 0, "duration": 100}, {"note": 65, "velocity": 95, "duration": 578}, {"note": 0, "velocity": 0, "duration": 142}, {"note": 63, "velocity": 84, "duration": 135}, {"note": 0, "velocity": 0, "duration": 105}, {"note": 65, "velocity": 86, "duration": 130}, {"note": 0, "velocity": 0, "duration": 110}, {"note": 63, "velocity": 86, "duration": 140}, {"note": 0, "velocity": 0, "duration": 100}, {"note": 65, "velocity": 88, "duration": 147}, {"note": 0, "velocity": 0, "duration": 93}, {"note": 63, "velocity": 83, "duration": 175}, {"note": 0, "velocity": 0, "duration": 65}, {"note": 65, "velocity": 88, "duration": 591}, {"note": 0, "velocity": 0, "duration": 369}, {"note": 65, "velocity": 85, "duration": 142}, {"note": 0, "velocity": 0, "duration": 98}, {"note": 63, "velocity": 86, "duration": 166}, {"note": 0, "velocity": 0, "duration": 74}, {"note": 65, "velocity": 87, "duration": 153}, {"note": 0, "velocity": 0, "duration": 87}, {"note": 63, "velocity": 85, "duration": 162}, {"note": 0, "velocity": 0, "duration": 78}, {"note": 65, "velocity": 86, "duration": 361}, {"note": 0, "velocity": 0, "duration": 119}, {"note": 61, "velocity": 85, "duration": 193}, {"note": 63, "velocity": 85, "duration": 173}, {"note": 0, "velocity": 0, "duration": 67}, {"note": 65, "velocity": 84, "duration": 153}, {"note": 0, "velocity": 0, "duration": 87}, {"note": 63, "velocity": 85, "duration": 154}, {"note": 0, "velocity": 0, "duration": 86}, {"note": 65, "velocity": 85, "duration": 142}, {"note": 0, "velocity": 0, "duration": 98}, {"note": 63, "velocity": 86, "duration": 163}, {"note": 0, "velocity": 0, "duration": 77}, {"note": 65, "velocity": 85, "duration": 506}, {"note": 0, "velocity": 0, "duration": 454}, {"note": 63, "velocity": 82, "duration": 216}, {"note": 61, "velocity": 79, "duration": 198}, {"note": 63, "velocity": 85, "duration": 246}, {"note": 61, "velocity": 81, "duration": 179}, {"note": 0, "velocity": 0, "duration": 61}, {"note": 63, "velocity": 86, "duration": 263}, {"note": 61, "velocity": 85, "duration": 161}, {"note": 0, "velocity": 0, "duration": 79}, {"note": 63, "velocity": 86, "duration": 246}, {"note": 61, "velocity": 83, "duration": 152}, {"note": 0, "velocity": 0, "duration": 88}, {"note": 63, "velocity": 88, "duration": 219}, {"note": 61, "velocity": 87, "duration": 189}, {"note": 65, "velocity": 86, "duration": 362}, {"note": 0, "velocity": 0, "duration": 118}, {"note": 58, "velocity": 85, "duration": 163}, {"note": 0, "velocity": 0, "duration": 77}, {"note": 61, "velocity": 88, "duration": 757}, {"note": 0, "velocity": 0, "duration": 443}, {"note": 65, "velocity": 88, "duration": 336}, {"note": 0, "velocity": 0, "duration": 144}, {"note": 58, "velocity": 84, "duration": 170}, {"note": 0, "velocity": 0, "duration": 70}, {"note": 61, "velocity": 85, "duration": 1156}, {"note": 0, "velocity": 0, "duration": 1484}, {"note": 65, "velocity": 86, "duration": 153}, {"note": 0, "velocity": 0, "duration": 87}, {"note": 63, "velocity": 88, "duration": 150}, {"note": 0, "velocity": 0, "duration": 90}, {"note": 65, "velocity": 90, "duration": 162}, {"note": 0, "velocity": 0, "duration": 78}, {"note": 63, "velocity": 90, "duration": 140}, {"note": 0, "velocity": 0, "duration": 100}, {"note": 65, "velocity": 95, "duration": 578}, {"note": 0, "velocity": 0, "duration": 142}, {"note": 63, "velocity": 84, "duration": 135}, {"note": 0, "velocity": 0, "duration": 105}, {"note": 65, "velocity": 86, "duration": 130}, {"note": 0, "velocity": 0, "duration": 110}, {"note": 63, "velocity": 86, "duration": 140}, {"note": 0, "velocity": 0, "duration": 100}, {"note": 65, "velocity": 88, "duration": 147}, {"note": 0, "velocity": 0, "duration": 93}, {"note": 63, "velocity": 83, "duration": 175}, {"note": 0, "velocity": 0, "duration": 65}, {"note": 65, "velocity": 88, "duration": 591}, {"note": 0, "velocity": 0, "duration": 369}, {"note": 65, "velocity": 85, "duration": 142}, {"note": 0, "velocity": 0, "duration": 98}, {"note": 63, "velocity": 86, "duration": 166}, {"note": 0, "velocity": 0, "duration": 74}, {"note": 65, "velocity": 87, "duration": 153}, {"note": 0, "velocity": 0, "duration": 87}, {"note": 63, "velocity": 85, "duration": 162}, {"note": 0, "velocity": 0, "duration": 78}, {"note": 65, "velocity": 86, "duration": 361}, {"note": 0, "velocity": 0, "duration": 119}, {"note": 61, "velocity": 85, "duration": 193}, {"note": 63, "velocity": 85, "duration": 173}, {"note": 0, "velocity": 0, "duration": 67}, {"note": 65, "velocity": 84, "duration": 153}, {"note": 0, "velocity": 0, "duration": 87}, {"note": 63, "velocity": 85, "duration": 154}, {"note": 0, "velocity": 0, "duration": 86}, {"note": 65, "velocity": 85, "duration": 142}, {"note": 0, "velocity": 0, "duration": 98}, {"note": 63, "velocity": 86, "duration": 163}, {"note": 0, "velocity": 0, "duration": 77}, {"note": 65, "velocity": 85, "duration": 506}, {"note": 0, "velocity": 0, "duration": 454}, {"note": 63, "velocity": 82, "duration": 216}, {"note": 61, "velocity": 79, "duration": 198}, {"note": 63, "velocity": 85, "duration": 246}, {"note": 61, "velocity": 81, "duration": 179}, {"note": 0, "velocity": 0, "duration": 61}, {"note": 63, "velocity": 86, "duration": 263}, {"note": 61, "velocity": 85, "duration": 161}, {"note": 0, "velocity": 0, "duration": 79}, {"note": 63, "velocity": 86, "duration": 246}, {"note": 61, "velocity": 83, "duration": 152}, {"note": 0, "velocity": 0, "duration": 88}, {"note": 63, "velocity": 88, "duration": 219}, {"note": 61, "velocity": 87, "duration": 189}, {"note": 65, "velocity": 86, "duration": 362}, {"note": 0, "velocity": 0, "duration": 118}, {"note": 58, "velocity": 85, "duration": 163}, {"note": 0, "velocity": 0, "duration": 77}, {"note": 61, "velocity": 88, "duration": 757}, {"note": 0, "velocity": 0, "duration": 443}, {"note": 65, "velocity": 88, "duration": 336}, {"note": 0, "velocity": 0, "duration": 144}, {"note": 58, "velocity": 84, "duration": 170}, {"note": 0, "velocity": 0, "duration": 70}, {"note": 61, "velocity": 85, "duration": 1156}, {"note": 0, "velocity": 0, "duration": 1484}, {"note": 73, "velocity": 84, "duration": 192}, {"note": 72, "velocity": 86, "duration": 206}, {"note": 73, "velocity": 86, "duration": 189}, {"note": 72, "velocity": 88, "duration": 141}, {"note": 0, "velocity": 0, "duration": 99}, {"note": 73, "velocity": 89, "duration": 157}, {"note": 0, "velocity": 0, "duration": 83}, {"note": 72, "velocity": 90, "duration": 121}, {"note": 0, "velocity": 0, "duration": 119}, {"note": 73, "velocity": 90, "duration": 161}, {"note": 0, "velocity": 0, "duration": 79}, {"note": 72, "velocity": 88, "duration": 122}, {"note": 0, "velocity": 0, "duration": 118}, {"note": 73, "velocity": 89, "duration": 144}, {"note": 0, "velocity": 0, "duration": 96}, {"note": 72, "velocity": 91, "duration": 157}, {"note": 0, "velocity": 0, "duration": 83}, {"note": 75, "velocity": 93, "duration": 368}, {"note": 0, "velocity": 0, "duration": 112}, {"note": 72, "velocity": 90, "duration": 149}, {"note": 0, "velocity": 0, "duration": 91}, {"note": 73, "velocity": 88, "duration": 558}, {"note": 0, "velocity": 0, "duration": 162}, {"note": 73, "velocity": 86, "duration": 185}, {"note": 72, "velocity": 85, "duration": 143}, {"note": 0, "velocity": 0, "duration": 97}, {"note": 73, "velocity": 91, "duration": 213}, {"note": 72, "velocity": 86, "duration": 157}, {"note": 0, "velocity": 0, "duration": 83}, {"note": 73, "velocity": 89, "duration": 229}, {"note": 72, "velocity": 86, "duration": 183}, {"note": 73, "velocity": 88, "duration": 211}, {"note": 72, "velocity": 85, "duration": 183}, {"note": 73, "velocity": 88, "duration": 139}, {"note": 0, "velocity": 0, "duration": 101}, {"note": 75, "velocity": 91, "duration": 166}, {"note": 0, "velocity": 0, "duration": 74}, {"note": 77, "velocity": 91, "duration": 354}, {"note": 0, "velocity": 0, "duration": 126}, {"note": 73, "velocity": 86, "duration": 182}, {"note": 80, "velocity": 88, "duration": 2221}, {"note": 0, "velocity": 0, "duration": 419}, {"note": 73, "velocity": 90, "duration": 396}, {"note": 0, "velocity": 0, "duration": 84}, {"note": 80, "velocity": 86, "duration": 393}, {"note": 0, "velocity": 0, "duration": 87}, {"note": 82, "velocity": 86, "duration": 146}, {"note": 0, "velocity": 0, "duration": 94}, {"note": 77, "velocity": 85, "duration": 501}, {"note": 75, "velocity": 90, "duration": 2070}, {"note": 0, "velocity": 0, "duration": 330}, {"note": 68, "velocity": 84, "duration": 167}, {"note": 0, "velocity": 0, "duration": 73}, {"note": 77, "velocity": 91, "duration": 204}, {"note": 75, "velocity": 95, "duration": 132}, {"note": 0, "velocity": 0, "duration": 108}, {"note": 73, "velocity": 90, "duration": 148}, {"note": 0, "velocity": 0, "duration": 92}, {"note": 77, "velocity": 91, "duration": 425}, {"note": 70, "velocity": 90, "duration": 597}, {"note": 0, "velocity": 0, "duration": 123}, {"note": 77, "velocity": 91, "duration": 193}, {"note": 75, "velocity": 93, "duration": 103}, {"note": 0, "velocity": 0, "duration": 137}, {"note": 73, "velocity": 90, "duration": 188}, {"note": 77, "velocity": 91, "duration": 308}, {"note": 0, "velocity": 0, "duration": 172}, {"note": 75, "velocity": 98, "duration": 548}, {"note": 0, "velocity": 0, "duration": 172}, {"note": 75, "velocity": 95, "duration": 242}, {"note": 73, "velocity": 85, "duration": 215}, {"note": 72, "velocity": 88, "duration": 198}, {"note": 75, "velocity": 98, "duration": 409}, {"note": 0, "velocity": 0, "duration": 71}, {"note": 73, "velocity": 91, "duration": 214}, {"note": 72, "velocity": 88, "duration": 198}, {"note": 75, "velocity": 95, "duration": 397}, {"note": 0, "velocity": 0, "duration": 83}, {"note": 80, "velocity": 86, "duration": 126}, {"note": 0, "velocity": 0, "duration": 114}, {"note": 80, "velocity": 90, "duration": 149}, {"note": 0, "velocity": 0, "duration": 91}, {"note": 75, "velocity": 91, "duration": 447}, {"note": 73, "velocity": 85, "duration": 516}, {"note": 73, "velocity": 76, "duration": 36}, {"note": 0, "velocity": 0, "duration": 204}, {"note": 73, "velocity": 86, "duration": 175}, {"note": 0, "velocity": 0, "duration": 65}, {"note": 72, "velocity": 88, "duration": 210}, {"note": 70, "velocity": 85, "duration": 187}, {"note": 73, "velocity": 88, "duration": 452}, {"note": 0, "velocity": 0, "duration": 508}, {"note": 73, "velocity": 85, "duration": 152}, {"note": 0, "velocity": 0, "duration": 88}, {"note": 73, "velocity": 89, "duration": 205}, {"note": 72, "velocity": 91, "duration": 218}, {"note": 70, "velocity": 86, "duration": 207}, {"note": 73, "velocity": 88, "duration": 634}, {"note": 0, "velocity": 0, "duration": 326}, {"note": 73, "velocity": 90, "duration": 186}, {"note": 73, "velocity": 91, "duration": 183}, {"note": 72, "velocity": 86, "duration": 177}, {"note": 0, "velocity": 0, "duration": 63}, {"note": 73, "velocity": 86, "duration": 126}, {"note": 0, "velocity": 0, "duration": 114}, {"note": 75, "velocity": 88, "duration": 185}, {"note": 78, "velocity": 85, "duration": 441}, {"note": 77, "velocity": 88, "duration": 157}, {"note": 0, "velocity": 0, "duration": 83}, {"note": 77, "velocity": 88, "duration": 415}, {"note": 0, "velocity": 0, "duration": 65}, {"note": 75, "velocity": 89, "duration": 175}, {"note": 0, "velocity": 0, "duration": 65}, {"note": 73, "velocity": 91, "duration": 150}, {"note": 0, "velocity": 0, "duration": 90}, {"note": 77, "velocity": 91, "duration": 813}, {"note": 0, "velocity": 0, "duration": 147}, {"note": 77, "velocity": 84, "duration": 167}, {"note": 0, "velocity": 0, "duration": 73}, {"note": 77, "velocity": 91, "duration": 204}, {"note": 75, "velocity": 95, "duration": 132}, {"note": 0, "velocity": 0, "duration": 108}, {"note": 73, "velocity": 90, "duration": 148}, {"note": 0, "velocity": 0, "duration": 92}, {"note": 77, "velocity": 91, "duration": 425}, {"note": 70, "velocity": 90, "duration": 597}, {"note": 0, "velocity": 0, "duration": 123}, {"note": 77, "velocity": 91, "duration": 193}, {"note": 75, "velocity": 93, "duration": 103}, {"note": 0, "velocity": 0, "duration": 137}, {"note": 73, "velocity": 90, "duration": 188}, {"note": 77, "velocity": 91, "duration": 308}, {"note": 0, "velocity": 0, "duration": 172}, {"note": 75, "velocity": 98, "duration": 548}, {"note": 0, "velocity": 0, "duration": 172}, {"note": 75, "velocity": 95, "duration": 242}, {"note": 73, "velocity": 85, "duration": 215}, {"note": 72, "velocity": 88, "duration": 198}, {"note": 75, "velocity": 98, "duration": 409}, {"note": 0, "velocity": 0, "duration": 71}, {"note": 73, "velocity": 91, "duration": 214}, {"note": 72, "velocity": 88, "duration": 198}, {"note": 75, "velocity": 95, "duration": 397}, {"note": 0, "velocity": 0, "duration": 83}, {"note": 80, "velocity": 86, "duration": 126}, {"note": 0, "velocity": 0, "duration": 114}, {"note": 80, "velocity": 90, "duration": 149}, {"note": 0, "velocity": 0, "duration": 91}, {"note": 75, "velocity": 91, "duration": 447}, {"note": 73, "velocity": 85, "duration": 480}, {"note": 68, "velocity": 76, "duration": 108}, {"note": 0, "velocity": 0, "duration": 132}, {"note": 80, "velocity": 86, "duration": 175}, {"note": 0, "velocity": 0, "duration": 65}, {"note": 80, "velocity": 88, "duration": 210}, {"note": 80, "velocity": 85, "duration": 187}, {"note": 80, "velocity": 85, "duration": 187}, {"note": 80, "velocity": 88, "duration": 452}, {"note": 78, "velocity": 85, "duration": 152}, {"note": 0, "velocity": 0, "duration": 88}, {"note": 78, "velocity": 89, "duration": 480}, {"note": 0, "velocity": 0, "duration": 240}, {"note": 73, "velocity": 91, "duration": 218}, {"note": 75, "velocity": 86, "duration": 207}, {"note": 77, "velocity": 88, "duration": 634}, {"note": 0, "velocity": 0, "duration": 86}, {"note": 78, "velocity": 90, "duration": 186}, {"note": 77, "velocity": 91, "duration": 240}, {"note": 75, "velocity": 86, "duration": 177}, {"note": 0, "velocity": 0, "duration": 63}, {"note": 73, "velocity": 88, "duration": 185}, {"note": 75, "velocity": 85, "duration": 441}, {"note": 73, "velocity": 88, "duration": 1680}, {"note": 0, "velocity": 0, "duration": 720}, {"note": 68, "velocity": 84, "duration": 167}, {"note": 0, "velocity": 0, "duration": 73}, {"note": 77, "velocity": 91, "duration": 204}, {"note": 75, "velocity": 95, "duration": 132}, {"note": 0, "velocity": 0, "duration": 108}, {"note": 73, "velocity": 90, "duration": 148}, {"note": 0, "velocity": 0, "duration": 92}, {"note": 77, "velocity": 91, "duration": 425}, {"note": 70, "velocity": 90, "duration": 597}, {"note": 0, "velocity": 0, "duration": 123}, {"note": 77, "velocity": 91, "duration": 193}, {"note": 75, "velocity": 93, "duration": 103}, {"note": 0, "velocity": 0, "duration": 137}, {"note": 73, "velocity": 90, "duration": 188}, {"note": 77, "velocity": 91, "duration": 308}, {"note": 0, "velocity": 0, "duration": 172}, {"note": 75, "velocity": 98, "duration": 548}, {"note": 0, "velocity": 0, "duration": 172}, {"note": 75, "velocity": 95, "duration": 242}, {"note": 73, "velocity": 85, "duration": 215}, {"note": 72, "velocity": 88, "duration": 198}, {"note": 75, "velocity": 98, "duration": 409}, {"note": 0, "velocity": 0, "duration": 71}, {"note": 73, "velocity": 91, "duration": 214}, {"note": 72, "velocity": 88, "duration": 198}, {"note": 75, "velocity": 95, "duration": 397}, {"note": 0, "velocity": 0, "duration": 83}, {"note": 80, "velocity": 86, "duration": 126}, {"note": 0, "velocity": 0, "duration": 114}, {"note": 80, "velocity": 90, "duration": 149}, {"note": 0, "velocity": 0, "duration": 91}, {"note": 75, "velocity": 91, "duration": 447}, {"note": 73, "velocity": 85, "duration": 516}, {"note": 73, "velocity": 76, "duration": 36}, {"note": 0, "velocity": 0, "duration": 204}, {"note": 73, "velocity": 86, "duration": 175}, {"note": 0, "velocity": 0, "duration": 65}, {"note": 72, "velocity": 88, "duration": 210}, {"note": 70, "velocity": 85, "duration": 187}, {"note": 73, "velocity": 88, "duration": 452}, {"note": 0, "velocity": 0, "duration": 508}, {"note": 73, "velocity": 85, "duration": 152}, {"note": 0, "velocity": 0, "duration": 88}, {"note": 73, "velocity": 89, "duration": 205}, {"note": 72, "velocity": 91, "duration": 218}, {"note": 70, "velocity": 86, "duration": 207}, {"note": 73, "velocity": 88, "duration": 634}, {"note": 0, "velocity": 0, "duration": 326}, {"note": 73, "velocity": 90, "duration": 186}, {"note": 73, "velocity": 91, "duration": 183}, {"note": 72, "velocity": 86, "duration": 177}, {"note": 0, "velocity": 0, "duration": 63}, {"note": 73, "velocity": 86, "duration": 126}, {"note": 0, "velocity": 0, "duration": 114}, {"note": 75, "velocity": 88, "duration": 185}, {"note": 78, "velocity": 85, "duration": 441}, {"note": 77, "velocity": 88, "duration": 157}, {"note": 0, "velocity": 0, "duration": 83}, {"note": 77, "velocity": 88, "duration": 415}, {"note": 0, "velocity": 0, "duration": 65}, {"note": 75, "velocity": 89, "duration": 175}, {"note": 0, "velocity": 0, "duration": 65}, {"note": 73, "velocity": 91, "duration": 150}, {"note": 0, "velocity": 0, "duration": 90}, {"note": 77, "velocity": 91, "duration": 813}, {"note": 0, "velocity": 0, "duration": 147}, {"note": 77, "velocity": 84, "duration": 167}, {"note": 0, "velocity": 0, "duration": 73}, {"note": 77, "velocity": 91, "duration": 204}, {"note": 75, "velocity": 95, "duration": 132}, {"note": 0, "velocity": 0, "duration": 108}, {"note": 73, "velocity": 90, "duration": 148}, {"note": 0, "velocity": 0, "duration": 92}, {"note": 77, "velocity": 91, "duration": 425}, {"note": 70, "velocity": 90, "duration": 597}, {"note": 0, "velocity": 0, "duration": 123}, {"note": 77, "velocity": 91, "duration": 193}, {"note": 75, "velocity": 93, "duration": 103}, {"note": 0, "velocity": 0, "duration": 137}, {"note": 73, "velocity": 90, "duration": 188}, {"note": 77, "velocity": 91, "duration": 308}, {"note": 0, "velocity": 0, "duration": 172}, {"note": 75, "velocity": 98, "duration": 548}, {"note": 0, "velocity": 0, "duration": 172}, {"note": 75, "velocity": 95, "duration": 242}, {"note": 73, "velocity": 85, "duration": 215}, {"note": 72, "velocity": 88, "duration": 198}, {"note": 75, "velocity": 98, "duration": 409}, {"note": 0, "velocity": 0, "duration": 71}, {"note": 73, "velocity": 91, "duration": 214}, {"note": 72, "velocity": 88, "duration": 198}, {"note": 75, "velocity": 95, "duration": 397}, {"note": 0, "velocity": 0, "duration": 83}, {"note": 80, "velocity": 86, "duration": 126}, {"note": 0, "velocity": 0, "duration": 114}, {"note": 80, "velocity": 90, "duration": 149}, {"note": 0, "velocity": 0, "duration": 91}, {"note": 75, "velocity": 91, "duration": 447}, {"note": 73, "velocity": 85, "duration": 480}, {"note": 68, "velocity": 76, "duration": 108}, {"note": 0, "velocity": 0, "duration": 132}, {"note": 80, "velocity": 86, "duration": 175}, {"note": 0, "velocity": 0, "duration": 65}, {"note": 80, "velocity": 88, "duration": 210}, {"note": 80, "velocity": 85, "duration": 187}, {"note": 80, "velocity": 85, "duration": 187}, {"note": 80, "velocity": 88, "duration": 452}, {"note": 78, "velocity": 85, "duration": 152}, {"note": 0, "velocity": 0, "duration": 88}, {"note": 78, "velocity": 89, "duration": 480}, {"note": 0, "velocity": 0, "duration": 240}, {"note": 73, "velocity": 91, "duration": 218}, {"note": 75, "velocity": 86, "duration": 207}, {"note": 77, "velocity": 88, "duration": 634}, {"note": 0, "velocity": 0, "duration": 86}, {"note": 78, "velocity": 90, "duration": 186}, {"note": 77, "velocity": 91, "duration": 240}, {"note": 75, "velocity": 86, "duration": 177}, {"note": 0, "velocity": 0, "duration": 63}, {"note": 73, "velocity": 88, "duration": 185}, {"note": 75, "velocity": 85, "duration": 441}, {"note": 73, "velocity": 88, "duration": 1680}]]