[[{"note": 70, "velocity": 87, "duration": 182}, {"note": 70, "velocity": 78, "duration": 416}, {"note": 0, "velocity": 0, "duration": 64}, {"note": 67, "velocity": 80, "duration": 220}, {"note": 65, "velocity": 80, "duration": 215}, {"note": 0, "velocity": 0, "duration": 145}, {"note": 70, "velocity": 78, "duration": 120}, {"note": 65, "velocity": 77, "duration": 223}, {"note": 63, "velocity": 77, "duration": 181}, {"note": 65, "velocity": 80, "duration": 188}, {"note": 65, "velocity": 80, "duration": 257}, {"note": 60, "velocity": 77, "duration": 240}, {"note": 58, "velocity": 73, "duration": 193}, {"note": 58, "velocity": 76, "duration": 828}, {"note": 0, "velocity": 0, "duration": 132}, {"note": 63, "velocity": 80, "duration": 209}, {"note": 63, "velocity": 78, "duration": 387}, {"note": 0, "velocity": 0, "duration": 93}, {"note": 63, "velocity": 76, "duration": 132}, {"note": 60, "velocity": 70, "duration": 93}, {"note": 63, "velocity": 79, "duration": 325}, {"note": 70, "velocity": 78, "duration": 73}, {"note": 70, "velocity": 78, "duration": 114}, {"note": 60, "velocity": 70, "duration": 105}, {"note": 63, "velocity": 77, "duration": 194}, {"note": 67, "velocity": 76, "duration": 190}, {"note": 65, "velocity": 71, "duration": 98}, {"note": 65, "velocity": 78, "duration": 120}, {"note": 65, "velocity": 79, "duration": 977}, {"note": 0, "velocity": 0, "duration": 463}, {"note": 70, "velocity": 78, "duration": 175}, {"note": 0, "velocity": 0, "duration": 65}, {"note": 70, "velocity": 78, "duration": 430}, {"note": 67, "velocity": 80, "duration": 188}, {"note": 72, "velocity": 77, "duration": 292}, {"note": 0, "velocity": 0, "duration": 68}, {"note": 72, "velocity": 77, "duration": 73}, {"note": 72, "velocity": 78, "duration": 170}, {"note": 0, "velocity": 0, "duration": 70}, {"note": 70, "velocity": 79, "duration": 169}, {"note": 0, "velocity": 0, "duration": 71}, {"note": 72, "velocity": 77, "duration": 168}, {"note": 0, "velocity": 0, "duration": 72}, {"note": 67, "velocity": 76, "duration": 201}, {"note": 67, "velocity": 77, "duration": 260}, {"note": 65, "velocity": 76, "duration": 196}, {"note": 65, "velocity": 80, "duration": 210}, {"note": 63, "velocity": 76, "duration": 120}, {"note": 62, "velocity": 71, "duration": 136}, {"note": 60, "velocity": 77, "duration": 417}, {"note": 0, "velocity": 0, "duration": 63}, {"note": 65, "velocity": 78, "duration": 360}, {"note": 65, "velocity": 80, "duration": 49}, {"note": 0, "velocity": 0, "duration": 71}, {"note": 65, "velocity": 78, "duration": 183}, {"note": 65, "velocity": 78, "duration": 180}, {"note": 65, "velocity": 80, "duration": 192}, {"note": 70, "velocity": 81, "duration": 623}, {"note": 0, "velocity": 0, "duration": 97}, {"note": 60, "velocity": 78, "duration": 240}, {"note": 58, "velocity": 73, "duration": 1329}, {"note": 0, "velocity": 0, "duration": 351}, {"note": 67, "velocity": 77, "duration": 348}, {"note": 65, "velocity": 78, "duration": 103}, {"note": 67, "velocity": 71, "duration": 195}, {"note": 65, "velocity": 78, "duration": 207}, {"note": 67, "velocity": 77, "duration": 490}, {"note": 0, "velocity": 0, "duration": 470}, {"note": 60, "velocity": 82, "duration": 219}, {"note": 67, "velocity": 75, "duration": 550}, {"note": 60, "velocity": 76, "duration": 103}, {"note": 63, "velocity": 76, "duration": 191}, {"note": 63, "velocity": 77, "duration": 605}, {"note": 0, "velocity": 0, "duration": 115}, {"note": 65, "velocity": 76, "duration": 334}, {"note": 63, "velocity": 76, "duration": 73}, {"note": 65, "velocity": 81, "duration": 195}, {"note": 65, "velocity": 78, "duration": 237}, {"note": 63, "velocity": 77, "duration": 208}, {"note": 70, "velocity": 78, "duration": 422}, {"note": 67, "velocity": 74, "duration": 248}, {"note": 70, "velocity": 77, "duration": 227}, {"note": 65, "velocity": 77, "duration": 1420}, {"note": 0, "velocity": 0, "duration": 260}, {"note": 67, "velocity": 76, "duration": 430}, {"note": 67, "velocity": 78, "duration": 355}, {"note": 0, "velocity": 0, "duration": 125}, {"note": 67, "velocity": 75, "duration": 188}, {"note": 67, "velocity": 77, "duration": 419}, {"note": 0, "velocity": 0, "duration": 61}, {"note": 67, "velocity": 81, "duration": 181}, {"note": 67, "velocity": 75, "duration": 217}, {"note": 70, "velocity": 77, "duration": 454}, {"note": 62, "velocity": 79, "duration": 230}, {"note": 60, "velocity": 77, "duration": 240}, {"note": 58, "velocity": 72, "duration": 261}, {"note": 60, "velocity": 76, "duration": 363}, {"note": 0, "velocity": 0, "duration": 357}, {"note": 60, "velocity": 82, "duration": 198}, {"note": 60, "velocity": 78, "duration": 182}, {"note": 60, "velocity": 80, "duration": 176}, {"note": 0, "velocity": 0, "duration": 64}, {"note": 65, "velocity": 79, "duration": 401}, {"note": 0, "velocity": 0, "duration": 79}, {"note": 65, "velocity": 79, "duration": 441}, {"note": 58, "velocity": 77, "duration": 181}, {"note": 58, "velocity": 78, "duration": 240}, {"note": 58, "velocity": 78, "duration": 219}, {"note": 60, "velocity": 82, "duration": 173}, {"note": 0, "velocity": 0, "duration": 67}, {"note": 58, "velocity": 78, "duration": 747}, {"note": 0, "velocity": 0, "duration": 213}, {"note": 72, "velocity": 79, "duration": 236}, {"note": 70, "velocity": 82, "duration": 472}, {"note": 67, "velocity": 77, "duration": 116}, {"note": 65, "velocity": 80, "duration": 67}, {"note": 65, "velocity": 80, "duration": 240}, {"note": 63, "velocity": 76, "duration": 626}, {"note": 0, "velocity": 0, "duration": 94}, {"note": 72, "velocity": 78, "duration": 153}, {"note": 0, "velocity": 0, "duration": 87}, {"note": 70, "velocity": 71, "duration": 473}, {"note": 67, "velocity": 79, "duration": 119}, {"note": 65, "velocity": 77, "duration": 80}, {"note": 65, "velocity": 82, "duration": 223}, {"note": 63, "velocity": 77, "duration": 658}, {"note": 0, "velocity": 0, "duration": 302}, {"note": 65, "velocity": 81, "duration": 178}, {"note": 0, "velocity": 0, "duration": 62}, {"note": 65, "velocity": 79, "duration": 167}, {"note": 0, "velocity": 0, "duration": 73}, {"note": 65, "velocity": 82, "duration": 156}, {"note": 0, "velocity": 0, "duration": 84}, {"note": 70, "velocity": 76, "duration": 342}, {"note": 67, "velocity": 77, "duration": 102}, {"note": 70, "velocity": 79, "duration": 381}, {"note": 0, "velocity": 0, "duration": 99}, {"note": 63, "velocity": 77, "duration": 208}, {"note": 63, "velocity": 78, "duration": 252}, {"note": 60, "velocity": 75, "duration": 218}, {"note": 63, "velocity": 77, "duration": 80}, {"note": 63, "velocity": 76, "duration": 96}, {"note": 65, "velocity": 77, "duration": 227}, {"note": 67, "velocity": 67, "duration": 249}, {"note": 65, "velocity": 79, "duration": 408}, {"note": 0, "velocity": 0, "duration": 312}, {"note": 65, "velocity": 82, "duration": 168}, {"note": 0, "velocity": 0, "duration": 72}, {"note": 65, "velocity": 77, "duration": 163}, {"note": 0, "velocity": 0, "duration": 77}, {"note": 65, "velocity": 79, "duration": 168}, {"note": 0, "velocity": 0, "duration": 72}, {"note": 70, "velocity": 74, "duration": 330}, {"note": 67, "velocity": 76, "duration": 102}, {"note": 70, "velocity": 79, "duration": 392}, {"note": 0, "velocity": 0, "duration": 88}, {"note": 67, "velocity": 78, "duration": 212}, {"note": 75, "velocity": 83, "duration": 198}, {"note": 72, "velocity": 77, "duration": 236}, {"note": 70, "velocity": 76, "duration": 58}, {"note": 0, "velocity": 0, "duration": 62}, {"note": 67, "velocity": 76, "duration": 81}, {"note": 70, "velocity": 80, "duration": 228}, {"note": 65, "velocity": 80, "duration": 530}, {"note": 0, "velocity": 0, "duration": 430}, {"note": 67, "velocity": 79, "duration": 240}, {"note": 67, "velocity": 77, "duration": 154}, {"note": 0, "velocity": 0, "duration": 86}, {"note": 67, "velocity": 81, "duration": 172}, {"note": 0, "velocity": 0, "duration": 68}, {"note": 67, "velocity": 78, "duration": 175}, {"note": 0, "velocity": 0, "duration": 65}, {"note": 70, "velocity": 80, "duration": 201}, {"note": 58, "velocity": 77, "duration": 470}, {"note": 60, "velocity": 78, "duration": 265}, {"note": 0, "velocity": 0, "duration": 95}, {"note": 60, "velocity": 75, "duration": 85}, {"note": 60, "velocity": 76, "duration": 168}, {"note": 0, "velocity": 0, "duration": 72}, {"note": 60, "velocity": 76, "duration": 150}, {"note": 0, "velocity": 0, "duration": 90}, {"note": 60, "velocity": 77, "duration": 274}, {"note": 0, "velocity": 0, "duration": 86}, {"note": 60, "velocity": 76, "duration": 90}, {"note": 60, "velocity": 79, "duration": 195}, {"note": 60, "velocity": 76, "duration": 222}, {"note": 60, "velocity": 68, "duration": 224}, {"note": 65, "velocity": 83, "duration": 291}, {"note": 0, "velocity": 0, "duration": 69}, {"note": 60, "velocity": 80, "duration": 165}, {"note": 0, "velocity": 0, "duration": 75}, {"note": 60, "velocity": 72, "duration": 112}, {"note": 58, "velocity": 77, "duration": 896}, {"note": 0, "velocity": 0, "duration": 15462}, {"note": 70, "velocity": 87, "duration": 182}, {"note": 70, "velocity": 78, "duration": 416}, {"note": 0, "velocity": 0, "duration": 64}, {"note": 67, "velocity": 80, "duration": 220}, {"note": 65, "velocity": 80, "duration": 215}, {"note": 0, "velocity": 0, "duration": 145}, {"note": 70, "velocity": 78, "duration": 120}, {"note": 65, "velocity": 77, "duration": 223}, {"note": 63, "velocity": 77, "duration": 181}, {"note": 65, "velocity": 80, "duration": 188}, {"note": 65, "velocity": 80, "duration": 257}, {"note": 60, "velocity": 77, "duration": 240}, {"note": 58, "velocity": 73, "duration": 193}, {"note": 58, "velocity": 76, "duration": 828}, {"note": 0, "velocity": 0, "duration": 132}, {"note": 63, "velocity": 80, "duration": 209}, {"note": 63, "velocity": 78, "duration": 387}, {"note": 0, "velocity": 0, "duration": 93}, {"note": 63, "velocity": 76, "duration": 136}, {"note": 60, "velocity": 71, "duration": 120}, {"note": 63, "velocity": 79, "duration": 325}, {"note": 70, "velocity": 78, "duration": 73}, {"note": 70, "velocity": 78, "duration": 196}, {"note": 60, "velocity": 75, "duration": 107}, {"note": 63, "velocity": 77, "duration": 194}, {"note": 67, "velocity": 76, "duration": 190}, {"note": 65, "velocity": 75, "duration": 85}, {"note": 65, "velocity": 78, "duration": 120}, {"note": 65, "velocity": 79, "duration": 977}, {"note": 0, "velocity": 0, "duration": 463}, {"note": 70, "velocity": 78, "duration": 175}, {"note": 0, "velocity": 0, "duration": 65}, {"note": 70, "velocity": 78, "duration": 430}, {"note": 67, "velocity": 80, "duration": 188}, {"note": 72, "velocity": 77, "duration": 292}, {"note": 0, "velocity": 0, "duration": 68}, {"note": 72, "velocity": 77, "duration": 73}, {"note": 72, "velocity": 78, "duration": 170}, {"note": 0, "velocity": 0, "duration": 70}, {"note": 70, "velocity": 79, "duration": 169}, {"note": 0, "velocity": 0, "duration": 71}, {"note": 72, "velocity": 77, "duration": 168}, {"note": 0, "velocity": 0, "duration": 72}, {"note": 67, "velocity": 76, "duration": 201}, {"note": 70, "velocity": 74, "duration": 55}, {"note": 67, "velocity": 77, "duration": 115}, {"note": 0, "velocity": 0, "duration": 64}, {"note": 70, "velocity": 74, "duration": 60}, {"note": 65, "velocity": 73, "duration": 196}, {"note": 65, "velocity": 80, "duration": 210}, {"note": 63, "velocity": 76, "duration": 120}, {"note": 62, "velocity": 71, "duration": 136}, {"note": 60, "velocity": 77, "duration": 417}, {"note": 0, "velocity": 0, "duration": 63}, {"note": 65, "velocity": 78, "duration": 360}, {"note": 65, "velocity": 80, "duration": 49}, {"note": 0, "velocity": 0, "duration": 71}, {"note": 65, "velocity": 78, "duration": 183}, {"note": 65, "velocity": 78, "duration": 180}, {"note": 65, "velocity": 80, "duration": 192}, {"note": 67, "velocity": 76, "duration": 86}, {"note": 70, "velocity": 81, "duration": 367}, {"note": 60, "velocity": 84, "duration": 278}, {"note": 60, "velocity": 78, "duration": 28}, {"note": 0, "velocity": 0, "duration": 212}, {"note": 58, "velocity": 73, "duration": 1329}, {"note": 0, "velocity": 0, "duration": 351}, {"note": 67, "velocity": 77, "duration": 348}, {"note": 65, "velocity": 78, "duration": 103}, {"note": 67, "velocity": 71, "duration": 195}, {"note": 65, "velocity": 78, "duration": 207}, {"note": 67, "velocity": 77, "duration": 490}, {"note": 0, "velocity": 0, "duration": 470}, {"note": 60, "velocity": 82, "duration": 219}, {"note": 67, "velocity": 75, "duration": 550}, {"note": 60, "velocity": 79, "duration": 137}, {"note": 60, "velocity": 76, "duration": 103}, {"note": 63, "velocity": 76, "duration": 191}, {"note": 63, "velocity": 77, "duration": 605}, {"note": 0, "velocity": 0, "duration": 115}, {"note": 65, "velocity": 76, "duration": 334}, {"note": 65, "velocity": 76, "duration": 73}, {"note": 65, "velocity": 81, "duration": 195}, {"note": 65, "velocity": 78, "duration": 94}, {"note": 65, "velocity": 74, "duration": 167}, {"note": 63, "velocity": 77, "duration": 208}, {"note": 70, "velocity": 78, "duration": 422}, {"note": 67, "velocity": 74, "duration": 248}, {"note": 70, "velocity": 77, "duration": 227}, {"note": 65, "velocity": 77, "duration": 1420}, {"note": 0, "velocity": 0, "duration": 260}, {"note": 67, "velocity": 76, "duration": 430}, {"note": 67, "velocity": 78, "duration": 355}, {"note": 0, "velocity": 0, "duration": 125}, {"note": 67, "velocity": 75, "duration": 188}, {"note": 67, "velocity": 77, "duration": 419}, {"note": 0, "velocity": 0, "duration": 301}, {"note": 67, "velocity": 75, "duration": 217}, {"note": 70, "velocity": 77, "duration": 454}, {"note": 62, "velocity": 79, "duration": 230}, {"note": 60, "velocity": 77, "duration": 240}, {"note": 58, "velocity": 72, "duration": 261}, {"note": 60, "velocity": 76, "duration": 363}, {"note": 0, "velocity": 0, "duration": 357}, {"note": 60, "velocity": 82, "duration": 198}, {"note": 60, "velocity": 78, "duration": 182}, {"note": 60, "velocity": 80, "duration": 176}, {"note": 0, "velocity": 0, "duration": 64}, {"note": 65, "velocity": 79, "duration": 401}, {"note": 0, "velocity": 0, "duration": 79}, {"note": 65, "velocity": 79, "duration": 441}, {"note": 58, "velocity": 77, "duration": 181}, {"note": 58, "velocity": 78, "duration": 240}, {"note": 58, "velocity": 78, "duration": 219}, {"note": 60, "velocity": 82, "duration": 173}, {"note": 0, "velocity": 0, "duration": 67}, {"note": 58, "velocity": 78, "duration": 747}, {"note": 0, "velocity": 0, "duration": 213}, {"note": 72, "velocity": 79, "duration": 236}, {"note": 70, "velocity": 82, "duration": 472}, {"note": 67, "velocity": 77, "duration": 116}, {"note": 65, "velocity": 80, "duration": 67}, {"note": 65, "velocity": 80, "duration": 240}, {"note": 63, "velocity": 76, "duration": 545}, {"note": 60, "velocity": 82, "duration": 122}, {"note": 58, "velocity": 82, "duration": 86}, {"note": 72, "velocity": 78, "duration": 153}, {"note": 0, "velocity": 0, "duration": 87}, {"note": 70, "velocity": 71, "duration": 473}, {"note": 67, "velocity": 79, "duration": 119}, {"note": 65, "velocity": 77, "duration": 80}, {"note": 65, "velocity": 82, "duration": 223}, {"note": 63, "velocity": 77, "duration": 658}, {"note": 0, "velocity": 0, "duration": 302}, {"note": 65, "velocity": 81, "duration": 178}, {"note": 0, "velocity": 0, "duration": 62}, {"note": 65, "velocity": 79, "duration": 167}, {"note": 0, "velocity": 0, "duration": 73}, {"note": 65, "velocity": 82, "duration": 156}, {"note": 0, "velocity": 0, "duration": 84}, {"note": 70, "velocity": 76, "duration": 342}, {"note": 67, "velocity": 77, "duration": 102}, {"note": 70, "velocity": 79, "duration": 381}, {"note": 0, "velocity": 0, "duration": 99}, {"note": 63, "velocity": 77, "duration": 208}, {"note": 63, "velocity": 78, "duration": 252}, {"note": 60, "velocity": 75, "duration": 218}, {"note": 63, "velocity": 77, "duration": 80}, {"note": 63, "velocity": 76, "duration": 96}, {"note": 65, "velocity": 77, "duration": 227}, {"note": 67, "velocity": 67, "duration": 142}, {"note": 65, "velocity": 79, "duration": 523}, {"note": 0, "velocity": 0, "duration": 312}, {"note": 65, "velocity": 82, "duration": 168}, {"note": 0, "velocity": 0, "duration": 72}, {"note": 65, "velocity": 77, "duration": 163}, {"note": 0, "velocity": 0, "duration": 77}, {"note": 65, "velocity": 79, "duration": 168}, {"note": 0, "velocity": 0, "duration": 72}, {"note": 70, "velocity": 74, "duration": 330}, {"note": 67, "velocity": 76, "duration": 102}, {"note": 70, "velocity": 79, "duration": 392}, {"note": 0, "velocity": 0, "duration": 88}, {"note": 67, "velocity": 78, "duration": 212}, {"note": 75, "velocity": 83, "duration": 198}, {"note": 72, "velocity": 77, "duration": 236}, {"note": 70, "velocity": 76, "duration": 58}, {"note": 0, "velocity": 0, "duration": 62}, {"note": 70, "velocity": 76, "duration": 81}, {"note": 70, "velocity": 80, "duration": 228}, {"note": 65, "velocity": 80, "duration": 530}, {"note": 0, "velocity": 0, "duration": 430}, {"note": 67, "velocity": 79, "duration": 240}, {"note": 67, "velocity": 77, "duration": 154}, {"note": 0, "velocity": 0, "duration": 86}, {"note": 67, "velocity": 81, "duration": 172}, {"note": 0, "velocity": 0, "duration": 68}, {"note": 67, "velocity": 78, "duration": 175}, {"note": 0, "velocity": 0, "duration": 65}, {"note": 70, "velocity": 80, "duration": 201}, {"note": 58, "velocity": 77, "duration": 470}, {"note": 60, "velocity": 78, "duration": 265}, {"note": 0, "velocity": 0, "duration": 95}, {"note": 60, "velocity": 75, "duration": 85}, {"note": 60, "velocity": 76, "duration": 168}, {"note": 0, "velocity": 0, "duration": 72}, {"note": 60, "velocity": 76, "duration": 150}, {"note": 0, "velocity": 0, "duration": 90}, {"note": 60, "velocity": 77, "duration": 274}, {"note": 0, "velocity": 0, "duration": 86}, {"note": 60, "velocity": 76, "duration": 90}, {"note": 60, "velocity": 79, "duration": 195}, {"note": 60, "velocity": 76, "duration": 222}, {"note": 60, "velocity": 68, "duration": 224}, {"note": 65, "velocity": 83, "duration": 291}, {"note": 0, "velocity": 0, "duration": 69}, {"note": 60, "velocity": 80, "duration": 165}, {"note": 0, "velocity": 0, "duration": 75}, {"note": 60, "velocity": 72, "duration": 112}, {"note": 60, "velocity": 77, "duration": 144}, {"note": 0, "velocity": 0, "duration": 100}, {"note": 58, "velocity": 77, "duration": 652}, {"note": 0, "velocity": 0, "duration": 64}, {"note": 72, "velocity": 79, "duration": 236}, {"note": 70, "velocity": 82, "duration": 472}, {"note": 67, "velocity": 77, "duration": 116}, {"note": 65, "velocity": 80, "duration": 67}, {"note": 65, "velocity": 80, "duration": 240}, {"note": 63, "velocity": 76, "duration": 454}, {"note": 60, "velocity": 85, "duration": 139}, {"note": 58, "velocity": 85, "duration": 74}, {"note": 0, "velocity": 0, "duration": 71}, {"note": 72, "velocity": 78, "duration": 153}, {"note": 0, "velocity": 0, "duration": 87}, {"note": 70, "velocity": 71, "duration": 473}, {"note": 67, "velocity": 79, "duration": 119}, {"note": 65, "velocity": 77, "duration": 80}, {"note": 65, "velocity": 82, "duration": 223}, {"note": 63, "velocity": 77, "duration": 658}, {"note": 65, "velocity": 92, "duration": 1848}, {"note": 0, "velocity": 0, "duration": 93}, {"note": 70, "velocity": 82, "duration": 3428}]]