[[{"note": 66, "velocity": 88, "duration": 181}, {"note": 66, "velocity": 88, "duration": 172}, {"note": 0, "velocity": 0, "duration": 68}, {"note": 66, "velocity": 87, "duration": 168}, {"note": 0, "velocity": 0, "duration": 72}, {"note": 68, "velocity": 87, "duration": 189}, {"note": 71, "velocity": 87, "duration": 451}, {"note": 0, "velocity": 0, "duration": 509}, {"note": 73, "velocity": 89, "duration": 175}, {"note": 0, "velocity": 0, "duration": 65}, {"note": 75, "velocity": 89, "duration": 192}, {"note": 73, "velocity": 93, "duration": 205}, {"note": 71, "velocity": 90, "duration": 229}, {"note": 68, "velocity": 87, "duration": 624}, {"note": 0, "velocity": 0, "duration": 96}, {"note": 75, "velocity": 87, "duration": 198}, {"note": 73, "velocity": 90, "duration": 178}, {"note": 0, "velocity": 0, "duration": 62}, {"note": 75, "velocity": 91, "duration": 433}, {"note": 73, "velocity": 87, "duration": 82}, {"note": 75, "velocity": 86, "duration": 83}, {"note": 73, "velocity": 91, "duration": 198}, {"note": 71, "velocity": 89, "duration": 248}, {"note": 68, "velocity": 88, "duration": 229}, {"note": 78, "velocity": 88, "duration": 445}, {"note": 75, "velocity": 85, "duration": 990}, {"note": 0, "velocity": 0, "duration": 690}, {"note": 66, "velocity": 88, "duration": 181}, {"note": 66, "velocity": 88, "duration": 172}, {"note": 0, "velocity": 0, "duration": 68}, {"note": 66, "velocity": 87, "duration": 168}, {"note": 0, "velocity": 0, "duration": 72}, {"note": 68, "velocity": 87, "duration": 189}, {"note": 71, "velocity": 87, "duration": 451}, {"note": 0, "velocity": 0, "duration": 509}, {"note": 73, "velocity": 89, "duration": 175}, {"note": 0, "velocity": 0, "duration": 65}, {"note": 75, "velocity": 89, "duration": 192}, {"note": 73, "velocity": 93, "duration": 205}, {"note": 71, "velocity": 90, "duration": 229}, {"note": 68, "velocity": 87, "duration": 624}, {"note": 0, "velocity": 0, "duration": 96}, {"note": 75, "velocity": 87, "duration": 198}, {"note": 73, "velocity": 90, "duration": 178}, {"note": 0, "velocity": 0, "duration": 62}, {"note": 75, "velocity": 91, "duration": 433}, {"note": 73, "velocity": 87, "duration": 82}, {"note": 75, "velocity": 86, "duration": 83}, {"note": 73, "velocity": 91, "duration": 198}, {"note": 71, "velocity": 89, "duration": 480}, {"note": 68, "velocity": 88, "duration": 229}, {"note": 71, "velocity": 88, "duration": 240}, {"note": 71, "velocity": 85, "duration": 990}, {"note": 0, "velocity": 0, "duration": 690}, {"note": 73, "velocity": 91, "duration": 179}, {"note": 0, "velocity": 0, "duration": 61}, {"note": 75, "velocity": 90, "duration": 230}, {"note": 73, "velocity": 93, "duration": 212}, {"note": 71, "velocity": 87, "duration": 238}, {"note": 75, "velocity": 90, "duration": 810}, {"note": 0, "velocity": 0, "duration": 150}, {"note": 73, "velocity": 88, "duration": 174}, {"note": 0, "velocity": 0, "duration": 66}, {"note": 75, "velocity": 86, "duration": 188}, {"note": 73, "velocity": 91, "duration": 188}, {"note": 71, "velocity": 93, "duration": 243}, {"note": 68, "velocity": 85, "duration": 639}, {"note": 0, "velocity": 0, "duration": 81}, {"note": 75, "velocity": 89, "duration": 198}, {"note": 73, "velocity": 98, "duration": 194}, {"note": 75, "velocity": 89, "duration": 674}, {"note": 73, "velocity": 93, "duration": 166}, {"note": 0, "velocity": 0, "duration": 74}, {"note": 71, "velocity": 87, "duration": 461}, {"note": 73, "velocity": 93, "duration": 240}, {"note": 75, "velocity": 82, "duration": 240}, {"note": 73, "velocity": 92, "duration": 1091}, {"note": 0, "velocity": 0, "duration": 589}, {"note": 73, "velocity": 90, "duration": 194}, {"note": 75, "velocity": 88, "duration": 194}, {"note": 73, "velocity": 94, "duration": 166}, {"note": 0, "velocity": 0, "duration": 74}, {"note": 71, "velocity": 88, "duration": 171}, {"note": 0, "velocity": 0, "duration": 69}, {"note": 75, "velocity": 89, "duration": 698}, {"note": 0, "velocity": 0, "duration": 262}, {"note": 73, "velocity": 89, "duration": 175}, {"note": 0, "velocity": 0, "duration": 65}, {"note": 75, "velocity": 89, "duration": 215}, {"note": 73, "velocity": 91, "duration": 193}, {"note": 71, "velocity": 86, "duration": 254}, {"note": 68, "velocity": 84, "duration": 678}, {"note": 75, "velocity": 89, "duration": 194}, {"note": 73, "velocity": 91, "duration": 197}, {"note": 75, "velocity": 90, "duration": 399}, {"note": 0, "velocity": 0, "duration": 81}, {"note": 75, "velocity": 87, "duration": 78}, {"note": 75, "velocity": 89, "duration": 94}, {"note": 73, "velocity": 92, "duration": 187}, {"note": 71, "velocity": 89, "duration": 208}, {"note": 73, "velocity": 91, "duration": 163}, {"note": 0, "velocity": 0, "duration": 77}, {"note": 75, "velocity": 88, "duration": 175}, {"note": 0, "velocity": 0, "duration": 65}, {"note": 78, "velocity": 85, "duration": 1424}, {"note": 75, "velocity": 94, "duration": 212}, {"note": 78, "velocity": 91, "duration": 214}, {"note": 80, "velocity": 88, "duration": 478}, {"note": 83, "velocity": 90, "duration": 519}, {"note": 80, "velocity": 88, "duration": 409}, {"note": 0, "velocity": 0, "duration": 71}, {"note": 80, "velocity": 91, "duration": 226}, {"note": 75, "velocity": 83, "duration": 216}, {"note": 78, "velocity": 88, "duration": 200}, {"note": 78, "velocity": 88, "duration": 172}, {"note": 0, "velocity": 0, "duration": 68}, {"note": 78, "velocity": 88, "duration": 156}, {"note": 0, "velocity": 0, "duration": 84}, {"note": 80, "velocity": 88, "duration": 228}, {"note": 75, "velocity": 91, "duration": 453}, {"note": 75, "velocity": 89, "duration": 206}, {"note": 78, "velocity": 90, "duration": 187}, {"note": 80, "velocity": 87, "duration": 170}, {"note": 0, "velocity": 0, "duration": 70}, {"note": 80, "velocity": 83, "duration": 176}, {"note": 0, "velocity": 0, "duration": 64}, {"note": 80, "velocity": 86, "duration": 209}, {"note": 83, "velocity": 86, "duration": 203}, {"note": 80, "velocity": 89, "duration": 169}, {"note": 0, "velocity": 0, "duration": 71}, {"note": 78, "velocity": 89, "duration": 185}, {"note": 75, "velocity": 91, "duration": 179}, {"note": 0, "velocity": 0, "duration": 61}, {"note": 73, "velocity": 94, "duration": 227}, {"note": 78, "velocity": 87, "duration": 232}, {"note": 75, "velocity": 84, "duration": 1013}, {"note": 0, "velocity": 0, "duration": 427}, {"note": 75, "velocity": 91, "duration": 97}, {"note": 73, "velocity": 88, "duration": 107}, {"note": 75, "velocity": 93, "duration": 153}, {"note": 0, "velocity": 0, "duration": 87}, {"note": 79, "velocity": 76, "duration": 159}, {"note": 0, "velocity": 0, "duration": 321}, {"note": 79, "velocity": 94, "duration": 168}, {"note": 0, "velocity": 0, "duration": 72}, {"note": 80, "velocity": 88, "duration": 169}, {"note": 0, "velocity": 0, "duration": 71}, {"note": 82, "velocity": 89, "duration": 356}, {"note": 0, "velocity": 0, "duration": 124}, {"note": 83, "velocity": 93, "duration": 327}, {"note": 0, "velocity": 0, "duration": 153}, {"note": 82, "velocity": 88, "duration": 391}, {"note": 0, "velocity": 0, "duration": 89}, {"note": 80, "velocity": 88, "duration": 361}, {"note": 0, "velocity": 0, "duration": 119}, {"note": 80, "velocity": 93, "duration": 170}, {"note": 0, "velocity": 0, "duration": 70}, {"note": 83, "velocity": 92, "duration": 189}, {"note": 80, "velocity": 93, "duration": 433}, {"note": 0, "velocity": 0, "duration": 287}, {"note": 83, "velocity": 93, "duration": 179}, {"note": 0, "velocity": 0, "duration": 61}, {"note": 80, "velocity": 93, "duration": 150}, {"note": 0, "velocity": 0, "duration": 90}, {"note": 80, "velocity": 91, "duration": 327}, {"note": 0, "velocity": 0, "duration": 153}, {"note": 75, "velocity": 89, "duration": 157}, {"note": 0, "velocity": 0, "duration": 83}, {"note": 75, "velocity": 89, "duration": 457}, {"note": 73, "velocity": 91, "duration": 1025}, {"note": 0, "velocity": 0, "duration": 175}, {"note": 75, "velocity": 94, "duration": 212}, {"note": 78, "velocity": 91, "duration": 214}, {"note": 80, "velocity": 88, "duration": 478}, {"note": 83, "velocity": 90, "duration": 519}, {"note": 80, "velocity": 88, "duration": 409}, {"note": 0, "velocity": 0, "duration": 71}, {"note": 80, "velocity": 91, "duration": 226}, {"note": 75, "velocity": 83, "duration": 216}, {"note": 78, "velocity": 88, "duration": 200}, {"note": 78, "velocity": 88, "duration": 172}, {"note": 0, "velocity": 0, "duration": 68}, {"note": 78, "velocity": 88, "duration": 156}, {"note": 0, "velocity": 0, "duration": 84}, {"note": 80, "velocity": 88, "duration": 228}, {"note": 75, "velocity": 91, "duration": 453}, {"note": 75, "velocity": 89, "duration": 206}, {"note": 78, "velocity": 90, "duration": 187}, {"note": 80, "velocity": 87, "duration": 170}, {"note": 0, "velocity": 0, "duration": 70}, {"note": 80, "velocity": 83, "duration": 176}, {"note": 0, "velocity": 0, "duration": 64}, {"note": 80, "velocity": 86, "duration": 209}, {"note": 83, "velocity": 86, "duration": 203}, {"note": 80, "velocity": 89, "duration": 169}, {"note": 0, "velocity": 0, "duration": 71}, {"note": 78, "velocity": 89, "duration": 185}, {"note": 75, "velocity": 91, "duration": 179}, {"note": 0, "velocity": 0, "duration": 61}, {"note": 73, "velocity": 94, "duration": 227}, {"note": 78, "velocity": 87, "duration": 232}, {"note": 75, "velocity": 84, "duration": 1013}, {"note": 0, "velocity": 0, "duration": 427}, {"note": 75, "velocity": 91, "duration": 97}, {"note": 73, "velocity": 88, "duration": 107}, {"note": 75, "velocity": 93, "duration": 153}, {"note": 0, "velocity": 0, "duration": 87}, {"note": 79, "velocity": 76, "duration": 240}, {"note": 0, "velocity": 0, "duration": 240}, {"note": 79, "velocity": 94, "duration": 168}, {"note": 0, "velocity": 0, "duration": 72}, {"note": 80, "velocity": 88, "duration": 169}, {"note": 0, "velocity": 0, "duration": 71}, {"note": 82, "velocity": 89, "duration": 356}, {"note": 0, "velocity": 0, "duration": 124}, {"note": 83, "velocity": 93, "duration": 327}, {"note": 0, "velocity": 0, "duration": 153}, {"note": 82, "velocity": 88, "duration": 391}, {"note": 0, "velocity": 0, "duration": 89}, {"note": 80, "velocity": 88, "duration": 361}, {"note": 0, "velocity": 0, "duration": 119}, {"note": 80, "velocity": 93, "duration": 170}, {"note": 0, "velocity": 0, "duration": 70}, {"note": 83, "velocity": 92, "duration": 189}, {"note": 80, "velocity": 93, "duration": 433}, {"note": 80, "velocity": 85, "duration": 266}, {"note": 75, "velocity": 88, "duration": 216}, {"note": 73, "velocity": 90, "duration": 438}, {"note": 75, "velocity": 88, "duration": 171}, {"note": 0, "velocity": 0, "duration": 69}, {"note": 73, "velocity": 89, "duration": 198}, {"note": 68, "velocity": 88, "duration": 412}, {"note": 0, "velocity": 0, "duration": 68}, {"note": 71, "velocity": 88, "duration": 1449}, {"note": 0, "velocity": 0, "duration": 15591}, {"note": 66, "velocity": 88, "duration": 181}, {"note": 66, "velocity": 88, "duration": 172}, {"note": 0, "velocity": 0, "duration": 68}, {"note": 66, "velocity": 87, "duration": 168}, {"note": 0, "velocity": 0, "duration": 72}, {"note": 68, "velocity": 87, "duration": 189}, {"note": 71, "velocity": 87, "duration": 451}, {"note": 0, "velocity": 0, "duration": 509}, {"note": 73, "velocity": 89, "duration": 175}, {"note": 0, "velocity": 0, "duration": 65}, {"note": 75, "velocity": 89, "duration": 192}, {"note": 73, "velocity": 93, "duration": 205}, {"note": 71, "velocity": 90, "duration": 229}, {"note": 68, "velocity": 87, "duration": 624}, {"note": 0, "velocity": 0, "duration": 96}, {"note": 75, "velocity": 87, "duration": 198}, {"note": 73, "velocity": 90, "duration": 178}, {"note": 0, "velocity": 0, "duration": 62}, {"note": 75, "velocity": 91, "duration": 433}, {"note": 73, "velocity": 87, "duration": 82}, {"note": 75, "velocity": 86, "duration": 83}, {"note": 73, "velocity": 91, "duration": 198}, {"note": 71, "velocity": 89, "duration": 248}, {"note": 68, "velocity": 88, "duration": 229}, {"note": 78, "velocity": 88, "duration": 445}, {"note": 75, "velocity": 85, "duration": 990}, {"note": 0, "velocity": 0, "duration": 690}, {"note": 66, "velocity": 88, "duration": 181}, {"note": 66, "velocity": 88, "duration": 172}, {"note": 0, "velocity": 0, "duration": 68}, {"note": 66, "velocity": 87, "duration": 168}, {"note": 0, "velocity": 0, "duration": 72}, {"note": 68, "velocity": 87, "duration": 189}, {"note": 71, "velocity": 87, "duration": 451}, {"note": 0, "velocity": 0, "duration": 509}, {"note": 73, "velocity": 89, "duration": 175}, {"note": 0, "velocity": 0, "duration": 65}, {"note": 75, "velocity": 89, "duration": 192}, {"note": 73, "velocity": 93, "duration": 205}, {"note": 71, "velocity": 90, "duration": 229}, {"note": 68, "velocity": 87, "duration": 624}, {"note": 0, "velocity": 0, "duration": 96}, {"note": 75, "velocity": 87, "duration": 198}, {"note": 73, "velocity": 90, "duration": 178}, {"note": 0, "velocity": 0, "duration": 62}, {"note": 75, "velocity": 91, "duration": 433}, {"note": 73, "velocity": 87, "duration": 82}, {"note": 75, "velocity": 86, "duration": 83}, {"note": 73, "velocity": 91, "duration": 198}, {"note": 71, "velocity": 89, "duration": 480}, {"note": 68, "velocity": 88, "duration": 229}, {"note": 71, "velocity": 88, "duration": 240}, {"note": 71, "velocity": 85, "duration": 990}, {"note": 0, "velocity": 0, "duration": 690}, {"note": 73, "velocity": 91, "duration": 179}, {"note": 0, "velocity": 0, "duration": 61}, {"note": 75, "velocity": 90, "duration": 230}, {"note": 73, "velocity": 93, "duration": 212}, {"note": 71, "velocity": 87, "duration": 238}, {"note": 75, "velocity": 90, "duration": 810}, {"note": 0, "velocity": 0, "duration": 150}, {"note": 73, "velocity": 88, "duration": 174}, {"note": 0, "velocity": 0, "duration": 66}, {"note": 75, "velocity": 86, "duration": 188}, {"note": 73, "velocity": 91, "duration": 188}, {"note": 71, "velocity": 93, "duration": 243}, {"note": 68, "velocity": 85, "duration": 639}, {"note": 0, "velocity": 0, "duration": 81}, {"note": 75, "velocity": 89, "duration": 198}, {"note": 73, "velocity": 98, "duration": 194}, {"note": 75, "velocity": 89, "duration": 674}, {"note": 73, "velocity": 93, "duration": 166}, {"note": 0, "velocity": 0, "duration": 74}, {"note": 71, "velocity": 87, "duration": 461}, {"note": 73, "velocity": 93, "duration": 240}, {"note": 75, "velocity": 82, "duration": 240}, {"note": 73, "velocity": 92, "duration": 1091}, {"note": 0, "velocity": 0, "duration": 589}, {"note": 73, "velocity": 90, "duration": 194}, {"note": 75, "velocity": 88, "duration": 194}, {"note": 73, "velocity": 94, "duration": 166}, {"note": 0, "velocity": 0, "duration": 74}, {"note": 71, "velocity": 88, "duration": 171}, {"note": 0, "velocity": 0, "duration": 69}, {"note": 75, "velocity": 89, "duration": 698}, {"note": 0, "velocity": 0, "duration": 262}, {"note": 73, "velocity": 89, "duration": 175}, {"note": 0, "velocity": 0, "duration": 65}, {"note": 75, "velocity": 89, "duration": 215}, {"note": 73, "velocity": 91, "duration": 193}, {"note": 71, "velocity": 86, "duration": 254}, {"note": 68, "velocity": 84, "duration": 678}, {"note": 75, "velocity": 89, "duration": 194}, {"note": 73, "velocity": 91, "duration": 197}, {"note": 75, "velocity": 90, "duration": 399}, {"note": 0, "velocity": 0, "duration": 81}, {"note": 75, "velocity": 87, "duration": 78}, {"note": 75, "velocity": 89, "duration": 94}, {"note": 73, "velocity": 92, "duration": 187}, {"note": 71, "velocity": 89, "duration": 208}, {"note": 73, "velocity": 91, "duration": 163}, {"note": 0, "velocity": 0, "duration": 77}, {"note": 75, "velocity": 88, "duration": 175}, {"note": 0, "velocity": 0, "duration": 65}, {"note": 78, "velocity": 85, "duration": 1424}, {"note": 75, "velocity": 94, "duration": 212}, {"note": 78, "velocity": 91, "duration": 214}, {"note": 80, "velocity": 88, "duration": 478}, {"note": 83, "velocity": 90, "duration": 519}, {"note": 80, "velocity": 88, "duration": 409}, {"note": 0, "velocity": 0, "duration": 71}, {"note": 80, "velocity": 91, "duration": 226}, {"note": 75, "velocity": 83, "duration": 216}, {"note": 78, "velocity": 88, "duration": 200}, {"note": 78, "velocity": 88, "duration": 172}, {"note": 0, "velocity": 0, "duration": 68}, {"note": 78, "velocity": 88, "duration": 156}, {"note": 0, "velocity": 0, "duration": 84}, {"note": 80, "velocity": 88, "duration": 228}, {"note": 75, "velocity": 91, "duration": 453}, {"note": 75, "velocity": 89, "duration": 206}, {"note": 78, "velocity": 90, "duration": 187}, {"note": 80, "velocity": 87, "duration": 170}, {"note": 0, "velocity": 0, "duration": 70}, {"note": 80, "velocity": 83, "duration": 176}, {"note": 0, "velocity": 0, "duration": 64}, {"note": 80, "velocity": 86, "duration": 209}, {"note": 83, "velocity": 86, "duration": 203}, {"note": 80, "velocity": 89, "duration": 169}, {"note": 0, "velocity": 0, "duration": 71}, {"note": 78, "velocity": 89, "duration": 185}, {"note": 75, "velocity": 91, "duration": 179}, {"note": 0, "velocity": 0, "duration": 61}, {"note": 73, "velocity": 94, "duration": 227}, {"note": 78, "velocity": 87, "duration": 232}, {"note": 75, "velocity": 84, "duration": 1013}, {"note": 0, "velocity": 0, "duration": 427}, {"note": 75, "velocity": 91, "duration": 97}, {"note": 73, "velocity": 88, "duration": 107}, {"note": 75, "velocity": 93, "duration": 153}, {"note": 0, "velocity": 0, "duration": 87}, {"note": 79, "velocity": 76, "duration": 159}, {"note": 0, "velocity": 0, "duration": 321}, {"note": 79, "velocity": 94, "duration": 168}, {"note": 0, "velocity": 0, "duration": 72}, {"note": 80, "velocity": 88, "duration": 169}, {"note": 0, "velocity": 0, "duration": 71}, {"note": 82, "velocity": 89, "duration": 356}, {"note": 0, "velocity": 0, "duration": 124}, {"note": 83, "velocity": 93, "duration": 327}, {"note": 0, "velocity": 0, "duration": 153}, {"note": 82, "velocity": 88, "duration": 391}, {"note": 0, "velocity": 0, "duration": 89}, {"note": 80, "velocity": 88, "duration": 361}, {"note": 0, "velocity": 0, "duration": 119}, {"note": 80, "velocity": 93, "duration": 170}, {"note": 0, "velocity": 0, "duration": 70}, {"note": 83, "velocity": 92, "duration": 189}, {"note": 80, "velocity": 93, "duration": 433}, {"note": 0, "velocity": 0, "duration": 287}, {"note": 83, "velocity": 93, "duration": 179}, {"note": 0, "velocity": 0, "duration": 61}, {"note": 80, "velocity": 93, "duration": 150}, {"note": 0, "velocity": 0, "duration": 90}, {"note": 80, "velocity": 91, "duration": 327}, {"note": 0, "velocity": 0, "duration": 153}, {"note": 75, "velocity": 89, "duration": 157}, {"note": 0, "velocity": 0, "duration": 83}, {"note": 75, "velocity": 89, "duration": 457}, {"note": 73, "velocity": 91, "duration": 1025}, {"note": 0, "velocity": 0, "duration": 175}, {"note": 75, "velocity": 94, "duration": 212}, {"note": 78, "velocity": 91, "duration": 214}, {"note": 80, "velocity": 88, "duration": 478}, {"note": 83, "velocity": 90, "duration": 519}, {"note": 80, "velocity": 88, "duration": 409}, {"note": 0, "velocity": 0, "duration": 71}, {"note": 80, "velocity": 91, "duration": 226}, {"note": 75, "velocity": 83, "duration": 216}, {"note": 78, "velocity": 88, "duration": 200}, {"note": 78, "velocity": 88, "duration": 172}, {"note": 0, "velocity": 0, "duration": 68}, {"note": 78, "velocity": 88, "duration": 156}, {"note": 0, "velocity": 0, "duration": 84}, {"note": 80, "velocity": 88, "duration": 228}, {"note": 75, "velocity": 91, "duration": 453}, {"note": 75, "velocity": 89, "duration": 206}, {"note": 78, "velocity": 90, "duration": 187}, {"note": 80, "velocity": 87, "duration": 170}, {"note": 0, "velocity": 0, "duration": 70}, {"note": 80, "velocity": 83, "duration": 176}, {"note": 0, "velocity": 0, "duration": 64}, {"note": 80, "velocity": 86, "duration": 209}, {"note": 83, "velocity": 86, "duration": 203}, {"note": 80, "velocity": 89, "duration": 169}, {"note": 0, "velocity": 0, "duration": 71}, {"note": 78, "velocity": 89, "duration": 185}, {"note": 75, "velocity": 91, "duration": 179}, {"note": 0, "velocity": 0, "duration": 61}, {"note": 73, "velocity": 94, "duration": 227}, {"note": 78, "velocity": 87, "duration": 232}, {"note": 75, "velocity": 84, "duration": 1013}, {"note": 0, "velocity": 0, "duration": 427}, {"note": 75, "velocity": 91, "duration": 97}, {"note": 73, "velocity": 88, "duration": 107}, {"note": 75, "velocity": 93, "duration": 153}, {"note": 0, "velocity": 0, "duration": 87}, {"note": 79, "velocity": 76, "duration": 240}, {"note": 0, "velocity": 0, "duration": 240}, {"note": 79, "velocity": 94, "duration": 168}, {"note": 0, "velocity": 0, "duration": 72}, {"note": 80, "velocity": 88, "duration": 169}, {"note": 0, "velocity": 0, "duration": 71}, {"note": 82, "velocity": 89, "duration": 356}, {"note": 0, "velocity": 0, "duration": 124}, {"note": 83, "velocity": 93, "duration": 327}, {"note": 0, "velocity": 0, "duration": 153}, {"note": 82, "velocity": 88, "duration": 391}, {"note": 0, "velocity": 0, "duration": 89}, {"note": 80, "velocity": 88, "duration": 361}, {"note": 0, "velocity": 0, "duration": 119}, {"note": 80, "velocity": 93, "duration": 170}, {"note": 0, "velocity": 0, "duration": 70}, {"note": 83, "velocity": 92, "duration": 189}, {"note": 80, "velocity": 93, "duration": 433}, {"note": 80, "velocity": 85, "duration": 266}, {"note": 75, "velocity": 88, "duration": 216}, {"note": 73, "velocity": 90, "duration": 438}, {"note": 75, "velocity": 88, "duration": 171}, {"note": 0, "velocity": 0, "duration": 69}, {"note": 73, "velocity": 89, "duration": 198}, {"note": 68, "velocity": 88, "duration": 412}, {"note": 0, "velocity": 0, "duration": 68}, {"note": 71, "velocity": 88, "duration": 1449}]]