[[{"note": 78, "velocity": 89, "duration": 87}, {"note": 0, "velocity": 0, "duration": 153}, {"note": 78, "velocity": 84, "duration": 96}, {"note": 0, "velocity": 0, "duration": 144}, {"note": 78, "velocity": 86, "duration": 94}, {"note": 0, "velocity": 0, "duration": 146}, {"note": 78, "velocity": 86, "duration": 89}, {"note": 0, "velocity": 0, "duration": 151}, {"note": 78, "velocity": 91, "duration": 100}, {"note": 0, "velocity": 0, "duration": 140}, {"note": 80, "velocity": 82, "duration": 107}, {"note": 78, "velocity": 84, "duration": 86}, {"note": 75, "velocity": 87, "duration": 123}, {"note": 0, "velocity": 0, "duration": 117}, {"note": 73, "velocity": 87, "duration": 104}, {"note": 0, "velocity": 0, "duration": 136}, {"note": 71, "velocity": 89, "duration": 131}, {"note": 0, "velocity": 0, "duration": 109}, {"note": 73, "velocity": 82, "duration": 94}, {"note": 71, "velocity": 77, "duration": 81}, {"note": 68, "velocity": 84, "duration": 180}, {"note": 71, "velocity": 84, "duration": 209}, {"note": 66, "velocity": 85, "duration": 646}, {"note": 0, "velocity": 0, "duration": 314}, {"note": 71, "velocity": 87, "duration": 344}, {"note": 0, "velocity": 0, "duration": 136}, {"note": 68, "velocity": 82, "duration": 187}, {"note": 66, "velocity": 81, "duration": 195}, {"note": 71, "velocity": 82, "duration": 302}, {"note": 0, "velocity": 0, "duration": 178}, {"note": 68, "velocity": 84, "duration": 208}, {"note": 66, "velocity": 82, "duration": 159}, {"note": 0, "velocity": 0, "duration": 81}, {"note": 71, "velocity": 91, "duration": 131}, {"note": 0, "velocity": 0, "duration": 109}, {"note": 73, "velocity": 87, "duration": 123}, {"note": 0, "velocity": 0, "duration": 117}, {"note": 75, "velocity": 85, "duration": 114}, {"note": 73, "velocity": 84, "duration": 127}, {"note": 71, "velocity": 91, "duration": 131}, {"note": 0, "velocity": 0, "duration": 109}, {"note": 73, "velocity": 94, "duration": 717}, {"note": 0, "velocity": 0, "duration": 243}, {"note": 78, "velocity": 83, "duration": 114}, {"note": 0, "velocity": 0, "duration": 126}, {"note": 78, "velocity": 82, "duration": 140}, {"note": 0, "velocity": 0, "duration": 100}, {"note": 78, "velocity": 85, "duration": 127}, {"note": 0, "velocity": 0, "duration": 113}, {"note": 78, "velocity": 84, "duration": 108}, {"note": 0, "velocity": 0, "duration": 132}, {"note": 78, "velocity": 89, "duration": 104}, {"note": 0, "velocity": 0, "duration": 136}, {"note": 80, "velocity": 81, "duration": 86}, {"note": 78, "velocity": 87, "duration": 73}, {"note": 75, "velocity": 85, "duration": 122}, {"note": 0, "velocity": 0, "duration": 118}, {"note": 78, "velocity": 86, "duration": 114}, {"note": 0, "velocity": 0, "duration": 126}, {"note": 80, "velocity": 82, "duration": 114}, {"note": 0, "velocity": 0, "duration": 126}, {"note": 83, "velocity": 87, "duration": 133}, {"note": 0, "velocity": 0, "duration": 107}, {"note": 80, "velocity": 81, "duration": 145}, {"note": 0, "velocity": 0, "duration": 95}, {"note": 78, "velocity": 82, "duration": 150}, {"note": 0, "velocity": 0, "duration": 90}, {"note": 80, "velocity": 84, "duration": 624}, {"note": 0, "velocity": 0, "duration": 336}, {"note": 73, "velocity": 87, "duration": 379}, {"note": 0, "velocity": 0, "duration": 101}, {"note": 71, "velocity": 81, "duration": 208}, {"note": 68, "velocity": 82, "duration": 176}, {"note": 0, "velocity": 0, "duration": 64}, {"note": 73, "velocity": 89, "duration": 353}, {"note": 0, "velocity": 0, "duration": 127}, {"note": 71, "velocity": 83, "duration": 214}, {"note": 68, "velocity": 81, "duration": 155}, {"note": 0, "velocity": 0, "duration": 85}, {"note": 66, "velocity": 81, "duration": 173}, {"note": 0, "velocity": 0, "duration": 67}, {"note": 68, "velocity": 80, "duration": 154}, {"note": 0, "velocity": 0, "duration": 86}, {"note": 71, "velocity": 82, "duration": 140}, {"note": 0, "velocity": 0, "duration": 100}, {"note": 73, "velocity": 82, "duration": 146}, {"note": 0, "velocity": 0, "duration": 94}, {"note": 71, "velocity": 84, "duration": 746}, {"note": 0, "velocity": 0, "duration": 214}, {"note": 78, "velocity": 82, "duration": 175}, {"note": 0, "velocity": 0, "duration": 185}, {"note": 78, "velocity": 81, "duration": 80}, {"note": 78, "velocity": 85, "duration": 146}, {"note": 0, "velocity": 0, "duration": 94}, {"note": 80, "velocity": 81, "duration": 132}, {"note": 0, "velocity": 0, "duration": 108}, {"note": 78, "velocity": 84, "duration": 390}, {"note": 0, "velocity": 0, "duration": 90}, {"note": 83, "velocity": 85, "duration": 123}, {"note": 0, "velocity": 0, "duration": 117}, {"note": 80, "velocity": 81, "duration": 131}, {"note": 0, "velocity": 0, "duration": 109}, {"note": 78, "velocity": 82, "duration": 276}, {"note": 0, "velocity": 0, "duration": 84}, {"note": 78, "velocity": 80, "duration": 69}, {"note": 78, "velocity": 81, "duration": 144}, {"note": 0, "velocity": 0, "duration": 96}, {"note": 80, "velocity": 84, "duration": 132}, {"note": 0, "velocity": 0, "duration": 108}, {"note": 78, "velocity": 86, "duration": 578}, {"note": 0, "velocity": 0, "duration": 382}, {"note": 78, "velocity": 86, "duration": 271}, {"note": 0, "velocity": 0, "duration": 89}, {"note": 78, "velocity": 81, "duration": 68}, {"note": 78, "velocity": 83, "duration": 165}, {"note": 0, "velocity": 0, "duration": 75}, {"note": 80, "velocity": 82, "duration": 131}, {"note": 0, "velocity": 0, "duration": 109}, {"note": 83, "velocity": 87, "duration": 364}, {"note": 0, "velocity": 0, "duration": 116}, {"note": 80, "velocity": 81, "duration": 200}, {"note": 78, "velocity": 81, "duration": 165}, {"note": 0, "velocity": 0, "duration": 75}, {"note": 75, "velocity": 84, "duration": 164}, {"note": 0, "velocity": 0, "duration": 76}, {"note": 75, "velocity": 81, "duration": 122}, {"note": 0, "velocity": 0, "duration": 118}, {"note": 73, "velocity": 84, "duration": 175}, {"note": 0, "velocity": 0, "duration": 65}, {"note": 75, "velocity": 87, "duration": 140}, {"note": 0, "velocity": 0, "duration": 100}, {"note": 78, "velocity": 81, "duration": 669}, {"note": 0, "velocity": 0, "duration": 291}, {"note": 73, "velocity": 87, "duration": 268}, {"note": 0, "velocity": 0, "duration": 92}, {"note": 73, "velocity": 80, "duration": 68}, {"note": 73, "velocity": 82, "duration": 132}, {"note": 0, "velocity": 0, "duration": 108}, {"note": 75, "velocity": 84, "duration": 146}, {"note": 0, "velocity": 0, "duration": 94}, {"note": 73, "velocity": 85, "duration": 340}, {"note": 0, "velocity": 0, "duration": 140}, {"note": 75, "velocity": 82, "duration": 149}, {"note": 0, "velocity": 0, "duration": 91}, {"note": 73, "velocity": 85, "duration": 107}, {"note": 0, "velocity": 0, "duration": 133}, {"note": 71, "velocity": 87, "duration": 133}, {"note": 0, "velocity": 0, "duration": 107}, {"note": 73, "velocity": 82, "duration": 100}, {"note": 71, "velocity": 82, "duration": 92}, {"note": 68, "velocity": 81, "duration": 154}, {"note": 0, "velocity": 0, "duration": 86}, {"note": 71, "velocity": 81, "duration": 190}, {"note": 66, "velocity": 82, "duration": 694}, {"note": 0, "velocity": 0, "duration": 266}, {"note": 71, "velocity": 87, "duration": 305}, {"note": 73, "velocity": 84, "duration": 98}, {"note": 75, "velocity": 84, "duration": 173}, {"note": 0, "velocity": 0, "duration": 67}, {"note": 78, "velocity": 86, "duration": 160}, {"note": 0, "velocity": 0, "duration": 80}, {"note": 80, "velocity": 81, "duration": 167}, {"note": 0, "velocity": 0, "duration": 73}, {"note": 83, "velocity": 86, "duration": 150}, {"note": 0, "velocity": 0, "duration": 90}, {"note": 80, "velocity": 81, "duration": 153}, {"note": 0, "velocity": 0, "duration": 87}, {"note": 78, "velocity": 81, "duration": 133}, {"note": 0, "velocity": 0, "duration": 107}, {"note": 78, "velocity": 86, "duration": 1440}, {"note": 80, "velocity": 82, "duration": 458}, {"note": 78, "velocity": 89, "duration": 87}, {"note": 0, "velocity": 0, "duration": 153}, {"note": 78, "velocity": 84, "duration": 96}, {"note": 0, "velocity": 0, "duration": 144}, {"note": 78, "velocity": 86, "duration": 94}, {"note": 0, "velocity": 0, "duration": 146}, {"note": 78, "velocity": 86, "duration": 89}, {"note": 0, "velocity": 0, "duration": 151}, {"note": 78, "velocity": 91, "duration": 100}, {"note": 0, "velocity": 0, "duration": 140}, {"note": 80, "velocity": 82, "duration": 107}, {"note": 78, "velocity": 84, "duration": 86}, {"note": 75, "velocity": 87, "duration": 123}, {"note": 0, "velocity": 0, "duration": 117}, {"note": 73, "velocity": 87, "duration": 104}, {"note": 0, "velocity": 0, "duration": 136}, {"note": 71, "velocity": 89, "duration": 131}, {"note": 0, "velocity": 0, "duration": 109}, {"note": 73, "velocity": 82, "duration": 94}, {"note": 71, "velocity": 77, "duration": 81}, {"note": 68, "velocity": 84, "duration": 180}, {"note": 71, "velocity": 84, "duration": 209}, {"note": 66, "velocity": 85, "duration": 646}, {"note": 0, "velocity": 0, "duration": 314}, {"note": 71, "velocity": 87, "duration": 344}, {"note": 0, "velocity": 0, "duration": 136}, {"note": 68, "velocity": 82, "duration": 187}, {"note": 66, "velocity": 81, "duration": 195}, {"note": 71, "velocity": 82, "duration": 302}, {"note": 0, "velocity": 0, "duration": 178}, {"note": 68, "velocity": 84, "duration": 208}, {"note": 66, "velocity": 82, "duration": 159}, {"note": 0, "velocity": 0, "duration": 81}, {"note": 71, "velocity": 91, "duration": 131}, {"note": 0, "velocity": 0, "duration": 109}, {"note": 73, "velocity": 87, "duration": 123}, {"note": 0, "velocity": 0, "duration": 117}, {"note": 75, "velocity": 85, "duration": 114}, {"note": 73, "velocity": 84, "duration": 127}, {"note": 71, "velocity": 91, "duration": 131}, {"note": 0, "velocity": 0, "duration": 109}, {"note": 73, "velocity": 94, "duration": 717}, {"note": 0, "velocity": 0, "duration": 243}, {"note": 78, "velocity": 83, "duration": 114}, {"note": 0, "velocity": 0, "duration": 126}, {"note": 78, "velocity": 82, "duration": 140}, {"note": 0, "velocity": 0, "duration": 100}, {"note": 78, "velocity": 85, "duration": 127}, {"note": 0, "velocity": 0, "duration": 113}, {"note": 78, "velocity": 84, "duration": 108}, {"note": 0, "velocity": 0, "duration": 132}, {"note": 78, "velocity": 89, "duration": 104}, {"note": 0, "velocity": 0, "duration": 136}, {"note": 80, "velocity": 81, "duration": 86}, {"note": 78, "velocity": 87, "duration": 73}, {"note": 75, "velocity": 85, "duration": 122}, {"note": 0, "velocity": 0, "duration": 118}, {"note": 78, "velocity": 86, "duration": 114}, {"note": 0, "velocity": 0, "duration": 126}, {"note": 80, "velocity": 82, "duration": 240}, {"note": 0, "velocity": 0, "duration": 240}, {"note": 83, "velocity": 82, "duration": 373}, {"note": 0, "velocity": 0, "duration": 107}, {"note": 80, "velocity": 80, "duration": 192}, {"note": 78, "velocity": 83, "duration": 174}, {"note": 0, "velocity": 0, "duration": 66}, {"note": 80, "velocity": 82, "duration": 382}, {"note": 0, "velocity": 0, "duration": 338}, {"note": 78, "velocity": 83, "duration": 218}, {"note": 83, "velocity": 91, "duration": 234}, {"note": 82, "velocity": 85, "duration": 104}, {"note": 0, "velocity": 0, "duration": 136}, {"note": 75, "velocity": 82, "duration": 208}, {"note": 78, "velocity": 82, "duration": 132}, {"note": 0, "velocity": 0, "duration": 108}, {"note": 75, "velocity": 85, "duration": 186}, {"note": 73, "velocity": 86, "duration": 225}, {"note": 71, "velocity": 81, "duration": 1503}, {"note": 0, "velocity": 0, "duration": 11937}, {"note": 78, "velocity": 89, "duration": 87}, {"note": 0, "velocity": 0, "duration": 153}, {"note": 78, "velocity": 84, "duration": 96}, {"note": 0, "velocity": 0, "duration": 144}, {"note": 78, "velocity": 86, "duration": 94}, {"note": 0, "velocity": 0, "duration": 146}, {"note": 78, "velocity": 86, "duration": 89}, {"note": 0, "velocity": 0, "duration": 151}, {"note": 78, "velocity": 91, "duration": 100}, {"note": 0, "velocity": 0, "duration": 140}, {"note": 80, "velocity": 82, "duration": 107}, {"note": 78, "velocity": 84, "duration": 86}, {"note": 75, "velocity": 87, "duration": 123}, {"note": 0, "velocity": 0, "duration": 117}, {"note": 73, "velocity": 87, "duration": 104}, {"note": 0, "velocity": 0, "duration": 136}, {"note": 71, "velocity": 89, "duration": 131}, {"note": 0, "velocity": 0, "duration": 109}, {"note": 73, "velocity": 82, "duration": 94}, {"note": 71, "velocity": 77, "duration": 81}, {"note": 68, "velocity": 84, "duration": 180}, {"note": 71, "velocity": 84, "duration": 209}, {"note": 66, "velocity": 85, "duration": 646}, {"note": 0, "velocity": 0, "duration": 314}, {"note": 71, "velocity": 87, "duration": 344}, {"note": 0, "velocity": 0, "duration": 136}, {"note": 68, "velocity": 82, "duration": 187}, {"note": 66, "velocity": 81, "duration": 195}, {"note": 71, "velocity": 82, "duration": 302}, {"note": 0, "velocity": 0, "duration": 178}, {"note": 68, "velocity": 84, "duration": 208}, {"note": 66, "velocity": 82, "duration": 159}, {"note": 0, "velocity": 0, "duration": 81}, {"note": 71, "velocity": 91, "duration": 131}, {"note": 0, "velocity": 0, "duration": 109}, {"note": 73, "velocity": 87, "duration": 123}, {"note": 0, "velocity": 0, "duration": 117}, {"note": 75, "velocity": 85, "duration": 114}, {"note": 73, "velocity": 84, "duration": 127}, {"note": 71, "velocity": 91, "duration": 131}, {"note": 0, "velocity": 0, "duration": 109}, {"note": 73, "velocity": 94, "duration": 717}, {"note": 0, "velocity": 0, "duration": 243}, {"note": 78, "velocity": 83, "duration": 114}, {"note": 0, "velocity": 0, "duration": 126}, {"note": 78, "velocity": 82, "duration": 140}, {"note": 0, "velocity": 0, "duration": 100}, {"note": 78, "velocity": 85, "duration": 127}, {"note": 0, "velocity": 0, "duration": 113}, {"note": 78, "velocity": 84, "duration": 108}, {"note": 0, "velocity": 0, "duration": 132}, {"note": 78, "velocity": 89, "duration": 104}, {"note": 0, "velocity": 0, "duration": 136}, {"note": 80, "velocity": 81, "duration": 86}, {"note": 78, "velocity": 87, "duration": 73}, {"note": 75, "velocity": 85, "duration": 122}, {"note": 0, "velocity": 0, "duration": 118}, {"note": 78, "velocity": 86, "duration": 114}, {"note": 0, "velocity": 0, "duration": 126}, {"note": 80, "velocity": 82, "duration": 114}, {"note": 0, "velocity": 0, "duration": 126}, {"note": 83, "velocity": 87, "duration": 133}, {"note": 0, "velocity": 0, "duration": 107}, {"note": 80, "velocity": 81, "duration": 145}, {"note": 0, "velocity": 0, "duration": 95}, {"note": 78, "velocity": 82, "duration": 150}, {"note": 0, "velocity": 0, "duration": 90}, {"note": 80, "velocity": 84, "duration": 624}, {"note": 0, "velocity": 0, "duration": 336}, {"note": 73, "velocity": 87, "duration": 379}, {"note": 0, "velocity": 0, "duration": 101}, {"note": 71, "velocity": 81, "duration": 208}, {"note": 68, "velocity": 82, "duration": 176}, {"note": 0, "velocity": 0, "duration": 64}, {"note": 73, "velocity": 89, "duration": 353}, {"note": 0, "velocity": 0, "duration": 127}, {"note": 71, "velocity": 83, "duration": 214}, {"note": 68, "velocity": 81, "duration": 155}, {"note": 0, "velocity": 0, "duration": 85}, {"note": 66, "velocity": 81, "duration": 173}, {"note": 0, "velocity": 0, "duration": 67}, {"note": 68, "velocity": 80, "duration": 154}, {"note": 0, "velocity": 0, "duration": 86}, {"note": 71, "velocity": 82, "duration": 140}, {"note": 0, "velocity": 0, "duration": 100}, {"note": 73, "velocity": 82, "duration": 146}, {"note": 0, "velocity": 0, "duration": 94}, {"note": 71, "velocity": 84, "duration": 746}, {"note": 0, "velocity": 0, "duration": 214}, {"note": 78, "velocity": 82, "duration": 175}, {"note": 0, "velocity": 0, "duration": 185}, {"note": 78, "velocity": 81, "duration": 80}, {"note": 78, "velocity": 85, "duration": 146}, {"note": 0, "velocity": 0, "duration": 94}, {"note": 80, "velocity": 81, "duration": 132}, {"note": 0, "velocity": 0, "duration": 108}, {"note": 78, "velocity": 84, "duration": 390}, {"note": 0, "velocity": 0, "duration": 90}, {"note": 83, "velocity": 85, "duration": 123}, {"note": 0, "velocity": 0, "duration": 117}, {"note": 80, "velocity": 81, "duration": 131}, {"note": 0, "velocity": 0, "duration": 109}, {"note": 78, "velocity": 82, "duration": 276}, {"note": 0, "velocity": 0, "duration": 84}, {"note": 78, "velocity": 80, "duration": 69}, {"note": 78, "velocity": 81, "duration": 144}, {"note": 0, "velocity": 0, "duration": 96}, {"note": 80, "velocity": 84, "duration": 132}, {"note": 0, "velocity": 0, "duration": 108}, {"note": 78, "velocity": 86, "duration": 578}, {"note": 0, "velocity": 0, "duration": 382}, {"note": 78, "velocity": 86, "duration": 271}, {"note": 0, "velocity": 0, "duration": 89}, {"note": 78, "velocity": 81, "duration": 68}, {"note": 78, "velocity": 83, "duration": 165}, {"note": 0, "velocity": 0, "duration": 75}, {"note": 80, "velocity": 82, "duration": 131}, {"note": 0, "velocity": 0, "duration": 109}, {"note": 83, "velocity": 87, "duration": 364}, {"note": 0, "velocity": 0, "duration": 116}, {"note": 80, "velocity": 81, "duration": 200}, {"note": 78, "velocity": 81, "duration": 165}, {"note": 0, "velocity": 0, "duration": 75}, {"note": 75, "velocity": 84, "duration": 164}, {"note": 0, "velocity": 0, "duration": 76}, {"note": 75, "velocity": 81, "duration": 122}, {"note": 0, "velocity": 0, "duration": 118}, {"note": 73, "velocity": 84, "duration": 175}, {"note": 0, "velocity": 0, "duration": 65}, {"note": 75, "velocity": 87, "duration": 140}, {"note": 0, "velocity": 0, "duration": 100}, {"note": 78, "velocity": 81, "duration": 669}, {"note": 0, "velocity": 0, "duration": 291}, {"note": 73, "velocity": 87, "duration": 268}, {"note": 0, "velocity": 0, "duration": 92}, {"note": 73, "velocity": 80, "duration": 68}, {"note": 73, "velocity": 82, "duration": 132}, {"note": 0, "velocity": 0, "duration": 108}, {"note": 75, "velocity": 84, "duration": 146}, {"note": 0, "velocity": 0, "duration": 94}, {"note": 73, "velocity": 85, "duration": 340}, {"note": 0, "velocity": 0, "duration": 140}, {"note": 75, "velocity": 82, "duration": 149}, {"note": 0, "velocity": 0, "duration": 91}, {"note": 73, "velocity": 85, "duration": 107}, {"note": 0, "velocity": 0, "duration": 133}, {"note": 71, "velocity": 87, "duration": 133}, {"note": 0, "velocity": 0, "duration": 107}, {"note": 73, "velocity": 82, "duration": 100}, {"note": 71, "velocity": 82, "duration": 92}, {"note": 68, "velocity": 81, "duration": 154}, {"note": 0, "velocity": 0, "duration": 86}, {"note": 71, "velocity": 81, "duration": 190}, {"note": 66, "velocity": 82, "duration": 694}, {"note": 0, "velocity": 0, "duration": 266}, {"note": 71, "velocity": 87, "duration": 305}, {"note": 73, "velocity": 84, "duration": 98}, {"note": 75, "velocity": 84, "duration": 173}, {"note": 0, "velocity": 0, "duration": 67}, {"note": 78, "velocity": 86, "duration": 160}, {"note": 0, "velocity": 0, "duration": 80}, {"note": 80, "velocity": 81, "duration": 167}, {"note": 0, "velocity": 0, "duration": 73}, {"note": 83, "velocity": 86, "duration": 150}, {"note": 0, "velocity": 0, "duration": 90}, {"note": 80, "velocity": 81, "duration": 153}, {"note": 0, "velocity": 0, "duration": 87}, {"note": 78, "velocity": 81, "duration": 133}, {"note": 0, "velocity": 0, "duration": 107}, {"note": 78, "velocity": 86, "duration": 1440}, {"note": 80, "velocity": 82, "duration": 458}, {"note": 78, "velocity": 89, "duration": 87}, {"note": 0, "velocity": 0, "duration": 153}, {"note": 78, "velocity": 84, "duration": 96}, {"note": 0, "velocity": 0, "duration": 144}, {"note": 78, "velocity": 86, "duration": 94}, {"note": 0, "velocity": 0, "duration": 146}, {"note": 78, "velocity": 86, "duration": 89}, {"note": 0, "velocity": 0, "duration": 151}, {"note": 78, "velocity": 91, "duration": 100}, {"note": 0, "velocity": 0, "duration": 140}, {"note": 80, "velocity": 82, "duration": 107}, {"note": 78, "velocity": 84, "duration": 86}, {"note": 75, "velocity": 87, "duration": 123}, {"note": 0, "velocity": 0, "duration": 117}, {"note": 73, "velocity": 87, "duration": 104}, {"note": 0, "velocity": 0, "duration": 136}, {"note": 71, "velocity": 89, "duration": 131}, {"note": 0, "velocity": 0, "duration": 109}, {"note": 73, "velocity": 82, "duration": 94}, {"note": 71, "velocity": 77, "duration": 81}, {"note": 68, "velocity": 84, "duration": 180}, {"note": 71, "velocity": 84, "duration": 209}, {"note": 66, "velocity": 85, "duration": 646}, {"note": 0, "velocity": 0, "duration": 314}, {"note": 71, "velocity": 87, "duration": 344}, {"note": 0, "velocity": 0, "duration": 136}, {"note": 68, "velocity": 82, "duration": 187}, {"note": 66, "velocity": 81, "duration": 195}, {"note": 71, "velocity": 82, "duration": 302}, {"note": 0, "velocity": 0, "duration": 178}, {"note": 68, "velocity": 84, "duration": 208}, {"note": 66, "velocity": 82, "duration": 159}, {"note": 0, "velocity": 0, "duration": 81}, {"note": 71, "velocity": 91, "duration": 131}, {"note": 0, "velocity": 0, "duration": 109}, {"note": 73, "velocity": 87, "duration": 123}, {"note": 0, "velocity": 0, "duration": 117}, {"note": 75, "velocity": 85, "duration": 114}, {"note": 73, "velocity": 84, "duration": 127}, {"note": 71, "velocity": 91, "duration": 131}, {"note": 0, "velocity": 0, "duration": 109}, {"note": 73, "velocity": 94, "duration": 717}, {"note": 0, "velocity": 0, "duration": 243}, {"note": 78, "velocity": 83, "duration": 114}, {"note": 0, "velocity": 0, "duration": 126}, {"note": 78, "velocity": 82, "duration": 140}, {"note": 0, "velocity": 0, "duration": 100}, {"note": 78, "velocity": 85, "duration": 127}, {"note": 0, "velocity": 0, "duration": 113}, {"note": 78, "velocity": 84, "duration": 108}, {"note": 0, "velocity": 0, "duration": 132}, {"note": 78, "velocity": 89, "duration": 104}, {"note": 0, "velocity": 0, "duration": 136}, {"note": 80, "velocity": 81, "duration": 86}, {"note": 78, "velocity": 87, "duration": 73}, {"note": 75, "velocity": 85, "duration": 122}, {"note": 0, "velocity": 0, "duration": 118}, {"note": 78, "velocity": 86, "duration": 114}, {"note": 0, "velocity": 0, "duration": 126}, {"note": 80, "velocity": 82, "duration": 240}, {"note": 0, "velocity": 0, "duration": 240}, {"note": 83, "velocity": 82, "duration": 373}, {"note": 0, "velocity": 0, "duration": 107}, {"note": 80, "velocity": 80, "duration": 192}, {"note": 78, "velocity": 83, "duration": 174}, {"note": 0, "velocity": 0, "duration": 66}, {"note": 80, "velocity": 82, "duration": 382}, {"note": 0, "velocity": 0, "duration": 338}, {"note": 78, "velocity": 83, "duration": 218}, {"note": 83, "velocity": 91, "duration": 234}, {"note": 82, "velocity": 85, "duration": 104}, {"note": 0, "velocity": 0, "duration": 136}, {"note": 75, "velocity": 82, "duration": 208}, {"note": 78, "velocity": 82, "duration": 132}, {"note": 0, "velocity": 0, "duration": 108}, {"note": 75, "velocity": 85, "duration": 186}, {"note": 73, "velocity": 86, "duration": 225}, {"note": 71, "velocity": 81, "duration": 1503}, {"note": 0, "velocity": 0, "duration": 417}, {"note": 78, "velocity": 82, "duration": 175}, {"note": 0, "velocity": 0, "duration": 185}, {"note": 78, "velocity": 81, "duration": 80}, {"note": 78, "velocity": 85, "duration": 146}, {"note": 0, "velocity": 0, "duration": 94}, {"note": 80, "velocity": 81, "duration": 132}, {"note": 0, "velocity": 0, "duration": 108}, {"note": 78, "velocity": 84, "duration": 390}, {"note": 0, "velocity": 0, "duration": 90}, {"note": 83, "velocity": 85, "duration": 123}, {"note": 0, "velocity": 0, "duration": 117}, {"note": 80, "velocity": 81, "duration": 131}, {"note": 0, "velocity": 0, "duration": 109}, {"note": 78, "velocity": 82, "duration": 276}, {"note": 0, "velocity": 0, "duration": 84}, {"note": 78, "velocity": 80, "duration": 69}, {"note": 78, "velocity": 81, "duration": 144}, {"note": 0, "velocity": 0, "duration": 96}, {"note": 80, "velocity": 84, "duration": 132}, {"note": 0, "velocity": 0, "duration": 108}, {"note": 78, "velocity": 86, "duration": 578}, {"note": 0, "velocity": 0, "duration": 382}, {"note": 78, "velocity": 86, "duration": 271}, {"note": 0, "velocity": 0, "duration": 89}, {"note": 78, "velocity": 81, "duration": 68}, {"note": 78, "velocity": 83, "duration": 165}, {"note": 0, "velocity": 0, "duration": 75}, {"note": 80, "velocity": 82, "duration": 131}, {"note": 0, "velocity": 0, "duration": 109}, {"note": 83, "velocity": 87, "duration": 364}, {"note": 0, "velocity": 0, "duration": 116}, {"note": 80, "velocity": 81, "duration": 200}, {"note": 78, "velocity": 81, "duration": 165}, {"note": 0, "velocity": 0, "duration": 75}, {"note": 75, "velocity": 84, "duration": 164}, {"note": 0, "velocity": 0, "duration": 76}, {"note": 75, "velocity": 81, "duration": 122}, {"note": 0, "velocity": 0, "duration": 118}, {"note": 73, "velocity": 84, "duration": 175}, {"note": 0, "velocity": 0, "duration": 65}, {"note": 75, "velocity": 87, "duration": 140}, {"note": 0, "velocity": 0, "duration": 100}, {"note": 78, "velocity": 81, "duration": 669}, {"note": 0, "velocity": 0, "duration": 291}, {"note": 73, "velocity": 87, "duration": 268}, {"note": 0, "velocity": 0, "duration": 92}, {"note": 73, "velocity": 80, "duration": 68}, {"note": 73, "velocity": 82, "duration": 132}, {"note": 0, "velocity": 0, "duration": 108}, {"note": 75, "velocity": 84, "duration": 146}, {"note": 0, "velocity": 0, "duration": 94}, {"note": 73, "velocity": 85, "duration": 340}, {"note": 0, "velocity": 0, "duration": 140}, {"note": 75, "velocity": 82, "duration": 149}, {"note": 0, "velocity": 0, "duration": 91}, {"note": 73, "velocity": 85, "duration": 107}, {"note": 0, "velocity": 0, "duration": 133}, {"note": 71, "velocity": 87, "duration": 133}, {"note": 0, "velocity": 0, "duration": 107}, {"note": 73, "velocity": 82, "duration": 100}, {"note": 71, "velocity": 82, "duration": 92}, {"note": 68, "velocity": 81, "duration": 154}, {"note": 0, "velocity": 0, "duration": 86}, {"note": 71, "velocity": 81, "duration": 190}, {"note": 66, "velocity": 82, "duration": 694}, {"note": 0, "velocity": 0, "duration": 266}, {"note": 71, "velocity": 87, "duration": 305}, {"note": 73, "velocity": 84, "duration": 98}, {"note": 75, "velocity": 84, "duration": 173}, {"note": 0, "velocity": 0, "duration": 67}, {"note": 78, "velocity": 86, "duration": 160}, {"note": 0, "velocity": 0, "duration": 80}, {"note": 80, "velocity": 81, "duration": 167}, {"note": 0, "velocity": 0, "duration": 73}, {"note": 83, "velocity": 86, "duration": 150}, {"note": 0, "velocity": 0, "duration": 90}, {"note": 80, "velocity": 81, "duration": 153}, {"note": 0, "velocity": 0, "duration": 87}, {"note": 78, "velocity": 81, "duration": 133}, {"note": 0, "velocity": 0, "duration": 107}, {"note": 78, "velocity": 86, "duration": 1440}, {"note": 80, "velocity": 82, "duration": 458}, {"note": 78, "velocity": 89, "duration": 87}, {"note": 0, "velocity": 0, "duration": 153}, {"note": 78, "velocity": 84, "duration": 96}, {"note": 0, "velocity": 0, "duration": 144}, {"note": 78, "velocity": 86, "duration": 94}, {"note": 0, "velocity": 0, "duration": 146}, {"note": 78, "velocity": 86, "duration": 89}, {"note": 0, "velocity": 0, "duration": 151}, {"note": 78, "velocity": 91, "duration": 100}, {"note": 0, "velocity": 0, "duration": 140}, {"note": 80, "velocity": 82, "duration": 107}, {"note": 78, "velocity": 84, "duration": 86}, {"note": 75, "velocity": 87, "duration": 123}, {"note": 0, "velocity": 0, "duration": 117}, {"note": 73, "velocity": 87, "duration": 104}, {"note": 0, "velocity": 0, "duration": 136}, {"note": 71, "velocity": 89, "duration": 131}, {"note": 0, "velocity": 0, "duration": 109}, {"note": 73, "velocity": 82, "duration": 94}, {"note": 71, "velocity": 77, "duration": 81}, {"note": 68, "velocity": 84, "duration": 180}, {"note": 71, "velocity": 84, "duration": 209}, {"note": 66, "velocity": 85, "duration": 646}, {"note": 0, "velocity": 0, "duration": 314}, {"note": 71, "velocity": 87, "duration": 344}, {"note": 0, "velocity": 0, "duration": 136}, {"note": 68, "velocity": 82, "duration": 187}, {"note": 66, "velocity": 81, "duration": 195}, {"note": 71, "velocity": 82, "duration": 302}, {"note": 0, "velocity": 0, "duration": 178}, {"note": 68, "velocity": 84, "duration": 208}, {"note": 66, "velocity": 82, "duration": 159}, {"note": 0, "velocity": 0, "duration": 81}, {"note": 71, "velocity": 91, "duration": 131}, {"note": 0, "velocity": 0, "duration": 109}, {"note": 73, "velocity": 87, "duration": 123}, {"note": 0, "velocity": 0, "duration": 117}, {"note": 75, "velocity": 85, "duration": 114}, {"note": 73, "velocity": 84, "duration": 127}, {"note": 71, "velocity": 91, "duration": 131}, {"note": 0, "velocity": 0, "duration": 109}, {"note": 73, "velocity": 94, "duration": 717}, {"note": 0, "velocity": 0, "duration": 243}, {"note": 78, "velocity": 83, "duration": 114}, {"note": 0, "velocity": 0, "duration": 126}, {"note": 78, "velocity": 82, "duration": 140}, {"note": 0, "velocity": 0, "duration": 100}, {"note": 78, "velocity": 85, "duration": 127}, {"note": 0, "velocity": 0, "duration": 113}, {"note": 78, "velocity": 84, "duration": 108}, {"note": 0, "velocity": 0, "duration": 132}, {"note": 78, "velocity": 89, "duration": 104}, {"note": 0, "velocity": 0, "duration": 136}, {"note": 80, "velocity": 81, "duration": 86}, {"note": 78, "velocity": 87, "duration": 73}, {"note": 75, "velocity": 85, "duration": 122}, {"note": 0, "velocity": 0, "duration": 118}, {"note": 78, "velocity": 86, "duration": 114}, {"note": 0, "velocity": 0, "duration": 126}, {"note": 80, "velocity": 82, "duration": 240}, {"note": 0, "velocity": 0, "duration": 240}, {"note": 83, "velocity": 82, "duration": 373}, {"note": 0, "velocity": 0, "duration": 107}, {"note": 80, "velocity": 80, "duration": 192}, {"note": 78, "velocity": 83, "duration": 174}, {"note": 0, "velocity": 0, "duration": 66}, {"note": 80, "velocity": 82, "duration": 382}, {"note": 0, "velocity": 0, "duration": 338}, {"note": 78, "velocity": 83, "duration": 218}, {"note": 83, "velocity": 91, "duration": 234}, {"note": 82, "velocity": 85, "duration": 104}, {"note": 0, "velocity": 0, "duration": 136}, {"note": 75, "velocity": 82, "duration": 208}, {"note": 78, "velocity": 82, "duration": 132}, {"note": 0, "velocity": 0, "duration": 108}, {"note": 75, "velocity": 85, "duration": 186}, {"note": 73, "velocity": 86, "duration": 225}, {"note": 71, "velocity": 81, "duration": 1503}]]