[[{"note": 78, "velocity": 85, "duration": 560}, {"note": 0, "velocity": 0, "duration": 160}, {"note": 76, "velocity": 84, "duration": 199}, {"note": 73, "velocity": 90, "duration": 732}, {"note": 71, "velocity": 75, "duration": 237}, {"note": 69, "velocity": 80, "duration": 195}, {"note": 71, "velocity": 81, "duration": 176}, {"note": 0, "velocity": 0, "duration": 64}, {"note": 71, "velocity": 79, "duration": 196}, {"note": 73, "velocity": 81, "duration": 250}, {"note": 66, "velocity": 80, "duration": 747}, {"note": 0, "velocity": 0, "duration": 213}, {"note": 64, "velocity": 83, "duration": 398}, {"note": 0, "velocity": 0, "duration": 82}, {"note": 64, "velocity": 82, "duration": 141}, {"note": 0, "velocity": 0, "duration": 99}, {"note": 66, "velocity": 77, "duration": 160}, {"note": 0, "velocity": 0, "duration": 80}, {"note": 69, "velocity": 83, "duration": 320}, {"note": 0, "velocity": 0, "duration": 160}, {"note": 69, "velocity": 83, "duration": 171}, {"note": 0, "velocity": 0, "duration": 69}, {"note": 71, "velocity": 84, "duration": 143}, {"note": 0, "velocity": 0, "duration": 97}, {"note": 73, "velocity": 86, "duration": 139}, {"note": 0, "velocity": 0, "duration": 101}, {"note": 76, "velocity": 72, "duration": 240}, {"note": 71, "velocity": 81, "duration": 376}, {"note": 0, "velocity": 0, "duration": 104}, {"note": 73, "velocity": 85, "duration": 785}, {"note": 0, "velocity": 0, "duration": 175}, {"note": 78, "velocity": 81, "duration": 640}, {"note": 0, "velocity": 0, "duration": 80}, {"note": 76, "velocity": 80, "duration": 179}, {"note": 0, "velocity": 0, "duration": 61}, {"note": 73, "velocity": 90, "duration": 572}, {"note": 0, "velocity": 0, "duration": 148}, {"note": 71, "velocity": 81, "duration": 199}, {"note": 69, "velocity": 82, "duration": 241}, {"note": 71, "velocity": 80, "duration": 141}, {"note": 0, "velocity": 0, "duration": 99}, {"note": 71, "velocity": 80, "duration": 180}, {"note": 73, "velocity": 80, "duration": 187}, {"note": 66, "velocity": 80, "duration": 564}, {"note": 0, "velocity": 0, "duration": 396}, {"note": 71, "velocity": 81, "duration": 445}, {"note": 71, "velocity": 81, "duration": 154}, {"note": 0, "velocity": 0, "duration": 86}, {"note": 73, "velocity": 86, "duration": 158}, {"note": 0, "velocity": 0, "duration": 82}, {"note": 76, "velocity": 81, "duration": 342}, {"note": 0, "velocity": 0, "duration": 138}, {"note": 76, "velocity": 76, "duration": 141}, {"note": 0, "velocity": 0, "duration": 99}, {"note": 73, "velocity": 82, "duration": 153}, {"note": 0, "velocity": 0, "duration": 87}, {"note": 71, "velocity": 78, "duration": 151}, {"note": 0, "velocity": 0, "duration": 89}, {"note": 69, "velocity": 78, "duration": 196}, {"note": 66, "velocity": 81, "duration": 147}, {"note": 0, "velocity": 0, "duration": 93}, {"note": 64, "velocity": 81, "duration": 157}, {"note": 0, "velocity": 0, "duration": 83}, {"note": 66, "velocity": 81, "duration": 849}, {"note": 0, "velocity": 0, "duration": 831}, {"note": 76, "velocity": 84, "duration": 199}, {"note": 73, "velocity": 90, "duration": 732}, {"note": 71, "velocity": 75, "duration": 237}, {"note": 69, "velocity": 80, "duration": 195}, {"note": 71, "velocity": 81, "duration": 176}, {"note": 0, "velocity": 0, "duration": 64}, {"note": 71, "velocity": 79, "duration": 196}, {"note": 73, "velocity": 81, "duration": 250}, {"note": 66, "velocity": 80, "duration": 747}, {"note": 0, "velocity": 0, "duration": 213}, {"note": 64, "velocity": 83, "duration": 398}, {"note": 0, "velocity": 0, "duration": 82}, {"note": 64, "velocity": 82, "duration": 141}, {"note": 0, "velocity": 0, "duration": 99}, {"note": 66, "velocity": 77, "duration": 160}, {"note": 0, "velocity": 0, "duration": 80}, {"note": 69, "velocity": 83, "duration": 320}, {"note": 0, "velocity": 0, "duration": 160}, {"note": 69, "velocity": 83, "duration": 171}, {"note": 0, "velocity": 0, "duration": 69}, {"note": 71, "velocity": 84, "duration": 143}, {"note": 0, "velocity": 0, "duration": 97}, {"note": 73, "velocity": 86, "duration": 139}, {"note": 0, "velocity": 0, "duration": 101}, {"note": 76, "velocity": 72, "duration": 240}, {"note": 71, "velocity": 81, "duration": 376}, {"note": 0, "velocity": 0, "duration": 104}, {"note": 73, "velocity": 85, "duration": 785}, {"note": 0, "velocity": 0, "duration": 175}, {"note": 78, "velocity": 81, "duration": 640}, {"note": 0, "velocity": 0, "duration": 80}, {"note": 76, "velocity": 80, "duration": 179}, {"note": 0, "velocity": 0, "duration": 61}, {"note": 73, "velocity": 90, "duration": 572}, {"note": 0, "velocity": 0, "duration": 148}, {"note": 71, "velocity": 81, "duration": 199}, {"note": 69, "velocity": 82, "duration": 241}, {"note": 71, "velocity": 80, "duration": 141}, {"note": 0, "velocity": 0, "duration": 99}, {"note": 71, "velocity": 80, "duration": 180}, {"note": 73, "velocity": 80, "duration": 187}, {"note": 66, "velocity": 80, "duration": 564}, {"note": 0, "velocity": 0, "duration": 396}, {"note": 71, "velocity": 81, "duration": 445}, {"note": 71, "velocity": 81, "duration": 154}, {"note": 0, "velocity": 0, "duration": 86}, {"note": 73, "velocity": 86, "duration": 158}, {"note": 0, "velocity": 0, "duration": 82}, {"note": 76, "velocity": 81, "duration": 342}, {"note": 0, "velocity": 0, "duration": 138}, {"note": 76, "velocity": 76, "duration": 141}, {"note": 0, "velocity": 0, "duration": 99}, {"note": 73, "velocity": 82, "duration": 153}, {"note": 0, "velocity": 0, "duration": 87}, {"note": 71, "velocity": 78, "duration": 151}, {"note": 0, "velocity": 0, "duration": 89}, {"note": 69, "velocity": 78, "duration": 196}, {"note": 66, "velocity": 81, "duration": 147}, {"note": 0, "velocity": 0, "duration": 93}, {"note": 64, "velocity": 81, "duration": 157}, {"note": 0, "velocity": 0, "duration": 83}, {"note": 66, "velocity": 81, "duration": 849}, {"note": 0, "velocity": 0, "duration": 2031}, {"note": 78, "velocity": 90, "duration": 401}, {"note": 0, "velocity": 0, "duration": 79}, {"note": 81, "velocity": 86, "duration": 377}, {"note": 0, "velocity": 0, "duration": 103}, {"note": 78, "velocity": 83, "duration": 464}, {"note": 73, "velocity": 90, "duration": 192}, {"note": 76, "velocity": 81, "duration": 221}, {"note": 78, "velocity": 80, "duration": 220}, {"note": 81, "velocity": 83, "duration": 235}, {"note": 78, "velocity": 86, "duration": 220}, {"note": 76, "velocity": 82, "duration": 266}, {"note": 73, "velocity": 95, "duration": 807}, {"note": 0, "velocity": 0, "duration": 153}, {"note": 71, "velocity": 86, "duration": 373}, {"note": 0, "velocity": 0, "duration": 107}, {"note": 71, "velocity": 86, "duration": 182}, {"note": 73, "velocity": 90, "duration": 178}, {"note": 0, "velocity": 0, "duration": 62}, {"note": 76, "velocity": 81, "duration": 328}, {"note": 0, "velocity": 0, "duration": 152}, {"note": 76, "velocity": 79, "duration": 141}, {"note": 0, "velocity": 0, "duration": 99}, {"note": 78, "velocity": 82, "duration": 175}, {"note": 0, "velocity": 0, "duration": 65}, {"note": 73, "velocity": 93, "duration": 398}, {"note": 0, "velocity": 0, "duration": 82}, {"note": 73, "velocity": 84, "duration": 171}, {"note": 0, "velocity": 0, "duration": 69}, {"note": 71, "velocity": 80, "duration": 163}, {"note": 0, "velocity": 0, "duration": 77}, {"note": 73, "velocity": 84, "duration": 864}, {"note": 0, "velocity": 0, "duration": 96}, {"note": 78, "velocity": 85, "duration": 478}, {"note": 81, "velocity": 83, "duration": 309}, {"note": 0, "velocity": 0, "duration": 171}, {"note": 78, "velocity": 81, "duration": 460}, {"note": 73, "velocity": 85, "duration": 206}, {"note": 76, "velocity": 79, "duration": 232}, {"note": 78, "velocity": 79, "duration": 212}, {"note": 81, "velocity": 79, "duration": 192}, {"note": 78, "velocity": 85, "duration": 205}, {"note": 76, "velocity": 81, "duration": 208}, {"note": 73, "velocity": 86, "duration": 741}, {"note": 0, "velocity": 0, "duration": 219}, {"note": 71, "velocity": 81, "duration": 147}, {"note": 0, "velocity": 0, "duration": 93}, {"note": 71, "velocity": 81, "duration": 125}, {"note": 0, "velocity": 0, "duration": 115}, {"note": 71, "velocity": 82, "duration": 139}, {"note": 0, "velocity": 0, "duration": 101}, {"note": 73, "velocity": 90, "duration": 166}, {"note": 0, "velocity": 0, "duration": 74}, {"note": 76, "velocity": 79, "duration": 149}, {"note": 0, "velocity": 0, "duration": 91}, {"note": 76, "velocity": 79, "duration": 139}, {"note": 0, "velocity": 0, "duration": 101}, {"note": 76, "velocity": 82, "duration": 142}, {"note": 0, "velocity": 0, "duration": 98}, {"note": 78, "velocity": 83, "duration": 171}, {"note": 0, "velocity": 0, "duration": 69}, {"note": 80, "velocity": 80, "duration": 1985}, {"note": 0, "velocity": 0, "duration": 895}, {"note": 76, "velocity": 80, "duration": 995}, {"note": 78, "velocity": 90, "duration": 1837}, {"note": 0, "velocity": 0, "duration": 13523}, {"note": 78, "velocity": 85, "duration": 560}, {"note": 0, "velocity": 0, "duration": 160}, {"note": 76, "velocity": 84, "duration": 199}, {"note": 73, "velocity": 90, "duration": 732}, {"note": 71, "velocity": 75, "duration": 237}, {"note": 69, "velocity": 80, "duration": 195}, {"note": 71, "velocity": 81, "duration": 176}, {"note": 0, "velocity": 0, "duration": 64}, {"note": 71, "velocity": 79, "duration": 196}, {"note": 73, "velocity": 81, "duration": 250}, {"note": 66, "velocity": 80, "duration": 747}, {"note": 0, "velocity": 0, "duration": 213}, {"note": 64, "velocity": 83, "duration": 398}, {"note": 0, "velocity": 0, "duration": 82}, {"note": 64, "velocity": 82, "duration": 141}, {"note": 0, "velocity": 0, "duration": 99}, {"note": 66, "velocity": 77, "duration": 160}, {"note": 0, "velocity": 0, "duration": 80}, {"note": 69, "velocity": 83, "duration": 320}, {"note": 0, "velocity": 0, "duration": 160}, {"note": 69, "velocity": 83, "duration": 171}, {"note": 0, "velocity": 0, "duration": 69}, {"note": 71, "velocity": 84, "duration": 143}, {"note": 0, "velocity": 0, "duration": 97}, {"note": 73, "velocity": 86, "duration": 139}, {"note": 0, "velocity": 0, "duration": 101}, {"note": 76, "velocity": 72, "duration": 240}, {"note": 71, "velocity": 81, "duration": 376}, {"note": 0, "velocity": 0, "duration": 104}, {"note": 73, "velocity": 85, "duration": 785}, {"note": 0, "velocity": 0, "duration": 175}, {"note": 78, "velocity": 81, "duration": 640}, {"note": 0, "velocity": 0, "duration": 80}, {"note": 76, "velocity": 80, "duration": 179}, {"note": 0, "velocity": 0, "duration": 61}, {"note": 73, "velocity": 90, "duration": 572}, {"note": 0, "velocity": 0, "duration": 148}, {"note": 71, "velocity": 81, "duration": 199}, {"note": 69, "velocity": 82, "duration": 241}, {"note": 71, "velocity": 80, "duration": 141}, {"note": 0, "velocity": 0, "duration": 99}, {"note": 71, "velocity": 80, "duration": 180}, {"note": 73, "velocity": 80, "duration": 187}, {"note": 66, "velocity": 80, "duration": 564}, {"note": 0, "velocity": 0, "duration": 396}, {"note": 71, "velocity": 81, "duration": 445}, {"note": 71, "velocity": 81, "duration": 154}, {"note": 0, "velocity": 0, "duration": 86}, {"note": 73, "velocity": 86, "duration": 158}, {"note": 0, "velocity": 0, "duration": 82}, {"note": 76, "velocity": 81, "duration": 342}, {"note": 0, "velocity": 0, "duration": 138}, {"note": 76, "velocity": 76, "duration": 141}, {"note": 0, "velocity": 0, "duration": 99}, {"note": 73, "velocity": 82, "duration": 153}, {"note": 0, "velocity": 0, "duration": 87}, {"note": 71, "velocity": 78, "duration": 151}, {"note": 0, "velocity": 0, "duration": 89}, {"note": 69, "velocity": 78, "duration": 196}, {"note": 66, "velocity": 81, "duration": 147}, {"note": 0, "velocity": 0, "duration": 93}, {"note": 64, "velocity": 81, "duration": 157}, {"note": 0, "velocity": 0, "duration": 83}, {"note": 66, "velocity": 81, "duration": 849}, {"note": 0, "velocity": 0, "duration": 831}, {"note": 76, "velocity": 84, "duration": 199}, {"note": 73, "velocity": 90, "duration": 732}, {"note": 71, "velocity": 75, "duration": 237}, {"note": 69, "velocity": 80, "duration": 195}, {"note": 71, "velocity": 81, "duration": 176}, {"note": 0, "velocity": 0, "duration": 64}, {"note": 71, "velocity": 79, "duration": 196}, {"note": 73, "velocity": 81, "duration": 250}, {"note": 66, "velocity": 80, "duration": 747}, {"note": 0, "velocity": 0, "duration": 213}, {"note": 64, "velocity": 83, "duration": 398}, {"note": 0, "velocity": 0, "duration": 82}, {"note": 64, "velocity": 82, "duration": 141}, {"note": 0, "velocity": 0, "duration": 99}, {"note": 66, "velocity": 77, "duration": 160}, {"note": 0, "velocity": 0, "duration": 80}, {"note": 69, "velocity": 83, "duration": 320}, {"note": 0, "velocity": 0, "duration": 160}, {"note": 69, "velocity": 83, "duration": 171}, {"note": 0, "velocity": 0, "duration": 69}, {"note": 71, "velocity": 84, "duration": 143}, {"note": 0, "velocity": 0, "duration": 97}, {"note": 73, "velocity": 86, "duration": 139}, {"note": 0, "velocity": 0, "duration": 101}, {"note": 76, "velocity": 72, "duration": 240}, {"note": 71, "velocity": 81, "duration": 376}, {"note": 0, "velocity": 0, "duration": 104}, {"note": 73, "velocity": 85, "duration": 785}, {"note": 0, "velocity": 0, "duration": 175}, {"note": 78, "velocity": 81, "duration": 640}, {"note": 0, "velocity": 0, "duration": 80}, {"note": 76, "velocity": 80, "duration": 179}, {"note": 0, "velocity": 0, "duration": 61}, {"note": 73, "velocity": 90, "duration": 572}, {"note": 0, "velocity": 0, "duration": 148}, {"note": 71, "velocity": 81, "duration": 199}, {"note": 69, "velocity": 82, "duration": 241}, {"note": 71, "velocity": 80, "duration": 141}, {"note": 0, "velocity": 0, "duration": 99}, {"note": 71, "velocity": 80, "duration": 180}, {"note": 73, "velocity": 80, "duration": 187}, {"note": 66, "velocity": 80, "duration": 564}, {"note": 0, "velocity": 0, "duration": 396}, {"note": 71, "velocity": 81, "duration": 445}, {"note": 71, "velocity": 81, "duration": 154}, {"note": 0, "velocity": 0, "duration": 86}, {"note": 73, "velocity": 86, "duration": 158}, {"note": 0, "velocity": 0, "duration": 82}, {"note": 76, "velocity": 81, "duration": 342}, {"note": 0, "velocity": 0, "duration": 138}, {"note": 76, "velocity": 76, "duration": 141}, {"note": 0, "velocity": 0, "duration": 99}, {"note": 73, "velocity": 82, "duration": 153}, {"note": 0, "velocity": 0, "duration": 87}, {"note": 71, "velocity": 78, "duration": 151}, {"note": 0, "velocity": 0, "duration": 89}, {"note": 69, "velocity": 78, "duration": 196}, {"note": 66, "velocity": 81, "duration": 147}, {"note": 0, "velocity": 0, "duration": 93}, {"note": 64, "velocity": 81, "duration": 157}, {"note": 0, "velocity": 0, "duration": 83}, {"note": 66, "velocity": 81, "duration": 849}, {"note": 0, "velocity": 0, "duration": 2031}, {"note": 78, "velocity": 90, "duration": 401}, {"note": 0, "velocity": 0, "duration": 79}, {"note": 81, "velocity": 86, "duration": 377}, {"note": 0, "velocity": 0, "duration": 103}, {"note": 78, "velocity": 83, "duration": 464}, {"note": 73, "velocity": 90, "duration": 192}, {"note": 76, "velocity": 81, "duration": 221}, {"note": 78, "velocity": 80, "duration": 220}, {"note": 81, "velocity": 83, "duration": 235}, {"note": 78, "velocity": 86, "duration": 220}, {"note": 76, "velocity": 82, "duration": 266}, {"note": 73, "velocity": 95, "duration": 807}, {"note": 0, "velocity": 0, "duration": 153}, {"note": 71, "velocity": 86, "duration": 373}, {"note": 0, "velocity": 0, "duration": 107}, {"note": 71, "velocity": 86, "duration": 182}, {"note": 73, "velocity": 90, "duration": 178}, {"note": 0, "velocity": 0, "duration": 62}, {"note": 76, "velocity": 81, "duration": 328}, {"note": 0, "velocity": 0, "duration": 152}, {"note": 76, "velocity": 79, "duration": 141}, {"note": 0, "velocity": 0, "duration": 99}, {"note": 78, "velocity": 82, "duration": 175}, {"note": 0, "velocity": 0, "duration": 65}, {"note": 73, "velocity": 93, "duration": 398}, {"note": 0, "velocity": 0, "duration": 82}, {"note": 73, "velocity": 84, "duration": 171}, {"note": 0, "velocity": 0, "duration": 69}, {"note": 71, "velocity": 80, "duration": 163}, {"note": 0, "velocity": 0, "duration": 77}, {"note": 73, "velocity": 84, "duration": 864}, {"note": 0, "velocity": 0, "duration": 96}, {"note": 78, "velocity": 85, "duration": 478}, {"note": 81, "velocity": 83, "duration": 309}, {"note": 0, "velocity": 0, "duration": 171}, {"note": 78, "velocity": 81, "duration": 460}, {"note": 73, "velocity": 85, "duration": 206}, {"note": 76, "velocity": 79, "duration": 232}, {"note": 78, "velocity": 79, "duration": 212}, {"note": 81, "velocity": 79, "duration": 192}, {"note": 78, "velocity": 85, "duration": 205}, {"note": 76, "velocity": 81, "duration": 208}, {"note": 73, "velocity": 86, "duration": 741}, {"note": 0, "velocity": 0, "duration": 219}, {"note": 71, "velocity": 81, "duration": 147}, {"note": 0, "velocity": 0, "duration": 93}, {"note": 71, "velocity": 81, "duration": 125}, {"note": 0, "velocity": 0, "duration": 115}, {"note": 71, "velocity": 82, "duration": 139}, {"note": 0, "velocity": 0, "duration": 101}, {"note": 73, "velocity": 90, "duration": 166}, {"note": 0, "velocity": 0, "duration": 74}, {"note": 76, "velocity": 79, "duration": 149}, {"note": 0, "velocity": 0, "duration": 91}, {"note": 76, "velocity": 79, "duration": 139}, {"note": 0, "velocity": 0, "duration": 101}, {"note": 76, "velocity": 82, "duration": 142}, {"note": 0, "velocity": 0, "duration": 98}, {"note": 78, "velocity": 83, "duration": 171}, {"note": 0, "velocity": 0, "duration": 69}, {"note": 80, "velocity": 80, "duration": 1985}, {"note": 0, "velocity": 0, "duration": 895}, {"note": 76, "velocity": 80, "duration": 995}, {"note": 78, "velocity": 90, "duration": 1558}, {"note": 0, "velocity": 0, "duration": 362}, {"note": 78, "velocity": 90, "duration": 401}, {"note": 0, "velocity": 0, "duration": 79}, {"note": 81, "velocity": 86, "duration": 377}, {"note": 0, "velocity": 0, "duration": 103}, {"note": 78, "velocity": 83, "duration": 464}, {"note": 73, "velocity": 90, "duration": 192}, {"note": 76, "velocity": 81, "duration": 221}, {"note": 78, "velocity": 80, "duration": 220}, {"note": 81, "velocity": 83, "duration": 235}, {"note": 78, "velocity": 86, "duration": 220}, {"note": 76, "velocity": 82, "duration": 266}, {"note": 73, "velocity": 95, "duration": 807}, {"note": 0, "velocity": 0, "duration": 153}, {"note": 71, "velocity": 86, "duration": 373}, {"note": 0, "velocity": 0, "duration": 107}, {"note": 71, "velocity": 86, "duration": 182}, {"note": 73, "velocity": 90, "duration": 178}, {"note": 0, "velocity": 0, "duration": 62}, {"note": 76, "velocity": 81, "duration": 328}, {"note": 0, "velocity": 0, "duration": 152}, {"note": 76, "velocity": 79, "duration": 141}, {"note": 0, "velocity": 0, "duration": 99}, {"note": 78, "velocity": 82, "duration": 175}, {"note": 0, "velocity": 0, "duration": 65}, {"note": 73, "velocity": 93, "duration": 398}, {"note": 0, "velocity": 0, "duration": 82}, {"note": 73, "velocity": 84, "duration": 171}, {"note": 0, "velocity": 0, "duration": 69}, {"note": 71, "velocity": 80, "duration": 163}, {"note": 0, "velocity": 0, "duration": 77}, {"note": 73, "velocity": 84, "duration": 864}, {"note": 0, "velocity": 0, "duration": 96}, {"note": 78, "velocity": 85, "duration": 478}, {"note": 81, "velocity": 83, "duration": 309}, {"note": 0, "velocity": 0, "duration": 171}, {"note": 78, "velocity": 81, "duration": 460}, {"note": 73, "velocity": 85, "duration": 206}, {"note": 76, "velocity": 79, "duration": 232}, {"note": 78, "velocity": 79, "duration": 212}, {"note": 81, "velocity": 79, "duration": 192}, {"note": 78, "velocity": 85, "duration": 205}, {"note": 76, "velocity": 81, "duration": 208}, {"note": 73, "velocity": 86, "duration": 741}, {"note": 0, "velocity": 0, "duration": 219}, {"note": 71, "velocity": 81, "duration": 147}, {"note": 0, "velocity": 0, "duration": 93}, {"note": 71, "velocity": 81, "duration": 125}, {"note": 0, "velocity": 0, "duration": 115}, {"note": 71, "velocity": 82, "duration": 139}, {"note": 0, "velocity": 0, "duration": 101}, {"note": 73, "velocity": 90, "duration": 166}, {"note": 0, "velocity": 0, "duration": 74}, {"note": 76, "velocity": 79, "duration": 149}, {"note": 0, "velocity": 0, "duration": 91}, {"note": 76, "velocity": 79, "duration": 139}, {"note": 0, "velocity": 0, "duration": 101}, {"note": 76, "velocity": 82, "duration": 142}, {"note": 0, "velocity": 0, "duration": 98}, {"note": 78, "velocity": 83, "duration": 171}, {"note": 0, "velocity": 0, "duration": 69}, {"note": 80, "velocity": 80, "duration": 1985}, {"note": 0, "velocity": 0, "duration": 895}, {"note": 76, "velocity": 80, "duration": 995}, {"note": 78, "velocity": 90, "duration": 1837}]]