[[{"note": 68, "velocity": 83, "duration": 145}, {"note": 0, "velocity": 0, "duration": 95}, {"note": 70, "velocity": 85, "duration": 152}, {"note": 0, "velocity": 0, "duration": 88}, {"note": 73, "velocity": 85, "duration": 163}, {"note": 0, "velocity": 0, "duration": 77}, {"note": 75, "velocity": 89, "duration": 396}, {"note": 0, "velocity": 0, "duration": 84}, {"note": 73, "velocity": 84, "duration": 450}, {"note": 70, "velocity": 83, "duration": 449}, {"note": 75, "velocity": 72, "duration": 203}, {"note": 77, "velocity": 85, "duration": 157}, {"note": 0, "velocity": 0, "duration": 83}, {"note": 75, "velocity": 86, "duration": 381}, {"note": 0, "velocity": 0, "duration": 99}, {"note": 73, "velocity": 84, "duration": 452}, {"note": 68, "velocity": 76, "duration": 418}, {"note": 0, "velocity": 0, "duration": 62}, {"note": 70, "velocity": 85, "duration": 193}, {"note": 73, "velocity": 81, "duration": 162}, {"note": 0, "velocity": 0, "duration": 78}, {"note": 75, "velocity": 85, "duration": 586}, {"note": 0, "velocity": 0, "duration": 134}, {"note": 73, "velocity": 83, "duration": 180}, {"note": 70, "velocity": 84, "duration": 159}, {"note": 0, "velocity": 0, "duration": 81}, {"note": 68, "velocity": 82, "duration": 176}, {"note": 0, "velocity": 0, "duration": 64}, {"note": 70, "velocity": 86, "duration": 174}, {"note": 0, "velocity": 0, "duration": 66}, {"note": 77, "velocity": 85, "duration": 413}, {"note": 0, "velocity": 0, "duration": 67}, {"note": 77, "velocity": 83, "duration": 1198}, {"note": 0, "velocity": 0, "duration": 242}, {"note": 73, "velocity": 83, "duration": 159}, {"note": 0, "velocity": 0, "duration": 81}, {"note": 75, "velocity": 89, "duration": 342}, {"note": 0, "velocity": 0, "duration": 138}, {"note": 73, "velocity": 85, "duration": 495}, {"note": 70, "velocity": 83, "duration": 411}, {"note": 0, "velocity": 0, "duration": 69}, {"note": 75, "velocity": 85, "duration": 143}, {"note": 0, "velocity": 0, "duration": 97}, {"note": 77, "velocity": 80, "duration": 163}, {"note": 0, "velocity": 0, "duration": 77}, {"note": 75, "velocity": 89, "duration": 385}, {"note": 0, "velocity": 0, "duration": 95}, {"note": 73, "velocity": 85, "duration": 460}, {"note": 68, "velocity": 83, "duration": 400}, {"note": 0, "velocity": 0, "duration": 80}, {"note": 70, "velocity": 78, "duration": 179}, {"note": 0, "velocity": 0, "duration": 61}, {"note": 73, "velocity": 84, "duration": 163}, {"note": 0, "velocity": 0, "duration": 77}, {"note": 75, "velocity": 85, "duration": 693}, {"note": 73, "velocity": 78, "duration": 235}, {"note": 70, "velocity": 83, "duration": 448}, {"note": 77, "velocity": 84, "duration": 459}, {"note": 73, "velocity": 85, "duration": 1296}, {"note": 0, "velocity": 0, "duration": 384}, {"note": 73, "velocity": 85, "duration": 163}, {"note": 0, "velocity": 0, "duration": 77}, {"note": 75, "velocity": 89, "duration": 396}, {"note": 0, "velocity": 0, "duration": 84}, {"note": 73, "velocity": 84, "duration": 450}, {"note": 70, "velocity": 83, "duration": 449}, {"note": 75, "velocity": 72, "duration": 203}, {"note": 77, "velocity": 85, "duration": 157}, {"note": 0, "velocity": 0, "duration": 83}, {"note": 75, "velocity": 86, "duration": 381}, {"note": 0, "velocity": 0, "duration": 99}, {"note": 73, "velocity": 84, "duration": 452}, {"note": 68, "velocity": 76, "duration": 418}, {"note": 0, "velocity": 0, "duration": 62}, {"note": 70, "velocity": 85, "duration": 193}, {"note": 73, "velocity": 81, "duration": 162}, {"note": 0, "velocity": 0, "duration": 78}, {"note": 75, "velocity": 85, "duration": 478}, {"note": 73, "velocity": 83, "duration": 180}, {"note": 70, "velocity": 84, "duration": 159}, {"note": 0, "velocity": 0, "duration": 81}, {"note": 68, "velocity": 82, "duration": 478}, {"note": 80, "velocity": 85, "duration": 478}, {"note": 77, "velocity": 83, "duration": 1198}, {"note": 0, "velocity": 0, "duration": 482}, {"note": 73, "velocity": 83, "duration": 159}, {"note": 0, "velocity": 0, "duration": 81}, {"note": 75, "velocity": 89, "duration": 342}, {"note": 0, "velocity": 0, "duration": 138}, {"note": 73, "velocity": 85, "duration": 495}, {"note": 75, "velocity": 83, "duration": 411}, {"note": 0, "velocity": 0, "duration": 69}, {"note": 75, "velocity": 85, "duration": 143}, {"note": 0, "velocity": 0, "duration": 97}, {"note": 73, "velocity": 80, "duration": 163}, {"note": 0, "velocity": 0, "duration": 77}, {"note": 75, "velocity": 89, "duration": 385}, {"note": 0, "velocity": 0, "duration": 95}, {"note": 77, "velocity": 85, "duration": 460}, {"note": 77, "velocity": 83, "duration": 400}, {"note": 0, "velocity": 0, "duration": 80}, {"note": 75, "velocity": 78, "duration": 179}, {"note": 0, "velocity": 0, "duration": 61}, {"note": 73, "velocity": 84, "duration": 163}, {"note": 0, "velocity": 0, "duration": 77}, {"note": 70, "velocity": 85, "duration": 478}, {"note": 77, "velocity": 78, "duration": 478}, {"note": 75, "velocity": 83, "duration": 238}, {"note": 73, "velocity": 79, "duration": 220}, {"note": 70, "velocity": 84, "duration": 214}, {"note": 73, "velocity": 83, "duration": 2158}, {"note": 0, "velocity": 0, "duration": 1442}, {"note": 73, "velocity": 85, "duration": 187}, {"note": 75, "velocity": 89, "duration": 212}, {"note": 77, "velocity": 84, "duration": 476}, {"note": 82, "velocity": 86, "duration": 362}, {"note": 0, "velocity": 0, "duration": 118}, {"note": 80, "velocity": 86, "duration": 210}, {"note": 77, "velocity": 85, "duration": 208}, {"note": 75, "velocity": 85, "duration": 219}, {"note": 73, "velocity": 84, "duration": 262}, {"note": 75, "velocity": 92, "duration": 485}, {"note": 77, "velocity": 84, "duration": 421}, {"note": 77, "velocity": 85, "duration": 391}, {"note": 0, "velocity": 0, "duration": 89}, {"note": 75, "velocity": 92, "duration": 197}, {"note": 73, "velocity": 85, "duration": 191}, {"note": 70, "velocity": 86, "duration": 194}, {"note": 82, "velocity": 85, "duration": 155}, {"note": 0, "velocity": 0, "duration": 85}, {"note": 82, "velocity": 84, "duration": 176}, {"note": 0, "velocity": 0, "duration": 64}, {"note": 82, "velocity": 84, "duration": 159}, {"note": 0, "velocity": 0, "duration": 81}, {"note": 80, "velocity": 84, "duration": 159}, {"note": 0, "velocity": 0, "duration": 81}, {"note": 77, "velocity": 87, "duration": 221}, {"note": 75, "velocity": 92, "duration": 205}, {"note": 80, "velocity": 85, "duration": 440}, {"note": 77, "velocity": 87, "duration": 1043}, {"note": 0, "velocity": 0, "duration": 157}, {"note": 73, "velocity": 85, "duration": 187}, {"note": 75, "velocity": 89, "duration": 212}, {"note": 77, "velocity": 84, "duration": 476}, {"note": 82, "velocity": 86, "duration": 362}, {"note": 0, "velocity": 0, "duration": 118}, {"note": 80, "velocity": 86, "duration": 210}, {"note": 77, "velocity": 85, "duration": 208}, {"note": 75, "velocity": 85, "duration": 219}, {"note": 73, "velocity": 84, "duration": 262}, {"note": 75, "velocity": 92, "duration": 485}, {"note": 77, "velocity": 84, "duration": 421}, {"note": 77, "velocity": 85, "duration": 391}, {"note": 0, "velocity": 0, "duration": 89}, {"note": 75, "velocity": 92, "duration": 197}, {"note": 73, "velocity": 85, "duration": 191}, {"note": 70, "velocity": 86, "duration": 194}, {"note": 77, "velocity": 85, "duration": 155}, {"note": 0, "velocity": 0, "duration": 85}, {"note": 77, "velocity": 84, "duration": 176}, {"note": 0, "velocity": 0, "duration": 64}, {"note": 77, "velocity": 84, "duration": 159}, {"note": 0, "velocity": 0, "duration": 81}, {"note": 75, "velocity": 84, "duration": 478}, {"note": 73, "velocity": 84, "duration": 220}, {"note": 70, "velocity": 83, "duration": 254}, {"note": 75, "velocity": 85, "duration": 471}, {"note": 73, "velocity": 83, "duration": 1398}, {"note": 0, "velocity": 0, "duration": 7002}, {"note": 68, "velocity": 83, "duration": 145}, {"note": 0, "velocity": 0, "duration": 95}, {"note": 70, "velocity": 85, "duration": 152}, {"note": 0, "velocity": 0, "duration": 88}, {"note": 73, "velocity": 85, "duration": 163}, {"note": 0, "velocity": 0, "duration": 77}, {"note": 75, "velocity": 89, "duration": 396}, {"note": 0, "velocity": 0, "duration": 84}, {"note": 73, "velocity": 84, "duration": 450}, {"note": 70, "velocity": 83, "duration": 449}, {"note": 75, "velocity": 72, "duration": 203}, {"note": 77, "velocity": 85, "duration": 157}, {"note": 0, "velocity": 0, "duration": 83}, {"note": 75, "velocity": 86, "duration": 381}, {"note": 0, "velocity": 0, "duration": 99}, {"note": 73, "velocity": 84, "duration": 452}, {"note": 68, "velocity": 76, "duration": 418}, {"note": 0, "velocity": 0, "duration": 62}, {"note": 70, "velocity": 85, "duration": 193}, {"note": 73, "velocity": 81, "duration": 162}, {"note": 0, "velocity": 0, "duration": 78}, {"note": 75, "velocity": 85, "duration": 586}, {"note": 0, "velocity": 0, "duration": 134}, {"note": 73, "velocity": 83, "duration": 180}, {"note": 70, "velocity": 84, "duration": 159}, {"note": 0, "velocity": 0, "duration": 81}, {"note": 68, "velocity": 82, "duration": 176}, {"note": 0, "velocity": 0, "duration": 64}, {"note": 70, "velocity": 86, "duration": 174}, {"note": 0, "velocity": 0, "duration": 66}, {"note": 77, "velocity": 85, "duration": 413}, {"note": 0, "velocity": 0, "duration": 67}, {"note": 77, "velocity": 83, "duration": 1198}, {"note": 0, "velocity": 0, "duration": 242}, {"note": 73, "velocity": 83, "duration": 159}, {"note": 0, "velocity": 0, "duration": 81}, {"note": 75, "velocity": 89, "duration": 342}, {"note": 0, "velocity": 0, "duration": 138}, {"note": 73, "velocity": 85, "duration": 495}, {"note": 70, "velocity": 83, "duration": 411}, {"note": 0, "velocity": 0, "duration": 69}, {"note": 75, "velocity": 85, "duration": 143}, {"note": 0, "velocity": 0, "duration": 97}, {"note": 77, "velocity": 80, "duration": 163}, {"note": 0, "velocity": 0, "duration": 77}, {"note": 75, "velocity": 89, "duration": 385}, {"note": 0, "velocity": 0, "duration": 95}, {"note": 73, "velocity": 85, "duration": 460}, {"note": 68, "velocity": 83, "duration": 400}, {"note": 0, "velocity": 0, "duration": 80}, {"note": 70, "velocity": 78, "duration": 179}, {"note": 0, "velocity": 0, "duration": 61}, {"note": 73, "velocity": 84, "duration": 163}, {"note": 0, "velocity": 0, "duration": 77}, {"note": 75, "velocity": 85, "duration": 693}, {"note": 73, "velocity": 78, "duration": 235}, {"note": 70, "velocity": 83, "duration": 448}, {"note": 77, "velocity": 84, "duration": 459}, {"note": 73, "velocity": 85, "duration": 1296}, {"note": 0, "velocity": 0, "duration": 384}, {"note": 73, "velocity": 85, "duration": 163}, {"note": 0, "velocity": 0, "duration": 77}, {"note": 75, "velocity": 89, "duration": 396}, {"note": 0, "velocity": 0, "duration": 84}, {"note": 73, "velocity": 84, "duration": 450}, {"note": 70, "velocity": 83, "duration": 449}, {"note": 75, "velocity": 72, "duration": 203}, {"note": 77, "velocity": 85, "duration": 157}, {"note": 0, "velocity": 0, "duration": 83}, {"note": 75, "velocity": 86, "duration": 381}, {"note": 0, "velocity": 0, "duration": 99}, {"note": 73, "velocity": 84, "duration": 452}, {"note": 68, "velocity": 76, "duration": 418}, {"note": 0, "velocity": 0, "duration": 62}, {"note": 70, "velocity": 85, "duration": 193}, {"note": 73, "velocity": 81, "duration": 162}, {"note": 0, "velocity": 0, "duration": 78}, {"note": 75, "velocity": 85, "duration": 478}, {"note": 73, "velocity": 83, "duration": 180}, {"note": 70, "velocity": 84, "duration": 159}, {"note": 0, "velocity": 0, "duration": 81}, {"note": 68, "velocity": 82, "duration": 478}, {"note": 80, "velocity": 85, "duration": 478}, {"note": 77, "velocity": 83, "duration": 1198}, {"note": 0, "velocity": 0, "duration": 482}, {"note": 73, "velocity": 83, "duration": 159}, {"note": 0, "velocity": 0, "duration": 81}, {"note": 75, "velocity": 89, "duration": 342}, {"note": 0, "velocity": 0, "duration": 138}, {"note": 73, "velocity": 85, "duration": 495}, {"note": 75, "velocity": 83, "duration": 411}, {"note": 0, "velocity": 0, "duration": 69}, {"note": 75, "velocity": 85, "duration": 143}, {"note": 0, "velocity": 0, "duration": 97}, {"note": 73, "velocity": 80, "duration": 163}, {"note": 0, "velocity": 0, "duration": 77}, {"note": 75, "velocity": 89, "duration": 385}, {"note": 0, "velocity": 0, "duration": 95}, {"note": 77, "velocity": 85, "duration": 460}, {"note": 77, "velocity": 83, "duration": 400}, {"note": 0, "velocity": 0, "duration": 80}, {"note": 75, "velocity": 78, "duration": 179}, {"note": 0, "velocity": 0, "duration": 61}, {"note": 73, "velocity": 84, "duration": 163}, {"note": 0, "velocity": 0, "duration": 77}, {"note": 70, "velocity": 85, "duration": 478}, {"note": 77, "velocity": 78, "duration": 478}, {"note": 75, "velocity": 83, "duration": 238}, {"note": 73, "velocity": 79, "duration": 220}, {"note": 70, "velocity": 84, "duration": 214}, {"note": 73, "velocity": 83, "duration": 2158}, {"note": 0, "velocity": 0, "duration": 1442}, {"note": 73, "velocity": 85, "duration": 187}, {"note": 75, "velocity": 89, "duration": 212}, {"note": 77, "velocity": 84, "duration": 476}, {"note": 82, "velocity": 86, "duration": 362}, {"note": 0, "velocity": 0, "duration": 118}, {"note": 80, "velocity": 86, "duration": 210}, {"note": 77, "velocity": 85, "duration": 208}, {"note": 75, "velocity": 85, "duration": 219}, {"note": 73, "velocity": 84, "duration": 262}, {"note": 75, "velocity": 92, "duration": 485}, {"note": 77, "velocity": 84, "duration": 421}, {"note": 77, "velocity": 85, "duration": 391}, {"note": 0, "velocity": 0, "duration": 89}, {"note": 75, "velocity": 92, "duration": 197}, {"note": 73, "velocity": 85, "duration": 191}, {"note": 70, "velocity": 86, "duration": 194}, {"note": 82, "velocity": 85, "duration": 155}, {"note": 0, "velocity": 0, "duration": 85}, {"note": 82, "velocity": 84, "duration": 176}, {"note": 0, "velocity": 0, "duration": 64}, {"note": 82, "velocity": 84, "duration": 159}, {"note": 0, "velocity": 0, "duration": 81}, {"note": 80, "velocity": 84, "duration": 159}, {"note": 0, "velocity": 0, "duration": 81}, {"note": 77, "velocity": 87, "duration": 221}, {"note": 75, "velocity": 92, "duration": 205}, {"note": 80, "velocity": 85, "duration": 440}, {"note": 77, "velocity": 87, "duration": 1043}, {"note": 0, "velocity": 0, "duration": 157}, {"note": 73, "velocity": 85, "duration": 187}, {"note": 75, "velocity": 89, "duration": 212}, {"note": 77, "velocity": 84, "duration": 476}, {"note": 82, "velocity": 86, "duration": 362}, {"note": 0, "velocity": 0, "duration": 118}, {"note": 80, "velocity": 86, "duration": 210}, {"note": 77, "velocity": 85, "duration": 208}, {"note": 75, "velocity": 85, "duration": 219}, {"note": 73, "velocity": 84, "duration": 262}, {"note": 75, "velocity": 92, "duration": 485}, {"note": 77, "velocity": 84, "duration": 421}, {"note": 77, "velocity": 85, "duration": 391}, {"note": 0, "velocity": 0, "duration": 89}, {"note": 75, "velocity": 92, "duration": 197}, {"note": 73, "velocity": 85, "duration": 191}, {"note": 70, "velocity": 86, "duration": 194}, {"note": 77, "velocity": 85, "duration": 155}, {"note": 0, "velocity": 0, "duration": 85}, {"note": 77, "velocity": 84, "duration": 176}, {"note": 0, "velocity": 0, "duration": 64}, {"note": 77, "velocity": 84, "duration": 159}, {"note": 0, "velocity": 0, "duration": 81}, {"note": 75, "velocity": 84, "duration": 478}, {"note": 73, "velocity": 84, "duration": 220}, {"note": 70, "velocity": 83, "duration": 254}, {"note": 75, "velocity": 85, "duration": 471}, {"note": 73, "velocity": 83, "duration": 718}, {"note": 0, "velocity": 0, "duration": 242}, {"note": 73, "velocity": 85, "duration": 187}, {"note": 75, "velocity": 89, "duration": 212}, {"note": 77, "velocity": 84, "duration": 476}, {"note": 82, "velocity": 86, "duration": 362}, {"note": 0, "velocity": 0, "duration": 118}, {"note": 80, "velocity": 86, "duration": 210}, {"note": 77, "velocity": 85, "duration": 208}, {"note": 75, "velocity": 85, "duration": 219}, {"note": 73, "velocity": 84, "duration": 262}, {"note": 75, "velocity": 92, "duration": 485}, {"note": 77, "velocity": 84, "duration": 421}, {"note": 77, "velocity": 85, "duration": 391}, {"note": 0, "velocity": 0, "duration": 89}, {"note": 75, "velocity": 92, "duration": 197}, {"note": 73, "velocity": 85, "duration": 191}, {"note": 70, "velocity": 86, "duration": 194}, {"note": 82, "velocity": 85, "duration": 155}, {"note": 0, "velocity": 0, "duration": 85}, {"note": 82, "velocity": 84, "duration": 176}, {"note": 0, "velocity": 0, "duration": 64}, {"note": 82, "velocity": 84, "duration": 159}, {"note": 0, "velocity": 0, "duration": 81}, {"note": 80, "velocity": 84, "duration": 159}, {"note": 0, "velocity": 0, "duration": 81}, {"note": 77, "velocity": 87, "duration": 221}, {"note": 75, "velocity": 92, "duration": 205}, {"note": 80, "velocity": 85, "duration": 440}, {"note": 77, "velocity": 87, "duration": 1043}, {"note": 0, "velocity": 0, "duration": 157}, {"note": 73, "velocity": 85, "duration": 187}, {"note": 75, "velocity": 89, "duration": 212}, {"note": 77, "velocity": 84, "duration": 476}, {"note": 82, "velocity": 86, "duration": 362}, {"note": 0, "velocity": 0, "duration": 118}, {"note": 80, "velocity": 86, "duration": 210}, {"note": 77, "velocity": 85, "duration": 208}, {"note": 75, "velocity": 85, "duration": 219}, {"note": 73, "velocity": 84, "duration": 262}, {"note": 75, "velocity": 92, "duration": 485}, {"note": 77, "velocity": 84, "duration": 421}, {"note": 77, "velocity": 85, "duration": 391}, {"note": 0, "velocity": 0, "duration": 89}, {"note": 75, "velocity": 92, "duration": 197}, {"note": 73, "velocity": 85, "duration": 191}, {"note": 70, "velocity": 86, "duration": 194}, {"note": 77, "velocity": 85, "duration": 155}, {"note": 0, "velocity": 0, "duration": 85}, {"note": 77, "velocity": 84, "duration": 176}, {"note": 0, "velocity": 0, "duration": 64}, {"note": 77, "velocity": 84, "duration": 159}, {"note": 0, "velocity": 0, "duration": 81}, {"note": 75, "velocity": 84, "duration": 478}, {"note": 73, "velocity": 84, "duration": 220}, {"note": 70, "velocity": 83, "duration": 254}, {"note": 75, "velocity": 85, "duration": 471}, {"note": 73, "velocity": 83, "duration": 1398}]]