[[{"note": 64, "velocity": 87, "duration": 215}, {"note": 67, "velocity": 84, "duration": 353}, {"note": 0, "velocity": 0, "duration": 127}, {"note": 64, "velocity": 87, "duration": 195}, {"note": 69, "velocity": 79, "duration": 218}, {"note": 67, "velocity": 85, "duration": 162}, {"note": 0, "velocity": 0, "duration": 78}, {"note": 64, "velocity": 86, "duration": 166}, {"note": 0, "velocity": 0, "duration": 74}, {"note": 62, "velocity": 78, "duration": 480}, {"note": 60, "velocity": 85, "duration": 1178}, {"note": 0, "velocity": 0, "duration": 502}, {"note": 69, "velocity": 84, "duration": 197}, {"note": 72, "velocity": 86, "duration": 432}, {"note": 69, "velocity": 85, "duration": 139}, {"note": 0, "velocity": 0, "duration": 101}, {"note": 69, "velocity": 83, "duration": 175}, {"note": 0, "velocity": 0, "duration": 65}, {"note": 67, "velocity": 73, "duration": 166}, {"note": 0, "velocity": 0, "duration": 74}, {"note": 67, "velocity": 86, "duration": 473}, {"note": 64, "velocity": 84, "duration": 358}, {"note": 67, "velocity": 80, "duration": 1374}, {"note": 0, "velocity": 0, "duration": 186}, {"note": 69, "velocity": 84, "duration": 237}, {"note": 67, "velocity": 83, "duration": 251}, {"note": 69, "velocity": 84, "duration": 228}, {"note": 72, "velocity": 83, "duration": 192}, {"note": 74, "velocity": 86, "duration": 212}, {"note": 76, "velocity": 84, "duration": 180}, {"note": 71, "velocity": 83, "duration": 201}, {"note": 69, "velocity": 84, "duration": 233}, {"note": 67, "velocity": 84, "duration": 590}, {"note": 0, "velocity": 0, "duration": 130}, {"note": 64, "velocity": 84, "duration": 176}, {"note": 0, "velocity": 0, "duration": 64}, {"note": 64, "velocity": 86, "duration": 738}, {"note": 0, "velocity": 0, "duration": 462}, {"note": 62, "velocity": 80, "duration": 180}, {"note": 64, "velocity": 87, "duration": 151}, {"note": 0, "velocity": 0, "duration": 89}, {"note": 67, "velocity": 83, "duration": 233}, {"note": 69, "velocity": 81, "duration": 594}, {"note": 0, "velocity": 0, "duration": 126}, {"note": 64, "velocity": 84, "duration": 450}, {"note": 62, "velocity": 81, "duration": 1522}, {"note": 0, "velocity": 0, "duration": 158}, {"note": 64, "velocity": 87, "duration": 215}, {"note": 67, "velocity": 84, "duration": 353}, {"note": 0, "velocity": 0, "duration": 127}, {"note": 64, "velocity": 87, "duration": 195}, {"note": 69, "velocity": 79, "duration": 218}, {"note": 67, "velocity": 85, "duration": 162}, {"note": 0, "velocity": 0, "duration": 78}, {"note": 64, "velocity": 86, "duration": 166}, {"note": 0, "velocity": 0, "duration": 74}, {"note": 62, "velocity": 78, "duration": 480}, {"note": 60, "velocity": 85, "duration": 1178}, {"note": 0, "velocity": 0, "duration": 502}, {"note": 69, "velocity": 84, "duration": 197}, {"note": 72, "velocity": 86, "duration": 432}, {"note": 69, "velocity": 85, "duration": 139}, {"note": 0, "velocity": 0, "duration": 101}, {"note": 69, "velocity": 83, "duration": 175}, {"note": 0, "velocity": 0, "duration": 65}, {"note": 67, "velocity": 73, "duration": 166}, {"note": 0, "velocity": 0, "duration": 74}, {"note": 67, "velocity": 86, "duration": 240}, {"note": 64, "velocity": 84, "duration": 240}, {"note": 69, "velocity": 84, "duration": 360}, {"note": 67, "velocity": 80, "duration": 1374}, {"note": 0, "velocity": 0, "duration": 186}, {"note": 69, "velocity": 84, "duration": 237}, {"note": 67, "velocity": 83, "duration": 251}, {"note": 69, "velocity": 84, "duration": 228}, {"note": 72, "velocity": 83, "duration": 192}, {"note": 74, "velocity": 86, "duration": 212}, {"note": 76, "velocity": 84, "duration": 180}, {"note": 71, "velocity": 83, "duration": 201}, {"note": 69, "velocity": 84, "duration": 233}, {"note": 67, "velocity": 84, "duration": 240}, {"note": 64, "velocity": 78, "duration": 240}, {"note": 67, "velocity": 78, "duration": 240}, {"note": 74, "velocity": 84, "duration": 480}, {"note": 64, "velocity": 86, "duration": 738}, {"note": 0, "velocity": 0, "duration": 222}, {"note": 62, "velocity": 80, "duration": 180}, {"note": 64, "velocity": 87, "duration": 151}, {"note": 0, "velocity": 0, "duration": 89}, {"note": 67, "velocity": 83, "duration": 233}, {"note": 69, "velocity": 81, "duration": 240}, {"note": 67, "velocity": 84, "duration": 240}, {"note": 64, "velocity": 78, "duration": 240}, {"note": 62, "velocity": 78, "duration": 480}, {"note": 60, "velocity": 81, "duration": 1522}, {"note": 0, "velocity": 0, "duration": 1838}, {"note": 67, "velocity": 86, "duration": 190}, {"note": 69, "velocity": 87, "duration": 290}, {"note": 0, "velocity": 0, "duration": 70}, {"note": 76, "velocity": 88, "duration": 266}, {"note": 0, "velocity": 0, "duration": 94}, {"note": 67, "velocity": 85, "duration": 197}, {"note": 69, "velocity": 86, "duration": 286}, {"note": 0, "velocity": 0, "duration": 74}, {"note": 76, "velocity": 87, "duration": 252}, {"note": 0, "velocity": 0, "duration": 108}, {"note": 72, "velocity": 83, "duration": 240}, {"note": 74, "velocity": 89, "duration": 960}, {"note": 0, "velocity": 0, "duration": 240}, {"note": 76, "velocity": 88, "duration": 187}, {"note": 74, "velocity": 93, "duration": 203}, {"note": 72, "velocity": 86, "duration": 175}, {"note": 0, "velocity": 0, "duration": 65}, {"note": 67, "velocity": 88, "duration": 249}, {"note": 0, "velocity": 0, "duration": 111}, {"note": 74, "velocity": 93, "duration": 271}, {"note": 0, "velocity": 0, "duration": 89}, {"note": 64, "velocity": 88, "duration": 167}, {"note": 0, "velocity": 0, "duration": 73}, {"note": 67, "velocity": 85, "duration": 259}, {"note": 0, "velocity": 0, "duration": 101}, {"note": 74, "velocity": 88, "duration": 282}, {"note": 0, "velocity": 0, "duration": 78}, {"note": 67, "velocity": 83, "duration": 203}, {"note": 72, "velocity": 85, "duration": 1036}, {"note": 0, "velocity": 0, "duration": 164}, {"note": 72, "velocity": 88, "duration": 208}, {"note": 74, "velocity": 89, "duration": 196}, {"note": 76, "velocity": 88, "duration": 201}, {"note": 79, "velocity": 86, "duration": 351}, {"note": 0, "velocity": 0, "duration": 129}, {"note": 81, "velocity": 86, "duration": 211}, {"note": 76, "velocity": 88, "duration": 443}, {"note": 74, "velocity": 91, "duration": 562}, {"note": 0, "velocity": 0, "duration": 398}, {"note": 74, "velocity": 90, "duration": 225}, {"note": 72, "velocity": 84, "duration": 262}, {"note": 74, "velocity": 91, "duration": 255}, {"note": 76, "velocity": 86, "duration": 330}, {"note": 79, "velocity": 84, "duration": 348}, {"note": 76, "velocity": 88, "duration": 2161}, {"note": 0, "velocity": 0, "duration": 239}, {"note": 74, "velocity": 86, "duration": 159}, {"note": 0, "velocity": 0, "duration": 81}, {"note": 74, "velocity": 88, "duration": 185}, {"note": 76, "velocity": 86, "duration": 199}, {"note": 74, "velocity": 90, "duration": 215}, {"note": 72, "velocity": 85, "duration": 210}, {"note": 69, "velocity": 85, "duration": 230}, {"note": 72, "velocity": 86, "duration": 231}, {"note": 74, "velocity": 88, "duration": 353}, {"note": 76, "velocity": 85, "duration": 297}, {"note": 0, "velocity": 0, "duration": 63}, {"note": 69, "velocity": 85, "duration": 213}, {"note": 74, "velocity": 86, "duration": 297}, {"note": 0, "velocity": 0, "duration": 63}, {"note": 76, "velocity": 85, "duration": 338}, {"note": 72, "velocity": 85, "duration": 228}, {"note": 74, "velocity": 88, "duration": 1050}, {"note": 0, "velocity": 0, "duration": 150}, {"note": 76, "velocity": 86, "duration": 159}, {"note": 0, "velocity": 0, "duration": 81}, {"note": 74, "velocity": 88, "duration": 177}, {"note": 0, "velocity": 0, "duration": 63}, {"note": 72, "velocity": 85, "duration": 188}, {"note": 67, "velocity": 88, "duration": 278}, {"note": 0, "velocity": 0, "duration": 82}, {"note": 74, "velocity": 89, "duration": 264}, {"note": 0, "velocity": 0, "duration": 96}, {"note": 64, "velocity": 90, "duration": 192}, {"note": 67, "velocity": 86, "duration": 267}, {"note": 0, "velocity": 0, "duration": 93}, {"note": 74, "velocity": 95, "duration": 256}, {"note": 0, "velocity": 0, "duration": 104}, {"note": 76, "velocity": 88, "duration": 169}, {"note": 0, "velocity": 0, "duration": 71}, {"note": 76, "velocity": 90, "duration": 991}, {"note": 0, "velocity": 0, "duration": 209}, {"note": 72, "velocity": 86, "duration": 225}, {"note": 69, "velocity": 85, "duration": 282}, {"note": 72, "velocity": 84, "duration": 274}, {"note": 74, "velocity": 88, "duration": 510}, {"note": 76, "velocity": 90, "duration": 219}, {"note": 74, "velocity": 91, "duration": 353}, {"note": 0, "velocity": 0, "duration": 127}, {"note": 72, "velocity": 85, "duration": 223}, {"note": 69, "velocity": 84, "duration": 249}, {"note": 72, "velocity": 85, "duration": 248}, {"note": 74, "velocity": 87, "duration": 415}, {"note": 0, "velocity": 0, "duration": 65}, {"note": 76, "velocity": 85, "duration": 226}, {"note": 79, "velocity": 85, "duration": 244}, {"note": 76, "velocity": 89, "duration": 480}, {"note": 74, "velocity": 90, "duration": 422}, {"note": 72, "velocity": 84, "duration": 1886}, {"note": 0, "velocity": 0, "duration": 13474}, {"note": 64, "velocity": 87, "duration": 215}, {"note": 67, "velocity": 84, "duration": 353}, {"note": 0, "velocity": 0, "duration": 127}, {"note": 64, "velocity": 87, "duration": 195}, {"note": 69, "velocity": 79, "duration": 218}, {"note": 67, "velocity": 85, "duration": 162}, {"note": 0, "velocity": 0, "duration": 78}, {"note": 64, "velocity": 86, "duration": 166}, {"note": 0, "velocity": 0, "duration": 74}, {"note": 62, "velocity": 78, "duration": 480}, {"note": 60, "velocity": 85, "duration": 1178}, {"note": 0, "velocity": 0, "duration": 502}, {"note": 69, "velocity": 84, "duration": 197}, {"note": 72, "velocity": 86, "duration": 432}, {"note": 69, "velocity": 85, "duration": 139}, {"note": 0, "velocity": 0, "duration": 101}, {"note": 69, "velocity": 83, "duration": 175}, {"note": 0, "velocity": 0, "duration": 65}, {"note": 67, "velocity": 73, "duration": 166}, {"note": 0, "velocity": 0, "duration": 74}, {"note": 67, "velocity": 86, "duration": 473}, {"note": 64, "velocity": 84, "duration": 358}, {"note": 67, "velocity": 80, "duration": 1374}, {"note": 0, "velocity": 0, "duration": 186}, {"note": 69, "velocity": 84, "duration": 237}, {"note": 67, "velocity": 83, "duration": 251}, {"note": 69, "velocity": 84, "duration": 228}, {"note": 72, "velocity": 83, "duration": 192}, {"note": 74, "velocity": 86, "duration": 212}, {"note": 76, "velocity": 84, "duration": 180}, {"note": 71, "velocity": 83, "duration": 201}, {"note": 69, "velocity": 84, "duration": 233}, {"note": 67, "velocity": 84, "duration": 590}, {"note": 0, "velocity": 0, "duration": 130}, {"note": 64, "velocity": 84, "duration": 176}, {"note": 0, "velocity": 0, "duration": 64}, {"note": 64, "velocity": 86, "duration": 738}, {"note": 0, "velocity": 0, "duration": 462}, {"note": 62, "velocity": 80, "duration": 180}, {"note": 64, "velocity": 87, "duration": 151}, {"note": 0, "velocity": 0, "duration": 89}, {"note": 67, "velocity": 83, "duration": 233}, {"note": 69, "velocity": 81, "duration": 594}, {"note": 0, "velocity": 0, "duration": 126}, {"note": 64, "velocity": 84, "duration": 450}, {"note": 62, "velocity": 81, "duration": 1522}, {"note": 0, "velocity": 0, "duration": 158}, {"note": 64, "velocity": 87, "duration": 215}, {"note": 67, "velocity": 84, "duration": 353}, {"note": 0, "velocity": 0, "duration": 127}, {"note": 64, "velocity": 87, "duration": 195}, {"note": 69, "velocity": 79, "duration": 218}, {"note": 67, "velocity": 85, "duration": 162}, {"note": 0, "velocity": 0, "duration": 78}, {"note": 64, "velocity": 86, "duration": 166}, {"note": 0, "velocity": 0, "duration": 74}, {"note": 62, "velocity": 78, "duration": 480}, {"note": 60, "velocity": 85, "duration": 1178}, {"note": 0, "velocity": 0, "duration": 502}, {"note": 69, "velocity": 84, "duration": 197}, {"note": 72, "velocity": 86, "duration": 432}, {"note": 69, "velocity": 85, "duration": 139}, {"note": 0, "velocity": 0, "duration": 101}, {"note": 69, "velocity": 83, "duration": 175}, {"note": 0, "velocity": 0, "duration": 65}, {"note": 67, "velocity": 73, "duration": 166}, {"note": 0, "velocity": 0, "duration": 74}, {"note": 67, "velocity": 86, "duration": 240}, {"note": 64, "velocity": 84, "duration": 240}, {"note": 69, "velocity": 84, "duration": 360}, {"note": 67, "velocity": 80, "duration": 1374}, {"note": 0, "velocity": 0, "duration": 186}, {"note": 69, "velocity": 84, "duration": 237}, {"note": 67, "velocity": 83, "duration": 251}, {"note": 69, "velocity": 84, "duration": 228}, {"note": 72, "velocity": 83, "duration": 192}, {"note": 74, "velocity": 86, "duration": 212}, {"note": 76, "velocity": 84, "duration": 180}, {"note": 71, "velocity": 83, "duration": 201}, {"note": 69, "velocity": 84, "duration": 233}, {"note": 67, "velocity": 84, "duration": 240}, {"note": 64, "velocity": 78, "duration": 240}, {"note": 67, "velocity": 78, "duration": 240}, {"note": 74, "velocity": 84, "duration": 480}, {"note": 64, "velocity": 86, "duration": 738}, {"note": 0, "velocity": 0, "duration": 222}, {"note": 62, "velocity": 80, "duration": 180}, {"note": 64, "velocity": 87, "duration": 151}, {"note": 0, "velocity": 0, "duration": 89}, {"note": 67, "velocity": 83, "duration": 233}, {"note": 69, "velocity": 81, "duration": 240}, {"note": 67, "velocity": 84, "duration": 240}, {"note": 64, "velocity": 78, "duration": 240}, {"note": 62, "velocity": 78, "duration": 480}, {"note": 60, "velocity": 81, "duration": 1522}, {"note": 0, "velocity": 0, "duration": 1838}, {"note": 67, "velocity": 86, "duration": 190}, {"note": 69, "velocity": 87, "duration": 290}, {"note": 0, "velocity": 0, "duration": 70}, {"note": 76, "velocity": 88, "duration": 266}, {"note": 0, "velocity": 0, "duration": 94}, {"note": 67, "velocity": 85, "duration": 197}, {"note": 69, "velocity": 86, "duration": 286}, {"note": 0, "velocity": 0, "duration": 74}, {"note": 76, "velocity": 87, "duration": 252}, {"note": 0, "velocity": 0, "duration": 108}, {"note": 72, "velocity": 83, "duration": 240}, {"note": 74, "velocity": 89, "duration": 960}, {"note": 0, "velocity": 0, "duration": 240}, {"note": 76, "velocity": 88, "duration": 187}, {"note": 74, "velocity": 93, "duration": 203}, {"note": 72, "velocity": 86, "duration": 175}, {"note": 0, "velocity": 0, "duration": 65}, {"note": 67, "velocity": 88, "duration": 249}, {"note": 0, "velocity": 0, "duration": 111}, {"note": 74, "velocity": 93, "duration": 271}, {"note": 0, "velocity": 0, "duration": 89}, {"note": 64, "velocity": 88, "duration": 167}, {"note": 0, "velocity": 0, "duration": 73}, {"note": 67, "velocity": 85, "duration": 259}, {"note": 0, "velocity": 0, "duration": 101}, {"note": 74, "velocity": 88, "duration": 282}, {"note": 0, "velocity": 0, "duration": 78}, {"note": 67, "velocity": 83, "duration": 203}, {"note": 72, "velocity": 85, "duration": 1036}, {"note": 0, "velocity": 0, "duration": 164}, {"note": 72, "velocity": 88, "duration": 208}, {"note": 74, "velocity": 89, "duration": 196}, {"note": 76, "velocity": 88, "duration": 201}, {"note": 79, "velocity": 86, "duration": 351}, {"note": 0, "velocity": 0, "duration": 129}, {"note": 81, "velocity": 86, "duration": 211}, {"note": 76, "velocity": 88, "duration": 443}, {"note": 74, "velocity": 91, "duration": 562}, {"note": 0, "velocity": 0, "duration": 398}, {"note": 74, "velocity": 90, "duration": 225}, {"note": 72, "velocity": 84, "duration": 262}, {"note": 74, "velocity": 91, "duration": 255}, {"note": 76, "velocity": 86, "duration": 330}, {"note": 79, "velocity": 84, "duration": 348}, {"note": 76, "velocity": 88, "duration": 2161}, {"note": 0, "velocity": 0, "duration": 239}, {"note": 74, "velocity": 86, "duration": 159}, {"note": 0, "velocity": 0, "duration": 81}, {"note": 74, "velocity": 88, "duration": 185}, {"note": 76, "velocity": 86, "duration": 199}, {"note": 74, "velocity": 90, "duration": 215}, {"note": 72, "velocity": 85, "duration": 210}, {"note": 69, "velocity": 85, "duration": 230}, {"note": 72, "velocity": 86, "duration": 231}, {"note": 74, "velocity": 88, "duration": 353}, {"note": 76, "velocity": 85, "duration": 297}, {"note": 0, "velocity": 0, "duration": 63}, {"note": 69, "velocity": 85, "duration": 213}, {"note": 74, "velocity": 86, "duration": 297}, {"note": 0, "velocity": 0, "duration": 63}, {"note": 76, "velocity": 85, "duration": 338}, {"note": 72, "velocity": 85, "duration": 228}, {"note": 74, "velocity": 88, "duration": 1050}, {"note": 0, "velocity": 0, "duration": 150}, {"note": 76, "velocity": 86, "duration": 159}, {"note": 0, "velocity": 0, "duration": 81}, {"note": 74, "velocity": 88, "duration": 177}, {"note": 0, "velocity": 0, "duration": 63}, {"note": 72, "velocity": 85, "duration": 188}, {"note": 67, "velocity": 88, "duration": 278}, {"note": 0, "velocity": 0, "duration": 82}, {"note": 74, "velocity": 89, "duration": 264}, {"note": 0, "velocity": 0, "duration": 96}, {"note": 64, "velocity": 90, "duration": 192}, {"note": 67, "velocity": 86, "duration": 267}, {"note": 0, "velocity": 0, "duration": 93}, {"note": 74, "velocity": 95, "duration": 256}, {"note": 0, "velocity": 0, "duration": 104}, {"note": 76, "velocity": 88, "duration": 169}, {"note": 0, "velocity": 0, "duration": 71}, {"note": 76, "velocity": 90, "duration": 991}, {"note": 0, "velocity": 0, "duration": 209}, {"note": 72, "velocity": 86, "duration": 225}, {"note": 69, "velocity": 85, "duration": 282}, {"note": 72, "velocity": 84, "duration": 274}, {"note": 74, "velocity": 88, "duration": 510}, {"note": 76, "velocity": 90, "duration": 219}, {"note": 74, "velocity": 91, "duration": 353}, {"note": 0, "velocity": 0, "duration": 127}, {"note": 72, "velocity": 85, "duration": 223}, {"note": 69, "velocity": 84, "duration": 249}, {"note": 72, "velocity": 85, "duration": 248}, {"note": 74, "velocity": 87, "duration": 415}, {"note": 0, "velocity": 0, "duration": 65}, {"note": 76, "velocity": 85, "duration": 226}, {"note": 79, "velocity": 85, "duration": 244}, {"note": 76, "velocity": 89, "duration": 480}, {"note": 74, "velocity": 90, "duration": 422}, {"note": 72, "velocity": 84, "duration": 1886}, {"note": 0, "velocity": 0, "duration": 11794}, {"note": 74, "velocity": 86, "duration": 159}, {"note": 0, "velocity": 0, "duration": 81}, {"note": 74, "velocity": 88, "duration": 185}, {"note": 76, "velocity": 86, "duration": 199}, {"note": 74, "velocity": 90, "duration": 215}, {"note": 72, "velocity": 85, "duration": 210}, {"note": 69, "velocity": 85, "duration": 230}, {"note": 72, "velocity": 86, "duration": 231}, {"note": 74, "velocity": 88, "duration": 353}, {"note": 76, "velocity": 85, "duration": 297}, {"note": 0, "velocity": 0, "duration": 63}, {"note": 69, "velocity": 85, "duration": 213}, {"note": 74, "velocity": 86, "duration": 297}, {"note": 0, "velocity": 0, "duration": 63}, {"note": 76, "velocity": 85, "duration": 338}, {"note": 72, "velocity": 85, "duration": 228}, {"note": 74, "velocity": 88, "duration": 1050}, {"note": 0, "velocity": 0, "duration": 150}, {"note": 76, "velocity": 86, "duration": 159}, {"note": 0, "velocity": 0, "duration": 81}, {"note": 74, "velocity": 88, "duration": 177}, {"note": 0, "velocity": 0, "duration": 63}, {"note": 72, "velocity": 85, "duration": 188}, {"note": 67, "velocity": 88, "duration": 278}, {"note": 0, "velocity": 0, "duration": 82}, {"note": 74, "velocity": 89, "duration": 264}, {"note": 0, "velocity": 0, "duration": 96}, {"note": 64, "velocity": 90, "duration": 192}, {"note": 67, "velocity": 86, "duration": 267}, {"note": 0, "velocity": 0, "duration": 93}, {"note": 74, "velocity": 95, "duration": 256}, {"note": 0, "velocity": 0, "duration": 104}, {"note": 76, "velocity": 88, "duration": 169}, {"note": 0, "velocity": 0, "duration": 71}, {"note": 76, "velocity": 90, "duration": 991}, {"note": 0, "velocity": 0, "duration": 209}, {"note": 72, "velocity": 86, "duration": 225}, {"note": 69, "velocity": 85, "duration": 282}, {"note": 72, "velocity": 84, "duration": 274}, {"note": 74, "velocity": 88, "duration": 510}, {"note": 76, "velocity": 90, "duration": 219}, {"note": 74, "velocity": 91, "duration": 353}, {"note": 0, "velocity": 0, "duration": 127}, {"note": 72, "velocity": 85, "duration": 223}, {"note": 69, "velocity": 84, "duration": 249}, {"note": 72, "velocity": 85, "duration": 248}, {"note": 74, "velocity": 87, "duration": 415}, {"note": 0, "velocity": 0, "duration": 65}, {"note": 76, "velocity": 85, "duration": 226}, {"note": 79, "velocity": 85, "duration": 244}, {"note": 76, "velocity": 89, "duration": 480}, {"note": 74, "velocity": 90, "duration": 422}, {"note": 72, "velocity": 84, "duration": 1886}]]