[[{"note": 66, "velocity": 86, "duration": 163}, {"note": 0, "velocity": 0, "duration": 77}, {"note": 66, "velocity": 85, "duration": 410}, {"note": 0, "velocity": 0, "duration": 70}, {"note": 68, "velocity": 86, "duration": 168}, {"note": 0, "velocity": 0, "duration": 72}, {"note": 71, "velocity": 84, "duration": 153}, {"note": 0, "velocity": 0, "duration": 87}, {"note": 70, "velocity": 80, "duration": 171}, {"note": 0, "velocity": 0, "duration": 69}, {"note": 68, "velocity": 85, "duration": 202}, {"note": 66, "velocity": 76, "duration": 197}, {"note": 68, "velocity": 81, "duration": 1480}, {"note": 0, "velocity": 0, "duration": 440}, {"note": 66, "velocity": 77, "duration": 174}, {"note": 0, "velocity": 0, "duration": 66}, {"note": 66, "velocity": 81, "duration": 381}, {"note": 0, "velocity": 0, "duration": 99}, {"note": 68, "velocity": 79, "duration": 163}, {"note": 0, "velocity": 0, "duration": 77}, {"note": 71, "velocity": 80, "duration": 178}, {"note": 0, "velocity": 0, "duration": 62}, {"note": 70, "velocity": 81, "duration": 173}, {"note": 0, "velocity": 0, "duration": 67}, {"note": 68, "velocity": 81, "duration": 172}, {"note": 0, "velocity": 0, "duration": 68}, {"note": 66, "velocity": 80, "duration": 212}, {"note": 63, "velocity": 81, "duration": 1460}, {"note": 0, "velocity": 0, "duration": 460}, {"note": 61, "velocity": 78, "duration": 155}, {"note": 0, "velocity": 0, "duration": 85}, {"note": 61, "velocity": 82, "duration": 417}, {"note": 0, "velocity": 0, "duration": 63}, {"note": 63, "velocity": 82, "duration": 177}, {"note": 0, "velocity": 0, "duration": 63}, {"note": 66, "velocity": 78, "duration": 410}, {"note": 0, "velocity": 0, "duration": 70}, {"note": 63, "velocity": 77, "duration": 178}, {"note": 0, "velocity": 0, "duration": 62}, {"note": 66, "velocity": 79, "duration": 164}, {"note": 0, "velocity": 0, "duration": 76}, {"note": 68, "velocity": 81, "duration": 349}, {"note": 0, "velocity": 0, "duration": 131}, {"note": 63, "velocity": 81, "duration": 182}, {"note": 61, "velocity": 77, "duration": 197}, {"note": 59, "velocity": 82, "duration": 784}, {"note": 0, "velocity": 0, "duration": 176}, {"note": 68, "velocity": 82, "duration": 159}, {"note": 0, "velocity": 0, "duration": 81}, {"note": 68, "velocity": 81, "duration": 431}, {"note": 66, "velocity": 81, "duration": 164}, {"note": 0, "velocity": 0, "duration": 76}, {"note": 68, "velocity": 85, "duration": 182}, {"note": 66, "velocity": 81, "duration": 186}, {"note": 63, "velocity": 82, "duration": 190}, {"note": 68, "velocity": 79, "duration": 175}, {"note": 0, "velocity": 0, "duration": 65}, {"note": 66, "velocity": 81, "duration": 1352}, {"note": 0, "velocity": 0, "duration": 568}, {"note": 66, "velocity": 86, "duration": 163}, {"note": 0, "velocity": 0, "duration": 77}, {"note": 66, "velocity": 85, "duration": 410}, {"note": 0, "velocity": 0, "duration": 70}, {"note": 68, "velocity": 86, "duration": 168}, {"note": 0, "velocity": 0, "duration": 72}, {"note": 71, "velocity": 84, "duration": 153}, {"note": 0, "velocity": 0, "duration": 87}, {"note": 70, "velocity": 80, "duration": 171}, {"note": 0, "velocity": 0, "duration": 69}, {"note": 68, "velocity": 85, "duration": 202}, {"note": 66, "velocity": 76, "duration": 197}, {"note": 68, "velocity": 81, "duration": 1480}, {"note": 0, "velocity": 0, "duration": 440}, {"note": 66, "velocity": 77, "duration": 174}, {"note": 0, "velocity": 0, "duration": 66}, {"note": 66, "velocity": 81, "duration": 381}, {"note": 0, "velocity": 0, "duration": 99}, {"note": 68, "velocity": 79, "duration": 163}, {"note": 0, "velocity": 0, "duration": 77}, {"note": 71, "velocity": 80, "duration": 178}, {"note": 0, "velocity": 0, "duration": 62}, {"note": 70, "velocity": 81, "duration": 173}, {"note": 0, "velocity": 0, "duration": 67}, {"note": 68, "velocity": 81, "duration": 172}, {"note": 0, "velocity": 0, "duration": 68}, {"note": 66, "velocity": 80, "duration": 212}, {"note": 63, "velocity": 81, "duration": 1460}, {"note": 0, "velocity": 0, "duration": 460}, {"note": 61, "velocity": 78, "duration": 155}, {"note": 0, "velocity": 0, "duration": 85}, {"note": 61, "velocity": 82, "duration": 417}, {"note": 0, "velocity": 0, "duration": 63}, {"note": 63, "velocity": 82, "duration": 177}, {"note": 0, "velocity": 0, "duration": 63}, {"note": 66, "velocity": 78, "duration": 410}, {"note": 0, "velocity": 0, "duration": 70}, {"note": 63, "velocity": 77, "duration": 178}, {"note": 0, "velocity": 0, "duration": 62}, {"note": 66, "velocity": 79, "duration": 164}, {"note": 0, "velocity": 0, "duration": 76}, {"note": 68, "velocity": 81, "duration": 349}, {"note": 0, "velocity": 0, "duration": 131}, {"note": 63, "velocity": 81, "duration": 182}, {"note": 61, "velocity": 77, "duration": 197}, {"note": 59, "velocity": 82, "duration": 784}, {"note": 0, "velocity": 0, "duration": 176}, {"note": 68, "velocity": 82, "duration": 159}, {"note": 0, "velocity": 0, "duration": 81}, {"note": 68, "velocity": 81, "duration": 240}, {"note": 68, "velocity": 81, "duration": 240}, {"note": 66, "velocity": 81, "duration": 164}, {"note": 0, "velocity": 0, "duration": 76}, {"note": 68, "velocity": 85, "duration": 182}, {"note": 66, "velocity": 81, "duration": 186}, {"note": 61, "velocity": 82, "duration": 190}, {"note": 63, "velocity": 79, "duration": 175}, {"note": 0, "velocity": 0, "duration": 65}, {"note": 59, "velocity": 81, "duration": 1352}, {"note": 0, "velocity": 0, "duration": 88}, {"note": 71, "velocity": 77, "duration": 175}, {"note": 0, "velocity": 0, "duration": 65}, {"note": 73, "velocity": 84, "duration": 160}, {"note": 0, "velocity": 0, "duration": 80}, {"note": 75, "velocity": 83, "duration": 149}, {"note": 0, "velocity": 0, "duration": 91}, {"note": 75, "velocity": 84, "duration": 442}, {"note": 73, "velocity": 86, "duration": 219}, {"note": 71, "velocity": 81, "duration": 236}, {"note": 75, "velocity": 70, "duration": 254}, {"note": 73, "velocity": 83, "duration": 263}, {"note": 71, "velocity": 81, "duration": 271}, {"note": 68, "velocity": 79, "duration": 1286}, {"note": 0, "velocity": 0, "duration": 154}, {"note": 68, "velocity": 83, "duration": 205}, {"note": 71, "velocity": 82, "duration": 182}, {"note": 73, "velocity": 82, "duration": 175}, {"note": 0, "velocity": 0, "duration": 65}, {"note": 73, "velocity": 86, "duration": 445}, {"note": 71, "velocity": 82, "duration": 190}, {"note": 68, "velocity": 81, "duration": 249}, {"note": 73, "velocity": 83, "duration": 220}, {"note": 71, "velocity": 82, "duration": 239}, {"note": 68, "velocity": 81, "duration": 256}, {"note": 66, "velocity": 80, "duration": 1264}, {"note": 0, "velocity": 0, "duration": 176}, {"note": 61, "velocity": 82, "duration": 199}, {"note": 63, "velocity": 82, "duration": 239}, {"note": 66, "velocity": 76, "duration": 173}, {"note": 0, "velocity": 0, "duration": 67}, {"note": 66, "velocity": 81, "duration": 436}, {"note": 63, "velocity": 84, "duration": 282}, {"note": 66, "velocity": 81, "duration": 178}, {"note": 0, "velocity": 0, "duration": 62}, {"note": 66, "velocity": 80, "duration": 227}, {"note": 0, "velocity": 0, "duration": 253}, {"note": 68, "velocity": 79, "duration": 240}, {"note": 71, "velocity": 82, "duration": 781}, {"note": 70, "velocity": 76, "duration": 233}, {"note": 68, "velocity": 85, "duration": 413}, {"note": 0, "velocity": 0, "duration": 67}, {"note": 68, "velocity": 84, "duration": 223}, {"note": 75, "velocity": 83, "duration": 253}, {"note": 73, "velocity": 87, "duration": 254}, {"note": 75, "velocity": 83, "duration": 253}, {"note": 73, "velocity": 87, "duration": 253}, {"note": 71, "velocity": 82, "duration": 251}, {"note": 68, "velocity": 78, "duration": 472}, {"note": 66, "velocity": 77, "duration": 249}, {"note": 68, "velocity": 80, "duration": 244}, {"note": 71, "velocity": 79, "duration": 1845}, {"note": 0, "velocity": 0, "duration": 15435}, {"note": 66, "velocity": 86, "duration": 163}, {"note": 0, "velocity": 0, "duration": 77}, {"note": 66, "velocity": 85, "duration": 410}, {"note": 0, "velocity": 0, "duration": 70}, {"note": 68, "velocity": 86, "duration": 168}, {"note": 0, "velocity": 0, "duration": 72}, {"note": 71, "velocity": 84, "duration": 153}, {"note": 0, "velocity": 0, "duration": 87}, {"note": 70, "velocity": 80, "duration": 171}, {"note": 0, "velocity": 0, "duration": 69}, {"note": 68, "velocity": 85, "duration": 202}, {"note": 66, "velocity": 76, "duration": 197}, {"note": 68, "velocity": 81, "duration": 1480}, {"note": 0, "velocity": 0, "duration": 440}, {"note": 66, "velocity": 77, "duration": 174}, {"note": 0, "velocity": 0, "duration": 66}, {"note": 66, "velocity": 81, "duration": 381}, {"note": 0, "velocity": 0, "duration": 99}, {"note": 68, "velocity": 79, "duration": 163}, {"note": 0, "velocity": 0, "duration": 77}, {"note": 71, "velocity": 80, "duration": 178}, {"note": 0, "velocity": 0, "duration": 62}, {"note": 70, "velocity": 81, "duration": 173}, {"note": 0, "velocity": 0, "duration": 67}, {"note": 68, "velocity": 81, "duration": 172}, {"note": 0, "velocity": 0, "duration": 68}, {"note": 66, "velocity": 80, "duration": 212}, {"note": 63, "velocity": 81, "duration": 1460}, {"note": 0, "velocity": 0, "duration": 460}, {"note": 61, "velocity": 78, "duration": 155}, {"note": 0, "velocity": 0, "duration": 85}, {"note": 61, "velocity": 82, "duration": 417}, {"note": 0, "velocity": 0, "duration": 63}, {"note": 63, "velocity": 82, "duration": 177}, {"note": 0, "velocity": 0, "duration": 63}, {"note": 66, "velocity": 78, "duration": 410}, {"note": 0, "velocity": 0, "duration": 70}, {"note": 63, "velocity": 77, "duration": 178}, {"note": 0, "velocity": 0, "duration": 62}, {"note": 66, "velocity": 79, "duration": 164}, {"note": 0, "velocity": 0, "duration": 76}, {"note": 68, "velocity": 81, "duration": 349}, {"note": 0, "velocity": 0, "duration": 131}, {"note": 63, "velocity": 81, "duration": 182}, {"note": 61, "velocity": 77, "duration": 197}, {"note": 59, "velocity": 82, "duration": 784}, {"note": 0, "velocity": 0, "duration": 176}, {"note": 68, "velocity": 82, "duration": 159}, {"note": 0, "velocity": 0, "duration": 81}, {"note": 68, "velocity": 81, "duration": 240}, {"note": 68, "velocity": 81, "duration": 240}, {"note": 66, "velocity": 81, "duration": 164}, {"note": 0, "velocity": 0, "duration": 76}, {"note": 68, "velocity": 85, "duration": 182}, {"note": 66, "velocity": 81, "duration": 186}, {"note": 61, "velocity": 82, "duration": 190}, {"note": 63, "velocity": 79, "duration": 175}, {"note": 0, "velocity": 0, "duration": 65}, {"note": 59, "velocity": 81, "duration": 1352}, {"note": 0, "velocity": 0, "duration": 88}, {"note": 71, "velocity": 77, "duration": 175}, {"note": 0, "velocity": 0, "duration": 65}, {"note": 73, "velocity": 84, "duration": 160}, {"note": 0, "velocity": 0, "duration": 80}, {"note": 75, "velocity": 83, "duration": 149}, {"note": 0, "velocity": 0, "duration": 91}, {"note": 75, "velocity": 84, "duration": 442}, {"note": 73, "velocity": 86, "duration": 219}, {"note": 71, "velocity": 81, "duration": 236}, {"note": 75, "velocity": 70, "duration": 254}, {"note": 73, "velocity": 83, "duration": 263}, {"note": 71, "velocity": 81, "duration": 271}, {"note": 68, "velocity": 79, "duration": 1286}, {"note": 0, "velocity": 0, "duration": 154}, {"note": 68, "velocity": 83, "duration": 205}, {"note": 71, "velocity": 82, "duration": 182}, {"note": 73, "velocity": 82, "duration": 175}, {"note": 0, "velocity": 0, "duration": 65}, {"note": 73, "velocity": 86, "duration": 445}, {"note": 71, "velocity": 82, "duration": 190}, {"note": 68, "velocity": 81, "duration": 249}, {"note": 73, "velocity": 83, "duration": 220}, {"note": 71, "velocity": 82, "duration": 239}, {"note": 68, "velocity": 81, "duration": 256}, {"note": 66, "velocity": 80, "duration": 1264}, {"note": 0, "velocity": 0, "duration": 176}, {"note": 61, "velocity": 82, "duration": 199}, {"note": 63, "velocity": 82, "duration": 239}, {"note": 66, "velocity": 76, "duration": 173}, {"note": 0, "velocity": 0, "duration": 67}, {"note": 66, "velocity": 81, "duration": 436}, {"note": 63, "velocity": 84, "duration": 282}, {"note": 66, "velocity": 81, "duration": 178}, {"note": 0, "velocity": 0, "duration": 62}, {"note": 66, "velocity": 80, "duration": 227}, {"note": 0, "velocity": 0, "duration": 253}, {"note": 68, "velocity": 79, "duration": 240}, {"note": 71, "velocity": 82, "duration": 781}, {"note": 70, "velocity": 76, "duration": 233}, {"note": 68, "velocity": 85, "duration": 413}, {"note": 0, "velocity": 0, "duration": 67}, {"note": 68, "velocity": 84, "duration": 223}, {"note": 75, "velocity": 83, "duration": 253}, {"note": 73, "velocity": 87, "duration": 254}, {"note": 75, "velocity": 83, "duration": 253}, {"note": 73, "velocity": 87, "duration": 253}, {"note": 71, "velocity": 82, "duration": 251}, {"note": 68, "velocity": 78, "duration": 472}, {"note": 66, "velocity": 77, "duration": 249}, {"note": 68, "velocity": 80, "duration": 244}, {"note": 71, "velocity": 79, "duration": 1440}, {"note": 71, "velocity": 77, "duration": 175}, {"note": 0, "velocity": 0, "duration": 65}, {"note": 73, "velocity": 84, "duration": 160}, {"note": 0, "velocity": 0, "duration": 80}, {"note": 75, "velocity": 83, "duration": 149}, {"note": 0, "velocity": 0, "duration": 91}, {"note": 75, "velocity": 84, "duration": 442}, {"note": 73, "velocity": 86, "duration": 219}, {"note": 71, "velocity": 81, "duration": 236}, {"note": 75, "velocity": 70, "duration": 254}, {"note": 73, "velocity": 83, "duration": 263}, {"note": 71, "velocity": 81, "duration": 271}, {"note": 68, "velocity": 79, "duration": 1286}, {"note": 0, "velocity": 0, "duration": 154}, {"note": 68, "velocity": 83, "duration": 205}, {"note": 71, "velocity": 82, "duration": 182}, {"note": 73, "velocity": 82, "duration": 175}, {"note": 0, "velocity": 0, "duration": 65}, {"note": 73, "velocity": 86, "duration": 445}, {"note": 71, "velocity": 82, "duration": 190}, {"note": 68, "velocity": 81, "duration": 249}, {"note": 73, "velocity": 83, "duration": 220}, {"note": 71, "velocity": 82, "duration": 239}, {"note": 68, "velocity": 81, "duration": 256}, {"note": 66, "velocity": 80, "duration": 1264}, {"note": 0, "velocity": 0, "duration": 176}, {"note": 61, "velocity": 82, "duration": 199}, {"note": 63, "velocity": 82, "duration": 239}, {"note": 66, "velocity": 76, "duration": 173}, {"note": 0, "velocity": 0, "duration": 67}, {"note": 66, "velocity": 81, "duration": 436}, {"note": 63, "velocity": 84, "duration": 282}, {"note": 66, "velocity": 81, "duration": 178}, {"note": 0, "velocity": 0, "duration": 62}, {"note": 66, "velocity": 80, "duration": 227}, {"note": 0, "velocity": 0, "duration": 253}, {"note": 68, "velocity": 79, "duration": 240}, {"note": 71, "velocity": 82, "duration": 781}, {"note": 70, "velocity": 76, "duration": 233}, {"note": 68, "velocity": 85, "duration": 413}, {"note": 0, "velocity": 0, "duration": 67}, {"note": 68, "velocity": 84, "duration": 223}, {"note": 75, "velocity": 83, "duration": 253}, {"note": 73, "velocity": 87, "duration": 254}, {"note": 75, "velocity": 83, "duration": 253}, {"note": 73, "velocity": 87, "duration": 253}, {"note": 71, "velocity": 82, "duration": 251}, {"note": 68, "velocity": 78, "duration": 472}, {"note": 66, "velocity": 77, "duration": 249}, {"note": 68, "velocity": 80, "duration": 244}, {"note": 71, "velocity": 79, "duration": 1845}, {"note": 0, "velocity": 0, "duration": 75}, {"note": 75, "velocity": 86, "duration": 393}, {"note": 0, "velocity": 0, "duration": 87}, {"note": 75, "velocity": 85, "duration": 393}, {"note": 0, "velocity": 0, "duration": 87}, {"note": 75, "velocity": 83, "duration": 370}, {"note": 0, "velocity": 0, "duration": 110}, {"note": 75, "velocity": 85, "duration": 222}, {"note": 73, "velocity": 86, "duration": 85}, {"note": 71, "velocity": 76, "duration": 78}, {"note": 73, "velocity": 88, "duration": 1701}, {"note": 0, "velocity": 0, "duration": 219}, {"note": 73, "velocity": 88, "duration": 361}, {"note": 0, "velocity": 0, "duration": 119}, {"note": 73, "velocity": 84, "duration": 414}, {"note": 0, "velocity": 0, "duration": 66}, {"note": 73, "velocity": 90, "duration": 365}, {"note": 0, "velocity": 0, "duration": 115}, {"note": 73, "velocity": 88, "duration": 182}, {"note": 71, "velocity": 82, "duration": 103}, {"note": 68, "velocity": 76, "duration": 101}, {"note": 66, "velocity": 73, "duration": 1738}, {"note": 0, "velocity": 0, "duration": 182}, {"note": 75, "velocity": 85, "duration": 357}, {"note": 0, "velocity": 0, "duration": 123}, {"note": 75, "velocity": 84, "duration": 385}, {"note": 0, "velocity": 0, "duration": 95}, {"note": 75, "velocity": 82, "duration": 355}, {"note": 0, "velocity": 0, "duration": 125}, {"note": 73, "velocity": 84, "duration": 131}, {"note": 75, "velocity": 78, "duration": 113}, {"note": 73, "velocity": 83, "duration": 108}, {"note": 71, "velocity": 76, "duration": 104}, {"note": 73, "velocity": 81, "duration": 1706}, {"note": 0, "velocity": 0, "duration": 214}, {"note": 73, "velocity": 87, "duration": 376}, {"note": 0, "velocity": 0, "duration": 104}, {"note": 73, "velocity": 88, "duration": 398}, {"note": 0, "velocity": 0, "duration": 82}, {"note": 73, "velocity": 88, "duration": 382}, {"note": 0, "velocity": 0, "duration": 98}, {"note": 71, "velocity": 82, "duration": 115}, {"note": 73, "velocity": 81, "duration": 116}, {"note": 71, "velocity": 82, "duration": 106}, {"note": 68, "velocity": 81, "duration": 101}, {"note": 71, "velocity": 83, "duration": 1870}]]