[[{"note": 71, "velocity": 87, "duration": 110}, {"note": 69, "velocity": 81, "duration": 57}, {"note": 71, "velocity": 88, "duration": 80}, {"note": 0, "velocity": 0, "duration": 80}, {"note": 69, "velocity": 87, "duration": 53}, {"note": 71, "velocity": 88, "duration": 77}, {"note": 0, "velocity": 0, "duration": 83}, {"note": 69, "velocity": 86, "duration": 56}, {"note": 71, "velocity": 87, "duration": 145}, {"note": 0, "velocity": 0, "duration": 95}, {"note": 76, "velocity": 87, "duration": 93}, {"note": 0, "velocity": 0, "duration": 67}, {"note": 71, "velocity": 91, "duration": 95}, {"note": 0, "velocity": 0, "duration": 141}, {"note": 71, "velocity": 87, "duration": 51}, {"note": 71, "velocity": 88, "duration": 91}, {"note": 71, "velocity": 86, "duration": 66}, {"note": 69, "velocity": 93, "duration": 179}, {"note": 67, "velocity": 87, "duration": 94}, {"note": 67, "velocity": 86, "duration": 54}, {"note": 69, "velocity": 90, "duration": 171}, {"note": 0, "velocity": 0, "duration": 68}, {"note": 67, "velocity": 87, "duration": 121}, {"note": 71, "velocity": 88, "duration": 801}, {"note": 0, "velocity": 0, "duration": 472}, {"note": 71, "velocity": 91, "duration": 113}, {"note": 69, "velocity": 87, "duration": 59}, {"note": 71, "velocity": 87, "duration": 66}, {"note": 0, "velocity": 0, "duration": 87}, {"note": 69, "velocity": 90, "duration": 54}, {"note": 71, "velocity": 87, "duration": 73}, {"note": 0, "velocity": 0, "duration": 76}, {"note": 69, "velocity": 90, "duration": 57}, {"note": 71, "velocity": 91, "duration": 101}, {"note": 76, "velocity": 90, "duration": 128}, {"note": 0, "velocity": 0, "duration": 88}, {"note": 78, "velocity": 90, "duration": 172}, {"note": 0, "velocity": 0, "duration": 62}, {"note": 79, "velocity": 86, "duration": 273}, {"note": 0, "velocity": 0, "duration": 80}, {"note": 81, "velocity": 90, "duration": 164}, {"note": 0, "velocity": 0, "duration": 72}, {"note": 79, "velocity": 90, "duration": 76}, {"note": 79, "velocity": 87, "duration": 274}, {"note": 0, "velocity": 0, "duration": 71}, {"note": 76, "velocity": 88, "duration": 112}, {"note": 78, "velocity": 90, "duration": 711}, {"note": 0, "velocity": 0, "duration": 108}, {"note": 71, "velocity": 97, "duration": 89}, {"note": 71, "velocity": 87, "duration": 56}, {"note": 72, "velocity": 97, "duration": 209}, {"note": 71, "velocity": 95, "duration": 90}, {"note": 72, "velocity": 93, "duration": 178}, {"note": 79, "velocity": 88, "duration": 119}, {"note": 0, "velocity": 0, "duration": 125}, {"note": 79, "velocity": 91, "duration": 279}, {"note": 78, "velocity": 91, "duration": 368}, {"note": 0, "velocity": 0, "duration": 210}, {"note": 71, "velocity": 95, "duration": 88}, {"note": 0, "velocity": 0, "duration": 72}, {"note": 71, "velocity": 90, "duration": 62}, {"note": 83, "velocity": 92, "duration": 148}, {"note": 0, "velocity": 0, "duration": 92}, {"note": 83, "velocity": 92, "duration": 167}, {"note": 0, "velocity": 0, "duration": 73}, {"note": 81, "velocity": 90, "duration": 175}, {"note": 0, "velocity": 0, "duration": 65}, {"note": 79, "velocity": 88, "duration": 178}, {"note": 0, "velocity": 0, "duration": 62}, {"note": 81, "velocity": 91, "duration": 179}, {"note": 79, "velocity": 87, "duration": 110}, {"note": 76, "velocity": 90, "duration": 333}, {"note": 0, "velocity": 0, "duration": 147}, {"note": 76, "velocity": 102, "duration": 107}, {"note": 78, "velocity": 92, "duration": 50}, {"note": 79, "velocity": 92, "duration": 79}, {"note": 0, "velocity": 0, "duration": 66}, {"note": 79, "velocity": 84, "duration": 62}, {"note": 76, "velocity": 90, "duration": 89}, {"note": 79, "velocity": 92, "duration": 362}, {"note": 0, "velocity": 0, "duration": 210}, {"note": 79, "velocity": 88, "duration": 106}, {"note": 79, "velocity": 87, "duration": 56}, {"note": 76, "velocity": 88, "duration": 110}, {"note": 79, "velocity": 90, "duration": 169}, {"note": 0, "velocity": 0, "duration": 68}, {"note": 81, "velocity": 90, "duration": 182}, {"note": 0, "velocity": 0, "duration": 61}, {"note": 79, "velocity": 86, "duration": 74}, {"note": 78, "velocity": 88, "duration": 650}, {"note": 76, "velocity": 92, "duration": 118}, {"note": 78, "velocity": 88, "duration": 546}, {"note": 83, "velocity": 102, "duration": 107}, {"note": 81, "velocity": 90, "duration": 62}, {"note": 79, "velocity": 92, "duration": 81}, {"note": 0, "velocity": 0, "duration": 63}, {"note": 78, "velocity": 91, "duration": 60}, {"note": 79, "velocity": 92, "duration": 160}, {"note": 0, "velocity": 0, "duration": 77}, {"note": 71, "velocity": 93, "duration": 73}, {"note": 71, "velocity": 90, "duration": 180}, {"note": 0, "velocity": 0, "duration": 61}, {"note": 79, "velocity": 88, "duration": 169}, {"note": 0, "velocity": 0, "duration": 78}, {"note": 78, "velocity": 88, "duration": 425}, {"note": 0, "velocity": 0, "duration": 158}, {"note": 78, "velocity": 91, "duration": 125}, {"note": 76, "velocity": 90, "duration": 57}, {"note": 74, "velocity": 90, "duration": 71}, {"note": 0, "velocity": 0, "duration": 81}, {"note": 76, "velocity": 90, "duration": 372}, {"note": 0, "velocity": 0, "duration": 92}, {"note": 67, "velocity": 82, "duration": 56}, {"note": 67, "velocity": 86, "duration": 211}, {"note": 76, "velocity": 90, "duration": 122}, {"note": 74, "velocity": 87, "duration": 443}, {"note": 0, "velocity": 0, "duration": 155}, {"note": 74, "velocity": 97, "duration": 121}, {"note": 72, "velocity": 82, "duration": 66}, {"note": 71, "velocity": 87, "duration": 170}, {"note": 72, "velocity": 90, "duration": 288}, {"note": 0, "velocity": 0, "duration": 81}, {"note": 72, "velocity": 88, "duration": 53}, {"note": 72, "velocity": 93, "duration": 178}, {"note": 83, "velocity": 97, "duration": 160}, {"note": 0, "velocity": 0, "duration": 91}, {"note": 83, "velocity": 93, "duration": 193}, {"note": 81, "velocity": 87, "duration": 78}, {"note": 79, "velocity": 88, "duration": 279}, {"note": 0, "velocity": 0, "duration": 75}, {"note": 76, "velocity": 97, "duration": 110}, {"note": 78, "velocity": 86, "duration": 66}, {"note": 79, "velocity": 88, "duration": 86}, {"note": 0, "velocity": 0, "duration": 64}, {"note": 79, "velocity": 84, "duration": 50}, {"note": 79, "velocity": 86, "duration": 80}, {"note": 0, "velocity": 0, "duration": 63}, {"note": 79, "velocity": 85, "duration": 53}, {"note": 79, "velocity": 87, "duration": 92}, {"note": 81, "velocity": 89, "duration": 213}, {"note": 76, "velocity": 88, "duration": 210}, {"note": 78, "velocity": 88, "duration": 212}, {"note": 0, "velocity": 0, "duration": 147}, {"note": 83, "velocity": 102, "duration": 107}, {"note": 81, "velocity": 90, "duration": 62}, {"note": 79, "velocity": 92, "duration": 81}, {"note": 0, "velocity": 0, "duration": 63}, {"note": 78, "velocity": 91, "duration": 60}, {"note": 79, "velocity": 92, "duration": 160}, {"note": 0, "velocity": 0, "duration": 77}, {"note": 71, "velocity": 93, "duration": 73}, {"note": 71, "velocity": 90, "duration": 180}, {"note": 0, "velocity": 0, "duration": 61}, {"note": 79, "velocity": 88, "duration": 169}, {"note": 0, "velocity": 0, "duration": 78}, {"note": 78, "velocity": 88, "duration": 425}, {"note": 0, "velocity": 0, "duration": 158}, {"note": 78, "velocity": 91, "duration": 125}, {"note": 76, "velocity": 90, "duration": 57}, {"note": 74, "velocity": 90, "duration": 71}, {"note": 0, "velocity": 0, "duration": 81}, {"note": 76, "velocity": 90, "duration": 372}, {"note": 0, "velocity": 0, "duration": 92}, {"note": 67, "velocity": 82, "duration": 56}, {"note": 67, "velocity": 86, "duration": 211}, {"note": 76, "velocity": 90, "duration": 122}, {"note": 74, "velocity": 87, "duration": 443}, {"note": 0, "velocity": 0, "duration": 155}, {"note": 74, "velocity": 97, "duration": 121}, {"note": 72, "velocity": 82, "duration": 66}, {"note": 71, "velocity": 87, "duration": 170}, {"note": 72, "velocity": 90, "duration": 288}, {"note": 0, "velocity": 0, "duration": 81}, {"note": 72, "velocity": 88, "duration": 53}, {"note": 72, "velocity": 93, "duration": 178}, {"note": 83, "velocity": 97, "duration": 160}, {"note": 0, "velocity": 0, "duration": 91}, {"note": 83, "velocity": 93, "duration": 193}, {"note": 81, "velocity": 87, "duration": 78}, {"note": 79, "velocity": 88, "duration": 279}, {"note": 0, "velocity": 0, "duration": 75}, {"note": 76, "velocity": 97, "duration": 110}, {"note": 78, "velocity": 86, "duration": 66}, {"note": 79, "velocity": 88, "duration": 86}, {"note": 0, "velocity": 0, "duration": 64}, {"note": 79, "velocity": 84, "duration": 50}, {"note": 79, "velocity": 86, "duration": 80}, {"note": 0, "velocity": 0, "duration": 63}, {"note": 79, "velocity": 85, "duration": 53}, {"note": 79, "velocity": 87, "duration": 92}, {"note": 81, "velocity": 89, "duration": 213}, {"note": 76, "velocity": 88, "duration": 210}, {"note": 78, "velocity": 88, "duration": 308}, {"note": 76, "velocity": 91, "duration": 158}, {"note": 75, "velocity": 86, "duration": 327}, {"note": 78, "velocity": 88, "duration": 387}, {"note": 76, "velocity": 88, "duration": 942}, {"note": 0, "velocity": 0, "duration": 6609}, {"note": 71, "velocity": 87, "duration": 110}, {"note": 69, "velocity": 81, "duration": 57}, {"note": 71, "velocity": 88, "duration": 80}, {"note": 0, "velocity": 0, "duration": 80}, {"note": 69, "velocity": 87, "duration": 53}, {"note": 71, "velocity": 88, "duration": 77}, {"note": 0, "velocity": 0, "duration": 83}, {"note": 69, "velocity": 86, "duration": 56}, {"note": 71, "velocity": 87, "duration": 145}, {"note": 0, "velocity": 0, "duration": 95}, {"note": 76, "velocity": 87, "duration": 93}, {"note": 0, "velocity": 0, "duration": 67}, {"note": 71, "velocity": 91, "duration": 95}, {"note": 0, "velocity": 0, "duration": 141}, {"note": 71, "velocity": 87, "duration": 51}, {"note": 71, "velocity": 88, "duration": 91}, {"note": 71, "velocity": 86, "duration": 66}, {"note": 69, "velocity": 93, "duration": 179}, {"note": 67, "velocity": 87, "duration": 94}, {"note": 67, "velocity": 86, "duration": 54}, {"note": 69, "velocity": 90, "duration": 171}, {"note": 0, "velocity": 0, "duration": 68}, {"note": 67, "velocity": 87, "duration": 121}, {"note": 71, "velocity": 88, "duration": 801}, {"note": 0, "velocity": 0, "duration": 472}, {"note": 71, "velocity": 91, "duration": 113}, {"note": 69, "velocity": 87, "duration": 59}, {"note": 71, "velocity": 87, "duration": 66}, {"note": 0, "velocity": 0, "duration": 87}, {"note": 69, "velocity": 90, "duration": 54}, {"note": 71, "velocity": 87, "duration": 73}, {"note": 0, "velocity": 0, "duration": 76}, {"note": 69, "velocity": 90, "duration": 57}, {"note": 71, "velocity": 91, "duration": 101}, {"note": 76, "velocity": 90, "duration": 128}, {"note": 0, "velocity": 0, "duration": 88}, {"note": 78, "velocity": 90, "duration": 172}, {"note": 0, "velocity": 0, "duration": 62}, {"note": 79, "velocity": 86, "duration": 273}, {"note": 0, "velocity": 0, "duration": 80}, {"note": 81, "velocity": 90, "duration": 164}, {"note": 0, "velocity": 0, "duration": 72}, {"note": 79, "velocity": 90, "duration": 76}, {"note": 79, "velocity": 87, "duration": 274}, {"note": 0, "velocity": 0, "duration": 71}, {"note": 76, "velocity": 88, "duration": 112}, {"note": 78, "velocity": 90, "duration": 711}, {"note": 0, "velocity": 0, "duration": 108}, {"note": 71, "velocity": 97, "duration": 89}, {"note": 71, "velocity": 87, "duration": 56}, {"note": 72, "velocity": 97, "duration": 209}, {"note": 71, "velocity": 95, "duration": 90}, {"note": 72, "velocity": 93, "duration": 178}, {"note": 79, "velocity": 88, "duration": 119}, {"note": 0, "velocity": 0, "duration": 125}, {"note": 79, "velocity": 91, "duration": 279}, {"note": 78, "velocity": 91, "duration": 368}, {"note": 0, "velocity": 0, "duration": 210}, {"note": 71, "velocity": 95, "duration": 88}, {"note": 0, "velocity": 0, "duration": 72}, {"note": 71, "velocity": 90, "duration": 62}, {"note": 83, "velocity": 92, "duration": 148}, {"note": 0, "velocity": 0, "duration": 92}, {"note": 83, "velocity": 92, "duration": 167}, {"note": 0, "velocity": 0, "duration": 73}, {"note": 81, "velocity": 90, "duration": 175}, {"note": 0, "velocity": 0, "duration": 65}, {"note": 79, "velocity": 88, "duration": 178}, {"note": 0, "velocity": 0, "duration": 62}, {"note": 81, "velocity": 91, "duration": 179}, {"note": 79, "velocity": 87, "duration": 110}, {"note": 76, "velocity": 90, "duration": 333}, {"note": 0, "velocity": 0, "duration": 147}, {"note": 76, "velocity": 102, "duration": 107}, {"note": 78, "velocity": 92, "duration": 50}, {"note": 79, "velocity": 92, "duration": 79}, {"note": 0, "velocity": 0, "duration": 66}, {"note": 79, "velocity": 84, "duration": 62}, {"note": 76, "velocity": 90, "duration": 89}, {"note": 79, "velocity": 92, "duration": 362}, {"note": 0, "velocity": 0, "duration": 210}, {"note": 79, "velocity": 88, "duration": 106}, {"note": 79, "velocity": 87, "duration": 56}, {"note": 76, "velocity": 88, "duration": 110}, {"note": 79, "velocity": 90, "duration": 169}, {"note": 0, "velocity": 0, "duration": 68}, {"note": 81, "velocity": 90, "duration": 182}, {"note": 0, "velocity": 0, "duration": 61}, {"note": 79, "velocity": 86, "duration": 74}, {"note": 78, "velocity": 88, "duration": 650}, {"note": 84, "velocity": 92, "duration": 119}, {"note": 0, "velocity": 0, "duration": 62}, {"note": 84, "velocity": 88, "duration": 546}, {"note": 84, "velocity": 102, "duration": 107}, {"note": 82, "velocity": 90, "duration": 62}, {"note": 80, "velocity": 92, "duration": 81}, {"note": 0, "velocity": 0, "duration": 63}, {"note": 79, "velocity": 91, "duration": 60}, {"note": 80, "velocity": 92, "duration": 160}, {"note": 0, "velocity": 0, "duration": 77}, {"note": 72, "velocity": 93, "duration": 73}, {"note": 72, "velocity": 90, "duration": 180}, {"note": 0, "velocity": 0, "duration": 61}, {"note": 80, "velocity": 88, "duration": 169}, {"note": 0, "velocity": 0, "duration": 78}, {"note": 79, "velocity": 88, "duration": 425}, {"note": 0, "velocity": 0, "duration": 158}, {"note": 79, "velocity": 91, "duration": 125}, {"note": 77, "velocity": 90, "duration": 57}, {"note": 75, "velocity": 90, "duration": 71}, {"note": 0, "velocity": 0, "duration": 81}, {"note": 77, "velocity": 90, "duration": 372}, {"note": 0, "velocity": 0, "duration": 92}, {"note": 68, "velocity": 82, "duration": 56}, {"note": 68, "velocity": 86, "duration": 211}, {"note": 77, "velocity": 90, "duration": 122}, {"note": 75, "velocity": 87, "duration": 443}, {"note": 0, "velocity": 0, "duration": 155}, {"note": 75, "velocity": 97, "duration": 121}, {"note": 73, "velocity": 82, "duration": 66}, {"note": 72, "velocity": 87, "duration": 170}, {"note": 73, "velocity": 90, "duration": 288}, {"note": 0, "velocity": 0, "duration": 81}, {"note": 73, "velocity": 88, "duration": 53}, {"note": 73, "velocity": 93, "duration": 178}, {"note": 84, "velocity": 97, "duration": 160}, {"note": 0, "velocity": 0, "duration": 91}, {"note": 84, "velocity": 93, "duration": 193}, {"note": 82, "velocity": 87, "duration": 78}, {"note": 80, "velocity": 88, "duration": 279}, {"note": 0, "velocity": 0, "duration": 75}, {"note": 77, "velocity": 97, "duration": 110}, {"note": 79, "velocity": 86, "duration": 66}, {"note": 80, "velocity": 88, "duration": 86}, {"note": 0, "velocity": 0, "duration": 64}, {"note": 80, "velocity": 84, "duration": 50}, {"note": 80, "velocity": 86, "duration": 80}, {"note": 0, "velocity": 0, "duration": 63}, {"note": 80, "velocity": 85, "duration": 53}, {"note": 80, "velocity": 87, "duration": 92}, {"note": 82, "velocity": 89, "duration": 213}, {"note": 77, "velocity": 88, "duration": 210}, {"note": 79, "velocity": 88, "duration": 212}, {"note": 0, "velocity": 0, "duration": 147}, {"note": 84, "velocity": 102, "duration": 107}, {"note": 82, "velocity": 90, "duration": 62}, {"note": 80, "velocity": 92, "duration": 81}, {"note": 0, "velocity": 0, "duration": 63}, {"note": 79, "velocity": 91, "duration": 60}, {"note": 80, "velocity": 92, "duration": 160}, {"note": 0, "velocity": 0, "duration": 77}, {"note": 72, "velocity": 93, "duration": 73}, {"note": 72, "velocity": 90, "duration": 180}, {"note": 0, "velocity": 0, "duration": 61}, {"note": 80, "velocity": 88, "duration": 169}, {"note": 0, "velocity": 0, "duration": 78}, {"note": 79, "velocity": 88, "duration": 425}, {"note": 0, "velocity": 0, "duration": 158}, {"note": 79, "velocity": 91, "duration": 125}, {"note": 77, "velocity": 90, "duration": 57}, {"note": 75, "velocity": 90, "duration": 71}, {"note": 0, "velocity": 0, "duration": 81}, {"note": 77, "velocity": 90, "duration": 372}, {"note": 0, "velocity": 0, "duration": 92}, {"note": 68, "velocity": 82, "duration": 56}, {"note": 68, "velocity": 86, "duration": 211}, {"note": 77, "velocity": 90, "duration": 122}, {"note": 75, "velocity": 87, "duration": 443}, {"note": 0, "velocity": 0, "duration": 155}, {"note": 75, "velocity": 97, "duration": 121}, {"note": 73, "velocity": 82, "duration": 66}, {"note": 72, "velocity": 87, "duration": 170}, {"note": 73, "velocity": 90, "duration": 288}, {"note": 0, "velocity": 0, "duration": 81}, {"note": 73, "velocity": 88, "duration": 53}, {"note": 73, "velocity": 93, "duration": 178}, {"note": 84, "velocity": 97, "duration": 160}, {"note": 0, "velocity": 0, "duration": 91}, {"note": 84, "velocity": 93, "duration": 193}, {"note": 82, "velocity": 87, "duration": 78}, {"note": 80, "velocity": 88, "duration": 279}, {"note": 0, "velocity": 0, "duration": 75}, {"note": 77, "velocity": 97, "duration": 110}, {"note": 79, "velocity": 86, "duration": 66}, {"note": 80, "velocity": 88, "duration": 86}, {"note": 0, "velocity": 0, "duration": 64}, {"note": 80, "velocity": 84, "duration": 50}, {"note": 80, "velocity": 86, "duration": 80}, {"note": 0, "velocity": 0, "duration": 63}, {"note": 80, "velocity": 85, "duration": 53}, {"note": 80, "velocity": 87, "duration": 92}, {"note": 82, "velocity": 89, "duration": 213}, {"note": 77, "velocity": 88, "duration": 210}, {"note": 79, "velocity": 88, "duration": 308}, {"note": 77, "velocity": 91, "duration": 158}, {"note": 80, "velocity": 86, "duration": 327}, {"note": 82, "velocity": 88, "duration": 1386}, {"note": 0, "velocity": 0, "duration": 86}, {"note": 82, "velocity": 92, "duration": 154}, {"note": 85, "velocity": 97, "duration": 187}, {"note": 0, "velocity": 0, "duration": 79}, {"note": 84, "velocity": 90, "duration": 156}, {"note": 0, "velocity": 0, "duration": 90}, {"note": 80, "velocity": 90, "duration": 109}, {"note": 77, "velocity": 84, "duration": 48}, {"note": 80, "velocity": 93, "duration": 98}, {"note": 77, "velocity": 86, "duration": 61}, {"note": 82, "velocity": 90, "duration": 208}, {"note": 80, "velocity": 102, "duration": 470}, {"note": 0, "velocity": 0, "duration": 3861}, {"note": 86, "velocity": 102, "duration": 107}, {"note": 84, "velocity": 90, "duration": 62}, {"note": 82, "velocity": 92, "duration": 81}, {"note": 0, "velocity": 0, "duration": 63}, {"note": 81, "velocity": 91, "duration": 60}, {"note": 82, "velocity": 92, "duration": 160}, {"note": 0, "velocity": 0, "duration": 77}, {"note": 74, "velocity": 93, "duration": 73}, {"note": 74, "velocity": 90, "duration": 180}, {"note": 0, "velocity": 0, "duration": 61}, {"note": 82, "velocity": 88, "duration": 169}, {"note": 0, "velocity": 0, "duration": 78}, {"note": 81, "velocity": 88, "duration": 425}, {"note": 0, "velocity": 0, "duration": 158}, {"note": 81, "velocity": 91, "duration": 125}, {"note": 79, "velocity": 90, "duration": 57}, {"note": 77, "velocity": 90, "duration": 71}, {"note": 0, "velocity": 0, "duration": 81}, {"note": 79, "velocity": 90, "duration": 372}, {"note": 0, "velocity": 0, "duration": 92}, {"note": 70, "velocity": 82, "duration": 56}, {"note": 70, "velocity": 86, "duration": 211}, {"note": 79, "velocity": 90, "duration": 122}, {"note": 77, "velocity": 87, "duration": 443}, {"note": 0, "velocity": 0, "duration": 155}, {"note": 77, "velocity": 97, "duration": 121}, {"note": 75, "velocity": 82, "duration": 66}, {"note": 74, "velocity": 87, "duration": 170}, {"note": 75, "velocity": 90, "duration": 288}, {"note": 0, "velocity": 0, "duration": 81}, {"note": 75, "velocity": 88, "duration": 53}, {"note": 75, "velocity": 93, "duration": 178}, {"note": 86, "velocity": 97, "duration": 160}, {"note": 0, "velocity": 0, "duration": 91}, {"note": 86, "velocity": 93, "duration": 193}, {"note": 84, "velocity": 87, "duration": 78}, {"note": 82, "velocity": 88, "duration": 279}, {"note": 0, "velocity": 0, "duration": 75}, {"note": 79, "velocity": 97, "duration": 110}, {"note": 81, "velocity": 86, "duration": 66}, {"note": 82, "velocity": 88, "duration": 86}, {"note": 0, "velocity": 0, "duration": 64}, {"note": 82, "velocity": 84, "duration": 50}, {"note": 82, "velocity": 86, "duration": 80}, {"note": 0, "velocity": 0, "duration": 63}, {"note": 82, "velocity": 85, "duration": 53}, {"note": 82, "velocity": 87, "duration": 92}, {"note": 84, "velocity": 89, "duration": 213}, {"note": 86, "velocity": 88, "duration": 210}, {"note": 0, "velocity": 0, "duration": 131}, {"note": 81, "velocity": 88, "duration": 96}, {"note": 0, "velocity": 0, "duration": 147}, {"note": 86, "velocity": 102, "duration": 107}, {"note": 84, "velocity": 90, "duration": 62}, {"note": 86, "velocity": 92, "duration": 81}, {"note": 0, "velocity": 0, "duration": 63}, {"note": 85, "velocity": 91, "duration": 60}, {"note": 86, "velocity": 92, "duration": 160}, {"note": 0, "velocity": 0, "duration": 77}, {"note": 79, "velocity": 93, "duration": 73}, {"note": 79, "velocity": 90, "duration": 180}, {"note": 0, "velocity": 0, "duration": 61}, {"note": 86, "velocity": 88, "duration": 169}, {"note": 0, "velocity": 0, "duration": 183}, {"note": 81, "velocity": 88, "duration": 320}, {"note": 0, "velocity": 0, "duration": 156}, {"note": 82, "velocity": 91, "duration": 120}, {"note": 81, "velocity": 90, "duration": 57}, {"note": 0, "velocity": 0, "duration": 63}, {"note": 79, "velocity": 90, "duration": 69}, {"note": 77, "velocity": 97, "duration": 67}, {"note": 79, "velocity": 90, "duration": 312}, {"note": 79, "velocity": 82, "duration": 56}, {"note": 0, "velocity": 0, "duration": 64}, {"note": 79, "velocity": 86, "duration": 211}, {"note": 82, "velocity": 90, "duration": 122}, {"note": 79, "velocity": 87, "duration": 398}, {"note": 77, "velocity": 97, "duration": 151}, {"note": 0, "velocity": 0, "duration": 95}, {"note": 77, "velocity": 97, "duration": 121}, {"note": 77, "velocity": 82, "duration": 187}, {"note": 74, "velocity": 87, "duration": 56}, {"note": 75, "velocity": 90, "duration": 288}, {"note": 0, "velocity": 0, "duration": 81}, {"note": 75, "velocity": 88, "duration": 53}, {"note": 75, "velocity": 93, "duration": 178}, {"note": 86, "velocity": 97, "duration": 160}, {"note": 0, "velocity": 0, "duration": 91}, {"note": 86, "velocity": 93, "duration": 193}, {"note": 84, "velocity": 87, "duration": 78}, {"note": 82, "velocity": 88, "duration": 279}, {"note": 0, "velocity": 0, "duration": 75}, {"note": 79, "velocity": 97, "duration": 110}, {"note": 81, "velocity": 86, "duration": 66}, {"note": 82, "velocity": 88, "duration": 86}, {"note": 0, "velocity": 0, "duration": 64}, {"note": 82, "velocity": 84, "duration": 50}, {"note": 82, "velocity": 86, "duration": 80}, {"note": 0, "velocity": 0, "duration": 63}, {"note": 82, "velocity": 85, "duration": 53}, {"note": 82, "velocity": 87, "duration": 92}, {"note": 84, "velocity": 89, "duration": 213}, {"note": 86, "velocity": 88, "duration": 210}, {"note": 81, "velocity": 88, "duration": 308}, {"note": 86, "velocity": 102, "duration": 107}, {"note": 84, "velocity": 90, "duration": 62}, {"note": 86, "velocity": 92, "duration": 81}, {"note": 0, "velocity": 0, "duration": 63}, {"note": 85, "velocity": 91, "duration": 60}, {"note": 86, "velocity": 92, "duration": 160}, {"note": 0, "velocity": 0, "duration": 193}, {"note": 79, "velocity": 93, "duration": 73}, {"note": 79, "velocity": 90, "duration": 180}, {"note": 86, "velocity": 88, "duration": 169}, {"note": 0, "velocity": 0, "duration": 184}, {"note": 81, "velocity": 88, "duration": 331}, {"note": 0, "velocity": 0, "duration": 149}, {"note": 82, "velocity": 91, "duration": 125}, {"note": 81, "velocity": 90, "duration": 57}, {"note": 79, "velocity": 90, "duration": 71}, {"note": 0, "velocity": 0, "duration": 82}, {"note": 77, "velocity": 97, "duration": 120}, {"note": 79, "velocity": 90, "duration": 345}, {"note": 79, "velocity": 82, "duration": 56}, {"note": 79, "velocity": 86, "duration": 211}, {"note": 82, "velocity": 90, "duration": 122}, {"note": 0, "velocity": 0, "duration": 103}, {"note": 77, "velocity": 87, "duration": 120}, {"note": 0, "velocity": 0, "duration": 157}, {"note": 77, "velocity": 97, "duration": 95}, {"note": 0, "velocity": 0, "duration": 133}, {"note": 77, "velocity": 97, "duration": 121}, {"note": 75, "velocity": 82, "duration": 71}, {"note": 0, "velocity": 0, "duration": 129}, {"note": 74, "velocity": 87, "duration": 104}, {"note": 75, "velocity": 90, "duration": 288}, {"note": 0, "velocity": 0, "duration": 81}, {"note": 75, "velocity": 88, "duration": 53}, {"note": 75, "velocity": 93, "duration": 178}, {"note": 86, "velocity": 97, "duration": 160}, {"note": 0, "velocity": 0, "duration": 91}, {"note": 86, "velocity": 93, "duration": 193}, {"note": 84, "velocity": 87, "duration": 78}, {"note": 82, "velocity": 88, "duration": 279}, {"note": 0, "velocity": 0, "duration": 75}, {"note": 79, "velocity": 97, "duration": 110}, {"note": 81, "velocity": 86, "duration": 66}, {"note": 82, "velocity": 88, "duration": 86}, {"note": 0, "velocity": 0, "duration": 64}, {"note": 82, "velocity": 84, "duration": 50}, {"note": 82, "velocity": 86, "duration": 80}, {"note": 0, "velocity": 0, "duration": 63}, {"note": 82, "velocity": 85, "duration": 53}, {"note": 82, "velocity": 87, "duration": 92}, {"note": 84, "velocity": 89, "duration": 213}, {"note": 86, "velocity": 88, "duration": 210}, {"note": 81, "velocity": 88, "duration": 308}, {"note": 79, "velocity": 91, "duration": 158}, {"note": 78, "velocity": 86, "duration": 327}, {"note": 79, "velocity": 88, "duration": 1386}, {"note": 82, "velocity": 101, "duration": 43}, {"note": 82, "velocity": 101, "duration": 242}, {"note": 81, "velocity": 101, "duration": 494}, {"note": 0, "velocity": 0, "duration": 106}, {"note": 79, "velocity": 101, "duration": 198}, {"note": 82, "velocity": 101, "duration": 679}, {"note": 84, "velocity": 101, "duration": 152}, {"note": 86, "velocity": 101, "duration": 213}, {"note": 84, "velocity": 101, "duration": 653}, {"note": 79, "velocity": 101, "duration": 212}, {"note": 77, "velocity": 101, "duration": 280}, {"note": 79, "velocity": 101, "duration": 545}, {"note": 72, "velocity": 101, "duration": 108}, {"note": 74, "velocity": 101, "duration": 144}, {"note": 72, "velocity": 101, "duration": 289}, {"note": 70, "velocity": 101, "duration": 432}, {"note": 0, "velocity": 0, "duration": 288}, {"note": 72, "velocity": 101, "duration": 622}, {"note": 0, "velocity": 0, "duration": 218}, {"note": 70, "velocity": 105, "duration": 144}, {"note": 69, "velocity": 105, "duration": 272}, {"note": 67, "velocity": 105, "duration": 255}, {"note": 72, "velocity": 105, "duration": 217}, {"note": 70, "velocity": 105, "duration": 169}, {"note": 69, "velocity": 105, "duration": 177}, {"note": 0, "velocity": 0, "duration": 423}, {"note": 67, "velocity": 105, "duration": 781}]]