[[{"note": 78, "velocity": 87, "duration": 62}, {"note": 78, "velocity": 87, "duration": 56}, {"note": 0, "velocity": 0, "duration": 64}, {"note": 78, "velocity": 84, "duration": 58}, {"note": 0, "velocity": 0, "duration": 62}, {"note": 78, "velocity": 84, "duration": 104}, {"note": 76, "velocity": 99, "duration": 82}, {"note": 0, "velocity": 0, "duration": 158}, {"note": 73, "velocity": 91, "duration": 156}, {"note": 0, "velocity": 0, "duration": 324}, {"note": 74, "velocity": 89, "duration": 435}, {"note": 73, "velocity": 89, "duration": 116}, {"note": 0, "velocity": 0, "duration": 124}, {"note": 71, "velocity": 84, "duration": 131}, {"note": 0, "velocity": 0, "duration": 109}, {"note": 74, "velocity": 89, "duration": 669}, {"note": 0, "velocity": 0, "duration": 1011}, {"note": 78, "velocity": 88, "duration": 55}, {"note": 0, "velocity": 0, "duration": 65}, {"note": 78, "velocity": 87, "duration": 54}, {"note": 0, "velocity": 0, "duration": 66}, {"note": 78, "velocity": 88, "duration": 49}, {"note": 0, "velocity": 0, "duration": 71}, {"note": 78, "velocity": 90, "duration": 54}, {"note": 0, "velocity": 0, "duration": 66}, {"note": 76, "velocity": 82, "duration": 102}, {"note": 0, "velocity": 0, "duration": 138}, {"note": 81, "velocity": 81, "duration": 331}, {"note": 0, "velocity": 0, "duration": 149}, {"note": 73, "velocity": 88, "duration": 238}, {"note": 0, "velocity": 0, "duration": 242}, {"note": 74, "velocity": 92, "duration": 238}, {"note": 69, "velocity": 77, "duration": 238}, {"note": 73, "velocity": 77, "duration": 487}, {"note": 74, "velocity": 90, "duration": 247}, {"note": 69, "velocity": 90, "duration": 300}, {"note": 71, "velocity": 90, "duration": 563}, {"note": 0, "velocity": 0, "duration": 157}, {"note": 78, "velocity": 95, "duration": 123}, {"note": 76, "velocity": 90, "duration": 83}, {"note": 74, "velocity": 89, "duration": 95}, {"note": 76, "velocity": 90, "duration": 83}, {"note": 76, "velocity": 91, "duration": 149}, {"note": 0, "velocity": 0, "duration": 189}, {"note": 69, "velocity": 88, "duration": 238}, {"note": 0, "velocity": 0, "duration": 144}, {"note": 69, "velocity": 88, "duration": 453}, {"note": 0, "velocity": 0, "duration": 267}, {"note": 78, "velocity": 92, "duration": 130}, {"note": 76, "velocity": 95, "duration": 71}, {"note": 74, "velocity": 91, "duration": 168}, {"note": 0, "velocity": 0, "duration": 72}, {"note": 76, "velocity": 88, "duration": 358}, {"note": 73, "velocity": 88, "duration": 383}, {"note": 71, "velocity": 82, "duration": 757}, {"note": 78, "velocity": 82, "duration": 87}, {"note": 0, "velocity": 0, "duration": 653}, {"note": 69, "velocity": 89, "duration": 178}, {"note": 0, "velocity": 0, "duration": 62}, {"note": 78, "velocity": 89, "duration": 159}, {"note": 0, "velocity": 0, "duration": 81}, {"note": 76, "velocity": 88, "duration": 373}, {"note": 0, "velocity": 0, "duration": 107}, {"note": 81, "velocity": 89, "duration": 581}, {"note": 0, "velocity": 0, "duration": 139}, {"note": 81, "velocity": 90, "duration": 175}, {"note": 0, "velocity": 0, "duration": 65}, {"note": 78, "velocity": 90, "duration": 152}, {"note": 0, "velocity": 0, "duration": 88}, {"note": 74, "velocity": 88, "duration": 177}, {"note": 0, "velocity": 0, "duration": 63}, {"note": 71, "velocity": 90, "duration": 560}, {"note": 0, "velocity": 0, "duration": 160}, {"note": 81, "velocity": 88, "duration": 181}, {"note": 76, "velocity": 89, "duration": 362}, {"note": 0, "velocity": 0, "duration": 118}, {"note": 73, "velocity": 92, "duration": 176}, {"note": 0, "velocity": 0, "duration": 64}, {"note": 69, "velocity": 89, "duration": 135}, {"note": 0, "velocity": 0, "duration": 105}, {"note": 73, "velocity": 84, "duration": 402}, {"note": 0, "velocity": 0, "duration": 78}, {"note": 74, "velocity": 93, "duration": 411}, {"note": 0, "velocity": 0, "duration": 309}, {"note": 81, "velocity": 88, "duration": 180}, {"note": 78, "velocity": 89, "duration": 182}, {"note": 74, "velocity": 92, "duration": 189}, {"note": 83, "velocity": 88, "duration": 547}, {"note": 81, "velocity": 93, "duration": 179}, {"note": 0, "velocity": 0, "duration": 61}, {"note": 81, "velocity": 93, "duration": 179}, {"note": 0, "velocity": 0, "duration": 61}, {"note": 83, "velocity": 89, "duration": 602}, {"note": 81, "velocity": 93, "duration": 179}, {"note": 0, "velocity": 0, "duration": 61}, {"note": 81, "velocity": 86, "duration": 175}, {"note": 0, "velocity": 0, "duration": 65}, {"note": 78, "velocity": 90, "duration": 391}, {"note": 76, "velocity": 85, "duration": 121}, {"note": 74, "velocity": 89, "duration": 251}, {"note": 0, "velocity": 0, "duration": 229}, {"note": 74, "velocity": 99, "duration": 100}, {"note": 0, "velocity": 0, "duration": 140}, {"note": 81, "velocity": 89, "duration": 190}, {"note": 78, "velocity": 88, "duration": 190}, {"note": 74, "velocity": 89, "duration": 145}, {"note": 0, "velocity": 0, "duration": 95}, {"note": 74, "velocity": 92, "duration": 533}, {"note": 0, "velocity": 0, "duration": 187}, {"note": 81, "velocity": 88, "duration": 155}, {"note": 0, "velocity": 0, "duration": 85}, {"note": 76, "velocity": 88, "duration": 579}, {"note": 0, "velocity": 0, "duration": 141}, {"note": 73, "velocity": 83, "duration": 136}, {"note": 0, "velocity": 0, "duration": 104}, {"note": 73, "velocity": 88, "duration": 383}, {"note": 0, "velocity": 0, "duration": 97}, {"note": 74, "velocity": 90, "duration": 441}, {"note": 0, "velocity": 0, "duration": 159}, {"note": 74, "velocity": 90, "duration": 78}, {"note": 81, "velocity": 88, "duration": 181}, {"note": 78, "velocity": 91, "duration": 112}, {"note": 78, "velocity": 90, "duration": 137}, {"note": 0, "velocity": 0, "duration": 113}, {"note": 76, "velocity": 89, "duration": 262}, {"note": 74, "velocity": 90, "duration": 1327}, {"note": 0, "velocity": 0, "duration": 113}, {"note": 78, "velocity": 88, "duration": 253}, {"note": 76, "velocity": 90, "duration": 470}, {"note": 78, "velocity": 84, "duration": 74}, {"note": 0, "velocity": 0, "duration": 419}, {"note": 69, "velocity": 87, "duration": 173}, {"note": 0, "velocity": 0, "duration": 67}, {"note": 73, "velocity": 83, "duration": 175}, {"note": 0, "velocity": 0, "duration": 65}, {"note": 74, "velocity": 92, "duration": 198}, {"note": 69, "velocity": 90, "duration": 199}, {"note": 73, "velocity": 84, "duration": 224}, {"note": 71, "velocity": 84, "duration": 1114}, {"note": 0, "velocity": 0, "duration": 7046}, {"note": 78, "velocity": 87, "duration": 62}, {"note": 78, "velocity": 87, "duration": 56}, {"note": 0, "velocity": 0, "duration": 64}, {"note": 78, "velocity": 84, "duration": 58}, {"note": 0, "velocity": 0, "duration": 62}, {"note": 78, "velocity": 84, "duration": 104}, {"note": 76, "velocity": 99, "duration": 82}, {"note": 0, "velocity": 0, "duration": 158}, {"note": 73, "velocity": 91, "duration": 347}, {"note": 0, "velocity": 0, "duration": 133}, {"note": 74, "velocity": 89, "duration": 435}, {"note": 73, "velocity": 89, "duration": 116}, {"note": 0, "velocity": 0, "duration": 124}, {"note": 71, "velocity": 84, "duration": 131}, {"note": 0, "velocity": 0, "duration": 109}, {"note": 74, "velocity": 89, "duration": 669}, {"note": 0, "velocity": 0, "duration": 1011}, {"note": 78, "velocity": 88, "duration": 55}, {"note": 0, "velocity": 0, "duration": 65}, {"note": 78, "velocity": 87, "duration": 54}, {"note": 0, "velocity": 0, "duration": 66}, {"note": 78, "velocity": 88, "duration": 49}, {"note": 0, "velocity": 0, "duration": 71}, {"note": 78, "velocity": 90, "duration": 54}, {"note": 0, "velocity": 0, "duration": 66}, {"note": 76, "velocity": 82, "duration": 102}, {"note": 0, "velocity": 0, "duration": 138}, {"note": 81, "velocity": 81, "duration": 331}, {"note": 0, "velocity": 0, "duration": 149}, {"note": 73, "velocity": 88, "duration": 238}, {"note": 0, "velocity": 0, "duration": 242}, {"note": 74, "velocity": 92, "duration": 238}, {"note": 69, "velocity": 77, "duration": 238}, {"note": 73, "velocity": 77, "duration": 238}, {"note": 0, "velocity": 0, "duration": 242}, {"note": 74, "velocity": 90, "duration": 215}, {"note": 71, "velocity": 90, "duration": 786}, {"note": 0, "velocity": 0, "duration": 157}, {"note": 78, "velocity": 95, "duration": 123}, {"note": 76, "velocity": 90, "duration": 83}, {"note": 74, "velocity": 89, "duration": 95}, {"note": 76, "velocity": 90, "duration": 83}, {"note": 76, "velocity": 91, "duration": 149}, {"note": 0, "velocity": 0, "duration": 91}, {"note": 69, "velocity": 88, "duration": 336}, {"note": 0, "velocity": 0, "duration": 144}, {"note": 69, "velocity": 88, "duration": 453}, {"note": 0, "velocity": 0, "duration": 267}, {"note": 78, "velocity": 92, "duration": 130}, {"note": 76, "velocity": 95, "duration": 71}, {"note": 74, "velocity": 91, "duration": 168}, {"note": 0, "velocity": 0, "duration": 72}, {"note": 76, "velocity": 88, "duration": 358}, {"note": 73, "velocity": 88, "duration": 383}, {"note": 74, "velocity": 82, "duration": 1267}, {"note": 0, "velocity": 0, "duration": 173}, {"note": 71, "velocity": 89, "duration": 178}, {"note": 0, "velocity": 0, "duration": 62}, {"note": 78, "velocity": 89, "duration": 159}, {"note": 0, "velocity": 0, "duration": 81}, {"note": 76, "velocity": 88, "duration": 547}, {"note": 81, "velocity": 89, "duration": 581}, {"note": 0, "velocity": 0, "duration": 139}, {"note": 81, "velocity": 90, "duration": 175}, {"note": 0, "velocity": 0, "duration": 65}, {"note": 78, "velocity": 90, "duration": 152}, {"note": 0, "velocity": 0, "duration": 88}, {"note": 74, "velocity": 88, "duration": 177}, {"note": 0, "velocity": 0, "duration": 63}, {"note": 71, "velocity": 90, "duration": 560}, {"note": 0, "velocity": 0, "duration": 160}, {"note": 81, "velocity": 88, "duration": 181}, {"note": 76, "velocity": 89, "duration": 362}, {"note": 0, "velocity": 0, "duration": 118}, {"note": 73, "velocity": 92, "duration": 176}, {"note": 0, "velocity": 0, "duration": 64}, {"note": 69, "velocity": 89, "duration": 135}, {"note": 0, "velocity": 0, "duration": 105}, {"note": 73, "velocity": 84, "duration": 402}, {"note": 0, "velocity": 0, "duration": 78}, {"note": 74, "velocity": 93, "duration": 411}, {"note": 0, "velocity": 0, "duration": 309}, {"note": 81, "velocity": 88, "duration": 180}, {"note": 78, "velocity": 89, "duration": 182}, {"note": 74, "velocity": 92, "duration": 189}, {"note": 83, "velocity": 88, "duration": 620}, {"note": 0, "velocity": 0, "duration": 100}, {"note": 81, "velocity": 73, "duration": 179}, {"note": 0, "velocity": 0, "duration": 61}, {"note": 83, "velocity": 89, "duration": 602}, {"note": 0, "velocity": 0, "duration": 118}, {"note": 81, "velocity": 86, "duration": 175}, {"note": 0, "velocity": 0, "duration": 65}, {"note": 78, "velocity": 90, "duration": 444}, {"note": 76, "velocity": 90, "duration": 107}, {"note": 74, "velocity": 89, "duration": 251}, {"note": 0, "velocity": 0, "duration": 229}, {"note": 74, "velocity": 99, "duration": 100}, {"note": 0, "velocity": 0, "duration": 140}, {"note": 81, "velocity": 89, "duration": 190}, {"note": 78, "velocity": 88, "duration": 190}, {"note": 74, "velocity": 89, "duration": 145}, {"note": 0, "velocity": 0, "duration": 95}, {"note": 74, "velocity": 92, "duration": 533}, {"note": 0, "velocity": 0, "duration": 187}, {"note": 81, "velocity": 88, "duration": 155}, {"note": 0, "velocity": 0, "duration": 85}, {"note": 76, "velocity": 88, "duration": 397}, {"note": 78, "velocity": 103, "duration": 113}, {"note": 0, "velocity": 0, "duration": 253}, {"note": 73, "velocity": 83, "duration": 136}, {"note": 0, "velocity": 0, "duration": 104}, {"note": 73, "velocity": 88, "duration": 383}, {"note": 0, "velocity": 0, "duration": 97}, {"note": 74, "velocity": 90, "duration": 441}, {"note": 0, "velocity": 0, "duration": 159}, {"note": 74, "velocity": 90, "duration": 78}, {"note": 81, "velocity": 88, "duration": 181}, {"note": 78, "velocity": 91, "duration": 112}, {"note": 78, "velocity": 90, "duration": 137}, {"note": 0, "velocity": 0, "duration": 146}, {"note": 76, "velocity": 89, "duration": 118}, {"note": 74, "velocity": 82, "duration": 74}, {"note": 76, "velocity": 59, "duration": 77}, {"note": 74, "velocity": 90, "duration": 1380}, {"note": 0, "velocity": 0, "duration": 65}, {"note": 78, "velocity": 88, "duration": 307}, {"note": 76, "velocity": 90, "duration": 500}, {"note": 78, "velocity": 90, "duration": 117}, {"note": 0, "velocity": 0, "duration": 383}, {"note": 69, "velocity": 87, "duration": 173}, {"note": 0, "velocity": 0, "duration": 67}, {"note": 73, "velocity": 83, "duration": 175}, {"note": 0, "velocity": 0, "duration": 65}, {"note": 74, "velocity": 92, "duration": 198}, {"note": 69, "velocity": 90, "duration": 199}, {"note": 73, "velocity": 84, "duration": 654}, {"note": 0, "velocity": 0, "duration": 66}, {"note": 74, "velocity": 89, "duration": 167}, {"note": 0, "velocity": 0, "duration": 73}, {"note": 74, "velocity": 97, "duration": 420}, {"note": 74, "velocity": 95, "duration": 178}, {"note": 0, "velocity": 0, "duration": 62}, {"note": 76, "velocity": 92, "duration": 161}, {"note": 0, "velocity": 0, "duration": 79}, {"note": 77, "velocity": 88, "duration": 302}, {"note": 76, "velocity": 88, "duration": 215}, {"note": 77, "velocity": 89, "duration": 1114}, {"note": 77, "velocity": 90, "duration": 252}, {"note": 76, "velocity": 89, "duration": 498}, {"note": 0, "velocity": 0, "duration": 1222}, {"note": 76, "velocity": 87, "duration": 226}, {"note": 74, "velocity": 89, "duration": 500}, {"note": 0, "velocity": 0, "duration": 1195}, {"note": 79, "velocity": 100, "duration": 210}, {"note": 78, "velocity": 83, "duration": 614}, {"note": 81, "velocity": 83, "duration": 1220}, {"note": 79, "velocity": 92, "duration": 235}, {"note": 78, "velocity": 101, "duration": 143}, {"note": 0, "velocity": 0, "duration": 853}, {"note": 74, "velocity": 89, "duration": 238}, {"note": 81, "velocity": 90, "duration": 175}, {"note": 0, "velocity": 0, "duration": 65}, {"note": 79, "velocity": 90, "duration": 152}, {"note": 0, "velocity": 0, "duration": 88}, {"note": 81, "velocity": 88, "duration": 177}, {"note": 78, "velocity": 89, "duration": 117}, {"note": 76, "velocity": 94, "duration": 133}, {"note": 74, "velocity": 82, "duration": 515}, {"note": 81, "velocity": 88, "duration": 181}, {"note": 76, "velocity": 89, "duration": 362}, {"note": 0, "velocity": 0, "duration": 118}, {"note": 73, "velocity": 92, "duration": 176}, {"note": 0, "velocity": 0, "duration": 64}, {"note": 69, "velocity": 89, "duration": 135}, {"note": 0, "velocity": 0, "duration": 105}, {"note": 73, "velocity": 84, "duration": 402}, {"note": 0, "velocity": 0, "duration": 78}, {"note": 74, "velocity": 93, "duration": 411}, {"note": 0, "velocity": 0, "duration": 309}, {"note": 81, "velocity": 88, "duration": 180}, {"note": 78, "velocity": 89, "duration": 182}, {"note": 74, "velocity": 92, "duration": 189}, {"note": 83, "velocity": 88, "duration": 487}, {"note": 81, "velocity": 93, "duration": 179}, {"note": 0, "velocity": 0, "duration": 91}, {"note": 81, "velocity": 93, "duration": 179}, {"note": 0, "velocity": 0, "duration": 61}, {"note": 83, "velocity": 89, "duration": 487}, {"note": 81, "velocity": 86, "duration": 175}, {"note": 0, "velocity": 0, "duration": 85}, {"note": 81, "velocity": 86, "duration": 307}, {"note": 78, "velocity": 90, "duration": 444}, {"note": 76, "velocity": 79, "duration": 112}, {"note": 74, "velocity": 79, "duration": 284}, {"note": 0, "velocity": 0, "duration": 216}, {"note": 74, "velocity": 99, "duration": 100}, {"note": 0, "velocity": 0, "duration": 140}, {"note": 81, "velocity": 89, "duration": 190}, {"note": 78, "velocity": 88, "duration": 190}, {"note": 74, "velocity": 89, "duration": 145}, {"note": 0, "velocity": 0, "duration": 95}, {"note": 74, "velocity": 92, "duration": 533}, {"note": 0, "velocity": 0, "duration": 187}, {"note": 81, "velocity": 88, "duration": 155}, {"note": 0, "velocity": 0, "duration": 87}, {"note": 76, "velocity": 88, "duration": 387}, {"note": 78, "velocity": 83, "duration": 67}, {"note": 0, "velocity": 0, "duration": 293}, {"note": 73, "velocity": 83, "duration": 136}, {"note": 0, "velocity": 0, "duration": 104}, {"note": 73, "velocity": 88, "duration": 383}, {"note": 0, "velocity": 0, "duration": 97}, {"note": 74, "velocity": 90, "duration": 441}, {"note": 0, "velocity": 0, "duration": 159}, {"note": 74, "velocity": 90, "duration": 78}, {"note": 81, "velocity": 88, "duration": 181}, {"note": 78, "velocity": 91, "duration": 112}, {"note": 0, "velocity": 0, "duration": 128}, {"note": 78, "velocity": 90, "duration": 138}, {"note": 76, "velocity": 89, "duration": 123}, {"note": 74, "velocity": 82, "duration": 120}, {"note": 76, "velocity": 80, "duration": 129}, {"note": 74, "velocity": 106, "duration": 998}, {"note": 0, "velocity": 0, "duration": 460}, {"note": 78, "velocity": 88, "duration": 90}, {"note": 74, "velocity": 59, "duration": 59}, {"note": 0, "velocity": 0, "duration": 80}, {"note": 76, "velocity": 90, "duration": 465}, {"note": 81, "velocity": 59, "duration": 90}, {"note": 0, "velocity": 0, "duration": 385}, {"note": 81, "velocity": 87, "duration": 173}, {"note": 0, "velocity": 0, "duration": 67}, {"note": 78, "velocity": 83, "duration": 175}, {"note": 0, "velocity": 0, "duration": 65}, {"note": 78, "velocity": 92, "duration": 198}, {"note": 74, "velocity": 90, "duration": 199}, {"note": 74, "velocity": 59, "duration": 58}, {"note": 71, "velocity": 84, "duration": 433}, {"note": 0, "velocity": 0, "duration": 242}, {"note": 81, "velocity": 89, "duration": 167}, {"note": 78, "velocity": 59, "duration": 38}, {"note": 76, "velocity": 97, "duration": 478}, {"note": 73, "velocity": 95, "duration": 178}, {"note": 0, "velocity": 0, "duration": 62}, {"note": 69, "velocity": 92, "duration": 161}, {"note": 0, "velocity": 0, "duration": 79}, {"note": 73, "velocity": 88, "duration": 302}, {"note": 0, "velocity": 0, "duration": 178}, {"note": 74, "velocity": 88, "duration": 478}, {"note": 0, "velocity": 0, "duration": 242}, {"note": 81, "velocity": 89, "duration": 192}, {"note": 78, "velocity": 92, "duration": 194}, {"note": 74, "velocity": 95, "duration": 164}, {"note": 0, "velocity": 0, "duration": 76}, {"note": 83, "velocity": 90, "duration": 677}, {"note": 81, "velocity": 92, "duration": 180}, {"note": 83, "velocity": 94, "duration": 467}, {"note": 86, "velocity": 89, "duration": 607}, {"note": 78, "velocity": 91, "duration": 364}, {"note": 76, "velocity": 83, "duration": 64}, {"note": 74, "velocity": 83, "duration": 197}, {"note": 0, "velocity": 0, "duration": 300}, {"note": 74, "velocity": 104, "duration": 183}, {"note": 81, "velocity": 89, "duration": 149}, {"note": 0, "velocity": 0, "duration": 91}, {"note": 78, "velocity": 89, "duration": 174}, {"note": 0, "velocity": 0, "duration": 66}, {"note": 74, "velocity": 92, "duration": 150}, {"note": 0, "velocity": 0, "duration": 90}, {"note": 74, "velocity": 95, "duration": 636}, {"note": 0, "velocity": 0, "duration": 84}, {"note": 81, "velocity": 86, "duration": 164}, {"note": 0, "velocity": 0, "duration": 76}, {"note": 76, "velocity": 92, "duration": 478}, {"note": 73, "velocity": 88, "duration": 189}, {"note": 73, "velocity": 88, "duration": 189}, {"note": 73, "velocity": 89, "duration": 399}, {"note": 0, "velocity": 0, "duration": 81}, {"note": 74, "velocity": 94, "duration": 235}, {"note": 76, "velocity": 59, "duration": 50}, {"note": 0, "velocity": 0, "duration": 789}, {"note": 71, "velocity": 90, "duration": 71}, {"note": 74, "velocity": 97, "duration": 75}, {"note": 76, "velocity": 88, "duration": 97}, {"note": 78, "velocity": 94, "duration": 156}, {"note": 0, "velocity": 0, "duration": 84}, {"note": 78, "velocity": 89, "duration": 161}, {"note": 0, "velocity": 0, "duration": 79}, {"note": 76, "velocity": 90, "duration": 168}, {"note": 0, "velocity": 0, "duration": 72}, {"note": 71, "velocity": 92, "duration": 159}, {"note": 0, "velocity": 0, "duration": 81}, {"note": 74, "velocity": 94, "duration": 848}, {"note": 76, "velocity": 91, "duration": 42}, {"note": 0, "velocity": 0, "duration": 74}, {"note": 76, "velocity": 91, "duration": 489}, {"note": 78, "velocity": 91, "duration": 42}, {"note": 0, "velocity": 0, "duration": 456}, {"note": 69, "velocity": 88, "duration": 180}, {"note": 73, "velocity": 84, "duration": 189}, {"note": 74, "velocity": 92, "duration": 230}, {"note": 69, "velocity": 90, "duration": 211}, {"note": 73, "velocity": 90, "duration": 258}, {"note": 71, "velocity": 89, "duration": 1130}]]