[[{"note": 67, "velocity": 85, "duration": 389}, {"note": 0, "velocity": 0, "duration": 91}, {"note": 69, "velocity": 84, "duration": 405}, {"note": 0, "velocity": 0, "duration": 75}, {"note": 74, "velocity": 88, "duration": 370}, {"note": 0, "velocity": 0, "duration": 110}, {"note": 72, "velocity": 73, "duration": 153}, {"note": 0, "velocity": 0, "duration": 87}, {"note": 74, "velocity": 84, "duration": 348}, {"note": 0, "velocity": 0, "duration": 132}, {"note": 72, "velocity": 85, "duration": 364}, {"note": 0, "velocity": 0, "duration": 116}, {"note": 74, "velocity": 90, "duration": 990}, {"note": 0, "velocity": 0, "duration": 210}, {"note": 67, "velocity": 84, "duration": 326}, {"note": 0, "velocity": 0, "duration": 154}, {"note": 69, "velocity": 84, "duration": 334}, {"note": 0, "velocity": 0, "duration": 146}, {"note": 74, "velocity": 91, "duration": 361}, {"note": 0, "velocity": 0, "duration": 119}, {"note": 72, "velocity": 78, "duration": 154}, {"note": 0, "velocity": 0, "duration": 86}, {"note": 74, "velocity": 84, "duration": 348}, {"note": 0, "velocity": 0, "duration": 132}, {"note": 76, "velocity": 84, "duration": 718}, {"note": 74, "velocity": 91, "duration": 874}, {"note": 0, "velocity": 0, "duration": 86}, {"note": 67, "velocity": 84, "duration": 356}, {"note": 0, "velocity": 0, "duration": 124}, {"note": 69, "velocity": 84, "duration": 359}, {"note": 0, "velocity": 0, "duration": 121}, {"note": 74, "velocity": 80, "duration": 353}, {"note": 0, "velocity": 0, "duration": 127}, {"note": 72, "velocity": 80, "duration": 133}, {"note": 0, "velocity": 0, "duration": 107}, {"note": 72, "velocity": 81, "duration": 455}, {"note": 69, "velocity": 85, "duration": 562}, {"note": 0, "velocity": 0, "duration": 158}, {"note": 74, "velocity": 87, "duration": 396}, {"note": 0, "velocity": 0, "duration": 84}, {"note": 76, "velocity": 82, "duration": 143}, {"note": 0, "velocity": 0, "duration": 97}, {"note": 74, "velocity": 85, "duration": 431}, {"note": 72, "velocity": 81, "duration": 586}, {"note": 0, "velocity": 0, "duration": 134}, {"note": 74, "velocity": 84, "duration": 358}, {"note": 0, "velocity": 0, "duration": 122}, {"note": 72, "velocity": 80, "duration": 139}, {"note": 0, "velocity": 0, "duration": 101}, {"note": 72, "velocity": 82, "duration": 439}, {"note": 69, "velocity": 84, "duration": 661}, {"note": 67, "velocity": 82, "duration": 860}, {"note": 0, "velocity": 0, "duration": 100}, {"note": 67, "velocity": 85, "duration": 389}, {"note": 0, "velocity": 0, "duration": 91}, {"note": 69, "velocity": 84, "duration": 405}, {"note": 0, "velocity": 0, "duration": 75}, {"note": 74, "velocity": 88, "duration": 370}, {"note": 0, "velocity": 0, "duration": 110}, {"note": 72, "velocity": 73, "duration": 153}, {"note": 0, "velocity": 0, "duration": 87}, {"note": 74, "velocity": 84, "duration": 348}, {"note": 0, "velocity": 0, "duration": 132}, {"note": 72, "velocity": 85, "duration": 364}, {"note": 0, "velocity": 0, "duration": 116}, {"note": 74, "velocity": 90, "duration": 990}, {"note": 0, "velocity": 0, "duration": 210}, {"note": 67, "velocity": 84, "duration": 326}, {"note": 0, "velocity": 0, "duration": 154}, {"note": 69, "velocity": 84, "duration": 334}, {"note": 0, "velocity": 0, "duration": 146}, {"note": 74, "velocity": 91, "duration": 361}, {"note": 0, "velocity": 0, "duration": 119}, {"note": 72, "velocity": 78, "duration": 154}, {"note": 0, "velocity": 0, "duration": 86}, {"note": 74, "velocity": 84, "duration": 348}, {"note": 0, "velocity": 0, "duration": 132}, {"note": 76, "velocity": 84, "duration": 718}, {"note": 74, "velocity": 91, "duration": 874}, {"note": 0, "velocity": 0, "duration": 86}, {"note": 67, "velocity": 84, "duration": 356}, {"note": 0, "velocity": 0, "duration": 124}, {"note": 69, "velocity": 84, "duration": 359}, {"note": 0, "velocity": 0, "duration": 121}, {"note": 74, "velocity": 80, "duration": 353}, {"note": 0, "velocity": 0, "duration": 127}, {"note": 72, "velocity": 80, "duration": 133}, {"note": 0, "velocity": 0, "duration": 107}, {"note": 72, "velocity": 81, "duration": 455}, {"note": 69, "velocity": 85, "duration": 562}, {"note": 0, "velocity": 0, "duration": 158}, {"note": 74, "velocity": 87, "duration": 396}, {"note": 0, "velocity": 0, "duration": 84}, {"note": 76, "velocity": 82, "duration": 143}, {"note": 0, "velocity": 0, "duration": 97}, {"note": 74, "velocity": 85, "duration": 431}, {"note": 72, "velocity": 81, "duration": 586}, {"note": 0, "velocity": 0, "duration": 134}, {"note": 81, "velocity": 84, "duration": 358}, {"note": 0, "velocity": 0, "duration": 122}, {"note": 79, "velocity": 80, "duration": 139}, {"note": 0, "velocity": 0, "duration": 101}, {"note": 79, "velocity": 82, "duration": 439}, {"note": 76, "velocity": 84, "duration": 661}, {"note": 74, "velocity": 82, "duration": 860}, {"note": 0, "velocity": 0, "duration": 100}, {"note": 72, "velocity": 86, "duration": 400}, {"note": 0, "velocity": 0, "duration": 80}, {"note": 74, "velocity": 90, "duration": 365}, {"note": 0, "velocity": 0, "duration": 115}, {"note": 79, "velocity": 84, "duration": 964}, {"note": 72, "velocity": 83, "duration": 377}, {"note": 0, "velocity": 0, "duration": 103}, {"note": 74, "velocity": 85, "duration": 165}, {"note": 0, "velocity": 0, "duration": 75}, {"note": 76, "velocity": 80, "duration": 932}, {"note": 0, "velocity": 0, "duration": 268}, {"note": 76, "velocity": 85, "duration": 190}, {"note": 74, "velocity": 87, "duration": 120}, {"note": 0, "velocity": 0, "duration": 120}, {"note": 74, "velocity": 86, "duration": 186}, {"note": 72, "velocity": 85, "duration": 185}, {"note": 76, "velocity": 88, "duration": 323}, {"note": 0, "velocity": 0, "duration": 157}, {"note": 84, "velocity": 85, "duration": 351}, {"note": 0, "velocity": 0, "duration": 129}, {"note": 83, "velocity": 86, "duration": 339}, {"note": 0, "velocity": 0, "duration": 141}, {"note": 81, "velocity": 78, "duration": 165}, {"note": 0, "velocity": 0, "duration": 75}, {"note": 76, "velocity": 87, "duration": 1029}, {"note": 0, "velocity": 0, "duration": 171}, {"note": 83, "velocity": 85, "duration": 287}, {"note": 0, "velocity": 0, "duration": 73}, {"note": 81, "velocity": 85, "duration": 273}, {"note": 0, "velocity": 0, "duration": 87}, {"note": 79, "velocity": 81, "duration": 253}, {"note": 81, "velocity": 83, "duration": 802}, {"note": 0, "velocity": 0, "duration": 158}, {"note": 81, "velocity": 85, "duration": 267}, {"note": 0, "velocity": 0, "duration": 93}, {"note": 79, "velocity": 85, "duration": 307}, {"note": 77, "velocity": 80, "duration": 218}, {"note": 79, "velocity": 84, "duration": 739}, {"note": 0, "velocity": 0, "duration": 221}, {"note": 76, "velocity": 84, "duration": 206}, {"note": 74, "velocity": 88, "duration": 180}, {"note": 72, "velocity": 85, "duration": 194}, {"note": 74, "velocity": 91, "duration": 605}, {"note": 0, "velocity": 0, "duration": 115}, {"note": 72, "velocity": 84, "duration": 437}, {"note": 69, "velocity": 87, "duration": 358}, {"note": 76, "velocity": 84, "duration": 358}, {"note": 74, "velocity": 85, "duration": 238}, {"note": 74, "velocity": 81, "duration": 814}, {"note": 0, "velocity": 0, "duration": 163}, {"note": 72, "velocity": 86, "duration": 400}, {"note": 0, "velocity": 0, "duration": 80}, {"note": 74, "velocity": 90, "duration": 365}, {"note": 0, "velocity": 0, "duration": 115}, {"note": 79, "velocity": 84, "duration": 964}, {"note": 72, "velocity": 83, "duration": 377}, {"note": 0, "velocity": 0, "duration": 103}, {"note": 74, "velocity": 85, "duration": 165}, {"note": 0, "velocity": 0, "duration": 75}, {"note": 76, "velocity": 80, "duration": 932}, {"note": 0, "velocity": 0, "duration": 268}, {"note": 76, "velocity": 85, "duration": 190}, {"note": 74, "velocity": 87, "duration": 120}, {"note": 0, "velocity": 0, "duration": 120}, {"note": 74, "velocity": 86, "duration": 186}, {"note": 72, "velocity": 85, "duration": 185}, {"note": 76, "velocity": 88, "duration": 323}, {"note": 0, "velocity": 0, "duration": 157}, {"note": 84, "velocity": 85, "duration": 351}, {"note": 0, "velocity": 0, "duration": 129}, {"note": 83, "velocity": 86, "duration": 339}, {"note": 0, "velocity": 0, "duration": 124}, {"note": 84, "velocity": 78, "duration": 165}, {"note": 0, "velocity": 0, "duration": 75}, {"note": 81, "velocity": 87, "duration": 1029}, {"note": 0, "velocity": 0, "duration": 171}, {"note": 81, "velocity": 85, "duration": 399}, {"note": 0, "velocity": 0, "duration": 81}, {"note": 88, "velocity": 73, "duration": 390}, {"note": 0, "velocity": 0, "duration": 90}, {"note": 86, "velocity": 86, "duration": 394}, {"note": 0, "velocity": 0, "duration": 86}, {"note": 83, "velocity": 85, "duration": 392}, {"note": 0, "velocity": 0, "duration": 88}, {"note": 79, "velocity": 84, "duration": 464}, {"note": 76, "velocity": 84, "duration": 478}, {"note": 81, "velocity": 75, "duration": 958}, {"note": 76, "velocity": 82, "duration": 175}, {"note": 0, "velocity": 0, "duration": 65}, {"note": 74, "velocity": 87, "duration": 166}, {"note": 0, "velocity": 0, "duration": 74}, {"note": 72, "velocity": 84, "duration": 156}, {"note": 0, "velocity": 0, "duration": 84}, {"note": 74, "velocity": 88, "duration": 675}, {"note": 81, "velocity": 84, "duration": 353}, {"note": 0, "velocity": 0, "duration": 127}, {"note": 81, "velocity": 85, "duration": 395}, {"note": 0, "velocity": 0, "duration": 85}, {"note": 79, "velocity": 84, "duration": 485}, {"note": 74, "velocity": 84, "duration": 360}, {"note": 0, "velocity": 0, "duration": 120}, {"note": 76, "velocity": 90, "duration": 723}, {"note": 0, "velocity": 0, "duration": 237}, {"note": 74, "velocity": 88, "duration": 351}, {"note": 0, "velocity": 0, "duration": 129}, {"note": 72, "velocity": 82, "duration": 1804}, {"note": 0, "velocity": 0, "duration": 12596}, {"note": 67, "velocity": 85, "duration": 389}, {"note": 0, "velocity": 0, "duration": 91}, {"note": 69, "velocity": 84, "duration": 405}, {"note": 0, "velocity": 0, "duration": 75}, {"note": 74, "velocity": 88, "duration": 370}, {"note": 0, "velocity": 0, "duration": 110}, {"note": 72, "velocity": 73, "duration": 153}, {"note": 0, "velocity": 0, "duration": 87}, {"note": 74, "velocity": 84, "duration": 348}, {"note": 0, "velocity": 0, "duration": 132}, {"note": 72, "velocity": 85, "duration": 364}, {"note": 0, "velocity": 0, "duration": 116}, {"note": 74, "velocity": 90, "duration": 990}, {"note": 0, "velocity": 0, "duration": 210}, {"note": 67, "velocity": 84, "duration": 326}, {"note": 0, "velocity": 0, "duration": 154}, {"note": 69, "velocity": 84, "duration": 334}, {"note": 0, "velocity": 0, "duration": 146}, {"note": 74, "velocity": 91, "duration": 361}, {"note": 0, "velocity": 0, "duration": 119}, {"note": 72, "velocity": 78, "duration": 154}, {"note": 0, "velocity": 0, "duration": 86}, {"note": 74, "velocity": 84, "duration": 348}, {"note": 0, "velocity": 0, "duration": 132}, {"note": 76, "velocity": 84, "duration": 718}, {"note": 74, "velocity": 91, "duration": 874}, {"note": 0, "velocity": 0, "duration": 86}, {"note": 67, "velocity": 84, "duration": 356}, {"note": 0, "velocity": 0, "duration": 124}, {"note": 69, "velocity": 84, "duration": 359}, {"note": 0, "velocity": 0, "duration": 121}, {"note": 74, "velocity": 80, "duration": 353}, {"note": 0, "velocity": 0, "duration": 127}, {"note": 72, "velocity": 80, "duration": 133}, {"note": 0, "velocity": 0, "duration": 107}, {"note": 72, "velocity": 81, "duration": 455}, {"note": 69, "velocity": 85, "duration": 562}, {"note": 0, "velocity": 0, "duration": 158}, {"note": 74, "velocity": 87, "duration": 396}, {"note": 0, "velocity": 0, "duration": 84}, {"note": 76, "velocity": 82, "duration": 143}, {"note": 0, "velocity": 0, "duration": 97}, {"note": 74, "velocity": 85, "duration": 431}, {"note": 72, "velocity": 81, "duration": 586}, {"note": 0, "velocity": 0, "duration": 134}, {"note": 74, "velocity": 84, "duration": 358}, {"note": 0, "velocity": 0, "duration": 122}, {"note": 72, "velocity": 80, "duration": 139}, {"note": 0, "velocity": 0, "duration": 101}, {"note": 72, "velocity": 82, "duration": 439}, {"note": 69, "velocity": 84, "duration": 661}, {"note": 67, "velocity": 82, "duration": 860}, {"note": 0, "velocity": 0, "duration": 100}, {"note": 67, "velocity": 85, "duration": 389}, {"note": 0, "velocity": 0, "duration": 91}, {"note": 69, "velocity": 84, "duration": 405}, {"note": 0, "velocity": 0, "duration": 75}, {"note": 74, "velocity": 88, "duration": 370}, {"note": 0, "velocity": 0, "duration": 110}, {"note": 72, "velocity": 73, "duration": 153}, {"note": 0, "velocity": 0, "duration": 87}, {"note": 74, "velocity": 84, "duration": 348}, {"note": 0, "velocity": 0, "duration": 132}, {"note": 72, "velocity": 85, "duration": 364}, {"note": 0, "velocity": 0, "duration": 116}, {"note": 74, "velocity": 90, "duration": 990}, {"note": 0, "velocity": 0, "duration": 210}, {"note": 67, "velocity": 84, "duration": 326}, {"note": 0, "velocity": 0, "duration": 154}, {"note": 69, "velocity": 84, "duration": 334}, {"note": 0, "velocity": 0, "duration": 146}, {"note": 74, "velocity": 91, "duration": 361}, {"note": 0, "velocity": 0, "duration": 119}, {"note": 72, "velocity": 78, "duration": 154}, {"note": 0, "velocity": 0, "duration": 86}, {"note": 74, "velocity": 84, "duration": 348}, {"note": 0, "velocity": 0, "duration": 132}, {"note": 76, "velocity": 84, "duration": 718}, {"note": 74, "velocity": 91, "duration": 874}, {"note": 0, "velocity": 0, "duration": 86}, {"note": 67, "velocity": 84, "duration": 356}, {"note": 0, "velocity": 0, "duration": 124}, {"note": 69, "velocity": 84, "duration": 359}, {"note": 0, "velocity": 0, "duration": 121}, {"note": 74, "velocity": 80, "duration": 353}, {"note": 0, "velocity": 0, "duration": 127}, {"note": 72, "velocity": 80, "duration": 133}, {"note": 0, "velocity": 0, "duration": 107}, {"note": 72, "velocity": 81, "duration": 455}, {"note": 69, "velocity": 85, "duration": 562}, {"note": 0, "velocity": 0, "duration": 158}, {"note": 74, "velocity": 87, "duration": 396}, {"note": 0, "velocity": 0, "duration": 84}, {"note": 76, "velocity": 82, "duration": 143}, {"note": 0, "velocity": 0, "duration": 97}, {"note": 74, "velocity": 85, "duration": 431}, {"note": 72, "velocity": 81, "duration": 586}, {"note": 0, "velocity": 0, "duration": 134}, {"note": 81, "velocity": 84, "duration": 358}, {"note": 0, "velocity": 0, "duration": 122}, {"note": 79, "velocity": 80, "duration": 139}, {"note": 0, "velocity": 0, "duration": 101}, {"note": 79, "velocity": 82, "duration": 439}, {"note": 76, "velocity": 84, "duration": 661}, {"note": 74, "velocity": 82, "duration": 860}, {"note": 0, "velocity": 0, "duration": 2020}, {"note": 72, "velocity": 86, "duration": 400}, {"note": 0, "velocity": 0, "duration": 80}, {"note": 74, "velocity": 90, "duration": 365}, {"note": 0, "velocity": 0, "duration": 115}, {"note": 79, "velocity": 84, "duration": 964}, {"note": 72, "velocity": 83, "duration": 377}, {"note": 0, "velocity": 0, "duration": 103}, {"note": 74, "velocity": 85, "duration": 165}, {"note": 0, "velocity": 0, "duration": 75}, {"note": 76, "velocity": 80, "duration": 932}, {"note": 0, "velocity": 0, "duration": 268}, {"note": 76, "velocity": 85, "duration": 190}, {"note": 74, "velocity": 87, "duration": 120}, {"note": 0, "velocity": 0, "duration": 120}, {"note": 74, "velocity": 86, "duration": 186}, {"note": 72, "velocity": 85, "duration": 185}, {"note": 76, "velocity": 88, "duration": 323}, {"note": 0, "velocity": 0, "duration": 157}, {"note": 84, "velocity": 85, "duration": 351}, {"note": 0, "velocity": 0, "duration": 129}, {"note": 83, "velocity": 86, "duration": 339}, {"note": 0, "velocity": 0, "duration": 141}, {"note": 81, "velocity": 78, "duration": 165}, {"note": 0, "velocity": 0, "duration": 75}, {"note": 76, "velocity": 87, "duration": 1029}, {"note": 0, "velocity": 0, "duration": 171}, {"note": 83, "velocity": 85, "duration": 287}, {"note": 0, "velocity": 0, "duration": 73}, {"note": 81, "velocity": 85, "duration": 273}, {"note": 0, "velocity": 0, "duration": 87}, {"note": 79, "velocity": 81, "duration": 253}, {"note": 81, "velocity": 83, "duration": 802}, {"note": 0, "velocity": 0, "duration": 158}, {"note": 81, "velocity": 85, "duration": 267}, {"note": 0, "velocity": 0, "duration": 93}, {"note": 79, "velocity": 85, "duration": 307}, {"note": 77, "velocity": 80, "duration": 218}, {"note": 79, "velocity": 84, "duration": 739}, {"note": 0, "velocity": 0, "duration": 221}, {"note": 76, "velocity": 84, "duration": 206}, {"note": 74, "velocity": 88, "duration": 180}, {"note": 72, "velocity": 85, "duration": 194}, {"note": 74, "velocity": 91, "duration": 605}, {"note": 0, "velocity": 0, "duration": 115}, {"note": 72, "velocity": 84, "duration": 437}, {"note": 69, "velocity": 87, "duration": 358}, {"note": 76, "velocity": 84, "duration": 358}, {"note": 74, "velocity": 85, "duration": 238}, {"note": 74, "velocity": 81, "duration": 814}, {"note": 0, "velocity": 0, "duration": 163}, {"note": 72, "velocity": 86, "duration": 400}, {"note": 0, "velocity": 0, "duration": 80}, {"note": 74, "velocity": 90, "duration": 365}, {"note": 0, "velocity": 0, "duration": 115}, {"note": 79, "velocity": 84, "duration": 964}, {"note": 72, "velocity": 83, "duration": 377}, {"note": 0, "velocity": 0, "duration": 103}, {"note": 74, "velocity": 85, "duration": 165}, {"note": 0, "velocity": 0, "duration": 75}, {"note": 76, "velocity": 80, "duration": 932}, {"note": 0, "velocity": 0, "duration": 268}, {"note": 76, "velocity": 85, "duration": 190}, {"note": 74, "velocity": 87, "duration": 120}, {"note": 0, "velocity": 0, "duration": 120}, {"note": 74, "velocity": 86, "duration": 186}, {"note": 72, "velocity": 85, "duration": 185}, {"note": 76, "velocity": 88, "duration": 323}, {"note": 0, "velocity": 0, "duration": 157}, {"note": 84, "velocity": 85, "duration": 351}, {"note": 0, "velocity": 0, "duration": 129}, {"note": 83, "velocity": 86, "duration": 339}, {"note": 0, "velocity": 0, "duration": 124}, {"note": 84, "velocity": 78, "duration": 165}, {"note": 0, "velocity": 0, "duration": 75}, {"note": 81, "velocity": 87, "duration": 1029}, {"note": 0, "velocity": 0, "duration": 171}, {"note": 81, "velocity": 85, "duration": 399}, {"note": 0, "velocity": 0, "duration": 81}, {"note": 88, "velocity": 73, "duration": 390}, {"note": 0, "velocity": 0, "duration": 90}, {"note": 86, "velocity": 86, "duration": 394}, {"note": 0, "velocity": 0, "duration": 86}, {"note": 83, "velocity": 85, "duration": 392}, {"note": 0, "velocity": 0, "duration": 88}, {"note": 79, "velocity": 84, "duration": 464}, {"note": 76, "velocity": 84, "duration": 478}, {"note": 81, "velocity": 75, "duration": 958}, {"note": 76, "velocity": 82, "duration": 175}, {"note": 0, "velocity": 0, "duration": 65}, {"note": 74, "velocity": 87, "duration": 166}, {"note": 0, "velocity": 0, "duration": 74}, {"note": 72, "velocity": 84, "duration": 156}, {"note": 0, "velocity": 0, "duration": 84}, {"note": 74, "velocity": 88, "duration": 675}, {"note": 81, "velocity": 84, "duration": 353}, {"note": 0, "velocity": 0, "duration": 127}, {"note": 81, "velocity": 85, "duration": 395}, {"note": 0, "velocity": 0, "duration": 85}, {"note": 79, "velocity": 84, "duration": 485}, {"note": 74, "velocity": 84, "duration": 360}, {"note": 0, "velocity": 0, "duration": 120}, {"note": 76, "velocity": 90, "duration": 723}, {"note": 0, "velocity": 0, "duration": 237}, {"note": 74, "velocity": 88, "duration": 351}, {"note": 0, "velocity": 0, "duration": 129}, {"note": 72, "velocity": 82, "duration": 1804}, {"note": 0, "velocity": 0, "duration": 10676}, {"note": 72, "velocity": 86, "duration": 400}, {"note": 0, "velocity": 0, "duration": 80}, {"note": 74, "velocity": 90, "duration": 365}, {"note": 0, "velocity": 0, "duration": 115}, {"note": 79, "velocity": 84, "duration": 964}, {"note": 72, "velocity": 83, "duration": 377}, {"note": 0, "velocity": 0, "duration": 103}, {"note": 74, "velocity": 85, "duration": 165}, {"note": 0, "velocity": 0, "duration": 75}, {"note": 76, "velocity": 80, "duration": 932}, {"note": 0, "velocity": 0, "duration": 268}, {"note": 76, "velocity": 85, "duration": 190}, {"note": 74, "velocity": 87, "duration": 120}, {"note": 0, "velocity": 0, "duration": 120}, {"note": 74, "velocity": 86, "duration": 186}, {"note": 72, "velocity": 85, "duration": 185}, {"note": 76, "velocity": 88, "duration": 323}, {"note": 0, "velocity": 0, "duration": 157}, {"note": 84, "velocity": 85, "duration": 351}, {"note": 0, "velocity": 0, "duration": 129}, {"note": 83, "velocity": 86, "duration": 339}, {"note": 0, "velocity": 0, "duration": 141}, {"note": 81, "velocity": 78, "duration": 165}, {"note": 0, "velocity": 0, "duration": 75}, {"note": 76, "velocity": 87, "duration": 1029}, {"note": 0, "velocity": 0, "duration": 171}, {"note": 83, "velocity": 85, "duration": 287}, {"note": 0, "velocity": 0, "duration": 73}, {"note": 81, "velocity": 85, "duration": 273}, {"note": 0, "velocity": 0, "duration": 87}, {"note": 79, "velocity": 81, "duration": 253}, {"note": 81, "velocity": 83, "duration": 802}, {"note": 0, "velocity": 0, "duration": 158}, {"note": 81, "velocity": 85, "duration": 267}, {"note": 0, "velocity": 0, "duration": 93}, {"note": 79, "velocity": 85, "duration": 307}, {"note": 77, "velocity": 80, "duration": 218}, {"note": 79, "velocity": 84, "duration": 739}, {"note": 0, "velocity": 0, "duration": 221}, {"note": 76, "velocity": 84, "duration": 206}, {"note": 74, "velocity": 88, "duration": 180}, {"note": 72, "velocity": 85, "duration": 194}, {"note": 74, "velocity": 91, "duration": 605}, {"note": 0, "velocity": 0, "duration": 115}, {"note": 72, "velocity": 84, "duration": 437}, {"note": 69, "velocity": 87, "duration": 358}, {"note": 76, "velocity": 84, "duration": 358}, {"note": 74, "velocity": 85, "duration": 238}, {"note": 74, "velocity": 81, "duration": 814}, {"note": 0, "velocity": 0, "duration": 163}, {"note": 72, "velocity": 86, "duration": 400}, {"note": 0, "velocity": 0, "duration": 80}, {"note": 74, "velocity": 90, "duration": 365}, {"note": 0, "velocity": 0, "duration": 115}, {"note": 79, "velocity": 84, "duration": 964}, {"note": 72, "velocity": 83, "duration": 377}, {"note": 0, "velocity": 0, "duration": 103}, {"note": 74, "velocity": 85, "duration": 165}, {"note": 0, "velocity": 0, "duration": 75}, {"note": 76, "velocity": 80, "duration": 932}, {"note": 0, "velocity": 0, "duration": 268}, {"note": 76, "velocity": 85, "duration": 190}, {"note": 74, "velocity": 87, "duration": 120}, {"note": 0, "velocity": 0, "duration": 120}, {"note": 74, "velocity": 86, "duration": 186}, {"note": 72, "velocity": 85, "duration": 185}, {"note": 76, "velocity": 88, "duration": 323}, {"note": 0, "velocity": 0, "duration": 157}, {"note": 84, "velocity": 85, "duration": 351}, {"note": 0, "velocity": 0, "duration": 129}, {"note": 83, "velocity": 86, "duration": 339}, {"note": 0, "velocity": 0, "duration": 124}, {"note": 84, "velocity": 78, "duration": 165}, {"note": 0, "velocity": 0, "duration": 75}, {"note": 81, "velocity": 87, "duration": 1029}, {"note": 0, "velocity": 0, "duration": 171}, {"note": 81, "velocity": 85, "duration": 399}, {"note": 0, "velocity": 0, "duration": 81}, {"note": 88, "velocity": 73, "duration": 390}, {"note": 0, "velocity": 0, "duration": 90}, {"note": 86, "velocity": 86, "duration": 394}, {"note": 0, "velocity": 0, "duration": 86}, {"note": 83, "velocity": 85, "duration": 392}, {"note": 0, "velocity": 0, "duration": 88}, {"note": 79, "velocity": 84, "duration": 464}, {"note": 76, "velocity": 84, "duration": 478}, {"note": 81, "velocity": 75, "duration": 958}, {"note": 76, "velocity": 82, "duration": 175}, {"note": 0, "velocity": 0, "duration": 65}, {"note": 74, "velocity": 87, "duration": 166}, {"note": 0, "velocity": 0, "duration": 74}, {"note": 72, "velocity": 84, "duration": 156}, {"note": 0, "velocity": 0, "duration": 84}, {"note": 74, "velocity": 88, "duration": 675}, {"note": 81, "velocity": 84, "duration": 353}, {"note": 0, "velocity": 0, "duration": 127}, {"note": 81, "velocity": 85, "duration": 395}, {"note": 0, "velocity": 0, "duration": 85}, {"note": 79, "velocity": 84, "duration": 485}, {"note": 74, "velocity": 84, "duration": 360}, {"note": 0, "velocity": 0, "duration": 120}, {"note": 76, "velocity": 90, "duration": 723}, {"note": 0, "velocity": 0, "duration": 237}, {"note": 74, "velocity": 88, "duration": 351}, {"note": 0, "velocity": 0, "duration": 129}, {"note": 72, "velocity": 82, "duration": 1804}]]