[[{"note": 68, "velocity": 86, "duration": 195}, {"note": 67, "velocity": 90, "duration": 222}, {"note": 65, "velocity": 90, "duration": 660}, {"note": 63, "velocity": 88, "duration": 274}, {"note": 60, "velocity": 87, "duration": 275}, {"note": 63, "velocity": 87, "duration": 246}, {"note": 65, "velocity": 88, "duration": 254}, {"note": 67, "velocity": 87, "duration": 260}, {"note": 65, "velocity": 90, "duration": 1272}, {"note": 0, "velocity": 0, "duration": 168}, {"note": 68, "velocity": 87, "duration": 215}, {"note": 67, "velocity": 89, "duration": 233}, {"note": 65, "velocity": 92, "duration": 611}, {"note": 0, "velocity": 0, "duration": 109}, {"note": 63, "velocity": 88, "duration": 228}, {"note": 60, "velocity": 88, "duration": 194}, {"note": 63, "velocity": 88, "duration": 207}, {"note": 65, "velocity": 89, "duration": 185}, {"note": 60, "velocity": 90, "duration": 237}, {"note": 58, "velocity": 83, "duration": 1258}, {"note": 0, "velocity": 0, "duration": 182}, {"note": 58, "velocity": 87, "duration": 185}, {"note": 60, "velocity": 87, "duration": 215}, {"note": 63, "velocity": 87, "duration": 614}, {"note": 0, "velocity": 0, "duration": 106}, {"note": 60, "velocity": 89, "duration": 183}, {"note": 65, "velocity": 86, "duration": 191}, {"note": 67, "velocity": 84, "duration": 246}, {"note": 65, "velocity": 92, "duration": 225}, {"note": 63, "velocity": 87, "duration": 190}, {"note": 65, "velocity": 87, "duration": 241}, {"note": 63, "velocity": 83, "duration": 230}, {"note": 60, "velocity": 89, "duration": 275}, {"note": 58, "velocity": 76, "duration": 238}, {"note": 56, "velocity": 88, "duration": 430}, {"note": 65, "velocity": 93, "duration": 143}, {"note": 0, "velocity": 0, "duration": 97}, {"note": 68, "velocity": 86, "duration": 165}, {"note": 0, "velocity": 0, "duration": 75}, {"note": 70, "velocity": 86, "duration": 153}, {"note": 0, "velocity": 0, "duration": 87}, {"note": 70, "velocity": 88, "duration": 375}, {"note": 0, "velocity": 0, "duration": 105}, {"note": 67, "velocity": 87, "duration": 188}, {"note": 65, "velocity": 88, "duration": 173}, {"note": 0, "velocity": 0, "duration": 67}, {"note": 60, "velocity": 88, "duration": 209}, {"note": 67, "velocity": 86, "duration": 196}, {"note": 65, "velocity": 86, "duration": 184}, {"note": 63, "velocity": 86, "duration": 1379}, {"note": 0, "velocity": 0, "duration": 61}, {"note": 68, "velocity": 86, "duration": 195}, {"note": 67, "velocity": 90, "duration": 222}, {"note": 65, "velocity": 90, "duration": 660}, {"note": 63, "velocity": 88, "duration": 274}, {"note": 60, "velocity": 87, "duration": 275}, {"note": 63, "velocity": 87, "duration": 246}, {"note": 65, "velocity": 88, "duration": 254}, {"note": 67, "velocity": 87, "duration": 260}, {"note": 65, "velocity": 90, "duration": 1272}, {"note": 0, "velocity": 0, "duration": 168}, {"note": 68, "velocity": 87, "duration": 215}, {"note": 67, "velocity": 89, "duration": 233}, {"note": 65, "velocity": 92, "duration": 611}, {"note": 0, "velocity": 0, "duration": 109}, {"note": 63, "velocity": 88, "duration": 228}, {"note": 60, "velocity": 88, "duration": 194}, {"note": 63, "velocity": 88, "duration": 207}, {"note": 65, "velocity": 89, "duration": 185}, {"note": 60, "velocity": 90, "duration": 237}, {"note": 58, "velocity": 83, "duration": 1258}, {"note": 0, "velocity": 0, "duration": 182}, {"note": 58, "velocity": 87, "duration": 185}, {"note": 60, "velocity": 87, "duration": 215}, {"note": 63, "velocity": 87, "duration": 614}, {"note": 0, "velocity": 0, "duration": 106}, {"note": 60, "velocity": 89, "duration": 183}, {"note": 65, "velocity": 86, "duration": 191}, {"note": 67, "velocity": 84, "duration": 246}, {"note": 65, "velocity": 92, "duration": 225}, {"note": 63, "velocity": 87, "duration": 190}, {"note": 65, "velocity": 87, "duration": 241}, {"note": 63, "velocity": 83, "duration": 230}, {"note": 60, "velocity": 89, "duration": 275}, {"note": 58, "velocity": 76, "duration": 238}, {"note": 56, "velocity": 88, "duration": 430}, {"note": 65, "velocity": 93, "duration": 143}, {"note": 0, "velocity": 0, "duration": 97}, {"note": 68, "velocity": 86, "duration": 165}, {"note": 0, "velocity": 0, "duration": 75}, {"note": 70, "velocity": 86, "duration": 153}, {"note": 0, "velocity": 0, "duration": 87}, {"note": 70, "velocity": 88, "duration": 240}, {"note": 70, "velocity": 88, "duration": 240}, {"note": 67, "velocity": 88, "duration": 240}, {"note": 65, "velocity": 88, "duration": 240}, {"note": 60, "velocity": 88, "duration": 236}, {"note": 63, "velocity": 86, "duration": 254}, {"note": 65, "velocity": 89, "duration": 246}, {"note": 68, "velocity": 86, "duration": 1357}, {"note": 0, "velocity": 0, "duration": 83}, {"note": 65, "velocity": 95, "duration": 357}, {"note": 0, "velocity": 0, "duration": 123}, {"note": 72, "velocity": 86, "duration": 1441}, {"note": 65, "velocity": 91, "duration": 473}, {"note": 63, "velocity": 87, "duration": 1357}, {"note": 0, "velocity": 0, "duration": 83}, {"note": 60, "velocity": 92, "duration": 434}, {"note": 68, "velocity": 86, "duration": 1249}, {"note": 0, "velocity": 0, "duration": 191}, {"note": 60, "velocity": 87, "duration": 507}, {"note": 58, "velocity": 89, "duration": 1341}, {"note": 0, "velocity": 0, "duration": 99}, {"note": 58, "velocity": 89, "duration": 180}, {"note": 60, "velocity": 87, "duration": 214}, {"note": 63, "velocity": 87, "duration": 562}, {"note": 0, "velocity": 0, "duration": 158}, {"note": 65, "velocity": 92, "duration": 216}, {"note": 68, "velocity": 86, "duration": 192}, {"note": 68, "velocity": 87, "duration": 367}, {"note": 0, "velocity": 0, "duration": 113}, {"note": 67, "velocity": 86, "duration": 230}, {"note": 65, "velocity": 89, "duration": 173}, {"note": 0, "velocity": 0, "duration": 67}, {"note": 60, "velocity": 90, "duration": 241}, {"note": 67, "velocity": 90, "duration": 227}, {"note": 65, "velocity": 87, "duration": 177}, {"note": 0, "velocity": 0, "duration": 63}, {"note": 63, "velocity": 89, "duration": 420}, {"note": 63, "velocity": 90, "duration": 211}, {"note": 65, "velocity": 87, "duration": 227}, {"note": 72, "velocity": 90, "duration": 1294}, {"note": 0, "velocity": 0, "duration": 146}, {"note": 65, "velocity": 87, "duration": 281}, {"note": 67, "velocity": 87, "duration": 273}, {"note": 63, "velocity": 86, "duration": 1217}, {"note": 0, "velocity": 0, "duration": 223}, {"note": 60, "velocity": 88, "duration": 402}, {"note": 0, "velocity": 0, "duration": 78}, {"note": 68, "velocity": 86, "duration": 1439}, {"note": 60, "velocity": 87, "duration": 481}, {"note": 58, "velocity": 87, "duration": 1283}, {"note": 0, "velocity": 0, "duration": 157}, {"note": 58, "velocity": 87, "duration": 180}, {"note": 60, "velocity": 86, "duration": 228}, {"note": 63, "velocity": 87, "duration": 613}, {"note": 0, "velocity": 0, "duration": 107}, {"note": 65, "velocity": 88, "duration": 188}, {"note": 68, "velocity": 85, "duration": 495}, {"note": 60, "velocity": 92, "duration": 608}, {"note": 0, "velocity": 0, "duration": 352}, {"note": 65, "velocity": 93, "duration": 435}, {"note": 72, "velocity": 90, "duration": 1330}, {"note": 0, "velocity": 0, "duration": 110}, {"note": 65, "velocity": 91, "duration": 467}, {"note": 68, "velocity": 86, "duration": 1863}, {"note": 0, "velocity": 0, "duration": 14937}, {"note": 68, "velocity": 86, "duration": 195}, {"note": 67, "velocity": 90, "duration": 222}, {"note": 65, "velocity": 90, "duration": 660}, {"note": 63, "velocity": 88, "duration": 274}, {"note": 60, "velocity": 87, "duration": 275}, {"note": 63, "velocity": 87, "duration": 246}, {"note": 65, "velocity": 88, "duration": 254}, {"note": 67, "velocity": 87, "duration": 260}, {"note": 65, "velocity": 90, "duration": 1272}, {"note": 0, "velocity": 0, "duration": 168}, {"note": 68, "velocity": 87, "duration": 215}, {"note": 67, "velocity": 89, "duration": 233}, {"note": 65, "velocity": 92, "duration": 611}, {"note": 0, "velocity": 0, "duration": 109}, {"note": 63, "velocity": 88, "duration": 228}, {"note": 60, "velocity": 88, "duration": 194}, {"note": 63, "velocity": 88, "duration": 207}, {"note": 65, "velocity": 89, "duration": 185}, {"note": 60, "velocity": 90, "duration": 237}, {"note": 58, "velocity": 83, "duration": 1258}, {"note": 0, "velocity": 0, "duration": 182}, {"note": 58, "velocity": 87, "duration": 185}, {"note": 60, "velocity": 87, "duration": 215}, {"note": 63, "velocity": 87, "duration": 614}, {"note": 0, "velocity": 0, "duration": 106}, {"note": 60, "velocity": 89, "duration": 183}, {"note": 65, "velocity": 86, "duration": 191}, {"note": 67, "velocity": 84, "duration": 246}, {"note": 65, "velocity": 92, "duration": 225}, {"note": 63, "velocity": 87, "duration": 190}, {"note": 65, "velocity": 87, "duration": 241}, {"note": 63, "velocity": 83, "duration": 230}, {"note": 60, "velocity": 89, "duration": 275}, {"note": 58, "velocity": 76, "duration": 238}, {"note": 56, "velocity": 88, "duration": 430}, {"note": 65, "velocity": 93, "duration": 143}, {"note": 0, "velocity": 0, "duration": 97}, {"note": 68, "velocity": 86, "duration": 165}, {"note": 0, "velocity": 0, "duration": 75}, {"note": 70, "velocity": 86, "duration": 153}, {"note": 0, "velocity": 0, "duration": 87}, {"note": 70, "velocity": 88, "duration": 375}, {"note": 0, "velocity": 0, "duration": 105}, {"note": 67, "velocity": 87, "duration": 188}, {"note": 65, "velocity": 88, "duration": 173}, {"note": 0, "velocity": 0, "duration": 67}, {"note": 60, "velocity": 88, "duration": 209}, {"note": 67, "velocity": 86, "duration": 196}, {"note": 65, "velocity": 86, "duration": 184}, {"note": 63, "velocity": 86, "duration": 1379}, {"note": 0, "velocity": 0, "duration": 61}, {"note": 68, "velocity": 86, "duration": 195}, {"note": 67, "velocity": 90, "duration": 222}, {"note": 65, "velocity": 90, "duration": 660}, {"note": 63, "velocity": 88, "duration": 274}, {"note": 60, "velocity": 87, "duration": 275}, {"note": 63, "velocity": 87, "duration": 246}, {"note": 65, "velocity": 88, "duration": 254}, {"note": 67, "velocity": 87, "duration": 260}, {"note": 65, "velocity": 90, "duration": 1272}, {"note": 0, "velocity": 0, "duration": 168}, {"note": 68, "velocity": 87, "duration": 215}, {"note": 67, "velocity": 89, "duration": 233}, {"note": 65, "velocity": 92, "duration": 611}, {"note": 0, "velocity": 0, "duration": 109}, {"note": 63, "velocity": 88, "duration": 228}, {"note": 60, "velocity": 88, "duration": 194}, {"note": 63, "velocity": 88, "duration": 207}, {"note": 65, "velocity": 89, "duration": 185}, {"note": 60, "velocity": 90, "duration": 237}, {"note": 58, "velocity": 83, "duration": 1258}, {"note": 0, "velocity": 0, "duration": 182}, {"note": 58, "velocity": 87, "duration": 185}, {"note": 60, "velocity": 87, "duration": 215}, {"note": 63, "velocity": 87, "duration": 614}, {"note": 0, "velocity": 0, "duration": 106}, {"note": 60, "velocity": 89, "duration": 183}, {"note": 65, "velocity": 86, "duration": 191}, {"note": 67, "velocity": 84, "duration": 246}, {"note": 65, "velocity": 92, "duration": 225}, {"note": 63, "velocity": 87, "duration": 190}, {"note": 65, "velocity": 87, "duration": 241}, {"note": 63, "velocity": 83, "duration": 230}, {"note": 60, "velocity": 89, "duration": 275}, {"note": 58, "velocity": 76, "duration": 238}, {"note": 56, "velocity": 88, "duration": 430}, {"note": 65, "velocity": 93, "duration": 143}, {"note": 0, "velocity": 0, "duration": 97}, {"note": 68, "velocity": 86, "duration": 165}, {"note": 0, "velocity": 0, "duration": 75}, {"note": 70, "velocity": 86, "duration": 153}, {"note": 0, "velocity": 0, "duration": 87}, {"note": 70, "velocity": 88, "duration": 240}, {"note": 70, "velocity": 88, "duration": 240}, {"note": 67, "velocity": 88, "duration": 240}, {"note": 65, "velocity": 88, "duration": 240}, {"note": 60, "velocity": 88, "duration": 236}, {"note": 63, "velocity": 86, "duration": 254}, {"note": 65, "velocity": 89, "duration": 246}, {"note": 68, "velocity": 86, "duration": 1357}, {"note": 0, "velocity": 0, "duration": 83}, {"note": 65, "velocity": 95, "duration": 357}, {"note": 0, "velocity": 0, "duration": 123}, {"note": 72, "velocity": 86, "duration": 1441}, {"note": 65, "velocity": 91, "duration": 473}, {"note": 63, "velocity": 87, "duration": 1357}, {"note": 0, "velocity": 0, "duration": 83}, {"note": 60, "velocity": 92, "duration": 434}, {"note": 68, "velocity": 86, "duration": 1249}, {"note": 0, "velocity": 0, "duration": 191}, {"note": 60, "velocity": 87, "duration": 507}, {"note": 58, "velocity": 89, "duration": 1341}, {"note": 0, "velocity": 0, "duration": 99}, {"note": 58, "velocity": 89, "duration": 180}, {"note": 60, "velocity": 87, "duration": 214}, {"note": 63, "velocity": 87, "duration": 562}, {"note": 0, "velocity": 0, "duration": 158}, {"note": 65, "velocity": 92, "duration": 216}, {"note": 68, "velocity": 86, "duration": 192}, {"note": 68, "velocity": 87, "duration": 367}, {"note": 0, "velocity": 0, "duration": 113}, {"note": 67, "velocity": 86, "duration": 230}, {"note": 65, "velocity": 89, "duration": 173}, {"note": 0, "velocity": 0, "duration": 67}, {"note": 60, "velocity": 90, "duration": 241}, {"note": 67, "velocity": 90, "duration": 227}, {"note": 65, "velocity": 87, "duration": 177}, {"note": 0, "velocity": 0, "duration": 63}, {"note": 63, "velocity": 89, "duration": 420}, {"note": 63, "velocity": 90, "duration": 211}, {"note": 65, "velocity": 87, "duration": 227}, {"note": 72, "velocity": 90, "duration": 1294}, {"note": 0, "velocity": 0, "duration": 146}, {"note": 65, "velocity": 87, "duration": 281}, {"note": 67, "velocity": 87, "duration": 273}, {"note": 63, "velocity": 86, "duration": 1217}, {"note": 0, "velocity": 0, "duration": 223}, {"note": 60, "velocity": 88, "duration": 402}, {"note": 0, "velocity": 0, "duration": 78}, {"note": 68, "velocity": 86, "duration": 1439}, {"note": 60, "velocity": 87, "duration": 481}, {"note": 58, "velocity": 87, "duration": 1283}, {"note": 0, "velocity": 0, "duration": 157}, {"note": 58, "velocity": 87, "duration": 180}, {"note": 60, "velocity": 86, "duration": 228}, {"note": 63, "velocity": 87, "duration": 613}, {"note": 0, "velocity": 0, "duration": 107}, {"note": 65, "velocity": 88, "duration": 188}, {"note": 68, "velocity": 85, "duration": 495}, {"note": 60, "velocity": 92, "duration": 608}, {"note": 0, "velocity": 0, "duration": 352}, {"note": 65, "velocity": 93, "duration": 435}, {"note": 72, "velocity": 90, "duration": 1330}, {"note": 0, "velocity": 0, "duration": 110}, {"note": 65, "velocity": 91, "duration": 467}, {"note": 68, "velocity": 86, "duration": 1440}, {"note": 65, "velocity": 87, "duration": 480}, {"note": 72, "velocity": 86, "duration": 1441}, {"note": 65, "velocity": 91, "duration": 473}, {"note": 63, "velocity": 87, "duration": 1357}, {"note": 0, "velocity": 0, "duration": 83}, {"note": 60, "velocity": 92, "duration": 434}, {"note": 68, "velocity": 86, "duration": 1249}, {"note": 0, "velocity": 0, "duration": 191}, {"note": 60, "velocity": 87, "duration": 507}, {"note": 58, "velocity": 89, "duration": 1341}, {"note": 0, "velocity": 0, "duration": 99}, {"note": 58, "velocity": 89, "duration": 180}, {"note": 60, "velocity": 87, "duration": 214}, {"note": 63, "velocity": 87, "duration": 562}, {"note": 0, "velocity": 0, "duration": 158}, {"note": 65, "velocity": 92, "duration": 216}, {"note": 68, "velocity": 86, "duration": 192}, {"note": 68, "velocity": 87, "duration": 367}, {"note": 0, "velocity": 0, "duration": 113}, {"note": 67, "velocity": 86, "duration": 230}, {"note": 65, "velocity": 89, "duration": 173}, {"note": 0, "velocity": 0, "duration": 67}, {"note": 60, "velocity": 90, "duration": 241}, {"note": 67, "velocity": 90, "duration": 227}, {"note": 65, "velocity": 87, "duration": 177}, {"note": 0, "velocity": 0, "duration": 63}, {"note": 63, "velocity": 89, "duration": 420}, {"note": 63, "velocity": 90, "duration": 211}, {"note": 65, "velocity": 87, "duration": 227}, {"note": 72, "velocity": 90, "duration": 1294}, {"note": 0, "velocity": 0, "duration": 146}, {"note": 65, "velocity": 87, "duration": 281}, {"note": 67, "velocity": 87, "duration": 273}, {"note": 63, "velocity": 86, "duration": 1217}, {"note": 0, "velocity": 0, "duration": 223}, {"note": 60, "velocity": 88, "duration": 402}, {"note": 0, "velocity": 0, "duration": 78}, {"note": 68, "velocity": 86, "duration": 1439}, {"note": 60, "velocity": 87, "duration": 481}, {"note": 58, "velocity": 87, "duration": 1283}, {"note": 0, "velocity": 0, "duration": 157}, {"note": 58, "velocity": 87, "duration": 180}, {"note": 60, "velocity": 86, "duration": 228}, {"note": 63, "velocity": 87, "duration": 613}, {"note": 0, "velocity": 0, "duration": 107}, {"note": 65, "velocity": 88, "duration": 188}, {"note": 68, "velocity": 85, "duration": 495}, {"note": 60, "velocity": 92, "duration": 608}, {"note": 0, "velocity": 0, "duration": 352}, {"note": 65, "velocity": 93, "duration": 435}, {"note": 72, "velocity": 90, "duration": 1330}, {"note": 0, "velocity": 0, "duration": 500}, {"note": 65, "velocity": 87, "duration": 252}, {"note": 68, "velocity": 80, "duration": 312}, {"note": 65, "velocity": 86, "duration": 663}, {"note": 0, "velocity": 0, "duration": 211}, {"note": 68, "velocity": 85, "duration": 2126}]]