[[{"note": 62, "velocity": 85, "duration": 233}, {"note": 60, "velocity": 82, "duration": 255}, {"note": 62, "velocity": 82, "duration": 254}, {"note": 63, "velocity": 77, "duration": 289}, {"note": 65, "velocity": 82, "duration": 272}, {"note": 63, "velocity": 76, "duration": 272}, {"note": 62, "velocity": 82, "duration": 239}, {"note": 60, "velocity": 82, "duration": 275}, {"note": 55, "velocity": 81, "duration": 1718}, {"note": 0, "velocity": 0, "duration": 202}, {"note": 62, "velocity": 82, "duration": 241}, {"note": 60, "velocity": 82, "duration": 273}, {"note": 62, "velocity": 82, "duration": 258}, {"note": 63, "velocity": 75, "duration": 278}, {"note": 65, "velocity": 81, "duration": 266}, {"note": 58, "velocity": 82, "duration": 248}, {"note": 70, "velocity": 82, "duration": 240}, {"note": 68, "velocity": 83, "duration": 480}, {"note": 67, "velocity": 81, "duration": 1428}, {"note": 0, "velocity": 0, "duration": 252}, {"note": 65, "velocity": 81, "duration": 195}, {"note": 67, "velocity": 77, "duration": 247}, {"note": 60, "velocity": 82, "duration": 322}, {"note": 68, "velocity": 82, "duration": 843}, {"note": 0, "velocity": 0, "duration": 357}, {"note": 63, "velocity": 82, "duration": 220}, {"note": 65, "velocity": 85, "duration": 181}, {"note": 67, "velocity": 82, "duration": 188}, {"note": 55, "velocity": 84, "duration": 776}, {"note": 0, "velocity": 0, "duration": 424}, {"note": 56, "velocity": 83, "duration": 225}, {"note": 58, "velocity": 85, "duration": 218}, {"note": 60, "velocity": 84, "duration": 178}, {"note": 0, "velocity": 0, "duration": 62}, {"note": 67, "velocity": 82, "duration": 181}, {"note": 65, "velocity": 87, "duration": 521}, {"note": 0, "velocity": 0, "duration": 199}, {"note": 62, "velocity": 82, "duration": 478}, {"note": 60, "velocity": 81, "duration": 1529}, {"note": 0, "velocity": 0, "duration": 151}, {"note": 62, "velocity": 83, "duration": 235}, {"note": 60, "velocity": 84, "duration": 249}, {"note": 62, "velocity": 83, "duration": 257}, {"note": 63, "velocity": 85, "duration": 269}, {"note": 65, "velocity": 82, "duration": 277}, {"note": 63, "velocity": 82, "duration": 264}, {"note": 62, "velocity": 82, "duration": 232}, {"note": 60, "velocity": 83, "duration": 295}, {"note": 55, "velocity": 83, "duration": 1487}, {"note": 0, "velocity": 0, "duration": 433}, {"note": 62, "velocity": 82, "duration": 241}, {"note": 60, "velocity": 82, "duration": 229}, {"note": 62, "velocity": 82, "duration": 244}, {"note": 63, "velocity": 85, "duration": 275}, {"note": 65, "velocity": 82, "duration": 238}, {"note": 58, "velocity": 78, "duration": 181}, {"note": 70, "velocity": 82, "duration": 224}, {"note": 68, "velocity": 85, "duration": 505}, {"note": 67, "velocity": 79, "duration": 1483}, {"note": 0, "velocity": 0, "duration": 197}, {"note": 65, "velocity": 83, "duration": 175}, {"note": 0, "velocity": 0, "duration": 65}, {"note": 67, "velocity": 82, "duration": 194}, {"note": 60, "velocity": 83, "duration": 199}, {"note": 68, "velocity": 84, "duration": 1085}, {"note": 0, "velocity": 0, "duration": 115}, {"note": 63, "velocity": 82, "duration": 196}, {"note": 65, "velocity": 81, "duration": 203}, {"note": 67, "velocity": 83, "duration": 211}, {"note": 72, "velocity": 86, "duration": 797}, {"note": 0, "velocity": 0, "duration": 403}, {"note": 60, "velocity": 84, "duration": 211}, {"note": 62, "velocity": 85, "duration": 173}, {"note": 0, "velocity": 0, "duration": 67}, {"note": 63, "velocity": 83, "duration": 184}, {"note": 70, "velocity": 82, "duration": 240}, {"note": 62, "velocity": 83, "duration": 557}, {"note": 0, "velocity": 0, "duration": 163}, {"note": 63, "velocity": 87, "duration": 467}, {"note": 60, "velocity": 82, "duration": 1578}, {"note": 0, "velocity": 0, "duration": 102}, {"note": 72, "velocity": 88, "duration": 389}, {"note": 0, "velocity": 0, "duration": 91}, {"note": 63, "velocity": 83, "duration": 466}, {"note": 62, "velocity": 83, "duration": 382}, {"note": 0, "velocity": 0, "duration": 98}, {"note": 62, "velocity": 86, "duration": 188}, {"note": 62, "velocity": 86, "duration": 150}, {"note": 0, "velocity": 0, "duration": 90}, {"note": 72, "velocity": 87, "duration": 182}, {"note": 74, "velocity": 88, "duration": 387}, {"note": 0, "velocity": 0, "duration": 93}, {"note": 70, "velocity": 90, "duration": 480}, {"note": 63, "velocity": 81, "duration": 745}, {"note": 60, "velocity": 82, "duration": 178}, {"note": 0, "velocity": 0, "duration": 62}, {"note": 62, "velocity": 82, "duration": 113}, {"note": 63, "velocity": 85, "duration": 297}, {"note": 0, "velocity": 0, "duration": 63}, {"note": 72, "velocity": 87, "duration": 369}, {"note": 0, "velocity": 0, "duration": 111}, {"note": 70, "velocity": 86, "duration": 372}, {"note": 0, "velocity": 0, "duration": 108}, {"note": 67, "velocity": 81, "duration": 100}, {"note": 65, "velocity": 81, "duration": 75}, {"note": 65, "velocity": 83, "duration": 184}, {"note": 67, "velocity": 83, "duration": 407}, {"note": 0, "velocity": 0, "duration": 73}, {"note": 70, "velocity": 87, "duration": 378}, {"note": 0, "velocity": 0, "duration": 102}, {"note": 67, "velocity": 81, "duration": 584}, {"note": 0, "velocity": 0, "duration": 136}, {"note": 72, "velocity": 81, "duration": 313}, {"note": 0, "velocity": 0, "duration": 167}, {"note": 63, "velocity": 83, "duration": 413}, {"note": 0, "velocity": 0, "duration": 67}, {"note": 62, "velocity": 82, "duration": 446}, {"note": 62, "velocity": 83, "duration": 175}, {"note": 0, "velocity": 0, "duration": 65}, {"note": 62, "velocity": 83, "duration": 166}, {"note": 0, "velocity": 0, "duration": 74}, {"note": 72, "velocity": 86, "duration": 165}, {"note": 0, "velocity": 0, "duration": 75}, {"note": 74, "velocity": 90, "duration": 342}, {"note": 0, "velocity": 0, "duration": 138}, {"note": 70, "velocity": 79, "duration": 318}, {"note": 0, "velocity": 0, "duration": 162}, {"note": 63, "velocity": 82, "duration": 540}, {"note": 0, "velocity": 0, "duration": 180}, {"note": 60, "velocity": 83, "duration": 157}, {"note": 0, "velocity": 0, "duration": 83}, {"note": 62, "velocity": 85, "duration": 185}, {"note": 63, "velocity": 82, "duration": 161}, {"note": 0, "velocity": 0, "duration": 79}, {"note": 70, "velocity": 85, "duration": 193}, {"note": 62, "velocity": 85, "duration": 573}, {"note": 0, "velocity": 0, "duration": 147}, {"note": 63, "velocity": 87, "duration": 491}, {"note": 60, "velocity": 84, "duration": 1584}, {"note": 0, "velocity": 0, "duration": 2016}, {"note": 62, "velocity": 83, "duration": 235}, {"note": 60, "velocity": 84, "duration": 249}, {"note": 62, "velocity": 83, "duration": 257}, {"note": 63, "velocity": 85, "duration": 269}, {"note": 65, "velocity": 82, "duration": 277}, {"note": 63, "velocity": 82, "duration": 264}, {"note": 62, "velocity": 82, "duration": 232}, {"note": 60, "velocity": 83, "duration": 295}, {"note": 55, "velocity": 83, "duration": 1487}, {"note": 0, "velocity": 0, "duration": 433}, {"note": 62, "velocity": 82, "duration": 241}, {"note": 60, "velocity": 82, "duration": 229}, {"note": 62, "velocity": 82, "duration": 244}, {"note": 63, "velocity": 85, "duration": 275}, {"note": 65, "velocity": 82, "duration": 238}, {"note": 58, "velocity": 78, "duration": 181}, {"note": 70, "velocity": 82, "duration": 224}, {"note": 68, "velocity": 85, "duration": 505}, {"note": 67, "velocity": 79, "duration": 1483}, {"note": 0, "velocity": 0, "duration": 197}, {"note": 65, "velocity": 83, "duration": 175}, {"note": 0, "velocity": 0, "duration": 65}, {"note": 67, "velocity": 82, "duration": 194}, {"note": 60, "velocity": 83, "duration": 199}, {"note": 68, "velocity": 84, "duration": 1085}, {"note": 0, "velocity": 0, "duration": 115}, {"note": 63, "velocity": 82, "duration": 196}, {"note": 65, "velocity": 81, "duration": 203}, {"note": 67, "velocity": 83, "duration": 211}, {"note": 72, "velocity": 86, "duration": 797}, {"note": 0, "velocity": 0, "duration": 403}, {"note": 60, "velocity": 84, "duration": 211}, {"note": 62, "velocity": 85, "duration": 173}, {"note": 0, "velocity": 0, "duration": 67}, {"note": 63, "velocity": 83, "duration": 184}, {"note": 70, "velocity": 82, "duration": 240}, {"note": 62, "velocity": 83, "duration": 557}, {"note": 0, "velocity": 0, "duration": 163}, {"note": 63, "velocity": 87, "duration": 467}, {"note": 60, "velocity": 82, "duration": 1578}, {"note": 0, "velocity": 0, "duration": 102}, {"note": 72, "velocity": 88, "duration": 389}, {"note": 0, "velocity": 0, "duration": 91}, {"note": 63, "velocity": 83, "duration": 466}, {"note": 62, "velocity": 83, "duration": 382}, {"note": 0, "velocity": 0, "duration": 98}, {"note": 62, "velocity": 86, "duration": 188}, {"note": 62, "velocity": 86, "duration": 150}, {"note": 0, "velocity": 0, "duration": 90}, {"note": 72, "velocity": 87, "duration": 182}, {"note": 74, "velocity": 88, "duration": 387}, {"note": 0, "velocity": 0, "duration": 93}, {"note": 70, "velocity": 90, "duration": 480}, {"note": 63, "velocity": 81, "duration": 745}, {"note": 60, "velocity": 82, "duration": 178}, {"note": 0, "velocity": 0, "duration": 62}, {"note": 62, "velocity": 82, "duration": 113}, {"note": 63, "velocity": 85, "duration": 297}, {"note": 0, "velocity": 0, "duration": 63}, {"note": 72, "velocity": 87, "duration": 369}, {"note": 0, "velocity": 0, "duration": 111}, {"note": 70, "velocity": 86, "duration": 372}, {"note": 0, "velocity": 0, "duration": 108}, {"note": 67, "velocity": 81, "duration": 100}, {"note": 65, "velocity": 81, "duration": 75}, {"note": 65, "velocity": 83, "duration": 184}, {"note": 67, "velocity": 83, "duration": 407}, {"note": 0, "velocity": 0, "duration": 73}, {"note": 70, "velocity": 87, "duration": 378}, {"note": 0, "velocity": 0, "duration": 102}, {"note": 67, "velocity": 81, "duration": 584}, {"note": 0, "velocity": 0, "duration": 136}, {"note": 72, "velocity": 81, "duration": 313}, {"note": 0, "velocity": 0, "duration": 167}, {"note": 63, "velocity": 83, "duration": 413}, {"note": 0, "velocity": 0, "duration": 67}, {"note": 62, "velocity": 82, "duration": 446}, {"note": 62, "velocity": 83, "duration": 175}, {"note": 0, "velocity": 0, "duration": 65}, {"note": 62, "velocity": 83, "duration": 166}, {"note": 0, "velocity": 0, "duration": 74}, {"note": 72, "velocity": 86, "duration": 165}, {"note": 0, "velocity": 0, "duration": 75}, {"note": 74, "velocity": 90, "duration": 342}, {"note": 0, "velocity": 0, "duration": 138}, {"note": 70, "velocity": 79, "duration": 318}, {"note": 0, "velocity": 0, "duration": 162}, {"note": 63, "velocity": 82, "duration": 540}, {"note": 0, "velocity": 0, "duration": 180}, {"note": 60, "velocity": 83, "duration": 157}, {"note": 0, "velocity": 0, "duration": 83}, {"note": 62, "velocity": 85, "duration": 185}, {"note": 63, "velocity": 82, "duration": 161}, {"note": 0, "velocity": 0, "duration": 79}, {"note": 70, "velocity": 85, "duration": 193}, {"note": 62, "velocity": 85, "duration": 573}, {"note": 0, "velocity": 0, "duration": 147}, {"note": 63, "velocity": 87, "duration": 491}, {"note": 60, "velocity": 84, "duration": 1584}, {"note": 0, "velocity": 0, "duration": 96}, {"note": 72, "velocity": 88, "duration": 389}, {"note": 0, "velocity": 0, "duration": 91}, {"note": 63, "velocity": 83, "duration": 466}, {"note": 62, "velocity": 83, "duration": 382}, {"note": 0, "velocity": 0, "duration": 98}, {"note": 62, "velocity": 86, "duration": 188}, {"note": 62, "velocity": 86, "duration": 150}, {"note": 0, "velocity": 0, "duration": 90}, {"note": 72, "velocity": 87, "duration": 182}, {"note": 74, "velocity": 88, "duration": 387}, {"note": 0, "velocity": 0, "duration": 93}, {"note": 70, "velocity": 90, "duration": 480}, {"note": 63, "velocity": 81, "duration": 745}, {"note": 60, "velocity": 82, "duration": 178}, {"note": 0, "velocity": 0, "duration": 62}, {"note": 62, "velocity": 82, "duration": 113}, {"note": 63, "velocity": 85, "duration": 297}, {"note": 0, "velocity": 0, "duration": 63}, {"note": 72, "velocity": 87, "duration": 369}, {"note": 0, "velocity": 0, "duration": 111}, {"note": 70, "velocity": 86, "duration": 372}, {"note": 0, "velocity": 0, "duration": 108}, {"note": 67, "velocity": 81, "duration": 100}, {"note": 65, "velocity": 81, "duration": 75}, {"note": 65, "velocity": 83, "duration": 184}, {"note": 67, "velocity": 83, "duration": 407}, {"note": 0, "velocity": 0, "duration": 73}, {"note": 70, "velocity": 87, "duration": 378}, {"note": 0, "velocity": 0, "duration": 102}, {"note": 67, "velocity": 81, "duration": 584}, {"note": 0, "velocity": 0, "duration": 136}, {"note": 72, "velocity": 81, "duration": 313}, {"note": 0, "velocity": 0, "duration": 167}, {"note": 63, "velocity": 83, "duration": 413}, {"note": 0, "velocity": 0, "duration": 67}, {"note": 62, "velocity": 82, "duration": 446}, {"note": 62, "velocity": 83, "duration": 175}, {"note": 0, "velocity": 0, "duration": 65}, {"note": 62, "velocity": 83, "duration": 166}, {"note": 0, "velocity": 0, "duration": 74}, {"note": 72, "velocity": 86, "duration": 165}, {"note": 0, "velocity": 0, "duration": 75}, {"note": 74, "velocity": 90, "duration": 342}, {"note": 0, "velocity": 0, "duration": 138}, {"note": 70, "velocity": 79, "duration": 318}, {"note": 0, "velocity": 0, "duration": 162}, {"note": 63, "velocity": 82, "duration": 540}, {"note": 0, "velocity": 0, "duration": 180}, {"note": 60, "velocity": 83, "duration": 157}, {"note": 0, "velocity": 0, "duration": 83}, {"note": 62, "velocity": 85, "duration": 185}, {"note": 63, "velocity": 82, "duration": 161}, {"note": 0, "velocity": 0, "duration": 79}, {"note": 70, "velocity": 85, "duration": 193}, {"note": 62, "velocity": 85, "duration": 573}, {"note": 0, "velocity": 0, "duration": 147}, {"note": 63, "velocity": 87, "duration": 491}, {"note": 60, "velocity": 84, "duration": 1584}, {"note": 0, "velocity": 0, "duration": 96}, {"note": 60, "velocity": 83, "duration": 157}, {"note": 0, "velocity": 0, "duration": 83}, {"note": 62, "velocity": 85, "duration": 185}, {"note": 63, "velocity": 82, "duration": 161}, {"note": 0, "velocity": 0, "duration": 79}, {"note": 70, "velocity": 85, "duration": 193}, {"note": 62, "velocity": 85, "duration": 573}, {"note": 0, "velocity": 0, "duration": 147}, {"note": 63, "velocity": 87, "duration": 491}, {"note": 60, "velocity": 84, "duration": 1584}, {"note": 0, "velocity": 0, "duration": 96}, {"note": 60, "velocity": 83, "duration": 157}, {"note": 0, "velocity": 0, "duration": 83}, {"note": 62, "velocity": 85, "duration": 185}, {"note": 63, "velocity": 82, "duration": 161}, {"note": 0, "velocity": 0, "duration": 79}, {"note": 70, "velocity": 85, "duration": 480}, {"note": 62, "velocity": 85, "duration": 1080}, {"note": 0, "velocity": 0, "duration": 600}, {"note": 63, "velocity": 87, "duration": 668}, {"note": 60, "velocity": 82, "duration": 1493}]]