[[{"note": 71, "velocity": 87, "duration": 209}, {"note": 76, "velocity": 89, "duration": 187}, {"note": 78, "velocity": 86, "duration": 171}, {"note": 0, "velocity": 0, "duration": 69}, {"note": 80, "velocity": 81, "duration": 185}, {"note": 78, "velocity": 83, "duration": 177}, {"note": 0, "velocity": 0, "duration": 63}, {"note": 76, "velocity": 85, "duration": 384}, {"note": 0, "velocity": 0, "duration": 96}, {"note": 80, "velocity": 86, "duration": 405}, {"note": 0, "velocity": 0, "duration": 75}, {"note": 78, "velocity": 85, "duration": 663}, {"note": 71, "velocity": 86, "duration": 182}, {"note": 71, "velocity": 85, "duration": 571}, {"note": 0, "velocity": 0, "duration": 149}, {"note": 68, "velocity": 91, "duration": 232}, {"note": 73, "velocity": 92, "duration": 175}, {"note": 0, "velocity": 0, "duration": 65}, {"note": 75, "velocity": 88, "duration": 173}, {"note": 0, "velocity": 0, "duration": 67}, {"note": 76, "velocity": 86, "duration": 249}, {"note": 75, "velocity": 89, "duration": 223}, {"note": 73, "velocity": 90, "duration": 390}, {"note": 0, "velocity": 0, "duration": 90}, {"note": 76, "velocity": 87, "duration": 417}, {"note": 0, "velocity": 0, "duration": 63}, {"note": 75, "velocity": 85, "duration": 622}, {"note": 0, "velocity": 0, "duration": 98}, {"note": 68, "velocity": 87, "duration": 203}, {"note": 71, "velocity": 86, "duration": 563}, {"note": 0, "velocity": 0, "duration": 397}, {"note": 73, "velocity": 88, "duration": 170}, {"note": 0, "velocity": 0, "duration": 70}, {"note": 71, "velocity": 85, "duration": 185}, {"note": 71, "velocity": 85, "duration": 190}, {"note": 69, "velocity": 89, "duration": 177}, {"note": 0, "velocity": 0, "duration": 63}, {"note": 71, "velocity": 87, "duration": 176}, {"note": 0, "velocity": 0, "duration": 64}, {"note": 76, "velocity": 81, "duration": 322}, {"note": 0, "velocity": 0, "duration": 158}, {"note": 69, "velocity": 89, "duration": 177}, {"note": 0, "velocity": 0, "duration": 63}, {"note": 68, "velocity": 91, "duration": 483}, {"note": 78, "velocity": 92, "duration": 202}, {"note": 76, "velocity": 86, "duration": 777}, {"note": 0, "velocity": 0, "duration": 183}, {"note": 78, "velocity": 91, "duration": 73}, {"note": 80, "velocity": 85, "duration": 76}, {"note": 81, "velocity": 89, "duration": 191}, {"note": 80, "velocity": 88, "duration": 203}, {"note": 78, "velocity": 88, "duration": 164}, {"note": 0, "velocity": 0, "duration": 76}, {"note": 76, "velocity": 86, "duration": 152}, {"note": 0, "velocity": 0, "duration": 88}, {"note": 76, "velocity": 86, "duration": 346}, {"note": 0, "velocity": 0, "duration": 134}, {"note": 73, "velocity": 94, "duration": 392}, {"note": 0, "velocity": 0, "duration": 88}, {"note": 78, "velocity": 85, "duration": 1533}, {"note": 0, "velocity": 0, "duration": 147}, {"note": 71, "velocity": 87, "duration": 209}, {"note": 76, "velocity": 89, "duration": 187}, {"note": 78, "velocity": 86, "duration": 171}, {"note": 0, "velocity": 0, "duration": 69}, {"note": 80, "velocity": 81, "duration": 185}, {"note": 78, "velocity": 83, "duration": 177}, {"note": 0, "velocity": 0, "duration": 63}, {"note": 76, "velocity": 85, "duration": 384}, {"note": 0, "velocity": 0, "duration": 96}, {"note": 80, "velocity": 86, "duration": 405}, {"note": 0, "velocity": 0, "duration": 75}, {"note": 78, "velocity": 85, "duration": 663}, {"note": 75, "velocity": 86, "duration": 182}, {"note": 71, "velocity": 85, "duration": 571}, {"note": 0, "velocity": 0, "duration": 149}, {"note": 68, "velocity": 91, "duration": 232}, {"note": 73, "velocity": 92, "duration": 175}, {"note": 0, "velocity": 0, "duration": 65}, {"note": 75, "velocity": 88, "duration": 173}, {"note": 0, "velocity": 0, "duration": 67}, {"note": 76, "velocity": 86, "duration": 249}, {"note": 75, "velocity": 89, "duration": 223}, {"note": 73, "velocity": 90, "duration": 390}, {"note": 0, "velocity": 0, "duration": 90}, {"note": 76, "velocity": 87, "duration": 417}, {"note": 0, "velocity": 0, "duration": 63}, {"note": 75, "velocity": 85, "duration": 622}, {"note": 0, "velocity": 0, "duration": 98}, {"note": 68, "velocity": 87, "duration": 203}, {"note": 71, "velocity": 86, "duration": 563}, {"note": 0, "velocity": 0, "duration": 397}, {"note": 73, "velocity": 88, "duration": 170}, {"note": 0, "velocity": 0, "duration": 70}, {"note": 71, "velocity": 85, "duration": 185}, {"note": 71, "velocity": 85, "duration": 190}, {"note": 69, "velocity": 89, "duration": 177}, {"note": 0, "velocity": 0, "duration": 63}, {"note": 71, "velocity": 87, "duration": 176}, {"note": 0, "velocity": 0, "duration": 64}, {"note": 76, "velocity": 81, "duration": 480}, {"note": 0, "velocity": 0, "duration": 240}, {"note": 78, "velocity": 91, "duration": 483}, {"note": 0, "velocity": 0, "duration": 237}, {"note": 80, "velocity": 92, "duration": 202}, {"note": 76, "velocity": 86, "duration": 480}, {"note": 73, "velocity": 85, "duration": 177}, {"note": 0, "velocity": 0, "duration": 63}, {"note": 75, "velocity": 89, "duration": 153}, {"note": 0, "velocity": 0, "duration": 87}, {"note": 76, "velocity": 89, "duration": 233}, {"note": 73, "velocity": 88, "duration": 109}, {"note": 0, "velocity": 0, "duration": 131}, {"note": 73, "velocity": 92, "duration": 350}, {"note": 0, "velocity": 0, "duration": 130}, {"note": 76, "velocity": 89, "duration": 316}, {"note": 85, "velocity": 89, "duration": 290}, {"note": 0, "velocity": 0, "duration": 70}, {"note": 83, "velocity": 92, "duration": 409}, {"note": 0, "velocity": 0, "duration": 71}, {"note": 83, "velocity": 90, "duration": 1570}, {"note": 0, "velocity": 0, "duration": 1550}, {"note": 78, "velocity": 89, "duration": 230}, {"note": 76, "velocity": 92, "duration": 215}, {"note": 83, "velocity": 89, "duration": 292}, {"note": 0, "velocity": 0, "duration": 68}, {"note": 80, "velocity": 88, "duration": 294}, {"note": 0, "velocity": 0, "duration": 66}, {"note": 80, "velocity": 86, "duration": 169}, {"note": 0, "velocity": 0, "duration": 71}, {"note": 78, "velocity": 86, "duration": 195}, {"note": 76, "velocity": 89, "duration": 208}, {"note": 75, "velocity": 94, "duration": 197}, {"note": 76, "velocity": 87, "duration": 76}, {"note": 75, "velocity": 89, "duration": 66}, {"note": 73, "velocity": 96, "duration": 317}, {"note": 0, "velocity": 0, "duration": 163}, {"note": 68, "velocity": 86, "duration": 240}, {"note": 73, "velocity": 84, "duration": 620}, {"note": 0, "velocity": 0, "duration": 100}, {"note": 76, "velocity": 96, "duration": 213}, {"note": 78, "velocity": 87, "duration": 143}, {"note": 76, "velocity": 88, "duration": 109}, {"note": 85, "velocity": 80, "duration": 313}, {"note": 81, "velocity": 87, "duration": 63}, {"note": 81, "velocity": 83, "duration": 194}, {"note": 80, "velocity": 88, "duration": 163}, {"note": 0, "velocity": 0, "duration": 77}, {"note": 81, "velocity": 87, "duration": 187}, {"note": 73, "velocity": 88, "duration": 199}, {"note": 75, "velocity": 96, "duration": 191}, {"note": 76, "velocity": 87, "duration": 191}, {"note": 78, "velocity": 89, "duration": 1200}, {"note": 0, "velocity": 0, "duration": 480}, {"note": 80, "velocity": 91, "duration": 124}, {"note": 81, "velocity": 86, "duration": 90}, {"note": 83, "velocity": 92, "duration": 184}, {"note": 83, "velocity": 90, "duration": 154}, {"note": 0, "velocity": 0, "duration": 86}, {"note": 83, "velocity": 94, "duration": 143}, {"note": 0, "velocity": 0, "duration": 97}, {"note": 85, "velocity": 87, "duration": 207}, {"note": 76, "velocity": 87, "duration": 628}, {"note": 0, "velocity": 0, "duration": 572}, {"note": 83, "velocity": 86, "duration": 237}, {"note": 75, "velocity": 90, "duration": 267}, {"note": 78, "velocity": 86, "duration": 272}, {"note": 76, "velocity": 85, "duration": 515}, {"note": 0, "velocity": 0, "duration": 205}, {"note": 78, "velocity": 89, "duration": 74}, {"note": 80, "velocity": 88, "duration": 87}, {"note": 73, "velocity": 96, "duration": 410}, {"note": 0, "velocity": 0, "duration": 70}, {"note": 76, "velocity": 88, "duration": 417}, {"note": 0, "velocity": 0, "duration": 63}, {"note": 81, "velocity": 92, "duration": 243}, {"note": 80, "velocity": 86, "duration": 113}, {"note": 81, "velocity": 94, "duration": 278}, {"note": 0, "velocity": 0, "duration": 82}, {"note": 83, "velocity": 96, "duration": 227}, {"note": 80, "velocity": 89, "duration": 256}, {"note": 78, "velocity": 97, "duration": 761}, {"note": 0, "velocity": 0, "duration": 433}, {"note": 78, "velocity": 89, "duration": 230}, {"note": 76, "velocity": 92, "duration": 215}, {"note": 83, "velocity": 89, "duration": 292}, {"note": 0, "velocity": 0, "duration": 68}, {"note": 80, "velocity": 88, "duration": 294}, {"note": 0, "velocity": 0, "duration": 66}, {"note": 80, "velocity": 86, "duration": 169}, {"note": 0, "velocity": 0, "duration": 71}, {"note": 78, "velocity": 86, "duration": 195}, {"note": 76, "velocity": 89, "duration": 208}, {"note": 75, "velocity": 94, "duration": 197}, {"note": 76, "velocity": 87, "duration": 76}, {"note": 75, "velocity": 89, "duration": 66}, {"note": 73, "velocity": 96, "duration": 317}, {"note": 0, "velocity": 0, "duration": 163}, {"note": 68, "velocity": 86, "duration": 240}, {"note": 73, "velocity": 84, "duration": 620}, {"note": 0, "velocity": 0, "duration": 100}, {"note": 76, "velocity": 96, "duration": 213}, {"note": 78, "velocity": 87, "duration": 143}, {"note": 76, "velocity": 88, "duration": 109}, {"note": 85, "velocity": 80, "duration": 313}, {"note": 81, "velocity": 87, "duration": 63}, {"note": 81, "velocity": 83, "duration": 194}, {"note": 80, "velocity": 88, "duration": 163}, {"note": 0, "velocity": 0, "duration": 77}, {"note": 81, "velocity": 87, "duration": 187}, {"note": 73, "velocity": 88, "duration": 199}, {"note": 75, "velocity": 96, "duration": 191}, {"note": 76, "velocity": 87, "duration": 191}, {"note": 78, "velocity": 89, "duration": 1200}, {"note": 0, "velocity": 0, "duration": 480}, {"note": 80, "velocity": 91, "duration": 124}, {"note": 81, "velocity": 86, "duration": 90}, {"note": 83, "velocity": 92, "duration": 184}, {"note": 83, "velocity": 90, "duration": 154}, {"note": 0, "velocity": 0, "duration": 86}, {"note": 83, "velocity": 94, "duration": 143}, {"note": 0, "velocity": 0, "duration": 97}, {"note": 85, "velocity": 87, "duration": 207}, {"note": 76, "velocity": 87, "duration": 628}, {"note": 0, "velocity": 0, "duration": 815}, {"note": 83, "velocity": 86, "duration": 237}, {"note": 75, "velocity": 90, "duration": 112}, {"note": 78, "velocity": 86, "duration": 114}, {"note": 76, "velocity": 85, "duration": 515}, {"note": 0, "velocity": 0, "duration": 202}, {"note": 78, "velocity": 89, "duration": 74}, {"note": 80, "velocity": 88, "duration": 87}, {"note": 81, "velocity": 96, "duration": 410}, {"note": 0, "velocity": 0, "duration": 70}, {"note": 73, "velocity": 88, "duration": 417}, {"note": 0, "velocity": 0, "duration": 63}, {"note": 81, "velocity": 92, "duration": 243}, {"note": 80, "velocity": 86, "duration": 240}, {"note": 76, "velocity": 94, "duration": 278}, {"note": 78, "velocity": 96, "duration": 227}, {"note": 76, "velocity": 89, "duration": 1440}, {"note": 0, "velocity": 0, "duration": 11760}, {"note": 71, "velocity": 87, "duration": 209}, {"note": 76, "velocity": 89, "duration": 187}, {"note": 78, "velocity": 86, "duration": 171}, {"note": 0, "velocity": 0, "duration": 69}, {"note": 80, "velocity": 81, "duration": 185}, {"note": 78, "velocity": 83, "duration": 177}, {"note": 0, "velocity": 0, "duration": 63}, {"note": 76, "velocity": 85, "duration": 384}, {"note": 0, "velocity": 0, "duration": 96}, {"note": 80, "velocity": 86, "duration": 405}, {"note": 0, "velocity": 0, "duration": 75}, {"note": 78, "velocity": 85, "duration": 663}, {"note": 75, "velocity": 86, "duration": 182}, {"note": 71, "velocity": 85, "duration": 571}, {"note": 0, "velocity": 0, "duration": 149}, {"note": 68, "velocity": 91, "duration": 232}, {"note": 73, "velocity": 92, "duration": 175}, {"note": 0, "velocity": 0, "duration": 65}, {"note": 75, "velocity": 88, "duration": 173}, {"note": 0, "velocity": 0, "duration": 67}, {"note": 76, "velocity": 86, "duration": 249}, {"note": 75, "velocity": 89, "duration": 223}, {"note": 73, "velocity": 90, "duration": 390}, {"note": 0, "velocity": 0, "duration": 90}, {"note": 76, "velocity": 87, "duration": 417}, {"note": 0, "velocity": 0, "duration": 63}, {"note": 75, "velocity": 85, "duration": 622}, {"note": 0, "velocity": 0, "duration": 98}, {"note": 68, "velocity": 87, "duration": 203}, {"note": 71, "velocity": 86, "duration": 563}, {"note": 0, "velocity": 0, "duration": 397}, {"note": 73, "velocity": 88, "duration": 170}, {"note": 0, "velocity": 0, "duration": 70}, {"note": 71, "velocity": 85, "duration": 185}, {"note": 71, "velocity": 85, "duration": 190}, {"note": 69, "velocity": 89, "duration": 177}, {"note": 0, "velocity": 0, "duration": 63}, {"note": 71, "velocity": 87, "duration": 176}, {"note": 0, "velocity": 0, "duration": 64}, {"note": 76, "velocity": 81, "duration": 480}, {"note": 0, "velocity": 0, "duration": 240}, {"note": 78, "velocity": 91, "duration": 483}, {"note": 0, "velocity": 0, "duration": 237}, {"note": 83, "velocity": 92, "duration": 202}, {"note": 80, "velocity": 97, "duration": 157}, {"note": 78, "velocity": 97, "duration": 178}, {"note": 76, "velocity": 86, "duration": 234}, {"note": 73, "velocity": 85, "duration": 177}, {"note": 0, "velocity": 0, "duration": 63}, {"note": 75, "velocity": 89, "duration": 153}, {"note": 0, "velocity": 0, "duration": 87}, {"note": 76, "velocity": 89, "duration": 233}, {"note": 73, "velocity": 88, "duration": 109}, {"note": 0, "velocity": 0, "duration": 131}, {"note": 73, "velocity": 92, "duration": 350}, {"note": 0, "velocity": 0, "duration": 130}, {"note": 76, "velocity": 89, "duration": 316}, {"note": 85, "velocity": 89, "duration": 290}, {"note": 0, "velocity": 0, "duration": 70}, {"note": 83, "velocity": 92, "duration": 409}, {"note": 0, "velocity": 0, "duration": 71}, {"note": 83, "velocity": 90, "duration": 1570}, {"note": 0, "velocity": 0, "duration": 1550}, {"note": 78, "velocity": 89, "duration": 230}, {"note": 76, "velocity": 92, "duration": 215}, {"note": 83, "velocity": 89, "duration": 292}, {"note": 0, "velocity": 0, "duration": 68}, {"note": 80, "velocity": 88, "duration": 294}, {"note": 0, "velocity": 0, "duration": 66}, {"note": 80, "velocity": 86, "duration": 169}, {"note": 0, "velocity": 0, "duration": 71}, {"note": 78, "velocity": 86, "duration": 195}, {"note": 76, "velocity": 89, "duration": 208}, {"note": 75, "velocity": 94, "duration": 197}, {"note": 76, "velocity": 87, "duration": 76}, {"note": 75, "velocity": 89, "duration": 66}, {"note": 73, "velocity": 96, "duration": 317}, {"note": 0, "velocity": 0, "duration": 163}, {"note": 68, "velocity": 86, "duration": 240}, {"note": 73, "velocity": 84, "duration": 620}, {"note": 0, "velocity": 0, "duration": 100}, {"note": 76, "velocity": 96, "duration": 213}, {"note": 78, "velocity": 87, "duration": 143}, {"note": 76, "velocity": 88, "duration": 109}, {"note": 85, "velocity": 80, "duration": 313}, {"note": 81, "velocity": 87, "duration": 63}, {"note": 81, "velocity": 83, "duration": 194}, {"note": 80, "velocity": 88, "duration": 163}, {"note": 0, "velocity": 0, "duration": 77}, {"note": 81, "velocity": 87, "duration": 187}, {"note": 73, "velocity": 88, "duration": 199}, {"note": 75, "velocity": 96, "duration": 191}, {"note": 76, "velocity": 87, "duration": 191}, {"note": 78, "velocity": 89, "duration": 1200}, {"note": 0, "velocity": 0, "duration": 480}, {"note": 80, "velocity": 91, "duration": 124}, {"note": 81, "velocity": 86, "duration": 90}, {"note": 83, "velocity": 92, "duration": 184}, {"note": 83, "velocity": 90, "duration": 154}, {"note": 0, "velocity": 0, "duration": 86}, {"note": 83, "velocity": 94, "duration": 143}, {"note": 0, "velocity": 0, "duration": 97}, {"note": 85, "velocity": 87, "duration": 207}, {"note": 76, "velocity": 87, "duration": 628}, {"note": 0, "velocity": 0, "duration": 572}, {"note": 83, "velocity": 86, "duration": 237}, {"note": 75, "velocity": 90, "duration": 267}, {"note": 78, "velocity": 86, "duration": 272}, {"note": 76, "velocity": 85, "duration": 515}, {"note": 0, "velocity": 0, "duration": 205}, {"note": 78, "velocity": 89, "duration": 74}, {"note": 80, "velocity": 88, "duration": 87}, {"note": 73, "velocity": 96, "duration": 410}, {"note": 0, "velocity": 0, "duration": 70}, {"note": 76, "velocity": 88, "duration": 417}, {"note": 0, "velocity": 0, "duration": 63}, {"note": 81, "velocity": 92, "duration": 243}, {"note": 80, "velocity": 86, "duration": 113}, {"note": 81, "velocity": 94, "duration": 278}, {"note": 0, "velocity": 0, "duration": 82}, {"note": 83, "velocity": 96, "duration": 227}, {"note": 80, "velocity": 89, "duration": 243}, {"note": 78, "velocity": 87, "duration": 1028}, {"note": 0, "velocity": 0, "duration": 172}, {"note": 78, "velocity": 89, "duration": 230}, {"note": 76, "velocity": 92, "duration": 215}, {"note": 83, "velocity": 89, "duration": 292}, {"note": 0, "velocity": 0, "duration": 68}, {"note": 80, "velocity": 88, "duration": 294}, {"note": 0, "velocity": 0, "duration": 66}, {"note": 80, "velocity": 86, "duration": 169}, {"note": 0, "velocity": 0, "duration": 71}, {"note": 78, "velocity": 86, "duration": 195}, {"note": 76, "velocity": 89, "duration": 208}, {"note": 75, "velocity": 94, "duration": 197}, {"note": 76, "velocity": 87, "duration": 76}, {"note": 75, "velocity": 89, "duration": 66}, {"note": 73, "velocity": 96, "duration": 317}, {"note": 0, "velocity": 0, "duration": 163}, {"note": 68, "velocity": 86, "duration": 240}, {"note": 73, "velocity": 84, "duration": 620}, {"note": 0, "velocity": 0, "duration": 100}, {"note": 76, "velocity": 96, "duration": 213}, {"note": 78, "velocity": 87, "duration": 143}, {"note": 76, "velocity": 88, "duration": 109}, {"note": 85, "velocity": 80, "duration": 313}, {"note": 81, "velocity": 87, "duration": 63}, {"note": 81, "velocity": 83, "duration": 194}, {"note": 80, "velocity": 88, "duration": 163}, {"note": 0, "velocity": 0, "duration": 77}, {"note": 81, "velocity": 87, "duration": 187}, {"note": 73, "velocity": 88, "duration": 199}, {"note": 75, "velocity": 96, "duration": 191}, {"note": 76, "velocity": 87, "duration": 191}, {"note": 78, "velocity": 89, "duration": 1200}, {"note": 0, "velocity": 0, "duration": 480}, {"note": 80, "velocity": 91, "duration": 124}, {"note": 81, "velocity": 86, "duration": 90}, {"note": 83, "velocity": 92, "duration": 184}, {"note": 83, "velocity": 90, "duration": 154}, {"note": 0, "velocity": 0, "duration": 86}, {"note": 83, "velocity": 94, "duration": 143}, {"note": 0, "velocity": 0, "duration": 97}, {"note": 85, "velocity": 87, "duration": 207}, {"note": 78, "velocity": 97, "duration": 218}, {"note": 76, "velocity": 87, "duration": 386}, {"note": 0, "velocity": 0, "duration": 822}, {"note": 83, "velocity": 86, "duration": 237}, {"note": 75, "velocity": 90, "duration": 132}, {"note": 78, "velocity": 86, "duration": 154}, {"note": 76, "velocity": 85, "duration": 515}, {"note": 0, "velocity": 0, "duration": 201}, {"note": 78, "velocity": 89, "duration": 74}, {"note": 80, "velocity": 88, "duration": 87}, {"note": 81, "velocity": 96, "duration": 410}, {"note": 0, "velocity": 0, "duration": 70}, {"note": 73, "velocity": 88, "duration": 417}, {"note": 0, "velocity": 0, "duration": 63}, {"note": 81, "velocity": 92, "duration": 243}, {"note": 80, "velocity": 86, "duration": 240}, {"note": 76, "velocity": 94, "duration": 278}, {"note": 78, "velocity": 96, "duration": 227}, {"note": 76, "velocity": 89, "duration": 1440}, {"note": 0, "velocity": 0, "duration": 240}, {"note": 80, "velocity": 91, "duration": 124}, {"note": 81, "velocity": 86, "duration": 90}, {"note": 83, "velocity": 92, "duration": 184}, {"note": 83, "velocity": 90, "duration": 154}, {"note": 0, "velocity": 0, "duration": 86}, {"note": 83, "velocity": 94, "duration": 143}, {"note": 0, "velocity": 0, "duration": 97}, {"note": 85, "velocity": 87, "duration": 207}, {"note": 76, "velocity": 87, "duration": 628}, {"note": 0, "velocity": 0, "duration": 572}, {"note": 83, "velocity": 86, "duration": 237}, {"note": 75, "velocity": 90, "duration": 267}, {"note": 78, "velocity": 86, "duration": 272}, {"note": 76, "velocity": 85, "duration": 515}, {"note": 0, "velocity": 0, "duration": 205}, {"note": 78, "velocity": 89, "duration": 74}, {"note": 80, "velocity": 88, "duration": 87}, {"note": 80, "velocity": 96, "duration": 410}, {"note": 0, "velocity": 0, "duration": 70}, {"note": 73, "velocity": 88, "duration": 417}, {"note": 0, "velocity": 0, "duration": 63}, {"note": 81, "velocity": 92, "duration": 243}, {"note": 80, "velocity": 86, "duration": 240}, {"note": 76, "velocity": 94, "duration": 278}, {"note": 78, "velocity": 96, "duration": 227}, {"note": 76, "velocity": 89, "duration": 1440}]]