[[{"note": 63, "velocity": 86, "duration": 177}, {"note": 0, "velocity": 0, "duration": 63}, {"note": 65, "velocity": 87, "duration": 159}, {"note": 0, "velocity": 0, "duration": 81}, {"note": 68, "velocity": 84, "duration": 371}, {"note": 0, "velocity": 0, "duration": 109}, {"note": 72, "velocity": 86, "duration": 352}, {"note": 0, "velocity": 0, "duration": 128}, {"note": 70, "velocity": 86, "duration": 369}, {"note": 0, "velocity": 0, "duration": 111}, {"note": 68, "velocity": 80, "duration": 153}, {"note": 0, "velocity": 0, "duration": 87}, {"note": 70, "velocity": 87, "duration": 372}, {"note": 0, "velocity": 0, "duration": 108}, {"note": 72, "velocity": 87, "duration": 497}, {"note": 0, "velocity": 0, "duration": 223}, {"note": 63, "velocity": 87, "duration": 185}, {"note": 65, "velocity": 87, "duration": 142}, {"note": 0, "velocity": 0, "duration": 98}, {"note": 68, "velocity": 85, "duration": 162}, {"note": 0, "velocity": 0, "duration": 78}, {"note": 65, "velocity": 87, "duration": 185}, {"note": 68, "velocity": 85, "duration": 371}, {"note": 0, "velocity": 0, "duration": 109}, {"note": 72, "velocity": 86, "duration": 341}, {"note": 0, "velocity": 0, "duration": 139}, {"note": 70, "velocity": 88, "duration": 407}, {"note": 0, "velocity": 0, "duration": 73}, {"note": 68, "velocity": 80, "duration": 143}, {"note": 0, "velocity": 0, "duration": 97}, {"note": 70, "velocity": 86, "duration": 399}, {"note": 0, "velocity": 0, "duration": 81}, {"note": 72, "velocity": 84, "duration": 720}, {"note": 72, "velocity": 89, "duration": 623}, {"note": 0, "velocity": 0, "duration": 97}, {"note": 70, "velocity": 86, "duration": 148}, {"note": 0, "velocity": 0, "duration": 92}, {"note": 70, "velocity": 85, "duration": 403}, {"note": 0, "velocity": 0, "duration": 77}, {"note": 68, "velocity": 87, "duration": 865}, {"note": 0, "velocity": 0, "duration": 95}, {"note": 65, "velocity": 87, "duration": 324}, {"note": 0, "velocity": 0, "duration": 156}, {"note": 63, "velocity": 89, "duration": 382}, {"note": 0, "velocity": 0, "duration": 98}, {"note": 70, "velocity": 86, "duration": 202}, {"note": 68, "velocity": 85, "duration": 584}, {"note": 0, "velocity": 0, "duration": 136}, {"note": 68, "velocity": 85, "duration": 214}, {"note": 65, "velocity": 91, "duration": 201}, {"note": 72, "velocity": 89, "duration": 315}, {"note": 0, "velocity": 0, "duration": 165}, {"note": 70, "velocity": 87, "duration": 289}, {"note": 0, "velocity": 0, "duration": 191}, {"note": 70, "velocity": 87, "duration": 341}, {"note": 0, "velocity": 0, "duration": 139}, {"note": 70, "velocity": 85, "duration": 183}, {"note": 68, "velocity": 86, "duration": 154}, {"note": 0, "velocity": 0, "duration": 86}, {"note": 72, "velocity": 87, "duration": 480}, {"note": 70, "velocity": 81, "duration": 960}, {"note": 65, "velocity": 89, "duration": 133}, {"note": 0, "velocity": 0, "duration": 107}, {"note": 68, "velocity": 85, "duration": 184}, {"note": 68, "velocity": 85, "duration": 1938}, {"note": 0, "velocity": 0, "duration": 1422}, {"note": 63, "velocity": 86, "duration": 177}, {"note": 0, "velocity": 0, "duration": 63}, {"note": 65, "velocity": 87, "duration": 159}, {"note": 0, "velocity": 0, "duration": 81}, {"note": 68, "velocity": 84, "duration": 371}, {"note": 0, "velocity": 0, "duration": 109}, {"note": 72, "velocity": 86, "duration": 352}, {"note": 0, "velocity": 0, "duration": 128}, {"note": 70, "velocity": 86, "duration": 369}, {"note": 0, "velocity": 0, "duration": 111}, {"note": 68, "velocity": 80, "duration": 153}, {"note": 0, "velocity": 0, "duration": 87}, {"note": 70, "velocity": 87, "duration": 372}, {"note": 0, "velocity": 0, "duration": 108}, {"note": 72, "velocity": 87, "duration": 497}, {"note": 0, "velocity": 0, "duration": 223}, {"note": 63, "velocity": 87, "duration": 185}, {"note": 65, "velocity": 87, "duration": 142}, {"note": 0, "velocity": 0, "duration": 98}, {"note": 68, "velocity": 85, "duration": 162}, {"note": 0, "velocity": 0, "duration": 78}, {"note": 65, "velocity": 87, "duration": 185}, {"note": 68, "velocity": 85, "duration": 371}, {"note": 0, "velocity": 0, "duration": 109}, {"note": 72, "velocity": 86, "duration": 341}, {"note": 0, "velocity": 0, "duration": 139}, {"note": 70, "velocity": 88, "duration": 407}, {"note": 0, "velocity": 0, "duration": 73}, {"note": 68, "velocity": 80, "duration": 143}, {"note": 0, "velocity": 0, "duration": 97}, {"note": 70, "velocity": 86, "duration": 399}, {"note": 0, "velocity": 0, "duration": 81}, {"note": 72, "velocity": 84, "duration": 720}, {"note": 72, "velocity": 89, "duration": 240}, {"note": 75, "velocity": 86, "duration": 480}, {"note": 0, "velocity": 0, "duration": 240}, {"note": 70, "velocity": 85, "duration": 403}, {"note": 0, "velocity": 0, "duration": 77}, {"note": 68, "velocity": 87, "duration": 865}, {"note": 0, "velocity": 0, "duration": 95}, {"note": 68, "velocity": 86, "duration": 191}, {"note": 65, "velocity": 89, "duration": 234}, {"note": 75, "velocity": 86, "duration": 132}, {"note": 0, "velocity": 0, "duration": 108}, {"note": 75, "velocity": 87, "duration": 135}, {"note": 0, "velocity": 0, "duration": 105}, {"note": 75, "velocity": 96, "duration": 129}, {"note": 0, "velocity": 0, "duration": 111}, {"note": 75, "velocity": 86, "duration": 181}, {"note": 73, "velocity": 91, "duration": 390}, {"note": 0, "velocity": 0, "duration": 90}, {"note": 72, "velocity": 89, "duration": 214}, {"note": 70, "velocity": 86, "duration": 489}, {"note": 68, "velocity": 83, "duration": 798}, {"note": 0, "velocity": 0, "duration": 162}, {"note": 65, "velocity": 89, "duration": 133}, {"note": 0, "velocity": 0, "duration": 107}, {"note": 68, "velocity": 87, "duration": 214}, {"note": 65, "velocity": 91, "duration": 188}, {"note": 70, "velocity": 87, "duration": 366}, {"note": 0, "velocity": 0, "duration": 114}, {"note": 70, "velocity": 80, "duration": 153}, {"note": 0, "velocity": 0, "duration": 87}, {"note": 70, "velocity": 88, "duration": 750}, {"note": 72, "velocity": 88, "duration": 509}, {"note": 70, "velocity": 86, "duration": 450}, {"note": 65, "velocity": 91, "duration": 433}, {"note": 70, "velocity": 85, "duration": 480}, {"note": 68, "velocity": 85, "duration": 1334}, {"note": 0, "velocity": 0, "duration": 586}, {"note": 72, "velocity": 91, "duration": 195}, {"note": 75, "velocity": 96, "duration": 162}, {"note": 0, "velocity": 0, "duration": 78}, {"note": 77, "velocity": 92, "duration": 209}, {"note": 75, "velocity": 96, "duration": 114}, {"note": 0, "velocity": 0, "duration": 126}, {"note": 75, "velocity": 94, "duration": 119}, {"note": 0, "velocity": 0, "duration": 121}, {"note": 75, "velocity": 96, "duration": 344}, {"note": 0, "velocity": 0, "duration": 136}, {"note": 72, "velocity": 94, "duration": 367}, {"note": 0, "velocity": 0, "duration": 113}, {"note": 75, "velocity": 94, "duration": 128}, {"note": 0, "velocity": 0, "duration": 112}, {"note": 77, "velocity": 91, "duration": 166}, {"note": 0, "velocity": 0, "duration": 74}, {"note": 75, "velocity": 99, "duration": 118}, {"note": 0, "velocity": 0, "duration": 122}, {"note": 75, "velocity": 92, "duration": 127}, {"note": 0, "velocity": 0, "duration": 113}, {"note": 75, "velocity": 101, "duration": 326}, {"note": 0, "velocity": 0, "duration": 394}, {"note": 72, "velocity": 96, "duration": 267}, {"note": 75, "velocity": 92, "duration": 190}, {"note": 77, "velocity": 92, "duration": 376}, {"note": 0, "velocity": 0, "duration": 104}, {"note": 72, "velocity": 89, "duration": 161}, {"note": 0, "velocity": 0, "duration": 79}, {"note": 72, "velocity": 86, "duration": 227}, {"note": 72, "velocity": 89, "duration": 333}, {"note": 0, "velocity": 0, "duration": 147}, {"note": 70, "velocity": 86, "duration": 235}, {"note": 75, "velocity": 88, "duration": 992}, {"note": 0, "velocity": 0, "duration": 688}, {"note": 72, "velocity": 99, "duration": 166}, {"note": 0, "velocity": 0, "duration": 74}, {"note": 75, "velocity": 90, "duration": 156}, {"note": 0, "velocity": 0, "duration": 84}, {"note": 77, "velocity": 91, "duration": 371}, {"note": 0, "velocity": 0, "duration": 109}, {"note": 72, "velocity": 96, "duration": 342}, {"note": 0, "velocity": 0, "duration": 138}, {"note": 72, "velocity": 92, "duration": 368}, {"note": 0, "velocity": 0, "duration": 112}, {"note": 72, "velocity": 90, "duration": 189}, {"note": 77, "velocity": 86, "duration": 195}, {"note": 75, "velocity": 90, "duration": 215}, {"note": 72, "velocity": 91, "duration": 361}, {"note": 0, "velocity": 0, "duration": 119}, {"note": 70, "velocity": 85, "duration": 490}, {"note": 68, "velocity": 79, "duration": 802}, {"note": 0, "velocity": 0, "duration": 158}, {"note": 70, "velocity": 87, "duration": 143}, {"note": 0, "velocity": 0, "duration": 97}, {"note": 70, "velocity": 86, "duration": 146}, {"note": 0, "velocity": 0, "duration": 94}, {"note": 70, "velocity": 86, "duration": 137}, {"note": 0, "velocity": 0, "duration": 103}, {"note": 70, "velocity": 87, "duration": 181}, {"note": 68, "velocity": 88, "duration": 121}, {"note": 0, "velocity": 0, "duration": 119}, {"note": 65, "velocity": 91, "duration": 228}, {"note": 77, "velocity": 94, "duration": 393}, {"note": 0, "velocity": 0, "duration": 87}, {"note": 75, "velocity": 87, "duration": 113}, {"note": 0, "velocity": 0, "duration": 127}, {"note": 75, "velocity": 96, "duration": 148}, {"note": 0, "velocity": 0, "duration": 92}, {"note": 77, "velocity": 89, "duration": 205}, {"note": 72, "velocity": 92, "duration": 164}, {"note": 0, "velocity": 0, "duration": 76}, {"note": 70, "velocity": 89, "duration": 290}, {"note": 72, "velocity": 91, "duration": 195}, {"note": 75, "velocity": 96, "duration": 162}, {"note": 0, "velocity": 0, "duration": 78}, {"note": 77, "velocity": 92, "duration": 209}, {"note": 75, "velocity": 96, "duration": 114}, {"note": 0, "velocity": 0, "duration": 126}, {"note": 75, "velocity": 94, "duration": 119}, {"note": 0, "velocity": 0, "duration": 121}, {"note": 75, "velocity": 96, "duration": 344}, {"note": 0, "velocity": 0, "duration": 136}, {"note": 72, "velocity": 94, "duration": 367}, {"note": 0, "velocity": 0, "duration": 113}, {"note": 75, "velocity": 94, "duration": 128}, {"note": 0, "velocity": 0, "duration": 112}, {"note": 77, "velocity": 91, "duration": 166}, {"note": 0, "velocity": 0, "duration": 74}, {"note": 75, "velocity": 99, "duration": 118}, {"note": 0, "velocity": 0, "duration": 122}, {"note": 75, "velocity": 92, "duration": 127}, {"note": 0, "velocity": 0, "duration": 113}, {"note": 75, "velocity": 101, "duration": 326}, {"note": 0, "velocity": 0, "duration": 394}, {"note": 72, "velocity": 96, "duration": 267}, {"note": 75, "velocity": 92, "duration": 190}, {"note": 77, "velocity": 92, "duration": 376}, {"note": 0, "velocity": 0, "duration": 104}, {"note": 72, "velocity": 89, "duration": 161}, {"note": 0, "velocity": 0, "duration": 79}, {"note": 72, "velocity": 86, "duration": 227}, {"note": 72, "velocity": 89, "duration": 333}, {"note": 0, "velocity": 0, "duration": 147}, {"note": 70, "velocity": 86, "duration": 235}, {"note": 75, "velocity": 88, "duration": 992}, {"note": 0, "velocity": 0, "duration": 688}, {"note": 72, "velocity": 99, "duration": 166}, {"note": 0, "velocity": 0, "duration": 74}, {"note": 75, "velocity": 90, "duration": 156}, {"note": 0, "velocity": 0, "duration": 84}, {"note": 77, "velocity": 91, "duration": 371}, {"note": 0, "velocity": 0, "duration": 109}, {"note": 72, "velocity": 96, "duration": 342}, {"note": 0, "velocity": 0, "duration": 138}, {"note": 72, "velocity": 92, "duration": 368}, {"note": 0, "velocity": 0, "duration": 112}, {"note": 72, "velocity": 90, "duration": 189}, {"note": 77, "velocity": 86, "duration": 195}, {"note": 75, "velocity": 90, "duration": 215}, {"note": 72, "velocity": 91, "duration": 361}, {"note": 0, "velocity": 0, "duration": 119}, {"note": 70, "velocity": 85, "duration": 490}, {"note": 68, "velocity": 79, "duration": 802}, {"note": 0, "velocity": 0, "duration": 158}, {"note": 70, "velocity": 87, "duration": 143}, {"note": 0, "velocity": 0, "duration": 97}, {"note": 70, "velocity": 86, "duration": 146}, {"note": 0, "velocity": 0, "duration": 94}, {"note": 70, "velocity": 86, "duration": 137}, {"note": 0, "velocity": 0, "duration": 103}, {"note": 70, "velocity": 87, "duration": 181}, {"note": 68, "velocity": 88, "duration": 121}, {"note": 0, "velocity": 0, "duration": 119}, {"note": 65, "velocity": 91, "duration": 228}, {"note": 77, "velocity": 94, "duration": 393}, {"note": 0, "velocity": 0, "duration": 87}, {"note": 75, "velocity": 87, "duration": 113}, {"note": 0, "velocity": 0, "duration": 127}, {"note": 75, "velocity": 96, "duration": 148}, {"note": 0, "velocity": 0, "duration": 92}, {"note": 75, "velocity": 89, "duration": 205}, {"note": 75, "velocity": 92, "duration": 164}, {"note": 0, "velocity": 0, "duration": 76}, {"note": 75, "velocity": 89, "duration": 290}, {"note": 0, "velocity": 0, "duration": 190}, {"note": 77, "velocity": 85, "duration": 186}, {"note": 72, "velocity": 87, "duration": 447}, {"note": 70, "velocity": 86, "duration": 246}, {"note": 68, "velocity": 86, "duration": 2498}, {"note": 0, "velocity": 0, "duration": 5902}, {"note": 63, "velocity": 86, "duration": 177}, {"note": 0, "velocity": 0, "duration": 63}, {"note": 65, "velocity": 87, "duration": 159}, {"note": 0, "velocity": 0, "duration": 81}, {"note": 68, "velocity": 84, "duration": 371}, {"note": 0, "velocity": 0, "duration": 109}, {"note": 72, "velocity": 86, "duration": 352}, {"note": 0, "velocity": 0, "duration": 128}, {"note": 70, "velocity": 86, "duration": 369}, {"note": 0, "velocity": 0, "duration": 111}, {"note": 68, "velocity": 80, "duration": 153}, {"note": 0, "velocity": 0, "duration": 87}, {"note": 70, "velocity": 87, "duration": 372}, {"note": 0, "velocity": 0, "duration": 108}, {"note": 72, "velocity": 87, "duration": 497}, {"note": 0, "velocity": 0, "duration": 223}, {"note": 63, "velocity": 87, "duration": 185}, {"note": 65, "velocity": 87, "duration": 142}, {"note": 0, "velocity": 0, "duration": 98}, {"note": 68, "velocity": 85, "duration": 162}, {"note": 0, "velocity": 0, "duration": 78}, {"note": 65, "velocity": 87, "duration": 185}, {"note": 68, "velocity": 85, "duration": 371}, {"note": 0, "velocity": 0, "duration": 109}, {"note": 72, "velocity": 86, "duration": 341}, {"note": 0, "velocity": 0, "duration": 139}, {"note": 70, "velocity": 88, "duration": 407}, {"note": 0, "velocity": 0, "duration": 73}, {"note": 68, "velocity": 80, "duration": 143}, {"note": 0, "velocity": 0, "duration": 97}, {"note": 70, "velocity": 86, "duration": 399}, {"note": 0, "velocity": 0, "duration": 81}, {"note": 72, "velocity": 84, "duration": 720}, {"note": 72, "velocity": 89, "duration": 240}, {"note": 75, "velocity": 86, "duration": 480}, {"note": 0, "velocity": 0, "duration": 240}, {"note": 70, "velocity": 85, "duration": 403}, {"note": 0, "velocity": 0, "duration": 77}, {"note": 68, "velocity": 87, "duration": 865}, {"note": 0, "velocity": 0, "duration": 95}, {"note": 68, "velocity": 86, "duration": 191}, {"note": 65, "velocity": 89, "duration": 234}, {"note": 75, "velocity": 86, "duration": 132}, {"note": 0, "velocity": 0, "duration": 108}, {"note": 75, "velocity": 87, "duration": 135}, {"note": 0, "velocity": 0, "duration": 105}, {"note": 75, "velocity": 96, "duration": 129}, {"note": 0, "velocity": 0, "duration": 111}, {"note": 75, "velocity": 86, "duration": 181}, {"note": 73, "velocity": 91, "duration": 390}, {"note": 0, "velocity": 0, "duration": 90}, {"note": 72, "velocity": 89, "duration": 214}, {"note": 70, "velocity": 86, "duration": 489}, {"note": 68, "velocity": 83, "duration": 798}, {"note": 0, "velocity": 0, "duration": 162}, {"note": 65, "velocity": 89, "duration": 133}, {"note": 0, "velocity": 0, "duration": 107}, {"note": 68, "velocity": 87, "duration": 214}, {"note": 65, "velocity": 91, "duration": 188}, {"note": 70, "velocity": 87, "duration": 366}, {"note": 0, "velocity": 0, "duration": 114}, {"note": 70, "velocity": 80, "duration": 153}, {"note": 0, "velocity": 0, "duration": 87}, {"note": 70, "velocity": 88, "duration": 750}, {"note": 72, "velocity": 88, "duration": 509}, {"note": 70, "velocity": 86, "duration": 450}, {"note": 65, "velocity": 91, "duration": 433}, {"note": 70, "velocity": 85, "duration": 480}, {"note": 68, "velocity": 85, "duration": 1334}, {"note": 0, "velocity": 0, "duration": 586}, {"note": 72, "velocity": 91, "duration": 195}, {"note": 75, "velocity": 96, "duration": 162}, {"note": 0, "velocity": 0, "duration": 78}, {"note": 77, "velocity": 92, "duration": 209}, {"note": 75, "velocity": 96, "duration": 114}, {"note": 0, "velocity": 0, "duration": 126}, {"note": 75, "velocity": 94, "duration": 119}, {"note": 0, "velocity": 0, "duration": 121}, {"note": 75, "velocity": 96, "duration": 344}, {"note": 0, "velocity": 0, "duration": 136}, {"note": 72, "velocity": 94, "duration": 367}, {"note": 0, "velocity": 0, "duration": 113}, {"note": 75, "velocity": 94, "duration": 128}, {"note": 0, "velocity": 0, "duration": 112}, {"note": 77, "velocity": 91, "duration": 166}, {"note": 0, "velocity": 0, "duration": 74}, {"note": 75, "velocity": 99, "duration": 118}, {"note": 0, "velocity": 0, "duration": 122}, {"note": 75, "velocity": 92, "duration": 127}, {"note": 0, "velocity": 0, "duration": 113}, {"note": 75, "velocity": 101, "duration": 326}, {"note": 0, "velocity": 0, "duration": 394}, {"note": 72, "velocity": 96, "duration": 267}, {"note": 75, "velocity": 92, "duration": 190}, {"note": 77, "velocity": 92, "duration": 376}, {"note": 0, "velocity": 0, "duration": 104}, {"note": 72, "velocity": 89, "duration": 161}, {"note": 0, "velocity": 0, "duration": 79}, {"note": 72, "velocity": 86, "duration": 227}, {"note": 72, "velocity": 89, "duration": 333}, {"note": 0, "velocity": 0, "duration": 147}, {"note": 70, "velocity": 86, "duration": 235}, {"note": 75, "velocity": 88, "duration": 992}, {"note": 0, "velocity": 0, "duration": 688}, {"note": 72, "velocity": 99, "duration": 166}, {"note": 0, "velocity": 0, "duration": 74}, {"note": 75, "velocity": 90, "duration": 156}, {"note": 0, "velocity": 0, "duration": 84}, {"note": 77, "velocity": 91, "duration": 371}, {"note": 0, "velocity": 0, "duration": 109}, {"note": 72, "velocity": 96, "duration": 342}, {"note": 0, "velocity": 0, "duration": 138}, {"note": 72, "velocity": 92, "duration": 368}, {"note": 0, "velocity": 0, "duration": 112}, {"note": 72, "velocity": 90, "duration": 189}, {"note": 77, "velocity": 86, "duration": 195}, {"note": 75, "velocity": 90, "duration": 215}, {"note": 72, "velocity": 91, "duration": 361}, {"note": 0, "velocity": 0, "duration": 119}, {"note": 70, "velocity": 85, "duration": 490}, {"note": 68, "velocity": 79, "duration": 802}, {"note": 0, "velocity": 0, "duration": 158}, {"note": 70, "velocity": 87, "duration": 143}, {"note": 0, "velocity": 0, "duration": 97}, {"note": 70, "velocity": 86, "duration": 146}, {"note": 0, "velocity": 0, "duration": 94}, {"note": 70, "velocity": 86, "duration": 137}, {"note": 0, "velocity": 0, "duration": 103}, {"note": 70, "velocity": 87, "duration": 181}, {"note": 68, "velocity": 88, "duration": 121}, {"note": 0, "velocity": 0, "duration": 119}, {"note": 65, "velocity": 91, "duration": 228}, {"note": 77, "velocity": 94, "duration": 393}, {"note": 0, "velocity": 0, "duration": 87}, {"note": 75, "velocity": 87, "duration": 113}, {"note": 0, "velocity": 0, "duration": 127}, {"note": 75, "velocity": 96, "duration": 148}, {"note": 0, "velocity": 0, "duration": 92}, {"note": 77, "velocity": 89, "duration": 205}, {"note": 72, "velocity": 92, "duration": 164}, {"note": 0, "velocity": 0, "duration": 76}, {"note": 70, "velocity": 89, "duration": 290}, {"note": 72, "velocity": 91, "duration": 195}, {"note": 75, "velocity": 96, "duration": 162}, {"note": 0, "velocity": 0, "duration": 78}, {"note": 77, "velocity": 92, "duration": 209}, {"note": 75, "velocity": 96, "duration": 114}, {"note": 0, "velocity": 0, "duration": 126}, {"note": 75, "velocity": 94, "duration": 119}, {"note": 0, "velocity": 0, "duration": 121}, {"note": 75, "velocity": 96, "duration": 344}, {"note": 0, "velocity": 0, "duration": 136}, {"note": 72, "velocity": 94, "duration": 367}, {"note": 0, "velocity": 0, "duration": 113}, {"note": 75, "velocity": 94, "duration": 128}, {"note": 0, "velocity": 0, "duration": 112}, {"note": 77, "velocity": 91, "duration": 166}, {"note": 0, "velocity": 0, "duration": 74}, {"note": 75, "velocity": 99, "duration": 118}, {"note": 0, "velocity": 0, "duration": 122}, {"note": 75, "velocity": 92, "duration": 127}, {"note": 0, "velocity": 0, "duration": 113}, {"note": 75, "velocity": 101, "duration": 326}, {"note": 0, "velocity": 0, "duration": 394}, {"note": 72, "velocity": 96, "duration": 267}, {"note": 75, "velocity": 92, "duration": 190}, {"note": 77, "velocity": 92, "duration": 376}, {"note": 0, "velocity": 0, "duration": 104}, {"note": 72, "velocity": 89, "duration": 161}, {"note": 0, "velocity": 0, "duration": 79}, {"note": 72, "velocity": 86, "duration": 227}, {"note": 72, "velocity": 89, "duration": 333}, {"note": 0, "velocity": 0, "duration": 147}, {"note": 70, "velocity": 86, "duration": 235}, {"note": 75, "velocity": 88, "duration": 992}, {"note": 0, "velocity": 0, "duration": 688}, {"note": 72, "velocity": 99, "duration": 166}, {"note": 0, "velocity": 0, "duration": 74}, {"note": 75, "velocity": 90, "duration": 156}, {"note": 0, "velocity": 0, "duration": 84}, {"note": 77, "velocity": 91, "duration": 371}, {"note": 0, "velocity": 0, "duration": 109}, {"note": 72, "velocity": 96, "duration": 342}, {"note": 0, "velocity": 0, "duration": 138}, {"note": 72, "velocity": 92, "duration": 368}, {"note": 0, "velocity": 0, "duration": 112}, {"note": 72, "velocity": 90, "duration": 189}, {"note": 77, "velocity": 86, "duration": 195}, {"note": 75, "velocity": 90, "duration": 215}, {"note": 72, "velocity": 91, "duration": 361}, {"note": 0, "velocity": 0, "duration": 119}, {"note": 70, "velocity": 85, "duration": 490}, {"note": 68, "velocity": 79, "duration": 802}, {"note": 0, "velocity": 0, "duration": 158}, {"note": 70, "velocity": 87, "duration": 143}, {"note": 0, "velocity": 0, "duration": 97}, {"note": 70, "velocity": 86, "duration": 146}, {"note": 0, "velocity": 0, "duration": 94}, {"note": 70, "velocity": 86, "duration": 137}, {"note": 0, "velocity": 0, "duration": 103}, {"note": 70, "velocity": 87, "duration": 181}, {"note": 68, "velocity": 88, "duration": 121}, {"note": 0, "velocity": 0, "duration": 119}, {"note": 65, "velocity": 91, "duration": 228}, {"note": 77, "velocity": 94, "duration": 393}, {"note": 0, "velocity": 0, "duration": 87}, {"note": 75, "velocity": 87, "duration": 113}, {"note": 0, "velocity": 0, "duration": 127}, {"note": 75, "velocity": 96, "duration": 148}, {"note": 0, "velocity": 0, "duration": 92}, {"note": 75, "velocity": 89, "duration": 205}, {"note": 75, "velocity": 92, "duration": 164}, {"note": 0, "velocity": 0, "duration": 76}, {"note": 75, "velocity": 89, "duration": 290}, {"note": 0, "velocity": 0, "duration": 190}, {"note": 77, "velocity": 85, "duration": 186}, {"note": 72, "velocity": 87, "duration": 447}, {"note": 70, "velocity": 86, "duration": 246}, {"note": 68, "velocity": 86, "duration": 2498}, {"note": 0, "velocity": 0, "duration": 1102}, {"note": 72, "velocity": 87, "duration": 148}, {"note": 0, "velocity": 0, "duration": 92}, {"note": 72, "velocity": 89, "duration": 143}, {"note": 0, "velocity": 0, "duration": 97}, {"note": 72, "velocity": 89, "duration": 156}, {"note": 0, "velocity": 0, "duration": 84}, {"note": 72, "velocity": 90, "duration": 205}, {"note": 70, "velocity": 89, "duration": 199}, {"note": 68, "velocity": 87, "duration": 177}, {"note": 0, "velocity": 0, "duration": 63}, {"note": 70, "velocity": 91, "duration": 295}, {"note": 75, "velocity": 86, "duration": 240}, {"note": 0, "velocity": 0, "duration": 240}, {"note": 75, "velocity": 91, "duration": 720}, {"note": 0, "velocity": 0, "duration": 960}, {"note": 73, "velocity": 90, "duration": 192}, {"note": 72, "velocity": 94, "duration": 152}, {"note": 0, "velocity": 0, "duration": 88}, {"note": 73, "velocity": 90, "duration": 216}, {"note": 72, "velocity": 91, "duration": 138}, {"note": 0, "velocity": 0, "duration": 102}, {"note": 68, "velocity": 87, "duration": 162}, {"note": 0, "velocity": 0, "duration": 78}, {"note": 63, "velocity": 89, "duration": 175}, {"note": 0, "velocity": 0, "duration": 65}, {"note": 70, "velocity": 91, "duration": 194}, {"note": 72, "velocity": 85, "duration": 403}, {"note": 0, "velocity": 0, "duration": 77}, {"note": 72, "velocity": 91, "duration": 1198}, {"note": 0, "velocity": 0, "duration": 482}, {"note": 72, "velocity": 87, "duration": 153}, {"note": 0, "velocity": 0, "duration": 87}, {"note": 72, "velocity": 86, "duration": 147}, {"note": 0, "velocity": 0, "duration": 93}, {"note": 72, "velocity": 86, "duration": 153}, {"note": 0, "velocity": 0, "duration": 87}, {"note": 72, "velocity": 87, "duration": 164}, {"note": 0, "velocity": 0, "duration": 76}, {"note": 70, "velocity": 89, "duration": 137}, {"note": 0, "velocity": 0, "duration": 103}, {"note": 68, "velocity": 88, "duration": 147}, {"note": 0, "velocity": 0, "duration": 93}, {"note": 70, "velocity": 88, "duration": 208}, {"note": 75, "velocity": 96, "duration": 377}, {"note": 0, "velocity": 0, "duration": 103}, {"note": 75, "velocity": 96, "duration": 480}, {"note": 0, "velocity": 0, "duration": 240}, {"note": 70, "velocity": 92, "duration": 163}, {"note": 0, "velocity": 0, "duration": 77}, {"note": 72, "velocity": 91, "duration": 172}, {"note": 0, "velocity": 0, "duration": 68}, {"note": 73, "velocity": 87, "duration": 157}, {"note": 0, "velocity": 0, "duration": 83}, {"note": 72, "velocity": 87, "duration": 155}, {"note": 0, "velocity": 0, "duration": 85}, {"note": 73, "velocity": 86, "duration": 136}, {"note": 0, "velocity": 0, "duration": 104}, {"note": 73, "velocity": 89, "duration": 480}, {"note": 77, "velocity": 89, "duration": 720}, {"note": 75, "velocity": 96, "duration": 1200}, {"note": 77, "velocity": 90, "duration": 626}, {"note": 0, "velocity": 0, "duration": 94}, {"note": 75, "velocity": 91, "duration": 979}, {"note": 0, "velocity": 0, "duration": 461}, {"note": 72, "velocity": 91, "duration": 195}, {"note": 75, "velocity": 96, "duration": 162}, {"note": 0, "velocity": 0, "duration": 78}, {"note": 77, "velocity": 92, "duration": 209}, {"note": 75, "velocity": 96, "duration": 114}, {"note": 0, "velocity": 0, "duration": 126}, {"note": 75, "velocity": 94, "duration": 119}, {"note": 0, "velocity": 0, "duration": 121}, {"note": 75, "velocity": 96, "duration": 344}, {"note": 0, "velocity": 0, "duration": 136}, {"note": 72, "velocity": 94, "duration": 367}, {"note": 0, "velocity": 0, "duration": 113}, {"note": 75, "velocity": 94, "duration": 128}, {"note": 0, "velocity": 0, "duration": 112}, {"note": 77, "velocity": 91, "duration": 166}, {"note": 0, "velocity": 0, "duration": 74}, {"note": 75, "velocity": 99, "duration": 118}, {"note": 0, "velocity": 0, "duration": 122}, {"note": 75, "velocity": 92, "duration": 127}, {"note": 0, "velocity": 0, "duration": 113}, {"note": 75, "velocity": 101, "duration": 326}, {"note": 0, "velocity": 0, "duration": 394}, {"note": 72, "velocity": 96, "duration": 267}, {"note": 75, "velocity": 92, "duration": 190}, {"note": 77, "velocity": 92, "duration": 376}, {"note": 0, "velocity": 0, "duration": 104}, {"note": 72, "velocity": 89, "duration": 161}, {"note": 0, "velocity": 0, "duration": 79}, {"note": 72, "velocity": 86, "duration": 227}, {"note": 72, "velocity": 89, "duration": 333}, {"note": 0, "velocity": 0, "duration": 147}, {"note": 70, "velocity": 86, "duration": 235}, {"note": 75, "velocity": 88, "duration": 992}, {"note": 0, "velocity": 0, "duration": 688}, {"note": 72, "velocity": 99, "duration": 166}, {"note": 0, "velocity": 0, "duration": 74}, {"note": 75, "velocity": 90, "duration": 156}, {"note": 0, "velocity": 0, "duration": 84}, {"note": 77, "velocity": 91, "duration": 371}, {"note": 0, "velocity": 0, "duration": 109}, {"note": 72, "velocity": 96, "duration": 342}, {"note": 0, "velocity": 0, "duration": 138}, {"note": 72, "velocity": 92, "duration": 368}, {"note": 0, "velocity": 0, "duration": 112}, {"note": 72, "velocity": 90, "duration": 189}, {"note": 77, "velocity": 86, "duration": 195}, {"note": 75, "velocity": 90, "duration": 215}, {"note": 72, "velocity": 91, "duration": 361}, {"note": 0, "velocity": 0, "duration": 119}, {"note": 70, "velocity": 85, "duration": 490}, {"note": 68, "velocity": 79, "duration": 802}, {"note": 0, "velocity": 0, "duration": 158}, {"note": 70, "velocity": 87, "duration": 143}, {"note": 0, "velocity": 0, "duration": 97}, {"note": 70, "velocity": 86, "duration": 146}, {"note": 0, "velocity": 0, "duration": 94}, {"note": 70, "velocity": 86, "duration": 137}, {"note": 0, "velocity": 0, "duration": 103}, {"note": 70, "velocity": 87, "duration": 181}, {"note": 68, "velocity": 88, "duration": 121}, {"note": 0, "velocity": 0, "duration": 119}, {"note": 65, "velocity": 91, "duration": 228}, {"note": 77, "velocity": 94, "duration": 393}, {"note": 0, "velocity": 0, "duration": 87}, {"note": 75, "velocity": 87, "duration": 113}, {"note": 0, "velocity": 0, "duration": 127}, {"note": 75, "velocity": 96, "duration": 148}, {"note": 0, "velocity": 0, "duration": 92}, {"note": 77, "velocity": 89, "duration": 205}, {"note": 72, "velocity": 92, "duration": 164}, {"note": 0, "velocity": 0, "duration": 76}, {"note": 70, "velocity": 89, "duration": 290}, {"note": 72, "velocity": 91, "duration": 195}, {"note": 75, "velocity": 96, "duration": 162}, {"note": 0, "velocity": 0, "duration": 78}, {"note": 77, "velocity": 92, "duration": 209}, {"note": 75, "velocity": 96, "duration": 114}, {"note": 0, "velocity": 0, "duration": 126}, {"note": 75, "velocity": 94, "duration": 119}, {"note": 0, "velocity": 0, "duration": 121}, {"note": 75, "velocity": 96, "duration": 344}, {"note": 0, "velocity": 0, "duration": 136}, {"note": 72, "velocity": 94, "duration": 367}, {"note": 0, "velocity": 0, "duration": 113}, {"note": 75, "velocity": 94, "duration": 128}, {"note": 0, "velocity": 0, "duration": 112}, {"note": 77, "velocity": 91, "duration": 166}, {"note": 0, "velocity": 0, "duration": 74}, {"note": 75, "velocity": 99, "duration": 118}, {"note": 0, "velocity": 0, "duration": 122}, {"note": 75, "velocity": 92, "duration": 127}, {"note": 0, "velocity": 0, "duration": 113}, {"note": 75, "velocity": 101, "duration": 326}, {"note": 0, "velocity": 0, "duration": 394}, {"note": 72, "velocity": 96, "duration": 267}, {"note": 75, "velocity": 92, "duration": 190}, {"note": 77, "velocity": 92, "duration": 376}, {"note": 0, "velocity": 0, "duration": 104}, {"note": 72, "velocity": 89, "duration": 161}, {"note": 0, "velocity": 0, "duration": 79}, {"note": 72, "velocity": 86, "duration": 227}, {"note": 72, "velocity": 89, "duration": 333}, {"note": 0, "velocity": 0, "duration": 147}, {"note": 70, "velocity": 86, "duration": 235}, {"note": 75, "velocity": 88, "duration": 992}, {"note": 0, "velocity": 0, "duration": 688}, {"note": 72, "velocity": 99, "duration": 166}, {"note": 0, "velocity": 0, "duration": 74}, {"note": 75, "velocity": 90, "duration": 156}, {"note": 0, "velocity": 0, "duration": 84}, {"note": 77, "velocity": 91, "duration": 371}, {"note": 0, "velocity": 0, "duration": 109}, {"note": 72, "velocity": 96, "duration": 342}, {"note": 0, "velocity": 0, "duration": 138}, {"note": 72, "velocity": 92, "duration": 368}, {"note": 0, "velocity": 0, "duration": 112}, {"note": 72, "velocity": 90, "duration": 189}, {"note": 77, "velocity": 86, "duration": 195}, {"note": 75, "velocity": 90, "duration": 215}, {"note": 72, "velocity": 91, "duration": 361}, {"note": 0, "velocity": 0, "duration": 119}, {"note": 70, "velocity": 85, "duration": 490}, {"note": 68, "velocity": 79, "duration": 802}, {"note": 0, "velocity": 0, "duration": 158}, {"note": 70, "velocity": 87, "duration": 143}, {"note": 0, "velocity": 0, "duration": 97}, {"note": 70, "velocity": 86, "duration": 146}, {"note": 0, "velocity": 0, "duration": 94}, {"note": 70, "velocity": 86, "duration": 137}, {"note": 0, "velocity": 0, "duration": 103}, {"note": 70, "velocity": 87, "duration": 181}, {"note": 68, "velocity": 88, "duration": 121}, {"note": 0, "velocity": 0, "duration": 119}, {"note": 65, "velocity": 91, "duration": 228}, {"note": 77, "velocity": 94, "duration": 393}, {"note": 0, "velocity": 0, "duration": 87}, {"note": 75, "velocity": 87, "duration": 113}, {"note": 0, "velocity": 0, "duration": 127}, {"note": 75, "velocity": 96, "duration": 148}, {"note": 0, "velocity": 0, "duration": 92}, {"note": 75, "velocity": 89, "duration": 205}, {"note": 75, "velocity": 92, "duration": 164}, {"note": 0, "velocity": 0, "duration": 76}, {"note": 75, "velocity": 89, "duration": 290}, {"note": 0, "velocity": 0, "duration": 190}, {"note": 77, "velocity": 85, "duration": 186}, {"note": 72, "velocity": 87, "duration": 447}, {"note": 70, "velocity": 86, "duration": 246}, {"note": 68, "velocity": 86, "duration": 2498}]]