[[{"note": 65, "velocity": 90, "duration": 56}, {"note": 0, "velocity": 0, "duration": 64}, {"note": 65, "velocity": 66, "duration": 56}, {"note": 0, "velocity": 0, "duration": 64}, {"note": 65, "velocity": 70, "duration": 71}, {"note": 66, "velocity": 66, "duration": 83}, {"note": 68, "velocity": 83, "duration": 125}, {"note": 0, "velocity": 0, "duration": 355}, {"note": 63, "velocity": 93, "duration": 53}, {"note": 0, "velocity": 0, "duration": 67}, {"note": 63, "velocity": 86, "duration": 57}, {"note": 0, "velocity": 0, "duration": 63}, {"note": 63, "velocity": 73, "duration": 59}, {"note": 0, "velocity": 0, "duration": 61}, {"note": 65, "velocity": 69, "duration": 73}, {"note": 66, "velocity": 81, "duration": 117}, {"note": 0, "velocity": 0, "duration": 363}, {"note": 61, "velocity": 73, "duration": 49}, {"note": 0, "velocity": 0, "duration": 71}, {"note": 61, "velocity": 72, "duration": 52}, {"note": 0, "velocity": 0, "duration": 68}, {"note": 61, "velocity": 86, "duration": 69}, {"note": 63, "velocity": 83, "duration": 59}, {"note": 0, "velocity": 0, "duration": 61}, {"note": 65, "velocity": 88, "duration": 132}, {"note": 0, "velocity": 0, "duration": 348}, {"note": 65, "velocity": 93, "duration": 148}, {"note": 0, "velocity": 0, "duration": 92}, {"note": 63, "velocity": 96, "duration": 104}, {"note": 61, "velocity": 77, "duration": 113}, {"note": 0, "velocity": 0, "duration": 127}, {"note": 58, "velocity": 88, "duration": 112}, {"note": 0, "velocity": 0, "duration": 728}, {"note": 58, "velocity": 93, "duration": 109}, {"note": 56, "velocity": 82, "duration": 124}, {"note": 0, "velocity": 0, "duration": 236}, {"note": 58, "velocity": 83, "duration": 81}, {"note": 61, "velocity": 77, "duration": 159}, {"note": 0, "velocity": 0, "duration": 81}, {"note": 63, "velocity": 76, "duration": 329}, {"note": 61, "velocity": 85, "duration": 271}, {"note": 0, "velocity": 0, "duration": 89}, {"note": 65, "velocity": 79, "duration": 42}, {"note": 0, "velocity": 0, "duration": 78}, {"note": 65, "velocity": 75, "duration": 42}, {"note": 0, "velocity": 0, "duration": 78}, {"note": 65, "velocity": 74, "duration": 47}, {"note": 0, "velocity": 0, "duration": 73}, {"note": 66, "velocity": 85, "duration": 70}, {"note": 68, "velocity": 95, "duration": 101}, {"note": 0, "velocity": 0, "duration": 379}, {"note": 63, "velocity": 95, "duration": 46}, {"note": 0, "velocity": 0, "duration": 74}, {"note": 63, "velocity": 86, "duration": 46}, {"note": 0, "velocity": 0, "duration": 74}, {"note": 63, "velocity": 83, "duration": 62}, {"note": 65, "velocity": 89, "duration": 63}, {"note": 66, "velocity": 97, "duration": 103}, {"note": 0, "velocity": 0, "duration": 377}, {"note": 61, "velocity": 77, "duration": 50}, {"note": 0, "velocity": 0, "duration": 70}, {"note": 61, "velocity": 78, "duration": 46}, {"note": 0, "velocity": 0, "duration": 74}, {"note": 61, "velocity": 85, "duration": 56}, {"note": 0, "velocity": 0, "duration": 64}, {"note": 63, "velocity": 95, "duration": 62}, {"note": 65, "velocity": 96, "duration": 110}, {"note": 0, "velocity": 0, "duration": 130}, {"note": 63, "velocity": 97, "duration": 209}, {"note": 65, "velocity": 78, "duration": 190}, {"note": 63, "velocity": 92, "duration": 161}, {"note": 0, "velocity": 0, "duration": 79}, {"note": 65, "velocity": 83, "duration": 85}, {"note": 58, "velocity": 88, "duration": 321}, {"note": 0, "velocity": 0, "duration": 639}, {"note": 56, "velocity": 85, "duration": 51}, {"note": 0, "velocity": 0, "duration": 69}, {"note": 56, "velocity": 82, "duration": 155}, {"note": 0, "velocity": 0, "duration": 85}, {"note": 58, "velocity": 93, "duration": 56}, {"note": 0, "velocity": 0, "duration": 64}, {"note": 61, "velocity": 95, "duration": 140}, {"note": 0, "velocity": 0, "duration": 100}, {"note": 63, "velocity": 99, "duration": 289}, {"note": 61, "velocity": 100, "duration": 243}, {"note": 0, "velocity": 0, "duration": 117}, {"note": 60, "velocity": 90, "duration": 52}, {"note": 0, "velocity": 0, "duration": 68}, {"note": 61, "velocity": 76, "duration": 124}, {"note": 0, "velocity": 0, "duration": 236}, {"note": 60, "velocity": 79, "duration": 64}, {"note": 61, "velocity": 82, "duration": 122}, {"note": 0, "velocity": 0, "duration": 238}, {"note": 60, "velocity": 93, "duration": 55}, {"note": 0, "velocity": 0, "duration": 65}, {"note": 61, "velocity": 99, "duration": 128}, {"note": 0, "velocity": 0, "duration": 232}, {"note": 56, "velocity": 86, "duration": 51}, {"note": 0, "velocity": 0, "duration": 69}, {"note": 56, "velocity": 86, "duration": 164}, {"note": 0, "velocity": 0, "duration": 76}, {"note": 63, "velocity": 100, "duration": 53}, {"note": 0, "velocity": 0, "duration": 67}, {"note": 63, "velocity": 90, "duration": 70}, {"note": 61, "velocity": 78, "duration": 51}, {"note": 0, "velocity": 0, "duration": 69}, {"note": 63, "velocity": 97, "duration": 72}, {"note": 65, "velocity": 99, "duration": 62}, {"note": 0, "velocity": 0, "duration": 178}, {"note": 63, "velocity": 86, "duration": 249}, {"note": 65, "velocity": 88, "duration": 268}, {"note": 0, "velocity": 0, "duration": 332}, {"note": 61, "velocity": 99, "duration": 254}, {"note": 0, "velocity": 0, "duration": 226}, {"note": 60, "velocity": 90, "duration": 53}, {"note": 0, "velocity": 0, "duration": 67}, {"note": 61, "velocity": 92, "duration": 211}, {"note": 0, "velocity": 0, "duration": 149}, {"note": 60, "velocity": 86, "duration": 57}, {"note": 0, "velocity": 0, "duration": 63}, {"note": 61, "velocity": 100, "duration": 166}, {"note": 0, "velocity": 0, "duration": 194}, {"note": 60, "velocity": 81, "duration": 50}, {"note": 0, "velocity": 0, "duration": 70}, {"note": 61, "velocity": 89, "duration": 191}, {"note": 63, "velocity": 102, "duration": 194}, {"note": 63, "velocity": 95, "duration": 923}, {"note": 0, "velocity": 0, "duration": 1357}, {"note": 65, "velocity": 97, "duration": 64}, {"note": 63, "velocity": 56, "duration": 54}, {"note": 0, "velocity": 0, "duration": 66}, {"note": 63, "velocity": 78, "duration": 94}, {"note": 61, "velocity": 64, "duration": 67}, {"note": 63, "velocity": 90, "duration": 54}, {"note": 0, "velocity": 0, "duration": 66}, {"note": 65, "velocity": 102, "duration": 166}, {"note": 0, "velocity": 0, "duration": 74}, {"note": 60, "velocity": 89, "duration": 50}, {"note": 0, "velocity": 0, "duration": 70}, {"note": 60, "velocity": 83, "duration": 49}, {"note": 0, "velocity": 0, "duration": 71}, {"note": 60, "velocity": 90, "duration": 40}, {"note": 0, "velocity": 0, "duration": 80}, {"note": 60, "velocity": 90, "duration": 48}, {"note": 0, "velocity": 0, "duration": 72}, {"note": 63, "velocity": 93, "duration": 85}, {"note": 61, "velocity": 97, "duration": 43}, {"note": 0, "velocity": 0, "duration": 77}, {"note": 61, "velocity": 100, "duration": 303}, {"note": 60, "velocity": 88, "duration": 162}, {"note": 0, "velocity": 0, "duration": 78}, {"note": 58, "velocity": 83, "duration": 459}, {"note": 0, "velocity": 0, "duration": 1341}, {"note": 65, "velocity": 82, "duration": 73}, {"note": 63, "velocity": 86, "duration": 53}, {"note": 0, "velocity": 0, "duration": 67}, {"note": 63, "velocity": 89, "duration": 68}, {"note": 61, "velocity": 75, "duration": 62}, {"note": 63, "velocity": 93, "duration": 59}, {"note": 0, "velocity": 0, "duration": 61}, {"note": 65, "velocity": 95, "duration": 177}, {"note": 0, "velocity": 0, "duration": 63}, {"note": 63, "velocity": 97, "duration": 40}, {"note": 0, "velocity": 0, "duration": 80}, {"note": 63, "velocity": 95, "duration": 44}, {"note": 0, "velocity": 0, "duration": 76}, {"note": 61, "velocity": 85, "duration": 72}, {"note": 63, "velocity": 90, "duration": 49}, {"note": 0, "velocity": 0, "duration": 71}, {"note": 61, "velocity": 85, "duration": 58}, {"note": 0, "velocity": 0, "duration": 62}, {"note": 63, "velocity": 93, "duration": 49}, {"note": 0, "velocity": 0, "duration": 71}, {"note": 68, "velocity": 107, "duration": 221}, {"note": 63, "velocity": 95, "duration": 78}, {"note": 65, "velocity": 97, "duration": 366}, {"note": 0, "velocity": 0, "duration": 1194}, {"note": 56, "velocity": 89, "duration": 43}, {"note": 0, "velocity": 0, "duration": 77}, {"note": 58, "velocity": 90, "duration": 56}, {"note": 0, "velocity": 0, "duration": 64}, {"note": 56, "velocity": 89, "duration": 50}, {"note": 0, "velocity": 0, "duration": 70}, {"note": 58, "velocity": 93, "duration": 55}, {"note": 0, "velocity": 0, "duration": 65}, {"note": 56, "velocity": 92, "duration": 50}, {"note": 0, "velocity": 0, "duration": 70}, {"note": 58, "velocity": 107, "duration": 87}, {"note": 54, "velocity": 75, "duration": 92}, {"note": 58, "velocity": 99, "duration": 85}, {"note": 65, "velocity": 95, "duration": 193}, {"note": 63, "velocity": 88, "duration": 46}, {"note": 0, "velocity": 0, "duration": 74}, {"note": 63, "velocity": 95, "duration": 155}, {"note": 0, "velocity": 0, "duration": 445}, {"note": 60, "velocity": 90, "duration": 48}, {"note": 0, "velocity": 0, "duration": 72}, {"note": 60, "velocity": 95, "duration": 63}, {"note": 58, "velocity": 89, "duration": 54}, {"note": 0, "velocity": 0, "duration": 66}, {"note": 60, "velocity": 100, "duration": 45}, {"note": 0, "velocity": 0, "duration": 75}, {"note": 58, "velocity": 93, "duration": 57}, {"note": 0, "velocity": 0, "duration": 63}, {"note": 60, "velocity": 127, "duration": 69}, {"note": 56, "velocity": 92, "duration": 61}, {"note": 60, "velocity": 78, "duration": 48}, {"note": 0, "velocity": 0, "duration": 72}, {"note": 63, "velocity": 102, "duration": 191}, {"note": 61, "velocity": 88, "duration": 50}, {"note": 0, "velocity": 0, "duration": 70}, {"note": 61, "velocity": 99, "duration": 215}, {"note": 0, "velocity": 0, "duration": 385}, {"note": 56, "velocity": 93, "duration": 51}, {"note": 0, "velocity": 0, "duration": 69}, {"note": 58, "velocity": 96, "duration": 49}, {"note": 0, "velocity": 0, "duration": 71}, {"note": 60, "velocity": 92, "duration": 51}, {"note": 0, "velocity": 0, "duration": 69}, {"note": 61, "velocity": 117, "duration": 55}, {"note": 0, "velocity": 0, "duration": 65}, {"note": 58, "velocity": 83, "duration": 67}, {"note": 61, "velocity": 99, "duration": 64}, {"note": 65, "velocity": 90, "duration": 135}, {"note": 0, "velocity": 0, "duration": 105}, {"note": 63, "velocity": 100, "duration": 437}, {"note": 60, "velocity": 85, "duration": 42}, {"note": 0, "velocity": 0, "duration": 78}, {"note": 60, "velocity": 82, "duration": 45}, {"note": 0, "velocity": 0, "duration": 75}, {"note": 60, "velocity": 90, "duration": 59}, {"note": 0, "velocity": 0, "duration": 61}, {"note": 61, "velocity": 99, "duration": 55}, {"note": 0, "velocity": 0, "duration": 65}, {"note": 63, "velocity": 100, "duration": 254}, {"note": 0, "velocity": 0, "duration": 106}, {"note": 61, "velocity": 90, "duration": 52}, {"note": 0, "velocity": 0, "duration": 68}, {"note": 61, "velocity": 96, "duration": 274}, {"note": 0, "velocity": 0, "duration": 1526}, {"note": 65, "velocity": 122, "duration": 60}, {"note": 63, "velocity": 85, "duration": 35}, {"note": 0, "velocity": 0, "duration": 85}, {"note": 63, "velocity": 112, "duration": 49}, {"note": 0, "velocity": 0, "duration": 71}, {"note": 61, "velocity": 95, "duration": 51}, {"note": 0, "velocity": 0, "duration": 69}, {"note": 63, "velocity": 100, "duration": 51}, {"note": 0, "velocity": 0, "duration": 69}, {"note": 65, "velocity": 117, "duration": 131}, {"note": 0, "velocity": 0, "duration": 109}, {"note": 60, "velocity": 90, "duration": 36}, {"note": 0, "velocity": 0, "duration": 84}, {"note": 60, "velocity": 86, "duration": 33}, {"note": 0, "velocity": 0, "duration": 87}, {"note": 60, "velocity": 93, "duration": 39}, {"note": 0, "velocity": 0, "duration": 81}, {"note": 60, "velocity": 99, "duration": 42}, {"note": 0, "velocity": 0, "duration": 78}, {"note": 63, "velocity": 122, "duration": 92}, {"note": 61, "velocity": 85, "duration": 43}, {"note": 0, "velocity": 0, "duration": 77}, {"note": 61, "velocity": 112, "duration": 244}, {"note": 53, "velocity": 93, "duration": 106}, {"note": 58, "velocity": 100, "duration": 453}, {"note": 0, "velocity": 0, "duration": 1467}, {"note": 65, "velocity": 102, "duration": 80}, {"note": 63, "velocity": 92, "duration": 43}, {"note": 0, "velocity": 0, "duration": 77}, {"note": 63, "velocity": 107, "duration": 65}, {"note": 61, "velocity": 85, "duration": 67}, {"note": 63, "velocity": 107, "duration": 52}, {"note": 0, "velocity": 0, "duration": 68}, {"note": 65, "velocity": 102, "duration": 130}, {"note": 0, "velocity": 0, "duration": 110}, {"note": 63, "velocity": 100, "duration": 38}, {"note": 0, "velocity": 0, "duration": 82}, {"note": 63, "velocity": 100, "duration": 69}, {"note": 61, "velocity": 90, "duration": 55}, {"note": 0, "velocity": 0, "duration": 65}, {"note": 63, "velocity": 112, "duration": 53}, {"note": 0, "velocity": 0, "duration": 67}, {"note": 61, "velocity": 96, "duration": 64}, {"note": 63, "velocity": 102, "duration": 46}, {"note": 0, "velocity": 0, "duration": 74}, {"note": 68, "velocity": 102, "duration": 226}, {"note": 63, "velocity": 93, "duration": 95}, {"note": 65, "velocity": 127, "duration": 511}, {"note": 0, "velocity": 0, "duration": 1049}, {"note": 56, "velocity": 89, "duration": 63}, {"note": 58, "velocity": 99, "duration": 51}, {"note": 0, "velocity": 0, "duration": 69}, {"note": 56, "velocity": 86, "duration": 53}, {"note": 0, "velocity": 0, "duration": 67}, {"note": 58, "velocity": 93, "duration": 46}, {"note": 0, "velocity": 0, "duration": 74}, {"note": 56, "velocity": 88, "duration": 51}, {"note": 0, "velocity": 0, "duration": 69}, {"note": 58, "velocity": 95, "duration": 41}, {"note": 0, "velocity": 0, "duration": 79}, {"note": 54, "velocity": 97, "duration": 76}, {"note": 58, "velocity": 90, "duration": 67}, {"note": 65, "velocity": 100, "duration": 180}, {"note": 66, "velocity": 102, "duration": 80}, {"note": 63, "velocity": 97, "duration": 254}, {"note": 0, "velocity": 0, "duration": 346}, {"note": 60, "velocity": 78, "duration": 55}, {"note": 0, "velocity": 0, "duration": 65}, {"note": 60, "velocity": 100, "duration": 70}, {"note": 58, "velocity": 85, "duration": 52}, {"note": 0, "velocity": 0, "duration": 68}, {"note": 60, "velocity": 107, "duration": 55}, {"note": 0, "velocity": 0, "duration": 65}, {"note": 58, "velocity": 93, "duration": 62}, {"note": 60, "velocity": 122, "duration": 65}, {"note": 56, "velocity": 83, "duration": 88}, {"note": 60, "velocity": 99, "duration": 58}, {"note": 0, "velocity": 0, "duration": 62}, {"note": 63, "velocity": 100, "duration": 192}, {"note": 61, "velocity": 102, "duration": 60}, {"note": 61, "velocity": 117, "duration": 484}, {"note": 56, "velocity": 92, "duration": 50}, {"note": 0, "velocity": 0, "duration": 70}, {"note": 56, "velocity": 82, "duration": 49}, {"note": 0, "velocity": 0, "duration": 71}, {"note": 58, "velocity": 97, "duration": 51}, {"note": 0, "velocity": 0, "duration": 69}, {"note": 56, "velocity": 83, "duration": 64}, {"note": 58, "velocity": 97, "duration": 61}, {"note": 54, "velocity": 88, "duration": 95}, {"note": 58, "velocity": 107, "duration": 68}, {"note": 65, "velocity": 92, "duration": 137}, {"note": 0, "velocity": 0, "duration": 103}, {"note": 63, "velocity": 117, "duration": 322}, {"note": 0, "velocity": 0, "duration": 278}, {"note": 60, "velocity": 100, "duration": 46}, {"note": 0, "velocity": 0, "duration": 74}, {"note": 60, "velocity": 95, "duration": 58}, {"note": 0, "velocity": 0, "duration": 62}, {"note": 61, "velocity": 107, "duration": 57}, {"note": 0, "velocity": 0, "duration": 63}, {"note": 63, "velocity": 107, "duration": 181}, {"note": 61, "velocity": 107, "duration": 83}, {"note": 61, "velocity": 107, "duration": 411}, {"note": 0, "velocity": 0, "duration": 7269}, {"note": 65, "velocity": 79, "duration": 42}, {"note": 0, "velocity": 0, "duration": 78}, {"note": 65, "velocity": 75, "duration": 42}, {"note": 0, "velocity": 0, "duration": 78}, {"note": 65, "velocity": 74, "duration": 47}, {"note": 0, "velocity": 0, "duration": 73}, {"note": 66, "velocity": 85, "duration": 70}, {"note": 68, "velocity": 95, "duration": 101}, {"note": 0, "velocity": 0, "duration": 379}, {"note": 63, "velocity": 95, "duration": 46}, {"note": 0, "velocity": 0, "duration": 74}, {"note": 63, "velocity": 86, "duration": 46}, {"note": 0, "velocity": 0, "duration": 74}, {"note": 63, "velocity": 83, "duration": 62}, {"note": 65, "velocity": 89, "duration": 63}, {"note": 66, "velocity": 97, "duration": 103}, {"note": 0, "velocity": 0, "duration": 377}, {"note": 61, "velocity": 77, "duration": 50}, {"note": 0, "velocity": 0, "duration": 70}, {"note": 61, "velocity": 78, "duration": 46}, {"note": 0, "velocity": 0, "duration": 74}, {"note": 61, "velocity": 85, "duration": 56}, {"note": 0, "velocity": 0, "duration": 64}, {"note": 63, "velocity": 95, "duration": 62}, {"note": 65, "velocity": 96, "duration": 110}, {"note": 0, "velocity": 0, "duration": 130}, {"note": 63, "velocity": 97, "duration": 209}, {"note": 65, "velocity": 78, "duration": 190}, {"note": 63, "velocity": 92, "duration": 161}, {"note": 0, "velocity": 0, "duration": 79}, {"note": 65, "velocity": 83, "duration": 85}, {"note": 58, "velocity": 88, "duration": 321}, {"note": 0, "velocity": 0, "duration": 639}, {"note": 56, "velocity": 85, "duration": 51}, {"note": 0, "velocity": 0, "duration": 69}, {"note": 56, "velocity": 82, "duration": 155}, {"note": 0, "velocity": 0, "duration": 85}, {"note": 58, "velocity": 93, "duration": 56}, {"note": 0, "velocity": 0, "duration": 64}, {"note": 61, "velocity": 95, "duration": 140}, {"note": 0, "velocity": 0, "duration": 100}, {"note": 63, "velocity": 99, "duration": 289}, {"note": 61, "velocity": 100, "duration": 243}, {"note": 0, "velocity": 0, "duration": 117}, {"note": 60, "velocity": 90, "duration": 52}, {"note": 0, "velocity": 0, "duration": 68}, {"note": 61, "velocity": 76, "duration": 124}, {"note": 0, "velocity": 0, "duration": 236}, {"note": 60, "velocity": 79, "duration": 64}, {"note": 61, "velocity": 82, "duration": 122}, {"note": 0, "velocity": 0, "duration": 238}, {"note": 60, "velocity": 93, "duration": 55}, {"note": 0, "velocity": 0, "duration": 65}, {"note": 61, "velocity": 99, "duration": 128}, {"note": 0, "velocity": 0, "duration": 232}, {"note": 56, "velocity": 86, "duration": 51}, {"note": 0, "velocity": 0, "duration": 69}, {"note": 56, "velocity": 86, "duration": 164}, {"note": 0, "velocity": 0, "duration": 76}, {"note": 63, "velocity": 100, "duration": 53}, {"note": 0, "velocity": 0, "duration": 67}, {"note": 63, "velocity": 90, "duration": 70}, {"note": 61, "velocity": 78, "duration": 51}, {"note": 0, "velocity": 0, "duration": 69}, {"note": 63, "velocity": 97, "duration": 72}, {"note": 65, "velocity": 99, "duration": 62}, {"note": 0, "velocity": 0, "duration": 178}, {"note": 63, "velocity": 86, "duration": 249}, {"note": 65, "velocity": 88, "duration": 268}, {"note": 0, "velocity": 0, "duration": 332}, {"note": 61, "velocity": 99, "duration": 254}, {"note": 0, "velocity": 0, "duration": 226}, {"note": 60, "velocity": 90, "duration": 53}, {"note": 0, "velocity": 0, "duration": 67}, {"note": 61, "velocity": 92, "duration": 211}, {"note": 0, "velocity": 0, "duration": 149}, {"note": 60, "velocity": 86, "duration": 57}, {"note": 0, "velocity": 0, "duration": 63}, {"note": 61, "velocity": 100, "duration": 166}, {"note": 0, "velocity": 0, "duration": 194}, {"note": 60, "velocity": 81, "duration": 50}, {"note": 0, "velocity": 0, "duration": 70}, {"note": 61, "velocity": 89, "duration": 191}, {"note": 63, "velocity": 102, "duration": 194}, {"note": 63, "velocity": 95, "duration": 923}, {"note": 0, "velocity": 0, "duration": 1357}, {"note": 65, "velocity": 97, "duration": 64}, {"note": 63, "velocity": 56, "duration": 54}, {"note": 0, "velocity": 0, "duration": 66}, {"note": 63, "velocity": 78, "duration": 94}, {"note": 61, "velocity": 64, "duration": 67}, {"note": 63, "velocity": 90, "duration": 54}, {"note": 0, "velocity": 0, "duration": 66}, {"note": 65, "velocity": 102, "duration": 166}, {"note": 0, "velocity": 0, "duration": 74}, {"note": 60, "velocity": 89, "duration": 50}, {"note": 0, "velocity": 0, "duration": 70}, {"note": 60, "velocity": 83, "duration": 49}, {"note": 0, "velocity": 0, "duration": 71}, {"note": 60, "velocity": 90, "duration": 40}, {"note": 0, "velocity": 0, "duration": 80}, {"note": 60, "velocity": 90, "duration": 48}, {"note": 0, "velocity": 0, "duration": 72}, {"note": 63, "velocity": 93, "duration": 85}, {"note": 61, "velocity": 97, "duration": 43}, {"note": 0, "velocity": 0, "duration": 77}, {"note": 61, "velocity": 100, "duration": 303}, {"note": 60, "velocity": 88, "duration": 162}, {"note": 0, "velocity": 0, "duration": 78}, {"note": 58, "velocity": 83, "duration": 459}, {"note": 0, "velocity": 0, "duration": 1341}, {"note": 65, "velocity": 82, "duration": 73}, {"note": 63, "velocity": 86, "duration": 53}, {"note": 0, "velocity": 0, "duration": 67}, {"note": 63, "velocity": 89, "duration": 68}, {"note": 61, "velocity": 75, "duration": 62}, {"note": 63, "velocity": 93, "duration": 59}, {"note": 0, "velocity": 0, "duration": 61}, {"note": 65, "velocity": 95, "duration": 177}, {"note": 0, "velocity": 0, "duration": 63}, {"note": 63, "velocity": 97, "duration": 40}, {"note": 0, "velocity": 0, "duration": 80}, {"note": 63, "velocity": 95, "duration": 44}, {"note": 0, "velocity": 0, "duration": 76}, {"note": 61, "velocity": 85, "duration": 72}, {"note": 63, "velocity": 90, "duration": 49}, {"note": 0, "velocity": 0, "duration": 71}, {"note": 61, "velocity": 85, "duration": 58}, {"note": 0, "velocity": 0, "duration": 62}, {"note": 63, "velocity": 93, "duration": 49}, {"note": 0, "velocity": 0, "duration": 71}, {"note": 68, "velocity": 107, "duration": 221}, {"note": 63, "velocity": 95, "duration": 78}, {"note": 65, "velocity": 97, "duration": 366}, {"note": 0, "velocity": 0, "duration": 1194}, {"note": 56, "velocity": 89, "duration": 43}, {"note": 0, "velocity": 0, "duration": 77}, {"note": 58, "velocity": 90, "duration": 56}, {"note": 0, "velocity": 0, "duration": 64}, {"note": 56, "velocity": 89, "duration": 50}, {"note": 0, "velocity": 0, "duration": 70}, {"note": 58, "velocity": 93, "duration": 55}, {"note": 0, "velocity": 0, "duration": 65}, {"note": 56, "velocity": 92, "duration": 50}, {"note": 0, "velocity": 0, "duration": 70}, {"note": 58, "velocity": 107, "duration": 87}, {"note": 54, "velocity": 75, "duration": 92}, {"note": 58, "velocity": 99, "duration": 85}, {"note": 65, "velocity": 95, "duration": 193}, {"note": 63, "velocity": 88, "duration": 46}, {"note": 0, "velocity": 0, "duration": 74}, {"note": 63, "velocity": 95, "duration": 155}, {"note": 0, "velocity": 0, "duration": 445}, {"note": 60, "velocity": 90, "duration": 48}, {"note": 0, "velocity": 0, "duration": 72}, {"note": 60, "velocity": 95, "duration": 63}, {"note": 58, "velocity": 89, "duration": 54}, {"note": 0, "velocity": 0, "duration": 66}, {"note": 60, "velocity": 100, "duration": 45}, {"note": 0, "velocity": 0, "duration": 75}, {"note": 58, "velocity": 93, "duration": 57}, {"note": 0, "velocity": 0, "duration": 63}, {"note": 60, "velocity": 127, "duration": 69}, {"note": 56, "velocity": 92, "duration": 61}, {"note": 60, "velocity": 78, "duration": 48}, {"note": 0, "velocity": 0, "duration": 72}, {"note": 63, "velocity": 102, "duration": 191}, {"note": 61, "velocity": 88, "duration": 50}, {"note": 0, "velocity": 0, "duration": 70}, {"note": 61, "velocity": 99, "duration": 215}, {"note": 0, "velocity": 0, "duration": 385}, {"note": 56, "velocity": 93, "duration": 51}, {"note": 0, "velocity": 0, "duration": 69}, {"note": 58, "velocity": 96, "duration": 49}, {"note": 0, "velocity": 0, "duration": 71}, {"note": 60, "velocity": 92, "duration": 51}, {"note": 0, "velocity": 0, "duration": 69}, {"note": 61, "velocity": 117, "duration": 55}, {"note": 0, "velocity": 0, "duration": 65}, {"note": 58, "velocity": 83, "duration": 67}, {"note": 61, "velocity": 99, "duration": 64}, {"note": 65, "velocity": 90, "duration": 135}, {"note": 0, "velocity": 0, "duration": 105}, {"note": 63, "velocity": 100, "duration": 437}, {"note": 60, "velocity": 85, "duration": 42}, {"note": 0, "velocity": 0, "duration": 78}, {"note": 60, "velocity": 82, "duration": 45}, {"note": 0, "velocity": 0, "duration": 75}, {"note": 60, "velocity": 90, "duration": 59}, {"note": 0, "velocity": 0, "duration": 61}, {"note": 61, "velocity": 99, "duration": 55}, {"note": 0, "velocity": 0, "duration": 65}, {"note": 63, "velocity": 100, "duration": 254}, {"note": 0, "velocity": 0, "duration": 106}, {"note": 61, "velocity": 90, "duration": 52}, {"note": 0, "velocity": 0, "duration": 68}, {"note": 61, "velocity": 96, "duration": 274}, {"note": 0, "velocity": 0, "duration": 1526}, {"note": 65, "velocity": 122, "duration": 60}, {"note": 63, "velocity": 85, "duration": 35}, {"note": 0, "velocity": 0, "duration": 85}, {"note": 63, "velocity": 112, "duration": 49}, {"note": 0, "velocity": 0, "duration": 71}, {"note": 61, "velocity": 95, "duration": 51}, {"note": 0, "velocity": 0, "duration": 69}, {"note": 63, "velocity": 100, "duration": 51}, {"note": 0, "velocity": 0, "duration": 69}, {"note": 65, "velocity": 117, "duration": 131}, {"note": 0, "velocity": 0, "duration": 109}, {"note": 60, "velocity": 90, "duration": 36}, {"note": 0, "velocity": 0, "duration": 84}, {"note": 60, "velocity": 86, "duration": 33}, {"note": 0, "velocity": 0, "duration": 87}, {"note": 60, "velocity": 93, "duration": 39}, {"note": 0, "velocity": 0, "duration": 81}, {"note": 60, "velocity": 99, "duration": 42}, {"note": 0, "velocity": 0, "duration": 78}, {"note": 63, "velocity": 122, "duration": 92}, {"note": 61, "velocity": 85, "duration": 43}, {"note": 0, "velocity": 0, "duration": 77}, {"note": 61, "velocity": 112, "duration": 244}, {"note": 53, "velocity": 93, "duration": 106}, {"note": 58, "velocity": 100, "duration": 453}, {"note": 0, "velocity": 0, "duration": 1467}, {"note": 65, "velocity": 102, "duration": 80}, {"note": 63, "velocity": 92, "duration": 43}, {"note": 0, "velocity": 0, "duration": 77}, {"note": 63, "velocity": 107, "duration": 65}, {"note": 61, "velocity": 85, "duration": 67}, {"note": 63, "velocity": 107, "duration": 52}, {"note": 0, "velocity": 0, "duration": 68}, {"note": 65, "velocity": 102, "duration": 130}, {"note": 0, "velocity": 0, "duration": 110}, {"note": 63, "velocity": 100, "duration": 38}, {"note": 0, "velocity": 0, "duration": 82}, {"note": 63, "velocity": 100, "duration": 69}, {"note": 61, "velocity": 90, "duration": 55}, {"note": 0, "velocity": 0, "duration": 65}, {"note": 63, "velocity": 112, "duration": 53}, {"note": 0, "velocity": 0, "duration": 67}, {"note": 61, "velocity": 96, "duration": 64}, {"note": 63, "velocity": 102, "duration": 46}, {"note": 0, "velocity": 0, "duration": 74}, {"note": 68, "velocity": 102, "duration": 226}, {"note": 63, "velocity": 93, "duration": 95}, {"note": 65, "velocity": 127, "duration": 511}, {"note": 0, "velocity": 0, "duration": 1049}, {"note": 56, "velocity": 89, "duration": 63}, {"note": 58, "velocity": 99, "duration": 51}, {"note": 0, "velocity": 0, "duration": 69}, {"note": 56, "velocity": 86, "duration": 53}, {"note": 0, "velocity": 0, "duration": 67}, {"note": 58, "velocity": 93, "duration": 46}, {"note": 0, "velocity": 0, "duration": 74}, {"note": 56, "velocity": 88, "duration": 51}, {"note": 0, "velocity": 0, "duration": 69}, {"note": 58, "velocity": 95, "duration": 41}, {"note": 0, "velocity": 0, "duration": 79}, {"note": 54, "velocity": 97, "duration": 76}, {"note": 58, "velocity": 90, "duration": 67}, {"note": 65, "velocity": 100, "duration": 180}, {"note": 66, "velocity": 102, "duration": 80}, {"note": 63, "velocity": 97, "duration": 254}, {"note": 0, "velocity": 0, "duration": 346}, {"note": 60, "velocity": 78, "duration": 55}, {"note": 0, "velocity": 0, "duration": 65}, {"note": 60, "velocity": 100, "duration": 70}, {"note": 58, "velocity": 85, "duration": 52}, {"note": 0, "velocity": 0, "duration": 68}, {"note": 60, "velocity": 107, "duration": 55}, {"note": 0, "velocity": 0, "duration": 65}, {"note": 58, "velocity": 93, "duration": 62}, {"note": 60, "velocity": 122, "duration": 65}, {"note": 56, "velocity": 83, "duration": 88}, {"note": 60, "velocity": 99, "duration": 58}, {"note": 0, "velocity": 0, "duration": 62}, {"note": 63, "velocity": 100, "duration": 192}, {"note": 61, "velocity": 102, "duration": 60}, {"note": 61, "velocity": 117, "duration": 484}, {"note": 56, "velocity": 92, "duration": 50}, {"note": 0, "velocity": 0, "duration": 70}, {"note": 56, "velocity": 82, "duration": 49}, {"note": 0, "velocity": 0, "duration": 71}, {"note": 58, "velocity": 97, "duration": 51}, {"note": 0, "velocity": 0, "duration": 69}, {"note": 56, "velocity": 83, "duration": 64}, {"note": 58, "velocity": 97, "duration": 61}, {"note": 54, "velocity": 88, "duration": 95}, {"note": 58, "velocity": 107, "duration": 68}, {"note": 65, "velocity": 92, "duration": 137}, {"note": 0, "velocity": 0, "duration": 103}, {"note": 63, "velocity": 117, "duration": 322}, {"note": 0, "velocity": 0, "duration": 278}, {"note": 60, "velocity": 100, "duration": 46}, {"note": 0, "velocity": 0, "duration": 74}, {"note": 60, "velocity": 95, "duration": 58}, {"note": 0, "velocity": 0, "duration": 62}, {"note": 61, "velocity": 107, "duration": 57}, {"note": 0, "velocity": 0, "duration": 63}, {"note": 63, "velocity": 107, "duration": 181}, {"note": 61, "velocity": 107, "duration": 83}, {"note": 61, "velocity": 107, "duration": 411}, {"note": 0, "velocity": 0, "duration": 1509}, {"note": 67, "velocity": 127, "duration": 117}, {"note": 65, "velocity": 82, "duration": 53}, {"note": 0, "velocity": 0, "duration": 67}, {"note": 65, "velocity": 107, "duration": 66}, {"note": 63, "velocity": 95, "duration": 71}, {"note": 65, "velocity": 112, "duration": 51}, {"note": 0, "velocity": 0, "duration": 69}, {"note": 67, "velocity": 122, "duration": 145}, {"note": 0, "velocity": 0, "duration": 95}, {"note": 65, "velocity": 112, "duration": 39}, {"note": 0, "velocity": 0, "duration": 81}, {"note": 65, "velocity": 100, "duration": 47}, {"note": 0, "velocity": 0, "duration": 73}, {"note": 63, "velocity": 97, "duration": 54}, {"note": 0, "velocity": 0, "duration": 66}, {"note": 65, "velocity": 112, "duration": 42}, {"note": 0, "velocity": 0, "duration": 78}, {"note": 63, "velocity": 100, "duration": 50}, {"note": 0, "velocity": 0, "duration": 70}, {"note": 65, "velocity": 99, "duration": 35}, {"note": 0, "velocity": 0, "duration": 85}, {"note": 67, "velocity": 127, "duration": 145}, {"note": 0, "velocity": 0, "duration": 95}, {"note": 60, "velocity": 97, "duration": 52}, {"note": 0, "velocity": 0, "duration": 68}, {"note": 63, "velocity": 102, "duration": 512}, {"note": 0, "velocity": 0, "duration": 1408}, {"note": 67, "velocity": 127, "duration": 83}, {"note": 65, "velocity": 96, "duration": 49}, {"note": 0, "velocity": 0, "duration": 71}, {"note": 65, "velocity": 99, "duration": 74}, {"note": 63, "velocity": 89, "duration": 77}, {"note": 65, "velocity": 92, "duration": 44}, {"note": 0, "velocity": 0, "duration": 76}, {"note": 70, "velocity": 107, "duration": 154}, {"note": 0, "velocity": 0, "duration": 86}, {"note": 67, "velocity": 117, "duration": 48}, {"note": 0, "velocity": 0, "duration": 72}, {"note": 67, "velocity": 102, "duration": 74}, {"note": 65, "velocity": 100, "duration": 75}, {"note": 65, "velocity": 96, "duration": 58}, {"note": 0, "velocity": 0, "duration": 62}, {"note": 63, "velocity": 95, "duration": 57}, {"note": 0, "velocity": 0, "duration": 63}, {"note": 65, "velocity": 97, "duration": 58}, {"note": 0, "velocity": 0, "duration": 62}, {"note": 67, "velocity": 112, "duration": 282}, {"note": 0, "velocity": 0, "duration": 78}, {"note": 60, "velocity": 99, "duration": 123}, {"note": 65, "velocity": 93, "duration": 131}, {"note": 63, "velocity": 102, "duration": 568}, {"note": 0, "velocity": 0, "duration": 752}, {"note": 58, "velocity": 93, "duration": 123}, {"note": 60, "velocity": 97, "duration": 102}, {"note": 67, "velocity": 102, "duration": 60}, {"note": 67, "velocity": 107, "duration": 54}, {"note": 0, "velocity": 0, "duration": 66}, {"note": 67, "velocity": 112, "duration": 57}, {"note": 0, "velocity": 0, "duration": 63}, {"note": 67, "velocity": 122, "duration": 76}, {"note": 67, "velocity": 102, "duration": 69}, {"note": 68, "velocity": 90, "duration": 65}, {"note": 67, "velocity": 122, "duration": 275}, {"note": 65, "velocity": 92, "duration": 51}, {"note": 0, "velocity": 0, "duration": 69}, {"note": 65, "velocity": 112, "duration": 324}, {"note": 0, "velocity": 0, "duration": 276}, {"note": 62, "velocity": 112, "duration": 48}, {"note": 0, "velocity": 0, "duration": 72}, {"note": 62, "velocity": 117, "duration": 97}, {"note": 60, "velocity": 92, "duration": 55}, {"note": 0, "velocity": 0, "duration": 65}, {"note": 62, "velocity": 112, "duration": 88}, {"note": 60, "velocity": 90, "duration": 58}, {"note": 0, "velocity": 0, "duration": 62}, {"note": 62, "velocity": 127, "duration": 65}, {"note": 65, "velocity": 112, "duration": 41}, {"note": 0, "velocity": 0, "duration": 79}, {"note": 65, "velocity": 97, "duration": 34}, {"note": 0, "velocity": 0, "duration": 86}, {"note": 65, "velocity": 112, "duration": 183}, {"note": 63, "velocity": 89, "duration": 47}, {"note": 0, "velocity": 0, "duration": 73}, {"note": 63, "velocity": 97, "duration": 280}, {"note": 0, "velocity": 0, "duration": 320}, {"note": 58, "velocity": 99, "duration": 50}, {"note": 0, "velocity": 0, "duration": 70}, {"note": 60, "velocity": 97, "duration": 60}, {"note": 58, "velocity": 95, "duration": 71}, {"note": 60, "velocity": 89, "duration": 68}, {"note": 56, "velocity": 95, "duration": 64}, {"note": 60, "velocity": 100, "duration": 80}, {"note": 67, "velocity": 112, "duration": 136}, {"note": 0, "velocity": 0, "duration": 104}, {"note": 65, "velocity": 107, "duration": 386}, {"note": 0, "velocity": 0, "duration": 214}, {"note": 62, "velocity": 117, "duration": 41}, {"note": 0, "velocity": 0, "duration": 79}, {"note": 62, "velocity": 97, "duration": 52}, {"note": 0, "velocity": 0, "duration": 68}, {"note": 63, "velocity": 93, "duration": 60}, {"note": 65, "velocity": 117, "duration": 251}, {"note": 63, "velocity": 99, "duration": 43}, {"note": 0, "velocity": 0, "duration": 77}, {"note": 63, "velocity": 102, "duration": 391}]]