[[{"note": 65, "velocity": 95, "duration": 222}, {"note": 65, "velocity": 88, "duration": 353}, {"note": 0, "velocity": 0, "duration": 127}, {"note": 67, "velocity": 102, "duration": 151}, {"note": 69, "velocity": 100, "duration": 106}, {"note": 72, "velocity": 122, "duration": 272}, {"note": 72, "velocity": 112, "duration": 32}, {"note": 0, "velocity": 0, "duration": 688}, {"note": 74, "velocity": 122, "duration": 372}, {"note": 0, "velocity": 0, "duration": 108}, {"note": 74, "velocity": 122, "duration": 169}, {"note": 0, "velocity": 0, "duration": 71}, {"note": 72, "velocity": 117, "duration": 190}, {"note": 70, "velocity": 122, "duration": 196}, {"note": 72, "velocity": 107, "duration": 124}, {"note": 74, "velocity": 97, "duration": 112}, {"note": 72, "velocity": 99, "duration": 117}, {"note": 70, "velocity": 112, "duration": 108}, {"note": 67, "velocity": 100, "duration": 238}, {"note": 65, "velocity": 112, "duration": 512}, {"note": 0, "velocity": 0, "duration": 448}, {"note": 64, "velocity": 95, "duration": 121}, {"note": 65, "velocity": 85, "duration": 103}, {"note": 67, "velocity": 99, "duration": 337}, {"note": 0, "velocity": 0, "duration": 143}, {"note": 69, "velocity": 117, "duration": 162}, {"note": 0, "velocity": 0, "duration": 78}, {"note": 67, "velocity": 117, "duration": 166}, {"note": 0, "velocity": 0, "duration": 74}, {"note": 65, "velocity": 117, "duration": 485}, {"note": 0, "velocity": 0, "duration": 235}, {"note": 64, "velocity": 100, "duration": 341}, {"note": 65, "velocity": 73, "duration": 105}, {"note": 67, "velocity": 95, "duration": 83}, {"note": 69, "velocity": 95, "duration": 105}, {"note": 65, "velocity": 81, "duration": 186}, {"note": 60, "velocity": 102, "duration": 394}, {"note": 0, "velocity": 0, "duration": 566}, {"note": 65, "velocity": 102, "duration": 164}, {"note": 0, "velocity": 0, "duration": 76}, {"note": 65, "velocity": 99, "duration": 321}, {"note": 0, "velocity": 0, "duration": 159}, {"note": 67, "velocity": 112, "duration": 123}, {"note": 69, "velocity": 97, "duration": 135}, {"note": 72, "velocity": 107, "duration": 146}, {"note": 0, "velocity": 0, "duration": 94}, {"note": 72, "velocity": 102, "duration": 447}, {"note": 0, "velocity": 0, "duration": 273}, {"note": 74, "velocity": 127, "duration": 295}, {"note": 0, "velocity": 0, "duration": 185}, {"note": 74, "velocity": 127, "duration": 239}, {"note": 72, "velocity": 122, "duration": 171}, {"note": 0, "velocity": 0, "duration": 69}, {"note": 70, "velocity": 112, "duration": 192}, {"note": 72, "velocity": 112, "duration": 124}, {"note": 74, "velocity": 97, "duration": 112}, {"note": 72, "velocity": 127, "duration": 116}, {"note": 70, "velocity": 112, "duration": 96}, {"note": 69, "velocity": 99, "duration": 193}, {"note": 67, "velocity": 99, "duration": 443}, {"note": 0, "velocity": 0, "duration": 517}, {"note": 72, "velocity": 117, "duration": 175}, {"note": 0, "velocity": 0, "duration": 65}, {"note": 65, "velocity": 99, "duration": 251}, {"note": 0, "velocity": 0, "duration": 229}, {"note": 67, "velocity": 95, "duration": 134}, {"note": 69, "velocity": 90, "duration": 88}, {"note": 69, "velocity": 112, "duration": 154}, {"note": 0, "velocity": 0, "duration": 86}, {"note": 62, "velocity": 117, "duration": 623}, {"note": 0, "velocity": 0, "duration": 97}, {"note": 64, "velocity": 97, "duration": 238}, {"note": 0, "velocity": 0, "duration": 122}, {"note": 62, "velocity": 92, "duration": 93}, {"note": 64, "velocity": 92, "duration": 120}, {"note": 62, "velocity": 77, "duration": 113}, {"note": 60, "velocity": 85, "duration": 222}, {"note": 65, "velocity": 96, "duration": 991}, {"note": 0, "velocity": 0, "duration": 454}, {"note": 70, "velocity": 117, "duration": 152}, {"note": 72, "velocity": 97, "duration": 178}, {"note": 74, "velocity": 93, "duration": 137}, {"note": 72, "velocity": 107, "duration": 951}, {"note": 0, "velocity": 0, "duration": 502}, {"note": 70, "velocity": 100, "duration": 140}, {"note": 72, "velocity": 96, "duration": 161}, {"note": 70, "velocity": 99, "duration": 122}, {"note": 72, "velocity": 97, "duration": 489}, {"note": 0, "velocity": 0, "duration": 937}, {"note": 70, "velocity": 117, "duration": 186}, {"note": 72, "velocity": 99, "duration": 175}, {"note": 74, "velocity": 107, "duration": 144}, {"note": 65, "velocity": 92, "duration": 805}, {"note": 0, "velocity": 0, "duration": 644}, {"note": 64, "velocity": 100, "duration": 186}, {"note": 65, "velocity": 88, "duration": 159}, {"note": 67, "velocity": 86, "duration": 160}, {"note": 60, "velocity": 100, "duration": 1006}, {"note": 0, "velocity": 0, "duration": 458}, {"note": 70, "velocity": 117, "duration": 167}, {"note": 72, "velocity": 95, "duration": 173}, {"note": 74, "velocity": 97, "duration": 145}, {"note": 72, "velocity": 122, "duration": 1143}, {"note": 0, "velocity": 0, "duration": 330}, {"note": 70, "velocity": 107, "duration": 172}, {"note": 72, "velocity": 85, "duration": 175}, {"note": 70, "velocity": 82, "duration": 169}, {"note": 72, "velocity": 95, "duration": 864}, {"note": 0, "velocity": 0, "duration": 580}, {"note": 70, "velocity": 112, "duration": 191}, {"note": 72, "velocity": 92, "duration": 188}, {"note": 74, "velocity": 107, "duration": 184}, {"note": 65, "velocity": 92, "duration": 539}, {"note": 0, "velocity": 0, "duration": 879}, {"note": 64, "velocity": 97, "duration": 180}, {"note": 65, "velocity": 89, "duration": 150}, {"note": 67, "velocity": 93, "duration": 175}, {"note": 65, "velocity": 95, "duration": 1023}, {"note": 0, "velocity": 0, "duration": 8559}, {"note": 65, "velocity": 95, "duration": 222}, {"note": 65, "velocity": 88, "duration": 353}, {"note": 0, "velocity": 0, "duration": 127}, {"note": 67, "velocity": 102, "duration": 151}, {"note": 69, "velocity": 100, "duration": 106}, {"note": 72, "velocity": 122, "duration": 272}, {"note": 72, "velocity": 112, "duration": 32}, {"note": 0, "velocity": 0, "duration": 688}, {"note": 74, "velocity": 122, "duration": 372}, {"note": 0, "velocity": 0, "duration": 108}, {"note": 74, "velocity": 122, "duration": 169}, {"note": 0, "velocity": 0, "duration": 71}, {"note": 72, "velocity": 117, "duration": 190}, {"note": 70, "velocity": 122, "duration": 196}, {"note": 72, "velocity": 107, "duration": 124}, {"note": 74, "velocity": 97, "duration": 112}, {"note": 72, "velocity": 99, "duration": 117}, {"note": 70, "velocity": 112, "duration": 108}, {"note": 67, "velocity": 100, "duration": 238}, {"note": 65, "velocity": 112, "duration": 512}, {"note": 0, "velocity": 0, "duration": 448}, {"note": 64, "velocity": 95, "duration": 121}, {"note": 65, "velocity": 85, "duration": 103}, {"note": 67, "velocity": 99, "duration": 337}, {"note": 0, "velocity": 0, "duration": 143}, {"note": 69, "velocity": 117, "duration": 162}, {"note": 0, "velocity": 0, "duration": 78}, {"note": 67, "velocity": 117, "duration": 166}, {"note": 0, "velocity": 0, "duration": 74}, {"note": 65, "velocity": 117, "duration": 485}, {"note": 0, "velocity": 0, "duration": 235}, {"note": 64, "velocity": 100, "duration": 341}, {"note": 65, "velocity": 73, "duration": 105}, {"note": 67, "velocity": 95, "duration": 83}, {"note": 69, "velocity": 95, "duration": 105}, {"note": 65, "velocity": 81, "duration": 186}, {"note": 60, "velocity": 102, "duration": 394}, {"note": 0, "velocity": 0, "duration": 566}, {"note": 65, "velocity": 102, "duration": 164}, {"note": 0, "velocity": 0, "duration": 76}, {"note": 65, "velocity": 99, "duration": 321}, {"note": 0, "velocity": 0, "duration": 159}, {"note": 67, "velocity": 112, "duration": 123}, {"note": 69, "velocity": 97, "duration": 135}, {"note": 72, "velocity": 107, "duration": 146}, {"note": 0, "velocity": 0, "duration": 94}, {"note": 72, "velocity": 102, "duration": 447}, {"note": 0, "velocity": 0, "duration": 273}, {"note": 74, "velocity": 127, "duration": 295}, {"note": 0, "velocity": 0, "duration": 185}, {"note": 74, "velocity": 127, "duration": 239}, {"note": 72, "velocity": 122, "duration": 171}, {"note": 0, "velocity": 0, "duration": 69}, {"note": 70, "velocity": 112, "duration": 192}, {"note": 72, "velocity": 112, "duration": 124}, {"note": 74, "velocity": 97, "duration": 112}, {"note": 72, "velocity": 127, "duration": 116}, {"note": 70, "velocity": 112, "duration": 96}, {"note": 69, "velocity": 99, "duration": 193}, {"note": 67, "velocity": 99, "duration": 443}, {"note": 0, "velocity": 0, "duration": 517}, {"note": 72, "velocity": 117, "duration": 175}, {"note": 0, "velocity": 0, "duration": 65}, {"note": 65, "velocity": 99, "duration": 251}, {"note": 0, "velocity": 0, "duration": 229}, {"note": 67, "velocity": 95, "duration": 134}, {"note": 69, "velocity": 90, "duration": 88}, {"note": 69, "velocity": 112, "duration": 154}, {"note": 0, "velocity": 0, "duration": 86}, {"note": 62, "velocity": 117, "duration": 623}, {"note": 0, "velocity": 0, "duration": 97}, {"note": 64, "velocity": 97, "duration": 238}, {"note": 0, "velocity": 0, "duration": 122}, {"note": 62, "velocity": 92, "duration": 93}, {"note": 64, "velocity": 92, "duration": 120}, {"note": 62, "velocity": 77, "duration": 113}, {"note": 60, "velocity": 85, "duration": 222}, {"note": 65, "velocity": 96, "duration": 991}, {"note": 0, "velocity": 0, "duration": 454}, {"note": 70, "velocity": 117, "duration": 152}, {"note": 72, "velocity": 97, "duration": 178}, {"note": 74, "velocity": 93, "duration": 137}, {"note": 72, "velocity": 107, "duration": 951}, {"note": 0, "velocity": 0, "duration": 502}, {"note": 70, "velocity": 100, "duration": 140}, {"note": 72, "velocity": 96, "duration": 161}, {"note": 70, "velocity": 99, "duration": 122}, {"note": 72, "velocity": 97, "duration": 489}, {"note": 0, "velocity": 0, "duration": 937}, {"note": 70, "velocity": 117, "duration": 186}, {"note": 72, "velocity": 99, "duration": 175}, {"note": 74, "velocity": 107, "duration": 144}, {"note": 65, "velocity": 92, "duration": 805}, {"note": 0, "velocity": 0, "duration": 644}, {"note": 64, "velocity": 100, "duration": 186}, {"note": 65, "velocity": 88, "duration": 159}, {"note": 67, "velocity": 86, "duration": 160}, {"note": 60, "velocity": 100, "duration": 1006}, {"note": 0, "velocity": 0, "duration": 458}, {"note": 70, "velocity": 117, "duration": 167}, {"note": 72, "velocity": 95, "duration": 173}, {"note": 74, "velocity": 97, "duration": 145}, {"note": 72, "velocity": 122, "duration": 1143}, {"note": 0, "velocity": 0, "duration": 330}, {"note": 70, "velocity": 107, "duration": 172}, {"note": 72, "velocity": 85, "duration": 175}, {"note": 70, "velocity": 82, "duration": 169}, {"note": 72, "velocity": 95, "duration": 864}, {"note": 0, "velocity": 0, "duration": 580}, {"note": 70, "velocity": 112, "duration": 191}, {"note": 72, "velocity": 92, "duration": 188}, {"note": 74, "velocity": 107, "duration": 184}, {"note": 65, "velocity": 92, "duration": 539}, {"note": 0, "velocity": 0, "duration": 879}, {"note": 64, "velocity": 97, "duration": 180}, {"note": 65, "velocity": 89, "duration": 150}, {"note": 67, "velocity": 93, "duration": 175}, {"note": 65, "velocity": 95, "duration": 1023}]]