[[{"note": 62, "velocity": 99, "duration": 127}, {"note": 0, "velocity": 0, "duration": 113}, {"note": 62, "velocity": 97, "duration": 143}, {"note": 0, "velocity": 0, "duration": 97}, {"note": 61, "velocity": 95, "duration": 199}, {"note": 62, "velocity": 92, "duration": 230}, {"note": 0, "velocity": 0, "duration": 130}, {"note": 61, "velocity": 102, "duration": 163}, {"note": 0, "velocity": 0, "duration": 77}, {"note": 59, "velocity": 90, "duration": 142}, {"note": 0, "velocity": 0, "duration": 98}, {"note": 57, "velocity": 92, "duration": 131}, {"note": 0, "velocity": 0, "duration": 109}, {"note": 57, "velocity": 93, "duration": 169}, {"note": 0, "velocity": 0, "duration": 71}, {"note": 57, "velocity": 96, "duration": 194}, {"note": 59, "velocity": 93, "duration": 177}, {"note": 0, "velocity": 0, "duration": 63}, {"note": 61, "velocity": 112, "duration": 691}, {"note": 0, "velocity": 0, "duration": 749}, {"note": 62, "velocity": 90, "duration": 152}, {"note": 0, "velocity": 0, "duration": 88}, {"note": 62, "velocity": 90, "duration": 112}, {"note": 0, "velocity": 0, "duration": 128}, {"note": 61, "velocity": 89, "duration": 65}, {"note": 62, "velocity": 90, "duration": 225}, {"note": 0, "velocity": 0, "duration": 135}, {"note": 61, "velocity": 112, "duration": 159}, {"note": 0, "velocity": 0, "duration": 81}, {"note": 59, "velocity": 107, "duration": 132}, {"note": 0, "velocity": 0, "duration": 108}, {"note": 57, "velocity": 89, "duration": 69}, {"note": 61, "velocity": 122, "duration": 991}, {"note": 0, "velocity": 0, "duration": 1049}, {"note": 66, "velocity": 112, "duration": 560}, {"note": 0, "velocity": 0, "duration": 160}, {"note": 61, "velocity": 107, "duration": 173}, {"note": 0, "velocity": 0, "duration": 67}, {"note": 61, "velocity": 112, "duration": 210}, {"note": 57, "velocity": 100, "duration": 150}, {"note": 0, "velocity": 0, "duration": 90}, {"note": 57, "velocity": 90, "duration": 178}, {"note": 0, "velocity": 0, "duration": 62}, {"note": 52, "velocity": 97, "duration": 166}, {"note": 0, "velocity": 0, "duration": 74}, {"note": 64, "velocity": 99, "duration": 135}, {"note": 0, "velocity": 0, "duration": 105}, {"note": 64, "velocity": 100, "duration": 135}, {"note": 0, "velocity": 0, "duration": 105}, {"note": 64, "velocity": 99, "duration": 147}, {"note": 0, "velocity": 0, "duration": 93}, {"note": 62, "velocity": 96, "duration": 63}, {"note": 61, "velocity": 96, "duration": 571}, {"note": 0, "velocity": 0, "duration": 509}, {"note": 59, "velocity": 102, "duration": 153}, {"note": 0, "velocity": 0, "duration": 87}, {"note": 59, "velocity": 95, "duration": 71}, {"note": 0, "velocity": 0, "duration": 169}, {"note": 59, "velocity": 93, "duration": 99}, {"note": 0, "velocity": 0, "duration": 141}, {"note": 59, "velocity": 96, "duration": 98}, {"note": 0, "velocity": 0, "duration": 142}, {"note": 59, "velocity": 97, "duration": 120}, {"note": 0, "velocity": 0, "duration": 120}, {"note": 57, "velocity": 97, "duration": 156}, {"note": 0, "velocity": 0, "duration": 84}, {"note": 61, "velocity": 127, "duration": 163}, {"note": 0, "velocity": 0, "duration": 77}, {"note": 59, "velocity": 90, "duration": 725}, {"note": 0, "velocity": 0, "duration": 1675}, {"note": 62, "velocity": 95, "duration": 116}, {"note": 0, "velocity": 0, "duration": 124}, {"note": 62, "velocity": 97, "duration": 104}, {"note": 0, "velocity": 0, "duration": 136}, {"note": 61, "velocity": 102, "duration": 81}, {"note": 62, "velocity": 96, "duration": 241}, {"note": 0, "velocity": 0, "duration": 119}, {"note": 61, "velocity": 112, "duration": 139}, {"note": 0, "velocity": 0, "duration": 101}, {"note": 59, "velocity": 107, "duration": 136}, {"note": 0, "velocity": 0, "duration": 104}, {"note": 57, "velocity": 93, "duration": 121}, {"note": 0, "velocity": 0, "duration": 119}, {"note": 57, "velocity": 107, "duration": 178}, {"note": 0, "velocity": 0, "duration": 62}, {"note": 57, "velocity": 107, "duration": 158}, {"note": 0, "velocity": 0, "duration": 82}, {"note": 59, "velocity": 97, "duration": 183}, {"note": 61, "velocity": 107, "duration": 972}, {"note": 0, "velocity": 0, "duration": 468}, {"note": 62, "velocity": 100, "duration": 157}, {"note": 0, "velocity": 0, "duration": 83}, {"note": 62, "velocity": 95, "duration": 121}, {"note": 0, "velocity": 0, "duration": 119}, {"note": 61, "velocity": 97, "duration": 60}, {"note": 62, "velocity": 99, "duration": 262}, {"note": 0, "velocity": 0, "duration": 98}, {"note": 61, "velocity": 112, "duration": 247}, {"note": 59, "velocity": 99, "duration": 238}, {"note": 57, "velocity": 100, "duration": 149}, {"note": 61, "velocity": 112, "duration": 1290}, {"note": 0, "velocity": 0, "duration": 750}, {"note": 66, "velocity": 107, "duration": 550}, {"note": 0, "velocity": 0, "duration": 170}, {"note": 61, "velocity": 112, "duration": 179}, {"note": 0, "velocity": 0, "duration": 61}, {"note": 61, "velocity": 112, "duration": 182}, {"note": 57, "velocity": 100, "duration": 154}, {"note": 0, "velocity": 0, "duration": 86}, {"note": 57, "velocity": 89, "duration": 171}, {"note": 0, "velocity": 0, "duration": 69}, {"note": 52, "velocity": 96, "duration": 162}, {"note": 0, "velocity": 0, "duration": 78}, {"note": 64, "velocity": 97, "duration": 302}, {"note": 64, "velocity": 99, "duration": 62}, {"note": 0, "velocity": 0, "duration": 178}, {"note": 64, "velocity": 112, "duration": 155}, {"note": 0, "velocity": 0, "duration": 85}, {"note": 62, "velocity": 96, "duration": 85}, {"note": 61, "velocity": 95, "duration": 345}, {"note": 0, "velocity": 0, "duration": 735}, {"note": 59, "velocity": 107, "duration": 133}, {"note": 0, "velocity": 0, "duration": 107}, {"note": 59, "velocity": 96, "duration": 102}, {"note": 0, "velocity": 0, "duration": 138}, {"note": 59, "velocity": 99, "duration": 94}, {"note": 0, "velocity": 0, "duration": 146}, {"note": 59, "velocity": 107, "duration": 116}, {"note": 0, "velocity": 0, "duration": 124}, {"note": 59, "velocity": 99, "duration": 142}, {"note": 0, "velocity": 0, "duration": 98}, {"note": 57, "velocity": 100, "duration": 145}, {"note": 0, "velocity": 0, "duration": 95}, {"note": 64, "velocity": 102, "duration": 193}, {"note": 64, "velocity": 112, "duration": 1073}, {"note": 0, "velocity": 0, "duration": 367}, {"note": 61, "velocity": 112, "duration": 155}, {"note": 0, "velocity": 0, "duration": 85}, {"note": 69, "velocity": 97, "duration": 159}, {"note": 0, "velocity": 0, "duration": 81}, {"note": 68, "velocity": 117, "duration": 167}, {"note": 0, "velocity": 0, "duration": 73}, {"note": 66, "velocity": 102, "duration": 188}, {"note": 0, "velocity": 0, "duration": 292}, {"note": 62, "velocity": 112, "duration": 169}, {"note": 0, "velocity": 0, "duration": 71}, {"note": 61, "velocity": 99, "duration": 57}, {"note": 0, "velocity": 0, "duration": 63}, {"note": 61, "velocity": 96, "duration": 162}, {"note": 0, "velocity": 0, "duration": 78}, {"note": 59, "velocity": 95, "duration": 131}, {"note": 0, "velocity": 0, "duration": 229}, {"note": 66, "velocity": 127, "duration": 140}, {"note": 0, "velocity": 0, "duration": 100}, {"note": 66, "velocity": 102, "duration": 67}, {"note": 68, "velocity": 112, "duration": 112}, {"note": 0, "velocity": 0, "duration": 128}, {"note": 64, "velocity": 96, "duration": 239}, {"note": 64, "velocity": 93, "duration": 54}, {"note": 0, "velocity": 0, "duration": 66}, {"note": 64, "velocity": 107, "duration": 88}, {"note": 0, "velocity": 0, "duration": 152}, {"note": 64, "velocity": 97, "duration": 54}, {"note": 0, "velocity": 0, "duration": 66}, {"note": 59, "velocity": 92, "duration": 149}, {"note": 0, "velocity": 0, "duration": 91}, {"note": 61, "velocity": 102, "duration": 294}, {"note": 0, "velocity": 0, "duration": 186}, {"note": 54, "velocity": 82, "duration": 50}, {"note": 0, "velocity": 0, "duration": 70}, {"note": 59, "velocity": 95, "duration": 69}, {"note": 61, "velocity": 112, "duration": 39}, {"note": 0, "velocity": 0, "duration": 81}, {"note": 62, "velocity": 102, "duration": 147}, {"note": 0, "velocity": 0, "duration": 93}, {"note": 62, "velocity": 107, "duration": 129}, {"note": 0, "velocity": 0, "duration": 111}, {"note": 62, "velocity": 100, "duration": 116}, {"note": 0, "velocity": 0, "duration": 124}, {"note": 61, "velocity": 96, "duration": 61}, {"note": 61, "velocity": 97, "duration": 166}, {"note": 0, "velocity": 0, "duration": 74}, {"note": 59, "velocity": 100, "duration": 133}, {"note": 0, "velocity": 0, "duration": 107}, {"note": 59, "velocity": 99, "duration": 128}, {"note": 0, "velocity": 0, "duration": 112}, {"note": 56, "velocity": 100, "duration": 194}, {"note": 0, "velocity": 0, "duration": 166}, {"note": 57, "velocity": 95, "duration": 156}, {"note": 0, "velocity": 0, "duration": 84}, {"note": 56, "velocity": 95, "duration": 81}, {"note": 57, "velocity": 99, "duration": 102}, {"note": 0, "velocity": 0, "duration": 138}, {"note": 59, "velocity": 86, "duration": 148}, {"note": 0, "velocity": 0, "duration": 92}, {"note": 61, "velocity": 112, "duration": 348}, {"note": 57, "velocity": 100, "duration": 117}, {"note": 0, "velocity": 0, "duration": 123}, {"note": 69, "velocity": 107, "duration": 134}, {"note": 0, "velocity": 0, "duration": 106}, {"note": 68, "velocity": 127, "duration": 144}, {"note": 0, "velocity": 0, "duration": 96}, {"note": 66, "velocity": 127, "duration": 218}, {"note": 0, "velocity": 0, "duration": 262}, {"note": 66, "velocity": 122, "duration": 146}, {"note": 0, "velocity": 0, "duration": 94}, {"note": 69, "velocity": 97, "duration": 56}, {"note": 0, "velocity": 0, "duration": 64}, {"note": 71, "velocity": 127, "duration": 165}, {"note": 0, "velocity": 0, "duration": 75}, {"note": 68, "velocity": 122, "duration": 122}, {"note": 0, "velocity": 0, "duration": 118}, {"note": 68, "velocity": 112, "duration": 141}, {"note": 0, "velocity": 0, "duration": 99}, {"note": 66, "velocity": 127, "duration": 86}, {"note": 0, "velocity": 0, "duration": 274}, {"note": 71, "velocity": 112, "duration": 144}, {"note": 0, "velocity": 0, "duration": 96}, {"note": 71, "velocity": 95, "duration": 68}, {"note": 71, "velocity": 97, "duration": 140}, {"note": 0, "velocity": 0, "duration": 100}, {"note": 73, "velocity": 122, "duration": 114}, {"note": 0, "velocity": 0, "duration": 126}, {"note": 69, "velocity": 100, "duration": 367}, {"note": 0, "velocity": 0, "duration": 473}, {"note": 66, "velocity": 117, "duration": 70}, {"note": 68, "velocity": 102, "duration": 49}, {"note": 0, "velocity": 0, "duration": 71}, {"note": 69, "velocity": 117, "duration": 131}, {"note": 0, "velocity": 0, "duration": 109}, {"note": 69, "velocity": 127, "duration": 46}, {"note": 0, "velocity": 0, "duration": 74}, {"note": 69, "velocity": 117, "duration": 116}, {"note": 0, "velocity": 0, "duration": 244}, {"note": 68, "velocity": 117, "duration": 159}, {"note": 0, "velocity": 0, "duration": 81}, {"note": 66, "velocity": 117, "duration": 111}, {"note": 0, "velocity": 0, "duration": 129}, {"note": 71, "velocity": 100, "duration": 158}, {"note": 0, "velocity": 0, "duration": 82}, {"note": 68, "velocity": 117, "duration": 169}, {"note": 0, "velocity": 0, "duration": 71}, {"note": 69, "velocity": 127, "duration": 1085}, {"note": 0, "velocity": 0, "duration": 7075}, {"note": 62, "velocity": 95, "duration": 116}, {"note": 0, "velocity": 0, "duration": 124}, {"note": 62, "velocity": 97, "duration": 104}, {"note": 0, "velocity": 0, "duration": 136}, {"note": 61, "velocity": 102, "duration": 81}, {"note": 62, "velocity": 96, "duration": 241}, {"note": 0, "velocity": 0, "duration": 119}, {"note": 61, "velocity": 112, "duration": 139}, {"note": 0, "velocity": 0, "duration": 101}, {"note": 59, "velocity": 107, "duration": 136}, {"note": 0, "velocity": 0, "duration": 104}, {"note": 57, "velocity": 93, "duration": 121}, {"note": 0, "velocity": 0, "duration": 119}, {"note": 57, "velocity": 107, "duration": 178}, {"note": 0, "velocity": 0, "duration": 62}, {"note": 57, "velocity": 107, "duration": 158}, {"note": 0, "velocity": 0, "duration": 82}, {"note": 59, "velocity": 97, "duration": 183}, {"note": 61, "velocity": 107, "duration": 972}, {"note": 0, "velocity": 0, "duration": 468}, {"note": 62, "velocity": 100, "duration": 157}, {"note": 0, "velocity": 0, "duration": 83}, {"note": 62, "velocity": 95, "duration": 121}, {"note": 0, "velocity": 0, "duration": 119}, {"note": 61, "velocity": 97, "duration": 60}, {"note": 62, "velocity": 99, "duration": 262}, {"note": 0, "velocity": 0, "duration": 98}, {"note": 61, "velocity": 112, "duration": 247}, {"note": 59, "velocity": 99, "duration": 238}, {"note": 57, "velocity": 100, "duration": 149}, {"note": 61, "velocity": 112, "duration": 1290}, {"note": 0, "velocity": 0, "duration": 750}, {"note": 66, "velocity": 107, "duration": 550}, {"note": 0, "velocity": 0, "duration": 170}, {"note": 61, "velocity": 112, "duration": 179}, {"note": 0, "velocity": 0, "duration": 61}, {"note": 61, "velocity": 112, "duration": 182}, {"note": 57, "velocity": 100, "duration": 154}, {"note": 0, "velocity": 0, "duration": 86}, {"note": 57, "velocity": 89, "duration": 171}, {"note": 0, "velocity": 0, "duration": 69}, {"note": 52, "velocity": 96, "duration": 162}, {"note": 0, "velocity": 0, "duration": 78}, {"note": 64, "velocity": 97, "duration": 302}, {"note": 64, "velocity": 99, "duration": 62}, {"note": 0, "velocity": 0, "duration": 178}, {"note": 64, "velocity": 112, "duration": 155}, {"note": 0, "velocity": 0, "duration": 85}, {"note": 62, "velocity": 96, "duration": 85}, {"note": 61, "velocity": 95, "duration": 345}, {"note": 0, "velocity": 0, "duration": 735}, {"note": 59, "velocity": 107, "duration": 133}, {"note": 0, "velocity": 0, "duration": 107}, {"note": 59, "velocity": 96, "duration": 102}, {"note": 0, "velocity": 0, "duration": 138}, {"note": 59, "velocity": 99, "duration": 94}, {"note": 0, "velocity": 0, "duration": 146}, {"note": 59, "velocity": 107, "duration": 116}, {"note": 0, "velocity": 0, "duration": 124}, {"note": 59, "velocity": 99, "duration": 142}, {"note": 0, "velocity": 0, "duration": 98}, {"note": 57, "velocity": 100, "duration": 145}, {"note": 0, "velocity": 0, "duration": 95}, {"note": 64, "velocity": 102, "duration": 193}, {"note": 64, "velocity": 112, "duration": 1073}, {"note": 0, "velocity": 0, "duration": 367}, {"note": 61, "velocity": 112, "duration": 155}, {"note": 0, "velocity": 0, "duration": 85}, {"note": 69, "velocity": 97, "duration": 159}, {"note": 0, "velocity": 0, "duration": 81}, {"note": 68, "velocity": 117, "duration": 167}, {"note": 0, "velocity": 0, "duration": 73}, {"note": 66, "velocity": 102, "duration": 188}, {"note": 0, "velocity": 0, "duration": 292}, {"note": 62, "velocity": 112, "duration": 169}, {"note": 0, "velocity": 0, "duration": 71}, {"note": 61, "velocity": 99, "duration": 57}, {"note": 0, "velocity": 0, "duration": 63}, {"note": 61, "velocity": 96, "duration": 162}, {"note": 0, "velocity": 0, "duration": 78}, {"note": 59, "velocity": 95, "duration": 131}, {"note": 0, "velocity": 0, "duration": 229}, {"note": 66, "velocity": 127, "duration": 140}, {"note": 0, "velocity": 0, "duration": 100}, {"note": 66, "velocity": 102, "duration": 67}, {"note": 68, "velocity": 112, "duration": 112}, {"note": 0, "velocity": 0, "duration": 128}, {"note": 64, "velocity": 96, "duration": 239}, {"note": 64, "velocity": 93, "duration": 54}, {"note": 0, "velocity": 0, "duration": 66}, {"note": 64, "velocity": 107, "duration": 88}, {"note": 0, "velocity": 0, "duration": 152}, {"note": 64, "velocity": 97, "duration": 54}, {"note": 0, "velocity": 0, "duration": 66}, {"note": 59, "velocity": 92, "duration": 149}, {"note": 0, "velocity": 0, "duration": 91}, {"note": 61, "velocity": 102, "duration": 294}, {"note": 0, "velocity": 0, "duration": 186}, {"note": 54, "velocity": 82, "duration": 50}, {"note": 0, "velocity": 0, "duration": 70}, {"note": 59, "velocity": 95, "duration": 69}, {"note": 61, "velocity": 112, "duration": 39}, {"note": 0, "velocity": 0, "duration": 81}, {"note": 62, "velocity": 102, "duration": 147}, {"note": 0, "velocity": 0, "duration": 93}, {"note": 62, "velocity": 107, "duration": 129}, {"note": 0, "velocity": 0, "duration": 111}, {"note": 62, "velocity": 100, "duration": 116}, {"note": 0, "velocity": 0, "duration": 124}, {"note": 61, "velocity": 96, "duration": 61}, {"note": 61, "velocity": 97, "duration": 166}, {"note": 0, "velocity": 0, "duration": 74}, {"note": 59, "velocity": 100, "duration": 133}, {"note": 0, "velocity": 0, "duration": 107}, {"note": 59, "velocity": 99, "duration": 128}, {"note": 0, "velocity": 0, "duration": 112}, {"note": 56, "velocity": 100, "duration": 194}, {"note": 0, "velocity": 0, "duration": 166}, {"note": 57, "velocity": 95, "duration": 156}, {"note": 0, "velocity": 0, "duration": 84}, {"note": 56, "velocity": 95, "duration": 81}, {"note": 57, "velocity": 99, "duration": 102}, {"note": 0, "velocity": 0, "duration": 138}, {"note": 59, "velocity": 86, "duration": 148}, {"note": 0, "velocity": 0, "duration": 92}, {"note": 61, "velocity": 112, "duration": 348}, {"note": 57, "velocity": 100, "duration": 117}, {"note": 0, "velocity": 0, "duration": 123}, {"note": 69, "velocity": 107, "duration": 134}, {"note": 0, "velocity": 0, "duration": 106}, {"note": 68, "velocity": 127, "duration": 144}, {"note": 0, "velocity": 0, "duration": 96}, {"note": 66, "velocity": 127, "duration": 218}, {"note": 0, "velocity": 0, "duration": 262}, {"note": 66, "velocity": 122, "duration": 146}, {"note": 0, "velocity": 0, "duration": 94}, {"note": 69, "velocity": 97, "duration": 56}, {"note": 0, "velocity": 0, "duration": 64}, {"note": 71, "velocity": 127, "duration": 165}, {"note": 0, "velocity": 0, "duration": 75}, {"note": 68, "velocity": 122, "duration": 122}, {"note": 0, "velocity": 0, "duration": 118}, {"note": 68, "velocity": 112, "duration": 141}, {"note": 0, "velocity": 0, "duration": 99}, {"note": 66, "velocity": 127, "duration": 86}, {"note": 0, "velocity": 0, "duration": 274}, {"note": 71, "velocity": 112, "duration": 144}, {"note": 0, "velocity": 0, "duration": 96}, {"note": 71, "velocity": 95, "duration": 68}, {"note": 71, "velocity": 97, "duration": 140}, {"note": 0, "velocity": 0, "duration": 100}, {"note": 73, "velocity": 122, "duration": 114}, {"note": 0, "velocity": 0, "duration": 126}, {"note": 69, "velocity": 100, "duration": 367}, {"note": 0, "velocity": 0, "duration": 473}, {"note": 66, "velocity": 117, "duration": 70}, {"note": 68, "velocity": 102, "duration": 49}, {"note": 0, "velocity": 0, "duration": 71}, {"note": 69, "velocity": 117, "duration": 131}, {"note": 0, "velocity": 0, "duration": 109}, {"note": 69, "velocity": 127, "duration": 46}, {"note": 0, "velocity": 0, "duration": 74}, {"note": 69, "velocity": 117, "duration": 116}, {"note": 0, "velocity": 0, "duration": 244}, {"note": 69, "velocity": 102, "duration": 104}, {"note": 0, "velocity": 0, "duration": 136}, {"note": 69, "velocity": 127, "duration": 84}, {"note": 0, "velocity": 0, "duration": 156}, {"note": 66, "velocity": 102, "duration": 62}, {"note": 69, "velocity": 107, "duration": 131}, {"note": 0, "velocity": 0, "duration": 109}, {"note": 71, "velocity": 112, "duration": 114}, {"note": 0, "velocity": 0, "duration": 126}, {"note": 71, "velocity": 127, "duration": 1035}, {"note": 0, "velocity": 0, "duration": 285}, {"note": 57, "velocity": 112, "duration": 133}, {"note": 0, "velocity": 0, "duration": 107}, {"note": 69, "velocity": 97, "duration": 159}, {"note": 0, "velocity": 0, "duration": 81}, {"note": 68, "velocity": 117, "duration": 167}, {"note": 0, "velocity": 0, "duration": 73}, {"note": 66, "velocity": 102, "duration": 188}, {"note": 0, "velocity": 0, "duration": 292}, {"note": 62, "velocity": 112, "duration": 169}, {"note": 0, "velocity": 0, "duration": 71}, {"note": 61, "velocity": 99, "duration": 57}, {"note": 0, "velocity": 0, "duration": 63}, {"note": 61, "velocity": 96, "duration": 162}, {"note": 0, "velocity": 0, "duration": 78}, {"note": 59, "velocity": 95, "duration": 131}, {"note": 0, "velocity": 0, "duration": 229}, {"note": 66, "velocity": 127, "duration": 140}, {"note": 0, "velocity": 0, "duration": 100}, {"note": 66, "velocity": 102, "duration": 67}, {"note": 68, "velocity": 112, "duration": 112}, {"note": 0, "velocity": 0, "duration": 128}, {"note": 64, "velocity": 96, "duration": 111}, {"note": 0, "velocity": 0, "duration": 129}, {"note": 64, "velocity": 93, "duration": 54}, {"note": 0, "velocity": 0, "duration": 66}, {"note": 64, "velocity": 107, "duration": 88}, {"note": 0, "velocity": 0, "duration": 152}, {"note": 64, "velocity": 97, "duration": 54}, {"note": 0, "velocity": 0, "duration": 66}, {"note": 59, "velocity": 92, "duration": 149}, {"note": 0, "velocity": 0, "duration": 91}, {"note": 61, "velocity": 102, "duration": 294}, {"note": 0, "velocity": 0, "duration": 186}, {"note": 54, "velocity": 82, "duration": 50}, {"note": 0, "velocity": 0, "duration": 70}, {"note": 59, "velocity": 95, "duration": 69}, {"note": 61, "velocity": 112, "duration": 39}, {"note": 0, "velocity": 0, "duration": 81}, {"note": 62, "velocity": 102, "duration": 147}, {"note": 0, "velocity": 0, "duration": 93}, {"note": 62, "velocity": 107, "duration": 129}, {"note": 0, "velocity": 0, "duration": 111}, {"note": 62, "velocity": 100, "duration": 116}, {"note": 0, "velocity": 0, "duration": 124}, {"note": 61, "velocity": 96, "duration": 61}, {"note": 61, "velocity": 97, "duration": 166}, {"note": 0, "velocity": 0, "duration": 74}, {"note": 59, "velocity": 100, "duration": 133}, {"note": 0, "velocity": 0, "duration": 107}, {"note": 59, "velocity": 99, "duration": 128}, {"note": 0, "velocity": 0, "duration": 112}, {"note": 56, "velocity": 100, "duration": 194}, {"note": 0, "velocity": 0, "duration": 166}, {"note": 57, "velocity": 95, "duration": 156}, {"note": 0, "velocity": 0, "duration": 84}, {"note": 56, "velocity": 95, "duration": 81}, {"note": 57, "velocity": 99, "duration": 102}, {"note": 0, "velocity": 0, "duration": 138}, {"note": 59, "velocity": 86, "duration": 148}, {"note": 0, "velocity": 0, "duration": 92}, {"note": 61, "velocity": 112, "duration": 348}, {"note": 57, "velocity": 100, "duration": 117}, {"note": 0, "velocity": 0, "duration": 123}, {"note": 69, "velocity": 107, "duration": 134}, {"note": 0, "velocity": 0, "duration": 106}, {"note": 68, "velocity": 127, "duration": 144}, {"note": 0, "velocity": 0, "duration": 96}, {"note": 66, "velocity": 127, "duration": 218}, {"note": 0, "velocity": 0, "duration": 262}, {"note": 66, "velocity": 122, "duration": 146}, {"note": 0, "velocity": 0, "duration": 94}, {"note": 69, "velocity": 97, "duration": 56}, {"note": 0, "velocity": 0, "duration": 64}, {"note": 71, "velocity": 127, "duration": 165}, {"note": 0, "velocity": 0, "duration": 75}, {"note": 68, "velocity": 122, "duration": 122}, {"note": 0, "velocity": 0, "duration": 118}, {"note": 68, "velocity": 112, "duration": 141}, {"note": 0, "velocity": 0, "duration": 99}, {"note": 66, "velocity": 127, "duration": 86}, {"note": 0, "velocity": 0, "duration": 274}, {"note": 71, "velocity": 112, "duration": 144}, {"note": 0, "velocity": 0, "duration": 96}, {"note": 71, "velocity": 95, "duration": 68}, {"note": 71, "velocity": 97, "duration": 140}, {"note": 0, "velocity": 0, "duration": 100}, {"note": 73, "velocity": 122, "duration": 114}, {"note": 0, "velocity": 0, "duration": 126}, {"note": 69, "velocity": 100, "duration": 367}, {"note": 0, "velocity": 0, "duration": 473}, {"note": 66, "velocity": 117, "duration": 70}, {"note": 68, "velocity": 102, "duration": 49}, {"note": 0, "velocity": 0, "duration": 71}, {"note": 69, "velocity": 117, "duration": 131}, {"note": 0, "velocity": 0, "duration": 109}, {"note": 69, "velocity": 127, "duration": 46}, {"note": 0, "velocity": 0, "duration": 74}, {"note": 69, "velocity": 117, "duration": 116}, {"note": 0, "velocity": 0, "duration": 244}, {"note": 69, "velocity": 102, "duration": 104}, {"note": 0, "velocity": 0, "duration": 136}, {"note": 66, "velocity": 127, "duration": 175}, {"note": 0, "velocity": 0, "duration": 65}, {"note": 71, "velocity": 100, "duration": 114}, {"note": 0, "velocity": 0, "duration": 126}, {"note": 68, "velocity": 127, "duration": 115}, {"note": 0, "velocity": 0, "duration": 125}, {"note": 69, "velocity": 127, "duration": 937}, {"note": 0, "velocity": 0, "duration": 15863}, {"note": 57, "velocity": 102, "duration": 146}, {"note": 0, "velocity": 0, "duration": 94}, {"note": 69, "velocity": 97, "duration": 159}, {"note": 0, "velocity": 0, "duration": 81}, {"note": 68, "velocity": 117, "duration": 167}, {"note": 0, "velocity": 0, "duration": 73}, {"note": 66, "velocity": 102, "duration": 188}, {"note": 0, "velocity": 0, "duration": 292}, {"note": 62, "velocity": 112, "duration": 169}, {"note": 0, "velocity": 0, "duration": 71}, {"note": 61, "velocity": 99, "duration": 57}, {"note": 0, "velocity": 0, "duration": 63}, {"note": 61, "velocity": 96, "duration": 162}, {"note": 0, "velocity": 0, "duration": 78}, {"note": 59, "velocity": 95, "duration": 131}, {"note": 0, "velocity": 0, "duration": 229}, {"note": 66, "velocity": 127, "duration": 140}, {"note": 0, "velocity": 0, "duration": 100}, {"note": 66, "velocity": 102, "duration": 67}, {"note": 68, "velocity": 112, "duration": 112}, {"note": 0, "velocity": 0, "duration": 128}, {"note": 64, "velocity": 96, "duration": 239}, {"note": 64, "velocity": 93, "duration": 54}, {"note": 0, "velocity": 0, "duration": 66}, {"note": 64, "velocity": 107, "duration": 88}, {"note": 0, "velocity": 0, "duration": 152}, {"note": 64, "velocity": 97, "duration": 54}, {"note": 0, "velocity": 0, "duration": 66}, {"note": 59, "velocity": 92, "duration": 149}, {"note": 0, "velocity": 0, "duration": 91}, {"note": 61, "velocity": 102, "duration": 294}, {"note": 0, "velocity": 0, "duration": 186}, {"note": 54, "velocity": 82, "duration": 50}, {"note": 0, "velocity": 0, "duration": 70}, {"note": 59, "velocity": 95, "duration": 69}, {"note": 61, "velocity": 112, "duration": 39}, {"note": 0, "velocity": 0, "duration": 81}, {"note": 62, "velocity": 102, "duration": 147}, {"note": 0, "velocity": 0, "duration": 93}, {"note": 62, "velocity": 107, "duration": 129}, {"note": 0, "velocity": 0, "duration": 111}, {"note": 62, "velocity": 100, "duration": 116}, {"note": 0, "velocity": 0, "duration": 124}, {"note": 61, "velocity": 96, "duration": 61}, {"note": 61, "velocity": 97, "duration": 166}, {"note": 0, "velocity": 0, "duration": 74}, {"note": 59, "velocity": 100, "duration": 133}, {"note": 0, "velocity": 0, "duration": 107}, {"note": 59, "velocity": 99, "duration": 128}, {"note": 0, "velocity": 0, "duration": 112}, {"note": 56, "velocity": 100, "duration": 194}, {"note": 0, "velocity": 0, "duration": 166}, {"note": 57, "velocity": 95, "duration": 156}, {"note": 0, "velocity": 0, "duration": 84}, {"note": 56, "velocity": 95, "duration": 81}, {"note": 57, "velocity": 99, "duration": 102}, {"note": 0, "velocity": 0, "duration": 138}, {"note": 59, "velocity": 86, "duration": 148}, {"note": 0, "velocity": 0, "duration": 92}, {"note": 61, "velocity": 112, "duration": 348}, {"note": 57, "velocity": 100, "duration": 117}, {"note": 0, "velocity": 0, "duration": 123}, {"note": 69, "velocity": 107, "duration": 134}, {"note": 0, "velocity": 0, "duration": 106}, {"note": 68, "velocity": 127, "duration": 144}, {"note": 0, "velocity": 0, "duration": 96}, {"note": 66, "velocity": 127, "duration": 218}, {"note": 0, "velocity": 0, "duration": 262}, {"note": 66, "velocity": 122, "duration": 146}, {"note": 0, "velocity": 0, "duration": 94}, {"note": 69, "velocity": 97, "duration": 56}, {"note": 0, "velocity": 0, "duration": 64}, {"note": 71, "velocity": 127, "duration": 165}, {"note": 0, "velocity": 0, "duration": 75}, {"note": 68, "velocity": 122, "duration": 122}, {"note": 0, "velocity": 0, "duration": 118}, {"note": 68, "velocity": 112, "duration": 141}, {"note": 0, "velocity": 0, "duration": 99}, {"note": 66, "velocity": 127, "duration": 86}, {"note": 0, "velocity": 0, "duration": 274}, {"note": 71, "velocity": 112, "duration": 144}, {"note": 0, "velocity": 0, "duration": 96}, {"note": 71, "velocity": 95, "duration": 68}, {"note": 71, "velocity": 97, "duration": 140}, {"note": 0, "velocity": 0, "duration": 100}, {"note": 73, "velocity": 122, "duration": 114}, {"note": 0, "velocity": 0, "duration": 126}, {"note": 69, "velocity": 100, "duration": 367}, {"note": 0, "velocity": 0, "duration": 473}, {"note": 66, "velocity": 117, "duration": 70}, {"note": 68, "velocity": 102, "duration": 49}, {"note": 0, "velocity": 0, "duration": 71}, {"note": 69, "velocity": 117, "duration": 131}, {"note": 0, "velocity": 0, "duration": 109}, {"note": 69, "velocity": 127, "duration": 46}, {"note": 0, "velocity": 0, "duration": 74}, {"note": 69, "velocity": 117, "duration": 116}, {"note": 0, "velocity": 0, "duration": 244}, {"note": 68, "velocity": 122, "duration": 167}, {"note": 0, "velocity": 0, "duration": 73}, {"note": 66, "velocity": 122, "duration": 149}, {"note": 0, "velocity": 0, "duration": 91}, {"note": 71, "velocity": 102, "duration": 96}, {"note": 0, "velocity": 0, "duration": 144}, {"note": 68, "velocity": 127, "duration": 108}, {"note": 0, "velocity": 0, "duration": 132}, {"note": 69, "velocity": 127, "duration": 842}, {"note": 0, "velocity": 0, "duration": 1078}, {"note": 66, "velocity": 112, "duration": 57}, {"note": 0, "velocity": 0, "duration": 63}, {"note": 68, "velocity": 102, "duration": 55}, {"note": 0, "velocity": 0, "duration": 65}, {"note": 69, "velocity": 122, "duration": 132}, {"note": 0, "velocity": 0, "duration": 108}, {"note": 69, "velocity": 102, "duration": 49}, {"note": 0, "velocity": 0, "duration": 71}, {"note": 69, "velocity": 112, "duration": 229}, {"note": 0, "velocity": 0, "duration": 131}, {"note": 68, "velocity": 112, "duration": 172}, {"note": 0, "velocity": 0, "duration": 68}, {"note": 66, "velocity": 112, "duration": 154}, {"note": 0, "velocity": 0, "duration": 86}, {"note": 71, "velocity": 102, "duration": 139}, {"note": 0, "velocity": 0, "duration": 101}, {"note": 68, "velocity": 122, "duration": 164}, {"note": 0, "velocity": 0, "duration": 76}, {"note": 69, "velocity": 112, "duration": 1412}]]