[[{"note": 67, "velocity": 122, "duration": 168}, {"note": 0, "velocity": 0, "duration": 72}, {"note": 67, "velocity": 102, "duration": 137}, {"note": 0, "velocity": 0, "duration": 103}, {"note": 67, "velocity": 107, "duration": 114}, {"note": 0, "velocity": 0, "duration": 126}, {"note": 67, "velocity": 100, "duration": 94}, {"note": 0, "velocity": 0, "duration": 146}, {"note": 67, "velocity": 117, "duration": 288}, {"note": 0, "velocity": 0, "duration": 72}, {"note": 62, "velocity": 92, "duration": 148}, {"note": 0, "velocity": 0, "duration": 212}, {"note": 64, "velocity": 92, "duration": 176}, {"note": 0, "velocity": 0, "duration": 304}, {"note": 67, "velocity": 99, "duration": 1154}, {"note": 0, "velocity": 0, "duration": 526}, {"note": 69, "velocity": 100, "duration": 123}, {"note": 0, "velocity": 0, "duration": 117}, {"note": 69, "velocity": 102, "duration": 99}, {"note": 0, "velocity": 0, "duration": 141}, {"note": 69, "velocity": 107, "duration": 87}, {"note": 0, "velocity": 0, "duration": 153}, {"note": 69, "velocity": 102, "duration": 91}, {"note": 0, "velocity": 0, "duration": 149}, {"note": 69, "velocity": 112, "duration": 309}, {"note": 65, "velocity": 90, "duration": 77}, {"note": 0, "velocity": 0, "duration": 283}, {"note": 64, "velocity": 90, "duration": 327}, {"note": 62, "velocity": 83, "duration": 1550}, {"note": 60, "velocity": 95, "duration": 156}, {"note": 0, "velocity": 0, "duration": 84}, {"note": 71, "velocity": 107, "duration": 98}, {"note": 0, "velocity": 0, "duration": 142}, {"note": 71, "velocity": 82, "duration": 106}, {"note": 0, "velocity": 0, "duration": 134}, {"note": 71, "velocity": 117, "duration": 93}, {"note": 0, "velocity": 0, "duration": 147}, {"note": 71, "velocity": 100, "duration": 88}, {"note": 0, "velocity": 0, "duration": 152}, {"note": 71, "velocity": 127, "duration": 186}, {"note": 0, "velocity": 0, "duration": 174}, {"note": 67, "velocity": 90, "duration": 96}, {"note": 0, "velocity": 0, "duration": 264}, {"note": 64, "velocity": 93, "duration": 370}, {"note": 0, "velocity": 0, "duration": 110}, {"note": 60, "velocity": 93, "duration": 995}, {"note": 0, "velocity": 0, "duration": 445}, {"note": 60, "velocity": 93, "duration": 141}, {"note": 0, "velocity": 0, "duration": 99}, {"note": 69, "velocity": 112, "duration": 98}, {"note": 0, "velocity": 0, "duration": 142}, {"note": 69, "velocity": 100, "duration": 113}, {"note": 0, "velocity": 0, "duration": 127}, {"note": 69, "velocity": 112, "duration": 100}, {"note": 0, "velocity": 0, "duration": 140}, {"note": 69, "velocity": 96, "duration": 98}, {"note": 0, "velocity": 0, "duration": 142}, {"note": 69, "velocity": 127, "duration": 171}, {"note": 0, "velocity": 0, "duration": 189}, {"note": 65, "velocity": 90, "duration": 118}, {"note": 0, "velocity": 0, "duration": 242}, {"note": 69, "velocity": 95, "duration": 185}, {"note": 0, "velocity": 0, "duration": 295}, {"note": 71, "velocity": 112, "duration": 1090}, {"note": 0, "velocity": 0, "duration": 350}, {"note": 67, "velocity": 83, "duration": 228}, {"note": 72, "velocity": 100, "duration": 480}, {"note": 0, "velocity": 0, "duration": 120}, {"note": 72, "velocity": 122, "duration": 392}, {"note": 0, "velocity": 0, "duration": 448}, {"note": 64, "velocity": 96, "duration": 262}, {"note": 67, "velocity": 100, "duration": 1125}, {"note": 0, "velocity": 0, "duration": 795}, {"note": 67, "velocity": 95, "duration": 164}, {"note": 0, "velocity": 0, "duration": 76}, {"note": 69, "velocity": 100, "duration": 181}, {"note": 67, "velocity": 93, "duration": 171}, {"note": 0, "velocity": 0, "duration": 69}, {"note": 69, "velocity": 95, "duration": 128}, {"note": 0, "velocity": 0, "duration": 112}, {"note": 72, "velocity": 107, "duration": 323}, {"note": 0, "velocity": 0, "duration": 157}, {"note": 60, "velocity": 93, "duration": 206}, {"note": 0, "velocity": 0, "duration": 274}, {"note": 67, "velocity": 99, "duration": 834}, {"note": 0, "velocity": 0, "duration": 1086}, {"note": 67, "velocity": 92, "duration": 145}, {"note": 0, "velocity": 0, "duration": 95}, {"note": 72, "velocity": 112, "duration": 249}, {"note": 0, "velocity": 0, "duration": 471}, {"note": 72, "velocity": 122, "duration": 320}, {"note": 0, "velocity": 0, "duration": 400}, {"note": 64, "velocity": 99, "duration": 196}, {"note": 69, "velocity": 117, "duration": 607}, {"note": 0, "velocity": 0, "duration": 113}, {"note": 67, "velocity": 107, "duration": 951}, {"note": 0, "velocity": 0, "duration": 249}, {"note": 67, "velocity": 107, "duration": 102}, {"note": 0, "velocity": 0, "duration": 138}, {"note": 69, "velocity": 122, "duration": 178}, {"note": 0, "velocity": 0, "duration": 62}, {"note": 67, "velocity": 97, "duration": 144}, {"note": 0, "velocity": 0, "duration": 96}, {"note": 69, "velocity": 102, "duration": 138}, {"note": 0, "velocity": 0, "duration": 102}, {"note": 72, "velocity": 117, "duration": 406}, {"note": 0, "velocity": 0, "duration": 74}, {"note": 69, "velocity": 107, "duration": 265}, {"note": 0, "velocity": 0, "duration": 215}, {"note": 72, "velocity": 107, "duration": 235}, {"note": 0, "velocity": 0, "duration": 245}, {"note": 74, "velocity": 127, "duration": 1519}, {"note": 0, "velocity": 0, "duration": 1841}, {"note": 67, "velocity": 107, "duration": 170}, {"note": 0, "velocity": 0, "duration": 70}, {"note": 72, "velocity": 122, "duration": 169}, {"note": 0, "velocity": 0, "duration": 71}, {"note": 74, "velocity": 107, "duration": 100}, {"note": 0, "velocity": 0, "duration": 140}, {"note": 74, "velocity": 127, "duration": 155}, {"note": 0, "velocity": 0, "duration": 85}, {"note": 76, "velocity": 117, "duration": 129}, {"note": 0, "velocity": 0, "duration": 111}, {"note": 76, "velocity": 127, "duration": 233}, {"note": 74, "velocity": 122, "duration": 73}, {"note": 0, "velocity": 0, "duration": 167}, {"note": 74, "velocity": 127, "duration": 160}, {"note": 0, "velocity": 0, "duration": 80}, {"note": 72, "velocity": 107, "duration": 83}, {"note": 0, "velocity": 0, "duration": 157}, {"note": 71, "velocity": 93, "duration": 252}, {"note": 71, "velocity": 117, "duration": 12}, {"note": 0, "velocity": 0, "duration": 468}, {"note": 72, "velocity": 107, "duration": 165}, {"note": 0, "velocity": 0, "duration": 315}, {"note": 67, "velocity": 99, "duration": 233}, {"note": 0, "velocity": 0, "duration": 247}, {"note": 67, "velocity": 92, "duration": 156}, {"note": 0, "velocity": 0, "duration": 84}, {"note": 72, "velocity": 122, "duration": 163}, {"note": 0, "velocity": 0, "duration": 77}, {"note": 74, "velocity": 127, "duration": 115}, {"note": 0, "velocity": 0, "duration": 125}, {"note": 74, "velocity": 117, "duration": 164}, {"note": 0, "velocity": 0, "duration": 76}, {"note": 76, "velocity": 117, "duration": 130}, {"note": 0, "velocity": 0, "duration": 110}, {"note": 76, "velocity": 127, "duration": 176}, {"note": 0, "velocity": 0, "duration": 64}, {"note": 74, "velocity": 107, "duration": 108}, {"note": 0, "velocity": 0, "duration": 132}, {"note": 74, "velocity": 117, "duration": 111}, {"note": 0, "velocity": 0, "duration": 129}, {"note": 72, "velocity": 112, "duration": 145}, {"note": 0, "velocity": 0, "duration": 95}, {"note": 71, "velocity": 112, "duration": 249}, {"note": 0, "velocity": 0, "duration": 111}, {"note": 69, "velocity": 102, "duration": 206}, {"note": 0, "velocity": 0, "duration": 154}, {"note": 71, "velocity": 112, "duration": 390}, {"note": 0, "velocity": 0, "duration": 90}, {"note": 64, "velocity": 100, "duration": 191}, {"note": 0, "velocity": 0, "duration": 529}, {"note": 69, "velocity": 102, "duration": 233}, {"note": 71, "velocity": 107, "duration": 159}, {"note": 0, "velocity": 0, "duration": 81}, {"note": 71, "velocity": 112, "duration": 189}, {"note": 72, "velocity": 100, "duration": 152}, {"note": 0, "velocity": 0, "duration": 88}, {"note": 72, "velocity": 122, "duration": 222}, {"note": 71, "velocity": 117, "duration": 105}, {"note": 0, "velocity": 0, "duration": 135}, {"note": 71, "velocity": 117, "duration": 203}, {"note": 69, "velocity": 112, "duration": 454}, {"note": 67, "velocity": 112, "duration": 306}, {"note": 0, "velocity": 0, "duration": 174}, {"note": 69, "velocity": 117, "duration": 161}, {"note": 0, "velocity": 0, "duration": 79}, {"note": 71, "velocity": 99, "duration": 351}, {"note": 0, "velocity": 0, "duration": 129}, {"note": 72, "velocity": 115, "duration": 322}, {"note": 0, "velocity": 0, "duration": 398}, {"note": 76, "velocity": 122, "duration": 271}, {"note": 0, "velocity": 0, "duration": 89}, {"note": 74, "velocity": 122, "duration": 213}, {"note": 0, "velocity": 0, "duration": 147}, {"note": 72, "velocity": 112, "duration": 248}, {"note": 0, "velocity": 0, "duration": 232}, {"note": 69, "velocity": 107, "duration": 229}, {"note": 0, "velocity": 0, "duration": 491}, {"note": 76, "velocity": 122, "duration": 254}, {"note": 0, "velocity": 0, "duration": 106}, {"note": 74, "velocity": 117, "duration": 201}, {"note": 0, "velocity": 0, "duration": 159}, {"note": 72, "velocity": 127, "duration": 275}, {"note": 0, "velocity": 0, "duration": 205}, {"note": 67, "velocity": 100, "duration": 305}, {"note": 0, "velocity": 0, "duration": 175}, {"note": 67, "velocity": 107, "duration": 150}, {"note": 0, "velocity": 0, "duration": 90}, {"note": 72, "velocity": 122, "duration": 172}, {"note": 0, "velocity": 0, "duration": 68}, {"note": 74, "velocity": 117, "duration": 110}, {"note": 0, "velocity": 0, "duration": 130}, {"note": 74, "velocity": 127, "duration": 160}, {"note": 0, "velocity": 0, "duration": 80}, {"note": 76, "velocity": 112, "duration": 109}, {"note": 0, "velocity": 0, "duration": 131}, {"note": 76, "velocity": 127, "duration": 175}, {"note": 0, "velocity": 0, "duration": 65}, {"note": 74, "velocity": 117, "duration": 111}, {"note": 0, "velocity": 0, "duration": 129}, {"note": 74, "velocity": 127, "duration": 215}, {"note": 72, "velocity": 122, "duration": 101}, {"note": 0, "velocity": 0, "duration": 139}, {"note": 71, "velocity": 117, "duration": 284}, {"note": 0, "velocity": 0, "duration": 76}, {"note": 71, "velocity": 117, "duration": 186}, {"note": 0, "velocity": 0, "duration": 174}, {"note": 71, "velocity": 93, "duration": 177}, {"note": 0, "velocity": 0, "duration": 303}, {"note": 67, "velocity": 100, "duration": 297}, {"note": 0, "velocity": 0, "duration": 183}, {"note": 67, "velocity": 102, "duration": 210}, {"note": 72, "velocity": 122, "duration": 208}, {"note": 74, "velocity": 102, "duration": 148}, {"note": 0, "velocity": 0, "duration": 92}, {"note": 74, "velocity": 127, "duration": 191}, {"note": 76, "velocity": 112, "duration": 141}, {"note": 0, "velocity": 0, "duration": 99}, {"note": 76, "velocity": 127, "duration": 184}, {"note": 74, "velocity": 127, "duration": 98}, {"note": 0, "velocity": 0, "duration": 142}, {"note": 74, "velocity": 127, "duration": 171}, {"note": 0, "velocity": 0, "duration": 69}, {"note": 72, "velocity": 112, "duration": 140}, {"note": 0, "velocity": 0, "duration": 100}, {"note": 71, "velocity": 100, "duration": 292}, {"note": 0, "velocity": 0, "duration": 68}, {"note": 69, "velocity": 117, "duration": 199}, {"note": 0, "velocity": 0, "duration": 161}, {"note": 71, "velocity": 117, "duration": 243}, {"note": 0, "velocity": 0, "duration": 237}, {"note": 64, "velocity": 100, "duration": 251}, {"note": 0, "velocity": 0, "duration": 469}, {"note": 69, "velocity": 112, "duration": 193}, {"note": 71, "velocity": 112, "duration": 104}, {"note": 0, "velocity": 0, "duration": 136}, {"note": 71, "velocity": 117, "duration": 191}, {"note": 72, "velocity": 102, "duration": 114}, {"note": 0, "velocity": 0, "duration": 126}, {"note": 72, "velocity": 127, "duration": 302}, {"note": 71, "velocity": 127, "duration": 113}, {"note": 0, "velocity": 0, "duration": 127}, {"note": 71, "velocity": 117, "duration": 193}, {"note": 69, "velocity": 117, "duration": 83}, {"note": 0, "velocity": 0, "duration": 157}, {"note": 67, "velocity": 112, "duration": 311}, {"note": 69, "velocity": 107, "duration": 200}, {"note": 0, "velocity": 0, "duration": 160}, {"note": 71, "velocity": 117, "duration": 406}, {"note": 0, "velocity": 0, "duration": 194}, {"note": 72, "velocity": 112, "duration": 276}, {"note": 0, "velocity": 0, "duration": 324}, {"note": 76, "velocity": 127, "duration": 221}, {"note": 0, "velocity": 0, "duration": 139}, {"note": 74, "velocity": 127, "duration": 114}, {"note": 0, "velocity": 0, "duration": 246}, {"note": 72, "velocity": 127, "duration": 241}, {"note": 0, "velocity": 0, "duration": 239}, {"note": 69, "velocity": 122, "duration": 218}, {"note": 0, "velocity": 0, "duration": 502}, {"note": 76, "velocity": 127, "duration": 187}, {"note": 0, "velocity": 0, "duration": 173}, {"note": 74, "velocity": 117, "duration": 185}, {"note": 0, "velocity": 0, "duration": 175}, {"note": 72, "velocity": 127, "duration": 174}, {"note": 0, "velocity": 0, "duration": 66}, {"note": 69, "velocity": 112, "duration": 264}, {"note": 0, "velocity": 0, "duration": 96}, {"note": 67, "velocity": 100, "duration": 283}, {"note": 0, "velocity": 0, "duration": 317}, {"note": 69, "velocity": 102, "duration": 322}, {"note": 72, "velocity": 117, "duration": 766}, {"note": 0, "velocity": 0, "duration": 18074}, {"note": 67, "velocity": 122, "duration": 168}, {"note": 0, "velocity": 0, "duration": 72}, {"note": 67, "velocity": 102, "duration": 137}, {"note": 0, "velocity": 0, "duration": 103}, {"note": 67, "velocity": 107, "duration": 114}, {"note": 0, "velocity": 0, "duration": 126}, {"note": 67, "velocity": 100, "duration": 94}, {"note": 0, "velocity": 0, "duration": 146}, {"note": 67, "velocity": 117, "duration": 288}, {"note": 0, "velocity": 0, "duration": 72}, {"note": 62, "velocity": 92, "duration": 148}, {"note": 0, "velocity": 0, "duration": 212}, {"note": 64, "velocity": 92, "duration": 176}, {"note": 0, "velocity": 0, "duration": 304}, {"note": 67, "velocity": 99, "duration": 1154}, {"note": 0, "velocity": 0, "duration": 526}, {"note": 69, "velocity": 100, "duration": 123}, {"note": 0, "velocity": 0, "duration": 117}, {"note": 69, "velocity": 102, "duration": 99}, {"note": 0, "velocity": 0, "duration": 141}, {"note": 69, "velocity": 107, "duration": 87}, {"note": 0, "velocity": 0, "duration": 153}, {"note": 69, "velocity": 102, "duration": 91}, {"note": 0, "velocity": 0, "duration": 149}, {"note": 69, "velocity": 112, "duration": 309}, {"note": 65, "velocity": 90, "duration": 77}, {"note": 0, "velocity": 0, "duration": 283}, {"note": 64, "velocity": 90, "duration": 327}, {"note": 62, "velocity": 83, "duration": 1550}, {"note": 60, "velocity": 95, "duration": 156}, {"note": 0, "velocity": 0, "duration": 84}, {"note": 71, "velocity": 107, "duration": 98}, {"note": 0, "velocity": 0, "duration": 142}, {"note": 71, "velocity": 82, "duration": 106}, {"note": 0, "velocity": 0, "duration": 134}, {"note": 71, "velocity": 117, "duration": 93}, {"note": 0, "velocity": 0, "duration": 147}, {"note": 71, "velocity": 100, "duration": 88}, {"note": 0, "velocity": 0, "duration": 152}, {"note": 71, "velocity": 127, "duration": 186}, {"note": 0, "velocity": 0, "duration": 174}, {"note": 67, "velocity": 90, "duration": 96}, {"note": 0, "velocity": 0, "duration": 264}, {"note": 64, "velocity": 93, "duration": 370}, {"note": 0, "velocity": 0, "duration": 110}, {"note": 60, "velocity": 93, "duration": 995}, {"note": 0, "velocity": 0, "duration": 445}, {"note": 60, "velocity": 93, "duration": 141}, {"note": 0, "velocity": 0, "duration": 99}, {"note": 69, "velocity": 112, "duration": 98}, {"note": 0, "velocity": 0, "duration": 142}, {"note": 69, "velocity": 100, "duration": 113}, {"note": 0, "velocity": 0, "duration": 127}, {"note": 69, "velocity": 112, "duration": 100}, {"note": 0, "velocity": 0, "duration": 140}, {"note": 69, "velocity": 96, "duration": 98}, {"note": 0, "velocity": 0, "duration": 142}, {"note": 69, "velocity": 127, "duration": 171}, {"note": 0, "velocity": 0, "duration": 189}, {"note": 65, "velocity": 90, "duration": 118}, {"note": 0, "velocity": 0, "duration": 242}, {"note": 69, "velocity": 95, "duration": 185}, {"note": 0, "velocity": 0, "duration": 295}, {"note": 71, "velocity": 112, "duration": 1090}, {"note": 0, "velocity": 0, "duration": 350}, {"note": 67, "velocity": 83, "duration": 228}, {"note": 72, "velocity": 100, "duration": 480}, {"note": 0, "velocity": 0, "duration": 120}, {"note": 72, "velocity": 122, "duration": 392}, {"note": 0, "velocity": 0, "duration": 448}, {"note": 64, "velocity": 96, "duration": 262}, {"note": 67, "velocity": 100, "duration": 1125}, {"note": 0, "velocity": 0, "duration": 795}, {"note": 67, "velocity": 95, "duration": 164}, {"note": 0, "velocity": 0, "duration": 76}, {"note": 69, "velocity": 100, "duration": 181}, {"note": 67, "velocity": 93, "duration": 171}, {"note": 0, "velocity": 0, "duration": 69}, {"note": 69, "velocity": 95, "duration": 128}, {"note": 0, "velocity": 0, "duration": 112}, {"note": 72, "velocity": 107, "duration": 323}, {"note": 0, "velocity": 0, "duration": 157}, {"note": 60, "velocity": 93, "duration": 206}, {"note": 0, "velocity": 0, "duration": 274}, {"note": 67, "velocity": 99, "duration": 834}, {"note": 0, "velocity": 0, "duration": 1086}, {"note": 67, "velocity": 92, "duration": 145}, {"note": 0, "velocity": 0, "duration": 95}, {"note": 72, "velocity": 112, "duration": 249}, {"note": 0, "velocity": 0, "duration": 471}, {"note": 72, "velocity": 122, "duration": 320}, {"note": 0, "velocity": 0, "duration": 400}, {"note": 64, "velocity": 99, "duration": 196}, {"note": 69, "velocity": 117, "duration": 607}, {"note": 0, "velocity": 0, "duration": 113}, {"note": 67, "velocity": 107, "duration": 951}, {"note": 0, "velocity": 0, "duration": 249}, {"note": 67, "velocity": 107, "duration": 102}, {"note": 0, "velocity": 0, "duration": 138}, {"note": 69, "velocity": 122, "duration": 178}, {"note": 0, "velocity": 0, "duration": 62}, {"note": 67, "velocity": 97, "duration": 144}, {"note": 0, "velocity": 0, "duration": 96}, {"note": 69, "velocity": 102, "duration": 138}, {"note": 0, "velocity": 0, "duration": 102}, {"note": 72, "velocity": 117, "duration": 406}, {"note": 0, "velocity": 0, "duration": 74}, {"note": 69, "velocity": 107, "duration": 265}, {"note": 0, "velocity": 0, "duration": 215}, {"note": 72, "velocity": 107, "duration": 235}, {"note": 0, "velocity": 0, "duration": 245}, {"note": 74, "velocity": 127, "duration": 1519}, {"note": 0, "velocity": 0, "duration": 1841}, {"note": 67, "velocity": 107, "duration": 170}, {"note": 0, "velocity": 0, "duration": 70}, {"note": 72, "velocity": 122, "duration": 169}, {"note": 0, "velocity": 0, "duration": 71}, {"note": 74, "velocity": 107, "duration": 100}, {"note": 0, "velocity": 0, "duration": 140}, {"note": 74, "velocity": 127, "duration": 155}, {"note": 0, "velocity": 0, "duration": 85}, {"note": 76, "velocity": 117, "duration": 129}, {"note": 0, "velocity": 0, "duration": 111}, {"note": 76, "velocity": 127, "duration": 233}, {"note": 74, "velocity": 122, "duration": 73}, {"note": 0, "velocity": 0, "duration": 167}, {"note": 74, "velocity": 127, "duration": 160}, {"note": 0, "velocity": 0, "duration": 80}, {"note": 72, "velocity": 107, "duration": 83}, {"note": 0, "velocity": 0, "duration": 157}, {"note": 71, "velocity": 93, "duration": 252}, {"note": 71, "velocity": 117, "duration": 12}, {"note": 0, "velocity": 0, "duration": 468}, {"note": 72, "velocity": 107, "duration": 165}, {"note": 0, "velocity": 0, "duration": 315}, {"note": 67, "velocity": 99, "duration": 233}, {"note": 0, "velocity": 0, "duration": 247}, {"note": 67, "velocity": 92, "duration": 156}, {"note": 0, "velocity": 0, "duration": 84}, {"note": 72, "velocity": 122, "duration": 163}, {"note": 0, "velocity": 0, "duration": 77}, {"note": 74, "velocity": 127, "duration": 115}, {"note": 0, "velocity": 0, "duration": 125}, {"note": 74, "velocity": 117, "duration": 164}, {"note": 0, "velocity": 0, "duration": 76}, {"note": 76, "velocity": 117, "duration": 130}, {"note": 0, "velocity": 0, "duration": 110}, {"note": 76, "velocity": 127, "duration": 176}, {"note": 0, "velocity": 0, "duration": 64}, {"note": 74, "velocity": 107, "duration": 108}, {"note": 0, "velocity": 0, "duration": 132}, {"note": 74, "velocity": 117, "duration": 111}, {"note": 0, "velocity": 0, "duration": 129}, {"note": 72, "velocity": 112, "duration": 145}, {"note": 0, "velocity": 0, "duration": 95}, {"note": 71, "velocity": 112, "duration": 249}, {"note": 0, "velocity": 0, "duration": 111}, {"note": 69, "velocity": 102, "duration": 206}, {"note": 0, "velocity": 0, "duration": 154}, {"note": 71, "velocity": 112, "duration": 390}, {"note": 0, "velocity": 0, "duration": 90}, {"note": 64, "velocity": 100, "duration": 191}, {"note": 0, "velocity": 0, "duration": 529}, {"note": 69, "velocity": 102, "duration": 233}, {"note": 71, "velocity": 107, "duration": 159}, {"note": 0, "velocity": 0, "duration": 81}, {"note": 71, "velocity": 112, "duration": 189}, {"note": 72, "velocity": 100, "duration": 152}, {"note": 0, "velocity": 0, "duration": 88}, {"note": 72, "velocity": 122, "duration": 222}, {"note": 71, "velocity": 117, "duration": 105}, {"note": 0, "velocity": 0, "duration": 135}, {"note": 71, "velocity": 117, "duration": 203}, {"note": 69, "velocity": 112, "duration": 454}, {"note": 67, "velocity": 112, "duration": 306}, {"note": 0, "velocity": 0, "duration": 174}, {"note": 69, "velocity": 117, "duration": 161}, {"note": 0, "velocity": 0, "duration": 79}, {"note": 71, "velocity": 99, "duration": 351}, {"note": 0, "velocity": 0, "duration": 129}, {"note": 72, "velocity": 115, "duration": 322}, {"note": 0, "velocity": 0, "duration": 398}, {"note": 76, "velocity": 122, "duration": 271}, {"note": 0, "velocity": 0, "duration": 89}, {"note": 74, "velocity": 122, "duration": 213}, {"note": 0, "velocity": 0, "duration": 147}, {"note": 72, "velocity": 112, "duration": 248}, {"note": 0, "velocity": 0, "duration": 232}, {"note": 69, "velocity": 107, "duration": 229}, {"note": 0, "velocity": 0, "duration": 491}, {"note": 76, "velocity": 122, "duration": 254}, {"note": 0, "velocity": 0, "duration": 106}, {"note": 74, "velocity": 117, "duration": 201}, {"note": 0, "velocity": 0, "duration": 159}, {"note": 72, "velocity": 127, "duration": 275}, {"note": 0, "velocity": 0, "duration": 205}, {"note": 67, "velocity": 100, "duration": 305}, {"note": 0, "velocity": 0, "duration": 175}, {"note": 67, "velocity": 107, "duration": 150}, {"note": 0, "velocity": 0, "duration": 90}, {"note": 72, "velocity": 122, "duration": 172}, {"note": 0, "velocity": 0, "duration": 68}, {"note": 74, "velocity": 117, "duration": 110}, {"note": 0, "velocity": 0, "duration": 130}, {"note": 74, "velocity": 127, "duration": 160}, {"note": 0, "velocity": 0, "duration": 80}, {"note": 76, "velocity": 112, "duration": 109}, {"note": 0, "velocity": 0, "duration": 131}, {"note": 76, "velocity": 127, "duration": 175}, {"note": 0, "velocity": 0, "duration": 65}, {"note": 74, "velocity": 117, "duration": 111}, {"note": 0, "velocity": 0, "duration": 129}, {"note": 74, "velocity": 127, "duration": 215}, {"note": 72, "velocity": 122, "duration": 101}, {"note": 0, "velocity": 0, "duration": 139}, {"note": 71, "velocity": 117, "duration": 284}, {"note": 0, "velocity": 0, "duration": 76}, {"note": 71, "velocity": 117, "duration": 186}, {"note": 0, "velocity": 0, "duration": 174}, {"note": 71, "velocity": 93, "duration": 177}, {"note": 0, "velocity": 0, "duration": 303}, {"note": 67, "velocity": 100, "duration": 297}, {"note": 0, "velocity": 0, "duration": 183}, {"note": 67, "velocity": 102, "duration": 210}, {"note": 72, "velocity": 122, "duration": 208}, {"note": 74, "velocity": 102, "duration": 148}, {"note": 0, "velocity": 0, "duration": 92}, {"note": 74, "velocity": 127, "duration": 191}, {"note": 76, "velocity": 112, "duration": 141}, {"note": 0, "velocity": 0, "duration": 99}, {"note": 76, "velocity": 127, "duration": 184}, {"note": 74, "velocity": 127, "duration": 98}, {"note": 0, "velocity": 0, "duration": 142}, {"note": 74, "velocity": 127, "duration": 171}, {"note": 0, "velocity": 0, "duration": 69}, {"note": 72, "velocity": 112, "duration": 140}, {"note": 0, "velocity": 0, "duration": 100}, {"note": 71, "velocity": 100, "duration": 292}, {"note": 0, "velocity": 0, "duration": 68}, {"note": 69, "velocity": 117, "duration": 199}, {"note": 0, "velocity": 0, "duration": 161}, {"note": 71, "velocity": 117, "duration": 243}, {"note": 0, "velocity": 0, "duration": 237}, {"note": 64, "velocity": 100, "duration": 251}, {"note": 0, "velocity": 0, "duration": 469}, {"note": 69, "velocity": 112, "duration": 193}, {"note": 71, "velocity": 112, "duration": 104}, {"note": 0, "velocity": 0, "duration": 136}, {"note": 71, "velocity": 117, "duration": 191}, {"note": 72, "velocity": 102, "duration": 114}, {"note": 0, "velocity": 0, "duration": 126}, {"note": 72, "velocity": 127, "duration": 302}, {"note": 71, "velocity": 127, "duration": 113}, {"note": 0, "velocity": 0, "duration": 127}, {"note": 71, "velocity": 117, "duration": 193}, {"note": 69, "velocity": 117, "duration": 83}, {"note": 0, "velocity": 0, "duration": 157}, {"note": 67, "velocity": 112, "duration": 311}, {"note": 69, "velocity": 107, "duration": 200}, {"note": 0, "velocity": 0, "duration": 160}, {"note": 71, "velocity": 117, "duration": 406}, {"note": 0, "velocity": 0, "duration": 194}, {"note": 72, "velocity": 112, "duration": 276}, {"note": 0, "velocity": 0, "duration": 324}, {"note": 76, "velocity": 127, "duration": 221}, {"note": 0, "velocity": 0, "duration": 139}, {"note": 74, "velocity": 127, "duration": 114}, {"note": 0, "velocity": 0, "duration": 246}, {"note": 72, "velocity": 127, "duration": 241}, {"note": 0, "velocity": 0, "duration": 239}, {"note": 69, "velocity": 122, "duration": 218}, {"note": 0, "velocity": 0, "duration": 502}, {"note": 76, "velocity": 127, "duration": 187}, {"note": 0, "velocity": 0, "duration": 173}, {"note": 74, "velocity": 117, "duration": 185}, {"note": 0, "velocity": 0, "duration": 175}, {"note": 72, "velocity": 127, "duration": 174}, {"note": 0, "velocity": 0, "duration": 66}, {"note": 69, "velocity": 112, "duration": 264}, {"note": 0, "velocity": 0, "duration": 96}, {"note": 67, "velocity": 100, "duration": 283}, {"note": 0, "velocity": 0, "duration": 317}, {"note": 69, "velocity": 102, "duration": 322}, {"note": 72, "velocity": 117, "duration": 766}, {"note": 0, "velocity": 0, "duration": 2714}, {"note": 69, "velocity": 112, "duration": 193}, {"note": 71, "velocity": 112, "duration": 104}, {"note": 0, "velocity": 0, "duration": 136}, {"note": 71, "velocity": 117, "duration": 191}, {"note": 72, "velocity": 102, "duration": 114}, {"note": 0, "velocity": 0, "duration": 126}, {"note": 72, "velocity": 127, "duration": 302}, {"note": 71, "velocity": 127, "duration": 113}, {"note": 0, "velocity": 0, "duration": 127}, {"note": 71, "velocity": 117, "duration": 193}, {"note": 69, "velocity": 117, "duration": 83}, {"note": 0, "velocity": 0, "duration": 157}, {"note": 67, "velocity": 112, "duration": 311}, {"note": 69, "velocity": 107, "duration": 200}, {"note": 0, "velocity": 0, "duration": 160}, {"note": 71, "velocity": 117, "duration": 406}, {"note": 0, "velocity": 0, "duration": 194}, {"note": 72, "velocity": 112, "duration": 276}, {"note": 0, "velocity": 0, "duration": 324}, {"note": 76, "velocity": 127, "duration": 221}, {"note": 0, "velocity": 0, "duration": 139}, {"note": 74, "velocity": 127, "duration": 114}, {"note": 0, "velocity": 0, "duration": 246}, {"note": 72, "velocity": 127, "duration": 241}, {"note": 0, "velocity": 0, "duration": 239}, {"note": 69, "velocity": 122, "duration": 218}, {"note": 0, "velocity": 0, "duration": 502}, {"note": 76, "velocity": 127, "duration": 187}, {"note": 0, "velocity": 0, "duration": 173}, {"note": 74, "velocity": 117, "duration": 185}, {"note": 0, "velocity": 0, "duration": 175}, {"note": 72, "velocity": 127, "duration": 174}, {"note": 0, "velocity": 0, "duration": 66}, {"note": 69, "velocity": 112, "duration": 264}, {"note": 0, "velocity": 0, "duration": 96}, {"note": 67, "velocity": 100, "duration": 283}, {"note": 0, "velocity": 0, "duration": 677}, {"note": 69, "velocity": 92, "duration": 269}, {"note": 0, "velocity": 0, "duration": 211}, {"note": 72, "velocity": 96, "duration": 1478}]]