[[{"note": 58, "velocity": 100, "duration": 384}, {"note": 0, "velocity": 0, "duration": 96}, {"note": 70, "velocity": 127, "duration": 925}, {"note": 70, "velocity": 127, "duration": 394}, {"note": 0, "velocity": 0, "duration": 86}, {"note": 67, "velocity": 112, "duration": 353}, {"note": 0, "velocity": 0, "duration": 127}, {"note": 65, "velocity": 122, "duration": 331}, {"note": 0, "velocity": 0, "duration": 149}, {"note": 63, "velocity": 99, "duration": 127}, {"note": 0, "velocity": 0, "duration": 113}, {"note": 65, "velocity": 100, "duration": 114}, {"note": 0, "velocity": 0, "duration": 126}, {"note": 67, "velocity": 122, "duration": 354}, {"note": 0, "velocity": 0, "duration": 366}, {"note": 65, "velocity": 107, "duration": 197}, {"note": 63, "velocity": 107, "duration": 406}, {"note": 0, "velocity": 0, "duration": 74}, {"note": 63, "velocity": 112, "duration": 220}, {"note": 55, "velocity": 127, "duration": 206}, {"note": 58, "velocity": 102, "duration": 530}, {"note": 0, "velocity": 0, "duration": 70}, {"note": 60, "velocity": 102, "duration": 240}, {"note": 63, "velocity": 95, "duration": 194}, {"note": 58, "velocity": 88, "duration": 608}, {"note": 0, "velocity": 0, "duration": 1192}, {"note": 60, "velocity": 97, "duration": 557}, {"note": 0, "velocity": 0, "duration": 163}, {"note": 58, "velocity": 92, "duration": 231}, {"note": 60, "velocity": 102, "duration": 442}, {"note": 63, "velocity": 99, "duration": 234}, {"note": 0, "velocity": 0, "duration": 246}, {"note": 65, "velocity": 107, "duration": 226}, {"note": 67, "velocity": 88, "duration": 157}, {"note": 65, "velocity": 83, "duration": 103}, {"note": 63, "velocity": 93, "duration": 183}, {"note": 65, "velocity": 95, "duration": 142}, {"note": 0, "velocity": 0, "duration": 98}, {"note": 67, "velocity": 107, "duration": 411}, {"note": 0, "velocity": 0, "duration": 309}, {"note": 70, "velocity": 100, "duration": 123}, {"note": 0, "velocity": 0, "duration": 117}, {"note": 65, "velocity": 95, "duration": 213}, {"note": 65, "velocity": 92, "duration": 296}, {"note": 0, "velocity": 0, "duration": 64}, {"note": 67, "velocity": 99, "duration": 198}, {"note": 0, "velocity": 0, "duration": 162}, {"note": 70, "velocity": 100, "duration": 339}, {"note": 0, "velocity": 0, "duration": 261}, {"note": 72, "velocity": 97, "duration": 257}, {"note": 75, "velocity": 100, "duration": 204}, {"note": 0, "velocity": 0, "duration": 156}, {"note": 70, "velocity": 95, "duration": 1104}, {"note": 0, "velocity": 0, "duration": 576}, {"note": 72, "velocity": 100, "duration": 170}, {"note": 0, "velocity": 0, "duration": 70}, {"note": 72, "velocity": 107, "duration": 361}, {"note": 0, "velocity": 0, "duration": 119}, {"note": 70, "velocity": 96, "duration": 184}, {"note": 67, "velocity": 102, "duration": 377}, {"note": 0, "velocity": 0, "duration": 103}, {"note": 67, "velocity": 127, "duration": 268}, {"note": 0, "velocity": 0, "duration": 212}, {"note": 63, "velocity": 100, "duration": 215}, {"note": 65, "velocity": 93, "duration": 181}, {"note": 67, "velocity": 102, "duration": 172}, {"note": 0, "velocity": 0, "duration": 68}, {"note": 70, "velocity": 89, "duration": 198}, {"note": 67, "velocity": 122, "duration": 618}, {"note": 0, "velocity": 0, "duration": 342}, {"note": 65, "velocity": 100, "duration": 142}, {"note": 0, "velocity": 0, "duration": 98}, {"note": 65, "velocity": 107, "duration": 345}, {"note": 0, "velocity": 0, "duration": 135}, {"note": 63, "velocity": 127, "duration": 137}, {"note": 0, "velocity": 0, "duration": 103}, {"note": 60, "velocity": 92, "duration": 217}, {"note": 58, "velocity": 88, "duration": 228}, {"note": 60, "velocity": 90, "duration": 326}, {"note": 63, "velocity": 97, "duration": 202}, {"note": 65, "velocity": 93, "duration": 1390}, {"note": 0, "velocity": 0, "duration": 530}, {"note": 67, "velocity": 122, "duration": 141}, {"note": 0, "velocity": 0, "duration": 99}, {"note": 67, "velocity": 102, "duration": 378}, {"note": 0, "velocity": 0, "duration": 102}, {"note": 65, "velocity": 97, "duration": 239}, {"note": 67, "velocity": 117, "duration": 205}, {"note": 70, "velocity": 96, "duration": 238}, {"note": 67, "velocity": 99, "duration": 403}, {"note": 0, "velocity": 0, "duration": 77}, {"note": 65, "velocity": 117, "duration": 212}, {"note": 67, "velocity": 107, "duration": 168}, {"note": 0, "velocity": 0, "duration": 72}, {"note": 65, "velocity": 107, "duration": 210}, {"note": 63, "velocity": 99, "duration": 191}, {"note": 60, "velocity": 112, "duration": 581}, {"note": 0, "velocity": 0, "duration": 379}, {"note": 58, "velocity": 107, "duration": 152}, {"note": 0, "velocity": 0, "duration": 88}, {"note": 70, "velocity": 102, "duration": 176}, {"note": 0, "velocity": 0, "duration": 64}, {"note": 67, "velocity": 102, "duration": 190}, {"note": 65, "velocity": 100, "duration": 179}, {"note": 67, "velocity": 102, "duration": 132}, {"note": 70, "velocity": 107, "duration": 228}, {"note": 72, "velocity": 97, "duration": 165}, {"note": 0, "velocity": 0, "duration": 75}, {"note": 67, "velocity": 97, "duration": 256}, {"note": 65, "velocity": 99, "duration": 227}, {"note": 63, "velocity": 100, "duration": 724}, {"note": 0, "velocity": 0, "duration": 1196}, {"note": 72, "velocity": 127, "duration": 275}, {"note": 0, "velocity": 0, "duration": 85}, {"note": 72, "velocity": 112, "duration": 56}, {"note": 0, "velocity": 0, "duration": 64}, {"note": 72, "velocity": 100, "duration": 235}, {"note": 0, "velocity": 0, "duration": 125}, {"note": 70, "velocity": 93, "duration": 103}, {"note": 67, "velocity": 100, "duration": 71}, {"note": 0, "velocity": 0, "duration": 169}, {"note": 67, "velocity": 122, "duration": 320}, {"note": 0, "velocity": 0, "duration": 400}, {"note": 65, "velocity": 96, "duration": 120}, {"note": 0, "velocity": 0, "duration": 120}, {"note": 65, "velocity": 102, "duration": 337}, {"note": 0, "velocity": 0, "duration": 143}, {"note": 63, "velocity": 92, "duration": 129}, {"note": 0, "velocity": 0, "duration": 111}, {"note": 60, "velocity": 100, "duration": 348}, {"note": 58, "velocity": 92, "duration": 101}, {"note": 60, "velocity": 97, "duration": 198}, {"note": 63, "velocity": 107, "duration": 205}, {"note": 65, "velocity": 97, "duration": 1440}, {"note": 0, "velocity": 0, "duration": 480}, {"note": 70, "velocity": 122, "duration": 288}, {"note": 72, "velocity": 83, "duration": 190}, {"note": 70, "velocity": 127, "duration": 164}, {"note": 0, "velocity": 0, "duration": 196}, {"note": 65, "velocity": 93, "duration": 98}, {"note": 67, "velocity": 100, "duration": 124}, {"note": 0, "velocity": 0, "duration": 116}, {"note": 67, "velocity": 107, "duration": 313}, {"note": 0, "velocity": 0, "duration": 167}, {"note": 70, "velocity": 99, "duration": 153}, {"note": 0, "velocity": 0, "duration": 87}, {"note": 65, "velocity": 96, "duration": 260}, {"note": 0, "velocity": 0, "duration": 100}, {"note": 65, "velocity": 83, "duration": 55}, {"note": 0, "velocity": 0, "duration": 65}, {"note": 65, "velocity": 90, "duration": 210}, {"note": 63, "velocity": 99, "duration": 179}, {"note": 0, "velocity": 0, "duration": 61}, {"note": 60, "velocity": 100, "duration": 282}, {"note": 0, "velocity": 0, "duration": 198}, {"note": 63, "velocity": 102, "duration": 230}, {"note": 65, "velocity": 100, "duration": 234}, {"note": 70, "velocity": 99, "duration": 1076}, {"note": 0, "velocity": 0, "duration": 604}, {"note": 70, "velocity": 127, "duration": 170}, {"note": 0, "velocity": 0, "duration": 70}, {"note": 72, "velocity": 107, "duration": 318}, {"note": 0, "velocity": 0, "duration": 162}, {"note": 67, "velocity": 122, "duration": 158}, {"note": 0, "velocity": 0, "duration": 82}, {"note": 70, "velocity": 122, "duration": 168}, {"note": 0, "velocity": 0, "duration": 72}, {"note": 72, "velocity": 127, "duration": 217}, {"note": 0, "velocity": 0, "duration": 263}, {"note": 72, "velocity": 122, "duration": 208}, {"note": 75, "velocity": 97, "duration": 208}, {"note": 70, "velocity": 99, "duration": 108}, {"note": 72, "velocity": 97, "duration": 133}, {"note": 0, "velocity": 0, "duration": 227}, {"note": 70, "velocity": 107, "duration": 231}, {"note": 67, "velocity": 90, "duration": 250}, {"note": 65, "velocity": 90, "duration": 578}, {"note": 0, "velocity": 0, "duration": 382}, {"note": 67, "velocity": 127, "duration": 347}, {"note": 0, "velocity": 0, "duration": 133}, {"note": 65, "velocity": 107, "duration": 213}, {"note": 63, "velocity": 90, "duration": 248}, {"note": 60, "velocity": 90, "duration": 411}, {"note": 0, "velocity": 0, "duration": 309}, {"note": 63, "velocity": 95, "duration": 166}, {"note": 0, "velocity": 0, "duration": 74}, {"note": 65, "velocity": 97, "duration": 211}, {"note": 67, "velocity": 97, "duration": 216}, {"note": 63, "velocity": 99, "duration": 238}, {"note": 65, "velocity": 93, "duration": 213}, {"note": 67, "velocity": 102, "duration": 589}, {"note": 0, "velocity": 0, "duration": 131}, {"note": 70, "velocity": 99, "duration": 195}, {"note": 72, "velocity": 107, "duration": 448}, {"note": 0, "velocity": 0, "duration": 272}, {"note": 67, "velocity": 112, "duration": 226}, {"note": 65, "velocity": 100, "duration": 404}, {"note": 0, "velocity": 0, "duration": 76}, {"note": 67, "velocity": 107, "duration": 244}, {"note": 65, "velocity": 79, "duration": 234}, {"note": 63, "velocity": 97, "duration": 1688}, {"note": 0, "velocity": 0, "duration": 17032}, {"note": 58, "velocity": 100, "duration": 384}, {"note": 0, "velocity": 0, "duration": 96}, {"note": 70, "velocity": 127, "duration": 925}, {"note": 70, "velocity": 127, "duration": 394}, {"note": 0, "velocity": 0, "duration": 86}, {"note": 67, "velocity": 112, "duration": 353}, {"note": 0, "velocity": 0, "duration": 127}, {"note": 65, "velocity": 122, "duration": 331}, {"note": 0, "velocity": 0, "duration": 149}, {"note": 63, "velocity": 99, "duration": 127}, {"note": 0, "velocity": 0, "duration": 113}, {"note": 65, "velocity": 100, "duration": 114}, {"note": 0, "velocity": 0, "duration": 126}, {"note": 67, "velocity": 122, "duration": 354}, {"note": 0, "velocity": 0, "duration": 366}, {"note": 65, "velocity": 107, "duration": 197}, {"note": 63, "velocity": 107, "duration": 406}, {"note": 0, "velocity": 0, "duration": 74}, {"note": 63, "velocity": 112, "duration": 220}, {"note": 55, "velocity": 127, "duration": 206}, {"note": 58, "velocity": 102, "duration": 530}, {"note": 0, "velocity": 0, "duration": 70}, {"note": 60, "velocity": 102, "duration": 240}, {"note": 63, "velocity": 95, "duration": 194}, {"note": 58, "velocity": 88, "duration": 608}, {"note": 0, "velocity": 0, "duration": 1192}, {"note": 60, "velocity": 97, "duration": 557}, {"note": 0, "velocity": 0, "duration": 163}, {"note": 58, "velocity": 92, "duration": 231}, {"note": 60, "velocity": 102, "duration": 442}, {"note": 63, "velocity": 99, "duration": 234}, {"note": 0, "velocity": 0, "duration": 246}, {"note": 65, "velocity": 107, "duration": 226}, {"note": 67, "velocity": 88, "duration": 157}, {"note": 65, "velocity": 83, "duration": 103}, {"note": 63, "velocity": 93, "duration": 183}, {"note": 65, "velocity": 95, "duration": 142}, {"note": 0, "velocity": 0, "duration": 98}, {"note": 67, "velocity": 107, "duration": 411}, {"note": 0, "velocity": 0, "duration": 309}, {"note": 70, "velocity": 100, "duration": 123}, {"note": 0, "velocity": 0, "duration": 117}, {"note": 65, "velocity": 95, "duration": 213}, {"note": 65, "velocity": 92, "duration": 296}, {"note": 0, "velocity": 0, "duration": 64}, {"note": 67, "velocity": 99, "duration": 198}, {"note": 0, "velocity": 0, "duration": 162}, {"note": 70, "velocity": 100, "duration": 339}, {"note": 0, "velocity": 0, "duration": 261}, {"note": 72, "velocity": 97, "duration": 257}, {"note": 75, "velocity": 100, "duration": 204}, {"note": 0, "velocity": 0, "duration": 156}, {"note": 70, "velocity": 95, "duration": 1104}, {"note": 0, "velocity": 0, "duration": 576}, {"note": 72, "velocity": 100, "duration": 170}, {"note": 0, "velocity": 0, "duration": 70}, {"note": 72, "velocity": 107, "duration": 361}, {"note": 0, "velocity": 0, "duration": 119}, {"note": 70, "velocity": 96, "duration": 184}, {"note": 67, "velocity": 102, "duration": 377}, {"note": 0, "velocity": 0, "duration": 103}, {"note": 67, "velocity": 127, "duration": 268}, {"note": 0, "velocity": 0, "duration": 212}, {"note": 63, "velocity": 100, "duration": 215}, {"note": 65, "velocity": 93, "duration": 181}, {"note": 67, "velocity": 102, "duration": 172}, {"note": 0, "velocity": 0, "duration": 68}, {"note": 70, "velocity": 89, "duration": 198}, {"note": 67, "velocity": 122, "duration": 618}, {"note": 0, "velocity": 0, "duration": 342}, {"note": 65, "velocity": 100, "duration": 142}, {"note": 0, "velocity": 0, "duration": 98}, {"note": 65, "velocity": 107, "duration": 345}, {"note": 0, "velocity": 0, "duration": 135}, {"note": 63, "velocity": 127, "duration": 137}, {"note": 0, "velocity": 0, "duration": 103}, {"note": 60, "velocity": 92, "duration": 217}, {"note": 58, "velocity": 88, "duration": 228}, {"note": 60, "velocity": 90, "duration": 326}, {"note": 63, "velocity": 97, "duration": 202}, {"note": 65, "velocity": 93, "duration": 1390}, {"note": 0, "velocity": 0, "duration": 530}, {"note": 67, "velocity": 122, "duration": 141}, {"note": 0, "velocity": 0, "duration": 99}, {"note": 67, "velocity": 102, "duration": 378}, {"note": 0, "velocity": 0, "duration": 102}, {"note": 65, "velocity": 97, "duration": 239}, {"note": 67, "velocity": 117, "duration": 205}, {"note": 70, "velocity": 96, "duration": 238}, {"note": 67, "velocity": 99, "duration": 403}, {"note": 0, "velocity": 0, "duration": 77}, {"note": 65, "velocity": 117, "duration": 212}, {"note": 67, "velocity": 107, "duration": 168}, {"note": 0, "velocity": 0, "duration": 72}, {"note": 65, "velocity": 107, "duration": 210}, {"note": 63, "velocity": 99, "duration": 191}, {"note": 60, "velocity": 112, "duration": 581}, {"note": 0, "velocity": 0, "duration": 379}, {"note": 58, "velocity": 107, "duration": 152}, {"note": 0, "velocity": 0, "duration": 88}, {"note": 70, "velocity": 102, "duration": 176}, {"note": 0, "velocity": 0, "duration": 64}, {"note": 67, "velocity": 102, "duration": 190}, {"note": 65, "velocity": 100, "duration": 179}, {"note": 67, "velocity": 102, "duration": 132}, {"note": 70, "velocity": 107, "duration": 228}, {"note": 72, "velocity": 97, "duration": 165}, {"note": 0, "velocity": 0, "duration": 75}, {"note": 67, "velocity": 97, "duration": 256}, {"note": 65, "velocity": 99, "duration": 227}, {"note": 63, "velocity": 100, "duration": 724}, {"note": 0, "velocity": 0, "duration": 1196}, {"note": 72, "velocity": 127, "duration": 275}, {"note": 0, "velocity": 0, "duration": 85}, {"note": 72, "velocity": 112, "duration": 56}, {"note": 0, "velocity": 0, "duration": 64}, {"note": 72, "velocity": 100, "duration": 235}, {"note": 0, "velocity": 0, "duration": 125}, {"note": 70, "velocity": 93, "duration": 103}, {"note": 67, "velocity": 100, "duration": 71}, {"note": 0, "velocity": 0, "duration": 169}, {"note": 67, "velocity": 122, "duration": 320}, {"note": 0, "velocity": 0, "duration": 400}, {"note": 65, "velocity": 96, "duration": 120}, {"note": 0, "velocity": 0, "duration": 120}, {"note": 65, "velocity": 102, "duration": 337}, {"note": 0, "velocity": 0, "duration": 143}, {"note": 63, "velocity": 92, "duration": 129}, {"note": 0, "velocity": 0, "duration": 111}, {"note": 60, "velocity": 100, "duration": 348}, {"note": 58, "velocity": 92, "duration": 101}, {"note": 60, "velocity": 97, "duration": 198}, {"note": 63, "velocity": 107, "duration": 205}, {"note": 65, "velocity": 97, "duration": 1440}, {"note": 0, "velocity": 0, "duration": 480}, {"note": 70, "velocity": 122, "duration": 288}, {"note": 72, "velocity": 83, "duration": 190}, {"note": 70, "velocity": 127, "duration": 164}, {"note": 0, "velocity": 0, "duration": 196}, {"note": 65, "velocity": 93, "duration": 98}, {"note": 67, "velocity": 100, "duration": 124}, {"note": 0, "velocity": 0, "duration": 116}, {"note": 67, "velocity": 107, "duration": 313}, {"note": 0, "velocity": 0, "duration": 167}, {"note": 70, "velocity": 99, "duration": 153}, {"note": 0, "velocity": 0, "duration": 87}, {"note": 65, "velocity": 96, "duration": 260}, {"note": 0, "velocity": 0, "duration": 100}, {"note": 65, "velocity": 83, "duration": 55}, {"note": 0, "velocity": 0, "duration": 65}, {"note": 65, "velocity": 90, "duration": 210}, {"note": 63, "velocity": 99, "duration": 179}, {"note": 0, "velocity": 0, "duration": 61}, {"note": 60, "velocity": 100, "duration": 282}, {"note": 0, "velocity": 0, "duration": 198}, {"note": 63, "velocity": 102, "duration": 230}, {"note": 65, "velocity": 100, "duration": 234}, {"note": 70, "velocity": 99, "duration": 1076}, {"note": 0, "velocity": 0, "duration": 604}, {"note": 70, "velocity": 127, "duration": 170}, {"note": 0, "velocity": 0, "duration": 70}, {"note": 72, "velocity": 107, "duration": 318}, {"note": 0, "velocity": 0, "duration": 162}, {"note": 67, "velocity": 122, "duration": 158}, {"note": 0, "velocity": 0, "duration": 82}, {"note": 70, "velocity": 122, "duration": 168}, {"note": 0, "velocity": 0, "duration": 72}, {"note": 72, "velocity": 127, "duration": 217}, {"note": 0, "velocity": 0, "duration": 263}, {"note": 72, "velocity": 122, "duration": 208}, {"note": 75, "velocity": 97, "duration": 208}, {"note": 70, "velocity": 99, "duration": 108}, {"note": 72, "velocity": 97, "duration": 133}, {"note": 0, "velocity": 0, "duration": 227}, {"note": 70, "velocity": 107, "duration": 231}, {"note": 67, "velocity": 90, "duration": 250}, {"note": 65, "velocity": 90, "duration": 578}, {"note": 0, "velocity": 0, "duration": 382}, {"note": 67, "velocity": 127, "duration": 347}, {"note": 0, "velocity": 0, "duration": 133}, {"note": 65, "velocity": 107, "duration": 213}, {"note": 63, "velocity": 90, "duration": 248}, {"note": 60, "velocity": 90, "duration": 411}, {"note": 0, "velocity": 0, "duration": 309}, {"note": 63, "velocity": 95, "duration": 166}, {"note": 0, "velocity": 0, "duration": 74}, {"note": 65, "velocity": 97, "duration": 211}, {"note": 67, "velocity": 97, "duration": 216}, {"note": 63, "velocity": 99, "duration": 238}, {"note": 65, "velocity": 93, "duration": 213}, {"note": 67, "velocity": 102, "duration": 589}, {"note": 0, "velocity": 0, "duration": 131}, {"note": 70, "velocity": 99, "duration": 195}, {"note": 72, "velocity": 107, "duration": 448}, {"note": 0, "velocity": 0, "duration": 272}, {"note": 67, "velocity": 112, "duration": 226}, {"note": 65, "velocity": 100, "duration": 404}, {"note": 0, "velocity": 0, "duration": 76}, {"note": 67, "velocity": 107, "duration": 244}, {"note": 65, "velocity": 79, "duration": 234}, {"note": 63, "velocity": 97, "duration": 1688}]]