[[{"note": 58, "velocity": 96, "duration": 282}, {"note": 53, "velocity": 61, "duration": 240}, {"note": 58, "velocity": 86, "duration": 203}, {"note": 61, "velocity": 95, "duration": 239}, {"note": 58, "velocity": 85, "duration": 440}, {"note": 0, "velocity": 0, "duration": 280}, {"note": 56, "velocity": 89, "duration": 245}, {"note": 58, "velocity": 93, "duration": 223}, {"note": 70, "velocity": 97, "duration": 137}, {"note": 0, "velocity": 0, "duration": 103}, {"note": 70, "velocity": 83, "duration": 209}, {"note": 68, "velocity": 82, "duration": 222}, {"note": 65, "velocity": 86, "duration": 435}, {"note": 0, "velocity": 0, "duration": 525}, {"note": 63, "velocity": 95, "duration": 242}, {"note": 68, "velocity": 99, "duration": 567}, {"note": 70, "velocity": 102, "duration": 197}, {"note": 68, "velocity": 90, "duration": 232}, {"note": 65, "velocity": 88, "duration": 173}, {"note": 0, "velocity": 0, "duration": 67}, {"note": 63, "velocity": 88, "duration": 216}, {"note": 61, "velocity": 90, "duration": 129}, {"note": 63, "velocity": 88, "duration": 140}, {"note": 65, "velocity": 89, "duration": 785}, {"note": 0, "velocity": 0, "duration": 895}, {"note": 65, "velocity": 85, "duration": 112}, {"note": 0, "velocity": 0, "duration": 128}, {"note": 65, "velocity": 97, "duration": 249}, {"note": 0, "velocity": 0, "duration": 111}, {"note": 63, "velocity": 82, "duration": 57}, {"note": 0, "velocity": 0, "duration": 63}, {"note": 63, "velocity": 93, "duration": 167}, {"note": 0, "velocity": 0, "duration": 73}, {"note": 58, "velocity": 95, "duration": 203}, {"note": 61, "velocity": 90, "duration": 480}, {"note": 0, "velocity": 0, "duration": 240}, {"note": 63, "velocity": 81, "duration": 258}, {"note": 53, "velocity": 89, "duration": 475}, {"note": 56, "velocity": 73, "duration": 117}, {"note": 58, "velocity": 77, "duration": 237}, {"note": 61, "velocity": 82, "duration": 270}, {"note": 58, "velocity": 83, "duration": 499}, {"note": 0, "velocity": 0, "duration": 461}, {"note": 58, "velocity": 85, "duration": 240}, {"note": 63, "velocity": 100, "duration": 424}, {"note": 65, "velocity": 90, "duration": 217}, {"note": 61, "velocity": 93, "duration": 292}, {"note": 61, "velocity": 102, "duration": 52}, {"note": 0, "velocity": 0, "duration": 188}, {"note": 63, "velocity": 97, "duration": 215}, {"note": 58, "velocity": 93, "duration": 225}, {"note": 56, "velocity": 93, "duration": 989}, {"note": 0, "velocity": 0, "duration": 931}, {"note": 58, "velocity": 96, "duration": 282}, {"note": 53, "velocity": 61, "duration": 240}, {"note": 58, "velocity": 86, "duration": 203}, {"note": 61, "velocity": 95, "duration": 239}, {"note": 58, "velocity": 85, "duration": 440}, {"note": 0, "velocity": 0, "duration": 280}, {"note": 56, "velocity": 89, "duration": 245}, {"note": 58, "velocity": 93, "duration": 223}, {"note": 70, "velocity": 97, "duration": 137}, {"note": 0, "velocity": 0, "duration": 103}, {"note": 70, "velocity": 83, "duration": 209}, {"note": 68, "velocity": 82, "duration": 222}, {"note": 65, "velocity": 86, "duration": 435}, {"note": 0, "velocity": 0, "duration": 525}, {"note": 63, "velocity": 95, "duration": 242}, {"note": 68, "velocity": 99, "duration": 567}, {"note": 70, "velocity": 102, "duration": 197}, {"note": 68, "velocity": 90, "duration": 232}, {"note": 65, "velocity": 88, "duration": 173}, {"note": 0, "velocity": 0, "duration": 67}, {"note": 63, "velocity": 88, "duration": 216}, {"note": 61, "velocity": 90, "duration": 129}, {"note": 63, "velocity": 88, "duration": 140}, {"note": 65, "velocity": 89, "duration": 785}, {"note": 0, "velocity": 0, "duration": 895}, {"note": 65, "velocity": 85, "duration": 112}, {"note": 0, "velocity": 0, "duration": 128}, {"note": 65, "velocity": 97, "duration": 249}, {"note": 0, "velocity": 0, "duration": 111}, {"note": 63, "velocity": 82, "duration": 57}, {"note": 0, "velocity": 0, "duration": 63}, {"note": 63, "velocity": 93, "duration": 167}, {"note": 0, "velocity": 0, "duration": 73}, {"note": 58, "velocity": 95, "duration": 203}, {"note": 61, "velocity": 90, "duration": 480}, {"note": 0, "velocity": 0, "duration": 240}, {"note": 63, "velocity": 81, "duration": 258}, {"note": 53, "velocity": 89, "duration": 475}, {"note": 56, "velocity": 73, "duration": 117}, {"note": 58, "velocity": 77, "duration": 237}, {"note": 61, "velocity": 82, "duration": 270}, {"note": 58, "velocity": 83, "duration": 499}, {"note": 0, "velocity": 0, "duration": 461}, {"note": 58, "velocity": 85, "duration": 240}, {"note": 63, "velocity": 100, "duration": 424}, {"note": 65, "velocity": 90, "duration": 217}, {"note": 63, "velocity": 97, "duration": 236}, {"note": 61, "velocity": 100, "duration": 187}, {"note": 58, "velocity": 97, "duration": 237}, {"note": 56, "velocity": 90, "duration": 231}, {"note": 58, "velocity": 93, "duration": 128}, {"note": 61, "velocity": 97, "duration": 494}, {"note": 0, "velocity": 0, "duration": 1186}, {"note": 61, "velocity": 92, "duration": 182}, {"note": 63, "velocity": 96, "duration": 257}, {"note": 0, "velocity": 0, "duration": 103}, {"note": 61, "velocity": 95, "duration": 110}, {"note": 63, "velocity": 69, "duration": 114}, {"note": 61, "velocity": 85, "duration": 146}, {"note": 63, "velocity": 81, "duration": 96}, {"note": 65, "velocity": 89, "duration": 151}, {"note": 61, "velocity": 85, "duration": 91}, {"note": 58, "velocity": 82, "duration": 555}, {"note": 68, "velocity": 96, "duration": 153}, {"note": 65, "velocity": 74, "duration": 109}, {"note": 63, "velocity": 88, "duration": 297}, {"note": 0, "velocity": 0, "duration": 63}, {"note": 61, "velocity": 78, "duration": 99}, {"note": 63, "velocity": 71, "duration": 119}, {"note": 61, "velocity": 85, "duration": 146}, {"note": 63, "velocity": 82, "duration": 123}, {"note": 65, "velocity": 83, "duration": 167}, {"note": 63, "velocity": 92, "duration": 407}, {"note": 0, "velocity": 0, "duration": 313}, {"note": 65, "velocity": 76, "duration": 135}, {"note": 68, "velocity": 69, "duration": 95}, {"note": 70, "velocity": 90, "duration": 383}, {"note": 68, "velocity": 83, "duration": 101}, {"note": 70, "velocity": 92, "duration": 177}, {"note": 0, "velocity": 0, "duration": 63}, {"note": 73, "velocity": 93, "duration": 212}, {"note": 70, "velocity": 95, "duration": 375}, {"note": 0, "velocity": 0, "duration": 345}, {"note": 65, "velocity": 97, "duration": 152}, {"note": 0, "velocity": 0, "duration": 88}, {"note": 63, "velocity": 99, "duration": 283}, {"note": 0, "velocity": 0, "duration": 77}, {"note": 61, "velocity": 95, "duration": 97}, {"note": 63, "velocity": 83, "duration": 95}, {"note": 61, "velocity": 93, "duration": 126}, {"note": 63, "velocity": 96, "duration": 137}, {"note": 65, "velocity": 82, "duration": 93}, {"note": 68, "velocity": 99, "duration": 618}, {"note": 0, "velocity": 0, "duration": 102}, {"note": 61, "velocity": 97, "duration": 204}, {"note": 63, "velocity": 96, "duration": 304}, {"note": 61, "velocity": 82, "duration": 128}, {"note": 63, "velocity": 90, "duration": 120}, {"note": 61, "velocity": 95, "duration": 147}, {"note": 63, "velocity": 90, "duration": 145}, {"note": 65, "velocity": 90, "duration": 93}, {"note": 61, "velocity": 93, "duration": 136}, {"note": 58, "velocity": 93, "duration": 476}, {"note": 0, "velocity": 0, "duration": 124}, {"note": 68, "velocity": 102, "duration": 120}, {"note": 65, "velocity": 77, "duration": 90}, {"note": 63, "velocity": 96, "duration": 223}, {"note": 0, "velocity": 0, "duration": 137}, {"note": 61, "velocity": 93, "duration": 93}, {"note": 63, "velocity": 90, "duration": 105}, {"note": 61, "velocity": 92, "duration": 128}, {"note": 63, "velocity": 73, "duration": 105}, {"note": 65, "velocity": 76, "duration": 152}, {"note": 63, "velocity": 102, "duration": 422}, {"note": 0, "velocity": 0, "duration": 298}, {"note": 65, "velocity": 66, "duration": 128}, {"note": 68, "velocity": 75, "duration": 132}, {"note": 70, "velocity": 89, "duration": 237}, {"note": 0, "velocity": 0, "duration": 123}, {"note": 68, "velocity": 89, "duration": 82}, {"note": 70, "velocity": 74, "duration": 126}, {"note": 68, "velocity": 89, "duration": 132}, {"note": 70, "velocity": 88, "duration": 103}, {"note": 73, "velocity": 88, "duration": 146}, {"note": 70, "velocity": 93, "duration": 103}, {"note": 0, "velocity": 0, "duration": 137}, {"note": 70, "velocity": 96, "duration": 327}, {"note": 0, "velocity": 0, "duration": 153}, {"note": 65, "velocity": 93, "duration": 206}, {"note": 68, "velocity": 97, "duration": 1171}, {"note": 0, "velocity": 0, "duration": 749}, {"note": 58, "velocity": 96, "duration": 282}, {"note": 53, "velocity": 61, "duration": 240}, {"note": 58, "velocity": 86, "duration": 203}, {"note": 61, "velocity": 95, "duration": 239}, {"note": 58, "velocity": 85, "duration": 440}, {"note": 0, "velocity": 0, "duration": 280}, {"note": 56, "velocity": 89, "duration": 245}, {"note": 58, "velocity": 93, "duration": 223}, {"note": 70, "velocity": 97, "duration": 137}, {"note": 0, "velocity": 0, "duration": 103}, {"note": 70, "velocity": 83, "duration": 209}, {"note": 68, "velocity": 82, "duration": 222}, {"note": 65, "velocity": 86, "duration": 435}, {"note": 0, "velocity": 0, "duration": 525}, {"note": 63, "velocity": 95, "duration": 242}, {"note": 68, "velocity": 99, "duration": 567}, {"note": 70, "velocity": 102, "duration": 197}, {"note": 68, "velocity": 90, "duration": 232}, {"note": 65, "velocity": 88, "duration": 173}, {"note": 0, "velocity": 0, "duration": 67}, {"note": 63, "velocity": 88, "duration": 216}, {"note": 61, "velocity": 90, "duration": 129}, {"note": 63, "velocity": 88, "duration": 140}, {"note": 65, "velocity": 89, "duration": 785}, {"note": 0, "velocity": 0, "duration": 895}, {"note": 65, "velocity": 85, "duration": 112}, {"note": 0, "velocity": 0, "duration": 128}, {"note": 65, "velocity": 97, "duration": 249}, {"note": 0, "velocity": 0, "duration": 111}, {"note": 63, "velocity": 82, "duration": 57}, {"note": 0, "velocity": 0, "duration": 63}, {"note": 63, "velocity": 93, "duration": 167}, {"note": 0, "velocity": 0, "duration": 73}, {"note": 58, "velocity": 95, "duration": 203}, {"note": 61, "velocity": 90, "duration": 480}, {"note": 0, "velocity": 0, "duration": 240}, {"note": 63, "velocity": 81, "duration": 258}, {"note": 53, "velocity": 89, "duration": 475}, {"note": 56, "velocity": 73, "duration": 117}, {"note": 58, "velocity": 77, "duration": 237}, {"note": 61, "velocity": 82, "duration": 270}, {"note": 58, "velocity": 83, "duration": 499}, {"note": 0, "velocity": 0, "duration": 461}, {"note": 58, "velocity": 85, "duration": 240}, {"note": 63, "velocity": 100, "duration": 424}, {"note": 65, "velocity": 90, "duration": 217}, {"note": 63, "velocity": 93, "duration": 216}, {"note": 63, "velocity": 100, "duration": 120}, {"note": 61, "velocity": 83, "duration": 91}, {"note": 58, "velocity": 100, "duration": 235}, {"note": 56, "velocity": 89, "duration": 259}, {"note": 58, "velocity": 93, "duration": 184}, {"note": 61, "velocity": 100, "duration": 385}, {"note": 0, "velocity": 0, "duration": 16655}, {"note": 61, "velocity": 92, "duration": 182}, {"note": 63, "velocity": 96, "duration": 257}, {"note": 0, "velocity": 0, "duration": 103}, {"note": 61, "velocity": 95, "duration": 110}, {"note": 63, "velocity": 69, "duration": 114}, {"note": 61, "velocity": 85, "duration": 146}, {"note": 63, "velocity": 81, "duration": 96}, {"note": 65, "velocity": 89, "duration": 151}, {"note": 61, "velocity": 85, "duration": 91}, {"note": 58, "velocity": 82, "duration": 555}, {"note": 68, "velocity": 96, "duration": 153}, {"note": 65, "velocity": 74, "duration": 109}, {"note": 63, "velocity": 88, "duration": 297}, {"note": 0, "velocity": 0, "duration": 63}, {"note": 61, "velocity": 78, "duration": 99}, {"note": 63, "velocity": 71, "duration": 119}, {"note": 61, "velocity": 85, "duration": 146}, {"note": 63, "velocity": 82, "duration": 123}, {"note": 65, "velocity": 83, "duration": 167}, {"note": 63, "velocity": 92, "duration": 407}, {"note": 0, "velocity": 0, "duration": 313}, {"note": 65, "velocity": 76, "duration": 135}, {"note": 68, "velocity": 69, "duration": 95}, {"note": 70, "velocity": 90, "duration": 383}, {"note": 68, "velocity": 83, "duration": 101}, {"note": 70, "velocity": 92, "duration": 177}, {"note": 0, "velocity": 0, "duration": 63}, {"note": 73, "velocity": 93, "duration": 212}, {"note": 70, "velocity": 95, "duration": 375}, {"note": 0, "velocity": 0, "duration": 345}, {"note": 65, "velocity": 97, "duration": 152}, {"note": 0, "velocity": 0, "duration": 88}, {"note": 63, "velocity": 99, "duration": 283}, {"note": 0, "velocity": 0, "duration": 77}, {"note": 61, "velocity": 95, "duration": 97}, {"note": 63, "velocity": 83, "duration": 95}, {"note": 61, "velocity": 93, "duration": 126}, {"note": 63, "velocity": 96, "duration": 137}, {"note": 65, "velocity": 82, "duration": 93}, {"note": 68, "velocity": 99, "duration": 618}, {"note": 0, "velocity": 0, "duration": 102}, {"note": 61, "velocity": 97, "duration": 204}, {"note": 63, "velocity": 96, "duration": 304}, {"note": 61, "velocity": 82, "duration": 128}, {"note": 63, "velocity": 90, "duration": 120}, {"note": 61, "velocity": 95, "duration": 147}, {"note": 63, "velocity": 90, "duration": 145}, {"note": 65, "velocity": 90, "duration": 93}, {"note": 61, "velocity": 93, "duration": 136}, {"note": 58, "velocity": 93, "duration": 476}, {"note": 0, "velocity": 0, "duration": 124}, {"note": 68, "velocity": 102, "duration": 120}, {"note": 65, "velocity": 77, "duration": 90}, {"note": 63, "velocity": 96, "duration": 223}, {"note": 0, "velocity": 0, "duration": 137}, {"note": 61, "velocity": 93, "duration": 93}, {"note": 63, "velocity": 90, "duration": 105}, {"note": 61, "velocity": 92, "duration": 128}, {"note": 63, "velocity": 73, "duration": 105}, {"note": 65, "velocity": 76, "duration": 152}, {"note": 63, "velocity": 102, "duration": 422}, {"note": 0, "velocity": 0, "duration": 298}, {"note": 65, "velocity": 66, "duration": 128}, {"note": 68, "velocity": 75, "duration": 132}, {"note": 70, "velocity": 89, "duration": 237}, {"note": 0, "velocity": 0, "duration": 123}, {"note": 68, "velocity": 89, "duration": 82}, {"note": 70, "velocity": 74, "duration": 126}, {"note": 68, "velocity": 89, "duration": 132}, {"note": 70, "velocity": 88, "duration": 103}, {"note": 73, "velocity": 88, "duration": 146}, {"note": 70, "velocity": 93, "duration": 103}, {"note": 0, "velocity": 0, "duration": 137}, {"note": 70, "velocity": 96, "duration": 327}, {"note": 0, "velocity": 0, "duration": 153}, {"note": 65, "velocity": 93, "duration": 206}, {"note": 68, "velocity": 97, "duration": 1171}, {"note": 0, "velocity": 0, "duration": 749}, {"note": 58, "velocity": 96, "duration": 282}, {"note": 53, "velocity": 61, "duration": 240}, {"note": 58, "velocity": 86, "duration": 203}, {"note": 61, "velocity": 95, "duration": 239}, {"note": 58, "velocity": 85, "duration": 440}, {"note": 0, "velocity": 0, "duration": 280}, {"note": 56, "velocity": 89, "duration": 245}, {"note": 58, "velocity": 93, "duration": 223}, {"note": 70, "velocity": 97, "duration": 137}, {"note": 0, "velocity": 0, "duration": 103}, {"note": 70, "velocity": 83, "duration": 209}, {"note": 68, "velocity": 82, "duration": 222}, {"note": 65, "velocity": 86, "duration": 435}, {"note": 0, "velocity": 0, "duration": 525}, {"note": 63, "velocity": 95, "duration": 242}, {"note": 68, "velocity": 99, "duration": 567}, {"note": 70, "velocity": 102, "duration": 197}, {"note": 68, "velocity": 90, "duration": 232}, {"note": 65, "velocity": 88, "duration": 173}, {"note": 0, "velocity": 0, "duration": 67}, {"note": 63, "velocity": 88, "duration": 216}, {"note": 61, "velocity": 90, "duration": 129}, {"note": 63, "velocity": 88, "duration": 140}, {"note": 65, "velocity": 89, "duration": 785}, {"note": 0, "velocity": 0, "duration": 895}, {"note": 65, "velocity": 85, "duration": 112}, {"note": 0, "velocity": 0, "duration": 128}, {"note": 65, "velocity": 97, "duration": 249}, {"note": 0, "velocity": 0, "duration": 111}, {"note": 63, "velocity": 82, "duration": 57}, {"note": 0, "velocity": 0, "duration": 63}, {"note": 63, "velocity": 93, "duration": 167}, {"note": 0, "velocity": 0, "duration": 73}, {"note": 58, "velocity": 95, "duration": 203}, {"note": 61, "velocity": 90, "duration": 480}, {"note": 0, "velocity": 0, "duration": 240}, {"note": 63, "velocity": 81, "duration": 258}, {"note": 53, "velocity": 89, "duration": 475}, {"note": 56, "velocity": 73, "duration": 117}, {"note": 58, "velocity": 77, "duration": 237}, {"note": 61, "velocity": 82, "duration": 270}, {"note": 58, "velocity": 83, "duration": 499}, {"note": 0, "velocity": 0, "duration": 461}, {"note": 58, "velocity": 85, "duration": 240}, {"note": 63, "velocity": 100, "duration": 424}, {"note": 65, "velocity": 90, "duration": 217}, {"note": 63, "velocity": 93, "duration": 216}, {"note": 63, "velocity": 100, "duration": 120}, {"note": 61, "velocity": 83, "duration": 91}, {"note": 58, "velocity": 100, "duration": 235}, {"note": 56, "velocity": 89, "duration": 259}, {"note": 58, "velocity": 93, "duration": 184}, {"note": 61, "velocity": 100, "duration": 385}]]