[[{"note": 57, "velocity": 97, "duration": 227}, {"note": 59, "velocity": 85, "duration": 216}, {"note": 66, "velocity": 96, "duration": 562}, {"note": 0, "velocity": 0, "duration": 158}, {"note": 64, "velocity": 100, "duration": 172}, {"note": 0, "velocity": 0, "duration": 68}, {"note": 64, "velocity": 86, "duration": 251}, {"note": 62, "velocity": 90, "duration": 160}, {"note": 0, "velocity": 0, "duration": 80}, {"note": 62, "velocity": 88, "duration": 209}, {"note": 59, "velocity": 75, "duration": 233}, {"note": 62, "velocity": 77, "duration": 1240}, {"note": 0, "velocity": 0, "duration": 200}, {"note": 66, "velocity": 96, "duration": 217}, {"note": 69, "velocity": 93, "duration": 213}, {"note": 71, "velocity": 99, "duration": 592}, {"note": 0, "velocity": 0, "duration": 128}, {"note": 69, "velocity": 96, "duration": 257}, {"note": 71, "velocity": 96, "duration": 254}, {"note": 69, "velocity": 89, "duration": 133}, {"note": 0, "velocity": 0, "duration": 107}, {"note": 66, "velocity": 77, "duration": 169}, {"note": 0, "velocity": 0, "duration": 71}, {"note": 66, "velocity": 78, "duration": 220}, {"note": 69, "velocity": 85, "duration": 1207}, {"note": 0, "velocity": 0, "duration": 233}, {"note": 69, "velocity": 90, "duration": 232}, {"note": 71, "velocity": 77, "duration": 207}, {"note": 74, "velocity": 88, "duration": 574}, {"note": 0, "velocity": 0, "duration": 146}, {"note": 71, "velocity": 86, "duration": 211}, {"note": 71, "velocity": 93, "duration": 164}, {"note": 0, "velocity": 0, "duration": 76}, {"note": 69, "velocity": 95, "duration": 162}, {"note": 0, "velocity": 0, "duration": 78}, {"note": 66, "velocity": 93, "duration": 143}, {"note": 0, "velocity": 0, "duration": 97}, {"note": 64, "velocity": 89, "duration": 176}, {"note": 0, "velocity": 0, "duration": 64}, {"note": 66, "velocity": 93, "duration": 226}, {"note": 66, "velocity": 92, "duration": 145}, {"note": 0, "velocity": 0, "duration": 95}, {"note": 66, "velocity": 107, "duration": 168}, {"note": 0, "velocity": 0, "duration": 72}, {"note": 64, "velocity": 90, "duration": 188}, {"note": 62, "velocity": 93, "duration": 393}, {"note": 0, "velocity": 0, "duration": 87}, {"note": 59, "velocity": 89, "duration": 215}, {"note": 66, "velocity": 90, "duration": 182}, {"note": 64, "velocity": 88, "duration": 209}, {"note": 66, "velocity": 97, "duration": 317}, {"note": 0, "velocity": 0, "duration": 163}, {"note": 64, "velocity": 85, "duration": 109}, {"note": 66, "velocity": 86, "duration": 146}, {"note": 64, "velocity": 72, "duration": 139}, {"note": 0, "velocity": 0, "duration": 101}, {"note": 64, "velocity": 83, "duration": 155}, {"note": 0, "velocity": 0, "duration": 85}, {"note": 64, "velocity": 76, "duration": 166}, {"note": 0, "velocity": 0, "duration": 74}, {"note": 62, "velocity": 78, "duration": 216}, {"note": 64, "velocity": 77, "duration": 976}, {"note": 0, "velocity": 0, "duration": 464}, {"note": 57, "velocity": 90, "duration": 240}, {"note": 59, "velocity": 73, "duration": 235}, {"note": 66, "velocity": 78, "duration": 606}, {"note": 0, "velocity": 0, "duration": 114}, {"note": 64, "velocity": 79, "duration": 177}, {"note": 0, "velocity": 0, "duration": 63}, {"note": 64, "velocity": 82, "duration": 204}, {"note": 62, "velocity": 90, "duration": 173}, {"note": 0, "velocity": 0, "duration": 67}, {"note": 59, "velocity": 96, "duration": 144}, {"note": 0, "velocity": 0, "duration": 96}, {"note": 59, "velocity": 92, "duration": 163}, {"note": 0, "velocity": 0, "duration": 77}, {"note": 62, "velocity": 83, "duration": 895}, {"note": 0, "velocity": 0, "duration": 545}, {"note": 66, "velocity": 99, "duration": 208}, {"note": 69, "velocity": 93, "duration": 179}, {"note": 0, "velocity": 0, "duration": 61}, {"note": 71, "velocity": 107, "duration": 520}, {"note": 0, "velocity": 0, "duration": 200}, {"note": 69, "velocity": 96, "duration": 151}, {"note": 0, "velocity": 0, "duration": 89}, {"note": 71, "velocity": 97, "duration": 215}, {"note": 69, "velocity": 88, "duration": 176}, {"note": 0, "velocity": 0, "duration": 64}, {"note": 66, "velocity": 79, "duration": 171}, {"note": 0, "velocity": 0, "duration": 69}, {"note": 66, "velocity": 95, "duration": 202}, {"note": 69, "velocity": 92, "duration": 1006}, {"note": 0, "velocity": 0, "duration": 434}, {"note": 69, "velocity": 95, "duration": 222}, {"note": 71, "velocity": 95, "duration": 251}, {"note": 74, "velocity": 95, "duration": 449}, {"note": 0, "velocity": 0, "duration": 271}, {"note": 71, "velocity": 100, "duration": 186}, {"note": 71, "velocity": 93, "duration": 241}, {"note": 69, "velocity": 96, "duration": 199}, {"note": 66, "velocity": 97, "duration": 202}, {"note": 64, "velocity": 86, "duration": 249}, {"note": 66, "velocity": 82, "duration": 167}, {"note": 0, "velocity": 0, "duration": 73}, {"note": 66, "velocity": 100, "duration": 152}, {"note": 0, "velocity": 0, "duration": 88}, {"note": 66, "velocity": 99, "duration": 196}, {"note": 64, "velocity": 86, "duration": 186}, {"note": 62, "velocity": 82, "duration": 302}, {"note": 0, "velocity": 0, "duration": 178}, {"note": 59, "velocity": 90, "duration": 225}, {"note": 66, "velocity": 97, "duration": 247}, {"note": 64, "velocity": 86, "duration": 523}, {"note": 0, "velocity": 0, "duration": 197}, {"note": 64, "velocity": 92, "duration": 94}, {"note": 66, "velocity": 96, "duration": 145}, {"note": 64, "velocity": 89, "duration": 163}, {"note": 0, "velocity": 0, "duration": 77}, {"note": 64, "velocity": 90, "duration": 181}, {"note": 64, "velocity": 85, "duration": 200}, {"note": 62, "velocity": 96, "duration": 221}, {"note": 69, "velocity": 112, "duration": 1293}, {"note": 0, "velocity": 0, "duration": 147}, {"note": 69, "velocity": 96, "duration": 209}, {"note": 71, "velocity": 96, "duration": 183}, {"note": 74, "velocity": 99, "duration": 499}, {"note": 0, "velocity": 0, "duration": 221}, {"note": 76, "velocity": 107, "duration": 138}, {"note": 0, "velocity": 0, "duration": 102}, {"note": 76, "velocity": 97, "duration": 185}, {"note": 74, "velocity": 97, "duration": 137}, {"note": 0, "velocity": 0, "duration": 103}, {"note": 71, "velocity": 96, "duration": 147}, {"note": 0, "velocity": 0, "duration": 93}, {"note": 71, "velocity": 93, "duration": 61}, {"note": 71, "velocity": 92, "duration": 80}, {"note": 74, "velocity": 102, "duration": 721}, {"note": 0, "velocity": 0, "duration": 719}, {"note": 69, "velocity": 96, "duration": 186}, {"note": 71, "velocity": 96, "duration": 182}, {"note": 74, "velocity": 99, "duration": 467}, {"note": 0, "velocity": 0, "duration": 253}, {"note": 76, "velocity": 96, "duration": 198}, {"note": 76, "velocity": 96, "duration": 176}, {"note": 0, "velocity": 0, "duration": 64}, {"note": 74, "velocity": 96, "duration": 156}, {"note": 0, "velocity": 0, "duration": 84}, {"note": 71, "velocity": 90, "duration": 197}, {"note": 69, "velocity": 96, "duration": 239}, {"note": 71, "velocity": 99, "duration": 757}, {"note": 0, "velocity": 0, "duration": 679}, {"note": 69, "velocity": 96, "duration": 214}, {"note": 71, "velocity": 100, "duration": 225}, {"note": 71, "velocity": 100, "duration": 157}, {"note": 74, "velocity": 100, "duration": 473}, {"note": 0, "velocity": 0, "duration": 93}, {"note": 76, "velocity": 122, "duration": 168}, {"note": 0, "velocity": 0, "duration": 72}, {"note": 76, "velocity": 100, "duration": 221}, {"note": 74, "velocity": 96, "duration": 166}, {"note": 0, "velocity": 0, "duration": 74}, {"note": 71, "velocity": 92, "duration": 182}, {"note": 69, "velocity": 96, "duration": 204}, {"note": 71, "velocity": 95, "duration": 167}, {"note": 0, "velocity": 0, "duration": 73}, {"note": 71, "velocity": 99, "duration": 55}, {"note": 0, "velocity": 0, "duration": 65}, {"note": 71, "velocity": 93, "duration": 53}, {"note": 0, "velocity": 0, "duration": 67}, {"note": 71, "velocity": 99, "duration": 215}, {"note": 69, "velocity": 95, "duration": 251}, {"note": 66, "velocity": 99, "duration": 364}, {"note": 0, "velocity": 0, "duration": 116}, {"note": 66, "velocity": 99, "duration": 179}, {"note": 0, "velocity": 0, "duration": 61}, {"note": 71, "velocity": 93, "duration": 239}, {"note": 69, "velocity": 90, "duration": 480}, {"note": 0, "velocity": 0, "duration": 240}, {"note": 69, "velocity": 96, "duration": 122}, {"note": 71, "velocity": 77, "duration": 113}, {"note": 66, "velocity": 86, "duration": 263}, {"note": 64, "velocity": 100, "duration": 154}, {"note": 0, "velocity": 0, "duration": 86}, {"note": 64, "velocity": 77, "duration": 149}, {"note": 0, "velocity": 0, "duration": 91}, {"note": 64, "velocity": 95, "duration": 110}, {"note": 62, "velocity": 76, "duration": 111}, {"note": 66, "velocity": 102, "duration": 123}, {"note": 69, "velocity": 85, "duration": 866}, {"note": 0, "velocity": 0, "duration": 454}, {"note": 69, "velocity": 96, "duration": 209}, {"note": 71, "velocity": 96, "duration": 183}, {"note": 74, "velocity": 99, "duration": 499}, {"note": 0, "velocity": 0, "duration": 221}, {"note": 76, "velocity": 107, "duration": 138}, {"note": 0, "velocity": 0, "duration": 102}, {"note": 76, "velocity": 97, "duration": 185}, {"note": 74, "velocity": 97, "duration": 137}, {"note": 0, "velocity": 0, "duration": 103}, {"note": 71, "velocity": 96, "duration": 147}, {"note": 0, "velocity": 0, "duration": 93}, {"note": 71, "velocity": 93, "duration": 61}, {"note": 71, "velocity": 92, "duration": 80}, {"note": 74, "velocity": 102, "duration": 721}, {"note": 0, "velocity": 0, "duration": 719}, {"note": 69, "velocity": 96, "duration": 186}, {"note": 71, "velocity": 96, "duration": 182}, {"note": 74, "velocity": 99, "duration": 467}, {"note": 0, "velocity": 0, "duration": 253}, {"note": 76, "velocity": 96, "duration": 198}, {"note": 76, "velocity": 96, "duration": 176}, {"note": 0, "velocity": 0, "duration": 64}, {"note": 74, "velocity": 96, "duration": 156}, {"note": 0, "velocity": 0, "duration": 84}, {"note": 71, "velocity": 90, "duration": 197}, {"note": 69, "velocity": 96, "duration": 239}, {"note": 71, "velocity": 99, "duration": 757}, {"note": 0, "velocity": 0, "duration": 683}, {"note": 69, "velocity": 96, "duration": 214}, {"note": 71, "velocity": 100, "duration": 225}, {"note": 74, "velocity": 100, "duration": 622}, {"note": 0, "velocity": 0, "duration": 98}, {"note": 76, "velocity": 122, "duration": 168}, {"note": 0, "velocity": 0, "duration": 72}, {"note": 76, "velocity": 100, "duration": 221}, {"note": 74, "velocity": 96, "duration": 166}, {"note": 0, "velocity": 0, "duration": 74}, {"note": 71, "velocity": 92, "duration": 182}, {"note": 69, "velocity": 96, "duration": 204}, {"note": 71, "velocity": 95, "duration": 167}, {"note": 0, "velocity": 0, "duration": 73}, {"note": 71, "velocity": 99, "duration": 55}, {"note": 0, "velocity": 0, "duration": 65}, {"note": 71, "velocity": 93, "duration": 53}, {"note": 0, "velocity": 0, "duration": 67}, {"note": 71, "velocity": 99, "duration": 215}, {"note": 69, "velocity": 95, "duration": 251}, {"note": 66, "velocity": 99, "duration": 364}, {"note": 0, "velocity": 0, "duration": 116}, {"note": 66, "velocity": 99, "duration": 179}, {"note": 0, "velocity": 0, "duration": 61}, {"note": 71, "velocity": 93, "duration": 239}, {"note": 69, "velocity": 90, "duration": 480}, {"note": 0, "velocity": 0, "duration": 240}, {"note": 69, "velocity": 96, "duration": 122}, {"note": 71, "velocity": 77, "duration": 113}, {"note": 66, "velocity": 86, "duration": 263}, {"note": 64, "velocity": 100, "duration": 154}, {"note": 0, "velocity": 0, "duration": 86}, {"note": 64, "velocity": 77, "duration": 149}, {"note": 0, "velocity": 0, "duration": 91}, {"note": 62, "velocity": 96, "duration": 157}, {"note": 0, "velocity": 0, "duration": 83}, {"note": 62, "velocity": 96, "duration": 1469}, {"note": 0, "velocity": 0, "duration": 15331}, {"note": 57, "velocity": 97, "duration": 227}, {"note": 59, "velocity": 85, "duration": 216}, {"note": 66, "velocity": 96, "duration": 562}, {"note": 0, "velocity": 0, "duration": 158}, {"note": 64, "velocity": 100, "duration": 172}, {"note": 0, "velocity": 0, "duration": 68}, {"note": 64, "velocity": 86, "duration": 251}, {"note": 62, "velocity": 90, "duration": 160}, {"note": 0, "velocity": 0, "duration": 80}, {"note": 62, "velocity": 88, "duration": 209}, {"note": 59, "velocity": 75, "duration": 233}, {"note": 62, "velocity": 77, "duration": 1240}, {"note": 0, "velocity": 0, "duration": 200}, {"note": 66, "velocity": 96, "duration": 217}, {"note": 69, "velocity": 93, "duration": 213}, {"note": 71, "velocity": 99, "duration": 592}, {"note": 0, "velocity": 0, "duration": 128}, {"note": 69, "velocity": 96, "duration": 257}, {"note": 71, "velocity": 96, "duration": 254}, {"note": 69, "velocity": 89, "duration": 133}, {"note": 0, "velocity": 0, "duration": 107}, {"note": 66, "velocity": 77, "duration": 169}, {"note": 0, "velocity": 0, "duration": 71}, {"note": 66, "velocity": 78, "duration": 220}, {"note": 69, "velocity": 85, "duration": 1207}, {"note": 0, "velocity": 0, "duration": 233}, {"note": 69, "velocity": 90, "duration": 232}, {"note": 71, "velocity": 77, "duration": 207}, {"note": 74, "velocity": 88, "duration": 574}, {"note": 0, "velocity": 0, "duration": 146}, {"note": 71, "velocity": 86, "duration": 211}, {"note": 71, "velocity": 93, "duration": 164}, {"note": 0, "velocity": 0, "duration": 76}, {"note": 69, "velocity": 95, "duration": 162}, {"note": 0, "velocity": 0, "duration": 78}, {"note": 66, "velocity": 93, "duration": 143}, {"note": 0, "velocity": 0, "duration": 97}, {"note": 64, "velocity": 89, "duration": 176}, {"note": 0, "velocity": 0, "duration": 64}, {"note": 66, "velocity": 93, "duration": 226}, {"note": 66, "velocity": 92, "duration": 145}, {"note": 0, "velocity": 0, "duration": 95}, {"note": 66, "velocity": 107, "duration": 168}, {"note": 0, "velocity": 0, "duration": 72}, {"note": 64, "velocity": 90, "duration": 188}, {"note": 62, "velocity": 93, "duration": 393}, {"note": 0, "velocity": 0, "duration": 87}, {"note": 59, "velocity": 89, "duration": 215}, {"note": 66, "velocity": 90, "duration": 182}, {"note": 64, "velocity": 88, "duration": 209}, {"note": 66, "velocity": 97, "duration": 317}, {"note": 0, "velocity": 0, "duration": 163}, {"note": 64, "velocity": 85, "duration": 109}, {"note": 66, "velocity": 86, "duration": 146}, {"note": 64, "velocity": 72, "duration": 139}, {"note": 0, "velocity": 0, "duration": 101}, {"note": 64, "velocity": 83, "duration": 155}, {"note": 0, "velocity": 0, "duration": 85}, {"note": 64, "velocity": 76, "duration": 166}, {"note": 0, "velocity": 0, "duration": 74}, {"note": 62, "velocity": 78, "duration": 216}, {"note": 64, "velocity": 77, "duration": 976}, {"note": 0, "velocity": 0, "duration": 464}, {"note": 57, "velocity": 90, "duration": 240}, {"note": 59, "velocity": 73, "duration": 235}, {"note": 66, "velocity": 78, "duration": 606}, {"note": 0, "velocity": 0, "duration": 114}, {"note": 64, "velocity": 79, "duration": 177}, {"note": 0, "velocity": 0, "duration": 63}, {"note": 64, "velocity": 82, "duration": 204}, {"note": 62, "velocity": 90, "duration": 173}, {"note": 0, "velocity": 0, "duration": 67}, {"note": 59, "velocity": 96, "duration": 144}, {"note": 0, "velocity": 0, "duration": 96}, {"note": 59, "velocity": 92, "duration": 163}, {"note": 0, "velocity": 0, "duration": 77}, {"note": 62, "velocity": 83, "duration": 895}, {"note": 0, "velocity": 0, "duration": 545}, {"note": 66, "velocity": 99, "duration": 208}, {"note": 69, "velocity": 93, "duration": 179}, {"note": 0, "velocity": 0, "duration": 61}, {"note": 71, "velocity": 107, "duration": 520}, {"note": 0, "velocity": 0, "duration": 200}, {"note": 69, "velocity": 96, "duration": 151}, {"note": 0, "velocity": 0, "duration": 89}, {"note": 71, "velocity": 97, "duration": 215}, {"note": 69, "velocity": 88, "duration": 176}, {"note": 0, "velocity": 0, "duration": 64}, {"note": 66, "velocity": 79, "duration": 171}, {"note": 0, "velocity": 0, "duration": 69}, {"note": 66, "velocity": 95, "duration": 202}, {"note": 69, "velocity": 92, "duration": 1006}, {"note": 0, "velocity": 0, "duration": 434}, {"note": 69, "velocity": 95, "duration": 222}, {"note": 71, "velocity": 95, "duration": 251}, {"note": 74, "velocity": 95, "duration": 449}, {"note": 0, "velocity": 0, "duration": 271}, {"note": 71, "velocity": 100, "duration": 186}, {"note": 71, "velocity": 93, "duration": 241}, {"note": 69, "velocity": 96, "duration": 199}, {"note": 66, "velocity": 97, "duration": 202}, {"note": 64, "velocity": 86, "duration": 249}, {"note": 66, "velocity": 82, "duration": 167}, {"note": 0, "velocity": 0, "duration": 73}, {"note": 66, "velocity": 100, "duration": 152}, {"note": 0, "velocity": 0, "duration": 88}, {"note": 66, "velocity": 99, "duration": 196}, {"note": 64, "velocity": 86, "duration": 186}, {"note": 62, "velocity": 82, "duration": 302}, {"note": 0, "velocity": 0, "duration": 178}, {"note": 59, "velocity": 90, "duration": 225}, {"note": 66, "velocity": 97, "duration": 247}, {"note": 64, "velocity": 86, "duration": 523}, {"note": 0, "velocity": 0, "duration": 197}, {"note": 64, "velocity": 92, "duration": 94}, {"note": 66, "velocity": 96, "duration": 145}, {"note": 64, "velocity": 89, "duration": 163}, {"note": 0, "velocity": 0, "duration": 77}, {"note": 64, "velocity": 90, "duration": 181}, {"note": 64, "velocity": 85, "duration": 200}, {"note": 62, "velocity": 96, "duration": 221}, {"note": 69, "velocity": 112, "duration": 1293}, {"note": 0, "velocity": 0, "duration": 147}, {"note": 69, "velocity": 96, "duration": 209}, {"note": 71, "velocity": 96, "duration": 183}, {"note": 74, "velocity": 99, "duration": 499}, {"note": 0, "velocity": 0, "duration": 221}, {"note": 76, "velocity": 107, "duration": 138}, {"note": 0, "velocity": 0, "duration": 102}, {"note": 76, "velocity": 97, "duration": 185}, {"note": 74, "velocity": 97, "duration": 137}, {"note": 0, "velocity": 0, "duration": 103}, {"note": 71, "velocity": 96, "duration": 147}, {"note": 0, "velocity": 0, "duration": 93}, {"note": 71, "velocity": 93, "duration": 61}, {"note": 71, "velocity": 92, "duration": 80}, {"note": 74, "velocity": 102, "duration": 721}, {"note": 0, "velocity": 0, "duration": 719}, {"note": 69, "velocity": 96, "duration": 186}, {"note": 71, "velocity": 96, "duration": 182}, {"note": 74, "velocity": 99, "duration": 467}, {"note": 0, "velocity": 0, "duration": 253}, {"note": 76, "velocity": 96, "duration": 198}, {"note": 76, "velocity": 96, "duration": 176}, {"note": 0, "velocity": 0, "duration": 64}, {"note": 74, "velocity": 96, "duration": 156}, {"note": 0, "velocity": 0, "duration": 84}, {"note": 71, "velocity": 90, "duration": 197}, {"note": 69, "velocity": 96, "duration": 239}, {"note": 71, "velocity": 99, "duration": 757}, {"note": 0, "velocity": 0, "duration": 683}, {"note": 69, "velocity": 96, "duration": 214}, {"note": 71, "velocity": 100, "duration": 225}, {"note": 74, "velocity": 100, "duration": 622}, {"note": 0, "velocity": 0, "duration": 98}, {"note": 76, "velocity": 122, "duration": 168}, {"note": 0, "velocity": 0, "duration": 72}, {"note": 76, "velocity": 100, "duration": 221}, {"note": 74, "velocity": 96, "duration": 166}, {"note": 0, "velocity": 0, "duration": 74}, {"note": 71, "velocity": 92, "duration": 182}, {"note": 69, "velocity": 96, "duration": 204}, {"note": 71, "velocity": 95, "duration": 167}, {"note": 0, "velocity": 0, "duration": 73}, {"note": 71, "velocity": 99, "duration": 55}, {"note": 0, "velocity": 0, "duration": 65}, {"note": 71, "velocity": 93, "duration": 53}, {"note": 0, "velocity": 0, "duration": 67}, {"note": 71, "velocity": 99, "duration": 215}, {"note": 69, "velocity": 95, "duration": 251}, {"note": 66, "velocity": 99, "duration": 364}, {"note": 0, "velocity": 0, "duration": 116}, {"note": 66, "velocity": 99, "duration": 179}, {"note": 0, "velocity": 0, "duration": 61}, {"note": 71, "velocity": 93, "duration": 239}, {"note": 69, "velocity": 90, "duration": 480}, {"note": 0, "velocity": 0, "duration": 240}, {"note": 69, "velocity": 96, "duration": 122}, {"note": 71, "velocity": 77, "duration": 113}, {"note": 66, "velocity": 86, "duration": 263}, {"note": 64, "velocity": 100, "duration": 154}, {"note": 0, "velocity": 0, "duration": 86}, {"note": 64, "velocity": 77, "duration": 149}, {"note": 0, "velocity": 0, "duration": 91}, {"note": 64, "velocity": 95, "duration": 110}, {"note": 62, "velocity": 76, "duration": 111}, {"note": 66, "velocity": 102, "duration": 123}, {"note": 69, "velocity": 85, "duration": 866}, {"note": 0, "velocity": 0, "duration": 454}, {"note": 69, "velocity": 96, "duration": 209}, {"note": 71, "velocity": 96, "duration": 183}, {"note": 74, "velocity": 99, "duration": 499}, {"note": 0, "velocity": 0, "duration": 221}, {"note": 76, "velocity": 107, "duration": 138}, {"note": 0, "velocity": 0, "duration": 102}, {"note": 76, "velocity": 97, "duration": 185}, {"note": 74, "velocity": 97, "duration": 137}, {"note": 0, "velocity": 0, "duration": 103}, {"note": 71, "velocity": 96, "duration": 147}, {"note": 0, "velocity": 0, "duration": 93}, {"note": 71, "velocity": 93, "duration": 61}, {"note": 71, "velocity": 92, "duration": 80}, {"note": 74, "velocity": 102, "duration": 721}, {"note": 0, "velocity": 0, "duration": 719}, {"note": 69, "velocity": 96, "duration": 186}, {"note": 71, "velocity": 96, "duration": 182}, {"note": 74, "velocity": 99, "duration": 467}, {"note": 0, "velocity": 0, "duration": 253}, {"note": 76, "velocity": 96, "duration": 198}, {"note": 76, "velocity": 96, "duration": 176}, {"note": 0, "velocity": 0, "duration": 64}, {"note": 74, "velocity": 96, "duration": 156}, {"note": 0, "velocity": 0, "duration": 84}, {"note": 71, "velocity": 90, "duration": 197}, {"note": 69, "velocity": 96, "duration": 239}, {"note": 71, "velocity": 99, "duration": 757}, {"note": 0, "velocity": 0, "duration": 683}, {"note": 69, "velocity": 96, "duration": 214}, {"note": 71, "velocity": 100, "duration": 225}, {"note": 74, "velocity": 100, "duration": 622}, {"note": 0, "velocity": 0, "duration": 98}, {"note": 76, "velocity": 122, "duration": 168}, {"note": 0, "velocity": 0, "duration": 72}, {"note": 76, "velocity": 100, "duration": 221}, {"note": 74, "velocity": 96, "duration": 166}, {"note": 0, "velocity": 0, "duration": 74}, {"note": 71, "velocity": 92, "duration": 182}, {"note": 69, "velocity": 96, "duration": 204}, {"note": 71, "velocity": 95, "duration": 167}, {"note": 0, "velocity": 0, "duration": 73}, {"note": 71, "velocity": 99, "duration": 55}, {"note": 0, "velocity": 0, "duration": 65}, {"note": 71, "velocity": 93, "duration": 53}, {"note": 0, "velocity": 0, "duration": 67}, {"note": 71, "velocity": 99, "duration": 215}, {"note": 69, "velocity": 95, "duration": 251}, {"note": 66, "velocity": 99, "duration": 364}, {"note": 0, "velocity": 0, "duration": 116}, {"note": 66, "velocity": 99, "duration": 179}, {"note": 0, "velocity": 0, "duration": 61}, {"note": 71, "velocity": 93, "duration": 239}, {"note": 69, "velocity": 90, "duration": 480}, {"note": 0, "velocity": 0, "duration": 240}, {"note": 69, "velocity": 96, "duration": 122}, {"note": 71, "velocity": 77, "duration": 113}, {"note": 66, "velocity": 86, "duration": 263}, {"note": 64, "velocity": 100, "duration": 154}, {"note": 0, "velocity": 0, "duration": 86}, {"note": 64, "velocity": 77, "duration": 149}, {"note": 0, "velocity": 0, "duration": 91}, {"note": 62, "velocity": 96, "duration": 157}, {"note": 0, "velocity": 0, "duration": 83}, {"note": 62, "velocity": 96, "duration": 1287}, {"note": 0, "velocity": 0, "duration": 153}, {"note": 69, "velocity": 96, "duration": 209}, {"note": 71, "velocity": 96, "duration": 183}, {"note": 74, "velocity": 99, "duration": 499}, {"note": 0, "velocity": 0, "duration": 221}, {"note": 76, "velocity": 107, "duration": 138}, {"note": 0, "velocity": 0, "duration": 102}, {"note": 76, "velocity": 97, "duration": 185}, {"note": 74, "velocity": 97, "duration": 137}, {"note": 0, "velocity": 0, "duration": 103}, {"note": 71, "velocity": 96, "duration": 147}, {"note": 0, "velocity": 0, "duration": 93}, {"note": 71, "velocity": 93, "duration": 61}, {"note": 71, "velocity": 92, "duration": 80}, {"note": 74, "velocity": 102, "duration": 721}, {"note": 0, "velocity": 0, "duration": 719}, {"note": 69, "velocity": 96, "duration": 186}, {"note": 71, "velocity": 96, "duration": 182}, {"note": 74, "velocity": 99, "duration": 467}, {"note": 0, "velocity": 0, "duration": 253}, {"note": 76, "velocity": 96, "duration": 198}, {"note": 76, "velocity": 96, "duration": 176}, {"note": 0, "velocity": 0, "duration": 64}, {"note": 74, "velocity": 96, "duration": 156}, {"note": 0, "velocity": 0, "duration": 84}, {"note": 71, "velocity": 90, "duration": 197}, {"note": 69, "velocity": 96, "duration": 239}, {"note": 71, "velocity": 99, "duration": 757}, {"note": 0, "velocity": 0, "duration": 683}, {"note": 69, "velocity": 96, "duration": 214}, {"note": 71, "velocity": 100, "duration": 225}, {"note": 74, "velocity": 100, "duration": 622}, {"note": 0, "velocity": 0, "duration": 98}, {"note": 76, "velocity": 122, "duration": 168}, {"note": 0, "velocity": 0, "duration": 72}, {"note": 76, "velocity": 100, "duration": 221}, {"note": 74, "velocity": 96, "duration": 166}, {"note": 0, "velocity": 0, "duration": 74}, {"note": 71, "velocity": 92, "duration": 182}, {"note": 69, "velocity": 96, "duration": 204}, {"note": 71, "velocity": 95, "duration": 167}, {"note": 0, "velocity": 0, "duration": 73}, {"note": 71, "velocity": 99, "duration": 55}, {"note": 0, "velocity": 0, "duration": 65}, {"note": 71, "velocity": 93, "duration": 53}, {"note": 0, "velocity": 0, "duration": 67}, {"note": 71, "velocity": 99, "duration": 215}, {"note": 69, "velocity": 95, "duration": 251}, {"note": 66, "velocity": 99, "duration": 364}, {"note": 0, "velocity": 0, "duration": 116}, {"note": 66, "velocity": 99, "duration": 179}, {"note": 0, "velocity": 0, "duration": 61}, {"note": 71, "velocity": 93, "duration": 239}, {"note": 69, "velocity": 90, "duration": 480}, {"note": 0, "velocity": 0, "duration": 240}, {"note": 69, "velocity": 96, "duration": 122}, {"note": 71, "velocity": 77, "duration": 113}, {"note": 66, "velocity": 86, "duration": 263}, {"note": 64, "velocity": 100, "duration": 154}, {"note": 0, "velocity": 0, "duration": 86}, {"note": 64, "velocity": 77, "duration": 149}, {"note": 0, "velocity": 0, "duration": 91}, {"note": 64, "velocity": 95, "duration": 110}, {"note": 62, "velocity": 76, "duration": 111}, {"note": 66, "velocity": 102, "duration": 123}, {"note": 69, "velocity": 85, "duration": 866}, {"note": 0, "velocity": 0, "duration": 454}, {"note": 69, "velocity": 96, "duration": 209}, {"note": 71, "velocity": 96, "duration": 183}, {"note": 74, "velocity": 99, "duration": 499}, {"note": 0, "velocity": 0, "duration": 221}, {"note": 76, "velocity": 107, "duration": 138}, {"note": 0, "velocity": 0, "duration": 102}, {"note": 76, "velocity": 97, "duration": 185}, {"note": 74, "velocity": 97, "duration": 137}, {"note": 0, "velocity": 0, "duration": 103}, {"note": 71, "velocity": 96, "duration": 147}, {"note": 0, "velocity": 0, "duration": 93}, {"note": 71, "velocity": 93, "duration": 61}, {"note": 71, "velocity": 92, "duration": 80}, {"note": 74, "velocity": 102, "duration": 721}, {"note": 0, "velocity": 0, "duration": 719}, {"note": 69, "velocity": 96, "duration": 186}, {"note": 71, "velocity": 96, "duration": 182}, {"note": 74, "velocity": 99, "duration": 467}, {"note": 0, "velocity": 0, "duration": 253}, {"note": 76, "velocity": 96, "duration": 198}, {"note": 76, "velocity": 96, "duration": 176}, {"note": 0, "velocity": 0, "duration": 64}, {"note": 74, "velocity": 96, "duration": 156}, {"note": 0, "velocity": 0, "duration": 84}, {"note": 71, "velocity": 90, "duration": 197}, {"note": 69, "velocity": 96, "duration": 239}, {"note": 71, "velocity": 99, "duration": 757}, {"note": 0, "velocity": 0, "duration": 683}, {"note": 69, "velocity": 96, "duration": 214}, {"note": 71, "velocity": 100, "duration": 225}, {"note": 74, "velocity": 100, "duration": 622}, {"note": 0, "velocity": 0, "duration": 98}, {"note": 76, "velocity": 122, "duration": 168}, {"note": 0, "velocity": 0, "duration": 72}, {"note": 76, "velocity": 100, "duration": 221}, {"note": 74, "velocity": 96, "duration": 166}, {"note": 0, "velocity": 0, "duration": 74}, {"note": 71, "velocity": 92, "duration": 182}, {"note": 69, "velocity": 96, "duration": 204}, {"note": 71, "velocity": 95, "duration": 167}, {"note": 0, "velocity": 0, "duration": 73}, {"note": 71, "velocity": 99, "duration": 55}, {"note": 0, "velocity": 0, "duration": 65}, {"note": 71, "velocity": 93, "duration": 53}, {"note": 0, "velocity": 0, "duration": 67}, {"note": 71, "velocity": 99, "duration": 215}, {"note": 69, "velocity": 95, "duration": 251}, {"note": 66, "velocity": 99, "duration": 364}, {"note": 0, "velocity": 0, "duration": 116}, {"note": 66, "velocity": 99, "duration": 179}, {"note": 0, "velocity": 0, "duration": 61}, {"note": 71, "velocity": 93, "duration": 239}, {"note": 69, "velocity": 90, "duration": 480}, {"note": 0, "velocity": 0, "duration": 240}, {"note": 69, "velocity": 96, "duration": 122}, {"note": 71, "velocity": 77, "duration": 113}, {"note": 66, "velocity": 86, "duration": 263}, {"note": 64, "velocity": 100, "duration": 154}, {"note": 0, "velocity": 0, "duration": 86}, {"note": 64, "velocity": 77, "duration": 149}, {"note": 0, "velocity": 0, "duration": 91}, {"note": 62, "velocity": 96, "duration": 157}, {"note": 0, "velocity": 0, "duration": 83}, {"note": 62, "velocity": 96, "duration": 1287}]]