[[{"note": 60, "velocity": 117, "duration": 43}, {"note": 0, "velocity": 0, "duration": 77}, {"note": 60, "velocity": 93, "duration": 52}, {"note": 0, "velocity": 0, "duration": 68}, {"note": 60, "velocity": 93, "duration": 52}, {"note": 0, "velocity": 0, "duration": 68}, {"note": 60, "velocity": 96, "duration": 54}, {"note": 0, "velocity": 0, "duration": 66}, {"note": 60, "velocity": 93, "duration": 56}, {"note": 0, "velocity": 0, "duration": 64}, {"note": 60, "velocity": 89, "duration": 55}, {"note": 0, "velocity": 0, "duration": 65}, {"note": 61, "velocity": 112, "duration": 98}, {"note": 60, "velocity": 77, "duration": 118}, {"note": 58, "velocity": 85, "duration": 102}, {"note": 56, "velocity": 79, "duration": 67}, {"note": 58, "velocity": 93, "duration": 500}, {"note": 0, "velocity": 0, "duration": 220}, {"note": 63, "velocity": 96, "duration": 47}, {"note": 0, "velocity": 0, "duration": 73}, {"note": 63, "velocity": 95, "duration": 49}, {"note": 0, "velocity": 0, "duration": 71}, {"note": 63, "velocity": 95, "duration": 49}, {"note": 0, "velocity": 0, "duration": 71}, {"note": 63, "velocity": 96, "duration": 49}, {"note": 0, "velocity": 0, "duration": 71}, {"note": 63, "velocity": 95, "duration": 46}, {"note": 0, "velocity": 0, "duration": 74}, {"note": 63, "velocity": 97, "duration": 47}, {"note": 0, "velocity": 0, "duration": 73}, {"note": 63, "velocity": 102, "duration": 45}, {"note": 0, "velocity": 0, "duration": 75}, {"note": 63, "velocity": 102, "duration": 102}, {"note": 55, "velocity": 93, "duration": 63}, {"note": 55, "velocity": 100, "duration": 67}, {"note": 56, "velocity": 95, "duration": 468}, {"note": 0, "velocity": 0, "duration": 252}, {"note": 63, "velocity": 127, "duration": 52}, {"note": 0, "velocity": 0, "duration": 68}, {"note": 63, "velocity": 107, "duration": 48}, {"note": 0, "velocity": 0, "duration": 72}, {"note": 63, "velocity": 102, "duration": 46}, {"note": 0, "velocity": 0, "duration": 74}, {"note": 63, "velocity": 102, "duration": 44}, {"note": 0, "velocity": 0, "duration": 76}, {"note": 63, "velocity": 107, "duration": 46}, {"note": 0, "velocity": 0, "duration": 74}, {"note": 63, "velocity": 112, "duration": 50}, {"note": 0, "velocity": 0, "duration": 70}, {"note": 63, "velocity": 97, "duration": 44}, {"note": 0, "velocity": 0, "duration": 76}, {"note": 63, "velocity": 122, "duration": 49}, {"note": 0, "velocity": 0, "duration": 71}, {"note": 56, "velocity": 95, "duration": 37}, {"note": 0, "velocity": 0, "duration": 83}, {"note": 60, "velocity": 97, "duration": 76}, {"note": 58, "velocity": 93, "duration": 238}, {"note": 56, "velocity": 65, "duration": 59}, {"note": 0, "velocity": 0, "duration": 61}, {"note": 58, "velocity": 100, "duration": 79}, {"note": 60, "velocity": 99, "duration": 60}, {"note": 0, "velocity": 0, "duration": 180}, {"note": 56, "velocity": 93, "duration": 64}, {"note": 58, "velocity": 93, "duration": 70}, {"note": 60, "velocity": 95, "duration": 57}, {"note": 0, "velocity": 0, "duration": 183}, {"note": 61, "velocity": 117, "duration": 224}, {"note": 60, "velocity": 76, "duration": 68}, {"note": 60, "velocity": 100, "duration": 420}, {"note": 0, "velocity": 0, "duration": 660}, {"note": 63, "velocity": 117, "duration": 28}, {"note": 63, "velocity": 88, "duration": 27}, {"note": 63, "velocity": 122, "duration": 35}, {"note": 0, "velocity": 0, "duration": 85}, {"note": 63, "velocity": 100, "duration": 39}, {"note": 0, "velocity": 0, "duration": 81}, {"note": 63, "velocity": 100, "duration": 41}, {"note": 0, "velocity": 0, "duration": 79}, {"note": 63, "velocity": 95, "duration": 40}, {"note": 0, "velocity": 0, "duration": 80}, {"note": 63, "velocity": 100, "duration": 43}, {"note": 0, "velocity": 0, "duration": 77}, {"note": 63, "velocity": 102, "duration": 42}, {"note": 0, "velocity": 0, "duration": 78}, {"note": 63, "velocity": 117, "duration": 52}, {"note": 0, "velocity": 0, "duration": 68}, {"note": 56, "velocity": 100, "duration": 53}, {"note": 0, "velocity": 0, "duration": 67}, {"note": 60, "velocity": 90, "duration": 107}, {"note": 58, "velocity": 93, "duration": 389}, {"note": 0, "velocity": 0, "duration": 331}, {"note": 63, "velocity": 99, "duration": 23}, {"note": 63, "velocity": 82, "duration": 27}, {"note": 63, "velocity": 89, "duration": 39}, {"note": 0, "velocity": 0, "duration": 81}, {"note": 63, "velocity": 112, "duration": 45}, {"note": 0, "velocity": 0, "duration": 75}, {"note": 63, "velocity": 100, "duration": 45}, {"note": 0, "velocity": 0, "duration": 75}, {"note": 63, "velocity": 112, "duration": 48}, {"note": 0, "velocity": 0, "duration": 72}, {"note": 63, "velocity": 99, "duration": 52}, {"note": 0, "velocity": 0, "duration": 68}, {"note": 63, "velocity": 117, "duration": 77}, {"note": 67, "velocity": 112, "duration": 111}, {"note": 68, "velocity": 92, "duration": 95}, {"note": 67, "velocity": 112, "duration": 49}, {"note": 0, "velocity": 0, "duration": 71}, {"note": 65, "velocity": 100, "duration": 292}, {"note": 53, "velocity": 93, "duration": 107}, {"note": 55, "velocity": 95, "duration": 96}, {"note": 56, "velocity": 96, "duration": 112}, {"note": 0, "velocity": 0, "duration": 128}, {"note": 63, "velocity": 127, "duration": 43}, {"note": 0, "velocity": 0, "duration": 77}, {"note": 63, "velocity": 100, "duration": 42}, {"note": 0, "velocity": 0, "duration": 78}, {"note": 63, "velocity": 100, "duration": 46}, {"note": 0, "velocity": 0, "duration": 74}, {"note": 63, "velocity": 107, "duration": 41}, {"note": 0, "velocity": 0, "duration": 79}, {"note": 63, "velocity": 100, "duration": 37}, {"note": 0, "velocity": 0, "duration": 83}, {"note": 65, "velocity": 122, "duration": 100}, {"note": 63, "velocity": 122, "duration": 129}, {"note": 0, "velocity": 0, "duration": 111}, {"note": 63, "velocity": 127, "duration": 42}, {"note": 0, "velocity": 0, "duration": 78}, {"note": 63, "velocity": 102, "duration": 48}, {"note": 0, "velocity": 0, "duration": 72}, {"note": 63, "velocity": 99, "duration": 49}, {"note": 0, "velocity": 0, "duration": 71}, {"note": 63, "velocity": 127, "duration": 99}, {"note": 60, "velocity": 100, "duration": 117}, {"note": 65, "velocity": 127, "duration": 112}, {"note": 63, "velocity": 127, "duration": 885}, {"note": 0, "velocity": 0, "duration": 915}, {"note": 65, "velocity": 112, "duration": 108}, {"note": 67, "velocity": 117, "duration": 106}, {"note": 68, "velocity": 100, "duration": 59}, {"note": 0, "velocity": 0, "duration": 61}, {"note": 68, "velocity": 100, "duration": 56}, {"note": 0, "velocity": 0, "duration": 64}, {"note": 68, "velocity": 100, "duration": 54}, {"note": 0, "velocity": 0, "duration": 66}, {"note": 68, "velocity": 107, "duration": 48}, {"note": 0, "velocity": 0, "duration": 72}, {"note": 68, "velocity": 117, "duration": 84}, {"note": 68, "velocity": 122, "duration": 44}, {"note": 0, "velocity": 0, "duration": 76}, {"note": 68, "velocity": 100, "duration": 43}, {"note": 0, "velocity": 0, "duration": 77}, {"note": 68, "velocity": 107, "duration": 39}, {"note": 0, "velocity": 0, "duration": 81}, {"note": 68, "velocity": 122, "duration": 57}, {"note": 0, "velocity": 0, "duration": 63}, {"note": 67, "velocity": 127, "duration": 58}, {"note": 0, "velocity": 0, "duration": 62}, {"note": 67, "velocity": 122, "duration": 42}, {"note": 0, "velocity": 0, "duration": 78}, {"note": 67, "velocity": 127, "duration": 136}, {"note": 0, "velocity": 0, "duration": 224}, {"note": 63, "velocity": 100, "duration": 114}, {"note": 65, "velocity": 99, "duration": 113}, {"note": 67, "velocity": 107, "duration": 59}, {"note": 0, "velocity": 0, "duration": 61}, {"note": 67, "velocity": 112, "duration": 50}, {"note": 0, "velocity": 0, "duration": 70}, {"note": 67, "velocity": 117, "duration": 51}, {"note": 0, "velocity": 0, "duration": 69}, {"note": 67, "velocity": 102, "duration": 41}, {"note": 0, "velocity": 0, "duration": 79}, {"note": 67, "velocity": 127, "duration": 66}, {"note": 67, "velocity": 127, "duration": 43}, {"note": 0, "velocity": 0, "duration": 77}, {"note": 67, "velocity": 127, "duration": 55}, {"note": 0, "velocity": 0, "duration": 65}, {"note": 68, "velocity": 117, "duration": 84}, {"note": 67, "velocity": 112, "duration": 123}, {"note": 0, "velocity": 0, "duration": 117}, {"note": 65, "velocity": 102, "duration": 88}, {"note": 65, "velocity": 107, "duration": 238}, {"note": 0, "velocity": 0, "duration": 122}, {"note": 65, "velocity": 97, "duration": 124}, {"note": 67, "velocity": 117, "duration": 66}, {"note": 68, "velocity": 97, "duration": 84}, {"note": 65, "velocity": 93, "duration": 87}, {"note": 68, "velocity": 96, "duration": 57}, {"note": 0, "velocity": 0, "duration": 63}, {"note": 65, "velocity": 102, "duration": 80}, {"note": 68, "velocity": 112, "duration": 143}, {"note": 0, "velocity": 0, "duration": 217}, {"note": 67, "velocity": 117, "duration": 241}, {"note": 63, "velocity": 89, "duration": 109}, {"note": 67, "velocity": 117, "duration": 119}, {"note": 63, "velocity": 93, "duration": 124}, {"note": 67, "velocity": 117, "duration": 151}, {"note": 0, "velocity": 0, "duration": 89}, {"note": 63, "velocity": 97, "duration": 52}, {"note": 0, "velocity": 0, "duration": 68}, {"note": 63, "velocity": 93, "duration": 65}, {"note": 68, "velocity": 107, "duration": 110}, {"note": 68, "velocity": 112, "duration": 104}, {"note": 0, "velocity": 0, "duration": 136}, {"note": 68, "velocity": 107, "duration": 53}, {"note": 0, "velocity": 0, "duration": 67}, {"note": 68, "velocity": 112, "duration": 97}, {"note": 0, "velocity": 0, "duration": 143}, {"note": 68, "velocity": 112, "duration": 132}, {"note": 67, "velocity": 102, "duration": 515}, {"note": 0, "velocity": 0, "duration": 325}, {"note": 65, "velocity": 107, "duration": 81}, {"note": 67, "velocity": 127, "duration": 58}, {"note": 0, "velocity": 0, "duration": 62}, {"note": 68, "velocity": 100, "duration": 47}, {"note": 0, "velocity": 0, "duration": 73}, {"note": 68, "velocity": 107, "duration": 47}, {"note": 0, "velocity": 0, "duration": 73}, {"note": 68, "velocity": 112, "duration": 44}, {"note": 0, "velocity": 0, "duration": 76}, {"note": 68, "velocity": 112, "duration": 42}, {"note": 0, "velocity": 0, "duration": 78}, {"note": 68, "velocity": 127, "duration": 53}, {"note": 0, "velocity": 0, "duration": 67}, {"note": 68, "velocity": 127, "duration": 40}, {"note": 0, "velocity": 0, "duration": 80}, {"note": 68, "velocity": 93, "duration": 40}, {"note": 0, "velocity": 0, "duration": 80}, {"note": 68, "velocity": 102, "duration": 38}, {"note": 0, "velocity": 0, "duration": 82}, {"note": 68, "velocity": 100, "duration": 209}, {"note": 67, "velocity": 99, "duration": 50}, {"note": 0, "velocity": 0, "duration": 70}, {"note": 67, "velocity": 122, "duration": 124}, {"note": 0, "velocity": 0, "duration": 236}, {"note": 63, "velocity": 112, "duration": 57}, {"note": 0, "velocity": 0, "duration": 63}, {"note": 65, "velocity": 100, "duration": 52}, {"note": 0, "velocity": 0, "duration": 68}, {"note": 67, "velocity": 122, "duration": 50}, {"note": 0, "velocity": 0, "duration": 70}, {"note": 67, "velocity": 122, "duration": 42}, {"note": 0, "velocity": 0, "duration": 78}, {"note": 67, "velocity": 127, "duration": 44}, {"note": 0, "velocity": 0, "duration": 76}, {"note": 67, "velocity": 122, "duration": 38}, {"note": 0, "velocity": 0, "duration": 82}, {"note": 67, "velocity": 122, "duration": 40}, {"note": 0, "velocity": 0, "duration": 80}, {"note": 67, "velocity": 102, "duration": 40}, {"note": 0, "velocity": 0, "duration": 80}, {"note": 67, "velocity": 122, "duration": 44}, {"note": 0, "velocity": 0, "duration": 76}, {"note": 68, "velocity": 100, "duration": 53}, {"note": 0, "velocity": 0, "duration": 67}, {"note": 67, "velocity": 117, "duration": 79}, {"note": 0, "velocity": 0, "duration": 161}, {"note": 65, "velocity": 102, "duration": 46}, {"note": 0, "velocity": 0, "duration": 74}, {"note": 65, "velocity": 102, "duration": 160}, {"note": 0, "velocity": 0, "duration": 200}, {"note": 65, "velocity": 102, "duration": 56}, {"note": 0, "velocity": 0, "duration": 64}, {"note": 67, "velocity": 117, "duration": 51}, {"note": 0, "velocity": 0, "duration": 69}, {"note": 68, "velocity": 112, "duration": 46}, {"note": 0, "velocity": 0, "duration": 74}, {"note": 65, "velocity": 95, "duration": 52}, {"note": 0, "velocity": 0, "duration": 68}, {"note": 68, "velocity": 107, "duration": 45}, {"note": 0, "velocity": 0, "duration": 75}, {"note": 65, "velocity": 96, "duration": 47}, {"note": 0, "velocity": 0, "duration": 73}, {"note": 68, "velocity": 127, "duration": 113}, {"note": 0, "velocity": 0, "duration": 247}, {"note": 67, "velocity": 117, "duration": 176}, {"note": 0, "velocity": 0, "duration": 64}, {"note": 63, "velocity": 96, "duration": 79}, {"note": 67, "velocity": 107, "duration": 91}, {"note": 63, "velocity": 93, "duration": 94}, {"note": 67, "velocity": 127, "duration": 112}, {"note": 0, "velocity": 0, "duration": 128}, {"note": 70, "velocity": 122, "duration": 60}, {"note": 70, "velocity": 100, "duration": 182}, {"note": 68, "velocity": 102, "duration": 382}, {"note": 0, "velocity": 0, "duration": 7298}, {"note": 60, "velocity": 117, "duration": 43}, {"note": 0, "velocity": 0, "duration": 77}, {"note": 60, "velocity": 93, "duration": 52}, {"note": 0, "velocity": 0, "duration": 68}, {"note": 60, "velocity": 93, "duration": 52}, {"note": 0, "velocity": 0, "duration": 68}, {"note": 60, "velocity": 96, "duration": 54}, {"note": 0, "velocity": 0, "duration": 66}, {"note": 60, "velocity": 93, "duration": 56}, {"note": 0, "velocity": 0, "duration": 64}, {"note": 60, "velocity": 89, "duration": 55}, {"note": 0, "velocity": 0, "duration": 65}, {"note": 61, "velocity": 112, "duration": 98}, {"note": 60, "velocity": 77, "duration": 118}, {"note": 58, "velocity": 85, "duration": 102}, {"note": 56, "velocity": 79, "duration": 67}, {"note": 58, "velocity": 93, "duration": 500}, {"note": 0, "velocity": 0, "duration": 220}, {"note": 63, "velocity": 96, "duration": 47}, {"note": 0, "velocity": 0, "duration": 73}, {"note": 63, "velocity": 95, "duration": 49}, {"note": 0, "velocity": 0, "duration": 71}, {"note": 63, "velocity": 95, "duration": 49}, {"note": 0, "velocity": 0, "duration": 71}, {"note": 63, "velocity": 96, "duration": 49}, {"note": 0, "velocity": 0, "duration": 71}, {"note": 63, "velocity": 95, "duration": 46}, {"note": 0, "velocity": 0, "duration": 74}, {"note": 63, "velocity": 97, "duration": 47}, {"note": 0, "velocity": 0, "duration": 73}, {"note": 63, "velocity": 102, "duration": 45}, {"note": 0, "velocity": 0, "duration": 75}, {"note": 63, "velocity": 102, "duration": 102}, {"note": 55, "velocity": 93, "duration": 63}, {"note": 55, "velocity": 100, "duration": 67}, {"note": 56, "velocity": 95, "duration": 468}, {"note": 0, "velocity": 0, "duration": 252}, {"note": 63, "velocity": 127, "duration": 52}, {"note": 0, "velocity": 0, "duration": 68}, {"note": 63, "velocity": 107, "duration": 48}, {"note": 0, "velocity": 0, "duration": 72}, {"note": 63, "velocity": 102, "duration": 46}, {"note": 0, "velocity": 0, "duration": 74}, {"note": 63, "velocity": 102, "duration": 44}, {"note": 0, "velocity": 0, "duration": 76}, {"note": 63, "velocity": 107, "duration": 46}, {"note": 0, "velocity": 0, "duration": 74}, {"note": 63, "velocity": 112, "duration": 50}, {"note": 0, "velocity": 0, "duration": 70}, {"note": 63, "velocity": 97, "duration": 44}, {"note": 0, "velocity": 0, "duration": 76}, {"note": 63, "velocity": 122, "duration": 49}, {"note": 0, "velocity": 0, "duration": 71}, {"note": 56, "velocity": 95, "duration": 37}, {"note": 0, "velocity": 0, "duration": 83}, {"note": 60, "velocity": 97, "duration": 76}, {"note": 58, "velocity": 93, "duration": 238}, {"note": 56, "velocity": 65, "duration": 59}, {"note": 0, "velocity": 0, "duration": 61}, {"note": 58, "velocity": 100, "duration": 79}, {"note": 60, "velocity": 99, "duration": 60}, {"note": 0, "velocity": 0, "duration": 180}, {"note": 56, "velocity": 93, "duration": 64}, {"note": 58, "velocity": 93, "duration": 70}, {"note": 60, "velocity": 95, "duration": 57}, {"note": 0, "velocity": 0, "duration": 183}, {"note": 61, "velocity": 117, "duration": 224}, {"note": 60, "velocity": 76, "duration": 68}, {"note": 60, "velocity": 100, "duration": 420}, {"note": 0, "velocity": 0, "duration": 660}, {"note": 63, "velocity": 117, "duration": 28}, {"note": 63, "velocity": 88, "duration": 27}, {"note": 63, "velocity": 122, "duration": 35}, {"note": 0, "velocity": 0, "duration": 85}, {"note": 63, "velocity": 100, "duration": 39}, {"note": 0, "velocity": 0, "duration": 81}, {"note": 63, "velocity": 100, "duration": 41}, {"note": 0, "velocity": 0, "duration": 79}, {"note": 63, "velocity": 95, "duration": 40}, {"note": 0, "velocity": 0, "duration": 80}, {"note": 63, "velocity": 100, "duration": 43}, {"note": 0, "velocity": 0, "duration": 77}, {"note": 63, "velocity": 102, "duration": 42}, {"note": 0, "velocity": 0, "duration": 78}, {"note": 63, "velocity": 117, "duration": 52}, {"note": 0, "velocity": 0, "duration": 68}, {"note": 56, "velocity": 100, "duration": 53}, {"note": 0, "velocity": 0, "duration": 67}, {"note": 60, "velocity": 90, "duration": 107}, {"note": 58, "velocity": 93, "duration": 389}, {"note": 0, "velocity": 0, "duration": 331}, {"note": 63, "velocity": 99, "duration": 23}, {"note": 63, "velocity": 82, "duration": 27}, {"note": 63, "velocity": 89, "duration": 39}, {"note": 0, "velocity": 0, "duration": 81}, {"note": 63, "velocity": 112, "duration": 45}, {"note": 0, "velocity": 0, "duration": 75}, {"note": 63, "velocity": 100, "duration": 45}, {"note": 0, "velocity": 0, "duration": 75}, {"note": 63, "velocity": 112, "duration": 48}, {"note": 0, "velocity": 0, "duration": 72}, {"note": 63, "velocity": 99, "duration": 52}, {"note": 0, "velocity": 0, "duration": 68}, {"note": 63, "velocity": 117, "duration": 77}, {"note": 67, "velocity": 112, "duration": 111}, {"note": 68, "velocity": 92, "duration": 95}, {"note": 67, "velocity": 112, "duration": 49}, {"note": 0, "velocity": 0, "duration": 71}, {"note": 65, "velocity": 100, "duration": 292}, {"note": 53, "velocity": 93, "duration": 107}, {"note": 55, "velocity": 95, "duration": 96}, {"note": 56, "velocity": 96, "duration": 112}, {"note": 0, "velocity": 0, "duration": 128}, {"note": 63, "velocity": 127, "duration": 43}, {"note": 0, "velocity": 0, "duration": 77}, {"note": 63, "velocity": 100, "duration": 42}, {"note": 0, "velocity": 0, "duration": 78}, {"note": 63, "velocity": 100, "duration": 46}, {"note": 0, "velocity": 0, "duration": 74}, {"note": 63, "velocity": 107, "duration": 41}, {"note": 0, "velocity": 0, "duration": 79}, {"note": 63, "velocity": 100, "duration": 37}, {"note": 0, "velocity": 0, "duration": 83}, {"note": 65, "velocity": 122, "duration": 100}, {"note": 63, "velocity": 122, "duration": 129}, {"note": 0, "velocity": 0, "duration": 111}, {"note": 63, "velocity": 127, "duration": 42}, {"note": 0, "velocity": 0, "duration": 78}, {"note": 63, "velocity": 102, "duration": 48}, {"note": 0, "velocity": 0, "duration": 72}, {"note": 63, "velocity": 99, "duration": 49}, {"note": 0, "velocity": 0, "duration": 71}, {"note": 63, "velocity": 127, "duration": 99}, {"note": 60, "velocity": 100, "duration": 117}, {"note": 65, "velocity": 127, "duration": 112}, {"note": 63, "velocity": 127, "duration": 885}, {"note": 0, "velocity": 0, "duration": 915}, {"note": 65, "velocity": 112, "duration": 108}, {"note": 67, "velocity": 117, "duration": 106}, {"note": 68, "velocity": 100, "duration": 59}, {"note": 0, "velocity": 0, "duration": 61}, {"note": 68, "velocity": 100, "duration": 56}, {"note": 0, "velocity": 0, "duration": 64}, {"note": 68, "velocity": 100, "duration": 54}, {"note": 0, "velocity": 0, "duration": 66}, {"note": 68, "velocity": 107, "duration": 48}, {"note": 0, "velocity": 0, "duration": 72}, {"note": 68, "velocity": 117, "duration": 84}, {"note": 68, "velocity": 122, "duration": 44}, {"note": 0, "velocity": 0, "duration": 76}, {"note": 68, "velocity": 100, "duration": 43}, {"note": 0, "velocity": 0, "duration": 77}, {"note": 68, "velocity": 107, "duration": 39}, {"note": 0, "velocity": 0, "duration": 81}, {"note": 68, "velocity": 122, "duration": 57}, {"note": 0, "velocity": 0, "duration": 63}, {"note": 67, "velocity": 127, "duration": 58}, {"note": 0, "velocity": 0, "duration": 62}, {"note": 67, "velocity": 122, "duration": 42}, {"note": 0, "velocity": 0, "duration": 78}, {"note": 67, "velocity": 127, "duration": 136}, {"note": 0, "velocity": 0, "duration": 224}, {"note": 63, "velocity": 100, "duration": 114}, {"note": 65, "velocity": 99, "duration": 113}, {"note": 67, "velocity": 107, "duration": 59}, {"note": 0, "velocity": 0, "duration": 61}, {"note": 67, "velocity": 112, "duration": 50}, {"note": 0, "velocity": 0, "duration": 70}, {"note": 67, "velocity": 117, "duration": 51}, {"note": 0, "velocity": 0, "duration": 69}, {"note": 67, "velocity": 102, "duration": 41}, {"note": 0, "velocity": 0, "duration": 79}, {"note": 67, "velocity": 127, "duration": 66}, {"note": 67, "velocity": 127, "duration": 43}, {"note": 0, "velocity": 0, "duration": 77}, {"note": 67, "velocity": 127, "duration": 55}, {"note": 0, "velocity": 0, "duration": 65}, {"note": 68, "velocity": 117, "duration": 84}, {"note": 67, "velocity": 112, "duration": 123}, {"note": 0, "velocity": 0, "duration": 117}, {"note": 65, "velocity": 102, "duration": 88}, {"note": 65, "velocity": 107, "duration": 238}, {"note": 0, "velocity": 0, "duration": 122}, {"note": 65, "velocity": 97, "duration": 124}, {"note": 67, "velocity": 117, "duration": 66}, {"note": 68, "velocity": 97, "duration": 84}, {"note": 65, "velocity": 93, "duration": 87}, {"note": 68, "velocity": 96, "duration": 57}, {"note": 0, "velocity": 0, "duration": 63}, {"note": 65, "velocity": 102, "duration": 80}, {"note": 68, "velocity": 112, "duration": 143}, {"note": 0, "velocity": 0, "duration": 217}, {"note": 67, "velocity": 117, "duration": 241}, {"note": 63, "velocity": 89, "duration": 109}, {"note": 67, "velocity": 117, "duration": 119}, {"note": 63, "velocity": 93, "duration": 124}, {"note": 67, "velocity": 117, "duration": 151}, {"note": 0, "velocity": 0, "duration": 89}, {"note": 63, "velocity": 97, "duration": 52}, {"note": 0, "velocity": 0, "duration": 68}, {"note": 63, "velocity": 93, "duration": 65}, {"note": 68, "velocity": 107, "duration": 110}, {"note": 68, "velocity": 112, "duration": 104}, {"note": 0, "velocity": 0, "duration": 136}, {"note": 68, "velocity": 107, "duration": 53}, {"note": 0, "velocity": 0, "duration": 67}, {"note": 68, "velocity": 112, "duration": 97}, {"note": 0, "velocity": 0, "duration": 143}, {"note": 68, "velocity": 112, "duration": 132}, {"note": 67, "velocity": 102, "duration": 515}, {"note": 0, "velocity": 0, "duration": 325}, {"note": 65, "velocity": 107, "duration": 81}, {"note": 67, "velocity": 127, "duration": 58}, {"note": 0, "velocity": 0, "duration": 62}, {"note": 68, "velocity": 100, "duration": 47}, {"note": 0, "velocity": 0, "duration": 73}, {"note": 68, "velocity": 107, "duration": 47}, {"note": 0, "velocity": 0, "duration": 73}, {"note": 68, "velocity": 112, "duration": 44}, {"note": 0, "velocity": 0, "duration": 76}, {"note": 68, "velocity": 112, "duration": 42}, {"note": 0, "velocity": 0, "duration": 78}, {"note": 68, "velocity": 127, "duration": 53}, {"note": 0, "velocity": 0, "duration": 67}, {"note": 68, "velocity": 127, "duration": 40}, {"note": 0, "velocity": 0, "duration": 80}, {"note": 68, "velocity": 93, "duration": 40}, {"note": 0, "velocity": 0, "duration": 80}, {"note": 68, "velocity": 102, "duration": 38}, {"note": 0, "velocity": 0, "duration": 82}, {"note": 68, "velocity": 100, "duration": 209}, {"note": 67, "velocity": 99, "duration": 50}, {"note": 0, "velocity": 0, "duration": 70}, {"note": 67, "velocity": 122, "duration": 124}, {"note": 0, "velocity": 0, "duration": 236}, {"note": 63, "velocity": 112, "duration": 57}, {"note": 0, "velocity": 0, "duration": 63}, {"note": 65, "velocity": 100, "duration": 52}, {"note": 0, "velocity": 0, "duration": 68}, {"note": 67, "velocity": 122, "duration": 50}, {"note": 0, "velocity": 0, "duration": 70}, {"note": 67, "velocity": 122, "duration": 42}, {"note": 0, "velocity": 0, "duration": 78}, {"note": 67, "velocity": 127, "duration": 44}, {"note": 0, "velocity": 0, "duration": 76}, {"note": 67, "velocity": 122, "duration": 38}, {"note": 0, "velocity": 0, "duration": 82}, {"note": 67, "velocity": 122, "duration": 40}, {"note": 0, "velocity": 0, "duration": 80}, {"note": 67, "velocity": 102, "duration": 40}, {"note": 0, "velocity": 0, "duration": 80}, {"note": 67, "velocity": 122, "duration": 44}, {"note": 0, "velocity": 0, "duration": 76}, {"note": 68, "velocity": 100, "duration": 53}, {"note": 0, "velocity": 0, "duration": 67}, {"note": 67, "velocity": 117, "duration": 79}, {"note": 0, "velocity": 0, "duration": 161}, {"note": 65, "velocity": 102, "duration": 46}, {"note": 0, "velocity": 0, "duration": 74}, {"note": 65, "velocity": 102, "duration": 160}, {"note": 0, "velocity": 0, "duration": 200}, {"note": 65, "velocity": 102, "duration": 56}, {"note": 0, "velocity": 0, "duration": 64}, {"note": 67, "velocity": 117, "duration": 51}, {"note": 0, "velocity": 0, "duration": 69}, {"note": 68, "velocity": 112, "duration": 46}, {"note": 0, "velocity": 0, "duration": 74}, {"note": 65, "velocity": 95, "duration": 52}, {"note": 0, "velocity": 0, "duration": 68}, {"note": 68, "velocity": 107, "duration": 45}, {"note": 0, "velocity": 0, "duration": 75}, {"note": 65, "velocity": 96, "duration": 47}, {"note": 0, "velocity": 0, "duration": 73}, {"note": 68, "velocity": 127, "duration": 113}, {"note": 0, "velocity": 0, "duration": 247}, {"note": 67, "velocity": 117, "duration": 176}, {"note": 0, "velocity": 0, "duration": 64}, {"note": 63, "velocity": 96, "duration": 79}, {"note": 67, "velocity": 107, "duration": 91}, {"note": 63, "velocity": 93, "duration": 94}, {"note": 67, "velocity": 127, "duration": 112}, {"note": 0, "velocity": 0, "duration": 128}, {"note": 70, "velocity": 122, "duration": 60}, {"note": 70, "velocity": 100, "duration": 182}, {"note": 68, "velocity": 102, "duration": 382}, {"note": 0, "velocity": 0, "duration": 1178}, {"note": 65, "velocity": 112, "duration": 108}, {"note": 67, "velocity": 117, "duration": 106}, {"note": 68, "velocity": 100, "duration": 59}, {"note": 0, "velocity": 0, "duration": 61}, {"note": 68, "velocity": 100, "duration": 56}, {"note": 0, "velocity": 0, "duration": 64}, {"note": 68, "velocity": 100, "duration": 54}, {"note": 0, "velocity": 0, "duration": 66}, {"note": 68, "velocity": 107, "duration": 48}, {"note": 0, "velocity": 0, "duration": 72}, {"note": 68, "velocity": 117, "duration": 84}, {"note": 68, "velocity": 122, "duration": 44}, {"note": 0, "velocity": 0, "duration": 76}, {"note": 68, "velocity": 100, "duration": 43}, {"note": 0, "velocity": 0, "duration": 77}, {"note": 68, "velocity": 107, "duration": 39}, {"note": 0, "velocity": 0, "duration": 81}, {"note": 68, "velocity": 122, "duration": 57}, {"note": 0, "velocity": 0, "duration": 63}, {"note": 67, "velocity": 127, "duration": 58}, {"note": 0, "velocity": 0, "duration": 62}, {"note": 67, "velocity": 122, "duration": 42}, {"note": 0, "velocity": 0, "duration": 78}, {"note": 67, "velocity": 127, "duration": 136}, {"note": 0, "velocity": 0, "duration": 224}, {"note": 63, "velocity": 100, "duration": 114}, {"note": 65, "velocity": 99, "duration": 113}, {"note": 67, "velocity": 107, "duration": 59}, {"note": 0, "velocity": 0, "duration": 61}, {"note": 67, "velocity": 112, "duration": 50}, {"note": 0, "velocity": 0, "duration": 70}, {"note": 67, "velocity": 117, "duration": 51}, {"note": 0, "velocity": 0, "duration": 69}, {"note": 67, "velocity": 102, "duration": 41}, {"note": 0, "velocity": 0, "duration": 79}, {"note": 67, "velocity": 127, "duration": 66}, {"note": 67, "velocity": 127, "duration": 43}, {"note": 0, "velocity": 0, "duration": 77}, {"note": 67, "velocity": 127, "duration": 55}, {"note": 0, "velocity": 0, "duration": 65}, {"note": 68, "velocity": 117, "duration": 84}, {"note": 67, "velocity": 112, "duration": 123}, {"note": 0, "velocity": 0, "duration": 117}, {"note": 65, "velocity": 102, "duration": 88}, {"note": 65, "velocity": 107, "duration": 238}, {"note": 0, "velocity": 0, "duration": 122}, {"note": 65, "velocity": 97, "duration": 124}, {"note": 67, "velocity": 117, "duration": 66}, {"note": 68, "velocity": 97, "duration": 84}, {"note": 65, "velocity": 93, "duration": 87}, {"note": 68, "velocity": 96, "duration": 57}, {"note": 0, "velocity": 0, "duration": 63}, {"note": 65, "velocity": 102, "duration": 80}, {"note": 68, "velocity": 112, "duration": 143}, {"note": 0, "velocity": 0, "duration": 217}, {"note": 67, "velocity": 117, "duration": 241}, {"note": 63, "velocity": 89, "duration": 109}, {"note": 67, "velocity": 117, "duration": 119}, {"note": 63, "velocity": 93, "duration": 124}, {"note": 67, "velocity": 117, "duration": 151}, {"note": 0, "velocity": 0, "duration": 89}, {"note": 63, "velocity": 97, "duration": 52}, {"note": 0, "velocity": 0, "duration": 68}, {"note": 63, "velocity": 93, "duration": 65}, {"note": 68, "velocity": 107, "duration": 110}, {"note": 68, "velocity": 112, "duration": 104}, {"note": 0, "velocity": 0, "duration": 136}, {"note": 68, "velocity": 107, "duration": 53}, {"note": 0, "velocity": 0, "duration": 67}, {"note": 68, "velocity": 112, "duration": 97}, {"note": 0, "velocity": 0, "duration": 143}, {"note": 68, "velocity": 112, "duration": 132}, {"note": 67, "velocity": 102, "duration": 515}, {"note": 0, "velocity": 0, "duration": 325}, {"note": 65, "velocity": 107, "duration": 81}, {"note": 67, "velocity": 127, "duration": 58}, {"note": 0, "velocity": 0, "duration": 62}, {"note": 68, "velocity": 100, "duration": 47}, {"note": 0, "velocity": 0, "duration": 73}, {"note": 68, "velocity": 107, "duration": 47}, {"note": 0, "velocity": 0, "duration": 73}, {"note": 68, "velocity": 112, "duration": 44}, {"note": 0, "velocity": 0, "duration": 76}, {"note": 68, "velocity": 112, "duration": 42}, {"note": 0, "velocity": 0, "duration": 78}, {"note": 68, "velocity": 127, "duration": 53}, {"note": 0, "velocity": 0, "duration": 67}, {"note": 68, "velocity": 127, "duration": 40}, {"note": 0, "velocity": 0, "duration": 80}, {"note": 68, "velocity": 93, "duration": 40}, {"note": 0, "velocity": 0, "duration": 80}, {"note": 68, "velocity": 102, "duration": 38}, {"note": 0, "velocity": 0, "duration": 82}, {"note": 68, "velocity": 100, "duration": 209}, {"note": 67, "velocity": 99, "duration": 50}, {"note": 0, "velocity": 0, "duration": 70}, {"note": 67, "velocity": 122, "duration": 124}, {"note": 0, "velocity": 0, "duration": 236}, {"note": 63, "velocity": 112, "duration": 57}, {"note": 0, "velocity": 0, "duration": 63}, {"note": 65, "velocity": 100, "duration": 52}, {"note": 0, "velocity": 0, "duration": 68}, {"note": 67, "velocity": 122, "duration": 50}, {"note": 0, "velocity": 0, "duration": 70}, {"note": 67, "velocity": 122, "duration": 42}, {"note": 0, "velocity": 0, "duration": 78}, {"note": 67, "velocity": 127, "duration": 44}, {"note": 0, "velocity": 0, "duration": 76}, {"note": 67, "velocity": 122, "duration": 38}, {"note": 0, "velocity": 0, "duration": 82}, {"note": 67, "velocity": 122, "duration": 40}, {"note": 0, "velocity": 0, "duration": 80}, {"note": 67, "velocity": 102, "duration": 40}, {"note": 0, "velocity": 0, "duration": 80}, {"note": 67, "velocity": 122, "duration": 44}, {"note": 0, "velocity": 0, "duration": 76}, {"note": 68, "velocity": 100, "duration": 53}, {"note": 0, "velocity": 0, "duration": 67}, {"note": 67, "velocity": 117, "duration": 79}, {"note": 0, "velocity": 0, "duration": 161}, {"note": 65, "velocity": 102, "duration": 46}, {"note": 0, "velocity": 0, "duration": 74}, {"note": 65, "velocity": 102, "duration": 160}, {"note": 0, "velocity": 0, "duration": 200}, {"note": 65, "velocity": 102, "duration": 56}, {"note": 0, "velocity": 0, "duration": 64}, {"note": 67, "velocity": 117, "duration": 51}, {"note": 0, "velocity": 0, "duration": 69}, {"note": 68, "velocity": 112, "duration": 46}, {"note": 0, "velocity": 0, "duration": 74}, {"note": 65, "velocity": 95, "duration": 52}, {"note": 0, "velocity": 0, "duration": 68}, {"note": 68, "velocity": 107, "duration": 45}, {"note": 0, "velocity": 0, "duration": 75}, {"note": 65, "velocity": 96, "duration": 47}, {"note": 0, "velocity": 0, "duration": 73}, {"note": 68, "velocity": 127, "duration": 113}, {"note": 0, "velocity": 0, "duration": 247}, {"note": 67, "velocity": 117, "duration": 176}, {"note": 0, "velocity": 0, "duration": 64}, {"note": 63, "velocity": 96, "duration": 79}, {"note": 67, "velocity": 107, "duration": 91}, {"note": 63, "velocity": 93, "duration": 94}, {"note": 67, "velocity": 127, "duration": 112}, {"note": 0, "velocity": 0, "duration": 128}, {"note": 70, "velocity": 122, "duration": 60}, {"note": 70, "velocity": 100, "duration": 182}, {"note": 68, "velocity": 102, "duration": 382}]]