[[{"note": 56, "velocity": 96, "duration": 248}, {"note": 58, "velocity": 82, "duration": 263}, {"note": 61, "velocity": 100, "duration": 613}, {"note": 0, "velocity": 0, "duration": 107}, {"note": 61, "velocity": 88, "duration": 139}, {"note": 0, "velocity": 0, "duration": 101}, {"note": 61, "velocity": 89, "duration": 395}, {"note": 0, "velocity": 0, "duration": 85}, {"note": 63, "velocity": 97, "duration": 163}, {"note": 0, "velocity": 0, "duration": 77}, {"note": 65, "velocity": 86, "duration": 137}, {"note": 0, "velocity": 0, "duration": 103}, {"note": 63, "velocity": 100, "duration": 339}, {"note": 0, "velocity": 0, "duration": 141}, {"note": 61, "velocity": 88, "duration": 591}, {"note": 0, "velocity": 0, "duration": 369}, {"note": 61, "velocity": 96, "duration": 139}, {"note": 0, "velocity": 0, "duration": 101}, {"note": 63, "velocity": 97, "duration": 126}, {"note": 0, "velocity": 0, "duration": 114}, {"note": 65, "velocity": 97, "duration": 518}, {"note": 0, "velocity": 0, "duration": 202}, {"note": 63, "velocity": 107, "duration": 143}, {"note": 0, "velocity": 0, "duration": 97}, {"note": 61, "velocity": 96, "duration": 233}, {"note": 65, "velocity": 95, "duration": 153}, {"note": 0, "velocity": 0, "duration": 96}, {"note": 68, "velocity": 96, "duration": 110}, {"note": 0, "velocity": 0, "duration": 121}, {"note": 68, "velocity": 95, "duration": 723}, {"note": 0, "velocity": 0, "duration": 957}, {"note": 65, "velocity": 96, "duration": 82}, {"note": 0, "velocity": 0, "duration": 158}, {"note": 68, "velocity": 97, "duration": 74}, {"note": 0, "velocity": 0, "duration": 166}, {"note": 68, "velocity": 99, "duration": 431}, {"note": 0, "velocity": 0, "duration": 289}, {"note": 65, "velocity": 97, "duration": 88}, {"note": 0, "velocity": 0, "duration": 152}, {"note": 65, "velocity": 90, "duration": 309}, {"note": 0, "velocity": 0, "duration": 171}, {"note": 63, "velocity": 95, "duration": 217}, {"note": 61, "velocity": 81, "duration": 197}, {"note": 63, "velocity": 100, "duration": 181}, {"note": 65, "velocity": 93, "duration": 129}, {"note": 0, "velocity": 0, "duration": 111}, {"note": 58, "velocity": 86, "duration": 558}, {"note": 0, "velocity": 0, "duration": 402}, {"note": 58, "velocity": 90, "duration": 194}, {"note": 61, "velocity": 93, "duration": 149}, {"note": 0, "velocity": 0, "duration": 91}, {"note": 63, "velocity": 90, "duration": 542}, {"note": 0, "velocity": 0, "duration": 178}, {"note": 65, "velocity": 97, "duration": 87}, {"note": 0, "velocity": 0, "duration": 153}, {"note": 63, "velocity": 99, "duration": 239}, {"note": 61, "velocity": 82, "duration": 122}, {"note": 0, "velocity": 0, "duration": 358}, {"note": 58, "velocity": 85, "duration": 224}, {"note": 63, "velocity": 90, "duration": 1006}, {"note": 0, "velocity": 0, "duration": 434}, {"note": 56, "velocity": 96, "duration": 248}, {"note": 58, "velocity": 82, "duration": 263}, {"note": 61, "velocity": 100, "duration": 613}, {"note": 0, "velocity": 0, "duration": 107}, {"note": 61, "velocity": 88, "duration": 139}, {"note": 0, "velocity": 0, "duration": 101}, {"note": 61, "velocity": 89, "duration": 230}, {"note": 61, "velocity": 97, "duration": 131}, {"note": 0, "velocity": 0, "duration": 109}, {"note": 63, "velocity": 97, "duration": 163}, {"note": 0, "velocity": 0, "duration": 77}, {"note": 65, "velocity": 86, "duration": 137}, {"note": 0, "velocity": 0, "duration": 103}, {"note": 63, "velocity": 100, "duration": 339}, {"note": 0, "velocity": 0, "duration": 141}, {"note": 61, "velocity": 88, "duration": 591}, {"note": 0, "velocity": 0, "duration": 369}, {"note": 61, "velocity": 96, "duration": 139}, {"note": 0, "velocity": 0, "duration": 101}, {"note": 63, "velocity": 97, "duration": 126}, {"note": 0, "velocity": 0, "duration": 114}, {"note": 65, "velocity": 97, "duration": 518}, {"note": 0, "velocity": 0, "duration": 202}, {"note": 63, "velocity": 107, "duration": 143}, {"note": 0, "velocity": 0, "duration": 97}, {"note": 61, "velocity": 96, "duration": 233}, {"note": 65, "velocity": 95, "duration": 153}, {"note": 0, "velocity": 0, "duration": 87}, {"note": 68, "velocity": 96, "duration": 110}, {"note": 0, "velocity": 0, "duration": 250}, {"note": 68, "velocity": 95, "duration": 723}, {"note": 0, "velocity": 0, "duration": 837}, {"note": 65, "velocity": 96, "duration": 82}, {"note": 0, "velocity": 0, "duration": 158}, {"note": 68, "velocity": 97, "duration": 74}, {"note": 0, "velocity": 0, "duration": 166}, {"note": 68, "velocity": 99, "duration": 431}, {"note": 0, "velocity": 0, "duration": 289}, {"note": 65, "velocity": 97, "duration": 88}, {"note": 0, "velocity": 0, "duration": 152}, {"note": 65, "velocity": 90, "duration": 309}, {"note": 0, "velocity": 0, "duration": 171}, {"note": 63, "velocity": 95, "duration": 217}, {"note": 61, "velocity": 81, "duration": 197}, {"note": 63, "velocity": 100, "duration": 181}, {"note": 65, "velocity": 93, "duration": 129}, {"note": 0, "velocity": 0, "duration": 111}, {"note": 58, "velocity": 86, "duration": 558}, {"note": 0, "velocity": 0, "duration": 402}, {"note": 58, "velocity": 90, "duration": 194}, {"note": 61, "velocity": 93, "duration": 149}, {"note": 0, "velocity": 0, "duration": 91}, {"note": 63, "velocity": 90, "duration": 542}, {"note": 0, "velocity": 0, "duration": 178}, {"note": 65, "velocity": 97, "duration": 87}, {"note": 0, "velocity": 0, "duration": 153}, {"note": 63, "velocity": 99, "duration": 239}, {"note": 61, "velocity": 82, "duration": 122}, {"note": 0, "velocity": 0, "duration": 358}, {"note": 63, "velocity": 100, "duration": 261}, {"note": 61, "velocity": 99, "duration": 1008}, {"note": 0, "velocity": 0, "duration": 432}, {"note": 61, "velocity": 107, "duration": 131}, {"note": 0, "velocity": 0, "duration": 109}, {"note": 61, "velocity": 100, "duration": 153}, {"note": 0, "velocity": 0, "duration": 87}, {"note": 70, "velocity": 127, "duration": 503}, {"note": 0, "velocity": 0, "duration": 217}, {"note": 61, "velocity": 127, "duration": 201}, {"note": 60, "velocity": 122, "duration": 250}, {"note": 61, "velocity": 127, "duration": 197}, {"note": 70, "velocity": 122, "duration": 173}, {"note": 0, "velocity": 0, "duration": 67}, {"note": 72, "velocity": 117, "duration": 289}, {"note": 0, "velocity": 0, "duration": 191}, {"note": 68, "velocity": 122, "duration": 587}, {"note": 0, "velocity": 0, "duration": 613}, {"note": 66, "velocity": 112, "duration": 189}, {"note": 65, "velocity": 102, "duration": 159}, {"note": 0, "velocity": 0, "duration": 81}, {"note": 66, "velocity": 107, "duration": 469}, {"note": 0, "velocity": 0, "duration": 251}, {"note": 66, "velocity": 107, "duration": 152}, {"note": 0, "velocity": 0, "duration": 88}, {"note": 65, "velocity": 102, "duration": 193}, {"note": 69, "velocity": 127, "duration": 160}, {"note": 0, "velocity": 0, "duration": 320}, {"note": 63, "velocity": 107, "duration": 129}, {"note": 0, "velocity": 0, "duration": 111}, {"note": 63, "velocity": 112, "duration": 259}, {"note": 61, "velocity": 83, "duration": 656}, {"note": 0, "velocity": 0, "duration": 304}, {"note": 61, "velocity": 102, "duration": 134}, {"note": 0, "velocity": 0, "duration": 106}, {"note": 63, "velocity": 112, "duration": 168}, {"note": 0, "velocity": 0, "duration": 72}, {"note": 65, "velocity": 117, "duration": 151}, {"note": 0, "velocity": 0, "duration": 89}, {"note": 63, "velocity": 127, "duration": 448}, {"note": 0, "velocity": 0, "duration": 272}, {"note": 63, "velocity": 99, "duration": 108}, {"note": 0, "velocity": 0, "duration": 132}, {"note": 63, "velocity": 102, "duration": 154}, {"note": 0, "velocity": 0, "duration": 86}, {"note": 65, "velocity": 99, "duration": 136}, {"note": 0, "velocity": 0, "duration": 104}, {"note": 66, "velocity": 100, "duration": 165}, {"note": 0, "velocity": 0, "duration": 75}, {"note": 63, "velocity": 97, "duration": 168}, {"note": 0, "velocity": 0, "duration": 72}, {"note": 65, "velocity": 102, "duration": 202}, {"note": 68, "velocity": 107, "duration": 143}, {"note": 0, "velocity": 0, "duration": 97}, {"note": 68, "velocity": 102, "duration": 205}, {"note": 65, "velocity": 107, "duration": 161}, {"note": 0, "velocity": 0, "duration": 79}, {"note": 73, "velocity": 127, "duration": 571}, {"note": 0, "velocity": 0, "duration": 149}, {"note": 73, "velocity": 127, "duration": 110}, {"note": 72, "velocity": 89, "duration": 98}, {"note": 70, "velocity": 99, "duration": 355}, {"note": 0, "velocity": 0, "duration": 365}, {"note": 70, "velocity": 127, "duration": 134}, {"note": 0, "velocity": 0, "duration": 106}, {"note": 70, "velocity": 122, "duration": 163}, {"note": 0, "velocity": 0, "duration": 77}, {"note": 72, "velocity": 107, "duration": 150}, {"note": 0, "velocity": 0, "duration": 90}, {"note": 70, "velocity": 112, "duration": 161}, {"note": 0, "velocity": 0, "duration": 79}, {"note": 72, "velocity": 117, "duration": 173}, {"note": 0, "velocity": 0, "duration": 67}, {"note": 68, "velocity": 102, "duration": 510}, {"note": 70, "velocity": 122, "duration": 326}, {"note": 0, "velocity": 0, "duration": 154}, {"note": 72, "velocity": 127, "duration": 199}, {"note": 68, "velocity": 107, "duration": 161}, {"note": 0, "velocity": 0, "duration": 79}, {"note": 73, "velocity": 127, "duration": 184}, {"note": 72, "velocity": 117, "duration": 180}, {"note": 70, "velocity": 112, "duration": 283}, {"note": 0, "velocity": 0, "duration": 437}, {"note": 65, "velocity": 100, "duration": 168}, {"note": 0, "velocity": 0, "duration": 72}, {"note": 66, "velocity": 112, "duration": 165}, {"note": 0, "velocity": 0, "duration": 75}, {"note": 68, "velocity": 122, "duration": 209}, {"note": 0, "velocity": 0, "duration": 271}, {"note": 70, "velocity": 122, "duration": 155}, {"note": 0, "velocity": 0, "duration": 85}, {"note": 68, "velocity": 117, "duration": 317}, {"note": 0, "velocity": 0, "duration": 163}, {"note": 65, "velocity": 107, "duration": 95}, {"note": 0, "velocity": 0, "duration": 145}, {"note": 63, "velocity": 100, "duration": 97}, {"note": 0, "velocity": 0, "duration": 143}, {"note": 61, "velocity": 93, "duration": 287}, {"note": 0, "velocity": 0, "duration": 193}, {"note": 58, "velocity": 102, "duration": 208}, {"note": 61, "velocity": 99, "duration": 157}, {"note": 0, "velocity": 0, "duration": 83}, {"note": 66, "velocity": 99, "duration": 409}, {"note": 0, "velocity": 0, "duration": 311}, {"note": 68, "velocity": 122, "duration": 49}, {"note": 0, "velocity": 0, "duration": 191}, {"note": 65, "velocity": 112, "duration": 316}, {"note": 63, "velocity": 107, "duration": 235}, {"note": 61, "velocity": 117, "duration": 75}, {"note": 0, "velocity": 0, "duration": 405}, {"note": 63, "velocity": 107, "duration": 203}, {"note": 61, "velocity": 92, "duration": 949}, {"note": 0, "velocity": 0, "duration": 6011}, {"note": 56, "velocity": 96, "duration": 248}, {"note": 58, "velocity": 82, "duration": 263}, {"note": 61, "velocity": 100, "duration": 613}, {"note": 0, "velocity": 0, "duration": 107}, {"note": 61, "velocity": 88, "duration": 139}, {"note": 0, "velocity": 0, "duration": 101}, {"note": 61, "velocity": 89, "duration": 230}, {"note": 61, "velocity": 97, "duration": 131}, {"note": 0, "velocity": 0, "duration": 109}, {"note": 63, "velocity": 97, "duration": 163}, {"note": 0, "velocity": 0, "duration": 77}, {"note": 65, "velocity": 86, "duration": 137}, {"note": 0, "velocity": 0, "duration": 103}, {"note": 63, "velocity": 100, "duration": 339}, {"note": 0, "velocity": 0, "duration": 141}, {"note": 61, "velocity": 88, "duration": 591}, {"note": 0, "velocity": 0, "duration": 369}, {"note": 61, "velocity": 96, "duration": 139}, {"note": 0, "velocity": 0, "duration": 101}, {"note": 63, "velocity": 97, "duration": 126}, {"note": 0, "velocity": 0, "duration": 114}, {"note": 65, "velocity": 97, "duration": 518}, {"note": 0, "velocity": 0, "duration": 202}, {"note": 63, "velocity": 107, "duration": 143}, {"note": 0, "velocity": 0, "duration": 97}, {"note": 61, "velocity": 96, "duration": 233}, {"note": 65, "velocity": 95, "duration": 153}, {"note": 0, "velocity": 0, "duration": 147}, {"note": 68, "velocity": 96, "duration": 110}, {"note": 0, "velocity": 0, "duration": 70}, {"note": 68, "velocity": 95, "duration": 723}, {"note": 0, "velocity": 0, "duration": 957}, {"note": 65, "velocity": 96, "duration": 82}, {"note": 0, "velocity": 0, "duration": 158}, {"note": 68, "velocity": 97, "duration": 74}, {"note": 0, "velocity": 0, "duration": 166}, {"note": 68, "velocity": 99, "duration": 431}, {"note": 0, "velocity": 0, "duration": 289}, {"note": 65, "velocity": 97, "duration": 88}, {"note": 0, "velocity": 0, "duration": 152}, {"note": 65, "velocity": 90, "duration": 309}, {"note": 0, "velocity": 0, "duration": 171}, {"note": 63, "velocity": 95, "duration": 217}, {"note": 61, "velocity": 81, "duration": 197}, {"note": 63, "velocity": 100, "duration": 181}, {"note": 65, "velocity": 93, "duration": 129}, {"note": 0, "velocity": 0, "duration": 111}, {"note": 58, "velocity": 86, "duration": 558}, {"note": 0, "velocity": 0, "duration": 402}, {"note": 58, "velocity": 90, "duration": 194}, {"note": 61, "velocity": 93, "duration": 149}, {"note": 0, "velocity": 0, "duration": 91}, {"note": 63, "velocity": 90, "duration": 542}, {"note": 0, "velocity": 0, "duration": 178}, {"note": 65, "velocity": 97, "duration": 87}, {"note": 0, "velocity": 0, "duration": 153}, {"note": 63, "velocity": 99, "duration": 239}, {"note": 61, "velocity": 82, "duration": 122}, {"note": 0, "velocity": 0, "duration": 358}, {"note": 63, "velocity": 100, "duration": 261}, {"note": 61, "velocity": 99, "duration": 1008}, {"note": 0, "velocity": 0, "duration": 432}, {"note": 61, "velocity": 107, "duration": 131}, {"note": 0, "velocity": 0, "duration": 109}, {"note": 61, "velocity": 100, "duration": 153}, {"note": 0, "velocity": 0, "duration": 87}, {"note": 70, "velocity": 127, "duration": 503}, {"note": 0, "velocity": 0, "duration": 217}, {"note": 61, "velocity": 127, "duration": 201}, {"note": 60, "velocity": 122, "duration": 250}, {"note": 61, "velocity": 127, "duration": 197}, {"note": 70, "velocity": 122, "duration": 173}, {"note": 0, "velocity": 0, "duration": 67}, {"note": 72, "velocity": 117, "duration": 289}, {"note": 0, "velocity": 0, "duration": 191}, {"note": 68, "velocity": 122, "duration": 587}, {"note": 0, "velocity": 0, "duration": 613}, {"note": 66, "velocity": 112, "duration": 189}, {"note": 65, "velocity": 102, "duration": 159}, {"note": 0, "velocity": 0, "duration": 81}, {"note": 66, "velocity": 107, "duration": 469}, {"note": 0, "velocity": 0, "duration": 251}, {"note": 66, "velocity": 107, "duration": 152}, {"note": 0, "velocity": 0, "duration": 88}, {"note": 65, "velocity": 102, "duration": 193}, {"note": 69, "velocity": 127, "duration": 160}, {"note": 0, "velocity": 0, "duration": 320}, {"note": 63, "velocity": 107, "duration": 129}, {"note": 0, "velocity": 0, "duration": 111}, {"note": 63, "velocity": 112, "duration": 259}, {"note": 61, "velocity": 83, "duration": 656}, {"note": 0, "velocity": 0, "duration": 304}, {"note": 61, "velocity": 102, "duration": 134}, {"note": 0, "velocity": 0, "duration": 106}, {"note": 63, "velocity": 112, "duration": 168}, {"note": 0, "velocity": 0, "duration": 72}, {"note": 65, "velocity": 117, "duration": 151}, {"note": 0, "velocity": 0, "duration": 89}, {"note": 63, "velocity": 127, "duration": 448}, {"note": 0, "velocity": 0, "duration": 272}, {"note": 63, "velocity": 99, "duration": 108}, {"note": 0, "velocity": 0, "duration": 132}, {"note": 63, "velocity": 102, "duration": 154}, {"note": 0, "velocity": 0, "duration": 86}, {"note": 65, "velocity": 99, "duration": 136}, {"note": 0, "velocity": 0, "duration": 104}, {"note": 66, "velocity": 100, "duration": 165}, {"note": 0, "velocity": 0, "duration": 75}, {"note": 63, "velocity": 97, "duration": 168}, {"note": 0, "velocity": 0, "duration": 72}, {"note": 65, "velocity": 102, "duration": 202}, {"note": 68, "velocity": 107, "duration": 143}, {"note": 0, "velocity": 0, "duration": 97}, {"note": 68, "velocity": 102, "duration": 205}, {"note": 65, "velocity": 107, "duration": 161}, {"note": 0, "velocity": 0, "duration": 79}, {"note": 73, "velocity": 127, "duration": 571}, {"note": 0, "velocity": 0, "duration": 149}, {"note": 73, "velocity": 127, "duration": 110}, {"note": 72, "velocity": 89, "duration": 98}, {"note": 70, "velocity": 99, "duration": 355}, {"note": 0, "velocity": 0, "duration": 365}, {"note": 70, "velocity": 127, "duration": 134}, {"note": 0, "velocity": 0, "duration": 106}, {"note": 70, "velocity": 122, "duration": 163}, {"note": 0, "velocity": 0, "duration": 77}, {"note": 72, "velocity": 107, "duration": 150}, {"note": 0, "velocity": 0, "duration": 90}, {"note": 70, "velocity": 112, "duration": 161}, {"note": 0, "velocity": 0, "duration": 79}, {"note": 72, "velocity": 117, "duration": 173}, {"note": 0, "velocity": 0, "duration": 67}, {"note": 68, "velocity": 102, "duration": 510}, {"note": 70, "velocity": 122, "duration": 326}, {"note": 0, "velocity": 0, "duration": 154}, {"note": 72, "velocity": 127, "duration": 199}, {"note": 68, "velocity": 107, "duration": 161}, {"note": 0, "velocity": 0, "duration": 79}, {"note": 73, "velocity": 127, "duration": 184}, {"note": 72, "velocity": 117, "duration": 180}, {"note": 70, "velocity": 112, "duration": 283}, {"note": 0, "velocity": 0, "duration": 437}, {"note": 65, "velocity": 100, "duration": 168}, {"note": 0, "velocity": 0, "duration": 72}, {"note": 66, "velocity": 112, "duration": 165}, {"note": 0, "velocity": 0, "duration": 75}, {"note": 68, "velocity": 122, "duration": 209}, {"note": 0, "velocity": 0, "duration": 271}, {"note": 70, "velocity": 122, "duration": 155}, {"note": 0, "velocity": 0, "duration": 85}, {"note": 68, "velocity": 117, "duration": 317}, {"note": 0, "velocity": 0, "duration": 163}, {"note": 65, "velocity": 107, "duration": 95}, {"note": 0, "velocity": 0, "duration": 145}, {"note": 63, "velocity": 100, "duration": 97}, {"note": 0, "velocity": 0, "duration": 143}, {"note": 61, "velocity": 93, "duration": 287}, {"note": 0, "velocity": 0, "duration": 193}, {"note": 58, "velocity": 102, "duration": 208}, {"note": 61, "velocity": 99, "duration": 157}, {"note": 0, "velocity": 0, "duration": 83}, {"note": 66, "velocity": 99, "duration": 409}, {"note": 0, "velocity": 0, "duration": 311}, {"note": 68, "velocity": 89, "duration": 49}, {"note": 0, "velocity": 0, "duration": 191}, {"note": 65, "velocity": 89, "duration": 316}, {"note": 63, "velocity": 89, "duration": 235}, {"note": 0, "velocity": 0, "duration": 896}, {"note": 63, "velocity": 107, "duration": 203}, {"note": 61, "velocity": 92, "duration": 949}, {"note": 0, "velocity": 0, "duration": 17120}, {"note": 61, "velocity": 107, "duration": 131}, {"note": 0, "velocity": 0, "duration": 109}, {"note": 61, "velocity": 100, "duration": 153}, {"note": 0, "velocity": 0, "duration": 87}, {"note": 70, "velocity": 127, "duration": 503}, {"note": 0, "velocity": 0, "duration": 217}, {"note": 61, "velocity": 127, "duration": 201}, {"note": 60, "velocity": 122, "duration": 250}, {"note": 61, "velocity": 127, "duration": 197}, {"note": 70, "velocity": 122, "duration": 173}, {"note": 0, "velocity": 0, "duration": 67}, {"note": 72, "velocity": 117, "duration": 289}, {"note": 0, "velocity": 0, "duration": 191}, {"note": 68, "velocity": 122, "duration": 587}, {"note": 0, "velocity": 0, "duration": 613}, {"note": 66, "velocity": 112, "duration": 189}, {"note": 65, "velocity": 102, "duration": 159}, {"note": 0, "velocity": 0, "duration": 81}, {"note": 66, "velocity": 107, "duration": 469}, {"note": 0, "velocity": 0, "duration": 251}, {"note": 66, "velocity": 107, "duration": 152}, {"note": 0, "velocity": 0, "duration": 88}, {"note": 65, "velocity": 102, "duration": 193}, {"note": 69, "velocity": 127, "duration": 160}, {"note": 0, "velocity": 0, "duration": 320}, {"note": 63, "velocity": 107, "duration": 129}, {"note": 0, "velocity": 0, "duration": 111}, {"note": 63, "velocity": 112, "duration": 259}, {"note": 61, "velocity": 83, "duration": 656}, {"note": 0, "velocity": 0, "duration": 304}, {"note": 61, "velocity": 102, "duration": 134}, {"note": 0, "velocity": 0, "duration": 106}, {"note": 63, "velocity": 112, "duration": 168}, {"note": 0, "velocity": 0, "duration": 72}, {"note": 65, "velocity": 117, "duration": 151}, {"note": 0, "velocity": 0, "duration": 89}, {"note": 63, "velocity": 127, "duration": 448}, {"note": 0, "velocity": 0, "duration": 272}, {"note": 63, "velocity": 99, "duration": 108}, {"note": 0, "velocity": 0, "duration": 132}, {"note": 63, "velocity": 102, "duration": 154}, {"note": 0, "velocity": 0, "duration": 86}, {"note": 65, "velocity": 99, "duration": 136}, {"note": 0, "velocity": 0, "duration": 104}, {"note": 66, "velocity": 100, "duration": 165}, {"note": 0, "velocity": 0, "duration": 75}, {"note": 63, "velocity": 97, "duration": 168}, {"note": 0, "velocity": 0, "duration": 72}, {"note": 65, "velocity": 102, "duration": 202}, {"note": 68, "velocity": 107, "duration": 143}, {"note": 0, "velocity": 0, "duration": 97}, {"note": 68, "velocity": 102, "duration": 205}, {"note": 65, "velocity": 107, "duration": 161}, {"note": 0, "velocity": 0, "duration": 79}, {"note": 73, "velocity": 127, "duration": 571}, {"note": 0, "velocity": 0, "duration": 149}, {"note": 73, "velocity": 127, "duration": 110}, {"note": 72, "velocity": 89, "duration": 98}, {"note": 70, "velocity": 99, "duration": 355}, {"note": 0, "velocity": 0, "duration": 365}, {"note": 70, "velocity": 127, "duration": 134}, {"note": 0, "velocity": 0, "duration": 106}, {"note": 70, "velocity": 122, "duration": 163}, {"note": 0, "velocity": 0, "duration": 77}, {"note": 72, "velocity": 107, "duration": 150}, {"note": 0, "velocity": 0, "duration": 90}, {"note": 70, "velocity": 112, "duration": 161}, {"note": 0, "velocity": 0, "duration": 79}, {"note": 72, "velocity": 117, "duration": 173}, {"note": 0, "velocity": 0, "duration": 67}, {"note": 68, "velocity": 102, "duration": 510}, {"note": 70, "velocity": 122, "duration": 326}, {"note": 0, "velocity": 0, "duration": 154}, {"note": 72, "velocity": 127, "duration": 199}, {"note": 68, "velocity": 107, "duration": 161}, {"note": 0, "velocity": 0, "duration": 79}, {"note": 73, "velocity": 127, "duration": 184}, {"note": 72, "velocity": 117, "duration": 180}, {"note": 70, "velocity": 112, "duration": 283}, {"note": 0, "velocity": 0, "duration": 437}, {"note": 65, "velocity": 100, "duration": 168}, {"note": 0, "velocity": 0, "duration": 72}, {"note": 66, "velocity": 112, "duration": 165}, {"note": 0, "velocity": 0, "duration": 75}, {"note": 68, "velocity": 122, "duration": 209}, {"note": 0, "velocity": 0, "duration": 271}, {"note": 70, "velocity": 122, "duration": 155}, {"note": 0, "velocity": 0, "duration": 85}, {"note": 68, "velocity": 117, "duration": 317}, {"note": 0, "velocity": 0, "duration": 163}, {"note": 65, "velocity": 107, "duration": 95}, {"note": 0, "velocity": 0, "duration": 145}, {"note": 63, "velocity": 100, "duration": 97}, {"note": 0, "velocity": 0, "duration": 143}, {"note": 61, "velocity": 93, "duration": 287}, {"note": 0, "velocity": 0, "duration": 193}, {"note": 58, "velocity": 102, "duration": 208}, {"note": 61, "velocity": 99, "duration": 157}, {"note": 0, "velocity": 0, "duration": 83}, {"note": 66, "velocity": 99, "duration": 409}, {"note": 0, "velocity": 0, "duration": 311}, {"note": 68, "velocity": 122, "duration": 49}, {"note": 0, "velocity": 0, "duration": 191}, {"note": 65, "velocity": 112, "duration": 316}, {"note": 63, "velocity": 107, "duration": 235}, {"note": 61, "velocity": 117, "duration": 75}, {"note": 0, "velocity": 0, "duration": 1245}, {"note": 63, "velocity": 112, "duration": 546}, {"note": 0, "velocity": 0, "duration": 294}, {"note": 61, "velocity": 112, "duration": 1274}]]