[[{"note": 57, "velocity": 96, "duration": 273}, {"note": 59, "velocity": 100, "duration": 223}, {"note": 61, "velocity": 95, "duration": 249}, {"note": 54, "velocity": 81, "duration": 633}, {"note": 0, "velocity": 0, "duration": 2487}, {"note": 52, "velocity": 92, "duration": 228}, {"note": 54, "velocity": 95, "duration": 201}, {"note": 57, "velocity": 88, "duration": 203}, {"note": 61, "velocity": 122, "duration": 465}, {"note": 59, "velocity": 107, "duration": 134}, {"note": 61, "velocity": 78, "duration": 82}, {"note": 59, "velocity": 66, "duration": 55}, {"note": 57, "velocity": 72, "duration": 137}, {"note": 59, "velocity": 85, "duration": 127}, {"note": 57, "velocity": 92, "duration": 1032}, {"note": 0, "velocity": 0, "duration": 888}, {"note": 52, "velocity": 93, "duration": 162}, {"note": 0, "velocity": 0, "duration": 78}, {"note": 52, "velocity": 88, "duration": 66}, {"note": 52, "velocity": 79, "duration": 108}, {"note": 57, "velocity": 92, "duration": 239}, {"note": 59, "velocity": 83, "duration": 157}, {"note": 61, "velocity": 79, "duration": 104}, {"note": 64, "velocity": 90, "duration": 470}, {"note": 0, "velocity": 0, "duration": 250}, {"note": 69, "velocity": 100, "duration": 228}, {"note": 66, "velocity": 93, "duration": 308}, {"note": 66, "velocity": 102, "duration": 68}, {"note": 0, "velocity": 0, "duration": 172}, {"note": 61, "velocity": 100, "duration": 248}, {"note": 59, "velocity": 78, "duration": 243}, {"note": 57, "velocity": 74, "duration": 450}, {"note": 0, "velocity": 0, "duration": 510}, {"note": 61, "velocity": 100, "duration": 132}, {"note": 0, "velocity": 0, "duration": 108}, {"note": 61, "velocity": 97, "duration": 202}, {"note": 64, "velocity": 93, "duration": 285}, {"note": 69, "velocity": 99, "duration": 205}, {"note": 69, "velocity": 97, "duration": 458}, {"note": 66, "velocity": 100, "duration": 226}, {"note": 64, "velocity": 85, "duration": 111}, {"note": 66, "velocity": 93, "duration": 147}, {"note": 64, "velocity": 89, "duration": 763}, {"note": 0, "velocity": 0, "duration": 1157}, {"note": 61, "velocity": 95, "duration": 148}, {"note": 0, "velocity": 0, "duration": 92}, {"note": 61, "velocity": 107, "duration": 221}, {"note": 64, "velocity": 97, "duration": 246}, {"note": 69, "velocity": 92, "duration": 169}, {"note": 0, "velocity": 0, "duration": 71}, {"note": 69, "velocity": 100, "duration": 383}, {"note": 0, "velocity": 0, "duration": 337}, {"note": 66, "velocity": 112, "duration": 127}, {"note": 64, "velocity": 74, "duration": 136}, {"note": 66, "velocity": 102, "duration": 252}, {"note": 0, "velocity": 0, "duration": 228}, {"note": 66, "velocity": 97, "duration": 214}, {"note": 61, "velocity": 90, "duration": 104}, {"note": 64, "velocity": 81, "duration": 134}, {"note": 61, "velocity": 107, "duration": 369}, {"note": 0, "velocity": 0, "duration": 591}, {"note": 52, "velocity": 90, "duration": 170}, {"note": 0, "velocity": 0, "duration": 70}, {"note": 52, "velocity": 90, "duration": 241}, {"note": 57, "velocity": 76, "duration": 180}, {"note": 0, "velocity": 0, "duration": 180}, {"note": 59, "velocity": 86, "duration": 155}, {"note": 61, "velocity": 96, "duration": 123}, {"note": 64, "velocity": 89, "duration": 413}, {"note": 0, "velocity": 0, "duration": 67}, {"note": 64, "velocity": 89, "duration": 224}, {"note": 57, "velocity": 83, "duration": 136}, {"note": 61, "velocity": 79, "duration": 130}, {"note": 59, "velocity": 89, "duration": 559}, {"note": 0, "velocity": 0, "duration": 1361}, {"note": 61, "velocity": 97, "duration": 158}, {"note": 0, "velocity": 0, "duration": 82}, {"note": 61, "velocity": 93, "duration": 196}, {"note": 64, "velocity": 88, "duration": 273}, {"note": 66, "velocity": 117, "duration": 136}, {"note": 69, "velocity": 79, "duration": 71}, {"note": 69, "velocity": 100, "duration": 497}, {"note": 0, "velocity": 0, "duration": 103}, {"note": 69, "velocity": 81, "duration": 125}, {"note": 66, "velocity": 88, "duration": 136}, {"note": 64, "velocity": 83, "duration": 116}, {"note": 66, "velocity": 100, "duration": 351}, {"note": 0, "velocity": 0, "duration": 129}, {"note": 66, "velocity": 99, "duration": 221}, {"note": 61, "velocity": 85, "duration": 120}, {"note": 64, "velocity": 77, "duration": 152}, {"note": 61, "velocity": 99, "duration": 559}, {"note": 0, "velocity": 0, "duration": 401}, {"note": 66, "velocity": 96, "duration": 202}, {"note": 64, "velocity": 82, "duration": 219}, {"note": 59, "velocity": 90, "duration": 213}, {"note": 61, "velocity": 88, "duration": 146}, {"note": 64, "velocity": 93, "duration": 64}, {"note": 64, "velocity": 95, "duration": 388}, {"note": 0, "velocity": 0, "duration": 572}, {"note": 52, "velocity": 89, "duration": 237}, {"note": 54, "velocity": 88, "duration": 226}, {"note": 61, "velocity": 81, "duration": 267}, {"note": 59, "velocity": 82, "duration": 246}, {"note": 57, "velocity": 92, "duration": 868}, {"note": 0, "velocity": 0, "duration": 332}, {"note": 59, "velocity": 88, "duration": 257}, {"note": 61, "velocity": 85, "duration": 449}, {"note": 64, "velocity": 93, "duration": 501}, {"note": 0, "velocity": 0, "duration": 1059}, {"note": 61, "velocity": 112, "duration": 165}, {"note": 0, "velocity": 0, "duration": 75}, {"note": 64, "velocity": 81, "duration": 144}, {"note": 66, "velocity": 96, "duration": 110}, {"note": 69, "velocity": 100, "duration": 420}, {"note": 0, "velocity": 0, "duration": 300}, {"note": 71, "velocity": 99, "duration": 58}, {"note": 0, "velocity": 0, "duration": 182}, {"note": 71, "velocity": 117, "duration": 357}, {"note": 0, "velocity": 0, "duration": 123}, {"note": 69, "velocity": 112, "duration": 218}, {"note": 66, "velocity": 102, "duration": 128}, {"note": 69, "velocity": 92, "duration": 116}, {"note": 66, "velocity": 127, "duration": 587}, {"note": 0, "velocity": 0, "duration": 853}, {"note": 64, "velocity": 102, "duration": 250}, {"note": 66, "velocity": 93, "duration": 132}, {"note": 69, "velocity": 82, "duration": 125}, {"note": 66, "velocity": 112, "duration": 590}, {"note": 0, "velocity": 0, "duration": 130}, {"note": 66, "velocity": 102, "duration": 240}, {"note": 61, "velocity": 99, "duration": 223}, {"note": 59, "velocity": 82, "duration": 124}, {"note": 57, "velocity": 69, "duration": 120}, {"note": 59, "velocity": 89, "duration": 282}, {"note": 61, "velocity": 85, "duration": 198}, {"note": 64, "velocity": 97, "duration": 823}, {"note": 0, "velocity": 0, "duration": 617}, {"note": 61, "velocity": 112, "duration": 195}, {"note": 64, "velocity": 96, "duration": 151}, {"note": 66, "velocity": 93, "duration": 123}, {"note": 69, "velocity": 97, "duration": 347}, {"note": 0, "velocity": 0, "duration": 373}, {"note": 71, "velocity": 102, "duration": 123}, {"note": 0, "velocity": 0, "duration": 117}, {"note": 71, "velocity": 112, "duration": 274}, {"note": 0, "velocity": 0, "duration": 206}, {"note": 69, "velocity": 99, "duration": 225}, {"note": 66, "velocity": 93, "duration": 126}, {"note": 69, "velocity": 85, "duration": 126}, {"note": 66, "velocity": 112, "duration": 500}, {"note": 0, "velocity": 0, "duration": 940}, {"note": 64, "velocity": 100, "duration": 174}, {"note": 0, "velocity": 0, "duration": 66}, {"note": 64, "velocity": 95, "duration": 128}, {"note": 69, "velocity": 92, "duration": 143}, {"note": 66, "velocity": 117, "duration": 302}, {"note": 0, "velocity": 0, "duration": 418}, {"note": 64, "velocity": 100, "duration": 107}, {"note": 66, "velocity": 69, "duration": 110}, {"note": 61, "velocity": 100, "duration": 135}, {"note": 0, "velocity": 0, "duration": 225}, {"note": 61, "velocity": 97, "duration": 129}, {"note": 57, "velocity": 93, "duration": 207}, {"note": 54, "velocity": 77, "duration": 253}, {"note": 52, "velocity": 76, "duration": 465}, {"note": 0, "velocity": 0, "duration": 255}, {"note": 64, "velocity": 90, "duration": 146}, {"note": 0, "velocity": 0, "duration": 94}, {"note": 61, "velocity": 92, "duration": 321}, {"note": 0, "velocity": 0, "duration": 159}, {"note": 59, "velocity": 86, "duration": 211}, {"note": 57, "velocity": 72, "duration": 117}, {"note": 59, "velocity": 72, "duration": 136}, {"note": 57, "velocity": 86, "duration": 943}, {"note": 0, "velocity": 0, "duration": 3137}, {"note": 57, "velocity": 96, "duration": 273}, {"note": 59, "velocity": 100, "duration": 223}, {"note": 61, "velocity": 95, "duration": 249}, {"note": 54, "velocity": 81, "duration": 633}, {"note": 0, "velocity": 0, "duration": 2487}, {"note": 52, "velocity": 92, "duration": 228}, {"note": 54, "velocity": 95, "duration": 201}, {"note": 57, "velocity": 88, "duration": 203}, {"note": 61, "velocity": 122, "duration": 465}, {"note": 59, "velocity": 107, "duration": 134}, {"note": 61, "velocity": 78, "duration": 82}, {"note": 59, "velocity": 66, "duration": 55}, {"note": 57, "velocity": 72, "duration": 137}, {"note": 59, "velocity": 85, "duration": 127}, {"note": 57, "velocity": 92, "duration": 1032}, {"note": 0, "velocity": 0, "duration": 888}, {"note": 52, "velocity": 93, "duration": 162}, {"note": 0, "velocity": 0, "duration": 78}, {"note": 52, "velocity": 88, "duration": 66}, {"note": 52, "velocity": 79, "duration": 108}, {"note": 57, "velocity": 92, "duration": 239}, {"note": 59, "velocity": 83, "duration": 157}, {"note": 61, "velocity": 79, "duration": 104}, {"note": 64, "velocity": 90, "duration": 470}, {"note": 0, "velocity": 0, "duration": 250}, {"note": 69, "velocity": 100, "duration": 228}, {"note": 66, "velocity": 93, "duration": 308}, {"note": 66, "velocity": 102, "duration": 68}, {"note": 0, "velocity": 0, "duration": 172}, {"note": 61, "velocity": 100, "duration": 248}, {"note": 59, "velocity": 78, "duration": 243}, {"note": 57, "velocity": 74, "duration": 450}, {"note": 0, "velocity": 0, "duration": 510}, {"note": 61, "velocity": 100, "duration": 132}, {"note": 0, "velocity": 0, "duration": 108}, {"note": 61, "velocity": 97, "duration": 202}, {"note": 64, "velocity": 93, "duration": 285}, {"note": 69, "velocity": 99, "duration": 205}, {"note": 69, "velocity": 97, "duration": 458}, {"note": 66, "velocity": 100, "duration": 226}, {"note": 64, "velocity": 85, "duration": 111}, {"note": 66, "velocity": 93, "duration": 147}, {"note": 64, "velocity": 89, "duration": 763}, {"note": 0, "velocity": 0, "duration": 1157}, {"note": 61, "velocity": 95, "duration": 148}, {"note": 0, "velocity": 0, "duration": 92}, {"note": 61, "velocity": 107, "duration": 221}, {"note": 64, "velocity": 97, "duration": 246}, {"note": 69, "velocity": 92, "duration": 169}, {"note": 0, "velocity": 0, "duration": 71}, {"note": 69, "velocity": 100, "duration": 383}, {"note": 0, "velocity": 0, "duration": 337}, {"note": 66, "velocity": 112, "duration": 127}, {"note": 64, "velocity": 74, "duration": 136}, {"note": 66, "velocity": 102, "duration": 252}, {"note": 0, "velocity": 0, "duration": 228}, {"note": 66, "velocity": 97, "duration": 214}, {"note": 61, "velocity": 90, "duration": 104}, {"note": 64, "velocity": 81, "duration": 134}, {"note": 61, "velocity": 107, "duration": 369}, {"note": 0, "velocity": 0, "duration": 591}, {"note": 52, "velocity": 90, "duration": 170}, {"note": 0, "velocity": 0, "duration": 70}, {"note": 52, "velocity": 90, "duration": 241}, {"note": 57, "velocity": 76, "duration": 180}, {"note": 0, "velocity": 0, "duration": 180}, {"note": 59, "velocity": 86, "duration": 155}, {"note": 61, "velocity": 96, "duration": 123}, {"note": 64, "velocity": 89, "duration": 413}, {"note": 0, "velocity": 0, "duration": 67}, {"note": 64, "velocity": 89, "duration": 224}, {"note": 57, "velocity": 83, "duration": 136}, {"note": 61, "velocity": 79, "duration": 130}, {"note": 59, "velocity": 89, "duration": 559}, {"note": 0, "velocity": 0, "duration": 1361}, {"note": 61, "velocity": 97, "duration": 158}, {"note": 0, "velocity": 0, "duration": 82}, {"note": 61, "velocity": 93, "duration": 196}, {"note": 64, "velocity": 88, "duration": 273}, {"note": 66, "velocity": 117, "duration": 136}, {"note": 69, "velocity": 79, "duration": 71}, {"note": 69, "velocity": 100, "duration": 497}, {"note": 0, "velocity": 0, "duration": 103}, {"note": 69, "velocity": 81, "duration": 125}, {"note": 66, "velocity": 88, "duration": 136}, {"note": 64, "velocity": 83, "duration": 116}, {"note": 66, "velocity": 100, "duration": 351}, {"note": 0, "velocity": 0, "duration": 129}, {"note": 66, "velocity": 99, "duration": 221}, {"note": 61, "velocity": 85, "duration": 120}, {"note": 64, "velocity": 77, "duration": 152}, {"note": 61, "velocity": 99, "duration": 559}, {"note": 0, "velocity": 0, "duration": 401}, {"note": 66, "velocity": 96, "duration": 202}, {"note": 64, "velocity": 82, "duration": 219}, {"note": 59, "velocity": 90, "duration": 213}, {"note": 61, "velocity": 88, "duration": 146}, {"note": 64, "velocity": 93, "duration": 64}, {"note": 64, "velocity": 95, "duration": 388}, {"note": 0, "velocity": 0, "duration": 572}, {"note": 52, "velocity": 89, "duration": 237}, {"note": 54, "velocity": 88, "duration": 226}, {"note": 61, "velocity": 81, "duration": 267}, {"note": 59, "velocity": 82, "duration": 246}, {"note": 57, "velocity": 92, "duration": 868}, {"note": 0, "velocity": 0, "duration": 332}, {"note": 59, "velocity": 88, "duration": 257}, {"note": 61, "velocity": 85, "duration": 449}, {"note": 64, "velocity": 93, "duration": 501}, {"note": 0, "velocity": 0, "duration": 1059}, {"note": 61, "velocity": 112, "duration": 165}, {"note": 0, "velocity": 0, "duration": 75}, {"note": 64, "velocity": 81, "duration": 144}, {"note": 66, "velocity": 96, "duration": 110}, {"note": 69, "velocity": 100, "duration": 420}, {"note": 0, "velocity": 0, "duration": 300}, {"note": 71, "velocity": 99, "duration": 58}, {"note": 0, "velocity": 0, "duration": 182}, {"note": 71, "velocity": 117, "duration": 357}, {"note": 0, "velocity": 0, "duration": 123}, {"note": 69, "velocity": 112, "duration": 218}, {"note": 66, "velocity": 102, "duration": 128}, {"note": 69, "velocity": 92, "duration": 116}, {"note": 66, "velocity": 127, "duration": 587}, {"note": 0, "velocity": 0, "duration": 853}, {"note": 64, "velocity": 102, "duration": 250}, {"note": 66, "velocity": 93, "duration": 132}, {"note": 69, "velocity": 82, "duration": 125}, {"note": 66, "velocity": 112, "duration": 590}, {"note": 0, "velocity": 0, "duration": 130}, {"note": 66, "velocity": 102, "duration": 240}, {"note": 61, "velocity": 99, "duration": 223}, {"note": 59, "velocity": 82, "duration": 124}, {"note": 57, "velocity": 69, "duration": 120}, {"note": 59, "velocity": 89, "duration": 282}, {"note": 61, "velocity": 85, "duration": 198}, {"note": 64, "velocity": 97, "duration": 823}, {"note": 0, "velocity": 0, "duration": 617}, {"note": 61, "velocity": 112, "duration": 195}, {"note": 64, "velocity": 96, "duration": 151}, {"note": 66, "velocity": 93, "duration": 123}, {"note": 69, "velocity": 97, "duration": 347}, {"note": 0, "velocity": 0, "duration": 373}, {"note": 71, "velocity": 102, "duration": 123}, {"note": 0, "velocity": 0, "duration": 117}, {"note": 71, "velocity": 112, "duration": 274}, {"note": 0, "velocity": 0, "duration": 206}, {"note": 69, "velocity": 99, "duration": 225}, {"note": 66, "velocity": 93, "duration": 126}, {"note": 69, "velocity": 85, "duration": 126}, {"note": 66, "velocity": 112, "duration": 500}, {"note": 0, "velocity": 0, "duration": 940}, {"note": 64, "velocity": 100, "duration": 174}, {"note": 0, "velocity": 0, "duration": 66}, {"note": 64, "velocity": 95, "duration": 128}, {"note": 69, "velocity": 92, "duration": 143}, {"note": 66, "velocity": 117, "duration": 302}, {"note": 0, "velocity": 0, "duration": 418}, {"note": 64, "velocity": 100, "duration": 107}, {"note": 66, "velocity": 69, "duration": 110}, {"note": 61, "velocity": 100, "duration": 135}, {"note": 0, "velocity": 0, "duration": 225}, {"note": 61, "velocity": 97, "duration": 129}, {"note": 57, "velocity": 93, "duration": 207}, {"note": 54, "velocity": 77, "duration": 253}, {"note": 52, "velocity": 76, "duration": 465}, {"note": 0, "velocity": 0, "duration": 255}, {"note": 64, "velocity": 90, "duration": 146}, {"note": 0, "velocity": 0, "duration": 94}, {"note": 61, "velocity": 92, "duration": 321}, {"note": 0, "velocity": 0, "duration": 647}, {"note": 64, "velocity": 107, "duration": 526}, {"note": 66, "velocity": 95, "duration": 222}, {"note": 69, "velocity": 97, "duration": 174}, {"note": 0, "velocity": 0, "duration": 86}, {"note": 69, "velocity": 127, "duration": 2131}]]