[[{"note": 57, "velocity": 112, "duration": 189}, {"note": 69, "velocity": 107, "duration": 205}, {"note": 66, "velocity": 117, "duration": 201}, {"note": 66, "velocity": 96, "duration": 237}, {"note": 64, "velocity": 96, "duration": 112}, {"note": 0, "velocity": 0, "duration": 128}, {"note": 64, "velocity": 93, "duration": 178}, {"note": 0, "velocity": 0, "duration": 62}, {"note": 62, "velocity": 95, "duration": 299}, {"note": 0, "velocity": 0, "duration": 181}, {"note": 64, "velocity": 93, "duration": 427}, {"note": 0, "velocity": 0, "duration": 1493}, {"note": 64, "velocity": 83, "duration": 433}, {"note": 66, "velocity": 92, "duration": 227}, {"note": 64, "velocity": 78, "duration": 300}, {"note": 62, "velocity": 95, "duration": 177}, {"note": 0, "velocity": 0, "duration": 63}, {"note": 62, "velocity": 86, "duration": 221}, {"note": 59, "velocity": 90, "duration": 240}, {"note": 59, "velocity": 95, "duration": 267}, {"note": 66, "velocity": 96, "duration": 1305}, {"note": 0, "velocity": 0, "duration": 615}, {"note": 57, "velocity": 96, "duration": 185}, {"note": 71, "velocity": 102, "duration": 213}, {"note": 66, "velocity": 89, "duration": 226}, {"note": 66, "velocity": 93, "duration": 179}, {"note": 0, "velocity": 0, "duration": 61}, {"note": 64, "velocity": 99, "duration": 130}, {"note": 0, "velocity": 0, "duration": 110}, {"note": 64, "velocity": 99, "duration": 188}, {"note": 62, "velocity": 102, "duration": 259}, {"note": 0, "velocity": 0, "duration": 221}, {"note": 64, "velocity": 92, "duration": 1144}, {"note": 0, "velocity": 0, "duration": 776}, {"note": 62, "velocity": 85, "duration": 231}, {"note": 64, "velocity": 81, "duration": 261}, {"note": 66, "velocity": 93, "duration": 245}, {"note": 64, "velocity": 82, "duration": 287}, {"note": 62, "velocity": 100, "duration": 179}, {"note": 0, "velocity": 0, "duration": 61}, {"note": 62, "velocity": 102, "duration": 193}, {"note": 59, "velocity": 85, "duration": 240}, {"note": 62, "velocity": 93, "duration": 85}, {"note": 59, "velocity": 82, "duration": 118}, {"note": 62, "velocity": 93, "duration": 1448}, {"note": 0, "velocity": 0, "duration": 472}, {"note": 57, "velocity": 112, "duration": 189}, {"note": 69, "velocity": 107, "duration": 205}, {"note": 66, "velocity": 117, "duration": 201}, {"note": 66, "velocity": 96, "duration": 237}, {"note": 64, "velocity": 96, "duration": 112}, {"note": 0, "velocity": 0, "duration": 128}, {"note": 64, "velocity": 93, "duration": 178}, {"note": 0, "velocity": 0, "duration": 62}, {"note": 62, "velocity": 95, "duration": 299}, {"note": 0, "velocity": 0, "duration": 181}, {"note": 64, "velocity": 93, "duration": 427}, {"note": 0, "velocity": 0, "duration": 1493}, {"note": 64, "velocity": 83, "duration": 433}, {"note": 66, "velocity": 92, "duration": 227}, {"note": 64, "velocity": 78, "duration": 300}, {"note": 62, "velocity": 95, "duration": 177}, {"note": 0, "velocity": 0, "duration": 63}, {"note": 62, "velocity": 86, "duration": 221}, {"note": 59, "velocity": 90, "duration": 240}, {"note": 59, "velocity": 95, "duration": 267}, {"note": 66, "velocity": 96, "duration": 1305}, {"note": 0, "velocity": 0, "duration": 615}, {"note": 57, "velocity": 96, "duration": 185}, {"note": 71, "velocity": 102, "duration": 213}, {"note": 66, "velocity": 89, "duration": 226}, {"note": 66, "velocity": 93, "duration": 179}, {"note": 0, "velocity": 0, "duration": 61}, {"note": 64, "velocity": 99, "duration": 130}, {"note": 0, "velocity": 0, "duration": 110}, {"note": 64, "velocity": 99, "duration": 188}, {"note": 62, "velocity": 102, "duration": 259}, {"note": 0, "velocity": 0, "duration": 221}, {"note": 64, "velocity": 92, "duration": 1144}, {"note": 0, "velocity": 0, "duration": 776}, {"note": 62, "velocity": 85, "duration": 231}, {"note": 64, "velocity": 81, "duration": 261}, {"note": 66, "velocity": 93, "duration": 245}, {"note": 64, "velocity": 82, "duration": 287}, {"note": 62, "velocity": 100, "duration": 179}, {"note": 0, "velocity": 0, "duration": 61}, {"note": 62, "velocity": 102, "duration": 193}, {"note": 59, "velocity": 85, "duration": 240}, {"note": 62, "velocity": 93, "duration": 85}, {"note": 59, "velocity": 82, "duration": 118}, {"note": 62, "velocity": 93, "duration": 720}, {"note": 0, "velocity": 0, "duration": 480}, {"note": 66, "velocity": 127, "duration": 188}, {"note": 69, "velocity": 112, "duration": 165}, {"note": 0, "velocity": 0, "duration": 75}, {"note": 71, "velocity": 117, "duration": 1149}, {"note": 0, "velocity": 0, "duration": 291}, {"note": 66, "velocity": 127, "duration": 192}, {"note": 71, "velocity": 122, "duration": 311}, {"note": 69, "velocity": 127, "duration": 1203}, {"note": 0, "velocity": 0, "duration": 237}, {"note": 66, "velocity": 117, "duration": 190}, {"note": 69, "velocity": 112, "duration": 167}, {"note": 0, "velocity": 0, "duration": 73}, {"note": 71, "velocity": 127, "duration": 448}, {"note": 0, "velocity": 0, "duration": 272}, {"note": 69, "velocity": 95, "duration": 180}, {"note": 62, "velocity": 102, "duration": 385}, {"note": 0, "velocity": 0, "duration": 95}, {"note": 64, "velocity": 96, "duration": 144}, {"note": 66, "velocity": 73, "duration": 133}, {"note": 69, "velocity": 95, "duration": 213}, {"note": 0, "velocity": 0, "duration": 267}, {"note": 66, "velocity": 102, "duration": 531}, {"note": 0, "velocity": 0, "duration": 669}, {"note": 66, "velocity": 112, "duration": 185}, {"note": 69, "velocity": 102, "duration": 165}, {"note": 0, "velocity": 0, "duration": 75}, {"note": 71, "velocity": 117, "duration": 388}, {"note": 0, "velocity": 0, "duration": 332}, {"note": 73, "velocity": 117, "duration": 220}, {"note": 71, "velocity": 99, "duration": 332}, {"note": 0, "velocity": 0, "duration": 148}, {"note": 69, "velocity": 107, "duration": 204}, {"note": 66, "velocity": 96, "duration": 231}, {"note": 64, "velocity": 107, "duration": 589}, {"note": 0, "velocity": 0, "duration": 131}, {"note": 62, "velocity": 92, "duration": 191}, {"note": 59, "velocity": 99, "duration": 488}, {"note": 0, "velocity": 0, "duration": 712}, {"note": 57, "velocity": 102, "duration": 152}, {"note": 0, "velocity": 0, "duration": 88}, {"note": 71, "velocity": 102, "duration": 226}, {"note": 66, "velocity": 117, "duration": 195}, {"note": 69, "velocity": 107, "duration": 209}, {"note": 64, "velocity": 97, "duration": 164}, {"note": 0, "velocity": 0, "duration": 76}, {"note": 59, "velocity": 96, "duration": 163}, {"note": 0, "velocity": 0, "duration": 77}, {"note": 66, "velocity": 117, "duration": 422}, {"note": 62, "velocity": 95, "duration": 1033}, {"note": 0, "velocity": 0, "duration": 167}, {"note": 66, "velocity": 127, "duration": 188}, {"note": 69, "velocity": 112, "duration": 165}, {"note": 0, "velocity": 0, "duration": 75}, {"note": 71, "velocity": 117, "duration": 1149}, {"note": 0, "velocity": 0, "duration": 291}, {"note": 66, "velocity": 127, "duration": 192}, {"note": 71, "velocity": 122, "duration": 311}, {"note": 69, "velocity": 127, "duration": 1203}, {"note": 0, "velocity": 0, "duration": 237}, {"note": 66, "velocity": 117, "duration": 190}, {"note": 69, "velocity": 112, "duration": 167}, {"note": 0, "velocity": 0, "duration": 73}, {"note": 71, "velocity": 127, "duration": 448}, {"note": 0, "velocity": 0, "duration": 272}, {"note": 69, "velocity": 107, "duration": 180}, {"note": 62, "velocity": 102, "duration": 385}, {"note": 0, "velocity": 0, "duration": 95}, {"note": 64, "velocity": 96, "duration": 144}, {"note": 66, "velocity": 73, "duration": 133}, {"note": 69, "velocity": 95, "duration": 213}, {"note": 0, "velocity": 0, "duration": 267}, {"note": 66, "velocity": 102, "duration": 531}, {"note": 0, "velocity": 0, "duration": 669}, {"note": 66, "velocity": 112, "duration": 185}, {"note": 69, "velocity": 102, "duration": 165}, {"note": 0, "velocity": 0, "duration": 75}, {"note": 71, "velocity": 117, "duration": 388}, {"note": 0, "velocity": 0, "duration": 332}, {"note": 73, "velocity": 117, "duration": 220}, {"note": 71, "velocity": 99, "duration": 332}, {"note": 0, "velocity": 0, "duration": 148}, {"note": 69, "velocity": 107, "duration": 204}, {"note": 66, "velocity": 96, "duration": 231}, {"note": 64, "velocity": 107, "duration": 589}, {"note": 0, "velocity": 0, "duration": 131}, {"note": 62, "velocity": 92, "duration": 191}, {"note": 59, "velocity": 99, "duration": 488}, {"note": 0, "velocity": 0, "duration": 712}, {"note": 57, "velocity": 102, "duration": 152}, {"note": 0, "velocity": 0, "duration": 88}, {"note": 71, "velocity": 102, "duration": 226}, {"note": 66, "velocity": 117, "duration": 195}, {"note": 69, "velocity": 107, "duration": 209}, {"note": 64, "velocity": 97, "duration": 164}, {"note": 0, "velocity": 0, "duration": 76}, {"note": 59, "velocity": 96, "duration": 163}, {"note": 0, "velocity": 0, "duration": 77}, {"note": 66, "velocity": 117, "duration": 422}, {"note": 62, "velocity": 95, "duration": 1033}, {"note": 0, "velocity": 0, "duration": 8567}, {"note": 57, "velocity": 112, "duration": 189}, {"note": 69, "velocity": 107, "duration": 205}, {"note": 66, "velocity": 117, "duration": 201}, {"note": 66, "velocity": 96, "duration": 237}, {"note": 64, "velocity": 96, "duration": 112}, {"note": 0, "velocity": 0, "duration": 128}, {"note": 64, "velocity": 93, "duration": 178}, {"note": 0, "velocity": 0, "duration": 62}, {"note": 62, "velocity": 95, "duration": 299}, {"note": 0, "velocity": 0, "duration": 181}, {"note": 64, "velocity": 93, "duration": 427}, {"note": 0, "velocity": 0, "duration": 1493}, {"note": 64, "velocity": 83, "duration": 433}, {"note": 66, "velocity": 92, "duration": 227}, {"note": 64, "velocity": 78, "duration": 300}, {"note": 62, "velocity": 95, "duration": 177}, {"note": 0, "velocity": 0, "duration": 63}, {"note": 62, "velocity": 86, "duration": 221}, {"note": 59, "velocity": 90, "duration": 240}, {"note": 59, "velocity": 95, "duration": 267}, {"note": 66, "velocity": 96, "duration": 1305}, {"note": 0, "velocity": 0, "duration": 615}, {"note": 57, "velocity": 96, "duration": 185}, {"note": 71, "velocity": 102, "duration": 213}, {"note": 66, "velocity": 89, "duration": 226}, {"note": 66, "velocity": 93, "duration": 179}, {"note": 0, "velocity": 0, "duration": 61}, {"note": 64, "velocity": 99, "duration": 130}, {"note": 0, "velocity": 0, "duration": 110}, {"note": 64, "velocity": 99, "duration": 188}, {"note": 62, "velocity": 102, "duration": 259}, {"note": 0, "velocity": 0, "duration": 221}, {"note": 64, "velocity": 92, "duration": 1144}, {"note": 0, "velocity": 0, "duration": 776}, {"note": 62, "velocity": 85, "duration": 231}, {"note": 64, "velocity": 81, "duration": 261}, {"note": 66, "velocity": 93, "duration": 245}, {"note": 64, "velocity": 82, "duration": 287}, {"note": 62, "velocity": 100, "duration": 179}, {"note": 0, "velocity": 0, "duration": 61}, {"note": 62, "velocity": 102, "duration": 193}, {"note": 59, "velocity": 85, "duration": 240}, {"note": 62, "velocity": 93, "duration": 85}, {"note": 59, "velocity": 82, "duration": 118}, {"note": 62, "velocity": 93, "duration": 1448}, {"note": 0, "velocity": 0, "duration": 472}, {"note": 57, "velocity": 112, "duration": 189}, {"note": 69, "velocity": 107, "duration": 205}, {"note": 66, "velocity": 117, "duration": 201}, {"note": 66, "velocity": 96, "duration": 237}, {"note": 64, "velocity": 96, "duration": 112}, {"note": 0, "velocity": 0, "duration": 128}, {"note": 64, "velocity": 93, "duration": 178}, {"note": 0, "velocity": 0, "duration": 62}, {"note": 62, "velocity": 95, "duration": 299}, {"note": 0, "velocity": 0, "duration": 181}, {"note": 64, "velocity": 93, "duration": 427}, {"note": 0, "velocity": 0, "duration": 1493}, {"note": 64, "velocity": 83, "duration": 433}, {"note": 66, "velocity": 92, "duration": 227}, {"note": 64, "velocity": 78, "duration": 300}, {"note": 62, "velocity": 95, "duration": 177}, {"note": 0, "velocity": 0, "duration": 63}, {"note": 62, "velocity": 86, "duration": 221}, {"note": 59, "velocity": 90, "duration": 240}, {"note": 59, "velocity": 95, "duration": 267}, {"note": 66, "velocity": 96, "duration": 1305}, {"note": 0, "velocity": 0, "duration": 615}, {"note": 57, "velocity": 96, "duration": 185}, {"note": 71, "velocity": 102, "duration": 213}, {"note": 66, "velocity": 89, "duration": 226}, {"note": 66, "velocity": 93, "duration": 179}, {"note": 0, "velocity": 0, "duration": 61}, {"note": 64, "velocity": 99, "duration": 130}, {"note": 0, "velocity": 0, "duration": 110}, {"note": 64, "velocity": 99, "duration": 188}, {"note": 62, "velocity": 102, "duration": 259}, {"note": 0, "velocity": 0, "duration": 221}, {"note": 64, "velocity": 92, "duration": 1144}, {"note": 0, "velocity": 0, "duration": 776}, {"note": 62, "velocity": 85, "duration": 231}, {"note": 64, "velocity": 81, "duration": 261}, {"note": 66, "velocity": 93, "duration": 245}, {"note": 64, "velocity": 82, "duration": 287}, {"note": 62, "velocity": 100, "duration": 179}, {"note": 0, "velocity": 0, "duration": 61}, {"note": 62, "velocity": 102, "duration": 193}, {"note": 59, "velocity": 85, "duration": 240}, {"note": 62, "velocity": 93, "duration": 85}, {"note": 59, "velocity": 82, "duration": 118}, {"note": 62, "velocity": 93, "duration": 720}, {"note": 0, "velocity": 0, "duration": 480}, {"note": 66, "velocity": 127, "duration": 188}, {"note": 69, "velocity": 112, "duration": 165}, {"note": 0, "velocity": 0, "duration": 75}, {"note": 71, "velocity": 117, "duration": 1149}, {"note": 0, "velocity": 0, "duration": 291}, {"note": 66, "velocity": 127, "duration": 192}, {"note": 71, "velocity": 122, "duration": 311}, {"note": 69, "velocity": 127, "duration": 1203}, {"note": 0, "velocity": 0, "duration": 237}, {"note": 66, "velocity": 117, "duration": 190}, {"note": 69, "velocity": 112, "duration": 167}, {"note": 0, "velocity": 0, "duration": 73}, {"note": 71, "velocity": 127, "duration": 448}, {"note": 0, "velocity": 0, "duration": 272}, {"note": 69, "velocity": 95, "duration": 180}, {"note": 62, "velocity": 102, "duration": 385}, {"note": 0, "velocity": 0, "duration": 95}, {"note": 64, "velocity": 96, "duration": 144}, {"note": 66, "velocity": 73, "duration": 133}, {"note": 69, "velocity": 95, "duration": 213}, {"note": 0, "velocity": 0, "duration": 267}, {"note": 66, "velocity": 102, "duration": 531}, {"note": 0, "velocity": 0, "duration": 669}, {"note": 66, "velocity": 112, "duration": 185}, {"note": 69, "velocity": 102, "duration": 165}, {"note": 0, "velocity": 0, "duration": 75}, {"note": 71, "velocity": 117, "duration": 388}, {"note": 0, "velocity": 0, "duration": 332}, {"note": 73, "velocity": 117, "duration": 220}, {"note": 71, "velocity": 99, "duration": 332}, {"note": 0, "velocity": 0, "duration": 148}, {"note": 69, "velocity": 107, "duration": 204}, {"note": 66, "velocity": 96, "duration": 231}, {"note": 64, "velocity": 107, "duration": 589}, {"note": 0, "velocity": 0, "duration": 131}, {"note": 62, "velocity": 92, "duration": 191}, {"note": 59, "velocity": 99, "duration": 488}, {"note": 0, "velocity": 0, "duration": 712}, {"note": 57, "velocity": 102, "duration": 152}, {"note": 0, "velocity": 0, "duration": 88}, {"note": 71, "velocity": 102, "duration": 226}, {"note": 66, "velocity": 117, "duration": 195}, {"note": 69, "velocity": 107, "duration": 209}, {"note": 64, "velocity": 97, "duration": 164}, {"note": 0, "velocity": 0, "duration": 76}, {"note": 59, "velocity": 96, "duration": 163}, {"note": 0, "velocity": 0, "duration": 77}, {"note": 66, "velocity": 117, "duration": 422}, {"note": 62, "velocity": 95, "duration": 1033}, {"note": 0, "velocity": 0, "duration": 167}, {"note": 66, "velocity": 127, "duration": 188}, {"note": 69, "velocity": 112, "duration": 165}, {"note": 0, "velocity": 0, "duration": 75}, {"note": 71, "velocity": 117, "duration": 1149}, {"note": 0, "velocity": 0, "duration": 291}, {"note": 66, "velocity": 127, "duration": 192}, {"note": 71, "velocity": 122, "duration": 311}, {"note": 69, "velocity": 127, "duration": 1203}, {"note": 0, "velocity": 0, "duration": 237}, {"note": 66, "velocity": 117, "duration": 190}, {"note": 69, "velocity": 112, "duration": 167}, {"note": 0, "velocity": 0, "duration": 73}, {"note": 71, "velocity": 127, "duration": 448}, {"note": 0, "velocity": 0, "duration": 272}, {"note": 69, "velocity": 107, "duration": 180}, {"note": 62, "velocity": 102, "duration": 385}, {"note": 0, "velocity": 0, "duration": 95}, {"note": 64, "velocity": 96, "duration": 144}, {"note": 66, "velocity": 73, "duration": 133}, {"note": 69, "velocity": 95, "duration": 213}, {"note": 0, "velocity": 0, "duration": 267}, {"note": 66, "velocity": 102, "duration": 531}, {"note": 0, "velocity": 0, "duration": 669}, {"note": 66, "velocity": 112, "duration": 185}, {"note": 69, "velocity": 102, "duration": 165}, {"note": 0, "velocity": 0, "duration": 75}, {"note": 71, "velocity": 117, "duration": 388}, {"note": 0, "velocity": 0, "duration": 332}, {"note": 73, "velocity": 117, "duration": 220}, {"note": 71, "velocity": 99, "duration": 332}, {"note": 0, "velocity": 0, "duration": 148}, {"note": 69, "velocity": 107, "duration": 204}, {"note": 66, "velocity": 96, "duration": 231}, {"note": 64, "velocity": 107, "duration": 589}, {"note": 0, "velocity": 0, "duration": 131}, {"note": 62, "velocity": 92, "duration": 191}, {"note": 59, "velocity": 99, "duration": 488}, {"note": 0, "velocity": 0, "duration": 712}, {"note": 57, "velocity": 102, "duration": 152}, {"note": 0, "velocity": 0, "duration": 88}, {"note": 71, "velocity": 102, "duration": 226}, {"note": 66, "velocity": 117, "duration": 195}, {"note": 69, "velocity": 107, "duration": 209}, {"note": 64, "velocity": 97, "duration": 164}, {"note": 0, "velocity": 0, "duration": 76}, {"note": 59, "velocity": 96, "duration": 163}, {"note": 0, "velocity": 0, "duration": 77}, {"note": 66, "velocity": 117, "duration": 422}, {"note": 62, "velocity": 95, "duration": 1033}, {"note": 0, "velocity": 0, "duration": 167}, {"note": 66, "velocity": 112, "duration": 185}, {"note": 69, "velocity": 102, "duration": 165}, {"note": 0, "velocity": 0, "duration": 75}, {"note": 71, "velocity": 117, "duration": 388}, {"note": 0, "velocity": 0, "duration": 332}, {"note": 73, "velocity": 117, "duration": 220}, {"note": 71, "velocity": 99, "duration": 332}, {"note": 0, "velocity": 0, "duration": 148}, {"note": 69, "velocity": 107, "duration": 204}, {"note": 66, "velocity": 96, "duration": 231}, {"note": 64, "velocity": 107, "duration": 589}, {"note": 0, "velocity": 0, "duration": 131}, {"note": 62, "velocity": 92, "duration": 191}, {"note": 59, "velocity": 99, "duration": 488}, {"note": 0, "velocity": 0, "duration": 712}, {"note": 57, "velocity": 102, "duration": 152}, {"note": 0, "velocity": 0, "duration": 88}, {"note": 71, "velocity": 102, "duration": 226}, {"note": 66, "velocity": 117, "duration": 195}, {"note": 69, "velocity": 107, "duration": 209}, {"note": 0, "velocity": 0, "duration": 158}, {"note": 64, "velocity": 92, "duration": 274}, {"note": 0, "velocity": 0, "duration": 72}, {"note": 59, "velocity": 89, "duration": 315}, {"note": 66, "velocity": 97, "duration": 1730}, {"note": 0, "velocity": 0, "duration": 125}, {"note": 66, "velocity": 117, "duration": 430}, {"note": 64, "velocity": 96, "duration": 213}, {"note": 66, "velocity": 99, "duration": 192}, {"note": 64, "velocity": 90, "duration": 213}, {"note": 66, "velocity": 102, "duration": 318}, {"note": 62, "velocity": 96, "duration": 1897}]]