[[{"note": 60, "velocity": 97, "duration": 588}, {"note": 0, "velocity": 0, "duration": 132}, {"note": 57, "velocity": 100, "duration": 219}, {"note": 60, "velocity": 112, "duration": 299}, {"note": 62, "velocity": 95, "duration": 202}, {"note": 65, "velocity": 99, "duration": 206}, {"note": 67, "velocity": 93, "duration": 178}, {"note": 0, "velocity": 0, "duration": 62}, {"note": 69, "velocity": 102, "duration": 493}, {"note": 0, "velocity": 0, "duration": 1427}, {"note": 72, "velocity": 117, "duration": 296}, {"note": 0, "velocity": 0, "duration": 184}, {"note": 72, "velocity": 112, "duration": 211}, {"note": 74, "velocity": 89, "duration": 180}, {"note": 69, "velocity": 95, "duration": 250}, {"note": 67, "velocity": 89, "duration": 189}, {"note": 65, "velocity": 89, "duration": 151}, {"note": 0, "velocity": 0, "duration": 89}, {"note": 65, "velocity": 89, "duration": 103}, {"note": 69, "velocity": 83, "duration": 148}, {"note": 67, "velocity": 92, "duration": 793}, {"note": 0, "velocity": 0, "duration": 1127}, {"note": 67, "velocity": 99, "duration": 709}, {"note": 69, "velocity": 95, "duration": 219}, {"note": 72, "velocity": 102, "duration": 389}, {"note": 0, "velocity": 0, "duration": 91}, {"note": 69, "velocity": 122, "duration": 462}, {"note": 67, "velocity": 117, "duration": 236}, {"note": 65, "velocity": 102, "duration": 229}, {"note": 62, "velocity": 93, "duration": 227}, {"note": 60, "velocity": 93, "duration": 268}, {"note": 62, "velocity": 99, "duration": 712}, {"note": 0, "velocity": 0, "duration": 248}, {"note": 65, "velocity": 97, "duration": 303}, {"note": 0, "velocity": 0, "duration": 177}, {"note": 62, "velocity": 95, "duration": 239}, {"note": 60, "velocity": 89, "duration": 164}, {"note": 0, "velocity": 0, "duration": 76}, {"note": 57, "velocity": 95, "duration": 233}, {"note": 60, "velocity": 89, "duration": 237}, {"note": 62, "velocity": 96, "duration": 205}, {"note": 65, "velocity": 88, "duration": 215}, {"note": 60, "velocity": 90, "duration": 910}, {"note": 0, "velocity": 0, "duration": 1010}, {"note": 60, "velocity": 100, "duration": 367}, {"note": 0, "velocity": 0, "duration": 113}, {"note": 57, "velocity": 89, "duration": 201}, {"note": 60, "velocity": 89, "duration": 212}, {"note": 62, "velocity": 93, "duration": 429}, {"note": 65, "velocity": 107, "duration": 139}, {"note": 0, "velocity": 0, "duration": 341}, {"note": 67, "velocity": 107, "duration": 244}, {"note": 69, "velocity": 85, "duration": 214}, {"note": 65, "velocity": 89, "duration": 222}, {"note": 67, "velocity": 95, "duration": 195}, {"note": 69, "velocity": 122, "duration": 551}, {"note": 0, "velocity": 0, "duration": 409}, {"note": 67, "velocity": 97, "duration": 244}, {"note": 69, "velocity": 97, "duration": 243}, {"note": 74, "velocity": 90, "duration": 324}, {"note": 0, "velocity": 0, "duration": 156}, {"note": 72, "velocity": 117, "duration": 260}, {"note": 69, "velocity": 107, "duration": 172}, {"note": 0, "velocity": 0, "duration": 68}, {"note": 67, "velocity": 95, "duration": 192}, {"note": 65, "velocity": 96, "duration": 218}, {"note": 67, "velocity": 107, "duration": 295}, {"note": 0, "velocity": 0, "duration": 1625}, {"note": 65, "velocity": 97, "duration": 261}, {"note": 67, "velocity": 99, "duration": 376}, {"note": 0, "velocity": 0, "duration": 104}, {"note": 69, "velocity": 107, "duration": 207}, {"note": 72, "velocity": 122, "duration": 286}, {"note": 0, "velocity": 0, "duration": 194}, {"note": 72, "velocity": 112, "duration": 216}, {"note": 69, "velocity": 97, "duration": 224}, {"note": 67, "velocity": 97, "duration": 233}, {"note": 65, "velocity": 102, "duration": 215}, {"note": 62, "velocity": 99, "duration": 216}, {"note": 60, "velocity": 100, "duration": 256}, {"note": 62, "velocity": 97, "duration": 470}, {"note": 0, "velocity": 0, "duration": 490}, {"note": 65, "velocity": 99, "duration": 250}, {"note": 67, "velocity": 96, "duration": 194}, {"note": 69, "velocity": 102, "duration": 193}, {"note": 72, "velocity": 97, "duration": 237}, {"note": 67, "velocity": 102, "duration": 244}, {"note": 60, "velocity": 99, "duration": 180}, {"note": 72, "velocity": 117, "duration": 240}, {"note": 67, "velocity": 96, "duration": 204}, {"note": 65, "velocity": 93, "duration": 1055}, {"note": 0, "velocity": 0, "duration": 4705}, {"note": 60, "velocity": 97, "duration": 588}, {"note": 0, "velocity": 0, "duration": 132}, {"note": 57, "velocity": 100, "duration": 219}, {"note": 60, "velocity": 112, "duration": 299}, {"note": 62, "velocity": 95, "duration": 202}, {"note": 65, "velocity": 99, "duration": 206}, {"note": 67, "velocity": 93, "duration": 178}, {"note": 0, "velocity": 0, "duration": 62}, {"note": 69, "velocity": 102, "duration": 493}, {"note": 0, "velocity": 0, "duration": 1427}, {"note": 72, "velocity": 117, "duration": 296}, {"note": 0, "velocity": 0, "duration": 184}, {"note": 72, "velocity": 112, "duration": 211}, {"note": 74, "velocity": 89, "duration": 180}, {"note": 69, "velocity": 95, "duration": 250}, {"note": 67, "velocity": 89, "duration": 189}, {"note": 65, "velocity": 89, "duration": 151}, {"note": 0, "velocity": 0, "duration": 89}, {"note": 65, "velocity": 89, "duration": 103}, {"note": 69, "velocity": 83, "duration": 148}, {"note": 67, "velocity": 92, "duration": 793}, {"note": 0, "velocity": 0, "duration": 1127}, {"note": 67, "velocity": 99, "duration": 709}, {"note": 69, "velocity": 95, "duration": 219}, {"note": 72, "velocity": 102, "duration": 389}, {"note": 0, "velocity": 0, "duration": 91}, {"note": 69, "velocity": 122, "duration": 462}, {"note": 67, "velocity": 117, "duration": 236}, {"note": 65, "velocity": 102, "duration": 229}, {"note": 62, "velocity": 93, "duration": 227}, {"note": 60, "velocity": 93, "duration": 268}, {"note": 62, "velocity": 99, "duration": 712}, {"note": 0, "velocity": 0, "duration": 248}, {"note": 65, "velocity": 97, "duration": 303}, {"note": 0, "velocity": 0, "duration": 177}, {"note": 62, "velocity": 95, "duration": 239}, {"note": 60, "velocity": 89, "duration": 164}, {"note": 0, "velocity": 0, "duration": 76}, {"note": 57, "velocity": 95, "duration": 233}, {"note": 60, "velocity": 89, "duration": 237}, {"note": 62, "velocity": 96, "duration": 205}, {"note": 65, "velocity": 88, "duration": 215}, {"note": 60, "velocity": 90, "duration": 910}, {"note": 0, "velocity": 0, "duration": 1010}, {"note": 60, "velocity": 100, "duration": 367}, {"note": 0, "velocity": 0, "duration": 113}, {"note": 57, "velocity": 89, "duration": 201}, {"note": 60, "velocity": 89, "duration": 212}, {"note": 62, "velocity": 93, "duration": 429}, {"note": 65, "velocity": 107, "duration": 139}, {"note": 0, "velocity": 0, "duration": 341}, {"note": 67, "velocity": 107, "duration": 244}, {"note": 69, "velocity": 85, "duration": 214}, {"note": 65, "velocity": 89, "duration": 222}, {"note": 67, "velocity": 95, "duration": 195}, {"note": 69, "velocity": 122, "duration": 551}, {"note": 0, "velocity": 0, "duration": 409}, {"note": 67, "velocity": 97, "duration": 244}, {"note": 69, "velocity": 97, "duration": 243}, {"note": 74, "velocity": 90, "duration": 324}, {"note": 0, "velocity": 0, "duration": 156}, {"note": 72, "velocity": 117, "duration": 260}, {"note": 69, "velocity": 107, "duration": 172}, {"note": 0, "velocity": 0, "duration": 68}, {"note": 67, "velocity": 95, "duration": 192}, {"note": 65, "velocity": 96, "duration": 218}, {"note": 67, "velocity": 107, "duration": 295}, {"note": 0, "velocity": 0, "duration": 1625}, {"note": 65, "velocity": 97, "duration": 261}, {"note": 67, "velocity": 99, "duration": 376}, {"note": 0, "velocity": 0, "duration": 104}, {"note": 69, "velocity": 107, "duration": 207}, {"note": 72, "velocity": 122, "duration": 286}, {"note": 0, "velocity": 0, "duration": 194}, {"note": 72, "velocity": 112, "duration": 216}, {"note": 69, "velocity": 97, "duration": 224}, {"note": 67, "velocity": 97, "duration": 233}, {"note": 65, "velocity": 102, "duration": 215}, {"note": 62, "velocity": 99, "duration": 216}, {"note": 60, "velocity": 100, "duration": 256}, {"note": 62, "velocity": 97, "duration": 470}, {"note": 0, "velocity": 0, "duration": 490}, {"note": 65, "velocity": 99, "duration": 250}, {"note": 67, "velocity": 96, "duration": 194}, {"note": 69, "velocity": 102, "duration": 193}, {"note": 72, "velocity": 97, "duration": 237}, {"note": 67, "velocity": 102, "duration": 244}, {"note": 60, "velocity": 99, "duration": 180}, {"note": 72, "velocity": 117, "duration": 240}, {"note": 67, "velocity": 96, "duration": 204}, {"note": 65, "velocity": 93, "duration": 1055}, {"note": 0, "velocity": 0, "duration": 8545}, {"note": 60, "velocity": 97, "duration": 588}, {"note": 0, "velocity": 0, "duration": 132}, {"note": 57, "velocity": 100, "duration": 219}, {"note": 60, "velocity": 112, "duration": 299}, {"note": 62, "velocity": 95, "duration": 202}, {"note": 65, "velocity": 99, "duration": 206}, {"note": 67, "velocity": 93, "duration": 178}, {"note": 0, "velocity": 0, "duration": 62}, {"note": 69, "velocity": 102, "duration": 493}, {"note": 0, "velocity": 0, "duration": 1427}, {"note": 72, "velocity": 117, "duration": 296}, {"note": 0, "velocity": 0, "duration": 184}, {"note": 72, "velocity": 112, "duration": 211}, {"note": 74, "velocity": 89, "duration": 180}, {"note": 69, "velocity": 95, "duration": 250}, {"note": 67, "velocity": 89, "duration": 189}, {"note": 65, "velocity": 89, "duration": 151}, {"note": 0, "velocity": 0, "duration": 89}, {"note": 65, "velocity": 89, "duration": 103}, {"note": 69, "velocity": 83, "duration": 148}, {"note": 67, "velocity": 92, "duration": 793}, {"note": 0, "velocity": 0, "duration": 1127}, {"note": 67, "velocity": 99, "duration": 709}, {"note": 69, "velocity": 95, "duration": 219}, {"note": 72, "velocity": 102, "duration": 389}, {"note": 0, "velocity": 0, "duration": 91}, {"note": 69, "velocity": 122, "duration": 462}, {"note": 67, "velocity": 117, "duration": 236}, {"note": 65, "velocity": 102, "duration": 229}, {"note": 62, "velocity": 93, "duration": 227}, {"note": 60, "velocity": 93, "duration": 268}, {"note": 62, "velocity": 99, "duration": 712}, {"note": 0, "velocity": 0, "duration": 248}, {"note": 65, "velocity": 97, "duration": 303}, {"note": 0, "velocity": 0, "duration": 177}, {"note": 62, "velocity": 95, "duration": 239}, {"note": 60, "velocity": 89, "duration": 164}, {"note": 0, "velocity": 0, "duration": 76}, {"note": 57, "velocity": 95, "duration": 233}, {"note": 60, "velocity": 89, "duration": 237}, {"note": 62, "velocity": 96, "duration": 205}, {"note": 65, "velocity": 88, "duration": 215}, {"note": 60, "velocity": 90, "duration": 910}, {"note": 0, "velocity": 0, "duration": 1010}, {"note": 60, "velocity": 100, "duration": 367}, {"note": 0, "velocity": 0, "duration": 113}, {"note": 57, "velocity": 89, "duration": 201}, {"note": 60, "velocity": 89, "duration": 212}, {"note": 62, "velocity": 93, "duration": 429}, {"note": 65, "velocity": 107, "duration": 139}, {"note": 0, "velocity": 0, "duration": 341}, {"note": 67, "velocity": 107, "duration": 244}, {"note": 69, "velocity": 85, "duration": 214}, {"note": 65, "velocity": 89, "duration": 222}, {"note": 67, "velocity": 95, "duration": 195}, {"note": 69, "velocity": 122, "duration": 551}, {"note": 0, "velocity": 0, "duration": 409}, {"note": 67, "velocity": 97, "duration": 244}, {"note": 69, "velocity": 97, "duration": 243}, {"note": 74, "velocity": 90, "duration": 324}, {"note": 0, "velocity": 0, "duration": 156}, {"note": 72, "velocity": 117, "duration": 260}, {"note": 69, "velocity": 107, "duration": 172}, {"note": 0, "velocity": 0, "duration": 68}, {"note": 67, "velocity": 95, "duration": 192}, {"note": 65, "velocity": 96, "duration": 218}, {"note": 67, "velocity": 107, "duration": 295}, {"note": 0, "velocity": 0, "duration": 1625}, {"note": 65, "velocity": 97, "duration": 261}, {"note": 67, "velocity": 99, "duration": 376}, {"note": 0, "velocity": 0, "duration": 104}, {"note": 69, "velocity": 107, "duration": 207}, {"note": 72, "velocity": 122, "duration": 286}, {"note": 0, "velocity": 0, "duration": 194}, {"note": 72, "velocity": 112, "duration": 216}, {"note": 69, "velocity": 97, "duration": 224}, {"note": 67, "velocity": 97, "duration": 233}, {"note": 65, "velocity": 102, "duration": 215}, {"note": 62, "velocity": 99, "duration": 216}, {"note": 60, "velocity": 100, "duration": 256}, {"note": 62, "velocity": 97, "duration": 470}, {"note": 0, "velocity": 0, "duration": 490}, {"note": 65, "velocity": 99, "duration": 250}, {"note": 67, "velocity": 96, "duration": 194}, {"note": 69, "velocity": 102, "duration": 193}, {"note": 72, "velocity": 97, "duration": 237}, {"note": 67, "velocity": 102, "duration": 244}, {"note": 60, "velocity": 99, "duration": 180}, {"note": 72, "velocity": 117, "duration": 240}, {"note": 67, "velocity": 96, "duration": 204}, {"note": 65, "velocity": 93, "duration": 36}]]