[[{"note": 59, "velocity": 89, "duration": 170}, {"note": 0, "velocity": 0, "duration": 70}, {"note": 59, "velocity": 100, "duration": 181}, {"note": 59, "velocity": 92, "duration": 51}, {"note": 0, "velocity": 0, "duration": 69}, {"note": 59, "velocity": 93, "duration": 63}, {"note": 0, "velocity": 0, "duration": 177}, {"note": 54, "velocity": 92, "duration": 518}, {"note": 0, "velocity": 0, "duration": 82}, {"note": 54, "velocity": 74, "duration": 67}, {"note": 61, "velocity": 79, "duration": 233}, {"note": 0, "velocity": 0, "duration": 127}, {"note": 63, "velocity": 89, "duration": 130}, {"note": 59, "velocity": 65, "duration": 677}, {"note": 0, "velocity": 0, "duration": 1123}, {"note": 59, "velocity": 95, "duration": 98}, {"note": 0, "velocity": 0, "duration": 142}, {"note": 59, "velocity": 97, "duration": 101}, {"note": 0, "velocity": 0, "duration": 139}, {"note": 59, "velocity": 95, "duration": 51}, {"note": 0, "velocity": 0, "duration": 69}, {"note": 59, "velocity": 92, "duration": 73}, {"note": 0, "velocity": 0, "duration": 167}, {"note": 59, "velocity": 100, "duration": 88}, {"note": 0, "velocity": 0, "duration": 272}, {"note": 59, "velocity": 86, "duration": 94}, {"note": 0, "velocity": 0, "duration": 146}, {"note": 51, "velocity": 76, "duration": 155}, {"note": 0, "velocity": 0, "duration": 85}, {"note": 52, "velocity": 95, "duration": 285}, {"note": 0, "velocity": 0, "duration": 75}, {"note": 59, "velocity": 86, "duration": 861}, {"note": 0, "velocity": 0, "duration": 939}, {"note": 59, "velocity": 100, "duration": 122}, {"note": 0, "velocity": 0, "duration": 118}, {"note": 59, "velocity": 93, "duration": 120}, {"note": 0, "velocity": 0, "duration": 120}, {"note": 59, "velocity": 89, "duration": 61}, {"note": 59, "velocity": 88, "duration": 245}, {"note": 0, "velocity": 0, "duration": 115}, {"note": 59, "velocity": 95, "duration": 83}, {"note": 61, "velocity": 97, "duration": 286}, {"note": 0, "velocity": 0, "duration": 74}, {"note": 63, "velocity": 102, "duration": 54}, {"note": 0, "velocity": 0, "duration": 186}, {"note": 64, "velocity": 100, "duration": 225}, {"note": 59, "velocity": 90, "duration": 74}, {"note": 61, "velocity": 95, "duration": 195}, {"note": 0, "velocity": 0, "duration": 165}, {"note": 59, "velocity": 95, "duration": 838}, {"note": 0, "velocity": 0, "duration": 602}, {"note": 63, "velocity": 93, "duration": 148}, {"note": 0, "velocity": 0, "duration": 92}, {"note": 63, "velocity": 95, "duration": 202}, {"note": 66, "velocity": 100, "duration": 172}, {"note": 0, "velocity": 0, "duration": 68}, {"note": 66, "velocity": 99, "duration": 190}, {"note": 59, "velocity": 90, "duration": 161}, {"note": 0, "velocity": 0, "duration": 79}, {"note": 59, "velocity": 97, "duration": 185}, {"note": 56, "velocity": 95, "duration": 194}, {"note": 63, "velocity": 107, "duration": 414}, {"note": 0, "velocity": 0, "duration": 306}, {"note": 64, "velocity": 93, "duration": 117}, {"note": 61, "velocity": 90, "duration": 723}, {"note": 0, "velocity": 0, "duration": 2517}, {"note": 54, "velocity": 92, "duration": 113}, {"note": 59, "velocity": 92, "duration": 334}, {"note": 61, "velocity": 99, "duration": 113}, {"note": 63, "velocity": 97, "duration": 345}, {"note": 61, "velocity": 99, "duration": 200}, {"note": 59, "velocity": 93, "duration": 235}, {"note": 58, "velocity": 88, "duration": 255}, {"note": 59, "velocity": 93, "duration": 285}, {"note": 59, "velocity": 96, "duration": 45}, {"note": 0, "velocity": 0, "duration": 75}, {"note": 59, "velocity": 82, "duration": 202}, {"note": 0, "velocity": 0, "duration": 158}, {"note": 61, "velocity": 90, "duration": 92}, {"note": 63, "velocity": 95, "duration": 321}, {"note": 61, "velocity": 96, "duration": 43}, {"note": 0, "velocity": 0, "duration": 77}, {"note": 59, "velocity": 88, "duration": 284}, {"note": 61, "velocity": 83, "duration": 343}, {"note": 0, "velocity": 0, "duration": 257}, {"note": 66, "velocity": 97, "duration": 138}, {"note": 0, "velocity": 0, "duration": 102}, {"note": 66, "velocity": 100, "duration": 147}, {"note": 0, "velocity": 0, "duration": 93}, {"note": 66, "velocity": 93, "duration": 50}, {"note": 0, "velocity": 0, "duration": 70}, {"note": 66, "velocity": 100, "duration": 115}, {"note": 0, "velocity": 0, "duration": 125}, {"note": 58, "velocity": 90, "duration": 151}, {"note": 0, "velocity": 0, "duration": 89}, {"note": 59, "velocity": 85, "duration": 252}, {"note": 0, "velocity": 0, "duration": 228}, {"note": 56, "velocity": 97, "duration": 79}, {"note": 61, "velocity": 100, "duration": 175}, {"note": 0, "velocity": 0, "duration": 65}, {"note": 63, "velocity": 93, "duration": 73}, {"note": 64, "velocity": 99, "duration": 190}, {"note": 0, "velocity": 0, "duration": 170}, {"note": 63, "velocity": 86, "duration": 78}, {"note": 61, "velocity": 88, "duration": 279}, {"note": 0, "velocity": 0, "duration": 81}, {"note": 63, "velocity": 95, "duration": 389}, {"note": 0, "velocity": 0, "duration": 571}, {"note": 54, "velocity": 96, "duration": 114}, {"note": 59, "velocity": 122, "duration": 301}, {"note": 61, "velocity": 102, "duration": 100}, {"note": 63, "velocity": 117, "duration": 254}, {"note": 0, "velocity": 0, "duration": 106}, {"note": 61, "velocity": 102, "duration": 50}, {"note": 0, "velocity": 0, "duration": 70}, {"note": 59, "velocity": 95, "duration": 282}, {"note": 0, "velocity": 0, "duration": 78}, {"note": 58, "velocity": 93, "duration": 89}, {"note": 59, "velocity": 96, "duration": 355}, {"note": 59, "velocity": 96, "duration": 28}, {"note": 0, "velocity": 0, "duration": 92}, {"note": 59, "velocity": 97, "duration": 162}, {"note": 0, "velocity": 0, "duration": 78}, {"note": 61, "velocity": 102, "duration": 132}, {"note": 0, "velocity": 0, "duration": 108}, {"note": 63, "velocity": 102, "duration": 225}, {"note": 0, "velocity": 0, "duration": 135}, {"note": 64, "velocity": 99, "duration": 61}, {"note": 63, "velocity": 89, "duration": 209}, {"note": 0, "velocity": 0, "duration": 151}, {"note": 59, "velocity": 99, "duration": 261}, {"note": 0, "velocity": 0, "duration": 219}, {"note": 66, "velocity": 117, "duration": 159}, {"note": 0, "velocity": 0, "duration": 81}, {"note": 66, "velocity": 117, "duration": 147}, {"note": 0, "velocity": 0, "duration": 93}, {"note": 68, "velocity": 112, "duration": 92}, {"note": 66, "velocity": 112, "duration": 153}, {"note": 0, "velocity": 0, "duration": 207}, {"note": 58, "velocity": 99, "duration": 81}, {"note": 59, "velocity": 107, "duration": 318}, {"note": 61, "velocity": 100, "duration": 84}, {"note": 63, "velocity": 90, "duration": 76}, {"note": 64, "velocity": 102, "duration": 512}, {"note": 0, "velocity": 0, "duration": 328}, {"note": 56, "velocity": 90, "duration": 73}, {"note": 63, "velocity": 100, "duration": 127}, {"note": 0, "velocity": 0, "duration": 113}, {"note": 61, "velocity": 99, "duration": 67}, {"note": 59, "velocity": 100, "duration": 260}, {"note": 0, "velocity": 0, "duration": 100}, {"note": 58, "velocity": 92, "duration": 189}, {"note": 59, "velocity": 100, "duration": 1033}, {"note": 0, "velocity": 0, "duration": 6887}, {"note": 59, "velocity": 100, "duration": 120}, {"note": 0, "velocity": 0, "duration": 120}, {"note": 59, "velocity": 100, "duration": 68}, {"note": 59, "velocity": 107, "duration": 100}, {"note": 0, "velocity": 0, "duration": 140}, {"note": 59, "velocity": 102, "duration": 207}, {"note": 59, "velocity": 96, "duration": 180}, {"note": 0, "velocity": 0, "duration": 180}, {"note": 61, "velocity": 100, "duration": 139}, {"note": 0, "velocity": 0, "duration": 101}, {"note": 63, "velocity": 102, "duration": 52}, {"note": 0, "velocity": 0, "duration": 68}, {"note": 61, "velocity": 100, "duration": 151}, {"note": 0, "velocity": 0, "duration": 209}, {"note": 59, "velocity": 112, "duration": 768}, {"note": 0, "velocity": 0, "duration": 1152}, {"note": 59, "velocity": 95, "duration": 98}, {"note": 0, "velocity": 0, "duration": 142}, {"note": 59, "velocity": 97, "duration": 101}, {"note": 0, "velocity": 0, "duration": 139}, {"note": 59, "velocity": 95, "duration": 51}, {"note": 0, "velocity": 0, "duration": 69}, {"note": 59, "velocity": 92, "duration": 73}, {"note": 0, "velocity": 0, "duration": 167}, {"note": 59, "velocity": 100, "duration": 88}, {"note": 0, "velocity": 0, "duration": 272}, {"note": 59, "velocity": 86, "duration": 94}, {"note": 0, "velocity": 0, "duration": 146}, {"note": 51, "velocity": 76, "duration": 155}, {"note": 0, "velocity": 0, "duration": 85}, {"note": 52, "velocity": 95, "duration": 285}, {"note": 0, "velocity": 0, "duration": 75}, {"note": 59, "velocity": 86, "duration": 861}, {"note": 0, "velocity": 0, "duration": 99}, {"note": 63, "velocity": 92, "duration": 106}, {"note": 61, "velocity": 89, "duration": 322}, {"note": 63, "velocity": 75, "duration": 83}, {"note": 59, "velocity": 93, "duration": 111}, {"note": 0, "velocity": 0, "duration": 129}, {"note": 59, "velocity": 100, "duration": 122}, {"note": 0, "velocity": 0, "duration": 118}, {"note": 59, "velocity": 93, "duration": 120}, {"note": 0, "velocity": 0, "duration": 120}, {"note": 59, "velocity": 89, "duration": 61}, {"note": 59, "velocity": 88, "duration": 245}, {"note": 0, "velocity": 0, "duration": 115}, {"note": 59, "velocity": 95, "duration": 83}, {"note": 61, "velocity": 97, "duration": 286}, {"note": 0, "velocity": 0, "duration": 74}, {"note": 63, "velocity": 102, "duration": 54}, {"note": 0, "velocity": 0, "duration": 186}, {"note": 64, "velocity": 100, "duration": 225}, {"note": 59, "velocity": 90, "duration": 74}, {"note": 61, "velocity": 95, "duration": 195}, {"note": 0, "velocity": 0, "duration": 165}, {"note": 59, "velocity": 95, "duration": 838}, {"note": 0, "velocity": 0, "duration": 602}, {"note": 63, "velocity": 93, "duration": 148}, {"note": 0, "velocity": 0, "duration": 92}, {"note": 63, "velocity": 95, "duration": 202}, {"note": 66, "velocity": 100, "duration": 172}, {"note": 0, "velocity": 0, "duration": 68}, {"note": 66, "velocity": 99, "duration": 190}, {"note": 59, "velocity": 90, "duration": 161}, {"note": 0, "velocity": 0, "duration": 79}, {"note": 59, "velocity": 97, "duration": 185}, {"note": 56, "velocity": 95, "duration": 194}, {"note": 63, "velocity": 107, "duration": 414}, {"note": 0, "velocity": 0, "duration": 306}, {"note": 64, "velocity": 93, "duration": 117}, {"note": 61, "velocity": 90, "duration": 723}, {"note": 0, "velocity": 0, "duration": 2517}, {"note": 54, "velocity": 92, "duration": 113}, {"note": 59, "velocity": 92, "duration": 334}, {"note": 61, "velocity": 99, "duration": 113}, {"note": 63, "velocity": 97, "duration": 345}, {"note": 61, "velocity": 99, "duration": 200}, {"note": 59, "velocity": 93, "duration": 235}, {"note": 58, "velocity": 88, "duration": 255}, {"note": 59, "velocity": 93, "duration": 285}, {"note": 59, "velocity": 96, "duration": 45}, {"note": 0, "velocity": 0, "duration": 75}, {"note": 59, "velocity": 82, "duration": 202}, {"note": 0, "velocity": 0, "duration": 158}, {"note": 61, "velocity": 90, "duration": 92}, {"note": 63, "velocity": 95, "duration": 321}, {"note": 61, "velocity": 96, "duration": 43}, {"note": 0, "velocity": 0, "duration": 77}, {"note": 59, "velocity": 88, "duration": 284}, {"note": 61, "velocity": 83, "duration": 343}, {"note": 0, "velocity": 0, "duration": 257}, {"note": 66, "velocity": 97, "duration": 138}, {"note": 0, "velocity": 0, "duration": 102}, {"note": 66, "velocity": 100, "duration": 147}, {"note": 0, "velocity": 0, "duration": 93}, {"note": 66, "velocity": 93, "duration": 50}, {"note": 0, "velocity": 0, "duration": 70}, {"note": 66, "velocity": 100, "duration": 115}, {"note": 0, "velocity": 0, "duration": 125}, {"note": 58, "velocity": 90, "duration": 151}, {"note": 0, "velocity": 0, "duration": 89}, {"note": 59, "velocity": 85, "duration": 252}, {"note": 0, "velocity": 0, "duration": 228}, {"note": 56, "velocity": 97, "duration": 79}, {"note": 61, "velocity": 100, "duration": 175}, {"note": 0, "velocity": 0, "duration": 65}, {"note": 63, "velocity": 93, "duration": 73}, {"note": 64, "velocity": 99, "duration": 190}, {"note": 0, "velocity": 0, "duration": 170}, {"note": 63, "velocity": 86, "duration": 78}, {"note": 61, "velocity": 88, "duration": 279}, {"note": 0, "velocity": 0, "duration": 81}, {"note": 63, "velocity": 95, "duration": 389}, {"note": 0, "velocity": 0, "duration": 571}, {"note": 54, "velocity": 96, "duration": 114}, {"note": 59, "velocity": 122, "duration": 301}, {"note": 61, "velocity": 102, "duration": 100}, {"note": 63, "velocity": 117, "duration": 254}, {"note": 0, "velocity": 0, "duration": 106}, {"note": 61, "velocity": 102, "duration": 50}, {"note": 0, "velocity": 0, "duration": 70}, {"note": 59, "velocity": 95, "duration": 282}, {"note": 0, "velocity": 0, "duration": 78}, {"note": 58, "velocity": 93, "duration": 89}, {"note": 59, "velocity": 96, "duration": 355}, {"note": 59, "velocity": 96, "duration": 28}, {"note": 0, "velocity": 0, "duration": 92}, {"note": 59, "velocity": 97, "duration": 162}, {"note": 0, "velocity": 0, "duration": 78}, {"note": 61, "velocity": 102, "duration": 132}, {"note": 0, "velocity": 0, "duration": 108}, {"note": 63, "velocity": 102, "duration": 225}, {"note": 0, "velocity": 0, "duration": 135}, {"note": 64, "velocity": 99, "duration": 61}, {"note": 63, "velocity": 89, "duration": 209}, {"note": 0, "velocity": 0, "duration": 151}, {"note": 59, "velocity": 99, "duration": 261}, {"note": 0, "velocity": 0, "duration": 219}, {"note": 66, "velocity": 117, "duration": 159}, {"note": 0, "velocity": 0, "duration": 81}, {"note": 66, "velocity": 117, "duration": 147}, {"note": 0, "velocity": 0, "duration": 93}, {"note": 68, "velocity": 112, "duration": 92}, {"note": 66, "velocity": 112, "duration": 153}, {"note": 0, "velocity": 0, "duration": 207}, {"note": 58, "velocity": 99, "duration": 81}, {"note": 59, "velocity": 107, "duration": 318}, {"note": 61, "velocity": 100, "duration": 84}, {"note": 63, "velocity": 90, "duration": 76}, {"note": 64, "velocity": 102, "duration": 512}, {"note": 0, "velocity": 0, "duration": 328}, {"note": 56, "velocity": 90, "duration": 73}, {"note": 63, "velocity": 100, "duration": 127}, {"note": 0, "velocity": 0, "duration": 113}, {"note": 61, "velocity": 99, "duration": 67}, {"note": 59, "velocity": 100, "duration": 260}, {"note": 0, "velocity": 0, "duration": 100}, {"note": 58, "velocity": 92, "duration": 189}, {"note": 59, "velocity": 100, "duration": 327}, {"note": 59, "velocity": 102, "duration": 87}, {"note": 0, "velocity": 0, "duration": 153}, {"note": 59, "velocity": 112, "duration": 131}, {"note": 0, "velocity": 0, "duration": 109}, {"note": 61, "velocity": 112, "duration": 163}, {"note": 0, "velocity": 0, "duration": 77}, {"note": 59, "velocity": 107, "duration": 184}, {"note": 54, "velocity": 93, "duration": 55}, {"note": 0, "velocity": 0, "duration": 65}, {"note": 54, "velocity": 90, "duration": 231}, {"note": 0, "velocity": 0, "duration": 249}, {"note": 54, "velocity": 93, "duration": 65}, {"note": 56, "velocity": 102, "duration": 147}, {"note": 0, "velocity": 0, "duration": 93}, {"note": 54, "velocity": 89, "duration": 67}, {"note": 56, "velocity": 112, "duration": 125}, {"note": 0, "velocity": 0, "duration": 115}, {"note": 59, "velocity": 107, "duration": 111}, {"note": 0, "velocity": 0, "duration": 129}, {"note": 63, "velocity": 127, "duration": 216}, {"note": 0, "velocity": 0, "duration": 144}, {"note": 64, "velocity": 102, "duration": 89}, {"note": 61, "velocity": 100, "duration": 159}, {"note": 0, "velocity": 0, "duration": 81}, {"note": 63, "velocity": 112, "duration": 273}, {"note": 0, "velocity": 0, "duration": 327}, {"note": 59, "velocity": 107, "duration": 157}, {"note": 0, "velocity": 0, "duration": 83}, {"note": 59, "velocity": 107, "duration": 124}, {"note": 0, "velocity": 0, "duration": 116}, {"note": 61, "velocity": 112, "duration": 128}, {"note": 0, "velocity": 0, "duration": 112}, {"note": 59, "velocity": 117, "duration": 137}, {"note": 0, "velocity": 0, "duration": 103}, {"note": 54, "velocity": 117, "duration": 62}, {"note": 54, "velocity": 100, "duration": 200}, {"note": 0, "velocity": 0, "duration": 280}, {"note": 54, "velocity": 100, "duration": 62}, {"note": 64, "velocity": 100, "duration": 260}, {"note": 0, "velocity": 0, "duration": 100}, {"note": 63, "velocity": 127, "duration": 213}, {"note": 61, "velocity": 102, "duration": 187}, {"note": 0, "velocity": 0, "duration": 173}, {"note": 61, "velocity": 122, "duration": 335}, {"note": 59, "velocity": 102, "duration": 70}, {"note": 61, "velocity": 107, "duration": 74}, {"note": 63, "velocity": 102, "duration": 606}, {"note": 0, "velocity": 0, "duration": 114}, {"note": 56, "velocity": 92, "duration": 113}, {"note": 61, "velocity": 92, "duration": 334}, {"note": 63, "velocity": 99, "duration": 113}, {"note": 65, "velocity": 97, "duration": 345}, {"note": 63, "velocity": 99, "duration": 200}, {"note": 61, "velocity": 93, "duration": 235}, {"note": 60, "velocity": 88, "duration": 255}, {"note": 61, "velocity": 93, "duration": 285}, {"note": 61, "velocity": 96, "duration": 45}, {"note": 0, "velocity": 0, "duration": 75}, {"note": 61, "velocity": 82, "duration": 202}, {"note": 0, "velocity": 0, "duration": 158}, {"note": 63, "velocity": 90, "duration": 92}, {"note": 65, "velocity": 95, "duration": 321}, {"note": 63, "velocity": 96, "duration": 43}, {"note": 0, "velocity": 0, "duration": 77}, {"note": 61, "velocity": 88, "duration": 284}, {"note": 63, "velocity": 83, "duration": 343}, {"note": 0, "velocity": 0, "duration": 257}, {"note": 68, "velocity": 97, "duration": 138}, {"note": 0, "velocity": 0, "duration": 102}, {"note": 68, "velocity": 100, "duration": 147}, {"note": 0, "velocity": 0, "duration": 93}, {"note": 68, "velocity": 93, "duration": 50}, {"note": 0, "velocity": 0, "duration": 70}, {"note": 68, "velocity": 100, "duration": 115}, {"note": 0, "velocity": 0, "duration": 125}, {"note": 60, "velocity": 90, "duration": 151}, {"note": 0, "velocity": 0, "duration": 89}, {"note": 61, "velocity": 85, "duration": 252}, {"note": 0, "velocity": 0, "duration": 228}, {"note": 58, "velocity": 97, "duration": 79}, {"note": 63, "velocity": 100, "duration": 175}, {"note": 0, "velocity": 0, "duration": 65}, {"note": 65, "velocity": 93, "duration": 73}, {"note": 66, "velocity": 99, "duration": 190}, {"note": 0, "velocity": 0, "duration": 170}, {"note": 65, "velocity": 86, "duration": 78}, {"note": 63, "velocity": 88, "duration": 279}, {"note": 0, "velocity": 0, "duration": 81}, {"note": 65, "velocity": 95, "duration": 389}, {"note": 0, "velocity": 0, "duration": 571}, {"note": 56, "velocity": 96, "duration": 114}, {"note": 61, "velocity": 122, "duration": 301}, {"note": 63, "velocity": 102, "duration": 100}, {"note": 65, "velocity": 117, "duration": 254}, {"note": 0, "velocity": 0, "duration": 106}, {"note": 63, "velocity": 102, "duration": 50}, {"note": 0, "velocity": 0, "duration": 70}, {"note": 61, "velocity": 95, "duration": 282}, {"note": 0, "velocity": 0, "duration": 78}, {"note": 60, "velocity": 93, "duration": 89}, {"note": 61, "velocity": 96, "duration": 355}, {"note": 61, "velocity": 96, "duration": 28}, {"note": 0, "velocity": 0, "duration": 92}, {"note": 61, "velocity": 97, "duration": 162}, {"note": 0, "velocity": 0, "duration": 78}, {"note": 63, "velocity": 102, "duration": 132}, {"note": 0, "velocity": 0, "duration": 108}, {"note": 65, "velocity": 102, "duration": 225}, {"note": 0, "velocity": 0, "duration": 135}, {"note": 66, "velocity": 99, "duration": 61}, {"note": 65, "velocity": 89, "duration": 209}, {"note": 0, "velocity": 0, "duration": 151}, {"note": 61, "velocity": 99, "duration": 261}, {"note": 0, "velocity": 0, "duration": 219}, {"note": 68, "velocity": 117, "duration": 159}, {"note": 0, "velocity": 0, "duration": 81}, {"note": 68, "velocity": 117, "duration": 147}, {"note": 0, "velocity": 0, "duration": 93}, {"note": 70, "velocity": 112, "duration": 92}, {"note": 68, "velocity": 112, "duration": 153}, {"note": 0, "velocity": 0, "duration": 207}, {"note": 60, "velocity": 99, "duration": 81}, {"note": 61, "velocity": 107, "duration": 318}, {"note": 63, "velocity": 100, "duration": 84}, {"note": 65, "velocity": 90, "duration": 76}, {"note": 66, "velocity": 102, "duration": 512}, {"note": 0, "velocity": 0, "duration": 328}, {"note": 58, "velocity": 90, "duration": 73}, {"note": 65, "velocity": 100, "duration": 127}, {"note": 0, "velocity": 0, "duration": 113}, {"note": 63, "velocity": 99, "duration": 67}, {"note": 61, "velocity": 100, "duration": 260}, {"note": 0, "velocity": 0, "duration": 100}, {"note": 60, "velocity": 92, "duration": 189}, {"note": 61, "velocity": 100, "duration": 1255}, {"note": 0, "velocity": 0, "duration": 905}, {"note": 68, "velocity": 107, "duration": 150}, {"note": 0, "velocity": 0, "duration": 90}, {"note": 68, "velocity": 100, "duration": 139}, {"note": 0, "velocity": 0, "duration": 101}, {"note": 70, "velocity": 107, "duration": 152}, {"note": 0, "velocity": 0, "duration": 88}, {"note": 68, "velocity": 112, "duration": 92}, {"note": 0, "velocity": 0, "duration": 148}, {"note": 60, "velocity": 112, "duration": 108}, {"note": 61, "velocity": 96, "duration": 353}, {"note": 63, "velocity": 88, "duration": 152}, {"note": 65, "velocity": 85, "duration": 149}, {"note": 66, "velocity": 96, "duration": 609}, {"note": 0, "velocity": 0, "duration": 237}, {"note": 58, "velocity": 77, "duration": 144}, {"note": 65, "velocity": 102, "duration": 165}, {"note": 0, "velocity": 0, "duration": 145}, {"note": 63, "velocity": 90, "duration": 97}, {"note": 0, "velocity": 0, "duration": 95}, {"note": 61, "velocity": 93, "duration": 258}, {"note": 0, "velocity": 0, "duration": 271}, {"note": 60, "velocity": 92, "duration": 163}, {"note": 63, "velocity": 92, "duration": 219}, {"note": 61, "velocity": 100, "duration": 977}]]