[[{"note": 65, "velocity": 112, "duration": 219}, {"note": 63, "velocity": 89, "duration": 174}, {"note": 0, "velocity": 0, "duration": 66}, {"note": 65, "velocity": 122, "duration": 134}, {"note": 0, "velocity": 0, "duration": 106}, {"note": 68, "velocity": 102, "duration": 114}, {"note": 0, "velocity": 0, "duration": 126}, {"note": 70, "velocity": 112, "duration": 409}, {"note": 0, "velocity": 0, "duration": 311}, {"note": 68, "velocity": 89, "duration": 111}, {"note": 70, "velocity": 90, "duration": 124}, {"note": 72, "velocity": 97, "duration": 146}, {"note": 0, "velocity": 0, "duration": 94}, {"note": 72, "velocity": 100, "duration": 117}, {"note": 0, "velocity": 0, "duration": 123}, {"note": 72, "velocity": 107, "duration": 100}, {"note": 0, "velocity": 0, "duration": 140}, {"note": 68, "velocity": 97, "duration": 110}, {"note": 0, "velocity": 0, "duration": 130}, {"note": 70, "velocity": 117, "duration": 244}, {"note": 0, "velocity": 0, "duration": 716}, {"note": 63, "velocity": 112, "duration": 199}, {"note": 61, "velocity": 85, "duration": 194}, {"note": 63, "velocity": 100, "duration": 183}, {"note": 65, "velocity": 92, "duration": 154}, {"note": 0, "velocity": 0, "duration": 86}, {"note": 68, "velocity": 99, "duration": 199}, {"note": 65, "velocity": 117, "duration": 230}, {"note": 68, "velocity": 100, "duration": 189}, {"note": 65, "velocity": 92, "duration": 211}, {"note": 68, "velocity": 96, "duration": 186}, {"note": 70, "velocity": 112, "duration": 123}, {"note": 0, "velocity": 0, "duration": 117}, {"note": 72, "velocity": 107, "duration": 195}, {"note": 68, "velocity": 95, "duration": 194}, {"note": 65, "velocity": 97, "duration": 517}, {"note": 0, "velocity": 0, "duration": 443}, {"note": 65, "velocity": 117, "duration": 186}, {"note": 63, "velocity": 86, "duration": 146}, {"note": 0, "velocity": 0, "duration": 94}, {"note": 65, "velocity": 99, "duration": 144}, {"note": 0, "velocity": 0, "duration": 96}, {"note": 68, "velocity": 102, "duration": 115}, {"note": 0, "velocity": 0, "duration": 125}, {"note": 70, "velocity": 112, "duration": 212}, {"note": 0, "velocity": 0, "duration": 508}, {"note": 68, "velocity": 100, "duration": 96}, {"note": 70, "velocity": 88, "duration": 112}, {"note": 72, "velocity": 92, "duration": 117}, {"note": 0, "velocity": 0, "duration": 123}, {"note": 73, "velocity": 95, "duration": 165}, {"note": 0, "velocity": 0, "duration": 75}, {"note": 72, "velocity": 107, "duration": 154}, {"note": 0, "velocity": 0, "duration": 86}, {"note": 68, "velocity": 100, "duration": 145}, {"note": 0, "velocity": 0, "duration": 95}, {"note": 77, "velocity": 127, "duration": 161}, {"note": 0, "velocity": 0, "duration": 799}, {"note": 70, "velocity": 112, "duration": 94}, {"note": 0, "velocity": 0, "duration": 146}, {"note": 68, "velocity": 97, "duration": 100}, {"note": 0, "velocity": 0, "duration": 140}, {"note": 70, "velocity": 117, "duration": 93}, {"note": 0, "velocity": 0, "duration": 147}, {"note": 77, "velocity": 88, "duration": 99}, {"note": 0, "velocity": 0, "duration": 141}, {"note": 70, "velocity": 100, "duration": 88}, {"note": 0, "velocity": 0, "duration": 152}, {"note": 68, "velocity": 100, "duration": 105}, {"note": 0, "velocity": 0, "duration": 135}, {"note": 70, "velocity": 127, "duration": 114}, {"note": 0, "velocity": 0, "duration": 126}, {"note": 77, "velocity": 117, "duration": 126}, {"note": 0, "velocity": 0, "duration": 114}, {"note": 75, "velocity": 117, "duration": 113}, {"note": 0, "velocity": 0, "duration": 127}, {"note": 72, "velocity": 117, "duration": 146}, {"note": 0, "velocity": 0, "duration": 94}, {"note": 68, "velocity": 97, "duration": 164}, {"note": 0, "velocity": 0, "duration": 76}, {"note": 70, "velocity": 100, "duration": 77}, {"note": 0, "velocity": 0, "duration": 163}, {"note": 70, "velocity": 122, "duration": 714}, {"note": 0, "velocity": 0, "duration": 246}, {"note": 70, "velocity": 99, "duration": 173}, {"note": 0, "velocity": 0, "duration": 67}, {"note": 77, "velocity": 96, "duration": 118}, {"note": 0, "velocity": 0, "duration": 122}, {"note": 70, "velocity": 100, "duration": 135}, {"note": 0, "velocity": 0, "duration": 105}, {"note": 77, "velocity": 100, "duration": 111}, {"note": 0, "velocity": 0, "duration": 129}, {"note": 70, "velocity": 107, "duration": 207}, {"note": 0, "velocity": 0, "duration": 513}, {"note": 75, "velocity": 127, "duration": 105}, {"note": 73, "velocity": 90, "duration": 130}, {"note": 75, "velocity": 100, "duration": 110}, {"note": 0, "velocity": 0, "duration": 130}, {"note": 73, "velocity": 122, "duration": 222}, {"note": 72, "velocity": 100, "duration": 144}, {"note": 0, "velocity": 0, "duration": 96}, {"note": 68, "velocity": 99, "duration": 211}, {"note": 65, "velocity": 96, "duration": 314}, {"note": 0, "velocity": 0, "duration": 646}, {"note": 75, "velocity": 122, "duration": 132}, {"note": 0, "velocity": 0, "duration": 108}, {"note": 75, "velocity": 122, "duration": 107}, {"note": 0, "velocity": 0, "duration": 133}, {"note": 75, "velocity": 127, "duration": 115}, {"note": 0, "velocity": 0, "duration": 125}, {"note": 73, "velocity": 112, "duration": 80}, {"note": 77, "velocity": 117, "duration": 260}, {"note": 0, "velocity": 0, "duration": 100}, {"note": 75, "velocity": 127, "duration": 221}, {"note": 75, "velocity": 112, "duration": 164}, {"note": 0, "velocity": 0, "duration": 76}, {"note": 68, "velocity": 96, "duration": 221}, {"note": 72, "velocity": 102, "duration": 171}, {"note": 0, "velocity": 0, "duration": 69}, {"note": 65, "velocity": 102, "duration": 198}, {"note": 68, "velocity": 107, "duration": 205}, {"note": 70, "velocity": 102, "duration": 94}, {"note": 0, "velocity": 0, "duration": 146}, {"note": 70, "velocity": 122, "duration": 850}, {"note": 0, "velocity": 0, "duration": 110}, {"note": 70, "velocity": 100, "duration": 188}, {"note": 77, "velocity": 100, "duration": 143}, {"note": 0, "velocity": 0, "duration": 97}, {"note": 70, "velocity": 100, "duration": 199}, {"note": 77, "velocity": 107, "duration": 122}, {"note": 0, "velocity": 0, "duration": 118}, {"note": 70, "velocity": 107, "duration": 254}, {"note": 0, "velocity": 0, "duration": 466}, {"note": 75, "velocity": 127, "duration": 117}, {"note": 73, "velocity": 97, "duration": 107}, {"note": 75, "velocity": 122, "duration": 150}, {"note": 0, "velocity": 0, "duration": 90}, {"note": 73, "velocity": 127, "duration": 146}, {"note": 0, "velocity": 0, "duration": 94}, {"note": 72, "velocity": 112, "duration": 167}, {"note": 0, "velocity": 0, "duration": 73}, {"note": 68, "velocity": 107, "duration": 205}, {"note": 65, "velocity": 100, "duration": 245}, {"note": 0, "velocity": 0, "duration": 715}, {"note": 75, "velocity": 127, "duration": 102}, {"note": 0, "velocity": 0, "duration": 138}, {"note": 75, "velocity": 127, "duration": 91}, {"note": 0, "velocity": 0, "duration": 149}, {"note": 75, "velocity": 127, "duration": 89}, {"note": 0, "velocity": 0, "duration": 151}, {"note": 73, "velocity": 122, "duration": 79}, {"note": 0, "velocity": 0, "duration": 161}, {"note": 77, "velocity": 117, "duration": 144}, {"note": 0, "velocity": 0, "duration": 96}, {"note": 75, "velocity": 127, "duration": 58}, {"note": 0, "velocity": 0, "duration": 62}, {"note": 75, "velocity": 122, "duration": 191}, {"note": 0, "velocity": 0, "duration": 169}, {"note": 73, "velocity": 127, "duration": 200}, {"note": 72, "velocity": 127, "duration": 193}, {"note": 65, "velocity": 112, "duration": 206}, {"note": 68, "velocity": 100, "duration": 194}, {"note": 70, "velocity": 99, "duration": 46}, {"note": 0, "velocity": 0, "duration": 194}, {"note": 70, "velocity": 117, "duration": 440}, {"note": 0, "velocity": 0, "duration": 8200}, {"note": 65, "velocity": 112, "duration": 219}, {"note": 63, "velocity": 89, "duration": 174}, {"note": 0, "velocity": 0, "duration": 66}, {"note": 65, "velocity": 122, "duration": 134}, {"note": 0, "velocity": 0, "duration": 106}, {"note": 68, "velocity": 102, "duration": 114}, {"note": 0, "velocity": 0, "duration": 126}, {"note": 70, "velocity": 112, "duration": 409}, {"note": 0, "velocity": 0, "duration": 311}, {"note": 68, "velocity": 89, "duration": 111}, {"note": 70, "velocity": 90, "duration": 124}, {"note": 72, "velocity": 97, "duration": 146}, {"note": 0, "velocity": 0, "duration": 94}, {"note": 72, "velocity": 100, "duration": 117}, {"note": 0, "velocity": 0, "duration": 123}, {"note": 72, "velocity": 107, "duration": 100}, {"note": 0, "velocity": 0, "duration": 140}, {"note": 68, "velocity": 97, "duration": 110}, {"note": 0, "velocity": 0, "duration": 130}, {"note": 70, "velocity": 117, "duration": 244}, {"note": 0, "velocity": 0, "duration": 716}, {"note": 63, "velocity": 112, "duration": 199}, {"note": 61, "velocity": 85, "duration": 194}, {"note": 63, "velocity": 100, "duration": 183}, {"note": 65, "velocity": 92, "duration": 154}, {"note": 0, "velocity": 0, "duration": 86}, {"note": 68, "velocity": 99, "duration": 199}, {"note": 65, "velocity": 117, "duration": 230}, {"note": 68, "velocity": 100, "duration": 189}, {"note": 65, "velocity": 92, "duration": 211}, {"note": 68, "velocity": 96, "duration": 186}, {"note": 70, "velocity": 112, "duration": 123}, {"note": 0, "velocity": 0, "duration": 117}, {"note": 72, "velocity": 107, "duration": 195}, {"note": 68, "velocity": 95, "duration": 194}, {"note": 65, "velocity": 97, "duration": 517}, {"note": 0, "velocity": 0, "duration": 443}, {"note": 65, "velocity": 117, "duration": 186}, {"note": 63, "velocity": 86, "duration": 146}, {"note": 0, "velocity": 0, "duration": 94}, {"note": 65, "velocity": 99, "duration": 144}, {"note": 0, "velocity": 0, "duration": 96}, {"note": 68, "velocity": 102, "duration": 115}, {"note": 0, "velocity": 0, "duration": 125}, {"note": 70, "velocity": 112, "duration": 212}, {"note": 0, "velocity": 0, "duration": 508}, {"note": 68, "velocity": 100, "duration": 96}, {"note": 70, "velocity": 88, "duration": 112}, {"note": 72, "velocity": 92, "duration": 117}, {"note": 0, "velocity": 0, "duration": 123}, {"note": 73, "velocity": 95, "duration": 165}, {"note": 0, "velocity": 0, "duration": 75}, {"note": 72, "velocity": 107, "duration": 154}, {"note": 0, "velocity": 0, "duration": 86}, {"note": 68, "velocity": 100, "duration": 145}, {"note": 0, "velocity": 0, "duration": 95}, {"note": 77, "velocity": 127, "duration": 161}, {"note": 0, "velocity": 0, "duration": 799}, {"note": 70, "velocity": 112, "duration": 94}, {"note": 0, "velocity": 0, "duration": 146}, {"note": 68, "velocity": 97, "duration": 100}, {"note": 0, "velocity": 0, "duration": 140}, {"note": 70, "velocity": 117, "duration": 93}, {"note": 0, "velocity": 0, "duration": 147}, {"note": 77, "velocity": 88, "duration": 99}, {"note": 0, "velocity": 0, "duration": 141}, {"note": 70, "velocity": 100, "duration": 88}, {"note": 0, "velocity": 0, "duration": 152}, {"note": 68, "velocity": 100, "duration": 105}, {"note": 0, "velocity": 0, "duration": 135}, {"note": 70, "velocity": 127, "duration": 114}, {"note": 0, "velocity": 0, "duration": 126}, {"note": 77, "velocity": 117, "duration": 126}, {"note": 0, "velocity": 0, "duration": 114}, {"note": 75, "velocity": 117, "duration": 113}, {"note": 0, "velocity": 0, "duration": 127}, {"note": 72, "velocity": 117, "duration": 146}, {"note": 0, "velocity": 0, "duration": 94}, {"note": 68, "velocity": 97, "duration": 164}, {"note": 0, "velocity": 0, "duration": 76}, {"note": 70, "velocity": 100, "duration": 77}, {"note": 0, "velocity": 0, "duration": 163}, {"note": 70, "velocity": 122, "duration": 714}, {"note": 0, "velocity": 0, "duration": 246}, {"note": 70, "velocity": 99, "duration": 173}, {"note": 0, "velocity": 0, "duration": 67}, {"note": 77, "velocity": 96, "duration": 118}, {"note": 0, "velocity": 0, "duration": 122}, {"note": 70, "velocity": 100, "duration": 135}, {"note": 0, "velocity": 0, "duration": 105}, {"note": 77, "velocity": 100, "duration": 111}, {"note": 0, "velocity": 0, "duration": 129}, {"note": 70, "velocity": 107, "duration": 207}, {"note": 0, "velocity": 0, "duration": 513}, {"note": 75, "velocity": 127, "duration": 105}, {"note": 73, "velocity": 90, "duration": 130}, {"note": 75, "velocity": 100, "duration": 110}, {"note": 0, "velocity": 0, "duration": 130}, {"note": 73, "velocity": 122, "duration": 222}, {"note": 72, "velocity": 100, "duration": 144}, {"note": 0, "velocity": 0, "duration": 96}, {"note": 68, "velocity": 99, "duration": 211}, {"note": 65, "velocity": 96, "duration": 314}, {"note": 0, "velocity": 0, "duration": 646}, {"note": 75, "velocity": 122, "duration": 132}, {"note": 0, "velocity": 0, "duration": 108}, {"note": 75, "velocity": 122, "duration": 107}, {"note": 0, "velocity": 0, "duration": 133}, {"note": 75, "velocity": 127, "duration": 115}, {"note": 0, "velocity": 0, "duration": 125}, {"note": 73, "velocity": 112, "duration": 80}, {"note": 77, "velocity": 117, "duration": 260}, {"note": 0, "velocity": 0, "duration": 100}, {"note": 75, "velocity": 127, "duration": 221}, {"note": 75, "velocity": 112, "duration": 164}, {"note": 0, "velocity": 0, "duration": 76}, {"note": 68, "velocity": 96, "duration": 221}, {"note": 72, "velocity": 102, "duration": 171}, {"note": 0, "velocity": 0, "duration": 69}, {"note": 65, "velocity": 102, "duration": 198}, {"note": 68, "velocity": 107, "duration": 205}, {"note": 70, "velocity": 102, "duration": 94}, {"note": 0, "velocity": 0, "duration": 146}, {"note": 70, "velocity": 122, "duration": 850}, {"note": 0, "velocity": 0, "duration": 110}, {"note": 70, "velocity": 100, "duration": 188}, {"note": 77, "velocity": 100, "duration": 143}, {"note": 0, "velocity": 0, "duration": 97}, {"note": 70, "velocity": 100, "duration": 199}, {"note": 77, "velocity": 107, "duration": 122}, {"note": 0, "velocity": 0, "duration": 118}, {"note": 70, "velocity": 107, "duration": 254}, {"note": 0, "velocity": 0, "duration": 466}, {"note": 75, "velocity": 127, "duration": 117}, {"note": 73, "velocity": 97, "duration": 107}, {"note": 75, "velocity": 122, "duration": 150}, {"note": 0, "velocity": 0, "duration": 90}, {"note": 73, "velocity": 127, "duration": 146}, {"note": 0, "velocity": 0, "duration": 94}, {"note": 72, "velocity": 112, "duration": 167}, {"note": 0, "velocity": 0, "duration": 73}, {"note": 68, "velocity": 107, "duration": 205}, {"note": 65, "velocity": 100, "duration": 245}, {"note": 0, "velocity": 0, "duration": 715}, {"note": 75, "velocity": 127, "duration": 102}, {"note": 0, "velocity": 0, "duration": 138}, {"note": 75, "velocity": 127, "duration": 91}, {"note": 0, "velocity": 0, "duration": 149}, {"note": 75, "velocity": 127, "duration": 89}, {"note": 0, "velocity": 0, "duration": 151}, {"note": 73, "velocity": 122, "duration": 79}, {"note": 0, "velocity": 0, "duration": 161}, {"note": 77, "velocity": 117, "duration": 144}, {"note": 0, "velocity": 0, "duration": 96}, {"note": 75, "velocity": 127, "duration": 58}, {"note": 0, "velocity": 0, "duration": 62}, {"note": 75, "velocity": 122, "duration": 191}, {"note": 0, "velocity": 0, "duration": 169}, {"note": 73, "velocity": 127, "duration": 200}, {"note": 72, "velocity": 127, "duration": 193}, {"note": 65, "velocity": 112, "duration": 206}, {"note": 68, "velocity": 100, "duration": 194}, {"note": 70, "velocity": 99, "duration": 46}, {"note": 0, "velocity": 0, "duration": 194}, {"note": 70, "velocity": 117, "duration": 440}, {"note": 0, "velocity": 0, "duration": 520}, {"note": 70, "velocity": 99, "duration": 173}, {"note": 0, "velocity": 0, "duration": 67}, {"note": 77, "velocity": 96, "duration": 118}, {"note": 0, "velocity": 0, "duration": 122}, {"note": 70, "velocity": 100, "duration": 135}, {"note": 0, "velocity": 0, "duration": 105}, {"note": 77, "velocity": 100, "duration": 111}, {"note": 0, "velocity": 0, "duration": 129}, {"note": 70, "velocity": 107, "duration": 207}, {"note": 0, "velocity": 0, "duration": 513}, {"note": 75, "velocity": 127, "duration": 105}, {"note": 73, "velocity": 90, "duration": 130}, {"note": 75, "velocity": 100, "duration": 110}, {"note": 0, "velocity": 0, "duration": 130}, {"note": 73, "velocity": 122, "duration": 222}, {"note": 72, "velocity": 100, "duration": 144}, {"note": 0, "velocity": 0, "duration": 96}, {"note": 68, "velocity": 99, "duration": 211}, {"note": 65, "velocity": 96, "duration": 314}, {"note": 0, "velocity": 0, "duration": 646}, {"note": 75, "velocity": 122, "duration": 132}, {"note": 0, "velocity": 0, "duration": 108}, {"note": 75, "velocity": 122, "duration": 107}, {"note": 0, "velocity": 0, "duration": 133}, {"note": 75, "velocity": 127, "duration": 115}, {"note": 0, "velocity": 0, "duration": 125}, {"note": 73, "velocity": 112, "duration": 80}, {"note": 77, "velocity": 117, "duration": 260}, {"note": 0, "velocity": 0, "duration": 100}, {"note": 75, "velocity": 127, "duration": 221}, {"note": 75, "velocity": 112, "duration": 164}, {"note": 0, "velocity": 0, "duration": 76}, {"note": 68, "velocity": 96, "duration": 221}, {"note": 72, "velocity": 102, "duration": 171}, {"note": 0, "velocity": 0, "duration": 69}, {"note": 65, "velocity": 102, "duration": 198}, {"note": 68, "velocity": 107, "duration": 205}, {"note": 70, "velocity": 102, "duration": 94}, {"note": 0, "velocity": 0, "duration": 146}, {"note": 70, "velocity": 122, "duration": 850}, {"note": 0, "velocity": 0, "duration": 110}, {"note": 70, "velocity": 100, "duration": 188}, {"note": 77, "velocity": 100, "duration": 143}, {"note": 0, "velocity": 0, "duration": 97}, {"note": 70, "velocity": 100, "duration": 199}, {"note": 77, "velocity": 107, "duration": 122}, {"note": 0, "velocity": 0, "duration": 118}, {"note": 70, "velocity": 107, "duration": 254}, {"note": 0, "velocity": 0, "duration": 466}, {"note": 75, "velocity": 127, "duration": 117}, {"note": 73, "velocity": 97, "duration": 107}, {"note": 75, "velocity": 122, "duration": 150}, {"note": 0, "velocity": 0, "duration": 90}, {"note": 73, "velocity": 127, "duration": 146}, {"note": 0, "velocity": 0, "duration": 94}, {"note": 72, "velocity": 112, "duration": 167}, {"note": 0, "velocity": 0, "duration": 73}, {"note": 68, "velocity": 107, "duration": 205}, {"note": 65, "velocity": 100, "duration": 245}, {"note": 0, "velocity": 0, "duration": 715}, {"note": 75, "velocity": 127, "duration": 102}, {"note": 0, "velocity": 0, "duration": 138}, {"note": 75, "velocity": 127, "duration": 91}, {"note": 0, "velocity": 0, "duration": 149}, {"note": 75, "velocity": 127, "duration": 89}, {"note": 0, "velocity": 0, "duration": 151}, {"note": 73, "velocity": 122, "duration": 79}, {"note": 0, "velocity": 0, "duration": 161}, {"note": 77, "velocity": 117, "duration": 144}, {"note": 0, "velocity": 0, "duration": 96}, {"note": 75, "velocity": 127, "duration": 58}, {"note": 0, "velocity": 0, "duration": 62}, {"note": 75, "velocity": 122, "duration": 191}, {"note": 0, "velocity": 0, "duration": 169}, {"note": 73, "velocity": 127, "duration": 200}, {"note": 72, "velocity": 127, "duration": 193}, {"note": 65, "velocity": 112, "duration": 206}, {"note": 68, "velocity": 100, "duration": 194}, {"note": 70, "velocity": 99, "duration": 46}, {"note": 0, "velocity": 0, "duration": 194}, {"note": 70, "velocity": 117, "duration": 440}, {"note": 0, "velocity": 0, "duration": 17800}, {"note": 70, "velocity": 99, "duration": 173}, {"note": 0, "velocity": 0, "duration": 67}, {"note": 77, "velocity": 96, "duration": 118}, {"note": 0, "velocity": 0, "duration": 122}, {"note": 70, "velocity": 100, "duration": 135}, {"note": 0, "velocity": 0, "duration": 105}, {"note": 77, "velocity": 100, "duration": 111}, {"note": 0, "velocity": 0, "duration": 129}, {"note": 70, "velocity": 107, "duration": 207}, {"note": 0, "velocity": 0, "duration": 513}, {"note": 75, "velocity": 127, "duration": 105}, {"note": 73, "velocity": 90, "duration": 130}, {"note": 75, "velocity": 100, "duration": 110}, {"note": 0, "velocity": 0, "duration": 130}, {"note": 73, "velocity": 122, "duration": 222}, {"note": 72, "velocity": 100, "duration": 144}, {"note": 0, "velocity": 0, "duration": 96}, {"note": 68, "velocity": 99, "duration": 211}, {"note": 65, "velocity": 96, "duration": 314}, {"note": 0, "velocity": 0, "duration": 646}, {"note": 75, "velocity": 122, "duration": 132}, {"note": 0, "velocity": 0, "duration": 108}, {"note": 75, "velocity": 122, "duration": 107}, {"note": 0, "velocity": 0, "duration": 133}, {"note": 75, "velocity": 127, "duration": 115}, {"note": 0, "velocity": 0, "duration": 125}, {"note": 73, "velocity": 112, "duration": 80}, {"note": 77, "velocity": 117, "duration": 260}, {"note": 0, "velocity": 0, "duration": 100}, {"note": 75, "velocity": 127, "duration": 221}, {"note": 75, "velocity": 112, "duration": 164}, {"note": 0, "velocity": 0, "duration": 76}, {"note": 68, "velocity": 96, "duration": 221}, {"note": 72, "velocity": 102, "duration": 171}, {"note": 0, "velocity": 0, "duration": 69}, {"note": 65, "velocity": 102, "duration": 198}, {"note": 68, "velocity": 107, "duration": 205}, {"note": 70, "velocity": 102, "duration": 94}, {"note": 0, "velocity": 0, "duration": 146}, {"note": 70, "velocity": 122, "duration": 850}, {"note": 0, "velocity": 0, "duration": 110}, {"note": 70, "velocity": 100, "duration": 188}, {"note": 77, "velocity": 100, "duration": 143}, {"note": 0, "velocity": 0, "duration": 97}, {"note": 70, "velocity": 100, "duration": 199}, {"note": 77, "velocity": 107, "duration": 122}, {"note": 0, "velocity": 0, "duration": 118}, {"note": 70, "velocity": 107, "duration": 254}, {"note": 0, "velocity": 0, "duration": 466}, {"note": 75, "velocity": 127, "duration": 117}, {"note": 73, "velocity": 97, "duration": 107}, {"note": 75, "velocity": 122, "duration": 150}, {"note": 0, "velocity": 0, "duration": 90}, {"note": 73, "velocity": 127, "duration": 146}, {"note": 0, "velocity": 0, "duration": 94}, {"note": 72, "velocity": 112, "duration": 167}, {"note": 0, "velocity": 0, "duration": 73}, {"note": 68, "velocity": 107, "duration": 205}, {"note": 65, "velocity": 100, "duration": 245}, {"note": 0, "velocity": 0, "duration": 715}, {"note": 75, "velocity": 127, "duration": 102}, {"note": 0, "velocity": 0, "duration": 138}, {"note": 75, "velocity": 127, "duration": 91}, {"note": 0, "velocity": 0, "duration": 149}, {"note": 75, "velocity": 127, "duration": 89}, {"note": 0, "velocity": 0, "duration": 151}, {"note": 73, "velocity": 122, "duration": 79}, {"note": 0, "velocity": 0, "duration": 161}, {"note": 77, "velocity": 117, "duration": 144}, {"note": 0, "velocity": 0, "duration": 96}, {"note": 75, "velocity": 127, "duration": 58}, {"note": 0, "velocity": 0, "duration": 62}, {"note": 75, "velocity": 122, "duration": 191}, {"note": 0, "velocity": 0, "duration": 169}, {"note": 73, "velocity": 127, "duration": 200}, {"note": 72, "velocity": 127, "duration": 193}, {"note": 65, "velocity": 112, "duration": 206}, {"note": 68, "velocity": 100, "duration": 194}, {"note": 70, "velocity": 99, "duration": 46}, {"note": 0, "velocity": 0, "duration": 194}, {"note": 70, "velocity": 117, "duration": 440}, {"note": 0, "velocity": 0, "duration": 520}, {"note": 71, "velocity": 99, "duration": 173}, {"note": 0, "velocity": 0, "duration": 67}, {"note": 78, "velocity": 96, "duration": 118}, {"note": 0, "velocity": 0, "duration": 122}, {"note": 71, "velocity": 100, "duration": 135}, {"note": 0, "velocity": 0, "duration": 105}, {"note": 78, "velocity": 100, "duration": 111}, {"note": 0, "velocity": 0, "duration": 129}, {"note": 71, "velocity": 107, "duration": 207}, {"note": 0, "velocity": 0, "duration": 513}, {"note": 76, "velocity": 127, "duration": 105}, {"note": 74, "velocity": 90, "duration": 130}, {"note": 76, "velocity": 100, "duration": 110}, {"note": 0, "velocity": 0, "duration": 130}, {"note": 74, "velocity": 122, "duration": 222}, {"note": 73, "velocity": 100, "duration": 144}, {"note": 0, "velocity": 0, "duration": 96}, {"note": 69, "velocity": 99, "duration": 211}, {"note": 66, "velocity": 96, "duration": 314}, {"note": 0, "velocity": 0, "duration": 646}, {"note": 76, "velocity": 122, "duration": 132}, {"note": 0, "velocity": 0, "duration": 108}, {"note": 76, "velocity": 122, "duration": 107}, {"note": 0, "velocity": 0, "duration": 133}, {"note": 76, "velocity": 127, "duration": 115}, {"note": 0, "velocity": 0, "duration": 125}, {"note": 74, "velocity": 112, "duration": 80}, {"note": 78, "velocity": 117, "duration": 260}, {"note": 0, "velocity": 0, "duration": 100}, {"note": 76, "velocity": 127, "duration": 221}, {"note": 76, "velocity": 112, "duration": 164}, {"note": 0, "velocity": 0, "duration": 76}, {"note": 69, "velocity": 96, "duration": 221}, {"note": 73, "velocity": 102, "duration": 171}, {"note": 0, "velocity": 0, "duration": 69}, {"note": 66, "velocity": 102, "duration": 198}, {"note": 69, "velocity": 107, "duration": 205}, {"note": 71, "velocity": 102, "duration": 94}, {"note": 0, "velocity": 0, "duration": 146}, {"note": 71, "velocity": 122, "duration": 850}, {"note": 0, "velocity": 0, "duration": 110}, {"note": 71, "velocity": 100, "duration": 188}, {"note": 78, "velocity": 100, "duration": 143}, {"note": 0, "velocity": 0, "duration": 97}, {"note": 71, "velocity": 100, "duration": 199}, {"note": 78, "velocity": 107, "duration": 122}, {"note": 0, "velocity": 0, "duration": 118}, {"note": 71, "velocity": 107, "duration": 254}, {"note": 0, "velocity": 0, "duration": 466}, {"note": 76, "velocity": 127, "duration": 117}, {"note": 74, "velocity": 97, "duration": 107}, {"note": 76, "velocity": 122, "duration": 150}, {"note": 0, "velocity": 0, "duration": 90}, {"note": 74, "velocity": 127, "duration": 146}, {"note": 0, "velocity": 0, "duration": 94}, {"note": 73, "velocity": 112, "duration": 167}, {"note": 0, "velocity": 0, "duration": 73}, {"note": 69, "velocity": 107, "duration": 205}, {"note": 66, "velocity": 100, "duration": 245}, {"note": 0, "velocity": 0, "duration": 715}, {"note": 76, "velocity": 127, "duration": 102}, {"note": 0, "velocity": 0, "duration": 138}, {"note": 76, "velocity": 127, "duration": 91}, {"note": 0, "velocity": 0, "duration": 149}, {"note": 76, "velocity": 127, "duration": 89}, {"note": 0, "velocity": 0, "duration": 151}, {"note": 74, "velocity": 122, "duration": 79}, {"note": 0, "velocity": 0, "duration": 161}, {"note": 78, "velocity": 117, "duration": 144}, {"note": 0, "velocity": 0, "duration": 96}, {"note": 76, "velocity": 127, "duration": 58}, {"note": 0, "velocity": 0, "duration": 62}, {"note": 76, "velocity": 122, "duration": 191}, {"note": 0, "velocity": 0, "duration": 169}, {"note": 74, "velocity": 127, "duration": 200}, {"note": 73, "velocity": 127, "duration": 193}, {"note": 66, "velocity": 112, "duration": 206}, {"note": 69, "velocity": 100, "duration": 194}, {"note": 71, "velocity": 99, "duration": 46}, {"note": 0, "velocity": 0, "duration": 194}, {"note": 71, "velocity": 117, "duration": 440}, {"note": 0, "velocity": 0, "duration": 520}, {"note": 76, "velocity": 127, "duration": 102}, {"note": 0, "velocity": 0, "duration": 138}, {"note": 76, "velocity": 127, "duration": 91}, {"note": 0, "velocity": 0, "duration": 149}, {"note": 76, "velocity": 127, "duration": 89}, {"note": 0, "velocity": 0, "duration": 151}, {"note": 74, "velocity": 122, "duration": 79}, {"note": 0, "velocity": 0, "duration": 161}, {"note": 78, "velocity": 117, "duration": 144}, {"note": 0, "velocity": 0, "duration": 96}, {"note": 76, "velocity": 127, "duration": 58}, {"note": 0, "velocity": 0, "duration": 62}, {"note": 76, "velocity": 122, "duration": 191}, {"note": 0, "velocity": 0, "duration": 169}, {"note": 74, "velocity": 127, "duration": 200}, {"note": 73, "velocity": 127, "duration": 193}, {"note": 66, "velocity": 112, "duration": 874}, {"note": 0, "velocity": 0, "duration": 326}, {"note": 69, "velocity": 122, "duration": 75}, {"note": 0, "velocity": 0, "duration": 165}, {"note": 74, "velocity": 122, "duration": 238}, {"note": 71, "velocity": 127, "duration": 1218}]]