[[{"note": 72, "velocity": 81, "duration": 110}, {"note": 0, "velocity": 0, "duration": 130}, {"note": 72, "velocity": 82, "duration": 114}, {"note": 0, "velocity": 0, "duration": 126}, {"note": 72, "velocity": 93, "duration": 338}, {"note": 0, "velocity": 0, "duration": 142}, {"note": 70, "velocity": 72, "duration": 168}, {"note": 72, "velocity": 96, "duration": 198}, {"note": 0, "velocity": 0, "duration": 282}, {"note": 67, "velocity": 77, "duration": 138}, {"note": 0, "velocity": 0, "duration": 342}, {"note": 67, "velocity": 83, "duration": 156}, {"note": 65, "velocity": 81, "duration": 419}, {"note": 63, "velocity": 85, "duration": 288}, {"note": 0, "velocity": 0, "duration": 192}, {"note": 67, "velocity": 93, "duration": 1358}, {"note": 0, "velocity": 0, "duration": 2962}, {"note": 72, "velocity": 100, "duration": 111}, {"note": 0, "velocity": 0, "duration": 129}, {"note": 72, "velocity": 77, "duration": 119}, {"note": 0, "velocity": 0, "duration": 121}, {"note": 72, "velocity": 100, "duration": 218}, {"note": 0, "velocity": 0, "duration": 262}, {"note": 72, "velocity": 93, "duration": 121}, {"note": 70, "velocity": 88, "duration": 132}, {"note": 72, "velocity": 95, "duration": 226}, {"note": 0, "velocity": 0, "duration": 254}, {"note": 60, "velocity": 90, "duration": 197}, {"note": 0, "velocity": 0, "duration": 283}, {"note": 60, "velocity": 92, "duration": 261}, {"note": 0, "velocity": 0, "duration": 219}, {"note": 63, "velocity": 79, "duration": 103}, {"note": 0, "velocity": 0, "duration": 137}, {"note": 67, "velocity": 81, "duration": 285}, {"note": 0, "velocity": 0, "duration": 435}, {"note": 65, "velocity": 77, "duration": 549}, {"note": 0, "velocity": 0, "duration": 3291}, {"note": 65, "velocity": 93, "duration": 107}, {"note": 0, "velocity": 0, "duration": 133}, {"note": 65, "velocity": 75, "duration": 105}, {"note": 0, "velocity": 0, "duration": 135}, {"note": 65, "velocity": 86, "duration": 314}, {"note": 0, "velocity": 0, "duration": 166}, {"note": 65, "velocity": 68, "duration": 187}, {"note": 0, "velocity": 0, "duration": 293}, {"note": 65, "velocity": 78, "duration": 214}, {"note": 0, "velocity": 0, "duration": 266}, {"note": 63, "velocity": 89, "duration": 242}, {"note": 0, "velocity": 0, "duration": 238}, {"note": 63, "velocity": 107, "duration": 289}, {"note": 0, "velocity": 0, "duration": 191}, {"note": 70, "velocity": 107, "duration": 126}, {"note": 65, "velocity": 88, "duration": 119}, {"note": 0, "velocity": 0, "duration": 121}, {"note": 67, "velocity": 97, "duration": 1181}, {"note": 0, "velocity": 0, "duration": 2179}, {"note": 60, "velocity": 96, "duration": 172}, {"note": 63, "velocity": 92, "duration": 184}, {"note": 65, "velocity": 96, "duration": 1100}, {"note": 0, "velocity": 0, "duration": 340}, {"note": 65, "velocity": 86, "duration": 158}, {"note": 67, "velocity": 85, "duration": 157}, {"note": 70, "velocity": 86, "duration": 265}, {"note": 0, "velocity": 0, "duration": 215}, {"note": 67, "velocity": 88, "duration": 282}, {"note": 0, "velocity": 0, "duration": 198}, {"note": 67, "velocity": 99, "duration": 214}, {"note": 65, "velocity": 79, "duration": 344}, {"note": 0, "velocity": 0, "duration": 136}, {"note": 63, "velocity": 79, "duration": 335}, {"note": 0, "velocity": 0, "duration": 385}, {"note": 60, "velocity": 74, "duration": 1489}, {"note": 0, "velocity": 0, "duration": 2351}, {"note": 72, "velocity": 89, "duration": 126}, {"note": 70, "velocity": 86, "duration": 130}, {"note": 72, "velocity": 96, "duration": 185}, {"note": 0, "velocity": 0, "duration": 295}, {"note": 72, "velocity": 99, "duration": 161}, {"note": 70, "velocity": 95, "duration": 129}, {"note": 72, "velocity": 100, "duration": 271}, {"note": 0, "velocity": 0, "duration": 209}, {"note": 67, "velocity": 86, "duration": 109}, {"note": 0, "velocity": 0, "duration": 131}, {"note": 67, "velocity": 89, "duration": 96}, {"note": 0, "velocity": 0, "duration": 144}, {"note": 67, "velocity": 99, "duration": 244}, {"note": 0, "velocity": 0, "duration": 236}, {"note": 65, "velocity": 93, "duration": 153}, {"note": 63, "velocity": 99, "duration": 267}, {"note": 0, "velocity": 0, "duration": 213}, {"note": 67, "velocity": 97, "duration": 1090}, {"note": 0, "velocity": 0, "duration": 2990}, {"note": 72, "velocity": 88, "duration": 108}, {"note": 0, "velocity": 0, "duration": 132}, {"note": 70, "velocity": 81, "duration": 128}, {"note": 72, "velocity": 95, "duration": 175}, {"note": 0, "velocity": 0, "duration": 305}, {"note": 72, "velocity": 90, "duration": 199}, {"note": 70, "velocity": 89, "duration": 150}, {"note": 72, "velocity": 97, "duration": 171}, {"note": 0, "velocity": 0, "duration": 309}, {"note": 60, "velocity": 93, "duration": 106}, {"note": 0, "velocity": 0, "duration": 134}, {"note": 60, "velocity": 78, "duration": 111}, {"note": 0, "velocity": 0, "duration": 129}, {"note": 60, "velocity": 85, "duration": 207}, {"note": 70, "velocity": 93, "duration": 220}, {"note": 0, "velocity": 0, "duration": 260}, {"note": 67, "velocity": 92, "duration": 289}, {"note": 65, "velocity": 76, "duration": 1579}, {"note": 0, "velocity": 0, "duration": 2741}, {"note": 65, "velocity": 99, "duration": 110}, {"note": 0, "velocity": 0, "duration": 130}, {"note": 65, "velocity": 76, "duration": 104}, {"note": 0, "velocity": 0, "duration": 136}, {"note": 65, "velocity": 95, "duration": 232}, {"note": 0, "velocity": 0, "duration": 248}, {"note": 65, "velocity": 102, "duration": 272}, {"note": 0, "velocity": 0, "duration": 208}, {"note": 65, "velocity": 102, "duration": 199}, {"note": 0, "velocity": 0, "duration": 281}, {"note": 63, "velocity": 90, "duration": 324}, {"note": 0, "velocity": 0, "duration": 156}, {"note": 63, "velocity": 97, "duration": 441}, {"note": 60, "velocity": 88, "duration": 280}, {"note": 0, "velocity": 0, "duration": 200}, {"note": 70, "velocity": 117, "duration": 301}, {"note": 0, "velocity": 0, "duration": 419}, {"note": 67, "velocity": 96, "duration": 1535}, {"note": 0, "velocity": 0, "duration": 1105}, {"note": 60, "velocity": 92, "duration": 155}, {"note": 63, "velocity": 79, "duration": 201}, {"note": 65, "velocity": 89, "duration": 321}, {"note": 0, "velocity": 0, "duration": 159}, {"note": 65, "velocity": 97, "duration": 770}, {"note": 0, "velocity": 0, "duration": 430}, {"note": 67, "velocity": 79, "duration": 146}, {"note": 70, "velocity": 93, "duration": 274}, {"note": 0, "velocity": 0, "duration": 206}, {"note": 67, "velocity": 89, "duration": 182}, {"note": 0, "velocity": 0, "duration": 298}, {"note": 67, "velocity": 96, "duration": 268}, {"note": 0, "velocity": 0, "duration": 212}, {"note": 65, "velocity": 97, "duration": 204}, {"note": 0, "velocity": 0, "duration": 276}, {"note": 67, "velocity": 95, "duration": 306}, {"note": 0, "velocity": 0, "duration": 174}, {"note": 60, "velocity": 81, "duration": 1374}, {"note": 0, "velocity": 0, "duration": 1986}, {"note": 72, "velocity": 112, "duration": 280}, {"note": 0, "velocity": 0, "duration": 200}, {"note": 79, "velocity": 97, "duration": 97}, {"note": 0, "velocity": 0, "duration": 143}, {"note": 79, "velocity": 83, "duration": 89}, {"note": 0, "velocity": 0, "duration": 151}, {"note": 79, "velocity": 99, "duration": 257}, {"note": 0, "velocity": 0, "duration": 223}, {"note": 72, "velocity": 107, "duration": 300}, {"note": 0, "velocity": 0, "duration": 180}, {"note": 77, "velocity": 127, "duration": 1136}, {"note": 0, "velocity": 0, "duration": 784}, {"note": 72, "velocity": 107, "duration": 249}, {"note": 0, "velocity": 0, "duration": 231}, {"note": 77, "velocity": 107, "duration": 100}, {"note": 0, "velocity": 0, "duration": 140}, {"note": 77, "velocity": 92, "duration": 92}, {"note": 0, "velocity": 0, "duration": 148}, {"note": 77, "velocity": 100, "duration": 211}, {"note": 0, "velocity": 0, "duration": 269}, {"note": 72, "velocity": 100, "duration": 219}, {"note": 0, "velocity": 0, "duration": 261}, {"note": 75, "velocity": 127, "duration": 188}, {"note": 72, "velocity": 99, "duration": 766}, {"note": 0, "velocity": 0, "duration": 914}, {"note": 70, "velocity": 117, "duration": 191}, {"note": 0, "velocity": 0, "duration": 289}, {"note": 70, "velocity": 97, "duration": 137}, {"note": 0, "velocity": 0, "duration": 343}, {"note": 70, "velocity": 102, "duration": 162}, {"note": 0, "velocity": 0, "duration": 318}, {"note": 70, "velocity": 127, "duration": 179}, {"note": 72, "velocity": 92, "duration": 98}, {"note": 0, "velocity": 0, "duration": 142}, {"note": 75, "velocity": 117, "duration": 411}, {"note": 0, "velocity": 0, "duration": 309}, {"note": 77, "velocity": 96, "duration": 110}, {"note": 0, "velocity": 0, "duration": 130}, {"note": 75, "velocity": 112, "duration": 436}, {"note": 0, "velocity": 0, "duration": 517}, {"note": 77, "velocity": 102, "duration": 102}, {"note": 0, "velocity": 0, "duration": 131}, {"note": 77, "velocity": 93, "duration": 164}, {"note": 0, "velocity": 0, "duration": 282}, {"note": 77, "velocity": 95, "duration": 93}, {"note": 0, "velocity": 0, "duration": 171}, {"note": 77, "velocity": 99, "duration": 115}, {"note": 0, "velocity": 0, "duration": 190}, {"note": 75, "velocity": 122, "duration": 115}, {"note": 0, "velocity": 0, "duration": 245}, {"note": 79, "velocity": 100, "duration": 102}, {"note": 0, "velocity": 0, "duration": 179}, {"note": 77, "velocity": 127, "duration": 840}, {"note": 0, "velocity": 0, "duration": 1118}, {"note": 72, "velocity": 112, "duration": 280}, {"note": 0, "velocity": 0, "duration": 200}, {"note": 79, "velocity": 97, "duration": 97}, {"note": 0, "velocity": 0, "duration": 143}, {"note": 79, "velocity": 83, "duration": 89}, {"note": 0, "velocity": 0, "duration": 151}, {"note": 79, "velocity": 99, "duration": 257}, {"note": 0, "velocity": 0, "duration": 223}, {"note": 72, "velocity": 107, "duration": 300}, {"note": 0, "velocity": 0, "duration": 180}, {"note": 77, "velocity": 127, "duration": 1136}, {"note": 0, "velocity": 0, "duration": 784}, {"note": 72, "velocity": 107, "duration": 249}, {"note": 0, "velocity": 0, "duration": 231}, {"note": 77, "velocity": 107, "duration": 100}, {"note": 0, "velocity": 0, "duration": 140}, {"note": 77, "velocity": 92, "duration": 92}, {"note": 0, "velocity": 0, "duration": 148}, {"note": 77, "velocity": 100, "duration": 211}, {"note": 0, "velocity": 0, "duration": 269}, {"note": 72, "velocity": 100, "duration": 219}, {"note": 0, "velocity": 0, "duration": 261}, {"note": 75, "velocity": 127, "duration": 188}, {"note": 72, "velocity": 99, "duration": 766}, {"note": 0, "velocity": 0, "duration": 914}, {"note": 70, "velocity": 117, "duration": 191}, {"note": 70, "velocity": 107, "duration": 181}, {"note": 0, "velocity": 0, "duration": 299}, {"note": 70, "velocity": 117, "duration": 120}, {"note": 70, "velocity": 102, "duration": 162}, {"note": 0, "velocity": 0, "duration": 318}, {"note": 72, "velocity": 92, "duration": 480}, {"note": 75, "velocity": 117, "duration": 237}, {"note": 75, "velocity": 102, "duration": 241}, {"note": 0, "velocity": 0, "duration": 239}, {"note": 77, "velocity": 95, "duration": 158}, {"note": 75, "velocity": 112, "duration": 436}, {"note": 0, "velocity": 0, "duration": 524}, {"note": 77, "velocity": 112, "duration": 100}, {"note": 0, "velocity": 0, "duration": 140}, {"note": 77, "velocity": 83, "duration": 87}, {"note": 0, "velocity": 0, "duration": 153}, {"note": 77, "velocity": 96, "duration": 131}, {"note": 79, "velocity": 97, "duration": 139}, {"note": 77, "velocity": 112, "duration": 142}, {"note": 0, "velocity": 0, "duration": 338}, {"note": 75, "velocity": 107, "duration": 155}, {"note": 70, "velocity": 86, "duration": 150}, {"note": 0, "velocity": 0, "duration": 330}, {"note": 75, "velocity": 107, "duration": 291}, {"note": 72, "velocity": 68, "duration": 1963}, {"note": 0, "velocity": 0, "duration": 30677}, {"note": 72, "velocity": 89, "duration": 126}, {"note": 70, "velocity": 86, "duration": 130}, {"note": 72, "velocity": 96, "duration": 185}, {"note": 0, "velocity": 0, "duration": 295}, {"note": 72, "velocity": 99, "duration": 161}, {"note": 70, "velocity": 95, "duration": 129}, {"note": 72, "velocity": 100, "duration": 271}, {"note": 0, "velocity": 0, "duration": 209}, {"note": 67, "velocity": 86, "duration": 109}, {"note": 0, "velocity": 0, "duration": 131}, {"note": 67, "velocity": 89, "duration": 96}, {"note": 0, "velocity": 0, "duration": 144}, {"note": 67, "velocity": 99, "duration": 244}, {"note": 0, "velocity": 0, "duration": 236}, {"note": 65, "velocity": 93, "duration": 153}, {"note": 63, "velocity": 99, "duration": 267}, {"note": 0, "velocity": 0, "duration": 213}, {"note": 67, "velocity": 97, "duration": 1090}, {"note": 0, "velocity": 0, "duration": 2990}, {"note": 72, "velocity": 88, "duration": 108}, {"note": 0, "velocity": 0, "duration": 132}, {"note": 70, "velocity": 81, "duration": 128}, {"note": 72, "velocity": 95, "duration": 175}, {"note": 0, "velocity": 0, "duration": 305}, {"note": 72, "velocity": 90, "duration": 199}, {"note": 70, "velocity": 89, "duration": 150}, {"note": 72, "velocity": 97, "duration": 171}, {"note": 0, "velocity": 0, "duration": 309}, {"note": 60, "velocity": 93, "duration": 106}, {"note": 0, "velocity": 0, "duration": 134}, {"note": 60, "velocity": 78, "duration": 111}, {"note": 0, "velocity": 0, "duration": 129}, {"note": 60, "velocity": 85, "duration": 207}, {"note": 70, "velocity": 93, "duration": 220}, {"note": 0, "velocity": 0, "duration": 260}, {"note": 67, "velocity": 92, "duration": 289}, {"note": 65, "velocity": 76, "duration": 1579}, {"note": 0, "velocity": 0, "duration": 2741}, {"note": 65, "velocity": 99, "duration": 110}, {"note": 0, "velocity": 0, "duration": 130}, {"note": 65, "velocity": 76, "duration": 104}, {"note": 0, "velocity": 0, "duration": 136}, {"note": 65, "velocity": 95, "duration": 232}, {"note": 0, "velocity": 0, "duration": 248}, {"note": 65, "velocity": 102, "duration": 272}, {"note": 0, "velocity": 0, "duration": 208}, {"note": 65, "velocity": 102, "duration": 199}, {"note": 0, "velocity": 0, "duration": 281}, {"note": 63, "velocity": 90, "duration": 324}, {"note": 0, "velocity": 0, "duration": 156}, {"note": 63, "velocity": 97, "duration": 441}, {"note": 60, "velocity": 88, "duration": 280}, {"note": 0, "velocity": 0, "duration": 200}, {"note": 70, "velocity": 117, "duration": 301}, {"note": 0, "velocity": 0, "duration": 419}, {"note": 67, "velocity": 96, "duration": 1535}, {"note": 0, "velocity": 0, "duration": 1105}, {"note": 60, "velocity": 92, "duration": 155}, {"note": 63, "velocity": 79, "duration": 201}, {"note": 65, "velocity": 89, "duration": 321}, {"note": 0, "velocity": 0, "duration": 159}, {"note": 65, "velocity": 97, "duration": 770}, {"note": 0, "velocity": 0, "duration": 430}, {"note": 67, "velocity": 79, "duration": 146}, {"note": 70, "velocity": 93, "duration": 274}, {"note": 0, "velocity": 0, "duration": 206}, {"note": 67, "velocity": 89, "duration": 182}, {"note": 0, "velocity": 0, "duration": 298}, {"note": 67, "velocity": 96, "duration": 268}, {"note": 0, "velocity": 0, "duration": 212}, {"note": 65, "velocity": 97, "duration": 204}, {"note": 0, "velocity": 0, "duration": 276}, {"note": 67, "velocity": 95, "duration": 306}, {"note": 0, "velocity": 0, "duration": 174}, {"note": 60, "velocity": 81, "duration": 1374}, {"note": 0, "velocity": 0, "duration": 1986}, {"note": 72, "velocity": 112, "duration": 280}, {"note": 0, "velocity": 0, "duration": 200}, {"note": 79, "velocity": 97, "duration": 97}, {"note": 0, "velocity": 0, "duration": 143}, {"note": 79, "velocity": 83, "duration": 89}, {"note": 0, "velocity": 0, "duration": 151}, {"note": 79, "velocity": 99, "duration": 257}, {"note": 0, "velocity": 0, "duration": 223}, {"note": 72, "velocity": 107, "duration": 300}, {"note": 0, "velocity": 0, "duration": 180}, {"note": 77, "velocity": 127, "duration": 1136}, {"note": 0, "velocity": 0, "duration": 784}, {"note": 72, "velocity": 107, "duration": 249}, {"note": 0, "velocity": 0, "duration": 231}, {"note": 77, "velocity": 107, "duration": 100}, {"note": 0, "velocity": 0, "duration": 140}, {"note": 77, "velocity": 92, "duration": 92}, {"note": 0, "velocity": 0, "duration": 148}, {"note": 77, "velocity": 100, "duration": 211}, {"note": 0, "velocity": 0, "duration": 269}, {"note": 72, "velocity": 100, "duration": 219}, {"note": 0, "velocity": 0, "duration": 261}, {"note": 75, "velocity": 127, "duration": 188}, {"note": 72, "velocity": 99, "duration": 766}, {"note": 0, "velocity": 0, "duration": 914}, {"note": 70, "velocity": 117, "duration": 191}, {"note": 0, "velocity": 0, "duration": 289}, {"note": 70, "velocity": 97, "duration": 137}, {"note": 0, "velocity": 0, "duration": 343}, {"note": 70, "velocity": 102, "duration": 162}, {"note": 0, "velocity": 0, "duration": 318}, {"note": 70, "velocity": 127, "duration": 179}, {"note": 72, "velocity": 92, "duration": 98}, {"note": 0, "velocity": 0, "duration": 142}, {"note": 75, "velocity": 117, "duration": 411}, {"note": 0, "velocity": 0, "duration": 309}, {"note": 77, "velocity": 96, "duration": 110}, {"note": 0, "velocity": 0, "duration": 130}, {"note": 75, "velocity": 112, "duration": 436}, {"note": 0, "velocity": 0, "duration": 517}, {"note": 77, "velocity": 102, "duration": 102}, {"note": 0, "velocity": 0, "duration": 131}, {"note": 77, "velocity": 93, "duration": 164}, {"note": 0, "velocity": 0, "duration": 282}, {"note": 77, "velocity": 95, "duration": 93}, {"note": 0, "velocity": 0, "duration": 171}, {"note": 77, "velocity": 99, "duration": 115}, {"note": 0, "velocity": 0, "duration": 190}, {"note": 75, "velocity": 122, "duration": 115}, {"note": 0, "velocity": 0, "duration": 245}, {"note": 79, "velocity": 100, "duration": 102}, {"note": 0, "velocity": 0, "duration": 179}, {"note": 77, "velocity": 127, "duration": 840}, {"note": 0, "velocity": 0, "duration": 1118}, {"note": 72, "velocity": 112, "duration": 280}, {"note": 0, "velocity": 0, "duration": 200}, {"note": 79, "velocity": 97, "duration": 97}, {"note": 0, "velocity": 0, "duration": 143}, {"note": 79, "velocity": 83, "duration": 89}, {"note": 0, "velocity": 0, "duration": 151}, {"note": 79, "velocity": 99, "duration": 257}, {"note": 0, "velocity": 0, "duration": 223}, {"note": 72, "velocity": 107, "duration": 300}, {"note": 0, "velocity": 0, "duration": 180}, {"note": 77, "velocity": 127, "duration": 1136}, {"note": 0, "velocity": 0, "duration": 784}, {"note": 72, "velocity": 107, "duration": 249}, {"note": 0, "velocity": 0, "duration": 231}, {"note": 77, "velocity": 107, "duration": 100}, {"note": 0, "velocity": 0, "duration": 140}, {"note": 77, "velocity": 92, "duration": 92}, {"note": 0, "velocity": 0, "duration": 148}, {"note": 77, "velocity": 100, "duration": 211}, {"note": 0, "velocity": 0, "duration": 269}, {"note": 72, "velocity": 100, "duration": 219}, {"note": 0, "velocity": 0, "duration": 261}, {"note": 75, "velocity": 127, "duration": 188}, {"note": 72, "velocity": 99, "duration": 766}, {"note": 0, "velocity": 0, "duration": 914}, {"note": 70, "velocity": 117, "duration": 191}, {"note": 70, "velocity": 107, "duration": 181}, {"note": 0, "velocity": 0, "duration": 299}, {"note": 70, "velocity": 117, "duration": 120}, {"note": 70, "velocity": 102, "duration": 162}, {"note": 0, "velocity": 0, "duration": 318}, {"note": 72, "velocity": 92, "duration": 480}, {"note": 75, "velocity": 117, "duration": 237}, {"note": 75, "velocity": 102, "duration": 241}, {"note": 0, "velocity": 0, "duration": 239}, {"note": 77, "velocity": 95, "duration": 158}, {"note": 75, "velocity": 112, "duration": 436}, {"note": 0, "velocity": 0, "duration": 524}, {"note": 77, "velocity": 112, "duration": 100}, {"note": 0, "velocity": 0, "duration": 140}, {"note": 77, "velocity": 83, "duration": 87}, {"note": 0, "velocity": 0, "duration": 153}, {"note": 77, "velocity": 96, "duration": 131}, {"note": 79, "velocity": 97, "duration": 139}, {"note": 77, "velocity": 112, "duration": 142}, {"note": 0, "velocity": 0, "duration": 338}, {"note": 75, "velocity": 107, "duration": 155}, {"note": 70, "velocity": 86, "duration": 150}, {"note": 0, "velocity": 0, "duration": 210}, {"note": 75, "velocity": 107, "duration": 291}, {"note": 72, "velocity": 103, "duration": 1319}, {"note": 0, "velocity": 0, "duration": 275}, {"note": 72, "velocity": 112, "duration": 280}, {"note": 0, "velocity": 0, "duration": 200}, {"note": 79, "velocity": 97, "duration": 97}, {"note": 0, "velocity": 0, "duration": 143}, {"note": 79, "velocity": 83, "duration": 89}, {"note": 0, "velocity": 0, "duration": 151}, {"note": 79, "velocity": 99, "duration": 257}, {"note": 0, "velocity": 0, "duration": 223}, {"note": 72, "velocity": 107, "duration": 300}, {"note": 0, "velocity": 0, "duration": 180}, {"note": 77, "velocity": 127, "duration": 1136}, {"note": 0, "velocity": 0, "duration": 784}, {"note": 72, "velocity": 107, "duration": 249}, {"note": 0, "velocity": 0, "duration": 231}, {"note": 77, "velocity": 107, "duration": 100}, {"note": 0, "velocity": 0, "duration": 140}, {"note": 77, "velocity": 92, "duration": 92}, {"note": 0, "velocity": 0, "duration": 148}, {"note": 77, "velocity": 100, "duration": 211}, {"note": 0, "velocity": 0, "duration": 269}, {"note": 72, "velocity": 100, "duration": 219}, {"note": 0, "velocity": 0, "duration": 261}, {"note": 75, "velocity": 127, "duration": 188}, {"note": 72, "velocity": 99, "duration": 766}, {"note": 0, "velocity": 0, "duration": 914}, {"note": 70, "velocity": 117, "duration": 191}, {"note": 0, "velocity": 0, "duration": 289}, {"note": 70, "velocity": 97, "duration": 137}, {"note": 0, "velocity": 0, "duration": 343}, {"note": 70, "velocity": 102, "duration": 162}, {"note": 0, "velocity": 0, "duration": 318}, {"note": 70, "velocity": 127, "duration": 179}, {"note": 72, "velocity": 92, "duration": 98}, {"note": 0, "velocity": 0, "duration": 142}, {"note": 75, "velocity": 117, "duration": 411}, {"note": 0, "velocity": 0, "duration": 309}, {"note": 77, "velocity": 96, "duration": 110}, {"note": 0, "velocity": 0, "duration": 130}, {"note": 75, "velocity": 112, "duration": 436}, {"note": 0, "velocity": 0, "duration": 517}, {"note": 77, "velocity": 102, "duration": 102}, {"note": 0, "velocity": 0, "duration": 131}, {"note": 77, "velocity": 93, "duration": 164}, {"note": 0, "velocity": 0, "duration": 282}, {"note": 77, "velocity": 95, "duration": 93}, {"note": 0, "velocity": 0, "duration": 171}, {"note": 77, "velocity": 99, "duration": 115}, {"note": 0, "velocity": 0, "duration": 190}, {"note": 75, "velocity": 122, "duration": 115}, {"note": 0, "velocity": 0, "duration": 245}, {"note": 79, "velocity": 100, "duration": 102}, {"note": 0, "velocity": 0, "duration": 179}, {"note": 77, "velocity": 127, "duration": 840}, {"note": 0, "velocity": 0, "duration": 1118}, {"note": 72, "velocity": 112, "duration": 280}, {"note": 0, "velocity": 0, "duration": 200}, {"note": 79, "velocity": 97, "duration": 97}, {"note": 0, "velocity": 0, "duration": 143}, {"note": 79, "velocity": 83, "duration": 89}, {"note": 0, "velocity": 0, "duration": 151}, {"note": 79, "velocity": 99, "duration": 257}, {"note": 0, "velocity": 0, "duration": 223}, {"note": 72, "velocity": 107, "duration": 300}, {"note": 0, "velocity": 0, "duration": 180}, {"note": 77, "velocity": 127, "duration": 1136}, {"note": 0, "velocity": 0, "duration": 784}, {"note": 72, "velocity": 107, "duration": 249}, {"note": 0, "velocity": 0, "duration": 231}, {"note": 77, "velocity": 107, "duration": 100}, {"note": 0, "velocity": 0, "duration": 140}, {"note": 77, "velocity": 92, "duration": 92}, {"note": 0, "velocity": 0, "duration": 148}, {"note": 77, "velocity": 100, "duration": 211}, {"note": 0, "velocity": 0, "duration": 269}, {"note": 72, "velocity": 100, "duration": 219}, {"note": 0, "velocity": 0, "duration": 261}, {"note": 75, "velocity": 127, "duration": 188}, {"note": 72, "velocity": 99, "duration": 766}, {"note": 0, "velocity": 0, "duration": 914}, {"note": 70, "velocity": 117, "duration": 191}, {"note": 70, "velocity": 107, "duration": 181}, {"note": 0, "velocity": 0, "duration": 299}, {"note": 70, "velocity": 117, "duration": 120}, {"note": 70, "velocity": 102, "duration": 162}, {"note": 0, "velocity": 0, "duration": 318}, {"note": 72, "velocity": 92, "duration": 480}, {"note": 75, "velocity": 117, "duration": 237}, {"note": 75, "velocity": 102, "duration": 241}, {"note": 0, "velocity": 0, "duration": 239}, {"note": 77, "velocity": 95, "duration": 158}, {"note": 75, "velocity": 112, "duration": 436}, {"note": 0, "velocity": 0, "duration": 524}, {"note": 77, "velocity": 112, "duration": 100}, {"note": 0, "velocity": 0, "duration": 140}, {"note": 77, "velocity": 83, "duration": 87}, {"note": 0, "velocity": 0, "duration": 153}, {"note": 77, "velocity": 96, "duration": 131}, {"note": 79, "velocity": 97, "duration": 139}, {"note": 77, "velocity": 112, "duration": 142}, {"note": 0, "velocity": 0, "duration": 338}, {"note": 75, "velocity": 107, "duration": 155}, {"note": 70, "velocity": 86, "duration": 150}, {"note": 75, "velocity": 107, "duration": 291}, {"note": 72, "velocity": 103, "duration": 1963}, {"note": 0, "velocity": 0, "duration": 1551}, {"note": 77, "velocity": 97, "duration": 338}, {"note": 0, "velocity": 0, "duration": 142}, {"note": 77, "velocity": 95, "duration": 328}, {"note": 0, "velocity": 0, "duration": 152}, {"note": 77, "velocity": 112, "duration": 353}, {"note": 0, "velocity": 0, "duration": 127}, {"note": 79, "velocity": 97, "duration": 411}, {"note": 0, "velocity": 0, "duration": 309}, {"note": 77, "velocity": 102, "duration": 660}, {"note": 75, "velocity": 96, "duration": 488}, {"note": 0, "velocity": 0, "duration": 254}, {"note": 70, "velocity": 99, "duration": 1560}, {"note": 0, "velocity": 0, "duration": 772}, {"note": 72, "velocity": 100, "duration": 3454}]]