[[{"note": 68, "velocity": 107, "duration": 107}, {"note": 73, "velocity": 83, "duration": 56}, {"note": 0, "velocity": 0, "duration": 64}, {"note": 73, "velocity": 93, "duration": 48}, {"note": 0, "velocity": 0, "duration": 72}, {"note": 73, "velocity": 99, "duration": 43}, {"note": 0, "velocity": 0, "duration": 77}, {"note": 73, "velocity": 112, "duration": 222}, {"note": 71, "velocity": 96, "duration": 112}, {"note": 73, "velocity": 102, "duration": 67}, {"note": 73, "velocity": 112, "duration": 603}, {"note": 0, "velocity": 0, "duration": 357}, {"note": 71, "velocity": 92, "duration": 53}, {"note": 0, "velocity": 0, "duration": 67}, {"note": 71, "velocity": 71, "duration": 50}, {"note": 0, "velocity": 0, "duration": 70}, {"note": 71, "velocity": 71, "duration": 43}, {"note": 0, "velocity": 0, "duration": 77}, {"note": 71, "velocity": 73, "duration": 47}, {"note": 0, "velocity": 0, "duration": 73}, {"note": 71, "velocity": 90, "duration": 144}, {"note": 0, "velocity": 0, "duration": 96}, {"note": 66, "velocity": 89, "duration": 166}, {"note": 0, "velocity": 0, "duration": 74}, {"note": 68, "velocity": 86, "duration": 206}, {"note": 0, "velocity": 0, "duration": 754}, {"note": 68, "velocity": 92, "duration": 129}, {"note": 0, "velocity": 0, "duration": 111}, {"note": 73, "velocity": 93, "duration": 55}, {"note": 0, "velocity": 0, "duration": 65}, {"note": 73, "velocity": 93, "duration": 51}, {"note": 0, "velocity": 0, "duration": 69}, {"note": 73, "velocity": 102, "duration": 160}, {"note": 0, "velocity": 0, "duration": 80}, {"note": 68, "velocity": 92, "duration": 41}, {"note": 0, "velocity": 0, "duration": 79}, {"note": 68, "velocity": 78, "duration": 49}, {"note": 0, "velocity": 0, "duration": 71}, {"note": 68, "velocity": 85, "duration": 221}, {"note": 0, "velocity": 0, "duration": 139}, {"note": 66, "velocity": 74, "duration": 62}, {"note": 66, "velocity": 79, "duration": 299}, {"note": 0, "velocity": 0, "duration": 181}, {"note": 66, "velocity": 89, "duration": 141}, {"note": 0, "velocity": 0, "duration": 99}, {"note": 66, "velocity": 90, "duration": 51}, {"note": 0, "velocity": 0, "duration": 69}, {"note": 66, "velocity": 88, "duration": 63}, {"note": 71, "velocity": 89, "duration": 165}, {"note": 0, "velocity": 0, "duration": 75}, {"note": 68, "velocity": 96, "duration": 88}, {"note": 66, "velocity": 71, "duration": 90}, {"note": 68, "velocity": 97, "duration": 634}, {"note": 0, "velocity": 0, "duration": 326}, {"note": 68, "velocity": 88, "duration": 209}, {"note": 73, "velocity": 90, "duration": 60}, {"note": 73, "velocity": 78, "duration": 82}, {"note": 76, "velocity": 76, "duration": 162}, {"note": 0, "velocity": 0, "duration": 78}, {"note": 75, "velocity": 112, "duration": 108}, {"note": 71, "velocity": 73, "duration": 122}, {"note": 73, "velocity": 93, "duration": 711}, {"note": 0, "velocity": 0, "duration": 249}, {"note": 71, "velocity": 90, "duration": 49}, {"note": 0, "velocity": 0, "duration": 71}, {"note": 71, "velocity": 74, "duration": 49}, {"note": 0, "velocity": 0, "duration": 71}, {"note": 71, "velocity": 88, "duration": 56}, {"note": 0, "velocity": 0, "duration": 64}, {"note": 68, "velocity": 100, "duration": 53}, {"note": 0, "velocity": 0, "duration": 67}, {"note": 66, "velocity": 85, "duration": 81}, {"note": 68, "velocity": 95, "duration": 79}, {"note": 70, "velocity": 89, "duration": 168}, {"note": 0, "velocity": 0, "duration": 72}, {"note": 68, "velocity": 90, "duration": 541}, {"note": 0, "velocity": 0, "duration": 419}, {"note": 68, "velocity": 112, "duration": 51}, {"note": 0, "velocity": 0, "duration": 69}, {"note": 73, "velocity": 96, "duration": 102}, {"note": 0, "velocity": 0, "duration": 138}, {"note": 73, "velocity": 93, "duration": 39}, {"note": 0, "velocity": 0, "duration": 81}, {"note": 73, "velocity": 99, "duration": 85}, {"note": 0, "velocity": 0, "duration": 155}, {"note": 68, "velocity": 100, "duration": 46}, {"note": 0, "velocity": 0, "duration": 74}, {"note": 68, "velocity": 92, "duration": 47}, {"note": 0, "velocity": 0, "duration": 73}, {"note": 68, "velocity": 100, "duration": 280}, {"note": 0, "velocity": 0, "duration": 200}, {"note": 66, "velocity": 85, "duration": 284}, {"note": 0, "velocity": 0, "duration": 76}, {"note": 59, "velocity": 75, "duration": 59}, {"note": 0, "velocity": 0, "duration": 61}, {"note": 63, "velocity": 86, "duration": 54}, {"note": 0, "velocity": 0, "duration": 66}, {"note": 63, "velocity": 77, "duration": 51}, {"note": 0, "velocity": 0, "duration": 69}, {"note": 63, "velocity": 99, "duration": 83}, {"note": 64, "velocity": 73, "duration": 114}, {"note": 66, "velocity": 95, "duration": 190}, {"note": 64, "velocity": 85, "duration": 74}, {"note": 0, "velocity": 0, "duration": 166}, {"note": 63, "velocity": 74, "duration": 68}, {"note": 61, "velocity": 77, "duration": 636}, {"note": 0, "velocity": 0, "duration": 324}, {"note": 64, "velocity": 77, "duration": 54}, {"note": 0, "velocity": 0, "duration": 66}, {"note": 64, "velocity": 69, "duration": 51}, {"note": 0, "velocity": 0, "duration": 69}, {"note": 64, "velocity": 69, "duration": 68}, {"note": 61, "velocity": 78, "duration": 97}, {"note": 64, "velocity": 75, "duration": 136}, {"note": 0, "velocity": 0, "duration": 104}, {"note": 66, "velocity": 82, "duration": 198}, {"note": 68, "velocity": 93, "duration": 90}, {"note": 71, "velocity": 77, "duration": 125}, {"note": 66, "velocity": 81, "duration": 102}, {"note": 71, "velocity": 77, "duration": 124}, {"note": 68, "velocity": 96, "duration": 345}, {"note": 0, "velocity": 0, "duration": 135}, {"note": 73, "velocity": 112, "duration": 45}, {"note": 0, "velocity": 0, "duration": 75}, {"note": 73, "velocity": 83, "duration": 38}, {"note": 0, "velocity": 0, "duration": 82}, {"note": 73, "velocity": 97, "duration": 60}, {"note": 71, "velocity": 86, "duration": 81}, {"note": 66, "velocity": 83, "duration": 137}, {"note": 68, "velocity": 81, "duration": 108}, {"note": 70, "velocity": 86, "duration": 234}, {"note": 68, "velocity": 97, "duration": 359}, {"note": 0, "velocity": 0, "duration": 601}, {"note": 68, "velocity": 97, "duration": 158}, {"note": 0, "velocity": 0, "duration": 82}, {"note": 73, "velocity": 99, "duration": 149}, {"note": 0, "velocity": 0, "duration": 91}, {"note": 73, "velocity": 97, "duration": 137}, {"note": 0, "velocity": 0, "duration": 103}, {"note": 68, "velocity": 96, "duration": 182}, {"note": 66, "velocity": 95, "duration": 112}, {"note": 68, "velocity": 107, "duration": 149}, {"note": 0, "velocity": 0, "duration": 91}, {"note": 66, "velocity": 97, "duration": 40}, {"note": 0, "velocity": 0, "duration": 80}, {"note": 66, "velocity": 107, "duration": 179}, {"note": 0, "velocity": 0, "duration": 181}, {"note": 68, "velocity": 95, "duration": 46}, {"note": 0, "velocity": 0, "duration": 74}, {"note": 71, "velocity": 77, "duration": 40}, {"note": 0, "velocity": 0, "duration": 80}, {"note": 71, "velocity": 81, "duration": 42}, {"note": 0, "velocity": 0, "duration": 78}, {"note": 71, "velocity": 85, "duration": 47}, {"note": 0, "velocity": 0, "duration": 73}, {"note": 68, "velocity": 95, "duration": 52}, {"note": 0, "velocity": 0, "duration": 68}, {"note": 71, "velocity": 93, "duration": 90}, {"note": 0, "velocity": 0, "duration": 150}, {"note": 73, "velocity": 107, "duration": 59}, {"note": 0, "velocity": 0, "duration": 181}, {"note": 73, "velocity": 97, "duration": 784}, {"note": 0, "velocity": 0, "duration": 1136}, {"note": 73, "velocity": 112, "duration": 246}, {"note": 0, "velocity": 0, "duration": 114}, {"note": 76, "velocity": 95, "duration": 103}, {"note": 73, "velocity": 93, "duration": 130}, {"note": 0, "velocity": 0, "duration": 110}, {"note": 80, "velocity": 112, "duration": 131}, {"note": 78, "velocity": 102, "duration": 123}, {"note": 76, "velocity": 93, "duration": 355}, {"note": 0, "velocity": 0, "duration": 605}, {"note": 75, "velocity": 112, "duration": 225}, {"note": 0, "velocity": 0, "duration": 135}, {"note": 75, "velocity": 99, "duration": 43}, {"note": 0, "velocity": 0, "duration": 77}, {"note": 75, "velocity": 95, "duration": 165}, {"note": 0, "velocity": 0, "duration": 75}, {"note": 73, "velocity": 99, "duration": 103}, {"note": 71, "velocity": 86, "duration": 108}, {"note": 73, "velocity": 112, "duration": 809}, {"note": 0, "velocity": 0, "duration": 151}, {"note": 68, "velocity": 102, "duration": 105}, {"note": 73, "velocity": 93, "duration": 137}, {"note": 0, "velocity": 0, "duration": 103}, {"note": 73, "velocity": 95, "duration": 52}, {"note": 0, "velocity": 0, "duration": 68}, {"note": 73, "velocity": 102, "duration": 132}, {"note": 0, "velocity": 0, "duration": 108}, {"note": 68, "velocity": 102, "duration": 151}, {"note": 0, "velocity": 0, "duration": 89}, {"note": 66, "velocity": 102, "duration": 88}, {"note": 68, "velocity": 96, "duration": 167}, {"note": 0, "velocity": 0, "duration": 73}, {"note": 66, "velocity": 95, "duration": 54}, {"note": 0, "velocity": 0, "duration": 66}, {"note": 66, "velocity": 112, "duration": 163}, {"note": 0, "velocity": 0, "duration": 317}, {"note": 66, "velocity": 107, "duration": 49}, {"note": 0, "velocity": 0, "duration": 71}, {"note": 66, "velocity": 86, "duration": 54}, {"note": 0, "velocity": 0, "duration": 66}, {"note": 66, "velocity": 96, "duration": 80}, {"note": 64, "velocity": 82, "duration": 107}, {"note": 66, "velocity": 99, "duration": 189}, {"note": 71, "velocity": 100, "duration": 97}, {"note": 73, "velocity": 86, "duration": 93}, {"note": 68, "velocity": 107, "duration": 398}, {"note": 0, "velocity": 0, "duration": 562}, {"note": 73, "velocity": 117, "duration": 244}, {"note": 0, "velocity": 0, "duration": 116}, {"note": 76, "velocity": 99, "duration": 99}, {"note": 73, "velocity": 102, "duration": 115}, {"note": 0, "velocity": 0, "duration": 125}, {"note": 80, "velocity": 127, "duration": 107}, {"note": 78, "velocity": 99, "duration": 115}, {"note": 76, "velocity": 100, "duration": 524}, {"note": 0, "velocity": 0, "duration": 436}, {"note": 75, "velocity": 122, "duration": 241}, {"note": 0, "velocity": 0, "duration": 119}, {"note": 75, "velocity": 99, "duration": 38}, {"note": 0, "velocity": 0, "duration": 82}, {"note": 75, "velocity": 107, "duration": 161}, {"note": 0, "velocity": 0, "duration": 79}, {"note": 73, "velocity": 112, "duration": 101}, {"note": 71, "velocity": 83, "duration": 86}, {"note": 73, "velocity": 117, "duration": 624}, {"note": 0, "velocity": 0, "duration": 216}, {"note": 71, "velocity": 97, "duration": 67}, {"note": 73, "velocity": 122, "duration": 129}, {"note": 0, "velocity": 0, "duration": 111}, {"note": 76, "velocity": 100, "duration": 71}, {"note": 76, "velocity": 95, "duration": 63}, {"note": 76, "velocity": 102, "duration": 107}, {"note": 0, "velocity": 0, "duration": 133}, {"note": 73, "velocity": 100, "duration": 57}, {"note": 0, "velocity": 0, "duration": 63}, {"note": 73, "velocity": 95, "duration": 60}, {"note": 78, "velocity": 102, "duration": 83}, {"note": 80, "velocity": 112, "duration": 182}, {"note": 78, "velocity": 112, "duration": 55}, {"note": 0, "velocity": 0, "duration": 65}, {"note": 78, "velocity": 112, "duration": 181}, {"note": 0, "velocity": 0, "duration": 179}, {"note": 73, "velocity": 93, "duration": 53}, {"note": 0, "velocity": 0, "duration": 67}, {"note": 75, "velocity": 112, "duration": 48}, {"note": 0, "velocity": 0, "duration": 72}, {"note": 75, "velocity": 93, "duration": 46}, {"note": 0, "velocity": 0, "duration": 74}, {"note": 75, "velocity": 102, "duration": 59}, {"note": 0, "velocity": 0, "duration": 61}, {"note": 73, "velocity": 117, "duration": 52}, {"note": 0, "velocity": 0, "duration": 68}, {"note": 71, "velocity": 100, "duration": 124}, {"note": 0, "velocity": 0, "duration": 116}, {"note": 73, "velocity": 107, "duration": 162}, {"note": 0, "velocity": 0, "duration": 78}, {"note": 73, "velocity": 122, "duration": 473}, {"note": 0, "velocity": 0, "duration": 16807}, {"note": 68, "velocity": 88, "duration": 209}, {"note": 73, "velocity": 90, "duration": 60}, {"note": 73, "velocity": 78, "duration": 82}, {"note": 76, "velocity": 76, "duration": 162}, {"note": 0, "velocity": 0, "duration": 78}, {"note": 75, "velocity": 112, "duration": 108}, {"note": 71, "velocity": 73, "duration": 122}, {"note": 73, "velocity": 93, "duration": 711}, {"note": 0, "velocity": 0, "duration": 249}, {"note": 71, "velocity": 90, "duration": 49}, {"note": 0, "velocity": 0, "duration": 71}, {"note": 71, "velocity": 74, "duration": 49}, {"note": 0, "velocity": 0, "duration": 71}, {"note": 71, "velocity": 88, "duration": 56}, {"note": 0, "velocity": 0, "duration": 64}, {"note": 68, "velocity": 100, "duration": 53}, {"note": 0, "velocity": 0, "duration": 67}, {"note": 66, "velocity": 85, "duration": 81}, {"note": 68, "velocity": 95, "duration": 79}, {"note": 70, "velocity": 89, "duration": 168}, {"note": 0, "velocity": 0, "duration": 72}, {"note": 68, "velocity": 90, "duration": 541}, {"note": 0, "velocity": 0, "duration": 419}, {"note": 68, "velocity": 112, "duration": 51}, {"note": 0, "velocity": 0, "duration": 69}, {"note": 73, "velocity": 96, "duration": 102}, {"note": 0, "velocity": 0, "duration": 138}, {"note": 73, "velocity": 93, "duration": 39}, {"note": 0, "velocity": 0, "duration": 81}, {"note": 73, "velocity": 99, "duration": 85}, {"note": 0, "velocity": 0, "duration": 155}, {"note": 68, "velocity": 100, "duration": 46}, {"note": 0, "velocity": 0, "duration": 74}, {"note": 68, "velocity": 92, "duration": 47}, {"note": 0, "velocity": 0, "duration": 73}, {"note": 68, "velocity": 100, "duration": 280}, {"note": 0, "velocity": 0, "duration": 200}, {"note": 66, "velocity": 85, "duration": 284}, {"note": 0, "velocity": 0, "duration": 76}, {"note": 59, "velocity": 75, "duration": 59}, {"note": 0, "velocity": 0, "duration": 61}, {"note": 63, "velocity": 86, "duration": 54}, {"note": 0, "velocity": 0, "duration": 66}, {"note": 63, "velocity": 77, "duration": 51}, {"note": 0, "velocity": 0, "duration": 69}, {"note": 63, "velocity": 99, "duration": 83}, {"note": 64, "velocity": 73, "duration": 114}, {"note": 66, "velocity": 95, "duration": 190}, {"note": 64, "velocity": 85, "duration": 74}, {"note": 0, "velocity": 0, "duration": 166}, {"note": 63, "velocity": 74, "duration": 68}, {"note": 61, "velocity": 77, "duration": 636}, {"note": 0, "velocity": 0, "duration": 324}, {"note": 64, "velocity": 77, "duration": 54}, {"note": 0, "velocity": 0, "duration": 66}, {"note": 64, "velocity": 69, "duration": 51}, {"note": 0, "velocity": 0, "duration": 69}, {"note": 64, "velocity": 69, "duration": 68}, {"note": 61, "velocity": 78, "duration": 97}, {"note": 64, "velocity": 75, "duration": 136}, {"note": 0, "velocity": 0, "duration": 104}, {"note": 66, "velocity": 82, "duration": 198}, {"note": 68, "velocity": 93, "duration": 90}, {"note": 71, "velocity": 77, "duration": 125}, {"note": 66, "velocity": 81, "duration": 102}, {"note": 71, "velocity": 77, "duration": 124}, {"note": 68, "velocity": 96, "duration": 345}, {"note": 0, "velocity": 0, "duration": 135}, {"note": 73, "velocity": 112, "duration": 45}, {"note": 0, "velocity": 0, "duration": 75}, {"note": 73, "velocity": 83, "duration": 38}, {"note": 0, "velocity": 0, "duration": 82}, {"note": 73, "velocity": 97, "duration": 60}, {"note": 71, "velocity": 86, "duration": 81}, {"note": 66, "velocity": 83, "duration": 137}, {"note": 68, "velocity": 81, "duration": 108}, {"note": 70, "velocity": 86, "duration": 234}, {"note": 68, "velocity": 97, "duration": 359}, {"note": 0, "velocity": 0, "duration": 601}, {"note": 68, "velocity": 97, "duration": 158}, {"note": 0, "velocity": 0, "duration": 82}, {"note": 73, "velocity": 99, "duration": 149}, {"note": 0, "velocity": 0, "duration": 91}, {"note": 73, "velocity": 97, "duration": 137}, {"note": 0, "velocity": 0, "duration": 103}, {"note": 68, "velocity": 96, "duration": 182}, {"note": 66, "velocity": 95, "duration": 112}, {"note": 68, "velocity": 107, "duration": 149}, {"note": 0, "velocity": 0, "duration": 91}, {"note": 66, "velocity": 97, "duration": 40}, {"note": 0, "velocity": 0, "duration": 80}, {"note": 66, "velocity": 107, "duration": 179}, {"note": 0, "velocity": 0, "duration": 181}, {"note": 68, "velocity": 95, "duration": 46}, {"note": 0, "velocity": 0, "duration": 74}, {"note": 71, "velocity": 77, "duration": 40}, {"note": 0, "velocity": 0, "duration": 80}, {"note": 71, "velocity": 81, "duration": 42}, {"note": 0, "velocity": 0, "duration": 78}, {"note": 71, "velocity": 85, "duration": 47}, {"note": 0, "velocity": 0, "duration": 73}, {"note": 68, "velocity": 95, "duration": 52}, {"note": 0, "velocity": 0, "duration": 68}, {"note": 71, "velocity": 93, "duration": 90}, {"note": 0, "velocity": 0, "duration": 150}, {"note": 73, "velocity": 107, "duration": 59}, {"note": 0, "velocity": 0, "duration": 181}, {"note": 73, "velocity": 97, "duration": 784}, {"note": 0, "velocity": 0, "duration": 1136}, {"note": 73, "velocity": 112, "duration": 246}, {"note": 0, "velocity": 0, "duration": 114}, {"note": 76, "velocity": 95, "duration": 103}, {"note": 73, "velocity": 93, "duration": 130}, {"note": 0, "velocity": 0, "duration": 110}, {"note": 80, "velocity": 112, "duration": 131}, {"note": 78, "velocity": 102, "duration": 123}, {"note": 76, "velocity": 93, "duration": 355}, {"note": 0, "velocity": 0, "duration": 605}, {"note": 75, "velocity": 112, "duration": 225}, {"note": 0, "velocity": 0, "duration": 135}, {"note": 75, "velocity": 99, "duration": 43}, {"note": 0, "velocity": 0, "duration": 77}, {"note": 75, "velocity": 95, "duration": 165}, {"note": 0, "velocity": 0, "duration": 75}, {"note": 73, "velocity": 99, "duration": 103}, {"note": 71, "velocity": 86, "duration": 108}, {"note": 73, "velocity": 112, "duration": 809}, {"note": 0, "velocity": 0, "duration": 151}, {"note": 68, "velocity": 102, "duration": 105}, {"note": 73, "velocity": 93, "duration": 137}, {"note": 0, "velocity": 0, "duration": 103}, {"note": 73, "velocity": 95, "duration": 52}, {"note": 0, "velocity": 0, "duration": 68}, {"note": 73, "velocity": 102, "duration": 132}, {"note": 0, "velocity": 0, "duration": 108}, {"note": 68, "velocity": 102, "duration": 151}, {"note": 0, "velocity": 0, "duration": 89}, {"note": 66, "velocity": 102, "duration": 88}, {"note": 68, "velocity": 96, "duration": 167}, {"note": 0, "velocity": 0, "duration": 73}, {"note": 66, "velocity": 95, "duration": 54}, {"note": 0, "velocity": 0, "duration": 66}, {"note": 66, "velocity": 112, "duration": 163}, {"note": 0, "velocity": 0, "duration": 317}, {"note": 66, "velocity": 107, "duration": 49}, {"note": 0, "velocity": 0, "duration": 71}, {"note": 66, "velocity": 86, "duration": 54}, {"note": 0, "velocity": 0, "duration": 66}, {"note": 66, "velocity": 96, "duration": 80}, {"note": 64, "velocity": 82, "duration": 107}, {"note": 66, "velocity": 99, "duration": 189}, {"note": 71, "velocity": 100, "duration": 97}, {"note": 73, "velocity": 86, "duration": 93}, {"note": 68, "velocity": 107, "duration": 398}, {"note": 0, "velocity": 0, "duration": 562}, {"note": 73, "velocity": 117, "duration": 244}, {"note": 0, "velocity": 0, "duration": 116}, {"note": 76, "velocity": 99, "duration": 99}, {"note": 73, "velocity": 102, "duration": 115}, {"note": 0, "velocity": 0, "duration": 125}, {"note": 80, "velocity": 127, "duration": 107}, {"note": 78, "velocity": 99, "duration": 115}, {"note": 76, "velocity": 100, "duration": 524}, {"note": 0, "velocity": 0, "duration": 436}, {"note": 75, "velocity": 122, "duration": 241}, {"note": 0, "velocity": 0, "duration": 119}, {"note": 75, "velocity": 99, "duration": 38}, {"note": 0, "velocity": 0, "duration": 82}, {"note": 75, "velocity": 107, "duration": 161}, {"note": 0, "velocity": 0, "duration": 79}, {"note": 73, "velocity": 112, "duration": 101}, {"note": 71, "velocity": 83, "duration": 86}, {"note": 73, "velocity": 117, "duration": 624}, {"note": 0, "velocity": 0, "duration": 216}, {"note": 71, "velocity": 97, "duration": 67}, {"note": 73, "velocity": 122, "duration": 129}, {"note": 0, "velocity": 0, "duration": 111}, {"note": 76, "velocity": 100, "duration": 71}, {"note": 76, "velocity": 95, "duration": 63}, {"note": 76, "velocity": 102, "duration": 107}, {"note": 0, "velocity": 0, "duration": 133}, {"note": 73, "velocity": 100, "duration": 57}, {"note": 0, "velocity": 0, "duration": 63}, {"note": 73, "velocity": 95, "duration": 60}, {"note": 78, "velocity": 102, "duration": 83}, {"note": 80, "velocity": 112, "duration": 182}, {"note": 78, "velocity": 112, "duration": 55}, {"note": 0, "velocity": 0, "duration": 65}, {"note": 78, "velocity": 112, "duration": 181}, {"note": 0, "velocity": 0, "duration": 179}, {"note": 73, "velocity": 93, "duration": 53}, {"note": 0, "velocity": 0, "duration": 67}, {"note": 75, "velocity": 112, "duration": 48}, {"note": 0, "velocity": 0, "duration": 72}, {"note": 75, "velocity": 93, "duration": 46}, {"note": 0, "velocity": 0, "duration": 74}, {"note": 75, "velocity": 102, "duration": 59}, {"note": 0, "velocity": 0, "duration": 61}, {"note": 73, "velocity": 117, "duration": 52}, {"note": 0, "velocity": 0, "duration": 68}, {"note": 71, "velocity": 100, "duration": 124}, {"note": 0, "velocity": 0, "duration": 116}, {"note": 73, "velocity": 107, "duration": 162}, {"note": 0, "velocity": 0, "duration": 78}, {"note": 73, "velocity": 122, "duration": 473}, {"note": 0, "velocity": 0, "duration": 1447}, {"note": 73, "velocity": 112, "duration": 246}, {"note": 0, "velocity": 0, "duration": 114}, {"note": 76, "velocity": 95, "duration": 103}, {"note": 73, "velocity": 93, "duration": 130}, {"note": 0, "velocity": 0, "duration": 110}, {"note": 80, "velocity": 112, "duration": 131}, {"note": 78, "velocity": 102, "duration": 123}, {"note": 76, "velocity": 93, "duration": 355}, {"note": 0, "velocity": 0, "duration": 605}, {"note": 75, "velocity": 112, "duration": 225}, {"note": 0, "velocity": 0, "duration": 135}, {"note": 75, "velocity": 99, "duration": 43}, {"note": 0, "velocity": 0, "duration": 77}, {"note": 75, "velocity": 95, "duration": 165}, {"note": 0, "velocity": 0, "duration": 75}, {"note": 73, "velocity": 99, "duration": 103}, {"note": 71, "velocity": 86, "duration": 108}, {"note": 73, "velocity": 112, "duration": 809}, {"note": 0, "velocity": 0, "duration": 151}, {"note": 68, "velocity": 102, "duration": 105}, {"note": 73, "velocity": 93, "duration": 137}, {"note": 0, "velocity": 0, "duration": 103}, {"note": 73, "velocity": 95, "duration": 52}, {"note": 0, "velocity": 0, "duration": 68}, {"note": 73, "velocity": 102, "duration": 132}, {"note": 0, "velocity": 0, "duration": 108}, {"note": 68, "velocity": 102, "duration": 151}, {"note": 0, "velocity": 0, "duration": 89}, {"note": 66, "velocity": 102, "duration": 88}, {"note": 68, "velocity": 96, "duration": 167}, {"note": 0, "velocity": 0, "duration": 73}, {"note": 66, "velocity": 95, "duration": 54}, {"note": 0, "velocity": 0, "duration": 66}, {"note": 66, "velocity": 112, "duration": 163}, {"note": 0, "velocity": 0, "duration": 317}, {"note": 66, "velocity": 107, "duration": 49}, {"note": 0, "velocity": 0, "duration": 71}, {"note": 66, "velocity": 86, "duration": 54}, {"note": 0, "velocity": 0, "duration": 66}, {"note": 66, "velocity": 96, "duration": 80}, {"note": 64, "velocity": 82, "duration": 107}, {"note": 66, "velocity": 99, "duration": 189}, {"note": 71, "velocity": 100, "duration": 97}, {"note": 73, "velocity": 86, "duration": 93}, {"note": 68, "velocity": 107, "duration": 398}, {"note": 0, "velocity": 0, "duration": 562}, {"note": 73, "velocity": 117, "duration": 244}, {"note": 0, "velocity": 0, "duration": 116}, {"note": 76, "velocity": 99, "duration": 99}, {"note": 73, "velocity": 102, "duration": 115}, {"note": 0, "velocity": 0, "duration": 125}, {"note": 80, "velocity": 127, "duration": 107}, {"note": 78, "velocity": 99, "duration": 115}, {"note": 76, "velocity": 100, "duration": 524}, {"note": 0, "velocity": 0, "duration": 436}, {"note": 75, "velocity": 122, "duration": 241}, {"note": 0, "velocity": 0, "duration": 119}, {"note": 75, "velocity": 99, "duration": 38}, {"note": 0, "velocity": 0, "duration": 82}, {"note": 75, "velocity": 107, "duration": 161}, {"note": 0, "velocity": 0, "duration": 79}, {"note": 73, "velocity": 112, "duration": 101}, {"note": 71, "velocity": 83, "duration": 86}, {"note": 73, "velocity": 117, "duration": 624}, {"note": 0, "velocity": 0, "duration": 216}, {"note": 71, "velocity": 97, "duration": 67}, {"note": 73, "velocity": 122, "duration": 129}, {"note": 0, "velocity": 0, "duration": 111}, {"note": 76, "velocity": 100, "duration": 71}, {"note": 76, "velocity": 95, "duration": 63}, {"note": 76, "velocity": 102, "duration": 107}, {"note": 0, "velocity": 0, "duration": 133}, {"note": 73, "velocity": 100, "duration": 57}, {"note": 0, "velocity": 0, "duration": 63}, {"note": 73, "velocity": 95, "duration": 60}, {"note": 78, "velocity": 102, "duration": 83}, {"note": 80, "velocity": 112, "duration": 182}, {"note": 78, "velocity": 112, "duration": 55}, {"note": 0, "velocity": 0, "duration": 65}, {"note": 78, "velocity": 112, "duration": 181}, {"note": 0, "velocity": 0, "duration": 179}, {"note": 73, "velocity": 93, "duration": 53}, {"note": 0, "velocity": 0, "duration": 67}, {"note": 75, "velocity": 112, "duration": 48}, {"note": 0, "velocity": 0, "duration": 72}, {"note": 75, "velocity": 93, "duration": 46}, {"note": 0, "velocity": 0, "duration": 74}, {"note": 75, "velocity": 102, "duration": 59}, {"note": 0, "velocity": 0, "duration": 61}, {"note": 73, "velocity": 117, "duration": 52}, {"note": 0, "velocity": 0, "duration": 68}, {"note": 71, "velocity": 100, "duration": 124}, {"note": 0, "velocity": 0, "duration": 116}, {"note": 73, "velocity": 107, "duration": 162}, {"note": 0, "velocity": 0, "duration": 78}, {"note": 73, "velocity": 122, "duration": 473}, {"note": 0, "velocity": 0, "duration": 1447}, {"note": 68, "velocity": 107, "duration": 107}, {"note": 73, "velocity": 83, "duration": 56}, {"note": 0, "velocity": 0, "duration": 64}, {"note": 73, "velocity": 93, "duration": 48}, {"note": 0, "velocity": 0, "duration": 72}, {"note": 73, "velocity": 99, "duration": 43}, {"note": 0, "velocity": 0, "duration": 77}, {"note": 73, "velocity": 112, "duration": 222}, {"note": 71, "velocity": 96, "duration": 112}, {"note": 73, "velocity": 102, "duration": 67}, {"note": 73, "velocity": 112, "duration": 603}, {"note": 0, "velocity": 0, "duration": 357}, {"note": 71, "velocity": 92, "duration": 53}, {"note": 0, "velocity": 0, "duration": 67}, {"note": 71, "velocity": 71, "duration": 50}, {"note": 0, "velocity": 0, "duration": 70}, {"note": 71, "velocity": 71, "duration": 43}, {"note": 0, "velocity": 0, "duration": 77}, {"note": 71, "velocity": 73, "duration": 47}, {"note": 0, "velocity": 0, "duration": 73}, {"note": 71, "velocity": 90, "duration": 144}, {"note": 0, "velocity": 0, "duration": 96}, {"note": 66, "velocity": 89, "duration": 166}, {"note": 0, "velocity": 0, "duration": 74}, {"note": 68, "velocity": 86, "duration": 206}, {"note": 0, "velocity": 0, "duration": 754}, {"note": 68, "velocity": 92, "duration": 129}, {"note": 0, "velocity": 0, "duration": 111}, {"note": 73, "velocity": 93, "duration": 55}, {"note": 0, "velocity": 0, "duration": 65}, {"note": 73, "velocity": 93, "duration": 51}, {"note": 0, "velocity": 0, "duration": 69}, {"note": 73, "velocity": 102, "duration": 160}, {"note": 0, "velocity": 0, "duration": 80}, {"note": 68, "velocity": 92, "duration": 41}, {"note": 0, "velocity": 0, "duration": 79}, {"note": 68, "velocity": 78, "duration": 49}, {"note": 0, "velocity": 0, "duration": 71}, {"note": 68, "velocity": 85, "duration": 221}, {"note": 0, "velocity": 0, "duration": 139}, {"note": 66, "velocity": 74, "duration": 62}, {"note": 66, "velocity": 79, "duration": 299}, {"note": 0, "velocity": 0, "duration": 181}, {"note": 63, "velocity": 102, "duration": 135}, {"note": 0, "velocity": 0, "duration": 105}, {"note": 63, "velocity": 93, "duration": 514}, {"note": 64, "velocity": 79, "duration": 112}, {"note": 0, "velocity": 0, "duration": 128}, {"note": 66, "velocity": 97, "duration": 266}, {"note": 64, "velocity": 75, "duration": 522}, {"note": 63, "velocity": 82, "duration": 1183}, {"note": 61, "velocity": 60, "duration": 2044}]]