[[{"note": 67, "velocity": 77, "duration": 152}, {"note": 0, "velocity": 0, "duration": 88}, {"note": 67, "velocity": 75, "duration": 57}, {"note": 0, "velocity": 0, "duration": 63}, {"note": 67, "velocity": 89, "duration": 289}, {"note": 0, "velocity": 0, "duration": 71}, {"note": 67, "velocity": 72, "duration": 57}, {"note": 0, "velocity": 0, "duration": 63}, {"note": 67, "velocity": 70, "duration": 62}, {"note": 67, "velocity": 85, "duration": 181}, {"note": 69, "velocity": 86, "duration": 103}, {"note": 67, "velocity": 75, "duration": 329}, {"note": 65, "velocity": 83, "duration": 114}, {"note": 0, "velocity": 0, "duration": 126}, {"note": 64, "velocity": 81, "duration": 134}, {"note": 0, "velocity": 0, "duration": 106}, {"note": 69, "velocity": 85, "duration": 72}, {"note": 71, "velocity": 78, "duration": 282}, {"note": 0, "velocity": 0, "duration": 78}, {"note": 72, "velocity": 95, "duration": 146}, {"note": 0, "velocity": 0, "duration": 94}, {"note": 71, "velocity": 88, "duration": 120}, {"note": 67, "velocity": 89, "duration": 209}, {"note": 0, "velocity": 0, "duration": 391}, {"note": 67, "velocity": 95, "duration": 61}, {"note": 67, "velocity": 63, "duration": 71}, {"note": 69, "velocity": 93, "duration": 117}, {"note": 0, "velocity": 0, "duration": 123}, {"note": 60, "velocity": 79, "duration": 60}, {"note": 60, "velocity": 73, "duration": 154}, {"note": 0, "velocity": 0, "duration": 206}, {"note": 62, "velocity": 90, "duration": 81}, {"note": 64, "velocity": 69, "duration": 142}, {"note": 0, "velocity": 0, "duration": 98}, {"note": 67, "velocity": 78, "duration": 286}, {"note": 0, "velocity": 0, "duration": 434}, {"note": 67, "velocity": 86, "duration": 65}, {"note": 65, "velocity": 75, "duration": 170}, {"note": 0, "velocity": 0, "duration": 70}, {"note": 67, "velocity": 66, "duration": 79}, {"note": 65, "velocity": 75, "duration": 216}, {"note": 62, "velocity": 62, "duration": 69}, {"note": 60, "velocity": 73, "duration": 121}, {"note": 62, "velocity": 56, "duration": 525}, {"note": 0, "velocity": 0, "duration": 555}, {"note": 67, "velocity": 83, "duration": 117}, {"note": 0, "velocity": 0, "duration": 123}, {"note": 67, "velocity": 65, "duration": 65}, {"note": 67, "velocity": 74, "duration": 225}, {"note": 0, "velocity": 0, "duration": 135}, {"note": 67, "velocity": 76, "duration": 121}, {"note": 0, "velocity": 0, "duration": 119}, {"note": 67, "velocity": 95, "duration": 110}, {"note": 0, "velocity": 0, "duration": 130}, {"note": 69, "velocity": 86, "duration": 86}, {"note": 67, "velocity": 72, "duration": 240}, {"note": 0, "velocity": 0, "duration": 120}, {"note": 65, "velocity": 82, "duration": 106}, {"note": 0, "velocity": 0, "duration": 134}, {"note": 64, "velocity": 78, "duration": 264}, {"note": 69, "velocity": 70, "duration": 52}, {"note": 0, "velocity": 0, "duration": 68}, {"note": 71, "velocity": 83, "duration": 255}, {"note": 0, "velocity": 0, "duration": 105}, {"note": 72, "velocity": 61, "duration": 87}, {"note": 0, "velocity": 0, "duration": 153}, {"note": 71, "velocity": 92, "duration": 77}, {"note": 67, "velocity": 76, "duration": 520}, {"note": 0, "velocity": 0, "duration": 80}, {"note": 67, "velocity": 92, "duration": 49}, {"note": 0, "velocity": 0, "duration": 71}, {"note": 67, "velocity": 71, "duration": 69}, {"note": 69, "velocity": 77, "duration": 125}, {"note": 0, "velocity": 0, "duration": 115}, {"note": 60, "velocity": 86, "duration": 59}, {"note": 0, "velocity": 0, "duration": 61}, {"note": 60, "velocity": 79, "duration": 272}, {"note": 0, "velocity": 0, "duration": 88}, {"note": 62, "velocity": 73, "duration": 80}, {"note": 0, "velocity": 0, "duration": 160}, {"note": 64, "velocity": 76, "duration": 199}, {"note": 67, "velocity": 69, "duration": 297}, {"note": 0, "velocity": 0, "duration": 423}, {"note": 67, "velocity": 83, "duration": 112}, {"note": 65, "velocity": 78, "duration": 273}, {"note": 67, "velocity": 66, "duration": 72}, {"note": 64, "velocity": 81, "duration": 240}, {"note": 62, "velocity": 52, "duration": 135}, {"note": 60, "velocity": 71, "duration": 81}, {"note": 0, "velocity": 0, "duration": 159}, {"note": 60, "velocity": 69, "duration": 294}, {"note": 0, "velocity": 0, "duration": 186}, {"note": 72, "velocity": 100, "duration": 81}, {"note": 0, "velocity": 0, "duration": 159}, {"note": 71, "velocity": 83, "duration": 111}, {"note": 0, "velocity": 0, "duration": 129}, {"note": 69, "velocity": 73, "duration": 129}, {"note": 0, "velocity": 0, "duration": 111}, {"note": 69, "velocity": 71, "duration": 105}, {"note": 71, "velocity": 72, "duration": 144}, {"note": 72, "velocity": 68, "duration": 182}, {"note": 74, "velocity": 102, "duration": 57}, {"note": 0, "velocity": 0, "duration": 63}, {"note": 76, "velocity": 90, "duration": 143}, {"note": 0, "velocity": 0, "duration": 97}, {"note": 71, "velocity": 82, "duration": 366}, {"note": 0, "velocity": 0, "duration": 234}, {"note": 67, "velocity": 82, "duration": 47}, {"note": 0, "velocity": 0, "duration": 73}, {"note": 67, "velocity": 71, "duration": 80}, {"note": 69, "velocity": 99, "duration": 175}, {"note": 0, "velocity": 0, "duration": 65}, {"note": 76, "velocity": 88, "duration": 57}, {"note": 0, "velocity": 0, "duration": 63}, {"note": 76, "velocity": 97, "duration": 117}, {"note": 74, "velocity": 81, "duration": 98}, {"note": 0, "velocity": 0, "duration": 156}, {"note": 72, "velocity": 82, "duration": 79}, {"note": 0, "velocity": 0, "duration": 161}, {"note": 72, "velocity": 86, "duration": 412}, {"note": 0, "velocity": 0, "duration": 68}, {"note": 72, "velocity": 102, "duration": 143}, {"note": 0, "velocity": 0, "duration": 97}, {"note": 71, "velocity": 96, "duration": 175}, {"note": 0, "velocity": 0, "duration": 65}, {"note": 69, "velocity": 69, "duration": 168}, {"note": 0, "velocity": 0, "duration": 72}, {"note": 71, "velocity": 90, "duration": 117}, {"note": 72, "velocity": 90, "duration": 196}, {"note": 0, "velocity": 0, "duration": 164}, {"note": 74, "velocity": 93, "duration": 149}, {"note": 76, "velocity": 81, "duration": 181}, {"note": 0, "velocity": 0, "duration": 179}, {"note": 71, "velocity": 83, "duration": 311}, {"note": 0, "velocity": 0, "duration": 169}, {"note": 67, "velocity": 93, "duration": 48}, {"note": 0, "velocity": 0, "duration": 72}, {"note": 67, "velocity": 77, "duration": 103}, {"note": 69, "velocity": 90, "duration": 174}, {"note": 0, "velocity": 0, "duration": 66}, {"note": 76, "velocity": 95, "duration": 55}, {"note": 0, "velocity": 0, "duration": 65}, {"note": 76, "velocity": 82, "duration": 137}, {"note": 74, "velocity": 78, "duration": 113}, {"note": 0, "velocity": 0, "duration": 122}, {"note": 72, "velocity": 92, "duration": 130}, {"note": 0, "velocity": 0, "duration": 110}, {"note": 72, "velocity": 89, "duration": 326}, {"note": 0, "velocity": 0, "duration": 3274}, {"note": 72, "velocity": 93, "duration": 41}, {"note": 0, "velocity": 0, "duration": 79}, {"note": 72, "velocity": 86, "duration": 61}, {"note": 79, "velocity": 92, "duration": 151}, {"note": 0, "velocity": 0, "duration": 89}, {"note": 79, "velocity": 89, "duration": 49}, {"note": 0, "velocity": 0, "duration": 71}, {"note": 79, "velocity": 97, "duration": 173}, {"note": 0, "velocity": 0, "duration": 187}, {"note": 79, "velocity": 93, "duration": 73}, {"note": 0, "velocity": 0, "duration": 167}, {"note": 79, "velocity": 95, "duration": 132}, {"note": 0, "velocity": 0, "duration": 108}, {"note": 71, "velocity": 77, "duration": 48}, {"note": 0, "velocity": 0, "duration": 72}, {"note": 71, "velocity": 85, "duration": 230}, {"note": 0, "velocity": 0, "duration": 130}, {"note": 71, "velocity": 79, "duration": 41}, {"note": 0, "velocity": 0, "duration": 79}, {"note": 71, "velocity": 75, "duration": 80}, {"note": 79, "velocity": 97, "duration": 147}, {"note": 0, "velocity": 0, "duration": 93}, {"note": 79, "velocity": 99, "duration": 52}, {"note": 0, "velocity": 0, "duration": 68}, {"note": 79, "velocity": 107, "duration": 195}, {"note": 0, "velocity": 0, "duration": 165}, {"note": 81, "velocity": 107, "duration": 122}, {"note": 0, "velocity": 0, "duration": 118}, {"note": 79, "velocity": 79, "duration": 157}, {"note": 0, "velocity": 0, "duration": 83}, {"note": 72, "velocity": 93, "duration": 54}, {"note": 0, "velocity": 0, "duration": 66}, {"note": 72, "velocity": 81, "duration": 216}, {"note": 0, "velocity": 0, "duration": 144}, {"note": 72, "velocity": 92, "duration": 90}, {"note": 74, "velocity": 59, "duration": 98}, {"note": 76, "velocity": 95, "duration": 183}, {"note": 74, "velocity": 88, "duration": 115}, {"note": 0, "velocity": 0, "duration": 125}, {"note": 77, "velocity": 89, "duration": 211}, {"note": 76, "velocity": 82, "duration": 96}, {"note": 0, "velocity": 0, "duration": 144}, {"note": 76, "velocity": 100, "duration": 212}, {"note": 74, "velocity": 88, "duration": 103}, {"note": 77, "velocity": 92, "duration": 260}, {"note": 0, "velocity": 0, "duration": 100}, {"note": 76, "velocity": 89, "duration": 109}, {"note": 0, "velocity": 0, "duration": 131}, {"note": 76, "velocity": 97, "duration": 182}, {"note": 74, "velocity": 92, "duration": 194}, {"note": 77, "velocity": 100, "duration": 196}, {"note": 76, "velocity": 85, "duration": 95}, {"note": 0, "velocity": 0, "duration": 145}, {"note": 79, "velocity": 97, "duration": 320}, {"note": 0, "velocity": 0, "duration": 400}, {"note": 72, "velocity": 95, "duration": 56}, {"note": 0, "velocity": 0, "duration": 64}, {"note": 72, "velocity": 76, "duration": 67}, {"note": 79, "velocity": 92, "duration": 129}, {"note": 0, "velocity": 0, "duration": 111}, {"note": 79, "velocity": 97, "duration": 56}, {"note": 0, "velocity": 0, "duration": 64}, {"note": 79, "velocity": 93, "duration": 184}, {"note": 0, "velocity": 0, "duration": 176}, {"note": 79, "velocity": 93, "duration": 101}, {"note": 0, "velocity": 0, "duration": 139}, {"note": 79, "velocity": 95, "duration": 133}, {"note": 0, "velocity": 0, "duration": 107}, {"note": 71, "velocity": 90, "duration": 54}, {"note": 0, "velocity": 0, "duration": 66}, {"note": 71, "velocity": 88, "duration": 204}, {"note": 0, "velocity": 0, "duration": 156}, {"note": 71, "velocity": 92, "duration": 49}, {"note": 0, "velocity": 0, "duration": 71}, {"note": 71, "velocity": 78, "duration": 72}, {"note": 79, "velocity": 95, "duration": 148}, {"note": 0, "velocity": 0, "duration": 92}, {"note": 79, "velocity": 93, "duration": 62}, {"note": 79, "velocity": 83, "duration": 67}, {"note": 79, "velocity": 93, "duration": 139}, {"note": 0, "velocity": 0, "duration": 101}, {"note": 81, "velocity": 102, "duration": 128}, {"note": 0, "velocity": 0, "duration": 112}, {"note": 79, "velocity": 93, "duration": 154}, {"note": 0, "velocity": 0, "duration": 86}, {"note": 72, "velocity": 85, "duration": 49}, {"note": 0, "velocity": 0, "duration": 71}, {"note": 72, "velocity": 88, "duration": 248}, {"note": 0, "velocity": 0, "duration": 112}, {"note": 72, "velocity": 95, "duration": 78}, {"note": 74, "velocity": 72, "duration": 89}, {"note": 76, "velocity": 89, "duration": 131}, {"note": 0, "velocity": 0, "duration": 109}, {"note": 74, "velocity": 93, "duration": 112}, {"note": 77, "velocity": 85, "duration": 260}, {"note": 0, "velocity": 0, "duration": 100}, {"note": 76, "velocity": 100, "duration": 100}, {"note": 0, "velocity": 0, "duration": 140}, {"note": 76, "velocity": 95, "duration": 155}, {"note": 0, "velocity": 0, "duration": 85}, {"note": 74, "velocity": 86, "duration": 82}, {"note": 72, "velocity": 73, "duration": 355}, {"note": 71, "velocity": 75, "duration": 166}, {"note": 0, "velocity": 0, "duration": 74}, {"note": 72, "velocity": 81, "duration": 780}, {"note": 0, "velocity": 0, "duration": 3060}, {"note": 67, "velocity": 77, "duration": 152}, {"note": 0, "velocity": 0, "duration": 88}, {"note": 67, "velocity": 75, "duration": 57}, {"note": 0, "velocity": 0, "duration": 63}, {"note": 67, "velocity": 89, "duration": 289}, {"note": 0, "velocity": 0, "duration": 71}, {"note": 67, "velocity": 72, "duration": 57}, {"note": 0, "velocity": 0, "duration": 63}, {"note": 67, "velocity": 70, "duration": 62}, {"note": 67, "velocity": 85, "duration": 181}, {"note": 69, "velocity": 86, "duration": 103}, {"note": 67, "velocity": 75, "duration": 329}, {"note": 65, "velocity": 83, "duration": 114}, {"note": 0, "velocity": 0, "duration": 126}, {"note": 64, "velocity": 81, "duration": 134}, {"note": 0, "velocity": 0, "duration": 106}, {"note": 69, "velocity": 85, "duration": 72}, {"note": 71, "velocity": 78, "duration": 282}, {"note": 0, "velocity": 0, "duration": 78}, {"note": 72, "velocity": 95, "duration": 146}, {"note": 0, "velocity": 0, "duration": 94}, {"note": 71, "velocity": 88, "duration": 120}, {"note": 67, "velocity": 89, "duration": 209}, {"note": 0, "velocity": 0, "duration": 391}, {"note": 67, "velocity": 95, "duration": 61}, {"note": 67, "velocity": 63, "duration": 71}, {"note": 69, "velocity": 93, "duration": 117}, {"note": 0, "velocity": 0, "duration": 123}, {"note": 60, "velocity": 79, "duration": 60}, {"note": 60, "velocity": 73, "duration": 154}, {"note": 0, "velocity": 0, "duration": 206}, {"note": 62, "velocity": 90, "duration": 81}, {"note": 64, "velocity": 69, "duration": 142}, {"note": 0, "velocity": 0, "duration": 98}, {"note": 67, "velocity": 78, "duration": 286}, {"note": 0, "velocity": 0, "duration": 434}, {"note": 67, "velocity": 86, "duration": 65}, {"note": 65, "velocity": 75, "duration": 170}, {"note": 0, "velocity": 0, "duration": 70}, {"note": 67, "velocity": 66, "duration": 79}, {"note": 65, "velocity": 75, "duration": 216}, {"note": 62, "velocity": 62, "duration": 69}, {"note": 60, "velocity": 73, "duration": 121}, {"note": 62, "velocity": 56, "duration": 525}, {"note": 0, "velocity": 0, "duration": 555}, {"note": 67, "velocity": 83, "duration": 117}, {"note": 0, "velocity": 0, "duration": 123}, {"note": 67, "velocity": 65, "duration": 65}, {"note": 67, "velocity": 74, "duration": 225}, {"note": 0, "velocity": 0, "duration": 135}, {"note": 67, "velocity": 76, "duration": 121}, {"note": 0, "velocity": 0, "duration": 119}, {"note": 67, "velocity": 95, "duration": 110}, {"note": 0, "velocity": 0, "duration": 130}, {"note": 69, "velocity": 86, "duration": 86}, {"note": 67, "velocity": 72, "duration": 240}, {"note": 0, "velocity": 0, "duration": 120}, {"note": 65, "velocity": 82, "duration": 106}, {"note": 0, "velocity": 0, "duration": 134}, {"note": 64, "velocity": 78, "duration": 264}, {"note": 69, "velocity": 70, "duration": 52}, {"note": 0, "velocity": 0, "duration": 68}, {"note": 71, "velocity": 83, "duration": 255}, {"note": 0, "velocity": 0, "duration": 105}, {"note": 72, "velocity": 61, "duration": 87}, {"note": 0, "velocity": 0, "duration": 153}, {"note": 71, "velocity": 92, "duration": 77}, {"note": 67, "velocity": 76, "duration": 520}, {"note": 0, "velocity": 0, "duration": 80}, {"note": 67, "velocity": 92, "duration": 49}, {"note": 0, "velocity": 0, "duration": 71}, {"note": 67, "velocity": 71, "duration": 69}, {"note": 69, "velocity": 77, "duration": 125}, {"note": 0, "velocity": 0, "duration": 115}, {"note": 60, "velocity": 86, "duration": 59}, {"note": 0, "velocity": 0, "duration": 61}, {"note": 60, "velocity": 79, "duration": 272}, {"note": 0, "velocity": 0, "duration": 88}, {"note": 62, "velocity": 73, "duration": 80}, {"note": 0, "velocity": 0, "duration": 160}, {"note": 64, "velocity": 76, "duration": 199}, {"note": 67, "velocity": 69, "duration": 297}, {"note": 0, "velocity": 0, "duration": 423}, {"note": 67, "velocity": 83, "duration": 112}, {"note": 65, "velocity": 78, "duration": 273}, {"note": 67, "velocity": 66, "duration": 72}, {"note": 64, "velocity": 81, "duration": 240}, {"note": 62, "velocity": 52, "duration": 135}, {"note": 60, "velocity": 71, "duration": 81}, {"note": 0, "velocity": 0, "duration": 159}, {"note": 60, "velocity": 69, "duration": 294}, {"note": 0, "velocity": 0, "duration": 186}, {"note": 72, "velocity": 100, "duration": 81}, {"note": 0, "velocity": 0, "duration": 159}, {"note": 71, "velocity": 83, "duration": 111}, {"note": 0, "velocity": 0, "duration": 129}, {"note": 69, "velocity": 73, "duration": 129}, {"note": 0, "velocity": 0, "duration": 111}, {"note": 71, "velocity": 71, "duration": 240}, {"note": 72, "velocity": 68, "duration": 182}, {"note": 74, "velocity": 102, "duration": 57}, {"note": 0, "velocity": 0, "duration": 63}, {"note": 76, "velocity": 90, "duration": 143}, {"note": 0, "velocity": 0, "duration": 97}, {"note": 71, "velocity": 82, "duration": 366}, {"note": 0, "velocity": 0, "duration": 234}, {"note": 67, "velocity": 82, "duration": 47}, {"note": 0, "velocity": 0, "duration": 73}, {"note": 67, "velocity": 71, "duration": 80}, {"note": 69, "velocity": 99, "duration": 175}, {"note": 0, "velocity": 0, "duration": 65}, {"note": 76, "velocity": 88, "duration": 57}, {"note": 0, "velocity": 0, "duration": 63}, {"note": 76, "velocity": 97, "duration": 146}, {"note": 74, "velocity": 97, "duration": 120}, {"note": 0, "velocity": 0, "duration": 121}, {"note": 72, "velocity": 82, "duration": 79}, {"note": 72, "velocity": 86, "duration": 412}, {"note": 0, "velocity": 0, "duration": 188}, {"note": 72, "velocity": 102, "duration": 143}, {"note": 0, "velocity": 0, "duration": 97}, {"note": 71, "velocity": 96, "duration": 175}, {"note": 0, "velocity": 0, "duration": 65}, {"note": 69, "velocity": 69, "duration": 168}, {"note": 0, "velocity": 0, "duration": 72}, {"note": 71, "velocity": 90, "duration": 117}, {"note": 72, "velocity": 90, "duration": 196}, {"note": 0, "velocity": 0, "duration": 164}, {"note": 74, "velocity": 93, "duration": 149}, {"note": 76, "velocity": 81, "duration": 181}, {"note": 0, "velocity": 0, "duration": 179}, {"note": 71, "velocity": 83, "duration": 311}, {"note": 0, "velocity": 0, "duration": 169}, {"note": 67, "velocity": 93, "duration": 48}, {"note": 0, "velocity": 0, "duration": 72}, {"note": 67, "velocity": 77, "duration": 103}, {"note": 69, "velocity": 90, "duration": 174}, {"note": 0, "velocity": 0, "duration": 66}, {"note": 76, "velocity": 95, "duration": 55}, {"note": 0, "velocity": 0, "duration": 65}, {"note": 76, "velocity": 82, "duration": 116}, {"note": 74, "velocity": 78, "duration": 113}, {"note": 0, "velocity": 0, "duration": 142}, {"note": 72, "velocity": 92, "duration": 130}, {"note": 0, "velocity": 0, "duration": 110}, {"note": 72, "velocity": 89, "duration": 326}, {"note": 0, "velocity": 0, "duration": 3274}, {"note": 72, "velocity": 93, "duration": 41}, {"note": 0, "velocity": 0, "duration": 79}, {"note": 72, "velocity": 86, "duration": 61}, {"note": 79, "velocity": 92, "duration": 151}, {"note": 0, "velocity": 0, "duration": 89}, {"note": 79, "velocity": 89, "duration": 49}, {"note": 0, "velocity": 0, "duration": 71}, {"note": 79, "velocity": 97, "duration": 173}, {"note": 0, "velocity": 0, "duration": 187}, {"note": 79, "velocity": 93, "duration": 73}, {"note": 0, "velocity": 0, "duration": 167}, {"note": 79, "velocity": 95, "duration": 132}, {"note": 0, "velocity": 0, "duration": 108}, {"note": 71, "velocity": 77, "duration": 48}, {"note": 0, "velocity": 0, "duration": 72}, {"note": 71, "velocity": 85, "duration": 230}, {"note": 0, "velocity": 0, "duration": 130}, {"note": 71, "velocity": 79, "duration": 41}, {"note": 0, "velocity": 0, "duration": 79}, {"note": 71, "velocity": 75, "duration": 80}, {"note": 79, "velocity": 97, "duration": 147}, {"note": 0, "velocity": 0, "duration": 93}, {"note": 79, "velocity": 99, "duration": 52}, {"note": 0, "velocity": 0, "duration": 68}, {"note": 79, "velocity": 107, "duration": 195}, {"note": 0, "velocity": 0, "duration": 165}, {"note": 81, "velocity": 107, "duration": 122}, {"note": 0, "velocity": 0, "duration": 118}, {"note": 79, "velocity": 79, "duration": 157}, {"note": 0, "velocity": 0, "duration": 83}, {"note": 72, "velocity": 93, "duration": 54}, {"note": 0, "velocity": 0, "duration": 66}, {"note": 72, "velocity": 81, "duration": 216}, {"note": 0, "velocity": 0, "duration": 144}, {"note": 72, "velocity": 92, "duration": 90}, {"note": 74, "velocity": 59, "duration": 98}, {"note": 76, "velocity": 95, "duration": 183}, {"note": 74, "velocity": 88, "duration": 115}, {"note": 0, "velocity": 0, "duration": 125}, {"note": 77, "velocity": 89, "duration": 211}, {"note": 76, "velocity": 82, "duration": 96}, {"note": 0, "velocity": 0, "duration": 144}, {"note": 76, "velocity": 100, "duration": 212}, {"note": 74, "velocity": 88, "duration": 103}, {"note": 77, "velocity": 92, "duration": 260}, {"note": 0, "velocity": 0, "duration": 100}, {"note": 76, "velocity": 89, "duration": 109}, {"note": 0, "velocity": 0, "duration": 131}, {"note": 76, "velocity": 97, "duration": 182}, {"note": 74, "velocity": 92, "duration": 194}, {"note": 77, "velocity": 100, "duration": 196}, {"note": 76, "velocity": 85, "duration": 95}, {"note": 0, "velocity": 0, "duration": 145}, {"note": 79, "velocity": 97, "duration": 320}, {"note": 0, "velocity": 0, "duration": 400}, {"note": 72, "velocity": 95, "duration": 56}, {"note": 0, "velocity": 0, "duration": 64}, {"note": 72, "velocity": 76, "duration": 67}, {"note": 79, "velocity": 92, "duration": 129}, {"note": 0, "velocity": 0, "duration": 111}, {"note": 79, "velocity": 97, "duration": 56}, {"note": 0, "velocity": 0, "duration": 64}, {"note": 79, "velocity": 93, "duration": 184}, {"note": 0, "velocity": 0, "duration": 176}, {"note": 79, "velocity": 93, "duration": 101}, {"note": 0, "velocity": 0, "duration": 139}, {"note": 79, "velocity": 95, "duration": 133}, {"note": 0, "velocity": 0, "duration": 107}, {"note": 71, "velocity": 90, "duration": 54}, {"note": 0, "velocity": 0, "duration": 66}, {"note": 71, "velocity": 88, "duration": 204}, {"note": 0, "velocity": 0, "duration": 156}, {"note": 71, "velocity": 92, "duration": 49}, {"note": 0, "velocity": 0, "duration": 71}, {"note": 71, "velocity": 78, "duration": 72}, {"note": 79, "velocity": 95, "duration": 148}, {"note": 0, "velocity": 0, "duration": 92}, {"note": 79, "velocity": 93, "duration": 62}, {"note": 79, "velocity": 83, "duration": 67}, {"note": 79, "velocity": 93, "duration": 139}, {"note": 0, "velocity": 0, "duration": 101}, {"note": 81, "velocity": 102, "duration": 128}, {"note": 0, "velocity": 0, "duration": 112}, {"note": 79, "velocity": 93, "duration": 154}, {"note": 0, "velocity": 0, "duration": 86}, {"note": 72, "velocity": 85, "duration": 49}, {"note": 0, "velocity": 0, "duration": 71}, {"note": 72, "velocity": 88, "duration": 248}, {"note": 0, "velocity": 0, "duration": 112}, {"note": 72, "velocity": 95, "duration": 78}, {"note": 74, "velocity": 72, "duration": 89}, {"note": 76, "velocity": 89, "duration": 131}, {"note": 0, "velocity": 0, "duration": 109}, {"note": 74, "velocity": 93, "duration": 112}, {"note": 77, "velocity": 85, "duration": 260}, {"note": 0, "velocity": 0, "duration": 100}, {"note": 76, "velocity": 100, "duration": 100}, {"note": 0, "velocity": 0, "duration": 140}, {"note": 76, "velocity": 95, "duration": 155}, {"note": 0, "velocity": 0, "duration": 85}, {"note": 74, "velocity": 86, "duration": 82}, {"note": 72, "velocity": 73, "duration": 355}, {"note": 71, "velocity": 75, "duration": 166}, {"note": 0, "velocity": 0, "duration": 74}, {"note": 72, "velocity": 81, "duration": 780}, {"note": 0, "velocity": 0, "duration": 17940}, {"note": 72, "velocity": 100, "duration": 81}, {"note": 0, "velocity": 0, "duration": 159}, {"note": 71, "velocity": 83, "duration": 111}, {"note": 0, "velocity": 0, "duration": 129}, {"note": 69, "velocity": 73, "duration": 129}, {"note": 0, "velocity": 0, "duration": 111}, {"note": 71, "velocity": 72, "duration": 144}, {"note": 72, "velocity": 68, "duration": 182}, {"note": 0, "velocity": 0, "duration": 178}, {"note": 74, "velocity": 102, "duration": 57}, {"note": 0, "velocity": 0, "duration": 183}, {"note": 76, "velocity": 90, "duration": 143}, {"note": 0, "velocity": 0, "duration": 97}, {"note": 71, "velocity": 82, "duration": 94}, {"note": 71, "velocity": 82, "duration": 204}, {"note": 0, "velocity": 0, "duration": 156}, {"note": 67, "velocity": 82, "duration": 47}, {"note": 0, "velocity": 0, "duration": 73}, {"note": 67, "velocity": 71, "duration": 80}, {"note": 69, "velocity": 99, "duration": 175}, {"note": 0, "velocity": 0, "duration": 65}, {"note": 76, "velocity": 88, "duration": 57}, {"note": 0, "velocity": 0, "duration": 183}, {"note": 76, "velocity": 97, "duration": 193}, {"note": 72, "velocity": 82, "duration": 79}, {"note": 0, "velocity": 0, "duration": 161}, {"note": 72, "velocity": 86, "duration": 412}, {"note": 0, "velocity": 0, "duration": 68}, {"note": 72, "velocity": 102, "duration": 143}, {"note": 0, "velocity": 0, "duration": 97}, {"note": 71, "velocity": 96, "duration": 175}, {"note": 0, "velocity": 0, "duration": 65}, {"note": 69, "velocity": 69, "duration": 168}, {"note": 0, "velocity": 0, "duration": 72}, {"note": 71, "velocity": 90, "duration": 117}, {"note": 72, "velocity": 90, "duration": 196}, {"note": 0, "velocity": 0, "duration": 164}, {"note": 74, "velocity": 93, "duration": 149}, {"note": 0, "velocity": 0, "duration": 91}, {"note": 76, "velocity": 81, "duration": 181}, {"note": 71, "velocity": 83, "duration": 74}, {"note": 71, "velocity": 83, "duration": 94}, {"note": 0, "velocity": 0, "duration": 506}, {"note": 69, "velocity": 90, "duration": 174}, {"note": 0, "velocity": 0, "duration": 66}, {"note": 76, "velocity": 95, "duration": 55}, {"note": 0, "velocity": 0, "duration": 65}, {"note": 76, "velocity": 82, "duration": 132}, {"note": 74, "velocity": 78, "duration": 113}, {"note": 0, "velocity": 0, "duration": 129}, {"note": 72, "velocity": 92, "duration": 130}, {"note": 0, "velocity": 0, "duration": 110}, {"note": 72, "velocity": 89, "duration": 326}, {"note": 0, "velocity": 0, "duration": 3274}, {"note": 72, "velocity": 93, "duration": 41}, {"note": 0, "velocity": 0, "duration": 79}, {"note": 72, "velocity": 86, "duration": 61}, {"note": 79, "velocity": 92, "duration": 151}, {"note": 0, "velocity": 0, "duration": 89}, {"note": 79, "velocity": 89, "duration": 49}, {"note": 0, "velocity": 0, "duration": 71}, {"note": 79, "velocity": 97, "duration": 173}, {"note": 0, "velocity": 0, "duration": 187}, {"note": 79, "velocity": 93, "duration": 73}, {"note": 0, "velocity": 0, "duration": 167}, {"note": 79, "velocity": 95, "duration": 132}, {"note": 0, "velocity": 0, "duration": 108}, {"note": 71, "velocity": 77, "duration": 48}, {"note": 0, "velocity": 0, "duration": 72}, {"note": 71, "velocity": 85, "duration": 230}, {"note": 0, "velocity": 0, "duration": 130}, {"note": 71, "velocity": 79, "duration": 41}, {"note": 0, "velocity": 0, "duration": 79}, {"note": 71, "velocity": 75, "duration": 80}, {"note": 79, "velocity": 97, "duration": 147}, {"note": 0, "velocity": 0, "duration": 93}, {"note": 79, "velocity": 99, "duration": 52}, {"note": 0, "velocity": 0, "duration": 68}, {"note": 79, "velocity": 107, "duration": 195}, {"note": 0, "velocity": 0, "duration": 165}, {"note": 81, "velocity": 107, "duration": 122}, {"note": 0, "velocity": 0, "duration": 118}, {"note": 79, "velocity": 79, "duration": 157}, {"note": 0, "velocity": 0, "duration": 83}, {"note": 72, "velocity": 93, "duration": 54}, {"note": 0, "velocity": 0, "duration": 66}, {"note": 72, "velocity": 81, "duration": 216}, {"note": 0, "velocity": 0, "duration": 144}, {"note": 72, "velocity": 92, "duration": 90}, {"note": 74, "velocity": 59, "duration": 98}, {"note": 76, "velocity": 95, "duration": 183}, {"note": 74, "velocity": 88, "duration": 115}, {"note": 0, "velocity": 0, "duration": 125}, {"note": 77, "velocity": 89, "duration": 211}, {"note": 76, "velocity": 82, "duration": 96}, {"note": 0, "velocity": 0, "duration": 144}, {"note": 76, "velocity": 100, "duration": 212}, {"note": 74, "velocity": 88, "duration": 103}, {"note": 77, "velocity": 92, "duration": 260}, {"note": 0, "velocity": 0, "duration": 100}, {"note": 76, "velocity": 89, "duration": 109}, {"note": 0, "velocity": 0, "duration": 131}, {"note": 76, "velocity": 97, "duration": 182}, {"note": 74, "velocity": 92, "duration": 194}, {"note": 77, "velocity": 100, "duration": 196}, {"note": 76, "velocity": 85, "duration": 95}, {"note": 0, "velocity": 0, "duration": 145}, {"note": 79, "velocity": 97, "duration": 320}, {"note": 0, "velocity": 0, "duration": 400}, {"note": 72, "velocity": 95, "duration": 56}, {"note": 0, "velocity": 0, "duration": 64}, {"note": 72, "velocity": 76, "duration": 67}, {"note": 79, "velocity": 92, "duration": 129}, {"note": 0, "velocity": 0, "duration": 111}, {"note": 79, "velocity": 97, "duration": 56}, {"note": 0, "velocity": 0, "duration": 64}, {"note": 79, "velocity": 93, "duration": 184}, {"note": 0, "velocity": 0, "duration": 176}, {"note": 79, "velocity": 93, "duration": 101}, {"note": 0, "velocity": 0, "duration": 139}, {"note": 79, "velocity": 95, "duration": 133}, {"note": 0, "velocity": 0, "duration": 107}, {"note": 71, "velocity": 90, "duration": 54}, {"note": 0, "velocity": 0, "duration": 66}, {"note": 71, "velocity": 88, "duration": 204}, {"note": 0, "velocity": 0, "duration": 156}, {"note": 71, "velocity": 92, "duration": 49}, {"note": 0, "velocity": 0, "duration": 71}, {"note": 71, "velocity": 78, "duration": 72}, {"note": 79, "velocity": 95, "duration": 148}, {"note": 0, "velocity": 0, "duration": 92}, {"note": 79, "velocity": 93, "duration": 62}, {"note": 79, "velocity": 83, "duration": 67}, {"note": 79, "velocity": 93, "duration": 139}, {"note": 0, "velocity": 0, "duration": 101}, {"note": 81, "velocity": 102, "duration": 128}, {"note": 0, "velocity": 0, "duration": 112}, {"note": 79, "velocity": 93, "duration": 154}, {"note": 0, "velocity": 0, "duration": 86}, {"note": 72, "velocity": 85, "duration": 49}, {"note": 0, "velocity": 0, "duration": 71}, {"note": 72, "velocity": 88, "duration": 248}, {"note": 0, "velocity": 0, "duration": 112}, {"note": 72, "velocity": 95, "duration": 78}, {"note": 74, "velocity": 72, "duration": 89}, {"note": 76, "velocity": 89, "duration": 131}, {"note": 0, "velocity": 0, "duration": 109}, {"note": 74, "velocity": 93, "duration": 112}, {"note": 77, "velocity": 85, "duration": 260}, {"note": 0, "velocity": 0, "duration": 100}, {"note": 76, "velocity": 100, "duration": 100}, {"note": 0, "velocity": 0, "duration": 140}, {"note": 76, "velocity": 95, "duration": 155}, {"note": 0, "velocity": 0, "duration": 85}, {"note": 74, "velocity": 86, "duration": 82}, {"note": 72, "velocity": 73, "duration": 355}, {"note": 71, "velocity": 75, "duration": 166}, {"note": 0, "velocity": 0, "duration": 74}, {"note": 72, "velocity": 81, "duration": 480}, {"note": 0, "velocity": 0, "duration": 240}, {"note": 72, "velocity": 107, "duration": 69}, {"note": 76, "velocity": 102, "duration": 613}, {"note": 0, "velocity": 0, "duration": 227}, {"note": 72, "velocity": 93, "duration": 41}, {"note": 0, "velocity": 0, "duration": 79}, {"note": 72, "velocity": 86, "duration": 61}, {"note": 79, "velocity": 92, "duration": 151}, {"note": 0, "velocity": 0, "duration": 89}, {"note": 79, "velocity": 89, "duration": 49}, {"note": 0, "velocity": 0, "duration": 71}, {"note": 79, "velocity": 97, "duration": 173}, {"note": 0, "velocity": 0, "duration": 187}, {"note": 79, "velocity": 93, "duration": 73}, {"note": 0, "velocity": 0, "duration": 167}, {"note": 79, "velocity": 95, "duration": 132}, {"note": 0, "velocity": 0, "duration": 108}, {"note": 71, "velocity": 77, "duration": 48}, {"note": 0, "velocity": 0, "duration": 72}, {"note": 71, "velocity": 85, "duration": 230}, {"note": 0, "velocity": 0, "duration": 130}, {"note": 71, "velocity": 79, "duration": 41}, {"note": 0, "velocity": 0, "duration": 79}, {"note": 71, "velocity": 75, "duration": 80}, {"note": 79, "velocity": 97, "duration": 147}, {"note": 0, "velocity": 0, "duration": 93}, {"note": 79, "velocity": 99, "duration": 52}, {"note": 0, "velocity": 0, "duration": 68}, {"note": 79, "velocity": 107, "duration": 195}, {"note": 0, "velocity": 0, "duration": 165}, {"note": 81, "velocity": 107, "duration": 122}, {"note": 0, "velocity": 0, "duration": 118}, {"note": 79, "velocity": 79, "duration": 157}, {"note": 0, "velocity": 0, "duration": 83}, {"note": 72, "velocity": 93, "duration": 54}, {"note": 0, "velocity": 0, "duration": 66}, {"note": 72, "velocity": 81, "duration": 216}, {"note": 0, "velocity": 0, "duration": 144}, {"note": 72, "velocity": 92, "duration": 90}, {"note": 74, "velocity": 59, "duration": 98}, {"note": 76, "velocity": 95, "duration": 183}, {"note": 74, "velocity": 88, "duration": 115}, {"note": 0, "velocity": 0, "duration": 125}, {"note": 77, "velocity": 89, "duration": 211}, {"note": 76, "velocity": 82, "duration": 96}, {"note": 0, "velocity": 0, "duration": 144}, {"note": 76, "velocity": 100, "duration": 212}, {"note": 74, "velocity": 88, "duration": 103}, {"note": 77, "velocity": 92, "duration": 260}, {"note": 0, "velocity": 0, "duration": 100}, {"note": 76, "velocity": 89, "duration": 109}, {"note": 0, "velocity": 0, "duration": 131}, {"note": 76, "velocity": 97, "duration": 182}, {"note": 74, "velocity": 92, "duration": 194}, {"note": 77, "velocity": 100, "duration": 196}, {"note": 76, "velocity": 85, "duration": 95}, {"note": 0, "velocity": 0, "duration": 145}, {"note": 79, "velocity": 97, "duration": 320}, {"note": 0, "velocity": 0, "duration": 400}, {"note": 72, "velocity": 95, "duration": 56}, {"note": 0, "velocity": 0, "duration": 64}, {"note": 72, "velocity": 76, "duration": 67}, {"note": 79, "velocity": 92, "duration": 129}, {"note": 0, "velocity": 0, "duration": 111}, {"note": 79, "velocity": 97, "duration": 56}, {"note": 0, "velocity": 0, "duration": 64}, {"note": 79, "velocity": 93, "duration": 184}, {"note": 0, "velocity": 0, "duration": 176}, {"note": 79, "velocity": 93, "duration": 101}, {"note": 0, "velocity": 0, "duration": 139}, {"note": 79, "velocity": 95, "duration": 133}, {"note": 0, "velocity": 0, "duration": 107}, {"note": 71, "velocity": 90, "duration": 54}, {"note": 0, "velocity": 0, "duration": 66}, {"note": 71, "velocity": 88, "duration": 204}, {"note": 0, "velocity": 0, "duration": 156}, {"note": 71, "velocity": 92, "duration": 49}, {"note": 0, "velocity": 0, "duration": 71}, {"note": 71, "velocity": 78, "duration": 72}, {"note": 79, "velocity": 95, "duration": 148}, {"note": 0, "velocity": 0, "duration": 92}, {"note": 79, "velocity": 93, "duration": 62}, {"note": 79, "velocity": 83, "duration": 67}, {"note": 79, "velocity": 93, "duration": 139}, {"note": 0, "velocity": 0, "duration": 101}, {"note": 81, "velocity": 102, "duration": 128}, {"note": 0, "velocity": 0, "duration": 112}, {"note": 79, "velocity": 93, "duration": 154}, {"note": 0, "velocity": 0, "duration": 86}, {"note": 72, "velocity": 85, "duration": 49}, {"note": 0, "velocity": 0, "duration": 71}, {"note": 72, "velocity": 88, "duration": 248}, {"note": 0, "velocity": 0, "duration": 112}, {"note": 72, "velocity": 95, "duration": 78}, {"note": 74, "velocity": 72, "duration": 89}, {"note": 76, "velocity": 89, "duration": 131}, {"note": 0, "velocity": 0, "duration": 109}, {"note": 74, "velocity": 93, "duration": 112}, {"note": 77, "velocity": 85, "duration": 260}, {"note": 0, "velocity": 0, "duration": 100}, {"note": 76, "velocity": 100, "duration": 100}, {"note": 0, "velocity": 0, "duration": 140}, {"note": 76, "velocity": 95, "duration": 155}, {"note": 0, "velocity": 0, "duration": 85}, {"note": 74, "velocity": 86, "duration": 82}, {"note": 72, "velocity": 73, "duration": 355}, {"note": 71, "velocity": 75, "duration": 166}, {"note": 0, "velocity": 0, "duration": 74}, {"note": 72, "velocity": 81, "duration": 780}, {"note": 0, "velocity": 0, "duration": 900}, {"note": 72, "velocity": 93, "duration": 123}, {"note": 74, "velocity": 86, "duration": 97}, {"note": 76, "velocity": 88, "duration": 234}, {"note": 74, "velocity": 83, "duration": 170}, {"note": 0, "velocity": 0, "duration": 70}, {"note": 77, "velocity": 95, "duration": 234}, {"note": 76, "velocity": 72, "duration": 122}, {"note": 0, "velocity": 0, "duration": 118}, {"note": 76, "velocity": 99, "duration": 333}, {"note": 74, "velocity": 97, "duration": 68}, {"note": 0, "velocity": 0, "duration": 147}, {"note": 72, "velocity": 81, "duration": 269}, {"note": 71, "velocity": 78, "duration": 364}, {"note": 72, "velocity": 93, "duration": 1077}]]