[[{"note": 60, "velocity": 77, "duration": 240}, {"note": 62, "velocity": 89, "duration": 227}, {"note": 65, "velocity": 99, "duration": 190}, {"note": 72, "velocity": 100, "duration": 236}, {"note": 69, "velocity": 86, "duration": 373}, {"note": 0, "velocity": 0, "duration": 107}, {"note": 67, "velocity": 88, "duration": 230}, {"note": 65, "velocity": 74, "duration": 189}, {"note": 62, "velocity": 79, "duration": 235}, {"note": 60, "velocity": 78, "duration": 519}, {"note": 0, "velocity": 0, "duration": 1161}, {"note": 65, "velocity": 89, "duration": 215}, {"note": 67, "velocity": 74, "duration": 227}, {"note": 69, "velocity": 73, "duration": 284}, {"note": 74, "velocity": 95, "duration": 189}, {"note": 74, "velocity": 93, "duration": 268}, {"note": 69, "velocity": 95, "duration": 460}, {"note": 72, "velocity": 89, "duration": 221}, {"note": 67, "velocity": 74, "duration": 989}, {"note": 0, "velocity": 0, "duration": 931}, {"note": 69, "velocity": 96, "duration": 221}, {"note": 72, "velocity": 92, "duration": 213}, {"note": 0, "velocity": 0, "duration": 267}, {"note": 65, "velocity": 97, "duration": 201}, {"note": 62, "velocity": 88, "duration": 566}, {"note": 0, "velocity": 0, "duration": 154}, {"note": 69, "velocity": 99, "duration": 144}, {"note": 0, "velocity": 0, "duration": 96}, {"note": 67, "velocity": 99, "duration": 207}, {"note": 65, "velocity": 86, "duration": 229}, {"note": 0, "velocity": 0, "duration": 251}, {"note": 67, "velocity": 90, "duration": 117}, {"note": 65, "velocity": 62, "duration": 120}, {"note": 62, "velocity": 81, "duration": 477}, {"note": 0, "velocity": 0, "duration": 483}, {"note": 60, "velocity": 96, "duration": 228}, {"note": 62, "velocity": 85, "duration": 242}, {"note": 65, "velocity": 88, "duration": 232}, {"note": 69, "velocity": 79, "duration": 247}, {"note": 67, "velocity": 79, "duration": 238}, {"note": 65, "velocity": 95, "duration": 165}, {"note": 0, "velocity": 0, "duration": 75}, {"note": 67, "velocity": 86, "duration": 128}, {"note": 0, "velocity": 0, "duration": 112}, {"note": 62, "velocity": 82, "duration": 234}, {"note": 60, "velocity": 79, "duration": 633}, {"note": 0, "velocity": 0, "duration": 1287}, {"note": 60, "velocity": 77, "duration": 240}, {"note": 62, "velocity": 89, "duration": 227}, {"note": 65, "velocity": 99, "duration": 190}, {"note": 72, "velocity": 100, "duration": 236}, {"note": 69, "velocity": 86, "duration": 373}, {"note": 0, "velocity": 0, "duration": 107}, {"note": 67, "velocity": 88, "duration": 230}, {"note": 65, "velocity": 74, "duration": 189}, {"note": 62, "velocity": 79, "duration": 235}, {"note": 60, "velocity": 78, "duration": 519}, {"note": 0, "velocity": 0, "duration": 1161}, {"note": 65, "velocity": 89, "duration": 215}, {"note": 67, "velocity": 74, "duration": 227}, {"note": 69, "velocity": 73, "duration": 284}, {"note": 74, "velocity": 95, "duration": 189}, {"note": 74, "velocity": 93, "duration": 268}, {"note": 69, "velocity": 95, "duration": 460}, {"note": 72, "velocity": 89, "duration": 221}, {"note": 67, "velocity": 74, "duration": 989}, {"note": 0, "velocity": 0, "duration": 931}, {"note": 69, "velocity": 96, "duration": 221}, {"note": 72, "velocity": 92, "duration": 213}, {"note": 0, "velocity": 0, "duration": 267}, {"note": 65, "velocity": 97, "duration": 201}, {"note": 62, "velocity": 88, "duration": 566}, {"note": 0, "velocity": 0, "duration": 154}, {"note": 69, "velocity": 99, "duration": 144}, {"note": 0, "velocity": 0, "duration": 96}, {"note": 67, "velocity": 99, "duration": 207}, {"note": 65, "velocity": 86, "duration": 229}, {"note": 0, "velocity": 0, "duration": 251}, {"note": 67, "velocity": 90, "duration": 117}, {"note": 65, "velocity": 62, "duration": 120}, {"note": 62, "velocity": 81, "duration": 477}, {"note": 0, "velocity": 0, "duration": 483}, {"note": 60, "velocity": 96, "duration": 228}, {"note": 62, "velocity": 85, "duration": 242}, {"note": 65, "velocity": 88, "duration": 232}, {"note": 69, "velocity": 79, "duration": 247}, {"note": 67, "velocity": 79, "duration": 238}, {"note": 65, "velocity": 95, "duration": 165}, {"note": 0, "velocity": 0, "duration": 75}, {"note": 67, "velocity": 99, "duration": 217}, {"note": 69, "velocity": 99, "duration": 232}, {"note": 65, "velocity": 92, "duration": 1158}, {"note": 0, "velocity": 0, "duration": 522}, {"note": 72, "velocity": 127, "duration": 168}, {"note": 0, "velocity": 0, "duration": 72}, {"note": 72, "velocity": 99, "duration": 571}, {"note": 0, "velocity": 0, "duration": 149}, {"note": 72, "velocity": 127, "duration": 198}, {"note": 74, "velocity": 112, "duration": 274}, {"note": 77, "velocity": 112, "duration": 162}, {"note": 0, "velocity": 0, "duration": 78}, {"note": 74, "velocity": 99, "duration": 195}, {"note": 72, "velocity": 117, "duration": 242}, {"note": 69, "velocity": 97, "duration": 440}, {"note": 0, "velocity": 0, "duration": 1000}, {"note": 62, "velocity": 107, "duration": 182}, {"note": 65, "velocity": 99, "duration": 179}, {"note": 0, "velocity": 0, "duration": 61}, {"note": 67, "velocity": 95, "duration": 444}, {"note": 0, "velocity": 0, "duration": 276}, {"note": 69, "velocity": 97, "duration": 174}, {"note": 0, "velocity": 0, "duration": 66}, {"note": 72, "velocity": 112, "duration": 212}, {"note": 74, "velocity": 89, "duration": 164}, {"note": 0, "velocity": 0, "duration": 76}, {"note": 74, "velocity": 93, "duration": 213}, {"note": 72, "velocity": 102, "duration": 228}, {"note": 69, "velocity": 97, "duration": 592}, {"note": 0, "velocity": 0, "duration": 848}, {"note": 69, "velocity": 112, "duration": 205}, {"note": 72, "velocity": 117, "duration": 171}, {"note": 0, "velocity": 0, "duration": 69}, {"note": 72, "velocity": 117, "duration": 408}, {"note": 0, "velocity": 0, "duration": 312}, {"note": 69, "velocity": 99, "duration": 160}, {"note": 0, "velocity": 0, "duration": 80}, {"note": 77, "velocity": 107, "duration": 180}, {"note": 76, "velocity": 99, "duration": 157}, {"note": 0, "velocity": 0, "duration": 83}, {"note": 74, "velocity": 102, "duration": 176}, {"note": 0, "velocity": 0, "duration": 64}, {"note": 72, "velocity": 107, "duration": 190}, {"note": 74, "velocity": 99, "duration": 426}, {"note": 0, "velocity": 0, "duration": 1014}, {"note": 72, "velocity": 112, "duration": 210}, {"note": 69, "velocity": 99, "duration": 231}, {"note": 67, "velocity": 93, "duration": 207}, {"note": 67, "velocity": 95, "duration": 234}, {"note": 0, "velocity": 0, "duration": 246}, {"note": 69, "velocity": 102, "duration": 188}, {"note": 76, "velocity": 107, "duration": 221}, {"note": 74, "velocity": 107, "duration": 215}, {"note": 0, "velocity": 0, "duration": 265}, {"note": 74, "velocity": 127, "duration": 142}, {"note": 76, "velocity": 97, "duration": 107}, {"note": 72, "velocity": 102, "duration": 760}, {"note": 0, "velocity": 0, "duration": 680}, {"note": 69, "velocity": 112, "duration": 205}, {"note": 72, "velocity": 117, "duration": 171}, {"note": 0, "velocity": 0, "duration": 69}, {"note": 72, "velocity": 117, "duration": 408}, {"note": 0, "velocity": 0, "duration": 312}, {"note": 72, "velocity": 117, "duration": 166}, {"note": 0, "velocity": 0, "duration": 74}, {"note": 74, "velocity": 100, "duration": 157}, {"note": 0, "velocity": 0, "duration": 83}, {"note": 77, "velocity": 107, "duration": 180}, {"note": 74, "velocity": 100, "duration": 202}, {"note": 72, "velocity": 107, "duration": 173}, {"note": 0, "velocity": 0, "duration": 67}, {"note": 69, "velocity": 99, "duration": 638}, {"note": 0, "velocity": 0, "duration": 802}, {"note": 62, "velocity": 107, "duration": 199}, {"note": 65, "velocity": 112, "duration": 176}, {"note": 0, "velocity": 0, "duration": 64}, {"note": 67, "velocity": 107, "duration": 337}, {"note": 0, "velocity": 0, "duration": 383}, {"note": 69, "velocity": 95, "duration": 163}, {"note": 0, "velocity": 0, "duration": 77}, {"note": 72, "velocity": 100, "duration": 176}, {"note": 0, "velocity": 0, "duration": 64}, {"note": 74, "velocity": 96, "duration": 168}, {"note": 0, "velocity": 0, "duration": 72}, {"note": 74, "velocity": 112, "duration": 179}, {"note": 0, "velocity": 0, "duration": 61}, {"note": 72, "velocity": 97, "duration": 255}, {"note": 0, "velocity": 0, "duration": 225}, {"note": 69, "velocity": 95, "duration": 467}, {"note": 0, "velocity": 0, "duration": 733}, {"note": 69, "velocity": 100, "duration": 186}, {"note": 72, "velocity": 117, "duration": 176}, {"note": 0, "velocity": 0, "duration": 64}, {"note": 72, "velocity": 117, "duration": 369}, {"note": 0, "velocity": 0, "duration": 351}, {"note": 69, "velocity": 99, "duration": 168}, {"note": 0, "velocity": 0, "duration": 72}, {"note": 77, "velocity": 112, "duration": 171}, {"note": 0, "velocity": 0, "duration": 69}, {"note": 76, "velocity": 99, "duration": 175}, {"note": 0, "velocity": 0, "duration": 65}, {"note": 74, "velocity": 117, "duration": 174}, {"note": 0, "velocity": 0, "duration": 66}, {"note": 72, "velocity": 107, "duration": 190}, {"note": 74, "velocity": 99, "duration": 327}, {"note": 0, "velocity": 0, "duration": 1113}, {"note": 72, "velocity": 112, "duration": 222}, {"note": 69, "velocity": 99, "duration": 224}, {"note": 67, "velocity": 96, "duration": 126}, {"note": 0, "velocity": 0, "duration": 114}, {"note": 67, "velocity": 100, "duration": 286}, {"note": 0, "velocity": 0, "duration": 194}, {"note": 69, "velocity": 97, "duration": 187}, {"note": 72, "velocity": 117, "duration": 197}, {"note": 74, "velocity": 107, "duration": 149}, {"note": 0, "velocity": 0, "duration": 91}, {"note": 67, "velocity": 100, "duration": 237}, {"note": 69, "velocity": 112, "duration": 218}, {"note": 65, "velocity": 100, "duration": 630}, {"note": 0, "velocity": 0, "duration": 16650}, {"note": 60, "velocity": 77, "duration": 240}, {"note": 62, "velocity": 89, "duration": 227}, {"note": 65, "velocity": 99, "duration": 190}, {"note": 72, "velocity": 100, "duration": 236}, {"note": 69, "velocity": 86, "duration": 373}, {"note": 0, "velocity": 0, "duration": 107}, {"note": 67, "velocity": 88, "duration": 230}, {"note": 65, "velocity": 74, "duration": 189}, {"note": 62, "velocity": 79, "duration": 235}, {"note": 60, "velocity": 78, "duration": 519}, {"note": 0, "velocity": 0, "duration": 1161}, {"note": 65, "velocity": 89, "duration": 215}, {"note": 67, "velocity": 74, "duration": 227}, {"note": 69, "velocity": 73, "duration": 284}, {"note": 74, "velocity": 95, "duration": 189}, {"note": 74, "velocity": 93, "duration": 268}, {"note": 69, "velocity": 95, "duration": 460}, {"note": 72, "velocity": 89, "duration": 221}, {"note": 67, "velocity": 74, "duration": 989}, {"note": 0, "velocity": 0, "duration": 931}, {"note": 69, "velocity": 96, "duration": 221}, {"note": 72, "velocity": 92, "duration": 213}, {"note": 0, "velocity": 0, "duration": 267}, {"note": 65, "velocity": 97, "duration": 201}, {"note": 62, "velocity": 88, "duration": 566}, {"note": 0, "velocity": 0, "duration": 154}, {"note": 69, "velocity": 99, "duration": 144}, {"note": 0, "velocity": 0, "duration": 96}, {"note": 67, "velocity": 99, "duration": 207}, {"note": 65, "velocity": 86, "duration": 229}, {"note": 0, "velocity": 0, "duration": 251}, {"note": 67, "velocity": 90, "duration": 117}, {"note": 65, "velocity": 62, "duration": 120}, {"note": 62, "velocity": 81, "duration": 477}, {"note": 0, "velocity": 0, "duration": 483}, {"note": 60, "velocity": 96, "duration": 228}, {"note": 62, "velocity": 85, "duration": 242}, {"note": 65, "velocity": 88, "duration": 232}, {"note": 69, "velocity": 79, "duration": 247}, {"note": 67, "velocity": 79, "duration": 238}, {"note": 65, "velocity": 95, "duration": 165}, {"note": 0, "velocity": 0, "duration": 75}, {"note": 67, "velocity": 99, "duration": 217}, {"note": 69, "velocity": 99, "duration": 232}, {"note": 65, "velocity": 92, "duration": 1158}, {"note": 0, "velocity": 0, "duration": 522}, {"note": 72, "velocity": 127, "duration": 168}, {"note": 0, "velocity": 0, "duration": 72}, {"note": 72, "velocity": 99, "duration": 571}, {"note": 0, "velocity": 0, "duration": 149}, {"note": 72, "velocity": 127, "duration": 198}, {"note": 74, "velocity": 112, "duration": 274}, {"note": 77, "velocity": 112, "duration": 162}, {"note": 0, "velocity": 0, "duration": 78}, {"note": 74, "velocity": 99, "duration": 195}, {"note": 72, "velocity": 117, "duration": 242}, {"note": 69, "velocity": 97, "duration": 440}, {"note": 0, "velocity": 0, "duration": 1000}, {"note": 62, "velocity": 107, "duration": 182}, {"note": 65, "velocity": 99, "duration": 179}, {"note": 0, "velocity": 0, "duration": 61}, {"note": 67, "velocity": 95, "duration": 444}, {"note": 0, "velocity": 0, "duration": 276}, {"note": 69, "velocity": 97, "duration": 174}, {"note": 0, "velocity": 0, "duration": 66}, {"note": 72, "velocity": 112, "duration": 212}, {"note": 74, "velocity": 89, "duration": 164}, {"note": 0, "velocity": 0, "duration": 76}, {"note": 74, "velocity": 93, "duration": 213}, {"note": 72, "velocity": 102, "duration": 228}, {"note": 69, "velocity": 97, "duration": 592}, {"note": 0, "velocity": 0, "duration": 848}, {"note": 69, "velocity": 112, "duration": 205}, {"note": 72, "velocity": 117, "duration": 171}, {"note": 0, "velocity": 0, "duration": 69}, {"note": 72, "velocity": 117, "duration": 408}, {"note": 0, "velocity": 0, "duration": 312}, {"note": 69, "velocity": 99, "duration": 160}, {"note": 0, "velocity": 0, "duration": 80}, {"note": 77, "velocity": 107, "duration": 180}, {"note": 76, "velocity": 99, "duration": 157}, {"note": 0, "velocity": 0, "duration": 83}, {"note": 74, "velocity": 102, "duration": 176}, {"note": 0, "velocity": 0, "duration": 64}, {"note": 72, "velocity": 107, "duration": 190}, {"note": 74, "velocity": 99, "duration": 426}, {"note": 0, "velocity": 0, "duration": 1014}, {"note": 72, "velocity": 112, "duration": 210}, {"note": 69, "velocity": 99, "duration": 231}, {"note": 67, "velocity": 93, "duration": 207}, {"note": 67, "velocity": 95, "duration": 234}, {"note": 0, "velocity": 0, "duration": 246}, {"note": 69, "velocity": 102, "duration": 188}, {"note": 76, "velocity": 107, "duration": 221}, {"note": 74, "velocity": 107, "duration": 215}, {"note": 0, "velocity": 0, "duration": 265}, {"note": 74, "velocity": 127, "duration": 142}, {"note": 76, "velocity": 97, "duration": 107}, {"note": 72, "velocity": 102, "duration": 760}, {"note": 0, "velocity": 0, "duration": 680}, {"note": 69, "velocity": 112, "duration": 205}, {"note": 72, "velocity": 117, "duration": 171}, {"note": 0, "velocity": 0, "duration": 69}, {"note": 72, "velocity": 117, "duration": 408}, {"note": 0, "velocity": 0, "duration": 312}, {"note": 72, "velocity": 117, "duration": 166}, {"note": 0, "velocity": 0, "duration": 74}, {"note": 74, "velocity": 100, "duration": 157}, {"note": 0, "velocity": 0, "duration": 83}, {"note": 77, "velocity": 107, "duration": 180}, {"note": 74, "velocity": 100, "duration": 202}, {"note": 72, "velocity": 107, "duration": 173}, {"note": 0, "velocity": 0, "duration": 67}, {"note": 69, "velocity": 99, "duration": 638}, {"note": 0, "velocity": 0, "duration": 802}, {"note": 62, "velocity": 107, "duration": 199}, {"note": 65, "velocity": 112, "duration": 176}, {"note": 0, "velocity": 0, "duration": 64}, {"note": 67, "velocity": 107, "duration": 337}, {"note": 0, "velocity": 0, "duration": 383}, {"note": 69, "velocity": 95, "duration": 163}, {"note": 0, "velocity": 0, "duration": 77}, {"note": 72, "velocity": 100, "duration": 176}, {"note": 0, "velocity": 0, "duration": 64}, {"note": 74, "velocity": 96, "duration": 168}, {"note": 0, "velocity": 0, "duration": 72}, {"note": 74, "velocity": 112, "duration": 179}, {"note": 0, "velocity": 0, "duration": 61}, {"note": 72, "velocity": 97, "duration": 255}, {"note": 0, "velocity": 0, "duration": 225}, {"note": 69, "velocity": 95, "duration": 467}, {"note": 0, "velocity": 0, "duration": 733}, {"note": 69, "velocity": 100, "duration": 186}, {"note": 72, "velocity": 117, "duration": 176}, {"note": 0, "velocity": 0, "duration": 64}, {"note": 72, "velocity": 117, "duration": 369}, {"note": 0, "velocity": 0, "duration": 351}, {"note": 69, "velocity": 99, "duration": 168}, {"note": 0, "velocity": 0, "duration": 72}, {"note": 77, "velocity": 112, "duration": 171}, {"note": 0, "velocity": 0, "duration": 69}, {"note": 76, "velocity": 99, "duration": 175}, {"note": 0, "velocity": 0, "duration": 65}, {"note": 74, "velocity": 117, "duration": 174}, {"note": 0, "velocity": 0, "duration": 66}, {"note": 72, "velocity": 107, "duration": 190}, {"note": 74, "velocity": 99, "duration": 327}, {"note": 0, "velocity": 0, "duration": 1113}, {"note": 72, "velocity": 112, "duration": 222}, {"note": 69, "velocity": 99, "duration": 224}, {"note": 67, "velocity": 96, "duration": 126}, {"note": 0, "velocity": 0, "duration": 114}, {"note": 67, "velocity": 100, "duration": 286}, {"note": 0, "velocity": 0, "duration": 194}, {"note": 69, "velocity": 97, "duration": 187}, {"note": 72, "velocity": 117, "duration": 197}, {"note": 74, "velocity": 107, "duration": 149}, {"note": 0, "velocity": 0, "duration": 91}, {"note": 67, "velocity": 100, "duration": 237}, {"note": 69, "velocity": 112, "duration": 218}, {"note": 65, "velocity": 100, "duration": 630}, {"note": 0, "velocity": 0, "duration": 810}, {"note": 72, "velocity": 117, "duration": 192}, {"note": 69, "velocity": 93, "duration": 226}, {"note": 67, "velocity": 60, "duration": 214}, {"note": 67, "velocity": 90, "duration": 405}, {"note": 0, "velocity": 0, "duration": 222}, {"note": 69, "velocity": 95, "duration": 306}, {"note": 72, "velocity": 97, "duration": 517}, {"note": 74, "velocity": 92, "duration": 326}, {"note": 67, "velocity": 78, "duration": 587}, {"note": 69, "velocity": 77, "duration": 1164}, {"note": 65, "velocity": 97, "duration": 2124}]]