[[{"note": 59, "velocity": 95, "duration": 196}, {"note": 62, "velocity": 82, "duration": 129}, {"note": 0, "velocity": 0, "duration": 111}, {"note": 62, "velocity": 95, "duration": 296}, {"note": 0, "velocity": 0, "duration": 184}, {"note": 62, "velocity": 107, "duration": 246}, {"note": 0, "velocity": 0, "duration": 474}, {"note": 62, "velocity": 96, "duration": 98}, {"note": 0, "velocity": 0, "duration": 142}, {"note": 62, "velocity": 99, "duration": 183}, {"note": 55, "velocity": 88, "duration": 191}, {"note": 57, "velocity": 92, "duration": 325}, {"note": 0, "velocity": 0, "duration": 155}, {"note": 57, "velocity": 93, "duration": 447}, {"note": 57, "velocity": 100, "duration": 208}, {"note": 59, "velocity": 89, "duration": 159}, {"note": 0, "velocity": 0, "duration": 81}, {"note": 60, "velocity": 97, "duration": 135}, {"note": 0, "velocity": 0, "duration": 105}, {"note": 60, "velocity": 89, "duration": 370}, {"note": 0, "velocity": 0, "duration": 110}, {"note": 60, "velocity": 112, "duration": 212}, {"note": 0, "velocity": 0, "duration": 268}, {"note": 60, "velocity": 100, "duration": 213}, {"note": 0, "velocity": 0, "duration": 267}, {"note": 60, "velocity": 86, "duration": 213}, {"note": 59, "velocity": 88, "duration": 165}, {"note": 0, "velocity": 0, "duration": 75}, {"note": 55, "velocity": 85, "duration": 250}, {"note": 57, "velocity": 92, "duration": 262}, {"note": 0, "velocity": 0, "duration": 218}, {"note": 57, "velocity": 92, "duration": 582}, {"note": 52, "velocity": 72, "duration": 215}, {"note": 50, "velocity": 69, "duration": 214}, {"note": 0, "velocity": 0, "duration": 506}, {"note": 59, "velocity": 92, "duration": 132}, {"note": 0, "velocity": 0, "duration": 108}, {"note": 62, "velocity": 92, "duration": 115}, {"note": 0, "velocity": 0, "duration": 125}, {"note": 64, "velocity": 97, "duration": 262}, {"note": 62, "velocity": 96, "duration": 278}, {"note": 0, "velocity": 0, "duration": 202}, {"note": 62, "velocity": 95, "duration": 142}, {"note": 0, "velocity": 0, "duration": 98}, {"note": 64, "velocity": 97, "duration": 184}, {"note": 67, "velocity": 96, "duration": 82}, {"note": 0, "velocity": 0, "duration": 158}, {"note": 64, "velocity": 97, "duration": 349}, {"note": 0, "velocity": 0, "duration": 131}, {"note": 69, "velocity": 97, "duration": 269}, {"note": 0, "velocity": 0, "duration": 211}, {"note": 64, "velocity": 97, "duration": 202}, {"note": 62, "velocity": 86, "duration": 213}, {"note": 67, "velocity": 100, "duration": 239}, {"note": 65, "velocity": 86, "duration": 130}, {"note": 0, "velocity": 0, "duration": 110}, {"note": 65, "velocity": 89, "duration": 231}, {"note": 64, "velocity": 79, "duration": 148}, {"note": 0, "velocity": 0, "duration": 92}, {"note": 64, "velocity": 88, "duration": 233}, {"note": 62, "velocity": 72, "duration": 122}, {"note": 0, "velocity": 0, "duration": 118}, {"note": 62, "velocity": 95, "duration": 217}, {"note": 60, "velocity": 97, "duration": 362}, {"note": 0, "velocity": 0, "duration": 838}, {"note": 62, "velocity": 96, "duration": 91}, {"note": 0, "velocity": 0, "duration": 149}, {"note": 55, "velocity": 78, "duration": 121}, {"note": 0, "velocity": 0, "duration": 119}, {"note": 57, "velocity": 86, "duration": 88}, {"note": 0, "velocity": 0, "duration": 152}, {"note": 59, "velocity": 89, "duration": 524}, {"note": 60, "velocity": 86, "duration": 268}, {"note": 59, "velocity": 85, "duration": 1338}, {"note": 0, "velocity": 0, "duration": 5862}, {"note": 59, "velocity": 95, "duration": 196}, {"note": 62, "velocity": 82, "duration": 129}, {"note": 0, "velocity": 0, "duration": 111}, {"note": 62, "velocity": 95, "duration": 296}, {"note": 0, "velocity": 0, "duration": 184}, {"note": 62, "velocity": 107, "duration": 246}, {"note": 0, "velocity": 0, "duration": 474}, {"note": 62, "velocity": 96, "duration": 98}, {"note": 0, "velocity": 0, "duration": 142}, {"note": 62, "velocity": 99, "duration": 183}, {"note": 55, "velocity": 88, "duration": 191}, {"note": 57, "velocity": 92, "duration": 325}, {"note": 0, "velocity": 0, "duration": 155}, {"note": 57, "velocity": 93, "duration": 447}, {"note": 57, "velocity": 100, "duration": 208}, {"note": 59, "velocity": 89, "duration": 159}, {"note": 0, "velocity": 0, "duration": 81}, {"note": 60, "velocity": 97, "duration": 135}, {"note": 0, "velocity": 0, "duration": 105}, {"note": 60, "velocity": 89, "duration": 370}, {"note": 0, "velocity": 0, "duration": 110}, {"note": 60, "velocity": 112, "duration": 212}, {"note": 62, "velocity": 102, "duration": 142}, {"note": 0, "velocity": 0, "duration": 98}, {"note": 60, "velocity": 100, "duration": 213}, {"note": 0, "velocity": 0, "duration": 267}, {"note": 60, "velocity": 86, "duration": 213}, {"note": 59, "velocity": 88, "duration": 165}, {"note": 0, "velocity": 0, "duration": 75}, {"note": 55, "velocity": 85, "duration": 250}, {"note": 57, "velocity": 92, "duration": 262}, {"note": 0, "velocity": 0, "duration": 218}, {"note": 57, "velocity": 92, "duration": 582}, {"note": 52, "velocity": 72, "duration": 215}, {"note": 50, "velocity": 69, "duration": 214}, {"note": 0, "velocity": 0, "duration": 506}, {"note": 59, "velocity": 92, "duration": 132}, {"note": 0, "velocity": 0, "duration": 108}, {"note": 62, "velocity": 92, "duration": 115}, {"note": 0, "velocity": 0, "duration": 125}, {"note": 64, "velocity": 97, "duration": 262}, {"note": 62, "velocity": 96, "duration": 278}, {"note": 0, "velocity": 0, "duration": 202}, {"note": 62, "velocity": 95, "duration": 142}, {"note": 0, "velocity": 0, "duration": 98}, {"note": 64, "velocity": 97, "duration": 184}, {"note": 67, "velocity": 96, "duration": 82}, {"note": 0, "velocity": 0, "duration": 158}, {"note": 64, "velocity": 97, "duration": 349}, {"note": 0, "velocity": 0, "duration": 131}, {"note": 69, "velocity": 97, "duration": 269}, {"note": 0, "velocity": 0, "duration": 211}, {"note": 64, "velocity": 97, "duration": 202}, {"note": 62, "velocity": 86, "duration": 213}, {"note": 67, "velocity": 100, "duration": 239}, {"note": 65, "velocity": 86, "duration": 130}, {"note": 0, "velocity": 0, "duration": 110}, {"note": 65, "velocity": 89, "duration": 231}, {"note": 64, "velocity": 79, "duration": 148}, {"note": 0, "velocity": 0, "duration": 92}, {"note": 64, "velocity": 88, "duration": 233}, {"note": 62, "velocity": 72, "duration": 122}, {"note": 0, "velocity": 0, "duration": 118}, {"note": 62, "velocity": 95, "duration": 217}, {"note": 60, "velocity": 97, "duration": 362}, {"note": 0, "velocity": 0, "duration": 838}, {"note": 62, "velocity": 96, "duration": 91}, {"note": 0, "velocity": 0, "duration": 149}, {"note": 55, "velocity": 78, "duration": 121}, {"note": 0, "velocity": 0, "duration": 119}, {"note": 57, "velocity": 86, "duration": 88}, {"note": 0, "velocity": 0, "duration": 152}, {"note": 59, "velocity": 89, "duration": 240}, {"note": 62, "velocity": 97, "duration": 2048}, {"note": 0, "velocity": 0, "duration": 1312}, {"note": 64, "velocity": 112, "duration": 217}, {"note": 62, "velocity": 93, "duration": 156}, {"note": 0, "velocity": 0, "duration": 84}, {"note": 69, "velocity": 127, "duration": 206}, {"note": 71, "velocity": 92, "duration": 96}, {"note": 0, "velocity": 0, "duration": 144}, {"note": 71, "velocity": 102, "duration": 116}, {"note": 0, "velocity": 0, "duration": 124}, {"note": 71, "velocity": 112, "duration": 169}, {"note": 0, "velocity": 0, "duration": 71}, {"note": 71, "velocity": 117, "duration": 181}, {"note": 71, "velocity": 102, "duration": 351}, {"note": 0, "velocity": 0, "duration": 129}, {"note": 71, "velocity": 102, "duration": 173}, {"note": 0, "velocity": 0, "duration": 67}, {"note": 69, "velocity": 107, "duration": 197}, {"note": 62, "velocity": 88, "duration": 219}, {"note": 64, "velocity": 96, "duration": 426}, {"note": 62, "velocity": 96, "duration": 240}, {"note": 0, "velocity": 0, "duration": 360}, {"note": 62, "velocity": 112, "duration": 172}, {"note": 0, "velocity": 0, "duration": 68}, {"note": 59, "velocity": 90, "duration": 178}, {"note": 0, "velocity": 0, "duration": 62}, {"note": 64, "velocity": 102, "duration": 308}, {"note": 67, "velocity": 127, "duration": 268}, {"note": 0, "velocity": 0, "duration": 212}, {"note": 67, "velocity": 100, "duration": 101}, {"note": 0, "velocity": 0, "duration": 139}, {"note": 69, "velocity": 117, "duration": 240}, {"note": 67, "velocity": 97, "duration": 369}, {"note": 0, "velocity": 0, "duration": 111}, {"note": 67, "velocity": 107, "duration": 146}, {"note": 0, "velocity": 0, "duration": 94}, {"note": 66, "velocity": 112, "duration": 204}, {"note": 62, "velocity": 95, "duration": 253}, {"note": 64, "velocity": 100, "duration": 434}, {"note": 62, "velocity": 95, "duration": 282}, {"note": 0, "velocity": 0, "duration": 918}, {"note": 64, "velocity": 112, "duration": 84}, {"note": 0, "velocity": 0, "duration": 156}, {"note": 64, "velocity": 96, "duration": 97}, {"note": 0, "velocity": 0, "duration": 143}, {"note": 64, "velocity": 99, "duration": 92}, {"note": 0, "velocity": 0, "duration": 148}, {"note": 65, "velocity": 127, "duration": 219}, {"note": 64, "velocity": 93, "duration": 293}, {"note": 0, "velocity": 0, "duration": 187}, {"note": 64, "velocity": 112, "duration": 92}, {"note": 0, "velocity": 0, "duration": 148}, {"note": 62, "velocity": 93, "duration": 129}, {"note": 0, "velocity": 0, "duration": 111}, {"note": 59, "velocity": 97, "duration": 225}, {"note": 69, "velocity": 107, "duration": 425}, {"note": 67, "velocity": 112, "duration": 373}, {"note": 0, "velocity": 0, "duration": 347}, {"note": 67, "velocity": 100, "duration": 84}, {"note": 0, "velocity": 0, "duration": 156}, {"note": 71, "velocity": 99, "duration": 209}, {"note": 67, "velocity": 93, "duration": 254}, {"note": 69, "velocity": 102, "duration": 332}, {"note": 0, "velocity": 0, "duration": 148}, {"note": 64, "velocity": 93, "duration": 230}, {"note": 62, "velocity": 92, "duration": 517}, {"note": 0, "velocity": 0, "duration": 203}, {"note": 71, "velocity": 112, "duration": 74}, {"note": 0, "velocity": 0, "duration": 166}, {"note": 67, "velocity": 95, "duration": 78}, {"note": 0, "velocity": 0, "duration": 162}, {"note": 71, "velocity": 100, "duration": 74}, {"note": 0, "velocity": 0, "duration": 166}, {"note": 67, "velocity": 102, "duration": 74}, {"note": 0, "velocity": 0, "duration": 166}, {"note": 69, "velocity": 127, "duration": 336}, {"note": 0, "velocity": 0, "duration": 144}, {"note": 64, "velocity": 112, "duration": 217}, {"note": 62, "velocity": 93, "duration": 156}, {"note": 0, "velocity": 0, "duration": 84}, {"note": 69, "velocity": 127, "duration": 206}, {"note": 71, "velocity": 92, "duration": 96}, {"note": 0, "velocity": 0, "duration": 144}, {"note": 71, "velocity": 102, "duration": 116}, {"note": 0, "velocity": 0, "duration": 124}, {"note": 71, "velocity": 112, "duration": 169}, {"note": 0, "velocity": 0, "duration": 71}, {"note": 71, "velocity": 117, "duration": 181}, {"note": 71, "velocity": 102, "duration": 351}, {"note": 0, "velocity": 0, "duration": 129}, {"note": 71, "velocity": 102, "duration": 173}, {"note": 0, "velocity": 0, "duration": 67}, {"note": 69, "velocity": 107, "duration": 197}, {"note": 71, "velocity": 99, "duration": 106}, {"note": 0, "velocity": 0, "duration": 134}, {"note": 69, "velocity": 107, "duration": 191}, {"note": 0, "velocity": 0, "duration": 289}, {"note": 62, "velocity": 100, "duration": 168}, {"note": 0, "velocity": 0, "duration": 312}, {"note": 62, "velocity": 112, "duration": 172}, {"note": 0, "velocity": 0, "duration": 68}, {"note": 59, "velocity": 90, "duration": 178}, {"note": 0, "velocity": 0, "duration": 62}, {"note": 64, "velocity": 102, "duration": 308}, {"note": 67, "velocity": 127, "duration": 268}, {"note": 0, "velocity": 0, "duration": 212}, {"note": 67, "velocity": 100, "duration": 101}, {"note": 0, "velocity": 0, "duration": 139}, {"note": 69, "velocity": 117, "duration": 240}, {"note": 67, "velocity": 97, "duration": 369}, {"note": 0, "velocity": 0, "duration": 111}, {"note": 67, "velocity": 107, "duration": 146}, {"note": 0, "velocity": 0, "duration": 94}, {"note": 66, "velocity": 112, "duration": 204}, {"note": 69, "velocity": 107, "duration": 112}, {"note": 0, "velocity": 0, "duration": 128}, {"note": 64, "velocity": 96, "duration": 463}, {"note": 62, "velocity": 96, "duration": 184}, {"note": 0, "velocity": 0, "duration": 296}, {"note": 57, "velocity": 95, "duration": 191}, {"note": 55, "velocity": 73, "duration": 150}, {"note": 0, "velocity": 0, "duration": 330}, {"note": 64, "velocity": 112, "duration": 84}, {"note": 0, "velocity": 0, "duration": 156}, {"note": 64, "velocity": 96, "duration": 97}, {"note": 0, "velocity": 0, "duration": 143}, {"note": 64, "velocity": 99, "duration": 92}, {"note": 0, "velocity": 0, "duration": 148}, {"note": 65, "velocity": 127, "duration": 219}, {"note": 64, "velocity": 93, "duration": 293}, {"note": 0, "velocity": 0, "duration": 187}, {"note": 64, "velocity": 112, "duration": 92}, {"note": 0, "velocity": 0, "duration": 148}, {"note": 62, "velocity": 93, "duration": 129}, {"note": 0, "velocity": 0, "duration": 111}, {"note": 59, "velocity": 97, "duration": 225}, {"note": 69, "velocity": 107, "duration": 425}, {"note": 67, "velocity": 112, "duration": 142}, {"note": 0, "velocity": 0, "duration": 98}, {"note": 64, "velocity": 112, "duration": 168}, {"note": 0, "velocity": 0, "duration": 72}, {"note": 64, "velocity": 99, "duration": 130}, {"note": 0, "velocity": 0, "duration": 110}, {"note": 62, "velocity": 102, "duration": 117}, {"note": 0, "velocity": 0, "duration": 123}, {"note": 67, "velocity": 117, "duration": 201}, {"note": 65, "velocity": 97, "duration": 96}, {"note": 0, "velocity": 0, "duration": 144}, {"note": 65, "velocity": 107, "duration": 247}, {"note": 64, "velocity": 95, "duration": 83}, {"note": 0, "velocity": 0, "duration": 157}, {"note": 64, "velocity": 102, "duration": 233}, {"note": 62, "velocity": 89, "duration": 87}, {"note": 0, "velocity": 0, "duration": 153}, {"note": 62, "velocity": 102, "duration": 204}, {"note": 60, "velocity": 89, "duration": 267}, {"note": 0, "velocity": 0, "duration": 933}, {"note": 62, "velocity": 95, "duration": 205}, {"note": 55, "velocity": 85, "duration": 198}, {"note": 57, "velocity": 85, "duration": 170}, {"note": 0, "velocity": 0, "duration": 70}, {"note": 59, "velocity": 85, "duration": 430}, {"note": 0, "velocity": 0, "duration": 170}, {"note": 55, "velocity": 95, "duration": 1725}, {"note": 0, "velocity": 0, "duration": 23835}, {"note": 59, "velocity": 95, "duration": 196}, {"note": 62, "velocity": 82, "duration": 129}, {"note": 0, "velocity": 0, "duration": 111}, {"note": 62, "velocity": 95, "duration": 296}, {"note": 0, "velocity": 0, "duration": 184}, {"note": 62, "velocity": 107, "duration": 246}, {"note": 0, "velocity": 0, "duration": 474}, {"note": 62, "velocity": 96, "duration": 98}, {"note": 0, "velocity": 0, "duration": 142}, {"note": 62, "velocity": 99, "duration": 183}, {"note": 55, "velocity": 88, "duration": 191}, {"note": 57, "velocity": 92, "duration": 325}, {"note": 0, "velocity": 0, "duration": 155}, {"note": 57, "velocity": 93, "duration": 447}, {"note": 57, "velocity": 100, "duration": 208}, {"note": 59, "velocity": 89, "duration": 159}, {"note": 0, "velocity": 0, "duration": 81}, {"note": 60, "velocity": 97, "duration": 135}, {"note": 0, "velocity": 0, "duration": 105}, {"note": 60, "velocity": 89, "duration": 370}, {"note": 0, "velocity": 0, "duration": 110}, {"note": 60, "velocity": 112, "duration": 212}, {"note": 62, "velocity": 102, "duration": 142}, {"note": 0, "velocity": 0, "duration": 98}, {"note": 60, "velocity": 100, "duration": 213}, {"note": 0, "velocity": 0, "duration": 267}, {"note": 60, "velocity": 86, "duration": 213}, {"note": 59, "velocity": 88, "duration": 165}, {"note": 0, "velocity": 0, "duration": 75}, {"note": 55, "velocity": 85, "duration": 250}, {"note": 57, "velocity": 92, "duration": 262}, {"note": 0, "velocity": 0, "duration": 218}, {"note": 57, "velocity": 92, "duration": 582}, {"note": 52, "velocity": 72, "duration": 215}, {"note": 50, "velocity": 69, "duration": 214}, {"note": 0, "velocity": 0, "duration": 506}, {"note": 59, "velocity": 92, "duration": 132}, {"note": 0, "velocity": 0, "duration": 108}, {"note": 62, "velocity": 92, "duration": 115}, {"note": 0, "velocity": 0, "duration": 125}, {"note": 64, "velocity": 97, "duration": 262}, {"note": 62, "velocity": 96, "duration": 278}, {"note": 0, "velocity": 0, "duration": 202}, {"note": 62, "velocity": 95, "duration": 142}, {"note": 0, "velocity": 0, "duration": 98}, {"note": 64, "velocity": 97, "duration": 184}, {"note": 67, "velocity": 96, "duration": 82}, {"note": 0, "velocity": 0, "duration": 158}, {"note": 64, "velocity": 97, "duration": 349}, {"note": 0, "velocity": 0, "duration": 131}, {"note": 69, "velocity": 97, "duration": 269}, {"note": 0, "velocity": 0, "duration": 211}, {"note": 64, "velocity": 97, "duration": 202}, {"note": 62, "velocity": 86, "duration": 213}, {"note": 67, "velocity": 100, "duration": 239}, {"note": 65, "velocity": 86, "duration": 130}, {"note": 0, "velocity": 0, "duration": 110}, {"note": 65, "velocity": 89, "duration": 231}, {"note": 64, "velocity": 79, "duration": 148}, {"note": 0, "velocity": 0, "duration": 92}, {"note": 64, "velocity": 88, "duration": 233}, {"note": 62, "velocity": 72, "duration": 122}, {"note": 0, "velocity": 0, "duration": 118}, {"note": 62, "velocity": 95, "duration": 217}, {"note": 60, "velocity": 97, "duration": 362}, {"note": 0, "velocity": 0, "duration": 838}, {"note": 62, "velocity": 96, "duration": 91}, {"note": 0, "velocity": 0, "duration": 149}, {"note": 55, "velocity": 78, "duration": 121}, {"note": 0, "velocity": 0, "duration": 119}, {"note": 57, "velocity": 86, "duration": 88}, {"note": 0, "velocity": 0, "duration": 152}, {"note": 59, "velocity": 89, "duration": 240}, {"note": 62, "velocity": 97, "duration": 2048}, {"note": 0, "velocity": 0, "duration": 1312}, {"note": 64, "velocity": 112, "duration": 217}, {"note": 62, "velocity": 93, "duration": 156}, {"note": 0, "velocity": 0, "duration": 84}, {"note": 69, "velocity": 127, "duration": 206}, {"note": 71, "velocity": 92, "duration": 96}, {"note": 0, "velocity": 0, "duration": 144}, {"note": 71, "velocity": 102, "duration": 116}, {"note": 0, "velocity": 0, "duration": 124}, {"note": 71, "velocity": 112, "duration": 169}, {"note": 0, "velocity": 0, "duration": 71}, {"note": 71, "velocity": 117, "duration": 181}, {"note": 71, "velocity": 102, "duration": 351}, {"note": 0, "velocity": 0, "duration": 129}, {"note": 71, "velocity": 102, "duration": 173}, {"note": 0, "velocity": 0, "duration": 67}, {"note": 69, "velocity": 107, "duration": 197}, {"note": 62, "velocity": 88, "duration": 219}, {"note": 64, "velocity": 96, "duration": 426}, {"note": 62, "velocity": 96, "duration": 240}, {"note": 0, "velocity": 0, "duration": 240}, {"note": 62, "velocity": 112, "duration": 172}, {"note": 0, "velocity": 0, "duration": 68}, {"note": 59, "velocity": 90, "duration": 178}, {"note": 0, "velocity": 0, "duration": 62}, {"note": 64, "velocity": 102, "duration": 308}, {"note": 67, "velocity": 127, "duration": 268}, {"note": 0, "velocity": 0, "duration": 212}, {"note": 67, "velocity": 100, "duration": 101}, {"note": 0, "velocity": 0, "duration": 139}, {"note": 69, "velocity": 117, "duration": 240}, {"note": 67, "velocity": 97, "duration": 369}, {"note": 0, "velocity": 0, "duration": 111}, {"note": 67, "velocity": 107, "duration": 146}, {"note": 0, "velocity": 0, "duration": 94}, {"note": 66, "velocity": 112, "duration": 204}, {"note": 62, "velocity": 95, "duration": 253}, {"note": 64, "velocity": 100, "duration": 434}, {"note": 62, "velocity": 95, "duration": 282}, {"note": 0, "velocity": 0, "duration": 918}, {"note": 64, "velocity": 112, "duration": 84}, {"note": 0, "velocity": 0, "duration": 156}, {"note": 64, "velocity": 96, "duration": 97}, {"note": 0, "velocity": 0, "duration": 143}, {"note": 64, "velocity": 99, "duration": 92}, {"note": 0, "velocity": 0, "duration": 148}, {"note": 65, "velocity": 127, "duration": 219}, {"note": 64, "velocity": 93, "duration": 293}, {"note": 0, "velocity": 0, "duration": 187}, {"note": 64, "velocity": 112, "duration": 92}, {"note": 0, "velocity": 0, "duration": 148}, {"note": 62, "velocity": 93, "duration": 129}, {"note": 0, "velocity": 0, "duration": 111}, {"note": 59, "velocity": 97, "duration": 225}, {"note": 69, "velocity": 107, "duration": 425}, {"note": 67, "velocity": 112, "duration": 373}, {"note": 0, "velocity": 0, "duration": 347}, {"note": 67, "velocity": 100, "duration": 84}, {"note": 0, "velocity": 0, "duration": 156}, {"note": 71, "velocity": 99, "duration": 209}, {"note": 67, "velocity": 93, "duration": 254}, {"note": 69, "velocity": 102, "duration": 332}, {"note": 0, "velocity": 0, "duration": 148}, {"note": 64, "velocity": 93, "duration": 230}, {"note": 62, "velocity": 92, "duration": 517}, {"note": 0, "velocity": 0, "duration": 203}, {"note": 71, "velocity": 112, "duration": 74}, {"note": 0, "velocity": 0, "duration": 166}, {"note": 67, "velocity": 95, "duration": 78}, {"note": 0, "velocity": 0, "duration": 162}, {"note": 71, "velocity": 100, "duration": 74}, {"note": 0, "velocity": 0, "duration": 166}, {"note": 67, "velocity": 102, "duration": 74}, {"note": 0, "velocity": 0, "duration": 166}, {"note": 69, "velocity": 127, "duration": 336}, {"note": 0, "velocity": 0, "duration": 144}, {"note": 64, "velocity": 112, "duration": 217}, {"note": 62, "velocity": 93, "duration": 156}, {"note": 0, "velocity": 0, "duration": 84}, {"note": 69, "velocity": 127, "duration": 206}, {"note": 71, "velocity": 92, "duration": 96}, {"note": 0, "velocity": 0, "duration": 144}, {"note": 71, "velocity": 102, "duration": 116}, {"note": 0, "velocity": 0, "duration": 124}, {"note": 71, "velocity": 112, "duration": 169}, {"note": 0, "velocity": 0, "duration": 71}, {"note": 71, "velocity": 117, "duration": 181}, {"note": 71, "velocity": 102, "duration": 351}, {"note": 0, "velocity": 0, "duration": 129}, {"note": 71, "velocity": 102, "duration": 173}, {"note": 0, "velocity": 0, "duration": 67}, {"note": 69, "velocity": 107, "duration": 197}, {"note": 71, "velocity": 99, "duration": 106}, {"note": 0, "velocity": 0, "duration": 134}, {"note": 69, "velocity": 107, "duration": 191}, {"note": 0, "velocity": 0, "duration": 289}, {"note": 62, "velocity": 100, "duration": 168}, {"note": 0, "velocity": 0, "duration": 312}, {"note": 62, "velocity": 112, "duration": 172}, {"note": 0, "velocity": 0, "duration": 68}, {"note": 59, "velocity": 90, "duration": 178}, {"note": 0, "velocity": 0, "duration": 62}, {"note": 64, "velocity": 102, "duration": 308}, {"note": 67, "velocity": 127, "duration": 268}, {"note": 0, "velocity": 0, "duration": 212}, {"note": 67, "velocity": 100, "duration": 101}, {"note": 0, "velocity": 0, "duration": 139}, {"note": 69, "velocity": 117, "duration": 240}, {"note": 67, "velocity": 97, "duration": 369}, {"note": 0, "velocity": 0, "duration": 111}, {"note": 67, "velocity": 107, "duration": 146}, {"note": 0, "velocity": 0, "duration": 94}, {"note": 66, "velocity": 112, "duration": 204}, {"note": 69, "velocity": 107, "duration": 112}, {"note": 0, "velocity": 0, "duration": 128}, {"note": 64, "velocity": 96, "duration": 463}, {"note": 62, "velocity": 96, "duration": 184}, {"note": 0, "velocity": 0, "duration": 296}, {"note": 57, "velocity": 95, "duration": 191}, {"note": 55, "velocity": 73, "duration": 150}, {"note": 0, "velocity": 0, "duration": 330}, {"note": 64, "velocity": 112, "duration": 84}, {"note": 0, "velocity": 0, "duration": 156}, {"note": 64, "velocity": 96, "duration": 97}, {"note": 0, "velocity": 0, "duration": 143}, {"note": 64, "velocity": 99, "duration": 92}, {"note": 0, "velocity": 0, "duration": 148}, {"note": 65, "velocity": 127, "duration": 219}, {"note": 64, "velocity": 93, "duration": 293}, {"note": 0, "velocity": 0, "duration": 187}, {"note": 64, "velocity": 112, "duration": 92}, {"note": 0, "velocity": 0, "duration": 148}, {"note": 62, "velocity": 93, "duration": 129}, {"note": 0, "velocity": 0, "duration": 111}, {"note": 59, "velocity": 97, "duration": 225}, {"note": 69, "velocity": 107, "duration": 425}, {"note": 67, "velocity": 112, "duration": 142}, {"note": 0, "velocity": 0, "duration": 98}, {"note": 64, "velocity": 112, "duration": 168}, {"note": 0, "velocity": 0, "duration": 72}, {"note": 64, "velocity": 99, "duration": 130}, {"note": 0, "velocity": 0, "duration": 110}, {"note": 62, "velocity": 102, "duration": 117}, {"note": 0, "velocity": 0, "duration": 123}, {"note": 67, "velocity": 117, "duration": 201}, {"note": 65, "velocity": 97, "duration": 96}, {"note": 0, "velocity": 0, "duration": 144}, {"note": 65, "velocity": 107, "duration": 247}, {"note": 64, "velocity": 95, "duration": 83}, {"note": 0, "velocity": 0, "duration": 157}, {"note": 64, "velocity": 102, "duration": 233}, {"note": 62, "velocity": 89, "duration": 87}, {"note": 0, "velocity": 0, "duration": 153}, {"note": 62, "velocity": 102, "duration": 204}, {"note": 60, "velocity": 89, "duration": 267}, {"note": 0, "velocity": 0, "duration": 933}, {"note": 62, "velocity": 95, "duration": 205}, {"note": 55, "velocity": 85, "duration": 198}, {"note": 57, "velocity": 85, "duration": 170}, {"note": 0, "velocity": 0, "duration": 70}, {"note": 59, "velocity": 85, "duration": 430}, {"note": 62, "velocity": 97, "duration": 730}, {"note": 0, "velocity": 0, "duration": 470}, {"note": 69, "velocity": 117, "duration": 132}, {"note": 0, "velocity": 0, "duration": 108}, {"note": 69, "velocity": 127, "duration": 550}, {"note": 67, "velocity": 100, "duration": 918}, {"note": 0, "velocity": 0, "duration": 282}, {"note": 64, "velocity": 112, "duration": 217}, {"note": 62, "velocity": 93, "duration": 156}, {"note": 0, "velocity": 0, "duration": 84}, {"note": 69, "velocity": 127, "duration": 206}, {"note": 71, "velocity": 92, "duration": 96}, {"note": 0, "velocity": 0, "duration": 144}, {"note": 71, "velocity": 102, "duration": 116}, {"note": 0, "velocity": 0, "duration": 124}, {"note": 71, "velocity": 112, "duration": 169}, {"note": 0, "velocity": 0, "duration": 71}, {"note": 71, "velocity": 117, "duration": 181}, {"note": 71, "velocity": 102, "duration": 351}, {"note": 0, "velocity": 0, "duration": 129}, {"note": 71, "velocity": 102, "duration": 173}, {"note": 0, "velocity": 0, "duration": 67}, {"note": 69, "velocity": 107, "duration": 197}, {"note": 62, "velocity": 88, "duration": 219}, {"note": 64, "velocity": 96, "duration": 426}, {"note": 62, "velocity": 96, "duration": 240}, {"note": 0, "velocity": 0, "duration": 240}, {"note": 62, "velocity": 112, "duration": 172}, {"note": 0, "velocity": 0, "duration": 68}, {"note": 59, "velocity": 90, "duration": 178}, {"note": 0, "velocity": 0, "duration": 62}, {"note": 64, "velocity": 102, "duration": 308}, {"note": 67, "velocity": 127, "duration": 268}, {"note": 0, "velocity": 0, "duration": 212}, {"note": 67, "velocity": 100, "duration": 101}, {"note": 0, "velocity": 0, "duration": 139}, {"note": 69, "velocity": 117, "duration": 240}, {"note": 67, "velocity": 97, "duration": 369}, {"note": 0, "velocity": 0, "duration": 111}, {"note": 67, "velocity": 107, "duration": 146}, {"note": 0, "velocity": 0, "duration": 94}, {"note": 66, "velocity": 112, "duration": 204}, {"note": 62, "velocity": 95, "duration": 253}, {"note": 64, "velocity": 100, "duration": 434}, {"note": 62, "velocity": 95, "duration": 282}, {"note": 0, "velocity": 0, "duration": 918}, {"note": 64, "velocity": 112, "duration": 84}, {"note": 0, "velocity": 0, "duration": 156}, {"note": 64, "velocity": 96, "duration": 97}, {"note": 0, "velocity": 0, "duration": 143}, {"note": 64, "velocity": 99, "duration": 92}, {"note": 0, "velocity": 0, "duration": 148}, {"note": 65, "velocity": 127, "duration": 219}, {"note": 64, "velocity": 93, "duration": 293}, {"note": 0, "velocity": 0, "duration": 187}, {"note": 64, "velocity": 112, "duration": 92}, {"note": 0, "velocity": 0, "duration": 148}, {"note": 62, "velocity": 93, "duration": 129}, {"note": 0, "velocity": 0, "duration": 111}, {"note": 59, "velocity": 97, "duration": 225}, {"note": 69, "velocity": 107, "duration": 425}, {"note": 67, "velocity": 112, "duration": 373}, {"note": 0, "velocity": 0, "duration": 347}, {"note": 67, "velocity": 100, "duration": 84}, {"note": 0, "velocity": 0, "duration": 156}, {"note": 71, "velocity": 99, "duration": 209}, {"note": 67, "velocity": 93, "duration": 254}, {"note": 69, "velocity": 102, "duration": 332}, {"note": 0, "velocity": 0, "duration": 148}, {"note": 64, "velocity": 93, "duration": 230}, {"note": 62, "velocity": 92, "duration": 517}, {"note": 0, "velocity": 0, "duration": 203}, {"note": 71, "velocity": 112, "duration": 74}, {"note": 0, "velocity": 0, "duration": 166}, {"note": 67, "velocity": 95, "duration": 78}, {"note": 0, "velocity": 0, "duration": 162}, {"note": 71, "velocity": 100, "duration": 74}, {"note": 0, "velocity": 0, "duration": 166}, {"note": 67, "velocity": 102, "duration": 74}, {"note": 0, "velocity": 0, "duration": 166}, {"note": 69, "velocity": 127, "duration": 336}, {"note": 0, "velocity": 0, "duration": 144}, {"note": 64, "velocity": 112, "duration": 217}, {"note": 62, "velocity": 93, "duration": 156}, {"note": 0, "velocity": 0, "duration": 84}, {"note": 69, "velocity": 127, "duration": 206}, {"note": 71, "velocity": 92, "duration": 96}, {"note": 0, "velocity": 0, "duration": 144}, {"note": 71, "velocity": 102, "duration": 116}, {"note": 0, "velocity": 0, "duration": 124}, {"note": 71, "velocity": 112, "duration": 169}, {"note": 0, "velocity": 0, "duration": 71}, {"note": 71, "velocity": 117, "duration": 181}, {"note": 71, "velocity": 102, "duration": 351}, {"note": 0, "velocity": 0, "duration": 129}, {"note": 71, "velocity": 102, "duration": 173}, {"note": 0, "velocity": 0, "duration": 67}, {"note": 69, "velocity": 107, "duration": 197}, {"note": 71, "velocity": 99, "duration": 106}, {"note": 0, "velocity": 0, "duration": 134}, {"note": 69, "velocity": 107, "duration": 191}, {"note": 0, "velocity": 0, "duration": 289}, {"note": 62, "velocity": 100, "duration": 168}, {"note": 0, "velocity": 0, "duration": 312}, {"note": 62, "velocity": 112, "duration": 172}, {"note": 0, "velocity": 0, "duration": 68}, {"note": 59, "velocity": 90, "duration": 178}, {"note": 0, "velocity": 0, "duration": 62}, {"note": 64, "velocity": 102, "duration": 308}, {"note": 67, "velocity": 127, "duration": 268}, {"note": 0, "velocity": 0, "duration": 212}, {"note": 67, "velocity": 100, "duration": 101}, {"note": 0, "velocity": 0, "duration": 139}, {"note": 69, "velocity": 117, "duration": 240}, {"note": 67, "velocity": 97, "duration": 369}, {"note": 0, "velocity": 0, "duration": 111}, {"note": 67, "velocity": 107, "duration": 146}, {"note": 0, "velocity": 0, "duration": 94}, {"note": 66, "velocity": 112, "duration": 204}, {"note": 69, "velocity": 107, "duration": 112}, {"note": 0, "velocity": 0, "duration": 128}, {"note": 64, "velocity": 96, "duration": 463}, {"note": 62, "velocity": 96, "duration": 184}, {"note": 0, "velocity": 0, "duration": 296}, {"note": 57, "velocity": 95, "duration": 191}, {"note": 55, "velocity": 73, "duration": 150}, {"note": 0, "velocity": 0, "duration": 330}, {"note": 64, "velocity": 112, "duration": 84}, {"note": 0, "velocity": 0, "duration": 156}, {"note": 64, "velocity": 96, "duration": 97}, {"note": 0, "velocity": 0, "duration": 143}, {"note": 64, "velocity": 99, "duration": 92}, {"note": 0, "velocity": 0, "duration": 148}, {"note": 65, "velocity": 127, "duration": 219}, {"note": 64, "velocity": 93, "duration": 293}, {"note": 0, "velocity": 0, "duration": 187}, {"note": 64, "velocity": 112, "duration": 92}, {"note": 0, "velocity": 0, "duration": 148}, {"note": 62, "velocity": 93, "duration": 129}, {"note": 0, "velocity": 0, "duration": 111}, {"note": 59, "velocity": 97, "duration": 225}, {"note": 69, "velocity": 107, "duration": 425}, {"note": 67, "velocity": 112, "duration": 142}, {"note": 0, "velocity": 0, "duration": 98}, {"note": 64, "velocity": 112, "duration": 168}, {"note": 0, "velocity": 0, "duration": 72}, {"note": 64, "velocity": 99, "duration": 130}, {"note": 0, "velocity": 0, "duration": 110}, {"note": 62, "velocity": 102, "duration": 117}, {"note": 0, "velocity": 0, "duration": 123}, {"note": 67, "velocity": 117, "duration": 201}, {"note": 65, "velocity": 97, "duration": 96}, {"note": 0, "velocity": 0, "duration": 144}, {"note": 65, "velocity": 107, "duration": 247}, {"note": 64, "velocity": 95, "duration": 83}, {"note": 0, "velocity": 0, "duration": 157}, {"note": 64, "velocity": 102, "duration": 233}, {"note": 62, "velocity": 89, "duration": 87}, {"note": 0, "velocity": 0, "duration": 153}, {"note": 62, "velocity": 102, "duration": 204}, {"note": 60, "velocity": 89, "duration": 267}, {"note": 0, "velocity": 0, "duration": 933}, {"note": 62, "velocity": 95, "duration": 205}, {"note": 55, "velocity": 85, "duration": 198}, {"note": 57, "velocity": 85, "duration": 170}, {"note": 0, "velocity": 0, "duration": 70}, {"note": 59, "velocity": 85, "duration": 430}, {"note": 62, "velocity": 97, "duration": 730}, {"note": 0, "velocity": 0, "duration": 710}, {"note": 64, "velocity": 93, "duration": 177}, {"note": 0, "velocity": 0, "duration": 63}, {"note": 62, "velocity": 99, "duration": 355}, {"note": 0, "velocity": 0, "duration": 605}, {"note": 62, "velocity": 93, "duration": 158}, {"note": 0, "velocity": 0, "duration": 82}, {"note": 64, "velocity": 97, "duration": 136}, {"note": 0, "velocity": 0, "duration": 104}, {"note": 66, "velocity": 112, "duration": 374}, {"note": 0, "velocity": 0, "duration": 106}, {"note": 67, "velocity": 117, "duration": 546}, {"note": 0, "velocity": 0, "duration": 654}, {"note": 69, "velocity": 117, "duration": 193}, {"note": 71, "velocity": 102, "duration": 186}, {"note": 62, "velocity": 99, "duration": 255}, {"note": 64, "velocity": 95, "duration": 642}, {"note": 0, "velocity": 0, "duration": 318}, {"note": 62, "velocity": 102, "duration": 208}, {"note": 55, "velocity": 92, "duration": 144}, {"note": 0, "velocity": 0, "duration": 96}, {"note": 57, "velocity": 97, "duration": 509}, {"note": 59, "velocity": 96, "duration": 653}, {"note": 0, "velocity": 0, "duration": 1027}, {"note": 60, "velocity": 112, "duration": 242}, {"note": 57, "velocity": 92, "duration": 709}, {"note": 0, "velocity": 0, "duration": 251}, {"note": 62, "velocity": 102, "duration": 227}, {"note": 64, "velocity": 90, "duration": 116}, {"note": 0, "velocity": 0, "duration": 124}, {"note": 66, "velocity": 112, "duration": 349}, {"note": 0, "velocity": 0, "duration": 131}, {"note": 67, "velocity": 122, "duration": 782}, {"note": 0, "velocity": 0, "duration": 418}, {"note": 69, "velocity": 112, "duration": 118}, {"note": 0, "velocity": 0, "duration": 122}, {"note": 71, "velocity": 112, "duration": 194}, {"note": 62, "velocity": 100, "duration": 234}, {"note": 64, "velocity": 93, "duration": 667}, {"note": 0, "velocity": 0, "duration": 293}, {"note": 62, "velocity": 107, "duration": 218}, {"note": 64, "velocity": 100, "duration": 290}]]