[[{"note": 71, "velocity": 112, "duration": 616}, {"note": 0, "velocity": 0, "duration": 344}, {"note": 70, "velocity": 97, "duration": 239}, {"note": 71, "velocity": 90, "duration": 267}, {"note": 73, "velocity": 88, "duration": 307}, {"note": 0, "velocity": 0, "duration": 173}, {"note": 70, "velocity": 97, "duration": 231}, {"note": 66, "velocity": 93, "duration": 1006}, {"note": 0, "velocity": 0, "duration": 674}, {"note": 71, "velocity": 95, "duration": 528}, {"note": 0, "velocity": 0, "duration": 432}, {"note": 70, "velocity": 100, "duration": 130}, {"note": 0, "velocity": 0, "duration": 110}, {"note": 71, "velocity": 92, "duration": 85}, {"note": 73, "velocity": 112, "duration": 247}, {"note": 0, "velocity": 0, "duration": 113}, {"note": 66, "velocity": 92, "duration": 71}, {"note": 0, "velocity": 0, "duration": 169}, {"note": 75, "velocity": 100, "duration": 599}, {"note": 0, "velocity": 0, "duration": 841}, {"note": 75, "velocity": 107, "duration": 209}, {"note": 78, "velocity": 117, "duration": 174}, {"note": 0, "velocity": 0, "duration": 66}, {"note": 78, "velocity": 122, "duration": 192}, {"note": 71, "velocity": 89, "duration": 58}, {"note": 0, "velocity": 0, "duration": 182}, {"note": 71, "velocity": 112, "duration": 139}, {"note": 73, "velocity": 97, "duration": 55}, {"note": 0, "velocity": 0, "duration": 185}, {"note": 73, "velocity": 107, "duration": 414}, {"note": 0, "velocity": 0, "duration": 186}, {"note": 70, "velocity": 107, "duration": 62}, {"note": 0, "velocity": 0, "duration": 178}, {"note": 78, "velocity": 122, "duration": 133}, {"note": 0, "velocity": 0, "duration": 107}, {"note": 78, "velocity": 127, "duration": 196}, {"note": 71, "velocity": 122, "duration": 81}, {"note": 0, "velocity": 0, "duration": 159}, {"note": 71, "velocity": 117, "duration": 76}, {"note": 0, "velocity": 0, "duration": 164}, {"note": 70, "velocity": 100, "duration": 68}, {"note": 71, "velocity": 127, "duration": 519}, {"note": 0, "velocity": 0, "duration": 81}, {"note": 73, "velocity": 122, "duration": 126}, {"note": 74, "velocity": 100, "duration": 108}, {"note": 73, "velocity": 99, "duration": 312}, {"note": 0, "velocity": 0, "duration": 168}, {"note": 71, "velocity": 107, "duration": 169}, {"note": 75, "velocity": 99, "duration": 146}, {"note": 0, "velocity": 0, "duration": 94}, {"note": 73, "velocity": 93, "duration": 625}, {"note": 0, "velocity": 0, "duration": 455}, {"note": 68, "velocity": 95, "duration": 115}, {"note": 0, "velocity": 0, "duration": 125}, {"note": 71, "velocity": 99, "duration": 450}, {"note": 0, "velocity": 0, "duration": 270}, {"note": 73, "velocity": 102, "duration": 90}, {"note": 0, "velocity": 0, "duration": 150}, {"note": 73, "velocity": 127, "duration": 698}, {"note": 0, "velocity": 0, "duration": 262}, {"note": 71, "velocity": 97, "duration": 377}, {"note": 0, "velocity": 0, "duration": 583}, {"note": 70, "velocity": 97, "duration": 104}, {"note": 0, "velocity": 0, "duration": 136}, {"note": 71, "velocity": 95, "duration": 70}, {"note": 73, "velocity": 107, "duration": 157}, {"note": 0, "velocity": 0, "duration": 83}, {"note": 66, "velocity": 99, "duration": 195}, {"note": 0, "velocity": 0, "duration": 165}, {"note": 75, "velocity": 122, "duration": 518}, {"note": 0, "velocity": 0, "duration": 1402}, {"note": 71, "velocity": 100, "duration": 711}, {"note": 0, "velocity": 0, "duration": 249}, {"note": 70, "velocity": 93, "duration": 144}, {"note": 0, "velocity": 0, "duration": 96}, {"note": 71, "velocity": 96, "duration": 74}, {"note": 73, "velocity": 107, "duration": 268}, {"note": 0, "velocity": 0, "duration": 92}, {"note": 66, "velocity": 100, "duration": 159}, {"note": 0, "velocity": 0, "duration": 81}, {"note": 76, "velocity": 127, "duration": 288}, {"note": 0, "velocity": 0, "duration": 192}, {"note": 78, "velocity": 127, "duration": 447}, {"note": 75, "velocity": 122, "duration": 341}, {"note": 0, "velocity": 0, "duration": 139}, {"note": 75, "velocity": 117, "duration": 168}, {"note": 0, "velocity": 0, "duration": 72}, {"note": 78, "velocity": 117, "duration": 146}, {"note": 0, "velocity": 0, "duration": 94}, {"note": 78, "velocity": 117, "duration": 167}, {"note": 0, "velocity": 0, "duration": 73}, {"note": 71, "velocity": 102, "duration": 138}, {"note": 0, "velocity": 0, "duration": 102}, {"note": 71, "velocity": 112, "duration": 151}, {"note": 73, "velocity": 127, "duration": 176}, {"note": 0, "velocity": 0, "duration": 184}, {"note": 73, "velocity": 122, "duration": 418}, {"note": 0, "velocity": 0, "duration": 62}, {"note": 71, "velocity": 100, "duration": 200}, {"note": 78, "velocity": 122, "duration": 181}, {"note": 78, "velocity": 127, "duration": 172}, {"note": 0, "velocity": 0, "duration": 68}, {"note": 71, "velocity": 107, "duration": 76}, {"note": 0, "velocity": 0, "duration": 164}, {"note": 71, "velocity": 112, "duration": 48}, {"note": 0, "velocity": 0, "duration": 72}, {"note": 70, "velocity": 100, "duration": 94}, {"note": 0, "velocity": 0, "duration": 146}, {"note": 71, "velocity": 117, "duration": 404}, {"note": 0, "velocity": 0, "duration": 196}, {"note": 74, "velocity": 127, "duration": 127}, {"note": 73, "velocity": 102, "duration": 187}, {"note": 71, "velocity": 89, "duration": 69}, {"note": 75, "velocity": 127, "duration": 246}, {"note": 0, "velocity": 0, "duration": 114}, {"note": 73, "velocity": 122, "duration": 497}, {"note": 0, "velocity": 0, "duration": 823}, {"note": 68, "velocity": 100, "duration": 79}, {"note": 0, "velocity": 0, "duration": 161}, {"note": 75, "velocity": 127, "duration": 404}, {"note": 0, "velocity": 0, "duration": 316}, {"note": 76, "velocity": 117, "duration": 148}, {"note": 0, "velocity": 0, "duration": 92}, {"note": 75, "velocity": 127, "duration": 219}, {"note": 73, "velocity": 96, "duration": 555}, {"note": 0, "velocity": 0, "duration": 165}, {"note": 78, "velocity": 127, "duration": 188}, {"note": 78, "velocity": 112, "duration": 75}, {"note": 78, "velocity": 122, "duration": 232}, {"note": 0, "velocity": 0, "duration": 128}, {"note": 78, "velocity": 107, "duration": 54}, {"note": 0, "velocity": 0, "duration": 66}, {"note": 78, "velocity": 127, "duration": 214}, {"note": 0, "velocity": 0, "duration": 146}, {"note": 76, "velocity": 117, "duration": 117}, {"note": 75, "velocity": 93, "duration": 233}, {"note": 73, "velocity": 93, "duration": 272}, {"note": 0, "velocity": 0, "duration": 88}, {"note": 73, "velocity": 107, "duration": 480}, {"note": 0, "velocity": 0, "duration": 240}, {"note": 73, "velocity": 117, "duration": 115}, {"note": 71, "velocity": 76, "duration": 145}, {"note": 75, "velocity": 117, "duration": 458}, {"note": 0, "velocity": 0, "duration": 502}, {"note": 78, "velocity": 100, "duration": 140}, {"note": 0, "velocity": 0, "duration": 100}, {"note": 78, "velocity": 102, "duration": 55}, {"note": 0, "velocity": 0, "duration": 65}, {"note": 78, "velocity": 100, "duration": 231}, {"note": 0, "velocity": 0, "duration": 129}, {"note": 78, "velocity": 112, "duration": 41}, {"note": 0, "velocity": 0, "duration": 79}, {"note": 78, "velocity": 122, "duration": 219}, {"note": 0, "velocity": 0, "duration": 141}, {"note": 76, "velocity": 107, "duration": 81}, {"note": 75, "velocity": 96, "duration": 192}, {"note": 73, "velocity": 102, "duration": 132}, {"note": 0, "velocity": 0, "duration": 228}, {"note": 73, "velocity": 127, "duration": 217}, {"note": 0, "velocity": 0, "duration": 263}, {"note": 78, "velocity": 127, "duration": 229}, {"note": 50, "velocity": 1, "duration": 1544}, {"note": 75, "velocity": 122, "duration": 228}, {"note": 73, "velocity": 117, "duration": 172}, {"note": 75, "velocity": 117, "duration": 135}, {"note": 71, "velocity": 127, "duration": 230}, {"note": 0, "velocity": 0, "duration": 250}, {"note": 75, "velocity": 127, "duration": 316}, {"note": 0, "velocity": 0, "duration": 164}, {"note": 70, "velocity": 127, "duration": 368}, {"note": 66, "velocity": 86, "duration": 70}, {"note": 66, "velocity": 102, "duration": 325}, {"note": 0, "velocity": 0, "duration": 155}, {"note": 68, "velocity": 99, "duration": 218}, {"note": 70, "velocity": 95, "duration": 169}, {"note": 0, "velocity": 0, "duration": 71}, {"note": 71, "velocity": 112, "duration": 184}, {"note": 73, "velocity": 107, "duration": 255}, {"note": 0, "velocity": 0, "duration": 225}, {"note": 71, "velocity": 107, "duration": 351}, {"note": 0, "velocity": 0, "duration": 249}, {"note": 66, "velocity": 93, "duration": 74}, {"note": 76, "velocity": 122, "duration": 167}, {"note": 0, "velocity": 0, "duration": 73}, {"note": 76, "velocity": 117, "duration": 56}, {"note": 0, "velocity": 0, "duration": 64}, {"note": 75, "velocity": 112, "duration": 118}, {"note": 0, "velocity": 0, "duration": 122}, {"note": 73, "velocity": 117, "duration": 240}, {"note": 0, "velocity": 0, "duration": 120}, {"note": 71, "velocity": 102, "duration": 419}, {"note": 0, "velocity": 0, "duration": 421}, {"note": 66, "velocity": 99, "duration": 65}, {"note": 76, "velocity": 122, "duration": 151}, {"note": 0, "velocity": 0, "duration": 89}, {"note": 76, "velocity": 117, "duration": 69}, {"note": 75, "velocity": 127, "duration": 102}, {"note": 0, "velocity": 0, "duration": 138}, {"note": 71, "velocity": 102, "duration": 101}, {"note": 0, "velocity": 0, "duration": 139}, {"note": 78, "velocity": 127, "duration": 926}, {"note": 0, "velocity": 0, "duration": 154}, {"note": 78, "velocity": 127, "duration": 146}, {"note": 0, "velocity": 0, "duration": 94}, {"note": 78, "velocity": 107, "duration": 54}, {"note": 0, "velocity": 0, "duration": 66}, {"note": 78, "velocity": 107, "duration": 188}, {"note": 0, "velocity": 0, "duration": 172}, {"note": 78, "velocity": 127, "duration": 85}, {"note": 0, "velocity": 0, "duration": 155}, {"note": 78, "velocity": 127, "duration": 132}, {"note": 0, "velocity": 0, "duration": 108}, {"note": 76, "velocity": 122, "duration": 75}, {"note": 75, "velocity": 107, "duration": 236}, {"note": 73, "velocity": 127, "duration": 187}, {"note": 0, "velocity": 0, "duration": 173}, {"note": 73, "velocity": 122, "duration": 219}, {"note": 0, "velocity": 0, "duration": 261}, {"note": 73, "velocity": 127, "duration": 244}, {"note": 71, "velocity": 86, "duration": 75}, {"note": 75, "velocity": 127, "duration": 537}, {"note": 0, "velocity": 0, "duration": 543}, {"note": 78, "velocity": 127, "duration": 133}, {"note": 0, "velocity": 0, "duration": 107}, {"note": 78, "velocity": 102, "duration": 50}, {"note": 0, "velocity": 0, "duration": 70}, {"note": 78, "velocity": 127, "duration": 223}, {"note": 0, "velocity": 0, "duration": 137}, {"note": 78, "velocity": 117, "duration": 92}, {"note": 0, "velocity": 0, "duration": 148}, {"note": 78, "velocity": 127, "duration": 154}, {"note": 0, "velocity": 0, "duration": 86}, {"note": 76, "velocity": 122, "duration": 59}, {"note": 0, "velocity": 0, "duration": 61}, {"note": 75, "velocity": 127, "duration": 178}, {"note": 0, "velocity": 0, "duration": 62}, {"note": 73, "velocity": 117, "duration": 180}, {"note": 0, "velocity": 0, "duration": 180}, {"note": 73, "velocity": 112, "duration": 310}, {"note": 0, "velocity": 0, "duration": 170}, {"note": 78, "velocity": 127, "duration": 308}, {"note": 75, "velocity": 107, "duration": 492}, {"note": 0, "velocity": 0, "duration": 108}, {"note": 73, "velocity": 117, "duration": 168}, {"note": 0, "velocity": 0, "duration": 72}, {"note": 75, "velocity": 122, "duration": 132}, {"note": 0, "velocity": 0, "duration": 108}, {"note": 71, "velocity": 117, "duration": 387}, {"note": 0, "velocity": 0, "duration": 93}, {"note": 75, "velocity": 127, "duration": 309}, {"note": 0, "velocity": 0, "duration": 171}, {"note": 70, "velocity": 117, "duration": 353}, {"note": 0, "velocity": 0, "duration": 127}, {"note": 66, "velocity": 107, "duration": 242}, {"note": 0, "velocity": 0, "duration": 238}, {"note": 68, "velocity": 112, "duration": 213}, {"note": 71, "velocity": 117, "duration": 55}, {"note": 0, "velocity": 0, "duration": 65}, {"note": 71, "velocity": 122, "duration": 162}, {"note": 0, "velocity": 0, "duration": 78}, {"note": 73, "velocity": 100, "duration": 287}, {"note": 0, "velocity": 0, "duration": 73}, {"note": 71, "velocity": 102, "duration": 722}, {"note": 0, "velocity": 0, "duration": 118}, {"note": 68, "velocity": 96, "duration": 78}, {"note": 76, "velocity": 112, "duration": 337}, {"note": 0, "velocity": 0, "duration": 143}, {"note": 75, "velocity": 112, "duration": 291}, {"note": 0, "velocity": 0, "duration": 189}, {"note": 73, "velocity": 117, "duration": 279}, {"note": 0, "velocity": 0, "duration": 561}, {"note": 71, "velocity": 95, "duration": 92}, {"note": 0, "velocity": 0, "duration": 148}, {"note": 71, "velocity": 96, "duration": 1133}, {"note": 0, "velocity": 0, "duration": 5467}, {"note": 71, "velocity": 97, "duration": 377}, {"note": 0, "velocity": 0, "duration": 583}, {"note": 70, "velocity": 97, "duration": 104}, {"note": 0, "velocity": 0, "duration": 136}, {"note": 71, "velocity": 95, "duration": 70}, {"note": 73, "velocity": 107, "duration": 157}, {"note": 0, "velocity": 0, "duration": 83}, {"note": 66, "velocity": 99, "duration": 195}, {"note": 0, "velocity": 0, "duration": 165}, {"note": 75, "velocity": 122, "duration": 518}, {"note": 0, "velocity": 0, "duration": 1402}, {"note": 71, "velocity": 100, "duration": 711}, {"note": 0, "velocity": 0, "duration": 249}, {"note": 70, "velocity": 93, "duration": 144}, {"note": 0, "velocity": 0, "duration": 96}, {"note": 71, "velocity": 96, "duration": 74}, {"note": 73, "velocity": 107, "duration": 268}, {"note": 0, "velocity": 0, "duration": 92}, {"note": 66, "velocity": 100, "duration": 159}, {"note": 0, "velocity": 0, "duration": 81}, {"note": 76, "velocity": 127, "duration": 288}, {"note": 0, "velocity": 0, "duration": 192}, {"note": 78, "velocity": 127, "duration": 447}, {"note": 75, "velocity": 122, "duration": 341}, {"note": 0, "velocity": 0, "duration": 139}, {"note": 75, "velocity": 117, "duration": 168}, {"note": 0, "velocity": 0, "duration": 72}, {"note": 78, "velocity": 117, "duration": 146}, {"note": 0, "velocity": 0, "duration": 94}, {"note": 78, "velocity": 117, "duration": 167}, {"note": 0, "velocity": 0, "duration": 73}, {"note": 71, "velocity": 102, "duration": 138}, {"note": 0, "velocity": 0, "duration": 102}, {"note": 71, "velocity": 112, "duration": 151}, {"note": 73, "velocity": 127, "duration": 176}, {"note": 0, "velocity": 0, "duration": 184}, {"note": 73, "velocity": 122, "duration": 418}, {"note": 0, "velocity": 0, "duration": 62}, {"note": 71, "velocity": 100, "duration": 200}, {"note": 78, "velocity": 122, "duration": 181}, {"note": 78, "velocity": 127, "duration": 172}, {"note": 0, "velocity": 0, "duration": 68}, {"note": 71, "velocity": 107, "duration": 76}, {"note": 0, "velocity": 0, "duration": 164}, {"note": 71, "velocity": 112, "duration": 48}, {"note": 0, "velocity": 0, "duration": 72}, {"note": 70, "velocity": 100, "duration": 94}, {"note": 0, "velocity": 0, "duration": 146}, {"note": 71, "velocity": 117, "duration": 404}, {"note": 0, "velocity": 0, "duration": 196}, {"note": 74, "velocity": 127, "duration": 127}, {"note": 73, "velocity": 102, "duration": 187}, {"note": 71, "velocity": 89, "duration": 69}, {"note": 75, "velocity": 127, "duration": 246}, {"note": 0, "velocity": 0, "duration": 114}, {"note": 73, "velocity": 122, "duration": 497}, {"note": 0, "velocity": 0, "duration": 823}, {"note": 68, "velocity": 100, "duration": 79}, {"note": 0, "velocity": 0, "duration": 161}, {"note": 75, "velocity": 127, "duration": 404}, {"note": 0, "velocity": 0, "duration": 316}, {"note": 76, "velocity": 117, "duration": 148}, {"note": 0, "velocity": 0, "duration": 92}, {"note": 75, "velocity": 127, "duration": 219}, {"note": 73, "velocity": 96, "duration": 555}, {"note": 0, "velocity": 0, "duration": 165}, {"note": 78, "velocity": 127, "duration": 188}, {"note": 78, "velocity": 112, "duration": 75}, {"note": 78, "velocity": 122, "duration": 232}, {"note": 0, "velocity": 0, "duration": 128}, {"note": 78, "velocity": 107, "duration": 54}, {"note": 0, "velocity": 0, "duration": 66}, {"note": 78, "velocity": 127, "duration": 214}, {"note": 0, "velocity": 0, "duration": 146}, {"note": 76, "velocity": 117, "duration": 117}, {"note": 75, "velocity": 93, "duration": 233}, {"note": 73, "velocity": 93, "duration": 272}, {"note": 0, "velocity": 0, "duration": 88}, {"note": 73, "velocity": 107, "duration": 480}, {"note": 0, "velocity": 0, "duration": 240}, {"note": 73, "velocity": 117, "duration": 115}, {"note": 71, "velocity": 76, "duration": 145}, {"note": 75, "velocity": 117, "duration": 458}, {"note": 0, "velocity": 0, "duration": 502}, {"note": 78, "velocity": 100, "duration": 140}, {"note": 0, "velocity": 0, "duration": 100}, {"note": 78, "velocity": 102, "duration": 55}, {"note": 0, "velocity": 0, "duration": 65}, {"note": 78, "velocity": 100, "duration": 231}, {"note": 0, "velocity": 0, "duration": 129}, {"note": 78, "velocity": 112, "duration": 41}, {"note": 0, "velocity": 0, "duration": 79}, {"note": 78, "velocity": 122, "duration": 219}, {"note": 0, "velocity": 0, "duration": 141}, {"note": 76, "velocity": 107, "duration": 81}, {"note": 75, "velocity": 96, "duration": 192}, {"note": 73, "velocity": 102, "duration": 132}, {"note": 0, "velocity": 0, "duration": 228}, {"note": 73, "velocity": 127, "duration": 217}, {"note": 0, "velocity": 0, "duration": 263}, {"note": 78, "velocity": 127, "duration": 229}, {"note": 50, "velocity": 1, "duration": 1544}, {"note": 75, "velocity": 122, "duration": 228}, {"note": 73, "velocity": 117, "duration": 172}, {"note": 75, "velocity": 117, "duration": 135}, {"note": 71, "velocity": 127, "duration": 230}, {"note": 0, "velocity": 0, "duration": 250}, {"note": 75, "velocity": 127, "duration": 316}, {"note": 0, "velocity": 0, "duration": 164}, {"note": 70, "velocity": 127, "duration": 368}, {"note": 66, "velocity": 86, "duration": 70}, {"note": 66, "velocity": 102, "duration": 325}, {"note": 0, "velocity": 0, "duration": 155}, {"note": 68, "velocity": 99, "duration": 218}, {"note": 70, "velocity": 95, "duration": 169}, {"note": 0, "velocity": 0, "duration": 71}, {"note": 71, "velocity": 112, "duration": 184}, {"note": 73, "velocity": 107, "duration": 255}, {"note": 71, "velocity": 102, "duration": 506}, {"note": 0, "velocity": 0, "duration": 334}, {"note": 66, "velocity": 93, "duration": 74}, {"note": 76, "velocity": 122, "duration": 167}, {"note": 0, "velocity": 0, "duration": 73}, {"note": 76, "velocity": 117, "duration": 56}, {"note": 0, "velocity": 0, "duration": 64}, {"note": 75, "velocity": 112, "duration": 118}, {"note": 0, "velocity": 0, "duration": 122}, {"note": 73, "velocity": 117, "duration": 240}, {"note": 0, "velocity": 0, "duration": 120}, {"note": 71, "velocity": 102, "duration": 419}, {"note": 0, "velocity": 0, "duration": 421}, {"note": 66, "velocity": 99, "duration": 65}, {"note": 76, "velocity": 122, "duration": 151}, {"note": 0, "velocity": 0, "duration": 89}, {"note": 76, "velocity": 117, "duration": 69}, {"note": 75, "velocity": 127, "duration": 102}, {"note": 0, "velocity": 0, "duration": 138}, {"note": 71, "velocity": 102, "duration": 101}, {"note": 0, "velocity": 0, "duration": 139}, {"note": 78, "velocity": 127, "duration": 926}, {"note": 0, "velocity": 0, "duration": 154}, {"note": 78, "velocity": 127, "duration": 146}, {"note": 0, "velocity": 0, "duration": 94}, {"note": 78, "velocity": 107, "duration": 54}, {"note": 0, "velocity": 0, "duration": 66}, {"note": 78, "velocity": 107, "duration": 188}, {"note": 0, "velocity": 0, "duration": 172}, {"note": 78, "velocity": 127, "duration": 85}, {"note": 0, "velocity": 0, "duration": 155}, {"note": 78, "velocity": 127, "duration": 132}, {"note": 0, "velocity": 0, "duration": 108}, {"note": 76, "velocity": 122, "duration": 75}, {"note": 75, "velocity": 107, "duration": 236}, {"note": 73, "velocity": 127, "duration": 187}, {"note": 0, "velocity": 0, "duration": 173}, {"note": 73, "velocity": 122, "duration": 219}, {"note": 0, "velocity": 0, "duration": 261}, {"note": 73, "velocity": 127, "duration": 244}, {"note": 71, "velocity": 86, "duration": 75}, {"note": 75, "velocity": 127, "duration": 537}, {"note": 0, "velocity": 0, "duration": 543}, {"note": 78, "velocity": 127, "duration": 133}, {"note": 0, "velocity": 0, "duration": 107}, {"note": 78, "velocity": 102, "duration": 50}, {"note": 0, "velocity": 0, "duration": 70}, {"note": 78, "velocity": 127, "duration": 223}, {"note": 0, "velocity": 0, "duration": 137}, {"note": 78, "velocity": 117, "duration": 92}, {"note": 0, "velocity": 0, "duration": 148}, {"note": 78, "velocity": 127, "duration": 154}, {"note": 0, "velocity": 0, "duration": 86}, {"note": 76, "velocity": 122, "duration": 59}, {"note": 0, "velocity": 0, "duration": 61}, {"note": 75, "velocity": 127, "duration": 178}, {"note": 0, "velocity": 0, "duration": 62}, {"note": 73, "velocity": 117, "duration": 180}, {"note": 0, "velocity": 0, "duration": 180}, {"note": 73, "velocity": 112, "duration": 310}, {"note": 0, "velocity": 0, "duration": 170}, {"note": 78, "velocity": 127, "duration": 308}, {"note": 75, "velocity": 107, "duration": 492}, {"note": 0, "velocity": 0, "duration": 108}, {"note": 73, "velocity": 117, "duration": 168}, {"note": 0, "velocity": 0, "duration": 72}, {"note": 75, "velocity": 122, "duration": 132}, {"note": 0, "velocity": 0, "duration": 108}, {"note": 71, "velocity": 117, "duration": 387}, {"note": 0, "velocity": 0, "duration": 93}, {"note": 75, "velocity": 127, "duration": 309}, {"note": 0, "velocity": 0, "duration": 171}, {"note": 70, "velocity": 117, "duration": 353}, {"note": 0, "velocity": 0, "duration": 127}, {"note": 66, "velocity": 107, "duration": 242}, {"note": 0, "velocity": 0, "duration": 238}, {"note": 68, "velocity": 112, "duration": 213}, {"note": 71, "velocity": 117, "duration": 55}, {"note": 0, "velocity": 0, "duration": 65}, {"note": 71, "velocity": 122, "duration": 162}, {"note": 0, "velocity": 0, "duration": 78}, {"note": 73, "velocity": 100, "duration": 287}, {"note": 0, "velocity": 0, "duration": 73}, {"note": 71, "velocity": 102, "duration": 722}, {"note": 0, "velocity": 0, "duration": 118}, {"note": 68, "velocity": 96, "duration": 78}, {"note": 76, "velocity": 112, "duration": 337}, {"note": 0, "velocity": 0, "duration": 143}, {"note": 75, "velocity": 112, "duration": 291}, {"note": 0, "velocity": 0, "duration": 189}, {"note": 73, "velocity": 117, "duration": 279}, {"note": 0, "velocity": 0, "duration": 441}, {"note": 70, "velocity": 102, "duration": 82}, {"note": 0, "velocity": 0, "duration": 158}, {"note": 73, "velocity": 127, "duration": 328}, {"note": 71, "velocity": 96, "duration": 1290}, {"note": 0, "velocity": 0, "duration": 9510}, {"note": 79, "velocity": 127, "duration": 215}, {"note": 79, "velocity": 100, "duration": 66}, {"note": 79, "velocity": 127, "duration": 232}, {"note": 0, "velocity": 0, "duration": 128}, {"note": 79, "velocity": 107, "duration": 43}, {"note": 0, "velocity": 0, "duration": 77}, {"note": 79, "velocity": 127, "duration": 115}, {"note": 0, "velocity": 0, "duration": 245}, {"note": 77, "velocity": 127, "duration": 38}, {"note": 0, "velocity": 0, "duration": 82}, {"note": 76, "velocity": 117, "duration": 167}, {"note": 0, "velocity": 0, "duration": 73}, {"note": 74, "velocity": 122, "duration": 228}, {"note": 0, "velocity": 0, "duration": 252}, {"note": 74, "velocity": 127, "duration": 504}, {"note": 0, "velocity": 0, "duration": 216}, {"note": 72, "velocity": 127, "duration": 74}, {"note": 76, "velocity": 127, "duration": 503}, {"note": 0, "velocity": 0, "duration": 439}, {"note": 79, "velocity": 127, "duration": 151}, {"note": 0, "velocity": 0, "duration": 79}, {"note": 79, "velocity": 122, "duration": 59}, {"note": 0, "velocity": 0, "duration": 64}, {"note": 79, "velocity": 122, "duration": 246}, {"note": 0, "velocity": 0, "duration": 112}, {"note": 79, "velocity": 127, "duration": 77}, {"note": 0, "velocity": 0, "duration": 130}, {"note": 79, "velocity": 112, "duration": 219}, {"note": 77, "velocity": 127, "duration": 93}, {"note": 76, "velocity": 112, "duration": 205}, {"note": 74, "velocity": 127, "duration": 359}, {"note": 74, "velocity": 127, "duration": 217}, {"note": 0, "velocity": 0, "duration": 263}, {"note": 79, "velocity": 127, "duration": 229}, {"note": 51, "velocity": 1, "duration": 1544}, {"note": 76, "velocity": 122, "duration": 228}, {"note": 74, "velocity": 117, "duration": 172}, {"note": 76, "velocity": 117, "duration": 135}, {"note": 72, "velocity": 127, "duration": 230}, {"note": 0, "velocity": 0, "duration": 250}, {"note": 76, "velocity": 127, "duration": 316}, {"note": 0, "velocity": 0, "duration": 164}, {"note": 71, "velocity": 127, "duration": 368}, {"note": 67, "velocity": 86, "duration": 70}, {"note": 67, "velocity": 102, "duration": 325}, {"note": 0, "velocity": 0, "duration": 155}, {"note": 69, "velocity": 99, "duration": 218}, {"note": 71, "velocity": 95, "duration": 169}, {"note": 0, "velocity": 0, "duration": 71}, {"note": 72, "velocity": 112, "duration": 184}, {"note": 74, "velocity": 107, "duration": 255}, {"note": 72, "velocity": 102, "duration": 506}, {"note": 0, "velocity": 0, "duration": 334}, {"note": 67, "velocity": 93, "duration": 74}, {"note": 77, "velocity": 122, "duration": 167}, {"note": 0, "velocity": 0, "duration": 73}, {"note": 77, "velocity": 117, "duration": 56}, {"note": 0, "velocity": 0, "duration": 64}, {"note": 76, "velocity": 112, "duration": 118}, {"note": 0, "velocity": 0, "duration": 122}, {"note": 74, "velocity": 117, "duration": 240}, {"note": 0, "velocity": 0, "duration": 120}, {"note": 72, "velocity": 102, "duration": 419}, {"note": 0, "velocity": 0, "duration": 421}, {"note": 67, "velocity": 99, "duration": 65}, {"note": 77, "velocity": 122, "duration": 151}, {"note": 0, "velocity": 0, "duration": 89}, {"note": 77, "velocity": 117, "duration": 69}, {"note": 76, "velocity": 127, "duration": 102}, {"note": 0, "velocity": 0, "duration": 138}, {"note": 72, "velocity": 102, "duration": 101}, {"note": 0, "velocity": 0, "duration": 139}, {"note": 79, "velocity": 127, "duration": 926}, {"note": 0, "velocity": 0, "duration": 154}, {"note": 79, "velocity": 127, "duration": 146}, {"note": 0, "velocity": 0, "duration": 94}, {"note": 79, "velocity": 107, "duration": 54}, {"note": 0, "velocity": 0, "duration": 66}, {"note": 79, "velocity": 107, "duration": 188}, {"note": 0, "velocity": 0, "duration": 172}, {"note": 79, "velocity": 127, "duration": 85}, {"note": 0, "velocity": 0, "duration": 155}, {"note": 79, "velocity": 127, "duration": 132}, {"note": 0, "velocity": 0, "duration": 108}, {"note": 77, "velocity": 122, "duration": 75}, {"note": 76, "velocity": 107, "duration": 236}, {"note": 74, "velocity": 127, "duration": 187}, {"note": 0, "velocity": 0, "duration": 173}, {"note": 74, "velocity": 122, "duration": 219}, {"note": 0, "velocity": 0, "duration": 261}, {"note": 74, "velocity": 127, "duration": 244}, {"note": 72, "velocity": 86, "duration": 75}, {"note": 76, "velocity": 127, "duration": 537}, {"note": 0, "velocity": 0, "duration": 543}, {"note": 79, "velocity": 127, "duration": 133}, {"note": 0, "velocity": 0, "duration": 107}, {"note": 79, "velocity": 102, "duration": 50}, {"note": 0, "velocity": 0, "duration": 70}, {"note": 79, "velocity": 127, "duration": 223}, {"note": 0, "velocity": 0, "duration": 137}, {"note": 79, "velocity": 117, "duration": 92}, {"note": 0, "velocity": 0, "duration": 148}, {"note": 79, "velocity": 127, "duration": 154}, {"note": 0, "velocity": 0, "duration": 86}, {"note": 84, "velocity": 127, "duration": 80}, {"note": 83, "velocity": 122, "duration": 125}, {"note": 0, "velocity": 0, "duration": 115}, {"note": 81, "velocity": 127, "duration": 151}, {"note": 0, "velocity": 0, "duration": 89}, {"note": 79, "velocity": 127, "duration": 363}, {"note": 0, "velocity": 0, "duration": 1197}, {"note": 79, "velocity": 127, "duration": 158}, {"note": 0, "velocity": 0, "duration": 82}, {"note": 77, "velocity": 127, "duration": 152}, {"note": 0, "velocity": 0, "duration": 88}, {"note": 76, "velocity": 117, "duration": 308}, {"note": 0, "velocity": 0, "duration": 172}, {"note": 79, "velocity": 127, "duration": 326}, {"note": 0, "velocity": 0, "duration": 154}, {"note": 81, "velocity": 127, "duration": 417}, {"note": 0, "velocity": 0, "duration": 63}, {"note": 79, "velocity": 127, "duration": 295}, {"note": 0, "velocity": 0, "duration": 185}, {"note": 79, "velocity": 127, "duration": 113}, {"note": 0, "velocity": 0, "duration": 127}, {"note": 76, "velocity": 102, "duration": 90}, {"note": 74, "velocity": 127, "duration": 220}, {"note": 72, "velocity": 127, "duration": 117}, {"note": 0, "velocity": 0, "duration": 123}, {"note": 72, "velocity": 127, "duration": 751}, {"note": 0, "velocity": 0, "duration": 275}, {"note": 67, "velocity": 79, "duration": 203}, {"note": 77, "velocity": 107, "duration": 385}, {"note": 0, "velocity": 0, "duration": 101}, {"note": 76, "velocity": 95, "duration": 420}, {"note": 0, "velocity": 0, "duration": 68}, {"note": 74, "velocity": 93, "duration": 811}, {"note": 0, "velocity": 0, "duration": 233}, {"note": 72, "velocity": 99, "duration": 108}, {"note": 0, "velocity": 0, "duration": 163}, {"note": 72, "velocity": 95, "duration": 436}, {"note": 0, "velocity": 0, "duration": 408}, {"note": 72, "velocity": 90, "duration": 224}, {"note": 74, "velocity": 88, "duration": 194}, {"note": 76, "velocity": 78, "duration": 206}, {"note": 81, "velocity": 99, "duration": 1339}, {"note": 0, "velocity": 0, "duration": 488}, {"note": 69, "velocity": 76, "duration": 326}, {"note": 77, "velocity": 99, "duration": 446}, {"note": 0, "velocity": 0, "duration": 230}, {"note": 76, "velocity": 92, "duration": 258}, {"note": 0, "velocity": 0, "duration": 285}, {"note": 74, "velocity": 100, "duration": 577}, {"note": 0, "velocity": 0, "duration": 650}, {"note": 72, "velocity": 88, "duration": 226}, {"note": 0, "velocity": 0, "duration": 210}, {"note": 72, "velocity": 99, "duration": 1797}]]