[[{"note": 51, "velocity": 71, "duration": 241}, {"note": 63, "velocity": 88, "duration": 161}, {"note": 0, "velocity": 0, "duration": 79}, {"note": 63, "velocity": 100, "duration": 158}, {"note": 0, "velocity": 0, "duration": 82}, {"note": 63, "velocity": 88, "duration": 148}, {"note": 0, "velocity": 0, "duration": 92}, {"note": 62, "velocity": 82, "duration": 427}, {"note": 58, "velocity": 88, "duration": 376}, {"note": 0, "velocity": 0, "duration": 104}, {"note": 60, "velocity": 95, "duration": 147}, {"note": 0, "velocity": 0, "duration": 93}, {"note": 60, "velocity": 92, "duration": 154}, {"note": 0, "velocity": 0, "duration": 86}, {"note": 58, "velocity": 97, "duration": 160}, {"note": 0, "velocity": 0, "duration": 80}, {"note": 56, "velocity": 83, "duration": 227}, {"note": 58, "velocity": 82, "duration": 474}, {"note": 0, "velocity": 0, "duration": 486}, {"note": 51, "velocity": 81, "duration": 184}, {"note": 63, "velocity": 92, "duration": 177}, {"note": 0, "velocity": 0, "duration": 63}, {"note": 63, "velocity": 95, "duration": 185}, {"note": 63, "velocity": 99, "duration": 179}, {"note": 0, "velocity": 0, "duration": 61}, {"note": 62, "velocity": 81, "duration": 362}, {"note": 0, "velocity": 0, "duration": 358}, {"note": 58, "velocity": 88, "duration": 240}, {"note": 60, "velocity": 78, "duration": 1126}, {"note": 0, "velocity": 0, "duration": 794}, {"note": 51, "velocity": 76, "duration": 213}, {"note": 63, "velocity": 90, "duration": 183}, {"note": 63, "velocity": 92, "duration": 145}, {"note": 0, "velocity": 0, "duration": 95}, {"note": 63, "velocity": 92, "duration": 240}, {"note": 62, "velocity": 79, "duration": 480}, {"note": 58, "velocity": 66, "duration": 462}, {"note": 60, "velocity": 86, "duration": 168}, {"note": 0, "velocity": 0, "duration": 72}, {"note": 60, "velocity": 85, "duration": 136}, {"note": 0, "velocity": 0, "duration": 104}, {"note": 58, "velocity": 90, "duration": 161}, {"note": 0, "velocity": 0, "duration": 79}, {"note": 56, "velocity": 73, "duration": 259}, {"note": 58, "velocity": 76, "duration": 518}, {"note": 0, "velocity": 0, "duration": 202}, {"note": 55, "velocity": 73, "duration": 110}, {"note": 53, "velocity": 61, "duration": 84}, {"note": 51, "velocity": 78, "duration": 145}, {"note": 0, "velocity": 0, "duration": 95}, {"note": 63, "velocity": 92, "duration": 103}, {"note": 0, "velocity": 0, "duration": 137}, {"note": 63, "velocity": 95, "duration": 200}, {"note": 67, "velocity": 83, "duration": 230}, {"note": 65, "velocity": 86, "duration": 218}, {"note": 63, "velocity": 95, "duration": 236}, {"note": 62, "velocity": 89, "duration": 171}, {"note": 0, "velocity": 0, "duration": 69}, {"note": 58, "velocity": 88, "duration": 244}, {"note": 63, "velocity": 95, "duration": 642}, {"note": 0, "velocity": 0, "duration": 78}, {"note": 60, "velocity": 81, "duration": 99}, {"note": 62, "velocity": 63, "duration": 83}, {"note": 63, "velocity": 97, "duration": 201}, {"note": 62, "velocity": 85, "duration": 125}, {"note": 63, "velocity": 93, "duration": 272}, {"note": 0, "velocity": 0, "duration": 88}, {"note": 58, "velocity": 90, "duration": 155}, {"note": 0, "velocity": 0, "duration": 85}, {"note": 65, "velocity": 89, "duration": 1047}, {"note": 0, "velocity": 0, "duration": 1113}, {"note": 67, "velocity": 96, "duration": 64}, {"note": 67, "velocity": 88, "duration": 238}, {"note": 0, "velocity": 0, "duration": 122}, {"note": 65, "velocity": 96, "duration": 123}, {"note": 63, "velocity": 88, "duration": 83}, {"note": 65, "velocity": 96, "duration": 214}, {"note": 60, "velocity": 81, "duration": 124}, {"note": 63, "velocity": 93, "duration": 637}, {"note": 0, "velocity": 0, "duration": 203}, {"note": 67, "velocity": 85, "duration": 68}, {"note": 67, "velocity": 97, "duration": 266}, {"note": 0, "velocity": 0, "duration": 94}, {"note": 65, "velocity": 99, "duration": 128}, {"note": 63, "velocity": 97, "duration": 91}, {"note": 65, "velocity": 95, "duration": 149}, {"note": 63, "velocity": 96, "duration": 103}, {"note": 0, "velocity": 0, "duration": 137}, {"note": 58, "velocity": 97, "duration": 588}, {"note": 0, "velocity": 0, "duration": 132}, {"note": 55, "velocity": 71, "duration": 114}, {"note": 67, "velocity": 89, "duration": 64}, {"note": 67, "velocity": 92, "duration": 231}, {"note": 0, "velocity": 0, "duration": 129}, {"note": 65, "velocity": 95, "duration": 100}, {"note": 63, "velocity": 90, "duration": 104}, {"note": 65, "velocity": 99, "duration": 219}, {"note": 60, "velocity": 79, "duration": 113}, {"note": 63, "velocity": 100, "duration": 271}, {"note": 0, "velocity": 0, "duration": 209}, {"note": 63, "velocity": 93, "duration": 62}, {"note": 63, "velocity": 95, "duration": 221}, {"note": 62, "velocity": 75, "duration": 67}, {"note": 62, "velocity": 90, "duration": 281}, {"note": 0, "velocity": 0, "duration": 79}, {"note": 60, "velocity": 92, "duration": 60}, {"note": 60, "velocity": 90, "duration": 268}, {"note": 0, "velocity": 0, "duration": 92}, {"note": 58, "velocity": 88, "duration": 82}, {"note": 58, "velocity": 97, "duration": 737}, {"note": 0, "velocity": 0, "duration": 103}, {"note": 67, "velocity": 82, "duration": 54}, {"note": 0, "velocity": 0, "duration": 66}, {"note": 67, "velocity": 99, "duration": 265}, {"note": 0, "velocity": 0, "duration": 95}, {"note": 65, "velocity": 96, "duration": 101}, {"note": 63, "velocity": 90, "duration": 90}, {"note": 65, "velocity": 95, "duration": 160}, {"note": 0, "velocity": 0, "duration": 80}, {"note": 60, "velocity": 75, "duration": 93}, {"note": 63, "velocity": 95, "duration": 628}, {"note": 0, "velocity": 0, "duration": 212}, {"note": 62, "velocity": 88, "duration": 67}, {"note": 62, "velocity": 86, "duration": 162}, {"note": 0, "velocity": 0, "duration": 78}, {"note": 63, "velocity": 93, "duration": 146}, {"note": 0, "velocity": 0, "duration": 94}, {"note": 65, "velocity": 90, "duration": 63}, {"note": 58, "velocity": 81, "duration": 217}, {"note": 55, "velocity": 85, "duration": 82}, {"note": 58, "velocity": 90, "duration": 149}, {"note": 0, "velocity": 0, "duration": 91}, {"note": 65, "velocity": 95, "duration": 375}, {"note": 63, "velocity": 92, "duration": 387}, {"note": 58, "velocity": 85, "duration": 49}, {"note": 0, "velocity": 0, "duration": 71}, {"note": 58, "velocity": 96, "duration": 168}, {"note": 0, "velocity": 0, "duration": 72}, {"note": 56, "velocity": 86, "duration": 124}, {"note": 55, "velocity": 68, "duration": 141}, {"note": 56, "velocity": 92, "duration": 189}, {"note": 63, "velocity": 95, "duration": 70}, {"note": 63, "velocity": 99, "duration": 486}, {"note": 0, "velocity": 0, "duration": 474}, {"note": 58, "velocity": 90, "duration": 54}, {"note": 0, "velocity": 0, "duration": 66}, {"note": 58, "velocity": 93, "duration": 139}, {"note": 0, "velocity": 0, "duration": 101}, {"note": 56, "velocity": 97, "duration": 125}, {"note": 55, "velocity": 73, "duration": 111}, {"note": 56, "velocity": 99, "duration": 162}, {"note": 0, "velocity": 0, "duration": 78}, {"note": 65, "velocity": 100, "duration": 62}, {"note": 65, "velocity": 112, "duration": 483}, {"note": 0, "velocity": 0, "duration": 477}, {"note": 63, "velocity": 97, "duration": 60}, {"note": 63, "velocity": 93, "duration": 140}, {"note": 0, "velocity": 0, "duration": 100}, {"note": 62, "velocity": 67, "duration": 130}, {"note": 63, "velocity": 64, "duration": 1412}, {"note": 0, "velocity": 0, "duration": 628}, {"note": 51, "velocity": 71, "duration": 241}, {"note": 63, "velocity": 88, "duration": 161}, {"note": 0, "velocity": 0, "duration": 79}, {"note": 63, "velocity": 100, "duration": 158}, {"note": 0, "velocity": 0, "duration": 82}, {"note": 63, "velocity": 88, "duration": 148}, {"note": 0, "velocity": 0, "duration": 92}, {"note": 62, "velocity": 82, "duration": 427}, {"note": 58, "velocity": 88, "duration": 376}, {"note": 0, "velocity": 0, "duration": 104}, {"note": 60, "velocity": 95, "duration": 147}, {"note": 0, "velocity": 0, "duration": 93}, {"note": 60, "velocity": 92, "duration": 154}, {"note": 0, "velocity": 0, "duration": 86}, {"note": 58, "velocity": 97, "duration": 160}, {"note": 0, "velocity": 0, "duration": 80}, {"note": 56, "velocity": 83, "duration": 227}, {"note": 58, "velocity": 82, "duration": 474}, {"note": 0, "velocity": 0, "duration": 486}, {"note": 51, "velocity": 81, "duration": 184}, {"note": 63, "velocity": 92, "duration": 177}, {"note": 0, "velocity": 0, "duration": 63}, {"note": 63, "velocity": 95, "duration": 185}, {"note": 63, "velocity": 99, "duration": 179}, {"note": 0, "velocity": 0, "duration": 61}, {"note": 62, "velocity": 81, "duration": 362}, {"note": 0, "velocity": 0, "duration": 358}, {"note": 63, "velocity": 127, "duration": 225}, {"note": 60, "velocity": 95, "duration": 920}, {"note": 0, "velocity": 0, "duration": 160}, {"note": 60, "velocity": 93, "duration": 136}, {"note": 58, "velocity": 93, "duration": 133}, {"note": 56, "velocity": 85, "duration": 341}, {"note": 0, "velocity": 0, "duration": 259}, {"note": 51, "velocity": 76, "duration": 213}, {"note": 63, "velocity": 90, "duration": 183}, {"note": 63, "velocity": 92, "duration": 145}, {"note": 0, "velocity": 0, "duration": 95}, {"note": 63, "velocity": 92, "duration": 240}, {"note": 62, "velocity": 79, "duration": 480}, {"note": 58, "velocity": 66, "duration": 462}, {"note": 60, "velocity": 86, "duration": 168}, {"note": 0, "velocity": 0, "duration": 72}, {"note": 63, "velocity": 112, "duration": 167}, {"note": 65, "velocity": 90, "duration": 353}, {"note": 63, "velocity": 95, "duration": 125}, {"note": 58, "velocity": 75, "duration": 466}, {"note": 0, "velocity": 0, "duration": 374}, {"note": 55, "velocity": 95, "duration": 132}, {"note": 53, "velocity": 77, "duration": 109}, {"note": 51, "velocity": 73, "duration": 163}, {"note": 0, "velocity": 0, "duration": 77}, {"note": 63, "velocity": 92, "duration": 103}, {"note": 0, "velocity": 0, "duration": 137}, {"note": 63, "velocity": 95, "duration": 200}, {"note": 67, "velocity": 83, "duration": 230}, {"note": 65, "velocity": 86, "duration": 218}, {"note": 63, "velocity": 95, "duration": 236}, {"note": 62, "velocity": 89, "duration": 171}, {"note": 0, "velocity": 0, "duration": 69}, {"note": 58, "velocity": 88, "duration": 244}, {"note": 63, "velocity": 95, "duration": 642}, {"note": 0, "velocity": 0, "duration": 78}, {"note": 60, "velocity": 81, "duration": 99}, {"note": 62, "velocity": 63, "duration": 83}, {"note": 63, "velocity": 97, "duration": 201}, {"note": 62, "velocity": 85, "duration": 125}, {"note": 63, "velocity": 93, "duration": 272}, {"note": 0, "velocity": 0, "duration": 88}, {"note": 58, "velocity": 90, "duration": 155}, {"note": 0, "velocity": 0, "duration": 85}, {"note": 67, "velocity": 89, "duration": 279}, {"note": 65, "velocity": 89, "duration": 640}, {"note": 0, "velocity": 0, "duration": 240}, {"note": 67, "velocity": 96, "duration": 64}, {"note": 67, "velocity": 88, "duration": 238}, {"note": 0, "velocity": 0, "duration": 122}, {"note": 65, "velocity": 96, "duration": 123}, {"note": 63, "velocity": 88, "duration": 83}, {"note": 65, "velocity": 96, "duration": 214}, {"note": 60, "velocity": 81, "duration": 124}, {"note": 63, "velocity": 93, "duration": 775}, {"note": 0, "velocity": 0, "duration": 65}, {"note": 67, "velocity": 85, "duration": 68}, {"note": 67, "velocity": 97, "duration": 266}, {"note": 0, "velocity": 0, "duration": 94}, {"note": 65, "velocity": 99, "duration": 128}, {"note": 63, "velocity": 97, "duration": 91}, {"note": 65, "velocity": 95, "duration": 149}, {"note": 63, "velocity": 96, "duration": 103}, {"note": 0, "velocity": 0, "duration": 137}, {"note": 58, "velocity": 97, "duration": 588}, {"note": 0, "velocity": 0, "duration": 132}, {"note": 55, "velocity": 71, "duration": 114}, {"note": 67, "velocity": 89, "duration": 64}, {"note": 67, "velocity": 92, "duration": 231}, {"note": 0, "velocity": 0, "duration": 129}, {"note": 65, "velocity": 95, "duration": 100}, {"note": 63, "velocity": 90, "duration": 104}, {"note": 65, "velocity": 99, "duration": 219}, {"note": 60, "velocity": 79, "duration": 113}, {"note": 63, "velocity": 100, "duration": 271}, {"note": 0, "velocity": 0, "duration": 209}, {"note": 63, "velocity": 93, "duration": 62}, {"note": 63, "velocity": 95, "duration": 221}, {"note": 62, "velocity": 75, "duration": 67}, {"note": 62, "velocity": 90, "duration": 281}, {"note": 0, "velocity": 0, "duration": 79}, {"note": 60, "velocity": 92, "duration": 60}, {"note": 60, "velocity": 90, "duration": 268}, {"note": 0, "velocity": 0, "duration": 92}, {"note": 58, "velocity": 88, "duration": 82}, {"note": 58, "velocity": 97, "duration": 737}, {"note": 0, "velocity": 0, "duration": 103}, {"note": 67, "velocity": 82, "duration": 54}, {"note": 0, "velocity": 0, "duration": 66}, {"note": 67, "velocity": 99, "duration": 265}, {"note": 0, "velocity": 0, "duration": 95}, {"note": 65, "velocity": 96, "duration": 101}, {"note": 63, "velocity": 90, "duration": 90}, {"note": 65, "velocity": 95, "duration": 160}, {"note": 0, "velocity": 0, "duration": 80}, {"note": 60, "velocity": 75, "duration": 93}, {"note": 63, "velocity": 95, "duration": 628}, {"note": 0, "velocity": 0, "duration": 212}, {"note": 62, "velocity": 88, "duration": 67}, {"note": 62, "velocity": 86, "duration": 162}, {"note": 0, "velocity": 0, "duration": 78}, {"note": 63, "velocity": 93, "duration": 146}, {"note": 0, "velocity": 0, "duration": 94}, {"note": 65, "velocity": 90, "duration": 63}, {"note": 58, "velocity": 81, "duration": 217}, {"note": 55, "velocity": 85, "duration": 82}, {"note": 58, "velocity": 90, "duration": 149}, {"note": 0, "velocity": 0, "duration": 91}, {"note": 65, "velocity": 95, "duration": 375}, {"note": 63, "velocity": 92, "duration": 387}, {"note": 58, "velocity": 85, "duration": 49}, {"note": 0, "velocity": 0, "duration": 71}, {"note": 58, "velocity": 96, "duration": 168}, {"note": 0, "velocity": 0, "duration": 72}, {"note": 56, "velocity": 86, "duration": 124}, {"note": 55, "velocity": 68, "duration": 141}, {"note": 56, "velocity": 92, "duration": 189}, {"note": 63, "velocity": 95, "duration": 70}, {"note": 63, "velocity": 99, "duration": 486}, {"note": 0, "velocity": 0, "duration": 474}, {"note": 58, "velocity": 90, "duration": 54}, {"note": 0, "velocity": 0, "duration": 66}, {"note": 58, "velocity": 93, "duration": 139}, {"note": 0, "velocity": 0, "duration": 101}, {"note": 56, "velocity": 97, "duration": 125}, {"note": 55, "velocity": 73, "duration": 111}, {"note": 56, "velocity": 99, "duration": 162}, {"note": 0, "velocity": 0, "duration": 78}, {"note": 65, "velocity": 100, "duration": 62}, {"note": 65, "velocity": 112, "duration": 483}, {"note": 0, "velocity": 0, "duration": 477}, {"note": 63, "velocity": 97, "duration": 60}, {"note": 63, "velocity": 93, "duration": 140}, {"note": 0, "velocity": 0, "duration": 100}, {"note": 62, "velocity": 67, "duration": 130}, {"note": 63, "velocity": 64, "duration": 1412}, {"note": 0, "velocity": 0, "duration": 388}, {"note": 63, "velocity": 117, "duration": 123}, {"note": 62, "velocity": 92, "duration": 54}, {"note": 0, "velocity": 0, "duration": 66}, {"note": 63, "velocity": 117, "duration": 290}, {"note": 0, "velocity": 0, "duration": 430}, {"note": 63, "velocity": 122, "duration": 84}, {"note": 62, "velocity": 89, "duration": 77}, {"note": 65, "velocity": 122, "duration": 374}, {"note": 0, "velocity": 0, "duration": 226}, {"note": 63, "velocity": 117, "duration": 43}, {"note": 0, "velocity": 0, "duration": 77}, {"note": 63, "velocity": 117, "duration": 64}, {"note": 65, "velocity": 93, "duration": 75}, {"note": 67, "velocity": 102, "duration": 149}, {"note": 0, "velocity": 0, "duration": 91}, {"note": 65, "velocity": 92, "duration": 64}, {"note": 63, "velocity": 95, "duration": 180}, {"note": 0, "velocity": 0, "duration": 180}, {"note": 58, "velocity": 107, "duration": 112}, {"note": 60, "velocity": 89, "duration": 555}, {"note": 0, "velocity": 0, "duration": 165}, {"note": 58, "velocity": 93, "duration": 82}, {"note": 56, "velocity": 92, "duration": 113}, {"note": 55, "velocity": 85, "duration": 104}, {"note": 56, "velocity": 97, "duration": 188}, {"note": 63, "velocity": 102, "duration": 56}, {"note": 0, "velocity": 0, "duration": 64}, {"note": 63, "velocity": 112, "duration": 374}, {"note": 56, "velocity": 102, "duration": 80}, {"note": 55, "velocity": 78, "duration": 91}, {"note": 56, "velocity": 112, "duration": 92}, {"note": 0, "velocity": 0, "duration": 148}, {"note": 63, "velocity": 117, "duration": 90}, {"note": 67, "velocity": 97, "duration": 243}, {"note": 0, "velocity": 0, "duration": 117}, {"note": 63, "velocity": 107, "duration": 102}, {"note": 65, "velocity": 95, "duration": 58}, {"note": 0, "velocity": 0, "duration": 62}, {"note": 65, "velocity": 96, "duration": 960}, {"note": 0, "velocity": 0, "duration": 1200}, {"note": 67, "velocity": 96, "duration": 68}, {"note": 67, "velocity": 102, "duration": 226}, {"note": 0, "velocity": 0, "duration": 134}, {"note": 65, "velocity": 95, "duration": 105}, {"note": 63, "velocity": 95, "duration": 132}, {"note": 65, "velocity": 96, "duration": 214}, {"note": 60, "velocity": 81, "duration": 124}, {"note": 63, "velocity": 93, "duration": 775}, {"note": 0, "velocity": 0, "duration": 65}, {"note": 67, "velocity": 85, "duration": 68}, {"note": 67, "velocity": 97, "duration": 266}, {"note": 0, "velocity": 0, "duration": 94}, {"note": 65, "velocity": 99, "duration": 128}, {"note": 63, "velocity": 97, "duration": 91}, {"note": 65, "velocity": 95, "duration": 149}, {"note": 63, "velocity": 96, "duration": 103}, {"note": 0, "velocity": 0, "duration": 257}, {"note": 58, "velocity": 97, "duration": 588}, {"note": 55, "velocity": 71, "duration": 114}, {"note": 67, "velocity": 89, "duration": 64}, {"note": 67, "velocity": 92, "duration": 231}, {"note": 0, "velocity": 0, "duration": 129}, {"note": 65, "velocity": 95, "duration": 100}, {"note": 63, "velocity": 90, "duration": 104}, {"note": 65, "velocity": 99, "duration": 219}, {"note": 60, "velocity": 79, "duration": 113}, {"note": 63, "velocity": 100, "duration": 271}, {"note": 0, "velocity": 0, "duration": 209}, {"note": 63, "velocity": 93, "duration": 62}, {"note": 63, "velocity": 95, "duration": 221}, {"note": 62, "velocity": 75, "duration": 67}, {"note": 62, "velocity": 90, "duration": 281}, {"note": 0, "velocity": 0, "duration": 79}, {"note": 60, "velocity": 92, "duration": 60}, {"note": 60, "velocity": 90, "duration": 268}, {"note": 0, "velocity": 0, "duration": 92}, {"note": 58, "velocity": 88, "duration": 82}, {"note": 58, "velocity": 97, "duration": 737}, {"note": 0, "velocity": 0, "duration": 103}, {"note": 67, "velocity": 82, "duration": 54}, {"note": 0, "velocity": 0, "duration": 66}, {"note": 67, "velocity": 99, "duration": 265}, {"note": 0, "velocity": 0, "duration": 95}, {"note": 65, "velocity": 96, "duration": 101}, {"note": 63, "velocity": 90, "duration": 90}, {"note": 65, "velocity": 95, "duration": 160}, {"note": 0, "velocity": 0, "duration": 80}, {"note": 60, "velocity": 75, "duration": 93}, {"note": 63, "velocity": 95, "duration": 628}, {"note": 0, "velocity": 0, "duration": 212}, {"note": 62, "velocity": 88, "duration": 67}, {"note": 62, "velocity": 86, "duration": 162}, {"note": 0, "velocity": 0, "duration": 78}, {"note": 63, "velocity": 93, "duration": 146}, {"note": 0, "velocity": 0, "duration": 94}, {"note": 65, "velocity": 90, "duration": 63}, {"note": 58, "velocity": 81, "duration": 217}, {"note": 55, "velocity": 85, "duration": 82}, {"note": 58, "velocity": 90, "duration": 149}, {"note": 0, "velocity": 0, "duration": 91}, {"note": 70, "velocity": 95, "duration": 375}, {"note": 63, "velocity": 92, "duration": 387}, {"note": 58, "velocity": 85, "duration": 49}, {"note": 0, "velocity": 0, "duration": 71}, {"note": 58, "velocity": 96, "duration": 168}, {"note": 0, "velocity": 0, "duration": 72}, {"note": 56, "velocity": 86, "duration": 124}, {"note": 55, "velocity": 68, "duration": 141}, {"note": 56, "velocity": 92, "duration": 189}, {"note": 63, "velocity": 95, "duration": 70}, {"note": 63, "velocity": 99, "duration": 486}, {"note": 0, "velocity": 0, "duration": 474}, {"note": 58, "velocity": 90, "duration": 54}, {"note": 0, "velocity": 0, "duration": 66}, {"note": 58, "velocity": 93, "duration": 139}, {"note": 0, "velocity": 0, "duration": 101}, {"note": 56, "velocity": 97, "duration": 125}, {"note": 55, "velocity": 73, "duration": 111}, {"note": 56, "velocity": 99, "duration": 162}, {"note": 0, "velocity": 0, "duration": 78}, {"note": 65, "velocity": 100, "duration": 62}, {"note": 65, "velocity": 112, "duration": 483}, {"note": 0, "velocity": 0, "duration": 597}, {"note": 63, "velocity": 99, "duration": 231}, {"note": 62, "velocity": 82, "duration": 226}, {"note": 63, "velocity": 93, "duration": 1272}, {"note": 0, "velocity": 0, "duration": 65}, {"note": 58, "velocity": 86, "duration": 73}, {"note": 0, "velocity": 0, "duration": 61}, {"note": 58, "velocity": 97, "duration": 119}, {"note": 0, "velocity": 0, "duration": 84}, {"note": 56, "velocity": 92, "duration": 101}, {"note": 55, "velocity": 68, "duration": 141}, {"note": 56, "velocity": 78, "duration": 191}, {"note": 0, "velocity": 0, "duration": 124}, {"note": 63, "velocity": 55, "duration": 96}, {"note": 0, "velocity": 0, "duration": 105}, {"note": 63, "velocity": 89, "duration": 469}, {"note": 0, "velocity": 0, "duration": 293}, {"note": 58, "velocity": 90, "duration": 67}, {"note": 58, "velocity": 90, "duration": 128}, {"note": 0, "velocity": 0, "duration": 112}, {"note": 56, "velocity": 89, "duration": 114}, {"note": 55, "velocity": 60, "duration": 160}, {"note": 56, "velocity": 78, "duration": 250}, {"note": 65, "velocity": 79, "duration": 78}, {"note": 65, "velocity": 78, "duration": 765}, {"note": 0, "velocity": 0, "duration": 555}, {"note": 63, "velocity": 86, "duration": 77}, {"note": 63, "velocity": 86, "duration": 448}, {"note": 0, "velocity": 0, "duration": 272}, {"note": 62, "velocity": 74, "duration": 297}, {"note": 65, "velocity": 72, "duration": 295}, {"note": 63, "velocity": 63, "duration": 2064}]]