[[{"note": 67, "velocity": 86, "duration": 425}, {"note": 0, "velocity": 0, "duration": 295}, {"note": 66, "velocity": 92, "duration": 127}, {"note": 64, "velocity": 63, "duration": 155}, {"note": 66, "velocity": 90, "duration": 218}, {"note": 0, "velocity": 0, "duration": 262}, {"note": 59, "velocity": 89, "duration": 231}, {"note": 0, "velocity": 0, "duration": 249}, {"note": 64, "velocity": 83, "duration": 489}, {"note": 0, "velocity": 0, "duration": 231}, {"note": 62, "velocity": 90, "duration": 104}, {"note": 60, "velocity": 64, "duration": 163}, {"note": 62, "velocity": 88, "duration": 673}, {"note": 0, "velocity": 0, "duration": 287}, {"note": 60, "velocity": 93, "duration": 248}, {"note": 0, "velocity": 0, "duration": 472}, {"note": 59, "velocity": 90, "duration": 95}, {"note": 57, "velocity": 62, "duration": 153}, {"note": 59, "velocity": 77, "duration": 376}, {"note": 63, "velocity": 99, "duration": 234}, {"note": 64, "velocity": 96, "duration": 238}, {"note": 0, "velocity": 0, "duration": 242}, {"note": 59, "velocity": 86, "duration": 184}, {"note": 0, "velocity": 0, "duration": 296}, {"note": 60, "velocity": 76, "duration": 500}, {"note": 59, "velocity": 77, "duration": 750}, {"note": 0, "velocity": 0, "duration": 210}, {"note": 67, "velocity": 93, "duration": 294}, {"note": 0, "velocity": 0, "duration": 426}, {"note": 66, "velocity": 97, "duration": 133}, {"note": 64, "velocity": 76, "duration": 145}, {"note": 66, "velocity": 95, "duration": 361}, {"note": 0, "velocity": 0, "duration": 119}, {"note": 59, "velocity": 90, "duration": 277}, {"note": 0, "velocity": 0, "duration": 203}, {"note": 71, "velocity": 117, "duration": 337}, {"note": 0, "velocity": 0, "duration": 143}, {"note": 71, "velocity": 102, "duration": 120}, {"note": 67, "velocity": 92, "duration": 82}, {"note": 69, "velocity": 92, "duration": 117}, {"note": 67, "velocity": 90, "duration": 104}, {"note": 66, "velocity": 95, "duration": 502}, {"note": 0, "velocity": 0, "duration": 458}, {"note": 69, "velocity": 107, "duration": 560}, {"note": 0, "velocity": 0, "duration": 160}, {"note": 67, "velocity": 100, "duration": 89}, {"note": 66, "velocity": 100, "duration": 79}, {"note": 67, "velocity": 99, "duration": 259}, {"note": 0, "velocity": 0, "duration": 221}, {"note": 64, "velocity": 99, "duration": 107}, {"note": 0, "velocity": 0, "duration": 373}, {"note": 66, "velocity": 117, "duration": 182}, {"note": 67, "velocity": 97, "duration": 174}, {"note": 0, "velocity": 0, "duration": 66}, {"note": 69, "velocity": 107, "duration": 214}, {"note": 71, "velocity": 96, "duration": 412}, {"note": 0, "velocity": 0, "duration": 68}, {"note": 66, "velocity": 92, "duration": 688}, {"note": 0, "velocity": 0, "duration": 1592}, {"note": 67, "velocity": 74, "duration": 72}, {"note": 67, "velocity": 78, "duration": 84}, {"note": 66, "velocity": 96, "duration": 73}, {"note": 67, "velocity": 99, "duration": 345}, {"note": 66, "velocity": 102, "duration": 70}, {"note": 67, "velocity": 95, "duration": 100}, {"note": 0, "velocity": 0, "duration": 140}, {"note": 59, "velocity": 95, "duration": 198}, {"note": 59, "velocity": 88, "duration": 103}, {"note": 67, "velocity": 96, "duration": 102}, {"note": 66, "velocity": 99, "duration": 104}, {"note": 67, "velocity": 95, "duration": 118}, {"note": 66, "velocity": 107, "duration": 176}, {"note": 0, "velocity": 0, "duration": 64}, {"note": 64, "velocity": 100, "duration": 111}, {"note": 62, "velocity": 93, "duration": 124}, {"note": 64, "velocity": 97, "duration": 247}, {"note": 0, "velocity": 0, "duration": 113}, {"note": 64, "velocity": 86, "duration": 61}, {"note": 64, "velocity": 99, "duration": 70}, {"note": 66, "velocity": 97, "duration": 80}, {"note": 67, "velocity": 90, "duration": 123}, {"note": 64, "velocity": 92, "duration": 108}, {"note": 62, "velocity": 92, "duration": 256}, {"note": 0, "velocity": 0, "duration": 344}, {"note": 60, "velocity": 100, "duration": 64}, {"note": 60, "velocity": 95, "duration": 87}, {"note": 59, "velocity": 90, "duration": 110}, {"note": 60, "velocity": 107, "duration": 267}, {"note": 0, "velocity": 0, "duration": 93}, {"note": 59, "velocity": 96, "duration": 84}, {"note": 60, "velocity": 107, "duration": 231}, {"note": 0, "velocity": 0, "duration": 249}, {"note": 59, "velocity": 95, "duration": 263}, {"note": 57, "velocity": 96, "duration": 86}, {"note": 0, "velocity": 0, "duration": 154}, {"note": 55, "velocity": 79, "duration": 228}, {"note": 54, "velocity": 79, "duration": 222}, {"note": 57, "velocity": 97, "duration": 217}, {"note": 59, "velocity": 107, "duration": 196}, {"note": 60, "velocity": 112, "duration": 182}, {"note": 62, "velocity": 96, "duration": 120}, {"note": 60, "velocity": 85, "duration": 112}, {"note": 59, "velocity": 96, "duration": 417}, {"note": 0, "velocity": 0, "duration": 183}, {"note": 67, "velocity": 74, "duration": 72}, {"note": 67, "velocity": 78, "duration": 84}, {"note": 66, "velocity": 96, "duration": 73}, {"note": 67, "velocity": 99, "duration": 345}, {"note": 66, "velocity": 102, "duration": 70}, {"note": 67, "velocity": 95, "duration": 100}, {"note": 0, "velocity": 0, "duration": 140}, {"note": 59, "velocity": 95, "duration": 198}, {"note": 59, "velocity": 88, "duration": 103}, {"note": 67, "velocity": 96, "duration": 102}, {"note": 66, "velocity": 99, "duration": 104}, {"note": 67, "velocity": 95, "duration": 118}, {"note": 66, "velocity": 107, "duration": 176}, {"note": 0, "velocity": 0, "duration": 64}, {"note": 64, "velocity": 100, "duration": 111}, {"note": 62, "velocity": 93, "duration": 124}, {"note": 64, "velocity": 97, "duration": 247}, {"note": 0, "velocity": 0, "duration": 113}, {"note": 64, "velocity": 86, "duration": 61}, {"note": 64, "velocity": 99, "duration": 70}, {"note": 66, "velocity": 97, "duration": 80}, {"note": 67, "velocity": 90, "duration": 123}, {"note": 69, "velocity": 99, "duration": 219}, {"note": 66, "velocity": 86, "duration": 367}, {"note": 0, "velocity": 0, "duration": 353}, {"note": 64, "velocity": 89, "duration": 75}, {"note": 69, "velocity": 107, "duration": 222}, {"note": 64, "velocity": 100, "duration": 237}, {"note": 66, "velocity": 96, "duration": 236}, {"note": 64, "velocity": 97, "duration": 172}, {"note": 0, "velocity": 0, "duration": 68}, {"note": 69, "velocity": 127, "duration": 193}, {"note": 64, "velocity": 102, "duration": 201}, {"note": 66, "velocity": 117, "duration": 210}, {"note": 64, "velocity": 112, "duration": 151}, {"note": 0, "velocity": 0, "duration": 89}, {"note": 71, "velocity": 127, "duration": 173}, {"note": 0, "velocity": 0, "duration": 67}, {"note": 69, "velocity": 122, "duration": 173}, {"note": 0, "velocity": 0, "duration": 67}, {"note": 67, "velocity": 102, "duration": 189}, {"note": 69, "velocity": 127, "duration": 227}, {"note": 71, "velocity": 127, "duration": 140}, {"note": 0, "velocity": 0, "duration": 340}, {"note": 59, "velocity": 92, "duration": 344}, {"note": 0, "velocity": 0, "duration": 256}, {"note": 64, "velocity": 100, "duration": 1091}, {"note": 0, "velocity": 0, "duration": 8389}, {"note": 67, "velocity": 86, "duration": 425}, {"note": 0, "velocity": 0, "duration": 295}, {"note": 66, "velocity": 92, "duration": 127}, {"note": 64, "velocity": 63, "duration": 155}, {"note": 66, "velocity": 90, "duration": 218}, {"note": 0, "velocity": 0, "duration": 262}, {"note": 59, "velocity": 89, "duration": 231}, {"note": 0, "velocity": 0, "duration": 249}, {"note": 64, "velocity": 83, "duration": 489}, {"note": 0, "velocity": 0, "duration": 231}, {"note": 62, "velocity": 90, "duration": 104}, {"note": 60, "velocity": 64, "duration": 163}, {"note": 62, "velocity": 88, "duration": 673}, {"note": 0, "velocity": 0, "duration": 287}, {"note": 60, "velocity": 93, "duration": 248}, {"note": 0, "velocity": 0, "duration": 472}, {"note": 59, "velocity": 90, "duration": 95}, {"note": 57, "velocity": 62, "duration": 153}, {"note": 59, "velocity": 77, "duration": 376}, {"note": 63, "velocity": 99, "duration": 234}, {"note": 64, "velocity": 96, "duration": 238}, {"note": 0, "velocity": 0, "duration": 242}, {"note": 59, "velocity": 86, "duration": 184}, {"note": 0, "velocity": 0, "duration": 296}, {"note": 60, "velocity": 76, "duration": 500}, {"note": 59, "velocity": 77, "duration": 750}, {"note": 0, "velocity": 0, "duration": 210}, {"note": 67, "velocity": 93, "duration": 294}, {"note": 0, "velocity": 0, "duration": 426}, {"note": 66, "velocity": 97, "duration": 133}, {"note": 64, "velocity": 76, "duration": 145}, {"note": 66, "velocity": 95, "duration": 361}, {"note": 0, "velocity": 0, "duration": 119}, {"note": 59, "velocity": 90, "duration": 277}, {"note": 0, "velocity": 0, "duration": 203}, {"note": 71, "velocity": 117, "duration": 337}, {"note": 0, "velocity": 0, "duration": 143}, {"note": 71, "velocity": 102, "duration": 120}, {"note": 67, "velocity": 92, "duration": 82}, {"note": 69, "velocity": 92, "duration": 117}, {"note": 67, "velocity": 90, "duration": 104}, {"note": 66, "velocity": 95, "duration": 502}, {"note": 0, "velocity": 0, "duration": 458}, {"note": 69, "velocity": 107, "duration": 560}, {"note": 0, "velocity": 0, "duration": 160}, {"note": 67, "velocity": 100, "duration": 89}, {"note": 66, "velocity": 100, "duration": 79}, {"note": 67, "velocity": 99, "duration": 259}, {"note": 0, "velocity": 0, "duration": 221}, {"note": 64, "velocity": 99, "duration": 107}, {"note": 0, "velocity": 0, "duration": 373}, {"note": 66, "velocity": 117, "duration": 182}, {"note": 67, "velocity": 97, "duration": 174}, {"note": 0, "velocity": 0, "duration": 66}, {"note": 69, "velocity": 107, "duration": 214}, {"note": 71, "velocity": 96, "duration": 412}, {"note": 0, "velocity": 0, "duration": 68}, {"note": 66, "velocity": 92, "duration": 688}, {"note": 0, "velocity": 0, "duration": 632}, {"note": 67, "velocity": 74, "duration": 72}, {"note": 67, "velocity": 78, "duration": 84}, {"note": 66, "velocity": 96, "duration": 73}, {"note": 67, "velocity": 99, "duration": 345}, {"note": 66, "velocity": 102, "duration": 70}, {"note": 67, "velocity": 95, "duration": 100}, {"note": 0, "velocity": 0, "duration": 140}, {"note": 59, "velocity": 95, "duration": 198}, {"note": 59, "velocity": 88, "duration": 103}, {"note": 67, "velocity": 96, "duration": 102}, {"note": 66, "velocity": 99, "duration": 104}, {"note": 67, "velocity": 95, "duration": 118}, {"note": 66, "velocity": 107, "duration": 176}, {"note": 0, "velocity": 0, "duration": 64}, {"note": 64, "velocity": 100, "duration": 111}, {"note": 62, "velocity": 93, "duration": 124}, {"note": 64, "velocity": 97, "duration": 247}, {"note": 0, "velocity": 0, "duration": 113}, {"note": 64, "velocity": 86, "duration": 61}, {"note": 64, "velocity": 99, "duration": 70}, {"note": 66, "velocity": 97, "duration": 80}, {"note": 67, "velocity": 90, "duration": 123}, {"note": 64, "velocity": 92, "duration": 108}, {"note": 62, "velocity": 92, "duration": 256}, {"note": 0, "velocity": 0, "duration": 344}, {"note": 60, "velocity": 100, "duration": 64}, {"note": 60, "velocity": 95, "duration": 87}, {"note": 59, "velocity": 90, "duration": 110}, {"note": 60, "velocity": 107, "duration": 267}, {"note": 0, "velocity": 0, "duration": 93}, {"note": 59, "velocity": 96, "duration": 84}, {"note": 60, "velocity": 107, "duration": 231}, {"note": 0, "velocity": 0, "duration": 249}, {"note": 59, "velocity": 95, "duration": 263}, {"note": 57, "velocity": 96, "duration": 86}, {"note": 0, "velocity": 0, "duration": 154}, {"note": 55, "velocity": 79, "duration": 228}, {"note": 54, "velocity": 79, "duration": 222}, {"note": 57, "velocity": 97, "duration": 217}, {"note": 59, "velocity": 107, "duration": 196}, {"note": 60, "velocity": 112, "duration": 182}, {"note": 62, "velocity": 96, "duration": 120}, {"note": 60, "velocity": 85, "duration": 112}, {"note": 59, "velocity": 96, "duration": 417}, {"note": 0, "velocity": 0, "duration": 183}, {"note": 67, "velocity": 74, "duration": 72}, {"note": 67, "velocity": 78, "duration": 84}, {"note": 66, "velocity": 96, "duration": 73}, {"note": 67, "velocity": 99, "duration": 345}, {"note": 66, "velocity": 102, "duration": 70}, {"note": 67, "velocity": 95, "duration": 100}, {"note": 0, "velocity": 0, "duration": 140}, {"note": 59, "velocity": 95, "duration": 198}, {"note": 59, "velocity": 88, "duration": 103}, {"note": 67, "velocity": 96, "duration": 102}, {"note": 66, "velocity": 99, "duration": 104}, {"note": 67, "velocity": 95, "duration": 118}, {"note": 66, "velocity": 107, "duration": 176}, {"note": 0, "velocity": 0, "duration": 64}, {"note": 64, "velocity": 100, "duration": 111}, {"note": 62, "velocity": 93, "duration": 124}, {"note": 64, "velocity": 97, "duration": 247}, {"note": 0, "velocity": 0, "duration": 113}, {"note": 64, "velocity": 86, "duration": 61}, {"note": 64, "velocity": 99, "duration": 70}, {"note": 66, "velocity": 97, "duration": 80}, {"note": 67, "velocity": 90, "duration": 123}, {"note": 69, "velocity": 99, "duration": 219}, {"note": 66, "velocity": 86, "duration": 367}, {"note": 0, "velocity": 0, "duration": 353}, {"note": 64, "velocity": 89, "duration": 75}, {"note": 69, "velocity": 107, "duration": 222}, {"note": 64, "velocity": 100, "duration": 237}, {"note": 66, "velocity": 96, "duration": 236}, {"note": 64, "velocity": 97, "duration": 172}, {"note": 0, "velocity": 0, "duration": 68}, {"note": 69, "velocity": 127, "duration": 193}, {"note": 64, "velocity": 102, "duration": 201}, {"note": 66, "velocity": 117, "duration": 210}, {"note": 64, "velocity": 112, "duration": 151}, {"note": 0, "velocity": 0, "duration": 89}, {"note": 71, "velocity": 127, "duration": 173}, {"note": 0, "velocity": 0, "duration": 67}, {"note": 69, "velocity": 122, "duration": 173}, {"note": 0, "velocity": 0, "duration": 67}, {"note": 67, "velocity": 102, "duration": 189}, {"note": 69, "velocity": 127, "duration": 227}, {"note": 71, "velocity": 127, "duration": 140}, {"note": 0, "velocity": 0, "duration": 340}, {"note": 59, "velocity": 92, "duration": 344}, {"note": 0, "velocity": 0, "duration": 256}, {"note": 64, "velocity": 100, "duration": 1091}, {"note": 0, "velocity": 0, "duration": 2989}, {"note": 59, "velocity": 95, "duration": 109}, {"note": 64, "velocity": 99, "duration": 628}, {"note": 0, "velocity": 0, "duration": 212}, {"note": 67, "velocity": 97, "duration": 96}, {"note": 66, "velocity": 100, "duration": 591}, {"note": 0, "velocity": 0, "duration": 249}, {"note": 69, "velocity": 100, "duration": 102}, {"note": 67, "velocity": 97, "duration": 350}, {"note": 0, "velocity": 0, "duration": 250}, {"note": 71, "velocity": 100, "duration": 55}, {"note": 0, "velocity": 0, "duration": 65}, {"note": 69, "velocity": 100, "duration": 60}, {"note": 67, "velocity": 90, "duration": 64}, {"note": 69, "velocity": 127, "duration": 150}, {"note": 0, "velocity": 0, "duration": 90}, {"note": 71, "velocity": 107, "duration": 143}, {"note": 0, "velocity": 0, "duration": 97}, {"note": 72, "velocity": 127, "duration": 170}, {"note": 0, "velocity": 0, "duration": 70}, {"note": 59, "velocity": 112, "duration": 194}, {"note": 64, "velocity": 117, "duration": 335}, {"note": 0, "velocity": 0, "duration": 505}, {"note": 67, "velocity": 97, "duration": 75}, {"note": 66, "velocity": 122, "duration": 511}, {"note": 0, "velocity": 0, "duration": 329}, {"note": 69, "velocity": 117, "duration": 102}, {"note": 67, "velocity": 127, "duration": 413}, {"note": 0, "velocity": 0, "duration": 187}, {"note": 71, "velocity": 127, "duration": 105}, {"note": 69, "velocity": 100, "duration": 100}, {"note": 67, "velocity": 99, "duration": 60}, {"note": 69, "velocity": 127, "duration": 158}, {"note": 0, "velocity": 0, "duration": 82}, {"note": 71, "velocity": 127, "duration": 168}, {"note": 0, "velocity": 0, "duration": 72}, {"note": 72, "velocity": 107, "duration": 208}, {"note": 59, "velocity": 102, "duration": 184}, {"note": 64, "velocity": 112, "duration": 507}, {"note": 0, "velocity": 0, "duration": 333}, {"note": 67, "velocity": 102, "duration": 81}, {"note": 66, "velocity": 117, "duration": 410}, {"note": 0, "velocity": 0, "duration": 430}, {"note": 69, "velocity": 107, "duration": 84}, {"note": 67, "velocity": 100, "duration": 492}, {"note": 0, "velocity": 0, "duration": 108}, {"note": 71, "velocity": 107, "duration": 129}, {"note": 69, "velocity": 99, "duration": 107}, {"note": 67, "velocity": 77, "duration": 155}, {"note": 69, "velocity": 127, "duration": 187}, {"note": 71, "velocity": 127, "duration": 167}, {"note": 0, "velocity": 0, "duration": 73}, {"note": 73, "velocity": 122, "duration": 208}, {"note": 75, "velocity": 127, "duration": 215}, {"note": 76, "velocity": 127, "duration": 1130}, {"note": 75, "velocity": 127, "duration": 364}, {"note": 0, "velocity": 0, "duration": 116}, {"note": 71, "velocity": 117, "duration": 343}, {"note": 0, "velocity": 0, "duration": 137}, {"note": 69, "velocity": 112, "duration": 470}, {"note": 0, "velocity": 0, "duration": 130}, {"note": 67, "velocity": 99, "duration": 51}, {"note": 0, "velocity": 0, "duration": 69}, {"note": 67, "velocity": 96, "duration": 78}, {"note": 66, "velocity": 112, "duration": 76}, {"note": 67, "velocity": 117, "duration": 159}, {"note": 0, "velocity": 0, "duration": 81}, {"note": 69, "velocity": 112, "duration": 148}, {"note": 0, "velocity": 0, "duration": 92}, {"note": 71, "velocity": 127, "duration": 206}, {"note": 0, "velocity": 0, "duration": 274}, {"note": 76, "velocity": 127, "duration": 434}, {"note": 0, "velocity": 0, "duration": 286}, {"note": 75, "velocity": 127, "duration": 111}, {"note": 73, "velocity": 97, "duration": 87}, {"note": 75, "velocity": 127, "duration": 449}, {"note": 71, "velocity": 107, "duration": 425}, {"note": 69, "velocity": 117, "duration": 496}, {"note": 0, "velocity": 0, "duration": 104}, {"note": 67, "velocity": 100, "duration": 49}, {"note": 0, "velocity": 0, "duration": 71}, {"note": 67, "velocity": 100, "duration": 71}, {"note": 66, "velocity": 122, "duration": 61}, {"note": 67, "velocity": 112, "duration": 176}, {"note": 0, "velocity": 0, "duration": 64}, {"note": 66, "velocity": 112, "duration": 127}, {"note": 0, "velocity": 0, "duration": 113}, {"note": 64, "velocity": 122, "duration": 259}, {"note": 0, "velocity": 0, "duration": 221}, {"note": 66, "velocity": 127, "duration": 145}, {"note": 0, "velocity": 0, "duration": 95}, {"note": 67, "velocity": 107, "duration": 163}, {"note": 0, "velocity": 0, "duration": 77}, {"note": 69, "velocity": 127, "duration": 142}, {"note": 0, "velocity": 0, "duration": 98}, {"note": 71, "velocity": 127, "duration": 151}, {"note": 0, "velocity": 0, "duration": 89}, {"note": 72, "velocity": 127, "duration": 182}, {"note": 0, "velocity": 0, "duration": 298}, {"note": 74, "velocity": 127, "duration": 367}, {"note": 0, "velocity": 0, "duration": 113}, {"note": 76, "velocity": 122, "duration": 1120}, {"note": 0, "velocity": 0, "duration": 200}, {"note": 75, "velocity": 102, "duration": 579}, {"note": 75, "velocity": 122, "duration": 89}, {"note": 0, "velocity": 0, "duration": 151}, {"note": 73, "velocity": 93, "duration": 103}, {"note": 0, "velocity": 0, "duration": 137}, {"note": 75, "velocity": 117, "duration": 773}, {"note": 0, "velocity": 0, "duration": 3067}, {"note": 76, "velocity": 95, "duration": 100}, {"note": 0, "velocity": 0, "duration": 140}, {"note": 71, "velocity": 75, "duration": 95}, {"note": 0, "velocity": 0, "duration": 145}, {"note": 72, "velocity": 85, "duration": 92}, {"note": 0, "velocity": 0, "duration": 148}, {"note": 74, "velocity": 90, "duration": 92}, {"note": 0, "velocity": 0, "duration": 148}, {"note": 71, "velocity": 93, "duration": 316}, {"note": 0, "velocity": 0, "duration": 164}, {"note": 69, "velocity": 93, "duration": 123}, {"note": 0, "velocity": 0, "duration": 117}, {"note": 67, "velocity": 88, "duration": 94}, {"note": 0, "velocity": 0, "duration": 146}, {"note": 66, "velocity": 93, "duration": 195}, {"note": 0, "velocity": 0, "duration": 285}, {"note": 71, "velocity": 93, "duration": 167}, {"note": 0, "velocity": 0, "duration": 313}, {"note": 64, "velocity": 92, "duration": 552}, {"note": 0, "velocity": 0, "duration": 408}, {"note": 76, "velocity": 95, "duration": 100}, {"note": 0, "velocity": 0, "duration": 140}, {"note": 71, "velocity": 75, "duration": 95}, {"note": 0, "velocity": 0, "duration": 145}, {"note": 72, "velocity": 85, "duration": 92}, {"note": 0, "velocity": 0, "duration": 148}, {"note": 74, "velocity": 90, "duration": 92}, {"note": 0, "velocity": 0, "duration": 148}, {"note": 71, "velocity": 93, "duration": 316}, {"note": 0, "velocity": 0, "duration": 164}, {"note": 69, "velocity": 93, "duration": 123}, {"note": 0, "velocity": 0, "duration": 117}, {"note": 67, "velocity": 88, "duration": 94}, {"note": 0, "velocity": 0, "duration": 146}, {"note": 66, "velocity": 93, "duration": 195}, {"note": 0, "velocity": 0, "duration": 285}, {"note": 71, "velocity": 93, "duration": 167}, {"note": 0, "velocity": 0, "duration": 793}, {"note": 64, "velocity": 92, "duration": 552}, {"note": 0, "velocity": 0, "duration": 1368}, {"note": 67, "velocity": 88, "duration": 389}, {"note": 0, "velocity": 0, "duration": 331}, {"note": 66, "velocity": 95, "duration": 132}, {"note": 64, "velocity": 76, "duration": 65}, {"note": 66, "velocity": 100, "duration": 341}, {"note": 0, "velocity": 0, "duration": 139}, {"note": 59, "velocity": 92, "duration": 237}, {"note": 0, "velocity": 0, "duration": 243}, {"note": 64, "velocity": 96, "duration": 281}, {"note": 0, "velocity": 0, "duration": 439}, {"note": 62, "velocity": 99, "duration": 80}, {"note": 60, "velocity": 78, "duration": 62}, {"note": 62, "velocity": 90, "duration": 348}, {"note": 0, "velocity": 0, "duration": 612}, {"note": 60, "velocity": 102, "duration": 270}, {"note": 0, "velocity": 0, "duration": 450}, {"note": 59, "velocity": 75, "duration": 101}, {"note": 57, "velocity": 72, "duration": 149}, {"note": 59, "velocity": 83, "duration": 220}, {"note": 63, "velocity": 99, "duration": 171}, {"note": 0, "velocity": 0, "duration": 69}, {"note": 64, "velocity": 96, "duration": 295}, {"note": 0, "velocity": 0, "duration": 185}, {"note": 59, "velocity": 88, "duration": 196}, {"note": 0, "velocity": 0, "duration": 284}, {"note": 60, "velocity": 88, "duration": 152}, {"note": 0, "velocity": 0, "duration": 328}, {"note": 59, "velocity": 79, "duration": 328}, {"note": 0, "velocity": 0, "duration": 632}, {"note": 67, "velocity": 99, "duration": 257}, {"note": 0, "velocity": 0, "duration": 463}, {"note": 66, "velocity": 99, "duration": 123}, {"note": 64, "velocity": 90, "duration": 91}, {"note": 66, "velocity": 102, "duration": 304}, {"note": 0, "velocity": 0, "duration": 176}, {"note": 59, "velocity": 96, "duration": 244}, {"note": 0, "velocity": 0, "duration": 236}, {"note": 71, "velocity": 117, "duration": 399}, {"note": 0, "velocity": 0, "duration": 81}, {"note": 71, "velocity": 96, "duration": 134}, {"note": 67, "velocity": 89, "duration": 70}, {"note": 69, "velocity": 95, "duration": 124}, {"note": 0, "velocity": 0, "duration": 116}, {"note": 67, "velocity": 95, "duration": 136}, {"note": 0, "velocity": 0, "duration": 104}, {"note": 66, "velocity": 112, "duration": 195}, {"note": 0, "velocity": 0, "duration": 525}, {"note": 69, "velocity": 112, "duration": 219}, {"note": 0, "velocity": 0, "duration": 501}, {"note": 67, "velocity": 99, "duration": 88}, {"note": 66, "velocity": 97, "duration": 72}, {"note": 67, "velocity": 107, "duration": 214}, {"note": 0, "velocity": 0, "duration": 266}, {"note": 64, "velocity": 100, "duration": 205}, {"note": 0, "velocity": 0, "duration": 275}, {"note": 66, "velocity": 117, "duration": 185}, {"note": 67, "velocity": 93, "duration": 219}, {"note": 69, "velocity": 99, "duration": 281}, {"note": 0, "velocity": 0, "duration": 79}, {"note": 71, "velocity": 95, "duration": 586}, {"note": 0, "velocity": 0, "duration": 254}, {"note": 66, "velocity": 78, "duration": 1558}]]