[[{"note": 68, "velocity": 102, "duration": 290}, {"note": 0, "velocity": 0, "duration": 190}, {"note": 70, "velocity": 127, "duration": 169}, {"note": 0, "velocity": 0, "duration": 79}, {"note": 65, "velocity": 97, "duration": 256}, {"note": 0, "velocity": 0, "duration": 933}, {"note": 65, "velocity": 99, "duration": 298}, {"note": 63, "velocity": 97, "duration": 131}, {"note": 65, "velocity": 95, "duration": 187}, {"note": 61, "velocity": 96, "duration": 540}, {"note": 0, "velocity": 0, "duration": 659}, {"note": 56, "velocity": 93, "duration": 291}, {"note": 58, "velocity": 74, "duration": 198}, {"note": 68, "velocity": 93, "duration": 233}, {"note": 0, "velocity": 0, "duration": 87}, {"note": 65, "velocity": 99, "duration": 694}, {"note": 0, "velocity": 0, "duration": 266}, {"note": 65, "velocity": 96, "duration": 110}, {"note": 68, "velocity": 92, "duration": 220}, {"note": 0, "velocity": 0, "duration": 100}, {"note": 65, "velocity": 99, "duration": 83}, {"note": 0, "velocity": 0, "duration": 77}, {"note": 61, "velocity": 96, "duration": 242}, {"note": 0, "velocity": 0, "duration": 78}, {"note": 58, "velocity": 102, "duration": 616}, {"note": 0, "velocity": 0, "duration": 984}, {"note": 70, "velocity": 112, "duration": 201}, {"note": 0, "velocity": 0, "duration": 119}, {"note": 70, "velocity": 102, "duration": 90}, {"note": 0, "velocity": 0, "duration": 70}, {"note": 68, "velocity": 102, "duration": 202}, {"note": 0, "velocity": 0, "duration": 118}, {"note": 70, "velocity": 102, "duration": 73}, {"note": 0, "velocity": 0, "duration": 90}, {"note": 65, "velocity": 100, "duration": 512}, {"note": 0, "velocity": 0, "duration": 431}, {"note": 70, "velocity": 112, "duration": 50}, {"note": 0, "velocity": 0, "duration": 118}, {"note": 70, "velocity": 100, "duration": 62}, {"note": 0, "velocity": 0, "duration": 103}, {"note": 68, "velocity": 100, "duration": 60}, {"note": 0, "velocity": 0, "duration": 100}, {"note": 70, "velocity": 107, "duration": 141}, {"note": 68, "velocity": 99, "duration": 67}, {"note": 0, "velocity": 0, "duration": 88}, {"note": 63, "velocity": 100, "duration": 133}, {"note": 65, "velocity": 112, "duration": 494}, {"note": 0, "velocity": 0, "duration": 458}, {"note": 63, "velocity": 102, "duration": 187}, {"note": 0, "velocity": 0, "duration": 115}, {"note": 61, "velocity": 93, "duration": 74}, {"note": 0, "velocity": 0, "duration": 101}, {"note": 63, "velocity": 102, "duration": 187}, {"note": 0, "velocity": 0, "duration": 120}, {"note": 61, "velocity": 99, "duration": 77}, {"note": 0, "velocity": 0, "duration": 101}, {"note": 63, "velocity": 107, "duration": 56}, {"note": 0, "velocity": 0, "duration": 105}, {"note": 63, "velocity": 102, "duration": 53}, {"note": 0, "velocity": 0, "duration": 104}, {"note": 61, "velocity": 97, "duration": 78}, {"note": 0, "velocity": 0, "duration": 82}, {"note": 63, "velocity": 102, "duration": 57}, {"note": 0, "velocity": 0, "duration": 105}, {"note": 63, "velocity": 107, "duration": 55}, {"note": 0, "velocity": 0, "duration": 102}, {"note": 65, "velocity": 97, "duration": 53}, {"note": 0, "velocity": 0, "duration": 127}, {"note": 63, "velocity": 122, "duration": 132}, {"note": 63, "velocity": 122, "duration": 50}, {"note": 0, "velocity": 0, "duration": 100}, {"note": 61, "velocity": 93, "duration": 56}, {"note": 0, "velocity": 0, "duration": 100}, {"note": 63, "velocity": 112, "duration": 51}, {"note": 0, "velocity": 0, "duration": 106}, {"note": 63, "velocity": 102, "duration": 55}, {"note": 0, "velocity": 0, "duration": 108}, {"note": 61, "velocity": 95, "duration": 62}, {"note": 0, "velocity": 0, "duration": 95}, {"note": 65, "velocity": 127, "duration": 210}, {"note": 0, "velocity": 0, "duration": 430}, {"note": 68, "velocity": 117, "duration": 264}, {"note": 70, "velocity": 122, "duration": 157}, {"note": 0, "velocity": 0, "duration": 105}, {"note": 65, "velocity": 102, "duration": 127}, {"note": 63, "velocity": 97, "duration": 100}, {"note": 65, "velocity": 102, "duration": 260}, {"note": 0, "velocity": 0, "duration": 647}, {"note": 65, "velocity": 97, "duration": 174}, {"note": 63, "velocity": 122, "duration": 197}, {"note": 0, "velocity": 0, "duration": 99}, {"note": 65, "velocity": 100, "duration": 178}, {"note": 61, "velocity": 112, "duration": 662}, {"note": 0, "velocity": 0, "duration": 627}, {"note": 56, "velocity": 99, "duration": 242}, {"note": 58, "velocity": 102, "duration": 85}, {"note": 0, "velocity": 0, "duration": 103}, {"note": 68, "velocity": 102, "duration": 278}, {"note": 65, "velocity": 117, "duration": 661}, {"note": 0, "velocity": 0, "duration": 306}, {"note": 65, "velocity": 95, "duration": 69}, {"note": 0, "velocity": 0, "duration": 92}, {"note": 68, "velocity": 107, "duration": 174}, {"note": 0, "velocity": 0, "duration": 137}, {"note": 63, "velocity": 97, "duration": 91}, {"note": 0, "velocity": 0, "duration": 85}, {"note": 61, "velocity": 99, "duration": 267}, {"note": 58, "velocity": 92, "duration": 881}, {"note": 0, "velocity": 0, "duration": 778}, {"note": 70, "velocity": 127, "duration": 181}, {"note": 0, "velocity": 0, "duration": 113}, {"note": 70, "velocity": 117, "duration": 106}, {"note": 0, "velocity": 0, "duration": 64}, {"note": 68, "velocity": 127, "duration": 217}, {"note": 0, "velocity": 0, "duration": 81}, {"note": 70, "velocity": 122, "duration": 87}, {"note": 0, "velocity": 0, "duration": 86}, {"note": 65, "velocity": 112, "duration": 557}, {"note": 0, "velocity": 0, "duration": 418}, {"note": 70, "velocity": 112, "duration": 50}, {"note": 0, "velocity": 0, "duration": 102}, {"note": 70, "velocity": 102, "duration": 68}, {"note": 0, "velocity": 0, "duration": 90}, {"note": 68, "velocity": 102, "duration": 55}, {"note": 0, "velocity": 0, "duration": 109}, {"note": 70, "velocity": 122, "duration": 94}, {"note": 0, "velocity": 0, "duration": 69}, {"note": 68, "velocity": 102, "duration": 47}, {"note": 0, "velocity": 0, "duration": 106}, {"note": 63, "velocity": 99, "duration": 75}, {"note": 0, "velocity": 0, "duration": 84}, {"note": 65, "velocity": 122, "duration": 521}, {"note": 0, "velocity": 0, "duration": 453}, {"note": 63, "velocity": 107, "duration": 167}, {"note": 0, "velocity": 0, "duration": 125}, {"note": 61, "velocity": 100, "duration": 94}, {"note": 0, "velocity": 0, "duration": 80}, {"note": 63, "velocity": 117, "duration": 175}, {"note": 0, "velocity": 0, "duration": 150}, {"note": 61, "velocity": 97, "duration": 80}, {"note": 0, "velocity": 0, "duration": 97}, {"note": 63, "velocity": 107, "duration": 62}, {"note": 0, "velocity": 0, "duration": 92}, {"note": 63, "velocity": 99, "duration": 62}, {"note": 0, "velocity": 0, "duration": 97}, {"note": 61, "velocity": 97, "duration": 56}, {"note": 0, "velocity": 0, "duration": 103}, {"note": 63, "velocity": 122, "duration": 97}, {"note": 63, "velocity": 107, "duration": 50}, {"note": 0, "velocity": 0, "duration": 104}, {"note": 65, "velocity": 99, "duration": 57}, {"note": 0, "velocity": 0, "duration": 111}, {"note": 63, "velocity": 107, "duration": 51}, {"note": 0, "velocity": 0, "duration": 118}, {"note": 63, "velocity": 96, "duration": 44}, {"note": 0, "velocity": 0, "duration": 110}, {"note": 61, "velocity": 97, "duration": 56}, {"note": 0, "velocity": 0, "duration": 105}, {"note": 63, "velocity": 127, "duration": 51}, {"note": 0, "velocity": 0, "duration": 109}, {"note": 63, "velocity": 99, "duration": 79}, {"note": 0, "velocity": 0, "duration": 79}, {"note": 65, "velocity": 112, "duration": 58}, {"note": 0, "velocity": 0, "duration": 103}, {"note": 70, "velocity": 127, "duration": 54}, {"note": 0, "velocity": 0, "duration": 105}, {"note": 70, "velocity": 127, "duration": 96}, {"note": 0, "velocity": 0, "duration": 709}, {"note": 73, "velocity": 127, "duration": 72}, {"note": 0, "velocity": 0, "duration": 86}, {"note": 70, "velocity": 99, "duration": 51}, {"note": 0, "velocity": 0, "duration": 105}, {"note": 70, "velocity": 107, "duration": 50}, {"note": 0, "velocity": 0, "duration": 115}, {"note": 70, "velocity": 117, "duration": 50}, {"note": 0, "velocity": 0, "duration": 101}, {"note": 68, "velocity": 92, "duration": 51}, {"note": 0, "velocity": 0, "duration": 114}, {"note": 70, "velocity": 99, "duration": 46}, {"note": 0, "velocity": 0, "duration": 111}, {"note": 68, "velocity": 127, "duration": 44}, {"note": 0, "velocity": 0, "duration": 114}, {"note": 65, "velocity": 96, "duration": 53}, {"note": 0, "velocity": 0, "duration": 112}, {"note": 65, "velocity": 102, "duration": 50}, {"note": 0, "velocity": 0, "duration": 109}, {"note": 65, "velocity": 112, "duration": 146}, {"note": 63, "velocity": 107, "duration": 60}, {"note": 0, "velocity": 0, "duration": 91}, {"note": 65, "velocity": 100, "duration": 60}, {"note": 0, "velocity": 0, "duration": 99}, {"note": 68, "velocity": 112, "duration": 114}, {"note": 68, "velocity": 127, "duration": 51}, {"note": 0, "velocity": 0, "duration": 102}, {"note": 65, "velocity": 102, "duration": 61}, {"note": 0, "velocity": 0, "duration": 95}, {"note": 63, "velocity": 102, "duration": 56}, {"note": 0, "velocity": 0, "duration": 107}, {"note": 63, "velocity": 117, "duration": 64}, {"note": 0, "velocity": 0, "duration": 104}, {"note": 68, "velocity": 112, "duration": 57}, {"note": 0, "velocity": 0, "duration": 104}, {"note": 65, "velocity": 107, "duration": 51}, {"note": 0, "velocity": 0, "duration": 107}, {"note": 65, "velocity": 102, "duration": 46}, {"note": 0, "velocity": 0, "duration": 112}, {"note": 63, "velocity": 102, "duration": 56}, {"note": 0, "velocity": 0, "duration": 113}, {"note": 65, "velocity": 127, "duration": 125}, {"note": 0, "velocity": 0, "duration": 352}, {"note": 73, "velocity": 127, "duration": 62}, {"note": 0, "velocity": 0, "duration": 95}, {"note": 70, "velocity": 102, "duration": 49}, {"note": 0, "velocity": 0, "duration": 108}, {"note": 70, "velocity": 107, "duration": 51}, {"note": 0, "velocity": 0, "duration": 106}, {"note": 70, "velocity": 112, "duration": 44}, {"note": 0, "velocity": 0, "duration": 105}, {"note": 68, "velocity": 102, "duration": 51}, {"note": 0, "velocity": 0, "duration": 111}, {"note": 70, "velocity": 112, "duration": 47}, {"note": 0, "velocity": 0, "duration": 114}, {"note": 68, "velocity": 122, "duration": 43}, {"note": 0, "velocity": 0, "duration": 108}, {"note": 65, "velocity": 97, "duration": 54}, {"note": 0, "velocity": 0, "duration": 107}, {"note": 65, "velocity": 97, "duration": 50}, {"note": 0, "velocity": 0, "duration": 116}, {"note": 65, "velocity": 112, "duration": 89}, {"note": 0, "velocity": 0, "duration": 71}, {"note": 63, "velocity": 97, "duration": 75}, {"note": 0, "velocity": 0, "duration": 79}, {"note": 65, "velocity": 97, "duration": 65}, {"note": 0, "velocity": 0, "duration": 99}, {"note": 68, "velocity": 107, "duration": 70}, {"note": 0, "velocity": 0, "duration": 97}, {"note": 68, "velocity": 102, "duration": 63}, {"note": 0, "velocity": 0, "duration": 88}, {"note": 65, "velocity": 102, "duration": 67}, {"note": 0, "velocity": 0, "duration": 99}, {"note": 63, "velocity": 112, "duration": 72}, {"note": 0, "velocity": 0, "duration": 89}, {"note": 63, "velocity": 107, "duration": 94}, {"note": 68, "velocity": 100, "duration": 64}, {"note": 0, "velocity": 0, "duration": 92}, {"note": 70, "velocity": 127, "duration": 58}, {"note": 0, "velocity": 0, "duration": 104}, {"note": 70, "velocity": 117, "duration": 56}, {"note": 0, "velocity": 0, "duration": 104}, {"note": 68, "velocity": 112, "duration": 44}, {"note": 0, "velocity": 0, "duration": 118}, {"note": 70, "velocity": 127, "duration": 59}, {"note": 0, "velocity": 0, "duration": 906}, {"note": 58, "velocity": 107, "duration": 297}, {"note": 61, "velocity": 112, "duration": 103}, {"note": 0, "velocity": 0, "duration": 80}, {"note": 65, "velocity": 107, "duration": 291}, {"note": 63, "velocity": 96, "duration": 946}, {"note": 0, "velocity": 0, "duration": 156}, {"note": 65, "velocity": 100, "duration": 286}, {"note": 68, "velocity": 102, "duration": 141}, {"note": 73, "velocity": 112, "duration": 293}, {"note": 70, "velocity": 107, "duration": 657}, {"note": 70, "velocity": 122, "duration": 201}, {"note": 68, "velocity": 112, "duration": 184}, {"note": 0, "velocity": 0, "duration": 61}, {"note": 72, "velocity": 117, "duration": 169}, {"note": 0, "velocity": 0, "duration": 66}, {"note": 68, "velocity": 112, "duration": 191}, {"note": 0, "velocity": 0, "duration": 63}, {"note": 70, "velocity": 122, "duration": 1430}, {"note": 0, "velocity": 0, "duration": 15520}, {"note": 68, "velocity": 117, "duration": 264}, {"note": 70, "velocity": 122, "duration": 157}, {"note": 0, "velocity": 0, "duration": 163}, {"note": 65, "velocity": 102, "duration": 139}, {"note": 63, "velocity": 97, "duration": 116}, {"note": 65, "velocity": 102, "duration": 295}, {"note": 0, "velocity": 0, "duration": 574}, {"note": 65, "velocity": 122, "duration": 173}, {"note": 63, "velocity": 97, "duration": 190}, {"note": 0, "velocity": 0, "duration": 85}, {"note": 65, "velocity": 100, "duration": 178}, {"note": 61, "velocity": 112, "duration": 611}, {"note": 0, "velocity": 0, "duration": 627}, {"note": 56, "velocity": 99, "duration": 242}, {"note": 58, "velocity": 102, "duration": 85}, {"note": 0, "velocity": 0, "duration": 103}, {"note": 68, "velocity": 102, "duration": 278}, {"note": 65, "velocity": 117, "duration": 661}, {"note": 0, "velocity": 0, "duration": 306}, {"note": 65, "velocity": 95, "duration": 69}, {"note": 0, "velocity": 0, "duration": 92}, {"note": 68, "velocity": 107, "duration": 174}, {"note": 0, "velocity": 0, "duration": 137}, {"note": 63, "velocity": 97, "duration": 91}, {"note": 0, "velocity": 0, "duration": 85}, {"note": 61, "velocity": 99, "duration": 267}, {"note": 58, "velocity": 92, "duration": 881}, {"note": 0, "velocity": 0, "duration": 778}, {"note": 70, "velocity": 127, "duration": 181}, {"note": 0, "velocity": 0, "duration": 113}, {"note": 70, "velocity": 117, "duration": 106}, {"note": 0, "velocity": 0, "duration": 64}, {"note": 68, "velocity": 127, "duration": 217}, {"note": 0, "velocity": 0, "duration": 81}, {"note": 70, "velocity": 122, "duration": 87}, {"note": 0, "velocity": 0, "duration": 86}, {"note": 65, "velocity": 112, "duration": 557}, {"note": 0, "velocity": 0, "duration": 418}, {"note": 70, "velocity": 112, "duration": 50}, {"note": 0, "velocity": 0, "duration": 102}, {"note": 70, "velocity": 102, "duration": 68}, {"note": 0, "velocity": 0, "duration": 90}, {"note": 68, "velocity": 102, "duration": 55}, {"note": 0, "velocity": 0, "duration": 109}, {"note": 70, "velocity": 122, "duration": 94}, {"note": 0, "velocity": 0, "duration": 69}, {"note": 68, "velocity": 102, "duration": 47}, {"note": 0, "velocity": 0, "duration": 106}, {"note": 63, "velocity": 99, "duration": 75}, {"note": 0, "velocity": 0, "duration": 84}, {"note": 65, "velocity": 122, "duration": 521}, {"note": 0, "velocity": 0, "duration": 453}, {"note": 63, "velocity": 107, "duration": 167}, {"note": 0, "velocity": 0, "duration": 125}, {"note": 61, "velocity": 100, "duration": 94}, {"note": 0, "velocity": 0, "duration": 80}, {"note": 63, "velocity": 117, "duration": 175}, {"note": 0, "velocity": 0, "duration": 150}, {"note": 61, "velocity": 97, "duration": 80}, {"note": 0, "velocity": 0, "duration": 97}, {"note": 63, "velocity": 107, "duration": 62}, {"note": 0, "velocity": 0, "duration": 92}, {"note": 63, "velocity": 99, "duration": 62}, {"note": 0, "velocity": 0, "duration": 97}, {"note": 61, "velocity": 97, "duration": 56}, {"note": 0, "velocity": 0, "duration": 103}, {"note": 63, "velocity": 122, "duration": 97}, {"note": 63, "velocity": 107, "duration": 50}, {"note": 0, "velocity": 0, "duration": 104}, {"note": 65, "velocity": 99, "duration": 57}, {"note": 0, "velocity": 0, "duration": 111}, {"note": 63, "velocity": 107, "duration": 51}, {"note": 0, "velocity": 0, "duration": 118}, {"note": 63, "velocity": 96, "duration": 44}, {"note": 0, "velocity": 0, "duration": 110}, {"note": 61, "velocity": 97, "duration": 56}, {"note": 0, "velocity": 0, "duration": 105}, {"note": 63, "velocity": 127, "duration": 51}, {"note": 0, "velocity": 0, "duration": 109}, {"note": 63, "velocity": 99, "duration": 79}, {"note": 0, "velocity": 0, "duration": 79}, {"note": 65, "velocity": 112, "duration": 58}, {"note": 0, "velocity": 0, "duration": 103}, {"note": 70, "velocity": 127, "duration": 54}, {"note": 0, "velocity": 0, "duration": 105}, {"note": 70, "velocity": 127, "duration": 96}, {"note": 0, "velocity": 0, "duration": 711}, {"note": 73, "velocity": 127, "duration": 72}, {"note": 0, "velocity": 0, "duration": 84}, {"note": 70, "velocity": 99, "duration": 51}, {"note": 0, "velocity": 0, "duration": 105}, {"note": 70, "velocity": 107, "duration": 50}, {"note": 0, "velocity": 0, "duration": 115}, {"note": 70, "velocity": 117, "duration": 50}, {"note": 0, "velocity": 0, "duration": 101}, {"note": 68, "velocity": 92, "duration": 51}, {"note": 0, "velocity": 0, "duration": 114}, {"note": 70, "velocity": 99, "duration": 46}, {"note": 0, "velocity": 0, "duration": 111}, {"note": 68, "velocity": 127, "duration": 44}, {"note": 0, "velocity": 0, "duration": 114}, {"note": 65, "velocity": 96, "duration": 53}, {"note": 0, "velocity": 0, "duration": 112}, {"note": 65, "velocity": 102, "duration": 50}, {"note": 0, "velocity": 0, "duration": 109}, {"note": 65, "velocity": 112, "duration": 146}, {"note": 63, "velocity": 107, "duration": 60}, {"note": 0, "velocity": 0, "duration": 91}, {"note": 65, "velocity": 100, "duration": 60}, {"note": 0, "velocity": 0, "duration": 99}, {"note": 68, "velocity": 112, "duration": 114}, {"note": 68, "velocity": 127, "duration": 51}, {"note": 0, "velocity": 0, "duration": 102}, {"note": 65, "velocity": 102, "duration": 61}, {"note": 0, "velocity": 0, "duration": 95}, {"note": 63, "velocity": 102, "duration": 56}, {"note": 0, "velocity": 0, "duration": 107}, {"note": 63, "velocity": 117, "duration": 64}, {"note": 0, "velocity": 0, "duration": 104}, {"note": 68, "velocity": 112, "duration": 57}, {"note": 0, "velocity": 0, "duration": 104}, {"note": 65, "velocity": 107, "duration": 51}, {"note": 0, "velocity": 0, "duration": 107}, {"note": 65, "velocity": 102, "duration": 46}, {"note": 0, "velocity": 0, "duration": 112}, {"note": 63, "velocity": 102, "duration": 56}, {"note": 0, "velocity": 0, "duration": 113}, {"note": 65, "velocity": 127, "duration": 125}, {"note": 0, "velocity": 0, "duration": 352}, {"note": 73, "velocity": 127, "duration": 62}, {"note": 0, "velocity": 0, "duration": 95}, {"note": 70, "velocity": 102, "duration": 49}, {"note": 0, "velocity": 0, "duration": 108}, {"note": 70, "velocity": 107, "duration": 51}, {"note": 0, "velocity": 0, "duration": 106}, {"note": 70, "velocity": 112, "duration": 44}, {"note": 0, "velocity": 0, "duration": 105}, {"note": 68, "velocity": 102, "duration": 51}, {"note": 0, "velocity": 0, "duration": 111}, {"note": 70, "velocity": 112, "duration": 47}, {"note": 0, "velocity": 0, "duration": 114}, {"note": 68, "velocity": 122, "duration": 43}, {"note": 0, "velocity": 0, "duration": 108}, {"note": 65, "velocity": 97, "duration": 54}, {"note": 0, "velocity": 0, "duration": 107}, {"note": 65, "velocity": 97, "duration": 50}, {"note": 0, "velocity": 0, "duration": 116}, {"note": 65, "velocity": 112, "duration": 89}, {"note": 0, "velocity": 0, "duration": 71}, {"note": 63, "velocity": 97, "duration": 75}, {"note": 0, "velocity": 0, "duration": 79}, {"note": 65, "velocity": 97, "duration": 65}, {"note": 0, "velocity": 0, "duration": 99}, {"note": 68, "velocity": 107, "duration": 70}, {"note": 0, "velocity": 0, "duration": 97}, {"note": 68, "velocity": 102, "duration": 63}, {"note": 0, "velocity": 0, "duration": 88}, {"note": 65, "velocity": 102, "duration": 67}, {"note": 0, "velocity": 0, "duration": 99}, {"note": 63, "velocity": 112, "duration": 72}, {"note": 0, "velocity": 0, "duration": 89}, {"note": 63, "velocity": 107, "duration": 94}, {"note": 68, "velocity": 100, "duration": 64}, {"note": 0, "velocity": 0, "duration": 92}, {"note": 70, "velocity": 127, "duration": 58}, {"note": 0, "velocity": 0, "duration": 104}, {"note": 70, "velocity": 117, "duration": 56}, {"note": 0, "velocity": 0, "duration": 104}, {"note": 68, "velocity": 112, "duration": 44}, {"note": 0, "velocity": 0, "duration": 118}, {"note": 70, "velocity": 127, "duration": 59}, {"note": 0, "velocity": 0, "duration": 443}, {"note": 70, "velocity": 117, "duration": 52}, {"note": 0, "velocity": 0, "duration": 87}, {"note": 70, "velocity": 95, "duration": 57}, {"note": 0, "velocity": 0, "duration": 100}, {"note": 68, "velocity": 102, "duration": 46}, {"note": 0, "velocity": 0, "duration": 108}, {"note": 70, "velocity": 117, "duration": 56}, {"note": 0, "velocity": 0, "duration": 103}, {"note": 70, "velocity": 102, "duration": 57}, {"note": 0, "velocity": 0, "duration": 105}, {"note": 68, "velocity": 102, "duration": 51}, {"note": 0, "velocity": 0, "duration": 112}, {"note": 70, "velocity": 127, "duration": 179}, {"note": 0, "velocity": 0, "duration": 800}, {"note": 73, "velocity": 127, "duration": 72}, {"note": 0, "velocity": 0, "duration": 84}, {"note": 70, "velocity": 99, "duration": 51}, {"note": 0, "velocity": 0, "duration": 105}, {"note": 70, "velocity": 107, "duration": 50}, {"note": 0, "velocity": 0, "duration": 115}, {"note": 70, "velocity": 117, "duration": 50}, {"note": 0, "velocity": 0, "duration": 101}, {"note": 68, "velocity": 92, "duration": 51}, {"note": 0, "velocity": 0, "duration": 114}, {"note": 70, "velocity": 99, "duration": 46}, {"note": 0, "velocity": 0, "duration": 111}, {"note": 68, "velocity": 127, "duration": 44}, {"note": 0, "velocity": 0, "duration": 114}, {"note": 65, "velocity": 96, "duration": 53}, {"note": 0, "velocity": 0, "duration": 112}, {"note": 65, "velocity": 102, "duration": 50}, {"note": 0, "velocity": 0, "duration": 109}, {"note": 65, "velocity": 112, "duration": 146}, {"note": 63, "velocity": 107, "duration": 60}, {"note": 0, "velocity": 0, "duration": 91}, {"note": 65, "velocity": 100, "duration": 60}, {"note": 0, "velocity": 0, "duration": 99}, {"note": 68, "velocity": 112, "duration": 114}, {"note": 68, "velocity": 127, "duration": 51}, {"note": 0, "velocity": 0, "duration": 102}, {"note": 65, "velocity": 102, "duration": 61}, {"note": 0, "velocity": 0, "duration": 95}, {"note": 63, "velocity": 102, "duration": 56}, {"note": 0, "velocity": 0, "duration": 107}, {"note": 63, "velocity": 117, "duration": 64}, {"note": 0, "velocity": 0, "duration": 104}, {"note": 68, "velocity": 112, "duration": 57}, {"note": 0, "velocity": 0, "duration": 104}, {"note": 65, "velocity": 107, "duration": 51}, {"note": 0, "velocity": 0, "duration": 107}, {"note": 65, "velocity": 102, "duration": 46}, {"note": 0, "velocity": 0, "duration": 112}, {"note": 63, "velocity": 102, "duration": 56}, {"note": 0, "velocity": 0, "duration": 113}, {"note": 65, "velocity": 127, "duration": 125}, {"note": 0, "velocity": 0, "duration": 352}, {"note": 73, "velocity": 127, "duration": 62}, {"note": 0, "velocity": 0, "duration": 95}, {"note": 70, "velocity": 102, "duration": 49}, {"note": 0, "velocity": 0, "duration": 108}, {"note": 70, "velocity": 107, "duration": 51}, {"note": 0, "velocity": 0, "duration": 106}, {"note": 70, "velocity": 112, "duration": 44}, {"note": 0, "velocity": 0, "duration": 105}, {"note": 68, "velocity": 102, "duration": 51}, {"note": 0, "velocity": 0, "duration": 111}, {"note": 70, "velocity": 112, "duration": 47}, {"note": 0, "velocity": 0, "duration": 114}, {"note": 68, "velocity": 122, "duration": 43}, {"note": 0, "velocity": 0, "duration": 108}, {"note": 65, "velocity": 97, "duration": 54}, {"note": 0, "velocity": 0, "duration": 107}, {"note": 65, "velocity": 97, "duration": 50}, {"note": 0, "velocity": 0, "duration": 116}, {"note": 65, "velocity": 112, "duration": 89}, {"note": 0, "velocity": 0, "duration": 71}, {"note": 63, "velocity": 97, "duration": 75}, {"note": 0, "velocity": 0, "duration": 79}, {"note": 65, "velocity": 97, "duration": 65}, {"note": 0, "velocity": 0, "duration": 99}, {"note": 68, "velocity": 107, "duration": 70}, {"note": 0, "velocity": 0, "duration": 97}, {"note": 68, "velocity": 102, "duration": 63}, {"note": 0, "velocity": 0, "duration": 88}, {"note": 65, "velocity": 102, "duration": 67}, {"note": 0, "velocity": 0, "duration": 99}, {"note": 63, "velocity": 112, "duration": 72}, {"note": 0, "velocity": 0, "duration": 89}, {"note": 63, "velocity": 107, "duration": 94}, {"note": 68, "velocity": 100, "duration": 64}, {"note": 0, "velocity": 0, "duration": 92}, {"note": 70, "velocity": 127, "duration": 58}, {"note": 0, "velocity": 0, "duration": 104}, {"note": 70, "velocity": 117, "duration": 56}, {"note": 0, "velocity": 0, "duration": 104}, {"note": 68, "velocity": 112, "duration": 44}, {"note": 0, "velocity": 0, "duration": 118}, {"note": 70, "velocity": 127, "duration": 59}, {"note": 0, "velocity": 0, "duration": 436}, {"note": 73, "velocity": 127, "duration": 72}, {"note": 0, "velocity": 0, "duration": 84}, {"note": 70, "velocity": 99, "duration": 51}, {"note": 0, "velocity": 0, "duration": 105}, {"note": 70, "velocity": 107, "duration": 50}, {"note": 0, "velocity": 0, "duration": 115}, {"note": 70, "velocity": 117, "duration": 50}, {"note": 0, "velocity": 0, "duration": 101}, {"note": 68, "velocity": 92, "duration": 51}, {"note": 0, "velocity": 0, "duration": 114}, {"note": 70, "velocity": 99, "duration": 46}, {"note": 0, "velocity": 0, "duration": 111}, {"note": 68, "velocity": 127, "duration": 44}, {"note": 0, "velocity": 0, "duration": 114}, {"note": 65, "velocity": 96, "duration": 53}, {"note": 0, "velocity": 0, "duration": 112}, {"note": 65, "velocity": 102, "duration": 50}, {"note": 0, "velocity": 0, "duration": 109}, {"note": 65, "velocity": 112, "duration": 146}, {"note": 63, "velocity": 107, "duration": 60}, {"note": 0, "velocity": 0, "duration": 91}, {"note": 65, "velocity": 100, "duration": 60}, {"note": 0, "velocity": 0, "duration": 99}, {"note": 68, "velocity": 112, "duration": 114}, {"note": 68, "velocity": 127, "duration": 51}, {"note": 0, "velocity": 0, "duration": 102}, {"note": 65, "velocity": 102, "duration": 61}, {"note": 0, "velocity": 0, "duration": 95}, {"note": 63, "velocity": 102, "duration": 56}, {"note": 0, "velocity": 0, "duration": 107}, {"note": 63, "velocity": 117, "duration": 64}, {"note": 0, "velocity": 0, "duration": 104}, {"note": 68, "velocity": 112, "duration": 57}, {"note": 0, "velocity": 0, "duration": 104}, {"note": 65, "velocity": 107, "duration": 51}, {"note": 0, "velocity": 0, "duration": 107}, {"note": 65, "velocity": 102, "duration": 46}, {"note": 0, "velocity": 0, "duration": 112}, {"note": 63, "velocity": 102, "duration": 56}, {"note": 0, "velocity": 0, "duration": 113}, {"note": 65, "velocity": 127, "duration": 125}, {"note": 0, "velocity": 0, "duration": 352}, {"note": 73, "velocity": 127, "duration": 62}, {"note": 0, "velocity": 0, "duration": 95}, {"note": 70, "velocity": 102, "duration": 49}, {"note": 0, "velocity": 0, "duration": 108}, {"note": 70, "velocity": 107, "duration": 51}, {"note": 0, "velocity": 0, "duration": 106}, {"note": 70, "velocity": 112, "duration": 44}, {"note": 0, "velocity": 0, "duration": 105}, {"note": 68, "velocity": 102, "duration": 51}, {"note": 0, "velocity": 0, "duration": 111}, {"note": 70, "velocity": 112, "duration": 47}, {"note": 0, "velocity": 0, "duration": 114}, {"note": 68, "velocity": 122, "duration": 43}, {"note": 0, "velocity": 0, "duration": 108}, {"note": 65, "velocity": 97, "duration": 54}, {"note": 0, "velocity": 0, "duration": 107}, {"note": 65, "velocity": 97, "duration": 50}, {"note": 0, "velocity": 0, "duration": 116}, {"note": 65, "velocity": 112, "duration": 89}, {"note": 0, "velocity": 0, "duration": 71}, {"note": 63, "velocity": 97, "duration": 75}, {"note": 0, "velocity": 0, "duration": 79}, {"note": 65, "velocity": 97, "duration": 65}, {"note": 0, "velocity": 0, "duration": 99}, {"note": 68, "velocity": 107, "duration": 70}, {"note": 0, "velocity": 0, "duration": 97}, {"note": 68, "velocity": 102, "duration": 63}, {"note": 0, "velocity": 0, "duration": 88}, {"note": 65, "velocity": 102, "duration": 67}, {"note": 0, "velocity": 0, "duration": 99}, {"note": 63, "velocity": 112, "duration": 72}, {"note": 0, "velocity": 0, "duration": 89}, {"note": 63, "velocity": 107, "duration": 94}, {"note": 68, "velocity": 100, "duration": 64}, {"note": 0, "velocity": 0, "duration": 92}, {"note": 70, "velocity": 127, "duration": 58}, {"note": 0, "velocity": 0, "duration": 104}, {"note": 70, "velocity": 117, "duration": 56}, {"note": 0, "velocity": 0, "duration": 104}, {"note": 68, "velocity": 112, "duration": 44}, {"note": 0, "velocity": 0, "duration": 118}, {"note": 70, "velocity": 127, "duration": 59}, {"note": 0, "velocity": 0, "duration": 101}, {"note": 70, "velocity": 117, "duration": 53}, {"note": 0, "velocity": 0, "duration": 107}, {"note": 68, "velocity": 102, "duration": 50}, {"note": 0, "velocity": 0, "duration": 112}, {"note": 70, "velocity": 127, "duration": 52}, {"note": 0, "velocity": 0, "duration": 109}, {"note": 70, "velocity": 112, "duration": 57}, {"note": 0, "velocity": 0, "duration": 109}, {"note": 68, "velocity": 107, "duration": 46}, {"note": 0, "velocity": 0, "duration": 123}, {"note": 70, "velocity": 122, "duration": 51}, {"note": 0, "velocity": 0, "duration": 106}, {"note": 70, "velocity": 99, "duration": 64}, {"note": 0, "velocity": 0, "duration": 91}, {"note": 68, "velocity": 117, "duration": 48}, {"note": 0, "velocity": 0, "duration": 113}, {"note": 70, "velocity": 127, "duration": 120}]]