[[{"note": 63, "velocity": 107, "duration": 217}, {"note": 60, "velocity": 79, "duration": 207}, {"note": 58, "velocity": 88, "duration": 222}, {"note": 60, "velocity": 71, "duration": 219}, {"note": 58, "velocity": 72, "duration": 851}, {"note": 0, "velocity": 0, "duration": 589}, {"note": 58, "velocity": 90, "duration": 176}, {"note": 0, "velocity": 0, "duration": 64}, {"note": 60, "velocity": 76, "duration": 250}, {"note": 63, "velocity": 64, "duration": 101}, {"note": 0, "velocity": 0, "duration": 139}, {"note": 63, "velocity": 89, "duration": 171}, {"note": 0, "velocity": 0, "duration": 69}, {"note": 65, "velocity": 92, "duration": 195}, {"note": 63, "velocity": 89, "duration": 192}, {"note": 65, "velocity": 96, "duration": 213}, {"note": 67, "velocity": 89, "duration": 599}, {"note": 0, "velocity": 0, "duration": 1081}, {"note": 67, "velocity": 93, "duration": 126}, {"note": 0, "velocity": 0, "duration": 114}, {"note": 67, "velocity": 93, "duration": 100}, {"note": 0, "velocity": 0, "duration": 140}, {"note": 67, "velocity": 96, "duration": 196}, {"note": 65, "velocity": 86, "duration": 124}, {"note": 0, "velocity": 0, "duration": 116}, {"note": 65, "velocity": 93, "duration": 221}, {"note": 63, "velocity": 93, "duration": 175}, {"note": 0, "velocity": 0, "duration": 65}, {"note": 65, "velocity": 81, "duration": 294}, {"note": 0, "velocity": 0, "duration": 186}, {"note": 60, "velocity": 81, "duration": 939}, {"note": 0, "velocity": 0, "duration": 501}, {"note": 67, "velocity": 95, "duration": 107}, {"note": 0, "velocity": 0, "duration": 133}, {"note": 67, "velocity": 89, "duration": 90}, {"note": 0, "velocity": 0, "duration": 150}, {"note": 67, "velocity": 99, "duration": 209}, {"note": 65, "velocity": 77, "duration": 62}, {"note": 65, "velocity": 95, "duration": 234}, {"note": 0, "velocity": 0, "duration": 126}, {"note": 63, "velocity": 86, "duration": 188}, {"note": 60, "velocity": 68, "duration": 470}, {"note": 60, "velocity": 96, "duration": 190}, {"note": 67, "velocity": 89, "duration": 206}, {"note": 67, "velocity": 90, "duration": 325}, {"note": 65, "velocity": 79, "duration": 583}, {"note": 63, "velocity": 99, "duration": 272}, {"note": 0, "velocity": 0, "duration": 88}, {"note": 65, "velocity": 85, "duration": 239}, {"note": 0, "velocity": 0, "duration": 121}, {"note": 65, "velocity": 90, "duration": 1656}, {"note": 0, "velocity": 0, "duration": 504}, {"note": 63, "velocity": 99, "duration": 214}, {"note": 60, "velocity": 72, "duration": 215}, {"note": 58, "velocity": 68, "duration": 257}, {"note": 60, "velocity": 81, "duration": 265}, {"note": 58, "velocity": 67, "duration": 653}, {"note": 0, "velocity": 0, "duration": 787}, {"note": 58, "velocity": 97, "duration": 178}, {"note": 0, "velocity": 0, "duration": 62}, {"note": 60, "velocity": 83, "duration": 204}, {"note": 63, "velocity": 85, "duration": 146}, {"note": 0, "velocity": 0, "duration": 94}, {"note": 63, "velocity": 69, "duration": 139}, {"note": 0, "velocity": 0, "duration": 101}, {"note": 65, "velocity": 75, "duration": 217}, {"note": 63, "velocity": 72, "duration": 243}, {"note": 65, "velocity": 85, "duration": 256}, {"note": 67, "velocity": 92, "duration": 1366}, {"note": 0, "velocity": 0, "duration": 314}, {"note": 67, "velocity": 96, "duration": 171}, {"note": 0, "velocity": 0, "duration": 69}, {"note": 67, "velocity": 88, "duration": 154}, {"note": 0, "velocity": 0, "duration": 86}, {"note": 67, "velocity": 92, "duration": 184}, {"note": 65, "velocity": 85, "duration": 148}, {"note": 0, "velocity": 0, "duration": 92}, {"note": 65, "velocity": 92, "duration": 216}, {"note": 63, "velocity": 96, "duration": 264}, {"note": 65, "velocity": 89, "duration": 414}, {"note": 0, "velocity": 0, "duration": 66}, {"note": 60, "velocity": 92, "duration": 865}, {"note": 0, "velocity": 0, "duration": 575}, {"note": 67, "velocity": 88, "duration": 111}, {"note": 0, "velocity": 0, "duration": 129}, {"note": 67, "velocity": 83, "duration": 91}, {"note": 0, "velocity": 0, "duration": 149}, {"note": 67, "velocity": 107, "duration": 212}, {"note": 65, "velocity": 75, "duration": 60}, {"note": 65, "velocity": 72, "duration": 236}, {"note": 0, "velocity": 0, "duration": 124}, {"note": 63, "velocity": 96, "duration": 191}, {"note": 60, "velocity": 89, "duration": 445}, {"note": 60, "velocity": 96, "duration": 200}, {"note": 67, "velocity": 99, "duration": 150}, {"note": 0, "velocity": 0, "duration": 90}, {"note": 67, "velocity": 100, "duration": 313}, {"note": 65, "velocity": 88, "duration": 526}, {"note": 0, "velocity": 0, "duration": 74}, {"note": 63, "velocity": 99, "duration": 244}, {"note": 0, "velocity": 0, "duration": 116}, {"note": 65, "velocity": 92, "duration": 269}, {"note": 0, "velocity": 0, "duration": 91}, {"note": 65, "velocity": 117, "duration": 1413}, {"note": 0, "velocity": 0, "duration": 507}, {"note": 67, "velocity": 95, "duration": 95}, {"note": 0, "velocity": 0, "duration": 145}, {"note": 67, "velocity": 99, "duration": 213}, {"note": 65, "velocity": 88, "duration": 89}, {"note": 0, "velocity": 0, "duration": 151}, {"note": 65, "velocity": 93, "duration": 247}, {"note": 65, "velocity": 96, "duration": 7}, {"note": 0, "velocity": 0, "duration": 233}, {"note": 65, "velocity": 97, "duration": 510}, {"note": 58, "velocity": 100, "duration": 150}, {"note": 0, "velocity": 0, "duration": 90}, {"note": 63, "velocity": 102, "duration": 1065}, {"note": 0, "velocity": 0, "duration": 375}, {"note": 60, "velocity": 75, "duration": 184}, {"note": 58, "velocity": 88, "duration": 197}, {"note": 60, "velocity": 90, "duration": 133}, {"note": 0, "velocity": 0, "duration": 107}, {"note": 63, "velocity": 102, "duration": 290}, {"note": 0, "velocity": 0, "duration": 70}, {"note": 63, "velocity": 99, "duration": 331}, {"note": 0, "velocity": 0, "duration": 269}, {"note": 63, "velocity": 112, "duration": 166}, {"note": 0, "velocity": 0, "duration": 74}, {"note": 65, "velocity": 117, "duration": 273}, {"note": 0, "velocity": 0, "duration": 207}, {"note": 60, "velocity": 96, "duration": 717}, {"note": 0, "velocity": 0, "duration": 123}, {"note": 58, "velocity": 92, "duration": 815}, {"note": 0, "velocity": 0, "duration": 265}, {"note": 63, "velocity": 102, "duration": 67}, {"note": 0, "velocity": 0, "duration": 173}, {"note": 65, "velocity": 100, "duration": 159}, {"note": 0, "velocity": 0, "duration": 81}, {"note": 65, "velocity": 90, "duration": 98}, {"note": 0, "velocity": 0, "duration": 142}, {"note": 65, "velocity": 86, "duration": 95}, {"note": 0, "velocity": 0, "duration": 145}, {"note": 58, "velocity": 95, "duration": 188}, {"note": 65, "velocity": 88, "duration": 379}, {"note": 0, "velocity": 0, "duration": 101}, {"note": 65, "velocity": 112, "duration": 244}, {"note": 67, "velocity": 82, "duration": 289}, {"note": 65, "velocity": 92, "duration": 251}, {"note": 63, "velocity": 81, "duration": 756}, {"note": 0, "velocity": 0, "duration": 204}, {"note": 60, "velocity": 92, "duration": 162}, {"note": 0, "velocity": 0, "duration": 78}, {"note": 58, "velocity": 85, "duration": 154}, {"note": 0, "velocity": 0, "duration": 86}, {"note": 60, "velocity": 79, "duration": 134}, {"note": 0, "velocity": 0, "duration": 106}, {"note": 63, "velocity": 100, "duration": 265}, {"note": 63, "velocity": 102, "duration": 25}, {"note": 0, "velocity": 0, "duration": 695}, {"note": 63, "velocity": 102, "duration": 266}, {"note": 0, "velocity": 0, "duration": 94}, {"note": 65, "velocity": 99, "duration": 257}, {"note": 0, "velocity": 0, "duration": 103}, {"note": 65, "velocity": 99, "duration": 720}, {"note": 0, "velocity": 0, "duration": 240}, {"note": 58, "velocity": 112, "duration": 142}, {"note": 0, "velocity": 0, "duration": 98}, {"note": 70, "velocity": 102, "duration": 310}, {"note": 0, "velocity": 0, "duration": 170}, {"note": 70, "velocity": 127, "duration": 140}, {"note": 0, "velocity": 0, "duration": 100}, {"note": 72, "velocity": 112, "duration": 344}, {"note": 0, "velocity": 0, "duration": 136}, {"note": 67, "velocity": 107, "duration": 1047}, {"note": 0, "velocity": 0, "duration": 873}, {"note": 67, "velocity": 107, "duration": 121}, {"note": 0, "velocity": 0, "duration": 119}, {"note": 67, "velocity": 100, "duration": 90}, {"note": 0, "velocity": 0, "duration": 150}, {"note": 67, "velocity": 100, "duration": 69}, {"note": 0, "velocity": 0, "duration": 171}, {"note": 67, "velocity": 122, "duration": 256}, {"note": 0, "velocity": 0, "duration": 224}, {"note": 65, "velocity": 95, "duration": 181}, {"note": 63, "velocity": 99, "duration": 190}, {"note": 62, "velocity": 102, "duration": 319}, {"note": 70, "velocity": 112, "duration": 1026}, {"note": 0, "velocity": 0, "duration": 774}, {"note": 67, "velocity": 102, "duration": 117}, {"note": 0, "velocity": 0, "duration": 123}, {"note": 67, "velocity": 100, "duration": 104}, {"note": 0, "velocity": 0, "duration": 136}, {"note": 67, "velocity": 107, "duration": 83}, {"note": 0, "velocity": 0, "duration": 157}, {"note": 67, "velocity": 112, "duration": 192}, {"note": 65, "velocity": 90, "duration": 109}, {"note": 0, "velocity": 0, "duration": 131}, {"note": 65, "velocity": 96, "duration": 154}, {"note": 0, "velocity": 0, "duration": 86}, {"note": 63, "velocity": 112, "duration": 314}, {"note": 0, "velocity": 0, "duration": 166}, {"note": 60, "velocity": 97, "duration": 745}, {"note": 0, "velocity": 0, "duration": 1175}, {"note": 60, "velocity": 93, "duration": 119}, {"note": 0, "velocity": 0, "duration": 121}, {"note": 63, "velocity": 107, "duration": 145}, {"note": 0, "velocity": 0, "duration": 95}, {"note": 60, "velocity": 99, "duration": 86}, {"note": 0, "velocity": 0, "duration": 154}, {"note": 70, "velocity": 127, "duration": 96}, {"note": 0, "velocity": 0, "duration": 144}, {"note": 72, "velocity": 117, "duration": 373}, {"note": 0, "velocity": 0, "duration": 347}, {"note": 72, "velocity": 127, "duration": 251}, {"note": 70, "velocity": 100, "duration": 147}, {"note": 0, "velocity": 0, "duration": 93}, {"note": 70, "velocity": 122, "duration": 132}, {"note": 0, "velocity": 0, "duration": 108}, {"note": 65, "velocity": 102, "duration": 521}, {"note": 0, "velocity": 0, "duration": 1399}, {"note": 58, "velocity": 107, "duration": 203}, {"note": 70, "velocity": 127, "duration": 309}, {"note": 0, "velocity": 0, "duration": 171}, {"note": 70, "velocity": 127, "duration": 167}, {"note": 0, "velocity": 0, "duration": 73}, {"note": 72, "velocity": 127, "duration": 286}, {"note": 0, "velocity": 0, "duration": 194}, {"note": 67, "velocity": 112, "duration": 1454}, {"note": 0, "velocity": 0, "duration": 466}, {"note": 67, "velocity": 112, "duration": 121}, {"note": 0, "velocity": 0, "duration": 119}, {"note": 67, "velocity": 100, "duration": 91}, {"note": 0, "velocity": 0, "duration": 149}, {"note": 67, "velocity": 117, "duration": 74}, {"note": 0, "velocity": 0, "duration": 166}, {"note": 67, "velocity": 122, "duration": 211}, {"note": 0, "velocity": 0, "duration": 269}, {"note": 65, "velocity": 93, "duration": 165}, {"note": 0, "velocity": 0, "duration": 75}, {"note": 63, "velocity": 95, "duration": 136}, {"note": 0, "velocity": 0, "duration": 104}, {"note": 62, "velocity": 99, "duration": 192}, {"note": 70, "velocity": 127, "duration": 425}, {"note": 0, "velocity": 0, "duration": 1495}, {"note": 67, "velocity": 107, "duration": 78}, {"note": 0, "velocity": 0, "duration": 162}, {"note": 67, "velocity": 100, "duration": 85}, {"note": 0, "velocity": 0, "duration": 155}, {"note": 67, "velocity": 100, "duration": 81}, {"note": 0, "velocity": 0, "duration": 159}, {"note": 67, "velocity": 107, "duration": 150}, {"note": 0, "velocity": 0, "duration": 90}, {"note": 65, "velocity": 96, "duration": 81}, {"note": 0, "velocity": 0, "duration": 159}, {"note": 65, "velocity": 97, "duration": 131}, {"note": 0, "velocity": 0, "duration": 109}, {"note": 63, "velocity": 112, "duration": 260}, {"note": 0, "velocity": 0, "duration": 220}, {"note": 60, "velocity": 102, "duration": 897}, {"note": 0, "velocity": 0, "duration": 1023}, {"note": 60, "velocity": 89, "duration": 151}, {"note": 0, "velocity": 0, "duration": 89}, {"note": 63, "velocity": 99, "duration": 176}, {"note": 0, "velocity": 0, "duration": 64}, {"note": 60, "velocity": 99, "duration": 127}, {"note": 0, "velocity": 0, "duration": 113}, {"note": 70, "velocity": 122, "duration": 47}, {"note": 0, "velocity": 0, "duration": 313}, {"note": 72, "velocity": 117, "duration": 305}, {"note": 0, "velocity": 0, "duration": 295}, {"note": 72, "velocity": 122, "duration": 255}, {"note": 70, "velocity": 96, "duration": 178}, {"note": 0, "velocity": 0, "duration": 62}, {"note": 70, "velocity": 112, "duration": 90}, {"note": 0, "velocity": 0, "duration": 150}, {"note": 65, "velocity": 100, "duration": 1289}, {"note": 0, "velocity": 0, "duration": 1351}, {"note": 65, "velocity": 102, "duration": 184}, {"note": 0, "velocity": 0, "duration": 176}, {"note": 63, "velocity": 117, "duration": 1311}, {"note": 0, "velocity": 0, "duration": 14169}, {"note": 63, "velocity": 99, "duration": 214}, {"note": 60, "velocity": 72, "duration": 215}, {"note": 58, "velocity": 68, "duration": 257}, {"note": 60, "velocity": 81, "duration": 265}, {"note": 58, "velocity": 67, "duration": 653}, {"note": 0, "velocity": 0, "duration": 787}, {"note": 58, "velocity": 97, "duration": 178}, {"note": 0, "velocity": 0, "duration": 62}, {"note": 60, "velocity": 83, "duration": 204}, {"note": 63, "velocity": 85, "duration": 146}, {"note": 0, "velocity": 0, "duration": 94}, {"note": 63, "velocity": 69, "duration": 139}, {"note": 0, "velocity": 0, "duration": 101}, {"note": 65, "velocity": 75, "duration": 217}, {"note": 63, "velocity": 72, "duration": 243}, {"note": 65, "velocity": 85, "duration": 256}, {"note": 67, "velocity": 92, "duration": 1366}, {"note": 0, "velocity": 0, "duration": 314}, {"note": 67, "velocity": 96, "duration": 171}, {"note": 0, "velocity": 0, "duration": 69}, {"note": 67, "velocity": 88, "duration": 154}, {"note": 0, "velocity": 0, "duration": 86}, {"note": 67, "velocity": 92, "duration": 184}, {"note": 65, "velocity": 85, "duration": 148}, {"note": 0, "velocity": 0, "duration": 92}, {"note": 65, "velocity": 92, "duration": 216}, {"note": 63, "velocity": 96, "duration": 264}, {"note": 65, "velocity": 89, "duration": 414}, {"note": 0, "velocity": 0, "duration": 66}, {"note": 60, "velocity": 92, "duration": 865}, {"note": 0, "velocity": 0, "duration": 575}, {"note": 67, "velocity": 88, "duration": 111}, {"note": 0, "velocity": 0, "duration": 129}, {"note": 67, "velocity": 83, "duration": 91}, {"note": 0, "velocity": 0, "duration": 149}, {"note": 67, "velocity": 107, "duration": 212}, {"note": 65, "velocity": 75, "duration": 60}, {"note": 65, "velocity": 72, "duration": 236}, {"note": 0, "velocity": 0, "duration": 124}, {"note": 63, "velocity": 96, "duration": 191}, {"note": 60, "velocity": 89, "duration": 445}, {"note": 60, "velocity": 96, "duration": 200}, {"note": 67, "velocity": 99, "duration": 150}, {"note": 0, "velocity": 0, "duration": 90}, {"note": 67, "velocity": 100, "duration": 313}, {"note": 65, "velocity": 88, "duration": 526}, {"note": 0, "velocity": 0, "duration": 74}, {"note": 63, "velocity": 99, "duration": 244}, {"note": 0, "velocity": 0, "duration": 116}, {"note": 65, "velocity": 92, "duration": 269}, {"note": 0, "velocity": 0, "duration": 91}, {"note": 65, "velocity": 117, "duration": 1413}, {"note": 0, "velocity": 0, "duration": 507}, {"note": 67, "velocity": 95, "duration": 95}, {"note": 0, "velocity": 0, "duration": 145}, {"note": 67, "velocity": 99, "duration": 213}, {"note": 65, "velocity": 88, "duration": 89}, {"note": 0, "velocity": 0, "duration": 151}, {"note": 65, "velocity": 93, "duration": 247}, {"note": 65, "velocity": 96, "duration": 7}, {"note": 0, "velocity": 0, "duration": 233}, {"note": 65, "velocity": 97, "duration": 510}, {"note": 58, "velocity": 100, "duration": 150}, {"note": 0, "velocity": 0, "duration": 90}, {"note": 63, "velocity": 102, "duration": 1065}, {"note": 0, "velocity": 0, "duration": 375}, {"note": 60, "velocity": 75, "duration": 184}, {"note": 58, "velocity": 88, "duration": 197}, {"note": 60, "velocity": 90, "duration": 133}, {"note": 0, "velocity": 0, "duration": 107}, {"note": 63, "velocity": 102, "duration": 290}, {"note": 0, "velocity": 0, "duration": 70}, {"note": 63, "velocity": 99, "duration": 331}, {"note": 0, "velocity": 0, "duration": 269}, {"note": 63, "velocity": 112, "duration": 166}, {"note": 0, "velocity": 0, "duration": 74}, {"note": 65, "velocity": 117, "duration": 273}, {"note": 0, "velocity": 0, "duration": 207}, {"note": 60, "velocity": 96, "duration": 717}, {"note": 0, "velocity": 0, "duration": 123}, {"note": 58, "velocity": 92, "duration": 815}, {"note": 0, "velocity": 0, "duration": 265}, {"note": 63, "velocity": 102, "duration": 67}, {"note": 0, "velocity": 0, "duration": 173}, {"note": 65, "velocity": 100, "duration": 159}, {"note": 0, "velocity": 0, "duration": 81}, {"note": 65, "velocity": 90, "duration": 98}, {"note": 0, "velocity": 0, "duration": 142}, {"note": 65, "velocity": 86, "duration": 95}, {"note": 0, "velocity": 0, "duration": 145}, {"note": 58, "velocity": 95, "duration": 188}, {"note": 65, "velocity": 88, "duration": 379}, {"note": 0, "velocity": 0, "duration": 101}, {"note": 65, "velocity": 112, "duration": 244}, {"note": 67, "velocity": 82, "duration": 289}, {"note": 65, "velocity": 92, "duration": 251}, {"note": 63, "velocity": 81, "duration": 756}, {"note": 0, "velocity": 0, "duration": 204}, {"note": 60, "velocity": 92, "duration": 162}, {"note": 0, "velocity": 0, "duration": 78}, {"note": 58, "velocity": 85, "duration": 154}, {"note": 0, "velocity": 0, "duration": 86}, {"note": 60, "velocity": 79, "duration": 134}, {"note": 0, "velocity": 0, "duration": 106}, {"note": 63, "velocity": 100, "duration": 265}, {"note": 63, "velocity": 102, "duration": 25}, {"note": 0, "velocity": 0, "duration": 695}, {"note": 63, "velocity": 102, "duration": 266}, {"note": 0, "velocity": 0, "duration": 94}, {"note": 65, "velocity": 99, "duration": 257}, {"note": 0, "velocity": 0, "duration": 103}, {"note": 65, "velocity": 99, "duration": 720}, {"note": 0, "velocity": 0, "duration": 240}, {"note": 58, "velocity": 112, "duration": 142}, {"note": 0, "velocity": 0, "duration": 98}, {"note": 70, "velocity": 102, "duration": 310}, {"note": 0, "velocity": 0, "duration": 170}, {"note": 70, "velocity": 127, "duration": 140}, {"note": 0, "velocity": 0, "duration": 100}, {"note": 72, "velocity": 112, "duration": 344}, {"note": 0, "velocity": 0, "duration": 136}, {"note": 67, "velocity": 107, "duration": 1047}, {"note": 0, "velocity": 0, "duration": 873}, {"note": 67, "velocity": 107, "duration": 121}, {"note": 0, "velocity": 0, "duration": 119}, {"note": 67, "velocity": 100, "duration": 90}, {"note": 0, "velocity": 0, "duration": 150}, {"note": 67, "velocity": 100, "duration": 69}, {"note": 0, "velocity": 0, "duration": 171}, {"note": 67, "velocity": 122, "duration": 256}, {"note": 0, "velocity": 0, "duration": 224}, {"note": 65, "velocity": 95, "duration": 181}, {"note": 63, "velocity": 99, "duration": 190}, {"note": 62, "velocity": 102, "duration": 319}, {"note": 70, "velocity": 112, "duration": 1026}, {"note": 0, "velocity": 0, "duration": 774}, {"note": 67, "velocity": 102, "duration": 117}, {"note": 0, "velocity": 0, "duration": 123}, {"note": 67, "velocity": 100, "duration": 104}, {"note": 0, "velocity": 0, "duration": 136}, {"note": 67, "velocity": 107, "duration": 83}, {"note": 0, "velocity": 0, "duration": 157}, {"note": 67, "velocity": 112, "duration": 192}, {"note": 65, "velocity": 90, "duration": 109}, {"note": 0, "velocity": 0, "duration": 131}, {"note": 65, "velocity": 96, "duration": 154}, {"note": 0, "velocity": 0, "duration": 86}, {"note": 63, "velocity": 112, "duration": 314}, {"note": 0, "velocity": 0, "duration": 166}, {"note": 60, "velocity": 97, "duration": 745}, {"note": 0, "velocity": 0, "duration": 1175}, {"note": 60, "velocity": 93, "duration": 119}, {"note": 0, "velocity": 0, "duration": 121}, {"note": 63, "velocity": 107, "duration": 145}, {"note": 0, "velocity": 0, "duration": 95}, {"note": 60, "velocity": 99, "duration": 86}, {"note": 0, "velocity": 0, "duration": 154}, {"note": 70, "velocity": 127, "duration": 96}, {"note": 0, "velocity": 0, "duration": 144}, {"note": 72, "velocity": 117, "duration": 373}, {"note": 0, "velocity": 0, "duration": 347}, {"note": 72, "velocity": 127, "duration": 251}, {"note": 70, "velocity": 100, "duration": 147}, {"note": 0, "velocity": 0, "duration": 93}, {"note": 70, "velocity": 122, "duration": 132}, {"note": 0, "velocity": 0, "duration": 108}, {"note": 65, "velocity": 102, "duration": 521}, {"note": 0, "velocity": 0, "duration": 1399}, {"note": 58, "velocity": 107, "duration": 203}, {"note": 70, "velocity": 127, "duration": 309}, {"note": 0, "velocity": 0, "duration": 171}, {"note": 70, "velocity": 127, "duration": 167}, {"note": 0, "velocity": 0, "duration": 73}, {"note": 72, "velocity": 127, "duration": 286}, {"note": 0, "velocity": 0, "duration": 194}, {"note": 67, "velocity": 112, "duration": 1454}, {"note": 0, "velocity": 0, "duration": 466}, {"note": 67, "velocity": 112, "duration": 121}, {"note": 0, "velocity": 0, "duration": 119}, {"note": 67, "velocity": 100, "duration": 91}, {"note": 0, "velocity": 0, "duration": 149}, {"note": 67, "velocity": 117, "duration": 74}, {"note": 0, "velocity": 0, "duration": 166}, {"note": 67, "velocity": 122, "duration": 211}, {"note": 0, "velocity": 0, "duration": 269}, {"note": 65, "velocity": 93, "duration": 165}, {"note": 0, "velocity": 0, "duration": 75}, {"note": 63, "velocity": 95, "duration": 136}, {"note": 0, "velocity": 0, "duration": 104}, {"note": 62, "velocity": 99, "duration": 192}, {"note": 70, "velocity": 127, "duration": 425}, {"note": 0, "velocity": 0, "duration": 1495}, {"note": 67, "velocity": 107, "duration": 78}, {"note": 0, "velocity": 0, "duration": 162}, {"note": 67, "velocity": 100, "duration": 85}, {"note": 0, "velocity": 0, "duration": 155}, {"note": 67, "velocity": 100, "duration": 81}, {"note": 0, "velocity": 0, "duration": 159}, {"note": 67, "velocity": 107, "duration": 150}, {"note": 0, "velocity": 0, "duration": 90}, {"note": 65, "velocity": 96, "duration": 81}, {"note": 0, "velocity": 0, "duration": 159}, {"note": 65, "velocity": 97, "duration": 131}, {"note": 0, "velocity": 0, "duration": 109}, {"note": 63, "velocity": 112, "duration": 260}, {"note": 0, "velocity": 0, "duration": 220}, {"note": 60, "velocity": 102, "duration": 897}, {"note": 0, "velocity": 0, "duration": 1023}, {"note": 60, "velocity": 89, "duration": 151}, {"note": 0, "velocity": 0, "duration": 89}, {"note": 63, "velocity": 99, "duration": 176}, {"note": 0, "velocity": 0, "duration": 64}, {"note": 60, "velocity": 99, "duration": 127}, {"note": 0, "velocity": 0, "duration": 113}, {"note": 70, "velocity": 122, "duration": 214}, {"note": 0, "velocity": 0, "duration": 146}, {"note": 72, "velocity": 117, "duration": 305}, {"note": 0, "velocity": 0, "duration": 295}, {"note": 72, "velocity": 122, "duration": 255}, {"note": 70, "velocity": 96, "duration": 178}, {"note": 0, "velocity": 0, "duration": 62}, {"note": 70, "velocity": 112, "duration": 90}, {"note": 0, "velocity": 0, "duration": 150}, {"note": 65, "velocity": 100, "duration": 1289}, {"note": 0, "velocity": 0, "duration": 1351}, {"note": 65, "velocity": 102, "duration": 184}, {"note": 0, "velocity": 0, "duration": 176}, {"note": 63, "velocity": 117, "duration": 1311}, {"note": 0, "velocity": 0, "duration": 249}, {"note": 65, "velocity": 107, "duration": 221}, {"note": 0, "velocity": 0, "duration": 139}, {"note": 63, "velocity": 112, "duration": 1445}, {"note": 0, "velocity": 0, "duration": 165}, {"note": 65, "velocity": 93, "duration": 179}, {"note": 0, "velocity": 0, "duration": 269}, {"note": 63, "velocity": 85, "duration": 165}, {"note": 65, "velocity": 70, "duration": 171}, {"note": 63, "velocity": 82, "duration": 1256}, {"note": 0, "velocity": 0, "duration": 102}, {"note": 65, "velocity": 82, "duration": 794}, {"note": 63, "velocity": 90, "duration": 2508}]]