[[{"note": 57, "velocity": 83, "duration": 57}, {"note": 0, "velocity": 0, "duration": 63}, {"note": 57, "velocity": 72, "duration": 58}, {"note": 0, "velocity": 0, "duration": 62}, {"note": 56, "velocity": 72, "duration": 133}, {"note": 0, "velocity": 0, "duration": 107}, {"note": 59, "velocity": 73, "duration": 58}, {"note": 0, "velocity": 0, "duration": 62}, {"note": 64, "velocity": 85, "duration": 811}, {"note": 0, "velocity": 0, "duration": 509}, {"note": 59, "velocity": 83, "duration": 54}, {"note": 0, "velocity": 0, "duration": 66}, {"note": 59, "velocity": 72, "duration": 76}, {"note": 64, "velocity": 96, "duration": 114}, {"note": 0, "velocity": 0, "duration": 126}, {"note": 59, "velocity": 85, "duration": 61}, {"note": 61, "velocity": 97, "duration": 989}, {"note": 0, "velocity": 0, "duration": 331}, {"note": 57, "velocity": 85, "duration": 49}, {"note": 0, "velocity": 0, "duration": 71}, {"note": 57, "velocity": 61, "duration": 46}, {"note": 0, "velocity": 0, "duration": 74}, {"note": 56, "velocity": 58, "duration": 126}, {"note": 0, "velocity": 0, "duration": 114}, {"note": 59, "velocity": 79, "duration": 59}, {"note": 0, "velocity": 0, "duration": 61}, {"note": 64, "velocity": 106, "duration": 303}, {"note": 66, "velocity": 92, "duration": 52}, {"note": 0, "velocity": 0, "duration": 68}, {"note": 66, "velocity": 92, "duration": 172}, {"note": 0, "velocity": 0, "duration": 68}, {"note": 64, "velocity": 76, "duration": 541}, {"note": 64, "velocity": 90, "duration": 43}, {"note": 0, "velocity": 0, "duration": 77}, {"note": 66, "velocity": 96, "duration": 53}, {"note": 0, "velocity": 0, "duration": 67}, {"note": 68, "velocity": 97, "duration": 128}, {"note": 0, "velocity": 0, "duration": 112}, {"note": 63, "velocity": 97, "duration": 43}, {"note": 0, "velocity": 0, "duration": 77}, {"note": 63, "velocity": 99, "duration": 74}, {"note": 0, "velocity": 0, "duration": 166}, {"note": 61, "velocity": 97, "duration": 61}, {"note": 0, "velocity": 0, "duration": 179}, {"note": 63, "velocity": 88, "duration": 409}, {"note": 0, "velocity": 0, "duration": 431}, {"note": 59, "velocity": 89, "duration": 44}, {"note": 0, "velocity": 0, "duration": 76}, {"note": 59, "velocity": 74, "duration": 47}, {"note": 0, "velocity": 0, "duration": 73}, {"note": 61, "velocity": 99, "duration": 217}, {"note": 64, "velocity": 86, "duration": 58}, {"note": 0, "velocity": 0, "duration": 182}, {"note": 64, "velocity": 89, "duration": 139}, {"note": 0, "velocity": 0, "duration": 101}, {"note": 61, "velocity": 78, "duration": 54}, {"note": 0, "velocity": 0, "duration": 66}, {"note": 66, "velocity": 97, "duration": 70}, {"note": 0, "velocity": 0, "duration": 170}, {"note": 64, "velocity": 89, "duration": 415}, {"note": 0, "velocity": 0, "duration": 425}, {"note": 59, "velocity": 96, "duration": 188}, {"note": 59, "velocity": 85, "duration": 193}, {"note": 68, "velocity": 97, "duration": 187}, {"note": 69, "velocity": 90, "duration": 62}, {"note": 69, "velocity": 89, "duration": 326}, {"note": 68, "velocity": 89, "duration": 388}, {"note": 0, "velocity": 0, "duration": 332}, {"note": 68, "velocity": 95, "duration": 209}, {"note": 61, "velocity": 82, "duration": 118}, {"note": 64, "velocity": 89, "duration": 979}, {"note": 0, "velocity": 0, "duration": 101}, {"note": 60, "velocity": 81, "duration": 103}, {"note": 60, "velocity": 78, "duration": 171}, {"note": 0, "velocity": 0, "duration": 69}, {"note": 59, "velocity": 75, "duration": 1038}, {"note": 0, "velocity": 0, "duration": 762}, {"note": 57, "velocity": 83, "duration": 57}, {"note": 0, "velocity": 0, "duration": 63}, {"note": 57, "velocity": 72, "duration": 58}, {"note": 0, "velocity": 0, "duration": 62}, {"note": 56, "velocity": 72, "duration": 133}, {"note": 0, "velocity": 0, "duration": 107}, {"note": 59, "velocity": 73, "duration": 58}, {"note": 0, "velocity": 0, "duration": 62}, {"note": 64, "velocity": 85, "duration": 811}, {"note": 0, "velocity": 0, "duration": 509}, {"note": 59, "velocity": 83, "duration": 54}, {"note": 0, "velocity": 0, "duration": 66}, {"note": 59, "velocity": 72, "duration": 76}, {"note": 64, "velocity": 96, "duration": 114}, {"note": 0, "velocity": 0, "duration": 126}, {"note": 59, "velocity": 85, "duration": 61}, {"note": 61, "velocity": 97, "duration": 989}, {"note": 0, "velocity": 0, "duration": 331}, {"note": 57, "velocity": 85, "duration": 49}, {"note": 0, "velocity": 0, "duration": 71}, {"note": 57, "velocity": 61, "duration": 46}, {"note": 0, "velocity": 0, "duration": 74}, {"note": 56, "velocity": 58, "duration": 126}, {"note": 0, "velocity": 0, "duration": 114}, {"note": 59, "velocity": 79, "duration": 59}, {"note": 0, "velocity": 0, "duration": 61}, {"note": 64, "velocity": 106, "duration": 303}, {"note": 66, "velocity": 92, "duration": 52}, {"note": 0, "velocity": 0, "duration": 68}, {"note": 66, "velocity": 92, "duration": 172}, {"note": 0, "velocity": 0, "duration": 68}, {"note": 64, "velocity": 76, "duration": 541}, {"note": 64, "velocity": 90, "duration": 43}, {"note": 0, "velocity": 0, "duration": 77}, {"note": 66, "velocity": 96, "duration": 53}, {"note": 0, "velocity": 0, "duration": 67}, {"note": 68, "velocity": 97, "duration": 128}, {"note": 0, "velocity": 0, "duration": 112}, {"note": 63, "velocity": 97, "duration": 43}, {"note": 0, "velocity": 0, "duration": 77}, {"note": 63, "velocity": 99, "duration": 74}, {"note": 0, "velocity": 0, "duration": 166}, {"note": 61, "velocity": 97, "duration": 61}, {"note": 0, "velocity": 0, "duration": 179}, {"note": 63, "velocity": 88, "duration": 409}, {"note": 0, "velocity": 0, "duration": 431}, {"note": 59, "velocity": 89, "duration": 44}, {"note": 0, "velocity": 0, "duration": 76}, {"note": 59, "velocity": 74, "duration": 47}, {"note": 0, "velocity": 0, "duration": 73}, {"note": 61, "velocity": 99, "duration": 217}, {"note": 64, "velocity": 86, "duration": 58}, {"note": 0, "velocity": 0, "duration": 182}, {"note": 64, "velocity": 89, "duration": 139}, {"note": 0, "velocity": 0, "duration": 101}, {"note": 61, "velocity": 78, "duration": 54}, {"note": 0, "velocity": 0, "duration": 66}, {"note": 66, "velocity": 97, "duration": 70}, {"note": 0, "velocity": 0, "duration": 170}, {"note": 64, "velocity": 89, "duration": 415}, {"note": 0, "velocity": 0, "duration": 425}, {"note": 59, "velocity": 96, "duration": 188}, {"note": 59, "velocity": 85, "duration": 193}, {"note": 68, "velocity": 97, "duration": 187}, {"note": 69, "velocity": 90, "duration": 62}, {"note": 69, "velocity": 89, "duration": 326}, {"note": 68, "velocity": 89, "duration": 388}, {"note": 0, "velocity": 0, "duration": 332}, {"note": 68, "velocity": 95, "duration": 209}, {"note": 61, "velocity": 82, "duration": 118}, {"note": 64, "velocity": 89, "duration": 979}, {"note": 59, "velocity": 83, "duration": 82}, {"note": 61, "velocity": 100, "duration": 168}, {"note": 0, "velocity": 0, "duration": 72}, {"note": 64, "velocity": 74, "duration": 52}, {"note": 0, "velocity": 0, "duration": 68}, {"note": 64, "velocity": 86, "duration": 298}, {"note": 61, "velocity": 70, "duration": 95}, {"note": 64, "velocity": 93, "duration": 686}, {"note": 64, "velocity": 122, "duration": 357}, {"note": 0, "velocity": 0, "duration": 123}, {"note": 66, "velocity": 127, "duration": 272}, {"note": 0, "velocity": 0, "duration": 208}, {"note": 68, "velocity": 127, "duration": 175}, {"note": 0, "velocity": 0, "duration": 65}, {"note": 68, "velocity": 122, "duration": 117}, {"note": 0, "velocity": 0, "duration": 123}, {"note": 68, "velocity": 127, "duration": 128}, {"note": 0, "velocity": 0, "duration": 112}, {"note": 68, "velocity": 127, "duration": 78}, {"note": 66, "velocity": 112, "duration": 48}, {"note": 0, "velocity": 0, "duration": 72}, {"note": 68, "velocity": 127, "duration": 154}, {"note": 0, "velocity": 0, "duration": 86}, {"note": 71, "velocity": 127, "duration": 147}, {"note": 0, "velocity": 0, "duration": 93}, {"note": 71, "velocity": 127, "duration": 111}, {"note": 0, "velocity": 0, "duration": 129}, {"note": 59, "velocity": 112, "duration": 55}, {"note": 0, "velocity": 0, "duration": 65}, {"note": 59, "velocity": 96, "duration": 64}, {"note": 68, "velocity": 127, "duration": 114}, {"note": 66, "velocity": 97, "duration": 63}, {"note": 66, "velocity": 122, "duration": 49}, {"note": 0, "velocity": 0, "duration": 71}, {"note": 66, "velocity": 127, "duration": 231}, {"note": 0, "velocity": 0, "duration": 129}, {"note": 66, "velocity": 127, "duration": 106}, {"note": 64, "velocity": 92, "duration": 97}, {"note": 66, "velocity": 117, "duration": 48}, {"note": 0, "velocity": 0, "duration": 72}, {"note": 66, "velocity": 122, "duration": 87}, {"note": 71, "velocity": 107, "duration": 174}, {"note": 0, "velocity": 0, "duration": 66}, {"note": 71, "velocity": 127, "duration": 140}, {"note": 0, "velocity": 0, "duration": 100}, {"note": 59, "velocity": 96, "duration": 52}, {"note": 0, "velocity": 0, "duration": 68}, {"note": 59, "velocity": 96, "duration": 48}, {"note": 0, "velocity": 0, "duration": 72}, {"note": 66, "velocity": 122, "duration": 216}, {"note": 64, "velocity": 100, "duration": 52}, {"note": 0, "velocity": 0, "duration": 68}, {"note": 64, "velocity": 107, "duration": 342}, {"note": 59, "velocity": 99, "duration": 51}, {"note": 0, "velocity": 0, "duration": 69}, {"note": 59, "velocity": 95, "duration": 70}, {"note": 67, "velocity": 122, "duration": 57}, {"note": 0, "velocity": 0, "duration": 63}, {"note": 67, "velocity": 117, "duration": 175}, {"note": 0, "velocity": 0, "duration": 65}, {"note": 66, "velocity": 95, "duration": 65}, {"note": 66, "velocity": 127, "duration": 156}, {"note": 0, "velocity": 0, "duration": 84}, {"note": 60, "velocity": 122, "duration": 64}, {"note": 60, "velocity": 93, "duration": 118}, {"note": 59, "velocity": 96, "duration": 763}, {"note": 0, "velocity": 0, "duration": 197}, {"note": 64, "velocity": 122, "duration": 357}, {"note": 0, "velocity": 0, "duration": 123}, {"note": 66, "velocity": 127, "duration": 272}, {"note": 0, "velocity": 0, "duration": 208}, {"note": 68, "velocity": 127, "duration": 175}, {"note": 0, "velocity": 0, "duration": 65}, {"note": 68, "velocity": 122, "duration": 117}, {"note": 0, "velocity": 0, "duration": 123}, {"note": 68, "velocity": 127, "duration": 128}, {"note": 0, "velocity": 0, "duration": 112}, {"note": 68, "velocity": 127, "duration": 78}, {"note": 66, "velocity": 112, "duration": 48}, {"note": 0, "velocity": 0, "duration": 72}, {"note": 68, "velocity": 127, "duration": 154}, {"note": 0, "velocity": 0, "duration": 86}, {"note": 71, "velocity": 127, "duration": 147}, {"note": 0, "velocity": 0, "duration": 93}, {"note": 71, "velocity": 127, "duration": 111}, {"note": 0, "velocity": 0, "duration": 129}, {"note": 59, "velocity": 112, "duration": 55}, {"note": 0, "velocity": 0, "duration": 65}, {"note": 59, "velocity": 96, "duration": 64}, {"note": 68, "velocity": 127, "duration": 114}, {"note": 66, "velocity": 97, "duration": 63}, {"note": 66, "velocity": 122, "duration": 49}, {"note": 0, "velocity": 0, "duration": 71}, {"note": 66, "velocity": 127, "duration": 231}, {"note": 0, "velocity": 0, "duration": 129}, {"note": 66, "velocity": 127, "duration": 106}, {"note": 64, "velocity": 92, "duration": 97}, {"note": 66, "velocity": 117, "duration": 48}, {"note": 0, "velocity": 0, "duration": 72}, {"note": 66, "velocity": 122, "duration": 87}, {"note": 71, "velocity": 107, "duration": 174}, {"note": 0, "velocity": 0, "duration": 66}, {"note": 71, "velocity": 127, "duration": 140}, {"note": 0, "velocity": 0, "duration": 100}, {"note": 59, "velocity": 96, "duration": 52}, {"note": 0, "velocity": 0, "duration": 68}, {"note": 59, "velocity": 96, "duration": 48}, {"note": 0, "velocity": 0, "duration": 72}, {"note": 66, "velocity": 122, "duration": 216}, {"note": 64, "velocity": 100, "duration": 52}, {"note": 0, "velocity": 0, "duration": 68}, {"note": 64, "velocity": 107, "duration": 342}, {"note": 59, "velocity": 99, "duration": 51}, {"note": 0, "velocity": 0, "duration": 69}, {"note": 59, "velocity": 95, "duration": 70}, {"note": 68, "velocity": 117, "duration": 46}, {"note": 0, "velocity": 0, "duration": 74}, {"note": 68, "velocity": 102, "duration": 166}, {"note": 0, "velocity": 0, "duration": 74}, {"note": 66, "velocity": 95, "duration": 64}, {"note": 66, "velocity": 112, "duration": 131}, {"note": 0, "velocity": 0, "duration": 109}, {"note": 64, "velocity": 82, "duration": 47}, {"note": 0, "velocity": 0, "duration": 73}, {"note": 64, "velocity": 97, "duration": 849}, {"note": 0, "velocity": 0, "duration": 2871}, {"note": 57, "velocity": 83, "duration": 57}, {"note": 0, "velocity": 0, "duration": 63}, {"note": 57, "velocity": 72, "duration": 58}, {"note": 0, "velocity": 0, "duration": 62}, {"note": 56, "velocity": 72, "duration": 133}, {"note": 0, "velocity": 0, "duration": 107}, {"note": 59, "velocity": 73, "duration": 58}, {"note": 0, "velocity": 0, "duration": 62}, {"note": 64, "velocity": 85, "duration": 811}, {"note": 0, "velocity": 0, "duration": 509}, {"note": 59, "velocity": 83, "duration": 54}, {"note": 0, "velocity": 0, "duration": 66}, {"note": 59, "velocity": 72, "duration": 76}, {"note": 64, "velocity": 96, "duration": 114}, {"note": 0, "velocity": 0, "duration": 126}, {"note": 59, "velocity": 85, "duration": 61}, {"note": 61, "velocity": 97, "duration": 989}, {"note": 0, "velocity": 0, "duration": 331}, {"note": 57, "velocity": 85, "duration": 49}, {"note": 0, "velocity": 0, "duration": 71}, {"note": 57, "velocity": 61, "duration": 46}, {"note": 0, "velocity": 0, "duration": 74}, {"note": 56, "velocity": 58, "duration": 126}, {"note": 0, "velocity": 0, "duration": 114}, {"note": 59, "velocity": 79, "duration": 59}, {"note": 0, "velocity": 0, "duration": 61}, {"note": 64, "velocity": 106, "duration": 303}, {"note": 66, "velocity": 92, "duration": 52}, {"note": 0, "velocity": 0, "duration": 68}, {"note": 66, "velocity": 92, "duration": 172}, {"note": 0, "velocity": 0, "duration": 68}, {"note": 64, "velocity": 76, "duration": 541}, {"note": 64, "velocity": 90, "duration": 43}, {"note": 0, "velocity": 0, "duration": 77}, {"note": 66, "velocity": 96, "duration": 53}, {"note": 0, "velocity": 0, "duration": 67}, {"note": 68, "velocity": 97, "duration": 128}, {"note": 0, "velocity": 0, "duration": 112}, {"note": 63, "velocity": 97, "duration": 43}, {"note": 0, "velocity": 0, "duration": 77}, {"note": 63, "velocity": 99, "duration": 74}, {"note": 0, "velocity": 0, "duration": 166}, {"note": 61, "velocity": 97, "duration": 61}, {"note": 0, "velocity": 0, "duration": 179}, {"note": 63, "velocity": 88, "duration": 409}, {"note": 0, "velocity": 0, "duration": 431}, {"note": 59, "velocity": 89, "duration": 44}, {"note": 0, "velocity": 0, "duration": 76}, {"note": 59, "velocity": 74, "duration": 47}, {"note": 0, "velocity": 0, "duration": 73}, {"note": 61, "velocity": 99, "duration": 217}, {"note": 64, "velocity": 86, "duration": 58}, {"note": 0, "velocity": 0, "duration": 182}, {"note": 64, "velocity": 89, "duration": 139}, {"note": 0, "velocity": 0, "duration": 101}, {"note": 61, "velocity": 78, "duration": 54}, {"note": 0, "velocity": 0, "duration": 66}, {"note": 66, "velocity": 97, "duration": 70}, {"note": 0, "velocity": 0, "duration": 170}, {"note": 64, "velocity": 89, "duration": 415}, {"note": 0, "velocity": 0, "duration": 425}, {"note": 59, "velocity": 96, "duration": 188}, {"note": 59, "velocity": 85, "duration": 193}, {"note": 68, "velocity": 97, "duration": 187}, {"note": 69, "velocity": 90, "duration": 62}, {"note": 69, "velocity": 89, "duration": 326}, {"note": 68, "velocity": 89, "duration": 388}, {"note": 0, "velocity": 0, "duration": 332}, {"note": 68, "velocity": 95, "duration": 209}, {"note": 61, "velocity": 82, "duration": 118}, {"note": 64, "velocity": 89, "duration": 979}, {"note": 59, "velocity": 83, "duration": 82}, {"note": 61, "velocity": 100, "duration": 168}, {"note": 0, "velocity": 0, "duration": 72}, {"note": 64, "velocity": 74, "duration": 52}, {"note": 0, "velocity": 0, "duration": 68}, {"note": 64, "velocity": 86, "duration": 298}, {"note": 61, "velocity": 70, "duration": 95}, {"note": 64, "velocity": 93, "duration": 686}, {"note": 64, "velocity": 122, "duration": 357}, {"note": 0, "velocity": 0, "duration": 123}, {"note": 66, "velocity": 127, "duration": 272}, {"note": 0, "velocity": 0, "duration": 208}, {"note": 68, "velocity": 127, "duration": 175}, {"note": 0, "velocity": 0, "duration": 65}, {"note": 68, "velocity": 122, "duration": 117}, {"note": 0, "velocity": 0, "duration": 123}, {"note": 68, "velocity": 127, "duration": 128}, {"note": 0, "velocity": 0, "duration": 112}, {"note": 68, "velocity": 127, "duration": 78}, {"note": 66, "velocity": 112, "duration": 48}, {"note": 0, "velocity": 0, "duration": 72}, {"note": 68, "velocity": 127, "duration": 154}, {"note": 0, "velocity": 0, "duration": 86}, {"note": 71, "velocity": 127, "duration": 147}, {"note": 0, "velocity": 0, "duration": 93}, {"note": 71, "velocity": 127, "duration": 111}, {"note": 0, "velocity": 0, "duration": 129}, {"note": 59, "velocity": 112, "duration": 55}, {"note": 0, "velocity": 0, "duration": 65}, {"note": 59, "velocity": 96, "duration": 64}, {"note": 68, "velocity": 127, "duration": 114}, {"note": 66, "velocity": 97, "duration": 63}, {"note": 66, "velocity": 122, "duration": 49}, {"note": 0, "velocity": 0, "duration": 71}, {"note": 66, "velocity": 127, "duration": 231}, {"note": 0, "velocity": 0, "duration": 129}, {"note": 66, "velocity": 127, "duration": 106}, {"note": 64, "velocity": 92, "duration": 97}, {"note": 66, "velocity": 117, "duration": 48}, {"note": 0, "velocity": 0, "duration": 72}, {"note": 66, "velocity": 122, "duration": 87}, {"note": 71, "velocity": 107, "duration": 174}, {"note": 0, "velocity": 0, "duration": 66}, {"note": 71, "velocity": 127, "duration": 140}, {"note": 0, "velocity": 0, "duration": 100}, {"note": 59, "velocity": 96, "duration": 52}, {"note": 0, "velocity": 0, "duration": 68}, {"note": 59, "velocity": 96, "duration": 48}, {"note": 0, "velocity": 0, "duration": 72}, {"note": 66, "velocity": 122, "duration": 216}, {"note": 64, "velocity": 100, "duration": 52}, {"note": 0, "velocity": 0, "duration": 68}, {"note": 64, "velocity": 107, "duration": 342}, {"note": 59, "velocity": 99, "duration": 51}, {"note": 0, "velocity": 0, "duration": 69}, {"note": 59, "velocity": 95, "duration": 70}, {"note": 67, "velocity": 122, "duration": 57}, {"note": 0, "velocity": 0, "duration": 63}, {"note": 67, "velocity": 117, "duration": 175}, {"note": 0, "velocity": 0, "duration": 65}, {"note": 66, "velocity": 95, "duration": 65}, {"note": 66, "velocity": 127, "duration": 156}, {"note": 0, "velocity": 0, "duration": 84}, {"note": 60, "velocity": 122, "duration": 64}, {"note": 60, "velocity": 93, "duration": 118}, {"note": 59, "velocity": 96, "duration": 763}, {"note": 0, "velocity": 0, "duration": 197}, {"note": 64, "velocity": 122, "duration": 357}, {"note": 0, "velocity": 0, "duration": 123}, {"note": 66, "velocity": 127, "duration": 272}, {"note": 0, "velocity": 0, "duration": 208}, {"note": 68, "velocity": 127, "duration": 175}, {"note": 0, "velocity": 0, "duration": 65}, {"note": 68, "velocity": 122, "duration": 117}, {"note": 0, "velocity": 0, "duration": 123}, {"note": 68, "velocity": 127, "duration": 128}, {"note": 0, "velocity": 0, "duration": 112}, {"note": 68, "velocity": 127, "duration": 78}, {"note": 66, "velocity": 112, "duration": 48}, {"note": 0, "velocity": 0, "duration": 72}, {"note": 68, "velocity": 127, "duration": 154}, {"note": 0, "velocity": 0, "duration": 86}, {"note": 71, "velocity": 127, "duration": 147}, {"note": 0, "velocity": 0, "duration": 93}, {"note": 71, "velocity": 127, "duration": 111}, {"note": 0, "velocity": 0, "duration": 129}, {"note": 59, "velocity": 112, "duration": 55}, {"note": 0, "velocity": 0, "duration": 65}, {"note": 59, "velocity": 96, "duration": 64}, {"note": 68, "velocity": 127, "duration": 114}, {"note": 66, "velocity": 97, "duration": 63}, {"note": 66, "velocity": 122, "duration": 49}, {"note": 0, "velocity": 0, "duration": 71}, {"note": 66, "velocity": 127, "duration": 231}, {"note": 0, "velocity": 0, "duration": 129}, {"note": 66, "velocity": 127, "duration": 106}, {"note": 64, "velocity": 92, "duration": 97}, {"note": 66, "velocity": 117, "duration": 48}, {"note": 0, "velocity": 0, "duration": 72}, {"note": 66, "velocity": 122, "duration": 87}, {"note": 71, "velocity": 107, "duration": 174}, {"note": 0, "velocity": 0, "duration": 66}, {"note": 71, "velocity": 127, "duration": 140}, {"note": 0, "velocity": 0, "duration": 100}, {"note": 59, "velocity": 96, "duration": 52}, {"note": 0, "velocity": 0, "duration": 68}, {"note": 59, "velocity": 96, "duration": 48}, {"note": 0, "velocity": 0, "duration": 72}, {"note": 66, "velocity": 122, "duration": 216}, {"note": 64, "velocity": 100, "duration": 52}, {"note": 0, "velocity": 0, "duration": 68}, {"note": 64, "velocity": 107, "duration": 342}, {"note": 59, "velocity": 99, "duration": 51}, {"note": 0, "velocity": 0, "duration": 69}, {"note": 59, "velocity": 95, "duration": 70}, {"note": 68, "velocity": 117, "duration": 46}, {"note": 0, "velocity": 0, "duration": 74}, {"note": 68, "velocity": 102, "duration": 166}, {"note": 0, "velocity": 0, "duration": 74}, {"note": 66, "velocity": 95, "duration": 64}, {"note": 66, "velocity": 112, "duration": 131}, {"note": 0, "velocity": 0, "duration": 109}, {"note": 64, "velocity": 82, "duration": 47}, {"note": 0, "velocity": 0, "duration": 73}, {"note": 64, "velocity": 97, "duration": 849}, {"note": 0, "velocity": 0, "duration": 8631}, {"note": 59, "velocity": 117, "duration": 45}, {"note": 0, "velocity": 0, "duration": 75}, {"note": 59, "velocity": 96, "duration": 53}, {"note": 0, "velocity": 0, "duration": 67}, {"note": 61, "velocity": 122, "duration": 111}, {"note": 64, "velocity": 90, "duration": 71}, {"note": 61, "velocity": 102, "duration": 58}, {"note": 0, "velocity": 0, "duration": 62}, {"note": 64, "velocity": 100, "duration": 331}, {"note": 59, "velocity": 96, "duration": 55}, {"note": 0, "velocity": 0, "duration": 65}, {"note": 59, "velocity": 96, "duration": 59}, {"note": 0, "velocity": 0, "duration": 61}, {"note": 67, "velocity": 122, "duration": 145}, {"note": 0, "velocity": 0, "duration": 95}, {"note": 66, "velocity": 127, "duration": 456}, {"note": 60, "velocity": 99, "duration": 57}, {"note": 0, "velocity": 0, "duration": 63}, {"note": 59, "velocity": 107, "duration": 644}, {"note": 0, "velocity": 0, "duration": 1156}, {"note": 59, "velocity": 93, "duration": 44}, {"note": 0, "velocity": 0, "duration": 76}, {"note": 59, "velocity": 96, "duration": 42}, {"note": 0, "velocity": 0, "duration": 78}, {"note": 61, "velocity": 122, "duration": 110}, {"note": 64, "velocity": 89, "duration": 102}, {"note": 61, "velocity": 97, "duration": 53}, {"note": 0, "velocity": 0, "duration": 67}, {"note": 64, "velocity": 100, "duration": 310}, {"note": 59, "velocity": 100, "duration": 44}, {"note": 0, "velocity": 0, "duration": 76}, {"note": 59, "velocity": 97, "duration": 51}, {"note": 0, "velocity": 0, "duration": 69}, {"note": 67, "velocity": 102, "duration": 125}, {"note": 67, "velocity": 90, "duration": 5}, {"note": 0, "velocity": 0, "duration": 115}, {"note": 66, "velocity": 107, "duration": 331}, {"note": 66, "velocity": 127, "duration": 91}, {"note": 0, "velocity": 0, "duration": 149}, {"note": 64, "velocity": 100, "duration": 44}, {"note": 0, "velocity": 0, "duration": 76}, {"note": 64, "velocity": 117, "duration": 120}, {"note": 0, "velocity": 0, "duration": 120}, {"note": 66, "velocity": 122, "duration": 142}, {"note": 68, "velocity": 122, "duration": 441}, {"note": 0, "velocity": 0, "duration": 999}, {"note": 59, "velocity": 107, "duration": 36}, {"note": 0, "velocity": 0, "duration": 84}, {"note": 59, "velocity": 96, "duration": 36}, {"note": 0, "velocity": 0, "duration": 84}, {"note": 61, "velocity": 127, "duration": 117}, {"note": 64, "velocity": 97, "duration": 63}, {"note": 61, "velocity": 112, "duration": 47}, {"note": 0, "velocity": 0, "duration": 73}, {"note": 64, "velocity": 122, "duration": 163}, {"note": 0, "velocity": 0, "duration": 197}, {"note": 59, "velocity": 102, "duration": 40}, {"note": 0, "velocity": 0, "duration": 80}, {"note": 59, "velocity": 100, "duration": 53}, {"note": 0, "velocity": 0, "duration": 67}, {"note": 67, "velocity": 117, "duration": 85}, {"note": 0, "velocity": 0, "duration": 155}, {"note": 67, "velocity": 112, "duration": 130}, {"note": 66, "velocity": 127, "duration": 188}, {"note": 66, "velocity": 127, "duration": 68}, {"note": 0, "velocity": 0, "duration": 172}, {"note": 64, "velocity": 112, "duration": 61}, {"note": 68, "velocity": 127, "duration": 319}, {"note": 68, "velocity": 127, "duration": 44}, {"note": 0, "velocity": 0, "duration": 76}, {"note": 71, "velocity": 117, "duration": 241}, {"note": 0, "velocity": 0, "duration": 119}, {"note": 68, "velocity": 127, "duration": 132}, {"note": 66, "velocity": 117, "duration": 210}, {"note": 64, "velocity": 100, "duration": 127}, {"note": 0, "velocity": 0, "duration": 113}, {"note": 64, "velocity": 97, "duration": 77}, {"note": 66, "velocity": 127, "duration": 148}, {"note": 0, "velocity": 0, "duration": 92}, {"note": 68, "velocity": 127, "duration": 60}, {"note": 64, "velocity": 112, "duration": 357}, {"note": 0, "velocity": 0, "duration": 1203}, {"note": 68, "velocity": 127, "duration": 131}, {"note": 0, "velocity": 0, "duration": 109}, {"note": 69, "velocity": 127, "duration": 76}, {"note": 68, "velocity": 127, "duration": 99}, {"note": 0, "velocity": 0, "duration": 141}, {"note": 66, "velocity": 127, "duration": 393}, {"note": 0, "velocity": 0, "duration": 447}, {"note": 64, "velocity": 122, "duration": 357}, {"note": 0, "velocity": 0, "duration": 123}, {"note": 66, "velocity": 127, "duration": 272}, {"note": 0, "velocity": 0, "duration": 208}, {"note": 68, "velocity": 127, "duration": 175}, {"note": 0, "velocity": 0, "duration": 65}, {"note": 68, "velocity": 122, "duration": 117}, {"note": 0, "velocity": 0, "duration": 123}, {"note": 68, "velocity": 127, "duration": 128}, {"note": 0, "velocity": 0, "duration": 112}, {"note": 68, "velocity": 127, "duration": 78}, {"note": 66, "velocity": 112, "duration": 48}, {"note": 0, "velocity": 0, "duration": 72}, {"note": 68, "velocity": 127, "duration": 154}, {"note": 0, "velocity": 0, "duration": 86}, {"note": 71, "velocity": 127, "duration": 147}, {"note": 0, "velocity": 0, "duration": 93}, {"note": 71, "velocity": 127, "duration": 111}, {"note": 0, "velocity": 0, "duration": 129}, {"note": 59, "velocity": 112, "duration": 55}, {"note": 0, "velocity": 0, "duration": 65}, {"note": 59, "velocity": 96, "duration": 64}, {"note": 68, "velocity": 127, "duration": 114}, {"note": 66, "velocity": 97, "duration": 63}, {"note": 66, "velocity": 122, "duration": 49}, {"note": 0, "velocity": 0, "duration": 71}, {"note": 66, "velocity": 127, "duration": 231}, {"note": 0, "velocity": 0, "duration": 129}, {"note": 66, "velocity": 127, "duration": 106}, {"note": 64, "velocity": 92, "duration": 97}, {"note": 66, "velocity": 117, "duration": 48}, {"note": 0, "velocity": 0, "duration": 72}, {"note": 66, "velocity": 122, "duration": 87}, {"note": 71, "velocity": 107, "duration": 174}, {"note": 0, "velocity": 0, "duration": 66}, {"note": 71, "velocity": 127, "duration": 140}, {"note": 0, "velocity": 0, "duration": 100}, {"note": 59, "velocity": 96, "duration": 52}, {"note": 0, "velocity": 0, "duration": 68}, {"note": 59, "velocity": 96, "duration": 48}, {"note": 0, "velocity": 0, "duration": 72}, {"note": 66, "velocity": 122, "duration": 216}, {"note": 64, "velocity": 100, "duration": 52}, {"note": 0, "velocity": 0, "duration": 68}, {"note": 64, "velocity": 107, "duration": 342}, {"note": 59, "velocity": 99, "duration": 51}, {"note": 0, "velocity": 0, "duration": 69}, {"note": 59, "velocity": 95, "duration": 70}, {"note": 67, "velocity": 122, "duration": 57}, {"note": 0, "velocity": 0, "duration": 63}, {"note": 67, "velocity": 117, "duration": 175}, {"note": 0, "velocity": 0, "duration": 65}, {"note": 66, "velocity": 95, "duration": 65}, {"note": 66, "velocity": 127, "duration": 156}, {"note": 0, "velocity": 0, "duration": 84}, {"note": 60, "velocity": 122, "duration": 64}, {"note": 60, "velocity": 93, "duration": 118}, {"note": 59, "velocity": 96, "duration": 763}, {"note": 0, "velocity": 0, "duration": 197}, {"note": 64, "velocity": 122, "duration": 357}, {"note": 0, "velocity": 0, "duration": 123}, {"note": 66, "velocity": 127, "duration": 272}, {"note": 0, "velocity": 0, "duration": 208}, {"note": 68, "velocity": 127, "duration": 175}, {"note": 0, "velocity": 0, "duration": 65}, {"note": 68, "velocity": 122, "duration": 117}, {"note": 0, "velocity": 0, "duration": 123}, {"note": 68, "velocity": 127, "duration": 128}, {"note": 0, "velocity": 0, "duration": 112}, {"note": 68, "velocity": 127, "duration": 78}, {"note": 66, "velocity": 112, "duration": 48}, {"note": 0, "velocity": 0, "duration": 72}, {"note": 68, "velocity": 127, "duration": 154}, {"note": 0, "velocity": 0, "duration": 86}, {"note": 71, "velocity": 127, "duration": 147}, {"note": 0, "velocity": 0, "duration": 93}, {"note": 71, "velocity": 127, "duration": 111}, {"note": 0, "velocity": 0, "duration": 129}, {"note": 59, "velocity": 112, "duration": 55}, {"note": 0, "velocity": 0, "duration": 65}, {"note": 59, "velocity": 96, "duration": 64}, {"note": 68, "velocity": 127, "duration": 114}, {"note": 66, "velocity": 97, "duration": 63}, {"note": 66, "velocity": 122, "duration": 49}, {"note": 0, "velocity": 0, "duration": 71}, {"note": 66, "velocity": 127, "duration": 231}, {"note": 0, "velocity": 0, "duration": 129}, {"note": 66, "velocity": 127, "duration": 106}, {"note": 64, "velocity": 92, "duration": 97}, {"note": 66, "velocity": 117, "duration": 48}, {"note": 0, "velocity": 0, "duration": 72}, {"note": 66, "velocity": 122, "duration": 87}, {"note": 71, "velocity": 107, "duration": 174}, {"note": 0, "velocity": 0, "duration": 66}, {"note": 71, "velocity": 127, "duration": 140}, {"note": 0, "velocity": 0, "duration": 100}, {"note": 59, "velocity": 96, "duration": 52}, {"note": 0, "velocity": 0, "duration": 68}, {"note": 59, "velocity": 96, "duration": 48}, {"note": 0, "velocity": 0, "duration": 72}, {"note": 66, "velocity": 122, "duration": 216}, {"note": 64, "velocity": 100, "duration": 52}, {"note": 0, "velocity": 0, "duration": 68}, {"note": 64, "velocity": 107, "duration": 342}, {"note": 59, "velocity": 99, "duration": 51}, {"note": 0, "velocity": 0, "duration": 69}, {"note": 59, "velocity": 95, "duration": 70}, {"note": 68, "velocity": 117, "duration": 46}, {"note": 0, "velocity": 0, "duration": 74}, {"note": 68, "velocity": 102, "duration": 166}, {"note": 0, "velocity": 0, "duration": 74}, {"note": 66, "velocity": 95, "duration": 64}, {"note": 66, "velocity": 112, "duration": 131}, {"note": 0, "velocity": 0, "duration": 109}, {"note": 64, "velocity": 82, "duration": 47}, {"note": 0, "velocity": 0, "duration": 73}, {"note": 64, "velocity": 97, "duration": 849}, {"note": 0, "velocity": 0, "duration": 2631}, {"note": 66, "velocity": 127, "duration": 200}, {"note": 64, "velocity": 97, "duration": 53}, {"note": 0, "velocity": 0, "duration": 67}, {"note": 64, "velocity": 102, "duration": 236}, {"note": 66, "velocity": 112, "duration": 160}, {"note": 68, "velocity": 78, "duration": 1702}]]