[[{"note": 63, "velocity": 95, "duration": 118}, {"note": 0, "velocity": 0, "duration": 202}, {"note": 62, "velocity": 63, "duration": 90}, {"note": 0, "velocity": 0, "duration": 70}, {"note": 63, "velocity": 93, "duration": 117}, {"note": 0, "velocity": 0, "duration": 203}, {"note": 62, "velocity": 47, "duration": 94}, {"note": 0, "velocity": 0, "duration": 66}, {"note": 63, "velocity": 102, "duration": 80}, {"note": 0, "velocity": 0, "duration": 160}, {"note": 55, "velocity": 68, "duration": 135}, {"note": 0, "velocity": 0, "duration": 105}, {"note": 63, "velocity": 99, "duration": 321}, {"note": 0, "velocity": 0, "duration": 159}, {"note": 67, "velocity": 90, "duration": 417}, {"note": 0, "velocity": 0, "duration": 543}, {"note": 65, "velocity": 83, "duration": 205}, {"note": 62, "velocity": 75, "duration": 1043}, {"note": 0, "velocity": 0, "duration": 1597}, {"note": 62, "velocity": 83, "duration": 124}, {"note": 0, "velocity": 0, "duration": 196}, {"note": 60, "velocity": 81, "duration": 120}, {"note": 62, "velocity": 77, "duration": 117}, {"note": 0, "velocity": 0, "duration": 203}, {"note": 60, "velocity": 82, "duration": 142}, {"note": 62, "velocity": 79, "duration": 103}, {"note": 0, "velocity": 0, "duration": 137}, {"note": 55, "velocity": 82, "duration": 107}, {"note": 0, "velocity": 0, "duration": 133}, {"note": 65, "velocity": 100, "duration": 420}, {"note": 63, "velocity": 97, "duration": 689}, {"note": 0, "velocity": 0, "duration": 271}, {"note": 62, "velocity": 93, "duration": 232}, {"note": 60, "velocity": 72, "duration": 1357}, {"note": 0, "velocity": 0, "duration": 1283}, {"note": 60, "velocity": 82, "duration": 140}, {"note": 0, "velocity": 0, "duration": 260}, {"note": 62, "velocity": 67, "duration": 172}, {"note": 63, "velocity": 83, "duration": 121}, {"note": 0, "velocity": 0, "duration": 199}, {"note": 62, "velocity": 88, "duration": 121}, {"note": 63, "velocity": 92, "duration": 349}, {"note": 0, "velocity": 0, "duration": 435}, {"note": 62, "velocity": 73, "duration": 132}, {"note": 63, "velocity": 63, "duration": 223}, {"note": 60, "velocity": 73, "duration": 112}, {"note": 0, "velocity": 0, "duration": 128}, {"note": 62, "velocity": 83, "duration": 269}, {"note": 63, "velocity": 57, "duration": 235}, {"note": 67, "velocity": 96, "duration": 252}, {"note": 65, "velocity": 83, "duration": 1794}, {"note": 0, "velocity": 0, "duration": 846}, {"note": 62, "velocity": 90, "duration": 125}, {"note": 0, "velocity": 0, "duration": 195}, {"note": 61, "velocity": 82, "duration": 162}, {"note": 62, "velocity": 74, "duration": 121}, {"note": 0, "velocity": 0, "duration": 199}, {"note": 61, "velocity": 81, "duration": 148}, {"note": 62, "velocity": 83, "duration": 119}, {"note": 0, "velocity": 0, "duration": 121}, {"note": 55, "velocity": 78, "duration": 93}, {"note": 0, "velocity": 0, "duration": 147}, {"note": 65, "velocity": 96, "duration": 340}, {"note": 0, "velocity": 0, "duration": 140}, {"note": 63, "velocity": 90, "duration": 525}, {"note": 0, "velocity": 0, "duration": 435}, {"note": 62, "velocity": 82, "duration": 240}, {"note": 60, "velocity": 66, "duration": 1624}, {"note": 0, "velocity": 0, "duration": 1016}, {"note": 60, "velocity": 96, "duration": 197}, {"note": 0, "velocity": 0, "duration": 123}, {"note": 62, "velocity": 75, "duration": 114}, {"note": 63, "velocity": 97, "duration": 179}, {"note": 0, "velocity": 0, "duration": 141}, {"note": 62, "velocity": 83, "duration": 102}, {"note": 63, "velocity": 99, "duration": 159}, {"note": 0, "velocity": 0, "duration": 161}, {"note": 55, "velocity": 82, "duration": 116}, {"note": 63, "velocity": 97, "duration": 393}, {"note": 0, "velocity": 0, "duration": 87}, {"note": 67, "velocity": 107, "duration": 539}, {"note": 0, "velocity": 0, "duration": 421}, {"note": 65, "velocity": 96, "duration": 267}, {"note": 62, "velocity": 81, "duration": 1858}, {"note": 0, "velocity": 0, "duration": 782}, {"note": 62, "velocity": 82, "duration": 223}, {"note": 0, "velocity": 0, "duration": 97}, {"note": 61, "velocity": 88, "duration": 118}, {"note": 62, "velocity": 90, "duration": 144}, {"note": 0, "velocity": 0, "duration": 176}, {"note": 61, "velocity": 93, "duration": 161}, {"note": 62, "velocity": 93, "duration": 194}, {"note": 0, "velocity": 0, "duration": 126}, {"note": 55, "velocity": 89, "duration": 111}, {"note": 65, "velocity": 85, "duration": 334}, {"note": 0, "velocity": 0, "duration": 146}, {"note": 63, "velocity": 96, "duration": 535}, {"note": 0, "velocity": 0, "duration": 185}, {"note": 62, "velocity": 85, "duration": 62}, {"note": 0, "velocity": 0, "duration": 178}, {"note": 62, "velocity": 92, "duration": 228}, {"note": 60, "velocity": 86, "duration": 1272}, {"note": 0, "velocity": 0, "duration": 1368}, {"note": 60, "velocity": 83, "duration": 162}, {"note": 0, "velocity": 0, "duration": 158}, {"note": 62, "velocity": 68, "duration": 132}, {"note": 63, "velocity": 88, "duration": 141}, {"note": 0, "velocity": 0, "duration": 179}, {"note": 62, "velocity": 65, "duration": 168}, {"note": 63, "velocity": 78, "duration": 469}, {"note": 0, "velocity": 0, "duration": 331}, {"note": 62, "velocity": 79, "duration": 137}, {"note": 63, "velocity": 85, "duration": 257}, {"note": 60, "velocity": 65, "duration": 122}, {"note": 0, "velocity": 0, "duration": 118}, {"note": 62, "velocity": 78, "duration": 220}, {"note": 63, "velocity": 93, "duration": 121}, {"note": 0, "velocity": 0, "duration": 119}, {"note": 67, "velocity": 95, "duration": 323}, {"note": 0, "velocity": 0, "duration": 157}, {"note": 65, "velocity": 90, "duration": 765}, {"note": 0, "velocity": 0, "duration": 1635}, {"note": 62, "velocity": 83, "duration": 132}, {"note": 0, "velocity": 0, "duration": 188}, {"note": 61, "velocity": 88, "duration": 138}, {"note": 62, "velocity": 77, "duration": 121}, {"note": 0, "velocity": 0, "duration": 199}, {"note": 61, "velocity": 82, "duration": 116}, {"note": 62, "velocity": 86, "duration": 196}, {"note": 0, "velocity": 0, "duration": 124}, {"note": 55, "velocity": 76, "duration": 134}, {"note": 65, "velocity": 82, "duration": 345}, {"note": 0, "velocity": 0, "duration": 135}, {"note": 63, "velocity": 83, "duration": 523}, {"note": 0, "velocity": 0, "duration": 437}, {"note": 62, "velocity": 86, "duration": 250}, {"note": 60, "velocity": 67, "duration": 1051}, {"note": 0, "velocity": 0, "duration": 1589}, {"note": 63, "velocity": 97, "duration": 1145}, {"note": 0, "velocity": 0, "duration": 295}, {"note": 60, "velocity": 90, "duration": 1259}, {"note": 0, "velocity": 0, "duration": 181}, {"note": 62, "velocity": 95, "duration": 1281}, {"note": 0, "velocity": 0, "duration": 159}, {"note": 58, "velocity": 88, "duration": 1379}, {"note": 0, "velocity": 0, "duration": 61}, {"note": 63, "velocity": 99, "duration": 1193}, {"note": 0, "velocity": 0, "duration": 247}, {"note": 60, "velocity": 95, "duration": 1169}, {"note": 0, "velocity": 0, "duration": 271}, {"note": 62, "velocity": 95, "duration": 644}, {"note": 0, "velocity": 0, "duration": 76}, {"note": 62, "velocity": 83, "duration": 205}, {"note": 58, "velocity": 77, "duration": 371}, {"note": 0, "velocity": 0, "duration": 109}, {"note": 55, "velocity": 68, "duration": 1211}, {"note": 0, "velocity": 0, "duration": 229}, {"note": 63, "velocity": 95, "duration": 1342}, {"note": 0, "velocity": 0, "duration": 98}, {"note": 60, "velocity": 96, "duration": 1272}, {"note": 0, "velocity": 0, "duration": 168}, {"note": 62, "velocity": 93, "duration": 1107}, {"note": 0, "velocity": 0, "duration": 93}, {"note": 58, "velocity": 82, "duration": 152}, {"note": 0, "velocity": 0, "duration": 88}, {"note": 58, "velocity": 67, "duration": 723}, {"note": 0, "velocity": 0, "duration": 717}, {"note": 63, "velocity": 95, "duration": 1205}, {"note": 60, "velocity": 83, "duration": 707}, {"note": 0, "velocity": 0, "duration": 236}, {"note": 62, "velocity": 85, "duration": 209}, {"note": 0, "velocity": 0, "duration": 206}, {"note": 63, "velocity": 89, "duration": 196}, {"note": 0, "velocity": 0, "duration": 96}, {"note": 62, "velocity": 86, "duration": 221}, {"note": 0, "velocity": 0, "duration": 80}, {"note": 67, "velocity": 95, "duration": 2158}, {"note": 0, "velocity": 0, "duration": 3318}, {"note": 67, "velocity": 92, "duration": 132}, {"note": 0, "velocity": 0, "duration": 188}, {"note": 72, "velocity": 86, "duration": 87}, {"note": 0, "velocity": 0, "duration": 73}, {"note": 72, "velocity": 86, "duration": 199}, {"note": 0, "velocity": 0, "duration": 121}, {"note": 70, "velocity": 96, "duration": 82}, {"note": 0, "velocity": 0, "duration": 78}, {"note": 70, "velocity": 96, "duration": 185}, {"note": 0, "velocity": 0, "duration": 135}, {"note": 65, "velocity": 69, "duration": 140}, {"note": 67, "velocity": 95, "duration": 658}, {"note": 0, "velocity": 0, "duration": 782}, {"note": 67, "velocity": 99, "duration": 133}, {"note": 0, "velocity": 0, "duration": 187}, {"note": 72, "velocity": 90, "duration": 76}, {"note": 0, "velocity": 0, "duration": 84}, {"note": 72, "velocity": 85, "duration": 135}, {"note": 0, "velocity": 0, "duration": 185}, {"note": 70, "velocity": 96, "duration": 74}, {"note": 0, "velocity": 0, "duration": 86}, {"note": 70, "velocity": 99, "duration": 122}, {"note": 0, "velocity": 0, "duration": 198}, {"note": 65, "velocity": 86, "duration": 106}, {"note": 67, "velocity": 89, "duration": 966}, {"note": 0, "velocity": 0, "duration": 314}, {"note": 55, "velocity": 88, "duration": 103}, {"note": 68, "velocity": 100, "duration": 115}, {"note": 0, "velocity": 0, "duration": 205}, {"note": 68, "velocity": 97, "duration": 69}, {"note": 0, "velocity": 0, "duration": 91}, {"note": 68, "velocity": 102, "duration": 130}, {"note": 0, "velocity": 0, "duration": 110}, {"note": 67, "velocity": 93, "duration": 103}, {"note": 0, "velocity": 0, "duration": 137}, {"note": 65, "velocity": 95, "duration": 145}, {"note": 0, "velocity": 0, "duration": 95}, {"note": 63, "velocity": 75, "duration": 218}, {"note": 62, "velocity": 93, "duration": 931}, {"note": 60, "velocity": 92, "duration": 203}, {"note": 62, "velocity": 85, "duration": 120}, {"note": 0, "velocity": 0, "duration": 120}, {"note": 63, "velocity": 96, "duration": 766}, {"note": 0, "velocity": 0, "duration": 148}, {"note": 65, "velocity": 97, "duration": 342}, {"note": 0, "velocity": 0, "duration": 166}, {"note": 67, "velocity": 112, "duration": 1021}, {"note": 0, "velocity": 0, "duration": 441}, {"note": 67, "velocity": 92, "duration": 132}, {"note": 0, "velocity": 0, "duration": 188}, {"note": 72, "velocity": 86, "duration": 87}, {"note": 0, "velocity": 0, "duration": 73}, {"note": 72, "velocity": 86, "duration": 199}, {"note": 0, "velocity": 0, "duration": 121}, {"note": 70, "velocity": 96, "duration": 82}, {"note": 0, "velocity": 0, "duration": 78}, {"note": 70, "velocity": 96, "duration": 185}, {"note": 0, "velocity": 0, "duration": 135}, {"note": 65, "velocity": 69, "duration": 140}, {"note": 67, "velocity": 95, "duration": 658}, {"note": 0, "velocity": 0, "duration": 782}, {"note": 67, "velocity": 99, "duration": 133}, {"note": 0, "velocity": 0, "duration": 187}, {"note": 72, "velocity": 90, "duration": 76}, {"note": 0, "velocity": 0, "duration": 84}, {"note": 72, "velocity": 85, "duration": 135}, {"note": 0, "velocity": 0, "duration": 185}, {"note": 70, "velocity": 96, "duration": 74}, {"note": 0, "velocity": 0, "duration": 86}, {"note": 70, "velocity": 99, "duration": 122}, {"note": 0, "velocity": 0, "duration": 198}, {"note": 65, "velocity": 86, "duration": 106}, {"note": 67, "velocity": 89, "duration": 966}, {"note": 0, "velocity": 0, "duration": 314}, {"note": 55, "velocity": 88, "duration": 103}, {"note": 68, "velocity": 100, "duration": 115}, {"note": 0, "velocity": 0, "duration": 205}, {"note": 68, "velocity": 97, "duration": 69}, {"note": 0, "velocity": 0, "duration": 91}, {"note": 68, "velocity": 102, "duration": 130}, {"note": 0, "velocity": 0, "duration": 110}, {"note": 67, "velocity": 93, "duration": 103}, {"note": 0, "velocity": 0, "duration": 137}, {"note": 65, "velocity": 95, "duration": 145}, {"note": 0, "velocity": 0, "duration": 95}, {"note": 63, "velocity": 75, "duration": 218}, {"note": 62, "velocity": 93, "duration": 931}, {"note": 60, "velocity": 92, "duration": 203}, {"note": 62, "velocity": 85, "duration": 120}, {"note": 0, "velocity": 0, "duration": 120}, {"note": 63, "velocity": 96, "duration": 766}, {"note": 0, "velocity": 0, "duration": 148}, {"note": 65, "velocity": 97, "duration": 342}, {"note": 0, "velocity": 0, "duration": 188}, {"note": 62, "velocity": 112, "duration": 1021}, {"note": 0, "velocity": 0, "duration": 1859}, {"note": 63, "velocity": 97, "duration": 1145}, {"note": 0, "velocity": 0, "duration": 295}, {"note": 60, "velocity": 90, "duration": 1259}, {"note": 0, "velocity": 0, "duration": 181}, {"note": 62, "velocity": 95, "duration": 1281}, {"note": 0, "velocity": 0, "duration": 159}, {"note": 58, "velocity": 88, "duration": 1379}, {"note": 0, "velocity": 0, "duration": 61}, {"note": 63, "velocity": 99, "duration": 1193}, {"note": 0, "velocity": 0, "duration": 247}, {"note": 60, "velocity": 95, "duration": 1169}, {"note": 0, "velocity": 0, "duration": 271}, {"note": 62, "velocity": 95, "duration": 644}, {"note": 0, "velocity": 0, "duration": 76}, {"note": 62, "velocity": 83, "duration": 205}, {"note": 58, "velocity": 77, "duration": 371}, {"note": 0, "velocity": 0, "duration": 109}, {"note": 55, "velocity": 68, "duration": 1211}, {"note": 0, "velocity": 0, "duration": 229}, {"note": 63, "velocity": 95, "duration": 1342}, {"note": 0, "velocity": 0, "duration": 98}, {"note": 60, "velocity": 96, "duration": 1272}, {"note": 0, "velocity": 0, "duration": 168}, {"note": 62, "velocity": 93, "duration": 1107}, {"note": 0, "velocity": 0, "duration": 93}, {"note": 58, "velocity": 82, "duration": 152}, {"note": 0, "velocity": 0, "duration": 88}, {"note": 58, "velocity": 67, "duration": 723}, {"note": 0, "velocity": 0, "duration": 717}, {"note": 63, "velocity": 95, "duration": 1205}, {"note": 60, "velocity": 83, "duration": 707}, {"note": 0, "velocity": 0, "duration": 236}, {"note": 62, "velocity": 85, "duration": 209}, {"note": 0, "velocity": 0, "duration": 206}, {"note": 63, "velocity": 89, "duration": 196}, {"note": 65, "velocity": 90, "duration": 262}, {"note": 0, "velocity": 0, "duration": 87}, {"note": 67, "velocity": 95, "duration": 2158}]]