[[{"note": 71, "velocity": 117, "duration": 332}, {"note": 0, "velocity": 0, "duration": 148}, {"note": 71, "velocity": 117, "duration": 361}, {"note": 0, "velocity": 0, "duration": 119}, {"note": 71, "velocity": 122, "duration": 239}, {"note": 0, "velocity": 0, "duration": 241}, {"note": 66, "velocity": 97, "duration": 102}, {"note": 0, "velocity": 0, "duration": 138}, {"note": 66, "velocity": 102, "duration": 121}, {"note": 0, "velocity": 0, "duration": 119}, {"note": 69, "velocity": 99, "duration": 265}, {"note": 71, "velocity": 92, "duration": 102}, {"note": 0, "velocity": 0, "duration": 138}, {"note": 73, "velocity": 112, "duration": 375}, {"note": 0, "velocity": 0, "duration": 105}, {"note": 71, "velocity": 102, "duration": 403}, {"note": 0, "velocity": 0, "duration": 557}, {"note": 66, "velocity": 112, "duration": 190}, {"note": 71, "velocity": 96, "duration": 78}, {"note": 0, "velocity": 0, "duration": 162}, {"note": 71, "velocity": 97, "duration": 97}, {"note": 0, "velocity": 0, "duration": 143}, {"note": 71, "velocity": 99, "duration": 93}, {"note": 0, "velocity": 0, "duration": 147}, {"note": 71, "velocity": 122, "duration": 135}, {"note": 0, "velocity": 0, "duration": 105}, {"note": 66, "velocity": 122, "duration": 75}, {"note": 0, "velocity": 0, "duration": 165}, {"note": 66, "velocity": 112, "duration": 130}, {"note": 0, "velocity": 0, "duration": 110}, {"note": 64, "velocity": 96, "duration": 290}, {"note": 0, "velocity": 0, "duration": 190}, {"note": 62, "velocity": 93, "duration": 1224}, {"note": 0, "velocity": 0, "duration": 456}, {"note": 64, "velocity": 95, "duration": 321}, {"note": 0, "velocity": 0, "duration": 159}, {"note": 64, "velocity": 93, "duration": 355}, {"note": 0, "velocity": 0, "duration": 125}, {"note": 64, "velocity": 90, "duration": 452}, {"note": 59, "velocity": 86, "duration": 296}, {"note": 0, "velocity": 0, "duration": 184}, {"note": 64, "velocity": 97, "duration": 490}, {"note": 66, "velocity": 96, "duration": 506}, {"note": 64, "velocity": 92, "duration": 770}, {"note": 0, "velocity": 0, "duration": 190}, {"note": 66, "velocity": 102, "duration": 345}, {"note": 0, "velocity": 0, "duration": 135}, {"note": 71, "velocity": 96, "duration": 352}, {"note": 0, "velocity": 0, "duration": 128}, {"note": 71, "velocity": 93, "duration": 397}, {"note": 0, "velocity": 0, "duration": 83}, {"note": 64, "velocity": 96, "duration": 505}, {"note": 66, "velocity": 96, "duration": 1264}, {"note": 0, "velocity": 0, "duration": 656}, {"note": 71, "velocity": 117, "duration": 332}, {"note": 0, "velocity": 0, "duration": 148}, {"note": 71, "velocity": 117, "duration": 361}, {"note": 0, "velocity": 0, "duration": 119}, {"note": 71, "velocity": 122, "duration": 239}, {"note": 0, "velocity": 0, "duration": 241}, {"note": 66, "velocity": 97, "duration": 480}, {"note": 69, "velocity": 99, "duration": 265}, {"note": 71, "velocity": 92, "duration": 102}, {"note": 0, "velocity": 0, "duration": 138}, {"note": 73, "velocity": 112, "duration": 375}, {"note": 0, "velocity": 0, "duration": 105}, {"note": 71, "velocity": 102, "duration": 403}, {"note": 0, "velocity": 0, "duration": 557}, {"note": 66, "velocity": 112, "duration": 190}, {"note": 0, "velocity": 0, "duration": 290}, {"note": 71, "velocity": 97, "duration": 97}, {"note": 0, "velocity": 0, "duration": 383}, {"note": 71, "velocity": 122, "duration": 135}, {"note": 0, "velocity": 0, "duration": 345}, {"note": 66, "velocity": 112, "duration": 130}, {"note": 0, "velocity": 0, "duration": 110}, {"note": 64, "velocity": 96, "duration": 290}, {"note": 62, "velocity": 93, "duration": 1440}, {"note": 0, "velocity": 0, "duration": 480}, {"note": 64, "velocity": 95, "duration": 321}, {"note": 0, "velocity": 0, "duration": 159}, {"note": 64, "velocity": 93, "duration": 355}, {"note": 0, "velocity": 0, "duration": 125}, {"note": 64, "velocity": 90, "duration": 452}, {"note": 59, "velocity": 86, "duration": 296}, {"note": 0, "velocity": 0, "duration": 184}, {"note": 64, "velocity": 97, "duration": 490}, {"note": 66, "velocity": 96, "duration": 506}, {"note": 64, "velocity": 92, "duration": 770}, {"note": 0, "velocity": 0, "duration": 190}, {"note": 59, "velocity": 90, "duration": 241}, {"note": 66, "velocity": 99, "duration": 131}, {"note": 0, "velocity": 0, "duration": 109}, {"note": 66, "velocity": 93, "duration": 114}, {"note": 0, "velocity": 0, "duration": 126}, {"note": 66, "velocity": 100, "duration": 112}, {"note": 0, "velocity": 0, "duration": 128}, {"note": 64, "velocity": 90, "duration": 178}, {"note": 0, "velocity": 0, "duration": 62}, {"note": 66, "velocity": 96, "duration": 118}, {"note": 0, "velocity": 0, "duration": 122}, {"note": 62, "velocity": 89, "duration": 226}, {"note": 61, "velocity": 72, "duration": 249}, {"note": 59, "velocity": 81, "duration": 936}, {"note": 0, "velocity": 0, "duration": 2904}, {"note": 71, "velocity": 102, "duration": 317}, {"note": 0, "velocity": 0, "duration": 163}, {"note": 78, "velocity": 122, "duration": 296}, {"note": 0, "velocity": 0, "duration": 184}, {"note": 78, "velocity": 117, "duration": 319}, {"note": 0, "velocity": 0, "duration": 161}, {"note": 71, "velocity": 102, "duration": 287}, {"note": 0, "velocity": 0, "duration": 193}, {"note": 78, "velocity": 127, "duration": 324}, {"note": 0, "velocity": 0, "duration": 156}, {"note": 78, "velocity": 127, "duration": 207}, {"note": 76, "velocity": 95, "duration": 212}, {"note": 74, "velocity": 96, "duration": 459}, {"note": 0, "velocity": 0, "duration": 501}, {"note": 73, "velocity": 127, "duration": 80}, {"note": 0, "velocity": 0, "duration": 160}, {"note": 73, "velocity": 107, "duration": 79}, {"note": 0, "velocity": 0, "duration": 161}, {"note": 73, "velocity": 127, "duration": 160}, {"note": 0, "velocity": 0, "duration": 80}, {"note": 71, "velocity": 107, "duration": 136}, {"note": 0, "velocity": 0, "duration": 104}, {"note": 69, "velocity": 107, "duration": 173}, {"note": 0, "velocity": 0, "duration": 67}, {"note": 71, "velocity": 99, "duration": 161}, {"note": 0, "velocity": 0, "duration": 79}, {"note": 73, "velocity": 117, "duration": 476}, {"note": 71, "velocity": 127, "duration": 929}, {"note": 0, "velocity": 0, "duration": 991}, {"note": 71, "velocity": 112, "duration": 250}, {"note": 0, "velocity": 0, "duration": 230}, {"note": 71, "velocity": 117, "duration": 233}, {"note": 0, "velocity": 0, "duration": 247}, {"note": 71, "velocity": 122, "duration": 272}, {"note": 0, "velocity": 0, "duration": 208}, {"note": 71, "velocity": 127, "duration": 146}, {"note": 0, "velocity": 0, "duration": 94}, {"note": 73, "velocity": 127, "duration": 132}, {"note": 0, "velocity": 0, "duration": 108}, {"note": 71, "velocity": 117, "duration": 225}, {"note": 0, "velocity": 0, "duration": 255}, {"note": 71, "velocity": 112, "duration": 225}, {"note": 69, "velocity": 100, "duration": 138}, {"note": 0, "velocity": 0, "duration": 102}, {"note": 66, "velocity": 102, "duration": 524}, {"note": 0, "velocity": 0, "duration": 436}, {"note": 62, "velocity": 99, "duration": 99}, {"note": 0, "velocity": 0, "duration": 141}, {"note": 62, "velocity": 97, "duration": 97}, {"note": 0, "velocity": 0, "duration": 143}, {"note": 62, "velocity": 96, "duration": 98}, {"note": 0, "velocity": 0, "duration": 142}, {"note": 59, "velocity": 89, "duration": 157}, {"note": 0, "velocity": 0, "duration": 83}, {"note": 71, "velocity": 100, "duration": 319}, {"note": 0, "velocity": 0, "duration": 161}, {"note": 69, "velocity": 127, "duration": 277}, {"note": 67, "velocity": 90, "duration": 199}, {"note": 66, "velocity": 89, "duration": 1046}, {"note": 0, "velocity": 0, "duration": 874}, {"note": 66, "velocity": 107, "duration": 358}, {"note": 0, "velocity": 0, "duration": 122}, {"note": 71, "velocity": 100, "duration": 789}, {"note": 0, "velocity": 0, "duration": 171}, {"note": 73, "velocity": 107, "duration": 443}, {"note": 71, "velocity": 95, "duration": 359}, {"note": 0, "velocity": 0, "duration": 121}, {"note": 71, "velocity": 107, "duration": 216}, {"note": 69, "velocity": 89, "duration": 238}, {"note": 71, "velocity": 95, "duration": 320}, {"note": 0, "velocity": 0, "duration": 640}, {"note": 66, "velocity": 117, "duration": 358}, {"note": 0, "velocity": 0, "duration": 122}, {"note": 71, "velocity": 107, "duration": 381}, {"note": 0, "velocity": 0, "duration": 99}, {"note": 71, "velocity": 107, "duration": 295}, {"note": 0, "velocity": 0, "duration": 185}, {"note": 66, "velocity": 122, "duration": 245}, {"note": 64, "velocity": 83, "duration": 213}, {"note": 62, "velocity": 93, "duration": 751}, {"note": 0, "velocity": 0, "duration": 1169}, {"note": 64, "velocity": 100, "duration": 214}, {"note": 0, "velocity": 0, "duration": 266}, {"note": 64, "velocity": 97, "duration": 672}, {"note": 0, "velocity": 0, "duration": 288}, {"note": 66, "velocity": 117, "duration": 438}, {"note": 64, "velocity": 95, "duration": 343}, {"note": 0, "velocity": 0, "duration": 137}, {"note": 64, "velocity": 92, "duration": 231}, {"note": 66, "velocity": 90, "duration": 207}, {"note": 69, "velocity": 102, "duration": 416}, {"note": 0, "velocity": 0, "duration": 544}, {"note": 78, "velocity": 117, "duration": 328}, {"note": 0, "velocity": 0, "duration": 152}, {"note": 78, "velocity": 117, "duration": 300}, {"note": 0, "velocity": 0, "duration": 180}, {"note": 73, "velocity": 112, "duration": 323}, {"note": 0, "velocity": 0, "duration": 157}, {"note": 71, "velocity": 107, "duration": 243}, {"note": 69, "velocity": 86, "duration": 253}, {"note": 71, "velocity": 93, "duration": 1090}, {"note": 0, "velocity": 0, "duration": 31550}, {"note": 71, "velocity": 117, "duration": 332}, {"note": 0, "velocity": 0, "duration": 148}, {"note": 71, "velocity": 117, "duration": 361}, {"note": 0, "velocity": 0, "duration": 119}, {"note": 71, "velocity": 122, "duration": 239}, {"note": 0, "velocity": 0, "duration": 241}, {"note": 66, "velocity": 97, "duration": 102}, {"note": 0, "velocity": 0, "duration": 138}, {"note": 66, "velocity": 102, "duration": 121}, {"note": 0, "velocity": 0, "duration": 119}, {"note": 69, "velocity": 99, "duration": 265}, {"note": 71, "velocity": 92, "duration": 102}, {"note": 0, "velocity": 0, "duration": 138}, {"note": 73, "velocity": 112, "duration": 375}, {"note": 0, "velocity": 0, "duration": 105}, {"note": 71, "velocity": 102, "duration": 403}, {"note": 0, "velocity": 0, "duration": 557}, {"note": 66, "velocity": 112, "duration": 190}, {"note": 71, "velocity": 96, "duration": 78}, {"note": 0, "velocity": 0, "duration": 162}, {"note": 71, "velocity": 97, "duration": 97}, {"note": 0, "velocity": 0, "duration": 143}, {"note": 71, "velocity": 99, "duration": 93}, {"note": 0, "velocity": 0, "duration": 147}, {"note": 71, "velocity": 122, "duration": 135}, {"note": 0, "velocity": 0, "duration": 105}, {"note": 66, "velocity": 122, "duration": 75}, {"note": 0, "velocity": 0, "duration": 165}, {"note": 66, "velocity": 112, "duration": 130}, {"note": 0, "velocity": 0, "duration": 110}, {"note": 64, "velocity": 96, "duration": 290}, {"note": 0, "velocity": 0, "duration": 190}, {"note": 62, "velocity": 93, "duration": 1224}, {"note": 0, "velocity": 0, "duration": 456}, {"note": 64, "velocity": 95, "duration": 321}, {"note": 0, "velocity": 0, "duration": 159}, {"note": 64, "velocity": 93, "duration": 355}, {"note": 0, "velocity": 0, "duration": 125}, {"note": 64, "velocity": 90, "duration": 452}, {"note": 59, "velocity": 86, "duration": 296}, {"note": 0, "velocity": 0, "duration": 184}, {"note": 64, "velocity": 97, "duration": 490}, {"note": 66, "velocity": 96, "duration": 506}, {"note": 64, "velocity": 92, "duration": 770}, {"note": 0, "velocity": 0, "duration": 190}, {"note": 66, "velocity": 102, "duration": 345}, {"note": 0, "velocity": 0, "duration": 135}, {"note": 71, "velocity": 96, "duration": 352}, {"note": 0, "velocity": 0, "duration": 128}, {"note": 71, "velocity": 93, "duration": 397}, {"note": 0, "velocity": 0, "duration": 83}, {"note": 64, "velocity": 96, "duration": 505}, {"note": 66, "velocity": 96, "duration": 1264}, {"note": 0, "velocity": 0, "duration": 656}, {"note": 71, "velocity": 117, "duration": 332}, {"note": 0, "velocity": 0, "duration": 148}, {"note": 71, "velocity": 117, "duration": 361}, {"note": 0, "velocity": 0, "duration": 119}, {"note": 71, "velocity": 122, "duration": 239}, {"note": 0, "velocity": 0, "duration": 241}, {"note": 66, "velocity": 97, "duration": 480}, {"note": 69, "velocity": 99, "duration": 265}, {"note": 71, "velocity": 92, "duration": 102}, {"note": 0, "velocity": 0, "duration": 138}, {"note": 73, "velocity": 112, "duration": 375}, {"note": 0, "velocity": 0, "duration": 105}, {"note": 71, "velocity": 102, "duration": 403}, {"note": 0, "velocity": 0, "duration": 557}, {"note": 66, "velocity": 112, "duration": 190}, {"note": 0, "velocity": 0, "duration": 290}, {"note": 71, "velocity": 97, "duration": 97}, {"note": 0, "velocity": 0, "duration": 383}, {"note": 71, "velocity": 122, "duration": 135}, {"note": 0, "velocity": 0, "duration": 345}, {"note": 66, "velocity": 112, "duration": 130}, {"note": 0, "velocity": 0, "duration": 110}, {"note": 64, "velocity": 96, "duration": 290}, {"note": 62, "velocity": 93, "duration": 1440}, {"note": 0, "velocity": 0, "duration": 480}, {"note": 64, "velocity": 95, "duration": 321}, {"note": 0, "velocity": 0, "duration": 159}, {"note": 64, "velocity": 93, "duration": 355}, {"note": 0, "velocity": 0, "duration": 125}, {"note": 64, "velocity": 90, "duration": 452}, {"note": 59, "velocity": 86, "duration": 296}, {"note": 0, "velocity": 0, "duration": 184}, {"note": 64, "velocity": 97, "duration": 490}, {"note": 66, "velocity": 96, "duration": 506}, {"note": 64, "velocity": 92, "duration": 770}, {"note": 0, "velocity": 0, "duration": 190}, {"note": 59, "velocity": 90, "duration": 241}, {"note": 66, "velocity": 99, "duration": 131}, {"note": 0, "velocity": 0, "duration": 109}, {"note": 66, "velocity": 93, "duration": 114}, {"note": 0, "velocity": 0, "duration": 126}, {"note": 66, "velocity": 100, "duration": 112}, {"note": 0, "velocity": 0, "duration": 128}, {"note": 64, "velocity": 90, "duration": 178}, {"note": 0, "velocity": 0, "duration": 62}, {"note": 66, "velocity": 96, "duration": 118}, {"note": 0, "velocity": 0, "duration": 122}, {"note": 62, "velocity": 89, "duration": 226}, {"note": 61, "velocity": 72, "duration": 249}, {"note": 59, "velocity": 81, "duration": 936}, {"note": 0, "velocity": 0, "duration": 2904}, {"note": 71, "velocity": 102, "duration": 317}, {"note": 0, "velocity": 0, "duration": 163}, {"note": 78, "velocity": 122, "duration": 296}, {"note": 0, "velocity": 0, "duration": 184}, {"note": 78, "velocity": 117, "duration": 319}, {"note": 0, "velocity": 0, "duration": 161}, {"note": 71, "velocity": 102, "duration": 287}, {"note": 0, "velocity": 0, "duration": 193}, {"note": 78, "velocity": 127, "duration": 324}, {"note": 0, "velocity": 0, "duration": 156}, {"note": 78, "velocity": 127, "duration": 207}, {"note": 76, "velocity": 95, "duration": 212}, {"note": 74, "velocity": 96, "duration": 459}, {"note": 0, "velocity": 0, "duration": 501}, {"note": 73, "velocity": 127, "duration": 80}, {"note": 0, "velocity": 0, "duration": 160}, {"note": 73, "velocity": 107, "duration": 79}, {"note": 0, "velocity": 0, "duration": 161}, {"note": 73, "velocity": 127, "duration": 160}, {"note": 0, "velocity": 0, "duration": 80}, {"note": 71, "velocity": 107, "duration": 136}, {"note": 0, "velocity": 0, "duration": 104}, {"note": 69, "velocity": 107, "duration": 173}, {"note": 0, "velocity": 0, "duration": 67}, {"note": 71, "velocity": 99, "duration": 161}, {"note": 0, "velocity": 0, "duration": 79}, {"note": 73, "velocity": 117, "duration": 476}, {"note": 71, "velocity": 127, "duration": 929}, {"note": 0, "velocity": 0, "duration": 991}, {"note": 71, "velocity": 112, "duration": 250}, {"note": 0, "velocity": 0, "duration": 230}, {"note": 71, "velocity": 117, "duration": 233}, {"note": 0, "velocity": 0, "duration": 247}, {"note": 71, "velocity": 122, "duration": 272}, {"note": 0, "velocity": 0, "duration": 208}, {"note": 71, "velocity": 127, "duration": 146}, {"note": 0, "velocity": 0, "duration": 94}, {"note": 73, "velocity": 127, "duration": 132}, {"note": 0, "velocity": 0, "duration": 108}, {"note": 71, "velocity": 117, "duration": 225}, {"note": 0, "velocity": 0, "duration": 255}, {"note": 71, "velocity": 112, "duration": 225}, {"note": 69, "velocity": 100, "duration": 138}, {"note": 0, "velocity": 0, "duration": 102}, {"note": 66, "velocity": 102, "duration": 524}, {"note": 0, "velocity": 0, "duration": 436}, {"note": 62, "velocity": 99, "duration": 99}, {"note": 0, "velocity": 0, "duration": 141}, {"note": 62, "velocity": 97, "duration": 97}, {"note": 0, "velocity": 0, "duration": 143}, {"note": 62, "velocity": 96, "duration": 98}, {"note": 0, "velocity": 0, "duration": 142}, {"note": 59, "velocity": 89, "duration": 157}, {"note": 0, "velocity": 0, "duration": 83}, {"note": 71, "velocity": 100, "duration": 319}, {"note": 0, "velocity": 0, "duration": 161}, {"note": 69, "velocity": 127, "duration": 277}, {"note": 67, "velocity": 90, "duration": 199}, {"note": 66, "velocity": 89, "duration": 1046}, {"note": 0, "velocity": 0, "duration": 874}, {"note": 66, "velocity": 107, "duration": 358}, {"note": 0, "velocity": 0, "duration": 122}, {"note": 71, "velocity": 100, "duration": 789}, {"note": 0, "velocity": 0, "duration": 171}, {"note": 73, "velocity": 107, "duration": 443}, {"note": 71, "velocity": 95, "duration": 359}, {"note": 0, "velocity": 0, "duration": 121}, {"note": 71, "velocity": 107, "duration": 216}, {"note": 69, "velocity": 89, "duration": 238}, {"note": 71, "velocity": 95, "duration": 320}, {"note": 0, "velocity": 0, "duration": 640}, {"note": 66, "velocity": 117, "duration": 358}, {"note": 0, "velocity": 0, "duration": 122}, {"note": 71, "velocity": 107, "duration": 381}, {"note": 0, "velocity": 0, "duration": 99}, {"note": 71, "velocity": 107, "duration": 295}, {"note": 0, "velocity": 0, "duration": 185}, {"note": 66, "velocity": 122, "duration": 245}, {"note": 64, "velocity": 83, "duration": 213}, {"note": 62, "velocity": 93, "duration": 751}, {"note": 0, "velocity": 0, "duration": 1169}, {"note": 64, "velocity": 100, "duration": 214}, {"note": 0, "velocity": 0, "duration": 266}, {"note": 64, "velocity": 97, "duration": 672}, {"note": 0, "velocity": 0, "duration": 288}, {"note": 66, "velocity": 117, "duration": 438}, {"note": 64, "velocity": 95, "duration": 343}, {"note": 0, "velocity": 0, "duration": 137}, {"note": 64, "velocity": 92, "duration": 231}, {"note": 66, "velocity": 90, "duration": 207}, {"note": 69, "velocity": 102, "duration": 416}, {"note": 0, "velocity": 0, "duration": 544}, {"note": 78, "velocity": 117, "duration": 328}, {"note": 0, "velocity": 0, "duration": 152}, {"note": 78, "velocity": 117, "duration": 300}, {"note": 0, "velocity": 0, "duration": 180}, {"note": 73, "velocity": 112, "duration": 323}, {"note": 0, "velocity": 0, "duration": 157}, {"note": 71, "velocity": 107, "duration": 243}, {"note": 69, "velocity": 86, "duration": 253}, {"note": 71, "velocity": 93, "duration": 1090}, {"note": 0, "velocity": 0, "duration": 2270}, {"note": 71, "velocity": 102, "duration": 317}, {"note": 0, "velocity": 0, "duration": 163}, {"note": 78, "velocity": 122, "duration": 296}, {"note": 0, "velocity": 0, "duration": 184}, {"note": 78, "velocity": 117, "duration": 319}, {"note": 0, "velocity": 0, "duration": 161}, {"note": 71, "velocity": 102, "duration": 287}, {"note": 0, "velocity": 0, "duration": 193}, {"note": 78, "velocity": 127, "duration": 324}, {"note": 0, "velocity": 0, "duration": 156}, {"note": 78, "velocity": 127, "duration": 207}, {"note": 76, "velocity": 95, "duration": 212}, {"note": 74, "velocity": 96, "duration": 459}, {"note": 0, "velocity": 0, "duration": 501}, {"note": 73, "velocity": 127, "duration": 80}, {"note": 0, "velocity": 0, "duration": 160}, {"note": 73, "velocity": 107, "duration": 79}, {"note": 0, "velocity": 0, "duration": 161}, {"note": 73, "velocity": 127, "duration": 160}, {"note": 0, "velocity": 0, "duration": 80}, {"note": 71, "velocity": 107, "duration": 136}, {"note": 0, "velocity": 0, "duration": 104}, {"note": 69, "velocity": 107, "duration": 173}, {"note": 0, "velocity": 0, "duration": 67}, {"note": 71, "velocity": 99, "duration": 161}, {"note": 0, "velocity": 0, "duration": 79}, {"note": 73, "velocity": 117, "duration": 476}, {"note": 71, "velocity": 127, "duration": 929}, {"note": 0, "velocity": 0, "duration": 991}, {"note": 71, "velocity": 112, "duration": 250}, {"note": 0, "velocity": 0, "duration": 230}, {"note": 71, "velocity": 117, "duration": 233}, {"note": 0, "velocity": 0, "duration": 247}, {"note": 71, "velocity": 122, "duration": 272}, {"note": 0, "velocity": 0, "duration": 208}, {"note": 71, "velocity": 127, "duration": 146}, {"note": 0, "velocity": 0, "duration": 94}, {"note": 73, "velocity": 127, "duration": 132}, {"note": 0, "velocity": 0, "duration": 108}, {"note": 71, "velocity": 117, "duration": 225}, {"note": 0, "velocity": 0, "duration": 255}, {"note": 71, "velocity": 112, "duration": 225}, {"note": 69, "velocity": 100, "duration": 138}, {"note": 0, "velocity": 0, "duration": 102}, {"note": 66, "velocity": 102, "duration": 524}, {"note": 0, "velocity": 0, "duration": 436}, {"note": 62, "velocity": 99, "duration": 99}, {"note": 0, "velocity": 0, "duration": 141}, {"note": 62, "velocity": 97, "duration": 97}, {"note": 0, "velocity": 0, "duration": 143}, {"note": 62, "velocity": 96, "duration": 98}, {"note": 0, "velocity": 0, "duration": 142}, {"note": 59, "velocity": 89, "duration": 157}, {"note": 0, "velocity": 0, "duration": 83}, {"note": 71, "velocity": 100, "duration": 319}, {"note": 0, "velocity": 0, "duration": 161}, {"note": 69, "velocity": 127, "duration": 277}, {"note": 67, "velocity": 90, "duration": 199}, {"note": 66, "velocity": 89, "duration": 1046}, {"note": 0, "velocity": 0, "duration": 874}, {"note": 66, "velocity": 107, "duration": 358}, {"note": 0, "velocity": 0, "duration": 122}, {"note": 71, "velocity": 100, "duration": 789}, {"note": 0, "velocity": 0, "duration": 171}, {"note": 73, "velocity": 107, "duration": 443}, {"note": 71, "velocity": 95, "duration": 359}, {"note": 0, "velocity": 0, "duration": 121}, {"note": 71, "velocity": 107, "duration": 216}, {"note": 69, "velocity": 89, "duration": 238}, {"note": 71, "velocity": 95, "duration": 320}, {"note": 0, "velocity": 0, "duration": 640}, {"note": 66, "velocity": 117, "duration": 358}, {"note": 0, "velocity": 0, "duration": 122}, {"note": 71, "velocity": 107, "duration": 381}, {"note": 0, "velocity": 0, "duration": 99}, {"note": 71, "velocity": 107, "duration": 295}, {"note": 0, "velocity": 0, "duration": 185}, {"note": 66, "velocity": 122, "duration": 245}, {"note": 64, "velocity": 83, "duration": 213}, {"note": 62, "velocity": 93, "duration": 751}, {"note": 0, "velocity": 0, "duration": 1169}, {"note": 64, "velocity": 100, "duration": 214}, {"note": 0, "velocity": 0, "duration": 266}, {"note": 64, "velocity": 97, "duration": 672}, {"note": 0, "velocity": 0, "duration": 288}, {"note": 66, "velocity": 117, "duration": 438}, {"note": 64, "velocity": 95, "duration": 343}, {"note": 0, "velocity": 0, "duration": 137}, {"note": 64, "velocity": 92, "duration": 231}, {"note": 66, "velocity": 90, "duration": 207}, {"note": 69, "velocity": 102, "duration": 416}, {"note": 0, "velocity": 0, "duration": 544}, {"note": 78, "velocity": 117, "duration": 328}, {"note": 0, "velocity": 0, "duration": 152}, {"note": 78, "velocity": 117, "duration": 300}, {"note": 0, "velocity": 0, "duration": 180}, {"note": 73, "velocity": 112, "duration": 323}, {"note": 0, "velocity": 0, "duration": 157}, {"note": 71, "velocity": 107, "duration": 243}, {"note": 69, "velocity": 86, "duration": 253}, {"note": 71, "velocity": 93, "duration": 1090}, {"note": 0, "velocity": 0, "duration": 2270}, {"note": 71, "velocity": 102, "duration": 317}, {"note": 0, "velocity": 0, "duration": 163}, {"note": 78, "velocity": 122, "duration": 296}, {"note": 0, "velocity": 0, "duration": 184}, {"note": 78, "velocity": 117, "duration": 319}, {"note": 0, "velocity": 0, "duration": 161}, {"note": 71, "velocity": 102, "duration": 287}, {"note": 0, "velocity": 0, "duration": 193}, {"note": 78, "velocity": 127, "duration": 324}, {"note": 0, "velocity": 0, "duration": 156}, {"note": 78, "velocity": 127, "duration": 207}, {"note": 76, "velocity": 95, "duration": 212}, {"note": 74, "velocity": 96, "duration": 459}, {"note": 0, "velocity": 0, "duration": 501}, {"note": 73, "velocity": 127, "duration": 80}, {"note": 0, "velocity": 0, "duration": 160}, {"note": 73, "velocity": 107, "duration": 79}, {"note": 0, "velocity": 0, "duration": 161}, {"note": 73, "velocity": 127, "duration": 160}, {"note": 0, "velocity": 0, "duration": 80}, {"note": 71, "velocity": 107, "duration": 136}, {"note": 0, "velocity": 0, "duration": 104}, {"note": 69, "velocity": 107, "duration": 173}, {"note": 0, "velocity": 0, "duration": 67}, {"note": 71, "velocity": 99, "duration": 161}, {"note": 0, "velocity": 0, "duration": 79}, {"note": 73, "velocity": 117, "duration": 476}, {"note": 71, "velocity": 127, "duration": 929}, {"note": 0, "velocity": 0, "duration": 991}, {"note": 71, "velocity": 112, "duration": 250}, {"note": 0, "velocity": 0, "duration": 230}, {"note": 71, "velocity": 117, "duration": 233}, {"note": 0, "velocity": 0, "duration": 247}, {"note": 71, "velocity": 122, "duration": 272}, {"note": 0, "velocity": 0, "duration": 208}, {"note": 71, "velocity": 127, "duration": 146}, {"note": 0, "velocity": 0, "duration": 94}, {"note": 73, "velocity": 127, "duration": 132}, {"note": 0, "velocity": 0, "duration": 108}, {"note": 71, "velocity": 117, "duration": 225}, {"note": 0, "velocity": 0, "duration": 255}, {"note": 71, "velocity": 112, "duration": 225}, {"note": 69, "velocity": 100, "duration": 138}, {"note": 0, "velocity": 0, "duration": 102}, {"note": 66, "velocity": 102, "duration": 524}, {"note": 0, "velocity": 0, "duration": 436}, {"note": 62, "velocity": 99, "duration": 99}, {"note": 0, "velocity": 0, "duration": 141}, {"note": 62, "velocity": 97, "duration": 97}, {"note": 0, "velocity": 0, "duration": 143}, {"note": 62, "velocity": 96, "duration": 98}, {"note": 0, "velocity": 0, "duration": 142}, {"note": 59, "velocity": 89, "duration": 157}, {"note": 0, "velocity": 0, "duration": 83}, {"note": 71, "velocity": 100, "duration": 319}, {"note": 0, "velocity": 0, "duration": 161}, {"note": 69, "velocity": 127, "duration": 277}, {"note": 67, "velocity": 90, "duration": 199}, {"note": 66, "velocity": 89, "duration": 1046}, {"note": 0, "velocity": 0, "duration": 874}, {"note": 66, "velocity": 107, "duration": 358}, {"note": 0, "velocity": 0, "duration": 122}, {"note": 71, "velocity": 100, "duration": 789}, {"note": 0, "velocity": 0, "duration": 171}, {"note": 73, "velocity": 107, "duration": 443}, {"note": 71, "velocity": 95, "duration": 359}, {"note": 0, "velocity": 0, "duration": 121}, {"note": 71, "velocity": 107, "duration": 216}, {"note": 69, "velocity": 89, "duration": 238}, {"note": 71, "velocity": 95, "duration": 320}, {"note": 0, "velocity": 0, "duration": 640}, {"note": 66, "velocity": 117, "duration": 358}, {"note": 0, "velocity": 0, "duration": 122}, {"note": 71, "velocity": 107, "duration": 381}, {"note": 0, "velocity": 0, "duration": 99}, {"note": 71, "velocity": 107, "duration": 295}, {"note": 0, "velocity": 0, "duration": 185}, {"note": 66, "velocity": 122, "duration": 245}, {"note": 64, "velocity": 83, "duration": 213}, {"note": 62, "velocity": 93, "duration": 751}, {"note": 0, "velocity": 0, "duration": 1169}, {"note": 64, "velocity": 100, "duration": 214}, {"note": 0, "velocity": 0, "duration": 266}, {"note": 64, "velocity": 97, "duration": 672}, {"note": 0, "velocity": 0, "duration": 288}, {"note": 66, "velocity": 117, "duration": 438}, {"note": 64, "velocity": 95, "duration": 343}, {"note": 0, "velocity": 0, "duration": 137}, {"note": 64, "velocity": 92, "duration": 231}, {"note": 66, "velocity": 90, "duration": 207}, {"note": 69, "velocity": 102, "duration": 416}, {"note": 0, "velocity": 0, "duration": 544}, {"note": 78, "velocity": 117, "duration": 328}, {"note": 0, "velocity": 0, "duration": 152}, {"note": 78, "velocity": 117, "duration": 300}, {"note": 0, "velocity": 0, "duration": 180}, {"note": 73, "velocity": 112, "duration": 323}, {"note": 0, "velocity": 0, "duration": 157}, {"note": 71, "velocity": 107, "duration": 243}, {"note": 69, "velocity": 86, "duration": 253}, {"note": 71, "velocity": 93, "duration": 1090}]]