[[{"note": 60, "velocity": 75, "duration": 103}, {"note": 65, "velocity": 81, "duration": 393}, {"note": 65, "velocity": 79, "duration": 33}, {"note": 0, "velocity": 0, "duration": 87}, {"note": 65, "velocity": 93, "duration": 80}, {"note": 64, "velocity": 73, "duration": 92}, {"note": 62, "velocity": 63, "duration": 107}, {"note": 60, "velocity": 76, "duration": 81}, {"note": 57, "velocity": 82, "duration": 238}, {"note": 0, "velocity": 0, "duration": 122}, {"note": 65, "velocity": 70, "duration": 61}, {"note": 65, "velocity": 79, "duration": 84}, {"note": 67, "velocity": 85, "duration": 59}, {"note": 0, "velocity": 0, "duration": 61}, {"note": 64, "velocity": 77, "duration": 99}, {"note": 65, "velocity": 69, "duration": 64}, {"note": 65, "velocity": 86, "duration": 225}, {"note": 0, "velocity": 0, "duration": 135}, {"note": 65, "velocity": 72, "duration": 84}, {"note": 65, "velocity": 72, "duration": 72}, {"note": 67, "velocity": 69, "duration": 66}, {"note": 69, "velocity": 89, "duration": 55}, {"note": 0, "velocity": 0, "duration": 65}, {"note": 65, "velocity": 86, "duration": 75}, {"note": 69, "velocity": 89, "duration": 219}, {"note": 0, "velocity": 0, "duration": 141}, {"note": 67, "velocity": 69, "duration": 41}, {"note": 0, "velocity": 0, "duration": 79}, {"note": 67, "velocity": 79, "duration": 286}, {"note": 0, "velocity": 0, "duration": 74}, {"note": 60, "velocity": 59, "duration": 112}, {"note": 65, "velocity": 73, "duration": 283}, {"note": 0, "velocity": 0, "duration": 77}, {"note": 65, "velocity": 72, "duration": 43}, {"note": 0, "velocity": 0, "duration": 77}, {"note": 65, "velocity": 89, "duration": 135}, {"note": 64, "velocity": 63, "duration": 46}, {"note": 0, "velocity": 0, "duration": 74}, {"note": 64, "velocity": 77, "duration": 127}, {"note": 60, "velocity": 65, "duration": 114}, {"note": 57, "velocity": 95, "duration": 201}, {"note": 0, "velocity": 0, "duration": 159}, {"note": 65, "velocity": 74, "duration": 63}, {"note": 65, "velocity": 73, "duration": 52}, {"note": 0, "velocity": 0, "duration": 68}, {"note": 67, "velocity": 83, "duration": 37}, {"note": 0, "velocity": 0, "duration": 83}, {"note": 64, "velocity": 77, "duration": 55}, {"note": 0, "velocity": 0, "duration": 65}, {"note": 65, "velocity": 74, "duration": 39}, {"note": 0, "velocity": 0, "duration": 81}, {"note": 65, "velocity": 82, "duration": 250}, {"note": 0, "velocity": 0, "duration": 110}, {"note": 65, "velocity": 73, "duration": 48}, {"note": 0, "velocity": 0, "duration": 72}, {"note": 65, "velocity": 81, "duration": 60}, {"note": 67, "velocity": 77, "duration": 58}, {"note": 0, "velocity": 0, "duration": 62}, {"note": 69, "velocity": 86, "duration": 55}, {"note": 0, "velocity": 0, "duration": 65}, {"note": 65, "velocity": 82, "duration": 54}, {"note": 0, "velocity": 0, "duration": 66}, {"note": 69, "velocity": 95, "duration": 294}, {"note": 0, "velocity": 0, "duration": 66}, {"note": 67, "velocity": 83, "duration": 120}, {"note": 67, "velocity": 90, "duration": 281}, {"note": 0, "velocity": 0, "duration": 79}, {"note": 60, "velocity": 59, "duration": 64}, {"note": 62, "velocity": 89, "duration": 64}, {"note": 69, "velocity": 97, "duration": 166}, {"note": 0, "velocity": 0, "duration": 74}, {"note": 67, "velocity": 93, "duration": 165}, {"note": 0, "velocity": 0, "duration": 75}, {"note": 69, "velocity": 95, "duration": 56}, {"note": 0, "velocity": 0, "duration": 64}, {"note": 60, "velocity": 88, "duration": 75}, {"note": 62, "velocity": 59, "duration": 96}, {"note": 67, "velocity": 88, "duration": 114}, {"note": 65, "velocity": 95, "duration": 241}, {"note": 65, "velocity": 95, "duration": 1}, {"note": 0, "velocity": 0, "duration": 359}, {"note": 62, "velocity": 97, "duration": 44}, {"note": 0, "velocity": 0, "duration": 76}, {"note": 60, "velocity": 89, "duration": 48}, {"note": 0, "velocity": 0, "duration": 72}, {"note": 62, "velocity": 112, "duration": 37}, {"note": 0, "velocity": 0, "duration": 83}, {"note": 60, "velocity": 86, "duration": 61}, {"note": 62, "velocity": 97, "duration": 42}, {"note": 0, "velocity": 0, "duration": 78}, {"note": 69, "velocity": 92, "duration": 49}, {"note": 0, "velocity": 0, "duration": 71}, {"note": 62, "velocity": 99, "duration": 52}, {"note": 0, "velocity": 0, "duration": 68}, {"note": 60, "velocity": 93, "duration": 65}, {"note": 62, "velocity": 102, "duration": 53}, {"note": 0, "velocity": 0, "duration": 67}, {"note": 69, "velocity": 100, "duration": 71}, {"note": 67, "velocity": 102, "duration": 262}, {"note": 60, "velocity": 86, "duration": 53}, {"note": 0, "velocity": 0, "duration": 67}, {"note": 60, "velocity": 79, "duration": 51}, {"note": 0, "velocity": 0, "duration": 69}, {"note": 60, "velocity": 96, "duration": 71}, {"note": 62, "velocity": 93, "duration": 71}, {"note": 65, "velocity": 99, "duration": 78}, {"note": 62, "velocity": 93, "duration": 71}, {"note": 67, "velocity": 95, "duration": 60}, {"note": 69, "velocity": 99, "duration": 543}, {"note": 0, "velocity": 0, "duration": 657}, {"note": 60, "velocity": 86, "duration": 73}, {"note": 60, "velocity": 102, "duration": 106}, {"note": 62, "velocity": 92, "duration": 79}, {"note": 65, "velocity": 96, "duration": 104}, {"note": 62, "velocity": 96, "duration": 91}, {"note": 72, "velocity": 96, "duration": 186}, {"note": 72, "velocity": 99, "duration": 76}, {"note": 72, "velocity": 100, "duration": 303}, {"note": 65, "velocity": 90, "duration": 135}, {"note": 62, "velocity": 92, "duration": 314}, {"note": 0, "velocity": 0, "duration": 166}, {"note": 60, "velocity": 90, "duration": 65}, {"note": 60, "velocity": 92, "duration": 123}, {"note": 62, "velocity": 93, "duration": 96}, {"note": 65, "velocity": 96, "duration": 102}, {"note": 62, "velocity": 90, "duration": 102}, {"note": 67, "velocity": 96, "duration": 219}, {"note": 69, "velocity": 89, "duration": 126}, {"note": 67, "velocity": 95, "duration": 181}, {"note": 0, "velocity": 0, "duration": 179}, {"note": 65, "velocity": 100, "duration": 120}, {"note": 62, "velocity": 90, "duration": 105}, {"note": 67, "velocity": 93, "duration": 122}, {"note": 69, "velocity": 107, "duration": 129}, {"note": 67, "velocity": 96, "duration": 223}, {"note": 0, "velocity": 0, "duration": 377}, {"note": 62, "velocity": 97, "duration": 120}, {"note": 67, "velocity": 112, "duration": 234}, {"note": 69, "velocity": 102, "duration": 101}, {"note": 72, "velocity": 102, "duration": 310}, {"note": 65, "velocity": 95, "duration": 140}, {"note": 67, "velocity": 112, "duration": 361}, {"note": 60, "velocity": 100, "duration": 84}, {"note": 60, "velocity": 92, "duration": 72}, {"note": 60, "velocity": 122, "duration": 101}, {"note": 62, "velocity": 117, "duration": 82}, {"note": 65, "velocity": 112, "duration": 92}, {"note": 62, "velocity": 97, "duration": 87}, {"note": 67, "velocity": 122, "duration": 123}, {"note": 69, "velocity": 102, "duration": 501}, {"note": 0, "velocity": 0, "duration": 699}, {"note": 60, "velocity": 95, "duration": 53}, {"note": 0, "velocity": 0, "duration": 67}, {"note": 60, "velocity": 97, "duration": 109}, {"note": 62, "velocity": 100, "duration": 72}, {"note": 65, "velocity": 100, "duration": 75}, {"note": 69, "velocity": 112, "duration": 87}, {"note": 72, "velocity": 112, "duration": 183}, {"note": 72, "velocity": 107, "duration": 79}, {"note": 72, "velocity": 122, "duration": 185}, {"note": 65, "velocity": 112, "duration": 142}, {"note": 0, "velocity": 0, "duration": 98}, {"note": 69, "velocity": 102, "duration": 171}, {"note": 0, "velocity": 0, "duration": 69}, {"note": 67, "velocity": 100, "duration": 184}, {"note": 60, "velocity": 96, "duration": 80}, {"note": 60, "velocity": 93, "duration": 107}, {"note": 62, "velocity": 96, "duration": 100}, {"note": 65, "velocity": 102, "duration": 65}, {"note": 72, "velocity": 117, "duration": 123}, {"note": 67, "velocity": 107, "duration": 120}, {"note": 65, "velocity": 112, "duration": 108}, {"note": 67, "velocity": 99, "duration": 140}, {"note": 0, "velocity": 0, "duration": 340}, {"note": 65, "velocity": 96, "duration": 63}, {"note": 72, "velocity": 97, "duration": 54}, {"note": 0, "velocity": 0, "duration": 66}, {"note": 67, "velocity": 97, "duration": 81}, {"note": 65, "velocity": 93, "duration": 141}, {"note": 67, "velocity": 97, "duration": 189}, {"note": 0, "velocity": 0, "duration": 291}, {"note": 65, "velocity": 97, "duration": 115}, {"note": 62, "velocity": 89, "duration": 116}, {"note": 67, "velocity": 95, "duration": 218}, {"note": 69, "velocity": 95, "duration": 86}, {"note": 72, "velocity": 95, "duration": 201}, {"note": 74, "velocity": 99, "duration": 120}, {"note": 72, "velocity": 93, "duration": 50}, {"note": 0, "velocity": 0, "duration": 70}, {"note": 72, "velocity": 102, "duration": 233}, {"note": 0, "velocity": 0, "duration": 247}, {"note": 60, "velocity": 83, "duration": 89}, {"note": 72, "velocity": 112, "duration": 138}, {"note": 69, "velocity": 112, "duration": 130}, {"note": 0, "velocity": 0, "duration": 110}, {"note": 67, "velocity": 107, "duration": 91}, {"note": 69, "velocity": 93, "duration": 197}, {"note": 65, "velocity": 92, "duration": 765}, {"note": 0, "velocity": 0, "duration": 2835}, {"note": 65, "velocity": 73, "duration": 283}, {"note": 0, "velocity": 0, "duration": 77}, {"note": 65, "velocity": 72, "duration": 43}, {"note": 0, "velocity": 0, "duration": 77}, {"note": 65, "velocity": 89, "duration": 135}, {"note": 64, "velocity": 63, "duration": 46}, {"note": 0, "velocity": 0, "duration": 74}, {"note": 64, "velocity": 77, "duration": 127}, {"note": 60, "velocity": 65, "duration": 114}, {"note": 57, "velocity": 95, "duration": 201}, {"note": 0, "velocity": 0, "duration": 159}, {"note": 65, "velocity": 74, "duration": 63}, {"note": 65, "velocity": 73, "duration": 52}, {"note": 0, "velocity": 0, "duration": 68}, {"note": 67, "velocity": 83, "duration": 37}, {"note": 0, "velocity": 0, "duration": 83}, {"note": 64, "velocity": 77, "duration": 55}, {"note": 0, "velocity": 0, "duration": 65}, {"note": 65, "velocity": 74, "duration": 39}, {"note": 0, "velocity": 0, "duration": 81}, {"note": 65, "velocity": 82, "duration": 250}, {"note": 0, "velocity": 0, "duration": 110}, {"note": 65, "velocity": 73, "duration": 48}, {"note": 0, "velocity": 0, "duration": 72}, {"note": 65, "velocity": 81, "duration": 60}, {"note": 67, "velocity": 77, "duration": 58}, {"note": 0, "velocity": 0, "duration": 62}, {"note": 69, "velocity": 86, "duration": 55}, {"note": 0, "velocity": 0, "duration": 65}, {"note": 65, "velocity": 82, "duration": 54}, {"note": 0, "velocity": 0, "duration": 66}, {"note": 69, "velocity": 95, "duration": 294}, {"note": 0, "velocity": 0, "duration": 66}, {"note": 67, "velocity": 83, "duration": 120}, {"note": 67, "velocity": 90, "duration": 281}, {"note": 0, "velocity": 0, "duration": 79}, {"note": 60, "velocity": 59, "duration": 64}, {"note": 62, "velocity": 89, "duration": 64}, {"note": 69, "velocity": 97, "duration": 166}, {"note": 0, "velocity": 0, "duration": 74}, {"note": 67, "velocity": 93, "duration": 165}, {"note": 0, "velocity": 0, "duration": 75}, {"note": 69, "velocity": 95, "duration": 56}, {"note": 0, "velocity": 0, "duration": 64}, {"note": 60, "velocity": 88, "duration": 75}, {"note": 62, "velocity": 59, "duration": 96}, {"note": 67, "velocity": 88, "duration": 114}, {"note": 65, "velocity": 95, "duration": 241}, {"note": 65, "velocity": 95, "duration": 1}, {"note": 0, "velocity": 0, "duration": 359}, {"note": 62, "velocity": 97, "duration": 44}, {"note": 0, "velocity": 0, "duration": 76}, {"note": 60, "velocity": 89, "duration": 48}, {"note": 0, "velocity": 0, "duration": 72}, {"note": 62, "velocity": 112, "duration": 37}, {"note": 0, "velocity": 0, "duration": 83}, {"note": 60, "velocity": 86, "duration": 61}, {"note": 62, "velocity": 97, "duration": 42}, {"note": 0, "velocity": 0, "duration": 78}, {"note": 69, "velocity": 92, "duration": 49}, {"note": 0, "velocity": 0, "duration": 71}, {"note": 62, "velocity": 99, "duration": 52}, {"note": 0, "velocity": 0, "duration": 68}, {"note": 60, "velocity": 93, "duration": 65}, {"note": 62, "velocity": 102, "duration": 53}, {"note": 0, "velocity": 0, "duration": 67}, {"note": 69, "velocity": 100, "duration": 71}, {"note": 67, "velocity": 102, "duration": 262}, {"note": 60, "velocity": 86, "duration": 53}, {"note": 0, "velocity": 0, "duration": 67}, {"note": 60, "velocity": 79, "duration": 51}, {"note": 0, "velocity": 0, "duration": 69}, {"note": 60, "velocity": 96, "duration": 71}, {"note": 62, "velocity": 93, "duration": 71}, {"note": 65, "velocity": 99, "duration": 78}, {"note": 62, "velocity": 93, "duration": 71}, {"note": 67, "velocity": 95, "duration": 60}, {"note": 69, "velocity": 99, "duration": 543}, {"note": 0, "velocity": 0, "duration": 657}, {"note": 60, "velocity": 86, "duration": 73}, {"note": 60, "velocity": 102, "duration": 106}, {"note": 62, "velocity": 92, "duration": 79}, {"note": 65, "velocity": 96, "duration": 104}, {"note": 62, "velocity": 96, "duration": 91}, {"note": 72, "velocity": 96, "duration": 186}, {"note": 72, "velocity": 99, "duration": 76}, {"note": 72, "velocity": 100, "duration": 303}, {"note": 65, "velocity": 90, "duration": 135}, {"note": 62, "velocity": 92, "duration": 314}, {"note": 0, "velocity": 0, "duration": 166}, {"note": 60, "velocity": 90, "duration": 65}, {"note": 60, "velocity": 92, "duration": 123}, {"note": 62, "velocity": 93, "duration": 96}, {"note": 65, "velocity": 96, "duration": 102}, {"note": 62, "velocity": 90, "duration": 102}, {"note": 67, "velocity": 96, "duration": 219}, {"note": 69, "velocity": 89, "duration": 126}, {"note": 67, "velocity": 95, "duration": 181}, {"note": 0, "velocity": 0, "duration": 179}, {"note": 65, "velocity": 100, "duration": 120}, {"note": 62, "velocity": 90, "duration": 105}, {"note": 67, "velocity": 93, "duration": 122}, {"note": 69, "velocity": 107, "duration": 129}, {"note": 67, "velocity": 96, "duration": 223}, {"note": 0, "velocity": 0, "duration": 377}, {"note": 62, "velocity": 97, "duration": 120}, {"note": 67, "velocity": 112, "duration": 234}, {"note": 69, "velocity": 102, "duration": 101}, {"note": 72, "velocity": 102, "duration": 310}, {"note": 65, "velocity": 95, "duration": 140}, {"note": 67, "velocity": 112, "duration": 361}, {"note": 60, "velocity": 100, "duration": 84}, {"note": 60, "velocity": 92, "duration": 72}, {"note": 60, "velocity": 122, "duration": 101}, {"note": 62, "velocity": 117, "duration": 82}, {"note": 65, "velocity": 112, "duration": 92}, {"note": 62, "velocity": 97, "duration": 87}, {"note": 67, "velocity": 122, "duration": 123}, {"note": 69, "velocity": 102, "duration": 501}, {"note": 0, "velocity": 0, "duration": 699}, {"note": 60, "velocity": 95, "duration": 53}, {"note": 0, "velocity": 0, "duration": 67}, {"note": 60, "velocity": 97, "duration": 109}, {"note": 62, "velocity": 100, "duration": 72}, {"note": 65, "velocity": 100, "duration": 75}, {"note": 69, "velocity": 112, "duration": 87}, {"note": 72, "velocity": 112, "duration": 183}, {"note": 72, "velocity": 107, "duration": 79}, {"note": 72, "velocity": 122, "duration": 185}, {"note": 65, "velocity": 112, "duration": 142}, {"note": 0, "velocity": 0, "duration": 98}, {"note": 69, "velocity": 102, "duration": 171}, {"note": 0, "velocity": 0, "duration": 181}, {"note": 67, "velocity": 100, "duration": 184}, {"note": 60, "velocity": 96, "duration": 80}, {"note": 60, "velocity": 93, "duration": 107}, {"note": 62, "velocity": 96, "duration": 100}, {"note": 65, "velocity": 102, "duration": 65}, {"note": 72, "velocity": 117, "duration": 123}, {"note": 67, "velocity": 107, "duration": 120}, {"note": 65, "velocity": 112, "duration": 108}, {"note": 67, "velocity": 99, "duration": 140}, {"note": 0, "velocity": 0, "duration": 340}, {"note": 65, "velocity": 96, "duration": 63}, {"note": 72, "velocity": 97, "duration": 54}, {"note": 0, "velocity": 0, "duration": 66}, {"note": 67, "velocity": 97, "duration": 81}, {"note": 65, "velocity": 93, "duration": 141}, {"note": 67, "velocity": 97, "duration": 189}, {"note": 0, "velocity": 0, "duration": 291}, {"note": 65, "velocity": 97, "duration": 115}, {"note": 62, "velocity": 89, "duration": 116}, {"note": 67, "velocity": 95, "duration": 218}, {"note": 69, "velocity": 95, "duration": 86}, {"note": 72, "velocity": 95, "duration": 201}, {"note": 74, "velocity": 99, "duration": 120}, {"note": 72, "velocity": 93, "duration": 50}, {"note": 0, "velocity": 0, "duration": 70}, {"note": 72, "velocity": 102, "duration": 233}, {"note": 0, "velocity": 0, "duration": 247}, {"note": 60, "velocity": 83, "duration": 89}, {"note": 72, "velocity": 112, "duration": 138}, {"note": 69, "velocity": 112, "duration": 130}, {"note": 0, "velocity": 0, "duration": 110}, {"note": 67, "velocity": 107, "duration": 91}, {"note": 69, "velocity": 93, "duration": 197}, {"note": 65, "velocity": 92, "duration": 487}, {"note": 0, "velocity": 0, "duration": 4313}, {"note": 61, "velocity": 86, "duration": 53}, {"note": 0, "velocity": 0, "duration": 67}, {"note": 61, "velocity": 79, "duration": 51}, {"note": 0, "velocity": 0, "duration": 69}, {"note": 61, "velocity": 96, "duration": 71}, {"note": 63, "velocity": 93, "duration": 71}, {"note": 66, "velocity": 99, "duration": 78}, {"note": 63, "velocity": 93, "duration": 71}, {"note": 68, "velocity": 95, "duration": 60}, {"note": 70, "velocity": 99, "duration": 543}, {"note": 0, "velocity": 0, "duration": 657}, {"note": 61, "velocity": 86, "duration": 73}, {"note": 61, "velocity": 102, "duration": 106}, {"note": 63, "velocity": 92, "duration": 79}, {"note": 66, "velocity": 96, "duration": 104}, {"note": 63, "velocity": 96, "duration": 91}, {"note": 73, "velocity": 96, "duration": 186}, {"note": 73, "velocity": 99, "duration": 76}, {"note": 73, "velocity": 100, "duration": 303}, {"note": 66, "velocity": 90, "duration": 135}, {"note": 63, "velocity": 92, "duration": 314}, {"note": 0, "velocity": 0, "duration": 166}, {"note": 61, "velocity": 90, "duration": 65}, {"note": 61, "velocity": 92, "duration": 123}, {"note": 63, "velocity": 93, "duration": 96}, {"note": 66, "velocity": 96, "duration": 102}, {"note": 63, "velocity": 90, "duration": 102}, {"note": 68, "velocity": 96, "duration": 219}, {"note": 70, "velocity": 89, "duration": 126}, {"note": 68, "velocity": 95, "duration": 181}, {"note": 0, "velocity": 0, "duration": 179}, {"note": 66, "velocity": 100, "duration": 120}, {"note": 63, "velocity": 90, "duration": 105}, {"note": 68, "velocity": 93, "duration": 122}, {"note": 70, "velocity": 107, "duration": 129}, {"note": 68, "velocity": 96, "duration": 223}, {"note": 0, "velocity": 0, "duration": 377}, {"note": 63, "velocity": 97, "duration": 120}, {"note": 68, "velocity": 112, "duration": 234}, {"note": 70, "velocity": 102, "duration": 101}, {"note": 73, "velocity": 102, "duration": 310}, {"note": 66, "velocity": 95, "duration": 140}, {"note": 68, "velocity": 112, "duration": 361}, {"note": 61, "velocity": 100, "duration": 84}, {"note": 61, "velocity": 92, "duration": 72}, {"note": 61, "velocity": 122, "duration": 101}, {"note": 63, "velocity": 117, "duration": 82}, {"note": 66, "velocity": 112, "duration": 92}, {"note": 63, "velocity": 97, "duration": 87}, {"note": 68, "velocity": 122, "duration": 123}, {"note": 70, "velocity": 102, "duration": 501}, {"note": 0, "velocity": 0, "duration": 699}, {"note": 61, "velocity": 95, "duration": 53}, {"note": 0, "velocity": 0, "duration": 67}, {"note": 61, "velocity": 97, "duration": 109}, {"note": 63, "velocity": 100, "duration": 72}, {"note": 66, "velocity": 100, "duration": 75}, {"note": 70, "velocity": 112, "duration": 87}, {"note": 73, "velocity": 112, "duration": 183}, {"note": 73, "velocity": 107, "duration": 79}, {"note": 73, "velocity": 122, "duration": 185}, {"note": 66, "velocity": 112, "duration": 142}, {"note": 0, "velocity": 0, "duration": 98}, {"note": 70, "velocity": 102, "duration": 171}, {"note": 0, "velocity": 0, "duration": 181}, {"note": 68, "velocity": 100, "duration": 184}, {"note": 61, "velocity": 96, "duration": 80}, {"note": 61, "velocity": 93, "duration": 107}, {"note": 63, "velocity": 96, "duration": 100}, {"note": 66, "velocity": 102, "duration": 65}, {"note": 73, "velocity": 117, "duration": 123}, {"note": 68, "velocity": 107, "duration": 120}, {"note": 66, "velocity": 112, "duration": 108}, {"note": 68, "velocity": 99, "duration": 140}, {"note": 0, "velocity": 0, "duration": 340}, {"note": 66, "velocity": 96, "duration": 63}, {"note": 73, "velocity": 97, "duration": 54}, {"note": 0, "velocity": 0, "duration": 66}, {"note": 68, "velocity": 97, "duration": 81}, {"note": 66, "velocity": 93, "duration": 141}, {"note": 68, "velocity": 97, "duration": 189}, {"note": 0, "velocity": 0, "duration": 291}, {"note": 66, "velocity": 97, "duration": 115}, {"note": 63, "velocity": 89, "duration": 116}, {"note": 68, "velocity": 95, "duration": 218}, {"note": 70, "velocity": 95, "duration": 86}, {"note": 73, "velocity": 95, "duration": 201}, {"note": 75, "velocity": 99, "duration": 120}, {"note": 73, "velocity": 93, "duration": 50}, {"note": 0, "velocity": 0, "duration": 70}, {"note": 73, "velocity": 102, "duration": 233}, {"note": 0, "velocity": 0, "duration": 247}, {"note": 61, "velocity": 83, "duration": 89}, {"note": 73, "velocity": 112, "duration": 138}, {"note": 70, "velocity": 112, "duration": 130}, {"note": 0, "velocity": 0, "duration": 110}, {"note": 68, "velocity": 107, "duration": 91}, {"note": 70, "velocity": 93, "duration": 197}, {"note": 66, "velocity": 92, "duration": 487}]]