[[{"note": 59, "velocity": 93, "duration": 228}, {"note": 61, "velocity": 99, "duration": 215}, {"note": 68, "velocity": 95, "duration": 177}, {"note": 0, "velocity": 0, "duration": 63}, {"note": 68, "velocity": 112, "duration": 161}, {"note": 0, "velocity": 0, "duration": 79}, {"note": 68, "velocity": 100, "duration": 166}, {"note": 0, "velocity": 0, "duration": 74}, {"note": 68, "velocity": 112, "duration": 245}, {"note": 66, "velocity": 97, "duration": 68}, {"note": 66, "velocity": 102, "duration": 310}, {"note": 0, "velocity": 0, "duration": 170}, {"note": 64, "velocity": 73, "duration": 75}, {"note": 66, "velocity": 96, "duration": 143}, {"note": 0, "velocity": 0, "duration": 97}, {"note": 64, "velocity": 88, "duration": 143}, {"note": 0, "velocity": 0, "duration": 97}, {"note": 66, "velocity": 97, "duration": 166}, {"note": 0, "velocity": 0, "duration": 74}, {"note": 68, "velocity": 100, "duration": 214}, {"note": 61, "velocity": 81, "duration": 303}, {"note": 0, "velocity": 0, "duration": 537}, {"note": 59, "velocity": 73, "duration": 96}, {"note": 61, "velocity": 89, "duration": 196}, {"note": 68, "velocity": 92, "duration": 159}, {"note": 0, "velocity": 0, "duration": 81}, {"note": 68, "velocity": 99, "duration": 173}, {"note": 0, "velocity": 0, "duration": 67}, {"note": 68, "velocity": 102, "duration": 82}, {"note": 0, "velocity": 0, "duration": 158}, {"note": 68, "velocity": 102, "duration": 244}, {"note": 66, "velocity": 53, "duration": 63}, {"note": 66, "velocity": 100, "duration": 324}, {"note": 64, "velocity": 89, "duration": 246}, {"note": 66, "velocity": 93, "duration": 270}, {"note": 68, "velocity": 96, "duration": 992}, {"note": 0, "velocity": 0, "duration": 448}, {"note": 66, "velocity": 97, "duration": 181}, {"note": 66, "velocity": 100, "duration": 193}, {"note": 73, "velocity": 93, "duration": 179}, {"note": 0, "velocity": 0, "duration": 61}, {"note": 73, "velocity": 122, "duration": 187}, {"note": 71, "velocity": 95, "duration": 220}, {"note": 68, "velocity": 81, "duration": 322}, {"note": 66, "velocity": 85, "duration": 79}, {"note": 66, "velocity": 93, "duration": 339}, {"note": 0, "velocity": 0, "duration": 141}, {"note": 61, "velocity": 88, "duration": 107}, {"note": 73, "velocity": 99, "duration": 200}, {"note": 71, "velocity": 112, "duration": 151}, {"note": 0, "velocity": 0, "duration": 89}, {"note": 68, "velocity": 99, "duration": 233}, {"note": 66, "velocity": 99, "duration": 59}, {"note": 0, "velocity": 0, "duration": 61}, {"note": 61, "velocity": 77, "duration": 287}, {"note": 0, "velocity": 0, "duration": 73}, {"note": 61, "velocity": 75, "duration": 516}, {"note": 0, "velocity": 0, "duration": 84}, {"note": 59, "velocity": 82, "duration": 136}, {"note": 61, "velocity": 90, "duration": 280}, {"note": 0, "velocity": 0, "duration": 80}, {"note": 68, "velocity": 92, "duration": 364}, {"note": 59, "velocity": 85, "duration": 177}, {"note": 0, "velocity": 0, "duration": 63}, {"note": 61, "velocity": 81, "duration": 255}, {"note": 68, "velocity": 100, "duration": 253}, {"note": 66, "velocity": 97, "duration": 396}, {"note": 0, "velocity": 0, "duration": 84}, {"note": 64, "velocity": 99, "duration": 320}, {"note": 61, "velocity": 83, "duration": 598}, {"note": 0, "velocity": 0, "duration": 242}, {"note": 61, "velocity": 107, "duration": 193}, {"note": 63, "velocity": 96, "duration": 242}, {"note": 64, "velocity": 100, "duration": 183}, {"note": 68, "velocity": 99, "duration": 95}, {"note": 61, "velocity": 90, "duration": 122}, {"note": 68, "velocity": 92, "duration": 66}, {"note": 68, "velocity": 117, "duration": 243}, {"note": 66, "velocity": 93, "duration": 115}, {"note": 68, "velocity": 95, "duration": 126}, {"note": 66, "velocity": 92, "duration": 124}, {"note": 68, "velocity": 117, "duration": 116}, {"note": 66, "velocity": 79, "duration": 144}, {"note": 68, "velocity": 93, "duration": 73}, {"note": 68, "velocity": 97, "duration": 255}, {"note": 66, "velocity": 112, "duration": 98}, {"note": 68, "velocity": 92, "duration": 120}, {"note": 66, "velocity": 95, "duration": 128}, {"note": 68, "velocity": 95, "duration": 128}, {"note": 66, "velocity": 77, "duration": 107}, {"note": 68, "velocity": 95, "duration": 66}, {"note": 68, "velocity": 100, "duration": 193}, {"note": 66, "velocity": 100, "duration": 85}, {"note": 68, "velocity": 96, "duration": 122}, {"note": 66, "velocity": 95, "duration": 120}, {"note": 68, "velocity": 107, "duration": 167}, {"note": 0, "velocity": 0, "duration": 313}, {"note": 64, "velocity": 97, "duration": 233}, {"note": 68, "velocity": 112, "duration": 164}, {"note": 0, "velocity": 0, "duration": 76}, {"note": 68, "velocity": 127, "duration": 82}, {"note": 61, "velocity": 97, "duration": 120}, {"note": 68, "velocity": 102, "duration": 62}, {"note": 68, "velocity": 127, "duration": 187}, {"note": 66, "velocity": 93, "duration": 62}, {"note": 68, "velocity": 112, "duration": 93}, {"note": 66, "velocity": 93, "duration": 82}, {"note": 68, "velocity": 112, "duration": 106}, {"note": 66, "velocity": 92, "duration": 91}, {"note": 68, "velocity": 112, "duration": 63}, {"note": 68, "velocity": 117, "duration": 170}, {"note": 0, "velocity": 0, "duration": 70}, {"note": 66, "velocity": 112, "duration": 54}, {"note": 0, "velocity": 0, "duration": 66}, {"note": 68, "velocity": 102, "duration": 62}, {"note": 66, "velocity": 107, "duration": 48}, {"note": 0, "velocity": 0, "duration": 72}, {"note": 68, "velocity": 122, "duration": 113}, {"note": 66, "velocity": 99, "duration": 53}, {"note": 0, "velocity": 0, "duration": 67}, {"note": 68, "velocity": 117, "duration": 44}, {"note": 0, "velocity": 0, "duration": 76}, {"note": 68, "velocity": 127, "duration": 140}, {"note": 0, "velocity": 0, "duration": 100}, {"note": 66, "velocity": 100, "duration": 37}, {"note": 0, "velocity": 0, "duration": 83}, {"note": 68, "velocity": 112, "duration": 129}, {"note": 66, "velocity": 99, "duration": 132}, {"note": 68, "velocity": 117, "duration": 158}, {"note": 0, "velocity": 0, "duration": 322}, {"note": 64, "velocity": 100, "duration": 217}, {"note": 66, "velocity": 107, "duration": 181}, {"note": 68, "velocity": 107, "duration": 164}, {"note": 0, "velocity": 0, "duration": 76}, {"note": 73, "velocity": 127, "duration": 153}, {"note": 0, "velocity": 0, "duration": 87}, {"note": 73, "velocity": 122, "duration": 189}, {"note": 71, "velocity": 112, "duration": 233}, {"note": 0, "velocity": 0, "duration": 247}, {"note": 68, "velocity": 122, "duration": 174}, {"note": 0, "velocity": 0, "duration": 66}, {"note": 66, "velocity": 117, "duration": 213}, {"note": 64, "velocity": 95, "duration": 174}, {"note": 0, "velocity": 0, "duration": 66}, {"note": 66, "velocity": 122, "duration": 192}, {"note": 68, "velocity": 122, "duration": 203}, {"note": 66, "velocity": 122, "duration": 157}, {"note": 0, "velocity": 0, "duration": 83}, {"note": 61, "velocity": 112, "duration": 411}, {"note": 0, "velocity": 0, "duration": 309}, {"note": 64, "velocity": 96, "duration": 210}, {"note": 66, "velocity": 97, "duration": 183}, {"note": 68, "velocity": 117, "duration": 157}, {"note": 0, "velocity": 0, "duration": 83}, {"note": 73, "velocity": 112, "duration": 155}, {"note": 0, "velocity": 0, "duration": 85}, {"note": 73, "velocity": 127, "duration": 195}, {"note": 71, "velocity": 127, "duration": 339}, {"note": 0, "velocity": 0, "duration": 141}, {"note": 68, "velocity": 112, "duration": 217}, {"note": 66, "velocity": 102, "duration": 174}, {"note": 0, "velocity": 0, "duration": 66}, {"note": 71, "velocity": 102, "duration": 302}, {"note": 0, "velocity": 0, "duration": 178}, {"note": 68, "velocity": 112, "duration": 753}, {"note": 0, "velocity": 0, "duration": 447}, {"note": 64, "velocity": 100, "duration": 219}, {"note": 66, "velocity": 112, "duration": 189}, {"note": 68, "velocity": 127, "duration": 177}, {"note": 0, "velocity": 0, "duration": 63}, {"note": 73, "velocity": 112, "duration": 174}, {"note": 0, "velocity": 0, "duration": 66}, {"note": 73, "velocity": 112, "duration": 182}, {"note": 71, "velocity": 117, "duration": 313}, {"note": 0, "velocity": 0, "duration": 167}, {"note": 68, "velocity": 122, "duration": 191}, {"note": 66, "velocity": 117, "duration": 185}, {"note": 64, "velocity": 100, "duration": 146}, {"note": 0, "velocity": 0, "duration": 94}, {"note": 76, "velocity": 112, "duration": 233}, {"note": 75, "velocity": 102, "duration": 241}, {"note": 71, "velocity": 99, "duration": 340}, {"note": 68, "velocity": 107, "duration": 269}, {"note": 0, "velocity": 0, "duration": 91}, {"note": 68, "velocity": 99, "duration": 447}, {"note": 66, "velocity": 112, "duration": 182}, {"note": 68, "velocity": 112, "duration": 125}, {"note": 0, "velocity": 0, "duration": 115}, {"note": 73, "velocity": 117, "duration": 306}, {"note": 0, "velocity": 0, "duration": 174}, {"note": 71, "velocity": 117, "duration": 163}, {"note": 0, "velocity": 0, "duration": 77}, {"note": 68, "velocity": 122, "duration": 221}, {"note": 66, "velocity": 107, "duration": 212}, {"note": 68, "velocity": 122, "duration": 183}, {"note": 0, "velocity": 0, "duration": 177}, {"note": 66, "velocity": 100, "duration": 94}, {"note": 64, "velocity": 107, "duration": 286}, {"note": 0, "velocity": 0, "duration": 74}, {"note": 61, "velocity": 102, "duration": 796}, {"note": 0, "velocity": 0, "duration": 8204}, {"note": 59, "velocity": 93, "duration": 228}, {"note": 61, "velocity": 99, "duration": 215}, {"note": 68, "velocity": 95, "duration": 177}, {"note": 0, "velocity": 0, "duration": 63}, {"note": 68, "velocity": 112, "duration": 161}, {"note": 0, "velocity": 0, "duration": 79}, {"note": 68, "velocity": 100, "duration": 166}, {"note": 0, "velocity": 0, "duration": 74}, {"note": 68, "velocity": 112, "duration": 245}, {"note": 66, "velocity": 97, "duration": 68}, {"note": 66, "velocity": 102, "duration": 310}, {"note": 0, "velocity": 0, "duration": 170}, {"note": 64, "velocity": 73, "duration": 75}, {"note": 66, "velocity": 96, "duration": 143}, {"note": 0, "velocity": 0, "duration": 97}, {"note": 64, "velocity": 88, "duration": 143}, {"note": 0, "velocity": 0, "duration": 97}, {"note": 66, "velocity": 97, "duration": 166}, {"note": 0, "velocity": 0, "duration": 74}, {"note": 68, "velocity": 100, "duration": 214}, {"note": 61, "velocity": 81, "duration": 303}, {"note": 0, "velocity": 0, "duration": 537}, {"note": 59, "velocity": 73, "duration": 96}, {"note": 61, "velocity": 89, "duration": 196}, {"note": 68, "velocity": 92, "duration": 159}, {"note": 0, "velocity": 0, "duration": 81}, {"note": 68, "velocity": 99, "duration": 173}, {"note": 0, "velocity": 0, "duration": 67}, {"note": 68, "velocity": 102, "duration": 82}, {"note": 0, "velocity": 0, "duration": 158}, {"note": 68, "velocity": 102, "duration": 244}, {"note": 66, "velocity": 53, "duration": 63}, {"note": 66, "velocity": 100, "duration": 324}, {"note": 64, "velocity": 89, "duration": 246}, {"note": 66, "velocity": 93, "duration": 270}, {"note": 68, "velocity": 96, "duration": 992}, {"note": 0, "velocity": 0, "duration": 448}, {"note": 66, "velocity": 97, "duration": 181}, {"note": 66, "velocity": 100, "duration": 193}, {"note": 73, "velocity": 93, "duration": 179}, {"note": 0, "velocity": 0, "duration": 61}, {"note": 73, "velocity": 122, "duration": 187}, {"note": 71, "velocity": 95, "duration": 220}, {"note": 68, "velocity": 81, "duration": 322}, {"note": 66, "velocity": 85, "duration": 79}, {"note": 66, "velocity": 93, "duration": 339}, {"note": 0, "velocity": 0, "duration": 141}, {"note": 61, "velocity": 88, "duration": 107}, {"note": 73, "velocity": 99, "duration": 200}, {"note": 71, "velocity": 112, "duration": 151}, {"note": 0, "velocity": 0, "duration": 89}, {"note": 68, "velocity": 99, "duration": 233}, {"note": 66, "velocity": 99, "duration": 59}, {"note": 0, "velocity": 0, "duration": 61}, {"note": 61, "velocity": 77, "duration": 287}, {"note": 0, "velocity": 0, "duration": 73}, {"note": 61, "velocity": 75, "duration": 516}, {"note": 0, "velocity": 0, "duration": 84}, {"note": 59, "velocity": 82, "duration": 136}, {"note": 61, "velocity": 90, "duration": 280}, {"note": 0, "velocity": 0, "duration": 80}, {"note": 68, "velocity": 92, "duration": 364}, {"note": 59, "velocity": 85, "duration": 177}, {"note": 0, "velocity": 0, "duration": 63}, {"note": 61, "velocity": 81, "duration": 255}, {"note": 68, "velocity": 100, "duration": 253}, {"note": 66, "velocity": 97, "duration": 396}, {"note": 0, "velocity": 0, "duration": 84}, {"note": 64, "velocity": 99, "duration": 320}, {"note": 61, "velocity": 83, "duration": 598}, {"note": 0, "velocity": 0, "duration": 242}, {"note": 61, "velocity": 107, "duration": 193}, {"note": 63, "velocity": 96, "duration": 242}, {"note": 64, "velocity": 100, "duration": 183}, {"note": 68, "velocity": 99, "duration": 95}, {"note": 61, "velocity": 90, "duration": 122}, {"note": 68, "velocity": 92, "duration": 66}, {"note": 68, "velocity": 117, "duration": 243}, {"note": 66, "velocity": 93, "duration": 115}, {"note": 68, "velocity": 95, "duration": 126}, {"note": 66, "velocity": 92, "duration": 124}, {"note": 68, "velocity": 117, "duration": 116}, {"note": 66, "velocity": 79, "duration": 144}, {"note": 68, "velocity": 93, "duration": 73}, {"note": 68, "velocity": 97, "duration": 255}, {"note": 66, "velocity": 112, "duration": 98}, {"note": 68, "velocity": 92, "duration": 120}, {"note": 66, "velocity": 95, "duration": 128}, {"note": 68, "velocity": 95, "duration": 128}, {"note": 66, "velocity": 77, "duration": 107}, {"note": 68, "velocity": 95, "duration": 66}, {"note": 68, "velocity": 100, "duration": 193}, {"note": 66, "velocity": 100, "duration": 85}, {"note": 68, "velocity": 96, "duration": 122}, {"note": 66, "velocity": 95, "duration": 120}, {"note": 68, "velocity": 107, "duration": 167}, {"note": 0, "velocity": 0, "duration": 313}, {"note": 64, "velocity": 97, "duration": 233}, {"note": 68, "velocity": 112, "duration": 164}, {"note": 0, "velocity": 0, "duration": 76}, {"note": 68, "velocity": 127, "duration": 82}, {"note": 61, "velocity": 97, "duration": 120}, {"note": 68, "velocity": 102, "duration": 62}, {"note": 68, "velocity": 127, "duration": 187}, {"note": 66, "velocity": 93, "duration": 62}, {"note": 68, "velocity": 112, "duration": 93}, {"note": 66, "velocity": 93, "duration": 82}, {"note": 68, "velocity": 112, "duration": 106}, {"note": 66, "velocity": 92, "duration": 91}, {"note": 68, "velocity": 112, "duration": 63}, {"note": 68, "velocity": 117, "duration": 170}, {"note": 0, "velocity": 0, "duration": 70}, {"note": 66, "velocity": 112, "duration": 54}, {"note": 0, "velocity": 0, "duration": 66}, {"note": 68, "velocity": 102, "duration": 62}, {"note": 66, "velocity": 107, "duration": 48}, {"note": 0, "velocity": 0, "duration": 72}, {"note": 68, "velocity": 122, "duration": 113}, {"note": 66, "velocity": 99, "duration": 53}, {"note": 0, "velocity": 0, "duration": 67}, {"note": 68, "velocity": 117, "duration": 44}, {"note": 0, "velocity": 0, "duration": 76}, {"note": 68, "velocity": 127, "duration": 140}, {"note": 0, "velocity": 0, "duration": 100}, {"note": 66, "velocity": 100, "duration": 37}, {"note": 0, "velocity": 0, "duration": 83}, {"note": 68, "velocity": 112, "duration": 129}, {"note": 66, "velocity": 99, "duration": 132}, {"note": 68, "velocity": 117, "duration": 158}, {"note": 0, "velocity": 0, "duration": 322}, {"note": 64, "velocity": 100, "duration": 217}, {"note": 66, "velocity": 107, "duration": 181}, {"note": 68, "velocity": 107, "duration": 164}, {"note": 0, "velocity": 0, "duration": 76}, {"note": 73, "velocity": 127, "duration": 153}, {"note": 0, "velocity": 0, "duration": 87}, {"note": 73, "velocity": 122, "duration": 189}, {"note": 71, "velocity": 112, "duration": 233}, {"note": 0, "velocity": 0, "duration": 247}, {"note": 68, "velocity": 122, "duration": 174}, {"note": 0, "velocity": 0, "duration": 66}, {"note": 66, "velocity": 117, "duration": 213}, {"note": 64, "velocity": 95, "duration": 174}, {"note": 0, "velocity": 0, "duration": 66}, {"note": 66, "velocity": 122, "duration": 192}, {"note": 68, "velocity": 122, "duration": 203}, {"note": 66, "velocity": 122, "duration": 157}, {"note": 0, "velocity": 0, "duration": 83}, {"note": 61, "velocity": 112, "duration": 411}, {"note": 0, "velocity": 0, "duration": 309}, {"note": 64, "velocity": 96, "duration": 210}, {"note": 66, "velocity": 97, "duration": 183}, {"note": 68, "velocity": 117, "duration": 157}, {"note": 0, "velocity": 0, "duration": 83}, {"note": 73, "velocity": 112, "duration": 155}, {"note": 0, "velocity": 0, "duration": 85}, {"note": 73, "velocity": 127, "duration": 195}, {"note": 71, "velocity": 127, "duration": 339}, {"note": 0, "velocity": 0, "duration": 141}, {"note": 68, "velocity": 112, "duration": 217}, {"note": 66, "velocity": 102, "duration": 174}, {"note": 0, "velocity": 0, "duration": 66}, {"note": 71, "velocity": 102, "duration": 302}, {"note": 0, "velocity": 0, "duration": 178}, {"note": 68, "velocity": 112, "duration": 753}, {"note": 0, "velocity": 0, "duration": 447}, {"note": 64, "velocity": 100, "duration": 219}, {"note": 66, "velocity": 112, "duration": 189}, {"note": 68, "velocity": 127, "duration": 177}, {"note": 0, "velocity": 0, "duration": 63}, {"note": 73, "velocity": 112, "duration": 174}, {"note": 0, "velocity": 0, "duration": 66}, {"note": 73, "velocity": 112, "duration": 182}, {"note": 71, "velocity": 117, "duration": 313}, {"note": 0, "velocity": 0, "duration": 167}, {"note": 68, "velocity": 122, "duration": 191}, {"note": 66, "velocity": 117, "duration": 185}, {"note": 64, "velocity": 100, "duration": 146}, {"note": 0, "velocity": 0, "duration": 94}, {"note": 76, "velocity": 112, "duration": 233}, {"note": 75, "velocity": 102, "duration": 241}, {"note": 71, "velocity": 99, "duration": 340}, {"note": 68, "velocity": 107, "duration": 269}, {"note": 0, "velocity": 0, "duration": 91}, {"note": 68, "velocity": 99, "duration": 447}, {"note": 66, "velocity": 112, "duration": 182}, {"note": 68, "velocity": 112, "duration": 125}, {"note": 0, "velocity": 0, "duration": 115}, {"note": 73, "velocity": 117, "duration": 306}, {"note": 0, "velocity": 0, "duration": 174}, {"note": 71, "velocity": 117, "duration": 163}, {"note": 0, "velocity": 0, "duration": 77}, {"note": 68, "velocity": 122, "duration": 221}, {"note": 66, "velocity": 107, "duration": 212}, {"note": 68, "velocity": 122, "duration": 183}, {"note": 0, "velocity": 0, "duration": 177}, {"note": 66, "velocity": 100, "duration": 94}, {"note": 64, "velocity": 107, "duration": 286}, {"note": 0, "velocity": 0, "duration": 74}, {"note": 61, "velocity": 102, "duration": 796}, {"note": 0, "velocity": 0, "duration": 284}, {"note": 65, "velocity": 100, "duration": 217}, {"note": 67, "velocity": 107, "duration": 181}, {"note": 69, "velocity": 107, "duration": 164}, {"note": 0, "velocity": 0, "duration": 76}, {"note": 74, "velocity": 127, "duration": 153}, {"note": 0, "velocity": 0, "duration": 87}, {"note": 74, "velocity": 122, "duration": 189}, {"note": 72, "velocity": 112, "duration": 233}, {"note": 0, "velocity": 0, "duration": 247}, {"note": 69, "velocity": 122, "duration": 174}, {"note": 0, "velocity": 0, "duration": 66}, {"note": 67, "velocity": 117, "duration": 213}, {"note": 65, "velocity": 95, "duration": 174}, {"note": 0, "velocity": 0, "duration": 66}, {"note": 67, "velocity": 122, "duration": 192}, {"note": 69, "velocity": 122, "duration": 203}, {"note": 67, "velocity": 122, "duration": 157}, {"note": 0, "velocity": 0, "duration": 83}, {"note": 62, "velocity": 112, "duration": 411}, {"note": 0, "velocity": 0, "duration": 309}, {"note": 65, "velocity": 96, "duration": 210}, {"note": 67, "velocity": 97, "duration": 183}, {"note": 69, "velocity": 117, "duration": 157}, {"note": 0, "velocity": 0, "duration": 83}, {"note": 74, "velocity": 112, "duration": 155}, {"note": 0, "velocity": 0, "duration": 85}, {"note": 74, "velocity": 127, "duration": 195}, {"note": 72, "velocity": 127, "duration": 339}, {"note": 0, "velocity": 0, "duration": 141}, {"note": 69, "velocity": 112, "duration": 217}, {"note": 67, "velocity": 102, "duration": 174}, {"note": 0, "velocity": 0, "duration": 66}, {"note": 72, "velocity": 102, "duration": 302}, {"note": 0, "velocity": 0, "duration": 178}, {"note": 69, "velocity": 112, "duration": 753}, {"note": 0, "velocity": 0, "duration": 447}, {"note": 65, "velocity": 100, "duration": 219}, {"note": 67, "velocity": 112, "duration": 189}, {"note": 69, "velocity": 127, "duration": 177}, {"note": 0, "velocity": 0, "duration": 63}, {"note": 74, "velocity": 112, "duration": 174}, {"note": 0, "velocity": 0, "duration": 66}, {"note": 74, "velocity": 112, "duration": 182}, {"note": 72, "velocity": 117, "duration": 313}, {"note": 0, "velocity": 0, "duration": 167}, {"note": 69, "velocity": 122, "duration": 191}, {"note": 67, "velocity": 117, "duration": 185}, {"note": 65, "velocity": 100, "duration": 146}, {"note": 0, "velocity": 0, "duration": 94}, {"note": 77, "velocity": 112, "duration": 233}, {"note": 76, "velocity": 102, "duration": 241}, {"note": 72, "velocity": 99, "duration": 340}, {"note": 69, "velocity": 107, "duration": 269}, {"note": 0, "velocity": 0, "duration": 91}, {"note": 69, "velocity": 99, "duration": 1200}, {"note": 0, "velocity": 0, "duration": 240}, {"note": 67, "velocity": 112, "duration": 182}, {"note": 69, "velocity": 112, "duration": 125}, {"note": 0, "velocity": 0, "duration": 115}, {"note": 74, "velocity": 117, "duration": 306}, {"note": 0, "velocity": 0, "duration": 174}, {"note": 72, "velocity": 117, "duration": 163}, {"note": 0, "velocity": 0, "duration": 77}, {"note": 69, "velocity": 122, "duration": 221}, {"note": 67, "velocity": 107, "duration": 212}, {"note": 69, "velocity": 122, "duration": 183}, {"note": 0, "velocity": 0, "duration": 177}, {"note": 67, "velocity": 100, "duration": 94}, {"note": 65, "velocity": 107, "duration": 286}, {"note": 0, "velocity": 0, "duration": 74}, {"note": 62, "velocity": 102, "duration": 796}]]