[[{"note": 55, "velocity": 83, "duration": 194}, {"note": 58, "velocity": 72, "duration": 188}, {"note": 60, "velocity": 86, "duration": 694}, {"note": 0, "velocity": 0, "duration": 746}, {"note": 60, "velocity": 95, "duration": 216}, {"note": 67, "velocity": 90, "duration": 214}, {"note": 65, "velocity": 89, "duration": 778}, {"note": 0, "velocity": 0, "duration": 662}, {"note": 60, "velocity": 96, "duration": 208}, {"note": 62, "velocity": 83, "duration": 179}, {"note": 0, "velocity": 0, "duration": 61}, {"note": 65, "velocity": 97, "duration": 220}, {"note": 63, "velocity": 85, "duration": 474}, {"note": 0, "velocity": 0, "duration": 486}, {"note": 63, "velocity": 93, "duration": 219}, {"note": 62, "velocity": 72, "duration": 213}, {"note": 58, "velocity": 66, "duration": 254}, {"note": 55, "velocity": 69, "duration": 1053}, {"note": 0, "velocity": 0, "duration": 387}, {"note": 55, "velocity": 73, "duration": 256}, {"note": 58, "velocity": 72, "duration": 263}, {"note": 60, "velocity": 75, "duration": 974}, {"note": 0, "velocity": 0, "duration": 226}, {"note": 60, "velocity": 93, "duration": 214}, {"note": 70, "velocity": 107, "duration": 267}, {"note": 67, "velocity": 90, "duration": 236}, {"note": 65, "velocity": 88, "duration": 770}, {"note": 0, "velocity": 0, "duration": 670}, {"note": 60, "velocity": 82, "duration": 246}, {"note": 62, "velocity": 71, "duration": 227}, {"note": 63, "velocity": 82, "duration": 279}, {"note": 0, "velocity": 0, "duration": 201}, {"note": 63, "velocity": 95, "duration": 212}, {"note": 67, "velocity": 88, "duration": 256}, {"note": 65, "velocity": 77, "duration": 337}, {"note": 0, "velocity": 0, "duration": 143}, {"note": 62, "velocity": 86, "duration": 233}, {"note": 55, "velocity": 79, "duration": 275}, {"note": 60, "velocity": 90, "duration": 63}, {"note": 0, "velocity": 0, "duration": 177}, {"note": 60, "velocity": 92, "duration": 999}, {"note": 0, "velocity": 0, "duration": 201}, {"note": 55, "velocity": 83, "duration": 194}, {"note": 58, "velocity": 72, "duration": 188}, {"note": 60, "velocity": 86, "duration": 694}, {"note": 0, "velocity": 0, "duration": 746}, {"note": 60, "velocity": 95, "duration": 216}, {"note": 67, "velocity": 90, "duration": 214}, {"note": 65, "velocity": 89, "duration": 778}, {"note": 0, "velocity": 0, "duration": 662}, {"note": 60, "velocity": 96, "duration": 208}, {"note": 62, "velocity": 83, "duration": 179}, {"note": 0, "velocity": 0, "duration": 61}, {"note": 65, "velocity": 97, "duration": 220}, {"note": 63, "velocity": 85, "duration": 474}, {"note": 0, "velocity": 0, "duration": 486}, {"note": 63, "velocity": 93, "duration": 219}, {"note": 62, "velocity": 72, "duration": 213}, {"note": 58, "velocity": 66, "duration": 254}, {"note": 55, "velocity": 69, "duration": 1053}, {"note": 0, "velocity": 0, "duration": 387}, {"note": 55, "velocity": 73, "duration": 256}, {"note": 58, "velocity": 72, "duration": 263}, {"note": 60, "velocity": 75, "duration": 974}, {"note": 0, "velocity": 0, "duration": 226}, {"note": 60, "velocity": 93, "duration": 214}, {"note": 70, "velocity": 107, "duration": 267}, {"note": 67, "velocity": 90, "duration": 236}, {"note": 65, "velocity": 88, "duration": 770}, {"note": 0, "velocity": 0, "duration": 670}, {"note": 60, "velocity": 82, "duration": 246}, {"note": 62, "velocity": 71, "duration": 227}, {"note": 63, "velocity": 82, "duration": 279}, {"note": 0, "velocity": 0, "duration": 201}, {"note": 63, "velocity": 95, "duration": 212}, {"note": 67, "velocity": 88, "duration": 256}, {"note": 65, "velocity": 77, "duration": 337}, {"note": 0, "velocity": 0, "duration": 143}, {"note": 67, "velocity": 97, "duration": 178}, {"note": 0, "velocity": 0, "duration": 62}, {"note": 63, "velocity": 93, "duration": 212}, {"note": 62, "velocity": 93, "duration": 252}, {"note": 60, "velocity": 86, "duration": 878}, {"note": 0, "velocity": 0, "duration": 802}, {"note": 65, "velocity": 100, "duration": 201}, {"note": 67, "velocity": 97, "duration": 195}, {"note": 70, "velocity": 127, "duration": 241}, {"note": 67, "velocity": 117, "duration": 221}, {"note": 65, "velocity": 97, "duration": 189}, {"note": 60, "velocity": 112, "duration": 205}, {"note": 65, "velocity": 102, "duration": 229}, {"note": 0, "velocity": 0, "duration": 251}, {"note": 65, "velocity": 100, "duration": 186}, {"note": 67, "velocity": 100, "duration": 187}, {"note": 70, "velocity": 122, "duration": 175}, {"note": 0, "velocity": 0, "duration": 65}, {"note": 67, "velocity": 107, "duration": 130}, {"note": 0, "velocity": 0, "duration": 110}, {"note": 65, "velocity": 102, "duration": 161}, {"note": 0, "velocity": 0, "duration": 79}, {"note": 60, "velocity": 93, "duration": 252}, {"note": 63, "velocity": 102, "duration": 289}, {"note": 0, "velocity": 0, "duration": 191}, {"note": 65, "velocity": 86, "duration": 202}, {"note": 63, "velocity": 92, "duration": 223}, {"note": 60, "velocity": 93, "duration": 225}, {"note": 58, "velocity": 99, "duration": 168}, {"note": 0, "velocity": 0, "duration": 72}, {"note": 72, "velocity": 122, "duration": 212}, {"note": 70, "velocity": 112, "duration": 225}, {"note": 67, "velocity": 96, "duration": 219}, {"note": 65, "velocity": 97, "duration": 170}, {"note": 0, "velocity": 0, "duration": 70}, {"note": 67, "velocity": 102, "duration": 119}, {"note": 70, "velocity": 93, "duration": 121}, {"note": 67, "velocity": 97, "duration": 720}, {"note": 0, "velocity": 0, "duration": 240}, {"note": 67, "velocity": 122, "duration": 177}, {"note": 0, "velocity": 0, "duration": 63}, {"note": 65, "velocity": 99, "duration": 175}, {"note": 0, "velocity": 0, "duration": 65}, {"note": 67, "velocity": 122, "duration": 155}, {"note": 0, "velocity": 0, "duration": 85}, {"note": 65, "velocity": 112, "duration": 194}, {"note": 67, "velocity": 107, "duration": 158}, {"note": 0, "velocity": 0, "duration": 82}, {"note": 70, "velocity": 127, "duration": 165}, {"note": 0, "velocity": 0, "duration": 75}, {"note": 67, "velocity": 127, "duration": 190}, {"note": 65, "velocity": 99, "duration": 214}, {"note": 60, "velocity": 97, "duration": 250}, {"note": 65, "velocity": 96, "duration": 268}, {"note": 0, "velocity": 0, "duration": 212}, {"note": 65, "velocity": 102, "duration": 191}, {"note": 67, "velocity": 117, "duration": 163}, {"note": 0, "velocity": 0, "duration": 77}, {"note": 70, "velocity": 127, "duration": 219}, {"note": 67, "velocity": 117, "duration": 209}, {"note": 65, "velocity": 100, "duration": 161}, {"note": 0, "velocity": 0, "duration": 79}, {"note": 60, "velocity": 97, "duration": 240}, {"note": 63, "velocity": 117, "duration": 301}, {"note": 0, "velocity": 0, "duration": 179}, {"note": 65, "velocity": 102, "duration": 206}, {"note": 63, "velocity": 112, "duration": 219}, {"note": 60, "velocity": 99, "duration": 228}, {"note": 58, "velocity": 95, "duration": 256}, {"note": 55, "velocity": 96, "duration": 240}, {"note": 58, "velocity": 100, "duration": 203}, {"note": 0, "velocity": 0, "duration": 277}, {"note": 63, "velocity": 117, "duration": 127}, {"note": 62, "velocity": 92, "duration": 111}, {"note": 60, "velocity": 96, "duration": 812}, {"note": 0, "velocity": 0, "duration": 15988}, {"note": 55, "velocity": 83, "duration": 194}, {"note": 58, "velocity": 72, "duration": 188}, {"note": 60, "velocity": 86, "duration": 694}, {"note": 0, "velocity": 0, "duration": 746}, {"note": 60, "velocity": 95, "duration": 216}, {"note": 67, "velocity": 90, "duration": 214}, {"note": 65, "velocity": 89, "duration": 778}, {"note": 0, "velocity": 0, "duration": 662}, {"note": 60, "velocity": 96, "duration": 208}, {"note": 62, "velocity": 83, "duration": 179}, {"note": 0, "velocity": 0, "duration": 61}, {"note": 65, "velocity": 97, "duration": 220}, {"note": 63, "velocity": 85, "duration": 474}, {"note": 0, "velocity": 0, "duration": 486}, {"note": 63, "velocity": 93, "duration": 219}, {"note": 62, "velocity": 72, "duration": 213}, {"note": 58, "velocity": 66, "duration": 254}, {"note": 55, "velocity": 69, "duration": 1053}, {"note": 0, "velocity": 0, "duration": 387}, {"note": 55, "velocity": 73, "duration": 256}, {"note": 58, "velocity": 72, "duration": 263}, {"note": 60, "velocity": 75, "duration": 974}, {"note": 0, "velocity": 0, "duration": 226}, {"note": 60, "velocity": 93, "duration": 214}, {"note": 70, "velocity": 107, "duration": 267}, {"note": 67, "velocity": 90, "duration": 236}, {"note": 65, "velocity": 88, "duration": 770}, {"note": 0, "velocity": 0, "duration": 670}, {"note": 60, "velocity": 82, "duration": 246}, {"note": 62, "velocity": 71, "duration": 227}, {"note": 63, "velocity": 82, "duration": 279}, {"note": 0, "velocity": 0, "duration": 201}, {"note": 63, "velocity": 95, "duration": 212}, {"note": 67, "velocity": 88, "duration": 256}, {"note": 65, "velocity": 77, "duration": 337}, {"note": 0, "velocity": 0, "duration": 143}, {"note": 67, "velocity": 97, "duration": 178}, {"note": 0, "velocity": 0, "duration": 62}, {"note": 63, "velocity": 93, "duration": 212}, {"note": 62, "velocity": 93, "duration": 252}, {"note": 60, "velocity": 86, "duration": 878}, {"note": 0, "velocity": 0, "duration": 802}, {"note": 65, "velocity": 100, "duration": 201}, {"note": 67, "velocity": 97, "duration": 195}, {"note": 70, "velocity": 127, "duration": 241}, {"note": 67, "velocity": 117, "duration": 221}, {"note": 65, "velocity": 97, "duration": 189}, {"note": 60, "velocity": 112, "duration": 205}, {"note": 65, "velocity": 102, "duration": 229}, {"note": 0, "velocity": 0, "duration": 251}, {"note": 65, "velocity": 100, "duration": 186}, {"note": 67, "velocity": 100, "duration": 187}, {"note": 70, "velocity": 122, "duration": 175}, {"note": 0, "velocity": 0, "duration": 65}, {"note": 67, "velocity": 107, "duration": 130}, {"note": 0, "velocity": 0, "duration": 110}, {"note": 65, "velocity": 102, "duration": 161}, {"note": 0, "velocity": 0, "duration": 79}, {"note": 60, "velocity": 93, "duration": 252}, {"note": 63, "velocity": 102, "duration": 289}, {"note": 0, "velocity": 0, "duration": 191}, {"note": 65, "velocity": 86, "duration": 202}, {"note": 63, "velocity": 92, "duration": 223}, {"note": 60, "velocity": 93, "duration": 225}, {"note": 58, "velocity": 99, "duration": 168}, {"note": 0, "velocity": 0, "duration": 72}, {"note": 72, "velocity": 122, "duration": 212}, {"note": 70, "velocity": 112, "duration": 225}, {"note": 67, "velocity": 96, "duration": 219}, {"note": 65, "velocity": 97, "duration": 170}, {"note": 0, "velocity": 0, "duration": 70}, {"note": 67, "velocity": 102, "duration": 119}, {"note": 70, "velocity": 93, "duration": 121}, {"note": 67, "velocity": 97, "duration": 720}, {"note": 0, "velocity": 0, "duration": 240}, {"note": 67, "velocity": 122, "duration": 177}, {"note": 0, "velocity": 0, "duration": 63}, {"note": 65, "velocity": 99, "duration": 175}, {"note": 0, "velocity": 0, "duration": 65}, {"note": 67, "velocity": 122, "duration": 155}, {"note": 0, "velocity": 0, "duration": 85}, {"note": 65, "velocity": 112, "duration": 194}, {"note": 67, "velocity": 107, "duration": 158}, {"note": 0, "velocity": 0, "duration": 82}, {"note": 70, "velocity": 127, "duration": 165}, {"note": 0, "velocity": 0, "duration": 75}, {"note": 67, "velocity": 127, "duration": 190}, {"note": 65, "velocity": 99, "duration": 214}, {"note": 60, "velocity": 97, "duration": 250}, {"note": 65, "velocity": 96, "duration": 268}, {"note": 0, "velocity": 0, "duration": 212}, {"note": 65, "velocity": 102, "duration": 191}, {"note": 67, "velocity": 117, "duration": 163}, {"note": 0, "velocity": 0, "duration": 77}, {"note": 70, "velocity": 127, "duration": 219}, {"note": 67, "velocity": 117, "duration": 209}, {"note": 65, "velocity": 100, "duration": 161}, {"note": 0, "velocity": 0, "duration": 79}, {"note": 60, "velocity": 97, "duration": 240}, {"note": 63, "velocity": 117, "duration": 301}, {"note": 0, "velocity": 0, "duration": 179}, {"note": 65, "velocity": 102, "duration": 206}, {"note": 63, "velocity": 112, "duration": 219}, {"note": 60, "velocity": 99, "duration": 228}, {"note": 58, "velocity": 95, "duration": 256}, {"note": 55, "velocity": 96, "duration": 240}, {"note": 58, "velocity": 100, "duration": 203}, {"note": 0, "velocity": 0, "duration": 277}, {"note": 63, "velocity": 117, "duration": 127}, {"note": 62, "velocity": 92, "duration": 111}, {"note": 60, "velocity": 96, "duration": 812}, {"note": 0, "velocity": 0, "duration": 1108}, {"note": 65, "velocity": 100, "duration": 201}, {"note": 67, "velocity": 97, "duration": 195}, {"note": 70, "velocity": 127, "duration": 241}, {"note": 67, "velocity": 117, "duration": 221}, {"note": 65, "velocity": 97, "duration": 189}, {"note": 60, "velocity": 112, "duration": 205}, {"note": 65, "velocity": 102, "duration": 229}, {"note": 0, "velocity": 0, "duration": 251}, {"note": 65, "velocity": 100, "duration": 186}, {"note": 67, "velocity": 100, "duration": 187}, {"note": 70, "velocity": 122, "duration": 175}, {"note": 0, "velocity": 0, "duration": 65}, {"note": 67, "velocity": 107, "duration": 130}, {"note": 0, "velocity": 0, "duration": 110}, {"note": 65, "velocity": 102, "duration": 161}, {"note": 0, "velocity": 0, "duration": 79}, {"note": 60, "velocity": 93, "duration": 252}, {"note": 63, "velocity": 102, "duration": 289}, {"note": 0, "velocity": 0, "duration": 191}, {"note": 65, "velocity": 86, "duration": 202}, {"note": 63, "velocity": 92, "duration": 223}, {"note": 60, "velocity": 93, "duration": 225}, {"note": 58, "velocity": 99, "duration": 168}, {"note": 0, "velocity": 0, "duration": 72}, {"note": 72, "velocity": 122, "duration": 212}, {"note": 70, "velocity": 112, "duration": 225}, {"note": 67, "velocity": 96, "duration": 219}, {"note": 65, "velocity": 97, "duration": 170}, {"note": 0, "velocity": 0, "duration": 70}, {"note": 67, "velocity": 102, "duration": 119}, {"note": 70, "velocity": 93, "duration": 121}, {"note": 67, "velocity": 97, "duration": 720}, {"note": 0, "velocity": 0, "duration": 240}, {"note": 67, "velocity": 122, "duration": 177}, {"note": 0, "velocity": 0, "duration": 63}, {"note": 65, "velocity": 99, "duration": 175}, {"note": 0, "velocity": 0, "duration": 65}, {"note": 67, "velocity": 122, "duration": 155}, {"note": 0, "velocity": 0, "duration": 85}, {"note": 65, "velocity": 112, "duration": 194}, {"note": 67, "velocity": 107, "duration": 158}, {"note": 0, "velocity": 0, "duration": 82}, {"note": 70, "velocity": 127, "duration": 165}, {"note": 0, "velocity": 0, "duration": 75}, {"note": 67, "velocity": 127, "duration": 190}, {"note": 65, "velocity": 99, "duration": 214}, {"note": 60, "velocity": 97, "duration": 250}, {"note": 65, "velocity": 96, "duration": 268}, {"note": 0, "velocity": 0, "duration": 212}, {"note": 65, "velocity": 102, "duration": 191}, {"note": 67, "velocity": 117, "duration": 163}, {"note": 0, "velocity": 0, "duration": 77}, {"note": 70, "velocity": 127, "duration": 219}, {"note": 67, "velocity": 117, "duration": 209}, {"note": 65, "velocity": 95, "duration": 205}, {"note": 60, "velocity": 102, "duration": 240}, {"note": 63, "velocity": 112, "duration": 335}, {"note": 0, "velocity": 0, "duration": 145}, {"note": 65, "velocity": 122, "duration": 190}, {"note": 67, "velocity": 122, "duration": 154}, {"note": 0, "velocity": 0, "duration": 86}, {"note": 70, "velocity": 127, "duration": 160}, {"note": 0, "velocity": 0, "duration": 80}, {"note": 67, "velocity": 107, "duration": 224}, {"note": 65, "velocity": 99, "duration": 218}, {"note": 0, "velocity": 0, "duration": 142}, {"note": 67, "velocity": 127, "duration": 221}, {"note": 0, "velocity": 0, "duration": 139}, {"note": 70, "velocity": 127, "duration": 151}, {"note": 0, "velocity": 0, "duration": 89}, {"note": 60, "velocity": 79, "duration": 150}, {"note": 63, "velocity": 99, "duration": 130}, {"note": 60, "velocity": 93, "duration": 1016}, {"note": 0, "velocity": 0, "duration": 184}, {"note": 65, "velocity": 112, "duration": 133}, {"note": 67, "velocity": 89, "duration": 116}, {"note": 65, "velocity": 90, "duration": 114}, {"note": 60, "velocity": 97, "duration": 135}, {"note": 65, "velocity": 96, "duration": 839}, {"note": 0, "velocity": 0, "duration": 601}, {"note": 63, "velocity": 112, "duration": 232}, {"note": 62, "velocity": 89, "duration": 234}, {"note": 60, "velocity": 95, "duration": 1033}, {"note": 0, "velocity": 0, "duration": 407}, {"note": 55, "velocity": 92, "duration": 222}, {"note": 58, "velocity": 86, "duration": 224}, {"note": 60, "velocity": 90, "duration": 917}, {"note": 0, "velocity": 0, "duration": 330}, {"note": 60, "velocity": 83, "duration": 314}, {"note": 70, "velocity": 102, "duration": 310}, {"note": 67, "velocity": 83, "duration": 284}, {"note": 65, "velocity": 93, "duration": 292}, {"note": 0, "velocity": 0, "duration": 120}, {"note": 65, "velocity": 88, "duration": 671}, {"note": 0, "velocity": 0, "duration": 93}, {"note": 67, "velocity": 83, "duration": 128}, {"note": 0, "velocity": 0, "duration": 1382}, {"note": 58, "velocity": 89, "duration": 461}, {"note": 55, "velocity": 73, "duration": 375}, {"note": 63, "velocity": 96, "duration": 425}, {"note": 62, "velocity": 82, "duration": 520}, {"note": 60, "velocity": 77, "duration": 275}, {"note": 62, "velocity": 71, "duration": 142}, {"note": 60, "velocity": 66, "duration": 1328}]]