[[{"note": 68, "velocity": 102, "duration": 1095}, {"note": 70, "velocity": 96, "duration": 1045}, {"note": 72, "velocity": 100, "duration": 975}, {"note": 70, "velocity": 127, "duration": 1366}, {"note": 0, "velocity": 0, "duration": 1514}, {"note": 68, "velocity": 107, "duration": 849}, {"note": 70, "velocity": 122, "duration": 885}, {"note": 65, "velocity": 96, "duration": 866}, {"note": 63, "velocity": 92, "duration": 1854}, {"note": 0, "velocity": 0, "duration": 1026}, {"note": 75, "velocity": 127, "duration": 1194}, {"note": 0, "velocity": 0, "duration": 726}, {"note": 75, "velocity": 127, "duration": 550}, {"note": 0, "velocity": 0, "duration": 410}, {"note": 72, "velocity": 127, "duration": 715}, {"note": 0, "velocity": 0, "duration": 245}, {"note": 68, "velocity": 117, "duration": 647}, {"note": 0, "velocity": 0, "duration": 313}, {"note": 65, "velocity": 100, "duration": 745}, {"note": 0, "velocity": 0, "duration": 215}, {"note": 70, "velocity": 122, "duration": 2640}, {"note": 0, "velocity": 0, "duration": 3120}, {"note": 72, "velocity": 112, "duration": 1486}, {"note": 0, "velocity": 0, "duration": 434}, {"note": 72, "velocity": 117, "duration": 817}, {"note": 0, "velocity": 0, "duration": 143}, {"note": 75, "velocity": 127, "duration": 1076}, {"note": 0, "velocity": 0, "duration": 844}, {"note": 72, "velocity": 127, "duration": 710}, {"note": 0, "velocity": 0, "duration": 250}, {"note": 70, "velocity": 122, "duration": 816}, {"note": 0, "velocity": 0, "duration": 144}, {"note": 72, "velocity": 122, "duration": 594}, {"note": 0, "velocity": 0, "duration": 366}, {"note": 72, "velocity": 102, "duration": 554}, {"note": 70, "velocity": 85, "duration": 488}, {"note": 68, "velocity": 99, "duration": 1997}, {"note": 0, "velocity": 0, "duration": 883}, {"note": 70, "velocity": 127, "duration": 1497}, {"note": 0, "velocity": 0, "duration": 423}, {"note": 68, "velocity": 117, "duration": 661}, {"note": 0, "velocity": 0, "duration": 299}, {"note": 65, "velocity": 99, "duration": 776}, {"note": 0, "velocity": 0, "duration": 184}, {"note": 68, "velocity": 112, "duration": 623}, {"note": 0, "velocity": 0, "duration": 337}, {"note": 65, "velocity": 112, "duration": 910}, {"note": 63, "velocity": 112, "duration": 2752}, {"note": 0, "velocity": 0, "duration": 3008}, {"note": 68, "velocity": 102, "duration": 1095}, {"note": 70, "velocity": 96, "duration": 1045}, {"note": 72, "velocity": 100, "duration": 975}, {"note": 70, "velocity": 127, "duration": 1366}, {"note": 0, "velocity": 0, "duration": 1514}, {"note": 68, "velocity": 107, "duration": 849}, {"note": 70, "velocity": 122, "duration": 885}, {"note": 65, "velocity": 96, "duration": 866}, {"note": 63, "velocity": 92, "duration": 1854}, {"note": 0, "velocity": 0, "duration": 1026}, {"note": 75, "velocity": 127, "duration": 1194}, {"note": 0, "velocity": 0, "duration": 726}, {"note": 75, "velocity": 127, "duration": 550}, {"note": 0, "velocity": 0, "duration": 410}, {"note": 72, "velocity": 127, "duration": 715}, {"note": 0, "velocity": 0, "duration": 245}, {"note": 68, "velocity": 117, "duration": 647}, {"note": 0, "velocity": 0, "duration": 313}, {"note": 65, "velocity": 100, "duration": 745}, {"note": 0, "velocity": 0, "duration": 215}, {"note": 70, "velocity": 122, "duration": 2640}, {"note": 0, "velocity": 0, "duration": 3120}, {"note": 72, "velocity": 112, "duration": 1486}, {"note": 0, "velocity": 0, "duration": 434}, {"note": 72, "velocity": 117, "duration": 817}, {"note": 0, "velocity": 0, "duration": 143}, {"note": 75, "velocity": 127, "duration": 1076}, {"note": 0, "velocity": 0, "duration": 844}, {"note": 72, "velocity": 127, "duration": 710}, {"note": 0, "velocity": 0, "duration": 250}, {"note": 70, "velocity": 122, "duration": 816}, {"note": 0, "velocity": 0, "duration": 144}, {"note": 72, "velocity": 122, "duration": 594}, {"note": 0, "velocity": 0, "duration": 366}, {"note": 72, "velocity": 102, "duration": 554}, {"note": 70, "velocity": 85, "duration": 488}, {"note": 68, "velocity": 99, "duration": 1997}, {"note": 0, "velocity": 0, "duration": 883}, {"note": 70, "velocity": 127, "duration": 960}, {"note": 70, "velocity": 122, "duration": 546}, {"note": 0, "velocity": 0, "duration": 414}, {"note": 70, "velocity": 117, "duration": 467}, {"note": 72, "velocity": 93, "duration": 504}, {"note": 70, "velocity": 122, "duration": 594}, {"note": 0, "velocity": 0, "duration": 1326}, {"note": 68, "velocity": 117, "duration": 482}, {"note": 70, "velocity": 97, "duration": 496}, {"note": 68, "velocity": 112, "duration": 2207}, {"note": 0, "velocity": 0, "duration": 3553}, {"note": 75, "velocity": 127, "duration": 1625}, {"note": 0, "velocity": 0, "duration": 295}, {"note": 77, "velocity": 127, "duration": 972}, {"note": 75, "velocity": 117, "duration": 1858}, {"note": 0, "velocity": 0, "duration": 1022}, {"note": 77, "velocity": 127, "duration": 1426}, {"note": 0, "velocity": 0, "duration": 494}, {"note": 75, "velocity": 127, "duration": 513}, {"note": 77, "velocity": 97, "duration": 479}, {"note": 75, "velocity": 117, "duration": 1946}, {"note": 0, "velocity": 0, "duration": 934}, {"note": 77, "velocity": 127, "duration": 1356}, {"note": 0, "velocity": 0, "duration": 564}, {"note": 75, "velocity": 127, "duration": 733}, {"note": 0, "velocity": 0, "duration": 227}, {"note": 77, "velocity": 127, "duration": 791}, {"note": 0, "velocity": 0, "duration": 169}, {"note": 68, "velocity": 112, "duration": 1180}, {"note": 0, "velocity": 0, "duration": 740}, {"note": 68, "velocity": 122, "duration": 1007}, {"note": 65, "velocity": 97, "duration": 988}, {"note": 72, "velocity": 117, "duration": 889}, {"note": 70, "velocity": 122, "duration": 2047}, {"note": 0, "velocity": 0, "duration": 833}, {"note": 72, "velocity": 127, "duration": 1462}, {"note": 0, "velocity": 0, "duration": 458}, {"note": 72, "velocity": 127, "duration": 631}, {"note": 0, "velocity": 0, "duration": 329}, {"note": 75, "velocity": 127, "duration": 992}, {"note": 0, "velocity": 0, "duration": 928}, {"note": 72, "velocity": 112, "duration": 668}, {"note": 0, "velocity": 0, "duration": 292}, {"note": 70, "velocity": 127, "duration": 651}, {"note": 0, "velocity": 0, "duration": 309}, {"note": 70, "velocity": 102, "duration": 754}, {"note": 0, "velocity": 0, "duration": 206}, {"note": 67, "velocity": 112, "duration": 968}, {"note": 65, "velocity": 100, "duration": 641}, {"note": 0, "velocity": 0, "duration": 2239}, {"note": 70, "velocity": 127, "duration": 692}, {"note": 0, "velocity": 0, "duration": 268}, {"note": 70, "velocity": 100, "duration": 683}, {"note": 0, "velocity": 0, "duration": 277}, {"note": 72, "velocity": 122, "duration": 685}, {"note": 0, "velocity": 0, "duration": 275}, {"note": 75, "velocity": 122, "duration": 714}, {"note": 0, "velocity": 0, "duration": 246}, {"note": 77, "velocity": 107, "duration": 847}, {"note": 79, "velocity": 127, "duration": 554}, {"note": 0, "velocity": 0, "duration": 166}, {"note": 77, "velocity": 97, "duration": 461}, {"note": 0, "velocity": 0, "duration": 259}, {"note": 75, "velocity": 107, "duration": 3030}, {"note": 0, "velocity": 0, "duration": 2250}, {"note": 75, "velocity": 127, "duration": 1625}, {"note": 0, "velocity": 0, "duration": 295}, {"note": 77, "velocity": 127, "duration": 972}, {"note": 75, "velocity": 117, "duration": 1858}, {"note": 0, "velocity": 0, "duration": 1022}, {"note": 77, "velocity": 127, "duration": 616}, {"note": 80, "velocity": 117, "duration": 1132}, {"note": 75, "velocity": 127, "duration": 513}, {"note": 77, "velocity": 97, "duration": 479}, {"note": 75, "velocity": 117, "duration": 1946}, {"note": 0, "velocity": 0, "duration": 934}, {"note": 77, "velocity": 127, "duration": 960}, {"note": 80, "velocity": 122, "duration": 572}, {"note": 0, "velocity": 0, "duration": 388}, {"note": 77, "velocity": 112, "duration": 920}, {"note": 82, "velocity": 117, "duration": 869}, {"note": 80, "velocity": 127, "duration": 678}, {"note": 0, "velocity": 0, "duration": 282}, {"note": 77, "velocity": 127, "duration": 680}, {"note": 0, "velocity": 0, "duration": 280}, {"note": 75, "velocity": 112, "duration": 769}, {"note": 0, "velocity": 0, "duration": 191}, {"note": 75, "velocity": 127, "duration": 672}, {"note": 0, "velocity": 0, "duration": 288}, {"note": 72, "velocity": 117, "duration": 889}, {"note": 70, "velocity": 122, "duration": 2047}, {"note": 0, "velocity": 0, "duration": 833}, {"note": 72, "velocity": 127, "duration": 1462}, {"note": 0, "velocity": 0, "duration": 458}, {"note": 72, "velocity": 127, "duration": 631}, {"note": 0, "velocity": 0, "duration": 329}, {"note": 75, "velocity": 127, "duration": 1920}, {"note": 72, "velocity": 112, "duration": 668}, {"note": 0, "velocity": 0, "duration": 292}, {"note": 70, "velocity": 127, "duration": 651}, {"note": 0, "velocity": 0, "duration": 309}, {"note": 70, "velocity": 102, "duration": 754}, {"note": 0, "velocity": 0, "duration": 206}, {"note": 67, "velocity": 112, "duration": 968}, {"note": 65, "velocity": 100, "duration": 1920}, {"note": 0, "velocity": 0, "duration": 960}, {"note": 70, "velocity": 127, "duration": 692}, {"note": 0, "velocity": 0, "duration": 268}, {"note": 70, "velocity": 100, "duration": 683}, {"note": 0, "velocity": 0, "duration": 277}, {"note": 75, "velocity": 127, "duration": 728}, {"note": 0, "velocity": 0, "duration": 232}, {"note": 70, "velocity": 107, "duration": 1573}, {"note": 0, "velocity": 0, "duration": 347}, {"note": 68, "velocity": 102, "duration": 486}, {"note": 70, "velocity": 88, "duration": 465}, {"note": 68, "velocity": 102, "duration": 3543}, {"note": 0, "velocity": 0, "duration": 25257}, {"note": 68, "velocity": 102, "duration": 1095}, {"note": 70, "velocity": 96, "duration": 1045}, {"note": 72, "velocity": 100, "duration": 975}, {"note": 70, "velocity": 127, "duration": 1366}, {"note": 0, "velocity": 0, "duration": 1514}, {"note": 68, "velocity": 107, "duration": 849}, {"note": 70, "velocity": 122, "duration": 885}, {"note": 65, "velocity": 96, "duration": 866}, {"note": 63, "velocity": 92, "duration": 1854}, {"note": 0, "velocity": 0, "duration": 1026}, {"note": 75, "velocity": 127, "duration": 1194}, {"note": 0, "velocity": 0, "duration": 726}, {"note": 75, "velocity": 127, "duration": 550}, {"note": 0, "velocity": 0, "duration": 410}, {"note": 72, "velocity": 127, "duration": 715}, {"note": 0, "velocity": 0, "duration": 245}, {"note": 68, "velocity": 117, "duration": 647}, {"note": 0, "velocity": 0, "duration": 313}, {"note": 65, "velocity": 100, "duration": 745}, {"note": 0, "velocity": 0, "duration": 215}, {"note": 70, "velocity": 122, "duration": 2640}, {"note": 0, "velocity": 0, "duration": 3120}, {"note": 72, "velocity": 112, "duration": 1486}, {"note": 0, "velocity": 0, "duration": 434}, {"note": 72, "velocity": 117, "duration": 817}, {"note": 0, "velocity": 0, "duration": 143}, {"note": 75, "velocity": 127, "duration": 1076}, {"note": 0, "velocity": 0, "duration": 844}, {"note": 72, "velocity": 127, "duration": 710}, {"note": 0, "velocity": 0, "duration": 250}, {"note": 70, "velocity": 122, "duration": 816}, {"note": 0, "velocity": 0, "duration": 144}, {"note": 72, "velocity": 122, "duration": 594}, {"note": 0, "velocity": 0, "duration": 366}, {"note": 72, "velocity": 102, "duration": 554}, {"note": 70, "velocity": 85, "duration": 488}, {"note": 68, "velocity": 99, "duration": 1997}, {"note": 0, "velocity": 0, "duration": 883}, {"note": 70, "velocity": 127, "duration": 1497}, {"note": 0, "velocity": 0, "duration": 423}, {"note": 68, "velocity": 117, "duration": 661}, {"note": 0, "velocity": 0, "duration": 299}, {"note": 65, "velocity": 99, "duration": 776}, {"note": 0, "velocity": 0, "duration": 184}, {"note": 68, "velocity": 112, "duration": 623}, {"note": 0, "velocity": 0, "duration": 337}, {"note": 65, "velocity": 112, "duration": 910}, {"note": 63, "velocity": 112, "duration": 2752}, {"note": 0, "velocity": 0, "duration": 3008}, {"note": 68, "velocity": 102, "duration": 1095}, {"note": 70, "velocity": 96, "duration": 1045}, {"note": 72, "velocity": 100, "duration": 975}, {"note": 70, "velocity": 127, "duration": 1366}, {"note": 0, "velocity": 0, "duration": 1514}, {"note": 68, "velocity": 107, "duration": 849}, {"note": 70, "velocity": 122, "duration": 885}, {"note": 65, "velocity": 96, "duration": 866}, {"note": 63, "velocity": 92, "duration": 1854}, {"note": 0, "velocity": 0, "duration": 1026}, {"note": 75, "velocity": 127, "duration": 1194}, {"note": 0, "velocity": 0, "duration": 726}, {"note": 75, "velocity": 127, "duration": 550}, {"note": 0, "velocity": 0, "duration": 410}, {"note": 72, "velocity": 127, "duration": 715}, {"note": 0, "velocity": 0, "duration": 245}, {"note": 68, "velocity": 117, "duration": 647}, {"note": 0, "velocity": 0, "duration": 313}, {"note": 65, "velocity": 100, "duration": 745}, {"note": 0, "velocity": 0, "duration": 215}, {"note": 70, "velocity": 122, "duration": 2640}, {"note": 0, "velocity": 0, "duration": 3120}, {"note": 72, "velocity": 112, "duration": 1486}, {"note": 0, "velocity": 0, "duration": 434}, {"note": 72, "velocity": 117, "duration": 817}, {"note": 0, "velocity": 0, "duration": 143}, {"note": 75, "velocity": 127, "duration": 1076}, {"note": 0, "velocity": 0, "duration": 844}, {"note": 72, "velocity": 127, "duration": 710}, {"note": 0, "velocity": 0, "duration": 250}, {"note": 70, "velocity": 122, "duration": 816}, {"note": 0, "velocity": 0, "duration": 144}, {"note": 72, "velocity": 122, "duration": 594}, {"note": 0, "velocity": 0, "duration": 366}, {"note": 72, "velocity": 102, "duration": 554}, {"note": 70, "velocity": 85, "duration": 488}, {"note": 68, "velocity": 99, "duration": 1997}, {"note": 0, "velocity": 0, "duration": 883}, {"note": 70, "velocity": 127, "duration": 960}, {"note": 70, "velocity": 122, "duration": 546}, {"note": 0, "velocity": 0, "duration": 414}, {"note": 70, "velocity": 117, "duration": 467}, {"note": 72, "velocity": 93, "duration": 504}, {"note": 70, "velocity": 122, "duration": 594}, {"note": 0, "velocity": 0, "duration": 1326}, {"note": 68, "velocity": 117, "duration": 482}, {"note": 70, "velocity": 97, "duration": 496}, {"note": 68, "velocity": 112, "duration": 2207}, {"note": 0, "velocity": 0, "duration": 3553}, {"note": 75, "velocity": 127, "duration": 1625}, {"note": 0, "velocity": 0, "duration": 295}, {"note": 77, "velocity": 127, "duration": 972}, {"note": 75, "velocity": 117, "duration": 1858}, {"note": 0, "velocity": 0, "duration": 1022}, {"note": 77, "velocity": 127, "duration": 1426}, {"note": 0, "velocity": 0, "duration": 494}, {"note": 75, "velocity": 127, "duration": 513}, {"note": 77, "velocity": 97, "duration": 479}, {"note": 75, "velocity": 117, "duration": 1946}, {"note": 0, "velocity": 0, "duration": 934}, {"note": 77, "velocity": 127, "duration": 1356}, {"note": 0, "velocity": 0, "duration": 564}, {"note": 75, "velocity": 127, "duration": 733}, {"note": 0, "velocity": 0, "duration": 227}, {"note": 77, "velocity": 127, "duration": 791}, {"note": 0, "velocity": 0, "duration": 169}, {"note": 68, "velocity": 112, "duration": 1180}, {"note": 0, "velocity": 0, "duration": 740}, {"note": 68, "velocity": 122, "duration": 1007}, {"note": 65, "velocity": 97, "duration": 988}, {"note": 72, "velocity": 117, "duration": 889}, {"note": 70, "velocity": 122, "duration": 2047}, {"note": 0, "velocity": 0, "duration": 833}, {"note": 72, "velocity": 127, "duration": 1462}, {"note": 0, "velocity": 0, "duration": 458}, {"note": 72, "velocity": 127, "duration": 631}, {"note": 0, "velocity": 0, "duration": 329}, {"note": 75, "velocity": 127, "duration": 992}, {"note": 0, "velocity": 0, "duration": 928}, {"note": 72, "velocity": 112, "duration": 668}, {"note": 0, "velocity": 0, "duration": 292}, {"note": 70, "velocity": 127, "duration": 651}, {"note": 0, "velocity": 0, "duration": 309}, {"note": 70, "velocity": 102, "duration": 754}, {"note": 0, "velocity": 0, "duration": 206}, {"note": 67, "velocity": 112, "duration": 968}, {"note": 65, "velocity": 100, "duration": 641}, {"note": 0, "velocity": 0, "duration": 2239}, {"note": 70, "velocity": 127, "duration": 692}, {"note": 0, "velocity": 0, "duration": 268}, {"note": 70, "velocity": 100, "duration": 683}, {"note": 0, "velocity": 0, "duration": 277}, {"note": 72, "velocity": 122, "duration": 685}, {"note": 0, "velocity": 0, "duration": 275}, {"note": 75, "velocity": 122, "duration": 714}, {"note": 0, "velocity": 0, "duration": 246}, {"note": 77, "velocity": 107, "duration": 847}, {"note": 79, "velocity": 127, "duration": 554}, {"note": 0, "velocity": 0, "duration": 166}, {"note": 77, "velocity": 97, "duration": 461}, {"note": 0, "velocity": 0, "duration": 259}, {"note": 75, "velocity": 107, "duration": 3030}, {"note": 0, "velocity": 0, "duration": 2250}, {"note": 75, "velocity": 127, "duration": 1625}, {"note": 0, "velocity": 0, "duration": 295}, {"note": 77, "velocity": 127, "duration": 972}, {"note": 75, "velocity": 117, "duration": 1858}, {"note": 0, "velocity": 0, "duration": 1022}, {"note": 77, "velocity": 127, "duration": 616}, {"note": 80, "velocity": 117, "duration": 1132}, {"note": 75, "velocity": 127, "duration": 513}, {"note": 77, "velocity": 97, "duration": 479}, {"note": 75, "velocity": 117, "duration": 1946}, {"note": 0, "velocity": 0, "duration": 934}, {"note": 77, "velocity": 127, "duration": 960}, {"note": 80, "velocity": 122, "duration": 572}, {"note": 0, "velocity": 0, "duration": 388}, {"note": 77, "velocity": 112, "duration": 920}, {"note": 82, "velocity": 117, "duration": 869}, {"note": 80, "velocity": 127, "duration": 678}, {"note": 0, "velocity": 0, "duration": 282}, {"note": 77, "velocity": 127, "duration": 680}, {"note": 0, "velocity": 0, "duration": 280}, {"note": 75, "velocity": 112, "duration": 769}, {"note": 0, "velocity": 0, "duration": 191}, {"note": 75, "velocity": 127, "duration": 672}, {"note": 0, "velocity": 0, "duration": 288}, {"note": 72, "velocity": 117, "duration": 889}, {"note": 70, "velocity": 122, "duration": 2047}, {"note": 0, "velocity": 0, "duration": 833}, {"note": 72, "velocity": 127, "duration": 1462}, {"note": 0, "velocity": 0, "duration": 458}, {"note": 72, "velocity": 127, "duration": 631}, {"note": 0, "velocity": 0, "duration": 329}, {"note": 75, "velocity": 127, "duration": 1920}, {"note": 72, "velocity": 112, "duration": 668}, {"note": 0, "velocity": 0, "duration": 292}, {"note": 70, "velocity": 127, "duration": 651}, {"note": 0, "velocity": 0, "duration": 309}, {"note": 70, "velocity": 102, "duration": 754}, {"note": 0, "velocity": 0, "duration": 206}, {"note": 67, "velocity": 112, "duration": 968}, {"note": 65, "velocity": 100, "duration": 1920}, {"note": 0, "velocity": 0, "duration": 960}, {"note": 70, "velocity": 127, "duration": 692}, {"note": 0, "velocity": 0, "duration": 268}, {"note": 70, "velocity": 100, "duration": 683}, {"note": 0, "velocity": 0, "duration": 277}, {"note": 75, "velocity": 127, "duration": 728}, {"note": 0, "velocity": 0, "duration": 232}, {"note": 70, "velocity": 107, "duration": 1573}, {"note": 0, "velocity": 0, "duration": 347}, {"note": 68, "velocity": 102, "duration": 486}, {"note": 70, "velocity": 88, "duration": 465}, {"note": 68, "velocity": 102, "duration": 3543}, {"note": 0, "velocity": 0, "duration": 2217}, {"note": 72, "velocity": 127, "duration": 1462}, {"note": 0, "velocity": 0, "duration": 458}, {"note": 72, "velocity": 127, "duration": 631}, {"note": 0, "velocity": 0, "duration": 329}, {"note": 75, "velocity": 127, "duration": 1920}, {"note": 72, "velocity": 112, "duration": 668}, {"note": 0, "velocity": 0, "duration": 292}, {"note": 70, "velocity": 127, "duration": 651}, {"note": 0, "velocity": 0, "duration": 309}, {"note": 70, "velocity": 102, "duration": 754}, {"note": 0, "velocity": 0, "duration": 206}, {"note": 67, "velocity": 112, "duration": 968}, {"note": 65, "velocity": 100, "duration": 1920}, {"note": 0, "velocity": 0, "duration": 1034}, {"note": 70, "velocity": 86, "duration": 268}, {"note": 0, "velocity": 0, "duration": 215}, {"note": 70, "velocity": 90, "duration": 206}, {"note": 0, "velocity": 0, "duration": 272}, {"note": 70, "velocity": 107, "duration": 1043}, {"note": 0, "velocity": 0, "duration": 477}, {"note": 75, "velocity": 112, "duration": 699}, {"note": 0, "velocity": 0, "duration": 553}, {"note": 77, "velocity": 127, "duration": 1746}, {"note": 80, "velocity": 117, "duration": 698}, {"note": 82, "velocity": 117, "duration": 4028}, {"note": 84, "velocity": 127, "duration": 5890}, {"note": 0, "velocity": 0, "duration": 1890}, {"note": 80, "velocity": 112, "duration": 1074}, {"note": 82, "velocity": 102, "duration": 4490}, {"note": 80, "velocity": 122, "duration": 10813}]]