[[{"note": 71, "velocity": 107, "duration": 661}, {"note": 69, "velocity": 97, "duration": 425}, {"note": 66, "velocity": 90, "duration": 1055}, {"note": 0, "velocity": 0, "duration": 145}, {"note": 71, "velocity": 99, "duration": 299}, {"note": 73, "velocity": 100, "duration": 250}, {"note": 74, "velocity": 93, "duration": 237}, {"note": 73, "velocity": 102, "duration": 249}, {"note": 71, "velocity": 93, "duration": 129}, {"note": 0, "velocity": 0, "duration": 111}, {"note": 69, "velocity": 100, "duration": 146}, {"note": 0, "velocity": 0, "duration": 94}, {"note": 71, "velocity": 100, "duration": 415}, {"note": 0, "velocity": 0, "duration": 305}, {"note": 66, "velocity": 93, "duration": 486}, {"note": 64, "velocity": 90, "duration": 850}, {"note": 0, "velocity": 0, "duration": 1310}, {"note": 62, "velocity": 97, "duration": 163}, {"note": 0, "velocity": 0, "duration": 77}, {"note": 64, "velocity": 88, "duration": 111}, {"note": 0, "velocity": 0, "duration": 129}, {"note": 66, "velocity": 107, "duration": 585}, {"note": 0, "velocity": 0, "duration": 135}, {"note": 59, "velocity": 88, "duration": 173}, {"note": 0, "velocity": 0, "duration": 307}, {"note": 59, "velocity": 83, "duration": 1061}, {"note": 0, "velocity": 0, "duration": 619}, {"note": 59, "velocity": 89, "duration": 287}, {"note": 62, "velocity": 78, "duration": 223}, {"note": 64, "velocity": 86, "duration": 216}, {"note": 69, "velocity": 76, "duration": 119}, {"note": 0, "velocity": 0, "duration": 121}, {"note": 66, "velocity": 96, "duration": 1464}, {"note": 0, "velocity": 0, "duration": 2376}, {"note": 71, "velocity": 107, "duration": 661}, {"note": 69, "velocity": 97, "duration": 425}, {"note": 66, "velocity": 90, "duration": 1055}, {"note": 0, "velocity": 0, "duration": 145}, {"note": 71, "velocity": 99, "duration": 299}, {"note": 73, "velocity": 100, "duration": 250}, {"note": 74, "velocity": 93, "duration": 237}, {"note": 73, "velocity": 102, "duration": 249}, {"note": 71, "velocity": 93, "duration": 129}, {"note": 0, "velocity": 0, "duration": 111}, {"note": 69, "velocity": 100, "duration": 146}, {"note": 0, "velocity": 0, "duration": 94}, {"note": 71, "velocity": 100, "duration": 415}, {"note": 0, "velocity": 0, "duration": 305}, {"note": 66, "velocity": 93, "duration": 486}, {"note": 64, "velocity": 90, "duration": 850}, {"note": 0, "velocity": 0, "duration": 1310}, {"note": 62, "velocity": 97, "duration": 163}, {"note": 0, "velocity": 0, "duration": 77}, {"note": 64, "velocity": 88, "duration": 111}, {"note": 0, "velocity": 0, "duration": 129}, {"note": 66, "velocity": 107, "duration": 585}, {"note": 0, "velocity": 0, "duration": 135}, {"note": 59, "velocity": 88, "duration": 173}, {"note": 0, "velocity": 0, "duration": 307}, {"note": 59, "velocity": 83, "duration": 1061}, {"note": 0, "velocity": 0, "duration": 379}, {"note": 54, "velocity": 63, "duration": 224}, {"note": 62, "velocity": 72, "duration": 142}, {"note": 0, "velocity": 0, "duration": 98}, {"note": 62, "velocity": 75, "duration": 157}, {"note": 0, "velocity": 0, "duration": 83}, {"note": 61, "velocity": 78, "duration": 143}, {"note": 0, "velocity": 0, "duration": 97}, {"note": 62, "velocity": 92, "duration": 232}, {"note": 59, "velocity": 78, "duration": 1550}, {"note": 0, "velocity": 0, "duration": 1810}, {"note": 71, "velocity": 96, "duration": 157}, {"note": 0, "velocity": 0, "duration": 83}, {"note": 73, "velocity": 112, "duration": 115}, {"note": 0, "velocity": 0, "duration": 125}, {"note": 74, "velocity": 100, "duration": 84}, {"note": 0, "velocity": 0, "duration": 156}, {"note": 74, "velocity": 112, "duration": 84}, {"note": 0, "velocity": 0, "duration": 156}, {"note": 74, "velocity": 112, "duration": 76}, {"note": 0, "velocity": 0, "duration": 164}, {"note": 76, "velocity": 102, "duration": 85}, {"note": 0, "velocity": 0, "duration": 155}, {"note": 74, "velocity": 127, "duration": 153}, {"note": 0, "velocity": 0, "duration": 87}, {"note": 73, "velocity": 122, "duration": 99}, {"note": 0, "velocity": 0, "duration": 141}, {"note": 71, "velocity": 96, "duration": 100}, {"note": 0, "velocity": 0, "duration": 140}, {"note": 74, "velocity": 99, "duration": 117}, {"note": 0, "velocity": 0, "duration": 123}, {"note": 73, "velocity": 127, "duration": 158}, {"note": 0, "velocity": 0, "duration": 82}, {"note": 73, "velocity": 127, "duration": 65}, {"note": 0, "velocity": 0, "duration": 175}, {"note": 73, "velocity": 127, "duration": 101}, {"note": 0, "velocity": 0, "duration": 139}, {"note": 74, "velocity": 117, "duration": 104}, {"note": 0, "velocity": 0, "duration": 136}, {"note": 73, "velocity": 107, "duration": 116}, {"note": 71, "velocity": 86, "duration": 97}, {"note": 69, "velocity": 93, "duration": 337}, {"note": 0, "velocity": 0, "duration": 623}, {"note": 73, "velocity": 122, "duration": 90}, {"note": 0, "velocity": 0, "duration": 150}, {"note": 73, "velocity": 127, "duration": 80}, {"note": 0, "velocity": 0, "duration": 160}, {"note": 73, "velocity": 122, "duration": 94}, {"note": 0, "velocity": 0, "duration": 146}, {"note": 73, "velocity": 127, "duration": 115}, {"note": 0, "velocity": 0, "duration": 365}, {"note": 66, "velocity": 99, "duration": 150}, {"note": 0, "velocity": 0, "duration": 90}, {"note": 73, "velocity": 112, "duration": 102}, {"note": 0, "velocity": 0, "duration": 138}, {"note": 74, "velocity": 96, "duration": 125}, {"note": 73, "velocity": 100, "duration": 113}, {"note": 71, "velocity": 93, "duration": 945}, {"note": 0, "velocity": 0, "duration": 735}, {"note": 74, "velocity": 127, "duration": 128}, {"note": 0, "velocity": 0, "duration": 112}, {"note": 74, "velocity": 102, "duration": 135}, {"note": 0, "velocity": 0, "duration": 105}, {"note": 74, "velocity": 112, "duration": 132}, {"note": 0, "velocity": 0, "duration": 108}, {"note": 76, "velocity": 100, "duration": 120}, {"note": 0, "velocity": 0, "duration": 120}, {"note": 74, "velocity": 122, "duration": 163}, {"note": 0, "velocity": 0, "duration": 77}, {"note": 73, "velocity": 127, "duration": 108}, {"note": 0, "velocity": 0, "duration": 132}, {"note": 71, "velocity": 100, "duration": 112}, {"note": 0, "velocity": 0, "duration": 128}, {"note": 74, "velocity": 107, "duration": 88}, {"note": 0, "velocity": 0, "duration": 152}, {"note": 73, "velocity": 127, "duration": 101}, {"note": 0, "velocity": 0, "duration": 139}, {"note": 73, "velocity": 112, "duration": 95}, {"note": 0, "velocity": 0, "duration": 145}, {"note": 73, "velocity": 117, "duration": 120}, {"note": 0, "velocity": 0, "duration": 120}, {"note": 74, "velocity": 99, "duration": 106}, {"note": 0, "velocity": 0, "duration": 134}, {"note": 73, "velocity": 127, "duration": 116}, {"note": 71, "velocity": 83, "duration": 110}, {"note": 69, "velocity": 107, "duration": 327}, {"note": 0, "velocity": 0, "duration": 633}, {"note": 73, "velocity": 122, "duration": 118}, {"note": 0, "velocity": 0, "duration": 122}, {"note": 73, "velocity": 107, "duration": 99}, {"note": 0, "velocity": 0, "duration": 141}, {"note": 73, "velocity": 117, "duration": 121}, {"note": 0, "velocity": 0, "duration": 119}, {"note": 73, "velocity": 127, "duration": 115}, {"note": 0, "velocity": 0, "duration": 365}, {"note": 74, "velocity": 100, "duration": 201}, {"note": 76, "velocity": 102, "duration": 150}, {"note": 0, "velocity": 0, "duration": 90}, {"note": 78, "velocity": 117, "duration": 1487}, {"note": 0, "velocity": 0, "duration": 433}, {"note": 71, "velocity": 112, "duration": 387}, {"note": 0, "velocity": 0, "duration": 333}, {"note": 69, "velocity": 95, "duration": 303}, {"note": 0, "velocity": 0, "duration": 177}, {"note": 66, "velocity": 102, "duration": 697}, {"note": 0, "velocity": 0, "duration": 503}, {"note": 71, "velocity": 102, "duration": 134}, {"note": 0, "velocity": 0, "duration": 106}, {"note": 73, "velocity": 122, "duration": 78}, {"note": 0, "velocity": 0, "duration": 162}, {"note": 74, "velocity": 99, "duration": 183}, {"note": 73, "velocity": 102, "duration": 138}, {"note": 0, "velocity": 0, "duration": 102}, {"note": 71, "velocity": 112, "duration": 184}, {"note": 69, "velocity": 99, "duration": 141}, {"note": 0, "velocity": 0, "duration": 99}, {"note": 69, "velocity": 100, "duration": 298}, {"note": 0, "velocity": 0, "duration": 422}, {"note": 66, "velocity": 102, "duration": 220}, {"note": 0, "velocity": 0, "duration": 260}, {"note": 64, "velocity": 81, "duration": 749}, {"note": 0, "velocity": 0, "duration": 1411}, {"note": 62, "velocity": 100, "duration": 235}, {"note": 64, "velocity": 96, "duration": 187}, {"note": 66, "velocity": 117, "duration": 577}, {"note": 0, "velocity": 0, "duration": 143}, {"note": 59, "velocity": 100, "duration": 169}, {"note": 0, "velocity": 0, "duration": 71}, {"note": 59, "velocity": 96, "duration": 519}, {"note": 0, "velocity": 0, "duration": 1161}, {"note": 61, "velocity": 112, "duration": 110}, {"note": 0, "velocity": 0, "duration": 130}, {"note": 61, "velocity": 107, "duration": 139}, {"note": 0, "velocity": 0, "duration": 101}, {"note": 62, "velocity": 96, "duration": 177}, {"note": 0, "velocity": 0, "duration": 63}, {"note": 64, "velocity": 97, "duration": 219}, {"note": 69, "velocity": 93, "duration": 218}, {"note": 66, "velocity": 107, "duration": 1013}, {"note": 0, "velocity": 0, "duration": 2827}, {"note": 71, "velocity": 102, "duration": 329}, {"note": 0, "velocity": 0, "duration": 391}, {"note": 69, "velocity": 100, "duration": 267}, {"note": 0, "velocity": 0, "duration": 213}, {"note": 66, "velocity": 107, "duration": 518}, {"note": 0, "velocity": 0, "duration": 682}, {"note": 71, "velocity": 102, "duration": 171}, {"note": 0, "velocity": 0, "duration": 69}, {"note": 73, "velocity": 107, "duration": 127}, {"note": 0, "velocity": 0, "duration": 113}, {"note": 74, "velocity": 97, "duration": 159}, {"note": 0, "velocity": 0, "duration": 81}, {"note": 73, "velocity": 107, "duration": 151}, {"note": 0, "velocity": 0, "duration": 89}, {"note": 74, "velocity": 90, "duration": 88}, {"note": 0, "velocity": 0, "duration": 152}, {"note": 78, "velocity": 117, "duration": 131}, {"note": 0, "velocity": 0, "duration": 109}, {"note": 73, "velocity": 97, "duration": 347}, {"note": 0, "velocity": 0, "duration": 373}, {"note": 71, "velocity": 102, "duration": 357}, {"note": 0, "velocity": 0, "duration": 123}, {"note": 69, "velocity": 97, "duration": 450}, {"note": 0, "velocity": 0, "duration": 1710}, {"note": 62, "velocity": 95, "duration": 183}, {"note": 64, "velocity": 89, "duration": 125}, {"note": 0, "velocity": 0, "duration": 115}, {"note": 66, "velocity": 112, "duration": 571}, {"note": 0, "velocity": 0, "duration": 149}, {"note": 59, "velocity": 96, "duration": 124}, {"note": 0, "velocity": 0, "duration": 116}, {"note": 59, "velocity": 100, "duration": 510}, {"note": 0, "velocity": 0, "duration": 1170}, {"note": 57, "velocity": 92, "duration": 138}, {"note": 0, "velocity": 0, "duration": 102}, {"note": 74, "velocity": 102, "duration": 131}, {"note": 0, "velocity": 0, "duration": 109}, {"note": 74, "velocity": 112, "duration": 135}, {"note": 0, "velocity": 0, "duration": 105}, {"note": 73, "velocity": 112, "duration": 123}, {"note": 0, "velocity": 0, "duration": 117}, {"note": 74, "velocity": 127, "duration": 141}, {"note": 0, "velocity": 0, "duration": 99}, {"note": 73, "velocity": 117, "duration": 197}, {"note": 71, "velocity": 107, "duration": 1257}, {"note": 0, "velocity": 0, "duration": 13383}, {"note": 71, "velocity": 96, "duration": 157}, {"note": 0, "velocity": 0, "duration": 83}, {"note": 73, "velocity": 112, "duration": 115}, {"note": 0, "velocity": 0, "duration": 125}, {"note": 74, "velocity": 100, "duration": 84}, {"note": 0, "velocity": 0, "duration": 156}, {"note": 74, "velocity": 112, "duration": 84}, {"note": 0, "velocity": 0, "duration": 156}, {"note": 74, "velocity": 112, "duration": 76}, {"note": 0, "velocity": 0, "duration": 164}, {"note": 76, "velocity": 102, "duration": 85}, {"note": 0, "velocity": 0, "duration": 155}, {"note": 74, "velocity": 127, "duration": 153}, {"note": 0, "velocity": 0, "duration": 87}, {"note": 73, "velocity": 122, "duration": 99}, {"note": 0, "velocity": 0, "duration": 141}, {"note": 71, "velocity": 96, "duration": 100}, {"note": 0, "velocity": 0, "duration": 140}, {"note": 74, "velocity": 99, "duration": 117}, {"note": 0, "velocity": 0, "duration": 123}, {"note": 73, "velocity": 127, "duration": 158}, {"note": 0, "velocity": 0, "duration": 82}, {"note": 73, "velocity": 127, "duration": 65}, {"note": 0, "velocity": 0, "duration": 175}, {"note": 73, "velocity": 127, "duration": 101}, {"note": 0, "velocity": 0, "duration": 139}, {"note": 74, "velocity": 117, "duration": 104}, {"note": 0, "velocity": 0, "duration": 136}, {"note": 73, "velocity": 107, "duration": 116}, {"note": 71, "velocity": 86, "duration": 97}, {"note": 69, "velocity": 93, "duration": 337}, {"note": 0, "velocity": 0, "duration": 623}, {"note": 73, "velocity": 122, "duration": 90}, {"note": 0, "velocity": 0, "duration": 150}, {"note": 73, "velocity": 127, "duration": 80}, {"note": 0, "velocity": 0, "duration": 160}, {"note": 73, "velocity": 122, "duration": 94}, {"note": 0, "velocity": 0, "duration": 146}, {"note": 73, "velocity": 127, "duration": 115}, {"note": 0, "velocity": 0, "duration": 365}, {"note": 66, "velocity": 99, "duration": 150}, {"note": 0, "velocity": 0, "duration": 90}, {"note": 73, "velocity": 112, "duration": 102}, {"note": 0, "velocity": 0, "duration": 138}, {"note": 74, "velocity": 96, "duration": 125}, {"note": 73, "velocity": 100, "duration": 113}, {"note": 71, "velocity": 93, "duration": 945}, {"note": 0, "velocity": 0, "duration": 735}, {"note": 74, "velocity": 127, "duration": 128}, {"note": 0, "velocity": 0, "duration": 112}, {"note": 74, "velocity": 102, "duration": 135}, {"note": 0, "velocity": 0, "duration": 105}, {"note": 74, "velocity": 112, "duration": 132}, {"note": 0, "velocity": 0, "duration": 108}, {"note": 76, "velocity": 100, "duration": 120}, {"note": 0, "velocity": 0, "duration": 120}, {"note": 74, "velocity": 122, "duration": 163}, {"note": 0, "velocity": 0, "duration": 77}, {"note": 73, "velocity": 127, "duration": 108}, {"note": 0, "velocity": 0, "duration": 132}, {"note": 71, "velocity": 100, "duration": 112}, {"note": 0, "velocity": 0, "duration": 128}, {"note": 74, "velocity": 107, "duration": 88}, {"note": 0, "velocity": 0, "duration": 152}, {"note": 73, "velocity": 127, "duration": 101}, {"note": 0, "velocity": 0, "duration": 139}, {"note": 73, "velocity": 112, "duration": 95}, {"note": 0, "velocity": 0, "duration": 145}, {"note": 73, "velocity": 117, "duration": 120}, {"note": 0, "velocity": 0, "duration": 120}, {"note": 74, "velocity": 99, "duration": 106}, {"note": 0, "velocity": 0, "duration": 134}, {"note": 73, "velocity": 127, "duration": 116}, {"note": 71, "velocity": 83, "duration": 110}, {"note": 69, "velocity": 107, "duration": 327}, {"note": 0, "velocity": 0, "duration": 633}, {"note": 73, "velocity": 122, "duration": 118}, {"note": 0, "velocity": 0, "duration": 122}, {"note": 73, "velocity": 107, "duration": 99}, {"note": 0, "velocity": 0, "duration": 141}, {"note": 73, "velocity": 117, "duration": 121}, {"note": 0, "velocity": 0, "duration": 119}, {"note": 73, "velocity": 127, "duration": 115}, {"note": 0, "velocity": 0, "duration": 365}, {"note": 74, "velocity": 100, "duration": 201}, {"note": 76, "velocity": 102, "duration": 150}, {"note": 0, "velocity": 0, "duration": 90}, {"note": 78, "velocity": 117, "duration": 1487}, {"note": 0, "velocity": 0, "duration": 193}, {"note": 66, "velocity": 117, "duration": 94}, {"note": 0, "velocity": 0, "duration": 146}, {"note": 78, "velocity": 127, "duration": 1766}, {"note": 0, "velocity": 0, "duration": 394}, {"note": 71, "velocity": 107, "duration": 106}, {"note": 0, "velocity": 0, "duration": 134}, {"note": 71, "velocity": 96, "duration": 113}, {"note": 0, "velocity": 0, "duration": 127}, {"note": 73, "velocity": 107, "duration": 112}, {"note": 0, "velocity": 0, "duration": 128}, {"note": 74, "velocity": 122, "duration": 119}, {"note": 0, "velocity": 0, "duration": 121}, {"note": 73, "velocity": 117, "duration": 129}, {"note": 0, "velocity": 0, "duration": 111}, {"note": 74, "velocity": 112, "duration": 100}, {"note": 0, "velocity": 0, "duration": 140}, {"note": 78, "velocity": 122, "duration": 118}, {"note": 0, "velocity": 0, "duration": 122}, {"note": 76, "velocity": 122, "duration": 178}, {"note": 0, "velocity": 0, "duration": 542}, {"note": 71, "velocity": 102, "duration": 165}, {"note": 0, "velocity": 0, "duration": 315}, {"note": 76, "velocity": 107, "duration": 371}, {"note": 0, "velocity": 0, "duration": 1789}, {"note": 74, "velocity": 117, "duration": 164}, {"note": 0, "velocity": 0, "duration": 76}, {"note": 78, "velocity": 117, "duration": 126}, {"note": 0, "velocity": 0, "duration": 114}, {"note": 78, "velocity": 127, "duration": 359}, {"note": 0, "velocity": 0, "duration": 121}, {"note": 74, "velocity": 107, "duration": 199}, {"note": 71, "velocity": 97, "duration": 244}, {"note": 0, "velocity": 0, "duration": 236}, {"note": 66, "velocity": 117, "duration": 250}, {"note": 0, "velocity": 0, "duration": 230}, {"note": 78, "velocity": 122, "duration": 176}, {"note": 0, "velocity": 0, "duration": 64}, {"note": 76, "velocity": 112, "duration": 251}, {"note": 0, "velocity": 0, "duration": 229}, {"note": 73, "velocity": 122, "duration": 127}, {"note": 0, "velocity": 0, "duration": 113}, {"note": 73, "velocity": 127, "duration": 322}, {"note": 0, "velocity": 0, "duration": 158}, {"note": 73, "velocity": 127, "duration": 49}, {"note": 0, "velocity": 0, "duration": 71}, {"note": 73, "velocity": 99, "duration": 49}, {"note": 0, "velocity": 0, "duration": 71}, {"note": 73, "velocity": 117, "duration": 76}, {"note": 0, "velocity": 0, "duration": 164}, {"note": 74, "velocity": 117, "duration": 87}, {"note": 0, "velocity": 0, "duration": 153}, {"note": 73, "velocity": 127, "duration": 79}, {"note": 0, "velocity": 0, "duration": 161}, {"note": 71, "velocity": 102, "duration": 267}, {"note": 0, "velocity": 0, "duration": 213}, {"note": 78, "velocity": 122, "duration": 525}, {"note": 0, "velocity": 0, "duration": 2355}, {"note": 66, "velocity": 117, "duration": 94}, {"note": 0, "velocity": 0, "duration": 146}, {"note": 78, "velocity": 127, "duration": 1766}, {"note": 0, "velocity": 0, "duration": 394}, {"note": 71, "velocity": 107, "duration": 106}, {"note": 0, "velocity": 0, "duration": 134}, {"note": 71, "velocity": 96, "duration": 113}, {"note": 0, "velocity": 0, "duration": 127}, {"note": 73, "velocity": 107, "duration": 112}, {"note": 0, "velocity": 0, "duration": 128}, {"note": 74, "velocity": 122, "duration": 119}, {"note": 0, "velocity": 0, "duration": 121}, {"note": 73, "velocity": 117, "duration": 129}, {"note": 0, "velocity": 0, "duration": 111}, {"note": 74, "velocity": 112, "duration": 100}, {"note": 0, "velocity": 0, "duration": 140}, {"note": 78, "velocity": 122, "duration": 118}, {"note": 0, "velocity": 0, "duration": 122}, {"note": 76, "velocity": 122, "duration": 178}, {"note": 0, "velocity": 0, "duration": 542}, {"note": 71, "velocity": 102, "duration": 165}, {"note": 0, "velocity": 0, "duration": 315}, {"note": 76, "velocity": 107, "duration": 371}, {"note": 0, "velocity": 0, "duration": 1789}, {"note": 74, "velocity": 117, "duration": 164}, {"note": 0, "velocity": 0, "duration": 76}, {"note": 78, "velocity": 117, "duration": 126}, {"note": 0, "velocity": 0, "duration": 114}, {"note": 78, "velocity": 127, "duration": 359}, {"note": 0, "velocity": 0, "duration": 121}, {"note": 74, "velocity": 107, "duration": 199}, {"note": 71, "velocity": 97, "duration": 244}, {"note": 0, "velocity": 0, "duration": 236}, {"note": 66, "velocity": 117, "duration": 250}, {"note": 0, "velocity": 0, "duration": 230}, {"note": 78, "velocity": 122, "duration": 176}, {"note": 0, "velocity": 0, "duration": 64}, {"note": 76, "velocity": 112, "duration": 251}, {"note": 0, "velocity": 0, "duration": 229}, {"note": 73, "velocity": 122, "duration": 127}, {"note": 0, "velocity": 0, "duration": 113}, {"note": 73, "velocity": 127, "duration": 322}, {"note": 0, "velocity": 0, "duration": 158}, {"note": 73, "velocity": 112, "duration": 123}, {"note": 0, "velocity": 0, "duration": 117}, {"note": 81, "velocity": 107, "duration": 162}, {"note": 0, "velocity": 0, "duration": 78}, {"note": 79, "velocity": 107, "duration": 115}, {"note": 0, "velocity": 0, "duration": 125}, {"note": 78, "velocity": 122, "duration": 2031}, {"note": 0, "velocity": 0, "duration": 1809}, {"note": 71, "velocity": 107, "duration": 661}, {"note": 69, "velocity": 97, "duration": 425}, {"note": 66, "velocity": 112, "duration": 121}, {"note": 66, "velocity": 90, "duration": 1055}, {"note": 0, "velocity": 0, "duration": 145}, {"note": 71, "velocity": 99, "duration": 299}, {"note": 73, "velocity": 100, "duration": 250}, {"note": 74, "velocity": 93, "duration": 237}, {"note": 73, "velocity": 102, "duration": 249}, {"note": 71, "velocity": 93, "duration": 129}, {"note": 0, "velocity": 0, "duration": 111}, {"note": 69, "velocity": 100, "duration": 146}, {"note": 0, "velocity": 0, "duration": 94}, {"note": 69, "velocity": 100, "duration": 415}, {"note": 0, "velocity": 0, "duration": 305}, {"note": 66, "velocity": 93, "duration": 486}, {"note": 64, "velocity": 90, "duration": 850}, {"note": 0, "velocity": 0, "duration": 1310}, {"note": 62, "velocity": 97, "duration": 163}, {"note": 0, "velocity": 0, "duration": 77}, {"note": 64, "velocity": 88, "duration": 111}, {"note": 0, "velocity": 0, "duration": 129}, {"note": 66, "velocity": 107, "duration": 585}, {"note": 0, "velocity": 0, "duration": 135}, {"note": 59, "velocity": 88, "duration": 173}, {"note": 0, "velocity": 0, "duration": 67}, {"note": 59, "velocity": 83, "duration": 1061}, {"note": 0, "velocity": 0, "duration": 859}, {"note": 62, "velocity": 95, "duration": 125}, {"note": 0, "velocity": 0, "duration": 115}, {"note": 62, "velocity": 92, "duration": 197}, {"note": 64, "velocity": 93, "duration": 197}, {"note": 69, "velocity": 102, "duration": 206}, {"note": 66, "velocity": 122, "duration": 1475}, {"note": 0, "velocity": 0, "duration": 2365}, {"note": 71, "velocity": 107, "duration": 661}, {"note": 69, "velocity": 97, "duration": 425}, {"note": 66, "velocity": 90, "duration": 1055}, {"note": 0, "velocity": 0, "duration": 145}, {"note": 71, "velocity": 99, "duration": 299}, {"note": 73, "velocity": 100, "duration": 250}, {"note": 74, "velocity": 93, "duration": 237}, {"note": 73, "velocity": 102, "duration": 249}, {"note": 74, "velocity": 97, "duration": 145}, {"note": 0, "velocity": 0, "duration": 95}, {"note": 78, "velocity": 112, "duration": 118}, {"note": 0, "velocity": 0, "duration": 122}, {"note": 73, "velocity": 127, "duration": 326}, {"note": 0, "velocity": 0, "duration": 394}, {"note": 71, "velocity": 107, "duration": 311}, {"note": 0, "velocity": 0, "duration": 169}, {"note": 69, "velocity": 122, "duration": 403}, {"note": 0, "velocity": 0, "duration": 1757}, {"note": 62, "velocity": 97, "duration": 163}, {"note": 0, "velocity": 0, "duration": 77}, {"note": 64, "velocity": 88, "duration": 111}, {"note": 0, "velocity": 0, "duration": 129}, {"note": 66, "velocity": 107, "duration": 585}, {"note": 0, "velocity": 0, "duration": 135}, {"note": 59, "velocity": 88, "duration": 173}, {"note": 0, "velocity": 0, "duration": 67}, {"note": 59, "velocity": 83, "duration": 1061}, {"note": 0, "velocity": 0, "duration": 859}, {"note": 74, "velocity": 122, "duration": 96}, {"note": 0, "velocity": 0, "duration": 144}, {"note": 74, "velocity": 102, "duration": 94}, {"note": 0, "velocity": 0, "duration": 146}, {"note": 73, "velocity": 127, "duration": 91}, {"note": 0, "velocity": 0, "duration": 149}, {"note": 74, "velocity": 100, "duration": 105}, {"note": 0, "velocity": 0, "duration": 135}, {"note": 73, "velocity": 127, "duration": 127}, {"note": 71, "velocity": 112, "duration": 3081}]]