[[{"note": 69, "velocity": 99, "duration": 255}, {"note": 73, "velocity": 99, "duration": 187}, {"note": 73, "velocity": 112, "duration": 617}, {"note": 0, "velocity": 0, "duration": 343}, {"note": 73, "velocity": 127, "duration": 221}, {"note": 71, "velocity": 90, "duration": 215}, {"note": 69, "velocity": 93, "duration": 226}, {"note": 71, "velocity": 99, "duration": 324}, {"note": 0, "velocity": 0, "duration": 156}, {"note": 73, "velocity": 112, "duration": 572}, {"note": 0, "velocity": 0, "duration": 628}, {"note": 69, "velocity": 95, "duration": 266}, {"note": 73, "velocity": 95, "duration": 181}, {"note": 73, "velocity": 102, "duration": 625}, {"note": 0, "velocity": 0, "duration": 335}, {"note": 74, "velocity": 99, "duration": 222}, {"note": 73, "velocity": 100, "duration": 174}, {"note": 0, "velocity": 0, "duration": 66}, {"note": 76, "velocity": 100, "duration": 257}, {"note": 0, "velocity": 0, "duration": 103}, {"note": 69, "velocity": 96, "duration": 1025}, {"note": 0, "velocity": 0, "duration": 535}, {"note": 69, "velocity": 86, "duration": 246}, {"note": 74, "velocity": 96, "duration": 110}, {"note": 0, "velocity": 0, "duration": 130}, {"note": 74, "velocity": 97, "duration": 722}, {"note": 0, "velocity": 0, "duration": 238}, {"note": 74, "velocity": 112, "duration": 225}, {"note": 73, "velocity": 96, "duration": 262}, {"note": 69, "velocity": 74, "duration": 250}, {"note": 64, "velocity": 76, "duration": 531}, {"note": 73, "velocity": 107, "duration": 977}, {"note": 0, "velocity": 0, "duration": 223}, {"note": 69, "velocity": 92, "duration": 145}, {"note": 73, "velocity": 99, "duration": 89}, {"note": 0, "velocity": 0, "duration": 151}, {"note": 71, "velocity": 96, "duration": 522}, {"note": 0, "velocity": 0, "duration": 78}, {"note": 69, "velocity": 99, "duration": 122}, {"note": 73, "velocity": 112, "duration": 70}, {"note": 0, "velocity": 0, "duration": 170}, {"note": 71, "velocity": 107, "duration": 388}, {"note": 0, "velocity": 0, "duration": 212}, {"note": 69, "velocity": 96, "duration": 78}, {"note": 73, "velocity": 107, "duration": 62}, {"note": 0, "velocity": 0, "duration": 178}, {"note": 71, "velocity": 112, "duration": 987}, {"note": 0, "velocity": 0, "duration": 573}, {"note": 69, "velocity": 99, "duration": 255}, {"note": 73, "velocity": 99, "duration": 187}, {"note": 73, "velocity": 112, "duration": 617}, {"note": 0, "velocity": 0, "duration": 343}, {"note": 73, "velocity": 127, "duration": 221}, {"note": 71, "velocity": 90, "duration": 215}, {"note": 69, "velocity": 93, "duration": 226}, {"note": 71, "velocity": 99, "duration": 324}, {"note": 0, "velocity": 0, "duration": 156}, {"note": 76, "velocity": 112, "duration": 572}, {"note": 0, "velocity": 0, "duration": 628}, {"note": 69, "velocity": 95, "duration": 266}, {"note": 73, "velocity": 95, "duration": 181}, {"note": 73, "velocity": 102, "duration": 625}, {"note": 0, "velocity": 0, "duration": 335}, {"note": 74, "velocity": 99, "duration": 222}, {"note": 73, "velocity": 100, "duration": 174}, {"note": 0, "velocity": 0, "duration": 66}, {"note": 76, "velocity": 100, "duration": 257}, {"note": 0, "velocity": 0, "duration": 103}, {"note": 69, "velocity": 96, "duration": 1025}, {"note": 0, "velocity": 0, "duration": 535}, {"note": 69, "velocity": 86, "duration": 246}, {"note": 74, "velocity": 96, "duration": 110}, {"note": 0, "velocity": 0, "duration": 130}, {"note": 74, "velocity": 97, "duration": 722}, {"note": 0, "velocity": 0, "duration": 238}, {"note": 74, "velocity": 112, "duration": 225}, {"note": 73, "velocity": 96, "duration": 262}, {"note": 69, "velocity": 74, "duration": 250}, {"note": 76, "velocity": 122, "duration": 260}, {"note": 0, "velocity": 0, "duration": 220}, {"note": 73, "velocity": 107, "duration": 240}, {"note": 73, "velocity": 117, "duration": 180}, {"note": 81, "velocity": 112, "duration": 492}, {"note": 0, "velocity": 0, "duration": 708}, {"note": 76, "velocity": 117, "duration": 212}, {"note": 74, "velocity": 107, "duration": 203}, {"note": 74, "velocity": 112, "duration": 140}, {"note": 0, "velocity": 0, "duration": 100}, {"note": 69, "velocity": 86, "duration": 123}, {"note": 0, "velocity": 0, "duration": 117}, {"note": 69, "velocity": 102, "duration": 268}, {"note": 0, "velocity": 0, "duration": 212}, {"note": 68, "velocity": 99, "duration": 146}, {"note": 0, "velocity": 0, "duration": 94}, {"note": 69, "velocity": 93, "duration": 969}, {"note": 0, "velocity": 0, "duration": 231}, {"note": 69, "velocity": 100, "duration": 182}, {"note": 71, "velocity": 112, "duration": 116}, {"note": 0, "velocity": 0, "duration": 124}, {"note": 73, "velocity": 127, "duration": 118}, {"note": 0, "velocity": 0, "duration": 122}, {"note": 76, "velocity": 112, "duration": 55}, {"note": 0, "velocity": 0, "duration": 65}, {"note": 76, "velocity": 122, "duration": 523}, {"note": 0, "velocity": 0, "duration": 557}, {"note": 73, "velocity": 127, "duration": 167}, {"note": 0, "velocity": 0, "duration": 73}, {"note": 71, "velocity": 107, "duration": 133}, {"note": 0, "velocity": 0, "duration": 107}, {"note": 69, "velocity": 102, "duration": 145}, {"note": 0, "velocity": 0, "duration": 95}, {"note": 71, "velocity": 127, "duration": 48}, {"note": 0, "velocity": 0, "duration": 72}, {"note": 73, "velocity": 127, "duration": 679}, {"note": 0, "velocity": 0, "duration": 401}, {"note": 69, "velocity": 112, "duration": 162}, {"note": 0, "velocity": 0, "duration": 78}, {"note": 71, "velocity": 100, "duration": 139}, {"note": 0, "velocity": 0, "duration": 101}, {"note": 73, "velocity": 127, "duration": 126}, {"note": 0, "velocity": 0, "duration": 114}, {"note": 81, "velocity": 122, "duration": 54}, {"note": 0, "velocity": 0, "duration": 66}, {"note": 81, "velocity": 122, "duration": 200}, {"note": 83, "velocity": 122, "duration": 87}, {"note": 81, "velocity": 117, "duration": 342}, {"note": 0, "velocity": 0, "duration": 138}, {"note": 81, "velocity": 127, "duration": 137}, {"note": 0, "velocity": 0, "duration": 103}, {"note": 80, "velocity": 127, "duration": 162}, {"note": 0, "velocity": 0, "duration": 78}, {"note": 78, "velocity": 127, "duration": 138}, {"note": 0, "velocity": 0, "duration": 102}, {"note": 76, "velocity": 127, "duration": 176}, {"note": 0, "velocity": 0, "duration": 64}, {"note": 78, "velocity": 127, "duration": 59}, {"note": 0, "velocity": 0, "duration": 61}, {"note": 78, "velocity": 122, "duration": 207}, {"note": 76, "velocity": 112, "duration": 531}, {"note": 0, "velocity": 0, "duration": 309}, {"note": 69, "velocity": 112, "duration": 167}, {"note": 0, "velocity": 0, "duration": 73}, {"note": 71, "velocity": 97, "duration": 148}, {"note": 0, "velocity": 0, "duration": 92}, {"note": 73, "velocity": 122, "duration": 173}, {"note": 0, "velocity": 0, "duration": 67}, {"note": 76, "velocity": 127, "duration": 48}, {"note": 0, "velocity": 0, "duration": 72}, {"note": 76, "velocity": 127, "duration": 462}, {"note": 0, "velocity": 0, "duration": 618}, {"note": 73, "velocity": 127, "duration": 142}, {"note": 0, "velocity": 0, "duration": 98}, {"note": 71, "velocity": 102, "duration": 132}, {"note": 0, "velocity": 0, "duration": 108}, {"note": 69, "velocity": 112, "duration": 112}, {"note": 0, "velocity": 0, "duration": 128}, {"note": 71, "velocity": 122, "duration": 60}, {"note": 69, "velocity": 112, "duration": 576}, {"note": 0, "velocity": 0, "duration": 504}, {"note": 69, "velocity": 107, "duration": 155}, {"note": 0, "velocity": 0, "duration": 85}, {"note": 71, "velocity": 112, "duration": 147}, {"note": 0, "velocity": 0, "duration": 93}, {"note": 73, "velocity": 122, "duration": 162}, {"note": 0, "velocity": 0, "duration": 78}, {"note": 76, "velocity": 127, "duration": 148}, {"note": 0, "velocity": 0, "duration": 92}, {"note": 76, "velocity": 127, "duration": 235}, {"note": 74, "velocity": 122, "duration": 151}, {"note": 0, "velocity": 0, "duration": 89}, {"note": 74, "velocity": 112, "duration": 142}, {"note": 0, "velocity": 0, "duration": 98}, {"note": 73, "velocity": 127, "duration": 175}, {"note": 0, "velocity": 0, "duration": 65}, {"note": 81, "velocity": 127, "duration": 355}, {"note": 0, "velocity": 0, "duration": 125}, {"note": 73, "velocity": 127, "duration": 137}, {"note": 0, "velocity": 0, "duration": 103}, {"note": 73, "velocity": 127, "duration": 235}, {"note": 71, "velocity": 117, "duration": 610}, {"note": 0, "velocity": 0, "duration": 350}, {"note": 69, "velocity": 112, "duration": 167}, {"note": 0, "velocity": 0, "duration": 73}, {"note": 71, "velocity": 97, "duration": 148}, {"note": 0, "velocity": 0, "duration": 92}, {"note": 73, "velocity": 122, "duration": 173}, {"note": 0, "velocity": 0, "duration": 67}, {"note": 76, "velocity": 127, "duration": 48}, {"note": 0, "velocity": 0, "duration": 72}, {"note": 76, "velocity": 127, "duration": 462}, {"note": 0, "velocity": 0, "duration": 618}, {"note": 73, "velocity": 127, "duration": 142}, {"note": 0, "velocity": 0, "duration": 98}, {"note": 71, "velocity": 102, "duration": 132}, {"note": 0, "velocity": 0, "duration": 108}, {"note": 69, "velocity": 112, "duration": 112}, {"note": 0, "velocity": 0, "duration": 128}, {"note": 71, "velocity": 122, "duration": 60}, {"note": 73, "velocity": 112, "duration": 576}, {"note": 0, "velocity": 0, "duration": 504}, {"note": 69, "velocity": 107, "duration": 155}, {"note": 0, "velocity": 0, "duration": 85}, {"note": 71, "velocity": 112, "duration": 147}, {"note": 0, "velocity": 0, "duration": 93}, {"note": 73, "velocity": 127, "duration": 126}, {"note": 0, "velocity": 0, "duration": 114}, {"note": 81, "velocity": 122, "duration": 54}, {"note": 0, "velocity": 0, "duration": 66}, {"note": 81, "velocity": 122, "duration": 200}, {"note": 83, "velocity": 122, "duration": 87}, {"note": 81, "velocity": 117, "duration": 342}, {"note": 0, "velocity": 0, "duration": 138}, {"note": 81, "velocity": 127, "duration": 137}, {"note": 0, "velocity": 0, "duration": 103}, {"note": 80, "velocity": 127, "duration": 162}, {"note": 0, "velocity": 0, "duration": 78}, {"note": 78, "velocity": 127, "duration": 138}, {"note": 0, "velocity": 0, "duration": 102}, {"note": 76, "velocity": 127, "duration": 176}, {"note": 0, "velocity": 0, "duration": 64}, {"note": 78, "velocity": 127, "duration": 59}, {"note": 0, "velocity": 0, "duration": 61}, {"note": 78, "velocity": 122, "duration": 207}, {"note": 76, "velocity": 112, "duration": 531}, {"note": 0, "velocity": 0, "duration": 309}, {"note": 69, "velocity": 112, "duration": 167}, {"note": 0, "velocity": 0, "duration": 73}, {"note": 71, "velocity": 97, "duration": 148}, {"note": 0, "velocity": 0, "duration": 92}, {"note": 73, "velocity": 122, "duration": 173}, {"note": 0, "velocity": 0, "duration": 67}, {"note": 76, "velocity": 127, "duration": 48}, {"note": 0, "velocity": 0, "duration": 72}, {"note": 76, "velocity": 127, "duration": 462}, {"note": 0, "velocity": 0, "duration": 618}, {"note": 73, "velocity": 127, "duration": 142}, {"note": 0, "velocity": 0, "duration": 98}, {"note": 71, "velocity": 102, "duration": 132}, {"note": 0, "velocity": 0, "duration": 108}, {"note": 69, "velocity": 112, "duration": 112}, {"note": 0, "velocity": 0, "duration": 128}, {"note": 71, "velocity": 122, "duration": 60}, {"note": 69, "velocity": 112, "duration": 576}, {"note": 0, "velocity": 0, "duration": 504}, {"note": 69, "velocity": 112, "duration": 159}, {"note": 0, "velocity": 0, "duration": 81}, {"note": 71, "velocity": 102, "duration": 141}, {"note": 0, "velocity": 0, "duration": 99}, {"note": 73, "velocity": 117, "duration": 121}, {"note": 0, "velocity": 0, "duration": 119}, {"note": 76, "velocity": 112, "duration": 83}, {"note": 69, "velocity": 107, "duration": 768}, {"note": 0, "velocity": 0, "duration": 312}, {"note": 69, "velocity": 127, "duration": 177}, {"note": 0, "velocity": 0, "duration": 63}, {"note": 68, "velocity": 117, "duration": 154}, {"note": 0, "velocity": 0, "duration": 86}, {"note": 66, "velocity": 122, "duration": 136}, {"note": 0, "velocity": 0, "duration": 104}, {"note": 68, "velocity": 127, "duration": 53}, {"note": 0, "velocity": 0, "duration": 67}, {"note": 69, "velocity": 127, "duration": 1371}, {"note": 0, "velocity": 0, "duration": 15549}, {"note": 69, "velocity": 99, "duration": 255}, {"note": 73, "velocity": 99, "duration": 187}, {"note": 73, "velocity": 112, "duration": 617}, {"note": 0, "velocity": 0, "duration": 343}, {"note": 73, "velocity": 127, "duration": 221}, {"note": 71, "velocity": 90, "duration": 215}, {"note": 69, "velocity": 93, "duration": 226}, {"note": 71, "velocity": 99, "duration": 324}, {"note": 0, "velocity": 0, "duration": 156}, {"note": 76, "velocity": 112, "duration": 572}, {"note": 0, "velocity": 0, "duration": 628}, {"note": 69, "velocity": 95, "duration": 266}, {"note": 73, "velocity": 95, "duration": 181}, {"note": 73, "velocity": 102, "duration": 625}, {"note": 0, "velocity": 0, "duration": 335}, {"note": 74, "velocity": 99, "duration": 222}, {"note": 73, "velocity": 100, "duration": 174}, {"note": 0, "velocity": 0, "duration": 66}, {"note": 76, "velocity": 100, "duration": 257}, {"note": 0, "velocity": 0, "duration": 103}, {"note": 69, "velocity": 96, "duration": 1025}, {"note": 0, "velocity": 0, "duration": 535}, {"note": 69, "velocity": 86, "duration": 246}, {"note": 74, "velocity": 96, "duration": 110}, {"note": 0, "velocity": 0, "duration": 130}, {"note": 74, "velocity": 97, "duration": 722}, {"note": 0, "velocity": 0, "duration": 238}, {"note": 74, "velocity": 112, "duration": 225}, {"note": 73, "velocity": 96, "duration": 262}, {"note": 69, "velocity": 74, "duration": 250}, {"note": 76, "velocity": 122, "duration": 260}, {"note": 0, "velocity": 0, "duration": 220}, {"note": 73, "velocity": 107, "duration": 240}, {"note": 73, "velocity": 117, "duration": 180}, {"note": 81, "velocity": 112, "duration": 492}, {"note": 0, "velocity": 0, "duration": 708}, {"note": 76, "velocity": 117, "duration": 212}, {"note": 74, "velocity": 107, "duration": 203}, {"note": 74, "velocity": 112, "duration": 140}, {"note": 0, "velocity": 0, "duration": 100}, {"note": 69, "velocity": 86, "duration": 123}, {"note": 0, "velocity": 0, "duration": 117}, {"note": 69, "velocity": 102, "duration": 268}, {"note": 0, "velocity": 0, "duration": 212}, {"note": 68, "velocity": 99, "duration": 146}, {"note": 0, "velocity": 0, "duration": 94}, {"note": 69, "velocity": 93, "duration": 969}, {"note": 0, "velocity": 0, "duration": 231}, {"note": 69, "velocity": 100, "duration": 182}, {"note": 71, "velocity": 112, "duration": 116}, {"note": 0, "velocity": 0, "duration": 124}, {"note": 73, "velocity": 127, "duration": 118}, {"note": 0, "velocity": 0, "duration": 122}, {"note": 76, "velocity": 112, "duration": 55}, {"note": 0, "velocity": 0, "duration": 65}, {"note": 76, "velocity": 122, "duration": 523}, {"note": 0, "velocity": 0, "duration": 557}, {"note": 73, "velocity": 127, "duration": 167}, {"note": 0, "velocity": 0, "duration": 73}, {"note": 71, "velocity": 107, "duration": 133}, {"note": 0, "velocity": 0, "duration": 107}, {"note": 69, "velocity": 102, "duration": 145}, {"note": 0, "velocity": 0, "duration": 95}, {"note": 71, "velocity": 127, "duration": 48}, {"note": 0, "velocity": 0, "duration": 72}, {"note": 73, "velocity": 127, "duration": 679}, {"note": 0, "velocity": 0, "duration": 401}, {"note": 69, "velocity": 112, "duration": 162}, {"note": 0, "velocity": 0, "duration": 78}, {"note": 71, "velocity": 100, "duration": 139}, {"note": 0, "velocity": 0, "duration": 101}, {"note": 73, "velocity": 127, "duration": 126}, {"note": 0, "velocity": 0, "duration": 114}, {"note": 81, "velocity": 122, "duration": 54}, {"note": 0, "velocity": 0, "duration": 66}, {"note": 81, "velocity": 122, "duration": 200}, {"note": 83, "velocity": 122, "duration": 87}, {"note": 81, "velocity": 117, "duration": 342}, {"note": 0, "velocity": 0, "duration": 138}, {"note": 81, "velocity": 127, "duration": 137}, {"note": 0, "velocity": 0, "duration": 103}, {"note": 80, "velocity": 127, "duration": 162}, {"note": 0, "velocity": 0, "duration": 78}, {"note": 78, "velocity": 127, "duration": 138}, {"note": 0, "velocity": 0, "duration": 102}, {"note": 76, "velocity": 127, "duration": 176}, {"note": 0, "velocity": 0, "duration": 64}, {"note": 78, "velocity": 127, "duration": 59}, {"note": 0, "velocity": 0, "duration": 61}, {"note": 78, "velocity": 122, "duration": 207}, {"note": 76, "velocity": 112, "duration": 531}, {"note": 0, "velocity": 0, "duration": 309}, {"note": 69, "velocity": 112, "duration": 167}, {"note": 0, "velocity": 0, "duration": 73}, {"note": 71, "velocity": 97, "duration": 148}, {"note": 0, "velocity": 0, "duration": 92}, {"note": 73, "velocity": 122, "duration": 173}, {"note": 0, "velocity": 0, "duration": 67}, {"note": 76, "velocity": 127, "duration": 48}, {"note": 0, "velocity": 0, "duration": 72}, {"note": 76, "velocity": 127, "duration": 462}, {"note": 0, "velocity": 0, "duration": 618}, {"note": 73, "velocity": 127, "duration": 142}, {"note": 0, "velocity": 0, "duration": 98}, {"note": 71, "velocity": 102, "duration": 132}, {"note": 0, "velocity": 0, "duration": 108}, {"note": 69, "velocity": 112, "duration": 112}, {"note": 0, "velocity": 0, "duration": 128}, {"note": 71, "velocity": 122, "duration": 60}, {"note": 69, "velocity": 112, "duration": 576}, {"note": 0, "velocity": 0, "duration": 504}, {"note": 69, "velocity": 107, "duration": 155}, {"note": 0, "velocity": 0, "duration": 85}, {"note": 71, "velocity": 112, "duration": 147}, {"note": 0, "velocity": 0, "duration": 93}, {"note": 73, "velocity": 122, "duration": 162}, {"note": 0, "velocity": 0, "duration": 78}, {"note": 76, "velocity": 127, "duration": 148}, {"note": 0, "velocity": 0, "duration": 92}, {"note": 76, "velocity": 127, "duration": 235}, {"note": 74, "velocity": 122, "duration": 151}, {"note": 0, "velocity": 0, "duration": 89}, {"note": 74, "velocity": 112, "duration": 142}, {"note": 0, "velocity": 0, "duration": 98}, {"note": 73, "velocity": 127, "duration": 175}, {"note": 0, "velocity": 0, "duration": 65}, {"note": 81, "velocity": 127, "duration": 355}, {"note": 0, "velocity": 0, "duration": 125}, {"note": 73, "velocity": 127, "duration": 137}, {"note": 0, "velocity": 0, "duration": 103}, {"note": 73, "velocity": 127, "duration": 235}, {"note": 71, "velocity": 117, "duration": 610}, {"note": 0, "velocity": 0, "duration": 350}, {"note": 69, "velocity": 112, "duration": 167}, {"note": 0, "velocity": 0, "duration": 73}, {"note": 71, "velocity": 97, "duration": 148}, {"note": 0, "velocity": 0, "duration": 92}, {"note": 73, "velocity": 122, "duration": 173}, {"note": 0, "velocity": 0, "duration": 67}, {"note": 76, "velocity": 127, "duration": 48}, {"note": 0, "velocity": 0, "duration": 72}, {"note": 76, "velocity": 127, "duration": 462}, {"note": 0, "velocity": 0, "duration": 618}, {"note": 73, "velocity": 127, "duration": 142}, {"note": 0, "velocity": 0, "duration": 98}, {"note": 71, "velocity": 102, "duration": 132}, {"note": 0, "velocity": 0, "duration": 108}, {"note": 69, "velocity": 112, "duration": 112}, {"note": 0, "velocity": 0, "duration": 128}, {"note": 71, "velocity": 122, "duration": 60}, {"note": 73, "velocity": 112, "duration": 576}, {"note": 0, "velocity": 0, "duration": 504}, {"note": 69, "velocity": 107, "duration": 155}, {"note": 0, "velocity": 0, "duration": 85}, {"note": 71, "velocity": 112, "duration": 147}, {"note": 0, "velocity": 0, "duration": 93}, {"note": 73, "velocity": 127, "duration": 126}, {"note": 0, "velocity": 0, "duration": 114}, {"note": 81, "velocity": 122, "duration": 54}, {"note": 0, "velocity": 0, "duration": 66}, {"note": 81, "velocity": 122, "duration": 200}, {"note": 83, "velocity": 122, "duration": 87}, {"note": 81, "velocity": 117, "duration": 342}, {"note": 0, "velocity": 0, "duration": 138}, {"note": 81, "velocity": 127, "duration": 137}, {"note": 0, "velocity": 0, "duration": 103}, {"note": 80, "velocity": 127, "duration": 162}, {"note": 0, "velocity": 0, "duration": 78}, {"note": 78, "velocity": 127, "duration": 138}, {"note": 0, "velocity": 0, "duration": 102}, {"note": 76, "velocity": 127, "duration": 176}, {"note": 0, "velocity": 0, "duration": 64}, {"note": 78, "velocity": 127, "duration": 59}, {"note": 0, "velocity": 0, "duration": 61}, {"note": 78, "velocity": 122, "duration": 207}, {"note": 76, "velocity": 112, "duration": 531}, {"note": 0, "velocity": 0, "duration": 309}, {"note": 69, "velocity": 112, "duration": 167}, {"note": 0, "velocity": 0, "duration": 73}, {"note": 71, "velocity": 97, "duration": 148}, {"note": 0, "velocity": 0, "duration": 92}, {"note": 73, "velocity": 122, "duration": 173}, {"note": 0, "velocity": 0, "duration": 67}, {"note": 76, "velocity": 127, "duration": 48}, {"note": 0, "velocity": 0, "duration": 72}, {"note": 76, "velocity": 127, "duration": 462}, {"note": 0, "velocity": 0, "duration": 618}, {"note": 73, "velocity": 127, "duration": 142}, {"note": 0, "velocity": 0, "duration": 98}, {"note": 71, "velocity": 102, "duration": 132}, {"note": 0, "velocity": 0, "duration": 108}, {"note": 69, "velocity": 112, "duration": 112}, {"note": 0, "velocity": 0, "duration": 128}, {"note": 71, "velocity": 122, "duration": 60}, {"note": 69, "velocity": 112, "duration": 576}, {"note": 0, "velocity": 0, "duration": 504}, {"note": 69, "velocity": 112, "duration": 159}, {"note": 0, "velocity": 0, "duration": 81}, {"note": 71, "velocity": 102, "duration": 141}, {"note": 0, "velocity": 0, "duration": 99}, {"note": 73, "velocity": 117, "duration": 121}, {"note": 0, "velocity": 0, "duration": 119}, {"note": 76, "velocity": 112, "duration": 83}, {"note": 69, "velocity": 107, "duration": 768}, {"note": 0, "velocity": 0, "duration": 312}, {"note": 69, "velocity": 127, "duration": 177}, {"note": 0, "velocity": 0, "duration": 63}, {"note": 68, "velocity": 117, "duration": 154}, {"note": 0, "velocity": 0, "duration": 86}, {"note": 66, "velocity": 122, "duration": 136}, {"note": 0, "velocity": 0, "duration": 824}, {"note": 68, "velocity": 127, "duration": 402}, {"note": 0, "velocity": 0, "duration": 78}, {"note": 69, "velocity": 117, "duration": 122}, {"note": 68, "velocity": 122, "duration": 113}, {"note": 69, "velocity": 100, "duration": 1680}, {"note": 0, "velocity": 0, "duration": 240}, {"note": 81, "velocity": 127, "duration": 1784}, {"note": 0, "velocity": 0, "duration": 136}, {"note": 85, "velocity": 127, "duration": 413}, {"note": 0, "velocity": 0, "duration": 67}, {"note": 83, "velocity": 127, "duration": 340}, {"note": 0, "velocity": 0, "duration": 140}, {"note": 81, "velocity": 107, "duration": 115}, {"note": 83, "velocity": 97, "duration": 116}, {"note": 78, "velocity": 127, "duration": 241}, {"note": 76, "velocity": 95, "duration": 258}, {"note": 78, "velocity": 127, "duration": 362}]]