[[{"note": 71, "velocity": 107, "duration": 216}, {"note": 0, "velocity": 0, "duration": 984}, {"note": 67, "velocity": 89, "duration": 246}, {"note": 69, "velocity": 90, "duration": 180}, {"note": 71, "velocity": 122, "duration": 70}, {"note": 0, "velocity": 0, "duration": 170}, {"note": 69, "velocity": 97, "duration": 72}, {"note": 0, "velocity": 0, "duration": 168}, {"note": 69, "velocity": 96, "duration": 66}, {"note": 0, "velocity": 0, "duration": 174}, {"note": 71, "velocity": 112, "duration": 298}, {"note": 69, "velocity": 96, "duration": 720}, {"note": 0, "velocity": 0, "duration": 480}, {"note": 67, "velocity": 95, "duration": 885}, {"note": 0, "velocity": 0, "duration": 315}, {"note": 67, "velocity": 92, "duration": 184}, {"note": 69, "velocity": 100, "duration": 84}, {"note": 0, "velocity": 0, "duration": 156}, {"note": 71, "velocity": 102, "duration": 269}, {"note": 69, "velocity": 95, "duration": 72}, {"note": 0, "velocity": 0, "duration": 168}, {"note": 69, "velocity": 95, "duration": 119}, {"note": 0, "velocity": 0, "duration": 121}, {"note": 71, "velocity": 102, "duration": 191}, {"note": 69, "velocity": 88, "duration": 471}, {"note": 0, "velocity": 0, "duration": 729}, {"note": 64, "velocity": 96, "duration": 391}, {"note": 0, "velocity": 0, "duration": 89}, {"note": 66, "velocity": 93, "duration": 171}, {"note": 0, "velocity": 0, "duration": 69}, {"note": 67, "velocity": 85, "duration": 372}, {"note": 0, "velocity": 0, "duration": 108}, {"note": 69, "velocity": 96, "duration": 443}, {"note": 0, "velocity": 0, "duration": 277}, {"note": 62, "velocity": 90, "duration": 417}, {"note": 0, "velocity": 0, "duration": 63}, {"note": 66, "velocity": 88, "duration": 161}, {"note": 0, "velocity": 0, "duration": 79}, {"note": 67, "velocity": 85, "duration": 244}, {"note": 0, "velocity": 0, "duration": 236}, {"note": 67, "velocity": 78, "duration": 114}, {"note": 0, "velocity": 0, "duration": 126}, {"note": 69, "velocity": 96, "duration": 163}, {"note": 0, "velocity": 0, "duration": 77}, {"note": 71, "velocity": 81, "duration": 125}, {"note": 0, "velocity": 0, "duration": 115}, {"note": 72, "velocity": 112, "duration": 282}, {"note": 0, "velocity": 0, "duration": 198}, {"note": 71, "velocity": 102, "duration": 281}, {"note": 0, "velocity": 0, "duration": 199}, {"note": 69, "velocity": 112, "duration": 186}, {"note": 67, "velocity": 96, "duration": 215}, {"note": 0, "velocity": 0, "duration": 265}, {"note": 71, "velocity": 97, "duration": 274}, {"note": 0, "velocity": 0, "duration": 206}, {"note": 69, "velocity": 102, "duration": 261}, {"note": 0, "velocity": 0, "duration": 219}, {"note": 67, "velocity": 97, "duration": 313}, {"note": 0, "velocity": 0, "duration": 167}, {"note": 69, "velocity": 102, "duration": 406}, {"note": 0, "velocity": 0, "duration": 314}, {"note": 71, "velocity": 107, "duration": 216}, {"note": 0, "velocity": 0, "duration": 984}, {"note": 67, "velocity": 89, "duration": 246}, {"note": 69, "velocity": 90, "duration": 180}, {"note": 71, "velocity": 122, "duration": 70}, {"note": 0, "velocity": 0, "duration": 170}, {"note": 69, "velocity": 97, "duration": 72}, {"note": 0, "velocity": 0, "duration": 168}, {"note": 69, "velocity": 96, "duration": 66}, {"note": 0, "velocity": 0, "duration": 174}, {"note": 71, "velocity": 112, "duration": 298}, {"note": 69, "velocity": 96, "duration": 720}, {"note": 0, "velocity": 0, "duration": 480}, {"note": 67, "velocity": 95, "duration": 885}, {"note": 0, "velocity": 0, "duration": 315}, {"note": 67, "velocity": 92, "duration": 184}, {"note": 69, "velocity": 100, "duration": 84}, {"note": 0, "velocity": 0, "duration": 156}, {"note": 71, "velocity": 102, "duration": 269}, {"note": 69, "velocity": 95, "duration": 72}, {"note": 0, "velocity": 0, "duration": 168}, {"note": 69, "velocity": 95, "duration": 119}, {"note": 0, "velocity": 0, "duration": 121}, {"note": 71, "velocity": 102, "duration": 191}, {"note": 69, "velocity": 88, "duration": 471}, {"note": 0, "velocity": 0, "duration": 729}, {"note": 64, "velocity": 96, "duration": 391}, {"note": 0, "velocity": 0, "duration": 89}, {"note": 66, "velocity": 93, "duration": 171}, {"note": 0, "velocity": 0, "duration": 69}, {"note": 67, "velocity": 85, "duration": 372}, {"note": 0, "velocity": 0, "duration": 108}, {"note": 69, "velocity": 96, "duration": 443}, {"note": 0, "velocity": 0, "duration": 277}, {"note": 62, "velocity": 90, "duration": 417}, {"note": 0, "velocity": 0, "duration": 63}, {"note": 67, "velocity": 88, "duration": 161}, {"note": 0, "velocity": 0, "duration": 79}, {"note": 67, "velocity": 85, "duration": 244}, {"note": 0, "velocity": 0, "duration": 236}, {"note": 67, "velocity": 78, "duration": 114}, {"note": 0, "velocity": 0, "duration": 126}, {"note": 69, "velocity": 96, "duration": 163}, {"note": 0, "velocity": 0, "duration": 77}, {"note": 71, "velocity": 81, "duration": 125}, {"note": 0, "velocity": 0, "duration": 115}, {"note": 72, "velocity": 112, "duration": 282}, {"note": 0, "velocity": 0, "duration": 198}, {"note": 71, "velocity": 102, "duration": 281}, {"note": 0, "velocity": 0, "duration": 199}, {"note": 69, "velocity": 112, "duration": 186}, {"note": 67, "velocity": 96, "duration": 215}, {"note": 0, "velocity": 0, "duration": 265}, {"note": 71, "velocity": 97, "duration": 274}, {"note": 0, "velocity": 0, "duration": 206}, {"note": 69, "velocity": 102, "duration": 261}, {"note": 0, "velocity": 0, "duration": 219}, {"note": 67, "velocity": 97, "duration": 313}, {"note": 0, "velocity": 0, "duration": 167}, {"note": 69, "velocity": 102, "duration": 406}, {"note": 0, "velocity": 0, "duration": 314}, {"note": 67, "velocity": 100, "duration": 350}, {"note": 0, "velocity": 0, "duration": 130}, {"note": 69, "velocity": 117, "duration": 255}, {"note": 0, "velocity": 0, "duration": 225}, {"note": 71, "velocity": 102, "duration": 325}, {"note": 0, "velocity": 0, "duration": 155}, {"note": 72, "velocity": 122, "duration": 227}, {"note": 0, "velocity": 0, "duration": 253}, {"note": 74, "velocity": 122, "duration": 244}, {"note": 0, "velocity": 0, "duration": 236}, {"note": 76, "velocity": 122, "duration": 237}, {"note": 74, "velocity": 112, "duration": 217}, {"note": 0, "velocity": 0, "duration": 263}, {"note": 76, "velocity": 102, "duration": 358}, {"note": 0, "velocity": 0, "duration": 122}, {"note": 78, "velocity": 112, "duration": 154}, {"note": 0, "velocity": 0, "duration": 86}, {"note": 79, "velocity": 112, "duration": 216}, {"note": 0, "velocity": 0, "duration": 264}, {"note": 79, "velocity": 117, "duration": 300}, {"note": 0, "velocity": 0, "duration": 180}, {"note": 79, "velocity": 112, "duration": 300}, {"note": 0, "velocity": 0, "duration": 180}, {"note": 79, "velocity": 112, "duration": 283}, {"note": 0, "velocity": 0, "duration": 197}, {"note": 78, "velocity": 127, "duration": 291}, {"note": 0, "velocity": 0, "duration": 69}, {"note": 76, "velocity": 127, "duration": 190}, {"note": 0, "velocity": 0, "duration": 170}, {"note": 74, "velocity": 112, "duration": 347}, {"note": 0, "velocity": 0, "duration": 133}, {"note": 74, "velocity": 122, "duration": 136}, {"note": 0, "velocity": 0, "duration": 104}, {"note": 74, "velocity": 100, "duration": 113}, {"note": 0, "velocity": 0, "duration": 127}, {"note": 74, "velocity": 99, "duration": 119}, {"note": 0, "velocity": 0, "duration": 121}, {"note": 76, "velocity": 117, "duration": 158}, {"note": 0, "velocity": 0, "duration": 82}, {"note": 67, "velocity": 99, "duration": 144}, {"note": 0, "velocity": 0, "duration": 96}, {"note": 67, "velocity": 95, "duration": 97}, {"note": 0, "velocity": 0, "duration": 143}, {"note": 67, "velocity": 96, "duration": 256}, {"note": 0, "velocity": 0, "duration": 224}, {"note": 76, "velocity": 127, "duration": 89}, {"note": 0, "velocity": 0, "duration": 151}, {"note": 76, "velocity": 102, "duration": 82}, {"note": 0, "velocity": 0, "duration": 158}, {"note": 76, "velocity": 122, "duration": 96}, {"note": 0, "velocity": 0, "duration": 144}, {"note": 74, "velocity": 102, "duration": 178}, {"note": 0, "velocity": 0, "duration": 62}, {"note": 67, "velocity": 95, "duration": 120}, {"note": 0, "velocity": 0, "duration": 120}, {"note": 67, "velocity": 97, "duration": 101}, {"note": 0, "velocity": 0, "duration": 139}, {"note": 67, "velocity": 100, "duration": 240}, {"note": 0, "velocity": 0, "duration": 240}, {"note": 67, "velocity": 96, "duration": 170}, {"note": 0, "velocity": 0, "duration": 70}, {"note": 69, "velocity": 100, "duration": 169}, {"note": 0, "velocity": 0, "duration": 71}, {"note": 71, "velocity": 102, "duration": 139}, {"note": 0, "velocity": 0, "duration": 101}, {"note": 72, "velocity": 117, "duration": 328}, {"note": 0, "velocity": 0, "duration": 152}, {"note": 71, "velocity": 122, "duration": 353}, {"note": 0, "velocity": 0, "duration": 127}, {"note": 69, "velocity": 112, "duration": 244}, {"note": 0, "velocity": 0, "duration": 236}, {"note": 67, "velocity": 122, "duration": 205}, {"note": 71, "velocity": 122, "duration": 194}, {"note": 0, "velocity": 0, "duration": 286}, {"note": 69, "velocity": 122, "duration": 316}, {"note": 0, "velocity": 0, "duration": 164}, {"note": 67, "velocity": 102, "duration": 276}, {"note": 0, "velocity": 0, "duration": 204}, {"note": 69, "velocity": 127, "duration": 646}, {"note": 0, "velocity": 0, "duration": 74}, {"note": 67, "velocity": 107, "duration": 291}, {"note": 0, "velocity": 0, "duration": 189}, {"note": 69, "velocity": 117, "duration": 294}, {"note": 0, "velocity": 0, "duration": 186}, {"note": 71, "velocity": 112, "duration": 281}, {"note": 0, "velocity": 0, "duration": 199}, {"note": 72, "velocity": 127, "duration": 330}, {"note": 0, "velocity": 0, "duration": 150}, {"note": 74, "velocity": 127, "duration": 295}, {"note": 0, "velocity": 0, "duration": 185}, {"note": 76, "velocity": 122, "duration": 142}, {"note": 0, "velocity": 0, "duration": 98}, {"note": 74, "velocity": 107, "duration": 180}, {"note": 0, "velocity": 0, "duration": 300}, {"note": 76, "velocity": 99, "duration": 342}, {"note": 0, "velocity": 0, "duration": 138}, {"note": 78, "velocity": 107, "duration": 185}, {"note": 79, "velocity": 102, "duration": 280}, {"note": 0, "velocity": 0, "duration": 200}, {"note": 79, "velocity": 107, "duration": 262}, {"note": 0, "velocity": 0, "duration": 218}, {"note": 79, "velocity": 112, "duration": 272}, {"note": 0, "velocity": 0, "duration": 208}, {"note": 79, "velocity": 107, "duration": 170}, {"note": 0, "velocity": 0, "duration": 310}, {"note": 78, "velocity": 127, "duration": 232}, {"note": 76, "velocity": 102, "duration": 329}, {"note": 0, "velocity": 0, "duration": 151}, {"note": 74, "velocity": 95, "duration": 298}, {"note": 0, "velocity": 0, "duration": 182}, {"note": 74, "velocity": 100, "duration": 162}, {"note": 0, "velocity": 0, "duration": 78}, {"note": 74, "velocity": 95, "duration": 119}, {"note": 0, "velocity": 0, "duration": 121}, {"note": 74, "velocity": 102, "duration": 127}, {"note": 0, "velocity": 0, "duration": 113}, {"note": 76, "velocity": 107, "duration": 164}, {"note": 0, "velocity": 0, "duration": 76}, {"note": 67, "velocity": 92, "duration": 167}, {"note": 0, "velocity": 0, "duration": 73}, {"note": 67, "velocity": 93, "duration": 111}, {"note": 0, "velocity": 0, "duration": 129}, {"note": 67, "velocity": 102, "duration": 153}, {"note": 0, "velocity": 0, "duration": 327}, {"note": 76, "velocity": 107, "duration": 124}, {"note": 0, "velocity": 0, "duration": 116}, {"note": 76, "velocity": 102, "duration": 105}, {"note": 0, "velocity": 0, "duration": 135}, {"note": 76, "velocity": 100, "duration": 144}, {"note": 0, "velocity": 0, "duration": 96}, {"note": 74, "velocity": 96, "duration": 140}, {"note": 0, "velocity": 0, "duration": 100}, {"note": 67, "velocity": 89, "duration": 145}, {"note": 0, "velocity": 0, "duration": 95}, {"note": 67, "velocity": 93, "duration": 88}, {"note": 0, "velocity": 0, "duration": 152}, {"note": 67, "velocity": 102, "duration": 183}, {"note": 0, "velocity": 0, "duration": 297}, {"note": 67, "velocity": 100, "duration": 137}, {"note": 0, "velocity": 0, "duration": 103}, {"note": 69, "velocity": 97, "duration": 149}, {"note": 0, "velocity": 0, "duration": 91}, {"note": 71, "velocity": 96, "duration": 113}, {"note": 0, "velocity": 0, "duration": 127}, {"note": 72, "velocity": 117, "duration": 257}, {"note": 0, "velocity": 0, "duration": 223}, {"note": 71, "velocity": 122, "duration": 257}, {"note": 0, "velocity": 0, "duration": 223}, {"note": 69, "velocity": 112, "duration": 130}, {"note": 0, "velocity": 0, "duration": 110}, {"note": 67, "velocity": 107, "duration": 198}, {"note": 0, "velocity": 0, "duration": 282}, {"note": 71, "velocity": 107, "duration": 245}, {"note": 0, "velocity": 0, "duration": 235}, {"note": 69, "velocity": 127, "duration": 191}, {"note": 0, "velocity": 0, "duration": 529}, {"note": 67, "velocity": 102, "duration": 181}, {"note": 69, "velocity": 117, "duration": 315}, {"note": 0, "velocity": 0, "duration": 165}, {"note": 67, "velocity": 107, "duration": 972}, {"note": 0, "velocity": 0, "duration": 18468}, {"note": 71, "velocity": 107, "duration": 216}, {"note": 0, "velocity": 0, "duration": 984}, {"note": 67, "velocity": 89, "duration": 246}, {"note": 69, "velocity": 90, "duration": 180}, {"note": 71, "velocity": 122, "duration": 70}, {"note": 0, "velocity": 0, "duration": 170}, {"note": 69, "velocity": 97, "duration": 72}, {"note": 0, "velocity": 0, "duration": 168}, {"note": 69, "velocity": 96, "duration": 66}, {"note": 0, "velocity": 0, "duration": 174}, {"note": 71, "velocity": 112, "duration": 298}, {"note": 69, "velocity": 96, "duration": 720}, {"note": 0, "velocity": 0, "duration": 480}, {"note": 67, "velocity": 95, "duration": 885}, {"note": 0, "velocity": 0, "duration": 315}, {"note": 67, "velocity": 92, "duration": 184}, {"note": 69, "velocity": 100, "duration": 84}, {"note": 0, "velocity": 0, "duration": 156}, {"note": 71, "velocity": 102, "duration": 269}, {"note": 69, "velocity": 95, "duration": 72}, {"note": 0, "velocity": 0, "duration": 168}, {"note": 69, "velocity": 95, "duration": 119}, {"note": 0, "velocity": 0, "duration": 121}, {"note": 71, "velocity": 102, "duration": 191}, {"note": 69, "velocity": 88, "duration": 471}, {"note": 0, "velocity": 0, "duration": 729}, {"note": 64, "velocity": 96, "duration": 391}, {"note": 0, "velocity": 0, "duration": 89}, {"note": 66, "velocity": 93, "duration": 171}, {"note": 0, "velocity": 0, "duration": 69}, {"note": 67, "velocity": 85, "duration": 372}, {"note": 0, "velocity": 0, "duration": 108}, {"note": 69, "velocity": 96, "duration": 443}, {"note": 0, "velocity": 0, "duration": 277}, {"note": 62, "velocity": 90, "duration": 417}, {"note": 0, "velocity": 0, "duration": 63}, {"note": 67, "velocity": 88, "duration": 161}, {"note": 0, "velocity": 0, "duration": 79}, {"note": 67, "velocity": 85, "duration": 244}, {"note": 0, "velocity": 0, "duration": 236}, {"note": 67, "velocity": 78, "duration": 114}, {"note": 0, "velocity": 0, "duration": 126}, {"note": 69, "velocity": 96, "duration": 163}, {"note": 0, "velocity": 0, "duration": 77}, {"note": 71, "velocity": 81, "duration": 125}, {"note": 0, "velocity": 0, "duration": 115}, {"note": 72, "velocity": 112, "duration": 282}, {"note": 0, "velocity": 0, "duration": 198}, {"note": 71, "velocity": 102, "duration": 281}, {"note": 0, "velocity": 0, "duration": 199}, {"note": 69, "velocity": 112, "duration": 186}, {"note": 67, "velocity": 96, "duration": 215}, {"note": 0, "velocity": 0, "duration": 265}, {"note": 71, "velocity": 97, "duration": 274}, {"note": 0, "velocity": 0, "duration": 206}, {"note": 69, "velocity": 102, "duration": 261}, {"note": 0, "velocity": 0, "duration": 219}, {"note": 67, "velocity": 97, "duration": 313}, {"note": 0, "velocity": 0, "duration": 167}, {"note": 69, "velocity": 102, "duration": 406}, {"note": 0, "velocity": 0, "duration": 314}, {"note": 67, "velocity": 100, "duration": 350}, {"note": 0, "velocity": 0, "duration": 130}, {"note": 69, "velocity": 117, "duration": 255}, {"note": 0, "velocity": 0, "duration": 225}, {"note": 71, "velocity": 102, "duration": 325}, {"note": 0, "velocity": 0, "duration": 155}, {"note": 72, "velocity": 122, "duration": 227}, {"note": 0, "velocity": 0, "duration": 253}, {"note": 74, "velocity": 122, "duration": 244}, {"note": 0, "velocity": 0, "duration": 236}, {"note": 76, "velocity": 122, "duration": 237}, {"note": 74, "velocity": 112, "duration": 217}, {"note": 0, "velocity": 0, "duration": 263}, {"note": 76, "velocity": 102, "duration": 358}, {"note": 0, "velocity": 0, "duration": 122}, {"note": 78, "velocity": 112, "duration": 154}, {"note": 0, "velocity": 0, "duration": 86}, {"note": 79, "velocity": 112, "duration": 216}, {"note": 0, "velocity": 0, "duration": 264}, {"note": 79, "velocity": 117, "duration": 300}, {"note": 0, "velocity": 0, "duration": 180}, {"note": 79, "velocity": 112, "duration": 300}, {"note": 0, "velocity": 0, "duration": 180}, {"note": 79, "velocity": 112, "duration": 283}, {"note": 0, "velocity": 0, "duration": 197}, {"note": 78, "velocity": 127, "duration": 291}, {"note": 0, "velocity": 0, "duration": 69}, {"note": 76, "velocity": 127, "duration": 190}, {"note": 0, "velocity": 0, "duration": 170}, {"note": 74, "velocity": 112, "duration": 347}, {"note": 0, "velocity": 0, "duration": 133}, {"note": 74, "velocity": 122, "duration": 136}, {"note": 0, "velocity": 0, "duration": 104}, {"note": 74, "velocity": 100, "duration": 113}, {"note": 0, "velocity": 0, "duration": 127}, {"note": 74, "velocity": 99, "duration": 119}, {"note": 0, "velocity": 0, "duration": 121}, {"note": 76, "velocity": 117, "duration": 158}, {"note": 0, "velocity": 0, "duration": 82}, {"note": 67, "velocity": 99, "duration": 144}, {"note": 0, "velocity": 0, "duration": 96}, {"note": 67, "velocity": 95, "duration": 97}, {"note": 0, "velocity": 0, "duration": 143}, {"note": 67, "velocity": 96, "duration": 256}, {"note": 0, "velocity": 0, "duration": 224}, {"note": 76, "velocity": 127, "duration": 89}, {"note": 0, "velocity": 0, "duration": 151}, {"note": 76, "velocity": 102, "duration": 82}, {"note": 0, "velocity": 0, "duration": 158}, {"note": 76, "velocity": 122, "duration": 96}, {"note": 0, "velocity": 0, "duration": 144}, {"note": 74, "velocity": 102, "duration": 178}, {"note": 0, "velocity": 0, "duration": 62}, {"note": 67, "velocity": 95, "duration": 120}, {"note": 0, "velocity": 0, "duration": 120}, {"note": 67, "velocity": 97, "duration": 101}, {"note": 0, "velocity": 0, "duration": 139}, {"note": 67, "velocity": 100, "duration": 240}, {"note": 0, "velocity": 0, "duration": 240}, {"note": 67, "velocity": 96, "duration": 170}, {"note": 0, "velocity": 0, "duration": 70}, {"note": 69, "velocity": 100, "duration": 169}, {"note": 0, "velocity": 0, "duration": 71}, {"note": 71, "velocity": 102, "duration": 139}, {"note": 0, "velocity": 0, "duration": 101}, {"note": 72, "velocity": 117, "duration": 328}, {"note": 0, "velocity": 0, "duration": 152}, {"note": 71, "velocity": 122, "duration": 353}, {"note": 0, "velocity": 0, "duration": 127}, {"note": 69, "velocity": 112, "duration": 244}, {"note": 0, "velocity": 0, "duration": 236}, {"note": 67, "velocity": 122, "duration": 205}, {"note": 71, "velocity": 122, "duration": 194}, {"note": 0, "velocity": 0, "duration": 286}, {"note": 69, "velocity": 122, "duration": 316}, {"note": 0, "velocity": 0, "duration": 164}, {"note": 67, "velocity": 102, "duration": 276}, {"note": 0, "velocity": 0, "duration": 204}, {"note": 69, "velocity": 127, "duration": 646}, {"note": 0, "velocity": 0, "duration": 74}, {"note": 67, "velocity": 107, "duration": 291}, {"note": 0, "velocity": 0, "duration": 189}, {"note": 69, "velocity": 117, "duration": 294}, {"note": 0, "velocity": 0, "duration": 186}, {"note": 71, "velocity": 112, "duration": 281}, {"note": 0, "velocity": 0, "duration": 199}, {"note": 72, "velocity": 127, "duration": 330}, {"note": 0, "velocity": 0, "duration": 150}, {"note": 74, "velocity": 127, "duration": 295}, {"note": 0, "velocity": 0, "duration": 185}, {"note": 76, "velocity": 122, "duration": 142}, {"note": 0, "velocity": 0, "duration": 98}, {"note": 74, "velocity": 107, "duration": 180}, {"note": 0, "velocity": 0, "duration": 300}, {"note": 76, "velocity": 99, "duration": 342}, {"note": 0, "velocity": 0, "duration": 138}, {"note": 78, "velocity": 107, "duration": 185}, {"note": 79, "velocity": 102, "duration": 280}, {"note": 0, "velocity": 0, "duration": 200}, {"note": 79, "velocity": 107, "duration": 262}, {"note": 0, "velocity": 0, "duration": 218}, {"note": 79, "velocity": 112, "duration": 272}, {"note": 0, "velocity": 0, "duration": 208}, {"note": 79, "velocity": 107, "duration": 170}, {"note": 0, "velocity": 0, "duration": 310}, {"note": 78, "velocity": 127, "duration": 232}, {"note": 76, "velocity": 102, "duration": 329}, {"note": 0, "velocity": 0, "duration": 151}, {"note": 74, "velocity": 95, "duration": 298}, {"note": 0, "velocity": 0, "duration": 182}, {"note": 74, "velocity": 100, "duration": 162}, {"note": 0, "velocity": 0, "duration": 78}, {"note": 74, "velocity": 95, "duration": 119}, {"note": 0, "velocity": 0, "duration": 121}, {"note": 74, "velocity": 102, "duration": 127}, {"note": 0, "velocity": 0, "duration": 113}, {"note": 76, "velocity": 107, "duration": 164}, {"note": 0, "velocity": 0, "duration": 76}, {"note": 67, "velocity": 92, "duration": 167}, {"note": 0, "velocity": 0, "duration": 73}, {"note": 67, "velocity": 93, "duration": 111}, {"note": 0, "velocity": 0, "duration": 129}, {"note": 67, "velocity": 102, "duration": 153}, {"note": 0, "velocity": 0, "duration": 327}, {"note": 76, "velocity": 107, "duration": 124}, {"note": 0, "velocity": 0, "duration": 116}, {"note": 76, "velocity": 102, "duration": 105}, {"note": 0, "velocity": 0, "duration": 135}, {"note": 76, "velocity": 100, "duration": 144}, {"note": 0, "velocity": 0, "duration": 96}, {"note": 74, "velocity": 96, "duration": 140}, {"note": 0, "velocity": 0, "duration": 100}, {"note": 67, "velocity": 89, "duration": 145}, {"note": 0, "velocity": 0, "duration": 95}, {"note": 67, "velocity": 93, "duration": 88}, {"note": 0, "velocity": 0, "duration": 152}, {"note": 67, "velocity": 102, "duration": 183}, {"note": 0, "velocity": 0, "duration": 297}, {"note": 67, "velocity": 100, "duration": 137}, {"note": 0, "velocity": 0, "duration": 103}, {"note": 69, "velocity": 97, "duration": 149}, {"note": 0, "velocity": 0, "duration": 91}, {"note": 71, "velocity": 96, "duration": 113}, {"note": 0, "velocity": 0, "duration": 127}, {"note": 72, "velocity": 117, "duration": 257}, {"note": 0, "velocity": 0, "duration": 223}, {"note": 71, "velocity": 122, "duration": 257}, {"note": 0, "velocity": 0, "duration": 223}, {"note": 69, "velocity": 112, "duration": 130}, {"note": 0, "velocity": 0, "duration": 110}, {"note": 67, "velocity": 107, "duration": 198}, {"note": 0, "velocity": 0, "duration": 282}, {"note": 71, "velocity": 107, "duration": 245}, {"note": 0, "velocity": 0, "duration": 235}, {"note": 69, "velocity": 127, "duration": 191}, {"note": 0, "velocity": 0, "duration": 529}, {"note": 67, "velocity": 102, "duration": 181}, {"note": 69, "velocity": 117, "duration": 315}, {"note": 0, "velocity": 0, "duration": 165}, {"note": 67, "velocity": 107, "duration": 972}, {"note": 0, "velocity": 0, "duration": 1188}, {"note": 79, "velocity": 127, "duration": 1470}, {"note": 0, "velocity": 0, "duration": 450}, {"note": 67, "velocity": 100, "duration": 350}, {"note": 0, "velocity": 0, "duration": 130}, {"note": 69, "velocity": 117, "duration": 255}, {"note": 0, "velocity": 0, "duration": 225}, {"note": 71, "velocity": 102, "duration": 325}, {"note": 0, "velocity": 0, "duration": 155}, {"note": 72, "velocity": 122, "duration": 227}, {"note": 0, "velocity": 0, "duration": 253}, {"note": 74, "velocity": 122, "duration": 244}, {"note": 0, "velocity": 0, "duration": 236}, {"note": 76, "velocity": 122, "duration": 237}, {"note": 74, "velocity": 112, "duration": 217}, {"note": 0, "velocity": 0, "duration": 263}, {"note": 76, "velocity": 102, "duration": 358}, {"note": 0, "velocity": 0, "duration": 122}, {"note": 78, "velocity": 112, "duration": 154}, {"note": 0, "velocity": 0, "duration": 86}, {"note": 79, "velocity": 112, "duration": 216}, {"note": 0, "velocity": 0, "duration": 264}, {"note": 79, "velocity": 117, "duration": 300}, {"note": 0, "velocity": 0, "duration": 180}, {"note": 79, "velocity": 112, "duration": 300}, {"note": 0, "velocity": 0, "duration": 180}, {"note": 79, "velocity": 112, "duration": 283}, {"note": 0, "velocity": 0, "duration": 197}, {"note": 78, "velocity": 127, "duration": 291}, {"note": 0, "velocity": 0, "duration": 69}, {"note": 76, "velocity": 127, "duration": 190}, {"note": 0, "velocity": 0, "duration": 170}, {"note": 74, "velocity": 112, "duration": 347}, {"note": 0, "velocity": 0, "duration": 133}, {"note": 74, "velocity": 122, "duration": 136}, {"note": 0, "velocity": 0, "duration": 104}, {"note": 74, "velocity": 100, "duration": 113}, {"note": 0, "velocity": 0, "duration": 127}, {"note": 74, "velocity": 99, "duration": 119}, {"note": 0, "velocity": 0, "duration": 121}, {"note": 76, "velocity": 117, "duration": 158}, {"note": 0, "velocity": 0, "duration": 82}, {"note": 67, "velocity": 99, "duration": 144}, {"note": 0, "velocity": 0, "duration": 96}, {"note": 67, "velocity": 95, "duration": 97}, {"note": 0, "velocity": 0, "duration": 143}, {"note": 67, "velocity": 96, "duration": 256}, {"note": 0, "velocity": 0, "duration": 224}, {"note": 76, "velocity": 127, "duration": 89}, {"note": 0, "velocity": 0, "duration": 151}, {"note": 76, "velocity": 102, "duration": 82}, {"note": 0, "velocity": 0, "duration": 158}, {"note": 76, "velocity": 122, "duration": 96}, {"note": 0, "velocity": 0, "duration": 144}, {"note": 74, "velocity": 102, "duration": 178}, {"note": 0, "velocity": 0, "duration": 62}, {"note": 67, "velocity": 95, "duration": 120}, {"note": 0, "velocity": 0, "duration": 120}, {"note": 67, "velocity": 97, "duration": 101}, {"note": 0, "velocity": 0, "duration": 139}, {"note": 67, "velocity": 100, "duration": 240}, {"note": 0, "velocity": 0, "duration": 240}, {"note": 67, "velocity": 96, "duration": 170}, {"note": 0, "velocity": 0, "duration": 70}, {"note": 69, "velocity": 100, "duration": 169}, {"note": 0, "velocity": 0, "duration": 71}, {"note": 71, "velocity": 102, "duration": 139}, {"note": 0, "velocity": 0, "duration": 101}, {"note": 72, "velocity": 117, "duration": 328}, {"note": 0, "velocity": 0, "duration": 152}, {"note": 71, "velocity": 122, "duration": 353}, {"note": 0, "velocity": 0, "duration": 127}, {"note": 69, "velocity": 112, "duration": 244}, {"note": 0, "velocity": 0, "duration": 236}, {"note": 67, "velocity": 122, "duration": 205}, {"note": 71, "velocity": 122, "duration": 194}, {"note": 0, "velocity": 0, "duration": 286}, {"note": 69, "velocity": 122, "duration": 316}, {"note": 0, "velocity": 0, "duration": 164}, {"note": 67, "velocity": 102, "duration": 276}, {"note": 0, "velocity": 0, "duration": 204}, {"note": 69, "velocity": 127, "duration": 646}, {"note": 0, "velocity": 0, "duration": 74}, {"note": 67, "velocity": 107, "duration": 291}, {"note": 0, "velocity": 0, "duration": 189}, {"note": 69, "velocity": 117, "duration": 294}, {"note": 0, "velocity": 0, "duration": 186}, {"note": 71, "velocity": 112, "duration": 281}, {"note": 0, "velocity": 0, "duration": 199}, {"note": 72, "velocity": 127, "duration": 330}, {"note": 0, "velocity": 0, "duration": 150}, {"note": 74, "velocity": 127, "duration": 295}, {"note": 0, "velocity": 0, "duration": 185}, {"note": 76, "velocity": 122, "duration": 142}, {"note": 0, "velocity": 0, "duration": 98}, {"note": 74, "velocity": 107, "duration": 180}, {"note": 0, "velocity": 0, "duration": 300}, {"note": 76, "velocity": 99, "duration": 342}, {"note": 0, "velocity": 0, "duration": 138}, {"note": 78, "velocity": 107, "duration": 185}, {"note": 79, "velocity": 102, "duration": 280}, {"note": 0, "velocity": 0, "duration": 200}, {"note": 79, "velocity": 107, "duration": 262}, {"note": 0, "velocity": 0, "duration": 218}, {"note": 79, "velocity": 112, "duration": 272}, {"note": 0, "velocity": 0, "duration": 208}, {"note": 79, "velocity": 107, "duration": 170}, {"note": 0, "velocity": 0, "duration": 310}, {"note": 78, "velocity": 127, "duration": 232}, {"note": 76, "velocity": 102, "duration": 329}, {"note": 0, "velocity": 0, "duration": 151}, {"note": 74, "velocity": 95, "duration": 298}, {"note": 0, "velocity": 0, "duration": 182}, {"note": 74, "velocity": 100, "duration": 162}, {"note": 0, "velocity": 0, "duration": 78}, {"note": 74, "velocity": 95, "duration": 119}, {"note": 0, "velocity": 0, "duration": 121}, {"note": 74, "velocity": 102, "duration": 127}, {"note": 0, "velocity": 0, "duration": 113}, {"note": 76, "velocity": 107, "duration": 164}, {"note": 0, "velocity": 0, "duration": 76}, {"note": 67, "velocity": 92, "duration": 167}, {"note": 0, "velocity": 0, "duration": 73}, {"note": 67, "velocity": 93, "duration": 111}, {"note": 0, "velocity": 0, "duration": 129}, {"note": 67, "velocity": 102, "duration": 153}, {"note": 0, "velocity": 0, "duration": 327}, {"note": 76, "velocity": 107, "duration": 124}, {"note": 0, "velocity": 0, "duration": 116}, {"note": 76, "velocity": 102, "duration": 105}, {"note": 0, "velocity": 0, "duration": 135}, {"note": 76, "velocity": 100, "duration": 144}, {"note": 0, "velocity": 0, "duration": 96}, {"note": 74, "velocity": 96, "duration": 140}, {"note": 0, "velocity": 0, "duration": 100}, {"note": 67, "velocity": 89, "duration": 145}, {"note": 0, "velocity": 0, "duration": 95}, {"note": 67, "velocity": 93, "duration": 88}, {"note": 0, "velocity": 0, "duration": 152}, {"note": 67, "velocity": 102, "duration": 183}, {"note": 0, "velocity": 0, "duration": 297}, {"note": 67, "velocity": 100, "duration": 137}, {"note": 0, "velocity": 0, "duration": 103}, {"note": 69, "velocity": 97, "duration": 149}, {"note": 0, "velocity": 0, "duration": 91}, {"note": 71, "velocity": 96, "duration": 113}, {"note": 0, "velocity": 0, "duration": 127}, {"note": 72, "velocity": 117, "duration": 257}, {"note": 0, "velocity": 0, "duration": 223}, {"note": 71, "velocity": 122, "duration": 257}, {"note": 0, "velocity": 0, "duration": 223}, {"note": 69, "velocity": 112, "duration": 130}, {"note": 0, "velocity": 0, "duration": 110}, {"note": 67, "velocity": 107, "duration": 198}, {"note": 0, "velocity": 0, "duration": 282}, {"note": 71, "velocity": 107, "duration": 245}, {"note": 0, "velocity": 0, "duration": 235}, {"note": 69, "velocity": 127, "duration": 191}, {"note": 0, "velocity": 0, "duration": 529}, {"note": 67, "velocity": 102, "duration": 181}, {"note": 69, "velocity": 117, "duration": 315}, {"note": 0, "velocity": 0, "duration": 165}, {"note": 67, "velocity": 107, "duration": 972}]]