[[{"note": 59, "velocity": 97, "duration": 156}, {"note": 0, "velocity": 0, "duration": 84}, {"note": 59, "velocity": 92, "duration": 189}, {"note": 61, "velocity": 96, "duration": 162}, {"note": 0, "velocity": 0, "duration": 78}, {"note": 63, "velocity": 85, "duration": 237}, {"note": 0, "velocity": 0, "duration": 123}, {"note": 66, "velocity": 90, "duration": 555}, {"note": 0, "velocity": 0, "duration": 285}, {"note": 68, "velocity": 112, "duration": 172}, {"note": 0, "velocity": 0, "duration": 68}, {"note": 68, "velocity": 99, "duration": 173}, {"note": 0, "velocity": 0, "duration": 67}, {"note": 63, "velocity": 96, "duration": 175}, {"note": 0, "velocity": 0, "duration": 65}, {"note": 66, "velocity": 96, "duration": 365}, {"note": 0, "velocity": 0, "duration": 835}, {"note": 68, "velocity": 100, "duration": 164}, {"note": 0, "velocity": 0, "duration": 76}, {"note": 68, "velocity": 100, "duration": 162}, {"note": 0, "velocity": 0, "duration": 78}, {"note": 63, "velocity": 97, "duration": 193}, {"note": 66, "velocity": 97, "duration": 296}, {"note": 63, "velocity": 97, "duration": 203}, {"note": 61, "velocity": 107, "duration": 385}, {"note": 0, "velocity": 0, "duration": 95}, {"note": 61, "velocity": 99, "duration": 148}, {"note": 0, "velocity": 0, "duration": 92}, {"note": 59, "velocity": 93, "duration": 151}, {"note": 0, "velocity": 0, "duration": 89}, {"note": 59, "velocity": 93, "duration": 187}, {"note": 63, "velocity": 96, "duration": 187}, {"note": 61, "velocity": 95, "duration": 599}, {"note": 0, "velocity": 0, "duration": 601}, {"note": 59, "velocity": 90, "duration": 141}, {"note": 0, "velocity": 0, "duration": 99}, {"note": 59, "velocity": 97, "duration": 149}, {"note": 0, "velocity": 0, "duration": 91}, {"note": 61, "velocity": 96, "duration": 137}, {"note": 0, "velocity": 0, "duration": 103}, {"note": 63, "velocity": 97, "duration": 290}, {"note": 0, "velocity": 0, "duration": 70}, {"note": 66, "velocity": 107, "duration": 495}, {"note": 0, "velocity": 0, "duration": 345}, {"note": 68, "velocity": 97, "duration": 164}, {"note": 0, "velocity": 0, "duration": 76}, {"note": 68, "velocity": 99, "duration": 136}, {"note": 0, "velocity": 0, "duration": 104}, {"note": 63, "velocity": 95, "duration": 158}, {"note": 0, "velocity": 0, "duration": 82}, {"note": 66, "velocity": 89, "duration": 606}, {"note": 0, "velocity": 0, "duration": 594}, {"note": 68, "velocity": 99, "duration": 159}, {"note": 0, "velocity": 0, "duration": 81}, {"note": 68, "velocity": 97, "duration": 181}, {"note": 63, "velocity": 95, "duration": 140}, {"note": 0, "velocity": 0, "duration": 100}, {"note": 66, "velocity": 97, "duration": 137}, {"note": 0, "velocity": 0, "duration": 103}, {"note": 63, "velocity": 92, "duration": 151}, {"note": 0, "velocity": 0, "duration": 89}, {"note": 61, "velocity": 89, "duration": 188}, {"note": 59, "velocity": 95, "duration": 446}, {"note": 56, "velocity": 93, "duration": 154}, {"note": 0, "velocity": 0, "duration": 86}, {"note": 59, "velocity": 97, "duration": 151}, {"note": 0, "velocity": 0, "duration": 89}, {"note": 61, "velocity": 97, "duration": 229}, {"note": 59, "velocity": 90, "duration": 743}, {"note": 0, "velocity": 0, "duration": 217}, {"note": 59, "velocity": 96, "duration": 146}, {"note": 0, "velocity": 0, "duration": 94}, {"note": 61, "velocity": 93, "duration": 113}, {"note": 63, "velocity": 89, "duration": 264}, {"note": 0, "velocity": 0, "duration": 96}, {"note": 68, "velocity": 99, "duration": 164}, {"note": 0, "velocity": 0, "duration": 76}, {"note": 66, "velocity": 127, "duration": 215}, {"note": 63, "velocity": 99, "duration": 471}, {"note": 0, "velocity": 0, "duration": 249}, {"note": 59, "velocity": 93, "duration": 251}, {"note": 56, "velocity": 100, "duration": 156}, {"note": 0, "velocity": 0, "duration": 84}, {"note": 59, "velocity": 93, "duration": 261}, {"note": 0, "velocity": 0, "duration": 99}, {"note": 61, "velocity": 96, "duration": 137}, {"note": 63, "velocity": 97, "duration": 547}, {"note": 0, "velocity": 0, "duration": 293}, {"note": 56, "velocity": 88, "duration": 104}, {"note": 59, "velocity": 93, "duration": 151}, {"note": 0, "velocity": 0, "duration": 89}, {"note": 56, "velocity": 89, "duration": 119}, {"note": 59, "velocity": 93, "duration": 159}, {"note": 0, "velocity": 0, "duration": 321}, {"note": 71, "velocity": 117, "duration": 119}, {"note": 70, "velocity": 117, "duration": 202}, {"note": 71, "velocity": 100, "duration": 177}, {"note": 0, "velocity": 0, "duration": 63}, {"note": 66, "velocity": 97, "duration": 233}, {"note": 63, "velocity": 96, "duration": 238}, {"note": 68, "velocity": 102, "duration": 971}, {"note": 0, "velocity": 0, "duration": 802}, {"note": 66, "velocity": 95, "duration": 57}, {"note": 0, "velocity": 0, "duration": 72}, {"note": 68, "velocity": 102, "duration": 159}, {"note": 0, "velocity": 0, "duration": 99}, {"note": 63, "velocity": 96, "duration": 85}, {"note": 66, "velocity": 117, "duration": 329}, {"note": 0, "velocity": 0, "duration": 151}, {"note": 66, "velocity": 102, "duration": 58}, {"note": 0, "velocity": 0, "duration": 62}, {"note": 68, "velocity": 122, "duration": 56}, {"note": 0, "velocity": 0, "duration": 64}, {"note": 71, "velocity": 112, "duration": 69}, {"note": 68, "velocity": 107, "duration": 85}, {"note": 66, "velocity": 93, "duration": 49}, {"note": 0, "velocity": 0, "duration": 71}, {"note": 63, "velocity": 127, "duration": 49}, {"note": 0, "velocity": 0, "duration": 71}, {"note": 61, "velocity": 122, "duration": 53}, {"note": 0, "velocity": 0, "duration": 67}, {"note": 59, "velocity": 107, "duration": 53}, {"note": 0, "velocity": 0, "duration": 67}, {"note": 61, "velocity": 112, "duration": 47}, {"note": 0, "velocity": 0, "duration": 73}, {"note": 63, "velocity": 127, "duration": 132}, {"note": 0, "velocity": 0, "duration": 108}, {"note": 56, "velocity": 102, "duration": 63}, {"note": 59, "velocity": 127, "duration": 373}, {"note": 0, "velocity": 0, "duration": 107}, {"note": 61, "velocity": 97, "duration": 57}, {"note": 0, "velocity": 0, "duration": 63}, {"note": 63, "velocity": 97, "duration": 57}, {"note": 0, "velocity": 0, "duration": 63}, {"note": 66, "velocity": 100, "duration": 66}, {"note": 63, "velocity": 96, "duration": 64}, {"note": 61, "velocity": 99, "duration": 49}, {"note": 0, "velocity": 0, "duration": 71}, {"note": 59, "velocity": 102, "duration": 66}, {"note": 61, "velocity": 93, "duration": 82}, {"note": 63, "velocity": 96, "duration": 71}, {"note": 66, "velocity": 100, "duration": 57}, {"note": 0, "velocity": 0, "duration": 63}, {"note": 68, "velocity": 122, "duration": 115}, {"note": 0, "velocity": 0, "duration": 125}, {"note": 63, "velocity": 97, "duration": 59}, {"note": 0, "velocity": 0, "duration": 61}, {"note": 66, "velocity": 102, "duration": 278}, {"note": 0, "velocity": 0, "duration": 202}, {"note": 63, "velocity": 102, "duration": 61}, {"note": 61, "velocity": 112, "duration": 122}, {"note": 0, "velocity": 0, "duration": 118}, {"note": 63, "velocity": 102, "duration": 50}, {"note": 0, "velocity": 0, "duration": 70}, {"note": 59, "velocity": 100, "duration": 335}, {"note": 0, "velocity": 0, "duration": 145}, {"note": 63, "velocity": 117, "duration": 48}, {"note": 0, "velocity": 0, "duration": 72}, {"note": 61, "velocity": 112, "duration": 67}, {"note": 59, "velocity": 107, "duration": 63}, {"note": 59, "velocity": 96, "duration": 65}, {"note": 56, "velocity": 89, "duration": 56}, {"note": 0, "velocity": 0, "duration": 64}, {"note": 59, "velocity": 99, "duration": 77}, {"note": 61, "velocity": 107, "duration": 62}, {"note": 0, "velocity": 0, "duration": 178}, {"note": 63, "velocity": 97, "duration": 94}, {"note": 61, "velocity": 122, "duration": 350}, {"note": 54, "velocity": 93, "duration": 57}, {"note": 0, "velocity": 0, "duration": 63}, {"note": 59, "velocity": 96, "duration": 67}, {"note": 61, "velocity": 96, "duration": 94}, {"note": 63, "velocity": 107, "duration": 47}, {"note": 0, "velocity": 0, "duration": 73}, {"note": 66, "velocity": 102, "duration": 59}, {"note": 0, "velocity": 0, "duration": 61}, {"note": 68, "velocity": 112, "duration": 151}, {"note": 0, "velocity": 0, "duration": 89}, {"note": 63, "velocity": 95, "duration": 62}, {"note": 66, "velocity": 117, "duration": 265}, {"note": 0, "velocity": 0, "duration": 215}, {"note": 66, "velocity": 102, "duration": 61}, {"note": 68, "velocity": 112, "duration": 55}, {"note": 0, "velocity": 0, "duration": 65}, {"note": 71, "velocity": 112, "duration": 44}, {"note": 0, "velocity": 0, "duration": 76}, {"note": 68, "velocity": 107, "duration": 62}, {"note": 66, "velocity": 100, "duration": 58}, {"note": 0, "velocity": 0, "duration": 62}, {"note": 63, "velocity": 102, "duration": 46}, {"note": 0, "velocity": 0, "duration": 74}, {"note": 61, "velocity": 112, "duration": 58}, {"note": 0, "velocity": 0, "duration": 62}, {"note": 59, "velocity": 100, "duration": 50}, {"note": 0, "velocity": 0, "duration": 70}, {"note": 61, "velocity": 95, "duration": 47}, {"note": 0, "velocity": 0, "duration": 73}, {"note": 63, "velocity": 127, "duration": 131}, {"note": 0, "velocity": 0, "duration": 109}, {"note": 56, "velocity": 95, "duration": 64}, {"note": 59, "velocity": 107, "duration": 309}, {"note": 0, "velocity": 0, "duration": 171}, {"note": 61, "velocity": 100, "duration": 56}, {"note": 0, "velocity": 0, "duration": 64}, {"note": 63, "velocity": 112, "duration": 48}, {"note": 0, "velocity": 0, "duration": 72}, {"note": 66, "velocity": 86, "duration": 38}, {"note": 0, "velocity": 0, "duration": 82}, {"note": 63, "velocity": 102, "duration": 53}, {"note": 0, "velocity": 0, "duration": 67}, {"note": 61, "velocity": 90, "duration": 43}, {"note": 0, "velocity": 0, "duration": 77}, {"note": 59, "velocity": 96, "duration": 51}, {"note": 0, "velocity": 0, "duration": 69}, {"note": 61, "velocity": 97, "duration": 52}, {"note": 0, "velocity": 0, "duration": 68}, {"note": 63, "velocity": 112, "duration": 54}, {"note": 0, "velocity": 0, "duration": 66}, {"note": 66, "velocity": 96, "duration": 52}, {"note": 0, "velocity": 0, "duration": 68}, {"note": 68, "velocity": 117, "duration": 160}, {"note": 0, "velocity": 0, "duration": 320}, {"note": 68, "velocity": 102, "duration": 105}, {"note": 66, "velocity": 82, "duration": 111}, {"note": 63, "velocity": 97, "duration": 132}, {"note": 68, "velocity": 97, "duration": 112}, {"note": 66, "velocity": 112, "duration": 221}, {"note": 0, "velocity": 0, "duration": 259}, {"note": 66, "velocity": 96, "duration": 74}, {"note": 68, "velocity": 102, "duration": 55}, {"note": 0, "velocity": 0, "duration": 65}, {"note": 71, "velocity": 97, "duration": 68}, {"note": 68, "velocity": 102, "duration": 56}, {"note": 0, "velocity": 0, "duration": 64}, {"note": 71, "velocity": 112, "duration": 88}, {"note": 68, "velocity": 102, "duration": 96}, {"note": 66, "velocity": 92, "duration": 64}, {"note": 68, "velocity": 99, "duration": 153}, {"note": 0, "velocity": 0, "duration": 87}, {"note": 63, "velocity": 99, "duration": 334}, {"note": 61, "velocity": 102, "duration": 93}, {"note": 63, "velocity": 93, "duration": 63}, {"note": 66, "velocity": 97, "duration": 73}, {"note": 63, "velocity": 112, "duration": 136}, {"note": 61, "velocity": 112, "duration": 83}, {"note": 59, "velocity": 107, "duration": 107}, {"note": 0, "velocity": 0, "duration": 253}, {"note": 56, "velocity": 92, "duration": 281}, {"note": 59, "velocity": 99, "duration": 740}, {"note": 0, "velocity": 0, "duration": 6700}, {"note": 59, "velocity": 96, "duration": 146}, {"note": 0, "velocity": 0, "duration": 94}, {"note": 61, "velocity": 93, "duration": 113}, {"note": 63, "velocity": 89, "duration": 264}, {"note": 0, "velocity": 0, "duration": 96}, {"note": 68, "velocity": 99, "duration": 164}, {"note": 0, "velocity": 0, "duration": 76}, {"note": 66, "velocity": 127, "duration": 215}, {"note": 63, "velocity": 99, "duration": 471}, {"note": 0, "velocity": 0, "duration": 249}, {"note": 59, "velocity": 93, "duration": 251}, {"note": 56, "velocity": 100, "duration": 156}, {"note": 0, "velocity": 0, "duration": 84}, {"note": 59, "velocity": 93, "duration": 261}, {"note": 0, "velocity": 0, "duration": 99}, {"note": 61, "velocity": 96, "duration": 137}, {"note": 63, "velocity": 97, "duration": 547}, {"note": 0, "velocity": 0, "duration": 293}, {"note": 56, "velocity": 88, "duration": 104}, {"note": 59, "velocity": 93, "duration": 151}, {"note": 0, "velocity": 0, "duration": 89}, {"note": 56, "velocity": 89, "duration": 119}, {"note": 59, "velocity": 93, "duration": 159}, {"note": 0, "velocity": 0, "duration": 321}, {"note": 71, "velocity": 117, "duration": 119}, {"note": 70, "velocity": 117, "duration": 202}, {"note": 71, "velocity": 100, "duration": 177}, {"note": 0, "velocity": 0, "duration": 63}, {"note": 66, "velocity": 97, "duration": 233}, {"note": 63, "velocity": 96, "duration": 238}, {"note": 68, "velocity": 102, "duration": 971}, {"note": 70, "velocity": 100, "duration": 77}, {"note": 68, "velocity": 72, "duration": 11}, {"note": 66, "velocity": 95, "duration": 311}, {"note": 0, "velocity": 0, "duration": 529}, {"note": 66, "velocity": 95, "duration": 68}, {"note": 68, "velocity": 102, "duration": 141}, {"note": 0, "velocity": 0, "duration": 99}, {"note": 63, "velocity": 96, "duration": 85}, {"note": 66, "velocity": 117, "duration": 329}, {"note": 0, "velocity": 0, "duration": 151}, {"note": 66, "velocity": 102, "duration": 58}, {"note": 0, "velocity": 0, "duration": 62}, {"note": 68, "velocity": 122, "duration": 56}, {"note": 0, "velocity": 0, "duration": 64}, {"note": 71, "velocity": 112, "duration": 69}, {"note": 68, "velocity": 107, "duration": 85}, {"note": 66, "velocity": 93, "duration": 49}, {"note": 0, "velocity": 0, "duration": 71}, {"note": 63, "velocity": 127, "duration": 49}, {"note": 0, "velocity": 0, "duration": 71}, {"note": 61, "velocity": 122, "duration": 53}, {"note": 0, "velocity": 0, "duration": 67}, {"note": 59, "velocity": 107, "duration": 53}, {"note": 0, "velocity": 0, "duration": 67}, {"note": 61, "velocity": 112, "duration": 47}, {"note": 0, "velocity": 0, "duration": 73}, {"note": 63, "velocity": 127, "duration": 132}, {"note": 0, "velocity": 0, "duration": 108}, {"note": 56, "velocity": 102, "duration": 63}, {"note": 59, "velocity": 127, "duration": 373}, {"note": 0, "velocity": 0, "duration": 107}, {"note": 61, "velocity": 97, "duration": 57}, {"note": 0, "velocity": 0, "duration": 63}, {"note": 63, "velocity": 97, "duration": 57}, {"note": 0, "velocity": 0, "duration": 63}, {"note": 66, "velocity": 100, "duration": 66}, {"note": 63, "velocity": 96, "duration": 64}, {"note": 61, "velocity": 99, "duration": 49}, {"note": 0, "velocity": 0, "duration": 71}, {"note": 59, "velocity": 102, "duration": 66}, {"note": 61, "velocity": 93, "duration": 82}, {"note": 63, "velocity": 96, "duration": 71}, {"note": 66, "velocity": 100, "duration": 57}, {"note": 0, "velocity": 0, "duration": 63}, {"note": 68, "velocity": 122, "duration": 115}, {"note": 0, "velocity": 0, "duration": 125}, {"note": 63, "velocity": 97, "duration": 59}, {"note": 0, "velocity": 0, "duration": 61}, {"note": 66, "velocity": 102, "duration": 278}, {"note": 0, "velocity": 0, "duration": 202}, {"note": 63, "velocity": 102, "duration": 61}, {"note": 61, "velocity": 112, "duration": 122}, {"note": 0, "velocity": 0, "duration": 118}, {"note": 63, "velocity": 102, "duration": 50}, {"note": 0, "velocity": 0, "duration": 70}, {"note": 59, "velocity": 100, "duration": 335}, {"note": 0, "velocity": 0, "duration": 145}, {"note": 63, "velocity": 117, "duration": 48}, {"note": 0, "velocity": 0, "duration": 72}, {"note": 61, "velocity": 112, "duration": 67}, {"note": 59, "velocity": 107, "duration": 63}, {"note": 59, "velocity": 96, "duration": 65}, {"note": 56, "velocity": 89, "duration": 56}, {"note": 0, "velocity": 0, "duration": 64}, {"note": 59, "velocity": 99, "duration": 77}, {"note": 61, "velocity": 107, "duration": 62}, {"note": 0, "velocity": 0, "duration": 178}, {"note": 63, "velocity": 97, "duration": 94}, {"note": 61, "velocity": 122, "duration": 350}, {"note": 54, "velocity": 93, "duration": 57}, {"note": 0, "velocity": 0, "duration": 63}, {"note": 59, "velocity": 96, "duration": 67}, {"note": 61, "velocity": 96, "duration": 94}, {"note": 63, "velocity": 107, "duration": 47}, {"note": 0, "velocity": 0, "duration": 73}, {"note": 66, "velocity": 102, "duration": 59}, {"note": 0, "velocity": 0, "duration": 61}, {"note": 68, "velocity": 112, "duration": 151}, {"note": 0, "velocity": 0, "duration": 89}, {"note": 63, "velocity": 95, "duration": 62}, {"note": 66, "velocity": 117, "duration": 265}, {"note": 0, "velocity": 0, "duration": 215}, {"note": 66, "velocity": 102, "duration": 61}, {"note": 68, "velocity": 112, "duration": 55}, {"note": 0, "velocity": 0, "duration": 65}, {"note": 71, "velocity": 112, "duration": 44}, {"note": 0, "velocity": 0, "duration": 76}, {"note": 68, "velocity": 107, "duration": 62}, {"note": 66, "velocity": 100, "duration": 58}, {"note": 0, "velocity": 0, "duration": 62}, {"note": 63, "velocity": 102, "duration": 46}, {"note": 0, "velocity": 0, "duration": 74}, {"note": 61, "velocity": 112, "duration": 58}, {"note": 0, "velocity": 0, "duration": 62}, {"note": 59, "velocity": 100, "duration": 50}, {"note": 0, "velocity": 0, "duration": 70}, {"note": 61, "velocity": 95, "duration": 47}, {"note": 0, "velocity": 0, "duration": 73}, {"note": 63, "velocity": 127, "duration": 131}, {"note": 0, "velocity": 0, "duration": 109}, {"note": 56, "velocity": 95, "duration": 64}, {"note": 59, "velocity": 107, "duration": 309}, {"note": 0, "velocity": 0, "duration": 171}, {"note": 61, "velocity": 100, "duration": 56}, {"note": 0, "velocity": 0, "duration": 64}, {"note": 63, "velocity": 112, "duration": 48}, {"note": 0, "velocity": 0, "duration": 72}, {"note": 66, "velocity": 86, "duration": 38}, {"note": 0, "velocity": 0, "duration": 82}, {"note": 63, "velocity": 102, "duration": 53}, {"note": 0, "velocity": 0, "duration": 67}, {"note": 61, "velocity": 90, "duration": 43}, {"note": 0, "velocity": 0, "duration": 77}, {"note": 59, "velocity": 96, "duration": 51}, {"note": 0, "velocity": 0, "duration": 69}, {"note": 61, "velocity": 97, "duration": 52}, {"note": 0, "velocity": 0, "duration": 68}, {"note": 63, "velocity": 112, "duration": 54}, {"note": 0, "velocity": 0, "duration": 66}, {"note": 66, "velocity": 96, "duration": 52}, {"note": 0, "velocity": 0, "duration": 68}, {"note": 68, "velocity": 117, "duration": 160}, {"note": 0, "velocity": 0, "duration": 320}, {"note": 68, "velocity": 102, "duration": 105}, {"note": 66, "velocity": 82, "duration": 111}, {"note": 63, "velocity": 97, "duration": 132}, {"note": 68, "velocity": 97, "duration": 112}, {"note": 66, "velocity": 112, "duration": 221}, {"note": 0, "velocity": 0, "duration": 259}, {"note": 66, "velocity": 96, "duration": 74}, {"note": 68, "velocity": 102, "duration": 55}, {"note": 0, "velocity": 0, "duration": 65}, {"note": 71, "velocity": 97, "duration": 68}, {"note": 68, "velocity": 102, "duration": 56}, {"note": 0, "velocity": 0, "duration": 64}, {"note": 71, "velocity": 112, "duration": 88}, {"note": 68, "velocity": 102, "duration": 96}, {"note": 66, "velocity": 92, "duration": 64}, {"note": 68, "velocity": 99, "duration": 153}, {"note": 0, "velocity": 0, "duration": 87}, {"note": 63, "velocity": 99, "duration": 334}, {"note": 61, "velocity": 102, "duration": 93}, {"note": 63, "velocity": 93, "duration": 63}, {"note": 66, "velocity": 97, "duration": 73}, {"note": 63, "velocity": 112, "duration": 136}, {"note": 61, "velocity": 112, "duration": 83}, {"note": 59, "velocity": 107, "duration": 107}, {"note": 0, "velocity": 0, "duration": 253}, {"note": 56, "velocity": 92, "duration": 281}, {"note": 59, "velocity": 99, "duration": 740}, {"note": 0, "velocity": 0, "duration": 100}, {"note": 54, "velocity": 95, "duration": 49}, {"note": 0, "velocity": 0, "duration": 71}, {"note": 61, "velocity": 100, "duration": 60}, {"note": 63, "velocity": 107, "duration": 54}, {"note": 0, "velocity": 0, "duration": 66}, {"note": 66, "velocity": 112, "duration": 102}, {"note": 0, "velocity": 0, "duration": 138}, {"note": 63, "velocity": 95, "duration": 133}, {"note": 0, "velocity": 0, "duration": 107}, {"note": 61, "velocity": 117, "duration": 219}, {"note": 63, "velocity": 122, "duration": 442}, {"note": 0, "velocity": 0, "duration": 398}, {"note": 54, "velocity": 73, "duration": 97}, {"note": 61, "velocity": 100, "duration": 126}, {"note": 63, "velocity": 97, "duration": 66}, {"note": 66, "velocity": 122, "duration": 120}, {"note": 63, "velocity": 107, "duration": 136}, {"note": 0, "velocity": 0, "duration": 104}, {"note": 61, "velocity": 107, "duration": 58}, {"note": 0, "velocity": 0, "duration": 62}, {"note": 61, "velocity": 117, "duration": 185}, {"note": 63, "velocity": 102, "duration": 109}, {"note": 59, "velocity": 117, "duration": 470}, {"note": 0, "velocity": 0, "duration": 250}, {"note": 59, "velocity": 100, "duration": 45}, {"note": 0, "velocity": 0, "duration": 75}, {"note": 59, "velocity": 93, "duration": 61}, {"note": 61, "velocity": 112, "duration": 55}, {"note": 0, "velocity": 0, "duration": 65}, {"note": 63, "velocity": 107, "duration": 90}, {"note": 0, "velocity": 0, "duration": 150}, {"note": 66, "velocity": 117, "duration": 85}, {"note": 70, "velocity": 112, "duration": 168}, {"note": 0, "velocity": 0, "duration": 192}, {"note": 66, "velocity": 107, "duration": 413}, {"note": 0, "velocity": 0, "duration": 187}, {"note": 66, "velocity": 112, "duration": 47}, {"note": 0, "velocity": 0, "duration": 73}, {"note": 68, "velocity": 127, "duration": 197}, {"note": 66, "velocity": 122, "duration": 34}, {"note": 0, "velocity": 0, "duration": 86}, {"note": 63, "velocity": 107, "duration": 231}, {"note": 0, "velocity": 0, "duration": 129}, {"note": 61, "velocity": 112, "duration": 41}, {"note": 0, "velocity": 0, "duration": 79}, {"note": 61, "velocity": 117, "duration": 217}, {"note": 0, "velocity": 0, "duration": 143}, {"note": 63, "velocity": 122, "duration": 63}, {"note": 0, "velocity": 0, "duration": 177}, {"note": 61, "velocity": 117, "duration": 137}, {"note": 59, "velocity": 89, "duration": 390}, {"note": 0, "velocity": 0, "duration": 330}, {"note": 68, "velocity": 127, "duration": 95}, {"note": 66, "velocity": 99, "duration": 101}, {"note": 63, "velocity": 100, "duration": 80}, {"note": 61, "velocity": 100, "duration": 103}, {"note": 59, "velocity": 97, "duration": 64}, {"note": 63, "velocity": 107, "duration": 205}, {"note": 59, "velocity": 100, "duration": 65}, {"note": 0, "velocity": 0, "duration": 175}, {"note": 59, "velocity": 112, "duration": 228}, {"note": 56, "velocity": 100, "duration": 469}, {"note": 0, "velocity": 0, "duration": 731}, {"note": 66, "velocity": 95, "duration": 68}, {"note": 68, "velocity": 102, "duration": 141}, {"note": 0, "velocity": 0, "duration": 99}, {"note": 63, "velocity": 96, "duration": 85}, {"note": 66, "velocity": 117, "duration": 329}, {"note": 0, "velocity": 0, "duration": 151}, {"note": 66, "velocity": 102, "duration": 58}, {"note": 0, "velocity": 0, "duration": 62}, {"note": 68, "velocity": 122, "duration": 56}, {"note": 0, "velocity": 0, "duration": 64}, {"note": 71, "velocity": 112, "duration": 69}, {"note": 68, "velocity": 107, "duration": 85}, {"note": 66, "velocity": 93, "duration": 49}, {"note": 0, "velocity": 0, "duration": 71}, {"note": 63, "velocity": 127, "duration": 49}, {"note": 0, "velocity": 0, "duration": 71}, {"note": 61, "velocity": 122, "duration": 53}, {"note": 0, "velocity": 0, "duration": 67}, {"note": 59, "velocity": 107, "duration": 53}, {"note": 0, "velocity": 0, "duration": 67}, {"note": 61, "velocity": 112, "duration": 47}, {"note": 0, "velocity": 0, "duration": 73}, {"note": 63, "velocity": 127, "duration": 132}, {"note": 0, "velocity": 0, "duration": 108}, {"note": 56, "velocity": 102, "duration": 63}, {"note": 59, "velocity": 127, "duration": 373}, {"note": 0, "velocity": 0, "duration": 107}, {"note": 61, "velocity": 97, "duration": 57}, {"note": 0, "velocity": 0, "duration": 63}, {"note": 63, "velocity": 97, "duration": 57}, {"note": 0, "velocity": 0, "duration": 63}, {"note": 66, "velocity": 100, "duration": 66}, {"note": 63, "velocity": 96, "duration": 64}, {"note": 61, "velocity": 99, "duration": 49}, {"note": 0, "velocity": 0, "duration": 71}, {"note": 59, "velocity": 102, "duration": 66}, {"note": 61, "velocity": 93, "duration": 82}, {"note": 63, "velocity": 96, "duration": 71}, {"note": 66, "velocity": 100, "duration": 57}, {"note": 0, "velocity": 0, "duration": 63}, {"note": 68, "velocity": 122, "duration": 115}, {"note": 0, "velocity": 0, "duration": 125}, {"note": 63, "velocity": 97, "duration": 59}, {"note": 0, "velocity": 0, "duration": 61}, {"note": 66, "velocity": 102, "duration": 278}, {"note": 0, "velocity": 0, "duration": 202}, {"note": 63, "velocity": 102, "duration": 61}, {"note": 61, "velocity": 112, "duration": 122}, {"note": 0, "velocity": 0, "duration": 118}, {"note": 63, "velocity": 102, "duration": 50}, {"note": 0, "velocity": 0, "duration": 70}, {"note": 59, "velocity": 100, "duration": 335}, {"note": 0, "velocity": 0, "duration": 145}, {"note": 63, "velocity": 117, "duration": 48}, {"note": 0, "velocity": 0, "duration": 72}, {"note": 61, "velocity": 112, "duration": 67}, {"note": 59, "velocity": 107, "duration": 63}, {"note": 59, "velocity": 96, "duration": 65}, {"note": 56, "velocity": 89, "duration": 56}, {"note": 0, "velocity": 0, "duration": 64}, {"note": 59, "velocity": 99, "duration": 77}, {"note": 61, "velocity": 107, "duration": 62}, {"note": 0, "velocity": 0, "duration": 178}, {"note": 63, "velocity": 97, "duration": 94}, {"note": 61, "velocity": 122, "duration": 350}, {"note": 54, "velocity": 93, "duration": 57}, {"note": 0, "velocity": 0, "duration": 63}, {"note": 59, "velocity": 96, "duration": 67}, {"note": 61, "velocity": 96, "duration": 94}, {"note": 63, "velocity": 107, "duration": 47}, {"note": 0, "velocity": 0, "duration": 73}, {"note": 66, "velocity": 102, "duration": 59}, {"note": 0, "velocity": 0, "duration": 61}, {"note": 68, "velocity": 112, "duration": 151}, {"note": 0, "velocity": 0, "duration": 89}, {"note": 63, "velocity": 95, "duration": 62}, {"note": 66, "velocity": 117, "duration": 265}, {"note": 0, "velocity": 0, "duration": 215}, {"note": 66, "velocity": 102, "duration": 61}, {"note": 68, "velocity": 112, "duration": 55}, {"note": 0, "velocity": 0, "duration": 65}, {"note": 71, "velocity": 112, "duration": 44}, {"note": 0, "velocity": 0, "duration": 76}, {"note": 68, "velocity": 107, "duration": 62}, {"note": 66, "velocity": 100, "duration": 58}, {"note": 0, "velocity": 0, "duration": 62}, {"note": 63, "velocity": 102, "duration": 46}, {"note": 0, "velocity": 0, "duration": 74}, {"note": 61, "velocity": 112, "duration": 58}, {"note": 0, "velocity": 0, "duration": 62}, {"note": 59, "velocity": 100, "duration": 50}, {"note": 0, "velocity": 0, "duration": 70}, {"note": 61, "velocity": 95, "duration": 47}, {"note": 0, "velocity": 0, "duration": 73}, {"note": 63, "velocity": 127, "duration": 131}, {"note": 0, "velocity": 0, "duration": 109}, {"note": 56, "velocity": 95, "duration": 64}, {"note": 59, "velocity": 107, "duration": 309}, {"note": 0, "velocity": 0, "duration": 171}, {"note": 61, "velocity": 100, "duration": 56}, {"note": 0, "velocity": 0, "duration": 64}, {"note": 63, "velocity": 112, "duration": 48}, {"note": 0, "velocity": 0, "duration": 72}, {"note": 66, "velocity": 86, "duration": 38}, {"note": 0, "velocity": 0, "duration": 82}, {"note": 63, "velocity": 102, "duration": 53}, {"note": 0, "velocity": 0, "duration": 67}, {"note": 61, "velocity": 90, "duration": 43}, {"note": 0, "velocity": 0, "duration": 77}, {"note": 59, "velocity": 96, "duration": 51}, {"note": 0, "velocity": 0, "duration": 69}, {"note": 61, "velocity": 97, "duration": 52}, {"note": 0, "velocity": 0, "duration": 68}, {"note": 63, "velocity": 112, "duration": 54}, {"note": 0, "velocity": 0, "duration": 66}, {"note": 66, "velocity": 96, "duration": 52}, {"note": 0, "velocity": 0, "duration": 68}, {"note": 68, "velocity": 117, "duration": 160}, {"note": 0, "velocity": 0, "duration": 320}, {"note": 68, "velocity": 102, "duration": 105}, {"note": 66, "velocity": 82, "duration": 111}, {"note": 63, "velocity": 97, "duration": 132}, {"note": 68, "velocity": 97, "duration": 112}, {"note": 66, "velocity": 112, "duration": 221}, {"note": 0, "velocity": 0, "duration": 259}, {"note": 66, "velocity": 96, "duration": 74}, {"note": 68, "velocity": 102, "duration": 55}, {"note": 0, "velocity": 0, "duration": 65}, {"note": 71, "velocity": 97, "duration": 68}, {"note": 68, "velocity": 102, "duration": 56}, {"note": 0, "velocity": 0, "duration": 64}, {"note": 71, "velocity": 112, "duration": 88}, {"note": 68, "velocity": 102, "duration": 96}, {"note": 66, "velocity": 92, "duration": 64}, {"note": 68, "velocity": 99, "duration": 153}, {"note": 0, "velocity": 0, "duration": 87}, {"note": 63, "velocity": 99, "duration": 334}, {"note": 61, "velocity": 102, "duration": 93}, {"note": 63, "velocity": 93, "duration": 63}, {"note": 66, "velocity": 97, "duration": 73}, {"note": 63, "velocity": 112, "duration": 136}, {"note": 61, "velocity": 112, "duration": 83}, {"note": 59, "velocity": 107, "duration": 107}, {"note": 0, "velocity": 0, "duration": 493}, {"note": 56, "velocity": 99, "duration": 231}, {"note": 59, "velocity": 112, "duration": 486}, {"note": 0, "velocity": 0, "duration": 684}, {"note": 66, "velocity": 100, "duration": 102}, {"note": 0, "velocity": 0, "duration": 118}, {"note": 68, "velocity": 107, "duration": 223}, {"note": 66, "velocity": 117, "duration": 122}, {"note": 0, "velocity": 0, "duration": 87}, {"note": 63, "velocity": 95, "duration": 198}, {"note": 61, "velocity": 97, "duration": 178}, {"note": 0, "velocity": 0, "duration": 176}, {"note": 66, "velocity": 107, "duration": 900}, {"note": 0, "velocity": 0, "duration": 254}, {"note": 58, "velocity": 90, "duration": 268}, {"note": 0, "velocity": 0, "duration": 152}, {"note": 59, "velocity": 95, "duration": 1536}]]