[[{"note": 60, "velocity": 112, "duration": 71}, {"note": 0, "velocity": 0, "duration": 169}, {"note": 60, "velocity": 100, "duration": 76}, {"note": 0, "velocity": 0, "duration": 164}, {"note": 60, "velocity": 97, "duration": 104}, {"note": 0, "velocity": 0, "duration": 136}, {"note": 63, "velocity": 122, "duration": 83}, {"note": 0, "velocity": 0, "duration": 157}, {"note": 65, "velocity": 102, "duration": 178}, {"note": 0, "velocity": 0, "duration": 62}, {"note": 63, "velocity": 117, "duration": 67}, {"note": 0, "velocity": 0, "duration": 173}, {"note": 60, "velocity": 112, "duration": 174}, {"note": 0, "velocity": 0, "duration": 66}, {"note": 56, "velocity": 112, "duration": 226}, {"note": 58, "velocity": 102, "duration": 732}, {"note": 0, "velocity": 0, "duration": 1188}, {"note": 60, "velocity": 112, "duration": 131}, {"note": 0, "velocity": 0, "duration": 109}, {"note": 60, "velocity": 96, "duration": 106}, {"note": 0, "velocity": 0, "duration": 134}, {"note": 60, "velocity": 97, "duration": 117}, {"note": 0, "velocity": 0, "duration": 123}, {"note": 63, "velocity": 112, "duration": 110}, {"note": 0, "velocity": 0, "duration": 130}, {"note": 65, "velocity": 97, "duration": 133}, {"note": 0, "velocity": 0, "duration": 107}, {"note": 63, "velocity": 127, "duration": 143}, {"note": 0, "velocity": 0, "duration": 97}, {"note": 58, "velocity": 122, "duration": 114}, {"note": 0, "velocity": 0, "duration": 126}, {"note": 56, "velocity": 96, "duration": 172}, {"note": 0, "velocity": 0, "duration": 68}, {"note": 53, "velocity": 95, "duration": 804}, {"note": 0, "velocity": 0, "duration": 1116}, {"note": 51, "velocity": 95, "duration": 85}, {"note": 0, "velocity": 0, "duration": 155}, {"note": 51, "velocity": 90, "duration": 77}, {"note": 0, "velocity": 0, "duration": 163}, {"note": 51, "velocity": 100, "duration": 158}, {"note": 0, "velocity": 0, "duration": 82}, {"note": 53, "velocity": 86, "duration": 182}, {"note": 56, "velocity": 102, "duration": 383}, {"note": 0, "velocity": 0, "duration": 97}, {"note": 56, "velocity": 117, "duration": 258}, {"note": 0, "velocity": 0, "duration": 222}, {"note": 60, "velocity": 99, "duration": 137}, {"note": 0, "velocity": 0, "duration": 103}, {"note": 63, "velocity": 100, "duration": 103}, {"note": 0, "velocity": 0, "duration": 137}, {"note": 63, "velocity": 112, "duration": 121}, {"note": 0, "velocity": 0, "duration": 119}, {"note": 55, "velocity": 95, "duration": 152}, {"note": 0, "velocity": 0, "duration": 88}, {"note": 60, "velocity": 112, "duration": 471}, {"note": 0, "velocity": 0, "duration": 489}, {"note": 58, "velocity": 117, "duration": 87}, {"note": 0, "velocity": 0, "duration": 153}, {"note": 58, "velocity": 107, "duration": 90}, {"note": 0, "velocity": 0, "duration": 150}, {"note": 58, "velocity": 102, "duration": 86}, {"note": 0, "velocity": 0, "duration": 154}, {"note": 56, "velocity": 99, "duration": 71}, {"note": 0, "velocity": 0, "duration": 169}, {"note": 58, "velocity": 127, "duration": 94}, {"note": 0, "velocity": 0, "duration": 146}, {"note": 56, "velocity": 107, "duration": 103}, {"note": 0, "velocity": 0, "duration": 137}, {"note": 55, "velocity": 95, "duration": 139}, {"note": 0, "velocity": 0, "duration": 101}, {"note": 55, "velocity": 95, "duration": 114}, {"note": 0, "velocity": 0, "duration": 126}, {"note": 53, "velocity": 83, "duration": 625}, {"note": 0, "velocity": 0, "duration": 1295}, {"note": 60, "velocity": 112, "duration": 71}, {"note": 0, "velocity": 0, "duration": 169}, {"note": 60, "velocity": 100, "duration": 76}, {"note": 0, "velocity": 0, "duration": 164}, {"note": 60, "velocity": 97, "duration": 104}, {"note": 0, "velocity": 0, "duration": 136}, {"note": 63, "velocity": 122, "duration": 83}, {"note": 0, "velocity": 0, "duration": 157}, {"note": 65, "velocity": 102, "duration": 178}, {"note": 0, "velocity": 0, "duration": 62}, {"note": 63, "velocity": 117, "duration": 67}, {"note": 0, "velocity": 0, "duration": 173}, {"note": 60, "velocity": 112, "duration": 174}, {"note": 0, "velocity": 0, "duration": 66}, {"note": 56, "velocity": 112, "duration": 226}, {"note": 58, "velocity": 102, "duration": 732}, {"note": 0, "velocity": 0, "duration": 1188}, {"note": 60, "velocity": 112, "duration": 131}, {"note": 0, "velocity": 0, "duration": 109}, {"note": 60, "velocity": 96, "duration": 106}, {"note": 0, "velocity": 0, "duration": 134}, {"note": 60, "velocity": 97, "duration": 117}, {"note": 0, "velocity": 0, "duration": 123}, {"note": 63, "velocity": 112, "duration": 110}, {"note": 0, "velocity": 0, "duration": 130}, {"note": 65, "velocity": 97, "duration": 133}, {"note": 0, "velocity": 0, "duration": 107}, {"note": 63, "velocity": 127, "duration": 143}, {"note": 0, "velocity": 0, "duration": 97}, {"note": 58, "velocity": 122, "duration": 114}, {"note": 0, "velocity": 0, "duration": 126}, {"note": 56, "velocity": 96, "duration": 172}, {"note": 0, "velocity": 0, "duration": 68}, {"note": 53, "velocity": 95, "duration": 804}, {"note": 0, "velocity": 0, "duration": 1116}, {"note": 51, "velocity": 95, "duration": 85}, {"note": 0, "velocity": 0, "duration": 155}, {"note": 51, "velocity": 90, "duration": 77}, {"note": 0, "velocity": 0, "duration": 163}, {"note": 51, "velocity": 100, "duration": 158}, {"note": 0, "velocity": 0, "duration": 82}, {"note": 53, "velocity": 86, "duration": 182}, {"note": 56, "velocity": 102, "duration": 383}, {"note": 0, "velocity": 0, "duration": 97}, {"note": 56, "velocity": 117, "duration": 258}, {"note": 58, "velocity": 112, "duration": 153}, {"note": 0, "velocity": 0, "duration": 87}, {"note": 60, "velocity": 99, "duration": 137}, {"note": 0, "velocity": 0, "duration": 343}, {"note": 63, "velocity": 112, "duration": 121}, {"note": 0, "velocity": 0, "duration": 119}, {"note": 55, "velocity": 95, "duration": 152}, {"note": 0, "velocity": 0, "duration": 88}, {"note": 60, "velocity": 112, "duration": 471}, {"note": 0, "velocity": 0, "duration": 489}, {"note": 58, "velocity": 117, "duration": 87}, {"note": 0, "velocity": 0, "duration": 153}, {"note": 58, "velocity": 107, "duration": 90}, {"note": 0, "velocity": 0, "duration": 150}, {"note": 58, "velocity": 102, "duration": 86}, {"note": 0, "velocity": 0, "duration": 154}, {"note": 56, "velocity": 99, "duration": 71}, {"note": 0, "velocity": 0, "duration": 169}, {"note": 51, "velocity": 96, "duration": 264}, {"note": 0, "velocity": 0, "duration": 216}, {"note": 56, "velocity": 99, "duration": 371}, {"note": 0, "velocity": 0, "duration": 109}, {"note": 53, "velocity": 89, "duration": 1190}, {"note": 0, "velocity": 0, "duration": 490}, {"note": 60, "velocity": 107, "duration": 88}, {"note": 0, "velocity": 0, "duration": 152}, {"note": 65, "velocity": 117, "duration": 81}, {"note": 0, "velocity": 0, "duration": 159}, {"note": 65, "velocity": 99, "duration": 86}, {"note": 0, "velocity": 0, "duration": 154}, {"note": 65, "velocity": 99, "duration": 123}, {"note": 0, "velocity": 0, "duration": 117}, {"note": 63, "velocity": 102, "duration": 96}, {"note": 0, "velocity": 0, "duration": 144}, {"note": 60, "velocity": 117, "duration": 202}, {"note": 63, "velocity": 122, "duration": 241}, {"note": 0, "velocity": 0, "duration": 239}, {"note": 60, "velocity": 107, "duration": 190}, {"note": 65, "velocity": 107, "duration": 80}, {"note": 0, "velocity": 0, "duration": 160}, {"note": 65, "velocity": 96, "duration": 86}, {"note": 0, "velocity": 0, "duration": 154}, {"note": 65, "velocity": 95, "duration": 94}, {"note": 0, "velocity": 0, "duration": 146}, {"note": 63, "velocity": 112, "duration": 84}, {"note": 0, "velocity": 0, "duration": 156}, {"note": 65, "velocity": 102, "duration": 310}, {"note": 0, "velocity": 0, "duration": 650}, {"note": 65, "velocity": 99, "duration": 87}, {"note": 0, "velocity": 0, "duration": 153}, {"note": 65, "velocity": 88, "duration": 85}, {"note": 0, "velocity": 0, "duration": 155}, {"note": 65, "velocity": 95, "duration": 92}, {"note": 0, "velocity": 0, "duration": 148}, {"note": 63, "velocity": 100, "duration": 77}, {"note": 0, "velocity": 0, "duration": 163}, {"note": 65, "velocity": 100, "duration": 213}, {"note": 0, "velocity": 0, "duration": 267}, {"note": 63, "velocity": 102, "duration": 110}, {"note": 0, "velocity": 0, "duration": 130}, {"note": 63, "velocity": 102, "duration": 96}, {"note": 0, "velocity": 0, "duration": 144}, {"note": 58, "velocity": 107, "duration": 352}, {"note": 0, "velocity": 0, "duration": 128}, {"note": 63, "velocity": 107, "duration": 268}, {"note": 0, "velocity": 0, "duration": 212}, {"note": 60, "velocity": 102, "duration": 313}, {"note": 0, "velocity": 0, "duration": 647}, {"note": 58, "velocity": 127, "duration": 116}, {"note": 0, "velocity": 0, "duration": 124}, {"note": 58, "velocity": 112, "duration": 108}, {"note": 0, "velocity": 0, "duration": 132}, {"note": 58, "velocity": 127, "duration": 132}, {"note": 0, "velocity": 0, "duration": 108}, {"note": 56, "velocity": 117, "duration": 79}, {"note": 0, "velocity": 0, "duration": 161}, {"note": 53, "velocity": 100, "duration": 331}, {"note": 0, "velocity": 0, "duration": 629}, {"note": 58, "velocity": 117, "duration": 119}, {"note": 0, "velocity": 0, "duration": 121}, {"note": 58, "velocity": 112, "duration": 88}, {"note": 0, "velocity": 0, "duration": 152}, {"note": 58, "velocity": 112, "duration": 124}, {"note": 0, "velocity": 0, "duration": 116}, {"note": 56, "velocity": 107, "duration": 204}, {"note": 51, "velocity": 100, "duration": 385}, {"note": 0, "velocity": 0, "duration": 575}, {"note": 68, "velocity": 127, "duration": 131}, {"note": 0, "velocity": 0, "duration": 109}, {"note": 68, "velocity": 117, "duration": 108}, {"note": 0, "velocity": 0, "duration": 132}, {"note": 68, "velocity": 127, "duration": 184}, {"note": 65, "velocity": 97, "duration": 192}, {"note": 67, "velocity": 122, "duration": 307}, {"note": 0, "velocity": 0, "duration": 173}, {"note": 63, "velocity": 127, "duration": 137}, {"note": 0, "velocity": 0, "duration": 103}, {"note": 63, "velocity": 117, "duration": 139}, {"note": 0, "velocity": 0, "duration": 101}, {"note": 60, "velocity": 117, "duration": 246}, {"note": 60, "velocity": 127, "duration": 6}, {"note": 0, "velocity": 0, "duration": 234}, {"note": 67, "velocity": 112, "duration": 280}, {"note": 0, "velocity": 0, "duration": 200}, {"note": 65, "velocity": 127, "duration": 383}, {"note": 0, "velocity": 0, "duration": 457}, {"note": 60, "velocity": 93, "duration": 102}, {"note": 65, "velocity": 102, "duration": 106}, {"note": 0, "velocity": 0, "duration": 134}, {"note": 65, "velocity": 97, "duration": 101}, {"note": 0, "velocity": 0, "duration": 139}, {"note": 65, "velocity": 99, "duration": 104}, {"note": 0, "velocity": 0, "duration": 136}, {"note": 63, "velocity": 107, "duration": 91}, {"note": 0, "velocity": 0, "duration": 149}, {"note": 60, "velocity": 97, "duration": 331}, {"note": 63, "velocity": 100, "duration": 271}, {"note": 0, "velocity": 0, "duration": 329}, {"note": 60, "velocity": 96, "duration": 106}, {"note": 65, "velocity": 112, "duration": 112}, {"note": 0, "velocity": 0, "duration": 128}, {"note": 65, "velocity": 100, "duration": 105}, {"note": 0, "velocity": 0, "duration": 135}, {"note": 65, "velocity": 96, "duration": 105}, {"note": 0, "velocity": 0, "duration": 135}, {"note": 63, "velocity": 96, "duration": 113}, {"note": 0, "velocity": 0, "duration": 127}, {"note": 65, "velocity": 100, "duration": 284}, {"note": 0, "velocity": 0, "duration": 676}, {"note": 65, "velocity": 100, "duration": 84}, {"note": 0, "velocity": 0, "duration": 156}, {"note": 65, "velocity": 96, "duration": 84}, {"note": 0, "velocity": 0, "duration": 156}, {"note": 65, "velocity": 95, "duration": 116}, {"note": 0, "velocity": 0, "duration": 124}, {"note": 63, "velocity": 102, "duration": 90}, {"note": 0, "velocity": 0, "duration": 150}, {"note": 65, "velocity": 102, "duration": 370}, {"note": 0, "velocity": 0, "duration": 110}, {"note": 63, "velocity": 117, "duration": 96}, {"note": 0, "velocity": 0, "duration": 144}, {"note": 63, "velocity": 127, "duration": 142}, {"note": 0, "velocity": 0, "duration": 98}, {"note": 58, "velocity": 112, "duration": 358}, {"note": 0, "velocity": 0, "duration": 122}, {"note": 63, "velocity": 127, "duration": 375}, {"note": 0, "velocity": 0, "duration": 105}, {"note": 60, "velocity": 100, "duration": 592}, {"note": 0, "velocity": 0, "duration": 368}, {"note": 58, "velocity": 117, "duration": 125}, {"note": 0, "velocity": 0, "duration": 115}, {"note": 58, "velocity": 97, "duration": 114}, {"note": 0, "velocity": 0, "duration": 126}, {"note": 58, "velocity": 112, "duration": 105}, {"note": 0, "velocity": 0, "duration": 135}, {"note": 60, "velocity": 97, "duration": 112}, {"note": 0, "velocity": 0, "duration": 128}, {"note": 56, "velocity": 107, "duration": 200}, {"note": 53, "velocity": 93, "duration": 271}, {"note": 0, "velocity": 0, "duration": 449}, {"note": 58, "velocity": 127, "duration": 111}, {"note": 0, "velocity": 0, "duration": 129}, {"note": 58, "velocity": 107, "duration": 109}, {"note": 0, "velocity": 0, "duration": 131}, {"note": 58, "velocity": 117, "duration": 110}, {"note": 0, "velocity": 0, "duration": 130}, {"note": 60, "velocity": 97, "duration": 116}, {"note": 0, "velocity": 0, "duration": 124}, {"note": 51, "velocity": 97, "duration": 307}, {"note": 0, "velocity": 0, "duration": 653}, {"note": 68, "velocity": 127, "duration": 88}, {"note": 0, "velocity": 0, "duration": 152}, {"note": 68, "velocity": 112, "duration": 89}, {"note": 0, "velocity": 0, "duration": 151}, {"note": 68, "velocity": 127, "duration": 101}, {"note": 0, "velocity": 0, "duration": 139}, {"note": 65, "velocity": 102, "duration": 117}, {"note": 0, "velocity": 0, "duration": 123}, {"note": 67, "velocity": 117, "duration": 211}, {"note": 0, "velocity": 0, "duration": 269}, {"note": 63, "velocity": 127, "duration": 90}, {"note": 0, "velocity": 0, "duration": 150}, {"note": 63, "velocity": 117, "duration": 66}, {"note": 0, "velocity": 0, "duration": 174}, {"note": 60, "velocity": 102, "duration": 97}, {"note": 0, "velocity": 0, "duration": 143}, {"note": 60, "velocity": 100, "duration": 102}, {"note": 0, "velocity": 0, "duration": 138}, {"note": 67, "velocity": 127, "duration": 330}, {"note": 0, "velocity": 0, "duration": 150}, {"note": 65, "velocity": 127, "duration": 746}, {"note": 0, "velocity": 0, "duration": 1174}, {"note": 53, "velocity": 96, "duration": 349}, {"note": 0, "velocity": 0, "duration": 131}, {"note": 56, "velocity": 102, "duration": 333}, {"note": 0, "velocity": 0, "duration": 147}, {"note": 58, "velocity": 122, "duration": 1089}, {"note": 0, "velocity": 0, "duration": 1791}, {"note": 58, "velocity": 112, "duration": 305}, {"note": 0, "velocity": 0, "duration": 175}, {"note": 60, "velocity": 97, "duration": 279}, {"note": 0, "velocity": 0, "duration": 201}, {"note": 56, "velocity": 89, "duration": 240}, {"note": 53, "velocity": 89, "duration": 2072}, {"note": 0, "velocity": 0, "duration": 568}, {"note": 53, "velocity": 97, "duration": 394}, {"note": 0, "velocity": 0, "duration": 86}, {"note": 56, "velocity": 107, "duration": 353}, {"note": 0, "velocity": 0, "duration": 127}, {"note": 58, "velocity": 112, "duration": 1873}, {"note": 0, "velocity": 0, "duration": 1007}, {"note": 56, "velocity": 100, "duration": 104}, {"note": 0, "velocity": 0, "duration": 136}, {"note": 48, "velocity": 86, "duration": 112}, {"note": 0, "velocity": 0, "duration": 128}, {"note": 56, "velocity": 97, "duration": 93}, {"note": 0, "velocity": 0, "duration": 147}, {"note": 53, "velocity": 99, "duration": 2128}, {"note": 0, "velocity": 0, "duration": 15392}, {"note": 60, "velocity": 112, "duration": 71}, {"note": 0, "velocity": 0, "duration": 169}, {"note": 60, "velocity": 100, "duration": 76}, {"note": 0, "velocity": 0, "duration": 164}, {"note": 60, "velocity": 97, "duration": 104}, {"note": 0, "velocity": 0, "duration": 136}, {"note": 63, "velocity": 122, "duration": 83}, {"note": 0, "velocity": 0, "duration": 157}, {"note": 65, "velocity": 102, "duration": 178}, {"note": 0, "velocity": 0, "duration": 62}, {"note": 63, "velocity": 117, "duration": 67}, {"note": 0, "velocity": 0, "duration": 173}, {"note": 60, "velocity": 112, "duration": 174}, {"note": 0, "velocity": 0, "duration": 66}, {"note": 56, "velocity": 112, "duration": 226}, {"note": 58, "velocity": 102, "duration": 732}, {"note": 0, "velocity": 0, "duration": 1188}, {"note": 60, "velocity": 112, "duration": 131}, {"note": 0, "velocity": 0, "duration": 109}, {"note": 60, "velocity": 96, "duration": 106}, {"note": 0, "velocity": 0, "duration": 134}, {"note": 60, "velocity": 97, "duration": 117}, {"note": 0, "velocity": 0, "duration": 123}, {"note": 63, "velocity": 112, "duration": 110}, {"note": 0, "velocity": 0, "duration": 130}, {"note": 65, "velocity": 97, "duration": 133}, {"note": 0, "velocity": 0, "duration": 107}, {"note": 63, "velocity": 127, "duration": 143}, {"note": 0, "velocity": 0, "duration": 97}, {"note": 60, "velocity": 122, "duration": 114}, {"note": 58, "velocity": 100, "duration": 139}, {"note": 56, "velocity": 96, "duration": 172}, {"note": 0, "velocity": 0, "duration": 68}, {"note": 53, "velocity": 95, "duration": 804}, {"note": 0, "velocity": 0, "duration": 1116}, {"note": 51, "velocity": 95, "duration": 85}, {"note": 0, "velocity": 0, "duration": 155}, {"note": 51, "velocity": 90, "duration": 77}, {"note": 0, "velocity": 0, "duration": 403}, {"note": 53, "velocity": 86, "duration": 182}, {"note": 56, "velocity": 102, "duration": 383}, {"note": 0, "velocity": 0, "duration": 97}, {"note": 56, "velocity": 117, "duration": 258}, {"note": 0, "velocity": 0, "duration": 222}, {"note": 60, "velocity": 99, "duration": 137}, {"note": 0, "velocity": 0, "duration": 103}, {"note": 63, "velocity": 100, "duration": 103}, {"note": 0, "velocity": 0, "duration": 377}, {"note": 55, "velocity": 95, "duration": 152}, {"note": 0, "velocity": 0, "duration": 88}, {"note": 60, "velocity": 112, "duration": 471}, {"note": 0, "velocity": 0, "duration": 489}, {"note": 58, "velocity": 117, "duration": 87}, {"note": 0, "velocity": 0, "duration": 153}, {"note": 58, "velocity": 107, "duration": 90}, {"note": 0, "velocity": 0, "duration": 150}, {"note": 58, "velocity": 102, "duration": 86}, {"note": 0, "velocity": 0, "duration": 154}, {"note": 56, "velocity": 99, "duration": 71}, {"note": 0, "velocity": 0, "duration": 169}, {"note": 51, "velocity": 102, "duration": 392}, {"note": 0, "velocity": 0, "duration": 88}, {"note": 56, "velocity": 95, "duration": 139}, {"note": 0, "velocity": 0, "duration": 101}, {"note": 55, "velocity": 95, "duration": 114}, {"note": 0, "velocity": 0, "duration": 126}, {"note": 53, "velocity": 83, "duration": 625}, {"note": 0, "velocity": 0, "duration": 1295}, {"note": 60, "velocity": 112, "duration": 71}, {"note": 0, "velocity": 0, "duration": 169}, {"note": 60, "velocity": 100, "duration": 76}, {"note": 0, "velocity": 0, "duration": 164}, {"note": 60, "velocity": 97, "duration": 104}, {"note": 0, "velocity": 0, "duration": 136}, {"note": 63, "velocity": 122, "duration": 83}, {"note": 0, "velocity": 0, "duration": 157}, {"note": 65, "velocity": 102, "duration": 178}, {"note": 0, "velocity": 0, "duration": 62}, {"note": 63, "velocity": 117, "duration": 67}, {"note": 0, "velocity": 0, "duration": 173}, {"note": 60, "velocity": 112, "duration": 109}, {"note": 58, "velocity": 100, "duration": 153}, {"note": 56, "velocity": 112, "duration": 226}, {"note": 58, "velocity": 102, "duration": 732}, {"note": 0, "velocity": 0, "duration": 1188}, {"note": 60, "velocity": 112, "duration": 131}, {"note": 0, "velocity": 0, "duration": 109}, {"note": 60, "velocity": 96, "duration": 106}, {"note": 0, "velocity": 0, "duration": 134}, {"note": 60, "velocity": 97, "duration": 117}, {"note": 0, "velocity": 0, "duration": 123}, {"note": 63, "velocity": 112, "duration": 110}, {"note": 0, "velocity": 0, "duration": 130}, {"note": 65, "velocity": 97, "duration": 133}, {"note": 0, "velocity": 0, "duration": 107}, {"note": 63, "velocity": 127, "duration": 143}, {"note": 0, "velocity": 0, "duration": 97}, {"note": 60, "velocity": 122, "duration": 114}, {"note": 58, "velocity": 100, "duration": 97}, {"note": 56, "velocity": 96, "duration": 172}, {"note": 0, "velocity": 0, "duration": 68}, {"note": 53, "velocity": 95, "duration": 804}, {"note": 0, "velocity": 0, "duration": 1116}, {"note": 51, "velocity": 95, "duration": 85}, {"note": 0, "velocity": 0, "duration": 155}, {"note": 51, "velocity": 90, "duration": 77}, {"note": 0, "velocity": 0, "duration": 163}, {"note": 51, "velocity": 100, "duration": 158}, {"note": 0, "velocity": 0, "duration": 82}, {"note": 53, "velocity": 86, "duration": 182}, {"note": 56, "velocity": 102, "duration": 383}, {"note": 0, "velocity": 0, "duration": 97}, {"note": 56, "velocity": 117, "duration": 258}, {"note": 58, "velocity": 112, "duration": 153}, {"note": 0, "velocity": 0, "duration": 87}, {"note": 60, "velocity": 99, "duration": 137}, {"note": 0, "velocity": 0, "duration": 343}, {"note": 63, "velocity": 112, "duration": 121}, {"note": 0, "velocity": 0, "duration": 119}, {"note": 55, "velocity": 95, "duration": 152}, {"note": 0, "velocity": 0, "duration": 88}, {"note": 60, "velocity": 112, "duration": 471}, {"note": 0, "velocity": 0, "duration": 489}, {"note": 58, "velocity": 117, "duration": 87}, {"note": 0, "velocity": 0, "duration": 153}, {"note": 58, "velocity": 107, "duration": 90}, {"note": 0, "velocity": 0, "duration": 150}, {"note": 58, "velocity": 102, "duration": 86}, {"note": 0, "velocity": 0, "duration": 154}, {"note": 56, "velocity": 99, "duration": 71}, {"note": 0, "velocity": 0, "duration": 169}, {"note": 51, "velocity": 96, "duration": 264}, {"note": 0, "velocity": 0, "duration": 216}, {"note": 56, "velocity": 99, "duration": 231}, {"note": 55, "velocity": 97, "duration": 226}, {"note": 53, "velocity": 89, "duration": 1190}, {"note": 0, "velocity": 0, "duration": 490}, {"note": 60, "velocity": 107, "duration": 88}, {"note": 0, "velocity": 0, "duration": 152}, {"note": 65, "velocity": 117, "duration": 81}, {"note": 0, "velocity": 0, "duration": 159}, {"note": 65, "velocity": 99, "duration": 86}, {"note": 0, "velocity": 0, "duration": 154}, {"note": 65, "velocity": 99, "duration": 123}, {"note": 0, "velocity": 0, "duration": 117}, {"note": 63, "velocity": 102, "duration": 96}, {"note": 0, "velocity": 0, "duration": 144}, {"note": 60, "velocity": 117, "duration": 202}, {"note": 63, "velocity": 122, "duration": 241}, {"note": 0, "velocity": 0, "duration": 239}, {"note": 60, "velocity": 107, "duration": 190}, {"note": 65, "velocity": 107, "duration": 80}, {"note": 0, "velocity": 0, "duration": 160}, {"note": 65, "velocity": 96, "duration": 86}, {"note": 0, "velocity": 0, "duration": 154}, {"note": 65, "velocity": 95, "duration": 94}, {"note": 0, "velocity": 0, "duration": 146}, {"note": 63, "velocity": 112, "duration": 84}, {"note": 0, "velocity": 0, "duration": 156}, {"note": 65, "velocity": 102, "duration": 310}, {"note": 0, "velocity": 0, "duration": 650}, {"note": 65, "velocity": 99, "duration": 87}, {"note": 0, "velocity": 0, "duration": 153}, {"note": 65, "velocity": 88, "duration": 85}, {"note": 0, "velocity": 0, "duration": 155}, {"note": 65, "velocity": 95, "duration": 92}, {"note": 0, "velocity": 0, "duration": 148}, {"note": 63, "velocity": 100, "duration": 77}, {"note": 0, "velocity": 0, "duration": 163}, {"note": 65, "velocity": 100, "duration": 213}, {"note": 0, "velocity": 0, "duration": 267}, {"note": 63, "velocity": 102, "duration": 110}, {"note": 0, "velocity": 0, "duration": 130}, {"note": 63, "velocity": 102, "duration": 96}, {"note": 0, "velocity": 0, "duration": 144}, {"note": 58, "velocity": 107, "duration": 352}, {"note": 0, "velocity": 0, "duration": 128}, {"note": 63, "velocity": 107, "duration": 268}, {"note": 0, "velocity": 0, "duration": 212}, {"note": 60, "velocity": 102, "duration": 313}, {"note": 0, "velocity": 0, "duration": 647}, {"note": 58, "velocity": 127, "duration": 116}, {"note": 0, "velocity": 0, "duration": 124}, {"note": 58, "velocity": 112, "duration": 108}, {"note": 0, "velocity": 0, "duration": 132}, {"note": 58, "velocity": 127, "duration": 132}, {"note": 0, "velocity": 0, "duration": 108}, {"note": 56, "velocity": 117, "duration": 79}, {"note": 0, "velocity": 0, "duration": 161}, {"note": 53, "velocity": 100, "duration": 331}, {"note": 0, "velocity": 0, "duration": 629}, {"note": 58, "velocity": 117, "duration": 119}, {"note": 0, "velocity": 0, "duration": 121}, {"note": 58, "velocity": 112, "duration": 88}, {"note": 0, "velocity": 0, "duration": 152}, {"note": 58, "velocity": 112, "duration": 124}, {"note": 0, "velocity": 0, "duration": 116}, {"note": 56, "velocity": 107, "duration": 204}, {"note": 51, "velocity": 100, "duration": 385}, {"note": 0, "velocity": 0, "duration": 575}, {"note": 68, "velocity": 127, "duration": 131}, {"note": 0, "velocity": 0, "duration": 109}, {"note": 68, "velocity": 117, "duration": 108}, {"note": 0, "velocity": 0, "duration": 132}, {"note": 68, "velocity": 127, "duration": 184}, {"note": 65, "velocity": 97, "duration": 192}, {"note": 67, "velocity": 122, "duration": 307}, {"note": 0, "velocity": 0, "duration": 173}, {"note": 63, "velocity": 127, "duration": 137}, {"note": 0, "velocity": 0, "duration": 103}, {"note": 63, "velocity": 117, "duration": 139}, {"note": 0, "velocity": 0, "duration": 101}, {"note": 60, "velocity": 117, "duration": 246}, {"note": 60, "velocity": 127, "duration": 6}, {"note": 0, "velocity": 0, "duration": 234}, {"note": 67, "velocity": 112, "duration": 280}, {"note": 0, "velocity": 0, "duration": 200}, {"note": 65, "velocity": 127, "duration": 383}, {"note": 0, "velocity": 0, "duration": 343}, {"note": 60, "velocity": 93, "duration": 102}, {"note": 0, "velocity": 0, "duration": 132}, {"note": 65, "velocity": 102, "duration": 106}, {"note": 0, "velocity": 0, "duration": 134}, {"note": 65, "velocity": 97, "duration": 101}, {"note": 0, "velocity": 0, "duration": 139}, {"note": 65, "velocity": 99, "duration": 104}, {"note": 0, "velocity": 0, "duration": 136}, {"note": 63, "velocity": 107, "duration": 91}, {"note": 0, "velocity": 0, "duration": 149}, {"note": 60, "velocity": 97, "duration": 331}, {"note": 63, "velocity": 100, "duration": 271}, {"note": 0, "velocity": 0, "duration": 215}, {"note": 60, "velocity": 96, "duration": 106}, {"note": 0, "velocity": 0, "duration": 128}, {"note": 65, "velocity": 112, "duration": 112}, {"note": 0, "velocity": 0, "duration": 128}, {"note": 65, "velocity": 100, "duration": 105}, {"note": 0, "velocity": 0, "duration": 135}, {"note": 65, "velocity": 96, "duration": 105}, {"note": 0, "velocity": 0, "duration": 135}, {"note": 63, "velocity": 96, "duration": 113}, {"note": 0, "velocity": 0, "duration": 127}, {"note": 65, "velocity": 100, "duration": 284}, {"note": 0, "velocity": 0, "duration": 676}, {"note": 65, "velocity": 100, "duration": 84}, {"note": 0, "velocity": 0, "duration": 156}, {"note": 65, "velocity": 96, "duration": 84}, {"note": 0, "velocity": 0, "duration": 156}, {"note": 65, "velocity": 95, "duration": 116}, {"note": 0, "velocity": 0, "duration": 124}, {"note": 63, "velocity": 102, "duration": 90}, {"note": 0, "velocity": 0, "duration": 150}, {"note": 65, "velocity": 102, "duration": 370}, {"note": 0, "velocity": 0, "duration": 110}, {"note": 63, "velocity": 117, "duration": 96}, {"note": 0, "velocity": 0, "duration": 144}, {"note": 63, "velocity": 127, "duration": 142}, {"note": 0, "velocity": 0, "duration": 98}, {"note": 58, "velocity": 112, "duration": 358}, {"note": 0, "velocity": 0, "duration": 122}, {"note": 63, "velocity": 127, "duration": 375}, {"note": 0, "velocity": 0, "duration": 105}, {"note": 60, "velocity": 100, "duration": 592}, {"note": 0, "velocity": 0, "duration": 368}, {"note": 58, "velocity": 117, "duration": 125}, {"note": 0, "velocity": 0, "duration": 115}, {"note": 58, "velocity": 97, "duration": 114}, {"note": 0, "velocity": 0, "duration": 126}, {"note": 58, "velocity": 112, "duration": 105}, {"note": 0, "velocity": 0, "duration": 135}, {"note": 60, "velocity": 97, "duration": 112}, {"note": 0, "velocity": 0, "duration": 128}, {"note": 56, "velocity": 107, "duration": 200}, {"note": 53, "velocity": 93, "duration": 271}, {"note": 0, "velocity": 0, "duration": 449}, {"note": 58, "velocity": 127, "duration": 111}, {"note": 0, "velocity": 0, "duration": 129}, {"note": 58, "velocity": 107, "duration": 109}, {"note": 0, "velocity": 0, "duration": 131}, {"note": 58, "velocity": 117, "duration": 110}, {"note": 0, "velocity": 0, "duration": 130}, {"note": 60, "velocity": 97, "duration": 116}, {"note": 0, "velocity": 0, "duration": 124}, {"note": 51, "velocity": 97, "duration": 307}, {"note": 0, "velocity": 0, "duration": 653}, {"note": 68, "velocity": 127, "duration": 88}, {"note": 0, "velocity": 0, "duration": 152}, {"note": 68, "velocity": 112, "duration": 89}, {"note": 0, "velocity": 0, "duration": 151}, {"note": 68, "velocity": 127, "duration": 101}, {"note": 0, "velocity": 0, "duration": 139}, {"note": 65, "velocity": 102, "duration": 117}, {"note": 0, "velocity": 0, "duration": 123}, {"note": 67, "velocity": 117, "duration": 211}, {"note": 0, "velocity": 0, "duration": 269}, {"note": 63, "velocity": 127, "duration": 90}, {"note": 0, "velocity": 0, "duration": 150}, {"note": 63, "velocity": 117, "duration": 66}, {"note": 0, "velocity": 0, "duration": 174}, {"note": 60, "velocity": 102, "duration": 97}, {"note": 0, "velocity": 0, "duration": 143}, {"note": 60, "velocity": 100, "duration": 102}, {"note": 0, "velocity": 0, "duration": 138}, {"note": 67, "velocity": 127, "duration": 330}, {"note": 0, "velocity": 0, "duration": 150}, {"note": 65, "velocity": 127, "duration": 746}, {"note": 60, "velocity": 107, "duration": 88}, {"note": 0, "velocity": 0, "duration": 152}, {"note": 65, "velocity": 117, "duration": 81}, {"note": 0, "velocity": 0, "duration": 159}, {"note": 65, "velocity": 99, "duration": 86}, {"note": 0, "velocity": 0, "duration": 154}, {"note": 65, "velocity": 99, "duration": 123}, {"note": 0, "velocity": 0, "duration": 117}, {"note": 63, "velocity": 102, "duration": 96}, {"note": 0, "velocity": 0, "duration": 144}, {"note": 60, "velocity": 117, "duration": 202}, {"note": 63, "velocity": 122, "duration": 241}, {"note": 0, "velocity": 0, "duration": 239}, {"note": 60, "velocity": 107, "duration": 190}, {"note": 65, "velocity": 107, "duration": 80}, {"note": 0, "velocity": 0, "duration": 160}, {"note": 65, "velocity": 96, "duration": 86}, {"note": 0, "velocity": 0, "duration": 154}, {"note": 65, "velocity": 95, "duration": 94}, {"note": 0, "velocity": 0, "duration": 146}, {"note": 63, "velocity": 112, "duration": 84}, {"note": 0, "velocity": 0, "duration": 156}, {"note": 65, "velocity": 102, "duration": 310}, {"note": 0, "velocity": 0, "duration": 650}, {"note": 65, "velocity": 99, "duration": 87}, {"note": 0, "velocity": 0, "duration": 153}, {"note": 65, "velocity": 88, "duration": 85}, {"note": 0, "velocity": 0, "duration": 155}, {"note": 65, "velocity": 95, "duration": 92}, {"note": 0, "velocity": 0, "duration": 148}, {"note": 63, "velocity": 100, "duration": 77}, {"note": 0, "velocity": 0, "duration": 163}, {"note": 65, "velocity": 100, "duration": 213}, {"note": 0, "velocity": 0, "duration": 267}, {"note": 63, "velocity": 102, "duration": 110}, {"note": 0, "velocity": 0, "duration": 130}, {"note": 63, "velocity": 102, "duration": 96}, {"note": 0, "velocity": 0, "duration": 144}, {"note": 58, "velocity": 107, "duration": 352}, {"note": 0, "velocity": 0, "duration": 128}, {"note": 63, "velocity": 107, "duration": 268}, {"note": 0, "velocity": 0, "duration": 212}, {"note": 60, "velocity": 102, "duration": 313}, {"note": 0, "velocity": 0, "duration": 647}, {"note": 58, "velocity": 127, "duration": 116}, {"note": 0, "velocity": 0, "duration": 124}, {"note": 58, "velocity": 112, "duration": 108}, {"note": 0, "velocity": 0, "duration": 132}, {"note": 58, "velocity": 127, "duration": 132}, {"note": 0, "velocity": 0, "duration": 108}, {"note": 56, "velocity": 117, "duration": 79}, {"note": 0, "velocity": 0, "duration": 161}, {"note": 53, "velocity": 100, "duration": 331}, {"note": 0, "velocity": 0, "duration": 629}, {"note": 58, "velocity": 117, "duration": 119}, {"note": 0, "velocity": 0, "duration": 121}, {"note": 58, "velocity": 112, "duration": 88}, {"note": 0, "velocity": 0, "duration": 152}, {"note": 58, "velocity": 112, "duration": 124}, {"note": 0, "velocity": 0, "duration": 116}, {"note": 56, "velocity": 107, "duration": 204}, {"note": 51, "velocity": 100, "duration": 385}, {"note": 0, "velocity": 0, "duration": 575}, {"note": 68, "velocity": 127, "duration": 131}, {"note": 0, "velocity": 0, "duration": 109}, {"note": 68, "velocity": 117, "duration": 108}, {"note": 0, "velocity": 0, "duration": 132}, {"note": 68, "velocity": 127, "duration": 184}, {"note": 65, "velocity": 97, "duration": 192}, {"note": 67, "velocity": 122, "duration": 307}, {"note": 0, "velocity": 0, "duration": 173}, {"note": 63, "velocity": 127, "duration": 137}, {"note": 0, "velocity": 0, "duration": 103}, {"note": 63, "velocity": 117, "duration": 139}, {"note": 0, "velocity": 0, "duration": 101}, {"note": 60, "velocity": 117, "duration": 246}, {"note": 60, "velocity": 127, "duration": 6}, {"note": 0, "velocity": 0, "duration": 234}, {"note": 67, "velocity": 112, "duration": 280}, {"note": 0, "velocity": 0, "duration": 200}, {"note": 65, "velocity": 127, "duration": 383}, {"note": 0, "velocity": 0, "duration": 342}, {"note": 60, "velocity": 93, "duration": 102}, {"note": 0, "velocity": 0, "duration": 133}, {"note": 65, "velocity": 102, "duration": 106}, {"note": 0, "velocity": 0, "duration": 134}, {"note": 65, "velocity": 97, "duration": 101}, {"note": 0, "velocity": 0, "duration": 139}, {"note": 65, "velocity": 99, "duration": 104}, {"note": 0, "velocity": 0, "duration": 136}, {"note": 63, "velocity": 107, "duration": 91}, {"note": 0, "velocity": 0, "duration": 149}, {"note": 60, "velocity": 97, "duration": 331}, {"note": 63, "velocity": 100, "duration": 271}, {"note": 0, "velocity": 0, "duration": 205}, {"note": 60, "velocity": 96, "duration": 106}, {"note": 0, "velocity": 0, "duration": 138}, {"note": 65, "velocity": 112, "duration": 112}, {"note": 0, "velocity": 0, "duration": 128}, {"note": 65, "velocity": 100, "duration": 105}, {"note": 0, "velocity": 0, "duration": 135}, {"note": 65, "velocity": 96, "duration": 105}, {"note": 0, "velocity": 0, "duration": 135}, {"note": 63, "velocity": 96, "duration": 113}, {"note": 0, "velocity": 0, "duration": 127}, {"note": 65, "velocity": 100, "duration": 284}, {"note": 0, "velocity": 0, "duration": 676}, {"note": 65, "velocity": 100, "duration": 84}, {"note": 0, "velocity": 0, "duration": 156}, {"note": 65, "velocity": 96, "duration": 84}, {"note": 0, "velocity": 0, "duration": 156}, {"note": 65, "velocity": 95, "duration": 116}, {"note": 0, "velocity": 0, "duration": 124}, {"note": 63, "velocity": 102, "duration": 90}, {"note": 0, "velocity": 0, "duration": 150}, {"note": 65, "velocity": 102, "duration": 370}, {"note": 0, "velocity": 0, "duration": 110}, {"note": 63, "velocity": 117, "duration": 96}, {"note": 0, "velocity": 0, "duration": 144}, {"note": 63, "velocity": 127, "duration": 142}, {"note": 0, "velocity": 0, "duration": 98}, {"note": 58, "velocity": 112, "duration": 358}, {"note": 0, "velocity": 0, "duration": 122}, {"note": 63, "velocity": 127, "duration": 228}, {"note": 61, "velocity": 97, "duration": 210}, {"note": 60, "velocity": 100, "duration": 592}, {"note": 0, "velocity": 0, "duration": 368}, {"note": 58, "velocity": 117, "duration": 125}, {"note": 0, "velocity": 0, "duration": 115}, {"note": 58, "velocity": 97, "duration": 114}, {"note": 0, "velocity": 0, "duration": 126}, {"note": 58, "velocity": 112, "duration": 105}, {"note": 0, "velocity": 0, "duration": 135}, {"note": 60, "velocity": 97, "duration": 112}, {"note": 0, "velocity": 0, "duration": 128}, {"note": 56, "velocity": 107, "duration": 200}, {"note": 53, "velocity": 93, "duration": 271}, {"note": 0, "velocity": 0, "duration": 449}, {"note": 58, "velocity": 127, "duration": 111}, {"note": 0, "velocity": 0, "duration": 129}, {"note": 58, "velocity": 107, "duration": 109}, {"note": 0, "velocity": 0, "duration": 131}, {"note": 58, "velocity": 117, "duration": 110}, {"note": 0, "velocity": 0, "duration": 130}, {"note": 60, "velocity": 97, "duration": 116}, {"note": 0, "velocity": 0, "duration": 124}, {"note": 51, "velocity": 97, "duration": 307}, {"note": 0, "velocity": 0, "duration": 653}, {"note": 68, "velocity": 127, "duration": 88}, {"note": 0, "velocity": 0, "duration": 152}, {"note": 68, "velocity": 112, "duration": 89}, {"note": 0, "velocity": 0, "duration": 151}, {"note": 68, "velocity": 127, "duration": 101}, {"note": 0, "velocity": 0, "duration": 139}, {"note": 65, "velocity": 102, "duration": 117}, {"note": 0, "velocity": 0, "duration": 123}, {"note": 67, "velocity": 117, "duration": 211}, {"note": 0, "velocity": 0, "duration": 269}, {"note": 63, "velocity": 127, "duration": 90}, {"note": 0, "velocity": 0, "duration": 150}, {"note": 63, "velocity": 117, "duration": 66}, {"note": 0, "velocity": 0, "duration": 174}, {"note": 60, "velocity": 102, "duration": 97}, {"note": 0, "velocity": 0, "duration": 143}, {"note": 60, "velocity": 100, "duration": 102}, {"note": 0, "velocity": 0, "duration": 138}, {"note": 67, "velocity": 127, "duration": 330}, {"note": 0, "velocity": 0, "duration": 150}, {"note": 65, "velocity": 127, "duration": 746}, {"note": 0, "velocity": 0, "duration": 1174}, {"note": 53, "velocity": 96, "duration": 349}, {"note": 0, "velocity": 0, "duration": 131}, {"note": 56, "velocity": 102, "duration": 333}, {"note": 0, "velocity": 0, "duration": 147}, {"note": 58, "velocity": 122, "duration": 1089}, {"note": 0, "velocity": 0, "duration": 1791}, {"note": 58, "velocity": 112, "duration": 305}, {"note": 0, "velocity": 0, "duration": 175}, {"note": 60, "velocity": 97, "duration": 279}, {"note": 0, "velocity": 0, "duration": 201}, {"note": 56, "velocity": 89, "duration": 240}, {"note": 53, "velocity": 89, "duration": 2072}, {"note": 0, "velocity": 0, "duration": 568}, {"note": 53, "velocity": 97, "duration": 394}, {"note": 0, "velocity": 0, "duration": 86}, {"note": 56, "velocity": 107, "duration": 353}, {"note": 0, "velocity": 0, "duration": 127}, {"note": 58, "velocity": 112, "duration": 1873}, {"note": 0, "velocity": 0, "duration": 1007}, {"note": 56, "velocity": 100, "duration": 104}, {"note": 0, "velocity": 0, "duration": 136}, {"note": 48, "velocity": 86, "duration": 112}, {"note": 0, "velocity": 0, "duration": 128}, {"note": 56, "velocity": 97, "duration": 93}, {"note": 0, "velocity": 0, "duration": 147}, {"note": 53, "velocity": 99, "duration": 2128}]]