[[{"note": 66, "velocity": 107, "duration": 403}, {"note": 0, "velocity": 0, "duration": 77}, {"note": 66, "velocity": 117, "duration": 196}, {"note": 66, "velocity": 97, "duration": 185}, {"note": 71, "velocity": 122, "duration": 516}, {"note": 0, "velocity": 0, "duration": 204}, {"note": 73, "velocity": 127, "duration": 152}, {"note": 0, "velocity": 0, "duration": 88}, {"note": 73, "velocity": 127, "duration": 216}, {"note": 0, "velocity": 0, "duration": 264}, {"note": 71, "velocity": 117, "duration": 191}, {"note": 69, "velocity": 99, "duration": 233}, {"note": 66, "velocity": 99, "duration": 663}, {"note": 0, "velocity": 0, "duration": 297}, {"note": 71, "velocity": 127, "duration": 247}, {"note": 0, "velocity": 0, "duration": 104}, {"note": 71, "velocity": 97, "duration": 132}, {"note": 69, "velocity": 117, "duration": 302}, {"note": 71, "velocity": 122, "duration": 78}, {"note": 73, "velocity": 117, "duration": 342}, {"note": 0, "velocity": 0, "duration": 138}, {"note": 76, "velocity": 112, "duration": 218}, {"note": 73, "velocity": 100, "duration": 234}, {"note": 76, "velocity": 97, "duration": 199}, {"note": 78, "velocity": 122, "duration": 511}, {"note": 0, "velocity": 0, "duration": 1204}, {"note": 73, "velocity": 127, "duration": 319}, {"note": 0, "velocity": 0, "duration": 161}, {"note": 69, "velocity": 102, "duration": 192}, {"note": 71, "velocity": 100, "duration": 152}, {"note": 0, "velocity": 0, "duration": 88}, {"note": 73, "velocity": 127, "duration": 398}, {"note": 0, "velocity": 0, "duration": 322}, {"note": 76, "velocity": 117, "duration": 109}, {"note": 78, "velocity": 96, "duration": 89}, {"note": 73, "velocity": 127, "duration": 377}, {"note": 0, "velocity": 0, "duration": 103}, {"note": 71, "velocity": 117, "duration": 235}, {"note": 69, "velocity": 90, "duration": 215}, {"note": 61, "velocity": 97, "duration": 480}, {"note": 64, "velocity": 93, "duration": 281}, {"note": 0, "velocity": 0, "duration": 199}, {"note": 66, "velocity": 122, "duration": 404}, {"note": 64, "velocity": 100, "duration": 233}, {"note": 0, "velocity": 0, "duration": 127}, {"note": 66, "velocity": 102, "duration": 188}, {"note": 71, "velocity": 122, "duration": 309}, {"note": 0, "velocity": 0, "duration": 171}, {"note": 73, "velocity": 117, "duration": 248}, {"note": 69, "velocity": 97, "duration": 239}, {"note": 66, "velocity": 100, "duration": 433}, {"note": 0, "velocity": 0, "duration": 1487}, {"note": 66, "velocity": 127, "duration": 369}, {"note": 0, "velocity": 0, "duration": 111}, {"note": 66, "velocity": 122, "duration": 378}, {"note": 0, "velocity": 0, "duration": 102}, {"note": 71, "velocity": 127, "duration": 647}, {"note": 0, "velocity": 0, "duration": 73}, {"note": 73, "velocity": 127, "duration": 178}, {"note": 0, "velocity": 0, "duration": 62}, {"note": 73, "velocity": 127, "duration": 365}, {"note": 0, "velocity": 0, "duration": 115}, {"note": 71, "velocity": 117, "duration": 238}, {"note": 69, "velocity": 89, "duration": 209}, {"note": 66, "velocity": 96, "duration": 726}, {"note": 0, "velocity": 0, "duration": 234}, {"note": 71, "velocity": 127, "duration": 243}, {"note": 0, "velocity": 0, "duration": 117}, {"note": 71, "velocity": 112, "duration": 123}, {"note": 69, "velocity": 97, "duration": 189}, {"note": 71, "velocity": 127, "duration": 176}, {"note": 0, "velocity": 0, "duration": 64}, {"note": 73, "velocity": 127, "duration": 376}, {"note": 0, "velocity": 0, "duration": 104}, {"note": 76, "velocity": 102, "duration": 221}, {"note": 73, "velocity": 83, "duration": 223}, {"note": 78, "velocity": 117, "duration": 1243}, {"note": 0, "velocity": 0, "duration": 677}, {"note": 73, "velocity": 127, "duration": 319}, {"note": 0, "velocity": 0, "duration": 161}, {"note": 69, "velocity": 102, "duration": 192}, {"note": 71, "velocity": 100, "duration": 152}, {"note": 0, "velocity": 0, "duration": 88}, {"note": 73, "velocity": 127, "duration": 398}, {"note": 0, "velocity": 0, "duration": 122}, {"note": 78, "velocity": 96, "duration": 90}, {"note": 0, "velocity": 0, "duration": 230}, {"note": 78, "velocity": 117, "duration": 60}, {"note": 73, "velocity": 127, "duration": 377}, {"note": 0, "velocity": 0, "duration": 103}, {"note": 71, "velocity": 117, "duration": 235}, {"note": 69, "velocity": 90, "duration": 215}, {"note": 61, "velocity": 97, "duration": 480}, {"note": 64, "velocity": 93, "duration": 281}, {"note": 0, "velocity": 0, "duration": 199}, {"note": 66, "velocity": 122, "duration": 123}, {"note": 0, "velocity": 0, "duration": 117}, {"note": 66, "velocity": 102, "duration": 218}, {"note": 64, "velocity": 100, "duration": 233}, {"note": 66, "velocity": 102, "duration": 188}, {"note": 71, "velocity": 122, "duration": 309}, {"note": 0, "velocity": 0, "duration": 171}, {"note": 73, "velocity": 117, "duration": 248}, {"note": 69, "velocity": 97, "duration": 239}, {"note": 66, "velocity": 100, "duration": 1440}, {"note": 0, "velocity": 0, "duration": 15840}, {"note": 66, "velocity": 107, "duration": 403}, {"note": 0, "velocity": 0, "duration": 77}, {"note": 66, "velocity": 117, "duration": 196}, {"note": 66, "velocity": 97, "duration": 185}, {"note": 71, "velocity": 122, "duration": 516}, {"note": 0, "velocity": 0, "duration": 204}, {"note": 73, "velocity": 127, "duration": 152}, {"note": 0, "velocity": 0, "duration": 88}, {"note": 73, "velocity": 127, "duration": 216}, {"note": 0, "velocity": 0, "duration": 264}, {"note": 71, "velocity": 117, "duration": 191}, {"note": 69, "velocity": 99, "duration": 233}, {"note": 66, "velocity": 99, "duration": 663}, {"note": 0, "velocity": 0, "duration": 297}, {"note": 71, "velocity": 127, "duration": 283}, {"note": 0, "velocity": 0, "duration": 75}, {"note": 71, "velocity": 97, "duration": 106}, {"note": 69, "velocity": 117, "duration": 239}, {"note": 71, "velocity": 122, "duration": 78}, {"note": 0, "velocity": 0, "duration": 162}, {"note": 73, "velocity": 117, "duration": 342}, {"note": 0, "velocity": 0, "duration": 138}, {"note": 76, "velocity": 112, "duration": 218}, {"note": 73, "velocity": 100, "duration": 234}, {"note": 76, "velocity": 97, "duration": 159}, {"note": 78, "velocity": 122, "duration": 555}, {"note": 0, "velocity": 0, "duration": 1204}, {"note": 73, "velocity": 127, "duration": 319}, {"note": 0, "velocity": 0, "duration": 161}, {"note": 69, "velocity": 102, "duration": 192}, {"note": 71, "velocity": 100, "duration": 152}, {"note": 0, "velocity": 0, "duration": 88}, {"note": 73, "velocity": 127, "duration": 398}, {"note": 0, "velocity": 0, "duration": 82}, {"note": 73, "velocity": 117, "duration": 109}, {"note": 0, "velocity": 0, "duration": 131}, {"note": 78, "velocity": 96, "duration": 89}, {"note": 0, "velocity": 0, "duration": 151}, {"note": 73, "velocity": 127, "duration": 377}, {"note": 0, "velocity": 0, "duration": 103}, {"note": 71, "velocity": 117, "duration": 235}, {"note": 69, "velocity": 90, "duration": 215}, {"note": 61, "velocity": 97, "duration": 480}, {"note": 64, "velocity": 93, "duration": 281}, {"note": 0, "velocity": 0, "duration": 199}, {"note": 66, "velocity": 122, "duration": 404}, {"note": 0, "velocity": 0, "duration": 76}, {"note": 64, "velocity": 100, "duration": 233}, {"note": 66, "velocity": 102, "duration": 188}, {"note": 71, "velocity": 122, "duration": 309}, {"note": 0, "velocity": 0, "duration": 171}, {"note": 73, "velocity": 117, "duration": 248}, {"note": 69, "velocity": 97, "duration": 239}, {"note": 66, "velocity": 100, "duration": 433}, {"note": 0, "velocity": 0, "duration": 1487}, {"note": 66, "velocity": 127, "duration": 369}, {"note": 0, "velocity": 0, "duration": 111}, {"note": 66, "velocity": 122, "duration": 182}, {"note": 66, "velocity": 112, "duration": 269}, {"note": 71, "velocity": 127, "duration": 647}, {"note": 0, "velocity": 0, "duration": 73}, {"note": 73, "velocity": 127, "duration": 178}, {"note": 0, "velocity": 0, "duration": 62}, {"note": 73, "velocity": 127, "duration": 365}, {"note": 0, "velocity": 0, "duration": 115}, {"note": 71, "velocity": 117, "duration": 238}, {"note": 69, "velocity": 89, "duration": 209}, {"note": 66, "velocity": 96, "duration": 726}, {"note": 0, "velocity": 0, "duration": 234}, {"note": 71, "velocity": 127, "duration": 243}, {"note": 0, "velocity": 0, "duration": 117}, {"note": 71, "velocity": 112, "duration": 123}, {"note": 69, "velocity": 97, "duration": 189}, {"note": 71, "velocity": 127, "duration": 176}, {"note": 0, "velocity": 0, "duration": 64}, {"note": 73, "velocity": 127, "duration": 376}, {"note": 0, "velocity": 0, "duration": 104}, {"note": 76, "velocity": 102, "duration": 221}, {"note": 73, "velocity": 83, "duration": 223}, {"note": 78, "velocity": 117, "duration": 1243}, {"note": 0, "velocity": 0, "duration": 677}, {"note": 73, "velocity": 127, "duration": 319}, {"note": 0, "velocity": 0, "duration": 161}, {"note": 69, "velocity": 102, "duration": 192}, {"note": 71, "velocity": 100, "duration": 152}, {"note": 0, "velocity": 0, "duration": 88}, {"note": 73, "velocity": 127, "duration": 581}, {"note": 0, "velocity": 0, "duration": 139}, {"note": 78, "velocity": 96, "duration": 89}, {"note": 78, "velocity": 117, "duration": 60}, {"note": 73, "velocity": 127, "duration": 377}, {"note": 0, "velocity": 0, "duration": 103}, {"note": 71, "velocity": 117, "duration": 235}, {"note": 69, "velocity": 90, "duration": 215}, {"note": 61, "velocity": 97, "duration": 480}, {"note": 64, "velocity": 93, "duration": 281}, {"note": 0, "velocity": 0, "duration": 199}, {"note": 66, "velocity": 122, "duration": 341}, {"note": 0, "velocity": 0, "duration": 139}, {"note": 64, "velocity": 100, "duration": 233}, {"note": 66, "velocity": 102, "duration": 188}, {"note": 71, "velocity": 122, "duration": 309}, {"note": 0, "velocity": 0, "duration": 171}, {"note": 73, "velocity": 117, "duration": 248}, {"note": 69, "velocity": 97, "duration": 239}, {"note": 66, "velocity": 100, "duration": 1440}, {"note": 0, "velocity": 0, "duration": 480}, {"note": 73, "velocity": 127, "duration": 319}, {"note": 0, "velocity": 0, "duration": 161}, {"note": 69, "velocity": 102, "duration": 192}, {"note": 71, "velocity": 100, "duration": 152}, {"note": 0, "velocity": 0, "duration": 88}, {"note": 73, "velocity": 127, "duration": 581}, {"note": 0, "velocity": 0, "duration": 139}, {"note": 78, "velocity": 96, "duration": 89}, {"note": 78, "velocity": 117, "duration": 60}, {"note": 73, "velocity": 127, "duration": 377}, {"note": 0, "velocity": 0, "duration": 103}, {"note": 71, "velocity": 117, "duration": 235}, {"note": 69, "velocity": 90, "duration": 215}, {"note": 61, "velocity": 97, "duration": 480}, {"note": 64, "velocity": 93, "duration": 281}, {"note": 0, "velocity": 0, "duration": 199}, {"note": 66, "velocity": 122, "duration": 341}, {"note": 0, "velocity": 0, "duration": 139}, {"note": 64, "velocity": 100, "duration": 233}, {"note": 66, "velocity": 102, "duration": 188}, {"note": 0, "velocity": 0, "duration": 203}, {"note": 71, "velocity": 112, "duration": 644}, {"note": 73, "velocity": 127, "duration": 613}, {"note": 0, "velocity": 0, "duration": 151}, {"note": 78, "velocity": 127, "duration": 790}]]