[[{"note": 55, "velocity": 62, "duration": 217}, {"note": 59, "velocity": 76, "duration": 143}, {"note": 0, "velocity": 0, "duration": 337}, {"note": 59, "velocity": 85, "duration": 89}, {"note": 0, "velocity": 0, "duration": 151}, {"note": 59, "velocity": 79, "duration": 106}, {"note": 0, "velocity": 0, "duration": 134}, {"note": 57, "velocity": 81, "duration": 102}, {"note": 0, "velocity": 0, "duration": 138}, {"note": 55, "velocity": 77, "duration": 136}, {"note": 0, "velocity": 0, "duration": 104}, {"note": 59, "velocity": 90, "duration": 619}, {"note": 0, "velocity": 0, "duration": 341}, {"note": 57, "velocity": 86, "duration": 109}, {"note": 0, "velocity": 0, "duration": 131}, {"note": 55, "velocity": 71, "duration": 103}, {"note": 0, "velocity": 0, "duration": 137}, {"note": 57, "velocity": 77, "duration": 100}, {"note": 0, "velocity": 0, "duration": 140}, {"note": 59, "velocity": 92, "duration": 802}, {"note": 0, "velocity": 0, "duration": 398}, {"note": 59, "velocity": 81, "duration": 92}, {"note": 0, "velocity": 0, "duration": 148}, {"note": 57, "velocity": 74, "duration": 83}, {"note": 0, "velocity": 0, "duration": 157}, {"note": 57, "velocity": 79, "duration": 71}, {"note": 0, "velocity": 0, "duration": 169}, {"note": 55, "velocity": 86, "duration": 101}, {"note": 0, "velocity": 0, "duration": 139}, {"note": 57, "velocity": 78, "duration": 81}, {"note": 0, "velocity": 0, "duration": 159}, {"note": 57, "velocity": 97, "duration": 252}, {"note": 0, "velocity": 0, "duration": 468}, {"note": 55, "velocity": 82, "duration": 102}, {"note": 0, "velocity": 0, "duration": 138}, {"note": 57, "velocity": 79, "duration": 326}, {"note": 0, "velocity": 0, "duration": 394}, {"note": 55, "velocity": 85, "duration": 150}, {"note": 0, "velocity": 0, "duration": 90}, {"note": 57, "velocity": 74, "duration": 102}, {"note": 0, "velocity": 0, "duration": 138}, {"note": 57, "velocity": 79, "duration": 104}, {"note": 0, "velocity": 0, "duration": 136}, {"note": 55, "velocity": 72, "duration": 107}, {"note": 0, "velocity": 0, "duration": 133}, {"note": 55, "velocity": 79, "duration": 102}, {"note": 0, "velocity": 0, "duration": 138}, {"note": 55, "velocity": 81, "duration": 100}, {"note": 0, "velocity": 0, "duration": 140}, {"note": 57, "velocity": 89, "duration": 105}, {"note": 0, "velocity": 0, "duration": 135}, {"note": 59, "velocity": 86, "duration": 79}, {"note": 0, "velocity": 0, "duration": 161}, {"note": 57, "velocity": 88, "duration": 226}, {"note": 0, "velocity": 0, "duration": 1454}, {"note": 57, "velocity": 93, "duration": 223}, {"note": 55, "velocity": 73, "duration": 226}, {"note": 57, "velocity": 72, "duration": 152}, {"note": 0, "velocity": 0, "duration": 88}, {"note": 57, "velocity": 89, "duration": 140}, {"note": 0, "velocity": 0, "duration": 100}, {"note": 59, "velocity": 89, "duration": 1010}, {"note": 0, "velocity": 0, "duration": 910}, {"note": 59, "velocity": 79, "duration": 186}, {"note": 57, "velocity": 72, "duration": 90}, {"note": 0, "velocity": 0, "duration": 150}, {"note": 55, "velocity": 77, "duration": 222}, {"note": 57, "velocity": 83, "duration": 142}, {"note": 0, "velocity": 0, "duration": 338}, {"note": 57, "velocity": 83, "duration": 367}, {"note": 0, "velocity": 0, "duration": 353}, {"note": 54, "velocity": 73, "duration": 178}, {"note": 0, "velocity": 0, "duration": 62}, {"note": 50, "velocity": 53, "duration": 86}, {"note": 0, "velocity": 0, "duration": 634}, {"note": 59, "velocity": 86, "duration": 125}, {"note": 0, "velocity": 0, "duration": 355}, {"note": 55, "velocity": 79, "duration": 116}, {"note": 0, "velocity": 0, "duration": 124}, {"note": 62, "velocity": 88, "duration": 158}, {"note": 0, "velocity": 0, "duration": 82}, {"note": 64, "velocity": 95, "duration": 368}, {"note": 0, "velocity": 0, "duration": 832}, {"note": 64, "velocity": 85, "duration": 121}, {"note": 0, "velocity": 0, "duration": 119}, {"note": 62, "velocity": 81, "duration": 86}, {"note": 0, "velocity": 0, "duration": 154}, {"note": 64, "velocity": 82, "duration": 91}, {"note": 0, "velocity": 0, "duration": 149}, {"note": 62, "velocity": 90, "duration": 107}, {"note": 0, "velocity": 0, "duration": 373}, {"note": 62, "velocity": 83, "duration": 110}, {"note": 0, "velocity": 0, "duration": 130}, {"note": 57, "velocity": 86, "duration": 350}, {"note": 0, "velocity": 0, "duration": 1810}, {"note": 57, "velocity": 85, "duration": 329}, {"note": 0, "velocity": 0, "duration": 151}, {"note": 59, "velocity": 83, "duration": 1448}, {"note": 0, "velocity": 0, "duration": 952}, {"note": 59, "velocity": 83, "duration": 183}, {"note": 57, "velocity": 78, "duration": 210}, {"note": 55, "velocity": 69, "duration": 241}, {"note": 59, "velocity": 85, "duration": 126}, {"note": 0, "velocity": 0, "duration": 114}, {"note": 59, "velocity": 89, "duration": 193}, {"note": 0, "velocity": 0, "duration": 287}, {"note": 57, "velocity": 83, "duration": 247}, {"note": 0, "velocity": 0, "duration": 233}, {"note": 59, "velocity": 95, "duration": 116}, {"note": 0, "velocity": 0, "duration": 124}, {"note": 57, "velocity": 82, "duration": 170}, {"note": 0, "velocity": 0, "duration": 70}, {"note": 59, "velocity": 92, "duration": 159}, {"note": 0, "velocity": 0, "duration": 321}, {"note": 59, "velocity": 90, "duration": 276}, {"note": 0, "velocity": 0, "duration": 204}, {"note": 55, "velocity": 78, "duration": 150}, {"note": 0, "velocity": 0, "duration": 90}, {"note": 62, "velocity": 95, "duration": 168}, {"note": 0, "velocity": 0, "duration": 72}, {"note": 64, "velocity": 93, "duration": 142}, {"note": 0, "velocity": 0, "duration": 1058}, {"note": 64, "velocity": 89, "duration": 165}, {"note": 0, "velocity": 0, "duration": 75}, {"note": 62, "velocity": 75, "duration": 99}, {"note": 0, "velocity": 0, "duration": 141}, {"note": 62, "velocity": 83, "duration": 221}, {"note": 64, "velocity": 85, "duration": 151}, {"note": 0, "velocity": 0, "duration": 329}, {"note": 64, "velocity": 89, "duration": 152}, {"note": 0, "velocity": 0, "duration": 88}, {"note": 62, "velocity": 83, "duration": 157}, {"note": 0, "velocity": 0, "duration": 563}, {"note": 62, "velocity": 95, "duration": 242}, {"note": 0, "velocity": 0, "duration": 238}, {"note": 57, "velocity": 82, "duration": 233}, {"note": 0, "velocity": 0, "duration": 727}, {"note": 62, "velocity": 95, "duration": 225}, {"note": 0, "velocity": 0, "duration": 255}, {"note": 59, "velocity": 96, "duration": 1085}, {"note": 0, "velocity": 0, "duration": 1555}, {"note": 55, "velocity": 79, "duration": 130}, {"note": 0, "velocity": 0, "duration": 110}, {"note": 55, "velocity": 75, "duration": 117}, {"note": 0, "velocity": 0, "duration": 123}, {"note": 59, "velocity": 88, "duration": 264}, {"note": 0, "velocity": 0, "duration": 216}, {"note": 57, "velocity": 92, "duration": 195}, {"note": 59, "velocity": 73, "duration": 131}, {"note": 0, "velocity": 0, "duration": 109}, {"note": 54, "velocity": 90, "duration": 388}, {"note": 0, "velocity": 0, "duration": 812}, {"note": 59, "velocity": 78, "duration": 139}, {"note": 0, "velocity": 0, "duration": 101}, {"note": 57, "velocity": 72, "duration": 136}, {"note": 0, "velocity": 0, "duration": 104}, {"note": 55, "velocity": 81, "duration": 116}, {"note": 0, "velocity": 0, "duration": 124}, {"note": 62, "velocity": 92, "duration": 224}, {"note": 64, "velocity": 92, "duration": 286}, {"note": 0, "velocity": 0, "duration": 2114}, {"note": 50, "velocity": 76, "duration": 129}, {"note": 0, "velocity": 0, "duration": 111}, {"note": 62, "velocity": 88, "duration": 158}, {"note": 0, "velocity": 0, "duration": 82}, {"note": 59, "velocity": 81, "duration": 875}, {"note": 0, "velocity": 0, "duration": 85}, {"note": 57, "velocity": 93, "duration": 138}, {"note": 0, "velocity": 0, "duration": 102}, {"note": 57, "velocity": 89, "duration": 1145}, {"note": 62, "velocity": 82, "duration": 199}, {"note": 71, "velocity": 92, "duration": 333}, {"note": 0, "velocity": 0, "duration": 147}, {"note": 71, "velocity": 97, "duration": 146}, {"note": 0, "velocity": 0, "duration": 94}, {"note": 71, "velocity": 92, "duration": 147}, {"note": 0, "velocity": 0, "duration": 93}, {"note": 69, "velocity": 97, "duration": 150}, {"note": 0, "velocity": 0, "duration": 90}, {"note": 67, "velocity": 78, "duration": 261}, {"note": 71, "velocity": 100, "duration": 208}, {"note": 0, "velocity": 0, "duration": 272}, {"note": 66, "velocity": 102, "duration": 455}, {"note": 0, "velocity": 0, "duration": 265}, {"note": 66, "velocity": 107, "duration": 135}, {"note": 0, "velocity": 0, "duration": 105}, {"note": 71, "velocity": 100, "duration": 296}, {"note": 0, "velocity": 0, "duration": 184}, {"note": 71, "velocity": 112, "duration": 461}, {"note": 0, "velocity": 0, "duration": 259}, {"note": 69, "velocity": 107, "duration": 165}, {"note": 0, "velocity": 0, "duration": 75}, {"note": 71, "velocity": 112, "duration": 356}, {"note": 0, "velocity": 0, "duration": 364}, {"note": 67, "velocity": 85, "duration": 122}, {"note": 0, "velocity": 0, "duration": 118}, {"note": 67, "velocity": 93, "duration": 91}, {"note": 0, "velocity": 0, "duration": 149}, {"note": 67, "velocity": 86, "duration": 117}, {"note": 0, "velocity": 0, "duration": 123}, {"note": 72, "velocity": 99, "duration": 311}, {"note": 0, "velocity": 0, "duration": 169}, {"note": 72, "velocity": 112, "duration": 139}, {"note": 0, "velocity": 0, "duration": 101}, {"note": 72, "velocity": 112, "duration": 201}, {"note": 0, "velocity": 0, "duration": 279}, {"note": 71, "velocity": 100, "duration": 137}, {"note": 0, "velocity": 0, "duration": 103}, {"note": 69, "velocity": 93, "duration": 125}, {"note": 0, "velocity": 0, "duration": 115}, {"note": 72, "velocity": 112, "duration": 637}, {"note": 0, "velocity": 0, "duration": 323}, {"note": 74, "velocity": 97, "duration": 147}, {"note": 0, "velocity": 0, "duration": 93}, {"note": 69, "velocity": 100, "duration": 474}, {"note": 0, "velocity": 0, "duration": 246}, {"note": 67, "velocity": 100, "duration": 410}, {"note": 0, "velocity": 0, "duration": 310}, {"note": 69, "velocity": 99, "duration": 764}, {"note": 0, "velocity": 0, "duration": 436}, {"note": 62, "velocity": 82, "duration": 199}, {"note": 71, "velocity": 92, "duration": 333}, {"note": 0, "velocity": 0, "duration": 147}, {"note": 71, "velocity": 97, "duration": 146}, {"note": 0, "velocity": 0, "duration": 94}, {"note": 71, "velocity": 92, "duration": 147}, {"note": 0, "velocity": 0, "duration": 93}, {"note": 69, "velocity": 97, "duration": 150}, {"note": 0, "velocity": 0, "duration": 90}, {"note": 67, "velocity": 78, "duration": 261}, {"note": 71, "velocity": 100, "duration": 208}, {"note": 0, "velocity": 0, "duration": 512}, {"note": 71, "velocity": 102, "duration": 262}, {"note": 0, "velocity": 0, "duration": 218}, {"note": 67, "velocity": 93, "duration": 142}, {"note": 0, "velocity": 0, "duration": 98}, {"note": 66, "velocity": 97, "duration": 480}, {"note": 0, "velocity": 0, "duration": 240}, {"note": 74, "velocity": 102, "duration": 725}, {"note": 0, "velocity": 0, "duration": 475}, {"note": 62, "velocity": 99, "duration": 138}, {"note": 0, "velocity": 0, "duration": 102}, {"note": 71, "velocity": 97, "duration": 315}, {"note": 0, "velocity": 0, "duration": 165}, {"note": 71, "velocity": 112, "duration": 115}, {"note": 0, "velocity": 0, "duration": 125}, {"note": 72, "velocity": 112, "duration": 118}, {"note": 0, "velocity": 0, "duration": 122}, {"note": 71, "velocity": 112, "duration": 80}, {"note": 0, "velocity": 0, "duration": 160}, {"note": 69, "velocity": 100, "duration": 241}, {"note": 69, "velocity": 99, "duration": 1}, {"note": 0, "velocity": 0, "duration": 479}, {"note": 71, "velocity": 90, "duration": 118}, {"note": 0, "velocity": 0, "duration": 122}, {"note": 72, "velocity": 95, "duration": 114}, {"note": 0, "velocity": 0, "duration": 126}, {"note": 69, "velocity": 97, "duration": 699}, {"note": 0, "velocity": 0, "duration": 501}, {"note": 67, "velocity": 99, "duration": 181}, {"note": 69, "velocity": 93, "duration": 130}, {"note": 0, "velocity": 0, "duration": 110}, {"note": 71, "velocity": 95, "duration": 124}, {"note": 0, "velocity": 0, "duration": 116}, {"note": 69, "velocity": 117, "duration": 1094}, {"note": 0, "velocity": 0, "duration": 23386}, {"note": 57, "velocity": 100, "duration": 256}, {"note": 0, "velocity": 0, "duration": 224}, {"note": 55, "velocity": 88, "duration": 196}, {"note": 57, "velocity": 92, "duration": 257}, {"note": 59, "velocity": 95, "duration": 1344}, {"note": 0, "velocity": 0, "duration": 576}, {"note": 59, "velocity": 83, "duration": 183}, {"note": 57, "velocity": 78, "duration": 210}, {"note": 55, "velocity": 69, "duration": 241}, {"note": 59, "velocity": 85, "duration": 126}, {"note": 0, "velocity": 0, "duration": 114}, {"note": 59, "velocity": 89, "duration": 193}, {"note": 0, "velocity": 0, "duration": 287}, {"note": 57, "velocity": 83, "duration": 247}, {"note": 0, "velocity": 0, "duration": 233}, {"note": 59, "velocity": 95, "duration": 116}, {"note": 0, "velocity": 0, "duration": 124}, {"note": 57, "velocity": 82, "duration": 170}, {"note": 0, "velocity": 0, "duration": 70}, {"note": 59, "velocity": 92, "duration": 159}, {"note": 0, "velocity": 0, "duration": 321}, {"note": 59, "velocity": 90, "duration": 276}, {"note": 0, "velocity": 0, "duration": 204}, {"note": 55, "velocity": 78, "duration": 150}, {"note": 0, "velocity": 0, "duration": 90}, {"note": 62, "velocity": 95, "duration": 168}, {"note": 0, "velocity": 0, "duration": 72}, {"note": 64, "velocity": 93, "duration": 142}, {"note": 0, "velocity": 0, "duration": 1058}, {"note": 64, "velocity": 89, "duration": 165}, {"note": 0, "velocity": 0, "duration": 75}, {"note": 62, "velocity": 75, "duration": 99}, {"note": 0, "velocity": 0, "duration": 141}, {"note": 62, "velocity": 83, "duration": 221}, {"note": 64, "velocity": 85, "duration": 151}, {"note": 0, "velocity": 0, "duration": 329}, {"note": 64, "velocity": 89, "duration": 152}, {"note": 0, "velocity": 0, "duration": 88}, {"note": 62, "velocity": 83, "duration": 157}, {"note": 0, "velocity": 0, "duration": 563}, {"note": 62, "velocity": 95, "duration": 242}, {"note": 0, "velocity": 0, "duration": 238}, {"note": 57, "velocity": 82, "duration": 233}, {"note": 0, "velocity": 0, "duration": 727}, {"note": 62, "velocity": 95, "duration": 225}, {"note": 0, "velocity": 0, "duration": 255}, {"note": 59, "velocity": 96, "duration": 1085}, {"note": 0, "velocity": 0, "duration": 1555}, {"note": 55, "velocity": 79, "duration": 130}, {"note": 0, "velocity": 0, "duration": 110}, {"note": 55, "velocity": 75, "duration": 117}, {"note": 0, "velocity": 0, "duration": 123}, {"note": 59, "velocity": 88, "duration": 264}, {"note": 0, "velocity": 0, "duration": 216}, {"note": 57, "velocity": 92, "duration": 195}, {"note": 59, "velocity": 73, "duration": 131}, {"note": 0, "velocity": 0, "duration": 109}, {"note": 54, "velocity": 90, "duration": 388}, {"note": 0, "velocity": 0, "duration": 812}, {"note": 59, "velocity": 78, "duration": 139}, {"note": 0, "velocity": 0, "duration": 101}, {"note": 57, "velocity": 72, "duration": 136}, {"note": 0, "velocity": 0, "duration": 104}, {"note": 55, "velocity": 81, "duration": 116}, {"note": 0, "velocity": 0, "duration": 124}, {"note": 62, "velocity": 92, "duration": 224}, {"note": 64, "velocity": 92, "duration": 286}, {"note": 0, "velocity": 0, "duration": 2114}, {"note": 50, "velocity": 76, "duration": 129}, {"note": 0, "velocity": 0, "duration": 111}, {"note": 62, "velocity": 88, "duration": 158}, {"note": 0, "velocity": 0, "duration": 82}, {"note": 59, "velocity": 81, "duration": 875}, {"note": 0, "velocity": 0, "duration": 85}, {"note": 57, "velocity": 93, "duration": 138}, {"note": 0, "velocity": 0, "duration": 102}, {"note": 57, "velocity": 89, "duration": 1145}, {"note": 62, "velocity": 82, "duration": 199}, {"note": 71, "velocity": 92, "duration": 333}, {"note": 0, "velocity": 0, "duration": 147}, {"note": 71, "velocity": 97, "duration": 146}, {"note": 0, "velocity": 0, "duration": 94}, {"note": 71, "velocity": 92, "duration": 147}, {"note": 0, "velocity": 0, "duration": 93}, {"note": 69, "velocity": 97, "duration": 150}, {"note": 0, "velocity": 0, "duration": 90}, {"note": 67, "velocity": 78, "duration": 261}, {"note": 71, "velocity": 100, "duration": 208}, {"note": 0, "velocity": 0, "duration": 272}, {"note": 66, "velocity": 102, "duration": 455}, {"note": 0, "velocity": 0, "duration": 265}, {"note": 66, "velocity": 107, "duration": 135}, {"note": 0, "velocity": 0, "duration": 105}, {"note": 71, "velocity": 100, "duration": 296}, {"note": 0, "velocity": 0, "duration": 184}, {"note": 71, "velocity": 112, "duration": 461}, {"note": 0, "velocity": 0, "duration": 259}, {"note": 69, "velocity": 107, "duration": 165}, {"note": 0, "velocity": 0, "duration": 75}, {"note": 71, "velocity": 112, "duration": 356}, {"note": 0, "velocity": 0, "duration": 364}, {"note": 67, "velocity": 85, "duration": 122}, {"note": 0, "velocity": 0, "duration": 118}, {"note": 67, "velocity": 93, "duration": 91}, {"note": 0, "velocity": 0, "duration": 149}, {"note": 67, "velocity": 86, "duration": 117}, {"note": 0, "velocity": 0, "duration": 123}, {"note": 72, "velocity": 99, "duration": 311}, {"note": 0, "velocity": 0, "duration": 169}, {"note": 72, "velocity": 112, "duration": 139}, {"note": 0, "velocity": 0, "duration": 101}, {"note": 72, "velocity": 112, "duration": 201}, {"note": 0, "velocity": 0, "duration": 279}, {"note": 71, "velocity": 100, "duration": 137}, {"note": 0, "velocity": 0, "duration": 103}, {"note": 69, "velocity": 93, "duration": 125}, {"note": 0, "velocity": 0, "duration": 115}, {"note": 72, "velocity": 112, "duration": 637}, {"note": 0, "velocity": 0, "duration": 323}, {"note": 74, "velocity": 97, "duration": 147}, {"note": 0, "velocity": 0, "duration": 93}, {"note": 69, "velocity": 100, "duration": 474}, {"note": 0, "velocity": 0, "duration": 246}, {"note": 67, "velocity": 100, "duration": 410}, {"note": 0, "velocity": 0, "duration": 310}, {"note": 69, "velocity": 99, "duration": 764}, {"note": 0, "velocity": 0, "duration": 436}, {"note": 62, "velocity": 82, "duration": 199}, {"note": 71, "velocity": 92, "duration": 333}, {"note": 0, "velocity": 0, "duration": 147}, {"note": 71, "velocity": 97, "duration": 146}, {"note": 0, "velocity": 0, "duration": 94}, {"note": 71, "velocity": 92, "duration": 147}, {"note": 0, "velocity": 0, "duration": 93}, {"note": 69, "velocity": 97, "duration": 150}, {"note": 0, "velocity": 0, "duration": 90}, {"note": 67, "velocity": 78, "duration": 261}, {"note": 71, "velocity": 100, "duration": 208}, {"note": 0, "velocity": 0, "duration": 512}, {"note": 71, "velocity": 102, "duration": 262}, {"note": 0, "velocity": 0, "duration": 218}, {"note": 67, "velocity": 93, "duration": 142}, {"note": 0, "velocity": 0, "duration": 98}, {"note": 66, "velocity": 97, "duration": 480}, {"note": 0, "velocity": 0, "duration": 240}, {"note": 74, "velocity": 102, "duration": 725}, {"note": 0, "velocity": 0, "duration": 475}, {"note": 62, "velocity": 99, "duration": 138}, {"note": 0, "velocity": 0, "duration": 102}, {"note": 71, "velocity": 97, "duration": 315}, {"note": 0, "velocity": 0, "duration": 165}, {"note": 71, "velocity": 112, "duration": 115}, {"note": 0, "velocity": 0, "duration": 125}, {"note": 72, "velocity": 112, "duration": 118}, {"note": 0, "velocity": 0, "duration": 122}, {"note": 71, "velocity": 112, "duration": 80}, {"note": 0, "velocity": 0, "duration": 160}, {"note": 69, "velocity": 100, "duration": 241}, {"note": 69, "velocity": 99, "duration": 1}, {"note": 0, "velocity": 0, "duration": 479}, {"note": 71, "velocity": 90, "duration": 118}, {"note": 0, "velocity": 0, "duration": 122}, {"note": 72, "velocity": 95, "duration": 114}, {"note": 0, "velocity": 0, "duration": 126}, {"note": 69, "velocity": 97, "duration": 699}, {"note": 0, "velocity": 0, "duration": 501}, {"note": 67, "velocity": 99, "duration": 181}, {"note": 69, "velocity": 93, "duration": 130}, {"note": 0, "velocity": 0, "duration": 110}, {"note": 71, "velocity": 95, "duration": 124}, {"note": 0, "velocity": 0, "duration": 116}, {"note": 69, "velocity": 117, "duration": 240}, {"note": 0, "velocity": 0, "duration": 480}, {"note": 74, "velocity": 127, "duration": 788}, {"note": 0, "velocity": 0, "duration": 412}, {"note": 74, "velocity": 112, "duration": 124}, {"note": 0, "velocity": 0, "duration": 116}, {"note": 74, "velocity": 112, "duration": 250}, {"note": 0, "velocity": 0, "duration": 230}, {"note": 74, "velocity": 127, "duration": 102}, {"note": 0, "velocity": 0, "duration": 138}, {"note": 74, "velocity": 102, "duration": 118}, {"note": 0, "velocity": 0, "duration": 122}, {"note": 72, "velocity": 117, "duration": 160}, {"note": 0, "velocity": 0, "duration": 80}, {"note": 71, "velocity": 89, "duration": 206}, {"note": 74, "velocity": 127, "duration": 266}, {"note": 0, "velocity": 0, "duration": 214}, {"note": 71, "velocity": 112, "duration": 460}, {"note": 0, "velocity": 0, "duration": 260}, {"note": 71, "velocity": 99, "duration": 208}, {"note": 74, "velocity": 127, "duration": 298}, {"note": 0, "velocity": 0, "duration": 182}, {"note": 74, "velocity": 122, "duration": 502}, {"note": 0, "velocity": 0, "duration": 218}, {"note": 71, "velocity": 112, "duration": 192}, {"note": 74, "velocity": 117, "duration": 316}, {"note": 0, "velocity": 0, "duration": 404}, {"note": 74, "velocity": 102, "duration": 141}, {"note": 0, "velocity": 0, "duration": 99}, {"note": 74, "velocity": 99, "duration": 100}, {"note": 0, "velocity": 0, "duration": 140}, {"note": 74, "velocity": 112, "duration": 111}, {"note": 0, "velocity": 0, "duration": 129}, {"note": 76, "velocity": 127, "duration": 378}, {"note": 0, "velocity": 0, "duration": 102}, {"note": 76, "velocity": 122, "duration": 166}, {"note": 0, "velocity": 0, "duration": 74}, {"note": 76, "velocity": 107, "duration": 258}, {"note": 0, "velocity": 0, "duration": 222}, {"note": 74, "velocity": 112, "duration": 130}, {"note": 0, "velocity": 0, "duration": 110}, {"note": 72, "velocity": 117, "duration": 141}, {"note": 0, "velocity": 0, "duration": 99}, {"note": 76, "velocity": 112, "duration": 263}, {"note": 0, "velocity": 0, "duration": 697}, {"note": 76, "velocity": 100, "duration": 118}, {"note": 0, "velocity": 0, "duration": 122}, {"note": 74, "velocity": 95, "duration": 710}, {"note": 71, "velocity": 100, "duration": 429}, {"note": 74, "velocity": 102, "duration": 68}, {"note": 0, "velocity": 0, "duration": 172}, {"note": 74, "velocity": 112, "duration": 956}, {"note": 0, "velocity": 0, "duration": 244}, {"note": 62, "velocity": 96, "duration": 122}, {"note": 0, "velocity": 0, "duration": 118}, {"note": 74, "velocity": 107, "duration": 289}, {"note": 0, "velocity": 0, "duration": 191}, {"note": 74, "velocity": 122, "duration": 104}, {"note": 0, "velocity": 0, "duration": 136}, {"note": 74, "velocity": 122, "duration": 288}, {"note": 0, "velocity": 0, "duration": 192}, {"note": 71, "velocity": 89, "duration": 188}, {"note": 74, "velocity": 112, "duration": 329}, {"note": 0, "velocity": 0, "duration": 391}, {"note": 74, "velocity": 112, "duration": 245}, {"note": 0, "velocity": 0, "duration": 235}, {"note": 71, "velocity": 99, "duration": 101}, {"note": 0, "velocity": 0, "duration": 139}, {"note": 71, "velocity": 102, "duration": 607}, {"note": 0, "velocity": 0, "duration": 113}, {"note": 78, "velocity": 127, "duration": 487}, {"note": 0, "velocity": 0, "duration": 233}, {"note": 74, "velocity": 100, "duration": 282}, {"note": 0, "velocity": 0, "duration": 198}, {"note": 67, "velocity": 95, "duration": 146}, {"note": 0, "velocity": 0, "duration": 94}, {"note": 74, "velocity": 102, "duration": 307}, {"note": 0, "velocity": 0, "duration": 173}, {"note": 74, "velocity": 112, "duration": 101}, {"note": 0, "velocity": 0, "duration": 139}, {"note": 76, "velocity": 102, "duration": 219}, {"note": 74, "velocity": 122, "duration": 137}, {"note": 0, "velocity": 0, "duration": 103}, {"note": 72, "velocity": 112, "duration": 85}, {"note": 0, "velocity": 0, "duration": 155}, {"note": 72, "velocity": 117, "duration": 497}, {"note": 74, "velocity": 112, "duration": 122}, {"note": 0, "velocity": 0, "duration": 118}, {"note": 76, "velocity": 92, "duration": 94}, {"note": 0, "velocity": 0, "duration": 146}, {"note": 72, "velocity": 112, "duration": 442}, {"note": 0, "velocity": 0, "duration": 758}, {"note": 69, "velocity": 100, "duration": 128}, {"note": 0, "velocity": 0, "duration": 112}, {"note": 69, "velocity": 99, "duration": 122}, {"note": 0, "velocity": 0, "duration": 118}, {"note": 71, "velocity": 102, "duration": 101}, {"note": 0, "velocity": 0, "duration": 139}, {"note": 69, "velocity": 112, "duration": 478}, {"note": 0, "velocity": 0, "duration": 2402}, {"note": 67, "velocity": 86, "duration": 287}, {"note": 0, "velocity": 0, "duration": 193}, {"note": 66, "velocity": 89, "duration": 94}, {"note": 0, "velocity": 0, "duration": 266}, {"note": 66, "velocity": 86, "duration": 179}, {"note": 0, "velocity": 0, "duration": 61}, {"note": 67, "velocity": 83, "duration": 1641}]]