[[{"note": 57, "velocity": 92, "duration": 381}, {"note": 0, "velocity": 0, "duration": 99}, {"note": 57, "velocity": 92, "duration": 208}, {"note": 55, "velocity": 61, "duration": 281}, {"note": 57, "velocity": 77, "duration": 698}, {"note": 0, "velocity": 0, "duration": 262}, {"note": 57, "velocity": 89, "duration": 218}, {"note": 60, "velocity": 99, "duration": 224}, {"note": 57, "velocity": 83, "duration": 235}, {"note": 55, "velocity": 75, "duration": 258}, {"note": 57, "velocity": 73, "duration": 690}, {"note": 0, "velocity": 0, "duration": 270}, {"note": 53, "velocity": 85, "duration": 415}, {"note": 0, "velocity": 0, "duration": 65}, {"note": 53, "velocity": 86, "duration": 225}, {"note": 55, "velocity": 76, "duration": 228}, {"note": 57, "velocity": 70, "duration": 246}, {"note": 60, "velocity": 79, "duration": 229}, {"note": 57, "velocity": 78, "duration": 370}, {"note": 0, "velocity": 0, "duration": 110}, {"note": 55, "velocity": 71, "duration": 350}, {"note": 0, "velocity": 0, "duration": 130}, {"note": 55, "velocity": 79, "duration": 218}, {"note": 53, "velocity": 70, "duration": 259}, {"note": 55, "velocity": 72, "duration": 795}, {"note": 0, "velocity": 0, "duration": 165}, {"note": 57, "velocity": 93, "duration": 638}, {"note": 0, "velocity": 0, "duration": 82}, {"note": 60, "velocity": 99, "duration": 176}, {"note": 57, "velocity": 62, "duration": 117}, {"note": 62, "velocity": 100, "duration": 226}, {"note": 60, "velocity": 73, "duration": 560}, {"note": 0, "velocity": 0, "duration": 160}, {"note": 62, "velocity": 97, "duration": 241}, {"note": 60, "velocity": 81, "duration": 195}, {"note": 60, "velocity": 86, "duration": 236}, {"note": 57, "velocity": 86, "duration": 233}, {"note": 60, "velocity": 83, "duration": 461}, {"note": 0, "velocity": 0, "duration": 499}, {"note": 57, "velocity": 96, "duration": 455}, {"note": 55, "velocity": 93, "duration": 231}, {"note": 57, "velocity": 72, "duration": 248}, {"note": 60, "velocity": 85, "duration": 445}, {"note": 57, "velocity": 79, "duration": 234}, {"note": 55, "velocity": 73, "duration": 206}, {"note": 55, "velocity": 74, "duration": 697}, {"note": 55, "velocity": 85, "duration": 217}, {"note": 53, "velocity": 69, "duration": 260}, {"note": 55, "velocity": 70, "duration": 772}, {"note": 0, "velocity": 0, "duration": 188}, {"note": 57, "velocity": 92, "duration": 381}, {"note": 0, "velocity": 0, "duration": 99}, {"note": 57, "velocity": 92, "duration": 208}, {"note": 55, "velocity": 61, "duration": 281}, {"note": 57, "velocity": 77, "duration": 698}, {"note": 0, "velocity": 0, "duration": 262}, {"note": 57, "velocity": 89, "duration": 218}, {"note": 60, "velocity": 99, "duration": 224}, {"note": 57, "velocity": 83, "duration": 235}, {"note": 55, "velocity": 75, "duration": 258}, {"note": 57, "velocity": 73, "duration": 690}, {"note": 0, "velocity": 0, "duration": 270}, {"note": 53, "velocity": 85, "duration": 415}, {"note": 0, "velocity": 0, "duration": 65}, {"note": 53, "velocity": 86, "duration": 225}, {"note": 55, "velocity": 76, "duration": 228}, {"note": 57, "velocity": 70, "duration": 246}, {"note": 60, "velocity": 79, "duration": 229}, {"note": 57, "velocity": 78, "duration": 370}, {"note": 0, "velocity": 0, "duration": 110}, {"note": 55, "velocity": 71, "duration": 350}, {"note": 0, "velocity": 0, "duration": 130}, {"note": 55, "velocity": 79, "duration": 218}, {"note": 53, "velocity": 70, "duration": 259}, {"note": 55, "velocity": 72, "duration": 795}, {"note": 0, "velocity": 0, "duration": 165}, {"note": 57, "velocity": 93, "duration": 638}, {"note": 0, "velocity": 0, "duration": 82}, {"note": 60, "velocity": 99, "duration": 176}, {"note": 57, "velocity": 62, "duration": 117}, {"note": 62, "velocity": 100, "duration": 226}, {"note": 60, "velocity": 73, "duration": 560}, {"note": 0, "velocity": 0, "duration": 160}, {"note": 62, "velocity": 97, "duration": 241}, {"note": 60, "velocity": 81, "duration": 195}, {"note": 60, "velocity": 86, "duration": 236}, {"note": 57, "velocity": 86, "duration": 233}, {"note": 60, "velocity": 83, "duration": 461}, {"note": 0, "velocity": 0, "duration": 499}, {"note": 57, "velocity": 96, "duration": 455}, {"note": 55, "velocity": 93, "duration": 231}, {"note": 57, "velocity": 72, "duration": 248}, {"note": 60, "velocity": 85, "duration": 445}, {"note": 57, "velocity": 79, "duration": 234}, {"note": 55, "velocity": 73, "duration": 206}, {"note": 55, "velocity": 86, "duration": 230}, {"note": 53, "velocity": 81, "duration": 1190}, {"note": 0, "velocity": 0, "duration": 1930}, {"note": 53, "velocity": 96, "duration": 228}, {"note": 55, "velocity": 95, "duration": 223}, {"note": 57, "velocity": 99, "duration": 410}, {"note": 0, "velocity": 0, "duration": 70}, {"note": 57, "velocity": 100, "duration": 228}, {"note": 60, "velocity": 99, "duration": 214}, {"note": 62, "velocity": 102, "duration": 439}, {"note": 62, "velocity": 107, "duration": 148}, {"note": 0, "velocity": 0, "duration": 92}, {"note": 69, "velocity": 102, "duration": 169}, {"note": 0, "velocity": 0, "duration": 71}, {"note": 67, "velocity": 117, "duration": 213}, {"note": 65, "velocity": 78, "duration": 150}, {"note": 0, "velocity": 0, "duration": 90}, {"note": 65, "velocity": 100, "duration": 158}, {"note": 0, "velocity": 0, "duration": 82}, {"note": 62, "velocity": 95, "duration": 163}, {"note": 0, "velocity": 0, "duration": 77}, {"note": 60, "velocity": 112, "duration": 406}, {"note": 0, "velocity": 0, "duration": 554}, {"note": 62, "velocity": 99, "duration": 194}, {"note": 60, "velocity": 99, "duration": 178}, {"note": 0, "velocity": 0, "duration": 62}, {"note": 57, "velocity": 95, "duration": 243}, {"note": 55, "velocity": 70, "duration": 227}, {"note": 53, "velocity": 81, "duration": 466}, {"note": 50, "velocity": 90, "duration": 218}, {"note": 53, "velocity": 89, "duration": 170}, {"note": 0, "velocity": 0, "duration": 70}, {"note": 53, "velocity": 96, "duration": 230}, {"note": 55, "velocity": 100, "duration": 272}, {"note": 55, "velocity": 92, "duration": 205}, {"note": 53, "velocity": 92, "duration": 234}, {"note": 55, "velocity": 97, "duration": 433}, {"note": 53, "velocity": 96, "duration": 228}, {"note": 55, "velocity": 95, "duration": 223}, {"note": 57, "velocity": 99, "duration": 410}, {"note": 0, "velocity": 0, "duration": 70}, {"note": 57, "velocity": 100, "duration": 228}, {"note": 60, "velocity": 99, "duration": 214}, {"note": 62, "velocity": 102, "duration": 439}, {"note": 62, "velocity": 107, "duration": 148}, {"note": 0, "velocity": 0, "duration": 92}, {"note": 69, "velocity": 102, "duration": 169}, {"note": 0, "velocity": 0, "duration": 71}, {"note": 67, "velocity": 117, "duration": 213}, {"note": 65, "velocity": 78, "duration": 150}, {"note": 0, "velocity": 0, "duration": 90}, {"note": 65, "velocity": 100, "duration": 158}, {"note": 0, "velocity": 0, "duration": 82}, {"note": 67, "velocity": 95, "duration": 163}, {"note": 0, "velocity": 0, "duration": 77}, {"note": 67, "velocity": 112, "duration": 150}, {"note": 0, "velocity": 0, "duration": 99}, {"note": 65, "velocity": 112, "duration": 231}, {"note": 0, "velocity": 0, "duration": 480}, {"note": 60, "velocity": 100, "duration": 380}, {"note": 0, "velocity": 0, "duration": 100}, {"note": 60, "velocity": 107, "duration": 188}, {"note": 57, "velocity": 99, "duration": 181}, {"note": 64, "velocity": 100, "duration": 248}, {"note": 65, "velocity": 100, "duration": 169}, {"note": 0, "velocity": 0, "duration": 71}, {"note": 53, "velocity": 95, "duration": 170}, {"note": 0, "velocity": 0, "duration": 70}, {"note": 55, "velocity": 90, "duration": 186}, {"note": 57, "velocity": 95, "duration": 345}, {"note": 0, "velocity": 0, "duration": 615}, {"note": 55, "velocity": 78, "duration": 977}, {"note": 53, "velocity": 76, "duration": 1201}, {"note": 0, "velocity": 0, "duration": 14159}, {"note": 57, "velocity": 92, "duration": 381}, {"note": 0, "velocity": 0, "duration": 99}, {"note": 57, "velocity": 92, "duration": 208}, {"note": 55, "velocity": 61, "duration": 281}, {"note": 57, "velocity": 77, "duration": 698}, {"note": 0, "velocity": 0, "duration": 262}, {"note": 57, "velocity": 89, "duration": 218}, {"note": 60, "velocity": 99, "duration": 224}, {"note": 57, "velocity": 83, "duration": 235}, {"note": 55, "velocity": 75, "duration": 258}, {"note": 57, "velocity": 73, "duration": 690}, {"note": 0, "velocity": 0, "duration": 270}, {"note": 53, "velocity": 85, "duration": 415}, {"note": 0, "velocity": 0, "duration": 65}, {"note": 53, "velocity": 86, "duration": 225}, {"note": 55, "velocity": 76, "duration": 228}, {"note": 57, "velocity": 70, "duration": 246}, {"note": 60, "velocity": 79, "duration": 229}, {"note": 57, "velocity": 78, "duration": 370}, {"note": 0, "velocity": 0, "duration": 110}, {"note": 55, "velocity": 71, "duration": 350}, {"note": 0, "velocity": 0, "duration": 130}, {"note": 55, "velocity": 79, "duration": 218}, {"note": 53, "velocity": 70, "duration": 259}, {"note": 55, "velocity": 72, "duration": 795}, {"note": 0, "velocity": 0, "duration": 165}, {"note": 57, "velocity": 93, "duration": 638}, {"note": 0, "velocity": 0, "duration": 82}, {"note": 60, "velocity": 99, "duration": 176}, {"note": 57, "velocity": 62, "duration": 117}, {"note": 62, "velocity": 100, "duration": 226}, {"note": 60, "velocity": 73, "duration": 560}, {"note": 0, "velocity": 0, "duration": 160}, {"note": 62, "velocity": 97, "duration": 241}, {"note": 60, "velocity": 81, "duration": 195}, {"note": 60, "velocity": 86, "duration": 236}, {"note": 57, "velocity": 86, "duration": 233}, {"note": 60, "velocity": 83, "duration": 461}, {"note": 0, "velocity": 0, "duration": 379}, {"note": 48, "velocity": 88, "duration": 140}, {"note": 57, "velocity": 96, "duration": 455}, {"note": 55, "velocity": 93, "duration": 231}, {"note": 57, "velocity": 72, "duration": 248}, {"note": 60, "velocity": 85, "duration": 445}, {"note": 57, "velocity": 79, "duration": 234}, {"note": 55, "velocity": 73, "duration": 206}, {"note": 55, "velocity": 74, "duration": 697}, {"note": 55, "velocity": 85, "duration": 217}, {"note": 53, "velocity": 69, "duration": 260}, {"note": 55, "velocity": 70, "duration": 772}, {"note": 0, "velocity": 0, "duration": 188}, {"note": 57, "velocity": 92, "duration": 381}, {"note": 0, "velocity": 0, "duration": 99}, {"note": 57, "velocity": 92, "duration": 208}, {"note": 55, "velocity": 61, "duration": 281}, {"note": 57, "velocity": 77, "duration": 698}, {"note": 0, "velocity": 0, "duration": 262}, {"note": 57, "velocity": 89, "duration": 218}, {"note": 60, "velocity": 99, "duration": 224}, {"note": 57, "velocity": 83, "duration": 235}, {"note": 55, "velocity": 75, "duration": 258}, {"note": 57, "velocity": 73, "duration": 690}, {"note": 0, "velocity": 0, "duration": 270}, {"note": 53, "velocity": 85, "duration": 415}, {"note": 0, "velocity": 0, "duration": 65}, {"note": 53, "velocity": 86, "duration": 225}, {"note": 55, "velocity": 76, "duration": 228}, {"note": 57, "velocity": 70, "duration": 246}, {"note": 60, "velocity": 79, "duration": 229}, {"note": 57, "velocity": 78, "duration": 370}, {"note": 0, "velocity": 0, "duration": 110}, {"note": 55, "velocity": 71, "duration": 350}, {"note": 0, "velocity": 0, "duration": 130}, {"note": 55, "velocity": 79, "duration": 218}, {"note": 53, "velocity": 70, "duration": 259}, {"note": 55, "velocity": 72, "duration": 795}, {"note": 0, "velocity": 0, "duration": 165}, {"note": 57, "velocity": 93, "duration": 638}, {"note": 0, "velocity": 0, "duration": 82}, {"note": 60, "velocity": 99, "duration": 176}, {"note": 57, "velocity": 62, "duration": 117}, {"note": 62, "velocity": 100, "duration": 226}, {"note": 60, "velocity": 73, "duration": 560}, {"note": 0, "velocity": 0, "duration": 160}, {"note": 62, "velocity": 97, "duration": 241}, {"note": 60, "velocity": 81, "duration": 195}, {"note": 60, "velocity": 86, "duration": 236}, {"note": 57, "velocity": 86, "duration": 233}, {"note": 60, "velocity": 83, "duration": 461}, {"note": 0, "velocity": 0, "duration": 723}, {"note": 57, "velocity": 96, "duration": 186}, {"note": 0, "velocity": 0, "duration": 70}, {"note": 55, "velocity": 93, "duration": 231}, {"note": 57, "velocity": 72, "duration": 248}, {"note": 60, "velocity": 85, "duration": 445}, {"note": 57, "velocity": 79, "duration": 234}, {"note": 55, "velocity": 73, "duration": 206}, {"note": 55, "velocity": 86, "duration": 230}, {"note": 53, "velocity": 81, "duration": 1190}, {"note": 0, "velocity": 0, "duration": 1930}, {"note": 53, "velocity": 96, "duration": 228}, {"note": 55, "velocity": 95, "duration": 223}, {"note": 57, "velocity": 99, "duration": 410}, {"note": 0, "velocity": 0, "duration": 70}, {"note": 57, "velocity": 100, "duration": 228}, {"note": 60, "velocity": 99, "duration": 214}, {"note": 62, "velocity": 102, "duration": 439}, {"note": 62, "velocity": 107, "duration": 148}, {"note": 0, "velocity": 0, "duration": 92}, {"note": 69, "velocity": 102, "duration": 169}, {"note": 0, "velocity": 0, "duration": 71}, {"note": 67, "velocity": 117, "duration": 213}, {"note": 65, "velocity": 78, "duration": 150}, {"note": 0, "velocity": 0, "duration": 90}, {"note": 65, "velocity": 100, "duration": 158}, {"note": 0, "velocity": 0, "duration": 82}, {"note": 62, "velocity": 95, "duration": 163}, {"note": 0, "velocity": 0, "duration": 77}, {"note": 60, "velocity": 112, "duration": 406}, {"note": 0, "velocity": 0, "duration": 554}, {"note": 62, "velocity": 99, "duration": 194}, {"note": 60, "velocity": 99, "duration": 178}, {"note": 0, "velocity": 0, "duration": 62}, {"note": 57, "velocity": 95, "duration": 243}, {"note": 55, "velocity": 70, "duration": 227}, {"note": 53, "velocity": 81, "duration": 466}, {"note": 50, "velocity": 90, "duration": 218}, {"note": 53, "velocity": 89, "duration": 170}, {"note": 0, "velocity": 0, "duration": 70}, {"note": 53, "velocity": 96, "duration": 230}, {"note": 55, "velocity": 100, "duration": 272}, {"note": 55, "velocity": 92, "duration": 205}, {"note": 53, "velocity": 92, "duration": 234}, {"note": 55, "velocity": 97, "duration": 433}, {"note": 53, "velocity": 96, "duration": 228}, {"note": 55, "velocity": 95, "duration": 223}, {"note": 57, "velocity": 99, "duration": 410}, {"note": 0, "velocity": 0, "duration": 70}, {"note": 57, "velocity": 100, "duration": 228}, {"note": 60, "velocity": 99, "duration": 214}, {"note": 62, "velocity": 102, "duration": 439}, {"note": 62, "velocity": 107, "duration": 148}, {"note": 0, "velocity": 0, "duration": 92}, {"note": 69, "velocity": 102, "duration": 169}, {"note": 0, "velocity": 0, "duration": 71}, {"note": 67, "velocity": 117, "duration": 213}, {"note": 65, "velocity": 78, "duration": 150}, {"note": 0, "velocity": 0, "duration": 90}, {"note": 65, "velocity": 100, "duration": 158}, {"note": 0, "velocity": 0, "duration": 82}, {"note": 67, "velocity": 95, "duration": 163}, {"note": 0, "velocity": 0, "duration": 77}, {"note": 67, "velocity": 112, "duration": 150}, {"note": 0, "velocity": 0, "duration": 99}, {"note": 65, "velocity": 112, "duration": 231}, {"note": 0, "velocity": 0, "duration": 480}, {"note": 60, "velocity": 100, "duration": 380}, {"note": 0, "velocity": 0, "duration": 100}, {"note": 60, "velocity": 107, "duration": 188}, {"note": 57, "velocity": 99, "duration": 181}, {"note": 64, "velocity": 100, "duration": 248}, {"note": 65, "velocity": 100, "duration": 169}, {"note": 0, "velocity": 0, "duration": 71}, {"note": 53, "velocity": 95, "duration": 170}, {"note": 0, "velocity": 0, "duration": 70}, {"note": 55, "velocity": 90, "duration": 186}, {"note": 57, "velocity": 95, "duration": 345}, {"note": 0, "velocity": 0, "duration": 615}, {"note": 55, "velocity": 78, "duration": 977}, {"note": 53, "velocity": 76, "duration": 1201}, {"note": 0, "velocity": 0, "duration": 239}, {"note": 55, "velocity": 96, "duration": 228}, {"note": 57, "velocity": 95, "duration": 223}, {"note": 59, "velocity": 99, "duration": 410}, {"note": 0, "velocity": 0, "duration": 70}, {"note": 59, "velocity": 100, "duration": 228}, {"note": 62, "velocity": 99, "duration": 214}, {"note": 64, "velocity": 102, "duration": 439}, {"note": 64, "velocity": 107, "duration": 148}, {"note": 0, "velocity": 0, "duration": 92}, {"note": 71, "velocity": 102, "duration": 169}, {"note": 0, "velocity": 0, "duration": 71}, {"note": 69, "velocity": 117, "duration": 213}, {"note": 67, "velocity": 78, "duration": 150}, {"note": 0, "velocity": 0, "duration": 90}, {"note": 67, "velocity": 100, "duration": 158}, {"note": 0, "velocity": 0, "duration": 82}, {"note": 64, "velocity": 95, "duration": 163}, {"note": 0, "velocity": 0, "duration": 77}, {"note": 62, "velocity": 112, "duration": 406}, {"note": 0, "velocity": 0, "duration": 554}, {"note": 64, "velocity": 99, "duration": 194}, {"note": 62, "velocity": 99, "duration": 178}, {"note": 0, "velocity": 0, "duration": 62}, {"note": 59, "velocity": 95, "duration": 243}, {"note": 57, "velocity": 70, "duration": 227}, {"note": 55, "velocity": 81, "duration": 466}, {"note": 52, "velocity": 90, "duration": 218}, {"note": 55, "velocity": 89, "duration": 170}, {"note": 0, "velocity": 0, "duration": 70}, {"note": 55, "velocity": 96, "duration": 230}, {"note": 57, "velocity": 100, "duration": 272}, {"note": 57, "velocity": 92, "duration": 205}, {"note": 55, "velocity": 92, "duration": 234}, {"note": 57, "velocity": 97, "duration": 433}, {"note": 55, "velocity": 96, "duration": 228}, {"note": 57, "velocity": 95, "duration": 223}, {"note": 59, "velocity": 99, "duration": 410}, {"note": 0, "velocity": 0, "duration": 70}, {"note": 59, "velocity": 100, "duration": 228}, {"note": 62, "velocity": 99, "duration": 214}, {"note": 64, "velocity": 102, "duration": 439}, {"note": 64, "velocity": 107, "duration": 148}, {"note": 0, "velocity": 0, "duration": 92}, {"note": 71, "velocity": 102, "duration": 169}, {"note": 0, "velocity": 0, "duration": 71}, {"note": 69, "velocity": 117, "duration": 213}, {"note": 67, "velocity": 78, "duration": 150}, {"note": 0, "velocity": 0, "duration": 90}, {"note": 67, "velocity": 100, "duration": 158}, {"note": 0, "velocity": 0, "duration": 82}, {"note": 69, "velocity": 95, "duration": 163}, {"note": 0, "velocity": 0, "duration": 77}, {"note": 69, "velocity": 112, "duration": 150}, {"note": 0, "velocity": 0, "duration": 99}, {"note": 67, "velocity": 112, "duration": 231}, {"note": 0, "velocity": 0, "duration": 1440}, {"note": 62, "velocity": 100, "duration": 380}, {"note": 0, "velocity": 0, "duration": 100}, {"note": 62, "velocity": 107, "duration": 188}, {"note": 59, "velocity": 99, "duration": 181}, {"note": 66, "velocity": 100, "duration": 248}, {"note": 67, "velocity": 100, "duration": 169}, {"note": 0, "velocity": 0, "duration": 71}, {"note": 55, "velocity": 95, "duration": 170}, {"note": 0, "velocity": 0, "duration": 70}, {"note": 57, "velocity": 90, "duration": 186}, {"note": 59, "velocity": 95, "duration": 345}, {"note": 0, "velocity": 0, "duration": 615}, {"note": 57, "velocity": 78, "duration": 977}, {"note": 55, "velocity": 76, "duration": 1201}]]