[[{"note": 60, "velocity": 77, "duration": 419}, {"note": 0, "velocity": 0, "duration": 301}, {"note": 55, "velocity": 82, "duration": 214}, {"note": 62, "velocity": 89, "duration": 355}, {"note": 0, "velocity": 0, "duration": 365}, {"note": 55, "velocity": 79, "duration": 158}, {"note": 0, "velocity": 0, "duration": 82}, {"note": 63, "velocity": 99, "duration": 200}, {"note": 62, "velocity": 95, "duration": 206}, {"note": 60, "velocity": 83, "duration": 223}, {"note": 58, "velocity": 70, "duration": 189}, {"note": 55, "velocity": 77, "duration": 307}, {"note": 0, "velocity": 0, "duration": 653}, {"note": 53, "velocity": 83, "duration": 276}, {"note": 0, "velocity": 0, "duration": 204}, {"note": 63, "velocity": 96, "duration": 410}, {"note": 0, "velocity": 0, "duration": 70}, {"note": 62, "velocity": 89, "duration": 356}, {"note": 60, "velocity": 85, "duration": 129}, {"note": 0, "velocity": 0, "duration": 111}, {"note": 58, "velocity": 88, "duration": 129}, {"note": 0, "velocity": 0, "duration": 111}, {"note": 53, "velocity": 66, "duration": 166}, {"note": 0, "velocity": 0, "duration": 74}, {"note": 55, "velocity": 64, "duration": 725}, {"note": 0, "velocity": 0, "duration": 955}, {"note": 55, "velocity": 70, "duration": 181}, {"note": 60, "velocity": 70, "duration": 506}, {"note": 0, "velocity": 0, "duration": 214}, {"note": 55, "velocity": 88, "duration": 237}, {"note": 62, "velocity": 92, "duration": 471}, {"note": 0, "velocity": 0, "duration": 249}, {"note": 55, "velocity": 74, "duration": 160}, {"note": 0, "velocity": 0, "duration": 80}, {"note": 63, "velocity": 107, "duration": 212}, {"note": 62, "velocity": 88, "duration": 232}, {"note": 63, "velocity": 99, "duration": 204}, {"note": 65, "velocity": 97, "duration": 211}, {"note": 67, "velocity": 100, "duration": 416}, {"note": 0, "velocity": 0, "duration": 544}, {"note": 65, "velocity": 96, "duration": 185}, {"note": 0, "velocity": 0, "duration": 295}, {"note": 60, "velocity": 92, "duration": 288}, {"note": 0, "velocity": 0, "duration": 192}, {"note": 62, "velocity": 93, "duration": 398}, {"note": 0, "velocity": 0, "duration": 322}, {"note": 58, "velocity": 82, "duration": 207}, {"note": 60, "velocity": 93, "duration": 793}, {"note": 0, "velocity": 0, "duration": 1127}, {"note": 65, "velocity": 99, "duration": 244}, {"note": 0, "velocity": 0, "duration": 476}, {"note": 60, "velocity": 96, "duration": 215}, {"note": 63, "velocity": 112, "duration": 432}, {"note": 0, "velocity": 0, "duration": 288}, {"note": 61, "velocity": 97, "duration": 245}, {"note": 60, "velocity": 97, "duration": 263}, {"note": 63, "velocity": 122, "duration": 171}, {"note": 0, "velocity": 0, "duration": 69}, {"note": 63, "velocity": 102, "duration": 162}, {"note": 0, "velocity": 0, "duration": 78}, {"note": 65, "velocity": 97, "duration": 226}, {"note": 60, "velocity": 102, "duration": 425}, {"note": 0, "velocity": 0, "duration": 295}, {"note": 56, "velocity": 96, "duration": 146}, {"note": 0, "velocity": 0, "duration": 94}, {"note": 58, "velocity": 127, "duration": 270}, {"note": 0, "velocity": 0, "duration": 450}, {"note": 65, "velocity": 100, "duration": 187}, {"note": 65, "velocity": 97, "duration": 178}, {"note": 0, "velocity": 0, "duration": 182}, {"note": 63, "velocity": 100, "duration": 235}, {"note": 0, "velocity": 0, "duration": 125}, {"note": 65, "velocity": 95, "duration": 165}, {"note": 0, "velocity": 0, "duration": 75}, {"note": 67, "velocity": 102, "duration": 972}, {"note": 0, "velocity": 0, "duration": 468}, {"note": 65, "velocity": 107, "duration": 150}, {"note": 0, "velocity": 0, "duration": 90}, {"note": 67, "velocity": 107, "duration": 139}, {"note": 0, "velocity": 0, "duration": 101}, {"note": 68, "velocity": 127, "duration": 282}, {"note": 0, "velocity": 0, "duration": 198}, {"note": 72, "velocity": 107, "duration": 352}, {"note": 0, "velocity": 0, "duration": 128}, {"note": 67, "velocity": 112, "duration": 355}, {"note": 0, "velocity": 0, "duration": 605}, {"note": 65, "velocity": 102, "duration": 165}, {"note": 0, "velocity": 0, "duration": 75}, {"note": 67, "velocity": 99, "duration": 144}, {"note": 0, "velocity": 0, "duration": 96}, {"note": 68, "velocity": 122, "duration": 154}, {"note": 0, "velocity": 0, "duration": 86}, {"note": 65, "velocity": 97, "duration": 142}, {"note": 0, "velocity": 0, "duration": 98}, {"note": 63, "velocity": 107, "duration": 479}, {"note": 0, "velocity": 0, "duration": 481}, {"note": 61, "velocity": 102, "duration": 214}, {"note": 0, "velocity": 0, "duration": 266}, {"note": 68, "velocity": 112, "duration": 350}, {"note": 0, "velocity": 0, "duration": 130}, {"note": 67, "velocity": 122, "duration": 311}, {"note": 65, "velocity": 99, "duration": 244}, {"note": 63, "velocity": 100, "duration": 103}, {"note": 0, "velocity": 0, "duration": 137}, {"note": 58, "velocity": 95, "duration": 216}, {"note": 60, "velocity": 102, "duration": 889}, {"note": 0, "velocity": 0, "duration": 551}, {"note": 65, "velocity": 122, "duration": 209}, {"note": 67, "velocity": 99, "duration": 157}, {"note": 0, "velocity": 0, "duration": 83}, {"note": 68, "velocity": 127, "duration": 353}, {"note": 0, "velocity": 0, "duration": 127}, {"note": 72, "velocity": 127, "duration": 332}, {"note": 0, "velocity": 0, "duration": 148}, {"note": 67, "velocity": 117, "duration": 428}, {"note": 0, "velocity": 0, "duration": 532}, {"note": 65, "velocity": 107, "duration": 181}, {"note": 67, "velocity": 122, "duration": 166}, {"note": 0, "velocity": 0, "duration": 74}, {"note": 68, "velocity": 117, "duration": 141}, {"note": 0, "velocity": 0, "duration": 99}, {"note": 70, "velocity": 127, "duration": 164}, {"note": 0, "velocity": 0, "duration": 76}, {"note": 72, "velocity": 127, "duration": 449}, {"note": 0, "velocity": 0, "duration": 511}, {"note": 70, "velocity": 127, "duration": 416}, {"note": 0, "velocity": 0, "duration": 64}, {"note": 65, "velocity": 100, "duration": 351}, {"note": 0, "velocity": 0, "duration": 129}, {"note": 67, "velocity": 107, "duration": 435}, {"note": 0, "velocity": 0, "duration": 285}, {"note": 63, "velocity": 112, "duration": 222}, {"note": 65, "velocity": 112, "duration": 1447}, {"note": 0, "velocity": 0, "duration": 8153}, {"note": 60, "velocity": 77, "duration": 419}, {"note": 0, "velocity": 0, "duration": 301}, {"note": 55, "velocity": 82, "duration": 214}, {"note": 62, "velocity": 89, "duration": 355}, {"note": 0, "velocity": 0, "duration": 365}, {"note": 55, "velocity": 79, "duration": 158}, {"note": 0, "velocity": 0, "duration": 82}, {"note": 63, "velocity": 99, "duration": 200}, {"note": 62, "velocity": 95, "duration": 206}, {"note": 60, "velocity": 83, "duration": 223}, {"note": 58, "velocity": 70, "duration": 189}, {"note": 55, "velocity": 77, "duration": 307}, {"note": 0, "velocity": 0, "duration": 653}, {"note": 53, "velocity": 83, "duration": 276}, {"note": 0, "velocity": 0, "duration": 204}, {"note": 63, "velocity": 96, "duration": 410}, {"note": 0, "velocity": 0, "duration": 70}, {"note": 62, "velocity": 89, "duration": 356}, {"note": 60, "velocity": 85, "duration": 129}, {"note": 0, "velocity": 0, "duration": 111}, {"note": 58, "velocity": 88, "duration": 129}, {"note": 0, "velocity": 0, "duration": 111}, {"note": 53, "velocity": 66, "duration": 166}, {"note": 0, "velocity": 0, "duration": 74}, {"note": 55, "velocity": 64, "duration": 725}, {"note": 0, "velocity": 0, "duration": 955}, {"note": 55, "velocity": 70, "duration": 181}, {"note": 60, "velocity": 70, "duration": 506}, {"note": 0, "velocity": 0, "duration": 214}, {"note": 55, "velocity": 88, "duration": 237}, {"note": 62, "velocity": 92, "duration": 471}, {"note": 0, "velocity": 0, "duration": 249}, {"note": 55, "velocity": 74, "duration": 160}, {"note": 0, "velocity": 0, "duration": 80}, {"note": 63, "velocity": 107, "duration": 212}, {"note": 62, "velocity": 88, "duration": 232}, {"note": 63, "velocity": 99, "duration": 204}, {"note": 65, "velocity": 97, "duration": 211}, {"note": 67, "velocity": 100, "duration": 416}, {"note": 0, "velocity": 0, "duration": 544}, {"note": 65, "velocity": 96, "duration": 185}, {"note": 0, "velocity": 0, "duration": 295}, {"note": 60, "velocity": 92, "duration": 288}, {"note": 0, "velocity": 0, "duration": 192}, {"note": 62, "velocity": 93, "duration": 398}, {"note": 0, "velocity": 0, "duration": 322}, {"note": 58, "velocity": 82, "duration": 207}, {"note": 60, "velocity": 93, "duration": 793}, {"note": 0, "velocity": 0, "duration": 1127}, {"note": 65, "velocity": 99, "duration": 244}, {"note": 0, "velocity": 0, "duration": 476}, {"note": 60, "velocity": 96, "duration": 215}, {"note": 63, "velocity": 112, "duration": 432}, {"note": 0, "velocity": 0, "duration": 288}, {"note": 61, "velocity": 97, "duration": 245}, {"note": 60, "velocity": 97, "duration": 263}, {"note": 63, "velocity": 122, "duration": 171}, {"note": 0, "velocity": 0, "duration": 69}, {"note": 63, "velocity": 102, "duration": 162}, {"note": 0, "velocity": 0, "duration": 78}, {"note": 65, "velocity": 97, "duration": 226}, {"note": 60, "velocity": 102, "duration": 425}, {"note": 0, "velocity": 0, "duration": 295}, {"note": 56, "velocity": 96, "duration": 146}, {"note": 0, "velocity": 0, "duration": 94}, {"note": 58, "velocity": 127, "duration": 270}, {"note": 0, "velocity": 0, "duration": 450}, {"note": 65, "velocity": 100, "duration": 187}, {"note": 65, "velocity": 97, "duration": 178}, {"note": 0, "velocity": 0, "duration": 182}, {"note": 63, "velocity": 100, "duration": 235}, {"note": 0, "velocity": 0, "duration": 125}, {"note": 65, "velocity": 95, "duration": 165}, {"note": 0, "velocity": 0, "duration": 75}, {"note": 67, "velocity": 102, "duration": 972}, {"note": 0, "velocity": 0, "duration": 468}, {"note": 65, "velocity": 107, "duration": 150}, {"note": 0, "velocity": 0, "duration": 90}, {"note": 67, "velocity": 107, "duration": 139}, {"note": 0, "velocity": 0, "duration": 101}, {"note": 68, "velocity": 127, "duration": 282}, {"note": 0, "velocity": 0, "duration": 198}, {"note": 72, "velocity": 107, "duration": 352}, {"note": 0, "velocity": 0, "duration": 128}, {"note": 67, "velocity": 112, "duration": 355}, {"note": 0, "velocity": 0, "duration": 605}, {"note": 65, "velocity": 102, "duration": 165}, {"note": 0, "velocity": 0, "duration": 75}, {"note": 67, "velocity": 99, "duration": 144}, {"note": 0, "velocity": 0, "duration": 96}, {"note": 68, "velocity": 122, "duration": 154}, {"note": 0, "velocity": 0, "duration": 86}, {"note": 65, "velocity": 97, "duration": 142}, {"note": 0, "velocity": 0, "duration": 98}, {"note": 63, "velocity": 107, "duration": 479}, {"note": 0, "velocity": 0, "duration": 481}, {"note": 61, "velocity": 102, "duration": 214}, {"note": 0, "velocity": 0, "duration": 266}, {"note": 68, "velocity": 112, "duration": 350}, {"note": 0, "velocity": 0, "duration": 130}, {"note": 67, "velocity": 122, "duration": 311}, {"note": 65, "velocity": 99, "duration": 244}, {"note": 63, "velocity": 100, "duration": 103}, {"note": 0, "velocity": 0, "duration": 137}, {"note": 58, "velocity": 95, "duration": 216}, {"note": 60, "velocity": 102, "duration": 889}, {"note": 0, "velocity": 0, "duration": 551}, {"note": 65, "velocity": 122, "duration": 209}, {"note": 67, "velocity": 99, "duration": 157}, {"note": 0, "velocity": 0, "duration": 83}, {"note": 68, "velocity": 127, "duration": 353}, {"note": 0, "velocity": 0, "duration": 127}, {"note": 72, "velocity": 127, "duration": 332}, {"note": 0, "velocity": 0, "duration": 148}, {"note": 67, "velocity": 117, "duration": 428}, {"note": 0, "velocity": 0, "duration": 532}, {"note": 65, "velocity": 107, "duration": 181}, {"note": 67, "velocity": 122, "duration": 166}, {"note": 0, "velocity": 0, "duration": 74}, {"note": 68, "velocity": 117, "duration": 141}, {"note": 0, "velocity": 0, "duration": 99}, {"note": 70, "velocity": 127, "duration": 164}, {"note": 0, "velocity": 0, "duration": 76}, {"note": 72, "velocity": 127, "duration": 449}, {"note": 0, "velocity": 0, "duration": 511}, {"note": 70, "velocity": 127, "duration": 416}, {"note": 0, "velocity": 0, "duration": 64}, {"note": 65, "velocity": 100, "duration": 351}, {"note": 0, "velocity": 0, "duration": 129}, {"note": 67, "velocity": 107, "duration": 435}, {"note": 0, "velocity": 0, "duration": 285}, {"note": 63, "velocity": 112, "duration": 222}, {"note": 65, "velocity": 112, "duration": 960}, {"note": 0, "velocity": 0, "duration": 480}, {"note": 65, "velocity": 107, "duration": 150}, {"note": 0, "velocity": 0, "duration": 90}, {"note": 67, "velocity": 107, "duration": 139}, {"note": 0, "velocity": 0, "duration": 101}, {"note": 68, "velocity": 127, "duration": 282}, {"note": 0, "velocity": 0, "duration": 198}, {"note": 72, "velocity": 107, "duration": 352}, {"note": 0, "velocity": 0, "duration": 128}, {"note": 67, "velocity": 112, "duration": 355}, {"note": 0, "velocity": 0, "duration": 605}, {"note": 65, "velocity": 102, "duration": 165}, {"note": 0, "velocity": 0, "duration": 75}, {"note": 67, "velocity": 99, "duration": 144}, {"note": 0, "velocity": 0, "duration": 96}, {"note": 68, "velocity": 122, "duration": 154}, {"note": 0, "velocity": 0, "duration": 86}, {"note": 65, "velocity": 97, "duration": 142}, {"note": 0, "velocity": 0, "duration": 98}, {"note": 63, "velocity": 107, "duration": 479}, {"note": 0, "velocity": 0, "duration": 481}, {"note": 61, "velocity": 102, "duration": 214}, {"note": 0, "velocity": 0, "duration": 266}, {"note": 68, "velocity": 112, "duration": 350}, {"note": 0, "velocity": 0, "duration": 130}, {"note": 67, "velocity": 122, "duration": 311}, {"note": 65, "velocity": 99, "duration": 244}, {"note": 63, "velocity": 100, "duration": 103}, {"note": 0, "velocity": 0, "duration": 137}, {"note": 58, "velocity": 95, "duration": 216}, {"note": 60, "velocity": 102, "duration": 889}, {"note": 0, "velocity": 0, "duration": 551}, {"note": 65, "velocity": 122, "duration": 209}, {"note": 67, "velocity": 99, "duration": 157}, {"note": 0, "velocity": 0, "duration": 83}, {"note": 68, "velocity": 127, "duration": 353}, {"note": 0, "velocity": 0, "duration": 127}, {"note": 72, "velocity": 127, "duration": 332}, {"note": 0, "velocity": 0, "duration": 148}, {"note": 67, "velocity": 117, "duration": 428}, {"note": 0, "velocity": 0, "duration": 532}, {"note": 65, "velocity": 107, "duration": 181}, {"note": 67, "velocity": 122, "duration": 166}, {"note": 0, "velocity": 0, "duration": 74}, {"note": 68, "velocity": 117, "duration": 141}, {"note": 0, "velocity": 0, "duration": 99}, {"note": 70, "velocity": 127, "duration": 164}, {"note": 0, "velocity": 0, "duration": 76}, {"note": 72, "velocity": 127, "duration": 449}, {"note": 0, "velocity": 0, "duration": 511}, {"note": 70, "velocity": 127, "duration": 416}, {"note": 0, "velocity": 0, "duration": 64}, {"note": 65, "velocity": 100, "duration": 351}, {"note": 0, "velocity": 0, "duration": 129}, {"note": 67, "velocity": 107, "duration": 435}, {"note": 0, "velocity": 0, "duration": 285}, {"note": 63, "velocity": 112, "duration": 222}, {"note": 65, "velocity": 112, "duration": 960}, {"note": 0, "velocity": 0, "duration": 17760}, {"note": 67, "velocity": 107, "duration": 150}, {"note": 0, "velocity": 0, "duration": 90}, {"note": 69, "velocity": 107, "duration": 139}, {"note": 0, "velocity": 0, "duration": 101}, {"note": 70, "velocity": 127, "duration": 282}, {"note": 0, "velocity": 0, "duration": 198}, {"note": 74, "velocity": 107, "duration": 352}, {"note": 0, "velocity": 0, "duration": 128}, {"note": 69, "velocity": 112, "duration": 355}, {"note": 0, "velocity": 0, "duration": 605}, {"note": 67, "velocity": 102, "duration": 165}, {"note": 0, "velocity": 0, "duration": 75}, {"note": 69, "velocity": 99, "duration": 144}, {"note": 0, "velocity": 0, "duration": 96}, {"note": 70, "velocity": 122, "duration": 154}, {"note": 0, "velocity": 0, "duration": 86}, {"note": 67, "velocity": 97, "duration": 142}, {"note": 0, "velocity": 0, "duration": 98}, {"note": 65, "velocity": 107, "duration": 479}, {"note": 0, "velocity": 0, "duration": 481}, {"note": 63, "velocity": 102, "duration": 214}, {"note": 0, "velocity": 0, "duration": 266}, {"note": 70, "velocity": 112, "duration": 350}, {"note": 0, "velocity": 0, "duration": 130}, {"note": 69, "velocity": 122, "duration": 311}, {"note": 67, "velocity": 99, "duration": 244}, {"note": 65, "velocity": 100, "duration": 103}, {"note": 0, "velocity": 0, "duration": 137}, {"note": 60, "velocity": 95, "duration": 216}, {"note": 62, "velocity": 102, "duration": 889}, {"note": 0, "velocity": 0, "duration": 551}, {"note": 67, "velocity": 122, "duration": 209}, {"note": 69, "velocity": 99, "duration": 157}, {"note": 0, "velocity": 0, "duration": 83}, {"note": 70, "velocity": 127, "duration": 353}, {"note": 0, "velocity": 0, "duration": 127}, {"note": 74, "velocity": 127, "duration": 332}, {"note": 0, "velocity": 0, "duration": 148}, {"note": 69, "velocity": 117, "duration": 428}, {"note": 0, "velocity": 0, "duration": 532}, {"note": 67, "velocity": 107, "duration": 181}, {"note": 69, "velocity": 122, "duration": 166}, {"note": 0, "velocity": 0, "duration": 74}, {"note": 70, "velocity": 117, "duration": 141}, {"note": 0, "velocity": 0, "duration": 99}, {"note": 72, "velocity": 127, "duration": 164}, {"note": 0, "velocity": 0, "duration": 76}, {"note": 74, "velocity": 127, "duration": 449}, {"note": 0, "velocity": 0, "duration": 511}, {"note": 72, "velocity": 127, "duration": 416}, {"note": 0, "velocity": 0, "duration": 64}, {"note": 67, "velocity": 100, "duration": 351}, {"note": 0, "velocity": 0, "duration": 129}, {"note": 69, "velocity": 107, "duration": 435}, {"note": 0, "velocity": 0, "duration": 285}, {"note": 65, "velocity": 112, "duration": 222}, {"note": 67, "velocity": 112, "duration": 960}, {"note": 0, "velocity": 0, "duration": 1080}, {"note": 72, "velocity": 117, "duration": 515}, {"note": 0, "velocity": 0, "duration": 565}, {"note": 67, "velocity": 81, "duration": 252}, {"note": 0, "velocity": 0, "duration": 108}, {"note": 69, "velocity": 102, "duration": 647}, {"note": 0, "velocity": 0, "duration": 1033}, {"note": 65, "velocity": 96, "duration": 991}, {"note": 67, "velocity": 92, "duration": 1785}]]