[[{"note": 65, "velocity": 85, "duration": 250}, {"note": 67, "velocity": 66, "duration": 260}, {"note": 70, "velocity": 95, "duration": 690}, {"note": 72, "velocity": 88, "duration": 178}, {"note": 0, "velocity": 0, "duration": 62}, {"note": 74, "velocity": 96, "duration": 241}, {"note": 0, "velocity": 0, "duration": 239}, {"note": 77, "velocity": 97, "duration": 143}, {"note": 0, "velocity": 0, "duration": 97}, {"note": 77, "velocity": 92, "duration": 120}, {"note": 0, "velocity": 0, "duration": 120}, {"note": 79, "velocity": 102, "duration": 413}, {"note": 0, "velocity": 0, "duration": 307}, {"note": 77, "velocity": 90, "duration": 103}, {"note": 0, "velocity": 0, "duration": 137}, {"note": 74, "velocity": 93, "duration": 223}, {"note": 0, "velocity": 0, "duration": 257}, {"note": 74, "velocity": 88, "duration": 203}, {"note": 72, "velocity": 92, "duration": 221}, {"note": 70, "velocity": 89, "duration": 493}, {"note": 0, "velocity": 0, "duration": 227}, {"note": 70, "velocity": 112, "duration": 98}, {"note": 0, "velocity": 0, "duration": 142}, {"note": 70, "velocity": 100, "duration": 119}, {"note": 0, "velocity": 0, "duration": 121}, {"note": 67, "velocity": 83, "duration": 113}, {"note": 0, "velocity": 0, "duration": 127}, {"note": 67, "velocity": 97, "duration": 174}, {"note": 0, "velocity": 0, "duration": 66}, {"note": 70, "velocity": 93, "duration": 161}, {"note": 0, "velocity": 0, "duration": 79}, {"note": 72, "velocity": 97, "duration": 1187}, {"note": 0, "velocity": 0, "duration": 253}, {"note": 65, "velocity": 90, "duration": 120}, {"note": 0, "velocity": 0, "duration": 120}, {"note": 67, "velocity": 85, "duration": 109}, {"note": 0, "velocity": 0, "duration": 131}, {"note": 70, "velocity": 102, "duration": 344}, {"note": 0, "velocity": 0, "duration": 376}, {"note": 72, "velocity": 102, "duration": 100}, {"note": 0, "velocity": 0, "duration": 140}, {"note": 74, "velocity": 117, "duration": 188}, {"note": 0, "velocity": 0, "duration": 292}, {"note": 77, "velocity": 107, "duration": 104}, {"note": 0, "velocity": 0, "duration": 136}, {"note": 77, "velocity": 92, "duration": 106}, {"note": 0, "velocity": 0, "duration": 134}, {"note": 79, "velocity": 107, "duration": 576}, {"note": 0, "velocity": 0, "duration": 144}, {"note": 77, "velocity": 117, "duration": 152}, {"note": 0, "velocity": 0, "duration": 88}, {"note": 74, "velocity": 102, "duration": 183}, {"note": 0, "velocity": 0, "duration": 297}, {"note": 74, "velocity": 112, "duration": 226}, {"note": 72, "velocity": 96, "duration": 179}, {"note": 0, "velocity": 0, "duration": 61}, {"note": 70, "velocity": 97, "duration": 518}, {"note": 0, "velocity": 0, "duration": 202}, {"note": 70, "velocity": 107, "duration": 106}, {"note": 0, "velocity": 0, "duration": 134}, {"note": 70, "velocity": 112, "duration": 153}, {"note": 0, "velocity": 0, "duration": 87}, {"note": 67, "velocity": 96, "duration": 218}, {"note": 67, "velocity": 82, "duration": 218}, {"note": 65, "velocity": 90, "duration": 200}, {"note": 70, "velocity": 102, "duration": 497}, {"note": 0, "velocity": 0, "duration": 943}, {"note": 70, "velocity": 112, "duration": 141}, {"note": 0, "velocity": 0, "duration": 99}, {"note": 70, "velocity": 100, "duration": 149}, {"note": 0, "velocity": 0, "duration": 91}, {"note": 72, "velocity": 112, "duration": 575}, {"note": 0, "velocity": 0, "duration": 145}, {"note": 70, "velocity": 102, "duration": 227}, {"note": 72, "velocity": 97, "duration": 274}, {"note": 0, "velocity": 0, "duration": 206}, {"note": 74, "velocity": 95, "duration": 178}, {"note": 0, "velocity": 0, "duration": 62}, {"note": 75, "velocity": 100, "duration": 157}, {"note": 0, "velocity": 0, "duration": 83}, {"note": 77, "velocity": 102, "duration": 578}, {"note": 0, "velocity": 0, "duration": 142}, {"note": 79, "velocity": 107, "duration": 194}, {"note": 77, "velocity": 102, "duration": 235}, {"note": 0, "velocity": 0, "duration": 245}, {"note": 74, "velocity": 102, "duration": 184}, {"note": 77, "velocity": 100, "duration": 248}, {"note": 79, "velocity": 97, "duration": 571}, {"note": 0, "velocity": 0, "duration": 149}, {"note": 79, "velocity": 107, "duration": 122}, {"note": 0, "velocity": 0, "duration": 118}, {"note": 79, "velocity": 127, "duration": 146}, {"note": 0, "velocity": 0, "duration": 334}, {"note": 77, "velocity": 112, "duration": 184}, {"note": 74, "velocity": 100, "duration": 151}, {"note": 0, "velocity": 0, "duration": 89}, {"note": 72, "velocity": 102, "duration": 483}, {"note": 0, "velocity": 0, "duration": 237}, {"note": 70, "velocity": 100, "duration": 204}, {"note": 72, "velocity": 112, "duration": 191}, {"note": 0, "velocity": 0, "duration": 289}, {"note": 65, "velocity": 93, "duration": 155}, {"note": 0, "velocity": 0, "duration": 85}, {"note": 67, "velocity": 92, "duration": 196}, {"note": 70, "velocity": 102, "duration": 355}, {"note": 0, "velocity": 0, "duration": 365}, {"note": 72, "velocity": 112, "duration": 107}, {"note": 0, "velocity": 0, "duration": 133}, {"note": 74, "velocity": 112, "duration": 166}, {"note": 0, "velocity": 0, "duration": 314}, {"note": 77, "velocity": 117, "duration": 102}, {"note": 0, "velocity": 0, "duration": 138}, {"note": 77, "velocity": 97, "duration": 133}, {"note": 0, "velocity": 0, "duration": 107}, {"note": 79, "velocity": 127, "duration": 536}, {"note": 0, "velocity": 0, "duration": 184}, {"note": 77, "velocity": 99, "duration": 125}, {"note": 0, "velocity": 0, "duration": 115}, {"note": 74, "velocity": 122, "duration": 158}, {"note": 0, "velocity": 0, "duration": 322}, {"note": 74, "velocity": 117, "duration": 202}, {"note": 72, "velocity": 100, "duration": 181}, {"note": 70, "velocity": 122, "duration": 555}, {"note": 0, "velocity": 0, "duration": 165}, {"note": 70, "velocity": 127, "duration": 115}, {"note": 0, "velocity": 0, "duration": 125}, {"note": 70, "velocity": 127, "duration": 158}, {"note": 0, "velocity": 0, "duration": 82}, {"note": 67, "velocity": 97, "duration": 148}, {"note": 0, "velocity": 0, "duration": 92}, {"note": 67, "velocity": 93, "duration": 192}, {"note": 65, "velocity": 83, "duration": 201}, {"note": 70, "velocity": 122, "duration": 1175}, {"note": 0, "velocity": 0, "duration": 9865}, {"note": 65, "velocity": 85, "duration": 250}, {"note": 67, "velocity": 66, "duration": 260}, {"note": 70, "velocity": 95, "duration": 690}, {"note": 72, "velocity": 88, "duration": 178}, {"note": 0, "velocity": 0, "duration": 62}, {"note": 74, "velocity": 96, "duration": 241}, {"note": 0, "velocity": 0, "duration": 239}, {"note": 77, "velocity": 97, "duration": 143}, {"note": 0, "velocity": 0, "duration": 97}, {"note": 77, "velocity": 92, "duration": 120}, {"note": 0, "velocity": 0, "duration": 120}, {"note": 79, "velocity": 102, "duration": 413}, {"note": 0, "velocity": 0, "duration": 307}, {"note": 77, "velocity": 90, "duration": 103}, {"note": 0, "velocity": 0, "duration": 137}, {"note": 74, "velocity": 93, "duration": 223}, {"note": 0, "velocity": 0, "duration": 257}, {"note": 74, "velocity": 88, "duration": 203}, {"note": 72, "velocity": 92, "duration": 221}, {"note": 70, "velocity": 89, "duration": 493}, {"note": 0, "velocity": 0, "duration": 227}, {"note": 70, "velocity": 112, "duration": 98}, {"note": 0, "velocity": 0, "duration": 142}, {"note": 70, "velocity": 100, "duration": 119}, {"note": 0, "velocity": 0, "duration": 121}, {"note": 67, "velocity": 83, "duration": 113}, {"note": 0, "velocity": 0, "duration": 127}, {"note": 67, "velocity": 97, "duration": 174}, {"note": 0, "velocity": 0, "duration": 66}, {"note": 70, "velocity": 93, "duration": 161}, {"note": 0, "velocity": 0, "duration": 79}, {"note": 72, "velocity": 97, "duration": 1187}, {"note": 0, "velocity": 0, "duration": 253}, {"note": 65, "velocity": 90, "duration": 120}, {"note": 0, "velocity": 0, "duration": 120}, {"note": 67, "velocity": 85, "duration": 109}, {"note": 0, "velocity": 0, "duration": 131}, {"note": 70, "velocity": 102, "duration": 344}, {"note": 0, "velocity": 0, "duration": 376}, {"note": 72, "velocity": 102, "duration": 100}, {"note": 0, "velocity": 0, "duration": 140}, {"note": 74, "velocity": 117, "duration": 188}, {"note": 0, "velocity": 0, "duration": 292}, {"note": 77, "velocity": 107, "duration": 104}, {"note": 0, "velocity": 0, "duration": 136}, {"note": 77, "velocity": 92, "duration": 106}, {"note": 0, "velocity": 0, "duration": 134}, {"note": 79, "velocity": 107, "duration": 576}, {"note": 0, "velocity": 0, "duration": 144}, {"note": 77, "velocity": 117, "duration": 152}, {"note": 0, "velocity": 0, "duration": 88}, {"note": 74, "velocity": 102, "duration": 183}, {"note": 0, "velocity": 0, "duration": 297}, {"note": 74, "velocity": 112, "duration": 226}, {"note": 72, "velocity": 96, "duration": 179}, {"note": 0, "velocity": 0, "duration": 61}, {"note": 70, "velocity": 97, "duration": 518}, {"note": 0, "velocity": 0, "duration": 202}, {"note": 70, "velocity": 107, "duration": 106}, {"note": 0, "velocity": 0, "duration": 134}, {"note": 70, "velocity": 112, "duration": 153}, {"note": 0, "velocity": 0, "duration": 87}, {"note": 67, "velocity": 96, "duration": 218}, {"note": 67, "velocity": 82, "duration": 218}, {"note": 65, "velocity": 90, "duration": 200}, {"note": 70, "velocity": 102, "duration": 497}, {"note": 0, "velocity": 0, "duration": 943}, {"note": 70, "velocity": 112, "duration": 141}, {"note": 0, "velocity": 0, "duration": 99}, {"note": 70, "velocity": 100, "duration": 149}, {"note": 0, "velocity": 0, "duration": 91}, {"note": 72, "velocity": 112, "duration": 575}, {"note": 0, "velocity": 0, "duration": 145}, {"note": 70, "velocity": 102, "duration": 227}, {"note": 72, "velocity": 97, "duration": 274}, {"note": 0, "velocity": 0, "duration": 206}, {"note": 74, "velocity": 95, "duration": 178}, {"note": 0, "velocity": 0, "duration": 62}, {"note": 75, "velocity": 100, "duration": 157}, {"note": 0, "velocity": 0, "duration": 83}, {"note": 77, "velocity": 102, "duration": 578}, {"note": 0, "velocity": 0, "duration": 142}, {"note": 79, "velocity": 107, "duration": 194}, {"note": 77, "velocity": 102, "duration": 235}, {"note": 0, "velocity": 0, "duration": 245}, {"note": 74, "velocity": 102, "duration": 184}, {"note": 77, "velocity": 100, "duration": 248}, {"note": 79, "velocity": 97, "duration": 571}, {"note": 0, "velocity": 0, "duration": 149}, {"note": 79, "velocity": 107, "duration": 122}, {"note": 0, "velocity": 0, "duration": 118}, {"note": 79, "velocity": 127, "duration": 146}, {"note": 0, "velocity": 0, "duration": 334}, {"note": 77, "velocity": 112, "duration": 184}, {"note": 74, "velocity": 100, "duration": 151}, {"note": 0, "velocity": 0, "duration": 89}, {"note": 72, "velocity": 102, "duration": 483}, {"note": 0, "velocity": 0, "duration": 237}, {"note": 70, "velocity": 100, "duration": 204}, {"note": 72, "velocity": 112, "duration": 191}, {"note": 0, "velocity": 0, "duration": 289}, {"note": 65, "velocity": 93, "duration": 155}, {"note": 0, "velocity": 0, "duration": 85}, {"note": 67, "velocity": 92, "duration": 196}, {"note": 70, "velocity": 102, "duration": 355}, {"note": 0, "velocity": 0, "duration": 365}, {"note": 72, "velocity": 112, "duration": 107}, {"note": 0, "velocity": 0, "duration": 133}, {"note": 74, "velocity": 112, "duration": 166}, {"note": 0, "velocity": 0, "duration": 314}, {"note": 77, "velocity": 117, "duration": 102}, {"note": 0, "velocity": 0, "duration": 138}, {"note": 77, "velocity": 97, "duration": 133}, {"note": 0, "velocity": 0, "duration": 107}, {"note": 79, "velocity": 127, "duration": 536}, {"note": 0, "velocity": 0, "duration": 184}, {"note": 77, "velocity": 99, "duration": 125}, {"note": 0, "velocity": 0, "duration": 115}, {"note": 74, "velocity": 122, "duration": 158}, {"note": 0, "velocity": 0, "duration": 322}, {"note": 74, "velocity": 117, "duration": 202}, {"note": 72, "velocity": 100, "duration": 181}, {"note": 70, "velocity": 122, "duration": 555}, {"note": 0, "velocity": 0, "duration": 165}, {"note": 70, "velocity": 127, "duration": 115}, {"note": 0, "velocity": 0, "duration": 125}, {"note": 70, "velocity": 127, "duration": 158}, {"note": 0, "velocity": 0, "duration": 82}, {"note": 67, "velocity": 97, "duration": 148}, {"note": 0, "velocity": 0, "duration": 92}, {"note": 67, "velocity": 93, "duration": 192}, {"note": 65, "velocity": 83, "duration": 201}, {"note": 70, "velocity": 122, "duration": 1175}, {"note": 0, "velocity": 0, "duration": 265}, {"note": 66, "velocity": 85, "duration": 250}, {"note": 68, "velocity": 66, "duration": 260}, {"note": 71, "velocity": 95, "duration": 690}, {"note": 73, "velocity": 88, "duration": 178}, {"note": 0, "velocity": 0, "duration": 62}, {"note": 75, "velocity": 96, "duration": 241}, {"note": 0, "velocity": 0, "duration": 239}, {"note": 78, "velocity": 97, "duration": 143}, {"note": 0, "velocity": 0, "duration": 97}, {"note": 78, "velocity": 92, "duration": 120}, {"note": 0, "velocity": 0, "duration": 120}, {"note": 80, "velocity": 102, "duration": 413}, {"note": 0, "velocity": 0, "duration": 307}, {"note": 78, "velocity": 90, "duration": 103}, {"note": 0, "velocity": 0, "duration": 137}, {"note": 75, "velocity": 93, "duration": 223}, {"note": 0, "velocity": 0, "duration": 257}, {"note": 75, "velocity": 88, "duration": 203}, {"note": 73, "velocity": 92, "duration": 221}, {"note": 71, "velocity": 89, "duration": 493}, {"note": 0, "velocity": 0, "duration": 227}, {"note": 71, "velocity": 112, "duration": 98}, {"note": 0, "velocity": 0, "duration": 142}, {"note": 71, "velocity": 100, "duration": 119}, {"note": 0, "velocity": 0, "duration": 121}, {"note": 68, "velocity": 83, "duration": 113}, {"note": 0, "velocity": 0, "duration": 127}, {"note": 68, "velocity": 97, "duration": 174}, {"note": 0, "velocity": 0, "duration": 66}, {"note": 71, "velocity": 93, "duration": 161}, {"note": 0, "velocity": 0, "duration": 79}, {"note": 73, "velocity": 97, "duration": 1187}, {"note": 0, "velocity": 0, "duration": 253}, {"note": 66, "velocity": 90, "duration": 120}, {"note": 0, "velocity": 0, "duration": 120}, {"note": 68, "velocity": 85, "duration": 109}, {"note": 0, "velocity": 0, "duration": 131}, {"note": 71, "velocity": 102, "duration": 344}, {"note": 0, "velocity": 0, "duration": 376}, {"note": 73, "velocity": 102, "duration": 100}, {"note": 0, "velocity": 0, "duration": 140}, {"note": 75, "velocity": 117, "duration": 188}, {"note": 0, "velocity": 0, "duration": 292}, {"note": 78, "velocity": 107, "duration": 104}, {"note": 0, "velocity": 0, "duration": 136}, {"note": 78, "velocity": 92, "duration": 106}, {"note": 0, "velocity": 0, "duration": 134}, {"note": 80, "velocity": 107, "duration": 576}, {"note": 0, "velocity": 0, "duration": 144}, {"note": 78, "velocity": 117, "duration": 152}, {"note": 0, "velocity": 0, "duration": 88}, {"note": 75, "velocity": 102, "duration": 183}, {"note": 0, "velocity": 0, "duration": 297}, {"note": 75, "velocity": 112, "duration": 226}, {"note": 73, "velocity": 96, "duration": 179}, {"note": 0, "velocity": 0, "duration": 61}, {"note": 71, "velocity": 97, "duration": 518}, {"note": 0, "velocity": 0, "duration": 202}, {"note": 71, "velocity": 107, "duration": 106}, {"note": 0, "velocity": 0, "duration": 134}, {"note": 71, "velocity": 112, "duration": 153}, {"note": 0, "velocity": 0, "duration": 87}, {"note": 68, "velocity": 96, "duration": 218}, {"note": 68, "velocity": 82, "duration": 218}, {"note": 66, "velocity": 90, "duration": 200}, {"note": 71, "velocity": 102, "duration": 497}, {"note": 0, "velocity": 0, "duration": 943}, {"note": 71, "velocity": 112, "duration": 141}, {"note": 0, "velocity": 0, "duration": 99}, {"note": 71, "velocity": 100, "duration": 149}, {"note": 0, "velocity": 0, "duration": 91}, {"note": 73, "velocity": 112, "duration": 575}, {"note": 0, "velocity": 0, "duration": 145}, {"note": 71, "velocity": 102, "duration": 227}, {"note": 73, "velocity": 97, "duration": 274}, {"note": 0, "velocity": 0, "duration": 206}, {"note": 75, "velocity": 95, "duration": 178}, {"note": 0, "velocity": 0, "duration": 62}, {"note": 76, "velocity": 100, "duration": 157}, {"note": 0, "velocity": 0, "duration": 83}, {"note": 78, "velocity": 102, "duration": 578}, {"note": 0, "velocity": 0, "duration": 142}, {"note": 80, "velocity": 107, "duration": 194}, {"note": 78, "velocity": 102, "duration": 235}, {"note": 0, "velocity": 0, "duration": 245}, {"note": 75, "velocity": 102, "duration": 184}, {"note": 78, "velocity": 100, "duration": 248}, {"note": 80, "velocity": 97, "duration": 571}, {"note": 0, "velocity": 0, "duration": 149}, {"note": 80, "velocity": 107, "duration": 122}, {"note": 0, "velocity": 0, "duration": 118}, {"note": 80, "velocity": 127, "duration": 146}, {"note": 0, "velocity": 0, "duration": 334}, {"note": 78, "velocity": 112, "duration": 184}, {"note": 75, "velocity": 100, "duration": 151}, {"note": 0, "velocity": 0, "duration": 89}, {"note": 73, "velocity": 102, "duration": 483}, {"note": 0, "velocity": 0, "duration": 237}, {"note": 71, "velocity": 100, "duration": 204}, {"note": 73, "velocity": 112, "duration": 191}, {"note": 0, "velocity": 0, "duration": 289}, {"note": 66, "velocity": 93, "duration": 155}, {"note": 0, "velocity": 0, "duration": 85}, {"note": 68, "velocity": 92, "duration": 196}, {"note": 71, "velocity": 102, "duration": 355}, {"note": 0, "velocity": 0, "duration": 365}, {"note": 73, "velocity": 112, "duration": 107}, {"note": 0, "velocity": 0, "duration": 133}, {"note": 75, "velocity": 112, "duration": 166}, {"note": 0, "velocity": 0, "duration": 314}, {"note": 78, "velocity": 117, "duration": 102}, {"note": 0, "velocity": 0, "duration": 138}, {"note": 78, "velocity": 97, "duration": 133}, {"note": 0, "velocity": 0, "duration": 107}, {"note": 80, "velocity": 127, "duration": 536}, {"note": 0, "velocity": 0, "duration": 184}, {"note": 78, "velocity": 99, "duration": 125}, {"note": 0, "velocity": 0, "duration": 115}, {"note": 75, "velocity": 122, "duration": 158}, {"note": 0, "velocity": 0, "duration": 322}, {"note": 75, "velocity": 117, "duration": 202}, {"note": 73, "velocity": 100, "duration": 181}, {"note": 71, "velocity": 122, "duration": 555}, {"note": 0, "velocity": 0, "duration": 165}, {"note": 71, "velocity": 127, "duration": 115}, {"note": 0, "velocity": 0, "duration": 125}, {"note": 71, "velocity": 127, "duration": 158}, {"note": 0, "velocity": 0, "duration": 82}, {"note": 68, "velocity": 97, "duration": 148}, {"note": 0, "velocity": 0, "duration": 92}, {"note": 68, "velocity": 93, "duration": 192}, {"note": 66, "velocity": 83, "duration": 201}, {"note": 71, "velocity": 122, "duration": 1175}]]