[[{"note": 62, "velocity": 117, "duration": 288}, {"note": 0, "velocity": 0, "duration": 192}, {"note": 62, "velocity": 112, "duration": 331}, {"note": 0, "velocity": 0, "duration": 149}, {"note": 66, "velocity": 127, "duration": 749}, {"note": 0, "velocity": 0, "duration": 211}, {"note": 62, "velocity": 112, "duration": 165}, {"note": 0, "velocity": 0, "duration": 75}, {"note": 62, "velocity": 100, "duration": 218}, {"note": 0, "velocity": 0, "duration": 262}, {"note": 66, "velocity": 127, "duration": 704}, {"note": 0, "velocity": 0, "duration": 496}, {"note": 71, "velocity": 97, "duration": 243}, {"note": 0, "velocity": 0, "duration": 237}, {"note": 71, "velocity": 127, "duration": 194}, {"note": 0, "velocity": 0, "duration": 286}, {"note": 71, "velocity": 127, "duration": 224}, {"note": 69, "velocity": 100, "duration": 132}, {"note": 0, "velocity": 0, "duration": 108}, {"note": 71, "velocity": 127, "duration": 238}, {"note": 0, "velocity": 0, "duration": 242}, {"note": 69, "velocity": 122, "duration": 198}, {"note": 62, "velocity": 117, "duration": 212}, {"note": 0, "velocity": 0, "duration": 268}, {"note": 66, "velocity": 127, "duration": 765}, {"note": 0, "velocity": 0, "duration": 435}, {"note": 74, "velocity": 127, "duration": 188}, {"note": 71, "velocity": 102, "duration": 102}, {"note": 0, "velocity": 0, "duration": 138}, {"note": 71, "velocity": 112, "duration": 192}, {"note": 69, "velocity": 97, "duration": 141}, {"note": 0, "velocity": 0, "duration": 99}, {"note": 71, "velocity": 127, "duration": 521}, {"note": 0, "velocity": 0, "duration": 439}, {"note": 69, "velocity": 112, "duration": 123}, {"note": 0, "velocity": 0, "duration": 117}, {"note": 62, "velocity": 107, "duration": 155}, {"note": 0, "velocity": 0, "duration": 325}, {"note": 64, "velocity": 117, "duration": 692}, {"note": 0, "velocity": 0, "duration": 508}, {"note": 73, "velocity": 127, "duration": 970}, {"note": 0, "velocity": 0, "duration": 230}, {"note": 69, "velocity": 117, "duration": 147}, {"note": 0, "velocity": 0, "duration": 93}, {"note": 66, "velocity": 102, "duration": 306}, {"note": 0, "velocity": 0, "duration": 174}, {"note": 69, "velocity": 117, "duration": 844}, {"note": 0, "velocity": 0, "duration": 1076}, {"note": 74, "velocity": 127, "duration": 275}, {"note": 0, "velocity": 0, "duration": 205}, {"note": 71, "velocity": 127, "duration": 127}, {"note": 0, "velocity": 0, "duration": 233}, {"note": 71, "velocity": 112, "duration": 154}, {"note": 69, "velocity": 117, "duration": 96}, {"note": 0, "velocity": 0, "duration": 144}, {"note": 69, "velocity": 117, "duration": 103}, {"note": 0, "velocity": 0, "duration": 137}, {"note": 71, "velocity": 127, "duration": 101}, {"note": 0, "velocity": 0, "duration": 139}, {"note": 71, "velocity": 127, "duration": 120}, {"note": 0, "velocity": 0, "duration": 360}, {"note": 69, "velocity": 99, "duration": 325}, {"note": 0, "velocity": 0, "duration": 155}, {"note": 62, "velocity": 100, "duration": 162}, {"note": 0, "velocity": 0, "duration": 78}, {"note": 66, "velocity": 107, "duration": 662}, {"note": 0, "velocity": 0, "duration": 298}, {"note": 74, "velocity": 127, "duration": 297}, {"note": 0, "velocity": 0, "duration": 183}, {"note": 71, "velocity": 117, "duration": 117}, {"note": 0, "velocity": 0, "duration": 243}, {"note": 71, "velocity": 127, "duration": 109}, {"note": 69, "velocity": 97, "duration": 99}, {"note": 0, "velocity": 0, "duration": 141}, {"note": 69, "velocity": 107, "duration": 95}, {"note": 0, "velocity": 0, "duration": 145}, {"note": 71, "velocity": 127, "duration": 100}, {"note": 0, "velocity": 0, "duration": 140}, {"note": 71, "velocity": 122, "duration": 97}, {"note": 0, "velocity": 0, "duration": 383}, {"note": 69, "velocity": 107, "duration": 281}, {"note": 0, "velocity": 0, "duration": 199}, {"note": 62, "velocity": 102, "duration": 150}, {"note": 0, "velocity": 0, "duration": 90}, {"note": 64, "velocity": 112, "duration": 869}, {"note": 0, "velocity": 0, "duration": 91}, {"note": 66, "velocity": 127, "duration": 679}, {"note": 0, "velocity": 0, "duration": 521}, {"note": 62, "velocity": 122, "duration": 160}, {"note": 0, "velocity": 0, "duration": 80}, {"note": 59, "velocity": 100, "duration": 383}, {"note": 0, "velocity": 0, "duration": 97}, {"note": 62, "velocity": 127, "duration": 891}, {"note": 0, "velocity": 0, "duration": 1029}, {"note": 66, "velocity": 122, "duration": 199}, {"note": 69, "velocity": 112, "duration": 254}, {"note": 0, "velocity": 0, "duration": 226}, {"note": 71, "velocity": 127, "duration": 596}, {"note": 0, "velocity": 0, "duration": 604}, {"note": 66, "velocity": 127, "duration": 197}, {"note": 69, "velocity": 107, "duration": 318}, {"note": 0, "velocity": 0, "duration": 162}, {"note": 71, "velocity": 127, "duration": 635}, {"note": 0, "velocity": 0, "duration": 565}, {"note": 74, "velocity": 122, "duration": 891}, {"note": 0, "velocity": 0, "duration": 309}, {"note": 73, "velocity": 127, "duration": 233}, {"note": 69, "velocity": 100, "duration": 406}, {"note": 0, "velocity": 0, "duration": 74}, {"note": 71, "velocity": 127, "duration": 1926}, {"note": 0, "velocity": 0, "duration": 15354}, {"note": 62, "velocity": 117, "duration": 288}, {"note": 0, "velocity": 0, "duration": 192}, {"note": 62, "velocity": 112, "duration": 331}, {"note": 0, "velocity": 0, "duration": 149}, {"note": 66, "velocity": 127, "duration": 749}, {"note": 0, "velocity": 0, "duration": 211}, {"note": 62, "velocity": 112, "duration": 165}, {"note": 0, "velocity": 0, "duration": 75}, {"note": 62, "velocity": 100, "duration": 218}, {"note": 0, "velocity": 0, "duration": 262}, {"note": 66, "velocity": 127, "duration": 704}, {"note": 0, "velocity": 0, "duration": 496}, {"note": 71, "velocity": 97, "duration": 243}, {"note": 0, "velocity": 0, "duration": 237}, {"note": 71, "velocity": 127, "duration": 194}, {"note": 0, "velocity": 0, "duration": 286}, {"note": 71, "velocity": 127, "duration": 224}, {"note": 69, "velocity": 100, "duration": 132}, {"note": 0, "velocity": 0, "duration": 108}, {"note": 71, "velocity": 127, "duration": 238}, {"note": 0, "velocity": 0, "duration": 242}, {"note": 69, "velocity": 122, "duration": 198}, {"note": 62, "velocity": 117, "duration": 212}, {"note": 0, "velocity": 0, "duration": 268}, {"note": 66, "velocity": 127, "duration": 765}, {"note": 0, "velocity": 0, "duration": 435}, {"note": 74, "velocity": 127, "duration": 188}, {"note": 71, "velocity": 102, "duration": 102}, {"note": 0, "velocity": 0, "duration": 138}, {"note": 71, "velocity": 112, "duration": 192}, {"note": 69, "velocity": 97, "duration": 141}, {"note": 0, "velocity": 0, "duration": 99}, {"note": 71, "velocity": 127, "duration": 521}, {"note": 0, "velocity": 0, "duration": 439}, {"note": 69, "velocity": 112, "duration": 123}, {"note": 0, "velocity": 0, "duration": 117}, {"note": 62, "velocity": 107, "duration": 155}, {"note": 0, "velocity": 0, "duration": 325}, {"note": 64, "velocity": 117, "duration": 692}, {"note": 0, "velocity": 0, "duration": 508}, {"note": 73, "velocity": 127, "duration": 970}, {"note": 0, "velocity": 0, "duration": 230}, {"note": 69, "velocity": 117, "duration": 147}, {"note": 0, "velocity": 0, "duration": 93}, {"note": 66, "velocity": 102, "duration": 306}, {"note": 0, "velocity": 0, "duration": 174}, {"note": 69, "velocity": 117, "duration": 844}, {"note": 0, "velocity": 0, "duration": 1076}, {"note": 74, "velocity": 127, "duration": 275}, {"note": 0, "velocity": 0, "duration": 205}, {"note": 71, "velocity": 127, "duration": 127}, {"note": 0, "velocity": 0, "duration": 233}, {"note": 71, "velocity": 112, "duration": 154}, {"note": 69, "velocity": 117, "duration": 96}, {"note": 0, "velocity": 0, "duration": 144}, {"note": 69, "velocity": 117, "duration": 103}, {"note": 0, "velocity": 0, "duration": 137}, {"note": 71, "velocity": 127, "duration": 101}, {"note": 0, "velocity": 0, "duration": 139}, {"note": 71, "velocity": 127, "duration": 120}, {"note": 0, "velocity": 0, "duration": 360}, {"note": 69, "velocity": 99, "duration": 325}, {"note": 0, "velocity": 0, "duration": 155}, {"note": 62, "velocity": 100, "duration": 162}, {"note": 0, "velocity": 0, "duration": 78}, {"note": 66, "velocity": 107, "duration": 662}, {"note": 0, "velocity": 0, "duration": 298}, {"note": 74, "velocity": 127, "duration": 297}, {"note": 0, "velocity": 0, "duration": 183}, {"note": 71, "velocity": 117, "duration": 117}, {"note": 0, "velocity": 0, "duration": 243}, {"note": 71, "velocity": 127, "duration": 109}, {"note": 69, "velocity": 97, "duration": 99}, {"note": 0, "velocity": 0, "duration": 141}, {"note": 69, "velocity": 107, "duration": 95}, {"note": 0, "velocity": 0, "duration": 145}, {"note": 71, "velocity": 127, "duration": 100}, {"note": 0, "velocity": 0, "duration": 140}, {"note": 71, "velocity": 122, "duration": 97}, {"note": 0, "velocity": 0, "duration": 383}, {"note": 69, "velocity": 107, "duration": 281}, {"note": 0, "velocity": 0, "duration": 199}, {"note": 62, "velocity": 102, "duration": 150}, {"note": 0, "velocity": 0, "duration": 90}, {"note": 64, "velocity": 112, "duration": 869}, {"note": 0, "velocity": 0, "duration": 91}, {"note": 66, "velocity": 127, "duration": 679}, {"note": 0, "velocity": 0, "duration": 521}, {"note": 62, "velocity": 122, "duration": 160}, {"note": 0, "velocity": 0, "duration": 80}, {"note": 59, "velocity": 100, "duration": 383}, {"note": 0, "velocity": 0, "duration": 97}, {"note": 62, "velocity": 127, "duration": 891}, {"note": 0, "velocity": 0, "duration": 1029}, {"note": 66, "velocity": 122, "duration": 199}, {"note": 69, "velocity": 112, "duration": 254}, {"note": 0, "velocity": 0, "duration": 226}, {"note": 71, "velocity": 127, "duration": 596}, {"note": 0, "velocity": 0, "duration": 604}, {"note": 66, "velocity": 127, "duration": 197}, {"note": 69, "velocity": 107, "duration": 318}, {"note": 0, "velocity": 0, "duration": 162}, {"note": 71, "velocity": 127, "duration": 635}, {"note": 0, "velocity": 0, "duration": 565}, {"note": 74, "velocity": 122, "duration": 891}, {"note": 0, "velocity": 0, "duration": 309}, {"note": 73, "velocity": 127, "duration": 233}, {"note": 69, "velocity": 100, "duration": 406}, {"note": 0, "velocity": 0, "duration": 74}, {"note": 71, "velocity": 127, "duration": 1926}]]