[[{"note": 64, "velocity": 83, "duration": 214}, {"note": 65, "velocity": 92, "duration": 246}, {"note": 67, "velocity": 86, "duration": 400}, {"note": 0, "velocity": 0, "duration": 80}, {"note": 67, "velocity": 85, "duration": 155}, {"note": 0, "velocity": 0, "duration": 85}, {"note": 67, "velocity": 89, "duration": 115}, {"note": 0, "velocity": 0, "duration": 125}, {"note": 67, "velocity": 112, "duration": 198}, {"note": 0, "velocity": 0, "duration": 282}, {"note": 69, "velocity": 95, "duration": 188}, {"note": 71, "velocity": 97, "duration": 186}, {"note": 72, "velocity": 102, "duration": 326}, {"note": 0, "velocity": 0, "duration": 874}, {"note": 72, "velocity": 122, "duration": 233}, {"note": 71, "velocity": 95, "duration": 185}, {"note": 74, "velocity": 102, "duration": 249}, {"note": 67, "velocity": 86, "duration": 141}, {"note": 69, "velocity": 93, "duration": 278}, {"note": 0, "velocity": 0, "duration": 82}, {"note": 67, "velocity": 97, "duration": 169}, {"note": 0, "velocity": 0, "duration": 71}, {"note": 67, "velocity": 92, "duration": 241}, {"note": 74, "velocity": 112, "duration": 346}, {"note": 0, "velocity": 0, "duration": 134}, {"note": 72, "velocity": 100, "duration": 166}, {"note": 0, "velocity": 0, "duration": 74}, {"note": 76, "velocity": 122, "duration": 254}, {"note": 0, "velocity": 0, "duration": 106}, {"note": 76, "velocity": 117, "duration": 904}, {"note": 0, "velocity": 0, "duration": 176}, {"note": 72, "velocity": 117, "duration": 172}, {"note": 0, "velocity": 0, "duration": 68}, {"note": 74, "velocity": 112, "duration": 182}, {"note": 76, "velocity": 127, "duration": 151}, {"note": 0, "velocity": 0, "duration": 89}, {"note": 76, "velocity": 127, "duration": 331}, {"note": 0, "velocity": 0, "duration": 149}, {"note": 76, "velocity": 112, "duration": 124}, {"note": 0, "velocity": 0, "duration": 116}, {"note": 77, "velocity": 117, "duration": 104}, {"note": 0, "velocity": 0, "duration": 136}, {"note": 76, "velocity": 122, "duration": 292}, {"note": 0, "velocity": 0, "duration": 188}, {"note": 74, "velocity": 97, "duration": 67}, {"note": 0, "velocity": 0, "duration": 173}, {"note": 76, "velocity": 117, "duration": 324}, {"note": 72, "velocity": 100, "duration": 713}, {"note": 0, "velocity": 0, "duration": 367}, {"note": 69, "velocity": 96, "duration": 161}, {"note": 0, "velocity": 0, "duration": 79}, {"note": 71, "velocity": 102, "duration": 149}, {"note": 0, "velocity": 0, "duration": 91}, {"note": 72, "velocity": 107, "duration": 162}, {"note": 0, "velocity": 0, "duration": 78}, {"note": 74, "velocity": 122, "duration": 333}, {"note": 0, "velocity": 0, "duration": 147}, {"note": 72, "velocity": 100, "duration": 165}, {"note": 0, "velocity": 0, "duration": 75}, {"note": 72, "velocity": 93, "duration": 152}, {"note": 0, "velocity": 0, "duration": 88}, {"note": 69, "velocity": 99, "duration": 252}, {"note": 0, "velocity": 0, "duration": 228}, {"note": 76, "velocity": 112, "duration": 123}, {"note": 0, "velocity": 0, "duration": 117}, {"note": 76, "velocity": 112, "duration": 139}, {"note": 0, "velocity": 0, "duration": 101}, {"note": 74, "velocity": 117, "duration": 978}, {"note": 0, "velocity": 0, "duration": 462}, {"note": 64, "velocity": 83, "duration": 214}, {"note": 65, "velocity": 92, "duration": 246}, {"note": 67, "velocity": 86, "duration": 400}, {"note": 0, "velocity": 0, "duration": 80}, {"note": 67, "velocity": 85, "duration": 155}, {"note": 0, "velocity": 0, "duration": 85}, {"note": 67, "velocity": 89, "duration": 115}, {"note": 0, "velocity": 0, "duration": 125}, {"note": 67, "velocity": 112, "duration": 198}, {"note": 0, "velocity": 0, "duration": 282}, {"note": 69, "velocity": 95, "duration": 188}, {"note": 71, "velocity": 97, "duration": 186}, {"note": 67, "velocity": 92, "duration": 39}, {"note": 0, "velocity": 0, "duration": 81}, {"note": 74, "velocity": 112, "duration": 223}, {"note": 72, "velocity": 117, "duration": 590}, {"note": 0, "velocity": 0, "duration": 250}, {"note": 72, "velocity": 122, "duration": 233}, {"note": 71, "velocity": 95, "duration": 185}, {"note": 74, "velocity": 102, "duration": 249}, {"note": 67, "velocity": 86, "duration": 141}, {"note": 69, "velocity": 93, "duration": 278}, {"note": 0, "velocity": 0, "duration": 82}, {"note": 67, "velocity": 97, "duration": 169}, {"note": 0, "velocity": 0, "duration": 71}, {"note": 67, "velocity": 92, "duration": 241}, {"note": 74, "velocity": 112, "duration": 346}, {"note": 0, "velocity": 0, "duration": 134}, {"note": 72, "velocity": 100, "duration": 166}, {"note": 0, "velocity": 0, "duration": 74}, {"note": 76, "velocity": 122, "duration": 254}, {"note": 0, "velocity": 0, "duration": 106}, {"note": 76, "velocity": 117, "duration": 904}, {"note": 0, "velocity": 0, "duration": 176}, {"note": 72, "velocity": 117, "duration": 172}, {"note": 0, "velocity": 0, "duration": 68}, {"note": 74, "velocity": 112, "duration": 182}, {"note": 76, "velocity": 127, "duration": 151}, {"note": 0, "velocity": 0, "duration": 89}, {"note": 76, "velocity": 127, "duration": 331}, {"note": 0, "velocity": 0, "duration": 149}, {"note": 76, "velocity": 112, "duration": 124}, {"note": 0, "velocity": 0, "duration": 116}, {"note": 77, "velocity": 117, "duration": 104}, {"note": 0, "velocity": 0, "duration": 136}, {"note": 76, "velocity": 122, "duration": 292}, {"note": 0, "velocity": 0, "duration": 188}, {"note": 74, "velocity": 97, "duration": 67}, {"note": 0, "velocity": 0, "duration": 173}, {"note": 76, "velocity": 117, "duration": 324}, {"note": 72, "velocity": 100, "duration": 713}, {"note": 0, "velocity": 0, "duration": 367}, {"note": 69, "velocity": 96, "duration": 161}, {"note": 0, "velocity": 0, "duration": 79}, {"note": 71, "velocity": 102, "duration": 149}, {"note": 0, "velocity": 0, "duration": 91}, {"note": 72, "velocity": 107, "duration": 162}, {"note": 0, "velocity": 0, "duration": 78}, {"note": 74, "velocity": 122, "duration": 333}, {"note": 0, "velocity": 0, "duration": 147}, {"note": 72, "velocity": 100, "duration": 165}, {"note": 0, "velocity": 0, "duration": 75}, {"note": 72, "velocity": 93, "duration": 152}, {"note": 0, "velocity": 0, "duration": 88}, {"note": 69, "velocity": 99, "duration": 252}, {"note": 0, "velocity": 0, "duration": 228}, {"note": 76, "velocity": 112, "duration": 123}, {"note": 0, "velocity": 0, "duration": 117}, {"note": 76, "velocity": 112, "duration": 139}, {"note": 0, "velocity": 0, "duration": 101}, {"note": 74, "velocity": 117, "duration": 978}, {"note": 0, "velocity": 0, "duration": 222}, {"note": 64, "velocity": 122, "duration": 182}, {"note": 67, "velocity": 122, "duration": 204}, {"note": 72, "velocity": 127, "duration": 231}, {"note": 76, "velocity": 127, "duration": 180}, {"note": 76, "velocity": 127, "duration": 458}, {"note": 0, "velocity": 0, "duration": 262}, {"note": 77, "velocity": 117, "duration": 113}, {"note": 76, "velocity": 90, "duration": 114}, {"note": 74, "velocity": 112, "duration": 428}, {"note": 0, "velocity": 0, "duration": 532}, {"note": 74, "velocity": 122, "duration": 268}, {"note": 0, "velocity": 0, "duration": 212}, {"note": 79, "velocity": 127, "duration": 157}, {"note": 0, "velocity": 0, "duration": 83}, {"note": 71, "velocity": 117, "duration": 195}, {"note": 72, "velocity": 127, "duration": 364}, {"note": 0, "velocity": 0, "duration": 596}, {"note": 76, "velocity": 127, "duration": 150}, {"note": 0, "velocity": 0, "duration": 90}, {"note": 77, "velocity": 127, "duration": 177}, {"note": 0, "velocity": 0, "duration": 63}, {"note": 79, "velocity": 112, "duration": 164}, {"note": 0, "velocity": 0, "duration": 76}, {"note": 72, "velocity": 102, "duration": 146}, {"note": 0, "velocity": 0, "duration": 94}, {"note": 72, "velocity": 117, "duration": 327}, {"note": 0, "velocity": 0, "duration": 153}, {"note": 74, "velocity": 127, "duration": 135}, {"note": 76, "velocity": 112, "duration": 156}, {"note": 0, "velocity": 0, "duration": 204}, {"note": 76, "velocity": 127, "duration": 836}, {"note": 0, "velocity": 0, "duration": 124}, {"note": 64, "velocity": 117, "duration": 243}, {"note": 67, "velocity": 100, "duration": 222}, {"note": 72, "velocity": 107, "duration": 244}, {"note": 76, "velocity": 112, "duration": 159}, {"note": 0, "velocity": 0, "duration": 81}, {"note": 76, "velocity": 127, "duration": 612}, {"note": 0, "velocity": 0, "duration": 108}, {"note": 77, "velocity": 127, "duration": 115}, {"note": 76, "velocity": 93, "duration": 115}, {"note": 74, "velocity": 122, "duration": 501}, {"note": 0, "velocity": 0, "duration": 459}, {"note": 74, "velocity": 112, "duration": 419}, {"note": 0, "velocity": 0, "duration": 61}, {"note": 79, "velocity": 127, "duration": 233}, {"note": 71, "velocity": 112, "duration": 273}, {"note": 72, "velocity": 122, "duration": 415}, {"note": 0, "velocity": 0, "duration": 545}, {"note": 76, "velocity": 122, "duration": 179}, {"note": 0, "velocity": 0, "duration": 61}, {"note": 77, "velocity": 112, "duration": 208}, {"note": 79, "velocity": 127, "duration": 203}, {"note": 72, "velocity": 112, "duration": 145}, {"note": 0, "velocity": 0, "duration": 95}, {"note": 72, "velocity": 127, "duration": 212}, {"note": 0, "velocity": 0, "duration": 268}, {"note": 74, "velocity": 127, "duration": 476}, {"note": 72, "velocity": 127, "duration": 774}, {"note": 0, "velocity": 0, "duration": 15786}, {"note": 64, "velocity": 83, "duration": 214}, {"note": 65, "velocity": 92, "duration": 246}, {"note": 67, "velocity": 86, "duration": 400}, {"note": 0, "velocity": 0, "duration": 80}, {"note": 67, "velocity": 85, "duration": 155}, {"note": 0, "velocity": 0, "duration": 85}, {"note": 67, "velocity": 89, "duration": 115}, {"note": 0, "velocity": 0, "duration": 125}, {"note": 67, "velocity": 112, "duration": 198}, {"note": 0, "velocity": 0, "duration": 282}, {"note": 69, "velocity": 95, "duration": 188}, {"note": 71, "velocity": 97, "duration": 186}, {"note": 67, "velocity": 92, "duration": 39}, {"note": 0, "velocity": 0, "duration": 81}, {"note": 74, "velocity": 112, "duration": 223}, {"note": 72, "velocity": 117, "duration": 590}, {"note": 0, "velocity": 0, "duration": 250}, {"note": 72, "velocity": 122, "duration": 233}, {"note": 71, "velocity": 95, "duration": 185}, {"note": 74, "velocity": 102, "duration": 249}, {"note": 67, "velocity": 86, "duration": 141}, {"note": 69, "velocity": 93, "duration": 278}, {"note": 0, "velocity": 0, "duration": 82}, {"note": 67, "velocity": 97, "duration": 169}, {"note": 0, "velocity": 0, "duration": 71}, {"note": 67, "velocity": 92, "duration": 241}, {"note": 74, "velocity": 112, "duration": 346}, {"note": 0, "velocity": 0, "duration": 134}, {"note": 72, "velocity": 100, "duration": 166}, {"note": 0, "velocity": 0, "duration": 74}, {"note": 76, "velocity": 122, "duration": 254}, {"note": 0, "velocity": 0, "duration": 106}, {"note": 76, "velocity": 117, "duration": 904}, {"note": 0, "velocity": 0, "duration": 176}, {"note": 72, "velocity": 117, "duration": 172}, {"note": 0, "velocity": 0, "duration": 68}, {"note": 74, "velocity": 112, "duration": 182}, {"note": 76, "velocity": 127, "duration": 151}, {"note": 0, "velocity": 0, "duration": 89}, {"note": 76, "velocity": 127, "duration": 331}, {"note": 0, "velocity": 0, "duration": 149}, {"note": 76, "velocity": 112, "duration": 124}, {"note": 0, "velocity": 0, "duration": 116}, {"note": 77, "velocity": 117, "duration": 104}, {"note": 0, "velocity": 0, "duration": 136}, {"note": 76, "velocity": 122, "duration": 292}, {"note": 0, "velocity": 0, "duration": 188}, {"note": 74, "velocity": 97, "duration": 67}, {"note": 0, "velocity": 0, "duration": 173}, {"note": 76, "velocity": 117, "duration": 324}, {"note": 72, "velocity": 100, "duration": 713}, {"note": 0, "velocity": 0, "duration": 367}, {"note": 69, "velocity": 96, "duration": 161}, {"note": 0, "velocity": 0, "duration": 79}, {"note": 71, "velocity": 102, "duration": 149}, {"note": 0, "velocity": 0, "duration": 91}, {"note": 72, "velocity": 107, "duration": 162}, {"note": 0, "velocity": 0, "duration": 78}, {"note": 74, "velocity": 122, "duration": 333}, {"note": 0, "velocity": 0, "duration": 147}, {"note": 72, "velocity": 100, "duration": 165}, {"note": 0, "velocity": 0, "duration": 75}, {"note": 72, "velocity": 93, "duration": 152}, {"note": 0, "velocity": 0, "duration": 88}, {"note": 69, "velocity": 99, "duration": 252}, {"note": 0, "velocity": 0, "duration": 228}, {"note": 76, "velocity": 112, "duration": 123}, {"note": 0, "velocity": 0, "duration": 117}, {"note": 76, "velocity": 112, "duration": 139}, {"note": 0, "velocity": 0, "duration": 101}, {"note": 74, "velocity": 117, "duration": 978}, {"note": 0, "velocity": 0, "duration": 222}, {"note": 64, "velocity": 122, "duration": 182}, {"note": 67, "velocity": 122, "duration": 204}, {"note": 72, "velocity": 127, "duration": 231}, {"note": 76, "velocity": 127, "duration": 180}, {"note": 76, "velocity": 127, "duration": 458}, {"note": 0, "velocity": 0, "duration": 262}, {"note": 77, "velocity": 117, "duration": 113}, {"note": 76, "velocity": 90, "duration": 114}, {"note": 74, "velocity": 112, "duration": 428}, {"note": 0, "velocity": 0, "duration": 532}, {"note": 74, "velocity": 122, "duration": 268}, {"note": 0, "velocity": 0, "duration": 212}, {"note": 79, "velocity": 127, "duration": 157}, {"note": 0, "velocity": 0, "duration": 83}, {"note": 71, "velocity": 117, "duration": 195}, {"note": 72, "velocity": 127, "duration": 364}, {"note": 0, "velocity": 0, "duration": 596}, {"note": 76, "velocity": 127, "duration": 150}, {"note": 0, "velocity": 0, "duration": 90}, {"note": 77, "velocity": 127, "duration": 177}, {"note": 0, "velocity": 0, "duration": 63}, {"note": 79, "velocity": 112, "duration": 164}, {"note": 0, "velocity": 0, "duration": 76}, {"note": 72, "velocity": 102, "duration": 146}, {"note": 0, "velocity": 0, "duration": 94}, {"note": 72, "velocity": 117, "duration": 327}, {"note": 0, "velocity": 0, "duration": 153}, {"note": 74, "velocity": 127, "duration": 135}, {"note": 76, "velocity": 112, "duration": 156}, {"note": 0, "velocity": 0, "duration": 204}, {"note": 76, "velocity": 127, "duration": 836}, {"note": 0, "velocity": 0, "duration": 124}, {"note": 64, "velocity": 117, "duration": 243}, {"note": 67, "velocity": 100, "duration": 222}, {"note": 72, "velocity": 107, "duration": 244}, {"note": 76, "velocity": 112, "duration": 159}, {"note": 0, "velocity": 0, "duration": 81}, {"note": 76, "velocity": 127, "duration": 612}, {"note": 0, "velocity": 0, "duration": 108}, {"note": 77, "velocity": 127, "duration": 115}, {"note": 76, "velocity": 93, "duration": 115}, {"note": 74, "velocity": 122, "duration": 501}, {"note": 0, "velocity": 0, "duration": 459}, {"note": 74, "velocity": 112, "duration": 419}, {"note": 0, "velocity": 0, "duration": 61}, {"note": 79, "velocity": 127, "duration": 233}, {"note": 71, "velocity": 112, "duration": 273}, {"note": 72, "velocity": 122, "duration": 415}, {"note": 0, "velocity": 0, "duration": 545}, {"note": 76, "velocity": 122, "duration": 179}, {"note": 0, "velocity": 0, "duration": 61}, {"note": 77, "velocity": 112, "duration": 208}, {"note": 79, "velocity": 127, "duration": 203}, {"note": 72, "velocity": 112, "duration": 145}, {"note": 0, "velocity": 0, "duration": 95}, {"note": 72, "velocity": 127, "duration": 212}, {"note": 0, "velocity": 0, "duration": 268}, {"note": 74, "velocity": 127, "duration": 476}, {"note": 72, "velocity": 127, "duration": 774}, {"note": 0, "velocity": 0, "duration": 186}, {"note": 81, "velocity": 127, "duration": 203}, {"note": 79, "velocity": 127, "duration": 157}, {"note": 0, "velocity": 0, "duration": 83}, {"note": 76, "velocity": 127, "duration": 152}, {"note": 0, "velocity": 0, "duration": 88}, {"note": 74, "velocity": 127, "duration": 113}, {"note": 72, "velocity": 102, "duration": 122}, {"note": 76, "velocity": 127, "duration": 553}, {"note": 0, "velocity": 0, "duration": 167}, {"note": 77, "velocity": 117, "duration": 113}, {"note": 76, "velocity": 90, "duration": 114}, {"note": 74, "velocity": 112, "duration": 428}, {"note": 0, "velocity": 0, "duration": 532}, {"note": 81, "velocity": 127, "duration": 195}, {"note": 79, "velocity": 127, "duration": 189}, {"note": 0, "velocity": 0, "duration": 291}, {"note": 71, "velocity": 117, "duration": 195}, {"note": 72, "velocity": 127, "duration": 364}, {"note": 0, "velocity": 0, "duration": 596}, {"note": 76, "velocity": 127, "duration": 150}, {"note": 0, "velocity": 0, "duration": 90}, {"note": 77, "velocity": 127, "duration": 177}, {"note": 0, "velocity": 0, "duration": 63}, {"note": 79, "velocity": 112, "duration": 164}, {"note": 0, "velocity": 0, "duration": 76}, {"note": 72, "velocity": 102, "duration": 146}, {"note": 0, "velocity": 0, "duration": 94}, {"note": 72, "velocity": 117, "duration": 327}, {"note": 0, "velocity": 0, "duration": 153}, {"note": 74, "velocity": 127, "duration": 135}, {"note": 0, "velocity": 0, "duration": 105}, {"note": 76, "velocity": 112, "duration": 86}, {"note": 76, "velocity": 127, "duration": 836}, {"note": 0, "velocity": 0, "duration": 244}, {"note": 64, "velocity": 117, "duration": 243}, {"note": 67, "velocity": 100, "duration": 222}, {"note": 72, "velocity": 107, "duration": 244}, {"note": 76, "velocity": 112, "duration": 159}, {"note": 0, "velocity": 0, "duration": 81}, {"note": 76, "velocity": 127, "duration": 612}, {"note": 0, "velocity": 0, "duration": 108}, {"note": 74, "velocity": 127, "duration": 155}, {"note": 0, "velocity": 0, "duration": 85}, {"note": 74, "velocity": 122, "duration": 501}, {"note": 0, "velocity": 0, "duration": 459}, {"note": 74, "velocity": 112, "duration": 419}, {"note": 0, "velocity": 0, "duration": 61}, {"note": 79, "velocity": 127, "duration": 233}, {"note": 71, "velocity": 112, "duration": 273}, {"note": 74, "velocity": 122, "duration": 242}, {"note": 72, "velocity": 127, "duration": 480}, {"note": 0, "velocity": 0, "duration": 240}, {"note": 76, "velocity": 122, "duration": 179}, {"note": 0, "velocity": 0, "duration": 61}, {"note": 77, "velocity": 112, "duration": 208}, {"note": 79, "velocity": 127, "duration": 203}, {"note": 72, "velocity": 112, "duration": 145}, {"note": 0, "velocity": 0, "duration": 95}, {"note": 72, "velocity": 127, "duration": 212}, {"note": 0, "velocity": 0, "duration": 268}, {"note": 74, "velocity": 127, "duration": 476}, {"note": 72, "velocity": 127, "duration": 774}]]