[[{"note": 58, "velocity": 117, "duration": 197}, {"note": 60, "velocity": 88, "duration": 180}, {"note": 63, "velocity": 107, "duration": 125}, {"note": 0, "velocity": 0, "duration": 115}, {"note": 65, "velocity": 100, "duration": 86}, {"note": 0, "velocity": 0, "duration": 154}, {"note": 67, "velocity": 122, "duration": 231}, {"note": 0, "velocity": 0, "duration": 129}, {"note": 65, "velocity": 117, "duration": 253}, {"note": 0, "velocity": 0, "duration": 107}, {"note": 63, "velocity": 122, "duration": 154}, {"note": 0, "velocity": 0, "duration": 86}, {"note": 60, "velocity": 92, "duration": 1329}, {"note": 0, "velocity": 0, "duration": 591}, {"note": 58, "velocity": 117, "duration": 188}, {"note": 60, "velocity": 102, "duration": 130}, {"note": 0, "velocity": 0, "duration": 110}, {"note": 63, "velocity": 107, "duration": 120}, {"note": 0, "velocity": 0, "duration": 120}, {"note": 65, "velocity": 102, "duration": 133}, {"note": 0, "velocity": 0, "duration": 107}, {"note": 67, "velocity": 127, "duration": 227}, {"note": 0, "velocity": 0, "duration": 133}, {"note": 70, "velocity": 127, "duration": 311}, {"note": 65, "velocity": 127, "duration": 893}, {"note": 0, "velocity": 0, "duration": 1507}, {"note": 65, "velocity": 117, "duration": 290}, {"note": 0, "velocity": 0, "duration": 190}, {"note": 58, "velocity": 117, "duration": 195}, {"note": 65, "velocity": 107, "duration": 105}, {"note": 0, "velocity": 0, "duration": 135}, {"note": 65, "velocity": 112, "duration": 84}, {"note": 0, "velocity": 0, "duration": 156}, {"note": 67, "velocity": 127, "duration": 93}, {"note": 0, "velocity": 0, "duration": 147}, {"note": 65, "velocity": 127, "duration": 100}, {"note": 0, "velocity": 0, "duration": 140}, {"note": 63, "velocity": 127, "duration": 468}, {"note": 0, "velocity": 0, "duration": 1692}, {"note": 65, "velocity": 96, "duration": 95}, {"note": 0, "velocity": 0, "duration": 145}, {"note": 65, "velocity": 96, "duration": 117}, {"note": 0, "velocity": 0, "duration": 123}, {"note": 65, "velocity": 96, "duration": 86}, {"note": 0, "velocity": 0, "duration": 154}, {"note": 58, "velocity": 112, "duration": 119}, {"note": 0, "velocity": 0, "duration": 121}, {"note": 60, "velocity": 96, "duration": 161}, {"note": 0, "velocity": 0, "duration": 79}, {"note": 63, "velocity": 100, "duration": 105}, {"note": 0, "velocity": 0, "duration": 135}, {"note": 60, "velocity": 112, "duration": 1071}, {"note": 0, "velocity": 0, "duration": 1329}, {"note": 68, "velocity": 117, "duration": 299}, {"note": 0, "velocity": 0, "duration": 181}, {"note": 68, "velocity": 122, "duration": 254}, {"note": 67, "velocity": 117, "duration": 193}, {"note": 65, "velocity": 100, "duration": 140}, {"note": 0, "velocity": 0, "duration": 100}, {"note": 63, "velocity": 96, "duration": 92}, {"note": 0, "velocity": 0, "duration": 148}, {"note": 65, "velocity": 122, "duration": 129}, {"note": 0, "velocity": 0, "duration": 111}, {"note": 65, "velocity": 117, "duration": 1028}, {"note": 0, "velocity": 0, "duration": 1132}, {"note": 68, "velocity": 122, "duration": 301}, {"note": 0, "velocity": 0, "duration": 179}, {"note": 72, "velocity": 127, "duration": 253}, {"note": 70, "velocity": 99, "duration": 106}, {"note": 0, "velocity": 0, "duration": 134}, {"note": 68, "velocity": 102, "duration": 95}, {"note": 0, "velocity": 0, "duration": 145}, {"note": 67, "velocity": 112, "duration": 140}, {"note": 0, "velocity": 0, "duration": 100}, {"note": 65, "velocity": 112, "duration": 792}, {"note": 0, "velocity": 0, "duration": 1608}, {"note": 65, "velocity": 127, "duration": 294}, {"note": 0, "velocity": 0, "duration": 186}, {"note": 58, "velocity": 100, "duration": 188}, {"note": 65, "velocity": 117, "duration": 98}, {"note": 0, "velocity": 0, "duration": 142}, {"note": 65, "velocity": 107, "duration": 91}, {"note": 0, "velocity": 0, "duration": 149}, {"note": 67, "velocity": 122, "duration": 81}, {"note": 0, "velocity": 0, "duration": 159}, {"note": 65, "velocity": 117, "duration": 70}, {"note": 0, "velocity": 0, "duration": 170}, {"note": 63, "velocity": 127, "duration": 816}, {"note": 0, "velocity": 0, "duration": 1344}, {"note": 65, "velocity": 127, "duration": 73}, {"note": 0, "velocity": 0, "duration": 167}, {"note": 65, "velocity": 122, "duration": 89}, {"note": 0, "velocity": 0, "duration": 151}, {"note": 65, "velocity": 122, "duration": 89}, {"note": 0, "velocity": 0, "duration": 151}, {"note": 58, "velocity": 127, "duration": 93}, {"note": 0, "velocity": 0, "duration": 147}, {"note": 60, "velocity": 117, "duration": 183}, {"note": 63, "velocity": 102, "duration": 217}, {"note": 60, "velocity": 117, "duration": 1150}, {"note": 0, "velocity": 0, "duration": 1250}, {"note": 70, "velocity": 122, "duration": 94}, {"note": 0, "velocity": 0, "duration": 146}, {"note": 70, "velocity": 117, "duration": 95}, {"note": 0, "velocity": 0, "duration": 145}, {"note": 70, "velocity": 122, "duration": 87}, {"note": 0, "velocity": 0, "duration": 153}, {"note": 70, "velocity": 127, "duration": 78}, {"note": 0, "velocity": 0, "duration": 162}, {"note": 70, "velocity": 112, "duration": 72}, {"note": 0, "velocity": 0, "duration": 168}, {"note": 70, "velocity": 127, "duration": 163}, {"note": 0, "velocity": 0, "duration": 77}, {"note": 72, "velocity": 112, "duration": 100}, {"note": 0, "velocity": 0, "duration": 140}, {"note": 72, "velocity": 127, "duration": 604}, {"note": 0, "velocity": 0, "duration": 1556}, {"note": 72, "velocity": 127, "duration": 97}, {"note": 0, "velocity": 0, "duration": 143}, {"note": 72, "velocity": 112, "duration": 96}, {"note": 0, "velocity": 0, "duration": 144}, {"note": 72, "velocity": 122, "duration": 97}, {"note": 0, "velocity": 0, "duration": 143}, {"note": 75, "velocity": 112, "duration": 153}, {"note": 0, "velocity": 0, "duration": 87}, {"note": 72, "velocity": 117, "duration": 99}, {"note": 0, "velocity": 0, "duration": 141}, {"note": 72, "velocity": 122, "duration": 119}, {"note": 0, "velocity": 0, "duration": 121}, {"note": 70, "velocity": 112, "duration": 618}, {"note": 0, "velocity": 0, "duration": 1782}, {"note": 70, "velocity": 127, "duration": 70}, {"note": 0, "velocity": 0, "duration": 170}, {"note": 70, "velocity": 127, "duration": 69}, {"note": 0, "velocity": 0, "duration": 171}, {"note": 70, "velocity": 122, "duration": 78}, {"note": 0, "velocity": 0, "duration": 162}, {"note": 70, "velocity": 127, "duration": 68}, {"note": 0, "velocity": 0, "duration": 172}, {"note": 72, "velocity": 102, "duration": 144}, {"note": 0, "velocity": 0, "duration": 96}, {"note": 75, "velocity": 127, "duration": 158}, {"note": 0, "velocity": 0, "duration": 82}, {"note": 72, "velocity": 122, "duration": 812}, {"note": 0, "velocity": 0, "duration": 868}, {"note": 70, "velocity": 112, "duration": 207}, {"note": 72, "velocity": 102, "duration": 127}, {"note": 0, "velocity": 0, "duration": 113}, {"note": 79, "velocity": 127, "duration": 809}, {"note": 0, "velocity": 0, "duration": 1111}, {"note": 77, "velocity": 127, "duration": 1737}, {"note": 0, "velocity": 0, "duration": 33063}, {"note": 68, "velocity": 117, "duration": 299}, {"note": 0, "velocity": 0, "duration": 181}, {"note": 68, "velocity": 122, "duration": 254}, {"note": 67, "velocity": 117, "duration": 193}, {"note": 65, "velocity": 100, "duration": 140}, {"note": 0, "velocity": 0, "duration": 100}, {"note": 63, "velocity": 96, "duration": 92}, {"note": 0, "velocity": 0, "duration": 148}, {"note": 65, "velocity": 122, "duration": 129}, {"note": 0, "velocity": 0, "duration": 111}, {"note": 65, "velocity": 117, "duration": 1028}, {"note": 0, "velocity": 0, "duration": 1132}, {"note": 68, "velocity": 122, "duration": 301}, {"note": 0, "velocity": 0, "duration": 179}, {"note": 72, "velocity": 127, "duration": 253}, {"note": 70, "velocity": 99, "duration": 106}, {"note": 0, "velocity": 0, "duration": 134}, {"note": 68, "velocity": 102, "duration": 95}, {"note": 0, "velocity": 0, "duration": 145}, {"note": 67, "velocity": 112, "duration": 140}, {"note": 0, "velocity": 0, "duration": 100}, {"note": 65, "velocity": 112, "duration": 792}, {"note": 0, "velocity": 0, "duration": 1608}, {"note": 65, "velocity": 127, "duration": 294}, {"note": 0, "velocity": 0, "duration": 186}, {"note": 58, "velocity": 100, "duration": 188}, {"note": 65, "velocity": 117, "duration": 98}, {"note": 0, "velocity": 0, "duration": 142}, {"note": 65, "velocity": 107, "duration": 91}, {"note": 0, "velocity": 0, "duration": 149}, {"note": 67, "velocity": 122, "duration": 81}, {"note": 0, "velocity": 0, "duration": 159}, {"note": 65, "velocity": 117, "duration": 70}, {"note": 0, "velocity": 0, "duration": 170}, {"note": 63, "velocity": 127, "duration": 816}, {"note": 0, "velocity": 0, "duration": 1344}, {"note": 65, "velocity": 127, "duration": 73}, {"note": 0, "velocity": 0, "duration": 167}, {"note": 65, "velocity": 122, "duration": 89}, {"note": 0, "velocity": 0, "duration": 151}, {"note": 65, "velocity": 122, "duration": 89}, {"note": 0, "velocity": 0, "duration": 151}, {"note": 58, "velocity": 127, "duration": 93}, {"note": 0, "velocity": 0, "duration": 147}, {"note": 60, "velocity": 117, "duration": 183}, {"note": 63, "velocity": 102, "duration": 217}, {"note": 60, "velocity": 117, "duration": 1150}, {"note": 0, "velocity": 0, "duration": 1250}, {"note": 68, "velocity": 117, "duration": 299}, {"note": 0, "velocity": 0, "duration": 181}, {"note": 68, "velocity": 122, "duration": 254}, {"note": 67, "velocity": 117, "duration": 193}, {"note": 65, "velocity": 100, "duration": 140}, {"note": 0, "velocity": 0, "duration": 100}, {"note": 63, "velocity": 96, "duration": 92}, {"note": 0, "velocity": 0, "duration": 148}, {"note": 65, "velocity": 122, "duration": 129}, {"note": 0, "velocity": 0, "duration": 111}, {"note": 65, "velocity": 117, "duration": 1028}, {"note": 0, "velocity": 0, "duration": 1132}, {"note": 68, "velocity": 122, "duration": 301}, {"note": 0, "velocity": 0, "duration": 179}, {"note": 72, "velocity": 127, "duration": 253}, {"note": 70, "velocity": 99, "duration": 106}, {"note": 0, "velocity": 0, "duration": 134}, {"note": 68, "velocity": 102, "duration": 95}, {"note": 0, "velocity": 0, "duration": 145}, {"note": 67, "velocity": 112, "duration": 140}, {"note": 0, "velocity": 0, "duration": 100}, {"note": 65, "velocity": 112, "duration": 792}, {"note": 0, "velocity": 0, "duration": 1608}, {"note": 65, "velocity": 127, "duration": 294}, {"note": 0, "velocity": 0, "duration": 186}, {"note": 58, "velocity": 100, "duration": 188}, {"note": 65, "velocity": 117, "duration": 98}, {"note": 0, "velocity": 0, "duration": 142}, {"note": 65, "velocity": 107, "duration": 91}, {"note": 0, "velocity": 0, "duration": 149}, {"note": 67, "velocity": 122, "duration": 81}, {"note": 0, "velocity": 0, "duration": 159}, {"note": 65, "velocity": 117, "duration": 70}, {"note": 0, "velocity": 0, "duration": 170}, {"note": 63, "velocity": 127, "duration": 816}, {"note": 0, "velocity": 0, "duration": 1344}, {"note": 65, "velocity": 127, "duration": 73}, {"note": 0, "velocity": 0, "duration": 167}, {"note": 65, "velocity": 122, "duration": 89}, {"note": 0, "velocity": 0, "duration": 151}, {"note": 65, "velocity": 122, "duration": 89}, {"note": 0, "velocity": 0, "duration": 151}, {"note": 58, "velocity": 127, "duration": 93}, {"note": 0, "velocity": 0, "duration": 147}, {"note": 60, "velocity": 117, "duration": 183}, {"note": 63, "velocity": 102, "duration": 217}, {"note": 60, "velocity": 117, "duration": 1150}, {"note": 0, "velocity": 0, "duration": 1250}, {"note": 70, "velocity": 122, "duration": 94}, {"note": 0, "velocity": 0, "duration": 146}, {"note": 70, "velocity": 117, "duration": 95}, {"note": 0, "velocity": 0, "duration": 145}, {"note": 70, "velocity": 122, "duration": 87}, {"note": 0, "velocity": 0, "duration": 153}, {"note": 70, "velocity": 127, "duration": 78}, {"note": 0, "velocity": 0, "duration": 162}, {"note": 70, "velocity": 112, "duration": 72}, {"note": 0, "velocity": 0, "duration": 168}, {"note": 70, "velocity": 127, "duration": 163}, {"note": 0, "velocity": 0, "duration": 77}, {"note": 72, "velocity": 112, "duration": 100}, {"note": 0, "velocity": 0, "duration": 140}, {"note": 72, "velocity": 127, "duration": 604}, {"note": 0, "velocity": 0, "duration": 1556}, {"note": 72, "velocity": 127, "duration": 97}, {"note": 0, "velocity": 0, "duration": 143}, {"note": 72, "velocity": 112, "duration": 96}, {"note": 0, "velocity": 0, "duration": 144}, {"note": 72, "velocity": 122, "duration": 97}, {"note": 0, "velocity": 0, "duration": 143}, {"note": 75, "velocity": 112, "duration": 153}, {"note": 0, "velocity": 0, "duration": 87}, {"note": 72, "velocity": 117, "duration": 99}, {"note": 0, "velocity": 0, "duration": 141}, {"note": 72, "velocity": 122, "duration": 119}, {"note": 0, "velocity": 0, "duration": 121}, {"note": 70, "velocity": 112, "duration": 618}, {"note": 0, "velocity": 0, "duration": 1782}, {"note": 70, "velocity": 127, "duration": 70}, {"note": 0, "velocity": 0, "duration": 170}, {"note": 70, "velocity": 127, "duration": 69}, {"note": 0, "velocity": 0, "duration": 171}, {"note": 70, "velocity": 122, "duration": 78}, {"note": 0, "velocity": 0, "duration": 162}, {"note": 70, "velocity": 127, "duration": 68}, {"note": 0, "velocity": 0, "duration": 172}, {"note": 72, "velocity": 102, "duration": 144}, {"note": 0, "velocity": 0, "duration": 96}, {"note": 75, "velocity": 127, "duration": 158}, {"note": 0, "velocity": 0, "duration": 82}, {"note": 72, "velocity": 122, "duration": 812}, {"note": 0, "velocity": 0, "duration": 868}, {"note": 70, "velocity": 112, "duration": 207}, {"note": 72, "velocity": 102, "duration": 127}, {"note": 0, "velocity": 0, "duration": 113}, {"note": 79, "velocity": 127, "duration": 809}, {"note": 0, "velocity": 0, "duration": 1111}, {"note": 77, "velocity": 127, "duration": 1737}, {"note": 0, "velocity": 0, "duration": 16743}, {"note": 68, "velocity": 122, "duration": 95}, {"note": 0, "velocity": 0, "duration": 145}, {"note": 68, "velocity": 117, "duration": 103}, {"note": 0, "velocity": 0, "duration": 137}, {"note": 68, "velocity": 112, "duration": 123}, {"note": 0, "velocity": 0, "duration": 117}, {"note": 67, "velocity": 122, "duration": 128}, {"note": 0, "velocity": 0, "duration": 112}, {"note": 65, "velocity": 97, "duration": 117}, {"note": 0, "velocity": 0, "duration": 123}, {"note": 63, "velocity": 102, "duration": 149}, {"note": 0, "velocity": 0, "duration": 91}, {"note": 67, "velocity": 127, "duration": 180}, {"note": 65, "velocity": 117, "duration": 1984}, {"note": 0, "velocity": 0, "duration": 176}, {"note": 68, "velocity": 117, "duration": 117}, {"note": 0, "velocity": 0, "duration": 123}, {"note": 68, "velocity": 107, "duration": 117}, {"note": 0, "velocity": 0, "duration": 123}, {"note": 72, "velocity": 127, "duration": 130}, {"note": 0, "velocity": 0, "duration": 110}, {"note": 70, "velocity": 122, "duration": 173}, {"note": 0, "velocity": 0, "duration": 67}, {"note": 68, "velocity": 122, "duration": 196}, {"note": 67, "velocity": 112, "duration": 220}, {"note": 65, "velocity": 102, "duration": 1112}, {"note": 0, "velocity": 0, "duration": 1288}, {"note": 65, "velocity": 102, "duration": 146}, {"note": 0, "velocity": 0, "duration": 94}, {"note": 65, "velocity": 100, "duration": 167}, {"note": 0, "velocity": 0, "duration": 73}, {"note": 58, "velocity": 97, "duration": 169}, {"note": 0, "velocity": 0, "duration": 71}, {"note": 65, "velocity": 112, "duration": 152}, {"note": 0, "velocity": 0, "duration": 88}, {"note": 65, "velocity": 107, "duration": 127}, {"note": 0, "velocity": 0, "duration": 113}, {"note": 67, "velocity": 117, "duration": 146}, {"note": 0, "velocity": 0, "duration": 94}, {"note": 65, "velocity": 127, "duration": 145}, {"note": 0, "velocity": 0, "duration": 95}, {"note": 63, "velocity": 122, "duration": 1300}, {"note": 0, "velocity": 0, "duration": 860}, {"note": 65, "velocity": 112, "duration": 115}, {"note": 0, "velocity": 0, "duration": 125}, {"note": 65, "velocity": 99, "duration": 101}, {"note": 0, "velocity": 0, "duration": 139}, {"note": 65, "velocity": 122, "duration": 95}, {"note": 0, "velocity": 0, "duration": 145}, {"note": 58, "velocity": 117, "duration": 150}, {"note": 0, "velocity": 0, "duration": 90}, {"note": 60, "velocity": 100, "duration": 170}, {"note": 0, "velocity": 0, "duration": 70}, {"note": 63, "velocity": 112, "duration": 128}, {"note": 0, "velocity": 0, "duration": 112}, {"note": 60, "velocity": 102, "duration": 1002}, {"note": 0, "velocity": 0, "duration": 1398}, {"note": 68, "velocity": 107, "duration": 109}, {"note": 0, "velocity": 0, "duration": 131}, {"note": 68, "velocity": 102, "duration": 104}, {"note": 0, "velocity": 0, "duration": 136}, {"note": 68, "velocity": 107, "duration": 125}, {"note": 0, "velocity": 0, "duration": 115}, {"note": 67, "velocity": 117, "duration": 140}, {"note": 0, "velocity": 0, "duration": 100}, {"note": 65, "velocity": 107, "duration": 111}, {"note": 0, "velocity": 0, "duration": 129}, {"note": 63, "velocity": 100, "duration": 143}, {"note": 0, "velocity": 0, "duration": 97}, {"note": 67, "velocity": 127, "duration": 122}, {"note": 0, "velocity": 0, "duration": 118}, {"note": 65, "velocity": 112, "duration": 1746}, {"note": 0, "velocity": 0, "duration": 414}, {"note": 68, "velocity": 117, "duration": 137}, {"note": 0, "velocity": 0, "duration": 103}, {"note": 68, "velocity": 107, "duration": 119}, {"note": 0, "velocity": 0, "duration": 121}, {"note": 72, "velocity": 127, "duration": 202}, {"note": 70, "velocity": 112, "duration": 157}, {"note": 0, "velocity": 0, "duration": 83}, {"note": 68, "velocity": 112, "duration": 138}, {"note": 0, "velocity": 0, "duration": 102}, {"note": 67, "velocity": 112, "duration": 156}, {"note": 0, "velocity": 0, "duration": 84}, {"note": 65, "velocity": 122, "duration": 1857}, {"note": 0, "velocity": 0, "duration": 543}, {"note": 65, "velocity": 127, "duration": 110}, {"note": 0, "velocity": 0, "duration": 130}, {"note": 65, "velocity": 107, "duration": 110}, {"note": 0, "velocity": 0, "duration": 130}, {"note": 58, "velocity": 107, "duration": 167}, {"note": 0, "velocity": 0, "duration": 73}, {"note": 65, "velocity": 107, "duration": 126}, {"note": 0, "velocity": 0, "duration": 114}, {"note": 65, "velocity": 112, "duration": 110}, {"note": 0, "velocity": 0, "duration": 130}, {"note": 67, "velocity": 122, "duration": 142}, {"note": 0, "velocity": 0, "duration": 98}, {"note": 65, "velocity": 102, "duration": 119}, {"note": 0, "velocity": 0, "duration": 121}, {"note": 63, "velocity": 112, "duration": 1340}, {"note": 0, "velocity": 0, "duration": 820}, {"note": 65, "velocity": 102, "duration": 126}, {"note": 0, "velocity": 0, "duration": 114}, {"note": 65, "velocity": 102, "duration": 107}, {"note": 0, "velocity": 0, "duration": 133}, {"note": 65, "velocity": 107, "duration": 105}, {"note": 0, "velocity": 0, "duration": 135}, {"note": 58, "velocity": 112, "duration": 155}, {"note": 0, "velocity": 0, "duration": 85}, {"note": 60, "velocity": 107, "duration": 174}, {"note": 0, "velocity": 0, "duration": 66}, {"note": 63, "velocity": 122, "duration": 211}, {"note": 60, "velocity": 100, "duration": 978}, {"note": 0, "velocity": 0, "duration": 1422}, {"note": 68, "velocity": 117, "duration": 144}, {"note": 0, "velocity": 0, "duration": 96}, {"note": 68, "velocity": 122, "duration": 130}, {"note": 0, "velocity": 0, "duration": 110}, {"note": 68, "velocity": 112, "duration": 130}, {"note": 0, "velocity": 0, "duration": 110}, {"note": 67, "velocity": 122, "duration": 173}, {"note": 0, "velocity": 0, "duration": 67}, {"note": 65, "velocity": 117, "duration": 148}, {"note": 0, "velocity": 0, "duration": 92}, {"note": 63, "velocity": 102, "duration": 204}, {"note": 67, "velocity": 127, "duration": 230}, {"note": 65, "velocity": 122, "duration": 1426}, {"note": 0, "velocity": 0, "duration": 734}, {"note": 68, "velocity": 127, "duration": 131}, {"note": 0, "velocity": 0, "duration": 109}, {"note": 68, "velocity": 122, "duration": 112}, {"note": 0, "velocity": 0, "duration": 128}, {"note": 72, "velocity": 127, "duration": 189}, {"note": 70, "velocity": 117, "duration": 131}, {"note": 0, "velocity": 0, "duration": 109}, {"note": 68, "velocity": 127, "duration": 165}, {"note": 0, "velocity": 0, "duration": 75}, {"note": 67, "velocity": 127, "duration": 179}, {"note": 0, "velocity": 0, "duration": 61}, {"note": 65, "velocity": 112, "duration": 1192}, {"note": 0, "velocity": 0, "duration": 1208}, {"note": 65, "velocity": 107, "duration": 118}, {"note": 0, "velocity": 0, "duration": 122}, {"note": 65, "velocity": 102, "duration": 100}, {"note": 0, "velocity": 0, "duration": 140}, {"note": 58, "velocity": 127, "duration": 155}, {"note": 0, "velocity": 0, "duration": 85}, {"note": 65, "velocity": 112, "duration": 144}, {"note": 0, "velocity": 0, "duration": 96}, {"note": 65, "velocity": 112, "duration": 114}, {"note": 0, "velocity": 0, "duration": 126}, {"note": 67, "velocity": 127, "duration": 125}, {"note": 0, "velocity": 0, "duration": 115}, {"note": 65, "velocity": 127, "duration": 129}, {"note": 0, "velocity": 0, "duration": 111}, {"note": 63, "velocity": 122, "duration": 1014}, {"note": 0, "velocity": 0, "duration": 1146}, {"note": 65, "velocity": 107, "duration": 160}, {"note": 0, "velocity": 0, "duration": 80}, {"note": 65, "velocity": 107, "duration": 105}, {"note": 0, "velocity": 0, "duration": 135}, {"note": 65, "velocity": 112, "duration": 103}, {"note": 0, "velocity": 0, "duration": 137}, {"note": 58, "velocity": 102, "duration": 180}, {"note": 60, "velocity": 107, "duration": 175}, {"note": 0, "velocity": 0, "duration": 65}, {"note": 63, "velocity": 107, "duration": 151}, {"note": 0, "velocity": 0, "duration": 89}, {"note": 60, "velocity": 100, "duration": 1261}]]