[[{"note": 59, "velocity": 93, "duration": 303}, {"note": 62, "velocity": 66, "duration": 71}, {"note": 62, "velocity": 85, "duration": 163}, {"note": 0, "velocity": 0, "duration": 77}, {"note": 64, "velocity": 85, "duration": 191}, {"note": 62, "velocity": 83, "duration": 281}, {"note": 0, "velocity": 0, "duration": 439}, {"note": 55, "velocity": 72, "duration": 146}, {"note": 57, "velocity": 61, "duration": 114}, {"note": 59, "velocity": 78, "duration": 252}, {"note": 0, "velocity": 0, "duration": 108}, {"note": 64, "velocity": 92, "duration": 121}, {"note": 62, "velocity": 81, "duration": 228}, {"note": 59, "velocity": 90, "duration": 217}, {"note": 57, "velocity": 88, "duration": 585}, {"note": 0, "velocity": 0, "duration": 375}, {"note": 55, "velocity": 86, "duration": 311}, {"note": 55, "velocity": 41, "duration": 66}, {"note": 55, "velocity": 85, "duration": 143}, {"note": 0, "velocity": 0, "duration": 97}, {"note": 67, "velocity": 90, "duration": 224}, {"note": 66, "velocity": 96, "duration": 242}, {"note": 64, "velocity": 82, "duration": 232}, {"note": 62, "velocity": 83, "duration": 305}, {"note": 0, "velocity": 0, "duration": 175}, {"note": 64, "velocity": 93, "duration": 180}, {"note": 0, "velocity": 0, "duration": 180}, {"note": 52, "velocity": 89, "duration": 194}, {"note": 55, "velocity": 99, "duration": 170}, {"note": 0, "velocity": 0, "duration": 70}, {"note": 59, "velocity": 99, "duration": 251}, {"note": 57, "velocity": 97, "duration": 666}, {"note": 0, "velocity": 0, "duration": 294}, {"note": 59, "velocity": 90, "duration": 137}, {"note": 0, "velocity": 0, "duration": 103}, {"note": 62, "velocity": 88, "duration": 191}, {"note": 0, "velocity": 0, "duration": 289}, {"note": 55, "velocity": 92, "duration": 112}, {"note": 57, "velocity": 74, "duration": 120}, {"note": 55, "velocity": 71, "duration": 218}, {"note": 52, "velocity": 83, "duration": 370}, {"note": 0, "velocity": 0, "duration": 350}, {"note": 52, "velocity": 65, "duration": 160}, {"note": 0, "velocity": 0, "duration": 80}, {"note": 64, "velocity": 93, "duration": 124}, {"note": 62, "velocity": 63, "duration": 122}, {"note": 59, "velocity": 79, "duration": 155}, {"note": 62, "velocity": 82, "duration": 214}, {"note": 55, "velocity": 76, "duration": 152}, {"note": 59, "velocity": 72, "duration": 154}, {"note": 57, "velocity": 72, "duration": 616}, {"note": 0, "velocity": 0, "duration": 224}, {"note": 57, "velocity": 77, "duration": 264}, {"note": 0, "velocity": 0, "duration": 96}, {"note": 59, "velocity": 86, "duration": 102}, {"note": 62, "velocity": 89, "duration": 209}, {"note": 64, "velocity": 96, "duration": 124}, {"note": 0, "velocity": 0, "duration": 116}, {"note": 59, "velocity": 83, "duration": 116}, {"note": 62, "velocity": 95, "duration": 148}, {"note": 0, "velocity": 0, "duration": 92}, {"note": 59, "velocity": 79, "duration": 125}, {"note": 55, "velocity": 82, "duration": 312}, {"note": 0, "velocity": 0, "duration": 168}, {"note": 52, "velocity": 89, "duration": 186}, {"note": 62, "velocity": 107, "duration": 113}, {"note": 59, "velocity": 89, "duration": 119}, {"note": 57, "velocity": 65, "duration": 86}, {"note": 59, "velocity": 90, "duration": 150}, {"note": 0, "velocity": 0, "duration": 90}, {"note": 52, "velocity": 85, "duration": 126}, {"note": 55, "velocity": 69, "duration": 776}, {"note": 0, "velocity": 0, "duration": 904}, {"note": 62, "velocity": 95, "duration": 158}, {"note": 64, "velocity": 89, "duration": 106}, {"note": 71, "velocity": 90, "duration": 232}, {"note": 71, "velocity": 100, "duration": 56}, {"note": 0, "velocity": 0, "duration": 64}, {"note": 71, "velocity": 93, "duration": 77}, {"note": 69, "velocity": 96, "duration": 116}, {"note": 0, "velocity": 0, "duration": 244}, {"note": 71, "velocity": 96, "duration": 55}, {"note": 0, "velocity": 0, "duration": 65}, {"note": 59, "velocity": 95, "duration": 254}, {"note": 62, "velocity": 90, "duration": 289}, {"note": 0, "velocity": 0, "duration": 191}, {"note": 62, "velocity": 99, "duration": 105}, {"note": 64, "velocity": 95, "duration": 117}, {"note": 67, "velocity": 95, "duration": 178}, {"note": 0, "velocity": 0, "duration": 62}, {"note": 67, "velocity": 112, "duration": 62}, {"note": 69, "velocity": 88, "duration": 74}, {"note": 67, "velocity": 107, "duration": 149}, {"note": 0, "velocity": 0, "duration": 211}, {"note": 64, "velocity": 99, "duration": 92}, {"note": 62, "velocity": 97, "duration": 214}, {"note": 59, "velocity": 85, "duration": 299}, {"note": 0, "velocity": 0, "duration": 181}, {"note": 62, "velocity": 93, "duration": 53}, {"note": 0, "velocity": 0, "duration": 67}, {"note": 62, "velocity": 81, "duration": 75}, {"note": 64, "velocity": 102, "duration": 227}, {"note": 67, "velocity": 95, "duration": 171}, {"note": 0, "velocity": 0, "duration": 69}, {"note": 67, "velocity": 107, "duration": 130}, {"note": 67, "velocity": 102, "duration": 10}, {"note": 0, "velocity": 0, "duration": 110}, {"note": 67, "velocity": 95, "duration": 48}, {"note": 0, "velocity": 0, "duration": 72}, {"note": 64, "velocity": 102, "duration": 59}, {"note": 0, "velocity": 0, "duration": 61}, {"note": 62, "velocity": 97, "duration": 193}, {"note": 71, "velocity": 127, "duration": 377}, {"note": 0, "velocity": 0, "duration": 343}, {"note": 69, "velocity": 122, "duration": 48}, {"note": 0, "velocity": 0, "duration": 72}, {"note": 69, "velocity": 89, "duration": 49}, {"note": 0, "velocity": 0, "duration": 71}, {"note": 69, "velocity": 100, "duration": 51}, {"note": 0, "velocity": 0, "duration": 69}, {"note": 71, "velocity": 99, "duration": 54}, {"note": 0, "velocity": 0, "duration": 66}, {"note": 69, "velocity": 112, "duration": 54}, {"note": 0, "velocity": 0, "duration": 66}, {"note": 67, "velocity": 107, "duration": 131}, {"note": 0, "velocity": 0, "duration": 109}, {"note": 71, "velocity": 102, "duration": 53}, {"note": 0, "velocity": 0, "duration": 67}, {"note": 71, "velocity": 122, "duration": 245}, {"note": 69, "velocity": 112, "duration": 413}, {"note": 0, "velocity": 0, "duration": 67}, {"note": 62, "velocity": 99, "duration": 115}, {"note": 64, "velocity": 90, "duration": 76}, {"note": 71, "velocity": 102, "duration": 119}, {"note": 0, "velocity": 0, "duration": 121}, {"note": 71, "velocity": 112, "duration": 53}, {"note": 0, "velocity": 0, "duration": 67}, {"note": 71, "velocity": 99, "duration": 69}, {"note": 69, "velocity": 112, "duration": 231}, {"note": 0, "velocity": 0, "duration": 129}, {"note": 71, "velocity": 117, "duration": 46}, {"note": 0, "velocity": 0, "duration": 74}, {"note": 59, "velocity": 93, "duration": 252}, {"note": 62, "velocity": 96, "duration": 318}, {"note": 0, "velocity": 0, "duration": 162}, {"note": 62, "velocity": 96, "duration": 93}, {"note": 64, "velocity": 95, "duration": 90}, {"note": 67, "velocity": 112, "duration": 149}, {"note": 0, "velocity": 0, "duration": 91}, {"note": 67, "velocity": 112, "duration": 64}, {"note": 69, "velocity": 97, "duration": 60}, {"note": 67, "velocity": 117, "duration": 111}, {"note": 0, "velocity": 0, "duration": 249}, {"note": 64, "velocity": 95, "duration": 109}, {"note": 62, "velocity": 96, "duration": 205}, {"note": 59, "velocity": 95, "duration": 298}, {"note": 0, "velocity": 0, "duration": 182}, {"note": 62, "velocity": 95, "duration": 44}, {"note": 0, "velocity": 0, "duration": 76}, {"note": 62, "velocity": 93, "duration": 82}, {"note": 64, "velocity": 100, "duration": 179}, {"note": 0, "velocity": 0, "duration": 61}, {"note": 67, "velocity": 97, "duration": 47}, {"note": 0, "velocity": 0, "duration": 73}, {"note": 67, "velocity": 95, "duration": 42}, {"note": 0, "velocity": 0, "duration": 78}, {"note": 67, "velocity": 127, "duration": 140}, {"note": 0, "velocity": 0, "duration": 220}, {"note": 64, "velocity": 81, "duration": 125}, {"note": 62, "velocity": 102, "duration": 234}, {"note": 71, "velocity": 102, "duration": 368}, {"note": 0, "velocity": 0, "duration": 352}, {"note": 69, "velocity": 122, "duration": 51}, {"note": 0, "velocity": 0, "duration": 69}, {"note": 69, "velocity": 95, "duration": 44}, {"note": 0, "velocity": 0, "duration": 76}, {"note": 69, "velocity": 102, "duration": 57}, {"note": 0, "velocity": 0, "duration": 63}, {"note": 71, "velocity": 117, "duration": 95}, {"note": 69, "velocity": 122, "duration": 116}, {"note": 0, "velocity": 0, "duration": 124}, {"note": 67, "velocity": 112, "duration": 73}, {"note": 64, "velocity": 89, "duration": 81}, {"note": 69, "velocity": 117, "duration": 312}, {"note": 67, "velocity": 112, "duration": 238}, {"note": 0, "velocity": 0, "duration": 25322}, {"note": 59, "velocity": 93, "duration": 303}, {"note": 62, "velocity": 66, "duration": 71}, {"note": 62, "velocity": 85, "duration": 163}, {"note": 0, "velocity": 0, "duration": 77}, {"note": 64, "velocity": 85, "duration": 191}, {"note": 62, "velocity": 83, "duration": 281}, {"note": 0, "velocity": 0, "duration": 439}, {"note": 55, "velocity": 72, "duration": 146}, {"note": 57, "velocity": 61, "duration": 114}, {"note": 59, "velocity": 78, "duration": 252}, {"note": 0, "velocity": 0, "duration": 108}, {"note": 64, "velocity": 92, "duration": 121}, {"note": 62, "velocity": 81, "duration": 228}, {"note": 59, "velocity": 90, "duration": 217}, {"note": 57, "velocity": 88, "duration": 585}, {"note": 0, "velocity": 0, "duration": 375}, {"note": 55, "velocity": 86, "duration": 311}, {"note": 55, "velocity": 41, "duration": 66}, {"note": 55, "velocity": 85, "duration": 143}, {"note": 0, "velocity": 0, "duration": 97}, {"note": 67, "velocity": 90, "duration": 224}, {"note": 66, "velocity": 96, "duration": 242}, {"note": 64, "velocity": 82, "duration": 232}, {"note": 62, "velocity": 83, "duration": 305}, {"note": 0, "velocity": 0, "duration": 175}, {"note": 64, "velocity": 93, "duration": 180}, {"note": 0, "velocity": 0, "duration": 180}, {"note": 52, "velocity": 89, "duration": 194}, {"note": 55, "velocity": 99, "duration": 170}, {"note": 0, "velocity": 0, "duration": 70}, {"note": 59, "velocity": 99, "duration": 251}, {"note": 57, "velocity": 97, "duration": 666}, {"note": 0, "velocity": 0, "duration": 294}, {"note": 59, "velocity": 90, "duration": 137}, {"note": 0, "velocity": 0, "duration": 103}, {"note": 62, "velocity": 88, "duration": 191}, {"note": 0, "velocity": 0, "duration": 289}, {"note": 55, "velocity": 92, "duration": 112}, {"note": 57, "velocity": 74, "duration": 120}, {"note": 55, "velocity": 71, "duration": 218}, {"note": 52, "velocity": 83, "duration": 370}, {"note": 0, "velocity": 0, "duration": 350}, {"note": 52, "velocity": 65, "duration": 160}, {"note": 0, "velocity": 0, "duration": 80}, {"note": 64, "velocity": 93, "duration": 124}, {"note": 62, "velocity": 63, "duration": 122}, {"note": 59, "velocity": 79, "duration": 155}, {"note": 62, "velocity": 82, "duration": 214}, {"note": 55, "velocity": 76, "duration": 152}, {"note": 59, "velocity": 72, "duration": 154}, {"note": 57, "velocity": 72, "duration": 616}, {"note": 0, "velocity": 0, "duration": 224}, {"note": 57, "velocity": 77, "duration": 264}, {"note": 0, "velocity": 0, "duration": 96}, {"note": 59, "velocity": 86, "duration": 102}, {"note": 62, "velocity": 89, "duration": 209}, {"note": 64, "velocity": 96, "duration": 124}, {"note": 0, "velocity": 0, "duration": 116}, {"note": 59, "velocity": 83, "duration": 116}, {"note": 62, "velocity": 95, "duration": 148}, {"note": 0, "velocity": 0, "duration": 92}, {"note": 59, "velocity": 79, "duration": 125}, {"note": 55, "velocity": 82, "duration": 312}, {"note": 0, "velocity": 0, "duration": 168}, {"note": 52, "velocity": 89, "duration": 186}, {"note": 62, "velocity": 107, "duration": 113}, {"note": 59, "velocity": 89, "duration": 119}, {"note": 57, "velocity": 65, "duration": 86}, {"note": 59, "velocity": 90, "duration": 150}, {"note": 0, "velocity": 0, "duration": 90}, {"note": 52, "velocity": 85, "duration": 126}, {"note": 55, "velocity": 69, "duration": 776}, {"note": 0, "velocity": 0, "duration": 904}, {"note": 62, "velocity": 95, "duration": 158}, {"note": 64, "velocity": 89, "duration": 106}, {"note": 71, "velocity": 90, "duration": 232}, {"note": 71, "velocity": 100, "duration": 56}, {"note": 0, "velocity": 0, "duration": 64}, {"note": 71, "velocity": 93, "duration": 77}, {"note": 69, "velocity": 96, "duration": 116}, {"note": 0, "velocity": 0, "duration": 244}, {"note": 71, "velocity": 96, "duration": 55}, {"note": 0, "velocity": 0, "duration": 65}, {"note": 59, "velocity": 95, "duration": 254}, {"note": 62, "velocity": 90, "duration": 289}, {"note": 0, "velocity": 0, "duration": 191}, {"note": 62, "velocity": 99, "duration": 105}, {"note": 64, "velocity": 95, "duration": 117}, {"note": 67, "velocity": 95, "duration": 178}, {"note": 0, "velocity": 0, "duration": 62}, {"note": 67, "velocity": 112, "duration": 62}, {"note": 69, "velocity": 88, "duration": 74}, {"note": 67, "velocity": 107, "duration": 149}, {"note": 0, "velocity": 0, "duration": 211}, {"note": 64, "velocity": 99, "duration": 92}, {"note": 62, "velocity": 97, "duration": 214}, {"note": 59, "velocity": 85, "duration": 299}, {"note": 0, "velocity": 0, "duration": 181}, {"note": 62, "velocity": 93, "duration": 53}, {"note": 0, "velocity": 0, "duration": 67}, {"note": 62, "velocity": 81, "duration": 75}, {"note": 64, "velocity": 102, "duration": 227}, {"note": 67, "velocity": 95, "duration": 171}, {"note": 0, "velocity": 0, "duration": 69}, {"note": 67, "velocity": 107, "duration": 130}, {"note": 67, "velocity": 102, "duration": 10}, {"note": 0, "velocity": 0, "duration": 110}, {"note": 67, "velocity": 95, "duration": 48}, {"note": 0, "velocity": 0, "duration": 72}, {"note": 64, "velocity": 102, "duration": 59}, {"note": 0, "velocity": 0, "duration": 61}, {"note": 62, "velocity": 97, "duration": 193}, {"note": 71, "velocity": 127, "duration": 377}, {"note": 0, "velocity": 0, "duration": 343}, {"note": 69, "velocity": 122, "duration": 48}, {"note": 0, "velocity": 0, "duration": 72}, {"note": 69, "velocity": 89, "duration": 49}, {"note": 0, "velocity": 0, "duration": 71}, {"note": 69, "velocity": 100, "duration": 51}, {"note": 0, "velocity": 0, "duration": 69}, {"note": 71, "velocity": 99, "duration": 54}, {"note": 0, "velocity": 0, "duration": 66}, {"note": 69, "velocity": 112, "duration": 54}, {"note": 0, "velocity": 0, "duration": 66}, {"note": 67, "velocity": 107, "duration": 131}, {"note": 0, "velocity": 0, "duration": 109}, {"note": 71, "velocity": 102, "duration": 53}, {"note": 0, "velocity": 0, "duration": 67}, {"note": 71, "velocity": 122, "duration": 245}, {"note": 69, "velocity": 112, "duration": 413}, {"note": 0, "velocity": 0, "duration": 67}, {"note": 62, "velocity": 99, "duration": 115}, {"note": 64, "velocity": 90, "duration": 76}, {"note": 71, "velocity": 102, "duration": 119}, {"note": 0, "velocity": 0, "duration": 121}, {"note": 71, "velocity": 112, "duration": 53}, {"note": 0, "velocity": 0, "duration": 67}, {"note": 71, "velocity": 99, "duration": 69}, {"note": 69, "velocity": 112, "duration": 231}, {"note": 0, "velocity": 0, "duration": 129}, {"note": 71, "velocity": 117, "duration": 46}, {"note": 0, "velocity": 0, "duration": 74}, {"note": 59, "velocity": 93, "duration": 252}, {"note": 62, "velocity": 96, "duration": 318}, {"note": 0, "velocity": 0, "duration": 162}, {"note": 62, "velocity": 96, "duration": 93}, {"note": 64, "velocity": 95, "duration": 90}, {"note": 67, "velocity": 112, "duration": 149}, {"note": 0, "velocity": 0, "duration": 91}, {"note": 67, "velocity": 112, "duration": 64}, {"note": 69, "velocity": 97, "duration": 60}, {"note": 67, "velocity": 117, "duration": 111}, {"note": 0, "velocity": 0, "duration": 249}, {"note": 64, "velocity": 95, "duration": 109}, {"note": 62, "velocity": 96, "duration": 205}, {"note": 59, "velocity": 95, "duration": 298}, {"note": 0, "velocity": 0, "duration": 182}, {"note": 62, "velocity": 95, "duration": 44}, {"note": 0, "velocity": 0, "duration": 76}, {"note": 62, "velocity": 93, "duration": 82}, {"note": 64, "velocity": 100, "duration": 179}, {"note": 0, "velocity": 0, "duration": 61}, {"note": 67, "velocity": 97, "duration": 47}, {"note": 0, "velocity": 0, "duration": 73}, {"note": 67, "velocity": 95, "duration": 42}, {"note": 0, "velocity": 0, "duration": 78}, {"note": 67, "velocity": 127, "duration": 140}, {"note": 0, "velocity": 0, "duration": 220}, {"note": 64, "velocity": 81, "duration": 125}, {"note": 62, "velocity": 102, "duration": 234}, {"note": 71, "velocity": 102, "duration": 368}, {"note": 0, "velocity": 0, "duration": 352}, {"note": 69, "velocity": 122, "duration": 51}, {"note": 0, "velocity": 0, "duration": 69}, {"note": 69, "velocity": 95, "duration": 44}, {"note": 0, "velocity": 0, "duration": 76}, {"note": 69, "velocity": 102, "duration": 57}, {"note": 0, "velocity": 0, "duration": 63}, {"note": 71, "velocity": 117, "duration": 95}, {"note": 69, "velocity": 122, "duration": 116}, {"note": 0, "velocity": 0, "duration": 124}, {"note": 67, "velocity": 112, "duration": 73}, {"note": 64, "velocity": 89, "duration": 81}, {"note": 69, "velocity": 117, "duration": 312}, {"note": 67, "velocity": 112, "duration": 238}, {"note": 0, "velocity": 0, "duration": 1562}, {"note": 66, "velocity": 122, "duration": 51}, {"note": 0, "velocity": 0, "duration": 69}, {"note": 66, "velocity": 97, "duration": 43}, {"note": 0, "velocity": 0, "duration": 77}, {"note": 66, "velocity": 107, "duration": 162}, {"note": 0, "velocity": 0, "duration": 78}, {"note": 59, "velocity": 117, "duration": 195}, {"note": 69, "velocity": 127, "duration": 218}, {"note": 67, "velocity": 127, "duration": 354}, {"note": 0, "velocity": 0, "duration": 126}, {"note": 66, "velocity": 117, "duration": 113}, {"note": 67, "velocity": 88, "duration": 129}, {"note": 64, "velocity": 99, "duration": 726}, {"note": 0, "velocity": 0, "duration": 834}, {"note": 62, "velocity": 96, "duration": 127}, {"note": 0, "velocity": 0, "duration": 113}, {"note": 62, "velocity": 97, "duration": 81}, {"note": 64, "velocity": 117, "duration": 179}, {"note": 0, "velocity": 0, "duration": 61}, {"note": 67, "velocity": 99, "duration": 51}, {"note": 0, "velocity": 0, "duration": 69}, {"note": 67, "velocity": 117, "duration": 167}, {"note": 0, "velocity": 0, "duration": 193}, {"note": 64, "velocity": 96, "duration": 95}, {"note": 67, "velocity": 96, "duration": 55}, {"note": 0, "velocity": 0, "duration": 65}, {"note": 67, "velocity": 97, "duration": 169}, {"note": 0, "velocity": 0, "duration": 71}, {"note": 64, "velocity": 107, "duration": 157}, {"note": 0, "velocity": 0, "duration": 83}, {"note": 64, "velocity": 99, "duration": 69}, {"note": 67, "velocity": 107, "duration": 249}, {"note": 0, "velocity": 0, "duration": 111}, {"note": 69, "velocity": 122, "duration": 483}, {"note": 74, "velocity": 117, "duration": 657}, {"note": 0, "velocity": 0, "duration": 543}, {"note": 62, "velocity": 97, "duration": 116}, {"note": 64, "velocity": 102, "duration": 130}, {"note": 71, "velocity": 90, "duration": 232}, {"note": 71, "velocity": 100, "duration": 56}, {"note": 0, "velocity": 0, "duration": 64}, {"note": 71, "velocity": 93, "duration": 77}, {"note": 69, "velocity": 96, "duration": 116}, {"note": 0, "velocity": 0, "duration": 244}, {"note": 71, "velocity": 96, "duration": 55}, {"note": 0, "velocity": 0, "duration": 65}, {"note": 59, "velocity": 95, "duration": 254}, {"note": 62, "velocity": 90, "duration": 289}, {"note": 0, "velocity": 0, "duration": 191}, {"note": 62, "velocity": 99, "duration": 105}, {"note": 64, "velocity": 95, "duration": 117}, {"note": 67, "velocity": 95, "duration": 178}, {"note": 0, "velocity": 0, "duration": 62}, {"note": 67, "velocity": 112, "duration": 62}, {"note": 69, "velocity": 88, "duration": 74}, {"note": 67, "velocity": 107, "duration": 149}, {"note": 0, "velocity": 0, "duration": 211}, {"note": 64, "velocity": 99, "duration": 92}, {"note": 62, "velocity": 97, "duration": 214}, {"note": 59, "velocity": 85, "duration": 299}, {"note": 0, "velocity": 0, "duration": 181}, {"note": 62, "velocity": 93, "duration": 53}, {"note": 0, "velocity": 0, "duration": 67}, {"note": 62, "velocity": 81, "duration": 75}, {"note": 64, "velocity": 102, "duration": 227}, {"note": 67, "velocity": 95, "duration": 171}, {"note": 0, "velocity": 0, "duration": 69}, {"note": 67, "velocity": 107, "duration": 130}, {"note": 67, "velocity": 102, "duration": 10}, {"note": 0, "velocity": 0, "duration": 110}, {"note": 67, "velocity": 95, "duration": 48}, {"note": 0, "velocity": 0, "duration": 72}, {"note": 64, "velocity": 102, "duration": 59}, {"note": 0, "velocity": 0, "duration": 61}, {"note": 62, "velocity": 97, "duration": 193}, {"note": 71, "velocity": 127, "duration": 377}, {"note": 0, "velocity": 0, "duration": 343}, {"note": 69, "velocity": 122, "duration": 48}, {"note": 0, "velocity": 0, "duration": 72}, {"note": 69, "velocity": 89, "duration": 49}, {"note": 0, "velocity": 0, "duration": 71}, {"note": 69, "velocity": 100, "duration": 51}, {"note": 0, "velocity": 0, "duration": 69}, {"note": 71, "velocity": 99, "duration": 54}, {"note": 0, "velocity": 0, "duration": 66}, {"note": 69, "velocity": 112, "duration": 54}, {"note": 0, "velocity": 0, "duration": 66}, {"note": 67, "velocity": 107, "duration": 131}, {"note": 0, "velocity": 0, "duration": 109}, {"note": 71, "velocity": 102, "duration": 53}, {"note": 0, "velocity": 0, "duration": 67}, {"note": 71, "velocity": 122, "duration": 245}, {"note": 69, "velocity": 112, "duration": 413}, {"note": 0, "velocity": 0, "duration": 67}, {"note": 62, "velocity": 99, "duration": 115}, {"note": 64, "velocity": 90, "duration": 76}, {"note": 71, "velocity": 102, "duration": 119}, {"note": 0, "velocity": 0, "duration": 121}, {"note": 71, "velocity": 112, "duration": 53}, {"note": 0, "velocity": 0, "duration": 67}, {"note": 71, "velocity": 99, "duration": 69}, {"note": 69, "velocity": 112, "duration": 231}, {"note": 0, "velocity": 0, "duration": 129}, {"note": 71, "velocity": 117, "duration": 46}, {"note": 0, "velocity": 0, "duration": 74}, {"note": 59, "velocity": 93, "duration": 252}, {"note": 62, "velocity": 96, "duration": 318}, {"note": 0, "velocity": 0, "duration": 162}, {"note": 62, "velocity": 96, "duration": 93}, {"note": 64, "velocity": 95, "duration": 90}, {"note": 67, "velocity": 112, "duration": 149}, {"note": 0, "velocity": 0, "duration": 91}, {"note": 67, "velocity": 112, "duration": 64}, {"note": 69, "velocity": 97, "duration": 60}, {"note": 67, "velocity": 117, "duration": 111}, {"note": 0, "velocity": 0, "duration": 249}, {"note": 64, "velocity": 95, "duration": 109}, {"note": 62, "velocity": 96, "duration": 205}, {"note": 59, "velocity": 95, "duration": 298}, {"note": 0, "velocity": 0, "duration": 182}, {"note": 62, "velocity": 95, "duration": 44}, {"note": 0, "velocity": 0, "duration": 76}, {"note": 62, "velocity": 93, "duration": 82}, {"note": 64, "velocity": 100, "duration": 179}, {"note": 0, "velocity": 0, "duration": 61}, {"note": 67, "velocity": 97, "duration": 47}, {"note": 0, "velocity": 0, "duration": 73}, {"note": 67, "velocity": 95, "duration": 42}, {"note": 0, "velocity": 0, "duration": 78}, {"note": 67, "velocity": 127, "duration": 140}, {"note": 0, "velocity": 0, "duration": 220}, {"note": 64, "velocity": 81, "duration": 125}, {"note": 62, "velocity": 102, "duration": 234}, {"note": 71, "velocity": 102, "duration": 368}, {"note": 0, "velocity": 0, "duration": 352}, {"note": 69, "velocity": 122, "duration": 51}, {"note": 0, "velocity": 0, "duration": 69}, {"note": 69, "velocity": 95, "duration": 44}, {"note": 0, "velocity": 0, "duration": 76}, {"note": 69, "velocity": 102, "duration": 57}, {"note": 0, "velocity": 0, "duration": 63}, {"note": 71, "velocity": 117, "duration": 95}, {"note": 69, "velocity": 122, "duration": 116}, {"note": 0, "velocity": 0, "duration": 124}, {"note": 67, "velocity": 112, "duration": 73}, {"note": 64, "velocity": 89, "duration": 81}, {"note": 69, "velocity": 117, "duration": 312}, {"note": 67, "velocity": 112, "duration": 238}, {"note": 0, "velocity": 0, "duration": 1082}, {"note": 62, "velocity": 112, "duration": 60}, {"note": 62, "velocity": 82, "duration": 88}, {"note": 64, "velocity": 122, "duration": 206}, {"note": 67, "velocity": 107, "duration": 61}, {"note": 67, "velocity": 93, "duration": 47}, {"note": 0, "velocity": 0, "duration": 73}, {"note": 67, "velocity": 100, "duration": 271}, {"note": 0, "velocity": 0, "duration": 89}, {"note": 64, "velocity": 93, "duration": 104}, {"note": 62, "velocity": 90, "duration": 235}, {"note": 71, "velocity": 117, "duration": 407}, {"note": 0, "velocity": 0, "duration": 360}, {"note": 69, "velocity": 99, "duration": 113}, {"note": 0, "velocity": 0, "duration": 62}, {"note": 69, "velocity": 96, "duration": 103}, {"note": 0, "velocity": 0, "duration": 86}, {"note": 69, "velocity": 112, "duration": 101}, {"note": 0, "velocity": 0, "duration": 81}, {"note": 71, "velocity": 122, "duration": 311}, {"note": 0, "velocity": 0, "duration": 263}, {"note": 69, "velocity": 107, "duration": 279}, {"note": 67, "velocity": 96, "duration": 230}, {"note": 64, "velocity": 89, "duration": 589}, {"note": 0, "velocity": 0, "duration": 168}, {"note": 69, "velocity": 122, "duration": 424}, {"note": 0, "velocity": 0, "duration": 86}, {"note": 67, "velocity": 122, "duration": 3074}]]