[[{"note": 69, "velocity": 107, "duration": 239}, {"note": 69, "velocity": 100, "duration": 49}, {"note": 0, "velocity": 0, "duration": 71}, {"note": 69, "velocity": 93, "duration": 56}, {"note": 0, "velocity": 0, "duration": 64}, {"note": 70, "velocity": 112, "duration": 164}, {"note": 0, "velocity": 0, "duration": 76}, {"note": 72, "velocity": 102, "duration": 163}, {"note": 0, "velocity": 0, "duration": 77}, {"note": 69, "velocity": 99, "duration": 182}, {"note": 0, "velocity": 0, "duration": 298}, {"note": 67, "velocity": 95, "duration": 168}, {"note": 0, "velocity": 0, "duration": 312}, {"note": 65, "velocity": 96, "duration": 118}, {"note": 0, "velocity": 0, "duration": 122}, {"note": 65, "velocity": 93, "duration": 56}, {"note": 0, "velocity": 0, "duration": 64}, {"note": 65, "velocity": 96, "duration": 99}, {"note": 67, "velocity": 127, "duration": 191}, {"note": 69, "velocity": 107, "duration": 168}, {"note": 0, "velocity": 0, "duration": 72}, {"note": 69, "velocity": 102, "duration": 482}, {"note": 64, "velocity": 90, "duration": 373}, {"note": 0, "velocity": 0, "duration": 107}, {"note": 62, "velocity": 95, "duration": 236}, {"note": 69, "velocity": 107, "duration": 205}, {"note": 67, "velocity": 112, "duration": 289}, {"note": 0, "velocity": 0, "duration": 191}, {"note": 62, "velocity": 96, "duration": 211}, {"note": 69, "velocity": 99, "duration": 174}, {"note": 0, "velocity": 0, "duration": 66}, {"note": 67, "velocity": 102, "duration": 193}, {"note": 0, "velocity": 0, "duration": 287}, {"note": 62, "velocity": 102, "duration": 200}, {"note": 69, "velocity": 100, "duration": 202}, {"note": 67, "velocity": 96, "duration": 215}, {"note": 0, "velocity": 0, "duration": 145}, {"note": 65, "velocity": 92, "duration": 73}, {"note": 65, "velocity": 112, "duration": 766}, {"note": 0, "velocity": 0, "duration": 1154}, {"note": 69, "velocity": 107, "duration": 239}, {"note": 69, "velocity": 100, "duration": 49}, {"note": 0, "velocity": 0, "duration": 71}, {"note": 69, "velocity": 93, "duration": 56}, {"note": 0, "velocity": 0, "duration": 64}, {"note": 70, "velocity": 112, "duration": 164}, {"note": 0, "velocity": 0, "duration": 76}, {"note": 72, "velocity": 102, "duration": 163}, {"note": 0, "velocity": 0, "duration": 77}, {"note": 69, "velocity": 99, "duration": 182}, {"note": 0, "velocity": 0, "duration": 298}, {"note": 67, "velocity": 95, "duration": 168}, {"note": 0, "velocity": 0, "duration": 312}, {"note": 65, "velocity": 96, "duration": 118}, {"note": 0, "velocity": 0, "duration": 122}, {"note": 65, "velocity": 93, "duration": 56}, {"note": 0, "velocity": 0, "duration": 64}, {"note": 65, "velocity": 96, "duration": 99}, {"note": 67, "velocity": 127, "duration": 191}, {"note": 69, "velocity": 107, "duration": 168}, {"note": 0, "velocity": 0, "duration": 72}, {"note": 69, "velocity": 102, "duration": 482}, {"note": 64, "velocity": 90, "duration": 373}, {"note": 0, "velocity": 0, "duration": 107}, {"note": 62, "velocity": 95, "duration": 236}, {"note": 69, "velocity": 107, "duration": 205}, {"note": 67, "velocity": 112, "duration": 289}, {"note": 0, "velocity": 0, "duration": 191}, {"note": 62, "velocity": 96, "duration": 211}, {"note": 69, "velocity": 99, "duration": 174}, {"note": 0, "velocity": 0, "duration": 66}, {"note": 67, "velocity": 102, "duration": 193}, {"note": 0, "velocity": 0, "duration": 287}, {"note": 62, "velocity": 102, "duration": 200}, {"note": 69, "velocity": 100, "duration": 202}, {"note": 67, "velocity": 96, "duration": 215}, {"note": 0, "velocity": 0, "duration": 145}, {"note": 65, "velocity": 92, "duration": 73}, {"note": 65, "velocity": 112, "duration": 766}, {"note": 0, "velocity": 0, "duration": 674}, {"note": 69, "velocity": 122, "duration": 226}, {"note": 67, "velocity": 97, "duration": 256}, {"note": 72, "velocity": 122, "duration": 453}, {"note": 0, "velocity": 0, "duration": 267}, {"note": 70, "velocity": 85, "duration": 126}, {"note": 69, "velocity": 99, "duration": 123}, {"note": 67, "velocity": 92, "duration": 543}, {"note": 0, "velocity": 0, "duration": 177}, {"note": 72, "velocity": 99, "duration": 102}, {"note": 70, "velocity": 89, "duration": 59}, {"note": 0, "velocity": 0, "duration": 61}, {"note": 69, "velocity": 99, "duration": 162}, {"note": 0, "velocity": 0, "duration": 78}, {"note": 70, "velocity": 107, "duration": 55}, {"note": 0, "velocity": 0, "duration": 65}, {"note": 72, "velocity": 112, "duration": 277}, {"note": 0, "velocity": 0, "duration": 83}, {"note": 69, "velocity": 102, "duration": 151}, {"note": 0, "velocity": 0, "duration": 89}, {"note": 67, "velocity": 99, "duration": 505}, {"note": 0, "velocity": 0, "duration": 335}, {"note": 65, "velocity": 99, "duration": 102}, {"note": 62, "velocity": 97, "duration": 208}, {"note": 69, "velocity": 97, "duration": 214}, {"note": 67, "velocity": 102, "duration": 234}, {"note": 0, "velocity": 0, "duration": 126}, {"note": 62, "velocity": 93, "duration": 71}, {"note": 60, "velocity": 100, "duration": 202}, {"note": 67, "velocity": 102, "duration": 184}, {"note": 65, "velocity": 107, "duration": 382}, {"note": 0, "velocity": 0, "duration": 98}, {"note": 70, "velocity": 122, "duration": 53}, {"note": 0, "velocity": 0, "duration": 67}, {"note": 69, "velocity": 89, "duration": 48}, {"note": 0, "velocity": 0, "duration": 72}, {"note": 70, "velocity": 122, "duration": 58}, {"note": 0, "velocity": 0, "duration": 62}, {"note": 69, "velocity": 102, "duration": 47}, {"note": 0, "velocity": 0, "duration": 73}, {"note": 65, "velocity": 99, "duration": 250}, {"note": 0, "velocity": 0, "duration": 230}, {"note": 70, "velocity": 127, "duration": 125}, {"note": 69, "velocity": 89, "duration": 134}, {"note": 70, "velocity": 107, "duration": 105}, {"note": 69, "velocity": 93, "duration": 85}, {"note": 65, "velocity": 102, "duration": 176}, {"note": 0, "velocity": 0, "duration": 184}, {"note": 67, "velocity": 100, "duration": 324}, {"note": 65, "velocity": 96, "duration": 967}]]