[[{"note": 70, "velocity": 107, "duration": 161}, {"note": 0, "velocity": 0, "duration": 79}, {"note": 70, "velocity": 122, "duration": 165}, {"note": 0, "velocity": 0, "duration": 75}, {"note": 70, "velocity": 100, "duration": 144}, {"note": 0, "velocity": 0, "duration": 96}, {"note": 70, "velocity": 117, "duration": 169}, {"note": 0, "velocity": 0, "duration": 71}, {"note": 72, "velocity": 100, "duration": 163}, {"note": 0, "velocity": 0, "duration": 77}, {"note": 74, "velocity": 81, "duration": 177}, {"note": 0, "velocity": 0, "duration": 63}, {"note": 70, "velocity": 96, "duration": 261}, {"note": 0, "velocity": 0, "duration": 219}, {"note": 70, "velocity": 90, "duration": 140}, {"note": 0, "velocity": 0, "duration": 100}, {"note": 70, "velocity": 96, "duration": 164}, {"note": 0, "velocity": 0, "duration": 76}, {"note": 70, "velocity": 100, "duration": 159}, {"note": 0, "velocity": 0, "duration": 81}, {"note": 70, "velocity": 107, "duration": 151}, {"note": 0, "velocity": 0, "duration": 89}, {"note": 72, "velocity": 97, "duration": 160}, {"note": 0, "velocity": 0, "duration": 80}, {"note": 70, "velocity": 117, "duration": 148}, {"note": 0, "velocity": 0, "duration": 92}, {"note": 74, "velocity": 112, "duration": 476}, {"note": 0, "velocity": 0, "duration": 1444}, {"note": 70, "velocity": 99, "duration": 108}, {"note": 72, "velocity": 86, "duration": 91}, {"note": 74, "velocity": 93, "duration": 124}, {"note": 0, "velocity": 0, "duration": 116}, {"note": 75, "velocity": 107, "duration": 139}, {"note": 0, "velocity": 0, "duration": 101}, {"note": 74, "velocity": 107, "duration": 121}, {"note": 0, "velocity": 0, "duration": 119}, {"note": 72, "velocity": 100, "duration": 353}, {"note": 0, "velocity": 0, "duration": 127}, {"note": 74, "velocity": 97, "duration": 131}, {"note": 0, "velocity": 0, "duration": 109}, {"note": 72, "velocity": 100, "duration": 128}, {"note": 0, "velocity": 0, "duration": 112}, {"note": 70, "velocity": 92, "duration": 311}, {"note": 0, "velocity": 0, "duration": 169}, {"note": 70, "velocity": 112, "duration": 149}, {"note": 0, "velocity": 0, "duration": 91}, {"note": 70, "velocity": 107, "duration": 133}, {"note": 0, "velocity": 0, "duration": 107}, {"note": 70, "velocity": 117, "duration": 136}, {"note": 0, "velocity": 0, "duration": 104}, {"note": 70, "velocity": 117, "duration": 124}, {"note": 0, "velocity": 0, "duration": 116}, {"note": 72, "velocity": 90, "duration": 148}, {"note": 0, "velocity": 0, "duration": 92}, {"note": 74, "velocity": 97, "duration": 151}, {"note": 0, "velocity": 0, "duration": 89}, {"note": 70, "velocity": 92, "duration": 287}, {"note": 0, "velocity": 0, "duration": 193}, {"note": 70, "velocity": 117, "duration": 135}, {"note": 0, "velocity": 0, "duration": 105}, {"note": 70, "velocity": 107, "duration": 136}, {"note": 0, "velocity": 0, "duration": 104}, {"note": 70, "velocity": 117, "duration": 129}, {"note": 0, "velocity": 0, "duration": 111}, {"note": 69, "velocity": 102, "duration": 180}, {"note": 70, "velocity": 99, "duration": 175}, {"note": 0, "velocity": 0, "duration": 65}, {"note": 69, "velocity": 89, "duration": 139}, {"note": 0, "velocity": 0, "duration": 101}, {"note": 69, "velocity": 83, "duration": 439}, {"note": 67, "velocity": 75, "duration": 1273}, {"note": 0, "velocity": 0, "duration": 1127}, {"note": 74, "velocity": 97, "duration": 164}, {"note": 0, "velocity": 0, "duration": 76}, {"note": 82, "velocity": 117, "duration": 170}, {"note": 0, "velocity": 0, "duration": 70}, {"note": 81, "velocity": 100, "duration": 170}, {"note": 0, "velocity": 0, "duration": 70}, {"note": 79, "velocity": 97, "duration": 170}, {"note": 0, "velocity": 0, "duration": 70}, {"note": 77, "velocity": 107, "duration": 240}, {"note": 79, "velocity": 107, "duration": 367}, {"note": 0, "velocity": 0, "duration": 113}, {"note": 79, "velocity": 107, "duration": 347}, {"note": 0, "velocity": 0, "duration": 133}, {"note": 79, "velocity": 99, "duration": 172}, {"note": 0, "velocity": 0, "duration": 68}, {"note": 77, "velocity": 96, "duration": 130}, {"note": 0, "velocity": 0, "duration": 110}, {"note": 74, "velocity": 107, "duration": 180}, {"note": 77, "velocity": 102, "duration": 720}, {"note": 0, "velocity": 0, "duration": 360}, {"note": 74, "velocity": 92, "duration": 98}, {"note": 72, "velocity": 93, "duration": 225}, {"note": 77, "velocity": 75, "duration": 126}, {"note": 0, "velocity": 0, "duration": 114}, {"note": 77, "velocity": 107, "duration": 180}, {"note": 74, "velocity": 93, "duration": 194}, {"note": 77, "velocity": 112, "duration": 470}, {"note": 77, "velocity": 112, "duration": 148}, {"note": 0, "velocity": 0, "duration": 92}, {"note": 77, "velocity": 97, "duration": 151}, {"note": 0, "velocity": 0, "duration": 89}, {"note": 74, "velocity": 99, "duration": 182}, {"note": 77, "velocity": 112, "duration": 156}, {"note": 0, "velocity": 0, "duration": 84}, {"note": 77, "velocity": 112, "duration": 165}, {"note": 0, "velocity": 0, "duration": 75}, {"note": 84, "velocity": 117, "duration": 247}, {"note": 82, "velocity": 107, "duration": 833}, {"note": 0, "velocity": 0, "duration": 127}, {"note": 82, "velocity": 127, "duration": 145}, {"note": 0, "velocity": 0, "duration": 95}, {"note": 81, "velocity": 112, "duration": 198}, {"note": 79, "velocity": 99, "duration": 195}, {"note": 77, "velocity": 97, "duration": 211}, {"note": 79, "velocity": 107, "duration": 484}, {"note": 79, "velocity": 117, "duration": 4}, {"note": 0, "velocity": 0, "duration": 236}, {"note": 79, "velocity": 117, "duration": 139}, {"note": 0, "velocity": 0, "duration": 101}, {"note": 79, "velocity": 102, "duration": 164}, {"note": 0, "velocity": 0, "duration": 76}, {"note": 77, "velocity": 97, "duration": 142}, {"note": 0, "velocity": 0, "duration": 98}, {"note": 74, "velocity": 92, "duration": 220}, {"note": 79, "velocity": 97, "duration": 454}, {"note": 77, "velocity": 96, "duration": 555}, {"note": 0, "velocity": 0, "duration": 165}, {"note": 74, "velocity": 96, "duration": 190}, {"note": 75, "velocity": 99, "duration": 157}, {"note": 0, "velocity": 0, "duration": 83}, {"note": 77, "velocity": 93, "duration": 137}, {"note": 0, "velocity": 0, "duration": 103}, {"note": 70, "velocity": 99, "duration": 577}, {"note": 0, "velocity": 0, "duration": 143}, {"note": 74, "velocity": 99, "duration": 234}, {"note": 72, "velocity": 79, "duration": 557}, {"note": 0, "velocity": 0, "duration": 163}, {"note": 70, "velocity": 100, "duration": 160}, {"note": 0, "velocity": 0, "duration": 200}, {"note": 70, "velocity": 112, "duration": 1307}, {"note": 0, "velocity": 0, "duration": 16333}, {"note": 70, "velocity": 107, "duration": 161}, {"note": 0, "velocity": 0, "duration": 79}, {"note": 70, "velocity": 122, "duration": 165}, {"note": 0, "velocity": 0, "duration": 75}, {"note": 70, "velocity": 100, "duration": 144}, {"note": 0, "velocity": 0, "duration": 96}, {"note": 70, "velocity": 117, "duration": 169}, {"note": 0, "velocity": 0, "duration": 71}, {"note": 72, "velocity": 100, "duration": 163}, {"note": 0, "velocity": 0, "duration": 77}, {"note": 74, "velocity": 81, "duration": 177}, {"note": 0, "velocity": 0, "duration": 63}, {"note": 70, "velocity": 96, "duration": 261}, {"note": 0, "velocity": 0, "duration": 219}, {"note": 70, "velocity": 90, "duration": 140}, {"note": 0, "velocity": 0, "duration": 100}, {"note": 70, "velocity": 96, "duration": 164}, {"note": 0, "velocity": 0, "duration": 76}, {"note": 70, "velocity": 100, "duration": 159}, {"note": 0, "velocity": 0, "duration": 81}, {"note": 70, "velocity": 107, "duration": 151}, {"note": 0, "velocity": 0, "duration": 89}, {"note": 72, "velocity": 97, "duration": 160}, {"note": 0, "velocity": 0, "duration": 80}, {"note": 70, "velocity": 117, "duration": 148}, {"note": 0, "velocity": 0, "duration": 92}, {"note": 75, "velocity": 112, "duration": 237}, {"note": 0, "velocity": 0, "duration": 243}, {"note": 74, "velocity": 107, "duration": 1046}, {"note": 0, "velocity": 0, "duration": 394}, {"note": 70, "velocity": 99, "duration": 108}, {"note": 72, "velocity": 86, "duration": 91}, {"note": 74, "velocity": 93, "duration": 124}, {"note": 0, "velocity": 0, "duration": 116}, {"note": 75, "velocity": 107, "duration": 139}, {"note": 0, "velocity": 0, "duration": 101}, {"note": 74, "velocity": 107, "duration": 121}, {"note": 0, "velocity": 0, "duration": 119}, {"note": 72, "velocity": 100, "duration": 353}, {"note": 0, "velocity": 0, "duration": 127}, {"note": 74, "velocity": 97, "duration": 131}, {"note": 0, "velocity": 0, "duration": 109}, {"note": 72, "velocity": 100, "duration": 128}, {"note": 0, "velocity": 0, "duration": 112}, {"note": 70, "velocity": 92, "duration": 311}, {"note": 0, "velocity": 0, "duration": 169}, {"note": 70, "velocity": 112, "duration": 149}, {"note": 0, "velocity": 0, "duration": 91}, {"note": 70, "velocity": 107, "duration": 133}, {"note": 0, "velocity": 0, "duration": 107}, {"note": 70, "velocity": 117, "duration": 136}, {"note": 0, "velocity": 0, "duration": 104}, {"note": 70, "velocity": 117, "duration": 124}, {"note": 0, "velocity": 0, "duration": 116}, {"note": 72, "velocity": 90, "duration": 148}, {"note": 0, "velocity": 0, "duration": 92}, {"note": 74, "velocity": 97, "duration": 151}, {"note": 0, "velocity": 0, "duration": 89}, {"note": 70, "velocity": 92, "duration": 287}, {"note": 0, "velocity": 0, "duration": 193}, {"note": 70, "velocity": 117, "duration": 135}, {"note": 0, "velocity": 0, "duration": 105}, {"note": 70, "velocity": 107, "duration": 136}, {"note": 0, "velocity": 0, "duration": 104}, {"note": 70, "velocity": 117, "duration": 129}, {"note": 0, "velocity": 0, "duration": 111}, {"note": 69, "velocity": 102, "duration": 180}, {"note": 70, "velocity": 99, "duration": 175}, {"note": 0, "velocity": 0, "duration": 65}, {"note": 69, "velocity": 89, "duration": 139}, {"note": 0, "velocity": 0, "duration": 101}, {"note": 69, "velocity": 83, "duration": 439}, {"note": 67, "velocity": 75, "duration": 720}, {"note": 0, "velocity": 0, "duration": 240}, {"note": 67, "velocity": 95, "duration": 197}, {"note": 70, "velocity": 107, "duration": 187}, {"note": 72, "velocity": 107, "duration": 461}, {"note": 70, "velocity": 97, "duration": 626}, {"note": 74, "velocity": 97, "duration": 164}, {"note": 0, "velocity": 0, "duration": 76}, {"note": 82, "velocity": 117, "duration": 170}, {"note": 0, "velocity": 0, "duration": 70}, {"note": 81, "velocity": 100, "duration": 170}, {"note": 0, "velocity": 0, "duration": 70}, {"note": 79, "velocity": 97, "duration": 170}, {"note": 0, "velocity": 0, "duration": 70}, {"note": 77, "velocity": 107, "duration": 240}, {"note": 79, "velocity": 107, "duration": 367}, {"note": 0, "velocity": 0, "duration": 113}, {"note": 79, "velocity": 107, "duration": 347}, {"note": 0, "velocity": 0, "duration": 133}, {"note": 79, "velocity": 99, "duration": 172}, {"note": 0, "velocity": 0, "duration": 68}, {"note": 77, "velocity": 96, "duration": 130}, {"note": 0, "velocity": 0, "duration": 110}, {"note": 74, "velocity": 107, "duration": 180}, {"note": 77, "velocity": 102, "duration": 1024}, {"note": 0, "velocity": 0, "duration": 176}, {"note": 74, "velocity": 93, "duration": 225}, {"note": 77, "velocity": 75, "duration": 126}, {"note": 0, "velocity": 0, "duration": 114}, {"note": 77, "velocity": 107, "duration": 180}, {"note": 74, "velocity": 93, "duration": 194}, {"note": 77, "velocity": 112, "duration": 334}, {"note": 0, "velocity": 0, "duration": 146}, {"note": 77, "velocity": 112, "duration": 148}, {"note": 0, "velocity": 0, "duration": 92}, {"note": 77, "velocity": 97, "duration": 151}, {"note": 0, "velocity": 0, "duration": 89}, {"note": 74, "velocity": 99, "duration": 182}, {"note": 77, "velocity": 112, "duration": 156}, {"note": 0, "velocity": 0, "duration": 84}, {"note": 77, "velocity": 112, "duration": 165}, {"note": 0, "velocity": 0, "duration": 75}, {"note": 84, "velocity": 117, "duration": 247}, {"note": 82, "velocity": 107, "duration": 833}, {"note": 0, "velocity": 0, "duration": 127}, {"note": 82, "velocity": 127, "duration": 145}, {"note": 0, "velocity": 0, "duration": 95}, {"note": 81, "velocity": 112, "duration": 198}, {"note": 79, "velocity": 99, "duration": 195}, {"note": 77, "velocity": 97, "duration": 211}, {"note": 79, "velocity": 107, "duration": 484}, {"note": 79, "velocity": 117, "duration": 4}, {"note": 0, "velocity": 0, "duration": 236}, {"note": 79, "velocity": 117, "duration": 139}, {"note": 0, "velocity": 0, "duration": 101}, {"note": 79, "velocity": 102, "duration": 164}, {"note": 0, "velocity": 0, "duration": 76}, {"note": 77, "velocity": 97, "duration": 142}, {"note": 0, "velocity": 0, "duration": 98}, {"note": 74, "velocity": 92, "duration": 220}, {"note": 79, "velocity": 97, "duration": 454}, {"note": 77, "velocity": 96, "duration": 555}, {"note": 0, "velocity": 0, "duration": 165}, {"note": 74, "velocity": 96, "duration": 190}, {"note": 75, "velocity": 99, "duration": 157}, {"note": 0, "velocity": 0, "duration": 83}, {"note": 77, "velocity": 93, "duration": 137}, {"note": 0, "velocity": 0, "duration": 103}, {"note": 70, "velocity": 99, "duration": 577}, {"note": 0, "velocity": 0, "duration": 143}, {"note": 74, "velocity": 99, "duration": 234}, {"note": 72, "velocity": 79, "duration": 557}, {"note": 0, "velocity": 0, "duration": 163}, {"note": 70, "velocity": 100, "duration": 160}, {"note": 0, "velocity": 0, "duration": 80}, {"note": 70, "velocity": 112, "duration": 720}, {"note": 0, "velocity": 0, "duration": 240}, {"note": 74, "velocity": 99, "duration": 194}, {"note": 82, "velocity": 117, "duration": 170}, {"note": 0, "velocity": 0, "duration": 70}, {"note": 81, "velocity": 100, "duration": 170}, {"note": 0, "velocity": 0, "duration": 70}, {"note": 79, "velocity": 97, "duration": 170}, {"note": 0, "velocity": 0, "duration": 70}, {"note": 77, "velocity": 107, "duration": 240}, {"note": 79, "velocity": 107, "duration": 367}, {"note": 0, "velocity": 0, "duration": 113}, {"note": 79, "velocity": 107, "duration": 347}, {"note": 0, "velocity": 0, "duration": 133}, {"note": 79, "velocity": 99, "duration": 172}, {"note": 0, "velocity": 0, "duration": 68}, {"note": 77, "velocity": 96, "duration": 130}, {"note": 0, "velocity": 0, "duration": 110}, {"note": 74, "velocity": 107, "duration": 180}, {"note": 77, "velocity": 102, "duration": 1024}, {"note": 0, "velocity": 0, "duration": 176}, {"note": 74, "velocity": 93, "duration": 225}, {"note": 77, "velocity": 75, "duration": 126}, {"note": 0, "velocity": 0, "duration": 114}, {"note": 77, "velocity": 107, "duration": 180}, {"note": 74, "velocity": 93, "duration": 194}, {"note": 77, "velocity": 112, "duration": 334}, {"note": 0, "velocity": 0, "duration": 146}, {"note": 77, "velocity": 112, "duration": 148}, {"note": 0, "velocity": 0, "duration": 92}, {"note": 77, "velocity": 97, "duration": 151}, {"note": 0, "velocity": 0, "duration": 89}, {"note": 74, "velocity": 99, "duration": 182}, {"note": 77, "velocity": 112, "duration": 156}, {"note": 0, "velocity": 0, "duration": 84}, {"note": 77, "velocity": 112, "duration": 165}, {"note": 0, "velocity": 0, "duration": 75}, {"note": 84, "velocity": 117, "duration": 247}, {"note": 0, "velocity": 0, "duration": 233}, {"note": 82, "velocity": 107, "duration": 443}, {"note": 0, "velocity": 0, "duration": 277}, {"note": 82, "velocity": 127, "duration": 145}, {"note": 0, "velocity": 0, "duration": 95}, {"note": 81, "velocity": 112, "duration": 198}, {"note": 79, "velocity": 99, "duration": 195}, {"note": 77, "velocity": 97, "duration": 211}, {"note": 79, "velocity": 107, "duration": 484}, {"note": 79, "velocity": 117, "duration": 4}, {"note": 0, "velocity": 0, "duration": 236}, {"note": 79, "velocity": 117, "duration": 139}, {"note": 0, "velocity": 0, "duration": 101}, {"note": 79, "velocity": 102, "duration": 164}, {"note": 0, "velocity": 0, "duration": 76}, {"note": 77, "velocity": 97, "duration": 142}, {"note": 0, "velocity": 0, "duration": 98}, {"note": 74, "velocity": 92, "duration": 220}, {"note": 79, "velocity": 97, "duration": 454}, {"note": 77, "velocity": 96, "duration": 555}, {"note": 65, "velocity": 97, "duration": 161}, {"note": 0, "velocity": 0, "duration": 79}, {"note": 74, "velocity": 96, "duration": 190}, {"note": 75, "velocity": 99, "duration": 157}, {"note": 0, "velocity": 0, "duration": 83}, {"note": 77, "velocity": 93, "duration": 137}, {"note": 0, "velocity": 0, "duration": 103}, {"note": 70, "velocity": 99, "duration": 577}, {"note": 0, "velocity": 0, "duration": 143}, {"note": 74, "velocity": 99, "duration": 234}, {"note": 72, "velocity": 79, "duration": 557}, {"note": 0, "velocity": 0, "duration": 163}, {"note": 70, "velocity": 100, "duration": 160}, {"note": 0, "velocity": 0, "duration": 80}, {"note": 70, "velocity": 112, "duration": 1307}]]