[[{"note": 71, "velocity": 127, "duration": 168}, {"note": 0, "velocity": 0, "duration": 72}, {"note": 71, "velocity": 117, "duration": 58}, {"note": 0, "velocity": 0, "duration": 62}, {"note": 71, "velocity": 122, "duration": 112}, {"note": 71, "velocity": 99, "duration": 247}, {"note": 66, "velocity": 97, "duration": 116}, {"note": 64, "velocity": 90, "duration": 109}, {"note": 62, "velocity": 95, "duration": 729}, {"note": 59, "velocity": 81, "duration": 93}, {"note": 0, "velocity": 0, "duration": 147}, {"note": 64, "velocity": 97, "duration": 156}, {"note": 0, "velocity": 0, "duration": 84}, {"note": 64, "velocity": 95, "duration": 87}, {"note": 67, "velocity": 92, "duration": 79}, {"note": 66, "velocity": 93, "duration": 129}, {"note": 64, "velocity": 72, "duration": 101}, {"note": 62, "velocity": 85, "duration": 265}, {"note": 64, "velocity": 97, "duration": 831}, {"note": 0, "velocity": 0, "duration": 129}, {"note": 64, "velocity": 100, "duration": 377}, {"note": 0, "velocity": 0, "duration": 103}, {"note": 67, "velocity": 102, "duration": 213}, {"note": 64, "velocity": 100, "duration": 168}, {"note": 0, "velocity": 0, "duration": 72}, {"note": 76, "velocity": 122, "duration": 290}, {"note": 71, "velocity": 107, "duration": 126}, {"note": 69, "velocity": 77, "duration": 118}, {"note": 67, "velocity": 92, "duration": 357}, {"note": 64, "velocity": 92, "duration": 113}, {"note": 69, "velocity": 102, "duration": 239}, {"note": 71, "velocity": 100, "duration": 201}, {"note": 72, "velocity": 112, "duration": 193}, {"note": 71, "velocity": 99, "duration": 121}, {"note": 69, "velocity": 89, "duration": 104}, {"note": 69, "velocity": 117, "duration": 759}, {"note": 0, "velocity": 0, "duration": 201}, {"note": 71, "velocity": 122, "duration": 165}, {"note": 0, "velocity": 0, "duration": 75}, {"note": 71, "velocity": 93, "duration": 53}, {"note": 0, "velocity": 0, "duration": 67}, {"note": 71, "velocity": 93, "duration": 47}, {"note": 0, "velocity": 0, "duration": 73}, {"note": 71, "velocity": 117, "duration": 161}, {"note": 0, "velocity": 0, "duration": 79}, {"note": 66, "velocity": 117, "duration": 115}, {"note": 64, "velocity": 93, "duration": 116}, {"note": 62, "velocity": 100, "duration": 589}, {"note": 0, "velocity": 0, "duration": 371}, {"note": 64, "velocity": 117, "duration": 151}, {"note": 0, "velocity": 0, "duration": 89}, {"note": 64, "velocity": 112, "duration": 58}, {"note": 0, "velocity": 0, "duration": 62}, {"note": 67, "velocity": 96, "duration": 61}, {"note": 66, "velocity": 127, "duration": 124}, {"note": 64, "velocity": 82, "duration": 109}, {"note": 62, "velocity": 99, "duration": 241}, {"note": 64, "velocity": 96, "duration": 739}, {"note": 0, "velocity": 0, "duration": 221}, {"note": 64, "velocity": 99, "duration": 373}, {"note": 0, "velocity": 0, "duration": 107}, {"note": 67, "velocity": 117, "duration": 212}, {"note": 64, "velocity": 100, "duration": 166}, {"note": 0, "velocity": 0, "duration": 74}, {"note": 76, "velocity": 127, "duration": 286}, {"note": 71, "velocity": 122, "duration": 118}, {"note": 69, "velocity": 100, "duration": 114}, {"note": 67, "velocity": 96, "duration": 304}, {"note": 64, "velocity": 97, "duration": 126}, {"note": 69, "velocity": 112, "duration": 140}, {"note": 0, "velocity": 0, "duration": 100}, {"note": 69, "velocity": 112, "duration": 99}, {"note": 72, "velocity": 117, "duration": 96}, {"note": 71, "velocity": 122, "duration": 242}, {"note": 0, "velocity": 0, "duration": 118}, {"note": 69, "velocity": 92, "duration": 90}, {"note": 71, "velocity": 102, "duration": 275}, {"note": 67, "velocity": 107, "duration": 565}, {"note": 0, "velocity": 0, "duration": 155}, {"note": 74, "velocity": 127, "duration": 161}, {"note": 0, "velocity": 0, "duration": 79}, {"note": 74, "velocity": 127, "duration": 85}, {"note": 76, "velocity": 99, "duration": 63}, {"note": 76, "velocity": 122, "duration": 123}, {"note": 0, "velocity": 0, "duration": 117}, {"note": 71, "velocity": 102, "duration": 126}, {"note": 69, "velocity": 100, "duration": 104}, {"note": 67, "velocity": 100, "duration": 172}, {"note": 0, "velocity": 0, "duration": 428}, {"note": 67, "velocity": 97, "duration": 113}, {"note": 64, "velocity": 100, "duration": 105}, {"note": 0, "velocity": 0, "duration": 135}, {"note": 74, "velocity": 127, "duration": 143}, {"note": 0, "velocity": 0, "duration": 97}, {"note": 74, "velocity": 122, "duration": 97}, {"note": 76, "velocity": 112, "duration": 63}, {"note": 76, "velocity": 127, "duration": 169}, {"note": 0, "velocity": 0, "duration": 71}, {"note": 72, "velocity": 122, "duration": 125}, {"note": 71, "velocity": 96, "duration": 117}, {"note": 69, "velocity": 112, "duration": 721}, {"note": 0, "velocity": 0, "duration": 239}, {"note": 69, "velocity": 127, "duration": 268}, {"note": 0, "velocity": 0, "duration": 92}, {"note": 67, "velocity": 93, "duration": 113}, {"note": 69, "velocity": 117, "duration": 209}, {"note": 71, "velocity": 117, "duration": 244}, {"note": 74, "velocity": 127, "duration": 244}, {"note": 76, "velocity": 127, "duration": 166}, {"note": 0, "velocity": 0, "duration": 74}, {"note": 74, "velocity": 112, "duration": 197}, {"note": 71, "velocity": 112, "duration": 137}, {"note": 0, "velocity": 0, "duration": 103}, {"note": 69, "velocity": 122, "duration": 238}, {"note": 0, "velocity": 0, "duration": 122}, {"note": 67, "velocity": 96, "duration": 56}, {"note": 0, "velocity": 0, "duration": 64}, {"note": 69, "velocity": 107, "duration": 89}, {"note": 67, "velocity": 95, "duration": 122}, {"note": 69, "velocity": 122, "duration": 86}, {"note": 71, "velocity": 117, "duration": 77}, {"note": 74, "velocity": 127, "duration": 209}, {"note": 74, "velocity": 127, "duration": 537}, {"note": 0, "velocity": 0, "duration": 183}, {"note": 74, "velocity": 127, "duration": 148}, {"note": 0, "velocity": 0, "duration": 92}, {"note": 74, "velocity": 127, "duration": 96}, {"note": 76, "velocity": 100, "duration": 58}, {"note": 0, "velocity": 0, "duration": 62}, {"note": 76, "velocity": 117, "duration": 126}, {"note": 0, "velocity": 0, "duration": 114}, {"note": 71, "velocity": 122, "duration": 111}, {"note": 69, "velocity": 112, "duration": 117}, {"note": 67, "velocity": 102, "duration": 399}, {"note": 0, "velocity": 0, "duration": 561}, {"note": 74, "velocity": 127, "duration": 159}, {"note": 0, "velocity": 0, "duration": 81}, {"note": 74, "velocity": 122, "duration": 81}, {"note": 76, "velocity": 99, "duration": 62}, {"note": 76, "velocity": 117, "duration": 117}, {"note": 0, "velocity": 0, "duration": 123}, {"note": 72, "velocity": 117, "duration": 111}, {"note": 71, "velocity": 117, "duration": 110}, {"note": 69, "velocity": 107, "duration": 409}, {"note": 0, "velocity": 0, "duration": 551}, {"note": 69, "velocity": 127, "duration": 148}, {"note": 0, "velocity": 0, "duration": 92}, {"note": 69, "velocity": 117, "duration": 94}, {"note": 67, "velocity": 97, "duration": 136}, {"note": 69, "velocity": 112, "duration": 227}, {"note": 69, "velocity": 99, "duration": 98}, {"note": 71, "velocity": 99, "duration": 106}, {"note": 74, "velocity": 112, "duration": 205}, {"note": 74, "velocity": 127, "duration": 107}, {"note": 76, "velocity": 99, "duration": 135}, {"note": 74, "velocity": 112, "duration": 188}, {"note": 71, "velocity": 117, "duration": 96}, {"note": 0, "velocity": 0, "duration": 144}, {"note": 69, "velocity": 122, "duration": 190}, {"note": 0, "velocity": 0, "duration": 170}, {"note": 71, "velocity": 122, "duration": 79}, {"note": 66, "velocity": 122, "duration": 112}, {"note": 64, "velocity": 97, "duration": 97}, {"note": 62, "velocity": 92, "duration": 122}, {"note": 64, "velocity": 97, "duration": 120}, {"note": 67, "velocity": 112, "duration": 70}, {"note": 0, "velocity": 0, "duration": 170}, {"note": 67, "velocity": 102, "duration": 687}, {"note": 0, "velocity": 0, "duration": 16353}, {"note": 71, "velocity": 127, "duration": 168}, {"note": 0, "velocity": 0, "duration": 189}, {"note": 71, "velocity": 117, "duration": 58}, {"note": 0, "velocity": 0, "duration": 62}, {"note": 71, "velocity": 122, "duration": 112}, {"note": 71, "velocity": 99, "duration": 77}, {"note": 66, "velocity": 97, "duration": 117}, {"note": 64, "velocity": 90, "duration": 109}, {"note": 62, "velocity": 95, "duration": 691}, {"note": 59, "velocity": 81, "duration": 93}, {"note": 0, "velocity": 0, "duration": 147}, {"note": 64, "velocity": 97, "duration": 156}, {"note": 0, "velocity": 0, "duration": 84}, {"note": 64, "velocity": 95, "duration": 87}, {"note": 67, "velocity": 92, "duration": 79}, {"note": 66, "velocity": 93, "duration": 129}, {"note": 64, "velocity": 72, "duration": 101}, {"note": 62, "velocity": 85, "duration": 265}, {"note": 64, "velocity": 97, "duration": 831}, {"note": 0, "velocity": 0, "duration": 129}, {"note": 64, "velocity": 100, "duration": 377}, {"note": 0, "velocity": 0, "duration": 103}, {"note": 67, "velocity": 102, "duration": 213}, {"note": 64, "velocity": 100, "duration": 168}, {"note": 0, "velocity": 0, "duration": 72}, {"note": 76, "velocity": 122, "duration": 290}, {"note": 71, "velocity": 107, "duration": 126}, {"note": 69, "velocity": 77, "duration": 118}, {"note": 67, "velocity": 92, "duration": 357}, {"note": 64, "velocity": 92, "duration": 113}, {"note": 69, "velocity": 102, "duration": 239}, {"note": 69, "velocity": 99, "duration": 103}, {"note": 71, "velocity": 90, "duration": 106}, {"note": 72, "velocity": 112, "duration": 193}, {"note": 71, "velocity": 99, "duration": 121}, {"note": 69, "velocity": 89, "duration": 104}, {"note": 69, "velocity": 117, "duration": 759}, {"note": 0, "velocity": 0, "duration": 201}, {"note": 71, "velocity": 122, "duration": 165}, {"note": 0, "velocity": 0, "duration": 75}, {"note": 71, "velocity": 93, "duration": 53}, {"note": 0, "velocity": 0, "duration": 67}, {"note": 71, "velocity": 93, "duration": 47}, {"note": 0, "velocity": 0, "duration": 73}, {"note": 71, "velocity": 117, "duration": 161}, {"note": 0, "velocity": 0, "duration": 79}, {"note": 66, "velocity": 117, "duration": 115}, {"note": 64, "velocity": 93, "duration": 116}, {"note": 62, "velocity": 100, "duration": 589}, {"note": 0, "velocity": 0, "duration": 371}, {"note": 64, "velocity": 117, "duration": 151}, {"note": 0, "velocity": 0, "duration": 89}, {"note": 64, "velocity": 112, "duration": 58}, {"note": 0, "velocity": 0, "duration": 62}, {"note": 67, "velocity": 96, "duration": 61}, {"note": 66, "velocity": 127, "duration": 124}, {"note": 64, "velocity": 82, "duration": 109}, {"note": 62, "velocity": 99, "duration": 241}, {"note": 64, "velocity": 96, "duration": 739}, {"note": 0, "velocity": 0, "duration": 221}, {"note": 64, "velocity": 99, "duration": 373}, {"note": 0, "velocity": 0, "duration": 107}, {"note": 67, "velocity": 117, "duration": 212}, {"note": 64, "velocity": 100, "duration": 166}, {"note": 0, "velocity": 0, "duration": 74}, {"note": 76, "velocity": 127, "duration": 286}, {"note": 71, "velocity": 122, "duration": 118}, {"note": 69, "velocity": 100, "duration": 114}, {"note": 67, "velocity": 96, "duration": 304}, {"note": 64, "velocity": 97, "duration": 126}, {"note": 69, "velocity": 112, "duration": 140}, {"note": 0, "velocity": 0, "duration": 100}, {"note": 69, "velocity": 112, "duration": 99}, {"note": 72, "velocity": 117, "duration": 96}, {"note": 71, "velocity": 122, "duration": 242}, {"note": 0, "velocity": 0, "duration": 118}, {"note": 69, "velocity": 92, "duration": 90}, {"note": 71, "velocity": 102, "duration": 275}, {"note": 67, "velocity": 107, "duration": 565}, {"note": 0, "velocity": 0, "duration": 155}, {"note": 74, "velocity": 127, "duration": 161}, {"note": 0, "velocity": 0, "duration": 79}, {"note": 74, "velocity": 127, "duration": 85}, {"note": 76, "velocity": 99, "duration": 63}, {"note": 76, "velocity": 122, "duration": 123}, {"note": 0, "velocity": 0, "duration": 117}, {"note": 71, "velocity": 102, "duration": 126}, {"note": 69, "velocity": 100, "duration": 104}, {"note": 67, "velocity": 100, "duration": 172}, {"note": 0, "velocity": 0, "duration": 428}, {"note": 67, "velocity": 97, "duration": 113}, {"note": 64, "velocity": 100, "duration": 105}, {"note": 0, "velocity": 0, "duration": 135}, {"note": 74, "velocity": 127, "duration": 143}, {"note": 0, "velocity": 0, "duration": 97}, {"note": 74, "velocity": 122, "duration": 97}, {"note": 76, "velocity": 112, "duration": 63}, {"note": 76, "velocity": 127, "duration": 169}, {"note": 0, "velocity": 0, "duration": 71}, {"note": 72, "velocity": 122, "duration": 125}, {"note": 71, "velocity": 96, "duration": 117}, {"note": 69, "velocity": 112, "duration": 721}, {"note": 0, "velocity": 0, "duration": 239}, {"note": 69, "velocity": 127, "duration": 268}, {"note": 0, "velocity": 0, "duration": 92}, {"note": 67, "velocity": 93, "duration": 113}, {"note": 69, "velocity": 117, "duration": 209}, {"note": 71, "velocity": 117, "duration": 244}, {"note": 74, "velocity": 127, "duration": 244}, {"note": 76, "velocity": 127, "duration": 166}, {"note": 0, "velocity": 0, "duration": 74}, {"note": 74, "velocity": 112, "duration": 197}, {"note": 71, "velocity": 112, "duration": 137}, {"note": 0, "velocity": 0, "duration": 103}, {"note": 69, "velocity": 122, "duration": 238}, {"note": 0, "velocity": 0, "duration": 122}, {"note": 67, "velocity": 96, "duration": 56}, {"note": 0, "velocity": 0, "duration": 64}, {"note": 69, "velocity": 107, "duration": 89}, {"note": 67, "velocity": 95, "duration": 122}, {"note": 69, "velocity": 122, "duration": 86}, {"note": 71, "velocity": 117, "duration": 77}, {"note": 74, "velocity": 127, "duration": 727}, {"note": 0, "velocity": 0, "duration": 233}, {"note": 74, "velocity": 127, "duration": 148}, {"note": 0, "velocity": 0, "duration": 92}, {"note": 74, "velocity": 127, "duration": 96}, {"note": 76, "velocity": 100, "duration": 58}, {"note": 0, "velocity": 0, "duration": 62}, {"note": 76, "velocity": 117, "duration": 126}, {"note": 0, "velocity": 0, "duration": 114}, {"note": 71, "velocity": 122, "duration": 111}, {"note": 69, "velocity": 112, "duration": 117}, {"note": 67, "velocity": 102, "duration": 399}, {"note": 0, "velocity": 0, "duration": 561}, {"note": 74, "velocity": 127, "duration": 159}, {"note": 0, "velocity": 0, "duration": 81}, {"note": 74, "velocity": 122, "duration": 81}, {"note": 76, "velocity": 99, "duration": 62}, {"note": 76, "velocity": 117, "duration": 117}, {"note": 0, "velocity": 0, "duration": 123}, {"note": 72, "velocity": 117, "duration": 111}, {"note": 71, "velocity": 117, "duration": 110}, {"note": 69, "velocity": 107, "duration": 409}, {"note": 0, "velocity": 0, "duration": 551}, {"note": 69, "velocity": 127, "duration": 148}, {"note": 0, "velocity": 0, "duration": 92}, {"note": 69, "velocity": 117, "duration": 94}, {"note": 67, "velocity": 97, "duration": 136}, {"note": 69, "velocity": 112, "duration": 227}, {"note": 69, "velocity": 99, "duration": 98}, {"note": 71, "velocity": 99, "duration": 106}, {"note": 74, "velocity": 112, "duration": 205}, {"note": 74, "velocity": 127, "duration": 107}, {"note": 76, "velocity": 99, "duration": 135}, {"note": 74, "velocity": 112, "duration": 188}, {"note": 71, "velocity": 117, "duration": 96}, {"note": 0, "velocity": 0, "duration": 144}, {"note": 69, "velocity": 122, "duration": 190}, {"note": 0, "velocity": 0, "duration": 170}, {"note": 71, "velocity": 122, "duration": 79}, {"note": 66, "velocity": 122, "duration": 112}, {"note": 64, "velocity": 97, "duration": 97}, {"note": 62, "velocity": 92, "duration": 122}, {"note": 64, "velocity": 97, "duration": 120}, {"note": 67, "velocity": 112, "duration": 711}, {"note": 0, "velocity": 0, "duration": 1209}, {"note": 75, "velocity": 127, "duration": 161}, {"note": 0, "velocity": 0, "duration": 79}, {"note": 75, "velocity": 127, "duration": 85}, {"note": 77, "velocity": 99, "duration": 63}, {"note": 77, "velocity": 122, "duration": 123}, {"note": 0, "velocity": 0, "duration": 117}, {"note": 72, "velocity": 102, "duration": 126}, {"note": 70, "velocity": 100, "duration": 104}, {"note": 68, "velocity": 100, "duration": 172}, {"note": 0, "velocity": 0, "duration": 428}, {"note": 68, "velocity": 97, "duration": 113}, {"note": 65, "velocity": 100, "duration": 105}, {"note": 0, "velocity": 0, "duration": 135}, {"note": 75, "velocity": 127, "duration": 143}, {"note": 0, "velocity": 0, "duration": 97}, {"note": 75, "velocity": 122, "duration": 97}, {"note": 77, "velocity": 112, "duration": 63}, {"note": 77, "velocity": 127, "duration": 169}, {"note": 0, "velocity": 0, "duration": 71}, {"note": 73, "velocity": 122, "duration": 125}, {"note": 72, "velocity": 96, "duration": 117}, {"note": 70, "velocity": 112, "duration": 721}, {"note": 0, "velocity": 0, "duration": 239}, {"note": 70, "velocity": 127, "duration": 268}, {"note": 0, "velocity": 0, "duration": 92}, {"note": 68, "velocity": 93, "duration": 113}, {"note": 70, "velocity": 117, "duration": 209}, {"note": 72, "velocity": 117, "duration": 244}, {"note": 75, "velocity": 127, "duration": 244}, {"note": 77, "velocity": 127, "duration": 166}, {"note": 0, "velocity": 0, "duration": 74}, {"note": 75, "velocity": 112, "duration": 197}, {"note": 72, "velocity": 112, "duration": 137}, {"note": 0, "velocity": 0, "duration": 103}, {"note": 70, "velocity": 122, "duration": 238}, {"note": 0, "velocity": 0, "duration": 122}, {"note": 68, "velocity": 96, "duration": 56}, {"note": 0, "velocity": 0, "duration": 64}, {"note": 70, "velocity": 107, "duration": 89}, {"note": 68, "velocity": 95, "duration": 122}, {"note": 70, "velocity": 122, "duration": 86}, {"note": 72, "velocity": 117, "duration": 77}, {"note": 75, "velocity": 127, "duration": 727}, {"note": 0, "velocity": 0, "duration": 233}, {"note": 75, "velocity": 127, "duration": 148}, {"note": 0, "velocity": 0, "duration": 92}, {"note": 75, "velocity": 127, "duration": 96}, {"note": 77, "velocity": 100, "duration": 58}, {"note": 0, "velocity": 0, "duration": 62}, {"note": 77, "velocity": 117, "duration": 126}, {"note": 0, "velocity": 0, "duration": 114}, {"note": 72, "velocity": 122, "duration": 111}, {"note": 70, "velocity": 112, "duration": 117}, {"note": 68, "velocity": 102, "duration": 399}, {"note": 0, "velocity": 0, "duration": 561}, {"note": 75, "velocity": 127, "duration": 159}, {"note": 0, "velocity": 0, "duration": 81}, {"note": 75, "velocity": 122, "duration": 81}, {"note": 77, "velocity": 99, "duration": 62}, {"note": 77, "velocity": 117, "duration": 117}, {"note": 0, "velocity": 0, "duration": 123}, {"note": 73, "velocity": 117, "duration": 111}, {"note": 72, "velocity": 117, "duration": 110}, {"note": 70, "velocity": 107, "duration": 409}, {"note": 0, "velocity": 0, "duration": 551}, {"note": 70, "velocity": 127, "duration": 148}, {"note": 0, "velocity": 0, "duration": 92}, {"note": 70, "velocity": 117, "duration": 94}, {"note": 68, "velocity": 97, "duration": 136}, {"note": 70, "velocity": 112, "duration": 227}, {"note": 70, "velocity": 99, "duration": 98}, {"note": 72, "velocity": 99, "duration": 106}, {"note": 75, "velocity": 112, "duration": 205}, {"note": 75, "velocity": 127, "duration": 107}, {"note": 77, "velocity": 99, "duration": 135}, {"note": 75, "velocity": 112, "duration": 188}, {"note": 72, "velocity": 117, "duration": 96}, {"note": 0, "velocity": 0, "duration": 144}, {"note": 70, "velocity": 122, "duration": 190}, {"note": 0, "velocity": 0, "duration": 170}, {"note": 72, "velocity": 122, "duration": 79}, {"note": 67, "velocity": 122, "duration": 112}, {"note": 65, "velocity": 97, "duration": 97}, {"note": 63, "velocity": 92, "duration": 122}, {"note": 65, "velocity": 97, "duration": 120}, {"note": 68, "velocity": 112, "duration": 155}, {"note": 0, "velocity": 0, "duration": 85}, {"note": 68, "velocity": 127, "duration": 476}, {"note": 0, "velocity": 0, "duration": 230}, {"note": 70, "velocity": 127, "duration": 203}, {"note": 70, "velocity": 127, "duration": 391}, {"note": 0, "velocity": 0, "duration": 77}, {"note": 70, "velocity": 127, "duration": 201}, {"note": 77, "velocity": 127, "duration": 1439}, {"note": 75, "velocity": 107, "duration": 304}, {"note": 0, "velocity": 0, "duration": 183}, {"note": 75, "velocity": 127, "duration": 1959}]]