[[{"note": 68, "velocity": 127, "duration": 76}, {"note": 76, "velocity": 100, "duration": 144}, {"note": 75, "velocity": 127, "duration": 118}, {"note": 71, "velocity": 102, "duration": 114}, {"note": 73, "velocity": 127, "duration": 210}, {"note": 73, "velocity": 127, "duration": 109}, {"note": 0, "velocity": 0, "duration": 131}, {"note": 71, "velocity": 117, "duration": 113}, {"note": 0, "velocity": 0, "duration": 127}, {"note": 73, "velocity": 127, "duration": 37}, {"note": 0, "velocity": 0, "duration": 83}, {"note": 75, "velocity": 127, "duration": 331}, {"note": 68, "velocity": 127, "duration": 225}, {"note": 0, "velocity": 0, "duration": 255}, {"note": 68, "velocity": 127, "duration": 70}, {"note": 71, "velocity": 97, "duration": 65}, {"note": 73, "velocity": 127, "duration": 100}, {"note": 0, "velocity": 0, "duration": 140}, {"note": 73, "velocity": 127, "duration": 96}, {"note": 0, "velocity": 0, "duration": 144}, {"note": 71, "velocity": 107, "duration": 106}, {"note": 0, "velocity": 0, "duration": 134}, {"note": 64, "velocity": 112, "duration": 87}, {"note": 71, "velocity": 112, "duration": 165}, {"note": 0, "velocity": 0, "duration": 75}, {"note": 68, "velocity": 127, "duration": 374}, {"note": 0, "velocity": 0, "duration": 226}, {"note": 66, "velocity": 122, "duration": 40}, {"note": 0, "velocity": 0, "duration": 80}, {"note": 66, "velocity": 112, "duration": 38}, {"note": 0, "velocity": 0, "duration": 82}, {"note": 66, "velocity": 127, "duration": 139}, {"note": 0, "velocity": 0, "duration": 101}, {"note": 68, "velocity": 127, "duration": 41}, {"note": 0, "velocity": 0, "duration": 79}, {"note": 73, "velocity": 83, "duration": 149}, {"note": 0, "velocity": 0, "duration": 211}, {"note": 68, "velocity": 127, "duration": 55}, {"note": 0, "velocity": 0, "duration": 65}, {"note": 66, "velocity": 117, "duration": 53}, {"note": 0, "velocity": 0, "duration": 67}, {"note": 68, "velocity": 127, "duration": 119}, {"note": 0, "velocity": 0, "duration": 121}, {"note": 73, "velocity": 127, "duration": 43}, {"note": 0, "velocity": 0, "duration": 77}, {"note": 76, "velocity": 122, "duration": 256}, {"note": 0, "velocity": 0, "duration": 224}, {"note": 73, "velocity": 107, "duration": 41}, {"note": 0, "velocity": 0, "duration": 79}, {"note": 80, "velocity": 127, "duration": 112}, {"note": 78, "velocity": 127, "duration": 76}, {"note": 0, "velocity": 0, "duration": 164}, {"note": 76, "velocity": 102, "duration": 60}, {"note": 76, "velocity": 127, "duration": 118}, {"note": 75, "velocity": 127, "duration": 66}, {"note": 0, "velocity": 0, "duration": 174}, {"note": 73, "velocity": 127, "duration": 45}, {"note": 0, "velocity": 0, "duration": 75}, {"note": 75, "velocity": 127, "duration": 328}, {"note": 0, "velocity": 0, "duration": 152}, {"note": 68, "velocity": 127, "duration": 76}, {"note": 76, "velocity": 100, "duration": 144}, {"note": 75, "velocity": 127, "duration": 118}, {"note": 71, "velocity": 102, "duration": 114}, {"note": 73, "velocity": 127, "duration": 210}, {"note": 73, "velocity": 127, "duration": 109}, {"note": 0, "velocity": 0, "duration": 131}, {"note": 71, "velocity": 117, "duration": 113}, {"note": 0, "velocity": 0, "duration": 127}, {"note": 73, "velocity": 127, "duration": 37}, {"note": 0, "velocity": 0, "duration": 83}, {"note": 75, "velocity": 127, "duration": 331}, {"note": 68, "velocity": 127, "duration": 225}, {"note": 0, "velocity": 0, "duration": 255}, {"note": 68, "velocity": 127, "duration": 70}, {"note": 71, "velocity": 97, "duration": 65}, {"note": 73, "velocity": 127, "duration": 100}, {"note": 0, "velocity": 0, "duration": 140}, {"note": 73, "velocity": 127, "duration": 96}, {"note": 0, "velocity": 0, "duration": 144}, {"note": 71, "velocity": 107, "duration": 106}, {"note": 0, "velocity": 0, "duration": 134}, {"note": 64, "velocity": 112, "duration": 87}, {"note": 71, "velocity": 112, "duration": 165}, {"note": 0, "velocity": 0, "duration": 75}, {"note": 68, "velocity": 127, "duration": 374}, {"note": 0, "velocity": 0, "duration": 226}, {"note": 66, "velocity": 122, "duration": 40}, {"note": 0, "velocity": 0, "duration": 80}, {"note": 66, "velocity": 112, "duration": 38}, {"note": 0, "velocity": 0, "duration": 82}, {"note": 66, "velocity": 127, "duration": 139}, {"note": 0, "velocity": 0, "duration": 101}, {"note": 68, "velocity": 127, "duration": 41}, {"note": 0, "velocity": 0, "duration": 79}, {"note": 73, "velocity": 83, "duration": 149}, {"note": 0, "velocity": 0, "duration": 211}, {"note": 68, "velocity": 127, "duration": 55}, {"note": 0, "velocity": 0, "duration": 65}, {"note": 66, "velocity": 117, "duration": 53}, {"note": 0, "velocity": 0, "duration": 67}, {"note": 68, "velocity": 127, "duration": 119}, {"note": 0, "velocity": 0, "duration": 121}, {"note": 73, "velocity": 127, "duration": 43}, {"note": 0, "velocity": 0, "duration": 77}, {"note": 76, "velocity": 122, "duration": 256}, {"note": 0, "velocity": 0, "duration": 224}, {"note": 73, "velocity": 107, "duration": 41}, {"note": 0, "velocity": 0, "duration": 79}, {"note": 80, "velocity": 127, "duration": 112}, {"note": 78, "velocity": 127, "duration": 76}, {"note": 0, "velocity": 0, "duration": 164}, {"note": 76, "velocity": 102, "duration": 60}, {"note": 76, "velocity": 127, "duration": 118}, {"note": 75, "velocity": 127, "duration": 66}, {"note": 0, "velocity": 0, "duration": 174}, {"note": 73, "velocity": 127, "duration": 45}, {"note": 0, "velocity": 0, "duration": 75}, {"note": 75, "velocity": 127, "duration": 328}, {"note": 0, "velocity": 0, "duration": 272}, {"note": 73, "velocity": 127, "duration": 119}, {"note": 0, "velocity": 0, "duration": 121}, {"note": 72, "velocity": 127, "duration": 87}, {"note": 73, "velocity": 127, "duration": 635}, {"note": 0, "velocity": 0, "duration": 1525}, {"note": 61, "velocity": 117, "duration": 61}, {"note": 63, "velocity": 97, "duration": 67}, {"note": 64, "velocity": 102, "duration": 158}, {"note": 0, "velocity": 0, "duration": 82}, {"note": 61, "velocity": 107, "duration": 97}, {"note": 0, "velocity": 0, "duration": 143}, {"note": 68, "velocity": 122, "duration": 175}, {"note": 0, "velocity": 0, "duration": 65}, {"note": 66, "velocity": 100, "duration": 53}, {"note": 0, "velocity": 0, "duration": 67}, {"note": 66, "velocity": 127, "duration": 289}, {"note": 0, "velocity": 0, "duration": 791}, {"note": 71, "velocity": 107, "duration": 93}, {"note": 68, "velocity": 117, "duration": 83}, {"note": 0, "velocity": 0, "duration": 157}, {"note": 66, "velocity": 107, "duration": 44}, {"note": 0, "velocity": 0, "duration": 76}, {"note": 64, "velocity": 100, "duration": 227}, {"note": 0, "velocity": 0, "duration": 133}, {"note": 61, "velocity": 107, "duration": 463}, {"note": 0, "velocity": 0, "duration": 377}, {"note": 61, "velocity": 100, "duration": 62}, {"note": 63, "velocity": 95, "duration": 57}, {"note": 0, "velocity": 0, "duration": 63}, {"note": 64, "velocity": 100, "duration": 142}, {"note": 0, "velocity": 0, "duration": 98}, {"note": 61, "velocity": 112, "duration": 109}, {"note": 0, "velocity": 0, "duration": 131}, {"note": 68, "velocity": 127, "duration": 163}, {"note": 0, "velocity": 0, "duration": 77}, {"note": 66, "velocity": 122, "duration": 54}, {"note": 0, "velocity": 0, "duration": 66}, {"note": 66, "velocity": 127, "duration": 236}, {"note": 0, "velocity": 0, "duration": 124}, {"note": 64, "velocity": 96, "duration": 78}, {"note": 66, "velocity": 97, "duration": 72}, {"note": 68, "velocity": 117, "duration": 156}, {"note": 0, "velocity": 0, "duration": 204}, {"note": 68, "velocity": 117, "duration": 48}, {"note": 0, "velocity": 0, "duration": 72}, {"note": 71, "velocity": 117, "duration": 98}, {"note": 68, "velocity": 127, "duration": 81}, {"note": 0, "velocity": 0, "duration": 159}, {"note": 66, "velocity": 102, "duration": 53}, {"note": 0, "velocity": 0, "duration": 67}, {"note": 68, "velocity": 127, "duration": 389}, {"note": 0, "velocity": 0, "duration": 811}, {"note": 66, "velocity": 127, "duration": 40}, {"note": 0, "velocity": 0, "duration": 80}, {"note": 66, "velocity": 97, "duration": 45}, {"note": 0, "velocity": 0, "duration": 75}, {"note": 66, "velocity": 127, "duration": 122}, {"note": 0, "velocity": 0, "duration": 118}, {"note": 68, "velocity": 102, "duration": 38}, {"note": 0, "velocity": 0, "duration": 82}, {"note": 69, "velocity": 117, "duration": 416}, {"note": 0, "velocity": 0, "duration": 424}, {"note": 69, "velocity": 112, "duration": 49}, {"note": 0, "velocity": 0, "duration": 71}, {"note": 69, "velocity": 96, "duration": 58}, {"note": 0, "velocity": 0, "duration": 62}, {"note": 68, "velocity": 117, "duration": 117}, {"note": 0, "velocity": 0, "duration": 123}, {"note": 66, "velocity": 97, "duration": 49}, {"note": 0, "velocity": 0, "duration": 71}, {"note": 68, "velocity": 117, "duration": 167}, {"note": 0, "velocity": 0, "duration": 193}, {"note": 64, "velocity": 112, "duration": 503}, {"note": 0, "velocity": 0, "duration": 457}, {"note": 63, "velocity": 117, "duration": 43}, {"note": 0, "velocity": 0, "duration": 77}, {"note": 63, "velocity": 93, "duration": 52}, {"note": 0, "velocity": 0, "duration": 68}, {"note": 64, "velocity": 112, "duration": 355}, {"note": 0, "velocity": 0, "duration": 245}, {"note": 61, "velocity": 99, "duration": 140}, {"note": 0, "velocity": 0, "duration": 100}, {"note": 63, "velocity": 100, "duration": 65}, {"note": 64, "velocity": 99, "duration": 284}, {"note": 0, "velocity": 0, "duration": 196}, {"note": 64, "velocity": 102, "duration": 154}, {"note": 0, "velocity": 0, "duration": 86}, {"note": 66, "velocity": 112, "duration": 148}, {"note": 0, "velocity": 0, "duration": 92}, {"note": 68, "velocity": 122, "duration": 161}, {"note": 0, "velocity": 0, "duration": 79}, {"note": 68, "velocity": 122, "duration": 54}, {"note": 0, "velocity": 0, "duration": 66}, {"note": 68, "velocity": 127, "duration": 101}, {"note": 0, "velocity": 0, "duration": 139}, {"note": 66, "velocity": 117, "duration": 145}, {"note": 0, "velocity": 0, "duration": 95}, {"note": 68, "velocity": 117, "duration": 440}, {"note": 0, "velocity": 0, "duration": 880}, {"note": 61, "velocity": 117, "duration": 61}, {"note": 63, "velocity": 97, "duration": 67}, {"note": 64, "velocity": 102, "duration": 158}, {"note": 0, "velocity": 0, "duration": 82}, {"note": 61, "velocity": 107, "duration": 97}, {"note": 0, "velocity": 0, "duration": 143}, {"note": 68, "velocity": 122, "duration": 175}, {"note": 0, "velocity": 0, "duration": 65}, {"note": 66, "velocity": 100, "duration": 53}, {"note": 0, "velocity": 0, "duration": 67}, {"note": 66, "velocity": 127, "duration": 289}, {"note": 0, "velocity": 0, "duration": 791}, {"note": 71, "velocity": 107, "duration": 93}, {"note": 68, "velocity": 117, "duration": 83}, {"note": 0, "velocity": 0, "duration": 157}, {"note": 66, "velocity": 107, "duration": 44}, {"note": 0, "velocity": 0, "duration": 76}, {"note": 64, "velocity": 100, "duration": 227}, {"note": 0, "velocity": 0, "duration": 133}, {"note": 61, "velocity": 107, "duration": 463}, {"note": 0, "velocity": 0, "duration": 377}, {"note": 61, "velocity": 100, "duration": 62}, {"note": 63, "velocity": 95, "duration": 57}, {"note": 0, "velocity": 0, "duration": 63}, {"note": 64, "velocity": 100, "duration": 142}, {"note": 0, "velocity": 0, "duration": 98}, {"note": 61, "velocity": 112, "duration": 109}, {"note": 0, "velocity": 0, "duration": 131}, {"note": 68, "velocity": 127, "duration": 163}, {"note": 0, "velocity": 0, "duration": 77}, {"note": 66, "velocity": 122, "duration": 54}, {"note": 0, "velocity": 0, "duration": 66}, {"note": 66, "velocity": 127, "duration": 236}, {"note": 0, "velocity": 0, "duration": 124}, {"note": 64, "velocity": 96, "duration": 78}, {"note": 66, "velocity": 97, "duration": 72}, {"note": 68, "velocity": 117, "duration": 156}, {"note": 0, "velocity": 0, "duration": 204}, {"note": 68, "velocity": 117, "duration": 48}, {"note": 0, "velocity": 0, "duration": 72}, {"note": 71, "velocity": 117, "duration": 98}, {"note": 68, "velocity": 127, "duration": 81}, {"note": 0, "velocity": 0, "duration": 159}, {"note": 66, "velocity": 102, "duration": 53}, {"note": 0, "velocity": 0, "duration": 67}, {"note": 68, "velocity": 127, "duration": 960}, {"note": 0, "velocity": 0, "duration": 240}, {"note": 66, "velocity": 127, "duration": 40}, {"note": 0, "velocity": 0, "duration": 80}, {"note": 66, "velocity": 97, "duration": 45}, {"note": 0, "velocity": 0, "duration": 75}, {"note": 66, "velocity": 127, "duration": 122}, {"note": 0, "velocity": 0, "duration": 118}, {"note": 68, "velocity": 102, "duration": 38}, {"note": 0, "velocity": 0, "duration": 82}, {"note": 69, "velocity": 117, "duration": 428}, {"note": 0, "velocity": 0, "duration": 412}, {"note": 68, "velocity": 127, "duration": 60}, {"note": 76, "velocity": 97, "duration": 97}, {"note": 75, "velocity": 127, "duration": 123}, {"note": 0, "velocity": 0, "duration": 117}, {"note": 73, "velocity": 122, "duration": 58}, {"note": 0, "velocity": 0, "duration": 62}, {"note": 73, "velocity": 100, "duration": 85}, {"note": 0, "velocity": 0, "duration": 155}, {"note": 68, "velocity": 117, "duration": 428}, {"note": 0, "velocity": 0, "duration": 652}, {"note": 66, "velocity": 107, "duration": 52}, {"note": 0, "velocity": 0, "duration": 68}, {"note": 68, "velocity": 99, "duration": 52}, {"note": 0, "velocity": 0, "duration": 68}, {"note": 69, "velocity": 117, "duration": 343}, {"note": 0, "velocity": 0, "duration": 257}, {"note": 66, "velocity": 122, "duration": 129}, {"note": 0, "velocity": 0, "duration": 111}, {"note": 68, "velocity": 117, "duration": 51}, {"note": 0, "velocity": 0, "duration": 69}, {"note": 69, "velocity": 117, "duration": 253}, {"note": 0, "velocity": 0, "duration": 227}, {"note": 68, "velocity": 127, "duration": 157}, {"note": 0, "velocity": 0, "duration": 83}, {"note": 66, "velocity": 117, "duration": 158}, {"note": 0, "velocity": 0, "duration": 82}, {"note": 68, "velocity": 127, "duration": 138}, {"note": 0, "velocity": 0, "duration": 102}, {"note": 68, "velocity": 122, "duration": 46}, {"note": 0, "velocity": 0, "duration": 74}, {"note": 68, "velocity": 112, "duration": 139}, {"note": 0, "velocity": 0, "duration": 101}, {"note": 76, "velocity": 102, "duration": 272}, {"note": 0, "velocity": 0, "duration": 88}, {"note": 75, "velocity": 127, "duration": 181}, {"note": 0, "velocity": 0, "duration": 299}, {"note": 68, "velocity": 127, "duration": 76}, {"note": 76, "velocity": 100, "duration": 144}, {"note": 75, "velocity": 127, "duration": 118}, {"note": 71, "velocity": 102, "duration": 114}, {"note": 73, "velocity": 127, "duration": 210}, {"note": 73, "velocity": 127, "duration": 109}, {"note": 0, "velocity": 0, "duration": 131}, {"note": 71, "velocity": 117, "duration": 113}, {"note": 0, "velocity": 0, "duration": 127}, {"note": 73, "velocity": 127, "duration": 37}, {"note": 0, "velocity": 0, "duration": 83}, {"note": 75, "velocity": 127, "duration": 331}, {"note": 68, "velocity": 127, "duration": 225}, {"note": 0, "velocity": 0, "duration": 255}, {"note": 68, "velocity": 127, "duration": 70}, {"note": 71, "velocity": 97, "duration": 65}, {"note": 73, "velocity": 127, "duration": 100}, {"note": 0, "velocity": 0, "duration": 140}, {"note": 73, "velocity": 127, "duration": 96}, {"note": 0, "velocity": 0, "duration": 144}, {"note": 71, "velocity": 107, "duration": 106}, {"note": 0, "velocity": 0, "duration": 134}, {"note": 64, "velocity": 112, "duration": 87}, {"note": 71, "velocity": 112, "duration": 165}, {"note": 0, "velocity": 0, "duration": 75}, {"note": 68, "velocity": 127, "duration": 374}, {"note": 0, "velocity": 0, "duration": 226}, {"note": 66, "velocity": 122, "duration": 40}, {"note": 0, "velocity": 0, "duration": 80}, {"note": 66, "velocity": 112, "duration": 38}, {"note": 0, "velocity": 0, "duration": 82}, {"note": 66, "velocity": 127, "duration": 139}, {"note": 0, "velocity": 0, "duration": 101}, {"note": 68, "velocity": 127, "duration": 41}, {"note": 0, "velocity": 0, "duration": 79}, {"note": 73, "velocity": 83, "duration": 149}, {"note": 0, "velocity": 0, "duration": 211}, {"note": 68, "velocity": 127, "duration": 55}, {"note": 0, "velocity": 0, "duration": 65}, {"note": 66, "velocity": 117, "duration": 53}, {"note": 0, "velocity": 0, "duration": 67}, {"note": 68, "velocity": 127, "duration": 119}, {"note": 0, "velocity": 0, "duration": 121}, {"note": 73, "velocity": 127, "duration": 43}, {"note": 0, "velocity": 0, "duration": 77}, {"note": 76, "velocity": 122, "duration": 256}, {"note": 0, "velocity": 0, "duration": 224}, {"note": 73, "velocity": 107, "duration": 41}, {"note": 0, "velocity": 0, "duration": 79}, {"note": 80, "velocity": 127, "duration": 112}, {"note": 78, "velocity": 127, "duration": 76}, {"note": 0, "velocity": 0, "duration": 164}, {"note": 76, "velocity": 102, "duration": 60}, {"note": 76, "velocity": 127, "duration": 118}, {"note": 75, "velocity": 127, "duration": 66}, {"note": 0, "velocity": 0, "duration": 174}, {"note": 73, "velocity": 127, "duration": 45}, {"note": 0, "velocity": 0, "duration": 75}, {"note": 75, "velocity": 127, "duration": 328}, {"note": 0, "velocity": 0, "duration": 152}, {"note": 68, "velocity": 127, "duration": 76}, {"note": 76, "velocity": 100, "duration": 144}, {"note": 75, "velocity": 127, "duration": 118}, {"note": 71, "velocity": 102, "duration": 114}, {"note": 73, "velocity": 127, "duration": 210}, {"note": 73, "velocity": 127, "duration": 109}, {"note": 0, "velocity": 0, "duration": 131}, {"note": 71, "velocity": 117, "duration": 113}, {"note": 0, "velocity": 0, "duration": 127}, {"note": 73, "velocity": 127, "duration": 37}, {"note": 0, "velocity": 0, "duration": 83}, {"note": 75, "velocity": 127, "duration": 331}, {"note": 68, "velocity": 127, "duration": 225}, {"note": 0, "velocity": 0, "duration": 255}, {"note": 68, "velocity": 127, "duration": 70}, {"note": 71, "velocity": 97, "duration": 65}, {"note": 73, "velocity": 127, "duration": 100}, {"note": 0, "velocity": 0, "duration": 140}, {"note": 73, "velocity": 127, "duration": 96}, {"note": 0, "velocity": 0, "duration": 144}, {"note": 71, "velocity": 107, "duration": 106}, {"note": 0, "velocity": 0, "duration": 134}, {"note": 64, "velocity": 112, "duration": 87}, {"note": 71, "velocity": 112, "duration": 165}, {"note": 0, "velocity": 0, "duration": 75}, {"note": 68, "velocity": 127, "duration": 374}, {"note": 0, "velocity": 0, "duration": 226}, {"note": 66, "velocity": 122, "duration": 40}, {"note": 0, "velocity": 0, "duration": 80}, {"note": 66, "velocity": 112, "duration": 38}, {"note": 0, "velocity": 0, "duration": 82}, {"note": 66, "velocity": 127, "duration": 139}, {"note": 0, "velocity": 0, "duration": 101}, {"note": 68, "velocity": 127, "duration": 41}, {"note": 0, "velocity": 0, "duration": 79}, {"note": 73, "velocity": 83, "duration": 149}, {"note": 0, "velocity": 0, "duration": 211}, {"note": 68, "velocity": 127, "duration": 55}, {"note": 0, "velocity": 0, "duration": 65}, {"note": 66, "velocity": 117, "duration": 53}, {"note": 0, "velocity": 0, "duration": 67}, {"note": 68, "velocity": 127, "duration": 119}, {"note": 0, "velocity": 0, "duration": 121}, {"note": 73, "velocity": 127, "duration": 43}, {"note": 0, "velocity": 0, "duration": 77}, {"note": 76, "velocity": 122, "duration": 256}, {"note": 0, "velocity": 0, "duration": 224}, {"note": 73, "velocity": 107, "duration": 41}, {"note": 0, "velocity": 0, "duration": 79}, {"note": 80, "velocity": 127, "duration": 112}, {"note": 78, "velocity": 127, "duration": 76}, {"note": 0, "velocity": 0, "duration": 164}, {"note": 76, "velocity": 102, "duration": 60}, {"note": 76, "velocity": 127, "duration": 118}, {"note": 75, "velocity": 127, "duration": 66}, {"note": 0, "velocity": 0, "duration": 174}, {"note": 73, "velocity": 127, "duration": 45}, {"note": 0, "velocity": 0, "duration": 75}, {"note": 75, "velocity": 127, "duration": 328}, {"note": 0, "velocity": 0, "duration": 272}, {"note": 73, "velocity": 127, "duration": 119}, {"note": 0, "velocity": 0, "duration": 121}, {"note": 72, "velocity": 127, "duration": 87}, {"note": 73, "velocity": 127, "duration": 635}, {"note": 0, "velocity": 0, "duration": 22645}, {"note": 61, "velocity": 117, "duration": 61}, {"note": 63, "velocity": 97, "duration": 67}, {"note": 64, "velocity": 102, "duration": 158}, {"note": 0, "velocity": 0, "duration": 82}, {"note": 61, "velocity": 107, "duration": 97}, {"note": 0, "velocity": 0, "duration": 143}, {"note": 68, "velocity": 122, "duration": 175}, {"note": 0, "velocity": 0, "duration": 65}, {"note": 66, "velocity": 100, "duration": 53}, {"note": 0, "velocity": 0, "duration": 67}, {"note": 66, "velocity": 127, "duration": 289}, {"note": 0, "velocity": 0, "duration": 791}, {"note": 71, "velocity": 107, "duration": 93}, {"note": 68, "velocity": 117, "duration": 83}, {"note": 0, "velocity": 0, "duration": 157}, {"note": 66, "velocity": 107, "duration": 44}, {"note": 0, "velocity": 0, "duration": 76}, {"note": 64, "velocity": 100, "duration": 227}, {"note": 0, "velocity": 0, "duration": 133}, {"note": 61, "velocity": 107, "duration": 463}, {"note": 0, "velocity": 0, "duration": 377}, {"note": 61, "velocity": 100, "duration": 62}, {"note": 63, "velocity": 95, "duration": 57}, {"note": 0, "velocity": 0, "duration": 63}, {"note": 64, "velocity": 100, "duration": 142}, {"note": 0, "velocity": 0, "duration": 98}, {"note": 61, "velocity": 112, "duration": 109}, {"note": 0, "velocity": 0, "duration": 131}, {"note": 68, "velocity": 127, "duration": 163}, {"note": 0, "velocity": 0, "duration": 77}, {"note": 66, "velocity": 122, "duration": 54}, {"note": 0, "velocity": 0, "duration": 66}, {"note": 66, "velocity": 127, "duration": 236}, {"note": 0, "velocity": 0, "duration": 124}, {"note": 64, "velocity": 96, "duration": 78}, {"note": 66, "velocity": 97, "duration": 72}, {"note": 68, "velocity": 117, "duration": 156}, {"note": 0, "velocity": 0, "duration": 204}, {"note": 68, "velocity": 117, "duration": 48}, {"note": 0, "velocity": 0, "duration": 72}, {"note": 71, "velocity": 117, "duration": 98}, {"note": 68, "velocity": 127, "duration": 81}, {"note": 0, "velocity": 0, "duration": 159}, {"note": 66, "velocity": 102, "duration": 53}, {"note": 0, "velocity": 0, "duration": 67}, {"note": 68, "velocity": 127, "duration": 960}, {"note": 0, "velocity": 0, "duration": 240}, {"note": 66, "velocity": 127, "duration": 40}, {"note": 0, "velocity": 0, "duration": 80}, {"note": 66, "velocity": 97, "duration": 45}, {"note": 0, "velocity": 0, "duration": 75}, {"note": 66, "velocity": 127, "duration": 122}, {"note": 0, "velocity": 0, "duration": 118}, {"note": 68, "velocity": 102, "duration": 38}, {"note": 0, "velocity": 0, "duration": 82}, {"note": 69, "velocity": 117, "duration": 428}, {"note": 0, "velocity": 0, "duration": 412}, {"note": 68, "velocity": 127, "duration": 60}, {"note": 76, "velocity": 97, "duration": 97}, {"note": 75, "velocity": 127, "duration": 123}, {"note": 0, "velocity": 0, "duration": 117}, {"note": 73, "velocity": 122, "duration": 58}, {"note": 0, "velocity": 0, "duration": 62}, {"note": 73, "velocity": 100, "duration": 85}, {"note": 0, "velocity": 0, "duration": 155}, {"note": 68, "velocity": 117, "duration": 428}, {"note": 0, "velocity": 0, "duration": 652}, {"note": 66, "velocity": 107, "duration": 52}, {"note": 0, "velocity": 0, "duration": 68}, {"note": 68, "velocity": 99, "duration": 52}, {"note": 0, "velocity": 0, "duration": 68}, {"note": 69, "velocity": 117, "duration": 343}, {"note": 0, "velocity": 0, "duration": 257}, {"note": 66, "velocity": 122, "duration": 129}, {"note": 0, "velocity": 0, "duration": 111}, {"note": 68, "velocity": 117, "duration": 51}, {"note": 0, "velocity": 0, "duration": 69}, {"note": 69, "velocity": 117, "duration": 253}, {"note": 0, "velocity": 0, "duration": 227}, {"note": 68, "velocity": 127, "duration": 157}, {"note": 0, "velocity": 0, "duration": 83}, {"note": 66, "velocity": 117, "duration": 158}, {"note": 0, "velocity": 0, "duration": 82}, {"note": 68, "velocity": 127, "duration": 138}, {"note": 0, "velocity": 0, "duration": 102}, {"note": 68, "velocity": 122, "duration": 46}, {"note": 0, "velocity": 0, "duration": 74}, {"note": 68, "velocity": 112, "duration": 139}, {"note": 0, "velocity": 0, "duration": 101}, {"note": 76, "velocity": 102, "duration": 272}, {"note": 0, "velocity": 0, "duration": 88}, {"note": 75, "velocity": 127, "duration": 181}, {"note": 0, "velocity": 0, "duration": 299}, {"note": 68, "velocity": 127, "duration": 76}, {"note": 76, "velocity": 100, "duration": 144}, {"note": 75, "velocity": 127, "duration": 118}, {"note": 71, "velocity": 102, "duration": 114}, {"note": 73, "velocity": 127, "duration": 210}, {"note": 73, "velocity": 127, "duration": 109}, {"note": 0, "velocity": 0, "duration": 131}, {"note": 71, "velocity": 117, "duration": 113}, {"note": 0, "velocity": 0, "duration": 127}, {"note": 73, "velocity": 127, "duration": 37}, {"note": 0, "velocity": 0, "duration": 83}, {"note": 75, "velocity": 127, "duration": 331}, {"note": 68, "velocity": 127, "duration": 225}, {"note": 0, "velocity": 0, "duration": 255}, {"note": 68, "velocity": 127, "duration": 70}, {"note": 71, "velocity": 97, "duration": 65}, {"note": 73, "velocity": 127, "duration": 100}, {"note": 0, "velocity": 0, "duration": 140}, {"note": 73, "velocity": 127, "duration": 96}, {"note": 0, "velocity": 0, "duration": 144}, {"note": 71, "velocity": 107, "duration": 106}, {"note": 0, "velocity": 0, "duration": 134}, {"note": 64, "velocity": 112, "duration": 87}, {"note": 71, "velocity": 112, "duration": 165}, {"note": 0, "velocity": 0, "duration": 75}, {"note": 68, "velocity": 127, "duration": 374}, {"note": 0, "velocity": 0, "duration": 226}, {"note": 66, "velocity": 122, "duration": 40}, {"note": 0, "velocity": 0, "duration": 80}, {"note": 66, "velocity": 112, "duration": 38}, {"note": 0, "velocity": 0, "duration": 82}, {"note": 66, "velocity": 127, "duration": 139}, {"note": 0, "velocity": 0, "duration": 101}, {"note": 68, "velocity": 127, "duration": 41}, {"note": 0, "velocity": 0, "duration": 79}, {"note": 73, "velocity": 83, "duration": 149}, {"note": 0, "velocity": 0, "duration": 211}, {"note": 68, "velocity": 127, "duration": 55}, {"note": 0, "velocity": 0, "duration": 65}, {"note": 66, "velocity": 117, "duration": 53}, {"note": 0, "velocity": 0, "duration": 67}, {"note": 68, "velocity": 127, "duration": 119}, {"note": 0, "velocity": 0, "duration": 121}, {"note": 73, "velocity": 127, "duration": 43}, {"note": 0, "velocity": 0, "duration": 77}, {"note": 76, "velocity": 122, "duration": 256}, {"note": 0, "velocity": 0, "duration": 224}, {"note": 73, "velocity": 107, "duration": 41}, {"note": 0, "velocity": 0, "duration": 79}, {"note": 80, "velocity": 127, "duration": 112}, {"note": 78, "velocity": 127, "duration": 76}, {"note": 0, "velocity": 0, "duration": 164}, {"note": 76, "velocity": 102, "duration": 60}, {"note": 76, "velocity": 127, "duration": 118}, {"note": 75, "velocity": 127, "duration": 66}, {"note": 0, "velocity": 0, "duration": 174}, {"note": 73, "velocity": 127, "duration": 45}, {"note": 0, "velocity": 0, "duration": 75}, {"note": 75, "velocity": 127, "duration": 328}, {"note": 0, "velocity": 0, "duration": 152}, {"note": 68, "velocity": 127, "duration": 76}, {"note": 76, "velocity": 100, "duration": 144}, {"note": 75, "velocity": 127, "duration": 118}, {"note": 71, "velocity": 102, "duration": 114}, {"note": 73, "velocity": 127, "duration": 210}, {"note": 73, "velocity": 127, "duration": 109}, {"note": 0, "velocity": 0, "duration": 131}, {"note": 71, "velocity": 117, "duration": 113}, {"note": 0, "velocity": 0, "duration": 127}, {"note": 73, "velocity": 127, "duration": 37}, {"note": 0, "velocity": 0, "duration": 83}, {"note": 75, "velocity": 127, "duration": 331}, {"note": 68, "velocity": 127, "duration": 225}, {"note": 0, "velocity": 0, "duration": 255}, {"note": 68, "velocity": 127, "duration": 70}, {"note": 71, "velocity": 97, "duration": 65}, {"note": 73, "velocity": 127, "duration": 100}, {"note": 0, "velocity": 0, "duration": 140}, {"note": 73, "velocity": 127, "duration": 96}, {"note": 0, "velocity": 0, "duration": 144}, {"note": 71, "velocity": 107, "duration": 106}, {"note": 0, "velocity": 0, "duration": 134}, {"note": 64, "velocity": 112, "duration": 87}, {"note": 71, "velocity": 112, "duration": 165}, {"note": 0, "velocity": 0, "duration": 75}, {"note": 68, "velocity": 127, "duration": 374}, {"note": 0, "velocity": 0, "duration": 226}, {"note": 66, "velocity": 122, "duration": 40}, {"note": 0, "velocity": 0, "duration": 80}, {"note": 66, "velocity": 112, "duration": 38}, {"note": 0, "velocity": 0, "duration": 82}, {"note": 66, "velocity": 127, "duration": 139}, {"note": 0, "velocity": 0, "duration": 101}, {"note": 68, "velocity": 127, "duration": 41}, {"note": 0, "velocity": 0, "duration": 79}, {"note": 73, "velocity": 83, "duration": 149}, {"note": 0, "velocity": 0, "duration": 211}, {"note": 68, "velocity": 127, "duration": 55}, {"note": 0, "velocity": 0, "duration": 65}, {"note": 66, "velocity": 117, "duration": 53}, {"note": 0, "velocity": 0, "duration": 67}, {"note": 68, "velocity": 127, "duration": 119}, {"note": 0, "velocity": 0, "duration": 121}, {"note": 73, "velocity": 127, "duration": 43}, {"note": 0, "velocity": 0, "duration": 77}, {"note": 76, "velocity": 122, "duration": 256}, {"note": 0, "velocity": 0, "duration": 224}, {"note": 73, "velocity": 107, "duration": 41}, {"note": 0, "velocity": 0, "duration": 79}, {"note": 80, "velocity": 127, "duration": 112}, {"note": 78, "velocity": 127, "duration": 76}, {"note": 0, "velocity": 0, "duration": 164}, {"note": 76, "velocity": 102, "duration": 60}, {"note": 76, "velocity": 127, "duration": 118}, {"note": 75, "velocity": 127, "duration": 66}, {"note": 0, "velocity": 0, "duration": 174}, {"note": 73, "velocity": 127, "duration": 45}, {"note": 0, "velocity": 0, "duration": 75}, {"note": 75, "velocity": 127, "duration": 328}, {"note": 0, "velocity": 0, "duration": 272}, {"note": 73, "velocity": 127, "duration": 119}, {"note": 0, "velocity": 0, "duration": 121}, {"note": 72, "velocity": 127, "duration": 87}, {"note": 73, "velocity": 127, "duration": 635}, {"note": 0, "velocity": 0, "duration": 805}, {"note": 68, "velocity": 127, "duration": 76}, {"note": 76, "velocity": 100, "duration": 144}, {"note": 75, "velocity": 127, "duration": 118}, {"note": 71, "velocity": 102, "duration": 114}, {"note": 73, "velocity": 127, "duration": 210}, {"note": 73, "velocity": 127, "duration": 109}, {"note": 0, "velocity": 0, "duration": 131}, {"note": 71, "velocity": 117, "duration": 113}, {"note": 0, "velocity": 0, "duration": 127}, {"note": 73, "velocity": 127, "duration": 37}, {"note": 0, "velocity": 0, "duration": 83}, {"note": 75, "velocity": 127, "duration": 331}, {"note": 68, "velocity": 127, "duration": 225}, {"note": 0, "velocity": 0, "duration": 255}, {"note": 68, "velocity": 127, "duration": 70}, {"note": 71, "velocity": 97, "duration": 65}, {"note": 73, "velocity": 127, "duration": 100}, {"note": 0, "velocity": 0, "duration": 140}, {"note": 73, "velocity": 127, "duration": 96}, {"note": 0, "velocity": 0, "duration": 144}, {"note": 71, "velocity": 107, "duration": 106}, {"note": 0, "velocity": 0, "duration": 134}, {"note": 64, "velocity": 112, "duration": 87}, {"note": 71, "velocity": 112, "duration": 165}, {"note": 0, "velocity": 0, "duration": 75}, {"note": 68, "velocity": 127, "duration": 374}, {"note": 0, "velocity": 0, "duration": 226}, {"note": 66, "velocity": 122, "duration": 40}, {"note": 0, "velocity": 0, "duration": 80}, {"note": 66, "velocity": 112, "duration": 38}, {"note": 0, "velocity": 0, "duration": 82}, {"note": 66, "velocity": 127, "duration": 139}, {"note": 0, "velocity": 0, "duration": 101}, {"note": 68, "velocity": 127, "duration": 41}, {"note": 0, "velocity": 0, "duration": 79}, {"note": 73, "velocity": 83, "duration": 149}, {"note": 0, "velocity": 0, "duration": 211}, {"note": 68, "velocity": 127, "duration": 55}, {"note": 0, "velocity": 0, "duration": 65}, {"note": 66, "velocity": 117, "duration": 53}, {"note": 0, "velocity": 0, "duration": 67}, {"note": 68, "velocity": 127, "duration": 119}, {"note": 0, "velocity": 0, "duration": 121}, {"note": 73, "velocity": 127, "duration": 43}, {"note": 0, "velocity": 0, "duration": 77}, {"note": 76, "velocity": 122, "duration": 256}, {"note": 0, "velocity": 0, "duration": 224}, {"note": 73, "velocity": 107, "duration": 41}, {"note": 0, "velocity": 0, "duration": 79}, {"note": 80, "velocity": 127, "duration": 112}, {"note": 78, "velocity": 127, "duration": 76}, {"note": 0, "velocity": 0, "duration": 164}, {"note": 76, "velocity": 102, "duration": 60}, {"note": 76, "velocity": 127, "duration": 118}, {"note": 75, "velocity": 127, "duration": 66}, {"note": 0, "velocity": 0, "duration": 174}, {"note": 73, "velocity": 127, "duration": 45}, {"note": 0, "velocity": 0, "duration": 75}, {"note": 75, "velocity": 127, "duration": 328}, {"note": 0, "velocity": 0, "duration": 152}, {"note": 68, "velocity": 127, "duration": 76}, {"note": 76, "velocity": 100, "duration": 144}, {"note": 75, "velocity": 127, "duration": 118}, {"note": 71, "velocity": 102, "duration": 114}, {"note": 73, "velocity": 127, "duration": 210}, {"note": 73, "velocity": 127, "duration": 109}, {"note": 0, "velocity": 0, "duration": 131}, {"note": 71, "velocity": 117, "duration": 113}, {"note": 0, "velocity": 0, "duration": 127}, {"note": 73, "velocity": 127, "duration": 37}, {"note": 0, "velocity": 0, "duration": 83}, {"note": 75, "velocity": 127, "duration": 331}, {"note": 68, "velocity": 127, "duration": 225}, {"note": 0, "velocity": 0, "duration": 255}, {"note": 68, "velocity": 127, "duration": 70}, {"note": 71, "velocity": 97, "duration": 65}, {"note": 73, "velocity": 127, "duration": 100}, {"note": 0, "velocity": 0, "duration": 140}, {"note": 73, "velocity": 127, "duration": 96}, {"note": 0, "velocity": 0, "duration": 144}, {"note": 71, "velocity": 107, "duration": 106}, {"note": 0, "velocity": 0, "duration": 134}, {"note": 64, "velocity": 112, "duration": 87}, {"note": 71, "velocity": 112, "duration": 165}, {"note": 0, "velocity": 0, "duration": 75}, {"note": 68, "velocity": 127, "duration": 374}, {"note": 0, "velocity": 0, "duration": 226}, {"note": 66, "velocity": 122, "duration": 40}, {"note": 0, "velocity": 0, "duration": 80}, {"note": 66, "velocity": 112, "duration": 38}, {"note": 0, "velocity": 0, "duration": 82}, {"note": 66, "velocity": 127, "duration": 139}, {"note": 0, "velocity": 0, "duration": 101}, {"note": 68, "velocity": 127, "duration": 41}, {"note": 0, "velocity": 0, "duration": 79}, {"note": 73, "velocity": 83, "duration": 149}, {"note": 0, "velocity": 0, "duration": 211}, {"note": 68, "velocity": 127, "duration": 55}, {"note": 0, "velocity": 0, "duration": 65}, {"note": 66, "velocity": 117, "duration": 53}, {"note": 0, "velocity": 0, "duration": 67}, {"note": 68, "velocity": 127, "duration": 119}, {"note": 0, "velocity": 0, "duration": 121}, {"note": 73, "velocity": 127, "duration": 43}, {"note": 0, "velocity": 0, "duration": 77}, {"note": 76, "velocity": 122, "duration": 256}, {"note": 0, "velocity": 0, "duration": 224}, {"note": 73, "velocity": 107, "duration": 41}, {"note": 0, "velocity": 0, "duration": 79}, {"note": 80, "velocity": 127, "duration": 112}, {"note": 78, "velocity": 127, "duration": 76}, {"note": 0, "velocity": 0, "duration": 164}, {"note": 76, "velocity": 102, "duration": 60}, {"note": 76, "velocity": 127, "duration": 118}, {"note": 75, "velocity": 127, "duration": 66}, {"note": 0, "velocity": 0, "duration": 174}, {"note": 73, "velocity": 127, "duration": 45}, {"note": 0, "velocity": 0, "duration": 75}, {"note": 75, "velocity": 127, "duration": 328}, {"note": 0, "velocity": 0, "duration": 272}, {"note": 73, "velocity": 127, "duration": 119}, {"note": 0, "velocity": 0, "duration": 121}, {"note": 72, "velocity": 127, "duration": 87}, {"note": 73, "velocity": 127, "duration": 635}]]