[[{"note": 60, "velocity": 97, "duration": 248}, {"note": 63, "velocity": 102, "duration": 251}, {"note": 65, "velocity": 89, "duration": 240}, {"note": 68, "velocity": 112, "duration": 227}, {"note": 65, "velocity": 90, "duration": 263}, {"note": 70, "velocity": 122, "duration": 775}, {"note": 0, "velocity": 0, "duration": 425}, {"note": 72, "velocity": 100, "duration": 159}, {"note": 70, "velocity": 90, "duration": 148}, {"note": 68, "velocity": 89, "duration": 619}, {"note": 0, "velocity": 0, "duration": 101}, {"note": 68, "velocity": 112, "duration": 222}, {"note": 70, "velocity": 99, "duration": 191}, {"note": 72, "velocity": 83, "duration": 178}, {"note": 0, "velocity": 0, "duration": 62}, {"note": 72, "velocity": 112, "duration": 249}, {"note": 70, "velocity": 79, "duration": 181}, {"note": 70, "velocity": 112, "duration": 257}, {"note": 68, "velocity": 90, "duration": 242}, {"note": 65, "velocity": 89, "duration": 1066}, {"note": 0, "velocity": 0, "duration": 1574}, {"note": 60, "velocity": 93, "duration": 215}, {"note": 63, "velocity": 107, "duration": 395}, {"note": 0, "velocity": 0, "duration": 85}, {"note": 65, "velocity": 93, "duration": 251}, {"note": 68, "velocity": 102, "duration": 268}, {"note": 70, "velocity": 100, "duration": 294}, {"note": 0, "velocity": 0, "duration": 186}, {"note": 70, "velocity": 112, "duration": 337}, {"note": 0, "velocity": 0, "duration": 143}, {"note": 70, "velocity": 122, "duration": 287}, {"note": 0, "velocity": 0, "duration": 193}, {"note": 70, "velocity": 112, "duration": 227}, {"note": 68, "velocity": 100, "duration": 423}, {"note": 70, "velocity": 117, "duration": 166}, {"note": 0, "velocity": 0, "duration": 74}, {"note": 70, "velocity": 122, "duration": 193}, {"note": 72, "velocity": 97, "duration": 162}, {"note": 0, "velocity": 0, "duration": 78}, {"note": 72, "velocity": 100, "duration": 231}, {"note": 70, "velocity": 66, "duration": 157}, {"note": 0, "velocity": 0, "duration": 83}, {"note": 70, "velocity": 112, "duration": 274}, {"note": 68, "velocity": 73, "duration": 246}, {"note": 65, "velocity": 85, "duration": 1402}, {"note": 0, "velocity": 0, "duration": 1238}, {"note": 60, "velocity": 97, "duration": 248}, {"note": 63, "velocity": 102, "duration": 251}, {"note": 65, "velocity": 89, "duration": 240}, {"note": 68, "velocity": 112, "duration": 227}, {"note": 65, "velocity": 90, "duration": 263}, {"note": 70, "velocity": 122, "duration": 775}, {"note": 0, "velocity": 0, "duration": 425}, {"note": 72, "velocity": 100, "duration": 159}, {"note": 70, "velocity": 90, "duration": 148}, {"note": 68, "velocity": 89, "duration": 619}, {"note": 0, "velocity": 0, "duration": 101}, {"note": 68, "velocity": 112, "duration": 222}, {"note": 70, "velocity": 99, "duration": 191}, {"note": 72, "velocity": 83, "duration": 178}, {"note": 0, "velocity": 0, "duration": 62}, {"note": 72, "velocity": 112, "duration": 249}, {"note": 70, "velocity": 79, "duration": 181}, {"note": 70, "velocity": 112, "duration": 257}, {"note": 68, "velocity": 90, "duration": 242}, {"note": 65, "velocity": 89, "duration": 1066}, {"note": 0, "velocity": 0, "duration": 1574}, {"note": 60, "velocity": 93, "duration": 215}, {"note": 63, "velocity": 107, "duration": 395}, {"note": 0, "velocity": 0, "duration": 85}, {"note": 65, "velocity": 93, "duration": 251}, {"note": 68, "velocity": 102, "duration": 268}, {"note": 70, "velocity": 100, "duration": 294}, {"note": 0, "velocity": 0, "duration": 186}, {"note": 70, "velocity": 112, "duration": 337}, {"note": 0, "velocity": 0, "duration": 143}, {"note": 70, "velocity": 122, "duration": 287}, {"note": 0, "velocity": 0, "duration": 193}, {"note": 70, "velocity": 112, "duration": 227}, {"note": 68, "velocity": 100, "duration": 423}, {"note": 70, "velocity": 117, "duration": 166}, {"note": 0, "velocity": 0, "duration": 74}, {"note": 70, "velocity": 122, "duration": 193}, {"note": 72, "velocity": 97, "duration": 162}, {"note": 0, "velocity": 0, "duration": 78}, {"note": 72, "velocity": 100, "duration": 231}, {"note": 70, "velocity": 66, "duration": 157}, {"note": 0, "velocity": 0, "duration": 83}, {"note": 70, "velocity": 112, "duration": 274}, {"note": 68, "velocity": 73, "duration": 246}, {"note": 65, "velocity": 85, "duration": 1402}, {"note": 0, "velocity": 0, "duration": 1238}, {"note": 68, "velocity": 82, "duration": 146}, {"note": 0, "velocity": 0, "duration": 94}, {"note": 68, "velocity": 122, "duration": 391}, {"note": 0, "velocity": 0, "duration": 89}, {"note": 70, "velocity": 122, "duration": 171}, {"note": 0, "velocity": 0, "duration": 69}, {"note": 72, "velocity": 90, "duration": 246}, {"note": 75, "velocity": 122, "duration": 193}, {"note": 75, "velocity": 102, "duration": 176}, {"note": 0, "velocity": 0, "duration": 64}, {"note": 75, "velocity": 112, "duration": 215}, {"note": 72, "velocity": 86, "duration": 234}, {"note": 75, "velocity": 122, "duration": 175}, {"note": 0, "velocity": 0, "duration": 65}, {"note": 77, "velocity": 112, "duration": 152}, {"note": 0, "velocity": 0, "duration": 88}, {"note": 77, "velocity": 96, "duration": 177}, {"note": 0, "velocity": 0, "duration": 63}, {"note": 75, "velocity": 102, "duration": 197}, {"note": 77, "velocity": 107, "duration": 185}, {"note": 77, "velocity": 107, "duration": 162}, {"note": 0, "velocity": 0, "duration": 78}, {"note": 77, "velocity": 102, "duration": 157}, {"note": 0, "velocity": 0, "duration": 83}, {"note": 75, "velocity": 102, "duration": 202}, {"note": 72, "velocity": 107, "duration": 229}, {"note": 0, "velocity": 0, "duration": 251}, {"note": 75, "velocity": 127, "duration": 225}, {"note": 77, "velocity": 107, "duration": 196}, {"note": 80, "velocity": 122, "duration": 163}, {"note": 0, "velocity": 0, "duration": 77}, {"note": 80, "velocity": 127, "duration": 166}, {"note": 0, "velocity": 0, "duration": 74}, {"note": 80, "velocity": 127, "duration": 185}, {"note": 80, "velocity": 127, "duration": 144}, {"note": 0, "velocity": 0, "duration": 96}, {"note": 80, "velocity": 127, "duration": 129}, {"note": 0, "velocity": 0, "duration": 111}, {"note": 77, "velocity": 112, "duration": 167}, {"note": 0, "velocity": 0, "duration": 73}, {"note": 77, "velocity": 96, "duration": 132}, {"note": 0, "velocity": 0, "duration": 108}, {"note": 80, "velocity": 127, "duration": 194}, {"note": 77, "velocity": 117, "duration": 174}, {"note": 0, "velocity": 0, "duration": 66}, {"note": 77, "velocity": 99, "duration": 167}, {"note": 0, "velocity": 0, "duration": 73}, {"note": 77, "velocity": 107, "duration": 158}, {"note": 0, "velocity": 0, "duration": 82}, {"note": 75, "velocity": 127, "duration": 157}, {"note": 0, "velocity": 0, "duration": 83}, {"note": 72, "velocity": 117, "duration": 355}, {"note": 0, "velocity": 0, "duration": 125}, {"note": 75, "velocity": 127, "duration": 215}, {"note": 72, "velocity": 100, "duration": 232}, {"note": 70, "velocity": 112, "duration": 164}, {"note": 0, "velocity": 0, "duration": 76}, {"note": 70, "velocity": 112, "duration": 173}, {"note": 0, "velocity": 0, "duration": 67}, {"note": 70, "velocity": 127, "duration": 195}, {"note": 68, "velocity": 112, "duration": 195}, {"note": 65, "velocity": 100, "duration": 297}, {"note": 0, "velocity": 0, "duration": 183}, {"note": 68, "velocity": 127, "duration": 192}, {"note": 70, "velocity": 112, "duration": 156}, {"note": 0, "velocity": 0, "duration": 84}, {"note": 70, "velocity": 122, "duration": 419}, {"note": 0, "velocity": 0, "duration": 61}, {"note": 70, "velocity": 117, "duration": 170}, {"note": 0, "velocity": 0, "duration": 70}, {"note": 72, "velocity": 102, "duration": 219}, {"note": 75, "velocity": 122, "duration": 182}, {"note": 77, "velocity": 127, "duration": 154}, {"note": 0, "velocity": 0, "duration": 86}, {"note": 77, "velocity": 107, "duration": 233}, {"note": 75, "velocity": 117, "duration": 318}, {"note": 0, "velocity": 0, "duration": 162}, {"note": 72, "velocity": 112, "duration": 652}, {"note": 0, "velocity": 0, "duration": 548}, {"note": 68, "velocity": 122, "duration": 220}, {"note": 70, "velocity": 117, "duration": 176}, {"note": 0, "velocity": 0, "duration": 64}, {"note": 75, "velocity": 122, "duration": 193}, {"note": 75, "velocity": 102, "duration": 176}, {"note": 0, "velocity": 0, "duration": 64}, {"note": 75, "velocity": 112, "duration": 215}, {"note": 72, "velocity": 86, "duration": 234}, {"note": 75, "velocity": 122, "duration": 175}, {"note": 0, "velocity": 0, "duration": 65}, {"note": 77, "velocity": 112, "duration": 152}, {"note": 0, "velocity": 0, "duration": 88}, {"note": 77, "velocity": 96, "duration": 177}, {"note": 0, "velocity": 0, "duration": 63}, {"note": 75, "velocity": 102, "duration": 197}, {"note": 77, "velocity": 107, "duration": 185}, {"note": 77, "velocity": 107, "duration": 162}, {"note": 0, "velocity": 0, "duration": 78}, {"note": 77, "velocity": 102, "duration": 157}, {"note": 0, "velocity": 0, "duration": 83}, {"note": 75, "velocity": 102, "duration": 202}, {"note": 72, "velocity": 107, "duration": 229}, {"note": 0, "velocity": 0, "duration": 251}, {"note": 75, "velocity": 127, "duration": 225}, {"note": 77, "velocity": 107, "duration": 196}, {"note": 80, "velocity": 122, "duration": 163}, {"note": 0, "velocity": 0, "duration": 77}, {"note": 80, "velocity": 127, "duration": 166}, {"note": 0, "velocity": 0, "duration": 74}, {"note": 80, "velocity": 127, "duration": 185}, {"note": 80, "velocity": 127, "duration": 144}, {"note": 0, "velocity": 0, "duration": 96}, {"note": 80, "velocity": 127, "duration": 129}, {"note": 0, "velocity": 0, "duration": 111}, {"note": 77, "velocity": 112, "duration": 167}, {"note": 0, "velocity": 0, "duration": 73}, {"note": 77, "velocity": 96, "duration": 132}, {"note": 0, "velocity": 0, "duration": 108}, {"note": 80, "velocity": 127, "duration": 194}, {"note": 77, "velocity": 117, "duration": 174}, {"note": 0, "velocity": 0, "duration": 66}, {"note": 77, "velocity": 99, "duration": 167}, {"note": 0, "velocity": 0, "duration": 73}, {"note": 77, "velocity": 107, "duration": 158}, {"note": 0, "velocity": 0, "duration": 82}, {"note": 75, "velocity": 127, "duration": 157}, {"note": 0, "velocity": 0, "duration": 83}, {"note": 72, "velocity": 117, "duration": 355}, {"note": 0, "velocity": 0, "duration": 125}, {"note": 75, "velocity": 127, "duration": 215}, {"note": 72, "velocity": 100, "duration": 232}, {"note": 70, "velocity": 112, "duration": 164}, {"note": 0, "velocity": 0, "duration": 76}, {"note": 70, "velocity": 112, "duration": 173}, {"note": 0, "velocity": 0, "duration": 67}, {"note": 70, "velocity": 127, "duration": 195}, {"note": 68, "velocity": 112, "duration": 195}, {"note": 65, "velocity": 100, "duration": 297}, {"note": 0, "velocity": 0, "duration": 183}, {"note": 68, "velocity": 127, "duration": 192}, {"note": 70, "velocity": 112, "duration": 156}, {"note": 0, "velocity": 0, "duration": 84}, {"note": 70, "velocity": 122, "duration": 419}, {"note": 0, "velocity": 0, "duration": 61}, {"note": 70, "velocity": 117, "duration": 170}, {"note": 0, "velocity": 0, "duration": 70}, {"note": 72, "velocity": 102, "duration": 219}, {"note": 70, "velocity": 107, "duration": 362}, {"note": 0, "velocity": 0, "duration": 118}, {"note": 68, "velocity": 107, "duration": 223}, {"note": 65, "velocity": 75, "duration": 165}, {"note": 0, "velocity": 0, "duration": 75}, {"note": 65, "velocity": 99, "duration": 1292}, {"note": 0, "velocity": 0, "duration": 7108}, {"note": 60, "velocity": 97, "duration": 248}, {"note": 63, "velocity": 102, "duration": 251}, {"note": 65, "velocity": 89, "duration": 240}, {"note": 68, "velocity": 112, "duration": 227}, {"note": 65, "velocity": 90, "duration": 263}, {"note": 70, "velocity": 122, "duration": 775}, {"note": 0, "velocity": 0, "duration": 425}, {"note": 72, "velocity": 100, "duration": 159}, {"note": 70, "velocity": 90, "duration": 148}, {"note": 68, "velocity": 89, "duration": 619}, {"note": 0, "velocity": 0, "duration": 101}, {"note": 68, "velocity": 112, "duration": 222}, {"note": 70, "velocity": 99, "duration": 191}, {"note": 72, "velocity": 83, "duration": 178}, {"note": 0, "velocity": 0, "duration": 62}, {"note": 72, "velocity": 112, "duration": 249}, {"note": 70, "velocity": 79, "duration": 181}, {"note": 70, "velocity": 112, "duration": 257}, {"note": 68, "velocity": 90, "duration": 242}, {"note": 65, "velocity": 89, "duration": 1066}, {"note": 0, "velocity": 0, "duration": 1574}, {"note": 60, "velocity": 93, "duration": 215}, {"note": 63, "velocity": 107, "duration": 395}, {"note": 0, "velocity": 0, "duration": 85}, {"note": 65, "velocity": 93, "duration": 251}, {"note": 68, "velocity": 102, "duration": 268}, {"note": 70, "velocity": 100, "duration": 294}, {"note": 0, "velocity": 0, "duration": 186}, {"note": 70, "velocity": 112, "duration": 337}, {"note": 0, "velocity": 0, "duration": 143}, {"note": 70, "velocity": 122, "duration": 287}, {"note": 0, "velocity": 0, "duration": 193}, {"note": 70, "velocity": 112, "duration": 227}, {"note": 68, "velocity": 100, "duration": 423}, {"note": 70, "velocity": 117, "duration": 166}, {"note": 0, "velocity": 0, "duration": 74}, {"note": 70, "velocity": 122, "duration": 193}, {"note": 72, "velocity": 97, "duration": 162}, {"note": 0, "velocity": 0, "duration": 78}, {"note": 72, "velocity": 100, "duration": 231}, {"note": 70, "velocity": 66, "duration": 157}, {"note": 0, "velocity": 0, "duration": 83}, {"note": 70, "velocity": 112, "duration": 274}, {"note": 68, "velocity": 73, "duration": 246}, {"note": 65, "velocity": 85, "duration": 1402}, {"note": 0, "velocity": 0, "duration": 1238}, {"note": 68, "velocity": 82, "duration": 146}, {"note": 0, "velocity": 0, "duration": 94}, {"note": 68, "velocity": 122, "duration": 391}, {"note": 0, "velocity": 0, "duration": 89}, {"note": 70, "velocity": 122, "duration": 171}, {"note": 0, "velocity": 0, "duration": 69}, {"note": 72, "velocity": 90, "duration": 246}, {"note": 75, "velocity": 122, "duration": 193}, {"note": 75, "velocity": 102, "duration": 176}, {"note": 0, "velocity": 0, "duration": 64}, {"note": 75, "velocity": 112, "duration": 215}, {"note": 72, "velocity": 86, "duration": 234}, {"note": 75, "velocity": 122, "duration": 175}, {"note": 0, "velocity": 0, "duration": 65}, {"note": 77, "velocity": 112, "duration": 152}, {"note": 0, "velocity": 0, "duration": 88}, {"note": 77, "velocity": 96, "duration": 177}, {"note": 0, "velocity": 0, "duration": 63}, {"note": 75, "velocity": 102, "duration": 197}, {"note": 77, "velocity": 107, "duration": 185}, {"note": 77, "velocity": 107, "duration": 162}, {"note": 0, "velocity": 0, "duration": 78}, {"note": 77, "velocity": 102, "duration": 157}, {"note": 0, "velocity": 0, "duration": 83}, {"note": 75, "velocity": 102, "duration": 202}, {"note": 72, "velocity": 107, "duration": 229}, {"note": 0, "velocity": 0, "duration": 251}, {"note": 75, "velocity": 127, "duration": 225}, {"note": 77, "velocity": 107, "duration": 196}, {"note": 80, "velocity": 122, "duration": 163}, {"note": 0, "velocity": 0, "duration": 77}, {"note": 80, "velocity": 127, "duration": 166}, {"note": 0, "velocity": 0, "duration": 74}, {"note": 80, "velocity": 127, "duration": 185}, {"note": 80, "velocity": 127, "duration": 144}, {"note": 0, "velocity": 0, "duration": 96}, {"note": 80, "velocity": 127, "duration": 129}, {"note": 0, "velocity": 0, "duration": 111}, {"note": 77, "velocity": 112, "duration": 167}, {"note": 0, "velocity": 0, "duration": 73}, {"note": 77, "velocity": 96, "duration": 132}, {"note": 0, "velocity": 0, "duration": 108}, {"note": 80, "velocity": 127, "duration": 194}, {"note": 77, "velocity": 117, "duration": 174}, {"note": 0, "velocity": 0, "duration": 66}, {"note": 77, "velocity": 99, "duration": 167}, {"note": 0, "velocity": 0, "duration": 73}, {"note": 77, "velocity": 107, "duration": 158}, {"note": 0, "velocity": 0, "duration": 82}, {"note": 75, "velocity": 127, "duration": 157}, {"note": 0, "velocity": 0, "duration": 83}, {"note": 72, "velocity": 117, "duration": 355}, {"note": 0, "velocity": 0, "duration": 125}, {"note": 75, "velocity": 127, "duration": 215}, {"note": 72, "velocity": 100, "duration": 232}, {"note": 70, "velocity": 112, "duration": 164}, {"note": 0, "velocity": 0, "duration": 76}, {"note": 70, "velocity": 112, "duration": 173}, {"note": 0, "velocity": 0, "duration": 67}, {"note": 70, "velocity": 127, "duration": 195}, {"note": 68, "velocity": 112, "duration": 195}, {"note": 65, "velocity": 100, "duration": 297}, {"note": 0, "velocity": 0, "duration": 183}, {"note": 68, "velocity": 127, "duration": 192}, {"note": 70, "velocity": 112, "duration": 156}, {"note": 0, "velocity": 0, "duration": 84}, {"note": 70, "velocity": 122, "duration": 419}, {"note": 0, "velocity": 0, "duration": 61}, {"note": 70, "velocity": 117, "duration": 170}, {"note": 0, "velocity": 0, "duration": 70}, {"note": 72, "velocity": 102, "duration": 219}, {"note": 75, "velocity": 122, "duration": 182}, {"note": 77, "velocity": 127, "duration": 154}, {"note": 0, "velocity": 0, "duration": 86}, {"note": 77, "velocity": 107, "duration": 233}, {"note": 75, "velocity": 117, "duration": 318}, {"note": 0, "velocity": 0, "duration": 162}, {"note": 72, "velocity": 112, "duration": 652}, {"note": 0, "velocity": 0, "duration": 548}, {"note": 68, "velocity": 122, "duration": 220}, {"note": 70, "velocity": 117, "duration": 176}, {"note": 0, "velocity": 0, "duration": 64}, {"note": 75, "velocity": 122, "duration": 193}, {"note": 75, "velocity": 102, "duration": 176}, {"note": 0, "velocity": 0, "duration": 64}, {"note": 75, "velocity": 112, "duration": 215}, {"note": 72, "velocity": 86, "duration": 234}, {"note": 75, "velocity": 122, "duration": 175}, {"note": 0, "velocity": 0, "duration": 65}, {"note": 77, "velocity": 112, "duration": 152}, {"note": 0, "velocity": 0, "duration": 88}, {"note": 77, "velocity": 96, "duration": 177}, {"note": 0, "velocity": 0, "duration": 63}, {"note": 75, "velocity": 102, "duration": 197}, {"note": 77, "velocity": 107, "duration": 185}, {"note": 77, "velocity": 107, "duration": 162}, {"note": 0, "velocity": 0, "duration": 78}, {"note": 77, "velocity": 102, "duration": 157}, {"note": 0, "velocity": 0, "duration": 83}, {"note": 75, "velocity": 102, "duration": 202}, {"note": 72, "velocity": 107, "duration": 229}, {"note": 0, "velocity": 0, "duration": 251}, {"note": 75, "velocity": 127, "duration": 225}, {"note": 77, "velocity": 107, "duration": 196}, {"note": 80, "velocity": 122, "duration": 163}, {"note": 0, "velocity": 0, "duration": 77}, {"note": 80, "velocity": 127, "duration": 166}, {"note": 0, "velocity": 0, "duration": 74}, {"note": 80, "velocity": 127, "duration": 185}, {"note": 80, "velocity": 127, "duration": 144}, {"note": 0, "velocity": 0, "duration": 96}, {"note": 80, "velocity": 127, "duration": 129}, {"note": 0, "velocity": 0, "duration": 111}, {"note": 77, "velocity": 112, "duration": 167}, {"note": 0, "velocity": 0, "duration": 73}, {"note": 77, "velocity": 96, "duration": 132}, {"note": 0, "velocity": 0, "duration": 108}, {"note": 80, "velocity": 127, "duration": 194}, {"note": 77, "velocity": 117, "duration": 174}, {"note": 0, "velocity": 0, "duration": 66}, {"note": 77, "velocity": 99, "duration": 167}, {"note": 0, "velocity": 0, "duration": 73}, {"note": 77, "velocity": 107, "duration": 158}, {"note": 0, "velocity": 0, "duration": 82}, {"note": 75, "velocity": 127, "duration": 157}, {"note": 0, "velocity": 0, "duration": 83}, {"note": 72, "velocity": 117, "duration": 355}, {"note": 0, "velocity": 0, "duration": 125}, {"note": 75, "velocity": 127, "duration": 215}, {"note": 72, "velocity": 100, "duration": 232}, {"note": 70, "velocity": 112, "duration": 164}, {"note": 0, "velocity": 0, "duration": 76}, {"note": 70, "velocity": 112, "duration": 173}, {"note": 0, "velocity": 0, "duration": 67}, {"note": 70, "velocity": 127, "duration": 195}, {"note": 68, "velocity": 112, "duration": 195}, {"note": 65, "velocity": 100, "duration": 297}, {"note": 0, "velocity": 0, "duration": 183}, {"note": 68, "velocity": 127, "duration": 192}, {"note": 70, "velocity": 112, "duration": 156}, {"note": 0, "velocity": 0, "duration": 84}, {"note": 70, "velocity": 122, "duration": 419}, {"note": 0, "velocity": 0, "duration": 61}, {"note": 70, "velocity": 117, "duration": 170}, {"note": 0, "velocity": 0, "duration": 70}, {"note": 72, "velocity": 102, "duration": 219}, {"note": 70, "velocity": 107, "duration": 362}, {"note": 0, "velocity": 0, "duration": 118}, {"note": 68, "velocity": 107, "duration": 223}, {"note": 65, "velocity": 75, "duration": 165}, {"note": 0, "velocity": 0, "duration": 75}, {"note": 65, "velocity": 99, "duration": 1292}, {"note": 0, "velocity": 0, "duration": 18628}, {"note": 68, "velocity": 112, "duration": 148}, {"note": 0, "velocity": 0, "duration": 92}, {"note": 68, "velocity": 127, "duration": 401}, {"note": 0, "velocity": 0, "duration": 79}, {"note": 70, "velocity": 127, "duration": 250}, {"note": 72, "velocity": 112, "duration": 158}, {"note": 0, "velocity": 0, "duration": 82}, {"note": 75, "velocity": 122, "duration": 193}, {"note": 75, "velocity": 102, "duration": 176}, {"note": 0, "velocity": 0, "duration": 64}, {"note": 75, "velocity": 112, "duration": 215}, {"note": 72, "velocity": 86, "duration": 234}, {"note": 75, "velocity": 122, "duration": 175}, {"note": 0, "velocity": 0, "duration": 65}, {"note": 77, "velocity": 112, "duration": 152}, {"note": 0, "velocity": 0, "duration": 88}, {"note": 77, "velocity": 96, "duration": 177}, {"note": 0, "velocity": 0, "duration": 63}, {"note": 75, "velocity": 102, "duration": 197}, {"note": 77, "velocity": 107, "duration": 185}, {"note": 77, "velocity": 107, "duration": 162}, {"note": 0, "velocity": 0, "duration": 78}, {"note": 77, "velocity": 102, "duration": 157}, {"note": 0, "velocity": 0, "duration": 83}, {"note": 75, "velocity": 102, "duration": 202}, {"note": 72, "velocity": 107, "duration": 229}, {"note": 0, "velocity": 0, "duration": 251}, {"note": 75, "velocity": 127, "duration": 225}, {"note": 77, "velocity": 107, "duration": 196}, {"note": 80, "velocity": 122, "duration": 163}, {"note": 0, "velocity": 0, "duration": 77}, {"note": 80, "velocity": 127, "duration": 166}, {"note": 0, "velocity": 0, "duration": 74}, {"note": 80, "velocity": 127, "duration": 185}, {"note": 80, "velocity": 127, "duration": 144}, {"note": 0, "velocity": 0, "duration": 96}, {"note": 80, "velocity": 127, "duration": 129}, {"note": 0, "velocity": 0, "duration": 111}, {"note": 77, "velocity": 112, "duration": 167}, {"note": 0, "velocity": 0, "duration": 73}, {"note": 77, "velocity": 96, "duration": 132}, {"note": 0, "velocity": 0, "duration": 108}, {"note": 80, "velocity": 127, "duration": 194}, {"note": 77, "velocity": 117, "duration": 174}, {"note": 0, "velocity": 0, "duration": 66}, {"note": 77, "velocity": 99, "duration": 167}, {"note": 0, "velocity": 0, "duration": 73}, {"note": 77, "velocity": 107, "duration": 158}, {"note": 0, "velocity": 0, "duration": 82}, {"note": 75, "velocity": 127, "duration": 157}, {"note": 0, "velocity": 0, "duration": 83}, {"note": 72, "velocity": 117, "duration": 355}, {"note": 0, "velocity": 0, "duration": 125}, {"note": 75, "velocity": 127, "duration": 215}, {"note": 72, "velocity": 100, "duration": 232}, {"note": 70, "velocity": 112, "duration": 164}, {"note": 0, "velocity": 0, "duration": 76}, {"note": 70, "velocity": 112, "duration": 173}, {"note": 0, "velocity": 0, "duration": 67}, {"note": 70, "velocity": 127, "duration": 195}, {"note": 68, "velocity": 112, "duration": 195}, {"note": 65, "velocity": 100, "duration": 297}, {"note": 0, "velocity": 0, "duration": 183}, {"note": 68, "velocity": 127, "duration": 192}, {"note": 70, "velocity": 112, "duration": 156}, {"note": 0, "velocity": 0, "duration": 84}, {"note": 70, "velocity": 122, "duration": 419}, {"note": 0, "velocity": 0, "duration": 61}, {"note": 70, "velocity": 117, "duration": 170}, {"note": 0, "velocity": 0, "duration": 70}, {"note": 72, "velocity": 102, "duration": 219}, {"note": 75, "velocity": 122, "duration": 182}, {"note": 77, "velocity": 127, "duration": 154}, {"note": 0, "velocity": 0, "duration": 86}, {"note": 77, "velocity": 107, "duration": 233}, {"note": 75, "velocity": 117, "duration": 318}, {"note": 0, "velocity": 0, "duration": 162}, {"note": 72, "velocity": 112, "duration": 652}, {"note": 0, "velocity": 0, "duration": 548}, {"note": 68, "velocity": 122, "duration": 220}, {"note": 70, "velocity": 117, "duration": 176}, {"note": 0, "velocity": 0, "duration": 64}, {"note": 75, "velocity": 122, "duration": 193}, {"note": 75, "velocity": 102, "duration": 176}, {"note": 0, "velocity": 0, "duration": 64}, {"note": 75, "velocity": 112, "duration": 215}, {"note": 72, "velocity": 86, "duration": 234}, {"note": 75, "velocity": 122, "duration": 175}, {"note": 0, "velocity": 0, "duration": 65}, {"note": 77, "velocity": 112, "duration": 152}, {"note": 0, "velocity": 0, "duration": 88}, {"note": 77, "velocity": 96, "duration": 177}, {"note": 0, "velocity": 0, "duration": 63}, {"note": 75, "velocity": 102, "duration": 197}, {"note": 77, "velocity": 107, "duration": 185}, {"note": 77, "velocity": 107, "duration": 162}, {"note": 0, "velocity": 0, "duration": 78}, {"note": 77, "velocity": 102, "duration": 157}, {"note": 0, "velocity": 0, "duration": 83}, {"note": 75, "velocity": 102, "duration": 202}, {"note": 72, "velocity": 107, "duration": 229}, {"note": 0, "velocity": 0, "duration": 251}, {"note": 75, "velocity": 127, "duration": 225}, {"note": 77, "velocity": 107, "duration": 196}, {"note": 80, "velocity": 122, "duration": 163}, {"note": 0, "velocity": 0, "duration": 77}, {"note": 80, "velocity": 127, "duration": 166}, {"note": 0, "velocity": 0, "duration": 74}, {"note": 80, "velocity": 127, "duration": 185}, {"note": 80, "velocity": 127, "duration": 144}, {"note": 0, "velocity": 0, "duration": 96}, {"note": 80, "velocity": 127, "duration": 129}, {"note": 0, "velocity": 0, "duration": 111}, {"note": 77, "velocity": 112, "duration": 167}, {"note": 0, "velocity": 0, "duration": 73}, {"note": 77, "velocity": 96, "duration": 132}, {"note": 0, "velocity": 0, "duration": 108}, {"note": 80, "velocity": 127, "duration": 194}, {"note": 77, "velocity": 117, "duration": 174}, {"note": 0, "velocity": 0, "duration": 66}, {"note": 77, "velocity": 99, "duration": 167}, {"note": 0, "velocity": 0, "duration": 73}, {"note": 77, "velocity": 107, "duration": 158}, {"note": 0, "velocity": 0, "duration": 82}, {"note": 75, "velocity": 127, "duration": 157}, {"note": 0, "velocity": 0, "duration": 83}, {"note": 72, "velocity": 117, "duration": 355}, {"note": 0, "velocity": 0, "duration": 125}, {"note": 75, "velocity": 127, "duration": 215}, {"note": 72, "velocity": 100, "duration": 232}, {"note": 70, "velocity": 112, "duration": 164}, {"note": 0, "velocity": 0, "duration": 76}, {"note": 70, "velocity": 112, "duration": 173}, {"note": 0, "velocity": 0, "duration": 67}, {"note": 70, "velocity": 127, "duration": 195}, {"note": 68, "velocity": 112, "duration": 195}, {"note": 65, "velocity": 100, "duration": 297}, {"note": 0, "velocity": 0, "duration": 183}, {"note": 68, "velocity": 127, "duration": 192}, {"note": 70, "velocity": 112, "duration": 156}, {"note": 0, "velocity": 0, "duration": 84}, {"note": 70, "velocity": 122, "duration": 419}, {"note": 0, "velocity": 0, "duration": 61}, {"note": 70, "velocity": 117, "duration": 170}, {"note": 0, "velocity": 0, "duration": 70}, {"note": 72, "velocity": 102, "duration": 219}, {"note": 70, "velocity": 107, "duration": 362}, {"note": 0, "velocity": 0, "duration": 118}, {"note": 68, "velocity": 107, "duration": 223}, {"note": 65, "velocity": 75, "duration": 165}, {"note": 0, "velocity": 0, "duration": 75}, {"note": 65, "velocity": 99, "duration": 1292}]]