[[{"note": 66, "velocity": 90, "duration": 202}, {"note": 67, "velocity": 89, "duration": 135}, {"note": 0, "velocity": 0, "duration": 105}, {"note": 69, "velocity": 99, "duration": 568}, {"note": 0, "velocity": 0, "duration": 152}, {"note": 69, "velocity": 81, "duration": 163}, {"note": 0, "velocity": 0, "duration": 317}, {"note": 69, "velocity": 92, "duration": 182}, {"note": 67, "velocity": 93, "duration": 165}, {"note": 0, "velocity": 0, "duration": 75}, {"note": 66, "velocity": 72, "duration": 234}, {"note": 64, "velocity": 75, "duration": 154}, {"note": 0, "velocity": 0, "duration": 86}, {"note": 64, "velocity": 66, "duration": 239}, {"note": 66, "velocity": 86, "duration": 218}, {"note": 64, "velocity": 89, "duration": 382}, {"note": 0, "velocity": 0, "duration": 98}, {"note": 64, "velocity": 83, "duration": 101}, {"note": 0, "velocity": 0, "duration": 139}, {"note": 66, "velocity": 96, "duration": 244}, {"note": 64, "velocity": 71, "duration": 184}, {"note": 64, "velocity": 89, "duration": 201}, {"note": 62, "velocity": 62, "duration": 169}, {"note": 0, "velocity": 0, "duration": 71}, {"note": 62, "velocity": 81, "duration": 146}, {"note": 0, "velocity": 0, "duration": 94}, {"note": 62, "velocity": 85, "duration": 240}, {"note": 62, "velocity": 89, "duration": 191}, {"note": 74, "velocity": 95, "duration": 231}, {"note": 73, "velocity": 95, "duration": 121}, {"note": 0, "velocity": 0, "duration": 119}, {"note": 66, "velocity": 83, "duration": 200}, {"note": 69, "velocity": 88, "duration": 752}, {"note": 0, "velocity": 0, "duration": 688}, {"note": 69, "velocity": 93, "duration": 131}, {"note": 0, "velocity": 0, "duration": 109}, {"note": 69, "velocity": 79, "duration": 125}, {"note": 0, "velocity": 0, "duration": 115}, {"note": 71, "velocity": 95, "duration": 413}, {"note": 0, "velocity": 0, "duration": 307}, {"note": 62, "velocity": 97, "duration": 241}, {"note": 0, "velocity": 0, "duration": 239}, {"note": 71, "velocity": 95, "duration": 147}, {"note": 0, "velocity": 0, "duration": 93}, {"note": 71, "velocity": 97, "duration": 184}, {"note": 69, "velocity": 95, "duration": 155}, {"note": 0, "velocity": 0, "duration": 85}, {"note": 69, "velocity": 96, "duration": 114}, {"note": 0, "velocity": 0, "duration": 126}, {"note": 62, "velocity": 92, "duration": 171}, {"note": 0, "velocity": 0, "duration": 69}, {"note": 64, "velocity": 86, "duration": 250}, {"note": 62, "velocity": 67, "duration": 142}, {"note": 66, "velocity": 97, "duration": 703}, {"note": 0, "velocity": 0, "duration": 137}, {"note": 66, "velocity": 92, "duration": 167}, {"note": 0, "velocity": 0, "duration": 73}, {"note": 67, "velocity": 88, "duration": 161}, {"note": 0, "velocity": 0, "duration": 79}, {"note": 67, "velocity": 89, "duration": 152}, {"note": 0, "velocity": 0, "duration": 88}, {"note": 67, "velocity": 93, "duration": 190}, {"note": 66, "velocity": 90, "duration": 171}, {"note": 0, "velocity": 0, "duration": 69}, {"note": 64, "velocity": 81, "duration": 153}, {"note": 0, "velocity": 0, "duration": 87}, {"note": 62, "velocity": 90, "duration": 159}, {"note": 0, "velocity": 0, "duration": 81}, {"note": 66, "velocity": 97, "duration": 73}, {"note": 0, "velocity": 0, "duration": 167}, {"note": 66, "velocity": 97, "duration": 345}, {"note": 0, "velocity": 0, "duration": 135}, {"note": 64, "velocity": 85, "duration": 729}, {"note": 0, "velocity": 0, "duration": 471}, {"note": 66, "velocity": 90, "duration": 202}, {"note": 67, "velocity": 89, "duration": 135}, {"note": 0, "velocity": 0, "duration": 105}, {"note": 69, "velocity": 99, "duration": 568}, {"note": 0, "velocity": 0, "duration": 152}, {"note": 69, "velocity": 81, "duration": 163}, {"note": 0, "velocity": 0, "duration": 317}, {"note": 69, "velocity": 92, "duration": 182}, {"note": 67, "velocity": 93, "duration": 165}, {"note": 0, "velocity": 0, "duration": 75}, {"note": 66, "velocity": 72, "duration": 234}, {"note": 64, "velocity": 75, "duration": 154}, {"note": 0, "velocity": 0, "duration": 86}, {"note": 64, "velocity": 66, "duration": 239}, {"note": 66, "velocity": 86, "duration": 218}, {"note": 64, "velocity": 89, "duration": 382}, {"note": 0, "velocity": 0, "duration": 338}, {"note": 66, "velocity": 96, "duration": 244}, {"note": 64, "velocity": 71, "duration": 184}, {"note": 64, "velocity": 89, "duration": 201}, {"note": 62, "velocity": 62, "duration": 169}, {"note": 0, "velocity": 0, "duration": 71}, {"note": 62, "velocity": 81, "duration": 146}, {"note": 0, "velocity": 0, "duration": 94}, {"note": 62, "velocity": 85, "duration": 113}, {"note": 0, "velocity": 0, "duration": 127}, {"note": 62, "velocity": 89, "duration": 191}, {"note": 74, "velocity": 95, "duration": 231}, {"note": 73, "velocity": 95, "duration": 121}, {"note": 0, "velocity": 0, "duration": 119}, {"note": 66, "velocity": 83, "duration": 200}, {"note": 69, "velocity": 88, "duration": 752}, {"note": 0, "velocity": 0, "duration": 448}, {"note": 69, "velocity": 93, "duration": 160}, {"note": 0, "velocity": 0, "duration": 80}, {"note": 69, "velocity": 93, "duration": 131}, {"note": 0, "velocity": 0, "duration": 109}, {"note": 69, "velocity": 79, "duration": 125}, {"note": 0, "velocity": 0, "duration": 115}, {"note": 71, "velocity": 95, "duration": 413}, {"note": 0, "velocity": 0, "duration": 307}, {"note": 62, "velocity": 97, "duration": 241}, {"note": 0, "velocity": 0, "duration": 239}, {"note": 71, "velocity": 95, "duration": 147}, {"note": 0, "velocity": 0, "duration": 93}, {"note": 71, "velocity": 97, "duration": 184}, {"note": 69, "velocity": 95, "duration": 155}, {"note": 0, "velocity": 0, "duration": 85}, {"note": 69, "velocity": 96, "duration": 114}, {"note": 0, "velocity": 0, "duration": 126}, {"note": 62, "velocity": 92, "duration": 171}, {"note": 0, "velocity": 0, "duration": 69}, {"note": 64, "velocity": 86, "duration": 250}, {"note": 66, "velocity": 97, "duration": 703}, {"note": 0, "velocity": 0, "duration": 257}, {"note": 66, "velocity": 92, "duration": 167}, {"note": 0, "velocity": 0, "duration": 73}, {"note": 67, "velocity": 88, "duration": 161}, {"note": 0, "velocity": 0, "duration": 79}, {"note": 67, "velocity": 89, "duration": 152}, {"note": 0, "velocity": 0, "duration": 88}, {"note": 67, "velocity": 93, "duration": 190}, {"note": 66, "velocity": 90, "duration": 171}, {"note": 0, "velocity": 0, "duration": 69}, {"note": 64, "velocity": 81, "duration": 153}, {"note": 0, "velocity": 0, "duration": 87}, {"note": 62, "velocity": 90, "duration": 159}, {"note": 0, "velocity": 0, "duration": 81}, {"note": 64, "velocity": 92, "duration": 131}, {"note": 0, "velocity": 0, "duration": 109}, {"note": 64, "velocity": 100, "duration": 388}, {"note": 0, "velocity": 0, "duration": 92}, {"note": 62, "velocity": 95, "duration": 720}, {"note": 0, "velocity": 0, "duration": 240}, {"note": 74, "velocity": 96, "duration": 151}, {"note": 0, "velocity": 0, "duration": 89}, {"note": 73, "velocity": 100, "duration": 157}, {"note": 0, "velocity": 0, "duration": 83}, {"note": 74, "velocity": 99, "duration": 129}, {"note": 0, "velocity": 0, "duration": 111}, {"note": 71, "velocity": 100, "duration": 718}, {"note": 71, "velocity": 102, "duration": 191}, {"note": 0, "velocity": 0, "duration": 289}, {"note": 73, "velocity": 117, "duration": 130}, {"note": 0, "velocity": 0, "duration": 110}, {"note": 73, "velocity": 122, "duration": 186}, {"note": 74, "velocity": 99, "duration": 126}, {"note": 0, "velocity": 0, "duration": 114}, {"note": 69, "velocity": 93, "duration": 186}, {"note": 66, "velocity": 96, "duration": 178}, {"note": 0, "velocity": 0, "duration": 62}, {"note": 69, "velocity": 92, "duration": 167}, {"note": 0, "velocity": 0, "duration": 73}, {"note": 64, "velocity": 93, "duration": 198}, {"note": 66, "velocity": 96, "duration": 306}, {"note": 0, "velocity": 0, "duration": 414}, {"note": 66, "velocity": 92, "duration": 184}, {"note": 67, "velocity": 85, "duration": 187}, {"note": 67, "velocity": 78, "duration": 171}, {"note": 0, "velocity": 0, "duration": 69}, {"note": 67, "velocity": 96, "duration": 173}, {"note": 0, "velocity": 0, "duration": 67}, {"note": 74, "velocity": 100, "duration": 318}, {"note": 0, "velocity": 0, "duration": 162}, {"note": 73, "velocity": 117, "duration": 97}, {"note": 0, "velocity": 0, "duration": 143}, {"note": 73, "velocity": 102, "duration": 229}, {"note": 71, "velocity": 83, "duration": 193}, {"note": 69, "velocity": 99, "duration": 913}, {"note": 0, "velocity": 0, "duration": 287}, {"note": 69, "velocity": 95, "duration": 141}, {"note": 0, "velocity": 0, "duration": 99}, {"note": 69, "velocity": 86, "duration": 94}, {"note": 0, "velocity": 0, "duration": 146}, {"note": 69, "velocity": 92, "duration": 142}, {"note": 0, "velocity": 0, "duration": 98}, {"note": 70, "velocity": 107, "duration": 472}, {"note": 0, "velocity": 0, "duration": 248}, {"note": 78, "velocity": 107, "duration": 322}, {"note": 0, "velocity": 0, "duration": 158}, {"note": 76, "velocity": 112, "duration": 142}, {"note": 0, "velocity": 0, "duration": 98}, {"note": 76, "velocity": 96, "duration": 143}, {"note": 0, "velocity": 0, "duration": 97}, {"note": 76, "velocity": 100, "duration": 125}, {"note": 0, "velocity": 0, "duration": 115}, {"note": 76, "velocity": 100, "duration": 209}, {"note": 74, "velocity": 99, "duration": 152}, {"note": 0, "velocity": 0, "duration": 88}, {"note": 73, "velocity": 112, "duration": 157}, {"note": 0, "velocity": 0, "duration": 83}, {"note": 74, "velocity": 112, "duration": 284}, {"note": 0, "velocity": 0, "duration": 676}, {"note": 74, "velocity": 95, "duration": 144}, {"note": 0, "velocity": 0, "duration": 96}, {"note": 74, "velocity": 93, "duration": 114}, {"note": 0, "velocity": 0, "duration": 126}, {"note": 66, "velocity": 102, "duration": 141}, {"note": 0, "velocity": 0, "duration": 99}, {"note": 66, "velocity": 107, "duration": 195}, {"note": 67, "velocity": 97, "duration": 153}, {"note": 0, "velocity": 0, "duration": 87}, {"note": 67, "velocity": 107, "duration": 155}, {"note": 0, "velocity": 0, "duration": 85}, {"note": 67, "velocity": 96, "duration": 135}, {"note": 0, "velocity": 0, "duration": 105}, {"note": 66, "velocity": 107, "duration": 100}, {"note": 0, "velocity": 0, "duration": 140}, {"note": 66, "velocity": 102, "duration": 490}, {"note": 64, "velocity": 95, "duration": 546}, {"note": 0, "velocity": 0, "duration": 414}, {"note": 74, "velocity": 96, "duration": 151}, {"note": 0, "velocity": 0, "duration": 89}, {"note": 73, "velocity": 100, "duration": 157}, {"note": 0, "velocity": 0, "duration": 83}, {"note": 74, "velocity": 99, "duration": 129}, {"note": 0, "velocity": 0, "duration": 111}, {"note": 71, "velocity": 100, "duration": 718}, {"note": 71, "velocity": 102, "duration": 191}, {"note": 0, "velocity": 0, "duration": 289}, {"note": 73, "velocity": 117, "duration": 130}, {"note": 0, "velocity": 0, "duration": 110}, {"note": 73, "velocity": 122, "duration": 186}, {"note": 74, "velocity": 99, "duration": 126}, {"note": 0, "velocity": 0, "duration": 114}, {"note": 69, "velocity": 93, "duration": 186}, {"note": 66, "velocity": 96, "duration": 178}, {"note": 0, "velocity": 0, "duration": 62}, {"note": 69, "velocity": 92, "duration": 167}, {"note": 0, "velocity": 0, "duration": 73}, {"note": 64, "velocity": 93, "duration": 198}, {"note": 66, "velocity": 96, "duration": 306}, {"note": 0, "velocity": 0, "duration": 414}, {"note": 66, "velocity": 92, "duration": 184}, {"note": 67, "velocity": 85, "duration": 187}, {"note": 67, "velocity": 78, "duration": 171}, {"note": 0, "velocity": 0, "duration": 69}, {"note": 67, "velocity": 96, "duration": 173}, {"note": 0, "velocity": 0, "duration": 67}, {"note": 74, "velocity": 100, "duration": 318}, {"note": 0, "velocity": 0, "duration": 162}, {"note": 73, "velocity": 117, "duration": 97}, {"note": 0, "velocity": 0, "duration": 143}, {"note": 73, "velocity": 102, "duration": 229}, {"note": 71, "velocity": 83, "duration": 193}, {"note": 71, "velocity": 127, "duration": 255}, {"note": 69, "velocity": 99, "duration": 615}, {"note": 0, "velocity": 0, "duration": 345}, {"note": 69, "velocity": 95, "duration": 141}, {"note": 0, "velocity": 0, "duration": 99}, {"note": 69, "velocity": 86, "duration": 94}, {"note": 0, "velocity": 0, "duration": 146}, {"note": 69, "velocity": 92, "duration": 142}, {"note": 0, "velocity": 0, "duration": 98}, {"note": 70, "velocity": 107, "duration": 472}, {"note": 0, "velocity": 0, "duration": 248}, {"note": 78, "velocity": 107, "duration": 322}, {"note": 0, "velocity": 0, "duration": 158}, {"note": 76, "velocity": 112, "duration": 142}, {"note": 0, "velocity": 0, "duration": 98}, {"note": 76, "velocity": 96, "duration": 143}, {"note": 0, "velocity": 0, "duration": 97}, {"note": 76, "velocity": 100, "duration": 125}, {"note": 0, "velocity": 0, "duration": 115}, {"note": 76, "velocity": 100, "duration": 209}, {"note": 74, "velocity": 99, "duration": 152}, {"note": 0, "velocity": 0, "duration": 88}, {"note": 73, "velocity": 112, "duration": 157}, {"note": 0, "velocity": 0, "duration": 83}, {"note": 74, "velocity": 112, "duration": 284}, {"note": 0, "velocity": 0, "duration": 676}, {"note": 74, "velocity": 95, "duration": 144}, {"note": 0, "velocity": 0, "duration": 96}, {"note": 74, "velocity": 93, "duration": 114}, {"note": 0, "velocity": 0, "duration": 126}, {"note": 66, "velocity": 102, "duration": 141}, {"note": 0, "velocity": 0, "duration": 99}, {"note": 66, "velocity": 107, "duration": 195}, {"note": 67, "velocity": 102, "duration": 441}, {"note": 0, "velocity": 0, "duration": 519}, {"note": 74, "velocity": 117, "duration": 137}, {"note": 0, "velocity": 0, "duration": 103}, {"note": 74, "velocity": 97, "duration": 114}, {"note": 0, "velocity": 0, "duration": 126}, {"note": 67, "velocity": 112, "duration": 198}, {"note": 66, "velocity": 107, "duration": 156}, {"note": 0, "velocity": 0, "duration": 84}, {"note": 67, "velocity": 100, "duration": 476}, {"note": 67, "velocity": 107, "duration": 251}, {"note": 0, "velocity": 0, "duration": 229}, {"note": 66, "velocity": 95, "duration": 278}, {"note": 0, "velocity": 0, "duration": 202}, {"note": 62, "velocity": 96, "duration": 1291}, {"note": 0, "velocity": 0, "duration": 1829}, {"note": 66, "velocity": 90, "duration": 202}, {"note": 67, "velocity": 89, "duration": 135}, {"note": 0, "velocity": 0, "duration": 105}, {"note": 69, "velocity": 99, "duration": 568}, {"note": 0, "velocity": 0, "duration": 152}, {"note": 69, "velocity": 81, "duration": 163}, {"note": 0, "velocity": 0, "duration": 317}, {"note": 69, "velocity": 92, "duration": 182}, {"note": 67, "velocity": 93, "duration": 165}, {"note": 0, "velocity": 0, "duration": 75}, {"note": 66, "velocity": 72, "duration": 234}, {"note": 64, "velocity": 75, "duration": 154}, {"note": 0, "velocity": 0, "duration": 86}, {"note": 64, "velocity": 66, "duration": 239}, {"note": 66, "velocity": 86, "duration": 218}, {"note": 64, "velocity": 89, "duration": 382}, {"note": 0, "velocity": 0, "duration": 98}, {"note": 64, "velocity": 83, "duration": 101}, {"note": 0, "velocity": 0, "duration": 139}, {"note": 66, "velocity": 96, "duration": 244}, {"note": 64, "velocity": 71, "duration": 184}, {"note": 64, "velocity": 89, "duration": 201}, {"note": 62, "velocity": 62, "duration": 169}, {"note": 0, "velocity": 0, "duration": 71}, {"note": 62, "velocity": 81, "duration": 146}, {"note": 0, "velocity": 0, "duration": 94}, {"note": 62, "velocity": 85, "duration": 240}, {"note": 62, "velocity": 89, "duration": 191}, {"note": 74, "velocity": 95, "duration": 231}, {"note": 73, "velocity": 95, "duration": 121}, {"note": 0, "velocity": 0, "duration": 119}, {"note": 66, "velocity": 83, "duration": 200}, {"note": 69, "velocity": 88, "duration": 752}, {"note": 0, "velocity": 0, "duration": 688}, {"note": 69, "velocity": 93, "duration": 131}, {"note": 0, "velocity": 0, "duration": 109}, {"note": 69, "velocity": 79, "duration": 125}, {"note": 0, "velocity": 0, "duration": 115}, {"note": 71, "velocity": 95, "duration": 413}, {"note": 0, "velocity": 0, "duration": 307}, {"note": 62, "velocity": 97, "duration": 241}, {"note": 0, "velocity": 0, "duration": 239}, {"note": 71, "velocity": 95, "duration": 147}, {"note": 0, "velocity": 0, "duration": 93}, {"note": 71, "velocity": 97, "duration": 184}, {"note": 69, "velocity": 95, "duration": 155}, {"note": 0, "velocity": 0, "duration": 85}, {"note": 69, "velocity": 96, "duration": 114}, {"note": 0, "velocity": 0, "duration": 126}, {"note": 62, "velocity": 92, "duration": 171}, {"note": 0, "velocity": 0, "duration": 69}, {"note": 64, "velocity": 86, "duration": 250}, {"note": 62, "velocity": 67, "duration": 142}, {"note": 66, "velocity": 97, "duration": 703}, {"note": 0, "velocity": 0, "duration": 137}, {"note": 66, "velocity": 92, "duration": 167}, {"note": 0, "velocity": 0, "duration": 73}, {"note": 67, "velocity": 88, "duration": 161}, {"note": 0, "velocity": 0, "duration": 79}, {"note": 67, "velocity": 89, "duration": 152}, {"note": 0, "velocity": 0, "duration": 88}, {"note": 67, "velocity": 93, "duration": 190}, {"note": 66, "velocity": 90, "duration": 171}, {"note": 0, "velocity": 0, "duration": 69}, {"note": 64, "velocity": 81, "duration": 153}, {"note": 0, "velocity": 0, "duration": 87}, {"note": 62, "velocity": 90, "duration": 159}, {"note": 0, "velocity": 0, "duration": 81}, {"note": 66, "velocity": 97, "duration": 73}, {"note": 0, "velocity": 0, "duration": 167}, {"note": 66, "velocity": 97, "duration": 345}, {"note": 0, "velocity": 0, "duration": 135}, {"note": 64, "velocity": 85, "duration": 729}, {"note": 0, "velocity": 0, "duration": 471}, {"note": 66, "velocity": 90, "duration": 202}, {"note": 67, "velocity": 89, "duration": 135}, {"note": 0, "velocity": 0, "duration": 105}, {"note": 69, "velocity": 99, "duration": 568}, {"note": 0, "velocity": 0, "duration": 152}, {"note": 69, "velocity": 81, "duration": 163}, {"note": 0, "velocity": 0, "duration": 317}, {"note": 69, "velocity": 92, "duration": 182}, {"note": 67, "velocity": 93, "duration": 165}, {"note": 0, "velocity": 0, "duration": 75}, {"note": 66, "velocity": 72, "duration": 234}, {"note": 64, "velocity": 75, "duration": 154}, {"note": 0, "velocity": 0, "duration": 86}, {"note": 64, "velocity": 66, "duration": 239}, {"note": 66, "velocity": 86, "duration": 218}, {"note": 64, "velocity": 89, "duration": 382}, {"note": 0, "velocity": 0, "duration": 338}, {"note": 66, "velocity": 96, "duration": 244}, {"note": 64, "velocity": 71, "duration": 184}, {"note": 64, "velocity": 89, "duration": 201}, {"note": 62, "velocity": 62, "duration": 169}, {"note": 0, "velocity": 0, "duration": 71}, {"note": 62, "velocity": 81, "duration": 146}, {"note": 0, "velocity": 0, "duration": 94}, {"note": 62, "velocity": 85, "duration": 113}, {"note": 0, "velocity": 0, "duration": 127}, {"note": 62, "velocity": 89, "duration": 191}, {"note": 74, "velocity": 95, "duration": 231}, {"note": 73, "velocity": 95, "duration": 121}, {"note": 0, "velocity": 0, "duration": 119}, {"note": 66, "velocity": 83, "duration": 200}, {"note": 69, "velocity": 88, "duration": 752}, {"note": 0, "velocity": 0, "duration": 448}, {"note": 69, "velocity": 93, "duration": 160}, {"note": 0, "velocity": 0, "duration": 80}, {"note": 69, "velocity": 93, "duration": 131}, {"note": 0, "velocity": 0, "duration": 109}, {"note": 69, "velocity": 79, "duration": 125}, {"note": 0, "velocity": 0, "duration": 115}, {"note": 71, "velocity": 95, "duration": 413}, {"note": 0, "velocity": 0, "duration": 307}, {"note": 62, "velocity": 97, "duration": 241}, {"note": 0, "velocity": 0, "duration": 239}, {"note": 71, "velocity": 95, "duration": 147}, {"note": 0, "velocity": 0, "duration": 93}, {"note": 71, "velocity": 97, "duration": 184}, {"note": 69, "velocity": 95, "duration": 155}, {"note": 0, "velocity": 0, "duration": 85}, {"note": 69, "velocity": 96, "duration": 114}, {"note": 0, "velocity": 0, "duration": 126}, {"note": 62, "velocity": 92, "duration": 171}, {"note": 0, "velocity": 0, "duration": 69}, {"note": 64, "velocity": 86, "duration": 250}, {"note": 66, "velocity": 97, "duration": 703}, {"note": 0, "velocity": 0, "duration": 257}, {"note": 66, "velocity": 92, "duration": 167}, {"note": 0, "velocity": 0, "duration": 73}, {"note": 67, "velocity": 88, "duration": 161}, {"note": 0, "velocity": 0, "duration": 79}, {"note": 67, "velocity": 89, "duration": 152}, {"note": 0, "velocity": 0, "duration": 88}, {"note": 67, "velocity": 93, "duration": 190}, {"note": 66, "velocity": 90, "duration": 171}, {"note": 0, "velocity": 0, "duration": 69}, {"note": 64, "velocity": 81, "duration": 153}, {"note": 0, "velocity": 0, "duration": 87}, {"note": 62, "velocity": 90, "duration": 159}, {"note": 0, "velocity": 0, "duration": 81}, {"note": 64, "velocity": 92, "duration": 131}, {"note": 0, "velocity": 0, "duration": 109}, {"note": 64, "velocity": 100, "duration": 388}, {"note": 0, "velocity": 0, "duration": 92}, {"note": 62, "velocity": 95, "duration": 720}, {"note": 0, "velocity": 0, "duration": 240}, {"note": 74, "velocity": 96, "duration": 151}, {"note": 0, "velocity": 0, "duration": 89}, {"note": 73, "velocity": 100, "duration": 157}, {"note": 0, "velocity": 0, "duration": 83}, {"note": 74, "velocity": 99, "duration": 129}, {"note": 0, "velocity": 0, "duration": 111}, {"note": 71, "velocity": 100, "duration": 718}, {"note": 71, "velocity": 102, "duration": 191}, {"note": 0, "velocity": 0, "duration": 289}, {"note": 73, "velocity": 117, "duration": 130}, {"note": 0, "velocity": 0, "duration": 110}, {"note": 73, "velocity": 122, "duration": 186}, {"note": 74, "velocity": 99, "duration": 126}, {"note": 0, "velocity": 0, "duration": 114}, {"note": 69, "velocity": 93, "duration": 186}, {"note": 66, "velocity": 96, "duration": 178}, {"note": 0, "velocity": 0, "duration": 62}, {"note": 69, "velocity": 92, "duration": 167}, {"note": 0, "velocity": 0, "duration": 73}, {"note": 64, "velocity": 93, "duration": 198}, {"note": 66, "velocity": 96, "duration": 306}, {"note": 0, "velocity": 0, "duration": 414}, {"note": 66, "velocity": 92, "duration": 184}, {"note": 67, "velocity": 85, "duration": 187}, {"note": 67, "velocity": 78, "duration": 171}, {"note": 0, "velocity": 0, "duration": 69}, {"note": 67, "velocity": 96, "duration": 173}, {"note": 0, "velocity": 0, "duration": 67}, {"note": 74, "velocity": 100, "duration": 318}, {"note": 0, "velocity": 0, "duration": 162}, {"note": 73, "velocity": 117, "duration": 97}, {"note": 0, "velocity": 0, "duration": 143}, {"note": 73, "velocity": 102, "duration": 229}, {"note": 71, "velocity": 83, "duration": 193}, {"note": 69, "velocity": 99, "duration": 913}, {"note": 0, "velocity": 0, "duration": 287}, {"note": 69, "velocity": 95, "duration": 141}, {"note": 0, "velocity": 0, "duration": 99}, {"note": 69, "velocity": 86, "duration": 94}, {"note": 0, "velocity": 0, "duration": 146}, {"note": 69, "velocity": 92, "duration": 142}, {"note": 0, "velocity": 0, "duration": 98}, {"note": 70, "velocity": 107, "duration": 472}, {"note": 0, "velocity": 0, "duration": 248}, {"note": 78, "velocity": 107, "duration": 322}, {"note": 0, "velocity": 0, "duration": 158}, {"note": 76, "velocity": 112, "duration": 142}, {"note": 0, "velocity": 0, "duration": 98}, {"note": 76, "velocity": 96, "duration": 143}, {"note": 0, "velocity": 0, "duration": 97}, {"note": 76, "velocity": 100, "duration": 125}, {"note": 0, "velocity": 0, "duration": 115}, {"note": 76, "velocity": 100, "duration": 209}, {"note": 74, "velocity": 99, "duration": 152}, {"note": 0, "velocity": 0, "duration": 88}, {"note": 73, "velocity": 112, "duration": 157}, {"note": 0, "velocity": 0, "duration": 83}, {"note": 74, "velocity": 112, "duration": 284}, {"note": 0, "velocity": 0, "duration": 676}, {"note": 74, "velocity": 95, "duration": 144}, {"note": 0, "velocity": 0, "duration": 96}, {"note": 74, "velocity": 93, "duration": 114}, {"note": 0, "velocity": 0, "duration": 126}, {"note": 66, "velocity": 102, "duration": 141}, {"note": 0, "velocity": 0, "duration": 99}, {"note": 66, "velocity": 107, "duration": 195}, {"note": 67, "velocity": 97, "duration": 153}, {"note": 0, "velocity": 0, "duration": 87}, {"note": 67, "velocity": 107, "duration": 155}, {"note": 0, "velocity": 0, "duration": 85}, {"note": 67, "velocity": 96, "duration": 135}, {"note": 0, "velocity": 0, "duration": 105}, {"note": 66, "velocity": 107, "duration": 100}, {"note": 0, "velocity": 0, "duration": 140}, {"note": 66, "velocity": 102, "duration": 490}, {"note": 64, "velocity": 95, "duration": 546}, {"note": 0, "velocity": 0, "duration": 414}, {"note": 74, "velocity": 96, "duration": 151}, {"note": 0, "velocity": 0, "duration": 89}, {"note": 73, "velocity": 100, "duration": 157}, {"note": 0, "velocity": 0, "duration": 83}, {"note": 74, "velocity": 99, "duration": 129}, {"note": 0, "velocity": 0, "duration": 111}, {"note": 71, "velocity": 100, "duration": 718}, {"note": 71, "velocity": 102, "duration": 191}, {"note": 0, "velocity": 0, "duration": 289}, {"note": 73, "velocity": 117, "duration": 130}, {"note": 0, "velocity": 0, "duration": 110}, {"note": 73, "velocity": 122, "duration": 186}, {"note": 74, "velocity": 99, "duration": 126}, {"note": 0, "velocity": 0, "duration": 114}, {"note": 69, "velocity": 93, "duration": 186}, {"note": 66, "velocity": 96, "duration": 178}, {"note": 0, "velocity": 0, "duration": 62}, {"note": 69, "velocity": 92, "duration": 167}, {"note": 0, "velocity": 0, "duration": 73}, {"note": 64, "velocity": 93, "duration": 198}, {"note": 66, "velocity": 96, "duration": 306}, {"note": 0, "velocity": 0, "duration": 414}, {"note": 66, "velocity": 92, "duration": 184}, {"note": 67, "velocity": 85, "duration": 187}, {"note": 67, "velocity": 78, "duration": 171}, {"note": 0, "velocity": 0, "duration": 69}, {"note": 67, "velocity": 96, "duration": 173}, {"note": 0, "velocity": 0, "duration": 67}, {"note": 74, "velocity": 100, "duration": 318}, {"note": 0, "velocity": 0, "duration": 162}, {"note": 73, "velocity": 117, "duration": 97}, {"note": 0, "velocity": 0, "duration": 143}, {"note": 73, "velocity": 102, "duration": 229}, {"note": 71, "velocity": 83, "duration": 193}, {"note": 71, "velocity": 127, "duration": 255}, {"note": 69, "velocity": 99, "duration": 615}, {"note": 0, "velocity": 0, "duration": 345}, {"note": 69, "velocity": 95, "duration": 141}, {"note": 0, "velocity": 0, "duration": 99}, {"note": 69, "velocity": 86, "duration": 94}, {"note": 0, "velocity": 0, "duration": 146}, {"note": 69, "velocity": 92, "duration": 142}, {"note": 0, "velocity": 0, "duration": 98}, {"note": 70, "velocity": 107, "duration": 472}, {"note": 0, "velocity": 0, "duration": 248}, {"note": 78, "velocity": 107, "duration": 322}, {"note": 0, "velocity": 0, "duration": 158}, {"note": 76, "velocity": 112, "duration": 142}, {"note": 0, "velocity": 0, "duration": 98}, {"note": 76, "velocity": 96, "duration": 143}, {"note": 0, "velocity": 0, "duration": 97}, {"note": 76, "velocity": 100, "duration": 125}, {"note": 0, "velocity": 0, "duration": 115}, {"note": 76, "velocity": 100, "duration": 209}, {"note": 74, "velocity": 99, "duration": 152}, {"note": 0, "velocity": 0, "duration": 88}, {"note": 73, "velocity": 112, "duration": 157}, {"note": 0, "velocity": 0, "duration": 83}, {"note": 74, "velocity": 112, "duration": 284}, {"note": 0, "velocity": 0, "duration": 676}, {"note": 74, "velocity": 95, "duration": 144}, {"note": 0, "velocity": 0, "duration": 96}, {"note": 74, "velocity": 93, "duration": 114}, {"note": 0, "velocity": 0, "duration": 126}, {"note": 66, "velocity": 102, "duration": 141}, {"note": 0, "velocity": 0, "duration": 99}, {"note": 66, "velocity": 107, "duration": 195}, {"note": 67, "velocity": 102, "duration": 240}, {"note": 67, "velocity": 112, "duration": 151}, {"note": 0, "velocity": 0, "duration": 89}, {"note": 67, "velocity": 107, "duration": 144}, {"note": 0, "velocity": 0, "duration": 96}, {"note": 78, "velocity": 127, "duration": 138}, {"note": 0, "velocity": 0, "duration": 102}, {"note": 78, "velocity": 127, "duration": 383}, {"note": 0, "velocity": 0, "duration": 97}, {"note": 76, "velocity": 122, "duration": 506}, {"note": 0, "velocity": 0, "duration": 454}, {"note": 74, "velocity": 96, "duration": 151}, {"note": 0, "velocity": 0, "duration": 89}, {"note": 73, "velocity": 100, "duration": 157}, {"note": 0, "velocity": 0, "duration": 83}, {"note": 74, "velocity": 99, "duration": 129}, {"note": 0, "velocity": 0, "duration": 111}, {"note": 71, "velocity": 100, "duration": 718}, {"note": 71, "velocity": 102, "duration": 191}, {"note": 0, "velocity": 0, "duration": 289}, {"note": 73, "velocity": 117, "duration": 130}, {"note": 0, "velocity": 0, "duration": 110}, {"note": 73, "velocity": 122, "duration": 186}, {"note": 74, "velocity": 99, "duration": 126}, {"note": 0, "velocity": 0, "duration": 114}, {"note": 69, "velocity": 93, "duration": 186}, {"note": 66, "velocity": 96, "duration": 178}, {"note": 0, "velocity": 0, "duration": 62}, {"note": 69, "velocity": 92, "duration": 167}, {"note": 0, "velocity": 0, "duration": 73}, {"note": 64, "velocity": 93, "duration": 198}, {"note": 66, "velocity": 96, "duration": 306}, {"note": 0, "velocity": 0, "duration": 414}, {"note": 66, "velocity": 92, "duration": 184}, {"note": 67, "velocity": 85, "duration": 187}, {"note": 67, "velocity": 78, "duration": 171}, {"note": 0, "velocity": 0, "duration": 69}, {"note": 67, "velocity": 96, "duration": 173}, {"note": 0, "velocity": 0, "duration": 67}, {"note": 74, "velocity": 100, "duration": 318}, {"note": 0, "velocity": 0, "duration": 162}, {"note": 73, "velocity": 117, "duration": 97}, {"note": 0, "velocity": 0, "duration": 143}, {"note": 73, "velocity": 102, "duration": 229}, {"note": 71, "velocity": 83, "duration": 193}, {"note": 69, "velocity": 99, "duration": 913}, {"note": 0, "velocity": 0, "duration": 287}, {"note": 69, "velocity": 95, "duration": 141}, {"note": 0, "velocity": 0, "duration": 99}, {"note": 69, "velocity": 86, "duration": 94}, {"note": 0, "velocity": 0, "duration": 146}, {"note": 69, "velocity": 92, "duration": 142}, {"note": 0, "velocity": 0, "duration": 98}, {"note": 70, "velocity": 107, "duration": 472}, {"note": 0, "velocity": 0, "duration": 248}, {"note": 78, "velocity": 107, "duration": 322}, {"note": 0, "velocity": 0, "duration": 158}, {"note": 76, "velocity": 112, "duration": 142}, {"note": 0, "velocity": 0, "duration": 98}, {"note": 76, "velocity": 96, "duration": 143}, {"note": 0, "velocity": 0, "duration": 97}, {"note": 76, "velocity": 100, "duration": 125}, {"note": 0, "velocity": 0, "duration": 115}, {"note": 76, "velocity": 100, "duration": 209}, {"note": 74, "velocity": 99, "duration": 152}, {"note": 0, "velocity": 0, "duration": 88}, {"note": 73, "velocity": 112, "duration": 157}, {"note": 0, "velocity": 0, "duration": 83}, {"note": 74, "velocity": 112, "duration": 284}, {"note": 0, "velocity": 0, "duration": 676}, {"note": 74, "velocity": 95, "duration": 144}, {"note": 0, "velocity": 0, "duration": 96}, {"note": 74, "velocity": 93, "duration": 114}, {"note": 0, "velocity": 0, "duration": 126}, {"note": 66, "velocity": 102, "duration": 141}, {"note": 0, "velocity": 0, "duration": 99}, {"note": 66, "velocity": 107, "duration": 195}, {"note": 67, "velocity": 97, "duration": 153}, {"note": 0, "velocity": 0, "duration": 87}, {"note": 67, "velocity": 107, "duration": 155}, {"note": 0, "velocity": 0, "duration": 85}, {"note": 67, "velocity": 96, "duration": 135}, {"note": 0, "velocity": 0, "duration": 105}, {"note": 66, "velocity": 107, "duration": 100}, {"note": 0, "velocity": 0, "duration": 140}, {"note": 66, "velocity": 102, "duration": 490}, {"note": 64, "velocity": 95, "duration": 546}, {"note": 0, "velocity": 0, "duration": 414}, {"note": 74, "velocity": 96, "duration": 151}, {"note": 0, "velocity": 0, "duration": 89}, {"note": 73, "velocity": 100, "duration": 157}, {"note": 0, "velocity": 0, "duration": 83}, {"note": 74, "velocity": 99, "duration": 129}, {"note": 0, "velocity": 0, "duration": 111}, {"note": 71, "velocity": 100, "duration": 718}, {"note": 71, "velocity": 102, "duration": 191}, {"note": 0, "velocity": 0, "duration": 289}, {"note": 73, "velocity": 117, "duration": 130}, {"note": 0, "velocity": 0, "duration": 110}, {"note": 73, "velocity": 122, "duration": 186}, {"note": 74, "velocity": 99, "duration": 126}, {"note": 0, "velocity": 0, "duration": 114}, {"note": 69, "velocity": 93, "duration": 186}, {"note": 66, "velocity": 96, "duration": 178}, {"note": 0, "velocity": 0, "duration": 62}, {"note": 69, "velocity": 92, "duration": 167}, {"note": 0, "velocity": 0, "duration": 73}, {"note": 64, "velocity": 93, "duration": 198}, {"note": 66, "velocity": 96, "duration": 306}, {"note": 0, "velocity": 0, "duration": 414}, {"note": 66, "velocity": 92, "duration": 184}, {"note": 67, "velocity": 85, "duration": 187}, {"note": 67, "velocity": 78, "duration": 171}, {"note": 0, "velocity": 0, "duration": 69}, {"note": 67, "velocity": 96, "duration": 173}, {"note": 0, "velocity": 0, "duration": 67}, {"note": 74, "velocity": 100, "duration": 318}, {"note": 0, "velocity": 0, "duration": 162}, {"note": 73, "velocity": 117, "duration": 97}, {"note": 0, "velocity": 0, "duration": 143}, {"note": 73, "velocity": 102, "duration": 229}, {"note": 71, "velocity": 83, "duration": 193}, {"note": 71, "velocity": 127, "duration": 255}, {"note": 69, "velocity": 99, "duration": 615}, {"note": 0, "velocity": 0, "duration": 345}, {"note": 69, "velocity": 95, "duration": 141}, {"note": 0, "velocity": 0, "duration": 99}, {"note": 69, "velocity": 86, "duration": 94}, {"note": 0, "velocity": 0, "duration": 146}, {"note": 69, "velocity": 92, "duration": 142}, {"note": 0, "velocity": 0, "duration": 98}, {"note": 70, "velocity": 107, "duration": 472}, {"note": 0, "velocity": 0, "duration": 248}, {"note": 78, "velocity": 107, "duration": 322}, {"note": 0, "velocity": 0, "duration": 158}, {"note": 76, "velocity": 112, "duration": 142}, {"note": 0, "velocity": 0, "duration": 98}, {"note": 76, "velocity": 96, "duration": 143}, {"note": 0, "velocity": 0, "duration": 97}, {"note": 76, "velocity": 100, "duration": 125}, {"note": 0, "velocity": 0, "duration": 115}, {"note": 76, "velocity": 100, "duration": 209}, {"note": 74, "velocity": 99, "duration": 152}, {"note": 0, "velocity": 0, "duration": 88}, {"note": 73, "velocity": 112, "duration": 157}, {"note": 0, "velocity": 0, "duration": 83}, {"note": 74, "velocity": 112, "duration": 284}, {"note": 0, "velocity": 0, "duration": 676}, {"note": 74, "velocity": 95, "duration": 144}, {"note": 0, "velocity": 0, "duration": 96}, {"note": 74, "velocity": 93, "duration": 114}, {"note": 0, "velocity": 0, "duration": 126}, {"note": 66, "velocity": 102, "duration": 141}, {"note": 0, "velocity": 0, "duration": 99}, {"note": 66, "velocity": 107, "duration": 195}, {"note": 67, "velocity": 102, "duration": 441}, {"note": 0, "velocity": 0, "duration": 519}, {"note": 74, "velocity": 117, "duration": 137}, {"note": 0, "velocity": 0, "duration": 103}, {"note": 74, "velocity": 97, "duration": 114}, {"note": 0, "velocity": 0, "duration": 126}, {"note": 67, "velocity": 112, "duration": 198}, {"note": 66, "velocity": 107, "duration": 156}, {"note": 0, "velocity": 0, "duration": 84}, {"note": 67, "velocity": 100, "duration": 476}, {"note": 67, "velocity": 107, "duration": 251}, {"note": 0, "velocity": 0, "duration": 229}, {"note": 66, "velocity": 95, "duration": 278}, {"note": 0, "velocity": 0, "duration": 202}, {"note": 62, "velocity": 96, "duration": 1291}]]