[[{"note": 60, "velocity": 97, "duration": 289}, {"note": 63, "velocity": 97, "duration": 220}, {"note": 67, "velocity": 95, "duration": 240}, {"note": 62, "velocity": 97, "duration": 540}, {"note": 0, "velocity": 0, "duration": 180}, {"note": 58, "velocity": 99, "duration": 461}, {"note": 55, "velocity": 83, "duration": 234}, {"note": 60, "velocity": 88, "duration": 1471}, {"note": 0, "velocity": 0, "duration": 2129}, {"note": 60, "velocity": 99, "duration": 224}, {"note": 63, "velocity": 89, "duration": 219}, {"note": 67, "velocity": 73, "duration": 244}, {"note": 62, "velocity": 95, "duration": 480}, {"note": 63, "velocity": 102, "duration": 54}, {"note": 0, "velocity": 0, "duration": 66}, {"note": 63, "velocity": 76, "duration": 74}, {"note": 65, "velocity": 99, "duration": 367}, {"note": 0, "velocity": 0, "duration": 113}, {"note": 70, "velocity": 107, "duration": 194}, {"note": 67, "velocity": 96, "duration": 525}, {"note": 0, "velocity": 0, "duration": 1875}, {"note": 67, "velocity": 107, "duration": 150}, {"note": 0, "velocity": 0, "duration": 90}, {"note": 67, "velocity": 97, "duration": 194}, {"note": 65, "velocity": 112, "duration": 247}, {"note": 0, "velocity": 0, "duration": 713}, {"note": 63, "velocity": 127, "duration": 147}, {"note": 0, "velocity": 0, "duration": 93}, {"note": 67, "velocity": 102, "duration": 147}, {"note": 0, "velocity": 0, "duration": 93}, {"note": 67, "velocity": 112, "duration": 148}, {"note": 0, "velocity": 0, "duration": 92}, {"note": 67, "velocity": 112, "duration": 179}, {"note": 0, "velocity": 0, "duration": 61}, {"note": 65, "velocity": 112, "duration": 260}, {"note": 0, "velocity": 0, "duration": 460}, {"note": 58, "velocity": 102, "duration": 201}, {"note": 70, "velocity": 96, "duration": 391}, {"note": 0, "velocity": 0, "duration": 329}, {"note": 68, "velocity": 127, "duration": 179}, {"note": 0, "velocity": 0, "duration": 61}, {"note": 67, "velocity": 100, "duration": 225}, {"note": 65, "velocity": 92, "duration": 264}, {"note": 64, "velocity": 102, "duration": 303}, {"note": 72, "velocity": 83, "duration": 702}, {"note": 0, "velocity": 0, "duration": 258}, {"note": 67, "velocity": 107, "duration": 173}, {"note": 0, "velocity": 0, "duration": 67}, {"note": 68, "velocity": 102, "duration": 540}, {"note": 0, "velocity": 0, "duration": 420}, {"note": 67, "velocity": 112, "duration": 113}, {"note": 0, "velocity": 0, "duration": 127}, {"note": 65, "velocity": 95, "duration": 91}, {"note": 0, "velocity": 0, "duration": 149}, {"note": 67, "velocity": 112, "duration": 366}, {"note": 0, "velocity": 0, "duration": 354}, {"note": 65, "velocity": 92, "duration": 175}, {"note": 0, "velocity": 0, "duration": 65}, {"note": 63, "velocity": 99, "duration": 207}, {"note": 62, "velocity": 88, "duration": 84}, {"note": 0, "velocity": 0, "duration": 156}, {"note": 62, "velocity": 90, "duration": 330}, {"note": 60, "velocity": 85, "duration": 906}, {"note": 0, "velocity": 0, "duration": 1374}, {"note": 60, "velocity": 97, "duration": 210}, {"note": 72, "velocity": 100, "duration": 695}, {"note": 0, "velocity": 0, "duration": 265}, {"note": 72, "velocity": 117, "duration": 181}, {"note": 72, "velocity": 112, "duration": 156}, {"note": 0, "velocity": 0, "duration": 84}, {"note": 70, "velocity": 127, "duration": 384}, {"note": 0, "velocity": 0, "duration": 336}, {"note": 67, "velocity": 100, "duration": 223}, {"note": 0, "velocity": 0, "duration": 257}, {"note": 65, "velocity": 102, "duration": 182}, {"note": 67, "velocity": 107, "duration": 702}, {"note": 0, "velocity": 0, "duration": 1938}, {"note": 60, "velocity": 99, "duration": 198}, {"note": 72, "velocity": 127, "duration": 857}, {"note": 0, "velocity": 0, "duration": 103}, {"note": 72, "velocity": 122, "duration": 220}, {"note": 74, "velocity": 100, "duration": 222}, {"note": 70, "velocity": 122, "duration": 555}, {"note": 0, "velocity": 0, "duration": 165}, {"note": 67, "velocity": 117, "duration": 350}, {"note": 0, "velocity": 0, "duration": 130}, {"note": 65, "velocity": 112, "duration": 184}, {"note": 67, "velocity": 117, "duration": 480}, {"note": 0, "velocity": 0, "duration": 360}, {"note": 65, "velocity": 88, "duration": 123}, {"note": 64, "velocity": 82, "duration": 136}, {"note": 65, "velocity": 83, "duration": 137}, {"note": 64, "velocity": 85, "duration": 137}, {"note": 65, "velocity": 82, "duration": 118}, {"note": 64, "velocity": 96, "duration": 534}, {"note": 0, "velocity": 0, "duration": 666}, {"note": 60, "velocity": 97, "duration": 210}, {"note": 72, "velocity": 100, "duration": 695}, {"note": 0, "velocity": 0, "duration": 265}, {"note": 72, "velocity": 117, "duration": 181}, {"note": 74, "velocity": 112, "duration": 156}, {"note": 0, "velocity": 0, "duration": 84}, {"note": 70, "velocity": 127, "duration": 384}, {"note": 0, "velocity": 0, "duration": 576}, {"note": 67, "velocity": 96, "duration": 174}, {"note": 0, "velocity": 0, "duration": 66}, {"note": 68, "velocity": 107, "duration": 153}, {"note": 0, "velocity": 0, "duration": 87}, {"note": 70, "velocity": 117, "duration": 721}, {"note": 0, "velocity": 0, "duration": 239}, {"note": 67, "velocity": 127, "duration": 122}, {"note": 0, "velocity": 0, "duration": 118}, {"note": 67, "velocity": 112, "duration": 133}, {"note": 0, "velocity": 0, "duration": 107}, {"note": 65, "velocity": 117, "duration": 222}, {"note": 63, "velocity": 100, "duration": 109}, {"note": 60, "velocity": 96, "duration": 451}, {"note": 0, "velocity": 0, "duration": 389}, {"note": 55, "velocity": 97, "duration": 139}, {"note": 0, "velocity": 0, "duration": 101}, {"note": 67, "velocity": 100, "duration": 171}, {"note": 0, "velocity": 0, "duration": 69}, {"note": 63, "velocity": 122, "duration": 219}, {"note": 60, "velocity": 99, "duration": 160}, {"note": 0, "velocity": 0, "duration": 80}, {"note": 67, "velocity": 100, "duration": 156}, {"note": 0, "velocity": 0, "duration": 84}, {"note": 63, "velocity": 127, "duration": 157}, {"note": 0, "velocity": 0, "duration": 83}, {"note": 60, "velocity": 95, "duration": 164}, {"note": 0, "velocity": 0, "duration": 76}, {"note": 62, "velocity": 122, "duration": 362}, {"note": 0, "velocity": 0, "duration": 358}, {"note": 58, "velocity": 122, "duration": 479}, {"note": 0, "velocity": 0, "duration": 241}, {"note": 60, "velocity": 117, "duration": 1488}, {"note": 0, "velocity": 0, "duration": 2112}, {"note": 60, "velocity": 97, "duration": 289}, {"note": 63, "velocity": 97, "duration": 220}, {"note": 67, "velocity": 95, "duration": 240}, {"note": 62, "velocity": 97, "duration": 540}, {"note": 0, "velocity": 0, "duration": 180}, {"note": 58, "velocity": 99, "duration": 461}, {"note": 55, "velocity": 83, "duration": 234}, {"note": 60, "velocity": 88, "duration": 1471}, {"note": 0, "velocity": 0, "duration": 2129}, {"note": 60, "velocity": 99, "duration": 224}, {"note": 63, "velocity": 89, "duration": 219}, {"note": 67, "velocity": 73, "duration": 244}, {"note": 62, "velocity": 95, "duration": 480}, {"note": 63, "velocity": 102, "duration": 54}, {"note": 0, "velocity": 0, "duration": 66}, {"note": 63, "velocity": 76, "duration": 74}, {"note": 65, "velocity": 99, "duration": 367}, {"note": 0, "velocity": 0, "duration": 113}, {"note": 70, "velocity": 107, "duration": 194}, {"note": 67, "velocity": 96, "duration": 525}, {"note": 0, "velocity": 0, "duration": 1875}, {"note": 67, "velocity": 107, "duration": 150}, {"note": 0, "velocity": 0, "duration": 90}, {"note": 67, "velocity": 97, "duration": 194}, {"note": 65, "velocity": 112, "duration": 247}, {"note": 0, "velocity": 0, "duration": 713}, {"note": 63, "velocity": 127, "duration": 147}, {"note": 0, "velocity": 0, "duration": 93}, {"note": 67, "velocity": 102, "duration": 147}, {"note": 0, "velocity": 0, "duration": 93}, {"note": 67, "velocity": 112, "duration": 148}, {"note": 0, "velocity": 0, "duration": 92}, {"note": 67, "velocity": 112, "duration": 179}, {"note": 0, "velocity": 0, "duration": 61}, {"note": 65, "velocity": 112, "duration": 260}, {"note": 0, "velocity": 0, "duration": 460}, {"note": 58, "velocity": 102, "duration": 201}, {"note": 70, "velocity": 96, "duration": 391}, {"note": 0, "velocity": 0, "duration": 329}, {"note": 68, "velocity": 127, "duration": 179}, {"note": 0, "velocity": 0, "duration": 61}, {"note": 67, "velocity": 100, "duration": 225}, {"note": 65, "velocity": 92, "duration": 264}, {"note": 64, "velocity": 102, "duration": 303}, {"note": 72, "velocity": 83, "duration": 702}, {"note": 0, "velocity": 0, "duration": 258}, {"note": 67, "velocity": 107, "duration": 173}, {"note": 0, "velocity": 0, "duration": 67}, {"note": 68, "velocity": 102, "duration": 540}, {"note": 0, "velocity": 0, "duration": 420}, {"note": 67, "velocity": 112, "duration": 113}, {"note": 0, "velocity": 0, "duration": 127}, {"note": 65, "velocity": 95, "duration": 91}, {"note": 0, "velocity": 0, "duration": 149}, {"note": 67, "velocity": 112, "duration": 366}, {"note": 0, "velocity": 0, "duration": 354}, {"note": 65, "velocity": 92, "duration": 175}, {"note": 0, "velocity": 0, "duration": 65}, {"note": 63, "velocity": 99, "duration": 207}, {"note": 62, "velocity": 88, "duration": 84}, {"note": 0, "velocity": 0, "duration": 156}, {"note": 62, "velocity": 90, "duration": 330}, {"note": 60, "velocity": 85, "duration": 906}, {"note": 0, "velocity": 0, "duration": 1374}, {"note": 60, "velocity": 97, "duration": 210}, {"note": 72, "velocity": 100, "duration": 695}, {"note": 0, "velocity": 0, "duration": 265}, {"note": 72, "velocity": 117, "duration": 181}, {"note": 72, "velocity": 112, "duration": 156}, {"note": 0, "velocity": 0, "duration": 84}, {"note": 70, "velocity": 127, "duration": 384}, {"note": 0, "velocity": 0, "duration": 336}, {"note": 67, "velocity": 100, "duration": 223}, {"note": 0, "velocity": 0, "duration": 257}, {"note": 65, "velocity": 102, "duration": 182}, {"note": 67, "velocity": 107, "duration": 702}, {"note": 0, "velocity": 0, "duration": 1938}, {"note": 60, "velocity": 99, "duration": 198}, {"note": 72, "velocity": 127, "duration": 857}, {"note": 0, "velocity": 0, "duration": 103}, {"note": 72, "velocity": 122, "duration": 220}, {"note": 74, "velocity": 100, "duration": 222}, {"note": 70, "velocity": 122, "duration": 555}, {"note": 0, "velocity": 0, "duration": 165}, {"note": 67, "velocity": 117, "duration": 350}, {"note": 0, "velocity": 0, "duration": 130}, {"note": 65, "velocity": 112, "duration": 184}, {"note": 67, "velocity": 117, "duration": 480}, {"note": 0, "velocity": 0, "duration": 360}, {"note": 65, "velocity": 88, "duration": 123}, {"note": 64, "velocity": 82, "duration": 136}, {"note": 65, "velocity": 83, "duration": 137}, {"note": 64, "velocity": 85, "duration": 137}, {"note": 65, "velocity": 82, "duration": 118}, {"note": 64, "velocity": 96, "duration": 534}, {"note": 0, "velocity": 0, "duration": 666}, {"note": 60, "velocity": 97, "duration": 210}, {"note": 72, "velocity": 100, "duration": 695}, {"note": 0, "velocity": 0, "duration": 265}, {"note": 72, "velocity": 117, "duration": 181}, {"note": 74, "velocity": 112, "duration": 156}, {"note": 0, "velocity": 0, "duration": 84}, {"note": 70, "velocity": 127, "duration": 384}, {"note": 0, "velocity": 0, "duration": 576}, {"note": 67, "velocity": 96, "duration": 174}, {"note": 0, "velocity": 0, "duration": 66}, {"note": 68, "velocity": 107, "duration": 153}, {"note": 0, "velocity": 0, "duration": 87}, {"note": 70, "velocity": 117, "duration": 721}, {"note": 0, "velocity": 0, "duration": 239}, {"note": 67, "velocity": 127, "duration": 122}, {"note": 0, "velocity": 0, "duration": 118}, {"note": 67, "velocity": 112, "duration": 133}, {"note": 0, "velocity": 0, "duration": 107}, {"note": 65, "velocity": 117, "duration": 222}, {"note": 63, "velocity": 100, "duration": 109}, {"note": 60, "velocity": 96, "duration": 451}, {"note": 0, "velocity": 0, "duration": 389}, {"note": 55, "velocity": 97, "duration": 139}, {"note": 0, "velocity": 0, "duration": 101}, {"note": 67, "velocity": 100, "duration": 171}, {"note": 0, "velocity": 0, "duration": 69}, {"note": 63, "velocity": 122, "duration": 219}, {"note": 60, "velocity": 99, "duration": 160}, {"note": 0, "velocity": 0, "duration": 80}, {"note": 67, "velocity": 100, "duration": 156}, {"note": 0, "velocity": 0, "duration": 84}, {"note": 63, "velocity": 127, "duration": 157}, {"note": 0, "velocity": 0, "duration": 83}, {"note": 60, "velocity": 95, "duration": 164}, {"note": 0, "velocity": 0, "duration": 76}, {"note": 62, "velocity": 122, "duration": 362}, {"note": 0, "velocity": 0, "duration": 358}, {"note": 58, "velocity": 122, "duration": 479}, {"note": 0, "velocity": 0, "duration": 241}, {"note": 60, "velocity": 117, "duration": 960}, {"note": 0, "velocity": 0, "duration": 1680}, {"note": 60, "velocity": 97, "duration": 210}, {"note": 72, "velocity": 100, "duration": 695}, {"note": 0, "velocity": 0, "duration": 265}, {"note": 72, "velocity": 117, "duration": 181}, {"note": 72, "velocity": 112, "duration": 156}, {"note": 0, "velocity": 0, "duration": 84}, {"note": 70, "velocity": 127, "duration": 384}, {"note": 0, "velocity": 0, "duration": 336}, {"note": 67, "velocity": 100, "duration": 223}, {"note": 0, "velocity": 0, "duration": 257}, {"note": 65, "velocity": 102, "duration": 182}, {"note": 67, "velocity": 107, "duration": 702}, {"note": 0, "velocity": 0, "duration": 1938}, {"note": 60, "velocity": 99, "duration": 198}, {"note": 72, "velocity": 127, "duration": 857}, {"note": 0, "velocity": 0, "duration": 103}, {"note": 72, "velocity": 122, "duration": 220}, {"note": 74, "velocity": 100, "duration": 222}, {"note": 70, "velocity": 122, "duration": 555}, {"note": 0, "velocity": 0, "duration": 165}, {"note": 67, "velocity": 117, "duration": 350}, {"note": 0, "velocity": 0, "duration": 130}, {"note": 65, "velocity": 112, "duration": 184}, {"note": 67, "velocity": 117, "duration": 480}, {"note": 0, "velocity": 0, "duration": 360}, {"note": 65, "velocity": 88, "duration": 123}, {"note": 64, "velocity": 82, "duration": 136}, {"note": 65, "velocity": 83, "duration": 137}, {"note": 64, "velocity": 85, "duration": 137}, {"note": 65, "velocity": 82, "duration": 118}, {"note": 64, "velocity": 96, "duration": 534}, {"note": 0, "velocity": 0, "duration": 666}, {"note": 60, "velocity": 97, "duration": 210}, {"note": 72, "velocity": 100, "duration": 695}, {"note": 0, "velocity": 0, "duration": 265}, {"note": 72, "velocity": 117, "duration": 181}, {"note": 74, "velocity": 112, "duration": 156}, {"note": 0, "velocity": 0, "duration": 84}, {"note": 70, "velocity": 127, "duration": 384}, {"note": 0, "velocity": 0, "duration": 576}, {"note": 67, "velocity": 96, "duration": 174}, {"note": 0, "velocity": 0, "duration": 66}, {"note": 68, "velocity": 107, "duration": 153}, {"note": 0, "velocity": 0, "duration": 87}, {"note": 70, "velocity": 117, "duration": 721}, {"note": 0, "velocity": 0, "duration": 239}, {"note": 67, "velocity": 127, "duration": 122}, {"note": 0, "velocity": 0, "duration": 118}, {"note": 67, "velocity": 112, "duration": 133}, {"note": 0, "velocity": 0, "duration": 107}, {"note": 65, "velocity": 117, "duration": 222}, {"note": 63, "velocity": 100, "duration": 109}, {"note": 60, "velocity": 96, "duration": 451}, {"note": 0, "velocity": 0, "duration": 389}, {"note": 55, "velocity": 97, "duration": 139}, {"note": 0, "velocity": 0, "duration": 101}, {"note": 67, "velocity": 100, "duration": 171}, {"note": 0, "velocity": 0, "duration": 69}, {"note": 63, "velocity": 122, "duration": 219}, {"note": 60, "velocity": 99, "duration": 160}, {"note": 0, "velocity": 0, "duration": 80}, {"note": 67, "velocity": 100, "duration": 156}, {"note": 0, "velocity": 0, "duration": 84}, {"note": 63, "velocity": 127, "duration": 157}, {"note": 0, "velocity": 0, "duration": 83}, {"note": 60, "velocity": 95, "duration": 164}, {"note": 0, "velocity": 0, "duration": 76}, {"note": 62, "velocity": 122, "duration": 362}, {"note": 0, "velocity": 0, "duration": 358}, {"note": 58, "velocity": 122, "duration": 479}, {"note": 0, "velocity": 0, "duration": 241}, {"note": 60, "velocity": 117, "duration": 960}, {"note": 0, "velocity": 0, "duration": 1680}, {"note": 60, "velocity": 93, "duration": 171}, {"note": 0, "velocity": 0, "duration": 69}, {"note": 72, "velocity": 117, "duration": 518}, {"note": 0, "velocity": 0, "duration": 442}, {"note": 72, "velocity": 117, "duration": 127}, {"note": 0, "velocity": 0, "duration": 113}, {"note": 72, "velocity": 122, "duration": 161}, {"note": 0, "velocity": 0, "duration": 79}, {"note": 70, "velocity": 122, "duration": 512}, {"note": 0, "velocity": 0, "duration": 448}, {"note": 67, "velocity": 92, "duration": 176}, {"note": 0, "velocity": 0, "duration": 64}, {"note": 68, "velocity": 100, "duration": 146}, {"note": 0, "velocity": 0, "duration": 94}, {"note": 70, "velocity": 127, "duration": 578}, {"note": 0, "velocity": 0, "duration": 382}, {"note": 67, "velocity": 100, "duration": 137}, {"note": 0, "velocity": 0, "duration": 103}, {"note": 67, "velocity": 99, "duration": 162}, {"note": 0, "velocity": 0, "duration": 78}, {"note": 65, "velocity": 100, "duration": 640}, {"note": 63, "velocity": 93, "duration": 119}, {"note": 60, "velocity": 76, "duration": 473}, {"note": 0, "velocity": 0, "duration": 247}, {"note": 60, "velocity": 92, "duration": 99}, {"note": 0, "velocity": 0, "duration": 141}, {"note": 67, "velocity": 97, "duration": 170}, {"note": 0, "velocity": 0, "duration": 70}, {"note": 63, "velocity": 93, "duration": 213}, {"note": 60, "velocity": 83, "duration": 175}, {"note": 0, "velocity": 0, "duration": 65}, {"note": 67, "velocity": 96, "duration": 187}, {"note": 63, "velocity": 107, "duration": 154}, {"note": 0, "velocity": 0, "duration": 86}, {"note": 60, "velocity": 89, "duration": 173}, {"note": 0, "velocity": 0, "duration": 67}, {"note": 62, "velocity": 97, "duration": 960}, {"note": 0, "velocity": 0, "duration": 360}, {"note": 70, "velocity": 112, "duration": 654}, {"note": 0, "velocity": 0, "duration": 186}, {"note": 72, "velocity": 107, "duration": 1998}]]