[[{"note": 65, "velocity": 107, "duration": 312}, {"note": 0, "velocity": 0, "duration": 168}, {"note": 65, "velocity": 86, "duration": 300}, {"note": 0, "velocity": 0, "duration": 180}, {"note": 65, "velocity": 100, "duration": 285}, {"note": 0, "velocity": 0, "duration": 195}, {"note": 65, "velocity": 89, "duration": 244}, {"note": 0, "velocity": 0, "duration": 236}, {"note": 65, "velocity": 102, "duration": 354}, {"note": 0, "velocity": 0, "duration": 126}, {"note": 66, "velocity": 112, "duration": 1480}, {"note": 0, "velocity": 0, "duration": 440}, {"note": 66, "velocity": 112, "duration": 236}, {"note": 0, "velocity": 0, "duration": 244}, {"note": 66, "velocity": 102, "duration": 487}, {"note": 0, "velocity": 0, "duration": 473}, {"note": 66, "velocity": 112, "duration": 313}, {"note": 0, "velocity": 0, "duration": 167}, {"note": 68, "velocity": 99, "duration": 533}, {"note": 0, "velocity": 0, "duration": 427}, {"note": 65, "velocity": 97, "duration": 852}, {"note": 65, "velocity": 99, "duration": 290}, {"note": 0, "velocity": 0, "duration": 190}, {"note": 65, "velocity": 112, "duration": 643}, {"note": 0, "velocity": 0, "duration": 317}, {"note": 66, "velocity": 96, "duration": 347}, {"note": 0, "velocity": 0, "duration": 133}, {"note": 68, "velocity": 112, "duration": 596}, {"note": 0, "velocity": 0, "duration": 364}, {"note": 63, "velocity": 97, "duration": 925}, {"note": 0, "velocity": 0, "duration": 3395}, {"note": 65, "velocity": 93, "duration": 333}, {"note": 0, "velocity": 0, "duration": 147}, {"note": 65, "velocity": 86, "duration": 287}, {"note": 0, "velocity": 0, "duration": 193}, {"note": 65, "velocity": 93, "duration": 284}, {"note": 0, "velocity": 0, "duration": 196}, {"note": 65, "velocity": 86, "duration": 254}, {"note": 0, "velocity": 0, "duration": 226}, {"note": 65, "velocity": 96, "duration": 250}, {"note": 0, "velocity": 0, "duration": 230}, {"note": 66, "velocity": 102, "duration": 1181}, {"note": 0, "velocity": 0, "duration": 739}, {"note": 66, "velocity": 107, "duration": 274}, {"note": 0, "velocity": 0, "duration": 206}, {"note": 66, "velocity": 102, "duration": 631}, {"note": 0, "velocity": 0, "duration": 329}, {"note": 66, "velocity": 107, "duration": 364}, {"note": 68, "velocity": 99, "duration": 656}, {"note": 0, "velocity": 0, "duration": 304}, {"note": 65, "velocity": 100, "duration": 850}, {"note": 58, "velocity": 102, "duration": 119}, {"note": 0, "velocity": 0, "duration": 361}, {"note": 65, "velocity": 99, "duration": 693}, {"note": 0, "velocity": 0, "duration": 267}, {"note": 65, "velocity": 96, "duration": 349}, {"note": 0, "velocity": 0, "duration": 131}, {"note": 68, "velocity": 127, "duration": 639}, {"note": 0, "velocity": 0, "duration": 321}, {"note": 63, "velocity": 100, "duration": 1550}, {"note": 0, "velocity": 0, "duration": 2770}, {"note": 73, "velocity": 122, "duration": 446}, {"note": 70, "velocity": 102, "duration": 196}, {"note": 0, "velocity": 0, "duration": 284}, {"note": 70, "velocity": 102, "duration": 367}, {"note": 68, "velocity": 122, "duration": 444}, {"note": 65, "velocity": 90, "duration": 494}, {"note": 68, "velocity": 97, "duration": 680}, {"note": 0, "velocity": 0, "duration": 760}, {"note": 73, "velocity": 117, "duration": 445}, {"note": 70, "velocity": 95, "duration": 224}, {"note": 0, "velocity": 0, "duration": 256}, {"note": 70, "velocity": 99, "duration": 364}, {"note": 68, "velocity": 93, "duration": 337}, {"note": 0, "velocity": 0, "duration": 143}, {"note": 65, "velocity": 90, "duration": 490}, {"note": 68, "velocity": 96, "duration": 652}, {"note": 0, "velocity": 0, "duration": 788}, {"note": 73, "velocity": 112, "duration": 353}, {"note": 0, "velocity": 0, "duration": 127}, {"note": 70, "velocity": 117, "duration": 198}, {"note": 0, "velocity": 0, "duration": 282}, {"note": 70, "velocity": 96, "duration": 417}, {"note": 68, "velocity": 92, "duration": 215}, {"note": 0, "velocity": 0, "duration": 265}, {"note": 65, "velocity": 95, "duration": 390}, {"note": 63, "velocity": 93, "duration": 480}, {"note": 65, "velocity": 88, "duration": 259}, {"note": 63, "velocity": 99, "duration": 1779}, {"note": 0, "velocity": 0, "duration": 3021}, {"note": 73, "velocity": 122, "duration": 446}, {"note": 70, "velocity": 102, "duration": 196}, {"note": 0, "velocity": 0, "duration": 284}, {"note": 70, "velocity": 102, "duration": 367}, {"note": 68, "velocity": 122, "duration": 444}, {"note": 65, "velocity": 90, "duration": 494}, {"note": 68, "velocity": 97, "duration": 680}, {"note": 0, "velocity": 0, "duration": 760}, {"note": 73, "velocity": 117, "duration": 445}, {"note": 70, "velocity": 95, "duration": 224}, {"note": 0, "velocity": 0, "duration": 256}, {"note": 70, "velocity": 99, "duration": 364}, {"note": 68, "velocity": 93, "duration": 337}, {"note": 0, "velocity": 0, "duration": 143}, {"note": 65, "velocity": 90, "duration": 490}, {"note": 68, "velocity": 96, "duration": 652}, {"note": 0, "velocity": 0, "duration": 788}, {"note": 73, "velocity": 112, "duration": 353}, {"note": 0, "velocity": 0, "duration": 127}, {"note": 70, "velocity": 117, "duration": 198}, {"note": 0, "velocity": 0, "duration": 282}, {"note": 70, "velocity": 96, "duration": 417}, {"note": 68, "velocity": 92, "duration": 215}, {"note": 0, "velocity": 0, "duration": 265}, {"note": 65, "velocity": 95, "duration": 390}, {"note": 63, "velocity": 93, "duration": 480}, {"note": 65, "velocity": 107, "duration": 237}, {"note": 63, "velocity": 100, "duration": 2198}, {"note": 0, "velocity": 0, "duration": 3082}, {"note": 68, "velocity": 107, "duration": 405}, {"note": 77, "velocity": 117, "duration": 402}, {"note": 75, "velocity": 127, "duration": 445}, {"note": 73, "velocity": 112, "duration": 305}, {"note": 0, "velocity": 0, "duration": 175}, {"note": 73, "velocity": 112, "duration": 1329}, {"note": 0, "velocity": 0, "duration": 591}, {"note": 68, "velocity": 102, "duration": 344}, {"note": 0, "velocity": 0, "duration": 136}, {"note": 77, "velocity": 122, "duration": 323}, {"note": 0, "velocity": 0, "duration": 157}, {"note": 75, "velocity": 117, "duration": 327}, {"note": 0, "velocity": 0, "duration": 153}, {"note": 73, "velocity": 107, "duration": 251}, {"note": 0, "velocity": 0, "duration": 229}, {"note": 75, "velocity": 122, "duration": 837}, {"note": 0, "velocity": 0, "duration": 123}, {"note": 72, "velocity": 127, "duration": 326}, {"note": 0, "velocity": 0, "duration": 634}, {"note": 68, "velocity": 96, "duration": 181}, {"note": 0, "velocity": 0, "duration": 299}, {"note": 77, "velocity": 97, "duration": 530}, {"note": 75, "velocity": 100, "duration": 419}, {"note": 73, "velocity": 85, "duration": 174}, {"note": 0, "velocity": 0, "duration": 306}, {"note": 73, "velocity": 117, "duration": 729}, {"note": 0, "velocity": 0, "duration": 231}, {"note": 70, "velocity": 112, "duration": 252}, {"note": 0, "velocity": 0, "duration": 228}, {"note": 73, "velocity": 117, "duration": 166}, {"note": 0, "velocity": 0, "duration": 314}, {"note": 70, "velocity": 97, "duration": 226}, {"note": 0, "velocity": 0, "duration": 254}, {"note": 73, "velocity": 112, "duration": 282}, {"note": 0, "velocity": 0, "duration": 198}, {"note": 70, "velocity": 102, "duration": 251}, {"note": 0, "velocity": 0, "duration": 229}, {"note": 73, "velocity": 122, "duration": 295}, {"note": 0, "velocity": 0, "duration": 185}, {"note": 75, "velocity": 100, "duration": 270}, {"note": 0, "velocity": 0, "duration": 210}, {"note": 77, "velocity": 122, "duration": 752}, {"note": 75, "velocity": 117, "duration": 416}, {"note": 73, "velocity": 117, "duration": 183}, {"note": 0, "velocity": 0, "duration": 297}, {"note": 73, "velocity": 112, "duration": 541}, {"note": 0, "velocity": 0, "duration": 419}, {"note": 77, "velocity": 107, "duration": 288}, {"note": 0, "velocity": 0, "duration": 192}, {"note": 78, "velocity": 117, "duration": 341}, {"note": 0, "velocity": 0, "duration": 139}, {"note": 77, "velocity": 112, "duration": 600}, {"note": 0, "velocity": 0, "duration": 360}, {"note": 73, "velocity": 100, "duration": 398}, {"note": 73, "velocity": 117, "duration": 200}, {"note": 0, "velocity": 0, "duration": 280}, {"note": 73, "velocity": 107, "duration": 220}, {"note": 0, "velocity": 0, "duration": 260}, {"note": 73, "velocity": 122, "duration": 332}, {"note": 0, "velocity": 0, "duration": 148}, {"note": 75, "velocity": 107, "duration": 298}, {"note": 0, "velocity": 0, "duration": 662}, {"note": 77, "velocity": 122, "duration": 635}, {"note": 0, "velocity": 0, "duration": 325}, {"note": 78, "velocity": 122, "duration": 297}, {"note": 0, "velocity": 0, "duration": 183}, {"note": 77, "velocity": 112, "duration": 267}, {"note": 0, "velocity": 0, "duration": 213}, {"note": 75, "velocity": 102, "duration": 239}, {"note": 0, "velocity": 0, "duration": 241}, {"note": 73, "velocity": 112, "duration": 585}, {"note": 0, "velocity": 0, "duration": 375}, {"note": 70, "velocity": 99, "duration": 374}, {"note": 73, "velocity": 117, "duration": 323}, {"note": 0, "velocity": 0, "duration": 637}, {"note": 70, "velocity": 102, "duration": 202}, {"note": 0, "velocity": 0, "duration": 278}, {"note": 73, "velocity": 127, "duration": 212}, {"note": 0, "velocity": 0, "duration": 268}, {"note": 70, "velocity": 95, "duration": 224}, {"note": 0, "velocity": 0, "duration": 256}, {"note": 73, "velocity": 117, "duration": 291}, {"note": 0, "velocity": 0, "duration": 189}, {"note": 75, "velocity": 107, "duration": 265}, {"note": 0, "velocity": 0, "duration": 215}, {"note": 77, "velocity": 117, "duration": 284}, {"note": 0, "velocity": 0, "duration": 196}, {"note": 75, "velocity": 127, "duration": 842}, {"note": 0, "velocity": 0, "duration": 1078}, {"note": 68, "velocity": 102, "duration": 329}, {"note": 0, "velocity": 0, "duration": 151}, {"note": 77, "velocity": 117, "duration": 402}, {"note": 75, "velocity": 127, "duration": 445}, {"note": 73, "velocity": 112, "duration": 305}, {"note": 0, "velocity": 0, "duration": 175}, {"note": 73, "velocity": 112, "duration": 1329}, {"note": 0, "velocity": 0, "duration": 591}, {"note": 68, "velocity": 102, "duration": 344}, {"note": 0, "velocity": 0, "duration": 136}, {"note": 77, "velocity": 122, "duration": 323}, {"note": 0, "velocity": 0, "duration": 157}, {"note": 75, "velocity": 117, "duration": 327}, {"note": 0, "velocity": 0, "duration": 153}, {"note": 73, "velocity": 107, "duration": 251}, {"note": 0, "velocity": 0, "duration": 229}, {"note": 75, "velocity": 122, "duration": 837}, {"note": 0, "velocity": 0, "duration": 123}, {"note": 72, "velocity": 127, "duration": 326}, {"note": 0, "velocity": 0, "duration": 634}, {"note": 68, "velocity": 96, "duration": 181}, {"note": 0, "velocity": 0, "duration": 299}, {"note": 77, "velocity": 97, "duration": 530}, {"note": 75, "velocity": 100, "duration": 419}, {"note": 73, "velocity": 85, "duration": 174}, {"note": 0, "velocity": 0, "duration": 306}, {"note": 73, "velocity": 117, "duration": 729}, {"note": 0, "velocity": 0, "duration": 231}, {"note": 70, "velocity": 112, "duration": 252}, {"note": 0, "velocity": 0, "duration": 228}, {"note": 73, "velocity": 117, "duration": 166}, {"note": 0, "velocity": 0, "duration": 314}, {"note": 70, "velocity": 97, "duration": 226}, {"note": 0, "velocity": 0, "duration": 254}, {"note": 73, "velocity": 112, "duration": 282}, {"note": 0, "velocity": 0, "duration": 198}, {"note": 70, "velocity": 102, "duration": 251}, {"note": 0, "velocity": 0, "duration": 229}, {"note": 73, "velocity": 122, "duration": 295}, {"note": 0, "velocity": 0, "duration": 185}, {"note": 75, "velocity": 100, "duration": 270}, {"note": 0, "velocity": 0, "duration": 210}, {"note": 77, "velocity": 122, "duration": 752}, {"note": 75, "velocity": 117, "duration": 416}, {"note": 73, "velocity": 117, "duration": 183}, {"note": 0, "velocity": 0, "duration": 297}, {"note": 73, "velocity": 112, "duration": 541}, {"note": 0, "velocity": 0, "duration": 419}, {"note": 77, "velocity": 107, "duration": 288}, {"note": 0, "velocity": 0, "duration": 192}, {"note": 78, "velocity": 117, "duration": 341}, {"note": 0, "velocity": 0, "duration": 139}, {"note": 77, "velocity": 112, "duration": 600}, {"note": 0, "velocity": 0, "duration": 360}, {"note": 73, "velocity": 100, "duration": 398}, {"note": 73, "velocity": 117, "duration": 200}, {"note": 0, "velocity": 0, "duration": 280}, {"note": 73, "velocity": 107, "duration": 220}, {"note": 0, "velocity": 0, "duration": 260}, {"note": 73, "velocity": 122, "duration": 332}, {"note": 0, "velocity": 0, "duration": 148}, {"note": 75, "velocity": 107, "duration": 298}, {"note": 0, "velocity": 0, "duration": 662}, {"note": 77, "velocity": 122, "duration": 635}, {"note": 0, "velocity": 0, "duration": 325}, {"note": 78, "velocity": 122, "duration": 297}, {"note": 0, "velocity": 0, "duration": 183}, {"note": 77, "velocity": 112, "duration": 267}, {"note": 0, "velocity": 0, "duration": 213}, {"note": 75, "velocity": 102, "duration": 239}, {"note": 0, "velocity": 0, "duration": 241}, {"note": 73, "velocity": 112, "duration": 585}, {"note": 0, "velocity": 0, "duration": 375}, {"note": 70, "velocity": 99, "duration": 374}, {"note": 73, "velocity": 117, "duration": 323}, {"note": 0, "velocity": 0, "duration": 637}, {"note": 70, "velocity": 102, "duration": 202}, {"note": 0, "velocity": 0, "duration": 278}, {"note": 73, "velocity": 127, "duration": 212}, {"note": 0, "velocity": 0, "duration": 268}, {"note": 70, "velocity": 95, "duration": 224}, {"note": 0, "velocity": 0, "duration": 256}, {"note": 73, "velocity": 117, "duration": 291}, {"note": 0, "velocity": 0, "duration": 189}, {"note": 75, "velocity": 107, "duration": 265}, {"note": 0, "velocity": 0, "duration": 215}, {"note": 77, "velocity": 117, "duration": 284}, {"note": 0, "velocity": 0, "duration": 196}, {"note": 75, "velocity": 127, "duration": 842}, {"note": 0, "velocity": 0, "duration": 1078}, {"note": 68, "velocity": 102, "duration": 396}, {"note": 77, "velocity": 112, "duration": 443}, {"note": 75, "velocity": 117, "duration": 443}, {"note": 73, "velocity": 99, "duration": 260}, {"note": 0, "velocity": 0, "duration": 220}, {"note": 73, "velocity": 117, "duration": 2742}, {"note": 0, "velocity": 0, "duration": 33738}, {"note": 68, "velocity": 107, "duration": 405}, {"note": 77, "velocity": 117, "duration": 402}, {"note": 75, "velocity": 127, "duration": 445}, {"note": 73, "velocity": 112, "duration": 305}, {"note": 0, "velocity": 0, "duration": 175}, {"note": 73, "velocity": 112, "duration": 1329}, {"note": 0, "velocity": 0, "duration": 591}, {"note": 68, "velocity": 102, "duration": 344}, {"note": 0, "velocity": 0, "duration": 136}, {"note": 77, "velocity": 122, "duration": 323}, {"note": 0, "velocity": 0, "duration": 157}, {"note": 75, "velocity": 117, "duration": 327}, {"note": 0, "velocity": 0, "duration": 153}, {"note": 73, "velocity": 107, "duration": 251}, {"note": 0, "velocity": 0, "duration": 229}, {"note": 75, "velocity": 122, "duration": 837}, {"note": 0, "velocity": 0, "duration": 123}, {"note": 72, "velocity": 127, "duration": 326}, {"note": 0, "velocity": 0, "duration": 634}, {"note": 68, "velocity": 96, "duration": 181}, {"note": 0, "velocity": 0, "duration": 299}, {"note": 77, "velocity": 97, "duration": 530}, {"note": 75, "velocity": 100, "duration": 419}, {"note": 73, "velocity": 85, "duration": 174}, {"note": 0, "velocity": 0, "duration": 306}, {"note": 73, "velocity": 117, "duration": 729}, {"note": 0, "velocity": 0, "duration": 231}, {"note": 70, "velocity": 112, "duration": 252}, {"note": 0, "velocity": 0, "duration": 228}, {"note": 73, "velocity": 117, "duration": 166}, {"note": 0, "velocity": 0, "duration": 314}, {"note": 70, "velocity": 97, "duration": 226}, {"note": 0, "velocity": 0, "duration": 254}, {"note": 73, "velocity": 112, "duration": 282}, {"note": 0, "velocity": 0, "duration": 198}, {"note": 70, "velocity": 102, "duration": 251}, {"note": 0, "velocity": 0, "duration": 229}, {"note": 73, "velocity": 122, "duration": 295}, {"note": 0, "velocity": 0, "duration": 185}, {"note": 75, "velocity": 100, "duration": 270}, {"note": 0, "velocity": 0, "duration": 210}, {"note": 77, "velocity": 122, "duration": 752}, {"note": 75, "velocity": 117, "duration": 416}, {"note": 73, "velocity": 117, "duration": 183}, {"note": 0, "velocity": 0, "duration": 297}, {"note": 73, "velocity": 112, "duration": 541}, {"note": 0, "velocity": 0, "duration": 419}, {"note": 77, "velocity": 107, "duration": 288}, {"note": 0, "velocity": 0, "duration": 192}, {"note": 78, "velocity": 117, "duration": 341}, {"note": 0, "velocity": 0, "duration": 139}, {"note": 77, "velocity": 112, "duration": 600}, {"note": 0, "velocity": 0, "duration": 360}, {"note": 73, "velocity": 100, "duration": 398}, {"note": 73, "velocity": 117, "duration": 200}, {"note": 0, "velocity": 0, "duration": 280}, {"note": 73, "velocity": 107, "duration": 220}, {"note": 0, "velocity": 0, "duration": 260}, {"note": 73, "velocity": 122, "duration": 332}, {"note": 0, "velocity": 0, "duration": 148}, {"note": 75, "velocity": 107, "duration": 298}, {"note": 0, "velocity": 0, "duration": 662}, {"note": 77, "velocity": 122, "duration": 635}, {"note": 0, "velocity": 0, "duration": 325}, {"note": 78, "velocity": 122, "duration": 297}, {"note": 0, "velocity": 0, "duration": 183}, {"note": 77, "velocity": 112, "duration": 267}, {"note": 0, "velocity": 0, "duration": 213}, {"note": 75, "velocity": 102, "duration": 239}, {"note": 0, "velocity": 0, "duration": 241}, {"note": 73, "velocity": 112, "duration": 585}, {"note": 0, "velocity": 0, "duration": 375}, {"note": 70, "velocity": 99, "duration": 374}, {"note": 73, "velocity": 117, "duration": 323}, {"note": 0, "velocity": 0, "duration": 637}, {"note": 70, "velocity": 102, "duration": 202}, {"note": 0, "velocity": 0, "duration": 278}, {"note": 73, "velocity": 127, "duration": 212}, {"note": 0, "velocity": 0, "duration": 268}, {"note": 70, "velocity": 95, "duration": 224}, {"note": 0, "velocity": 0, "duration": 256}, {"note": 73, "velocity": 117, "duration": 291}, {"note": 0, "velocity": 0, "duration": 189}, {"note": 75, "velocity": 107, "duration": 265}, {"note": 0, "velocity": 0, "duration": 215}, {"note": 77, "velocity": 117, "duration": 284}, {"note": 0, "velocity": 0, "duration": 196}, {"note": 75, "velocity": 127, "duration": 2736}, {"note": 0, "velocity": 0, "duration": 1584}, {"note": 76, "velocity": 127, "duration": 1108}, {"note": 0, "velocity": 0, "duration": 332}, {"note": 69, "velocity": 102, "duration": 329}, {"note": 0, "velocity": 0, "duration": 151}, {"note": 78, "velocity": 117, "duration": 402}, {"note": 76, "velocity": 127, "duration": 445}, {"note": 74, "velocity": 112, "duration": 305}, {"note": 0, "velocity": 0, "duration": 175}, {"note": 74, "velocity": 112, "duration": 1329}, {"note": 0, "velocity": 0, "duration": 591}, {"note": 69, "velocity": 102, "duration": 344}, {"note": 0, "velocity": 0, "duration": 136}, {"note": 78, "velocity": 122, "duration": 323}, {"note": 0, "velocity": 0, "duration": 157}, {"note": 76, "velocity": 117, "duration": 327}, {"note": 0, "velocity": 0, "duration": 153}, {"note": 74, "velocity": 107, "duration": 251}, {"note": 0, "velocity": 0, "duration": 229}, {"note": 76, "velocity": 122, "duration": 837}, {"note": 0, "velocity": 0, "duration": 123}, {"note": 73, "velocity": 127, "duration": 326}, {"note": 0, "velocity": 0, "duration": 634}, {"note": 69, "velocity": 96, "duration": 181}, {"note": 0, "velocity": 0, "duration": 299}, {"note": 78, "velocity": 97, "duration": 530}, {"note": 76, "velocity": 100, "duration": 419}, {"note": 74, "velocity": 85, "duration": 174}, {"note": 0, "velocity": 0, "duration": 306}, {"note": 74, "velocity": 117, "duration": 729}, {"note": 0, "velocity": 0, "duration": 231}, {"note": 71, "velocity": 112, "duration": 252}, {"note": 0, "velocity": 0, "duration": 228}, {"note": 74, "velocity": 117, "duration": 166}, {"note": 0, "velocity": 0, "duration": 314}, {"note": 71, "velocity": 97, "duration": 226}, {"note": 0, "velocity": 0, "duration": 254}, {"note": 74, "velocity": 112, "duration": 282}, {"note": 0, "velocity": 0, "duration": 198}, {"note": 71, "velocity": 102, "duration": 251}, {"note": 0, "velocity": 0, "duration": 229}, {"note": 74, "velocity": 122, "duration": 295}, {"note": 0, "velocity": 0, "duration": 185}, {"note": 76, "velocity": 100, "duration": 270}, {"note": 0, "velocity": 0, "duration": 210}, {"note": 78, "velocity": 122, "duration": 752}, {"note": 76, "velocity": 117, "duration": 416}, {"note": 74, "velocity": 117, "duration": 183}, {"note": 0, "velocity": 0, "duration": 297}, {"note": 74, "velocity": 112, "duration": 541}, {"note": 0, "velocity": 0, "duration": 419}, {"note": 78, "velocity": 107, "duration": 288}, {"note": 0, "velocity": 0, "duration": 192}, {"note": 79, "velocity": 117, "duration": 341}, {"note": 0, "velocity": 0, "duration": 139}, {"note": 78, "velocity": 112, "duration": 600}, {"note": 0, "velocity": 0, "duration": 360}, {"note": 74, "velocity": 100, "duration": 398}, {"note": 74, "velocity": 117, "duration": 200}, {"note": 0, "velocity": 0, "duration": 280}, {"note": 74, "velocity": 107, "duration": 220}, {"note": 0, "velocity": 0, "duration": 260}, {"note": 74, "velocity": 122, "duration": 332}, {"note": 0, "velocity": 0, "duration": 148}, {"note": 76, "velocity": 107, "duration": 298}, {"note": 0, "velocity": 0, "duration": 662}, {"note": 78, "velocity": 122, "duration": 635}, {"note": 0, "velocity": 0, "duration": 325}, {"note": 79, "velocity": 122, "duration": 297}, {"note": 0, "velocity": 0, "duration": 183}, {"note": 78, "velocity": 112, "duration": 267}, {"note": 0, "velocity": 0, "duration": 213}, {"note": 76, "velocity": 102, "duration": 239}, {"note": 0, "velocity": 0, "duration": 241}, {"note": 74, "velocity": 112, "duration": 585}, {"note": 0, "velocity": 0, "duration": 375}, {"note": 71, "velocity": 99, "duration": 374}, {"note": 74, "velocity": 117, "duration": 323}, {"note": 0, "velocity": 0, "duration": 637}, {"note": 71, "velocity": 102, "duration": 202}, {"note": 0, "velocity": 0, "duration": 278}, {"note": 74, "velocity": 127, "duration": 212}, {"note": 0, "velocity": 0, "duration": 268}, {"note": 71, "velocity": 95, "duration": 224}, {"note": 0, "velocity": 0, "duration": 256}, {"note": 74, "velocity": 117, "duration": 291}, {"note": 0, "velocity": 0, "duration": 189}, {"note": 76, "velocity": 107, "duration": 265}, {"note": 0, "velocity": 0, "duration": 215}, {"note": 78, "velocity": 117, "duration": 284}, {"note": 0, "velocity": 0, "duration": 196}, {"note": 76, "velocity": 127, "duration": 4320}, {"note": 0, "velocity": 0, "duration": 1440}, {"note": 69, "velocity": 117, "duration": 314}, {"note": 0, "velocity": 0, "duration": 166}, {"note": 78, "velocity": 102, "duration": 516}, {"note": 0, "velocity": 0, "duration": 204}, {"note": 76, "velocity": 117, "duration": 504}, {"note": 74, "velocity": 122, "duration": 307}, {"note": 0, "velocity": 0, "duration": 413}, {"note": 74, "velocity": 127, "duration": 5531}]]