[[{"note": 62, "velocity": 89, "duration": 192}, {"note": 62, "velocity": 90, "duration": 163}, {"note": 0, "velocity": 0, "duration": 77}, {"note": 62, "velocity": 92, "duration": 183}, {"note": 62, "velocity": 100, "duration": 188}, {"note": 67, "velocity": 102, "duration": 169}, {"note": 0, "velocity": 0, "duration": 71}, {"note": 67, "velocity": 97, "duration": 219}, {"note": 62, "velocity": 92, "duration": 223}, {"note": 69, "velocity": 102, "duration": 224}, {"note": 0, "velocity": 0, "duration": 136}, {"note": 69, "velocity": 102, "duration": 242}, {"note": 0, "velocity": 0, "duration": 118}, {"note": 62, "velocity": 99, "duration": 421}, {"note": 62, "velocity": 96, "duration": 243}, {"note": 67, "velocity": 96, "duration": 211}, {"note": 66, "velocity": 93, "duration": 156}, {"note": 0, "velocity": 0, "duration": 84}, {"note": 66, "velocity": 100, "duration": 223}, {"note": 64, "velocity": 82, "duration": 508}, {"note": 0, "velocity": 0, "duration": 452}, {"note": 64, "velocity": 93, "duration": 136}, {"note": 0, "velocity": 0, "duration": 104}, {"note": 64, "velocity": 85, "duration": 216}, {"note": 62, "velocity": 78, "duration": 162}, {"note": 0, "velocity": 0, "duration": 78}, {"note": 62, "velocity": 96, "duration": 217}, {"note": 59, "velocity": 79, "duration": 605}, {"note": 59, "velocity": 88, "duration": 125}, {"note": 0, "velocity": 0, "duration": 115}, {"note": 59, "velocity": 86, "duration": 206}, {"note": 57, "velocity": 72, "duration": 119}, {"note": 0, "velocity": 0, "duration": 121}, {"note": 57, "velocity": 86, "duration": 247}, {"note": 55, "velocity": 68, "duration": 176}, {"note": 0, "velocity": 0, "duration": 64}, {"note": 55, "velocity": 89, "duration": 383}, {"note": 0, "velocity": 0, "duration": 577}, {"note": 59, "velocity": 90, "duration": 197}, {"note": 57, "velocity": 77, "duration": 154}, {"note": 0, "velocity": 0, "duration": 86}, {"note": 57, "velocity": 92, "duration": 224}, {"note": 55, "velocity": 82, "duration": 228}, {"note": 62, "velocity": 102, "duration": 459}, {"note": 0, "velocity": 0, "duration": 501}, {"note": 64, "velocity": 93, "duration": 187}, {"note": 62, "velocity": 83, "duration": 127}, {"note": 0, "velocity": 0, "duration": 113}, {"note": 64, "velocity": 97, "duration": 240}, {"note": 0, "velocity": 0, "duration": 240}, {"note": 62, "velocity": 99, "duration": 317}, {"note": 59, "velocity": 92, "duration": 1363}, {"note": 0, "velocity": 0, "duration": 2357}, {"note": 62, "velocity": 89, "duration": 192}, {"note": 62, "velocity": 90, "duration": 163}, {"note": 0, "velocity": 0, "duration": 77}, {"note": 62, "velocity": 92, "duration": 183}, {"note": 62, "velocity": 100, "duration": 188}, {"note": 67, "velocity": 102, "duration": 169}, {"note": 0, "velocity": 0, "duration": 71}, {"note": 67, "velocity": 97, "duration": 219}, {"note": 62, "velocity": 92, "duration": 223}, {"note": 69, "velocity": 102, "duration": 224}, {"note": 0, "velocity": 0, "duration": 136}, {"note": 69, "velocity": 102, "duration": 242}, {"note": 0, "velocity": 0, "duration": 118}, {"note": 62, "velocity": 99, "duration": 421}, {"note": 62, "velocity": 96, "duration": 243}, {"note": 67, "velocity": 96, "duration": 211}, {"note": 66, "velocity": 93, "duration": 156}, {"note": 0, "velocity": 0, "duration": 84}, {"note": 66, "velocity": 100, "duration": 223}, {"note": 64, "velocity": 82, "duration": 508}, {"note": 0, "velocity": 0, "duration": 452}, {"note": 62, "velocity": 95, "duration": 183}, {"note": 62, "velocity": 95, "duration": 184}, {"note": 64, "velocity": 93, "duration": 168}, {"note": 0, "velocity": 0, "duration": 72}, {"note": 62, "velocity": 95, "duration": 126}, {"note": 0, "velocity": 0, "duration": 114}, {"note": 59, "velocity": 79, "duration": 605}, {"note": 0, "velocity": 0, "duration": 115}, {"note": 57, "velocity": 92, "duration": 182}, {"note": 59, "velocity": 90, "duration": 193}, {"note": 57, "velocity": 93, "duration": 175}, {"note": 0, "velocity": 0, "duration": 65}, {"note": 59, "velocity": 88, "duration": 208}, {"note": 55, "velocity": 82, "duration": 795}, {"note": 0, "velocity": 0, "duration": 165}, {"note": 57, "velocity": 85, "duration": 171}, {"note": 0, "velocity": 0, "duration": 69}, {"note": 59, "velocity": 86, "duration": 238}, {"note": 57, "velocity": 83, "duration": 233}, {"note": 55, "velocity": 86, "duration": 215}, {"note": 62, "velocity": 102, "duration": 459}, {"note": 0, "velocity": 0, "duration": 261}, {"note": 57, "velocity": 85, "duration": 144}, {"note": 0, "velocity": 0, "duration": 96}, {"note": 59, "velocity": 79, "duration": 235}, {"note": 57, "velocity": 74, "duration": 113}, {"note": 0, "velocity": 0, "duration": 127}, {"note": 57, "velocity": 89, "duration": 223}, {"note": 55, "velocity": 76, "duration": 126}, {"note": 0, "velocity": 0, "duration": 114}, {"note": 57, "velocity": 93, "duration": 458}, {"note": 55, "velocity": 90, "duration": 1139}, {"note": 0, "velocity": 0, "duration": 1261}, {"note": 66, "velocity": 122, "duration": 218}, {"note": 67, "velocity": 92, "duration": 211}, {"note": 66, "velocity": 117, "duration": 231}, {"note": 59, "velocity": 99, "duration": 634}, {"note": 0, "velocity": 0, "duration": 566}, {"note": 66, "velocity": 107, "duration": 166}, {"note": 0, "velocity": 0, "duration": 74}, {"note": 67, "velocity": 96, "duration": 148}, {"note": 0, "velocity": 0, "duration": 92}, {"note": 66, "velocity": 117, "duration": 98}, {"note": 0, "velocity": 0, "duration": 142}, {"note": 59, "velocity": 92, "duration": 853}, {"note": 0, "velocity": 0, "duration": 347}, {"note": 71, "velocity": 112, "duration": 216}, {"note": 69, "velocity": 90, "duration": 132}, {"note": 0, "velocity": 0, "duration": 108}, {"note": 69, "velocity": 97, "duration": 207}, {"note": 67, "velocity": 90, "duration": 177}, {"note": 0, "velocity": 0, "duration": 63}, {"note": 69, "velocity": 100, "duration": 180}, {"note": 67, "velocity": 89, "duration": 130}, {"note": 0, "velocity": 0, "duration": 110}, {"note": 67, "velocity": 102, "duration": 200}, {"note": 67, "velocity": 102, "duration": 225}, {"note": 64, "velocity": 99, "duration": 276}, {"note": 0, "velocity": 0, "duration": 84}, {"note": 62, "velocity": 95, "duration": 492}, {"note": 64, "velocity": 96, "duration": 137}, {"note": 0, "velocity": 0, "duration": 103}, {"note": 59, "velocity": 96, "duration": 466}, {"note": 0, "velocity": 0, "duration": 254}, {"note": 59, "velocity": 112, "duration": 124}, {"note": 0, "velocity": 0, "duration": 116}, {"note": 59, "velocity": 100, "duration": 182}, {"note": 57, "velocity": 90, "duration": 148}, {"note": 0, "velocity": 0, "duration": 92}, {"note": 57, "velocity": 81, "duration": 184}, {"note": 55, "velocity": 93, "duration": 142}, {"note": 0, "velocity": 0, "duration": 98}, {"note": 55, "velocity": 93, "duration": 514}, {"note": 0, "velocity": 0, "duration": 206}, {"note": 55, "velocity": 97, "duration": 122}, {"note": 0, "velocity": 0, "duration": 118}, {"note": 59, "velocity": 92, "duration": 137}, {"note": 0, "velocity": 0, "duration": 103}, {"note": 57, "velocity": 88, "duration": 114}, {"note": 0, "velocity": 0, "duration": 126}, {"note": 57, "velocity": 92, "duration": 146}, {"note": 0, "velocity": 0, "duration": 94}, {"note": 55, "velocity": 90, "duration": 165}, {"note": 0, "velocity": 0, "duration": 75}, {"note": 62, "velocity": 100, "duration": 249}, {"note": 0, "velocity": 0, "duration": 471}, {"note": 62, "velocity": 96, "duration": 76}, {"note": 0, "velocity": 0, "duration": 164}, {"note": 64, "velocity": 99, "duration": 98}, {"note": 0, "velocity": 0, "duration": 142}, {"note": 62, "velocity": 86, "duration": 131}, {"note": 0, "velocity": 0, "duration": 109}, {"note": 64, "velocity": 93, "duration": 132}, {"note": 0, "velocity": 0, "duration": 108}, {"note": 62, "velocity": 93, "duration": 345}, {"note": 0, "velocity": 0, "duration": 135}, {"note": 59, "velocity": 90, "duration": 630}, {"note": 0, "velocity": 0, "duration": 2010}, {"note": 66, "velocity": 122, "duration": 218}, {"note": 67, "velocity": 92, "duration": 211}, {"note": 66, "velocity": 117, "duration": 231}, {"note": 59, "velocity": 99, "duration": 634}, {"note": 0, "velocity": 0, "duration": 566}, {"note": 66, "velocity": 107, "duration": 166}, {"note": 0, "velocity": 0, "duration": 74}, {"note": 67, "velocity": 96, "duration": 148}, {"note": 0, "velocity": 0, "duration": 92}, {"note": 66, "velocity": 117, "duration": 98}, {"note": 0, "velocity": 0, "duration": 142}, {"note": 59, "velocity": 92, "duration": 853}, {"note": 0, "velocity": 0, "duration": 347}, {"note": 71, "velocity": 112, "duration": 216}, {"note": 69, "velocity": 90, "duration": 132}, {"note": 0, "velocity": 0, "duration": 108}, {"note": 69, "velocity": 97, "duration": 207}, {"note": 67, "velocity": 90, "duration": 177}, {"note": 0, "velocity": 0, "duration": 63}, {"note": 71, "velocity": 127, "duration": 164}, {"note": 0, "velocity": 0, "duration": 76}, {"note": 69, "velocity": 96, "duration": 100}, {"note": 0, "velocity": 0, "duration": 140}, {"note": 69, "velocity": 100, "duration": 158}, {"note": 0, "velocity": 0, "duration": 82}, {"note": 67, "velocity": 100, "duration": 132}, {"note": 0, "velocity": 0, "duration": 108}, {"note": 69, "velocity": 112, "duration": 200}, {"note": 0, "velocity": 0, "duration": 160}, {"note": 69, "velocity": 100, "duration": 237}, {"note": 0, "velocity": 0, "duration": 123}, {"note": 74, "velocity": 117, "duration": 222}, {"note": 0, "velocity": 0, "duration": 258}, {"note": 71, "velocity": 117, "duration": 303}, {"note": 0, "velocity": 0, "duration": 177}, {"note": 71, "velocity": 127, "duration": 151}, {"note": 0, "velocity": 0, "duration": 89}, {"note": 69, "velocity": 97, "duration": 165}, {"note": 0, "velocity": 0, "duration": 75}, {"note": 71, "velocity": 102, "duration": 146}, {"note": 0, "velocity": 0, "duration": 94}, {"note": 69, "velocity": 127, "duration": 104}, {"note": 0, "velocity": 0, "duration": 136}, {"note": 67, "velocity": 102, "duration": 146}, {"note": 0, "velocity": 0, "duration": 94}, {"note": 64, "velocity": 96, "duration": 426}, {"note": 0, "velocity": 0, "duration": 294}, {"note": 71, "velocity": 107, "duration": 130}, {"note": 0, "velocity": 0, "duration": 110}, {"note": 69, "velocity": 107, "duration": 150}, {"note": 0, "velocity": 0, "duration": 90}, {"note": 71, "velocity": 102, "duration": 113}, {"note": 0, "velocity": 0, "duration": 127}, {"note": 69, "velocity": 122, "duration": 93}, {"note": 0, "velocity": 0, "duration": 147}, {"note": 67, "velocity": 100, "duration": 133}, {"note": 0, "velocity": 0, "duration": 107}, {"note": 69, "velocity": 122, "duration": 326}, {"note": 0, "velocity": 0, "duration": 394}, {"note": 71, "velocity": 117, "duration": 146}, {"note": 0, "velocity": 0, "duration": 94}, {"note": 69, "velocity": 112, "duration": 146}, {"note": 0, "velocity": 0, "duration": 94}, {"note": 71, "velocity": 75, "duration": 133}, {"note": 0, "velocity": 0, "duration": 107}, {"note": 69, "velocity": 112, "duration": 118}, {"note": 0, "velocity": 0, "duration": 122}, {"note": 67, "velocity": 97, "duration": 97}, {"note": 0, "velocity": 0, "duration": 143}, {"note": 69, "velocity": 100, "duration": 275}, {"note": 67, "velocity": 93, "duration": 197}, {"note": 64, "velocity": 99, "duration": 771}, {"note": 0, "velocity": 0, "duration": 1629}, {"note": 69, "velocity": 117, "duration": 381}, {"note": 0, "velocity": 0, "duration": 99}, {"note": 67, "velocity": 99, "duration": 462}, {"note": 74, "velocity": 127, "duration": 1165}, {"note": 0, "velocity": 0, "duration": 4835}, {"note": 62, "velocity": 89, "duration": 192}, {"note": 62, "velocity": 90, "duration": 163}, {"note": 0, "velocity": 0, "duration": 77}, {"note": 62, "velocity": 92, "duration": 183}, {"note": 62, "velocity": 100, "duration": 188}, {"note": 67, "velocity": 102, "duration": 169}, {"note": 0, "velocity": 0, "duration": 71}, {"note": 67, "velocity": 97, "duration": 219}, {"note": 62, "velocity": 92, "duration": 223}, {"note": 69, "velocity": 102, "duration": 224}, {"note": 0, "velocity": 0, "duration": 136}, {"note": 69, "velocity": 102, "duration": 242}, {"note": 0, "velocity": 0, "duration": 118}, {"note": 62, "velocity": 99, "duration": 421}, {"note": 62, "velocity": 96, "duration": 243}, {"note": 67, "velocity": 96, "duration": 211}, {"note": 66, "velocity": 93, "duration": 156}, {"note": 0, "velocity": 0, "duration": 84}, {"note": 66, "velocity": 100, "duration": 223}, {"note": 64, "velocity": 82, "duration": 508}, {"note": 0, "velocity": 0, "duration": 452}, {"note": 62, "velocity": 95, "duration": 183}, {"note": 62, "velocity": 95, "duration": 184}, {"note": 64, "velocity": 93, "duration": 168}, {"note": 0, "velocity": 0, "duration": 72}, {"note": 62, "velocity": 95, "duration": 126}, {"note": 0, "velocity": 0, "duration": 114}, {"note": 59, "velocity": 79, "duration": 605}, {"note": 0, "velocity": 0, "duration": 115}, {"note": 57, "velocity": 92, "duration": 182}, {"note": 59, "velocity": 90, "duration": 193}, {"note": 57, "velocity": 93, "duration": 175}, {"note": 0, "velocity": 0, "duration": 65}, {"note": 59, "velocity": 88, "duration": 208}, {"note": 55, "velocity": 82, "duration": 795}, {"note": 0, "velocity": 0, "duration": 165}, {"note": 57, "velocity": 85, "duration": 171}, {"note": 0, "velocity": 0, "duration": 69}, {"note": 59, "velocity": 86, "duration": 238}, {"note": 57, "velocity": 83, "duration": 233}, {"note": 55, "velocity": 86, "duration": 215}, {"note": 62, "velocity": 102, "duration": 459}, {"note": 0, "velocity": 0, "duration": 261}, {"note": 57, "velocity": 85, "duration": 144}, {"note": 0, "velocity": 0, "duration": 96}, {"note": 59, "velocity": 79, "duration": 235}, {"note": 57, "velocity": 74, "duration": 113}, {"note": 0, "velocity": 0, "duration": 127}, {"note": 57, "velocity": 89, "duration": 223}, {"note": 55, "velocity": 76, "duration": 126}, {"note": 0, "velocity": 0, "duration": 114}, {"note": 57, "velocity": 93, "duration": 458}, {"note": 55, "velocity": 90, "duration": 1139}, {"note": 0, "velocity": 0, "duration": 1261}, {"note": 66, "velocity": 122, "duration": 218}, {"note": 67, "velocity": 92, "duration": 211}, {"note": 66, "velocity": 117, "duration": 231}, {"note": 59, "velocity": 99, "duration": 634}, {"note": 0, "velocity": 0, "duration": 566}, {"note": 66, "velocity": 107, "duration": 166}, {"note": 0, "velocity": 0, "duration": 74}, {"note": 67, "velocity": 96, "duration": 148}, {"note": 0, "velocity": 0, "duration": 92}, {"note": 66, "velocity": 117, "duration": 98}, {"note": 0, "velocity": 0, "duration": 142}, {"note": 59, "velocity": 92, "duration": 853}, {"note": 0, "velocity": 0, "duration": 347}, {"note": 71, "velocity": 112, "duration": 216}, {"note": 69, "velocity": 90, "duration": 132}, {"note": 0, "velocity": 0, "duration": 108}, {"note": 69, "velocity": 97, "duration": 207}, {"note": 67, "velocity": 90, "duration": 177}, {"note": 0, "velocity": 0, "duration": 63}, {"note": 69, "velocity": 100, "duration": 180}, {"note": 67, "velocity": 89, "duration": 130}, {"note": 0, "velocity": 0, "duration": 110}, {"note": 67, "velocity": 102, "duration": 200}, {"note": 67, "velocity": 102, "duration": 225}, {"note": 64, "velocity": 99, "duration": 276}, {"note": 0, "velocity": 0, "duration": 84}, {"note": 62, "velocity": 95, "duration": 492}, {"note": 64, "velocity": 96, "duration": 137}, {"note": 0, "velocity": 0, "duration": 103}, {"note": 59, "velocity": 96, "duration": 466}, {"note": 0, "velocity": 0, "duration": 254}, {"note": 59, "velocity": 112, "duration": 124}, {"note": 0, "velocity": 0, "duration": 116}, {"note": 59, "velocity": 100, "duration": 182}, {"note": 57, "velocity": 90, "duration": 148}, {"note": 0, "velocity": 0, "duration": 92}, {"note": 57, "velocity": 81, "duration": 184}, {"note": 55, "velocity": 93, "duration": 142}, {"note": 0, "velocity": 0, "duration": 98}, {"note": 55, "velocity": 93, "duration": 514}, {"note": 0, "velocity": 0, "duration": 206}, {"note": 55, "velocity": 97, "duration": 122}, {"note": 0, "velocity": 0, "duration": 118}, {"note": 59, "velocity": 92, "duration": 137}, {"note": 0, "velocity": 0, "duration": 103}, {"note": 57, "velocity": 88, "duration": 114}, {"note": 0, "velocity": 0, "duration": 126}, {"note": 57, "velocity": 92, "duration": 146}, {"note": 0, "velocity": 0, "duration": 94}, {"note": 55, "velocity": 90, "duration": 165}, {"note": 0, "velocity": 0, "duration": 75}, {"note": 62, "velocity": 100, "duration": 249}, {"note": 0, "velocity": 0, "duration": 471}, {"note": 62, "velocity": 96, "duration": 76}, {"note": 0, "velocity": 0, "duration": 164}, {"note": 64, "velocity": 99, "duration": 98}, {"note": 0, "velocity": 0, "duration": 142}, {"note": 62, "velocity": 86, "duration": 131}, {"note": 0, "velocity": 0, "duration": 109}, {"note": 64, "velocity": 93, "duration": 132}, {"note": 0, "velocity": 0, "duration": 108}, {"note": 62, "velocity": 93, "duration": 345}, {"note": 0, "velocity": 0, "duration": 135}, {"note": 59, "velocity": 90, "duration": 630}, {"note": 0, "velocity": 0, "duration": 2010}, {"note": 66, "velocity": 122, "duration": 218}, {"note": 67, "velocity": 92, "duration": 211}, {"note": 66, "velocity": 117, "duration": 231}, {"note": 59, "velocity": 99, "duration": 634}, {"note": 0, "velocity": 0, "duration": 566}, {"note": 66, "velocity": 107, "duration": 166}, {"note": 0, "velocity": 0, "duration": 74}, {"note": 67, "velocity": 96, "duration": 148}, {"note": 0, "velocity": 0, "duration": 92}, {"note": 66, "velocity": 117, "duration": 98}, {"note": 0, "velocity": 0, "duration": 142}, {"note": 59, "velocity": 92, "duration": 853}, {"note": 0, "velocity": 0, "duration": 347}, {"note": 71, "velocity": 112, "duration": 216}, {"note": 69, "velocity": 90, "duration": 132}, {"note": 0, "velocity": 0, "duration": 108}, {"note": 69, "velocity": 97, "duration": 207}, {"note": 67, "velocity": 90, "duration": 177}, {"note": 0, "velocity": 0, "duration": 63}, {"note": 71, "velocity": 127, "duration": 164}, {"note": 0, "velocity": 0, "duration": 76}, {"note": 69, "velocity": 96, "duration": 100}, {"note": 0, "velocity": 0, "duration": 140}, {"note": 69, "velocity": 100, "duration": 158}, {"note": 0, "velocity": 0, "duration": 82}, {"note": 67, "velocity": 100, "duration": 132}, {"note": 0, "velocity": 0, "duration": 108}, {"note": 69, "velocity": 112, "duration": 200}, {"note": 0, "velocity": 0, "duration": 160}, {"note": 69, "velocity": 100, "duration": 237}, {"note": 0, "velocity": 0, "duration": 123}, {"note": 74, "velocity": 117, "duration": 222}, {"note": 0, "velocity": 0, "duration": 258}, {"note": 71, "velocity": 117, "duration": 303}, {"note": 0, "velocity": 0, "duration": 177}, {"note": 71, "velocity": 127, "duration": 151}, {"note": 0, "velocity": 0, "duration": 89}, {"note": 69, "velocity": 97, "duration": 165}, {"note": 0, "velocity": 0, "duration": 75}, {"note": 71, "velocity": 102, "duration": 146}, {"note": 0, "velocity": 0, "duration": 94}, {"note": 69, "velocity": 127, "duration": 104}, {"note": 0, "velocity": 0, "duration": 136}, {"note": 67, "velocity": 102, "duration": 146}, {"note": 0, "velocity": 0, "duration": 94}, {"note": 64, "velocity": 96, "duration": 426}, {"note": 0, "velocity": 0, "duration": 294}, {"note": 71, "velocity": 107, "duration": 130}, {"note": 0, "velocity": 0, "duration": 110}, {"note": 69, "velocity": 107, "duration": 150}, {"note": 0, "velocity": 0, "duration": 90}, {"note": 71, "velocity": 102, "duration": 113}, {"note": 0, "velocity": 0, "duration": 127}, {"note": 69, "velocity": 122, "duration": 93}, {"note": 0, "velocity": 0, "duration": 147}, {"note": 67, "velocity": 100, "duration": 133}, {"note": 0, "velocity": 0, "duration": 107}, {"note": 69, "velocity": 122, "duration": 326}, {"note": 0, "velocity": 0, "duration": 394}, {"note": 71, "velocity": 117, "duration": 146}, {"note": 0, "velocity": 0, "duration": 94}, {"note": 69, "velocity": 112, "duration": 146}, {"note": 0, "velocity": 0, "duration": 94}, {"note": 71, "velocity": 75, "duration": 133}, {"note": 0, "velocity": 0, "duration": 107}, {"note": 69, "velocity": 112, "duration": 118}, {"note": 0, "velocity": 0, "duration": 122}, {"note": 67, "velocity": 97, "duration": 97}, {"note": 0, "velocity": 0, "duration": 143}, {"note": 69, "velocity": 100, "duration": 275}, {"note": 67, "velocity": 93, "duration": 197}, {"note": 64, "velocity": 99, "duration": 771}, {"note": 0, "velocity": 0, "duration": 669}, {"note": 67, "velocity": 127, "duration": 692}, {"note": 0, "velocity": 0, "duration": 268}, {"note": 69, "velocity": 127, "duration": 167}, {"note": 0, "velocity": 0, "duration": 73}, {"note": 71, "velocity": 127, "duration": 144}, {"note": 0, "velocity": 0, "duration": 96}, {"note": 69, "velocity": 122, "duration": 121}, {"note": 0, "velocity": 0, "duration": 119}, {"note": 67, "velocity": 127, "duration": 1067}, {"note": 0, "velocity": 0, "duration": 133}, {"note": 69, "velocity": 127, "duration": 199}, {"note": 71, "velocity": 112, "duration": 216}, {"note": 69, "velocity": 117, "duration": 238}, {"note": 67, "velocity": 90, "duration": 106}, {"note": 69, "velocity": 83, "duration": 743}, {"note": 0, "velocity": 0, "duration": 337}, {"note": 71, "velocity": 112, "duration": 216}, {"note": 69, "velocity": 90, "duration": 132}, {"note": 0, "velocity": 0, "duration": 108}, {"note": 69, "velocity": 97, "duration": 207}, {"note": 67, "velocity": 90, "duration": 177}, {"note": 0, "velocity": 0, "duration": 63}, {"note": 71, "velocity": 127, "duration": 164}, {"note": 0, "velocity": 0, "duration": 76}, {"note": 69, "velocity": 96, "duration": 100}, {"note": 0, "velocity": 0, "duration": 140}, {"note": 69, "velocity": 100, "duration": 158}, {"note": 0, "velocity": 0, "duration": 82}, {"note": 67, "velocity": 100, "duration": 132}, {"note": 0, "velocity": 0, "duration": 108}, {"note": 69, "velocity": 112, "duration": 200}, {"note": 0, "velocity": 0, "duration": 160}, {"note": 69, "velocity": 100, "duration": 237}, {"note": 0, "velocity": 0, "duration": 123}, {"note": 74, "velocity": 117, "duration": 222}, {"note": 0, "velocity": 0, "duration": 258}, {"note": 71, "velocity": 117, "duration": 303}, {"note": 0, "velocity": 0, "duration": 177}, {"note": 71, "velocity": 127, "duration": 151}, {"note": 0, "velocity": 0, "duration": 89}, {"note": 69, "velocity": 97, "duration": 165}, {"note": 0, "velocity": 0, "duration": 75}, {"note": 71, "velocity": 102, "duration": 146}, {"note": 0, "velocity": 0, "duration": 94}, {"note": 69, "velocity": 127, "duration": 104}, {"note": 0, "velocity": 0, "duration": 136}, {"note": 67, "velocity": 102, "duration": 146}, {"note": 0, "velocity": 0, "duration": 94}, {"note": 64, "velocity": 96, "duration": 426}, {"note": 0, "velocity": 0, "duration": 294}, {"note": 71, "velocity": 107, "duration": 130}, {"note": 0, "velocity": 0, "duration": 110}, {"note": 69, "velocity": 107, "duration": 150}, {"note": 0, "velocity": 0, "duration": 90}, {"note": 71, "velocity": 102, "duration": 113}, {"note": 0, "velocity": 0, "duration": 127}, {"note": 69, "velocity": 122, "duration": 93}, {"note": 0, "velocity": 0, "duration": 147}, {"note": 67, "velocity": 100, "duration": 133}, {"note": 0, "velocity": 0, "duration": 107}, {"note": 69, "velocity": 122, "duration": 326}, {"note": 0, "velocity": 0, "duration": 394}, {"note": 71, "velocity": 117, "duration": 146}, {"note": 0, "velocity": 0, "duration": 94}, {"note": 69, "velocity": 112, "duration": 146}, {"note": 0, "velocity": 0, "duration": 94}, {"note": 71, "velocity": 75, "duration": 133}, {"note": 0, "velocity": 0, "duration": 107}, {"note": 69, "velocity": 112, "duration": 118}, {"note": 0, "velocity": 0, "duration": 122}, {"note": 67, "velocity": 97, "duration": 97}, {"note": 0, "velocity": 0, "duration": 143}, {"note": 69, "velocity": 100, "duration": 275}, {"note": 67, "velocity": 93, "duration": 197}, {"note": 64, "velocity": 99, "duration": 771}, {"note": 0, "velocity": 0, "duration": 1629}, {"note": 69, "velocity": 122, "duration": 360}, {"note": 0, "velocity": 0, "duration": 120}, {"note": 67, "velocity": 100, "duration": 393}, {"note": 0, "velocity": 0, "duration": 87}, {"note": 74, "velocity": 127, "duration": 1589}]]