[[{"note": 59, "velocity": 107, "duration": 187}, {"note": 59, "velocity": 95, "duration": 166}, {"note": 0, "velocity": 0, "duration": 74}, {"note": 60, "velocity": 112, "duration": 213}, {"note": 59, "velocity": 96, "duration": 57}, {"note": 0, "velocity": 0, "duration": 63}, {"note": 62, "velocity": 100, "duration": 157}, {"note": 0, "velocity": 0, "duration": 83}, {"note": 62, "velocity": 122, "duration": 252}, {"note": 64, "velocity": 99, "duration": 148}, {"note": 0, "velocity": 0, "duration": 92}, {"note": 62, "velocity": 102, "duration": 278}, {"note": 0, "velocity": 0, "duration": 202}, {"note": 67, "velocity": 100, "duration": 149}, {"note": 0, "velocity": 0, "duration": 91}, {"note": 67, "velocity": 100, "duration": 170}, {"note": 0, "velocity": 0, "duration": 70}, {"note": 66, "velocity": 107, "duration": 188}, {"note": 0, "velocity": 0, "duration": 172}, {"note": 62, "velocity": 81, "duration": 161}, {"note": 59, "velocity": 78, "duration": 510}, {"note": 0, "velocity": 0, "duration": 570}, {"note": 55, "velocity": 92, "duration": 150}, {"note": 0, "velocity": 0, "duration": 90}, {"note": 64, "velocity": 89, "duration": 161}, {"note": 0, "velocity": 0, "duration": 79}, {"note": 55, "velocity": 79, "duration": 183}, {"note": 54, "velocity": 72, "duration": 245}, {"note": 62, "velocity": 88, "duration": 174}, {"note": 0, "velocity": 0, "duration": 66}, {"note": 62, "velocity": 92, "duration": 203}, {"note": 60, "velocity": 96, "duration": 90}, {"note": 59, "velocity": 69, "duration": 127}, {"note": 60, "velocity": 77, "duration": 639}, {"note": 0, "velocity": 0, "duration": 81}, {"note": 59, "velocity": 78, "duration": 78}, {"note": 60, "velocity": 69, "duration": 65}, {"note": 62, "velocity": 75, "duration": 168}, {"note": 0, "velocity": 0, "duration": 72}, {"note": 59, "velocity": 77, "duration": 151}, {"note": 0, "velocity": 0, "duration": 89}, {"note": 57, "velocity": 77, "duration": 299}, {"note": 0, "velocity": 0, "duration": 181}, {"note": 59, "velocity": 92, "duration": 160}, {"note": 0, "velocity": 0, "duration": 80}, {"note": 59, "velocity": 81, "duration": 181}, {"note": 60, "velocity": 82, "duration": 185}, {"note": 59, "velocity": 78, "duration": 97}, {"note": 62, "velocity": 97, "duration": 120}, {"note": 0, "velocity": 0, "duration": 120}, {"note": 62, "velocity": 86, "duration": 177}, {"note": 0, "velocity": 0, "duration": 63}, {"note": 64, "velocity": 82, "duration": 178}, {"note": 0, "velocity": 0, "duration": 62}, {"note": 66, "velocity": 93, "duration": 178}, {"note": 0, "velocity": 0, "duration": 422}, {"note": 69, "velocity": 93, "duration": 162}, {"note": 0, "velocity": 0, "duration": 78}, {"note": 67, "velocity": 96, "duration": 116}, {"note": 0, "velocity": 0, "duration": 124}, {"note": 66, "velocity": 92, "duration": 80}, {"note": 67, "velocity": 95, "duration": 191}, {"note": 64, "velocity": 78, "duration": 114}, {"note": 62, "velocity": 85, "duration": 158}, {"note": 0, "velocity": 0, "duration": 82}, {"note": 62, "velocity": 92, "duration": 237}, {"note": 0, "velocity": 0, "duration": 483}, {"note": 66, "velocity": 112, "duration": 156}, {"note": 0, "velocity": 0, "duration": 84}, {"note": 67, "velocity": 97, "duration": 218}, {"note": 64, "velocity": 93, "duration": 198}, {"note": 62, "velocity": 93, "duration": 204}, {"note": 64, "velocity": 93, "duration": 126}, {"note": 0, "velocity": 0, "duration": 114}, {"note": 55, "velocity": 86, "duration": 154}, {"note": 0, "velocity": 0, "duration": 86}, {"note": 60, "velocity": 92, "duration": 82}, {"note": 59, "velocity": 72, "duration": 102}, {"note": 60, "velocity": 96, "duration": 121}, {"note": 0, "velocity": 0, "duration": 119}, {"note": 67, "velocity": 96, "duration": 464}, {"note": 0, "velocity": 0, "duration": 136}, {"note": 64, "velocity": 86, "duration": 107}, {"note": 67, "velocity": 100, "duration": 655}, {"note": 0, "velocity": 0, "duration": 65}, {"note": 66, "velocity": 99, "duration": 124}, {"note": 0, "velocity": 0, "duration": 116}, {"note": 67, "velocity": 117, "duration": 908}, {"note": 0, "velocity": 0, "duration": 7252}, {"note": 59, "velocity": 97, "duration": 80}, {"note": 60, "velocity": 82, "duration": 101}, {"note": 59, "velocity": 81, "duration": 72}, {"note": 59, "velocity": 93, "duration": 152}, {"note": 0, "velocity": 0, "duration": 88}, {"note": 57, "velocity": 95, "duration": 351}, {"note": 0, "velocity": 0, "duration": 969}, {"note": 59, "velocity": 95, "duration": 114}, {"note": 60, "velocity": 78, "duration": 125}, {"note": 59, "velocity": 57, "duration": 83}, {"note": 59, "velocity": 86, "duration": 163}, {"note": 0, "velocity": 0, "duration": 77}, {"note": 57, "velocity": 88, "duration": 381}, {"note": 55, "velocity": 86, "duration": 108}, {"note": 0, "velocity": 0, "duration": 99}, {"note": 50, "velocity": 78, "duration": 308}, {"note": 0, "velocity": 0, "duration": 532}, {"note": 59, "velocity": 95, "duration": 98}, {"note": 60, "velocity": 69, "duration": 93}, {"note": 59, "velocity": 77, "duration": 59}, {"note": 0, "velocity": 0, "duration": 61}, {"note": 57, "velocity": 86, "duration": 93}, {"note": 0, "velocity": 0, "duration": 147}, {"note": 55, "velocity": 83, "duration": 219}, {"note": 55, "velocity": 90, "duration": 106}, {"note": 0, "velocity": 0, "duration": 254}, {"note": 50, "velocity": 76, "duration": 98}, {"note": 52, "velocity": 69, "duration": 68}, {"note": 57, "velocity": 88, "duration": 606}, {"note": 50, "velocity": 85, "duration": 91}, {"note": 52, "velocity": 82, "duration": 99}, {"note": 55, "velocity": 85, "duration": 73}, {"note": 59, "velocity": 93, "duration": 195}, {"note": 60, "velocity": 93, "duration": 68}, {"note": 55, "velocity": 81, "duration": 261}, {"note": 57, "velocity": 89, "duration": 512}, {"note": 0, "velocity": 0, "duration": 328}, {"note": 59, "velocity": 88, "duration": 132}, {"note": 60, "velocity": 73, "duration": 127}, {"note": 59, "velocity": 73, "duration": 75}, {"note": 59, "velocity": 88, "duration": 144}, {"note": 0, "velocity": 0, "duration": 96}, {"note": 57, "velocity": 79, "duration": 182}, {"note": 62, "velocity": 99, "duration": 588}, {"note": 0, "velocity": 0, "duration": 492}, {"note": 62, "velocity": 95, "duration": 95}, {"note": 55, "velocity": 72, "duration": 55}, {"note": 0, "velocity": 0, "duration": 65}, {"note": 55, "velocity": 74, "duration": 51}, {"note": 0, "velocity": 0, "duration": 69}, {"note": 54, "velocity": 70, "duration": 155}, {"note": 0, "velocity": 0, "duration": 85}, {"note": 54, "velocity": 72, "duration": 224}, {"note": 55, "velocity": 85, "duration": 187}, {"note": 57, "velocity": 86, "duration": 362}, {"note": 0, "velocity": 0, "duration": 478}, {"note": 59, "velocity": 100, "duration": 78}, {"note": 60, "velocity": 69, "duration": 66}, {"note": 59, "velocity": 92, "duration": 72}, {"note": 57, "velocity": 90, "duration": 157}, {"note": 0, "velocity": 0, "duration": 83}, {"note": 55, "velocity": 90, "duration": 209}, {"note": 62, "velocity": 99, "duration": 156}, {"note": 0, "velocity": 0, "duration": 84}, {"note": 55, "velocity": 78, "duration": 49}, {"note": 0, "velocity": 0, "duration": 71}, {"note": 55, "velocity": 82, "duration": 66}, {"note": 62, "velocity": 90, "duration": 53}, {"note": 0, "velocity": 0, "duration": 67}, {"note": 62, "velocity": 96, "duration": 201}, {"note": 60, "velocity": 81, "duration": 71}, {"note": 60, "velocity": 89, "duration": 245}, {"note": 0, "velocity": 0, "duration": 235}, {"note": 55, "velocity": 78, "duration": 100}, {"note": 62, "velocity": 90, "duration": 187}, {"note": 60, "velocity": 78, "duration": 65}, {"note": 60, "velocity": 96, "duration": 188}, {"note": 55, "velocity": 88, "duration": 149}, {"note": 0, "velocity": 0, "duration": 91}, {"note": 62, "velocity": 89, "duration": 941}, {"note": 0, "velocity": 0, "duration": 1099}, {"note": 59, "velocity": 107, "duration": 187}, {"note": 59, "velocity": 95, "duration": 166}, {"note": 0, "velocity": 0, "duration": 74}, {"note": 60, "velocity": 112, "duration": 213}, {"note": 59, "velocity": 96, "duration": 57}, {"note": 0, "velocity": 0, "duration": 63}, {"note": 62, "velocity": 100, "duration": 157}, {"note": 0, "velocity": 0, "duration": 83}, {"note": 62, "velocity": 122, "duration": 252}, {"note": 64, "velocity": 99, "duration": 148}, {"note": 0, "velocity": 0, "duration": 92}, {"note": 62, "velocity": 102, "duration": 278}, {"note": 0, "velocity": 0, "duration": 202}, {"note": 67, "velocity": 100, "duration": 149}, {"note": 0, "velocity": 0, "duration": 91}, {"note": 67, "velocity": 100, "duration": 170}, {"note": 0, "velocity": 0, "duration": 70}, {"note": 66, "velocity": 107, "duration": 188}, {"note": 0, "velocity": 0, "duration": 172}, {"note": 62, "velocity": 81, "duration": 161}, {"note": 59, "velocity": 78, "duration": 510}, {"note": 0, "velocity": 0, "duration": 570}, {"note": 55, "velocity": 92, "duration": 150}, {"note": 0, "velocity": 0, "duration": 90}, {"note": 64, "velocity": 89, "duration": 161}, {"note": 0, "velocity": 0, "duration": 79}, {"note": 55, "velocity": 79, "duration": 183}, {"note": 54, "velocity": 72, "duration": 245}, {"note": 62, "velocity": 88, "duration": 174}, {"note": 0, "velocity": 0, "duration": 66}, {"note": 62, "velocity": 92, "duration": 203}, {"note": 60, "velocity": 96, "duration": 90}, {"note": 59, "velocity": 69, "duration": 127}, {"note": 60, "velocity": 77, "duration": 639}, {"note": 0, "velocity": 0, "duration": 81}, {"note": 59, "velocity": 78, "duration": 78}, {"note": 60, "velocity": 69, "duration": 65}, {"note": 62, "velocity": 75, "duration": 168}, {"note": 0, "velocity": 0, "duration": 72}, {"note": 59, "velocity": 77, "duration": 151}, {"note": 0, "velocity": 0, "duration": 89}, {"note": 57, "velocity": 77, "duration": 299}, {"note": 0, "velocity": 0, "duration": 181}, {"note": 59, "velocity": 92, "duration": 160}, {"note": 0, "velocity": 0, "duration": 80}, {"note": 59, "velocity": 81, "duration": 181}, {"note": 60, "velocity": 82, "duration": 185}, {"note": 59, "velocity": 78, "duration": 97}, {"note": 62, "velocity": 97, "duration": 120}, {"note": 0, "velocity": 0, "duration": 120}, {"note": 62, "velocity": 86, "duration": 177}, {"note": 0, "velocity": 0, "duration": 63}, {"note": 64, "velocity": 82, "duration": 178}, {"note": 0, "velocity": 0, "duration": 62}, {"note": 66, "velocity": 93, "duration": 178}, {"note": 0, "velocity": 0, "duration": 422}, {"note": 69, "velocity": 93, "duration": 162}, {"note": 0, "velocity": 0, "duration": 78}, {"note": 67, "velocity": 96, "duration": 116}, {"note": 0, "velocity": 0, "duration": 124}, {"note": 66, "velocity": 92, "duration": 80}, {"note": 67, "velocity": 95, "duration": 191}, {"note": 64, "velocity": 78, "duration": 114}, {"note": 62, "velocity": 85, "duration": 158}, {"note": 0, "velocity": 0, "duration": 82}, {"note": 62, "velocity": 92, "duration": 237}, {"note": 0, "velocity": 0, "duration": 483}, {"note": 66, "velocity": 112, "duration": 156}, {"note": 0, "velocity": 0, "duration": 84}, {"note": 67, "velocity": 97, "duration": 218}, {"note": 64, "velocity": 93, "duration": 198}, {"note": 62, "velocity": 93, "duration": 204}, {"note": 64, "velocity": 93, "duration": 126}, {"note": 0, "velocity": 0, "duration": 114}, {"note": 55, "velocity": 86, "duration": 154}, {"note": 0, "velocity": 0, "duration": 86}, {"note": 60, "velocity": 92, "duration": 82}, {"note": 59, "velocity": 72, "duration": 102}, {"note": 60, "velocity": 96, "duration": 121}, {"note": 0, "velocity": 0, "duration": 119}, {"note": 67, "velocity": 96, "duration": 464}, {"note": 0, "velocity": 0, "duration": 136}, {"note": 64, "velocity": 86, "duration": 107}, {"note": 67, "velocity": 100, "duration": 655}, {"note": 0, "velocity": 0, "duration": 65}, {"note": 66, "velocity": 90, "duration": 231}, {"note": 67, "velocity": 95, "duration": 1063}, {"note": 0, "velocity": 0, "duration": 219}, {"note": 65, "velocity": 72, "duration": 86}, {"note": 67, "velocity": 69, "duration": 85}, {"note": 65, "velocity": 83, "duration": 651}, {"note": 0, "velocity": 0, "duration": 6070}, {"note": 59, "velocity": 97, "duration": 80}, {"note": 60, "velocity": 82, "duration": 101}, {"note": 59, "velocity": 81, "duration": 72}, {"note": 59, "velocity": 93, "duration": 152}, {"note": 0, "velocity": 0, "duration": 88}, {"note": 57, "velocity": 95, "duration": 351}, {"note": 0, "velocity": 0, "duration": 969}, {"note": 59, "velocity": 95, "duration": 114}, {"note": 60, "velocity": 78, "duration": 125}, {"note": 59, "velocity": 57, "duration": 83}, {"note": 59, "velocity": 86, "duration": 163}, {"note": 0, "velocity": 0, "duration": 77}, {"note": 57, "velocity": 88, "duration": 381}, {"note": 55, "velocity": 86, "duration": 108}, {"note": 0, "velocity": 0, "duration": 99}, {"note": 50, "velocity": 78, "duration": 308}, {"note": 0, "velocity": 0, "duration": 532}, {"note": 59, "velocity": 95, "duration": 98}, {"note": 60, "velocity": 69, "duration": 93}, {"note": 59, "velocity": 77, "duration": 59}, {"note": 0, "velocity": 0, "duration": 61}, {"note": 57, "velocity": 86, "duration": 93}, {"note": 0, "velocity": 0, "duration": 147}, {"note": 55, "velocity": 83, "duration": 219}, {"note": 55, "velocity": 90, "duration": 106}, {"note": 0, "velocity": 0, "duration": 254}, {"note": 50, "velocity": 76, "duration": 98}, {"note": 52, "velocity": 69, "duration": 68}, {"note": 57, "velocity": 88, "duration": 606}, {"note": 50, "velocity": 85, "duration": 91}, {"note": 52, "velocity": 82, "duration": 99}, {"note": 55, "velocity": 85, "duration": 73}, {"note": 59, "velocity": 93, "duration": 195}, {"note": 60, "velocity": 93, "duration": 68}, {"note": 55, "velocity": 81, "duration": 261}, {"note": 57, "velocity": 89, "duration": 512}, {"note": 0, "velocity": 0, "duration": 328}, {"note": 59, "velocity": 88, "duration": 132}, {"note": 60, "velocity": 73, "duration": 127}, {"note": 59, "velocity": 73, "duration": 75}, {"note": 59, "velocity": 88, "duration": 144}, {"note": 0, "velocity": 0, "duration": 96}, {"note": 57, "velocity": 79, "duration": 182}, {"note": 62, "velocity": 99, "duration": 588}, {"note": 0, "velocity": 0, "duration": 492}, {"note": 62, "velocity": 95, "duration": 95}, {"note": 55, "velocity": 72, "duration": 55}, {"note": 0, "velocity": 0, "duration": 65}, {"note": 55, "velocity": 74, "duration": 51}, {"note": 0, "velocity": 0, "duration": 69}, {"note": 54, "velocity": 70, "duration": 155}, {"note": 0, "velocity": 0, "duration": 85}, {"note": 54, "velocity": 72, "duration": 224}, {"note": 55, "velocity": 85, "duration": 187}, {"note": 57, "velocity": 86, "duration": 362}, {"note": 0, "velocity": 0, "duration": 478}, {"note": 59, "velocity": 100, "duration": 78}, {"note": 60, "velocity": 69, "duration": 66}, {"note": 59, "velocity": 92, "duration": 72}, {"note": 57, "velocity": 90, "duration": 157}, {"note": 0, "velocity": 0, "duration": 83}, {"note": 55, "velocity": 90, "duration": 209}, {"note": 62, "velocity": 99, "duration": 156}, {"note": 0, "velocity": 0, "duration": 84}, {"note": 55, "velocity": 78, "duration": 49}, {"note": 0, "velocity": 0, "duration": 71}, {"note": 55, "velocity": 82, "duration": 66}, {"note": 62, "velocity": 90, "duration": 53}, {"note": 0, "velocity": 0, "duration": 67}, {"note": 62, "velocity": 96, "duration": 201}, {"note": 60, "velocity": 81, "duration": 71}, {"note": 60, "velocity": 89, "duration": 245}, {"note": 0, "velocity": 0, "duration": 235}, {"note": 55, "velocity": 78, "duration": 100}, {"note": 62, "velocity": 90, "duration": 187}, {"note": 60, "velocity": 78, "duration": 65}, {"note": 60, "velocity": 96, "duration": 188}, {"note": 55, "velocity": 88, "duration": 149}, {"note": 0, "velocity": 0, "duration": 91}, {"note": 62, "velocity": 89, "duration": 941}, {"note": 0, "velocity": 0, "duration": 1099}, {"note": 59, "velocity": 107, "duration": 187}, {"note": 59, "velocity": 95, "duration": 166}, {"note": 0, "velocity": 0, "duration": 74}, {"note": 60, "velocity": 112, "duration": 213}, {"note": 59, "velocity": 96, "duration": 57}, {"note": 0, "velocity": 0, "duration": 63}, {"note": 62, "velocity": 100, "duration": 157}, {"note": 0, "velocity": 0, "duration": 83}, {"note": 62, "velocity": 122, "duration": 252}, {"note": 64, "velocity": 99, "duration": 148}, {"note": 0, "velocity": 0, "duration": 92}, {"note": 62, "velocity": 102, "duration": 278}, {"note": 0, "velocity": 0, "duration": 202}, {"note": 67, "velocity": 100, "duration": 149}, {"note": 0, "velocity": 0, "duration": 91}, {"note": 67, "velocity": 100, "duration": 170}, {"note": 0, "velocity": 0, "duration": 70}, {"note": 66, "velocity": 107, "duration": 188}, {"note": 0, "velocity": 0, "duration": 172}, {"note": 62, "velocity": 81, "duration": 161}, {"note": 59, "velocity": 78, "duration": 510}, {"note": 0, "velocity": 0, "duration": 570}, {"note": 55, "velocity": 92, "duration": 150}, {"note": 0, "velocity": 0, "duration": 90}, {"note": 64, "velocity": 89, "duration": 161}, {"note": 0, "velocity": 0, "duration": 79}, {"note": 55, "velocity": 79, "duration": 183}, {"note": 54, "velocity": 72, "duration": 245}, {"note": 62, "velocity": 88, "duration": 174}, {"note": 0, "velocity": 0, "duration": 66}, {"note": 62, "velocity": 92, "duration": 203}, {"note": 60, "velocity": 96, "duration": 90}, {"note": 59, "velocity": 69, "duration": 127}, {"note": 60, "velocity": 77, "duration": 639}, {"note": 0, "velocity": 0, "duration": 81}, {"note": 59, "velocity": 78, "duration": 78}, {"note": 60, "velocity": 69, "duration": 65}, {"note": 62, "velocity": 75, "duration": 168}, {"note": 0, "velocity": 0, "duration": 72}, {"note": 59, "velocity": 77, "duration": 151}, {"note": 0, "velocity": 0, "duration": 89}, {"note": 57, "velocity": 77, "duration": 299}, {"note": 0, "velocity": 0, "duration": 181}, {"note": 59, "velocity": 92, "duration": 160}, {"note": 0, "velocity": 0, "duration": 80}, {"note": 59, "velocity": 81, "duration": 181}, {"note": 60, "velocity": 82, "duration": 185}, {"note": 59, "velocity": 78, "duration": 97}, {"note": 62, "velocity": 97, "duration": 120}, {"note": 0, "velocity": 0, "duration": 120}, {"note": 62, "velocity": 86, "duration": 177}, {"note": 0, "velocity": 0, "duration": 63}, {"note": 64, "velocity": 82, "duration": 178}, {"note": 0, "velocity": 0, "duration": 62}, {"note": 66, "velocity": 93, "duration": 178}, {"note": 0, "velocity": 0, "duration": 422}, {"note": 69, "velocity": 93, "duration": 162}, {"note": 0, "velocity": 0, "duration": 78}, {"note": 67, "velocity": 96, "duration": 116}, {"note": 0, "velocity": 0, "duration": 124}, {"note": 66, "velocity": 92, "duration": 80}, {"note": 67, "velocity": 95, "duration": 191}, {"note": 64, "velocity": 78, "duration": 114}, {"note": 62, "velocity": 85, "duration": 158}, {"note": 0, "velocity": 0, "duration": 82}, {"note": 62, "velocity": 92, "duration": 237}, {"note": 0, "velocity": 0, "duration": 483}, {"note": 66, "velocity": 112, "duration": 156}, {"note": 0, "velocity": 0, "duration": 84}, {"note": 67, "velocity": 97, "duration": 218}, {"note": 64, "velocity": 93, "duration": 198}, {"note": 62, "velocity": 93, "duration": 204}, {"note": 64, "velocity": 93, "duration": 126}, {"note": 0, "velocity": 0, "duration": 114}, {"note": 55, "velocity": 86, "duration": 154}, {"note": 0, "velocity": 0, "duration": 86}, {"note": 60, "velocity": 92, "duration": 82}, {"note": 59, "velocity": 72, "duration": 102}, {"note": 60, "velocity": 96, "duration": 121}, {"note": 0, "velocity": 0, "duration": 119}, {"note": 67, "velocity": 96, "duration": 464}, {"note": 0, "velocity": 0, "duration": 136}, {"note": 64, "velocity": 86, "duration": 107}, {"note": 67, "velocity": 100, "duration": 655}, {"note": 69, "velocity": 96, "duration": 148}, {"note": 0, "velocity": 0, "duration": 92}, {"note": 69, "velocity": 107, "duration": 197}, {"note": 67, "velocity": 96, "duration": 1100}, {"note": 0, "velocity": 0, "duration": 700}, {"note": 59, "velocity": 107, "duration": 187}, {"note": 59, "velocity": 95, "duration": 166}, {"note": 0, "velocity": 0, "duration": 74}, {"note": 60, "velocity": 112, "duration": 213}, {"note": 59, "velocity": 96, "duration": 57}, {"note": 0, "velocity": 0, "duration": 63}, {"note": 62, "velocity": 100, "duration": 157}, {"note": 0, "velocity": 0, "duration": 83}, {"note": 62, "velocity": 122, "duration": 252}, {"note": 64, "velocity": 99, "duration": 148}, {"note": 0, "velocity": 0, "duration": 92}, {"note": 62, "velocity": 102, "duration": 278}, {"note": 0, "velocity": 0, "duration": 202}, {"note": 67, "velocity": 100, "duration": 149}, {"note": 0, "velocity": 0, "duration": 91}, {"note": 67, "velocity": 100, "duration": 170}, {"note": 0, "velocity": 0, "duration": 70}, {"note": 66, "velocity": 107, "duration": 188}, {"note": 0, "velocity": 0, "duration": 172}, {"note": 62, "velocity": 81, "duration": 161}, {"note": 59, "velocity": 78, "duration": 510}, {"note": 0, "velocity": 0, "duration": 570}, {"note": 55, "velocity": 92, "duration": 150}, {"note": 0, "velocity": 0, "duration": 90}, {"note": 64, "velocity": 89, "duration": 161}, {"note": 0, "velocity": 0, "duration": 79}, {"note": 55, "velocity": 79, "duration": 183}, {"note": 54, "velocity": 72, "duration": 245}, {"note": 62, "velocity": 88, "duration": 174}, {"note": 0, "velocity": 0, "duration": 66}, {"note": 62, "velocity": 92, "duration": 203}, {"note": 60, "velocity": 96, "duration": 90}, {"note": 59, "velocity": 69, "duration": 127}, {"note": 60, "velocity": 77, "duration": 639}, {"note": 0, "velocity": 0, "duration": 81}, {"note": 59, "velocity": 78, "duration": 78}, {"note": 60, "velocity": 69, "duration": 65}, {"note": 62, "velocity": 75, "duration": 168}, {"note": 0, "velocity": 0, "duration": 72}, {"note": 59, "velocity": 77, "duration": 151}, {"note": 0, "velocity": 0, "duration": 89}, {"note": 57, "velocity": 77, "duration": 299}, {"note": 0, "velocity": 0, "duration": 181}, {"note": 59, "velocity": 92, "duration": 160}, {"note": 0, "velocity": 0, "duration": 80}, {"note": 59, "velocity": 81, "duration": 181}, {"note": 60, "velocity": 82, "duration": 185}, {"note": 59, "velocity": 78, "duration": 97}, {"note": 62, "velocity": 97, "duration": 120}, {"note": 0, "velocity": 0, "duration": 120}, {"note": 62, "velocity": 86, "duration": 177}, {"note": 0, "velocity": 0, "duration": 63}, {"note": 64, "velocity": 82, "duration": 178}, {"note": 0, "velocity": 0, "duration": 62}, {"note": 66, "velocity": 93, "duration": 178}, {"note": 0, "velocity": 0, "duration": 422}, {"note": 69, "velocity": 93, "duration": 162}, {"note": 0, "velocity": 0, "duration": 78}, {"note": 67, "velocity": 96, "duration": 116}, {"note": 0, "velocity": 0, "duration": 124}, {"note": 66, "velocity": 92, "duration": 80}, {"note": 67, "velocity": 95, "duration": 191}, {"note": 64, "velocity": 78, "duration": 114}, {"note": 62, "velocity": 85, "duration": 158}, {"note": 0, "velocity": 0, "duration": 82}, {"note": 62, "velocity": 92, "duration": 237}, {"note": 0, "velocity": 0, "duration": 483}, {"note": 66, "velocity": 112, "duration": 156}, {"note": 0, "velocity": 0, "duration": 84}, {"note": 67, "velocity": 97, "duration": 218}, {"note": 64, "velocity": 93, "duration": 198}, {"note": 62, "velocity": 93, "duration": 204}, {"note": 64, "velocity": 93, "duration": 126}, {"note": 0, "velocity": 0, "duration": 114}, {"note": 55, "velocity": 86, "duration": 154}, {"note": 0, "velocity": 0, "duration": 86}, {"note": 60, "velocity": 92, "duration": 82}, {"note": 59, "velocity": 72, "duration": 102}, {"note": 60, "velocity": 96, "duration": 121}, {"note": 0, "velocity": 0, "duration": 119}, {"note": 67, "velocity": 96, "duration": 464}, {"note": 0, "velocity": 0, "duration": 136}, {"note": 64, "velocity": 86, "duration": 107}, {"note": 67, "velocity": 100, "duration": 655}, {"note": 0, "velocity": 0, "duration": 65}, {"note": 66, "velocity": 90, "duration": 231}, {"note": 67, "velocity": 95, "duration": 1063}, {"note": 0, "velocity": 0, "duration": 1217}, {"note": 64, "velocity": 82, "duration": 122}, {"note": 62, "velocity": 88, "duration": 835}, {"note": 0, "velocity": 0, "duration": 845}, {"note": 66, "velocity": 99, "duration": 157}, {"note": 0, "velocity": 0, "duration": 83}, {"note": 67, "velocity": 92, "duration": 149}, {"note": 0, "velocity": 0, "duration": 91}, {"note": 64, "velocity": 85, "duration": 118}, {"note": 0, "velocity": 0, "duration": 122}, {"note": 62, "velocity": 92, "duration": 226}, {"note": 64, "velocity": 86, "duration": 110}, {"note": 0, "velocity": 0, "duration": 130}, {"note": 55, "velocity": 89, "duration": 381}, {"note": 0, "velocity": 0, "duration": 93}, {"note": 60, "velocity": 95, "duration": 113}, {"note": 59, "velocity": 66, "duration": 133}, {"note": 60, "velocity": 78, "duration": 156}, {"note": 0, "velocity": 0, "duration": 81}, {"note": 67, "velocity": 102, "duration": 508}, {"note": 0, "velocity": 0, "duration": 131}, {"note": 64, "velocity": 86, "duration": 133}, {"note": 67, "velocity": 86, "duration": 856}, {"note": 0, "velocity": 0, "duration": 258}, {"note": 66, "velocity": 93, "duration": 259}, {"note": 0, "velocity": 0, "duration": 84}, {"note": 67, "velocity": 90, "duration": 2559}]]