[[{"note": 69, "velocity": 68, "duration": 53}, {"note": 0, "velocity": 0, "duration": 67}, {"note": 69, "velocity": 79, "duration": 50}, {"note": 0, "velocity": 0, "duration": 70}, {"note": 69, "velocity": 97, "duration": 55}, {"note": 0, "velocity": 0, "duration": 65}, {"note": 66, "velocity": 83, "duration": 102}, {"note": 73, "velocity": 92, "duration": 126}, {"note": 71, "velocity": 86, "duration": 388}, {"note": 0, "velocity": 0, "duration": 92}, {"note": 64, "velocity": 81, "duration": 81}, {"note": 73, "velocity": 112, "duration": 135}, {"note": 0, "velocity": 0, "duration": 225}, {"note": 71, "velocity": 92, "duration": 49}, {"note": 0, "velocity": 0, "duration": 71}, {"note": 69, "velocity": 99, "duration": 203}, {"note": 66, "velocity": 88, "duration": 445}, {"note": 0, "velocity": 0, "duration": 1475}, {"note": 69, "velocity": 92, "duration": 52}, {"note": 0, "velocity": 0, "duration": 68}, {"note": 69, "velocity": 92, "duration": 52}, {"note": 0, "velocity": 0, "duration": 68}, {"note": 69, "velocity": 97, "duration": 60}, {"note": 64, "velocity": 90, "duration": 109}, {"note": 73, "velocity": 102, "duration": 132}, {"note": 71, "velocity": 89, "duration": 401}, {"note": 0, "velocity": 0, "duration": 79}, {"note": 71, "velocity": 92, "duration": 48}, {"note": 0, "velocity": 0, "duration": 72}, {"note": 71, "velocity": 96, "duration": 100}, {"note": 0, "velocity": 0, "duration": 140}, {"note": 73, "velocity": 100, "duration": 53}, {"note": 0, "velocity": 0, "duration": 67}, {"note": 76, "velocity": 97, "duration": 89}, {"note": 0, "velocity": 0, "duration": 271}, {"note": 73, "velocity": 102, "duration": 259}, {"note": 0, "velocity": 0, "duration": 1181}, {"note": 73, "velocity": 117, "duration": 67}, {"note": 76, "velocity": 85, "duration": 79}, {"note": 78, "velocity": 117, "duration": 87}, {"note": 78, "velocity": 112, "duration": 35}, {"note": 0, "velocity": 0, "duration": 85}, {"note": 78, "velocity": 112, "duration": 41}, {"note": 0, "velocity": 0, "duration": 79}, {"note": 78, "velocity": 102, "duration": 39}, {"note": 0, "velocity": 0, "duration": 81}, {"note": 78, "velocity": 127, "duration": 67}, {"note": 0, "velocity": 0, "duration": 173}, {"note": 78, "velocity": 117, "duration": 56}, {"note": 0, "velocity": 0, "duration": 64}, {"note": 69, "velocity": 97, "duration": 80}, {"note": 0, "velocity": 0, "duration": 160}, {"note": 71, "velocity": 93, "duration": 352}, {"note": 0, "velocity": 0, "duration": 248}, {"note": 71, "velocity": 95, "duration": 54}, {"note": 0, "velocity": 0, "duration": 66}, {"note": 73, "velocity": 117, "duration": 57}, {"note": 0, "velocity": 0, "duration": 63}, {"note": 76, "velocity": 100, "duration": 43}, {"note": 0, "velocity": 0, "duration": 77}, {"note": 76, "velocity": 93, "duration": 40}, {"note": 0, "velocity": 0, "duration": 80}, {"note": 76, "velocity": 100, "duration": 37}, {"note": 0, "velocity": 0, "duration": 83}, {"note": 76, "velocity": 99, "duration": 37}, {"note": 0, "velocity": 0, "duration": 83}, {"note": 76, "velocity": 117, "duration": 78}, {"note": 78, "velocity": 117, "duration": 89}, {"note": 0, "velocity": 0, "duration": 151}, {"note": 71, "velocity": 92, "duration": 131}, {"note": 73, "velocity": 99, "duration": 446}, {"note": 0, "velocity": 0, "duration": 274}, {"note": 66, "velocity": 100, "duration": 99}, {"note": 69, "velocity": 69, "duration": 97}, {"note": 73, "velocity": 97, "duration": 124}, {"note": 71, "velocity": 82, "duration": 132}, {"note": 69, "velocity": 79, "duration": 140}, {"note": 71, "velocity": 88, "duration": 369}, {"note": 0, "velocity": 0, "duration": 591}, {"note": 66, "velocity": 90, "duration": 84}, {"note": 73, "velocity": 102, "duration": 110}, {"note": 0, "velocity": 0, "duration": 130}, {"note": 71, "velocity": 92, "duration": 106}, {"note": 69, "velocity": 73, "duration": 138}, {"note": 71, "velocity": 90, "duration": 719}, {"note": 0, "velocity": 0, "duration": 1441}, {"note": 69, "velocity": 83, "duration": 53}, {"note": 0, "velocity": 0, "duration": 67}, {"note": 69, "velocity": 86, "duration": 47}, {"note": 0, "velocity": 0, "duration": 73}, {"note": 69, "velocity": 90, "duration": 74}, {"note": 66, "velocity": 95, "duration": 76}, {"note": 73, "velocity": 117, "duration": 83}, {"note": 71, "velocity": 107, "duration": 433}, {"note": 64, "velocity": 90, "duration": 32}, {"note": 0, "velocity": 0, "duration": 88}, {"note": 73, "velocity": 127, "duration": 106}, {"note": 71, "velocity": 92, "duration": 139}, {"note": 0, "velocity": 0, "duration": 101}, {"note": 69, "velocity": 83, "duration": 78}, {"note": 69, "velocity": 90, "duration": 190}, {"note": 66, "velocity": 96, "duration": 577}, {"note": 0, "velocity": 0, "duration": 1343}, {"note": 69, "velocity": 55, "duration": 52}, {"note": 0, "velocity": 0, "duration": 68}, {"note": 69, "velocity": 74, "duration": 53}, {"note": 0, "velocity": 0, "duration": 67}, {"note": 69, "velocity": 86, "duration": 122}, {"note": 64, "velocity": 64, "duration": 138}, {"note": 73, "velocity": 92, "duration": 134}, {"note": 71, "velocity": 99, "duration": 327}, {"note": 0, "velocity": 0, "duration": 153}, {"note": 71, "velocity": 89, "duration": 55}, {"note": 0, "velocity": 0, "duration": 65}, {"note": 71, "velocity": 107, "duration": 129}, {"note": 0, "velocity": 0, "duration": 111}, {"note": 73, "velocity": 117, "duration": 61}, {"note": 76, "velocity": 100, "duration": 148}, {"note": 0, "velocity": 0, "duration": 92}, {"note": 73, "velocity": 122, "duration": 590}, {"note": 0, "velocity": 0, "duration": 970}, {"note": 73, "velocity": 127, "duration": 85}, {"note": 76, "velocity": 127, "duration": 130}, {"note": 78, "velocity": 122, "duration": 66}, {"note": 78, "velocity": 122, "duration": 60}, {"note": 78, "velocity": 127, "duration": 45}, {"note": 0, "velocity": 0, "duration": 75}, {"note": 78, "velocity": 127, "duration": 38}, {"note": 0, "velocity": 0, "duration": 82}, {"note": 76, "velocity": 127, "duration": 121}, {"note": 0, "velocity": 0, "duration": 119}, {"note": 78, "velocity": 127, "duration": 51}, {"note": 0, "velocity": 0, "duration": 69}, {"note": 73, "velocity": 112, "duration": 202}, {"note": 71, "velocity": 97, "duration": 390}, {"note": 0, "velocity": 0, "duration": 90}, {"note": 73, "velocity": 107, "duration": 95}, {"note": 76, "velocity": 107, "duration": 105}, {"note": 73, "velocity": 102, "duration": 92}, {"note": 76, "velocity": 112, "duration": 101}, {"note": 71, "velocity": 95, "duration": 61}, {"note": 71, "velocity": 89, "duration": 82}, {"note": 73, "velocity": 112, "duration": 56}, {"note": 0, "velocity": 0, "duration": 64}, {"note": 73, "velocity": 127, "duration": 173}, {"note": 0, "velocity": 0, "duration": 67}, {"note": 71, "velocity": 112, "duration": 103}, {"note": 69, "velocity": 100, "duration": 203}, {"note": 66, "velocity": 90, "duration": 381}, {"note": 0, "velocity": 0, "duration": 99}, {"note": 66, "velocity": 100, "duration": 108}, {"note": 69, "velocity": 95, "duration": 79}, {"note": 66, "velocity": 99, "duration": 69}, {"note": 73, "velocity": 127, "duration": 120}, {"note": 71, "velocity": 96, "duration": 125}, {"note": 69, "velocity": 92, "duration": 140}, {"note": 71, "velocity": 112, "duration": 188}, {"note": 0, "velocity": 0, "duration": 772}, {"note": 69, "velocity": 97, "duration": 129}, {"note": 73, "velocity": 122, "duration": 136}, {"note": 0, "velocity": 0, "duration": 104}, {"note": 69, "velocity": 93, "duration": 73}, {"note": 73, "velocity": 127, "duration": 237}, {"note": 0, "velocity": 0, "duration": 123}, {"note": 71, "velocity": 112, "duration": 451}, {"note": 0, "velocity": 0, "duration": 869}, {"note": 76, "velocity": 99, "duration": 99}, {"note": 78, "velocity": 122, "duration": 106}, {"note": 73, "velocity": 100, "duration": 108}, {"note": 76, "velocity": 96, "duration": 51}, {"note": 0, "velocity": 0, "duration": 69}, {"note": 76, "velocity": 100, "duration": 50}, {"note": 0, "velocity": 0, "duration": 70}, {"note": 76, "velocity": 97, "duration": 50}, {"note": 0, "velocity": 0, "duration": 70}, {"note": 76, "velocity": 100, "duration": 54}, {"note": 0, "velocity": 0, "duration": 66}, {"note": 76, "velocity": 122, "duration": 68}, {"note": 73, "velocity": 127, "duration": 102}, {"note": 71, "velocity": 97, "duration": 95}, {"note": 73, "velocity": 122, "duration": 445}, {"note": 73, "velocity": 127, "duration": 44}, {"note": 0, "velocity": 0, "duration": 76}, {"note": 73, "velocity": 122, "duration": 93}, {"note": 71, "velocity": 100, "duration": 128}, {"note": 0, "velocity": 0, "duration": 112}, {"note": 73, "velocity": 127, "duration": 48}, {"note": 0, "velocity": 0, "duration": 72}, {"note": 71, "velocity": 127, "duration": 221}, {"note": 0, "velocity": 0, "duration": 139}, {"note": 69, "velocity": 107, "duration": 267}, {"note": 0, "velocity": 0, "duration": 1053}, {"note": 66, "velocity": 122, "duration": 86}, {"note": 69, "velocity": 96, "duration": 116}, {"note": 73, "velocity": 122, "duration": 106}, {"note": 71, "velocity": 95, "duration": 69}, {"note": 71, "velocity": 102, "duration": 58}, {"note": 0, "velocity": 0, "duration": 62}, {"note": 71, "velocity": 107, "duration": 54}, {"note": 0, "velocity": 0, "duration": 66}, {"note": 71, "velocity": 127, "duration": 112}, {"note": 71, "velocity": 127, "duration": 101}, {"note": 69, "velocity": 99, "duration": 122}, {"note": 71, "velocity": 112, "duration": 110}, {"note": 0, "velocity": 0, "duration": 250}, {"note": 71, "velocity": 102, "duration": 57}, {"note": 0, "velocity": 0, "duration": 63}, {"note": 69, "velocity": 99, "duration": 47}, {"note": 0, "velocity": 0, "duration": 73}, {"note": 78, "velocity": 127, "duration": 97}, {"note": 0, "velocity": 0, "duration": 143}, {"note": 76, "velocity": 122, "duration": 51}, {"note": 0, "velocity": 0, "duration": 69}, {"note": 69, "velocity": 107, "duration": 133}, {"note": 0, "velocity": 0, "duration": 107}, {"note": 71, "velocity": 127, "duration": 446}, {"note": 0, "velocity": 0, "duration": 994}, {"note": 76, "velocity": 99, "duration": 99}, {"note": 78, "velocity": 122, "duration": 106}, {"note": 73, "velocity": 100, "duration": 108}, {"note": 76, "velocity": 96, "duration": 51}, {"note": 0, "velocity": 0, "duration": 69}, {"note": 76, "velocity": 100, "duration": 50}, {"note": 0, "velocity": 0, "duration": 70}, {"note": 76, "velocity": 97, "duration": 50}, {"note": 0, "velocity": 0, "duration": 70}, {"note": 76, "velocity": 100, "duration": 54}, {"note": 0, "velocity": 0, "duration": 66}, {"note": 76, "velocity": 122, "duration": 68}, {"note": 73, "velocity": 127, "duration": 102}, {"note": 71, "velocity": 97, "duration": 95}, {"note": 73, "velocity": 122, "duration": 445}, {"note": 73, "velocity": 127, "duration": 44}, {"note": 0, "velocity": 0, "duration": 76}, {"note": 81, "velocity": 127, "duration": 118}, {"note": 80, "velocity": 122, "duration": 145}, {"note": 0, "velocity": 0, "duration": 95}, {"note": 81, "velocity": 122, "duration": 65}, {"note": 81, "velocity": 127, "duration": 147}, {"note": 0, "velocity": 0, "duration": 93}, {"note": 80, "velocity": 117, "duration": 58}, {"note": 0, "velocity": 0, "duration": 62}, {"note": 78, "velocity": 122, "duration": 314}, {"note": 0, "velocity": 0, "duration": 1006}, {"note": 71, "velocity": 107, "duration": 93}, {"note": 73, "velocity": 112, "duration": 90}, {"note": 74, "velocity": 107, "duration": 165}, {"note": 0, "velocity": 0, "duration": 75}, {"note": 74, "velocity": 122, "duration": 155}, {"note": 0, "velocity": 0, "duration": 85}, {"note": 74, "velocity": 127, "duration": 125}, {"note": 78, "velocity": 127, "duration": 324}, {"note": 76, "velocity": 117, "duration": 207}, {"note": 0, "velocity": 0, "duration": 153}, {"note": 73, "velocity": 122, "duration": 81}, {"note": 71, "velocity": 95, "duration": 225}, {"note": 73, "velocity": 107, "duration": 82}, {"note": 71, "velocity": 100, "duration": 263}, {"note": 0, "velocity": 0, "duration": 97}, {"note": 69, "velocity": 99, "duration": 751}, {"note": 0, "velocity": 0, "duration": 18449}, {"note": 69, "velocity": 83, "duration": 53}, {"note": 0, "velocity": 0, "duration": 67}, {"note": 69, "velocity": 86, "duration": 47}, {"note": 0, "velocity": 0, "duration": 73}, {"note": 69, "velocity": 90, "duration": 74}, {"note": 66, "velocity": 95, "duration": 76}, {"note": 73, "velocity": 117, "duration": 83}, {"note": 71, "velocity": 107, "duration": 433}, {"note": 64, "velocity": 90, "duration": 32}, {"note": 0, "velocity": 0, "duration": 88}, {"note": 73, "velocity": 127, "duration": 106}, {"note": 71, "velocity": 92, "duration": 139}, {"note": 0, "velocity": 0, "duration": 101}, {"note": 69, "velocity": 83, "duration": 78}, {"note": 69, "velocity": 90, "duration": 190}, {"note": 66, "velocity": 96, "duration": 577}, {"note": 0, "velocity": 0, "duration": 1343}, {"note": 69, "velocity": 55, "duration": 52}, {"note": 0, "velocity": 0, "duration": 68}, {"note": 69, "velocity": 74, "duration": 53}, {"note": 0, "velocity": 0, "duration": 67}, {"note": 69, "velocity": 86, "duration": 122}, {"note": 64, "velocity": 64, "duration": 138}, {"note": 73, "velocity": 92, "duration": 134}, {"note": 71, "velocity": 99, "duration": 327}, {"note": 0, "velocity": 0, "duration": 153}, {"note": 71, "velocity": 89, "duration": 55}, {"note": 0, "velocity": 0, "duration": 65}, {"note": 71, "velocity": 107, "duration": 129}, {"note": 0, "velocity": 0, "duration": 111}, {"note": 73, "velocity": 117, "duration": 61}, {"note": 76, "velocity": 100, "duration": 148}, {"note": 0, "velocity": 0, "duration": 92}, {"note": 73, "velocity": 122, "duration": 590}, {"note": 0, "velocity": 0, "duration": 970}, {"note": 73, "velocity": 127, "duration": 85}, {"note": 76, "velocity": 127, "duration": 130}, {"note": 78, "velocity": 122, "duration": 66}, {"note": 78, "velocity": 122, "duration": 60}, {"note": 78, "velocity": 127, "duration": 45}, {"note": 0, "velocity": 0, "duration": 75}, {"note": 78, "velocity": 127, "duration": 38}, {"note": 0, "velocity": 0, "duration": 82}, {"note": 76, "velocity": 127, "duration": 121}, {"note": 0, "velocity": 0, "duration": 119}, {"note": 78, "velocity": 127, "duration": 51}, {"note": 0, "velocity": 0, "duration": 69}, {"note": 73, "velocity": 112, "duration": 202}, {"note": 71, "velocity": 97, "duration": 390}, {"note": 0, "velocity": 0, "duration": 90}, {"note": 73, "velocity": 107, "duration": 95}, {"note": 76, "velocity": 107, "duration": 105}, {"note": 73, "velocity": 102, "duration": 92}, {"note": 76, "velocity": 112, "duration": 101}, {"note": 71, "velocity": 95, "duration": 61}, {"note": 71, "velocity": 89, "duration": 82}, {"note": 73, "velocity": 112, "duration": 56}, {"note": 0, "velocity": 0, "duration": 64}, {"note": 73, "velocity": 127, "duration": 173}, {"note": 0, "velocity": 0, "duration": 67}, {"note": 71, "velocity": 112, "duration": 103}, {"note": 69, "velocity": 100, "duration": 203}, {"note": 66, "velocity": 90, "duration": 381}, {"note": 0, "velocity": 0, "duration": 99}, {"note": 66, "velocity": 100, "duration": 108}, {"note": 69, "velocity": 95, "duration": 79}, {"note": 66, "velocity": 99, "duration": 69}, {"note": 73, "velocity": 127, "duration": 120}, {"note": 71, "velocity": 96, "duration": 125}, {"note": 69, "velocity": 92, "duration": 140}, {"note": 71, "velocity": 112, "duration": 188}, {"note": 0, "velocity": 0, "duration": 772}, {"note": 69, "velocity": 97, "duration": 129}, {"note": 73, "velocity": 122, "duration": 136}, {"note": 0, "velocity": 0, "duration": 104}, {"note": 69, "velocity": 93, "duration": 73}, {"note": 73, "velocity": 127, "duration": 237}, {"note": 0, "velocity": 0, "duration": 123}, {"note": 71, "velocity": 112, "duration": 451}, {"note": 0, "velocity": 0, "duration": 869}, {"note": 76, "velocity": 99, "duration": 99}, {"note": 78, "velocity": 122, "duration": 106}, {"note": 73, "velocity": 100, "duration": 108}, {"note": 76, "velocity": 96, "duration": 51}, {"note": 0, "velocity": 0, "duration": 69}, {"note": 76, "velocity": 100, "duration": 50}, {"note": 0, "velocity": 0, "duration": 70}, {"note": 76, "velocity": 97, "duration": 50}, {"note": 0, "velocity": 0, "duration": 70}, {"note": 76, "velocity": 100, "duration": 54}, {"note": 0, "velocity": 0, "duration": 66}, {"note": 76, "velocity": 122, "duration": 68}, {"note": 73, "velocity": 127, "duration": 102}, {"note": 71, "velocity": 97, "duration": 95}, {"note": 73, "velocity": 122, "duration": 445}, {"note": 73, "velocity": 127, "duration": 44}, {"note": 0, "velocity": 0, "duration": 76}, {"note": 73, "velocity": 122, "duration": 93}, {"note": 71, "velocity": 100, "duration": 128}, {"note": 0, "velocity": 0, "duration": 112}, {"note": 73, "velocity": 127, "duration": 48}, {"note": 0, "velocity": 0, "duration": 72}, {"note": 71, "velocity": 127, "duration": 221}, {"note": 0, "velocity": 0, "duration": 139}, {"note": 69, "velocity": 107, "duration": 267}, {"note": 0, "velocity": 0, "duration": 1053}, {"note": 66, "velocity": 122, "duration": 86}, {"note": 69, "velocity": 96, "duration": 116}, {"note": 73, "velocity": 122, "duration": 106}, {"note": 71, "velocity": 95, "duration": 69}, {"note": 71, "velocity": 102, "duration": 58}, {"note": 0, "velocity": 0, "duration": 62}, {"note": 71, "velocity": 107, "duration": 54}, {"note": 0, "velocity": 0, "duration": 66}, {"note": 71, "velocity": 127, "duration": 112}, {"note": 71, "velocity": 127, "duration": 101}, {"note": 69, "velocity": 99, "duration": 122}, {"note": 71, "velocity": 112, "duration": 110}, {"note": 0, "velocity": 0, "duration": 250}, {"note": 71, "velocity": 102, "duration": 57}, {"note": 0, "velocity": 0, "duration": 63}, {"note": 69, "velocity": 99, "duration": 47}, {"note": 0, "velocity": 0, "duration": 73}, {"note": 78, "velocity": 127, "duration": 97}, {"note": 0, "velocity": 0, "duration": 143}, {"note": 76, "velocity": 122, "duration": 51}, {"note": 0, "velocity": 0, "duration": 69}, {"note": 69, "velocity": 107, "duration": 133}, {"note": 0, "velocity": 0, "duration": 107}, {"note": 71, "velocity": 127, "duration": 446}, {"note": 0, "velocity": 0, "duration": 994}, {"note": 76, "velocity": 99, "duration": 99}, {"note": 78, "velocity": 122, "duration": 106}, {"note": 73, "velocity": 100, "duration": 108}, {"note": 76, "velocity": 96, "duration": 51}, {"note": 0, "velocity": 0, "duration": 69}, {"note": 76, "velocity": 100, "duration": 50}, {"note": 0, "velocity": 0, "duration": 70}, {"note": 76, "velocity": 97, "duration": 50}, {"note": 0, "velocity": 0, "duration": 70}, {"note": 76, "velocity": 100, "duration": 54}, {"note": 0, "velocity": 0, "duration": 66}, {"note": 76, "velocity": 122, "duration": 68}, {"note": 73, "velocity": 127, "duration": 102}, {"note": 71, "velocity": 97, "duration": 95}, {"note": 73, "velocity": 122, "duration": 445}, {"note": 73, "velocity": 127, "duration": 44}, {"note": 0, "velocity": 0, "duration": 76}, {"note": 81, "velocity": 127, "duration": 118}, {"note": 80, "velocity": 122, "duration": 145}, {"note": 0, "velocity": 0, "duration": 95}, {"note": 81, "velocity": 122, "duration": 65}, {"note": 81, "velocity": 127, "duration": 147}, {"note": 0, "velocity": 0, "duration": 93}, {"note": 80, "velocity": 117, "duration": 58}, {"note": 0, "velocity": 0, "duration": 62}, {"note": 78, "velocity": 122, "duration": 314}, {"note": 0, "velocity": 0, "duration": 1006}, {"note": 71, "velocity": 107, "duration": 93}, {"note": 73, "velocity": 112, "duration": 90}, {"note": 74, "velocity": 107, "duration": 165}, {"note": 0, "velocity": 0, "duration": 75}, {"note": 74, "velocity": 122, "duration": 155}, {"note": 0, "velocity": 0, "duration": 85}, {"note": 74, "velocity": 127, "duration": 125}, {"note": 78, "velocity": 127, "duration": 324}, {"note": 76, "velocity": 117, "duration": 207}, {"note": 0, "velocity": 0, "duration": 153}, {"note": 73, "velocity": 122, "duration": 81}, {"note": 71, "velocity": 95, "duration": 225}, {"note": 73, "velocity": 107, "duration": 82}, {"note": 71, "velocity": 100, "duration": 263}, {"note": 0, "velocity": 0, "duration": 97}, {"note": 69, "velocity": 99, "duration": 751}, {"note": 0, "velocity": 0, "duration": 569}, {"note": 76, "velocity": 99, "duration": 99}, {"note": 78, "velocity": 122, "duration": 106}, {"note": 73, "velocity": 100, "duration": 108}, {"note": 76, "velocity": 96, "duration": 51}, {"note": 0, "velocity": 0, "duration": 69}, {"note": 76, "velocity": 100, "duration": 50}, {"note": 0, "velocity": 0, "duration": 70}, {"note": 76, "velocity": 97, "duration": 50}, {"note": 0, "velocity": 0, "duration": 70}, {"note": 76, "velocity": 100, "duration": 54}, {"note": 0, "velocity": 0, "duration": 66}, {"note": 76, "velocity": 122, "duration": 68}, {"note": 73, "velocity": 127, "duration": 102}, {"note": 71, "velocity": 97, "duration": 95}, {"note": 73, "velocity": 122, "duration": 445}, {"note": 73, "velocity": 127, "duration": 44}, {"note": 0, "velocity": 0, "duration": 76}, {"note": 73, "velocity": 122, "duration": 93}, {"note": 71, "velocity": 100, "duration": 128}, {"note": 0, "velocity": 0, "duration": 112}, {"note": 73, "velocity": 127, "duration": 48}, {"note": 0, "velocity": 0, "duration": 72}, {"note": 71, "velocity": 127, "duration": 221}, {"note": 0, "velocity": 0, "duration": 139}, {"note": 69, "velocity": 107, "duration": 267}, {"note": 0, "velocity": 0, "duration": 1053}, {"note": 66, "velocity": 122, "duration": 86}, {"note": 69, "velocity": 96, "duration": 116}, {"note": 73, "velocity": 122, "duration": 106}, {"note": 71, "velocity": 95, "duration": 69}, {"note": 71, "velocity": 102, "duration": 58}, {"note": 0, "velocity": 0, "duration": 62}, {"note": 71, "velocity": 107, "duration": 54}, {"note": 0, "velocity": 0, "duration": 66}, {"note": 71, "velocity": 127, "duration": 112}, {"note": 71, "velocity": 127, "duration": 101}, {"note": 69, "velocity": 99, "duration": 122}, {"note": 71, "velocity": 112, "duration": 110}, {"note": 0, "velocity": 0, "duration": 250}, {"note": 71, "velocity": 102, "duration": 57}, {"note": 0, "velocity": 0, "duration": 63}, {"note": 69, "velocity": 99, "duration": 47}, {"note": 0, "velocity": 0, "duration": 73}, {"note": 78, "velocity": 127, "duration": 97}, {"note": 0, "velocity": 0, "duration": 143}, {"note": 76, "velocity": 122, "duration": 51}, {"note": 0, "velocity": 0, "duration": 69}, {"note": 69, "velocity": 107, "duration": 133}, {"note": 0, "velocity": 0, "duration": 107}, {"note": 71, "velocity": 127, "duration": 446}, {"note": 0, "velocity": 0, "duration": 994}, {"note": 76, "velocity": 99, "duration": 99}, {"note": 78, "velocity": 122, "duration": 106}, {"note": 73, "velocity": 100, "duration": 108}, {"note": 76, "velocity": 96, "duration": 51}, {"note": 0, "velocity": 0, "duration": 69}, {"note": 76, "velocity": 100, "duration": 50}, {"note": 0, "velocity": 0, "duration": 70}, {"note": 76, "velocity": 97, "duration": 50}, {"note": 0, "velocity": 0, "duration": 70}, {"note": 76, "velocity": 100, "duration": 54}, {"note": 0, "velocity": 0, "duration": 66}, {"note": 76, "velocity": 122, "duration": 68}, {"note": 73, "velocity": 127, "duration": 102}, {"note": 71, "velocity": 97, "duration": 95}, {"note": 73, "velocity": 122, "duration": 445}, {"note": 73, "velocity": 127, "duration": 44}, {"note": 0, "velocity": 0, "duration": 76}, {"note": 81, "velocity": 127, "duration": 118}, {"note": 80, "velocity": 122, "duration": 145}, {"note": 0, "velocity": 0, "duration": 95}, {"note": 81, "velocity": 122, "duration": 65}, {"note": 81, "velocity": 127, "duration": 147}, {"note": 0, "velocity": 0, "duration": 93}, {"note": 80, "velocity": 117, "duration": 58}, {"note": 0, "velocity": 0, "duration": 62}, {"note": 78, "velocity": 122, "duration": 314}, {"note": 0, "velocity": 0, "duration": 1006}, {"note": 71, "velocity": 107, "duration": 93}, {"note": 73, "velocity": 112, "duration": 90}, {"note": 74, "velocity": 107, "duration": 165}, {"note": 0, "velocity": 0, "duration": 75}, {"note": 74, "velocity": 122, "duration": 155}, {"note": 0, "velocity": 0, "duration": 85}, {"note": 74, "velocity": 127, "duration": 125}, {"note": 78, "velocity": 127, "duration": 324}, {"note": 76, "velocity": 117, "duration": 207}, {"note": 0, "velocity": 0, "duration": 153}, {"note": 73, "velocity": 122, "duration": 81}, {"note": 71, "velocity": 95, "duration": 225}, {"note": 73, "velocity": 107, "duration": 82}, {"note": 71, "velocity": 100, "duration": 263}, {"note": 0, "velocity": 0, "duration": 97}, {"note": 69, "velocity": 99, "duration": 751}, {"note": 0, "velocity": 0, "duration": 580}, {"note": 76, "velocity": 81, "duration": 108}, {"note": 78, "velocity": 99, "duration": 134}, {"note": 73, "velocity": 90, "duration": 141}, {"note": 76, "velocity": 69, "duration": 129}, {"note": 76, "velocity": 77, "duration": 90}, {"note": 76, "velocity": 100, "duration": 94}, {"note": 76, "velocity": 100, "duration": 76}, {"note": 76, "velocity": 107, "duration": 118}, {"note": 0, "velocity": 0, "duration": 70}, {"note": 73, "velocity": 107, "duration": 127}, {"note": 71, "velocity": 82, "duration": 158}, {"note": 73, "velocity": 92, "duration": 351}, {"note": 73, "velocity": 100, "duration": 100}, {"note": 73, "velocity": 112, "duration": 133}, {"note": 71, "velocity": 92, "duration": 132}, {"note": 73, "velocity": 107, "duration": 76}, {"note": 71, "velocity": 95, "duration": 318}, {"note": 69, "velocity": 85, "duration": 133}, {"note": 66, "velocity": 96, "duration": 976}, {"note": 0, "velocity": 0, "duration": 309}, {"note": 66, "velocity": 99, "duration": 166}, {"note": 69, "velocity": 82, "duration": 118}, {"note": 73, "velocity": 102, "duration": 278}, {"note": 71, "velocity": 75, "duration": 81}, {"note": 71, "velocity": 92, "duration": 206}, {"note": 71, "velocity": 93, "duration": 244}, {"note": 69, "velocity": 75, "duration": 158}, {"note": 71, "velocity": 92, "duration": 628}, {"note": 0, "velocity": 0, "duration": 1218}, {"note": 64, "velocity": 95, "duration": 178}, {"note": 0, "velocity": 0, "duration": 106}, {"note": 73, "velocity": 102, "duration": 213}, {"note": 0, "velocity": 0, "duration": 112}, {"note": 69, "velocity": 102, "duration": 298}, {"note": 71, "velocity": 107, "duration": 102}, {"note": 0, "velocity": 0, "duration": 119}, {"note": 71, "velocity": 100, "duration": 307}, {"note": 69, "velocity": 85, "duration": 1623}]]