[[{"note": 51, "velocity": 90, "duration": 152}, {"note": 56, "velocity": 93, "duration": 115}, {"note": 56, "velocity": 97, "duration": 91}, {"note": 0, "velocity": 0, "duration": 69}, {"note": 56, "velocity": 107, "duration": 150}, {"note": 58, "velocity": 107, "duration": 176}, {"note": 59, "velocity": 107, "duration": 117}, {"note": 59, "velocity": 127, "duration": 309}, {"note": 0, "velocity": 0, "duration": 171}, {"note": 59, "velocity": 127, "duration": 151}, {"note": 58, "velocity": 99, "duration": 146}, {"note": 56, "velocity": 99, "duration": 142}, {"note": 52, "velocity": 117, "duration": 164}, {"note": 56, "velocity": 97, "duration": 87}, {"note": 0, "velocity": 0, "duration": 73}, {"note": 56, "velocity": 97, "duration": 86}, {"note": 0, "velocity": 0, "duration": 74}, {"note": 56, "velocity": 99, "duration": 133}, {"note": 58, "velocity": 107, "duration": 145}, {"note": 59, "velocity": 102, "duration": 115}, {"note": 59, "velocity": 117, "duration": 360}, {"note": 0, "velocity": 0, "duration": 600}, {"note": 54, "velocity": 95, "duration": 159}, {"note": 58, "velocity": 83, "duration": 108}, {"note": 58, "velocity": 78, "duration": 94}, {"note": 0, "velocity": 0, "duration": 66}, {"note": 58, "velocity": 96, "duration": 146}, {"note": 59, "velocity": 112, "duration": 145}, {"note": 61, "velocity": 97, "duration": 114}, {"note": 61, "velocity": 117, "duration": 274}, {"note": 0, "velocity": 0, "duration": 206}, {"note": 61, "velocity": 97, "duration": 113}, {"note": 59, "velocity": 112, "duration": 116}, {"note": 61, "velocity": 97, "duration": 114}, {"note": 58, "velocity": 100, "duration": 96}, {"note": 0, "velocity": 0, "duration": 64}, {"note": 58, "velocity": 100, "duration": 74}, {"note": 0, "velocity": 0, "duration": 86}, {"note": 58, "velocity": 112, "duration": 81}, {"note": 0, "velocity": 0, "duration": 79}, {"note": 58, "velocity": 99, "duration": 209}, {"note": 0, "velocity": 0, "duration": 111}, {"note": 56, "velocity": 95, "duration": 170}, {"note": 58, "velocity": 97, "duration": 435}, {"note": 0, "velocity": 0, "duration": 365}, {"note": 56, "velocity": 95, "duration": 56}, {"note": 0, "velocity": 0, "duration": 104}, {"note": 59, "velocity": 107, "duration": 86}, {"note": 58, "velocity": 96, "duration": 90}, {"note": 0, "velocity": 0, "duration": 70}, {"note": 59, "velocity": 122, "duration": 100}, {"note": 56, "velocity": 95, "duration": 129}, {"note": 59, "velocity": 127, "duration": 93}, {"note": 0, "velocity": 0, "duration": 67}, {"note": 59, "velocity": 117, "duration": 116}, {"note": 56, "velocity": 97, "duration": 134}, {"note": 59, "velocity": 112, "duration": 109}, {"note": 61, "velocity": 122, "duration": 62}, {"note": 0, "velocity": 0, "duration": 98}, {"note": 61, "velocity": 122, "duration": 342}, {"note": 0, "velocity": 0, "duration": 138}, {"note": 58, "velocity": 117, "duration": 69}, {"note": 56, "velocity": 79, "duration": 70}, {"note": 0, "velocity": 0, "duration": 90}, {"note": 58, "velocity": 100, "duration": 72}, {"note": 0, "velocity": 0, "duration": 88}, {"note": 58, "velocity": 107, "duration": 56}, {"note": 0, "velocity": 0, "duration": 104}, {"note": 56, "velocity": 99, "duration": 51}, {"note": 0, "velocity": 0, "duration": 109}, {"note": 58, "velocity": 117, "duration": 86}, {"note": 0, "velocity": 0, "duration": 74}, {"note": 58, "velocity": 122, "duration": 74}, {"note": 0, "velocity": 0, "duration": 86}, {"note": 56, "velocity": 96, "duration": 134}, {"note": 58, "velocity": 117, "duration": 85}, {"note": 0, "velocity": 0, "duration": 75}, {"note": 59, "velocity": 127, "duration": 41}, {"note": 0, "velocity": 0, "duration": 119}, {"note": 58, "velocity": 107, "duration": 160}, {"note": 56, "velocity": 85, "duration": 122}, {"note": 0, "velocity": 0, "duration": 198}, {"note": 59, "velocity": 127, "duration": 34}, {"note": 0, "velocity": 0, "duration": 126}, {"note": 58, "velocity": 117, "duration": 103}, {"note": 58, "velocity": 100, "duration": 76}, {"note": 0, "velocity": 0, "duration": 84}, {"note": 56, "velocity": 93, "duration": 99}, {"note": 0, "velocity": 0, "duration": 61}, {"note": 58, "velocity": 127, "duration": 122}, {"note": 0, "velocity": 0, "duration": 198}, {"note": 59, "velocity": 99, "duration": 106}, {"note": 61, "velocity": 102, "duration": 198}, {"note": 0, "velocity": 0, "duration": 122}, {"note": 59, "velocity": 117, "duration": 45}, {"note": 0, "velocity": 0, "duration": 115}, {"note": 58, "velocity": 107, "duration": 132}, {"note": 56, "velocity": 95, "duration": 60}, {"note": 0, "velocity": 0, "duration": 100}, {"note": 56, "velocity": 100, "duration": 48}, {"note": 0, "velocity": 0, "duration": 112}, {"note": 58, "velocity": 117, "duration": 369}, {"note": 0, "velocity": 0, "duration": 431}, {"note": 56, "velocity": 93, "duration": 146}, {"note": 55, "velocity": 93, "duration": 545}, {"note": 0, "velocity": 0, "duration": 415}, {"note": 51, "velocity": 90, "duration": 152}, {"note": 56, "velocity": 93, "duration": 115}, {"note": 56, "velocity": 97, "duration": 91}, {"note": 0, "velocity": 0, "duration": 69}, {"note": 56, "velocity": 107, "duration": 150}, {"note": 58, "velocity": 107, "duration": 176}, {"note": 59, "velocity": 107, "duration": 117}, {"note": 59, "velocity": 127, "duration": 309}, {"note": 0, "velocity": 0, "duration": 171}, {"note": 59, "velocity": 127, "duration": 151}, {"note": 58, "velocity": 99, "duration": 146}, {"note": 56, "velocity": 99, "duration": 142}, {"note": 52, "velocity": 117, "duration": 164}, {"note": 56, "velocity": 97, "duration": 87}, {"note": 0, "velocity": 0, "duration": 73}, {"note": 56, "velocity": 97, "duration": 86}, {"note": 0, "velocity": 0, "duration": 74}, {"note": 56, "velocity": 99, "duration": 133}, {"note": 58, "velocity": 107, "duration": 145}, {"note": 59, "velocity": 102, "duration": 115}, {"note": 59, "velocity": 117, "duration": 960}, {"note": 54, "velocity": 95, "duration": 159}, {"note": 58, "velocity": 83, "duration": 108}, {"note": 58, "velocity": 78, "duration": 94}, {"note": 0, "velocity": 0, "duration": 66}, {"note": 58, "velocity": 96, "duration": 146}, {"note": 59, "velocity": 112, "duration": 145}, {"note": 61, "velocity": 97, "duration": 114}, {"note": 61, "velocity": 117, "duration": 274}, {"note": 63, "velocity": 97, "duration": 124}, {"note": 64, "velocity": 122, "duration": 142}, {"note": 61, "velocity": 96, "duration": 113}, {"note": 61, "velocity": 96, "duration": 120}, {"note": 63, "velocity": 107, "duration": 387}, {"note": 0, "velocity": 0, "duration": 1373}, {"note": 61, "velocity": 100, "duration": 54}, {"note": 63, "velocity": 96, "duration": 67}, {"note": 64, "velocity": 122, "duration": 156}, {"note": 64, "velocity": 122, "duration": 72}, {"note": 0, "velocity": 0, "duration": 88}, {"note": 63, "velocity": 122, "duration": 85}, {"note": 0, "velocity": 0, "duration": 75}, {"note": 64, "velocity": 127, "duration": 206}, {"note": 0, "velocity": 0, "duration": 114}, {"note": 63, "velocity": 127, "duration": 132}, {"note": 61, "velocity": 100, "duration": 388}, {"note": 0, "velocity": 0, "duration": 412}, {"note": 59, "velocity": 122, "duration": 66}, {"note": 61, "velocity": 96, "duration": 72}, {"note": 63, "velocity": 122, "duration": 84}, {"note": 0, "velocity": 0, "duration": 76}, {"note": 63, "velocity": 127, "duration": 83}, {"note": 0, "velocity": 0, "duration": 77}, {"note": 61, "velocity": 97, "duration": 83}, {"note": 0, "velocity": 0, "duration": 77}, {"note": 63, "velocity": 127, "duration": 147}, {"note": 0, "velocity": 0, "duration": 173}, {"note": 61, "velocity": 99, "duration": 73}, {"note": 0, "velocity": 0, "duration": 87}, {"note": 61, "velocity": 117, "duration": 169}, {"note": 59, "velocity": 122, "duration": 444}, {"note": 0, "velocity": 0, "duration": 196}, {"note": 59, "velocity": 122, "duration": 154}, {"note": 58, "velocity": 99, "duration": 99}, {"note": 0, "velocity": 0, "duration": 61}, {"note": 58, "velocity": 107, "duration": 97}, {"note": 0, "velocity": 0, "duration": 63}, {"note": 56, "velocity": 93, "duration": 130}, {"note": 58, "velocity": 112, "duration": 158}, {"note": 0, "velocity": 0, "duration": 162}, {"note": 59, "velocity": 127, "duration": 59}, {"note": 0, "velocity": 0, "duration": 101}, {"note": 61, "velocity": 122, "duration": 200}, {"note": 0, "velocity": 0, "duration": 120}, {"note": 59, "velocity": 127, "duration": 118}, {"note": 58, "velocity": 127, "duration": 159}, {"note": 61, "velocity": 127, "duration": 122}, {"note": 63, "velocity": 112, "duration": 88}, {"note": 0, "velocity": 0, "duration": 72}, {"note": 63, "velocity": 122, "duration": 945}, {"note": 0, "velocity": 0, "duration": 495}, {"note": 56, "velocity": 112, "duration": 108}, {"note": 68, "velocity": 102, "duration": 117}, {"note": 63, "velocity": 112, "duration": 134}, {"note": 64, "velocity": 127, "duration": 103}, {"note": 64, "velocity": 122, "duration": 86}, {"note": 0, "velocity": 0, "duration": 74}, {"note": 63, "velocity": 112, "duration": 80}, {"note": 0, "velocity": 0, "duration": 80}, {"note": 64, "velocity": 127, "duration": 83}, {"note": 0, "velocity": 0, "duration": 237}, {"note": 63, "velocity": 122, "duration": 68}, {"note": 0, "velocity": 0, "duration": 92}, {"note": 64, "velocity": 127, "duration": 259}, {"note": 0, "velocity": 0, "duration": 221}, {"note": 54, "velocity": 112, "duration": 71}, {"note": 0, "velocity": 0, "duration": 89}, {"note": 66, "velocity": 107, "duration": 83}, {"note": 0, "velocity": 0, "duration": 77}, {"note": 61, "velocity": 112, "duration": 90}, {"note": 0, "velocity": 0, "duration": 70}, {"note": 64, "velocity": 127, "duration": 126}, {"note": 63, "velocity": 102, "duration": 64}, {"note": 0, "velocity": 0, "duration": 96}, {"note": 63, "velocity": 112, "duration": 69}, {"note": 0, "velocity": 0, "duration": 91}, {"note": 63, "velocity": 127, "duration": 92}, {"note": 0, "velocity": 0, "duration": 228}, {"note": 61, "velocity": 102, "duration": 132}, {"note": 63, "velocity": 117, "duration": 108}, {"note": 63, "velocity": 112, "duration": 227}, {"note": 0, "velocity": 0, "duration": 93}, {"note": 64, "velocity": 122, "duration": 97}, {"note": 0, "velocity": 0, "duration": 63}, {"note": 63, "velocity": 107, "duration": 83}, {"note": 0, "velocity": 0, "duration": 77}, {"note": 59, "velocity": 127, "duration": 100}, {"note": 61, "velocity": 112, "duration": 137}, {"note": 0, "velocity": 0, "duration": 343}, {"note": 64, "velocity": 127, "duration": 109}, {"note": 63, "velocity": 112, "duration": 129}, {"note": 59, "velocity": 102, "duration": 142}, {"note": 58, "velocity": 122, "duration": 151}, {"note": 0, "velocity": 0, "duration": 329}, {"note": 56, "velocity": 99, "duration": 86}, {"note": 0, "velocity": 0, "duration": 74}, {"note": 58, "velocity": 117, "duration": 84}, {"note": 0, "velocity": 0, "duration": 76}, {"note": 59, "velocity": 127, "duration": 77}, {"note": 0, "velocity": 0, "duration": 83}, {"note": 61, "velocity": 127, "duration": 190}, {"note": 0, "velocity": 0, "duration": 130}, {"note": 59, "velocity": 117, "duration": 120}, {"note": 61, "velocity": 102, "duration": 252}, {"note": 0, "velocity": 0, "duration": 68}, {"note": 63, "velocity": 127, "duration": 113}, {"note": 63, "velocity": 127, "duration": 287}, {"note": 0, "velocity": 0, "duration": 193}, {"note": 56, "velocity": 112, "duration": 108}, {"note": 68, "velocity": 102, "duration": 117}, {"note": 63, "velocity": 112, "duration": 134}, {"note": 64, "velocity": 127, "duration": 103}, {"note": 64, "velocity": 122, "duration": 86}, {"note": 0, "velocity": 0, "duration": 74}, {"note": 63, "velocity": 112, "duration": 80}, {"note": 0, "velocity": 0, "duration": 80}, {"note": 64, "velocity": 127, "duration": 83}, {"note": 0, "velocity": 0, "duration": 237}, {"note": 63, "velocity": 122, "duration": 68}, {"note": 0, "velocity": 0, "duration": 92}, {"note": 64, "velocity": 127, "duration": 259}, {"note": 0, "velocity": 0, "duration": 221}, {"note": 71, "velocity": 127, "duration": 113}, {"note": 70, "velocity": 117, "duration": 111}, {"note": 68, "velocity": 127, "duration": 146}, {"note": 64, "velocity": 127, "duration": 126}, {"note": 63, "velocity": 102, "duration": 64}, {"note": 0, "velocity": 0, "duration": 96}, {"note": 63, "velocity": 112, "duration": 69}, {"note": 0, "velocity": 0, "duration": 91}, {"note": 63, "velocity": 127, "duration": 92}, {"note": 0, "velocity": 0, "duration": 68}, {"note": 63, "velocity": 107, "duration": 120}, {"note": 70, "velocity": 127, "duration": 124}, {"note": 68, "velocity": 102, "duration": 382}, {"note": 0, "velocity": 0, "duration": 95}, {"note": 64, "velocity": 122, "duration": 97}, {"note": 0, "velocity": 0, "duration": 63}, {"note": 63, "velocity": 107, "duration": 83}, {"note": 0, "velocity": 0, "duration": 77}, {"note": 59, "velocity": 127, "duration": 100}, {"note": 61, "velocity": 112, "duration": 137}, {"note": 0, "velocity": 0, "duration": 343}, {"note": 64, "velocity": 127, "duration": 109}, {"note": 63, "velocity": 112, "duration": 129}, {"note": 59, "velocity": 102, "duration": 142}, {"note": 58, "velocity": 122, "duration": 151}, {"note": 0, "velocity": 0, "duration": 329}, {"note": 59, "velocity": 127, "duration": 66}, {"note": 0, "velocity": 0, "duration": 94}, {"note": 59, "velocity": 122, "duration": 106}, {"note": 58, "velocity": 107, "duration": 83}, {"note": 0, "velocity": 0, "duration": 77}, {"note": 58, "velocity": 117, "duration": 645}, {"note": 0, "velocity": 0, "duration": 155}, {"note": 56, "velocity": 82, "duration": 132}, {"note": 56, "velocity": 95, "duration": 654}, {"note": 0, "velocity": 0, "duration": 306}, {"note": 51, "velocity": 90, "duration": 152}, {"note": 56, "velocity": 93, "duration": 115}, {"note": 56, "velocity": 97, "duration": 91}, {"note": 0, "velocity": 0, "duration": 69}, {"note": 56, "velocity": 107, "duration": 150}, {"note": 58, "velocity": 107, "duration": 176}, {"note": 59, "velocity": 107, "duration": 117}, {"note": 59, "velocity": 127, "duration": 309}, {"note": 0, "velocity": 0, "duration": 171}, {"note": 59, "velocity": 127, "duration": 151}, {"note": 58, "velocity": 99, "duration": 146}, {"note": 56, "velocity": 99, "duration": 142}, {"note": 52, "velocity": 117, "duration": 164}, {"note": 56, "velocity": 97, "duration": 87}, {"note": 0, "velocity": 0, "duration": 73}, {"note": 56, "velocity": 97, "duration": 86}, {"note": 0, "velocity": 0, "duration": 74}, {"note": 56, "velocity": 99, "duration": 133}, {"note": 58, "velocity": 107, "duration": 145}, {"note": 59, "velocity": 102, "duration": 115}, {"note": 59, "velocity": 117, "duration": 960}, {"note": 54, "velocity": 95, "duration": 159}, {"note": 58, "velocity": 83, "duration": 108}, {"note": 58, "velocity": 78, "duration": 94}, {"note": 0, "velocity": 0, "duration": 66}, {"note": 58, "velocity": 96, "duration": 146}, {"note": 59, "velocity": 112, "duration": 145}, {"note": 61, "velocity": 97, "duration": 114}, {"note": 61, "velocity": 117, "duration": 274}, {"note": 0, "velocity": 0, "duration": 206}, {"note": 64, "velocity": 122, "duration": 142}, {"note": 61, "velocity": 96, "duration": 113}, {"note": 61, "velocity": 96, "duration": 120}, {"note": 63, "velocity": 107, "duration": 674}, {"note": 0, "velocity": 0, "duration": 126}, {"note": 61, "velocity": 90, "duration": 73}, {"note": 59, "velocity": 82, "duration": 77}, {"note": 61, "velocity": 90, "duration": 75}, {"note": 59, "velocity": 97, "duration": 461}, {"note": 0, "velocity": 0, "duration": 259}, {"note": 61, "velocity": 100, "duration": 54}, {"note": 63, "velocity": 96, "duration": 67}, {"note": 64, "velocity": 122, "duration": 156}, {"note": 64, "velocity": 122, "duration": 72}, {"note": 0, "velocity": 0, "duration": 88}, {"note": 63, "velocity": 122, "duration": 85}, {"note": 0, "velocity": 0, "duration": 75}, {"note": 64, "velocity": 127, "duration": 206}, {"note": 0, "velocity": 0, "duration": 114}, {"note": 63, "velocity": 127, "duration": 132}, {"note": 61, "velocity": 100, "duration": 388}, {"note": 0, "velocity": 0, "duration": 412}, {"note": 59, "velocity": 122, "duration": 66}, {"note": 61, "velocity": 96, "duration": 72}, {"note": 63, "velocity": 122, "duration": 84}, {"note": 0, "velocity": 0, "duration": 86}, {"note": 63, "velocity": 127, "duration": 83}, {"note": 0, "velocity": 0, "duration": 77}, {"note": 61, "velocity": 97, "duration": 83}, {"note": 0, "velocity": 0, "duration": 77}, {"note": 63, "velocity": 127, "duration": 147}, {"note": 0, "velocity": 0, "duration": 173}, {"note": 61, "velocity": 99, "duration": 73}, {"note": 0, "velocity": 0, "duration": 87}, {"note": 61, "velocity": 117, "duration": 169}, {"note": 59, "velocity": 122, "duration": 444}, {"note": 0, "velocity": 0, "duration": 196}, {"note": 59, "velocity": 122, "duration": 154}, {"note": 58, "velocity": 99, "duration": 99}, {"note": 0, "velocity": 0, "duration": 61}, {"note": 58, "velocity": 107, "duration": 97}, {"note": 0, "velocity": 0, "duration": 63}, {"note": 56, "velocity": 93, "duration": 130}, {"note": 58, "velocity": 112, "duration": 158}, {"note": 0, "velocity": 0, "duration": 162}, {"note": 59, "velocity": 127, "duration": 59}, {"note": 0, "velocity": 0, "duration": 101}, {"note": 61, "velocity": 122, "duration": 200}, {"note": 0, "velocity": 0, "duration": 120}, {"note": 59, "velocity": 127, "duration": 118}, {"note": 58, "velocity": 127, "duration": 159}, {"note": 61, "velocity": 127, "duration": 122}, {"note": 63, "velocity": 112, "duration": 88}, {"note": 0, "velocity": 0, "duration": 72}, {"note": 63, "velocity": 122, "duration": 480}, {"note": 0, "velocity": 0, "duration": 320}, {"note": 64, "velocity": 112, "duration": 103}, {"note": 64, "velocity": 127, "duration": 136}, {"note": 63, "velocity": 96, "duration": 222}, {"note": 0, "velocity": 0, "duration": 98}, {"note": 56, "velocity": 112, "duration": 108}, {"note": 68, "velocity": 102, "duration": 117}, {"note": 63, "velocity": 112, "duration": 134}, {"note": 64, "velocity": 127, "duration": 103}, {"note": 64, "velocity": 122, "duration": 86}, {"note": 0, "velocity": 0, "duration": 74}, {"note": 63, "velocity": 112, "duration": 80}, {"note": 0, "velocity": 0, "duration": 80}, {"note": 64, "velocity": 127, "duration": 83}, {"note": 0, "velocity": 0, "duration": 237}, {"note": 63, "velocity": 122, "duration": 68}, {"note": 0, "velocity": 0, "duration": 92}, {"note": 64, "velocity": 127, "duration": 259}, {"note": 0, "velocity": 0, "duration": 221}, {"note": 54, "velocity": 112, "duration": 71}, {"note": 0, "velocity": 0, "duration": 89}, {"note": 66, "velocity": 107, "duration": 83}, {"note": 0, "velocity": 0, "duration": 77}, {"note": 61, "velocity": 112, "duration": 90}, {"note": 0, "velocity": 0, "duration": 70}, {"note": 64, "velocity": 127, "duration": 126}, {"note": 63, "velocity": 102, "duration": 64}, {"note": 0, "velocity": 0, "duration": 96}, {"note": 63, "velocity": 112, "duration": 69}, {"note": 0, "velocity": 0, "duration": 91}, {"note": 63, "velocity": 127, "duration": 92}, {"note": 0, "velocity": 0, "duration": 228}, {"note": 61, "velocity": 102, "duration": 132}, {"note": 63, "velocity": 117, "duration": 108}, {"note": 63, "velocity": 112, "duration": 227}, {"note": 0, "velocity": 0, "duration": 93}, {"note": 64, "velocity": 122, "duration": 97}, {"note": 0, "velocity": 0, "duration": 63}, {"note": 63, "velocity": 107, "duration": 83}, {"note": 0, "velocity": 0, "duration": 77}, {"note": 59, "velocity": 127, "duration": 100}, {"note": 61, "velocity": 112, "duration": 137}, {"note": 0, "velocity": 0, "duration": 343}, {"note": 64, "velocity": 127, "duration": 109}, {"note": 63, "velocity": 112, "duration": 129}, {"note": 59, "velocity": 102, "duration": 142}, {"note": 58, "velocity": 122, "duration": 151}, {"note": 0, "velocity": 0, "duration": 329}, {"note": 56, "velocity": 99, "duration": 86}, {"note": 0, "velocity": 0, "duration": 74}, {"note": 58, "velocity": 117, "duration": 84}, {"note": 0, "velocity": 0, "duration": 76}, {"note": 59, "velocity": 127, "duration": 77}, {"note": 0, "velocity": 0, "duration": 83}, {"note": 61, "velocity": 127, "duration": 190}, {"note": 0, "velocity": 0, "duration": 130}, {"note": 59, "velocity": 117, "duration": 120}, {"note": 61, "velocity": 102, "duration": 252}, {"note": 0, "velocity": 0, "duration": 68}, {"note": 63, "velocity": 127, "duration": 113}, {"note": 63, "velocity": 127, "duration": 287}, {"note": 0, "velocity": 0, "duration": 193}, {"note": 56, "velocity": 112, "duration": 108}, {"note": 68, "velocity": 102, "duration": 117}, {"note": 63, "velocity": 112, "duration": 134}, {"note": 64, "velocity": 127, "duration": 103}, {"note": 64, "velocity": 122, "duration": 86}, {"note": 0, "velocity": 0, "duration": 74}, {"note": 63, "velocity": 112, "duration": 80}, {"note": 0, "velocity": 0, "duration": 80}, {"note": 64, "velocity": 127, "duration": 83}, {"note": 0, "velocity": 0, "duration": 237}, {"note": 63, "velocity": 122, "duration": 68}, {"note": 0, "velocity": 0, "duration": 92}, {"note": 64, "velocity": 127, "duration": 259}, {"note": 0, "velocity": 0, "duration": 221}, {"note": 71, "velocity": 127, "duration": 113}, {"note": 70, "velocity": 117, "duration": 111}, {"note": 68, "velocity": 127, "duration": 146}, {"note": 64, "velocity": 127, "duration": 126}, {"note": 63, "velocity": 102, "duration": 64}, {"note": 0, "velocity": 0, "duration": 96}, {"note": 63, "velocity": 112, "duration": 69}, {"note": 0, "velocity": 0, "duration": 91}, {"note": 63, "velocity": 127, "duration": 92}, {"note": 0, "velocity": 0, "duration": 68}, {"note": 63, "velocity": 107, "duration": 120}, {"note": 70, "velocity": 127, "duration": 124}, {"note": 68, "velocity": 102, "duration": 382}, {"note": 0, "velocity": 0, "duration": 98}, {"note": 64, "velocity": 122, "duration": 97}, {"note": 0, "velocity": 0, "duration": 63}, {"note": 63, "velocity": 107, "duration": 83}, {"note": 0, "velocity": 0, "duration": 77}, {"note": 59, "velocity": 127, "duration": 100}, {"note": 61, "velocity": 112, "duration": 137}, {"note": 0, "velocity": 0, "duration": 343}, {"note": 64, "velocity": 127, "duration": 109}, {"note": 63, "velocity": 112, "duration": 129}, {"note": 59, "velocity": 102, "duration": 142}, {"note": 58, "velocity": 122, "duration": 151}, {"note": 0, "velocity": 0, "duration": 329}, {"note": 59, "velocity": 127, "duration": 66}, {"note": 0, "velocity": 0, "duration": 94}, {"note": 59, "velocity": 122, "duration": 106}, {"note": 58, "velocity": 107, "duration": 83}, {"note": 0, "velocity": 0, "duration": 77}, {"note": 58, "velocity": 117, "duration": 645}, {"note": 0, "velocity": 0, "duration": 155}, {"note": 56, "velocity": 82, "duration": 132}, {"note": 56, "velocity": 95, "duration": 654}, {"note": 0, "velocity": 0, "duration": 7520}, {"note": 63, "velocity": 122, "duration": 419}, {"note": 64, "velocity": 127, "duration": 103}, {"note": 64, "velocity": 122, "duration": 86}, {"note": 0, "velocity": 0, "duration": 74}, {"note": 63, "velocity": 112, "duration": 80}, {"note": 0, "velocity": 0, "duration": 80}, {"note": 64, "velocity": 127, "duration": 83}, {"note": 0, "velocity": 0, "duration": 237}, {"note": 63, "velocity": 122, "duration": 68}, {"note": 0, "velocity": 0, "duration": 92}, {"note": 64, "velocity": 127, "duration": 259}, {"note": 0, "velocity": 0, "duration": 221}, {"note": 54, "velocity": 112, "duration": 71}, {"note": 0, "velocity": 0, "duration": 89}, {"note": 66, "velocity": 107, "duration": 83}, {"note": 0, "velocity": 0, "duration": 77}, {"note": 61, "velocity": 112, "duration": 90}, {"note": 0, "velocity": 0, "duration": 70}, {"note": 64, "velocity": 127, "duration": 126}, {"note": 63, "velocity": 102, "duration": 64}, {"note": 0, "velocity": 0, "duration": 96}, {"note": 63, "velocity": 112, "duration": 69}, {"note": 0, "velocity": 0, "duration": 91}, {"note": 63, "velocity": 127, "duration": 92}, {"note": 0, "velocity": 0, "duration": 228}, {"note": 61, "velocity": 102, "duration": 132}, {"note": 63, "velocity": 117, "duration": 108}, {"note": 63, "velocity": 112, "duration": 227}, {"note": 0, "velocity": 0, "duration": 93}, {"note": 64, "velocity": 122, "duration": 97}, {"note": 0, "velocity": 0, "duration": 63}, {"note": 63, "velocity": 107, "duration": 83}, {"note": 0, "velocity": 0, "duration": 77}, {"note": 59, "velocity": 127, "duration": 100}, {"note": 61, "velocity": 112, "duration": 137}, {"note": 0, "velocity": 0, "duration": 343}, {"note": 64, "velocity": 127, "duration": 109}, {"note": 63, "velocity": 112, "duration": 129}, {"note": 59, "velocity": 102, "duration": 142}, {"note": 58, "velocity": 122, "duration": 151}, {"note": 0, "velocity": 0, "duration": 329}, {"note": 56, "velocity": 99, "duration": 86}, {"note": 0, "velocity": 0, "duration": 74}, {"note": 58, "velocity": 117, "duration": 84}, {"note": 0, "velocity": 0, "duration": 76}, {"note": 59, "velocity": 127, "duration": 77}, {"note": 0, "velocity": 0, "duration": 83}, {"note": 61, "velocity": 127, "duration": 190}, {"note": 0, "velocity": 0, "duration": 130}, {"note": 59, "velocity": 117, "duration": 120}, {"note": 61, "velocity": 102, "duration": 252}, {"note": 0, "velocity": 0, "duration": 68}, {"note": 63, "velocity": 127, "duration": 113}, {"note": 63, "velocity": 127, "duration": 287}, {"note": 0, "velocity": 0, "duration": 193}, {"note": 56, "velocity": 112, "duration": 108}, {"note": 68, "velocity": 102, "duration": 117}, {"note": 63, "velocity": 112, "duration": 134}, {"note": 64, "velocity": 127, "duration": 103}, {"note": 64, "velocity": 122, "duration": 86}, {"note": 0, "velocity": 0, "duration": 74}, {"note": 63, "velocity": 112, "duration": 80}, {"note": 0, "velocity": 0, "duration": 80}, {"note": 64, "velocity": 127, "duration": 83}, {"note": 0, "velocity": 0, "duration": 237}, {"note": 63, "velocity": 122, "duration": 68}, {"note": 0, "velocity": 0, "duration": 92}, {"note": 64, "velocity": 127, "duration": 259}, {"note": 0, "velocity": 0, "duration": 221}, {"note": 71, "velocity": 127, "duration": 113}, {"note": 70, "velocity": 117, "duration": 111}, {"note": 68, "velocity": 127, "duration": 146}, {"note": 64, "velocity": 127, "duration": 126}, {"note": 63, "velocity": 102, "duration": 64}, {"note": 0, "velocity": 0, "duration": 96}, {"note": 63, "velocity": 112, "duration": 69}, {"note": 0, "velocity": 0, "duration": 91}, {"note": 63, "velocity": 127, "duration": 92}, {"note": 0, "velocity": 0, "duration": 68}, {"note": 63, "velocity": 107, "duration": 120}, {"note": 70, "velocity": 127, "duration": 124}, {"note": 68, "velocity": 102, "duration": 382}, {"note": 0, "velocity": 0, "duration": 98}, {"note": 64, "velocity": 122, "duration": 97}, {"note": 0, "velocity": 0, "duration": 63}, {"note": 63, "velocity": 107, "duration": 83}, {"note": 0, "velocity": 0, "duration": 77}, {"note": 59, "velocity": 127, "duration": 100}, {"note": 61, "velocity": 112, "duration": 137}, {"note": 0, "velocity": 0, "duration": 343}, {"note": 64, "velocity": 127, "duration": 109}, {"note": 63, "velocity": 112, "duration": 129}, {"note": 59, "velocity": 102, "duration": 142}, {"note": 58, "velocity": 122, "duration": 151}, {"note": 0, "velocity": 0, "duration": 329}, {"note": 59, "velocity": 127, "duration": 66}, {"note": 0, "velocity": 0, "duration": 94}, {"note": 59, "velocity": 122, "duration": 106}, {"note": 58, "velocity": 107, "duration": 83}, {"note": 0, "velocity": 0, "duration": 77}, {"note": 58, "velocity": 117, "duration": 645}, {"note": 0, "velocity": 0, "duration": 155}, {"note": 56, "velocity": 82, "duration": 132}, {"note": 56, "velocity": 95, "duration": 654}, {"note": 0, "velocity": 0, "duration": 1259}, {"note": 63, "velocity": 97, "duration": 152}, {"note": 68, "velocity": 85, "duration": 111}, {"note": 68, "velocity": 83, "duration": 99}, {"note": 68, "velocity": 95, "duration": 175}, {"note": 70, "velocity": 100, "duration": 172}, {"note": 71, "velocity": 102, "duration": 103}, {"note": 71, "velocity": 117, "duration": 428}, {"note": 71, "velocity": 127, "duration": 114}, {"note": 70, "velocity": 100, "duration": 141}, {"note": 68, "velocity": 92, "duration": 140}, {"note": 64, "velocity": 102, "duration": 140}, {"note": 68, "velocity": 95, "duration": 114}, {"note": 68, "velocity": 100, "duration": 111}, {"note": 68, "velocity": 107, "duration": 169}, {"note": 70, "velocity": 107, "duration": 144}, {"note": 71, "velocity": 100, "duration": 110}, {"note": 0, "velocity": 0, "duration": 61}, {"note": 71, "velocity": 122, "duration": 647}, {"note": 0, "velocity": 0, "duration": 305}, {"note": 66, "velocity": 99, "duration": 159}, {"note": 70, "velocity": 93, "duration": 110}, {"note": 70, "velocity": 95, "duration": 97}, {"note": 0, "velocity": 0, "duration": 65}, {"note": 70, "velocity": 112, "duration": 136}, {"note": 71, "velocity": 107, "duration": 117}, {"note": 73, "velocity": 107, "duration": 98}, {"note": 0, "velocity": 0, "duration": 64}, {"note": 73, "velocity": 117, "duration": 332}, {"note": 0, "velocity": 0, "duration": 134}, {"note": 73, "velocity": 112, "duration": 80}, {"note": 0, "velocity": 0, "duration": 101}, {"note": 71, "velocity": 102, "duration": 103}, {"note": 73, "velocity": 97, "duration": 121}, {"note": 70, "velocity": 100, "duration": 105}, {"note": 70, "velocity": 96, "duration": 89}, {"note": 0, "velocity": 0, "duration": 72}, {"note": 70, "velocity": 99, "duration": 83}, {"note": 0, "velocity": 0, "duration": 86}, {"note": 70, "velocity": 117, "duration": 272}, {"note": 68, "velocity": 100, "duration": 82}, {"note": 0, "velocity": 0, "duration": 157}, {"note": 70, "velocity": 122, "duration": 1090}]]