[[{"note": 66, "velocity": 100, "duration": 72}, {"note": 66, "velocity": 96, "duration": 70}, {"note": 66, "velocity": 102, "duration": 214}, {"note": 64, "velocity": 86, "duration": 87}, {"note": 66, "velocity": 86, "duration": 69}, {"note": 66, "velocity": 117, "duration": 160}, {"note": 0, "velocity": 0, "duration": 80}, {"note": 64, "velocity": 93, "duration": 87}, {"note": 66, "velocity": 99, "duration": 111}, {"note": 0, "velocity": 0, "duration": 129}, {"note": 71, "velocity": 95, "duration": 329}, {"note": 0, "velocity": 0, "duration": 271}, {"note": 62, "velocity": 97, "duration": 112}, {"note": 64, "velocity": 69, "duration": 78}, {"note": 64, "velocity": 99, "duration": 155}, {"note": 0, "velocity": 0, "duration": 85}, {"note": 62, "velocity": 86, "duration": 89}, {"note": 64, "velocity": 74, "duration": 74}, {"note": 64, "velocity": 89, "duration": 230}, {"note": 62, "velocity": 93, "duration": 100}, {"note": 64, "velocity": 96, "duration": 184}, {"note": 69, "velocity": 96, "duration": 531}, {"note": 0, "velocity": 0, "duration": 69}, {"note": 62, "velocity": 93, "duration": 225}, {"note": 67, "velocity": 83, "duration": 175}, {"note": 0, "velocity": 0, "duration": 65}, {"note": 67, "velocity": 92, "duration": 62}, {"note": 67, "velocity": 92, "duration": 268}, {"note": 0, "velocity": 0, "duration": 92}, {"note": 66, "velocity": 88, "duration": 107}, {"note": 67, "velocity": 85, "duration": 206}, {"note": 0, "velocity": 0, "duration": 154}, {"note": 66, "velocity": 89, "duration": 67}, {"note": 66, "velocity": 88, "duration": 232}, {"note": 0, "velocity": 0, "duration": 128}, {"note": 64, "velocity": 82, "duration": 118}, {"note": 67, "velocity": 79, "duration": 140}, {"note": 66, "velocity": 56, "duration": 850}, {"note": 0, "velocity": 0, "duration": 830}, {"note": 64, "velocity": 96, "duration": 98}, {"note": 66, "velocity": 90, "duration": 74}, {"note": 66, "velocity": 102, "duration": 169}, {"note": 0, "velocity": 0, "duration": 71}, {"note": 64, "velocity": 86, "duration": 92}, {"note": 66, "velocity": 93, "duration": 58}, {"note": 0, "velocity": 0, "duration": 62}, {"note": 66, "velocity": 99, "duration": 156}, {"note": 0, "velocity": 0, "duration": 84}, {"note": 64, "velocity": 81, "duration": 104}, {"note": 66, "velocity": 97, "duration": 143}, {"note": 0, "velocity": 0, "duration": 97}, {"note": 71, "velocity": 99, "duration": 350}, {"note": 0, "velocity": 0, "duration": 250}, {"note": 71, "velocity": 97, "duration": 98}, {"note": 73, "velocity": 102, "duration": 44}, {"note": 0, "velocity": 0, "duration": 76}, {"note": 73, "velocity": 122, "duration": 139}, {"note": 0, "velocity": 0, "duration": 101}, {"note": 71, "velocity": 92, "duration": 67}, {"note": 73, "velocity": 107, "duration": 48}, {"note": 0, "velocity": 0, "duration": 72}, {"note": 73, "velocity": 117, "duration": 138}, {"note": 0, "velocity": 0, "duration": 102}, {"note": 76, "velocity": 112, "duration": 187}, {"note": 74, "velocity": 107, "duration": 406}, {"note": 0, "velocity": 0, "duration": 74}, {"note": 74, "velocity": 107, "duration": 98}, {"note": 76, "velocity": 97, "duration": 60}, {"note": 78, "velocity": 122, "duration": 113}, {"note": 0, "velocity": 0, "duration": 127}, {"note": 78, "velocity": 127, "duration": 155}, {"note": 0, "velocity": 0, "duration": 85}, {"note": 76, "velocity": 96, "duration": 48}, {"note": 0, "velocity": 0, "duration": 72}, {"note": 76, "velocity": 117, "duration": 144}, {"note": 0, "velocity": 0, "duration": 216}, {"note": 74, "velocity": 100, "duration": 58}, {"note": 0, "velocity": 0, "duration": 62}, {"note": 74, "velocity": 127, "duration": 185}, {"note": 0, "velocity": 0, "duration": 415}, {"note": 74, "velocity": 96, "duration": 128}, {"note": 76, "velocity": 93, "duration": 108}, {"note": 78, "velocity": 112, "duration": 138}, {"note": 0, "velocity": 0, "duration": 102}, {"note": 78, "velocity": 127, "duration": 180}, {"note": 76, "velocity": 85, "duration": 52}, {"note": 0, "velocity": 0, "duration": 68}, {"note": 76, "velocity": 112, "duration": 188}, {"note": 0, "velocity": 0, "duration": 172}, {"note": 74, "velocity": 107, "duration": 73}, {"note": 76, "velocity": 107, "duration": 182}, {"note": 0, "velocity": 0, "duration": 178}, {"note": 69, "velocity": 93, "duration": 143}, {"note": 0, "velocity": 0, "duration": 97}, {"note": 74, "velocity": 102, "duration": 127}, {"note": 0, "velocity": 0, "duration": 113}, {"note": 73, "velocity": 122, "duration": 78}, {"note": 74, "velocity": 117, "duration": 201}, {"note": 0, "velocity": 0, "duration": 159}, {"note": 73, "velocity": 117, "duration": 43}, {"note": 0, "velocity": 0, "duration": 77}, {"note": 74, "velocity": 102, "duration": 267}, {"note": 0, "velocity": 0, "duration": 93}, {"note": 74, "velocity": 96, "duration": 46}, {"note": 0, "velocity": 0, "duration": 74}, {"note": 73, "velocity": 100, "duration": 348}, {"note": 74, "velocity": 102, "duration": 32}, {"note": 0, "velocity": 0, "duration": 88}, {"note": 76, "velocity": 99, "duration": 211}, {"note": 0, "velocity": 0, "duration": 149}, {"note": 71, "velocity": 97, "duration": 59}, {"note": 0, "velocity": 0, "duration": 61}, {"note": 71, "velocity": 96, "duration": 320}, {"note": 69, "velocity": 86, "duration": 305}, {"note": 0, "velocity": 0, "duration": 655}, {"note": 69, "velocity": 96, "duration": 157}, {"note": 0, "velocity": 0, "duration": 83}, {"note": 74, "velocity": 102, "duration": 129}, {"note": 0, "velocity": 0, "duration": 111}, {"note": 76, "velocity": 122, "duration": 111}, {"note": 74, "velocity": 83, "duration": 131}, {"note": 78, "velocity": 112, "duration": 187}, {"note": 78, "velocity": 127, "duration": 49}, {"note": 0, "velocity": 0, "duration": 71}, {"note": 78, "velocity": 122, "duration": 205}, {"note": 0, "velocity": 0, "duration": 155}, {"note": 78, "velocity": 127, "duration": 44}, {"note": 0, "velocity": 0, "duration": 76}, {"note": 78, "velocity": 127, "duration": 169}, {"note": 0, "velocity": 0, "duration": 191}, {"note": 76, "velocity": 102, "duration": 48}, {"note": 0, "velocity": 0, "duration": 72}, {"note": 73, "velocity": 122, "duration": 263}, {"note": 0, "velocity": 0, "duration": 97}, {"note": 74, "velocity": 99, "duration": 143}, {"note": 0, "velocity": 0, "duration": 97}, {"note": 78, "velocity": 122, "duration": 960}, {"note": 0, "velocity": 0, "duration": 240}, {"note": 74, "velocity": 100, "duration": 144}, {"note": 0, "velocity": 0, "duration": 96}, {"note": 78, "velocity": 112, "duration": 152}, {"note": 0, "velocity": 0, "duration": 88}, {"note": 74, "velocity": 102, "duration": 145}, {"note": 0, "velocity": 0, "duration": 95}, {"note": 83, "velocity": 112, "duration": 361}, {"note": 0, "velocity": 0, "duration": 119}, {"note": 78, "velocity": 117, "duration": 135}, {"note": 0, "velocity": 0, "duration": 105}, {"note": 78, "velocity": 107, "duration": 225}, {"note": 76, "velocity": 95, "duration": 574}, {"note": 0, "velocity": 0, "duration": 266}, {"note": 74, "velocity": 90, "duration": 56}, {"note": 0, "velocity": 0, "duration": 64}, {"note": 73, "velocity": 112, "duration": 185}, {"note": 74, "velocity": 89, "duration": 63}, {"note": 76, "velocity": 112, "duration": 257}, {"note": 0, "velocity": 0, "duration": 103}, {"note": 69, "velocity": 100, "duration": 50}, {"note": 0, "velocity": 0, "duration": 70}, {"note": 74, "velocity": 107, "duration": 189}, {"note": 0, "velocity": 0, "duration": 771}, {"note": 69, "velocity": 95, "duration": 66}, {"note": 69, "velocity": 102, "duration": 150}, {"note": 0, "velocity": 0, "duration": 90}, {"note": 67, "velocity": 88, "duration": 54}, {"note": 0, "velocity": 0, "duration": 66}, {"note": 67, "velocity": 92, "duration": 127}, {"note": 0, "velocity": 0, "duration": 113}, {"note": 74, "velocity": 117, "duration": 202}, {"note": 0, "velocity": 0, "duration": 158}, {"note": 74, "velocity": 117, "duration": 124}, {"note": 0, "velocity": 0, "duration": 116}, {"note": 73, "velocity": 100, "duration": 70}, {"note": 74, "velocity": 107, "duration": 228}, {"note": 0, "velocity": 0, "duration": 132}, {"note": 76, "velocity": 112, "duration": 168}, {"note": 0, "velocity": 0, "duration": 72}, {"note": 76, "velocity": 127, "duration": 722}, {"note": 0, "velocity": 0, "duration": 478}, {"note": 69, "velocity": 93, "duration": 143}, {"note": 0, "velocity": 0, "duration": 97}, {"note": 74, "velocity": 102, "duration": 127}, {"note": 0, "velocity": 0, "duration": 113}, {"note": 73, "velocity": 122, "duration": 78}, {"note": 74, "velocity": 117, "duration": 201}, {"note": 0, "velocity": 0, "duration": 159}, {"note": 73, "velocity": 117, "duration": 43}, {"note": 0, "velocity": 0, "duration": 77}, {"note": 74, "velocity": 102, "duration": 267}, {"note": 0, "velocity": 0, "duration": 93}, {"note": 74, "velocity": 96, "duration": 46}, {"note": 0, "velocity": 0, "duration": 74}, {"note": 73, "velocity": 100, "duration": 348}, {"note": 74, "velocity": 102, "duration": 32}, {"note": 0, "velocity": 0, "duration": 88}, {"note": 76, "velocity": 99, "duration": 211}, {"note": 0, "velocity": 0, "duration": 149}, {"note": 71, "velocity": 97, "duration": 59}, {"note": 0, "velocity": 0, "duration": 61}, {"note": 71, "velocity": 96, "duration": 320}, {"note": 69, "velocity": 86, "duration": 305}, {"note": 0, "velocity": 0, "duration": 655}, {"note": 69, "velocity": 96, "duration": 157}, {"note": 0, "velocity": 0, "duration": 83}, {"note": 74, "velocity": 102, "duration": 129}, {"note": 0, "velocity": 0, "duration": 111}, {"note": 76, "velocity": 122, "duration": 111}, {"note": 74, "velocity": 83, "duration": 131}, {"note": 78, "velocity": 112, "duration": 187}, {"note": 78, "velocity": 127, "duration": 49}, {"note": 0, "velocity": 0, "duration": 71}, {"note": 78, "velocity": 122, "duration": 205}, {"note": 0, "velocity": 0, "duration": 155}, {"note": 78, "velocity": 127, "duration": 44}, {"note": 0, "velocity": 0, "duration": 76}, {"note": 78, "velocity": 127, "duration": 169}, {"note": 0, "velocity": 0, "duration": 191}, {"note": 76, "velocity": 102, "duration": 48}, {"note": 0, "velocity": 0, "duration": 72}, {"note": 78, "velocity": 112, "duration": 246}, {"note": 0, "velocity": 0, "duration": 114}, {"note": 79, "velocity": 117, "duration": 46}, {"note": 0, "velocity": 0, "duration": 74}, {"note": 79, "velocity": 127, "duration": 296}, {"note": 78, "velocity": 122, "duration": 820}, {"note": 0, "velocity": 0, "duration": 240}, {"note": 74, "velocity": 100, "duration": 144}, {"note": 0, "velocity": 0, "duration": 96}, {"note": 78, "velocity": 112, "duration": 152}, {"note": 0, "velocity": 0, "duration": 88}, {"note": 74, "velocity": 102, "duration": 145}, {"note": 0, "velocity": 0, "duration": 95}, {"note": 83, "velocity": 112, "duration": 361}, {"note": 0, "velocity": 0, "duration": 119}, {"note": 78, "velocity": 117, "duration": 135}, {"note": 0, "velocity": 0, "duration": 105}, {"note": 78, "velocity": 107, "duration": 225}, {"note": 76, "velocity": 95, "duration": 574}, {"note": 0, "velocity": 0, "duration": 266}, {"note": 74, "velocity": 90, "duration": 56}, {"note": 0, "velocity": 0, "duration": 64}, {"note": 73, "velocity": 112, "duration": 185}, {"note": 74, "velocity": 89, "duration": 63}, {"note": 76, "velocity": 112, "duration": 257}, {"note": 0, "velocity": 0, "duration": 103}, {"note": 69, "velocity": 100, "duration": 50}, {"note": 0, "velocity": 0, "duration": 70}, {"note": 74, "velocity": 107, "duration": 189}, {"note": 0, "velocity": 0, "duration": 771}, {"note": 69, "velocity": 95, "duration": 66}, {"note": 69, "velocity": 102, "duration": 150}, {"note": 0, "velocity": 0, "duration": 90}, {"note": 67, "velocity": 88, "duration": 54}, {"note": 0, "velocity": 0, "duration": 66}, {"note": 67, "velocity": 92, "duration": 127}, {"note": 0, "velocity": 0, "duration": 233}, {"note": 78, "velocity": 96, "duration": 59}, {"note": 0, "velocity": 0, "duration": 61}, {"note": 78, "velocity": 122, "duration": 223}, {"note": 0, "velocity": 0, "duration": 137}, {"note": 74, "velocity": 99, "duration": 73}, {"note": 73, "velocity": 112, "duration": 245}, {"note": 0, "velocity": 0, "duration": 115}, {"note": 74, "velocity": 100, "duration": 52}, {"note": 0, "velocity": 0, "duration": 68}, {"note": 76, "velocity": 117, "duration": 250}, {"note": 0, "velocity": 0, "duration": 110}, {"note": 74, "velocity": 107, "duration": 783}, {"note": 0, "velocity": 0, "duration": 8337}, {"note": 66, "velocity": 100, "duration": 72}, {"note": 66, "velocity": 96, "duration": 70}, {"note": 66, "velocity": 102, "duration": 214}, {"note": 64, "velocity": 86, "duration": 87}, {"note": 66, "velocity": 86, "duration": 69}, {"note": 66, "velocity": 117, "duration": 160}, {"note": 0, "velocity": 0, "duration": 80}, {"note": 64, "velocity": 93, "duration": 87}, {"note": 66, "velocity": 99, "duration": 111}, {"note": 0, "velocity": 0, "duration": 129}, {"note": 71, "velocity": 95, "duration": 329}, {"note": 0, "velocity": 0, "duration": 271}, {"note": 62, "velocity": 97, "duration": 112}, {"note": 64, "velocity": 69, "duration": 78}, {"note": 64, "velocity": 99, "duration": 155}, {"note": 0, "velocity": 0, "duration": 85}, {"note": 62, "velocity": 86, "duration": 89}, {"note": 64, "velocity": 74, "duration": 74}, {"note": 64, "velocity": 89, "duration": 230}, {"note": 62, "velocity": 93, "duration": 100}, {"note": 64, "velocity": 96, "duration": 184}, {"note": 69, "velocity": 96, "duration": 531}, {"note": 0, "velocity": 0, "duration": 69}, {"note": 62, "velocity": 93, "duration": 225}, {"note": 67, "velocity": 83, "duration": 175}, {"note": 0, "velocity": 0, "duration": 65}, {"note": 67, "velocity": 92, "duration": 62}, {"note": 67, "velocity": 92, "duration": 268}, {"note": 0, "velocity": 0, "duration": 92}, {"note": 66, "velocity": 88, "duration": 107}, {"note": 67, "velocity": 85, "duration": 206}, {"note": 0, "velocity": 0, "duration": 154}, {"note": 66, "velocity": 89, "duration": 67}, {"note": 66, "velocity": 88, "duration": 232}, {"note": 0, "velocity": 0, "duration": 128}, {"note": 64, "velocity": 82, "duration": 118}, {"note": 67, "velocity": 79, "duration": 140}, {"note": 66, "velocity": 56, "duration": 850}, {"note": 0, "velocity": 0, "duration": 830}, {"note": 64, "velocity": 96, "duration": 98}, {"note": 66, "velocity": 90, "duration": 74}, {"note": 66, "velocity": 102, "duration": 169}, {"note": 0, "velocity": 0, "duration": 71}, {"note": 64, "velocity": 86, "duration": 92}, {"note": 66, "velocity": 93, "duration": 58}, {"note": 0, "velocity": 0, "duration": 62}, {"note": 66, "velocity": 99, "duration": 156}, {"note": 0, "velocity": 0, "duration": 84}, {"note": 64, "velocity": 81, "duration": 104}, {"note": 66, "velocity": 97, "duration": 143}, {"note": 0, "velocity": 0, "duration": 97}, {"note": 71, "velocity": 99, "duration": 350}, {"note": 0, "velocity": 0, "duration": 250}, {"note": 71, "velocity": 97, "duration": 98}, {"note": 73, "velocity": 102, "duration": 44}, {"note": 0, "velocity": 0, "duration": 76}, {"note": 73, "velocity": 122, "duration": 139}, {"note": 0, "velocity": 0, "duration": 101}, {"note": 71, "velocity": 92, "duration": 67}, {"note": 73, "velocity": 107, "duration": 48}, {"note": 0, "velocity": 0, "duration": 72}, {"note": 73, "velocity": 117, "duration": 138}, {"note": 0, "velocity": 0, "duration": 102}, {"note": 76, "velocity": 112, "duration": 187}, {"note": 74, "velocity": 107, "duration": 406}, {"note": 0, "velocity": 0, "duration": 74}, {"note": 74, "velocity": 107, "duration": 98}, {"note": 76, "velocity": 97, "duration": 60}, {"note": 78, "velocity": 122, "duration": 113}, {"note": 0, "velocity": 0, "duration": 127}, {"note": 78, "velocity": 127, "duration": 155}, {"note": 0, "velocity": 0, "duration": 85}, {"note": 76, "velocity": 96, "duration": 48}, {"note": 0, "velocity": 0, "duration": 72}, {"note": 76, "velocity": 117, "duration": 144}, {"note": 0, "velocity": 0, "duration": 216}, {"note": 74, "velocity": 100, "duration": 58}, {"note": 0, "velocity": 0, "duration": 62}, {"note": 74, "velocity": 127, "duration": 185}, {"note": 0, "velocity": 0, "duration": 415}, {"note": 74, "velocity": 96, "duration": 128}, {"note": 76, "velocity": 93, "duration": 108}, {"note": 78, "velocity": 112, "duration": 138}, {"note": 0, "velocity": 0, "duration": 102}, {"note": 78, "velocity": 127, "duration": 180}, {"note": 76, "velocity": 85, "duration": 52}, {"note": 0, "velocity": 0, "duration": 68}, {"note": 76, "velocity": 112, "duration": 188}, {"note": 0, "velocity": 0, "duration": 172}, {"note": 74, "velocity": 107, "duration": 73}, {"note": 76, "velocity": 107, "duration": 182}, {"note": 0, "velocity": 0, "duration": 178}, {"note": 69, "velocity": 93, "duration": 143}, {"note": 0, "velocity": 0, "duration": 97}, {"note": 74, "velocity": 102, "duration": 127}, {"note": 0, "velocity": 0, "duration": 113}, {"note": 73, "velocity": 122, "duration": 78}, {"note": 74, "velocity": 117, "duration": 201}, {"note": 0, "velocity": 0, "duration": 159}, {"note": 73, "velocity": 117, "duration": 43}, {"note": 0, "velocity": 0, "duration": 77}, {"note": 74, "velocity": 102, "duration": 267}, {"note": 0, "velocity": 0, "duration": 93}, {"note": 74, "velocity": 96, "duration": 46}, {"note": 0, "velocity": 0, "duration": 74}, {"note": 73, "velocity": 100, "duration": 348}, {"note": 74, "velocity": 102, "duration": 32}, {"note": 0, "velocity": 0, "duration": 88}, {"note": 76, "velocity": 99, "duration": 211}, {"note": 0, "velocity": 0, "duration": 149}, {"note": 71, "velocity": 97, "duration": 59}, {"note": 0, "velocity": 0, "duration": 61}, {"note": 71, "velocity": 96, "duration": 320}, {"note": 69, "velocity": 86, "duration": 305}, {"note": 0, "velocity": 0, "duration": 655}, {"note": 69, "velocity": 96, "duration": 157}, {"note": 0, "velocity": 0, "duration": 83}, {"note": 74, "velocity": 102, "duration": 129}, {"note": 0, "velocity": 0, "duration": 111}, {"note": 76, "velocity": 122, "duration": 111}, {"note": 74, "velocity": 83, "duration": 131}, {"note": 78, "velocity": 112, "duration": 187}, {"note": 78, "velocity": 127, "duration": 49}, {"note": 0, "velocity": 0, "duration": 71}, {"note": 78, "velocity": 122, "duration": 205}, {"note": 0, "velocity": 0, "duration": 155}, {"note": 78, "velocity": 127, "duration": 44}, {"note": 0, "velocity": 0, "duration": 76}, {"note": 78, "velocity": 127, "duration": 169}, {"note": 0, "velocity": 0, "duration": 191}, {"note": 76, "velocity": 102, "duration": 48}, {"note": 0, "velocity": 0, "duration": 72}, {"note": 73, "velocity": 122, "duration": 263}, {"note": 0, "velocity": 0, "duration": 97}, {"note": 74, "velocity": 99, "duration": 143}, {"note": 0, "velocity": 0, "duration": 97}, {"note": 78, "velocity": 122, "duration": 960}, {"note": 0, "velocity": 0, "duration": 240}, {"note": 74, "velocity": 100, "duration": 144}, {"note": 0, "velocity": 0, "duration": 96}, {"note": 78, "velocity": 112, "duration": 152}, {"note": 0, "velocity": 0, "duration": 88}, {"note": 74, "velocity": 102, "duration": 145}, {"note": 0, "velocity": 0, "duration": 95}, {"note": 83, "velocity": 112, "duration": 361}, {"note": 0, "velocity": 0, "duration": 119}, {"note": 78, "velocity": 117, "duration": 135}, {"note": 0, "velocity": 0, "duration": 105}, {"note": 78, "velocity": 107, "duration": 225}, {"note": 76, "velocity": 95, "duration": 574}, {"note": 0, "velocity": 0, "duration": 266}, {"note": 74, "velocity": 90, "duration": 56}, {"note": 0, "velocity": 0, "duration": 64}, {"note": 73, "velocity": 112, "duration": 185}, {"note": 74, "velocity": 89, "duration": 63}, {"note": 76, "velocity": 112, "duration": 257}, {"note": 0, "velocity": 0, "duration": 103}, {"note": 78, "velocity": 127, "duration": 91}, {"note": 74, "velocity": 107, "duration": 600}, {"note": 0, "velocity": 0, "duration": 360}, {"note": 69, "velocity": 95, "duration": 66}, {"note": 69, "velocity": 102, "duration": 150}, {"note": 0, "velocity": 0, "duration": 90}, {"note": 67, "velocity": 88, "duration": 54}, {"note": 0, "velocity": 0, "duration": 66}, {"note": 67, "velocity": 92, "duration": 127}, {"note": 0, "velocity": 0, "duration": 113}, {"note": 74, "velocity": 117, "duration": 202}, {"note": 0, "velocity": 0, "duration": 158}, {"note": 74, "velocity": 117, "duration": 124}, {"note": 0, "velocity": 0, "duration": 116}, {"note": 73, "velocity": 100, "duration": 70}, {"note": 71, "velocity": 90, "duration": 276}, {"note": 73, "velocity": 107, "duration": 253}, {"note": 0, "velocity": 0, "duration": 107}, {"note": 74, "velocity": 112, "duration": 486}, {"note": 0, "velocity": 0, "duration": 1914}, {"note": 74, "velocity": 107, "duration": 86}, {"note": 76, "velocity": 95, "duration": 49}, {"note": 0, "velocity": 0, "duration": 71}, {"note": 78, "velocity": 127, "duration": 305}, {"note": 0, "velocity": 0, "duration": 415}, {"note": 74, "velocity": 112, "duration": 75}, {"note": 76, "velocity": 117, "duration": 43}, {"note": 0, "velocity": 0, "duration": 77}, {"note": 78, "velocity": 127, "duration": 223}, {"note": 0, "velocity": 0, "duration": 497}, {"note": 74, "velocity": 102, "duration": 66}, {"note": 76, "velocity": 100, "duration": 43}, {"note": 0, "velocity": 0, "duration": 77}, {"note": 78, "velocity": 127, "duration": 264}, {"note": 0, "velocity": 0, "duration": 336}, {"note": 74, "velocity": 112, "duration": 40}, {"note": 0, "velocity": 0, "duration": 80}, {"note": 74, "velocity": 117, "duration": 65}, {"note": 76, "velocity": 117, "duration": 41}, {"note": 0, "velocity": 0, "duration": 79}, {"note": 78, "velocity": 127, "duration": 209}, {"note": 0, "velocity": 0, "duration": 511}, {"note": 74, "velocity": 102, "duration": 81}, {"note": 76, "velocity": 76, "duration": 50}, {"note": 0, "velocity": 0, "duration": 70}, {"note": 78, "velocity": 100, "duration": 208}, {"note": 0, "velocity": 0, "duration": 392}, {"note": 74, "velocity": 99, "duration": 41}, {"note": 0, "velocity": 0, "duration": 79}, {"note": 74, "velocity": 100, "duration": 63}, {"note": 76, "velocity": 107, "duration": 43}, {"note": 0, "velocity": 0, "duration": 77}, {"note": 78, "velocity": 127, "duration": 134}, {"note": 0, "velocity": 0, "duration": 106}, {"note": 76, "velocity": 127, "duration": 230}, {"note": 0, "velocity": 0, "duration": 130}, {"note": 74, "velocity": 100, "duration": 79}, {"note": 71, "velocity": 107, "duration": 184}, {"note": 76, "velocity": 127, "duration": 240}, {"note": 0, "velocity": 0, "duration": 240}, {"note": 74, "velocity": 107, "duration": 428}, {"note": 0, "velocity": 0, "duration": 292}, {"note": 78, "velocity": 127, "duration": 193}, {"note": 76, "velocity": 127, "duration": 76}, {"note": 76, "velocity": 127, "duration": 187}, {"note": 0, "velocity": 0, "duration": 173}, {"note": 74, "velocity": 112, "duration": 50}, {"note": 0, "velocity": 0, "duration": 70}, {"note": 74, "velocity": 117, "duration": 169}, {"note": 0, "velocity": 0, "duration": 191}, {"note": 73, "velocity": 127, "duration": 47}, {"note": 0, "velocity": 0, "duration": 73}, {"note": 74, "velocity": 127, "duration": 162}, {"note": 0, "velocity": 0, "duration": 78}, {"note": 76, "velocity": 127, "duration": 162}, {"note": 0, "velocity": 0, "duration": 198}, {"note": 78, "velocity": 127, "duration": 154}, {"note": 0, "velocity": 0, "duration": 86}, {"note": 76, "velocity": 95, "duration": 46}, {"note": 0, "velocity": 0, "duration": 74}, {"note": 76, "velocity": 117, "duration": 219}, {"note": 0, "velocity": 0, "duration": 141}, {"note": 74, "velocity": 122, "duration": 37}, {"note": 0, "velocity": 0, "duration": 83}, {"note": 74, "velocity": 117, "duration": 155}, {"note": 0, "velocity": 0, "duration": 925}, {"note": 78, "velocity": 127, "duration": 161}, {"note": 0, "velocity": 0, "duration": 79}, {"note": 76, "velocity": 107, "duration": 44}, {"note": 0, "velocity": 0, "duration": 76}, {"note": 76, "velocity": 117, "duration": 169}, {"note": 0, "velocity": 0, "duration": 191}, {"note": 74, "velocity": 117, "duration": 46}, {"note": 0, "velocity": 0, "duration": 74}, {"note": 74, "velocity": 112, "duration": 133}, {"note": 0, "velocity": 0, "duration": 227}, {"note": 73, "velocity": 127, "duration": 38}, {"note": 0, "velocity": 0, "duration": 82}, {"note": 74, "velocity": 127, "duration": 159}, {"note": 0, "velocity": 0, "duration": 81}, {"note": 76, "velocity": 127, "duration": 209}, {"note": 76, "velocity": 127, "duration": 798}, {"note": 0, "velocity": 0, "duration": 282}, {"note": 77, "velocity": 122, "duration": 287}, {"note": 0, "velocity": 0, "duration": 193}, {"note": 75, "velocity": 122, "duration": 174}, {"note": 0, "velocity": 0, "duration": 66}, {"note": 74, "velocity": 97, "duration": 74}, {"note": 75, "velocity": 122, "duration": 274}, {"note": 0, "velocity": 0, "duration": 86}, {"note": 75, "velocity": 117, "duration": 36}, {"note": 0, "velocity": 0, "duration": 84}, {"note": 75, "velocity": 127, "duration": 239}, {"note": 0, "velocity": 0, "duration": 121}, {"note": 75, "velocity": 122, "duration": 46}, {"note": 0, "velocity": 0, "duration": 74}, {"note": 74, "velocity": 127, "duration": 229}, {"note": 0, "velocity": 0, "duration": 131}, {"note": 75, "velocity": 122, "duration": 39}, {"note": 0, "velocity": 0, "duration": 81}, {"note": 77, "velocity": 122, "duration": 267}, {"note": 0, "velocity": 0, "duration": 93}, {"note": 72, "velocity": 112, "duration": 41}, {"note": 0, "velocity": 0, "duration": 79}, {"note": 72, "velocity": 127, "duration": 184}, {"note": 70, "velocity": 112, "duration": 357}, {"note": 0, "velocity": 0, "duration": 723}, {"note": 70, "velocity": 107, "duration": 132}, {"note": 0, "velocity": 0, "duration": 108}, {"note": 75, "velocity": 122, "duration": 137}, {"note": 0, "velocity": 0, "duration": 103}, {"note": 77, "velocity": 127, "duration": 110}, {"note": 75, "velocity": 107, "duration": 67}, {"note": 79, "velocity": 127, "duration": 165}, {"note": 0, "velocity": 0, "duration": 75}, {"note": 79, "velocity": 127, "duration": 52}, {"note": 0, "velocity": 0, "duration": 68}, {"note": 79, "velocity": 112, "duration": 260}, {"note": 0, "velocity": 0, "duration": 100}, {"note": 79, "velocity": 112, "duration": 40}, {"note": 0, "velocity": 0, "duration": 80}, {"note": 79, "velocity": 127, "duration": 144}, {"note": 0, "velocity": 0, "duration": 216}, {"note": 77, "velocity": 107, "duration": 60}, {"note": 79, "velocity": 127, "duration": 230}, {"note": 0, "velocity": 0, "duration": 130}, {"note": 80, "velocity": 127, "duration": 40}, {"note": 0, "velocity": 0, "duration": 80}, {"note": 80, "velocity": 127, "duration": 176}, {"note": 0, "velocity": 0, "duration": 64}, {"note": 79, "velocity": 107, "duration": 422}, {"note": 0, "velocity": 0, "duration": 658}, {"note": 75, "velocity": 127, "duration": 124}, {"note": 0, "velocity": 0, "duration": 116}, {"note": 79, "velocity": 127, "duration": 144}, {"note": 0, "velocity": 0, "duration": 96}, {"note": 75, "velocity": 127, "duration": 131}, {"note": 0, "velocity": 0, "duration": 109}, {"note": 84, "velocity": 127, "duration": 403}, {"note": 0, "velocity": 0, "duration": 77}, {"note": 79, "velocity": 127, "duration": 159}, {"note": 0, "velocity": 0, "duration": 81}, {"note": 79, "velocity": 112, "duration": 252}, {"note": 77, "velocity": 112, "duration": 515}, {"note": 0, "velocity": 0, "duration": 325}, {"note": 75, "velocity": 122, "duration": 44}, {"note": 0, "velocity": 0, "duration": 76}, {"note": 74, "velocity": 102, "duration": 142}, {"note": 0, "velocity": 0, "duration": 98}, {"note": 75, "velocity": 112, "duration": 41}, {"note": 0, "velocity": 0, "duration": 79}, {"note": 77, "velocity": 95, "duration": 180}, {"note": 0, "velocity": 0, "duration": 180}, {"note": 70, "velocity": 112, "duration": 51}, {"note": 0, "velocity": 0, "duration": 69}, {"note": 77, "velocity": 117, "duration": 202}, {"note": 75, "velocity": 117, "duration": 453}, {"note": 0, "velocity": 0, "duration": 267}, {"note": 70, "velocity": 102, "duration": 54}, {"note": 0, "velocity": 0, "duration": 66}, {"note": 70, "velocity": 122, "duration": 200}, {"note": 68, "velocity": 85, "duration": 56}, {"note": 0, "velocity": 0, "duration": 64}, {"note": 68, "velocity": 122, "duration": 181}, {"note": 0, "velocity": 0, "duration": 179}, {"note": 79, "velocity": 112, "duration": 43}, {"note": 0, "velocity": 0, "duration": 77}, {"note": 79, "velocity": 117, "duration": 167}, {"note": 0, "velocity": 0, "duration": 193}, {"note": 75, "velocity": 127, "duration": 58}, {"note": 0, "velocity": 0, "duration": 62}, {"note": 74, "velocity": 117, "duration": 202}, {"note": 0, "velocity": 0, "duration": 158}, {"note": 75, "velocity": 112, "duration": 109}, {"note": 77, "velocity": 97, "duration": 271}, {"note": 75, "velocity": 107, "duration": 1646}]]