[[{"note": 64, "velocity": 93, "duration": 244}, {"note": 76, "velocity": 107, "duration": 144}, {"note": 74, "velocity": 97, "duration": 137}, {"note": 72, "velocity": 100, "duration": 273}, {"note": 0, "velocity": 0, "duration": 207}, {"note": 72, "velocity": 95, "duration": 240}, {"note": 64, "velocity": 79, "duration": 266}, {"note": 67, "velocity": 82, "duration": 294}, {"note": 0, "velocity": 0, "duration": 186}, {"note": 76, "velocity": 112, "duration": 302}, {"note": 74, "velocity": 88, "duration": 135}, {"note": 72, "velocity": 86, "duration": 237}, {"note": 69, "velocity": 73, "duration": 269}, {"note": 74, "velocity": 90, "duration": 519}, {"note": 0, "velocity": 0, "duration": 441}, {"note": 76, "velocity": 117, "duration": 212}, {"note": 74, "velocity": 99, "duration": 101}, {"note": 76, "velocity": 73, "duration": 134}, {"note": 67, "velocity": 95, "duration": 190}, {"note": 0, "velocity": 0, "duration": 170}, {"note": 64, "velocity": 67, "duration": 122}, {"note": 67, "velocity": 73, "duration": 153}, {"note": 69, "velocity": 79, "duration": 131}, {"note": 71, "velocity": 90, "duration": 238}, {"note": 69, "velocity": 86, "duration": 310}, {"note": 0, "velocity": 0, "duration": 170}, {"note": 74, "velocity": 117, "duration": 98}, {"note": 0, "velocity": 0, "duration": 73}, {"note": 74, "velocity": 77, "duration": 30}, {"note": 74, "velocity": 83, "duration": 131}, {"note": 76, "velocity": 88, "duration": 71}, {"note": 72, "velocity": 112, "duration": 147}, {"note": 74, "velocity": 102, "duration": 122}, {"note": 69, "velocity": 107, "duration": 207}, {"note": 67, "velocity": 96, "duration": 447}, {"note": 0, "velocity": 0, "duration": 513}, {"note": 79, "velocity": 107, "duration": 230}, {"note": 76, "velocity": 93, "duration": 134}, {"note": 74, "velocity": 90, "duration": 128}, {"note": 76, "velocity": 97, "duration": 294}, {"note": 0, "velocity": 0, "duration": 66}, {"note": 79, "velocity": 93, "duration": 129}, {"note": 69, "velocity": 107, "duration": 224}, {"note": 67, "velocity": 90, "duration": 132}, {"note": 69, "velocity": 92, "duration": 109}, {"note": 72, "velocity": 99, "duration": 298}, {"note": 0, "velocity": 0, "duration": 182}, {"note": 74, "velocity": 117, "duration": 322}, {"note": 76, "velocity": 99, "duration": 73}, {"note": 71, "velocity": 117, "duration": 130}, {"note": 69, "velocity": 77, "duration": 113}, {"note": 67, "velocity": 99, "duration": 252}, {"note": 69, "velocity": 107, "duration": 498}, {"note": 0, "velocity": 0, "duration": 462}, {"note": 67, "velocity": 97, "duration": 209}, {"note": 71, "velocity": 95, "duration": 237}, {"note": 69, "velocity": 127, "duration": 39}, {"note": 0, "velocity": 0, "duration": 201}, {"note": 69, "velocity": 97, "duration": 115}, {"note": 72, "velocity": 93, "duration": 59}, {"note": 0, "velocity": 0, "duration": 61}, {"note": 62, "velocity": 90, "duration": 53}, {"note": 0, "velocity": 0, "duration": 67}, {"note": 60, "velocity": 81, "duration": 132}, {"note": 62, "velocity": 69, "duration": 144}, {"note": 64, "velocity": 72, "duration": 105}, {"note": 67, "velocity": 89, "duration": 406}, {"note": 0, "velocity": 0, "duration": 74}, {"note": 69, "velocity": 96, "duration": 210}, {"note": 79, "velocity": 99, "duration": 220}, {"note": 81, "velocity": 112, "duration": 156}, {"note": 79, "velocity": 88, "duration": 101}, {"note": 76, "velocity": 90, "duration": 122}, {"note": 74, "velocity": 99, "duration": 101}, {"note": 72, "velocity": 85, "duration": 432}, {"note": 0, "velocity": 0, "duration": 288}, {"note": 76, "velocity": 100, "duration": 114}, {"note": 77, "velocity": 92, "duration": 114}, {"note": 79, "velocity": 122, "duration": 574}, {"note": 0, "velocity": 0, "duration": 146}, {"note": 76, "velocity": 112, "duration": 239}, {"note": 79, "velocity": 112, "duration": 349}, {"note": 0, "velocity": 0, "duration": 611}, {"note": 76, "velocity": 107, "duration": 216}, {"note": 81, "velocity": 112, "duration": 177}, {"note": 0, "velocity": 0, "duration": 63}, {"note": 81, "velocity": 107, "duration": 162}, {"note": 0, "velocity": 0, "duration": 78}, {"note": 76, "velocity": 117, "duration": 196}, {"note": 74, "velocity": 107, "duration": 433}, {"note": 0, "velocity": 0, "duration": 527}, {"note": 79, "velocity": 102, "duration": 590}, {"note": 0, "velocity": 0, "duration": 130}, {"note": 76, "velocity": 102, "duration": 243}, {"note": 79, "velocity": 122, "duration": 477}, {"note": 0, "velocity": 0, "duration": 483}, {"note": 76, "velocity": 112, "duration": 188}, {"note": 81, "velocity": 112, "duration": 166}, {"note": 0, "velocity": 0, "duration": 74}, {"note": 81, "velocity": 117, "duration": 140}, {"note": 0, "velocity": 0, "duration": 100}, {"note": 76, "velocity": 100, "duration": 217}, {"note": 74, "velocity": 102, "duration": 498}, {"note": 0, "velocity": 0, "duration": 462}, {"note": 76, "velocity": 127, "duration": 192}, {"note": 74, "velocity": 112, "duration": 100}, {"note": 76, "velocity": 86, "duration": 66}, {"note": 64, "velocity": 99, "duration": 96}, {"note": 67, "velocity": 90, "duration": 224}, {"note": 64, "velocity": 89, "duration": 113}, {"note": 67, "velocity": 89, "duration": 141}, {"note": 69, "velocity": 90, "duration": 116}, {"note": 71, "velocity": 97, "duration": 221}, {"note": 69, "velocity": 99, "duration": 359}, {"note": 0, "velocity": 0, "duration": 121}, {"note": 69, "velocity": 112, "duration": 54}, {"note": 0, "velocity": 0, "duration": 66}, {"note": 69, "velocity": 89, "duration": 47}, {"note": 0, "velocity": 0, "duration": 73}, {"note": 69, "velocity": 97, "duration": 105}, {"note": 67, "velocity": 92, "duration": 140}, {"note": 69, "velocity": 107, "duration": 207}, {"note": 72, "velocity": 117, "duration": 189}, {"note": 74, "velocity": 102, "duration": 131}, {"note": 74, "velocity": 112, "duration": 11}, {"note": 0, "velocity": 0, "duration": 109}, {"note": 74, "velocity": 99, "duration": 77}, {"note": 76, "velocity": 96, "duration": 66}, {"note": 79, "velocity": 122, "duration": 255}, {"note": 0, "velocity": 0, "duration": 225}, {"note": 67, "velocity": 97, "duration": 143}, {"note": 0, "velocity": 0, "duration": 97}, {"note": 79, "velocity": 117, "duration": 187}, {"note": 81, "velocity": 107, "duration": 149}, {"note": 0, "velocity": 0, "duration": 91}, {"note": 76, "velocity": 92, "duration": 130}, {"note": 74, "velocity": 100, "duration": 128}, {"note": 72, "velocity": 97, "duration": 334}, {"note": 0, "velocity": 0, "duration": 12146}, {"note": 64, "velocity": 93, "duration": 244}, {"note": 76, "velocity": 107, "duration": 144}, {"note": 74, "velocity": 97, "duration": 137}, {"note": 72, "velocity": 100, "duration": 273}, {"note": 0, "velocity": 0, "duration": 207}, {"note": 72, "velocity": 95, "duration": 240}, {"note": 64, "velocity": 79, "duration": 266}, {"note": 67, "velocity": 82, "duration": 294}, {"note": 0, "velocity": 0, "duration": 186}, {"note": 76, "velocity": 112, "duration": 302}, {"note": 74, "velocity": 88, "duration": 135}, {"note": 72, "velocity": 86, "duration": 237}, {"note": 69, "velocity": 73, "duration": 269}, {"note": 74, "velocity": 90, "duration": 519}, {"note": 0, "velocity": 0, "duration": 441}, {"note": 76, "velocity": 117, "duration": 212}, {"note": 74, "velocity": 99, "duration": 101}, {"note": 76, "velocity": 73, "duration": 134}, {"note": 67, "velocity": 95, "duration": 190}, {"note": 0, "velocity": 0, "duration": 170}, {"note": 64, "velocity": 67, "duration": 122}, {"note": 67, "velocity": 73, "duration": 153}, {"note": 69, "velocity": 79, "duration": 131}, {"note": 71, "velocity": 90, "duration": 238}, {"note": 69, "velocity": 86, "duration": 310}, {"note": 0, "velocity": 0, "duration": 170}, {"note": 74, "velocity": 117, "duration": 98}, {"note": 0, "velocity": 0, "duration": 73}, {"note": 74, "velocity": 77, "duration": 30}, {"note": 74, "velocity": 83, "duration": 131}, {"note": 76, "velocity": 88, "duration": 71}, {"note": 72, "velocity": 112, "duration": 147}, {"note": 74, "velocity": 102, "duration": 122}, {"note": 69, "velocity": 107, "duration": 207}, {"note": 67, "velocity": 96, "duration": 447}, {"note": 0, "velocity": 0, "duration": 513}, {"note": 79, "velocity": 107, "duration": 230}, {"note": 76, "velocity": 93, "duration": 134}, {"note": 74, "velocity": 90, "duration": 128}, {"note": 76, "velocity": 97, "duration": 294}, {"note": 0, "velocity": 0, "duration": 66}, {"note": 79, "velocity": 93, "duration": 129}, {"note": 69, "velocity": 107, "duration": 224}, {"note": 67, "velocity": 90, "duration": 132}, {"note": 69, "velocity": 92, "duration": 109}, {"note": 72, "velocity": 99, "duration": 298}, {"note": 0, "velocity": 0, "duration": 182}, {"note": 74, "velocity": 117, "duration": 322}, {"note": 76, "velocity": 99, "duration": 73}, {"note": 71, "velocity": 117, "duration": 130}, {"note": 69, "velocity": 77, "duration": 113}, {"note": 67, "velocity": 99, "duration": 252}, {"note": 69, "velocity": 107, "duration": 498}, {"note": 0, "velocity": 0, "duration": 462}, {"note": 67, "velocity": 97, "duration": 209}, {"note": 71, "velocity": 95, "duration": 237}, {"note": 69, "velocity": 127, "duration": 39}, {"note": 0, "velocity": 0, "duration": 201}, {"note": 69, "velocity": 97, "duration": 115}, {"note": 72, "velocity": 93, "duration": 59}, {"note": 0, "velocity": 0, "duration": 61}, {"note": 62, "velocity": 90, "duration": 53}, {"note": 0, "velocity": 0, "duration": 67}, {"note": 60, "velocity": 81, "duration": 132}, {"note": 62, "velocity": 69, "duration": 144}, {"note": 64, "velocity": 72, "duration": 105}, {"note": 67, "velocity": 89, "duration": 406}, {"note": 0, "velocity": 0, "duration": 74}, {"note": 69, "velocity": 96, "duration": 210}, {"note": 79, "velocity": 99, "duration": 220}, {"note": 81, "velocity": 112, "duration": 156}, {"note": 79, "velocity": 88, "duration": 101}, {"note": 76, "velocity": 90, "duration": 122}, {"note": 74, "velocity": 99, "duration": 101}, {"note": 72, "velocity": 85, "duration": 432}, {"note": 0, "velocity": 0, "duration": 288}, {"note": 76, "velocity": 100, "duration": 114}, {"note": 77, "velocity": 92, "duration": 114}, {"note": 79, "velocity": 122, "duration": 574}, {"note": 0, "velocity": 0, "duration": 146}, {"note": 76, "velocity": 112, "duration": 239}, {"note": 79, "velocity": 112, "duration": 349}, {"note": 0, "velocity": 0, "duration": 611}, {"note": 76, "velocity": 107, "duration": 216}, {"note": 81, "velocity": 112, "duration": 177}, {"note": 0, "velocity": 0, "duration": 63}, {"note": 81, "velocity": 107, "duration": 162}, {"note": 0, "velocity": 0, "duration": 78}, {"note": 76, "velocity": 117, "duration": 196}, {"note": 74, "velocity": 107, "duration": 433}, {"note": 0, "velocity": 0, "duration": 527}, {"note": 79, "velocity": 102, "duration": 590}, {"note": 0, "velocity": 0, "duration": 130}, {"note": 76, "velocity": 102, "duration": 243}, {"note": 79, "velocity": 122, "duration": 477}, {"note": 0, "velocity": 0, "duration": 483}, {"note": 76, "velocity": 112, "duration": 188}, {"note": 81, "velocity": 112, "duration": 166}, {"note": 0, "velocity": 0, "duration": 74}, {"note": 81, "velocity": 117, "duration": 140}, {"note": 0, "velocity": 0, "duration": 100}, {"note": 76, "velocity": 100, "duration": 217}, {"note": 74, "velocity": 102, "duration": 498}, {"note": 0, "velocity": 0, "duration": 462}, {"note": 76, "velocity": 127, "duration": 192}, {"note": 74, "velocity": 112, "duration": 100}, {"note": 76, "velocity": 86, "duration": 66}, {"note": 64, "velocity": 99, "duration": 96}, {"note": 67, "velocity": 90, "duration": 224}, {"note": 64, "velocity": 89, "duration": 113}, {"note": 67, "velocity": 89, "duration": 141}, {"note": 69, "velocity": 90, "duration": 116}, {"note": 71, "velocity": 97, "duration": 221}, {"note": 69, "velocity": 99, "duration": 359}, {"note": 0, "velocity": 0, "duration": 121}, {"note": 69, "velocity": 112, "duration": 54}, {"note": 0, "velocity": 0, "duration": 66}, {"note": 69, "velocity": 89, "duration": 47}, {"note": 0, "velocity": 0, "duration": 73}, {"note": 69, "velocity": 97, "duration": 105}, {"note": 67, "velocity": 92, "duration": 140}, {"note": 69, "velocity": 107, "duration": 207}, {"note": 72, "velocity": 117, "duration": 189}, {"note": 74, "velocity": 102, "duration": 131}, {"note": 74, "velocity": 112, "duration": 11}, {"note": 0, "velocity": 0, "duration": 109}, {"note": 74, "velocity": 99, "duration": 77}, {"note": 76, "velocity": 96, "duration": 66}, {"note": 79, "velocity": 122, "duration": 255}, {"note": 0, "velocity": 0, "duration": 225}, {"note": 67, "velocity": 97, "duration": 143}, {"note": 0, "velocity": 0, "duration": 97}, {"note": 79, "velocity": 117, "duration": 187}, {"note": 81, "velocity": 107, "duration": 149}, {"note": 0, "velocity": 0, "duration": 91}, {"note": 76, "velocity": 92, "duration": 130}, {"note": 74, "velocity": 100, "duration": 128}, {"note": 72, "velocity": 97, "duration": 334}, {"note": 0, "velocity": 0, "duration": 626}, {"note": 79, "velocity": 122, "duration": 574}, {"note": 0, "velocity": 0, "duration": 146}, {"note": 76, "velocity": 112, "duration": 239}, {"note": 79, "velocity": 112, "duration": 349}, {"note": 0, "velocity": 0, "duration": 611}, {"note": 76, "velocity": 107, "duration": 216}, {"note": 81, "velocity": 112, "duration": 177}, {"note": 0, "velocity": 0, "duration": 63}, {"note": 81, "velocity": 107, "duration": 162}, {"note": 0, "velocity": 0, "duration": 78}, {"note": 76, "velocity": 117, "duration": 196}, {"note": 74, "velocity": 107, "duration": 433}, {"note": 0, "velocity": 0, "duration": 527}, {"note": 79, "velocity": 102, "duration": 590}, {"note": 0, "velocity": 0, "duration": 130}, {"note": 76, "velocity": 102, "duration": 243}, {"note": 79, "velocity": 122, "duration": 477}, {"note": 0, "velocity": 0, "duration": 483}, {"note": 76, "velocity": 112, "duration": 188}, {"note": 81, "velocity": 112, "duration": 166}, {"note": 0, "velocity": 0, "duration": 74}, {"note": 81, "velocity": 117, "duration": 140}, {"note": 0, "velocity": 0, "duration": 100}, {"note": 76, "velocity": 100, "duration": 217}, {"note": 74, "velocity": 102, "duration": 498}, {"note": 0, "velocity": 0, "duration": 462}, {"note": 76, "velocity": 127, "duration": 192}, {"note": 74, "velocity": 112, "duration": 100}, {"note": 76, "velocity": 86, "duration": 66}, {"note": 64, "velocity": 99, "duration": 96}, {"note": 67, "velocity": 90, "duration": 224}, {"note": 64, "velocity": 89, "duration": 113}, {"note": 67, "velocity": 89, "duration": 141}, {"note": 69, "velocity": 90, "duration": 116}, {"note": 71, "velocity": 97, "duration": 221}, {"note": 69, "velocity": 99, "duration": 359}, {"note": 0, "velocity": 0, "duration": 121}, {"note": 69, "velocity": 112, "duration": 54}, {"note": 0, "velocity": 0, "duration": 66}, {"note": 69, "velocity": 89, "duration": 47}, {"note": 0, "velocity": 0, "duration": 73}, {"note": 69, "velocity": 97, "duration": 105}, {"note": 67, "velocity": 92, "duration": 140}, {"note": 69, "velocity": 107, "duration": 207}, {"note": 72, "velocity": 117, "duration": 189}, {"note": 74, "velocity": 102, "duration": 131}, {"note": 74, "velocity": 112, "duration": 11}, {"note": 0, "velocity": 0, "duration": 109}, {"note": 74, "velocity": 99, "duration": 77}, {"note": 76, "velocity": 96, "duration": 66}, {"note": 79, "velocity": 122, "duration": 255}, {"note": 0, "velocity": 0, "duration": 225}, {"note": 81, "velocity": 122, "duration": 243}, {"note": 0, "velocity": 0, "duration": 117}, {"note": 76, "velocity": 102, "duration": 104}, {"note": 74, "velocity": 96, "duration": 248}, {"note": 81, "velocity": 122, "duration": 916}, {"note": 0, "velocity": 0, "duration": 284}, {"note": 79, "velocity": 127, "duration": 1519}]]