[[{"note": 58, "velocity": 96, "duration": 372}, {"note": 0, "velocity": 0, "duration": 108}, {"note": 55, "velocity": 88, "duration": 175}, {"note": 0, "velocity": 0, "duration": 65}, {"note": 57, "velocity": 88, "duration": 120}, {"note": 58, "velocity": 95, "duration": 333}, {"note": 0, "velocity": 0, "duration": 627}, {"note": 58, "velocity": 88, "duration": 117}, {"note": 57, "velocity": 72, "duration": 141}, {"note": 0, "velocity": 0, "duration": 99}, {"note": 55, "velocity": 88, "duration": 110}, {"note": 0, "velocity": 0, "duration": 130}, {"note": 55, "velocity": 78, "duration": 122}, {"note": 0, "velocity": 0, "duration": 118}, {"note": 53, "velocity": 76, "duration": 115}, {"note": 0, "velocity": 0, "duration": 125}, {"note": 53, "velocity": 79, "duration": 514}, {"note": 0, "velocity": 0, "duration": 446}, {"note": 58, "velocity": 99, "duration": 338}, {"note": 0, "velocity": 0, "duration": 142}, {"note": 58, "velocity": 112, "duration": 82}, {"note": 60, "velocity": 93, "duration": 321}, {"note": 58, "velocity": 90, "duration": 472}, {"note": 0, "velocity": 0, "duration": 368}, {"note": 58, "velocity": 100, "duration": 105}, {"note": 57, "velocity": 75, "duration": 178}, {"note": 0, "velocity": 0, "duration": 62}, {"note": 55, "velocity": 86, "duration": 144}, {"note": 0, "velocity": 0, "duration": 96}, {"note": 55, "velocity": 83, "duration": 208}, {"note": 53, "velocity": 95, "duration": 217}, {"note": 62, "velocity": 92, "duration": 271}, {"note": 0, "velocity": 0, "duration": 689}, {"note": 62, "velocity": 102, "duration": 272}, {"note": 0, "velocity": 0, "duration": 88}, {"note": 60, "velocity": 100, "duration": 260}, {"note": 0, "velocity": 0, "duration": 100}, {"note": 58, "velocity": 96, "duration": 52}, {"note": 0, "velocity": 0, "duration": 68}, {"note": 58, "velocity": 100, "duration": 260}, {"note": 0, "velocity": 0, "duration": 100}, {"note": 60, "velocity": 97, "duration": 277}, {"note": 0, "velocity": 0, "duration": 323}, {"note": 53, "velocity": 85, "duration": 59}, {"note": 0, "velocity": 0, "duration": 61}, {"note": 53, "velocity": 89, "duration": 164}, {"note": 0, "velocity": 0, "duration": 76}, {"note": 53, "velocity": 93, "duration": 163}, {"note": 0, "velocity": 0, "duration": 77}, {"note": 60, "velocity": 100, "duration": 200}, {"note": 63, "velocity": 97, "duration": 188}, {"note": 63, "velocity": 117, "duration": 66}, {"note": 63, "velocity": 102, "duration": 226}, {"note": 62, "velocity": 102, "duration": 464}, {"note": 0, "velocity": 0, "duration": 136}, {"note": 62, "velocity": 107, "duration": 182}, {"note": 60, "velocity": 93, "duration": 62}, {"note": 60, "velocity": 93, "duration": 249}, {"note": 0, "velocity": 0, "duration": 111}, {"note": 58, "velocity": 92, "duration": 53}, {"note": 0, "velocity": 0, "duration": 67}, {"note": 58, "velocity": 93, "duration": 234}, {"note": 53, "velocity": 85, "duration": 84}, {"note": 0, "velocity": 0, "duration": 756}, {"note": 60, "velocity": 90, "duration": 170}, {"note": 0, "velocity": 0, "duration": 70}, {"note": 58, "velocity": 76, "duration": 61}, {"note": 58, "velocity": 112, "duration": 290}, {"note": 0, "velocity": 0, "duration": 70}, {"note": 57, "velocity": 85, "duration": 84}, {"note": 58, "velocity": 92, "duration": 444}, {"note": 0, "velocity": 0, "duration": 636}, {"note": 58, "velocity": 97, "duration": 323}, {"note": 0, "velocity": 0, "duration": 157}, {"note": 55, "velocity": 85, "duration": 177}, {"note": 0, "velocity": 0, "duration": 63}, {"note": 57, "velocity": 73, "duration": 83}, {"note": 58, "velocity": 89, "duration": 610}, {"note": 0, "velocity": 0, "duration": 350}, {"note": 58, "velocity": 96, "duration": 126}, {"note": 57, "velocity": 79, "duration": 200}, {"note": 55, "velocity": 79, "duration": 156}, {"note": 0, "velocity": 0, "duration": 84}, {"note": 55, "velocity": 85, "duration": 137}, {"note": 0, "velocity": 0, "duration": 103}, {"note": 53, "velocity": 75, "duration": 140}, {"note": 0, "velocity": 0, "duration": 100}, {"note": 53, "velocity": 83, "duration": 448}, {"note": 0, "velocity": 0, "duration": 512}, {"note": 58, "velocity": 96, "duration": 394}, {"note": 0, "velocity": 0, "duration": 86}, {"note": 58, "velocity": 99, "duration": 127}, {"note": 60, "velocity": 85, "duration": 364}, {"note": 58, "velocity": 79, "duration": 506}, {"note": 0, "velocity": 0, "duration": 334}, {"note": 58, "velocity": 99, "duration": 77}, {"note": 57, "velocity": 77, "duration": 219}, {"note": 55, "velocity": 85, "duration": 161}, {"note": 0, "velocity": 0, "duration": 79}, {"note": 55, "velocity": 68, "duration": 93}, {"note": 0, "velocity": 0, "duration": 147}, {"note": 53, "velocity": 90, "duration": 205}, {"note": 62, "velocity": 97, "duration": 403}, {"note": 0, "velocity": 0, "duration": 557}, {"note": 62, "velocity": 97, "duration": 156}, {"note": 0, "velocity": 0, "duration": 84}, {"note": 60, "velocity": 73, "duration": 53}, {"note": 0, "velocity": 0, "duration": 67}, {"note": 60, "velocity": 89, "duration": 218}, {"note": 0, "velocity": 0, "duration": 142}, {"note": 58, "velocity": 96, "duration": 53}, {"note": 0, "velocity": 0, "duration": 67}, {"note": 58, "velocity": 89, "duration": 194}, {"note": 60, "velocity": 90, "duration": 456}, {"note": 0, "velocity": 0, "duration": 264}, {"note": 53, "velocity": 85, "duration": 60}, {"note": 53, "velocity": 83, "duration": 100}, {"note": 0, "velocity": 0, "duration": 140}, {"note": 53, "velocity": 83, "duration": 121}, {"note": 0, "velocity": 0, "duration": 119}, {"note": 60, "velocity": 83, "duration": 171}, {"note": 0, "velocity": 0, "duration": 69}, {"note": 63, "velocity": 100, "duration": 172}, {"note": 0, "velocity": 0, "duration": 68}, {"note": 63, "velocity": 112, "duration": 266}, {"note": 62, "velocity": 102, "duration": 66}, {"note": 62, "velocity": 88, "duration": 301}, {"note": 0, "velocity": 0, "duration": 299}, {"note": 62, "velocity": 96, "duration": 177}, {"note": 0, "velocity": 0, "duration": 63}, {"note": 60, "velocity": 78, "duration": 57}, {"note": 0, "velocity": 0, "duration": 63}, {"note": 60, "velocity": 92, "duration": 255}, {"note": 0, "velocity": 0, "duration": 105}, {"note": 58, "velocity": 89, "duration": 54}, {"note": 0, "velocity": 0, "duration": 66}, {"note": 58, "velocity": 95, "duration": 241}, {"note": 60, "velocity": 95, "duration": 414}, {"note": 0, "velocity": 0, "duration": 426}, {"note": 58, "velocity": 102, "duration": 288}, {"note": 0, "velocity": 0, "duration": 72}, {"note": 57, "velocity": 88, "duration": 635}, {"note": 0, "velocity": 0, "duration": 445}, {"note": 58, "velocity": 97, "duration": 176}, {"note": 0, "velocity": 0, "duration": 64}, {"note": 60, "velocity": 95, "duration": 184}, {"note": 62, "velocity": 100, "duration": 237}, {"note": 67, "velocity": 102, "duration": 51}, {"note": 0, "velocity": 0, "duration": 69}, {"note": 67, "velocity": 93, "duration": 156}, {"note": 0, "velocity": 0, "duration": 84}, {"note": 70, "velocity": 112, "duration": 307}, {"note": 69, "velocity": 122, "duration": 195}, {"note": 67, "velocity": 117, "duration": 54}, {"note": 0, "velocity": 0, "duration": 66}, {"note": 67, "velocity": 112, "duration": 191}, {"note": 0, "velocity": 0, "duration": 169}, {"note": 65, "velocity": 102, "duration": 144}, {"note": 0, "velocity": 0, "duration": 96}, {"note": 65, "velocity": 100, "duration": 109}, {"note": 0, "velocity": 0, "duration": 131}, {"note": 60, "velocity": 88, "duration": 155}, {"note": 0, "velocity": 0, "duration": 85}, {"note": 60, "velocity": 96, "duration": 150}, {"note": 0, "velocity": 0, "duration": 90}, {"note": 63, "velocity": 112, "duration": 158}, {"note": 0, "velocity": 0, "duration": 82}, {"note": 63, "velocity": 117, "duration": 307}, {"note": 62, "velocity": 112, "duration": 280}, {"note": 0, "velocity": 0, "duration": 80}, {"note": 58, "velocity": 107, "duration": 61}, {"note": 60, "velocity": 86, "duration": 73}, {"note": 62, "velocity": 97, "duration": 123}, {"note": 0, "velocity": 0, "duration": 117}, {"note": 62, "velocity": 93, "duration": 57}, {"note": 0, "velocity": 0, "duration": 63}, {"note": 62, "velocity": 93, "duration": 161}, {"note": 0, "velocity": 0, "duration": 79}, {"note": 67, "velocity": 102, "duration": 314}, {"note": 65, "velocity": 107, "duration": 259}, {"note": 63, "velocity": 93, "duration": 49}, {"note": 0, "velocity": 0, "duration": 71}, {"note": 63, "velocity": 112, "duration": 120}, {"note": 0, "velocity": 0, "duration": 240}, {"note": 62, "velocity": 112, "duration": 223}, {"note": 60, "velocity": 97, "duration": 175}, {"note": 0, "velocity": 0, "duration": 65}, {"note": 60, "velocity": 97, "duration": 159}, {"note": 0, "velocity": 0, "duration": 81}, {"note": 60, "velocity": 102, "duration": 150}, {"note": 0, "velocity": 0, "duration": 90}, {"note": 60, "velocity": 97, "duration": 138}, {"note": 0, "velocity": 0, "duration": 102}, {"note": 60, "velocity": 102, "duration": 202}, {"note": 0, "velocity": 0, "duration": 158}, {"note": 58, "velocity": 99, "duration": 125}, {"note": 0, "velocity": 0, "duration": 235}, {"note": 58, "velocity": 117, "duration": 83}, {"note": 60, "velocity": 85, "duration": 83}, {"note": 62, "velocity": 102, "duration": 215}, {"note": 67, "velocity": 97, "duration": 62}, {"note": 67, "velocity": 102, "duration": 222}, {"note": 0, "velocity": 0, "duration": 138}, {"note": 70, "velocity": 112, "duration": 165}, {"note": 0, "velocity": 0, "duration": 75}, {"note": 69, "velocity": 107, "duration": 285}, {"note": 0, "velocity": 0, "duration": 75}, {"note": 67, "velocity": 90, "duration": 230}, {"note": 0, "velocity": 0, "duration": 130}, {"note": 65, "velocity": 107, "duration": 155}, {"note": 0, "velocity": 0, "duration": 85}, {"note": 65, "velocity": 95, "duration": 188}, {"note": 60, "velocity": 92, "duration": 175}, {"note": 0, "velocity": 0, "duration": 65}, {"note": 60, "velocity": 97, "duration": 162}, {"note": 0, "velocity": 0, "duration": 78}, {"note": 63, "velocity": 102, "duration": 138}, {"note": 0, "velocity": 0, "duration": 102}, {"note": 63, "velocity": 117, "duration": 306}, {"note": 62, "velocity": 102, "duration": 278}, {"note": 0, "velocity": 0, "duration": 82}, {"note": 58, "velocity": 107, "duration": 78}, {"note": 60, "velocity": 93, "duration": 72}, {"note": 62, "velocity": 99, "duration": 227}, {"note": 62, "velocity": 100, "duration": 56}, {"note": 0, "velocity": 0, "duration": 64}, {"note": 62, "velocity": 100, "duration": 175}, {"note": 0, "velocity": 0, "duration": 65}, {"note": 67, "velocity": 112, "duration": 283}, {"note": 0, "velocity": 0, "duration": 77}, {"note": 65, "velocity": 107, "duration": 159}, {"note": 0, "velocity": 0, "duration": 81}, {"note": 63, "velocity": 99, "duration": 53}, {"note": 0, "velocity": 0, "duration": 67}, {"note": 63, "velocity": 107, "duration": 112}, {"note": 0, "velocity": 0, "duration": 248}, {"note": 62, "velocity": 99, "duration": 151}, {"note": 0, "velocity": 0, "duration": 89}, {"note": 60, "velocity": 102, "duration": 136}, {"note": 0, "velocity": 0, "duration": 104}, {"note": 60, "velocity": 100, "duration": 120}, {"note": 0, "velocity": 0, "duration": 120}, {"note": 60, "velocity": 99, "duration": 140}, {"note": 0, "velocity": 0, "duration": 100}, {"note": 60, "velocity": 102, "duration": 90}, {"note": 0, "velocity": 0, "duration": 150}, {"note": 60, "velocity": 96, "duration": 269}, {"note": 0, "velocity": 0, "duration": 91}, {"note": 58, "velocity": 102, "duration": 156}, {"note": 0, "velocity": 0, "duration": 8124}, {"note": 58, "velocity": 97, "duration": 323}, {"note": 0, "velocity": 0, "duration": 157}, {"note": 55, "velocity": 85, "duration": 177}, {"note": 0, "velocity": 0, "duration": 63}, {"note": 57, "velocity": 73, "duration": 83}, {"note": 58, "velocity": 89, "duration": 610}, {"note": 0, "velocity": 0, "duration": 350}, {"note": 58, "velocity": 96, "duration": 126}, {"note": 57, "velocity": 79, "duration": 200}, {"note": 55, "velocity": 79, "duration": 156}, {"note": 0, "velocity": 0, "duration": 84}, {"note": 55, "velocity": 85, "duration": 137}, {"note": 0, "velocity": 0, "duration": 103}, {"note": 53, "velocity": 75, "duration": 140}, {"note": 0, "velocity": 0, "duration": 100}, {"note": 53, "velocity": 83, "duration": 448}, {"note": 0, "velocity": 0, "duration": 512}, {"note": 58, "velocity": 96, "duration": 394}, {"note": 0, "velocity": 0, "duration": 86}, {"note": 58, "velocity": 99, "duration": 127}, {"note": 60, "velocity": 85, "duration": 364}, {"note": 58, "velocity": 79, "duration": 506}, {"note": 0, "velocity": 0, "duration": 334}, {"note": 58, "velocity": 99, "duration": 77}, {"note": 57, "velocity": 77, "duration": 219}, {"note": 55, "velocity": 85, "duration": 161}, {"note": 0, "velocity": 0, "duration": 79}, {"note": 55, "velocity": 68, "duration": 93}, {"note": 0, "velocity": 0, "duration": 147}, {"note": 53, "velocity": 90, "duration": 205}, {"note": 62, "velocity": 97, "duration": 403}, {"note": 0, "velocity": 0, "duration": 557}, {"note": 62, "velocity": 97, "duration": 156}, {"note": 0, "velocity": 0, "duration": 84}, {"note": 60, "velocity": 73, "duration": 53}, {"note": 0, "velocity": 0, "duration": 67}, {"note": 60, "velocity": 89, "duration": 218}, {"note": 0, "velocity": 0, "duration": 142}, {"note": 58, "velocity": 96, "duration": 53}, {"note": 0, "velocity": 0, "duration": 67}, {"note": 58, "velocity": 89, "duration": 194}, {"note": 60, "velocity": 90, "duration": 456}, {"note": 0, "velocity": 0, "duration": 264}, {"note": 53, "velocity": 85, "duration": 60}, {"note": 53, "velocity": 83, "duration": 100}, {"note": 0, "velocity": 0, "duration": 140}, {"note": 53, "velocity": 83, "duration": 121}, {"note": 0, "velocity": 0, "duration": 119}, {"note": 60, "velocity": 83, "duration": 171}, {"note": 0, "velocity": 0, "duration": 69}, {"note": 63, "velocity": 100, "duration": 172}, {"note": 0, "velocity": 0, "duration": 68}, {"note": 63, "velocity": 112, "duration": 266}, {"note": 62, "velocity": 102, "duration": 66}, {"note": 62, "velocity": 88, "duration": 301}, {"note": 0, "velocity": 0, "duration": 299}, {"note": 62, "velocity": 96, "duration": 177}, {"note": 0, "velocity": 0, "duration": 63}, {"note": 60, "velocity": 78, "duration": 57}, {"note": 0, "velocity": 0, "duration": 63}, {"note": 60, "velocity": 92, "duration": 255}, {"note": 0, "velocity": 0, "duration": 105}, {"note": 58, "velocity": 89, "duration": 54}, {"note": 0, "velocity": 0, "duration": 66}, {"note": 58, "velocity": 95, "duration": 241}, {"note": 60, "velocity": 95, "duration": 414}, {"note": 0, "velocity": 0, "duration": 426}, {"note": 58, "velocity": 102, "duration": 288}, {"note": 0, "velocity": 0, "duration": 72}, {"note": 57, "velocity": 88, "duration": 635}, {"note": 0, "velocity": 0, "duration": 445}, {"note": 58, "velocity": 97, "duration": 176}, {"note": 0, "velocity": 0, "duration": 64}, {"note": 60, "velocity": 95, "duration": 184}, {"note": 62, "velocity": 100, "duration": 237}, {"note": 67, "velocity": 102, "duration": 51}, {"note": 0, "velocity": 0, "duration": 69}, {"note": 67, "velocity": 93, "duration": 156}, {"note": 0, "velocity": 0, "duration": 84}, {"note": 70, "velocity": 112, "duration": 307}, {"note": 69, "velocity": 122, "duration": 195}, {"note": 67, "velocity": 117, "duration": 54}, {"note": 0, "velocity": 0, "duration": 66}, {"note": 67, "velocity": 112, "duration": 191}, {"note": 0, "velocity": 0, "duration": 169}, {"note": 65, "velocity": 102, "duration": 144}, {"note": 0, "velocity": 0, "duration": 96}, {"note": 65, "velocity": 100, "duration": 109}, {"note": 0, "velocity": 0, "duration": 131}, {"note": 60, "velocity": 88, "duration": 155}, {"note": 0, "velocity": 0, "duration": 85}, {"note": 60, "velocity": 96, "duration": 150}, {"note": 0, "velocity": 0, "duration": 90}, {"note": 63, "velocity": 112, "duration": 158}, {"note": 0, "velocity": 0, "duration": 82}, {"note": 63, "velocity": 117, "duration": 307}, {"note": 62, "velocity": 112, "duration": 280}, {"note": 0, "velocity": 0, "duration": 80}, {"note": 58, "velocity": 107, "duration": 61}, {"note": 60, "velocity": 86, "duration": 73}, {"note": 62, "velocity": 97, "duration": 123}, {"note": 0, "velocity": 0, "duration": 117}, {"note": 62, "velocity": 93, "duration": 57}, {"note": 0, "velocity": 0, "duration": 63}, {"note": 62, "velocity": 93, "duration": 161}, {"note": 0, "velocity": 0, "duration": 79}, {"note": 67, "velocity": 102, "duration": 314}, {"note": 65, "velocity": 107, "duration": 259}, {"note": 63, "velocity": 93, "duration": 49}, {"note": 0, "velocity": 0, "duration": 71}, {"note": 63, "velocity": 112, "duration": 120}, {"note": 0, "velocity": 0, "duration": 240}, {"note": 62, "velocity": 112, "duration": 223}, {"note": 60, "velocity": 97, "duration": 175}, {"note": 0, "velocity": 0, "duration": 65}, {"note": 60, "velocity": 97, "duration": 159}, {"note": 0, "velocity": 0, "duration": 81}, {"note": 60, "velocity": 102, "duration": 150}, {"note": 0, "velocity": 0, "duration": 90}, {"note": 60, "velocity": 97, "duration": 138}, {"note": 0, "velocity": 0, "duration": 102}, {"note": 60, "velocity": 102, "duration": 202}, {"note": 0, "velocity": 0, "duration": 158}, {"note": 58, "velocity": 99, "duration": 125}, {"note": 0, "velocity": 0, "duration": 235}, {"note": 58, "velocity": 117, "duration": 83}, {"note": 60, "velocity": 85, "duration": 83}, {"note": 62, "velocity": 102, "duration": 215}, {"note": 67, "velocity": 97, "duration": 62}, {"note": 67, "velocity": 102, "duration": 222}, {"note": 0, "velocity": 0, "duration": 138}, {"note": 70, "velocity": 112, "duration": 165}, {"note": 0, "velocity": 0, "duration": 75}, {"note": 69, "velocity": 107, "duration": 285}, {"note": 0, "velocity": 0, "duration": 75}, {"note": 67, "velocity": 90, "duration": 230}, {"note": 0, "velocity": 0, "duration": 130}, {"note": 65, "velocity": 107, "duration": 155}, {"note": 0, "velocity": 0, "duration": 85}, {"note": 65, "velocity": 95, "duration": 188}, {"note": 60, "velocity": 92, "duration": 175}, {"note": 0, "velocity": 0, "duration": 65}, {"note": 60, "velocity": 97, "duration": 162}, {"note": 0, "velocity": 0, "duration": 78}, {"note": 63, "velocity": 102, "duration": 138}, {"note": 0, "velocity": 0, "duration": 102}, {"note": 63, "velocity": 117, "duration": 306}, {"note": 62, "velocity": 102, "duration": 278}, {"note": 0, "velocity": 0, "duration": 82}, {"note": 58, "velocity": 107, "duration": 78}, {"note": 60, "velocity": 93, "duration": 72}, {"note": 62, "velocity": 99, "duration": 227}, {"note": 62, "velocity": 100, "duration": 56}, {"note": 0, "velocity": 0, "duration": 64}, {"note": 62, "velocity": 100, "duration": 175}, {"note": 0, "velocity": 0, "duration": 65}, {"note": 67, "velocity": 112, "duration": 283}, {"note": 0, "velocity": 0, "duration": 77}, {"note": 65, "velocity": 107, "duration": 159}, {"note": 0, "velocity": 0, "duration": 81}, {"note": 63, "velocity": 99, "duration": 53}, {"note": 0, "velocity": 0, "duration": 67}, {"note": 63, "velocity": 107, "duration": 112}, {"note": 0, "velocity": 0, "duration": 248}, {"note": 62, "velocity": 99, "duration": 151}, {"note": 0, "velocity": 0, "duration": 89}, {"note": 60, "velocity": 102, "duration": 136}, {"note": 0, "velocity": 0, "duration": 104}, {"note": 60, "velocity": 100, "duration": 120}, {"note": 0, "velocity": 0, "duration": 120}, {"note": 60, "velocity": 99, "duration": 140}, {"note": 0, "velocity": 0, "duration": 100}, {"note": 60, "velocity": 102, "duration": 90}, {"note": 0, "velocity": 0, "duration": 150}, {"note": 60, "velocity": 96, "duration": 269}, {"note": 0, "velocity": 0, "duration": 91}, {"note": 58, "velocity": 102, "duration": 156}, {"note": 0, "velocity": 0, "duration": 444}, {"note": 62, "velocity": 100, "duration": 237}, {"note": 67, "velocity": 102, "duration": 51}, {"note": 0, "velocity": 0, "duration": 69}, {"note": 67, "velocity": 93, "duration": 156}, {"note": 0, "velocity": 0, "duration": 84}, {"note": 70, "velocity": 112, "duration": 307}, {"note": 69, "velocity": 122, "duration": 195}, {"note": 67, "velocity": 117, "duration": 54}, {"note": 0, "velocity": 0, "duration": 66}, {"note": 67, "velocity": 112, "duration": 191}, {"note": 0, "velocity": 0, "duration": 169}, {"note": 65, "velocity": 102, "duration": 144}, {"note": 0, "velocity": 0, "duration": 96}, {"note": 65, "velocity": 100, "duration": 109}, {"note": 0, "velocity": 0, "duration": 131}, {"note": 60, "velocity": 88, "duration": 155}, {"note": 0, "velocity": 0, "duration": 85}, {"note": 60, "velocity": 96, "duration": 150}, {"note": 0, "velocity": 0, "duration": 90}, {"note": 63, "velocity": 112, "duration": 158}, {"note": 0, "velocity": 0, "duration": 82}, {"note": 63, "velocity": 117, "duration": 307}, {"note": 62, "velocity": 112, "duration": 280}, {"note": 0, "velocity": 0, "duration": 80}, {"note": 58, "velocity": 107, "duration": 61}, {"note": 60, "velocity": 86, "duration": 73}, {"note": 62, "velocity": 97, "duration": 123}, {"note": 0, "velocity": 0, "duration": 117}, {"note": 62, "velocity": 93, "duration": 57}, {"note": 0, "velocity": 0, "duration": 63}, {"note": 62, "velocity": 93, "duration": 161}, {"note": 0, "velocity": 0, "duration": 79}, {"note": 67, "velocity": 102, "duration": 314}, {"note": 65, "velocity": 107, "duration": 259}, {"note": 63, "velocity": 93, "duration": 49}, {"note": 0, "velocity": 0, "duration": 71}, {"note": 63, "velocity": 112, "duration": 120}, {"note": 0, "velocity": 0, "duration": 240}, {"note": 62, "velocity": 112, "duration": 223}, {"note": 60, "velocity": 97, "duration": 175}, {"note": 0, "velocity": 0, "duration": 65}, {"note": 60, "velocity": 97, "duration": 159}, {"note": 0, "velocity": 0, "duration": 81}, {"note": 60, "velocity": 102, "duration": 150}, {"note": 0, "velocity": 0, "duration": 90}, {"note": 60, "velocity": 97, "duration": 138}, {"note": 0, "velocity": 0, "duration": 102}, {"note": 60, "velocity": 102, "duration": 202}, {"note": 0, "velocity": 0, "duration": 158}, {"note": 58, "velocity": 99, "duration": 125}, {"note": 0, "velocity": 0, "duration": 235}, {"note": 58, "velocity": 117, "duration": 83}, {"note": 60, "velocity": 85, "duration": 83}, {"note": 62, "velocity": 102, "duration": 215}, {"note": 67, "velocity": 97, "duration": 62}, {"note": 67, "velocity": 102, "duration": 222}, {"note": 0, "velocity": 0, "duration": 138}, {"note": 70, "velocity": 112, "duration": 165}, {"note": 0, "velocity": 0, "duration": 75}, {"note": 69, "velocity": 107, "duration": 285}, {"note": 0, "velocity": 0, "duration": 75}, {"note": 67, "velocity": 90, "duration": 230}, {"note": 0, "velocity": 0, "duration": 130}, {"note": 65, "velocity": 107, "duration": 155}, {"note": 0, "velocity": 0, "duration": 85}, {"note": 65, "velocity": 95, "duration": 188}, {"note": 60, "velocity": 92, "duration": 175}, {"note": 0, "velocity": 0, "duration": 65}, {"note": 60, "velocity": 97, "duration": 162}, {"note": 0, "velocity": 0, "duration": 78}, {"note": 63, "velocity": 102, "duration": 138}, {"note": 0, "velocity": 0, "duration": 102}, {"note": 63, "velocity": 117, "duration": 306}, {"note": 62, "velocity": 102, "duration": 278}, {"note": 0, "velocity": 0, "duration": 82}, {"note": 58, "velocity": 107, "duration": 78}, {"note": 60, "velocity": 93, "duration": 72}, {"note": 62, "velocity": 99, "duration": 227}, {"note": 62, "velocity": 100, "duration": 56}, {"note": 0, "velocity": 0, "duration": 64}, {"note": 62, "velocity": 100, "duration": 175}, {"note": 0, "velocity": 0, "duration": 65}, {"note": 67, "velocity": 112, "duration": 283}, {"note": 0, "velocity": 0, "duration": 77}, {"note": 65, "velocity": 107, "duration": 159}, {"note": 0, "velocity": 0, "duration": 81}, {"note": 63, "velocity": 99, "duration": 53}, {"note": 0, "velocity": 0, "duration": 67}, {"note": 63, "velocity": 107, "duration": 112}, {"note": 0, "velocity": 0, "duration": 248}, {"note": 62, "velocity": 99, "duration": 151}, {"note": 0, "velocity": 0, "duration": 89}, {"note": 60, "velocity": 102, "duration": 136}, {"note": 0, "velocity": 0, "duration": 104}, {"note": 60, "velocity": 100, "duration": 120}, {"note": 0, "velocity": 0, "duration": 120}, {"note": 60, "velocity": 99, "duration": 140}, {"note": 0, "velocity": 0, "duration": 100}, {"note": 60, "velocity": 102, "duration": 90}, {"note": 0, "velocity": 0, "duration": 150}, {"note": 60, "velocity": 96, "duration": 269}, {"note": 0, "velocity": 0, "duration": 91}, {"note": 58, "velocity": 102, "duration": 156}, {"note": 0, "velocity": 0, "duration": 444}, {"note": 58, "velocity": 96, "duration": 372}, {"note": 0, "velocity": 0, "duration": 108}, {"note": 55, "velocity": 88, "duration": 175}, {"note": 0, "velocity": 0, "duration": 65}, {"note": 57, "velocity": 88, "duration": 120}, {"note": 58, "velocity": 95, "duration": 333}, {"note": 0, "velocity": 0, "duration": 627}, {"note": 58, "velocity": 88, "duration": 117}, {"note": 57, "velocity": 72, "duration": 141}, {"note": 0, "velocity": 0, "duration": 99}, {"note": 55, "velocity": 88, "duration": 110}, {"note": 0, "velocity": 0, "duration": 130}, {"note": 55, "velocity": 78, "duration": 122}, {"note": 0, "velocity": 0, "duration": 118}, {"note": 53, "velocity": 76, "duration": 115}, {"note": 0, "velocity": 0, "duration": 125}, {"note": 53, "velocity": 79, "duration": 514}, {"note": 0, "velocity": 0, "duration": 446}, {"note": 58, "velocity": 99, "duration": 338}, {"note": 0, "velocity": 0, "duration": 142}, {"note": 55, "velocity": 90, "duration": 106}, {"note": 57, "velocity": 83, "duration": 148}, {"note": 58, "velocity": 96, "duration": 76}, {"note": 60, "velocity": 107, "duration": 235}, {"note": 58, "velocity": 88, "duration": 592}, {"note": 0, "velocity": 0, "duration": 128}, {"note": 58, "velocity": 100, "duration": 105}, {"note": 57, "velocity": 75, "duration": 178}, {"note": 0, "velocity": 0, "duration": 62}, {"note": 55, "velocity": 86, "duration": 144}, {"note": 0, "velocity": 0, "duration": 96}, {"note": 55, "velocity": 83, "duration": 208}, {"note": 53, "velocity": 95, "duration": 217}, {"note": 62, "velocity": 92, "duration": 271}, {"note": 0, "velocity": 0, "duration": 689}, {"note": 62, "velocity": 102, "duration": 144}, {"note": 0, "velocity": 0, "duration": 96}, {"note": 60, "velocity": 96, "duration": 57}, {"note": 0, "velocity": 0, "duration": 63}, {"note": 60, "velocity": 100, "duration": 260}, {"note": 0, "velocity": 0, "duration": 100}, {"note": 58, "velocity": 96, "duration": 52}, {"note": 0, "velocity": 0, "duration": 68}, {"note": 58, "velocity": 100, "duration": 260}, {"note": 60, "velocity": 97, "duration": 277}, {"note": 0, "velocity": 0, "duration": 443}, {"note": 53, "velocity": 85, "duration": 59}, {"note": 0, "velocity": 0, "duration": 61}, {"note": 53, "velocity": 89, "duration": 164}, {"note": 0, "velocity": 0, "duration": 76}, {"note": 53, "velocity": 93, "duration": 163}, {"note": 0, "velocity": 0, "duration": 77}, {"note": 60, "velocity": 100, "duration": 200}, {"note": 63, "velocity": 97, "duration": 188}, {"note": 63, "velocity": 117, "duration": 314}, {"note": 62, "velocity": 102, "duration": 464}, {"note": 0, "velocity": 0, "duration": 136}, {"note": 62, "velocity": 107, "duration": 182}, {"note": 60, "velocity": 93, "duration": 62}, {"note": 60, "velocity": 93, "duration": 249}, {"note": 0, "velocity": 0, "duration": 111}, {"note": 58, "velocity": 92, "duration": 53}, {"note": 0, "velocity": 0, "duration": 67}, {"note": 58, "velocity": 93, "duration": 234}, {"note": 53, "velocity": 85, "duration": 84}, {"note": 0, "velocity": 0, "duration": 636}, {"note": 53, "velocity": 78, "duration": 115}, {"note": 60, "velocity": 90, "duration": 170}, {"note": 0, "velocity": 0, "duration": 70}, {"note": 58, "velocity": 76, "duration": 61}, {"note": 58, "velocity": 82, "duration": 290}, {"note": 0, "velocity": 0, "duration": 70}, {"note": 57, "velocity": 85, "duration": 84}, {"note": 58, "velocity": 92, "duration": 444}, {"note": 57, "velocity": 88, "duration": 132}, {"note": 55, "velocity": 74, "duration": 1427}]]