[[{"note": 69, "velocity": 87, "duration": 177}, {"note": 0, "velocity": 0, "duration": 63}, {"note": 71, "velocity": 86, "duration": 154}, {"note": 0, "velocity": 0, "duration": 86}, {"note": 72, "velocity": 86, "duration": 422}, {"note": 71, "velocity": 86, "duration": 210}, {"note": 69, "velocity": 84, "duration": 667}, {"note": 71, "velocity": 85, "duration": 449}, {"note": 67, "velocity": 79, "duration": 1567}, {"note": 0, "velocity": 0, "duration": 353}, {"note": 69, "velocity": 85, "duration": 388}, {"note": 0, "velocity": 0, "duration": 92}, {"note": 67, "velocity": 77, "duration": 170}, {"note": 0, "velocity": 0, "duration": 70}, {"note": 65, "velocity": 86, "duration": 701}, {"note": 67, "velocity": 78, "duration": 240}, {"note": 64, "velocity": 85, "duration": 1360}, {"note": 0, "velocity": 0, "duration": 303}, {"note": 69, "velocity": 87, "duration": 138}, {"note": 0, "velocity": 0, "duration": 82}, {"note": 71, "velocity": 85, "duration": 154}, {"note": 0, "velocity": 0, "duration": 92}, {"note": 72, "velocity": 85, "duration": 417}, {"note": 0, "velocity": 0, "duration": 72}, {"note": 71, "velocity": 85, "duration": 208}, {"note": 69, "velocity": 85, "duration": 683}, {"note": 71, "velocity": 84, "duration": 197}, {"note": 67, "velocity": 85, "duration": 735}, {"note": 74, "velocity": 87, "duration": 166}, {"note": 0, "velocity": 0, "duration": 95}, {"note": 74, "velocity": 89, "duration": 895}, {"note": 0, "velocity": 0, "duration": 323}, {"note": 76, "velocity": 85, "duration": 342}, {"note": 0, "velocity": 0, "duration": 102}, {"note": 76, "velocity": 85, "duration": 148}, {"note": 0, "velocity": 0, "duration": 99}, {"note": 76, "velocity": 88, "duration": 622}, {"note": 0, "velocity": 0, "duration": 79}, {"note": 74, "velocity": 86, "duration": 243}, {"note": 74, "velocity": 92, "duration": 1162}, {"note": 0, "velocity": 0, "duration": 518}, {"note": 69, "velocity": 87, "duration": 177}, {"note": 0, "velocity": 0, "duration": 63}, {"note": 71, "velocity": 86, "duration": 154}, {"note": 0, "velocity": 0, "duration": 86}, {"note": 72, "velocity": 86, "duration": 422}, {"note": 71, "velocity": 86, "duration": 210}, {"note": 69, "velocity": 84, "duration": 667}, {"note": 71, "velocity": 85, "duration": 449}, {"note": 67, "velocity": 79, "duration": 1567}, {"note": 0, "velocity": 0, "duration": 353}, {"note": 69, "velocity": 85, "duration": 388}, {"note": 0, "velocity": 0, "duration": 92}, {"note": 67, "velocity": 77, "duration": 170}, {"note": 0, "velocity": 0, "duration": 70}, {"note": 65, "velocity": 86, "duration": 701}, {"note": 72, "velocity": 78, "duration": 240}, {"note": 64, "velocity": 85, "duration": 1360}, {"note": 0, "velocity": 0, "duration": 303}, {"note": 69, "velocity": 87, "duration": 138}, {"note": 0, "velocity": 0, "duration": 82}, {"note": 71, "velocity": 85, "duration": 154}, {"note": 0, "velocity": 0, "duration": 92}, {"note": 72, "velocity": 85, "duration": 417}, {"note": 0, "velocity": 0, "duration": 72}, {"note": 71, "velocity": 85, "duration": 208}, {"note": 69, "velocity": 85, "duration": 683}, {"note": 71, "velocity": 84, "duration": 197}, {"note": 67, "velocity": 85, "duration": 735}, {"note": 74, "velocity": 87, "duration": 166}, {"note": 0, "velocity": 0, "duration": 95}, {"note": 74, "velocity": 89, "duration": 895}, {"note": 0, "velocity": 0, "duration": 323}, {"note": 76, "velocity": 85, "duration": 342}, {"note": 0, "velocity": 0, "duration": 102}, {"note": 76, "velocity": 85, "duration": 148}, {"note": 0, "velocity": 0, "duration": 99}, {"note": 76, "velocity": 88, "duration": 622}, {"note": 0, "velocity": 0, "duration": 79}, {"note": 77, "velocity": 86, "duration": 243}, {"note": 74, "velocity": 92, "duration": 1162}, {"note": 67, "velocity": 89, "duration": 169}, {"note": 0, "velocity": 0, "duration": 71}, {"note": 69, "velocity": 80, "duration": 144}, {"note": 0, "velocity": 0, "duration": 96}, {"note": 71, "velocity": 82, "duration": 167}, {"note": 0, "velocity": 0, "duration": 73}, {"note": 72, "velocity": 85, "duration": 578}, {"note": 0, "velocity": 0, "duration": 142}, {"note": 72, "velocity": 85, "duration": 149}, {"note": 0, "velocity": 0, "duration": 91}, {"note": 72, "velocity": 86, "duration": 597}, {"note": 0, "velocity": 0, "duration": 123}, {"note": 72, "velocity": 85, "duration": 139}, {"note": 0, "velocity": 0, "duration": 101}, {"note": 72, "velocity": 85, "duration": 167}, {"note": 0, "velocity": 0, "duration": 73}, {"note": 71, "velocity": 86, "duration": 153}, {"note": 0, "velocity": 0, "duration": 87}, {"note": 72, "velocity": 83, "duration": 161}, {"note": 0, "velocity": 0, "duration": 79}, {"note": 74, "velocity": 88, "duration": 162}, {"note": 0, "velocity": 0, "duration": 78}, {"note": 74, "velocity": 87, "duration": 899}, {"note": 0, "velocity": 0, "duration": 301}, {"note": 74, "velocity": 89, "duration": 323}, {"note": 0, "velocity": 0, "duration": 157}, {"note": 74, "velocity": 86, "duration": 144}, {"note": 0, "velocity": 0, "duration": 96}, {"note": 74, "velocity": 87, "duration": 575}, {"note": 0, "velocity": 0, "duration": 145}, {"note": 74, "velocity": 90, "duration": 141}, {"note": 0, "velocity": 0, "duration": 99}, {"note": 74, "velocity": 89, "duration": 332}, {"note": 0, "velocity": 0, "duration": 148}, {"note": 71, "velocity": 85, "duration": 197}, {"note": 67, "velocity": 85, "duration": 171}, {"note": 0, "velocity": 0, "duration": 69}, {"note": 72, "velocity": 86, "duration": 319}, {"note": 0, "velocity": 0, "duration": 161}, {"note": 72, "velocity": 85, "duration": 123}, {"note": 0, "velocity": 0, "duration": 117}, {"note": 72, "velocity": 86, "duration": 167}, {"note": 0, "velocity": 0, "duration": 73}, {"note": 67, "velocity": 74, "duration": 157}, {"note": 0, "velocity": 0, "duration": 83}, {"note": 72, "velocity": 79, "duration": 162}, {"note": 0, "velocity": 0, "duration": 78}, {"note": 67, "velocity": 81, "duration": 143}, {"note": 0, "velocity": 0, "duration": 97}, {"note": 72, "velocity": 85, "duration": 142}, {"note": 0, "velocity": 0, "duration": 98}, {"note": 72, "velocity": 85, "duration": 347}, {"note": 0, "velocity": 0, "duration": 133}, {"note": 72, "velocity": 86, "duration": 128}, {"note": 0, "velocity": 0, "duration": 112}, {"note": 72, "velocity": 80, "duration": 182}, {"note": 67, "velocity": 85, "duration": 167}, {"note": 0, "velocity": 0, "duration": 73}, {"note": 72, "velocity": 87, "duration": 186}, {"note": 67, "velocity": 77, "duration": 152}, {"note": 0, "velocity": 0, "duration": 88}, {"note": 72, "velocity": 86, "duration": 169}, {"note": 0, "velocity": 0, "duration": 71}, {"note": 72, "velocity": 85, "duration": 279}, {"note": 0, "velocity": 0, "duration": 201}, {"note": 72, "velocity": 86, "duration": 92}, {"note": 0, "velocity": 0, "duration": 148}, {"note": 72, "velocity": 86, "duration": 151}, {"note": 0, "velocity": 0, "duration": 89}, {"note": 74, "velocity": 89, "duration": 123}, {"note": 0, "velocity": 0, "duration": 117}, {"note": 76, "velocity": 85, "duration": 131}, {"note": 0, "velocity": 0, "duration": 109}, {"note": 76, "velocity": 85, "duration": 124}, {"note": 0, "velocity": 0, "duration": 116}, {"note": 76, "velocity": 85, "duration": 119}, {"note": 0, "velocity": 0, "duration": 121}, {"note": 76, "velocity": 86, "duration": 130}, {"note": 0, "velocity": 0, "duration": 110}, {"note": 76, "velocity": 88, "duration": 133}, {"note": 0, "velocity": 0, "duration": 107}, {"note": 77, "velocity": 79, "duration": 162}, {"note": 0, "velocity": 0, "duration": 78}, {"note": 76, "velocity": 83, "duration": 132}, {"note": 0, "velocity": 0, "duration": 108}, {"note": 74, "velocity": 83, "duration": 2640}, {"note": 0, "velocity": 0, "duration": 720}, {"note": 72, "velocity": 85, "duration": 127}, {"note": 0, "velocity": 0, "duration": 113}, {"note": 74, "velocity": 89, "duration": 153}, {"note": 0, "velocity": 0, "duration": 87}, {"note": 76, "velocity": 86, "duration": 337}, {"note": 0, "velocity": 0, "duration": 143}, {"note": 76, "velocity": 84, "duration": 127}, {"note": 0, "velocity": 0, "duration": 113}, {"note": 76, "velocity": 83, "duration": 112}, {"note": 0, "velocity": 0, "duration": 128}, {"note": 76, "velocity": 83, "duration": 355}, {"note": 0, "velocity": 0, "duration": 125}, {"note": 76, "velocity": 84, "duration": 128}, {"note": 0, "velocity": 0, "duration": 112}, {"note": 76, "velocity": 85, "duration": 147}, {"note": 0, "velocity": 0, "duration": 93}, {"note": 76, "velocity": 85, "duration": 333}, {"note": 0, "velocity": 0, "duration": 147}, {"note": 77, "velocity": 81, "duration": 149}, {"note": 0, "velocity": 0, "duration": 91}, {"note": 76, "velocity": 79, "duration": 142}, {"note": 0, "velocity": 0, "duration": 98}, {"note": 74, "velocity": 86, "duration": 337}, {"note": 0, "velocity": 0, "duration": 143}, {"note": 71, "velocity": 81, "duration": 154}, {"note": 0, "velocity": 0, "duration": 86}, {"note": 72, "velocity": 82, "duration": 129}, {"note": 0, "velocity": 0, "duration": 111}, {"note": 74, "velocity": 87, "duration": 333}, {"note": 0, "velocity": 0, "duration": 147}, {"note": 74, "velocity": 86, "duration": 151}, {"note": 0, "velocity": 0, "duration": 89}, {"note": 74, "velocity": 86, "duration": 127}, {"note": 0, "velocity": 0, "duration": 113}, {"note": 74, "velocity": 86, "duration": 301}, {"note": 0, "velocity": 0, "duration": 179}, {"note": 74, "velocity": 87, "duration": 128}, {"note": 0, "velocity": 0, "duration": 112}, {"note": 74, "velocity": 86, "duration": 108}, {"note": 0, "velocity": 0, "duration": 132}, {"note": 74, "velocity": 85, "duration": 480}, {"note": 76, "velocity": 83, "duration": 127}, {"note": 0, "velocity": 0, "duration": 113}, {"note": 74, "velocity": 88, "duration": 148}, {"note": 0, "velocity": 0, "duration": 92}, {"note": 72, "velocity": 85, "duration": 329}, {"note": 0, "velocity": 0, "duration": 151}, {"note": 72, "velocity": 85, "duration": 128}, {"note": 0, "velocity": 0, "duration": 112}, {"note": 72, "velocity": 86, "duration": 138}, {"note": 0, "velocity": 0, "duration": 102}, {"note": 72, "velocity": 87, "duration": 169}, {"note": 0, "velocity": 0, "duration": 71}, {"note": 79, "velocity": 86, "duration": 172}, {"note": 0, "velocity": 0, "duration": 68}, {"note": 77, "velocity": 83, "duration": 129}, {"note": 0, "velocity": 0, "duration": 111}, {"note": 77, "velocity": 83, "duration": 154}, {"note": 0, "velocity": 0, "duration": 86}, {"note": 76, "velocity": 86, "duration": 128}, {"note": 0, "velocity": 0, "duration": 112}, {"note": 76, "velocity": 87, "duration": 171}, {"note": 0, "velocity": 0, "duration": 69}, {"note": 74, "velocity": 86, "duration": 112}, {"note": 0, "velocity": 0, "duration": 128}, {"note": 74, "velocity": 87, "duration": 113}, {"note": 0, "velocity": 0, "duration": 127}, {"note": 72, "velocity": 85, "duration": 148}, {"note": 0, "velocity": 0, "duration": 92}, {"note": 74, "velocity": 88, "duration": 136}, {"note": 0, "velocity": 0, "duration": 104}, {"note": 74, "velocity": 87, "duration": 126}, {"note": 0, "velocity": 0, "duration": 114}, {"note": 72, "velocity": 86, "duration": 140}, {"note": 0, "velocity": 0, "duration": 100}, {"note": 74, "velocity": 90, "duration": 352}, {"note": 0, "velocity": 0, "duration": 128}, {"note": 72, "velocity": 87, "duration": 137}, {"note": 0, "velocity": 0, "duration": 103}, {"note": 74, "velocity": 88, "duration": 178}, {"note": 0, "velocity": 0, "duration": 62}, {"note": 72, "velocity": 85, "duration": 123}, {"note": 0, "velocity": 0, "duration": 117}, {"note": 77, "velocity": 86, "duration": 154}, {"note": 0, "velocity": 0, "duration": 86}, {"note": 76, "velocity": 85, "duration": 117}, {"note": 0, "velocity": 0, "duration": 123}, {"note": 76, "velocity": 86, "duration": 162}, {"note": 0, "velocity": 0, "duration": 78}, {"note": 74, "velocity": 87, "duration": 134}, {"note": 0, "velocity": 0, "duration": 106}, {"note": 74, "velocity": 91, "duration": 153}, {"note": 0, "velocity": 0, "duration": 87}, {"note": 72, "velocity": 85, "duration": 115}, {"note": 0, "velocity": 0, "duration": 125}, {"note": 72, "velocity": 86, "duration": 118}, {"note": 0, "velocity": 0, "duration": 122}, {"note": 74, "velocity": 85, "duration": 109}, {"note": 0, "velocity": 0, "duration": 131}, {"note": 76, "velocity": 92, "duration": 294}, {"note": 0, "velocity": 0, "duration": 79}, {"note": 77, "velocity": 90, "duration": 199}, {"note": 0, "velocity": 0, "duration": 103}, {"note": 76, "velocity": 85, "duration": 200}, {"note": 0, "velocity": 0, "duration": 78}, {"note": 79, "velocity": 86, "duration": 480}, {"note": 72, "velocity": 88, "duration": 400}, {"note": 0, "velocity": 0, "duration": 80}, {"note": 76, "velocity": 87, "duration": 131}, {"note": 0, "velocity": 0, "duration": 109}, {"note": 76, "velocity": 85, "duration": 127}, {"note": 0, "velocity": 0, "duration": 113}, {"note": 76, "velocity": 85, "duration": 134}, {"note": 0, "velocity": 0, "duration": 106}, {"note": 76, "velocity": 88, "duration": 236}, {"note": 0, "velocity": 0, "duration": 244}, {"note": 76, "velocity": 87, "duration": 118}, {"note": 0, "velocity": 0, "duration": 122}, {"note": 76, "velocity": 86, "duration": 123}, {"note": 0, "velocity": 0, "duration": 117}, {"note": 76, "velocity": 87, "duration": 319}, {"note": 0, "velocity": 0, "duration": 161}, {"note": 77, "velocity": 86, "duration": 141}, {"note": 0, "velocity": 0, "duration": 99}, {"note": 76, "velocity": 87, "duration": 152}, {"note": 0, "velocity": 0, "duration": 88}, {"note": 74, "velocity": 92, "duration": 319}, {"note": 0, "velocity": 0, "duration": 161}, {"note": 71, "velocity": 87, "duration": 161}, {"note": 0, "velocity": 0, "duration": 79}, {"note": 71, "velocity": 85, "duration": 173}, {"note": 0, "velocity": 0, "duration": 67}, {"note": 79, "velocity": 86, "duration": 332}, {"note": 0, "velocity": 0, "duration": 148}, {"note": 79, "velocity": 81, "duration": 133}, {"note": 0, "velocity": 0, "duration": 107}, {"note": 79, "velocity": 85, "duration": 123}, {"note": 0, "velocity": 0, "duration": 117}, {"note": 79, "velocity": 86, "duration": 261}, {"note": 0, "velocity": 0, "duration": 219}, {"note": 79, "velocity": 85, "duration": 124}, {"note": 0, "velocity": 0, "duration": 116}, {"note": 79, "velocity": 85, "duration": 176}, {"note": 0, "velocity": 0, "duration": 64}, {"note": 74, "velocity": 89, "duration": 422}, {"note": 76, "velocity": 88, "duration": 147}, {"note": 0, "velocity": 0, "duration": 93}, {"note": 74, "velocity": 86, "duration": 156}, {"note": 0, "velocity": 0, "duration": 84}, {"note": 72, "velocity": 85, "duration": 290}, {"note": 0, "velocity": 0, "duration": 190}, {"note": 69, "velocity": 83, "duration": 138}, {"note": 0, "velocity": 0, "duration": 102}, {"note": 69, "velocity": 86, "duration": 212}, {"note": 72, "velocity": 86, "duration": 122}, {"note": 0, "velocity": 0, "duration": 118}, {"note": 79, "velocity": 84, "duration": 178}, {"note": 0, "velocity": 0, "duration": 62}, {"note": 77, "velocity": 80, "duration": 124}, {"note": 0, "velocity": 0, "duration": 116}, {"note": 77, "velocity": 86, "duration": 137}, {"note": 0, "velocity": 0, "duration": 103}, {"note": 76, "velocity": 83, "duration": 139}, {"note": 0, "velocity": 0, "duration": 101}, {"note": 76, "velocity": 85, "duration": 171}, {"note": 0, "velocity": 0, "duration": 69}, {"note": 74, "velocity": 85, "duration": 133}, {"note": 0, "velocity": 0, "duration": 107}, {"note": 74, "velocity": 86, "duration": 192}, {"note": 72, "velocity": 84, "duration": 145}, {"note": 0, "velocity": 0, "duration": 95}, {"note": 76, "velocity": 87, "duration": 480}, {"note": 0, "velocity": 0, "duration": 240}, {"note": 67, "velocity": 85, "duration": 220}, {"note": 76, "velocity": 89, "duration": 343}, {"note": 0, "velocity": 0, "duration": 137}, {"note": 74, "velocity": 86, "duration": 142}, {"note": 0, "velocity": 0, "duration": 98}, {"note": 74, "velocity": 86, "duration": 633}, {"note": 0, "velocity": 0, "duration": 87}, {"note": 72, "velocity": 82, "duration": 1608}, {"note": 0, "velocity": 0, "duration": 10872}, {"note": 69, "velocity": 87, "duration": 177}, {"note": 0, "velocity": 0, "duration": 63}, {"note": 71, "velocity": 86, "duration": 154}, {"note": 0, "velocity": 0, "duration": 86}, {"note": 72, "velocity": 86, "duration": 422}, {"note": 71, "velocity": 86, "duration": 210}, {"note": 69, "velocity": 84, "duration": 667}, {"note": 71, "velocity": 85, "duration": 449}, {"note": 67, "velocity": 79, "duration": 1567}, {"note": 0, "velocity": 0, "duration": 353}, {"note": 69, "velocity": 85, "duration": 388}, {"note": 0, "velocity": 0, "duration": 92}, {"note": 67, "velocity": 77, "duration": 170}, {"note": 0, "velocity": 0, "duration": 70}, {"note": 65, "velocity": 86, "duration": 701}, {"note": 67, "velocity": 78, "duration": 240}, {"note": 64, "velocity": 85, "duration": 1360}, {"note": 0, "velocity": 0, "duration": 303}, {"note": 69, "velocity": 87, "duration": 138}, {"note": 0, "velocity": 0, "duration": 82}, {"note": 71, "velocity": 85, "duration": 154}, {"note": 0, "velocity": 0, "duration": 92}, {"note": 72, "velocity": 85, "duration": 417}, {"note": 0, "velocity": 0, "duration": 72}, {"note": 71, "velocity": 85, "duration": 208}, {"note": 69, "velocity": 85, "duration": 683}, {"note": 71, "velocity": 84, "duration": 197}, {"note": 67, "velocity": 85, "duration": 735}, {"note": 74, "velocity": 87, "duration": 166}, {"note": 0, "velocity": 0, "duration": 95}, {"note": 74, "velocity": 89, "duration": 895}, {"note": 0, "velocity": 0, "duration": 323}, {"note": 76, "velocity": 85, "duration": 342}, {"note": 0, "velocity": 0, "duration": 102}, {"note": 76, "velocity": 85, "duration": 148}, {"note": 0, "velocity": 0, "duration": 99}, {"note": 76, "velocity": 88, "duration": 622}, {"note": 0, "velocity": 0, "duration": 79}, {"note": 74, "velocity": 86, "duration": 243}, {"note": 74, "velocity": 92, "duration": 1162}, {"note": 0, "velocity": 0, "duration": 518}, {"note": 69, "velocity": 87, "duration": 177}, {"note": 0, "velocity": 0, "duration": 63}, {"note": 71, "velocity": 86, "duration": 154}, {"note": 0, "velocity": 0, "duration": 86}, {"note": 72, "velocity": 86, "duration": 422}, {"note": 71, "velocity": 86, "duration": 210}, {"note": 69, "velocity": 84, "duration": 667}, {"note": 71, "velocity": 85, "duration": 449}, {"note": 67, "velocity": 79, "duration": 1567}, {"note": 0, "velocity": 0, "duration": 353}, {"note": 69, "velocity": 85, "duration": 388}, {"note": 0, "velocity": 0, "duration": 92}, {"note": 67, "velocity": 77, "duration": 170}, {"note": 0, "velocity": 0, "duration": 70}, {"note": 65, "velocity": 86, "duration": 701}, {"note": 72, "velocity": 78, "duration": 240}, {"note": 64, "velocity": 85, "duration": 1360}, {"note": 0, "velocity": 0, "duration": 303}, {"note": 69, "velocity": 87, "duration": 138}, {"note": 0, "velocity": 0, "duration": 82}, {"note": 71, "velocity": 85, "duration": 154}, {"note": 0, "velocity": 0, "duration": 92}, {"note": 72, "velocity": 85, "duration": 417}, {"note": 0, "velocity": 0, "duration": 72}, {"note": 71, "velocity": 85, "duration": 208}, {"note": 69, "velocity": 85, "duration": 683}, {"note": 71, "velocity": 84, "duration": 197}, {"note": 67, "velocity": 85, "duration": 735}, {"note": 74, "velocity": 87, "duration": 166}, {"note": 0, "velocity": 0, "duration": 95}, {"note": 74, "velocity": 89, "duration": 895}, {"note": 0, "velocity": 0, "duration": 323}, {"note": 76, "velocity": 85, "duration": 342}, {"note": 0, "velocity": 0, "duration": 102}, {"note": 76, "velocity": 85, "duration": 148}, {"note": 0, "velocity": 0, "duration": 99}, {"note": 76, "velocity": 88, "duration": 622}, {"note": 0, "velocity": 0, "duration": 79}, {"note": 77, "velocity": 86, "duration": 243}, {"note": 74, "velocity": 92, "duration": 1162}, {"note": 67, "velocity": 89, "duration": 169}, {"note": 0, "velocity": 0, "duration": 71}, {"note": 69, "velocity": 80, "duration": 144}, {"note": 0, "velocity": 0, "duration": 96}, {"note": 71, "velocity": 82, "duration": 167}, {"note": 0, "velocity": 0, "duration": 73}, {"note": 72, "velocity": 85, "duration": 578}, {"note": 0, "velocity": 0, "duration": 142}, {"note": 72, "velocity": 85, "duration": 149}, {"note": 0, "velocity": 0, "duration": 91}, {"note": 72, "velocity": 86, "duration": 597}, {"note": 0, "velocity": 0, "duration": 123}, {"note": 72, "velocity": 85, "duration": 139}, {"note": 0, "velocity": 0, "duration": 101}, {"note": 72, "velocity": 85, "duration": 167}, {"note": 0, "velocity": 0, "duration": 73}, {"note": 71, "velocity": 86, "duration": 153}, {"note": 0, "velocity": 0, "duration": 87}, {"note": 72, "velocity": 83, "duration": 161}, {"note": 0, "velocity": 0, "duration": 79}, {"note": 74, "velocity": 88, "duration": 162}, {"note": 0, "velocity": 0, "duration": 78}, {"note": 74, "velocity": 87, "duration": 899}, {"note": 0, "velocity": 0, "duration": 301}, {"note": 74, "velocity": 89, "duration": 323}, {"note": 0, "velocity": 0, "duration": 157}, {"note": 74, "velocity": 86, "duration": 144}, {"note": 0, "velocity": 0, "duration": 96}, {"note": 74, "velocity": 87, "duration": 575}, {"note": 0, "velocity": 0, "duration": 145}, {"note": 74, "velocity": 90, "duration": 141}, {"note": 0, "velocity": 0, "duration": 99}, {"note": 74, "velocity": 89, "duration": 332}, {"note": 0, "velocity": 0, "duration": 148}, {"note": 71, "velocity": 85, "duration": 197}, {"note": 67, "velocity": 85, "duration": 171}, {"note": 0, "velocity": 0, "duration": 69}, {"note": 72, "velocity": 86, "duration": 319}, {"note": 0, "velocity": 0, "duration": 161}, {"note": 72, "velocity": 85, "duration": 123}, {"note": 0, "velocity": 0, "duration": 117}, {"note": 72, "velocity": 86, "duration": 167}, {"note": 0, "velocity": 0, "duration": 73}, {"note": 67, "velocity": 74, "duration": 157}, {"note": 0, "velocity": 0, "duration": 83}, {"note": 72, "velocity": 79, "duration": 162}, {"note": 0, "velocity": 0, "duration": 78}, {"note": 67, "velocity": 81, "duration": 143}, {"note": 0, "velocity": 0, "duration": 97}, {"note": 72, "velocity": 85, "duration": 142}, {"note": 0, "velocity": 0, "duration": 98}, {"note": 72, "velocity": 85, "duration": 347}, {"note": 0, "velocity": 0, "duration": 133}, {"note": 72, "velocity": 86, "duration": 128}, {"note": 0, "velocity": 0, "duration": 112}, {"note": 72, "velocity": 80, "duration": 182}, {"note": 67, "velocity": 85, "duration": 167}, {"note": 0, "velocity": 0, "duration": 73}, {"note": 72, "velocity": 87, "duration": 186}, {"note": 67, "velocity": 77, "duration": 152}, {"note": 0, "velocity": 0, "duration": 88}, {"note": 72, "velocity": 86, "duration": 169}, {"note": 0, "velocity": 0, "duration": 71}, {"note": 72, "velocity": 85, "duration": 279}, {"note": 0, "velocity": 0, "duration": 201}, {"note": 72, "velocity": 86, "duration": 92}, {"note": 0, "velocity": 0, "duration": 148}, {"note": 72, "velocity": 86, "duration": 151}, {"note": 0, "velocity": 0, "duration": 89}, {"note": 74, "velocity": 89, "duration": 123}, {"note": 0, "velocity": 0, "duration": 117}, {"note": 76, "velocity": 85, "duration": 131}, {"note": 0, "velocity": 0, "duration": 109}, {"note": 76, "velocity": 85, "duration": 124}, {"note": 0, "velocity": 0, "duration": 116}, {"note": 76, "velocity": 85, "duration": 119}, {"note": 0, "velocity": 0, "duration": 121}, {"note": 76, "velocity": 86, "duration": 130}, {"note": 0, "velocity": 0, "duration": 110}, {"note": 76, "velocity": 88, "duration": 133}, {"note": 0, "velocity": 0, "duration": 107}, {"note": 77, "velocity": 79, "duration": 162}, {"note": 0, "velocity": 0, "duration": 78}, {"note": 76, "velocity": 83, "duration": 132}, {"note": 0, "velocity": 0, "duration": 108}, {"note": 74, "velocity": 83, "duration": 2640}, {"note": 0, "velocity": 0, "duration": 720}, {"note": 73, "velocity": 85, "duration": 127}, {"note": 0, "velocity": 0, "duration": 113}, {"note": 75, "velocity": 89, "duration": 153}, {"note": 0, "velocity": 0, "duration": 87}, {"note": 77, "velocity": 86, "duration": 337}, {"note": 0, "velocity": 0, "duration": 143}, {"note": 77, "velocity": 84, "duration": 127}, {"note": 0, "velocity": 0, "duration": 113}, {"note": 77, "velocity": 83, "duration": 112}, {"note": 0, "velocity": 0, "duration": 128}, {"note": 77, "velocity": 83, "duration": 355}, {"note": 0, "velocity": 0, "duration": 125}, {"note": 77, "velocity": 84, "duration": 128}, {"note": 0, "velocity": 0, "duration": 112}, {"note": 77, "velocity": 85, "duration": 147}, {"note": 0, "velocity": 0, "duration": 93}, {"note": 77, "velocity": 85, "duration": 333}, {"note": 0, "velocity": 0, "duration": 147}, {"note": 78, "velocity": 81, "duration": 149}, {"note": 0, "velocity": 0, "duration": 91}, {"note": 77, "velocity": 79, "duration": 142}, {"note": 0, "velocity": 0, "duration": 98}, {"note": 75, "velocity": 86, "duration": 337}, {"note": 0, "velocity": 0, "duration": 143}, {"note": 72, "velocity": 81, "duration": 154}, {"note": 0, "velocity": 0, "duration": 86}, {"note": 73, "velocity": 82, "duration": 129}, {"note": 0, "velocity": 0, "duration": 111}, {"note": 75, "velocity": 87, "duration": 333}, {"note": 0, "velocity": 0, "duration": 147}, {"note": 75, "velocity": 86, "duration": 151}, {"note": 0, "velocity": 0, "duration": 89}, {"note": 75, "velocity": 86, "duration": 127}, {"note": 0, "velocity": 0, "duration": 113}, {"note": 75, "velocity": 86, "duration": 301}, {"note": 0, "velocity": 0, "duration": 179}, {"note": 75, "velocity": 87, "duration": 128}, {"note": 0, "velocity": 0, "duration": 112}, {"note": 75, "velocity": 86, "duration": 108}, {"note": 0, "velocity": 0, "duration": 132}, {"note": 75, "velocity": 85, "duration": 480}, {"note": 77, "velocity": 83, "duration": 127}, {"note": 0, "velocity": 0, "duration": 113}, {"note": 75, "velocity": 88, "duration": 148}, {"note": 0, "velocity": 0, "duration": 92}, {"note": 73, "velocity": 85, "duration": 329}, {"note": 0, "velocity": 0, "duration": 151}, {"note": 73, "velocity": 85, "duration": 128}, {"note": 0, "velocity": 0, "duration": 112}, {"note": 73, "velocity": 86, "duration": 138}, {"note": 0, "velocity": 0, "duration": 102}, {"note": 73, "velocity": 87, "duration": 169}, {"note": 0, "velocity": 0, "duration": 71}, {"note": 80, "velocity": 86, "duration": 172}, {"note": 0, "velocity": 0, "duration": 68}, {"note": 78, "velocity": 83, "duration": 129}, {"note": 0, "velocity": 0, "duration": 111}, {"note": 78, "velocity": 83, "duration": 154}, {"note": 0, "velocity": 0, "duration": 86}, {"note": 77, "velocity": 86, "duration": 128}, {"note": 0, "velocity": 0, "duration": 112}, {"note": 77, "velocity": 87, "duration": 171}, {"note": 0, "velocity": 0, "duration": 69}, {"note": 75, "velocity": 86, "duration": 112}, {"note": 0, "velocity": 0, "duration": 128}, {"note": 75, "velocity": 87, "duration": 113}, {"note": 0, "velocity": 0, "duration": 127}, {"note": 73, "velocity": 85, "duration": 148}, {"note": 0, "velocity": 0, "duration": 92}, {"note": 75, "velocity": 88, "duration": 136}, {"note": 0, "velocity": 0, "duration": 104}, {"note": 75, "velocity": 87, "duration": 126}, {"note": 0, "velocity": 0, "duration": 114}, {"note": 73, "velocity": 86, "duration": 140}, {"note": 0, "velocity": 0, "duration": 100}, {"note": 75, "velocity": 90, "duration": 352}, {"note": 0, "velocity": 0, "duration": 128}, {"note": 73, "velocity": 87, "duration": 137}, {"note": 0, "velocity": 0, "duration": 103}, {"note": 75, "velocity": 88, "duration": 178}, {"note": 0, "velocity": 0, "duration": 62}, {"note": 73, "velocity": 85, "duration": 123}, {"note": 0, "velocity": 0, "duration": 117}, {"note": 78, "velocity": 86, "duration": 154}, {"note": 0, "velocity": 0, "duration": 86}, {"note": 77, "velocity": 85, "duration": 117}, {"note": 0, "velocity": 0, "duration": 123}, {"note": 77, "velocity": 86, "duration": 162}, {"note": 0, "velocity": 0, "duration": 78}, {"note": 75, "velocity": 87, "duration": 134}, {"note": 0, "velocity": 0, "duration": 106}, {"note": 75, "velocity": 91, "duration": 153}, {"note": 0, "velocity": 0, "duration": 87}, {"note": 73, "velocity": 85, "duration": 115}, {"note": 0, "velocity": 0, "duration": 125}, {"note": 73, "velocity": 86, "duration": 118}, {"note": 0, "velocity": 0, "duration": 122}, {"note": 75, "velocity": 85, "duration": 109}, {"note": 0, "velocity": 0, "duration": 131}, {"note": 77, "velocity": 92, "duration": 294}, {"note": 0, "velocity": 0, "duration": 79}, {"note": 78, "velocity": 90, "duration": 199}, {"note": 0, "velocity": 0, "duration": 103}, {"note": 77, "velocity": 85, "duration": 200}, {"note": 0, "velocity": 0, "duration": 78}, {"note": 80, "velocity": 86, "duration": 480}, {"note": 73, "velocity": 88, "duration": 400}, {"note": 0, "velocity": 0, "duration": 80}, {"note": 77, "velocity": 87, "duration": 131}, {"note": 0, "velocity": 0, "duration": 109}, {"note": 77, "velocity": 85, "duration": 127}, {"note": 0, "velocity": 0, "duration": 113}, {"note": 77, "velocity": 85, "duration": 134}, {"note": 0, "velocity": 0, "duration": 106}, {"note": 77, "velocity": 88, "duration": 236}, {"note": 0, "velocity": 0, "duration": 244}, {"note": 77, "velocity": 87, "duration": 118}, {"note": 0, "velocity": 0, "duration": 122}, {"note": 77, "velocity": 86, "duration": 123}, {"note": 0, "velocity": 0, "duration": 117}, {"note": 77, "velocity": 87, "duration": 319}, {"note": 0, "velocity": 0, "duration": 161}, {"note": 78, "velocity": 86, "duration": 141}, {"note": 0, "velocity": 0, "duration": 99}, {"note": 77, "velocity": 87, "duration": 152}, {"note": 0, "velocity": 0, "duration": 88}, {"note": 75, "velocity": 92, "duration": 319}, {"note": 0, "velocity": 0, "duration": 161}, {"note": 72, "velocity": 87, "duration": 161}, {"note": 0, "velocity": 0, "duration": 79}, {"note": 72, "velocity": 85, "duration": 173}, {"note": 0, "velocity": 0, "duration": 67}, {"note": 80, "velocity": 86, "duration": 332}, {"note": 0, "velocity": 0, "duration": 148}, {"note": 80, "velocity": 81, "duration": 133}, {"note": 0, "velocity": 0, "duration": 107}, {"note": 80, "velocity": 85, "duration": 123}, {"note": 0, "velocity": 0, "duration": 117}, {"note": 80, "velocity": 86, "duration": 261}, {"note": 0, "velocity": 0, "duration": 219}, {"note": 80, "velocity": 85, "duration": 124}, {"note": 0, "velocity": 0, "duration": 116}, {"note": 80, "velocity": 85, "duration": 176}, {"note": 0, "velocity": 0, "duration": 64}, {"note": 75, "velocity": 89, "duration": 422}, {"note": 77, "velocity": 88, "duration": 147}, {"note": 0, "velocity": 0, "duration": 93}, {"note": 75, "velocity": 86, "duration": 156}, {"note": 0, "velocity": 0, "duration": 84}, {"note": 73, "velocity": 85, "duration": 290}, {"note": 0, "velocity": 0, "duration": 190}, {"note": 70, "velocity": 83, "duration": 138}, {"note": 0, "velocity": 0, "duration": 102}, {"note": 70, "velocity": 86, "duration": 212}, {"note": 73, "velocity": 86, "duration": 122}, {"note": 0, "velocity": 0, "duration": 118}, {"note": 80, "velocity": 84, "duration": 178}, {"note": 0, "velocity": 0, "duration": 62}, {"note": 78, "velocity": 80, "duration": 124}, {"note": 0, "velocity": 0, "duration": 116}, {"note": 78, "velocity": 86, "duration": 137}, {"note": 0, "velocity": 0, "duration": 103}, {"note": 77, "velocity": 83, "duration": 139}, {"note": 0, "velocity": 0, "duration": 101}, {"note": 77, "velocity": 85, "duration": 171}, {"note": 0, "velocity": 0, "duration": 69}, {"note": 75, "velocity": 85, "duration": 133}, {"note": 0, "velocity": 0, "duration": 107}, {"note": 75, "velocity": 86, "duration": 192}, {"note": 73, "velocity": 84, "duration": 145}, {"note": 0, "velocity": 0, "duration": 95}, {"note": 77, "velocity": 87, "duration": 480}, {"note": 0, "velocity": 0, "duration": 240}, {"note": 68, "velocity": 85, "duration": 220}, {"note": 77, "velocity": 89, "duration": 343}, {"note": 0, "velocity": 0, "duration": 137}, {"note": 75, "velocity": 86, "duration": 142}, {"note": 0, "velocity": 0, "duration": 98}, {"note": 75, "velocity": 86, "duration": 633}, {"note": 0, "velocity": 0, "duration": 87}, {"note": 73, "velocity": 82, "duration": 1608}, {"note": 0, "velocity": 0, "duration": 759}, {"note": 73, "velocity": 89, "duration": 414}, {"note": 0, "velocity": 0, "duration": 84}, {"note": 75, "velocity": 90, "duration": 403}, {"note": 0, "velocity": 0, "duration": 114}, {"note": 77, "velocity": 86, "duration": 761}, {"note": 0, "velocity": 0, "duration": 162}, {"note": 77, "velocity": 87, "duration": 383}, {"note": 0, "velocity": 0, "duration": 104}, {"note": 78, "velocity": 86, "duration": 181}, {"note": 0, "velocity": 0, "duration": 65}, {"note": 77, "velocity": 87, "duration": 465}, {"note": 75, "velocity": 88, "duration": 965}, {"note": 0, "velocity": 0, "duration": 237}, {"note": 72, "velocity": 87, "duration": 148}, {"note": 0, "velocity": 0, "duration": 83}, {"note": 73, "velocity": 80, "duration": 128}, {"note": 0, "velocity": 0, "duration": 123}, {"note": 75, "velocity": 87, "duration": 556}, {"note": 0, "velocity": 0, "duration": 413}, {"note": 75, "velocity": 90, "duration": 407}, {"note": 72, "velocity": 81, "duration": 234}, {"note": 0, "velocity": 0, "duration": 87}, {"note": 73, "velocity": 79, "duration": 966}, {"note": 0, "velocity": 0, "duration": 178}, {"note": 68, "velocity": 87, "duration": 366}, {"note": 0, "velocity": 0, "duration": 84}, {"note": 73, "velocity": 86, "duration": 173}, {"note": 0, "velocity": 0, "duration": 84}, {"note": 73, "velocity": 86, "duration": 1043}, {"note": 0, "velocity": 0, "duration": 127}, {"note": 68, "velocity": 86, "duration": 403}, {"note": 73, "velocity": 83, "duration": 167}, {"note": 0, "velocity": 0, "duration": 83}, {"note": 73, "velocity": 90, "duration": 710}, {"note": 0, "velocity": 0, "duration": 500}, {"note": 68, "velocity": 86, "duration": 407}, {"note": 0, "velocity": 0, "duration": 88}, {"note": 73, "velocity": 85, "duration": 180}, {"note": 0, "velocity": 0, "duration": 88}, {"note": 73, "velocity": 86, "duration": 990}, {"note": 0, "velocity": 0, "duration": 204}, {"note": 73, "velocity": 87, "duration": 343}, {"note": 0, "velocity": 0, "duration": 137}, {"note": 75, "velocity": 88, "duration": 230}, {"note": 77, "velocity": 86, "duration": 206}, {"note": 78, "velocity": 84, "duration": 272}, {"note": 77, "velocity": 85, "duration": 221}, {"note": 0, "velocity": 0, "duration": 259}, {"note": 78, "velocity": 88, "duration": 194}, {"note": 80, "velocity": 88, "duration": 404}, {"note": 0, "velocity": 0, "duration": 76}, {"note": 73, "velocity": 90, "duration": 412}, {"note": 0, "velocity": 0, "duration": 68}, {"note": 77, "velocity": 87, "duration": 131}, {"note": 0, "velocity": 0, "duration": 109}, {"note": 77, "velocity": 85, "duration": 127}, {"note": 0, "velocity": 0, "duration": 113}, {"note": 77, "velocity": 85, "duration": 134}, {"note": 0, "velocity": 0, "duration": 106}, {"note": 77, "velocity": 88, "duration": 236}, {"note": 0, "velocity": 0, "duration": 244}, {"note": 77, "velocity": 87, "duration": 118}, {"note": 0, "velocity": 0, "duration": 122}, {"note": 77, "velocity": 86, "duration": 123}, {"note": 0, "velocity": 0, "duration": 117}, {"note": 77, "velocity": 87, "duration": 319}, {"note": 0, "velocity": 0, "duration": 161}, {"note": 78, "velocity": 86, "duration": 141}, {"note": 0, "velocity": 0, "duration": 99}, {"note": 77, "velocity": 87, "duration": 152}, {"note": 0, "velocity": 0, "duration": 88}, {"note": 75, "velocity": 92, "duration": 319}, {"note": 0, "velocity": 0, "duration": 161}, {"note": 72, "velocity": 87, "duration": 161}, {"note": 0, "velocity": 0, "duration": 79}, {"note": 72, "velocity": 85, "duration": 173}, {"note": 0, "velocity": 0, "duration": 67}, {"note": 80, "velocity": 86, "duration": 332}, {"note": 0, "velocity": 0, "duration": 148}, {"note": 80, "velocity": 81, "duration": 133}, {"note": 0, "velocity": 0, "duration": 107}, {"note": 80, "velocity": 85, "duration": 123}, {"note": 0, "velocity": 0, "duration": 117}, {"note": 80, "velocity": 86, "duration": 261}, {"note": 0, "velocity": 0, "duration": 219}, {"note": 80, "velocity": 85, "duration": 124}, {"note": 0, "velocity": 0, "duration": 116}, {"note": 80, "velocity": 85, "duration": 176}, {"note": 0, "velocity": 0, "duration": 64}, {"note": 75, "velocity": 89, "duration": 422}, {"note": 77, "velocity": 88, "duration": 147}, {"note": 0, "velocity": 0, "duration": 93}, {"note": 75, "velocity": 86, "duration": 156}, {"note": 0, "velocity": 0, "duration": 84}, {"note": 73, "velocity": 85, "duration": 290}, {"note": 0, "velocity": 0, "duration": 190}, {"note": 70, "velocity": 83, "duration": 138}, {"note": 0, "velocity": 0, "duration": 102}, {"note": 70, "velocity": 86, "duration": 212}, {"note": 73, "velocity": 86, "duration": 122}, {"note": 0, "velocity": 0, "duration": 118}, {"note": 80, "velocity": 84, "duration": 178}, {"note": 0, "velocity": 0, "duration": 62}, {"note": 78, "velocity": 80, "duration": 124}, {"note": 0, "velocity": 0, "duration": 116}, {"note": 78, "velocity": 86, "duration": 137}, {"note": 0, "velocity": 0, "duration": 103}, {"note": 77, "velocity": 83, "duration": 139}, {"note": 0, "velocity": 0, "duration": 101}, {"note": 77, "velocity": 85, "duration": 171}, {"note": 0, "velocity": 0, "duration": 69}, {"note": 75, "velocity": 85, "duration": 133}, {"note": 0, "velocity": 0, "duration": 107}, {"note": 75, "velocity": 86, "duration": 192}, {"note": 73, "velocity": 84, "duration": 145}, {"note": 0, "velocity": 0, "duration": 95}, {"note": 77, "velocity": 87, "duration": 480}, {"note": 0, "velocity": 0, "duration": 240}, {"note": 68, "velocity": 85, "duration": 220}, {"note": 77, "velocity": 89, "duration": 343}, {"note": 0, "velocity": 0, "duration": 137}, {"note": 75, "velocity": 86, "duration": 142}, {"note": 0, "velocity": 0, "duration": 98}, {"note": 75, "velocity": 86, "duration": 633}, {"note": 0, "velocity": 0, "duration": 87}, {"note": 73, "velocity": 82, "duration": 1608}]]