[[{"note": 74, "velocity": 93, "duration": 97}, {"note": 73, "velocity": 86, "duration": 83}, {"note": 74, "velocity": 93, "duration": 237}, {"note": 0, "velocity": 0, "duration": 123}, {"note": 73, "velocity": 78, "duration": 100}, {"note": 74, "velocity": 91, "duration": 79}, {"note": 73, "velocity": 93, "duration": 95}, {"note": 74, "velocity": 92, "duration": 82}, {"note": 73, "velocity": 91, "duration": 132}, {"note": 74, "velocity": 96, "duration": 150}, {"note": 0, "velocity": 0, "duration": 90}, {"note": 78, "velocity": 92, "duration": 341}, {"note": 0, "velocity": 0, "duration": 139}, {"note": 66, "velocity": 91, "duration": 112}, {"note": 67, "velocity": 83, "duration": 718}, {"note": 0, "velocity": 0, "duration": 1102}, {"note": 73, "velocity": 91, "duration": 89}, {"note": 71, "velocity": 90, "duration": 94}, {"note": 73, "velocity": 93, "duration": 246}, {"note": 0, "velocity": 0, "duration": 84}, {"note": 71, "velocity": 92, "duration": 96}, {"note": 73, "velocity": 90, "duration": 100}, {"note": 71, "velocity": 93, "duration": 95}, {"note": 73, "velocity": 93, "duration": 91}, {"note": 71, "velocity": 92, "duration": 106}, {"note": 73, "velocity": 95, "duration": 162}, {"note": 76, "velocity": 95, "duration": 163}, {"note": 0, "velocity": 0, "duration": 80}, {"note": 76, "velocity": 95, "duration": 171}, {"note": 0, "velocity": 0, "duration": 72}, {"note": 69, "velocity": 82, "duration": 1198}, {"note": 0, "velocity": 0, "duration": 703}, {"note": 74, "velocity": 94, "duration": 92}, {"note": 73, "velocity": 91, "duration": 114}, {"note": 74, "velocity": 93, "duration": 268}, {"note": 0, "velocity": 0, "duration": 104}, {"note": 73, "velocity": 91, "duration": 118}, {"note": 74, "velocity": 93, "duration": 95}, {"note": 73, "velocity": 87, "duration": 108}, {"note": 74, "velocity": 93, "duration": 85}, {"note": 73, "velocity": 86, "duration": 139}, {"note": 74, "velocity": 93, "duration": 188}, {"note": 78, "velocity": 91, "duration": 163}, {"note": 0, "velocity": 0, "duration": 64}, {"note": 78, "velocity": 93, "duration": 191}, {"note": 79, "velocity": 92, "duration": 736}, {"note": 0, "velocity": 0, "duration": 318}, {"note": 71, "velocity": 90, "duration": 103}, {"note": 79, "velocity": 92, "duration": 179}, {"note": 0, "velocity": 0, "duration": 63}, {"note": 78, "velocity": 92, "duration": 193}, {"note": 74, "velocity": 93, "duration": 237}, {"note": 76, "velocity": 91, "duration": 537}, {"note": 0, "velocity": 0, "duration": 63}, {"note": 78, "velocity": 78, "duration": 89}, {"note": 78, "velocity": 92, "duration": 200}, {"note": 66, "velocity": 92, "duration": 159}, {"note": 0, "velocity": 0, "duration": 81}, {"note": 73, "velocity": 93, "duration": 403}, {"note": 0, "velocity": 0, "duration": 77}, {"note": 74, "velocity": 97, "duration": 239}, {"note": 71, "velocity": 79, "duration": 1038}, {"note": 0, "velocity": 0, "duration": 162}, {"note": 71, "velocity": 94, "duration": 202}, {"note": 73, "velocity": 92, "duration": 159}, {"note": 0, "velocity": 0, "duration": 81}, {"note": 73, "velocity": 92, "duration": 389}, {"note": 0, "velocity": 0, "duration": 91}, {"note": 71, "velocity": 86, "duration": 188}, {"note": 70, "velocity": 91, "duration": 80}, {"note": 73, "velocity": 90, "duration": 455}, {"note": 0, "velocity": 0, "duration": 145}, {"note": 73, "velocity": 91, "duration": 206}, {"note": 74, "velocity": 94, "duration": 179}, {"note": 0, "velocity": 0, "duration": 61}, {"note": 74, "velocity": 97, "duration": 413}, {"note": 0, "velocity": 0, "duration": 67}, {"note": 74, "velocity": 96, "duration": 169}, {"note": 0, "velocity": 0, "duration": 71}, {"note": 74, "velocity": 92, "duration": 118}, {"note": 78, "velocity": 92, "duration": 365}, {"note": 76, "velocity": 91, "duration": 78}, {"note": 74, "velocity": 95, "duration": 64}, {"note": 71, "velocity": 93, "duration": 174}, {"note": 0, "velocity": 0, "duration": 66}, {"note": 74, "velocity": 93, "duration": 90}, {"note": 78, "velocity": 92, "duration": 302}, {"note": 76, "velocity": 92, "duration": 238}, {"note": 76, "velocity": 92, "duration": 109}, {"note": 74, "velocity": 91, "duration": 63}, {"note": 71, "velocity": 93, "duration": 568}, {"note": 0, "velocity": 0, "duration": 152}, {"note": 78, "velocity": 92, "duration": 173}, {"note": 0, "velocity": 0, "duration": 67}, {"note": 79, "velocity": 91, "duration": 88}, {"note": 78, "velocity": 95, "duration": 368}, {"note": 76, "velocity": 94, "duration": 497}, {"note": 0, "velocity": 0, "duration": 103}, {"note": 74, "velocity": 92, "duration": 118}, {"note": 73, "velocity": 79, "duration": 81}, {"note": 74, "velocity": 85, "duration": 118}, {"note": 76, "velocity": 95, "duration": 169}, {"note": 0, "velocity": 0, "duration": 71}, {"note": 78, "velocity": 96, "duration": 187}, {"note": 81, "velocity": 92, "duration": 238}, {"note": 83, "velocity": 104, "duration": 773}, {"note": 0, "velocity": 0, "duration": 67}, {"note": 74, "velocity": 103, "duration": 77}, {"note": 76, "velocity": 100, "duration": 188}, {"note": 74, "velocity": 104, "duration": 200}, {"note": 73, "velocity": 103, "duration": 203}, {"note": 78, "velocity": 103, "duration": 702}, {"note": 0, "velocity": 0, "duration": 378}, {"note": 74, "velocity": 108, "duration": 68}, {"note": 74, "velocity": 104, "duration": 59}, {"note": 0, "velocity": 0, "duration": 61}, {"note": 74, "velocity": 109, "duration": 69}, {"note": 76, "velocity": 106, "duration": 164}, {"note": 0, "velocity": 0, "duration": 76}, {"note": 78, "velocity": 105, "duration": 182}, {"note": 81, "velocity": 104, "duration": 83}, {"note": 83, "velocity": 103, "duration": 804}, {"note": 0, "velocity": 0, "duration": 156}, {"note": 74, "velocity": 108, "duration": 96}, {"note": 73, "velocity": 106, "duration": 202}, {"note": 71, "velocity": 102, "duration": 209}, {"note": 73, "velocity": 102, "duration": 186}, {"note": 74, "velocity": 105, "duration": 899}, {"note": 0, "velocity": 0, "duration": 181}, {"note": 69, "velocity": 104, "duration": 94}, {"note": 74, "velocity": 107, "duration": 65}, {"note": 74, "velocity": 108, "duration": 74}, {"note": 76, "velocity": 102, "duration": 157}, {"note": 0, "velocity": 0, "duration": 83}, {"note": 78, "velocity": 104, "duration": 173}, {"note": 0, "velocity": 0, "duration": 67}, {"note": 81, "velocity": 104, "duration": 65}, {"note": 83, "velocity": 104, "duration": 182}, {"note": 83, "velocity": 102, "duration": 64}, {"note": 83, "velocity": 106, "duration": 60}, {"note": 83, "velocity": 102, "duration": 64}, {"note": 83, "velocity": 104, "duration": 67}, {"note": 83, "velocity": 103, "duration": 57}, {"note": 0, "velocity": 0, "duration": 63}, {"note": 83, "velocity": 103, "duration": 118}, {"note": 85, "velocity": 108, "duration": 296}, {"note": 0, "velocity": 0, "duration": 64}, {"note": 85, "velocity": 103, "duration": 65}, {"note": 85, "velocity": 104, "duration": 65}, {"note": 85, "velocity": 104, "duration": 216}, {"note": 83, "velocity": 103, "duration": 193}, {"note": 81, "velocity": 103, "duration": 347}, {"note": 0, "velocity": 0, "duration": 373}, {"note": 78, "velocity": 102, "duration": 136}, {"note": 83, "velocity": 103, "duration": 258}, {"note": 0, "velocity": 0, "duration": 102}, {"note": 78, "velocity": 103, "duration": 177}, {"note": 0, "velocity": 0, "duration": 63}, {"note": 76, "velocity": 103, "duration": 249}, {"note": 74, "velocity": 106, "duration": 230}, {"note": 71, "velocity": 103, "duration": 526}, {"note": 0, "velocity": 0, "duration": 194}, {"note": 71, "velocity": 102, "duration": 87}, {"note": 74, "velocity": 104, "duration": 70}, {"note": 76, "velocity": 101, "duration": 84}, {"note": 74, "velocity": 103, "duration": 70}, {"note": 76, "velocity": 100, "duration": 110}, {"note": 74, "velocity": 105, "duration": 68}, {"note": 76, "velocity": 107, "duration": 152}, {"note": 0, "velocity": 0, "duration": 88}, {"note": 78, "velocity": 103, "duration": 196}, {"note": 74, "velocity": 103, "duration": 1765}, {"note": 0, "velocity": 0, "duration": 4235}, {"note": 74, "velocity": 93, "duration": 97}, {"note": 73, "velocity": 86, "duration": 83}, {"note": 74, "velocity": 93, "duration": 237}, {"note": 0, "velocity": 0, "duration": 123}, {"note": 73, "velocity": 78, "duration": 100}, {"note": 74, "velocity": 91, "duration": 79}, {"note": 73, "velocity": 93, "duration": 95}, {"note": 74, "velocity": 92, "duration": 82}, {"note": 73, "velocity": 91, "duration": 132}, {"note": 74, "velocity": 96, "duration": 150}, {"note": 0, "velocity": 0, "duration": 90}, {"note": 78, "velocity": 92, "duration": 341}, {"note": 0, "velocity": 0, "duration": 139}, {"note": 66, "velocity": 91, "duration": 112}, {"note": 67, "velocity": 83, "duration": 718}, {"note": 0, "velocity": 0, "duration": 1102}, {"note": 73, "velocity": 91, "duration": 89}, {"note": 71, "velocity": 90, "duration": 94}, {"note": 73, "velocity": 93, "duration": 246}, {"note": 0, "velocity": 0, "duration": 84}, {"note": 71, "velocity": 92, "duration": 96}, {"note": 73, "velocity": 90, "duration": 100}, {"note": 71, "velocity": 93, "duration": 95}, {"note": 73, "velocity": 93, "duration": 91}, {"note": 71, "velocity": 92, "duration": 106}, {"note": 73, "velocity": 95, "duration": 162}, {"note": 76, "velocity": 95, "duration": 163}, {"note": 0, "velocity": 0, "duration": 80}, {"note": 76, "velocity": 95, "duration": 171}, {"note": 0, "velocity": 0, "duration": 72}, {"note": 69, "velocity": 82, "duration": 1198}, {"note": 0, "velocity": 0, "duration": 703}, {"note": 74, "velocity": 94, "duration": 92}, {"note": 73, "velocity": 91, "duration": 114}, {"note": 74, "velocity": 93, "duration": 268}, {"note": 0, "velocity": 0, "duration": 104}, {"note": 73, "velocity": 91, "duration": 118}, {"note": 74, "velocity": 93, "duration": 95}, {"note": 73, "velocity": 87, "duration": 108}, {"note": 74, "velocity": 93, "duration": 85}, {"note": 73, "velocity": 86, "duration": 139}, {"note": 74, "velocity": 93, "duration": 188}, {"note": 78, "velocity": 91, "duration": 163}, {"note": 0, "velocity": 0, "duration": 64}, {"note": 78, "velocity": 93, "duration": 191}, {"note": 79, "velocity": 92, "duration": 736}, {"note": 0, "velocity": 0, "duration": 318}, {"note": 71, "velocity": 90, "duration": 103}, {"note": 79, "velocity": 92, "duration": 179}, {"note": 0, "velocity": 0, "duration": 63}, {"note": 78, "velocity": 92, "duration": 193}, {"note": 74, "velocity": 93, "duration": 237}, {"note": 76, "velocity": 91, "duration": 537}, {"note": 0, "velocity": 0, "duration": 63}, {"note": 78, "velocity": 78, "duration": 89}, {"note": 78, "velocity": 92, "duration": 200}, {"note": 66, "velocity": 92, "duration": 159}, {"note": 0, "velocity": 0, "duration": 81}, {"note": 73, "velocity": 93, "duration": 403}, {"note": 0, "velocity": 0, "duration": 77}, {"note": 74, "velocity": 97, "duration": 239}, {"note": 71, "velocity": 79, "duration": 1038}, {"note": 0, "velocity": 0, "duration": 162}, {"note": 71, "velocity": 94, "duration": 202}, {"note": 73, "velocity": 92, "duration": 159}, {"note": 0, "velocity": 0, "duration": 81}, {"note": 73, "velocity": 92, "duration": 389}, {"note": 0, "velocity": 0, "duration": 91}, {"note": 71, "velocity": 86, "duration": 188}, {"note": 70, "velocity": 91, "duration": 80}, {"note": 73, "velocity": 90, "duration": 455}, {"note": 0, "velocity": 0, "duration": 145}, {"note": 73, "velocity": 91, "duration": 206}, {"note": 74, "velocity": 94, "duration": 179}, {"note": 0, "velocity": 0, "duration": 61}, {"note": 74, "velocity": 97, "duration": 413}, {"note": 0, "velocity": 0, "duration": 67}, {"note": 74, "velocity": 96, "duration": 169}, {"note": 0, "velocity": 0, "duration": 71}, {"note": 74, "velocity": 92, "duration": 118}, {"note": 78, "velocity": 92, "duration": 365}, {"note": 76, "velocity": 91, "duration": 78}, {"note": 74, "velocity": 95, "duration": 64}, {"note": 71, "velocity": 93, "duration": 174}, {"note": 0, "velocity": 0, "duration": 66}, {"note": 74, "velocity": 93, "duration": 90}, {"note": 78, "velocity": 92, "duration": 302}, {"note": 76, "velocity": 92, "duration": 238}, {"note": 76, "velocity": 92, "duration": 109}, {"note": 74, "velocity": 91, "duration": 63}, {"note": 71, "velocity": 93, "duration": 568}, {"note": 0, "velocity": 0, "duration": 152}, {"note": 78, "velocity": 92, "duration": 173}, {"note": 0, "velocity": 0, "duration": 67}, {"note": 79, "velocity": 91, "duration": 88}, {"note": 78, "velocity": 95, "duration": 368}, {"note": 76, "velocity": 94, "duration": 497}, {"note": 0, "velocity": 0, "duration": 103}, {"note": 74, "velocity": 92, "duration": 118}, {"note": 73, "velocity": 79, "duration": 81}, {"note": 74, "velocity": 85, "duration": 118}, {"note": 76, "velocity": 95, "duration": 169}, {"note": 0, "velocity": 0, "duration": 71}, {"note": 78, "velocity": 96, "duration": 187}, {"note": 81, "velocity": 92, "duration": 238}, {"note": 83, "velocity": 101, "duration": 773}, {"note": 0, "velocity": 0, "duration": 67}, {"note": 74, "velocity": 100, "duration": 77}, {"note": 76, "velocity": 97, "duration": 188}, {"note": 74, "velocity": 101, "duration": 200}, {"note": 73, "velocity": 100, "duration": 203}, {"note": 78, "velocity": 100, "duration": 702}, {"note": 0, "velocity": 0, "duration": 378}, {"note": 74, "velocity": 105, "duration": 68}, {"note": 74, "velocity": 101, "duration": 59}, {"note": 0, "velocity": 0, "duration": 61}, {"note": 74, "velocity": 106, "duration": 69}, {"note": 76, "velocity": 103, "duration": 164}, {"note": 0, "velocity": 0, "duration": 76}, {"note": 78, "velocity": 102, "duration": 182}, {"note": 81, "velocity": 101, "duration": 83}, {"note": 83, "velocity": 100, "duration": 804}, {"note": 0, "velocity": 0, "duration": 156}, {"note": 74, "velocity": 105, "duration": 96}, {"note": 73, "velocity": 103, "duration": 202}, {"note": 71, "velocity": 99, "duration": 209}, {"note": 73, "velocity": 99, "duration": 186}, {"note": 74, "velocity": 102, "duration": 899}, {"note": 0, "velocity": 0, "duration": 181}, {"note": 69, "velocity": 101, "duration": 94}, {"note": 74, "velocity": 104, "duration": 65}, {"note": 74, "velocity": 105, "duration": 74}, {"note": 76, "velocity": 99, "duration": 157}, {"note": 0, "velocity": 0, "duration": 83}, {"note": 78, "velocity": 101, "duration": 173}, {"note": 0, "velocity": 0, "duration": 67}, {"note": 81, "velocity": 101, "duration": 65}, {"note": 83, "velocity": 101, "duration": 182}, {"note": 83, "velocity": 99, "duration": 64}, {"note": 83, "velocity": 103, "duration": 60}, {"note": 83, "velocity": 99, "duration": 64}, {"note": 83, "velocity": 101, "duration": 67}, {"note": 83, "velocity": 100, "duration": 57}, {"note": 0, "velocity": 0, "duration": 63}, {"note": 83, "velocity": 100, "duration": 118}, {"note": 85, "velocity": 105, "duration": 296}, {"note": 0, "velocity": 0, "duration": 64}, {"note": 85, "velocity": 100, "duration": 65}, {"note": 85, "velocity": 101, "duration": 65}, {"note": 85, "velocity": 101, "duration": 216}, {"note": 83, "velocity": 100, "duration": 193}, {"note": 81, "velocity": 100, "duration": 347}, {"note": 0, "velocity": 0, "duration": 373}, {"note": 78, "velocity": 99, "duration": 136}, {"note": 83, "velocity": 100, "duration": 258}, {"note": 0, "velocity": 0, "duration": 102}, {"note": 78, "velocity": 100, "duration": 177}, {"note": 0, "velocity": 0, "duration": 63}, {"note": 76, "velocity": 100, "duration": 249}, {"note": 74, "velocity": 103, "duration": 230}, {"note": 71, "velocity": 100, "duration": 526}, {"note": 0, "velocity": 0, "duration": 194}, {"note": 71, "velocity": 99, "duration": 87}, {"note": 74, "velocity": 101, "duration": 70}, {"note": 76, "velocity": 98, "duration": 84}, {"note": 74, "velocity": 100, "duration": 70}, {"note": 76, "velocity": 97, "duration": 110}, {"note": 74, "velocity": 102, "duration": 68}, {"note": 76, "velocity": 104, "duration": 152}, {"note": 0, "velocity": 0, "duration": 88}, {"note": 78, "velocity": 100, "duration": 196}, {"note": 74, "velocity": 100, "duration": 1765}, {"note": 0, "velocity": 0, "duration": 395}, {"note": 74, "velocity": 92, "duration": 112}, {"note": 71, "velocity": 97, "duration": 88}, {"note": 74, "velocity": 94, "duration": 276}, {"note": 0, "velocity": 0, "duration": 84}, {"note": 83, "velocity": 88, "duration": 79}, {"note": 83, "velocity": 93, "duration": 153}, {"note": 0, "velocity": 0, "duration": 87}, {"note": 81, "velocity": 91, "duration": 150}, {"note": 0, "velocity": 0, "duration": 90}, {"note": 79, "velocity": 93, "duration": 478}, {"note": 0, "velocity": 0, "duration": 242}, {"note": 73, "velocity": 93, "duration": 80}, {"note": 71, "velocity": 94, "duration": 65}, {"note": 73, "velocity": 95, "duration": 274}, {"note": 0, "velocity": 0, "duration": 86}, {"note": 79, "velocity": 91, "duration": 71}, {"note": 79, "velocity": 92, "duration": 177}, {"note": 0, "velocity": 0, "duration": 63}, {"note": 78, "velocity": 89, "duration": 89}, {"note": 76, "velocity": 93, "duration": 281}, {"note": 0, "velocity": 0, "duration": 79}, {"note": 78, "velocity": 94, "duration": 118}, {"note": 79, "velocity": 95, "duration": 118}, {"note": 81, "velocity": 92, "duration": 598}, {"note": 78, "velocity": 92, "duration": 116}, {"note": 79, "velocity": 92, "duration": 87}, {"note": 81, "velocity": 85, "duration": 509}, {"note": 0, "velocity": 0, "duration": 91}, {"note": 76, "velocity": 97, "duration": 194}, {"note": 78, "velocity": 92, "duration": 120}, {"note": 76, "velocity": 92, "duration": 235}, {"note": 74, "velocity": 92, "duration": 1167}, {"note": 0, "velocity": 0, "duration": 513}, {"note": 78, "velocity": 92, "duration": 97}, {"note": 76, "velocity": 93, "duration": 162}, {"note": 0, "velocity": 0, "duration": 78}, {"note": 74, "velocity": 94, "duration": 66}, {"note": 71, "velocity": 91, "duration": 63}, {"note": 74, "velocity": 92, "duration": 191}, {"note": 71, "velocity": 89, "duration": 72}, {"note": 74, "velocity": 96, "duration": 232}, {"note": 71, "velocity": 92, "duration": 118}, {"note": 71, "velocity": 92, "duration": 238}, {"note": 0, "velocity": 0, "duration": 362}, {"note": 76, "velocity": 93, "duration": 94}, {"note": 83, "velocity": 92, "duration": 81}, {"note": 81, "velocity": 91, "duration": 53}, {"note": 0, "velocity": 0, "duration": 67}, {"note": 81, "velocity": 91, "duration": 71}, {"note": 78, "velocity": 92, "duration": 79}, {"note": 81, "velocity": 92, "duration": 179}, {"note": 0, "velocity": 0, "duration": 61}, {"note": 78, "velocity": 95, "duration": 70}, {"note": 81, "velocity": 92, "duration": 229}, {"note": 0, "velocity": 0, "duration": 131}, {"note": 83, "velocity": 93, "duration": 1418}, {"note": 0, "velocity": 0, "duration": 142}, {"note": 74, "velocity": 95, "duration": 187}, {"note": 74, "velocity": 92, "duration": 65}, {"note": 76, "velocity": 93, "duration": 159}, {"note": 0, "velocity": 0, "duration": 81}, {"note": 78, "velocity": 92, "duration": 176}, {"note": 0, "velocity": 0, "duration": 64}, {"note": 81, "velocity": 95, "duration": 175}, {"note": 0, "velocity": 0, "duration": 65}, {"note": 83, "velocity": 92, "duration": 520}, {"note": 0, "velocity": 0, "duration": 320}, {"note": 74, "velocity": 92, "duration": 91}, {"note": 76, "velocity": 92, "duration": 177}, {"note": 0, "velocity": 0, "duration": 63}, {"note": 74, "velocity": 93, "duration": 208}, {"note": 73, "velocity": 92, "duration": 196}, {"note": 78, "velocity": 91, "duration": 759}, {"note": 0, "velocity": 0, "duration": 321}, {"note": 74, "velocity": 94, "duration": 179}, {"note": 0, "velocity": 0, "duration": 61}, {"note": 74, "velocity": 92, "duration": 69}, {"note": 76, "velocity": 93, "duration": 174}, {"note": 0, "velocity": 0, "duration": 66}, {"note": 78, "velocity": 92, "duration": 191}, {"note": 81, "velocity": 91, "duration": 176}, {"note": 0, "velocity": 0, "duration": 64}, {"note": 83, "velocity": 89, "duration": 541}, {"note": 0, "velocity": 0, "duration": 299}, {"note": 74, "velocity": 91, "duration": 97}, {"note": 73, "velocity": 91, "duration": 192}, {"note": 71, "velocity": 92, "duration": 188}, {"note": 73, "velocity": 90, "duration": 180}, {"note": 74, "velocity": 93, "duration": 248}, {"note": 0, "velocity": 0, "duration": 112}, {"note": 74, "velocity": 91, "duration": 74}, {"note": 74, "velocity": 93, "duration": 77}, {"note": 74, "velocity": 93, "duration": 72}, {"note": 74, "velocity": 95, "duration": 65}, {"note": 76, "velocity": 92, "duration": 176}, {"note": 0, "velocity": 0, "duration": 64}, {"note": 78, "velocity": 93, "duration": 181}, {"note": 74, "velocity": 92, "duration": 59}, {"note": 0, "velocity": 0, "duration": 61}, {"note": 74, "velocity": 92, "duration": 56}, {"note": 0, "velocity": 0, "duration": 64}, {"note": 74, "velocity": 92, "duration": 59}, {"note": 0, "velocity": 0, "duration": 61}, {"note": 74, "velocity": 93, "duration": 68}, {"note": 83, "velocity": 93, "duration": 197}, {"note": 81, "velocity": 92, "duration": 238}, {"note": 79, "velocity": 80, "duration": 59}, {"note": 0, "velocity": 0, "duration": 61}, {"note": 79, "velocity": 86, "duration": 60}, {"note": 79, "velocity": 87, "duration": 63}, {"note": 79, "velocity": 91, "duration": 110}, {"note": 78, "velocity": 93, "duration": 187}, {"note": 81, "velocity": 92, "duration": 182}, {"note": 79, "velocity": 83, "duration": 56}, {"note": 0, "velocity": 0, "duration": 64}, {"note": 79, "velocity": 89, "duration": 54}, {"note": 0, "velocity": 0, "duration": 66}, {"note": 79, "velocity": 87, "duration": 63}, {"note": 79, "velocity": 89, "duration": 83}, {"note": 78, "velocity": 89, "duration": 186}, {"note": 81, "velocity": 92, "duration": 188}, {"note": 81, "velocity": 84, "duration": 60}, {"note": 81, "velocity": 91, "duration": 62}, {"note": 78, "velocity": 84, "duration": 76}, {"note": 81, "velocity": 87, "duration": 89}, {"note": 85, "velocity": 91, "duration": 217}, {"note": 83, "velocity": 91, "duration": 1078}, {"note": 0, "velocity": 0, "duration": 482}, {"note": 78, "velocity": 86, "duration": 189}, {"note": 76, "velocity": 88, "duration": 191}, {"note": 74, "velocity": 92, "duration": 237}, {"note": 71, "velocity": 91, "duration": 398}, {"note": 0, "velocity": 0, "duration": 82}, {"note": 74, "velocity": 93, "duration": 153}, {"note": 0, "velocity": 0, "duration": 87}, {"note": 76, "velocity": 87, "duration": 98}, {"note": 74, "velocity": 89, "duration": 76}, {"note": 76, "velocity": 91, "duration": 115}, {"note": 74, "velocity": 90, "duration": 74}, {"note": 76, "velocity": 91, "duration": 188}, {"note": 78, "velocity": 87, "duration": 200}, {"note": 78, "velocity": 87, "duration": 1215}, {"note": 0, "velocity": 0, "duration": 225}, {"note": 78, "velocity": 87, "duration": 201}, {"note": 76, "velocity": 92, "duration": 167}, {"note": 0, "velocity": 0, "duration": 73}, {"note": 74, "velocity": 93, "duration": 237}, {"note": 71, "velocity": 91, "duration": 524}, {"note": 0, "velocity": 0, "duration": 82}, {"note": 74, "velocity": 95, "duration": 104}, {"note": 0, "velocity": 0, "duration": 63}, {"note": 76, "velocity": 92, "duration": 123}, {"note": 74, "velocity": 92, "duration": 94}, {"note": 0, "velocity": 0, "duration": 69}, {"note": 76, "velocity": 92, "duration": 990}, {"note": 0, "velocity": 0, "duration": 613}, {"note": 74, "velocity": 95, "duration": 156}, {"note": 0, "velocity": 0, "duration": 104}, {"note": 76, "velocity": 92, "duration": 785}, {"note": 0, "velocity": 0, "duration": 534}, {"note": 78, "velocity": 89, "duration": 457}, {"note": 0, "velocity": 0, "duration": 67}, {"note": 78, "velocity": 91, "duration": 801}]]