[[{"note": 78, "velocity": 84, "duration": 191}, {"note": 78, "velocity": 84, "duration": 73}, {"note": 78, "velocity": 82, "duration": 319}, {"note": 78, "velocity": 84, "duration": 81}, {"note": 79, "velocity": 79, "duration": 285}, {"note": 0, "velocity": 0, "duration": 75}, {"note": 78, "velocity": 86, "duration": 214}, {"note": 76, "velocity": 84, "duration": 216}, {"note": 74, "velocity": 87, "duration": 215}, {"note": 78, "velocity": 78, "duration": 178}, {"note": 0, "velocity": 0, "duration": 62}, {"note": 78, "velocity": 83, "duration": 72}, {"note": 78, "velocity": 79, "duration": 331}, {"note": 79, "velocity": 83, "duration": 167}, {"note": 0, "velocity": 0, "duration": 73}, {"note": 79, "velocity": 83, "duration": 252}, {"note": 78, "velocity": 71, "duration": 558}, {"note": 0, "velocity": 0, "duration": 162}, {"note": 78, "velocity": 83, "duration": 191}, {"note": 78, "velocity": 82, "duration": 77}, {"note": 78, "velocity": 77, "duration": 303}, {"note": 78, "velocity": 75, "duration": 78}, {"note": 79, "velocity": 79, "duration": 312}, {"note": 78, "velocity": 83, "duration": 187}, {"note": 76, "velocity": 83, "duration": 212}, {"note": 74, "velocity": 87, "duration": 204}, {"note": 78, "velocity": 85, "duration": 240}, {"note": 71, "velocity": 84, "duration": 118}, {"note": 74, "velocity": 84, "duration": 823}, {"note": 0, "velocity": 0, "duration": 257}, {"note": 76, "velocity": 84, "duration": 215}, {"note": 74, "velocity": 85, "duration": 252}, {"note": 81, "velocity": 83, "duration": 523}, {"note": 0, "velocity": 0, "duration": 197}, {"note": 73, "velocity": 71, "duration": 127}, {"note": 0, "velocity": 0, "duration": 113}, {"note": 74, "velocity": 85, "duration": 718}, {"note": 76, "velocity": 80, "duration": 111}, {"note": 74, "velocity": 83, "duration": 178}, {"note": 81, "velocity": 69, "duration": 238}, {"note": 81, "velocity": 82, "duration": 76}, {"note": 81, "velocity": 79, "duration": 321}, {"note": 73, "velocity": 84, "duration": 243}, {"note": 74, "velocity": 82, "duration": 385}, {"note": 0, "velocity": 0, "duration": 95}, {"note": 74, "velocity": 94, "duration": 206}, {"note": 76, "velocity": 84, "duration": 160}, {"note": 0, "velocity": 0, "duration": 80}, {"note": 78, "velocity": 84, "duration": 315}, {"note": 79, "velocity": 81, "duration": 848}, {"note": 0, "velocity": 0, "duration": 112}, {"note": 74, "velocity": 85, "duration": 106}, {"note": 79, "velocity": 83, "duration": 191}, {"note": 78, "velocity": 85, "duration": 478}, {"note": 0, "velocity": 0, "duration": 242}, {"note": 74, "velocity": 86, "duration": 238}, {"note": 76, "velocity": 79, "duration": 1093}, {"note": 0, "velocity": 0, "duration": 107}, {"note": 78, "velocity": 84, "duration": 191}, {"note": 78, "velocity": 84, "duration": 73}, {"note": 78, "velocity": 82, "duration": 319}, {"note": 78, "velocity": 84, "duration": 81}, {"note": 79, "velocity": 79, "duration": 285}, {"note": 0, "velocity": 0, "duration": 75}, {"note": 78, "velocity": 86, "duration": 214}, {"note": 76, "velocity": 84, "duration": 216}, {"note": 74, "velocity": 87, "duration": 215}, {"note": 78, "velocity": 78, "duration": 178}, {"note": 0, "velocity": 0, "duration": 62}, {"note": 78, "velocity": 83, "duration": 72}, {"note": 78, "velocity": 79, "duration": 331}, {"note": 79, "velocity": 83, "duration": 167}, {"note": 0, "velocity": 0, "duration": 73}, {"note": 79, "velocity": 83, "duration": 252}, {"note": 78, "velocity": 71, "duration": 558}, {"note": 0, "velocity": 0, "duration": 162}, {"note": 78, "velocity": 83, "duration": 191}, {"note": 78, "velocity": 82, "duration": 77}, {"note": 78, "velocity": 77, "duration": 303}, {"note": 78, "velocity": 75, "duration": 78}, {"note": 79, "velocity": 79, "duration": 312}, {"note": 78, "velocity": 83, "duration": 187}, {"note": 76, "velocity": 83, "duration": 212}, {"note": 74, "velocity": 87, "duration": 204}, {"note": 78, "velocity": 85, "duration": 240}, {"note": 71, "velocity": 84, "duration": 118}, {"note": 74, "velocity": 84, "duration": 823}, {"note": 0, "velocity": 0, "duration": 257}, {"note": 76, "velocity": 84, "duration": 215}, {"note": 74, "velocity": 85, "duration": 252}, {"note": 81, "velocity": 83, "duration": 523}, {"note": 0, "velocity": 0, "duration": 197}, {"note": 73, "velocity": 71, "duration": 127}, {"note": 0, "velocity": 0, "duration": 113}, {"note": 74, "velocity": 85, "duration": 718}, {"note": 76, "velocity": 80, "duration": 111}, {"note": 74, "velocity": 83, "duration": 178}, {"note": 81, "velocity": 69, "duration": 238}, {"note": 81, "velocity": 82, "duration": 76}, {"note": 81, "velocity": 79, "duration": 321}, {"note": 73, "velocity": 84, "duration": 243}, {"note": 74, "velocity": 82, "duration": 358}, {"note": 73, "velocity": 84, "duration": 118}, {"note": 74, "velocity": 94, "duration": 206}, {"note": 76, "velocity": 84, "duration": 118}, {"note": 78, "velocity": 84, "duration": 118}, {"note": 79, "velocity": 84, "duration": 238}, {"note": 78, "velocity": 84, "duration": 238}, {"note": 79, "velocity": 81, "duration": 358}, {"note": 78, "velocity": 83, "duration": 100}, {"note": 79, "velocity": 84, "duration": 214}, {"note": 78, "velocity": 85, "duration": 86}, {"note": 79, "velocity": 84, "duration": 287}, {"note": 0, "velocity": 0, "duration": 73}, {"note": 81, "velocity": 85, "duration": 165}, {"note": 0, "velocity": 0, "duration": 75}, {"note": 81, "velocity": 84, "duration": 937}, {"note": 78, "velocity": 87, "duration": 391}, {"note": 0, "velocity": 0, "duration": 89}, {"note": 79, "velocity": 84, "duration": 409}, {"note": 0, "velocity": 0, "duration": 71}, {"note": 81, "velocity": 73, "duration": 589}, {"note": 0, "velocity": 0, "duration": 131}, {"note": 74, "velocity": 88, "duration": 200}, {"note": 73, "velocity": 86, "duration": 220}, {"note": 74, "velocity": 84, "duration": 229}, {"note": 78, "velocity": 85, "duration": 210}, {"note": 83, "velocity": 82, "duration": 171}, {"note": 0, "velocity": 0, "duration": 69}, {"note": 83, "velocity": 87, "duration": 711}, {"note": 78, "velocity": 84, "duration": 242}, {"note": 81, "velocity": 86, "duration": 572}, {"note": 78, "velocity": 84, "duration": 64}, {"note": 83, "velocity": 85, "duration": 59}, {"note": 0, "velocity": 0, "duration": 61}, {"note": 85, "velocity": 89, "duration": 73}, {"note": 86, "velocity": 85, "duration": 163}, {"note": 0, "velocity": 0, "duration": 77}, {"note": 85, "velocity": 88, "duration": 181}, {"note": 83, "velocity": 84, "duration": 200}, {"note": 81, "velocity": 84, "duration": 86}, {"note": 83, "velocity": 83, "duration": 238}, {"note": 81, "velocity": 79, "duration": 201}, {"note": 0, "velocity": 0, "duration": 159}, {"note": 78, "velocity": 83, "duration": 180}, {"note": 81, "velocity": 85, "duration": 163}, {"note": 0, "velocity": 0, "duration": 77}, {"note": 78, "velocity": 84, "duration": 198}, {"note": 76, "velocity": 83, "duration": 75}, {"note": 76, "velocity": 82, "duration": 1078}, {"note": 0, "velocity": 0, "duration": 362}, {"note": 74, "velocity": 87, "duration": 114}, {"note": 76, "velocity": 85, "duration": 188}, {"note": 76, "velocity": 84, "duration": 109}, {"note": 81, "velocity": 83, "duration": 351}, {"note": 73, "velocity": 78, "duration": 238}, {"note": 74, "velocity": 87, "duration": 749}, {"note": 0, "velocity": 0, "duration": 91}, {"note": 74, "velocity": 85, "duration": 91}, {"note": 76, "velocity": 85, "duration": 180}, {"note": 76, "velocity": 82, "duration": 100}, {"note": 83, "velocity": 83, "duration": 327}, {"note": 81, "velocity": 81, "duration": 117}, {"note": 78, "velocity": 84, "duration": 589}, {"note": 0, "velocity": 0, "duration": 138}, {"note": 71, "velocity": 84, "duration": 29}, {"note": 0, "velocity": 0, "duration": 84}, {"note": 71, "velocity": 85, "duration": 76}, {"note": 74, "velocity": 85, "duration": 76}, {"note": 78, "velocity": 67, "duration": 210}, {"note": 76, "velocity": 83, "duration": 86}, {"note": 76, "velocity": 83, "duration": 238}, {"note": 76, "velocity": 84, "duration": 188}, {"note": 74, "velocity": 87, "duration": 81}, {"note": 78, "velocity": 85, "duration": 181}, {"note": 76, "velocity": 83, "duration": 238}, {"note": 76, "velocity": 84, "duration": 198}, {"note": 74, "velocity": 85, "duration": 238}, {"note": 83, "velocity": 84, "duration": 478}, {"note": 81, "velocity": 80, "duration": 478}, {"note": 78, "velocity": 87, "duration": 391}, {"note": 0, "velocity": 0, "duration": 89}, {"note": 79, "velocity": 84, "duration": 409}, {"note": 0, "velocity": 0, "duration": 71}, {"note": 81, "velocity": 73, "duration": 589}, {"note": 0, "velocity": 0, "duration": 131}, {"note": 74, "velocity": 88, "duration": 200}, {"note": 73, "velocity": 86, "duration": 220}, {"note": 74, "velocity": 84, "duration": 229}, {"note": 78, "velocity": 85, "duration": 210}, {"note": 83, "velocity": 82, "duration": 171}, {"note": 0, "velocity": 0, "duration": 69}, {"note": 83, "velocity": 87, "duration": 711}, {"note": 78, "velocity": 84, "duration": 242}, {"note": 81, "velocity": 86, "duration": 572}, {"note": 78, "velocity": 84, "duration": 64}, {"note": 83, "velocity": 85, "duration": 59}, {"note": 0, "velocity": 0, "duration": 61}, {"note": 85, "velocity": 89, "duration": 73}, {"note": 86, "velocity": 85, "duration": 163}, {"note": 0, "velocity": 0, "duration": 77}, {"note": 85, "velocity": 88, "duration": 181}, {"note": 83, "velocity": 84, "duration": 200}, {"note": 81, "velocity": 84, "duration": 86}, {"note": 83, "velocity": 83, "duration": 238}, {"note": 81, "velocity": 79, "duration": 201}, {"note": 0, "velocity": 0, "duration": 159}, {"note": 78, "velocity": 83, "duration": 180}, {"note": 81, "velocity": 85, "duration": 163}, {"note": 0, "velocity": 0, "duration": 77}, {"note": 78, "velocity": 84, "duration": 198}, {"note": 76, "velocity": 83, "duration": 75}, {"note": 76, "velocity": 82, "duration": 1078}, {"note": 0, "velocity": 0, "duration": 362}, {"note": 74, "velocity": 87, "duration": 114}, {"note": 76, "velocity": 85, "duration": 188}, {"note": 76, "velocity": 84, "duration": 109}, {"note": 81, "velocity": 83, "duration": 351}, {"note": 73, "velocity": 78, "duration": 238}, {"note": 74, "velocity": 87, "duration": 749}, {"note": 0, "velocity": 0, "duration": 91}, {"note": 74, "velocity": 85, "duration": 91}, {"note": 76, "velocity": 85, "duration": 180}, {"note": 76, "velocity": 82, "duration": 100}, {"note": 83, "velocity": 83, "duration": 327}, {"note": 81, "velocity": 81, "duration": 117}, {"note": 78, "velocity": 84, "duration": 589}, {"note": 0, "velocity": 0, "duration": 138}, {"note": 71, "velocity": 84, "duration": 29}, {"note": 0, "velocity": 0, "duration": 84}, {"note": 71, "velocity": 85, "duration": 76}, {"note": 74, "velocity": 85, "duration": 76}, {"note": 78, "velocity": 67, "duration": 210}, {"note": 76, "velocity": 83, "duration": 86}, {"note": 76, "velocity": 83, "duration": 238}, {"note": 81, "velocity": 84, "duration": 188}, {"note": 0, "velocity": 0, "duration": 172}, {"note": 78, "velocity": 85, "duration": 181}, {"note": 76, "velocity": 83, "duration": 238}, {"note": 76, "velocity": 84, "duration": 478}, {"note": 71, "velocity": 84, "duration": 478}, {"note": 74, "velocity": 80, "duration": 958}, {"note": 0, "velocity": 0, "duration": 8162}, {"note": 78, "velocity": 84, "duration": 191}, {"note": 78, "velocity": 84, "duration": 73}, {"note": 78, "velocity": 82, "duration": 319}, {"note": 78, "velocity": 84, "duration": 81}, {"note": 79, "velocity": 79, "duration": 285}, {"note": 0, "velocity": 0, "duration": 75}, {"note": 78, "velocity": 86, "duration": 214}, {"note": 76, "velocity": 84, "duration": 216}, {"note": 74, "velocity": 87, "duration": 215}, {"note": 78, "velocity": 78, "duration": 178}, {"note": 0, "velocity": 0, "duration": 62}, {"note": 78, "velocity": 83, "duration": 72}, {"note": 78, "velocity": 79, "duration": 331}, {"note": 79, "velocity": 83, "duration": 167}, {"note": 0, "velocity": 0, "duration": 73}, {"note": 79, "velocity": 83, "duration": 252}, {"note": 78, "velocity": 71, "duration": 558}, {"note": 0, "velocity": 0, "duration": 162}, {"note": 78, "velocity": 83, "duration": 191}, {"note": 78, "velocity": 82, "duration": 77}, {"note": 78, "velocity": 77, "duration": 303}, {"note": 78, "velocity": 75, "duration": 78}, {"note": 79, "velocity": 79, "duration": 312}, {"note": 78, "velocity": 83, "duration": 187}, {"note": 76, "velocity": 83, "duration": 212}, {"note": 74, "velocity": 87, "duration": 204}, {"note": 78, "velocity": 85, "duration": 240}, {"note": 71, "velocity": 84, "duration": 118}, {"note": 74, "velocity": 84, "duration": 823}, {"note": 0, "velocity": 0, "duration": 257}, {"note": 76, "velocity": 84, "duration": 215}, {"note": 74, "velocity": 85, "duration": 252}, {"note": 81, "velocity": 83, "duration": 523}, {"note": 0, "velocity": 0, "duration": 197}, {"note": 73, "velocity": 71, "duration": 127}, {"note": 0, "velocity": 0, "duration": 113}, {"note": 74, "velocity": 85, "duration": 718}, {"note": 76, "velocity": 80, "duration": 111}, {"note": 74, "velocity": 83, "duration": 178}, {"note": 81, "velocity": 69, "duration": 238}, {"note": 81, "velocity": 82, "duration": 76}, {"note": 81, "velocity": 79, "duration": 321}, {"note": 73, "velocity": 84, "duration": 243}, {"note": 74, "velocity": 82, "duration": 358}, {"note": 73, "velocity": 84, "duration": 118}, {"note": 74, "velocity": 94, "duration": 206}, {"note": 76, "velocity": 84, "duration": 118}, {"note": 78, "velocity": 84, "duration": 118}, {"note": 79, "velocity": 84, "duration": 238}, {"note": 78, "velocity": 84, "duration": 238}, {"note": 79, "velocity": 81, "duration": 358}, {"note": 78, "velocity": 83, "duration": 100}, {"note": 79, "velocity": 84, "duration": 214}, {"note": 78, "velocity": 85, "duration": 86}, {"note": 79, "velocity": 84, "duration": 287}, {"note": 0, "velocity": 0, "duration": 73}, {"note": 81, "velocity": 85, "duration": 165}, {"note": 0, "velocity": 0, "duration": 75}, {"note": 81, "velocity": 84, "duration": 937}, {"note": 78, "velocity": 87, "duration": 391}, {"note": 0, "velocity": 0, "duration": 89}, {"note": 79, "velocity": 84, "duration": 409}, {"note": 0, "velocity": 0, "duration": 71}, {"note": 81, "velocity": 73, "duration": 589}, {"note": 0, "velocity": 0, "duration": 131}, {"note": 74, "velocity": 88, "duration": 200}, {"note": 73, "velocity": 86, "duration": 220}, {"note": 74, "velocity": 84, "duration": 229}, {"note": 78, "velocity": 85, "duration": 210}, {"note": 83, "velocity": 82, "duration": 171}, {"note": 0, "velocity": 0, "duration": 69}, {"note": 83, "velocity": 87, "duration": 711}, {"note": 78, "velocity": 84, "duration": 242}, {"note": 81, "velocity": 86, "duration": 572}, {"note": 78, "velocity": 84, "duration": 64}, {"note": 83, "velocity": 85, "duration": 59}, {"note": 0, "velocity": 0, "duration": 61}, {"note": 85, "velocity": 89, "duration": 73}, {"note": 86, "velocity": 85, "duration": 163}, {"note": 0, "velocity": 0, "duration": 77}, {"note": 85, "velocity": 88, "duration": 181}, {"note": 83, "velocity": 84, "duration": 200}, {"note": 81, "velocity": 84, "duration": 86}, {"note": 83, "velocity": 83, "duration": 238}, {"note": 81, "velocity": 79, "duration": 201}, {"note": 0, "velocity": 0, "duration": 159}, {"note": 78, "velocity": 83, "duration": 180}, {"note": 81, "velocity": 85, "duration": 163}, {"note": 0, "velocity": 0, "duration": 77}, {"note": 78, "velocity": 84, "duration": 198}, {"note": 76, "velocity": 83, "duration": 75}, {"note": 76, "velocity": 82, "duration": 1078}, {"note": 0, "velocity": 0, "duration": 362}, {"note": 74, "velocity": 87, "duration": 114}, {"note": 76, "velocity": 85, "duration": 188}, {"note": 76, "velocity": 84, "duration": 109}, {"note": 81, "velocity": 83, "duration": 351}, {"note": 73, "velocity": 78, "duration": 238}, {"note": 74, "velocity": 87, "duration": 749}, {"note": 0, "velocity": 0, "duration": 91}, {"note": 74, "velocity": 85, "duration": 91}, {"note": 76, "velocity": 85, "duration": 180}, {"note": 76, "velocity": 82, "duration": 100}, {"note": 83, "velocity": 83, "duration": 327}, {"note": 81, "velocity": 81, "duration": 117}, {"note": 78, "velocity": 84, "duration": 589}, {"note": 0, "velocity": 0, "duration": 138}, {"note": 71, "velocity": 84, "duration": 29}, {"note": 0, "velocity": 0, "duration": 84}, {"note": 71, "velocity": 85, "duration": 76}, {"note": 74, "velocity": 85, "duration": 76}, {"note": 78, "velocity": 67, "duration": 210}, {"note": 76, "velocity": 83, "duration": 86}, {"note": 76, "velocity": 83, "duration": 238}, {"note": 76, "velocity": 84, "duration": 188}, {"note": 74, "velocity": 87, "duration": 81}, {"note": 78, "velocity": 85, "duration": 181}, {"note": 76, "velocity": 83, "duration": 238}, {"note": 76, "velocity": 84, "duration": 198}, {"note": 74, "velocity": 85, "duration": 238}, {"note": 83, "velocity": 84, "duration": 478}, {"note": 81, "velocity": 80, "duration": 478}, {"note": 78, "velocity": 87, "duration": 391}, {"note": 0, "velocity": 0, "duration": 89}, {"note": 79, "velocity": 84, "duration": 409}, {"note": 0, "velocity": 0, "duration": 71}, {"note": 81, "velocity": 73, "duration": 589}, {"note": 0, "velocity": 0, "duration": 131}, {"note": 74, "velocity": 88, "duration": 200}, {"note": 73, "velocity": 86, "duration": 220}, {"note": 74, "velocity": 84, "duration": 229}, {"note": 78, "velocity": 85, "duration": 210}, {"note": 83, "velocity": 82, "duration": 171}, {"note": 0, "velocity": 0, "duration": 69}, {"note": 83, "velocity": 87, "duration": 711}, {"note": 78, "velocity": 84, "duration": 242}, {"note": 81, "velocity": 86, "duration": 572}, {"note": 78, "velocity": 84, "duration": 64}, {"note": 83, "velocity": 85, "duration": 59}, {"note": 0, "velocity": 0, "duration": 61}, {"note": 85, "velocity": 89, "duration": 73}, {"note": 86, "velocity": 85, "duration": 163}, {"note": 0, "velocity": 0, "duration": 77}, {"note": 85, "velocity": 88, "duration": 181}, {"note": 83, "velocity": 84, "duration": 200}, {"note": 81, "velocity": 84, "duration": 86}, {"note": 83, "velocity": 83, "duration": 238}, {"note": 81, "velocity": 79, "duration": 201}, {"note": 0, "velocity": 0, "duration": 159}, {"note": 78, "velocity": 83, "duration": 180}, {"note": 81, "velocity": 85, "duration": 163}, {"note": 0, "velocity": 0, "duration": 77}, {"note": 78, "velocity": 84, "duration": 198}, {"note": 76, "velocity": 83, "duration": 75}, {"note": 76, "velocity": 82, "duration": 1078}, {"note": 0, "velocity": 0, "duration": 362}, {"note": 74, "velocity": 87, "duration": 114}, {"note": 76, "velocity": 85, "duration": 188}, {"note": 76, "velocity": 84, "duration": 109}, {"note": 81, "velocity": 83, "duration": 351}, {"note": 73, "velocity": 78, "duration": 238}, {"note": 74, "velocity": 87, "duration": 749}, {"note": 0, "velocity": 0, "duration": 91}, {"note": 74, "velocity": 85, "duration": 91}, {"note": 76, "velocity": 85, "duration": 180}, {"note": 76, "velocity": 82, "duration": 100}, {"note": 83, "velocity": 83, "duration": 327}, {"note": 81, "velocity": 81, "duration": 117}, {"note": 78, "velocity": 84, "duration": 589}, {"note": 0, "velocity": 0, "duration": 138}, {"note": 71, "velocity": 84, "duration": 29}, {"note": 0, "velocity": 0, "duration": 84}, {"note": 71, "velocity": 85, "duration": 76}, {"note": 74, "velocity": 85, "duration": 76}, {"note": 78, "velocity": 67, "duration": 210}, {"note": 76, "velocity": 83, "duration": 86}, {"note": 76, "velocity": 83, "duration": 238}, {"note": 81, "velocity": 84, "duration": 188}, {"note": 0, "velocity": 0, "duration": 172}, {"note": 78, "velocity": 85, "duration": 457}, {"note": 76, "velocity": 84, "duration": 1438}, {"note": 0, "velocity": 0, "duration": 710}, {"note": 76, "velocity": 83, "duration": 186}, {"note": 76, "velocity": 84, "duration": 476}, {"note": 0, "velocity": 0, "duration": 240}, {"note": 74, "velocity": 86, "duration": 766}, {"note": 78, "velocity": 97, "duration": 485}, {"note": 79, "velocity": 95, "duration": 478}, {"note": 81, "velocity": 95, "duration": 2131}, {"note": 86, "velocity": 108, "duration": 605}, {"note": 83, "velocity": 108, "duration": 93}, {"note": 83, "velocity": 108, "duration": 229}, {"note": 81, "velocity": 97, "duration": 748}, {"note": 0, "velocity": 0, "duration": 2183}, {"note": 86, "velocity": 108, "duration": 481}, {"note": 88, "velocity": 99, "duration": 270}, {"note": 83, "velocity": 106, "duration": 242}, {"note": 81, "velocity": 109, "duration": 82}, {"note": 78, "velocity": 121, "duration": 75}, {"note": 81, "velocity": 96, "duration": 504}, {"note": 74, "velocity": 87, "duration": 114}, {"note": 76, "velocity": 85, "duration": 188}, {"note": 76, "velocity": 84, "duration": 109}, {"note": 81, "velocity": 83, "duration": 351}, {"note": 73, "velocity": 78, "duration": 238}, {"note": 74, "velocity": 87, "duration": 132}, {"note": 76, "velocity": 87, "duration": 220}, {"note": 74, "velocity": 87, "duration": 600}, {"note": 74, "velocity": 85, "duration": 91}, {"note": 76, "velocity": 85, "duration": 180}, {"note": 76, "velocity": 82, "duration": 100}, {"note": 83, "velocity": 83, "duration": 327}, {"note": 81, "velocity": 81, "duration": 117}, {"note": 78, "velocity": 84, "duration": 252}, {"note": 76, "velocity": 81, "duration": 87}, {"note": 74, "velocity": 83, "duration": 424}, {"note": 71, "velocity": 84, "duration": 29}, {"note": 0, "velocity": 0, "duration": 84}, {"note": 71, "velocity": 85, "duration": 76}, {"note": 74, "velocity": 85, "duration": 76}, {"note": 78, "velocity": 67, "duration": 210}, {"note": 76, "velocity": 83, "duration": 86}, {"note": 76, "velocity": 83, "duration": 238}, {"note": 81, "velocity": 84, "duration": 432}, {"note": 78, "velocity": 85, "duration": 212}, {"note": 79, "velocity": 78, "duration": 101}, {"note": 78, "velocity": 82, "duration": 302}, {"note": 76, "velocity": 73, "duration": 1258}, {"note": 0, "velocity": 0, "duration": 1066}, {"note": 76, "velocity": 84, "duration": 718}, {"note": 74, "velocity": 80, "duration": 958}, {"note": 0, "velocity": 0, "duration": 1905}, {"note": 76, "velocity": 84, "duration": 174}, {"note": 0, "velocity": 0, "duration": 63}, {"note": 78, "velocity": 82, "duration": 504}, {"note": 76, "velocity": 81, "duration": 248}, {"note": 74, "velocity": 84, "duration": 1287}]]