[[{"note": 65, "velocity": 87, "duration": 177}, {"note": 0, "velocity": 0, "duration": 63}, {"note": 65, "velocity": 83, "duration": 169}, {"note": 0, "velocity": 0, "duration": 71}, {"note": 65, "velocity": 81, "duration": 76}, {"note": 65, "velocity": 89, "duration": 290}, {"note": 0, "velocity": 0, "duration": 70}, {"note": 63, "velocity": 93, "duration": 173}, {"note": 0, "velocity": 0, "duration": 67}, {"note": 58, "velocity": 87, "duration": 179}, {"note": 0, "velocity": 0, "duration": 61}, {"note": 60, "velocity": 88, "duration": 74}, {"note": 62, "velocity": 83, "duration": 272}, {"note": 0, "velocity": 0, "duration": 88}, {"note": 62, "velocity": 85, "duration": 824}, {"note": 0, "velocity": 0, "duration": 1096}, {"note": 65, "velocity": 87, "duration": 177}, {"note": 0, "velocity": 0, "duration": 63}, {"note": 65, "velocity": 83, "duration": 169}, {"note": 0, "velocity": 0, "duration": 71}, {"note": 65, "velocity": 81, "duration": 76}, {"note": 65, "velocity": 89, "duration": 290}, {"note": 0, "velocity": 0, "duration": 70}, {"note": 63, "velocity": 93, "duration": 173}, {"note": 0, "velocity": 0, "duration": 67}, {"note": 58, "velocity": 87, "duration": 179}, {"note": 0, "velocity": 0, "duration": 61}, {"note": 60, "velocity": 88, "duration": 74}, {"note": 62, "velocity": 83, "duration": 272}, {"note": 0, "velocity": 0, "duration": 88}, {"note": 62, "velocity": 85, "duration": 824}, {"note": 0, "velocity": 0, "duration": 376}, {"note": 58, "velocity": 91, "duration": 172}, {"note": 0, "velocity": 0, "duration": 68}, {"note": 70, "velocity": 87, "duration": 171}, {"note": 0, "velocity": 0, "duration": 69}, {"note": 69, "velocity": 85, "duration": 431}, {"note": 70, "velocity": 88, "duration": 206}, {"note": 65, "velocity": 84, "duration": 559}, {"note": 0, "velocity": 0, "duration": 161}, {"note": 58, "velocity": 80, "duration": 220}, {"note": 67, "velocity": 87, "duration": 193}, {"note": 65, "velocity": 84, "duration": 411}, {"note": 0, "velocity": 0, "duration": 69}, {"note": 69, "velocity": 87, "duration": 180}, {"note": 70, "velocity": 89, "duration": 598}, {"note": 0, "velocity": 0, "duration": 122}, {"note": 58, "velocity": 87, "duration": 197}, {"note": 65, "velocity": 90, "duration": 414}, {"note": 0, "velocity": 0, "duration": 66}, {"note": 63, "velocity": 87, "duration": 164}, {"note": 0, "velocity": 0, "duration": 76}, {"note": 62, "velocity": 87, "duration": 196}, {"note": 58, "velocity": 89, "duration": 337}, {"note": 0, "velocity": 0, "duration": 383}, {"note": 55, "velocity": 87, "duration": 209}, {"note": 60, "velocity": 87, "duration": 1069}, {"note": 0, "velocity": 0, "duration": 1331}, {"note": 65, "velocity": 87, "duration": 177}, {"note": 0, "velocity": 0, "duration": 63}, {"note": 65, "velocity": 83, "duration": 169}, {"note": 0, "velocity": 0, "duration": 71}, {"note": 65, "velocity": 81, "duration": 76}, {"note": 65, "velocity": 89, "duration": 290}, {"note": 0, "velocity": 0, "duration": 70}, {"note": 63, "velocity": 93, "duration": 173}, {"note": 0, "velocity": 0, "duration": 67}, {"note": 58, "velocity": 87, "duration": 179}, {"note": 0, "velocity": 0, "duration": 61}, {"note": 60, "velocity": 88, "duration": 74}, {"note": 62, "velocity": 83, "duration": 272}, {"note": 0, "velocity": 0, "duration": 88}, {"note": 62, "velocity": 85, "duration": 824}, {"note": 0, "velocity": 0, "duration": 1096}, {"note": 65, "velocity": 87, "duration": 177}, {"note": 0, "velocity": 0, "duration": 63}, {"note": 65, "velocity": 83, "duration": 169}, {"note": 0, "velocity": 0, "duration": 71}, {"note": 65, "velocity": 81, "duration": 76}, {"note": 65, "velocity": 89, "duration": 290}, {"note": 0, "velocity": 0, "duration": 70}, {"note": 70, "velocity": 93, "duration": 173}, {"note": 0, "velocity": 0, "duration": 67}, {"note": 70, "velocity": 87, "duration": 179}, {"note": 0, "velocity": 0, "duration": 61}, {"note": 60, "velocity": 88, "duration": 120}, {"note": 63, "velocity": 83, "duration": 272}, {"note": 0, "velocity": 0, "duration": 88}, {"note": 62, "velocity": 85, "duration": 824}, {"note": 0, "velocity": 0, "duration": 376}, {"note": 58, "velocity": 91, "duration": 172}, {"note": 0, "velocity": 0, "duration": 68}, {"note": 70, "velocity": 87, "duration": 171}, {"note": 0, "velocity": 0, "duration": 69}, {"note": 69, "velocity": 85, "duration": 431}, {"note": 70, "velocity": 88, "duration": 206}, {"note": 65, "velocity": 84, "duration": 559}, {"note": 0, "velocity": 0, "duration": 161}, {"note": 58, "velocity": 80, "duration": 220}, {"note": 67, "velocity": 87, "duration": 193}, {"note": 67, "velocity": 84, "duration": 240}, {"note": 65, "velocity": 84, "duration": 240}, {"note": 65, "velocity": 87, "duration": 180}, {"note": 72, "velocity": 89, "duration": 240}, {"note": 74, "velocity": 89, "duration": 360}, {"note": 0, "velocity": 0, "duration": 120}, {"note": 72, "velocity": 88, "duration": 211}, {"note": 74, "velocity": 91, "duration": 178}, {"note": 0, "velocity": 0, "duration": 62}, {"note": 67, "velocity": 87, "duration": 199}, {"note": 74, "velocity": 91, "duration": 174}, {"note": 0, "velocity": 0, "duration": 66}, {"note": 74, "velocity": 94, "duration": 169}, {"note": 0, "velocity": 0, "duration": 71}, {"note": 75, "velocity": 89, "duration": 182}, {"note": 74, "velocity": 94, "duration": 427}, {"note": 72, "velocity": 83, "duration": 240}, {"note": 70, "velocity": 83, "duration": 720}, {"note": 0, "velocity": 0, "duration": 480}, {"note": 77, "velocity": 91, "duration": 183}, {"note": 75, "velocity": 89, "duration": 191}, {"note": 74, "velocity": 89, "duration": 158}, {"note": 0, "velocity": 0, "duration": 82}, {"note": 77, "velocity": 88, "duration": 360}, {"note": 0, "velocity": 0, "duration": 120}, {"note": 67, "velocity": 88, "duration": 600}, {"note": 0, "velocity": 0, "duration": 120}, {"note": 77, "velocity": 87, "duration": 171}, {"note": 0, "velocity": 0, "duration": 69}, {"note": 75, "velocity": 93, "duration": 200}, {"note": 74, "velocity": 96, "duration": 177}, {"note": 0, "velocity": 0, "duration": 63}, {"note": 77, "velocity": 87, "duration": 260}, {"note": 65, "velocity": 90, "duration": 697}, {"note": 0, "velocity": 0, "duration": 263}, {"note": 77, "velocity": 88, "duration": 219}, {"note": 75, "velocity": 88, "duration": 204}, {"note": 74, "velocity": 88, "duration": 188}, {"note": 77, "velocity": 88, "duration": 341}, {"note": 0, "velocity": 0, "duration": 139}, {"note": 67, "velocity": 83, "duration": 201}, {"note": 69, "velocity": 87, "duration": 195}, {"note": 70, "velocity": 83, "duration": 172}, {"note": 0, "velocity": 0, "duration": 68}, {"note": 70, "velocity": 87, "duration": 191}, {"note": 70, "velocity": 76, "duration": 88}, {"note": 72, "velocity": 84, "duration": 305}, {"note": 70, "velocity": 83, "duration": 219}, {"note": 72, "velocity": 89, "duration": 309}, {"note": 74, "velocity": 94, "duration": 275}, {"note": 0, "velocity": 0, "duration": 85}, {"note": 74, "velocity": 91, "duration": 240}, {"note": 77, "velocity": 91, "duration": 183}, {"note": 75, "velocity": 89, "duration": 191}, {"note": 74, "velocity": 89, "duration": 158}, {"note": 0, "velocity": 0, "duration": 82}, {"note": 77, "velocity": 88, "duration": 360}, {"note": 0, "velocity": 0, "duration": 120}, {"note": 67, "velocity": 88, "duration": 600}, {"note": 0, "velocity": 0, "duration": 120}, {"note": 77, "velocity": 87, "duration": 171}, {"note": 0, "velocity": 0, "duration": 69}, {"note": 75, "velocity": 93, "duration": 200}, {"note": 74, "velocity": 96, "duration": 177}, {"note": 0, "velocity": 0, "duration": 63}, {"note": 77, "velocity": 87, "duration": 260}, {"note": 81, "velocity": 90, "duration": 240}, {"note": 0, "velocity": 0, "duration": 120}, {"note": 77, "velocity": 88, "duration": 120}, {"note": 77, "velocity": 88, "duration": 204}, {"note": 72, "velocity": 88, "duration": 188}, {"note": 70, "velocity": 88, "duration": 341}, {"note": 0, "velocity": 0, "duration": 139}, {"note": 74, "velocity": 103, "duration": 193}, {"note": 75, "velocity": 91, "duration": 179}, {"note": 0, "velocity": 0, "duration": 61}, {"note": 77, "velocity": 88, "duration": 174}, {"note": 0, "velocity": 0, "duration": 66}, {"note": 75, "velocity": 88, "duration": 217}, {"note": 74, "velocity": 92, "duration": 188}, {"note": 72, "velocity": 88, "duration": 179}, {"note": 0, "velocity": 0, "duration": 61}, {"note": 70, "velocity": 87, "duration": 480}, {"note": 69, "velocity": 89, "duration": 240}, {"note": 70, "velocity": 88, "duration": 830}, {"note": 0, "velocity": 0, "duration": 9250}, {"note": 65, "velocity": 87, "duration": 177}, {"note": 0, "velocity": 0, "duration": 63}, {"note": 65, "velocity": 83, "duration": 169}, {"note": 0, "velocity": 0, "duration": 71}, {"note": 65, "velocity": 81, "duration": 76}, {"note": 65, "velocity": 89, "duration": 290}, {"note": 0, "velocity": 0, "duration": 70}, {"note": 63, "velocity": 93, "duration": 173}, {"note": 0, "velocity": 0, "duration": 67}, {"note": 58, "velocity": 87, "duration": 179}, {"note": 0, "velocity": 0, "duration": 61}, {"note": 60, "velocity": 88, "duration": 74}, {"note": 62, "velocity": 83, "duration": 272}, {"note": 0, "velocity": 0, "duration": 88}, {"note": 62, "velocity": 85, "duration": 824}, {"note": 0, "velocity": 0, "duration": 1096}, {"note": 65, "velocity": 87, "duration": 177}, {"note": 0, "velocity": 0, "duration": 63}, {"note": 65, "velocity": 83, "duration": 169}, {"note": 0, "velocity": 0, "duration": 71}, {"note": 65, "velocity": 81, "duration": 76}, {"note": 65, "velocity": 89, "duration": 290}, {"note": 0, "velocity": 0, "duration": 70}, {"note": 70, "velocity": 93, "duration": 173}, {"note": 0, "velocity": 0, "duration": 67}, {"note": 70, "velocity": 87, "duration": 179}, {"note": 0, "velocity": 0, "duration": 61}, {"note": 60, "velocity": 88, "duration": 120}, {"note": 63, "velocity": 83, "duration": 272}, {"note": 0, "velocity": 0, "duration": 88}, {"note": 62, "velocity": 85, "duration": 824}, {"note": 0, "velocity": 0, "duration": 376}, {"note": 58, "velocity": 91, "duration": 172}, {"note": 0, "velocity": 0, "duration": 68}, {"note": 70, "velocity": 87, "duration": 171}, {"note": 0, "velocity": 0, "duration": 69}, {"note": 69, "velocity": 85, "duration": 431}, {"note": 70, "velocity": 88, "duration": 206}, {"note": 65, "velocity": 84, "duration": 559}, {"note": 0, "velocity": 0, "duration": 161}, {"note": 58, "velocity": 80, "duration": 220}, {"note": 67, "velocity": 87, "duration": 193}, {"note": 67, "velocity": 84, "duration": 240}, {"note": 65, "velocity": 84, "duration": 240}, {"note": 65, "velocity": 87, "duration": 180}, {"note": 72, "velocity": 89, "duration": 240}, {"note": 74, "velocity": 89, "duration": 360}, {"note": 0, "velocity": 0, "duration": 120}, {"note": 72, "velocity": 88, "duration": 211}, {"note": 74, "velocity": 91, "duration": 178}, {"note": 0, "velocity": 0, "duration": 62}, {"note": 67, "velocity": 87, "duration": 199}, {"note": 74, "velocity": 91, "duration": 174}, {"note": 0, "velocity": 0, "duration": 66}, {"note": 74, "velocity": 94, "duration": 169}, {"note": 0, "velocity": 0, "duration": 71}, {"note": 75, "velocity": 89, "duration": 182}, {"note": 74, "velocity": 94, "duration": 427}, {"note": 72, "velocity": 83, "duration": 240}, {"note": 70, "velocity": 83, "duration": 720}, {"note": 0, "velocity": 0, "duration": 480}, {"note": 77, "velocity": 91, "duration": 183}, {"note": 75, "velocity": 89, "duration": 191}, {"note": 74, "velocity": 89, "duration": 158}, {"note": 0, "velocity": 0, "duration": 82}, {"note": 77, "velocity": 88, "duration": 360}, {"note": 0, "velocity": 0, "duration": 120}, {"note": 67, "velocity": 88, "duration": 600}, {"note": 0, "velocity": 0, "duration": 120}, {"note": 77, "velocity": 87, "duration": 171}, {"note": 0, "velocity": 0, "duration": 69}, {"note": 75, "velocity": 93, "duration": 200}, {"note": 74, "velocity": 96, "duration": 177}, {"note": 0, "velocity": 0, "duration": 63}, {"note": 77, "velocity": 87, "duration": 260}, {"note": 65, "velocity": 90, "duration": 697}, {"note": 0, "velocity": 0, "duration": 263}, {"note": 77, "velocity": 88, "duration": 219}, {"note": 75, "velocity": 88, "duration": 204}, {"note": 74, "velocity": 88, "duration": 188}, {"note": 77, "velocity": 88, "duration": 341}, {"note": 0, "velocity": 0, "duration": 139}, {"note": 67, "velocity": 83, "duration": 201}, {"note": 69, "velocity": 87, "duration": 195}, {"note": 70, "velocity": 83, "duration": 172}, {"note": 0, "velocity": 0, "duration": 68}, {"note": 70, "velocity": 87, "duration": 191}, {"note": 70, "velocity": 76, "duration": 88}, {"note": 72, "velocity": 84, "duration": 305}, {"note": 70, "velocity": 83, "duration": 219}, {"note": 72, "velocity": 89, "duration": 309}, {"note": 74, "velocity": 94, "duration": 275}, {"note": 0, "velocity": 0, "duration": 85}, {"note": 74, "velocity": 91, "duration": 240}, {"note": 77, "velocity": 91, "duration": 183}, {"note": 75, "velocity": 89, "duration": 191}, {"note": 74, "velocity": 89, "duration": 158}, {"note": 0, "velocity": 0, "duration": 82}, {"note": 77, "velocity": 88, "duration": 360}, {"note": 0, "velocity": 0, "duration": 120}, {"note": 67, "velocity": 88, "duration": 600}, {"note": 0, "velocity": 0, "duration": 120}, {"note": 77, "velocity": 87, "duration": 171}, {"note": 0, "velocity": 0, "duration": 69}, {"note": 75, "velocity": 93, "duration": 200}, {"note": 74, "velocity": 96, "duration": 177}, {"note": 0, "velocity": 0, "duration": 63}, {"note": 77, "velocity": 87, "duration": 260}, {"note": 81, "velocity": 90, "duration": 240}, {"note": 0, "velocity": 0, "duration": 120}, {"note": 77, "velocity": 88, "duration": 120}, {"note": 77, "velocity": 88, "duration": 204}, {"note": 72, "velocity": 88, "duration": 188}, {"note": 70, "velocity": 88, "duration": 341}, {"note": 0, "velocity": 0, "duration": 139}, {"note": 74, "velocity": 103, "duration": 193}, {"note": 75, "velocity": 91, "duration": 179}, {"note": 0, "velocity": 0, "duration": 61}, {"note": 77, "velocity": 88, "duration": 174}, {"note": 0, "velocity": 0, "duration": 66}, {"note": 75, "velocity": 88, "duration": 217}, {"note": 74, "velocity": 92, "duration": 188}, {"note": 72, "velocity": 88, "duration": 179}, {"note": 0, "velocity": 0, "duration": 61}, {"note": 70, "velocity": 87, "duration": 480}, {"note": 69, "velocity": 89, "duration": 240}, {"note": 70, "velocity": 88, "duration": 830}, {"note": 0, "velocity": 0, "duration": 370}, {"note": 77, "velocity": 91, "duration": 183}, {"note": 75, "velocity": 89, "duration": 191}, {"note": 74, "velocity": 89, "duration": 158}, {"note": 0, "velocity": 0, "duration": 82}, {"note": 77, "velocity": 88, "duration": 360}, {"note": 0, "velocity": 0, "duration": 120}, {"note": 67, "velocity": 88, "duration": 600}, {"note": 0, "velocity": 0, "duration": 120}, {"note": 77, "velocity": 87, "duration": 171}, {"note": 0, "velocity": 0, "duration": 69}, {"note": 75, "velocity": 93, "duration": 200}, {"note": 74, "velocity": 96, "duration": 177}, {"note": 0, "velocity": 0, "duration": 63}, {"note": 77, "velocity": 87, "duration": 260}, {"note": 65, "velocity": 90, "duration": 697}, {"note": 0, "velocity": 0, "duration": 263}, {"note": 77, "velocity": 88, "duration": 219}, {"note": 75, "velocity": 88, "duration": 204}, {"note": 74, "velocity": 88, "duration": 188}, {"note": 77, "velocity": 88, "duration": 341}, {"note": 0, "velocity": 0, "duration": 139}, {"note": 67, "velocity": 83, "duration": 201}, {"note": 69, "velocity": 87, "duration": 195}, {"note": 70, "velocity": 83, "duration": 172}, {"note": 0, "velocity": 0, "duration": 68}, {"note": 70, "velocity": 87, "duration": 191}, {"note": 70, "velocity": 76, "duration": 88}, {"note": 72, "velocity": 84, "duration": 305}, {"note": 70, "velocity": 83, "duration": 219}, {"note": 72, "velocity": 89, "duration": 309}, {"note": 74, "velocity": 94, "duration": 275}, {"note": 0, "velocity": 0, "duration": 85}, {"note": 74, "velocity": 91, "duration": 240}, {"note": 77, "velocity": 91, "duration": 183}, {"note": 75, "velocity": 89, "duration": 191}, {"note": 74, "velocity": 89, "duration": 158}, {"note": 0, "velocity": 0, "duration": 82}, {"note": 77, "velocity": 88, "duration": 360}, {"note": 0, "velocity": 0, "duration": 120}, {"note": 67, "velocity": 88, "duration": 600}, {"note": 0, "velocity": 0, "duration": 120}, {"note": 77, "velocity": 87, "duration": 171}, {"note": 0, "velocity": 0, "duration": 69}, {"note": 75, "velocity": 93, "duration": 200}, {"note": 74, "velocity": 96, "duration": 177}, {"note": 0, "velocity": 0, "duration": 63}, {"note": 77, "velocity": 87, "duration": 260}, {"note": 81, "velocity": 90, "duration": 240}, {"note": 0, "velocity": 0, "duration": 120}, {"note": 77, "velocity": 88, "duration": 120}, {"note": 77, "velocity": 88, "duration": 204}, {"note": 72, "velocity": 88, "duration": 188}, {"note": 70, "velocity": 88, "duration": 341}, {"note": 0, "velocity": 0, "duration": 139}, {"note": 74, "velocity": 103, "duration": 193}, {"note": 75, "velocity": 91, "duration": 179}, {"note": 0, "velocity": 0, "duration": 61}, {"note": 77, "velocity": 88, "duration": 174}, {"note": 0, "velocity": 0, "duration": 66}, {"note": 75, "velocity": 88, "duration": 217}, {"note": 74, "velocity": 92, "duration": 188}, {"note": 72, "velocity": 88, "duration": 179}, {"note": 0, "velocity": 0, "duration": 61}, {"note": 70, "velocity": 87, "duration": 480}, {"note": 69, "velocity": 89, "duration": 240}, {"note": 70, "velocity": 88, "duration": 830}, {"note": 0, "velocity": 0, "duration": 370}, {"note": 77, "velocity": 91, "duration": 183}, {"note": 75, "velocity": 89, "duration": 191}, {"note": 74, "velocity": 89, "duration": 158}, {"note": 0, "velocity": 0, "duration": 82}, {"note": 77, "velocity": 88, "duration": 360}, {"note": 0, "velocity": 0, "duration": 120}, {"note": 67, "velocity": 88, "duration": 600}, {"note": 0, "velocity": 0, "duration": 120}, {"note": 77, "velocity": 87, "duration": 171}, {"note": 0, "velocity": 0, "duration": 69}, {"note": 75, "velocity": 93, "duration": 200}, {"note": 74, "velocity": 96, "duration": 177}, {"note": 0, "velocity": 0, "duration": 63}, {"note": 77, "velocity": 87, "duration": 260}, {"note": 65, "velocity": 90, "duration": 697}, {"note": 0, "velocity": 0, "duration": 263}, {"note": 77, "velocity": 88, "duration": 219}, {"note": 75, "velocity": 88, "duration": 204}, {"note": 74, "velocity": 88, "duration": 188}, {"note": 77, "velocity": 88, "duration": 341}, {"note": 0, "velocity": 0, "duration": 139}, {"note": 67, "velocity": 83, "duration": 201}, {"note": 69, "velocity": 87, "duration": 195}, {"note": 70, "velocity": 83, "duration": 172}, {"note": 72, "velocity": 91, "duration": 124}, {"note": 70, "velocity": 92, "duration": 132}, {"note": 72, "velocity": 91, "duration": 105}, {"note": 72, "velocity": 89, "duration": 128}, {"note": 70, "velocity": 89, "duration": 128}, {"note": 72, "velocity": 91, "duration": 100}, {"note": 74, "velocity": 92, "duration": 221}, {"note": 0, "velocity": 0, "duration": 102}, {"note": 79, "velocity": 81, "duration": 282}, {"note": 0, "velocity": 0, "duration": 61}, {"note": 77, "velocity": 88, "duration": 268}, {"note": 77, "velocity": 91, "duration": 183}, {"note": 75, "velocity": 89, "duration": 191}, {"note": 74, "velocity": 89, "duration": 158}, {"note": 0, "velocity": 0, "duration": 82}, {"note": 77, "velocity": 88, "duration": 360}, {"note": 0, "velocity": 0, "duration": 120}, {"note": 67, "velocity": 88, "duration": 600}, {"note": 0, "velocity": 0, "duration": 120}, {"note": 77, "velocity": 87, "duration": 171}, {"note": 0, "velocity": 0, "duration": 69}, {"note": 75, "velocity": 93, "duration": 200}, {"note": 74, "velocity": 96, "duration": 177}, {"note": 0, "velocity": 0, "duration": 63}, {"note": 77, "velocity": 87, "duration": 260}, {"note": 81, "velocity": 90, "duration": 240}, {"note": 0, "velocity": 0, "duration": 120}, {"note": 77, "velocity": 88, "duration": 120}, {"note": 77, "velocity": 88, "duration": 204}, {"note": 84, "velocity": 88, "duration": 188}, {"note": 82, "velocity": 88, "duration": 1800}, {"note": 0, "velocity": 0, "duration": 120}, {"note": 74, "velocity": 89, "duration": 275}, {"note": 75, "velocity": 80, "duration": 196}, {"note": 77, "velocity": 85, "duration": 228}, {"note": 75, "velocity": 94, "duration": 214}, {"note": 0, "velocity": 0, "duration": 62}, {"note": 74, "velocity": 91, "duration": 236}, {"note": 72, "velocity": 84, "duration": 204}, {"note": 0, "velocity": 0, "duration": 122}, {"note": 70, "velocity": 76, "duration": 1221}, {"note": 0, "velocity": 0, "duration": 783}, {"note": 69, "velocity": 84, "duration": 331}, {"note": 70, "velocity": 82, "duration": 1714}]]