[[{"note": 72, "velocity": 85, "duration": 202}, {"note": 70, "velocity": 84, "duration": 225}, {"note": 68, "velocity": 83, "duration": 217}, {"note": 72, "velocity": 85, "duration": 582}, {"note": 0, "velocity": 0, "duration": 112}, {"note": 72, "velocity": 86, "duration": 210}, {"note": 70, "velocity": 87, "duration": 196}, {"note": 68, "velocity": 85, "duration": 185}, {"note": 0, "velocity": 0, "duration": 72}, {"note": 67, "velocity": 86, "duration": 194}, {"note": 68, "velocity": 83, "duration": 400}, {"note": 0, "velocity": 0, "duration": 64}, {"note": 75, "velocity": 89, "duration": 680}, {"note": 0, "velocity": 0, "duration": 284}, {"note": 75, "velocity": 89, "duration": 177}, {"note": 0, "velocity": 0, "duration": 63}, {"note": 75, "velocity": 88, "duration": 191}, {"note": 67, "velocity": 81, "duration": 179}, {"note": 0, "velocity": 0, "duration": 61}, {"note": 70, "velocity": 81, "duration": 197}, {"note": 68, "velocity": 85, "duration": 333}, {"note": 0, "velocity": 0, "duration": 147}, {"note": 70, "velocity": 86, "duration": 194}, {"note": 72, "velocity": 85, "duration": 174}, {"note": 0, "velocity": 0, "duration": 66}, {"note": 72, "velocity": 86, "duration": 184}, {"note": 70, "velocity": 83, "duration": 192}, {"note": 68, "velocity": 85, "duration": 352}, {"note": 0, "velocity": 0, "duration": 128}, {"note": 67, "velocity": 85, "duration": 772}, {"note": 0, "velocity": 0, "duration": 188}, {"note": 68, "velocity": 82, "duration": 198}, {"note": 75, "velocity": 91, "duration": 222}, {"note": 72, "velocity": 84, "duration": 184}, {"note": 73, "velocity": 80, "duration": 612}, {"note": 0, "velocity": 0, "duration": 108}, {"note": 73, "velocity": 85, "duration": 203}, {"note": 75, "velocity": 87, "duration": 187}, {"note": 73, "velocity": 82, "duration": 218}, {"note": 72, "velocity": 85, "duration": 209}, {"note": 70, "velocity": 85, "duration": 216}, {"note": 73, "velocity": 82, "duration": 557}, {"note": 0, "velocity": 0, "duration": 163}, {"note": 73, "velocity": 85, "duration": 191}, {"note": 75, "velocity": 85, "duration": 185}, {"note": 73, "velocity": 85, "duration": 198}, {"note": 72, "velocity": 86, "duration": 210}, {"note": 70, "velocity": 85, "duration": 194}, {"note": 73, "velocity": 85, "duration": 516}, {"note": 0, "velocity": 0, "duration": 444}, {"note": 75, "velocity": 89, "duration": 187}, {"note": 73, "velocity": 81, "duration": 199}, {"note": 72, "velocity": 85, "duration": 284}, {"note": 0, "velocity": 0, "duration": 196}, {"note": 68, "velocity": 85, "duration": 199}, {"note": 70, "velocity": 79, "duration": 740}, {"note": 0, "velocity": 0, "duration": 228}, {"note": 72, "velocity": 85, "duration": 202}, {"note": 70, "velocity": 84, "duration": 225}, {"note": 68, "velocity": 83, "duration": 217}, {"note": 72, "velocity": 85, "duration": 582}, {"note": 0, "velocity": 0, "duration": 112}, {"note": 72, "velocity": 86, "duration": 210}, {"note": 70, "velocity": 87, "duration": 196}, {"note": 68, "velocity": 85, "duration": 185}, {"note": 0, "velocity": 0, "duration": 72}, {"note": 67, "velocity": 86, "duration": 194}, {"note": 68, "velocity": 83, "duration": 400}, {"note": 0, "velocity": 0, "duration": 64}, {"note": 75, "velocity": 89, "duration": 680}, {"note": 0, "velocity": 0, "duration": 284}, {"note": 75, "velocity": 89, "duration": 177}, {"note": 0, "velocity": 0, "duration": 63}, {"note": 75, "velocity": 88, "duration": 191}, {"note": 67, "velocity": 81, "duration": 179}, {"note": 0, "velocity": 0, "duration": 61}, {"note": 70, "velocity": 81, "duration": 197}, {"note": 68, "velocity": 85, "duration": 333}, {"note": 0, "velocity": 0, "duration": 147}, {"note": 70, "velocity": 86, "duration": 194}, {"note": 72, "velocity": 85, "duration": 174}, {"note": 0, "velocity": 0, "duration": 66}, {"note": 72, "velocity": 86, "duration": 184}, {"note": 70, "velocity": 83, "duration": 192}, {"note": 68, "velocity": 85, "duration": 352}, {"note": 0, "velocity": 0, "duration": 128}, {"note": 67, "velocity": 85, "duration": 772}, {"note": 0, "velocity": 0, "duration": 188}, {"note": 68, "velocity": 82, "duration": 198}, {"note": 75, "velocity": 91, "duration": 222}, {"note": 72, "velocity": 84, "duration": 184}, {"note": 73, "velocity": 80, "duration": 612}, {"note": 0, "velocity": 0, "duration": 108}, {"note": 73, "velocity": 85, "duration": 203}, {"note": 75, "velocity": 87, "duration": 187}, {"note": 73, "velocity": 82, "duration": 218}, {"note": 72, "velocity": 85, "duration": 209}, {"note": 70, "velocity": 85, "duration": 216}, {"note": 73, "velocity": 82, "duration": 557}, {"note": 0, "velocity": 0, "duration": 163}, {"note": 73, "velocity": 85, "duration": 191}, {"note": 75, "velocity": 85, "duration": 185}, {"note": 73, "velocity": 85, "duration": 198}, {"note": 72, "velocity": 86, "duration": 210}, {"note": 70, "velocity": 85, "duration": 194}, {"note": 73, "velocity": 85, "duration": 516}, {"note": 0, "velocity": 0, "duration": 204}, {"note": 73, "velocity": 87, "duration": 203}, {"note": 75, "velocity": 86, "duration": 185}, {"note": 73, "velocity": 86, "duration": 205}, {"note": 72, "velocity": 86, "duration": 173}, {"note": 0, "velocity": 0, "duration": 67}, {"note": 73, "velocity": 87, "duration": 397}, {"note": 0, "velocity": 0, "duration": 83}, {"note": 75, "velocity": 81, "duration": 768}, {"note": 0, "velocity": 0, "duration": 192}, {"note": 75, "velocity": 96, "duration": 198}, {"note": 77, "velocity": 87, "duration": 177}, {"note": 0, "velocity": 0, "duration": 63}, {"note": 79, "velocity": 85, "duration": 168}, {"note": 0, "velocity": 0, "duration": 72}, {"note": 80, "velocity": 85, "duration": 205}, {"note": 75, "velocity": 87, "duration": 68}, {"note": 75, "velocity": 86, "duration": 680}, {"note": 0, "velocity": 0, "duration": 160}, {"note": 84, "velocity": 86, "duration": 208}, {"note": 82, "velocity": 85, "duration": 173}, {"note": 0, "velocity": 0, "duration": 67}, {"note": 80, "velocity": 85, "duration": 176}, {"note": 0, "velocity": 0, "duration": 64}, {"note": 82, "velocity": 84, "duration": 395}, {"note": 0, "velocity": 0, "duration": 85}, {"note": 75, "velocity": 86, "duration": 524}, {"note": 0, "velocity": 0, "duration": 196}, {"note": 72, "velocity": 87, "duration": 207}, {"note": 82, "velocity": 86, "duration": 199}, {"note": 79, "velocity": 85, "duration": 170}, {"note": 0, "velocity": 0, "duration": 70}, {"note": 80, "velocity": 84, "duration": 193}, {"note": 79, "velocity": 86, "duration": 80}, {"note": 80, "velocity": 90, "duration": 319}, {"note": 84, "velocity": 86, "duration": 205}, {"note": 79, "velocity": 85, "duration": 170}, {"note": 0, "velocity": 0, "duration": 70}, {"note": 77, "velocity": 85, "duration": 87}, {"note": 79, "velocity": 87, "duration": 445}, {"note": 75, "velocity": 87, "duration": 140}, {"note": 77, "velocity": 86, "duration": 954}, {"note": 0, "velocity": 0, "duration": 246}, {"note": 75, "velocity": 86, "duration": 173}, {"note": 0, "velocity": 0, "duration": 67}, {"note": 73, "velocity": 84, "duration": 182}, {"note": 72, "velocity": 87, "duration": 195}, {"note": 73, "velocity": 87, "duration": 394}, {"note": 0, "velocity": 0, "duration": 86}, {"note": 84, "velocity": 87, "duration": 319}, {"note": 82, "velocity": 87, "duration": 351}, {"note": 82, "velocity": 87, "duration": 205}, {"note": 84, "velocity": 86, "duration": 170}, {"note": 0, "velocity": 0, "duration": 70}, {"note": 85, "velocity": 86, "duration": 188}, {"note": 87, "velocity": 86, "duration": 732}, {"note": 85, "velocity": 86, "duration": 254}, {"note": 84, "velocity": 85, "duration": 539}, {"note": 0, "velocity": 0, "duration": 181}, {"note": 82, "velocity": 89, "duration": 71}, {"note": 80, "velocity": 86, "duration": 83}, {"note": 85, "velocity": 89, "duration": 221}, {"note": 84, "velocity": 86, "duration": 209}, {"note": 82, "velocity": 87, "duration": 227}, {"note": 80, "velocity": 86, "duration": 162}, {"note": 0, "velocity": 0, "duration": 78}, {"note": 80, "velocity": 85, "duration": 246}, {"note": 77, "velocity": 86, "duration": 217}, {"note": 79, "velocity": 82, "duration": 198}, {"note": 80, "velocity": 85, "duration": 144}, {"note": 0, "velocity": 0, "duration": 96}, {"note": 82, "velocity": 86, "duration": 1014}, {"note": 0, "velocity": 0, "duration": 186}, {"note": 75, "velocity": 96, "duration": 198}, {"note": 77, "velocity": 87, "duration": 177}, {"note": 0, "velocity": 0, "duration": 63}, {"note": 79, "velocity": 85, "duration": 168}, {"note": 0, "velocity": 0, "duration": 72}, {"note": 80, "velocity": 85, "duration": 205}, {"note": 75, "velocity": 87, "duration": 68}, {"note": 75, "velocity": 86, "duration": 680}, {"note": 0, "velocity": 0, "duration": 160}, {"note": 84, "velocity": 86, "duration": 208}, {"note": 82, "velocity": 85, "duration": 173}, {"note": 0, "velocity": 0, "duration": 67}, {"note": 80, "velocity": 85, "duration": 176}, {"note": 0, "velocity": 0, "duration": 64}, {"note": 82, "velocity": 84, "duration": 395}, {"note": 0, "velocity": 0, "duration": 85}, {"note": 75, "velocity": 86, "duration": 524}, {"note": 0, "velocity": 0, "duration": 196}, {"note": 72, "velocity": 87, "duration": 207}, {"note": 82, "velocity": 86, "duration": 199}, {"note": 79, "velocity": 85, "duration": 170}, {"note": 0, "velocity": 0, "duration": 70}, {"note": 80, "velocity": 84, "duration": 193}, {"note": 79, "velocity": 86, "duration": 80}, {"note": 80, "velocity": 90, "duration": 319}, {"note": 84, "velocity": 86, "duration": 205}, {"note": 79, "velocity": 85, "duration": 170}, {"note": 0, "velocity": 0, "duration": 70}, {"note": 77, "velocity": 85, "duration": 87}, {"note": 79, "velocity": 87, "duration": 445}, {"note": 75, "velocity": 87, "duration": 140}, {"note": 77, "velocity": 86, "duration": 954}, {"note": 0, "velocity": 0, "duration": 246}, {"note": 75, "velocity": 86, "duration": 173}, {"note": 0, "velocity": 0, "duration": 67}, {"note": 73, "velocity": 84, "duration": 182}, {"note": 72, "velocity": 87, "duration": 195}, {"note": 73, "velocity": 87, "duration": 394}, {"note": 0, "velocity": 0, "duration": 86}, {"note": 84, "velocity": 87, "duration": 319}, {"note": 82, "velocity": 87, "duration": 351}, {"note": 82, "velocity": 87, "duration": 205}, {"note": 84, "velocity": 86, "duration": 170}, {"note": 0, "velocity": 0, "duration": 70}, {"note": 85, "velocity": 86, "duration": 188}, {"note": 87, "velocity": 86, "duration": 732}, {"note": 85, "velocity": 86, "duration": 254}, {"note": 84, "velocity": 85, "duration": 539}, {"note": 0, "velocity": 0, "duration": 181}, {"note": 82, "velocity": 89, "duration": 71}, {"note": 80, "velocity": 86, "duration": 83}, {"note": 85, "velocity": 89, "duration": 221}, {"note": 84, "velocity": 86, "duration": 209}, {"note": 82, "velocity": 87, "duration": 120}, {"note": 80, "velocity": 86, "duration": 240}, {"note": 0, "velocity": 0, "duration": 240}, {"note": 84, "velocity": 86, "duration": 202}, {"note": 82, "velocity": 85, "duration": 209}, {"note": 80, "velocity": 82, "duration": 632}, {"note": 79, "velocity": 87, "duration": 234}, {"note": 80, "velocity": 86, "duration": 1397}, {"note": 0, "velocity": 0, "duration": 8931}, {"note": 72, "velocity": 85, "duration": 202}, {"note": 70, "velocity": 84, "duration": 225}, {"note": 68, "velocity": 83, "duration": 217}, {"note": 72, "velocity": 85, "duration": 582}, {"note": 0, "velocity": 0, "duration": 112}, {"note": 72, "velocity": 86, "duration": 210}, {"note": 70, "velocity": 87, "duration": 196}, {"note": 68, "velocity": 85, "duration": 185}, {"note": 0, "velocity": 0, "duration": 72}, {"note": 67, "velocity": 86, "duration": 194}, {"note": 68, "velocity": 83, "duration": 400}, {"note": 0, "velocity": 0, "duration": 64}, {"note": 75, "velocity": 89, "duration": 680}, {"note": 0, "velocity": 0, "duration": 284}, {"note": 75, "velocity": 89, "duration": 177}, {"note": 0, "velocity": 0, "duration": 63}, {"note": 75, "velocity": 88, "duration": 191}, {"note": 67, "velocity": 81, "duration": 179}, {"note": 0, "velocity": 0, "duration": 61}, {"note": 70, "velocity": 81, "duration": 197}, {"note": 68, "velocity": 85, "duration": 333}, {"note": 0, "velocity": 0, "duration": 147}, {"note": 70, "velocity": 86, "duration": 194}, {"note": 72, "velocity": 85, "duration": 174}, {"note": 0, "velocity": 0, "duration": 66}, {"note": 72, "velocity": 86, "duration": 184}, {"note": 70, "velocity": 83, "duration": 192}, {"note": 68, "velocity": 85, "duration": 352}, {"note": 0, "velocity": 0, "duration": 128}, {"note": 67, "velocity": 85, "duration": 772}, {"note": 0, "velocity": 0, "duration": 188}, {"note": 68, "velocity": 82, "duration": 198}, {"note": 75, "velocity": 91, "duration": 222}, {"note": 72, "velocity": 84, "duration": 184}, {"note": 73, "velocity": 80, "duration": 612}, {"note": 0, "velocity": 0, "duration": 108}, {"note": 73, "velocity": 85, "duration": 203}, {"note": 75, "velocity": 87, "duration": 187}, {"note": 73, "velocity": 82, "duration": 218}, {"note": 72, "velocity": 85, "duration": 209}, {"note": 70, "velocity": 85, "duration": 216}, {"note": 73, "velocity": 82, "duration": 557}, {"note": 0, "velocity": 0, "duration": 163}, {"note": 73, "velocity": 85, "duration": 191}, {"note": 75, "velocity": 85, "duration": 185}, {"note": 73, "velocity": 85, "duration": 198}, {"note": 72, "velocity": 86, "duration": 210}, {"note": 70, "velocity": 85, "duration": 194}, {"note": 73, "velocity": 85, "duration": 516}, {"note": 0, "velocity": 0, "duration": 444}, {"note": 75, "velocity": 89, "duration": 187}, {"note": 73, "velocity": 81, "duration": 199}, {"note": 72, "velocity": 85, "duration": 284}, {"note": 0, "velocity": 0, "duration": 196}, {"note": 68, "velocity": 85, "duration": 199}, {"note": 70, "velocity": 79, "duration": 740}, {"note": 0, "velocity": 0, "duration": 228}, {"note": 72, "velocity": 85, "duration": 202}, {"note": 70, "velocity": 84, "duration": 225}, {"note": 68, "velocity": 83, "duration": 217}, {"note": 72, "velocity": 85, "duration": 582}, {"note": 0, "velocity": 0, "duration": 112}, {"note": 72, "velocity": 86, "duration": 210}, {"note": 70, "velocity": 87, "duration": 196}, {"note": 68, "velocity": 85, "duration": 185}, {"note": 0, "velocity": 0, "duration": 72}, {"note": 67, "velocity": 86, "duration": 194}, {"note": 68, "velocity": 83, "duration": 400}, {"note": 0, "velocity": 0, "duration": 64}, {"note": 75, "velocity": 89, "duration": 680}, {"note": 0, "velocity": 0, "duration": 284}, {"note": 75, "velocity": 89, "duration": 177}, {"note": 0, "velocity": 0, "duration": 63}, {"note": 75, "velocity": 88, "duration": 191}, {"note": 67, "velocity": 81, "duration": 179}, {"note": 0, "velocity": 0, "duration": 61}, {"note": 70, "velocity": 81, "duration": 197}, {"note": 68, "velocity": 85, "duration": 333}, {"note": 0, "velocity": 0, "duration": 147}, {"note": 70, "velocity": 86, "duration": 194}, {"note": 72, "velocity": 85, "duration": 174}, {"note": 0, "velocity": 0, "duration": 66}, {"note": 72, "velocity": 86, "duration": 184}, {"note": 70, "velocity": 83, "duration": 192}, {"note": 68, "velocity": 85, "duration": 352}, {"note": 0, "velocity": 0, "duration": 128}, {"note": 67, "velocity": 85, "duration": 772}, {"note": 0, "velocity": 0, "duration": 188}, {"note": 68, "velocity": 82, "duration": 198}, {"note": 75, "velocity": 91, "duration": 222}, {"note": 72, "velocity": 84, "duration": 184}, {"note": 73, "velocity": 80, "duration": 612}, {"note": 0, "velocity": 0, "duration": 108}, {"note": 73, "velocity": 85, "duration": 203}, {"note": 75, "velocity": 87, "duration": 187}, {"note": 73, "velocity": 82, "duration": 218}, {"note": 72, "velocity": 85, "duration": 209}, {"note": 70, "velocity": 85, "duration": 216}, {"note": 73, "velocity": 82, "duration": 557}, {"note": 0, "velocity": 0, "duration": 163}, {"note": 73, "velocity": 85, "duration": 191}, {"note": 75, "velocity": 85, "duration": 185}, {"note": 73, "velocity": 85, "duration": 198}, {"note": 72, "velocity": 86, "duration": 210}, {"note": 70, "velocity": 85, "duration": 194}, {"note": 73, "velocity": 85, "duration": 516}, {"note": 0, "velocity": 0, "duration": 204}, {"note": 73, "velocity": 87, "duration": 203}, {"note": 75, "velocity": 86, "duration": 185}, {"note": 73, "velocity": 86, "duration": 205}, {"note": 72, "velocity": 86, "duration": 173}, {"note": 0, "velocity": 0, "duration": 67}, {"note": 73, "velocity": 87, "duration": 397}, {"note": 0, "velocity": 0, "duration": 83}, {"note": 75, "velocity": 81, "duration": 768}, {"note": 0, "velocity": 0, "duration": 192}, {"note": 75, "velocity": 96, "duration": 198}, {"note": 77, "velocity": 87, "duration": 177}, {"note": 0, "velocity": 0, "duration": 63}, {"note": 79, "velocity": 85, "duration": 168}, {"note": 0, "velocity": 0, "duration": 72}, {"note": 80, "velocity": 85, "duration": 205}, {"note": 75, "velocity": 87, "duration": 68}, {"note": 75, "velocity": 86, "duration": 680}, {"note": 0, "velocity": 0, "duration": 160}, {"note": 84, "velocity": 86, "duration": 208}, {"note": 82, "velocity": 85, "duration": 173}, {"note": 0, "velocity": 0, "duration": 67}, {"note": 80, "velocity": 85, "duration": 176}, {"note": 0, "velocity": 0, "duration": 64}, {"note": 82, "velocity": 84, "duration": 395}, {"note": 0, "velocity": 0, "duration": 85}, {"note": 75, "velocity": 86, "duration": 524}, {"note": 0, "velocity": 0, "duration": 196}, {"note": 72, "velocity": 87, "duration": 207}, {"note": 82, "velocity": 86, "duration": 199}, {"note": 79, "velocity": 85, "duration": 170}, {"note": 0, "velocity": 0, "duration": 70}, {"note": 80, "velocity": 84, "duration": 193}, {"note": 79, "velocity": 86, "duration": 80}, {"note": 80, "velocity": 90, "duration": 319}, {"note": 84, "velocity": 86, "duration": 205}, {"note": 79, "velocity": 85, "duration": 170}, {"note": 0, "velocity": 0, "duration": 70}, {"note": 77, "velocity": 85, "duration": 87}, {"note": 79, "velocity": 87, "duration": 445}, {"note": 75, "velocity": 87, "duration": 140}, {"note": 77, "velocity": 86, "duration": 954}, {"note": 0, "velocity": 0, "duration": 246}, {"note": 75, "velocity": 86, "duration": 173}, {"note": 0, "velocity": 0, "duration": 67}, {"note": 73, "velocity": 84, "duration": 182}, {"note": 72, "velocity": 87, "duration": 195}, {"note": 73, "velocity": 87, "duration": 394}, {"note": 0, "velocity": 0, "duration": 86}, {"note": 84, "velocity": 87, "duration": 319}, {"note": 82, "velocity": 87, "duration": 351}, {"note": 82, "velocity": 87, "duration": 205}, {"note": 84, "velocity": 86, "duration": 170}, {"note": 0, "velocity": 0, "duration": 70}, {"note": 85, "velocity": 86, "duration": 188}, {"note": 87, "velocity": 86, "duration": 732}, {"note": 85, "velocity": 86, "duration": 254}, {"note": 84, "velocity": 85, "duration": 539}, {"note": 0, "velocity": 0, "duration": 181}, {"note": 82, "velocity": 89, "duration": 71}, {"note": 80, "velocity": 86, "duration": 83}, {"note": 85, "velocity": 89, "duration": 221}, {"note": 84, "velocity": 86, "duration": 209}, {"note": 82, "velocity": 87, "duration": 227}, {"note": 80, "velocity": 86, "duration": 162}, {"note": 0, "velocity": 0, "duration": 78}, {"note": 80, "velocity": 85, "duration": 246}, {"note": 77, "velocity": 86, "duration": 217}, {"note": 79, "velocity": 82, "duration": 198}, {"note": 80, "velocity": 85, "duration": 144}, {"note": 0, "velocity": 0, "duration": 96}, {"note": 82, "velocity": 86, "duration": 1014}, {"note": 0, "velocity": 0, "duration": 186}, {"note": 75, "velocity": 96, "duration": 198}, {"note": 77, "velocity": 87, "duration": 177}, {"note": 0, "velocity": 0, "duration": 63}, {"note": 79, "velocity": 85, "duration": 168}, {"note": 0, "velocity": 0, "duration": 72}, {"note": 80, "velocity": 85, "duration": 205}, {"note": 75, "velocity": 87, "duration": 68}, {"note": 75, "velocity": 86, "duration": 680}, {"note": 0, "velocity": 0, "duration": 160}, {"note": 84, "velocity": 86, "duration": 208}, {"note": 82, "velocity": 85, "duration": 173}, {"note": 0, "velocity": 0, "duration": 67}, {"note": 80, "velocity": 85, "duration": 176}, {"note": 0, "velocity": 0, "duration": 64}, {"note": 82, "velocity": 84, "duration": 395}, {"note": 0, "velocity": 0, "duration": 85}, {"note": 75, "velocity": 86, "duration": 524}, {"note": 0, "velocity": 0, "duration": 196}, {"note": 72, "velocity": 87, "duration": 207}, {"note": 82, "velocity": 86, "duration": 199}, {"note": 79, "velocity": 85, "duration": 170}, {"note": 0, "velocity": 0, "duration": 70}, {"note": 80, "velocity": 84, "duration": 193}, {"note": 79, "velocity": 86, "duration": 80}, {"note": 80, "velocity": 90, "duration": 319}, {"note": 84, "velocity": 86, "duration": 205}, {"note": 79, "velocity": 85, "duration": 170}, {"note": 0, "velocity": 0, "duration": 70}, {"note": 77, "velocity": 85, "duration": 87}, {"note": 79, "velocity": 87, "duration": 445}, {"note": 75, "velocity": 87, "duration": 140}, {"note": 77, "velocity": 86, "duration": 954}, {"note": 0, "velocity": 0, "duration": 246}, {"note": 75, "velocity": 86, "duration": 173}, {"note": 0, "velocity": 0, "duration": 67}, {"note": 73, "velocity": 84, "duration": 182}, {"note": 72, "velocity": 87, "duration": 195}, {"note": 73, "velocity": 87, "duration": 394}, {"note": 0, "velocity": 0, "duration": 86}, {"note": 84, "velocity": 87, "duration": 319}, {"note": 82, "velocity": 87, "duration": 351}, {"note": 82, "velocity": 87, "duration": 205}, {"note": 84, "velocity": 86, "duration": 170}, {"note": 0, "velocity": 0, "duration": 70}, {"note": 85, "velocity": 86, "duration": 188}, {"note": 87, "velocity": 86, "duration": 732}, {"note": 85, "velocity": 86, "duration": 254}, {"note": 84, "velocity": 85, "duration": 539}, {"note": 0, "velocity": 0, "duration": 181}, {"note": 82, "velocity": 89, "duration": 71}, {"note": 80, "velocity": 86, "duration": 83}, {"note": 85, "velocity": 89, "duration": 221}, {"note": 84, "velocity": 86, "duration": 209}, {"note": 82, "velocity": 87, "duration": 120}, {"note": 80, "velocity": 86, "duration": 240}, {"note": 0, "velocity": 0, "duration": 139}, {"note": 84, "velocity": 86, "duration": 202}, {"note": 82, "velocity": 85, "duration": 210}, {"note": 80, "velocity": 82, "duration": 298}, {"note": 79, "velocity": 87, "duration": 234}, {"note": 80, "velocity": 86, "duration": 1862}, {"note": 0, "velocity": 0, "duration": 283}, {"note": 80, "velocity": 87, "duration": 93}, {"note": 79, "velocity": 87, "duration": 87}, {"note": 80, "velocity": 87, "duration": 154}, {"note": 0, "velocity": 0, "duration": 86}, {"note": 80, "velocity": 87, "duration": 81}, {"note": 79, "velocity": 88, "duration": 83}, {"note": 80, "velocity": 87, "duration": 149}, {"note": 0, "velocity": 0, "duration": 91}, {"note": 80, "velocity": 86, "duration": 71}, {"note": 80, "velocity": 86, "duration": 171}, {"note": 0, "velocity": 0, "duration": 69}, {"note": 82, "velocity": 85, "duration": 185}, {"note": 80, "velocity": 88, "duration": 251}, {"note": 0, "velocity": 0, "duration": 109}, {"note": 80, "velocity": 86, "duration": 102}, {"note": 79, "velocity": 83, "duration": 88}, {"note": 80, "velocity": 89, "duration": 300}, {"note": 79, "velocity": 86, "duration": 77}, {"note": 80, "velocity": 86, "duration": 272}, {"note": 0, "velocity": 0, "duration": 88}, {"note": 80, "velocity": 85, "duration": 199}, {"note": 77, "velocity": 88, "duration": 207}, {"note": 75, "velocity": 87, "duration": 232}, {"note": 80, "velocity": 81, "duration": 61}, {"note": 80, "velocity": 83, "duration": 62}, {"note": 80, "velocity": 85, "duration": 77}, {"note": 80, "velocity": 86, "duration": 174}, {"note": 0, "velocity": 0, "duration": 66}, {"note": 80, "velocity": 81, "duration": 67}, {"note": 80, "velocity": 87, "duration": 338}, {"note": 77, "velocity": 87, "duration": 180}, {"note": 79, "velocity": 86, "duration": 183}, {"note": 80, "velocity": 87, "duration": 193}, {"note": 84, "velocity": 87, "duration": 552}, {"note": 87, "velocity": 87, "duration": 86}, {"note": 84, "velocity": 89, "duration": 118}, {"note": 82, "velocity": 86, "duration": 726}, {"note": 80, "velocity": 85, "duration": 91}, {"note": 82, "velocity": 87, "duration": 83}, {"note": 83, "velocity": 91, "duration": 1150}, {"note": 0, "velocity": 0, "duration": 170}, {"note": 76, "velocity": 96, "duration": 198}, {"note": 78, "velocity": 87, "duration": 177}, {"note": 0, "velocity": 0, "duration": 63}, {"note": 80, "velocity": 85, "duration": 168}, {"note": 0, "velocity": 0, "duration": 72}, {"note": 81, "velocity": 85, "duration": 205}, {"note": 76, "velocity": 87, "duration": 68}, {"note": 76, "velocity": 86, "duration": 680}, {"note": 0, "velocity": 0, "duration": 160}, {"note": 85, "velocity": 86, "duration": 208}, {"note": 83, "velocity": 85, "duration": 173}, {"note": 0, "velocity": 0, "duration": 67}, {"note": 81, "velocity": 85, "duration": 176}, {"note": 0, "velocity": 0, "duration": 64}, {"note": 83, "velocity": 84, "duration": 395}, {"note": 0, "velocity": 0, "duration": 85}, {"note": 76, "velocity": 86, "duration": 524}, {"note": 0, "velocity": 0, "duration": 196}, {"note": 73, "velocity": 87, "duration": 207}, {"note": 83, "velocity": 86, "duration": 199}, {"note": 80, "velocity": 85, "duration": 170}, {"note": 0, "velocity": 0, "duration": 70}, {"note": 81, "velocity": 84, "duration": 193}, {"note": 80, "velocity": 86, "duration": 80}, {"note": 81, "velocity": 90, "duration": 319}, {"note": 85, "velocity": 86, "duration": 205}, {"note": 80, "velocity": 85, "duration": 170}, {"note": 0, "velocity": 0, "duration": 70}, {"note": 78, "velocity": 85, "duration": 87}, {"note": 80, "velocity": 87, "duration": 445}, {"note": 76, "velocity": 87, "duration": 140}, {"note": 78, "velocity": 86, "duration": 954}, {"note": 0, "velocity": 0, "duration": 246}, {"note": 76, "velocity": 86, "duration": 173}, {"note": 0, "velocity": 0, "duration": 67}, {"note": 74, "velocity": 84, "duration": 182}, {"note": 73, "velocity": 87, "duration": 195}, {"note": 74, "velocity": 87, "duration": 394}, {"note": 0, "velocity": 0, "duration": 86}, {"note": 85, "velocity": 87, "duration": 319}, {"note": 83, "velocity": 87, "duration": 351}, {"note": 83, "velocity": 87, "duration": 205}, {"note": 85, "velocity": 86, "duration": 170}, {"note": 0, "velocity": 0, "duration": 70}, {"note": 86, "velocity": 86, "duration": 188}, {"note": 88, "velocity": 86, "duration": 732}, {"note": 86, "velocity": 86, "duration": 254}, {"note": 85, "velocity": 85, "duration": 539}, {"note": 0, "velocity": 0, "duration": 181}, {"note": 83, "velocity": 89, "duration": 71}, {"note": 81, "velocity": 86, "duration": 83}, {"note": 86, "velocity": 89, "duration": 221}, {"note": 85, "velocity": 86, "duration": 209}, {"note": 83, "velocity": 87, "duration": 120}, {"note": 81, "velocity": 86, "duration": 240}, {"note": 0, "velocity": 0, "duration": 139}, {"note": 85, "velocity": 86, "duration": 202}, {"note": 83, "velocity": 85, "duration": 210}, {"note": 81, "velocity": 82, "duration": 298}, {"note": 80, "velocity": 87, "duration": 234}, {"note": 81, "velocity": 86, "duration": 1429}, {"note": 0, "velocity": 0, "duration": 232}, {"note": 71, "velocity": 75, "duration": 151}, {"note": 69, "velocity": 72, "duration": 201}, {"note": 74, "velocity": 82, "duration": 278}, {"note": 73, "velocity": 79, "duration": 334}, {"note": 71, "velocity": 72, "duration": 276}, {"note": 69, "velocity": 74, "duration": 390}, {"note": 73, "velocity": 79, "duration": 313}, {"note": 71, "velocity": 79, "duration": 297}, {"note": 69, "velocity": 73, "duration": 802}, {"note": 0, "velocity": 0, "duration": 547}, {"note": 68, "velocity": 72, "duration": 1109}, {"note": 69, "velocity": 80, "duration": 3620}]]