[[{"note": 68, "velocity": 86, "duration": 88}, {"note": 71, "velocity": 85, "duration": 73}, {"note": 73, "velocity": 87, "duration": 66}, {"note": 76, "velocity": 82, "duration": 75}, {"note": 76, "velocity": 84, "duration": 58}, {"note": 0, "velocity": 0, "duration": 62}, {"note": 76, "velocity": 84, "duration": 63}, {"note": 76, "velocity": 85, "duration": 166}, {"note": 0, "velocity": 0, "duration": 74}, {"note": 76, "velocity": 83, "duration": 65}, {"note": 76, "velocity": 85, "duration": 120}, {"note": 76, "velocity": 85, "duration": 360}, {"note": 76, "velocity": 85, "duration": 68}, {"note": 78, "velocity": 78, "duration": 96}, {"note": 76, "velocity": 80, "duration": 106}, {"note": 75, "velocity": 86, "duration": 83}, {"note": 73, "velocity": 84, "duration": 73}, {"note": 71, "velocity": 85, "duration": 93}, {"note": 73, "velocity": 85, "duration": 81}, {"note": 71, "velocity": 85, "duration": 480}, {"note": 0, "velocity": 0, "duration": 120}, {"note": 68, "velocity": 84, "duration": 60}, {"note": 68, "velocity": 85, "duration": 566}, {"note": 0, "velocity": 0, "duration": 154}, {"note": 68, "velocity": 79, "duration": 82}, {"note": 71, "velocity": 80, "duration": 71}, {"note": 73, "velocity": 83, "duration": 75}, {"note": 76, "velocity": 85, "duration": 64}, {"note": 76, "velocity": 83, "duration": 52}, {"note": 0, "velocity": 0, "duration": 68}, {"note": 76, "velocity": 84, "duration": 62}, {"note": 76, "velocity": 85, "duration": 153}, {"note": 0, "velocity": 0, "duration": 87}, {"note": 78, "velocity": 85, "duration": 98}, {"note": 76, "velocity": 79, "duration": 84}, {"note": 80, "velocity": 84, "duration": 325}, {"note": 80, "velocity": 77, "duration": 62}, {"note": 80, "velocity": 85, "duration": 78}, {"note": 78, "velocity": 84, "duration": 83}, {"note": 76, "velocity": 84, "duration": 94}, {"note": 75, "velocity": 84, "duration": 65}, {"note": 75, "velocity": 84, "duration": 96}, {"note": 76, "velocity": 73, "duration": 78}, {"note": 75, "velocity": 84, "duration": 631}, {"note": 73, "velocity": 85, "duration": 77}, {"note": 71, "velocity": 82, "duration": 476}, {"note": 0, "velocity": 0, "duration": 244}, {"note": 71, "velocity": 84, "duration": 54}, {"note": 0, "velocity": 0, "duration": 66}, {"note": 71, "velocity": 85, "duration": 107}, {"note": 73, "velocity": 90, "duration": 228}, {"note": 76, "velocity": 79, "duration": 86}, {"note": 76, "velocity": 79, "duration": 75}, {"note": 76, "velocity": 84, "duration": 185}, {"note": 78, "velocity": 85, "duration": 179}, {"note": 0, "velocity": 0, "duration": 61}, {"note": 76, "velocity": 80, "duration": 342}, {"note": 76, "velocity": 85, "duration": 57}, {"note": 0, "velocity": 0, "duration": 63}, {"note": 76, "velocity": 85, "duration": 89}, {"note": 75, "velocity": 86, "duration": 106}, {"note": 73, "velocity": 85, "duration": 97}, {"note": 71, "velocity": 84, "duration": 65}, {"note": 71, "velocity": 84, "duration": 86}, {"note": 73, "velocity": 86, "duration": 73}, {"note": 71, "velocity": 84, "duration": 366}, {"note": 0, "velocity": 0, "duration": 114}, {"note": 66, "velocity": 80, "duration": 179}, {"note": 0, "velocity": 0, "duration": 61}, {"note": 68, "velocity": 78, "duration": 318}, {"note": 0, "velocity": 0, "duration": 402}, {"note": 78, "velocity": 85, "duration": 81}, {"note": 80, "velocity": 84, "duration": 73}, {"note": 78, "velocity": 84, "duration": 98}, {"note": 76, "velocity": 82, "duration": 71}, {"note": 78, "velocity": 85, "duration": 88}, {"note": 76, "velocity": 80, "duration": 72}, {"note": 78, "velocity": 84, "duration": 172}, {"note": 0, "velocity": 0, "duration": 68}, {"note": 78, "velocity": 85, "duration": 82}, {"note": 76, "velocity": 84, "duration": 68}, {"note": 78, "velocity": 86, "duration": 263}, {"note": 0, "velocity": 0, "duration": 97}, {"note": 73, "velocity": 88, "duration": 68}, {"note": 73, "velocity": 86, "duration": 65}, {"note": 73, "velocity": 88, "duration": 64}, {"note": 73, "velocity": 89, "duration": 59}, {"note": 0, "velocity": 0, "duration": 61}, {"note": 73, "velocity": 88, "duration": 85}, {"note": 80, "velocity": 84, "duration": 307}, {"note": 78, "velocity": 80, "duration": 1080}, {"note": 0, "velocity": 0, "duration": 240}, {"note": 68, "velocity": 86, "duration": 88}, {"note": 71, "velocity": 85, "duration": 73}, {"note": 73, "velocity": 87, "duration": 66}, {"note": 76, "velocity": 82, "duration": 75}, {"note": 76, "velocity": 84, "duration": 58}, {"note": 0, "velocity": 0, "duration": 62}, {"note": 76, "velocity": 84, "duration": 63}, {"note": 76, "velocity": 85, "duration": 166}, {"note": 0, "velocity": 0, "duration": 74}, {"note": 76, "velocity": 83, "duration": 65}, {"note": 76, "velocity": 85, "duration": 120}, {"note": 76, "velocity": 85, "duration": 360}, {"note": 76, "velocity": 85, "duration": 68}, {"note": 78, "velocity": 78, "duration": 96}, {"note": 76, "velocity": 80, "duration": 106}, {"note": 75, "velocity": 86, "duration": 83}, {"note": 73, "velocity": 84, "duration": 73}, {"note": 71, "velocity": 85, "duration": 93}, {"note": 73, "velocity": 85, "duration": 81}, {"note": 71, "velocity": 85, "duration": 480}, {"note": 0, "velocity": 0, "duration": 120}, {"note": 68, "velocity": 84, "duration": 60}, {"note": 68, "velocity": 85, "duration": 566}, {"note": 0, "velocity": 0, "duration": 154}, {"note": 68, "velocity": 79, "duration": 82}, {"note": 71, "velocity": 80, "duration": 71}, {"note": 73, "velocity": 83, "duration": 75}, {"note": 76, "velocity": 85, "duration": 64}, {"note": 76, "velocity": 83, "duration": 52}, {"note": 0, "velocity": 0, "duration": 68}, {"note": 76, "velocity": 84, "duration": 62}, {"note": 76, "velocity": 85, "duration": 153}, {"note": 0, "velocity": 0, "duration": 87}, {"note": 78, "velocity": 85, "duration": 98}, {"note": 76, "velocity": 79, "duration": 84}, {"note": 80, "velocity": 84, "duration": 325}, {"note": 80, "velocity": 77, "duration": 62}, {"note": 80, "velocity": 85, "duration": 78}, {"note": 78, "velocity": 84, "duration": 83}, {"note": 76, "velocity": 84, "duration": 94}, {"note": 75, "velocity": 84, "duration": 65}, {"note": 75, "velocity": 84, "duration": 96}, {"note": 76, "velocity": 73, "duration": 78}, {"note": 75, "velocity": 84, "duration": 631}, {"note": 73, "velocity": 85, "duration": 77}, {"note": 71, "velocity": 82, "duration": 476}, {"note": 0, "velocity": 0, "duration": 244}, {"note": 71, "velocity": 84, "duration": 54}, {"note": 0, "velocity": 0, "duration": 66}, {"note": 71, "velocity": 85, "duration": 107}, {"note": 73, "velocity": 90, "duration": 228}, {"note": 76, "velocity": 79, "duration": 86}, {"note": 76, "velocity": 79, "duration": 75}, {"note": 76, "velocity": 84, "duration": 185}, {"note": 78, "velocity": 85, "duration": 179}, {"note": 0, "velocity": 0, "duration": 61}, {"note": 76, "velocity": 80, "duration": 342}, {"note": 76, "velocity": 85, "duration": 57}, {"note": 0, "velocity": 0, "duration": 63}, {"note": 76, "velocity": 85, "duration": 89}, {"note": 75, "velocity": 86, "duration": 106}, {"note": 73, "velocity": 85, "duration": 97}, {"note": 71, "velocity": 84, "duration": 65}, {"note": 71, "velocity": 84, "duration": 86}, {"note": 73, "velocity": 86, "duration": 73}, {"note": 71, "velocity": 84, "duration": 366}, {"note": 0, "velocity": 0, "duration": 234}, {"note": 80, "velocity": 80, "duration": 120}, {"note": 80, "velocity": 78, "duration": 318}, {"note": 0, "velocity": 0, "duration": 402}, {"note": 78, "velocity": 85, "duration": 81}, {"note": 80, "velocity": 84, "duration": 73}, {"note": 78, "velocity": 84, "duration": 98}, {"note": 76, "velocity": 82, "duration": 71}, {"note": 78, "velocity": 85, "duration": 88}, {"note": 76, "velocity": 80, "duration": 72}, {"note": 78, "velocity": 84, "duration": 172}, {"note": 0, "velocity": 0, "duration": 68}, {"note": 78, "velocity": 85, "duration": 82}, {"note": 76, "velocity": 84, "duration": 68}, {"note": 78, "velocity": 86, "duration": 263}, {"note": 0, "velocity": 0, "duration": 97}, {"note": 73, "velocity": 88, "duration": 68}, {"note": 73, "velocity": 86, "duration": 65}, {"note": 80, "velocity": 88, "duration": 240}, {"note": 0, "velocity": 0, "duration": 120}, {"note": 78, "velocity": 84, "duration": 1440}, {"note": 0, "velocity": 0, "duration": 2160}, {"note": 71, "velocity": 86, "duration": 122}, {"note": 73, "velocity": 93, "duration": 59}, {"note": 0, "velocity": 0, "duration": 61}, {"note": 85, "velocity": 86, "duration": 102}, {"note": 83, "velocity": 79, "duration": 67}, {"note": 83, "velocity": 87, "duration": 68}, {"note": 83, "velocity": 84, "duration": 73}, {"note": 83, "velocity": 90, "duration": 64}, {"note": 80, "velocity": 76, "duration": 70}, {"note": 80, "velocity": 79, "duration": 56}, {"note": 0, "velocity": 0, "duration": 64}, {"note": 80, "velocity": 79, "duration": 54}, {"note": 0, "velocity": 0, "duration": 66}, {"note": 80, "velocity": 85, "duration": 96}, {"note": 78, "velocity": 73, "duration": 66}, {"note": 78, "velocity": 75, "duration": 62}, {"note": 78, "velocity": 79, "duration": 63}, {"note": 78, "velocity": 86, "duration": 96}, {"note": 76, "velocity": 79, "duration": 63}, {"note": 76, "velocity": 75, "duration": 71}, {"note": 76, "velocity": 77, "duration": 65}, {"note": 73, "velocity": 84, "duration": 360}, {"note": 71, "velocity": 85, "duration": 669}, {"note": 0, "velocity": 0, "duration": 651}, {"note": 71, "velocity": 86, "duration": 150}, {"note": 73, "velocity": 91, "duration": 57}, {"note": 0, "velocity": 0, "duration": 63}, {"note": 85, "velocity": 84, "duration": 104}, {"note": 83, "velocity": 84, "duration": 60}, {"note": 83, "velocity": 85, "duration": 68}, {"note": 83, "velocity": 86, "duration": 71}, {"note": 83, "velocity": 88, "duration": 90}, {"note": 80, "velocity": 82, "duration": 69}, {"note": 80, "velocity": 80, "duration": 62}, {"note": 80, "velocity": 78, "duration": 65}, {"note": 80, "velocity": 85, "duration": 107}, {"note": 78, "velocity": 79, "duration": 65}, {"note": 78, "velocity": 77, "duration": 64}, {"note": 78, "velocity": 77, "duration": 66}, {"note": 78, "velocity": 80, "duration": 78}, {"note": 76, "velocity": 69, "duration": 63}, {"note": 76, "velocity": 76, "duration": 70}, {"note": 80, "velocity": 78, "duration": 480}, {"note": 78, "velocity": 84, "duration": 740}, {"note": 0, "velocity": 0, "duration": 460}, {"note": 78, "velocity": 85, "duration": 112}, {"note": 80, "velocity": 86, "duration": 113}, {"note": 78, "velocity": 86, "duration": 72}, {"note": 78, "velocity": 85, "duration": 104}, {"note": 76, "velocity": 79, "duration": 68}, {"note": 76, "velocity": 79, "duration": 70}, {"note": 76, "velocity": 79, "duration": 69}, {"note": 76, "velocity": 84, "duration": 224}, {"note": 73, "velocity": 88, "duration": 117}, {"note": 76, "velocity": 82, "duration": 465}, {"note": 0, "velocity": 0, "duration": 135}, {"note": 73, "velocity": 95, "duration": 221}, {"note": 85, "velocity": 88, "duration": 174}, {"note": 0, "velocity": 0, "duration": 66}, {"note": 85, "velocity": 86, "duration": 105}, {"note": 83, "velocity": 85, "duration": 171}, {"note": 0, "velocity": 0, "duration": 69}, {"note": 83, "velocity": 84, "duration": 65}, {"note": 80, "velocity": 77, "duration": 78}, {"note": 80, "velocity": 84, "duration": 52}, {"note": 0, "velocity": 0, "duration": 68}, {"note": 80, "velocity": 80, "duration": 58}, {"note": 0, "velocity": 0, "duration": 62}, {"note": 80, "velocity": 85, "duration": 607}, {"note": 0, "velocity": 0, "duration": 233}, {"note": 80, "velocity": 85, "duration": 62}, {"note": 80, "velocity": 85, "duration": 61}, {"note": 80, "velocity": 83, "duration": 98}, {"note": 78, "velocity": 80, "duration": 73}, {"note": 78, "velocity": 80, "duration": 61}, {"note": 78, "velocity": 80, "duration": 58}, {"note": 0, "velocity": 0, "duration": 62}, {"note": 78, "velocity": 85, "duration": 91}, {"note": 76, "velocity": 79, "duration": 64}, {"note": 76, "velocity": 80, "duration": 60}, {"note": 76, "velocity": 82, "duration": 65}, {"note": 76, "velocity": 82, "duration": 215}, {"note": 0, "velocity": 0, "duration": 145}, {"note": 76, "velocity": 80, "duration": 73}, {"note": 76, "velocity": 85, "duration": 193}, {"note": 73, "velocity": 90, "duration": 76}, {"note": 76, "velocity": 84, "duration": 79}, {"note": 80, "velocity": 84, "duration": 307}, {"note": 78, "velocity": 80, "duration": 720}, {"note": 0, "velocity": 0, "duration": 600}, {"note": 71, "velocity": 86, "duration": 122}, {"note": 73, "velocity": 93, "duration": 59}, {"note": 0, "velocity": 0, "duration": 61}, {"note": 85, "velocity": 86, "duration": 102}, {"note": 83, "velocity": 79, "duration": 67}, {"note": 83, "velocity": 87, "duration": 68}, {"note": 83, "velocity": 84, "duration": 73}, {"note": 83, "velocity": 90, "duration": 64}, {"note": 80, "velocity": 76, "duration": 70}, {"note": 80, "velocity": 79, "duration": 56}, {"note": 0, "velocity": 0, "duration": 64}, {"note": 80, "velocity": 79, "duration": 54}, {"note": 0, "velocity": 0, "duration": 66}, {"note": 80, "velocity": 85, "duration": 96}, {"note": 78, "velocity": 73, "duration": 66}, {"note": 78, "velocity": 75, "duration": 62}, {"note": 78, "velocity": 79, "duration": 63}, {"note": 78, "velocity": 86, "duration": 96}, {"note": 76, "velocity": 79, "duration": 63}, {"note": 76, "velocity": 75, "duration": 71}, {"note": 76, "velocity": 77, "duration": 65}, {"note": 73, "velocity": 84, "duration": 360}, {"note": 71, "velocity": 85, "duration": 669}, {"note": 0, "velocity": 0, "duration": 651}, {"note": 71, "velocity": 86, "duration": 150}, {"note": 73, "velocity": 91, "duration": 57}, {"note": 0, "velocity": 0, "duration": 63}, {"note": 85, "velocity": 84, "duration": 104}, {"note": 83, "velocity": 84, "duration": 60}, {"note": 83, "velocity": 85, "duration": 68}, {"note": 83, "velocity": 86, "duration": 71}, {"note": 83, "velocity": 88, "duration": 90}, {"note": 80, "velocity": 82, "duration": 69}, {"note": 80, "velocity": 80, "duration": 62}, {"note": 80, "velocity": 78, "duration": 65}, {"note": 80, "velocity": 85, "duration": 107}, {"note": 78, "velocity": 79, "duration": 65}, {"note": 78, "velocity": 77, "duration": 64}, {"note": 78, "velocity": 77, "duration": 66}, {"note": 78, "velocity": 80, "duration": 78}, {"note": 76, "velocity": 69, "duration": 63}, {"note": 76, "velocity": 76, "duration": 70}, {"note": 80, "velocity": 78, "duration": 480}, {"note": 78, "velocity": 84, "duration": 740}, {"note": 0, "velocity": 0, "duration": 460}, {"note": 78, "velocity": 85, "duration": 112}, {"note": 80, "velocity": 86, "duration": 113}, {"note": 78, "velocity": 86, "duration": 72}, {"note": 78, "velocity": 85, "duration": 104}, {"note": 76, "velocity": 79, "duration": 68}, {"note": 76, "velocity": 79, "duration": 70}, {"note": 76, "velocity": 79, "duration": 69}, {"note": 76, "velocity": 84, "duration": 224}, {"note": 73, "velocity": 88, "duration": 117}, {"note": 76, "velocity": 82, "duration": 465}, {"note": 0, "velocity": 0, "duration": 135}, {"note": 73, "velocity": 95, "duration": 221}, {"note": 85, "velocity": 88, "duration": 174}, {"note": 0, "velocity": 0, "duration": 66}, {"note": 85, "velocity": 86, "duration": 105}, {"note": 83, "velocity": 85, "duration": 171}, {"note": 0, "velocity": 0, "duration": 69}, {"note": 83, "velocity": 84, "duration": 65}, {"note": 80, "velocity": 77, "duration": 78}, {"note": 80, "velocity": 84, "duration": 52}, {"note": 0, "velocity": 0, "duration": 68}, {"note": 80, "velocity": 80, "duration": 58}, {"note": 0, "velocity": 0, "duration": 62}, {"note": 80, "velocity": 85, "duration": 607}, {"note": 0, "velocity": 0, "duration": 233}, {"note": 71, "velocity": 85, "duration": 241}, {"note": 80, "velocity": 85, "duration": 240}, {"note": 0, "velocity": 0, "duration": 120}, {"note": 78, "velocity": 80, "duration": 240}, {"note": 0, "velocity": 0, "duration": 240}, {"note": 76, "velocity": 80, "duration": 115}, {"note": 73, "velocity": 82, "duration": 120}, {"note": 80, "velocity": 82, "duration": 215}, {"note": 78, "velocity": 85, "duration": 314}, {"note": 76, "velocity": 79, "duration": 95}, {"note": 76, "velocity": 86, "duration": 107}, {"note": 73, "velocity": 84, "duration": 109}, {"note": 78, "velocity": 84, "duration": 354}, {"note": 76, "velocity": 84, "duration": 1534}, {"note": 0, "velocity": 0, "duration": 15146}, {"note": 68, "velocity": 86, "duration": 88}, {"note": 71, "velocity": 85, "duration": 73}, {"note": 73, "velocity": 87, "duration": 66}, {"note": 76, "velocity": 82, "duration": 75}, {"note": 76, "velocity": 84, "duration": 58}, {"note": 0, "velocity": 0, "duration": 62}, {"note": 76, "velocity": 84, "duration": 63}, {"note": 76, "velocity": 85, "duration": 166}, {"note": 0, "velocity": 0, "duration": 74}, {"note": 76, "velocity": 83, "duration": 65}, {"note": 76, "velocity": 85, "duration": 120}, {"note": 76, "velocity": 85, "duration": 360}, {"note": 76, "velocity": 85, "duration": 68}, {"note": 78, "velocity": 78, "duration": 96}, {"note": 76, "velocity": 80, "duration": 106}, {"note": 75, "velocity": 86, "duration": 83}, {"note": 73, "velocity": 84, "duration": 73}, {"note": 71, "velocity": 85, "duration": 93}, {"note": 73, "velocity": 85, "duration": 81}, {"note": 71, "velocity": 85, "duration": 480}, {"note": 0, "velocity": 0, "duration": 120}, {"note": 68, "velocity": 84, "duration": 60}, {"note": 68, "velocity": 85, "duration": 566}, {"note": 0, "velocity": 0, "duration": 154}, {"note": 68, "velocity": 79, "duration": 82}, {"note": 71, "velocity": 80, "duration": 71}, {"note": 73, "velocity": 83, "duration": 75}, {"note": 76, "velocity": 85, "duration": 64}, {"note": 76, "velocity": 83, "duration": 52}, {"note": 0, "velocity": 0, "duration": 68}, {"note": 76, "velocity": 84, "duration": 62}, {"note": 76, "velocity": 85, "duration": 153}, {"note": 0, "velocity": 0, "duration": 87}, {"note": 78, "velocity": 85, "duration": 98}, {"note": 76, "velocity": 79, "duration": 84}, {"note": 80, "velocity": 84, "duration": 325}, {"note": 80, "velocity": 77, "duration": 62}, {"note": 80, "velocity": 85, "duration": 78}, {"note": 78, "velocity": 84, "duration": 83}, {"note": 76, "velocity": 84, "duration": 94}, {"note": 75, "velocity": 84, "duration": 65}, {"note": 75, "velocity": 84, "duration": 96}, {"note": 76, "velocity": 73, "duration": 78}, {"note": 75, "velocity": 84, "duration": 631}, {"note": 73, "velocity": 85, "duration": 77}, {"note": 71, "velocity": 82, "duration": 476}, {"note": 0, "velocity": 0, "duration": 244}, {"note": 71, "velocity": 84, "duration": 54}, {"note": 0, "velocity": 0, "duration": 66}, {"note": 71, "velocity": 85, "duration": 107}, {"note": 73, "velocity": 90, "duration": 228}, {"note": 76, "velocity": 79, "duration": 86}, {"note": 76, "velocity": 79, "duration": 75}, {"note": 76, "velocity": 84, "duration": 185}, {"note": 78, "velocity": 85, "duration": 179}, {"note": 0, "velocity": 0, "duration": 61}, {"note": 76, "velocity": 80, "duration": 342}, {"note": 76, "velocity": 85, "duration": 57}, {"note": 0, "velocity": 0, "duration": 63}, {"note": 76, "velocity": 85, "duration": 89}, {"note": 75, "velocity": 86, "duration": 106}, {"note": 73, "velocity": 85, "duration": 97}, {"note": 71, "velocity": 84, "duration": 65}, {"note": 71, "velocity": 84, "duration": 86}, {"note": 73, "velocity": 86, "duration": 73}, {"note": 71, "velocity": 84, "duration": 366}, {"note": 0, "velocity": 0, "duration": 234}, {"note": 80, "velocity": 80, "duration": 120}, {"note": 80, "velocity": 78, "duration": 318}, {"note": 0, "velocity": 0, "duration": 402}, {"note": 78, "velocity": 85, "duration": 81}, {"note": 80, "velocity": 84, "duration": 73}, {"note": 78, "velocity": 84, "duration": 98}, {"note": 76, "velocity": 82, "duration": 71}, {"note": 78, "velocity": 85, "duration": 88}, {"note": 76, "velocity": 80, "duration": 72}, {"note": 78, "velocity": 84, "duration": 172}, {"note": 0, "velocity": 0, "duration": 68}, {"note": 78, "velocity": 85, "duration": 82}, {"note": 76, "velocity": 84, "duration": 68}, {"note": 78, "velocity": 86, "duration": 263}, {"note": 0, "velocity": 0, "duration": 97}, {"note": 73, "velocity": 88, "duration": 68}, {"note": 73, "velocity": 86, "duration": 65}, {"note": 80, "velocity": 88, "duration": 240}, {"note": 0, "velocity": 0, "duration": 120}, {"note": 78, "velocity": 84, "duration": 1440}, {"note": 0, "velocity": 0, "duration": 2160}, {"note": 71, "velocity": 86, "duration": 122}, {"note": 73, "velocity": 93, "duration": 59}, {"note": 0, "velocity": 0, "duration": 61}, {"note": 85, "velocity": 86, "duration": 102}, {"note": 83, "velocity": 79, "duration": 67}, {"note": 83, "velocity": 87, "duration": 68}, {"note": 83, "velocity": 84, "duration": 73}, {"note": 83, "velocity": 90, "duration": 64}, {"note": 80, "velocity": 76, "duration": 70}, {"note": 80, "velocity": 79, "duration": 56}, {"note": 0, "velocity": 0, "duration": 64}, {"note": 80, "velocity": 79, "duration": 54}, {"note": 0, "velocity": 0, "duration": 66}, {"note": 80, "velocity": 85, "duration": 96}, {"note": 78, "velocity": 73, "duration": 66}, {"note": 78, "velocity": 75, "duration": 62}, {"note": 78, "velocity": 79, "duration": 63}, {"note": 78, "velocity": 86, "duration": 96}, {"note": 76, "velocity": 79, "duration": 63}, {"note": 76, "velocity": 75, "duration": 71}, {"note": 76, "velocity": 77, "duration": 65}, {"note": 73, "velocity": 84, "duration": 360}, {"note": 71, "velocity": 85, "duration": 669}, {"note": 0, "velocity": 0, "duration": 651}, {"note": 71, "velocity": 86, "duration": 150}, {"note": 73, "velocity": 91, "duration": 57}, {"note": 0, "velocity": 0, "duration": 63}, {"note": 85, "velocity": 84, "duration": 104}, {"note": 83, "velocity": 84, "duration": 60}, {"note": 83, "velocity": 85, "duration": 68}, {"note": 83, "velocity": 86, "duration": 71}, {"note": 83, "velocity": 88, "duration": 90}, {"note": 80, "velocity": 82, "duration": 69}, {"note": 80, "velocity": 80, "duration": 62}, {"note": 80, "velocity": 78, "duration": 65}, {"note": 80, "velocity": 85, "duration": 107}, {"note": 78, "velocity": 79, "duration": 65}, {"note": 78, "velocity": 77, "duration": 64}, {"note": 78, "velocity": 77, "duration": 66}, {"note": 78, "velocity": 80, "duration": 78}, {"note": 76, "velocity": 69, "duration": 63}, {"note": 76, "velocity": 76, "duration": 70}, {"note": 80, "velocity": 78, "duration": 480}, {"note": 78, "velocity": 84, "duration": 740}, {"note": 0, "velocity": 0, "duration": 460}, {"note": 78, "velocity": 85, "duration": 112}, {"note": 80, "velocity": 86, "duration": 113}, {"note": 78, "velocity": 86, "duration": 72}, {"note": 78, "velocity": 85, "duration": 104}, {"note": 76, "velocity": 79, "duration": 68}, {"note": 76, "velocity": 79, "duration": 70}, {"note": 76, "velocity": 79, "duration": 69}, {"note": 76, "velocity": 84, "duration": 224}, {"note": 73, "velocity": 88, "duration": 117}, {"note": 76, "velocity": 82, "duration": 465}, {"note": 0, "velocity": 0, "duration": 135}, {"note": 73, "velocity": 95, "duration": 221}, {"note": 85, "velocity": 88, "duration": 174}, {"note": 0, "velocity": 0, "duration": 66}, {"note": 85, "velocity": 86, "duration": 105}, {"note": 83, "velocity": 85, "duration": 171}, {"note": 0, "velocity": 0, "duration": 69}, {"note": 83, "velocity": 84, "duration": 65}, {"note": 80, "velocity": 77, "duration": 78}, {"note": 80, "velocity": 84, "duration": 52}, {"note": 0, "velocity": 0, "duration": 68}, {"note": 80, "velocity": 80, "duration": 58}, {"note": 0, "velocity": 0, "duration": 62}, {"note": 80, "velocity": 85, "duration": 607}, {"note": 0, "velocity": 0, "duration": 233}, {"note": 80, "velocity": 85, "duration": 62}, {"note": 80, "velocity": 85, "duration": 61}, {"note": 80, "velocity": 83, "duration": 98}, {"note": 78, "velocity": 80, "duration": 73}, {"note": 78, "velocity": 80, "duration": 61}, {"note": 78, "velocity": 80, "duration": 58}, {"note": 0, "velocity": 0, "duration": 62}, {"note": 78, "velocity": 85, "duration": 91}, {"note": 76, "velocity": 79, "duration": 64}, {"note": 76, "velocity": 80, "duration": 60}, {"note": 76, "velocity": 82, "duration": 65}, {"note": 76, "velocity": 82, "duration": 215}, {"note": 0, "velocity": 0, "duration": 145}, {"note": 76, "velocity": 80, "duration": 73}, {"note": 76, "velocity": 85, "duration": 193}, {"note": 73, "velocity": 90, "duration": 76}, {"note": 76, "velocity": 84, "duration": 79}, {"note": 80, "velocity": 84, "duration": 307}, {"note": 78, "velocity": 80, "duration": 720}, {"note": 0, "velocity": 0, "duration": 600}, {"note": 71, "velocity": 86, "duration": 122}, {"note": 73, "velocity": 93, "duration": 59}, {"note": 0, "velocity": 0, "duration": 61}, {"note": 85, "velocity": 86, "duration": 102}, {"note": 83, "velocity": 79, "duration": 67}, {"note": 83, "velocity": 87, "duration": 68}, {"note": 83, "velocity": 84, "duration": 73}, {"note": 83, "velocity": 90, "duration": 64}, {"note": 80, "velocity": 76, "duration": 70}, {"note": 80, "velocity": 79, "duration": 56}, {"note": 0, "velocity": 0, "duration": 64}, {"note": 80, "velocity": 79, "duration": 54}, {"note": 0, "velocity": 0, "duration": 66}, {"note": 80, "velocity": 85, "duration": 96}, {"note": 78, "velocity": 73, "duration": 66}, {"note": 78, "velocity": 75, "duration": 62}, {"note": 78, "velocity": 79, "duration": 63}, {"note": 78, "velocity": 86, "duration": 96}, {"note": 76, "velocity": 79, "duration": 63}, {"note": 76, "velocity": 75, "duration": 71}, {"note": 76, "velocity": 77, "duration": 65}, {"note": 73, "velocity": 84, "duration": 360}, {"note": 71, "velocity": 85, "duration": 669}, {"note": 0, "velocity": 0, "duration": 651}, {"note": 71, "velocity": 86, "duration": 150}, {"note": 73, "velocity": 91, "duration": 57}, {"note": 0, "velocity": 0, "duration": 63}, {"note": 85, "velocity": 84, "duration": 104}, {"note": 83, "velocity": 84, "duration": 60}, {"note": 83, "velocity": 85, "duration": 68}, {"note": 83, "velocity": 86, "duration": 71}, {"note": 83, "velocity": 88, "duration": 90}, {"note": 80, "velocity": 82, "duration": 69}, {"note": 80, "velocity": 80, "duration": 62}, {"note": 80, "velocity": 78, "duration": 65}, {"note": 80, "velocity": 85, "duration": 107}, {"note": 78, "velocity": 79, "duration": 65}, {"note": 78, "velocity": 77, "duration": 64}, {"note": 78, "velocity": 77, "duration": 66}, {"note": 78, "velocity": 80, "duration": 78}, {"note": 76, "velocity": 69, "duration": 63}, {"note": 76, "velocity": 76, "duration": 70}, {"note": 80, "velocity": 78, "duration": 480}, {"note": 78, "velocity": 84, "duration": 740}, {"note": 0, "velocity": 0, "duration": 460}, {"note": 78, "velocity": 85, "duration": 112}, {"note": 80, "velocity": 86, "duration": 113}, {"note": 78, "velocity": 86, "duration": 72}, {"note": 78, "velocity": 85, "duration": 104}, {"note": 76, "velocity": 79, "duration": 68}, {"note": 76, "velocity": 79, "duration": 70}, {"note": 76, "velocity": 79, "duration": 69}, {"note": 76, "velocity": 84, "duration": 224}, {"note": 73, "velocity": 88, "duration": 117}, {"note": 76, "velocity": 82, "duration": 465}, {"note": 0, "velocity": 0, "duration": 135}, {"note": 73, "velocity": 95, "duration": 221}, {"note": 85, "velocity": 88, "duration": 174}, {"note": 0, "velocity": 0, "duration": 66}, {"note": 85, "velocity": 86, "duration": 105}, {"note": 83, "velocity": 85, "duration": 171}, {"note": 0, "velocity": 0, "duration": 69}, {"note": 83, "velocity": 84, "duration": 65}, {"note": 80, "velocity": 77, "duration": 78}, {"note": 80, "velocity": 84, "duration": 52}, {"note": 0, "velocity": 0, "duration": 68}, {"note": 80, "velocity": 80, "duration": 58}, {"note": 0, "velocity": 0, "duration": 62}, {"note": 80, "velocity": 85, "duration": 607}, {"note": 0, "velocity": 0, "duration": 233}, {"note": 71, "velocity": 85, "duration": 241}, {"note": 80, "velocity": 85, "duration": 240}, {"note": 0, "velocity": 0, "duration": 120}, {"note": 78, "velocity": 80, "duration": 240}, {"note": 0, "velocity": 0, "duration": 240}, {"note": 76, "velocity": 80, "duration": 115}, {"note": 73, "velocity": 82, "duration": 120}, {"note": 80, "velocity": 82, "duration": 215}, {"note": 78, "velocity": 85, "duration": 314}, {"note": 76, "velocity": 79, "duration": 95}, {"note": 76, "velocity": 86, "duration": 107}, {"note": 73, "velocity": 84, "duration": 109}, {"note": 78, "velocity": 84, "duration": 354}, {"note": 76, "velocity": 84, "duration": 1534}]]