[[{"note": 76, "velocity": 88, "duration": 463}, {"note": 72, "velocity": 84, "duration": 361}, {"note": 0, "velocity": 0, "duration": 119}, {"note": 74, "velocity": 89, "duration": 476}, {"note": 71, "velocity": 83, "duration": 417}, {"note": 0, "velocity": 0, "duration": 63}, {"note": 69, "velocity": 87, "duration": 205}, {"note": 71, "velocity": 78, "duration": 262}, {"note": 64, "velocity": 90, "duration": 264}, {"note": 71, "velocity": 88, "duration": 273}, {"note": 69, "velocity": 88, "duration": 789}, {"note": 0, "velocity": 0, "duration": 171}, {"note": 72, "velocity": 78, "duration": 435}, {"note": 69, "velocity": 88, "duration": 381}, {"note": 0, "velocity": 0, "duration": 99}, {"note": 79, "velocity": 79, "duration": 298}, {"note": 81, "velocity": 84, "duration": 265}, {"note": 79, "velocity": 88, "duration": 370}, {"note": 0, "velocity": 0, "duration": 110}, {"note": 76, "velocity": 88, "duration": 244}, {"note": 79, "velocity": 90, "duration": 255}, {"note": 76, "velocity": 88, "duration": 248}, {"note": 74, "velocity": 89, "duration": 239}, {"note": 76, "velocity": 85, "duration": 732}, {"note": 0, "velocity": 0, "duration": 228}, {"note": 77, "velocity": 82, "duration": 387}, {"note": 0, "velocity": 0, "duration": 93}, {"note": 69, "velocity": 88, "duration": 245}, {"note": 76, "velocity": 89, "duration": 286}, {"note": 74, "velocity": 89, "duration": 804}, {"note": 0, "velocity": 0, "duration": 156}, {"note": 76, "velocity": 89, "duration": 237}, {"note": 79, "velocity": 87, "duration": 258}, {"note": 76, "velocity": 88, "duration": 256}, {"note": 74, "velocity": 86, "duration": 243}, {"note": 72, "velocity": 83, "duration": 724}, {"note": 0, "velocity": 0, "duration": 236}, {"note": 76, "velocity": 89, "duration": 202}, {"note": 74, "velocity": 89, "duration": 158}, {"note": 0, "velocity": 0, "duration": 82}, {"note": 74, "velocity": 89, "duration": 180}, {"note": 79, "velocity": 85, "duration": 212}, {"note": 76, "velocity": 84, "duration": 205}, {"note": 74, "velocity": 89, "duration": 155}, {"note": 0, "velocity": 0, "duration": 85}, {"note": 74, "velocity": 89, "duration": 239}, {"note": 76, "velocity": 82, "duration": 230}, {"note": 69, "velocity": 86, "duration": 1780}, {"note": 0, "velocity": 0, "duration": 140}, {"note": 76, "velocity": 88, "duration": 463}, {"note": 72, "velocity": 84, "duration": 361}, {"note": 0, "velocity": 0, "duration": 119}, {"note": 74, "velocity": 89, "duration": 476}, {"note": 71, "velocity": 83, "duration": 417}, {"note": 0, "velocity": 0, "duration": 63}, {"note": 69, "velocity": 87, "duration": 205}, {"note": 71, "velocity": 78, "duration": 262}, {"note": 64, "velocity": 90, "duration": 264}, {"note": 71, "velocity": 88, "duration": 273}, {"note": 69, "velocity": 88, "duration": 789}, {"note": 0, "velocity": 0, "duration": 171}, {"note": 72, "velocity": 78, "duration": 435}, {"note": 69, "velocity": 88, "duration": 381}, {"note": 0, "velocity": 0, "duration": 99}, {"note": 79, "velocity": 79, "duration": 298}, {"note": 81, "velocity": 84, "duration": 265}, {"note": 79, "velocity": 88, "duration": 370}, {"note": 0, "velocity": 0, "duration": 110}, {"note": 76, "velocity": 88, "duration": 244}, {"note": 79, "velocity": 90, "duration": 255}, {"note": 76, "velocity": 88, "duration": 248}, {"note": 74, "velocity": 89, "duration": 239}, {"note": 76, "velocity": 85, "duration": 732}, {"note": 0, "velocity": 0, "duration": 228}, {"note": 77, "velocity": 82, "duration": 387}, {"note": 0, "velocity": 0, "duration": 93}, {"note": 69, "velocity": 88, "duration": 245}, {"note": 76, "velocity": 89, "duration": 286}, {"note": 74, "velocity": 89, "duration": 804}, {"note": 0, "velocity": 0, "duration": 156}, {"note": 76, "velocity": 89, "duration": 237}, {"note": 79, "velocity": 87, "duration": 240}, {"note": 79, "velocity": 88, "duration": 256}, {"note": 81, "velocity": 86, "duration": 480}, {"note": 0, "velocity": 0, "duration": 240}, {"note": 76, "velocity": 83, "duration": 480}, {"note": 76, "velocity": 89, "duration": 202}, {"note": 74, "velocity": 89, "duration": 158}, {"note": 0, "velocity": 0, "duration": 82}, {"note": 74, "velocity": 89, "duration": 180}, {"note": 79, "velocity": 85, "duration": 212}, {"note": 76, "velocity": 84, "duration": 205}, {"note": 74, "velocity": 89, "duration": 155}, {"note": 0, "velocity": 0, "duration": 85}, {"note": 74, "velocity": 89, "duration": 239}, {"note": 76, "velocity": 82, "duration": 230}, {"note": 69, "velocity": 86, "duration": 1440}, {"note": 76, "velocity": 94, "duration": 268}, {"note": 79, "velocity": 90, "duration": 266}, {"note": 81, "velocity": 89, "duration": 743}, {"note": 84, "velocity": 90, "duration": 274}, {"note": 83, "velocity": 92, "duration": 270}, {"note": 81, "velocity": 89, "duration": 258}, {"note": 79, "velocity": 88, "duration": 235}, {"note": 83, "velocity": 89, "duration": 256}, {"note": 81, "velocity": 92, "duration": 1321}, {"note": 0, "velocity": 0, "duration": 119}, {"note": 76, "velocity": 94, "duration": 268}, {"note": 79, "velocity": 90, "duration": 266}, {"note": 81, "velocity": 89, "duration": 743}, {"note": 84, "velocity": 90, "duration": 274}, {"note": 83, "velocity": 92, "duration": 270}, {"note": 81, "velocity": 89, "duration": 258}, {"note": 79, "velocity": 88, "duration": 235}, {"note": 83, "velocity": 89, "duration": 480}, {"note": 76, "velocity": 92, "duration": 1200}, {"note": 69, "velocity": 90, "duration": 237}, {"note": 76, "velocity": 90, "duration": 274}, {"note": 74, "velocity": 94, "duration": 728}, {"note": 72, "velocity": 85, "duration": 239}, {"note": 74, "velocity": 93, "duration": 493}, {"note": 81, "velocity": 89, "duration": 431}, {"note": 76, "velocity": 89, "duration": 258}, {"note": 79, "velocity": 88, "duration": 211}, {"note": 76, "velocity": 89, "duration": 247}, {"note": 74, "velocity": 90, "duration": 266}, {"note": 76, "velocity": 90, "duration": 772}, {"note": 0, "velocity": 0, "duration": 188}, {"note": 76, "velocity": 87, "duration": 493}, {"note": 74, "velocity": 89, "duration": 230}, {"note": 72, "velocity": 83, "duration": 267}, {"note": 74, "velocity": 95, "duration": 504}, {"note": 79, "velocity": 84, "duration": 531}, {"note": 76, "velocity": 84, "duration": 1340}, {"note": 0, "velocity": 0, "duration": 100}, {"note": 76, "velocity": 94, "duration": 268}, {"note": 79, "velocity": 90, "duration": 266}, {"note": 81, "velocity": 89, "duration": 743}, {"note": 84, "velocity": 90, "duration": 274}, {"note": 83, "velocity": 92, "duration": 270}, {"note": 81, "velocity": 89, "duration": 258}, {"note": 79, "velocity": 88, "duration": 235}, {"note": 83, "velocity": 89, "duration": 256}, {"note": 81, "velocity": 92, "duration": 1321}, {"note": 0, "velocity": 0, "duration": 119}, {"note": 76, "velocity": 94, "duration": 268}, {"note": 79, "velocity": 90, "duration": 266}, {"note": 81, "velocity": 89, "duration": 743}, {"note": 84, "velocity": 90, "duration": 274}, {"note": 83, "velocity": 92, "duration": 480}, {"note": 81, "velocity": 89, "duration": 258}, {"note": 79, "velocity": 88, "duration": 480}, {"note": 76, "velocity": 92, "duration": 1200}, {"note": 69, "velocity": 90, "duration": 237}, {"note": 76, "velocity": 90, "duration": 274}, {"note": 74, "velocity": 94, "duration": 728}, {"note": 72, "velocity": 85, "duration": 239}, {"note": 74, "velocity": 93, "duration": 493}, {"note": 81, "velocity": 89, "duration": 431}, {"note": 76, "velocity": 89, "duration": 258}, {"note": 79, "velocity": 88, "duration": 211}, {"note": 76, "velocity": 89, "duration": 247}, {"note": 74, "velocity": 90, "duration": 266}, {"note": 76, "velocity": 90, "duration": 772}, {"note": 0, "velocity": 0, "duration": 188}, {"note": 76, "velocity": 87, "duration": 493}, {"note": 74, "velocity": 89, "duration": 230}, {"note": 72, "velocity": 83, "duration": 267}, {"note": 74, "velocity": 95, "duration": 504}, {"note": 76, "velocity": 84, "duration": 480}, {"note": 69, "velocity": 84, "duration": 1340}, {"note": 0, "velocity": 0, "duration": 15940}, {"note": 76, "velocity": 88, "duration": 463}, {"note": 72, "velocity": 84, "duration": 361}, {"note": 0, "velocity": 0, "duration": 119}, {"note": 74, "velocity": 89, "duration": 476}, {"note": 71, "velocity": 83, "duration": 417}, {"note": 0, "velocity": 0, "duration": 63}, {"note": 69, "velocity": 87, "duration": 205}, {"note": 71, "velocity": 78, "duration": 262}, {"note": 64, "velocity": 90, "duration": 264}, {"note": 71, "velocity": 88, "duration": 273}, {"note": 69, "velocity": 88, "duration": 789}, {"note": 0, "velocity": 0, "duration": 171}, {"note": 72, "velocity": 78, "duration": 435}, {"note": 69, "velocity": 88, "duration": 381}, {"note": 0, "velocity": 0, "duration": 99}, {"note": 79, "velocity": 79, "duration": 298}, {"note": 81, "velocity": 84, "duration": 265}, {"note": 79, "velocity": 88, "duration": 370}, {"note": 0, "velocity": 0, "duration": 110}, {"note": 76, "velocity": 88, "duration": 244}, {"note": 79, "velocity": 90, "duration": 255}, {"note": 76, "velocity": 88, "duration": 248}, {"note": 74, "velocity": 89, "duration": 239}, {"note": 76, "velocity": 85, "duration": 732}, {"note": 0, "velocity": 0, "duration": 228}, {"note": 77, "velocity": 82, "duration": 387}, {"note": 0, "velocity": 0, "duration": 93}, {"note": 69, "velocity": 88, "duration": 245}, {"note": 76, "velocity": 89, "duration": 286}, {"note": 74, "velocity": 89, "duration": 804}, {"note": 0, "velocity": 0, "duration": 156}, {"note": 76, "velocity": 89, "duration": 237}, {"note": 79, "velocity": 87, "duration": 258}, {"note": 76, "velocity": 88, "duration": 256}, {"note": 74, "velocity": 86, "duration": 243}, {"note": 72, "velocity": 83, "duration": 724}, {"note": 0, "velocity": 0, "duration": 236}, {"note": 76, "velocity": 89, "duration": 202}, {"note": 74, "velocity": 89, "duration": 158}, {"note": 0, "velocity": 0, "duration": 82}, {"note": 74, "velocity": 89, "duration": 180}, {"note": 79, "velocity": 85, "duration": 212}, {"note": 76, "velocity": 84, "duration": 205}, {"note": 74, "velocity": 89, "duration": 155}, {"note": 0, "velocity": 0, "duration": 85}, {"note": 74, "velocity": 89, "duration": 239}, {"note": 76, "velocity": 82, "duration": 230}, {"note": 69, "velocity": 86, "duration": 1780}, {"note": 0, "velocity": 0, "duration": 140}, {"note": 76, "velocity": 88, "duration": 463}, {"note": 72, "velocity": 84, "duration": 361}, {"note": 0, "velocity": 0, "duration": 119}, {"note": 74, "velocity": 89, "duration": 476}, {"note": 71, "velocity": 83, "duration": 417}, {"note": 0, "velocity": 0, "duration": 63}, {"note": 69, "velocity": 87, "duration": 205}, {"note": 71, "velocity": 78, "duration": 262}, {"note": 64, "velocity": 90, "duration": 264}, {"note": 71, "velocity": 88, "duration": 273}, {"note": 69, "velocity": 88, "duration": 789}, {"note": 0, "velocity": 0, "duration": 171}, {"note": 72, "velocity": 78, "duration": 435}, {"note": 69, "velocity": 88, "duration": 381}, {"note": 0, "velocity": 0, "duration": 99}, {"note": 79, "velocity": 79, "duration": 298}, {"note": 81, "velocity": 84, "duration": 265}, {"note": 79, "velocity": 88, "duration": 370}, {"note": 0, "velocity": 0, "duration": 110}, {"note": 76, "velocity": 88, "duration": 244}, {"note": 79, "velocity": 90, "duration": 255}, {"note": 76, "velocity": 88, "duration": 248}, {"note": 74, "velocity": 89, "duration": 239}, {"note": 76, "velocity": 85, "duration": 732}, {"note": 0, "velocity": 0, "duration": 228}, {"note": 77, "velocity": 82, "duration": 387}, {"note": 0, "velocity": 0, "duration": 93}, {"note": 69, "velocity": 88, "duration": 245}, {"note": 76, "velocity": 89, "duration": 286}, {"note": 74, "velocity": 89, "duration": 804}, {"note": 0, "velocity": 0, "duration": 156}, {"note": 76, "velocity": 89, "duration": 237}, {"note": 79, "velocity": 87, "duration": 240}, {"note": 79, "velocity": 88, "duration": 256}, {"note": 81, "velocity": 86, "duration": 480}, {"note": 0, "velocity": 0, "duration": 240}, {"note": 76, "velocity": 83, "duration": 480}, {"note": 76, "velocity": 89, "duration": 202}, {"note": 74, "velocity": 89, "duration": 158}, {"note": 0, "velocity": 0, "duration": 82}, {"note": 74, "velocity": 89, "duration": 180}, {"note": 79, "velocity": 85, "duration": 212}, {"note": 76, "velocity": 84, "duration": 205}, {"note": 74, "velocity": 89, "duration": 155}, {"note": 0, "velocity": 0, "duration": 85}, {"note": 74, "velocity": 89, "duration": 239}, {"note": 76, "velocity": 82, "duration": 230}, {"note": 69, "velocity": 86, "duration": 1440}, {"note": 76, "velocity": 94, "duration": 268}, {"note": 79, "velocity": 90, "duration": 266}, {"note": 81, "velocity": 89, "duration": 743}, {"note": 84, "velocity": 90, "duration": 274}, {"note": 83, "velocity": 92, "duration": 270}, {"note": 81, "velocity": 89, "duration": 258}, {"note": 79, "velocity": 88, "duration": 235}, {"note": 83, "velocity": 89, "duration": 256}, {"note": 81, "velocity": 92, "duration": 1321}, {"note": 0, "velocity": 0, "duration": 119}, {"note": 76, "velocity": 94, "duration": 268}, {"note": 79, "velocity": 90, "duration": 266}, {"note": 81, "velocity": 89, "duration": 743}, {"note": 84, "velocity": 90, "duration": 274}, {"note": 83, "velocity": 92, "duration": 270}, {"note": 81, "velocity": 89, "duration": 258}, {"note": 79, "velocity": 88, "duration": 235}, {"note": 83, "velocity": 89, "duration": 480}, {"note": 76, "velocity": 92, "duration": 1200}, {"note": 69, "velocity": 90, "duration": 237}, {"note": 76, "velocity": 90, "duration": 274}, {"note": 74, "velocity": 94, "duration": 728}, {"note": 72, "velocity": 85, "duration": 239}, {"note": 74, "velocity": 93, "duration": 493}, {"note": 81, "velocity": 89, "duration": 431}, {"note": 76, "velocity": 89, "duration": 258}, {"note": 79, "velocity": 88, "duration": 211}, {"note": 76, "velocity": 89, "duration": 247}, {"note": 74, "velocity": 90, "duration": 266}, {"note": 76, "velocity": 90, "duration": 772}, {"note": 0, "velocity": 0, "duration": 188}, {"note": 76, "velocity": 87, "duration": 493}, {"note": 74, "velocity": 89, "duration": 230}, {"note": 72, "velocity": 83, "duration": 267}, {"note": 74, "velocity": 95, "duration": 504}, {"note": 79, "velocity": 84, "duration": 531}, {"note": 76, "velocity": 84, "duration": 1340}, {"note": 0, "velocity": 0, "duration": 100}, {"note": 76, "velocity": 94, "duration": 268}, {"note": 79, "velocity": 90, "duration": 266}, {"note": 81, "velocity": 89, "duration": 743}, {"note": 84, "velocity": 90, "duration": 274}, {"note": 83, "velocity": 92, "duration": 270}, {"note": 81, "velocity": 89, "duration": 258}, {"note": 79, "velocity": 88, "duration": 235}, {"note": 83, "velocity": 89, "duration": 256}, {"note": 81, "velocity": 92, "duration": 1321}, {"note": 0, "velocity": 0, "duration": 119}, {"note": 76, "velocity": 94, "duration": 268}, {"note": 79, "velocity": 90, "duration": 266}, {"note": 81, "velocity": 89, "duration": 743}, {"note": 84, "velocity": 90, "duration": 274}, {"note": 83, "velocity": 92, "duration": 480}, {"note": 81, "velocity": 89, "duration": 258}, {"note": 79, "velocity": 88, "duration": 480}, {"note": 76, "velocity": 92, "duration": 1200}, {"note": 69, "velocity": 90, "duration": 237}, {"note": 76, "velocity": 90, "duration": 274}, {"note": 74, "velocity": 94, "duration": 728}, {"note": 72, "velocity": 85, "duration": 239}, {"note": 74, "velocity": 93, "duration": 493}, {"note": 81, "velocity": 89, "duration": 431}, {"note": 76, "velocity": 89, "duration": 258}, {"note": 79, "velocity": 88, "duration": 211}, {"note": 76, "velocity": 89, "duration": 247}, {"note": 74, "velocity": 90, "duration": 266}, {"note": 76, "velocity": 90, "duration": 772}, {"note": 0, "velocity": 0, "duration": 188}, {"note": 76, "velocity": 87, "duration": 493}, {"note": 74, "velocity": 89, "duration": 230}, {"note": 72, "velocity": 83, "duration": 267}, {"note": 74, "velocity": 95, "duration": 504}, {"note": 76, "velocity": 84, "duration": 480}, {"note": 69, "velocity": 84, "duration": 1340}, {"note": 0, "velocity": 0, "duration": 100}, {"note": 76, "velocity": 94, "duration": 268}, {"note": 79, "velocity": 90, "duration": 266}, {"note": 81, "velocity": 89, "duration": 743}, {"note": 84, "velocity": 90, "duration": 274}, {"note": 83, "velocity": 92, "duration": 270}, {"note": 81, "velocity": 89, "duration": 258}, {"note": 79, "velocity": 88, "duration": 235}, {"note": 83, "velocity": 89, "duration": 256}, {"note": 81, "velocity": 92, "duration": 1321}, {"note": 0, "velocity": 0, "duration": 119}, {"note": 76, "velocity": 94, "duration": 268}, {"note": 79, "velocity": 90, "duration": 266}, {"note": 81, "velocity": 89, "duration": 743}, {"note": 84, "velocity": 90, "duration": 274}, {"note": 83, "velocity": 92, "duration": 270}, {"note": 81, "velocity": 89, "duration": 258}, {"note": 79, "velocity": 88, "duration": 235}, {"note": 83, "velocity": 89, "duration": 480}, {"note": 76, "velocity": 92, "duration": 1200}, {"note": 69, "velocity": 90, "duration": 237}, {"note": 76, "velocity": 90, "duration": 274}, {"note": 74, "velocity": 94, "duration": 728}, {"note": 72, "velocity": 85, "duration": 239}, {"note": 74, "velocity": 93, "duration": 493}, {"note": 81, "velocity": 89, "duration": 431}, {"note": 76, "velocity": 89, "duration": 258}, {"note": 79, "velocity": 88, "duration": 211}, {"note": 76, "velocity": 89, "duration": 247}, {"note": 74, "velocity": 90, "duration": 266}, {"note": 76, "velocity": 90, "duration": 772}, {"note": 0, "velocity": 0, "duration": 188}, {"note": 76, "velocity": 87, "duration": 493}, {"note": 74, "velocity": 89, "duration": 230}, {"note": 72, "velocity": 83, "duration": 267}, {"note": 74, "velocity": 95, "duration": 504}, {"note": 79, "velocity": 84, "duration": 531}, {"note": 76, "velocity": 84, "duration": 1340}, {"note": 0, "velocity": 0, "duration": 100}, {"note": 76, "velocity": 94, "duration": 268}, {"note": 79, "velocity": 90, "duration": 266}, {"note": 81, "velocity": 89, "duration": 743}, {"note": 84, "velocity": 90, "duration": 274}, {"note": 83, "velocity": 92, "duration": 270}, {"note": 81, "velocity": 89, "duration": 258}, {"note": 79, "velocity": 88, "duration": 235}, {"note": 83, "velocity": 89, "duration": 256}, {"note": 81, "velocity": 92, "duration": 1321}, {"note": 0, "velocity": 0, "duration": 119}, {"note": 76, "velocity": 94, "duration": 268}, {"note": 79, "velocity": 90, "duration": 266}, {"note": 81, "velocity": 89, "duration": 743}, {"note": 84, "velocity": 90, "duration": 274}, {"note": 83, "velocity": 92, "duration": 480}, {"note": 81, "velocity": 89, "duration": 258}, {"note": 79, "velocity": 88, "duration": 480}, {"note": 76, "velocity": 92, "duration": 1200}, {"note": 69, "velocity": 90, "duration": 237}, {"note": 76, "velocity": 90, "duration": 274}, {"note": 74, "velocity": 94, "duration": 728}, {"note": 72, "velocity": 85, "duration": 239}, {"note": 74, "velocity": 93, "duration": 493}, {"note": 81, "velocity": 89, "duration": 431}, {"note": 76, "velocity": 89, "duration": 258}, {"note": 79, "velocity": 88, "duration": 211}, {"note": 76, "velocity": 89, "duration": 247}, {"note": 74, "velocity": 90, "duration": 266}, {"note": 76, "velocity": 90, "duration": 772}, {"note": 0, "velocity": 0, "duration": 188}, {"note": 76, "velocity": 87, "duration": 493}, {"note": 74, "velocity": 89, "duration": 230}, {"note": 72, "velocity": 83, "duration": 267}, {"note": 74, "velocity": 95, "duration": 504}, {"note": 76, "velocity": 84, "duration": 480}, {"note": 69, "velocity": 84, "duration": 1340}, {"note": 0, "velocity": 0, "duration": 100}, {"note": 69, "velocity": 90, "duration": 237}, {"note": 76, "velocity": 90, "duration": 274}, {"note": 74, "velocity": 94, "duration": 728}, {"note": 72, "velocity": 85, "duration": 239}, {"note": 74, "velocity": 93, "duration": 493}, {"note": 81, "velocity": 89, "duration": 431}, {"note": 76, "velocity": 89, "duration": 258}, {"note": 79, "velocity": 88, "duration": 211}, {"note": 76, "velocity": 89, "duration": 247}, {"note": 74, "velocity": 90, "duration": 266}, {"note": 76, "velocity": 90, "duration": 772}, {"note": 0, "velocity": 0, "duration": 188}, {"note": 76, "velocity": 87, "duration": 493}, {"note": 74, "velocity": 89, "duration": 230}, {"note": 72, "velocity": 83, "duration": 267}, {"note": 74, "velocity": 95, "duration": 504}, {"note": 76, "velocity": 84, "duration": 480}, {"note": 69, "velocity": 84, "duration": 1340}]]