[[{"note": 79, "velocity": 88, "duration": 207}, {"note": 77, "velocity": 81, "duration": 140}, {"note": 0, "velocity": 0, "duration": 100}, {"note": 79, "velocity": 83, "duration": 145}, {"note": 0, "velocity": 0, "duration": 95}, {"note": 82, "velocity": 95, "duration": 131}, {"note": 0, "velocity": 0, "duration": 109}, {"note": 82, "velocity": 95, "duration": 119}, {"note": 0, "velocity": 0, "duration": 121}, {"note": 79, "velocity": 81, "duration": 80}, {"note": 77, "velocity": 81, "duration": 67}, {"note": 74, "velocity": 90, "duration": 346}, {"note": 0, "velocity": 0, "duration": 134}, {"note": 74, "velocity": 90, "duration": 283}, {"note": 0, "velocity": 0, "duration": 77}, {"note": 77, "velocity": 79, "duration": 85}, {"note": 79, "velocity": 80, "duration": 123}, {"note": 0, "velocity": 0, "duration": 117}, {"note": 77, "velocity": 90, "duration": 88}, {"note": 0, "velocity": 0, "duration": 152}, {"note": 77, "velocity": 78, "duration": 179}, {"note": 0, "velocity": 0, "duration": 61}, {"note": 74, "velocity": 93, "duration": 153}, {"note": 0, "velocity": 0, "duration": 87}, {"note": 72, "velocity": 83, "duration": 346}, {"note": 0, "velocity": 0, "duration": 374}, {"note": 74, "velocity": 90, "duration": 171}, {"note": 0, "velocity": 0, "duration": 69}, {"note": 77, "velocity": 80, "duration": 162}, {"note": 0, "velocity": 0, "duration": 78}, {"note": 72, "velocity": 83, "duration": 161}, {"note": 0, "velocity": 0, "duration": 79}, {"note": 77, "velocity": 86, "duration": 140}, {"note": 0, "velocity": 0, "duration": 100}, {"note": 79, "velocity": 80, "duration": 82}, {"note": 77, "velocity": 80, "duration": 95}, {"note": 74, "velocity": 96, "duration": 158}, {"note": 0, "velocity": 0, "duration": 82}, {"note": 72, "velocity": 83, "duration": 133}, {"note": 0, "velocity": 0, "duration": 107}, {"note": 70, "velocity": 84, "duration": 1721}, {"note": 0, "velocity": 0, "duration": 21319}, {"note": 79, "velocity": 90, "duration": 207}, {"note": 77, "velocity": 81, "duration": 248}, {"note": 79, "velocity": 85, "duration": 385}, {"note": 0, "velocity": 0, "duration": 95}, {"note": 82, "velocity": 86, "duration": 172}, {"note": 0, "velocity": 0, "duration": 68}, {"note": 84, "velocity": 90, "duration": 161}, {"note": 0, "velocity": 0, "duration": 79}, {"note": 79, "velocity": 79, "duration": 210}, {"note": 77, "velocity": 81, "duration": 127}, {"note": 0, "velocity": 0, "duration": 113}, {"note": 74, "velocity": 93, "duration": 281}, {"note": 0, "velocity": 0, "duration": 79}, {"note": 82, "velocity": 82, "duration": 109}, {"note": 79, "velocity": 80, "duration": 210}, {"note": 77, "velocity": 80, "duration": 211}, {"note": 79, "velocity": 83, "duration": 360}, {"note": 82, "velocity": 83, "duration": 126}, {"note": 79, "velocity": 90, "duration": 235}, {"note": 77, "velocity": 80, "duration": 126}, {"note": 0, "velocity": 0, "duration": 114}, {"note": 74, "velocity": 93, "duration": 281}, {"note": 72, "velocity": 81, "duration": 176}, {"note": 0, "velocity": 0, "duration": 64}, {"note": 74, "velocity": 93, "duration": 142}, {"note": 0, "velocity": 0, "duration": 98}, {"note": 77, "velocity": 83, "duration": 92}, {"note": 0, "velocity": 0, "duration": 148}, {"note": 82, "velocity": 88, "duration": 122}, {"note": 0, "velocity": 0, "duration": 118}, {"note": 82, "velocity": 82, "duration": 117}, {"note": 84, "velocity": 81, "duration": 76}, {"note": 79, "velocity": 80, "duration": 240}, {"note": 77, "velocity": 82, "duration": 109}, {"note": 0, "velocity": 0, "duration": 131}, {"note": 70, "velocity": 80, "duration": 240}, {"note": 72, "velocity": 80, "duration": 240}, {"note": 77, "velocity": 80, "duration": 240}, {"note": 74, "velocity": 80, "duration": 240}, {"note": 72, "velocity": 80, "duration": 960}, {"note": 77, "velocity": 81, "duration": 314}, {"note": 79, "velocity": 79, "duration": 107}, {"note": 77, "velocity": 83, "duration": 204}, {"note": 74, "velocity": 96, "duration": 150}, {"note": 0, "velocity": 0, "duration": 90}, {"note": 77, "velocity": 85, "duration": 264}, {"note": 0, "velocity": 0, "duration": 96}, {"note": 79, "velocity": 79, "duration": 103}, {"note": 77, "velocity": 86, "duration": 201}, {"note": 74, "velocity": 96, "duration": 127}, {"note": 0, "velocity": 0, "duration": 113}, {"note": 70, "velocity": 90, "duration": 184}, {"note": 72, "velocity": 83, "duration": 148}, {"note": 0, "velocity": 0, "duration": 92}, {"note": 77, "velocity": 81, "duration": 139}, {"note": 0, "velocity": 0, "duration": 101}, {"note": 74, "velocity": 88, "duration": 160}, {"note": 0, "velocity": 0, "duration": 80}, {"note": 72, "velocity": 90, "duration": 810}, {"note": 0, "velocity": 0, "duration": 150}, {"note": 79, "velocity": 80, "duration": 212}, {"note": 77, "velocity": 77, "duration": 193}, {"note": 79, "velocity": 80, "duration": 244}, {"note": 82, "velocity": 80, "duration": 139}, {"note": 0, "velocity": 0, "duration": 101}, {"note": 82, "velocity": 83, "duration": 168}, {"note": 0, "velocity": 0, "duration": 72}, {"note": 79, "velocity": 78, "duration": 116}, {"note": 77, "velocity": 69, "duration": 89}, {"note": 74, "velocity": 62, "duration": 360}, {"note": 0, "velocity": 0, "duration": 120}, {"note": 74, "velocity": 90, "duration": 283}, {"note": 0, "velocity": 0, "duration": 77}, {"note": 77, "velocity": 80, "duration": 127}, {"note": 79, "velocity": 81, "duration": 188}, {"note": 77, "velocity": 83, "duration": 163}, {"note": 0, "velocity": 0, "duration": 77}, {"note": 77, "velocity": 80, "duration": 221}, {"note": 74, "velocity": 81, "duration": 240}, {"note": 74, "velocity": 85, "duration": 244}, {"note": 72, "velocity": 79, "duration": 212}, {"note": 0, "velocity": 0, "duration": 268}, {"note": 74, "velocity": 85, "duration": 223}, {"note": 77, "velocity": 78, "duration": 232}, {"note": 72, "velocity": 81, "duration": 203}, {"note": 77, "velocity": 80, "duration": 196}, {"note": 79, "velocity": 71, "duration": 135}, {"note": 77, "velocity": 79, "duration": 127}, {"note": 74, "velocity": 80, "duration": 261}, {"note": 72, "velocity": 80, "duration": 235}, {"note": 70, "velocity": 81, "duration": 1182}, {"note": 0, "velocity": 0, "duration": 1698}, {"note": 79, "velocity": 90, "duration": 207}, {"note": 77, "velocity": 81, "duration": 248}, {"note": 79, "velocity": 85, "duration": 385}, {"note": 0, "velocity": 0, "duration": 95}, {"note": 82, "velocity": 86, "duration": 172}, {"note": 0, "velocity": 0, "duration": 68}, {"note": 84, "velocity": 90, "duration": 161}, {"note": 0, "velocity": 0, "duration": 79}, {"note": 79, "velocity": 79, "duration": 210}, {"note": 77, "velocity": 81, "duration": 127}, {"note": 0, "velocity": 0, "duration": 113}, {"note": 74, "velocity": 93, "duration": 281}, {"note": 0, "velocity": 0, "duration": 79}, {"note": 82, "velocity": 82, "duration": 109}, {"note": 79, "velocity": 80, "duration": 210}, {"note": 77, "velocity": 80, "duration": 211}, {"note": 79, "velocity": 83, "duration": 360}, {"note": 82, "velocity": 83, "duration": 126}, {"note": 79, "velocity": 90, "duration": 235}, {"note": 77, "velocity": 80, "duration": 126}, {"note": 0, "velocity": 0, "duration": 114}, {"note": 74, "velocity": 93, "duration": 281}, {"note": 72, "velocity": 81, "duration": 176}, {"note": 0, "velocity": 0, "duration": 64}, {"note": 74, "velocity": 93, "duration": 142}, {"note": 0, "velocity": 0, "duration": 98}, {"note": 77, "velocity": 83, "duration": 92}, {"note": 0, "velocity": 0, "duration": 148}, {"note": 82, "velocity": 88, "duration": 122}, {"note": 0, "velocity": 0, "duration": 118}, {"note": 82, "velocity": 82, "duration": 117}, {"note": 84, "velocity": 81, "duration": 76}, {"note": 79, "velocity": 80, "duration": 240}, {"note": 77, "velocity": 82, "duration": 109}, {"note": 0, "velocity": 0, "duration": 131}, {"note": 70, "velocity": 80, "duration": 240}, {"note": 72, "velocity": 80, "duration": 240}, {"note": 77, "velocity": 80, "duration": 240}, {"note": 74, "velocity": 80, "duration": 240}, {"note": 72, "velocity": 80, "duration": 960}, {"note": 77, "velocity": 81, "duration": 314}, {"note": 79, "velocity": 79, "duration": 107}, {"note": 77, "velocity": 83, "duration": 204}, {"note": 74, "velocity": 96, "duration": 150}, {"note": 0, "velocity": 0, "duration": 90}, {"note": 77, "velocity": 85, "duration": 264}, {"note": 0, "velocity": 0, "duration": 96}, {"note": 79, "velocity": 79, "duration": 103}, {"note": 77, "velocity": 86, "duration": 201}, {"note": 74, "velocity": 96, "duration": 127}, {"note": 0, "velocity": 0, "duration": 113}, {"note": 70, "velocity": 90, "duration": 184}, {"note": 72, "velocity": 83, "duration": 148}, {"note": 0, "velocity": 0, "duration": 92}, {"note": 77, "velocity": 81, "duration": 139}, {"note": 0, "velocity": 0, "duration": 101}, {"note": 74, "velocity": 88, "duration": 160}, {"note": 0, "velocity": 0, "duration": 80}, {"note": 72, "velocity": 90, "duration": 810}, {"note": 0, "velocity": 0, "duration": 150}, {"note": 79, "velocity": 80, "duration": 212}, {"note": 77, "velocity": 77, "duration": 193}, {"note": 79, "velocity": 80, "duration": 244}, {"note": 82, "velocity": 80, "duration": 139}, {"note": 0, "velocity": 0, "duration": 101}, {"note": 82, "velocity": 83, "duration": 168}, {"note": 0, "velocity": 0, "duration": 72}, {"note": 79, "velocity": 78, "duration": 116}, {"note": 77, "velocity": 69, "duration": 89}, {"note": 74, "velocity": 62, "duration": 360}, {"note": 0, "velocity": 0, "duration": 120}, {"note": 74, "velocity": 90, "duration": 283}, {"note": 0, "velocity": 0, "duration": 77}, {"note": 77, "velocity": 80, "duration": 127}, {"note": 79, "velocity": 81, "duration": 188}, {"note": 77, "velocity": 83, "duration": 163}, {"note": 0, "velocity": 0, "duration": 77}, {"note": 77, "velocity": 80, "duration": 221}, {"note": 74, "velocity": 81, "duration": 240}, {"note": 74, "velocity": 85, "duration": 244}, {"note": 72, "velocity": 79, "duration": 212}, {"note": 0, "velocity": 0, "duration": 268}, {"note": 74, "velocity": 85, "duration": 223}, {"note": 77, "velocity": 78, "duration": 232}, {"note": 72, "velocity": 81, "duration": 203}, {"note": 77, "velocity": 80, "duration": 196}, {"note": 79, "velocity": 71, "duration": 135}, {"note": 77, "velocity": 79, "duration": 127}, {"note": 74, "velocity": 80, "duration": 261}, {"note": 72, "velocity": 80, "duration": 235}, {"note": 70, "velocity": 81, "duration": 1182}, {"note": 0, "velocity": 0, "duration": 7458}, {"note": 79, "velocity": 90, "duration": 207}, {"note": 77, "velocity": 81, "duration": 248}, {"note": 79, "velocity": 85, "duration": 385}, {"note": 0, "velocity": 0, "duration": 95}, {"note": 82, "velocity": 86, "duration": 172}, {"note": 0, "velocity": 0, "duration": 68}, {"note": 84, "velocity": 90, "duration": 161}, {"note": 0, "velocity": 0, "duration": 79}, {"note": 79, "velocity": 79, "duration": 210}, {"note": 77, "velocity": 81, "duration": 127}, {"note": 0, "velocity": 0, "duration": 113}, {"note": 74, "velocity": 93, "duration": 281}, {"note": 0, "velocity": 0, "duration": 79}, {"note": 82, "velocity": 82, "duration": 109}, {"note": 79, "velocity": 80, "duration": 210}, {"note": 77, "velocity": 80, "duration": 211}, {"note": 79, "velocity": 83, "duration": 360}, {"note": 82, "velocity": 83, "duration": 126}, {"note": 79, "velocity": 90, "duration": 235}, {"note": 77, "velocity": 80, "duration": 126}, {"note": 0, "velocity": 0, "duration": 114}, {"note": 74, "velocity": 93, "duration": 281}, {"note": 72, "velocity": 81, "duration": 176}, {"note": 0, "velocity": 0, "duration": 64}, {"note": 74, "velocity": 93, "duration": 142}, {"note": 0, "velocity": 0, "duration": 98}, {"note": 77, "velocity": 83, "duration": 92}, {"note": 0, "velocity": 0, "duration": 148}, {"note": 82, "velocity": 88, "duration": 122}, {"note": 0, "velocity": 0, "duration": 118}, {"note": 82, "velocity": 82, "duration": 117}, {"note": 84, "velocity": 81, "duration": 76}, {"note": 79, "velocity": 80, "duration": 240}, {"note": 77, "velocity": 82, "duration": 109}, {"note": 0, "velocity": 0, "duration": 131}, {"note": 70, "velocity": 80, "duration": 240}, {"note": 72, "velocity": 80, "duration": 240}, {"note": 77, "velocity": 80, "duration": 240}, {"note": 74, "velocity": 80, "duration": 240}, {"note": 72, "velocity": 80, "duration": 960}, {"note": 77, "velocity": 81, "duration": 314}, {"note": 79, "velocity": 79, "duration": 107}, {"note": 77, "velocity": 83, "duration": 204}, {"note": 74, "velocity": 96, "duration": 150}, {"note": 0, "velocity": 0, "duration": 90}, {"note": 77, "velocity": 85, "duration": 264}, {"note": 0, "velocity": 0, "duration": 96}, {"note": 79, "velocity": 79, "duration": 103}, {"note": 77, "velocity": 86, "duration": 201}, {"note": 74, "velocity": 96, "duration": 127}, {"note": 0, "velocity": 0, "duration": 113}, {"note": 70, "velocity": 90, "duration": 184}, {"note": 72, "velocity": 83, "duration": 148}, {"note": 0, "velocity": 0, "duration": 92}, {"note": 77, "velocity": 81, "duration": 139}, {"note": 0, "velocity": 0, "duration": 101}, {"note": 74, "velocity": 88, "duration": 160}, {"note": 0, "velocity": 0, "duration": 80}, {"note": 72, "velocity": 90, "duration": 810}, {"note": 0, "velocity": 0, "duration": 150}, {"note": 79, "velocity": 80, "duration": 212}, {"note": 77, "velocity": 77, "duration": 193}, {"note": 79, "velocity": 80, "duration": 244}, {"note": 82, "velocity": 80, "duration": 139}, {"note": 0, "velocity": 0, "duration": 101}, {"note": 82, "velocity": 83, "duration": 168}, {"note": 0, "velocity": 0, "duration": 72}, {"note": 79, "velocity": 78, "duration": 116}, {"note": 77, "velocity": 69, "duration": 89}, {"note": 74, "velocity": 62, "duration": 360}, {"note": 0, "velocity": 0, "duration": 120}, {"note": 74, "velocity": 90, "duration": 283}, {"note": 0, "velocity": 0, "duration": 77}, {"note": 77, "velocity": 80, "duration": 127}, {"note": 79, "velocity": 81, "duration": 188}, {"note": 77, "velocity": 83, "duration": 163}, {"note": 0, "velocity": 0, "duration": 77}, {"note": 77, "velocity": 80, "duration": 221}, {"note": 74, "velocity": 81, "duration": 240}, {"note": 74, "velocity": 85, "duration": 244}, {"note": 72, "velocity": 79, "duration": 212}, {"note": 0, "velocity": 0, "duration": 268}, {"note": 74, "velocity": 85, "duration": 223}, {"note": 77, "velocity": 78, "duration": 232}, {"note": 72, "velocity": 81, "duration": 203}, {"note": 77, "velocity": 80, "duration": 196}, {"note": 79, "velocity": 71, "duration": 135}, {"note": 77, "velocity": 79, "duration": 127}, {"note": 74, "velocity": 80, "duration": 261}, {"note": 72, "velocity": 80, "duration": 235}, {"note": 70, "velocity": 81, "duration": 1182}, {"note": 0, "velocity": 0, "duration": 1698}, {"note": 79, "velocity": 90, "duration": 207}, {"note": 77, "velocity": 81, "duration": 248}, {"note": 79, "velocity": 85, "duration": 385}, {"note": 0, "velocity": 0, "duration": 95}, {"note": 82, "velocity": 86, "duration": 172}, {"note": 0, "velocity": 0, "duration": 68}, {"note": 84, "velocity": 90, "duration": 161}, {"note": 0, "velocity": 0, "duration": 79}, {"note": 79, "velocity": 79, "duration": 210}, {"note": 77, "velocity": 81, "duration": 127}, {"note": 0, "velocity": 0, "duration": 113}, {"note": 74, "velocity": 93, "duration": 281}, {"note": 0, "velocity": 0, "duration": 79}, {"note": 82, "velocity": 82, "duration": 109}, {"note": 79, "velocity": 80, "duration": 210}, {"note": 77, "velocity": 80, "duration": 211}, {"note": 79, "velocity": 83, "duration": 360}, {"note": 82, "velocity": 83, "duration": 126}, {"note": 79, "velocity": 90, "duration": 235}, {"note": 77, "velocity": 80, "duration": 126}, {"note": 0, "velocity": 0, "duration": 114}, {"note": 74, "velocity": 93, "duration": 281}, {"note": 72, "velocity": 81, "duration": 176}, {"note": 0, "velocity": 0, "duration": 64}, {"note": 74, "velocity": 93, "duration": 142}, {"note": 0, "velocity": 0, "duration": 98}, {"note": 77, "velocity": 83, "duration": 92}, {"note": 0, "velocity": 0, "duration": 148}, {"note": 82, "velocity": 88, "duration": 122}, {"note": 0, "velocity": 0, "duration": 118}, {"note": 82, "velocity": 82, "duration": 117}, {"note": 84, "velocity": 81, "duration": 76}, {"note": 79, "velocity": 80, "duration": 240}, {"note": 77, "velocity": 82, "duration": 109}, {"note": 0, "velocity": 0, "duration": 131}, {"note": 70, "velocity": 80, "duration": 240}, {"note": 72, "velocity": 80, "duration": 240}, {"note": 77, "velocity": 80, "duration": 240}, {"note": 74, "velocity": 80, "duration": 240}, {"note": 72, "velocity": 80, "duration": 960}, {"note": 77, "velocity": 81, "duration": 314}, {"note": 79, "velocity": 79, "duration": 107}, {"note": 77, "velocity": 83, "duration": 204}, {"note": 74, "velocity": 96, "duration": 150}, {"note": 0, "velocity": 0, "duration": 90}, {"note": 77, "velocity": 85, "duration": 264}, {"note": 0, "velocity": 0, "duration": 96}, {"note": 79, "velocity": 79, "duration": 103}, {"note": 77, "velocity": 86, "duration": 201}, {"note": 74, "velocity": 96, "duration": 127}, {"note": 0, "velocity": 0, "duration": 113}, {"note": 70, "velocity": 90, "duration": 184}, {"note": 72, "velocity": 83, "duration": 148}, {"note": 0, "velocity": 0, "duration": 92}, {"note": 77, "velocity": 81, "duration": 139}, {"note": 0, "velocity": 0, "duration": 101}, {"note": 74, "velocity": 88, "duration": 160}, {"note": 0, "velocity": 0, "duration": 80}, {"note": 72, "velocity": 90, "duration": 810}, {"note": 0, "velocity": 0, "duration": 150}, {"note": 79, "velocity": 80, "duration": 212}, {"note": 77, "velocity": 77, "duration": 193}, {"note": 79, "velocity": 80, "duration": 244}, {"note": 82, "velocity": 80, "duration": 139}, {"note": 0, "velocity": 0, "duration": 101}, {"note": 82, "velocity": 83, "duration": 168}, {"note": 0, "velocity": 0, "duration": 72}, {"note": 79, "velocity": 78, "duration": 116}, {"note": 77, "velocity": 69, "duration": 89}, {"note": 74, "velocity": 62, "duration": 360}, {"note": 0, "velocity": 0, "duration": 120}, {"note": 74, "velocity": 90, "duration": 283}, {"note": 0, "velocity": 0, "duration": 77}, {"note": 77, "velocity": 80, "duration": 127}, {"note": 79, "velocity": 81, "duration": 188}, {"note": 77, "velocity": 83, "duration": 163}, {"note": 0, "velocity": 0, "duration": 77}, {"note": 77, "velocity": 80, "duration": 221}, {"note": 74, "velocity": 81, "duration": 240}, {"note": 74, "velocity": 85, "duration": 244}, {"note": 72, "velocity": 79, "duration": 212}, {"note": 0, "velocity": 0, "duration": 268}, {"note": 74, "velocity": 85, "duration": 223}, {"note": 77, "velocity": 78, "duration": 232}, {"note": 72, "velocity": 81, "duration": 203}, {"note": 77, "velocity": 80, "duration": 196}, {"note": 79, "velocity": 71, "duration": 135}, {"note": 77, "velocity": 79, "duration": 127}, {"note": 74, "velocity": 80, "duration": 261}, {"note": 72, "velocity": 80, "duration": 235}, {"note": 70, "velocity": 81, "duration": 1182}]]