[[{"note": 68, "velocity": 86, "duration": 181}, {"note": 68, "velocity": 88, "duration": 240}, {"note": 67, "velocity": 87, "duration": 480}, {"note": 0, "velocity": 0, "duration": 240}, {"note": 65, "velocity": 89, "duration": 464}, {"note": 68, "velocity": 85, "duration": 426}, {"note": 67, "velocity": 88, "duration": 354}, {"note": 0, "velocity": 0, "duration": 126}, {"note": 63, "velocity": 87, "duration": 200}, {"note": 65, "velocity": 88, "duration": 1672}, {"note": 0, "velocity": 0, "duration": 3128}, {"note": 72, "velocity": 87, "duration": 178}, {"note": 0, "velocity": 0, "duration": 62}, {"note": 70, "velocity": 89, "duration": 178}, {"note": 0, "velocity": 0, "duration": 62}, {"note": 68, "velocity": 87, "duration": 610}, {"note": 0, "velocity": 0, "duration": 110}, {"note": 67, "velocity": 88, "duration": 336}, {"note": 0, "velocity": 0, "duration": 144}, {"note": 70, "velocity": 87, "duration": 394}, {"note": 0, "velocity": 0, "duration": 86}, {"note": 70, "velocity": 87, "duration": 374}, {"note": 0, "velocity": 0, "duration": 106}, {"note": 67, "velocity": 81, "duration": 191}, {"note": 68, "velocity": 83, "duration": 2646}, {"note": 0, "velocity": 0, "duration": 954}, {"note": 68, "velocity": 91, "duration": 382}, {"note": 0, "velocity": 0, "duration": 98}, {"note": 72, "velocity": 87, "duration": 1288}, {"note": 0, "velocity": 0, "duration": 152}, {"note": 70, "velocity": 85, "duration": 165}, {"note": 0, "velocity": 0, "duration": 75}, {"note": 68, "velocity": 76, "duration": 139}, {"note": 0, "velocity": 0, "duration": 101}, {"note": 67, "velocity": 87, "duration": 131}, {"note": 0, "velocity": 0, "duration": 109}, {"note": 65, "velocity": 89, "duration": 187}, {"note": 63, "velocity": 82, "duration": 191}, {"note": 67, "velocity": 83, "duration": 618}, {"note": 0, "velocity": 0, "duration": 102}, {"note": 63, "velocity": 87, "duration": 225}, {"note": 65, "velocity": 87, "duration": 1893}, {"note": 0, "velocity": 0, "duration": 2907}, {"note": 58, "velocity": 88, "duration": 195}, {"note": 60, "velocity": 88, "duration": 198}, {"note": 61, "velocity": 84, "duration": 335}, {"note": 0, "velocity": 0, "duration": 145}, {"note": 61, "velocity": 83, "duration": 210}, {"note": 60, "velocity": 89, "duration": 789}, {"note": 0, "velocity": 0, "duration": 171}, {"note": 60, "velocity": 89, "duration": 174}, {"note": 0, "velocity": 0, "duration": 66}, {"note": 67, "velocity": 83, "duration": 411}, {"note": 0, "velocity": 0, "duration": 69}, {"note": 63, "velocity": 80, "duration": 195}, {"note": 65, "velocity": 88, "duration": 2445}, {"note": 0, "velocity": 0, "duration": 1395}, {"note": 67, "velocity": 88, "duration": 325}, {"note": 0, "velocity": 0, "duration": 155}, {"note": 67, "velocity": 81, "duration": 174}, {"note": 0, "velocity": 0, "duration": 66}, {"note": 67, "velocity": 87, "duration": 393}, {"note": 0, "velocity": 0, "duration": 87}, {"note": 70, "velocity": 88, "duration": 164}, {"note": 0, "velocity": 0, "duration": 76}, {"note": 68, "velocity": 87, "duration": 187}, {"note": 67, "velocity": 87, "duration": 156}, {"note": 0, "velocity": 0, "duration": 84}, {"note": 68, "velocity": 80, "duration": 215}, {"note": 65, "velocity": 85, "duration": 720}, {"note": 0, "velocity": 0, "duration": 240}, {"note": 65, "velocity": 93, "duration": 366}, {"note": 0, "velocity": 0, "duration": 114}, {"note": 68, "velocity": 82, "duration": 179}, {"note": 0, "velocity": 0, "duration": 61}, {"note": 67, "velocity": 88, "duration": 720}, {"note": 65, "velocity": 87, "duration": 439}, {"note": 63, "velocity": 84, "duration": 240}, {"note": 60, "velocity": 87, "duration": 223}, {"note": 65, "velocity": 87, "duration": 1954}, {"note": 0, "velocity": 0, "duration": 686}, {"note": 70, "velocity": 80, "duration": 148}, {"note": 0, "velocity": 0, "duration": 92}, {"note": 70, "velocity": 86, "duration": 160}, {"note": 0, "velocity": 0, "duration": 80}, {"note": 70, "velocity": 84, "duration": 144}, {"note": 0, "velocity": 0, "duration": 96}, {"note": 70, "velocity": 88, "duration": 423}, {"note": 68, "velocity": 84, "duration": 204}, {"note": 65, "velocity": 89, "duration": 219}, {"note": 68, "velocity": 82, "duration": 924}, {"note": 68, "velocity": 76, "duration": 152}, {"note": 0, "velocity": 0, "duration": 88}, {"note": 68, "velocity": 87, "duration": 143}, {"note": 0, "velocity": 0, "duration": 97}, {"note": 68, "velocity": 82, "duration": 178}, {"note": 0, "velocity": 0, "duration": 62}, {"note": 68, "velocity": 87, "duration": 239}, {"note": 63, "velocity": 83, "duration": 849}, {"note": 0, "velocity": 0, "duration": 111}, {"note": 63, "velocity": 86, "duration": 199}, {"note": 65, "velocity": 88, "duration": 170}, {"note": 0, "velocity": 0, "duration": 70}, {"note": 63, "velocity": 83, "duration": 228}, {"note": 58, "velocity": 83, "duration": 720}, {"note": 63, "velocity": 82, "duration": 762}, {"note": 60, "velocity": 84, "duration": 266}, {"note": 65, "velocity": 87, "duration": 2034}, {"note": 0, "velocity": 0, "duration": 1566}, {"note": 68, "velocity": 89, "duration": 168}, {"note": 0, "velocity": 0, "duration": 72}, {"note": 70, "velocity": 88, "duration": 171}, {"note": 0, "velocity": 0, "duration": 69}, {"note": 72, "velocity": 85, "duration": 659}, {"note": 0, "velocity": 0, "duration": 61}, {"note": 70, "velocity": 81, "duration": 720}, {"note": 68, "velocity": 81, "duration": 496}, {"note": 70, "velocity": 83, "duration": 253}, {"note": 68, "velocity": 80, "duration": 259}, {"note": 65, "velocity": 86, "duration": 812}, {"note": 68, "velocity": 83, "duration": 135}, {"note": 0, "velocity": 0, "duration": 105}, {"note": 68, "velocity": 83, "duration": 152}, {"note": 0, "velocity": 0, "duration": 88}, {"note": 67, "velocity": 87, "duration": 201}, {"note": 65, "velocity": 89, "duration": 380}, {"note": 0, "velocity": 0, "duration": 100}, {"note": 68, "velocity": 83, "duration": 435}, {"note": 67, "velocity": 89, "duration": 497}, {"note": 63, "velocity": 82, "duration": 230}, {"note": 65, "velocity": 87, "duration": 1680}, {"note": 0, "velocity": 0, "duration": 720}, {"note": 65, "velocity": 88, "duration": 139}, {"note": 0, "velocity": 0, "duration": 101}, {"note": 65, "velocity": 88, "duration": 144}, {"note": 0, "velocity": 0, "duration": 96}, {"note": 63, "velocity": 79, "duration": 187}, {"note": 65, "velocity": 88, "duration": 384}, {"note": 0, "velocity": 0, "duration": 96}, {"note": 68, "velocity": 79, "duration": 217}, {"note": 65, "velocity": 88, "duration": 1161}, {"note": 0, "velocity": 0, "duration": 279}, {"note": 65, "velocity": 88, "duration": 379}, {"note": 0, "velocity": 0, "duration": 101}, {"note": 67, "velocity": 75, "duration": 189}, {"note": 68, "velocity": 85, "duration": 560}, {"note": 0, "velocity": 0, "duration": 160}, {"note": 68, "velocity": 85, "duration": 164}, {"note": 0, "velocity": 0, "duration": 76}, {"note": 72, "velocity": 88, "duration": 169}, {"note": 0, "velocity": 0, "duration": 71}, {"note": 70, "velocity": 82, "duration": 243}, {"note": 68, "velocity": 84, "duration": 240}, {"note": 68, "velocity": 83, "duration": 280}, {"note": 70, "velocity": 80, "duration": 960}, {"note": 0, "velocity": 0, "duration": 480}, {"note": 68, "velocity": 89, "duration": 168}, {"note": 0, "velocity": 0, "duration": 72}, {"note": 70, "velocity": 88, "duration": 171}, {"note": 0, "velocity": 0, "duration": 69}, {"note": 72, "velocity": 85, "duration": 659}, {"note": 0, "velocity": 0, "duration": 61}, {"note": 70, "velocity": 81, "duration": 720}, {"note": 68, "velocity": 81, "duration": 496}, {"note": 70, "velocity": 83, "duration": 253}, {"note": 68, "velocity": 80, "duration": 259}, {"note": 65, "velocity": 86, "duration": 812}, {"note": 68, "velocity": 83, "duration": 135}, {"note": 0, "velocity": 0, "duration": 105}, {"note": 68, "velocity": 83, "duration": 152}, {"note": 0, "velocity": 0, "duration": 88}, {"note": 67, "velocity": 87, "duration": 201}, {"note": 65, "velocity": 89, "duration": 380}, {"note": 0, "velocity": 0, "duration": 100}, {"note": 68, "velocity": 83, "duration": 435}, {"note": 67, "velocity": 89, "duration": 497}, {"note": 63, "velocity": 82, "duration": 230}, {"note": 65, "velocity": 87, "duration": 1440}, {"note": 0, "velocity": 0, "duration": 240}, {"note": 68, "velocity": 89, "duration": 168}, {"note": 0, "velocity": 0, "duration": 72}, {"note": 70, "velocity": 88, "duration": 171}, {"note": 0, "velocity": 0, "duration": 69}, {"note": 72, "velocity": 85, "duration": 659}, {"note": 0, "velocity": 0, "duration": 61}, {"note": 70, "velocity": 81, "duration": 720}, {"note": 65, "velocity": 81, "duration": 496}, {"note": 70, "velocity": 83, "duration": 253}, {"note": 72, "velocity": 80, "duration": 259}, {"note": 65, "velocity": 86, "duration": 812}, {"note": 68, "velocity": 83, "duration": 135}, {"note": 0, "velocity": 0, "duration": 105}, {"note": 68, "velocity": 83, "duration": 152}, {"note": 0, "velocity": 0, "duration": 88}, {"note": 67, "velocity": 87, "duration": 201}, {"note": 65, "velocity": 89, "duration": 380}, {"note": 0, "velocity": 0, "duration": 100}, {"note": 68, "velocity": 83, "duration": 435}, {"note": 67, "velocity": 89, "duration": 497}, {"note": 63, "velocity": 82, "duration": 230}, {"note": 65, "velocity": 87, "duration": 1680}, {"note": 0, "velocity": 0, "duration": 18480}, {"note": 68, "velocity": 86, "duration": 181}, {"note": 68, "velocity": 88, "duration": 240}, {"note": 67, "velocity": 87, "duration": 480}, {"note": 0, "velocity": 0, "duration": 240}, {"note": 65, "velocity": 89, "duration": 464}, {"note": 68, "velocity": 85, "duration": 426}, {"note": 67, "velocity": 88, "duration": 354}, {"note": 0, "velocity": 0, "duration": 126}, {"note": 63, "velocity": 87, "duration": 200}, {"note": 65, "velocity": 88, "duration": 1672}, {"note": 0, "velocity": 0, "duration": 3128}, {"note": 72, "velocity": 87, "duration": 178}, {"note": 0, "velocity": 0, "duration": 62}, {"note": 70, "velocity": 89, "duration": 178}, {"note": 0, "velocity": 0, "duration": 62}, {"note": 68, "velocity": 87, "duration": 610}, {"note": 0, "velocity": 0, "duration": 110}, {"note": 67, "velocity": 88, "duration": 336}, {"note": 0, "velocity": 0, "duration": 144}, {"note": 70, "velocity": 87, "duration": 394}, {"note": 0, "velocity": 0, "duration": 86}, {"note": 70, "velocity": 87, "duration": 374}, {"note": 0, "velocity": 0, "duration": 106}, {"note": 67, "velocity": 81, "duration": 191}, {"note": 68, "velocity": 83, "duration": 2646}, {"note": 0, "velocity": 0, "duration": 954}, {"note": 68, "velocity": 91, "duration": 382}, {"note": 0, "velocity": 0, "duration": 98}, {"note": 72, "velocity": 87, "duration": 1288}, {"note": 0, "velocity": 0, "duration": 152}, {"note": 70, "velocity": 85, "duration": 165}, {"note": 0, "velocity": 0, "duration": 75}, {"note": 68, "velocity": 76, "duration": 139}, {"note": 0, "velocity": 0, "duration": 101}, {"note": 67, "velocity": 87, "duration": 131}, {"note": 0, "velocity": 0, "duration": 109}, {"note": 65, "velocity": 89, "duration": 187}, {"note": 63, "velocity": 82, "duration": 191}, {"note": 67, "velocity": 83, "duration": 618}, {"note": 0, "velocity": 0, "duration": 102}, {"note": 63, "velocity": 87, "duration": 225}, {"note": 65, "velocity": 87, "duration": 1893}, {"note": 0, "velocity": 0, "duration": 2907}, {"note": 60, "velocity": 88, "duration": 195}, {"note": 60, "velocity": 88, "duration": 198}, {"note": 63, "velocity": 84, "duration": 335}, {"note": 0, "velocity": 0, "duration": 385}, {"note": 65, "velocity": 83, "duration": 480}, {"note": 68, "velocity": 89, "duration": 480}, {"note": 67, "velocity": 83, "duration": 480}, {"note": 63, "velocity": 80, "duration": 195}, {"note": 65, "velocity": 88, "duration": 2445}, {"note": 0, "velocity": 0, "duration": 1635}, {"note": 67, "velocity": 88, "duration": 325}, {"note": 0, "velocity": 0, "duration": 155}, {"note": 67, "velocity": 81, "duration": 174}, {"note": 0, "velocity": 0, "duration": 66}, {"note": 67, "velocity": 87, "duration": 393}, {"note": 0, "velocity": 0, "duration": 87}, {"note": 70, "velocity": 88, "duration": 164}, {"note": 0, "velocity": 0, "duration": 76}, {"note": 68, "velocity": 87, "duration": 187}, {"note": 67, "velocity": 87, "duration": 156}, {"note": 0, "velocity": 0, "duration": 84}, {"note": 68, "velocity": 80, "duration": 215}, {"note": 65, "velocity": 85, "duration": 720}, {"note": 0, "velocity": 0, "duration": 240}, {"note": 65, "velocity": 93, "duration": 366}, {"note": 0, "velocity": 0, "duration": 114}, {"note": 68, "velocity": 82, "duration": 179}, {"note": 0, "velocity": 0, "duration": 61}, {"note": 67, "velocity": 88, "duration": 720}, {"note": 65, "velocity": 87, "duration": 439}, {"note": 63, "velocity": 84, "duration": 240}, {"note": 60, "velocity": 87, "duration": 223}, {"note": 65, "velocity": 87, "duration": 1954}, {"note": 0, "velocity": 0, "duration": 686}, {"note": 70, "velocity": 80, "duration": 148}, {"note": 0, "velocity": 0, "duration": 92}, {"note": 70, "velocity": 86, "duration": 160}, {"note": 0, "velocity": 0, "duration": 80}, {"note": 70, "velocity": 84, "duration": 144}, {"note": 0, "velocity": 0, "duration": 96}, {"note": 70, "velocity": 88, "duration": 423}, {"note": 68, "velocity": 84, "duration": 204}, {"note": 65, "velocity": 89, "duration": 219}, {"note": 68, "velocity": 82, "duration": 924}, {"note": 68, "velocity": 76, "duration": 152}, {"note": 0, "velocity": 0, "duration": 88}, {"note": 68, "velocity": 87, "duration": 143}, {"note": 0, "velocity": 0, "duration": 97}, {"note": 68, "velocity": 82, "duration": 178}, {"note": 0, "velocity": 0, "duration": 62}, {"note": 68, "velocity": 87, "duration": 239}, {"note": 63, "velocity": 83, "duration": 849}, {"note": 0, "velocity": 0, "duration": 111}, {"note": 63, "velocity": 86, "duration": 199}, {"note": 65, "velocity": 88, "duration": 170}, {"note": 0, "velocity": 0, "duration": 70}, {"note": 63, "velocity": 83, "duration": 228}, {"note": 58, "velocity": 83, "duration": 720}, {"note": 63, "velocity": 82, "duration": 762}, {"note": 60, "velocity": 84, "duration": 266}, {"note": 65, "velocity": 87, "duration": 2034}, {"note": 0, "velocity": 0, "duration": 1566}, {"note": 68, "velocity": 89, "duration": 168}, {"note": 0, "velocity": 0, "duration": 72}, {"note": 70, "velocity": 88, "duration": 171}, {"note": 0, "velocity": 0, "duration": 69}, {"note": 72, "velocity": 85, "duration": 659}, {"note": 0, "velocity": 0, "duration": 61}, {"note": 70, "velocity": 81, "duration": 720}, {"note": 68, "velocity": 81, "duration": 496}, {"note": 70, "velocity": 83, "duration": 253}, {"note": 68, "velocity": 80, "duration": 259}, {"note": 65, "velocity": 86, "duration": 812}, {"note": 68, "velocity": 83, "duration": 135}, {"note": 0, "velocity": 0, "duration": 105}, {"note": 68, "velocity": 83, "duration": 152}, {"note": 0, "velocity": 0, "duration": 88}, {"note": 67, "velocity": 87, "duration": 201}, {"note": 65, "velocity": 89, "duration": 380}, {"note": 0, "velocity": 0, "duration": 100}, {"note": 68, "velocity": 83, "duration": 435}, {"note": 67, "velocity": 89, "duration": 497}, {"note": 63, "velocity": 82, "duration": 230}, {"note": 65, "velocity": 87, "duration": 1680}, {"note": 0, "velocity": 0, "duration": 720}, {"note": 65, "velocity": 88, "duration": 139}, {"note": 0, "velocity": 0, "duration": 101}, {"note": 65, "velocity": 88, "duration": 144}, {"note": 0, "velocity": 0, "duration": 96}, {"note": 63, "velocity": 79, "duration": 187}, {"note": 65, "velocity": 88, "duration": 384}, {"note": 0, "velocity": 0, "duration": 96}, {"note": 68, "velocity": 79, "duration": 217}, {"note": 65, "velocity": 88, "duration": 1161}, {"note": 0, "velocity": 0, "duration": 279}, {"note": 65, "velocity": 88, "duration": 379}, {"note": 0, "velocity": 0, "duration": 101}, {"note": 67, "velocity": 75, "duration": 189}, {"note": 68, "velocity": 85, "duration": 560}, {"note": 0, "velocity": 0, "duration": 160}, {"note": 68, "velocity": 85, "duration": 164}, {"note": 0, "velocity": 0, "duration": 76}, {"note": 72, "velocity": 88, "duration": 169}, {"note": 0, "velocity": 0, "duration": 71}, {"note": 70, "velocity": 82, "duration": 243}, {"note": 68, "velocity": 84, "duration": 240}, {"note": 68, "velocity": 83, "duration": 280}, {"note": 70, "velocity": 80, "duration": 960}, {"note": 0, "velocity": 0, "duration": 480}, {"note": 68, "velocity": 89, "duration": 168}, {"note": 0, "velocity": 0, "duration": 72}, {"note": 70, "velocity": 88, "duration": 171}, {"note": 0, "velocity": 0, "duration": 69}, {"note": 72, "velocity": 85, "duration": 659}, {"note": 0, "velocity": 0, "duration": 61}, {"note": 70, "velocity": 81, "duration": 720}, {"note": 68, "velocity": 81, "duration": 496}, {"note": 70, "velocity": 83, "duration": 253}, {"note": 68, "velocity": 80, "duration": 259}, {"note": 65, "velocity": 86, "duration": 812}, {"note": 68, "velocity": 83, "duration": 135}, {"note": 0, "velocity": 0, "duration": 105}, {"note": 68, "velocity": 83, "duration": 152}, {"note": 0, "velocity": 0, "duration": 88}, {"note": 67, "velocity": 87, "duration": 201}, {"note": 65, "velocity": 89, "duration": 380}, {"note": 0, "velocity": 0, "duration": 100}, {"note": 68, "velocity": 83, "duration": 435}, {"note": 67, "velocity": 89, "duration": 497}, {"note": 63, "velocity": 82, "duration": 230}, {"note": 65, "velocity": 87, "duration": 1440}, {"note": 0, "velocity": 0, "duration": 240}, {"note": 68, "velocity": 89, "duration": 168}, {"note": 0, "velocity": 0, "duration": 72}, {"note": 70, "velocity": 88, "duration": 171}, {"note": 0, "velocity": 0, "duration": 69}, {"note": 72, "velocity": 85, "duration": 659}, {"note": 0, "velocity": 0, "duration": 61}, {"note": 70, "velocity": 81, "duration": 720}, {"note": 65, "velocity": 81, "duration": 496}, {"note": 70, "velocity": 83, "duration": 253}, {"note": 72, "velocity": 80, "duration": 259}, {"note": 65, "velocity": 86, "duration": 812}, {"note": 68, "velocity": 83, "duration": 135}, {"note": 0, "velocity": 0, "duration": 105}, {"note": 68, "velocity": 83, "duration": 152}, {"note": 0, "velocity": 0, "duration": 88}, {"note": 67, "velocity": 87, "duration": 201}, {"note": 65, "velocity": 89, "duration": 380}, {"note": 0, "velocity": 0, "duration": 100}, {"note": 68, "velocity": 83, "duration": 435}, {"note": 67, "velocity": 89, "duration": 497}, {"note": 63, "velocity": 82, "duration": 230}, {"note": 65, "velocity": 87, "duration": 1680}, {"note": 68, "velocity": 89, "duration": 168}, {"note": 0, "velocity": 0, "duration": 72}, {"note": 70, "velocity": 88, "duration": 171}, {"note": 0, "velocity": 0, "duration": 69}, {"note": 72, "velocity": 85, "duration": 659}, {"note": 0, "velocity": 0, "duration": 61}, {"note": 70, "velocity": 81, "duration": 720}, {"note": 68, "velocity": 81, "duration": 496}, {"note": 70, "velocity": 83, "duration": 253}, {"note": 68, "velocity": 80, "duration": 259}, {"note": 65, "velocity": 86, "duration": 812}, {"note": 68, "velocity": 83, "duration": 135}, {"note": 0, "velocity": 0, "duration": 105}, {"note": 68, "velocity": 83, "duration": 152}, {"note": 0, "velocity": 0, "duration": 88}, {"note": 67, "velocity": 87, "duration": 201}, {"note": 65, "velocity": 89, "duration": 380}, {"note": 0, "velocity": 0, "duration": 100}, {"note": 68, "velocity": 83, "duration": 435}, {"note": 67, "velocity": 89, "duration": 497}, {"note": 63, "velocity": 82, "duration": 230}, {"note": 65, "velocity": 87, "duration": 1680}, {"note": 0, "velocity": 0, "duration": 720}, {"note": 65, "velocity": 88, "duration": 139}, {"note": 0, "velocity": 0, "duration": 101}, {"note": 65, "velocity": 88, "duration": 144}, {"note": 0, "velocity": 0, "duration": 96}, {"note": 63, "velocity": 79, "duration": 187}, {"note": 65, "velocity": 88, "duration": 384}, {"note": 0, "velocity": 0, "duration": 96}, {"note": 68, "velocity": 79, "duration": 217}, {"note": 65, "velocity": 88, "duration": 1161}, {"note": 0, "velocity": 0, "duration": 279}, {"note": 65, "velocity": 88, "duration": 379}, {"note": 0, "velocity": 0, "duration": 101}, {"note": 67, "velocity": 75, "duration": 189}, {"note": 68, "velocity": 85, "duration": 560}, {"note": 0, "velocity": 0, "duration": 160}, {"note": 68, "velocity": 85, "duration": 164}, {"note": 0, "velocity": 0, "duration": 76}, {"note": 72, "velocity": 88, "duration": 169}, {"note": 0, "velocity": 0, "duration": 71}, {"note": 70, "velocity": 82, "duration": 243}, {"note": 68, "velocity": 84, "duration": 240}, {"note": 68, "velocity": 83, "duration": 280}, {"note": 70, "velocity": 80, "duration": 960}, {"note": 0, "velocity": 0, "duration": 480}, {"note": 68, "velocity": 89, "duration": 168}, {"note": 0, "velocity": 0, "duration": 72}, {"note": 70, "velocity": 88, "duration": 171}, {"note": 0, "velocity": 0, "duration": 69}, {"note": 72, "velocity": 85, "duration": 659}, {"note": 0, "velocity": 0, "duration": 61}, {"note": 70, "velocity": 81, "duration": 720}, {"note": 68, "velocity": 81, "duration": 496}, {"note": 70, "velocity": 83, "duration": 253}, {"note": 68, "velocity": 80, "duration": 259}, {"note": 65, "velocity": 86, "duration": 812}, {"note": 68, "velocity": 83, "duration": 135}, {"note": 0, "velocity": 0, "duration": 105}, {"note": 68, "velocity": 83, "duration": 152}, {"note": 0, "velocity": 0, "duration": 88}, {"note": 67, "velocity": 87, "duration": 201}, {"note": 65, "velocity": 89, "duration": 380}, {"note": 0, "velocity": 0, "duration": 100}, {"note": 68, "velocity": 83, "duration": 435}, {"note": 67, "velocity": 89, "duration": 497}, {"note": 63, "velocity": 82, "duration": 230}, {"note": 65, "velocity": 87, "duration": 1440}, {"note": 0, "velocity": 0, "duration": 240}, {"note": 68, "velocity": 89, "duration": 168}, {"note": 0, "velocity": 0, "duration": 72}, {"note": 70, "velocity": 88, "duration": 171}, {"note": 0, "velocity": 0, "duration": 69}, {"note": 72, "velocity": 85, "duration": 659}, {"note": 0, "velocity": 0, "duration": 61}, {"note": 70, "velocity": 81, "duration": 720}, {"note": 65, "velocity": 81, "duration": 496}, {"note": 70, "velocity": 83, "duration": 253}, {"note": 72, "velocity": 80, "duration": 259}, {"note": 65, "velocity": 86, "duration": 812}, {"note": 68, "velocity": 83, "duration": 135}, {"note": 0, "velocity": 0, "duration": 105}, {"note": 68, "velocity": 83, "duration": 152}, {"note": 0, "velocity": 0, "duration": 88}, {"note": 67, "velocity": 87, "duration": 201}, {"note": 65, "velocity": 89, "duration": 380}, {"note": 0, "velocity": 0, "duration": 100}, {"note": 68, "velocity": 83, "duration": 435}, {"note": 67, "velocity": 89, "duration": 497}, {"note": 63, "velocity": 82, "duration": 230}, {"note": 65, "velocity": 87, "duration": 1680}]]