[[{"note": 64, "velocity": 82, "duration": 409}, {"note": 0, "velocity": 0, "duration": 71}, {"note": 64, "velocity": 73, "duration": 233}, {"note": 62, "velocity": 70, "duration": 132}, {"note": 64, "velocity": 75, "duration": 668}, {"note": 0, "velocity": 0, "duration": 172}, {"note": 67, "velocity": 69, "duration": 133}, {"note": 69, "velocity": 70, "duration": 109}, {"note": 71, "velocity": 71, "duration": 72}, {"note": 71, "velocity": 75, "duration": 66}, {"note": 71, "velocity": 72, "duration": 71}, {"note": 71, "velocity": 76, "duration": 70}, {"note": 71, "velocity": 76, "duration": 201}, {"note": 69, "velocity": 76, "duration": 101}, {"note": 71, "velocity": 76, "duration": 872}, {"note": 0, "velocity": 0, "duration": 88}, {"note": 71, "velocity": 75, "duration": 120}, {"note": 76, "velocity": 76, "duration": 600}, {"note": 76, "velocity": 81, "duration": 120}, {"note": 0, "velocity": 0, "duration": 120}, {"note": 76, "velocity": 77, "duration": 109}, {"note": 0, "velocity": 0, "duration": 131}, {"note": 76, "velocity": 82, "duration": 201}, {"note": 74, "velocity": 78, "duration": 491}, {"note": 69, "velocity": 67, "duration": 242}, {"note": 71, "velocity": 76, "duration": 912}, {"note": 0, "velocity": 0, "duration": 888}, {"note": 71, "velocity": 73, "duration": 74}, {"note": 71, "velocity": 76, "duration": 92}, {"note": 69, "velocity": 68, "duration": 74}, {"note": 69, "velocity": 75, "duration": 74}, {"note": 67, "velocity": 67, "duration": 90}, {"note": 69, "velocity": 77, "duration": 227}, {"note": 67, "velocity": 77, "duration": 205}, {"note": 69, "velocity": 76, "duration": 240}, {"note": 67, "velocity": 68, "duration": 104}, {"note": 69, "velocity": 76, "duration": 300}, {"note": 67, "velocity": 74, "duration": 87}, {"note": 69, "velocity": 75, "duration": 82}, {"note": 71, "velocity": 71, "duration": 169}, {"note": 0, "velocity": 0, "duration": 71}, {"note": 71, "velocity": 75, "duration": 159}, {"note": 0, "velocity": 0, "duration": 81}, {"note": 71, "velocity": 79, "duration": 186}, {"note": 74, "velocity": 76, "duration": 251}, {"note": 71, "velocity": 76, "duration": 738}, {"note": 0, "velocity": 0, "duration": 462}, {"note": 69, "velocity": 73, "duration": 93}, {"note": 71, "velocity": 73, "duration": 77}, {"note": 71, "velocity": 76, "duration": 167}, {"note": 0, "velocity": 0, "duration": 73}, {"note": 71, "velocity": 76, "duration": 172}, {"note": 0, "velocity": 0, "duration": 68}, {"note": 69, "velocity": 76, "duration": 311}, {"note": 69, "velocity": 75, "duration": 318}, {"note": 66, "velocity": 69, "duration": 244}, {"note": 64, "velocity": 76, "duration": 1640}, {"note": 0, "velocity": 0, "duration": 280}, {"note": 64, "velocity": 82, "duration": 240}, {"note": 64, "velocity": 82, "duration": 169}, {"note": 0, "velocity": 0, "duration": 71}, {"note": 64, "velocity": 73, "duration": 233}, {"note": 62, "velocity": 70, "duration": 132}, {"note": 64, "velocity": 75, "duration": 668}, {"note": 0, "velocity": 0, "duration": 172}, {"note": 67, "velocity": 69, "duration": 133}, {"note": 69, "velocity": 70, "duration": 109}, {"note": 71, "velocity": 71, "duration": 72}, {"note": 71, "velocity": 75, "duration": 66}, {"note": 71, "velocity": 72, "duration": 71}, {"note": 71, "velocity": 76, "duration": 70}, {"note": 71, "velocity": 76, "duration": 201}, {"note": 69, "velocity": 76, "duration": 101}, {"note": 71, "velocity": 76, "duration": 872}, {"note": 0, "velocity": 0, "duration": 88}, {"note": 71, "velocity": 75, "duration": 120}, {"note": 76, "velocity": 76, "duration": 600}, {"note": 76, "velocity": 81, "duration": 120}, {"note": 0, "velocity": 0, "duration": 120}, {"note": 76, "velocity": 77, "duration": 109}, {"note": 0, "velocity": 0, "duration": 131}, {"note": 76, "velocity": 82, "duration": 201}, {"note": 74, "velocity": 78, "duration": 491}, {"note": 69, "velocity": 67, "duration": 242}, {"note": 71, "velocity": 76, "duration": 912}, {"note": 0, "velocity": 0, "duration": 888}, {"note": 71, "velocity": 80, "duration": 117}, {"note": 76, "velocity": 80, "duration": 200}, {"note": 74, "velocity": 82, "duration": 180}, {"note": 76, "velocity": 77, "duration": 174}, {"note": 0, "velocity": 0, "duration": 66}, {"note": 74, "velocity": 81, "duration": 174}, {"note": 0, "velocity": 0, "duration": 66}, {"note": 76, "velocity": 77, "duration": 191}, {"note": 74, "velocity": 80, "duration": 80}, {"note": 76, "velocity": 82, "duration": 516}, {"note": 0, "velocity": 0, "duration": 84}, {"note": 74, "velocity": 82, "duration": 212}, {"note": 71, "velocity": 79, "duration": 208}, {"note": 74, "velocity": 84, "duration": 185}, {"note": 76, "velocity": 77, "duration": 117}, {"note": 71, "velocity": 76, "duration": 847}, {"note": 0, "velocity": 0, "duration": 113}, {"note": 71, "velocity": 76, "duration": 56}, {"note": 0, "velocity": 0, "duration": 64}, {"note": 76, "velocity": 77, "duration": 183}, {"note": 74, "velocity": 86, "duration": 186}, {"note": 76, "velocity": 77, "duration": 224}, {"note": 74, "velocity": 80, "duration": 66}, {"note": 76, "velocity": 77, "duration": 223}, {"note": 78, "velocity": 77, "duration": 453}, {"note": 76, "velocity": 76, "duration": 202}, {"note": 74, "velocity": 77, "duration": 178}, {"note": 0, "velocity": 0, "duration": 62}, {"note": 74, "velocity": 79, "duration": 215}, {"note": 71, "velocity": 77, "duration": 205}, {"note": 74, "velocity": 78, "duration": 126}, {"note": 76, "velocity": 78, "duration": 364}, {"note": 71, "velocity": 74, "duration": 600}, {"note": 0, "velocity": 0, "duration": 120}, {"note": 71, "velocity": 76, "duration": 60}, {"note": 71, "velocity": 75, "duration": 85}, {"note": 71, "velocity": 76, "duration": 129}, {"note": 69, "velocity": 70, "duration": 80}, {"note": 69, "velocity": 73, "duration": 100}, {"note": 67, "velocity": 72, "duration": 85}, {"note": 69, "velocity": 77, "duration": 205}, {"note": 67, "velocity": 78, "duration": 98}, {"note": 69, "velocity": 75, "duration": 306}, {"note": 62, "velocity": 76, "duration": 175}, {"note": 0, "velocity": 0, "duration": 65}, {"note": 67, "velocity": 75, "duration": 183}, {"note": 69, "velocity": 76, "duration": 211}, {"note": 67, "velocity": 75, "duration": 210}, {"note": 64, "velocity": 78, "duration": 1200}, {"note": 0, "velocity": 0, "duration": 360}, {"note": 71, "velocity": 80, "duration": 117}, {"note": 76, "velocity": 80, "duration": 200}, {"note": 74, "velocity": 82, "duration": 180}, {"note": 76, "velocity": 77, "duration": 174}, {"note": 0, "velocity": 0, "duration": 66}, {"note": 74, "velocity": 81, "duration": 174}, {"note": 0, "velocity": 0, "duration": 66}, {"note": 76, "velocity": 77, "duration": 191}, {"note": 74, "velocity": 80, "duration": 80}, {"note": 76, "velocity": 82, "duration": 480}, {"note": 76, "velocity": 76, "duration": 120}, {"note": 74, "velocity": 82, "duration": 212}, {"note": 71, "velocity": 79, "duration": 208}, {"note": 74, "velocity": 84, "duration": 185}, {"note": 71, "velocity": 77, "duration": 117}, {"note": 74, "velocity": 76, "duration": 847}, {"note": 0, "velocity": 0, "duration": 113}, {"note": 71, "velocity": 76, "duration": 56}, {"note": 0, "velocity": 0, "duration": 64}, {"note": 76, "velocity": 77, "duration": 183}, {"note": 74, "velocity": 86, "duration": 186}, {"note": 76, "velocity": 77, "duration": 224}, {"note": 74, "velocity": 80, "duration": 66}, {"note": 76, "velocity": 77, "duration": 223}, {"note": 78, "velocity": 77, "duration": 453}, {"note": 76, "velocity": 76, "duration": 202}, {"note": 74, "velocity": 77, "duration": 178}, {"note": 0, "velocity": 0, "duration": 62}, {"note": 74, "velocity": 79, "duration": 215}, {"note": 71, "velocity": 77, "duration": 205}, {"note": 74, "velocity": 78, "duration": 126}, {"note": 76, "velocity": 78, "duration": 364}, {"note": 71, "velocity": 74, "duration": 600}, {"note": 0, "velocity": 0, "duration": 240}, {"note": 64, "velocity": 77, "duration": 127}, {"note": 69, "velocity": 79, "duration": 605}, {"note": 0, "velocity": 0, "duration": 235}, {"note": 69, "velocity": 70, "duration": 74}, {"note": 69, "velocity": 75, "duration": 213}, {"note": 67, "velocity": 74, "duration": 187}, {"note": 67, "velocity": 77, "duration": 173}, {"note": 74, "velocity": 86, "duration": 314}, {"note": 71, "velocity": 75, "duration": 987}, {"note": 0, "velocity": 0, "duration": 813}, {"note": 71, "velocity": 80, "duration": 117}, {"note": 76, "velocity": 80, "duration": 200}, {"note": 74, "velocity": 82, "duration": 180}, {"note": 76, "velocity": 77, "duration": 174}, {"note": 0, "velocity": 0, "duration": 66}, {"note": 74, "velocity": 81, "duration": 174}, {"note": 0, "velocity": 0, "duration": 66}, {"note": 76, "velocity": 77, "duration": 191}, {"note": 74, "velocity": 80, "duration": 80}, {"note": 76, "velocity": 82, "duration": 480}, {"note": 76, "velocity": 76, "duration": 120}, {"note": 74, "velocity": 82, "duration": 212}, {"note": 71, "velocity": 79, "duration": 208}, {"note": 74, "velocity": 84, "duration": 185}, {"note": 71, "velocity": 77, "duration": 117}, {"note": 74, "velocity": 76, "duration": 847}, {"note": 0, "velocity": 0, "duration": 113}, {"note": 71, "velocity": 76, "duration": 56}, {"note": 0, "velocity": 0, "duration": 64}, {"note": 76, "velocity": 77, "duration": 183}, {"note": 74, "velocity": 86, "duration": 186}, {"note": 76, "velocity": 77, "duration": 224}, {"note": 74, "velocity": 80, "duration": 66}, {"note": 76, "velocity": 77, "duration": 223}, {"note": 78, "velocity": 77, "duration": 453}, {"note": 76, "velocity": 76, "duration": 202}, {"note": 74, "velocity": 77, "duration": 178}, {"note": 0, "velocity": 0, "duration": 62}, {"note": 74, "velocity": 79, "duration": 215}, {"note": 71, "velocity": 77, "duration": 205}, {"note": 74, "velocity": 78, "duration": 126}, {"note": 76, "velocity": 78, "duration": 364}, {"note": 71, "velocity": 74, "duration": 600}, {"note": 0, "velocity": 0, "duration": 120}, {"note": 71, "velocity": 76, "duration": 60}, {"note": 71, "velocity": 75, "duration": 85}, {"note": 71, "velocity": 76, "duration": 129}, {"note": 69, "velocity": 70, "duration": 80}, {"note": 69, "velocity": 73, "duration": 100}, {"note": 67, "velocity": 72, "duration": 85}, {"note": 69, "velocity": 77, "duration": 205}, {"note": 67, "velocity": 78, "duration": 98}, {"note": 69, "velocity": 75, "duration": 306}, {"note": 62, "velocity": 76, "duration": 175}, {"note": 0, "velocity": 0, "duration": 65}, {"note": 67, "velocity": 75, "duration": 183}, {"note": 69, "velocity": 76, "duration": 211}, {"note": 67, "velocity": 75, "duration": 210}, {"note": 64, "velocity": 78, "duration": 1200}, {"note": 0, "velocity": 0, "duration": 15840}, {"note": 64, "velocity": 82, "duration": 240}, {"note": 64, "velocity": 82, "duration": 169}, {"note": 0, "velocity": 0, "duration": 71}, {"note": 64, "velocity": 73, "duration": 233}, {"note": 62, "velocity": 70, "duration": 132}, {"note": 64, "velocity": 75, "duration": 668}, {"note": 0, "velocity": 0, "duration": 172}, {"note": 67, "velocity": 69, "duration": 133}, {"note": 69, "velocity": 70, "duration": 109}, {"note": 71, "velocity": 71, "duration": 72}, {"note": 71, "velocity": 75, "duration": 66}, {"note": 71, "velocity": 72, "duration": 71}, {"note": 71, "velocity": 76, "duration": 70}, {"note": 71, "velocity": 76, "duration": 201}, {"note": 69, "velocity": 76, "duration": 101}, {"note": 71, "velocity": 76, "duration": 872}, {"note": 0, "velocity": 0, "duration": 88}, {"note": 71, "velocity": 75, "duration": 120}, {"note": 76, "velocity": 76, "duration": 600}, {"note": 76, "velocity": 81, "duration": 120}, {"note": 0, "velocity": 0, "duration": 120}, {"note": 76, "velocity": 77, "duration": 109}, {"note": 0, "velocity": 0, "duration": 131}, {"note": 76, "velocity": 82, "duration": 201}, {"note": 74, "velocity": 78, "duration": 491}, {"note": 69, "velocity": 67, "duration": 242}, {"note": 71, "velocity": 76, "duration": 912}, {"note": 0, "velocity": 0, "duration": 888}, {"note": 71, "velocity": 80, "duration": 117}, {"note": 76, "velocity": 80, "duration": 200}, {"note": 74, "velocity": 82, "duration": 180}, {"note": 76, "velocity": 77, "duration": 174}, {"note": 0, "velocity": 0, "duration": 66}, {"note": 74, "velocity": 81, "duration": 174}, {"note": 0, "velocity": 0, "duration": 66}, {"note": 76, "velocity": 77, "duration": 191}, {"note": 74, "velocity": 80, "duration": 80}, {"note": 76, "velocity": 82, "duration": 516}, {"note": 0, "velocity": 0, "duration": 84}, {"note": 74, "velocity": 82, "duration": 212}, {"note": 71, "velocity": 79, "duration": 208}, {"note": 74, "velocity": 84, "duration": 185}, {"note": 76, "velocity": 77, "duration": 117}, {"note": 71, "velocity": 76, "duration": 847}, {"note": 0, "velocity": 0, "duration": 113}, {"note": 71, "velocity": 76, "duration": 56}, {"note": 0, "velocity": 0, "duration": 64}, {"note": 76, "velocity": 77, "duration": 183}, {"note": 74, "velocity": 86, "duration": 186}, {"note": 76, "velocity": 77, "duration": 224}, {"note": 74, "velocity": 80, "duration": 66}, {"note": 76, "velocity": 77, "duration": 223}, {"note": 78, "velocity": 77, "duration": 453}, {"note": 76, "velocity": 76, "duration": 202}, {"note": 74, "velocity": 77, "duration": 178}, {"note": 0, "velocity": 0, "duration": 62}, {"note": 74, "velocity": 79, "duration": 215}, {"note": 71, "velocity": 77, "duration": 205}, {"note": 74, "velocity": 78, "duration": 126}, {"note": 76, "velocity": 78, "duration": 364}, {"note": 71, "velocity": 74, "duration": 600}, {"note": 0, "velocity": 0, "duration": 120}, {"note": 71, "velocity": 76, "duration": 60}, {"note": 71, "velocity": 75, "duration": 85}, {"note": 71, "velocity": 76, "duration": 129}, {"note": 69, "velocity": 70, "duration": 80}, {"note": 69, "velocity": 73, "duration": 100}, {"note": 67, "velocity": 72, "duration": 85}, {"note": 69, "velocity": 77, "duration": 205}, {"note": 67, "velocity": 78, "duration": 98}, {"note": 69, "velocity": 75, "duration": 306}, {"note": 62, "velocity": 76, "duration": 175}, {"note": 0, "velocity": 0, "duration": 65}, {"note": 67, "velocity": 75, "duration": 183}, {"note": 69, "velocity": 76, "duration": 211}, {"note": 67, "velocity": 75, "duration": 210}, {"note": 64, "velocity": 78, "duration": 1200}, {"note": 0, "velocity": 0, "duration": 360}, {"note": 71, "velocity": 80, "duration": 117}, {"note": 76, "velocity": 80, "duration": 200}, {"note": 74, "velocity": 82, "duration": 180}, {"note": 76, "velocity": 77, "duration": 174}, {"note": 0, "velocity": 0, "duration": 66}, {"note": 74, "velocity": 81, "duration": 174}, {"note": 0, "velocity": 0, "duration": 66}, {"note": 76, "velocity": 77, "duration": 191}, {"note": 74, "velocity": 80, "duration": 80}, {"note": 76, "velocity": 82, "duration": 480}, {"note": 76, "velocity": 76, "duration": 120}, {"note": 74, "velocity": 82, "duration": 212}, {"note": 71, "velocity": 79, "duration": 208}, {"note": 74, "velocity": 84, "duration": 185}, {"note": 71, "velocity": 77, "duration": 117}, {"note": 74, "velocity": 76, "duration": 847}, {"note": 0, "velocity": 0, "duration": 113}, {"note": 71, "velocity": 76, "duration": 56}, {"note": 0, "velocity": 0, "duration": 64}, {"note": 76, "velocity": 77, "duration": 183}, {"note": 74, "velocity": 86, "duration": 186}, {"note": 76, "velocity": 77, "duration": 224}, {"note": 74, "velocity": 80, "duration": 66}, {"note": 76, "velocity": 77, "duration": 223}, {"note": 78, "velocity": 77, "duration": 453}, {"note": 76, "velocity": 76, "duration": 202}, {"note": 74, "velocity": 77, "duration": 178}, {"note": 0, "velocity": 0, "duration": 62}, {"note": 74, "velocity": 79, "duration": 215}, {"note": 71, "velocity": 77, "duration": 205}, {"note": 74, "velocity": 78, "duration": 126}, {"note": 76, "velocity": 78, "duration": 364}, {"note": 71, "velocity": 74, "duration": 600}, {"note": 0, "velocity": 0, "duration": 240}, {"note": 64, "velocity": 77, "duration": 127}, {"note": 69, "velocity": 79, "duration": 605}, {"note": 0, "velocity": 0, "duration": 235}, {"note": 69, "velocity": 70, "duration": 74}, {"note": 69, "velocity": 75, "duration": 213}, {"note": 67, "velocity": 74, "duration": 187}, {"note": 67, "velocity": 77, "duration": 173}, {"note": 74, "velocity": 86, "duration": 314}, {"note": 71, "velocity": 75, "duration": 987}, {"note": 0, "velocity": 0, "duration": 813}, {"note": 71, "velocity": 80, "duration": 117}, {"note": 76, "velocity": 80, "duration": 200}, {"note": 74, "velocity": 82, "duration": 180}, {"note": 76, "velocity": 77, "duration": 174}, {"note": 0, "velocity": 0, "duration": 66}, {"note": 74, "velocity": 81, "duration": 174}, {"note": 0, "velocity": 0, "duration": 66}, {"note": 76, "velocity": 77, "duration": 191}, {"note": 74, "velocity": 80, "duration": 80}, {"note": 76, "velocity": 82, "duration": 480}, {"note": 76, "velocity": 76, "duration": 120}, {"note": 74, "velocity": 82, "duration": 212}, {"note": 71, "velocity": 79, "duration": 208}, {"note": 74, "velocity": 84, "duration": 185}, {"note": 71, "velocity": 77, "duration": 117}, {"note": 74, "velocity": 76, "duration": 847}, {"note": 0, "velocity": 0, "duration": 113}, {"note": 71, "velocity": 76, "duration": 56}, {"note": 0, "velocity": 0, "duration": 64}, {"note": 76, "velocity": 77, "duration": 183}, {"note": 74, "velocity": 86, "duration": 186}, {"note": 76, "velocity": 77, "duration": 224}, {"note": 74, "velocity": 80, "duration": 66}, {"note": 76, "velocity": 77, "duration": 223}, {"note": 78, "velocity": 77, "duration": 453}, {"note": 76, "velocity": 76, "duration": 202}, {"note": 74, "velocity": 77, "duration": 178}, {"note": 0, "velocity": 0, "duration": 62}, {"note": 74, "velocity": 79, "duration": 215}, {"note": 71, "velocity": 77, "duration": 205}, {"note": 74, "velocity": 78, "duration": 126}, {"note": 76, "velocity": 78, "duration": 364}, {"note": 71, "velocity": 74, "duration": 600}, {"note": 0, "velocity": 0, "duration": 120}, {"note": 71, "velocity": 76, "duration": 60}, {"note": 71, "velocity": 75, "duration": 85}, {"note": 71, "velocity": 76, "duration": 129}, {"note": 69, "velocity": 70, "duration": 80}, {"note": 69, "velocity": 73, "duration": 100}, {"note": 67, "velocity": 72, "duration": 85}, {"note": 69, "velocity": 77, "duration": 205}, {"note": 67, "velocity": 78, "duration": 98}, {"note": 69, "velocity": 75, "duration": 306}, {"note": 62, "velocity": 76, "duration": 175}, {"note": 0, "velocity": 0, "duration": 65}, {"note": 67, "velocity": 75, "duration": 183}, {"note": 69, "velocity": 76, "duration": 211}, {"note": 67, "velocity": 75, "duration": 210}, {"note": 64, "velocity": 78, "duration": 1200}]]