[[{"note": 66, "velocity": 87, "duration": 42}, {"note": 0, "velocity": 0, "duration": 78}, {"note": 66, "velocity": 87, "duration": 43}, {"note": 0, "velocity": 0, "duration": 77}, {"note": 66, "velocity": 87, "duration": 295}, {"note": 0, "velocity": 0, "duration": 65}, {"note": 65, "velocity": 87, "duration": 81}, {"note": 66, "velocity": 87, "duration": 78}, {"note": 65, "velocity": 87, "duration": 110}, {"note": 63, "velocity": 87, "duration": 234}, {"note": 0, "velocity": 0, "duration": 246}, {"note": 66, "velocity": 87, "duration": 140}, {"note": 68, "velocity": 87, "duration": 106}, {"note": 70, "velocity": 87, "duration": 129}, {"note": 0, "velocity": 0, "duration": 111}, {"note": 70, "velocity": 87, "duration": 115}, {"note": 0, "velocity": 0, "duration": 125}, {"note": 70, "velocity": 87, "duration": 237}, {"note": 68, "velocity": 87, "duration": 134}, {"note": 70, "velocity": 87, "duration": 616}, {"note": 0, "velocity": 0, "duration": 700}, {"note": 68, "velocity": 87, "duration": 44}, {"note": 0, "velocity": 0, "duration": 76}, {"note": 68, "velocity": 87, "duration": 46}, {"note": 0, "velocity": 0, "duration": 74}, {"note": 68, "velocity": 87, "duration": 402}, {"note": 70, "velocity": 87, "duration": 92}, {"note": 71, "velocity": 87, "duration": 243}, {"note": 70, "velocity": 87, "duration": 98}, {"note": 68, "velocity": 87, "duration": 332}, {"note": 63, "velocity": 87, "duration": 60}, {"note": 63, "velocity": 87, "duration": 83}, {"note": 66, "velocity": 87, "duration": 188}, {"note": 66, "velocity": 87, "duration": 114}, {"note": 0, "velocity": 0, "duration": 126}, {"note": 66, "velocity": 87, "duration": 159}, {"note": 0, "velocity": 0, "duration": 81}, {"note": 70, "velocity": 87, "duration": 115}, {"note": 68, "velocity": 87, "duration": 871}, {"note": 0, "velocity": 0, "duration": 449}, {"note": 66, "velocity": 87, "duration": 39}, {"note": 0, "velocity": 0, "duration": 81}, {"note": 66, "velocity": 87, "duration": 39}, {"note": 0, "velocity": 0, "duration": 81}, {"note": 66, "velocity": 87, "duration": 215}, {"note": 0, "velocity": 0, "duration": 145}, {"note": 66, "velocity": 87, "duration": 137}, {"note": 68, "velocity": 87, "duration": 104}, {"note": 66, "velocity": 87, "duration": 91}, {"note": 65, "velocity": 87, "duration": 120}, {"note": 63, "velocity": 87, "duration": 317}, {"note": 66, "velocity": 87, "duration": 111}, {"note": 68, "velocity": 87, "duration": 53}, {"note": 0, "velocity": 0, "duration": 67}, {"note": 70, "velocity": 87, "duration": 111}, {"note": 0, "velocity": 0, "duration": 129}, {"note": 70, "velocity": 87, "duration": 113}, {"note": 0, "velocity": 0, "duration": 127}, {"note": 70, "velocity": 87, "duration": 244}, {"note": 73, "velocity": 87, "duration": 140}, {"note": 70, "velocity": 87, "duration": 77}, {"note": 0, "velocity": 0, "duration": 763}, {"note": 70, "velocity": 87, "duration": 126}, {"note": 73, "velocity": 87, "duration": 97}, {"note": 75, "velocity": 87, "duration": 239}, {"note": 73, "velocity": 87, "duration": 245}, {"note": 71, "velocity": 87, "duration": 366}, {"note": 0, "velocity": 0, "duration": 114}, {"note": 73, "velocity": 87, "duration": 219}, {"note": 70, "velocity": 87, "duration": 161}, {"note": 0, "velocity": 0, "duration": 79}, {"note": 70, "velocity": 87, "duration": 352}, {"note": 66, "velocity": 87, "duration": 91}, {"note": 68, "velocity": 87, "duration": 60}, {"note": 68, "velocity": 87, "duration": 39}, {"note": 0, "velocity": 0, "duration": 81}, {"note": 68, "velocity": 87, "duration": 124}, {"note": 70, "velocity": 87, "duration": 96}, {"note": 68, "velocity": 87, "duration": 78}, {"note": 70, "velocity": 87, "duration": 200}, {"note": 71, "velocity": 87, "duration": 568}, {"note": 0, "velocity": 0, "duration": 392}, {"note": 68, "velocity": 87, "duration": 123}, {"note": 70, "velocity": 87, "duration": 137}, {"note": 0, "velocity": 0, "duration": 103}, {"note": 70, "velocity": 87, "duration": 103}, {"note": 72, "velocity": 87, "duration": 118}, {"note": 74, "velocity": 87, "duration": 118}, {"note": 0, "velocity": 0, "duration": 122}, {"note": 74, "velocity": 87, "duration": 125}, {"note": 75, "velocity": 87, "duration": 110}, {"note": 77, "velocity": 87, "duration": 661}, {"note": 75, "velocity": 87, "duration": 122}, {"note": 77, "velocity": 87, "duration": 110}, {"note": 78, "velocity": 87, "duration": 103}, {"note": 75, "velocity": 87, "duration": 50}, {"note": 0, "velocity": 0, "duration": 70}, {"note": 75, "velocity": 87, "duration": 130}, {"note": 73, "velocity": 87, "duration": 109}, {"note": 75, "velocity": 87, "duration": 351}, {"note": 73, "velocity": 87, "duration": 176}, {"note": 0, "velocity": 0, "duration": 64}, {"note": 70, "velocity": 87, "duration": 58}, {"note": 0, "velocity": 0, "duration": 62}, {"note": 70, "velocity": 87, "duration": 124}, {"note": 68, "velocity": 87, "duration": 125}, {"note": 70, "velocity": 87, "duration": 376}, {"note": 0, "velocity": 0, "duration": 104}, {"note": 68, "velocity": 87, "duration": 49}, {"note": 0, "velocity": 0, "duration": 71}, {"note": 68, "velocity": 87, "duration": 44}, {"note": 0, "velocity": 0, "duration": 76}, {"note": 68, "velocity": 87, "duration": 84}, {"note": 70, "velocity": 87, "duration": 108}, {"note": 68, "velocity": 87, "duration": 158}, {"note": 66, "velocity": 87, "duration": 202}, {"note": 63, "velocity": 87, "duration": 524}, {"note": 0, "velocity": 0, "duration": 316}, {"note": 75, "velocity": 87, "duration": 125}, {"note": 77, "velocity": 85, "duration": 99}, {"note": 78, "velocity": 85, "duration": 116}, {"note": 75, "velocity": 85, "duration": 55}, {"note": 0, "velocity": 0, "duration": 65}, {"note": 75, "velocity": 85, "duration": 67}, {"note": 73, "velocity": 85, "duration": 95}, {"note": 75, "velocity": 85, "duration": 227}, {"note": 0, "velocity": 0, "duration": 133}, {"note": 73, "velocity": 85, "duration": 241}, {"note": 70, "velocity": 85, "duration": 54}, {"note": 0, "velocity": 0, "duration": 66}, {"note": 70, "velocity": 85, "duration": 94}, {"note": 68, "velocity": 85, "duration": 96}, {"note": 70, "velocity": 85, "duration": 91}, {"note": 73, "velocity": 85, "duration": 193}, {"note": 70, "velocity": 85, "duration": 78}, {"note": 0, "velocity": 0, "duration": 82}, {"note": 75, "velocity": 85, "duration": 456}, {"note": 0, "velocity": 0, "duration": 1184}, {"note": 70, "velocity": 85, "duration": 162}, {"note": 73, "velocity": 85, "duration": 103}, {"note": 78, "velocity": 85, "duration": 95}, {"note": 75, "velocity": 85, "duration": 45}, {"note": 0, "velocity": 0, "duration": 75}, {"note": 75, "velocity": 85, "duration": 92}, {"note": 73, "velocity": 85, "duration": 116}, {"note": 75, "velocity": 85, "duration": 364}, {"note": 73, "velocity": 83, "duration": 206}, {"note": 70, "velocity": 83, "duration": 69}, {"note": 70, "velocity": 83, "duration": 37}, {"note": 0, "velocity": 0, "duration": 83}, {"note": 70, "velocity": 83, "duration": 48}, {"note": 68, "velocity": 83, "duration": 92}, {"note": 70, "velocity": 83, "duration": 401}, {"note": 0, "velocity": 0, "duration": 79}, {"note": 68, "velocity": 83, "duration": 38}, {"note": 0, "velocity": 0, "duration": 82}, {"note": 68, "velocity": 83, "duration": 41}, {"note": 0, "velocity": 0, "duration": 79}, {"note": 68, "velocity": 83, "duration": 85}, {"note": 70, "velocity": 83, "duration": 93}, {"note": 68, "velocity": 83, "duration": 146}, {"note": 66, "velocity": 83, "duration": 212}, {"note": 63, "velocity": 83, "duration": 889}, {"note": 0, "velocity": 0, "duration": 431}, {"note": 63, "velocity": 83, "duration": 264}, {"note": 66, "velocity": 83, "duration": 247}, {"note": 70, "velocity": 83, "duration": 245}, {"note": 68, "velocity": 83, "duration": 144}, {"note": 0, "velocity": 0, "duration": 96}, {"note": 73, "velocity": 83, "duration": 78}, {"note": 73, "velocity": 83, "duration": 86}, {"note": 73, "velocity": 83, "duration": 225}, {"note": 70, "velocity": 83, "duration": 237}, {"note": 75, "velocity": 83, "duration": 683}, {"note": 0, "velocity": 0, "duration": 3185}, {"note": 75, "velocity": 83, "duration": 146}, {"note": 73, "velocity": 83, "duration": 193}, {"note": 70, "velocity": 83, "duration": 104}, {"note": 75, "velocity": 83, "duration": 159}, {"note": 73, "velocity": 83, "duration": 206}, {"note": 70, "velocity": 83, "duration": 118}, {"note": 75, "velocity": 83, "duration": 146}, {"note": 73, "velocity": 83, "duration": 193}, {"note": 70, "velocity": 83, "duration": 64}, {"note": 0, "velocity": 0, "duration": 76}, {"note": 70, "velocity": 83, "duration": 153}, {"note": 0, "velocity": 0, "duration": 84}, {"note": 68, "velocity": 83, "duration": 313}, {"note": 70, "velocity": 83, "duration": 1594}, {"note": 0, "velocity": 0, "duration": 304}, {"note": 78, "velocity": 83, "duration": 212}, {"note": 77, "velocity": 83, "duration": 601}, {"note": 0, "velocity": 0, "duration": 107}, {"note": 78, "velocity": 83, "duration": 228}, {"note": 77, "velocity": 83, "duration": 663}, {"note": 78, "velocity": 83, "duration": 73}, {"note": 80, "velocity": 83, "duration": 78}, {"note": 82, "velocity": 83, "duration": 2089}, {"note": 0, "velocity": 0, "duration": 1979}, {"note": 66, "velocity": 83, "duration": 42}, {"note": 0, "velocity": 0, "duration": 78}, {"note": 66, "velocity": 83, "duration": 43}, {"note": 0, "velocity": 0, "duration": 77}, {"note": 66, "velocity": 83, "duration": 295}, {"note": 0, "velocity": 0, "duration": 65}, {"note": 65, "velocity": 83, "duration": 81}, {"note": 66, "velocity": 83, "duration": 78}, {"note": 65, "velocity": 83, "duration": 110}, {"note": 63, "velocity": 83, "duration": 234}, {"note": 0, "velocity": 0, "duration": 246}, {"note": 66, "velocity": 83, "duration": 140}, {"note": 68, "velocity": 83, "duration": 106}, {"note": 70, "velocity": 83, "duration": 129}, {"note": 0, "velocity": 0, "duration": 111}, {"note": 70, "velocity": 83, "duration": 115}, {"note": 0, "velocity": 0, "duration": 125}, {"note": 70, "velocity": 83, "duration": 237}, {"note": 68, "velocity": 83, "duration": 134}, {"note": 70, "velocity": 83, "duration": 616}, {"note": 0, "velocity": 0, "duration": 704}, {"note": 68, "velocity": 83, "duration": 43}, {"note": 0, "velocity": 0, "duration": 77}, {"note": 68, "velocity": 83, "duration": 46}, {"note": 0, "velocity": 0, "duration": 74}, {"note": 68, "velocity": 83, "duration": 401}, {"note": 70, "velocity": 83, "duration": 92}, {"note": 71, "velocity": 83, "duration": 243}, {"note": 70, "velocity": 83, "duration": 98}, {"note": 68, "velocity": 83, "duration": 332}, {"note": 63, "velocity": 83, "duration": 60}, {"note": 63, "velocity": 83, "duration": 83}, {"note": 66, "velocity": 83, "duration": 188}, {"note": 66, "velocity": 83, "duration": 114}, {"note": 0, "velocity": 0, "duration": 126}, {"note": 66, "velocity": 83, "duration": 159}, {"note": 0, "velocity": 0, "duration": 81}, {"note": 70, "velocity": 83, "duration": 115}, {"note": 68, "velocity": 83, "duration": 871}, {"note": 0, "velocity": 0, "duration": 449}, {"note": 66, "velocity": 83, "duration": 39}, {"note": 0, "velocity": 0, "duration": 81}, {"note": 66, "velocity": 83, "duration": 39}, {"note": 0, "velocity": 0, "duration": 81}, {"note": 66, "velocity": 83, "duration": 215}, {"note": 0, "velocity": 0, "duration": 145}, {"note": 66, "velocity": 83, "duration": 137}, {"note": 68, "velocity": 83, "duration": 104}, {"note": 66, "velocity": 83, "duration": 91}, {"note": 65, "velocity": 83, "duration": 120}, {"note": 63, "velocity": 83, "duration": 317}, {"note": 66, "velocity": 83, "duration": 111}, {"note": 68, "velocity": 83, "duration": 53}, {"note": 0, "velocity": 0, "duration": 67}, {"note": 70, "velocity": 83, "duration": 111}, {"note": 0, "velocity": 0, "duration": 129}, {"note": 70, "velocity": 83, "duration": 113}, {"note": 0, "velocity": 0, "duration": 127}, {"note": 70, "velocity": 83, "duration": 244}, {"note": 73, "velocity": 83, "duration": 140}, {"note": 70, "velocity": 83, "duration": 77}, {"note": 0, "velocity": 0, "duration": 763}, {"note": 70, "velocity": 83, "duration": 126}, {"note": 73, "velocity": 83, "duration": 97}, {"note": 75, "velocity": 83, "duration": 239}, {"note": 73, "velocity": 83, "duration": 245}, {"note": 71, "velocity": 83, "duration": 366}, {"note": 71, "velocity": 83, "duration": 219}, {"note": 73, "velocity": 83, "duration": 219}, {"note": 71, "velocity": 83, "duration": 161}, {"note": 0, "velocity": 0, "duration": 79}, {"note": 70, "velocity": 83, "duration": 352}, {"note": 66, "velocity": 83, "duration": 91}, {"note": 68, "velocity": 83, "duration": 60}, {"note": 68, "velocity": 83, "duration": 39}, {"note": 0, "velocity": 0, "duration": 81}, {"note": 68, "velocity": 83, "duration": 124}, {"note": 70, "velocity": 83, "duration": 96}, {"note": 68, "velocity": 83, "duration": 78}, {"note": 70, "velocity": 83, "duration": 200}, {"note": 71, "velocity": 83, "duration": 568}, {"note": 0, "velocity": 0, "duration": 392}, {"note": 68, "velocity": 83, "duration": 123}, {"note": 70, "velocity": 83, "duration": 137}, {"note": 0, "velocity": 0, "duration": 103}, {"note": 70, "velocity": 83, "duration": 103}, {"note": 72, "velocity": 83, "duration": 118}, {"note": 74, "velocity": 83, "duration": 118}, {"note": 0, "velocity": 0, "duration": 122}, {"note": 74, "velocity": 83, "duration": 125}, {"note": 75, "velocity": 83, "duration": 110}, {"note": 77, "velocity": 83, "duration": 661}, {"note": 75, "velocity": 83, "duration": 122}, {"note": 77, "velocity": 83, "duration": 110}, {"note": 78, "velocity": 83, "duration": 103}, {"note": 75, "velocity": 83, "duration": 50}, {"note": 0, "velocity": 0, "duration": 70}, {"note": 75, "velocity": 83, "duration": 130}, {"note": 73, "velocity": 83, "duration": 109}, {"note": 75, "velocity": 83, "duration": 351}, {"note": 73, "velocity": 83, "duration": 176}, {"note": 0, "velocity": 0, "duration": 64}, {"note": 70, "velocity": 83, "duration": 58}, {"note": 0, "velocity": 0, "duration": 62}, {"note": 70, "velocity": 83, "duration": 124}, {"note": 68, "velocity": 83, "duration": 125}, {"note": 70, "velocity": 83, "duration": 376}, {"note": 0, "velocity": 0, "duration": 104}, {"note": 68, "velocity": 83, "duration": 49}, {"note": 0, "velocity": 0, "duration": 71}, {"note": 68, "velocity": 83, "duration": 44}, {"note": 0, "velocity": 0, "duration": 76}, {"note": 68, "velocity": 83, "duration": 84}, {"note": 70, "velocity": 83, "duration": 108}, {"note": 68, "velocity": 83, "duration": 158}, {"note": 66, "velocity": 83, "duration": 202}, {"note": 63, "velocity": 83, "duration": 524}, {"note": 0, "velocity": 0, "duration": 316}, {"note": 75, "velocity": 83, "duration": 125}, {"note": 77, "velocity": 83, "duration": 99}, {"note": 78, "velocity": 83, "duration": 116}, {"note": 75, "velocity": 83, "duration": 55}, {"note": 0, "velocity": 0, "duration": 65}, {"note": 75, "velocity": 83, "duration": 67}, {"note": 73, "velocity": 83, "duration": 95}, {"note": 75, "velocity": 83, "duration": 227}, {"note": 0, "velocity": 0, "duration": 133}, {"note": 73, "velocity": 83, "duration": 241}, {"note": 70, "velocity": 83, "duration": 54}, {"note": 0, "velocity": 0, "duration": 66}, {"note": 70, "velocity": 83, "duration": 94}, {"note": 68, "velocity": 83, "duration": 96}, {"note": 70, "velocity": 83, "duration": 91}, {"note": 73, "velocity": 83, "duration": 193}, {"note": 70, "velocity": 83, "duration": 78}, {"note": 0, "velocity": 0, "duration": 82}, {"note": 75, "velocity": 83, "duration": 456}, {"note": 0, "velocity": 0, "duration": 1184}, {"note": 70, "velocity": 83, "duration": 162}, {"note": 73, "velocity": 83, "duration": 103}, {"note": 78, "velocity": 83, "duration": 95}, {"note": 75, "velocity": 83, "duration": 45}, {"note": 0, "velocity": 0, "duration": 75}, {"note": 75, "velocity": 83, "duration": 92}, {"note": 73, "velocity": 83, "duration": 116}, {"note": 75, "velocity": 83, "duration": 364}, {"note": 73, "velocity": 83, "duration": 206}, {"note": 70, "velocity": 83, "duration": 69}, {"note": 70, "velocity": 83, "duration": 37}, {"note": 0, "velocity": 0, "duration": 83}, {"note": 70, "velocity": 83, "duration": 48}, {"note": 68, "velocity": 83, "duration": 92}, {"note": 70, "velocity": 83, "duration": 401}, {"note": 0, "velocity": 0, "duration": 79}, {"note": 68, "velocity": 83, "duration": 38}, {"note": 0, "velocity": 0, "duration": 82}, {"note": 68, "velocity": 83, "duration": 41}, {"note": 0, "velocity": 0, "duration": 79}, {"note": 68, "velocity": 83, "duration": 85}, {"note": 70, "velocity": 83, "duration": 93}, {"note": 68, "velocity": 83, "duration": 146}, {"note": 66, "velocity": 83, "duration": 212}, {"note": 63, "velocity": 83, "duration": 889}, {"note": 0, "velocity": 0, "duration": 431}, {"note": 63, "velocity": 83, "duration": 264}, {"note": 66, "velocity": 83, "duration": 247}, {"note": 70, "velocity": 83, "duration": 245}, {"note": 68, "velocity": 83, "duration": 144}, {"note": 0, "velocity": 0, "duration": 96}, {"note": 73, "velocity": 80, "duration": 78}, {"note": 73, "velocity": 80, "duration": 86}, {"note": 73, "velocity": 80, "duration": 225}, {"note": 70, "velocity": 80, "duration": 237}, {"note": 75, "velocity": 80, "duration": 683}, {"note": 0, "velocity": 0, "duration": 997}, {"note": 75, "velocity": 78, "duration": 122}, {"note": 77, "velocity": 78, "duration": 110}, {"note": 78, "velocity": 78, "duration": 103}, {"note": 75, "velocity": 78, "duration": 50}, {"note": 0, "velocity": 0, "duration": 70}, {"note": 75, "velocity": 78, "duration": 130}, {"note": 73, "velocity": 78, "duration": 109}, {"note": 75, "velocity": 78, "duration": 351}, {"note": 73, "velocity": 78, "duration": 176}, {"note": 0, "velocity": 0, "duration": 64}, {"note": 70, "velocity": 78, "duration": 58}, {"note": 0, "velocity": 0, "duration": 62}, {"note": 70, "velocity": 78, "duration": 124}, {"note": 68, "velocity": 78, "duration": 125}, {"note": 70, "velocity": 78, "duration": 376}, {"note": 0, "velocity": 0, "duration": 104}, {"note": 68, "velocity": 78, "duration": 49}, {"note": 0, "velocity": 0, "duration": 71}, {"note": 68, "velocity": 78, "duration": 44}, {"note": 0, "velocity": 0, "duration": 76}, {"note": 68, "velocity": 78, "duration": 84}, {"note": 70, "velocity": 78, "duration": 108}, {"note": 68, "velocity": 78, "duration": 158}, {"note": 66, "velocity": 78, "duration": 202}, {"note": 63, "velocity": 78, "duration": 524}, {"note": 0, "velocity": 0, "duration": 316}, {"note": 75, "velocity": 76, "duration": 125}, {"note": 77, "velocity": 76, "duration": 99}, {"note": 78, "velocity": 73, "duration": 116}, {"note": 75, "velocity": 73, "duration": 55}, {"note": 0, "velocity": 0, "duration": 65}, {"note": 75, "velocity": 73, "duration": 67}, {"note": 73, "velocity": 73, "duration": 95}, {"note": 75, "velocity": 73, "duration": 227}, {"note": 0, "velocity": 0, "duration": 133}, {"note": 73, "velocity": 73, "duration": 241}, {"note": 70, "velocity": 73, "duration": 54}, {"note": 0, "velocity": 0, "duration": 66}, {"note": 70, "velocity": 71, "duration": 94}, {"note": 68, "velocity": 71, "duration": 96}, {"note": 70, "velocity": 71, "duration": 91}, {"note": 73, "velocity": 71, "duration": 193}, {"note": 70, "velocity": 71, "duration": 78}, {"note": 75, "velocity": 71, "duration": 456}, {"note": 0, "velocity": 0, "duration": 502}, {"note": 77, "velocity": 71, "duration": 765}, {"note": 77, "velocity": 71, "duration": 765}, {"note": 0, "velocity": 0, "duration": 195}, {"note": 78, "velocity": 71, "duration": 95}, {"note": 75, "velocity": 71, "duration": 45}, {"note": 0, "velocity": 0, "duration": 75}, {"note": 75, "velocity": 71, "duration": 92}, {"note": 73, "velocity": 71, "duration": 116}, {"note": 75, "velocity": 71, "duration": 364}, {"note": 73, "velocity": 71, "duration": 206}, {"note": 70, "velocity": 71, "duration": 69}, {"note": 70, "velocity": 71, "duration": 37}, {"note": 0, "velocity": 0, "duration": 83}, {"note": 70, "velocity": 71, "duration": 48}, {"note": 68, "velocity": 71, "duration": 92}, {"note": 70, "velocity": 71, "duration": 401}, {"note": 0, "velocity": 0, "duration": 79}, {"note": 68, "velocity": 71, "duration": 38}, {"note": 0, "velocity": 0, "duration": 82}, {"note": 68, "velocity": 71, "duration": 41}, {"note": 0, "velocity": 0, "duration": 79}, {"note": 68, "velocity": 71, "duration": 85}, {"note": 70, "velocity": 71, "duration": 93}, {"note": 68, "velocity": 71, "duration": 146}, {"note": 66, "velocity": 71, "duration": 212}, {"note": 63, "velocity": 71, "duration": 889}, {"note": 0, "velocity": 0, "duration": 431}, {"note": 63, "velocity": 71, "duration": 264}, {"note": 66, "velocity": 71, "duration": 247}, {"note": 70, "velocity": 71, "duration": 245}, {"note": 68, "velocity": 71, "duration": 144}, {"note": 0, "velocity": 0, "duration": 96}, {"note": 73, "velocity": 71, "duration": 125}, {"note": 0, "velocity": 0, "duration": 107}, {"note": 73, "velocity": 71, "duration": 225}, {"note": 70, "velocity": 71, "duration": 237}, {"note": 75, "velocity": 71, "duration": 683}]]