[[{"note": 62, "velocity": 105, "duration": 203}, {"note": 71, "velocity": 103, "duration": 192}, {"note": 62, "velocity": 105, "duration": 209}, {"note": 71, "velocity": 105, "duration": 171}, {"note": 0, "velocity": 0, "duration": 69}, {"note": 67, "velocity": 103, "duration": 337}, {"note": 0, "velocity": 0, "duration": 143}, {"note": 69, "velocity": 102, "duration": 1435}, {"note": 0, "velocity": 0, "duration": 965}, {"note": 62, "velocity": 93, "duration": 197}, {"note": 71, "velocity": 102, "duration": 203}, {"note": 62, "velocity": 102, "duration": 236}, {"note": 71, "velocity": 105, "duration": 163}, {"note": 0, "velocity": 0, "duration": 77}, {"note": 67, "velocity": 103, "duration": 369}, {"note": 0, "velocity": 0, "duration": 111}, {"note": 74, "velocity": 105, "duration": 1545}, {"note": 0, "velocity": 0, "duration": 855}, {"note": 67, "velocity": 93, "duration": 224}, {"note": 76, "velocity": 105, "duration": 234}, {"note": 67, "velocity": 102, "duration": 263}, {"note": 76, "velocity": 110, "duration": 226}, {"note": 72, "velocity": 80, "duration": 399}, {"note": 0, "velocity": 0, "duration": 81}, {"note": 74, "velocity": 102, "duration": 344}, {"note": 0, "velocity": 0, "duration": 136}, {"note": 79, "velocity": 102, "duration": 711}, {"note": 0, "velocity": 0, "duration": 1209}, {"note": 67, "velocity": 93, "duration": 169}, {"note": 0, "velocity": 0, "duration": 71}, {"note": 69, "velocity": 105, "duration": 154}, {"note": 0, "velocity": 0, "duration": 86}, {"note": 71, "velocity": 102, "duration": 144}, {"note": 0, "velocity": 0, "duration": 96}, {"note": 72, "velocity": 93, "duration": 122}, {"note": 0, "velocity": 0, "duration": 118}, {"note": 74, "velocity": 103, "duration": 335}, {"note": 0, "velocity": 0, "duration": 145}, {"note": 71, "velocity": 102, "duration": 363}, {"note": 0, "velocity": 0, "duration": 117}, {"note": 69, "velocity": 95, "duration": 1077}, {"note": 0, "velocity": 0, "duration": 843}, {"note": 62, "velocity": 105, "duration": 203}, {"note": 71, "velocity": 103, "duration": 192}, {"note": 62, "velocity": 105, "duration": 209}, {"note": 71, "velocity": 105, "duration": 171}, {"note": 0, "velocity": 0, "duration": 69}, {"note": 67, "velocity": 103, "duration": 337}, {"note": 0, "velocity": 0, "duration": 143}, {"note": 69, "velocity": 102, "duration": 1435}, {"note": 0, "velocity": 0, "duration": 965}, {"note": 62, "velocity": 93, "duration": 197}, {"note": 71, "velocity": 102, "duration": 203}, {"note": 62, "velocity": 102, "duration": 236}, {"note": 71, "velocity": 105, "duration": 163}, {"note": 0, "velocity": 0, "duration": 77}, {"note": 67, "velocity": 103, "duration": 369}, {"note": 0, "velocity": 0, "duration": 111}, {"note": 74, "velocity": 105, "duration": 840}, {"note": 0, "velocity": 0, "duration": 120}, {"note": 71, "velocity": 102, "duration": 169}, {"note": 0, "velocity": 0, "duration": 71}, {"note": 69, "velocity": 93, "duration": 181}, {"note": 67, "velocity": 102, "duration": 708}, {"note": 0, "velocity": 0, "duration": 252}, {"note": 67, "velocity": 93, "duration": 224}, {"note": 76, "velocity": 105, "duration": 234}, {"note": 67, "velocity": 102, "duration": 263}, {"note": 76, "velocity": 110, "duration": 226}, {"note": 72, "velocity": 80, "duration": 399}, {"note": 0, "velocity": 0, "duration": 81}, {"note": 74, "velocity": 102, "duration": 344}, {"note": 0, "velocity": 0, "duration": 136}, {"note": 79, "velocity": 102, "duration": 711}, {"note": 0, "velocity": 0, "duration": 1209}, {"note": 67, "velocity": 93, "duration": 169}, {"note": 0, "velocity": 0, "duration": 71}, {"note": 69, "velocity": 105, "duration": 154}, {"note": 0, "velocity": 0, "duration": 86}, {"note": 71, "velocity": 102, "duration": 144}, {"note": 0, "velocity": 0, "duration": 96}, {"note": 72, "velocity": 93, "duration": 122}, {"note": 0, "velocity": 0, "duration": 118}, {"note": 74, "velocity": 103, "duration": 335}, {"note": 0, "velocity": 0, "duration": 145}, {"note": 79, "velocity": 102, "duration": 363}, {"note": 0, "velocity": 0, "duration": 117}, {"note": 81, "velocity": 95, "duration": 1077}, {"note": 0, "velocity": 0, "duration": 363}, {"note": 74, "velocity": 93, "duration": 59}, {"note": 0, "velocity": 0, "duration": 61}, {"note": 74, "velocity": 93, "duration": 57}, {"note": 0, "velocity": 0, "duration": 63}, {"note": 74, "velocity": 95, "duration": 160}, {"note": 0, "velocity": 0, "duration": 80}, {"note": 71, "velocity": 87, "duration": 70}, {"note": 71, "velocity": 93, "duration": 63}, {"note": 71, "velocity": 102, "duration": 163}, {"note": 0, "velocity": 0, "duration": 77}, {"note": 69, "velocity": 93, "duration": 63}, {"note": 69, "velocity": 93, "duration": 58}, {"note": 0, "velocity": 0, "duration": 62}, {"note": 69, "velocity": 102, "duration": 160}, {"note": 0, "velocity": 0, "duration": 80}, {"note": 67, "velocity": 102, "duration": 122}, {"note": 0, "velocity": 0, "duration": 118}, {"note": 69, "velocity": 103, "duration": 165}, {"note": 0, "velocity": 0, "duration": 75}, {"note": 71, "velocity": 95, "duration": 144}, {"note": 0, "velocity": 0, "duration": 96}, {"note": 69, "velocity": 105, "duration": 1217}, {"note": 0, "velocity": 0, "duration": 463}, {"note": 74, "velocity": 74, "duration": 68}, {"note": 74, "velocity": 102, "duration": 63}, {"note": 74, "velocity": 103, "duration": 146}, {"note": 0, "velocity": 0, "duration": 94}, {"note": 71, "velocity": 93, "duration": 63}, {"note": 71, "velocity": 87, "duration": 66}, {"note": 71, "velocity": 102, "duration": 165}, {"note": 0, "velocity": 0, "duration": 75}, {"note": 69, "velocity": 93, "duration": 68}, {"note": 69, "velocity": 93, "duration": 59}, {"note": 0, "velocity": 0, "duration": 61}, {"note": 69, "velocity": 102, "duration": 154}, {"note": 0, "velocity": 0, "duration": 86}, {"note": 67, "velocity": 95, "duration": 153}, {"note": 0, "velocity": 0, "duration": 87}, {"note": 74, "velocity": 95, "duration": 160}, {"note": 0, "velocity": 0, "duration": 80}, {"note": 76, "velocity": 102, "duration": 141}, {"note": 0, "velocity": 0, "duration": 99}, {"note": 74, "velocity": 102, "duration": 731}, {"note": 0, "velocity": 0, "duration": 709}, {"note": 74, "velocity": 103, "duration": 177}, {"note": 0, "velocity": 0, "duration": 63}, {"note": 76, "velocity": 103, "duration": 137}, {"note": 0, "velocity": 0, "duration": 103}, {"note": 74, "velocity": 93, "duration": 112}, {"note": 0, "velocity": 0, "duration": 128}, {"note": 76, "velocity": 105, "duration": 114}, {"note": 0, "velocity": 0, "duration": 126}, {"note": 74, "velocity": 102, "duration": 110}, {"note": 0, "velocity": 0, "duration": 130}, {"note": 71, "velocity": 90, "duration": 110}, {"note": 0, "velocity": 0, "duration": 130}, {"note": 74, "velocity": 102, "duration": 297}, {"note": 0, "velocity": 0, "duration": 183}, {"note": 71, "velocity": 93, "duration": 137}, {"note": 0, "velocity": 0, "duration": 103}, {"note": 74, "velocity": 102, "duration": 158}, {"note": 0, "velocity": 0, "duration": 82}, {"note": 71, "velocity": 95, "duration": 137}, {"note": 0, "velocity": 0, "duration": 103}, {"note": 74, "velocity": 102, "duration": 131}, {"note": 0, "velocity": 0, "duration": 109}, {"note": 71, "velocity": 95, "duration": 104}, {"note": 0, "velocity": 0, "duration": 136}, {"note": 64, "velocity": 95, "duration": 110}, {"note": 0, "velocity": 0, "duration": 130}, {"note": 67, "velocity": 95, "duration": 361}, {"note": 0, "velocity": 0, "duration": 359}, {"note": 72, "velocity": 93, "duration": 70}, {"note": 72, "velocity": 83, "duration": 63}, {"note": 72, "velocity": 87, "duration": 125}, {"note": 0, "velocity": 0, "duration": 115}, {"note": 71, "velocity": 102, "duration": 61}, {"note": 72, "velocity": 103, "duration": 104}, {"note": 0, "velocity": 0, "duration": 136}, {"note": 72, "velocity": 102, "duration": 135}, {"note": 0, "velocity": 0, "duration": 105}, {"note": 71, "velocity": 102, "duration": 61}, {"note": 72, "velocity": 103, "duration": 161}, {"note": 0, "velocity": 0, "duration": 79}, {"note": 71, "velocity": 93, "duration": 66}, {"note": 72, "velocity": 93, "duration": 61}, {"note": 74, "velocity": 103, "duration": 106}, {"note": 0, "velocity": 0, "duration": 134}, {"note": 76, "velocity": 95, "duration": 133}, {"note": 0, "velocity": 0, "duration": 107}, {"note": 74, "velocity": 105, "duration": 960}, {"note": 0, "velocity": 0, "duration": 720}, {"note": 74, "velocity": 93, "duration": 59}, {"note": 0, "velocity": 0, "duration": 61}, {"note": 74, "velocity": 93, "duration": 57}, {"note": 0, "velocity": 0, "duration": 63}, {"note": 74, "velocity": 95, "duration": 160}, {"note": 0, "velocity": 0, "duration": 80}, {"note": 71, "velocity": 87, "duration": 70}, {"note": 71, "velocity": 93, "duration": 63}, {"note": 71, "velocity": 102, "duration": 163}, {"note": 0, "velocity": 0, "duration": 77}, {"note": 69, "velocity": 93, "duration": 63}, {"note": 69, "velocity": 93, "duration": 58}, {"note": 0, "velocity": 0, "duration": 62}, {"note": 69, "velocity": 102, "duration": 160}, {"note": 0, "velocity": 0, "duration": 80}, {"note": 67, "velocity": 102, "duration": 122}, {"note": 0, "velocity": 0, "duration": 118}, {"note": 69, "velocity": 103, "duration": 165}, {"note": 0, "velocity": 0, "duration": 75}, {"note": 71, "velocity": 95, "duration": 144}, {"note": 0, "velocity": 0, "duration": 96}, {"note": 69, "velocity": 105, "duration": 1217}, {"note": 0, "velocity": 0, "duration": 463}, {"note": 74, "velocity": 74, "duration": 68}, {"note": 74, "velocity": 102, "duration": 63}, {"note": 74, "velocity": 103, "duration": 146}, {"note": 0, "velocity": 0, "duration": 94}, {"note": 71, "velocity": 93, "duration": 63}, {"note": 71, "velocity": 87, "duration": 66}, {"note": 71, "velocity": 102, "duration": 165}, {"note": 0, "velocity": 0, "duration": 75}, {"note": 69, "velocity": 93, "duration": 68}, {"note": 69, "velocity": 93, "duration": 59}, {"note": 0, "velocity": 0, "duration": 61}, {"note": 69, "velocity": 102, "duration": 154}, {"note": 0, "velocity": 0, "duration": 86}, {"note": 67, "velocity": 95, "duration": 153}, {"note": 0, "velocity": 0, "duration": 87}, {"note": 74, "velocity": 95, "duration": 160}, {"note": 0, "velocity": 0, "duration": 80}, {"note": 76, "velocity": 102, "duration": 141}, {"note": 0, "velocity": 0, "duration": 99}, {"note": 74, "velocity": 102, "duration": 731}, {"note": 0, "velocity": 0, "duration": 709}, {"note": 74, "velocity": 103, "duration": 177}, {"note": 0, "velocity": 0, "duration": 63}, {"note": 76, "velocity": 103, "duration": 137}, {"note": 0, "velocity": 0, "duration": 103}, {"note": 74, "velocity": 93, "duration": 112}, {"note": 0, "velocity": 0, "duration": 128}, {"note": 76, "velocity": 105, "duration": 114}, {"note": 0, "velocity": 0, "duration": 126}, {"note": 74, "velocity": 102, "duration": 110}, {"note": 0, "velocity": 0, "duration": 130}, {"note": 71, "velocity": 90, "duration": 110}, {"note": 0, "velocity": 0, "duration": 130}, {"note": 74, "velocity": 102, "duration": 297}, {"note": 0, "velocity": 0, "duration": 183}, {"note": 71, "velocity": 93, "duration": 137}, {"note": 0, "velocity": 0, "duration": 103}, {"note": 74, "velocity": 102, "duration": 158}, {"note": 0, "velocity": 0, "duration": 82}, {"note": 71, "velocity": 95, "duration": 137}, {"note": 0, "velocity": 0, "duration": 103}, {"note": 74, "velocity": 102, "duration": 131}, {"note": 0, "velocity": 0, "duration": 109}, {"note": 71, "velocity": 95, "duration": 104}, {"note": 0, "velocity": 0, "duration": 136}, {"note": 81, "velocity": 95, "duration": 110}, {"note": 0, "velocity": 0, "duration": 130}, {"note": 79, "velocity": 95, "duration": 361}, {"note": 0, "velocity": 0, "duration": 359}, {"note": 72, "velocity": 93, "duration": 70}, {"note": 72, "velocity": 83, "duration": 63}, {"note": 72, "velocity": 87, "duration": 125}, {"note": 0, "velocity": 0, "duration": 115}, {"note": 71, "velocity": 102, "duration": 61}, {"note": 72, "velocity": 103, "duration": 104}, {"note": 0, "velocity": 0, "duration": 136}, {"note": 72, "velocity": 102, "duration": 135}, {"note": 0, "velocity": 0, "duration": 105}, {"note": 71, "velocity": 102, "duration": 61}, {"note": 72, "velocity": 103, "duration": 161}, {"note": 0, "velocity": 0, "duration": 79}, {"note": 71, "velocity": 93, "duration": 66}, {"note": 72, "velocity": 93, "duration": 61}, {"note": 74, "velocity": 103, "duration": 106}, {"note": 0, "velocity": 0, "duration": 134}, {"note": 76, "velocity": 95, "duration": 133}, {"note": 0, "velocity": 0, "duration": 107}, {"note": 74, "velocity": 105, "duration": 960}, {"note": 0, "velocity": 0, "duration": 480}, {"note": 69, "velocity": 95, "duration": 154}, {"note": 0, "velocity": 0, "duration": 86}, {"note": 71, "velocity": 87, "duration": 135}, {"note": 0, "velocity": 0, "duration": 105}, {"note": 69, "velocity": 105, "duration": 254}, {"note": 0, "velocity": 0, "duration": 226}, {"note": 69, "velocity": 93, "duration": 116}, {"note": 0, "velocity": 0, "duration": 124}, {"note": 71, "velocity": 95, "duration": 137}, {"note": 0, "velocity": 0, "duration": 103}, {"note": 69, "velocity": 105, "duration": 325}, {"note": 0, "velocity": 0, "duration": 155}, {"note": 69, "velocity": 102, "duration": 103}, {"note": 0, "velocity": 0, "duration": 137}, {"note": 71, "velocity": 95, "duration": 104}, {"note": 0, "velocity": 0, "duration": 136}, {"note": 69, "velocity": 105, "duration": 307}, {"note": 67, "velocity": 93, "duration": 57}, {"note": 0, "velocity": 0, "duration": 63}, {"note": 69, "velocity": 105, "duration": 59}, {"note": 0, "velocity": 0, "duration": 61}, {"note": 67, "velocity": 90, "duration": 66}, {"note": 71, "velocity": 93, "duration": 135}, {"note": 0, "velocity": 0, "duration": 105}, {"note": 69, "velocity": 103, "duration": 266}, {"note": 0, "velocity": 0, "duration": 214}, {"note": 74, "velocity": 87, "duration": 133}, {"note": 0, "velocity": 0, "duration": 107}, {"note": 76, "velocity": 102, "duration": 122}, {"note": 0, "velocity": 0, "duration": 118}, {"note": 74, "velocity": 102, "duration": 306}, {"note": 0, "velocity": 0, "duration": 174}, {"note": 74, "velocity": 93, "duration": 135}, {"note": 0, "velocity": 0, "duration": 105}, {"note": 76, "velocity": 102, "duration": 133}, {"note": 0, "velocity": 0, "duration": 107}, {"note": 74, "velocity": 103, "duration": 480}, {"note": 0, "velocity": 0, "duration": 840}, {"note": 74, "velocity": 105, "duration": 163}, {"note": 0, "velocity": 0, "duration": 77}, {"note": 74, "velocity": 102, "duration": 72}, {"note": 79, "velocity": 103, "duration": 103}, {"note": 0, "velocity": 0, "duration": 137}, {"note": 78, "velocity": 103, "duration": 318}, {"note": 0, "velocity": 0, "duration": 12402}, {"note": 62, "velocity": 105, "duration": 203}, {"note": 71, "velocity": 103, "duration": 192}, {"note": 62, "velocity": 105, "duration": 209}, {"note": 71, "velocity": 105, "duration": 171}, {"note": 0, "velocity": 0, "duration": 69}, {"note": 67, "velocity": 103, "duration": 337}, {"note": 0, "velocity": 0, "duration": 143}, {"note": 69, "velocity": 102, "duration": 1435}, {"note": 0, "velocity": 0, "duration": 965}, {"note": 62, "velocity": 93, "duration": 197}, {"note": 71, "velocity": 102, "duration": 203}, {"note": 62, "velocity": 102, "duration": 236}, {"note": 71, "velocity": 105, "duration": 163}, {"note": 0, "velocity": 0, "duration": 77}, {"note": 67, "velocity": 103, "duration": 369}, {"note": 0, "velocity": 0, "duration": 111}, {"note": 74, "velocity": 105, "duration": 840}, {"note": 0, "velocity": 0, "duration": 120}, {"note": 71, "velocity": 102, "duration": 169}, {"note": 0, "velocity": 0, "duration": 71}, {"note": 69, "velocity": 93, "duration": 181}, {"note": 67, "velocity": 102, "duration": 708}, {"note": 0, "velocity": 0, "duration": 252}, {"note": 67, "velocity": 93, "duration": 224}, {"note": 76, "velocity": 105, "duration": 234}, {"note": 67, "velocity": 102, "duration": 263}, {"note": 76, "velocity": 110, "duration": 226}, {"note": 72, "velocity": 80, "duration": 399}, {"note": 0, "velocity": 0, "duration": 81}, {"note": 74, "velocity": 102, "duration": 344}, {"note": 0, "velocity": 0, "duration": 136}, {"note": 79, "velocity": 102, "duration": 711}, {"note": 0, "velocity": 0, "duration": 1209}, {"note": 67, "velocity": 93, "duration": 169}, {"note": 0, "velocity": 0, "duration": 71}, {"note": 69, "velocity": 105, "duration": 154}, {"note": 0, "velocity": 0, "duration": 86}, {"note": 71, "velocity": 102, "duration": 144}, {"note": 0, "velocity": 0, "duration": 96}, {"note": 72, "velocity": 93, "duration": 122}, {"note": 0, "velocity": 0, "duration": 118}, {"note": 74, "velocity": 103, "duration": 335}, {"note": 0, "velocity": 0, "duration": 145}, {"note": 79, "velocity": 102, "duration": 363}, {"note": 0, "velocity": 0, "duration": 117}, {"note": 81, "velocity": 95, "duration": 1077}, {"note": 0, "velocity": 0, "duration": 363}, {"note": 74, "velocity": 93, "duration": 59}, {"note": 0, "velocity": 0, "duration": 61}, {"note": 74, "velocity": 93, "duration": 57}, {"note": 0, "velocity": 0, "duration": 63}, {"note": 74, "velocity": 95, "duration": 160}, {"note": 0, "velocity": 0, "duration": 80}, {"note": 71, "velocity": 87, "duration": 70}, {"note": 71, "velocity": 93, "duration": 63}, {"note": 71, "velocity": 102, "duration": 163}, {"note": 0, "velocity": 0, "duration": 77}, {"note": 69, "velocity": 93, "duration": 63}, {"note": 69, "velocity": 93, "duration": 58}, {"note": 0, "velocity": 0, "duration": 62}, {"note": 69, "velocity": 102, "duration": 160}, {"note": 0, "velocity": 0, "duration": 80}, {"note": 67, "velocity": 102, "duration": 122}, {"note": 0, "velocity": 0, "duration": 118}, {"note": 69, "velocity": 103, "duration": 165}, {"note": 0, "velocity": 0, "duration": 75}, {"note": 71, "velocity": 95, "duration": 144}, {"note": 0, "velocity": 0, "duration": 96}, {"note": 69, "velocity": 105, "duration": 1217}, {"note": 0, "velocity": 0, "duration": 463}, {"note": 74, "velocity": 74, "duration": 68}, {"note": 74, "velocity": 102, "duration": 63}, {"note": 74, "velocity": 103, "duration": 146}, {"note": 0, "velocity": 0, "duration": 94}, {"note": 71, "velocity": 93, "duration": 63}, {"note": 71, "velocity": 87, "duration": 66}, {"note": 71, "velocity": 102, "duration": 165}, {"note": 0, "velocity": 0, "duration": 75}, {"note": 69, "velocity": 93, "duration": 68}, {"note": 69, "velocity": 93, "duration": 59}, {"note": 0, "velocity": 0, "duration": 61}, {"note": 69, "velocity": 102, "duration": 154}, {"note": 0, "velocity": 0, "duration": 86}, {"note": 67, "velocity": 95, "duration": 153}, {"note": 0, "velocity": 0, "duration": 87}, {"note": 74, "velocity": 95, "duration": 160}, {"note": 0, "velocity": 0, "duration": 80}, {"note": 76, "velocity": 102, "duration": 141}, {"note": 0, "velocity": 0, "duration": 99}, {"note": 74, "velocity": 102, "duration": 731}, {"note": 0, "velocity": 0, "duration": 709}, {"note": 74, "velocity": 103, "duration": 177}, {"note": 0, "velocity": 0, "duration": 63}, {"note": 76, "velocity": 103, "duration": 137}, {"note": 0, "velocity": 0, "duration": 103}, {"note": 74, "velocity": 93, "duration": 112}, {"note": 0, "velocity": 0, "duration": 128}, {"note": 76, "velocity": 105, "duration": 114}, {"note": 0, "velocity": 0, "duration": 126}, {"note": 74, "velocity": 102, "duration": 110}, {"note": 0, "velocity": 0, "duration": 130}, {"note": 71, "velocity": 90, "duration": 110}, {"note": 0, "velocity": 0, "duration": 130}, {"note": 74, "velocity": 102, "duration": 297}, {"note": 0, "velocity": 0, "duration": 183}, {"note": 71, "velocity": 93, "duration": 137}, {"note": 0, "velocity": 0, "duration": 103}, {"note": 74, "velocity": 102, "duration": 158}, {"note": 0, "velocity": 0, "duration": 82}, {"note": 71, "velocity": 95, "duration": 137}, {"note": 0, "velocity": 0, "duration": 103}, {"note": 74, "velocity": 102, "duration": 131}, {"note": 0, "velocity": 0, "duration": 109}, {"note": 71, "velocity": 95, "duration": 104}, {"note": 0, "velocity": 0, "duration": 136}, {"note": 64, "velocity": 95, "duration": 110}, {"note": 0, "velocity": 0, "duration": 130}, {"note": 67, "velocity": 95, "duration": 361}, {"note": 0, "velocity": 0, "duration": 359}, {"note": 72, "velocity": 93, "duration": 70}, {"note": 72, "velocity": 83, "duration": 63}, {"note": 72, "velocity": 87, "duration": 125}, {"note": 0, "velocity": 0, "duration": 115}, {"note": 71, "velocity": 102, "duration": 61}, {"note": 72, "velocity": 103, "duration": 104}, {"note": 0, "velocity": 0, "duration": 136}, {"note": 72, "velocity": 102, "duration": 135}, {"note": 0, "velocity": 0, "duration": 105}, {"note": 71, "velocity": 102, "duration": 61}, {"note": 72, "velocity": 103, "duration": 161}, {"note": 0, "velocity": 0, "duration": 79}, {"note": 71, "velocity": 93, "duration": 66}, {"note": 72, "velocity": 93, "duration": 61}, {"note": 74, "velocity": 103, "duration": 106}, {"note": 0, "velocity": 0, "duration": 134}, {"note": 76, "velocity": 95, "duration": 133}, {"note": 0, "velocity": 0, "duration": 107}, {"note": 74, "velocity": 105, "duration": 960}, {"note": 0, "velocity": 0, "duration": 720}, {"note": 74, "velocity": 93, "duration": 59}, {"note": 0, "velocity": 0, "duration": 61}, {"note": 74, "velocity": 93, "duration": 57}, {"note": 0, "velocity": 0, "duration": 63}, {"note": 74, "velocity": 95, "duration": 160}, {"note": 0, "velocity": 0, "duration": 80}, {"note": 71, "velocity": 87, "duration": 70}, {"note": 71, "velocity": 93, "duration": 63}, {"note": 71, "velocity": 102, "duration": 163}, {"note": 0, "velocity": 0, "duration": 77}, {"note": 69, "velocity": 93, "duration": 63}, {"note": 69, "velocity": 93, "duration": 58}, {"note": 0, "velocity": 0, "duration": 62}, {"note": 69, "velocity": 102, "duration": 160}, {"note": 0, "velocity": 0, "duration": 80}, {"note": 67, "velocity": 102, "duration": 122}, {"note": 0, "velocity": 0, "duration": 118}, {"note": 69, "velocity": 103, "duration": 165}, {"note": 0, "velocity": 0, "duration": 75}, {"note": 71, "velocity": 95, "duration": 144}, {"note": 0, "velocity": 0, "duration": 96}, {"note": 69, "velocity": 105, "duration": 1217}, {"note": 0, "velocity": 0, "duration": 463}, {"note": 74, "velocity": 74, "duration": 68}, {"note": 74, "velocity": 102, "duration": 63}, {"note": 74, "velocity": 103, "duration": 146}, {"note": 0, "velocity": 0, "duration": 94}, {"note": 71, "velocity": 93, "duration": 63}, {"note": 71, "velocity": 87, "duration": 66}, {"note": 71, "velocity": 102, "duration": 165}, {"note": 0, "velocity": 0, "duration": 75}, {"note": 69, "velocity": 93, "duration": 68}, {"note": 69, "velocity": 93, "duration": 59}, {"note": 0, "velocity": 0, "duration": 61}, {"note": 69, "velocity": 102, "duration": 154}, {"note": 0, "velocity": 0, "duration": 86}, {"note": 67, "velocity": 95, "duration": 153}, {"note": 0, "velocity": 0, "duration": 87}, {"note": 74, "velocity": 95, "duration": 160}, {"note": 0, "velocity": 0, "duration": 80}, {"note": 76, "velocity": 102, "duration": 141}, {"note": 0, "velocity": 0, "duration": 99}, {"note": 74, "velocity": 102, "duration": 731}, {"note": 0, "velocity": 0, "duration": 709}, {"note": 74, "velocity": 103, "duration": 177}, {"note": 0, "velocity": 0, "duration": 63}, {"note": 76, "velocity": 103, "duration": 137}, {"note": 0, "velocity": 0, "duration": 103}, {"note": 74, "velocity": 93, "duration": 112}, {"note": 0, "velocity": 0, "duration": 128}, {"note": 76, "velocity": 105, "duration": 114}, {"note": 0, "velocity": 0, "duration": 126}, {"note": 74, "velocity": 102, "duration": 110}, {"note": 0, "velocity": 0, "duration": 130}, {"note": 71, "velocity": 90, "duration": 110}, {"note": 0, "velocity": 0, "duration": 130}, {"note": 74, "velocity": 102, "duration": 297}, {"note": 0, "velocity": 0, "duration": 183}, {"note": 71, "velocity": 93, "duration": 137}, {"note": 0, "velocity": 0, "duration": 103}, {"note": 74, "velocity": 102, "duration": 158}, {"note": 0, "velocity": 0, "duration": 82}, {"note": 71, "velocity": 95, "duration": 137}, {"note": 0, "velocity": 0, "duration": 103}, {"note": 74, "velocity": 102, "duration": 131}, {"note": 0, "velocity": 0, "duration": 109}, {"note": 71, "velocity": 95, "duration": 104}, {"note": 0, "velocity": 0, "duration": 136}, {"note": 64, "velocity": 95, "duration": 110}, {"note": 0, "velocity": 0, "duration": 130}, {"note": 67, "velocity": 95, "duration": 361}, {"note": 0, "velocity": 0, "duration": 359}, {"note": 72, "velocity": 93, "duration": 70}, {"note": 72, "velocity": 83, "duration": 63}, {"note": 72, "velocity": 87, "duration": 125}, {"note": 0, "velocity": 0, "duration": 115}, {"note": 71, "velocity": 102, "duration": 61}, {"note": 72, "velocity": 103, "duration": 104}, {"note": 0, "velocity": 0, "duration": 136}, {"note": 72, "velocity": 102, "duration": 135}, {"note": 0, "velocity": 0, "duration": 105}, {"note": 71, "velocity": 102, "duration": 61}, {"note": 72, "velocity": 103, "duration": 161}, {"note": 0, "velocity": 0, "duration": 79}, {"note": 71, "velocity": 93, "duration": 66}, {"note": 72, "velocity": 93, "duration": 61}, {"note": 74, "velocity": 103, "duration": 106}, {"note": 0, "velocity": 0, "duration": 134}, {"note": 76, "velocity": 95, "duration": 133}, {"note": 0, "velocity": 0, "duration": 107}, {"note": 74, "velocity": 105, "duration": 960}, {"note": 0, "velocity": 0, "duration": 480}, {"note": 69, "velocity": 95, "duration": 154}, {"note": 0, "velocity": 0, "duration": 86}, {"note": 71, "velocity": 87, "duration": 135}, {"note": 0, "velocity": 0, "duration": 105}, {"note": 69, "velocity": 105, "duration": 254}, {"note": 0, "velocity": 0, "duration": 226}, {"note": 69, "velocity": 93, "duration": 116}, {"note": 0, "velocity": 0, "duration": 124}, {"note": 71, "velocity": 95, "duration": 137}, {"note": 0, "velocity": 0, "duration": 103}, {"note": 69, "velocity": 105, "duration": 325}, {"note": 0, "velocity": 0, "duration": 155}, {"note": 69, "velocity": 102, "duration": 103}, {"note": 0, "velocity": 0, "duration": 137}, {"note": 71, "velocity": 95, "duration": 104}, {"note": 0, "velocity": 0, "duration": 136}, {"note": 69, "velocity": 105, "duration": 307}, {"note": 67, "velocity": 93, "duration": 57}, {"note": 0, "velocity": 0, "duration": 63}, {"note": 69, "velocity": 105, "duration": 59}, {"note": 0, "velocity": 0, "duration": 61}, {"note": 67, "velocity": 90, "duration": 66}, {"note": 71, "velocity": 93, "duration": 135}, {"note": 0, "velocity": 0, "duration": 105}, {"note": 69, "velocity": 103, "duration": 266}, {"note": 0, "velocity": 0, "duration": 214}, {"note": 74, "velocity": 87, "duration": 133}, {"note": 0, "velocity": 0, "duration": 107}, {"note": 76, "velocity": 102, "duration": 122}, {"note": 0, "velocity": 0, "duration": 118}, {"note": 74, "velocity": 102, "duration": 306}, {"note": 0, "velocity": 0, "duration": 174}, {"note": 74, "velocity": 93, "duration": 135}, {"note": 0, "velocity": 0, "duration": 105}, {"note": 76, "velocity": 102, "duration": 133}, {"note": 0, "velocity": 0, "duration": 107}, {"note": 74, "velocity": 103, "duration": 480}, {"note": 0, "velocity": 0, "duration": 840}, {"note": 74, "velocity": 105, "duration": 163}, {"note": 0, "velocity": 0, "duration": 77}, {"note": 74, "velocity": 102, "duration": 72}, {"note": 79, "velocity": 103, "duration": 103}, {"note": 0, "velocity": 0, "duration": 137}, {"note": 78, "velocity": 103, "duration": 318}, {"note": 0, "velocity": 0, "duration": 162}, {"note": 69, "velocity": 95, "duration": 154}, {"note": 0, "velocity": 0, "duration": 86}, {"note": 71, "velocity": 87, "duration": 135}, {"note": 0, "velocity": 0, "duration": 105}, {"note": 69, "velocity": 105, "duration": 254}, {"note": 0, "velocity": 0, "duration": 226}, {"note": 69, "velocity": 93, "duration": 116}, {"note": 0, "velocity": 0, "duration": 124}, {"note": 71, "velocity": 95, "duration": 137}, {"note": 0, "velocity": 0, "duration": 103}, {"note": 69, "velocity": 105, "duration": 325}, {"note": 0, "velocity": 0, "duration": 155}, {"note": 69, "velocity": 102, "duration": 103}, {"note": 0, "velocity": 0, "duration": 137}, {"note": 71, "velocity": 95, "duration": 104}, {"note": 0, "velocity": 0, "duration": 136}, {"note": 69, "velocity": 105, "duration": 307}, {"note": 67, "velocity": 93, "duration": 57}, {"note": 0, "velocity": 0, "duration": 63}, {"note": 69, "velocity": 105, "duration": 59}, {"note": 0, "velocity": 0, "duration": 61}, {"note": 67, "velocity": 90, "duration": 66}, {"note": 71, "velocity": 93, "duration": 135}, {"note": 0, "velocity": 0, "duration": 105}, {"note": 69, "velocity": 103, "duration": 266}, {"note": 0, "velocity": 0, "duration": 214}, {"note": 74, "velocity": 87, "duration": 133}, {"note": 0, "velocity": 0, "duration": 107}, {"note": 76, "velocity": 102, "duration": 122}, {"note": 0, "velocity": 0, "duration": 118}, {"note": 74, "velocity": 102, "duration": 306}, {"note": 0, "velocity": 0, "duration": 174}, {"note": 74, "velocity": 93, "duration": 135}, {"note": 0, "velocity": 0, "duration": 105}, {"note": 76, "velocity": 102, "duration": 133}, {"note": 0, "velocity": 0, "duration": 107}, {"note": 74, "velocity": 103, "duration": 480}, {"note": 0, "velocity": 0, "duration": 720}, {"note": 71, "velocity": 100, "duration": 120}, {"note": 72, "velocity": 105, "duration": 120}, {"note": 74, "velocity": 102, "duration": 240}, {"note": 71, "velocity": 103, "duration": 240}, {"note": 81, "velocity": 103, "duration": 480}, {"note": 79, "velocity": 102, "duration": 1320}]]