[[{"note": 62, "velocity": 79, "duration": 140}, {"note": 64, "velocity": 64, "duration": 150}, {"note": 65, "velocity": 92, "duration": 280}, {"note": 72, "velocity": 90, "duration": 245}, {"note": 70, "velocity": 85, "duration": 534}, {"note": 0, "velocity": 0, "duration": 666}, {"note": 60, "velocity": 90, "duration": 132}, {"note": 62, "velocity": 68, "duration": 130}, {"note": 64, "velocity": 88, "duration": 184}, {"note": 70, "velocity": 89, "duration": 219}, {"note": 69, "velocity": 89, "duration": 669}, {"note": 0, "velocity": 0, "duration": 531}, {"note": 69, "velocity": 96, "duration": 56}, {"note": 0, "velocity": 0, "duration": 64}, {"note": 69, "velocity": 92, "duration": 64}, {"note": 74, "velocity": 102, "duration": 169}, {"note": 0, "velocity": 0, "duration": 71}, {"note": 72, "velocity": 112, "duration": 171}, {"note": 0, "velocity": 0, "duration": 69}, {"note": 70, "velocity": 102, "duration": 217}, {"note": 67, "velocity": 88, "duration": 445}, {"note": 0, "velocity": 0, "duration": 155}, {"note": 65, "velocity": 88, "duration": 105}, {"note": 64, "velocity": 79, "duration": 248}, {"note": 65, "velocity": 70, "duration": 146}, {"note": 67, "velocity": 85, "duration": 354}, {"note": 70, "velocity": 96, "duration": 220}, {"note": 69, "velocity": 71, "duration": 594}, {"note": 0, "velocity": 0, "duration": 606}, {"note": 62, "velocity": 92, "duration": 117}, {"note": 64, "velocity": 73, "duration": 145}, {"note": 65, "velocity": 88, "duration": 248}, {"note": 72, "velocity": 92, "duration": 255}, {"note": 70, "velocity": 93, "duration": 739}, {"note": 0, "velocity": 0, "duration": 461}, {"note": 60, "velocity": 79, "duration": 159}, {"note": 62, "velocity": 64, "duration": 144}, {"note": 64, "velocity": 72, "duration": 284}, {"note": 70, "velocity": 95, "duration": 247}, {"note": 69, "velocity": 92, "duration": 531}, {"note": 0, "velocity": 0, "duration": 669}, {"note": 69, "velocity": 86, "duration": 54}, {"note": 0, "velocity": 0, "duration": 66}, {"note": 69, "velocity": 85, "duration": 66}, {"note": 74, "velocity": 97, "duration": 156}, {"note": 0, "velocity": 0, "duration": 84}, {"note": 72, "velocity": 97, "duration": 125}, {"note": 0, "velocity": 0, "duration": 115}, {"note": 70, "velocity": 107, "duration": 146}, {"note": 0, "velocity": 0, "duration": 94}, {"note": 67, "velocity": 77, "duration": 472}, {"note": 0, "velocity": 0, "duration": 128}, {"note": 65, "velocity": 53, "duration": 102}, {"note": 64, "velocity": 81, "duration": 230}, {"note": 69, "velocity": 81, "duration": 132}, {"note": 67, "velocity": 83, "duration": 278}, {"note": 0, "velocity": 0, "duration": 82}, {"note": 64, "velocity": 79, "duration": 213}, {"note": 62, "velocity": 85, "duration": 192}, {"note": 62, "velocity": 83, "duration": 53}, {"note": 0, "velocity": 0, "duration": 67}, {"note": 62, "velocity": 77, "duration": 47}, {"note": 0, "velocity": 0, "duration": 73}, {"note": 62, "velocity": 92, "duration": 205}, {"note": 74, "velocity": 97, "duration": 179}, {"note": 0, "velocity": 0, "duration": 61}, {"note": 74, "velocity": 93, "duration": 370}, {"note": 0, "velocity": 0, "duration": 830}, {"note": 62, "velocity": 99, "duration": 75}, {"note": 74, "velocity": 96, "duration": 111}, {"note": 72, "velocity": 117, "duration": 252}, {"note": 74, "velocity": 95, "duration": 235}, {"note": 69, "velocity": 89, "duration": 246}, {"note": 0, "velocity": 0, "duration": 954}, {"note": 69, "velocity": 93, "duration": 61}, {"note": 69, "velocity": 85, "duration": 101}, {"note": 74, "velocity": 89, "duration": 157}, {"note": 0, "velocity": 0, "duration": 203}, {"note": 72, "velocity": 93, "duration": 117}, {"note": 70, "velocity": 79, "duration": 232}, {"note": 67, "velocity": 82, "duration": 416}, {"note": 0, "velocity": 0, "duration": 184}, {"note": 65, "velocity": 96, "duration": 107}, {"note": 64, "velocity": 74, "duration": 233}, {"note": 65, "velocity": 85, "duration": 122}, {"note": 67, "velocity": 86, "duration": 233}, {"note": 0, "velocity": 0, "duration": 127}, {"note": 70, "velocity": 100, "duration": 221}, {"note": 69, "velocity": 96, "duration": 805}, {"note": 0, "velocity": 0, "duration": 395}, {"note": 62, "velocity": 83, "duration": 64}, {"note": 62, "velocity": 86, "duration": 60}, {"note": 62, "velocity": 92, "duration": 207}, {"note": 74, "velocity": 96, "duration": 172}, {"note": 0, "velocity": 0, "duration": 68}, {"note": 74, "velocity": 99, "duration": 468}, {"note": 0, "velocity": 0, "duration": 732}, {"note": 74, "velocity": 89, "duration": 117}, {"note": 76, "velocity": 93, "duration": 166}, {"note": 77, "velocity": 96, "duration": 216}, {"note": 79, "velocity": 86, "duration": 170}, {"note": 0, "velocity": 0, "duration": 70}, {"note": 76, "velocity": 93, "duration": 228}, {"note": 69, "velocity": 70, "duration": 464}, {"note": 0, "velocity": 0, "duration": 496}, {"note": 69, "velocity": 86, "duration": 57}, {"note": 0, "velocity": 0, "duration": 63}, {"note": 69, "velocity": 75, "duration": 66}, {"note": 74, "velocity": 96, "duration": 162}, {"note": 0, "velocity": 0, "duration": 78}, {"note": 72, "velocity": 93, "duration": 145}, {"note": 0, "velocity": 0, "duration": 95}, {"note": 70, "velocity": 95, "duration": 200}, {"note": 67, "velocity": 92, "duration": 400}, {"note": 0, "velocity": 0, "duration": 320}, {"note": 72, "velocity": 97, "duration": 192}, {"note": 74, "velocity": 95, "duration": 97}, {"note": 76, "velocity": 92, "duration": 325}, {"note": 76, "velocity": 97, "duration": 226}, {"note": 81, "velocity": 112, "duration": 913}, {"note": 79, "velocity": 112, "duration": 138}, {"note": 77, "velocity": 70, "duration": 133}, {"note": 76, "velocity": 88, "duration": 638}, {"note": 0, "velocity": 0, "duration": 1282}, {"note": 62, "velocity": 90, "duration": 124}, {"note": 64, "velocity": 65, "duration": 131}, {"note": 65, "velocity": 77, "duration": 249}, {"note": 72, "velocity": 96, "duration": 215}, {"note": 70, "velocity": 100, "duration": 952}, {"note": 0, "velocity": 0, "duration": 248}, {"note": 60, "velocity": 82, "duration": 124}, {"note": 62, "velocity": 73, "duration": 136}, {"note": 64, "velocity": 78, "duration": 243}, {"note": 70, "velocity": 102, "duration": 272}, {"note": 69, "velocity": 95, "duration": 764}, {"note": 0, "velocity": 0, "duration": 436}, {"note": 69, "velocity": 85, "duration": 56}, {"note": 0, "velocity": 0, "duration": 64}, {"note": 69, "velocity": 83, "duration": 70}, {"note": 74, "velocity": 96, "duration": 163}, {"note": 0, "velocity": 0, "duration": 77}, {"note": 72, "velocity": 96, "duration": 87}, {"note": 70, "velocity": 92, "duration": 118}, {"note": 0, "velocity": 0, "duration": 122}, {"note": 67, "velocity": 90, "duration": 456}, {"note": 0, "velocity": 0, "duration": 264}, {"note": 65, "velocity": 79, "duration": 120}, {"note": 64, "velocity": 89, "duration": 228}, {"note": 70, "velocity": 93, "duration": 105}, {"note": 69, "velocity": 90, "duration": 246}, {"note": 0, "velocity": 0, "duration": 114}, {"note": 65, "velocity": 81, "duration": 232}, {"note": 62, "velocity": 81, "duration": 808}, {"note": 0, "velocity": 0, "duration": 15752}, {"note": 62, "velocity": 83, "duration": 53}, {"note": 0, "velocity": 0, "duration": 67}, {"note": 62, "velocity": 77, "duration": 47}, {"note": 0, "velocity": 0, "duration": 73}, {"note": 62, "velocity": 92, "duration": 205}, {"note": 74, "velocity": 97, "duration": 179}, {"note": 0, "velocity": 0, "duration": 61}, {"note": 74, "velocity": 93, "duration": 370}, {"note": 0, "velocity": 0, "duration": 830}, {"note": 74, "velocity": 112, "duration": 58}, {"note": 0, "velocity": 0, "duration": 62}, {"note": 74, "velocity": 96, "duration": 111}, {"note": 72, "velocity": 117, "duration": 252}, {"note": 76, "velocity": 95, "duration": 235}, {"note": 69, "velocity": 89, "duration": 246}, {"note": 0, "velocity": 0, "duration": 954}, {"note": 69, "velocity": 93, "duration": 61}, {"note": 69, "velocity": 85, "duration": 101}, {"note": 74, "velocity": 89, "duration": 157}, {"note": 0, "velocity": 0, "duration": 203}, {"note": 72, "velocity": 93, "duration": 117}, {"note": 70, "velocity": 79, "duration": 232}, {"note": 67, "velocity": 82, "duration": 416}, {"note": 0, "velocity": 0, "duration": 184}, {"note": 65, "velocity": 96, "duration": 107}, {"note": 64, "velocity": 74, "duration": 233}, {"note": 65, "velocity": 85, "duration": 122}, {"note": 67, "velocity": 86, "duration": 233}, {"note": 0, "velocity": 0, "duration": 127}, {"note": 72, "velocity": 100, "duration": 221}, {"note": 69, "velocity": 96, "duration": 805}, {"note": 0, "velocity": 0, "duration": 395}, {"note": 62, "velocity": 83, "duration": 64}, {"note": 62, "velocity": 86, "duration": 60}, {"note": 62, "velocity": 92, "duration": 207}, {"note": 74, "velocity": 96, "duration": 172}, {"note": 0, "velocity": 0, "duration": 68}, {"note": 74, "velocity": 99, "duration": 468}, {"note": 0, "velocity": 0, "duration": 732}, {"note": 74, "velocity": 89, "duration": 117}, {"note": 76, "velocity": 93, "duration": 166}, {"note": 77, "velocity": 96, "duration": 216}, {"note": 79, "velocity": 86, "duration": 170}, {"note": 0, "velocity": 0, "duration": 70}, {"note": 76, "velocity": 93, "duration": 228}, {"note": 69, "velocity": 70, "duration": 464}, {"note": 0, "velocity": 0, "duration": 496}, {"note": 69, "velocity": 86, "duration": 57}, {"note": 0, "velocity": 0, "duration": 63}, {"note": 69, "velocity": 75, "duration": 66}, {"note": 74, "velocity": 96, "duration": 162}, {"note": 0, "velocity": 0, "duration": 78}, {"note": 72, "velocity": 93, "duration": 145}, {"note": 0, "velocity": 0, "duration": 95}, {"note": 70, "velocity": 95, "duration": 200}, {"note": 67, "velocity": 92, "duration": 400}, {"note": 0, "velocity": 0, "duration": 320}, {"note": 72, "velocity": 97, "duration": 192}, {"note": 74, "velocity": 95, "duration": 97}, {"note": 76, "velocity": 92, "duration": 325}, {"note": 76, "velocity": 97, "duration": 226}, {"note": 81, "velocity": 112, "duration": 913}, {"note": 0, "velocity": 0, "duration": 8687}, {"note": 77, "velocity": 127, "duration": 400}, {"note": 0, "velocity": 0, "duration": 80}, {"note": 76, "velocity": 127, "duration": 231}, {"note": 74, "velocity": 117, "duration": 193}, {"note": 70, "velocity": 122, "duration": 587}, {"note": 0, "velocity": 0, "duration": 373}, {"note": 76, "velocity": 127, "duration": 373}, {"note": 0, "velocity": 0, "duration": 107}, {"note": 74, "velocity": 122, "duration": 239}, {"note": 72, "velocity": 107, "duration": 241}, {"note": 69, "velocity": 96, "duration": 567}, {"note": 0, "velocity": 0, "duration": 3513}, {"note": 62, "velocity": 83, "duration": 53}, {"note": 0, "velocity": 0, "duration": 67}, {"note": 62, "velocity": 77, "duration": 47}, {"note": 0, "velocity": 0, "duration": 73}, {"note": 62, "velocity": 92, "duration": 205}, {"note": 74, "velocity": 97, "duration": 179}, {"note": 0, "velocity": 0, "duration": 61}, {"note": 74, "velocity": 93, "duration": 370}, {"note": 0, "velocity": 0, "duration": 830}, {"note": 74, "velocity": 99, "duration": 75}, {"note": 74, "velocity": 96, "duration": 111}, {"note": 72, "velocity": 117, "duration": 252}, {"note": 76, "velocity": 95, "duration": 235}, {"note": 69, "velocity": 89, "duration": 246}, {"note": 0, "velocity": 0, "duration": 954}, {"note": 69, "velocity": 93, "duration": 61}, {"note": 69, "velocity": 85, "duration": 101}, {"note": 74, "velocity": 89, "duration": 157}, {"note": 0, "velocity": 0, "duration": 203}, {"note": 72, "velocity": 93, "duration": 117}, {"note": 70, "velocity": 79, "duration": 232}, {"note": 67, "velocity": 82, "duration": 416}, {"note": 0, "velocity": 0, "duration": 184}, {"note": 65, "velocity": 96, "duration": 107}, {"note": 64, "velocity": 74, "duration": 233}, {"note": 65, "velocity": 85, "duration": 122}, {"note": 67, "velocity": 86, "duration": 233}, {"note": 0, "velocity": 0, "duration": 127}, {"note": 70, "velocity": 100, "duration": 221}, {"note": 69, "velocity": 96, "duration": 805}, {"note": 0, "velocity": 0, "duration": 395}, {"note": 62, "velocity": 83, "duration": 64}, {"note": 62, "velocity": 86, "duration": 60}, {"note": 62, "velocity": 92, "duration": 207}, {"note": 74, "velocity": 96, "duration": 172}, {"note": 0, "velocity": 0, "duration": 68}, {"note": 74, "velocity": 99, "duration": 468}, {"note": 0, "velocity": 0, "duration": 732}, {"note": 74, "velocity": 89, "duration": 117}, {"note": 76, "velocity": 93, "duration": 166}, {"note": 77, "velocity": 96, "duration": 216}, {"note": 79, "velocity": 86, "duration": 170}, {"note": 0, "velocity": 0, "duration": 70}, {"note": 76, "velocity": 93, "duration": 228}, {"note": 69, "velocity": 70, "duration": 464}, {"note": 0, "velocity": 0, "duration": 496}, {"note": 69, "velocity": 86, "duration": 57}, {"note": 0, "velocity": 0, "duration": 63}, {"note": 69, "velocity": 75, "duration": 66}, {"note": 74, "velocity": 96, "duration": 162}, {"note": 0, "velocity": 0, "duration": 78}, {"note": 72, "velocity": 93, "duration": 145}, {"note": 0, "velocity": 0, "duration": 95}, {"note": 70, "velocity": 95, "duration": 200}, {"note": 67, "velocity": 92, "duration": 400}, {"note": 0, "velocity": 0, "duration": 320}, {"note": 72, "velocity": 97, "duration": 192}, {"note": 74, "velocity": 95, "duration": 97}, {"note": 76, "velocity": 92, "duration": 325}, {"note": 76, "velocity": 97, "duration": 226}, {"note": 81, "velocity": 112, "duration": 849}, {"note": 0, "velocity": 0, "duration": 2142}, {"note": 79, "velocity": 112, "duration": 138}, {"note": 77, "velocity": 70, "duration": 133}, {"note": 76, "velocity": 88, "duration": 638}, {"note": 0, "velocity": 0, "duration": 2379}, {"note": 62, "velocity": 90, "duration": 123}, {"note": 64, "velocity": 65, "duration": 130}, {"note": 65, "velocity": 77, "duration": 248}, {"note": 72, "velocity": 96, "duration": 214}, {"note": 70, "velocity": 100, "duration": 951}, {"note": 0, "velocity": 0, "duration": 249}, {"note": 60, "velocity": 82, "duration": 124}, {"note": 62, "velocity": 73, "duration": 136}, {"note": 64, "velocity": 78, "duration": 242}, {"note": 70, "velocity": 102, "duration": 272}, {"note": 69, "velocity": 95, "duration": 764}, {"note": 0, "velocity": 0, "duration": 436}, {"note": 69, "velocity": 85, "duration": 55}, {"note": 0, "velocity": 0, "duration": 65}, {"note": 69, "velocity": 83, "duration": 69}, {"note": 74, "velocity": 96, "duration": 163}, {"note": 0, "velocity": 0, "duration": 77}, {"note": 72, "velocity": 96, "duration": 87}, {"note": 70, "velocity": 92, "duration": 118}, {"note": 0, "velocity": 0, "duration": 122}, {"note": 67, "velocity": 90, "duration": 456}, {"note": 0, "velocity": 0, "duration": 264}, {"note": 65, "velocity": 79, "duration": 119}, {"note": 64, "velocity": 89, "duration": 227}, {"note": 70, "velocity": 93, "duration": 105}, {"note": 69, "velocity": 90, "duration": 245}, {"note": 0, "velocity": 0, "duration": 115}, {"note": 65, "velocity": 81, "duration": 232}, {"note": 62, "velocity": 81, "duration": 808}, {"note": 0, "velocity": 0, "duration": 368}, {"note": 69, "velocity": 92, "duration": 82}, {"note": 69, "velocity": 75, "duration": 72}, {"note": 74, "velocity": 99, "duration": 138}, {"note": 0, "velocity": 0, "duration": 100}, {"note": 72, "velocity": 89, "duration": 128}, {"note": 0, "velocity": 0, "duration": 154}, {"note": 70, "velocity": 97, "duration": 219}, {"note": 67, "velocity": 75, "duration": 431}, {"note": 0, "velocity": 0, "duration": 428}, {"note": 65, "velocity": 79, "duration": 174}, {"note": 64, "velocity": 75, "duration": 404}, {"note": 0, "velocity": 0, "duration": 136}, {"note": 69, "velocity": 95, "duration": 354}, {"note": 67, "velocity": 74, "duration": 854}, {"note": 0, "velocity": 0, "duration": 323}, {"note": 65, "velocity": 90, "duration": 791}, {"note": 62, "velocity": 72, "duration": 1244}]]