[[{"note": 68, "velocity": 87, "duration": 678}, {"note": 71, "velocity": 87, "duration": 235}, {"note": 68, "velocity": 87, "duration": 307}, {"note": 0, "velocity": 0, "duration": 173}, {"note": 63, "velocity": 87, "duration": 238}, {"note": 66, "velocity": 87, "duration": 229}, {"note": 68, "velocity": 87, "duration": 497}, {"note": 66, "velocity": 87, "duration": 1438}, {"note": 73, "velocity": 87, "duration": 684}, {"note": 75, "velocity": 87, "duration": 265}, {"note": 73, "velocity": 87, "duration": 477}, {"note": 68, "velocity": 87, "duration": 455}, {"note": 71, "velocity": 87, "duration": 465}, {"note": 68, "velocity": 87, "duration": 1182}, {"note": 71, "velocity": 85, "duration": 172}, {"note": 70, "velocity": 85, "duration": 251}, {"note": 68, "velocity": 85, "duration": 633}, {"note": 0, "velocity": 0, "duration": 87}, {"note": 66, "velocity": 85, "duration": 258}, {"note": 68, "velocity": 85, "duration": 174}, {"note": 0, "velocity": 0, "duration": 66}, {"note": 71, "velocity": 85, "duration": 185}, {"note": 59, "velocity": 85, "duration": 261}, {"note": 56, "velocity": 85, "duration": 194}, {"note": 0, "velocity": 0, "duration": 286}, {"note": 61, "velocity": 85, "duration": 1198}, {"note": 61, "velocity": 85, "duration": 273}, {"note": 63, "velocity": 85, "duration": 184}, {"note": 66, "velocity": 85, "duration": 442}, {"note": 58, "velocity": 85, "duration": 737}, {"note": 0, "velocity": 0, "duration": 223}, {"note": 58, "velocity": 85, "duration": 211}, {"note": 54, "velocity": 85, "duration": 256}, {"note": 56, "velocity": 85, "duration": 899}, {"note": 0, "velocity": 0, "duration": 1501}, {"note": 61, "velocity": 85, "duration": 238}, {"note": 63, "velocity": 85, "duration": 178}, {"note": 0, "velocity": 0, "duration": 62}, {"note": 66, "velocity": 85, "duration": 233}, {"note": 63, "velocity": 85, "duration": 238}, {"note": 61, "velocity": 85, "duration": 238}, {"note": 59, "velocity": 85, "duration": 238}, {"note": 61, "velocity": 85, "duration": 478}, {"note": 0, "velocity": 0, "duration": 242}, {"note": 63, "velocity": 85, "duration": 249}, {"note": 61, "velocity": 85, "duration": 550}, {"note": 0, "velocity": 0, "duration": 890}, {"note": 61, "velocity": 85, "duration": 208}, {"note": 63, "velocity": 85, "duration": 263}, {"note": 61, "velocity": 85, "duration": 222}, {"note": 59, "velocity": 85, "duration": 228}, {"note": 56, "velocity": 85, "duration": 253}, {"note": 66, "velocity": 85, "duration": 482}, {"note": 63, "velocity": 85, "duration": 921}, {"note": 0, "velocity": 0, "duration": 1239}, {"note": 61, "velocity": 85, "duration": 276}, {"note": 63, "velocity": 85, "duration": 209}, {"note": 66, "velocity": 85, "duration": 241}, {"note": 63, "velocity": 85, "duration": 259}, {"note": 61, "velocity": 85, "duration": 225}, {"note": 59, "velocity": 85, "duration": 348}, {"note": 61, "velocity": 85, "duration": 701}, {"note": 63, "velocity": 85, "duration": 203}, {"note": 56, "velocity": 85, "duration": 813}, {"note": 0, "velocity": 0, "duration": 627}, {"note": 61, "velocity": 85, "duration": 253}, {"note": 63, "velocity": 85, "duration": 272}, {"note": 61, "velocity": 85, "duration": 246}, {"note": 59, "velocity": 85, "duration": 237}, {"note": 56, "velocity": 85, "duration": 259}, {"note": 61, "velocity": 85, "duration": 482}, {"note": 59, "velocity": 85, "duration": 1141}, {"note": 0, "velocity": 0, "duration": 1019}, {"note": 61, "velocity": 85, "duration": 238}, {"note": 63, "velocity": 85, "duration": 178}, {"note": 0, "velocity": 0, "duration": 62}, {"note": 66, "velocity": 85, "duration": 233}, {"note": 63, "velocity": 85, "duration": 238}, {"note": 61, "velocity": 85, "duration": 238}, {"note": 59, "velocity": 85, "duration": 238}, {"note": 61, "velocity": 85, "duration": 478}, {"note": 0, "velocity": 0, "duration": 242}, {"note": 63, "velocity": 90, "duration": 249}, {"note": 56, "velocity": 90, "duration": 478}, {"note": 0, "velocity": 0, "duration": 962}, {"note": 61, "velocity": 90, "duration": 208}, {"note": 63, "velocity": 90, "duration": 263}, {"note": 61, "velocity": 90, "duration": 222}, {"note": 59, "velocity": 90, "duration": 228}, {"note": 56, "velocity": 90, "duration": 253}, {"note": 66, "velocity": 90, "duration": 482}, {"note": 63, "velocity": 90, "duration": 921}, {"note": 0, "velocity": 0, "duration": 1239}, {"note": 61, "velocity": 90, "duration": 276}, {"note": 63, "velocity": 90, "duration": 209}, {"note": 66, "velocity": 90, "duration": 241}, {"note": 63, "velocity": 90, "duration": 259}, {"note": 61, "velocity": 90, "duration": 225}, {"note": 59, "velocity": 90, "duration": 348}, {"note": 61, "velocity": 90, "duration": 701}, {"note": 63, "velocity": 90, "duration": 203}, {"note": 61, "velocity": 90, "duration": 813}, {"note": 0, "velocity": 0, "duration": 627}, {"note": 68, "velocity": 90, "duration": 253}, {"note": 66, "velocity": 90, "duration": 272}, {"note": 68, "velocity": 90, "duration": 246}, {"note": 71, "velocity": 90, "duration": 237}, {"note": 63, "velocity": 90, "duration": 259}, {"note": 66, "velocity": 90, "duration": 598}, {"note": 59, "velocity": 90, "duration": 1141}, {"note": 0, "velocity": 0, "duration": 539}, {"note": 66, "velocity": 90, "duration": 461}, {"note": 61, "velocity": 90, "duration": 527}, {"note": 63, "velocity": 90, "duration": 358}, {"note": 0, "velocity": 0, "duration": 122}, {"note": 71, "velocity": 92, "duration": 450}, {"note": 66, "velocity": 92, "duration": 511}, {"note": 68, "velocity": 92, "duration": 936}, {"note": 63, "velocity": 87, "duration": 473}, {"note": 61, "velocity": 87, "duration": 1132}, {"note": 0, "velocity": 0, "duration": 308}, {"note": 68, "velocity": 87, "duration": 473}, {"note": 66, "velocity": 87, "duration": 1735}, {"note": 0, "velocity": 0, "duration": 665}, {"note": 71, "velocity": 87, "duration": 256}, {"note": 70, "velocity": 87, "duration": 265}, {"note": 68, "velocity": 87, "duration": 700}, {"note": 66, "velocity": 87, "duration": 259}, {"note": 68, "velocity": 87, "duration": 178}, {"note": 0, "velocity": 0, "duration": 62}, {"note": 71, "velocity": 87, "duration": 271}, {"note": 68, "velocity": 87, "duration": 220}, {"note": 66, "velocity": 87, "duration": 174}, {"note": 0, "velocity": 0, "duration": 66}, {"note": 63, "velocity": 87, "duration": 1305}, {"note": 0, "velocity": 0, "duration": 135}, {"note": 56, "velocity": 87, "duration": 247}, {"note": 63, "velocity": 87, "duration": 211}, {"note": 61, "velocity": 87, "duration": 672}, {"note": 63, "velocity": 87, "duration": 247}, {"note": 61, "velocity": 87, "duration": 250}, {"note": 59, "velocity": 87, "duration": 252}, {"note": 56, "velocity": 87, "duration": 234}, {"note": 66, "velocity": 87, "duration": 247}, {"note": 63, "velocity": 87, "duration": 1325}, {"note": 0, "velocity": 0, "duration": 115}, {"note": 71, "velocity": 87, "duration": 294}, {"note": 70, "velocity": 87, "duration": 227}, {"note": 68, "velocity": 87, "duration": 745}, {"note": 66, "velocity": 87, "duration": 264}, {"note": 68, "velocity": 87, "duration": 200}, {"note": 71, "velocity": 87, "duration": 157}, {"note": 0, "velocity": 0, "duration": 83}, {"note": 59, "velocity": 87, "duration": 265}, {"note": 56, "velocity": 87, "duration": 231}, {"note": 61, "velocity": 87, "duration": 1177}, {"note": 0, "velocity": 0, "duration": 263}, {"note": 61, "velocity": 87, "duration": 261}, {"note": 63, "velocity": 87, "duration": 207}, {"note": 66, "velocity": 87, "duration": 407}, {"note": 0, "velocity": 0, "duration": 73}, {"note": 58, "velocity": 87, "duration": 809}, {"note": 0, "velocity": 0, "duration": 151}, {"note": 58, "velocity": 87, "duration": 222}, {"note": 54, "velocity": 87, "duration": 243}, {"note": 56, "velocity": 87, "duration": 1167}, {"note": 0, "velocity": 0, "duration": 16593}, {"note": 61, "velocity": 90, "duration": 238}, {"note": 63, "velocity": 90, "duration": 178}, {"note": 0, "velocity": 0, "duration": 62}, {"note": 66, "velocity": 90, "duration": 233}, {"note": 63, "velocity": 90, "duration": 238}, {"note": 61, "velocity": 90, "duration": 238}, {"note": 59, "velocity": 90, "duration": 238}, {"note": 61, "velocity": 90, "duration": 478}, {"note": 0, "velocity": 0, "duration": 242}, {"note": 63, "velocity": 90, "duration": 249}, {"note": 56, "velocity": 90, "duration": 478}, {"note": 0, "velocity": 0, "duration": 962}, {"note": 61, "velocity": 90, "duration": 208}, {"note": 63, "velocity": 90, "duration": 263}, {"note": 61, "velocity": 90, "duration": 222}, {"note": 59, "velocity": 90, "duration": 228}, {"note": 56, "velocity": 90, "duration": 253}, {"note": 66, "velocity": 90, "duration": 482}, {"note": 63, "velocity": 90, "duration": 921}, {"note": 0, "velocity": 0, "duration": 1239}, {"note": 61, "velocity": 90, "duration": 276}, {"note": 63, "velocity": 90, "duration": 209}, {"note": 66, "velocity": 90, "duration": 241}, {"note": 63, "velocity": 90, "duration": 259}, {"note": 61, "velocity": 90, "duration": 225}, {"note": 59, "velocity": 90, "duration": 348}, {"note": 61, "velocity": 90, "duration": 701}, {"note": 63, "velocity": 90, "duration": 203}, {"note": 61, "velocity": 90, "duration": 813}, {"note": 0, "velocity": 0, "duration": 627}, {"note": 68, "velocity": 90, "duration": 253}, {"note": 66, "velocity": 90, "duration": 272}, {"note": 68, "velocity": 90, "duration": 246}, {"note": 71, "velocity": 90, "duration": 237}, {"note": 63, "velocity": 90, "duration": 259}, {"note": 66, "velocity": 90, "duration": 598}, {"note": 59, "velocity": 90, "duration": 1141}, {"note": 0, "velocity": 0, "duration": 539}, {"note": 66, "velocity": 90, "duration": 461}, {"note": 61, "velocity": 90, "duration": 527}, {"note": 63, "velocity": 90, "duration": 358}, {"note": 0, "velocity": 0, "duration": 122}, {"note": 71, "velocity": 90, "duration": 450}, {"note": 66, "velocity": 90, "duration": 511}, {"note": 68, "velocity": 90, "duration": 936}, {"note": 63, "velocity": 90, "duration": 473}, {"note": 61, "velocity": 90, "duration": 1132}, {"note": 0, "velocity": 0, "duration": 308}, {"note": 68, "velocity": 90, "duration": 473}, {"note": 66, "velocity": 90, "duration": 1735}, {"note": 0, "velocity": 0, "duration": 665}, {"note": 71, "velocity": 90, "duration": 256}, {"note": 70, "velocity": 90, "duration": 265}, {"note": 68, "velocity": 90, "duration": 700}, {"note": 66, "velocity": 90, "duration": 259}, {"note": 68, "velocity": 90, "duration": 178}, {"note": 0, "velocity": 0, "duration": 62}, {"note": 71, "velocity": 90, "duration": 271}, {"note": 68, "velocity": 90, "duration": 220}, {"note": 66, "velocity": 90, "duration": 174}, {"note": 0, "velocity": 0, "duration": 66}, {"note": 63, "velocity": 90, "duration": 1305}, {"note": 0, "velocity": 0, "duration": 135}, {"note": 56, "velocity": 90, "duration": 247}, {"note": 63, "velocity": 90, "duration": 211}, {"note": 61, "velocity": 90, "duration": 672}, {"note": 63, "velocity": 90, "duration": 247}, {"note": 61, "velocity": 90, "duration": 250}, {"note": 59, "velocity": 90, "duration": 252}, {"note": 56, "velocity": 90, "duration": 234}, {"note": 66, "velocity": 90, "duration": 247}, {"note": 63, "velocity": 90, "duration": 1325}, {"note": 0, "velocity": 0, "duration": 115}, {"note": 71, "velocity": 90, "duration": 294}, {"note": 70, "velocity": 90, "duration": 227}, {"note": 68, "velocity": 90, "duration": 745}, {"note": 66, "velocity": 90, "duration": 264}, {"note": 68, "velocity": 90, "duration": 200}, {"note": 71, "velocity": 90, "duration": 157}, {"note": 0, "velocity": 0, "duration": 83}, {"note": 59, "velocity": 90, "duration": 265}, {"note": 56, "velocity": 90, "duration": 231}, {"note": 61, "velocity": 90, "duration": 1177}, {"note": 0, "velocity": 0, "duration": 263}, {"note": 61, "velocity": 90, "duration": 261}, {"note": 63, "velocity": 90, "duration": 207}, {"note": 66, "velocity": 90, "duration": 407}, {"note": 0, "velocity": 0, "duration": 73}, {"note": 58, "velocity": 90, "duration": 809}, {"note": 0, "velocity": 0, "duration": 151}, {"note": 58, "velocity": 90, "duration": 222}, {"note": 54, "velocity": 90, "duration": 243}, {"note": 56, "velocity": 90, "duration": 1167}, {"note": 0, "velocity": 0, "duration": 753}, {"note": 68, "velocity": 90, "duration": 480}, {"note": 0, "velocity": 0, "duration": 240}, {"note": 71, "velocity": 90, "duration": 245}, {"note": 68, "velocity": 90, "duration": 468}, {"note": 63, "velocity": 90, "duration": 238}, {"note": 66, "velocity": 90, "duration": 211}, {"note": 68, "velocity": 90, "duration": 463}, {"note": 66, "velocity": 90, "duration": 718}, {"note": 0, "velocity": 0, "duration": 722}, {"note": 73, "velocity": 90, "duration": 714}, {"note": 75, "velocity": 90, "duration": 226}, {"note": 73, "velocity": 90, "duration": 449}, {"note": 68, "velocity": 90, "duration": 469}, {"note": 70, "velocity": 90, "duration": 469}, {"note": 68, "velocity": 90, "duration": 1025}, {"note": 71, "velocity": 90, "duration": 256}, {"note": 70, "velocity": 90, "duration": 265}, {"note": 68, "velocity": 90, "duration": 700}, {"note": 66, "velocity": 90, "duration": 259}, {"note": 68, "velocity": 90, "duration": 178}, {"note": 0, "velocity": 0, "duration": 62}, {"note": 71, "velocity": 90, "duration": 271}, {"note": 68, "velocity": 90, "duration": 220}, {"note": 66, "velocity": 90, "duration": 174}, {"note": 0, "velocity": 0, "duration": 66}, {"note": 63, "velocity": 90, "duration": 1305}, {"note": 0, "velocity": 0, "duration": 135}, {"note": 56, "velocity": 90, "duration": 247}, {"note": 63, "velocity": 90, "duration": 211}, {"note": 61, "velocity": 90, "duration": 672}, {"note": 63, "velocity": 90, "duration": 247}, {"note": 61, "velocity": 90, "duration": 250}, {"note": 59, "velocity": 90, "duration": 252}, {"note": 56, "velocity": 90, "duration": 234}, {"note": 66, "velocity": 90, "duration": 247}, {"note": 63, "velocity": 90, "duration": 1325}, {"note": 0, "velocity": 0, "duration": 115}, {"note": 71, "velocity": 90, "duration": 294}, {"note": 70, "velocity": 90, "duration": 227}, {"note": 68, "velocity": 90, "duration": 745}, {"note": 66, "velocity": 90, "duration": 264}, {"note": 68, "velocity": 90, "duration": 200}, {"note": 71, "velocity": 90, "duration": 157}, {"note": 0, "velocity": 0, "duration": 83}, {"note": 59, "velocity": 90, "duration": 265}, {"note": 56, "velocity": 90, "duration": 231}, {"note": 61, "velocity": 90, "duration": 1177}, {"note": 0, "velocity": 0, "duration": 263}, {"note": 61, "velocity": 90, "duration": 261}, {"note": 63, "velocity": 90, "duration": 207}, {"note": 66, "velocity": 90, "duration": 407}, {"note": 0, "velocity": 0, "duration": 73}, {"note": 58, "velocity": 90, "duration": 809}, {"note": 0, "velocity": 0, "duration": 151}, {"note": 58, "velocity": 90, "duration": 222}, {"note": 54, "velocity": 90, "duration": 243}, {"note": 56, "velocity": 90, "duration": 478}, {"note": 68, "velocity": 90, "duration": 609}, {"note": 0, "velocity": 0, "duration": 111}, {"note": 71, "velocity": 90, "duration": 212}, {"note": 68, "velocity": 90, "duration": 435}, {"note": 63, "velocity": 90, "duration": 263}, {"note": 66, "velocity": 90, "duration": 216}, {"note": 68, "velocity": 90, "duration": 501}, {"note": 66, "velocity": 90, "duration": 960}, {"note": 0, "velocity": 0, "duration": 480}, {"note": 73, "velocity": 90, "duration": 689}, {"note": 75, "velocity": 90, "duration": 226}, {"note": 73, "velocity": 90, "duration": 474}, {"note": 68, "velocity": 90, "duration": 265}, {"note": 71, "velocity": 90, "duration": 245}, {"note": 73, "velocity": 90, "duration": 480}, {"note": 68, "velocity": 90, "duration": 913}, {"note": 0, "velocity": 0, "duration": 527}, {"note": 68, "velocity": 90, "duration": 640}, {"note": 0, "velocity": 0, "duration": 80}, {"note": 71, "velocity": 90, "duration": 209}, {"note": 68, "velocity": 90, "duration": 488}, {"note": 63, "velocity": 90, "duration": 250}, {"note": 66, "velocity": 90, "duration": 227}, {"note": 68, "velocity": 90, "duration": 503}, {"note": 66, "velocity": 90, "duration": 964}, {"note": 0, "velocity": 0, "duration": 476}, {"note": 73, "velocity": 90, "duration": 676}, {"note": 75, "velocity": 92, "duration": 223}, {"note": 73, "velocity": 92, "duration": 464}, {"note": 68, "velocity": 92, "duration": 248}, {"note": 71, "velocity": 92, "duration": 252}, {"note": 73, "velocity": 92, "duration": 464}, {"note": 68, "velocity": 92, "duration": 1596}]]