[[{"note": 64, "velocity": 85, "duration": 238}, {"note": 0, "velocity": 0, "duration": 242}, {"note": 64, "velocity": 85, "duration": 135}, {"note": 0, "velocity": 0, "duration": 345}, {"note": 64, "velocity": 85, "duration": 170}, {"note": 0, "velocity": 0, "duration": 70}, {"note": 55, "velocity": 85, "duration": 142}, {"note": 0, "velocity": 0, "duration": 98}, {"note": 57, "velocity": 85, "duration": 178}, {"note": 0, "velocity": 0, "duration": 62}, {"note": 55, "velocity": 85, "duration": 126}, {"note": 0, "velocity": 0, "duration": 114}, {"note": 64, "velocity": 85, "duration": 98}, {"note": 0, "velocity": 0, "duration": 142}, {"note": 64, "velocity": 85, "duration": 128}, {"note": 0, "velocity": 0, "duration": 352}, {"note": 64, "velocity": 85, "duration": 193}, {"note": 0, "velocity": 0, "duration": 287}, {"note": 55, "velocity": 85, "duration": 254}, {"note": 57, "velocity": 85, "duration": 144}, {"note": 0, "velocity": 0, "duration": 96}, {"note": 60, "velocity": 85, "duration": 177}, {"note": 0, "velocity": 0, "duration": 63}, {"note": 62, "velocity": 85, "duration": 333}, {"note": 0, "velocity": 0, "duration": 147}, {"note": 64, "velocity": 85, "duration": 409}, {"note": 0, "velocity": 0, "duration": 71}, {"note": 62, "velocity": 85, "duration": 284}, {"note": 60, "velocity": 85, "duration": 416}, {"note": 0, "velocity": 0, "duration": 64}, {"note": 57, "velocity": 85, "duration": 931}, {"note": 0, "velocity": 0, "duration": 1229}, {"note": 65, "velocity": 85, "duration": 201}, {"note": 0, "velocity": 0, "duration": 279}, {"note": 65, "velocity": 85, "duration": 192}, {"note": 0, "velocity": 0, "duration": 288}, {"note": 65, "velocity": 85, "duration": 198}, {"note": 55, "velocity": 85, "duration": 260}, {"note": 57, "velocity": 85, "duration": 188}, {"note": 55, "velocity": 85, "duration": 238}, {"note": 62, "velocity": 85, "duration": 238}, {"note": 64, "velocity": 85, "duration": 307}, {"note": 0, "velocity": 0, "duration": 173}, {"note": 64, "velocity": 85, "duration": 661}, {"note": 60, "velocity": 85, "duration": 248}, {"note": 62, "velocity": 85, "duration": 253}, {"note": 64, "velocity": 85, "duration": 190}, {"note": 67, "velocity": 85, "duration": 381}, {"note": 0, "velocity": 0, "duration": 99}, {"note": 69, "velocity": 85, "duration": 413}, {"note": 0, "velocity": 0, "duration": 67}, {"note": 67, "velocity": 85, "duration": 216}, {"note": 64, "velocity": 85, "duration": 466}, {"note": 62, "velocity": 85, "duration": 1234}, {"note": 0, "velocity": 0, "duration": 926}, {"note": 64, "velocity": 85, "duration": 238}, {"note": 0, "velocity": 0, "duration": 242}, {"note": 64, "velocity": 85, "duration": 135}, {"note": 0, "velocity": 0, "duration": 345}, {"note": 64, "velocity": 85, "duration": 170}, {"note": 0, "velocity": 0, "duration": 70}, {"note": 55, "velocity": 85, "duration": 142}, {"note": 0, "velocity": 0, "duration": 98}, {"note": 57, "velocity": 85, "duration": 178}, {"note": 0, "velocity": 0, "duration": 62}, {"note": 55, "velocity": 85, "duration": 126}, {"note": 0, "velocity": 0, "duration": 114}, {"note": 64, "velocity": 85, "duration": 98}, {"note": 0, "velocity": 0, "duration": 142}, {"note": 64, "velocity": 85, "duration": 128}, {"note": 0, "velocity": 0, "duration": 352}, {"note": 64, "velocity": 85, "duration": 193}, {"note": 0, "velocity": 0, "duration": 287}, {"note": 55, "velocity": 87, "duration": 254}, {"note": 57, "velocity": 87, "duration": 144}, {"note": 0, "velocity": 0, "duration": 96}, {"note": 60, "velocity": 87, "duration": 177}, {"note": 0, "velocity": 0, "duration": 63}, {"note": 62, "velocity": 87, "duration": 333}, {"note": 0, "velocity": 0, "duration": 147}, {"note": 64, "velocity": 87, "duration": 409}, {"note": 0, "velocity": 0, "duration": 71}, {"note": 62, "velocity": 87, "duration": 284}, {"note": 60, "velocity": 87, "duration": 416}, {"note": 0, "velocity": 0, "duration": 64}, {"note": 57, "velocity": 87, "duration": 931}, {"note": 0, "velocity": 0, "duration": 1229}, {"note": 65, "velocity": 87, "duration": 201}, {"note": 0, "velocity": 0, "duration": 279}, {"note": 65, "velocity": 87, "duration": 192}, {"note": 0, "velocity": 0, "duration": 288}, {"note": 65, "velocity": 87, "duration": 198}, {"note": 55, "velocity": 87, "duration": 260}, {"note": 57, "velocity": 87, "duration": 188}, {"note": 55, "velocity": 87, "duration": 238}, {"note": 62, "velocity": 87, "duration": 238}, {"note": 64, "velocity": 90, "duration": 307}, {"note": 0, "velocity": 0, "duration": 173}, {"note": 64, "velocity": 90, "duration": 661}, {"note": 60, "velocity": 90, "duration": 248}, {"note": 62, "velocity": 90, "duration": 253}, {"note": 64, "velocity": 90, "duration": 190}, {"note": 69, "velocity": 90, "duration": 381}, {"note": 0, "velocity": 0, "duration": 99}, {"note": 67, "velocity": 90, "duration": 413}, {"note": 0, "velocity": 0, "duration": 67}, {"note": 64, "velocity": 90, "duration": 216}, {"note": 62, "velocity": 90, "duration": 466}, {"note": 60, "velocity": 90, "duration": 1198}, {"note": 0, "velocity": 0, "duration": 242}, {"note": 60, "velocity": 90, "duration": 292}, {"note": 64, "velocity": 90, "duration": 271}, {"note": 67, "velocity": 90, "duration": 238}, {"note": 69, "velocity": 90, "duration": 521}, {"note": 0, "velocity": 0, "duration": 439}, {"note": 69, "velocity": 90, "duration": 541}, {"note": 0, "velocity": 0, "duration": 419}, {"note": 69, "velocity": 90, "duration": 248}, {"note": 67, "velocity": 90, "duration": 205}, {"note": 65, "velocity": 90, "duration": 197}, {"note": 69, "velocity": 90, "duration": 508}, {"note": 69, "velocity": 90, "duration": 28}, {"note": 0, "velocity": 0, "duration": 212}, {"note": 69, "velocity": 90, "duration": 84}, {"note": 0, "velocity": 0, "duration": 156}, {"note": 69, "velocity": 90, "duration": 144}, {"note": 0, "velocity": 0, "duration": 96}, {"note": 67, "velocity": 90, "duration": 574}, {"note": 0, "velocity": 0, "duration": 386}, {"note": 67, "velocity": 90, "duration": 632}, {"note": 0, "velocity": 0, "duration": 328}, {"note": 67, "velocity": 90, "duration": 240}, {"note": 65, "velocity": 90, "duration": 238}, {"note": 64, "velocity": 90, "duration": 272}, {"note": 67, "velocity": 90, "duration": 238}, {"note": 0, "velocity": 0, "duration": 242}, {"note": 60, "velocity": 90, "duration": 292}, {"note": 64, "velocity": 90, "duration": 271}, {"note": 67, "velocity": 90, "duration": 238}, {"note": 69, "velocity": 90, "duration": 521}, {"note": 0, "velocity": 0, "duration": 439}, {"note": 69, "velocity": 90, "duration": 541}, {"note": 0, "velocity": 0, "duration": 419}, {"note": 69, "velocity": 90, "duration": 248}, {"note": 67, "velocity": 90, "duration": 205}, {"note": 65, "velocity": 90, "duration": 197}, {"note": 69, "velocity": 90, "duration": 508}, {"note": 69, "velocity": 90, "duration": 28}, {"note": 0, "velocity": 0, "duration": 212}, {"note": 69, "velocity": 90, "duration": 138}, {"note": 0, "velocity": 0, "duration": 102}, {"note": 72, "velocity": 90, "duration": 140}, {"note": 0, "velocity": 0, "duration": 100}, {"note": 74, "velocity": 90, "duration": 169}, {"note": 0, "velocity": 0, "duration": 311}, {"note": 74, "velocity": 90, "duration": 181}, {"note": 0, "velocity": 0, "duration": 299}, {"note": 74, "velocity": 90, "duration": 218}, {"note": 72, "velocity": 90, "duration": 217}, {"note": 71, "velocity": 90, "duration": 234}, {"note": 69, "velocity": 90, "duration": 180}, {"note": 71, "velocity": 90, "duration": 198}, {"note": 67, "velocity": 90, "duration": 1546}, {"note": 0, "velocity": 0, "duration": 2054}, {"note": 64, "velocity": 90, "duration": 238}, {"note": 0, "velocity": 0, "duration": 242}, {"note": 64, "velocity": 90, "duration": 135}, {"note": 0, "velocity": 0, "duration": 345}, {"note": 64, "velocity": 90, "duration": 170}, {"note": 0, "velocity": 0, "duration": 70}, {"note": 55, "velocity": 90, "duration": 142}, {"note": 0, "velocity": 0, "duration": 98}, {"note": 57, "velocity": 90, "duration": 178}, {"note": 0, "velocity": 0, "duration": 62}, {"note": 55, "velocity": 90, "duration": 126}, {"note": 0, "velocity": 0, "duration": 114}, {"note": 64, "velocity": 90, "duration": 98}, {"note": 0, "velocity": 0, "duration": 142}, {"note": 64, "velocity": 90, "duration": 128}, {"note": 0, "velocity": 0, "duration": 352}, {"note": 64, "velocity": 90, "duration": 193}, {"note": 0, "velocity": 0, "duration": 287}, {"note": 55, "velocity": 90, "duration": 254}, {"note": 57, "velocity": 90, "duration": 144}, {"note": 0, "velocity": 0, "duration": 96}, {"note": 60, "velocity": 90, "duration": 177}, {"note": 0, "velocity": 0, "duration": 63}, {"note": 62, "velocity": 90, "duration": 333}, {"note": 0, "velocity": 0, "duration": 147}, {"note": 64, "velocity": 90, "duration": 409}, {"note": 0, "velocity": 0, "duration": 71}, {"note": 62, "velocity": 90, "duration": 284}, {"note": 60, "velocity": 90, "duration": 416}, {"note": 0, "velocity": 0, "duration": 64}, {"note": 57, "velocity": 90, "duration": 931}, {"note": 0, "velocity": 0, "duration": 1229}, {"note": 65, "velocity": 90, "duration": 201}, {"note": 0, "velocity": 0, "duration": 279}, {"note": 65, "velocity": 90, "duration": 192}, {"note": 0, "velocity": 0, "duration": 288}, {"note": 65, "velocity": 90, "duration": 198}, {"note": 55, "velocity": 90, "duration": 260}, {"note": 57, "velocity": 90, "duration": 188}, {"note": 55, "velocity": 90, "duration": 238}, {"note": 62, "velocity": 90, "duration": 238}, {"note": 64, "velocity": 90, "duration": 307}, {"note": 0, "velocity": 0, "duration": 173}, {"note": 64, "velocity": 87, "duration": 661}, {"note": 60, "velocity": 87, "duration": 248}, {"note": 62, "velocity": 87, "duration": 253}, {"note": 64, "velocity": 87, "duration": 190}, {"note": 67, "velocity": 87, "duration": 381}, {"note": 0, "velocity": 0, "duration": 99}, {"note": 69, "velocity": 87, "duration": 413}, {"note": 0, "velocity": 0, "duration": 67}, {"note": 64, "velocity": 87, "duration": 216}, {"note": 62, "velocity": 87, "duration": 466}, {"note": 60, "velocity": 87, "duration": 1234}, {"note": 0, "velocity": 0, "duration": 16286}, {"note": 64, "velocity": 83, "duration": 238}, {"note": 0, "velocity": 0, "duration": 242}, {"note": 64, "velocity": 83, "duration": 135}, {"note": 0, "velocity": 0, "duration": 345}, {"note": 64, "velocity": 83, "duration": 170}, {"note": 0, "velocity": 0, "duration": 70}, {"note": 55, "velocity": 83, "duration": 142}, {"note": 0, "velocity": 0, "duration": 98}, {"note": 57, "velocity": 83, "duration": 178}, {"note": 0, "velocity": 0, "duration": 62}, {"note": 55, "velocity": 83, "duration": 126}, {"note": 0, "velocity": 0, "duration": 114}, {"note": 64, "velocity": 83, "duration": 98}, {"note": 0, "velocity": 0, "duration": 142}, {"note": 64, "velocity": 83, "duration": 128}, {"note": 0, "velocity": 0, "duration": 352}, {"note": 64, "velocity": 83, "duration": 193}, {"note": 0, "velocity": 0, "duration": 287}, {"note": 55, "velocity": 83, "duration": 254}, {"note": 57, "velocity": 83, "duration": 144}, {"note": 0, "velocity": 0, "duration": 96}, {"note": 60, "velocity": 83, "duration": 177}, {"note": 0, "velocity": 0, "duration": 63}, {"note": 62, "velocity": 83, "duration": 333}, {"note": 0, "velocity": 0, "duration": 147}, {"note": 64, "velocity": 83, "duration": 409}, {"note": 0, "velocity": 0, "duration": 71}, {"note": 62, "velocity": 83, "duration": 284}, {"note": 60, "velocity": 83, "duration": 416}, {"note": 0, "velocity": 0, "duration": 64}, {"note": 57, "velocity": 83, "duration": 931}, {"note": 0, "velocity": 0, "duration": 1229}, {"note": 65, "velocity": 83, "duration": 201}, {"note": 0, "velocity": 0, "duration": 279}, {"note": 65, "velocity": 83, "duration": 192}, {"note": 0, "velocity": 0, "duration": 288}, {"note": 65, "velocity": 83, "duration": 198}, {"note": 55, "velocity": 83, "duration": 260}, {"note": 57, "velocity": 83, "duration": 188}, {"note": 55, "velocity": 83, "duration": 238}, {"note": 62, "velocity": 83, "duration": 238}, {"note": 64, "velocity": 83, "duration": 307}, {"note": 0, "velocity": 0, "duration": 173}, {"note": 64, "velocity": 83, "duration": 661}, {"note": 60, "velocity": 83, "duration": 248}, {"note": 62, "velocity": 83, "duration": 253}, {"note": 64, "velocity": 83, "duration": 190}, {"note": 67, "velocity": 83, "duration": 381}, {"note": 0, "velocity": 0, "duration": 99}, {"note": 69, "velocity": 83, "duration": 413}, {"note": 0, "velocity": 0, "duration": 67}, {"note": 67, "velocity": 83, "duration": 216}, {"note": 64, "velocity": 83, "duration": 466}, {"note": 62, "velocity": 83, "duration": 1234}, {"note": 0, "velocity": 0, "duration": 926}, {"note": 64, "velocity": 83, "duration": 238}, {"note": 0, "velocity": 0, "duration": 242}, {"note": 64, "velocity": 83, "duration": 135}, {"note": 0, "velocity": 0, "duration": 345}, {"note": 64, "velocity": 83, "duration": 170}, {"note": 0, "velocity": 0, "duration": 70}, {"note": 55, "velocity": 83, "duration": 142}, {"note": 0, "velocity": 0, "duration": 98}, {"note": 57, "velocity": 83, "duration": 178}, {"note": 0, "velocity": 0, "duration": 62}, {"note": 55, "velocity": 83, "duration": 126}, {"note": 0, "velocity": 0, "duration": 114}, {"note": 64, "velocity": 83, "duration": 98}, {"note": 0, "velocity": 0, "duration": 142}, {"note": 64, "velocity": 83, "duration": 128}, {"note": 0, "velocity": 0, "duration": 352}, {"note": 64, "velocity": 83, "duration": 193}, {"note": 0, "velocity": 0, "duration": 287}, {"note": 55, "velocity": 83, "duration": 254}, {"note": 57, "velocity": 83, "duration": 144}, {"note": 0, "velocity": 0, "duration": 96}, {"note": 60, "velocity": 83, "duration": 177}, {"note": 0, "velocity": 0, "duration": 63}, {"note": 62, "velocity": 83, "duration": 333}, {"note": 0, "velocity": 0, "duration": 147}, {"note": 64, "velocity": 83, "duration": 409}, {"note": 0, "velocity": 0, "duration": 71}, {"note": 62, "velocity": 83, "duration": 284}, {"note": 60, "velocity": 83, "duration": 416}, {"note": 0, "velocity": 0, "duration": 64}, {"note": 57, "velocity": 83, "duration": 931}, {"note": 0, "velocity": 0, "duration": 1229}, {"note": 65, "velocity": 83, "duration": 201}, {"note": 0, "velocity": 0, "duration": 279}, {"note": 65, "velocity": 83, "duration": 192}, {"note": 0, "velocity": 0, "duration": 288}, {"note": 65, "velocity": 83, "duration": 198}, {"note": 55, "velocity": 83, "duration": 260}, {"note": 57, "velocity": 83, "duration": 188}, {"note": 55, "velocity": 83, "duration": 238}, {"note": 62, "velocity": 83, "duration": 238}, {"note": 64, "velocity": 83, "duration": 307}, {"note": 0, "velocity": 0, "duration": 173}, {"note": 64, "velocity": 83, "duration": 661}, {"note": 60, "velocity": 83, "duration": 248}, {"note": 62, "velocity": 83, "duration": 253}, {"note": 64, "velocity": 83, "duration": 190}, {"note": 69, "velocity": 83, "duration": 381}, {"note": 0, "velocity": 0, "duration": 99}, {"note": 67, "velocity": 83, "duration": 413}, {"note": 0, "velocity": 0, "duration": 67}, {"note": 64, "velocity": 83, "duration": 216}, {"note": 62, "velocity": 83, "duration": 466}, {"note": 60, "velocity": 83, "duration": 1198}, {"note": 0, "velocity": 0, "duration": 242}, {"note": 60, "velocity": 83, "duration": 292}, {"note": 64, "velocity": 83, "duration": 271}, {"note": 67, "velocity": 83, "duration": 238}, {"note": 69, "velocity": 83, "duration": 521}, {"note": 0, "velocity": 0, "duration": 439}, {"note": 69, "velocity": 83, "duration": 541}, {"note": 0, "velocity": 0, "duration": 419}, {"note": 69, "velocity": 83, "duration": 248}, {"note": 67, "velocity": 83, "duration": 205}, {"note": 65, "velocity": 85, "duration": 197}, {"note": 69, "velocity": 83, "duration": 364}, {"note": 0, "velocity": 0, "duration": 116}, {"note": 69, "velocity": 83, "duration": 89}, {"note": 0, "velocity": 0, "duration": 151}, {"note": 69, "velocity": 83, "duration": 84}, {"note": 0, "velocity": 0, "duration": 156}, {"note": 72, "velocity": 83, "duration": 144}, {"note": 0, "velocity": 0, "duration": 96}, {"note": 67, "velocity": 80, "duration": 574}, {"note": 0, "velocity": 0, "duration": 386}, {"note": 67, "velocity": 80, "duration": 632}, {"note": 0, "velocity": 0, "duration": 328}, {"note": 67, "velocity": 80, "duration": 240}, {"note": 65, "velocity": 80, "duration": 238}, {"note": 64, "velocity": 80, "duration": 272}, {"note": 67, "velocity": 80, "duration": 238}, {"note": 0, "velocity": 0, "duration": 242}, {"note": 60, "velocity": 78, "duration": 292}, {"note": 64, "velocity": 78, "duration": 271}, {"note": 67, "velocity": 78, "duration": 238}, {"note": 69, "velocity": 80, "duration": 521}, {"note": 0, "velocity": 0, "duration": 439}, {"note": 69, "velocity": 80, "duration": 541}, {"note": 0, "velocity": 0, "duration": 419}, {"note": 69, "velocity": 80, "duration": 248}, {"note": 67, "velocity": 80, "duration": 205}, {"note": 65, "velocity": 80, "duration": 197}, {"note": 69, "velocity": 80, "duration": 508}, {"note": 69, "velocity": 80, "duration": 28}, {"note": 0, "velocity": 0, "duration": 212}, {"note": 69, "velocity": 80, "duration": 138}, {"note": 0, "velocity": 0, "duration": 102}, {"note": 72, "velocity": 80, "duration": 140}, {"note": 0, "velocity": 0, "duration": 100}, {"note": 74, "velocity": 80, "duration": 169}, {"note": 0, "velocity": 0, "duration": 311}, {"note": 74, "velocity": 80, "duration": 181}, {"note": 0, "velocity": 0, "duration": 299}, {"note": 74, "velocity": 80, "duration": 218}, {"note": 72, "velocity": 80, "duration": 217}, {"note": 71, "velocity": 80, "duration": 234}, {"note": 69, "velocity": 80, "duration": 180}, {"note": 71, "velocity": 80, "duration": 198}, {"note": 67, "velocity": 83, "duration": 1546}, {"note": 0, "velocity": 0, "duration": 2054}, {"note": 64, "velocity": 83, "duration": 238}, {"note": 0, "velocity": 0, "duration": 242}, {"note": 64, "velocity": 83, "duration": 135}, {"note": 0, "velocity": 0, "duration": 345}, {"note": 64, "velocity": 83, "duration": 170}, {"note": 0, "velocity": 0, "duration": 70}, {"note": 55, "velocity": 83, "duration": 142}, {"note": 0, "velocity": 0, "duration": 98}, {"note": 57, "velocity": 83, "duration": 178}, {"note": 0, "velocity": 0, "duration": 62}, {"note": 55, "velocity": 87, "duration": 126}, {"note": 0, "velocity": 0, "duration": 114}, {"note": 64, "velocity": 87, "duration": 98}, {"note": 0, "velocity": 0, "duration": 142}, {"note": 64, "velocity": 87, "duration": 128}, {"note": 0, "velocity": 0, "duration": 352}, {"note": 64, "velocity": 85, "duration": 193}, {"note": 0, "velocity": 0, "duration": 287}, {"note": 55, "velocity": 85, "duration": 254}, {"note": 57, "velocity": 85, "duration": 144}, {"note": 0, "velocity": 0, "duration": 96}, {"note": 60, "velocity": 85, "duration": 177}, {"note": 0, "velocity": 0, "duration": 63}, {"note": 62, "velocity": 85, "duration": 333}, {"note": 0, "velocity": 0, "duration": 147}, {"note": 64, "velocity": 85, "duration": 409}, {"note": 0, "velocity": 0, "duration": 71}, {"note": 62, "velocity": 85, "duration": 284}, {"note": 60, "velocity": 85, "duration": 416}, {"note": 0, "velocity": 0, "duration": 64}, {"note": 57, "velocity": 85, "duration": 931}, {"note": 0, "velocity": 0, "duration": 1229}, {"note": 65, "velocity": 85, "duration": 201}, {"note": 0, "velocity": 0, "duration": 279}, {"note": 65, "velocity": 85, "duration": 192}, {"note": 0, "velocity": 0, "duration": 288}, {"note": 65, "velocity": 85, "duration": 198}, {"note": 55, "velocity": 85, "duration": 260}, {"note": 57, "velocity": 85, "duration": 188}, {"note": 55, "velocity": 85, "duration": 238}, {"note": 62, "velocity": 85, "duration": 238}, {"note": 64, "velocity": 85, "duration": 307}, {"note": 0, "velocity": 0, "duration": 173}, {"note": 64, "velocity": 85, "duration": 661}, {"note": 60, "velocity": 85, "duration": 248}, {"note": 62, "velocity": 85, "duration": 253}, {"note": 64, "velocity": 85, "duration": 190}, {"note": 67, "velocity": 83, "duration": 381}, {"note": 0, "velocity": 0, "duration": 99}, {"note": 69, "velocity": 83, "duration": 413}, {"note": 0, "velocity": 0, "duration": 67}, {"note": 64, "velocity": 83, "duration": 216}, {"note": 62, "velocity": 83, "duration": 466}, {"note": 60, "velocity": 83, "duration": 1234}]]