[[{"note": 69, "velocity": 90, "duration": 521}, {"note": 70, "velocity": 90, "duration": 651}, {"note": 0, "velocity": 0, "duration": 69}, {"note": 69, "velocity": 90, "duration": 367}, {"note": 0, "velocity": 0, "duration": 116}, {"note": 69, "velocity": 90, "duration": 238}, {"note": 70, "velocity": 90, "duration": 218}, {"note": 69, "velocity": 90, "duration": 512}, {"note": 65, "velocity": 90, "duration": 296}, {"note": 0, "velocity": 0, "duration": 171}, {"note": 67, "velocity": 90, "duration": 756}, {"note": 62, "velocity": 90, "duration": 760}, {"note": 60, "velocity": 90, "duration": 492}, {"note": 62, "velocity": 90, "duration": 925}, {"note": 0, "velocity": 0, "duration": 1700}, {"note": 69, "velocity": 90, "duration": 164}, {"note": 0, "velocity": 0, "duration": 91}, {"note": 69, "velocity": 90, "duration": 247}, {"note": 70, "velocity": 85, "duration": 658}, {"note": 69, "velocity": 85, "duration": 356}, {"note": 0, "velocity": 0, "duration": 124}, {"note": 69, "velocity": 85, "duration": 240}, {"note": 70, "velocity": 85, "duration": 186}, {"note": 69, "velocity": 85, "duration": 468}, {"note": 65, "velocity": 85, "duration": 274}, {"note": 0, "velocity": 0, "duration": 203}, {"note": 67, "velocity": 85, "duration": 745}, {"note": 70, "velocity": 85, "duration": 1435}, {"note": 0, "velocity": 0, "duration": 1445}, {"note": 74, "velocity": 85, "duration": 143}, {"note": 0, "velocity": 0, "duration": 97}, {"note": 74, "velocity": 85, "duration": 246}, {"note": 72, "velocity": 85, "duration": 167}, {"note": 0, "velocity": 0, "duration": 73}, {"note": 72, "velocity": 85, "duration": 186}, {"note": 70, "velocity": 85, "duration": 163}, {"note": 0, "velocity": 0, "duration": 77}, {"note": 72, "velocity": 85, "duration": 505}, {"note": 70, "velocity": 85, "duration": 142}, {"note": 0, "velocity": 0, "duration": 98}, {"note": 70, "velocity": 85, "duration": 495}, {"note": 67, "velocity": 85, "duration": 1291}, {"note": 0, "velocity": 0, "duration": 149}, {"note": 74, "velocity": 85, "duration": 67}, {"note": 0, "velocity": 0, "duration": 173}, {"note": 74, "velocity": 85, "duration": 140}, {"note": 0, "velocity": 0, "duration": 100}, {"note": 72, "velocity": 85, "duration": 119}, {"note": 0, "velocity": 0, "duration": 121}, {"note": 72, "velocity": 85, "duration": 121}, {"note": 0, "velocity": 0, "duration": 119}, {"note": 70, "velocity": 85, "duration": 98}, {"note": 0, "velocity": 0, "duration": 142}, {"note": 72, "velocity": 85, "duration": 451}, {"note": 70, "velocity": 85, "duration": 89}, {"note": 0, "velocity": 0, "duration": 151}, {"note": 70, "velocity": 85, "duration": 444}, {"note": 65, "velocity": 85, "duration": 1308}, {"note": 0, "velocity": 0, "duration": 132}, {"note": 74, "velocity": 85, "duration": 77}, {"note": 0, "velocity": 0, "duration": 163}, {"note": 74, "velocity": 85, "duration": 169}, {"note": 0, "velocity": 0, "duration": 71}, {"note": 72, "velocity": 85, "duration": 94}, {"note": 0, "velocity": 0, "duration": 146}, {"note": 72, "velocity": 85, "duration": 155}, {"note": 0, "velocity": 0, "duration": 85}, {"note": 70, "velocity": 85, "duration": 467}, {"note": 67, "velocity": 85, "duration": 705}, {"note": 74, "velocity": 85, "duration": 316}, {"note": 72, "velocity": 85, "duration": 290}, {"note": 0, "velocity": 0, "duration": 70}, {"note": 70, "velocity": 85, "duration": 423}, {"note": 67, "velocity": 85, "duration": 667}, {"note": 62, "velocity": 85, "duration": 459}, {"note": 65, "velocity": 85, "duration": 977}, {"note": 0, "velocity": 0, "duration": 3103}, {"note": 70, "velocity": 85, "duration": 76}, {"note": 0, "velocity": 0, "duration": 164}, {"note": 70, "velocity": 85, "duration": 92}, {"note": 0, "velocity": 0, "duration": 148}, {"note": 70, "velocity": 85, "duration": 568}, {"note": 0, "velocity": 0, "duration": 152}, {"note": 69, "velocity": 85, "duration": 400}, {"note": 0, "velocity": 0, "duration": 80}, {"note": 70, "velocity": 85, "duration": 421}, {"note": 69, "velocity": 85, "duration": 499}, {"note": 65, "velocity": 85, "duration": 497}, {"note": 67, "velocity": 85, "duration": 690}, {"note": 62, "velocity": 85, "duration": 754}, {"note": 60, "velocity": 85, "duration": 253}, {"note": 62, "velocity": 85, "duration": 1745}, {"note": 0, "velocity": 0, "duration": 1135}, {"note": 70, "velocity": 85, "duration": 62}, {"note": 0, "velocity": 0, "duration": 178}, {"note": 70, "velocity": 85, "duration": 88}, {"note": 0, "velocity": 0, "duration": 152}, {"note": 70, "velocity": 85, "duration": 639}, {"note": 0, "velocity": 0, "duration": 81}, {"note": 69, "velocity": 85, "duration": 251}, {"note": 0, "velocity": 0, "duration": 229}, {"note": 69, "velocity": 85, "duration": 236}, {"note": 70, "velocity": 85, "duration": 159}, {"note": 0, "velocity": 0, "duration": 81}, {"note": 69, "velocity": 85, "duration": 480}, {"note": 65, "velocity": 85, "duration": 431}, {"note": 67, "velocity": 85, "duration": 521}, {"note": 70, "velocity": 85, "duration": 1368}, {"note": 0, "velocity": 0, "duration": 1752}, {"note": 74, "velocity": 85, "duration": 175}, {"note": 0, "velocity": 0, "duration": 65}, {"note": 74, "velocity": 85, "duration": 231}, {"note": 72, "velocity": 85, "duration": 139}, {"note": 0, "velocity": 0, "duration": 101}, {"note": 72, "velocity": 85, "duration": 120}, {"note": 0, "velocity": 0, "duration": 120}, {"note": 70, "velocity": 85, "duration": 204}, {"note": 72, "velocity": 85, "duration": 444}, {"note": 70, "velocity": 85, "duration": 147}, {"note": 0, "velocity": 0, "duration": 93}, {"note": 70, "velocity": 85, "duration": 490}, {"note": 67, "velocity": 85, "duration": 1204}, {"note": 0, "velocity": 0, "duration": 236}, {"note": 74, "velocity": 85, "duration": 69}, {"note": 0, "velocity": 0, "duration": 171}, {"note": 74, "velocity": 85, "duration": 186}, {"note": 72, "velocity": 85, "duration": 84}, {"note": 0, "velocity": 0, "duration": 156}, {"note": 72, "velocity": 85, "duration": 148}, {"note": 0, "velocity": 0, "duration": 92}, {"note": 70, "velocity": 85, "duration": 152}, {"note": 0, "velocity": 0, "duration": 88}, {"note": 72, "velocity": 85, "duration": 398}, {"note": 0, "velocity": 0, "duration": 82}, {"note": 70, "velocity": 85, "duration": 111}, {"note": 0, "velocity": 0, "duration": 129}, {"note": 70, "velocity": 85, "duration": 442}, {"note": 65, "velocity": 85, "duration": 1133}, {"note": 0, "velocity": 0, "duration": 307}, {"note": 74, "velocity": 85, "duration": 75}, {"note": 0, "velocity": 0, "duration": 165}, {"note": 74, "velocity": 85, "duration": 198}, {"note": 72, "velocity": 85, "duration": 114}, {"note": 0, "velocity": 0, "duration": 126}, {"note": 72, "velocity": 85, "duration": 129}, {"note": 0, "velocity": 0, "duration": 111}, {"note": 70, "velocity": 85, "duration": 232}, {"note": 67, "velocity": 85, "duration": 615}, {"note": 0, "velocity": 0, "duration": 105}, {"note": 74, "velocity": 85, "duration": 96}, {"note": 0, "velocity": 0, "duration": 144}, {"note": 74, "velocity": 85, "duration": 136}, {"note": 0, "velocity": 0, "duration": 104}, {"note": 72, "velocity": 85, "duration": 125}, {"note": 0, "velocity": 0, "duration": 115}, {"note": 72, "velocity": 85, "duration": 173}, {"note": 0, "velocity": 0, "duration": 67}, {"note": 70, "velocity": 85, "duration": 228}, {"note": 67, "velocity": 85, "duration": 538}, {"note": 70, "velocity": 85, "duration": 446}, {"note": 77, "velocity": 85, "duration": 694}, {"note": 0, "velocity": 0, "duration": 2906}, {"note": 77, "velocity": 85, "duration": 80}, {"note": 0, "velocity": 0, "duration": 160}, {"note": 77, "velocity": 85, "duration": 200}, {"note": 74, "velocity": 85, "duration": 96}, {"note": 0, "velocity": 0, "duration": 144}, {"note": 74, "velocity": 85, "duration": 162}, {"note": 0, "velocity": 0, "duration": 78}, {"note": 72, "velocity": 85, "duration": 97}, {"note": 0, "velocity": 0, "duration": 143}, {"note": 72, "velocity": 85, "duration": 107}, {"note": 0, "velocity": 0, "duration": 133}, {"note": 70, "velocity": 85, "duration": 113}, {"note": 0, "velocity": 0, "duration": 127}, {"note": 72, "velocity": 85, "duration": 144}, {"note": 0, "velocity": 0, "duration": 96}, {"note": 70, "velocity": 85, "duration": 101}, {"note": 0, "velocity": 0, "duration": 139}, {"note": 72, "velocity": 85, "duration": 456}, {"note": 74, "velocity": 85, "duration": 253}, {"note": 77, "velocity": 85, "duration": 511}, {"note": 74, "velocity": 85, "duration": 282}, {"note": 0, "velocity": 0, "duration": 198}, {"note": 77, "velocity": 85, "duration": 100}, {"note": 0, "velocity": 0, "duration": 140}, {"note": 77, "velocity": 85, "duration": 157}, {"note": 0, "velocity": 0, "duration": 83}, {"note": 74, "velocity": 85, "duration": 109}, {"note": 0, "velocity": 0, "duration": 131}, {"note": 74, "velocity": 85, "duration": 184}, {"note": 72, "velocity": 85, "duration": 104}, {"note": 0, "velocity": 0, "duration": 136}, {"note": 72, "velocity": 85, "duration": 144}, {"note": 0, "velocity": 0, "duration": 96}, {"note": 70, "velocity": 85, "duration": 135}, {"note": 0, "velocity": 0, "duration": 105}, {"note": 72, "velocity": 85, "duration": 246}, {"note": 74, "velocity": 85, "duration": 1509}, {"note": 0, "velocity": 0, "duration": 411}, {"note": 77, "velocity": 85, "duration": 100}, {"note": 0, "velocity": 0, "duration": 140}, {"note": 77, "velocity": 85, "duration": 146}, {"note": 0, "velocity": 0, "duration": 94}, {"note": 74, "velocity": 85, "duration": 74}, {"note": 0, "velocity": 0, "duration": 166}, {"note": 74, "velocity": 85, "duration": 226}, {"note": 72, "velocity": 85, "duration": 238}, {"note": 70, "velocity": 85, "duration": 465}, {"note": 0, "velocity": 0, "duration": 255}, {"note": 77, "velocity": 85, "duration": 73}, {"note": 0, "velocity": 0, "duration": 167}, {"note": 77, "velocity": 85, "duration": 250}, {"note": 79, "velocity": 85, "duration": 191}, {"note": 74, "velocity": 85, "duration": 233}, {"note": 72, "velocity": 85, "duration": 485}, {"note": 70, "velocity": 87, "duration": 508}, {"note": 65, "velocity": 87, "duration": 189}, {"note": 77, "velocity": 87, "duration": 95}, {"note": 0, "velocity": 0, "duration": 145}, {"note": 77, "velocity": 87, "duration": 117}, {"note": 0, "velocity": 0, "duration": 123}, {"note": 77, "velocity": 87, "duration": 106}, {"note": 0, "velocity": 0, "duration": 134}, {"note": 77, "velocity": 87, "duration": 94}, {"note": 0, "velocity": 0, "duration": 146}, {"note": 77, "velocity": 87, "duration": 363}, {"note": 79, "velocity": 87, "duration": 399}, {"note": 0, "velocity": 0, "duration": 201}, {"note": 70, "velocity": 87, "duration": 318}, {"note": 72, "velocity": 87, "duration": 1301}, {"note": 77, "velocity": 87, "duration": 80}, {"note": 0, "velocity": 0, "duration": 160}, {"note": 77, "velocity": 87, "duration": 200}, {"note": 74, "velocity": 87, "duration": 96}, {"note": 0, "velocity": 0, "duration": 144}, {"note": 74, "velocity": 87, "duration": 162}, {"note": 0, "velocity": 0, "duration": 78}, {"note": 72, "velocity": 87, "duration": 97}, {"note": 0, "velocity": 0, "duration": 143}, {"note": 72, "velocity": 87, "duration": 107}, {"note": 0, "velocity": 0, "duration": 133}, {"note": 70, "velocity": 87, "duration": 113}, {"note": 0, "velocity": 0, "duration": 127}, {"note": 72, "velocity": 87, "duration": 144}, {"note": 0, "velocity": 0, "duration": 96}, {"note": 70, "velocity": 87, "duration": 101}, {"note": 0, "velocity": 0, "duration": 139}, {"note": 72, "velocity": 87, "duration": 456}, {"note": 74, "velocity": 87, "duration": 253}, {"note": 77, "velocity": 87, "duration": 511}, {"note": 74, "velocity": 87, "duration": 282}, {"note": 0, "velocity": 0, "duration": 198}, {"note": 77, "velocity": 87, "duration": 100}, {"note": 0, "velocity": 0, "duration": 140}, {"note": 77, "velocity": 87, "duration": 157}, {"note": 0, "velocity": 0, "duration": 83}, {"note": 74, "velocity": 87, "duration": 109}, {"note": 0, "velocity": 0, "duration": 131}, {"note": 74, "velocity": 87, "duration": 184}, {"note": 72, "velocity": 87, "duration": 104}, {"note": 0, "velocity": 0, "duration": 136}, {"note": 72, "velocity": 87, "duration": 144}, {"note": 0, "velocity": 0, "duration": 96}, {"note": 70, "velocity": 87, "duration": 135}, {"note": 0, "velocity": 0, "duration": 105}, {"note": 72, "velocity": 87, "duration": 246}, {"note": 74, "velocity": 87, "duration": 1192}, {"note": 0, "velocity": 0, "duration": 728}, {"note": 77, "velocity": 87, "duration": 100}, {"note": 0, "velocity": 0, "duration": 140}, {"note": 77, "velocity": 87, "duration": 146}, {"note": 0, "velocity": 0, "duration": 94}, {"note": 74, "velocity": 87, "duration": 74}, {"note": 0, "velocity": 0, "duration": 166}, {"note": 74, "velocity": 87, "duration": 226}, {"note": 72, "velocity": 87, "duration": 238}, {"note": 70, "velocity": 87, "duration": 465}, {"note": 0, "velocity": 0, "duration": 255}, {"note": 77, "velocity": 87, "duration": 73}, {"note": 0, "velocity": 0, "duration": 167}, {"note": 77, "velocity": 87, "duration": 250}, {"note": 79, "velocity": 87, "duration": 191}, {"note": 74, "velocity": 87, "duration": 233}, {"note": 72, "velocity": 87, "duration": 485}, {"note": 70, "velocity": 87, "duration": 508}, {"note": 0, "velocity": 0, "duration": 212}, {"note": 77, "velocity": 87, "duration": 95}, {"note": 0, "velocity": 0, "duration": 145}, {"note": 77, "velocity": 87, "duration": 117}, {"note": 0, "velocity": 0, "duration": 123}, {"note": 77, "velocity": 87, "duration": 106}, {"note": 0, "velocity": 0, "duration": 134}, {"note": 77, "velocity": 87, "duration": 94}, {"note": 0, "velocity": 0, "duration": 146}, {"note": 77, "velocity": 87, "duration": 363}, {"note": 79, "velocity": 87, "duration": 399}, {"note": 0, "velocity": 0, "duration": 201}, {"note": 70, "velocity": 87, "duration": 318}, {"note": 72, "velocity": 87, "duration": 745}, {"note": 74, "velocity": 87, "duration": 735}, {"note": 72, "velocity": 87, "duration": 308}, {"note": 0, "velocity": 0, "duration": 172}, {"note": 72, "velocity": 87, "duration": 924}, {"note": 70, "velocity": 87, "duration": 1501}, {"note": 0, "velocity": 0, "duration": 19139}, {"note": 69, "velocity": 87, "duration": 199}, {"note": 69, "velocity": 87, "duration": 293}, {"note": 70, "velocity": 87, "duration": 651}, {"note": 0, "velocity": 0, "duration": 69}, {"note": 69, "velocity": 87, "duration": 367}, {"note": 0, "velocity": 0, "duration": 113}, {"note": 69, "velocity": 87, "duration": 238}, {"note": 70, "velocity": 87, "duration": 218}, {"note": 69, "velocity": 87, "duration": 512}, {"note": 65, "velocity": 87, "duration": 296}, {"note": 0, "velocity": 0, "duration": 184}, {"note": 67, "velocity": 87, "duration": 756}, {"note": 62, "velocity": 87, "duration": 673}, {"note": 0, "velocity": 0, "duration": 167}, {"note": 60, "velocity": 87, "duration": 245}, {"note": 62, "velocity": 87, "duration": 925}, {"note": 0, "velocity": 0, "duration": 1955}, {"note": 69, "velocity": 87, "duration": 164}, {"note": 0, "velocity": 0, "duration": 76}, {"note": 69, "velocity": 87, "duration": 247}, {"note": 70, "velocity": 87, "duration": 658}, {"note": 0, "velocity": 0, "duration": 62}, {"note": 69, "velocity": 87, "duration": 356}, {"note": 0, "velocity": 0, "duration": 124}, {"note": 69, "velocity": 90, "duration": 240}, {"note": 70, "velocity": 90, "duration": 186}, {"note": 69, "velocity": 90, "duration": 468}, {"note": 65, "velocity": 90, "duration": 274}, {"note": 67, "velocity": 90, "duration": 745}, {"note": 70, "velocity": 90, "duration": 1435}, {"note": 0, "velocity": 0, "duration": 1685}, {"note": 74, "velocity": 90, "duration": 143}, {"note": 0, "velocity": 0, "duration": 97}, {"note": 74, "velocity": 90, "duration": 246}, {"note": 72, "velocity": 90, "duration": 167}, {"note": 0, "velocity": 0, "duration": 73}, {"note": 72, "velocity": 90, "duration": 186}, {"note": 70, "velocity": 90, "duration": 163}, {"note": 0, "velocity": 0, "duration": 77}, {"note": 72, "velocity": 90, "duration": 505}, {"note": 70, "velocity": 90, "duration": 142}, {"note": 0, "velocity": 0, "duration": 98}, {"note": 70, "velocity": 90, "duration": 495}, {"note": 67, "velocity": 90, "duration": 1291}, {"note": 0, "velocity": 0, "duration": 149}, {"note": 74, "velocity": 90, "duration": 67}, {"note": 0, "velocity": 0, "duration": 173}, {"note": 74, "velocity": 90, "duration": 140}, {"note": 0, "velocity": 0, "duration": 100}, {"note": 72, "velocity": 90, "duration": 119}, {"note": 0, "velocity": 0, "duration": 121}, {"note": 72, "velocity": 90, "duration": 121}, {"note": 0, "velocity": 0, "duration": 119}, {"note": 70, "velocity": 90, "duration": 98}, {"note": 0, "velocity": 0, "duration": 142}, {"note": 72, "velocity": 90, "duration": 451}, {"note": 70, "velocity": 90, "duration": 89}, {"note": 0, "velocity": 0, "duration": 151}, {"note": 70, "velocity": 90, "duration": 444}, {"note": 65, "velocity": 90, "duration": 1308}, {"note": 0, "velocity": 0, "duration": 132}, {"note": 74, "velocity": 90, "duration": 77}, {"note": 0, "velocity": 0, "duration": 163}, {"note": 74, "velocity": 90, "duration": 169}, {"note": 0, "velocity": 0, "duration": 71}, {"note": 72, "velocity": 90, "duration": 94}, {"note": 0, "velocity": 0, "duration": 146}, {"note": 72, "velocity": 90, "duration": 155}, {"note": 0, "velocity": 0, "duration": 85}, {"note": 70, "velocity": 90, "duration": 303}, {"note": 67, "velocity": 90, "duration": 598}, {"note": 0, "velocity": 0, "duration": 122}, {"note": 74, "velocity": 90, "duration": 205}, {"note": 74, "velocity": 90, "duration": 212}, {"note": 72, "velocity": 90, "duration": 102}, {"note": 72, "velocity": 90, "duration": 290}, {"note": 0, "velocity": 0, "duration": 70}, {"note": 70, "velocity": 90, "duration": 224}, {"note": 67, "velocity": 90, "duration": 496}, {"note": 70, "velocity": 90, "duration": 459}, {"note": 77, "velocity": 90, "duration": 1367}, {"note": 0, "velocity": 0, "duration": 2233}, {"note": 77, "velocity": 90, "duration": 80}, {"note": 0, "velocity": 0, "duration": 160}, {"note": 77, "velocity": 90, "duration": 200}, {"note": 74, "velocity": 90, "duration": 96}, {"note": 0, "velocity": 0, "duration": 144}, {"note": 74, "velocity": 90, "duration": 162}, {"note": 0, "velocity": 0, "duration": 78}, {"note": 72, "velocity": 90, "duration": 97}, {"note": 0, "velocity": 0, "duration": 143}, {"note": 72, "velocity": 90, "duration": 107}, {"note": 0, "velocity": 0, "duration": 133}, {"note": 70, "velocity": 90, "duration": 113}, {"note": 0, "velocity": 0, "duration": 127}, {"note": 72, "velocity": 90, "duration": 144}, {"note": 0, "velocity": 0, "duration": 96}, {"note": 70, "velocity": 90, "duration": 101}, {"note": 0, "velocity": 0, "duration": 139}, {"note": 72, "velocity": 90, "duration": 456}, {"note": 74, "velocity": 90, "duration": 253}, {"note": 77, "velocity": 90, "duration": 511}, {"note": 74, "velocity": 90, "duration": 282}, {"note": 0, "velocity": 0, "duration": 198}, {"note": 77, "velocity": 90, "duration": 100}, {"note": 0, "velocity": 0, "duration": 140}, {"note": 77, "velocity": 90, "duration": 157}, {"note": 0, "velocity": 0, "duration": 83}, {"note": 74, "velocity": 90, "duration": 109}, {"note": 0, "velocity": 0, "duration": 131}, {"note": 74, "velocity": 90, "duration": 184}, {"note": 72, "velocity": 90, "duration": 104}, {"note": 0, "velocity": 0, "duration": 136}, {"note": 72, "velocity": 90, "duration": 144}, {"note": 0, "velocity": 0, "duration": 96}, {"note": 70, "velocity": 90, "duration": 135}, {"note": 0, "velocity": 0, "duration": 105}, {"note": 72, "velocity": 90, "duration": 246}, {"note": 74, "velocity": 90, "duration": 1192}, {"note": 0, "velocity": 0, "duration": 728}, {"note": 77, "velocity": 90, "duration": 100}, {"note": 0, "velocity": 0, "duration": 140}, {"note": 77, "velocity": 90, "duration": 146}, {"note": 0, "velocity": 0, "duration": 94}, {"note": 74, "velocity": 90, "duration": 74}, {"note": 0, "velocity": 0, "duration": 166}, {"note": 74, "velocity": 90, "duration": 226}, {"note": 72, "velocity": 90, "duration": 416}, {"note": 70, "velocity": 90, "duration": 465}, {"note": 0, "velocity": 0, "duration": 135}, {"note": 77, "velocity": 90, "duration": 73}, {"note": 0, "velocity": 0, "duration": 167}, {"note": 77, "velocity": 90, "duration": 250}, {"note": 79, "velocity": 90, "duration": 191}, {"note": 74, "velocity": 90, "duration": 233}, {"note": 72, "velocity": 90, "duration": 485}, {"note": 70, "velocity": 90, "duration": 483}, {"note": 65, "velocity": 90, "duration": 238}, {"note": 77, "velocity": 90, "duration": 95}, {"note": 0, "velocity": 0, "duration": 145}, {"note": 77, "velocity": 90, "duration": 117}, {"note": 0, "velocity": 0, "duration": 123}, {"note": 77, "velocity": 90, "duration": 106}, {"note": 0, "velocity": 0, "duration": 134}, {"note": 77, "velocity": 90, "duration": 94}, {"note": 0, "velocity": 0, "duration": 146}, {"note": 77, "velocity": 90, "duration": 363}, {"note": 79, "velocity": 90, "duration": 399}, {"note": 0, "velocity": 0, "duration": 201}, {"note": 70, "velocity": 90, "duration": 318}, {"note": 72, "velocity": 90, "duration": 584}, {"note": 0, "velocity": 0, "duration": 736}, {"note": 77, "velocity": 90, "duration": 80}, {"note": 0, "velocity": 0, "duration": 160}, {"note": 77, "velocity": 90, "duration": 200}, {"note": 74, "velocity": 90, "duration": 96}, {"note": 0, "velocity": 0, "duration": 144}, {"note": 74, "velocity": 90, "duration": 162}, {"note": 0, "velocity": 0, "duration": 78}, {"note": 72, "velocity": 90, "duration": 97}, {"note": 0, "velocity": 0, "duration": 143}, {"note": 72, "velocity": 90, "duration": 107}, {"note": 0, "velocity": 0, "duration": 133}, {"note": 70, "velocity": 90, "duration": 113}, {"note": 0, "velocity": 0, "duration": 127}, {"note": 72, "velocity": 90, "duration": 144}, {"note": 0, "velocity": 0, "duration": 96}, {"note": 70, "velocity": 90, "duration": 101}, {"note": 0, "velocity": 0, "duration": 139}, {"note": 72, "velocity": 90, "duration": 456}, {"note": 74, "velocity": 90, "duration": 253}, {"note": 77, "velocity": 90, "duration": 511}, {"note": 74, "velocity": 90, "duration": 282}, {"note": 0, "velocity": 0, "duration": 198}, {"note": 77, "velocity": 90, "duration": 100}, {"note": 0, "velocity": 0, "duration": 140}, {"note": 77, "velocity": 90, "duration": 157}, {"note": 0, "velocity": 0, "duration": 83}, {"note": 74, "velocity": 90, "duration": 109}, {"note": 0, "velocity": 0, "duration": 131}, {"note": 74, "velocity": 90, "duration": 184}, {"note": 72, "velocity": 90, "duration": 104}, {"note": 0, "velocity": 0, "duration": 136}, {"note": 72, "velocity": 90, "duration": 144}, {"note": 0, "velocity": 0, "duration": 96}, {"note": 70, "velocity": 90, "duration": 135}, {"note": 0, "velocity": 0, "duration": 105}, {"note": 72, "velocity": 90, "duration": 246}, {"note": 74, "velocity": 90, "duration": 1192}, {"note": 0, "velocity": 0, "duration": 728}, {"note": 77, "velocity": 90, "duration": 100}, {"note": 0, "velocity": 0, "duration": 140}, {"note": 77, "velocity": 90, "duration": 146}, {"note": 0, "velocity": 0, "duration": 94}, {"note": 74, "velocity": 90, "duration": 74}, {"note": 0, "velocity": 0, "duration": 166}, {"note": 74, "velocity": 90, "duration": 226}, {"note": 72, "velocity": 90, "duration": 416}, {"note": 70, "velocity": 90, "duration": 465}, {"note": 0, "velocity": 0, "duration": 135}, {"note": 77, "velocity": 90, "duration": 73}, {"note": 0, "velocity": 0, "duration": 167}, {"note": 77, "velocity": 90, "duration": 250}, {"note": 79, "velocity": 90, "duration": 191}, {"note": 74, "velocity": 90, "duration": 233}, {"note": 72, "velocity": 90, "duration": 485}, {"note": 70, "velocity": 90, "duration": 508}, {"note": 0, "velocity": 0, "duration": 212}, {"note": 77, "velocity": 90, "duration": 95}, {"note": 0, "velocity": 0, "duration": 145}, {"note": 77, "velocity": 90, "duration": 117}, {"note": 0, "velocity": 0, "duration": 123}, {"note": 77, "velocity": 90, "duration": 106}, {"note": 0, "velocity": 0, "duration": 134}, {"note": 77, "velocity": 90, "duration": 94}, {"note": 0, "velocity": 0, "duration": 146}, {"note": 77, "velocity": 90, "duration": 363}, {"note": 79, "velocity": 90, "duration": 399}, {"note": 0, "velocity": 0, "duration": 201}, {"note": 70, "velocity": 90, "duration": 318}, {"note": 72, "velocity": 90, "duration": 745}, {"note": 74, "velocity": 90, "duration": 735}, {"note": 72, "velocity": 90, "duration": 308}, {"note": 0, "velocity": 0, "duration": 172}, {"note": 72, "velocity": 90, "duration": 924}, {"note": 70, "velocity": 90, "duration": 1501}, {"note": 0, "velocity": 0, "duration": 1619}, {"note": 69, "velocity": 90, "duration": 200}, {"note": 0, "velocity": 0, "duration": 280}, {"note": 69, "velocity": 90, "duration": 219}, {"note": 0, "velocity": 0, "duration": 141}, {"note": 69, "velocity": 90, "duration": 417}, {"note": 74, "velocity": 90, "duration": 261}, {"note": 0, "velocity": 0, "duration": 219}, {"note": 74, "velocity": 90, "duration": 314}, {"note": 0, "velocity": 0, "duration": 166}, {"note": 74, "velocity": 90, "duration": 246}, {"note": 75, "velocity": 90, "duration": 486}, {"note": 72, "velocity": 90, "duration": 549}, {"note": 0, "velocity": 0, "duration": 411}, {"note": 72, "velocity": 90, "duration": 253}, {"note": 70, "velocity": 90, "duration": 240}, {"note": 72, "velocity": 90, "duration": 332}, {"note": 74, "velocity": 90, "duration": 615}, {"note": 0, "velocity": 0, "duration": 225}, {"note": 67, "velocity": 90, "duration": 249}, {"note": 70, "velocity": 90, "duration": 960}, {"note": 0, "velocity": 0, "duration": 960}, {"note": 69, "velocity": 90, "duration": 131}, {"note": 0, "velocity": 0, "duration": 109}, {"note": 69, "velocity": 90, "duration": 119}, {"note": 0, "velocity": 0, "duration": 121}, {"note": 69, "velocity": 90, "duration": 152}, {"note": 0, "velocity": 0, "duration": 208}, {"note": 69, "velocity": 90, "duration": 146}, {"note": 0, "velocity": 0, "duration": 214}, {"note": 69, "velocity": 90, "duration": 166}, {"note": 0, "velocity": 0, "duration": 74}, {"note": 74, "velocity": 90, "duration": 258}, {"note": 0, "velocity": 0, "duration": 222}, {"note": 74, "velocity": 90, "duration": 272}, {"note": 75, "velocity": 90, "duration": 200}, {"note": 74, "velocity": 90, "duration": 454}, {"note": 72, "velocity": 90, "duration": 461}, {"note": 70, "velocity": 90, "duration": 1019}, {"note": 0, "velocity": 0, "duration": 661}, {"note": 67, "velocity": 90, "duration": 186}, {"note": 70, "velocity": 90, "duration": 318}, {"note": 0, "velocity": 0, "duration": 162}, {"note": 67, "velocity": 90, "duration": 180}, {"note": 70, "velocity": 90, "duration": 291}, {"note": 0, "velocity": 0, "duration": 189}, {"note": 79, "velocity": 90, "duration": 718}, {"note": 0, "velocity": 0, "duration": 242}, {"note": 77, "velocity": 90, "duration": 3303}, {"note": 0, "velocity": 0, "duration": 3897}, {"note": 78, "velocity": 90, "duration": 93}, {"note": 0, "velocity": 0, "duration": 147}, {"note": 78, "velocity": 90, "duration": 185}, {"note": 75, "velocity": 90, "duration": 83}, {"note": 0, "velocity": 0, "duration": 157}, {"note": 75, "velocity": 90, "duration": 129}, {"note": 0, "velocity": 0, "duration": 111}, {"note": 73, "velocity": 90, "duration": 98}, {"note": 0, "velocity": 0, "duration": 142}, {"note": 73, "velocity": 90, "duration": 180}, {"note": 71, "velocity": 90, "duration": 191}, {"note": 73, "velocity": 90, "duration": 169}, {"note": 0, "velocity": 0, "duration": 71}, {"note": 71, "velocity": 90, "duration": 201}, {"note": 73, "velocity": 90, "duration": 234}, {"note": 75, "velocity": 90, "duration": 512}, {"note": 78, "velocity": 90, "duration": 469}, {"note": 75, "velocity": 90, "duration": 318}, {"note": 0, "velocity": 0, "duration": 162}, {"note": 78, "velocity": 90, "duration": 96}, {"note": 0, "velocity": 0, "duration": 144}, {"note": 78, "velocity": 90, "duration": 122}, {"note": 0, "velocity": 0, "duration": 118}, {"note": 75, "velocity": 90, "duration": 85}, {"note": 0, "velocity": 0, "duration": 155}, {"note": 75, "velocity": 90, "duration": 139}, {"note": 0, "velocity": 0, "duration": 101}, {"note": 73, "velocity": 90, "duration": 100}, {"note": 0, "velocity": 0, "duration": 140}, {"note": 73, "velocity": 90, "duration": 162}, {"note": 0, "velocity": 0, "duration": 78}, {"note": 71, "velocity": 90, "duration": 202}, {"note": 73, "velocity": 90, "duration": 210}, {"note": 75, "velocity": 90, "duration": 1300}, {"note": 0, "velocity": 0, "duration": 620}, {"note": 78, "velocity": 90, "duration": 118}, {"note": 0, "velocity": 0, "duration": 122}, {"note": 78, "velocity": 90, "duration": 143}, {"note": 0, "velocity": 0, "duration": 97}, {"note": 75, "velocity": 90, "duration": 145}, {"note": 0, "velocity": 0, "duration": 95}, {"note": 75, "velocity": 90, "duration": 132}, {"note": 0, "velocity": 0, "duration": 108}, {"note": 73, "velocity": 90, "duration": 486}, {"note": 0, "velocity": 0, "duration": 114}, {"note": 71, "velocity": 90, "duration": 240}, {"note": 0, "velocity": 0, "duration": 120}, {"note": 78, "velocity": 90, "duration": 138}, {"note": 0, "velocity": 0, "duration": 102}, {"note": 78, "velocity": 90, "duration": 161}, {"note": 0, "velocity": 0, "duration": 79}, {"note": 80, "velocity": 90, "duration": 206}, {"note": 75, "velocity": 90, "duration": 221}, {"note": 73, "velocity": 90, "duration": 358}, {"note": 0, "velocity": 0, "duration": 122}, {"note": 71, "velocity": 90, "duration": 238}, {"note": 0, "velocity": 0, "duration": 242}, {"note": 66, "velocity": 90, "duration": 217}, {"note": 78, "velocity": 90, "duration": 129}, {"note": 0, "velocity": 0, "duration": 111}, {"note": 78, "velocity": 90, "duration": 97}, {"note": 0, "velocity": 0, "duration": 143}, {"note": 78, "velocity": 90, "duration": 95}, {"note": 0, "velocity": 0, "duration": 145}, {"note": 78, "velocity": 90, "duration": 99}, {"note": 0, "velocity": 0, "duration": 141}, {"note": 78, "velocity": 90, "duration": 246}, {"note": 80, "velocity": 90, "duration": 709}, {"note": 71, "velocity": 90, "duration": 280}, {"note": 73, "velocity": 90, "duration": 1198}, {"note": 0, "velocity": 0, "duration": 242}, {"note": 78, "velocity": 90, "duration": 93}, {"note": 0, "velocity": 0, "duration": 147}, {"note": 78, "velocity": 90, "duration": 185}, {"note": 75, "velocity": 90, "duration": 83}, {"note": 0, "velocity": 0, "duration": 157}, {"note": 75, "velocity": 90, "duration": 129}, {"note": 0, "velocity": 0, "duration": 111}, {"note": 73, "velocity": 90, "duration": 98}, {"note": 0, "velocity": 0, "duration": 142}, {"note": 73, "velocity": 90, "duration": 180}, {"note": 71, "velocity": 90, "duration": 191}, {"note": 73, "velocity": 90, "duration": 169}, {"note": 0, "velocity": 0, "duration": 71}, {"note": 71, "velocity": 90, "duration": 201}, {"note": 73, "velocity": 90, "duration": 234}, {"note": 75, "velocity": 90, "duration": 512}, {"note": 78, "velocity": 90, "duration": 469}, {"note": 75, "velocity": 90, "duration": 318}, {"note": 0, "velocity": 0, "duration": 162}, {"note": 78, "velocity": 90, "duration": 96}, {"note": 0, "velocity": 0, "duration": 144}, {"note": 78, "velocity": 90, "duration": 122}, {"note": 0, "velocity": 0, "duration": 118}, {"note": 75, "velocity": 90, "duration": 85}, {"note": 0, "velocity": 0, "duration": 155}, {"note": 75, "velocity": 90, "duration": 139}, {"note": 0, "velocity": 0, "duration": 101}, {"note": 73, "velocity": 90, "duration": 100}, {"note": 0, "velocity": 0, "duration": 140}, {"note": 73, "velocity": 90, "duration": 162}, {"note": 0, "velocity": 0, "duration": 78}, {"note": 71, "velocity": 90, "duration": 202}, {"note": 73, "velocity": 90, "duration": 210}, {"note": 75, "velocity": 90, "duration": 1300}, {"note": 0, "velocity": 0, "duration": 620}, {"note": 78, "velocity": 90, "duration": 118}, {"note": 0, "velocity": 0, "duration": 122}, {"note": 78, "velocity": 90, "duration": 143}, {"note": 0, "velocity": 0, "duration": 97}, {"note": 75, "velocity": 90, "duration": 145}, {"note": 0, "velocity": 0, "duration": 95}, {"note": 75, "velocity": 90, "duration": 132}, {"note": 0, "velocity": 0, "duration": 108}, {"note": 73, "velocity": 90, "duration": 486}, {"note": 0, "velocity": 0, "duration": 114}, {"note": 71, "velocity": 90, "duration": 240}, {"note": 0, "velocity": 0, "duration": 120}, {"note": 78, "velocity": 90, "duration": 138}, {"note": 0, "velocity": 0, "duration": 102}, {"note": 78, "velocity": 90, "duration": 161}, {"note": 0, "velocity": 0, "duration": 79}, {"note": 80, "velocity": 90, "duration": 206}, {"note": 75, "velocity": 90, "duration": 221}, {"note": 73, "velocity": 90, "duration": 358}, {"note": 0, "velocity": 0, "duration": 122}, {"note": 71, "velocity": 90, "duration": 238}, {"note": 0, "velocity": 0, "duration": 482}, {"note": 78, "velocity": 90, "duration": 129}, {"note": 0, "velocity": 0, "duration": 111}, {"note": 78, "velocity": 90, "duration": 97}, {"note": 0, "velocity": 0, "duration": 143}, {"note": 78, "velocity": 90, "duration": 95}, {"note": 0, "velocity": 0, "duration": 145}, {"note": 78, "velocity": 90, "duration": 99}, {"note": 0, "velocity": 0, "duration": 141}, {"note": 78, "velocity": 90, "duration": 246}, {"note": 80, "velocity": 90, "duration": 709}, {"note": 71, "velocity": 90, "duration": 280}, {"note": 73, "velocity": 90, "duration": 1198}, {"note": 75, "velocity": 90, "duration": 633}, {"note": 73, "velocity": 90, "duration": 441}, {"note": 0, "velocity": 0, "duration": 80}, {"note": 73, "velocity": 90, "duration": 505}, {"note": 71, "velocity": 90, "duration": 2513}]]