[[{"note": 67, "velocity": 87, "duration": 238}, {"note": 69, "velocity": 87, "duration": 238}, {"note": 71, "velocity": 87, "duration": 152}, {"note": 0, "velocity": 0, "duration": 88}, {"note": 71, "velocity": 87, "duration": 934}, {"note": 62, "velocity": 87, "duration": 62}, {"note": 62, "velocity": 87, "duration": 118}, {"note": 67, "velocity": 87, "duration": 153}, {"note": 0, "velocity": 0, "duration": 87}, {"note": 67, "velocity": 87, "duration": 59}, {"note": 0, "velocity": 0, "duration": 61}, {"note": 67, "velocity": 87, "duration": 71}, {"note": 0, "velocity": 0, "duration": 289}, {"note": 67, "velocity": 87, "duration": 302}, {"note": 64, "velocity": 87, "duration": 470}, {"note": 0, "velocity": 0, "duration": 250}, {"note": 62, "velocity": 87, "duration": 59}, {"note": 0, "velocity": 0, "duration": 61}, {"note": 62, "velocity": 87, "duration": 75}, {"note": 67, "velocity": 87, "duration": 130}, {"note": 0, "velocity": 0, "duration": 110}, {"note": 67, "velocity": 87, "duration": 222}, {"note": 67, "velocity": 87, "duration": 239}, {"note": 62, "velocity": 87, "duration": 238}, {"note": 69, "velocity": 87, "duration": 478}, {"note": 0, "velocity": 0, "duration": 242}, {"note": 62, "velocity": 87, "duration": 58}, {"note": 0, "velocity": 0, "duration": 62}, {"note": 62, "velocity": 87, "duration": 91}, {"note": 72, "velocity": 87, "duration": 231}, {"note": 71, "velocity": 87, "duration": 402}, {"note": 0, "velocity": 0, "duration": 78}, {"note": 71, "velocity": 87, "duration": 232}, {"note": 69, "velocity": 87, "duration": 727}, {"note": 62, "velocity": 87, "duration": 57}, {"note": 62, "velocity": 87, "duration": 63}, {"note": 62, "velocity": 87, "duration": 70}, {"note": 67, "velocity": 87, "duration": 230}, {"note": 69, "velocity": 87, "duration": 283}, {"note": 71, "velocity": 87, "duration": 257}, {"note": 62, "velocity": 87, "duration": 632}, {"note": 0, "velocity": 0, "duration": 328}, {"note": 59, "velocity": 87, "duration": 59}, {"note": 0, "velocity": 0, "duration": 61}, {"note": 59, "velocity": 87, "duration": 83}, {"note": 66, "velocity": 87, "duration": 121}, {"note": 0, "velocity": 0, "duration": 119}, {"note": 66, "velocity": 87, "duration": 238}, {"note": 64, "velocity": 87, "duration": 197}, {"note": 66, "velocity": 87, "duration": 238}, {"note": 59, "velocity": 87, "duration": 485}, {"note": 0, "velocity": 0, "duration": 235}, {"note": 59, "velocity": 87, "duration": 43}, {"note": 0, "velocity": 0, "duration": 77}, {"note": 59, "velocity": 87, "duration": 60}, {"note": 69, "velocity": 87, "duration": 76}, {"note": 0, "velocity": 0, "duration": 164}, {"note": 69, "velocity": 87, "duration": 112}, {"note": 67, "velocity": 85, "duration": 67}, {"note": 69, "velocity": 85, "duration": 159}, {"note": 0, "velocity": 0, "duration": 81}, {"note": 67, "velocity": 85, "duration": 83}, {"note": 69, "velocity": 85, "duration": 100}, {"note": 69, "velocity": 90, "duration": 479}, {"note": 0, "velocity": 0, "duration": 241}, {"note": 66, "velocity": 90, "duration": 52}, {"note": 0, "velocity": 0, "duration": 68}, {"note": 66, "velocity": 90, "duration": 66}, {"note": 74, "velocity": 90, "duration": 106}, {"note": 0, "velocity": 0, "duration": 134}, {"note": 74, "velocity": 90, "duration": 85}, {"note": 0, "velocity": 0, "duration": 155}, {"note": 74, "velocity": 90, "duration": 51}, {"note": 0, "velocity": 0, "duration": 69}, {"note": 74, "velocity": 90, "duration": 96}, {"note": 0, "velocity": 0, "duration": 144}, {"note": 74, "velocity": 90, "duration": 51}, {"note": 0, "velocity": 0, "duration": 69}, {"note": 71, "velocity": 90, "duration": 235}, {"note": 69, "velocity": 90, "duration": 441}, {"note": 62, "velocity": 90, "duration": 195}, {"note": 67, "velocity": 90, "duration": 386}, {"note": 69, "velocity": 90, "duration": 353}, {"note": 71, "velocity": 90, "duration": 160}, {"note": 0, "velocity": 0, "duration": 80}, {"note": 71, "velocity": 90, "duration": 502}, {"note": 0, "velocity": 0, "duration": 218}, {"note": 62, "velocity": 90, "duration": 66}, {"note": 62, "velocity": 90, "duration": 76}, {"note": 67, "velocity": 90, "duration": 126}, {"note": 0, "velocity": 0, "duration": 114}, {"note": 67, "velocity": 90, "duration": 100}, {"note": 0, "velocity": 0, "duration": 140}, {"note": 67, "velocity": 90, "duration": 246}, {"note": 67, "velocity": 90, "duration": 6}, {"note": 0, "velocity": 0, "duration": 234}, {"note": 67, "velocity": 90, "duration": 232}, {"note": 64, "velocity": 90, "duration": 377}, {"note": 0, "velocity": 0, "duration": 103}, {"note": 62, "velocity": 90, "duration": 67}, {"note": 62, "velocity": 90, "duration": 62}, {"note": 67, "velocity": 90, "duration": 152}, {"note": 0, "velocity": 0, "duration": 88}, {"note": 67, "velocity": 90, "duration": 207}, {"note": 67, "velocity": 90, "duration": 228}, {"note": 62, "velocity": 90, "duration": 92}, {"note": 0, "velocity": 0, "duration": 148}, {"note": 62, "velocity": 90, "duration": 273}, {"note": 69, "velocity": 90, "duration": 305}, {"note": 0, "velocity": 0, "duration": 175}, {"note": 62, "velocity": 90, "duration": 57}, {"note": 0, "velocity": 0, "duration": 63}, {"note": 62, "velocity": 90, "duration": 77}, {"note": 72, "velocity": 90, "duration": 116}, {"note": 0, "velocity": 0, "duration": 124}, {"note": 72, "velocity": 90, "duration": 202}, {"note": 71, "velocity": 90, "duration": 126}, {"note": 72, "velocity": 90, "duration": 398}, {"note": 69, "velocity": 90, "duration": 489}, {"note": 0, "velocity": 0, "duration": 111}, {"note": 62, "velocity": 90, "duration": 46}, {"note": 0, "velocity": 0, "duration": 74}, {"note": 62, "velocity": 90, "duration": 57}, {"note": 0, "velocity": 0, "duration": 63}, {"note": 62, "velocity": 90, "duration": 72}, {"note": 67, "velocity": 90, "duration": 263}, {"note": 0, "velocity": 0, "duration": 97}, {"note": 69, "velocity": 90, "duration": 384}, {"note": 71, "velocity": 90, "duration": 246}, {"note": 62, "velocity": 90, "duration": 451}, {"note": 0, "velocity": 0, "duration": 149}, {"note": 59, "velocity": 90, "duration": 56}, {"note": 0, "velocity": 0, "duration": 64}, {"note": 59, "velocity": 90, "duration": 62}, {"note": 59, "velocity": 90, "duration": 111}, {"note": 67, "velocity": 90, "duration": 243}, {"note": 66, "velocity": 90, "duration": 233}, {"note": 0, "velocity": 0, "duration": 247}, {"note": 67, "velocity": 90, "duration": 246}, {"note": 59, "velocity": 90, "duration": 545}, {"note": 0, "velocity": 0, "duration": 175}, {"note": 59, "velocity": 90, "duration": 62}, {"note": 59, "velocity": 90, "duration": 68}, {"note": 69, "velocity": 90, "duration": 90}, {"note": 0, "velocity": 0, "duration": 150}, {"note": 69, "velocity": 90, "duration": 140}, {"note": 67, "velocity": 90, "duration": 88}, {"note": 69, "velocity": 90, "duration": 200}, {"note": 67, "velocity": 90, "duration": 85}, {"note": 69, "velocity": 90, "duration": 147}, {"note": 69, "velocity": 90, "duration": 27}, {"note": 0, "velocity": 0, "duration": 693}, {"note": 66, "velocity": 90, "duration": 58}, {"note": 0, "velocity": 0, "duration": 62}, {"note": 66, "velocity": 90, "duration": 63}, {"note": 74, "velocity": 90, "duration": 75}, {"note": 0, "velocity": 0, "duration": 165}, {"note": 74, "velocity": 90, "duration": 73}, {"note": 0, "velocity": 0, "duration": 167}, {"note": 74, "velocity": 90, "duration": 60}, {"note": 0, "velocity": 0, "duration": 180}, {"note": 74, "velocity": 90, "duration": 44}, {"note": 0, "velocity": 0, "duration": 76}, {"note": 74, "velocity": 90, "duration": 64}, {"note": 71, "velocity": 90, "duration": 304}, {"note": 69, "velocity": 90, "duration": 369}, {"note": 66, "velocity": 90, "duration": 59}, {"note": 0, "velocity": 0, "duration": 61}, {"note": 66, "velocity": 90, "duration": 72}, {"note": 74, "velocity": 90, "duration": 358}, {"note": 71, "velocity": 90, "duration": 117}, {"note": 0, "velocity": 0, "duration": 243}, {"note": 71, "velocity": 90, "duration": 222}, {"note": 69, "velocity": 90, "duration": 223}, {"note": 71, "velocity": 90, "duration": 481}, {"note": 0, "velocity": 0, "duration": 479}, {"note": 76, "velocity": 90, "duration": 339}, {"note": 71, "velocity": 90, "duration": 195}, {"note": 0, "velocity": 0, "duration": 165}, {"note": 71, "velocity": 90, "duration": 123}, {"note": 69, "velocity": 90, "duration": 123}, {"note": 71, "velocity": 90, "duration": 223}, {"note": 67, "velocity": 90, "duration": 363}, {"note": 0, "velocity": 0, "duration": 147}, {"note": 62, "velocity": 90, "duration": 58}, {"note": 0, "velocity": 0, "duration": 62}, {"note": 62, "velocity": 90, "duration": 69}, {"note": 67, "velocity": 90, "duration": 114}, {"note": 0, "velocity": 0, "duration": 126}, {"note": 67, "velocity": 90, "duration": 42}, {"note": 0, "velocity": 0, "duration": 78}, {"note": 67, "velocity": 90, "duration": 46}, {"note": 0, "velocity": 0, "duration": 74}, {"note": 67, "velocity": 90, "duration": 65}, {"note": 0, "velocity": 0, "duration": 175}, {"note": 67, "velocity": 90, "duration": 41}, {"note": 0, "velocity": 0, "duration": 79}, {"note": 67, "velocity": 90, "duration": 43}, {"note": 0, "velocity": 0, "duration": 77}, {"note": 67, "velocity": 90, "duration": 180}, {"note": 64, "velocity": 90, "duration": 238}, {"note": 0, "velocity": 0, "duration": 242}, {"note": 62, "velocity": 87, "duration": 63}, {"note": 62, "velocity": 87, "duration": 81}, {"note": 71, "velocity": 87, "duration": 116}, {"note": 0, "velocity": 0, "duration": 124}, {"note": 71, "velocity": 87, "duration": 88}, {"note": 0, "velocity": 0, "duration": 152}, {"note": 71, "velocity": 87, "duration": 50}, {"note": 0, "velocity": 0, "duration": 70}, {"note": 71, "velocity": 87, "duration": 242}, {"note": 72, "velocity": 87, "duration": 126}, {"note": 74, "velocity": 87, "duration": 212}, {"note": 69, "velocity": 87, "duration": 488}, {"note": 62, "velocity": 87, "duration": 180}, {"note": 74, "velocity": 87, "duration": 389}, {"note": 71, "velocity": 87, "duration": 253}, {"note": 0, "velocity": 0, "duration": 107}, {"note": 71, "velocity": 87, "duration": 186}, {"note": 69, "velocity": 87, "duration": 186}, {"note": 71, "velocity": 87, "duration": 480}, {"note": 0, "velocity": 0, "duration": 275}, {"note": 76, "velocity": 87, "duration": 340}, {"note": 71, "velocity": 87, "duration": 252}, {"note": 0, "velocity": 0, "duration": 108}, {"note": 71, "velocity": 87, "duration": 119}, {"note": 69, "velocity": 87, "duration": 119}, {"note": 71, "velocity": 87, "duration": 303}, {"note": 67, "velocity": 87, "duration": 383}, {"note": 62, "velocity": 87, "duration": 65}, {"note": 62, "velocity": 87, "duration": 69}, {"note": 67, "velocity": 87, "duration": 179}, {"note": 67, "velocity": 87, "duration": 69}, {"note": 0, "velocity": 0, "duration": 217}, {"note": 67, "velocity": 87, "duration": 95}, {"note": 67, "velocity": 87, "duration": 95}, {"note": 0, "velocity": 0, "duration": 145}, {"note": 67, "velocity": 87, "duration": 85}, {"note": 67, "velocity": 87, "duration": 185}, {"note": 64, "velocity": 87, "duration": 238}, {"note": 0, "velocity": 0, "duration": 242}, {"note": 62, "velocity": 87, "duration": 55}, {"note": 0, "velocity": 0, "duration": 65}, {"note": 62, "velocity": 87, "duration": 72}, {"note": 71, "velocity": 87, "duration": 164}, {"note": 0, "velocity": 0, "duration": 76}, {"note": 71, "velocity": 87, "duration": 159}, {"note": 0, "velocity": 0, "duration": 81}, {"note": 71, "velocity": 87, "duration": 80}, {"note": 71, "velocity": 87, "duration": 243}, {"note": 72, "velocity": 87, "duration": 114}, {"note": 74, "velocity": 87, "duration": 206}, {"note": 69, "velocity": 87, "duration": 732}, {"note": 0, "velocity": 0, "duration": 468}, {"note": 71, "velocity": 87, "duration": 254}, {"note": 69, "velocity": 87, "duration": 242}, {"note": 71, "velocity": 87, "duration": 356}, {"note": 67, "velocity": 87, "duration": 1028}, {"note": 0, "velocity": 0, "duration": 532}, {"note": 67, "velocity": 87, "duration": 238}, {"note": 69, "velocity": 87, "duration": 238}, {"note": 71, "velocity": 87, "duration": 152}, {"note": 0, "velocity": 0, "duration": 88}, {"note": 71, "velocity": 87, "duration": 934}, {"note": 62, "velocity": 87, "duration": 62}, {"note": 62, "velocity": 87, "duration": 118}, {"note": 67, "velocity": 87, "duration": 153}, {"note": 0, "velocity": 0, "duration": 87}, {"note": 67, "velocity": 87, "duration": 118}, {"note": 0, "velocity": 0, "duration": 122}, {"note": 67, "velocity": 87, "duration": 107}, {"note": 67, "velocity": 87, "duration": 118}, {"note": 64, "velocity": 87, "duration": 671}, {"note": 0, "velocity": 0, "duration": 289}, {"note": 62, "velocity": 87, "duration": 59}, {"note": 0, "velocity": 0, "duration": 61}, {"note": 62, "velocity": 87, "duration": 75}, {"note": 67, "velocity": 87, "duration": 130}, {"note": 0, "velocity": 0, "duration": 110}, {"note": 67, "velocity": 87, "duration": 222}, {"note": 69, "velocity": 87, "duration": 239}, {"note": 62, "velocity": 87, "duration": 182}, {"note": 69, "velocity": 87, "duration": 478}, {"note": 0, "velocity": 0, "duration": 242}, {"note": 62, "velocity": 87, "duration": 58}, {"note": 0, "velocity": 0, "duration": 62}, {"note": 62, "velocity": 87, "duration": 91}, {"note": 72, "velocity": 87, "duration": 231}, {"note": 71, "velocity": 87, "duration": 402}, {"note": 0, "velocity": 0, "duration": 78}, {"note": 71, "velocity": 87, "duration": 232}, {"note": 69, "velocity": 87, "duration": 478}, {"note": 0, "velocity": 0, "duration": 122}, {"note": 62, "velocity": 87, "duration": 57}, {"note": 0, "velocity": 0, "duration": 63}, {"note": 62, "velocity": 87, "duration": 63}, {"note": 62, "velocity": 87, "duration": 70}, {"note": 67, "velocity": 87, "duration": 230}, {"note": 0, "velocity": 0, "duration": 130}, {"note": 69, "velocity": 87, "duration": 238}, {"note": 0, "velocity": 0, "duration": 122}, {"note": 71, "velocity": 87, "duration": 238}, {"note": 62, "velocity": 87, "duration": 598}, {"note": 59, "velocity": 87, "duration": 59}, {"note": 0, "velocity": 0, "duration": 61}, {"note": 59, "velocity": 87, "duration": 59}, {"note": 0, "velocity": 0, "duration": 61}, {"note": 59, "velocity": 87, "duration": 94}, {"note": 66, "velocity": 87, "duration": 193}, {"note": 64, "velocity": 87, "duration": 238}, {"note": 66, "velocity": 87, "duration": 238}, {"note": 59, "velocity": 87, "duration": 718}, {"note": 0, "velocity": 0, "duration": 242}, {"note": 59, "velocity": 87, "duration": 43}, {"note": 0, "velocity": 0, "duration": 77}, {"note": 59, "velocity": 87, "duration": 60}, {"note": 69, "velocity": 87, "duration": 76}, {"note": 0, "velocity": 0, "duration": 164}, {"note": 69, "velocity": 87, "duration": 112}, {"note": 0, "velocity": 0, "duration": 128}, {"note": 69, "velocity": 87, "duration": 69}, {"note": 69, "velocity": 87, "duration": 51}, {"note": 0, "velocity": 0, "duration": 69}, {"note": 67, "velocity": 87, "duration": 84}, {"note": 71, "velocity": 87, "duration": 126}, {"note": 69, "velocity": 87, "duration": 479}, {"note": 0, "velocity": 0, "duration": 241}, {"note": 66, "velocity": 87, "duration": 52}, {"note": 0, "velocity": 0, "duration": 68}, {"note": 66, "velocity": 87, "duration": 66}, {"note": 74, "velocity": 87, "duration": 106}, {"note": 0, "velocity": 0, "duration": 134}, {"note": 74, "velocity": 87, "duration": 85}, {"note": 0, "velocity": 0, "duration": 155}, {"note": 74, "velocity": 87, "duration": 51}, {"note": 0, "velocity": 0, "duration": 69}, {"note": 74, "velocity": 87, "duration": 96}, {"note": 0, "velocity": 0, "duration": 144}, {"note": 74, "velocity": 87, "duration": 51}, {"note": 0, "velocity": 0, "duration": 69}, {"note": 71, "velocity": 87, "duration": 235}, {"note": 69, "velocity": 87, "duration": 441}, {"note": 62, "velocity": 87, "duration": 195}, {"note": 67, "velocity": 87, "duration": 386}, {"note": 69, "velocity": 87, "duration": 353}, {"note": 71, "velocity": 87, "duration": 160}, {"note": 0, "velocity": 0, "duration": 80}, {"note": 71, "velocity": 87, "duration": 502}, {"note": 0, "velocity": 0, "duration": 218}, {"note": 62, "velocity": 87, "duration": 66}, {"note": 62, "velocity": 87, "duration": 76}, {"note": 67, "velocity": 87, "duration": 126}, {"note": 0, "velocity": 0, "duration": 114}, {"note": 67, "velocity": 87, "duration": 100}, {"note": 67, "velocity": 87, "duration": 190}, {"note": 67, "velocity": 87, "duration": 90}, {"note": 67, "velocity": 87, "duration": 204}, {"note": 64, "velocity": 87, "duration": 472}, {"note": 0, "velocity": 0, "duration": 248}, {"note": 62, "velocity": 87, "duration": 67}, {"note": 62, "velocity": 87, "duration": 62}, {"note": 67, "velocity": 87, "duration": 152}, {"note": 0, "velocity": 0, "duration": 88}, {"note": 67, "velocity": 87, "duration": 207}, {"note": 67, "velocity": 87, "duration": 228}, {"note": 67, "velocity": 87, "duration": 92}, {"note": 62, "velocity": 87, "duration": 118}, {"note": 69, "velocity": 87, "duration": 478}, {"note": 0, "velocity": 0, "duration": 242}, {"note": 62, "velocity": 87, "duration": 118}, {"note": 62, "velocity": 87, "duration": 77}, {"note": 72, "velocity": 87, "duration": 116}, {"note": 0, "velocity": 0, "duration": 124}, {"note": 71, "velocity": 87, "duration": 202}, {"note": 0, "velocity": 0, "duration": 278}, {"note": 72, "velocity": 87, "duration": 238}, {"note": 69, "velocity": 87, "duration": 489}, {"note": 0, "velocity": 0, "duration": 111}, {"note": 62, "velocity": 87, "duration": 46}, {"note": 0, "velocity": 0, "duration": 74}, {"note": 62, "velocity": 87, "duration": 57}, {"note": 0, "velocity": 0, "duration": 63}, {"note": 62, "velocity": 87, "duration": 72}, {"note": 67, "velocity": 87, "duration": 263}, {"note": 0, "velocity": 0, "duration": 97}, {"note": 69, "velocity": 87, "duration": 384}, {"note": 71, "velocity": 87, "duration": 246}, {"note": 71, "velocity": 87, "duration": 6}, {"note": 0, "velocity": 0, "duration": 594}, {"note": 59, "velocity": 87, "duration": 56}, {"note": 0, "velocity": 0, "duration": 64}, {"note": 59, "velocity": 87, "duration": 62}, {"note": 59, "velocity": 87, "duration": 111}, {"note": 67, "velocity": 87, "duration": 243}, {"note": 66, "velocity": 87, "duration": 233}, {"note": 67, "velocity": 87, "duration": 246}, {"note": 59, "velocity": 87, "duration": 545}, {"note": 0, "velocity": 0, "duration": 415}, {"note": 59, "velocity": 87, "duration": 62}, {"note": 59, "velocity": 87, "duration": 68}, {"note": 69, "velocity": 87, "duration": 90}, {"note": 0, "velocity": 0, "duration": 150}, {"note": 69, "velocity": 87, "duration": 140}, {"note": 0, "velocity": 0, "duration": 100}, {"note": 69, "velocity": 87, "duration": 118}, {"note": 69, "velocity": 87, "duration": 186}, {"note": 69, "velocity": 87, "duration": 147}, {"note": 69, "velocity": 87, "duration": 27}, {"note": 0, "velocity": 0, "duration": 213}, {"note": 69, "velocity": 87, "duration": 236}, {"note": 0, "velocity": 0, "duration": 244}, {"note": 66, "velocity": 87, "duration": 58}, {"note": 0, "velocity": 0, "duration": 62}, {"note": 66, "velocity": 87, "duration": 63}, {"note": 74, "velocity": 87, "duration": 75}, {"note": 0, "velocity": 0, "duration": 165}, {"note": 74, "velocity": 87, "duration": 73}, {"note": 0, "velocity": 0, "duration": 167}, {"note": 74, "velocity": 87, "duration": 60}, {"note": 0, "velocity": 0, "duration": 180}, {"note": 74, "velocity": 87, "duration": 44}, {"note": 0, "velocity": 0, "duration": 76}, {"note": 74, "velocity": 87, "duration": 64}, {"note": 71, "velocity": 87, "duration": 304}, {"note": 69, "velocity": 87, "duration": 369}, {"note": 62, "velocity": 87, "duration": 238}, {"note": 74, "velocity": 87, "duration": 358}, {"note": 71, "velocity": 87, "duration": 117}, {"note": 0, "velocity": 0, "duration": 243}, {"note": 71, "velocity": 87, "duration": 222}, {"note": 69, "velocity": 87, "duration": 239}, {"note": 71, "velocity": 87, "duration": 240}, {"note": 0, "velocity": 0, "duration": 480}, {"note": 76, "velocity": 87, "duration": 339}, {"note": 71, "velocity": 87, "duration": 118}, {"note": 0, "velocity": 0, "duration": 242}, {"note": 71, "velocity": 87, "duration": 123}, {"note": 69, "velocity": 87, "duration": 123}, {"note": 71, "velocity": 87, "duration": 249}, {"note": 67, "velocity": 87, "duration": 286}, {"note": 0, "velocity": 0, "duration": 194}, {"note": 62, "velocity": 87, "duration": 238}, {"note": 67, "velocity": 87, "duration": 114}, {"note": 0, "velocity": 0, "duration": 126}, {"note": 67, "velocity": 87, "duration": 42}, {"note": 0, "velocity": 0, "duration": 78}, {"note": 67, "velocity": 87, "duration": 46}, {"note": 0, "velocity": 0, "duration": 74}, {"note": 67, "velocity": 87, "duration": 65}, {"note": 0, "velocity": 0, "duration": 175}, {"note": 67, "velocity": 87, "duration": 41}, {"note": 0, "velocity": 0, "duration": 79}, {"note": 67, "velocity": 87, "duration": 43}, {"note": 0, "velocity": 0, "duration": 77}, {"note": 66, "velocity": 87, "duration": 180}, {"note": 64, "velocity": 87, "duration": 238}, {"note": 0, "velocity": 0, "duration": 242}, {"note": 62, "velocity": 87, "duration": 63}, {"note": 62, "velocity": 87, "duration": 81}, {"note": 71, "velocity": 87, "duration": 116}, {"note": 0, "velocity": 0, "duration": 124}, {"note": 71, "velocity": 87, "duration": 39}, {"note": 0, "velocity": 0, "duration": 81}, {"note": 71, "velocity": 87, "duration": 50}, {"note": 0, "velocity": 0, "duration": 70}, {"note": 71, "velocity": 87, "duration": 242}, {"note": 76, "velocity": 87, "duration": 238}, {"note": 75, "velocity": 87, "duration": 212}, {"note": 0, "velocity": 0, "duration": 156}, {"note": 69, "velocity": 87, "duration": 410}, {"note": 62, "velocity": 87, "duration": 180}, {"note": 74, "velocity": 87, "duration": 389}, {"note": 71, "velocity": 87, "duration": 118}, {"note": 0, "velocity": 0, "duration": 242}, {"note": 71, "velocity": 87, "duration": 143}, {"note": 69, "velocity": 87, "duration": 127}, {"note": 71, "velocity": 87, "duration": 480}, {"note": 0, "velocity": 0, "duration": 480}, {"note": 76, "velocity": 87, "duration": 340}, {"note": 72, "velocity": 87, "duration": 353}, {"note": 72, "velocity": 87, "duration": 119}, {"note": 71, "velocity": 87, "duration": 108}, {"note": 72, "velocity": 87, "duration": 201}, {"note": 69, "velocity": 87, "duration": 452}, {"note": 62, "velocity": 87, "duration": 65}, {"note": 62, "velocity": 87, "duration": 69}, {"note": 67, "velocity": 85, "duration": 118}, {"note": 0, "velocity": 0, "duration": 122}, {"note": 67, "velocity": 85, "duration": 75}, {"note": 0, "velocity": 0, "duration": 165}, {"note": 66, "velocity": 85, "duration": 95}, {"note": 67, "velocity": 85, "duration": 86}, {"note": 0, "velocity": 0, "duration": 145}, {"note": 67, "velocity": 85, "duration": 85}, {"note": 67, "velocity": 85, "duration": 185}, {"note": 64, "velocity": 85, "duration": 238}, {"note": 0, "velocity": 0, "duration": 242}, {"note": 62, "velocity": 85, "duration": 55}, {"note": 62, "velocity": 85, "duration": 55}, {"note": 0, "velocity": 0, "duration": 65}, {"note": 62, "velocity": 85, "duration": 72}, {"note": 62, "velocity": 85, "duration": 72}, {"note": 70, "velocity": 85, "duration": 82}, {"note": 0, "velocity": 0, "duration": 158}, {"note": 70, "velocity": 85, "duration": 66}, {"note": 0, "velocity": 0, "duration": 174}, {"note": 70, "velocity": 85, "duration": 95}, {"note": 70, "velocity": 85, "duration": 149}, {"note": 0, "velocity": 0, "duration": 91}, {"note": 73, "velocity": 85, "duration": 117}, {"note": 74, "velocity": 85, "duration": 354}, {"note": 69, "velocity": 83, "duration": 571}, {"note": 0, "velocity": 0, "duration": 1469}, {"note": 71, "velocity": 83, "duration": 35}, {"note": 71, "velocity": 83, "duration": 35}, {"note": 0, "velocity": 0, "duration": 200}, {"note": 69, "velocity": 83, "duration": 244}, {"note": 71, "velocity": 83, "duration": 606}, {"note": 69, "velocity": 83, "duration": 241}, {"note": 67, "velocity": 83, "duration": 940}, {"note": 0, "velocity": 0, "duration": 6980}, {"note": 67, "velocity": 83, "duration": 208}, {"note": 69, "velocity": 83, "duration": 235}, {"note": 71, "velocity": 83, "duration": 184}, {"note": 71, "velocity": 83, "duration": 399}, {"note": 0, "velocity": 0, "duration": 521}, {"note": 62, "velocity": 83, "duration": 159}, {"note": 0, "velocity": 0, "duration": 81}, {"note": 67, "velocity": 83, "duration": 214}, {"note": 0, "velocity": 0, "duration": 66}, {"note": 67, "velocity": 83, "duration": 97}, {"note": 0, "velocity": 0, "duration": 163}, {"note": 67, "velocity": 83, "duration": 360}, {"note": 67, "velocity": 83, "duration": 196}, {"note": 64, "velocity": 83, "duration": 279}, {"note": 0, "velocity": 0, "duration": 515}, {"note": 62, "velocity": 83, "duration": 90}, {"note": 62, "velocity": 83, "duration": 105}, {"note": 67, "velocity": 83, "duration": 122}, {"note": 0, "velocity": 0, "duration": 130}, {"note": 67, "velocity": 83, "duration": 331}, {"note": 67, "velocity": 83, "duration": 64}, {"note": 0, "velocity": 0, "duration": 185}, {"note": 62, "velocity": 83, "duration": 165}, {"note": 0, "velocity": 0, "duration": 166}, {"note": 69, "velocity": 83, "duration": 228}, {"note": 0, "velocity": 0, "duration": 652}, {"note": 62, "velocity": 83, "duration": 55}, {"note": 0, "velocity": 0, "duration": 65}, {"note": 62, "velocity": 83, "duration": 114}, {"note": 72, "velocity": 83, "duration": 240}, {"note": 71, "velocity": 83, "duration": 548}, {"note": 69, "velocity": 83, "duration": 238}, {"note": 62, "velocity": 83, "duration": 702}, {"note": 62, "velocity": 83, "duration": 60}, {"note": 62, "velocity": 83, "duration": 99}, {"note": 62, "velocity": 83, "duration": 99}, {"note": 67, "velocity": 83, "duration": 314}, {"note": 69, "velocity": 83, "duration": 305}, {"note": 0, "velocity": 0, "duration": 195}, {"note": 71, "velocity": 83, "duration": 234}, {"note": 62, "velocity": 83, "duration": 616}, {"note": 0, "velocity": 0, "duration": 144}, {"note": 59, "velocity": 83, "duration": 52}, {"note": 0, "velocity": 0, "duration": 68}, {"note": 59, "velocity": 83, "duration": 75}, {"note": 66, "velocity": 83, "duration": 208}, {"note": 0, "velocity": 0, "duration": 72}, {"note": 66, "velocity": 83, "duration": 192}, {"note": 67, "velocity": 83, "duration": 321}, {"note": 66, "velocity": 83, "duration": 172}, {"note": 59, "velocity": 83, "duration": 600}, {"note": 0, "velocity": 0, "duration": 220}, {"note": 59, "velocity": 83, "duration": 64}, {"note": 59, "velocity": 83, "duration": 78}, {"note": 69, "velocity": 83, "duration": 122}, {"note": 0, "velocity": 0, "duration": 158}, {"note": 69, "velocity": 83, "duration": 175}, {"note": 67, "velocity": 83, "duration": 174}, {"note": 69, "velocity": 83, "duration": 217}, {"note": 67, "velocity": 83, "duration": 176}, {"note": 69, "velocity": 83, "duration": 181}, {"note": 69, "velocity": 83, "duration": 604}, {"note": 0, "velocity": 0, "duration": 176}, {"note": 66, "velocity": 83, "duration": 73}, {"note": 66, "velocity": 83, "duration": 93}, {"note": 0, "velocity": 0, "duration": 147}, {"note": 74, "velocity": 83, "duration": 192}, {"note": 74, "velocity": 83, "duration": 180}, {"note": 0, "velocity": 0, "duration": 180}, {"note": 74, "velocity": 83, "duration": 141}, {"note": 0, "velocity": 0, "duration": 99}, {"note": 74, "velocity": 83, "duration": 287}, {"note": 71, "velocity": 83, "duration": 287}, {"note": 69, "velocity": 83, "duration": 1867}, {"note": 0, "velocity": 0, "duration": 586}, {"note": 71, "velocity": 83, "duration": 855}, {"note": 69, "velocity": 83, "duration": 369}, {"note": 67, "velocity": 83, "duration": 1715}]]