[[{"note": 63, "velocity": 100, "duration": 95}, {"note": 65, "velocity": 96, "duration": 102}, {"note": 68, "velocity": 117, "duration": 138}, {"note": 0, "velocity": 0, "duration": 102}, {"note": 68, "velocity": 117, "duration": 338}, {"note": 0, "velocity": 0, "duration": 1102}, {"note": 63, "velocity": 112, "duration": 71}, {"note": 65, "velocity": 92, "duration": 86}, {"note": 68, "velocity": 112, "duration": 102}, {"note": 0, "velocity": 0, "duration": 138}, {"note": 72, "velocity": 127, "duration": 62}, {"note": 0, "velocity": 0, "duration": 178}, {"note": 68, "velocity": 112, "duration": 301}, {"note": 0, "velocity": 0, "duration": 899}, {"note": 63, "velocity": 99, "duration": 88}, {"note": 65, "velocity": 95, "duration": 89}, {"note": 68, "velocity": 99, "duration": 123}, {"note": 0, "velocity": 0, "duration": 117}, {"note": 72, "velocity": 127, "duration": 54}, {"note": 0, "velocity": 0, "duration": 66}, {"note": 72, "velocity": 112, "duration": 279}, {"note": 0, "velocity": 0, "duration": 1041}, {"note": 72, "velocity": 127, "duration": 99}, {"note": 70, "velocity": 97, "duration": 52}, {"note": 0, "velocity": 0, "duration": 68}, {"note": 70, "velocity": 100, "duration": 63}, {"note": 68, "velocity": 117, "duration": 75}, {"note": 0, "velocity": 0, "duration": 285}, {"note": 72, "velocity": 107, "duration": 174}, {"note": 0, "velocity": 0, "duration": 66}, {"note": 73, "velocity": 112, "duration": 246}, {"note": 72, "velocity": 107, "duration": 196}, {"note": 0, "velocity": 0, "duration": 284}, {"note": 72, "velocity": 102, "duration": 166}, {"note": 0, "velocity": 0, "duration": 74}, {"note": 73, "velocity": 112, "duration": 156}, {"note": 0, "velocity": 0, "duration": 84}, {"note": 75, "velocity": 107, "duration": 132}, {"note": 0, "velocity": 0, "duration": 108}, {"note": 72, "velocity": 122, "duration": 197}, {"note": 0, "velocity": 0, "duration": 523}, {"note": 65, "velocity": 95, "duration": 45}, {"note": 0, "velocity": 0, "duration": 75}, {"note": 68, "velocity": 99, "duration": 236}, {"note": 0, "velocity": 0, "duration": 724}, {"note": 68, "velocity": 88, "duration": 112}, {"note": 71, "velocity": 102, "duration": 96}, {"note": 71, "velocity": 117, "duration": 278}, {"note": 0, "velocity": 0, "duration": 82}, {"note": 70, "velocity": 122, "duration": 160}, {"note": 0, "velocity": 0, "duration": 80}, {"note": 68, "velocity": 77, "duration": 36}, {"note": 0, "velocity": 0, "duration": 84}, {"note": 68, "velocity": 112, "duration": 234}, {"note": 0, "velocity": 0, "duration": 846}, {"note": 63, "velocity": 100, "duration": 178}, {"note": 0, "velocity": 0, "duration": 62}, {"note": 65, "velocity": 93, "duration": 173}, {"note": 0, "velocity": 0, "duration": 67}, {"note": 68, "velocity": 93, "duration": 160}, {"note": 0, "velocity": 0, "duration": 80}, {"note": 72, "velocity": 117, "duration": 119}, {"note": 70, "velocity": 99, "duration": 680}, {"note": 72, "velocity": 107, "duration": 158}, {"note": 0, "velocity": 0, "duration": 82}, {"note": 68, "velocity": 97, "duration": 700}, {"note": 0, "velocity": 0, "duration": 980}, {"note": 63, "velocity": 100, "duration": 95}, {"note": 65, "velocity": 96, "duration": 102}, {"note": 68, "velocity": 117, "duration": 138}, {"note": 0, "velocity": 0, "duration": 102}, {"note": 68, "velocity": 117, "duration": 338}, {"note": 0, "velocity": 0, "duration": 1102}, {"note": 63, "velocity": 112, "duration": 71}, {"note": 65, "velocity": 92, "duration": 86}, {"note": 68, "velocity": 112, "duration": 102}, {"note": 0, "velocity": 0, "duration": 138}, {"note": 72, "velocity": 127, "duration": 62}, {"note": 0, "velocity": 0, "duration": 178}, {"note": 68, "velocity": 112, "duration": 301}, {"note": 0, "velocity": 0, "duration": 899}, {"note": 63, "velocity": 99, "duration": 88}, {"note": 65, "velocity": 95, "duration": 89}, {"note": 68, "velocity": 99, "duration": 123}, {"note": 0, "velocity": 0, "duration": 117}, {"note": 72, "velocity": 127, "duration": 54}, {"note": 0, "velocity": 0, "duration": 66}, {"note": 72, "velocity": 112, "duration": 279}, {"note": 0, "velocity": 0, "duration": 1041}, {"note": 72, "velocity": 127, "duration": 99}, {"note": 70, "velocity": 97, "duration": 52}, {"note": 0, "velocity": 0, "duration": 68}, {"note": 70, "velocity": 100, "duration": 63}, {"note": 68, "velocity": 117, "duration": 75}, {"note": 0, "velocity": 0, "duration": 285}, {"note": 72, "velocity": 107, "duration": 174}, {"note": 0, "velocity": 0, "duration": 66}, {"note": 73, "velocity": 112, "duration": 246}, {"note": 72, "velocity": 107, "duration": 196}, {"note": 0, "velocity": 0, "duration": 284}, {"note": 72, "velocity": 102, "duration": 166}, {"note": 0, "velocity": 0, "duration": 74}, {"note": 73, "velocity": 112, "duration": 156}, {"note": 0, "velocity": 0, "duration": 84}, {"note": 75, "velocity": 107, "duration": 132}, {"note": 0, "velocity": 0, "duration": 108}, {"note": 72, "velocity": 122, "duration": 197}, {"note": 0, "velocity": 0, "duration": 523}, {"note": 65, "velocity": 95, "duration": 45}, {"note": 0, "velocity": 0, "duration": 75}, {"note": 68, "velocity": 99, "duration": 236}, {"note": 0, "velocity": 0, "duration": 724}, {"note": 68, "velocity": 88, "duration": 112}, {"note": 71, "velocity": 102, "duration": 96}, {"note": 71, "velocity": 117, "duration": 278}, {"note": 0, "velocity": 0, "duration": 82}, {"note": 70, "velocity": 122, "duration": 160}, {"note": 0, "velocity": 0, "duration": 80}, {"note": 68, "velocity": 77, "duration": 36}, {"note": 0, "velocity": 0, "duration": 84}, {"note": 68, "velocity": 112, "duration": 234}, {"note": 0, "velocity": 0, "duration": 846}, {"note": 63, "velocity": 100, "duration": 178}, {"note": 0, "velocity": 0, "duration": 62}, {"note": 65, "velocity": 93, "duration": 173}, {"note": 0, "velocity": 0, "duration": 67}, {"note": 68, "velocity": 93, "duration": 160}, {"note": 0, "velocity": 0, "duration": 80}, {"note": 72, "velocity": 117, "duration": 119}, {"note": 70, "velocity": 99, "duration": 680}, {"note": 72, "velocity": 107, "duration": 158}, {"note": 0, "velocity": 0, "duration": 82}, {"note": 68, "velocity": 97, "duration": 700}, {"note": 0, "velocity": 0, "duration": 1220}, {"note": 68, "velocity": 100, "duration": 141}, {"note": 0, "velocity": 0, "duration": 99}, {"note": 72, "velocity": 122, "duration": 144}, {"note": 0, "velocity": 0, "duration": 96}, {"note": 68, "velocity": 99, "duration": 120}, {"note": 0, "velocity": 0, "duration": 120}, {"note": 68, "velocity": 107, "duration": 127}, {"note": 0, "velocity": 0, "duration": 113}, {"note": 65, "velocity": 99, "duration": 69}, {"note": 68, "velocity": 112, "duration": 440}, {"note": 0, "velocity": 0, "duration": 640}, {"note": 70, "velocity": 107, "duration": 142}, {"note": 0, "velocity": 0, "duration": 98}, {"note": 70, "velocity": 102, "duration": 128}, {"note": 0, "velocity": 0, "duration": 112}, {"note": 70, "velocity": 122, "duration": 107}, {"note": 0, "velocity": 0, "duration": 133}, {"note": 70, "velocity": 112, "duration": 68}, {"note": 68, "velocity": 102, "duration": 509}, {"note": 0, "velocity": 0, "duration": 451}, {"note": 68, "velocity": 77, "duration": 131}, {"note": 73, "velocity": 112, "duration": 168}, {"note": 0, "velocity": 0, "duration": 72}, {"note": 73, "velocity": 117, "duration": 158}, {"note": 0, "velocity": 0, "duration": 82}, {"note": 73, "velocity": 102, "duration": 154}, {"note": 0, "velocity": 0, "duration": 86}, {"note": 73, "velocity": 112, "duration": 123}, {"note": 75, "velocity": 112, "duration": 168}, {"note": 0, "velocity": 0, "duration": 192}, {"note": 72, "velocity": 99, "duration": 217}, {"note": 70, "velocity": 97, "duration": 235}, {"note": 68, "velocity": 95, "duration": 317}, {"note": 0, "velocity": 0, "duration": 163}, {"note": 70, "velocity": 102, "duration": 168}, {"note": 0, "velocity": 0, "duration": 72}, {"note": 72, "velocity": 102, "duration": 147}, {"note": 0, "velocity": 0, "duration": 93}, {"note": 72, "velocity": 112, "duration": 242}, {"note": 0, "velocity": 0, "duration": 718}, {"note": 68, "velocity": 99, "duration": 131}, {"note": 0, "velocity": 0, "duration": 109}, {"note": 75, "velocity": 122, "duration": 139}, {"note": 0, "velocity": 0, "duration": 101}, {"note": 75, "velocity": 117, "duration": 143}, {"note": 0, "velocity": 0, "duration": 97}, {"note": 75, "velocity": 112, "duration": 139}, {"note": 0, "velocity": 0, "duration": 101}, {"note": 75, "velocity": 127, "duration": 47}, {"note": 0, "velocity": 0, "duration": 73}, {"note": 75, "velocity": 122, "duration": 139}, {"note": 0, "velocity": 0, "duration": 701}, {"note": 73, "velocity": 117, "duration": 93}, {"note": 71, "velocity": 90, "duration": 103}, {"note": 73, "velocity": 107, "duration": 145}, {"note": 0, "velocity": 0, "duration": 95}, {"note": 73, "velocity": 107, "duration": 57}, {"note": 0, "velocity": 0, "duration": 63}, {"note": 73, "velocity": 107, "duration": 132}, {"note": 0, "velocity": 0, "duration": 108}, {"note": 78, "velocity": 97, "duration": 145}, {"note": 0, "velocity": 0, "duration": 70}, {"note": 73, "velocity": 89, "duration": 94}, {"note": 75, "velocity": 92, "duration": 79}, {"note": 73, "velocity": 72, "duration": 448}, {"note": 0, "velocity": 0, "duration": 745}, {"note": 73, "velocity": 127, "duration": 115}, {"note": 0, "velocity": 0, "duration": 125}, {"note": 73, "velocity": 127, "duration": 98}, {"note": 0, "velocity": 0, "duration": 262}, {"note": 65, "velocity": 96, "duration": 112}, {"note": 73, "velocity": 100, "duration": 164}, {"note": 0, "velocity": 0, "duration": 76}, {"note": 71, "velocity": 127, "duration": 166}, {"note": 0, "velocity": 0, "duration": 74}, {"note": 73, "velocity": 127, "duration": 131}, {"note": 0, "velocity": 0, "duration": 109}, {"note": 75, "velocity": 122, "duration": 1056}, {"note": 0, "velocity": 0, "duration": 744}, {"note": 73, "velocity": 117, "duration": 105}, {"note": 72, "velocity": 86, "duration": 141}, {"note": 73, "velocity": 90, "duration": 108}, {"note": 72, "velocity": 83, "duration": 127}, {"note": 70, "velocity": 99, "duration": 408}, {"note": 0, "velocity": 0, "duration": 912}, {"note": 63, "velocity": 100, "duration": 95}, {"note": 65, "velocity": 96, "duration": 102}, {"note": 68, "velocity": 117, "duration": 138}, {"note": 0, "velocity": 0, "duration": 102}, {"note": 68, "velocity": 117, "duration": 338}, {"note": 0, "velocity": 0, "duration": 1102}, {"note": 63, "velocity": 112, "duration": 71}, {"note": 65, "velocity": 92, "duration": 86}, {"note": 68, "velocity": 112, "duration": 102}, {"note": 65, "velocity": 96, "duration": 70}, {"note": 72, "velocity": 127, "duration": 62}, {"note": 0, "velocity": 0, "duration": 178}, {"note": 68, "velocity": 112, "duration": 301}, {"note": 0, "velocity": 0, "duration": 899}, {"note": 63, "velocity": 99, "duration": 88}, {"note": 65, "velocity": 95, "duration": 89}, {"note": 68, "velocity": 99, "duration": 123}, {"note": 0, "velocity": 0, "duration": 117}, {"note": 72, "velocity": 127, "duration": 54}, {"note": 0, "velocity": 0, "duration": 66}, {"note": 72, "velocity": 112, "duration": 279}, {"note": 0, "velocity": 0, "duration": 1041}, {"note": 72, "velocity": 127, "duration": 99}, {"note": 70, "velocity": 97, "duration": 52}, {"note": 0, "velocity": 0, "duration": 68}, {"note": 70, "velocity": 100, "duration": 63}, {"note": 68, "velocity": 117, "duration": 75}, {"note": 0, "velocity": 0, "duration": 285}, {"note": 72, "velocity": 107, "duration": 174}, {"note": 0, "velocity": 0, "duration": 66}, {"note": 73, "velocity": 112, "duration": 246}, {"note": 72, "velocity": 107, "duration": 196}, {"note": 0, "velocity": 0, "duration": 284}, {"note": 72, "velocity": 102, "duration": 166}, {"note": 0, "velocity": 0, "duration": 74}, {"note": 73, "velocity": 112, "duration": 156}, {"note": 0, "velocity": 0, "duration": 84}, {"note": 75, "velocity": 107, "duration": 132}, {"note": 0, "velocity": 0, "duration": 108}, {"note": 72, "velocity": 122, "duration": 197}, {"note": 0, "velocity": 0, "duration": 523}, {"note": 65, "velocity": 95, "duration": 45}, {"note": 0, "velocity": 0, "duration": 75}, {"note": 68, "velocity": 99, "duration": 236}, {"note": 0, "velocity": 0, "duration": 724}, {"note": 68, "velocity": 88, "duration": 112}, {"note": 71, "velocity": 102, "duration": 96}, {"note": 71, "velocity": 117, "duration": 278}, {"note": 0, "velocity": 0, "duration": 82}, {"note": 70, "velocity": 122, "duration": 160}, {"note": 0, "velocity": 0, "duration": 80}, {"note": 68, "velocity": 77, "duration": 36}, {"note": 0, "velocity": 0, "duration": 84}, {"note": 68, "velocity": 112, "duration": 234}, {"note": 0, "velocity": 0, "duration": 846}, {"note": 63, "velocity": 100, "duration": 178}, {"note": 0, "velocity": 0, "duration": 62}, {"note": 65, "velocity": 93, "duration": 173}, {"note": 0, "velocity": 0, "duration": 67}, {"note": 68, "velocity": 93, "duration": 160}, {"note": 0, "velocity": 0, "duration": 80}, {"note": 72, "velocity": 117, "duration": 119}, {"note": 70, "velocity": 99, "duration": 680}, {"note": 72, "velocity": 107, "duration": 158}, {"note": 0, "velocity": 0, "duration": 82}, {"note": 68, "velocity": 97, "duration": 700}, {"note": 0, "velocity": 0, "duration": 18500}, {"note": 68, "velocity": 100, "duration": 141}, {"note": 0, "velocity": 0, "duration": 99}, {"note": 72, "velocity": 122, "duration": 144}, {"note": 0, "velocity": 0, "duration": 96}, {"note": 68, "velocity": 99, "duration": 120}, {"note": 0, "velocity": 0, "duration": 120}, {"note": 68, "velocity": 107, "duration": 127}, {"note": 0, "velocity": 0, "duration": 113}, {"note": 65, "velocity": 99, "duration": 69}, {"note": 68, "velocity": 112, "duration": 440}, {"note": 0, "velocity": 0, "duration": 640}, {"note": 70, "velocity": 107, "duration": 142}, {"note": 0, "velocity": 0, "duration": 98}, {"note": 70, "velocity": 102, "duration": 128}, {"note": 0, "velocity": 0, "duration": 112}, {"note": 70, "velocity": 122, "duration": 107}, {"note": 0, "velocity": 0, "duration": 133}, {"note": 70, "velocity": 112, "duration": 68}, {"note": 68, "velocity": 102, "duration": 509}, {"note": 0, "velocity": 0, "duration": 451}, {"note": 68, "velocity": 100, "duration": 131}, {"note": 73, "velocity": 112, "duration": 168}, {"note": 0, "velocity": 0, "duration": 72}, {"note": 73, "velocity": 117, "duration": 158}, {"note": 0, "velocity": 0, "duration": 82}, {"note": 73, "velocity": 102, "duration": 154}, {"note": 0, "velocity": 0, "duration": 86}, {"note": 73, "velocity": 112, "duration": 123}, {"note": 75, "velocity": 112, "duration": 168}, {"note": 0, "velocity": 0, "duration": 192}, {"note": 72, "velocity": 99, "duration": 217}, {"note": 70, "velocity": 97, "duration": 235}, {"note": 68, "velocity": 95, "duration": 317}, {"note": 0, "velocity": 0, "duration": 163}, {"note": 70, "velocity": 102, "duration": 168}, {"note": 0, "velocity": 0, "duration": 72}, {"note": 72, "velocity": 102, "duration": 147}, {"note": 0, "velocity": 0, "duration": 93}, {"note": 72, "velocity": 112, "duration": 242}, {"note": 0, "velocity": 0, "duration": 718}, {"note": 68, "velocity": 99, "duration": 131}, {"note": 0, "velocity": 0, "duration": 109}, {"note": 75, "velocity": 122, "duration": 139}, {"note": 0, "velocity": 0, "duration": 101}, {"note": 75, "velocity": 117, "duration": 143}, {"note": 0, "velocity": 0, "duration": 97}, {"note": 75, "velocity": 112, "duration": 139}, {"note": 0, "velocity": 0, "duration": 101}, {"note": 75, "velocity": 127, "duration": 47}, {"note": 0, "velocity": 0, "duration": 73}, {"note": 75, "velocity": 122, "duration": 139}, {"note": 0, "velocity": 0, "duration": 701}, {"note": 73, "velocity": 117, "duration": 93}, {"note": 71, "velocity": 90, "duration": 103}, {"note": 73, "velocity": 107, "duration": 145}, {"note": 0, "velocity": 0, "duration": 95}, {"note": 73, "velocity": 107, "duration": 57}, {"note": 0, "velocity": 0, "duration": 63}, {"note": 73, "velocity": 107, "duration": 132}, {"note": 0, "velocity": 0, "duration": 108}, {"note": 78, "velocity": 97, "duration": 145}, {"note": 0, "velocity": 0, "duration": 70}, {"note": 73, "velocity": 89, "duration": 94}, {"note": 75, "velocity": 92, "duration": 79}, {"note": 73, "velocity": 72, "duration": 448}, {"note": 0, "velocity": 0, "duration": 745}, {"note": 73, "velocity": 127, "duration": 115}, {"note": 0, "velocity": 0, "duration": 125}, {"note": 73, "velocity": 127, "duration": 98}, {"note": 0, "velocity": 0, "duration": 262}, {"note": 63, "velocity": 88, "duration": 112}, {"note": 73, "velocity": 100, "duration": 164}, {"note": 0, "velocity": 0, "duration": 76}, {"note": 71, "velocity": 127, "duration": 166}, {"note": 0, "velocity": 0, "duration": 74}, {"note": 73, "velocity": 127, "duration": 131}, {"note": 0, "velocity": 0, "duration": 109}, {"note": 75, "velocity": 122, "duration": 1056}, {"note": 0, "velocity": 0, "duration": 744}, {"note": 73, "velocity": 117, "duration": 105}, {"note": 72, "velocity": 86, "duration": 141}, {"note": 73, "velocity": 90, "duration": 108}, {"note": 72, "velocity": 83, "duration": 127}, {"note": 70, "velocity": 99, "duration": 408}, {"note": 0, "velocity": 0, "duration": 912}, {"note": 63, "velocity": 100, "duration": 95}, {"note": 65, "velocity": 96, "duration": 102}, {"note": 68, "velocity": 117, "duration": 138}, {"note": 0, "velocity": 0, "duration": 102}, {"note": 68, "velocity": 117, "duration": 338}, {"note": 0, "velocity": 0, "duration": 1102}, {"note": 63, "velocity": 112, "duration": 71}, {"note": 65, "velocity": 92, "duration": 86}, {"note": 68, "velocity": 112, "duration": 102}, {"note": 65, "velocity": 96, "duration": 70}, {"note": 72, "velocity": 127, "duration": 62}, {"note": 0, "velocity": 0, "duration": 178}, {"note": 68, "velocity": 112, "duration": 301}, {"note": 0, "velocity": 0, "duration": 899}, {"note": 63, "velocity": 99, "duration": 88}, {"note": 65, "velocity": 95, "duration": 89}, {"note": 68, "velocity": 99, "duration": 123}, {"note": 0, "velocity": 0, "duration": 117}, {"note": 72, "velocity": 127, "duration": 54}, {"note": 0, "velocity": 0, "duration": 66}, {"note": 72, "velocity": 112, "duration": 279}, {"note": 0, "velocity": 0, "duration": 1041}, {"note": 72, "velocity": 127, "duration": 99}, {"note": 70, "velocity": 97, "duration": 52}, {"note": 0, "velocity": 0, "duration": 68}, {"note": 70, "velocity": 100, "duration": 63}, {"note": 68, "velocity": 117, "duration": 75}, {"note": 0, "velocity": 0, "duration": 285}, {"note": 72, "velocity": 107, "duration": 174}, {"note": 0, "velocity": 0, "duration": 66}, {"note": 73, "velocity": 112, "duration": 246}, {"note": 72, "velocity": 107, "duration": 196}, {"note": 0, "velocity": 0, "duration": 284}, {"note": 72, "velocity": 102, "duration": 166}, {"note": 0, "velocity": 0, "duration": 74}, {"note": 73, "velocity": 112, "duration": 156}, {"note": 0, "velocity": 0, "duration": 84}, {"note": 75, "velocity": 107, "duration": 132}, {"note": 0, "velocity": 0, "duration": 108}, {"note": 72, "velocity": 122, "duration": 197}, {"note": 0, "velocity": 0, "duration": 523}, {"note": 65, "velocity": 95, "duration": 45}, {"note": 0, "velocity": 0, "duration": 75}, {"note": 68, "velocity": 99, "duration": 236}, {"note": 0, "velocity": 0, "duration": 724}, {"note": 68, "velocity": 88, "duration": 112}, {"note": 71, "velocity": 102, "duration": 96}, {"note": 71, "velocity": 117, "duration": 278}, {"note": 0, "velocity": 0, "duration": 82}, {"note": 70, "velocity": 122, "duration": 160}, {"note": 0, "velocity": 0, "duration": 80}, {"note": 68, "velocity": 77, "duration": 36}, {"note": 0, "velocity": 0, "duration": 84}, {"note": 68, "velocity": 112, "duration": 234}, {"note": 0, "velocity": 0, "duration": 846}, {"note": 63, "velocity": 100, "duration": 178}, {"note": 0, "velocity": 0, "duration": 62}, {"note": 65, "velocity": 93, "duration": 173}, {"note": 0, "velocity": 0, "duration": 67}, {"note": 68, "velocity": 93, "duration": 160}, {"note": 0, "velocity": 0, "duration": 80}, {"note": 72, "velocity": 117, "duration": 119}, {"note": 70, "velocity": 99, "duration": 680}, {"note": 72, "velocity": 107, "duration": 158}, {"note": 0, "velocity": 0, "duration": 82}, {"note": 68, "velocity": 97, "duration": 700}, {"note": 0, "velocity": 0, "duration": 1220}, {"note": 68, "velocity": 100, "duration": 134}, {"note": 0, "velocity": 0, "duration": 106}, {"note": 63, "velocity": 97, "duration": 208}, {"note": 65, "velocity": 97, "duration": 195}, {"note": 68, "velocity": 107, "duration": 126}, {"note": 0, "velocity": 0, "duration": 114}, {"note": 72, "velocity": 112, "duration": 109}, {"note": 70, "velocity": 97, "duration": 535}, {"note": 0, "velocity": 0, "duration": 65}, {"note": 72, "velocity": 112, "duration": 169}, {"note": 0, "velocity": 0, "duration": 71}, {"note": 72, "velocity": 127, "duration": 460}, {"note": 73, "velocity": 127, "duration": 215}, {"note": 75, "velocity": 112, "duration": 232}, {"note": 72, "velocity": 112, "duration": 625}, {"note": 0, "velocity": 0, "duration": 575}, {"note": 63, "velocity": 97, "duration": 199}, {"note": 65, "velocity": 96, "duration": 162}, {"note": 0, "velocity": 0, "duration": 78}, {"note": 68, "velocity": 100, "duration": 163}, {"note": 0, "velocity": 0, "duration": 77}, {"note": 72, "velocity": 112, "duration": 333}, {"note": 0, "velocity": 0, "duration": 2307}, {"note": 68, "velocity": 102, "duration": 183}, {"note": 68, "velocity": 107, "duration": 1910}]]