[[{"note": 69, "velocity": 107, "duration": 219}, {"note": 0, "velocity": 0, "duration": 261}, {"note": 57, "velocity": 95, "duration": 224}, {"note": 0, "velocity": 0, "duration": 256}, {"note": 60, "velocity": 99, "duration": 154}, {"note": 0, "velocity": 0, "duration": 86}, {"note": 65, "velocity": 102, "duration": 426}, {"note": 62, "velocity": 93, "duration": 107}, {"note": 0, "velocity": 0, "duration": 133}, {"note": 65, "velocity": 97, "duration": 265}, {"note": 0, "velocity": 0, "duration": 215}, {"note": 67, "velocity": 107, "duration": 328}, {"note": 0, "velocity": 0, "duration": 152}, {"note": 69, "velocity": 122, "duration": 234}, {"note": 67, "velocity": 107, "duration": 286}, {"note": 0, "velocity": 0, "duration": 434}, {"note": 67, "velocity": 107, "duration": 97}, {"note": 0, "velocity": 0, "duration": 143}, {"note": 67, "velocity": 97, "duration": 446}, {"note": 0, "velocity": 0, "duration": 274}, {"note": 62, "velocity": 97, "duration": 285}, {"note": 0, "velocity": 0, "duration": 195}, {"note": 57, "velocity": 96, "duration": 207}, {"note": 60, "velocity": 90, "duration": 253}, {"note": 62, "velocity": 95, "duration": 300}, {"note": 67, "velocity": 99, "duration": 106}, {"note": 0, "velocity": 0, "duration": 134}, {"note": 64, "velocity": 88, "duration": 99}, {"note": 0, "velocity": 0, "duration": 141}, {"note": 62, "velocity": 90, "duration": 102}, {"note": 0, "velocity": 0, "duration": 138}, {"note": 64, "velocity": 97, "duration": 171}, {"note": 0, "velocity": 0, "duration": 69}, {"note": 60, "velocity": 93, "duration": 509}, {"note": 0, "velocity": 0, "duration": 211}, {"note": 65, "velocity": 102, "duration": 281}, {"note": 0, "velocity": 0, "duration": 199}, {"note": 65, "velocity": 96, "duration": 191}, {"note": 64, "velocity": 75, "duration": 184}, {"note": 62, "velocity": 100, "duration": 202}, {"note": 67, "velocity": 102, "duration": 111}, {"note": 0, "velocity": 0, "duration": 129}, {"note": 64, "velocity": 99, "duration": 89}, {"note": 0, "velocity": 0, "duration": 151}, {"note": 62, "velocity": 92, "duration": 100}, {"note": 0, "velocity": 0, "duration": 140}, {"note": 60, "velocity": 89, "duration": 179}, {"note": 0, "velocity": 0, "duration": 61}, {"note": 62, "velocity": 90, "duration": 187}, {"note": 67, "velocity": 95, "duration": 207}, {"note": 64, "velocity": 90, "duration": 167}, {"note": 62, "velocity": 92, "duration": 444}, {"note": 0, "velocity": 0, "duration": 4476}, {"note": 62, "velocity": 99, "duration": 200}, {"note": 65, "velocity": 102, "duration": 287}, {"note": 0, "velocity": 0, "duration": 193}, {"note": 67, "velocity": 71, "duration": 155}, {"note": 0, "velocity": 0, "duration": 85}, {"note": 69, "velocity": 107, "duration": 325}, {"note": 0, "velocity": 0, "duration": 155}, {"note": 69, "velocity": 107, "duration": 329}, {"note": 0, "velocity": 0, "duration": 151}, {"note": 67, "velocity": 112, "duration": 488}, {"note": 0, "velocity": 0, "duration": 1192}, {"note": 67, "velocity": 100, "duration": 113}, {"note": 0, "velocity": 0, "duration": 127}, {"note": 72, "velocity": 117, "duration": 239}, {"note": 0, "velocity": 0, "duration": 241}, {"note": 64, "velocity": 107, "duration": 224}, {"note": 62, "velocity": 85, "duration": 220}, {"note": 57, "velocity": 96, "duration": 264}, {"note": 0, "velocity": 0, "duration": 216}, {"note": 60, "velocity": 99, "duration": 1095}, {"note": 0, "velocity": 0, "duration": 3225}, {"note": 72, "velocity": 117, "duration": 288}, {"note": 0, "velocity": 0, "duration": 192}, {"note": 72, "velocity": 112, "duration": 265}, {"note": 0, "velocity": 0, "duration": 215}, {"note": 69, "velocity": 112, "duration": 107}, {"note": 0, "velocity": 0, "duration": 133}, {"note": 74, "velocity": 102, "duration": 119}, {"note": 0, "velocity": 0, "duration": 121}, {"note": 72, "velocity": 117, "duration": 225}, {"note": 0, "velocity": 0, "duration": 255}, {"note": 69, "velocity": 102, "duration": 256}, {"note": 67, "velocity": 83, "duration": 117}, {"note": 0, "velocity": 0, "duration": 123}, {"note": 69, "velocity": 102, "duration": 187}, {"note": 72, "velocity": 96, "duration": 113}, {"note": 0, "velocity": 0, "duration": 127}, {"note": 67, "velocity": 107, "duration": 819}, {"note": 0, "velocity": 0, "duration": 141}, {"note": 69, "velocity": 100, "duration": 246}, {"note": 0, "velocity": 0, "duration": 234}, {"note": 62, "velocity": 122, "duration": 252}, {"note": 0, "velocity": 0, "duration": 228}, {"note": 65, "velocity": 99, "duration": 240}, {"note": 69, "velocity": 97, "duration": 230}, {"note": 72, "velocity": 100, "duration": 229}, {"note": 69, "velocity": 97, "duration": 220}, {"note": 67, "velocity": 95, "duration": 107}, {"note": 0, "velocity": 0, "duration": 133}, {"note": 65, "velocity": 93, "duration": 84}, {"note": 0, "velocity": 0, "duration": 156}, {"note": 62, "velocity": 96, "duration": 149}, {"note": 0, "velocity": 0, "duration": 91}, {"note": 60, "velocity": 100, "duration": 169}, {"note": 0, "velocity": 0, "duration": 71}, {"note": 65, "velocity": 107, "duration": 641}, {"note": 0, "velocity": 0, "duration": 319}, {"note": 64, "velocity": 107, "duration": 208}, {"note": 62, "velocity": 89, "duration": 191}, {"note": 64, "velocity": 95, "duration": 218}, {"note": 62, "velocity": 85, "duration": 227}, {"note": 67, "velocity": 107, "duration": 233}, {"note": 0, "velocity": 0, "duration": 487}, {"note": 57, "velocity": 92, "duration": 172}, {"note": 0, "velocity": 0, "duration": 68}, {"note": 60, "velocity": 99, "duration": 185}, {"note": 62, "velocity": 95, "duration": 152}, {"note": 0, "velocity": 0, "duration": 88}, {"note": 67, "velocity": 112, "duration": 198}, {"note": 64, "velocity": 89, "duration": 185}, {"note": 62, "velocity": 96, "duration": 626}, {"note": 0, "velocity": 0, "duration": 334}, {"note": 65, "velocity": 112, "duration": 146}, {"note": 0, "velocity": 0, "duration": 94}, {"note": 67, "velocity": 122, "duration": 118}, {"note": 0, "velocity": 0, "duration": 122}, {"note": 69, "velocity": 107, "duration": 122}, {"note": 0, "velocity": 0, "duration": 118}, {"note": 72, "velocity": 97, "duration": 85}, {"note": 0, "velocity": 0, "duration": 155}, {"note": 67, "velocity": 112, "duration": 450}, {"note": 0, "velocity": 0, "duration": 270}, {"note": 60, "velocity": 100, "duration": 157}, {"note": 0, "velocity": 0, "duration": 83}, {"note": 62, "velocity": 100, "duration": 183}, {"note": 65, "velocity": 97, "duration": 179}, {"note": 0, "velocity": 0, "duration": 61}, {"note": 67, "velocity": 102, "duration": 210}, {"note": 69, "velocity": 96, "duration": 201}, {"note": 65, "velocity": 107, "duration": 1032}, {"note": 0, "velocity": 0, "duration": 7608}, {"note": 69, "velocity": 107, "duration": 219}, {"note": 0, "velocity": 0, "duration": 261}, {"note": 57, "velocity": 95, "duration": 224}, {"note": 0, "velocity": 0, "duration": 256}, {"note": 60, "velocity": 99, "duration": 154}, {"note": 0, "velocity": 0, "duration": 86}, {"note": 65, "velocity": 102, "duration": 426}, {"note": 62, "velocity": 93, "duration": 107}, {"note": 0, "velocity": 0, "duration": 133}, {"note": 65, "velocity": 97, "duration": 265}, {"note": 0, "velocity": 0, "duration": 215}, {"note": 67, "velocity": 107, "duration": 328}, {"note": 0, "velocity": 0, "duration": 152}, {"note": 69, "velocity": 122, "duration": 234}, {"note": 67, "velocity": 107, "duration": 286}, {"note": 0, "velocity": 0, "duration": 434}, {"note": 67, "velocity": 107, "duration": 97}, {"note": 0, "velocity": 0, "duration": 143}, {"note": 67, "velocity": 97, "duration": 446}, {"note": 0, "velocity": 0, "duration": 274}, {"note": 62, "velocity": 97, "duration": 285}, {"note": 0, "velocity": 0, "duration": 195}, {"note": 57, "velocity": 96, "duration": 207}, {"note": 60, "velocity": 90, "duration": 253}, {"note": 62, "velocity": 95, "duration": 300}, {"note": 67, "velocity": 99, "duration": 106}, {"note": 0, "velocity": 0, "duration": 134}, {"note": 64, "velocity": 88, "duration": 99}, {"note": 0, "velocity": 0, "duration": 141}, {"note": 62, "velocity": 90, "duration": 102}, {"note": 0, "velocity": 0, "duration": 138}, {"note": 64, "velocity": 97, "duration": 171}, {"note": 0, "velocity": 0, "duration": 69}, {"note": 60, "velocity": 93, "duration": 509}, {"note": 0, "velocity": 0, "duration": 211}, {"note": 65, "velocity": 102, "duration": 281}, {"note": 0, "velocity": 0, "duration": 199}, {"note": 65, "velocity": 96, "duration": 191}, {"note": 64, "velocity": 75, "duration": 184}, {"note": 62, "velocity": 100, "duration": 202}, {"note": 67, "velocity": 102, "duration": 111}, {"note": 0, "velocity": 0, "duration": 129}, {"note": 64, "velocity": 99, "duration": 89}, {"note": 0, "velocity": 0, "duration": 151}, {"note": 62, "velocity": 92, "duration": 100}, {"note": 0, "velocity": 0, "duration": 140}, {"note": 60, "velocity": 89, "duration": 179}, {"note": 0, "velocity": 0, "duration": 61}, {"note": 62, "velocity": 90, "duration": 187}, {"note": 67, "velocity": 95, "duration": 207}, {"note": 64, "velocity": 90, "duration": 167}, {"note": 62, "velocity": 92, "duration": 444}, {"note": 0, "velocity": 0, "duration": 4476}, {"note": 62, "velocity": 99, "duration": 200}, {"note": 65, "velocity": 102, "duration": 287}, {"note": 0, "velocity": 0, "duration": 193}, {"note": 67, "velocity": 71, "duration": 155}, {"note": 0, "velocity": 0, "duration": 85}, {"note": 69, "velocity": 107, "duration": 325}, {"note": 0, "velocity": 0, "duration": 155}, {"note": 69, "velocity": 107, "duration": 329}, {"note": 0, "velocity": 0, "duration": 151}, {"note": 67, "velocity": 112, "duration": 488}, {"note": 0, "velocity": 0, "duration": 1192}, {"note": 67, "velocity": 100, "duration": 113}, {"note": 0, "velocity": 0, "duration": 127}, {"note": 72, "velocity": 117, "duration": 239}, {"note": 0, "velocity": 0, "duration": 241}, {"note": 64, "velocity": 107, "duration": 224}, {"note": 62, "velocity": 85, "duration": 220}, {"note": 57, "velocity": 96, "duration": 264}, {"note": 0, "velocity": 0, "duration": 216}, {"note": 60, "velocity": 99, "duration": 1095}, {"note": 0, "velocity": 0, "duration": 3225}, {"note": 72, "velocity": 117, "duration": 288}, {"note": 0, "velocity": 0, "duration": 192}, {"note": 72, "velocity": 112, "duration": 265}, {"note": 0, "velocity": 0, "duration": 215}, {"note": 69, "velocity": 112, "duration": 107}, {"note": 0, "velocity": 0, "duration": 133}, {"note": 74, "velocity": 102, "duration": 119}, {"note": 0, "velocity": 0, "duration": 121}, {"note": 72, "velocity": 117, "duration": 225}, {"note": 0, "velocity": 0, "duration": 255}, {"note": 69, "velocity": 102, "duration": 256}, {"note": 67, "velocity": 83, "duration": 117}, {"note": 0, "velocity": 0, "duration": 123}, {"note": 69, "velocity": 102, "duration": 187}, {"note": 72, "velocity": 96, "duration": 113}, {"note": 0, "velocity": 0, "duration": 127}, {"note": 67, "velocity": 107, "duration": 819}, {"note": 0, "velocity": 0, "duration": 141}, {"note": 69, "velocity": 100, "duration": 246}, {"note": 0, "velocity": 0, "duration": 234}, {"note": 62, "velocity": 122, "duration": 252}, {"note": 0, "velocity": 0, "duration": 228}, {"note": 65, "velocity": 99, "duration": 240}, {"note": 69, "velocity": 97, "duration": 230}, {"note": 72, "velocity": 100, "duration": 229}, {"note": 69, "velocity": 97, "duration": 220}, {"note": 67, "velocity": 95, "duration": 107}, {"note": 0, "velocity": 0, "duration": 133}, {"note": 65, "velocity": 93, "duration": 84}, {"note": 0, "velocity": 0, "duration": 156}, {"note": 62, "velocity": 96, "duration": 149}, {"note": 0, "velocity": 0, "duration": 91}, {"note": 60, "velocity": 100, "duration": 169}, {"note": 0, "velocity": 0, "duration": 71}, {"note": 65, "velocity": 107, "duration": 641}, {"note": 0, "velocity": 0, "duration": 319}, {"note": 64, "velocity": 107, "duration": 208}, {"note": 62, "velocity": 89, "duration": 191}, {"note": 64, "velocity": 95, "duration": 218}, {"note": 62, "velocity": 85, "duration": 227}, {"note": 67, "velocity": 107, "duration": 233}, {"note": 0, "velocity": 0, "duration": 487}, {"note": 57, "velocity": 92, "duration": 172}, {"note": 0, "velocity": 0, "duration": 68}, {"note": 60, "velocity": 99, "duration": 185}, {"note": 62, "velocity": 95, "duration": 152}, {"note": 0, "velocity": 0, "duration": 88}, {"note": 67, "velocity": 112, "duration": 198}, {"note": 64, "velocity": 89, "duration": 185}, {"note": 62, "velocity": 96, "duration": 626}, {"note": 0, "velocity": 0, "duration": 334}, {"note": 65, "velocity": 112, "duration": 146}, {"note": 0, "velocity": 0, "duration": 94}, {"note": 67, "velocity": 122, "duration": 118}, {"note": 0, "velocity": 0, "duration": 122}, {"note": 69, "velocity": 107, "duration": 122}, {"note": 0, "velocity": 0, "duration": 118}, {"note": 72, "velocity": 97, "duration": 85}, {"note": 0, "velocity": 0, "duration": 155}, {"note": 67, "velocity": 112, "duration": 450}, {"note": 0, "velocity": 0, "duration": 270}, {"note": 60, "velocity": 100, "duration": 157}, {"note": 0, "velocity": 0, "duration": 83}, {"note": 62, "velocity": 100, "duration": 183}, {"note": 65, "velocity": 97, "duration": 179}, {"note": 0, "velocity": 0, "duration": 61}, {"note": 67, "velocity": 102, "duration": 210}, {"note": 69, "velocity": 96, "duration": 201}, {"note": 65, "velocity": 107, "duration": 1032}, {"note": 65, "velocity": 112, "duration": 72}, {"note": 0, "velocity": 0, "duration": 168}, {"note": 67, "velocity": 122, "duration": 118}, {"note": 0, "velocity": 0, "duration": 122}, {"note": 69, "velocity": 107, "duration": 122}, {"note": 0, "velocity": 0, "duration": 118}, {"note": 72, "velocity": 97, "duration": 85}, {"note": 0, "velocity": 0, "duration": 155}, {"note": 67, "velocity": 112, "duration": 450}, {"note": 0, "velocity": 0, "duration": 270}, {"note": 60, "velocity": 100, "duration": 157}, {"note": 0, "velocity": 0, "duration": 83}, {"note": 62, "velocity": 100, "duration": 183}, {"note": 65, "velocity": 97, "duration": 179}, {"note": 0, "velocity": 0, "duration": 61}, {"note": 67, "velocity": 102, "duration": 210}, {"note": 69, "velocity": 96, "duration": 201}, {"note": 65, "velocity": 107, "duration": 1032}, {"note": 65, "velocity": 97, "duration": 72}, {"note": 0, "velocity": 0, "duration": 168}, {"note": 67, "velocity": 100, "duration": 164}, {"note": 0, "velocity": 0, "duration": 76}, {"note": 69, "velocity": 127, "duration": 151}, {"note": 0, "velocity": 0, "duration": 89}, {"note": 72, "velocity": 97, "duration": 111}, {"note": 0, "velocity": 0, "duration": 129}, {"note": 67, "velocity": 122, "duration": 711}, {"note": 0, "velocity": 0, "duration": 142}, {"note": 60, "velocity": 79, "duration": 549}, {"note": 62, "velocity": 93, "duration": 571}, {"note": 65, "velocity": 90, "duration": 366}, {"note": 67, "velocity": 93, "duration": 568}, {"note": 69, "velocity": 102, "duration": 541}, {"note": 0, "velocity": 0, "duration": 114}, {"note": 65, "velocity": 107, "duration": 1981}]]