[[{"note": 57, "velocity": 97, "duration": 127}, {"note": 0, "velocity": 0, "duration": 113}, {"note": 57, "velocity": 99, "duration": 136}, {"note": 60, "velocity": 93, "duration": 159}, {"note": 62, "velocity": 99, "duration": 161}, {"note": 0, "velocity": 0, "duration": 79}, {"note": 64, "velocity": 95, "duration": 105}, {"note": 0, "velocity": 0, "duration": 135}, {"note": 64, "velocity": 112, "duration": 463}, {"note": 62, "velocity": 99, "duration": 247}, {"note": 0, "velocity": 0, "duration": 233}, {"note": 57, "velocity": 99, "duration": 76}, {"note": 0, "velocity": 0, "duration": 164}, {"note": 57, "velocity": 99, "duration": 91}, {"note": 60, "velocity": 82, "duration": 112}, {"note": 62, "velocity": 96, "duration": 96}, {"note": 0, "velocity": 0, "duration": 144}, {"note": 64, "velocity": 99, "duration": 102}, {"note": 0, "velocity": 0, "duration": 138}, {"note": 64, "velocity": 107, "duration": 363}, {"note": 0, "velocity": 0, "duration": 597}, {"note": 57, "velocity": 92, "duration": 80}, {"note": 0, "velocity": 0, "duration": 160}, {"note": 57, "velocity": 99, "duration": 89}, {"note": 60, "velocity": 93, "duration": 94}, {"note": 62, "velocity": 99, "duration": 84}, {"note": 0, "velocity": 0, "duration": 156}, {"note": 64, "velocity": 102, "duration": 71}, {"note": 0, "velocity": 0, "duration": 169}, {"note": 64, "velocity": 117, "duration": 409}, {"note": 0, "velocity": 0, "duration": 71}, {"note": 62, "velocity": 112, "duration": 166}, {"note": 0, "velocity": 0, "duration": 314}, {"note": 67, "velocity": 96, "duration": 131}, {"note": 0, "velocity": 0, "duration": 109}, {"note": 60, "velocity": 97, "duration": 114}, {"note": 62, "velocity": 92, "duration": 112}, {"note": 60, "velocity": 97, "duration": 177}, {"note": 0, "velocity": 0, "duration": 63}, {"note": 60, "velocity": 102, "duration": 115}, {"note": 59, "velocity": 90, "duration": 108}, {"note": 57, "velocity": 97, "duration": 579}, {"note": 0, "velocity": 0, "duration": 381}, {"note": 69, "velocity": 112, "duration": 77}, {"note": 0, "velocity": 0, "duration": 163}, {"note": 64, "velocity": 99, "duration": 34}, {"note": 0, "velocity": 0, "duration": 86}, {"note": 64, "velocity": 83, "duration": 64}, {"note": 69, "velocity": 100, "duration": 74}, {"note": 0, "velocity": 0, "duration": 166}, {"note": 64, "velocity": 112, "duration": 88}, {"note": 0, "velocity": 0, "duration": 152}, {"note": 69, "velocity": 112, "duration": 410}, {"note": 0, "velocity": 0, "duration": 70}, {"note": 64, "velocity": 112, "duration": 113}, {"note": 0, "velocity": 0, "duration": 127}, {"note": 69, "velocity": 117, "duration": 111}, {"note": 0, "velocity": 0, "duration": 129}, {"note": 67, "velocity": 99, "duration": 152}, {"note": 0, "velocity": 0, "duration": 88}, {"note": 64, "velocity": 112, "duration": 89}, {"note": 62, "velocity": 99, "duration": 114}, {"note": 60, "velocity": 93, "duration": 88}, {"note": 0, "velocity": 0, "duration": 152}, {"note": 67, "velocity": 100, "duration": 93}, {"note": 0, "velocity": 0, "duration": 147}, {"note": 64, "velocity": 102, "duration": 399}, {"note": 0, "velocity": 0, "duration": 561}, {"note": 57, "velocity": 96, "duration": 120}, {"note": 0, "velocity": 0, "duration": 120}, {"note": 57, "velocity": 100, "duration": 82}, {"note": 60, "velocity": 86, "duration": 117}, {"note": 62, "velocity": 99, "duration": 148}, {"note": 0, "velocity": 0, "duration": 92}, {"note": 64, "velocity": 96, "duration": 47}, {"note": 0, "velocity": 0, "duration": 73}, {"note": 64, "velocity": 95, "duration": 52}, {"note": 0, "velocity": 0, "duration": 68}, {"note": 64, "velocity": 107, "duration": 245}, {"note": 62, "velocity": 112, "duration": 67}, {"note": 0, "velocity": 0, "duration": 173}, {"note": 62, "velocity": 102, "duration": 147}, {"note": 0, "velocity": 0, "duration": 333}, {"note": 64, "velocity": 99, "duration": 116}, {"note": 0, "velocity": 0, "duration": 124}, {"note": 60, "velocity": 97, "duration": 104}, {"note": 62, "velocity": 78, "duration": 123}, {"note": 60, "velocity": 93, "duration": 216}, {"note": 59, "velocity": 88, "duration": 227}, {"note": 57, "velocity": 92, "duration": 609}, {"note": 0, "velocity": 0, "duration": 351}, {"note": 57, "velocity": 95, "duration": 78}, {"note": 0, "velocity": 0, "duration": 162}, {"note": 57, "velocity": 93, "duration": 87}, {"note": 60, "velocity": 82, "duration": 107}, {"note": 62, "velocity": 93, "duration": 107}, {"note": 0, "velocity": 0, "duration": 133}, {"note": 64, "velocity": 97, "duration": 70}, {"note": 0, "velocity": 0, "duration": 170}, {"note": 64, "velocity": 102, "duration": 323}, {"note": 0, "velocity": 0, "duration": 157}, {"note": 62, "velocity": 112, "duration": 341}, {"note": 0, "velocity": 0, "duration": 139}, {"note": 57, "velocity": 99, "duration": 77}, {"note": 0, "velocity": 0, "duration": 163}, {"note": 57, "velocity": 100, "duration": 82}, {"note": 60, "velocity": 79, "duration": 110}, {"note": 62, "velocity": 107, "duration": 154}, {"note": 0, "velocity": 0, "duration": 86}, {"note": 64, "velocity": 99, "duration": 106}, {"note": 0, "velocity": 0, "duration": 134}, {"note": 64, "velocity": 107, "duration": 397}, {"note": 0, "velocity": 0, "duration": 563}, {"note": 57, "velocity": 99, "duration": 75}, {"note": 0, "velocity": 0, "duration": 165}, {"note": 57, "velocity": 97, "duration": 77}, {"note": 60, "velocity": 89, "duration": 79}, {"note": 62, "velocity": 100, "duration": 101}, {"note": 0, "velocity": 0, "duration": 139}, {"note": 64, "velocity": 99, "duration": 82}, {"note": 0, "velocity": 0, "duration": 158}, {"note": 64, "velocity": 97, "duration": 400}, {"note": 0, "velocity": 0, "duration": 80}, {"note": 62, "velocity": 100, "duration": 190}, {"note": 0, "velocity": 0, "duration": 290}, {"note": 64, "velocity": 107, "duration": 114}, {"note": 0, "velocity": 0, "duration": 126}, {"note": 60, "velocity": 99, "duration": 97}, {"note": 62, "velocity": 89, "duration": 114}, {"note": 60, "velocity": 93, "duration": 215}, {"note": 60, "velocity": 100, "duration": 108}, {"note": 59, "velocity": 93, "duration": 83}, {"note": 57, "velocity": 95, "duration": 842}, {"note": 0, "velocity": 0, "duration": 118}, {"note": 69, "velocity": 112, "duration": 77}, {"note": 0, "velocity": 0, "duration": 163}, {"note": 64, "velocity": 99, "duration": 34}, {"note": 0, "velocity": 0, "duration": 86}, {"note": 64, "velocity": 83, "duration": 64}, {"note": 69, "velocity": 100, "duration": 74}, {"note": 0, "velocity": 0, "duration": 166}, {"note": 64, "velocity": 112, "duration": 88}, {"note": 0, "velocity": 0, "duration": 152}, {"note": 69, "velocity": 99, "duration": 336}, {"note": 67, "velocity": 96, "duration": 123}, {"note": 64, "velocity": 112, "duration": 113}, {"note": 0, "velocity": 0, "duration": 127}, {"note": 69, "velocity": 117, "duration": 111}, {"note": 0, "velocity": 0, "duration": 129}, {"note": 67, "velocity": 99, "duration": 152}, {"note": 0, "velocity": 0, "duration": 88}, {"note": 64, "velocity": 112, "duration": 89}, {"note": 62, "velocity": 99, "duration": 114}, {"note": 60, "velocity": 93, "duration": 88}, {"note": 0, "velocity": 0, "duration": 162}, {"note": 67, "velocity": 96, "duration": 240}, {"note": 64, "velocity": 102, "duration": 120}, {"note": 67, "velocity": 102, "duration": 120}, {"note": 64, "velocity": 102, "duration": 429}, {"note": 0, "velocity": 0, "duration": 321}, {"note": 57, "velocity": 96, "duration": 120}, {"note": 0, "velocity": 0, "duration": 120}, {"note": 57, "velocity": 100, "duration": 82}, {"note": 60, "velocity": 86, "duration": 117}, {"note": 62, "velocity": 99, "duration": 148}, {"note": 0, "velocity": 0, "duration": 92}, {"note": 64, "velocity": 96, "duration": 47}, {"note": 0, "velocity": 0, "duration": 73}, {"note": 64, "velocity": 95, "duration": 52}, {"note": 0, "velocity": 0, "duration": 68}, {"note": 64, "velocity": 112, "duration": 315}, {"note": 0, "velocity": 0, "duration": 165}, {"note": 62, "velocity": 102, "duration": 147}, {"note": 0, "velocity": 0, "duration": 333}, {"note": 64, "velocity": 99, "duration": 116}, {"note": 0, "velocity": 0, "duration": 124}, {"note": 60, "velocity": 97, "duration": 104}, {"note": 62, "velocity": 78, "duration": 123}, {"note": 60, "velocity": 93, "duration": 216}, {"note": 59, "velocity": 88, "duration": 227}, {"note": 57, "velocity": 92, "duration": 609}, {"note": 0, "velocity": 0, "duration": 23391}, {"note": 57, "velocity": 97, "duration": 127}, {"note": 0, "velocity": 0, "duration": 113}, {"note": 57, "velocity": 99, "duration": 136}, {"note": 60, "velocity": 93, "duration": 159}, {"note": 62, "velocity": 99, "duration": 161}, {"note": 0, "velocity": 0, "duration": 79}, {"note": 64, "velocity": 95, "duration": 105}, {"note": 0, "velocity": 0, "duration": 135}, {"note": 64, "velocity": 112, "duration": 463}, {"note": 62, "velocity": 99, "duration": 247}, {"note": 0, "velocity": 0, "duration": 233}, {"note": 57, "velocity": 99, "duration": 76}, {"note": 0, "velocity": 0, "duration": 164}, {"note": 57, "velocity": 99, "duration": 91}, {"note": 60, "velocity": 82, "duration": 112}, {"note": 62, "velocity": 96, "duration": 96}, {"note": 0, "velocity": 0, "duration": 144}, {"note": 64, "velocity": 99, "duration": 102}, {"note": 0, "velocity": 0, "duration": 138}, {"note": 64, "velocity": 107, "duration": 363}, {"note": 0, "velocity": 0, "duration": 597}, {"note": 57, "velocity": 92, "duration": 80}, {"note": 0, "velocity": 0, "duration": 160}, {"note": 57, "velocity": 99, "duration": 89}, {"note": 60, "velocity": 93, "duration": 94}, {"note": 62, "velocity": 99, "duration": 84}, {"note": 0, "velocity": 0, "duration": 156}, {"note": 64, "velocity": 102, "duration": 71}, {"note": 0, "velocity": 0, "duration": 169}, {"note": 64, "velocity": 102, "duration": 234}, {"note": 62, "velocity": 97, "duration": 179}, {"note": 0, "velocity": 0, "duration": 61}, {"note": 62, "velocity": 112, "duration": 166}, {"note": 0, "velocity": 0, "duration": 314}, {"note": 64, "velocity": 96, "duration": 131}, {"note": 0, "velocity": 0, "duration": 109}, {"note": 60, "velocity": 97, "duration": 114}, {"note": 62, "velocity": 92, "duration": 112}, {"note": 60, "velocity": 97, "duration": 177}, {"note": 0, "velocity": 0, "duration": 63}, {"note": 60, "velocity": 117, "duration": 114}, {"note": 59, "velocity": 102, "duration": 131}, {"note": 57, "velocity": 97, "duration": 579}, {"note": 0, "velocity": 0, "duration": 381}, {"note": 69, "velocity": 112, "duration": 77}, {"note": 0, "velocity": 0, "duration": 163}, {"note": 64, "velocity": 99, "duration": 34}, {"note": 0, "velocity": 0, "duration": 86}, {"note": 64, "velocity": 83, "duration": 64}, {"note": 69, "velocity": 100, "duration": 74}, {"note": 0, "velocity": 0, "duration": 166}, {"note": 64, "velocity": 112, "duration": 88}, {"note": 0, "velocity": 0, "duration": 152}, {"note": 69, "velocity": 112, "duration": 410}, {"note": 0, "velocity": 0, "duration": 70}, {"note": 64, "velocity": 112, "duration": 113}, {"note": 0, "velocity": 0, "duration": 127}, {"note": 69, "velocity": 117, "duration": 111}, {"note": 0, "velocity": 0, "duration": 129}, {"note": 67, "velocity": 99, "duration": 152}, {"note": 0, "velocity": 0, "duration": 88}, {"note": 64, "velocity": 112, "duration": 89}, {"note": 62, "velocity": 99, "duration": 114}, {"note": 60, "velocity": 93, "duration": 88}, {"note": 0, "velocity": 0, "duration": 152}, {"note": 67, "velocity": 100, "duration": 93}, {"note": 0, "velocity": 0, "duration": 147}, {"note": 64, "velocity": 102, "duration": 130}, {"note": 67, "velocity": 102, "duration": 120}, {"note": 64, "velocity": 102, "duration": 640}, {"note": 0, "velocity": 0, "duration": 110}, {"note": 57, "velocity": 96, "duration": 120}, {"note": 0, "velocity": 0, "duration": 120}, {"note": 57, "velocity": 100, "duration": 82}, {"note": 60, "velocity": 86, "duration": 117}, {"note": 62, "velocity": 99, "duration": 148}, {"note": 0, "velocity": 0, "duration": 92}, {"note": 64, "velocity": 96, "duration": 47}, {"note": 0, "velocity": 0, "duration": 73}, {"note": 64, "velocity": 95, "duration": 52}, {"note": 0, "velocity": 0, "duration": 68}, {"note": 64, "velocity": 102, "duration": 254}, {"note": 62, "velocity": 95, "duration": 108}, {"note": 0, "velocity": 0, "duration": 132}, {"note": 62, "velocity": 102, "duration": 147}, {"note": 0, "velocity": 0, "duration": 333}, {"note": 64, "velocity": 99, "duration": 116}, {"note": 0, "velocity": 0, "duration": 124}, {"note": 60, "velocity": 97, "duration": 104}, {"note": 62, "velocity": 78, "duration": 123}, {"note": 60, "velocity": 93, "duration": 216}, {"note": 60, "velocity": 107, "duration": 131}, {"note": 59, "velocity": 86, "duration": 108}, {"note": 57, "velocity": 92, "duration": 609}, {"note": 0, "velocity": 0, "duration": 351}, {"note": 57, "velocity": 95, "duration": 78}, {"note": 0, "velocity": 0, "duration": 162}, {"note": 57, "velocity": 93, "duration": 87}, {"note": 60, "velocity": 82, "duration": 107}, {"note": 62, "velocity": 93, "duration": 107}, {"note": 0, "velocity": 0, "duration": 133}, {"note": 64, "velocity": 97, "duration": 70}, {"note": 0, "velocity": 0, "duration": 170}, {"note": 64, "velocity": 102, "duration": 323}, {"note": 0, "velocity": 0, "duration": 157}, {"note": 62, "velocity": 112, "duration": 341}, {"note": 0, "velocity": 0, "duration": 139}, {"note": 57, "velocity": 99, "duration": 77}, {"note": 0, "velocity": 0, "duration": 163}, {"note": 57, "velocity": 100, "duration": 82}, {"note": 60, "velocity": 79, "duration": 110}, {"note": 62, "velocity": 107, "duration": 154}, {"note": 0, "velocity": 0, "duration": 86}, {"note": 64, "velocity": 99, "duration": 106}, {"note": 0, "velocity": 0, "duration": 134}, {"note": 64, "velocity": 107, "duration": 397}, {"note": 0, "velocity": 0, "duration": 563}, {"note": 57, "velocity": 99, "duration": 75}, {"note": 0, "velocity": 0, "duration": 165}, {"note": 57, "velocity": 97, "duration": 77}, {"note": 60, "velocity": 89, "duration": 79}, {"note": 62, "velocity": 100, "duration": 101}, {"note": 0, "velocity": 0, "duration": 139}, {"note": 64, "velocity": 99, "duration": 82}, {"note": 0, "velocity": 0, "duration": 158}, {"note": 64, "velocity": 117, "duration": 249}, {"note": 62, "velocity": 99, "duration": 186}, {"note": 62, "velocity": 100, "duration": 190}, {"note": 0, "velocity": 0, "duration": 290}, {"note": 64, "velocity": 107, "duration": 114}, {"note": 0, "velocity": 0, "duration": 126}, {"note": 60, "velocity": 99, "duration": 97}, {"note": 62, "velocity": 89, "duration": 114}, {"note": 60, "velocity": 93, "duration": 215}, {"note": 60, "velocity": 97, "duration": 129}, {"note": 59, "velocity": 93, "duration": 120}, {"note": 57, "velocity": 95, "duration": 842}, {"note": 0, "velocity": 0, "duration": 118}, {"note": 69, "velocity": 112, "duration": 77}, {"note": 0, "velocity": 0, "duration": 163}, {"note": 64, "velocity": 99, "duration": 34}, {"note": 0, "velocity": 0, "duration": 86}, {"note": 64, "velocity": 83, "duration": 64}, {"note": 69, "velocity": 100, "duration": 74}, {"note": 0, "velocity": 0, "duration": 166}, {"note": 64, "velocity": 112, "duration": 88}, {"note": 0, "velocity": 0, "duration": 152}, {"note": 69, "velocity": 112, "duration": 410}, {"note": 0, "velocity": 0, "duration": 70}, {"note": 64, "velocity": 112, "duration": 113}, {"note": 0, "velocity": 0, "duration": 127}, {"note": 69, "velocity": 117, "duration": 111}, {"note": 0, "velocity": 0, "duration": 129}, {"note": 67, "velocity": 99, "duration": 152}, {"note": 0, "velocity": 0, "duration": 88}, {"note": 64, "velocity": 112, "duration": 89}, {"note": 62, "velocity": 99, "duration": 114}, {"note": 60, "velocity": 93, "duration": 88}, {"note": 0, "velocity": 0, "duration": 152}, {"note": 67, "velocity": 99, "duration": 220}, {"note": 64, "velocity": 102, "duration": 120}, {"note": 67, "velocity": 102, "duration": 160}, {"note": 64, "velocity": 102, "duration": 520}, {"note": 0, "velocity": 0, "duration": 230}, {"note": 57, "velocity": 96, "duration": 120}, {"note": 0, "velocity": 0, "duration": 120}, {"note": 57, "velocity": 100, "duration": 82}, {"note": 60, "velocity": 86, "duration": 117}, {"note": 62, "velocity": 99, "duration": 148}, {"note": 0, "velocity": 0, "duration": 92}, {"note": 64, "velocity": 96, "duration": 47}, {"note": 0, "velocity": 0, "duration": 73}, {"note": 64, "velocity": 95, "duration": 52}, {"note": 0, "velocity": 0, "duration": 68}, {"note": 64, "velocity": 92, "duration": 279}, {"note": 62, "velocity": 96, "duration": 95}, {"note": 0, "velocity": 0, "duration": 145}, {"note": 62, "velocity": 102, "duration": 147}, {"note": 0, "velocity": 0, "duration": 333}, {"note": 64, "velocity": 99, "duration": 116}, {"note": 0, "velocity": 0, "duration": 124}, {"note": 60, "velocity": 97, "duration": 104}, {"note": 62, "velocity": 78, "duration": 123}, {"note": 60, "velocity": 93, "duration": 216}, {"note": 60, "velocity": 102, "duration": 120}, {"note": 59, "velocity": 86, "duration": 91}, {"note": 57, "velocity": 92, "duration": 609}]]