[[{"note": 69, "velocity": 97, "duration": 125}, {"note": 0, "velocity": 0, "duration": 115}, {"note": 69, "velocity": 97, "duration": 136}, {"note": 0, "velocity": 0, "duration": 104}, {"note": 67, "velocity": 95, "duration": 557}, {"note": 0, "velocity": 0, "duration": 163}, {"note": 65, "velocity": 92, "duration": 196}, {"note": 67, "velocity": 81, "duration": 152}, {"note": 0, "velocity": 0, "duration": 88}, {"note": 65, "velocity": 93, "duration": 149}, {"note": 0, "velocity": 0, "duration": 91}, {"note": 62, "velocity": 92, "duration": 516}, {"note": 0, "velocity": 0, "duration": 444}, {"note": 65, "velocity": 77, "duration": 209}, {"note": 67, "velocity": 68, "duration": 195}, {"note": 69, "velocity": 89, "duration": 511}, {"note": 0, "velocity": 0, "duration": 209}, {"note": 74, "velocity": 97, "duration": 214}, {"note": 72, "velocity": 89, "duration": 156}, {"note": 0, "velocity": 0, "duration": 84}, {"note": 69, "velocity": 86, "duration": 186}, {"note": 67, "velocity": 88, "duration": 430}, {"note": 0, "velocity": 0, "duration": 530}, {"note": 67, "velocity": 89, "duration": 156}, {"note": 0, "velocity": 0, "duration": 84}, {"note": 65, "velocity": 78, "duration": 152}, {"note": 0, "velocity": 0, "duration": 88}, {"note": 67, "velocity": 97, "duration": 418}, {"note": 0, "velocity": 0, "duration": 302}, {"note": 69, "velocity": 97, "duration": 115}, {"note": 67, "velocity": 62, "duration": 108}, {"note": 65, "velocity": 86, "duration": 189}, {"note": 67, "velocity": 88, "duration": 145}, {"note": 0, "velocity": 0, "duration": 95}, {"note": 69, "velocity": 92, "duration": 367}, {"note": 0, "velocity": 0, "duration": 593}, {"note": 60, "velocity": 86, "duration": 188}, {"note": 57, "velocity": 82, "duration": 215}, {"note": 60, "velocity": 77, "duration": 485}, {"note": 0, "velocity": 0, "duration": 235}, {"note": 62, "velocity": 85, "duration": 143}, {"note": 0, "velocity": 0, "duration": 97}, {"note": 64, "velocity": 90, "duration": 153}, {"note": 0, "velocity": 0, "duration": 327}, {"note": 65, "velocity": 83, "duration": 420}, {"note": 65, "velocity": 79, "duration": 100}, {"note": 62, "velocity": 78, "duration": 830}, {"note": 0, "velocity": 0, "duration": 1450}, {"note": 69, "velocity": 102, "duration": 333}, {"note": 0, "velocity": 0, "duration": 147}, {"note": 69, "velocity": 100, "duration": 68}, {"note": 72, "velocity": 99, "duration": 270}, {"note": 0, "velocity": 0, "duration": 90}, {"note": 72, "velocity": 102, "duration": 338}, {"note": 0, "velocity": 0, "duration": 142}, {"note": 74, "velocity": 122, "duration": 155}, {"note": 0, "velocity": 0, "duration": 85}, {"note": 74, "velocity": 99, "duration": 170}, {"note": 0, "velocity": 0, "duration": 70}, {"note": 74, "velocity": 112, "duration": 192}, {"note": 0, "velocity": 0, "duration": 288}, {"note": 74, "velocity": 122, "duration": 130}, {"note": 0, "velocity": 0, "duration": 350}, {"note": 74, "velocity": 107, "duration": 161}, {"note": 0, "velocity": 0, "duration": 79}, {"note": 77, "velocity": 100, "duration": 470}, {"note": 74, "velocity": 112, "duration": 181}, {"note": 72, "velocity": 97, "duration": 233}, {"note": 74, "velocity": 99, "duration": 143}, {"note": 72, "velocity": 100, "duration": 99}, {"note": 69, "velocity": 97, "duration": 535}, {"note": 0, "velocity": 0, "duration": 905}, {"note": 69, "velocity": 100, "duration": 416}, {"note": 0, "velocity": 0, "duration": 64}, {"note": 69, "velocity": 102, "duration": 130}, {"note": 72, "velocity": 99, "duration": 304}, {"note": 72, "velocity": 102, "duration": 130}, {"note": 0, "velocity": 0, "duration": 350}, {"note": 74, "velocity": 112, "duration": 80}, {"note": 0, "velocity": 0, "duration": 160}, {"note": 74, "velocity": 95, "duration": 120}, {"note": 0, "velocity": 0, "duration": 120}, {"note": 74, "velocity": 107, "duration": 217}, {"note": 72, "velocity": 92, "duration": 135}, {"note": 0, "velocity": 0, "duration": 105}, {"note": 72, "velocity": 117, "duration": 131}, {"note": 0, "velocity": 0, "duration": 349}, {"note": 69, "velocity": 99, "duration": 212}, {"note": 69, "velocity": 100, "duration": 165}, {"note": 0, "velocity": 0, "duration": 75}, {"note": 69, "velocity": 100, "duration": 111}, {"note": 72, "velocity": 102, "duration": 318}, {"note": 69, "velocity": 95, "duration": 174}, {"note": 0, "velocity": 0, "duration": 66}, {"note": 67, "velocity": 92, "duration": 105}, {"note": 65, "velocity": 66, "duration": 155}, {"note": 67, "velocity": 95, "duration": 656}, {"note": 0, "velocity": 0, "duration": 1744}, {"note": 69, "velocity": 100, "duration": 166}, {"note": 0, "velocity": 0, "duration": 74}, {"note": 69, "velocity": 95, "duration": 201}, {"note": 67, "velocity": 92, "duration": 552}, {"note": 0, "velocity": 0, "duration": 168}, {"note": 65, "velocity": 100, "duration": 148}, {"note": 0, "velocity": 0, "duration": 92}, {"note": 67, "velocity": 89, "duration": 148}, {"note": 0, "velocity": 0, "duration": 92}, {"note": 65, "velocity": 97, "duration": 140}, {"note": 0, "velocity": 0, "duration": 100}, {"note": 62, "velocity": 96, "duration": 470}, {"note": 0, "velocity": 0, "duration": 490}, {"note": 65, "velocity": 92, "duration": 198}, {"note": 67, "velocity": 83, "duration": 186}, {"note": 69, "velocity": 96, "duration": 456}, {"note": 0, "velocity": 0, "duration": 264}, {"note": 72, "velocity": 95, "duration": 99}, {"note": 74, "velocity": 81, "duration": 117}, {"note": 72, "velocity": 81, "duration": 212}, {"note": 69, "velocity": 81, "duration": 256}, {"note": 67, "velocity": 79, "duration": 607}, {"note": 0, "velocity": 0, "duration": 353}, {"note": 67, "velocity": 107, "duration": 141}, {"note": 0, "velocity": 0, "duration": 99}, {"note": 65, "velocity": 73, "duration": 130}, {"note": 0, "velocity": 0, "duration": 110}, {"note": 67, "velocity": 95, "duration": 478}, {"note": 0, "velocity": 0, "duration": 242}, {"note": 69, "velocity": 95, "duration": 102}, {"note": 67, "velocity": 69, "duration": 113}, {"note": 65, "velocity": 82, "duration": 180}, {"note": 67, "velocity": 86, "duration": 140}, {"note": 0, "velocity": 0, "duration": 100}, {"note": 69, "velocity": 97, "duration": 295}, {"note": 0, "velocity": 0, "duration": 665}, {"note": 60, "velocity": 92, "duration": 217}, {"note": 57, "velocity": 83, "duration": 256}, {"note": 60, "velocity": 89, "duration": 480}, {"note": 0, "velocity": 0, "duration": 240}, {"note": 62, "velocity": 79, "duration": 225}, {"note": 62, "velocity": 79, "duration": 120}, {"note": 65, "velocity": 75, "duration": 201}, {"note": 0, "velocity": 0, "duration": 159}, {"note": 67, "velocity": 88, "duration": 456}, {"note": 65, "velocity": 83, "duration": 219}, {"note": 62, "velocity": 77, "duration": 817}, {"note": 0, "velocity": 0, "duration": 12383}, {"note": 69, "velocity": 97, "duration": 125}, {"note": 0, "velocity": 0, "duration": 115}, {"note": 69, "velocity": 97, "duration": 136}, {"note": 0, "velocity": 0, "duration": 104}, {"note": 67, "velocity": 95, "duration": 557}, {"note": 0, "velocity": 0, "duration": 163}, {"note": 65, "velocity": 92, "duration": 196}, {"note": 67, "velocity": 81, "duration": 152}, {"note": 0, "velocity": 0, "duration": 88}, {"note": 65, "velocity": 93, "duration": 149}, {"note": 0, "velocity": 0, "duration": 91}, {"note": 62, "velocity": 92, "duration": 516}, {"note": 0, "velocity": 0, "duration": 444}, {"note": 65, "velocity": 77, "duration": 209}, {"note": 67, "velocity": 68, "duration": 195}, {"note": 69, "velocity": 89, "duration": 511}, {"note": 0, "velocity": 0, "duration": 209}, {"note": 74, "velocity": 97, "duration": 214}, {"note": 72, "velocity": 89, "duration": 156}, {"note": 0, "velocity": 0, "duration": 84}, {"note": 69, "velocity": 86, "duration": 186}, {"note": 67, "velocity": 88, "duration": 430}, {"note": 0, "velocity": 0, "duration": 530}, {"note": 67, "velocity": 89, "duration": 156}, {"note": 0, "velocity": 0, "duration": 84}, {"note": 65, "velocity": 78, "duration": 152}, {"note": 0, "velocity": 0, "duration": 88}, {"note": 67, "velocity": 97, "duration": 418}, {"note": 0, "velocity": 0, "duration": 302}, {"note": 69, "velocity": 97, "duration": 115}, {"note": 67, "velocity": 62, "duration": 108}, {"note": 65, "velocity": 86, "duration": 189}, {"note": 67, "velocity": 88, "duration": 145}, {"note": 0, "velocity": 0, "duration": 95}, {"note": 69, "velocity": 92, "duration": 367}, {"note": 0, "velocity": 0, "duration": 593}, {"note": 60, "velocity": 86, "duration": 188}, {"note": 57, "velocity": 82, "duration": 215}, {"note": 60, "velocity": 77, "duration": 485}, {"note": 0, "velocity": 0, "duration": 235}, {"note": 62, "velocity": 85, "duration": 143}, {"note": 0, "velocity": 0, "duration": 97}, {"note": 64, "velocity": 90, "duration": 153}, {"note": 0, "velocity": 0, "duration": 327}, {"note": 67, "velocity": 81, "duration": 400}, {"note": 0, "velocity": 0, "duration": 80}, {"note": 65, "velocity": 79, "duration": 205}, {"note": 62, "velocity": 78, "duration": 830}, {"note": 0, "velocity": 0, "duration": 1330}, {"note": 69, "velocity": 102, "duration": 333}, {"note": 69, "velocity": 100, "duration": 49}, {"note": 0, "velocity": 0, "duration": 71}, {"note": 72, "velocity": 99, "duration": 350}, {"note": 0, "velocity": 0, "duration": 130}, {"note": 72, "velocity": 102, "duration": 338}, {"note": 0, "velocity": 0, "duration": 142}, {"note": 74, "velocity": 122, "duration": 155}, {"note": 0, "velocity": 0, "duration": 85}, {"note": 74, "velocity": 99, "duration": 170}, {"note": 0, "velocity": 0, "duration": 70}, {"note": 74, "velocity": 112, "duration": 425}, {"note": 74, "velocity": 122, "duration": 130}, {"note": 0, "velocity": 0, "duration": 350}, {"note": 74, "velocity": 107, "duration": 161}, {"note": 0, "velocity": 0, "duration": 79}, {"note": 77, "velocity": 100, "duration": 470}, {"note": 74, "velocity": 112, "duration": 181}, {"note": 72, "velocity": 97, "duration": 233}, {"note": 74, "velocity": 99, "duration": 125}, {"note": 72, "velocity": 99, "duration": 200}, {"note": 69, "velocity": 97, "duration": 535}, {"note": 0, "velocity": 0, "duration": 905}, {"note": 69, "velocity": 100, "duration": 282}, {"note": 0, "velocity": 0, "duration": 78}, {"note": 69, "velocity": 100, "duration": 64}, {"note": 72, "velocity": 99, "duration": 389}, {"note": 0, "velocity": 0, "duration": 91}, {"note": 72, "velocity": 102, "duration": 130}, {"note": 0, "velocity": 0, "duration": 350}, {"note": 74, "velocity": 112, "duration": 80}, {"note": 0, "velocity": 0, "duration": 160}, {"note": 74, "velocity": 95, "duration": 120}, {"note": 0, "velocity": 0, "duration": 120}, {"note": 74, "velocity": 107, "duration": 217}, {"note": 72, "velocity": 92, "duration": 135}, {"note": 0, "velocity": 0, "duration": 105}, {"note": 72, "velocity": 117, "duration": 131}, {"note": 0, "velocity": 0, "duration": 349}, {"note": 69, "velocity": 99, "duration": 302}, {"note": 69, "velocity": 100, "duration": 117}, {"note": 72, "velocity": 102, "duration": 425}, {"note": 69, "velocity": 95, "duration": 174}, {"note": 0, "velocity": 0, "duration": 66}, {"note": 67, "velocity": 112, "duration": 105}, {"note": 65, "velocity": 66, "duration": 155}, {"note": 67, "velocity": 95, "duration": 656}, {"note": 0, "velocity": 0, "duration": 1744}, {"note": 69, "velocity": 100, "duration": 166}, {"note": 0, "velocity": 0, "duration": 74}, {"note": 69, "velocity": 95, "duration": 201}, {"note": 67, "velocity": 92, "duration": 552}, {"note": 0, "velocity": 0, "duration": 168}, {"note": 65, "velocity": 100, "duration": 148}, {"note": 0, "velocity": 0, "duration": 92}, {"note": 67, "velocity": 89, "duration": 148}, {"note": 0, "velocity": 0, "duration": 92}, {"note": 65, "velocity": 97, "duration": 140}, {"note": 0, "velocity": 0, "duration": 100}, {"note": 62, "velocity": 96, "duration": 470}, {"note": 0, "velocity": 0, "duration": 490}, {"note": 65, "velocity": 92, "duration": 198}, {"note": 67, "velocity": 83, "duration": 186}, {"note": 69, "velocity": 96, "duration": 456}, {"note": 0, "velocity": 0, "duration": 264}, {"note": 72, "velocity": 95, "duration": 99}, {"note": 74, "velocity": 81, "duration": 117}, {"note": 72, "velocity": 81, "duration": 212}, {"note": 69, "velocity": 81, "duration": 256}, {"note": 67, "velocity": 79, "duration": 607}, {"note": 0, "velocity": 0, "duration": 353}, {"note": 67, "velocity": 107, "duration": 141}, {"note": 0, "velocity": 0, "duration": 99}, {"note": 65, "velocity": 73, "duration": 130}, {"note": 0, "velocity": 0, "duration": 110}, {"note": 67, "velocity": 95, "duration": 478}, {"note": 0, "velocity": 0, "duration": 242}, {"note": 69, "velocity": 95, "duration": 102}, {"note": 67, "velocity": 69, "duration": 113}, {"note": 65, "velocity": 82, "duration": 180}, {"note": 67, "velocity": 86, "duration": 140}, {"note": 0, "velocity": 0, "duration": 100}, {"note": 69, "velocity": 97, "duration": 295}, {"note": 0, "velocity": 0, "duration": 665}, {"note": 60, "velocity": 92, "duration": 217}, {"note": 57, "velocity": 83, "duration": 256}, {"note": 60, "velocity": 89, "duration": 480}, {"note": 0, "velocity": 0, "duration": 240}, {"note": 62, "velocity": 79, "duration": 225}, {"note": 65, "velocity": 75, "duration": 286}, {"note": 0, "velocity": 0, "duration": 74}, {"note": 65, "velocity": 100, "duration": 74}, {"note": 67, "velocity": 88, "duration": 456}, {"note": 65, "velocity": 83, "duration": 219}, {"note": 62, "velocity": 77, "duration": 817}, {"note": 0, "velocity": 0, "duration": 1343}, {"note": 69, "velocity": 102, "duration": 333}, {"note": 69, "velocity": 100, "duration": 64}, {"note": 72, "velocity": 99, "duration": 350}, {"note": 0, "velocity": 0, "duration": 130}, {"note": 72, "velocity": 102, "duration": 338}, {"note": 0, "velocity": 0, "duration": 142}, {"note": 74, "velocity": 122, "duration": 155}, {"note": 0, "velocity": 0, "duration": 85}, {"note": 74, "velocity": 99, "duration": 170}, {"note": 0, "velocity": 0, "duration": 70}, {"note": 74, "velocity": 112, "duration": 395}, {"note": 0, "velocity": 0, "duration": 85}, {"note": 74, "velocity": 122, "duration": 130}, {"note": 0, "velocity": 0, "duration": 350}, {"note": 74, "velocity": 107, "duration": 161}, {"note": 0, "velocity": 0, "duration": 79}, {"note": 77, "velocity": 100, "duration": 470}, {"note": 74, "velocity": 112, "duration": 181}, {"note": 72, "velocity": 97, "duration": 233}, {"note": 74, "velocity": 99, "duration": 143}, {"note": 72, "velocity": 99, "duration": 143}, {"note": 0, "velocity": 0, "duration": 97}, {"note": 72, "velocity": 97, "duration": 240}, {"note": 69, "velocity": 97, "duration": 780}, {"note": 0, "velocity": 0, "duration": 540}, {"note": 69, "velocity": 100, "duration": 283}, {"note": 0, "velocity": 0, "duration": 77}, {"note": 69, "velocity": 100, "duration": 79}, {"note": 72, "velocity": 99, "duration": 389}, {"note": 0, "velocity": 0, "duration": 91}, {"note": 72, "velocity": 102, "duration": 130}, {"note": 0, "velocity": 0, "duration": 350}, {"note": 74, "velocity": 112, "duration": 80}, {"note": 0, "velocity": 0, "duration": 160}, {"note": 74, "velocity": 95, "duration": 120}, {"note": 0, "velocity": 0, "duration": 120}, {"note": 74, "velocity": 107, "duration": 217}, {"note": 72, "velocity": 92, "duration": 135}, {"note": 0, "velocity": 0, "duration": 105}, {"note": 72, "velocity": 117, "duration": 131}, {"note": 0, "velocity": 0, "duration": 349}, {"note": 69, "velocity": 99, "duration": 298}, {"note": 0, "velocity": 0, "duration": 62}, {"note": 69, "velocity": 100, "duration": 118}, {"note": 72, "velocity": 102, "duration": 425}, {"note": 69, "velocity": 95, "duration": 174}, {"note": 0, "velocity": 0, "duration": 66}, {"note": 67, "velocity": 112, "duration": 105}, {"note": 65, "velocity": 66, "duration": 155}, {"note": 67, "velocity": 95, "duration": 656}, {"note": 0, "velocity": 0, "duration": 1744}, {"note": 69, "velocity": 100, "duration": 166}, {"note": 0, "velocity": 0, "duration": 74}, {"note": 69, "velocity": 95, "duration": 201}, {"note": 67, "velocity": 92, "duration": 552}, {"note": 0, "velocity": 0, "duration": 168}, {"note": 65, "velocity": 100, "duration": 148}, {"note": 0, "velocity": 0, "duration": 92}, {"note": 67, "velocity": 89, "duration": 148}, {"note": 0, "velocity": 0, "duration": 92}, {"note": 65, "velocity": 97, "duration": 140}, {"note": 0, "velocity": 0, "duration": 100}, {"note": 62, "velocity": 96, "duration": 470}, {"note": 0, "velocity": 0, "duration": 490}, {"note": 65, "velocity": 92, "duration": 198}, {"note": 67, "velocity": 83, "duration": 186}, {"note": 69, "velocity": 96, "duration": 456}, {"note": 0, "velocity": 0, "duration": 264}, {"note": 72, "velocity": 95, "duration": 99}, {"note": 74, "velocity": 81, "duration": 117}, {"note": 72, "velocity": 81, "duration": 212}, {"note": 69, "velocity": 81, "duration": 256}, {"note": 67, "velocity": 79, "duration": 607}, {"note": 0, "velocity": 0, "duration": 353}, {"note": 67, "velocity": 107, "duration": 141}, {"note": 0, "velocity": 0, "duration": 99}, {"note": 65, "velocity": 73, "duration": 130}, {"note": 0, "velocity": 0, "duration": 110}, {"note": 67, "velocity": 95, "duration": 478}, {"note": 0, "velocity": 0, "duration": 242}, {"note": 69, "velocity": 95, "duration": 102}, {"note": 67, "velocity": 69, "duration": 113}, {"note": 65, "velocity": 82, "duration": 180}, {"note": 67, "velocity": 86, "duration": 140}, {"note": 0, "velocity": 0, "duration": 100}, {"note": 69, "velocity": 97, "duration": 295}, {"note": 0, "velocity": 0, "duration": 665}, {"note": 60, "velocity": 92, "duration": 217}, {"note": 57, "velocity": 83, "duration": 256}, {"note": 60, "velocity": 89, "duration": 480}, {"note": 0, "velocity": 0, "duration": 240}, {"note": 62, "velocity": 79, "duration": 225}, {"note": 65, "velocity": 75, "duration": 286}, {"note": 0, "velocity": 0, "duration": 314}, {"note": 67, "velocity": 88, "duration": 426}, {"note": 0, "velocity": 0, "duration": 174}, {"note": 65, "velocity": 83, "duration": 219}, {"note": 62, "velocity": 77, "duration": 817}]]