[[{"note": 58, "velocity": 107, "duration": 227}, {"note": 60, "velocity": 83, "duration": 189}, {"note": 63, "velocity": 112, "duration": 192}, {"note": 0, "velocity": 0, "duration": 288}, {"note": 63, "velocity": 127, "duration": 240}, {"note": 62, "velocity": 83, "duration": 179}, {"note": 0, "velocity": 0, "duration": 61}, {"note": 63, "velocity": 112, "duration": 331}, {"note": 0, "velocity": 0, "duration": 149}, {"note": 70, "velocity": 102, "duration": 443}, {"note": 63, "velocity": 107, "duration": 812}, {"note": 0, "velocity": 0, "duration": 628}, {"note": 58, "velocity": 107, "duration": 141}, {"note": 0, "velocity": 0, "duration": 99}, {"note": 60, "velocity": 79, "duration": 158}, {"note": 0, "velocity": 0, "duration": 82}, {"note": 63, "velocity": 99, "duration": 326}, {"note": 0, "velocity": 0, "duration": 154}, {"note": 63, "velocity": 112, "duration": 90}, {"note": 0, "velocity": 0, "duration": 150}, {"note": 62, "velocity": 82, "duration": 103}, {"note": 0, "velocity": 0, "duration": 137}, {"note": 63, "velocity": 95, "duration": 296}, {"note": 0, "velocity": 0, "duration": 184}, {"note": 67, "velocity": 93, "duration": 385}, {"note": 0, "velocity": 0, "duration": 95}, {"note": 67, "velocity": 100, "duration": 765}, {"note": 0, "velocity": 0, "duration": 675}, {"note": 65, "velocity": 96, "duration": 123}, {"note": 0, "velocity": 0, "duration": 117}, {"note": 67, "velocity": 93, "duration": 152}, {"note": 0, "velocity": 0, "duration": 88}, {"note": 70, "velocity": 107, "duration": 220}, {"note": 72, "velocity": 100, "duration": 228}, {"note": 70, "velocity": 99, "duration": 267}, {"note": 72, "velocity": 95, "duration": 218}, {"note": 70, "velocity": 117, "duration": 412}, {"note": 0, "velocity": 0, "duration": 308}, {"note": 65, "velocity": 100, "duration": 355}, {"note": 0, "velocity": 0, "duration": 125}, {"note": 67, "velocity": 97, "duration": 122}, {"note": 0, "velocity": 0, "duration": 118}, {"note": 67, "velocity": 93, "duration": 423}, {"note": 63, "velocity": 96, "duration": 473}, {"note": 0, "velocity": 0, "duration": 487}, {"note": 63, "velocity": 102, "duration": 204}, {"note": 60, "velocity": 69, "duration": 249}, {"note": 63, "velocity": 90, "duration": 260}, {"note": 60, "velocity": 78, "duration": 262}, {"note": 63, "velocity": 97, "duration": 279}, {"note": 0, "velocity": 0, "duration": 201}, {"note": 60, "velocity": 95, "duration": 205}, {"note": 62, "velocity": 93, "duration": 132}, {"note": 60, "velocity": 86, "duration": 115}, {"note": 58, "velocity": 89, "duration": 1048}, {"note": 0, "velocity": 0, "duration": 392}, {"note": 58, "velocity": 107, "duration": 227}, {"note": 60, "velocity": 83, "duration": 189}, {"note": 63, "velocity": 112, "duration": 192}, {"note": 0, "velocity": 0, "duration": 288}, {"note": 63, "velocity": 127, "duration": 240}, {"note": 62, "velocity": 83, "duration": 179}, {"note": 0, "velocity": 0, "duration": 61}, {"note": 63, "velocity": 112, "duration": 331}, {"note": 0, "velocity": 0, "duration": 149}, {"note": 70, "velocity": 102, "duration": 443}, {"note": 63, "velocity": 107, "duration": 812}, {"note": 0, "velocity": 0, "duration": 628}, {"note": 58, "velocity": 107, "duration": 141}, {"note": 0, "velocity": 0, "duration": 99}, {"note": 60, "velocity": 79, "duration": 158}, {"note": 0, "velocity": 0, "duration": 82}, {"note": 63, "velocity": 99, "duration": 326}, {"note": 0, "velocity": 0, "duration": 154}, {"note": 63, "velocity": 112, "duration": 90}, {"note": 0, "velocity": 0, "duration": 150}, {"note": 62, "velocity": 82, "duration": 103}, {"note": 0, "velocity": 0, "duration": 137}, {"note": 63, "velocity": 95, "duration": 296}, {"note": 0, "velocity": 0, "duration": 184}, {"note": 67, "velocity": 93, "duration": 385}, {"note": 0, "velocity": 0, "duration": 95}, {"note": 67, "velocity": 100, "duration": 765}, {"note": 0, "velocity": 0, "duration": 675}, {"note": 65, "velocity": 96, "duration": 123}, {"note": 0, "velocity": 0, "duration": 117}, {"note": 67, "velocity": 93, "duration": 152}, {"note": 0, "velocity": 0, "duration": 88}, {"note": 70, "velocity": 107, "duration": 220}, {"note": 72, "velocity": 100, "duration": 228}, {"note": 70, "velocity": 99, "duration": 267}, {"note": 72, "velocity": 95, "duration": 218}, {"note": 70, "velocity": 117, "duration": 412}, {"note": 0, "velocity": 0, "duration": 308}, {"note": 65, "velocity": 100, "duration": 355}, {"note": 0, "velocity": 0, "duration": 125}, {"note": 67, "velocity": 97, "duration": 122}, {"note": 0, "velocity": 0, "duration": 118}, {"note": 67, "velocity": 93, "duration": 423}, {"note": 63, "velocity": 96, "duration": 473}, {"note": 0, "velocity": 0, "duration": 487}, {"note": 63, "velocity": 102, "duration": 204}, {"note": 60, "velocity": 69, "duration": 249}, {"note": 63, "velocity": 90, "duration": 260}, {"note": 60, "velocity": 78, "duration": 262}, {"note": 63, "velocity": 97, "duration": 279}, {"note": 0, "velocity": 0, "duration": 201}, {"note": 65, "velocity": 100, "duration": 182}, {"note": 67, "velocity": 112, "duration": 114}, {"note": 65, "velocity": 79, "duration": 112}, {"note": 63, "velocity": 117, "duration": 1089}, {"note": 0, "velocity": 0, "duration": 2751}, {"note": 67, "velocity": 99, "duration": 291}, {"note": 70, "velocity": 102, "duration": 117}, {"note": 0, "velocity": 0, "duration": 123}, {"note": 72, "velocity": 112, "duration": 215}, {"note": 70, "velocity": 99, "duration": 132}, {"note": 0, "velocity": 0, "duration": 108}, {"note": 72, "velocity": 117, "duration": 269}, {"note": 0, "velocity": 0, "duration": 211}, {"note": 67, "velocity": 122, "duration": 340}, {"note": 0, "velocity": 0, "duration": 140}, {"note": 65, "velocity": 127, "duration": 562}, {"note": 70, "velocity": 127, "duration": 347}, {"note": 0, "velocity": 0, "duration": 133}, {"note": 70, "velocity": 127, "duration": 492}, {"note": 0, "velocity": 0, "duration": 468}, {"note": 63, "velocity": 117, "duration": 141}, {"note": 0, "velocity": 0, "duration": 99}, {"note": 65, "velocity": 89, "duration": 121}, {"note": 0, "velocity": 0, "duration": 119}, {"note": 67, "velocity": 90, "duration": 153}, {"note": 0, "velocity": 0, "duration": 87}, {"note": 65, "velocity": 95, "duration": 119}, {"note": 0, "velocity": 0, "duration": 121}, {"note": 67, "velocity": 92, "duration": 260}, {"note": 0, "velocity": 0, "duration": 220}, {"note": 58, "velocity": 97, "duration": 376}, {"note": 0, "velocity": 0, "duration": 104}, {"note": 60, "velocity": 97, "duration": 508}, {"note": 65, "velocity": 100, "duration": 330}, {"note": 0, "velocity": 0, "duration": 150}, {"note": 65, "velocity": 102, "duration": 462}, {"note": 0, "velocity": 0, "duration": 498}, {"note": 67, "velocity": 107, "duration": 273}, {"note": 70, "velocity": 97, "duration": 141}, {"note": 0, "velocity": 0, "duration": 99}, {"note": 72, "velocity": 100, "duration": 208}, {"note": 70, "velocity": 112, "duration": 144}, {"note": 0, "velocity": 0, "duration": 96}, {"note": 72, "velocity": 122, "duration": 260}, {"note": 0, "velocity": 0, "duration": 220}, {"note": 75, "velocity": 117, "duration": 379}, {"note": 0, "velocity": 0, "duration": 101}, {"note": 70, "velocity": 117, "duration": 466}, {"note": 67, "velocity": 93, "duration": 223}, {"note": 65, "velocity": 97, "duration": 199}, {"note": 63, "velocity": 100, "duration": 577}, {"note": 0, "velocity": 0, "duration": 383}, {"note": 63, "velocity": 117, "duration": 191}, {"note": 60, "velocity": 88, "duration": 123}, {"note": 0, "velocity": 0, "duration": 117}, {"note": 63, "velocity": 107, "duration": 135}, {"note": 0, "velocity": 0, "duration": 105}, {"note": 60, "velocity": 85, "duration": 182}, {"note": 63, "velocity": 127, "duration": 351}, {"note": 0, "velocity": 0, "duration": 129}, {"note": 65, "velocity": 112, "duration": 238}, {"note": 67, "velocity": 95, "duration": 212}, {"note": 65, "velocity": 102, "duration": 815}, {"note": 0, "velocity": 0, "duration": 1105}, {"note": 67, "velocity": 99, "duration": 291}, {"note": 70, "velocity": 102, "duration": 117}, {"note": 0, "velocity": 0, "duration": 123}, {"note": 72, "velocity": 112, "duration": 215}, {"note": 70, "velocity": 99, "duration": 132}, {"note": 0, "velocity": 0, "duration": 108}, {"note": 72, "velocity": 117, "duration": 269}, {"note": 0, "velocity": 0, "duration": 211}, {"note": 67, "velocity": 122, "duration": 340}, {"note": 0, "velocity": 0, "duration": 140}, {"note": 65, "velocity": 127, "duration": 562}, {"note": 70, "velocity": 127, "duration": 347}, {"note": 0, "velocity": 0, "duration": 133}, {"note": 70, "velocity": 127, "duration": 492}, {"note": 0, "velocity": 0, "duration": 468}, {"note": 63, "velocity": 117, "duration": 141}, {"note": 0, "velocity": 0, "duration": 99}, {"note": 65, "velocity": 89, "duration": 121}, {"note": 0, "velocity": 0, "duration": 119}, {"note": 67, "velocity": 90, "duration": 153}, {"note": 0, "velocity": 0, "duration": 87}, {"note": 65, "velocity": 95, "duration": 119}, {"note": 0, "velocity": 0, "duration": 121}, {"note": 67, "velocity": 92, "duration": 260}, {"note": 0, "velocity": 0, "duration": 220}, {"note": 58, "velocity": 97, "duration": 376}, {"note": 0, "velocity": 0, "duration": 104}, {"note": 60, "velocity": 97, "duration": 508}, {"note": 65, "velocity": 100, "duration": 330}, {"note": 0, "velocity": 0, "duration": 150}, {"note": 65, "velocity": 102, "duration": 462}, {"note": 0, "velocity": 0, "duration": 498}, {"note": 67, "velocity": 107, "duration": 273}, {"note": 70, "velocity": 97, "duration": 141}, {"note": 0, "velocity": 0, "duration": 99}, {"note": 72, "velocity": 100, "duration": 208}, {"note": 70, "velocity": 112, "duration": 144}, {"note": 0, "velocity": 0, "duration": 96}, {"note": 72, "velocity": 122, "duration": 260}, {"note": 0, "velocity": 0, "duration": 220}, {"note": 75, "velocity": 117, "duration": 379}, {"note": 0, "velocity": 0, "duration": 101}, {"note": 70, "velocity": 117, "duration": 466}, {"note": 67, "velocity": 93, "duration": 223}, {"note": 65, "velocity": 97, "duration": 199}, {"note": 63, "velocity": 100, "duration": 577}, {"note": 0, "velocity": 0, "duration": 383}, {"note": 63, "velocity": 117, "duration": 191}, {"note": 60, "velocity": 88, "duration": 123}, {"note": 0, "velocity": 0, "duration": 117}, {"note": 63, "velocity": 107, "duration": 135}, {"note": 0, "velocity": 0, "duration": 105}, {"note": 60, "velocity": 85, "duration": 182}, {"note": 63, "velocity": 127, "duration": 351}, {"note": 0, "velocity": 0, "duration": 129}, {"note": 65, "velocity": 112, "duration": 238}, {"note": 67, "velocity": 95, "duration": 212}, {"note": 65, "velocity": 102, "duration": 815}, {"note": 0, "velocity": 0, "duration": 625}, {"note": 58, "velocity": 102, "duration": 185}, {"note": 60, "velocity": 90, "duration": 167}, {"note": 0, "velocity": 0, "duration": 73}, {"note": 63, "velocity": 112, "duration": 1047}, {"note": 0, "velocity": 0, "duration": 21513}, {"note": 58, "velocity": 107, "duration": 227}, {"note": 60, "velocity": 83, "duration": 189}, {"note": 63, "velocity": 112, "duration": 192}, {"note": 0, "velocity": 0, "duration": 288}, {"note": 63, "velocity": 127, "duration": 240}, {"note": 62, "velocity": 83, "duration": 179}, {"note": 0, "velocity": 0, "duration": 61}, {"note": 63, "velocity": 112, "duration": 331}, {"note": 0, "velocity": 0, "duration": 149}, {"note": 70, "velocity": 102, "duration": 443}, {"note": 63, "velocity": 107, "duration": 812}, {"note": 0, "velocity": 0, "duration": 628}, {"note": 58, "velocity": 107, "duration": 141}, {"note": 0, "velocity": 0, "duration": 99}, {"note": 60, "velocity": 79, "duration": 158}, {"note": 0, "velocity": 0, "duration": 82}, {"note": 63, "velocity": 99, "duration": 326}, {"note": 0, "velocity": 0, "duration": 154}, {"note": 63, "velocity": 112, "duration": 90}, {"note": 0, "velocity": 0, "duration": 150}, {"note": 62, "velocity": 82, "duration": 103}, {"note": 0, "velocity": 0, "duration": 137}, {"note": 63, "velocity": 95, "duration": 296}, {"note": 0, "velocity": 0, "duration": 184}, {"note": 67, "velocity": 93, "duration": 385}, {"note": 0, "velocity": 0, "duration": 95}, {"note": 67, "velocity": 100, "duration": 765}, {"note": 0, "velocity": 0, "duration": 675}, {"note": 65, "velocity": 96, "duration": 123}, {"note": 0, "velocity": 0, "duration": 117}, {"note": 67, "velocity": 93, "duration": 152}, {"note": 0, "velocity": 0, "duration": 88}, {"note": 70, "velocity": 107, "duration": 220}, {"note": 72, "velocity": 100, "duration": 228}, {"note": 70, "velocity": 99, "duration": 267}, {"note": 72, "velocity": 95, "duration": 218}, {"note": 70, "velocity": 117, "duration": 412}, {"note": 0, "velocity": 0, "duration": 308}, {"note": 65, "velocity": 100, "duration": 355}, {"note": 0, "velocity": 0, "duration": 125}, {"note": 67, "velocity": 97, "duration": 122}, {"note": 0, "velocity": 0, "duration": 118}, {"note": 67, "velocity": 93, "duration": 423}, {"note": 63, "velocity": 96, "duration": 473}, {"note": 0, "velocity": 0, "duration": 487}, {"note": 63, "velocity": 102, "duration": 204}, {"note": 60, "velocity": 69, "duration": 249}, {"note": 63, "velocity": 90, "duration": 260}, {"note": 60, "velocity": 78, "duration": 262}, {"note": 63, "velocity": 97, "duration": 279}, {"note": 0, "velocity": 0, "duration": 201}, {"note": 60, "velocity": 95, "duration": 205}, {"note": 62, "velocity": 93, "duration": 132}, {"note": 60, "velocity": 86, "duration": 115}, {"note": 58, "velocity": 89, "duration": 1048}, {"note": 0, "velocity": 0, "duration": 392}, {"note": 58, "velocity": 107, "duration": 227}, {"note": 60, "velocity": 83, "duration": 189}, {"note": 63, "velocity": 112, "duration": 192}, {"note": 0, "velocity": 0, "duration": 288}, {"note": 63, "velocity": 127, "duration": 240}, {"note": 62, "velocity": 83, "duration": 179}, {"note": 0, "velocity": 0, "duration": 61}, {"note": 63, "velocity": 112, "duration": 331}, {"note": 0, "velocity": 0, "duration": 149}, {"note": 70, "velocity": 102, "duration": 443}, {"note": 63, "velocity": 107, "duration": 812}, {"note": 0, "velocity": 0, "duration": 628}, {"note": 58, "velocity": 107, "duration": 141}, {"note": 0, "velocity": 0, "duration": 99}, {"note": 60, "velocity": 79, "duration": 158}, {"note": 0, "velocity": 0, "duration": 82}, {"note": 63, "velocity": 99, "duration": 326}, {"note": 0, "velocity": 0, "duration": 154}, {"note": 63, "velocity": 112, "duration": 90}, {"note": 0, "velocity": 0, "duration": 150}, {"note": 62, "velocity": 82, "duration": 103}, {"note": 0, "velocity": 0, "duration": 137}, {"note": 63, "velocity": 95, "duration": 296}, {"note": 0, "velocity": 0, "duration": 184}, {"note": 67, "velocity": 93, "duration": 385}, {"note": 0, "velocity": 0, "duration": 95}, {"note": 67, "velocity": 100, "duration": 765}, {"note": 0, "velocity": 0, "duration": 675}, {"note": 65, "velocity": 96, "duration": 123}, {"note": 0, "velocity": 0, "duration": 117}, {"note": 67, "velocity": 93, "duration": 152}, {"note": 0, "velocity": 0, "duration": 88}, {"note": 70, "velocity": 107, "duration": 220}, {"note": 72, "velocity": 100, "duration": 228}, {"note": 70, "velocity": 99, "duration": 267}, {"note": 72, "velocity": 95, "duration": 218}, {"note": 70, "velocity": 117, "duration": 412}, {"note": 0, "velocity": 0, "duration": 308}, {"note": 65, "velocity": 100, "duration": 355}, {"note": 0, "velocity": 0, "duration": 125}, {"note": 67, "velocity": 97, "duration": 122}, {"note": 0, "velocity": 0, "duration": 118}, {"note": 67, "velocity": 93, "duration": 423}, {"note": 63, "velocity": 96, "duration": 473}, {"note": 0, "velocity": 0, "duration": 487}, {"note": 63, "velocity": 102, "duration": 204}, {"note": 60, "velocity": 69, "duration": 249}, {"note": 63, "velocity": 90, "duration": 260}, {"note": 60, "velocity": 78, "duration": 262}, {"note": 63, "velocity": 97, "duration": 279}, {"note": 0, "velocity": 0, "duration": 201}, {"note": 65, "velocity": 100, "duration": 182}, {"note": 67, "velocity": 112, "duration": 114}, {"note": 65, "velocity": 79, "duration": 112}, {"note": 63, "velocity": 117, "duration": 1089}, {"note": 0, "velocity": 0, "duration": 2751}, {"note": 67, "velocity": 99, "duration": 291}, {"note": 70, "velocity": 102, "duration": 117}, {"note": 0, "velocity": 0, "duration": 123}, {"note": 72, "velocity": 112, "duration": 215}, {"note": 70, "velocity": 99, "duration": 132}, {"note": 0, "velocity": 0, "duration": 108}, {"note": 72, "velocity": 117, "duration": 269}, {"note": 0, "velocity": 0, "duration": 211}, {"note": 67, "velocity": 122, "duration": 340}, {"note": 0, "velocity": 0, "duration": 140}, {"note": 65, "velocity": 127, "duration": 562}, {"note": 70, "velocity": 127, "duration": 347}, {"note": 0, "velocity": 0, "duration": 133}, {"note": 70, "velocity": 127, "duration": 492}, {"note": 0, "velocity": 0, "duration": 468}, {"note": 63, "velocity": 117, "duration": 141}, {"note": 0, "velocity": 0, "duration": 99}, {"note": 65, "velocity": 89, "duration": 121}, {"note": 0, "velocity": 0, "duration": 119}, {"note": 67, "velocity": 90, "duration": 153}, {"note": 0, "velocity": 0, "duration": 87}, {"note": 65, "velocity": 95, "duration": 119}, {"note": 0, "velocity": 0, "duration": 121}, {"note": 67, "velocity": 92, "duration": 260}, {"note": 0, "velocity": 0, "duration": 220}, {"note": 58, "velocity": 97, "duration": 376}, {"note": 0, "velocity": 0, "duration": 104}, {"note": 60, "velocity": 97, "duration": 508}, {"note": 65, "velocity": 100, "duration": 330}, {"note": 0, "velocity": 0, "duration": 150}, {"note": 65, "velocity": 102, "duration": 462}, {"note": 0, "velocity": 0, "duration": 498}, {"note": 67, "velocity": 107, "duration": 273}, {"note": 70, "velocity": 97, "duration": 141}, {"note": 0, "velocity": 0, "duration": 99}, {"note": 72, "velocity": 100, "duration": 208}, {"note": 70, "velocity": 112, "duration": 144}, {"note": 0, "velocity": 0, "duration": 96}, {"note": 72, "velocity": 122, "duration": 260}, {"note": 0, "velocity": 0, "duration": 220}, {"note": 75, "velocity": 117, "duration": 379}, {"note": 0, "velocity": 0, "duration": 101}, {"note": 70, "velocity": 117, "duration": 466}, {"note": 67, "velocity": 93, "duration": 223}, {"note": 65, "velocity": 97, "duration": 199}, {"note": 63, "velocity": 100, "duration": 577}, {"note": 0, "velocity": 0, "duration": 383}, {"note": 63, "velocity": 117, "duration": 191}, {"note": 60, "velocity": 88, "duration": 123}, {"note": 0, "velocity": 0, "duration": 117}, {"note": 63, "velocity": 107, "duration": 135}, {"note": 0, "velocity": 0, "duration": 105}, {"note": 60, "velocity": 85, "duration": 182}, {"note": 63, "velocity": 127, "duration": 351}, {"note": 0, "velocity": 0, "duration": 129}, {"note": 65, "velocity": 112, "duration": 238}, {"note": 67, "velocity": 95, "duration": 212}, {"note": 65, "velocity": 102, "duration": 815}, {"note": 0, "velocity": 0, "duration": 1105}, {"note": 67, "velocity": 99, "duration": 291}, {"note": 70, "velocity": 102, "duration": 117}, {"note": 0, "velocity": 0, "duration": 123}, {"note": 72, "velocity": 112, "duration": 215}, {"note": 70, "velocity": 99, "duration": 132}, {"note": 0, "velocity": 0, "duration": 108}, {"note": 72, "velocity": 117, "duration": 269}, {"note": 0, "velocity": 0, "duration": 211}, {"note": 67, "velocity": 122, "duration": 340}, {"note": 0, "velocity": 0, "duration": 140}, {"note": 65, "velocity": 127, "duration": 562}, {"note": 70, "velocity": 127, "duration": 347}, {"note": 0, "velocity": 0, "duration": 133}, {"note": 70, "velocity": 127, "duration": 492}, {"note": 0, "velocity": 0, "duration": 468}, {"note": 63, "velocity": 117, "duration": 141}, {"note": 0, "velocity": 0, "duration": 99}, {"note": 65, "velocity": 89, "duration": 121}, {"note": 0, "velocity": 0, "duration": 119}, {"note": 67, "velocity": 90, "duration": 153}, {"note": 0, "velocity": 0, "duration": 87}, {"note": 65, "velocity": 95, "duration": 119}, {"note": 0, "velocity": 0, "duration": 121}, {"note": 67, "velocity": 92, "duration": 260}, {"note": 0, "velocity": 0, "duration": 220}, {"note": 58, "velocity": 97, "duration": 376}, {"note": 0, "velocity": 0, "duration": 104}, {"note": 60, "velocity": 97, "duration": 508}, {"note": 65, "velocity": 100, "duration": 330}, {"note": 0, "velocity": 0, "duration": 150}, {"note": 65, "velocity": 102, "duration": 462}, {"note": 0, "velocity": 0, "duration": 498}, {"note": 67, "velocity": 107, "duration": 273}, {"note": 70, "velocity": 97, "duration": 141}, {"note": 0, "velocity": 0, "duration": 99}, {"note": 72, "velocity": 100, "duration": 208}, {"note": 70, "velocity": 112, "duration": 144}, {"note": 0, "velocity": 0, "duration": 96}, {"note": 72, "velocity": 122, "duration": 260}, {"note": 0, "velocity": 0, "duration": 220}, {"note": 75, "velocity": 117, "duration": 379}, {"note": 0, "velocity": 0, "duration": 101}, {"note": 70, "velocity": 117, "duration": 466}, {"note": 67, "velocity": 93, "duration": 223}, {"note": 65, "velocity": 97, "duration": 199}, {"note": 63, "velocity": 100, "duration": 577}, {"note": 0, "velocity": 0, "duration": 383}, {"note": 63, "velocity": 117, "duration": 191}, {"note": 60, "velocity": 88, "duration": 123}, {"note": 0, "velocity": 0, "duration": 117}, {"note": 63, "velocity": 107, "duration": 135}, {"note": 0, "velocity": 0, "duration": 105}, {"note": 60, "velocity": 85, "duration": 182}, {"note": 63, "velocity": 127, "duration": 351}, {"note": 0, "velocity": 0, "duration": 129}, {"note": 65, "velocity": 112, "duration": 238}, {"note": 67, "velocity": 95, "duration": 212}, {"note": 65, "velocity": 102, "duration": 815}, {"note": 0, "velocity": 0, "duration": 625}, {"note": 58, "velocity": 102, "duration": 185}, {"note": 60, "velocity": 90, "duration": 167}, {"note": 0, "velocity": 0, "duration": 73}, {"note": 63, "velocity": 112, "duration": 1047}, {"note": 0, "velocity": 0, "duration": 873}, {"note": 67, "velocity": 99, "duration": 291}, {"note": 70, "velocity": 102, "duration": 117}, {"note": 0, "velocity": 0, "duration": 123}, {"note": 72, "velocity": 112, "duration": 215}, {"note": 70, "velocity": 99, "duration": 132}, {"note": 0, "velocity": 0, "duration": 108}, {"note": 72, "velocity": 117, "duration": 269}, {"note": 0, "velocity": 0, "duration": 211}, {"note": 67, "velocity": 122, "duration": 340}, {"note": 0, "velocity": 0, "duration": 140}, {"note": 65, "velocity": 127, "duration": 562}, {"note": 70, "velocity": 127, "duration": 347}, {"note": 0, "velocity": 0, "duration": 133}, {"note": 70, "velocity": 127, "duration": 492}, {"note": 0, "velocity": 0, "duration": 468}, {"note": 63, "velocity": 117, "duration": 141}, {"note": 0, "velocity": 0, "duration": 99}, {"note": 65, "velocity": 89, "duration": 121}, {"note": 0, "velocity": 0, "duration": 119}, {"note": 67, "velocity": 90, "duration": 153}, {"note": 0, "velocity": 0, "duration": 87}, {"note": 65, "velocity": 95, "duration": 119}, {"note": 0, "velocity": 0, "duration": 121}, {"note": 67, "velocity": 92, "duration": 260}, {"note": 0, "velocity": 0, "duration": 220}, {"note": 58, "velocity": 97, "duration": 376}, {"note": 0, "velocity": 0, "duration": 104}, {"note": 60, "velocity": 97, "duration": 508}, {"note": 65, "velocity": 100, "duration": 330}, {"note": 0, "velocity": 0, "duration": 150}, {"note": 65, "velocity": 102, "duration": 462}, {"note": 0, "velocity": 0, "duration": 498}, {"note": 67, "velocity": 107, "duration": 273}, {"note": 70, "velocity": 97, "duration": 141}, {"note": 0, "velocity": 0, "duration": 99}, {"note": 72, "velocity": 100, "duration": 208}, {"note": 70, "velocity": 112, "duration": 144}, {"note": 0, "velocity": 0, "duration": 96}, {"note": 72, "velocity": 122, "duration": 260}, {"note": 0, "velocity": 0, "duration": 220}, {"note": 75, "velocity": 117, "duration": 379}, {"note": 0, "velocity": 0, "duration": 101}, {"note": 70, "velocity": 117, "duration": 466}, {"note": 67, "velocity": 93, "duration": 223}, {"note": 65, "velocity": 97, "duration": 199}, {"note": 63, "velocity": 100, "duration": 577}, {"note": 0, "velocity": 0, "duration": 383}, {"note": 63, "velocity": 117, "duration": 191}, {"note": 60, "velocity": 88, "duration": 123}, {"note": 0, "velocity": 0, "duration": 117}, {"note": 63, "velocity": 107, "duration": 135}, {"note": 0, "velocity": 0, "duration": 105}, {"note": 60, "velocity": 85, "duration": 182}, {"note": 63, "velocity": 127, "duration": 351}, {"note": 0, "velocity": 0, "duration": 129}, {"note": 65, "velocity": 112, "duration": 238}, {"note": 67, "velocity": 95, "duration": 212}, {"note": 65, "velocity": 102, "duration": 815}, {"note": 0, "velocity": 0, "duration": 1105}, {"note": 67, "velocity": 99, "duration": 291}, {"note": 70, "velocity": 102, "duration": 117}, {"note": 0, "velocity": 0, "duration": 123}, {"note": 72, "velocity": 112, "duration": 215}, {"note": 70, "velocity": 99, "duration": 132}, {"note": 0, "velocity": 0, "duration": 108}, {"note": 72, "velocity": 117, "duration": 269}, {"note": 0, "velocity": 0, "duration": 211}, {"note": 67, "velocity": 122, "duration": 340}, {"note": 0, "velocity": 0, "duration": 140}, {"note": 65, "velocity": 127, "duration": 562}, {"note": 70, "velocity": 127, "duration": 347}, {"note": 0, "velocity": 0, "duration": 133}, {"note": 70, "velocity": 127, "duration": 492}, {"note": 0, "velocity": 0, "duration": 468}, {"note": 63, "velocity": 117, "duration": 141}, {"note": 0, "velocity": 0, "duration": 99}, {"note": 65, "velocity": 89, "duration": 121}, {"note": 0, "velocity": 0, "duration": 119}, {"note": 67, "velocity": 90, "duration": 153}, {"note": 0, "velocity": 0, "duration": 87}, {"note": 65, "velocity": 95, "duration": 119}, {"note": 0, "velocity": 0, "duration": 121}, {"note": 67, "velocity": 92, "duration": 260}, {"note": 0, "velocity": 0, "duration": 220}, {"note": 58, "velocity": 97, "duration": 376}, {"note": 0, "velocity": 0, "duration": 104}, {"note": 60, "velocity": 97, "duration": 508}, {"note": 65, "velocity": 100, "duration": 330}, {"note": 0, "velocity": 0, "duration": 150}, {"note": 65, "velocity": 102, "duration": 462}, {"note": 0, "velocity": 0, "duration": 498}, {"note": 67, "velocity": 107, "duration": 273}, {"note": 70, "velocity": 97, "duration": 141}, {"note": 0, "velocity": 0, "duration": 99}, {"note": 72, "velocity": 100, "duration": 208}, {"note": 70, "velocity": 112, "duration": 144}, {"note": 0, "velocity": 0, "duration": 96}, {"note": 72, "velocity": 122, "duration": 260}, {"note": 0, "velocity": 0, "duration": 220}, {"note": 75, "velocity": 117, "duration": 379}, {"note": 0, "velocity": 0, "duration": 101}, {"note": 70, "velocity": 117, "duration": 466}, {"note": 67, "velocity": 93, "duration": 223}, {"note": 65, "velocity": 97, "duration": 199}, {"note": 63, "velocity": 100, "duration": 577}, {"note": 0, "velocity": 0, "duration": 383}, {"note": 63, "velocity": 117, "duration": 191}, {"note": 60, "velocity": 88, "duration": 123}, {"note": 0, "velocity": 0, "duration": 117}, {"note": 63, "velocity": 107, "duration": 135}, {"note": 0, "velocity": 0, "duration": 105}, {"note": 60, "velocity": 85, "duration": 182}, {"note": 63, "velocity": 127, "duration": 351}, {"note": 0, "velocity": 0, "duration": 129}, {"note": 65, "velocity": 112, "duration": 238}, {"note": 67, "velocity": 95, "duration": 212}, {"note": 65, "velocity": 102, "duration": 815}, {"note": 0, "velocity": 0, "duration": 625}, {"note": 58, "velocity": 102, "duration": 185}, {"note": 60, "velocity": 90, "duration": 167}, {"note": 0, "velocity": 0, "duration": 73}, {"note": 63, "velocity": 112, "duration": 1047}, {"note": 0, "velocity": 0, "duration": 2813}, {"note": 63, "velocity": 90, "duration": 258}, {"note": 60, "velocity": 76, "duration": 183}, {"note": 0, "velocity": 0, "duration": 84}, {"note": 63, "velocity": 92, "duration": 220}, {"note": 60, "velocity": 78, "duration": 241}, {"note": 63, "velocity": 96, "duration": 851}, {"note": 67, "velocity": 89, "duration": 638}, {"note": 65, "velocity": 92, "duration": 1493}, {"note": 0, "velocity": 0, "duration": 1155}, {"note": 58, "velocity": 78, "duration": 509}, {"note": 60, "velocity": 69, "duration": 469}, {"note": 63, "velocity": 82, "duration": 2620}]]