[[{"note": 73, "velocity": 98, "duration": 67}, {"note": 0, "velocity": 0, "duration": 93}, {"note": 73, "velocity": 98, "duration": 67}, {"note": 0, "velocity": 0, "duration": 93}, {"note": 73, "velocity": 88, "duration": 71}, {"note": 0, "velocity": 0, "duration": 89}, {"note": 68, "velocity": 109, "duration": 262}, {"note": 70, "velocity": 106, "duration": 144}, {"note": 68, "velocity": 109, "duration": 279}, {"note": 66, "velocity": 91, "duration": 55}, {"note": 0, "velocity": 0, "duration": 105}, {"note": 61, "velocity": 98, "duration": 23}, {"note": 0, "velocity": 0, "duration": 211}, {"note": 61, "velocity": 109, "duration": 124}, {"note": 66, "velocity": 106, "duration": 53}, {"note": 0, "velocity": 0, "duration": 107}, {"note": 66, "velocity": 111, "duration": 34}, {"note": 65, "velocity": 109, "duration": 127}, {"note": 66, "velocity": 98, "duration": 104}, {"note": 68, "velocity": 82, "duration": 51}, {"note": 70, "velocity": 95, "duration": 86}, {"note": 73, "velocity": 100, "duration": 64}, {"note": 0, "velocity": 0, "duration": 96}, {"note": 73, "velocity": 100, "duration": 46}, {"note": 0, "velocity": 0, "duration": 114}, {"note": 73, "velocity": 91, "duration": 133}, {"note": 68, "velocity": 106, "duration": 284}, {"note": 70, "velocity": 103, "duration": 37}, {"note": 68, "velocity": 106, "duration": 289}, {"note": 66, "velocity": 95, "duration": 55}, {"note": 0, "velocity": 0, "duration": 105}, {"note": 61, "velocity": 77, "duration": 337}, {"note": 0, "velocity": 0, "duration": 141}, {"note": 63, "velocity": 109, "duration": 109}, {"note": 66, "velocity": 111, "duration": 52}, {"note": 0, "velocity": 0, "duration": 108}, {"note": 66, "velocity": 103, "duration": 93}, {"note": 65, "velocity": 103, "duration": 134}, {"note": 66, "velocity": 91, "duration": 132}, {"note": 68, "velocity": 100, "duration": 31}, {"note": 66, "velocity": 103, "duration": 83}, {"note": 65, "velocity": 106, "duration": 69}, {"note": 63, "velocity": 98, "duration": 233}, {"note": 0, "velocity": 0, "duration": 87}, {"note": 66, "velocity": 95, "duration": 54}, {"note": 65, "velocity": 91, "duration": 143}, {"note": 66, "velocity": 73, "duration": 125}, {"note": 68, "velocity": 82, "duration": 63}, {"note": 70, "velocity": 88, "duration": 102}, {"note": 0, "velocity": 0, "duration": 237}, {"note": 65, "velocity": 91, "duration": 29}, {"note": 63, "velocity": 100, "duration": 88}, {"note": 0, "velocity": 0, "duration": 232}, {"note": 75, "velocity": 79, "duration": 35}, {"note": 73, "velocity": 98, "duration": 304}, {"note": 71, "velocity": 72, "duration": 41}, {"note": 70, "velocity": 103, "duration": 64}, {"note": 73, "velocity": 106, "duration": 267}, {"note": 78, "velocity": 98, "duration": 58}, {"note": 77, "velocity": 109, "duration": 285}, {"note": 75, "velocity": 77, "duration": 65}, {"note": 73, "velocity": 103, "duration": 258}, {"note": 70, "velocity": 88, "duration": 122}, {"note": 68, "velocity": 91, "duration": 37}, {"note": 66, "velocity": 109, "duration": 91}, {"note": 65, "velocity": 100, "duration": 111}, {"note": 63, "velocity": 106, "duration": 239}, {"note": 0, "velocity": 0, "duration": 81}, {"note": 66, "velocity": 91, "duration": 9}, {"note": 65, "velocity": 100, "duration": 130}, {"note": 66, "velocity": 85, "duration": 149}, {"note": 68, "velocity": 98, "duration": 25}, {"note": 66, "velocity": 91, "duration": 110}, {"note": 0, "velocity": 0, "duration": 7967}, {"note": 73, "velocity": 106, "duration": 30}, {"note": 0, "velocity": 0, "duration": 76}, {"note": 73, "velocity": 100, "duration": 49}, {"note": 0, "velocity": 0, "duration": 111}, {"note": 73, "velocity": 103, "duration": 22}, {"note": 68, "velocity": 109, "duration": 266}, {"note": 70, "velocity": 103, "duration": 30}, {"note": 68, "velocity": 106, "duration": 289}, {"note": 66, "velocity": 98, "duration": 6}, {"note": 61, "velocity": 100, "duration": 73}, {"note": 63, "velocity": 91, "duration": 149}, {"note": 66, "velocity": 85, "duration": 55}, {"note": 0, "velocity": 0, "duration": 105}, {"note": 66, "velocity": 95, "duration": 56}, {"note": 65, "velocity": 91, "duration": 122}, {"note": 66, "velocity": 85, "duration": 205}, {"note": 68, "velocity": 71, "duration": 80}, {"note": 70, "velocity": 91, "duration": 542}, {"note": 73, "velocity": 95, "duration": 125}, {"note": 73, "velocity": 98, "duration": 56}, {"note": 0, "velocity": 0, "duration": 104}, {"note": 73, "velocity": 82, "duration": 145}, {"note": 68, "velocity": 95, "duration": 268}, {"note": 70, "velocity": 98, "duration": 162}, {"note": 68, "velocity": 98, "duration": 193}, {"note": 0, "velocity": 0, "duration": 127}, {"note": 66, "velocity": 85, "duration": 162}, {"note": 61, "velocity": 77, "duration": 28}, {"note": 0, "velocity": 0, "duration": 67}, {"note": 63, "velocity": 91, "duration": 108}, {"note": 66, "velocity": 113, "duration": 41}, {"note": 0, "velocity": 0, "duration": 119}, {"note": 66, "velocity": 106, "duration": 41}, {"note": 65, "velocity": 106, "duration": 112}, {"note": 66, "velocity": 88, "duration": 8}, {"note": 68, "velocity": 77, "duration": 31}, {"note": 66, "velocity": 85, "duration": 861}, {"note": 65, "velocity": 98, "duration": 106}, {"note": 63, "velocity": 91, "duration": 275}, {"note": 66, "velocity": 85, "duration": 51}, {"note": 65, "velocity": 85, "duration": 155}, {"note": 66, "velocity": 73, "duration": 139}, {"note": 68, "velocity": 95, "duration": 61}, {"note": 70, "velocity": 91, "duration": 35}, {"note": 65, "velocity": 106, "duration": 151}, {"note": 63, "velocity": 103, "duration": 58}, {"note": 0, "velocity": 0, "duration": 262}, {"note": 75, "velocity": 103, "duration": 59}, {"note": 73, "velocity": 103, "duration": 310}, {"note": 71, "velocity": 88, "duration": 54}, {"note": 70, "velocity": 109, "duration": 29}, {"note": 73, "velocity": 103, "duration": 178}, {"note": 0, "velocity": 0, "duration": 142}, {"note": 78, "velocity": 103, "duration": 16}, {"note": 77, "velocity": 98, "duration": 317}, {"note": 75, "velocity": 79, "duration": 74}, {"note": 73, "velocity": 100, "duration": 134}, {"note": 70, "velocity": 73, "duration": 111}, {"note": 68, "velocity": 77, "duration": 65}, {"note": 66, "velocity": 106, "duration": 151}, {"note": 65, "velocity": 85, "duration": 98}, {"note": 63, "velocity": 111, "duration": 152}, {"note": 0, "velocity": 0, "duration": 168}, {"note": 75, "velocity": 82, "duration": 64}, {"note": 73, "velocity": 98, "duration": 148}, {"note": 70, "velocity": 70, "duration": 127}, {"note": 68, "velocity": 72, "duration": 52}, {"note": 66, "velocity": 77, "duration": 97}, {"note": 0, "velocity": 0, "duration": 62}, {"note": 73, "velocity": 100, "duration": 96}, {"note": 80, "velocity": 111, "duration": 65}, {"note": 77, "velocity": 103, "duration": 20}, {"note": 78, "velocity": 109, "duration": 131}, {"note": 75, "velocity": 111, "duration": 86}, {"note": 0, "velocity": 0, "duration": 74}, {"note": 75, "velocity": 103, "duration": 52}, {"note": 0, "velocity": 0, "duration": 108}, {"note": 75, "velocity": 100, "duration": 50}, {"note": 73, "velocity": 113, "duration": 309}, {"note": 71, "velocity": 88, "duration": 22}, {"note": 70, "velocity": 111, "duration": 80}, {"note": 0, "velocity": 0, "duration": 222}, {"note": 73, "velocity": 115, "duration": 61}, {"note": 80, "velocity": 113, "duration": 57}, {"note": 77, "velocity": 109, "duration": 58}, {"note": 78, "velocity": 109, "duration": 88}, {"note": 75, "velocity": 106, "duration": 69}, {"note": 0, "velocity": 0, "duration": 91}, {"note": 75, "velocity": 106, "duration": 45}, {"note": 0, "velocity": 0, "duration": 115}, {"note": 75, "velocity": 109, "duration": 27}, {"note": 73, "velocity": 117, "duration": 141}, {"note": 70, "velocity": 85, "duration": 116}, {"note": 68, "velocity": 85, "duration": 62}, {"note": 66, "velocity": 100, "duration": 57}, {"note": 73, "velocity": 91, "duration": 48}, {"note": 0, "velocity": 0, "duration": 112}, {"note": 73, "velocity": 98, "duration": 40}, {"note": 0, "velocity": 0, "duration": 120}, {"note": 73, "velocity": 98, "duration": 1}, {"note": 68, "velocity": 95, "duration": 242}, {"note": 0, "velocity": 0, "duration": 78}, {"note": 70, "velocity": 98, "duration": 11}, {"note": 68, "velocity": 85, "duration": 125}, {"note": 0, "velocity": 0, "duration": 195}, {"note": 66, "velocity": 95, "duration": 24}, {"note": 61, "velocity": 79, "duration": 30}, {"note": 63, "velocity": 106, "duration": 121}, {"note": 66, "velocity": 111, "duration": 49}, {"note": 0, "velocity": 0, "duration": 111}, {"note": 66, "velocity": 106, "duration": 5}, {"note": 65, "velocity": 109, "duration": 132}, {"note": 66, "velocity": 98, "duration": 209}, {"note": 68, "velocity": 79, "duration": 89}, {"note": 70, "velocity": 106, "duration": 626}, {"note": 73, "velocity": 109, "duration": 59}, {"note": 0, "velocity": 0, "duration": 101}, {"note": 73, "velocity": 91, "duration": 37}, {"note": 0, "velocity": 0, "duration": 123}, {"note": 73, "velocity": 98, "duration": 8}, {"note": 68, "velocity": 98, "duration": 285}, {"note": 70, "velocity": 91, "duration": 24}, {"note": 68, "velocity": 98, "duration": 125}, {"note": 0, "velocity": 0, "duration": 195}, {"note": 66, "velocity": 82, "duration": 28}, {"note": 61, "velocity": 91, "duration": 130}, {"note": 63, "velocity": 85, "duration": 135}, {"note": 66, "velocity": 98, "duration": 64}, {"note": 0, "velocity": 0, "duration": 96}, {"note": 66, "velocity": 100, "duration": 0}, {"note": 65, "velocity": 103, "duration": 131}, {"note": 66, "velocity": 73, "duration": 147}, {"note": 68, "velocity": 75, "duration": 19}, {"note": 66, "velocity": 72, "duration": 240}, {"note": 0, "velocity": 0, "duration": 270}, {"note": 65, "velocity": 103, "duration": 45}, {"note": 63, "velocity": 85, "duration": 278}, {"note": 66, "velocity": 85, "duration": 18}, {"note": 65, "velocity": 77, "duration": 158}, {"note": 66, "velocity": 71, "duration": 151}, {"note": 68, "velocity": 85, "duration": 62}, {"note": 70, "velocity": 88, "duration": 283}, {"note": 0, "velocity": 0, "duration": 258}, {"note": 65, "velocity": 95, "duration": 29}, {"note": 63, "velocity": 85, "duration": 126}, {"note": 0, "velocity": 0, "duration": 194}, {"note": 75, "velocity": 111, "duration": 41}, {"note": 73, "velocity": 75, "duration": 44}, {"note": 71, "velocity": 77, "duration": 98}, {"note": 70, "velocity": 85, "duration": 43}, {"note": 73, "velocity": 109, "duration": 166}, {"note": 0, "velocity": 0, "duration": 154}, {"note": 78, "velocity": 100, "duration": 53}, {"note": 77, "velocity": 103, "duration": 282}, {"note": 75, "velocity": 98, "duration": 25}, {"note": 73, "velocity": 106, "duration": 86}, {"note": 0, "velocity": 0, "duration": 74}, {"note": 70, "velocity": 88, "duration": 155}, {"note": 68, "velocity": 98, "duration": 9}, {"note": 66, "velocity": 109, "duration": 220}, {"note": 65, "velocity": 95, "duration": 73}, {"note": 63, "velocity": 109, "duration": 74}, {"note": 0, "velocity": 0, "duration": 246}, {"note": 75, "velocity": 77, "duration": 47}, {"note": 73, "velocity": 82, "duration": 151}, {"note": 70, "velocity": 98, "duration": 108}, {"note": 68, "velocity": 85, "duration": 21}, {"note": 66, "velocity": 106, "duration": 432}, {"note": 73, "velocity": 109, "duration": 68}, {"note": 80, "velocity": 111, "duration": 8}, {"note": 77, "velocity": 82, "duration": 0}, {"note": 78, "velocity": 109, "duration": 142}, {"note": 75, "velocity": 95, "duration": 91}, {"note": 0, "velocity": 0, "duration": 69}, {"note": 75, "velocity": 103, "duration": 58}, {"note": 0, "velocity": 0, "duration": 102}, {"note": 75, "velocity": 98, "duration": 63}, {"note": 73, "velocity": 106, "duration": 301}, {"note": 71, "velocity": 85, "duration": 29}, {"note": 70, "velocity": 103, "duration": 82}, {"note": 73, "velocity": 111, "duration": 22}, {"note": 80, "velocity": 115, "duration": 4}, {"note": 77, "velocity": 113, "duration": 2}, {"note": 78, "velocity": 111, "duration": 45}, {"note": 75, "velocity": 98, "duration": 89}, {"note": 0, "velocity": 0, "duration": 71}, {"note": 75, "velocity": 98, "duration": 55}, {"note": 0, "velocity": 0, "duration": 105}, {"note": 75, "velocity": 109, "duration": 69}, {"note": 73, "velocity": 106, "duration": 146}, {"note": 70, "velocity": 100, "duration": 132}, {"note": 68, "velocity": 95, "duration": 7}, {"note": 66, "velocity": 113, "duration": 141}, {"note": 73, "velocity": 91, "duration": 85}, {"note": 0, "velocity": 0, "duration": 75}, {"note": 73, "velocity": 95, "duration": 60}, {"note": 0, "velocity": 0, "duration": 100}, {"note": 73, "velocity": 106, "duration": 49}, {"note": 68, "velocity": 106, "duration": 261}, {"note": 70, "velocity": 111, "duration": 13}, {"note": 68, "velocity": 98, "duration": 262}, {"note": 66, "velocity": 82, "duration": 39}, {"note": 61, "velocity": 109, "duration": 170}, {"note": 63, "velocity": 103, "duration": 134}, {"note": 66, "velocity": 100, "duration": 74}, {"note": 0, "velocity": 0, "duration": 86}, {"note": 66, "velocity": 98, "duration": 2}, {"note": 65, "velocity": 103, "duration": 138}, {"note": 66, "velocity": 91, "duration": 126}, {"note": 68, "velocity": 98, "duration": 30}, {"note": 70, "velocity": 103, "duration": 130}, {"note": 73, "velocity": 98, "duration": 87}, {"note": 0, "velocity": 0, "duration": 71}, {"note": 73, "velocity": 88, "duration": 64}, {"note": 0, "velocity": 0, "duration": 96}, {"note": 73, "velocity": 95, "duration": 6}, {"note": 68, "velocity": 98, "duration": 273}, {"note": 70, "velocity": 103, "duration": 45}, {"note": 68, "velocity": 100, "duration": 116}, {"note": 0, "velocity": 0, "duration": 204}, {"note": 66, "velocity": 98, "duration": 59}, {"note": 61, "velocity": 88, "duration": 10}, {"note": 0, "velocity": 0, "duration": 171}, {"note": 63, "velocity": 82, "duration": 161}, {"note": 66, "velocity": 100, "duration": 87}, {"note": 0, "velocity": 0, "duration": 106}, {"note": 66, "velocity": 91, "duration": 23}, {"note": 65, "velocity": 91, "duration": 158}, {"note": 0, "velocity": 0, "duration": 73}, {"note": 66, "velocity": 91, "duration": 222}, {"note": 68, "velocity": 106, "duration": 20}, {"note": 0, "velocity": 0, "duration": 91}, {"note": 66, "velocity": 106, "duration": 218}]]