[[{"note": 71, "velocity": 95, "duration": 363}, {"note": 71, "velocity": 95, "duration": 364}, {"note": 68, "velocity": 73, "duration": 662}, {"note": 68, "velocity": 73, "duration": 662}, {"note": 68, "velocity": 60, "duration": 53}, {"note": 68, "velocity": 60, "duration": 53}, {"note": 0, "velocity": 0, "duration": 67}, {"note": 68, "velocity": 77, "duration": 52}, {"note": 68, "velocity": 77, "duration": 53}, {"note": 0, "velocity": 0, "duration": 67}, {"note": 66, "velocity": 82, "duration": 10}, {"note": 66, "velocity": 82, "duration": 10}, {"note": 68, "velocity": 91, "duration": 142}, {"note": 68, "velocity": 91, "duration": 143}, {"note": 0, "velocity": 0, "duration": 97}, {"note": 71, "velocity": 75, "duration": 25}, {"note": 71, "velocity": 75, "duration": 25}, {"note": 71, "velocity": 79, "duration": 350}, {"note": 71, "velocity": 79, "duration": 350}, {"note": 68, "velocity": 71, "duration": 44}, {"note": 68, "velocity": 71, "duration": 46}, {"note": 0, "velocity": 0, "duration": 170}, {"note": 68, "velocity": 85, "duration": 54}, {"note": 68, "velocity": 85, "duration": 55}, {"note": 0, "velocity": 0, "duration": 65}, {"note": 68, "velocity": 85, "duration": 90}, {"note": 68, "velocity": 85, "duration": 92}, {"note": 66, "velocity": 71, "duration": 38}, {"note": 66, "velocity": 71, "duration": 38}, {"note": 68, "velocity": 88, "duration": 232}, {"note": 68, "velocity": 88, "duration": 232}, {"note": 64, "velocity": 71, "duration": 14}, {"note": 64, "velocity": 71, "duration": 14}, {"note": 73, "velocity": 88, "duration": 365}, {"note": 73, "velocity": 88, "duration": 365}, {"note": 69, "velocity": 91, "duration": 96}, {"note": 69, "velocity": 91, "duration": 96}, {"note": 69, "velocity": 95, "duration": 41}, {"note": 69, "velocity": 95, "duration": 41}, {"note": 69, "velocity": 95, "duration": 41}, {"note": 0, "velocity": 0, "duration": 79}, {"note": 69, "velocity": 103, "duration": 89}, {"note": 69, "velocity": 103, "duration": 89}, {"note": 69, "velocity": 103, "duration": 89}, {"note": 68, "velocity": 88, "duration": 47}, {"note": 68, "velocity": 88, "duration": 47}, {"note": 68, "velocity": 88, "duration": 47}, {"note": 69, "velocity": 109, "duration": 157}, {"note": 69, "velocity": 109, "duration": 157}, {"note": 69, "velocity": 109, "duration": 157}, {"note": 71, "velocity": 79, "duration": 47}, {"note": 71, "velocity": 79, "duration": 47}, {"note": 71, "velocity": 79, "duration": 47}, {"note": 66, "velocity": 76, "duration": 134}, {"note": 66, "velocity": 76, "duration": 134}, {"note": 66, "velocity": 76, "duration": 135}, {"note": 68, "velocity": 60, "duration": 38}, {"note": 68, "velocity": 60, "duration": 38}, {"note": 68, "velocity": 60, "duration": 39}, {"note": 71, "velocity": 106, "duration": 355}, {"note": 71, "velocity": 106, "duration": 355}, {"note": 71, "velocity": 106, "duration": 357}, {"note": 68, "velocity": 106, "duration": 42}, {"note": 68, "velocity": 106, "duration": 42}, {"note": 68, "velocity": 106, "duration": 42}, {"note": 0, "velocity": 0, "duration": 117}, {"note": 68, "velocity": 85, "duration": 29}, {"note": 68, "velocity": 85, "duration": 29}, {"note": 68, "velocity": 85, "duration": 31}, {"note": 0, "velocity": 0, "duration": 89}, {"note": 68, "velocity": 98, "duration": 65}, {"note": 68, "velocity": 98, "duration": 65}, {"note": 68, "velocity": 98, "duration": 65}, {"note": 66, "velocity": 76, "duration": 9}, {"note": 66, "velocity": 76, "duration": 9}, {"note": 66, "velocity": 76, "duration": 9}, {"note": 68, "velocity": 106, "duration": 231}, {"note": 68, "velocity": 106, "duration": 231}, {"note": 68, "velocity": 106, "duration": 232}, {"note": 71, "velocity": 98, "duration": 49}, {"note": 71, "velocity": 98, "duration": 49}, {"note": 71, "velocity": 98, "duration": 51}, {"note": 71, "velocity": 109, "duration": 344}, {"note": 71, "velocity": 109, "duration": 344}, {"note": 71, "velocity": 109, "duration": 345}, {"note": 68, "velocity": 111, "duration": 47}, {"note": 68, "velocity": 111, "duration": 47}, {"note": 68, "velocity": 111, "duration": 48}, {"note": 68, "velocity": 109, "duration": 38}, {"note": 68, "velocity": 109, "duration": 38}, {"note": 68, "velocity": 109, "duration": 38}, {"note": 0, "velocity": 0, "duration": 82}, {"note": 68, "velocity": 100, "duration": 63}, {"note": 68, "velocity": 100, "duration": 64}, {"note": 68, "velocity": 100, "duration": 64}, {"note": 66, "velocity": 82, "duration": 41}, {"note": 66, "velocity": 82, "duration": 41}, {"note": 66, "velocity": 82, "duration": 42}, {"note": 68, "velocity": 109, "duration": 224}, {"note": 68, "velocity": 109, "duration": 224}, {"note": 68, "velocity": 109, "duration": 224}, {"note": 64, "velocity": 98, "duration": 24}, {"note": 64, "velocity": 98, "duration": 24}, {"note": 64, "velocity": 98, "duration": 24}, {"note": 73, "velocity": 113, "duration": 358}, {"note": 73, "velocity": 113, "duration": 358}, {"note": 73, "velocity": 113, "duration": 359}, {"note": 69, "velocity": 109, "duration": 164}, {"note": 69, "velocity": 109, "duration": 164}, {"note": 69, "velocity": 109, "duration": 164}, {"note": 0, "velocity": 0, "duration": 119}, {"note": 69, "velocity": 103, "duration": 101}, {"note": 69, "velocity": 103, "duration": 101}, {"note": 69, "velocity": 103, "duration": 101}, {"note": 68, "velocity": 79, "duration": 51}, {"note": 68, "velocity": 79, "duration": 53}, {"note": 68, "velocity": 79, "duration": 53}, {"note": 0, "velocity": 0, "duration": 67}, {"note": 69, "velocity": 106, "duration": 6}, {"note": 69, "velocity": 106, "duration": 7}, {"note": 69, "velocity": 106, "duration": 8}, {"note": 69, "velocity": 113, "duration": 154}, {"note": 69, "velocity": 113, "duration": 154}, {"note": 69, "velocity": 113, "duration": 155}, {"note": 68, "velocity": 85, "duration": 156}, {"note": 68, "velocity": 85, "duration": 156}, {"note": 68, "velocity": 85, "duration": 157}, {"note": 0, "velocity": 0, "duration": 83}, {"note": 66, "velocity": 77, "duration": 18}, {"note": 66, "velocity": 77, "duration": 18}, {"note": 66, "velocity": 77, "duration": 18}, {"note": 66, "velocity": 58, "duration": 3}, {"note": 66, "velocity": 58, "duration": 3}, {"note": 66, "velocity": 58, "duration": 3}, {"note": 64, "velocity": 95, "duration": 236}, {"note": 64, "velocity": 95, "duration": 237}, {"note": 64, "velocity": 95, "duration": 237}, {"note": 76, "velocity": 115, "duration": 204}, {"note": 76, "velocity": 115, "duration": 204}, {"note": 76, "velocity": 115, "duration": 205}, {"note": 75, "velocity": 109, "duration": 43}, {"note": 75, "velocity": 109, "duration": 44}, {"note": 75, "velocity": 109, "duration": 44}, {"note": 76, "velocity": 111, "duration": 310}, {"note": 76, "velocity": 111, "duration": 310}, {"note": 76, "velocity": 111, "duration": 311}, {"note": 76, "velocity": 109, "duration": 40}, {"note": 76, "velocity": 109, "duration": 41}, {"note": 76, "velocity": 109, "duration": 41}, {"note": 0, "velocity": 0, "duration": 79}, {"note": 76, "velocity": 115, "duration": 45}, {"note": 76, "velocity": 115, "duration": 45}, {"note": 76, "velocity": 115, "duration": 45}, {"note": 0, "velocity": 0, "duration": 75}, {"note": 76, "velocity": 106, "duration": 35}, {"note": 76, "velocity": 106, "duration": 35}, {"note": 76, "velocity": 106, "duration": 36}, {"note": 0, "velocity": 0, "duration": 84}, {"note": 76, "velocity": 109, "duration": 79}, {"note": 76, "velocity": 109, "duration": 79}, {"note": 76, "velocity": 109, "duration": 79}, {"note": 78, "velocity": 113, "duration": 22}, {"note": 78, "velocity": 113, "duration": 22}, {"note": 78, "velocity": 113, "duration": 23}, {"note": 78, "velocity": 115, "duration": 13}, {"note": 78, "velocity": 115, "duration": 13}, {"note": 78, "velocity": 115, "duration": 13}, {"note": 75, "velocity": 113, "duration": 174}, {"note": 75, "velocity": 113, "duration": 175}, {"note": 75, "velocity": 113, "duration": 175}, {"note": 0, "velocity": 0, "duration": 65}, {"note": 73, "velocity": 109, "duration": 48}, {"note": 73, "velocity": 109, "duration": 49}, {"note": 73, "velocity": 109, "duration": 49}, {"note": 75, "velocity": 117, "duration": 297}, {"note": 75, "velocity": 117, "duration": 297}, {"note": 75, "velocity": 117, "duration": 297}, {"note": 0, "velocity": 0, "duration": 63}, {"note": 75, "velocity": 100, "duration": 32}, {"note": 75, "velocity": 100, "duration": 34}, {"note": 75, "velocity": 100, "duration": 34}, {"note": 75, "velocity": 120, "duration": 89}, {"note": 75, "velocity": 120, "duration": 89}, {"note": 75, "velocity": 120, "duration": 90}, {"note": 71, "velocity": 85, "duration": 92}, {"note": 71, "velocity": 85, "duration": 93}, {"note": 71, "velocity": 85, "duration": 93}, {"note": 75, "velocity": 109, "duration": 65}, {"note": 75, "velocity": 109, "duration": 65}, {"note": 75, "velocity": 109, "duration": 65}, {"note": 76, "velocity": 109, "duration": 1}, {"note": 76, "velocity": 109, "duration": 1}, {"note": 76, "velocity": 109, "duration": 1}, {"note": 76, "velocity": 117, "duration": 122}, {"note": 76, "velocity": 117, "duration": 122}, {"note": 76, "velocity": 117, "duration": 123}, {"note": 71, "velocity": 95, "duration": 8}, {"note": 71, "velocity": 95, "duration": 9}, {"note": 71, "velocity": 95, "duration": 9}, {"note": 80, "velocity": 111, "duration": 106}, {"note": 80, "velocity": 111, "duration": 106}, {"note": 80, "velocity": 111, "duration": 108}, {"note": 78, "velocity": 111, "duration": 174}, {"note": 78, "velocity": 111, "duration": 175}, {"note": 78, "velocity": 111, "duration": 175}, {"note": 0, "velocity": 0, "duration": 65}, {"note": 76, "velocity": 100, "duration": 36}, {"note": 76, "velocity": 100, "duration": 36}, {"note": 76, "velocity": 100, "duration": 37}, {"note": 78, "velocity": 113, "duration": 140}, {"note": 78, "velocity": 113, "duration": 142}, {"note": 78, "velocity": 113, "duration": 142}, {"note": 73, "velocity": 98, "duration": 38}, {"note": 73, "velocity": 98, "duration": 38}, {"note": 73, "velocity": 98, "duration": 40}, {"note": 71, "velocity": 95, "duration": 2}, {"note": 71, "velocity": 95, "duration": 2}, {"note": 71, "velocity": 95, "duration": 2}, {"note": 80, "velocity": 117, "duration": 139}, {"note": 80, "velocity": 117, "duration": 139}, {"note": 80, "velocity": 117, "duration": 139}, {"note": 81, "velocity": 106, "duration": 148}, {"note": 81, "velocity": 106, "duration": 148}, {"note": 81, "velocity": 106, "duration": 148}, {"note": 0, "velocity": 0, "duration": 92}, {"note": 80, "velocity": 109, "duration": 51}, {"note": 80, "velocity": 109, "duration": 53}, {"note": 80, "velocity": 109, "duration": 53}, {"note": 76, "velocity": 113, "duration": 74}, {"note": 76, "velocity": 113, "duration": 74}, {"note": 76, "velocity": 113, "duration": 74}, {"note": 76, "velocity": 111, "duration": 510}, {"note": 76, "velocity": 111, "duration": 511}, {"note": 76, "velocity": 111, "duration": 511}, {"note": 0, "velocity": 0, "duration": 89}, {"note": 78, "velocity": 117, "duration": 11}, {"note": 78, "velocity": 117, "duration": 11}, {"note": 78, "velocity": 117, "duration": 12}, {"note": 78, "velocity": 113, "duration": 35}, {"note": 78, "velocity": 113, "duration": 36}, {"note": 78, "velocity": 113, "duration": 36}, {"note": 0, "velocity": 0, "duration": 253}, {"note": 71, "velocity": 106, "duration": 75}, {"note": 71, "velocity": 106, "duration": 77}, {"note": 71, "velocity": 106, "duration": 77}, {"note": 81, "velocity": 106, "duration": 90}, {"note": 81, "velocity": 106, "duration": 90}, {"note": 81, "velocity": 106, "duration": 90}, {"note": 80, "velocity": 85, "duration": 58}, {"note": 80, "velocity": 85, "duration": 59}, {"note": 80, "velocity": 85, "duration": 59}, {"note": 0, "velocity": 0, "duration": 61}, {"note": 80, "velocity": 79, "duration": 109}, {"note": 80, "velocity": 79, "duration": 109}, {"note": 80, "velocity": 79, "duration": 110}, {"note": 78, "velocity": 71, "duration": 18}, {"note": 78, "velocity": 71, "duration": 19}, {"note": 78, "velocity": 71, "duration": 19}, {"note": 78, "velocity": 106, "duration": 133}, {"note": 78, "velocity": 106, "duration": 133}, {"note": 78, "velocity": 106, "duration": 135}, {"note": 80, "velocity": 103, "duration": 238}, {"note": 80, "velocity": 103, "duration": 239}, {"note": 80, "velocity": 103, "duration": 239}, {"note": 71, "velocity": 91, "duration": 71}, {"note": 71, "velocity": 91, "duration": 72}, {"note": 71, "velocity": 91, "duration": 72}, {"note": 80, "velocity": 115, "duration": 71}, {"note": 80, "velocity": 115, "duration": 71}, {"note": 80, "velocity": 115, "duration": 72}, {"note": 78, "velocity": 106, "duration": 46}, {"note": 78, "velocity": 106, "duration": 46}, {"note": 78, "velocity": 106, "duration": 48}, {"note": 0, "velocity": 0, "duration": 72}, {"note": 78, "velocity": 109, "duration": 87}, {"note": 78, "velocity": 109, "duration": 87}, {"note": 78, "velocity": 109, "duration": 88}, {"note": 76, "velocity": 109, "duration": 11}, {"note": 76, "velocity": 109, "duration": 11}, {"note": 76, "velocity": 109, "duration": 11}, {"note": 76, "velocity": 115, "duration": 98}, {"note": 76, "velocity": 115, "duration": 100}, {"note": 76, "velocity": 115, "duration": 100}, {"note": 78, "velocity": 113, "duration": 116}, {"note": 78, "velocity": 113, "duration": 118}, {"note": 78, "velocity": 113, "duration": 118}, {"note": 71, "velocity": 103, "duration": 92}, {"note": 71, "velocity": 103, "duration": 93}, {"note": 71, "velocity": 103, "duration": 93}, {"note": 80, "velocity": 117, "duration": 69}, {"note": 80, "velocity": 117, "duration": 70}, {"note": 80, "velocity": 117, "duration": 70}, {"note": 78, "velocity": 111, "duration": 46}, {"note": 78, "velocity": 111, "duration": 46}, {"note": 78, "velocity": 111, "duration": 46}, {"note": 0, "velocity": 0, "duration": 74}, {"note": 78, "velocity": 113, "duration": 90}, {"note": 78, "velocity": 113, "duration": 92}, {"note": 78, "velocity": 113, "duration": 92}, {"note": 76, "velocity": 100, "duration": 63}, {"note": 76, "velocity": 100, "duration": 65}, {"note": 76, "velocity": 100, "duration": 65}, {"note": 78, "velocity": 117, "duration": 88}, {"note": 78, "velocity": 117, "duration": 88}, {"note": 78, "velocity": 117, "duration": 89}, {"note": 76, "velocity": 113, "duration": 88}, {"note": 76, "velocity": 113, "duration": 88}, {"note": 76, "velocity": 113, "duration": 90}, {"note": 76, "velocity": 106, "duration": 4}, {"note": 76, "velocity": 106, "duration": 4}, {"note": 76, "velocity": 106, "duration": 4}, {"note": 78, "velocity": 113, "duration": 87}, {"note": 78, "velocity": 113, "duration": 89}, {"note": 78, "velocity": 113, "duration": 89}, {"note": 76, "velocity": 91, "duration": 106}, {"note": 76, "velocity": 91, "duration": 107}, {"note": 76, "velocity": 91, "duration": 108}, {"note": 78, "velocity": 109, "duration": 89}, {"note": 78, "velocity": 109, "duration": 90}, {"note": 78, "velocity": 109, "duration": 90}, {"note": 76, "velocity": 106, "duration": 24}, {"note": 76, "velocity": 106, "duration": 24}, {"note": 76, "velocity": 106, "duration": 24}, {"note": 78, "velocity": 120, "duration": 97}, {"note": 78, "velocity": 120, "duration": 97}, {"note": 78, "velocity": 120, "duration": 98}, {"note": 80, "velocity": 113, "duration": 26}, {"note": 80, "velocity": 113, "duration": 26}, {"note": 80, "velocity": 113, "duration": 27}, {"note": 80, "velocity": 120, "duration": 36}, {"note": 80, "velocity": 120, "duration": 37}, {"note": 80, "velocity": 120, "duration": 37}, {"note": 0, "velocity": 0, "duration": 83}, {"note": 80, "velocity": 113, "duration": 91}, {"note": 80, "velocity": 113, "duration": 91}, {"note": 80, "velocity": 113, "duration": 93}, {"note": 78, "velocity": 106, "duration": 28}, {"note": 78, "velocity": 106, "duration": 29}, {"note": 78, "velocity": 106, "duration": 30}, {"note": 0, "velocity": 0, "duration": 90}, {"note": 78, "velocity": 111, "duration": 96}, {"note": 78, "velocity": 111, "duration": 96}, {"note": 78, "velocity": 111, "duration": 97}, {"note": 76, "velocity": 103, "duration": 11}, {"note": 76, "velocity": 103, "duration": 11}, {"note": 76, "velocity": 103, "duration": 11}, {"note": 78, "velocity": 115, "duration": 95}, {"note": 78, "velocity": 115, "duration": 96}, {"note": 78, "velocity": 115, "duration": 96}, {"note": 76, "velocity": 109, "duration": 67}, {"note": 76, "velocity": 109, "duration": 67}, {"note": 76, "velocity": 109, "duration": 68}, {"note": 76, "velocity": 115, "duration": 19}, {"note": 76, "velocity": 115, "duration": 19}, {"note": 76, "velocity": 115, "duration": 19}, {"note": 0, "velocity": 0, "duration": 96}, {"note": 76, "velocity": 115, "duration": 74}, {"note": 76, "velocity": 115, "duration": 75}, {"note": 76, "velocity": 115, "duration": 76}, {"note": 75, "velocity": 103, "duration": 36}, {"note": 75, "velocity": 103, "duration": 36}, {"note": 75, "velocity": 103, "duration": 37}, {"note": 0, "velocity": 0, "duration": 83}, {"note": 75, "velocity": 111, "duration": 115}, {"note": 75, "velocity": 111, "duration": 116}, {"note": 75, "velocity": 111, "duration": 116}, {"note": 71, "velocity": 100, "duration": 6}, {"note": 71, "velocity": 100, "duration": 8}, {"note": 71, "velocity": 100, "duration": 8}, {"note": 78, "velocity": 120, "duration": 91}, {"note": 78, "velocity": 120, "duration": 91}, {"note": 78, "velocity": 120, "duration": 93}, {"note": 80, "velocity": 109, "duration": 48}, {"note": 80, "velocity": 109, "duration": 48}, {"note": 80, "velocity": 109, "duration": 49}, {"note": 80, "velocity": 115, "duration": 33}, {"note": 80, "velocity": 115, "duration": 33}, {"note": 80, "velocity": 115, "duration": 34}, {"note": 0, "velocity": 0, "duration": 86}, {"note": 80, "velocity": 115, "duration": 90}, {"note": 80, "velocity": 115, "duration": 91}, {"note": 80, "velocity": 115, "duration": 92}, {"note": 78, "velocity": 109, "duration": 36}, {"note": 78, "velocity": 109, "duration": 37}, {"note": 78, "velocity": 109, "duration": 37}, {"note": 0, "velocity": 0, "duration": 83}, {"note": 78, "velocity": 100, "duration": 104}, {"note": 78, "velocity": 100, "duration": 104}, {"note": 78, "velocity": 100, "duration": 104}, {"note": 76, "velocity": 72, "duration": 10}, {"note": 76, "velocity": 72, "duration": 10}, {"note": 76, "velocity": 72, "duration": 10}, {"note": 76, "velocity": 111, "duration": 10}, {"note": 76, "velocity": 111, "duration": 11}, {"note": 76, "velocity": 111, "duration": 11}, {"note": 78, "velocity": 109, "duration": 61}, {"note": 78, "velocity": 109, "duration": 61}, {"note": 78, "velocity": 109, "duration": 63}, {"note": 76, "velocity": 106, "duration": 32}, {"note": 76, "velocity": 106, "duration": 33}, {"note": 76, "velocity": 106, "duration": 33}, {"note": 0, "velocity": 0, "duration": 87}, {"note": 76, "velocity": 106, "duration": 32}, {"note": 76, "velocity": 106, "duration": 34}, {"note": 76, "velocity": 106, "duration": 34}, {"note": 73, "velocity": 103, "duration": 2}, {"note": 73, "velocity": 103, "duration": 4}, {"note": 73, "velocity": 103, "duration": 4}, {"note": 76, "velocity": 115, "duration": 66}, {"note": 76, "velocity": 115, "duration": 66}, {"note": 76, "velocity": 115, "duration": 67}, {"note": 80, "velocity": 109, "duration": 36}, {"note": 80, "velocity": 109, "duration": 38}, {"note": 80, "velocity": 109, "duration": 38}, {"note": 0, "velocity": 0, "duration": 82}, {"note": 80, "velocity": 106, "duration": 75}, {"note": 80, "velocity": 106, "duration": 75}, {"note": 80, "velocity": 106, "duration": 75}, {"note": 76, "velocity": 109, "duration": 35}, {"note": 76, "velocity": 109, "duration": 37}, {"note": 76, "velocity": 109, "duration": 37}, {"note": 78, "velocity": 117, "duration": 48}, {"note": 78, "velocity": 117, "duration": 48}, {"note": 78, "velocity": 117, "duration": 49}, {"note": 71, "velocity": 103, "duration": 74}, {"note": 71, "velocity": 103, "duration": 74}, {"note": 71, "velocity": 103, "duration": 75}, {"note": 81, "velocity": 115, "duration": 77}, {"note": 81, "velocity": 115, "duration": 78}, {"note": 81, "velocity": 115, "duration": 78}, {"note": 80, "velocity": 113, "duration": 43}, {"note": 80, "velocity": 113, "duration": 45}, {"note": 80, "velocity": 113, "duration": 45}, {"note": 0, "velocity": 0, "duration": 75}, {"note": 80, "velocity": 113, "duration": 87}, {"note": 80, "velocity": 113, "duration": 88}, {"note": 80, "velocity": 113, "duration": 88}, {"note": 78, "velocity": 115, "duration": 7}, {"note": 78, "velocity": 115, "duration": 7}, {"note": 78, "velocity": 115, "duration": 9}, {"note": 78, "velocity": 117, "duration": 78}, {"note": 78, "velocity": 117, "duration": 78}, {"note": 78, "velocity": 117, "duration": 79}, {"note": 80, "velocity": 115, "duration": 31}, {"note": 80, "velocity": 115, "duration": 31}, {"note": 80, "velocity": 115, "duration": 32}, {"note": 71, "velocity": 109, "duration": 91}, {"note": 71, "velocity": 109, "duration": 91}, {"note": 71, "velocity": 109, "duration": 92}, {"note": 80, "velocity": 120, "duration": 84}, {"note": 80, "velocity": 120, "duration": 84}, {"note": 80, "velocity": 120, "duration": 84}, {"note": 78, "velocity": 98, "duration": 47}, {"note": 78, "velocity": 98, "duration": 48}, {"note": 78, "velocity": 98, "duration": 48}, {"note": 0, "velocity": 0, "duration": 72}, {"note": 78, "velocity": 111, "duration": 91}, {"note": 78, "velocity": 111, "duration": 91}, {"note": 78, "velocity": 111, "duration": 91}, {"note": 76, "velocity": 113, "duration": 13}, {"note": 76, "velocity": 113, "duration": 14}, {"note": 76, "velocity": 113, "duration": 15}, {"note": 76, "velocity": 115, "duration": 109}, {"note": 76, "velocity": 115, "duration": 109}, {"note": 76, "velocity": 115, "duration": 110}, {"note": 78, "velocity": 115, "duration": 61}, {"note": 78, "velocity": 115, "duration": 62}, {"note": 78, "velocity": 115, "duration": 62}, {"note": 71, "velocity": 106, "duration": 84}, {"note": 71, "velocity": 106, "duration": 86}, {"note": 71, "velocity": 106, "duration": 86}, {"note": 80, "velocity": 115, "duration": 73}, {"note": 80, "velocity": 115, "duration": 74}, {"note": 80, "velocity": 115, "duration": 74}, {"note": 78, "velocity": 111, "duration": 34}, {"note": 78, "velocity": 111, "duration": 34}, {"note": 78, "velocity": 111, "duration": 35}, {"note": 0, "velocity": 0, "duration": 79}, {"note": 78, "velocity": 113, "duration": 83}, {"note": 78, "velocity": 113, "duration": 84}, {"note": 78, "velocity": 113, "duration": 84}, {"note": 76, "velocity": 106, "duration": 28}, {"note": 76, "velocity": 106, "duration": 28}, {"note": 76, "velocity": 106, "duration": 28}, {"note": 78, "velocity": 120, "duration": 110}, {"note": 78, "velocity": 120, "duration": 111}, {"note": 78, "velocity": 120, "duration": 111}, {"note": 76, "velocity": 113, "duration": 134}, {"note": 76, "velocity": 113, "duration": 134}, {"note": 76, "velocity": 113, "duration": 134}, {"note": 76, "velocity": 111, "duration": 57}, {"note": 76, "velocity": 111, "duration": 58}, {"note": 76, "velocity": 111, "duration": 59}, {"note": 78, "velocity": 115, "duration": 73}, {"note": 78, "velocity": 115, "duration": 73}, {"note": 78, "velocity": 115, "duration": 73}, {"note": 76, "velocity": 111, "duration": 47}, {"note": 76, "velocity": 111, "duration": 47}, {"note": 76, "velocity": 111, "duration": 47}, {"note": 0, "velocity": 0, "duration": 73}, {"note": 78, "velocity": 111, "duration": 58}, {"note": 78, "velocity": 111, "duration": 58}, {"note": 78, "velocity": 111, "duration": 58}, {"note": 0, "velocity": 0, "duration": 62}, {"note": 76, "velocity": 111, "duration": 21}, {"note": 76, "velocity": 111, "duration": 21}, {"note": 76, "velocity": 111, "duration": 21}, {"note": 78, "velocity": 117, "duration": 96}, {"note": 78, "velocity": 117, "duration": 96}, {"note": 78, "velocity": 117, "duration": 97}, {"note": 80, "velocity": 111, "duration": 41}, {"note": 80, "velocity": 111, "duration": 41}, {"note": 80, "velocity": 111, "duration": 42}, {"note": 80, "velocity": 115, "duration": 4}, {"note": 80, "velocity": 115, "duration": 5}, {"note": 80, "velocity": 115, "duration": 5}, {"note": 80, "velocity": 113, "duration": 94}, {"note": 80, "velocity": 113, "duration": 95}, {"note": 80, "velocity": 113, "duration": 95}, {"note": 78, "velocity": 109, "duration": 33}, {"note": 78, "velocity": 109, "duration": 34}, {"note": 78, "velocity": 109, "duration": 35}, {"note": 0, "velocity": 0, "duration": 85}, {"note": 78, "velocity": 109, "duration": 100}, {"note": 78, "velocity": 109, "duration": 101}, {"note": 78, "velocity": 109, "duration": 101}, {"note": 76, "velocity": 111, "duration": 11}, {"note": 76, "velocity": 111, "duration": 11}, {"note": 76, "velocity": 111, "duration": 12}, {"note": 78, "velocity": 117, "duration": 100}, {"note": 78, "velocity": 117, "duration": 101}, {"note": 78, "velocity": 117, "duration": 101}, {"note": 76, "velocity": 113, "duration": 173}, {"note": 76, "velocity": 113, "duration": 173}, {"note": 76, "velocity": 113, "duration": 174}, {"note": 76, "velocity": 117, "duration": 50}, {"note": 76, "velocity": 117, "duration": 50}, {"note": 76, "velocity": 117, "duration": 50}, {"note": 76, "velocity": 117, "duration": 86}, {"note": 76, "velocity": 117, "duration": 87}, {"note": 76, "velocity": 117, "duration": 88}, {"note": 75, "velocity": 106, "duration": 33}, {"note": 75, "velocity": 106, "duration": 34}, {"note": 75, "velocity": 106, "duration": 34}, {"note": 0, "velocity": 0, "duration": 86}, {"note": 75, "velocity": 109, "duration": 106}, {"note": 75, "velocity": 109, "duration": 108}, {"note": 75, "velocity": 109, "duration": 108}, {"note": 71, "velocity": 100, "duration": 2}, {"note": 71, "velocity": 100, "duration": 2}, {"note": 71, "velocity": 100, "duration": 4}, {"note": 78, "velocity": 117, "duration": 103}, {"note": 78, "velocity": 117, "duration": 103}, {"note": 78, "velocity": 117, "duration": 103}, {"note": 80, "velocity": 111, "duration": 237}, {"note": 80, "velocity": 111, "duration": 237}, {"note": 80, "velocity": 111, "duration": 237}, {"note": 80, "velocity": 117, "duration": 12}, {"note": 80, "velocity": 117, "duration": 12}, {"note": 80, "velocity": 117, "duration": 13}, {"note": 80, "velocity": 115, "duration": 75}, {"note": 80, "velocity": 115, "duration": 76}, {"note": 80, "velocity": 115, "duration": 76}, {"note": 78, "velocity": 100, "duration": 34}, {"note": 78, "velocity": 100, "duration": 34}, {"note": 78, "velocity": 100, "duration": 34}, {"note": 0, "velocity": 0, "duration": 86}, {"note": 78, "velocity": 106, "duration": 73}, {"note": 78, "velocity": 106, "duration": 73}, {"note": 78, "velocity": 106, "duration": 75}, {"note": 76, "velocity": 106, "duration": 23}, {"note": 76, "velocity": 106, "duration": 23}, {"note": 76, "velocity": 106, "duration": 23}, {"note": 78, "velocity": 113, "duration": 118}, {"note": 78, "velocity": 113, "duration": 118}, {"note": 78, "velocity": 113, "duration": 118}, {"note": 76, "velocity": 106, "duration": 107}, {"note": 76, "velocity": 106, "duration": 108}, {"note": 76, "velocity": 106, "duration": 108}, {"note": 0, "velocity": 0, "duration": 132}, {"note": 76, "velocity": 113, "duration": 74}, {"note": 76, "velocity": 113, "duration": 75}, {"note": 76, "velocity": 113, "duration": 75}, {"note": 73, "velocity": 115, "duration": 55}, {"note": 73, "velocity": 115, "duration": 55}, {"note": 73, "velocity": 115, "duration": 56}, {"note": 71, "velocity": 98, "duration": 65}, {"note": 71, "velocity": 98, "duration": 65}, {"note": 71, "velocity": 98, "duration": 65}, {"note": 80, "velocity": 113, "duration": 193}, {"note": 80, "velocity": 113, "duration": 194}, {"note": 80, "velocity": 113, "duration": 195}, {"note": 78, "velocity": 115, "duration": 98}, {"note": 78, "velocity": 115, "duration": 98}, {"note": 78, "velocity": 115, "duration": 98}, {"note": 76, "velocity": 117, "duration": 248}, {"note": 76, "velocity": 117, "duration": 249}, {"note": 76, "velocity": 117, "duration": 250}, {"note": 75, "velocity": 111, "duration": 53}, {"note": 75, "velocity": 111, "duration": 53}, {"note": 75, "velocity": 111, "duration": 55}, {"note": 76, "velocity": 115, "duration": 109}, {"note": 76, "velocity": 115, "duration": 110}, {"note": 76, "velocity": 115, "duration": 110}, {"note": 0, "velocity": 0, "duration": 8909}, {"note": 71, "velocity": 106, "duration": 355}, {"note": 71, "velocity": 106, "duration": 355}, {"note": 71, "velocity": 106, "duration": 357}, {"note": 68, "velocity": 106, "duration": 24}, {"note": 68, "velocity": 106, "duration": 24}, {"note": 68, "velocity": 106, "duration": 24}, {"note": 0, "velocity": 0, "duration": 117}, {"note": 68, "velocity": 85, "duration": 29}, {"note": 68, "velocity": 85, "duration": 29}, {"note": 68, "velocity": 85, "duration": 31}, {"note": 0, "velocity": 0, "duration": 89}, {"note": 68, "velocity": 98, "duration": 65}, {"note": 68, "velocity": 98, "duration": 65}, {"note": 68, "velocity": 98, "duration": 65}, {"note": 66, "velocity": 76, "duration": 41}, {"note": 66, "velocity": 76, "duration": 41}, {"note": 66, "velocity": 76, "duration": 41}, {"note": 68, "velocity": 106, "duration": 231}, {"note": 68, "velocity": 106, "duration": 231}, {"note": 68, "velocity": 106, "duration": 232}, {"note": 71, "velocity": 98, "duration": 30}, {"note": 71, "velocity": 98, "duration": 30}, {"note": 71, "velocity": 98, "duration": 32}, {"note": 71, "velocity": 109, "duration": 344}, {"note": 71, "velocity": 109, "duration": 344}, {"note": 71, "velocity": 109, "duration": 345}, {"note": 68, "velocity": 111, "duration": 29}, {"note": 68, "velocity": 111, "duration": 29}, {"note": 68, "velocity": 111, "duration": 30}, {"note": 68, "velocity": 109, "duration": 38}, {"note": 68, "velocity": 109, "duration": 38}, {"note": 68, "velocity": 109, "duration": 38}, {"note": 0, "velocity": 0, "duration": 82}, {"note": 68, "velocity": 100, "duration": 63}, {"note": 68, "velocity": 100, "duration": 64}, {"note": 68, "velocity": 100, "duration": 64}, {"note": 66, "velocity": 82, "duration": 23}, {"note": 66, "velocity": 82, "duration": 23}, {"note": 66, "velocity": 82, "duration": 24}, {"note": 68, "velocity": 109, "duration": 224}, {"note": 68, "velocity": 109, "duration": 224}, {"note": 68, "velocity": 109, "duration": 224}, {"note": 64, "velocity": 98, "duration": 5}, {"note": 64, "velocity": 98, "duration": 5}, {"note": 64, "velocity": 98, "duration": 5}, {"note": 73, "velocity": 113, "duration": 358}, {"note": 73, "velocity": 113, "duration": 358}, {"note": 73, "velocity": 113, "duration": 359}, {"note": 69, "velocity": 109, "duration": 145}, {"note": 69, "velocity": 109, "duration": 145}, {"note": 69, "velocity": 109, "duration": 145}, {"note": 0, "velocity": 0, "duration": 101}, {"note": 69, "velocity": 103, "duration": 101}, {"note": 69, "velocity": 103, "duration": 101}, {"note": 69, "velocity": 103, "duration": 101}, {"note": 68, "velocity": 79, "duration": 51}, {"note": 68, "velocity": 79, "duration": 53}, {"note": 68, "velocity": 79, "duration": 53}, {"note": 0, "velocity": 0, "duration": 67}, {"note": 69, "velocity": 106, "duration": 33}, {"note": 69, "velocity": 106, "duration": 34}, {"note": 69, "velocity": 106, "duration": 35}, {"note": 69, "velocity": 113, "duration": 154}, {"note": 69, "velocity": 113, "duration": 154}, {"note": 69, "velocity": 113, "duration": 155}, {"note": 68, "velocity": 85, "duration": 156}, {"note": 68, "velocity": 85, "duration": 156}, {"note": 68, "velocity": 85, "duration": 157}, {"note": 0, "velocity": 0, "duration": 83}, {"note": 66, "velocity": 77, "duration": 0}, {"note": 66, "velocity": 77, "duration": 0}, {"note": 66, "velocity": 77, "duration": 0}, {"note": 66, "velocity": 58, "duration": 0}, {"note": 66, "velocity": 58, "duration": 0}, {"note": 66, "velocity": 58, "duration": 0}, {"note": 64, "velocity": 95, "duration": 215}, {"note": 64, "velocity": 95, "duration": 216}, {"note": 64, "velocity": 95, "duration": 216}, {"note": 76, "velocity": 115, "duration": 204}, {"note": 76, "velocity": 115, "duration": 204}, {"note": 76, "velocity": 115, "duration": 205}, {"note": 75, "velocity": 109, "duration": 25}, {"note": 75, "velocity": 109, "duration": 26}, {"note": 75, "velocity": 109, "duration": 26}, {"note": 76, "velocity": 111, "duration": 310}, {"note": 76, "velocity": 111, "duration": 310}, {"note": 76, "velocity": 111, "duration": 311}, {"note": 76, "velocity": 109, "duration": 40}, {"note": 76, "velocity": 109, "duration": 41}, {"note": 76, "velocity": 109, "duration": 41}, {"note": 0, "velocity": 0, "duration": 79}, {"note": 76, "velocity": 115, "duration": 45}, {"note": 76, "velocity": 115, "duration": 45}, {"note": 76, "velocity": 115, "duration": 45}, {"note": 0, "velocity": 0, "duration": 75}, {"note": 76, "velocity": 106, "duration": 35}, {"note": 76, "velocity": 106, "duration": 35}, {"note": 76, "velocity": 106, "duration": 36}, {"note": 0, "velocity": 0, "duration": 84}, {"note": 76, "velocity": 109, "duration": 79}, {"note": 76, "velocity": 109, "duration": 79}, {"note": 76, "velocity": 109, "duration": 79}, {"note": 78, "velocity": 113, "duration": 3}, {"note": 78, "velocity": 113, "duration": 3}, {"note": 78, "velocity": 113, "duration": 4}, {"note": 78, "velocity": 115, "duration": 347}, {"note": 78, "velocity": 115, "duration": 347}, {"note": 78, "velocity": 115, "duration": 347}, {"note": 75, "velocity": 113, "duration": 174}, {"note": 75, "velocity": 113, "duration": 175}, {"note": 75, "velocity": 113, "duration": 175}, {"note": 0, "velocity": 0, "duration": 65}, {"note": 73, "velocity": 109, "duration": 30}, {"note": 73, "velocity": 109, "duration": 31}, {"note": 73, "velocity": 109, "duration": 31}, {"note": 75, "velocity": 117, "duration": 297}, {"note": 75, "velocity": 117, "duration": 297}, {"note": 75, "velocity": 117, "duration": 297}, {"note": 0, "velocity": 0, "duration": 63}, {"note": 75, "velocity": 100, "duration": 32}, {"note": 75, "velocity": 100, "duration": 34}, {"note": 75, "velocity": 100, "duration": 34}, {"note": 75, "velocity": 120, "duration": 89}, {"note": 75, "velocity": 120, "duration": 89}, {"note": 75, "velocity": 120, "duration": 90}, {"note": 71, "velocity": 85, "duration": 92}, {"note": 71, "velocity": 85, "duration": 93}, {"note": 71, "velocity": 85, "duration": 93}, {"note": 75, "velocity": 109, "duration": 65}, {"note": 75, "velocity": 109, "duration": 65}, {"note": 75, "velocity": 109, "duration": 65}, {"note": 76, "velocity": 109, "duration": 31}, {"note": 76, "velocity": 109, "duration": 31}, {"note": 76, "velocity": 109, "duration": 31}, {"note": 76, "velocity": 117, "duration": 143}, {"note": 76, "velocity": 117, "duration": 143}, {"note": 76, "velocity": 117, "duration": 144}, {"note": 71, "velocity": 95, "duration": 58}, {"note": 71, "velocity": 95, "duration": 59}, {"note": 71, "velocity": 95, "duration": 59}, {"note": 80, "velocity": 111, "duration": 106}, {"note": 80, "velocity": 111, "duration": 106}, {"note": 80, "velocity": 111, "duration": 108}, {"note": 78, "velocity": 111, "duration": 174}, {"note": 78, "velocity": 111, "duration": 175}, {"note": 78, "velocity": 111, "duration": 175}, {"note": 0, "velocity": 0, "duration": 65}, {"note": 76, "velocity": 100, "duration": 18}, {"note": 76, "velocity": 100, "duration": 18}, {"note": 76, "velocity": 100, "duration": 19}, {"note": 78, "velocity": 113, "duration": 140}, {"note": 78, "velocity": 113, "duration": 142}, {"note": 78, "velocity": 113, "duration": 142}, {"note": 73, "velocity": 98, "duration": 229}, {"note": 73, "velocity": 98, "duration": 229}, {"note": 73, "velocity": 98, "duration": 229}, {"note": 71, "velocity": 106, "duration": 2}, {"note": 71, "velocity": 106, "duration": 2}, {"note": 71, "velocity": 106, "duration": 2}, {"note": 80, "velocity": 106, "duration": 101}, {"note": 80, "velocity": 106, "duration": 101}, {"note": 80, "velocity": 106, "duration": 103}, {"note": 78, "velocity": 115, "duration": 203}, {"note": 78, "velocity": 115, "duration": 203}, {"note": 78, "velocity": 115, "duration": 203}, {"note": 76, "velocity": 103, "duration": 48}, {"note": 76, "velocity": 103, "duration": 48}, {"note": 76, "velocity": 103, "duration": 48}, {"note": 76, "velocity": 111, "duration": 100}, {"note": 76, "velocity": 111, "duration": 100}, {"note": 76, "velocity": 111, "duration": 101}, {"note": 73, "velocity": 113, "duration": 396}, {"note": 73, "velocity": 113, "duration": 397}, {"note": 73, "velocity": 113, "duration": 398}, {"note": 0, "velocity": 0, "duration": 202}, {"note": 78, "velocity": 117, "duration": 42}, {"note": 78, "velocity": 117, "duration": 42}, {"note": 78, "velocity": 117, "duration": 43}, {"note": 78, "velocity": 113, "duration": 17}, {"note": 78, "velocity": 113, "duration": 18}, {"note": 78, "velocity": 113, "duration": 18}, {"note": 0, "velocity": 0, "duration": 253}, {"note": 71, "velocity": 106, "duration": 75}, {"note": 71, "velocity": 106, "duration": 77}, {"note": 71, "velocity": 106, "duration": 77}, {"note": 81, "velocity": 106, "duration": 90}, {"note": 81, "velocity": 106, "duration": 90}, {"note": 81, "velocity": 106, "duration": 90}, {"note": 80, "velocity": 85, "duration": 58}, {"note": 80, "velocity": 85, "duration": 59}, {"note": 80, "velocity": 85, "duration": 59}, {"note": 0, "velocity": 0, "duration": 61}, {"note": 80, "velocity": 79, "duration": 109}, {"note": 80, "velocity": 79, "duration": 109}, {"note": 80, "velocity": 79, "duration": 110}, {"note": 78, "velocity": 71, "duration": 0}, {"note": 78, "velocity": 71, "duration": 1}, {"note": 78, "velocity": 71, "duration": 1}, {"note": 78, "velocity": 106, "duration": 133}, {"note": 78, "velocity": 106, "duration": 133}, {"note": 78, "velocity": 106, "duration": 135}, {"note": 80, "velocity": 103, "duration": 238}, {"note": 80, "velocity": 103, "duration": 239}, {"note": 80, "velocity": 103, "duration": 239}, {"note": 71, "velocity": 91, "duration": 53}, {"note": 71, "velocity": 91, "duration": 54}, {"note": 71, "velocity": 91, "duration": 54}, {"note": 80, "velocity": 115, "duration": 71}, {"note": 80, "velocity": 115, "duration": 71}, {"note": 80, "velocity": 115, "duration": 72}, {"note": 78, "velocity": 106, "duration": 46}, {"note": 78, "velocity": 106, "duration": 46}, {"note": 78, "velocity": 106, "duration": 48}, {"note": 0, "velocity": 0, "duration": 72}, {"note": 78, "velocity": 109, "duration": 87}, {"note": 78, "velocity": 109, "duration": 87}, {"note": 78, "velocity": 109, "duration": 88}, {"note": 76, "velocity": 109, "duration": 45}, {"note": 76, "velocity": 109, "duration": 45}, {"note": 76, "velocity": 109, "duration": 45}, {"note": 76, "velocity": 115, "duration": 98}, {"note": 76, "velocity": 115, "duration": 100}, {"note": 76, "velocity": 115, "duration": 100}, {"note": 78, "velocity": 113, "duration": 98}, {"note": 78, "velocity": 113, "duration": 100}, {"note": 78, "velocity": 113, "duration": 100}, {"note": 71, "velocity": 103, "duration": 92}, {"note": 71, "velocity": 103, "duration": 93}, {"note": 71, "velocity": 103, "duration": 93}, {"note": 80, "velocity": 117, "duration": 69}, {"note": 80, "velocity": 117, "duration": 70}, {"note": 80, "velocity": 117, "duration": 70}, {"note": 78, "velocity": 111, "duration": 46}, {"note": 78, "velocity": 111, "duration": 46}, {"note": 78, "velocity": 111, "duration": 46}, {"note": 0, "velocity": 0, "duration": 74}, {"note": 78, "velocity": 113, "duration": 90}, {"note": 78, "velocity": 113, "duration": 92}, {"note": 78, "velocity": 113, "duration": 92}, {"note": 76, "velocity": 100, "duration": 63}, {"note": 76, "velocity": 100, "duration": 65}, {"note": 76, "velocity": 100, "duration": 65}, {"note": 78, "velocity": 117, "duration": 69}, {"note": 78, "velocity": 117, "duration": 69}, {"note": 78, "velocity": 117, "duration": 70}, {"note": 76, "velocity": 113, "duration": 69}, {"note": 76, "velocity": 113, "duration": 69}, {"note": 76, "velocity": 113, "duration": 71}, {"note": 76, "velocity": 106, "duration": 4}, {"note": 76, "velocity": 106, "duration": 4}, {"note": 76, "velocity": 106, "duration": 4}, {"note": 0, "velocity": 0, "duration": 116}, {"note": 78, "velocity": 113, "duration": 83}, {"note": 78, "velocity": 113, "duration": 85}, {"note": 78, "velocity": 113, "duration": 85}, {"note": 76, "velocity": 91, "duration": 106}, {"note": 76, "velocity": 91, "duration": 107}, {"note": 76, "velocity": 91, "duration": 108}, {"note": 78, "velocity": 109, "duration": 89}, {"note": 78, "velocity": 109, "duration": 90}, {"note": 78, "velocity": 109, "duration": 90}, {"note": 76, "velocity": 106, "duration": 5}, {"note": 76, "velocity": 106, "duration": 5}, {"note": 76, "velocity": 106, "duration": 5}, {"note": 78, "velocity": 120, "duration": 97}, {"note": 78, "velocity": 120, "duration": 97}, {"note": 78, "velocity": 120, "duration": 98}, {"note": 80, "velocity": 113, "duration": 7}, {"note": 80, "velocity": 113, "duration": 7}, {"note": 80, "velocity": 113, "duration": 8}, {"note": 80, "velocity": 120, "duration": 36}, {"note": 80, "velocity": 120, "duration": 37}, {"note": 80, "velocity": 120, "duration": 37}, {"note": 0, "velocity": 0, "duration": 83}, {"note": 80, "velocity": 113, "duration": 91}, {"note": 80, "velocity": 113, "duration": 91}, {"note": 80, "velocity": 113, "duration": 93}, {"note": 78, "velocity": 106, "duration": 28}, {"note": 78, "velocity": 106, "duration": 29}, {"note": 78, "velocity": 106, "duration": 30}, {"note": 0, "velocity": 0, "duration": 90}, {"note": 78, "velocity": 111, "duration": 96}, {"note": 78, "velocity": 111, "duration": 96}, {"note": 78, "velocity": 111, "duration": 97}, {"note": 76, "velocity": 103, "duration": 65}, {"note": 76, "velocity": 103, "duration": 65}, {"note": 76, "velocity": 103, "duration": 65}, {"note": 78, "velocity": 115, "duration": 95}, {"note": 78, "velocity": 115, "duration": 96}, {"note": 78, "velocity": 115, "duration": 96}, {"note": 76, "velocity": 109, "duration": 48}, {"note": 76, "velocity": 109, "duration": 48}, {"note": 76, "velocity": 109, "duration": 49}, {"note": 76, "velocity": 115, "duration": 19}, {"note": 76, "velocity": 115, "duration": 19}, {"note": 76, "velocity": 115, "duration": 19}, {"note": 0, "velocity": 0, "duration": 78}, {"note": 76, "velocity": 115, "duration": 74}, {"note": 76, "velocity": 115, "duration": 75}, {"note": 76, "velocity": 115, "duration": 76}, {"note": 75, "velocity": 103, "duration": 36}, {"note": 75, "velocity": 103, "duration": 36}, {"note": 75, "velocity": 103, "duration": 37}, {"note": 0, "velocity": 0, "duration": 83}, {"note": 75, "velocity": 111, "duration": 115}, {"note": 75, "velocity": 111, "duration": 116}, {"note": 75, "velocity": 111, "duration": 116}, {"note": 71, "velocity": 100, "duration": 35}, {"note": 71, "velocity": 100, "duration": 37}, {"note": 71, "velocity": 100, "duration": 37}, {"note": 78, "velocity": 120, "duration": 91}, {"note": 78, "velocity": 120, "duration": 91}, {"note": 78, "velocity": 120, "duration": 93}, {"note": 80, "velocity": 109, "duration": 29}, {"note": 80, "velocity": 109, "duration": 29}, {"note": 80, "velocity": 109, "duration": 30}, {"note": 80, "velocity": 115, "duration": 33}, {"note": 80, "velocity": 115, "duration": 33}, {"note": 80, "velocity": 115, "duration": 34}, {"note": 0, "velocity": 0, "duration": 86}, {"note": 80, "velocity": 115, "duration": 90}, {"note": 80, "velocity": 115, "duration": 91}, {"note": 80, "velocity": 115, "duration": 92}, {"note": 78, "velocity": 109, "duration": 36}, {"note": 78, "velocity": 109, "duration": 37}, {"note": 78, "velocity": 109, "duration": 37}, {"note": 0, "velocity": 0, "duration": 83}, {"note": 78, "velocity": 100, "duration": 104}, {"note": 78, "velocity": 100, "duration": 104}, {"note": 78, "velocity": 100, "duration": 104}, {"note": 76, "velocity": 72, "duration": 46}, {"note": 76, "velocity": 72, "duration": 46}, {"note": 76, "velocity": 72, "duration": 46}, {"note": 76, "velocity": 111, "duration": 46}, {"note": 76, "velocity": 111, "duration": 47}, {"note": 76, "velocity": 111, "duration": 47}, {"note": 78, "velocity": 109, "duration": 61}, {"note": 78, "velocity": 109, "duration": 61}, {"note": 78, "velocity": 109, "duration": 63}, {"note": 76, "velocity": 106, "duration": 32}, {"note": 76, "velocity": 106, "duration": 33}, {"note": 76, "velocity": 106, "duration": 33}, {"note": 0, "velocity": 0, "duration": 87}, {"note": 76, "velocity": 106, "duration": 13}, {"note": 76, "velocity": 106, "duration": 15}, {"note": 76, "velocity": 106, "duration": 15}, {"note": 73, "velocity": 103, "duration": 37}, {"note": 73, "velocity": 103, "duration": 39}, {"note": 73, "velocity": 103, "duration": 39}, {"note": 76, "velocity": 115, "duration": 66}, {"note": 76, "velocity": 115, "duration": 66}, {"note": 76, "velocity": 115, "duration": 67}, {"note": 80, "velocity": 109, "duration": 36}, {"note": 80, "velocity": 109, "duration": 38}, {"note": 80, "velocity": 109, "duration": 38}, {"note": 0, "velocity": 0, "duration": 82}, {"note": 80, "velocity": 106, "duration": 75}, {"note": 80, "velocity": 106, "duration": 75}, {"note": 80, "velocity": 106, "duration": 75}, {"note": 76, "velocity": 109, "duration": 16}, {"note": 76, "velocity": 109, "duration": 18}, {"note": 76, "velocity": 109, "duration": 18}, {"note": 78, "velocity": 117, "duration": 30}, {"note": 78, "velocity": 117, "duration": 30}, {"note": 78, "velocity": 117, "duration": 31}, {"note": 71, "velocity": 103, "duration": 74}, {"note": 71, "velocity": 103, "duration": 74}, {"note": 71, "velocity": 103, "duration": 75}, {"note": 81, "velocity": 115, "duration": 77}, {"note": 81, "velocity": 115, "duration": 78}, {"note": 81, "velocity": 115, "duration": 78}, {"note": 80, "velocity": 113, "duration": 43}, {"note": 80, "velocity": 113, "duration": 45}, {"note": 80, "velocity": 113, "duration": 45}, {"note": 0, "velocity": 0, "duration": 75}, {"note": 80, "velocity": 113, "duration": 87}, {"note": 80, "velocity": 113, "duration": 88}, {"note": 80, "velocity": 113, "duration": 88}, {"note": 78, "velocity": 115, "duration": 48}, {"note": 78, "velocity": 115, "duration": 48}, {"note": 78, "velocity": 115, "duration": 50}, {"note": 78, "velocity": 117, "duration": 78}, {"note": 78, "velocity": 117, "duration": 78}, {"note": 78, "velocity": 117, "duration": 79}, {"note": 80, "velocity": 115, "duration": 12}, {"note": 80, "velocity": 115, "duration": 12}, {"note": 80, "velocity": 115, "duration": 13}, {"note": 71, "velocity": 109, "duration": 91}, {"note": 71, "velocity": 109, "duration": 91}, {"note": 71, "velocity": 109, "duration": 92}, {"note": 80, "velocity": 120, "duration": 71}, {"note": 80, "velocity": 120, "duration": 71}, {"note": 80, "velocity": 120, "duration": 71}, {"note": 78, "velocity": 98, "duration": 47}, {"note": 78, "velocity": 98, "duration": 48}, {"note": 78, "velocity": 98, "duration": 48}, {"note": 0, "velocity": 0, "duration": 72}, {"note": 78, "velocity": 111, "duration": 91}, {"note": 78, "velocity": 111, "duration": 91}, {"note": 78, "velocity": 111, "duration": 91}, {"note": 76, "velocity": 113, "duration": 39}, {"note": 76, "velocity": 113, "duration": 40}, {"note": 76, "velocity": 113, "duration": 41}, {"note": 76, "velocity": 115, "duration": 109}, {"note": 76, "velocity": 115, "duration": 109}, {"note": 76, "velocity": 115, "duration": 110}, {"note": 78, "velocity": 115, "duration": 42}, {"note": 78, "velocity": 115, "duration": 43}, {"note": 78, "velocity": 115, "duration": 43}, {"note": 71, "velocity": 106, "duration": 84}, {"note": 71, "velocity": 106, "duration": 86}, {"note": 71, "velocity": 106, "duration": 86}, {"note": 80, "velocity": 115, "duration": 61}, {"note": 80, "velocity": 115, "duration": 62}, {"note": 80, "velocity": 115, "duration": 62}, {"note": 78, "velocity": 111, "duration": 34}, {"note": 78, "velocity": 111, "duration": 34}, {"note": 78, "velocity": 111, "duration": 35}, {"note": 78, "velocity": 113, "duration": 83}, {"note": 78, "velocity": 113, "duration": 84}, {"note": 78, "velocity": 113, "duration": 84}, {"note": 76, "velocity": 106, "duration": 9}, {"note": 76, "velocity": 106, "duration": 9}, {"note": 76, "velocity": 106, "duration": 9}, {"note": 78, "velocity": 120, "duration": 110}, {"note": 78, "velocity": 120, "duration": 111}, {"note": 78, "velocity": 120, "duration": 111}, {"note": 76, "velocity": 113, "duration": 115}, {"note": 76, "velocity": 113, "duration": 115}, {"note": 76, "velocity": 113, "duration": 115}, {"note": 76, "velocity": 111, "duration": 39}, {"note": 76, "velocity": 111, "duration": 40}, {"note": 76, "velocity": 111, "duration": 41}, {"note": 78, "velocity": 115, "duration": 61}, {"note": 78, "velocity": 115, "duration": 61}, {"note": 78, "velocity": 115, "duration": 61}, {"note": 76, "velocity": 111, "duration": 47}, {"note": 76, "velocity": 111, "duration": 47}, {"note": 76, "velocity": 111, "duration": 47}, {"note": 0, "velocity": 0, "duration": 73}, {"note": 78, "velocity": 111, "duration": 58}, {"note": 78, "velocity": 111, "duration": 58}, {"note": 78, "velocity": 111, "duration": 58}, {"note": 0, "velocity": 0, "duration": 62}, {"note": 76, "velocity": 111, "duration": 2}, {"note": 76, "velocity": 111, "duration": 2}, {"note": 76, "velocity": 111, "duration": 2}, {"note": 78, "velocity": 117, "duration": 96}, {"note": 78, "velocity": 117, "duration": 96}, {"note": 78, "velocity": 117, "duration": 97}, {"note": 80, "velocity": 111, "duration": 23}, {"note": 80, "velocity": 111, "duration": 23}, {"note": 80, "velocity": 111, "duration": 24}, {"note": 80, "velocity": 115, "duration": 35}, {"note": 80, "velocity": 115, "duration": 36}, {"note": 80, "velocity": 115, "duration": 36}, {"note": 0, "velocity": 0, "duration": 71}, {"note": 80, "velocity": 113, "duration": 87}, {"note": 80, "velocity": 113, "duration": 88}, {"note": 80, "velocity": 113, "duration": 88}, {"note": 78, "velocity": 109, "duration": 33}, {"note": 78, "velocity": 109, "duration": 34}, {"note": 78, "velocity": 109, "duration": 35}, {"note": 0, "velocity": 0, "duration": 85}, {"note": 78, "velocity": 109, "duration": 100}, {"note": 78, "velocity": 109, "duration": 101}, {"note": 78, "velocity": 109, "duration": 101}, {"note": 76, "velocity": 111, "duration": 46}, {"note": 76, "velocity": 111, "duration": 46}, {"note": 76, "velocity": 111, "duration": 47}, {"note": 78, "velocity": 117, "duration": 100}, {"note": 78, "velocity": 117, "duration": 101}, {"note": 78, "velocity": 117, "duration": 101}, {"note": 76, "velocity": 113, "duration": 154}, {"note": 76, "velocity": 113, "duration": 154}, {"note": 76, "velocity": 113, "duration": 155}, {"note": 76, "velocity": 117, "duration": 50}, {"note": 76, "velocity": 117, "duration": 50}, {"note": 76, "velocity": 117, "duration": 50}, {"note": 76, "velocity": 117, "duration": 86}, {"note": 76, "velocity": 117, "duration": 87}, {"note": 76, "velocity": 117, "duration": 88}, {"note": 75, "velocity": 106, "duration": 33}, {"note": 75, "velocity": 106, "duration": 34}, {"note": 75, "velocity": 106, "duration": 34}, {"note": 0, "velocity": 0, "duration": 86}, {"note": 75, "velocity": 109, "duration": 106}, {"note": 75, "velocity": 109, "duration": 108}, {"note": 75, "velocity": 109, "duration": 108}, {"note": 71, "velocity": 100, "duration": 51}, {"note": 71, "velocity": 100, "duration": 51}, {"note": 71, "velocity": 100, "duration": 53}, {"note": 78, "velocity": 117, "duration": 103}, {"note": 78, "velocity": 117, "duration": 103}, {"note": 78, "velocity": 117, "duration": 103}, {"note": 80, "velocity": 111, "duration": 237}, {"note": 80, "velocity": 111, "duration": 237}, {"note": 80, "velocity": 111, "duration": 237}, {"note": 80, "velocity": 117, "duration": 34}, {"note": 80, "velocity": 117, "duration": 34}, {"note": 80, "velocity": 117, "duration": 35}, {"note": 0, "velocity": 0, "duration": 80}, {"note": 80, "velocity": 115, "duration": 58}, {"note": 80, "velocity": 115, "duration": 59}, {"note": 80, "velocity": 115, "duration": 59}, {"note": 78, "velocity": 100, "duration": 34}, {"note": 78, "velocity": 100, "duration": 34}, {"note": 78, "velocity": 100, "duration": 34}, {"note": 0, "velocity": 0, "duration": 86}, {"note": 78, "velocity": 106, "duration": 73}, {"note": 78, "velocity": 106, "duration": 73}, {"note": 78, "velocity": 106, "duration": 75}, {"note": 76, "velocity": 106, "duration": 5}, {"note": 76, "velocity": 106, "duration": 5}, {"note": 76, "velocity": 106, "duration": 5}, {"note": 78, "velocity": 113, "duration": 118}, {"note": 78, "velocity": 113, "duration": 118}, {"note": 78, "velocity": 113, "duration": 118}, {"note": 76, "velocity": 106, "duration": 107}, {"note": 76, "velocity": 106, "duration": 108}, {"note": 76, "velocity": 106, "duration": 108}, {"note": 0, "velocity": 0, "duration": 132}, {"note": 76, "velocity": 113, "duration": 36}, {"note": 76, "velocity": 113, "duration": 37}, {"note": 76, "velocity": 113, "duration": 37}, {"note": 73, "velocity": 115, "duration": 268}, {"note": 73, "velocity": 115, "duration": 268}, {"note": 73, "velocity": 115, "duration": 269}, {"note": 71, "velocity": 98, "duration": 65}, {"note": 71, "velocity": 98, "duration": 65}, {"note": 71, "velocity": 98, "duration": 65}, {"note": 80, "velocity": 113, "duration": 190}, {"note": 80, "velocity": 113, "duration": 191}, {"note": 80, "velocity": 113, "duration": 192}, {"note": 78, "velocity": 115, "duration": 98}, {"note": 78, "velocity": 115, "duration": 98}, {"note": 78, "velocity": 115, "duration": 98}, {"note": 76, "velocity": 117, "duration": 230}, {"note": 76, "velocity": 117, "duration": 231}, {"note": 76, "velocity": 117, "duration": 232}, {"note": 75, "velocity": 111, "duration": 34}, {"note": 75, "velocity": 111, "duration": 34}, {"note": 75, "velocity": 111, "duration": 36}, {"note": 76, "velocity": 115, "duration": 375}, {"note": 72, "velocity": 113, "duration": 19}, {"note": 82, "velocity": 117, "duration": 83}, {"note": 82, "velocity": 117, "duration": 84}, {"note": 82, "velocity": 117, "duration": 84}, {"note": 81, "velocity": 117, "duration": 40}, {"note": 81, "velocity": 117, "duration": 41}, {"note": 81, "velocity": 117, "duration": 42}, {"note": 0, "velocity": 0, "duration": 78}, {"note": 81, "velocity": 111, "duration": 112}, {"note": 81, "velocity": 111, "duration": 112}, {"note": 81, "velocity": 111, "duration": 113}, {"note": 79, "velocity": 115, "duration": 1}, {"note": 79, "velocity": 115, "duration": 1}, {"note": 79, "velocity": 115, "duration": 1}, {"note": 79, "velocity": 117, "duration": 88}, {"note": 79, "velocity": 117, "duration": 88}, {"note": 79, "velocity": 117, "duration": 89}, {"note": 81, "velocity": 115, "duration": 147}, {"note": 81, "velocity": 115, "duration": 147}, {"note": 81, "velocity": 115, "duration": 148}, {"note": 72, "velocity": 113, "duration": 60}, {"note": 72, "velocity": 113, "duration": 62}, {"note": 72, "velocity": 113, "duration": 62}, {"note": 81, "velocity": 113, "duration": 81}, {"note": 81, "velocity": 113, "duration": 82}, {"note": 81, "velocity": 113, "duration": 82}, {"note": 79, "velocity": 109, "duration": 38}, {"note": 79, "velocity": 109, "duration": 39}, {"note": 79, "velocity": 109, "duration": 39}, {"note": 0, "velocity": 0, "duration": 81}, {"note": 79, "velocity": 113, "duration": 100}, {"note": 79, "velocity": 113, "duration": 101}, {"note": 79, "velocity": 113, "duration": 101}, {"note": 77, "velocity": 117, "duration": 8}, {"note": 77, "velocity": 117, "duration": 10}, {"note": 77, "velocity": 117, "duration": 10}, {"note": 77, "velocity": 117, "duration": 86}, {"note": 77, "velocity": 117, "duration": 86}, {"note": 77, "velocity": 117, "duration": 88}, {"note": 79, "velocity": 117, "duration": 201}, {"note": 79, "velocity": 117, "duration": 202}, {"note": 79, "velocity": 117, "duration": 203}, {"note": 72, "velocity": 106, "duration": 83}, {"note": 72, "velocity": 106, "duration": 83}, {"note": 72, "velocity": 106, "duration": 84}, {"note": 81, "velocity": 117, "duration": 80}, {"note": 81, "velocity": 117, "duration": 82}, {"note": 81, "velocity": 117, "duration": 82}, {"note": 79, "velocity": 113, "duration": 34}, {"note": 79, "velocity": 113, "duration": 35}, {"note": 79, "velocity": 113, "duration": 35}, {"note": 0, "velocity": 0, "duration": 85}, {"note": 79, "velocity": 113, "duration": 96}, {"note": 79, "velocity": 113, "duration": 96}, {"note": 79, "velocity": 113, "duration": 97}, {"note": 77, "velocity": 113, "duration": 29}, {"note": 77, "velocity": 113, "duration": 29}, {"note": 77, "velocity": 113, "duration": 29}, {"note": 79, "velocity": 120, "duration": 93}, {"note": 79, "velocity": 120, "duration": 94}, {"note": 79, "velocity": 120, "duration": 94}, {"note": 77, "velocity": 115, "duration": 24}, {"note": 77, "velocity": 115, "duration": 24}, {"note": 77, "velocity": 115, "duration": 25}, {"note": 77, "velocity": 117, "duration": 62}, {"note": 77, "velocity": 117, "duration": 62}, {"note": 77, "velocity": 117, "duration": 63}, {"note": 79, "velocity": 120, "duration": 80}, {"note": 79, "velocity": 120, "duration": 80}, {"note": 79, "velocity": 120, "duration": 81}, {"note": 77, "velocity": 106, "duration": 63}, {"note": 77, "velocity": 106, "duration": 63}, {"note": 77, "velocity": 106, "duration": 64}, {"note": 79, "velocity": 115, "duration": 80}, {"note": 79, "velocity": 115, "duration": 81}, {"note": 79, "velocity": 115, "duration": 82}, {"note": 77, "velocity": 106, "duration": 49}, {"note": 77, "velocity": 106, "duration": 50}, {"note": 77, "velocity": 106, "duration": 50}, {"note": 79, "velocity": 117, "duration": 88}, {"note": 79, "velocity": 117, "duration": 88}, {"note": 79, "velocity": 117, "duration": 89}, {"note": 81, "velocity": 111, "duration": 183}, {"note": 81, "velocity": 111, "duration": 183}, {"note": 81, "velocity": 111, "duration": 183}, {"note": 0, "velocity": 0, "duration": 177}, {"note": 81, "velocity": 117, "duration": 76}, {"note": 81, "velocity": 117, "duration": 77}, {"note": 81, "velocity": 117, "duration": 78}, {"note": 0, "velocity": 0, "duration": 113}, {"note": 79, "velocity": 109, "duration": 143}, {"note": 79, "velocity": 109, "duration": 143}, {"note": 79, "velocity": 109, "duration": 143}, {"note": 77, "velocity": 109, "duration": 81}, {"note": 77, "velocity": 109, "duration": 81}, {"note": 77, "velocity": 109, "duration": 82}, {"note": 79, "velocity": 115, "duration": 132}, {"note": 79, "velocity": 115, "duration": 133}, {"note": 79, "velocity": 115, "duration": 133}, {"note": 0, "velocity": 0, "duration": 89}, {"note": 77, "velocity": 115, "duration": 142}, {"note": 77, "velocity": 115, "duration": 142}, {"note": 77, "velocity": 115, "duration": 142}, {"note": 77, "velocity": 117, "duration": 22}, {"note": 77, "velocity": 117, "duration": 23}, {"note": 77, "velocity": 117, "duration": 23}, {"note": 79, "velocity": 117, "duration": 99}, {"note": 79, "velocity": 117, "duration": 99}, {"note": 79, "velocity": 117, "duration": 100}, {"note": 77, "velocity": 109, "duration": 38}, {"note": 77, "velocity": 109, "duration": 39}, {"note": 77, "velocity": 109, "duration": 39}, {"note": 0, "velocity": 0, "duration": 81}, {"note": 77, "velocity": 115, "duration": 106}, {"note": 77, "velocity": 115, "duration": 106}, {"note": 77, "velocity": 115, "duration": 108}, {"note": 72, "velocity": 100, "duration": 41}, {"note": 72, "velocity": 100, "duration": 41}, {"note": 72, "velocity": 100, "duration": 41}, {"note": 79, "velocity": 123, "duration": 32}, {"note": 79, "velocity": 123, "duration": 32}, {"note": 79, "velocity": 123, "duration": 33}, {"note": 81, "velocity": 113, "duration": 173}, {"note": 81, "velocity": 113, "duration": 173}, {"note": 81, "velocity": 113, "duration": 173}, {"note": 81, "velocity": 115, "duration": 54}, {"note": 81, "velocity": 115, "duration": 55}, {"note": 81, "velocity": 115, "duration": 55}, {"note": 0, "velocity": 0, "duration": 65}, {"note": 81, "velocity": 117, "duration": 69}, {"note": 81, "velocity": 117, "duration": 69}, {"note": 81, "velocity": 117, "duration": 70}, {"note": 79, "velocity": 109, "duration": 39}, {"note": 79, "velocity": 109, "duration": 40}, {"note": 79, "velocity": 109, "duration": 41}, {"note": 0, "velocity": 0, "duration": 79}, {"note": 79, "velocity": 111, "duration": 37}, {"note": 79, "velocity": 111, "duration": 37}, {"note": 79, "velocity": 111, "duration": 37}, {"note": 77, "velocity": 113, "duration": 68}, {"note": 77, "velocity": 113, "duration": 69}, {"note": 77, "velocity": 113, "duration": 69}, {"note": 79, "velocity": 120, "duration": 94}, {"note": 79, "velocity": 120, "duration": 95}, {"note": 79, "velocity": 120, "duration": 95}, {"note": 77, "velocity": 113, "duration": 56}, {"note": 77, "velocity": 113, "duration": 57}, {"note": 77, "velocity": 113, "duration": 58}, {"note": 0, "velocity": 0, "duration": 62}, {"note": 77, "velocity": 113, "duration": 113}, {"note": 77, "velocity": 113, "duration": 113}, {"note": 77, "velocity": 113, "duration": 114}, {"note": 74, "velocity": 106, "duration": 87}, {"note": 74, "velocity": 106, "duration": 88}, {"note": 74, "velocity": 106, "duration": 88}, {"note": 77, "velocity": 115, "duration": 98}, {"note": 77, "velocity": 115, "duration": 99}, {"note": 77, "velocity": 115, "duration": 99}, {"note": 81, "velocity": 113, "duration": 69}, {"note": 81, "velocity": 113, "duration": 70}, {"note": 81, "velocity": 113, "duration": 70}, {"note": 81, "velocity": 115, "duration": 114}, {"note": 81, "velocity": 115, "duration": 114}, {"note": 81, "velocity": 115, "duration": 115}, {"note": 82, "velocity": 109, "duration": 227}, {"note": 82, "velocity": 109, "duration": 227}, {"note": 82, "velocity": 109, "duration": 228}, {"note": 79, "velocity": 120, "duration": 281}, {"note": 79, "velocity": 120, "duration": 282}, {"note": 79, "velocity": 120, "duration": 282}, {"note": 84, "velocity": 120, "duration": 1}, {"note": 84, "velocity": 120, "duration": 1}, {"note": 84, "velocity": 120, "duration": 1}, {"note": 84, "velocity": 113, "duration": 100}, {"note": 84, "velocity": 113, "duration": 101}, {"note": 84, "velocity": 113, "duration": 101}, {"note": 81, "velocity": 103, "duration": 41}, {"note": 81, "velocity": 103, "duration": 41}, {"note": 81, "velocity": 103, "duration": 42}, {"note": 0, "velocity": 0, "duration": 78}, {"note": 81, "velocity": 113, "duration": 78}, {"note": 81, "velocity": 113, "duration": 80}, {"note": 81, "velocity": 113, "duration": 80}, {"note": 79, "velocity": 115, "duration": 53}, {"note": 79, "velocity": 115, "duration": 53}, {"note": 79, "velocity": 115, "duration": 54}, {"note": 79, "velocity": 115, "duration": 104}, {"note": 79, "velocity": 115, "duration": 104}, {"note": 79, "velocity": 115, "duration": 104}, {"note": 81, "velocity": 115, "duration": 129}, {"note": 81, "velocity": 115, "duration": 129}, {"note": 81, "velocity": 115, "duration": 129}, {"note": 81, "velocity": 115, "duration": 37}, {"note": 81, "velocity": 115, "duration": 39}, {"note": 81, "velocity": 115, "duration": 39}, {"note": 81, "velocity": 115, "duration": 70}, {"note": 81, "velocity": 115, "duration": 70}, {"note": 81, "velocity": 115, "duration": 70}, {"note": 79, "velocity": 103, "duration": 28}, {"note": 79, "velocity": 103, "duration": 28}, {"note": 79, "velocity": 103, "duration": 28}, {"note": 0, "velocity": 0, "duration": 92}, {"note": 79, "velocity": 109, "duration": 58}, {"note": 79, "velocity": 109, "duration": 58}, {"note": 79, "velocity": 109, "duration": 58}, {"note": 77, "velocity": 98, "duration": 54}, {"note": 77, "velocity": 98, "duration": 55}, {"note": 77, "velocity": 98, "duration": 56}, {"note": 81, "velocity": 117, "duration": 88}, {"note": 81, "velocity": 117, "duration": 88}, {"note": 81, "velocity": 117, "duration": 88}, {"note": 79, "velocity": 111, "duration": 13}, {"note": 79, "velocity": 111, "duration": 13}, {"note": 79, "velocity": 111, "duration": 14}, {"note": 79, "velocity": 115, "duration": 83}, {"note": 79, "velocity": 115, "duration": 83}, {"note": 79, "velocity": 115, "duration": 85}, {"note": 81, "velocity": 117, "duration": 94}, {"note": 81, "velocity": 117, "duration": 96}, {"note": 81, "velocity": 117, "duration": 96}, {"note": 79, "velocity": 113, "duration": 38}, {"note": 79, "velocity": 113, "duration": 39}, {"note": 79, "velocity": 113, "duration": 39}, {"note": 0, "velocity": 0, "duration": 81}, {"note": 79, "velocity": 113, "duration": 102}, {"note": 79, "velocity": 113, "duration": 102}, {"note": 79, "velocity": 113, "duration": 102}, {"note": 77, "velocity": 109, "duration": 13}, {"note": 77, "velocity": 109, "duration": 14}, {"note": 77, "velocity": 109, "duration": 14}, {"note": 79, "velocity": 117, "duration": 111}, {"note": 79, "velocity": 117, "duration": 112}, {"note": 79, "velocity": 117, "duration": 113}, {"note": 77, "velocity": 115, "duration": 36}, {"note": 77, "velocity": 115, "duration": 36}, {"note": 77, "velocity": 115, "duration": 36}, {"note": 0, "velocity": 0, "duration": 62}, {"note": 77, "velocity": 111, "duration": 77}, {"note": 77, "velocity": 111, "duration": 77}, {"note": 77, "velocity": 111, "duration": 78}, {"note": 79, "velocity": 113, "duration": 95}, {"note": 79, "velocity": 113, "duration": 96}, {"note": 79, "velocity": 113, "duration": 96}, {"note": 77, "velocity": 91, "duration": 97}, {"note": 77, "velocity": 91, "duration": 97}, {"note": 77, "velocity": 91, "duration": 99}, {"note": 79, "velocity": 103, "duration": 106}, {"note": 79, "velocity": 103, "duration": 106}, {"note": 79, "velocity": 103, "duration": 107}, {"note": 77, "velocity": 95, "duration": 15}, {"note": 77, "velocity": 95, "duration": 15}, {"note": 77, "velocity": 95, "duration": 17}, {"note": 84, "velocity": 117, "duration": 109}, {"note": 84, "velocity": 117, "duration": 109}, {"note": 84, "velocity": 117, "duration": 110}, {"note": 81, "velocity": 113, "duration": 199}, {"note": 81, "velocity": 113, "duration": 199}, {"note": 81, "velocity": 113, "duration": 201}, {"note": 81, "velocity": 117, "duration": 38}, {"note": 81, "velocity": 117, "duration": 38}, {"note": 81, "velocity": 117, "duration": 39}, {"note": 0, "velocity": 0, "duration": 81}, {"note": 81, "velocity": 115, "duration": 87}, {"note": 81, "velocity": 115, "duration": 87}, {"note": 81, "velocity": 115, "duration": 87}, {"note": 79, "velocity": 103, "duration": 30}, {"note": 79, "velocity": 103, "duration": 31}, {"note": 79, "velocity": 103, "duration": 31}, {"note": 0, "velocity": 0, "duration": 89}, {"note": 79, "velocity": 106, "duration": 103}, {"note": 79, "velocity": 106, "duration": 104}, {"note": 79, "velocity": 106, "duration": 105}, {"note": 77, "velocity": 106, "duration": 34}, {"note": 77, "velocity": 106, "duration": 34}, {"note": 77, "velocity": 106, "duration": 35}, {"note": 79, "velocity": 115, "duration": 120}, {"note": 79, "velocity": 115, "duration": 121}, {"note": 79, "velocity": 115, "duration": 121}, {"note": 77, "velocity": 111, "duration": 162}, {"note": 77, "velocity": 111, "duration": 162}, {"note": 77, "velocity": 111, "duration": 164}, {"note": 77, "velocity": 115, "duration": 51}, {"note": 77, "velocity": 115, "duration": 53}, {"note": 77, "velocity": 115, "duration": 53}, {"note": 79, "velocity": 111, "duration": 62}, {"note": 79, "velocity": 111, "duration": 62}, {"note": 79, "velocity": 111, "duration": 63}, {"note": 77, "velocity": 98, "duration": 36}, {"note": 77, "velocity": 98, "duration": 36}, {"note": 77, "velocity": 98, "duration": 36}, {"note": 0, "velocity": 0, "duration": 84}, {"note": 77, "velocity": 106, "duration": 100}, {"note": 77, "velocity": 106, "duration": 102}, {"note": 77, "velocity": 106, "duration": 102}, {"note": 72, "velocity": 85, "duration": 85}, {"note": 72, "velocity": 85, "duration": 87}, {"note": 72, "velocity": 85, "duration": 87}, {"note": 79, "velocity": 113, "duration": 127}, {"note": 79, "velocity": 113, "duration": 127}, {"note": 79, "velocity": 113, "duration": 127}, {"note": 81, "velocity": 113, "duration": 16}, {"note": 81, "velocity": 113, "duration": 16}, {"note": 81, "velocity": 113, "duration": 387}, {"note": 81, "velocity": 115, "duration": 141}, {"note": 81, "velocity": 115, "duration": 141}, {"note": 81, "velocity": 115, "duration": 142}, {"note": 79, "velocity": 109, "duration": 161}, {"note": 79, "velocity": 109, "duration": 161}, {"note": 79, "velocity": 109, "duration": 162}, {"note": 0, "velocity": 0, "duration": 78}, {"note": 77, "velocity": 106, "duration": 142}, {"note": 77, "velocity": 106, "duration": 142}, {"note": 77, "velocity": 106, "duration": 142}, {"note": 74, "velocity": 113, "duration": 308}, {"note": 74, "velocity": 113, "duration": 309}, {"note": 74, "velocity": 113, "duration": 309}, {"note": 72, "velocity": 111, "duration": 14}, {"note": 72, "velocity": 111, "duration": 14}, {"note": 72, "velocity": 111, "duration": 15}, {"note": 0, "velocity": 0, "duration": 69}, {"note": 81, "velocity": 113, "duration": 227}, {"note": 81, "velocity": 113, "duration": 227}, {"note": 81, "velocity": 113, "duration": 227}, {"note": 79, "velocity": 106, "duration": 91}, {"note": 79, "velocity": 106, "duration": 92}, {"note": 79, "velocity": 106, "duration": 92}, {"note": 77, "velocity": 115, "duration": 359}, {"note": 77, "velocity": 115, "duration": 359}, {"note": 77, "velocity": 115, "duration": 359}, {"note": 76, "velocity": 109, "duration": 35}, {"note": 76, "velocity": 109, "duration": 36}, {"note": 76, "velocity": 109, "duration": 37}, {"note": 77, "velocity": 113, "duration": 1112}, {"note": 77, "velocity": 113, "duration": 1113}, {"note": 77, "velocity": 113, "duration": 1113}]]