[[{"note": 70, "velocity": 82, "duration": 103}, {"note": 72, "velocity": 71, "duration": 111}, {"note": 73, "velocity": 75, "duration": 113}, {"note": 70, "velocity": 71, "duration": 150}, {"note": 72, "velocity": 75, "duration": 138}, {"note": 73, "velocity": 70, "duration": 102}, {"note": 70, "velocity": 68, "duration": 164}, {"note": 72, "velocity": 68, "duration": 100}, {"note": 73, "velocity": 70, "duration": 303}, {"note": 73, "velocity": 79, "duration": 127}, {"note": 75, "velocity": 91, "duration": 91}, {"note": 73, "velocity": 77, "duration": 117}, {"note": 72, "velocity": 60, "duration": 129}, {"note": 70, "velocity": 68, "duration": 129}, {"note": 68, "velocity": 70, "duration": 104}, {"note": 0, "velocity": 0, "duration": 136}, {"note": 68, "velocity": 71, "duration": 36}, {"note": 0, "velocity": 0, "duration": 84}, {"note": 68, "velocity": 75, "duration": 323}, {"note": 70, "velocity": 82, "duration": 87}, {"note": 72, "velocity": 76, "duration": 1000}, {"note": 0, "velocity": 0, "duration": 80}, {"note": 70, "velocity": 88, "duration": 128}, {"note": 72, "velocity": 70, "duration": 128}, {"note": 73, "velocity": 72, "duration": 79}, {"note": 70, "velocity": 66, "duration": 138}, {"note": 72, "velocity": 68, "duration": 134}, {"note": 73, "velocity": 69, "duration": 105}, {"note": 70, "velocity": 63, "duration": 169}, {"note": 72, "velocity": 68, "duration": 102}, {"note": 73, "velocity": 73, "duration": 253}, {"note": 0, "velocity": 0, "duration": 107}, {"note": 73, "velocity": 76, "duration": 82}, {"note": 75, "velocity": 98, "duration": 78}, {"note": 73, "velocity": 91, "duration": 106}, {"note": 72, "velocity": 66, "duration": 84}, {"note": 70, "velocity": 71, "duration": 122}, {"note": 68, "velocity": 70, "duration": 135}, {"note": 0, "velocity": 0, "duration": 105}, {"note": 68, "velocity": 71, "duration": 54}, {"note": 0, "velocity": 0, "duration": 66}, {"note": 68, "velocity": 77, "duration": 374}, {"note": 75, "velocity": 88, "duration": 85}, {"note": 0, "velocity": 0, "duration": 155}, {"note": 77, "velocity": 95, "duration": 537}, {"note": 0, "velocity": 0, "duration": 423}, {"note": 78, "velocity": 91, "duration": 211}, {"note": 77, "velocity": 85, "duration": 94}, {"note": 78, "velocity": 91, "duration": 226}, {"note": 70, "velocity": 106, "duration": 45}, {"note": 0, "velocity": 0, "duration": 75}, {"note": 70, "velocity": 85, "duration": 85}, {"note": 77, "velocity": 109, "duration": 55}, {"note": 0, "velocity": 0, "duration": 65}, {"note": 77, "velocity": 100, "duration": 354}, {"note": 75, "velocity": 75, "duration": 423}, {"note": 0, "velocity": 0, "duration": 177}, {"note": 77, "velocity": 95, "duration": 225}, {"note": 75, "velocity": 85, "duration": 90}, {"note": 77, "velocity": 95, "duration": 254}, {"note": 68, "velocity": 79, "duration": 61}, {"note": 68, "velocity": 85, "duration": 106}, {"note": 75, "velocity": 72, "duration": 50}, {"note": 0, "velocity": 0, "duration": 70}, {"note": 75, "velocity": 111, "duration": 339}, {"note": 73, "velocity": 91, "duration": 375}, {"note": 70, "velocity": 75, "duration": 90}, {"note": 72, "velocity": 72, "duration": 93}, {"note": 73, "velocity": 100, "duration": 169}, {"note": 0, "velocity": 0, "duration": 71}, {"note": 73, "velocity": 98, "duration": 142}, {"note": 0, "velocity": 0, "duration": 98}, {"note": 73, "velocity": 98, "duration": 215}, {"note": 72, "velocity": 71, "duration": 88}, {"note": 70, "velocity": 88, "duration": 83}, {"note": 72, "velocity": 88, "duration": 295}, {"note": 0, "velocity": 0, "duration": 65}, {"note": 72, "velocity": 98, "duration": 284}, {"note": 0, "velocity": 0, "duration": 196}, {"note": 68, "velocity": 70, "duration": 108}, {"note": 65, "velocity": 71, "duration": 980}, {"note": 0, "velocity": 0, "duration": 2860}, {"note": 70, "velocity": 79, "duration": 145}, {"note": 72, "velocity": 79, "duration": 87}, {"note": 73, "velocity": 75, "duration": 99}, {"note": 70, "velocity": 70, "duration": 143}, {"note": 72, "velocity": 77, "duration": 93}, {"note": 73, "velocity": 76, "duration": 112}, {"note": 70, "velocity": 70, "duration": 139}, {"note": 72, "velocity": 73, "duration": 107}, {"note": 73, "velocity": 82, "duration": 330}, {"note": 73, "velocity": 91, "duration": 68}, {"note": 75, "velocity": 88, "duration": 75}, {"note": 73, "velocity": 85, "duration": 89}, {"note": 72, "velocity": 77, "duration": 97}, {"note": 70, "velocity": 68, "duration": 92}, {"note": 68, "velocity": 82, "duration": 139}, {"note": 0, "velocity": 0, "duration": 101}, {"note": 68, "velocity": 76, "duration": 50}, {"note": 0, "velocity": 0, "duration": 70}, {"note": 68, "velocity": 79, "duration": 336}, {"note": 70, "velocity": 77, "duration": 72}, {"note": 72, "velocity": 75, "duration": 886}, {"note": 0, "velocity": 0, "duration": 194}, {"note": 70, "velocity": 98, "duration": 135}, {"note": 72, "velocity": 73, "duration": 101}, {"note": 73, "velocity": 79, "duration": 90}, {"note": 70, "velocity": 71, "duration": 138}, {"note": 72, "velocity": 77, "duration": 99}, {"note": 73, "velocity": 82, "duration": 105}, {"note": 70, "velocity": 67, "duration": 141}, {"note": 72, "velocity": 79, "duration": 94}, {"note": 73, "velocity": 98, "duration": 388}, {"note": 75, "velocity": 100, "duration": 209}, {"note": 73, "velocity": 77, "duration": 105}, {"note": 72, "velocity": 69, "duration": 70}, {"note": 70, "velocity": 85, "duration": 87}, {"note": 72, "velocity": 103, "duration": 175}, {"note": 0, "velocity": 0, "duration": 65}, {"note": 72, "velocity": 103, "duration": 281}, {"note": 0, "velocity": 0, "duration": 199}, {"note": 80, "velocity": 100, "duration": 209}, {"note": 77, "velocity": 100, "duration": 723}, {"note": 0, "velocity": 0, "duration": 117}, {"note": 77, "velocity": 100, "duration": 102}, {"note": 78, "velocity": 98, "duration": 161}, {"note": 0, "velocity": 0, "duration": 79}, {"note": 78, "velocity": 88, "duration": 538}, {"note": 70, "velocity": 100, "duration": 67}, {"note": 77, "velocity": 113, "duration": 35}, {"note": 0, "velocity": 0, "duration": 85}, {"note": 77, "velocity": 106, "duration": 300}, {"note": 75, "velocity": 106, "duration": 417}, {"note": 0, "velocity": 0, "duration": 63}, {"note": 68, "velocity": 98, "duration": 115}, {"note": 77, "velocity": 98, "duration": 190}, {"note": 75, "velocity": 103, "duration": 80}, {"note": 77, "velocity": 91, "duration": 387}, {"note": 68, "velocity": 95, "duration": 91}, {"note": 75, "velocity": 113, "duration": 53}, {"note": 0, "velocity": 0, "duration": 67}, {"note": 75, "velocity": 106, "duration": 319}, {"note": 73, "velocity": 109, "duration": 441}, {"note": 70, "velocity": 91, "duration": 102}, {"note": 72, "velocity": 82, "duration": 92}, {"note": 73, "velocity": 95, "duration": 272}, {"note": 0, "velocity": 0, "duration": 88}, {"note": 73, "velocity": 95, "duration": 332}, {"note": 72, "velocity": 85, "duration": 96}, {"note": 70, "velocity": 75, "duration": 76}, {"note": 72, "velocity": 88, "duration": 192}, {"note": 72, "velocity": 88, "duration": 46}, {"note": 0, "velocity": 0, "duration": 74}, {"note": 72, "velocity": 88, "duration": 351}, {"note": 70, "velocity": 106, "duration": 152}, {"note": 0, "velocity": 0, "duration": 88}, {"note": 68, "velocity": 91, "duration": 269}, {"note": 70, "velocity": 88, "duration": 696}, {"note": 0, "velocity": 0, "duration": 504}, {"note": 70, "velocity": 109, "duration": 131}, {"note": 72, "velocity": 98, "duration": 97}, {"note": 73, "velocity": 79, "duration": 235}, {"note": 75, "velocity": 73, "duration": 126}, {"note": 77, "velocity": 103, "duration": 365}, {"note": 70, "velocity": 98, "duration": 503}, {"note": 0, "velocity": 0, "duration": 97}, {"note": 78, "velocity": 100, "duration": 239}, {"note": 77, "velocity": 72, "duration": 91}, {"note": 75, "velocity": 106, "duration": 429}, {"note": 0, "velocity": 0, "duration": 171}, {"note": 75, "velocity": 100, "duration": 44}, {"note": 0, "velocity": 0, "duration": 76}, {"note": 75, "velocity": 98, "duration": 44}, {"note": 0, "velocity": 0, "duration": 76}, {"note": 75, "velocity": 98, "duration": 40}, {"note": 0, "velocity": 0, "duration": 80}, {"note": 75, "velocity": 88, "duration": 71}, {"note": 80, "velocity": 111, "duration": 232}, {"note": 82, "velocity": 103, "duration": 220}, {"note": 77, "velocity": 103, "duration": 196}, {"note": 75, "velocity": 82, "duration": 101}, {"note": 73, "velocity": 106, "duration": 544}, {"note": 73, "velocity": 95, "duration": 340}, {"note": 66, "velocity": 85, "duration": 435}, {"note": 0, "velocity": 0, "duration": 165}, {"note": 75, "velocity": 103, "duration": 193}, {"note": 73, "velocity": 82, "duration": 106}, {"note": 72, "velocity": 85, "duration": 389}, {"note": 70, "velocity": 98, "duration": 85}, {"note": 72, "velocity": 75, "duration": 85}, {"note": 73, "velocity": 100, "duration": 118}, {"note": 0, "velocity": 0, "duration": 122}, {"note": 73, "velocity": 85, "duration": 94}, {"note": 75, "velocity": 106, "duration": 180}, {"note": 73, "velocity": 100, "duration": 53}, {"note": 0, "velocity": 0, "duration": 67}, {"note": 75, "velocity": 98, "duration": 91}, {"note": 77, "velocity": 100, "duration": 455}, {"note": 0, "velocity": 0, "duration": 145}, {"note": 70, "velocity": 106, "duration": 105}, {"note": 72, "velocity": 88, "duration": 85}, {"note": 73, "velocity": 98, "duration": 87}, {"note": 75, "velocity": 64, "duration": 110}, {"note": 77, "velocity": 109, "duration": 348}, {"note": 70, "velocity": 103, "duration": 506}, {"note": 0, "velocity": 0, "duration": 94}, {"note": 78, "velocity": 103, "duration": 196}, {"note": 77, "velocity": 82, "duration": 99}, {"note": 75, "velocity": 106, "duration": 389}, {"note": 0, "velocity": 0, "duration": 211}, {"note": 75, "velocity": 103, "duration": 48}, {"note": 0, "velocity": 0, "duration": 72}, {"note": 75, "velocity": 88, "duration": 50}, {"note": 0, "velocity": 0, "duration": 70}, {"note": 75, "velocity": 100, "duration": 44}, {"note": 0, "velocity": 0, "duration": 76}, {"note": 75, "velocity": 82, "duration": 82}, {"note": 80, "velocity": 106, "duration": 216}, {"note": 82, "velocity": 91, "duration": 104}, {"note": 0, "velocity": 0, "duration": 136}, {"note": 77, "velocity": 100, "duration": 216}, {"note": 75, "velocity": 76, "duration": 101}, {"note": 73, "velocity": 98, "duration": 402}, {"note": 0, "velocity": 0, "duration": 198}, {"note": 73, "velocity": 98, "duration": 466}, {"note": 66, "velocity": 91, "duration": 389}, {"note": 0, "velocity": 0, "duration": 91}, {"note": 72, "velocity": 100, "duration": 182}, {"note": 73, "velocity": 75, "duration": 98}, {"note": 75, "velocity": 100, "duration": 327}, {"note": 73, "velocity": 91, "duration": 250}, {"note": 72, "velocity": 82, "duration": 253}, {"note": 73, "velocity": 79, "duration": 103}, {"note": 0, "velocity": 0, "duration": 107}, {"note": 70, "velocity": 73, "duration": 852}, {"note": 0, "velocity": 0, "duration": 8388}, {"note": 80, "velocity": 91, "duration": 210}, {"note": 77, "velocity": 77, "duration": 115}, {"note": 75, "velocity": 69, "duration": 199}, {"note": 73, "velocity": 82, "duration": 334}, {"note": 81, "velocity": 81, "duration": 209}, {"note": 77, "velocity": 88, "duration": 110}, {"note": 75, "velocity": 88, "duration": 215}, {"note": 73, "velocity": 88, "duration": 326}, {"note": 84, "velocity": 98, "duration": 201}, {"note": 82, "velocity": 71, "duration": 102}, {"note": 84, "velocity": 95, "duration": 202}, {"note": 85, "velocity": 76, "duration": 313}, {"note": 89, "velocity": 72, "duration": 700}, {"note": 85, "velocity": 73, "duration": 234}, {"note": 82, "velocity": 67, "duration": 748}, {"note": 0, "velocity": 0, "duration": 3092}, {"note": 70, "velocity": 82, "duration": 103}, {"note": 72, "velocity": 71, "duration": 111}, {"note": 73, "velocity": 75, "duration": 113}, {"note": 70, "velocity": 71, "duration": 150}, {"note": 72, "velocity": 75, "duration": 138}, {"note": 73, "velocity": 70, "duration": 102}, {"note": 70, "velocity": 68, "duration": 164}, {"note": 72, "velocity": 68, "duration": 100}, {"note": 73, "velocity": 70, "duration": 303}, {"note": 73, "velocity": 79, "duration": 127}, {"note": 75, "velocity": 91, "duration": 91}, {"note": 73, "velocity": 77, "duration": 117}, {"note": 72, "velocity": 60, "duration": 129}, {"note": 70, "velocity": 68, "duration": 129}, {"note": 68, "velocity": 70, "duration": 104}, {"note": 0, "velocity": 0, "duration": 136}, {"note": 68, "velocity": 71, "duration": 36}, {"note": 0, "velocity": 0, "duration": 84}, {"note": 68, "velocity": 75, "duration": 323}, {"note": 70, "velocity": 82, "duration": 87}, {"note": 72, "velocity": 76, "duration": 1000}, {"note": 0, "velocity": 0, "duration": 80}, {"note": 70, "velocity": 88, "duration": 128}, {"note": 72, "velocity": 70, "duration": 128}, {"note": 73, "velocity": 72, "duration": 79}, {"note": 70, "velocity": 66, "duration": 138}, {"note": 72, "velocity": 68, "duration": 134}, {"note": 73, "velocity": 69, "duration": 105}, {"note": 70, "velocity": 63, "duration": 169}, {"note": 72, "velocity": 68, "duration": 102}, {"note": 73, "velocity": 73, "duration": 253}, {"note": 0, "velocity": 0, "duration": 107}, {"note": 73, "velocity": 76, "duration": 82}, {"note": 75, "velocity": 98, "duration": 78}, {"note": 73, "velocity": 91, "duration": 106}, {"note": 72, "velocity": 66, "duration": 84}, {"note": 70, "velocity": 71, "duration": 122}, {"note": 68, "velocity": 70, "duration": 135}, {"note": 0, "velocity": 0, "duration": 105}, {"note": 68, "velocity": 71, "duration": 54}, {"note": 0, "velocity": 0, "duration": 66}, {"note": 68, "velocity": 77, "duration": 374}, {"note": 75, "velocity": 88, "duration": 85}, {"note": 0, "velocity": 0, "duration": 155}, {"note": 77, "velocity": 95, "duration": 537}, {"note": 0, "velocity": 0, "duration": 423}, {"note": 78, "velocity": 91, "duration": 211}, {"note": 77, "velocity": 85, "duration": 94}, {"note": 78, "velocity": 91, "duration": 226}, {"note": 70, "velocity": 106, "duration": 45}, {"note": 0, "velocity": 0, "duration": 75}, {"note": 70, "velocity": 85, "duration": 85}, {"note": 77, "velocity": 109, "duration": 55}, {"note": 0, "velocity": 0, "duration": 65}, {"note": 77, "velocity": 100, "duration": 354}, {"note": 75, "velocity": 75, "duration": 423}, {"note": 0, "velocity": 0, "duration": 177}, {"note": 77, "velocity": 95, "duration": 225}, {"note": 75, "velocity": 85, "duration": 90}, {"note": 77, "velocity": 95, "duration": 254}, {"note": 68, "velocity": 79, "duration": 61}, {"note": 68, "velocity": 85, "duration": 106}, {"note": 75, "velocity": 72, "duration": 50}, {"note": 0, "velocity": 0, "duration": 70}, {"note": 75, "velocity": 111, "duration": 339}, {"note": 73, "velocity": 91, "duration": 375}, {"note": 70, "velocity": 75, "duration": 90}, {"note": 72, "velocity": 72, "duration": 93}, {"note": 73, "velocity": 100, "duration": 169}, {"note": 0, "velocity": 0, "duration": 71}, {"note": 73, "velocity": 98, "duration": 142}, {"note": 0, "velocity": 0, "duration": 98}, {"note": 73, "velocity": 98, "duration": 215}, {"note": 72, "velocity": 71, "duration": 88}, {"note": 70, "velocity": 88, "duration": 83}, {"note": 72, "velocity": 88, "duration": 295}, {"note": 0, "velocity": 0, "duration": 65}, {"note": 72, "velocity": 98, "duration": 284}, {"note": 0, "velocity": 0, "duration": 316}, {"note": 68, "velocity": 70, "duration": 108}, {"note": 0, "velocity": 0, "duration": 132}, {"note": 65, "velocity": 71, "duration": 980}, {"note": 0, "velocity": 0, "duration": 700}, {"note": 70, "velocity": 79, "duration": 145}, {"note": 72, "velocity": 79, "duration": 87}, {"note": 73, "velocity": 75, "duration": 99}, {"note": 70, "velocity": 70, "duration": 143}, {"note": 72, "velocity": 77, "duration": 93}, {"note": 73, "velocity": 76, "duration": 112}, {"note": 70, "velocity": 70, "duration": 139}, {"note": 72, "velocity": 73, "duration": 107}, {"note": 73, "velocity": 82, "duration": 330}, {"note": 73, "velocity": 91, "duration": 68}, {"note": 75, "velocity": 88, "duration": 75}, {"note": 73, "velocity": 85, "duration": 89}, {"note": 72, "velocity": 77, "duration": 97}, {"note": 70, "velocity": 68, "duration": 92}, {"note": 68, "velocity": 82, "duration": 139}, {"note": 0, "velocity": 0, "duration": 101}, {"note": 68, "velocity": 76, "duration": 50}, {"note": 0, "velocity": 0, "duration": 70}, {"note": 68, "velocity": 79, "duration": 336}, {"note": 70, "velocity": 77, "duration": 72}, {"note": 72, "velocity": 75, "duration": 886}, {"note": 0, "velocity": 0, "duration": 194}, {"note": 70, "velocity": 98, "duration": 135}, {"note": 72, "velocity": 73, "duration": 101}, {"note": 73, "velocity": 79, "duration": 90}, {"note": 70, "velocity": 71, "duration": 138}, {"note": 72, "velocity": 77, "duration": 99}, {"note": 73, "velocity": 82, "duration": 105}, {"note": 70, "velocity": 67, "duration": 141}, {"note": 72, "velocity": 79, "duration": 94}, {"note": 73, "velocity": 98, "duration": 388}, {"note": 75, "velocity": 100, "duration": 209}, {"note": 73, "velocity": 77, "duration": 105}, {"note": 72, "velocity": 69, "duration": 70}, {"note": 70, "velocity": 85, "duration": 87}, {"note": 72, "velocity": 103, "duration": 175}, {"note": 0, "velocity": 0, "duration": 65}, {"note": 72, "velocity": 103, "duration": 281}, {"note": 0, "velocity": 0, "duration": 199}, {"note": 80, "velocity": 100, "duration": 209}, {"note": 77, "velocity": 100, "duration": 723}, {"note": 0, "velocity": 0, "duration": 117}, {"note": 77, "velocity": 100, "duration": 102}, {"note": 78, "velocity": 98, "duration": 161}, {"note": 0, "velocity": 0, "duration": 79}, {"note": 78, "velocity": 88, "duration": 538}, {"note": 70, "velocity": 100, "duration": 67}, {"note": 77, "velocity": 113, "duration": 35}, {"note": 0, "velocity": 0, "duration": 85}, {"note": 77, "velocity": 106, "duration": 300}, {"note": 75, "velocity": 106, "duration": 417}, {"note": 0, "velocity": 0, "duration": 63}, {"note": 68, "velocity": 98, "duration": 115}, {"note": 77, "velocity": 98, "duration": 190}, {"note": 75, "velocity": 103, "duration": 80}, {"note": 77, "velocity": 91, "duration": 387}, {"note": 68, "velocity": 95, "duration": 91}, {"note": 75, "velocity": 113, "duration": 53}, {"note": 0, "velocity": 0, "duration": 67}, {"note": 75, "velocity": 106, "duration": 319}, {"note": 73, "velocity": 109, "duration": 441}, {"note": 70, "velocity": 91, "duration": 102}, {"note": 72, "velocity": 82, "duration": 92}, {"note": 73, "velocity": 95, "duration": 272}, {"note": 0, "velocity": 0, "duration": 88}, {"note": 73, "velocity": 95, "duration": 332}, {"note": 72, "velocity": 85, "duration": 96}, {"note": 70, "velocity": 75, "duration": 76}, {"note": 72, "velocity": 88, "duration": 192}, {"note": 72, "velocity": 88, "duration": 46}, {"note": 0, "velocity": 0, "duration": 74}, {"note": 72, "velocity": 88, "duration": 351}, {"note": 70, "velocity": 106, "duration": 152}, {"note": 0, "velocity": 0, "duration": 88}, {"note": 68, "velocity": 91, "duration": 269}, {"note": 70, "velocity": 88, "duration": 696}, {"note": 0, "velocity": 0, "duration": 504}, {"note": 70, "velocity": 109, "duration": 131}, {"note": 72, "velocity": 98, "duration": 97}, {"note": 73, "velocity": 79, "duration": 235}, {"note": 75, "velocity": 73, "duration": 126}, {"note": 77, "velocity": 103, "duration": 365}, {"note": 70, "velocity": 98, "duration": 503}, {"note": 0, "velocity": 0, "duration": 97}, {"note": 78, "velocity": 100, "duration": 239}, {"note": 77, "velocity": 72, "duration": 91}, {"note": 75, "velocity": 106, "duration": 429}, {"note": 0, "velocity": 0, "duration": 171}, {"note": 75, "velocity": 100, "duration": 44}, {"note": 0, "velocity": 0, "duration": 76}, {"note": 75, "velocity": 98, "duration": 44}, {"note": 0, "velocity": 0, "duration": 76}, {"note": 75, "velocity": 98, "duration": 40}, {"note": 0, "velocity": 0, "duration": 80}, {"note": 75, "velocity": 88, "duration": 71}, {"note": 80, "velocity": 111, "duration": 232}, {"note": 82, "velocity": 103, "duration": 220}, {"note": 77, "velocity": 103, "duration": 196}, {"note": 75, "velocity": 82, "duration": 101}, {"note": 73, "velocity": 106, "duration": 544}, {"note": 73, "velocity": 95, "duration": 340}, {"note": 66, "velocity": 85, "duration": 435}, {"note": 0, "velocity": 0, "duration": 165}, {"note": 75, "velocity": 103, "duration": 193}, {"note": 73, "velocity": 82, "duration": 106}, {"note": 72, "velocity": 85, "duration": 389}, {"note": 70, "velocity": 98, "duration": 85}, {"note": 72, "velocity": 75, "duration": 85}, {"note": 73, "velocity": 100, "duration": 118}, {"note": 0, "velocity": 0, "duration": 122}, {"note": 73, "velocity": 85, "duration": 94}, {"note": 75, "velocity": 106, "duration": 180}, {"note": 73, "velocity": 100, "duration": 53}, {"note": 0, "velocity": 0, "duration": 67}, {"note": 75, "velocity": 98, "duration": 91}, {"note": 77, "velocity": 100, "duration": 455}, {"note": 0, "velocity": 0, "duration": 145}, {"note": 70, "velocity": 106, "duration": 105}, {"note": 72, "velocity": 88, "duration": 85}, {"note": 73, "velocity": 98, "duration": 87}, {"note": 75, "velocity": 64, "duration": 110}, {"note": 77, "velocity": 109, "duration": 348}, {"note": 70, "velocity": 103, "duration": 506}, {"note": 0, "velocity": 0, "duration": 94}, {"note": 78, "velocity": 103, "duration": 196}, {"note": 77, "velocity": 82, "duration": 99}, {"note": 75, "velocity": 106, "duration": 389}, {"note": 0, "velocity": 0, "duration": 211}, {"note": 75, "velocity": 103, "duration": 48}, {"note": 0, "velocity": 0, "duration": 72}, {"note": 75, "velocity": 88, "duration": 50}, {"note": 0, "velocity": 0, "duration": 70}, {"note": 75, "velocity": 100, "duration": 44}, {"note": 0, "velocity": 0, "duration": 76}, {"note": 75, "velocity": 82, "duration": 82}, {"note": 80, "velocity": 106, "duration": 216}, {"note": 82, "velocity": 91, "duration": 104}, {"note": 0, "velocity": 0, "duration": 136}, {"note": 77, "velocity": 100, "duration": 216}, {"note": 75, "velocity": 76, "duration": 101}, {"note": 73, "velocity": 98, "duration": 402}, {"note": 0, "velocity": 0, "duration": 198}, {"note": 73, "velocity": 98, "duration": 466}, {"note": 66, "velocity": 91, "duration": 389}, {"note": 0, "velocity": 0, "duration": 91}, {"note": 72, "velocity": 100, "duration": 182}, {"note": 73, "velocity": 75, "duration": 98}, {"note": 75, "velocity": 100, "duration": 327}, {"note": 73, "velocity": 91, "duration": 250}, {"note": 72, "velocity": 82, "duration": 253}, {"note": 73, "velocity": 79, "duration": 103}, {"note": 0, "velocity": 0, "duration": 107}, {"note": 70, "velocity": 73, "duration": 852}, {"note": 0, "velocity": 0, "duration": 228}, {"note": 70, "velocity": 109, "duration": 131}, {"note": 72, "velocity": 98, "duration": 97}, {"note": 73, "velocity": 79, "duration": 235}, {"note": 75, "velocity": 73, "duration": 126}, {"note": 77, "velocity": 103, "duration": 365}, {"note": 70, "velocity": 98, "duration": 503}, {"note": 0, "velocity": 0, "duration": 97}, {"note": 78, "velocity": 100, "duration": 239}, {"note": 77, "velocity": 72, "duration": 91}, {"note": 75, "velocity": 106, "duration": 429}, {"note": 0, "velocity": 0, "duration": 171}, {"note": 75, "velocity": 100, "duration": 44}, {"note": 0, "velocity": 0, "duration": 76}, {"note": 75, "velocity": 98, "duration": 44}, {"note": 0, "velocity": 0, "duration": 76}, {"note": 75, "velocity": 98, "duration": 40}, {"note": 0, "velocity": 0, "duration": 80}, {"note": 75, "velocity": 88, "duration": 71}, {"note": 80, "velocity": 111, "duration": 232}, {"note": 82, "velocity": 103, "duration": 220}, {"note": 77, "velocity": 103, "duration": 196}, {"note": 75, "velocity": 82, "duration": 101}, {"note": 73, "velocity": 106, "duration": 544}, {"note": 73, "velocity": 95, "duration": 340}, {"note": 66, "velocity": 85, "duration": 435}, {"note": 0, "velocity": 0, "duration": 165}, {"note": 75, "velocity": 103, "duration": 193}, {"note": 73, "velocity": 82, "duration": 106}, {"note": 72, "velocity": 85, "duration": 389}, {"note": 70, "velocity": 98, "duration": 85}, {"note": 72, "velocity": 75, "duration": 85}, {"note": 73, "velocity": 100, "duration": 118}, {"note": 0, "velocity": 0, "duration": 122}, {"note": 73, "velocity": 85, "duration": 94}, {"note": 75, "velocity": 106, "duration": 180}, {"note": 73, "velocity": 100, "duration": 53}, {"note": 0, "velocity": 0, "duration": 67}, {"note": 75, "velocity": 98, "duration": 91}, {"note": 77, "velocity": 100, "duration": 455}, {"note": 0, "velocity": 0, "duration": 145}, {"note": 70, "velocity": 106, "duration": 105}, {"note": 72, "velocity": 88, "duration": 85}, {"note": 73, "velocity": 98, "duration": 87}, {"note": 75, "velocity": 64, "duration": 110}, {"note": 77, "velocity": 109, "duration": 348}, {"note": 70, "velocity": 103, "duration": 506}, {"note": 0, "velocity": 0, "duration": 94}, {"note": 78, "velocity": 103, "duration": 196}, {"note": 77, "velocity": 82, "duration": 99}, {"note": 75, "velocity": 106, "duration": 389}, {"note": 0, "velocity": 0, "duration": 211}, {"note": 75, "velocity": 103, "duration": 48}, {"note": 0, "velocity": 0, "duration": 72}, {"note": 75, "velocity": 88, "duration": 50}, {"note": 0, "velocity": 0, "duration": 70}, {"note": 75, "velocity": 100, "duration": 44}, {"note": 0, "velocity": 0, "duration": 76}, {"note": 75, "velocity": 82, "duration": 82}, {"note": 80, "velocity": 106, "duration": 216}, {"note": 82, "velocity": 91, "duration": 104}, {"note": 0, "velocity": 0, "duration": 136}, {"note": 77, "velocity": 100, "duration": 216}, {"note": 75, "velocity": 76, "duration": 101}, {"note": 73, "velocity": 98, "duration": 402}, {"note": 0, "velocity": 0, "duration": 198}, {"note": 73, "velocity": 98, "duration": 466}, {"note": 66, "velocity": 91, "duration": 389}, {"note": 0, "velocity": 0, "duration": 91}, {"note": 72, "velocity": 100, "duration": 182}, {"note": 73, "velocity": 75, "duration": 98}, {"note": 75, "velocity": 100, "duration": 327}, {"note": 73, "velocity": 91, "duration": 250}, {"note": 72, "velocity": 82, "duration": 253}, {"note": 73, "velocity": 79, "duration": 103}, {"note": 0, "velocity": 0, "duration": 107}, {"note": 70, "velocity": 73, "duration": 852}]]