[[{"note": 62, "velocity": 79, "duration": 201}, {"note": 64, "velocity": 88, "duration": 204}, {"note": 67, "velocity": 88, "duration": 358}, {"note": 0, "velocity": 0, "duration": 242}, {"note": 69, "velocity": 95, "duration": 223}, {"note": 71, "velocity": 76, "duration": 130}, {"note": 64, "velocity": 75, "duration": 925}, {"note": 62, "velocity": 69, "duration": 196}, {"note": 64, "velocity": 77, "duration": 85}, {"note": 0, "velocity": 0, "duration": 155}, {"note": 67, "velocity": 95, "duration": 55}, {"note": 0, "velocity": 0, "duration": 65}, {"note": 67, "velocity": 100, "duration": 132}, {"note": 0, "velocity": 0, "duration": 108}, {"note": 67, "velocity": 98, "duration": 44}, {"note": 0, "velocity": 0, "duration": 76}, {"note": 67, "velocity": 95, "duration": 195}, {"note": 64, "velocity": 79, "duration": 212}, {"note": 62, "velocity": 91, "duration": 334}, {"note": 0, "velocity": 0, "duration": 266}, {"note": 62, "velocity": 91, "duration": 227}, {"note": 64, "velocity": 79, "duration": 107}, {"note": 67, "velocity": 79, "duration": 488}, {"note": 0, "velocity": 0, "duration": 112}, {"note": 69, "velocity": 98, "duration": 200}, {"note": 71, "velocity": 73, "duration": 118}, {"note": 64, "velocity": 71, "duration": 556}, {"note": 62, "velocity": 68, "duration": 211}, {"note": 64, "velocity": 91, "duration": 108}, {"note": 0, "velocity": 0, "duration": 132}, {"note": 71, "velocity": 91, "duration": 215}, {"note": 69, "velocity": 77, "duration": 352}, {"note": 67, "velocity": 77, "duration": 209}, {"note": 64, "velocity": 91, "duration": 113}, {"note": 69, "velocity": 100, "duration": 528}, {"note": 0, "velocity": 0, "duration": 72}, {"note": 69, "velocity": 109, "duration": 196}, {"note": 71, "velocity": 100, "duration": 209}, {"note": 74, "velocity": 111, "duration": 218}, {"note": 71, "velocity": 100, "duration": 218}, {"note": 69, "velocity": 100, "duration": 203}, {"note": 67, "velocity": 98, "duration": 236}, {"note": 64, "velocity": 109, "duration": 499}, {"note": 62, "velocity": 106, "duration": 179}, {"note": 0, "velocity": 0, "duration": 61}, {"note": 64, "velocity": 82, "duration": 125}, {"note": 0, "velocity": 0, "duration": 115}, {"note": 67, "velocity": 106, "duration": 130}, {"note": 0, "velocity": 0, "duration": 110}, {"note": 67, "velocity": 88, "duration": 113}, {"note": 0, "velocity": 0, "duration": 127}, {"note": 67, "velocity": 106, "duration": 212}, {"note": 64, "velocity": 100, "duration": 119}, {"note": 69, "velocity": 113, "duration": 500}, {"note": 0, "velocity": 0, "duration": 100}, {"note": 69, "velocity": 106, "duration": 290}, {"note": 71, "velocity": 109, "duration": 216}, {"note": 74, "velocity": 111, "duration": 206}, {"note": 71, "velocity": 106, "duration": 214}, {"note": 69, "velocity": 103, "duration": 200}, {"note": 67, "velocity": 109, "duration": 247}, {"note": 64, "velocity": 111, "duration": 338}, {"note": 0, "velocity": 0, "duration": 262}, {"note": 62, "velocity": 109, "duration": 166}, {"note": 0, "velocity": 0, "duration": 74}, {"note": 64, "velocity": 95, "duration": 203}, {"note": 67, "velocity": 109, "duration": 170}, {"note": 0, "velocity": 0, "duration": 70}, {"note": 67, "velocity": 115, "duration": 352}, {"note": 0, "velocity": 0, "duration": 128}, {"note": 76, "velocity": 113, "duration": 179}, {"note": 0, "velocity": 0, "duration": 61}, {"note": 74, "velocity": 111, "duration": 909}, {"note": 0, "velocity": 0, "duration": 531}, {"note": 71, "velocity": 111, "duration": 202}, {"note": 74, "velocity": 91, "duration": 181}, {"note": 76, "velocity": 109, "duration": 122}, {"note": 0, "velocity": 0, "duration": 118}, {"note": 76, "velocity": 106, "duration": 42}, {"note": 0, "velocity": 0, "duration": 78}, {"note": 76, "velocity": 103, "duration": 43}, {"note": 0, "velocity": 0, "duration": 77}, {"note": 76, "velocity": 113, "duration": 180}, {"note": 74, "velocity": 109, "duration": 171}, {"note": 0, "velocity": 0, "duration": 69}, {"note": 74, "velocity": 111, "duration": 227}, {"note": 0, "velocity": 0, "duration": 253}, {"note": 71, "velocity": 113, "duration": 198}, {"note": 69, "velocity": 106, "duration": 180}, {"note": 71, "velocity": 113, "duration": 204}, {"note": 74, "velocity": 103, "duration": 214}, {"note": 69, "velocity": 109, "duration": 207}, {"note": 67, "velocity": 109, "duration": 227}, {"note": 64, "velocity": 111, "duration": 587}, {"note": 71, "velocity": 103, "duration": 180}, {"note": 74, "velocity": 98, "duration": 177}, {"note": 0, "velocity": 0, "duration": 63}, {"note": 76, "velocity": 113, "duration": 133}, {"note": 0, "velocity": 0, "duration": 107}, {"note": 76, "velocity": 109, "duration": 130}, {"note": 0, "velocity": 0, "duration": 110}, {"note": 76, "velocity": 109, "duration": 216}, {"note": 74, "velocity": 98, "duration": 68}, {"note": 76, "velocity": 109, "duration": 315}, {"note": 74, "velocity": 103, "duration": 223}, {"note": 71, "velocity": 103, "duration": 91}, {"note": 69, "velocity": 100, "duration": 325}, {"note": 71, "velocity": 109, "duration": 1078}, {"note": 0, "velocity": 0, "duration": 482}, {"note": 71, "velocity": 111, "duration": 185}, {"note": 74, "velocity": 100, "duration": 151}, {"note": 0, "velocity": 0, "duration": 89}, {"note": 76, "velocity": 117, "duration": 112}, {"note": 0, "velocity": 0, "duration": 128}, {"note": 76, "velocity": 103, "duration": 42}, {"note": 0, "velocity": 0, "duration": 78}, {"note": 76, "velocity": 106, "duration": 42}, {"note": 0, "velocity": 0, "duration": 78}, {"note": 76, "velocity": 115, "duration": 143}, {"note": 0, "velocity": 0, "duration": 97}, {"note": 74, "velocity": 109, "duration": 136}, {"note": 0, "velocity": 0, "duration": 104}, {"note": 74, "velocity": 111, "duration": 335}, {"note": 0, "velocity": 0, "duration": 145}, {"note": 71, "velocity": 103, "duration": 218}, {"note": 69, "velocity": 98, "duration": 185}, {"note": 71, "velocity": 111, "duration": 215}, {"note": 74, "velocity": 98, "duration": 189}, {"note": 69, "velocity": 109, "duration": 218}, {"note": 67, "velocity": 103, "duration": 200}, {"note": 64, "velocity": 100, "duration": 637}, {"note": 62, "velocity": 103, "duration": 140}, {"note": 0, "velocity": 0, "duration": 83}, {"note": 64, "velocity": 91, "duration": 79}, {"note": 67, "velocity": 100, "duration": 289}, {"note": 0, "velocity": 0, "duration": 71}, {"note": 67, "velocity": 95, "duration": 135}, {"note": 0, "velocity": 0, "duration": 105}, {"note": 67, "velocity": 88, "duration": 190}, {"note": 71, "velocity": 91, "duration": 154}, {"note": 0, "velocity": 0, "duration": 206}, {"note": 69, "velocity": 100, "duration": 41}, {"note": 0, "velocity": 0, "duration": 79}, {"note": 69, "velocity": 95, "duration": 147}, {"note": 0, "velocity": 0, "duration": 93}, {"note": 69, "velocity": 95, "duration": 66}, {"note": 67, "velocity": 100, "duration": 208}, {"note": 64, "velocity": 91, "duration": 225}, {"note": 67, "velocity": 113, "duration": 1395}, {"note": 0, "velocity": 0, "duration": 13605}, {"note": 62, "velocity": 115, "duration": 197}, {"note": 64, "velocity": 111, "duration": 188}, {"note": 67, "velocity": 103, "duration": 347}, {"note": 0, "velocity": 0, "duration": 133}, {"note": 69, "velocity": 111, "duration": 215}, {"note": 71, "velocity": 109, "duration": 106}, {"note": 64, "velocity": 111, "duration": 511}, {"note": 0, "velocity": 0, "duration": 89}, {"note": 62, "velocity": 103, "duration": 182}, {"note": 64, "velocity": 98, "duration": 139}, {"note": 0, "velocity": 0, "duration": 101}, {"note": 67, "velocity": 109, "duration": 158}, {"note": 0, "velocity": 0, "duration": 82}, {"note": 67, "velocity": 106, "duration": 135}, {"note": 0, "velocity": 0, "duration": 105}, {"note": 67, "velocity": 103, "duration": 169}, {"note": 0, "velocity": 0, "duration": 71}, {"note": 64, "velocity": 100, "duration": 98}, {"note": 62, "velocity": 106, "duration": 698}, {"note": 62, "velocity": 106, "duration": 98}, {"note": 0, "velocity": 0, "duration": 142}, {"note": 64, "velocity": 88, "duration": 199}, {"note": 67, "velocity": 100, "duration": 137}, {"note": 0, "velocity": 0, "duration": 103}, {"note": 67, "velocity": 95, "duration": 110}, {"note": 0, "velocity": 0, "duration": 130}, {"note": 69, "velocity": 106, "duration": 104}, {"note": 71, "velocity": 98, "duration": 426}, {"note": 64, "velocity": 106, "duration": 445}, {"note": 0, "velocity": 0, "duration": 155}, {"note": 62, "velocity": 98, "duration": 52}, {"note": 0, "velocity": 0, "duration": 68}, {"note": 62, "velocity": 106, "duration": 174}, {"note": 0, "velocity": 0, "duration": 66}, {"note": 64, "velocity": 85, "duration": 84}, {"note": 67, "velocity": 106, "duration": 107}, {"note": 0, "velocity": 0, "duration": 133}, {"note": 67, "velocity": 100, "duration": 69}, {"note": 0, "velocity": 0, "duration": 171}, {"note": 67, "velocity": 113, "duration": 125}, {"note": 64, "velocity": 106, "duration": 145}, {"note": 0, "velocity": 0, "duration": 95}, {"note": 69, "velocity": 113, "duration": 265}, {"note": 0, "velocity": 0, "duration": 335}, {"note": 69, "velocity": 113, "duration": 160}, {"note": 0, "velocity": 0, "duration": 80}, {"note": 71, "velocity": 98, "duration": 185}, {"note": 74, "velocity": 109, "duration": 206}, {"note": 71, "velocity": 91, "duration": 219}, {"note": 69, "velocity": 113, "duration": 85}, {"note": 67, "velocity": 111, "duration": 327}, {"note": 64, "velocity": 115, "duration": 229}, {"note": 0, "velocity": 0, "duration": 371}, {"note": 62, "velocity": 103, "duration": 185}, {"note": 64, "velocity": 98, "duration": 100}, {"note": 0, "velocity": 0, "duration": 140}, {"note": 67, "velocity": 103, "duration": 95}, {"note": 0, "velocity": 0, "duration": 145}, {"note": 67, "velocity": 103, "duration": 63}, {"note": 0, "velocity": 0, "duration": 177}, {"note": 67, "velocity": 111, "duration": 102}, {"note": 64, "velocity": 106, "duration": 194}, {"note": 69, "velocity": 115, "duration": 507}, {"note": 0, "velocity": 0, "duration": 93}, {"note": 69, "velocity": 115, "duration": 176}, {"note": 0, "velocity": 0, "duration": 64}, {"note": 71, "velocity": 103, "duration": 218}, {"note": 74, "velocity": 115, "duration": 199}, {"note": 71, "velocity": 109, "duration": 228}, {"note": 69, "velocity": 113, "duration": 84}, {"note": 67, "velocity": 111, "duration": 225}, {"note": 64, "velocity": 113, "duration": 420}, {"note": 0, "velocity": 0, "duration": 180}, {"note": 62, "velocity": 113, "duration": 133}, {"note": 64, "velocity": 115, "duration": 113}, {"note": 0, "velocity": 0, "duration": 127}, {"note": 64, "velocity": 111, "duration": 87}, {"note": 67, "velocity": 115, "duration": 100}, {"note": 0, "velocity": 0, "duration": 140}, {"note": 67, "velocity": 111, "duration": 115}, {"note": 0, "velocity": 0, "duration": 125}, {"note": 67, "velocity": 111, "duration": 106}, {"note": 76, "velocity": 117, "duration": 242}, {"note": 74, "velocity": 120, "duration": 1259}, {"note": 0, "velocity": 0, "duration": 301}, {"note": 71, "velocity": 117, "duration": 201}, {"note": 74, "velocity": 111, "duration": 170}, {"note": 0, "velocity": 0, "duration": 70}, {"note": 76, "velocity": 120, "duration": 142}, {"note": 0, "velocity": 0, "duration": 98}, {"note": 76, "velocity": 113, "duration": 43}, {"note": 0, "velocity": 0, "duration": 77}, {"note": 76, "velocity": 115, "duration": 42}, {"note": 0, "velocity": 0, "duration": 78}, {"note": 76, "velocity": 117, "duration": 176}, {"note": 0, "velocity": 0, "duration": 64}, {"note": 74, "velocity": 120, "duration": 151}, {"note": 0, "velocity": 0, "duration": 89}, {"note": 74, "velocity": 120, "duration": 417}, {"note": 0, "velocity": 0, "duration": 63}, {"note": 71, "velocity": 115, "duration": 218}, {"note": 69, "velocity": 106, "duration": 175}, {"note": 0, "velocity": 0, "duration": 65}, {"note": 71, "velocity": 117, "duration": 209}, {"note": 74, "velocity": 106, "duration": 186}, {"note": 69, "velocity": 111, "duration": 211}, {"note": 67, "velocity": 111, "duration": 224}, {"note": 64, "velocity": 113, "duration": 397}, {"note": 0, "velocity": 0, "duration": 83}, {"note": 71, "velocity": 117, "duration": 161}, {"note": 0, "velocity": 0, "duration": 79}, {"note": 74, "velocity": 111, "duration": 53}, {"note": 0, "velocity": 0, "duration": 67}, {"note": 76, "velocity": 120, "duration": 306}, {"note": 76, "velocity": 111, "duration": 132}, {"note": 0, "velocity": 0, "duration": 108}, {"note": 76, "velocity": 115, "duration": 177}, {"note": 0, "velocity": 0, "duration": 63}, {"note": 74, "velocity": 106, "duration": 49}, {"note": 0, "velocity": 0, "duration": 71}, {"note": 76, "velocity": 123, "duration": 318}, {"note": 74, "velocity": 111, "duration": 224}, {"note": 71, "velocity": 115, "duration": 80}, {"note": 69, "velocity": 115, "duration": 306}, {"note": 71, "velocity": 117, "duration": 1375}, {"note": 0, "velocity": 0, "duration": 185}, {"note": 71, "velocity": 113, "duration": 194}, {"note": 74, "velocity": 109, "duration": 147}, {"note": 0, "velocity": 0, "duration": 93}, {"note": 76, "velocity": 120, "duration": 122}, {"note": 0, "velocity": 0, "duration": 118}, {"note": 76, "velocity": 111, "duration": 45}, {"note": 0, "velocity": 0, "duration": 75}, {"note": 76, "velocity": 115, "duration": 45}, {"note": 0, "velocity": 0, "duration": 75}, {"note": 76, "velocity": 120, "duration": 165}, {"note": 0, "velocity": 0, "duration": 75}, {"note": 74, "velocity": 115, "duration": 131}, {"note": 0, "velocity": 0, "duration": 109}, {"note": 74, "velocity": 115, "duration": 301}, {"note": 0, "velocity": 0, "duration": 179}, {"note": 71, "velocity": 117, "duration": 206}, {"note": 69, "velocity": 109, "duration": 171}, {"note": 0, "velocity": 0, "duration": 69}, {"note": 71, "velocity": 115, "duration": 215}, {"note": 74, "velocity": 103, "duration": 254}, {"note": 69, "velocity": 115, "duration": 206}, {"note": 67, "velocity": 111, "duration": 156}, {"note": 0, "velocity": 0, "duration": 84}, {"note": 64, "velocity": 111, "duration": 175}, {"note": 0, "velocity": 0, "duration": 305}, {"note": 62, "velocity": 106, "duration": 212}, {"note": 64, "velocity": 109, "duration": 81}, {"note": 67, "velocity": 113, "duration": 260}, {"note": 0, "velocity": 0, "duration": 100}, {"note": 67, "velocity": 109, "duration": 159}, {"note": 0, "velocity": 0, "duration": 81}, {"note": 67, "velocity": 111, "duration": 84}, {"note": 71, "velocity": 111, "duration": 264}, {"note": 0, "velocity": 0, "duration": 96}, {"note": 69, "velocity": 115, "duration": 45}, {"note": 0, "velocity": 0, "duration": 75}, {"note": 69, "velocity": 113, "duration": 186}, {"note": 69, "velocity": 111, "duration": 109}, {"note": 67, "velocity": 115, "duration": 206}, {"note": 64, "velocity": 111, "duration": 79}, {"note": 67, "velocity": 111, "duration": 1076}, {"note": 0, "velocity": 0, "duration": 484}, {"note": 71, "velocity": 115, "duration": 202}, {"note": 74, "velocity": 106, "duration": 175}, {"note": 0, "velocity": 0, "duration": 65}, {"note": 76, "velocity": 117, "duration": 133}, {"note": 0, "velocity": 0, "duration": 107}, {"note": 76, "velocity": 113, "duration": 43}, {"note": 0, "velocity": 0, "duration": 77}, {"note": 76, "velocity": 113, "duration": 44}, {"note": 0, "velocity": 0, "duration": 76}, {"note": 76, "velocity": 117, "duration": 228}, {"note": 79, "velocity": 115, "duration": 195}, {"note": 74, "velocity": 117, "duration": 372}, {"note": 0, "velocity": 0, "duration": 108}, {"note": 71, "velocity": 115, "duration": 198}, {"note": 69, "velocity": 106, "duration": 171}, {"note": 0, "velocity": 0, "duration": 69}, {"note": 71, "velocity": 115, "duration": 226}, {"note": 74, "velocity": 106, "duration": 206}, {"note": 69, "velocity": 115, "duration": 219}, {"note": 67, "velocity": 117, "duration": 231}, {"note": 64, "velocity": 117, "duration": 538}, {"note": 71, "velocity": 111, "duration": 221}, {"note": 74, "velocity": 103, "duration": 62}, {"note": 76, "velocity": 117, "duration": 263}, {"note": 0, "velocity": 0, "duration": 97}, {"note": 76, "velocity": 109, "duration": 117}, {"note": 0, "velocity": 0, "duration": 123}, {"note": 76, "velocity": 113, "duration": 164}, {"note": 0, "velocity": 0, "duration": 76}, {"note": 74, "velocity": 113, "duration": 50}, {"note": 0, "velocity": 0, "duration": 70}, {"note": 76, "velocity": 123, "duration": 302}, {"note": 79, "velocity": 103, "duration": 212}, {"note": 71, "velocity": 98, "duration": 193}, {"note": 69, "velocity": 100, "duration": 216}, {"note": 71, "velocity": 117, "duration": 776}, {"note": 0, "velocity": 0, "duration": 664}, {"note": 79, "velocity": 109, "duration": 187}, {"note": 78, "velocity": 100, "duration": 215}, {"note": 76, "velocity": 117, "duration": 96}, {"note": 0, "velocity": 0, "duration": 144}, {"note": 74, "velocity": 69, "duration": 30}, {"note": 76, "velocity": 79, "duration": 38}, {"note": 0, "velocity": 0, "duration": 82}, {"note": 76, "velocity": 111, "duration": 45}, {"note": 0, "velocity": 0, "duration": 75}, {"note": 76, "velocity": 113, "duration": 174}, {"note": 0, "velocity": 0, "duration": 66}, {"note": 74, "velocity": 115, "duration": 151}, {"note": 0, "velocity": 0, "duration": 89}, {"note": 74, "velocity": 115, "duration": 376}, {"note": 0, "velocity": 0, "duration": 104}, {"note": 71, "velocity": 115, "duration": 190}, {"note": 69, "velocity": 109, "duration": 186}, {"note": 71, "velocity": 117, "duration": 216}, {"note": 74, "velocity": 106, "duration": 200}, {"note": 69, "velocity": 113, "duration": 198}, {"note": 67, "velocity": 111, "duration": 231}, {"note": 64, "velocity": 113, "duration": 609}, {"note": 62, "velocity": 88, "duration": 197}, {"note": 64, "velocity": 95, "duration": 217}, {"note": 67, "velocity": 100, "duration": 166}, {"note": 0, "velocity": 0, "duration": 194}, {"note": 67, "velocity": 103, "duration": 86}, {"note": 0, "velocity": 0, "duration": 154}, {"note": 67, "velocity": 117, "duration": 94}, {"note": 71, "velocity": 111, "duration": 231}, {"note": 0, "velocity": 0, "duration": 129}, {"note": 69, "velocity": 106, "duration": 57}, {"note": 0, "velocity": 0, "duration": 63}, {"note": 69, "velocity": 113, "duration": 122}, {"note": 0, "velocity": 0, "duration": 118}, {"note": 69, "velocity": 109, "duration": 204}, {"note": 67, "velocity": 72, "duration": 210}, {"note": 64, "velocity": 117, "duration": 102}, {"note": 67, "velocity": 120, "duration": 835}]]