[[{"note": 61, "velocity": 92, "duration": 256}, {"note": 63, "velocity": 92, "duration": 195}, {"note": 65, "velocity": 90, "duration": 490}, {"note": 0, "velocity": 0, "duration": 230}, {"note": 68, "velocity": 90, "duration": 176}, {"note": 0, "velocity": 0, "duration": 64}, {"note": 65, "velocity": 90, "duration": 210}, {"note": 63, "velocity": 90, "duration": 169}, {"note": 0, "velocity": 0, "duration": 71}, {"note": 61, "velocity": 90, "duration": 221}, {"note": 56, "velocity": 90, "duration": 281}, {"note": 58, "velocity": 90, "duration": 1006}, {"note": 0, "velocity": 0, "duration": 434}, {"note": 61, "velocity": 90, "duration": 271}, {"note": 63, "velocity": 90, "duration": 206}, {"note": 65, "velocity": 90, "duration": 460}, {"note": 65, "velocity": 90, "duration": 246}, {"note": 68, "velocity": 90, "duration": 175}, {"note": 0, "velocity": 0, "duration": 65}, {"note": 65, "velocity": 90, "duration": 138}, {"note": 0, "velocity": 0, "duration": 102}, {"note": 63, "velocity": 90, "duration": 109}, {"note": 0, "velocity": 0, "duration": 131}, {"note": 63, "velocity": 90, "duration": 132}, {"note": 0, "velocity": 0, "duration": 108}, {"note": 61, "velocity": 90, "duration": 217}, {"note": 63, "velocity": 90, "duration": 732}, {"note": 0, "velocity": 0, "duration": 708}, {"note": 65, "velocity": 90, "duration": 219}, {"note": 63, "velocity": 90, "duration": 263}, {"note": 61, "velocity": 90, "duration": 450}, {"note": 63, "velocity": 90, "duration": 260}, {"note": 61, "velocity": 90, "duration": 228}, {"note": 58, "velocity": 90, "duration": 358}, {"note": 0, "velocity": 0, "duration": 122}, {"note": 58, "velocity": 90, "duration": 235}, {"note": 56, "velocity": 90, "duration": 238}, {"note": 65, "velocity": 90, "duration": 247}, {"note": 68, "velocity": 90, "duration": 230}, {"note": 70, "velocity": 90, "duration": 241}, {"note": 68, "velocity": 90, "duration": 254}, {"note": 65, "velocity": 90, "duration": 256}, {"note": 0, "velocity": 0, "duration": 224}, {"note": 58, "velocity": 90, "duration": 251}, {"note": 65, "velocity": 90, "duration": 264}, {"note": 63, "velocity": 90, "duration": 318}, {"note": 0, "velocity": 0, "duration": 162}, {"note": 63, "velocity": 90, "duration": 218}, {"note": 61, "velocity": 90, "duration": 246}, {"note": 58, "velocity": 90, "duration": 401}, {"note": 0, "velocity": 0, "duration": 79}, {"note": 61, "velocity": 90, "duration": 185}, {"note": 65, "velocity": 90, "duration": 246}, {"note": 63, "velocity": 90, "duration": 989}, {"note": 0, "velocity": 0, "duration": 451}, {"note": 61, "velocity": 90, "duration": 238}, {"note": 63, "velocity": 90, "duration": 238}, {"note": 65, "velocity": 90, "duration": 365}, {"note": 0, "velocity": 0, "duration": 115}, {"note": 65, "velocity": 90, "duration": 228}, {"note": 68, "velocity": 90, "duration": 170}, {"note": 0, "velocity": 0, "duration": 70}, {"note": 65, "velocity": 90, "duration": 243}, {"note": 63, "velocity": 90, "duration": 260}, {"note": 61, "velocity": 90, "duration": 238}, {"note": 56, "velocity": 90, "duration": 246}, {"note": 58, "velocity": 90, "duration": 873}, {"note": 0, "velocity": 0, "duration": 567}, {"note": 61, "velocity": 90, "duration": 238}, {"note": 63, "velocity": 90, "duration": 221}, {"note": 65, "velocity": 90, "duration": 277}, {"note": 0, "velocity": 0, "duration": 203}, {"note": 65, "velocity": 90, "duration": 235}, {"note": 68, "velocity": 90, "duration": 216}, {"note": 65, "velocity": 90, "duration": 237}, {"note": 63, "velocity": 90, "duration": 238}, {"note": 63, "velocity": 90, "duration": 227}, {"note": 61, "velocity": 90, "duration": 267}, {"note": 63, "velocity": 90, "duration": 947}, {"note": 0, "velocity": 0, "duration": 493}, {"note": 63, "velocity": 90, "duration": 186}, {"note": 65, "velocity": 90, "duration": 224}, {"note": 61, "velocity": 90, "duration": 358}, {"note": 0, "velocity": 0, "duration": 122}, {"note": 63, "velocity": 90, "duration": 253}, {"note": 61, "velocity": 90, "duration": 238}, {"note": 58, "velocity": 90, "duration": 280}, {"note": 0, "velocity": 0, "duration": 200}, {"note": 58, "velocity": 90, "duration": 206}, {"note": 56, "velocity": 90, "duration": 238}, {"note": 65, "velocity": 90, "duration": 229}, {"note": 68, "velocity": 90, "duration": 208}, {"note": 70, "velocity": 90, "duration": 231}, {"note": 68, "velocity": 90, "duration": 225}, {"note": 65, "velocity": 90, "duration": 385}, {"note": 0, "velocity": 0, "duration": 95}, {"note": 58, "velocity": 90, "duration": 307}, {"note": 65, "velocity": 90, "duration": 282}, {"note": 63, "velocity": 90, "duration": 358}, {"note": 0, "velocity": 0, "duration": 122}, {"note": 63, "velocity": 90, "duration": 246}, {"note": 61, "velocity": 90, "duration": 254}, {"note": 58, "velocity": 90, "duration": 118}, {"note": 0, "velocity": 0, "duration": 122}, {"note": 58, "velocity": 90, "duration": 238}, {"note": 56, "velocity": 90, "duration": 228}, {"note": 58, "velocity": 90, "duration": 210}, {"note": 61, "velocity": 90, "duration": 949}, {"note": 0, "velocity": 0, "duration": 491}, {"note": 65, "velocity": 90, "duration": 253}, {"note": 68, "velocity": 90, "duration": 252}, {"note": 70, "velocity": 90, "duration": 131}, {"note": 0, "velocity": 0, "duration": 109}, {"note": 70, "velocity": 90, "duration": 149}, {"note": 0, "velocity": 0, "duration": 91}, {"note": 70, "velocity": 90, "duration": 172}, {"note": 0, "velocity": 0, "duration": 68}, {"note": 68, "velocity": 90, "duration": 193}, {"note": 70, "velocity": 90, "duration": 305}, {"note": 0, "velocity": 0, "duration": 175}, {"note": 70, "velocity": 90, "duration": 231}, {"note": 65, "velocity": 90, "duration": 212}, {"note": 68, "velocity": 90, "duration": 145}, {"note": 0, "velocity": 0, "duration": 95}, {"note": 68, "velocity": 90, "duration": 197}, {"note": 70, "velocity": 90, "duration": 220}, {"note": 68, "velocity": 90, "duration": 245}, {"note": 65, "velocity": 90, "duration": 500}, {"note": 65, "velocity": 90, "duration": 20}, {"note": 0, "velocity": 0, "duration": 220}, {"note": 68, "velocity": 90, "duration": 252}, {"note": 70, "velocity": 90, "duration": 131}, {"note": 0, "velocity": 0, "duration": 109}, {"note": 70, "velocity": 90, "duration": 149}, {"note": 0, "velocity": 0, "duration": 91}, {"note": 70, "velocity": 90, "duration": 172}, {"note": 0, "velocity": 0, "duration": 68}, {"note": 68, "velocity": 90, "duration": 193}, {"note": 70, "velocity": 90, "duration": 305}, {"note": 0, "velocity": 0, "duration": 175}, {"note": 70, "velocity": 90, "duration": 231}, {"note": 65, "velocity": 90, "duration": 212}, {"note": 68, "velocity": 90, "duration": 919}, {"note": 0, "velocity": 0, "duration": 521}, {"note": 65, "velocity": 90, "duration": 253}, {"note": 68, "velocity": 90, "duration": 252}, {"note": 70, "velocity": 90, "duration": 131}, {"note": 0, "velocity": 0, "duration": 109}, {"note": 70, "velocity": 90, "duration": 149}, {"note": 0, "velocity": 0, "duration": 91}, {"note": 70, "velocity": 90, "duration": 172}, {"note": 0, "velocity": 0, "duration": 68}, {"note": 68, "velocity": 90, "duration": 193}, {"note": 70, "velocity": 90, "duration": 305}, {"note": 0, "velocity": 0, "duration": 175}, {"note": 70, "velocity": 90, "duration": 231}, {"note": 65, "velocity": 90, "duration": 212}, {"note": 68, "velocity": 90, "duration": 446}, {"note": 70, "velocity": 90, "duration": 220}, {"note": 68, "velocity": 90, "duration": 245}, {"note": 65, "velocity": 90, "duration": 427}, {"note": 58, "velocity": 90, "duration": 217}, {"note": 65, "velocity": 90, "duration": 193}, {"note": 63, "velocity": 90, "duration": 279}, {"note": 0, "velocity": 0, "duration": 201}, {"note": 63, "velocity": 90, "duration": 251}, {"note": 61, "velocity": 90, "duration": 251}, {"note": 58, "velocity": 90, "duration": 140}, {"note": 0, "velocity": 0, "duration": 100}, {"note": 58, "velocity": 90, "duration": 136}, {"note": 0, "velocity": 0, "duration": 104}, {"note": 56, "velocity": 90, "duration": 152}, {"note": 0, "velocity": 0, "duration": 88}, {"note": 58, "velocity": 90, "duration": 141}, {"note": 0, "velocity": 0, "duration": 99}, {"note": 58, "velocity": 90, "duration": 963}, {"note": 0, "velocity": 0, "duration": 477}, {"note": 61, "velocity": 90, "duration": 256}, {"note": 63, "velocity": 90, "duration": 195}, {"note": 65, "velocity": 90, "duration": 490}, {"note": 0, "velocity": 0, "duration": 230}, {"note": 68, "velocity": 90, "duration": 176}, {"note": 0, "velocity": 0, "duration": 64}, {"note": 65, "velocity": 90, "duration": 210}, {"note": 63, "velocity": 90, "duration": 169}, {"note": 0, "velocity": 0, "duration": 71}, {"note": 61, "velocity": 90, "duration": 221}, {"note": 56, "velocity": 90, "duration": 281}, {"note": 58, "velocity": 90, "duration": 1006}, {"note": 0, "velocity": 0, "duration": 434}, {"note": 61, "velocity": 90, "duration": 271}, {"note": 63, "velocity": 90, "duration": 206}, {"note": 65, "velocity": 90, "duration": 460}, {"note": 65, "velocity": 90, "duration": 246}, {"note": 68, "velocity": 90, "duration": 175}, {"note": 0, "velocity": 0, "duration": 65}, {"note": 65, "velocity": 90, "duration": 138}, {"note": 0, "velocity": 0, "duration": 102}, {"note": 63, "velocity": 90, "duration": 109}, {"note": 0, "velocity": 0, "duration": 131}, {"note": 63, "velocity": 90, "duration": 132}, {"note": 0, "velocity": 0, "duration": 108}, {"note": 61, "velocity": 90, "duration": 217}, {"note": 63, "velocity": 90, "duration": 732}, {"note": 0, "velocity": 0, "duration": 708}, {"note": 65, "velocity": 90, "duration": 219}, {"note": 63, "velocity": 90, "duration": 263}, {"note": 61, "velocity": 90, "duration": 450}, {"note": 63, "velocity": 90, "duration": 260}, {"note": 61, "velocity": 90, "duration": 228}, {"note": 58, "velocity": 90, "duration": 358}, {"note": 0, "velocity": 0, "duration": 122}, {"note": 58, "velocity": 90, "duration": 235}, {"note": 56, "velocity": 90, "duration": 238}, {"note": 65, "velocity": 90, "duration": 247}, {"note": 68, "velocity": 90, "duration": 230}, {"note": 70, "velocity": 90, "duration": 241}, {"note": 68, "velocity": 90, "duration": 254}, {"note": 65, "velocity": 90, "duration": 256}, {"note": 0, "velocity": 0, "duration": 224}, {"note": 58, "velocity": 90, "duration": 251}, {"note": 65, "velocity": 90, "duration": 264}, {"note": 63, "velocity": 90, "duration": 318}, {"note": 0, "velocity": 0, "duration": 162}, {"note": 63, "velocity": 90, "duration": 218}, {"note": 61, "velocity": 90, "duration": 246}, {"note": 58, "velocity": 90, "duration": 171}, {"note": 0, "velocity": 0, "duration": 74}, {"note": 58, "velocity": 90, "duration": 212}, {"note": 56, "velocity": 90, "duration": 185}, {"note": 58, "velocity": 90, "duration": 193}, {"note": 58, "velocity": 90, "duration": 823}, {"note": 0, "velocity": 0, "duration": 15977}, {"note": 61, "velocity": 90, "duration": 256}, {"note": 63, "velocity": 90, "duration": 195}, {"note": 65, "velocity": 90, "duration": 490}, {"note": 0, "velocity": 0, "duration": 230}, {"note": 68, "velocity": 90, "duration": 176}, {"note": 0, "velocity": 0, "duration": 64}, {"note": 65, "velocity": 90, "duration": 210}, {"note": 63, "velocity": 90, "duration": 169}, {"note": 0, "velocity": 0, "duration": 71}, {"note": 61, "velocity": 90, "duration": 221}, {"note": 56, "velocity": 90, "duration": 281}, {"note": 58, "velocity": 90, "duration": 1006}, {"note": 0, "velocity": 0, "duration": 434}, {"note": 61, "velocity": 90, "duration": 271}, {"note": 63, "velocity": 90, "duration": 206}, {"note": 65, "velocity": 90, "duration": 460}, {"note": 65, "velocity": 90, "duration": 246}, {"note": 68, "velocity": 90, "duration": 175}, {"note": 0, "velocity": 0, "duration": 65}, {"note": 65, "velocity": 90, "duration": 138}, {"note": 0, "velocity": 0, "duration": 102}, {"note": 63, "velocity": 90, "duration": 109}, {"note": 0, "velocity": 0, "duration": 131}, {"note": 63, "velocity": 90, "duration": 132}, {"note": 0, "velocity": 0, "duration": 108}, {"note": 61, "velocity": 90, "duration": 217}, {"note": 63, "velocity": 90, "duration": 732}, {"note": 0, "velocity": 0, "duration": 708}, {"note": 65, "velocity": 90, "duration": 219}, {"note": 63, "velocity": 90, "duration": 263}, {"note": 61, "velocity": 90, "duration": 450}, {"note": 63, "velocity": 90, "duration": 260}, {"note": 61, "velocity": 90, "duration": 228}, {"note": 58, "velocity": 90, "duration": 358}, {"note": 0, "velocity": 0, "duration": 122}, {"note": 58, "velocity": 90, "duration": 235}, {"note": 56, "velocity": 90, "duration": 238}, {"note": 65, "velocity": 90, "duration": 247}, {"note": 68, "velocity": 90, "duration": 230}, {"note": 70, "velocity": 90, "duration": 241}, {"note": 68, "velocity": 90, "duration": 254}, {"note": 65, "velocity": 90, "duration": 256}, {"note": 0, "velocity": 0, "duration": 224}, {"note": 58, "velocity": 90, "duration": 251}, {"note": 65, "velocity": 90, "duration": 264}, {"note": 63, "velocity": 90, "duration": 318}, {"note": 0, "velocity": 0, "duration": 162}, {"note": 63, "velocity": 90, "duration": 218}, {"note": 61, "velocity": 90, "duration": 246}, {"note": 58, "velocity": 90, "duration": 401}, {"note": 0, "velocity": 0, "duration": 79}, {"note": 56, "velocity": 90, "duration": 185}, {"note": 58, "velocity": 90, "duration": 226}, {"note": 58, "velocity": 90, "duration": 935}, {"note": 0, "velocity": 0, "duration": 505}, {"note": 65, "velocity": 90, "duration": 253}, {"note": 68, "velocity": 90, "duration": 252}, {"note": 70, "velocity": 90, "duration": 131}, {"note": 0, "velocity": 0, "duration": 109}, {"note": 70, "velocity": 90, "duration": 149}, {"note": 0, "velocity": 0, "duration": 91}, {"note": 70, "velocity": 90, "duration": 172}, {"note": 0, "velocity": 0, "duration": 68}, {"note": 68, "velocity": 90, "duration": 193}, {"note": 70, "velocity": 90, "duration": 305}, {"note": 0, "velocity": 0, "duration": 175}, {"note": 70, "velocity": 90, "duration": 231}, {"note": 65, "velocity": 90, "duration": 212}, {"note": 68, "velocity": 90, "duration": 145}, {"note": 0, "velocity": 0, "duration": 95}, {"note": 68, "velocity": 90, "duration": 197}, {"note": 70, "velocity": 90, "duration": 220}, {"note": 68, "velocity": 90, "duration": 245}, {"note": 65, "velocity": 90, "duration": 500}, {"note": 65, "velocity": 90, "duration": 20}, {"note": 0, "velocity": 0, "duration": 220}, {"note": 68, "velocity": 90, "duration": 252}, {"note": 70, "velocity": 90, "duration": 131}, {"note": 0, "velocity": 0, "duration": 109}, {"note": 70, "velocity": 90, "duration": 149}, {"note": 0, "velocity": 0, "duration": 91}, {"note": 70, "velocity": 90, "duration": 172}, {"note": 0, "velocity": 0, "duration": 68}, {"note": 68, "velocity": 90, "duration": 193}, {"note": 70, "velocity": 90, "duration": 305}, {"note": 0, "velocity": 0, "duration": 175}, {"note": 70, "velocity": 90, "duration": 231}, {"note": 65, "velocity": 90, "duration": 212}, {"note": 68, "velocity": 90, "duration": 919}, {"note": 0, "velocity": 0, "duration": 521}, {"note": 65, "velocity": 90, "duration": 253}, {"note": 68, "velocity": 90, "duration": 252}, {"note": 70, "velocity": 90, "duration": 131}, {"note": 0, "velocity": 0, "duration": 109}, {"note": 70, "velocity": 90, "duration": 149}, {"note": 0, "velocity": 0, "duration": 91}, {"note": 70, "velocity": 92, "duration": 172}, {"note": 0, "velocity": 0, "duration": 68}, {"note": 68, "velocity": 87, "duration": 193}, {"note": 70, "velocity": 87, "duration": 305}, {"note": 0, "velocity": 0, "duration": 175}, {"note": 70, "velocity": 87, "duration": 231}, {"note": 65, "velocity": 87, "duration": 212}, {"note": 68, "velocity": 87, "duration": 446}, {"note": 70, "velocity": 87, "duration": 220}, {"note": 68, "velocity": 87, "duration": 245}, {"note": 65, "velocity": 87, "duration": 427}, {"note": 58, "velocity": 87, "duration": 217}, {"note": 65, "velocity": 87, "duration": 193}, {"note": 63, "velocity": 87, "duration": 279}, {"note": 0, "velocity": 0, "duration": 201}, {"note": 63, "velocity": 87, "duration": 251}, {"note": 61, "velocity": 87, "duration": 251}, {"note": 58, "velocity": 87, "duration": 140}, {"note": 0, "velocity": 0, "duration": 100}, {"note": 58, "velocity": 87, "duration": 136}, {"note": 0, "velocity": 0, "duration": 104}, {"note": 56, "velocity": 87, "duration": 152}, {"note": 0, "velocity": 0, "duration": 88}, {"note": 58, "velocity": 87, "duration": 141}, {"note": 0, "velocity": 0, "duration": 99}, {"note": 58, "velocity": 87, "duration": 963}, {"note": 0, "velocity": 0, "duration": 477}, {"note": 61, "velocity": 87, "duration": 238}, {"note": 63, "velocity": 87, "duration": 238}, {"note": 65, "velocity": 87, "duration": 365}, {"note": 0, "velocity": 0, "duration": 115}, {"note": 65, "velocity": 87, "duration": 228}, {"note": 68, "velocity": 87, "duration": 170}, {"note": 0, "velocity": 0, "duration": 70}, {"note": 65, "velocity": 87, "duration": 243}, {"note": 63, "velocity": 87, "duration": 260}, {"note": 61, "velocity": 87, "duration": 238}, {"note": 56, "velocity": 87, "duration": 246}, {"note": 58, "velocity": 87, "duration": 873}, {"note": 0, "velocity": 0, "duration": 567}, {"note": 61, "velocity": 87, "duration": 238}, {"note": 63, "velocity": 87, "duration": 221}, {"note": 65, "velocity": 87, "duration": 277}, {"note": 0, "velocity": 0, "duration": 203}, {"note": 65, "velocity": 87, "duration": 235}, {"note": 68, "velocity": 87, "duration": 216}, {"note": 65, "velocity": 87, "duration": 237}, {"note": 63, "velocity": 87, "duration": 238}, {"note": 63, "velocity": 87, "duration": 227}, {"note": 61, "velocity": 87, "duration": 267}, {"note": 63, "velocity": 87, "duration": 947}, {"note": 0, "velocity": 0, "duration": 493}, {"note": 63, "velocity": 87, "duration": 186}, {"note": 65, "velocity": 87, "duration": 224}, {"note": 61, "velocity": 87, "duration": 358}, {"note": 0, "velocity": 0, "duration": 122}, {"note": 63, "velocity": 87, "duration": 253}, {"note": 61, "velocity": 87, "duration": 238}, {"note": 58, "velocity": 87, "duration": 280}, {"note": 0, "velocity": 0, "duration": 200}, {"note": 58, "velocity": 87, "duration": 206}, {"note": 56, "velocity": 87, "duration": 238}, {"note": 65, "velocity": 87, "duration": 229}, {"note": 68, "velocity": 87, "duration": 208}, {"note": 70, "velocity": 87, "duration": 231}, {"note": 68, "velocity": 87, "duration": 225}, {"note": 65, "velocity": 87, "duration": 385}, {"note": 0, "velocity": 0, "duration": 95}, {"note": 58, "velocity": 87, "duration": 307}, {"note": 65, "velocity": 87, "duration": 282}, {"note": 63, "velocity": 87, "duration": 358}, {"note": 0, "velocity": 0, "duration": 122}, {"note": 63, "velocity": 87, "duration": 246}, {"note": 61, "velocity": 87, "duration": 254}, {"note": 58, "velocity": 87, "duration": 118}, {"note": 0, "velocity": 0, "duration": 122}, {"note": 58, "velocity": 87, "duration": 238}, {"note": 56, "velocity": 87, "duration": 228}, {"note": 58, "velocity": 87, "duration": 210}, {"note": 61, "velocity": 87, "duration": 949}, {"note": 0, "velocity": 0, "duration": 491}, {"note": 65, "velocity": 87, "duration": 253}, {"note": 68, "velocity": 87, "duration": 252}, {"note": 70, "velocity": 87, "duration": 131}, {"note": 0, "velocity": 0, "duration": 109}, {"note": 70, "velocity": 87, "duration": 149}, {"note": 0, "velocity": 0, "duration": 91}, {"note": 70, "velocity": 87, "duration": 172}, {"note": 0, "velocity": 0, "duration": 68}, {"note": 68, "velocity": 87, "duration": 193}, {"note": 70, "velocity": 85, "duration": 305}, {"note": 0, "velocity": 0, "duration": 175}, {"note": 70, "velocity": 85, "duration": 231}, {"note": 65, "velocity": 85, "duration": 212}, {"note": 68, "velocity": 85, "duration": 145}, {"note": 0, "velocity": 0, "duration": 95}, {"note": 68, "velocity": 85, "duration": 197}, {"note": 70, "velocity": 87, "duration": 220}, {"note": 68, "velocity": 87, "duration": 245}, {"note": 65, "velocity": 87, "duration": 500}, {"note": 65, "velocity": 87, "duration": 20}, {"note": 0, "velocity": 0, "duration": 220}, {"note": 68, "velocity": 87, "duration": 252}, {"note": 70, "velocity": 87, "duration": 131}, {"note": 0, "velocity": 0, "duration": 109}, {"note": 70, "velocity": 87, "duration": 149}, {"note": 0, "velocity": 0, "duration": 91}, {"note": 70, "velocity": 87, "duration": 172}, {"note": 0, "velocity": 0, "duration": 68}, {"note": 68, "velocity": 87, "duration": 193}, {"note": 70, "velocity": 87, "duration": 305}, {"note": 0, "velocity": 0, "duration": 175}, {"note": 70, "velocity": 87, "duration": 231}, {"note": 65, "velocity": 87, "duration": 212}, {"note": 68, "velocity": 87, "duration": 919}, {"note": 0, "velocity": 0, "duration": 521}, {"note": 65, "velocity": 87, "duration": 253}, {"note": 68, "velocity": 87, "duration": 252}, {"note": 70, "velocity": 87, "duration": 131}, {"note": 0, "velocity": 0, "duration": 109}, {"note": 70, "velocity": 87, "duration": 149}, {"note": 0, "velocity": 0, "duration": 91}, {"note": 70, "velocity": 87, "duration": 172}, {"note": 0, "velocity": 0, "duration": 68}, {"note": 68, "velocity": 87, "duration": 193}, {"note": 70, "velocity": 87, "duration": 305}, {"note": 0, "velocity": 0, "duration": 175}, {"note": 70, "velocity": 87, "duration": 231}, {"note": 65, "velocity": 87, "duration": 212}, {"note": 68, "velocity": 87, "duration": 446}, {"note": 70, "velocity": 90, "duration": 220}, {"note": 68, "velocity": 90, "duration": 245}, {"note": 65, "velocity": 90, "duration": 427}, {"note": 58, "velocity": 90, "duration": 217}, {"note": 65, "velocity": 90, "duration": 193}, {"note": 63, "velocity": 90, "duration": 279}, {"note": 0, "velocity": 0, "duration": 201}, {"note": 63, "velocity": 90, "duration": 251}, {"note": 61, "velocity": 90, "duration": 251}, {"note": 58, "velocity": 90, "duration": 140}, {"note": 0, "velocity": 0, "duration": 100}, {"note": 58, "velocity": 90, "duration": 136}, {"note": 0, "velocity": 0, "duration": 104}, {"note": 56, "velocity": 90, "duration": 152}, {"note": 0, "velocity": 0, "duration": 88}, {"note": 58, "velocity": 90, "duration": 141}, {"note": 0, "velocity": 0, "duration": 99}, {"note": 58, "velocity": 90, "duration": 963}, {"note": 0, "velocity": 0, "duration": 477}, {"note": 61, "velocity": 90, "duration": 256}, {"note": 63, "velocity": 90, "duration": 195}, {"note": 65, "velocity": 90, "duration": 490}, {"note": 0, "velocity": 0, "duration": 230}, {"note": 68, "velocity": 90, "duration": 176}, {"note": 0, "velocity": 0, "duration": 64}, {"note": 65, "velocity": 90, "duration": 210}, {"note": 63, "velocity": 90, "duration": 169}, {"note": 0, "velocity": 0, "duration": 71}, {"note": 61, "velocity": 90, "duration": 221}, {"note": 56, "velocity": 90, "duration": 281}, {"note": 58, "velocity": 90, "duration": 1006}, {"note": 0, "velocity": 0, "duration": 434}, {"note": 61, "velocity": 90, "duration": 271}, {"note": 63, "velocity": 90, "duration": 206}, {"note": 65, "velocity": 90, "duration": 460}, {"note": 65, "velocity": 90, "duration": 246}, {"note": 68, "velocity": 90, "duration": 175}, {"note": 0, "velocity": 0, "duration": 65}, {"note": 65, "velocity": 90, "duration": 138}, {"note": 0, "velocity": 0, "duration": 102}, {"note": 63, "velocity": 90, "duration": 109}, {"note": 0, "velocity": 0, "duration": 131}, {"note": 63, "velocity": 90, "duration": 132}, {"note": 0, "velocity": 0, "duration": 108}, {"note": 61, "velocity": 90, "duration": 217}, {"note": 63, "velocity": 90, "duration": 732}, {"note": 0, "velocity": 0, "duration": 708}, {"note": 65, "velocity": 90, "duration": 219}, {"note": 63, "velocity": 90, "duration": 263}, {"note": 61, "velocity": 90, "duration": 450}, {"note": 63, "velocity": 90, "duration": 260}, {"note": 61, "velocity": 90, "duration": 228}, {"note": 58, "velocity": 90, "duration": 358}, {"note": 0, "velocity": 0, "duration": 122}, {"note": 58, "velocity": 90, "duration": 235}, {"note": 56, "velocity": 90, "duration": 238}, {"note": 65, "velocity": 90, "duration": 247}, {"note": 68, "velocity": 90, "duration": 230}, {"note": 70, "velocity": 90, "duration": 241}, {"note": 68, "velocity": 90, "duration": 254}, {"note": 65, "velocity": 90, "duration": 256}, {"note": 0, "velocity": 0, "duration": 224}, {"note": 58, "velocity": 90, "duration": 251}, {"note": 65, "velocity": 90, "duration": 264}, {"note": 63, "velocity": 90, "duration": 318}, {"note": 0, "velocity": 0, "duration": 162}, {"note": 63, "velocity": 90, "duration": 218}, {"note": 61, "velocity": 90, "duration": 246}, {"note": 58, "velocity": 90, "duration": 171}, {"note": 0, "velocity": 0, "duration": 74}, {"note": 58, "velocity": 90, "duration": 212}, {"note": 56, "velocity": 90, "duration": 185}, {"note": 58, "velocity": 90, "duration": 193}, {"note": 61, "velocity": 90, "duration": 823}]]