[[{"note": 70, "velocity": 90, "duration": 258}, {"note": 0, "velocity": 0, "duration": 62}, {"note": 70, "velocity": 90, "duration": 122}, {"note": 77, "velocity": 90, "duration": 85}, {"note": 0, "velocity": 0, "duration": 75}, {"note": 77, "velocity": 90, "duration": 139}, {"note": 73, "velocity": 90, "duration": 163}, {"note": 75, "velocity": 90, "duration": 98}, {"note": 0, "velocity": 0, "duration": 62}, {"note": 75, "velocity": 90, "duration": 138}, {"note": 73, "velocity": 90, "duration": 152}, {"note": 70, "velocity": 90, "duration": 238}, {"note": 0, "velocity": 0, "duration": 82}, {"note": 70, "velocity": 90, "duration": 157}, {"note": 68, "velocity": 90, "duration": 291}, {"note": 65, "velocity": 90, "duration": 72}, {"note": 0, "velocity": 0, "duration": 88}, {"note": 65, "velocity": 90, "duration": 219}, {"note": 68, "velocity": 90, "duration": 121}, {"note": 73, "velocity": 90, "duration": 78}, {"note": 0, "velocity": 0, "duration": 82}, {"note": 70, "velocity": 90, "duration": 412}, {"note": 0, "velocity": 0, "duration": 548}, {"note": 77, "velocity": 90, "duration": 326}, {"note": 75, "velocity": 90, "duration": 147}, {"note": 77, "velocity": 90, "duration": 73}, {"note": 0, "velocity": 0, "duration": 87}, {"note": 77, "velocity": 90, "duration": 118}, {"note": 73, "velocity": 90, "duration": 181}, {"note": 75, "velocity": 90, "duration": 83}, {"note": 0, "velocity": 0, "duration": 77}, {"note": 75, "velocity": 90, "duration": 170}, {"note": 73, "velocity": 90, "duration": 148}, {"note": 75, "velocity": 90, "duration": 316}, {"note": 73, "velocity": 90, "duration": 163}, {"note": 72, "velocity": 90, "duration": 232}, {"note": 0, "velocity": 0, "duration": 88}, {"note": 72, "velocity": 90, "duration": 57}, {"note": 0, "velocity": 0, "duration": 103}, {"note": 72, "velocity": 90, "duration": 72}, {"note": 0, "velocity": 0, "duration": 88}, {"note": 72, "velocity": 90, "duration": 172}, {"note": 68, "velocity": 90, "duration": 102}, {"note": 77, "velocity": 90, "duration": 465}, {"note": 0, "velocity": 0, "duration": 175}, {"note": 70, "velocity": 90, "duration": 86}, {"note": 0, "velocity": 0, "duration": 74}, {"note": 70, "velocity": 90, "duration": 144}, {"note": 82, "velocity": 90, "duration": 330}, {"note": 80, "velocity": 90, "duration": 161}, {"note": 82, "velocity": 90, "duration": 153}, {"note": 77, "velocity": 90, "duration": 94}, {"note": 0, "velocity": 0, "duration": 66}, {"note": 77, "velocity": 90, "duration": 165}, {"note": 80, "velocity": 90, "duration": 101}, {"note": 80, "velocity": 90, "duration": 131}, {"note": 77, "velocity": 90, "duration": 155}, {"note": 80, "velocity": 90, "duration": 251}, {"note": 0, "velocity": 0, "duration": 69}, {"note": 73, "velocity": 90, "duration": 181}, {"note": 75, "velocity": 90, "duration": 78}, {"note": 0, "velocity": 0, "duration": 82}, {"note": 75, "velocity": 90, "duration": 161}, {"note": 73, "velocity": 90, "duration": 131}, {"note": 75, "velocity": 90, "duration": 61}, {"note": 0, "velocity": 0, "duration": 99}, {"note": 75, "velocity": 90, "duration": 124}, {"note": 73, "velocity": 90, "duration": 72}, {"note": 0, "velocity": 0, "duration": 88}, {"note": 73, "velocity": 90, "duration": 139}, {"note": 77, "velocity": 90, "duration": 418}, {"note": 0, "velocity": 0, "duration": 382}, {"note": 70, "velocity": 90, "duration": 117}, {"note": 70, "velocity": 90, "duration": 75}, {"note": 0, "velocity": 0, "duration": 85}, {"note": 70, "velocity": 90, "duration": 113}, {"note": 77, "velocity": 90, "duration": 338}, {"note": 73, "velocity": 90, "duration": 169}, {"note": 75, "velocity": 90, "duration": 87}, {"note": 0, "velocity": 0, "duration": 73}, {"note": 75, "velocity": 90, "duration": 173}, {"note": 73, "velocity": 90, "duration": 165}, {"note": 75, "velocity": 90, "duration": 190}, {"note": 0, "velocity": 0, "duration": 130}, {"note": 73, "velocity": 90, "duration": 151}, {"note": 72, "velocity": 90, "duration": 112}, {"note": 72, "velocity": 90, "duration": 68}, {"note": 0, "velocity": 0, "duration": 92}, {"note": 72, "velocity": 90, "duration": 67}, {"note": 0, "velocity": 0, "duration": 93}, {"note": 72, "velocity": 90, "duration": 148}, {"note": 68, "velocity": 90, "duration": 143}, {"note": 72, "velocity": 90, "duration": 181}, {"note": 70, "velocity": 90, "duration": 520}, {"note": 0, "velocity": 0, "duration": 8562}, {"note": 70, "velocity": 90, "duration": 227}, {"note": 0, "velocity": 0, "duration": 93}, {"note": 70, "velocity": 90, "duration": 131}, {"note": 77, "velocity": 90, "duration": 100}, {"note": 77, "velocity": 90, "duration": 132}, {"note": 73, "velocity": 90, "duration": 148}, {"note": 75, "velocity": 90, "duration": 98}, {"note": 0, "velocity": 0, "duration": 62}, {"note": 75, "velocity": 90, "duration": 161}, {"note": 73, "velocity": 90, "duration": 131}, {"note": 70, "velocity": 90, "duration": 257}, {"note": 0, "velocity": 0, "duration": 62}, {"note": 70, "velocity": 90, "duration": 142}, {"note": 68, "velocity": 90, "duration": 299}, {"note": 65, "velocity": 90, "duration": 82}, {"note": 0, "velocity": 0, "duration": 78}, {"note": 65, "velocity": 90, "duration": 145}, {"note": 68, "velocity": 90, "duration": 128}, {"note": 72, "velocity": 90, "duration": 164}, {"note": 70, "velocity": 90, "duration": 539}, {"note": 0, "velocity": 0, "duration": 444}, {"note": 77, "velocity": 90, "duration": 79}, {"note": 0, "velocity": 0, "duration": 81}, {"note": 77, "velocity": 90, "duration": 181}, {"note": 75, "velocity": 90, "duration": 145}, {"note": 77, "velocity": 90, "duration": 302}, {"note": 73, "velocity": 90, "duration": 110}, {"note": 75, "velocity": 90, "duration": 100}, {"note": 75, "velocity": 90, "duration": 174}, {"note": 73, "velocity": 90, "duration": 163}, {"note": 75, "velocity": 90, "duration": 348}, {"note": 73, "velocity": 90, "duration": 159}, {"note": 72, "velocity": 90, "duration": 278}, {"note": 72, "velocity": 90, "duration": 63}, {"note": 0, "velocity": 0, "duration": 97}, {"note": 72, "velocity": 90, "duration": 68}, {"note": 0, "velocity": 0, "duration": 92}, {"note": 72, "velocity": 90, "duration": 154}, {"note": 68, "velocity": 90, "duration": 140}, {"note": 77, "velocity": 90, "duration": 441}, {"note": 0, "velocity": 0, "duration": 188}, {"note": 70, "velocity": 90, "duration": 84}, {"note": 0, "velocity": 0, "duration": 76}, {"note": 70, "velocity": 90, "duration": 136}, {"note": 82, "velocity": 90, "duration": 330}, {"note": 80, "velocity": 90, "duration": 174}, {"note": 82, "velocity": 90, "duration": 128}, {"note": 77, "velocity": 90, "duration": 106}, {"note": 77, "velocity": 90, "duration": 161}, {"note": 80, "velocity": 90, "duration": 131}, {"note": 80, "velocity": 90, "duration": 142}, {"note": 77, "velocity": 90, "duration": 172}, {"note": 80, "velocity": 90, "duration": 158}, {"note": 0, "velocity": 0, "duration": 162}, {"note": 73, "velocity": 90, "duration": 178}, {"note": 75, "velocity": 90, "duration": 85}, {"note": 0, "velocity": 0, "duration": 75}, {"note": 75, "velocity": 90, "duration": 141}, {"note": 73, "velocity": 90, "duration": 156}, {"note": 75, "velocity": 90, "duration": 136}, {"note": 75, "velocity": 90, "duration": 126}, {"note": 73, "velocity": 90, "duration": 169}, {"note": 80, "velocity": 90, "duration": 134}, {"note": 77, "velocity": 90, "duration": 401}, {"note": 0, "velocity": 0, "duration": 399}, {"note": 70, "velocity": 90, "duration": 277}, {"note": 70, "velocity": 90, "duration": 136}, {"note": 77, "velocity": 90, "duration": 99}, {"note": 0, "velocity": 0, "duration": 61}, {"note": 77, "velocity": 90, "duration": 164}, {"note": 73, "velocity": 90, "duration": 159}, {"note": 75, "velocity": 90, "duration": 117}, {"note": 75, "velocity": 90, "duration": 156}, {"note": 73, "velocity": 90, "duration": 166}, {"note": 75, "velocity": 90, "duration": 307}, {"note": 73, "velocity": 90, "duration": 136}, {"note": 72, "velocity": 90, "duration": 321}, {"note": 65, "velocity": 90, "duration": 74}, {"note": 0, "velocity": 0, "duration": 86}, {"note": 65, "velocity": 90, "duration": 124}, {"note": 72, "velocity": 90, "duration": 69}, {"note": 0, "velocity": 0, "duration": 91}, {"note": 72, "velocity": 90, "duration": 69}, {"note": 0, "velocity": 0, "duration": 91}, {"note": 72, "velocity": 90, "duration": 164}, {"note": 70, "velocity": 90, "duration": 362}, {"note": 0, "velocity": 0, "duration": 132}, {"note": 70, "velocity": 90, "duration": 93}, {"note": 0, "velocity": 0, "duration": 67}, {"note": 70, "velocity": 90, "duration": 164}, {"note": 82, "velocity": 90, "duration": 335}, {"note": 80, "velocity": 90, "duration": 161}, {"note": 82, "velocity": 90, "duration": 162}, {"note": 77, "velocity": 90, "duration": 104}, {"note": 77, "velocity": 90, "duration": 166}, {"note": 80, "velocity": 90, "duration": 97}, {"note": 0, "velocity": 0, "duration": 63}, {"note": 80, "velocity": 90, "duration": 136}, {"note": 77, "velocity": 90, "duration": 168}, {"note": 80, "velocity": 90, "duration": 221}, {"note": 0, "velocity": 0, "duration": 99}, {"note": 73, "velocity": 90, "duration": 158}, {"note": 75, "velocity": 90, "duration": 71}, {"note": 0, "velocity": 0, "duration": 89}, {"note": 75, "velocity": 90, "duration": 132}, {"note": 73, "velocity": 90, "duration": 153}, {"note": 75, "velocity": 90, "duration": 79}, {"note": 0, "velocity": 0, "duration": 81}, {"note": 75, "velocity": 90, "duration": 133}, {"note": 73, "velocity": 90, "duration": 66}, {"note": 0, "velocity": 0, "duration": 94}, {"note": 73, "velocity": 90, "duration": 141}, {"note": 77, "velocity": 90, "duration": 637}, {"note": 0, "velocity": 0, "duration": 159}, {"note": 70, "velocity": 90, "duration": 94}, {"note": 0, "velocity": 0, "duration": 66}, {"note": 70, "velocity": 90, "duration": 78}, {"note": 0, "velocity": 0, "duration": 82}, {"note": 70, "velocity": 90, "duration": 109}, {"note": 77, "velocity": 90, "duration": 320}, {"note": 73, "velocity": 90, "duration": 161}, {"note": 75, "velocity": 90, "duration": 103}, {"note": 75, "velocity": 90, "duration": 165}, {"note": 73, "velocity": 90, "duration": 167}, {"note": 75, "velocity": 90, "duration": 250}, {"note": 0, "velocity": 0, "duration": 69}, {"note": 73, "velocity": 90, "duration": 148}, {"note": 72, "velocity": 90, "duration": 100}, {"note": 72, "velocity": 90, "duration": 72}, {"note": 0, "velocity": 0, "duration": 88}, {"note": 72, "velocity": 90, "duration": 66}, {"note": 0, "velocity": 0, "duration": 94}, {"note": 72, "velocity": 90, "duration": 145}, {"note": 65, "velocity": 90, "duration": 147}, {"note": 72, "velocity": 90, "duration": 169}, {"note": 70, "velocity": 90, "duration": 332}, {"note": 0, "velocity": 0, "duration": 308}, {"note": 70, "velocity": 90, "duration": 72}, {"note": 0, "velocity": 0, "duration": 88}, {"note": 70, "velocity": 90, "duration": 112}, {"note": 82, "velocity": 90, "duration": 316}, {"note": 80, "velocity": 90, "duration": 163}, {"note": 82, "velocity": 90, "duration": 147}, {"note": 77, "velocity": 90, "duration": 106}, {"note": 77, "velocity": 90, "duration": 155}, {"note": 80, "velocity": 90, "duration": 127}, {"note": 80, "velocity": 90, "duration": 133}, {"note": 77, "velocity": 90, "duration": 159}, {"note": 80, "velocity": 90, "duration": 208}, {"note": 0, "velocity": 0, "duration": 112}, {"note": 73, "velocity": 90, "duration": 163}, {"note": 75, "velocity": 90, "duration": 100}, {"note": 75, "velocity": 90, "duration": 150}, {"note": 73, "velocity": 90, "duration": 150}, {"note": 75, "velocity": 90, "duration": 60}, {"note": 0, "velocity": 0, "duration": 100}, {"note": 75, "velocity": 90, "duration": 170}, {"note": 73, "velocity": 90, "duration": 126}, {"note": 80, "velocity": 90, "duration": 142}, {"note": 77, "velocity": 90, "duration": 447}, {"note": 0, "velocity": 0, "duration": 351}, {"note": 70, "velocity": 90, "duration": 156}, {"note": 0, "velocity": 0, "duration": 157}, {"note": 70, "velocity": 90, "duration": 116}, {"note": 77, "velocity": 90, "duration": 127}, {"note": 77, "velocity": 90, "duration": 148}, {"note": 73, "velocity": 90, "duration": 167}, {"note": 75, "velocity": 90, "duration": 118}, {"note": 75, "velocity": 90, "duration": 153}, {"note": 73, "velocity": 90, "duration": 159}, {"note": 75, "velocity": 90, "duration": 332}, {"note": 73, "velocity": 90, "duration": 152}, {"note": 72, "velocity": 90, "duration": 212}, {"note": 0, "velocity": 0, "duration": 108}, {"note": 65, "velocity": 90, "duration": 89}, {"note": 0, "velocity": 0, "duration": 71}, {"note": 65, "velocity": 90, "duration": 146}, {"note": 72, "velocity": 90, "duration": 79}, {"note": 0, "velocity": 0, "duration": 81}, {"note": 72, "velocity": 90, "duration": 75}, {"note": 0, "velocity": 0, "duration": 85}, {"note": 72, "velocity": 90, "duration": 170}, {"note": 70, "velocity": 90, "duration": 338}]]