[[{"note": 65, "velocity": 93, "duration": 265}, {"note": 0, "velocity": 0, "duration": 215}, {"note": 65, "velocity": 93, "duration": 233}, {"note": 63, "velocity": 93, "duration": 176}, {"note": 0, "velocity": 0, "duration": 64}, {"note": 67, "velocity": 93, "duration": 192}, {"note": 0, "velocity": 0, "duration": 288}, {"note": 67, "velocity": 93, "duration": 280}, {"note": 0, "velocity": 0, "duration": 200}, {"note": 65, "velocity": 93, "duration": 66}, {"note": 0, "velocity": 0, "duration": 174}, {"note": 65, "velocity": 93, "duration": 71}, {"note": 0, "velocity": 0, "duration": 169}, {"note": 65, "velocity": 93, "duration": 141}, {"note": 0, "velocity": 0, "duration": 99}, {"note": 63, "velocity": 93, "duration": 167}, {"note": 0, "velocity": 0, "duration": 73}, {"note": 67, "velocity": 93, "duration": 451}, {"note": 0, "velocity": 0, "duration": 509}, {"note": 65, "velocity": 93, "duration": 265}, {"note": 0, "velocity": 0, "duration": 215}, {"note": 65, "velocity": 93, "duration": 233}, {"note": 63, "velocity": 93, "duration": 176}, {"note": 0, "velocity": 0, "duration": 64}, {"note": 67, "velocity": 93, "duration": 192}, {"note": 0, "velocity": 0, "duration": 288}, {"note": 67, "velocity": 93, "duration": 280}, {"note": 0, "velocity": 0, "duration": 200}, {"note": 65, "velocity": 93, "duration": 66}, {"note": 0, "velocity": 0, "duration": 174}, {"note": 65, "velocity": 93, "duration": 71}, {"note": 0, "velocity": 0, "duration": 169}, {"note": 65, "velocity": 93, "duration": 141}, {"note": 0, "velocity": 0, "duration": 99}, {"note": 63, "velocity": 93, "duration": 167}, {"note": 0, "velocity": 0, "duration": 73}, {"note": 67, "velocity": 93, "duration": 451}, {"note": 0, "velocity": 0, "duration": 509}, {"note": 65, "velocity": 93, "duration": 229}, {"note": 67, "velocity": 93, "duration": 238}, {"note": 65, "velocity": 93, "duration": 243}, {"note": 63, "velocity": 93, "duration": 238}, {"note": 60, "velocity": 93, "duration": 450}, {"note": 58, "velocity": 93, "duration": 500}, {"note": 65, "velocity": 93, "duration": 238}, {"note": 67, "velocity": 93, "duration": 238}, {"note": 65, "velocity": 93, "duration": 243}, {"note": 63, "velocity": 93, "duration": 238}, {"note": 60, "velocity": 93, "duration": 450}, {"note": 58, "velocity": 93, "duration": 501}, {"note": 65, "velocity": 93, "duration": 238}, {"note": 67, "velocity": 93, "duration": 238}, {"note": 65, "velocity": 93, "duration": 244}, {"note": 63, "velocity": 93, "duration": 238}, {"note": 60, "velocity": 93, "duration": 450}, {"note": 58, "velocity": 93, "duration": 500}, {"note": 65, "velocity": 93, "duration": 118}, {"note": 0, "velocity": 0, "duration": 122}, {"note": 65, "velocity": 93, "duration": 118}, {"note": 0, "velocity": 0, "duration": 122}, {"note": 65, "velocity": 93, "duration": 238}, {"note": 63, "velocity": 93, "duration": 238}, {"note": 67, "velocity": 93, "duration": 532}, {"note": 0, "velocity": 0, "duration": 428}, {"note": 65, "velocity": 93, "duration": 358}, {"note": 0, "velocity": 0, "duration": 122}, {"note": 65, "velocity": 93, "duration": 233}, {"note": 63, "velocity": 93, "duration": 197}, {"note": 67, "velocity": 93, "duration": 358}, {"note": 0, "velocity": 0, "duration": 122}, {"note": 67, "velocity": 93, "duration": 398}, {"note": 0, "velocity": 0, "duration": 82}, {"note": 65, "velocity": 93, "duration": 129}, {"note": 0, "velocity": 0, "duration": 111}, {"note": 65, "velocity": 93, "duration": 120}, {"note": 0, "velocity": 0, "duration": 120}, {"note": 65, "velocity": 93, "duration": 257}, {"note": 63, "velocity": 93, "duration": 190}, {"note": 67, "velocity": 93, "duration": 478}, {"note": 0, "velocity": 0, "duration": 482}, {"note": 65, "velocity": 93, "duration": 358}, {"note": 0, "velocity": 0, "duration": 122}, {"note": 65, "velocity": 93, "duration": 233}, {"note": 63, "velocity": 93, "duration": 197}, {"note": 67, "velocity": 93, "duration": 358}, {"note": 0, "velocity": 0, "duration": 122}, {"note": 67, "velocity": 93, "duration": 398}, {"note": 0, "velocity": 0, "duration": 82}, {"note": 65, "velocity": 93, "duration": 129}, {"note": 0, "velocity": 0, "duration": 111}, {"note": 65, "velocity": 93, "duration": 120}, {"note": 0, "velocity": 0, "duration": 120}, {"note": 65, "velocity": 93, "duration": 257}, {"note": 63, "velocity": 93, "duration": 190}, {"note": 67, "velocity": 93, "duration": 478}, {"note": 0, "velocity": 0, "duration": 482}, {"note": 65, "velocity": 93, "duration": 229}, {"note": 67, "velocity": 93, "duration": 238}, {"note": 65, "velocity": 93, "duration": 243}, {"note": 63, "velocity": 93, "duration": 238}, {"note": 60, "velocity": 93, "duration": 450}, {"note": 58, "velocity": 93, "duration": 500}, {"note": 65, "velocity": 93, "duration": 238}, {"note": 67, "velocity": 93, "duration": 238}, {"note": 65, "velocity": 93, "duration": 243}, {"note": 63, "velocity": 93, "duration": 238}, {"note": 60, "velocity": 93, "duration": 450}, {"note": 58, "velocity": 93, "duration": 501}, {"note": 65, "velocity": 93, "duration": 238}, {"note": 67, "velocity": 93, "duration": 238}, {"note": 65, "velocity": 93, "duration": 244}, {"note": 63, "velocity": 93, "duration": 238}, {"note": 60, "velocity": 93, "duration": 450}, {"note": 58, "velocity": 93, "duration": 500}, {"note": 70, "velocity": 95, "duration": 358}, {"note": 0, "velocity": 0, "duration": 122}, {"note": 70, "velocity": 95, "duration": 358}, {"note": 0, "velocity": 0, "duration": 122}, {"note": 63, "velocity": 95, "duration": 238}, {"note": 65, "velocity": 95, "duration": 238}, {"note": 67, "velocity": 95, "duration": 238}, {"note": 70, "velocity": 95, "duration": 238}, {"note": 72, "velocity": 93, "duration": 958}, {"note": 0, "velocity": 0, "duration": 482}, {"note": 67, "velocity": 93, "duration": 187}, {"note": 65, "velocity": 93, "duration": 754}, {"note": 0, "velocity": 0, "duration": 446}, {"note": 63, "velocity": 93, "duration": 185}, {"note": 65, "velocity": 93, "duration": 268}, {"note": 67, "velocity": 93, "duration": 209}, {"note": 72, "velocity": 93, "duration": 231}, {"note": 70, "velocity": 93, "duration": 1399}, {"note": 65, "velocity": 93, "duration": 257}, {"note": 63, "velocity": 93, "duration": 238}, {"note": 60, "velocity": 93, "duration": 939}, {"note": 58, "velocity": 93, "duration": 199}, {"note": 60, "velocity": 93, "duration": 238}, {"note": 70, "velocity": 93, "duration": 463}, {"note": 68, "velocity": 93, "duration": 429}, {"note": 67, "velocity": 93, "duration": 212}, {"note": 68, "velocity": 95, "duration": 450}, {"note": 67, "velocity": 95, "duration": 236}, {"note": 68, "velocity": 95, "duration": 478}, {"note": 67, "velocity": 95, "duration": 236}, {"note": 68, "velocity": 95, "duration": 478}, {"note": 0, "velocity": 0, "duration": 242}, {"note": 67, "velocity": 95, "duration": 244}, {"note": 65, "velocity": 95, "duration": 197}, {"note": 63, "velocity": 95, "duration": 238}, {"note": 67, "velocity": 95, "duration": 1049}, {"note": 0, "velocity": 0, "duration": 391}, {"note": 68, "velocity": 86, "duration": 427}, {"note": 70, "velocity": 92, "duration": 973}, {"note": 0, "velocity": 0, "duration": 227}, {"note": 63, "velocity": 95, "duration": 238}, {"note": 65, "velocity": 95, "duration": 238}, {"note": 67, "velocity": 95, "duration": 238}, {"note": 70, "velocity": 95, "duration": 238}, {"note": 72, "velocity": 95, "duration": 958}, {"note": 0, "velocity": 0, "duration": 482}, {"note": 67, "velocity": 95, "duration": 187}, {"note": 65, "velocity": 95, "duration": 754}, {"note": 0, "velocity": 0, "duration": 446}, {"note": 63, "velocity": 95, "duration": 185}, {"note": 65, "velocity": 95, "duration": 268}, {"note": 67, "velocity": 95, "duration": 209}, {"note": 72, "velocity": 95, "duration": 231}, {"note": 70, "velocity": 95, "duration": 1399}, {"note": 65, "velocity": 95, "duration": 257}, {"note": 63, "velocity": 95, "duration": 238}, {"note": 60, "velocity": 95, "duration": 939}, {"note": 58, "velocity": 95, "duration": 199}, {"note": 60, "velocity": 95, "duration": 238}, {"note": 70, "velocity": 95, "duration": 463}, {"note": 68, "velocity": 95, "duration": 429}, {"note": 67, "velocity": 95, "duration": 212}, {"note": 68, "velocity": 95, "duration": 450}, {"note": 67, "velocity": 95, "duration": 236}, {"note": 68, "velocity": 95, "duration": 478}, {"note": 67, "velocity": 95, "duration": 236}, {"note": 68, "velocity": 95, "duration": 478}, {"note": 67, "velocity": 95, "duration": 242}, {"note": 65, "velocity": 95, "duration": 246}, {"note": 63, "velocity": 95, "duration": 219}, {"note": 60, "velocity": 95, "duration": 157}, {"note": 0, "velocity": 0, "duration": 83}, {"note": 63, "velocity": 95, "duration": 107}, {"note": 0, "velocity": 0, "duration": 133}, {"note": 63, "velocity": 95, "duration": 958}, {"note": 0, "velocity": 0, "duration": 22082}, {"note": 65, "velocity": 95, "duration": 265}, {"note": 0, "velocity": 0, "duration": 215}, {"note": 65, "velocity": 93, "duration": 234}, {"note": 63, "velocity": 93, "duration": 176}, {"note": 0, "velocity": 0, "duration": 64}, {"note": 67, "velocity": 93, "duration": 192}, {"note": 0, "velocity": 0, "duration": 288}, {"note": 67, "velocity": 93, "duration": 280}, {"note": 0, "velocity": 0, "duration": 200}, {"note": 65, "velocity": 93, "duration": 66}, {"note": 0, "velocity": 0, "duration": 174}, {"note": 65, "velocity": 93, "duration": 71}, {"note": 0, "velocity": 0, "duration": 169}, {"note": 65, "velocity": 93, "duration": 141}, {"note": 0, "velocity": 0, "duration": 99}, {"note": 63, "velocity": 93, "duration": 168}, {"note": 0, "velocity": 0, "duration": 72}, {"note": 67, "velocity": 93, "duration": 451}, {"note": 0, "velocity": 0, "duration": 509}, {"note": 65, "velocity": 93, "duration": 265}, {"note": 0, "velocity": 0, "duration": 215}, {"note": 65, "velocity": 93, "duration": 234}, {"note": 63, "velocity": 93, "duration": 176}, {"note": 0, "velocity": 0, "duration": 64}, {"note": 67, "velocity": 93, "duration": 192}, {"note": 0, "velocity": 0, "duration": 288}, {"note": 67, "velocity": 93, "duration": 280}, {"note": 0, "velocity": 0, "duration": 200}, {"note": 65, "velocity": 93, "duration": 66}, {"note": 0, "velocity": 0, "duration": 174}, {"note": 65, "velocity": 93, "duration": 71}, {"note": 0, "velocity": 0, "duration": 169}, {"note": 65, "velocity": 93, "duration": 141}, {"note": 0, "velocity": 0, "duration": 99}, {"note": 63, "velocity": 93, "duration": 168}, {"note": 0, "velocity": 0, "duration": 72}, {"note": 67, "velocity": 93, "duration": 451}, {"note": 0, "velocity": 0, "duration": 509}, {"note": 65, "velocity": 93, "duration": 229}, {"note": 67, "velocity": 93, "duration": 238}, {"note": 65, "velocity": 93, "duration": 243}, {"note": 63, "velocity": 93, "duration": 238}, {"note": 60, "velocity": 93, "duration": 450}, {"note": 58, "velocity": 93, "duration": 501}, {"note": 65, "velocity": 93, "duration": 238}, {"note": 67, "velocity": 93, "duration": 238}, {"note": 65, "velocity": 93, "duration": 243}, {"note": 63, "velocity": 93, "duration": 238}, {"note": 60, "velocity": 93, "duration": 450}, {"note": 58, "velocity": 93, "duration": 500}, {"note": 65, "velocity": 93, "duration": 238}, {"note": 67, "velocity": 93, "duration": 238}, {"note": 65, "velocity": 93, "duration": 244}, {"note": 63, "velocity": 93, "duration": 238}, {"note": 60, "velocity": 93, "duration": 450}, {"note": 58, "velocity": 93, "duration": 501}, {"note": 65, "velocity": 93, "duration": 118}, {"note": 0, "velocity": 0, "duration": 122}, {"note": 65, "velocity": 93, "duration": 118}, {"note": 0, "velocity": 0, "duration": 122}, {"note": 65, "velocity": 93, "duration": 238}, {"note": 63, "velocity": 93, "duration": 238}, {"note": 67, "velocity": 93, "duration": 533}, {"note": 0, "velocity": 0, "duration": 427}, {"note": 65, "velocity": 93, "duration": 358}, {"note": 0, "velocity": 0, "duration": 122}, {"note": 65, "velocity": 93, "duration": 233}, {"note": 63, "velocity": 93, "duration": 197}, {"note": 67, "velocity": 93, "duration": 358}, {"note": 0, "velocity": 0, "duration": 122}, {"note": 67, "velocity": 93, "duration": 399}, {"note": 0, "velocity": 0, "duration": 81}, {"note": 65, "velocity": 93, "duration": 129}, {"note": 0, "velocity": 0, "duration": 111}, {"note": 65, "velocity": 93, "duration": 120}, {"note": 0, "velocity": 0, "duration": 120}, {"note": 65, "velocity": 93, "duration": 258}, {"note": 63, "velocity": 93, "duration": 190}, {"note": 67, "velocity": 93, "duration": 478}, {"note": 0, "velocity": 0, "duration": 482}, {"note": 65, "velocity": 93, "duration": 358}, {"note": 0, "velocity": 0, "duration": 122}, {"note": 65, "velocity": 93, "duration": 233}, {"note": 63, "velocity": 93, "duration": 197}, {"note": 67, "velocity": 93, "duration": 358}, {"note": 0, "velocity": 0, "duration": 122}, {"note": 67, "velocity": 93, "duration": 399}, {"note": 0, "velocity": 0, "duration": 81}, {"note": 65, "velocity": 93, "duration": 129}, {"note": 0, "velocity": 0, "duration": 111}, {"note": 65, "velocity": 93, "duration": 120}, {"note": 0, "velocity": 0, "duration": 120}, {"note": 65, "velocity": 93, "duration": 258}, {"note": 63, "velocity": 93, "duration": 190}, {"note": 67, "velocity": 93, "duration": 478}, {"note": 0, "velocity": 0, "duration": 482}, {"note": 65, "velocity": 93, "duration": 229}, {"note": 67, "velocity": 93, "duration": 238}, {"note": 65, "velocity": 93, "duration": 243}, {"note": 63, "velocity": 93, "duration": 238}, {"note": 60, "velocity": 93, "duration": 450}, {"note": 58, "velocity": 93, "duration": 501}, {"note": 65, "velocity": 93, "duration": 238}, {"note": 67, "velocity": 93, "duration": 238}, {"note": 65, "velocity": 93, "duration": 243}, {"note": 63, "velocity": 93, "duration": 238}, {"note": 60, "velocity": 93, "duration": 450}, {"note": 58, "velocity": 93, "duration": 500}, {"note": 65, "velocity": 93, "duration": 238}, {"note": 67, "velocity": 93, "duration": 238}, {"note": 65, "velocity": 93, "duration": 244}, {"note": 63, "velocity": 93, "duration": 238}, {"note": 60, "velocity": 93, "duration": 450}, {"note": 58, "velocity": 93, "duration": 501}, {"note": 70, "velocity": 93, "duration": 358}, {"note": 0, "velocity": 0, "duration": 122}, {"note": 70, "velocity": 93, "duration": 358}, {"note": 0, "velocity": 0, "duration": 122}, {"note": 63, "velocity": 93, "duration": 238}, {"note": 65, "velocity": 93, "duration": 238}, {"note": 67, "velocity": 93, "duration": 238}, {"note": 70, "velocity": 93, "duration": 238}, {"note": 72, "velocity": 93, "duration": 958}, {"note": 0, "velocity": 0, "duration": 482}, {"note": 67, "velocity": 93, "duration": 187}, {"note": 65, "velocity": 93, "duration": 754}, {"note": 0, "velocity": 0, "duration": 446}, {"note": 63, "velocity": 93, "duration": 185}, {"note": 65, "velocity": 93, "duration": 268}, {"note": 67, "velocity": 93, "duration": 209}, {"note": 72, "velocity": 93, "duration": 231}, {"note": 70, "velocity": 93, "duration": 1399}, {"note": 65, "velocity": 93, "duration": 257}, {"note": 63, "velocity": 93, "duration": 238}, {"note": 60, "velocity": 93, "duration": 939}, {"note": 58, "velocity": 93, "duration": 199}, {"note": 60, "velocity": 93, "duration": 238}, {"note": 70, "velocity": 93, "duration": 463}, {"note": 68, "velocity": 93, "duration": 429}, {"note": 67, "velocity": 93, "duration": 212}, {"note": 68, "velocity": 93, "duration": 450}, {"note": 67, "velocity": 93, "duration": 236}, {"note": 68, "velocity": 93, "duration": 478}, {"note": 67, "velocity": 93, "duration": 236}, {"note": 68, "velocity": 93, "duration": 478}, {"note": 0, "velocity": 0, "duration": 242}, {"note": 67, "velocity": 93, "duration": 244}, {"note": 65, "velocity": 93, "duration": 197}, {"note": 63, "velocity": 93, "duration": 238}, {"note": 67, "velocity": 93, "duration": 1049}, {"note": 0, "velocity": 0, "duration": 391}, {"note": 68, "velocity": 84, "duration": 403}, {"note": 0, "velocity": 0, "duration": 77}, {"note": 70, "velocity": 80, "duration": 805}, {"note": 0, "velocity": 0, "duration": 395}, {"note": 63, "velocity": 93, "duration": 238}, {"note": 65, "velocity": 93, "duration": 238}, {"note": 67, "velocity": 93, "duration": 238}, {"note": 70, "velocity": 93, "duration": 238}, {"note": 72, "velocity": 95, "duration": 958}, {"note": 0, "velocity": 0, "duration": 482}, {"note": 67, "velocity": 95, "duration": 187}, {"note": 65, "velocity": 97, "duration": 754}, {"note": 0, "velocity": 0, "duration": 446}, {"note": 63, "velocity": 97, "duration": 185}, {"note": 65, "velocity": 97, "duration": 268}, {"note": 67, "velocity": 97, "duration": 209}, {"note": 72, "velocity": 97, "duration": 231}, {"note": 70, "velocity": 97, "duration": 478}, {"note": 0, "velocity": 0, "duration": 242}, {"note": 70, "velocity": 92, "duration": 605}, {"note": 0, "velocity": 0, "duration": 115}, {"note": 65, "velocity": 97, "duration": 257}, {"note": 63, "velocity": 97, "duration": 238}, {"note": 60, "velocity": 97, "duration": 939}, {"note": 58, "velocity": 97, "duration": 199}, {"note": 60, "velocity": 97, "duration": 238}, {"note": 70, "velocity": 97, "duration": 463}, {"note": 68, "velocity": 97, "duration": 429}, {"note": 67, "velocity": 97, "duration": 212}, {"note": 68, "velocity": 97, "duration": 450}, {"note": 67, "velocity": 97, "duration": 236}, {"note": 68, "velocity": 97, "duration": 478}, {"note": 67, "velocity": 97, "duration": 236}, {"note": 68, "velocity": 97, "duration": 478}, {"note": 67, "velocity": 97, "duration": 242}, {"note": 65, "velocity": 95, "duration": 246}, {"note": 63, "velocity": 95, "duration": 219}, {"note": 60, "velocity": 95, "duration": 157}, {"note": 0, "velocity": 0, "duration": 83}, {"note": 63, "velocity": 95, "duration": 107}, {"note": 0, "velocity": 0, "duration": 133}, {"note": 63, "velocity": 95, "duration": 958}, {"note": 0, "velocity": 0, "duration": 13419}, {"note": 63, "velocity": 95, "duration": 238}, {"note": 65, "velocity": 95, "duration": 238}, {"note": 67, "velocity": 95, "duration": 238}, {"note": 70, "velocity": 95, "duration": 238}, {"note": 72, "velocity": 95, "duration": 958}, {"note": 0, "velocity": 0, "duration": 482}, {"note": 67, "velocity": 95, "duration": 187}, {"note": 65, "velocity": 93, "duration": 754}, {"note": 0, "velocity": 0, "duration": 446}, {"note": 63, "velocity": 93, "duration": 185}, {"note": 65, "velocity": 93, "duration": 268}, {"note": 67, "velocity": 93, "duration": 209}, {"note": 72, "velocity": 93, "duration": 231}, {"note": 70, "velocity": 93, "duration": 1198}, {"note": 58, "velocity": 93, "duration": 238}, {"note": 65, "velocity": 93, "duration": 257}, {"note": 63, "velocity": 93, "duration": 238}, {"note": 60, "velocity": 93, "duration": 939}, {"note": 58, "velocity": 93, "duration": 199}, {"note": 60, "velocity": 93, "duration": 238}, {"note": 70, "velocity": 93, "duration": 463}, {"note": 68, "velocity": 93, "duration": 429}, {"note": 67, "velocity": 93, "duration": 212}, {"note": 68, "velocity": 93, "duration": 449}, {"note": 67, "velocity": 93, "duration": 235}, {"note": 68, "velocity": 93, "duration": 478}, {"note": 67, "velocity": 93, "duration": 235}, {"note": 68, "velocity": 93, "duration": 478}, {"note": 0, "velocity": 0, "duration": 242}, {"note": 67, "velocity": 93, "duration": 244}, {"note": 65, "velocity": 93, "duration": 196}, {"note": 63, "velocity": 93, "duration": 238}, {"note": 67, "velocity": 93, "duration": 1049}, {"note": 0, "velocity": 0, "duration": 372}, {"note": 68, "velocity": 80, "duration": 352}, {"note": 0, "velocity": 0, "duration": 124}, {"note": 70, "velocity": 104, "duration": 804}, {"note": 0, "velocity": 0, "duration": 419}, {"note": 63, "velocity": 95, "duration": 238}, {"note": 65, "velocity": 95, "duration": 238}, {"note": 67, "velocity": 95, "duration": 238}, {"note": 70, "velocity": 95, "duration": 238}, {"note": 72, "velocity": 95, "duration": 958}, {"note": 0, "velocity": 0, "duration": 482}, {"note": 67, "velocity": 95, "duration": 187}, {"note": 65, "velocity": 95, "duration": 754}, {"note": 0, "velocity": 0, "duration": 446}, {"note": 63, "velocity": 98, "duration": 185}, {"note": 65, "velocity": 98, "duration": 268}, {"note": 67, "velocity": 98, "duration": 209}, {"note": 72, "velocity": 98, "duration": 231}, {"note": 70, "velocity": 98, "duration": 478}, {"note": 0, "velocity": 0, "duration": 242}, {"note": 70, "velocity": 98, "duration": 679}, {"note": 65, "velocity": 98, "duration": 257}, {"note": 63, "velocity": 98, "duration": 238}, {"note": 60, "velocity": 98, "duration": 939}, {"note": 58, "velocity": 98, "duration": 199}, {"note": 60, "velocity": 98, "duration": 238}, {"note": 70, "velocity": 98, "duration": 463}, {"note": 68, "velocity": 97, "duration": 429}, {"note": 67, "velocity": 97, "duration": 212}, {"note": 68, "velocity": 97, "duration": 449}, {"note": 67, "velocity": 97, "duration": 235}, {"note": 68, "velocity": 97, "duration": 478}, {"note": 67, "velocity": 97, "duration": 235}, {"note": 68, "velocity": 97, "duration": 478}, {"note": 67, "velocity": 97, "duration": 242}, {"note": 65, "velocity": 97, "duration": 246}, {"note": 63, "velocity": 97, "duration": 219}, {"note": 60, "velocity": 97, "duration": 156}, {"note": 0, "velocity": 0, "duration": 84}, {"note": 63, "velocity": 97, "duration": 107}, {"note": 0, "velocity": 0, "duration": 133}, {"note": 63, "velocity": 97, "duration": 958}]]