[[{"note": 74, "velocity": 85, "duration": 201}, {"note": 72, "velocity": 82, "duration": 181}, {"note": 74, "velocity": 84, "duration": 547}, {"note": 0, "velocity": 0, "duration": 173}, {"note": 77, "velocity": 80, "duration": 179}, {"note": 0, "velocity": 0, "duration": 61}, {"note": 79, "velocity": 78, "duration": 194}, {"note": 77, "velocity": 84, "duration": 225}, {"note": 74, "velocity": 83, "duration": 79}, {"note": 72, "velocity": 73, "duration": 108}, {"note": 70, "velocity": 83, "duration": 120}, {"note": 72, "velocity": 83, "duration": 120}, {"note": 74, "velocity": 84, "duration": 1066}, {"note": 0, "velocity": 0, "duration": 374}, {"note": 72, "velocity": 77, "duration": 151}, {"note": 74, "velocity": 82, "duration": 295}, {"note": 0, "velocity": 0, "duration": 65}, {"note": 72, "velocity": 77, "duration": 609}, {"note": 0, "velocity": 0, "duration": 111}, {"note": 74, "velocity": 84, "duration": 179}, {"note": 0, "velocity": 0, "duration": 61}, {"note": 72, "velocity": 79, "duration": 202}, {"note": 70, "velocity": 82, "duration": 232}, {"note": 67, "velocity": 79, "duration": 240}, {"note": 70, "velocity": 76, "duration": 240}, {"note": 67, "velocity": 79, "duration": 240}, {"note": 65, "velocity": 69, "duration": 1026}, {"note": 0, "velocity": 0, "duration": 414}, {"note": 65, "velocity": 81, "duration": 95}, {"note": 67, "velocity": 77, "duration": 68}, {"note": 70, "velocity": 83, "duration": 338}, {"note": 70, "velocity": 87, "duration": 281}, {"note": 0, "velocity": 0, "duration": 79}, {"note": 72, "velocity": 84, "duration": 74}, {"note": 74, "velocity": 83, "duration": 82}, {"note": 77, "velocity": 64, "duration": 285}, {"note": 0, "velocity": 0, "duration": 75}, {"note": 77, "velocity": 83, "duration": 288}, {"note": 0, "velocity": 0, "duration": 72}, {"note": 74, "velocity": 83, "duration": 84}, {"note": 77, "velocity": 71, "duration": 85}, {"note": 79, "velocity": 84, "duration": 327}, {"note": 0, "velocity": 0, "duration": 393}, {"note": 79, "velocity": 77, "duration": 114}, {"note": 77, "velocity": 75, "duration": 116}, {"note": 74, "velocity": 83, "duration": 498}, {"note": 0, "velocity": 0, "duration": 222}, {"note": 72, "velocity": 83, "duration": 79}, {"note": 74, "velocity": 83, "duration": 71}, {"note": 72, "velocity": 83, "duration": 608}, {"note": 0, "velocity": 0, "duration": 112}, {"note": 70, "velocity": 83, "duration": 225}, {"note": 67, "velocity": 82, "duration": 197}, {"note": 70, "velocity": 83, "duration": 228}, {"note": 77, "velocity": 82, "duration": 218}, {"note": 74, "velocity": 82, "duration": 244}, {"note": 72, "velocity": 78, "duration": 1273}, {"note": 0, "velocity": 0, "duration": 167}, {"note": 74, "velocity": 85, "duration": 201}, {"note": 72, "velocity": 82, "duration": 181}, {"note": 74, "velocity": 84, "duration": 547}, {"note": 0, "velocity": 0, "duration": 173}, {"note": 77, "velocity": 80, "duration": 179}, {"note": 0, "velocity": 0, "duration": 61}, {"note": 79, "velocity": 78, "duration": 194}, {"note": 77, "velocity": 84, "duration": 225}, {"note": 74, "velocity": 83, "duration": 79}, {"note": 72, "velocity": 73, "duration": 108}, {"note": 70, "velocity": 83, "duration": 120}, {"note": 72, "velocity": 83, "duration": 120}, {"note": 74, "velocity": 84, "duration": 1066}, {"note": 0, "velocity": 0, "duration": 374}, {"note": 72, "velocity": 77, "duration": 151}, {"note": 0, "velocity": 0, "duration": 89}, {"note": 74, "velocity": 82, "duration": 240}, {"note": 72, "velocity": 77, "duration": 609}, {"note": 0, "velocity": 0, "duration": 111}, {"note": 74, "velocity": 84, "duration": 179}, {"note": 0, "velocity": 0, "duration": 61}, {"note": 72, "velocity": 79, "duration": 202}, {"note": 70, "velocity": 82, "duration": 232}, {"note": 67, "velocity": 79, "duration": 240}, {"note": 70, "velocity": 76, "duration": 240}, {"note": 67, "velocity": 79, "duration": 240}, {"note": 65, "velocity": 69, "duration": 1026}, {"note": 0, "velocity": 0, "duration": 414}, {"note": 65, "velocity": 81, "duration": 95}, {"note": 67, "velocity": 77, "duration": 68}, {"note": 70, "velocity": 83, "duration": 338}, {"note": 70, "velocity": 87, "duration": 281}, {"note": 0, "velocity": 0, "duration": 79}, {"note": 72, "velocity": 84, "duration": 74}, {"note": 74, "velocity": 83, "duration": 82}, {"note": 77, "velocity": 64, "duration": 285}, {"note": 0, "velocity": 0, "duration": 75}, {"note": 77, "velocity": 83, "duration": 288}, {"note": 0, "velocity": 0, "duration": 72}, {"note": 74, "velocity": 83, "duration": 84}, {"note": 77, "velocity": 71, "duration": 85}, {"note": 79, "velocity": 84, "duration": 327}, {"note": 0, "velocity": 0, "duration": 393}, {"note": 79, "velocity": 77, "duration": 114}, {"note": 77, "velocity": 75, "duration": 116}, {"note": 74, "velocity": 83, "duration": 498}, {"note": 0, "velocity": 0, "duration": 222}, {"note": 72, "velocity": 83, "duration": 79}, {"note": 74, "velocity": 83, "duration": 71}, {"note": 72, "velocity": 83, "duration": 608}, {"note": 0, "velocity": 0, "duration": 112}, {"note": 74, "velocity": 87, "duration": 195}, {"note": 79, "velocity": 82, "duration": 160}, {"note": 0, "velocity": 0, "duration": 80}, {"note": 77, "velocity": 78, "duration": 223}, {"note": 74, "velocity": 83, "duration": 187}, {"note": 72, "velocity": 73, "duration": 480}, {"note": 70, "velocity": 73, "duration": 1186}, {"note": 74, "velocity": 84, "duration": 183}, {"note": 74, "velocity": 87, "duration": 183}, {"note": 77, "velocity": 83, "duration": 324}, {"note": 79, "velocity": 80, "duration": 983}, {"note": 0, "velocity": 0, "duration": 97}, {"note": 79, "velocity": 84, "duration": 208}, {"note": 77, "velocity": 82, "duration": 235}, {"note": 74, "velocity": 86, "duration": 1160}, {"note": 0, "velocity": 0, "duration": 280}, {"note": 77, "velocity": 73, "duration": 197}, {"note": 74, "velocity": 83, "duration": 197}, {"note": 72, "velocity": 83, "duration": 637}, {"note": 0, "velocity": 0, "duration": 83}, {"note": 70, "velocity": 86, "duration": 226}, {"note": 67, "velocity": 78, "duration": 409}, {"note": 0, "velocity": 0, "duration": 71}, {"note": 70, "velocity": 79, "duration": 208}, {"note": 72, "velocity": 78, "duration": 179}, {"note": 0, "velocity": 0, "duration": 61}, {"note": 74, "velocity": 85, "duration": 1141}, {"note": 0, "velocity": 0, "duration": 299}, {"note": 74, "velocity": 88, "duration": 177}, {"note": 0, "velocity": 0, "duration": 63}, {"note": 74, "velocity": 89, "duration": 193}, {"note": 77, "velocity": 83, "duration": 234}, {"note": 79, "velocity": 81, "duration": 1001}, {"note": 0, "velocity": 0, "duration": 199}, {"note": 82, "velocity": 84, "duration": 277}, {"note": 79, "velocity": 86, "duration": 223}, {"note": 77, "velocity": 82, "duration": 1245}, {"note": 0, "velocity": 0, "duration": 195}, {"note": 77, "velocity": 79, "duration": 185}, {"note": 79, "velocity": 80, "duration": 183}, {"note": 82, "velocity": 78, "duration": 265}, {"note": 0, "velocity": 0, "duration": 95}, {"note": 82, "velocity": 81, "duration": 63}, {"note": 82, "velocity": 82, "duration": 212}, {"note": 79, "velocity": 82, "duration": 249}, {"note": 86, "velocity": 82, "duration": 480}, {"note": 86, "velocity": 83, "duration": 344}, {"note": 84, "velocity": 83, "duration": 147}, {"note": 82, "velocity": 78, "duration": 228}, {"note": 84, "velocity": 82, "duration": 1034}, {"note": 0, "velocity": 0, "duration": 166}, {"note": 82, "velocity": 83, "duration": 179}, {"note": 0, "velocity": 0, "duration": 61}, {"note": 82, "velocity": 82, "duration": 192}, {"note": 84, "velocity": 84, "duration": 319}, {"note": 86, "velocity": 82, "duration": 963}, {"note": 0, "velocity": 0, "duration": 117}, {"note": 86, "velocity": 84, "duration": 318}, {"note": 84, "velocity": 77, "duration": 123}, {"note": 82, "velocity": 84, "duration": 258}, {"note": 79, "velocity": 78, "duration": 989}, {"note": 0, "velocity": 0, "duration": 211}, {"note": 79, "velocity": 83, "duration": 251}, {"note": 82, "velocity": 83, "duration": 228}, {"note": 79, "velocity": 83, "duration": 228}, {"note": 77, "velocity": 76, "duration": 429}, {"note": 79, "velocity": 82, "duration": 240}, {"note": 77, "velocity": 78, "duration": 204}, {"note": 74, "velocity": 84, "duration": 186}, {"note": 72, "velocity": 83, "duration": 221}, {"note": 74, "velocity": 84, "duration": 244}, {"note": 72, "velocity": 77, "duration": 249}, {"note": 70, "velocity": 80, "duration": 1407}, {"note": 0, "velocity": 0, "duration": 15153}, {"note": 74, "velocity": 85, "duration": 201}, {"note": 72, "velocity": 82, "duration": 181}, {"note": 74, "velocity": 84, "duration": 547}, {"note": 0, "velocity": 0, "duration": 173}, {"note": 77, "velocity": 80, "duration": 179}, {"note": 0, "velocity": 0, "duration": 61}, {"note": 79, "velocity": 78, "duration": 194}, {"note": 77, "velocity": 84, "duration": 225}, {"note": 74, "velocity": 83, "duration": 79}, {"note": 72, "velocity": 73, "duration": 108}, {"note": 70, "velocity": 83, "duration": 120}, {"note": 72, "velocity": 83, "duration": 120}, {"note": 74, "velocity": 84, "duration": 1066}, {"note": 0, "velocity": 0, "duration": 374}, {"note": 72, "velocity": 77, "duration": 151}, {"note": 0, "velocity": 0, "duration": 89}, {"note": 74, "velocity": 82, "duration": 240}, {"note": 72, "velocity": 77, "duration": 609}, {"note": 0, "velocity": 0, "duration": 111}, {"note": 74, "velocity": 84, "duration": 179}, {"note": 0, "velocity": 0, "duration": 61}, {"note": 72, "velocity": 79, "duration": 202}, {"note": 70, "velocity": 82, "duration": 232}, {"note": 67, "velocity": 79, "duration": 240}, {"note": 70, "velocity": 76, "duration": 240}, {"note": 67, "velocity": 79, "duration": 240}, {"note": 65, "velocity": 69, "duration": 1026}, {"note": 0, "velocity": 0, "duration": 414}, {"note": 65, "velocity": 81, "duration": 95}, {"note": 67, "velocity": 77, "duration": 68}, {"note": 70, "velocity": 83, "duration": 338}, {"note": 70, "velocity": 87, "duration": 281}, {"note": 0, "velocity": 0, "duration": 79}, {"note": 72, "velocity": 84, "duration": 74}, {"note": 74, "velocity": 83, "duration": 82}, {"note": 77, "velocity": 64, "duration": 285}, {"note": 0, "velocity": 0, "duration": 75}, {"note": 77, "velocity": 83, "duration": 288}, {"note": 0, "velocity": 0, "duration": 72}, {"note": 74, "velocity": 83, "duration": 84}, {"note": 77, "velocity": 71, "duration": 85}, {"note": 79, "velocity": 84, "duration": 327}, {"note": 0, "velocity": 0, "duration": 393}, {"note": 79, "velocity": 77, "duration": 114}, {"note": 77, "velocity": 75, "duration": 116}, {"note": 74, "velocity": 83, "duration": 498}, {"note": 0, "velocity": 0, "duration": 222}, {"note": 72, "velocity": 83, "duration": 79}, {"note": 74, "velocity": 83, "duration": 71}, {"note": 72, "velocity": 83, "duration": 608}, {"note": 0, "velocity": 0, "duration": 112}, {"note": 74, "velocity": 87, "duration": 195}, {"note": 79, "velocity": 82, "duration": 160}, {"note": 0, "velocity": 0, "duration": 80}, {"note": 77, "velocity": 78, "duration": 223}, {"note": 74, "velocity": 83, "duration": 187}, {"note": 72, "velocity": 73, "duration": 480}, {"note": 70, "velocity": 73, "duration": 1186}, {"note": 74, "velocity": 84, "duration": 183}, {"note": 74, "velocity": 87, "duration": 183}, {"note": 77, "velocity": 83, "duration": 324}, {"note": 79, "velocity": 80, "duration": 983}, {"note": 0, "velocity": 0, "duration": 97}, {"note": 79, "velocity": 84, "duration": 208}, {"note": 77, "velocity": 82, "duration": 235}, {"note": 74, "velocity": 86, "duration": 1160}, {"note": 0, "velocity": 0, "duration": 280}, {"note": 77, "velocity": 73, "duration": 197}, {"note": 74, "velocity": 83, "duration": 197}, {"note": 72, "velocity": 83, "duration": 637}, {"note": 0, "velocity": 0, "duration": 83}, {"note": 70, "velocity": 86, "duration": 226}, {"note": 67, "velocity": 78, "duration": 409}, {"note": 0, "velocity": 0, "duration": 71}, {"note": 70, "velocity": 79, "duration": 208}, {"note": 72, "velocity": 78, "duration": 179}, {"note": 0, "velocity": 0, "duration": 61}, {"note": 74, "velocity": 85, "duration": 1141}, {"note": 0, "velocity": 0, "duration": 299}, {"note": 74, "velocity": 88, "duration": 177}, {"note": 0, "velocity": 0, "duration": 63}, {"note": 74, "velocity": 89, "duration": 193}, {"note": 77, "velocity": 83, "duration": 234}, {"note": 79, "velocity": 81, "duration": 1001}, {"note": 0, "velocity": 0, "duration": 199}, {"note": 82, "velocity": 84, "duration": 277}, {"note": 79, "velocity": 86, "duration": 223}, {"note": 77, "velocity": 82, "duration": 1245}, {"note": 0, "velocity": 0, "duration": 195}, {"note": 77, "velocity": 79, "duration": 185}, {"note": 79, "velocity": 80, "duration": 183}, {"note": 82, "velocity": 78, "duration": 265}, {"note": 0, "velocity": 0, "duration": 95}, {"note": 82, "velocity": 81, "duration": 63}, {"note": 82, "velocity": 82, "duration": 212}, {"note": 79, "velocity": 82, "duration": 249}, {"note": 86, "velocity": 82, "duration": 480}, {"note": 86, "velocity": 83, "duration": 344}, {"note": 84, "velocity": 83, "duration": 147}, {"note": 82, "velocity": 78, "duration": 228}, {"note": 84, "velocity": 82, "duration": 1034}, {"note": 0, "velocity": 0, "duration": 166}, {"note": 82, "velocity": 83, "duration": 179}, {"note": 0, "velocity": 0, "duration": 61}, {"note": 82, "velocity": 82, "duration": 192}, {"note": 84, "velocity": 84, "duration": 319}, {"note": 86, "velocity": 82, "duration": 963}, {"note": 0, "velocity": 0, "duration": 117}, {"note": 86, "velocity": 84, "duration": 318}, {"note": 84, "velocity": 77, "duration": 123}, {"note": 82, "velocity": 84, "duration": 258}, {"note": 79, "velocity": 78, "duration": 989}, {"note": 0, "velocity": 0, "duration": 211}, {"note": 79, "velocity": 83, "duration": 251}, {"note": 82, "velocity": 83, "duration": 228}, {"note": 79, "velocity": 83, "duration": 228}, {"note": 77, "velocity": 76, "duration": 429}, {"note": 79, "velocity": 82, "duration": 240}, {"note": 77, "velocity": 78, "duration": 204}, {"note": 74, "velocity": 84, "duration": 186}, {"note": 72, "velocity": 83, "duration": 221}, {"note": 74, "velocity": 84, "duration": 244}, {"note": 72, "velocity": 77, "duration": 249}, {"note": 70, "velocity": 80, "duration": 1407}, {"note": 74, "velocity": 84, "duration": 183}, {"note": 74, "velocity": 87, "duration": 183}, {"note": 77, "velocity": 83, "duration": 324}, {"note": 79, "velocity": 80, "duration": 983}, {"note": 0, "velocity": 0, "duration": 97}, {"note": 79, "velocity": 84, "duration": 208}, {"note": 77, "velocity": 82, "duration": 235}, {"note": 74, "velocity": 86, "duration": 1160}, {"note": 0, "velocity": 0, "duration": 280}, {"note": 77, "velocity": 73, "duration": 197}, {"note": 74, "velocity": 83, "duration": 197}, {"note": 72, "velocity": 83, "duration": 637}, {"note": 0, "velocity": 0, "duration": 83}, {"note": 70, "velocity": 86, "duration": 226}, {"note": 67, "velocity": 78, "duration": 409}, {"note": 0, "velocity": 0, "duration": 71}, {"note": 70, "velocity": 79, "duration": 208}, {"note": 72, "velocity": 78, "duration": 179}, {"note": 0, "velocity": 0, "duration": 61}, {"note": 74, "velocity": 85, "duration": 1141}, {"note": 0, "velocity": 0, "duration": 299}, {"note": 74, "velocity": 88, "duration": 177}, {"note": 0, "velocity": 0, "duration": 63}, {"note": 74, "velocity": 89, "duration": 193}, {"note": 77, "velocity": 83, "duration": 234}, {"note": 79, "velocity": 81, "duration": 1001}, {"note": 0, "velocity": 0, "duration": 199}, {"note": 82, "velocity": 84, "duration": 277}, {"note": 79, "velocity": 86, "duration": 223}, {"note": 77, "velocity": 82, "duration": 1245}, {"note": 0, "velocity": 0, "duration": 195}, {"note": 77, "velocity": 79, "duration": 185}, {"note": 79, "velocity": 80, "duration": 183}, {"note": 82, "velocity": 78, "duration": 265}, {"note": 0, "velocity": 0, "duration": 95}, {"note": 82, "velocity": 81, "duration": 63}, {"note": 82, "velocity": 82, "duration": 212}, {"note": 79, "velocity": 82, "duration": 249}, {"note": 86, "velocity": 82, "duration": 480}, {"note": 86, "velocity": 83, "duration": 344}, {"note": 84, "velocity": 83, "duration": 147}, {"note": 82, "velocity": 78, "duration": 228}, {"note": 84, "velocity": 82, "duration": 1034}, {"note": 0, "velocity": 0, "duration": 166}, {"note": 82, "velocity": 83, "duration": 179}, {"note": 0, "velocity": 0, "duration": 61}, {"note": 82, "velocity": 82, "duration": 192}, {"note": 84, "velocity": 84, "duration": 319}, {"note": 86, "velocity": 82, "duration": 963}, {"note": 0, "velocity": 0, "duration": 117}, {"note": 86, "velocity": 84, "duration": 318}, {"note": 84, "velocity": 77, "duration": 123}, {"note": 82, "velocity": 84, "duration": 258}, {"note": 79, "velocity": 78, "duration": 989}, {"note": 0, "velocity": 0, "duration": 211}, {"note": 79, "velocity": 83, "duration": 251}, {"note": 82, "velocity": 83, "duration": 228}, {"note": 79, "velocity": 83, "duration": 228}, {"note": 77, "velocity": 76, "duration": 429}, {"note": 79, "velocity": 82, "duration": 240}, {"note": 77, "velocity": 78, "duration": 204}, {"note": 74, "velocity": 84, "duration": 186}, {"note": 72, "velocity": 83, "duration": 221}, {"note": 74, "velocity": 84, "duration": 244}, {"note": 72, "velocity": 77, "duration": 249}, {"note": 70, "velocity": 80, "duration": 1407}]]