[[{"note": 66, "velocity": 85, "duration": 215}, {"note": 71, "velocity": 84, "duration": 366}, {"note": 0, "velocity": 0, "duration": 114}, {"note": 71, "velocity": 87, "duration": 371}, {"note": 0, "velocity": 0, "duration": 109}, {"note": 71, "velocity": 85, "duration": 386}, {"note": 0, "velocity": 0, "duration": 94}, {"note": 73, "velocity": 81, "duration": 170}, {"note": 0, "velocity": 0, "duration": 70}, {"note": 74, "velocity": 85, "duration": 156}, {"note": 0, "velocity": 0, "duration": 84}, {"note": 73, "velocity": 90, "duration": 180}, {"note": 71, "velocity": 85, "duration": 189}, {"note": 69, "velocity": 85, "duration": 327}, {"note": 0, "velocity": 0, "duration": 153}, {"note": 69, "velocity": 84, "duration": 350}, {"note": 0, "velocity": 0, "duration": 130}, {"note": 71, "velocity": 85, "duration": 192}, {"note": 73, "velocity": 85, "duration": 241}, {"note": 71, "velocity": 85, "duration": 362}, {"note": 0, "velocity": 0, "duration": 118}, {"note": 66, "velocity": 88, "duration": 368}, {"note": 0, "velocity": 0, "duration": 112}, {"note": 66, "velocity": 85, "duration": 422}, {"note": 0, "velocity": 0, "duration": 298}, {"note": 64, "velocity": 87, "duration": 240}, {"note": 66, "velocity": 86, "duration": 1440}, {"note": 0, "velocity": 0, "duration": 480}, {"note": 69, "velocity": 83, "duration": 350}, {"note": 0, "velocity": 0, "duration": 130}, {"note": 69, "velocity": 85, "duration": 405}, {"note": 0, "velocity": 0, "duration": 75}, {"note": 69, "velocity": 83, "duration": 175}, {"note": 0, "velocity": 0, "duration": 65}, {"note": 66, "velocity": 82, "duration": 212}, {"note": 64, "velocity": 88, "duration": 215}, {"note": 66, "velocity": 78, "duration": 196}, {"note": 69, "velocity": 82, "duration": 375}, {"note": 0, "velocity": 0, "duration": 105}, {"note": 71, "velocity": 79, "duration": 173}, {"note": 0, "velocity": 0, "duration": 67}, {"note": 73, "velocity": 83, "duration": 169}, {"note": 0, "velocity": 0, "duration": 71}, {"note": 74, "velocity": 86, "duration": 387}, {"note": 0, "velocity": 0, "duration": 93}, {"note": 73, "velocity": 87, "duration": 220}, {"note": 71, "velocity": 83, "duration": 232}, {"note": 73, "velocity": 86, "duration": 454}, {"note": 69, "velocity": 78, "duration": 152}, {"note": 0, "velocity": 0, "duration": 88}, {"note": 69, "velocity": 82, "duration": 151}, {"note": 0, "velocity": 0, "duration": 89}, {"note": 69, "velocity": 83, "duration": 165}, {"note": 0, "velocity": 0, "duration": 75}, {"note": 71, "velocity": 84, "duration": 161}, {"note": 0, "velocity": 0, "duration": 79}, {"note": 73, "velocity": 83, "duration": 420}, {"note": 71, "velocity": 83, "duration": 1515}, {"note": 0, "velocity": 0, "duration": 405}, {"note": 73, "velocity": 85, "duration": 376}, {"note": 0, "velocity": 0, "duration": 104}, {"note": 73, "velocity": 84, "duration": 454}, {"note": 74, "velocity": 84, "duration": 382}, {"note": 0, "velocity": 0, "duration": 98}, {"note": 74, "velocity": 86, "duration": 376}, {"note": 0, "velocity": 0, "duration": 104}, {"note": 76, "velocity": 85, "duration": 378}, {"note": 0, "velocity": 0, "duration": 102}, {"note": 76, "velocity": 84, "duration": 240}, {"note": 76, "velocity": 84, "duration": 240}, {"note": 78, "velocity": 84, "duration": 484}, {"note": 76, "velocity": 88, "duration": 211}, {"note": 78, "velocity": 84, "duration": 206}, {"note": 81, "velocity": 84, "duration": 346}, {"note": 0, "velocity": 0, "duration": 134}, {"note": 81, "velocity": 84, "duration": 379}, {"note": 0, "velocity": 0, "duration": 101}, {"note": 78, "velocity": 94, "duration": 644}, {"note": 0, "velocity": 0, "duration": 76}, {"note": 76, "velocity": 85, "duration": 480}, {"note": 74, "velocity": 87, "duration": 1467}, {"note": 0, "velocity": 0, "duration": 213}, {"note": 78, "velocity": 87, "duration": 414}, {"note": 0, "velocity": 0, "duration": 66}, {"note": 74, "velocity": 89, "duration": 341}, {"note": 0, "velocity": 0, "duration": 139}, {"note": 76, "velocity": 83, "duration": 370}, {"note": 0, "velocity": 0, "duration": 110}, {"note": 73, "velocity": 89, "duration": 390}, {"note": 0, "velocity": 0, "duration": 90}, {"note": 74, "velocity": 85, "duration": 170}, {"note": 0, "velocity": 0, "duration": 70}, {"note": 76, "velocity": 79, "duration": 200}, {"note": 74, "velocity": 88, "duration": 241}, {"note": 73, "velocity": 81, "duration": 250}, {"note": 71, "velocity": 84, "duration": 393}, {"note": 0, "velocity": 0, "duration": 87}, {"note": 73, "velocity": 78, "duration": 174}, {"note": 0, "velocity": 0, "duration": 66}, {"note": 74, "velocity": 84, "duration": 206}, {"note": 73, "velocity": 81, "duration": 488}, {"note": 69, "velocity": 84, "duration": 360}, {"note": 0, "velocity": 0, "duration": 120}, {"note": 69, "velocity": 83, "duration": 171}, {"note": 0, "velocity": 0, "duration": 69}, {"note": 71, "velocity": 79, "duration": 165}, {"note": 0, "velocity": 0, "duration": 75}, {"note": 73, "velocity": 84, "duration": 443}, {"note": 71, "velocity": 84, "duration": 1440}, {"note": 0, "velocity": 0, "duration": 240}, {"note": 66, "velocity": 85, "duration": 215}, {"note": 71, "velocity": 84, "duration": 366}, {"note": 0, "velocity": 0, "duration": 114}, {"note": 71, "velocity": 87, "duration": 371}, {"note": 0, "velocity": 0, "duration": 109}, {"note": 71, "velocity": 85, "duration": 386}, {"note": 0, "velocity": 0, "duration": 94}, {"note": 73, "velocity": 81, "duration": 170}, {"note": 0, "velocity": 0, "duration": 70}, {"note": 74, "velocity": 85, "duration": 156}, {"note": 0, "velocity": 0, "duration": 84}, {"note": 73, "velocity": 90, "duration": 180}, {"note": 71, "velocity": 85, "duration": 189}, {"note": 69, "velocity": 85, "duration": 327}, {"note": 0, "velocity": 0, "duration": 153}, {"note": 69, "velocity": 84, "duration": 350}, {"note": 0, "velocity": 0, "duration": 130}, {"note": 71, "velocity": 85, "duration": 192}, {"note": 73, "velocity": 85, "duration": 241}, {"note": 71, "velocity": 85, "duration": 362}, {"note": 0, "velocity": 0, "duration": 118}, {"note": 66, "velocity": 88, "duration": 368}, {"note": 0, "velocity": 0, "duration": 112}, {"note": 66, "velocity": 85, "duration": 422}, {"note": 0, "velocity": 0, "duration": 298}, {"note": 64, "velocity": 87, "duration": 240}, {"note": 66, "velocity": 86, "duration": 1440}, {"note": 0, "velocity": 0, "duration": 480}, {"note": 69, "velocity": 83, "duration": 350}, {"note": 0, "velocity": 0, "duration": 130}, {"note": 69, "velocity": 85, "duration": 405}, {"note": 0, "velocity": 0, "duration": 75}, {"note": 69, "velocity": 83, "duration": 175}, {"note": 0, "velocity": 0, "duration": 65}, {"note": 66, "velocity": 82, "duration": 212}, {"note": 64, "velocity": 88, "duration": 215}, {"note": 66, "velocity": 78, "duration": 196}, {"note": 69, "velocity": 82, "duration": 375}, {"note": 0, "velocity": 0, "duration": 105}, {"note": 71, "velocity": 79, "duration": 173}, {"note": 0, "velocity": 0, "duration": 67}, {"note": 73, "velocity": 83, "duration": 169}, {"note": 0, "velocity": 0, "duration": 71}, {"note": 74, "velocity": 86, "duration": 387}, {"note": 0, "velocity": 0, "duration": 93}, {"note": 73, "velocity": 87, "duration": 220}, {"note": 71, "velocity": 83, "duration": 232}, {"note": 73, "velocity": 86, "duration": 454}, {"note": 69, "velocity": 78, "duration": 152}, {"note": 0, "velocity": 0, "duration": 88}, {"note": 69, "velocity": 82, "duration": 151}, {"note": 0, "velocity": 0, "duration": 89}, {"note": 69, "velocity": 83, "duration": 165}, {"note": 0, "velocity": 0, "duration": 75}, {"note": 71, "velocity": 84, "duration": 161}, {"note": 0, "velocity": 0, "duration": 79}, {"note": 73, "velocity": 83, "duration": 420}, {"note": 71, "velocity": 83, "duration": 1515}, {"note": 0, "velocity": 0, "duration": 405}, {"note": 73, "velocity": 85, "duration": 376}, {"note": 0, "velocity": 0, "duration": 104}, {"note": 73, "velocity": 84, "duration": 454}, {"note": 74, "velocity": 84, "duration": 382}, {"note": 0, "velocity": 0, "duration": 98}, {"note": 74, "velocity": 86, "duration": 376}, {"note": 0, "velocity": 0, "duration": 104}, {"note": 76, "velocity": 85, "duration": 378}, {"note": 0, "velocity": 0, "duration": 102}, {"note": 76, "velocity": 84, "duration": 240}, {"note": 76, "velocity": 84, "duration": 240}, {"note": 78, "velocity": 84, "duration": 484}, {"note": 76, "velocity": 88, "duration": 211}, {"note": 78, "velocity": 84, "duration": 206}, {"note": 81, "velocity": 84, "duration": 346}, {"note": 0, "velocity": 0, "duration": 134}, {"note": 81, "velocity": 84, "duration": 379}, {"note": 0, "velocity": 0, "duration": 101}, {"note": 78, "velocity": 94, "duration": 644}, {"note": 0, "velocity": 0, "duration": 76}, {"note": 76, "velocity": 85, "duration": 480}, {"note": 74, "velocity": 87, "duration": 1467}, {"note": 0, "velocity": 0, "duration": 213}, {"note": 78, "velocity": 87, "duration": 414}, {"note": 0, "velocity": 0, "duration": 66}, {"note": 74, "velocity": 89, "duration": 341}, {"note": 0, "velocity": 0, "duration": 139}, {"note": 76, "velocity": 83, "duration": 370}, {"note": 0, "velocity": 0, "duration": 110}, {"note": 73, "velocity": 89, "duration": 390}, {"note": 0, "velocity": 0, "duration": 90}, {"note": 74, "velocity": 85, "duration": 170}, {"note": 0, "velocity": 0, "duration": 70}, {"note": 76, "velocity": 79, "duration": 200}, {"note": 74, "velocity": 88, "duration": 241}, {"note": 73, "velocity": 81, "duration": 250}, {"note": 71, "velocity": 84, "duration": 393}, {"note": 0, "velocity": 0, "duration": 87}, {"note": 73, "velocity": 78, "duration": 174}, {"note": 0, "velocity": 0, "duration": 66}, {"note": 74, "velocity": 84, "duration": 206}, {"note": 73, "velocity": 81, "duration": 488}, {"note": 69, "velocity": 84, "duration": 360}, {"note": 0, "velocity": 0, "duration": 120}, {"note": 69, "velocity": 83, "duration": 171}, {"note": 0, "velocity": 0, "duration": 69}, {"note": 71, "velocity": 79, "duration": 165}, {"note": 0, "velocity": 0, "duration": 75}, {"note": 73, "velocity": 84, "duration": 443}, {"note": 71, "velocity": 84, "duration": 1440}, {"note": 0, "velocity": 0, "duration": 480}, {"note": 73, "velocity": 86, "duration": 591}, {"note": 0, "velocity": 0, "duration": 129}, {"note": 66, "velocity": 85, "duration": 176}, {"note": 0, "velocity": 0, "duration": 64}, {"note": 73, "velocity": 78, "duration": 391}, {"note": 0, "velocity": 0, "duration": 89}, {"note": 76, "velocity": 84, "duration": 160}, {"note": 0, "velocity": 0, "duration": 80}, {"note": 74, "velocity": 89, "duration": 206}, {"note": 73, "velocity": 87, "duration": 554}, {"note": 0, "velocity": 0, "duration": 166}, {"note": 73, "velocity": 79, "duration": 205}, {"note": 74, "velocity": 87, "duration": 359}, {"note": 0, "velocity": 0, "duration": 121}, {"note": 76, "velocity": 83, "duration": 438}, {"note": 74, "velocity": 85, "duration": 637}, {"note": 0, "velocity": 0, "duration": 83}, {"note": 74, "velocity": 89, "duration": 150}, {"note": 0, "velocity": 0, "duration": 90}, {"note": 76, "velocity": 87, "duration": 371}, {"note": 0, "velocity": 0, "duration": 109}, {"note": 78, "velocity": 87, "duration": 456}, {"note": 76, "velocity": 89, "duration": 1630}, {"note": 0, "velocity": 0, "duration": 290}, {"note": 78, "velocity": 87, "duration": 520}, {"note": 0, "velocity": 0, "duration": 200}, {"note": 78, "velocity": 94, "duration": 240}, {"note": 76, "velocity": 85, "duration": 368}, {"note": 0, "velocity": 0, "duration": 112}, {"note": 74, "velocity": 94, "duration": 387}, {"note": 0, "velocity": 0, "duration": 93}, {"note": 76, "velocity": 85, "duration": 962}, {"note": 69, "velocity": 85, "duration": 720}, {"note": 0, "velocity": 0, "duration": 240}, {"note": 74, "velocity": 80, "duration": 411}, {"note": 0, "velocity": 0, "duration": 69}, {"note": 71, "velocity": 86, "duration": 164}, {"note": 0, "velocity": 0, "duration": 76}, {"note": 73, "velocity": 82, "duration": 208}, {"note": 74, "velocity": 90, "duration": 314}, {"note": 0, "velocity": 0, "duration": 166}, {"note": 76, "velocity": 83, "duration": 215}, {"note": 74, "velocity": 86, "duration": 211}, {"note": 73, "velocity": 79, "duration": 1485}, {"note": 0, "velocity": 0, "duration": 195}, {"note": 66, "velocity": 85, "duration": 215}, {"note": 71, "velocity": 84, "duration": 366}, {"note": 0, "velocity": 0, "duration": 114}, {"note": 71, "velocity": 87, "duration": 240}, {"note": 71, "velocity": 87, "duration": 240}, {"note": 71, "velocity": 85, "duration": 386}, {"note": 0, "velocity": 0, "duration": 94}, {"note": 73, "velocity": 81, "duration": 170}, {"note": 0, "velocity": 0, "duration": 70}, {"note": 74, "velocity": 85, "duration": 156}, {"note": 0, "velocity": 0, "duration": 84}, {"note": 73, "velocity": 90, "duration": 180}, {"note": 71, "velocity": 85, "duration": 189}, {"note": 69, "velocity": 85, "duration": 327}, {"note": 0, "velocity": 0, "duration": 153}, {"note": 69, "velocity": 84, "duration": 350}, {"note": 0, "velocity": 0, "duration": 130}, {"note": 71, "velocity": 85, "duration": 192}, {"note": 73, "velocity": 85, "duration": 241}, {"note": 71, "velocity": 85, "duration": 362}, {"note": 0, "velocity": 0, "duration": 118}, {"note": 66, "velocity": 88, "duration": 368}, {"note": 0, "velocity": 0, "duration": 112}, {"note": 66, "velocity": 85, "duration": 422}, {"note": 0, "velocity": 0, "duration": 298}, {"note": 64, "velocity": 87, "duration": 240}, {"note": 66, "velocity": 86, "duration": 1440}, {"note": 0, "velocity": 0, "duration": 480}, {"note": 69, "velocity": 83, "duration": 350}, {"note": 0, "velocity": 0, "duration": 130}, {"note": 69, "velocity": 85, "duration": 405}, {"note": 0, "velocity": 0, "duration": 75}, {"note": 69, "velocity": 83, "duration": 175}, {"note": 0, "velocity": 0, "duration": 65}, {"note": 66, "velocity": 82, "duration": 212}, {"note": 64, "velocity": 88, "duration": 215}, {"note": 66, "velocity": 78, "duration": 196}, {"note": 69, "velocity": 82, "duration": 375}, {"note": 0, "velocity": 0, "duration": 105}, {"note": 71, "velocity": 79, "duration": 173}, {"note": 0, "velocity": 0, "duration": 67}, {"note": 73, "velocity": 83, "duration": 169}, {"note": 0, "velocity": 0, "duration": 71}, {"note": 74, "velocity": 86, "duration": 387}, {"note": 0, "velocity": 0, "duration": 93}, {"note": 73, "velocity": 87, "duration": 220}, {"note": 71, "velocity": 83, "duration": 232}, {"note": 73, "velocity": 86, "duration": 454}, {"note": 69, "velocity": 78, "duration": 480}, {"note": 69, "velocity": 83, "duration": 165}, {"note": 0, "velocity": 0, "duration": 75}, {"note": 71, "velocity": 84, "duration": 161}, {"note": 0, "velocity": 0, "duration": 79}, {"note": 73, "velocity": 83, "duration": 420}, {"note": 71, "velocity": 83, "duration": 1515}, {"note": 0, "velocity": 0, "duration": 405}, {"note": 73, "velocity": 85, "duration": 376}, {"note": 0, "velocity": 0, "duration": 104}, {"note": 73, "velocity": 84, "duration": 454}, {"note": 74, "velocity": 84, "duration": 382}, {"note": 0, "velocity": 0, "duration": 98}, {"note": 74, "velocity": 86, "duration": 376}, {"note": 0, "velocity": 0, "duration": 104}, {"note": 76, "velocity": 85, "duration": 378}, {"note": 0, "velocity": 0, "duration": 102}, {"note": 76, "velocity": 84, "duration": 480}, {"note": 78, "velocity": 84, "duration": 484}, {"note": 76, "velocity": 88, "duration": 211}, {"note": 78, "velocity": 84, "duration": 206}, {"note": 81, "velocity": 84, "duration": 346}, {"note": 0, "velocity": 0, "duration": 134}, {"note": 81, "velocity": 84, "duration": 379}, {"note": 0, "velocity": 0, "duration": 101}, {"note": 78, "velocity": 94, "duration": 644}, {"note": 0, "velocity": 0, "duration": 76}, {"note": 76, "velocity": 85, "duration": 480}, {"note": 74, "velocity": 87, "duration": 1467}, {"note": 0, "velocity": 0, "duration": 213}, {"note": 78, "velocity": 87, "duration": 414}, {"note": 0, "velocity": 0, "duration": 66}, {"note": 74, "velocity": 89, "duration": 341}, {"note": 0, "velocity": 0, "duration": 139}, {"note": 76, "velocity": 83, "duration": 370}, {"note": 0, "velocity": 0, "duration": 110}, {"note": 73, "velocity": 89, "duration": 390}, {"note": 0, "velocity": 0, "duration": 90}, {"note": 74, "velocity": 85, "duration": 170}, {"note": 0, "velocity": 0, "duration": 70}, {"note": 76, "velocity": 79, "duration": 200}, {"note": 74, "velocity": 88, "duration": 241}, {"note": 73, "velocity": 81, "duration": 250}, {"note": 71, "velocity": 84, "duration": 393}, {"note": 0, "velocity": 0, "duration": 87}, {"note": 73, "velocity": 78, "duration": 174}, {"note": 0, "velocity": 0, "duration": 66}, {"note": 74, "velocity": 84, "duration": 206}, {"note": 73, "velocity": 81, "duration": 488}, {"note": 69, "velocity": 84, "duration": 360}, {"note": 0, "velocity": 0, "duration": 120}, {"note": 69, "velocity": 83, "duration": 171}, {"note": 0, "velocity": 0, "duration": 69}, {"note": 71, "velocity": 79, "duration": 165}, {"note": 0, "velocity": 0, "duration": 75}, {"note": 73, "velocity": 84, "duration": 443}, {"note": 71, "velocity": 84, "duration": 1440}, {"note": 0, "velocity": 0, "duration": 31200}, {"note": 75, "velocity": 86, "duration": 591}, {"note": 0, "velocity": 0, "duration": 129}, {"note": 68, "velocity": 85, "duration": 176}, {"note": 0, "velocity": 0, "duration": 64}, {"note": 75, "velocity": 78, "duration": 391}, {"note": 0, "velocity": 0, "duration": 89}, {"note": 78, "velocity": 84, "duration": 160}, {"note": 0, "velocity": 0, "duration": 80}, {"note": 76, "velocity": 89, "duration": 206}, {"note": 75, "velocity": 87, "duration": 554}, {"note": 0, "velocity": 0, "duration": 166}, {"note": 75, "velocity": 79, "duration": 205}, {"note": 76, "velocity": 87, "duration": 359}, {"note": 0, "velocity": 0, "duration": 121}, {"note": 78, "velocity": 83, "duration": 438}, {"note": 76, "velocity": 85, "duration": 637}, {"note": 0, "velocity": 0, "duration": 83}, {"note": 76, "velocity": 89, "duration": 150}, {"note": 0, "velocity": 0, "duration": 90}, {"note": 78, "velocity": 87, "duration": 371}, {"note": 0, "velocity": 0, "duration": 109}, {"note": 80, "velocity": 87, "duration": 456}, {"note": 78, "velocity": 89, "duration": 1630}, {"note": 0, "velocity": 0, "duration": 290}, {"note": 80, "velocity": 87, "duration": 520}, {"note": 0, "velocity": 0, "duration": 200}, {"note": 80, "velocity": 94, "duration": 240}, {"note": 78, "velocity": 85, "duration": 368}, {"note": 0, "velocity": 0, "duration": 112}, {"note": 76, "velocity": 94, "duration": 387}, {"note": 0, "velocity": 0, "duration": 93}, {"note": 78, "velocity": 85, "duration": 962}, {"note": 71, "velocity": 85, "duration": 720}, {"note": 0, "velocity": 0, "duration": 240}, {"note": 76, "velocity": 80, "duration": 411}, {"note": 0, "velocity": 0, "duration": 69}, {"note": 73, "velocity": 86, "duration": 164}, {"note": 0, "velocity": 0, "duration": 76}, {"note": 75, "velocity": 82, "duration": 208}, {"note": 76, "velocity": 90, "duration": 314}, {"note": 0, "velocity": 0, "duration": 166}, {"note": 78, "velocity": 83, "duration": 215}, {"note": 76, "velocity": 86, "duration": 211}, {"note": 75, "velocity": 79, "duration": 1485}, {"note": 0, "velocity": 0, "duration": 195}, {"note": 68, "velocity": 85, "duration": 215}, {"note": 73, "velocity": 84, "duration": 366}, {"note": 0, "velocity": 0, "duration": 114}, {"note": 73, "velocity": 87, "duration": 240}, {"note": 73, "velocity": 87, "duration": 240}, {"note": 73, "velocity": 85, "duration": 386}, {"note": 0, "velocity": 0, "duration": 94}, {"note": 75, "velocity": 81, "duration": 170}, {"note": 0, "velocity": 0, "duration": 70}, {"note": 76, "velocity": 85, "duration": 156}, {"note": 0, "velocity": 0, "duration": 84}, {"note": 75, "velocity": 90, "duration": 180}, {"note": 73, "velocity": 85, "duration": 189}, {"note": 71, "velocity": 85, "duration": 327}, {"note": 0, "velocity": 0, "duration": 153}, {"note": 71, "velocity": 84, "duration": 350}, {"note": 0, "velocity": 0, "duration": 130}, {"note": 73, "velocity": 85, "duration": 192}, {"note": 75, "velocity": 85, "duration": 241}, {"note": 73, "velocity": 85, "duration": 362}, {"note": 0, "velocity": 0, "duration": 118}, {"note": 68, "velocity": 88, "duration": 368}, {"note": 0, "velocity": 0, "duration": 112}, {"note": 68, "velocity": 85, "duration": 422}, {"note": 0, "velocity": 0, "duration": 298}, {"note": 66, "velocity": 87, "duration": 240}, {"note": 68, "velocity": 86, "duration": 1440}, {"note": 0, "velocity": 0, "duration": 480}, {"note": 71, "velocity": 83, "duration": 350}, {"note": 0, "velocity": 0, "duration": 130}, {"note": 71, "velocity": 85, "duration": 405}, {"note": 0, "velocity": 0, "duration": 75}, {"note": 71, "velocity": 83, "duration": 175}, {"note": 0, "velocity": 0, "duration": 65}, {"note": 68, "velocity": 82, "duration": 212}, {"note": 66, "velocity": 88, "duration": 215}, {"note": 68, "velocity": 78, "duration": 196}, {"note": 71, "velocity": 82, "duration": 375}, {"note": 0, "velocity": 0, "duration": 105}, {"note": 73, "velocity": 79, "duration": 173}, {"note": 0, "velocity": 0, "duration": 67}, {"note": 75, "velocity": 83, "duration": 169}, {"note": 0, "velocity": 0, "duration": 71}, {"note": 76, "velocity": 86, "duration": 387}, {"note": 0, "velocity": 0, "duration": 93}, {"note": 75, "velocity": 87, "duration": 220}, {"note": 73, "velocity": 83, "duration": 232}, {"note": 75, "velocity": 86, "duration": 454}, {"note": 71, "velocity": 78, "duration": 480}, {"note": 71, "velocity": 83, "duration": 165}, {"note": 0, "velocity": 0, "duration": 75}, {"note": 73, "velocity": 84, "duration": 161}, {"note": 0, "velocity": 0, "duration": 79}, {"note": 75, "velocity": 83, "duration": 420}, {"note": 73, "velocity": 83, "duration": 1515}, {"note": 0, "velocity": 0, "duration": 405}, {"note": 75, "velocity": 85, "duration": 376}, {"note": 0, "velocity": 0, "duration": 104}, {"note": 75, "velocity": 84, "duration": 454}, {"note": 76, "velocity": 84, "duration": 382}, {"note": 0, "velocity": 0, "duration": 98}, {"note": 76, "velocity": 86, "duration": 376}, {"note": 0, "velocity": 0, "duration": 104}, {"note": 78, "velocity": 85, "duration": 378}, {"note": 0, "velocity": 0, "duration": 102}, {"note": 78, "velocity": 84, "duration": 480}, {"note": 80, "velocity": 84, "duration": 484}, {"note": 78, "velocity": 88, "duration": 211}, {"note": 80, "velocity": 84, "duration": 206}, {"note": 83, "velocity": 84, "duration": 346}, {"note": 0, "velocity": 0, "duration": 134}, {"note": 83, "velocity": 84, "duration": 379}, {"note": 0, "velocity": 0, "duration": 101}, {"note": 80, "velocity": 94, "duration": 644}, {"note": 0, "velocity": 0, "duration": 76}, {"note": 78, "velocity": 85, "duration": 480}, {"note": 76, "velocity": 87, "duration": 1467}, {"note": 0, "velocity": 0, "duration": 213}, {"note": 80, "velocity": 87, "duration": 414}, {"note": 0, "velocity": 0, "duration": 66}, {"note": 76, "velocity": 89, "duration": 341}, {"note": 0, "velocity": 0, "duration": 139}, {"note": 78, "velocity": 83, "duration": 370}, {"note": 0, "velocity": 0, "duration": 110}, {"note": 75, "velocity": 89, "duration": 390}, {"note": 0, "velocity": 0, "duration": 90}, {"note": 76, "velocity": 85, "duration": 170}, {"note": 0, "velocity": 0, "duration": 70}, {"note": 78, "velocity": 79, "duration": 200}, {"note": 76, "velocity": 88, "duration": 241}, {"note": 75, "velocity": 81, "duration": 250}, {"note": 73, "velocity": 84, "duration": 393}, {"note": 0, "velocity": 0, "duration": 87}, {"note": 75, "velocity": 78, "duration": 174}, {"note": 0, "velocity": 0, "duration": 66}, {"note": 76, "velocity": 84, "duration": 206}, {"note": 75, "velocity": 81, "duration": 488}, {"note": 71, "velocity": 84, "duration": 360}, {"note": 0, "velocity": 0, "duration": 120}, {"note": 71, "velocity": 83, "duration": 171}, {"note": 0, "velocity": 0, "duration": 69}, {"note": 73, "velocity": 79, "duration": 165}, {"note": 0, "velocity": 0, "duration": 75}, {"note": 75, "velocity": 84, "duration": 443}, {"note": 73, "velocity": 84, "duration": 1440}, {"note": 0, "velocity": 0, "duration": 480}, {"note": 80, "velocity": 87, "duration": 414}, {"note": 0, "velocity": 0, "duration": 66}, {"note": 76, "velocity": 89, "duration": 341}, {"note": 0, "velocity": 0, "duration": 139}, {"note": 78, "velocity": 83, "duration": 370}, {"note": 0, "velocity": 0, "duration": 110}, {"note": 75, "velocity": 89, "duration": 390}, {"note": 0, "velocity": 0, "duration": 90}, {"note": 76, "velocity": 85, "duration": 170}, {"note": 0, "velocity": 0, "duration": 70}, {"note": 78, "velocity": 79, "duration": 200}, {"note": 76, "velocity": 88, "duration": 241}, {"note": 75, "velocity": 81, "duration": 250}, {"note": 73, "velocity": 84, "duration": 393}, {"note": 0, "velocity": 0, "duration": 87}, {"note": 75, "velocity": 78, "duration": 174}, {"note": 0, "velocity": 0, "duration": 66}, {"note": 76, "velocity": 84, "duration": 206}, {"note": 75, "velocity": 81, "duration": 488}, {"note": 71, "velocity": 84, "duration": 360}, {"note": 0, "velocity": 0, "duration": 120}, {"note": 71, "velocity": 83, "duration": 171}, {"note": 0, "velocity": 0, "duration": 69}, {"note": 73, "velocity": 79, "duration": 165}, {"note": 0, "velocity": 0, "duration": 75}, {"note": 75, "velocity": 84, "duration": 443}, {"note": 73, "velocity": 84, "duration": 1440}]]