[[{"note": 73, "velocity": 84, "duration": 165}, {"note": 0, "velocity": 0, "duration": 75}, {"note": 73, "velocity": 84, "duration": 185}, {"note": 73, "velocity": 83, "duration": 169}, {"note": 0, "velocity": 0, "duration": 71}, {"note": 73, "velocity": 83, "duration": 175}, {"note": 0, "velocity": 0, "duration": 65}, {"note": 73, "velocity": 81, "duration": 163}, {"note": 0, "velocity": 0, "duration": 77}, {"note": 73, "velocity": 81, "duration": 183}, {"note": 71, "velocity": 82, "duration": 177}, {"note": 0, "velocity": 0, "duration": 63}, {"note": 69, "velocity": 82, "duration": 199}, {"note": 73, "velocity": 85, "duration": 189}, {"note": 69, "velocity": 82, "duration": 175}, {"note": 0, "velocity": 0, "duration": 65}, {"note": 73, "velocity": 84, "duration": 193}, {"note": 71, "velocity": 86, "duration": 341}, {"note": 0, "velocity": 0, "duration": 379}, {"note": 69, "velocity": 82, "duration": 171}, {"note": 0, "velocity": 0, "duration": 69}, {"note": 71, "velocity": 84, "duration": 166}, {"note": 0, "velocity": 0, "duration": 74}, {"note": 73, "velocity": 81, "duration": 186}, {"note": 73, "velocity": 81, "duration": 183}, {"note": 73, "velocity": 84, "duration": 172}, {"note": 0, "velocity": 0, "duration": 68}, {"note": 73, "velocity": 81, "duration": 170}, {"note": 0, "velocity": 0, "duration": 70}, {"note": 73, "velocity": 82, "duration": 180}, {"note": 73, "velocity": 81, "duration": 147}, {"note": 0, "velocity": 0, "duration": 93}, {"note": 73, "velocity": 81, "duration": 211}, {"note": 73, "velocity": 80, "duration": 147}, {"note": 0, "velocity": 0, "duration": 93}, {"note": 73, "velocity": 84, "duration": 190}, {"note": 71, "velocity": 81, "duration": 226}, {"note": 69, "velocity": 76, "duration": 186}, {"note": 64, "velocity": 84, "duration": 768}, {"note": 0, "velocity": 0, "duration": 432}, {"note": 73, "velocity": 82, "duration": 180}, {"note": 73, "velocity": 78, "duration": 174}, {"note": 0, "velocity": 0, "duration": 66}, {"note": 73, "velocity": 81, "duration": 174}, {"note": 0, "velocity": 0, "duration": 66}, {"note": 73, "velocity": 79, "duration": 164}, {"note": 0, "velocity": 0, "duration": 76}, {"note": 73, "velocity": 80, "duration": 163}, {"note": 0, "velocity": 0, "duration": 77}, {"note": 73, "velocity": 82, "duration": 150}, {"note": 0, "velocity": 0, "duration": 90}, {"note": 71, "velocity": 77, "duration": 158}, {"note": 0, "velocity": 0, "duration": 82}, {"note": 69, "velocity": 82, "duration": 183}, {"note": 73, "velocity": 81, "duration": 187}, {"note": 76, "velocity": 82, "duration": 201}, {"note": 73, "velocity": 80, "duration": 181}, {"note": 71, "velocity": 80, "duration": 348}, {"note": 0, "velocity": 0, "duration": 132}, {"note": 64, "velocity": 81, "duration": 177}, {"note": 0, "velocity": 0, "duration": 63}, {"note": 69, "velocity": 82, "duration": 200}, {"note": 71, "velocity": 85, "duration": 163}, {"note": 0, "velocity": 0, "duration": 77}, {"note": 73, "velocity": 81, "duration": 176}, {"note": 0, "velocity": 0, "duration": 64}, {"note": 71, "velocity": 77, "duration": 216}, {"note": 69, "velocity": 75, "duration": 186}, {"note": 64, "velocity": 82, "duration": 208}, {"note": 66, "velocity": 80, "duration": 240}, {"note": 69, "velocity": 82, "duration": 204}, {"note": 66, "velocity": 81, "duration": 178}, {"note": 0, "velocity": 0, "duration": 62}, {"note": 69, "velocity": 81, "duration": 1746}, {"note": 0, "velocity": 0, "duration": 294}, {"note": 64, "velocity": 80, "duration": 115}, {"note": 73, "velocity": 82, "duration": 172}, {"note": 0, "velocity": 0, "duration": 68}, {"note": 73, "velocity": 80, "duration": 177}, {"note": 0, "velocity": 0, "duration": 63}, {"note": 73, "velocity": 84, "duration": 177}, {"note": 0, "velocity": 0, "duration": 63}, {"note": 73, "velocity": 81, "duration": 154}, {"note": 0, "velocity": 0, "duration": 86}, {"note": 73, "velocity": 84, "duration": 192}, {"note": 73, "velocity": 81, "duration": 172}, {"note": 0, "velocity": 0, "duration": 68}, {"note": 71, "velocity": 82, "duration": 156}, {"note": 0, "velocity": 0, "duration": 84}, {"note": 69, "velocity": 84, "duration": 217}, {"note": 73, "velocity": 81, "duration": 238}, {"note": 69, "velocity": 83, "duration": 234}, {"note": 73, "velocity": 82, "duration": 247}, {"note": 71, "velocity": 80, "duration": 480}, {"note": 0, "velocity": 0, "duration": 240}, {"note": 69, "velocity": 82, "duration": 194}, {"note": 71, "velocity": 81, "duration": 177}, {"note": 0, "velocity": 0, "duration": 63}, {"note": 73, "velocity": 76, "duration": 189}, {"note": 73, "velocity": 76, "duration": 185}, {"note": 73, "velocity": 81, "duration": 162}, {"note": 0, "velocity": 0, "duration": 78}, {"note": 73, "velocity": 81, "duration": 165}, {"note": 0, "velocity": 0, "duration": 75}, {"note": 73, "velocity": 84, "duration": 202}, {"note": 73, "velocity": 80, "duration": 184}, {"note": 73, "velocity": 79, "duration": 184}, {"note": 73, "velocity": 81, "duration": 158}, {"note": 0, "velocity": 0, "duration": 82}, {"note": 73, "velocity": 87, "duration": 226}, {"note": 71, "velocity": 81, "duration": 230}, {"note": 69, "velocity": 81, "duration": 160}, {"note": 0, "velocity": 0, "duration": 80}, {"note": 64, "velocity": 75, "duration": 962}, {"note": 0, "velocity": 0, "duration": 238}, {"note": 73, "velocity": 82, "duration": 180}, {"note": 73, "velocity": 78, "duration": 174}, {"note": 0, "velocity": 0, "duration": 66}, {"note": 73, "velocity": 81, "duration": 174}, {"note": 0, "velocity": 0, "duration": 66}, {"note": 73, "velocity": 79, "duration": 164}, {"note": 0, "velocity": 0, "duration": 76}, {"note": 73, "velocity": 80, "duration": 163}, {"note": 0, "velocity": 0, "duration": 77}, {"note": 73, "velocity": 82, "duration": 150}, {"note": 0, "velocity": 0, "duration": 90}, {"note": 71, "velocity": 77, "duration": 158}, {"note": 0, "velocity": 0, "duration": 82}, {"note": 69, "velocity": 82, "duration": 183}, {"note": 73, "velocity": 81, "duration": 187}, {"note": 76, "velocity": 82, "duration": 201}, {"note": 73, "velocity": 80, "duration": 181}, {"note": 71, "velocity": 80, "duration": 348}, {"note": 0, "velocity": 0, "duration": 132}, {"note": 64, "velocity": 81, "duration": 177}, {"note": 0, "velocity": 0, "duration": 63}, {"note": 69, "velocity": 82, "duration": 200}, {"note": 71, "velocity": 85, "duration": 163}, {"note": 0, "velocity": 0, "duration": 77}, {"note": 73, "velocity": 81, "duration": 176}, {"note": 0, "velocity": 0, "duration": 64}, {"note": 71, "velocity": 77, "duration": 216}, {"note": 69, "velocity": 75, "duration": 186}, {"note": 64, "velocity": 82, "duration": 208}, {"note": 66, "velocity": 80, "duration": 240}, {"note": 69, "velocity": 82, "duration": 204}, {"note": 66, "velocity": 81, "duration": 178}, {"note": 0, "velocity": 0, "duration": 62}, {"note": 69, "velocity": 81, "duration": 1200}, {"note": 0, "velocity": 0, "duration": 240}, {"note": 71, "velocity": 81, "duration": 235}, {"note": 69, "velocity": 83, "duration": 194}, {"note": 71, "velocity": 81, "duration": 185}, {"note": 72, "velocity": 81, "duration": 208}, {"note": 71, "velocity": 85, "duration": 227}, {"note": 69, "velocity": 83, "duration": 227}, {"note": 71, "velocity": 86, "duration": 370}, {"note": 0, "velocity": 0, "duration": 110}, {"note": 69, "velocity": 84, "duration": 224}, {"note": 71, "velocity": 80, "duration": 250}, {"note": 69, "velocity": 81, "duration": 208}, {"note": 72, "velocity": 81, "duration": 226}, {"note": 71, "velocity": 81, "duration": 238}, {"note": 69, "velocity": 82, "duration": 195}, {"note": 71, "velocity": 81, "duration": 346}, {"note": 0, "velocity": 0, "duration": 134}, {"note": 69, "velocity": 82, "duration": 182}, {"note": 71, "velocity": 82, "duration": 212}, {"note": 69, "velocity": 84, "duration": 205}, {"note": 72, "velocity": 81, "duration": 224}, {"note": 71, "velocity": 80, "duration": 244}, {"note": 69, "velocity": 80, "duration": 267}, {"note": 71, "velocity": 82, "duration": 362}, {"note": 0, "velocity": 0, "duration": 118}, {"note": 71, "velocity": 85, "duration": 176}, {"note": 0, "velocity": 0, "duration": 64}, {"note": 73, "velocity": 84, "duration": 211}, {"note": 71, "velocity": 81, "duration": 120}, {"note": 66, "velocity": 82, "duration": 600}, {"note": 0, "velocity": 0, "duration": 720}, {"note": 71, "velocity": 81, "duration": 219}, {"note": 69, "velocity": 82, "duration": 208}, {"note": 71, "velocity": 80, "duration": 208}, {"note": 72, "velocity": 80, "duration": 260}, {"note": 71, "velocity": 82, "duration": 220}, {"note": 69, "velocity": 80, "duration": 280}, {"note": 71, "velocity": 86, "duration": 324}, {"note": 0, "velocity": 0, "duration": 156}, {"note": 69, "velocity": 84, "duration": 199}, {"note": 71, "velocity": 82, "duration": 243}, {"note": 69, "velocity": 83, "duration": 232}, {"note": 72, "velocity": 82, "duration": 212}, {"note": 71, "velocity": 85, "duration": 231}, {"note": 69, "velocity": 81, "duration": 199}, {"note": 71, "velocity": 83, "duration": 351}, {"note": 0, "velocity": 0, "duration": 129}, {"note": 69, "velocity": 80, "duration": 220}, {"note": 71, "velocity": 80, "duration": 246}, {"note": 69, "velocity": 81, "duration": 209}, {"note": 72, "velocity": 76, "duration": 256}, {"note": 71, "velocity": 81, "duration": 257}, {"note": 69, "velocity": 80, "duration": 255}, {"note": 71, "velocity": 86, "duration": 254}, {"note": 72, "velocity": 81, "duration": 259}, {"note": 71, "velocity": 79, "duration": 261}, {"note": 69, "velocity": 81, "duration": 259}, {"note": 76, "velocity": 87, "duration": 1200}, {"note": 0, "velocity": 0, "duration": 480}, {"note": 78, "velocity": 87, "duration": 195}, {"note": 76, "velocity": 91, "duration": 192}, {"note": 85, "velocity": 83, "duration": 1124}, {"note": 0, "velocity": 0, "duration": 76}, {"note": 76, "velocity": 91, "duration": 211}, {"note": 78, "velocity": 86, "duration": 243}, {"note": 76, "velocity": 91, "duration": 180}, {"note": 83, "velocity": 86, "duration": 240}, {"note": 81, "velocity": 81, "duration": 174}, {"note": 0, "velocity": 0, "duration": 66}, {"note": 80, "velocity": 83, "duration": 177}, {"note": 0, "velocity": 0, "duration": 63}, {"note": 81, "velocity": 84, "duration": 480}, {"note": 76, "velocity": 87, "duration": 190}, {"note": 78, "velocity": 86, "duration": 194}, {"note": 76, "velocity": 91, "duration": 233}, {"note": 83, "velocity": 81, "duration": 196}, {"note": 81, "velocity": 85, "duration": 240}, {"note": 80, "velocity": 75, "duration": 199}, {"note": 81, "velocity": 81, "duration": 163}, {"note": 0, "velocity": 0, "duration": 77}, {"note": 83, "velocity": 81, "duration": 181}, {"note": 81, "velocity": 81, "duration": 202}, {"note": 76, "velocity": 80, "duration": 229}, {"note": 76, "velocity": 77, "duration": 223}, {"note": 71, "velocity": 81, "duration": 157}, {"note": 0, "velocity": 0, "duration": 83}, {"note": 73, "velocity": 82, "duration": 375}, {"note": 0, "velocity": 0, "duration": 105}, {"note": 71, "velocity": 82, "duration": 405}, {"note": 0, "velocity": 0, "duration": 75}, {"note": 73, "velocity": 82, "duration": 193}, {"note": 74, "velocity": 87, "duration": 190}, {"note": 76, "velocity": 85, "duration": 147}, {"note": 0, "velocity": 0, "duration": 93}, {"note": 80, "velocity": 84, "duration": 181}, {"note": 80, "velocity": 80, "duration": 177}, {"note": 0, "velocity": 0, "duration": 63}, {"note": 80, "velocity": 82, "duration": 176}, {"note": 0, "velocity": 0, "duration": 64}, {"note": 80, "velocity": 85, "duration": 186}, {"note": 80, "velocity": 85, "duration": 204}, {"note": 80, "velocity": 80, "duration": 360}, {"note": 0, "velocity": 0, "duration": 120}, {"note": 81, "velocity": 81, "duration": 400}, {"note": 0, "velocity": 0, "duration": 80}, {"note": 80, "velocity": 85, "duration": 453}, {"note": 78, "velocity": 76, "duration": 458}, {"note": 0, "velocity": 0, "duration": 262}, {"note": 80, "velocity": 84, "duration": 240}, {"note": 78, "velocity": 81, "duration": 360}, {"note": 0, "velocity": 0, "duration": 120}, {"note": 81, "velocity": 81, "duration": 177}, {"note": 0, "velocity": 0, "duration": 63}, {"note": 81, "velocity": 78, "duration": 154}, {"note": 0, "velocity": 0, "duration": 86}, {"note": 81, "velocity": 81, "duration": 158}, {"note": 0, "velocity": 0, "duration": 82}, {"note": 81, "velocity": 82, "duration": 172}, {"note": 0, "velocity": 0, "duration": 68}, {"note": 80, "velocity": 81, "duration": 184}, {"note": 81, "velocity": 81, "duration": 160}, {"note": 0, "velocity": 0, "duration": 80}, {"note": 83, "velocity": 83, "duration": 1680}, {"note": 78, "velocity": 87, "duration": 195}, {"note": 76, "velocity": 91, "duration": 192}, {"note": 85, "velocity": 83, "duration": 1124}, {"note": 0, "velocity": 0, "duration": 76}, {"note": 76, "velocity": 91, "duration": 211}, {"note": 78, "velocity": 86, "duration": 243}, {"note": 76, "velocity": 91, "duration": 180}, {"note": 83, "velocity": 86, "duration": 240}, {"note": 81, "velocity": 81, "duration": 174}, {"note": 0, "velocity": 0, "duration": 66}, {"note": 80, "velocity": 83, "duration": 177}, {"note": 0, "velocity": 0, "duration": 63}, {"note": 81, "velocity": 84, "duration": 480}, {"note": 76, "velocity": 87, "duration": 190}, {"note": 78, "velocity": 86, "duration": 194}, {"note": 76, "velocity": 91, "duration": 233}, {"note": 83, "velocity": 81, "duration": 196}, {"note": 81, "velocity": 85, "duration": 240}, {"note": 80, "velocity": 75, "duration": 199}, {"note": 81, "velocity": 81, "duration": 163}, {"note": 0, "velocity": 0, "duration": 77}, {"note": 78, "velocity": 81, "duration": 181}, {"note": 76, "velocity": 81, "duration": 202}, {"note": 73, "velocity": 80, "duration": 229}, {"note": 73, "velocity": 77, "duration": 223}, {"note": 71, "velocity": 81, "duration": 157}, {"note": 0, "velocity": 0, "duration": 83}, {"note": 69, "velocity": 82, "duration": 375}, {"note": 0, "velocity": 0, "duration": 105}, {"note": 71, "velocity": 82, "duration": 405}, {"note": 0, "velocity": 0, "duration": 315}, {"note": 73, "velocity": 87, "duration": 190}, {"note": 74, "velocity": 85, "duration": 240}, {"note": 80, "velocity": 84, "duration": 181}, {"note": 80, "velocity": 80, "duration": 177}, {"note": 0, "velocity": 0, "duration": 63}, {"note": 80, "velocity": 82, "duration": 176}, {"note": 0, "velocity": 0, "duration": 64}, {"note": 80, "velocity": 85, "duration": 186}, {"note": 0, "velocity": 0, "duration": 294}, {"note": 77, "velocity": 80, "duration": 360}, {"note": 0, "velocity": 0, "duration": 120}, {"note": 78, "velocity": 81, "duration": 240}, {"note": 85, "velocity": 85, "duration": 453}, {"note": 83, "velocity": 76, "duration": 458}, {"note": 81, "velocity": 84, "duration": 480}, {"note": 80, "velocity": 81, "duration": 240}, {"note": 81, "velocity": 81, "duration": 360}, {"note": 0, "velocity": 0, "duration": 120}, {"note": 81, "velocity": 81, "duration": 177}, {"note": 0, "velocity": 0, "duration": 63}, {"note": 81, "velocity": 78, "duration": 154}, {"note": 0, "velocity": 0, "duration": 86}, {"note": 81, "velocity": 81, "duration": 158}, {"note": 0, "velocity": 0, "duration": 82}, {"note": 81, "velocity": 82, "duration": 172}, {"note": 0, "velocity": 0, "duration": 68}, {"note": 83, "velocity": 81, "duration": 184}, {"note": 85, "velocity": 81, "duration": 160}, {"note": 0, "velocity": 0, "duration": 80}, {"note": 83, "velocity": 83, "duration": 1680}, {"note": 0, "velocity": 0, "duration": 15840}, {"note": 73, "velocity": 82, "duration": 172}, {"note": 0, "velocity": 0, "duration": 68}, {"note": 73, "velocity": 80, "duration": 177}, {"note": 0, "velocity": 0, "duration": 63}, {"note": 73, "velocity": 84, "duration": 177}, {"note": 0, "velocity": 0, "duration": 63}, {"note": 73, "velocity": 81, "duration": 154}, {"note": 0, "velocity": 0, "duration": 86}, {"note": 73, "velocity": 84, "duration": 192}, {"note": 73, "velocity": 81, "duration": 172}, {"note": 0, "velocity": 0, "duration": 68}, {"note": 71, "velocity": 82, "duration": 156}, {"note": 0, "velocity": 0, "duration": 84}, {"note": 69, "velocity": 84, "duration": 217}, {"note": 73, "velocity": 81, "duration": 238}, {"note": 69, "velocity": 83, "duration": 234}, {"note": 73, "velocity": 82, "duration": 247}, {"note": 71, "velocity": 80, "duration": 480}, {"note": 0, "velocity": 0, "duration": 240}, {"note": 69, "velocity": 82, "duration": 194}, {"note": 71, "velocity": 81, "duration": 177}, {"note": 0, "velocity": 0, "duration": 63}, {"note": 73, "velocity": 76, "duration": 189}, {"note": 73, "velocity": 76, "duration": 185}, {"note": 73, "velocity": 81, "duration": 162}, {"note": 0, "velocity": 0, "duration": 78}, {"note": 73, "velocity": 81, "duration": 165}, {"note": 0, "velocity": 0, "duration": 75}, {"note": 73, "velocity": 84, "duration": 202}, {"note": 73, "velocity": 80, "duration": 184}, {"note": 73, "velocity": 79, "duration": 184}, {"note": 73, "velocity": 81, "duration": 158}, {"note": 0, "velocity": 0, "duration": 82}, {"note": 73, "velocity": 87, "duration": 226}, {"note": 71, "velocity": 81, "duration": 230}, {"note": 69, "velocity": 81, "duration": 160}, {"note": 0, "velocity": 0, "duration": 80}, {"note": 64, "velocity": 75, "duration": 962}, {"note": 0, "velocity": 0, "duration": 238}, {"note": 73, "velocity": 82, "duration": 180}, {"note": 73, "velocity": 78, "duration": 174}, {"note": 0, "velocity": 0, "duration": 66}, {"note": 73, "velocity": 81, "duration": 174}, {"note": 0, "velocity": 0, "duration": 66}, {"note": 73, "velocity": 79, "duration": 164}, {"note": 0, "velocity": 0, "duration": 76}, {"note": 73, "velocity": 80, "duration": 163}, {"note": 0, "velocity": 0, "duration": 77}, {"note": 73, "velocity": 82, "duration": 150}, {"note": 0, "velocity": 0, "duration": 90}, {"note": 71, "velocity": 77, "duration": 158}, {"note": 0, "velocity": 0, "duration": 82}, {"note": 69, "velocity": 82, "duration": 183}, {"note": 73, "velocity": 81, "duration": 187}, {"note": 76, "velocity": 82, "duration": 201}, {"note": 73, "velocity": 80, "duration": 181}, {"note": 71, "velocity": 80, "duration": 348}, {"note": 0, "velocity": 0, "duration": 132}, {"note": 64, "velocity": 81, "duration": 177}, {"note": 0, "velocity": 0, "duration": 63}, {"note": 69, "velocity": 82, "duration": 200}, {"note": 71, "velocity": 85, "duration": 163}, {"note": 0, "velocity": 0, "duration": 77}, {"note": 73, "velocity": 81, "duration": 176}, {"note": 0, "velocity": 0, "duration": 64}, {"note": 71, "velocity": 77, "duration": 216}, {"note": 69, "velocity": 75, "duration": 186}, {"note": 64, "velocity": 82, "duration": 208}, {"note": 66, "velocity": 80, "duration": 240}, {"note": 69, "velocity": 82, "duration": 204}, {"note": 66, "velocity": 81, "duration": 178}, {"note": 0, "velocity": 0, "duration": 62}, {"note": 69, "velocity": 81, "duration": 1200}, {"note": 0, "velocity": 0, "duration": 240}, {"note": 71, "velocity": 81, "duration": 235}, {"note": 69, "velocity": 83, "duration": 194}, {"note": 71, "velocity": 81, "duration": 185}, {"note": 72, "velocity": 81, "duration": 208}, {"note": 71, "velocity": 85, "duration": 227}, {"note": 69, "velocity": 83, "duration": 227}, {"note": 71, "velocity": 86, "duration": 370}, {"note": 0, "velocity": 0, "duration": 110}, {"note": 69, "velocity": 84, "duration": 224}, {"note": 71, "velocity": 80, "duration": 250}, {"note": 69, "velocity": 81, "duration": 208}, {"note": 72, "velocity": 81, "duration": 226}, {"note": 71, "velocity": 81, "duration": 238}, {"note": 69, "velocity": 82, "duration": 195}, {"note": 71, "velocity": 81, "duration": 346}, {"note": 0, "velocity": 0, "duration": 134}, {"note": 69, "velocity": 82, "duration": 182}, {"note": 71, "velocity": 82, "duration": 212}, {"note": 69, "velocity": 84, "duration": 205}, {"note": 72, "velocity": 81, "duration": 224}, {"note": 71, "velocity": 80, "duration": 244}, {"note": 69, "velocity": 80, "duration": 267}, {"note": 71, "velocity": 82, "duration": 362}, {"note": 0, "velocity": 0, "duration": 118}, {"note": 71, "velocity": 85, "duration": 176}, {"note": 0, "velocity": 0, "duration": 64}, {"note": 73, "velocity": 84, "duration": 211}, {"note": 71, "velocity": 81, "duration": 120}, {"note": 66, "velocity": 82, "duration": 600}, {"note": 0, "velocity": 0, "duration": 720}, {"note": 71, "velocity": 81, "duration": 219}, {"note": 69, "velocity": 82, "duration": 208}, {"note": 71, "velocity": 80, "duration": 208}, {"note": 72, "velocity": 80, "duration": 260}, {"note": 71, "velocity": 82, "duration": 220}, {"note": 69, "velocity": 80, "duration": 280}, {"note": 71, "velocity": 86, "duration": 324}, {"note": 0, "velocity": 0, "duration": 156}, {"note": 69, "velocity": 84, "duration": 199}, {"note": 71, "velocity": 82, "duration": 243}, {"note": 69, "velocity": 83, "duration": 232}, {"note": 72, "velocity": 82, "duration": 212}, {"note": 71, "velocity": 85, "duration": 231}, {"note": 69, "velocity": 81, "duration": 199}, {"note": 71, "velocity": 83, "duration": 351}, {"note": 0, "velocity": 0, "duration": 129}, {"note": 69, "velocity": 80, "duration": 220}, {"note": 71, "velocity": 80, "duration": 246}, {"note": 69, "velocity": 81, "duration": 209}, {"note": 72, "velocity": 76, "duration": 256}, {"note": 71, "velocity": 81, "duration": 257}, {"note": 69, "velocity": 80, "duration": 255}, {"note": 71, "velocity": 86, "duration": 254}, {"note": 72, "velocity": 81, "duration": 259}, {"note": 71, "velocity": 79, "duration": 261}, {"note": 69, "velocity": 81, "duration": 259}, {"note": 76, "velocity": 87, "duration": 1200}, {"note": 0, "velocity": 0, "duration": 480}, {"note": 78, "velocity": 87, "duration": 195}, {"note": 76, "velocity": 91, "duration": 192}, {"note": 85, "velocity": 83, "duration": 1124}, {"note": 0, "velocity": 0, "duration": 76}, {"note": 76, "velocity": 91, "duration": 211}, {"note": 78, "velocity": 86, "duration": 243}, {"note": 76, "velocity": 91, "duration": 180}, {"note": 83, "velocity": 86, "duration": 240}, {"note": 81, "velocity": 81, "duration": 174}, {"note": 0, "velocity": 0, "duration": 66}, {"note": 80, "velocity": 83, "duration": 177}, {"note": 0, "velocity": 0, "duration": 63}, {"note": 81, "velocity": 84, "duration": 480}, {"note": 76, "velocity": 87, "duration": 190}, {"note": 78, "velocity": 86, "duration": 194}, {"note": 76, "velocity": 91, "duration": 233}, {"note": 83, "velocity": 81, "duration": 196}, {"note": 81, "velocity": 85, "duration": 240}, {"note": 80, "velocity": 75, "duration": 199}, {"note": 81, "velocity": 81, "duration": 163}, {"note": 0, "velocity": 0, "duration": 77}, {"note": 83, "velocity": 81, "duration": 181}, {"note": 81, "velocity": 81, "duration": 202}, {"note": 76, "velocity": 80, "duration": 229}, {"note": 76, "velocity": 77, "duration": 223}, {"note": 71, "velocity": 81, "duration": 157}, {"note": 0, "velocity": 0, "duration": 83}, {"note": 73, "velocity": 82, "duration": 375}, {"note": 0, "velocity": 0, "duration": 105}, {"note": 71, "velocity": 82, "duration": 405}, {"note": 0, "velocity": 0, "duration": 75}, {"note": 73, "velocity": 82, "duration": 193}, {"note": 74, "velocity": 87, "duration": 190}, {"note": 76, "velocity": 85, "duration": 147}, {"note": 0, "velocity": 0, "duration": 93}, {"note": 80, "velocity": 84, "duration": 181}, {"note": 80, "velocity": 80, "duration": 177}, {"note": 0, "velocity": 0, "duration": 63}, {"note": 80, "velocity": 82, "duration": 176}, {"note": 0, "velocity": 0, "duration": 64}, {"note": 80, "velocity": 85, "duration": 186}, {"note": 80, "velocity": 85, "duration": 204}, {"note": 80, "velocity": 80, "duration": 360}, {"note": 0, "velocity": 0, "duration": 120}, {"note": 81, "velocity": 81, "duration": 400}, {"note": 0, "velocity": 0, "duration": 80}, {"note": 80, "velocity": 85, "duration": 453}, {"note": 78, "velocity": 76, "duration": 458}, {"note": 0, "velocity": 0, "duration": 262}, {"note": 80, "velocity": 84, "duration": 240}, {"note": 78, "velocity": 81, "duration": 360}, {"note": 0, "velocity": 0, "duration": 120}, {"note": 81, "velocity": 81, "duration": 177}, {"note": 0, "velocity": 0, "duration": 63}, {"note": 81, "velocity": 78, "duration": 154}, {"note": 0, "velocity": 0, "duration": 86}, {"note": 81, "velocity": 81, "duration": 158}, {"note": 0, "velocity": 0, "duration": 82}, {"note": 81, "velocity": 82, "duration": 172}, {"note": 0, "velocity": 0, "duration": 68}, {"note": 80, "velocity": 81, "duration": 184}, {"note": 81, "velocity": 81, "duration": 160}, {"note": 0, "velocity": 0, "duration": 80}, {"note": 83, "velocity": 83, "duration": 1680}, {"note": 78, "velocity": 87, "duration": 195}, {"note": 76, "velocity": 91, "duration": 192}, {"note": 85, "velocity": 83, "duration": 1124}, {"note": 0, "velocity": 0, "duration": 76}, {"note": 76, "velocity": 91, "duration": 211}, {"note": 78, "velocity": 86, "duration": 243}, {"note": 76, "velocity": 91, "duration": 180}, {"note": 83, "velocity": 86, "duration": 240}, {"note": 81, "velocity": 81, "duration": 174}, {"note": 0, "velocity": 0, "duration": 66}, {"note": 80, "velocity": 83, "duration": 177}, {"note": 0, "velocity": 0, "duration": 63}, {"note": 81, "velocity": 84, "duration": 480}, {"note": 76, "velocity": 87, "duration": 190}, {"note": 78, "velocity": 86, "duration": 194}, {"note": 76, "velocity": 91, "duration": 233}, {"note": 83, "velocity": 81, "duration": 196}, {"note": 81, "velocity": 85, "duration": 240}, {"note": 80, "velocity": 75, "duration": 199}, {"note": 81, "velocity": 81, "duration": 163}, {"note": 0, "velocity": 0, "duration": 77}, {"note": 78, "velocity": 81, "duration": 181}, {"note": 76, "velocity": 81, "duration": 202}, {"note": 73, "velocity": 80, "duration": 229}, {"note": 73, "velocity": 77, "duration": 223}, {"note": 71, "velocity": 81, "duration": 157}, {"note": 0, "velocity": 0, "duration": 83}, {"note": 69, "velocity": 82, "duration": 375}, {"note": 0, "velocity": 0, "duration": 105}, {"note": 71, "velocity": 82, "duration": 405}, {"note": 0, "velocity": 0, "duration": 315}, {"note": 73, "velocity": 87, "duration": 190}, {"note": 74, "velocity": 85, "duration": 240}, {"note": 80, "velocity": 84, "duration": 181}, {"note": 80, "velocity": 80, "duration": 177}, {"note": 0, "velocity": 0, "duration": 63}, {"note": 80, "velocity": 82, "duration": 176}, {"note": 0, "velocity": 0, "duration": 64}, {"note": 80, "velocity": 85, "duration": 186}, {"note": 0, "velocity": 0, "duration": 294}, {"note": 77, "velocity": 80, "duration": 360}, {"note": 0, "velocity": 0, "duration": 120}, {"note": 78, "velocity": 81, "duration": 240}, {"note": 85, "velocity": 85, "duration": 453}, {"note": 83, "velocity": 76, "duration": 458}, {"note": 81, "velocity": 84, "duration": 480}, {"note": 80, "velocity": 81, "duration": 240}, {"note": 81, "velocity": 81, "duration": 360}, {"note": 0, "velocity": 0, "duration": 120}, {"note": 81, "velocity": 81, "duration": 177}, {"note": 0, "velocity": 0, "duration": 63}, {"note": 81, "velocity": 78, "duration": 154}, {"note": 0, "velocity": 0, "duration": 86}, {"note": 81, "velocity": 81, "duration": 158}, {"note": 0, "velocity": 0, "duration": 82}, {"note": 81, "velocity": 82, "duration": 172}, {"note": 0, "velocity": 0, "duration": 68}, {"note": 83, "velocity": 81, "duration": 184}, {"note": 85, "velocity": 81, "duration": 160}, {"note": 0, "velocity": 0, "duration": 80}, {"note": 83, "velocity": 83, "duration": 1680}, {"note": 0, "velocity": 0, "duration": 720}, {"note": 78, "velocity": 81, "duration": 141}, {"note": 0, "velocity": 0, "duration": 99}, {"note": 78, "velocity": 91, "duration": 192}, {"note": 81, "velocity": 82, "duration": 173}, {"note": 0, "velocity": 0, "duration": 67}, {"note": 83, "velocity": 80, "duration": 197}, {"note": 81, "velocity": 84, "duration": 189}, {"note": 80, "velocity": 81, "duration": 174}, {"note": 0, "velocity": 0, "duration": 66}, {"note": 81, "velocity": 82, "duration": 2185}]]