[[{"note": 77, "velocity": 83, "duration": 189}, {"note": 77, "velocity": 80, "duration": 154}, {"note": 0, "velocity": 0, "duration": 86}, {"note": 77, "velocity": 81, "duration": 195}, {"note": 80, "velocity": 77, "duration": 193}, {"note": 72, "velocity": 81, "duration": 207}, {"note": 75, "velocity": 80, "duration": 397}, {"note": 0, "velocity": 0, "duration": 83}, {"note": 84, "velocity": 81, "duration": 171}, {"note": 0, "velocity": 0, "duration": 69}, {"note": 82, "velocity": 80, "duration": 461}, {"note": 80, "velocity": 77, "duration": 175}, {"note": 0, "velocity": 0, "duration": 65}, {"note": 82, "velocity": 80, "duration": 157}, {"note": 0, "velocity": 0, "duration": 83}, {"note": 84, "velocity": 82, "duration": 240}, {"note": 82, "velocity": 82, "duration": 240}, {"note": 80, "velocity": 60, "duration": 480}, {"note": 82, "velocity": 80, "duration": 165}, {"note": 0, "velocity": 0, "duration": 75}, {"note": 82, "velocity": 79, "duration": 169}, {"note": 0, "velocity": 0, "duration": 71}, {"note": 82, "velocity": 79, "duration": 165}, {"note": 0, "velocity": 0, "duration": 75}, {"note": 84, "velocity": 79, "duration": 189}, {"note": 75, "velocity": 79, "duration": 199}, {"note": 77, "velocity": 81, "duration": 187}, {"note": 82, "velocity": 77, "duration": 192}, {"note": 79, "velocity": 73, "duration": 193}, {"note": 77, "velocity": 73, "duration": 1346}, {"note": 0, "velocity": 0, "duration": 574}, {"note": 77, "velocity": 90, "duration": 88}, {"note": 0, "velocity": 0, "duration": 152}, {"note": 77, "velocity": 81, "duration": 64}, {"note": 77, "velocity": 83, "duration": 60}, {"note": 77, "velocity": 82, "duration": 159}, {"note": 0, "velocity": 0, "duration": 81}, {"note": 80, "velocity": 76, "duration": 200}, {"note": 72, "velocity": 83, "duration": 182}, {"note": 75, "velocity": 80, "duration": 464}, {"note": 72, "velocity": 80, "duration": 196}, {"note": 77, "velocity": 81, "duration": 155}, {"note": 0, "velocity": 0, "duration": 85}, {"note": 79, "velocity": 76, "duration": 59}, {"note": 0, "velocity": 0, "duration": 61}, {"note": 77, "velocity": 77, "duration": 56}, {"note": 0, "velocity": 0, "duration": 64}, {"note": 75, "velocity": 81, "duration": 163}, {"note": 0, "velocity": 0, "duration": 77}, {"note": 77, "velocity": 81, "duration": 197}, {"note": 80, "velocity": 77, "duration": 775}, {"note": 0, "velocity": 0, "duration": 185}, {"note": 77, "velocity": 80, "duration": 437}, {"note": 84, "velocity": 80, "duration": 486}, {"note": 77, "velocity": 83, "duration": 446}, {"note": 84, "velocity": 80, "duration": 407}, {"note": 0, "velocity": 0, "duration": 73}, {"note": 82, "velocity": 81, "duration": 185}, {"note": 84, "velocity": 77, "duration": 110}, {"note": 82, "velocity": 72, "duration": 108}, {"note": 80, "velocity": 80, "duration": 175}, {"note": 0, "velocity": 0, "duration": 65}, {"note": 82, "velocity": 80, "duration": 120}, {"note": 82, "velocity": 80, "duration": 120}, {"note": 84, "velocity": 80, "duration": 231}, {"note": 82, "velocity": 80, "duration": 253}, {"note": 80, "velocity": 79, "duration": 412}, {"note": 0, "velocity": 0, "duration": 68}, {"note": 82, "velocity": 77, "duration": 169}, {"note": 0, "velocity": 0, "duration": 71}, {"note": 82, "velocity": 80, "duration": 189}, {"note": 82, "velocity": 81, "duration": 171}, {"note": 0, "velocity": 0, "duration": 69}, {"note": 84, "velocity": 80, "duration": 195}, {"note": 75, "velocity": 81, "duration": 191}, {"note": 77, "velocity": 83, "duration": 179}, {"note": 0, "velocity": 0, "duration": 61}, {"note": 82, "velocity": 81, "duration": 197}, {"note": 79, "velocity": 75, "duration": 195}, {"note": 77, "velocity": 81, "duration": 1769}, {"note": 0, "velocity": 0, "duration": 2071}, {"note": 77, "velocity": 81, "duration": 169}, {"note": 0, "velocity": 0, "duration": 71}, {"note": 77, "velocity": 83, "duration": 155}, {"note": 0, "velocity": 0, "duration": 85}, {"note": 77, "velocity": 82, "duration": 172}, {"note": 0, "velocity": 0, "duration": 68}, {"note": 80, "velocity": 72, "duration": 60}, {"note": 80, "velocity": 75, "duration": 88}, {"note": 72, "velocity": 81, "duration": 483}, {"note": 75, "velocity": 79, "duration": 240}, {"note": 72, "velocity": 81, "duration": 227}, {"note": 77, "velocity": 79, "duration": 147}, {"note": 0, "velocity": 0, "duration": 93}, {"note": 77, "velocity": 78, "duration": 71}, {"note": 77, "velocity": 80, "duration": 77}, {"note": 75, "velocity": 81, "duration": 183}, {"note": 77, "velocity": 82, "duration": 186}, {"note": 80, "velocity": 79, "duration": 761}, {"note": 0, "velocity": 0, "duration": 199}, {"note": 77, "velocity": 81, "duration": 336}, {"note": 0, "velocity": 0, "duration": 144}, {"note": 84, "velocity": 80, "duration": 377}, {"note": 0, "velocity": 0, "duration": 103}, {"note": 77, "velocity": 83, "duration": 387}, {"note": 0, "velocity": 0, "duration": 93}, {"note": 84, "velocity": 81, "duration": 416}, {"note": 0, "velocity": 0, "duration": 64}, {"note": 82, "velocity": 82, "duration": 187}, {"note": 84, "velocity": 79, "duration": 111}, {"note": 82, "velocity": 80, "duration": 116}, {"note": 80, "velocity": 80, "duration": 200}, {"note": 82, "velocity": 81, "duration": 177}, {"note": 0, "velocity": 0, "duration": 63}, {"note": 84, "velocity": 81, "duration": 240}, {"note": 82, "velocity": 81, "duration": 240}, {"note": 80, "velocity": 79, "duration": 363}, {"note": 0, "velocity": 0, "duration": 117}, {"note": 82, "velocity": 80, "duration": 186}, {"note": 82, "velocity": 80, "duration": 162}, {"note": 0, "velocity": 0, "duration": 78}, {"note": 82, "velocity": 81, "duration": 163}, {"note": 0, "velocity": 0, "duration": 77}, {"note": 84, "velocity": 79, "duration": 168}, {"note": 0, "velocity": 0, "duration": 72}, {"note": 75, "velocity": 80, "duration": 190}, {"note": 77, "velocity": 81, "duration": 179}, {"note": 0, "velocity": 0, "duration": 61}, {"note": 82, "velocity": 80, "duration": 217}, {"note": 79, "velocity": 75, "duration": 238}, {"note": 77, "velocity": 79, "duration": 997}, {"note": 0, "velocity": 0, "duration": 923}, {"note": 77, "velocity": 81, "duration": 101}, {"note": 0, "velocity": 0, "duration": 139}, {"note": 77, "velocity": 74, "duration": 64}, {"note": 77, "velocity": 77, "duration": 52}, {"note": 0, "velocity": 0, "duration": 68}, {"note": 77, "velocity": 80, "duration": 188}, {"note": 80, "velocity": 72, "duration": 186}, {"note": 72, "velocity": 82, "duration": 207}, {"note": 75, "velocity": 80, "duration": 490}, {"note": 72, "velocity": 81, "duration": 207}, {"note": 77, "velocity": 80, "duration": 194}, {"note": 79, "velocity": 72, "duration": 116}, {"note": 77, "velocity": 82, "duration": 96}, {"note": 75, "velocity": 79, "duration": 196}, {"note": 77, "velocity": 83, "duration": 186}, {"note": 80, "velocity": 79, "duration": 812}, {"note": 0, "velocity": 0, "duration": 148}, {"note": 77, "velocity": 84, "duration": 404}, {"note": 0, "velocity": 0, "duration": 76}, {"note": 84, "velocity": 76, "duration": 443}, {"note": 77, "velocity": 81, "duration": 436}, {"note": 84, "velocity": 79, "duration": 424}, {"note": 82, "velocity": 77, "duration": 186}, {"note": 82, "velocity": 76, "duration": 66}, {"note": 82, "velocity": 74, "duration": 95}, {"note": 80, "velocity": 80, "duration": 176}, {"note": 0, "velocity": 0, "duration": 64}, {"note": 82, "velocity": 80, "duration": 120}, {"note": 82, "velocity": 80, "duration": 120}, {"note": 84, "velocity": 77, "duration": 227}, {"note": 82, "velocity": 80, "duration": 256}, {"note": 80, "velocity": 79, "duration": 408}, {"note": 0, "velocity": 0, "duration": 72}, {"note": 82, "velocity": 79, "duration": 148}, {"note": 0, "velocity": 0, "duration": 92}, {"note": 82, "velocity": 73, "duration": 87}, {"note": 82, "velocity": 76, "duration": 71}, {"note": 82, "velocity": 75, "duration": 154}, {"note": 0, "velocity": 0, "duration": 86}, {"note": 84, "velocity": 80, "duration": 186}, {"note": 75, "velocity": 79, "duration": 182}, {"note": 77, "velocity": 79, "duration": 177}, {"note": 0, "velocity": 0, "duration": 63}, {"note": 82, "velocity": 80, "duration": 203}, {"note": 79, "velocity": 75, "duration": 190}, {"note": 77, "velocity": 80, "duration": 1572}, {"note": 0, "velocity": 0, "duration": 13788}, {"note": 77, "velocity": 81, "duration": 169}, {"note": 0, "velocity": 0, "duration": 71}, {"note": 77, "velocity": 83, "duration": 155}, {"note": 0, "velocity": 0, "duration": 85}, {"note": 77, "velocity": 82, "duration": 172}, {"note": 0, "velocity": 0, "duration": 68}, {"note": 80, "velocity": 72, "duration": 60}, {"note": 80, "velocity": 75, "duration": 88}, {"note": 72, "velocity": 81, "duration": 483}, {"note": 75, "velocity": 79, "duration": 240}, {"note": 72, "velocity": 81, "duration": 227}, {"note": 77, "velocity": 79, "duration": 147}, {"note": 0, "velocity": 0, "duration": 93}, {"note": 77, "velocity": 78, "duration": 71}, {"note": 77, "velocity": 80, "duration": 77}, {"note": 75, "velocity": 81, "duration": 183}, {"note": 77, "velocity": 82, "duration": 186}, {"note": 80, "velocity": 79, "duration": 761}, {"note": 0, "velocity": 0, "duration": 199}, {"note": 77, "velocity": 81, "duration": 336}, {"note": 0, "velocity": 0, "duration": 144}, {"note": 84, "velocity": 80, "duration": 377}, {"note": 0, "velocity": 0, "duration": 103}, {"note": 77, "velocity": 83, "duration": 387}, {"note": 0, "velocity": 0, "duration": 93}, {"note": 84, "velocity": 81, "duration": 416}, {"note": 0, "velocity": 0, "duration": 64}, {"note": 82, "velocity": 82, "duration": 187}, {"note": 84, "velocity": 79, "duration": 111}, {"note": 82, "velocity": 80, "duration": 116}, {"note": 80, "velocity": 80, "duration": 200}, {"note": 82, "velocity": 81, "duration": 177}, {"note": 0, "velocity": 0, "duration": 63}, {"note": 84, "velocity": 81, "duration": 240}, {"note": 82, "velocity": 81, "duration": 240}, {"note": 80, "velocity": 79, "duration": 363}, {"note": 0, "velocity": 0, "duration": 117}, {"note": 82, "velocity": 80, "duration": 186}, {"note": 82, "velocity": 80, "duration": 162}, {"note": 0, "velocity": 0, "duration": 78}, {"note": 82, "velocity": 81, "duration": 163}, {"note": 0, "velocity": 0, "duration": 77}, {"note": 84, "velocity": 79, "duration": 168}, {"note": 0, "velocity": 0, "duration": 72}, {"note": 75, "velocity": 80, "duration": 190}, {"note": 77, "velocity": 81, "duration": 179}, {"note": 0, "velocity": 0, "duration": 61}, {"note": 82, "velocity": 80, "duration": 217}, {"note": 79, "velocity": 75, "duration": 238}, {"note": 77, "velocity": 79, "duration": 997}, {"note": 0, "velocity": 0, "duration": 2843}, {"note": 77, "velocity": 81, "duration": 101}, {"note": 0, "velocity": 0, "duration": 139}, {"note": 77, "velocity": 74, "duration": 64}, {"note": 77, "velocity": 77, "duration": 52}, {"note": 0, "velocity": 0, "duration": 68}, {"note": 77, "velocity": 80, "duration": 188}, {"note": 80, "velocity": 72, "duration": 186}, {"note": 72, "velocity": 82, "duration": 207}, {"note": 75, "velocity": 80, "duration": 490}, {"note": 72, "velocity": 81, "duration": 207}, {"note": 77, "velocity": 80, "duration": 194}, {"note": 79, "velocity": 72, "duration": 116}, {"note": 77, "velocity": 82, "duration": 96}, {"note": 75, "velocity": 79, "duration": 196}, {"note": 77, "velocity": 83, "duration": 186}, {"note": 80, "velocity": 79, "duration": 812}, {"note": 0, "velocity": 0, "duration": 148}, {"note": 77, "velocity": 84, "duration": 404}, {"note": 0, "velocity": 0, "duration": 76}, {"note": 84, "velocity": 76, "duration": 443}, {"note": 77, "velocity": 81, "duration": 436}, {"note": 84, "velocity": 79, "duration": 424}, {"note": 82, "velocity": 77, "duration": 186}, {"note": 82, "velocity": 76, "duration": 66}, {"note": 82, "velocity": 74, "duration": 95}, {"note": 80, "velocity": 80, "duration": 176}, {"note": 0, "velocity": 0, "duration": 64}, {"note": 82, "velocity": 80, "duration": 120}, {"note": 82, "velocity": 80, "duration": 120}, {"note": 84, "velocity": 77, "duration": 227}, {"note": 82, "velocity": 80, "duration": 256}, {"note": 80, "velocity": 79, "duration": 408}, {"note": 0, "velocity": 0, "duration": 72}, {"note": 82, "velocity": 79, "duration": 148}, {"note": 0, "velocity": 0, "duration": 92}, {"note": 82, "velocity": 73, "duration": 87}, {"note": 82, "velocity": 76, "duration": 71}, {"note": 82, "velocity": 75, "duration": 154}, {"note": 0, "velocity": 0, "duration": 86}, {"note": 84, "velocity": 80, "duration": 186}, {"note": 75, "velocity": 79, "duration": 182}, {"note": 77, "velocity": 79, "duration": 177}, {"note": 0, "velocity": 0, "duration": 63}, {"note": 82, "velocity": 80, "duration": 203}, {"note": 79, "velocity": 75, "duration": 190}, {"note": 77, "velocity": 80, "duration": 1572}, {"note": 0, "velocity": 0, "duration": 348}, {"note": 77, "velocity": 81, "duration": 101}, {"note": 0, "velocity": 0, "duration": 139}, {"note": 77, "velocity": 74, "duration": 64}, {"note": 77, "velocity": 77, "duration": 52}, {"note": 0, "velocity": 0, "duration": 68}, {"note": 77, "velocity": 80, "duration": 188}, {"note": 80, "velocity": 72, "duration": 186}, {"note": 72, "velocity": 82, "duration": 207}, {"note": 75, "velocity": 80, "duration": 490}, {"note": 72, "velocity": 81, "duration": 207}, {"note": 77, "velocity": 80, "duration": 194}, {"note": 79, "velocity": 72, "duration": 116}, {"note": 77, "velocity": 82, "duration": 96}, {"note": 75, "velocity": 79, "duration": 196}, {"note": 77, "velocity": 83, "duration": 186}, {"note": 80, "velocity": 79, "duration": 812}, {"note": 0, "velocity": 0, "duration": 148}, {"note": 77, "velocity": 84, "duration": 404}, {"note": 0, "velocity": 0, "duration": 76}, {"note": 84, "velocity": 76, "duration": 443}, {"note": 77, "velocity": 81, "duration": 436}, {"note": 84, "velocity": 79, "duration": 424}, {"note": 82, "velocity": 77, "duration": 186}, {"note": 82, "velocity": 76, "duration": 66}, {"note": 82, "velocity": 74, "duration": 95}, {"note": 80, "velocity": 80, "duration": 176}, {"note": 0, "velocity": 0, "duration": 64}, {"note": 82, "velocity": 80, "duration": 120}, {"note": 82, "velocity": 80, "duration": 120}, {"note": 84, "velocity": 77, "duration": 227}, {"note": 82, "velocity": 80, "duration": 256}, {"note": 80, "velocity": 79, "duration": 408}, {"note": 0, "velocity": 0, "duration": 72}, {"note": 82, "velocity": 79, "duration": 148}, {"note": 0, "velocity": 0, "duration": 92}, {"note": 82, "velocity": 73, "duration": 87}, {"note": 82, "velocity": 76, "duration": 71}, {"note": 82, "velocity": 75, "duration": 154}, {"note": 0, "velocity": 0, "duration": 86}, {"note": 84, "velocity": 80, "duration": 186}, {"note": 75, "velocity": 79, "duration": 182}, {"note": 77, "velocity": 79, "duration": 177}, {"note": 0, "velocity": 0, "duration": 63}, {"note": 82, "velocity": 80, "duration": 203}, {"note": 79, "velocity": 75, "duration": 190}, {"note": 77, "velocity": 80, "duration": 1572}]]