[[{"note": 66, "velocity": 83, "duration": 86}, {"note": 66, "velocity": 83, "duration": 69}, {"note": 66, "velocity": 84, "duration": 133}, {"note": 63, "velocity": 84, "duration": 120}, {"note": 68, "velocity": 83, "duration": 268}, {"note": 0, "velocity": 0, "duration": 92}, {"note": 66, "velocity": 83, "duration": 647}, {"note": 0, "velocity": 0, "duration": 433}, {"note": 66, "velocity": 84, "duration": 78}, {"note": 66, "velocity": 83, "duration": 61}, {"note": 66, "velocity": 78, "duration": 106}, {"note": 63, "velocity": 83, "duration": 113}, {"note": 68, "velocity": 82, "duration": 217}, {"note": 66, "velocity": 83, "duration": 664}, {"note": 0, "velocity": 0, "duration": 536}, {"note": 66, "velocity": 84, "duration": 69}, {"note": 66, "velocity": 82, "duration": 52}, {"note": 0, "velocity": 0, "duration": 68}, {"note": 66, "velocity": 82, "duration": 94}, {"note": 63, "velocity": 82, "duration": 77}, {"note": 68, "velocity": 79, "duration": 186}, {"note": 66, "velocity": 84, "duration": 76}, {"note": 68, "velocity": 78, "duration": 324}, {"note": 66, "velocity": 83, "duration": 237}, {"note": 68, "velocity": 77, "duration": 199}, {"note": 66, "velocity": 82, "duration": 245}, {"note": 61, "velocity": 82, "duration": 1339}, {"note": 0, "velocity": 0, "duration": 581}, {"note": 66, "velocity": 81, "duration": 75}, {"note": 66, "velocity": 78, "duration": 58}, {"note": 0, "velocity": 0, "duration": 62}, {"note": 66, "velocity": 81, "duration": 108}, {"note": 63, "velocity": 83, "duration": 86}, {"note": 68, "velocity": 82, "duration": 219}, {"note": 66, "velocity": 83, "duration": 827}, {"note": 0, "velocity": 0, "duration": 373}, {"note": 66, "velocity": 83, "duration": 69}, {"note": 66, "velocity": 82, "duration": 56}, {"note": 0, "velocity": 0, "duration": 64}, {"note": 66, "velocity": 80, "duration": 102}, {"note": 63, "velocity": 81, "duration": 108}, {"note": 68, "velocity": 83, "duration": 215}, {"note": 66, "velocity": 84, "duration": 820}, {"note": 0, "velocity": 0, "duration": 380}, {"note": 66, "velocity": 82, "duration": 75}, {"note": 66, "velocity": 83, "duration": 56}, {"note": 0, "velocity": 0, "duration": 64}, {"note": 66, "velocity": 83, "duration": 100}, {"note": 63, "velocity": 82, "duration": 81}, {"note": 68, "velocity": 83, "duration": 206}, {"note": 66, "velocity": 83, "duration": 76}, {"note": 68, "velocity": 82, "duration": 289}, {"note": 0, "velocity": 0, "duration": 71}, {"note": 61, "velocity": 83, "duration": 222}, {"note": 68, "velocity": 83, "duration": 204}, {"note": 66, "velocity": 83, "duration": 173}, {"note": 0, "velocity": 0, "duration": 67}, {"note": 66, "velocity": 83, "duration": 625}, {"note": 0, "velocity": 0, "duration": 335}, {"note": 70, "velocity": 84, "duration": 190}, {"note": 71, "velocity": 87, "duration": 193}, {"note": 73, "velocity": 83, "duration": 602}, {"note": 0, "velocity": 0, "duration": 118}, {"note": 63, "velocity": 82, "duration": 212}, {"note": 62, "velocity": 85, "duration": 504}, {"note": 71, "velocity": 87, "duration": 461}, {"note": 70, "velocity": 83, "duration": 490}, {"note": 0, "velocity": 0, "duration": 230}, {"note": 71, "velocity": 85, "duration": 195}, {"note": 70, "velocity": 83, "duration": 720}, {"note": 0, "velocity": 0, "duration": 240}, {"note": 68, "velocity": 82, "duration": 197}, {"note": 66, "velocity": 83, "duration": 194}, {"note": 66, "velocity": 83, "duration": 217}, {"note": 63, "velocity": 80, "duration": 185}, {"note": 63, "velocity": 84, "duration": 181}, {"note": 65, "velocity": 86, "duration": 195}, {"note": 66, "velocity": 83, "duration": 190}, {"note": 68, "velocity": 76, "duration": 263}, {"note": 70, "velocity": 80, "duration": 720}, {"note": 73, "velocity": 86, "duration": 256}, {"note": 68, "velocity": 80, "duration": 456}, {"note": 70, "velocity": 83, "duration": 464}, {"note": 66, "velocity": 83, "duration": 484}, {"note": 61, "velocity": 86, "duration": 102}, {"note": 73, "velocity": 84, "duration": 75}, {"note": 73, "velocity": 84, "duration": 61}, {"note": 73, "velocity": 81, "duration": 71}, {"note": 73, "velocity": 84, "duration": 199}, {"note": 73, "velocity": 84, "duration": 71}, {"note": 73, "velocity": 84, "duration": 67}, {"note": 73, "velocity": 83, "duration": 166}, {"note": 0, "velocity": 0, "duration": 74}, {"note": 71, "velocity": 83, "duration": 205}, {"note": 65, "velocity": 83, "duration": 312}, {"note": 0, "velocity": 0, "duration": 168}, {"note": 61, "velocity": 89, "duration": 83}, {"note": 73, "velocity": 80, "duration": 61}, {"note": 73, "velocity": 81, "duration": 65}, {"note": 73, "velocity": 83, "duration": 58}, {"note": 0, "velocity": 0, "duration": 62}, {"note": 73, "velocity": 84, "duration": 163}, {"note": 0, "velocity": 0, "duration": 77}, {"note": 73, "velocity": 82, "duration": 61}, {"note": 73, "velocity": 82, "duration": 59}, {"note": 0, "velocity": 0, "duration": 61}, {"note": 73, "velocity": 86, "duration": 157}, {"note": 0, "velocity": 0, "duration": 83}, {"note": 71, "velocity": 85, "duration": 100}, {"note": 70, "velocity": 83, "duration": 91}, {"note": 66, "velocity": 84, "duration": 360}, {"note": 0, "velocity": 0, "duration": 120}, {"note": 63, "velocity": 84, "duration": 127}, {"note": 73, "velocity": 71, "duration": 71}, {"note": 73, "velocity": 86, "duration": 61}, {"note": 73, "velocity": 83, "duration": 85}, {"note": 75, "velocity": 87, "duration": 179}, {"note": 0, "velocity": 0, "duration": 61}, {"note": 75, "velocity": 84, "duration": 103}, {"note": 78, "velocity": 67, "duration": 68}, {"note": 75, "velocity": 98, "duration": 232}, {"note": 73, "velocity": 84, "duration": 213}, {"note": 71, "velocity": 84, "duration": 389}, {"note": 0, "velocity": 0, "duration": 91}, {"note": 63, "velocity": 84, "duration": 67}, {"note": 63, "velocity": 86, "duration": 61}, {"note": 66, "velocity": 83, "duration": 69}, {"note": 68, "velocity": 82, "duration": 72}, {"note": 70, "velocity": 82, "duration": 179}, {"note": 0, "velocity": 0, "duration": 61}, {"note": 61, "velocity": 83, "duration": 221}, {"note": 63, "velocity": 82, "duration": 162}, {"note": 0, "velocity": 0, "duration": 78}, {"note": 66, "velocity": 84, "duration": 187}, {"note": 71, "velocity": 83, "duration": 179}, {"note": 0, "velocity": 0, "duration": 61}, {"note": 71, "velocity": 80, "duration": 167}, {"note": 0, "velocity": 0, "duration": 73}, {"note": 71, "velocity": 86, "duration": 179}, {"note": 0, "velocity": 0, "duration": 61}, {"note": 73, "velocity": 83, "duration": 187}, {"note": 68, "velocity": 81, "duration": 396}, {"note": 0, "velocity": 0, "duration": 84}, {"note": 70, "velocity": 84, "duration": 420}, {"note": 66, "velocity": 83, "duration": 484}, {"note": 61, "velocity": 86, "duration": 102}, {"note": 73, "velocity": 84, "duration": 75}, {"note": 73, "velocity": 84, "duration": 61}, {"note": 73, "velocity": 81, "duration": 71}, {"note": 73, "velocity": 84, "duration": 199}, {"note": 73, "velocity": 84, "duration": 71}, {"note": 73, "velocity": 84, "duration": 67}, {"note": 73, "velocity": 83, "duration": 166}, {"note": 0, "velocity": 0, "duration": 74}, {"note": 71, "velocity": 83, "duration": 205}, {"note": 65, "velocity": 83, "duration": 312}, {"note": 0, "velocity": 0, "duration": 168}, {"note": 61, "velocity": 89, "duration": 83}, {"note": 73, "velocity": 80, "duration": 61}, {"note": 73, "velocity": 81, "duration": 65}, {"note": 73, "velocity": 83, "duration": 58}, {"note": 0, "velocity": 0, "duration": 62}, {"note": 73, "velocity": 84, "duration": 163}, {"note": 0, "velocity": 0, "duration": 77}, {"note": 73, "velocity": 82, "duration": 61}, {"note": 73, "velocity": 82, "duration": 59}, {"note": 0, "velocity": 0, "duration": 61}, {"note": 73, "velocity": 86, "duration": 157}, {"note": 0, "velocity": 0, "duration": 83}, {"note": 71, "velocity": 85, "duration": 100}, {"note": 70, "velocity": 83, "duration": 91}, {"note": 66, "velocity": 84, "duration": 360}, {"note": 0, "velocity": 0, "duration": 120}, {"note": 63, "velocity": 84, "duration": 127}, {"note": 73, "velocity": 71, "duration": 71}, {"note": 73, "velocity": 86, "duration": 61}, {"note": 73, "velocity": 83, "duration": 85}, {"note": 75, "velocity": 87, "duration": 179}, {"note": 0, "velocity": 0, "duration": 61}, {"note": 75, "velocity": 84, "duration": 103}, {"note": 78, "velocity": 67, "duration": 68}, {"note": 75, "velocity": 98, "duration": 232}, {"note": 73, "velocity": 84, "duration": 213}, {"note": 71, "velocity": 84, "duration": 389}, {"note": 0, "velocity": 0, "duration": 91}, {"note": 63, "velocity": 84, "duration": 67}, {"note": 63, "velocity": 86, "duration": 61}, {"note": 66, "velocity": 83, "duration": 69}, {"note": 68, "velocity": 82, "duration": 72}, {"note": 70, "velocity": 82, "duration": 179}, {"note": 0, "velocity": 0, "duration": 61}, {"note": 61, "velocity": 83, "duration": 221}, {"note": 63, "velocity": 82, "duration": 162}, {"note": 0, "velocity": 0, "duration": 78}, {"note": 66, "velocity": 84, "duration": 187}, {"note": 71, "velocity": 83, "duration": 179}, {"note": 0, "velocity": 0, "duration": 61}, {"note": 71, "velocity": 80, "duration": 167}, {"note": 0, "velocity": 0, "duration": 73}, {"note": 71, "velocity": 86, "duration": 179}, {"note": 0, "velocity": 0, "duration": 61}, {"note": 70, "velocity": 83, "duration": 187}, {"note": 68, "velocity": 81, "duration": 396}, {"note": 0, "velocity": 0, "duration": 84}, {"note": 70, "velocity": 84, "duration": 480}, {"note": 66, "velocity": 83, "duration": 960}, {"note": 0, "velocity": 0, "duration": 7200}, {"note": 66, "velocity": 81, "duration": 75}, {"note": 66, "velocity": 78, "duration": 58}, {"note": 0, "velocity": 0, "duration": 62}, {"note": 66, "velocity": 81, "duration": 108}, {"note": 63, "velocity": 83, "duration": 86}, {"note": 68, "velocity": 82, "duration": 219}, {"note": 66, "velocity": 83, "duration": 827}, {"note": 0, "velocity": 0, "duration": 373}, {"note": 66, "velocity": 83, "duration": 69}, {"note": 66, "velocity": 82, "duration": 56}, {"note": 0, "velocity": 0, "duration": 64}, {"note": 66, "velocity": 80, "duration": 102}, {"note": 63, "velocity": 81, "duration": 108}, {"note": 68, "velocity": 83, "duration": 215}, {"note": 66, "velocity": 84, "duration": 820}, {"note": 0, "velocity": 0, "duration": 380}, {"note": 66, "velocity": 82, "duration": 75}, {"note": 66, "velocity": 83, "duration": 56}, {"note": 0, "velocity": 0, "duration": 64}, {"note": 66, "velocity": 83, "duration": 100}, {"note": 63, "velocity": 82, "duration": 81}, {"note": 68, "velocity": 83, "duration": 206}, {"note": 66, "velocity": 83, "duration": 76}, {"note": 68, "velocity": 82, "duration": 289}, {"note": 0, "velocity": 0, "duration": 71}, {"note": 61, "velocity": 83, "duration": 222}, {"note": 68, "velocity": 83, "duration": 204}, {"note": 66, "velocity": 83, "duration": 173}, {"note": 0, "velocity": 0, "duration": 67}, {"note": 66, "velocity": 83, "duration": 625}, {"note": 0, "velocity": 0, "duration": 335}, {"note": 70, "velocity": 84, "duration": 190}, {"note": 71, "velocity": 87, "duration": 193}, {"note": 73, "velocity": 83, "duration": 602}, {"note": 0, "velocity": 0, "duration": 118}, {"note": 63, "velocity": 82, "duration": 212}, {"note": 62, "velocity": 85, "duration": 504}, {"note": 71, "velocity": 87, "duration": 461}, {"note": 70, "velocity": 83, "duration": 490}, {"note": 0, "velocity": 0, "duration": 230}, {"note": 71, "velocity": 85, "duration": 195}, {"note": 70, "velocity": 83, "duration": 720}, {"note": 0, "velocity": 0, "duration": 240}, {"note": 68, "velocity": 82, "duration": 197}, {"note": 66, "velocity": 83, "duration": 194}, {"note": 66, "velocity": 83, "duration": 217}, {"note": 63, "velocity": 80, "duration": 185}, {"note": 63, "velocity": 84, "duration": 181}, {"note": 65, "velocity": 86, "duration": 195}, {"note": 66, "velocity": 83, "duration": 190}, {"note": 68, "velocity": 76, "duration": 263}, {"note": 70, "velocity": 80, "duration": 720}, {"note": 73, "velocity": 86, "duration": 256}, {"note": 68, "velocity": 80, "duration": 456}, {"note": 70, "velocity": 83, "duration": 464}, {"note": 66, "velocity": 83, "duration": 484}, {"note": 61, "velocity": 86, "duration": 102}, {"note": 73, "velocity": 84, "duration": 75}, {"note": 73, "velocity": 84, "duration": 61}, {"note": 73, "velocity": 81, "duration": 71}, {"note": 73, "velocity": 84, "duration": 199}, {"note": 73, "velocity": 84, "duration": 71}, {"note": 73, "velocity": 84, "duration": 67}, {"note": 73, "velocity": 83, "duration": 166}, {"note": 0, "velocity": 0, "duration": 74}, {"note": 71, "velocity": 83, "duration": 205}, {"note": 65, "velocity": 83, "duration": 312}, {"note": 0, "velocity": 0, "duration": 168}, {"note": 61, "velocity": 89, "duration": 83}, {"note": 73, "velocity": 80, "duration": 61}, {"note": 73, "velocity": 81, "duration": 65}, {"note": 73, "velocity": 83, "duration": 58}, {"note": 0, "velocity": 0, "duration": 62}, {"note": 73, "velocity": 84, "duration": 163}, {"note": 0, "velocity": 0, "duration": 77}, {"note": 73, "velocity": 82, "duration": 61}, {"note": 73, "velocity": 82, "duration": 59}, {"note": 0, "velocity": 0, "duration": 61}, {"note": 73, "velocity": 86, "duration": 157}, {"note": 0, "velocity": 0, "duration": 83}, {"note": 71, "velocity": 85, "duration": 100}, {"note": 70, "velocity": 83, "duration": 91}, {"note": 66, "velocity": 84, "duration": 360}, {"note": 0, "velocity": 0, "duration": 120}, {"note": 63, "velocity": 84, "duration": 127}, {"note": 73, "velocity": 71, "duration": 71}, {"note": 73, "velocity": 86, "duration": 61}, {"note": 73, "velocity": 83, "duration": 85}, {"note": 75, "velocity": 87, "duration": 179}, {"note": 0, "velocity": 0, "duration": 61}, {"note": 75, "velocity": 84, "duration": 103}, {"note": 78, "velocity": 67, "duration": 68}, {"note": 75, "velocity": 98, "duration": 232}, {"note": 73, "velocity": 84, "duration": 213}, {"note": 71, "velocity": 84, "duration": 389}, {"note": 0, "velocity": 0, "duration": 91}, {"note": 63, "velocity": 84, "duration": 67}, {"note": 63, "velocity": 86, "duration": 61}, {"note": 66, "velocity": 83, "duration": 69}, {"note": 68, "velocity": 82, "duration": 72}, {"note": 70, "velocity": 82, "duration": 179}, {"note": 0, "velocity": 0, "duration": 61}, {"note": 61, "velocity": 83, "duration": 221}, {"note": 63, "velocity": 82, "duration": 162}, {"note": 0, "velocity": 0, "duration": 78}, {"note": 66, "velocity": 84, "duration": 187}, {"note": 71, "velocity": 83, "duration": 179}, {"note": 0, "velocity": 0, "duration": 61}, {"note": 71, "velocity": 80, "duration": 167}, {"note": 0, "velocity": 0, "duration": 73}, {"note": 71, "velocity": 86, "duration": 179}, {"note": 0, "velocity": 0, "duration": 61}, {"note": 73, "velocity": 83, "duration": 187}, {"note": 68, "velocity": 81, "duration": 396}, {"note": 0, "velocity": 0, "duration": 84}, {"note": 70, "velocity": 84, "duration": 420}, {"note": 66, "velocity": 83, "duration": 484}, {"note": 61, "velocity": 86, "duration": 102}, {"note": 73, "velocity": 84, "duration": 75}, {"note": 73, "velocity": 84, "duration": 61}, {"note": 73, "velocity": 81, "duration": 71}, {"note": 73, "velocity": 84, "duration": 199}, {"note": 73, "velocity": 84, "duration": 71}, {"note": 73, "velocity": 84, "duration": 67}, {"note": 73, "velocity": 83, "duration": 166}, {"note": 0, "velocity": 0, "duration": 74}, {"note": 71, "velocity": 83, "duration": 205}, {"note": 65, "velocity": 83, "duration": 312}, {"note": 0, "velocity": 0, "duration": 168}, {"note": 61, "velocity": 89, "duration": 83}, {"note": 73, "velocity": 80, "duration": 61}, {"note": 73, "velocity": 81, "duration": 65}, {"note": 73, "velocity": 83, "duration": 58}, {"note": 0, "velocity": 0, "duration": 62}, {"note": 73, "velocity": 84, "duration": 163}, {"note": 0, "velocity": 0, "duration": 77}, {"note": 73, "velocity": 82, "duration": 61}, {"note": 73, "velocity": 82, "duration": 59}, {"note": 0, "velocity": 0, "duration": 61}, {"note": 73, "velocity": 86, "duration": 157}, {"note": 0, "velocity": 0, "duration": 83}, {"note": 71, "velocity": 85, "duration": 100}, {"note": 70, "velocity": 83, "duration": 91}, {"note": 66, "velocity": 84, "duration": 360}, {"note": 0, "velocity": 0, "duration": 120}, {"note": 63, "velocity": 84, "duration": 127}, {"note": 73, "velocity": 71, "duration": 71}, {"note": 73, "velocity": 86, "duration": 61}, {"note": 73, "velocity": 83, "duration": 85}, {"note": 75, "velocity": 87, "duration": 179}, {"note": 0, "velocity": 0, "duration": 61}, {"note": 75, "velocity": 84, "duration": 103}, {"note": 78, "velocity": 67, "duration": 68}, {"note": 75, "velocity": 98, "duration": 232}, {"note": 73, "velocity": 84, "duration": 213}, {"note": 71, "velocity": 84, "duration": 389}, {"note": 0, "velocity": 0, "duration": 91}, {"note": 63, "velocity": 84, "duration": 67}, {"note": 63, "velocity": 86, "duration": 61}, {"note": 66, "velocity": 83, "duration": 69}, {"note": 68, "velocity": 82, "duration": 72}, {"note": 70, "velocity": 82, "duration": 179}, {"note": 0, "velocity": 0, "duration": 61}, {"note": 61, "velocity": 83, "duration": 221}, {"note": 63, "velocity": 82, "duration": 162}, {"note": 0, "velocity": 0, "duration": 78}, {"note": 66, "velocity": 84, "duration": 187}, {"note": 71, "velocity": 83, "duration": 179}, {"note": 0, "velocity": 0, "duration": 61}, {"note": 71, "velocity": 80, "duration": 167}, {"note": 0, "velocity": 0, "duration": 73}, {"note": 71, "velocity": 86, "duration": 179}, {"note": 0, "velocity": 0, "duration": 61}, {"note": 70, "velocity": 83, "duration": 187}, {"note": 68, "velocity": 81, "duration": 396}, {"note": 0, "velocity": 0, "duration": 84}, {"note": 70, "velocity": 84, "duration": 480}, {"note": 66, "velocity": 83, "duration": 484}, {"note": 61, "velocity": 86, "duration": 102}, {"note": 73, "velocity": 84, "duration": 75}, {"note": 73, "velocity": 84, "duration": 61}, {"note": 73, "velocity": 81, "duration": 71}, {"note": 73, "velocity": 84, "duration": 199}, {"note": 73, "velocity": 84, "duration": 71}, {"note": 73, "velocity": 84, "duration": 67}, {"note": 73, "velocity": 83, "duration": 166}, {"note": 0, "velocity": 0, "duration": 74}, {"note": 71, "velocity": 83, "duration": 205}, {"note": 65, "velocity": 83, "duration": 312}, {"note": 0, "velocity": 0, "duration": 168}, {"note": 61, "velocity": 89, "duration": 83}, {"note": 73, "velocity": 80, "duration": 61}, {"note": 73, "velocity": 81, "duration": 65}, {"note": 73, "velocity": 83, "duration": 58}, {"note": 0, "velocity": 0, "duration": 62}, {"note": 73, "velocity": 84, "duration": 163}, {"note": 0, "velocity": 0, "duration": 77}, {"note": 73, "velocity": 82, "duration": 61}, {"note": 73, "velocity": 82, "duration": 59}, {"note": 0, "velocity": 0, "duration": 61}, {"note": 73, "velocity": 86, "duration": 157}, {"note": 0, "velocity": 0, "duration": 83}, {"note": 71, "velocity": 85, "duration": 100}, {"note": 70, "velocity": 83, "duration": 91}, {"note": 66, "velocity": 84, "duration": 360}, {"note": 0, "velocity": 0, "duration": 120}, {"note": 63, "velocity": 84, "duration": 127}, {"note": 73, "velocity": 71, "duration": 71}, {"note": 73, "velocity": 86, "duration": 61}, {"note": 73, "velocity": 83, "duration": 85}, {"note": 75, "velocity": 87, "duration": 179}, {"note": 0, "velocity": 0, "duration": 61}, {"note": 75, "velocity": 84, "duration": 103}, {"note": 78, "velocity": 67, "duration": 68}, {"note": 75, "velocity": 98, "duration": 232}, {"note": 73, "velocity": 84, "duration": 213}, {"note": 71, "velocity": 84, "duration": 389}, {"note": 0, "velocity": 0, "duration": 91}, {"note": 63, "velocity": 84, "duration": 67}, {"note": 63, "velocity": 86, "duration": 61}, {"note": 66, "velocity": 83, "duration": 69}, {"note": 68, "velocity": 82, "duration": 72}, {"note": 70, "velocity": 82, "duration": 179}, {"note": 0, "velocity": 0, "duration": 61}, {"note": 61, "velocity": 83, "duration": 221}, {"note": 63, "velocity": 82, "duration": 162}, {"note": 0, "velocity": 0, "duration": 78}, {"note": 66, "velocity": 84, "duration": 187}, {"note": 71, "velocity": 83, "duration": 179}, {"note": 0, "velocity": 0, "duration": 61}, {"note": 71, "velocity": 80, "duration": 167}, {"note": 0, "velocity": 0, "duration": 73}, {"note": 71, "velocity": 86, "duration": 179}, {"note": 0, "velocity": 0, "duration": 61}, {"note": 73, "velocity": 83, "duration": 187}, {"note": 68, "velocity": 81, "duration": 396}, {"note": 0, "velocity": 0, "duration": 84}, {"note": 70, "velocity": 84, "duration": 420}, {"note": 66, "velocity": 83, "duration": 484}, {"note": 61, "velocity": 86, "duration": 102}, {"note": 73, "velocity": 84, "duration": 75}, {"note": 73, "velocity": 84, "duration": 61}, {"note": 73, "velocity": 81, "duration": 71}, {"note": 73, "velocity": 84, "duration": 199}, {"note": 73, "velocity": 84, "duration": 71}, {"note": 73, "velocity": 84, "duration": 67}, {"note": 73, "velocity": 83, "duration": 166}, {"note": 0, "velocity": 0, "duration": 74}, {"note": 71, "velocity": 83, "duration": 205}, {"note": 65, "velocity": 83, "duration": 312}, {"note": 0, "velocity": 0, "duration": 168}, {"note": 61, "velocity": 89, "duration": 83}, {"note": 73, "velocity": 80, "duration": 61}, {"note": 73, "velocity": 81, "duration": 65}, {"note": 73, "velocity": 83, "duration": 58}, {"note": 0, "velocity": 0, "duration": 62}, {"note": 73, "velocity": 84, "duration": 163}, {"note": 0, "velocity": 0, "duration": 77}, {"note": 73, "velocity": 82, "duration": 61}, {"note": 73, "velocity": 82, "duration": 59}, {"note": 0, "velocity": 0, "duration": 61}, {"note": 73, "velocity": 86, "duration": 157}, {"note": 0, "velocity": 0, "duration": 83}, {"note": 71, "velocity": 85, "duration": 100}, {"note": 70, "velocity": 83, "duration": 91}, {"note": 66, "velocity": 84, "duration": 360}, {"note": 0, "velocity": 0, "duration": 120}, {"note": 63, "velocity": 84, "duration": 127}, {"note": 73, "velocity": 71, "duration": 71}, {"note": 73, "velocity": 86, "duration": 61}, {"note": 73, "velocity": 83, "duration": 85}, {"note": 75, "velocity": 87, "duration": 179}, {"note": 0, "velocity": 0, "duration": 61}, {"note": 75, "velocity": 84, "duration": 103}, {"note": 78, "velocity": 67, "duration": 68}, {"note": 75, "velocity": 98, "duration": 232}, {"note": 73, "velocity": 84, "duration": 213}, {"note": 71, "velocity": 84, "duration": 389}, {"note": 0, "velocity": 0, "duration": 91}, {"note": 63, "velocity": 84, "duration": 67}, {"note": 63, "velocity": 86, "duration": 61}, {"note": 66, "velocity": 83, "duration": 69}, {"note": 68, "velocity": 82, "duration": 72}, {"note": 70, "velocity": 82, "duration": 179}, {"note": 0, "velocity": 0, "duration": 61}, {"note": 61, "velocity": 83, "duration": 221}, {"note": 63, "velocity": 82, "duration": 162}, {"note": 0, "velocity": 0, "duration": 78}, {"note": 66, "velocity": 84, "duration": 187}, {"note": 71, "velocity": 83, "duration": 179}, {"note": 0, "velocity": 0, "duration": 61}, {"note": 71, "velocity": 80, "duration": 167}, {"note": 0, "velocity": 0, "duration": 73}, {"note": 71, "velocity": 86, "duration": 179}, {"note": 0, "velocity": 0, "duration": 61}, {"note": 70, "velocity": 83, "duration": 187}, {"note": 68, "velocity": 81, "duration": 396}, {"note": 0, "velocity": 0, "duration": 84}, {"note": 70, "velocity": 84, "duration": 480}, {"note": 66, "velocity": 83, "duration": 960}]]