[[{"note": 67, "velocity": 83, "duration": 118}, {"note": 70, "velocity": 82, "duration": 95}, {"note": 70, "velocity": 84, "duration": 118}, {"note": 70, "velocity": 91, "duration": 129}, {"note": 67, "velocity": 82, "duration": 122}, {"note": 74, "velocity": 87, "duration": 173}, {"note": 74, "velocity": 84, "duration": 109}, {"note": 74, "velocity": 88, "duration": 344}, {"note": 0, "velocity": 0, "duration": 103}, {"note": 67, "velocity": 82, "duration": 123}, {"note": 70, "velocity": 80, "duration": 141}, {"note": 67, "velocity": 74, "duration": 342}, {"note": 0, "velocity": 0, "duration": 1708}, {"note": 67, "velocity": 79, "duration": 116}, {"note": 70, "velocity": 78, "duration": 76}, {"note": 70, "velocity": 83, "duration": 155}, {"note": 0, "velocity": 0, "duration": 65}, {"note": 70, "velocity": 83, "duration": 132}, {"note": 74, "velocity": 85, "duration": 223}, {"note": 74, "velocity": 84, "duration": 116}, {"note": 74, "velocity": 87, "duration": 87}, {"note": 74, "velocity": 86, "duration": 183}, {"note": 70, "velocity": 84, "duration": 138}, {"note": 72, "velocity": 77, "duration": 667}, {"note": 0, "velocity": 0, "duration": 1080}, {"note": 65, "velocity": 78, "duration": 83}, {"note": 65, "velocity": 81, "duration": 82}, {"note": 67, "velocity": 83, "duration": 104}, {"note": 70, "velocity": 79, "duration": 103}, {"note": 70, "velocity": 82, "duration": 93}, {"note": 70, "velocity": 83, "duration": 127}, {"note": 70, "velocity": 86, "duration": 101}, {"note": 70, "velocity": 85, "duration": 91}, {"note": 74, "velocity": 91, "duration": 124}, {"note": 74, "velocity": 86, "duration": 109}, {"note": 74, "velocity": 87, "duration": 115}, {"note": 79, "velocity": 85, "duration": 136}, {"note": 79, "velocity": 83, "duration": 107}, {"note": 0, "velocity": 0, "duration": 63}, {"note": 79, "velocity": 84, "duration": 104}, {"note": 77, "velocity": 84, "duration": 226}, {"note": 74, "velocity": 86, "duration": 95}, {"note": 74, "velocity": 89, "duration": 1000}, {"note": 0, "velocity": 0, "duration": 93}, {"note": 74, "velocity": 93, "duration": 143}, {"note": 72, "velocity": 84, "duration": 138}, {"note": 70, "velocity": 83, "duration": 136}, {"note": 67, "velocity": 82, "duration": 210}, {"note": 72, "velocity": 83, "duration": 107}, {"note": 72, "velocity": 82, "duration": 413}, {"note": 0, "velocity": 0, "duration": 857}, {"note": 67, "velocity": 80, "duration": 123}, {"note": 70, "velocity": 78, "duration": 125}, {"note": 67, "velocity": 83, "duration": 705}, {"note": 0, "velocity": 0, "duration": 1477}, {"note": 67, "velocity": 83, "duration": 118}, {"note": 70, "velocity": 82, "duration": 95}, {"note": 70, "velocity": 84, "duration": 118}, {"note": 70, "velocity": 91, "duration": 129}, {"note": 67, "velocity": 82, "duration": 122}, {"note": 74, "velocity": 87, "duration": 173}, {"note": 74, "velocity": 84, "duration": 109}, {"note": 74, "velocity": 88, "duration": 344}, {"note": 0, "velocity": 0, "duration": 103}, {"note": 67, "velocity": 82, "duration": 123}, {"note": 70, "velocity": 80, "duration": 141}, {"note": 67, "velocity": 74, "duration": 342}, {"note": 0, "velocity": 0, "duration": 1708}, {"note": 67, "velocity": 79, "duration": 116}, {"note": 70, "velocity": 78, "duration": 76}, {"note": 70, "velocity": 83, "duration": 155}, {"note": 0, "velocity": 0, "duration": 65}, {"note": 70, "velocity": 83, "duration": 132}, {"note": 70, "velocity": 83, "duration": 132}, {"note": 74, "velocity": 85, "duration": 116}, {"note": 74, "velocity": 84, "duration": 116}, {"note": 67, "velocity": 87, "duration": 87}, {"note": 74, "velocity": 86, "duration": 183}, {"note": 70, "velocity": 84, "duration": 138}, {"note": 72, "velocity": 77, "duration": 667}, {"note": 0, "velocity": 0, "duration": 1080}, {"note": 65, "velocity": 78, "duration": 83}, {"note": 65, "velocity": 81, "duration": 82}, {"note": 67, "velocity": 83, "duration": 104}, {"note": 70, "velocity": 79, "duration": 103}, {"note": 70, "velocity": 82, "duration": 93}, {"note": 70, "velocity": 83, "duration": 127}, {"note": 70, "velocity": 86, "duration": 101}, {"note": 70, "velocity": 85, "duration": 91}, {"note": 74, "velocity": 91, "duration": 124}, {"note": 74, "velocity": 86, "duration": 109}, {"note": 74, "velocity": 87, "duration": 115}, {"note": 79, "velocity": 85, "duration": 136}, {"note": 79, "velocity": 83, "duration": 107}, {"note": 0, "velocity": 0, "duration": 63}, {"note": 79, "velocity": 84, "duration": 104}, {"note": 77, "velocity": 84, "duration": 226}, {"note": 74, "velocity": 86, "duration": 95}, {"note": 74, "velocity": 89, "duration": 1000}, {"note": 0, "velocity": 0, "duration": 93}, {"note": 74, "velocity": 93, "duration": 143}, {"note": 72, "velocity": 84, "duration": 138}, {"note": 70, "velocity": 83, "duration": 136}, {"note": 67, "velocity": 82, "duration": 210}, {"note": 72, "velocity": 83, "duration": 107}, {"note": 72, "velocity": 82, "duration": 413}, {"note": 0, "velocity": 0, "duration": 857}, {"note": 67, "velocity": 80, "duration": 123}, {"note": 70, "velocity": 78, "duration": 125}, {"note": 67, "velocity": 83, "duration": 705}, {"note": 0, "velocity": 0, "duration": 529}, {"note": 67, "velocity": 87, "duration": 173}, {"note": 0, "velocity": 0, "duration": 67}, {"note": 70, "velocity": 91, "duration": 170}, {"note": 0, "velocity": 0, "duration": 70}, {"note": 74, "velocity": 89, "duration": 191}, {"note": 79, "velocity": 83, "duration": 1130}, {"note": 0, "velocity": 0, "duration": 190}, {"note": 67, "velocity": 79, "duration": 92}, {"note": 67, "velocity": 82, "duration": 216}, {"note": 79, "velocity": 80, "duration": 135}, {"note": 77, "velocity": 86, "duration": 1125}, {"note": 0, "velocity": 0, "duration": 419}, {"note": 67, "velocity": 88, "duration": 176}, {"note": 70, "velocity": 87, "duration": 215}, {"note": 79, "velocity": 88, "duration": 619}, {"note": 0, "velocity": 0, "duration": 108}, {"note": 79, "velocity": 86, "duration": 75}, {"note": 82, "velocity": 84, "duration": 112}, {"note": 81, "velocity": 87, "duration": 253}, {"note": 77, "velocity": 83, "duration": 66}, {"note": 77, "velocity": 84, "duration": 362}, {"note": 72, "velocity": 75, "duration": 207}, {"note": 74, "velocity": 88, "duration": 1178}, {"note": 67, "velocity": 71, "duration": 172}, {"note": 0, "velocity": 0, "duration": 77}, {"note": 70, "velocity": 84, "duration": 191}, {"note": 74, "velocity": 86, "duration": 235}, {"note": 79, "velocity": 83, "duration": 918}, {"note": 0, "velocity": 0, "duration": 380}, {"note": 67, "velocity": 82, "duration": 95}, {"note": 67, "velocity": 83, "duration": 202}, {"note": 79, "velocity": 83, "duration": 81}, {"note": 79, "velocity": 84, "duration": 364}, {"note": 77, "velocity": 83, "duration": 476}, {"note": 74, "velocity": 86, "duration": 581}, {"note": 0, "velocity": 0, "duration": 143}, {"note": 74, "velocity": 89, "duration": 127}, {"note": 72, "velocity": 83, "duration": 186}, {"note": 70, "velocity": 83, "duration": 113}, {"note": 72, "velocity": 83, "duration": 1022}, {"note": 0, "velocity": 0, "duration": 135}, {"note": 65, "velocity": 80, "duration": 80}, {"note": 65, "velocity": 82, "duration": 95}, {"note": 70, "velocity": 86, "duration": 216}, {"note": 69, "velocity": 82, "duration": 127}, {"note": 70, "velocity": 80, "duration": 136}, {"note": 67, "velocity": 78, "duration": 1861}, {"note": 0, "velocity": 0, "duration": 304}, {"note": 67, "velocity": 83, "duration": 118}, {"note": 70, "velocity": 82, "duration": 95}, {"note": 70, "velocity": 84, "duration": 118}, {"note": 70, "velocity": 91, "duration": 129}, {"note": 67, "velocity": 82, "duration": 122}, {"note": 74, "velocity": 87, "duration": 173}, {"note": 74, "velocity": 84, "duration": 109}, {"note": 74, "velocity": 88, "duration": 344}, {"note": 0, "velocity": 0, "duration": 103}, {"note": 67, "velocity": 82, "duration": 123}, {"note": 70, "velocity": 80, "duration": 141}, {"note": 67, "velocity": 74, "duration": 342}, {"note": 0, "velocity": 0, "duration": 1708}, {"note": 67, "velocity": 79, "duration": 116}, {"note": 70, "velocity": 78, "duration": 76}, {"note": 70, "velocity": 83, "duration": 155}, {"note": 0, "velocity": 0, "duration": 65}, {"note": 70, "velocity": 83, "duration": 132}, {"note": 70, "velocity": 83, "duration": 132}, {"note": 74, "velocity": 85, "duration": 116}, {"note": 74, "velocity": 84, "duration": 116}, {"note": 74, "velocity": 87, "duration": 87}, {"note": 77, "velocity": 86, "duration": 183}, {"note": 70, "velocity": 84, "duration": 138}, {"note": 72, "velocity": 77, "duration": 667}, {"note": 0, "velocity": 0, "duration": 1080}, {"note": 65, "velocity": 78, "duration": 83}, {"note": 65, "velocity": 81, "duration": 82}, {"note": 67, "velocity": 83, "duration": 104}, {"note": 70, "velocity": 79, "duration": 103}, {"note": 70, "velocity": 82, "duration": 93}, {"note": 70, "velocity": 83, "duration": 127}, {"note": 70, "velocity": 86, "duration": 101}, {"note": 70, "velocity": 85, "duration": 91}, {"note": 74, "velocity": 91, "duration": 124}, {"note": 74, "velocity": 86, "duration": 109}, {"note": 74, "velocity": 87, "duration": 115}, {"note": 79, "velocity": 85, "duration": 136}, {"note": 79, "velocity": 83, "duration": 107}, {"note": 0, "velocity": 0, "duration": 63}, {"note": 79, "velocity": 84, "duration": 104}, {"note": 77, "velocity": 84, "duration": 226}, {"note": 74, "velocity": 86, "duration": 95}, {"note": 74, "velocity": 89, "duration": 1000}, {"note": 0, "velocity": 0, "duration": 93}, {"note": 74, "velocity": 93, "duration": 143}, {"note": 72, "velocity": 84, "duration": 138}, {"note": 70, "velocity": 83, "duration": 136}, {"note": 67, "velocity": 82, "duration": 210}, {"note": 72, "velocity": 83, "duration": 107}, {"note": 72, "velocity": 82, "duration": 413}, {"note": 0, "velocity": 0, "duration": 857}, {"note": 67, "velocity": 80, "duration": 123}, {"note": 70, "velocity": 78, "duration": 125}, {"note": 67, "velocity": 83, "duration": 705}, {"note": 0, "velocity": 0, "duration": 529}, {"note": 67, "velocity": 87, "duration": 173}, {"note": 0, "velocity": 0, "duration": 67}, {"note": 70, "velocity": 91, "duration": 170}, {"note": 0, "velocity": 0, "duration": 70}, {"note": 74, "velocity": 89, "duration": 191}, {"note": 79, "velocity": 83, "duration": 1130}, {"note": 0, "velocity": 0, "duration": 190}, {"note": 67, "velocity": 79, "duration": 92}, {"note": 67, "velocity": 82, "duration": 216}, {"note": 79, "velocity": 80, "duration": 135}, {"note": 77, "velocity": 86, "duration": 1125}, {"note": 0, "velocity": 0, "duration": 419}, {"note": 67, "velocity": 88, "duration": 176}, {"note": 70, "velocity": 87, "duration": 215}, {"note": 79, "velocity": 88, "duration": 619}, {"note": 0, "velocity": 0, "duration": 108}, {"note": 79, "velocity": 86, "duration": 75}, {"note": 82, "velocity": 84, "duration": 112}, {"note": 81, "velocity": 87, "duration": 253}, {"note": 77, "velocity": 83, "duration": 66}, {"note": 77, "velocity": 84, "duration": 362}, {"note": 72, "velocity": 75, "duration": 207}, {"note": 74, "velocity": 88, "duration": 1178}, {"note": 67, "velocity": 71, "duration": 172}, {"note": 0, "velocity": 0, "duration": 77}, {"note": 70, "velocity": 84, "duration": 191}, {"note": 74, "velocity": 86, "duration": 235}, {"note": 79, "velocity": 83, "duration": 918}, {"note": 0, "velocity": 0, "duration": 380}, {"note": 67, "velocity": 82, "duration": 95}, {"note": 67, "velocity": 83, "duration": 202}, {"note": 79, "velocity": 83, "duration": 81}, {"note": 79, "velocity": 84, "duration": 364}, {"note": 77, "velocity": 83, "duration": 476}, {"note": 74, "velocity": 86, "duration": 581}, {"note": 0, "velocity": 0, "duration": 143}, {"note": 74, "velocity": 89, "duration": 127}, {"note": 72, "velocity": 83, "duration": 186}, {"note": 70, "velocity": 83, "duration": 113}, {"note": 72, "velocity": 83, "duration": 1022}, {"note": 0, "velocity": 0, "duration": 135}, {"note": 77, "velocity": 80, "duration": 80}, {"note": 77, "velocity": 82, "duration": 95}, {"note": 82, "velocity": 86, "duration": 216}, {"note": 81, "velocity": 82, "duration": 127}, {"note": 82, "velocity": 80, "duration": 136}, {"note": 79, "velocity": 78, "duration": 1861}, {"note": 0, "velocity": 0, "duration": 7036}, {"note": 67, "velocity": 87, "duration": 173}, {"note": 0, "velocity": 0, "duration": 67}, {"note": 70, "velocity": 91, "duration": 170}, {"note": 0, "velocity": 0, "duration": 70}, {"note": 74, "velocity": 89, "duration": 191}, {"note": 79, "velocity": 83, "duration": 1130}, {"note": 0, "velocity": 0, "duration": 190}, {"note": 67, "velocity": 79, "duration": 92}, {"note": 67, "velocity": 82, "duration": 216}, {"note": 79, "velocity": 80, "duration": 135}, {"note": 77, "velocity": 86, "duration": 1125}, {"note": 0, "velocity": 0, "duration": 419}, {"note": 67, "velocity": 88, "duration": 176}, {"note": 70, "velocity": 87, "duration": 215}, {"note": 79, "velocity": 88, "duration": 619}, {"note": 0, "velocity": 0, "duration": 108}, {"note": 79, "velocity": 86, "duration": 75}, {"note": 82, "velocity": 84, "duration": 112}, {"note": 81, "velocity": 87, "duration": 253}, {"note": 77, "velocity": 83, "duration": 66}, {"note": 77, "velocity": 84, "duration": 362}, {"note": 72, "velocity": 75, "duration": 207}, {"note": 74, "velocity": 88, "duration": 1178}, {"note": 67, "velocity": 71, "duration": 172}, {"note": 0, "velocity": 0, "duration": 77}, {"note": 70, "velocity": 84, "duration": 191}, {"note": 74, "velocity": 86, "duration": 235}, {"note": 79, "velocity": 83, "duration": 918}, {"note": 0, "velocity": 0, "duration": 380}, {"note": 67, "velocity": 82, "duration": 95}, {"note": 67, "velocity": 83, "duration": 202}, {"note": 79, "velocity": 83, "duration": 81}, {"note": 79, "velocity": 84, "duration": 364}, {"note": 77, "velocity": 83, "duration": 476}, {"note": 74, "velocity": 86, "duration": 581}, {"note": 0, "velocity": 0, "duration": 143}, {"note": 74, "velocity": 89, "duration": 127}, {"note": 72, "velocity": 83, "duration": 186}, {"note": 70, "velocity": 83, "duration": 113}, {"note": 72, "velocity": 83, "duration": 1022}, {"note": 0, "velocity": 0, "duration": 135}, {"note": 77, "velocity": 80, "duration": 80}, {"note": 77, "velocity": 82, "duration": 95}, {"note": 82, "velocity": 86, "duration": 216}, {"note": 81, "velocity": 82, "duration": 127}, {"note": 82, "velocity": 80, "duration": 136}, {"note": 0, "velocity": 0, "duration": 241}, {"note": 79, "velocity": 78, "duration": 836}, {"note": 0, "velocity": 0, "duration": 137}, {"note": 67, "velocity": 87, "duration": 173}, {"note": 0, "velocity": 0, "duration": 67}, {"note": 70, "velocity": 91, "duration": 170}, {"note": 0, "velocity": 0, "duration": 70}, {"note": 74, "velocity": 89, "duration": 191}, {"note": 79, "velocity": 83, "duration": 1130}, {"note": 0, "velocity": 0, "duration": 190}, {"note": 82, "velocity": 79, "duration": 92}, {"note": 82, "velocity": 82, "duration": 216}, {"note": 77, "velocity": 80, "duration": 135}, {"note": 79, "velocity": 86, "duration": 320}, {"note": 77, "velocity": 97, "duration": 709}, {"note": 0, "velocity": 0, "duration": 482}, {"note": 67, "velocity": 88, "duration": 176}, {"note": 70, "velocity": 87, "duration": 215}, {"note": 79, "velocity": 88, "duration": 619}, {"note": 0, "velocity": 0, "duration": 108}, {"note": 79, "velocity": 86, "duration": 75}, {"note": 82, "velocity": 84, "duration": 112}, {"note": 81, "velocity": 87, "duration": 253}, {"note": 77, "velocity": 83, "duration": 66}, {"note": 77, "velocity": 84, "duration": 362}, {"note": 72, "velocity": 75, "duration": 207}, {"note": 74, "velocity": 88, "duration": 116}, {"note": 72, "velocity": 97, "duration": 146}, {"note": 74, "velocity": 97, "duration": 549}, {"note": 0, "velocity": 0, "duration": 412}, {"note": 67, "velocity": 71, "duration": 172}, {"note": 0, "velocity": 0, "duration": 77}, {"note": 70, "velocity": 84, "duration": 191}, {"note": 74, "velocity": 86, "duration": 235}, {"note": 79, "velocity": 83, "duration": 918}, {"note": 0, "velocity": 0, "duration": 380}, {"note": 67, "velocity": 82, "duration": 95}, {"note": 67, "velocity": 83, "duration": 202}, {"note": 79, "velocity": 83, "duration": 81}, {"note": 79, "velocity": 84, "duration": 364}, {"note": 77, "velocity": 83, "duration": 476}, {"note": 74, "velocity": 86, "duration": 581}, {"note": 0, "velocity": 0, "duration": 143}, {"note": 74, "velocity": 89, "duration": 127}, {"note": 72, "velocity": 83, "duration": 186}, {"note": 70, "velocity": 83, "duration": 113}, {"note": 72, "velocity": 83, "duration": 1022}, {"note": 0, "velocity": 0, "duration": 147}, {"note": 65, "velocity": 84, "duration": 92}, {"note": 65, "velocity": 84, "duration": 123}, {"note": 70, "velocity": 82, "duration": 267}, {"note": 69, "velocity": 83, "duration": 938}, {"note": 0, "velocity": 0, "duration": 157}, {"note": 70, "velocity": 83, "duration": 518}, {"note": 67, "velocity": 79, "duration": 1518}]]