[[{"note": 70, "velocity": 86, "duration": 135}, {"note": 0, "velocity": 0, "duration": 105}, {"note": 70, "velocity": 88, "duration": 131}, {"note": 0, "velocity": 0, "duration": 109}, {"note": 70, "velocity": 88, "duration": 125}, {"note": 0, "velocity": 0, "duration": 115}, {"note": 70, "velocity": 89, "duration": 133}, {"note": 0, "velocity": 0, "duration": 107}, {"note": 70, "velocity": 95, "duration": 185}, {"note": 0, "velocity": 0, "duration": 295}, {"note": 71, "velocity": 91, "duration": 366}, {"note": 0, "velocity": 0, "duration": 114}, {"note": 71, "velocity": 86, "duration": 240}, {"note": 0, "velocity": 0, "duration": 240}, {"note": 71, "velocity": 85, "duration": 124}, {"note": 0, "velocity": 0, "duration": 116}, {"note": 71, "velocity": 88, "duration": 125}, {"note": 0, "velocity": 0, "duration": 115}, {"note": 66, "velocity": 85, "duration": 245}, {"note": 0, "velocity": 0, "duration": 235}, {"note": 61, "velocity": 86, "duration": 207}, {"note": 0, "velocity": 0, "duration": 273}, {"note": 70, "velocity": 85, "duration": 149}, {"note": 0, "velocity": 0, "duration": 91}, {"note": 70, "velocity": 84, "duration": 126}, {"note": 0, "velocity": 0, "duration": 114}, {"note": 70, "velocity": 86, "duration": 146}, {"note": 0, "velocity": 0, "duration": 94}, {"note": 70, "velocity": 84, "duration": 146}, {"note": 0, "velocity": 0, "duration": 94}, {"note": 70, "velocity": 85, "duration": 385}, {"note": 0, "velocity": 0, "duration": 95}, {"note": 68, "velocity": 84, "duration": 712}, {"note": 0, "velocity": 0, "duration": 1688}, {"note": 70, "velocity": 87, "duration": 136}, {"note": 0, "velocity": 0, "duration": 104}, {"note": 70, "velocity": 83, "duration": 125}, {"note": 0, "velocity": 0, "duration": 115}, {"note": 70, "velocity": 85, "duration": 135}, {"note": 0, "velocity": 0, "duration": 105}, {"note": 70, "velocity": 85, "duration": 121}, {"note": 0, "velocity": 0, "duration": 119}, {"note": 70, "velocity": 85, "duration": 175}, {"note": 0, "velocity": 0, "duration": 305}, {"note": 71, "velocity": 87, "duration": 398}, {"note": 0, "velocity": 0, "duration": 82}, {"note": 71, "velocity": 83, "duration": 480}, {"note": 71, "velocity": 85, "duration": 120}, {"note": 0, "velocity": 0, "duration": 120}, {"note": 71, "velocity": 84, "duration": 152}, {"note": 0, "velocity": 0, "duration": 88}, {"note": 66, "velocity": 90, "duration": 414}, {"note": 0, "velocity": 0, "duration": 66}, {"note": 61, "velocity": 91, "duration": 138}, {"note": 0, "velocity": 0, "duration": 342}, {"note": 70, "velocity": 83, "duration": 135}, {"note": 0, "velocity": 0, "duration": 105}, {"note": 70, "velocity": 85, "duration": 143}, {"note": 0, "velocity": 0, "duration": 97}, {"note": 70, "velocity": 84, "duration": 120}, {"note": 0, "velocity": 0, "duration": 120}, {"note": 70, "velocity": 84, "duration": 160}, {"note": 0, "velocity": 0, "duration": 80}, {"note": 73, "velocity": 86, "duration": 425}, {"note": 65, "velocity": 89, "duration": 1304}, {"note": 0, "velocity": 0, "duration": 1096}, {"note": 71, "velocity": 85, "duration": 136}, {"note": 0, "velocity": 0, "duration": 104}, {"note": 71, "velocity": 80, "duration": 116}, {"note": 0, "velocity": 0, "duration": 124}, {"note": 71, "velocity": 84, "duration": 104}, {"note": 0, "velocity": 0, "duration": 136}, {"note": 71, "velocity": 80, "duration": 127}, {"note": 0, "velocity": 0, "duration": 113}, {"note": 71, "velocity": 80, "duration": 119}, {"note": 0, "velocity": 0, "duration": 121}, {"note": 71, "velocity": 84, "duration": 115}, {"note": 0, "velocity": 0, "duration": 125}, {"note": 71, "velocity": 84, "duration": 231}, {"note": 0, "velocity": 0, "duration": 249}, {"note": 70, "velocity": 84, "duration": 125}, {"note": 0, "velocity": 0, "duration": 115}, {"note": 70, "velocity": 86, "duration": 410}, {"note": 0, "velocity": 0, "duration": 70}, {"note": 68, "velocity": 83, "duration": 154}, {"note": 0, "velocity": 0, "duration": 86}, {"note": 66, "velocity": 85, "duration": 141}, {"note": 0, "velocity": 0, "duration": 99}, {"note": 68, "velocity": 86, "duration": 136}, {"note": 0, "velocity": 0, "duration": 104}, {"note": 68, "velocity": 85, "duration": 313}, {"note": 0, "velocity": 0, "duration": 167}, {"note": 70, "velocity": 85, "duration": 134}, {"note": 0, "velocity": 0, "duration": 106}, {"note": 70, "velocity": 88, "duration": 337}, {"note": 0, "velocity": 0, "duration": 143}, {"note": 68, "velocity": 83, "duration": 141}, {"note": 0, "velocity": 0, "duration": 99}, {"note": 68, "velocity": 85, "duration": 153}, {"note": 0, "velocity": 0, "duration": 87}, {"note": 70, "velocity": 85, "duration": 104}, {"note": 0, "velocity": 0, "duration": 136}, {"note": 66, "velocity": 84, "duration": 481}, {"note": 63, "velocity": 85, "duration": 573}, {"note": 0, "velocity": 0, "duration": 1347}, {"note": 71, "velocity": 84, "duration": 120}, {"note": 0, "velocity": 0, "duration": 120}, {"note": 71, "velocity": 85, "duration": 125}, {"note": 0, "velocity": 0, "duration": 115}, {"note": 71, "velocity": 90, "duration": 130}, {"note": 0, "velocity": 0, "duration": 110}, {"note": 71, "velocity": 82, "duration": 120}, {"note": 0, "velocity": 0, "duration": 120}, {"note": 71, "velocity": 86, "duration": 147}, {"note": 0, "velocity": 0, "duration": 333}, {"note": 71, "velocity": 90, "duration": 370}, {"note": 0, "velocity": 0, "duration": 110}, {"note": 71, "velocity": 86, "duration": 96}, {"note": 0, "velocity": 0, "duration": 144}, {"note": 71, "velocity": 85, "duration": 120}, {"note": 0, "velocity": 0, "duration": 120}, {"note": 71, "velocity": 88, "duration": 116}, {"note": 0, "velocity": 0, "duration": 124}, {"note": 71, "velocity": 91, "duration": 218}, {"note": 71, "velocity": 91, "duration": 234}, {"note": 73, "velocity": 84, "duration": 156}, {"note": 0, "velocity": 0, "duration": 84}, {"note": 73, "velocity": 85, "duration": 1680}, {"note": 0, "velocity": 0, "duration": 960}, {"note": 75, "velocity": 93, "duration": 140}, {"note": 0, "velocity": 0, "duration": 100}, {"note": 75, "velocity": 93, "duration": 148}, {"note": 0, "velocity": 0, "duration": 92}, {"note": 78, "velocity": 91, "duration": 204}, {"note": 75, "velocity": 101, "duration": 129}, {"note": 0, "velocity": 0, "duration": 111}, {"note": 78, "velocity": 86, "duration": 201}, {"note": 75, "velocity": 95, "duration": 140}, {"note": 0, "velocity": 0, "duration": 100}, {"note": 78, "velocity": 88, "duration": 463}, {"note": 75, "velocity": 98, "duration": 521}, {"note": 0, "velocity": 0, "duration": 199}, {"note": 78, "velocity": 85, "duration": 121}, {"note": 0, "velocity": 0, "duration": 119}, {"note": 78, "velocity": 88, "duration": 186}, {"note": 75, "velocity": 95, "duration": 165}, {"note": 0, "velocity": 0, "duration": 75}, {"note": 78, "velocity": 86, "duration": 479}, {"note": 75, "velocity": 95, "duration": 415}, {"note": 0, "velocity": 0, "duration": 305}, {"note": 73, "velocity": 87, "duration": 120}, {"note": 0, "velocity": 0, "duration": 120}, {"note": 73, "velocity": 86, "duration": 129}, {"note": 0, "velocity": 0, "duration": 111}, {"note": 73, "velocity": 87, "duration": 160}, {"note": 0, "velocity": 0, "duration": 80}, {"note": 78, "velocity": 85, "duration": 340}, {"note": 0, "velocity": 0, "duration": 140}, {"note": 78, "velocity": 85, "duration": 361}, {"note": 0, "velocity": 0, "duration": 119}, {"note": 78, "velocity": 83, "duration": 136}, {"note": 0, "velocity": 0, "duration": 104}, {"note": 78, "velocity": 86, "duration": 406}, {"note": 0, "velocity": 0, "duration": 74}, {"note": 77, "velocity": 90, "duration": 904}, {"note": 77, "velocity": 87, "duration": 114}, {"note": 0, "velocity": 0, "duration": 126}, {"note": 77, "velocity": 90, "duration": 125}, {"note": 0, "velocity": 0, "duration": 115}, {"note": 77, "velocity": 90, "duration": 118}, {"note": 0, "velocity": 0, "duration": 122}, {"note": 77, "velocity": 86, "duration": 116}, {"note": 0, "velocity": 0, "duration": 124}, {"note": 77, "velocity": 86, "duration": 166}, {"note": 0, "velocity": 0, "duration": 74}, {"note": 78, "velocity": 86, "duration": 420}, {"note": 75, "velocity": 95, "duration": 464}, {"note": 0, "velocity": 0, "duration": 256}, {"note": 78, "velocity": 85, "duration": 135}, {"note": 0, "velocity": 0, "duration": 105}, {"note": 78, "velocity": 86, "duration": 180}, {"note": 75, "velocity": 91, "duration": 172}, {"note": 0, "velocity": 0, "duration": 68}, {"note": 78, "velocity": 85, "duration": 437}, {"note": 75, "velocity": 91, "duration": 400}, {"note": 0, "velocity": 0, "duration": 320}, {"note": 73, "velocity": 84, "duration": 70}, {"note": 0, "velocity": 0, "duration": 170}, {"note": 73, "velocity": 91, "duration": 111}, {"note": 0, "velocity": 0, "duration": 129}, {"note": 73, "velocity": 91, "duration": 130}, {"note": 0, "velocity": 0, "duration": 110}, {"note": 82, "velocity": 90, "duration": 116}, {"note": 0, "velocity": 0, "duration": 124}, {"note": 82, "velocity": 87, "duration": 120}, {"note": 0, "velocity": 0, "duration": 120}, {"note": 82, "velocity": 86, "duration": 125}, {"note": 0, "velocity": 0, "duration": 115}, {"note": 82, "velocity": 86, "duration": 362}, {"note": 0, "velocity": 0, "duration": 118}, {"note": 82, "velocity": 86, "duration": 384}, {"note": 0, "velocity": 0, "duration": 96}, {"note": 80, "velocity": 85, "duration": 1200}, {"note": 0, "velocity": 0, "duration": 480}, {"note": 75, "velocity": 89, "duration": 142}, {"note": 0, "velocity": 0, "duration": 98}, {"note": 77, "velocity": 90, "duration": 141}, {"note": 0, "velocity": 0, "duration": 99}, {"note": 78, "velocity": 86, "duration": 181}, {"note": 75, "velocity": 95, "duration": 150}, {"note": 0, "velocity": 0, "duration": 90}, {"note": 78, "velocity": 90, "duration": 180}, {"note": 75, "velocity": 88, "duration": 136}, {"note": 0, "velocity": 0, "duration": 104}, {"note": 78, "velocity": 86, "duration": 185}, {"note": 75, "velocity": 95, "duration": 278}, {"note": 0, "velocity": 0, "duration": 202}, {"note": 78, "velocity": 88, "duration": 420}, {"note": 75, "velocity": 89, "duration": 126}, {"note": 0, "velocity": 0, "duration": 114}, {"note": 78, "velocity": 90, "duration": 168}, {"note": 0, "velocity": 0, "duration": 72}, {"note": 75, "velocity": 91, "duration": 110}, {"note": 0, "velocity": 0, "duration": 130}, {"note": 78, "velocity": 90, "duration": 201}, {"note": 75, "velocity": 95, "duration": 277}, {"note": 0, "velocity": 0, "duration": 443}, {"note": 78, "velocity": 86, "duration": 170}, {"note": 0, "velocity": 0, "duration": 70}, {"note": 78, "velocity": 83, "duration": 136}, {"note": 0, "velocity": 0, "duration": 104}, {"note": 78, "velocity": 86, "duration": 123}, {"note": 0, "velocity": 0, "duration": 117}, {"note": 78, "velocity": 85, "duration": 141}, {"note": 0, "velocity": 0, "duration": 99}, {"note": 78, "velocity": 83, "duration": 121}, {"note": 0, "velocity": 0, "duration": 119}, {"note": 78, "velocity": 88, "duration": 398}, {"note": 0, "velocity": 0, "duration": 82}, {"note": 77, "velocity": 91, "duration": 820}, {"note": 0, "velocity": 0, "duration": 140}, {"note": 77, "velocity": 88, "duration": 120}, {"note": 0, "velocity": 0, "duration": 120}, {"note": 77, "velocity": 88, "duration": 143}, {"note": 0, "velocity": 0, "duration": 97}, {"note": 77, "velocity": 95, "duration": 336}, {"note": 0, "velocity": 0, "duration": 144}, {"note": 78, "velocity": 88, "duration": 440}, {"note": 75, "velocity": 87, "duration": 130}, {"note": 0, "velocity": 0, "duration": 110}, {"note": 78, "velocity": 86, "duration": 211}, {"note": 75, "velocity": 87, "duration": 140}, {"note": 0, "velocity": 0, "duration": 100}, {"note": 78, "velocity": 86, "duration": 200}, {"note": 75, "velocity": 91, "duration": 306}, {"note": 0, "velocity": 0, "duration": 174}, {"note": 78, "velocity": 86, "duration": 479}, {"note": 75, "velocity": 91, "duration": 136}, {"note": 0, "velocity": 0, "duration": 104}, {"note": 78, "velocity": 88, "duration": 189}, {"note": 75, "velocity": 95, "duration": 130}, {"note": 0, "velocity": 0, "duration": 110}, {"note": 78, "velocity": 88, "duration": 203}, {"note": 75, "velocity": 95, "duration": 315}, {"note": 0, "velocity": 0, "duration": 405}, {"note": 82, "velocity": 86, "duration": 115}, {"note": 0, "velocity": 0, "duration": 125}, {"note": 82, "velocity": 83, "duration": 105}, {"note": 0, "velocity": 0, "duration": 135}, {"note": 82, "velocity": 82, "duration": 121}, {"note": 0, "velocity": 0, "duration": 119}, {"note": 82, "velocity": 84, "duration": 116}, {"note": 0, "velocity": 0, "duration": 124}, {"note": 82, "velocity": 84, "duration": 120}, {"note": 0, "velocity": 0, "duration": 120}, {"note": 82, "velocity": 86, "duration": 381}, {"note": 0, "velocity": 0, "duration": 99}, {"note": 80, "velocity": 86, "duration": 649}, {"note": 0, "velocity": 0, "duration": 71}, {"note": 77, "velocity": 91, "duration": 113}, {"note": 0, "velocity": 0, "duration": 127}, {"note": 77, "velocity": 84, "duration": 130}, {"note": 0, "velocity": 0, "duration": 110}, {"note": 77, "velocity": 86, "duration": 124}, {"note": 0, "velocity": 0, "duration": 116}, {"note": 77, "velocity": 91, "duration": 381}, {"note": 0, "velocity": 0, "duration": 99}, {"note": 78, "velocity": 85, "duration": 2728}, {"note": 0, "velocity": 0, "duration": 5432}, {"note": 70, "velocity": 86, "duration": 135}, {"note": 0, "velocity": 0, "duration": 105}, {"note": 70, "velocity": 88, "duration": 131}, {"note": 0, "velocity": 0, "duration": 109}, {"note": 70, "velocity": 88, "duration": 125}, {"note": 0, "velocity": 0, "duration": 115}, {"note": 70, "velocity": 89, "duration": 133}, {"note": 0, "velocity": 0, "duration": 107}, {"note": 70, "velocity": 95, "duration": 185}, {"note": 0, "velocity": 0, "duration": 295}, {"note": 71, "velocity": 91, "duration": 366}, {"note": 0, "velocity": 0, "duration": 114}, {"note": 71, "velocity": 86, "duration": 240}, {"note": 0, "velocity": 0, "duration": 240}, {"note": 71, "velocity": 85, "duration": 124}, {"note": 0, "velocity": 0, "duration": 116}, {"note": 71, "velocity": 88, "duration": 125}, {"note": 0, "velocity": 0, "duration": 115}, {"note": 66, "velocity": 85, "duration": 245}, {"note": 0, "velocity": 0, "duration": 235}, {"note": 61, "velocity": 86, "duration": 207}, {"note": 0, "velocity": 0, "duration": 273}, {"note": 70, "velocity": 85, "duration": 149}, {"note": 0, "velocity": 0, "duration": 91}, {"note": 70, "velocity": 84, "duration": 126}, {"note": 0, "velocity": 0, "duration": 114}, {"note": 70, "velocity": 86, "duration": 146}, {"note": 0, "velocity": 0, "duration": 94}, {"note": 70, "velocity": 84, "duration": 146}, {"note": 0, "velocity": 0, "duration": 94}, {"note": 70, "velocity": 85, "duration": 385}, {"note": 0, "velocity": 0, "duration": 95}, {"note": 68, "velocity": 84, "duration": 712}, {"note": 0, "velocity": 0, "duration": 1688}, {"note": 70, "velocity": 87, "duration": 136}, {"note": 0, "velocity": 0, "duration": 104}, {"note": 70, "velocity": 83, "duration": 125}, {"note": 0, "velocity": 0, "duration": 115}, {"note": 70, "velocity": 85, "duration": 135}, {"note": 0, "velocity": 0, "duration": 105}, {"note": 70, "velocity": 85, "duration": 121}, {"note": 0, "velocity": 0, "duration": 119}, {"note": 70, "velocity": 85, "duration": 175}, {"note": 0, "velocity": 0, "duration": 305}, {"note": 71, "velocity": 87, "duration": 398}, {"note": 0, "velocity": 0, "duration": 82}, {"note": 71, "velocity": 83, "duration": 480}, {"note": 71, "velocity": 85, "duration": 120}, {"note": 0, "velocity": 0, "duration": 120}, {"note": 71, "velocity": 84, "duration": 152}, {"note": 0, "velocity": 0, "duration": 88}, {"note": 66, "velocity": 90, "duration": 414}, {"note": 0, "velocity": 0, "duration": 66}, {"note": 61, "velocity": 91, "duration": 138}, {"note": 0, "velocity": 0, "duration": 342}, {"note": 70, "velocity": 83, "duration": 135}, {"note": 0, "velocity": 0, "duration": 105}, {"note": 70, "velocity": 85, "duration": 143}, {"note": 0, "velocity": 0, "duration": 97}, {"note": 70, "velocity": 84, "duration": 120}, {"note": 0, "velocity": 0, "duration": 120}, {"note": 70, "velocity": 84, "duration": 160}, {"note": 0, "velocity": 0, "duration": 80}, {"note": 73, "velocity": 86, "duration": 425}, {"note": 65, "velocity": 89, "duration": 1304}, {"note": 0, "velocity": 0, "duration": 1096}, {"note": 71, "velocity": 85, "duration": 136}, {"note": 0, "velocity": 0, "duration": 104}, {"note": 71, "velocity": 80, "duration": 116}, {"note": 0, "velocity": 0, "duration": 124}, {"note": 71, "velocity": 84, "duration": 104}, {"note": 0, "velocity": 0, "duration": 136}, {"note": 71, "velocity": 80, "duration": 127}, {"note": 0, "velocity": 0, "duration": 113}, {"note": 71, "velocity": 80, "duration": 119}, {"note": 0, "velocity": 0, "duration": 121}, {"note": 71, "velocity": 84, "duration": 115}, {"note": 0, "velocity": 0, "duration": 125}, {"note": 71, "velocity": 84, "duration": 231}, {"note": 0, "velocity": 0, "duration": 249}, {"note": 70, "velocity": 84, "duration": 125}, {"note": 0, "velocity": 0, "duration": 115}, {"note": 70, "velocity": 86, "duration": 410}, {"note": 0, "velocity": 0, "duration": 70}, {"note": 68, "velocity": 83, "duration": 154}, {"note": 0, "velocity": 0, "duration": 86}, {"note": 66, "velocity": 85, "duration": 141}, {"note": 0, "velocity": 0, "duration": 99}, {"note": 68, "velocity": 86, "duration": 136}, {"note": 0, "velocity": 0, "duration": 104}, {"note": 68, "velocity": 85, "duration": 313}, {"note": 0, "velocity": 0, "duration": 167}, {"note": 70, "velocity": 85, "duration": 134}, {"note": 0, "velocity": 0, "duration": 106}, {"note": 70, "velocity": 88, "duration": 337}, {"note": 0, "velocity": 0, "duration": 143}, {"note": 68, "velocity": 83, "duration": 141}, {"note": 0, "velocity": 0, "duration": 99}, {"note": 68, "velocity": 85, "duration": 153}, {"note": 0, "velocity": 0, "duration": 87}, {"note": 70, "velocity": 85, "duration": 104}, {"note": 0, "velocity": 0, "duration": 136}, {"note": 66, "velocity": 84, "duration": 481}, {"note": 63, "velocity": 85, "duration": 573}, {"note": 0, "velocity": 0, "duration": 1347}, {"note": 71, "velocity": 84, "duration": 120}, {"note": 0, "velocity": 0, "duration": 120}, {"note": 71, "velocity": 85, "duration": 125}, {"note": 0, "velocity": 0, "duration": 115}, {"note": 71, "velocity": 90, "duration": 130}, {"note": 0, "velocity": 0, "duration": 110}, {"note": 71, "velocity": 82, "duration": 120}, {"note": 0, "velocity": 0, "duration": 120}, {"note": 71, "velocity": 86, "duration": 147}, {"note": 0, "velocity": 0, "duration": 333}, {"note": 71, "velocity": 90, "duration": 370}, {"note": 0, "velocity": 0, "duration": 110}, {"note": 71, "velocity": 86, "duration": 96}, {"note": 0, "velocity": 0, "duration": 144}, {"note": 71, "velocity": 85, "duration": 120}, {"note": 0, "velocity": 0, "duration": 120}, {"note": 71, "velocity": 88, "duration": 116}, {"note": 0, "velocity": 0, "duration": 124}, {"note": 71, "velocity": 91, "duration": 218}, {"note": 71, "velocity": 91, "duration": 234}, {"note": 73, "velocity": 84, "duration": 156}, {"note": 0, "velocity": 0, "duration": 84}, {"note": 73, "velocity": 85, "duration": 1680}, {"note": 0, "velocity": 0, "duration": 960}, {"note": 75, "velocity": 93, "duration": 140}, {"note": 0, "velocity": 0, "duration": 100}, {"note": 75, "velocity": 93, "duration": 148}, {"note": 0, "velocity": 0, "duration": 92}, {"note": 78, "velocity": 91, "duration": 204}, {"note": 75, "velocity": 101, "duration": 129}, {"note": 0, "velocity": 0, "duration": 111}, {"note": 78, "velocity": 86, "duration": 201}, {"note": 75, "velocity": 95, "duration": 140}, {"note": 0, "velocity": 0, "duration": 100}, {"note": 78, "velocity": 88, "duration": 463}, {"note": 75, "velocity": 98, "duration": 521}, {"note": 0, "velocity": 0, "duration": 199}, {"note": 78, "velocity": 85, "duration": 121}, {"note": 0, "velocity": 0, "duration": 119}, {"note": 78, "velocity": 88, "duration": 186}, {"note": 75, "velocity": 95, "duration": 165}, {"note": 0, "velocity": 0, "duration": 75}, {"note": 78, "velocity": 86, "duration": 479}, {"note": 75, "velocity": 95, "duration": 415}, {"note": 0, "velocity": 0, "duration": 305}, {"note": 73, "velocity": 87, "duration": 120}, {"note": 0, "velocity": 0, "duration": 120}, {"note": 73, "velocity": 86, "duration": 129}, {"note": 0, "velocity": 0, "duration": 111}, {"note": 73, "velocity": 87, "duration": 160}, {"note": 0, "velocity": 0, "duration": 80}, {"note": 78, "velocity": 85, "duration": 340}, {"note": 0, "velocity": 0, "duration": 140}, {"note": 78, "velocity": 85, "duration": 361}, {"note": 0, "velocity": 0, "duration": 119}, {"note": 78, "velocity": 83, "duration": 136}, {"note": 0, "velocity": 0, "duration": 104}, {"note": 78, "velocity": 86, "duration": 406}, {"note": 0, "velocity": 0, "duration": 74}, {"note": 77, "velocity": 90, "duration": 904}, {"note": 77, "velocity": 87, "duration": 114}, {"note": 0, "velocity": 0, "duration": 126}, {"note": 77, "velocity": 90, "duration": 125}, {"note": 0, "velocity": 0, "duration": 115}, {"note": 77, "velocity": 90, "duration": 118}, {"note": 0, "velocity": 0, "duration": 122}, {"note": 77, "velocity": 86, "duration": 116}, {"note": 0, "velocity": 0, "duration": 124}, {"note": 77, "velocity": 86, "duration": 166}, {"note": 0, "velocity": 0, "duration": 74}, {"note": 78, "velocity": 86, "duration": 420}, {"note": 75, "velocity": 95, "duration": 464}, {"note": 0, "velocity": 0, "duration": 256}, {"note": 78, "velocity": 85, "duration": 135}, {"note": 0, "velocity": 0, "duration": 105}, {"note": 78, "velocity": 86, "duration": 180}, {"note": 75, "velocity": 91, "duration": 172}, {"note": 0, "velocity": 0, "duration": 68}, {"note": 78, "velocity": 85, "duration": 437}, {"note": 75, "velocity": 91, "duration": 400}, {"note": 0, "velocity": 0, "duration": 320}, {"note": 73, "velocity": 84, "duration": 70}, {"note": 0, "velocity": 0, "duration": 170}, {"note": 73, "velocity": 91, "duration": 111}, {"note": 0, "velocity": 0, "duration": 129}, {"note": 73, "velocity": 91, "duration": 130}, {"note": 0, "velocity": 0, "duration": 110}, {"note": 82, "velocity": 90, "duration": 116}, {"note": 0, "velocity": 0, "duration": 124}, {"note": 82, "velocity": 87, "duration": 120}, {"note": 0, "velocity": 0, "duration": 120}, {"note": 82, "velocity": 86, "duration": 125}, {"note": 0, "velocity": 0, "duration": 115}, {"note": 82, "velocity": 86, "duration": 362}, {"note": 0, "velocity": 0, "duration": 118}, {"note": 82, "velocity": 86, "duration": 384}, {"note": 0, "velocity": 0, "duration": 96}, {"note": 80, "velocity": 85, "duration": 1200}, {"note": 0, "velocity": 0, "duration": 480}, {"note": 75, "velocity": 89, "duration": 142}, {"note": 0, "velocity": 0, "duration": 98}, {"note": 77, "velocity": 90, "duration": 141}, {"note": 0, "velocity": 0, "duration": 99}, {"note": 78, "velocity": 86, "duration": 181}, {"note": 75, "velocity": 95, "duration": 150}, {"note": 0, "velocity": 0, "duration": 90}, {"note": 78, "velocity": 90, "duration": 180}, {"note": 75, "velocity": 88, "duration": 136}, {"note": 0, "velocity": 0, "duration": 104}, {"note": 78, "velocity": 86, "duration": 185}, {"note": 75, "velocity": 95, "duration": 278}, {"note": 0, "velocity": 0, "duration": 202}, {"note": 78, "velocity": 88, "duration": 420}, {"note": 75, "velocity": 89, "duration": 126}, {"note": 0, "velocity": 0, "duration": 114}, {"note": 78, "velocity": 90, "duration": 168}, {"note": 0, "velocity": 0, "duration": 72}, {"note": 75, "velocity": 91, "duration": 110}, {"note": 0, "velocity": 0, "duration": 130}, {"note": 78, "velocity": 90, "duration": 201}, {"note": 75, "velocity": 95, "duration": 277}, {"note": 0, "velocity": 0, "duration": 443}, {"note": 78, "velocity": 86, "duration": 170}, {"note": 0, "velocity": 0, "duration": 70}, {"note": 78, "velocity": 83, "duration": 136}, {"note": 0, "velocity": 0, "duration": 104}, {"note": 78, "velocity": 86, "duration": 123}, {"note": 0, "velocity": 0, "duration": 117}, {"note": 78, "velocity": 85, "duration": 141}, {"note": 0, "velocity": 0, "duration": 99}, {"note": 78, "velocity": 83, "duration": 121}, {"note": 0, "velocity": 0, "duration": 119}, {"note": 78, "velocity": 88, "duration": 398}, {"note": 0, "velocity": 0, "duration": 82}, {"note": 77, "velocity": 91, "duration": 820}, {"note": 0, "velocity": 0, "duration": 140}, {"note": 77, "velocity": 88, "duration": 120}, {"note": 0, "velocity": 0, "duration": 120}, {"note": 77, "velocity": 88, "duration": 143}, {"note": 0, "velocity": 0, "duration": 97}, {"note": 77, "velocity": 95, "duration": 336}, {"note": 0, "velocity": 0, "duration": 144}, {"note": 78, "velocity": 88, "duration": 440}, {"note": 75, "velocity": 87, "duration": 130}, {"note": 0, "velocity": 0, "duration": 110}, {"note": 78, "velocity": 86, "duration": 211}, {"note": 75, "velocity": 87, "duration": 140}, {"note": 0, "velocity": 0, "duration": 100}, {"note": 78, "velocity": 86, "duration": 200}, {"note": 75, "velocity": 91, "duration": 306}, {"note": 0, "velocity": 0, "duration": 174}, {"note": 78, "velocity": 86, "duration": 479}, {"note": 75, "velocity": 91, "duration": 136}, {"note": 0, "velocity": 0, "duration": 104}, {"note": 78, "velocity": 88, "duration": 189}, {"note": 75, "velocity": 95, "duration": 130}, {"note": 0, "velocity": 0, "duration": 110}, {"note": 78, "velocity": 88, "duration": 203}, {"note": 75, "velocity": 95, "duration": 315}, {"note": 0, "velocity": 0, "duration": 405}, {"note": 82, "velocity": 86, "duration": 115}, {"note": 0, "velocity": 0, "duration": 125}, {"note": 82, "velocity": 83, "duration": 105}, {"note": 0, "velocity": 0, "duration": 135}, {"note": 82, "velocity": 82, "duration": 121}, {"note": 0, "velocity": 0, "duration": 119}, {"note": 82, "velocity": 84, "duration": 116}, {"note": 0, "velocity": 0, "duration": 124}, {"note": 82, "velocity": 84, "duration": 120}, {"note": 0, "velocity": 0, "duration": 120}, {"note": 82, "velocity": 86, "duration": 381}, {"note": 0, "velocity": 0, "duration": 99}, {"note": 80, "velocity": 86, "duration": 649}, {"note": 0, "velocity": 0, "duration": 71}, {"note": 77, "velocity": 91, "duration": 113}, {"note": 0, "velocity": 0, "duration": 127}, {"note": 77, "velocity": 84, "duration": 130}, {"note": 0, "velocity": 0, "duration": 110}, {"note": 77, "velocity": 86, "duration": 124}, {"note": 0, "velocity": 0, "duration": 116}, {"note": 77, "velocity": 91, "duration": 381}, {"note": 0, "velocity": 0, "duration": 99}, {"note": 78, "velocity": 85, "duration": 2728}, {"note": 0, "velocity": 0, "duration": 5672}, {"note": 78, "velocity": 85, "duration": 148}, {"note": 0, "velocity": 0, "duration": 92}, {"note": 78, "velocity": 88, "duration": 267}, {"note": 77, "velocity": 84, "duration": 224}, {"note": 75, "velocity": 86, "duration": 321}, {"note": 0, "velocity": 0, "duration": 159}, {"note": 78, "velocity": 88, "duration": 378}, {"note": 0, "velocity": 0, "duration": 102}, {"note": 78, "velocity": 84, "duration": 131}, {"note": 0, "velocity": 0, "duration": 109}, {"note": 78, "velocity": 85, "duration": 126}, {"note": 0, "velocity": 0, "duration": 114}, {"note": 78, "velocity": 84, "duration": 200}, {"note": 77, "velocity": 88, "duration": 150}, {"note": 0, "velocity": 0, "duration": 90}, {"note": 75, "velocity": 95, "duration": 285}, {"note": 0, "velocity": 0, "duration": 675}, {"note": 73, "velocity": 95, "duration": 91}, {"note": 0, "velocity": 0, "duration": 149}, {"note": 73, "velocity": 86, "duration": 115}, {"note": 0, "velocity": 0, "duration": 125}, {"note": 73, "velocity": 85, "duration": 124}, {"note": 0, "velocity": 0, "duration": 116}, {"note": 73, "velocity": 84, "duration": 141}, {"note": 0, "velocity": 0, "duration": 99}, {"note": 75, "velocity": 91, "duration": 402}, {"note": 0, "velocity": 0, "duration": 78}, {"note": 73, "velocity": 86, "duration": 240}, {"note": 68, "velocity": 85, "duration": 186}, {"note": 70, "velocity": 85, "duration": 720}, {"note": 0, "velocity": 0, "duration": 1200}, {"note": 71, "velocity": 84, "duration": 140}, {"note": 0, "velocity": 0, "duration": 100}, {"note": 71, "velocity": 86, "duration": 144}, {"note": 0, "velocity": 0, "duration": 96}, {"note": 71, "velocity": 85, "duration": 137}, {"note": 0, "velocity": 0, "duration": 103}, {"note": 71, "velocity": 90, "duration": 139}, {"note": 0, "velocity": 0, "duration": 101}, {"note": 71, "velocity": 89, "duration": 334}, {"note": 0, "velocity": 0, "duration": 146}, {"note": 78, "velocity": 88, "duration": 1200}, {"note": 0, "velocity": 0, "duration": 720}, {"note": 71, "velocity": 93, "duration": 152}, {"note": 0, "velocity": 0, "duration": 88}, {"note": 73, "velocity": 81, "duration": 125}, {"note": 0, "velocity": 0, "duration": 115}, {"note": 73, "velocity": 85, "duration": 120}, {"note": 0, "velocity": 0, "duration": 120}, {"note": 73, "velocity": 86, "duration": 141}, {"note": 0, "velocity": 0, "duration": 99}, {"note": 73, "velocity": 84, "duration": 129}, {"note": 0, "velocity": 0, "duration": 111}, {"note": 73, "velocity": 86, "duration": 151}, {"note": 0, "velocity": 0, "duration": 89}, {"note": 75, "velocity": 90, "duration": 400}, {"note": 0, "velocity": 0, "duration": 80}, {"note": 73, "velocity": 86, "duration": 720}, {"note": 0, "velocity": 0, "duration": 480}, {"note": 78, "velocity": 91, "duration": 204}, {"note": 75, "velocity": 101, "duration": 129}, {"note": 0, "velocity": 0, "duration": 111}, {"note": 78, "velocity": 86, "duration": 201}, {"note": 75, "velocity": 95, "duration": 140}, {"note": 0, "velocity": 0, "duration": 100}, {"note": 78, "velocity": 88, "duration": 463}, {"note": 75, "velocity": 98, "duration": 521}, {"note": 0, "velocity": 0, "duration": 199}, {"note": 78, "velocity": 85, "duration": 121}, {"note": 0, "velocity": 0, "duration": 119}, {"note": 78, "velocity": 88, "duration": 186}, {"note": 75, "velocity": 95, "duration": 165}, {"note": 0, "velocity": 0, "duration": 75}, {"note": 78, "velocity": 86, "duration": 479}, {"note": 75, "velocity": 95, "duration": 415}, {"note": 0, "velocity": 0, "duration": 305}, {"note": 73, "velocity": 87, "duration": 120}, {"note": 0, "velocity": 0, "duration": 120}, {"note": 73, "velocity": 86, "duration": 129}, {"note": 0, "velocity": 0, "duration": 111}, {"note": 73, "velocity": 87, "duration": 160}, {"note": 0, "velocity": 0, "duration": 80}, {"note": 78, "velocity": 85, "duration": 340}, {"note": 0, "velocity": 0, "duration": 140}, {"note": 78, "velocity": 85, "duration": 361}, {"note": 0, "velocity": 0, "duration": 119}, {"note": 78, "velocity": 83, "duration": 136}, {"note": 0, "velocity": 0, "duration": 104}, {"note": 78, "velocity": 86, "duration": 406}, {"note": 0, "velocity": 0, "duration": 74}, {"note": 77, "velocity": 90, "duration": 904}, {"note": 77, "velocity": 87, "duration": 114}, {"note": 0, "velocity": 0, "duration": 126}, {"note": 77, "velocity": 90, "duration": 125}, {"note": 0, "velocity": 0, "duration": 115}, {"note": 77, "velocity": 90, "duration": 118}, {"note": 0, "velocity": 0, "duration": 122}, {"note": 77, "velocity": 86, "duration": 116}, {"note": 0, "velocity": 0, "duration": 124}, {"note": 77, "velocity": 86, "duration": 166}, {"note": 0, "velocity": 0, "duration": 74}, {"note": 78, "velocity": 86, "duration": 420}, {"note": 75, "velocity": 95, "duration": 464}, {"note": 0, "velocity": 0, "duration": 256}, {"note": 78, "velocity": 85, "duration": 135}, {"note": 0, "velocity": 0, "duration": 105}, {"note": 78, "velocity": 86, "duration": 180}, {"note": 75, "velocity": 91, "duration": 172}, {"note": 0, "velocity": 0, "duration": 68}, {"note": 78, "velocity": 85, "duration": 437}, {"note": 75, "velocity": 91, "duration": 400}, {"note": 0, "velocity": 0, "duration": 320}, {"note": 73, "velocity": 84, "duration": 70}, {"note": 0, "velocity": 0, "duration": 170}, {"note": 73, "velocity": 91, "duration": 111}, {"note": 0, "velocity": 0, "duration": 129}, {"note": 73, "velocity": 91, "duration": 130}, {"note": 0, "velocity": 0, "duration": 110}, {"note": 82, "velocity": 90, "duration": 116}, {"note": 0, "velocity": 0, "duration": 124}, {"note": 82, "velocity": 87, "duration": 120}, {"note": 0, "velocity": 0, "duration": 120}, {"note": 82, "velocity": 86, "duration": 125}, {"note": 0, "velocity": 0, "duration": 115}, {"note": 82, "velocity": 86, "duration": 362}, {"note": 0, "velocity": 0, "duration": 118}, {"note": 82, "velocity": 86, "duration": 384}, {"note": 0, "velocity": 0, "duration": 96}, {"note": 80, "velocity": 85, "duration": 1200}, {"note": 0, "velocity": 0, "duration": 480}, {"note": 75, "velocity": 89, "duration": 142}, {"note": 0, "velocity": 0, "duration": 98}, {"note": 77, "velocity": 90, "duration": 141}, {"note": 0, "velocity": 0, "duration": 99}, {"note": 78, "velocity": 86, "duration": 181}, {"note": 75, "velocity": 95, "duration": 150}, {"note": 0, "velocity": 0, "duration": 90}, {"note": 78, "velocity": 90, "duration": 180}, {"note": 75, "velocity": 88, "duration": 136}, {"note": 0, "velocity": 0, "duration": 104}, {"note": 78, "velocity": 86, "duration": 185}, {"note": 75, "velocity": 95, "duration": 278}, {"note": 0, "velocity": 0, "duration": 202}, {"note": 78, "velocity": 88, "duration": 420}, {"note": 75, "velocity": 89, "duration": 126}, {"note": 0, "velocity": 0, "duration": 114}, {"note": 78, "velocity": 90, "duration": 168}, {"note": 0, "velocity": 0, "duration": 72}, {"note": 75, "velocity": 91, "duration": 110}, {"note": 0, "velocity": 0, "duration": 130}, {"note": 78, "velocity": 90, "duration": 201}, {"note": 75, "velocity": 95, "duration": 277}, {"note": 0, "velocity": 0, "duration": 443}, {"note": 78, "velocity": 86, "duration": 170}, {"note": 0, "velocity": 0, "duration": 70}, {"note": 78, "velocity": 83, "duration": 136}, {"note": 0, "velocity": 0, "duration": 104}, {"note": 78, "velocity": 86, "duration": 123}, {"note": 0, "velocity": 0, "duration": 117}, {"note": 78, "velocity": 85, "duration": 141}, {"note": 0, "velocity": 0, "duration": 99}, {"note": 78, "velocity": 83, "duration": 121}, {"note": 0, "velocity": 0, "duration": 119}, {"note": 78, "velocity": 88, "duration": 398}, {"note": 0, "velocity": 0, "duration": 82}, {"note": 77, "velocity": 91, "duration": 820}, {"note": 0, "velocity": 0, "duration": 140}, {"note": 77, "velocity": 88, "duration": 120}, {"note": 0, "velocity": 0, "duration": 120}, {"note": 77, "velocity": 88, "duration": 143}, {"note": 0, "velocity": 0, "duration": 97}, {"note": 77, "velocity": 95, "duration": 336}, {"note": 0, "velocity": 0, "duration": 144}, {"note": 78, "velocity": 88, "duration": 440}, {"note": 75, "velocity": 87, "duration": 130}, {"note": 0, "velocity": 0, "duration": 110}, {"note": 78, "velocity": 86, "duration": 211}, {"note": 75, "velocity": 87, "duration": 140}, {"note": 0, "velocity": 0, "duration": 100}, {"note": 78, "velocity": 86, "duration": 200}, {"note": 75, "velocity": 91, "duration": 306}, {"note": 0, "velocity": 0, "duration": 174}, {"note": 78, "velocity": 86, "duration": 479}, {"note": 75, "velocity": 91, "duration": 136}, {"note": 0, "velocity": 0, "duration": 104}, {"note": 78, "velocity": 88, "duration": 189}, {"note": 75, "velocity": 95, "duration": 130}, {"note": 0, "velocity": 0, "duration": 110}, {"note": 78, "velocity": 88, "duration": 203}, {"note": 75, "velocity": 95, "duration": 315}, {"note": 0, "velocity": 0, "duration": 405}, {"note": 82, "velocity": 86, "duration": 115}, {"note": 0, "velocity": 0, "duration": 125}, {"note": 82, "velocity": 83, "duration": 105}, {"note": 0, "velocity": 0, "duration": 135}, {"note": 82, "velocity": 82, "duration": 121}, {"note": 0, "velocity": 0, "duration": 119}, {"note": 82, "velocity": 84, "duration": 116}, {"note": 0, "velocity": 0, "duration": 124}, {"note": 82, "velocity": 84, "duration": 120}, {"note": 0, "velocity": 0, "duration": 120}, {"note": 82, "velocity": 86, "duration": 381}, {"note": 0, "velocity": 0, "duration": 99}, {"note": 80, "velocity": 86, "duration": 649}, {"note": 0, "velocity": 0, "duration": 71}, {"note": 77, "velocity": 91, "duration": 113}, {"note": 0, "velocity": 0, "duration": 127}, {"note": 77, "velocity": 84, "duration": 130}, {"note": 0, "velocity": 0, "duration": 110}, {"note": 77, "velocity": 86, "duration": 124}, {"note": 0, "velocity": 0, "duration": 116}, {"note": 77, "velocity": 91, "duration": 381}, {"note": 0, "velocity": 0, "duration": 99}, {"note": 80, "velocity": 85, "duration": 960}, {"note": 78, "velocity": 85, "duration": 3360}]]