[[{"note": 59, "velocity": 86, "duration": 217}, {"note": 68, "velocity": 88, "duration": 213}, {"note": 66, "velocity": 83, "duration": 211}, {"note": 64, "velocity": 85, "duration": 186}, {"note": 64, "velocity": 85, "duration": 174}, {"note": 0, "velocity": 0, "duration": 66}, {"note": 64, "velocity": 86, "duration": 557}, {"note": 0, "velocity": 0, "duration": 163}, {"note": 59, "velocity": 85, "duration": 201}, {"note": 68, "velocity": 86, "duration": 201}, {"note": 66, "velocity": 85, "duration": 171}, {"note": 0, "velocity": 0, "duration": 69}, {"note": 64, "velocity": 85, "duration": 173}, {"note": 0, "velocity": 0, "duration": 67}, {"note": 64, "velocity": 86, "duration": 166}, {"note": 0, "velocity": 0, "duration": 74}, {"note": 64, "velocity": 86, "duration": 573}, {"note": 0, "velocity": 0, "duration": 147}, {"note": 59, "velocity": 86, "duration": 217}, {"note": 68, "velocity": 88, "duration": 213}, {"note": 66, "velocity": 83, "duration": 211}, {"note": 64, "velocity": 85, "duration": 186}, {"note": 64, "velocity": 85, "duration": 174}, {"note": 0, "velocity": 0, "duration": 66}, {"note": 64, "velocity": 86, "duration": 240}, {"note": 66, "velocity": 80, "duration": 161}, {"note": 0, "velocity": 0, "duration": 79}, {"note": 66, "velocity": 76, "duration": 171}, {"note": 0, "velocity": 0, "duration": 69}, {"note": 66, "velocity": 79, "duration": 213}, {"note": 64, "velocity": 84, "duration": 217}, {"note": 66, "velocity": 79, "duration": 244}, {"note": 68, "velocity": 79, "duration": 201}, {"note": 68, "velocity": 80, "duration": 187}, {"note": 68, "velocity": 83, "duration": 648}, {"note": 0, "velocity": 0, "duration": 72}, {"note": 64, "velocity": 85, "duration": 229}, {"note": 73, "velocity": 86, "duration": 192}, {"note": 73, "velocity": 85, "duration": 176}, {"note": 0, "velocity": 0, "duration": 64}, {"note": 73, "velocity": 86, "duration": 192}, {"note": 73, "velocity": 85, "duration": 176}, {"note": 0, "velocity": 0, "duration": 64}, {"note": 73, "velocity": 85, "duration": 190}, {"note": 73, "velocity": 87, "duration": 352}, {"note": 0, "velocity": 0, "duration": 128}, {"note": 73, "velocity": 84, "duration": 195}, {"note": 68, "velocity": 79, "duration": 204}, {"note": 71, "velocity": 79, "duration": 188}, {"note": 71, "velocity": 82, "duration": 177}, {"note": 0, "velocity": 0, "duration": 63}, {"note": 71, "velocity": 82, "duration": 175}, {"note": 0, "velocity": 0, "duration": 65}, {"note": 73, "velocity": 81, "duration": 165}, {"note": 0, "velocity": 0, "duration": 75}, {"note": 71, "velocity": 79, "duration": 355}, {"note": 0, "velocity": 0, "duration": 125}, {"note": 59, "velocity": 79, "duration": 175}, {"note": 0, "velocity": 0, "duration": 65}, {"note": 68, "velocity": 78, "duration": 157}, {"note": 0, "velocity": 0, "duration": 83}, {"note": 69, "velocity": 84, "duration": 349}, {"note": 0, "velocity": 0, "duration": 131}, {"note": 69, "velocity": 80, "duration": 183}, {"note": 68, "velocity": 80, "duration": 170}, {"note": 0, "velocity": 0, "duration": 70}, {"note": 69, "velocity": 82, "duration": 187}, {"note": 68, "velocity": 79, "duration": 163}, {"note": 0, "velocity": 0, "duration": 77}, {"note": 66, "velocity": 79, "duration": 210}, {"note": 64, "velocity": 82, "duration": 201}, {"note": 64, "velocity": 85, "duration": 171}, {"note": 0, "velocity": 0, "duration": 69}, {"note": 66, "velocity": 73, "duration": 183}, {"note": 66, "velocity": 78, "duration": 179}, {"note": 0, "velocity": 0, "duration": 61}, {"note": 66, "velocity": 79, "duration": 551}, {"note": 0, "velocity": 0, "duration": 169}, {"note": 59, "velocity": 86, "duration": 217}, {"note": 68, "velocity": 88, "duration": 213}, {"note": 66, "velocity": 83, "duration": 211}, {"note": 64, "velocity": 85, "duration": 186}, {"note": 64, "velocity": 85, "duration": 174}, {"note": 0, "velocity": 0, "duration": 66}, {"note": 64, "velocity": 86, "duration": 557}, {"note": 0, "velocity": 0, "duration": 163}, {"note": 59, "velocity": 85, "duration": 201}, {"note": 68, "velocity": 86, "duration": 201}, {"note": 66, "velocity": 85, "duration": 171}, {"note": 0, "velocity": 0, "duration": 69}, {"note": 64, "velocity": 85, "duration": 173}, {"note": 0, "velocity": 0, "duration": 67}, {"note": 64, "velocity": 86, "duration": 166}, {"note": 0, "velocity": 0, "duration": 74}, {"note": 64, "velocity": 86, "duration": 573}, {"note": 0, "velocity": 0, "duration": 147}, {"note": 59, "velocity": 86, "duration": 217}, {"note": 68, "velocity": 88, "duration": 213}, {"note": 66, "velocity": 83, "duration": 211}, {"note": 64, "velocity": 85, "duration": 186}, {"note": 64, "velocity": 85, "duration": 174}, {"note": 0, "velocity": 0, "duration": 66}, {"note": 64, "velocity": 86, "duration": 240}, {"note": 66, "velocity": 80, "duration": 161}, {"note": 0, "velocity": 0, "duration": 79}, {"note": 66, "velocity": 76, "duration": 171}, {"note": 0, "velocity": 0, "duration": 69}, {"note": 66, "velocity": 79, "duration": 213}, {"note": 64, "velocity": 84, "duration": 217}, {"note": 66, "velocity": 79, "duration": 244}, {"note": 68, "velocity": 79, "duration": 201}, {"note": 68, "velocity": 80, "duration": 187}, {"note": 68, "velocity": 83, "duration": 648}, {"note": 0, "velocity": 0, "duration": 72}, {"note": 64, "velocity": 85, "duration": 229}, {"note": 73, "velocity": 86, "duration": 192}, {"note": 73, "velocity": 85, "duration": 176}, {"note": 0, "velocity": 0, "duration": 64}, {"note": 73, "velocity": 86, "duration": 192}, {"note": 73, "velocity": 85, "duration": 176}, {"note": 0, "velocity": 0, "duration": 64}, {"note": 73, "velocity": 85, "duration": 190}, {"note": 73, "velocity": 87, "duration": 352}, {"note": 0, "velocity": 0, "duration": 128}, {"note": 73, "velocity": 84, "duration": 195}, {"note": 68, "velocity": 79, "duration": 204}, {"note": 71, "velocity": 79, "duration": 188}, {"note": 71, "velocity": 82, "duration": 177}, {"note": 0, "velocity": 0, "duration": 63}, {"note": 71, "velocity": 82, "duration": 175}, {"note": 0, "velocity": 0, "duration": 65}, {"note": 73, "velocity": 81, "duration": 165}, {"note": 0, "velocity": 0, "duration": 75}, {"note": 71, "velocity": 79, "duration": 355}, {"note": 0, "velocity": 0, "duration": 125}, {"note": 59, "velocity": 79, "duration": 175}, {"note": 0, "velocity": 0, "duration": 65}, {"note": 68, "velocity": 78, "duration": 157}, {"note": 0, "velocity": 0, "duration": 83}, {"note": 69, "velocity": 84, "duration": 349}, {"note": 0, "velocity": 0, "duration": 131}, {"note": 69, "velocity": 80, "duration": 183}, {"note": 68, "velocity": 80, "duration": 170}, {"note": 0, "velocity": 0, "duration": 70}, {"note": 69, "velocity": 82, "duration": 187}, {"note": 68, "velocity": 79, "duration": 163}, {"note": 0, "velocity": 0, "duration": 77}, {"note": 66, "velocity": 79, "duration": 210}, {"note": 64, "velocity": 82, "duration": 201}, {"note": 64, "velocity": 85, "duration": 171}, {"note": 0, "velocity": 0, "duration": 69}, {"note": 71, "velocity": 73, "duration": 1680}, {"note": 0, "velocity": 0, "duration": 240}, {"note": 64, "velocity": 85, "duration": 171}, {"note": 0, "velocity": 0, "duration": 69}, {"note": 64, "velocity": 85, "duration": 173}, {"note": 0, "velocity": 0, "duration": 67}, {"note": 66, "velocity": 85, "duration": 180}, {"note": 68, "velocity": 86, "duration": 434}, {"note": 68, "velocity": 89, "duration": 180}, {"note": 71, "velocity": 88, "duration": 195}, {"note": 73, "velocity": 88, "duration": 302}, {"note": 75, "velocity": 85, "duration": 94}, {"note": 73, "velocity": 91, "duration": 174}, {"note": 0, "velocity": 0, "duration": 66}, {"note": 71, "velocity": 88, "duration": 216}, {"note": 68, "velocity": 86, "duration": 361}, {"note": 0, "velocity": 0, "duration": 839}, {"note": 64, "velocity": 81, "duration": 172}, {"note": 0, "velocity": 0, "duration": 68}, {"note": 64, "velocity": 83, "duration": 168}, {"note": 0, "velocity": 0, "duration": 72}, {"note": 66, "velocity": 80, "duration": 192}, {"note": 68, "velocity": 84, "duration": 440}, {"note": 66, "velocity": 85, "duration": 239}, {"note": 64, "velocity": 84, "duration": 216}, {"note": 68, "velocity": 82, "duration": 261}, {"note": 71, "velocity": 84, "duration": 151}, {"note": 0, "velocity": 0, "duration": 89}, {"note": 71, "velocity": 85, "duration": 184}, {"note": 73, "velocity": 90, "duration": 207}, {"note": 66, "velocity": 80, "duration": 461}, {"note": 0, "velocity": 0, "duration": 739}, {"note": 68, "velocity": 88, "duration": 172}, {"note": 0, "velocity": 0, "duration": 68}, {"note": 68, "velocity": 85, "duration": 186}, {"note": 70, "velocity": 85, "duration": 182}, {"note": 72, "velocity": 84, "duration": 383}, {"note": 0, "velocity": 0, "duration": 97}, {"note": 72, "velocity": 88, "duration": 204}, {"note": 68, "velocity": 85, "duration": 198}, {"note": 75, "velocity": 87, "duration": 223}, {"note": 73, "velocity": 90, "duration": 214}, {"note": 75, "velocity": 89, "duration": 243}, {"note": 76, "velocity": 85, "duration": 259}, {"note": 75, "velocity": 86, "duration": 228}, {"note": 73, "velocity": 88, "duration": 320}, {"note": 0, "velocity": 0, "duration": 640}, {"note": 73, "velocity": 90, "duration": 183}, {"note": 73, "velocity": 88, "duration": 144}, {"note": 0, "velocity": 0, "duration": 96}, {"note": 71, "velocity": 80, "duration": 184}, {"note": 71, "velocity": 84, "duration": 360}, {"note": 68, "velocity": 84, "duration": 93}, {"note": 66, "velocity": 78, "duration": 207}, {"note": 64, "velocity": 83, "duration": 177}, {"note": 0, "velocity": 0, "duration": 63}, {"note": 66, "velocity": 84, "duration": 189}, {"note": 68, "velocity": 82, "duration": 188}, {"note": 66, "velocity": 79, "duration": 202}, {"note": 64, "velocity": 84, "duration": 196}, {"note": 66, "velocity": 76, "duration": 178}, {"note": 0, "velocity": 0, "duration": 62}, {"note": 68, "velocity": 80, "duration": 180}, {"note": 66, "velocity": 79, "duration": 193}, {"note": 64, "velocity": 81, "duration": 219}, {"note": 0, "velocity": 0, "duration": 261}, {"note": 64, "velocity": 85, "duration": 171}, {"note": 0, "velocity": 0, "duration": 69}, {"note": 64, "velocity": 85, "duration": 173}, {"note": 0, "velocity": 0, "duration": 67}, {"note": 66, "velocity": 85, "duration": 180}, {"note": 68, "velocity": 86, "duration": 434}, {"note": 68, "velocity": 89, "duration": 180}, {"note": 71, "velocity": 88, "duration": 195}, {"note": 73, "velocity": 88, "duration": 302}, {"note": 75, "velocity": 85, "duration": 94}, {"note": 73, "velocity": 91, "duration": 174}, {"note": 0, "velocity": 0, "duration": 66}, {"note": 71, "velocity": 88, "duration": 216}, {"note": 68, "velocity": 86, "duration": 361}, {"note": 0, "velocity": 0, "duration": 839}, {"note": 64, "velocity": 81, "duration": 172}, {"note": 0, "velocity": 0, "duration": 68}, {"note": 64, "velocity": 83, "duration": 168}, {"note": 0, "velocity": 0, "duration": 72}, {"note": 66, "velocity": 80, "duration": 192}, {"note": 68, "velocity": 84, "duration": 440}, {"note": 66, "velocity": 85, "duration": 239}, {"note": 64, "velocity": 84, "duration": 216}, {"note": 68, "velocity": 82, "duration": 261}, {"note": 71, "velocity": 84, "duration": 151}, {"note": 0, "velocity": 0, "duration": 89}, {"note": 71, "velocity": 85, "duration": 184}, {"note": 73, "velocity": 90, "duration": 207}, {"note": 66, "velocity": 80, "duration": 461}, {"note": 0, "velocity": 0, "duration": 739}, {"note": 68, "velocity": 88, "duration": 172}, {"note": 0, "velocity": 0, "duration": 68}, {"note": 68, "velocity": 85, "duration": 186}, {"note": 70, "velocity": 85, "duration": 182}, {"note": 72, "velocity": 84, "duration": 383}, {"note": 0, "velocity": 0, "duration": 97}, {"note": 72, "velocity": 88, "duration": 204}, {"note": 68, "velocity": 85, "duration": 198}, {"note": 75, "velocity": 87, "duration": 223}, {"note": 73, "velocity": 90, "duration": 214}, {"note": 75, "velocity": 89, "duration": 243}, {"note": 76, "velocity": 85, "duration": 259}, {"note": 75, "velocity": 86, "duration": 228}, {"note": 73, "velocity": 88, "duration": 320}, {"note": 0, "velocity": 0, "duration": 640}, {"note": 73, "velocity": 90, "duration": 183}, {"note": 73, "velocity": 88, "duration": 144}, {"note": 0, "velocity": 0, "duration": 96}, {"note": 71, "velocity": 80, "duration": 184}, {"note": 71, "velocity": 84, "duration": 360}, {"note": 68, "velocity": 84, "duration": 93}, {"note": 66, "velocity": 78, "duration": 207}, {"note": 64, "velocity": 83, "duration": 177}, {"note": 0, "velocity": 0, "duration": 63}, {"note": 66, "velocity": 84, "duration": 189}, {"note": 68, "velocity": 82, "duration": 188}, {"note": 66, "velocity": 79, "duration": 202}, {"note": 64, "velocity": 84, "duration": 480}, {"note": 68, "velocity": 80, "duration": 180}, {"note": 66, "velocity": 79, "duration": 193}, {"note": 64, "velocity": 81, "duration": 219}, {"note": 0, "velocity": 0, "duration": 14901}, {"note": 59, "velocity": 86, "duration": 217}, {"note": 68, "velocity": 88, "duration": 213}, {"note": 66, "velocity": 83, "duration": 211}, {"note": 64, "velocity": 85, "duration": 186}, {"note": 64, "velocity": 85, "duration": 174}, {"note": 0, "velocity": 0, "duration": 66}, {"note": 64, "velocity": 86, "duration": 557}, {"note": 0, "velocity": 0, "duration": 163}, {"note": 59, "velocity": 85, "duration": 201}, {"note": 68, "velocity": 86, "duration": 201}, {"note": 66, "velocity": 85, "duration": 171}, {"note": 0, "velocity": 0, "duration": 69}, {"note": 64, "velocity": 85, "duration": 173}, {"note": 0, "velocity": 0, "duration": 67}, {"note": 64, "velocity": 86, "duration": 166}, {"note": 0, "velocity": 0, "duration": 74}, {"note": 64, "velocity": 86, "duration": 573}, {"note": 0, "velocity": 0, "duration": 147}, {"note": 59, "velocity": 86, "duration": 217}, {"note": 68, "velocity": 88, "duration": 213}, {"note": 66, "velocity": 83, "duration": 211}, {"note": 64, "velocity": 85, "duration": 186}, {"note": 64, "velocity": 85, "duration": 174}, {"note": 0, "velocity": 0, "duration": 66}, {"note": 64, "velocity": 86, "duration": 240}, {"note": 66, "velocity": 80, "duration": 161}, {"note": 0, "velocity": 0, "duration": 79}, {"note": 66, "velocity": 76, "duration": 171}, {"note": 0, "velocity": 0, "duration": 69}, {"note": 66, "velocity": 79, "duration": 213}, {"note": 64, "velocity": 84, "duration": 217}, {"note": 66, "velocity": 79, "duration": 244}, {"note": 68, "velocity": 79, "duration": 201}, {"note": 68, "velocity": 80, "duration": 187}, {"note": 68, "velocity": 83, "duration": 648}, {"note": 0, "velocity": 0, "duration": 72}, {"note": 64, "velocity": 85, "duration": 229}, {"note": 73, "velocity": 86, "duration": 192}, {"note": 73, "velocity": 85, "duration": 176}, {"note": 0, "velocity": 0, "duration": 64}, {"note": 73, "velocity": 86, "duration": 192}, {"note": 73, "velocity": 85, "duration": 176}, {"note": 0, "velocity": 0, "duration": 64}, {"note": 73, "velocity": 85, "duration": 190}, {"note": 73, "velocity": 87, "duration": 352}, {"note": 0, "velocity": 0, "duration": 128}, {"note": 73, "velocity": 84, "duration": 195}, {"note": 68, "velocity": 79, "duration": 204}, {"note": 71, "velocity": 79, "duration": 188}, {"note": 71, "velocity": 82, "duration": 177}, {"note": 0, "velocity": 0, "duration": 63}, {"note": 71, "velocity": 82, "duration": 175}, {"note": 0, "velocity": 0, "duration": 65}, {"note": 73, "velocity": 81, "duration": 165}, {"note": 0, "velocity": 0, "duration": 75}, {"note": 71, "velocity": 79, "duration": 355}, {"note": 0, "velocity": 0, "duration": 125}, {"note": 59, "velocity": 79, "duration": 175}, {"note": 0, "velocity": 0, "duration": 65}, {"note": 68, "velocity": 78, "duration": 157}, {"note": 0, "velocity": 0, "duration": 83}, {"note": 69, "velocity": 84, "duration": 349}, {"note": 0, "velocity": 0, "duration": 131}, {"note": 69, "velocity": 80, "duration": 183}, {"note": 68, "velocity": 80, "duration": 170}, {"note": 0, "velocity": 0, "duration": 70}, {"note": 69, "velocity": 82, "duration": 187}, {"note": 68, "velocity": 79, "duration": 163}, {"note": 0, "velocity": 0, "duration": 77}, {"note": 66, "velocity": 79, "duration": 210}, {"note": 64, "velocity": 82, "duration": 201}, {"note": 64, "velocity": 85, "duration": 171}, {"note": 0, "velocity": 0, "duration": 69}, {"note": 71, "velocity": 73, "duration": 1680}, {"note": 0, "velocity": 0, "duration": 240}, {"note": 64, "velocity": 85, "duration": 171}, {"note": 0, "velocity": 0, "duration": 69}, {"note": 64, "velocity": 85, "duration": 173}, {"note": 0, "velocity": 0, "duration": 67}, {"note": 66, "velocity": 85, "duration": 180}, {"note": 68, "velocity": 86, "duration": 434}, {"note": 68, "velocity": 89, "duration": 180}, {"note": 71, "velocity": 88, "duration": 195}, {"note": 73, "velocity": 88, "duration": 302}, {"note": 75, "velocity": 85, "duration": 94}, {"note": 73, "velocity": 91, "duration": 174}, {"note": 0, "velocity": 0, "duration": 66}, {"note": 71, "velocity": 88, "duration": 216}, {"note": 68, "velocity": 86, "duration": 361}, {"note": 0, "velocity": 0, "duration": 839}, {"note": 64, "velocity": 81, "duration": 172}, {"note": 0, "velocity": 0, "duration": 68}, {"note": 64, "velocity": 83, "duration": 168}, {"note": 0, "velocity": 0, "duration": 72}, {"note": 66, "velocity": 80, "duration": 192}, {"note": 68, "velocity": 84, "duration": 440}, {"note": 66, "velocity": 85, "duration": 239}, {"note": 64, "velocity": 84, "duration": 216}, {"note": 68, "velocity": 82, "duration": 261}, {"note": 71, "velocity": 84, "duration": 151}, {"note": 0, "velocity": 0, "duration": 89}, {"note": 71, "velocity": 85, "duration": 184}, {"note": 73, "velocity": 90, "duration": 207}, {"note": 66, "velocity": 80, "duration": 461}, {"note": 0, "velocity": 0, "duration": 739}, {"note": 68, "velocity": 88, "duration": 172}, {"note": 0, "velocity": 0, "duration": 68}, {"note": 68, "velocity": 85, "duration": 186}, {"note": 70, "velocity": 85, "duration": 182}, {"note": 72, "velocity": 84, "duration": 383}, {"note": 0, "velocity": 0, "duration": 97}, {"note": 72, "velocity": 88, "duration": 204}, {"note": 68, "velocity": 85, "duration": 198}, {"note": 75, "velocity": 87, "duration": 223}, {"note": 73, "velocity": 90, "duration": 214}, {"note": 75, "velocity": 89, "duration": 243}, {"note": 76, "velocity": 85, "duration": 259}, {"note": 75, "velocity": 86, "duration": 228}, {"note": 73, "velocity": 88, "duration": 320}, {"note": 0, "velocity": 0, "duration": 640}, {"note": 73, "velocity": 90, "duration": 183}, {"note": 73, "velocity": 88, "duration": 144}, {"note": 0, "velocity": 0, "duration": 96}, {"note": 71, "velocity": 80, "duration": 184}, {"note": 71, "velocity": 84, "duration": 360}, {"note": 68, "velocity": 84, "duration": 93}, {"note": 66, "velocity": 78, "duration": 207}, {"note": 64, "velocity": 83, "duration": 177}, {"note": 0, "velocity": 0, "duration": 63}, {"note": 66, "velocity": 84, "duration": 189}, {"note": 68, "velocity": 82, "duration": 188}, {"note": 66, "velocity": 79, "duration": 202}, {"note": 64, "velocity": 84, "duration": 196}, {"note": 66, "velocity": 76, "duration": 178}, {"note": 0, "velocity": 0, "duration": 62}, {"note": 68, "velocity": 80, "duration": 180}, {"note": 66, "velocity": 79, "duration": 193}, {"note": 64, "velocity": 81, "duration": 219}, {"note": 0, "velocity": 0, "duration": 261}, {"note": 64, "velocity": 85, "duration": 171}, {"note": 0, "velocity": 0, "duration": 69}, {"note": 64, "velocity": 85, "duration": 173}, {"note": 0, "velocity": 0, "duration": 67}, {"note": 66, "velocity": 85, "duration": 180}, {"note": 68, "velocity": 86, "duration": 434}, {"note": 68, "velocity": 89, "duration": 180}, {"note": 71, "velocity": 88, "duration": 195}, {"note": 73, "velocity": 88, "duration": 302}, {"note": 75, "velocity": 85, "duration": 94}, {"note": 73, "velocity": 91, "duration": 174}, {"note": 0, "velocity": 0, "duration": 66}, {"note": 71, "velocity": 88, "duration": 216}, {"note": 68, "velocity": 86, "duration": 361}, {"note": 0, "velocity": 0, "duration": 839}, {"note": 64, "velocity": 81, "duration": 172}, {"note": 0, "velocity": 0, "duration": 68}, {"note": 64, "velocity": 83, "duration": 168}, {"note": 0, "velocity": 0, "duration": 72}, {"note": 66, "velocity": 80, "duration": 192}, {"note": 68, "velocity": 84, "duration": 440}, {"note": 66, "velocity": 85, "duration": 239}, {"note": 64, "velocity": 84, "duration": 216}, {"note": 68, "velocity": 82, "duration": 261}, {"note": 71, "velocity": 84, "duration": 151}, {"note": 0, "velocity": 0, "duration": 89}, {"note": 71, "velocity": 85, "duration": 184}, {"note": 73, "velocity": 90, "duration": 207}, {"note": 66, "velocity": 80, "duration": 461}, {"note": 0, "velocity": 0, "duration": 739}, {"note": 68, "velocity": 88, "duration": 172}, {"note": 0, "velocity": 0, "duration": 68}, {"note": 68, "velocity": 85, "duration": 186}, {"note": 70, "velocity": 85, "duration": 182}, {"note": 72, "velocity": 84, "duration": 383}, {"note": 0, "velocity": 0, "duration": 97}, {"note": 72, "velocity": 88, "duration": 204}, {"note": 68, "velocity": 85, "duration": 198}, {"note": 75, "velocity": 87, "duration": 223}, {"note": 73, "velocity": 90, "duration": 214}, {"note": 75, "velocity": 89, "duration": 243}, {"note": 76, "velocity": 85, "duration": 259}, {"note": 75, "velocity": 86, "duration": 228}, {"note": 73, "velocity": 88, "duration": 320}, {"note": 0, "velocity": 0, "duration": 640}, {"note": 73, "velocity": 90, "duration": 183}, {"note": 73, "velocity": 88, "duration": 144}, {"note": 0, "velocity": 0, "duration": 96}, {"note": 71, "velocity": 80, "duration": 184}, {"note": 71, "velocity": 84, "duration": 360}, {"note": 68, "velocity": 84, "duration": 93}, {"note": 66, "velocity": 78, "duration": 207}, {"note": 64, "velocity": 83, "duration": 177}, {"note": 0, "velocity": 0, "duration": 63}, {"note": 66, "velocity": 84, "duration": 189}, {"note": 68, "velocity": 82, "duration": 188}, {"note": 66, "velocity": 79, "duration": 202}, {"note": 64, "velocity": 84, "duration": 480}, {"note": 68, "velocity": 80, "duration": 180}, {"note": 66, "velocity": 79, "duration": 193}, {"note": 64, "velocity": 81, "duration": 219}, {"note": 0, "velocity": 0, "duration": 261}, {"note": 65, "velocity": 85, "duration": 171}, {"note": 0, "velocity": 0, "duration": 69}, {"note": 65, "velocity": 85, "duration": 173}, {"note": 0, "velocity": 0, "duration": 67}, {"note": 67, "velocity": 85, "duration": 180}, {"note": 69, "velocity": 86, "duration": 434}, {"note": 69, "velocity": 89, "duration": 180}, {"note": 72, "velocity": 88, "duration": 195}, {"note": 74, "velocity": 88, "duration": 302}, {"note": 76, "velocity": 85, "duration": 94}, {"note": 74, "velocity": 91, "duration": 174}, {"note": 0, "velocity": 0, "duration": 66}, {"note": 72, "velocity": 88, "duration": 216}, {"note": 69, "velocity": 86, "duration": 361}, {"note": 0, "velocity": 0, "duration": 839}, {"note": 65, "velocity": 81, "duration": 172}, {"note": 0, "velocity": 0, "duration": 68}, {"note": 65, "velocity": 83, "duration": 168}, {"note": 0, "velocity": 0, "duration": 72}, {"note": 67, "velocity": 80, "duration": 192}, {"note": 69, "velocity": 84, "duration": 440}, {"note": 67, "velocity": 85, "duration": 239}, {"note": 65, "velocity": 84, "duration": 216}, {"note": 69, "velocity": 82, "duration": 261}, {"note": 72, "velocity": 84, "duration": 151}, {"note": 0, "velocity": 0, "duration": 89}, {"note": 72, "velocity": 85, "duration": 184}, {"note": 74, "velocity": 90, "duration": 207}, {"note": 67, "velocity": 80, "duration": 461}, {"note": 0, "velocity": 0, "duration": 739}, {"note": 69, "velocity": 88, "duration": 172}, {"note": 0, "velocity": 0, "duration": 68}, {"note": 69, "velocity": 85, "duration": 186}, {"note": 71, "velocity": 85, "duration": 182}, {"note": 73, "velocity": 84, "duration": 383}, {"note": 0, "velocity": 0, "duration": 97}, {"note": 73, "velocity": 88, "duration": 204}, {"note": 69, "velocity": 85, "duration": 198}, {"note": 76, "velocity": 87, "duration": 223}, {"note": 74, "velocity": 90, "duration": 214}, {"note": 76, "velocity": 89, "duration": 243}, {"note": 77, "velocity": 85, "duration": 259}, {"note": 76, "velocity": 86, "duration": 228}, {"note": 74, "velocity": 88, "duration": 320}, {"note": 0, "velocity": 0, "duration": 640}, {"note": 74, "velocity": 90, "duration": 183}, {"note": 74, "velocity": 88, "duration": 144}, {"note": 0, "velocity": 0, "duration": 96}, {"note": 72, "velocity": 80, "duration": 184}, {"note": 72, "velocity": 84, "duration": 360}, {"note": 69, "velocity": 84, "duration": 93}, {"note": 67, "velocity": 78, "duration": 207}, {"note": 65, "velocity": 83, "duration": 177}, {"note": 0, "velocity": 0, "duration": 63}, {"note": 67, "velocity": 84, "duration": 189}, {"note": 69, "velocity": 82, "duration": 188}, {"note": 67, "velocity": 79, "duration": 202}, {"note": 65, "velocity": 84, "duration": 196}, {"note": 67, "velocity": 76, "duration": 178}, {"note": 0, "velocity": 0, "duration": 62}, {"note": 69, "velocity": 80, "duration": 180}, {"note": 67, "velocity": 79, "duration": 193}, {"note": 65, "velocity": 81, "duration": 219}, {"note": 0, "velocity": 0, "duration": 261}, {"note": 65, "velocity": 85, "duration": 171}, {"note": 0, "velocity": 0, "duration": 69}, {"note": 65, "velocity": 85, "duration": 173}, {"note": 0, "velocity": 0, "duration": 67}, {"note": 67, "velocity": 85, "duration": 180}, {"note": 69, "velocity": 86, "duration": 434}, {"note": 69, "velocity": 89, "duration": 180}, {"note": 72, "velocity": 88, "duration": 195}, {"note": 74, "velocity": 88, "duration": 302}, {"note": 76, "velocity": 85, "duration": 94}, {"note": 74, "velocity": 91, "duration": 174}, {"note": 0, "velocity": 0, "duration": 66}, {"note": 72, "velocity": 88, "duration": 216}, {"note": 69, "velocity": 86, "duration": 361}, {"note": 0, "velocity": 0, "duration": 839}, {"note": 65, "velocity": 81, "duration": 172}, {"note": 0, "velocity": 0, "duration": 68}, {"note": 65, "velocity": 83, "duration": 168}, {"note": 0, "velocity": 0, "duration": 72}, {"note": 67, "velocity": 80, "duration": 192}, {"note": 69, "velocity": 84, "duration": 440}, {"note": 67, "velocity": 85, "duration": 239}, {"note": 65, "velocity": 84, "duration": 216}, {"note": 69, "velocity": 82, "duration": 261}, {"note": 72, "velocity": 84, "duration": 151}, {"note": 0, "velocity": 0, "duration": 89}, {"note": 72, "velocity": 85, "duration": 184}, {"note": 74, "velocity": 90, "duration": 207}, {"note": 67, "velocity": 80, "duration": 461}, {"note": 0, "velocity": 0, "duration": 739}, {"note": 69, "velocity": 88, "duration": 172}, {"note": 0, "velocity": 0, "duration": 68}, {"note": 69, "velocity": 85, "duration": 186}, {"note": 71, "velocity": 85, "duration": 182}, {"note": 73, "velocity": 84, "duration": 383}, {"note": 0, "velocity": 0, "duration": 97}, {"note": 73, "velocity": 88, "duration": 204}, {"note": 69, "velocity": 85, "duration": 198}, {"note": 76, "velocity": 87, "duration": 223}, {"note": 74, "velocity": 90, "duration": 214}, {"note": 76, "velocity": 89, "duration": 243}, {"note": 77, "velocity": 85, "duration": 259}, {"note": 76, "velocity": 86, "duration": 228}, {"note": 74, "velocity": 88, "duration": 320}, {"note": 0, "velocity": 0, "duration": 640}, {"note": 74, "velocity": 90, "duration": 183}, {"note": 74, "velocity": 88, "duration": 144}, {"note": 0, "velocity": 0, "duration": 96}, {"note": 72, "velocity": 80, "duration": 184}, {"note": 72, "velocity": 84, "duration": 360}, {"note": 69, "velocity": 84, "duration": 93}, {"note": 67, "velocity": 78, "duration": 207}, {"note": 65, "velocity": 83, "duration": 177}, {"note": 0, "velocity": 0, "duration": 63}, {"note": 67, "velocity": 84, "duration": 189}, {"note": 69, "velocity": 82, "duration": 188}, {"note": 67, "velocity": 79, "duration": 202}, {"note": 65, "velocity": 84, "duration": 480}, {"note": 69, "velocity": 80, "duration": 180}, {"note": 67, "velocity": 79, "duration": 193}, {"note": 65, "velocity": 81, "duration": 219}]]