[[{"note": 62, "velocity": 84, "duration": 227}, {"note": 64, "velocity": 86, "duration": 161}, {"note": 0, "velocity": 0, "duration": 79}, {"note": 71, "velocity": 86, "duration": 169}, {"note": 0, "velocity": 0, "duration": 71}, {"note": 71, "velocity": 87, "duration": 984}, {"note": 0, "velocity": 0, "duration": 216}, {"note": 71, "velocity": 89, "duration": 113}, {"note": 74, "velocity": 88, "duration": 68}, {"note": 74, "velocity": 87, "duration": 107}, {"note": 71, "velocity": 86, "duration": 130}, {"note": 76, "velocity": 87, "duration": 210}, {"note": 74, "velocity": 87, "duration": 255}, {"note": 71, "velocity": 84, "duration": 821}, {"note": 0, "velocity": 0, "duration": 139}, {"note": 69, "velocity": 86, "duration": 117}, {"note": 71, "velocity": 81, "duration": 130}, {"note": 69, "velocity": 89, "duration": 146}, {"note": 67, "velocity": 82, "duration": 152}, {"note": 69, "velocity": 88, "duration": 263}, {"note": 71, "velocity": 85, "duration": 124}, {"note": 69, "velocity": 85, "duration": 933}, {"note": 0, "velocity": 0, "duration": 147}, {"note": 64, "velocity": 91, "duration": 119}, {"note": 67, "velocity": 79, "duration": 67}, {"note": 67, "velocity": 81, "duration": 127}, {"note": 64, "velocity": 88, "duration": 133}, {"note": 69, "velocity": 87, "duration": 248}, {"note": 71, "velocity": 81, "duration": 129}, {"note": 69, "velocity": 74, "duration": 154}, {"note": 71, "velocity": 85, "duration": 880}, {"note": 0, "velocity": 0, "duration": 80}, {"note": 62, "velocity": 88, "duration": 158}, {"note": 64, "velocity": 89, "duration": 351}, {"note": 71, "velocity": 81, "duration": 240}, {"note": 71, "velocity": 82, "duration": 720}, {"note": 0, "velocity": 0, "duration": 480}, {"note": 71, "velocity": 94, "duration": 114}, {"note": 74, "velocity": 88, "duration": 65}, {"note": 74, "velocity": 89, "duration": 107}, {"note": 71, "velocity": 87, "duration": 125}, {"note": 76, "velocity": 88, "duration": 214}, {"note": 74, "velocity": 88, "duration": 132}, {"note": 71, "velocity": 86, "duration": 123}, {"note": 74, "velocity": 87, "duration": 826}, {"note": 0, "velocity": 0, "duration": 134}, {"note": 69, "velocity": 83, "duration": 130}, {"note": 71, "velocity": 85, "duration": 156}, {"note": 69, "velocity": 86, "duration": 134}, {"note": 67, "velocity": 76, "duration": 159}, {"note": 69, "velocity": 86, "duration": 251}, {"note": 71, "velocity": 85, "duration": 128}, {"note": 69, "velocity": 83, "duration": 615}, {"note": 0, "velocity": 0, "duration": 465}, {"note": 64, "velocity": 87, "duration": 140}, {"note": 67, "velocity": 85, "duration": 77}, {"note": 67, "velocity": 82, "duration": 133}, {"note": 64, "velocity": 89, "duration": 135}, {"note": 69, "velocity": 85, "duration": 273}, {"note": 71, "velocity": 83, "duration": 134}, {"note": 69, "velocity": 78, "duration": 132}, {"note": 71, "velocity": 83, "duration": 239}, {"note": 69, "velocity": 80, "duration": 659}, {"note": 0, "velocity": 0, "duration": 61}, {"note": 74, "velocity": 91, "duration": 111}, {"note": 76, "velocity": 86, "duration": 336}, {"note": 71, "velocity": 89, "duration": 245}, {"note": 69, "velocity": 80, "duration": 126}, {"note": 67, "velocity": 84, "duration": 828}, {"note": 0, "velocity": 0, "duration": 252}, {"note": 71, "velocity": 86, "duration": 115}, {"note": 74, "velocity": 85, "duration": 73}, {"note": 74, "velocity": 89, "duration": 108}, {"note": 71, "velocity": 90, "duration": 367}, {"note": 76, "velocity": 89, "duration": 218}, {"note": 74, "velocity": 87, "duration": 875}, {"note": 0, "velocity": 0, "duration": 85}, {"note": 71, "velocity": 87, "duration": 149}, {"note": 72, "velocity": 83, "duration": 76}, {"note": 74, "velocity": 92, "duration": 131}, {"note": 71, "velocity": 83, "duration": 360}, {"note": 69, "velocity": 80, "duration": 121}, {"note": 67, "velocity": 75, "duration": 705}, {"note": 0, "velocity": 0, "duration": 375}, {"note": 67, "velocity": 78, "duration": 79}, {"note": 67, "velocity": 86, "duration": 84}, {"note": 64, "velocity": 87, "duration": 100}, {"note": 62, "velocity": 84, "duration": 119}, {"note": 69, "velocity": 91, "duration": 252}, {"note": 71, "velocity": 85, "duration": 124}, {"note": 69, "velocity": 75, "duration": 103}, {"note": 71, "velocity": 84, "duration": 473}, {"note": 0, "velocity": 0, "duration": 487}, {"note": 74, "velocity": 89, "duration": 92}, {"note": 76, "velocity": 87, "duration": 571}, {"note": 71, "velocity": 85, "duration": 129}, {"note": 69, "velocity": 80, "duration": 280}, {"note": 71, "velocity": 83, "duration": 730}, {"note": 0, "velocity": 0, "duration": 110}, {"note": 71, "velocity": 89, "duration": 99}, {"note": 74, "velocity": 87, "duration": 74}, {"note": 74, "velocity": 89, "duration": 116}, {"note": 71, "velocity": 86, "duration": 132}, {"note": 76, "velocity": 87, "duration": 236}, {"note": 74, "velocity": 87, "duration": 82}, {"note": 74, "velocity": 89, "duration": 257}, {"note": 76, "velocity": 85, "duration": 128}, {"note": 71, "velocity": 85, "duration": 634}, {"note": 0, "velocity": 0, "duration": 86}, {"note": 69, "velocity": 85, "duration": 121}, {"note": 71, "velocity": 83, "duration": 143}, {"note": 69, "velocity": 84, "duration": 143}, {"note": 67, "velocity": 77, "duration": 146}, {"note": 69, "velocity": 84, "duration": 247}, {"note": 71, "velocity": 81, "duration": 127}, {"note": 69, "velocity": 78, "duration": 556}, {"note": 0, "velocity": 0, "duration": 524}, {"note": 64, "velocity": 90, "duration": 132}, {"note": 67, "velocity": 84, "duration": 71}, {"note": 67, "velocity": 83, "duration": 117}, {"note": 64, "velocity": 85, "duration": 133}, {"note": 69, "velocity": 82, "duration": 273}, {"note": 67, "velocity": 74, "duration": 139}, {"note": 69, "velocity": 85, "duration": 265}, {"note": 71, "velocity": 83, "duration": 373}, {"note": 74, "velocity": 74, "duration": 446}, {"note": 0, "velocity": 0, "duration": 514}, {"note": 76, "velocity": 91, "duration": 76}, {"note": 76, "velocity": 86, "duration": 70}, {"note": 76, "velocity": 86, "duration": 76}, {"note": 76, "velocity": 86, "duration": 65}, {"note": 76, "velocity": 86, "duration": 69}, {"note": 76, "velocity": 86, "duration": 70}, {"note": 76, "velocity": 86, "duration": 65}, {"note": 76, "velocity": 87, "duration": 428}, {"note": 0, "velocity": 0, "duration": 172}, {"note": 76, "velocity": 90, "duration": 182}, {"note": 76, "velocity": 89, "duration": 100}, {"note": 71, "velocity": 86, "duration": 118}, {"note": 74, "velocity": 96, "duration": 188}, {"note": 76, "velocity": 88, "duration": 67}, {"note": 76, "velocity": 92, "duration": 257}, {"note": 74, "velocity": 91, "duration": 616}, {"note": 0, "velocity": 0, "duration": 704}, {"note": 76, "velocity": 87, "duration": 70}, {"note": 76, "velocity": 86, "duration": 65}, {"note": 76, "velocity": 85, "duration": 67}, {"note": 76, "velocity": 86, "duration": 63}, {"note": 76, "velocity": 86, "duration": 65}, {"note": 76, "velocity": 87, "duration": 66}, {"note": 76, "velocity": 87, "duration": 69}, {"note": 76, "velocity": 86, "duration": 511}, {"note": 0, "velocity": 0, "duration": 89}, {"note": 76, "velocity": 90, "duration": 186}, {"note": 76, "velocity": 87, "duration": 116}, {"note": 71, "velocity": 86, "duration": 114}, {"note": 74, "velocity": 89, "duration": 200}, {"note": 76, "velocity": 88, "duration": 82}, {"note": 76, "velocity": 87, "duration": 357}, {"note": 74, "velocity": 94, "duration": 745}, {"note": 0, "velocity": 0, "duration": 455}, {"note": 76, "velocity": 87, "duration": 189}, {"note": 76, "velocity": 87, "duration": 935}, {"note": 76, "velocity": 91, "duration": 192}, {"note": 76, "velocity": 88, "duration": 223}, {"note": 72, "velocity": 87, "duration": 249}, {"note": 74, "velocity": 91, "duration": 496}, {"note": 76, "velocity": 84, "duration": 252}, {"note": 71, "velocity": 85, "duration": 1076}, {"note": 0, "velocity": 0, "duration": 124}, {"note": 71, "velocity": 86, "duration": 469}, {"note": 69, "velocity": 86, "duration": 495}, {"note": 64, "velocity": 85, "duration": 395}, {"note": 0, "velocity": 0, "duration": 85}, {"note": 69, "velocity": 87, "duration": 199}, {"note": 71, "velocity": 87, "duration": 460}, {"note": 69, "velocity": 83, "duration": 1224}, {"note": 0, "velocity": 0, "duration": 8136}, {"note": 76, "velocity": 91, "duration": 76}, {"note": 76, "velocity": 86, "duration": 70}, {"note": 76, "velocity": 86, "duration": 76}, {"note": 76, "velocity": 86, "duration": 65}, {"note": 76, "velocity": 86, "duration": 69}, {"note": 76, "velocity": 86, "duration": 70}, {"note": 76, "velocity": 86, "duration": 65}, {"note": 76, "velocity": 87, "duration": 428}, {"note": 0, "velocity": 0, "duration": 172}, {"note": 76, "velocity": 90, "duration": 182}, {"note": 76, "velocity": 89, "duration": 100}, {"note": 71, "velocity": 86, "duration": 118}, {"note": 74, "velocity": 96, "duration": 188}, {"note": 76, "velocity": 88, "duration": 67}, {"note": 76, "velocity": 92, "duration": 257}, {"note": 74, "velocity": 91, "duration": 616}, {"note": 0, "velocity": 0, "duration": 704}, {"note": 76, "velocity": 87, "duration": 70}, {"note": 76, "velocity": 86, "duration": 65}, {"note": 76, "velocity": 85, "duration": 67}, {"note": 76, "velocity": 86, "duration": 63}, {"note": 76, "velocity": 86, "duration": 65}, {"note": 76, "velocity": 87, "duration": 66}, {"note": 76, "velocity": 87, "duration": 69}, {"note": 76, "velocity": 86, "duration": 511}, {"note": 0, "velocity": 0, "duration": 89}, {"note": 76, "velocity": 90, "duration": 186}, {"note": 76, "velocity": 87, "duration": 116}, {"note": 71, "velocity": 86, "duration": 114}, {"note": 74, "velocity": 89, "duration": 200}, {"note": 76, "velocity": 88, "duration": 82}, {"note": 76, "velocity": 87, "duration": 357}, {"note": 74, "velocity": 94, "duration": 745}, {"note": 0, "velocity": 0, "duration": 455}, {"note": 76, "velocity": 87, "duration": 189}, {"note": 76, "velocity": 87, "duration": 935}, {"note": 76, "velocity": 91, "duration": 192}, {"note": 76, "velocity": 88, "duration": 223}, {"note": 72, "velocity": 87, "duration": 249}, {"note": 74, "velocity": 91, "duration": 496}, {"note": 76, "velocity": 84, "duration": 252}, {"note": 71, "velocity": 85, "duration": 1076}, {"note": 0, "velocity": 0, "duration": 124}, {"note": 71, "velocity": 86, "duration": 469}, {"note": 69, "velocity": 86, "duration": 360}, {"note": 0, "velocity": 0, "duration": 103}, {"note": 69, "velocity": 89, "duration": 199}, {"note": 74, "velocity": 96, "duration": 335}, {"note": 0, "velocity": 0, "duration": 145}, {"note": 76, "velocity": 90, "duration": 474}, {"note": 74, "velocity": 94, "duration": 1680}, {"note": 75, "velocity": 94, "duration": 1200}, {"note": 80, "velocity": 89, "duration": 1447}, {"note": 77, "velocity": 89, "duration": 164}, {"note": 0, "velocity": 0, "duration": 65}, {"note": 77, "velocity": 96, "duration": 213}, {"note": 75, "velocity": 89, "duration": 710}, {"note": 0, "velocity": 0, "duration": 519}, {"note": 80, "velocity": 86, "duration": 115}, {"note": 77, "velocity": 85, "duration": 73}, {"note": 77, "velocity": 89, "duration": 108}, {"note": 77, "velocity": 90, "duration": 120}, {"note": 77, "velocity": 90, "duration": 240}, {"note": 77, "velocity": 89, "duration": 218}, {"note": 75, "velocity": 87, "duration": 875}, {"note": 0, "velocity": 0, "duration": 85}, {"note": 72, "velocity": 87, "duration": 149}, {"note": 73, "velocity": 83, "duration": 76}, {"note": 75, "velocity": 92, "duration": 131}, {"note": 72, "velocity": 83, "duration": 360}, {"note": 70, "velocity": 80, "duration": 121}, {"note": 68, "velocity": 75, "duration": 705}, {"note": 0, "velocity": 0, "duration": 375}, {"note": 80, "velocity": 78, "duration": 79}, {"note": 80, "velocity": 86, "duration": 84}, {"note": 77, "velocity": 87, "duration": 100}, {"note": 75, "velocity": 84, "duration": 119}, {"note": 77, "velocity": 91, "duration": 252}, {"note": 79, "velocity": 85, "duration": 124}, {"note": 77, "velocity": 75, "duration": 103}, {"note": 75, "velocity": 84, "duration": 473}, {"note": 0, "velocity": 0, "duration": 487}, {"note": 75, "velocity": 89, "duration": 92}, {"note": 77, "velocity": 87, "duration": 571}, {"note": 72, "velocity": 85, "duration": 129}, {"note": 70, "velocity": 80, "duration": 280}, {"note": 72, "velocity": 83, "duration": 730}, {"note": 0, "velocity": 0, "duration": 110}, {"note": 72, "velocity": 89, "duration": 99}, {"note": 75, "velocity": 87, "duration": 74}, {"note": 75, "velocity": 89, "duration": 116}, {"note": 72, "velocity": 86, "duration": 132}, {"note": 77, "velocity": 87, "duration": 236}, {"note": 75, "velocity": 87, "duration": 82}, {"note": 75, "velocity": 89, "duration": 257}, {"note": 77, "velocity": 85, "duration": 128}, {"note": 72, "velocity": 85, "duration": 634}, {"note": 0, "velocity": 0, "duration": 86}, {"note": 70, "velocity": 85, "duration": 121}, {"note": 72, "velocity": 83, "duration": 143}, {"note": 70, "velocity": 84, "duration": 143}, {"note": 68, "velocity": 77, "duration": 146}, {"note": 70, "velocity": 84, "duration": 247}, {"note": 72, "velocity": 81, "duration": 127}, {"note": 70, "velocity": 78, "duration": 556}, {"note": 0, "velocity": 0, "duration": 524}, {"note": 72, "velocity": 90, "duration": 132}, {"note": 70, "velocity": 84, "duration": 71}, {"note": 68, "velocity": 83, "duration": 117}, {"note": 70, "velocity": 85, "duration": 133}, {"note": 68, "velocity": 82, "duration": 1440}, {"note": 0, "velocity": 0, "duration": 452}, {"note": 73, "velocity": 89, "duration": 653}, {"note": 0, "velocity": 0, "duration": 84}, {"note": 72, "velocity": 86, "duration": 110}, {"note": 70, "velocity": 81, "duration": 120}, {"note": 68, "velocity": 70, "duration": 419}, {"note": 0, "velocity": 0, "duration": 189}, {"note": 80, "velocity": 65, "duration": 309}, {"note": 82, "velocity": 75, "duration": 184}, {"note": 84, "velocity": 87, "duration": 394}, {"note": 82, "velocity": 76, "duration": 117}, {"note": 80, "velocity": 73, "duration": 118}, {"note": 82, "velocity": 77, "duration": 134}, {"note": 80, "velocity": 78, "duration": 576}, {"note": 0, "velocity": 0, "duration": 133}, {"note": 87, "velocity": 92, "duration": 274}, {"note": 0, "velocity": 0, "duration": 62}, {"note": 85, "velocity": 86, "duration": 104}, {"note": 84, "velocity": 89, "duration": 171}, {"note": 85, "velocity": 87, "duration": 110}, {"note": 84, "velocity": 86, "duration": 240}, {"note": 80, "velocity": 75, "duration": 934}, {"note": 0, "velocity": 0, "duration": 318}, {"note": 75, "velocity": 77, "duration": 160}, {"note": 77, "velocity": 80, "duration": 166}, {"note": 80, "velocity": 86, "duration": 146}, {"note": 82, "velocity": 85, "duration": 175}, {"note": 84, "velocity": 80, "duration": 196}, {"note": 80, "velocity": 80, "duration": 164}, {"note": 82, "velocity": 77, "duration": 803}, {"note": 0, "velocity": 0, "duration": 140}, {"note": 80, "velocity": 79, "duration": 174}, {"note": 82, "velocity": 76, "duration": 136}, {"note": 84, "velocity": 87, "duration": 114}, {"note": 80, "velocity": 79, "duration": 120}, {"note": 82, "velocity": 70, "duration": 430}, {"note": 80, "velocity": 80, "duration": 1332}]]