[[{"note": 64, "velocity": 82, "duration": 341}, {"note": 0, "velocity": 0, "duration": 139}, {"note": 64, "velocity": 78, "duration": 393}, {"note": 0, "velocity": 0, "duration": 87}, {"note": 64, "velocity": 78, "duration": 356}, {"note": 0, "velocity": 0, "duration": 124}, {"note": 64, "velocity": 82, "duration": 182}, {"note": 69, "velocity": 76, "duration": 193}, {"note": 67, "velocity": 76, "duration": 450}, {"note": 62, "velocity": 77, "duration": 393}, {"note": 0, "velocity": 0, "duration": 87}, {"note": 62, "velocity": 77, "duration": 868}, {"note": 0, "velocity": 0, "duration": 92}, {"note": 60, "velocity": 78, "duration": 398}, {"note": 0, "velocity": 0, "duration": 82}, {"note": 60, "velocity": 77, "duration": 380}, {"note": 0, "velocity": 0, "duration": 100}, {"note": 60, "velocity": 78, "duration": 409}, {"note": 0, "velocity": 0, "duration": 71}, {"note": 60, "velocity": 80, "duration": 170}, {"note": 0, "velocity": 0, "duration": 70}, {"note": 65, "velocity": 78, "duration": 178}, {"note": 0, "velocity": 0, "duration": 62}, {"note": 64, "velocity": 79, "duration": 412}, {"note": 0, "velocity": 0, "duration": 68}, {"note": 59, "velocity": 78, "duration": 456}, {"note": 59, "velocity": 78, "duration": 498}, {"note": 60, "velocity": 78, "duration": 174}, {"note": 0, "velocity": 0, "duration": 66}, {"note": 59, "velocity": 78, "duration": 223}, {"note": 57, "velocity": 77, "duration": 380}, {"note": 0, "velocity": 0, "duration": 100}, {"note": 57, "velocity": 77, "duration": 381}, {"note": 0, "velocity": 0, "duration": 99}, {"note": 57, "velocity": 74, "duration": 182}, {"note": 59, "velocity": 76, "duration": 180}, {"note": 60, "velocity": 77, "duration": 171}, {"note": 0, "velocity": 0, "duration": 69}, {"note": 62, "velocity": 76, "duration": 197}, {"note": 60, "velocity": 79, "duration": 478}, {"note": 55, "velocity": 79, "duration": 468}, {"note": 64, "velocity": 78, "duration": 478}, {"note": 0, "velocity": 0, "duration": 242}, {"note": 64, "velocity": 80, "duration": 204}, {"note": 62, "velocity": 71, "duration": 235}, {"note": 60, "velocity": 76, "duration": 174}, {"note": 0, "velocity": 0, "duration": 66}, {"note": 60, "velocity": 76, "duration": 231}, {"note": 57, "velocity": 76, "duration": 173}, {"note": 0, "velocity": 0, "duration": 67}, {"note": 59, "velocity": 77, "duration": 449}, {"note": 60, "velocity": 77, "duration": 480}, {"note": 62, "velocity": 74, "duration": 1509}, {"note": 0, "velocity": 0, "duration": 411}, {"note": 64, "velocity": 82, "duration": 341}, {"note": 0, "velocity": 0, "duration": 139}, {"note": 64, "velocity": 78, "duration": 393}, {"note": 0, "velocity": 0, "duration": 87}, {"note": 64, "velocity": 78, "duration": 356}, {"note": 0, "velocity": 0, "duration": 124}, {"note": 64, "velocity": 82, "duration": 182}, {"note": 69, "velocity": 76, "duration": 193}, {"note": 67, "velocity": 76, "duration": 450}, {"note": 62, "velocity": 77, "duration": 393}, {"note": 0, "velocity": 0, "duration": 87}, {"note": 62, "velocity": 77, "duration": 868}, {"note": 0, "velocity": 0, "duration": 92}, {"note": 60, "velocity": 78, "duration": 398}, {"note": 0, "velocity": 0, "duration": 82}, {"note": 60, "velocity": 77, "duration": 380}, {"note": 0, "velocity": 0, "duration": 100}, {"note": 60, "velocity": 78, "duration": 409}, {"note": 0, "velocity": 0, "duration": 71}, {"note": 60, "velocity": 80, "duration": 170}, {"note": 0, "velocity": 0, "duration": 70}, {"note": 65, "velocity": 78, "duration": 178}, {"note": 0, "velocity": 0, "duration": 62}, {"note": 64, "velocity": 79, "duration": 412}, {"note": 0, "velocity": 0, "duration": 68}, {"note": 59, "velocity": 78, "duration": 456}, {"note": 59, "velocity": 78, "duration": 498}, {"note": 60, "velocity": 78, "duration": 174}, {"note": 0, "velocity": 0, "duration": 66}, {"note": 59, "velocity": 78, "duration": 223}, {"note": 57, "velocity": 77, "duration": 380}, {"note": 0, "velocity": 0, "duration": 100}, {"note": 57, "velocity": 77, "duration": 381}, {"note": 0, "velocity": 0, "duration": 99}, {"note": 57, "velocity": 74, "duration": 182}, {"note": 59, "velocity": 76, "duration": 180}, {"note": 60, "velocity": 77, "duration": 171}, {"note": 0, "velocity": 0, "duration": 69}, {"note": 62, "velocity": 76, "duration": 197}, {"note": 60, "velocity": 79, "duration": 478}, {"note": 55, "velocity": 79, "duration": 468}, {"note": 64, "velocity": 78, "duration": 478}, {"note": 0, "velocity": 0, "duration": 242}, {"note": 64, "velocity": 80, "duration": 204}, {"note": 62, "velocity": 71, "duration": 235}, {"note": 60, "velocity": 76, "duration": 174}, {"note": 0, "velocity": 0, "duration": 66}, {"note": 60, "velocity": 76, "duration": 231}, {"note": 57, "velocity": 76, "duration": 173}, {"note": 0, "velocity": 0, "duration": 67}, {"note": 59, "velocity": 77, "duration": 449}, {"note": 62, "velocity": 77, "duration": 480}, {"note": 60, "velocity": 74, "duration": 1509}, {"note": 0, "velocity": 0, "duration": 2331}, {"note": 60, "velocity": 78, "duration": 372}, {"note": 0, "velocity": 0, "duration": 108}, {"note": 60, "velocity": 79, "duration": 385}, {"note": 0, "velocity": 0, "duration": 95}, {"note": 60, "velocity": 80, "duration": 264}, {"note": 62, "velocity": 77, "duration": 184}, {"note": 64, "velocity": 78, "duration": 166}, {"note": 0, "velocity": 0, "duration": 74}, {"note": 65, "velocity": 77, "duration": 167}, {"note": 0, "velocity": 0, "duration": 73}, {"note": 67, "velocity": 76, "duration": 379}, {"note": 0, "velocity": 0, "duration": 101}, {"note": 67, "velocity": 78, "duration": 411}, {"note": 0, "velocity": 0, "duration": 69}, {"note": 67, "velocity": 78, "duration": 388}, {"note": 0, "velocity": 0, "duration": 92}, {"note": 64, "velocity": 82, "duration": 200}, {"note": 62, "velocity": 77, "duration": 230}, {"note": 60, "velocity": 76, "duration": 407}, {"note": 0, "velocity": 0, "duration": 73}, {"note": 60, "velocity": 77, "duration": 373}, {"note": 0, "velocity": 0, "duration": 107}, {"note": 60, "velocity": 78, "duration": 164}, {"note": 0, "velocity": 0, "duration": 76}, {"note": 62, "velocity": 77, "duration": 199}, {"note": 64, "velocity": 77, "duration": 163}, {"note": 0, "velocity": 0, "duration": 77}, {"note": 65, "velocity": 76, "duration": 182}, {"note": 67, "velocity": 76, "duration": 368}, {"note": 0, "velocity": 0, "duration": 112}, {"note": 67, "velocity": 76, "duration": 411}, {"note": 0, "velocity": 0, "duration": 69}, {"note": 67, "velocity": 74, "duration": 329}, {"note": 0, "velocity": 0, "duration": 151}, {"note": 64, "velocity": 77, "duration": 180}, {"note": 62, "velocity": 75, "duration": 199}, {"note": 60, "velocity": 79, "duration": 415}, {"note": 0, "velocity": 0, "duration": 65}, {"note": 72, "velocity": 79, "duration": 386}, {"note": 0, "velocity": 0, "duration": 94}, {"note": 71, "velocity": 76, "duration": 394}, {"note": 0, "velocity": 0, "duration": 86}, {"note": 67, "velocity": 77, "duration": 405}, {"note": 0, "velocity": 0, "duration": 75}, {"note": 69, "velocity": 77, "duration": 385}, {"note": 0, "velocity": 0, "duration": 95}, {"note": 67, "velocity": 71, "duration": 169}, {"note": 0, "velocity": 0, "duration": 71}, {"note": 65, "velocity": 76, "duration": 178}, {"note": 0, "velocity": 0, "duration": 62}, {"note": 67, "velocity": 71, "duration": 370}, {"note": 0, "velocity": 0, "duration": 350}, {"note": 60, "velocity": 82, "duration": 174}, {"note": 0, "velocity": 0, "duration": 66}, {"note": 65, "velocity": 80, "duration": 373}, {"note": 0, "velocity": 0, "duration": 107}, {"note": 67, "velocity": 74, "duration": 394}, {"note": 0, "velocity": 0, "duration": 86}, {"note": 69, "velocity": 76, "duration": 588}, {"note": 0, "velocity": 0, "duration": 132}, {"note": 67, "velocity": 78, "duration": 408}, {"note": 0, "velocity": 0, "duration": 72}, {"note": 67, "velocity": 76, "duration": 1029}, {"note": 0, "velocity": 0, "duration": 651}, {"note": 60, "velocity": 78, "duration": 372}, {"note": 0, "velocity": 0, "duration": 108}, {"note": 60, "velocity": 79, "duration": 385}, {"note": 0, "velocity": 0, "duration": 95}, {"note": 60, "velocity": 80, "duration": 264}, {"note": 62, "velocity": 77, "duration": 184}, {"note": 64, "velocity": 78, "duration": 166}, {"note": 0, "velocity": 0, "duration": 74}, {"note": 65, "velocity": 77, "duration": 167}, {"note": 0, "velocity": 0, "duration": 73}, {"note": 67, "velocity": 76, "duration": 379}, {"note": 0, "velocity": 0, "duration": 101}, {"note": 67, "velocity": 78, "duration": 411}, {"note": 0, "velocity": 0, "duration": 69}, {"note": 67, "velocity": 78, "duration": 388}, {"note": 0, "velocity": 0, "duration": 92}, {"note": 64, "velocity": 82, "duration": 200}, {"note": 62, "velocity": 77, "duration": 230}, {"note": 60, "velocity": 76, "duration": 407}, {"note": 0, "velocity": 0, "duration": 73}, {"note": 60, "velocity": 77, "duration": 373}, {"note": 0, "velocity": 0, "duration": 107}, {"note": 60, "velocity": 78, "duration": 164}, {"note": 0, "velocity": 0, "duration": 76}, {"note": 62, "velocity": 77, "duration": 199}, {"note": 64, "velocity": 77, "duration": 163}, {"note": 0, "velocity": 0, "duration": 77}, {"note": 65, "velocity": 76, "duration": 182}, {"note": 67, "velocity": 76, "duration": 368}, {"note": 0, "velocity": 0, "duration": 112}, {"note": 67, "velocity": 76, "duration": 411}, {"note": 0, "velocity": 0, "duration": 69}, {"note": 67, "velocity": 74, "duration": 329}, {"note": 0, "velocity": 0, "duration": 151}, {"note": 64, "velocity": 77, "duration": 180}, {"note": 62, "velocity": 75, "duration": 199}, {"note": 60, "velocity": 79, "duration": 415}, {"note": 0, "velocity": 0, "duration": 65}, {"note": 72, "velocity": 79, "duration": 386}, {"note": 0, "velocity": 0, "duration": 94}, {"note": 71, "velocity": 76, "duration": 394}, {"note": 0, "velocity": 0, "duration": 86}, {"note": 69, "velocity": 77, "duration": 238}, {"note": 67, "velocity": 77, "duration": 238}, {"note": 69, "velocity": 77, "duration": 385}, {"note": 0, "velocity": 0, "duration": 95}, {"note": 67, "velocity": 71, "duration": 169}, {"note": 0, "velocity": 0, "duration": 71}, {"note": 65, "velocity": 76, "duration": 178}, {"note": 0, "velocity": 0, "duration": 62}, {"note": 67, "velocity": 71, "duration": 370}, {"note": 0, "velocity": 0, "duration": 350}, {"note": 60, "velocity": 82, "duration": 174}, {"note": 0, "velocity": 0, "duration": 66}, {"note": 65, "velocity": 80, "duration": 373}, {"note": 0, "velocity": 0, "duration": 107}, {"note": 67, "velocity": 74, "duration": 394}, {"note": 0, "velocity": 0, "duration": 86}, {"note": 64, "velocity": 76, "duration": 478}, {"note": 62, "velocity": 78, "duration": 197}, {"note": 60, "velocity": 77, "duration": 424}, {"note": 60, "velocity": 78, "duration": 1544}, {"note": 0, "velocity": 0, "duration": 5896}, {"note": 64, "velocity": 82, "duration": 341}, {"note": 0, "velocity": 0, "duration": 139}, {"note": 64, "velocity": 78, "duration": 393}, {"note": 0, "velocity": 0, "duration": 87}, {"note": 64, "velocity": 78, "duration": 356}, {"note": 0, "velocity": 0, "duration": 124}, {"note": 64, "velocity": 82, "duration": 182}, {"note": 69, "velocity": 76, "duration": 193}, {"note": 67, "velocity": 76, "duration": 450}, {"note": 62, "velocity": 77, "duration": 393}, {"note": 0, "velocity": 0, "duration": 87}, {"note": 62, "velocity": 77, "duration": 868}, {"note": 0, "velocity": 0, "duration": 92}, {"note": 60, "velocity": 78, "duration": 398}, {"note": 0, "velocity": 0, "duration": 82}, {"note": 60, "velocity": 77, "duration": 380}, {"note": 0, "velocity": 0, "duration": 100}, {"note": 60, "velocity": 78, "duration": 409}, {"note": 0, "velocity": 0, "duration": 71}, {"note": 60, "velocity": 80, "duration": 170}, {"note": 0, "velocity": 0, "duration": 70}, {"note": 65, "velocity": 78, "duration": 178}, {"note": 0, "velocity": 0, "duration": 62}, {"note": 64, "velocity": 79, "duration": 412}, {"note": 0, "velocity": 0, "duration": 68}, {"note": 59, "velocity": 78, "duration": 456}, {"note": 59, "velocity": 78, "duration": 498}, {"note": 60, "velocity": 78, "duration": 174}, {"note": 0, "velocity": 0, "duration": 66}, {"note": 59, "velocity": 78, "duration": 223}, {"note": 57, "velocity": 77, "duration": 380}, {"note": 0, "velocity": 0, "duration": 100}, {"note": 57, "velocity": 77, "duration": 381}, {"note": 0, "velocity": 0, "duration": 99}, {"note": 57, "velocity": 74, "duration": 182}, {"note": 59, "velocity": 76, "duration": 180}, {"note": 60, "velocity": 77, "duration": 171}, {"note": 0, "velocity": 0, "duration": 69}, {"note": 62, "velocity": 76, "duration": 197}, {"note": 60, "velocity": 79, "duration": 478}, {"note": 55, "velocity": 79, "duration": 468}, {"note": 64, "velocity": 78, "duration": 478}, {"note": 0, "velocity": 0, "duration": 242}, {"note": 64, "velocity": 80, "duration": 204}, {"note": 62, "velocity": 71, "duration": 235}, {"note": 60, "velocity": 76, "duration": 174}, {"note": 0, "velocity": 0, "duration": 66}, {"note": 60, "velocity": 76, "duration": 231}, {"note": 57, "velocity": 76, "duration": 173}, {"note": 0, "velocity": 0, "duration": 67}, {"note": 59, "velocity": 77, "duration": 449}, {"note": 62, "velocity": 77, "duration": 480}, {"note": 60, "velocity": 74, "duration": 1509}, {"note": 0, "velocity": 0, "duration": 2331}, {"note": 60, "velocity": 78, "duration": 372}, {"note": 0, "velocity": 0, "duration": 108}, {"note": 60, "velocity": 79, "duration": 385}, {"note": 0, "velocity": 0, "duration": 95}, {"note": 60, "velocity": 80, "duration": 264}, {"note": 62, "velocity": 77, "duration": 184}, {"note": 64, "velocity": 78, "duration": 166}, {"note": 0, "velocity": 0, "duration": 74}, {"note": 65, "velocity": 77, "duration": 167}, {"note": 0, "velocity": 0, "duration": 73}, {"note": 67, "velocity": 76, "duration": 379}, {"note": 0, "velocity": 0, "duration": 101}, {"note": 67, "velocity": 78, "duration": 411}, {"note": 0, "velocity": 0, "duration": 69}, {"note": 67, "velocity": 78, "duration": 388}, {"note": 0, "velocity": 0, "duration": 92}, {"note": 64, "velocity": 82, "duration": 200}, {"note": 62, "velocity": 77, "duration": 230}, {"note": 60, "velocity": 76, "duration": 407}, {"note": 0, "velocity": 0, "duration": 73}, {"note": 60, "velocity": 77, "duration": 373}, {"note": 0, "velocity": 0, "duration": 107}, {"note": 60, "velocity": 78, "duration": 164}, {"note": 0, "velocity": 0, "duration": 76}, {"note": 62, "velocity": 77, "duration": 199}, {"note": 64, "velocity": 77, "duration": 163}, {"note": 0, "velocity": 0, "duration": 77}, {"note": 65, "velocity": 76, "duration": 182}, {"note": 67, "velocity": 76, "duration": 368}, {"note": 0, "velocity": 0, "duration": 112}, {"note": 67, "velocity": 76, "duration": 411}, {"note": 0, "velocity": 0, "duration": 69}, {"note": 67, "velocity": 74, "duration": 329}, {"note": 0, "velocity": 0, "duration": 151}, {"note": 64, "velocity": 77, "duration": 180}, {"note": 62, "velocity": 75, "duration": 199}, {"note": 60, "velocity": 79, "duration": 415}, {"note": 0, "velocity": 0, "duration": 65}, {"note": 72, "velocity": 79, "duration": 386}, {"note": 0, "velocity": 0, "duration": 94}, {"note": 71, "velocity": 76, "duration": 394}, {"note": 0, "velocity": 0, "duration": 86}, {"note": 67, "velocity": 77, "duration": 405}, {"note": 0, "velocity": 0, "duration": 75}, {"note": 69, "velocity": 77, "duration": 385}, {"note": 0, "velocity": 0, "duration": 95}, {"note": 67, "velocity": 71, "duration": 169}, {"note": 0, "velocity": 0, "duration": 71}, {"note": 65, "velocity": 76, "duration": 178}, {"note": 0, "velocity": 0, "duration": 62}, {"note": 67, "velocity": 71, "duration": 370}, {"note": 0, "velocity": 0, "duration": 350}, {"note": 60, "velocity": 82, "duration": 174}, {"note": 0, "velocity": 0, "duration": 66}, {"note": 65, "velocity": 80, "duration": 373}, {"note": 0, "velocity": 0, "duration": 107}, {"note": 67, "velocity": 74, "duration": 394}, {"note": 0, "velocity": 0, "duration": 86}, {"note": 69, "velocity": 76, "duration": 588}, {"note": 0, "velocity": 0, "duration": 132}, {"note": 67, "velocity": 78, "duration": 408}, {"note": 0, "velocity": 0, "duration": 72}, {"note": 67, "velocity": 76, "duration": 1029}, {"note": 0, "velocity": 0, "duration": 651}, {"note": 60, "velocity": 78, "duration": 372}, {"note": 0, "velocity": 0, "duration": 108}, {"note": 60, "velocity": 79, "duration": 385}, {"note": 0, "velocity": 0, "duration": 95}, {"note": 60, "velocity": 80, "duration": 264}, {"note": 62, "velocity": 77, "duration": 184}, {"note": 64, "velocity": 78, "duration": 166}, {"note": 0, "velocity": 0, "duration": 74}, {"note": 65, "velocity": 77, "duration": 167}, {"note": 0, "velocity": 0, "duration": 73}, {"note": 67, "velocity": 76, "duration": 379}, {"note": 0, "velocity": 0, "duration": 101}, {"note": 67, "velocity": 78, "duration": 411}, {"note": 0, "velocity": 0, "duration": 69}, {"note": 67, "velocity": 78, "duration": 388}, {"note": 0, "velocity": 0, "duration": 92}, {"note": 64, "velocity": 82, "duration": 200}, {"note": 62, "velocity": 77, "duration": 230}, {"note": 60, "velocity": 76, "duration": 407}, {"note": 0, "velocity": 0, "duration": 73}, {"note": 60, "velocity": 77, "duration": 373}, {"note": 0, "velocity": 0, "duration": 107}, {"note": 60, "velocity": 78, "duration": 164}, {"note": 0, "velocity": 0, "duration": 76}, {"note": 62, "velocity": 77, "duration": 199}, {"note": 64, "velocity": 77, "duration": 163}, {"note": 0, "velocity": 0, "duration": 77}, {"note": 65, "velocity": 76, "duration": 182}, {"note": 67, "velocity": 76, "duration": 368}, {"note": 0, "velocity": 0, "duration": 112}, {"note": 67, "velocity": 76, "duration": 411}, {"note": 0, "velocity": 0, "duration": 69}, {"note": 67, "velocity": 74, "duration": 329}, {"note": 0, "velocity": 0, "duration": 151}, {"note": 64, "velocity": 77, "duration": 180}, {"note": 62, "velocity": 75, "duration": 199}, {"note": 60, "velocity": 79, "duration": 415}, {"note": 0, "velocity": 0, "duration": 65}, {"note": 72, "velocity": 79, "duration": 386}, {"note": 0, "velocity": 0, "duration": 94}, {"note": 71, "velocity": 76, "duration": 394}, {"note": 0, "velocity": 0, "duration": 86}, {"note": 69, "velocity": 77, "duration": 238}, {"note": 67, "velocity": 77, "duration": 238}, {"note": 69, "velocity": 77, "duration": 385}, {"note": 0, "velocity": 0, "duration": 95}, {"note": 67, "velocity": 71, "duration": 169}, {"note": 0, "velocity": 0, "duration": 71}, {"note": 65, "velocity": 76, "duration": 178}, {"note": 0, "velocity": 0, "duration": 62}, {"note": 67, "velocity": 71, "duration": 370}, {"note": 0, "velocity": 0, "duration": 350}, {"note": 60, "velocity": 82, "duration": 174}, {"note": 0, "velocity": 0, "duration": 66}, {"note": 65, "velocity": 80, "duration": 373}, {"note": 0, "velocity": 0, "duration": 107}, {"note": 67, "velocity": 74, "duration": 394}, {"note": 0, "velocity": 0, "duration": 86}, {"note": 64, "velocity": 76, "duration": 478}, {"note": 62, "velocity": 78, "duration": 197}, {"note": 60, "velocity": 77, "duration": 424}, {"note": 60, "velocity": 78, "duration": 1544}, {"note": 0, "velocity": 0, "duration": 136}, {"note": 62, "velocity": 78, "duration": 372}, {"note": 0, "velocity": 0, "duration": 108}, {"note": 62, "velocity": 79, "duration": 385}, {"note": 0, "velocity": 0, "duration": 95}, {"note": 62, "velocity": 80, "duration": 264}, {"note": 64, "velocity": 77, "duration": 184}, {"note": 66, "velocity": 78, "duration": 166}, {"note": 0, "velocity": 0, "duration": 74}, {"note": 67, "velocity": 77, "duration": 167}, {"note": 0, "velocity": 0, "duration": 73}, {"note": 69, "velocity": 76, "duration": 379}, {"note": 0, "velocity": 0, "duration": 101}, {"note": 69, "velocity": 78, "duration": 411}, {"note": 0, "velocity": 0, "duration": 69}, {"note": 69, "velocity": 78, "duration": 388}, {"note": 0, "velocity": 0, "duration": 92}, {"note": 66, "velocity": 82, "duration": 200}, {"note": 64, "velocity": 77, "duration": 230}, {"note": 62, "velocity": 76, "duration": 407}, {"note": 0, "velocity": 0, "duration": 73}, {"note": 62, "velocity": 77, "duration": 373}, {"note": 0, "velocity": 0, "duration": 107}, {"note": 62, "velocity": 78, "duration": 164}, {"note": 0, "velocity": 0, "duration": 76}, {"note": 64, "velocity": 77, "duration": 199}, {"note": 66, "velocity": 77, "duration": 163}, {"note": 0, "velocity": 0, "duration": 77}, {"note": 67, "velocity": 76, "duration": 182}, {"note": 69, "velocity": 76, "duration": 368}, {"note": 0, "velocity": 0, "duration": 112}, {"note": 69, "velocity": 76, "duration": 411}, {"note": 0, "velocity": 0, "duration": 69}, {"note": 69, "velocity": 74, "duration": 329}, {"note": 0, "velocity": 0, "duration": 151}, {"note": 66, "velocity": 77, "duration": 180}, {"note": 64, "velocity": 75, "duration": 199}, {"note": 62, "velocity": 79, "duration": 415}, {"note": 0, "velocity": 0, "duration": 65}, {"note": 74, "velocity": 79, "duration": 386}, {"note": 0, "velocity": 0, "duration": 94}, {"note": 73, "velocity": 76, "duration": 394}, {"note": 0, "velocity": 0, "duration": 86}, {"note": 69, "velocity": 77, "duration": 405}, {"note": 0, "velocity": 0, "duration": 75}, {"note": 71, "velocity": 77, "duration": 385}, {"note": 0, "velocity": 0, "duration": 95}, {"note": 69, "velocity": 71, "duration": 169}, {"note": 0, "velocity": 0, "duration": 71}, {"note": 67, "velocity": 76, "duration": 178}, {"note": 0, "velocity": 0, "duration": 62}, {"note": 69, "velocity": 71, "duration": 370}, {"note": 0, "velocity": 0, "duration": 350}, {"note": 62, "velocity": 82, "duration": 174}, {"note": 0, "velocity": 0, "duration": 66}, {"note": 67, "velocity": 80, "duration": 373}, {"note": 0, "velocity": 0, "duration": 107}, {"note": 69, "velocity": 74, "duration": 394}, {"note": 0, "velocity": 0, "duration": 86}, {"note": 71, "velocity": 76, "duration": 588}, {"note": 0, "velocity": 0, "duration": 132}, {"note": 69, "velocity": 78, "duration": 408}, {"note": 0, "velocity": 0, "duration": 72}, {"note": 69, "velocity": 76, "duration": 1029}, {"note": 0, "velocity": 0, "duration": 651}, {"note": 62, "velocity": 78, "duration": 372}, {"note": 0, "velocity": 0, "duration": 108}, {"note": 62, "velocity": 79, "duration": 385}, {"note": 0, "velocity": 0, "duration": 95}, {"note": 62, "velocity": 80, "duration": 264}, {"note": 64, "velocity": 77, "duration": 184}, {"note": 66, "velocity": 78, "duration": 166}, {"note": 0, "velocity": 0, "duration": 74}, {"note": 67, "velocity": 77, "duration": 167}, {"note": 0, "velocity": 0, "duration": 73}, {"note": 69, "velocity": 76, "duration": 379}, {"note": 0, "velocity": 0, "duration": 101}, {"note": 69, "velocity": 78, "duration": 411}, {"note": 0, "velocity": 0, "duration": 69}, {"note": 69, "velocity": 78, "duration": 388}, {"note": 0, "velocity": 0, "duration": 92}, {"note": 66, "velocity": 82, "duration": 200}, {"note": 64, "velocity": 77, "duration": 230}, {"note": 62, "velocity": 76, "duration": 407}, {"note": 0, "velocity": 0, "duration": 73}, {"note": 62, "velocity": 77, "duration": 373}, {"note": 0, "velocity": 0, "duration": 107}, {"note": 62, "velocity": 78, "duration": 164}, {"note": 0, "velocity": 0, "duration": 76}, {"note": 64, "velocity": 77, "duration": 199}, {"note": 66, "velocity": 77, "duration": 163}, {"note": 0, "velocity": 0, "duration": 77}, {"note": 67, "velocity": 76, "duration": 182}, {"note": 69, "velocity": 76, "duration": 368}, {"note": 0, "velocity": 0, "duration": 112}, {"note": 69, "velocity": 76, "duration": 411}, {"note": 0, "velocity": 0, "duration": 69}, {"note": 69, "velocity": 74, "duration": 329}, {"note": 0, "velocity": 0, "duration": 151}, {"note": 66, "velocity": 77, "duration": 180}, {"note": 64, "velocity": 75, "duration": 199}, {"note": 62, "velocity": 79, "duration": 415}, {"note": 0, "velocity": 0, "duration": 65}, {"note": 74, "velocity": 79, "duration": 386}, {"note": 0, "velocity": 0, "duration": 94}, {"note": 73, "velocity": 76, "duration": 394}, {"note": 0, "velocity": 0, "duration": 86}, {"note": 71, "velocity": 77, "duration": 238}, {"note": 69, "velocity": 77, "duration": 238}, {"note": 71, "velocity": 77, "duration": 385}, {"note": 0, "velocity": 0, "duration": 95}, {"note": 69, "velocity": 71, "duration": 169}, {"note": 0, "velocity": 0, "duration": 71}, {"note": 67, "velocity": 76, "duration": 178}, {"note": 0, "velocity": 0, "duration": 62}, {"note": 69, "velocity": 71, "duration": 370}, {"note": 0, "velocity": 0, "duration": 350}, {"note": 62, "velocity": 82, "duration": 174}, {"note": 0, "velocity": 0, "duration": 66}, {"note": 67, "velocity": 80, "duration": 373}, {"note": 0, "velocity": 0, "duration": 107}, {"note": 69, "velocity": 74, "duration": 394}, {"note": 0, "velocity": 0, "duration": 86}, {"note": 66, "velocity": 76, "duration": 478}, {"note": 64, "velocity": 78, "duration": 197}, {"note": 62, "velocity": 77, "duration": 424}, {"note": 62, "velocity": 78, "duration": 1544}, {"note": 0, "velocity": 0, "duration": 815}, {"note": 57, "velocity": 78, "duration": 194}, {"note": 69, "velocity": 77, "duration": 222}, {"note": 67, "velocity": 71, "duration": 255}, {"note": 66, "velocity": 78, "duration": 298}, {"note": 67, "velocity": 77, "duration": 291}, {"note": 66, "velocity": 79, "duration": 267}, {"note": 62, "velocity": 77, "duration": 205}, {"note": 0, "velocity": 0, "duration": 71}, {"note": 66, "velocity": 78, "duration": 279}, {"note": 67, "velocity": 71, "duration": 437}, {"note": 0, "velocity": 0, "duration": 282}, {"note": 64, "velocity": 74, "duration": 1787}, {"note": 0, "velocity": 0, "duration": 108}, {"note": 62, "velocity": 71, "duration": 550}, {"note": 0, "velocity": 0, "duration": 91}, {"note": 62, "velocity": 70, "duration": 2085}]]