[[{"note": 73, "velocity": 52, "duration": 72}, {"note": 73, "velocity": 56, "duration": 78}, {"note": 73, "velocity": 57, "duration": 80}, {"note": 73, "velocity": 58, "duration": 97}, {"note": 70, "velocity": 57, "duration": 78}, {"note": 73, "velocity": 52, "duration": 93}, {"note": 70, "velocity": 54, "duration": 85}, {"note": 73, "velocity": 59, "duration": 86}, {"note": 77, "velocity": 59, "duration": 84}, {"note": 77, "velocity": 60, "duration": 174}, {"note": 0, "velocity": 0, "duration": 186}, {"note": 75, "velocity": 64, "duration": 194}, {"note": 73, "velocity": 57, "duration": 76}, {"note": 75, "velocity": 60, "duration": 67}, {"note": 75, "velocity": 59, "duration": 58}, {"note": 0, "velocity": 0, "duration": 62}, {"note": 75, "velocity": 59, "duration": 64}, {"note": 75, "velocity": 59, "duration": 59}, {"note": 0, "velocity": 0, "duration": 61}, {"note": 75, "velocity": 58, "duration": 65}, {"note": 77, "velocity": 59, "duration": 80}, {"note": 75, "velocity": 63, "duration": 58}, {"note": 0, "velocity": 0, "duration": 62}, {"note": 68, "velocity": 54, "duration": 336}, {"note": 0, "velocity": 0, "duration": 864}, {"note": 73, "velocity": 54, "duration": 69}, {"note": 73, "velocity": 56, "duration": 81}, {"note": 73, "velocity": 56, "duration": 61}, {"note": 73, "velocity": 55, "duration": 80}, {"note": 70, "velocity": 58, "duration": 87}, {"note": 73, "velocity": 58, "duration": 80}, {"note": 70, "velocity": 54, "duration": 76}, {"note": 73, "velocity": 58, "duration": 94}, {"note": 80, "velocity": 45, "duration": 180}, {"note": 80, "velocity": 58, "duration": 149}, {"note": 0, "velocity": 0, "duration": 91}, {"note": 77, "velocity": 58, "duration": 105}, {"note": 75, "velocity": 58, "duration": 88}, {"note": 73, "velocity": 52, "duration": 85}, {"note": 75, "velocity": 58, "duration": 67}, {"note": 75, "velocity": 58, "duration": 59}, {"note": 0, "velocity": 0, "duration": 61}, {"note": 75, "velocity": 58, "duration": 83}, {"note": 73, "velocity": 47, "duration": 99}, {"note": 75, "velocity": 59, "duration": 95}, {"note": 80, "velocity": 55, "duration": 160}, {"note": 0, "velocity": 0, "duration": 80}, {"note": 77, "velocity": 55, "duration": 654}, {"note": 0, "velocity": 0, "duration": 546}, {"note": 75, "velocity": 57, "duration": 69}, {"note": 75, "velocity": 59, "duration": 58}, {"note": 0, "velocity": 0, "duration": 62}, {"note": 75, "velocity": 59, "duration": 59}, {"note": 0, "velocity": 0, "duration": 61}, {"note": 75, "velocity": 62, "duration": 178}, {"note": 0, "velocity": 0, "duration": 62}, {"note": 75, "velocity": 60, "duration": 56}, {"note": 0, "velocity": 0, "duration": 64}, {"note": 75, "velocity": 60, "duration": 53}, {"note": 0, "velocity": 0, "duration": 67}, {"note": 75, "velocity": 60, "duration": 61}, {"note": 75, "velocity": 60, "duration": 88}, {"note": 73, "velocity": 59, "duration": 72}, {"note": 77, "velocity": 61, "duration": 176}, {"note": 0, "velocity": 0, "duration": 64}, {"note": 75, "velocity": 62, "duration": 108}, {"note": 77, "velocity": 53, "duration": 104}, {"note": 75, "velocity": 59, "duration": 108}, {"note": 0, "velocity": 0, "duration": 132}, {"note": 70, "velocity": 49, "duration": 80}, {"note": 73, "velocity": 58, "duration": 84}, {"note": 70, "velocity": 54, "duration": 77}, {"note": 73, "velocity": 58, "duration": 113}, {"note": 70, "velocity": 52, "duration": 87}, {"note": 73, "velocity": 52, "duration": 101}, {"note": 77, "velocity": 56, "duration": 240}, {"note": 73, "velocity": 54, "duration": 360}, {"note": 0, "velocity": 0, "duration": 600}, {"note": 75, "velocity": 59, "duration": 69}, {"note": 75, "velocity": 59, "duration": 64}, {"note": 75, "velocity": 61, "duration": 61}, {"note": 75, "velocity": 59, "duration": 61}, {"note": 75, "velocity": 59, "duration": 175}, {"note": 0, "velocity": 0, "duration": 65}, {"note": 75, "velocity": 60, "duration": 62}, {"note": 75, "velocity": 59, "duration": 65}, {"note": 77, "velocity": 60, "duration": 168}, {"note": 0, "velocity": 0, "duration": 72}, {"note": 75, "velocity": 59, "duration": 166}, {"note": 0, "velocity": 0, "duration": 74}, {"note": 77, "velocity": 62, "duration": 88}, {"note": 75, "velocity": 58, "duration": 87}, {"note": 73, "velocity": 55, "duration": 72}, {"note": 75, "velocity": 53, "duration": 67}, {"note": 75, "velocity": 60, "duration": 59}, {"note": 0, "velocity": 0, "duration": 61}, {"note": 75, "velocity": 59, "duration": 61}, {"note": 75, "velocity": 57, "duration": 58}, {"note": 0, "velocity": 0, "duration": 62}, {"note": 75, "velocity": 60, "duration": 87}, {"note": 73, "velocity": 56, "duration": 69}, {"note": 75, "velocity": 59, "duration": 86}, {"note": 80, "velocity": 59, "duration": 185}, {"note": 75, "velocity": 60, "duration": 840}, {"note": 0, "velocity": 0, "duration": 120}, {"note": 73, "velocity": 55, "duration": 61}, {"note": 73, "velocity": 54, "duration": 69}, {"note": 73, "velocity": 55, "duration": 70}, {"note": 73, "velocity": 58, "duration": 81}, {"note": 80, "velocity": 54, "duration": 65}, {"note": 80, "velocity": 58, "duration": 64}, {"note": 80, "velocity": 57, "duration": 64}, {"note": 80, "velocity": 59, "duration": 72}, {"note": 75, "velocity": 54, "duration": 56}, {"note": 0, "velocity": 0, "duration": 64}, {"note": 75, "velocity": 59, "duration": 83}, {"note": 73, "velocity": 58, "duration": 104}, {"note": 0, "velocity": 0, "duration": 136}, {"note": 77, "velocity": 59, "duration": 100}, {"note": 75, "velocity": 53, "duration": 89}, {"note": 73, "velocity": 58, "duration": 85}, {"note": 75, "velocity": 60, "duration": 69}, {"note": 75, "velocity": 60, "duration": 61}, {"note": 75, "velocity": 59, "duration": 63}, {"note": 75, "velocity": 60, "duration": 61}, {"note": 75, "velocity": 62, "duration": 83}, {"note": 77, "velocity": 57, "duration": 61}, {"note": 78, "velocity": 53, "duration": 70}, {"note": 78, "velocity": 57, "duration": 254}, {"note": 77, "velocity": 51, "duration": 770}, {"note": 0, "velocity": 0, "duration": 190}, {"note": 73, "velocity": 58, "duration": 53}, {"note": 0, "velocity": 0, "duration": 67}, {"note": 73, "velocity": 53, "duration": 55}, {"note": 0, "velocity": 0, "duration": 65}, {"note": 73, "velocity": 56, "duration": 57}, {"note": 0, "velocity": 0, "duration": 63}, {"note": 73, "velocity": 53, "duration": 64}, {"note": 73, "velocity": 52, "duration": 57}, {"note": 0, "velocity": 0, "duration": 63}, {"note": 73, "velocity": 52, "duration": 69}, {"note": 77, "velocity": 53, "duration": 240}, {"note": 73, "velocity": 59, "duration": 241}, {"note": 70, "velocity": 58, "duration": 154}, {"note": 0, "velocity": 0, "duration": 86}, {"note": 77, "velocity": 60, "duration": 87}, {"note": 73, "velocity": 53, "duration": 87}, {"note": 70, "velocity": 51, "duration": 75}, {"note": 73, "velocity": 50, "duration": 62}, {"note": 73, "velocity": 54, "duration": 60}, {"note": 73, "velocity": 54, "duration": 64}, {"note": 73, "velocity": 54, "duration": 56}, {"note": 0, "velocity": 0, "duration": 64}, {"note": 73, "velocity": 58, "duration": 95}, {"note": 73, "velocity": 54, "duration": 56}, {"note": 0, "velocity": 0, "duration": 64}, {"note": 73, "velocity": 58, "duration": 95}, {"note": 80, "velocity": 60, "duration": 235}, {"note": 77, "velocity": 60, "duration": 197}, {"note": 75, "velocity": 60, "duration": 402}, {"note": 0, "velocity": 0, "duration": 318}, {"note": 73, "velocity": 55, "duration": 61}, {"note": 73, "velocity": 54, "duration": 69}, {"note": 73, "velocity": 55, "duration": 70}, {"note": 73, "velocity": 58, "duration": 81}, {"note": 80, "velocity": 54, "duration": 65}, {"note": 80, "velocity": 58, "duration": 64}, {"note": 80, "velocity": 57, "duration": 64}, {"note": 80, "velocity": 59, "duration": 72}, {"note": 75, "velocity": 54, "duration": 56}, {"note": 0, "velocity": 0, "duration": 64}, {"note": 75, "velocity": 59, "duration": 83}, {"note": 73, "velocity": 58, "duration": 104}, {"note": 0, "velocity": 0, "duration": 136}, {"note": 77, "velocity": 59, "duration": 100}, {"note": 75, "velocity": 53, "duration": 89}, {"note": 73, "velocity": 58, "duration": 85}, {"note": 75, "velocity": 60, "duration": 69}, {"note": 75, "velocity": 60, "duration": 61}, {"note": 75, "velocity": 59, "duration": 63}, {"note": 75, "velocity": 60, "duration": 61}, {"note": 75, "velocity": 62, "duration": 83}, {"note": 77, "velocity": 57, "duration": 61}, {"note": 78, "velocity": 53, "duration": 70}, {"note": 78, "velocity": 57, "duration": 254}, {"note": 77, "velocity": 51, "duration": 770}, {"note": 0, "velocity": 0, "duration": 190}, {"note": 73, "velocity": 58, "duration": 53}, {"note": 0, "velocity": 0, "duration": 67}, {"note": 73, "velocity": 53, "duration": 55}, {"note": 0, "velocity": 0, "duration": 65}, {"note": 73, "velocity": 56, "duration": 57}, {"note": 0, "velocity": 0, "duration": 63}, {"note": 73, "velocity": 53, "duration": 64}, {"note": 82, "velocity": 52, "duration": 57}, {"note": 0, "velocity": 0, "duration": 63}, {"note": 82, "velocity": 52, "duration": 69}, {"note": 84, "velocity": 53, "duration": 240}, {"note": 82, "velocity": 59, "duration": 120}, {"note": 77, "velocity": 59, "duration": 120}, {"note": 73, "velocity": 58, "duration": 154}, {"note": 0, "velocity": 0, "duration": 86}, {"note": 70, "velocity": 60, "duration": 87}, {"note": 73, "velocity": 53, "duration": 87}, {"note": 75, "velocity": 51, "duration": 75}, {"note": 77, "velocity": 44, "duration": 50}, {"note": 0, "velocity": 0, "duration": 70}, {"note": 73, "velocity": 59, "duration": 61}, {"note": 73, "velocity": 58, "duration": 496}, {"note": 0, "velocity": 0, "duration": 104}, {"note": 80, "velocity": 51, "duration": 82}, {"note": 80, "velocity": 59, "duration": 154}, {"note": 0, "velocity": 0, "duration": 86}, {"note": 77, "velocity": 58, "duration": 197}, {"note": 75, "velocity": 60, "duration": 240}, {"note": 75, "velocity": 58, "duration": 266}, {"note": 73, "velocity": 51, "duration": 960}, {"note": 0, "velocity": 0, "duration": 120}, {"note": 73, "velocity": 52, "duration": 72}, {"note": 73, "velocity": 56, "duration": 78}, {"note": 73, "velocity": 57, "duration": 80}, {"note": 73, "velocity": 58, "duration": 97}, {"note": 70, "velocity": 57, "duration": 78}, {"note": 73, "velocity": 52, "duration": 93}, {"note": 70, "velocity": 54, "duration": 85}, {"note": 73, "velocity": 59, "duration": 86}, {"note": 77, "velocity": 59, "duration": 84}, {"note": 77, "velocity": 60, "duration": 174}, {"note": 0, "velocity": 0, "duration": 186}, {"note": 75, "velocity": 64, "duration": 194}, {"note": 73, "velocity": 57, "duration": 76}, {"note": 75, "velocity": 60, "duration": 67}, {"note": 75, "velocity": 59, "duration": 58}, {"note": 0, "velocity": 0, "duration": 62}, {"note": 75, "velocity": 59, "duration": 64}, {"note": 75, "velocity": 59, "duration": 59}, {"note": 0, "velocity": 0, "duration": 61}, {"note": 75, "velocity": 58, "duration": 65}, {"note": 77, "velocity": 59, "duration": 80}, {"note": 75, "velocity": 63, "duration": 58}, {"note": 0, "velocity": 0, "duration": 62}, {"note": 68, "velocity": 54, "duration": 336}, {"note": 0, "velocity": 0, "duration": 864}, {"note": 73, "velocity": 54, "duration": 69}, {"note": 73, "velocity": 56, "duration": 81}, {"note": 73, "velocity": 56, "duration": 61}, {"note": 73, "velocity": 55, "duration": 80}, {"note": 70, "velocity": 58, "duration": 87}, {"note": 73, "velocity": 58, "duration": 80}, {"note": 70, "velocity": 54, "duration": 76}, {"note": 73, "velocity": 58, "duration": 94}, {"note": 80, "velocity": 45, "duration": 180}, {"note": 80, "velocity": 58, "duration": 149}, {"note": 0, "velocity": 0, "duration": 91}, {"note": 77, "velocity": 58, "duration": 105}, {"note": 75, "velocity": 58, "duration": 88}, {"note": 73, "velocity": 52, "duration": 85}, {"note": 75, "velocity": 58, "duration": 67}, {"note": 75, "velocity": 58, "duration": 59}, {"note": 0, "velocity": 0, "duration": 61}, {"note": 75, "velocity": 58, "duration": 83}, {"note": 73, "velocity": 47, "duration": 99}, {"note": 75, "velocity": 59, "duration": 95}, {"note": 80, "velocity": 55, "duration": 160}, {"note": 0, "velocity": 0, "duration": 80}, {"note": 77, "velocity": 55, "duration": 654}, {"note": 0, "velocity": 0, "duration": 546}, {"note": 75, "velocity": 57, "duration": 69}, {"note": 75, "velocity": 59, "duration": 58}, {"note": 0, "velocity": 0, "duration": 62}, {"note": 75, "velocity": 59, "duration": 59}, {"note": 0, "velocity": 0, "duration": 61}, {"note": 75, "velocity": 62, "duration": 178}, {"note": 0, "velocity": 0, "duration": 62}, {"note": 75, "velocity": 60, "duration": 56}, {"note": 0, "velocity": 0, "duration": 64}, {"note": 75, "velocity": 60, "duration": 53}, {"note": 0, "velocity": 0, "duration": 67}, {"note": 75, "velocity": 60, "duration": 61}, {"note": 75, "velocity": 60, "duration": 88}, {"note": 73, "velocity": 59, "duration": 72}, {"note": 77, "velocity": 61, "duration": 176}, {"note": 0, "velocity": 0, "duration": 64}, {"note": 75, "velocity": 62, "duration": 108}, {"note": 77, "velocity": 53, "duration": 104}, {"note": 75, "velocity": 59, "duration": 108}, {"note": 0, "velocity": 0, "duration": 132}, {"note": 70, "velocity": 49, "duration": 80}, {"note": 73, "velocity": 58, "duration": 84}, {"note": 70, "velocity": 54, "duration": 77}, {"note": 73, "velocity": 58, "duration": 113}, {"note": 70, "velocity": 52, "duration": 87}, {"note": 73, "velocity": 52, "duration": 101}, {"note": 77, "velocity": 56, "duration": 240}, {"note": 73, "velocity": 54, "duration": 360}, {"note": 0, "velocity": 0, "duration": 600}, {"note": 75, "velocity": 59, "duration": 69}, {"note": 75, "velocity": 59, "duration": 64}, {"note": 75, "velocity": 61, "duration": 61}, {"note": 75, "velocity": 59, "duration": 61}, {"note": 75, "velocity": 59, "duration": 175}, {"note": 0, "velocity": 0, "duration": 65}, {"note": 75, "velocity": 60, "duration": 62}, {"note": 75, "velocity": 59, "duration": 65}, {"note": 77, "velocity": 60, "duration": 168}, {"note": 0, "velocity": 0, "duration": 72}, {"note": 75, "velocity": 59, "duration": 166}, {"note": 0, "velocity": 0, "duration": 74}, {"note": 77, "velocity": 62, "duration": 88}, {"note": 75, "velocity": 58, "duration": 87}, {"note": 73, "velocity": 55, "duration": 72}, {"note": 75, "velocity": 53, "duration": 67}, {"note": 75, "velocity": 60, "duration": 59}, {"note": 0, "velocity": 0, "duration": 61}, {"note": 75, "velocity": 59, "duration": 61}, {"note": 75, "velocity": 57, "duration": 58}, {"note": 0, "velocity": 0, "duration": 62}, {"note": 75, "velocity": 60, "duration": 87}, {"note": 73, "velocity": 56, "duration": 69}, {"note": 75, "velocity": 59, "duration": 86}, {"note": 80, "velocity": 59, "duration": 185}, {"note": 75, "velocity": 60, "duration": 840}, {"note": 0, "velocity": 0, "duration": 120}, {"note": 73, "velocity": 55, "duration": 61}, {"note": 73, "velocity": 54, "duration": 69}, {"note": 73, "velocity": 55, "duration": 70}, {"note": 73, "velocity": 58, "duration": 81}, {"note": 80, "velocity": 54, "duration": 65}, {"note": 80, "velocity": 58, "duration": 64}, {"note": 80, "velocity": 57, "duration": 64}, {"note": 80, "velocity": 59, "duration": 72}, {"note": 75, "velocity": 54, "duration": 56}, {"note": 0, "velocity": 0, "duration": 64}, {"note": 75, "velocity": 59, "duration": 83}, {"note": 73, "velocity": 58, "duration": 104}, {"note": 0, "velocity": 0, "duration": 136}, {"note": 77, "velocity": 59, "duration": 100}, {"note": 75, "velocity": 53, "duration": 89}, {"note": 73, "velocity": 58, "duration": 85}, {"note": 75, "velocity": 60, "duration": 69}, {"note": 75, "velocity": 60, "duration": 61}, {"note": 75, "velocity": 59, "duration": 63}, {"note": 75, "velocity": 60, "duration": 61}, {"note": 75, "velocity": 62, "duration": 83}, {"note": 77, "velocity": 57, "duration": 61}, {"note": 78, "velocity": 53, "duration": 70}, {"note": 78, "velocity": 57, "duration": 254}, {"note": 77, "velocity": 51, "duration": 770}, {"note": 0, "velocity": 0, "duration": 190}, {"note": 73, "velocity": 58, "duration": 53}, {"note": 0, "velocity": 0, "duration": 67}, {"note": 73, "velocity": 53, "duration": 55}, {"note": 0, "velocity": 0, "duration": 65}, {"note": 73, "velocity": 56, "duration": 57}, {"note": 0, "velocity": 0, "duration": 63}, {"note": 73, "velocity": 53, "duration": 64}, {"note": 73, "velocity": 52, "duration": 57}, {"note": 0, "velocity": 0, "duration": 63}, {"note": 73, "velocity": 52, "duration": 69}, {"note": 77, "velocity": 53, "duration": 240}, {"note": 73, "velocity": 59, "duration": 241}, {"note": 70, "velocity": 58, "duration": 154}, {"note": 0, "velocity": 0, "duration": 86}, {"note": 77, "velocity": 60, "duration": 87}, {"note": 73, "velocity": 53, "duration": 87}, {"note": 70, "velocity": 51, "duration": 75}, {"note": 73, "velocity": 50, "duration": 62}, {"note": 73, "velocity": 54, "duration": 60}, {"note": 73, "velocity": 54, "duration": 64}, {"note": 73, "velocity": 54, "duration": 56}, {"note": 0, "velocity": 0, "duration": 64}, {"note": 73, "velocity": 58, "duration": 95}, {"note": 73, "velocity": 54, "duration": 56}, {"note": 0, "velocity": 0, "duration": 64}, {"note": 73, "velocity": 58, "duration": 95}, {"note": 80, "velocity": 60, "duration": 235}, {"note": 77, "velocity": 60, "duration": 197}, {"note": 75, "velocity": 60, "duration": 402}, {"note": 0, "velocity": 0, "duration": 318}, {"note": 73, "velocity": 55, "duration": 61}, {"note": 73, "velocity": 54, "duration": 69}, {"note": 73, "velocity": 55, "duration": 70}, {"note": 73, "velocity": 58, "duration": 81}, {"note": 80, "velocity": 54, "duration": 65}, {"note": 80, "velocity": 58, "duration": 64}, {"note": 80, "velocity": 57, "duration": 64}, {"note": 80, "velocity": 59, "duration": 72}, {"note": 75, "velocity": 54, "duration": 56}, {"note": 0, "velocity": 0, "duration": 64}, {"note": 75, "velocity": 59, "duration": 83}, {"note": 73, "velocity": 58, "duration": 104}, {"note": 0, "velocity": 0, "duration": 136}, {"note": 77, "velocity": 59, "duration": 100}, {"note": 75, "velocity": 53, "duration": 89}, {"note": 73, "velocity": 58, "duration": 85}, {"note": 75, "velocity": 60, "duration": 69}, {"note": 75, "velocity": 60, "duration": 61}, {"note": 75, "velocity": 59, "duration": 63}, {"note": 75, "velocity": 60, "duration": 61}, {"note": 75, "velocity": 62, "duration": 83}, {"note": 77, "velocity": 57, "duration": 61}, {"note": 78, "velocity": 53, "duration": 70}, {"note": 78, "velocity": 57, "duration": 254}, {"note": 77, "velocity": 51, "duration": 770}, {"note": 0, "velocity": 0, "duration": 190}, {"note": 73, "velocity": 58, "duration": 53}, {"note": 0, "velocity": 0, "duration": 67}, {"note": 73, "velocity": 53, "duration": 55}, {"note": 0, "velocity": 0, "duration": 65}, {"note": 73, "velocity": 56, "duration": 57}, {"note": 0, "velocity": 0, "duration": 63}, {"note": 73, "velocity": 53, "duration": 64}, {"note": 82, "velocity": 52, "duration": 57}, {"note": 0, "velocity": 0, "duration": 63}, {"note": 82, "velocity": 52, "duration": 69}, {"note": 84, "velocity": 53, "duration": 240}, {"note": 82, "velocity": 59, "duration": 120}, {"note": 77, "velocity": 59, "duration": 120}, {"note": 73, "velocity": 58, "duration": 154}, {"note": 0, "velocity": 0, "duration": 86}, {"note": 70, "velocity": 60, "duration": 87}, {"note": 73, "velocity": 53, "duration": 87}, {"note": 75, "velocity": 51, "duration": 75}, {"note": 77, "velocity": 44, "duration": 50}, {"note": 0, "velocity": 0, "duration": 70}, {"note": 73, "velocity": 59, "duration": 61}, {"note": 73, "velocity": 58, "duration": 496}, {"note": 0, "velocity": 0, "duration": 104}, {"note": 80, "velocity": 51, "duration": 82}, {"note": 80, "velocity": 59, "duration": 154}, {"note": 0, "velocity": 0, "duration": 86}, {"note": 77, "velocity": 58, "duration": 197}, {"note": 75, "velocity": 60, "duration": 240}, {"note": 75, "velocity": 58, "duration": 266}, {"note": 73, "velocity": 51, "duration": 960}, {"note": 0, "velocity": 0, "duration": 3000}, {"note": 73, "velocity": 58, "duration": 53}, {"note": 0, "velocity": 0, "duration": 67}, {"note": 73, "velocity": 53, "duration": 55}, {"note": 0, "velocity": 0, "duration": 65}, {"note": 73, "velocity": 56, "duration": 57}, {"note": 0, "velocity": 0, "duration": 63}, {"note": 73, "velocity": 53, "duration": 64}, {"note": 73, "velocity": 52, "duration": 57}, {"note": 0, "velocity": 0, "duration": 63}, {"note": 73, "velocity": 52, "duration": 69}, {"note": 77, "velocity": 53, "duration": 240}, {"note": 73, "velocity": 59, "duration": 241}, {"note": 70, "velocity": 58, "duration": 154}, {"note": 0, "velocity": 0, "duration": 86}, {"note": 77, "velocity": 60, "duration": 87}, {"note": 73, "velocity": 53, "duration": 87}, {"note": 70, "velocity": 51, "duration": 75}, {"note": 73, "velocity": 50, "duration": 62}, {"note": 73, "velocity": 54, "duration": 60}, {"note": 73, "velocity": 54, "duration": 64}, {"note": 73, "velocity": 54, "duration": 56}, {"note": 0, "velocity": 0, "duration": 64}, {"note": 73, "velocity": 58, "duration": 95}, {"note": 73, "velocity": 54, "duration": 56}, {"note": 0, "velocity": 0, "duration": 64}, {"note": 73, "velocity": 58, "duration": 95}, {"note": 80, "velocity": 60, "duration": 235}, {"note": 77, "velocity": 60, "duration": 197}, {"note": 75, "velocity": 60, "duration": 402}, {"note": 0, "velocity": 0, "duration": 318}, {"note": 73, "velocity": 55, "duration": 61}, {"note": 73, "velocity": 54, "duration": 69}, {"note": 73, "velocity": 55, "duration": 70}, {"note": 73, "velocity": 58, "duration": 81}, {"note": 80, "velocity": 54, "duration": 65}, {"note": 80, "velocity": 58, "duration": 64}, {"note": 80, "velocity": 57, "duration": 64}, {"note": 80, "velocity": 59, "duration": 72}, {"note": 75, "velocity": 54, "duration": 56}, {"note": 0, "velocity": 0, "duration": 64}, {"note": 75, "velocity": 59, "duration": 83}, {"note": 73, "velocity": 58, "duration": 104}, {"note": 0, "velocity": 0, "duration": 136}, {"note": 77, "velocity": 59, "duration": 100}, {"note": 75, "velocity": 53, "duration": 89}, {"note": 73, "velocity": 58, "duration": 85}, {"note": 75, "velocity": 60, "duration": 69}, {"note": 75, "velocity": 60, "duration": 61}, {"note": 75, "velocity": 59, "duration": 63}, {"note": 75, "velocity": 60, "duration": 61}, {"note": 75, "velocity": 62, "duration": 83}, {"note": 77, "velocity": 57, "duration": 61}, {"note": 78, "velocity": 53, "duration": 70}, {"note": 78, "velocity": 57, "duration": 254}, {"note": 77, "velocity": 51, "duration": 770}, {"note": 0, "velocity": 0, "duration": 190}, {"note": 73, "velocity": 58, "duration": 53}, {"note": 0, "velocity": 0, "duration": 67}, {"note": 73, "velocity": 53, "duration": 55}, {"note": 0, "velocity": 0, "duration": 65}, {"note": 73, "velocity": 56, "duration": 57}, {"note": 0, "velocity": 0, "duration": 63}, {"note": 73, "velocity": 53, "duration": 64}, {"note": 82, "velocity": 52, "duration": 57}, {"note": 0, "velocity": 0, "duration": 63}, {"note": 82, "velocity": 52, "duration": 69}, {"note": 84, "velocity": 53, "duration": 240}, {"note": 82, "velocity": 59, "duration": 120}, {"note": 77, "velocity": 59, "duration": 120}, {"note": 73, "velocity": 58, "duration": 154}, {"note": 0, "velocity": 0, "duration": 86}, {"note": 70, "velocity": 60, "duration": 87}, {"note": 73, "velocity": 53, "duration": 87}, {"note": 75, "velocity": 51, "duration": 75}, {"note": 77, "velocity": 44, "duration": 50}, {"note": 0, "velocity": 0, "duration": 70}, {"note": 73, "velocity": 59, "duration": 61}, {"note": 73, "velocity": 58, "duration": 496}, {"note": 0, "velocity": 0, "duration": 104}, {"note": 80, "velocity": 51, "duration": 82}, {"note": 80, "velocity": 59, "duration": 154}, {"note": 0, "velocity": 0, "duration": 86}, {"note": 77, "velocity": 58, "duration": 197}, {"note": 75, "velocity": 60, "duration": 240}, {"note": 75, "velocity": 58, "duration": 266}, {"note": 73, "velocity": 51, "duration": 960}]]