[[{"note": 63, "velocity": 84, "duration": 213}, {"note": 66, "velocity": 87, "duration": 172}, {"note": 0, "velocity": 0, "duration": 68}, {"note": 66, "velocity": 93, "duration": 533}, {"note": 0, "velocity": 0, "duration": 187}, {"note": 63, "velocity": 93, "duration": 188}, {"note": 68, "velocity": 93, "duration": 343}, {"note": 0, "velocity": 0, "duration": 137}, {"note": 66, "velocity": 87, "duration": 169}, {"note": 0, "velocity": 0, "duration": 71}, {"note": 66, "velocity": 89, "duration": 468}, {"note": 0, "velocity": 0, "duration": 492}, {"note": 63, "velocity": 94, "duration": 221}, {"note": 61, "velocity": 91, "duration": 471}, {"note": 59, "velocity": 90, "duration": 789}, {"note": 0, "velocity": 0, "duration": 171}, {"note": 61, "velocity": 93, "duration": 270}, {"note": 63, "velocity": 93, "duration": 1763}, {"note": 0, "velocity": 0, "duration": 877}, {"note": 64, "velocity": 86, "duration": 146}, {"note": 0, "velocity": 0, "duration": 94}, {"note": 64, "velocity": 93, "duration": 179}, {"note": 0, "velocity": 0, "duration": 61}, {"note": 64, "velocity": 97, "duration": 476}, {"note": 63, "velocity": 91, "duration": 158}, {"note": 0, "velocity": 0, "duration": 82}, {"note": 66, "velocity": 95, "duration": 599}, {"note": 0, "velocity": 0, "duration": 121}, {"note": 66, "velocity": 94, "duration": 380}, {"note": 0, "velocity": 0, "duration": 100}, {"note": 63, "velocity": 95, "duration": 478}, {"note": 61, "velocity": 89, "duration": 261}, {"note": 59, "velocity": 91, "duration": 399}, {"note": 0, "velocity": 0, "duration": 321}, {"note": 59, "velocity": 94, "duration": 284}, {"note": 56, "velocity": 85, "duration": 232}, {"note": 59, "velocity": 88, "duration": 274}, {"note": 61, "velocity": 86, "duration": 284}, {"note": 63, "velocity": 94, "duration": 536}, {"note": 61, "velocity": 93, "duration": 1799}, {"note": 0, "velocity": 0, "duration": 601}, {"note": 63, "velocity": 94, "duration": 222}, {"note": 66, "velocity": 87, "duration": 169}, {"note": 0, "velocity": 0, "duration": 71}, {"note": 66, "velocity": 90, "duration": 636}, {"note": 0, "velocity": 0, "duration": 84}, {"note": 63, "velocity": 94, "duration": 232}, {"note": 68, "velocity": 91, "duration": 379}, {"note": 0, "velocity": 0, "duration": 101}, {"note": 70, "velocity": 87, "duration": 230}, {"note": 68, "velocity": 86, "duration": 458}, {"note": 66, "velocity": 87, "duration": 480}, {"note": 63, "velocity": 92, "duration": 221}, {"note": 61, "velocity": 88, "duration": 499}, {"note": 59, "velocity": 89, "duration": 1174}, {"note": 66, "velocity": 85, "duration": 181}, {"note": 66, "velocity": 90, "duration": 495}, {"note": 63, "velocity": 89, "duration": 1294}, {"note": 0, "velocity": 0, "duration": 626}, {"note": 68, "velocity": 93, "duration": 242}, {"note": 66, "velocity": 88, "duration": 166}, {"note": 0, "velocity": 0, "duration": 74}, {"note": 66, "velocity": 95, "duration": 495}, {"note": 71, "velocity": 94, "duration": 363}, {"note": 0, "velocity": 0, "duration": 117}, {"note": 70, "velocity": 92, "duration": 399}, {"note": 0, "velocity": 0, "duration": 81}, {"note": 71, "velocity": 93, "duration": 181}, {"note": 73, "velocity": 95, "duration": 189}, {"note": 68, "velocity": 89, "duration": 470}, {"note": 71, "velocity": 93, "duration": 547}, {"note": 0, "velocity": 0, "duration": 413}, {"note": 71, "velocity": 92, "duration": 132}, {"note": 0, "velocity": 0, "duration": 108}, {"note": 71, "velocity": 93, "duration": 129}, {"note": 0, "velocity": 0, "duration": 111}, {"note": 71, "velocity": 94, "duration": 231}, {"note": 68, "velocity": 95, "duration": 226}, {"note": 71, "velocity": 95, "duration": 514}, {"note": 73, "velocity": 94, "duration": 1907}, {"note": 0, "velocity": 0, "duration": 2413}, {"note": 75, "velocity": 95, "duration": 207}, {"note": 78, "velocity": 93, "duration": 170}, {"note": 0, "velocity": 0, "duration": 70}, {"note": 78, "velocity": 94, "duration": 403}, {"note": 0, "velocity": 0, "duration": 77}, {"note": 75, "velocity": 94, "duration": 132}, {"note": 0, "velocity": 0, "duration": 108}, {"note": 75, "velocity": 89, "duration": 194}, {"note": 73, "velocity": 95, "duration": 373}, {"note": 0, "velocity": 0, "duration": 107}, {"note": 73, "velocity": 95, "duration": 117}, {"note": 0, "velocity": 0, "duration": 123}, {"note": 73, "velocity": 88, "duration": 184}, {"note": 75, "velocity": 95, "duration": 435}, {"note": 73, "velocity": 96, "duration": 288}, {"note": 71, "velocity": 92, "duration": 546}, {"note": 0, "velocity": 0, "duration": 174}, {"note": 71, "velocity": 89, "duration": 234}, {"note": 68, "velocity": 93, "duration": 295}, {"note": 71, "velocity": 94, "duration": 371}, {"note": 0, "velocity": 0, "duration": 109}, {"note": 73, "velocity": 94, "duration": 239}, {"note": 71, "velocity": 90, "duration": 157}, {"note": 0, "velocity": 0, "duration": 83}, {"note": 71, "velocity": 91, "duration": 480}, {"note": 66, "velocity": 88, "duration": 1344}, {"note": 0, "velocity": 0, "duration": 576}, {"note": 68, "velocity": 94, "duration": 196}, {"note": 71, "velocity": 91, "duration": 166}, {"note": 0, "velocity": 0, "duration": 74}, {"note": 71, "velocity": 93, "duration": 486}, {"note": 66, "velocity": 88, "duration": 241}, {"note": 75, "velocity": 94, "duration": 376}, {"note": 0, "velocity": 0, "duration": 104}, {"note": 75, "velocity": 96, "duration": 355}, {"note": 0, "velocity": 0, "duration": 125}, {"note": 75, "velocity": 94, "duration": 259}, {"note": 75, "velocity": 93, "duration": 19}, {"note": 0, "velocity": 0, "duration": 461}, {"note": 73, "velocity": 94, "duration": 205}, {"note": 71, "velocity": 82, "duration": 575}, {"note": 0, "velocity": 0, "duration": 145}, {"note": 71, "velocity": 93, "duration": 264}, {"note": 68, "velocity": 94, "duration": 215}, {"note": 71, "velocity": 94, "duration": 240}, {"note": 73, "velocity": 95, "duration": 282}, {"note": 75, "velocity": 98, "duration": 500}, {"note": 73, "velocity": 95, "duration": 1729}, {"note": 0, "velocity": 0, "duration": 671}, {"note": 75, "velocity": 95, "duration": 207}, {"note": 78, "velocity": 93, "duration": 170}, {"note": 0, "velocity": 0, "duration": 70}, {"note": 78, "velocity": 94, "duration": 403}, {"note": 0, "velocity": 0, "duration": 77}, {"note": 75, "velocity": 94, "duration": 132}, {"note": 0, "velocity": 0, "duration": 108}, {"note": 75, "velocity": 89, "duration": 194}, {"note": 73, "velocity": 95, "duration": 373}, {"note": 0, "velocity": 0, "duration": 107}, {"note": 73, "velocity": 95, "duration": 117}, {"note": 0, "velocity": 0, "duration": 123}, {"note": 73, "velocity": 88, "duration": 184}, {"note": 75, "velocity": 95, "duration": 435}, {"note": 73, "velocity": 96, "duration": 288}, {"note": 71, "velocity": 92, "duration": 546}, {"note": 0, "velocity": 0, "duration": 174}, {"note": 71, "velocity": 89, "duration": 234}, {"note": 68, "velocity": 93, "duration": 295}, {"note": 71, "velocity": 94, "duration": 371}, {"note": 0, "velocity": 0, "duration": 109}, {"note": 73, "velocity": 94, "duration": 239}, {"note": 71, "velocity": 90, "duration": 157}, {"note": 0, "velocity": 0, "duration": 83}, {"note": 71, "velocity": 91, "duration": 480}, {"note": 66, "velocity": 88, "duration": 1344}, {"note": 0, "velocity": 0, "duration": 576}, {"note": 68, "velocity": 94, "duration": 196}, {"note": 71, "velocity": 91, "duration": 166}, {"note": 0, "velocity": 0, "duration": 74}, {"note": 71, "velocity": 93, "duration": 486}, {"note": 66, "velocity": 88, "duration": 241}, {"note": 75, "velocity": 94, "duration": 376}, {"note": 0, "velocity": 0, "duration": 104}, {"note": 78, "velocity": 96, "duration": 355}, {"note": 0, "velocity": 0, "duration": 125}, {"note": 78, "velocity": 94, "duration": 259}, {"note": 75, "velocity": 93, "duration": 362}, {"note": 0, "velocity": 0, "duration": 118}, {"note": 73, "velocity": 94, "duration": 205}, {"note": 71, "velocity": 82, "duration": 575}, {"note": 0, "velocity": 0, "duration": 145}, {"note": 71, "velocity": 93, "duration": 264}, {"note": 68, "velocity": 94, "duration": 215}, {"note": 71, "velocity": 94, "duration": 240}, {"note": 73, "velocity": 95, "duration": 282}, {"note": 75, "velocity": 98, "duration": 500}, {"note": 71, "velocity": 95, "duration": 1729}, {"note": 0, "velocity": 0, "duration": 33311}, {"note": 63, "velocity": 84, "duration": 213}, {"note": 66, "velocity": 87, "duration": 172}, {"note": 0, "velocity": 0, "duration": 68}, {"note": 66, "velocity": 93, "duration": 533}, {"note": 0, "velocity": 0, "duration": 187}, {"note": 63, "velocity": 93, "duration": 188}, {"note": 68, "velocity": 93, "duration": 343}, {"note": 0, "velocity": 0, "duration": 137}, {"note": 66, "velocity": 87, "duration": 169}, {"note": 0, "velocity": 0, "duration": 71}, {"note": 66, "velocity": 89, "duration": 468}, {"note": 0, "velocity": 0, "duration": 492}, {"note": 63, "velocity": 94, "duration": 221}, {"note": 61, "velocity": 91, "duration": 471}, {"note": 59, "velocity": 90, "duration": 789}, {"note": 0, "velocity": 0, "duration": 171}, {"note": 61, "velocity": 93, "duration": 270}, {"note": 63, "velocity": 93, "duration": 1763}, {"note": 0, "velocity": 0, "duration": 877}, {"note": 64, "velocity": 86, "duration": 146}, {"note": 0, "velocity": 0, "duration": 94}, {"note": 64, "velocity": 93, "duration": 179}, {"note": 0, "velocity": 0, "duration": 61}, {"note": 64, "velocity": 97, "duration": 476}, {"note": 63, "velocity": 91, "duration": 158}, {"note": 0, "velocity": 0, "duration": 82}, {"note": 66, "velocity": 95, "duration": 599}, {"note": 0, "velocity": 0, "duration": 121}, {"note": 66, "velocity": 94, "duration": 380}, {"note": 0, "velocity": 0, "duration": 100}, {"note": 63, "velocity": 95, "duration": 478}, {"note": 61, "velocity": 89, "duration": 261}, {"note": 59, "velocity": 91, "duration": 399}, {"note": 0, "velocity": 0, "duration": 321}, {"note": 59, "velocity": 94, "duration": 284}, {"note": 56, "velocity": 85, "duration": 232}, {"note": 59, "velocity": 88, "duration": 274}, {"note": 61, "velocity": 86, "duration": 284}, {"note": 63, "velocity": 94, "duration": 536}, {"note": 61, "velocity": 93, "duration": 1799}, {"note": 0, "velocity": 0, "duration": 601}, {"note": 63, "velocity": 94, "duration": 222}, {"note": 66, "velocity": 87, "duration": 169}, {"note": 0, "velocity": 0, "duration": 71}, {"note": 66, "velocity": 90, "duration": 636}, {"note": 0, "velocity": 0, "duration": 84}, {"note": 63, "velocity": 94, "duration": 232}, {"note": 68, "velocity": 91, "duration": 379}, {"note": 0, "velocity": 0, "duration": 101}, {"note": 70, "velocity": 87, "duration": 230}, {"note": 68, "velocity": 86, "duration": 458}, {"note": 66, "velocity": 87, "duration": 480}, {"note": 63, "velocity": 92, "duration": 221}, {"note": 61, "velocity": 88, "duration": 499}, {"note": 59, "velocity": 89, "duration": 1174}, {"note": 66, "velocity": 85, "duration": 181}, {"note": 66, "velocity": 90, "duration": 495}, {"note": 63, "velocity": 89, "duration": 1294}, {"note": 0, "velocity": 0, "duration": 626}, {"note": 68, "velocity": 93, "duration": 242}, {"note": 66, "velocity": 88, "duration": 166}, {"note": 0, "velocity": 0, "duration": 74}, {"note": 66, "velocity": 95, "duration": 495}, {"note": 71, "velocity": 94, "duration": 363}, {"note": 0, "velocity": 0, "duration": 117}, {"note": 70, "velocity": 92, "duration": 399}, {"note": 0, "velocity": 0, "duration": 81}, {"note": 71, "velocity": 93, "duration": 181}, {"note": 73, "velocity": 95, "duration": 189}, {"note": 68, "velocity": 89, "duration": 470}, {"note": 71, "velocity": 93, "duration": 547}, {"note": 0, "velocity": 0, "duration": 413}, {"note": 71, "velocity": 92, "duration": 132}, {"note": 0, "velocity": 0, "duration": 108}, {"note": 71, "velocity": 93, "duration": 129}, {"note": 0, "velocity": 0, "duration": 111}, {"note": 71, "velocity": 94, "duration": 231}, {"note": 68, "velocity": 95, "duration": 226}, {"note": 71, "velocity": 95, "duration": 514}, {"note": 73, "velocity": 94, "duration": 1907}, {"note": 0, "velocity": 0, "duration": 2413}, {"note": 75, "velocity": 95, "duration": 207}, {"note": 78, "velocity": 93, "duration": 170}, {"note": 0, "velocity": 0, "duration": 70}, {"note": 78, "velocity": 94, "duration": 403}, {"note": 0, "velocity": 0, "duration": 77}, {"note": 75, "velocity": 94, "duration": 132}, {"note": 0, "velocity": 0, "duration": 108}, {"note": 75, "velocity": 89, "duration": 194}, {"note": 73, "velocity": 95, "duration": 373}, {"note": 0, "velocity": 0, "duration": 107}, {"note": 73, "velocity": 95, "duration": 117}, {"note": 0, "velocity": 0, "duration": 123}, {"note": 73, "velocity": 88, "duration": 184}, {"note": 75, "velocity": 95, "duration": 435}, {"note": 73, "velocity": 96, "duration": 288}, {"note": 71, "velocity": 92, "duration": 546}, {"note": 0, "velocity": 0, "duration": 174}, {"note": 71, "velocity": 89, "duration": 234}, {"note": 68, "velocity": 93, "duration": 295}, {"note": 71, "velocity": 94, "duration": 371}, {"note": 0, "velocity": 0, "duration": 109}, {"note": 73, "velocity": 94, "duration": 239}, {"note": 71, "velocity": 90, "duration": 157}, {"note": 0, "velocity": 0, "duration": 83}, {"note": 71, "velocity": 91, "duration": 480}, {"note": 66, "velocity": 88, "duration": 1344}, {"note": 0, "velocity": 0, "duration": 576}, {"note": 68, "velocity": 94, "duration": 196}, {"note": 71, "velocity": 91, "duration": 166}, {"note": 0, "velocity": 0, "duration": 74}, {"note": 71, "velocity": 93, "duration": 486}, {"note": 66, "velocity": 88, "duration": 241}, {"note": 75, "velocity": 94, "duration": 376}, {"note": 0, "velocity": 0, "duration": 104}, {"note": 75, "velocity": 96, "duration": 355}, {"note": 0, "velocity": 0, "duration": 125}, {"note": 75, "velocity": 94, "duration": 259}, {"note": 75, "velocity": 93, "duration": 19}, {"note": 0, "velocity": 0, "duration": 461}, {"note": 73, "velocity": 94, "duration": 205}, {"note": 71, "velocity": 82, "duration": 575}, {"note": 0, "velocity": 0, "duration": 145}, {"note": 71, "velocity": 93, "duration": 264}, {"note": 68, "velocity": 94, "duration": 215}, {"note": 71, "velocity": 94, "duration": 240}, {"note": 73, "velocity": 95, "duration": 282}, {"note": 75, "velocity": 98, "duration": 500}, {"note": 73, "velocity": 95, "duration": 1729}, {"note": 0, "velocity": 0, "duration": 671}, {"note": 75, "velocity": 95, "duration": 207}, {"note": 78, "velocity": 93, "duration": 170}, {"note": 0, "velocity": 0, "duration": 70}, {"note": 78, "velocity": 94, "duration": 403}, {"note": 0, "velocity": 0, "duration": 77}, {"note": 75, "velocity": 94, "duration": 132}, {"note": 0, "velocity": 0, "duration": 108}, {"note": 75, "velocity": 89, "duration": 194}, {"note": 73, "velocity": 95, "duration": 373}, {"note": 0, "velocity": 0, "duration": 107}, {"note": 73, "velocity": 95, "duration": 117}, {"note": 0, "velocity": 0, "duration": 123}, {"note": 73, "velocity": 88, "duration": 184}, {"note": 75, "velocity": 95, "duration": 435}, {"note": 73, "velocity": 96, "duration": 288}, {"note": 71, "velocity": 92, "duration": 546}, {"note": 0, "velocity": 0, "duration": 174}, {"note": 71, "velocity": 89, "duration": 234}, {"note": 68, "velocity": 93, "duration": 295}, {"note": 71, "velocity": 94, "duration": 371}, {"note": 0, "velocity": 0, "duration": 109}, {"note": 73, "velocity": 94, "duration": 239}, {"note": 71, "velocity": 90, "duration": 157}, {"note": 0, "velocity": 0, "duration": 83}, {"note": 71, "velocity": 91, "duration": 480}, {"note": 66, "velocity": 88, "duration": 1344}, {"note": 0, "velocity": 0, "duration": 576}, {"note": 68, "velocity": 94, "duration": 196}, {"note": 71, "velocity": 91, "duration": 166}, {"note": 0, "velocity": 0, "duration": 74}, {"note": 71, "velocity": 93, "duration": 486}, {"note": 66, "velocity": 88, "duration": 241}, {"note": 75, "velocity": 94, "duration": 376}, {"note": 0, "velocity": 0, "duration": 104}, {"note": 78, "velocity": 96, "duration": 355}, {"note": 0, "velocity": 0, "duration": 125}, {"note": 78, "velocity": 94, "duration": 259}, {"note": 75, "velocity": 93, "duration": 362}, {"note": 0, "velocity": 0, "duration": 118}, {"note": 73, "velocity": 94, "duration": 205}, {"note": 71, "velocity": 82, "duration": 575}, {"note": 0, "velocity": 0, "duration": 145}, {"note": 71, "velocity": 93, "duration": 264}, {"note": 68, "velocity": 94, "duration": 215}, {"note": 71, "velocity": 94, "duration": 240}, {"note": 73, "velocity": 95, "duration": 282}, {"note": 75, "velocity": 98, "duration": 500}, {"note": 71, "velocity": 95, "duration": 1729}, {"note": 0, "velocity": 0, "duration": 2600}, {"note": 68, "velocity": 87, "duration": 208}, {"note": 71, "velocity": 88, "duration": 178}, {"note": 0, "velocity": 0, "duration": 90}, {"note": 71, "velocity": 90, "duration": 502}, {"note": 66, "velocity": 86, "duration": 231}, {"note": 75, "velocity": 94, "duration": 406}, {"note": 0, "velocity": 0, "duration": 74}, {"note": 78, "velocity": 94, "duration": 322}, {"note": 0, "velocity": 0, "duration": 133}, {"note": 78, "velocity": 88, "duration": 165}, {"note": 0, "velocity": 0, "duration": 71}, {"note": 75, "velocity": 90, "duration": 460}, {"note": 73, "velocity": 89, "duration": 260}, {"note": 71, "velocity": 85, "duration": 576}, {"note": 0, "velocity": 0, "duration": 105}, {"note": 71, "velocity": 88, "duration": 377}, {"note": 68, "velocity": 84, "duration": 349}, {"note": 71, "velocity": 84, "duration": 466}, {"note": 73, "velocity": 92, "duration": 504}, {"note": 75, "velocity": 89, "duration": 1014}, {"note": 73, "velocity": 93, "duration": 430}, {"note": 71, "velocity": 79, "duration": 3608}]]