[[{"note": 75, "velocity": 83, "duration": 236}, {"note": 71, "velocity": 83, "duration": 185}, {"note": 71, "velocity": 82, "duration": 231}, {"note": 66, "velocity": 81, "duration": 170}, {"note": 0, "velocity": 0, "duration": 70}, {"note": 68, "velocity": 83, "duration": 184}, {"note": 68, "velocity": 82, "duration": 217}, {"note": 76, "velocity": 86, "duration": 176}, {"note": 0, "velocity": 0, "duration": 64}, {"note": 75, "velocity": 83, "duration": 208}, {"note": 73, "velocity": 91, "duration": 169}, {"note": 0, "velocity": 0, "duration": 71}, {"note": 73, "velocity": 88, "duration": 205}, {"note": 73, "velocity": 87, "duration": 120}, {"note": 73, "velocity": 87, "duration": 240}, {"note": 71, "velocity": 84, "duration": 120}, {"note": 75, "velocity": 84, "duration": 960}, {"note": 75, "velocity": 87, "duration": 208}, {"note": 71, "velocity": 86, "duration": 166}, {"note": 0, "velocity": 0, "duration": 74}, {"note": 71, "velocity": 83, "duration": 235}, {"note": 66, "velocity": 77, "duration": 206}, {"note": 68, "velocity": 83, "duration": 199}, {"note": 68, "velocity": 83, "duration": 222}, {"note": 73, "velocity": 86, "duration": 196}, {"note": 71, "velocity": 82, "duration": 219}, {"note": 70, "velocity": 83, "duration": 187}, {"note": 71, "velocity": 83, "duration": 188}, {"note": 73, "velocity": 84, "duration": 164}, {"note": 78, "velocity": 82, "duration": 375}, {"note": 75, "velocity": 82, "duration": 767}, {"note": 0, "velocity": 0, "duration": 193}, {"note": 78, "velocity": 84, "duration": 181}, {"note": 78, "velocity": 79, "duration": 156}, {"note": 0, "velocity": 0, "duration": 84}, {"note": 78, "velocity": 82, "duration": 183}, {"note": 75, "velocity": 84, "duration": 171}, {"note": 0, "velocity": 0, "duration": 69}, {"note": 75, "velocity": 86, "duration": 203}, {"note": 76, "velocity": 78, "duration": 76}, {"note": 76, "velocity": 82, "duration": 282}, {"note": 0, "velocity": 0, "duration": 198}, {"note": 75, "velocity": 83, "duration": 109}, {"note": 73, "velocity": 86, "duration": 166}, {"note": 0, "velocity": 0, "duration": 74}, {"note": 73, "velocity": 89, "duration": 184}, {"note": 73, "velocity": 89, "duration": 246}, {"note": 71, "velocity": 82, "duration": 127}, {"note": 75, "velocity": 81, "duration": 1080}, {"note": 75, "velocity": 84, "duration": 237}, {"note": 71, "velocity": 83, "duration": 163}, {"note": 0, "velocity": 0, "duration": 77}, {"note": 71, "velocity": 83, "duration": 229}, {"note": 66, "velocity": 83, "duration": 228}, {"note": 68, "velocity": 81, "duration": 186}, {"note": 68, "velocity": 81, "duration": 231}, {"note": 73, "velocity": 88, "duration": 196}, {"note": 71, "velocity": 83, "duration": 198}, {"note": 70, "velocity": 83, "duration": 173}, {"note": 0, "velocity": 0, "duration": 67}, {"note": 71, "velocity": 83, "duration": 188}, {"note": 73, "velocity": 87, "duration": 237}, {"note": 70, "velocity": 82, "duration": 132}, {"note": 71, "velocity": 83, "duration": 840}, {"note": 0, "velocity": 0, "duration": 7920}, {"note": 75, "velocity": 83, "duration": 236}, {"note": 71, "velocity": 83, "duration": 185}, {"note": 71, "velocity": 82, "duration": 231}, {"note": 66, "velocity": 81, "duration": 170}, {"note": 0, "velocity": 0, "duration": 70}, {"note": 68, "velocity": 83, "duration": 184}, {"note": 68, "velocity": 82, "duration": 217}, {"note": 76, "velocity": 86, "duration": 176}, {"note": 0, "velocity": 0, "duration": 64}, {"note": 75, "velocity": 83, "duration": 208}, {"note": 73, "velocity": 91, "duration": 169}, {"note": 0, "velocity": 0, "duration": 71}, {"note": 73, "velocity": 88, "duration": 205}, {"note": 73, "velocity": 87, "duration": 120}, {"note": 73, "velocity": 87, "duration": 240}, {"note": 71, "velocity": 84, "duration": 120}, {"note": 75, "velocity": 84, "duration": 960}, {"note": 75, "velocity": 87, "duration": 208}, {"note": 71, "velocity": 86, "duration": 166}, {"note": 0, "velocity": 0, "duration": 74}, {"note": 71, "velocity": 83, "duration": 235}, {"note": 66, "velocity": 77, "duration": 206}, {"note": 68, "velocity": 83, "duration": 199}, {"note": 68, "velocity": 83, "duration": 222}, {"note": 73, "velocity": 86, "duration": 196}, {"note": 71, "velocity": 82, "duration": 219}, {"note": 70, "velocity": 83, "duration": 187}, {"note": 71, "velocity": 83, "duration": 188}, {"note": 73, "velocity": 84, "duration": 164}, {"note": 78, "velocity": 82, "duration": 375}, {"note": 75, "velocity": 82, "duration": 767}, {"note": 0, "velocity": 0, "duration": 193}, {"note": 78, "velocity": 84, "duration": 181}, {"note": 78, "velocity": 79, "duration": 156}, {"note": 0, "velocity": 0, "duration": 84}, {"note": 78, "velocity": 82, "duration": 183}, {"note": 75, "velocity": 84, "duration": 171}, {"note": 0, "velocity": 0, "duration": 69}, {"note": 75, "velocity": 86, "duration": 203}, {"note": 76, "velocity": 78, "duration": 76}, {"note": 76, "velocity": 82, "duration": 282}, {"note": 0, "velocity": 0, "duration": 198}, {"note": 75, "velocity": 83, "duration": 109}, {"note": 73, "velocity": 86, "duration": 166}, {"note": 0, "velocity": 0, "duration": 74}, {"note": 73, "velocity": 89, "duration": 184}, {"note": 73, "velocity": 89, "duration": 246}, {"note": 71, "velocity": 82, "duration": 127}, {"note": 75, "velocity": 81, "duration": 960}, {"note": 0, "velocity": 0, "duration": 120}, {"note": 75, "velocity": 84, "duration": 237}, {"note": 71, "velocity": 83, "duration": 163}, {"note": 0, "velocity": 0, "duration": 77}, {"note": 71, "velocity": 83, "duration": 229}, {"note": 66, "velocity": 83, "duration": 228}, {"note": 68, "velocity": 81, "duration": 186}, {"note": 68, "velocity": 81, "duration": 231}, {"note": 73, "velocity": 88, "duration": 196}, {"note": 71, "velocity": 83, "duration": 198}, {"note": 70, "velocity": 83, "duration": 173}, {"note": 0, "velocity": 0, "duration": 67}, {"note": 71, "velocity": 83, "duration": 188}, {"note": 73, "velocity": 87, "duration": 237}, {"note": 70, "velocity": 82, "duration": 132}, {"note": 71, "velocity": 83, "duration": 840}, {"note": 0, "velocity": 0, "duration": 240}, {"note": 78, "velocity": 91, "duration": 172}, {"note": 0, "velocity": 0, "duration": 68}, {"note": 78, "velocity": 86, "duration": 170}, {"note": 0, "velocity": 0, "duration": 70}, {"note": 78, "velocity": 89, "duration": 153}, {"note": 0, "velocity": 0, "duration": 87}, {"note": 78, "velocity": 91, "duration": 213}, {"note": 83, "velocity": 88, "duration": 179}, {"note": 0, "velocity": 0, "duration": 61}, {"note": 82, "velocity": 84, "duration": 211}, {"note": 80, "velocity": 89, "duration": 223}, {"note": 78, "velocity": 86, "duration": 135}, {"note": 0, "velocity": 0, "duration": 105}, {"note": 78, "velocity": 83, "duration": 240}, {"note": 73, "velocity": 96, "duration": 180}, {"note": 75, "velocity": 89, "duration": 214}, {"note": 76, "velocity": 83, "duration": 106}, {"note": 75, "velocity": 96, "duration": 925}, {"note": 0, "velocity": 0, "duration": 155}, {"note": 75, "velocity": 86, "duration": 194}, {"note": 71, "velocity": 84, "duration": 188}, {"note": 71, "velocity": 84, "duration": 185}, {"note": 71, "velocity": 87, "duration": 211}, {"note": 70, "velocity": 93, "duration": 188}, {"note": 71, "velocity": 85, "duration": 194}, {"note": 73, "velocity": 84, "duration": 217}, {"note": 71, "velocity": 84, "duration": 223}, {"note": 70, "velocity": 86, "duration": 194}, {"note": 71, "velocity": 89, "duration": 189}, {"note": 73, "velocity": 89, "duration": 76}, {"note": 78, "velocity": 84, "duration": 293}, {"note": 0, "velocity": 0, "duration": 67}, {"note": 78, "velocity": 85, "duration": 794}, {"note": 0, "velocity": 0, "duration": 166}, {"note": 78, "velocity": 91, "duration": 172}, {"note": 0, "velocity": 0, "duration": 68}, {"note": 78, "velocity": 86, "duration": 170}, {"note": 0, "velocity": 0, "duration": 70}, {"note": 78, "velocity": 89, "duration": 153}, {"note": 0, "velocity": 0, "duration": 87}, {"note": 78, "velocity": 91, "duration": 213}, {"note": 83, "velocity": 88, "duration": 179}, {"note": 0, "velocity": 0, "duration": 61}, {"note": 82, "velocity": 84, "duration": 211}, {"note": 80, "velocity": 89, "duration": 223}, {"note": 78, "velocity": 86, "duration": 135}, {"note": 0, "velocity": 0, "duration": 105}, {"note": 78, "velocity": 83, "duration": 240}, {"note": 73, "velocity": 96, "duration": 180}, {"note": 75, "velocity": 89, "duration": 214}, {"note": 76, "velocity": 83, "duration": 106}, {"note": 75, "velocity": 96, "duration": 925}, {"note": 0, "velocity": 0, "duration": 155}, {"note": 75, "velocity": 86, "duration": 194}, {"note": 71, "velocity": 84, "duration": 188}, {"note": 71, "velocity": 84, "duration": 185}, {"note": 66, "velocity": 87, "duration": 211}, {"note": 68, "velocity": 93, "duration": 188}, {"note": 68, "velocity": 85, "duration": 194}, {"note": 73, "velocity": 84, "duration": 217}, {"note": 71, "velocity": 84, "duration": 223}, {"note": 70, "velocity": 86, "duration": 194}, {"note": 71, "velocity": 89, "duration": 189}, {"note": 73, "velocity": 89, "duration": 76}, {"note": 70, "velocity": 84, "duration": 293}, {"note": 0, "velocity": 0, "duration": 67}, {"note": 71, "velocity": 85, "duration": 794}, {"note": 0, "velocity": 0, "duration": 166}, {"note": 78, "velocity": 91, "duration": 172}, {"note": 0, "velocity": 0, "duration": 68}, {"note": 78, "velocity": 86, "duration": 170}, {"note": 0, "velocity": 0, "duration": 70}, {"note": 78, "velocity": 89, "duration": 153}, {"note": 0, "velocity": 0, "duration": 87}, {"note": 78, "velocity": 91, "duration": 213}, {"note": 83, "velocity": 88, "duration": 179}, {"note": 0, "velocity": 0, "duration": 61}, {"note": 82, "velocity": 84, "duration": 211}, {"note": 80, "velocity": 89, "duration": 223}, {"note": 78, "velocity": 86, "duration": 135}, {"note": 0, "velocity": 0, "duration": 105}, {"note": 78, "velocity": 83, "duration": 240}, {"note": 73, "velocity": 96, "duration": 180}, {"note": 75, "velocity": 89, "duration": 214}, {"note": 76, "velocity": 83, "duration": 106}, {"note": 75, "velocity": 96, "duration": 925}, {"note": 0, "velocity": 0, "duration": 155}, {"note": 75, "velocity": 86, "duration": 194}, {"note": 71, "velocity": 84, "duration": 188}, {"note": 71, "velocity": 84, "duration": 185}, {"note": 71, "velocity": 87, "duration": 211}, {"note": 70, "velocity": 93, "duration": 188}, {"note": 71, "velocity": 85, "duration": 194}, {"note": 73, "velocity": 84, "duration": 217}, {"note": 71, "velocity": 84, "duration": 223}, {"note": 70, "velocity": 86, "duration": 194}, {"note": 71, "velocity": 89, "duration": 189}, {"note": 73, "velocity": 89, "duration": 120}, {"note": 78, "velocity": 84, "duration": 293}, {"note": 0, "velocity": 0, "duration": 67}, {"note": 78, "velocity": 85, "duration": 794}, {"note": 0, "velocity": 0, "duration": 166}, {"note": 78, "velocity": 91, "duration": 172}, {"note": 0, "velocity": 0, "duration": 68}, {"note": 78, "velocity": 86, "duration": 170}, {"note": 0, "velocity": 0, "duration": 70}, {"note": 78, "velocity": 89, "duration": 153}, {"note": 0, "velocity": 0, "duration": 87}, {"note": 78, "velocity": 91, "duration": 213}, {"note": 83, "velocity": 88, "duration": 179}, {"note": 0, "velocity": 0, "duration": 61}, {"note": 82, "velocity": 84, "duration": 211}, {"note": 80, "velocity": 89, "duration": 223}, {"note": 78, "velocity": 86, "duration": 135}, {"note": 0, "velocity": 0, "duration": 105}, {"note": 78, "velocity": 83, "duration": 240}, {"note": 73, "velocity": 96, "duration": 180}, {"note": 75, "velocity": 89, "duration": 214}, {"note": 76, "velocity": 83, "duration": 106}, {"note": 75, "velocity": 96, "duration": 925}, {"note": 0, "velocity": 0, "duration": 155}, {"note": 75, "velocity": 86, "duration": 194}, {"note": 71, "velocity": 84, "duration": 188}, {"note": 71, "velocity": 84, "duration": 185}, {"note": 66, "velocity": 87, "duration": 211}, {"note": 68, "velocity": 93, "duration": 188}, {"note": 68, "velocity": 85, "duration": 194}, {"note": 73, "velocity": 84, "duration": 217}, {"note": 71, "velocity": 84, "duration": 223}, {"note": 70, "velocity": 86, "duration": 194}, {"note": 71, "velocity": 89, "duration": 189}, {"note": 73, "velocity": 89, "duration": 76}, {"note": 70, "velocity": 84, "duration": 293}, {"note": 0, "velocity": 0, "duration": 67}, {"note": 71, "velocity": 85, "duration": 794}, {"note": 0, "velocity": 0, "duration": 166}, {"note": 75, "velocity": 86, "duration": 194}, {"note": 71, "velocity": 84, "duration": 188}, {"note": 71, "velocity": 84, "duration": 185}, {"note": 66, "velocity": 87, "duration": 211}, {"note": 68, "velocity": 93, "duration": 188}, {"note": 68, "velocity": 85, "duration": 194}, {"note": 73, "velocity": 84, "duration": 217}, {"note": 71, "velocity": 84, "duration": 223}, {"note": 70, "velocity": 86, "duration": 194}, {"note": 71, "velocity": 89, "duration": 189}, {"note": 73, "velocity": 89, "duration": 76}, {"note": 71, "velocity": 84, "duration": 293}, {"note": 0, "velocity": 0, "duration": 67}, {"note": 75, "velocity": 85, "duration": 794}, {"note": 0, "velocity": 0, "duration": 166}, {"note": 75, "velocity": 86, "duration": 194}, {"note": 71, "velocity": 84, "duration": 188}, {"note": 71, "velocity": 84, "duration": 185}, {"note": 66, "velocity": 87, "duration": 211}, {"note": 68, "velocity": 93, "duration": 188}, {"note": 68, "velocity": 85, "duration": 194}, {"note": 73, "velocity": 84, "duration": 217}, {"note": 71, "velocity": 84, "duration": 223}, {"note": 70, "velocity": 86, "duration": 194}, {"note": 71, "velocity": 89, "duration": 189}, {"note": 73, "velocity": 89, "duration": 76}, {"note": 70, "velocity": 84, "duration": 293}, {"note": 0, "velocity": 0, "duration": 67}, {"note": 71, "velocity": 85, "duration": 794}]]