[[{"note": 73, "velocity": 82, "duration": 138}, {"note": 76, "velocity": 76, "duration": 137}, {"note": 80, "velocity": 75, "duration": 169}, {"note": 0, "velocity": 0, "duration": 81}, {"note": 78, "velocity": 81, "duration": 170}, {"note": 0, "velocity": 0, "duration": 73}, {"note": 75, "velocity": 76, "duration": 125}, {"note": 71, "velocity": 69, "duration": 561}, {"note": 0, "velocity": 0, "duration": 407}, {"note": 68, "velocity": 76, "duration": 136}, {"note": 71, "velocity": 75, "duration": 138}, {"note": 75, "velocity": 80, "duration": 288}, {"note": 0, "velocity": 0, "duration": 61}, {"note": 75, "velocity": 81, "duration": 208}, {"note": 73, "velocity": 70, "duration": 133}, {"note": 76, "velocity": 71, "duration": 607}, {"note": 0, "velocity": 0, "duration": 333}, {"note": 66, "velocity": 71, "duration": 124}, {"note": 69, "velocity": 78, "duration": 130}, {"note": 73, "velocity": 81, "duration": 265}, {"note": 0, "velocity": 0, "duration": 113}, {"note": 73, "velocity": 80, "duration": 204}, {"note": 71, "velocity": 70, "duration": 85}, {"note": 71, "velocity": 76, "duration": 397}, {"note": 66, "velocity": 68, "duration": 117}, {"note": 69, "velocity": 70, "duration": 137}, {"note": 68, "velocity": 75, "duration": 697}, {"note": 68, "velocity": 71, "duration": 133}, {"note": 69, "velocity": 72, "duration": 121}, {"note": 71, "velocity": 80, "duration": 926}, {"note": 0, "velocity": 0, "duration": 418}, {"note": 73, "velocity": 84, "duration": 74}, {"note": 76, "velocity": 70, "duration": 117}, {"note": 80, "velocity": 73, "duration": 299}, {"note": 0, "velocity": 0, "duration": 78}, {"note": 78, "velocity": 76, "duration": 151}, {"note": 75, "velocity": 73, "duration": 127}, {"note": 71, "velocity": 72, "duration": 550}, {"note": 0, "velocity": 0, "duration": 432}, {"note": 68, "velocity": 78, "duration": 108}, {"note": 71, "velocity": 78, "duration": 138}, {"note": 75, "velocity": 77, "duration": 254}, {"note": 0, "velocity": 0, "duration": 87}, {"note": 75, "velocity": 80, "duration": 246}, {"note": 73, "velocity": 72, "duration": 131}, {"note": 76, "velocity": 72, "duration": 476}, {"note": 0, "velocity": 0, "duration": 474}, {"note": 69, "velocity": 69, "duration": 81}, {"note": 69, "velocity": 81, "duration": 85}, {"note": 73, "velocity": 81, "duration": 278}, {"note": 0, "velocity": 0, "duration": 117}, {"note": 73, "velocity": 82, "duration": 178}, {"note": 71, "velocity": 71, "duration": 95}, {"note": 71, "velocity": 75, "duration": 269}, {"note": 0, "velocity": 0, "duration": 93}, {"note": 66, "velocity": 74, "duration": 114}, {"note": 69, "velocity": 72, "duration": 134}, {"note": 68, "velocity": 76, "duration": 595}, {"note": 0, "velocity": 0, "duration": 120}, {"note": 68, "velocity": 73, "duration": 125}, {"note": 69, "velocity": 71, "duration": 125}, {"note": 71, "velocity": 75, "duration": 929}, {"note": 0, "velocity": 0, "duration": 450}, {"note": 73, "velocity": 80, "duration": 134}, {"note": 76, "velocity": 79, "duration": 136}, {"note": 80, "velocity": 80, "duration": 266}, {"note": 0, "velocity": 0, "duration": 85}, {"note": 80, "velocity": 72, "duration": 216}, {"note": 78, "velocity": 73, "duration": 90}, {"note": 78, "velocity": 79, "duration": 523}, {"note": 0, "velocity": 0, "duration": 447}, {"note": 71, "velocity": 79, "duration": 90}, {"note": 71, "velocity": 78, "duration": 100}, {"note": 75, "velocity": 75, "duration": 303}, {"note": 75, "velocity": 80, "duration": 233}, {"note": 73, "velocity": 75, "duration": 80}, {"note": 76, "velocity": 81, "duration": 562}, {"note": 0, "velocity": 0, "duration": 355}, {"note": 69, "velocity": 74, "duration": 83}, {"note": 69, "velocity": 73, "duration": 97}, {"note": 73, "velocity": 81, "duration": 291}, {"note": 0, "velocity": 0, "duration": 80}, {"note": 73, "velocity": 82, "duration": 166}, {"note": 71, "velocity": 65, "duration": 86}, {"note": 71, "velocity": 75, "duration": 242}, {"note": 0, "velocity": 0, "duration": 118}, {"note": 66, "velocity": 76, "duration": 84}, {"note": 69, "velocity": 80, "duration": 125}, {"note": 68, "velocity": 75, "duration": 615}, {"note": 0, "velocity": 0, "duration": 111}, {"note": 68, "velocity": 76, "duration": 108}, {"note": 69, "velocity": 74, "duration": 142}, {"note": 71, "velocity": 75, "duration": 624}, {"note": 0, "velocity": 0, "duration": 669}, {"note": 73, "velocity": 82, "duration": 136}, {"note": 76, "velocity": 71, "duration": 130}, {"note": 80, "velocity": 75, "duration": 291}, {"note": 0, "velocity": 0, "duration": 85}, {"note": 80, "velocity": 78, "duration": 215}, {"note": 78, "velocity": 74, "duration": 66}, {"note": 78, "velocity": 81, "duration": 477}, {"note": 0, "velocity": 0, "duration": 468}, {"note": 71, "velocity": 72, "duration": 102}, {"note": 71, "velocity": 74, "duration": 88}, {"note": 75, "velocity": 80, "duration": 282}, {"note": 0, "velocity": 0, "duration": 61}, {"note": 75, "velocity": 78, "duration": 214}, {"note": 73, "velocity": 75, "duration": 83}, {"note": 76, "velocity": 81, "duration": 480}, {"note": 0, "velocity": 0, "duration": 466}, {"note": 69, "velocity": 72, "duration": 87}, {"note": 69, "velocity": 72, "duration": 117}, {"note": 73, "velocity": 82, "duration": 297}, {"note": 0, "velocity": 0, "duration": 68}, {"note": 73, "velocity": 85, "duration": 225}, {"note": 71, "velocity": 73, "duration": 77}, {"note": 71, "velocity": 76, "duration": 284}, {"note": 0, "velocity": 0, "duration": 87}, {"note": 71, "velocity": 82, "duration": 88}, {"note": 80, "velocity": 78, "duration": 75}, {"note": 0, "velocity": 0, "duration": 62}, {"note": 80, "velocity": 82, "duration": 373}, {"note": 0, "velocity": 0, "duration": 99}, {"note": 80, "velocity": 73, "duration": 243}, {"note": 78, "velocity": 71, "duration": 133}, {"note": 80, "velocity": 76, "duration": 1057}, {"note": 0, "velocity": 0, "duration": 969}, {"note": 76, "velocity": 67, "duration": 498}, {"note": 78, "velocity": 78, "duration": 349}, {"note": 0, "velocity": 0, "duration": 131}, {"note": 80, "velocity": 78, "duration": 108}, {"note": 78, "velocity": 72, "duration": 98}, {"note": 80, "velocity": 75, "duration": 112}, {"note": 78, "velocity": 75, "duration": 151}, {"note": 80, "velocity": 79, "duration": 136}, {"note": 85, "velocity": 80, "duration": 109}, {"note": 85, "velocity": 73, "duration": 120}, {"note": 85, "velocity": 73, "duration": 120}, {"note": 85, "velocity": 73, "duration": 120}, {"note": 80, "velocity": 71, "duration": 63}, {"note": 80, "velocity": 76, "duration": 60}, {"note": 80, "velocity": 81, "duration": 66}, {"note": 80, "velocity": 81, "duration": 91}, {"note": 78, "velocity": 80, "duration": 65}, {"note": 78, "velocity": 80, "duration": 103}, {"note": 76, "velocity": 78, "duration": 85}, {"note": 78, "velocity": 76, "duration": 86}, {"note": 76, "velocity": 76, "duration": 66}, {"note": 78, "velocity": 78, "duration": 86}, {"note": 76, "velocity": 76, "duration": 75}, {"note": 78, "velocity": 81, "duration": 70}, {"note": 83, "velocity": 80, "duration": 70}, {"note": 83, "velocity": 82, "duration": 61}, {"note": 83, "velocity": 77, "duration": 73}, {"note": 83, "velocity": 81, "duration": 69}, {"note": 78, "velocity": 63, "duration": 58}, {"note": 0, "velocity": 0, "duration": 62}, {"note": 78, "velocity": 77, "duration": 60}, {"note": 78, "velocity": 80, "duration": 60}, {"note": 78, "velocity": 81, "duration": 120}, {"note": 76, "velocity": 75, "duration": 73}, {"note": 76, "velocity": 78, "duration": 94}, {"note": 73, "velocity": 84, "duration": 86}, {"note": 76, "velocity": 80, "duration": 194}, {"note": 76, "velocity": 80, "duration": 226}, {"note": 0, "velocity": 0, "duration": 974}, {"note": 75, "velocity": 81, "duration": 93}, {"note": 76, "velocity": 81, "duration": 222}, {"note": 71, "velocity": 82, "duration": 850}, {"note": 0, "velocity": 0, "duration": 230}, {"note": 80, "velocity": 77, "duration": 438}, {"note": 78, "velocity": 81, "duration": 428}, {"note": 80, "velocity": 78, "duration": 94}, {"note": 78, "velocity": 77, "duration": 71}, {"note": 80, "velocity": 81, "duration": 101}, {"note": 78, "velocity": 80, "duration": 126}, {"note": 80, "velocity": 81, "duration": 74}, {"note": 85, "velocity": 80, "duration": 62}, {"note": 85, "velocity": 80, "duration": 79}, {"note": 85, "velocity": 80, "duration": 61}, {"note": 85, "velocity": 84, "duration": 58}, {"note": 0, "velocity": 0, "duration": 62}, {"note": 80, "velocity": 80, "duration": 57}, {"note": 0, "velocity": 0, "duration": 63}, {"note": 80, "velocity": 78, "duration": 54}, {"note": 0, "velocity": 0, "duration": 66}, {"note": 80, "velocity": 80, "duration": 63}, {"note": 80, "velocity": 80, "duration": 88}, {"note": 78, "velocity": 75, "duration": 61}, {"note": 78, "velocity": 80, "duration": 101}, {"note": 76, "velocity": 76, "duration": 87}, {"note": 78, "velocity": 71, "duration": 93}, {"note": 76, "velocity": 76, "duration": 66}, {"note": 78, "velocity": 80, "duration": 103}, {"note": 76, "velocity": 75, "duration": 66}, {"note": 78, "velocity": 80, "duration": 65}, {"note": 83, "velocity": 80, "duration": 72}, {"note": 83, "velocity": 81, "duration": 57}, {"note": 0, "velocity": 0, "duration": 63}, {"note": 83, "velocity": 82, "duration": 63}, {"note": 83, "velocity": 83, "duration": 93}, {"note": 78, "velocity": 77, "duration": 42}, {"note": 0, "velocity": 0, "duration": 78}, {"note": 78, "velocity": 81, "duration": 62}, {"note": 78, "velocity": 78, "duration": 65}, {"note": 78, "velocity": 80, "duration": 78}, {"note": 76, "velocity": 76, "duration": 66}, {"note": 76, "velocity": 77, "duration": 80}, {"note": 73, "velocity": 82, "duration": 101}, {"note": 76, "velocity": 75, "duration": 588}, {"note": 0, "velocity": 0, "duration": 252}, {"note": 75, "velocity": 80, "duration": 93}, {"note": 76, "velocity": 80, "duration": 628}, {"note": 0, "velocity": 0, "duration": 92}, {"note": 81, "velocity": 84, "duration": 201}, {"note": 80, "velocity": 76, "duration": 1146}, {"note": 0, "velocity": 0, "duration": 4974}, {"note": 73, "velocity": 80, "duration": 134}, {"note": 76, "velocity": 79, "duration": 137}, {"note": 80, "velocity": 80, "duration": 267}, {"note": 0, "velocity": 0, "duration": 93}, {"note": 80, "velocity": 72, "duration": 217}, {"note": 78, "velocity": 73, "duration": 90}, {"note": 78, "velocity": 79, "duration": 524}, {"note": 0, "velocity": 0, "duration": 436}, {"note": 71, "velocity": 79, "duration": 91}, {"note": 71, "velocity": 78, "duration": 101}, {"note": 75, "velocity": 75, "duration": 303}, {"note": 75, "velocity": 80, "duration": 234}, {"note": 73, "velocity": 75, "duration": 80}, {"note": 76, "velocity": 81, "duration": 563}, {"note": 0, "velocity": 0, "duration": 397}, {"note": 69, "velocity": 74, "duration": 83}, {"note": 69, "velocity": 73, "duration": 98}, {"note": 73, "velocity": 81, "duration": 292}, {"note": 0, "velocity": 0, "duration": 68}, {"note": 73, "velocity": 82, "duration": 166}, {"note": 0, "velocity": 0, "duration": 74}, {"note": 71, "velocity": 65, "duration": 86}, {"note": 71, "velocity": 75, "duration": 242}, {"note": 0, "velocity": 0, "duration": 118}, {"note": 66, "velocity": 76, "duration": 84}, {"note": 69, "velocity": 80, "duration": 125}, {"note": 68, "velocity": 75, "duration": 616}, {"note": 0, "velocity": 0, "duration": 104}, {"note": 68, "velocity": 76, "duration": 108}, {"note": 69, "velocity": 74, "duration": 142}, {"note": 71, "velocity": 75, "duration": 625}, {"note": 0, "velocity": 0, "duration": 695}, {"note": 73, "velocity": 82, "duration": 137}, {"note": 76, "velocity": 71, "duration": 131}, {"note": 80, "velocity": 75, "duration": 292}, {"note": 0, "velocity": 0, "duration": 68}, {"note": 80, "velocity": 78, "duration": 215}, {"note": 78, "velocity": 74, "duration": 67}, {"note": 78, "velocity": 81, "duration": 477}, {"note": 0, "velocity": 0, "duration": 483}, {"note": 71, "velocity": 72, "duration": 102}, {"note": 71, "velocity": 74, "duration": 88}, {"note": 75, "velocity": 80, "duration": 283}, {"note": 0, "velocity": 0, "duration": 77}, {"note": 75, "velocity": 78, "duration": 215}, {"note": 73, "velocity": 75, "duration": 83}, {"note": 76, "velocity": 81, "duration": 480}, {"note": 0, "velocity": 0, "duration": 480}, {"note": 69, "velocity": 72, "duration": 88}, {"note": 69, "velocity": 72, "duration": 118}, {"note": 73, "velocity": 82, "duration": 297}, {"note": 0, "velocity": 0, "duration": 63}, {"note": 73, "velocity": 85, "duration": 226}, {"note": 71, "velocity": 73, "duration": 78}, {"note": 71, "velocity": 76, "duration": 284}, {"note": 0, "velocity": 0, "duration": 76}, {"note": 71, "velocity": 82, "duration": 88}, {"note": 80, "velocity": 78, "duration": 76}, {"note": 80, "velocity": 82, "duration": 373}, {"note": 0, "velocity": 0, "duration": 107}, {"note": 80, "velocity": 73, "duration": 243}, {"note": 78, "velocity": 71, "duration": 133}, {"note": 80, "velocity": 76, "duration": 600}, {"note": 76, "velocity": 67, "duration": 240}, {"note": 78, "velocity": 67, "duration": 240}, {"note": 80, "velocity": 78, "duration": 108}, {"note": 78, "velocity": 72, "duration": 98}, {"note": 80, "velocity": 75, "duration": 112}, {"note": 78, "velocity": 75, "duration": 151}, {"note": 80, "velocity": 79, "duration": 136}, {"note": 85, "velocity": 80, "duration": 109}, {"note": 85, "velocity": 73, "duration": 120}, {"note": 85, "velocity": 73, "duration": 120}, {"note": 85, "velocity": 73, "duration": 120}, {"note": 80, "velocity": 71, "duration": 63}, {"note": 80, "velocity": 76, "duration": 60}, {"note": 80, "velocity": 81, "duration": 66}, {"note": 80, "velocity": 81, "duration": 91}, {"note": 78, "velocity": 80, "duration": 65}, {"note": 78, "velocity": 80, "duration": 103}, {"note": 76, "velocity": 78, "duration": 85}, {"note": 78, "velocity": 76, "duration": 86}, {"note": 76, "velocity": 76, "duration": 66}, {"note": 78, "velocity": 78, "duration": 86}, {"note": 76, "velocity": 76, "duration": 75}, {"note": 78, "velocity": 81, "duration": 70}, {"note": 83, "velocity": 80, "duration": 70}, {"note": 83, "velocity": 82, "duration": 61}, {"note": 83, "velocity": 77, "duration": 73}, {"note": 83, "velocity": 81, "duration": 69}, {"note": 78, "velocity": 63, "duration": 58}, {"note": 0, "velocity": 0, "duration": 62}, {"note": 78, "velocity": 77, "duration": 60}, {"note": 78, "velocity": 80, "duration": 60}, {"note": 78, "velocity": 81, "duration": 120}, {"note": 76, "velocity": 75, "duration": 73}, {"note": 76, "velocity": 78, "duration": 94}, {"note": 73, "velocity": 84, "duration": 86}, {"note": 76, "velocity": 80, "duration": 194}, {"note": 76, "velocity": 80, "duration": 226}, {"note": 0, "velocity": 0, "duration": 974}, {"note": 75, "velocity": 81, "duration": 93}, {"note": 76, "velocity": 81, "duration": 222}, {"note": 71, "velocity": 82, "duration": 850}, {"note": 0, "velocity": 0, "duration": 230}, {"note": 80, "velocity": 77, "duration": 438}, {"note": 78, "velocity": 81, "duration": 428}, {"note": 80, "velocity": 78, "duration": 94}, {"note": 78, "velocity": 77, "duration": 71}, {"note": 80, "velocity": 81, "duration": 101}, {"note": 78, "velocity": 80, "duration": 126}, {"note": 80, "velocity": 81, "duration": 74}, {"note": 85, "velocity": 80, "duration": 62}, {"note": 85, "velocity": 80, "duration": 79}, {"note": 85, "velocity": 80, "duration": 61}, {"note": 85, "velocity": 84, "duration": 58}, {"note": 0, "velocity": 0, "duration": 62}, {"note": 80, "velocity": 80, "duration": 57}, {"note": 0, "velocity": 0, "duration": 63}, {"note": 80, "velocity": 78, "duration": 54}, {"note": 0, "velocity": 0, "duration": 66}, {"note": 80, "velocity": 80, "duration": 63}, {"note": 80, "velocity": 80, "duration": 88}, {"note": 78, "velocity": 75, "duration": 61}, {"note": 78, "velocity": 80, "duration": 101}, {"note": 76, "velocity": 76, "duration": 87}, {"note": 78, "velocity": 71, "duration": 93}, {"note": 76, "velocity": 76, "duration": 66}, {"note": 78, "velocity": 80, "duration": 103}, {"note": 76, "velocity": 75, "duration": 66}, {"note": 78, "velocity": 80, "duration": 65}, {"note": 83, "velocity": 80, "duration": 72}, {"note": 83, "velocity": 81, "duration": 57}, {"note": 0, "velocity": 0, "duration": 63}, {"note": 83, "velocity": 82, "duration": 63}, {"note": 83, "velocity": 83, "duration": 93}, {"note": 78, "velocity": 77, "duration": 42}, {"note": 0, "velocity": 0, "duration": 78}, {"note": 78, "velocity": 81, "duration": 62}, {"note": 78, "velocity": 78, "duration": 65}, {"note": 78, "velocity": 80, "duration": 78}, {"note": 76, "velocity": 76, "duration": 66}, {"note": 76, "velocity": 77, "duration": 80}, {"note": 73, "velocity": 82, "duration": 101}, {"note": 76, "velocity": 75, "duration": 588}, {"note": 0, "velocity": 0, "duration": 252}, {"note": 75, "velocity": 80, "duration": 93}, {"note": 76, "velocity": 80, "duration": 628}, {"note": 0, "velocity": 0, "duration": 92}, {"note": 81, "velocity": 84, "duration": 201}, {"note": 80, "velocity": 76, "duration": 1146}, {"note": 0, "velocity": 0, "duration": 7974}, {"note": 76, "velocity": 67, "duration": 240}, {"note": 78, "velocity": 67, "duration": 240}, {"note": 80, "velocity": 78, "duration": 108}, {"note": 78, "velocity": 72, "duration": 98}, {"note": 80, "velocity": 75, "duration": 112}, {"note": 78, "velocity": 75, "duration": 151}, {"note": 80, "velocity": 79, "duration": 136}, {"note": 85, "velocity": 80, "duration": 109}, {"note": 85, "velocity": 73, "duration": 120}, {"note": 85, "velocity": 73, "duration": 120}, {"note": 85, "velocity": 73, "duration": 120}, {"note": 80, "velocity": 71, "duration": 63}, {"note": 80, "velocity": 76, "duration": 60}, {"note": 80, "velocity": 81, "duration": 66}, {"note": 80, "velocity": 81, "duration": 91}, {"note": 78, "velocity": 80, "duration": 65}, {"note": 78, "velocity": 80, "duration": 103}, {"note": 76, "velocity": 78, "duration": 85}, {"note": 78, "velocity": 76, "duration": 86}, {"note": 76, "velocity": 76, "duration": 66}, {"note": 78, "velocity": 78, "duration": 86}, {"note": 76, "velocity": 76, "duration": 75}, {"note": 78, "velocity": 81, "duration": 70}, {"note": 83, "velocity": 80, "duration": 70}, {"note": 83, "velocity": 82, "duration": 61}, {"note": 83, "velocity": 77, "duration": 73}, {"note": 83, "velocity": 81, "duration": 69}, {"note": 78, "velocity": 63, "duration": 58}, {"note": 0, "velocity": 0, "duration": 62}, {"note": 78, "velocity": 77, "duration": 60}, {"note": 78, "velocity": 80, "duration": 60}, {"note": 78, "velocity": 81, "duration": 120}, {"note": 76, "velocity": 75, "duration": 73}, {"note": 76, "velocity": 78, "duration": 94}, {"note": 73, "velocity": 84, "duration": 86}, {"note": 76, "velocity": 80, "duration": 194}, {"note": 76, "velocity": 80, "duration": 226}, {"note": 0, "velocity": 0, "duration": 974}, {"note": 75, "velocity": 81, "duration": 93}, {"note": 76, "velocity": 81, "duration": 222}, {"note": 71, "velocity": 82, "duration": 850}, {"note": 0, "velocity": 0, "duration": 230}, {"note": 80, "velocity": 77, "duration": 438}, {"note": 78, "velocity": 81, "duration": 428}, {"note": 80, "velocity": 78, "duration": 94}, {"note": 78, "velocity": 77, "duration": 71}, {"note": 80, "velocity": 81, "duration": 101}, {"note": 78, "velocity": 80, "duration": 126}, {"note": 80, "velocity": 81, "duration": 74}, {"note": 85, "velocity": 80, "duration": 62}, {"note": 85, "velocity": 80, "duration": 79}, {"note": 85, "velocity": 80, "duration": 61}, {"note": 85, "velocity": 84, "duration": 58}, {"note": 0, "velocity": 0, "duration": 62}, {"note": 80, "velocity": 80, "duration": 57}, {"note": 0, "velocity": 0, "duration": 63}, {"note": 80, "velocity": 78, "duration": 54}, {"note": 0, "velocity": 0, "duration": 66}, {"note": 80, "velocity": 80, "duration": 63}, {"note": 80, "velocity": 80, "duration": 88}, {"note": 78, "velocity": 75, "duration": 61}, {"note": 78, "velocity": 80, "duration": 101}, {"note": 76, "velocity": 76, "duration": 87}, {"note": 78, "velocity": 71, "duration": 93}, {"note": 76, "velocity": 76, "duration": 66}, {"note": 78, "velocity": 80, "duration": 103}, {"note": 76, "velocity": 75, "duration": 66}, {"note": 78, "velocity": 80, "duration": 65}, {"note": 83, "velocity": 80, "duration": 72}, {"note": 83, "velocity": 81, "duration": 57}, {"note": 0, "velocity": 0, "duration": 63}, {"note": 83, "velocity": 82, "duration": 63}, {"note": 83, "velocity": 83, "duration": 93}, {"note": 78, "velocity": 77, "duration": 42}, {"note": 0, "velocity": 0, "duration": 78}, {"note": 78, "velocity": 81, "duration": 62}, {"note": 78, "velocity": 78, "duration": 65}, {"note": 78, "velocity": 80, "duration": 78}, {"note": 76, "velocity": 76, "duration": 66}, {"note": 76, "velocity": 77, "duration": 80}, {"note": 73, "velocity": 82, "duration": 101}, {"note": 76, "velocity": 75, "duration": 588}, {"note": 0, "velocity": 0, "duration": 252}, {"note": 75, "velocity": 80, "duration": 93}, {"note": 76, "velocity": 80, "duration": 628}, {"note": 0, "velocity": 0, "duration": 92}, {"note": 81, "velocity": 84, "duration": 201}, {"note": 80, "velocity": 76, "duration": 1146}, {"note": 0, "velocity": 0, "duration": 1508}, {"note": 73, "velocity": 82, "duration": 154}, {"note": 76, "velocity": 75, "duration": 150}, {"note": 80, "velocity": 71, "duration": 330}, {"note": 0, "velocity": 0, "duration": 138}, {"note": 78, "velocity": 75, "duration": 165}, {"note": 0, "velocity": 0, "duration": 91}, {"note": 75, "velocity": 70, "duration": 132}, {"note": 71, "velocity": 59, "duration": 503}, {"note": 0, "velocity": 0, "duration": 204}, {"note": 68, "velocity": 66, "duration": 115}, {"note": 71, "velocity": 72, "duration": 146}, {"note": 75, "velocity": 75, "duration": 277}, {"note": 0, "velocity": 0, "duration": 61}, {"note": 75, "velocity": 77, "duration": 248}, {"note": 73, "velocity": 76, "duration": 159}, {"note": 76, "velocity": 70, "duration": 756}, {"note": 0, "velocity": 0, "duration": 203}, {"note": 69, "velocity": 68, "duration": 90}, {"note": 69, "velocity": 72, "duration": 101}, {"note": 73, "velocity": 80, "duration": 307}, {"note": 0, "velocity": 0, "duration": 95}, {"note": 73, "velocity": 80, "duration": 182}, {"note": 0, "velocity": 0, "duration": 61}, {"note": 71, "velocity": 72, "duration": 80}, {"note": 71, "velocity": 74, "duration": 352}, {"note": 0, "velocity": 0, "duration": 265}, {"note": 66, "velocity": 78, "duration": 128}, {"note": 69, "velocity": 69, "duration": 175}, {"note": 68, "velocity": 72, "duration": 397}, {"note": 0, "velocity": 0, "duration": 673}, {"note": 68, "velocity": 67, "duration": 297}, {"note": 66, "velocity": 43, "duration": 465}]]