[[{"note": 69, "velocity": 86, "duration": 168}, {"note": 0, "velocity": 0, "duration": 72}, {"note": 69, "velocity": 87, "duration": 192}, {"note": 69, "velocity": 84, "duration": 69}, {"note": 69, "velocity": 84, "duration": 318}, {"note": 67, "velocity": 76, "duration": 175}, {"note": 0, "velocity": 0, "duration": 65}, {"note": 67, "velocity": 73, "duration": 242}, {"note": 66, "velocity": 81, "duration": 261}, {"note": 64, "velocity": 85, "duration": 1155}, {"note": 0, "velocity": 0, "duration": 1005}, {"note": 69, "velocity": 85, "duration": 178}, {"note": 0, "velocity": 0, "duration": 62}, {"note": 69, "velocity": 82, "duration": 178}, {"note": 0, "velocity": 0, "duration": 62}, {"note": 69, "velocity": 81, "duration": 80}, {"note": 69, "velocity": 85, "duration": 285}, {"note": 0, "velocity": 0, "duration": 75}, {"note": 69, "velocity": 86, "duration": 177}, {"note": 0, "velocity": 0, "duration": 63}, {"note": 73, "velocity": 86, "duration": 205}, {"note": 74, "velocity": 87, "duration": 102}, {"note": 69, "velocity": 87, "duration": 1128}, {"note": 0, "velocity": 0, "duration": 792}, {"note": 69, "velocity": 81, "duration": 137}, {"note": 67, "velocity": 84, "duration": 174}, {"note": 0, "velocity": 0, "duration": 66}, {"note": 67, "velocity": 80, "duration": 111}, {"note": 69, "velocity": 85, "duration": 222}, {"note": 74, "velocity": 89, "duration": 302}, {"note": 73, "velocity": 81, "duration": 191}, {"note": 71, "velocity": 85, "duration": 103}, {"note": 69, "velocity": 81, "duration": 177}, {"note": 0, "velocity": 0, "duration": 63}, {"note": 67, "velocity": 82, "duration": 272}, {"note": 69, "velocity": 85, "duration": 635}, {"note": 0, "velocity": 0, "duration": 445}, {"note": 74, "velocity": 87, "duration": 859}, {"note": 0, "velocity": 0, "duration": 341}, {"note": 71, "velocity": 81, "duration": 184}, {"note": 71, "velocity": 83, "duration": 193}, {"note": 69, "velocity": 81, "duration": 93}, {"note": 69, "velocity": 86, "duration": 189}, {"note": 67, "velocity": 84, "duration": 213}, {"note": 67, "velocity": 86, "duration": 198}, {"note": 66, "velocity": 80, "duration": 235}, {"note": 64, "velocity": 87, "duration": 1506}, {"note": 0, "velocity": 0, "duration": 774}, {"note": 69, "velocity": 86, "duration": 168}, {"note": 0, "velocity": 0, "duration": 72}, {"note": 69, "velocity": 87, "duration": 192}, {"note": 69, "velocity": 84, "duration": 69}, {"note": 69, "velocity": 84, "duration": 318}, {"note": 67, "velocity": 76, "duration": 175}, {"note": 0, "velocity": 0, "duration": 65}, {"note": 67, "velocity": 73, "duration": 242}, {"note": 66, "velocity": 81, "duration": 261}, {"note": 64, "velocity": 85, "duration": 1155}, {"note": 0, "velocity": 0, "duration": 645}, {"note": 69, "velocity": 85, "duration": 114}, {"note": 74, "velocity": 90, "duration": 225}, {"note": 73, "velocity": 86, "duration": 86}, {"note": 74, "velocity": 87, "duration": 305}, {"note": 73, "velocity": 81, "duration": 94}, {"note": 74, "velocity": 85, "duration": 297}, {"note": 0, "velocity": 0, "duration": 63}, {"note": 76, "velocity": 88, "duration": 105}, {"note": 78, "velocity": 86, "duration": 404}, {"note": 74, "velocity": 87, "duration": 123}, {"note": 76, "velocity": 81, "duration": 1123}, {"note": 0, "velocity": 0, "duration": 797}, {"note": 69, "velocity": 84, "duration": 118}, {"note": 71, "velocity": 86, "duration": 177}, {"note": 0, "velocity": 0, "duration": 63}, {"note": 71, "velocity": 86, "duration": 88}, {"note": 73, "velocity": 84, "duration": 179}, {"note": 0, "velocity": 0, "duration": 61}, {"note": 74, "velocity": 87, "duration": 215}, {"note": 76, "velocity": 87, "duration": 297}, {"note": 0, "velocity": 0, "duration": 63}, {"note": 74, "velocity": 88, "duration": 89}, {"note": 73, "velocity": 84, "duration": 229}, {"note": 71, "velocity": 87, "duration": 327}, {"note": 69, "velocity": 85, "duration": 711}, {"note": 76, "velocity": 81, "duration": 222}, {"note": 74, "velocity": 87, "duration": 859}, {"note": 0, "velocity": 0, "duration": 101}, {"note": 71, "velocity": 88, "duration": 180}, {"note": 74, "velocity": 85, "duration": 74}, {"note": 74, "velocity": 87, "duration": 211}, {"note": 71, "velocity": 88, "duration": 286}, {"note": 0, "velocity": 0, "duration": 74}, {"note": 74, "velocity": 94, "duration": 199}, {"note": 76, "velocity": 84, "duration": 75}, {"note": 76, "velocity": 86, "duration": 231}, {"note": 74, "velocity": 91, "duration": 312}, {"note": 76, "velocity": 90, "duration": 1044}, {"note": 0, "velocity": 0, "duration": 156}, {"note": 78, "velocity": 83, "duration": 165}, {"note": 0, "velocity": 0, "duration": 75}, {"note": 78, "velocity": 81, "duration": 196}, {"note": 74, "velocity": 86, "duration": 181}, {"note": 71, "velocity": 86, "duration": 193}, {"note": 71, "velocity": 87, "duration": 205}, {"note": 78, "velocity": 86, "duration": 210}, {"note": 74, "velocity": 89, "duration": 177}, {"note": 0, "velocity": 0, "duration": 63}, {"note": 76, "velocity": 87, "duration": 609}, {"note": 0, "velocity": 0, "duration": 351}, {"note": 69, "velocity": 86, "duration": 168}, {"note": 0, "velocity": 0, "duration": 72}, {"note": 69, "velocity": 86, "duration": 176}, {"note": 0, "velocity": 0, "duration": 64}, {"note": 76, "velocity": 87, "duration": 208}, {"note": 73, "velocity": 85, "duration": 182}, {"note": 74, "velocity": 87, "duration": 516}, {"note": 0, "velocity": 0, "duration": 444}, {"note": 71, "velocity": 86, "duration": 171}, {"note": 0, "velocity": 0, "duration": 69}, {"note": 71, "velocity": 86, "duration": 199}, {"note": 78, "velocity": 86, "duration": 199}, {"note": 74, "velocity": 91, "duration": 205}, {"note": 73, "velocity": 85, "duration": 207}, {"note": 71, "velocity": 85, "duration": 80}, {"note": 71, "velocity": 85, "duration": 231}, {"note": 69, "velocity": 86, "duration": 298}, {"note": 0, "velocity": 0, "duration": 62}, {"note": 79, "velocity": 87, "duration": 161}, {"note": 0, "velocity": 0, "duration": 79}, {"note": 78, "velocity": 92, "duration": 66}, {"note": 78, "velocity": 89, "duration": 191}, {"note": 76, "velocity": 86, "duration": 192}, {"note": 78, "velocity": 89, "duration": 292}, {"note": 0, "velocity": 0, "duration": 68}, {"note": 78, "velocity": 86, "duration": 204}, {"note": 78, "velocity": 87, "duration": 154}, {"note": 0, "velocity": 0, "duration": 86}, {"note": 79, "velocity": 86, "duration": 153}, {"note": 0, "velocity": 0, "duration": 87}, {"note": 81, "velocity": 86, "duration": 171}, {"note": 0, "velocity": 0, "duration": 69}, {"note": 79, "velocity": 86, "duration": 172}, {"note": 0, "velocity": 0, "duration": 68}, {"note": 78, "velocity": 91, "duration": 219}, {"note": 74, "velocity": 89, "duration": 183}, {"note": 76, "velocity": 84, "duration": 541}, {"note": 0, "velocity": 0, "duration": 299}, {"note": 73, "velocity": 83, "duration": 108}, {"note": 81, "velocity": 86, "duration": 230}, {"note": 79, "velocity": 87, "duration": 186}, {"note": 78, "velocity": 89, "duration": 202}, {"note": 76, "velocity": 87, "duration": 214}, {"note": 74, "velocity": 92, "duration": 490}, {"note": 0, "velocity": 0, "duration": 230}, {"note": 76, "velocity": 91, "duration": 110}, {"note": 78, "velocity": 86, "duration": 77}, {"note": 78, "velocity": 84, "duration": 210}, {"note": 79, "velocity": 85, "duration": 238}, {"note": 71, "velocity": 88, "duration": 362}, {"note": 74, "velocity": 89, "duration": 63}, {"note": 74, "velocity": 89, "duration": 188}, {"note": 73, "velocity": 90, "duration": 231}, {"note": 71, "velocity": 89, "duration": 254}, {"note": 73, "velocity": 87, "duration": 250}, {"note": 76, "velocity": 89, "duration": 348}, {"note": 74, "velocity": 87, "duration": 1558}, {"note": 0, "velocity": 0, "duration": 6002}, {"note": 69, "velocity": 86, "duration": 168}, {"note": 0, "velocity": 0, "duration": 72}, {"note": 69, "velocity": 87, "duration": 192}, {"note": 69, "velocity": 84, "duration": 69}, {"note": 69, "velocity": 84, "duration": 318}, {"note": 67, "velocity": 76, "duration": 175}, {"note": 0, "velocity": 0, "duration": 65}, {"note": 67, "velocity": 73, "duration": 242}, {"note": 66, "velocity": 81, "duration": 261}, {"note": 64, "velocity": 85, "duration": 1155}, {"note": 0, "velocity": 0, "duration": 645}, {"note": 69, "velocity": 85, "duration": 114}, {"note": 74, "velocity": 90, "duration": 225}, {"note": 73, "velocity": 86, "duration": 86}, {"note": 74, "velocity": 87, "duration": 305}, {"note": 73, "velocity": 81, "duration": 94}, {"note": 74, "velocity": 85, "duration": 297}, {"note": 0, "velocity": 0, "duration": 63}, {"note": 76, "velocity": 88, "duration": 105}, {"note": 78, "velocity": 86, "duration": 404}, {"note": 74, "velocity": 87, "duration": 123}, {"note": 76, "velocity": 81, "duration": 1123}, {"note": 0, "velocity": 0, "duration": 797}, {"note": 69, "velocity": 84, "duration": 118}, {"note": 71, "velocity": 86, "duration": 177}, {"note": 0, "velocity": 0, "duration": 63}, {"note": 71, "velocity": 86, "duration": 88}, {"note": 73, "velocity": 84, "duration": 179}, {"note": 0, "velocity": 0, "duration": 61}, {"note": 74, "velocity": 87, "duration": 215}, {"note": 76, "velocity": 87, "duration": 297}, {"note": 0, "velocity": 0, "duration": 63}, {"note": 74, "velocity": 88, "duration": 89}, {"note": 73, "velocity": 84, "duration": 229}, {"note": 71, "velocity": 87, "duration": 327}, {"note": 69, "velocity": 85, "duration": 711}, {"note": 76, "velocity": 81, "duration": 222}, {"note": 74, "velocity": 87, "duration": 859}, {"note": 0, "velocity": 0, "duration": 101}, {"note": 71, "velocity": 88, "duration": 180}, {"note": 74, "velocity": 85, "duration": 74}, {"note": 74, "velocity": 87, "duration": 211}, {"note": 71, "velocity": 88, "duration": 286}, {"note": 0, "velocity": 0, "duration": 74}, {"note": 74, "velocity": 94, "duration": 199}, {"note": 76, "velocity": 84, "duration": 75}, {"note": 76, "velocity": 86, "duration": 231}, {"note": 74, "velocity": 91, "duration": 312}, {"note": 76, "velocity": 90, "duration": 1044}, {"note": 0, "velocity": 0, "duration": 156}, {"note": 78, "velocity": 83, "duration": 165}, {"note": 0, "velocity": 0, "duration": 75}, {"note": 78, "velocity": 81, "duration": 196}, {"note": 74, "velocity": 86, "duration": 181}, {"note": 71, "velocity": 86, "duration": 193}, {"note": 71, "velocity": 87, "duration": 205}, {"note": 78, "velocity": 86, "duration": 210}, {"note": 74, "velocity": 89, "duration": 177}, {"note": 0, "velocity": 0, "duration": 63}, {"note": 76, "velocity": 87, "duration": 609}, {"note": 0, "velocity": 0, "duration": 351}, {"note": 69, "velocity": 86, "duration": 168}, {"note": 0, "velocity": 0, "duration": 72}, {"note": 69, "velocity": 86, "duration": 176}, {"note": 0, "velocity": 0, "duration": 64}, {"note": 76, "velocity": 87, "duration": 208}, {"note": 73, "velocity": 85, "duration": 182}, {"note": 74, "velocity": 87, "duration": 516}, {"note": 0, "velocity": 0, "duration": 444}, {"note": 71, "velocity": 86, "duration": 171}, {"note": 0, "velocity": 0, "duration": 69}, {"note": 71, "velocity": 86, "duration": 199}, {"note": 78, "velocity": 86, "duration": 199}, {"note": 74, "velocity": 91, "duration": 205}, {"note": 73, "velocity": 85, "duration": 207}, {"note": 71, "velocity": 85, "duration": 80}, {"note": 71, "velocity": 85, "duration": 231}, {"note": 69, "velocity": 86, "duration": 298}, {"note": 0, "velocity": 0, "duration": 62}, {"note": 79, "velocity": 87, "duration": 161}, {"note": 0, "velocity": 0, "duration": 79}, {"note": 78, "velocity": 92, "duration": 66}, {"note": 78, "velocity": 89, "duration": 191}, {"note": 76, "velocity": 86, "duration": 192}, {"note": 78, "velocity": 89, "duration": 292}, {"note": 0, "velocity": 0, "duration": 68}, {"note": 78, "velocity": 86, "duration": 204}, {"note": 78, "velocity": 87, "duration": 154}, {"note": 0, "velocity": 0, "duration": 86}, {"note": 79, "velocity": 86, "duration": 153}, {"note": 0, "velocity": 0, "duration": 87}, {"note": 81, "velocity": 86, "duration": 171}, {"note": 0, "velocity": 0, "duration": 69}, {"note": 79, "velocity": 86, "duration": 172}, {"note": 0, "velocity": 0, "duration": 68}, {"note": 78, "velocity": 91, "duration": 219}, {"note": 74, "velocity": 89, "duration": 183}, {"note": 76, "velocity": 84, "duration": 541}, {"note": 0, "velocity": 0, "duration": 299}, {"note": 73, "velocity": 83, "duration": 108}, {"note": 81, "velocity": 86, "duration": 230}, {"note": 79, "velocity": 87, "duration": 186}, {"note": 78, "velocity": 89, "duration": 202}, {"note": 76, "velocity": 87, "duration": 214}, {"note": 74, "velocity": 92, "duration": 490}, {"note": 0, "velocity": 0, "duration": 230}, {"note": 76, "velocity": 91, "duration": 110}, {"note": 78, "velocity": 86, "duration": 77}, {"note": 78, "velocity": 84, "duration": 210}, {"note": 79, "velocity": 85, "duration": 238}, {"note": 71, "velocity": 88, "duration": 362}, {"note": 74, "velocity": 89, "duration": 63}, {"note": 74, "velocity": 89, "duration": 188}, {"note": 73, "velocity": 90, "duration": 231}, {"note": 71, "velocity": 89, "duration": 254}, {"note": 73, "velocity": 87, "duration": 250}, {"note": 76, "velocity": 89, "duration": 348}, {"note": 74, "velocity": 87, "duration": 1558}, {"note": 74, "velocity": 92, "duration": 102}, {"note": 73, "velocity": 87, "duration": 65}, {"note": 74, "velocity": 89, "duration": 66}, {"note": 73, "velocity": 94, "duration": 68}, {"note": 74, "velocity": 89, "duration": 159}, {"note": 0, "velocity": 0, "duration": 201}, {"note": 74, "velocity": 91, "duration": 197}, {"note": 73, "velocity": 91, "duration": 151}, {"note": 0, "velocity": 0, "duration": 89}, {"note": 73, "velocity": 91, "duration": 181}, {"note": 71, "velocity": 85, "duration": 65}, {"note": 69, "velocity": 87, "duration": 202}, {"note": 73, "velocity": 92, "duration": 107}, {"note": 71, "velocity": 80, "duration": 82}, {"note": 73, "velocity": 83, "duration": 90}, {"note": 71, "velocity": 85, "duration": 71}, {"note": 73, "velocity": 87, "duration": 285}, {"note": 0, "velocity": 0, "duration": 75}, {"note": 76, "velocity": 87, "duration": 193}, {"note": 74, "velocity": 92, "duration": 230}, {"note": 71, "velocity": 83, "duration": 120}, {"note": 74, "velocity": 89, "duration": 71}, {"note": 76, "velocity": 89, "duration": 83}, {"note": 78, "velocity": 89, "duration": 186}, {"note": 0, "velocity": 0, "duration": 294}, {"note": 74, "velocity": 92, "duration": 162}, {"note": 0, "velocity": 0, "duration": 78}, {"note": 76, "velocity": 88, "duration": 199}, {"note": 74, "velocity": 96, "duration": 168}, {"note": 0, "velocity": 0, "duration": 72}, {"note": 76, "velocity": 92, "duration": 175}, {"note": 0, "velocity": 0, "duration": 65}, {"note": 74, "velocity": 89, "duration": 172}, {"note": 0, "velocity": 0, "duration": 68}, {"note": 76, "velocity": 87, "duration": 213}, {"note": 74, "velocity": 92, "duration": 230}, {"note": 76, "velocity": 80, "duration": 210}, {"note": 74, "velocity": 91, "duration": 303}, {"note": 76, "velocity": 86, "duration": 225}, {"note": 74, "velocity": 85, "duration": 129}, {"note": 76, "velocity": 86, "duration": 1693}, {"note": 0, "velocity": 0, "duration": 467}, {"note": 78, "velocity": 83, "duration": 165}, {"note": 0, "velocity": 0, "duration": 75}, {"note": 78, "velocity": 81, "duration": 196}, {"note": 74, "velocity": 86, "duration": 181}, {"note": 71, "velocity": 86, "duration": 193}, {"note": 71, "velocity": 87, "duration": 205}, {"note": 78, "velocity": 86, "duration": 210}, {"note": 74, "velocity": 89, "duration": 177}, {"note": 0, "velocity": 0, "duration": 63}, {"note": 76, "velocity": 87, "duration": 609}, {"note": 0, "velocity": 0, "duration": 351}, {"note": 69, "velocity": 86, "duration": 168}, {"note": 0, "velocity": 0, "duration": 72}, {"note": 69, "velocity": 86, "duration": 176}, {"note": 0, "velocity": 0, "duration": 64}, {"note": 76, "velocity": 87, "duration": 208}, {"note": 73, "velocity": 85, "duration": 182}, {"note": 74, "velocity": 87, "duration": 516}, {"note": 0, "velocity": 0, "duration": 444}, {"note": 71, "velocity": 86, "duration": 171}, {"note": 0, "velocity": 0, "duration": 69}, {"note": 71, "velocity": 86, "duration": 199}, {"note": 78, "velocity": 86, "duration": 199}, {"note": 74, "velocity": 91, "duration": 205}, {"note": 73, "velocity": 85, "duration": 207}, {"note": 71, "velocity": 85, "duration": 80}, {"note": 71, "velocity": 85, "duration": 231}, {"note": 69, "velocity": 86, "duration": 298}, {"note": 0, "velocity": 0, "duration": 62}, {"note": 79, "velocity": 87, "duration": 161}, {"note": 0, "velocity": 0, "duration": 79}, {"note": 78, "velocity": 92, "duration": 66}, {"note": 78, "velocity": 89, "duration": 191}, {"note": 76, "velocity": 86, "duration": 192}, {"note": 78, "velocity": 89, "duration": 292}, {"note": 0, "velocity": 0, "duration": 68}, {"note": 78, "velocity": 86, "duration": 204}, {"note": 78, "velocity": 87, "duration": 154}, {"note": 0, "velocity": 0, "duration": 86}, {"note": 79, "velocity": 86, "duration": 153}, {"note": 0, "velocity": 0, "duration": 87}, {"note": 81, "velocity": 86, "duration": 171}, {"note": 0, "velocity": 0, "duration": 69}, {"note": 79, "velocity": 86, "duration": 172}, {"note": 0, "velocity": 0, "duration": 68}, {"note": 78, "velocity": 91, "duration": 219}, {"note": 74, "velocity": 89, "duration": 183}, {"note": 76, "velocity": 84, "duration": 541}, {"note": 0, "velocity": 0, "duration": 299}, {"note": 73, "velocity": 83, "duration": 108}, {"note": 81, "velocity": 86, "duration": 230}, {"note": 79, "velocity": 87, "duration": 186}, {"note": 78, "velocity": 89, "duration": 202}, {"note": 76, "velocity": 87, "duration": 214}, {"note": 74, "velocity": 92, "duration": 490}, {"note": 0, "velocity": 0, "duration": 230}, {"note": 76, "velocity": 91, "duration": 110}, {"note": 78, "velocity": 86, "duration": 77}, {"note": 78, "velocity": 84, "duration": 210}, {"note": 79, "velocity": 85, "duration": 238}, {"note": 71, "velocity": 88, "duration": 362}, {"note": 74, "velocity": 89, "duration": 63}, {"note": 74, "velocity": 89, "duration": 188}, {"note": 73, "velocity": 90, "duration": 231}, {"note": 71, "velocity": 89, "duration": 254}, {"note": 73, "velocity": 87, "duration": 250}, {"note": 76, "velocity": 89, "duration": 348}, {"note": 74, "velocity": 87, "duration": 1234}, {"note": 0, "velocity": 0, "duration": 169}, {"note": 76, "velocity": 85, "duration": 151}, {"note": 78, "velocity": 79, "duration": 121}, {"note": 0, "velocity": 0, "duration": 61}, {"note": 78, "velocity": 86, "duration": 247}, {"note": 79, "velocity": 82, "duration": 190}, {"note": 71, "velocity": 84, "duration": 410}, {"note": 0, "velocity": 0, "duration": 81}, {"note": 74, "velocity": 84, "duration": 117}, {"note": 74, "velocity": 87, "duration": 237}, {"note": 73, "velocity": 74, "duration": 257}, {"note": 71, "velocity": 85, "duration": 833}, {"note": 0, "velocity": 0, "duration": 312}, {"note": 73, "velocity": 83, "duration": 561}, {"note": 74, "velocity": 89, "duration": 1313}]]