[[{"note": 65, "velocity": 83, "duration": 73}, {"note": 65, "velocity": 86, "duration": 84}, {"note": 67, "velocity": 82, "duration": 84}, {"note": 69, "velocity": 86, "duration": 166}, {"note": 0, "velocity": 0, "duration": 74}, {"note": 69, "velocity": 85, "duration": 166}, {"note": 0, "velocity": 0, "duration": 74}, {"note": 69, "velocity": 85, "duration": 176}, {"note": 0, "velocity": 0, "duration": 64}, {"note": 70, "velocity": 85, "duration": 104}, {"note": 69, "velocity": 81, "duration": 650}, {"note": 0, "velocity": 0, "duration": 70}, {"note": 69, "velocity": 85, "duration": 113}, {"note": 67, "velocity": 80, "duration": 105}, {"note": 65, "velocity": 81, "duration": 99}, {"note": 67, "velocity": 81, "duration": 187}, {"note": 67, "velocity": 84, "duration": 152}, {"note": 0, "velocity": 0, "duration": 88}, {"note": 67, "velocity": 84, "duration": 188}, {"note": 70, "velocity": 82, "duration": 76}, {"note": 69, "velocity": 85, "duration": 614}, {"note": 0, "velocity": 0, "duration": 226}, {"note": 67, "velocity": 85, "duration": 184}, {"note": 65, "velocity": 85, "duration": 241}, {"note": 64, "velocity": 81, "duration": 109}, {"note": 65, "velocity": 84, "duration": 445}, {"note": 64, "velocity": 88, "duration": 120}, {"note": 65, "velocity": 83, "duration": 248}, {"note": 64, "velocity": 85, "duration": 241}, {"note": 62, "velocity": 81, "duration": 210}, {"note": 60, "velocity": 79, "duration": 87}, {"note": 60, "velocity": 82, "duration": 1124}, {"note": 0, "velocity": 0, "duration": 556}, {"note": 65, "velocity": 85, "duration": 99}, {"note": 67, "velocity": 80, "duration": 99}, {"note": 69, "velocity": 81, "duration": 96}, {"note": 70, "velocity": 86, "duration": 369}, {"note": 0, "velocity": 0, "duration": 111}, {"note": 62, "velocity": 86, "duration": 218}, {"note": 65, "velocity": 83, "duration": 106}, {"note": 64, "velocity": 87, "duration": 796}, {"note": 0, "velocity": 0, "duration": 164}, {"note": 60, "velocity": 82, "duration": 99}, {"note": 69, "velocity": 86, "duration": 189}, {"note": 70, "velocity": 84, "duration": 164}, {"note": 0, "velocity": 0, "duration": 76}, {"note": 69, "velocity": 86, "duration": 180}, {"note": 67, "velocity": 80, "duration": 93}, {"note": 65, "velocity": 83, "duration": 294}, {"note": 0, "velocity": 0, "duration": 66}, {"note": 65, "velocity": 85, "duration": 215}, {"note": 64, "velocity": 86, "duration": 195}, {"note": 65, "velocity": 86, "duration": 182}, {"note": 70, "velocity": 84, "duration": 209}, {"note": 69, "velocity": 85, "duration": 241}, {"note": 67, "velocity": 81, "duration": 220}, {"note": 65, "velocity": 79, "duration": 73}, {"note": 70, "velocity": 73, "duration": 330}, {"note": 69, "velocity": 82, "duration": 231}, {"note": 67, "velocity": 81, "duration": 241}, {"note": 65, "velocity": 81, "duration": 198}, {"note": 67, "velocity": 79, "duration": 1319}, {"note": 0, "velocity": 0, "duration": 241}, {"note": 65, "velocity": 83, "duration": 73}, {"note": 65, "velocity": 86, "duration": 84}, {"note": 67, "velocity": 82, "duration": 84}, {"note": 69, "velocity": 86, "duration": 166}, {"note": 0, "velocity": 0, "duration": 74}, {"note": 69, "velocity": 85, "duration": 166}, {"note": 0, "velocity": 0, "duration": 74}, {"note": 69, "velocity": 85, "duration": 176}, {"note": 0, "velocity": 0, "duration": 64}, {"note": 70, "velocity": 85, "duration": 104}, {"note": 69, "velocity": 81, "duration": 650}, {"note": 0, "velocity": 0, "duration": 70}, {"note": 69, "velocity": 85, "duration": 113}, {"note": 67, "velocity": 80, "duration": 105}, {"note": 65, "velocity": 81, "duration": 99}, {"note": 67, "velocity": 81, "duration": 187}, {"note": 67, "velocity": 84, "duration": 152}, {"note": 0, "velocity": 0, "duration": 88}, {"note": 67, "velocity": 84, "duration": 188}, {"note": 70, "velocity": 82, "duration": 76}, {"note": 69, "velocity": 85, "duration": 614}, {"note": 0, "velocity": 0, "duration": 226}, {"note": 67, "velocity": 85, "duration": 184}, {"note": 65, "velocity": 85, "duration": 241}, {"note": 64, "velocity": 81, "duration": 109}, {"note": 65, "velocity": 84, "duration": 445}, {"note": 64, "velocity": 88, "duration": 120}, {"note": 65, "velocity": 83, "duration": 248}, {"note": 64, "velocity": 85, "duration": 241}, {"note": 65, "velocity": 81, "duration": 210}, {"note": 74, "velocity": 79, "duration": 87}, {"note": 72, "velocity": 82, "duration": 960}, {"note": 0, "velocity": 0, "duration": 120}, {"note": 72, "velocity": 87, "duration": 226}, {"note": 70, "velocity": 86, "duration": 243}, {"note": 69, "velocity": 85, "duration": 201}, {"note": 72, "velocity": 87, "duration": 189}, {"note": 72, "velocity": 86, "duration": 194}, {"note": 74, "velocity": 86, "duration": 240}, {"note": 70, "velocity": 82, "duration": 240}, {"note": 69, "velocity": 86, "duration": 172}, {"note": 0, "velocity": 0, "duration": 68}, {"note": 67, "velocity": 84, "duration": 480}, {"note": 0, "velocity": 0, "duration": 120}, {"note": 67, "velocity": 84, "duration": 90}, {"note": 69, "velocity": 87, "duration": 73}, {"note": 70, "velocity": 86, "duration": 78}, {"note": 70, "velocity": 85, "duration": 166}, {"note": 0, "velocity": 0, "duration": 74}, {"note": 72, "velocity": 87, "duration": 163}, {"note": 0, "velocity": 0, "duration": 77}, {"note": 69, "velocity": 86, "duration": 180}, {"note": 67, "velocity": 80, "duration": 93}, {"note": 65, "velocity": 83, "duration": 294}, {"note": 0, "velocity": 0, "duration": 66}, {"note": 65, "velocity": 85, "duration": 215}, {"note": 64, "velocity": 86, "duration": 195}, {"note": 65, "velocity": 86, "duration": 182}, {"note": 70, "velocity": 84, "duration": 209}, {"note": 69, "velocity": 85, "duration": 241}, {"note": 70, "velocity": 81, "duration": 220}, {"note": 62, "velocity": 81, "duration": 214}, {"note": 65, "velocity": 83, "duration": 415}, {"note": 0, "velocity": 0, "duration": 65}, {"note": 64, "velocity": 85, "duration": 205}, {"note": 65, "velocity": 80, "duration": 76}, {"note": 65, "velocity": 84, "duration": 1666}, {"note": 0, "velocity": 0, "duration": 374}, {"note": 70, "velocity": 86, "duration": 169}, {"note": 0, "velocity": 0, "duration": 71}, {"note": 70, "velocity": 91, "duration": 179}, {"note": 0, "velocity": 0, "duration": 61}, {"note": 70, "velocity": 89, "duration": 157}, {"note": 0, "velocity": 0, "duration": 83}, {"note": 70, "velocity": 88, "duration": 88}, {"note": 69, "velocity": 86, "duration": 268}, {"note": 0, "velocity": 0, "duration": 92}, {"note": 64, "velocity": 90, "duration": 185}, {"note": 69, "velocity": 87, "duration": 178}, {"note": 0, "velocity": 0, "duration": 62}, {"note": 67, "velocity": 80, "duration": 179}, {"note": 0, "velocity": 0, "duration": 61}, {"note": 67, "velocity": 85, "duration": 198}, {"note": 65, "velocity": 85, "duration": 76}, {"note": 65, "velocity": 86, "duration": 398}, {"note": 0, "velocity": 0, "duration": 82}, {"note": 65, "velocity": 86, "duration": 74}, {"note": 70, "velocity": 83, "duration": 199}, {"note": 69, "velocity": 86, "duration": 205}, {"note": 67, "velocity": 85, "duration": 193}, {"note": 69, "velocity": 86, "duration": 215}, {"note": 70, "velocity": 86, "duration": 246}, {"note": 69, "velocity": 87, "duration": 80}, {"note": 70, "velocity": 84, "duration": 320}, {"note": 74, "velocity": 92, "duration": 171}, {"note": 0, "velocity": 0, "duration": 69}, {"note": 74, "velocity": 90, "duration": 185}, {"note": 76, "velocity": 85, "duration": 240}, {"note": 72, "velocity": 86, "duration": 240}, {"note": 70, "velocity": 87, "duration": 180}, {"note": 70, "velocity": 86, "duration": 235}, {"note": 72, "velocity": 84, "duration": 104}, {"note": 69, "velocity": 86, "duration": 656}, {"note": 0, "velocity": 0, "duration": 904}, {"note": 74, "velocity": 87, "duration": 178}, {"note": 0, "velocity": 0, "duration": 62}, {"note": 74, "velocity": 92, "duration": 178}, {"note": 0, "velocity": 0, "duration": 62}, {"note": 74, "velocity": 89, "duration": 152}, {"note": 0, "velocity": 0, "duration": 88}, {"note": 74, "velocity": 91, "duration": 87}, {"note": 73, "velocity": 87, "duration": 280}, {"note": 0, "velocity": 0, "duration": 80}, {"note": 74, "velocity": 86, "duration": 120}, {"note": 76, "velocity": 94, "duration": 360}, {"note": 0, "velocity": 0, "duration": 120}, {"note": 69, "velocity": 91, "duration": 86}, {"note": 76, "velocity": 85, "duration": 166}, {"note": 0, "velocity": 0, "duration": 74}, {"note": 77, "velocity": 80, "duration": 215}, {"note": 76, "velocity": 89, "duration": 200}, {"note": 72, "velocity": 75, "duration": 234}, {"note": 65, "velocity": 80, "duration": 545}, {"note": 0, "velocity": 0, "duration": 415}, {"note": 70, "velocity": 78, "duration": 169}, {"note": 0, "velocity": 0, "duration": 71}, {"note": 69, "velocity": 85, "duration": 94}, {"note": 67, "velocity": 84, "duration": 399}, {"note": 0, "velocity": 0, "duration": 81}, {"note": 65, "velocity": 85, "duration": 111}, {"note": 70, "velocity": 85, "duration": 262}, {"note": 69, "velocity": 85, "duration": 198}, {"note": 70, "velocity": 87, "duration": 202}, {"note": 72, "velocity": 87, "duration": 170}, {"note": 0, "velocity": 0, "duration": 70}, {"note": 72, "velocity": 90, "duration": 2192}, {"note": 0, "velocity": 0, "duration": 1168}, {"note": 69, "velocity": 86, "duration": 96}, {"note": 72, "velocity": 86, "duration": 54}, {"note": 0, "velocity": 0, "duration": 66}, {"note": 72, "velocity": 88, "duration": 73}, {"note": 76, "velocity": 87, "duration": 79}, {"note": 77, "velocity": 88, "duration": 167}, {"note": 0, "velocity": 0, "duration": 73}, {"note": 77, "velocity": 86, "duration": 69}, {"note": 77, "velocity": 89, "duration": 301}, {"note": 72, "velocity": 87, "duration": 120}, {"note": 72, "velocity": 87, "duration": 327}, {"note": 0, "velocity": 0, "duration": 393}, {"note": 72, "velocity": 89, "duration": 63}, {"note": 72, "velocity": 86, "duration": 78}, {"note": 77, "velocity": 85, "duration": 70}, {"note": 79, "velocity": 81, "duration": 155}, {"note": 0, "velocity": 0, "duration": 85}, {"note": 79, "velocity": 81, "duration": 60}, {"note": 79, "velocity": 86, "duration": 334}, {"note": 72, "velocity": 87, "duration": 120}, {"note": 73, "velocity": 87, "duration": 399}, {"note": 0, "velocity": 0, "duration": 201}, {"note": 79, "velocity": 88, "duration": 189}, {"note": 81, "velocity": 87, "duration": 182}, {"note": 79, "velocity": 87, "duration": 214}, {"note": 77, "velocity": 85, "duration": 64}, {"note": 77, "velocity": 86, "duration": 377}, {"note": 0, "velocity": 0, "duration": 103}, {"note": 77, "velocity": 87, "duration": 94}, {"note": 76, "velocity": 91, "duration": 179}, {"note": 0, "velocity": 0, "duration": 61}, {"note": 77, "velocity": 86, "duration": 218}, {"note": 76, "velocity": 89, "duration": 224}, {"note": 72, "velocity": 86, "duration": 240}, {"note": 74, "velocity": 87, "duration": 404}, {"note": 0, "velocity": 0, "duration": 76}, {"note": 79, "velocity": 86, "duration": 984}, {"note": 0, "velocity": 0, "duration": 96}, {"note": 67, "velocity": 87, "duration": 64}, {"note": 67, "velocity": 86, "duration": 66}, {"note": 69, "velocity": 88, "duration": 71}, {"note": 70, "velocity": 86, "duration": 195}, {"note": 69, "velocity": 89, "duration": 194}, {"note": 70, "velocity": 87, "duration": 179}, {"note": 0, "velocity": 0, "duration": 61}, {"note": 74, "velocity": 86, "duration": 120}, {"note": 72, "velocity": 86, "duration": 600}, {"note": 0, "velocity": 0, "duration": 120}, {"note": 70, "velocity": 94, "duration": 77}, {"note": 69, "velocity": 89, "duration": 76}, {"note": 70, "velocity": 88, "duration": 84}, {"note": 72, "velocity": 85, "duration": 172}, {"note": 0, "velocity": 0, "duration": 68}, {"note": 72, "velocity": 91, "duration": 166}, {"note": 0, "velocity": 0, "duration": 74}, {"note": 79, "velocity": 89, "duration": 175}, {"note": 0, "velocity": 0, "duration": 65}, {"note": 76, "velocity": 90, "duration": 73}, {"note": 77, "velocity": 88, "duration": 283}, {"note": 0, "velocity": 0, "duration": 77}, {"note": 77, "velocity": 86, "duration": 183}, {"note": 77, "velocity": 86, "duration": 185}, {"note": 72, "velocity": 87, "duration": 159}, {"note": 0, "velocity": 0, "duration": 81}, {"note": 70, "velocity": 87, "duration": 214}, {"note": 69, "velocity": 84, "duration": 74}, {"note": 70, "velocity": 87, "duration": 360}, {"note": 72, "velocity": 91, "duration": 192}, {"note": 74, "velocity": 96, "duration": 210}, {"note": 81, "velocity": 87, "duration": 178}, {"note": 0, "velocity": 0, "duration": 62}, {"note": 79, "velocity": 87, "duration": 192}, {"note": 77, "velocity": 84, "duration": 72}, {"note": 79, "velocity": 89, "duration": 1560}, {"note": 69, "velocity": 86, "duration": 96}, {"note": 72, "velocity": 86, "duration": 54}, {"note": 0, "velocity": 0, "duration": 66}, {"note": 72, "velocity": 88, "duration": 73}, {"note": 76, "velocity": 87, "duration": 79}, {"note": 77, "velocity": 88, "duration": 167}, {"note": 0, "velocity": 0, "duration": 73}, {"note": 77, "velocity": 86, "duration": 69}, {"note": 77, "velocity": 89, "duration": 301}, {"note": 72, "velocity": 87, "duration": 120}, {"note": 72, "velocity": 87, "duration": 327}, {"note": 0, "velocity": 0, "duration": 393}, {"note": 72, "velocity": 89, "duration": 63}, {"note": 72, "velocity": 86, "duration": 78}, {"note": 77, "velocity": 85, "duration": 70}, {"note": 79, "velocity": 81, "duration": 155}, {"note": 0, "velocity": 0, "duration": 85}, {"note": 79, "velocity": 81, "duration": 60}, {"note": 79, "velocity": 86, "duration": 334}, {"note": 72, "velocity": 87, "duration": 120}, {"note": 73, "velocity": 87, "duration": 399}, {"note": 0, "velocity": 0, "duration": 201}, {"note": 79, "velocity": 88, "duration": 189}, {"note": 81, "velocity": 87, "duration": 182}, {"note": 79, "velocity": 87, "duration": 214}, {"note": 77, "velocity": 85, "duration": 64}, {"note": 77, "velocity": 86, "duration": 377}, {"note": 0, "velocity": 0, "duration": 103}, {"note": 77, "velocity": 87, "duration": 94}, {"note": 76, "velocity": 91, "duration": 179}, {"note": 0, "velocity": 0, "duration": 61}, {"note": 77, "velocity": 86, "duration": 218}, {"note": 76, "velocity": 89, "duration": 224}, {"note": 72, "velocity": 86, "duration": 240}, {"note": 74, "velocity": 87, "duration": 240}, {"note": 81, "velocity": 86, "duration": 240}, {"note": 81, "velocity": 86, "duration": 984}, {"note": 0, "velocity": 0, "duration": 96}, {"note": 69, "velocity": 90, "duration": 88}, {"note": 70, "velocity": 90, "duration": 97}, {"note": 72, "velocity": 85, "duration": 67}, {"note": 74, "velocity": 101, "duration": 216}, {"note": 72, "velocity": 87, "duration": 172}, {"note": 0, "velocity": 0, "duration": 68}, {"note": 74, "velocity": 96, "duration": 181}, {"note": 77, "velocity": 85, "duration": 84}, {"note": 76, "velocity": 89, "duration": 660}, {"note": 76, "velocity": 94, "duration": 77}, {"note": 76, "velocity": 89, "duration": 76}, {"note": 74, "velocity": 88, "duration": 84}, {"note": 73, "velocity": 85, "duration": 172}, {"note": 0, "velocity": 0, "duration": 68}, {"note": 73, "velocity": 91, "duration": 166}, {"note": 0, "velocity": 0, "duration": 74}, {"note": 81, "velocity": 89, "duration": 175}, {"note": 0, "velocity": 0, "duration": 65}, {"note": 79, "velocity": 90, "duration": 73}, {"note": 77, "velocity": 88, "duration": 283}, {"note": 0, "velocity": 0, "duration": 77}, {"note": 77, "velocity": 86, "duration": 183}, {"note": 76, "velocity": 86, "duration": 185}, {"note": 72, "velocity": 87, "duration": 159}, {"note": 0, "velocity": 0, "duration": 81}, {"note": 70, "velocity": 87, "duration": 214}, {"note": 69, "velocity": 84, "duration": 74}, {"note": 70, "velocity": 87, "duration": 360}, {"note": 72, "velocity": 91, "duration": 192}, {"note": 74, "velocity": 96, "duration": 210}, {"note": 81, "velocity": 87, "duration": 178}, {"note": 0, "velocity": 0, "duration": 62}, {"note": 79, "velocity": 87, "duration": 192}, {"note": 77, "velocity": 84, "duration": 72}, {"note": 79, "velocity": 89, "duration": 840}, {"note": 0, "velocity": 0, "duration": 120}, {"note": 77, "velocity": 87, "duration": 77}, {"note": 77, "velocity": 87, "duration": 404}, {"note": 0, "velocity": 0, "duration": 76}, {"note": 76, "velocity": 89, "duration": 213}, {"note": 77, "velocity": 87, "duration": 79}, {"note": 77, "velocity": 84, "duration": 1929}, {"note": 0, "velocity": 0, "duration": 7431}, {"note": 65, "velocity": 83, "duration": 73}, {"note": 65, "velocity": 86, "duration": 84}, {"note": 67, "velocity": 82, "duration": 84}, {"note": 69, "velocity": 86, "duration": 166}, {"note": 0, "velocity": 0, "duration": 74}, {"note": 69, "velocity": 85, "duration": 166}, {"note": 0, "velocity": 0, "duration": 74}, {"note": 69, "velocity": 85, "duration": 176}, {"note": 0, "velocity": 0, "duration": 64}, {"note": 70, "velocity": 85, "duration": 104}, {"note": 69, "velocity": 81, "duration": 650}, {"note": 0, "velocity": 0, "duration": 70}, {"note": 69, "velocity": 85, "duration": 113}, {"note": 67, "velocity": 80, "duration": 105}, {"note": 65, "velocity": 81, "duration": 99}, {"note": 67, "velocity": 81, "duration": 187}, {"note": 67, "velocity": 84, "duration": 152}, {"note": 0, "velocity": 0, "duration": 88}, {"note": 67, "velocity": 84, "duration": 188}, {"note": 70, "velocity": 82, "duration": 76}, {"note": 69, "velocity": 85, "duration": 614}, {"note": 0, "velocity": 0, "duration": 226}, {"note": 67, "velocity": 85, "duration": 184}, {"note": 65, "velocity": 85, "duration": 241}, {"note": 64, "velocity": 81, "duration": 109}, {"note": 65, "velocity": 84, "duration": 445}, {"note": 64, "velocity": 88, "duration": 120}, {"note": 65, "velocity": 83, "duration": 248}, {"note": 64, "velocity": 85, "duration": 241}, {"note": 65, "velocity": 81, "duration": 210}, {"note": 74, "velocity": 79, "duration": 87}, {"note": 72, "velocity": 82, "duration": 960}, {"note": 0, "velocity": 0, "duration": 120}, {"note": 72, "velocity": 87, "duration": 226}, {"note": 70, "velocity": 86, "duration": 243}, {"note": 69, "velocity": 85, "duration": 201}, {"note": 72, "velocity": 87, "duration": 189}, {"note": 72, "velocity": 86, "duration": 194}, {"note": 74, "velocity": 86, "duration": 240}, {"note": 70, "velocity": 82, "duration": 240}, {"note": 69, "velocity": 86, "duration": 172}, {"note": 0, "velocity": 0, "duration": 68}, {"note": 67, "velocity": 84, "duration": 480}, {"note": 0, "velocity": 0, "duration": 120}, {"note": 67, "velocity": 84, "duration": 90}, {"note": 69, "velocity": 87, "duration": 73}, {"note": 70, "velocity": 86, "duration": 78}, {"note": 70, "velocity": 85, "duration": 166}, {"note": 0, "velocity": 0, "duration": 74}, {"note": 72, "velocity": 87, "duration": 163}, {"note": 0, "velocity": 0, "duration": 77}, {"note": 69, "velocity": 86, "duration": 180}, {"note": 67, "velocity": 80, "duration": 93}, {"note": 65, "velocity": 83, "duration": 294}, {"note": 0, "velocity": 0, "duration": 66}, {"note": 65, "velocity": 85, "duration": 215}, {"note": 64, "velocity": 86, "duration": 195}, {"note": 65, "velocity": 86, "duration": 182}, {"note": 70, "velocity": 84, "duration": 209}, {"note": 69, "velocity": 85, "duration": 241}, {"note": 70, "velocity": 81, "duration": 220}, {"note": 62, "velocity": 81, "duration": 214}, {"note": 65, "velocity": 83, "duration": 415}, {"note": 0, "velocity": 0, "duration": 65}, {"note": 64, "velocity": 85, "duration": 205}, {"note": 65, "velocity": 80, "duration": 76}, {"note": 65, "velocity": 84, "duration": 1666}, {"note": 0, "velocity": 0, "duration": 374}, {"note": 70, "velocity": 86, "duration": 169}, {"note": 0, "velocity": 0, "duration": 71}, {"note": 70, "velocity": 91, "duration": 179}, {"note": 0, "velocity": 0, "duration": 61}, {"note": 70, "velocity": 89, "duration": 157}, {"note": 0, "velocity": 0, "duration": 83}, {"note": 70, "velocity": 88, "duration": 88}, {"note": 69, "velocity": 86, "duration": 268}, {"note": 0, "velocity": 0, "duration": 92}, {"note": 64, "velocity": 90, "duration": 185}, {"note": 69, "velocity": 87, "duration": 178}, {"note": 0, "velocity": 0, "duration": 62}, {"note": 67, "velocity": 80, "duration": 179}, {"note": 0, "velocity": 0, "duration": 61}, {"note": 67, "velocity": 85, "duration": 198}, {"note": 65, "velocity": 85, "duration": 76}, {"note": 65, "velocity": 86, "duration": 398}, {"note": 0, "velocity": 0, "duration": 82}, {"note": 65, "velocity": 86, "duration": 74}, {"note": 70, "velocity": 83, "duration": 199}, {"note": 69, "velocity": 86, "duration": 205}, {"note": 67, "velocity": 85, "duration": 193}, {"note": 69, "velocity": 86, "duration": 215}, {"note": 70, "velocity": 86, "duration": 246}, {"note": 69, "velocity": 87, "duration": 80}, {"note": 70, "velocity": 84, "duration": 320}, {"note": 74, "velocity": 92, "duration": 171}, {"note": 0, "velocity": 0, "duration": 69}, {"note": 74, "velocity": 90, "duration": 185}, {"note": 76, "velocity": 85, "duration": 240}, {"note": 72, "velocity": 86, "duration": 240}, {"note": 70, "velocity": 87, "duration": 180}, {"note": 70, "velocity": 86, "duration": 235}, {"note": 72, "velocity": 84, "duration": 104}, {"note": 69, "velocity": 86, "duration": 656}, {"note": 0, "velocity": 0, "duration": 904}, {"note": 74, "velocity": 87, "duration": 178}, {"note": 0, "velocity": 0, "duration": 62}, {"note": 74, "velocity": 92, "duration": 178}, {"note": 0, "velocity": 0, "duration": 62}, {"note": 74, "velocity": 89, "duration": 152}, {"note": 0, "velocity": 0, "duration": 88}, {"note": 74, "velocity": 91, "duration": 87}, {"note": 73, "velocity": 87, "duration": 280}, {"note": 0, "velocity": 0, "duration": 80}, {"note": 74, "velocity": 86, "duration": 120}, {"note": 76, "velocity": 94, "duration": 360}, {"note": 0, "velocity": 0, "duration": 120}, {"note": 69, "velocity": 91, "duration": 86}, {"note": 76, "velocity": 85, "duration": 166}, {"note": 0, "velocity": 0, "duration": 74}, {"note": 77, "velocity": 80, "duration": 215}, {"note": 76, "velocity": 89, "duration": 200}, {"note": 72, "velocity": 75, "duration": 234}, {"note": 65, "velocity": 80, "duration": 545}, {"note": 0, "velocity": 0, "duration": 415}, {"note": 70, "velocity": 78, "duration": 169}, {"note": 0, "velocity": 0, "duration": 71}, {"note": 69, "velocity": 85, "duration": 94}, {"note": 67, "velocity": 84, "duration": 399}, {"note": 0, "velocity": 0, "duration": 81}, {"note": 65, "velocity": 85, "duration": 111}, {"note": 70, "velocity": 85, "duration": 262}, {"note": 69, "velocity": 85, "duration": 198}, {"note": 70, "velocity": 87, "duration": 202}, {"note": 72, "velocity": 87, "duration": 170}, {"note": 0, "velocity": 0, "duration": 70}, {"note": 72, "velocity": 90, "duration": 2192}, {"note": 0, "velocity": 0, "duration": 1168}, {"note": 69, "velocity": 86, "duration": 96}, {"note": 72, "velocity": 86, "duration": 54}, {"note": 0, "velocity": 0, "duration": 66}, {"note": 72, "velocity": 88, "duration": 73}, {"note": 76, "velocity": 87, "duration": 79}, {"note": 77, "velocity": 88, "duration": 167}, {"note": 0, "velocity": 0, "duration": 73}, {"note": 77, "velocity": 86, "duration": 69}, {"note": 77, "velocity": 89, "duration": 301}, {"note": 72, "velocity": 87, "duration": 120}, {"note": 72, "velocity": 87, "duration": 327}, {"note": 0, "velocity": 0, "duration": 393}, {"note": 72, "velocity": 89, "duration": 63}, {"note": 72, "velocity": 86, "duration": 78}, {"note": 77, "velocity": 85, "duration": 70}, {"note": 79, "velocity": 81, "duration": 155}, {"note": 0, "velocity": 0, "duration": 85}, {"note": 79, "velocity": 81, "duration": 60}, {"note": 79, "velocity": 86, "duration": 334}, {"note": 72, "velocity": 87, "duration": 120}, {"note": 73, "velocity": 87, "duration": 399}, {"note": 0, "velocity": 0, "duration": 201}, {"note": 79, "velocity": 88, "duration": 189}, {"note": 81, "velocity": 87, "duration": 182}, {"note": 79, "velocity": 87, "duration": 214}, {"note": 77, "velocity": 85, "duration": 64}, {"note": 77, "velocity": 86, "duration": 377}, {"note": 0, "velocity": 0, "duration": 103}, {"note": 77, "velocity": 87, "duration": 94}, {"note": 76, "velocity": 91, "duration": 179}, {"note": 0, "velocity": 0, "duration": 61}, {"note": 77, "velocity": 86, "duration": 218}, {"note": 76, "velocity": 89, "duration": 224}, {"note": 72, "velocity": 86, "duration": 240}, {"note": 74, "velocity": 87, "duration": 404}, {"note": 0, "velocity": 0, "duration": 76}, {"note": 79, "velocity": 86, "duration": 984}, {"note": 0, "velocity": 0, "duration": 96}, {"note": 67, "velocity": 87, "duration": 64}, {"note": 67, "velocity": 86, "duration": 66}, {"note": 69, "velocity": 88, "duration": 71}, {"note": 70, "velocity": 86, "duration": 195}, {"note": 69, "velocity": 89, "duration": 194}, {"note": 70, "velocity": 87, "duration": 179}, {"note": 0, "velocity": 0, "duration": 61}, {"note": 74, "velocity": 86, "duration": 120}, {"note": 72, "velocity": 86, "duration": 600}, {"note": 0, "velocity": 0, "duration": 120}, {"note": 70, "velocity": 94, "duration": 77}, {"note": 69, "velocity": 89, "duration": 76}, {"note": 70, "velocity": 88, "duration": 84}, {"note": 72, "velocity": 85, "duration": 172}, {"note": 0, "velocity": 0, "duration": 68}, {"note": 72, "velocity": 91, "duration": 166}, {"note": 0, "velocity": 0, "duration": 74}, {"note": 79, "velocity": 89, "duration": 175}, {"note": 0, "velocity": 0, "duration": 65}, {"note": 76, "velocity": 90, "duration": 73}, {"note": 77, "velocity": 88, "duration": 283}, {"note": 0, "velocity": 0, "duration": 77}, {"note": 77, "velocity": 86, "duration": 183}, {"note": 77, "velocity": 86, "duration": 185}, {"note": 72, "velocity": 87, "duration": 159}, {"note": 0, "velocity": 0, "duration": 81}, {"note": 70, "velocity": 87, "duration": 214}, {"note": 69, "velocity": 84, "duration": 74}, {"note": 70, "velocity": 87, "duration": 360}, {"note": 72, "velocity": 91, "duration": 192}, {"note": 74, "velocity": 96, "duration": 210}, {"note": 81, "velocity": 87, "duration": 178}, {"note": 0, "velocity": 0, "duration": 62}, {"note": 79, "velocity": 87, "duration": 192}, {"note": 77, "velocity": 84, "duration": 72}, {"note": 79, "velocity": 89, "duration": 1560}, {"note": 69, "velocity": 86, "duration": 96}, {"note": 72, "velocity": 86, "duration": 54}, {"note": 0, "velocity": 0, "duration": 66}, {"note": 72, "velocity": 88, "duration": 73}, {"note": 76, "velocity": 87, "duration": 79}, {"note": 77, "velocity": 88, "duration": 167}, {"note": 0, "velocity": 0, "duration": 73}, {"note": 77, "velocity": 86, "duration": 69}, {"note": 77, "velocity": 89, "duration": 301}, {"note": 72, "velocity": 87, "duration": 120}, {"note": 72, "velocity": 87, "duration": 327}, {"note": 0, "velocity": 0, "duration": 393}, {"note": 72, "velocity": 89, "duration": 63}, {"note": 72, "velocity": 86, "duration": 78}, {"note": 77, "velocity": 85, "duration": 70}, {"note": 79, "velocity": 81, "duration": 155}, {"note": 0, "velocity": 0, "duration": 85}, {"note": 79, "velocity": 81, "duration": 60}, {"note": 79, "velocity": 86, "duration": 334}, {"note": 72, "velocity": 87, "duration": 120}, {"note": 73, "velocity": 87, "duration": 399}, {"note": 0, "velocity": 0, "duration": 201}, {"note": 79, "velocity": 88, "duration": 189}, {"note": 81, "velocity": 87, "duration": 182}, {"note": 79, "velocity": 87, "duration": 214}, {"note": 77, "velocity": 85, "duration": 64}, {"note": 77, "velocity": 86, "duration": 377}, {"note": 0, "velocity": 0, "duration": 103}, {"note": 77, "velocity": 87, "duration": 94}, {"note": 76, "velocity": 91, "duration": 179}, {"note": 0, "velocity": 0, "duration": 61}, {"note": 77, "velocity": 86, "duration": 218}, {"note": 76, "velocity": 89, "duration": 224}, {"note": 72, "velocity": 86, "duration": 240}, {"note": 74, "velocity": 87, "duration": 240}, {"note": 81, "velocity": 86, "duration": 240}, {"note": 81, "velocity": 86, "duration": 984}, {"note": 0, "velocity": 0, "duration": 96}, {"note": 69, "velocity": 90, "duration": 88}, {"note": 70, "velocity": 90, "duration": 97}, {"note": 72, "velocity": 85, "duration": 67}, {"note": 74, "velocity": 101, "duration": 216}, {"note": 72, "velocity": 87, "duration": 172}, {"note": 0, "velocity": 0, "duration": 68}, {"note": 74, "velocity": 96, "duration": 181}, {"note": 77, "velocity": 85, "duration": 84}, {"note": 76, "velocity": 89, "duration": 660}, {"note": 76, "velocity": 94, "duration": 77}, {"note": 76, "velocity": 89, "duration": 76}, {"note": 74, "velocity": 88, "duration": 84}, {"note": 73, "velocity": 85, "duration": 172}, {"note": 0, "velocity": 0, "duration": 68}, {"note": 73, "velocity": 91, "duration": 166}, {"note": 0, "velocity": 0, "duration": 74}, {"note": 81, "velocity": 89, "duration": 175}, {"note": 0, "velocity": 0, "duration": 65}, {"note": 79, "velocity": 90, "duration": 73}, {"note": 77, "velocity": 88, "duration": 283}, {"note": 0, "velocity": 0, "duration": 77}, {"note": 77, "velocity": 86, "duration": 183}, {"note": 76, "velocity": 86, "duration": 185}, {"note": 72, "velocity": 87, "duration": 159}, {"note": 0, "velocity": 0, "duration": 81}, {"note": 70, "velocity": 87, "duration": 214}, {"note": 69, "velocity": 84, "duration": 74}, {"note": 70, "velocity": 87, "duration": 360}, {"note": 72, "velocity": 91, "duration": 192}, {"note": 74, "velocity": 96, "duration": 210}, {"note": 81, "velocity": 87, "duration": 178}, {"note": 0, "velocity": 0, "duration": 62}, {"note": 79, "velocity": 87, "duration": 192}, {"note": 77, "velocity": 84, "duration": 72}, {"note": 79, "velocity": 89, "duration": 840}, {"note": 0, "velocity": 0, "duration": 120}, {"note": 77, "velocity": 87, "duration": 77}, {"note": 77, "velocity": 87, "duration": 404}, {"note": 0, "velocity": 0, "duration": 76}, {"note": 76, "velocity": 89, "duration": 213}, {"note": 77, "velocity": 87, "duration": 79}, {"note": 77, "velocity": 84, "duration": 1929}, {"note": 0, "velocity": 0, "duration": 14991}, {"note": 69, "velocity": 86, "duration": 96}, {"note": 72, "velocity": 86, "duration": 54}, {"note": 0, "velocity": 0, "duration": 66}, {"note": 72, "velocity": 88, "duration": 73}, {"note": 76, "velocity": 87, "duration": 79}, {"note": 77, "velocity": 88, "duration": 167}, {"note": 0, "velocity": 0, "duration": 73}, {"note": 77, "velocity": 86, "duration": 69}, {"note": 77, "velocity": 89, "duration": 301}, {"note": 72, "velocity": 87, "duration": 120}, {"note": 72, "velocity": 87, "duration": 327}, {"note": 0, "velocity": 0, "duration": 393}, {"note": 72, "velocity": 89, "duration": 63}, {"note": 72, "velocity": 86, "duration": 78}, {"note": 77, "velocity": 85, "duration": 70}, {"note": 79, "velocity": 81, "duration": 155}, {"note": 0, "velocity": 0, "duration": 85}, {"note": 79, "velocity": 81, "duration": 60}, {"note": 79, "velocity": 86, "duration": 334}, {"note": 72, "velocity": 87, "duration": 120}, {"note": 73, "velocity": 87, "duration": 399}, {"note": 0, "velocity": 0, "duration": 201}, {"note": 79, "velocity": 88, "duration": 189}, {"note": 81, "velocity": 87, "duration": 182}, {"note": 79, "velocity": 87, "duration": 214}, {"note": 77, "velocity": 85, "duration": 64}, {"note": 77, "velocity": 86, "duration": 377}, {"note": 0, "velocity": 0, "duration": 103}, {"note": 77, "velocity": 87, "duration": 94}, {"note": 76, "velocity": 91, "duration": 179}, {"note": 0, "velocity": 0, "duration": 61}, {"note": 77, "velocity": 86, "duration": 218}, {"note": 76, "velocity": 89, "duration": 224}, {"note": 72, "velocity": 86, "duration": 240}, {"note": 74, "velocity": 87, "duration": 404}, {"note": 0, "velocity": 0, "duration": 76}, {"note": 79, "velocity": 86, "duration": 984}, {"note": 0, "velocity": 0, "duration": 96}, {"note": 67, "velocity": 87, "duration": 64}, {"note": 67, "velocity": 86, "duration": 66}, {"note": 69, "velocity": 88, "duration": 71}, {"note": 70, "velocity": 86, "duration": 195}, {"note": 69, "velocity": 89, "duration": 194}, {"note": 70, "velocity": 87, "duration": 179}, {"note": 0, "velocity": 0, "duration": 61}, {"note": 74, "velocity": 86, "duration": 120}, {"note": 72, "velocity": 86, "duration": 600}, {"note": 0, "velocity": 0, "duration": 120}, {"note": 70, "velocity": 94, "duration": 77}, {"note": 69, "velocity": 89, "duration": 76}, {"note": 70, "velocity": 88, "duration": 84}, {"note": 72, "velocity": 85, "duration": 172}, {"note": 0, "velocity": 0, "duration": 68}, {"note": 72, "velocity": 91, "duration": 166}, {"note": 0, "velocity": 0, "duration": 74}, {"note": 79, "velocity": 89, "duration": 175}, {"note": 0, "velocity": 0, "duration": 65}, {"note": 76, "velocity": 90, "duration": 73}, {"note": 77, "velocity": 88, "duration": 283}, {"note": 0, "velocity": 0, "duration": 77}, {"note": 77, "velocity": 86, "duration": 183}, {"note": 77, "velocity": 86, "duration": 185}, {"note": 72, "velocity": 87, "duration": 159}, {"note": 0, "velocity": 0, "duration": 81}, {"note": 70, "velocity": 87, "duration": 214}, {"note": 69, "velocity": 84, "duration": 74}, {"note": 70, "velocity": 87, "duration": 360}, {"note": 72, "velocity": 91, "duration": 192}, {"note": 74, "velocity": 96, "duration": 210}, {"note": 81, "velocity": 87, "duration": 178}, {"note": 0, "velocity": 0, "duration": 62}, {"note": 79, "velocity": 87, "duration": 192}, {"note": 77, "velocity": 84, "duration": 72}, {"note": 79, "velocity": 89, "duration": 1560}, {"note": 69, "velocity": 86, "duration": 96}, {"note": 72, "velocity": 86, "duration": 54}, {"note": 0, "velocity": 0, "duration": 66}, {"note": 72, "velocity": 88, "duration": 73}, {"note": 76, "velocity": 87, "duration": 79}, {"note": 77, "velocity": 88, "duration": 167}, {"note": 0, "velocity": 0, "duration": 73}, {"note": 77, "velocity": 86, "duration": 69}, {"note": 77, "velocity": 89, "duration": 301}, {"note": 72, "velocity": 87, "duration": 120}, {"note": 72, "velocity": 87, "duration": 327}, {"note": 0, "velocity": 0, "duration": 393}, {"note": 72, "velocity": 89, "duration": 63}, {"note": 72, "velocity": 86, "duration": 78}, {"note": 77, "velocity": 85, "duration": 70}, {"note": 79, "velocity": 81, "duration": 155}, {"note": 0, "velocity": 0, "duration": 85}, {"note": 79, "velocity": 81, "duration": 60}, {"note": 79, "velocity": 86, "duration": 334}, {"note": 72, "velocity": 87, "duration": 120}, {"note": 73, "velocity": 87, "duration": 399}, {"note": 0, "velocity": 0, "duration": 201}, {"note": 79, "velocity": 88, "duration": 189}, {"note": 81, "velocity": 87, "duration": 182}, {"note": 79, "velocity": 87, "duration": 214}, {"note": 77, "velocity": 85, "duration": 64}, {"note": 77, "velocity": 86, "duration": 377}, {"note": 0, "velocity": 0, "duration": 103}, {"note": 77, "velocity": 87, "duration": 94}, {"note": 76, "velocity": 91, "duration": 179}, {"note": 0, "velocity": 0, "duration": 61}, {"note": 77, "velocity": 86, "duration": 218}, {"note": 76, "velocity": 89, "duration": 224}, {"note": 72, "velocity": 86, "duration": 240}, {"note": 74, "velocity": 87, "duration": 240}, {"note": 81, "velocity": 86, "duration": 240}, {"note": 81, "velocity": 86, "duration": 984}, {"note": 0, "velocity": 0, "duration": 96}, {"note": 69, "velocity": 90, "duration": 88}, {"note": 70, "velocity": 90, "duration": 97}, {"note": 72, "velocity": 85, "duration": 67}, {"note": 74, "velocity": 101, "duration": 216}, {"note": 72, "velocity": 87, "duration": 172}, {"note": 0, "velocity": 0, "duration": 68}, {"note": 74, "velocity": 96, "duration": 181}, {"note": 77, "velocity": 85, "duration": 84}, {"note": 76, "velocity": 89, "duration": 660}, {"note": 76, "velocity": 94, "duration": 77}, {"note": 76, "velocity": 89, "duration": 76}, {"note": 74, "velocity": 88, "duration": 84}, {"note": 73, "velocity": 85, "duration": 172}, {"note": 0, "velocity": 0, "duration": 68}, {"note": 73, "velocity": 91, "duration": 166}, {"note": 0, "velocity": 0, "duration": 74}, {"note": 81, "velocity": 89, "duration": 175}, {"note": 0, "velocity": 0, "duration": 65}, {"note": 79, "velocity": 90, "duration": 73}, {"note": 77, "velocity": 88, "duration": 283}, {"note": 0, "velocity": 0, "duration": 77}, {"note": 77, "velocity": 86, "duration": 183}, {"note": 76, "velocity": 86, "duration": 185}, {"note": 72, "velocity": 87, "duration": 159}, {"note": 0, "velocity": 0, "duration": 81}, {"note": 70, "velocity": 87, "duration": 214}, {"note": 69, "velocity": 84, "duration": 74}, {"note": 70, "velocity": 87, "duration": 360}, {"note": 72, "velocity": 91, "duration": 192}, {"note": 74, "velocity": 96, "duration": 210}, {"note": 81, "velocity": 87, "duration": 178}, {"note": 0, "velocity": 0, "duration": 62}, {"note": 79, "velocity": 87, "duration": 192}, {"note": 77, "velocity": 84, "duration": 72}, {"note": 79, "velocity": 89, "duration": 840}, {"note": 0, "velocity": 0, "duration": 120}, {"note": 77, "velocity": 87, "duration": 77}, {"note": 77, "velocity": 87, "duration": 404}, {"note": 0, "velocity": 0, "duration": 76}, {"note": 76, "velocity": 89, "duration": 213}, {"note": 77, "velocity": 87, "duration": 79}, {"note": 77, "velocity": 84, "duration": 1929}]]