[[{"note": 67, "velocity": 84, "duration": 178}, {"note": 0, "velocity": 0, "duration": 62}, {"note": 67, "velocity": 85, "duration": 174}, {"note": 0, "velocity": 0, "duration": 66}, {"note": 67, "velocity": 85, "duration": 323}, {"note": 0, "velocity": 0, "duration": 157}, {"note": 67, "velocity": 82, "duration": 135}, {"note": 0, "velocity": 0, "duration": 105}, {"note": 67, "velocity": 85, "duration": 137}, {"note": 0, "velocity": 0, "duration": 103}, {"note": 67, "velocity": 85, "duration": 399}, {"note": 0, "velocity": 0, "duration": 81}, {"note": 69, "velocity": 84, "duration": 200}, {"note": 64, "velocity": 86, "duration": 204}, {"note": 65, "velocity": 84, "duration": 716}, {"note": 62, "velocity": 83, "duration": 169}, {"note": 0, "velocity": 0, "duration": 71}, {"note": 64, "velocity": 87, "duration": 140}, {"note": 0, "velocity": 0, "duration": 100}, {"note": 65, "velocity": 83, "duration": 167}, {"note": 0, "velocity": 0, "duration": 73}, {"note": 65, "velocity": 87, "duration": 317}, {"note": 0, "velocity": 0, "duration": 403}, {"note": 65, "velocity": 84, "duration": 183}, {"note": 55, "velocity": 82, "duration": 208}, {"note": 65, "velocity": 86, "duration": 187}, {"note": 64, "velocity": 86, "duration": 1737}, {"note": 0, "velocity": 0, "duration": 663}, {"note": 62, "velocity": 79, "duration": 166}, {"note": 0, "velocity": 0, "duration": 74}, {"note": 62, "velocity": 83, "duration": 184}, {"note": 65, "velocity": 84, "duration": 434}, {"note": 64, "velocity": 86, "duration": 213}, {"note": 62, "velocity": 85, "duration": 211}, {"note": 60, "velocity": 86, "duration": 328}, {"note": 0, "velocity": 0, "duration": 152}, {"note": 60, "velocity": 82, "duration": 174}, {"note": 0, "velocity": 0, "duration": 66}, {"note": 60, "velocity": 83, "duration": 176}, {"note": 0, "velocity": 0, "duration": 64}, {"note": 64, "velocity": 88, "duration": 440}, {"note": 67, "velocity": 85, "duration": 167}, {"note": 0, "velocity": 0, "duration": 73}, {"note": 71, "velocity": 84, "duration": 189}, {"note": 72, "velocity": 86, "duration": 335}, {"note": 0, "velocity": 0, "duration": 145}, {"note": 60, "velocity": 85, "duration": 174}, {"note": 0, "velocity": 0, "duration": 66}, {"note": 69, "velocity": 85, "duration": 157}, {"note": 0, "velocity": 0, "duration": 83}, {"note": 69, "velocity": 86, "duration": 390}, {"note": 0, "velocity": 0, "duration": 90}, {"note": 60, "velocity": 85, "duration": 173}, {"note": 0, "velocity": 0, "duration": 67}, {"note": 62, "velocity": 85, "duration": 187}, {"note": 62, "velocity": 85, "duration": 1254}, {"note": 0, "velocity": 0, "duration": 1146}, {"note": 67, "velocity": 84, "duration": 178}, {"note": 0, "velocity": 0, "duration": 62}, {"note": 67, "velocity": 85, "duration": 174}, {"note": 0, "velocity": 0, "duration": 66}, {"note": 67, "velocity": 85, "duration": 240}, {"note": 67, "velocity": 85, "duration": 240}, {"note": 67, "velocity": 82, "duration": 135}, {"note": 0, "velocity": 0, "duration": 345}, {"note": 67, "velocity": 85, "duration": 240}, {"note": 67, "velocity": 85, "duration": 137}, {"note": 0, "velocity": 0, "duration": 103}, {"note": 72, "velocity": 84, "duration": 200}, {"note": 72, "velocity": 86, "duration": 204}, {"note": 64, "velocity": 84, "duration": 240}, {"note": 65, "velocity": 84, "duration": 476}, {"note": 62, "velocity": 83, "duration": 169}, {"note": 0, "velocity": 0, "duration": 71}, {"note": 64, "velocity": 87, "duration": 140}, {"note": 0, "velocity": 0, "duration": 100}, {"note": 65, "velocity": 83, "duration": 167}, {"note": 0, "velocity": 0, "duration": 73}, {"note": 65, "velocity": 87, "duration": 317}, {"note": 0, "velocity": 0, "duration": 163}, {"note": 65, "velocity": 85, "duration": 240}, {"note": 65, "velocity": 84, "duration": 183}, {"note": 72, "velocity": 82, "duration": 208}, {"note": 72, "velocity": 86, "duration": 187}, {"note": 62, "velocity": 85, "duration": 240}, {"note": 64, "velocity": 86, "duration": 1497}, {"note": 0, "velocity": 0, "duration": 663}, {"note": 62, "velocity": 79, "duration": 166}, {"note": 0, "velocity": 0, "duration": 74}, {"note": 62, "velocity": 83, "duration": 184}, {"note": 65, "velocity": 84, "duration": 434}, {"note": 64, "velocity": 86, "duration": 213}, {"note": 62, "velocity": 85, "duration": 211}, {"note": 60, "velocity": 86, "duration": 328}, {"note": 0, "velocity": 0, "duration": 152}, {"note": 60, "velocity": 82, "duration": 174}, {"note": 0, "velocity": 0, "duration": 66}, {"note": 60, "velocity": 83, "duration": 176}, {"note": 0, "velocity": 0, "duration": 64}, {"note": 64, "velocity": 88, "duration": 440}, {"note": 67, "velocity": 85, "duration": 167}, {"note": 0, "velocity": 0, "duration": 73}, {"note": 71, "velocity": 84, "duration": 189}, {"note": 72, "velocity": 86, "duration": 335}, {"note": 0, "velocity": 0, "duration": 145}, {"note": 60, "velocity": 85, "duration": 174}, {"note": 0, "velocity": 0, "duration": 66}, {"note": 69, "velocity": 85, "duration": 157}, {"note": 0, "velocity": 0, "duration": 83}, {"note": 69, "velocity": 86, "duration": 390}, {"note": 0, "velocity": 0, "duration": 90}, {"note": 60, "velocity": 85, "duration": 173}, {"note": 0, "velocity": 0, "duration": 67}, {"note": 64, "velocity": 85, "duration": 187}, {"note": 62, "velocity": 85, "duration": 960}, {"note": 67, "velocity": 82, "duration": 178}, {"note": 0, "velocity": 0, "duration": 62}, {"note": 69, "velocity": 86, "duration": 187}, {"note": 72, "velocity": 85, "duration": 165}, {"note": 0, "velocity": 0, "duration": 75}, {"note": 72, "velocity": 85, "duration": 194}, {"note": 69, "velocity": 85, "duration": 177}, {"note": 0, "velocity": 0, "duration": 63}, {"note": 74, "velocity": 89, "duration": 287}, {"note": 0, "velocity": 0, "duration": 193}, {"note": 74, "velocity": 88, "duration": 178}, {"note": 0, "velocity": 0, "duration": 62}, {"note": 71, "velocity": 84, "duration": 160}, {"note": 0, "velocity": 0, "duration": 80}, {"note": 74, "velocity": 87, "duration": 170}, {"note": 0, "velocity": 0, "duration": 70}, {"note": 76, "velocity": 85, "duration": 167}, {"note": 0, "velocity": 0, "duration": 73}, {"note": 76, "velocity": 85, "duration": 199}, {"note": 71, "velocity": 85, "duration": 177}, {"note": 0, "velocity": 0, "duration": 63}, {"note": 72, "velocity": 81, "duration": 483}, {"note": 0, "velocity": 0, "duration": 237}, {"note": 72, "velocity": 87, "duration": 164}, {"note": 0, "velocity": 0, "duration": 76}, {"note": 71, "velocity": 84, "duration": 224}, {"note": 67, "velocity": 85, "duration": 174}, {"note": 0, "velocity": 0, "duration": 66}, {"note": 69, "velocity": 83, "duration": 167}, {"note": 0, "velocity": 0, "duration": 73}, {"note": 69, "velocity": 85, "duration": 455}, {"note": 0, "velocity": 0, "duration": 265}, {"note": 69, "velocity": 85, "duration": 178}, {"note": 0, "velocity": 0, "duration": 62}, {"note": 67, "velocity": 85, "duration": 174}, {"note": 0, "velocity": 0, "duration": 66}, {"note": 69, "velocity": 88, "duration": 176}, {"note": 0, "velocity": 0, "duration": 64}, {"note": 64, "velocity": 86, "duration": 191}, {"note": 64, "velocity": 85, "duration": 220}, {"note": 62, "velocity": 86, "duration": 189}, {"note": 64, "velocity": 85, "duration": 564}, {"note": 0, "velocity": 0, "duration": 156}, {"note": 67, "velocity": 86, "duration": 173}, {"note": 0, "velocity": 0, "duration": 67}, {"note": 67, "velocity": 84, "duration": 172}, {"note": 0, "velocity": 0, "duration": 68}, {"note": 72, "velocity": 86, "duration": 185}, {"note": 77, "velocity": 84, "duration": 188}, {"note": 76, "velocity": 87, "duration": 169}, {"note": 0, "velocity": 0, "duration": 71}, {"note": 74, "velocity": 90, "duration": 354}, {"note": 0, "velocity": 0, "duration": 126}, {"note": 74, "velocity": 89, "duration": 201}, {"note": 71, "velocity": 85, "duration": 186}, {"note": 74, "velocity": 90, "duration": 190}, {"note": 76, "velocity": 84, "duration": 158}, {"note": 0, "velocity": 0, "duration": 82}, {"note": 76, "velocity": 86, "duration": 174}, {"note": 0, "velocity": 0, "duration": 66}, {"note": 71, "velocity": 86, "duration": 180}, {"note": 72, "velocity": 85, "duration": 521}, {"note": 0, "velocity": 0, "duration": 199}, {"note": 72, "velocity": 85, "duration": 188}, {"note": 71, "velocity": 86, "duration": 181}, {"note": 76, "velocity": 85, "duration": 164}, {"note": 0, "velocity": 0, "duration": 76}, {"note": 76, "velocity": 86, "duration": 167}, {"note": 0, "velocity": 0, "duration": 73}, {"note": 71, "velocity": 84, "duration": 184}, {"note": 69, "velocity": 84, "duration": 381}, {"note": 0, "velocity": 0, "duration": 99}, {"note": 69, "velocity": 86, "duration": 161}, {"note": 0, "velocity": 0, "duration": 79}, {"note": 71, "velocity": 85, "duration": 158}, {"note": 0, "velocity": 0, "duration": 82}, {"note": 72, "velocity": 85, "duration": 155}, {"note": 0, "velocity": 0, "duration": 85}, {"note": 79, "velocity": 84, "duration": 174}, {"note": 0, "velocity": 0, "duration": 66}, {"note": 76, "velocity": 85, "duration": 157}, {"note": 0, "velocity": 0, "duration": 83}, {"note": 77, "velocity": 84, "duration": 178}, {"note": 0, "velocity": 0, "duration": 62}, {"note": 76, "velocity": 85, "duration": 211}, {"note": 74, "velocity": 88, "duration": 471}, {"note": 67, "velocity": 82, "duration": 178}, {"note": 0, "velocity": 0, "duration": 62}, {"note": 69, "velocity": 86, "duration": 187}, {"note": 72, "velocity": 85, "duration": 165}, {"note": 0, "velocity": 0, "duration": 75}, {"note": 72, "velocity": 85, "duration": 194}, {"note": 69, "velocity": 85, "duration": 177}, {"note": 0, "velocity": 0, "duration": 63}, {"note": 74, "velocity": 89, "duration": 287}, {"note": 0, "velocity": 0, "duration": 193}, {"note": 74, "velocity": 88, "duration": 178}, {"note": 0, "velocity": 0, "duration": 62}, {"note": 71, "velocity": 84, "duration": 160}, {"note": 0, "velocity": 0, "duration": 80}, {"note": 74, "velocity": 87, "duration": 170}, {"note": 0, "velocity": 0, "duration": 70}, {"note": 76, "velocity": 85, "duration": 167}, {"note": 0, "velocity": 0, "duration": 73}, {"note": 76, "velocity": 85, "duration": 199}, {"note": 71, "velocity": 85, "duration": 177}, {"note": 0, "velocity": 0, "duration": 63}, {"note": 72, "velocity": 81, "duration": 483}, {"note": 0, "velocity": 0, "duration": 237}, {"note": 72, "velocity": 87, "duration": 164}, {"note": 0, "velocity": 0, "duration": 76}, {"note": 71, "velocity": 84, "duration": 224}, {"note": 67, "velocity": 85, "duration": 174}, {"note": 0, "velocity": 0, "duration": 66}, {"note": 69, "velocity": 83, "duration": 167}, {"note": 0, "velocity": 0, "duration": 73}, {"note": 69, "velocity": 85, "duration": 455}, {"note": 0, "velocity": 0, "duration": 265}, {"note": 69, "velocity": 85, "duration": 178}, {"note": 0, "velocity": 0, "duration": 62}, {"note": 67, "velocity": 85, "duration": 174}, {"note": 0, "velocity": 0, "duration": 66}, {"note": 69, "velocity": 88, "duration": 176}, {"note": 0, "velocity": 0, "duration": 64}, {"note": 64, "velocity": 86, "duration": 191}, {"note": 64, "velocity": 85, "duration": 220}, {"note": 62, "velocity": 86, "duration": 189}, {"note": 64, "velocity": 85, "duration": 564}, {"note": 0, "velocity": 0, "duration": 156}, {"note": 67, "velocity": 86, "duration": 173}, {"note": 0, "velocity": 0, "duration": 67}, {"note": 67, "velocity": 84, "duration": 172}, {"note": 0, "velocity": 0, "duration": 68}, {"note": 72, "velocity": 86, "duration": 185}, {"note": 77, "velocity": 84, "duration": 188}, {"note": 76, "velocity": 87, "duration": 169}, {"note": 0, "velocity": 0, "duration": 71}, {"note": 74, "velocity": 90, "duration": 354}, {"note": 0, "velocity": 0, "duration": 126}, {"note": 74, "velocity": 89, "duration": 201}, {"note": 71, "velocity": 85, "duration": 186}, {"note": 74, "velocity": 90, "duration": 190}, {"note": 76, "velocity": 84, "duration": 158}, {"note": 0, "velocity": 0, "duration": 82}, {"note": 76, "velocity": 86, "duration": 174}, {"note": 0, "velocity": 0, "duration": 66}, {"note": 71, "velocity": 86, "duration": 180}, {"note": 72, "velocity": 85, "duration": 521}, {"note": 0, "velocity": 0, "duration": 199}, {"note": 72, "velocity": 85, "duration": 188}, {"note": 71, "velocity": 86, "duration": 181}, {"note": 76, "velocity": 85, "duration": 164}, {"note": 0, "velocity": 0, "duration": 76}, {"note": 76, "velocity": 86, "duration": 167}, {"note": 0, "velocity": 0, "duration": 73}, {"note": 71, "velocity": 84, "duration": 184}, {"note": 69, "velocity": 84, "duration": 381}, {"note": 0, "velocity": 0, "duration": 99}, {"note": 69, "velocity": 86, "duration": 161}, {"note": 0, "velocity": 0, "duration": 79}, {"note": 72, "velocity": 85, "duration": 158}, {"note": 0, "velocity": 0, "duration": 82}, {"note": 76, "velocity": 85, "duration": 155}, {"note": 0, "velocity": 0, "duration": 85}, {"note": 77, "velocity": 84, "duration": 174}, {"note": 0, "velocity": 0, "duration": 66}, {"note": 74, "velocity": 85, "duration": 960}, {"note": 0, "velocity": 0, "duration": 240}, {"note": 71, "velocity": 86, "duration": 231}, {"note": 72, "velocity": 85, "duration": 1090}, {"note": 0, "velocity": 0, "duration": 1070}, {"note": 67, "velocity": 84, "duration": 178}, {"note": 0, "velocity": 0, "duration": 62}, {"note": 67, "velocity": 85, "duration": 174}, {"note": 0, "velocity": 0, "duration": 66}, {"note": 67, "velocity": 85, "duration": 240}, {"note": 67, "velocity": 85, "duration": 240}, {"note": 67, "velocity": 82, "duration": 135}, {"note": 0, "velocity": 0, "duration": 345}, {"note": 67, "velocity": 85, "duration": 240}, {"note": 67, "velocity": 85, "duration": 137}, {"note": 0, "velocity": 0, "duration": 103}, {"note": 72, "velocity": 84, "duration": 200}, {"note": 72, "velocity": 86, "duration": 204}, {"note": 64, "velocity": 84, "duration": 240}, {"note": 65, "velocity": 84, "duration": 476}, {"note": 62, "velocity": 83, "duration": 169}, {"note": 0, "velocity": 0, "duration": 71}, {"note": 64, "velocity": 87, "duration": 140}, {"note": 0, "velocity": 0, "duration": 100}, {"note": 65, "velocity": 83, "duration": 167}, {"note": 0, "velocity": 0, "duration": 73}, {"note": 65, "velocity": 87, "duration": 317}, {"note": 0, "velocity": 0, "duration": 163}, {"note": 65, "velocity": 85, "duration": 240}, {"note": 65, "velocity": 84, "duration": 183}, {"note": 72, "velocity": 82, "duration": 208}, {"note": 72, "velocity": 86, "duration": 187}, {"note": 62, "velocity": 85, "duration": 240}, {"note": 64, "velocity": 86, "duration": 1497}, {"note": 0, "velocity": 0, "duration": 663}, {"note": 62, "velocity": 79, "duration": 166}, {"note": 0, "velocity": 0, "duration": 74}, {"note": 62, "velocity": 83, "duration": 184}, {"note": 65, "velocity": 84, "duration": 434}, {"note": 64, "velocity": 86, "duration": 213}, {"note": 62, "velocity": 85, "duration": 211}, {"note": 60, "velocity": 86, "duration": 328}, {"note": 0, "velocity": 0, "duration": 152}, {"note": 60, "velocity": 82, "duration": 174}, {"note": 0, "velocity": 0, "duration": 66}, {"note": 60, "velocity": 83, "duration": 176}, {"note": 0, "velocity": 0, "duration": 64}, {"note": 64, "velocity": 88, "duration": 440}, {"note": 67, "velocity": 85, "duration": 167}, {"note": 0, "velocity": 0, "duration": 73}, {"note": 71, "velocity": 84, "duration": 189}, {"note": 72, "velocity": 86, "duration": 335}, {"note": 0, "velocity": 0, "duration": 145}, {"note": 60, "velocity": 85, "duration": 174}, {"note": 0, "velocity": 0, "duration": 66}, {"note": 69, "velocity": 85, "duration": 157}, {"note": 0, "velocity": 0, "duration": 83}, {"note": 69, "velocity": 86, "duration": 390}, {"note": 0, "velocity": 0, "duration": 90}, {"note": 72, "velocity": 85, "duration": 173}, {"note": 0, "velocity": 0, "duration": 67}, {"note": 69, "velocity": 85, "duration": 187}, {"note": 74, "velocity": 85, "duration": 960}, {"note": 67, "velocity": 82, "duration": 178}, {"note": 0, "velocity": 0, "duration": 62}, {"note": 69, "velocity": 86, "duration": 187}, {"note": 72, "velocity": 85, "duration": 165}, {"note": 0, "velocity": 0, "duration": 75}, {"note": 72, "velocity": 85, "duration": 194}, {"note": 69, "velocity": 85, "duration": 177}, {"note": 0, "velocity": 0, "duration": 63}, {"note": 74, "velocity": 89, "duration": 287}, {"note": 0, "velocity": 0, "duration": 193}, {"note": 74, "velocity": 88, "duration": 178}, {"note": 0, "velocity": 0, "duration": 62}, {"note": 71, "velocity": 84, "duration": 160}, {"note": 0, "velocity": 0, "duration": 80}, {"note": 74, "velocity": 87, "duration": 170}, {"note": 0, "velocity": 0, "duration": 70}, {"note": 76, "velocity": 85, "duration": 167}, {"note": 0, "velocity": 0, "duration": 73}, {"note": 76, "velocity": 85, "duration": 199}, {"note": 71, "velocity": 85, "duration": 177}, {"note": 0, "velocity": 0, "duration": 63}, {"note": 72, "velocity": 81, "duration": 483}, {"note": 0, "velocity": 0, "duration": 237}, {"note": 72, "velocity": 87, "duration": 164}, {"note": 0, "velocity": 0, "duration": 76}, {"note": 71, "velocity": 84, "duration": 224}, {"note": 67, "velocity": 85, "duration": 174}, {"note": 0, "velocity": 0, "duration": 66}, {"note": 69, "velocity": 83, "duration": 167}, {"note": 0, "velocity": 0, "duration": 73}, {"note": 69, "velocity": 85, "duration": 455}, {"note": 0, "velocity": 0, "duration": 265}, {"note": 69, "velocity": 85, "duration": 178}, {"note": 0, "velocity": 0, "duration": 62}, {"note": 67, "velocity": 85, "duration": 174}, {"note": 0, "velocity": 0, "duration": 66}, {"note": 69, "velocity": 88, "duration": 176}, {"note": 0, "velocity": 0, "duration": 64}, {"note": 64, "velocity": 86, "duration": 191}, {"note": 64, "velocity": 85, "duration": 220}, {"note": 62, "velocity": 86, "duration": 189}, {"note": 64, "velocity": 85, "duration": 564}, {"note": 0, "velocity": 0, "duration": 156}, {"note": 67, "velocity": 86, "duration": 173}, {"note": 0, "velocity": 0, "duration": 67}, {"note": 67, "velocity": 84, "duration": 172}, {"note": 0, "velocity": 0, "duration": 68}, {"note": 72, "velocity": 86, "duration": 185}, {"note": 77, "velocity": 84, "duration": 188}, {"note": 76, "velocity": 87, "duration": 169}, {"note": 0, "velocity": 0, "duration": 71}, {"note": 74, "velocity": 90, "duration": 354}, {"note": 0, "velocity": 0, "duration": 126}, {"note": 74, "velocity": 89, "duration": 201}, {"note": 71, "velocity": 85, "duration": 186}, {"note": 74, "velocity": 90, "duration": 190}, {"note": 76, "velocity": 84, "duration": 158}, {"note": 0, "velocity": 0, "duration": 82}, {"note": 76, "velocity": 86, "duration": 174}, {"note": 0, "velocity": 0, "duration": 66}, {"note": 71, "velocity": 86, "duration": 180}, {"note": 72, "velocity": 85, "duration": 521}, {"note": 0, "velocity": 0, "duration": 199}, {"note": 72, "velocity": 85, "duration": 188}, {"note": 71, "velocity": 86, "duration": 181}, {"note": 76, "velocity": 85, "duration": 164}, {"note": 0, "velocity": 0, "duration": 76}, {"note": 76, "velocity": 86, "duration": 167}, {"note": 0, "velocity": 0, "duration": 73}, {"note": 71, "velocity": 84, "duration": 184}, {"note": 69, "velocity": 84, "duration": 381}, {"note": 0, "velocity": 0, "duration": 99}, {"note": 69, "velocity": 86, "duration": 161}, {"note": 0, "velocity": 0, "duration": 79}, {"note": 71, "velocity": 85, "duration": 158}, {"note": 0, "velocity": 0, "duration": 82}, {"note": 72, "velocity": 85, "duration": 155}, {"note": 0, "velocity": 0, "duration": 85}, {"note": 79, "velocity": 84, "duration": 174}, {"note": 0, "velocity": 0, "duration": 66}, {"note": 76, "velocity": 85, "duration": 157}, {"note": 0, "velocity": 0, "duration": 83}, {"note": 77, "velocity": 84, "duration": 178}, {"note": 0, "velocity": 0, "duration": 62}, {"note": 76, "velocity": 85, "duration": 211}, {"note": 74, "velocity": 88, "duration": 471}, {"note": 67, "velocity": 82, "duration": 178}, {"note": 0, "velocity": 0, "duration": 62}, {"note": 69, "velocity": 86, "duration": 187}, {"note": 72, "velocity": 85, "duration": 165}, {"note": 0, "velocity": 0, "duration": 75}, {"note": 72, "velocity": 85, "duration": 194}, {"note": 69, "velocity": 85, "duration": 177}, {"note": 0, "velocity": 0, "duration": 63}, {"note": 74, "velocity": 89, "duration": 287}, {"note": 0, "velocity": 0, "duration": 193}, {"note": 74, "velocity": 88, "duration": 178}, {"note": 0, "velocity": 0, "duration": 62}, {"note": 71, "velocity": 84, "duration": 160}, {"note": 0, "velocity": 0, "duration": 80}, {"note": 74, "velocity": 87, "duration": 170}, {"note": 0, "velocity": 0, "duration": 70}, {"note": 76, "velocity": 85, "duration": 167}, {"note": 0, "velocity": 0, "duration": 73}, {"note": 76, "velocity": 85, "duration": 199}, {"note": 71, "velocity": 85, "duration": 177}, {"note": 0, "velocity": 0, "duration": 63}, {"note": 72, "velocity": 81, "duration": 483}, {"note": 0, "velocity": 0, "duration": 237}, {"note": 72, "velocity": 87, "duration": 164}, {"note": 0, "velocity": 0, "duration": 76}, {"note": 71, "velocity": 84, "duration": 224}, {"note": 67, "velocity": 85, "duration": 174}, {"note": 0, "velocity": 0, "duration": 66}, {"note": 69, "velocity": 83, "duration": 167}, {"note": 0, "velocity": 0, "duration": 73}, {"note": 69, "velocity": 85, "duration": 455}, {"note": 0, "velocity": 0, "duration": 265}, {"note": 69, "velocity": 85, "duration": 178}, {"note": 0, "velocity": 0, "duration": 62}, {"note": 67, "velocity": 85, "duration": 174}, {"note": 0, "velocity": 0, "duration": 66}, {"note": 69, "velocity": 88, "duration": 176}, {"note": 0, "velocity": 0, "duration": 64}, {"note": 64, "velocity": 86, "duration": 191}, {"note": 64, "velocity": 85, "duration": 220}, {"note": 62, "velocity": 86, "duration": 189}, {"note": 64, "velocity": 85, "duration": 564}, {"note": 0, "velocity": 0, "duration": 156}, {"note": 67, "velocity": 86, "duration": 173}, {"note": 0, "velocity": 0, "duration": 67}, {"note": 67, "velocity": 84, "duration": 172}, {"note": 0, "velocity": 0, "duration": 68}, {"note": 72, "velocity": 86, "duration": 185}, {"note": 77, "velocity": 84, "duration": 188}, {"note": 76, "velocity": 87, "duration": 169}, {"note": 0, "velocity": 0, "duration": 71}, {"note": 74, "velocity": 90, "duration": 354}, {"note": 0, "velocity": 0, "duration": 126}, {"note": 74, "velocity": 89, "duration": 201}, {"note": 71, "velocity": 85, "duration": 186}, {"note": 74, "velocity": 90, "duration": 190}, {"note": 76, "velocity": 84, "duration": 158}, {"note": 0, "velocity": 0, "duration": 82}, {"note": 76, "velocity": 86, "duration": 174}, {"note": 0, "velocity": 0, "duration": 66}, {"note": 71, "velocity": 86, "duration": 180}, {"note": 72, "velocity": 85, "duration": 521}, {"note": 0, "velocity": 0, "duration": 199}, {"note": 72, "velocity": 85, "duration": 188}, {"note": 71, "velocity": 86, "duration": 181}, {"note": 76, "velocity": 85, "duration": 164}, {"note": 0, "velocity": 0, "duration": 76}, {"note": 76, "velocity": 86, "duration": 167}, {"note": 0, "velocity": 0, "duration": 73}, {"note": 71, "velocity": 84, "duration": 184}, {"note": 69, "velocity": 84, "duration": 381}, {"note": 0, "velocity": 0, "duration": 99}, {"note": 69, "velocity": 86, "duration": 161}, {"note": 0, "velocity": 0, "duration": 79}, {"note": 72, "velocity": 85, "duration": 158}, {"note": 0, "velocity": 0, "duration": 82}, {"note": 76, "velocity": 85, "duration": 155}, {"note": 0, "velocity": 0, "duration": 85}, {"note": 77, "velocity": 84, "duration": 174}, {"note": 0, "velocity": 0, "duration": 66}, {"note": 74, "velocity": 85, "duration": 240}, {"note": 72, "velocity": 86, "duration": 231}, {"note": 72, "velocity": 85, "duration": 1440}, {"note": 0, "velocity": 0, "duration": 5040}, {"note": 67, "velocity": 82, "duration": 178}, {"note": 0, "velocity": 0, "duration": 62}, {"note": 69, "velocity": 86, "duration": 187}, {"note": 72, "velocity": 85, "duration": 165}, {"note": 0, "velocity": 0, "duration": 75}, {"note": 72, "velocity": 85, "duration": 194}, {"note": 69, "velocity": 85, "duration": 177}, {"note": 0, "velocity": 0, "duration": 63}, {"note": 74, "velocity": 89, "duration": 287}, {"note": 0, "velocity": 0, "duration": 193}, {"note": 74, "velocity": 88, "duration": 178}, {"note": 0, "velocity": 0, "duration": 62}, {"note": 71, "velocity": 84, "duration": 160}, {"note": 0, "velocity": 0, "duration": 80}, {"note": 74, "velocity": 87, "duration": 170}, {"note": 0, "velocity": 0, "duration": 70}, {"note": 76, "velocity": 85, "duration": 167}, {"note": 0, "velocity": 0, "duration": 73}, {"note": 76, "velocity": 85, "duration": 199}, {"note": 71, "velocity": 85, "duration": 177}, {"note": 0, "velocity": 0, "duration": 63}, {"note": 72, "velocity": 81, "duration": 483}, {"note": 0, "velocity": 0, "duration": 237}, {"note": 72, "velocity": 87, "duration": 164}, {"note": 0, "velocity": 0, "duration": 76}, {"note": 71, "velocity": 84, "duration": 224}, {"note": 67, "velocity": 85, "duration": 174}, {"note": 0, "velocity": 0, "duration": 66}, {"note": 69, "velocity": 83, "duration": 167}, {"note": 0, "velocity": 0, "duration": 73}, {"note": 69, "velocity": 85, "duration": 455}, {"note": 0, "velocity": 0, "duration": 265}, {"note": 69, "velocity": 85, "duration": 178}, {"note": 0, "velocity": 0, "duration": 62}, {"note": 67, "velocity": 85, "duration": 174}, {"note": 0, "velocity": 0, "duration": 66}, {"note": 69, "velocity": 88, "duration": 176}, {"note": 0, "velocity": 0, "duration": 64}, {"note": 64, "velocity": 86, "duration": 191}, {"note": 64, "velocity": 85, "duration": 220}, {"note": 62, "velocity": 86, "duration": 189}, {"note": 64, "velocity": 85, "duration": 564}, {"note": 0, "velocity": 0, "duration": 156}, {"note": 67, "velocity": 86, "duration": 173}, {"note": 0, "velocity": 0, "duration": 67}, {"note": 67, "velocity": 84, "duration": 172}, {"note": 0, "velocity": 0, "duration": 68}, {"note": 72, "velocity": 86, "duration": 185}, {"note": 77, "velocity": 84, "duration": 188}, {"note": 76, "velocity": 87, "duration": 169}, {"note": 0, "velocity": 0, "duration": 71}, {"note": 74, "velocity": 90, "duration": 354}, {"note": 0, "velocity": 0, "duration": 126}, {"note": 74, "velocity": 89, "duration": 201}, {"note": 71, "velocity": 85, "duration": 186}, {"note": 74, "velocity": 90, "duration": 190}, {"note": 76, "velocity": 84, "duration": 158}, {"note": 0, "velocity": 0, "duration": 82}, {"note": 76, "velocity": 86, "duration": 174}, {"note": 0, "velocity": 0, "duration": 66}, {"note": 71, "velocity": 86, "duration": 180}, {"note": 72, "velocity": 85, "duration": 521}, {"note": 0, "velocity": 0, "duration": 199}, {"note": 72, "velocity": 85, "duration": 188}, {"note": 71, "velocity": 86, "duration": 181}, {"note": 76, "velocity": 85, "duration": 164}, {"note": 0, "velocity": 0, "duration": 76}, {"note": 76, "velocity": 86, "duration": 167}, {"note": 0, "velocity": 0, "duration": 73}, {"note": 71, "velocity": 84, "duration": 184}, {"note": 69, "velocity": 84, "duration": 381}, {"note": 0, "velocity": 0, "duration": 99}, {"note": 69, "velocity": 86, "duration": 161}, {"note": 0, "velocity": 0, "duration": 79}, {"note": 71, "velocity": 85, "duration": 158}, {"note": 0, "velocity": 0, "duration": 82}, {"note": 72, "velocity": 85, "duration": 155}, {"note": 0, "velocity": 0, "duration": 85}, {"note": 79, "velocity": 84, "duration": 174}, {"note": 0, "velocity": 0, "duration": 66}, {"note": 76, "velocity": 85, "duration": 157}, {"note": 0, "velocity": 0, "duration": 83}, {"note": 77, "velocity": 84, "duration": 178}, {"note": 0, "velocity": 0, "duration": 62}, {"note": 76, "velocity": 85, "duration": 211}, {"note": 74, "velocity": 88, "duration": 471}, {"note": 67, "velocity": 82, "duration": 178}, {"note": 0, "velocity": 0, "duration": 62}, {"note": 69, "velocity": 86, "duration": 187}, {"note": 72, "velocity": 85, "duration": 165}, {"note": 0, "velocity": 0, "duration": 75}, {"note": 72, "velocity": 85, "duration": 194}, {"note": 69, "velocity": 85, "duration": 177}, {"note": 0, "velocity": 0, "duration": 63}, {"note": 74, "velocity": 89, "duration": 287}, {"note": 0, "velocity": 0, "duration": 193}, {"note": 74, "velocity": 88, "duration": 178}, {"note": 0, "velocity": 0, "duration": 62}, {"note": 71, "velocity": 84, "duration": 160}, {"note": 0, "velocity": 0, "duration": 80}, {"note": 74, "velocity": 87, "duration": 170}, {"note": 0, "velocity": 0, "duration": 70}, {"note": 76, "velocity": 85, "duration": 167}, {"note": 0, "velocity": 0, "duration": 73}, {"note": 76, "velocity": 85, "duration": 199}, {"note": 71, "velocity": 85, "duration": 177}, {"note": 0, "velocity": 0, "duration": 63}, {"note": 72, "velocity": 81, "duration": 483}, {"note": 0, "velocity": 0, "duration": 237}, {"note": 72, "velocity": 87, "duration": 164}, {"note": 0, "velocity": 0, "duration": 76}, {"note": 71, "velocity": 84, "duration": 224}, {"note": 67, "velocity": 85, "duration": 174}, {"note": 0, "velocity": 0, "duration": 66}, {"note": 69, "velocity": 83, "duration": 167}, {"note": 0, "velocity": 0, "duration": 73}, {"note": 69, "velocity": 85, "duration": 455}, {"note": 0, "velocity": 0, "duration": 265}, {"note": 69, "velocity": 85, "duration": 178}, {"note": 0, "velocity": 0, "duration": 62}, {"note": 67, "velocity": 85, "duration": 174}, {"note": 0, "velocity": 0, "duration": 66}, {"note": 69, "velocity": 88, "duration": 176}, {"note": 0, "velocity": 0, "duration": 64}, {"note": 64, "velocity": 86, "duration": 191}, {"note": 64, "velocity": 85, "duration": 220}, {"note": 62, "velocity": 86, "duration": 189}, {"note": 64, "velocity": 85, "duration": 564}, {"note": 0, "velocity": 0, "duration": 156}, {"note": 67, "velocity": 86, "duration": 173}, {"note": 0, "velocity": 0, "duration": 67}, {"note": 67, "velocity": 84, "duration": 172}, {"note": 0, "velocity": 0, "duration": 68}, {"note": 72, "velocity": 86, "duration": 185}, {"note": 77, "velocity": 84, "duration": 188}, {"note": 76, "velocity": 87, "duration": 169}, {"note": 0, "velocity": 0, "duration": 71}, {"note": 74, "velocity": 90, "duration": 354}, {"note": 0, "velocity": 0, "duration": 126}, {"note": 74, "velocity": 89, "duration": 201}, {"note": 71, "velocity": 85, "duration": 186}, {"note": 74, "velocity": 90, "duration": 190}, {"note": 76, "velocity": 84, "duration": 158}, {"note": 0, "velocity": 0, "duration": 82}, {"note": 76, "velocity": 86, "duration": 174}, {"note": 0, "velocity": 0, "duration": 66}, {"note": 71, "velocity": 86, "duration": 180}, {"note": 72, "velocity": 85, "duration": 521}, {"note": 0, "velocity": 0, "duration": 199}, {"note": 72, "velocity": 85, "duration": 188}, {"note": 71, "velocity": 86, "duration": 181}, {"note": 76, "velocity": 85, "duration": 164}, {"note": 0, "velocity": 0, "duration": 76}, {"note": 76, "velocity": 86, "duration": 167}, {"note": 0, "velocity": 0, "duration": 73}, {"note": 71, "velocity": 84, "duration": 184}, {"note": 69, "velocity": 84, "duration": 381}, {"note": 0, "velocity": 0, "duration": 99}, {"note": 69, "velocity": 86, "duration": 161}, {"note": 0, "velocity": 0, "duration": 79}, {"note": 72, "velocity": 85, "duration": 158}, {"note": 0, "velocity": 0, "duration": 82}, {"note": 76, "velocity": 85, "duration": 155}, {"note": 0, "velocity": 0, "duration": 85}, {"note": 77, "velocity": 84, "duration": 174}, {"note": 0, "velocity": 0, "duration": 66}, {"note": 74, "velocity": 85, "duration": 960}, {"note": 0, "velocity": 0, "duration": 960}, {"note": 71, "velocity": 85, "duration": 240}, {"note": 72, "velocity": 86, "duration": 1920}]]