[[{"note": 75, "velocity": 85, "duration": 186}, {"note": 73, "velocity": 85, "duration": 193}, {"note": 75, "velocity": 85, "duration": 223}, {"note": 78, "velocity": 85, "duration": 607}, {"note": 0, "velocity": 0, "duration": 113}, {"note": 73, "velocity": 85, "duration": 281}, {"note": 0, "velocity": 0, "duration": 79}, {"note": 75, "velocity": 85, "duration": 88}, {"note": 73, "velocity": 86, "duration": 219}, {"note": 71, "velocity": 84, "duration": 1069}, {"note": 0, "velocity": 0, "duration": 611}, {"note": 75, "velocity": 85, "duration": 186}, {"note": 73, "velocity": 85, "duration": 193}, {"note": 75, "velocity": 85, "duration": 223}, {"note": 78, "velocity": 85, "duration": 607}, {"note": 0, "velocity": 0, "duration": 113}, {"note": 75, "velocity": 86, "duration": 199}, {"note": 78, "velocity": 84, "duration": 186}, {"note": 80, "velocity": 85, "duration": 958}, {"note": 78, "velocity": 84, "duration": 639}, {"note": 0, "velocity": 0, "duration": 81}, {"note": 75, "velocity": 86, "duration": 196}, {"note": 73, "velocity": 85, "duration": 171}, {"note": 0, "velocity": 0, "duration": 69}, {"note": 75, "velocity": 84, "duration": 154}, {"note": 0, "velocity": 0, "duration": 86}, {"note": 73, "velocity": 85, "duration": 164}, {"note": 0, "velocity": 0, "duration": 76}, {"note": 71, "velocity": 84, "duration": 193}, {"note": 68, "velocity": 84, "duration": 523}, {"note": 0, "velocity": 0, "duration": 197}, {"note": 80, "velocity": 79, "duration": 178}, {"note": 0, "velocity": 0, "duration": 62}, {"note": 78, "velocity": 83, "duration": 213}, {"note": 75, "velocity": 86, "duration": 898}, {"note": 0, "velocity": 0, "duration": 542}, {"note": 75, "velocity": 82, "duration": 174}, {"note": 0, "velocity": 0, "duration": 66}, {"note": 73, "velocity": 85, "duration": 161}, {"note": 0, "velocity": 0, "duration": 79}, {"note": 73, "velocity": 87, "duration": 144}, {"note": 0, "velocity": 0, "duration": 96}, {"note": 73, "velocity": 89, "duration": 167}, {"note": 0, "velocity": 0, "duration": 73}, {"note": 71, "velocity": 82, "duration": 185}, {"note": 68, "velocity": 85, "duration": 601}, {"note": 0, "velocity": 0, "duration": 119}, {"note": 78, "velocity": 85, "duration": 464}, {"note": 73, "velocity": 86, "duration": 1213}, {"note": 0, "velocity": 0, "duration": 467}, {"note": 75, "velocity": 85, "duration": 186}, {"note": 73, "velocity": 85, "duration": 193}, {"note": 75, "velocity": 85, "duration": 223}, {"note": 78, "velocity": 85, "duration": 607}, {"note": 0, "velocity": 0, "duration": 113}, {"note": 73, "velocity": 85, "duration": 281}, {"note": 0, "velocity": 0, "duration": 79}, {"note": 75, "velocity": 85, "duration": 88}, {"note": 73, "velocity": 86, "duration": 219}, {"note": 71, "velocity": 84, "duration": 1069}, {"note": 0, "velocity": 0, "duration": 611}, {"note": 75, "velocity": 85, "duration": 186}, {"note": 73, "velocity": 85, "duration": 193}, {"note": 75, "velocity": 85, "duration": 223}, {"note": 78, "velocity": 85, "duration": 607}, {"note": 0, "velocity": 0, "duration": 113}, {"note": 75, "velocity": 86, "duration": 199}, {"note": 78, "velocity": 84, "duration": 186}, {"note": 80, "velocity": 85, "duration": 958}, {"note": 78, "velocity": 84, "duration": 639}, {"note": 0, "velocity": 0, "duration": 81}, {"note": 75, "velocity": 86, "duration": 196}, {"note": 73, "velocity": 85, "duration": 171}, {"note": 0, "velocity": 0, "duration": 69}, {"note": 75, "velocity": 84, "duration": 154}, {"note": 0, "velocity": 0, "duration": 86}, {"note": 73, "velocity": 85, "duration": 164}, {"note": 0, "velocity": 0, "duration": 76}, {"note": 71, "velocity": 84, "duration": 193}, {"note": 68, "velocity": 84, "duration": 523}, {"note": 0, "velocity": 0, "duration": 197}, {"note": 80, "velocity": 79, "duration": 178}, {"note": 0, "velocity": 0, "duration": 62}, {"note": 78, "velocity": 83, "duration": 213}, {"note": 75, "velocity": 86, "duration": 898}, {"note": 0, "velocity": 0, "duration": 542}, {"note": 75, "velocity": 82, "duration": 174}, {"note": 0, "velocity": 0, "duration": 66}, {"note": 73, "velocity": 85, "duration": 161}, {"note": 0, "velocity": 0, "duration": 79}, {"note": 73, "velocity": 87, "duration": 144}, {"note": 0, "velocity": 0, "duration": 96}, {"note": 73, "velocity": 89, "duration": 167}, {"note": 0, "velocity": 0, "duration": 73}, {"note": 71, "velocity": 82, "duration": 185}, {"note": 68, "velocity": 85, "duration": 601}, {"note": 80, "velocity": 85, "duration": 464}, {"note": 78, "velocity": 86, "duration": 718}, {"note": 78, "velocity": 86, "duration": 186}, {"note": 83, "velocity": 85, "duration": 208}, {"note": 82, "velocity": 84, "duration": 246}, {"note": 78, "velocity": 84, "duration": 216}, {"note": 73, "velocity": 88, "duration": 216}, {"note": 75, "velocity": 84, "duration": 183}, {"note": 75, "velocity": 84, "duration": 167}, {"note": 0, "velocity": 0, "duration": 73}, {"note": 75, "velocity": 84, "duration": 197}, {"note": 73, "velocity": 84, "duration": 238}, {"note": 75, "velocity": 84, "duration": 607}, {"note": 0, "velocity": 0, "duration": 113}, {"note": 78, "velocity": 83, "duration": 395}, {"note": 0, "velocity": 0, "duration": 85}, {"note": 78, "velocity": 86, "duration": 345}, {"note": 0, "velocity": 0, "duration": 615}, {"note": 75, "velocity": 84, "duration": 177}, {"note": 0, "velocity": 0, "duration": 63}, {"note": 75, "velocity": 87, "duration": 156}, {"note": 0, "velocity": 0, "duration": 84}, {"note": 78, "velocity": 81, "duration": 183}, {"note": 83, "velocity": 86, "duration": 192}, {"note": 82, "velocity": 83, "duration": 177}, {"note": 0, "velocity": 0, "duration": 63}, {"note": 80, "velocity": 83, "duration": 138}, {"note": 0, "velocity": 0, "duration": 102}, {"note": 78, "velocity": 84, "duration": 215}, {"note": 75, "velocity": 85, "duration": 591}, {"note": 0, "velocity": 0, "duration": 129}, {"note": 73, "velocity": 84, "duration": 238}, {"note": 75, "velocity": 84, "duration": 717}, {"note": 0, "velocity": 0, "duration": 723}, {"note": 75, "velocity": 85, "duration": 212}, {"note": 73, "velocity": 88, "duration": 169}, {"note": 0, "velocity": 0, "duration": 71}, {"note": 75, "velocity": 87, "duration": 194}, {"note": 78, "velocity": 85, "duration": 992}, {"note": 0, "velocity": 0, "duration": 208}, {"note": 75, "velocity": 88, "duration": 263}, {"note": 0, "velocity": 0, "duration": 97}, {"note": 75, "velocity": 84, "duration": 90}, {"note": 73, "velocity": 90, "duration": 212}, {"note": 71, "velocity": 85, "duration": 1134}, {"note": 0, "velocity": 0, "duration": 306}, {"note": 71, "velocity": 86, "duration": 206}, {"note": 80, "velocity": 84, "duration": 351}, {"note": 0, "velocity": 0, "duration": 129}, {"note": 80, "velocity": 85, "duration": 156}, {"note": 0, "velocity": 0, "duration": 84}, {"note": 78, "velocity": 79, "duration": 144}, {"note": 0, "velocity": 0, "duration": 96}, {"note": 80, "velocity": 85, "duration": 164}, {"note": 0, "velocity": 0, "duration": 76}, {"note": 78, "velocity": 83, "duration": 369}, {"note": 0, "velocity": 0, "duration": 111}, {"note": 75, "velocity": 85, "duration": 169}, {"note": 0, "velocity": 0, "duration": 71}, {"note": 73, "velocity": 86, "duration": 593}, {"note": 0, "velocity": 0, "duration": 127}, {"note": 78, "velocity": 86, "duration": 186}, {"note": 83, "velocity": 85, "duration": 208}, {"note": 82, "velocity": 84, "duration": 246}, {"note": 78, "velocity": 84, "duration": 216}, {"note": 73, "velocity": 88, "duration": 216}, {"note": 75, "velocity": 84, "duration": 183}, {"note": 75, "velocity": 84, "duration": 167}, {"note": 0, "velocity": 0, "duration": 73}, {"note": 75, "velocity": 84, "duration": 197}, {"note": 73, "velocity": 84, "duration": 238}, {"note": 75, "velocity": 84, "duration": 607}, {"note": 0, "velocity": 0, "duration": 113}, {"note": 78, "velocity": 83, "duration": 395}, {"note": 0, "velocity": 0, "duration": 85}, {"note": 78, "velocity": 86, "duration": 345}, {"note": 0, "velocity": 0, "duration": 615}, {"note": 75, "velocity": 84, "duration": 177}, {"note": 0, "velocity": 0, "duration": 63}, {"note": 75, "velocity": 87, "duration": 156}, {"note": 0, "velocity": 0, "duration": 84}, {"note": 78, "velocity": 81, "duration": 183}, {"note": 83, "velocity": 86, "duration": 192}, {"note": 82, "velocity": 83, "duration": 177}, {"note": 0, "velocity": 0, "duration": 63}, {"note": 80, "velocity": 83, "duration": 138}, {"note": 0, "velocity": 0, "duration": 102}, {"note": 78, "velocity": 84, "duration": 215}, {"note": 75, "velocity": 85, "duration": 591}, {"note": 0, "velocity": 0, "duration": 129}, {"note": 73, "velocity": 84, "duration": 238}, {"note": 75, "velocity": 84, "duration": 717}, {"note": 0, "velocity": 0, "duration": 723}, {"note": 75, "velocity": 85, "duration": 212}, {"note": 73, "velocity": 88, "duration": 169}, {"note": 0, "velocity": 0, "duration": 71}, {"note": 75, "velocity": 87, "duration": 194}, {"note": 78, "velocity": 85, "duration": 992}, {"note": 0, "velocity": 0, "duration": 208}, {"note": 73, "velocity": 88, "duration": 263}, {"note": 0, "velocity": 0, "duration": 97}, {"note": 75, "velocity": 84, "duration": 90}, {"note": 73, "velocity": 90, "duration": 212}, {"note": 71, "velocity": 85, "duration": 1134}, {"note": 0, "velocity": 0, "duration": 306}, {"note": 71, "velocity": 86, "duration": 206}, {"note": 68, "velocity": 84, "duration": 351}, {"note": 0, "velocity": 0, "duration": 129}, {"note": 71, "velocity": 85, "duration": 238}, {"note": 80, "velocity": 79, "duration": 238}, {"note": 78, "velocity": 83, "duration": 478}, {"note": 75, "velocity": 85, "duration": 238}, {"note": 73, "velocity": 85, "duration": 238}, {"note": 71, "velocity": 86, "duration": 958}, {"note": 0, "velocity": 0, "duration": 18242}, {"note": 75, "velocity": 85, "duration": 186}, {"note": 73, "velocity": 85, "duration": 193}, {"note": 75, "velocity": 85, "duration": 223}, {"note": 78, "velocity": 85, "duration": 607}, {"note": 0, "velocity": 0, "duration": 113}, {"note": 73, "velocity": 85, "duration": 281}, {"note": 0, "velocity": 0, "duration": 79}, {"note": 75, "velocity": 85, "duration": 88}, {"note": 73, "velocity": 86, "duration": 219}, {"note": 71, "velocity": 84, "duration": 1069}, {"note": 0, "velocity": 0, "duration": 611}, {"note": 75, "velocity": 85, "duration": 186}, {"note": 73, "velocity": 85, "duration": 193}, {"note": 75, "velocity": 85, "duration": 223}, {"note": 78, "velocity": 85, "duration": 607}, {"note": 0, "velocity": 0, "duration": 113}, {"note": 75, "velocity": 86, "duration": 199}, {"note": 78, "velocity": 84, "duration": 186}, {"note": 80, "velocity": 85, "duration": 958}, {"note": 78, "velocity": 84, "duration": 639}, {"note": 0, "velocity": 0, "duration": 81}, {"note": 75, "velocity": 86, "duration": 196}, {"note": 73, "velocity": 85, "duration": 171}, {"note": 0, "velocity": 0, "duration": 69}, {"note": 75, "velocity": 84, "duration": 154}, {"note": 0, "velocity": 0, "duration": 86}, {"note": 73, "velocity": 85, "duration": 164}, {"note": 0, "velocity": 0, "duration": 76}, {"note": 71, "velocity": 84, "duration": 193}, {"note": 68, "velocity": 84, "duration": 523}, {"note": 0, "velocity": 0, "duration": 197}, {"note": 80, "velocity": 79, "duration": 178}, {"note": 0, "velocity": 0, "duration": 62}, {"note": 78, "velocity": 83, "duration": 213}, {"note": 75, "velocity": 86, "duration": 898}, {"note": 0, "velocity": 0, "duration": 542}, {"note": 75, "velocity": 82, "duration": 174}, {"note": 0, "velocity": 0, "duration": 66}, {"note": 73, "velocity": 85, "duration": 161}, {"note": 0, "velocity": 0, "duration": 79}, {"note": 73, "velocity": 87, "duration": 144}, {"note": 0, "velocity": 0, "duration": 96}, {"note": 73, "velocity": 89, "duration": 167}, {"note": 0, "velocity": 0, "duration": 73}, {"note": 71, "velocity": 82, "duration": 185}, {"note": 68, "velocity": 85, "duration": 601}, {"note": 80, "velocity": 85, "duration": 464}, {"note": 78, "velocity": 86, "duration": 718}, {"note": 78, "velocity": 86, "duration": 186}, {"note": 83, "velocity": 85, "duration": 208}, {"note": 82, "velocity": 84, "duration": 246}, {"note": 78, "velocity": 84, "duration": 216}, {"note": 73, "velocity": 88, "duration": 216}, {"note": 75, "velocity": 84, "duration": 183}, {"note": 75, "velocity": 84, "duration": 167}, {"note": 0, "velocity": 0, "duration": 73}, {"note": 75, "velocity": 84, "duration": 197}, {"note": 73, "velocity": 84, "duration": 238}, {"note": 75, "velocity": 84, "duration": 607}, {"note": 0, "velocity": 0, "duration": 113}, {"note": 78, "velocity": 83, "duration": 395}, {"note": 0, "velocity": 0, "duration": 85}, {"note": 78, "velocity": 86, "duration": 345}, {"note": 0, "velocity": 0, "duration": 615}, {"note": 75, "velocity": 84, "duration": 177}, {"note": 0, "velocity": 0, "duration": 63}, {"note": 75, "velocity": 87, "duration": 156}, {"note": 0, "velocity": 0, "duration": 84}, {"note": 78, "velocity": 81, "duration": 183}, {"note": 83, "velocity": 86, "duration": 192}, {"note": 82, "velocity": 83, "duration": 177}, {"note": 0, "velocity": 0, "duration": 63}, {"note": 80, "velocity": 83, "duration": 138}, {"note": 0, "velocity": 0, "duration": 102}, {"note": 78, "velocity": 84, "duration": 215}, {"note": 75, "velocity": 85, "duration": 591}, {"note": 0, "velocity": 0, "duration": 129}, {"note": 73, "velocity": 84, "duration": 238}, {"note": 75, "velocity": 84, "duration": 717}, {"note": 0, "velocity": 0, "duration": 723}, {"note": 75, "velocity": 85, "duration": 212}, {"note": 73, "velocity": 88, "duration": 169}, {"note": 0, "velocity": 0, "duration": 71}, {"note": 75, "velocity": 87, "duration": 194}, {"note": 78, "velocity": 85, "duration": 992}, {"note": 0, "velocity": 0, "duration": 208}, {"note": 73, "velocity": 88, "duration": 263}, {"note": 0, "velocity": 0, "duration": 97}, {"note": 75, "velocity": 84, "duration": 90}, {"note": 73, "velocity": 90, "duration": 212}, {"note": 71, "velocity": 85, "duration": 1134}, {"note": 0, "velocity": 0, "duration": 306}, {"note": 71, "velocity": 86, "duration": 206}, {"note": 80, "velocity": 84, "duration": 351}, {"note": 0, "velocity": 0, "duration": 129}, {"note": 80, "velocity": 85, "duration": 156}, {"note": 0, "velocity": 0, "duration": 84}, {"note": 78, "velocity": 79, "duration": 144}, {"note": 0, "velocity": 0, "duration": 96}, {"note": 80, "velocity": 85, "duration": 164}, {"note": 0, "velocity": 0, "duration": 76}, {"note": 78, "velocity": 83, "duration": 369}, {"note": 0, "velocity": 0, "duration": 111}, {"note": 75, "velocity": 85, "duration": 169}, {"note": 0, "velocity": 0, "duration": 71}, {"note": 73, "velocity": 86, "duration": 593}, {"note": 0, "velocity": 0, "duration": 127}, {"note": 78, "velocity": 86, "duration": 186}, {"note": 83, "velocity": 85, "duration": 208}, {"note": 82, "velocity": 84, "duration": 246}, {"note": 78, "velocity": 84, "duration": 216}, {"note": 73, "velocity": 88, "duration": 216}, {"note": 75, "velocity": 84, "duration": 183}, {"note": 75, "velocity": 84, "duration": 167}, {"note": 0, "velocity": 0, "duration": 73}, {"note": 75, "velocity": 84, "duration": 197}, {"note": 73, "velocity": 84, "duration": 238}, {"note": 75, "velocity": 84, "duration": 607}, {"note": 0, "velocity": 0, "duration": 113}, {"note": 78, "velocity": 83, "duration": 395}, {"note": 0, "velocity": 0, "duration": 85}, {"note": 78, "velocity": 86, "duration": 345}, {"note": 0, "velocity": 0, "duration": 615}, {"note": 75, "velocity": 84, "duration": 177}, {"note": 0, "velocity": 0, "duration": 63}, {"note": 75, "velocity": 87, "duration": 156}, {"note": 0, "velocity": 0, "duration": 84}, {"note": 78, "velocity": 81, "duration": 183}, {"note": 83, "velocity": 86, "duration": 192}, {"note": 82, "velocity": 83, "duration": 177}, {"note": 0, "velocity": 0, "duration": 63}, {"note": 80, "velocity": 83, "duration": 138}, {"note": 0, "velocity": 0, "duration": 102}, {"note": 78, "velocity": 84, "duration": 215}, {"note": 75, "velocity": 85, "duration": 591}, {"note": 0, "velocity": 0, "duration": 129}, {"note": 73, "velocity": 84, "duration": 238}, {"note": 75, "velocity": 84, "duration": 717}, {"note": 0, "velocity": 0, "duration": 723}, {"note": 75, "velocity": 85, "duration": 212}, {"note": 73, "velocity": 88, "duration": 169}, {"note": 0, "velocity": 0, "duration": 71}, {"note": 75, "velocity": 87, "duration": 194}, {"note": 78, "velocity": 85, "duration": 992}, {"note": 0, "velocity": 0, "duration": 208}, {"note": 73, "velocity": 88, "duration": 263}, {"note": 0, "velocity": 0, "duration": 97}, {"note": 75, "velocity": 84, "duration": 90}, {"note": 73, "velocity": 90, "duration": 212}, {"note": 71, "velocity": 85, "duration": 1134}, {"note": 0, "velocity": 0, "duration": 306}, {"note": 71, "velocity": 86, "duration": 206}, {"note": 68, "velocity": 84, "duration": 351}, {"note": 0, "velocity": 0, "duration": 129}, {"note": 71, "velocity": 85, "duration": 238}, {"note": 80, "velocity": 79, "duration": 238}, {"note": 78, "velocity": 83, "duration": 478}, {"note": 75, "velocity": 85, "duration": 238}, {"note": 73, "velocity": 85, "duration": 238}, {"note": 71, "velocity": 86, "duration": 958}, {"note": 0, "velocity": 0, "duration": 3602}, {"note": 79, "velocity": 86, "duration": 186}, {"note": 84, "velocity": 85, "duration": 208}, {"note": 83, "velocity": 84, "duration": 246}, {"note": 79, "velocity": 84, "duration": 216}, {"note": 74, "velocity": 88, "duration": 216}, {"note": 76, "velocity": 84, "duration": 183}, {"note": 76, "velocity": 84, "duration": 167}, {"note": 0, "velocity": 0, "duration": 73}, {"note": 76, "velocity": 84, "duration": 197}, {"note": 74, "velocity": 84, "duration": 238}, {"note": 76, "velocity": 84, "duration": 607}, {"note": 0, "velocity": 0, "duration": 113}, {"note": 79, "velocity": 83, "duration": 395}, {"note": 0, "velocity": 0, "duration": 85}, {"note": 79, "velocity": 86, "duration": 345}, {"note": 0, "velocity": 0, "duration": 615}, {"note": 76, "velocity": 84, "duration": 177}, {"note": 0, "velocity": 0, "duration": 63}, {"note": 76, "velocity": 87, "duration": 156}, {"note": 0, "velocity": 0, "duration": 84}, {"note": 79, "velocity": 81, "duration": 183}, {"note": 84, "velocity": 86, "duration": 192}, {"note": 83, "velocity": 83, "duration": 177}, {"note": 0, "velocity": 0, "duration": 63}, {"note": 81, "velocity": 83, "duration": 138}, {"note": 0, "velocity": 0, "duration": 102}, {"note": 79, "velocity": 84, "duration": 215}, {"note": 76, "velocity": 85, "duration": 591}, {"note": 0, "velocity": 0, "duration": 129}, {"note": 74, "velocity": 84, "duration": 238}, {"note": 76, "velocity": 84, "duration": 717}, {"note": 0, "velocity": 0, "duration": 723}, {"note": 76, "velocity": 85, "duration": 212}, {"note": 74, "velocity": 88, "duration": 169}, {"note": 0, "velocity": 0, "duration": 71}, {"note": 76, "velocity": 87, "duration": 194}, {"note": 79, "velocity": 85, "duration": 992}, {"note": 0, "velocity": 0, "duration": 208}, {"note": 74, "velocity": 88, "duration": 263}, {"note": 0, "velocity": 0, "duration": 97}, {"note": 76, "velocity": 84, "duration": 90}, {"note": 74, "velocity": 90, "duration": 212}, {"note": 72, "velocity": 85, "duration": 1134}, {"note": 0, "velocity": 0, "duration": 306}, {"note": 72, "velocity": 86, "duration": 206}, {"note": 81, "velocity": 84, "duration": 351}, {"note": 0, "velocity": 0, "duration": 129}, {"note": 81, "velocity": 85, "duration": 156}, {"note": 0, "velocity": 0, "duration": 84}, {"note": 79, "velocity": 79, "duration": 144}, {"note": 0, "velocity": 0, "duration": 96}, {"note": 81, "velocity": 85, "duration": 164}, {"note": 0, "velocity": 0, "duration": 76}, {"note": 79, "velocity": 83, "duration": 369}, {"note": 0, "velocity": 0, "duration": 111}, {"note": 76, "velocity": 85, "duration": 169}, {"note": 0, "velocity": 0, "duration": 71}, {"note": 74, "velocity": 86, "duration": 593}, {"note": 0, "velocity": 0, "duration": 127}, {"note": 79, "velocity": 86, "duration": 186}, {"note": 84, "velocity": 85, "duration": 208}, {"note": 83, "velocity": 84, "duration": 246}, {"note": 79, "velocity": 84, "duration": 216}, {"note": 74, "velocity": 88, "duration": 216}, {"note": 76, "velocity": 84, "duration": 183}, {"note": 76, "velocity": 84, "duration": 167}, {"note": 0, "velocity": 0, "duration": 73}, {"note": 76, "velocity": 84, "duration": 197}, {"note": 74, "velocity": 84, "duration": 238}, {"note": 76, "velocity": 84, "duration": 607}, {"note": 0, "velocity": 0, "duration": 113}, {"note": 79, "velocity": 83, "duration": 395}, {"note": 0, "velocity": 0, "duration": 85}, {"note": 79, "velocity": 86, "duration": 345}, {"note": 0, "velocity": 0, "duration": 615}, {"note": 76, "velocity": 84, "duration": 177}, {"note": 0, "velocity": 0, "duration": 63}, {"note": 76, "velocity": 87, "duration": 156}, {"note": 0, "velocity": 0, "duration": 84}, {"note": 79, "velocity": 81, "duration": 183}, {"note": 84, "velocity": 86, "duration": 192}, {"note": 83, "velocity": 83, "duration": 177}, {"note": 0, "velocity": 0, "duration": 63}, {"note": 81, "velocity": 83, "duration": 138}, {"note": 0, "velocity": 0, "duration": 102}, {"note": 79, "velocity": 84, "duration": 215}, {"note": 76, "velocity": 85, "duration": 591}, {"note": 0, "velocity": 0, "duration": 129}, {"note": 74, "velocity": 84, "duration": 238}, {"note": 76, "velocity": 84, "duration": 717}, {"note": 0, "velocity": 0, "duration": 723}, {"note": 76, "velocity": 85, "duration": 212}, {"note": 74, "velocity": 88, "duration": 169}, {"note": 0, "velocity": 0, "duration": 71}, {"note": 76, "velocity": 87, "duration": 194}, {"note": 79, "velocity": 85, "duration": 992}, {"note": 0, "velocity": 0, "duration": 208}, {"note": 74, "velocity": 88, "duration": 263}, {"note": 0, "velocity": 0, "duration": 97}, {"note": 76, "velocity": 84, "duration": 90}, {"note": 74, "velocity": 90, "duration": 212}, {"note": 72, "velocity": 85, "duration": 1134}, {"note": 0, "velocity": 0, "duration": 306}, {"note": 72, "velocity": 86, "duration": 206}, {"note": 69, "velocity": 84, "duration": 351}, {"note": 0, "velocity": 0, "duration": 129}, {"note": 72, "velocity": 85, "duration": 238}, {"note": 81, "velocity": 79, "duration": 238}, {"note": 79, "velocity": 83, "duration": 478}, {"note": 76, "velocity": 85, "duration": 238}, {"note": 74, "velocity": 85, "duration": 238}, {"note": 72, "velocity": 86, "duration": 958}]]