[[{"note": 71, "velocity": 85, "duration": 179}, {"note": 0, "velocity": 0, "duration": 61}, {"note": 69, "velocity": 81, "duration": 90}, {"note": 66, "velocity": 81, "duration": 501}, {"note": 0, "velocity": 0, "duration": 99}, {"note": 71, "velocity": 81, "duration": 187}, {"note": 69, "velocity": 81, "duration": 73}, {"note": 66, "velocity": 78, "duration": 597}, {"note": 0, "velocity": 0, "duration": 243}, {"note": 66, "velocity": 81, "duration": 82}, {"note": 69, "velocity": 82, "duration": 101}, {"note": 71, "velocity": 85, "duration": 65}, {"note": 71, "velocity": 82, "duration": 60}, {"note": 71, "velocity": 81, "duration": 73}, {"note": 71, "velocity": 81, "duration": 83}, {"note": 71, "velocity": 81, "duration": 83}, {"note": 73, "velocity": 82, "duration": 190}, {"note": 71, "velocity": 82, "duration": 109}, {"note": 69, "velocity": 79, "duration": 168}, {"note": 0, "velocity": 0, "duration": 72}, {"note": 66, "velocity": 79, "duration": 233}, {"note": 0, "velocity": 0, "duration": 247}, {"note": 66, "velocity": 79, "duration": 87}, {"note": 69, "velocity": 82, "duration": 92}, {"note": 71, "velocity": 76, "duration": 72}, {"note": 71, "velocity": 83, "duration": 70}, {"note": 71, "velocity": 81, "duration": 74}, {"note": 71, "velocity": 83, "duration": 90}, {"note": 78, "velocity": 83, "duration": 190}, {"note": 71, "velocity": 81, "duration": 78}, {"note": 71, "velocity": 82, "duration": 360}, {"note": 69, "velocity": 82, "duration": 381}, {"note": 0, "velocity": 0, "duration": 339}, {"note": 71, "velocity": 85, "duration": 182}, {"note": 71, "velocity": 85, "duration": 199}, {"note": 78, "velocity": 82, "duration": 120}, {"note": 71, "velocity": 83, "duration": 360}, {"note": 69, "velocity": 83, "duration": 499}, {"note": 71, "velocity": 85, "duration": 179}, {"note": 0, "velocity": 0, "duration": 61}, {"note": 69, "velocity": 81, "duration": 90}, {"note": 66, "velocity": 81, "duration": 501}, {"note": 0, "velocity": 0, "duration": 99}, {"note": 71, "velocity": 81, "duration": 187}, {"note": 69, "velocity": 81, "duration": 73}, {"note": 66, "velocity": 78, "duration": 597}, {"note": 0, "velocity": 0, "duration": 243}, {"note": 66, "velocity": 81, "duration": 82}, {"note": 69, "velocity": 82, "duration": 101}, {"note": 71, "velocity": 85, "duration": 65}, {"note": 71, "velocity": 82, "duration": 60}, {"note": 71, "velocity": 81, "duration": 73}, {"note": 71, "velocity": 81, "duration": 83}, {"note": 71, "velocity": 81, "duration": 83}, {"note": 73, "velocity": 82, "duration": 190}, {"note": 71, "velocity": 82, "duration": 109}, {"note": 69, "velocity": 79, "duration": 168}, {"note": 0, "velocity": 0, "duration": 72}, {"note": 66, "velocity": 79, "duration": 233}, {"note": 0, "velocity": 0, "duration": 247}, {"note": 66, "velocity": 79, "duration": 87}, {"note": 69, "velocity": 82, "duration": 92}, {"note": 71, "velocity": 76, "duration": 72}, {"note": 71, "velocity": 83, "duration": 70}, {"note": 71, "velocity": 81, "duration": 74}, {"note": 71, "velocity": 83, "duration": 90}, {"note": 78, "velocity": 83, "duration": 190}, {"note": 71, "velocity": 81, "duration": 78}, {"note": 71, "velocity": 82, "duration": 360}, {"note": 69, "velocity": 82, "duration": 381}, {"note": 0, "velocity": 0, "duration": 339}, {"note": 71, "velocity": 85, "duration": 182}, {"note": 71, "velocity": 85, "duration": 199}, {"note": 78, "velocity": 82, "duration": 120}, {"note": 71, "velocity": 83, "duration": 360}, {"note": 69, "velocity": 83, "duration": 499}, {"note": 0, "velocity": 0, "duration": 941}, {"note": 74, "velocity": 98, "duration": 186}, {"note": 76, "velocity": 84, "duration": 183}, {"note": 78, "velocity": 92, "duration": 59}, {"note": 0, "velocity": 0, "duration": 61}, {"note": 78, "velocity": 83, "duration": 54}, {"note": 0, "velocity": 0, "duration": 66}, {"note": 78, "velocity": 86, "duration": 57}, {"note": 0, "velocity": 0, "duration": 63}, {"note": 78, "velocity": 85, "duration": 77}, {"note": 71, "velocity": 86, "duration": 196}, {"note": 78, "velocity": 85, "duration": 65}, {"note": 78, "velocity": 83, "duration": 331}, {"note": 76, "velocity": 86, "duration": 507}, {"note": 0, "velocity": 0, "duration": 213}, {"note": 76, "velocity": 86, "duration": 60}, {"note": 76, "velocity": 83, "duration": 60}, {"note": 76, "velocity": 83, "duration": 67}, {"note": 76, "velocity": 85, "duration": 62}, {"note": 76, "velocity": 85, "duration": 82}, {"note": 78, "velocity": 84, "duration": 212}, {"note": 76, "velocity": 88, "duration": 67}, {"note": 74, "velocity": 88, "duration": 209}, {"note": 71, "velocity": 82, "duration": 371}, {"note": 0, "velocity": 0, "duration": 349}, {"note": 74, "velocity": 92, "duration": 62}, {"note": 74, "velocity": 86, "duration": 52}, {"note": 0, "velocity": 0, "duration": 68}, {"note": 74, "velocity": 85, "duration": 58}, {"note": 0, "velocity": 0, "duration": 62}, {"note": 74, "velocity": 85, "duration": 101}, {"note": 69, "velocity": 84, "duration": 82}, {"note": 74, "velocity": 88, "duration": 165}, {"note": 0, "velocity": 0, "duration": 75}, {"note": 76, "velocity": 86, "duration": 324}, {"note": 76, "velocity": 84, "duration": 166}, {"note": 0, "velocity": 0, "duration": 74}, {"note": 73, "velocity": 77, "duration": 81}, {"note": 71, "velocity": 79, "duration": 106}, {"note": 69, "velocity": 83, "duration": 221}, {"note": 71, "velocity": 82, "duration": 1222}, {"note": 0, "velocity": 0, "duration": 218}, {"note": 74, "velocity": 98, "duration": 186}, {"note": 76, "velocity": 84, "duration": 183}, {"note": 78, "velocity": 92, "duration": 59}, {"note": 0, "velocity": 0, "duration": 61}, {"note": 78, "velocity": 83, "duration": 54}, {"note": 0, "velocity": 0, "duration": 66}, {"note": 78, "velocity": 86, "duration": 57}, {"note": 0, "velocity": 0, "duration": 63}, {"note": 78, "velocity": 85, "duration": 77}, {"note": 71, "velocity": 86, "duration": 196}, {"note": 78, "velocity": 85, "duration": 65}, {"note": 78, "velocity": 83, "duration": 331}, {"note": 76, "velocity": 86, "duration": 507}, {"note": 0, "velocity": 0, "duration": 213}, {"note": 76, "velocity": 86, "duration": 60}, {"note": 76, "velocity": 83, "duration": 60}, {"note": 76, "velocity": 83, "duration": 67}, {"note": 76, "velocity": 85, "duration": 62}, {"note": 76, "velocity": 85, "duration": 82}, {"note": 78, "velocity": 84, "duration": 212}, {"note": 76, "velocity": 88, "duration": 67}, {"note": 74, "velocity": 88, "duration": 209}, {"note": 71, "velocity": 82, "duration": 371}, {"note": 0, "velocity": 0, "duration": 349}, {"note": 74, "velocity": 92, "duration": 62}, {"note": 74, "velocity": 86, "duration": 52}, {"note": 0, "velocity": 0, "duration": 68}, {"note": 74, "velocity": 85, "duration": 58}, {"note": 0, "velocity": 0, "duration": 62}, {"note": 74, "velocity": 85, "duration": 101}, {"note": 69, "velocity": 84, "duration": 82}, {"note": 74, "velocity": 88, "duration": 165}, {"note": 0, "velocity": 0, "duration": 75}, {"note": 76, "velocity": 86, "duration": 324}, {"note": 76, "velocity": 84, "duration": 166}, {"note": 0, "velocity": 0, "duration": 74}, {"note": 73, "velocity": 77, "duration": 81}, {"note": 71, "velocity": 79, "duration": 106}, {"note": 69, "velocity": 83, "duration": 221}, {"note": 71, "velocity": 82, "duration": 1222}, {"note": 0, "velocity": 0, "duration": 2138}, {"note": 71, "velocity": 85, "duration": 179}, {"note": 0, "velocity": 0, "duration": 61}, {"note": 69, "velocity": 81, "duration": 90}, {"note": 66, "velocity": 81, "duration": 501}, {"note": 0, "velocity": 0, "duration": 99}, {"note": 71, "velocity": 81, "duration": 187}, {"note": 69, "velocity": 81, "duration": 73}, {"note": 66, "velocity": 78, "duration": 597}, {"note": 0, "velocity": 0, "duration": 243}, {"note": 66, "velocity": 81, "duration": 82}, {"note": 69, "velocity": 82, "duration": 101}, {"note": 71, "velocity": 85, "duration": 65}, {"note": 71, "velocity": 82, "duration": 60}, {"note": 71, "velocity": 81, "duration": 73}, {"note": 71, "velocity": 81, "duration": 83}, {"note": 71, "velocity": 81, "duration": 83}, {"note": 73, "velocity": 82, "duration": 190}, {"note": 71, "velocity": 82, "duration": 109}, {"note": 69, "velocity": 79, "duration": 168}, {"note": 0, "velocity": 0, "duration": 72}, {"note": 66, "velocity": 79, "duration": 233}, {"note": 0, "velocity": 0, "duration": 247}, {"note": 66, "velocity": 79, "duration": 87}, {"note": 69, "velocity": 82, "duration": 92}, {"note": 71, "velocity": 76, "duration": 72}, {"note": 71, "velocity": 83, "duration": 70}, {"note": 71, "velocity": 81, "duration": 74}, {"note": 71, "velocity": 83, "duration": 90}, {"note": 78, "velocity": 83, "duration": 190}, {"note": 71, "velocity": 81, "duration": 78}, {"note": 71, "velocity": 82, "duration": 360}, {"note": 69, "velocity": 82, "duration": 381}, {"note": 0, "velocity": 0, "duration": 339}, {"note": 71, "velocity": 85, "duration": 182}, {"note": 71, "velocity": 85, "duration": 199}, {"note": 78, "velocity": 82, "duration": 120}, {"note": 71, "velocity": 83, "duration": 360}, {"note": 69, "velocity": 83, "duration": 499}, {"note": 71, "velocity": 85, "duration": 179}, {"note": 0, "velocity": 0, "duration": 61}, {"note": 69, "velocity": 81, "duration": 90}, {"note": 66, "velocity": 81, "duration": 501}, {"note": 0, "velocity": 0, "duration": 99}, {"note": 71, "velocity": 81, "duration": 187}, {"note": 69, "velocity": 81, "duration": 73}, {"note": 66, "velocity": 78, "duration": 597}, {"note": 0, "velocity": 0, "duration": 243}, {"note": 66, "velocity": 81, "duration": 82}, {"note": 69, "velocity": 82, "duration": 101}, {"note": 71, "velocity": 85, "duration": 65}, {"note": 71, "velocity": 82, "duration": 60}, {"note": 71, "velocity": 81, "duration": 73}, {"note": 71, "velocity": 81, "duration": 83}, {"note": 71, "velocity": 81, "duration": 83}, {"note": 73, "velocity": 82, "duration": 190}, {"note": 71, "velocity": 82, "duration": 109}, {"note": 69, "velocity": 79, "duration": 168}, {"note": 0, "velocity": 0, "duration": 72}, {"note": 66, "velocity": 79, "duration": 233}, {"note": 0, "velocity": 0, "duration": 247}, {"note": 66, "velocity": 79, "duration": 87}, {"note": 69, "velocity": 82, "duration": 92}, {"note": 71, "velocity": 76, "duration": 72}, {"note": 71, "velocity": 83, "duration": 70}, {"note": 71, "velocity": 81, "duration": 74}, {"note": 71, "velocity": 83, "duration": 90}, {"note": 78, "velocity": 83, "duration": 190}, {"note": 71, "velocity": 81, "duration": 78}, {"note": 71, "velocity": 82, "duration": 360}, {"note": 69, "velocity": 82, "duration": 381}, {"note": 0, "velocity": 0, "duration": 339}, {"note": 71, "velocity": 85, "duration": 182}, {"note": 71, "velocity": 85, "duration": 199}, {"note": 78, "velocity": 82, "duration": 120}, {"note": 71, "velocity": 83, "duration": 360}, {"note": 69, "velocity": 83, "duration": 499}, {"note": 74, "velocity": 98, "duration": 186}, {"note": 76, "velocity": 84, "duration": 183}, {"note": 78, "velocity": 92, "duration": 59}, {"note": 0, "velocity": 0, "duration": 61}, {"note": 78, "velocity": 83, "duration": 54}, {"note": 0, "velocity": 0, "duration": 66}, {"note": 78, "velocity": 86, "duration": 57}, {"note": 0, "velocity": 0, "duration": 63}, {"note": 78, "velocity": 85, "duration": 77}, {"note": 71, "velocity": 86, "duration": 196}, {"note": 78, "velocity": 85, "duration": 65}, {"note": 78, "velocity": 83, "duration": 331}, {"note": 76, "velocity": 86, "duration": 507}, {"note": 0, "velocity": 0, "duration": 213}, {"note": 76, "velocity": 86, "duration": 60}, {"note": 76, "velocity": 83, "duration": 60}, {"note": 76, "velocity": 83, "duration": 67}, {"note": 76, "velocity": 85, "duration": 62}, {"note": 76, "velocity": 85, "duration": 82}, {"note": 78, "velocity": 84, "duration": 212}, {"note": 76, "velocity": 88, "duration": 67}, {"note": 74, "velocity": 88, "duration": 209}, {"note": 71, "velocity": 82, "duration": 371}, {"note": 0, "velocity": 0, "duration": 349}, {"note": 74, "velocity": 92, "duration": 62}, {"note": 74, "velocity": 86, "duration": 52}, {"note": 0, "velocity": 0, "duration": 68}, {"note": 74, "velocity": 85, "duration": 58}, {"note": 0, "velocity": 0, "duration": 62}, {"note": 74, "velocity": 85, "duration": 101}, {"note": 69, "velocity": 84, "duration": 82}, {"note": 74, "velocity": 88, "duration": 165}, {"note": 0, "velocity": 0, "duration": 75}, {"note": 76, "velocity": 86, "duration": 324}, {"note": 76, "velocity": 84, "duration": 166}, {"note": 0, "velocity": 0, "duration": 74}, {"note": 73, "velocity": 77, "duration": 81}, {"note": 71, "velocity": 79, "duration": 106}, {"note": 69, "velocity": 83, "duration": 221}, {"note": 71, "velocity": 82, "duration": 1222}, {"note": 0, "velocity": 0, "duration": 218}, {"note": 74, "velocity": 98, "duration": 186}, {"note": 76, "velocity": 84, "duration": 183}, {"note": 78, "velocity": 92, "duration": 59}, {"note": 0, "velocity": 0, "duration": 61}, {"note": 78, "velocity": 83, "duration": 54}, {"note": 0, "velocity": 0, "duration": 66}, {"note": 78, "velocity": 86, "duration": 57}, {"note": 0, "velocity": 0, "duration": 63}, {"note": 78, "velocity": 85, "duration": 77}, {"note": 71, "velocity": 86, "duration": 196}, {"note": 78, "velocity": 85, "duration": 65}, {"note": 78, "velocity": 83, "duration": 331}, {"note": 76, "velocity": 86, "duration": 507}, {"note": 0, "velocity": 0, "duration": 213}, {"note": 76, "velocity": 86, "duration": 60}, {"note": 76, "velocity": 83, "duration": 60}, {"note": 76, "velocity": 83, "duration": 67}, {"note": 76, "velocity": 85, "duration": 62}, {"note": 76, "velocity": 85, "duration": 82}, {"note": 78, "velocity": 84, "duration": 212}, {"note": 76, "velocity": 88, "duration": 67}, {"note": 74, "velocity": 88, "duration": 209}, {"note": 71, "velocity": 82, "duration": 371}, {"note": 0, "velocity": 0, "duration": 349}, {"note": 74, "velocity": 92, "duration": 62}, {"note": 74, "velocity": 86, "duration": 52}, {"note": 0, "velocity": 0, "duration": 68}, {"note": 74, "velocity": 85, "duration": 58}, {"note": 0, "velocity": 0, "duration": 62}, {"note": 74, "velocity": 85, "duration": 101}, {"note": 69, "velocity": 84, "duration": 82}, {"note": 74, "velocity": 88, "duration": 165}, {"note": 0, "velocity": 0, "duration": 75}, {"note": 76, "velocity": 86, "duration": 324}, {"note": 76, "velocity": 84, "duration": 166}, {"note": 0, "velocity": 0, "duration": 74}, {"note": 73, "velocity": 77, "duration": 81}, {"note": 71, "velocity": 79, "duration": 106}, {"note": 69, "velocity": 83, "duration": 221}, {"note": 71, "velocity": 82, "duration": 1222}, {"note": 0, "velocity": 0, "duration": 15578}, {"note": 74, "velocity": 98, "duration": 186}, {"note": 76, "velocity": 84, "duration": 183}, {"note": 78, "velocity": 92, "duration": 59}, {"note": 0, "velocity": 0, "duration": 61}, {"note": 78, "velocity": 83, "duration": 54}, {"note": 0, "velocity": 0, "duration": 66}, {"note": 78, "velocity": 86, "duration": 57}, {"note": 0, "velocity": 0, "duration": 63}, {"note": 78, "velocity": 85, "duration": 77}, {"note": 71, "velocity": 86, "duration": 196}, {"note": 78, "velocity": 85, "duration": 65}, {"note": 78, "velocity": 83, "duration": 331}, {"note": 76, "velocity": 86, "duration": 507}, {"note": 0, "velocity": 0, "duration": 213}, {"note": 76, "velocity": 86, "duration": 60}, {"note": 76, "velocity": 83, "duration": 60}, {"note": 76, "velocity": 83, "duration": 67}, {"note": 76, "velocity": 85, "duration": 62}, {"note": 76, "velocity": 85, "duration": 82}, {"note": 78, "velocity": 84, "duration": 212}, {"note": 76, "velocity": 88, "duration": 67}, {"note": 74, "velocity": 88, "duration": 209}, {"note": 71, "velocity": 82, "duration": 371}, {"note": 0, "velocity": 0, "duration": 349}, {"note": 74, "velocity": 92, "duration": 62}, {"note": 74, "velocity": 86, "duration": 52}, {"note": 0, "velocity": 0, "duration": 68}, {"note": 74, "velocity": 85, "duration": 58}, {"note": 0, "velocity": 0, "duration": 62}, {"note": 74, "velocity": 85, "duration": 101}, {"note": 69, "velocity": 84, "duration": 82}, {"note": 74, "velocity": 88, "duration": 165}, {"note": 0, "velocity": 0, "duration": 75}, {"note": 76, "velocity": 86, "duration": 324}, {"note": 76, "velocity": 84, "duration": 166}, {"note": 0, "velocity": 0, "duration": 74}, {"note": 73, "velocity": 77, "duration": 81}, {"note": 71, "velocity": 79, "duration": 106}, {"note": 69, "velocity": 83, "duration": 221}, {"note": 71, "velocity": 82, "duration": 1222}, {"note": 0, "velocity": 0, "duration": 218}, {"note": 74, "velocity": 98, "duration": 186}, {"note": 76, "velocity": 84, "duration": 183}, {"note": 78, "velocity": 92, "duration": 59}, {"note": 0, "velocity": 0, "duration": 61}, {"note": 78, "velocity": 83, "duration": 54}, {"note": 0, "velocity": 0, "duration": 66}, {"note": 78, "velocity": 86, "duration": 57}, {"note": 0, "velocity": 0, "duration": 63}, {"note": 78, "velocity": 85, "duration": 77}, {"note": 71, "velocity": 86, "duration": 196}, {"note": 78, "velocity": 85, "duration": 65}, {"note": 78, "velocity": 83, "duration": 331}, {"note": 76, "velocity": 86, "duration": 507}, {"note": 0, "velocity": 0, "duration": 213}, {"note": 76, "velocity": 86, "duration": 60}, {"note": 76, "velocity": 83, "duration": 60}, {"note": 76, "velocity": 83, "duration": 67}, {"note": 76, "velocity": 85, "duration": 62}, {"note": 76, "velocity": 85, "duration": 82}, {"note": 78, "velocity": 84, "duration": 212}, {"note": 76, "velocity": 88, "duration": 67}, {"note": 74, "velocity": 88, "duration": 209}, {"note": 71, "velocity": 82, "duration": 371}, {"note": 0, "velocity": 0, "duration": 349}, {"note": 74, "velocity": 92, "duration": 62}, {"note": 74, "velocity": 86, "duration": 52}, {"note": 0, "velocity": 0, "duration": 68}, {"note": 74, "velocity": 85, "duration": 58}, {"note": 0, "velocity": 0, "duration": 62}, {"note": 74, "velocity": 85, "duration": 101}, {"note": 69, "velocity": 84, "duration": 82}, {"note": 74, "velocity": 88, "duration": 165}, {"note": 0, "velocity": 0, "duration": 75}, {"note": 76, "velocity": 86, "duration": 324}, {"note": 76, "velocity": 84, "duration": 166}, {"note": 0, "velocity": 0, "duration": 74}, {"note": 73, "velocity": 77, "duration": 81}, {"note": 71, "velocity": 79, "duration": 106}, {"note": 69, "velocity": 83, "duration": 221}, {"note": 71, "velocity": 82, "duration": 1222}, {"note": 0, "velocity": 0, "duration": 698}, {"note": 74, "velocity": 82, "duration": 98}, {"note": 74, "velocity": 84, "duration": 73}, {"note": 74, "velocity": 82, "duration": 85}, {"note": 74, "velocity": 86, "duration": 90}, {"note": 69, "velocity": 81, "duration": 92}, {"note": 74, "velocity": 85, "duration": 285}, {"note": 0, "velocity": 0, "duration": 75}, {"note": 76, "velocity": 83, "duration": 208}, {"note": 76, "velocity": 82, "duration": 202}, {"note": 73, "velocity": 81, "duration": 143}, {"note": 71, "velocity": 82, "duration": 86}, {"note": 69, "velocity": 82, "duration": 202}, {"note": 71, "velocity": 87, "duration": 1729}]]