[[{"note": 64, "velocity": 82, "duration": 239}, {"note": 67, "velocity": 73, "duration": 259}, {"note": 69, "velocity": 78, "duration": 362}, {"note": 0, "velocity": 0, "duration": 118}, {"note": 71, "velocity": 79, "duration": 386}, {"note": 0, "velocity": 0, "duration": 94}, {"note": 71, "velocity": 79, "duration": 415}, {"note": 0, "velocity": 0, "duration": 65}, {"note": 69, "velocity": 79, "duration": 504}, {"note": 67, "velocity": 76, "duration": 564}, {"note": 0, "velocity": 0, "duration": 156}, {"note": 67, "velocity": 76, "duration": 212}, {"note": 64, "velocity": 79, "duration": 230}, {"note": 67, "velocity": 79, "duration": 271}, {"note": 64, "velocity": 83, "duration": 263}, {"note": 71, "velocity": 79, "duration": 144}, {"note": 0, "velocity": 0, "duration": 96}, {"note": 71, "velocity": 80, "duration": 502}, {"note": 69, "velocity": 77, "duration": 1956}, {"note": 0, "velocity": 0, "duration": 924}, {"note": 64, "velocity": 79, "duration": 199}, {"note": 67, "velocity": 78, "duration": 168}, {"note": 0, "velocity": 0, "duration": 72}, {"note": 69, "velocity": 78, "duration": 367}, {"note": 0, "velocity": 0, "duration": 113}, {"note": 71, "velocity": 80, "duration": 384}, {"note": 0, "velocity": 0, "duration": 96}, {"note": 71, "velocity": 79, "duration": 435}, {"note": 69, "velocity": 79, "duration": 429}, {"note": 67, "velocity": 72, "duration": 620}, {"note": 0, "velocity": 0, "duration": 100}, {"note": 64, "velocity": 80, "duration": 183}, {"note": 74, "velocity": 84, "duration": 136}, {"note": 0, "velocity": 0, "duration": 104}, {"note": 74, "velocity": 85, "duration": 181}, {"note": 67, "velocity": 70, "duration": 187}, {"note": 71, "velocity": 79, "duration": 148}, {"note": 0, "velocity": 0, "duration": 92}, {"note": 71, "velocity": 77, "duration": 432}, {"note": 69, "velocity": 78, "duration": 1698}, {"note": 0, "velocity": 0, "duration": 1182}, {"note": 67, "velocity": 74, "duration": 173}, {"note": 0, "velocity": 0, "duration": 67}, {"note": 69, "velocity": 80, "duration": 238}, {"note": 67, "velocity": 79, "duration": 329}, {"note": 0, "velocity": 0, "duration": 151}, {"note": 67, "velocity": 79, "duration": 419}, {"note": 0, "velocity": 0, "duration": 61}, {"note": 74, "velocity": 84, "duration": 459}, {"note": 71, "velocity": 80, "duration": 478}, {"note": 74, "velocity": 80, "duration": 290}, {"note": 0, "velocity": 0, "duration": 190}, {"note": 67, "velocity": 80, "duration": 143}, {"note": 0, "velocity": 0, "duration": 97}, {"note": 76, "velocity": 80, "duration": 362}, {"note": 0, "velocity": 0, "duration": 118}, {"note": 74, "velocity": 85, "duration": 380}, {"note": 0, "velocity": 0, "duration": 100}, {"note": 67, "velocity": 79, "duration": 169}, {"note": 0, "velocity": 0, "duration": 71}, {"note": 71, "velocity": 76, "duration": 448}, {"note": 69, "velocity": 74, "duration": 1558}, {"note": 0, "velocity": 0, "duration": 1322}, {"note": 67, "velocity": 78, "duration": 133}, {"note": 0, "velocity": 0, "duration": 107}, {"note": 69, "velocity": 79, "duration": 242}, {"note": 67, "velocity": 79, "duration": 396}, {"note": 0, "velocity": 0, "duration": 84}, {"note": 74, "velocity": 85, "duration": 371}, {"note": 0, "velocity": 0, "duration": 109}, {"note": 74, "velocity": 92, "duration": 350}, {"note": 0, "velocity": 0, "duration": 130}, {"note": 74, "velocity": 85, "duration": 158}, {"note": 0, "velocity": 0, "duration": 82}, {"note": 71, "velocity": 74, "duration": 236}, {"note": 67, "velocity": 77, "duration": 409}, {"note": 0, "velocity": 0, "duration": 311}, {"note": 74, "velocity": 84, "duration": 196}, {"note": 71, "velocity": 79, "duration": 187}, {"note": 74, "velocity": 85, "duration": 265}, {"note": 71, "velocity": 79, "duration": 178}, {"note": 0, "velocity": 0, "duration": 62}, {"note": 76, "velocity": 79, "duration": 163}, {"note": 0, "velocity": 0, "duration": 77}, {"note": 76, "velocity": 82, "duration": 407}, {"note": 0, "velocity": 0, "duration": 73}, {"note": 74, "velocity": 80, "duration": 2091}, {"note": 0, "velocity": 0, "duration": 3189}, {"note": 71, "velocity": 85, "duration": 245}, {"note": 74, "velocity": 89, "duration": 269}, {"note": 71, "velocity": 80, "duration": 221}, {"note": 79, "velocity": 84, "duration": 418}, {"note": 0, "velocity": 0, "duration": 62}, {"note": 76, "velocity": 79, "duration": 119}, {"note": 0, "velocity": 0, "duration": 121}, {"note": 76, "velocity": 82, "duration": 622}, {"note": 0, "velocity": 0, "duration": 98}, {"note": 74, "velocity": 92, "duration": 447}, {"note": 71, "velocity": 84, "duration": 994}, {"note": 0, "velocity": 0, "duration": 206}, {"note": 71, "velocity": 82, "duration": 280}, {"note": 69, "velocity": 80, "duration": 227}, {"note": 67, "velocity": 79, "duration": 216}, {"note": 74, "velocity": 85, "duration": 351}, {"note": 0, "velocity": 0, "duration": 129}, {"note": 74, "velocity": 85, "duration": 134}, {"note": 0, "velocity": 0, "duration": 106}, {"note": 74, "velocity": 87, "duration": 666}, {"note": 67, "velocity": 79, "duration": 352}, {"note": 0, "velocity": 0, "duration": 128}, {"note": 69, "velocity": 80, "duration": 1008}, {"note": 0, "velocity": 0, "duration": 192}, {"note": 71, "velocity": 84, "duration": 168}, {"note": 0, "velocity": 0, "duration": 72}, {"note": 74, "velocity": 89, "duration": 268}, {"note": 71, "velocity": 80, "duration": 197}, {"note": 79, "velocity": 82, "duration": 411}, {"note": 0, "velocity": 0, "duration": 69}, {"note": 76, "velocity": 79, "duration": 135}, {"note": 0, "velocity": 0, "duration": 105}, {"note": 76, "velocity": 81, "duration": 635}, {"note": 0, "velocity": 0, "duration": 85}, {"note": 74, "velocity": 89, "duration": 507}, {"note": 71, "velocity": 80, "duration": 756}, {"note": 0, "velocity": 0, "duration": 444}, {"note": 71, "velocity": 82, "duration": 233}, {"note": 69, "velocity": 79, "duration": 114}, {"note": 0, "velocity": 0, "duration": 126}, {"note": 67, "velocity": 80, "duration": 212}, {"note": 74, "velocity": 85, "duration": 524}, {"note": 0, "velocity": 0, "duration": 196}, {"note": 76, "velocity": 82, "duration": 643}, {"note": 0, "velocity": 0, "duration": 77}, {"note": 74, "velocity": 81, "duration": 393}, {"note": 0, "velocity": 0, "duration": 87}, {"note": 74, "velocity": 84, "duration": 1019}, {"note": 0, "velocity": 0, "duration": 181}, {"note": 71, "velocity": 85, "duration": 245}, {"note": 74, "velocity": 89, "duration": 269}, {"note": 71, "velocity": 80, "duration": 221}, {"note": 79, "velocity": 84, "duration": 418}, {"note": 0, "velocity": 0, "duration": 62}, {"note": 76, "velocity": 79, "duration": 119}, {"note": 0, "velocity": 0, "duration": 121}, {"note": 76, "velocity": 82, "duration": 622}, {"note": 0, "velocity": 0, "duration": 98}, {"note": 74, "velocity": 92, "duration": 238}, {"note": 76, "velocity": 84, "duration": 742}, {"note": 74, "velocity": 82, "duration": 245}, {"note": 71, "velocity": 80, "duration": 420}, {"note": 71, "velocity": 82, "duration": 280}, {"note": 69, "velocity": 80, "duration": 227}, {"note": 67, "velocity": 79, "duration": 216}, {"note": 67, "velocity": 85, "duration": 351}, {"note": 0, "velocity": 0, "duration": 129}, {"note": 74, "velocity": 85, "duration": 134}, {"note": 0, "velocity": 0, "duration": 106}, {"note": 74, "velocity": 87, "duration": 238}, {"note": 74, "velocity": 87, "duration": 478}, {"note": 67, "velocity": 79, "duration": 238}, {"note": 69, "velocity": 80, "duration": 1198}, {"note": 0, "velocity": 0, "duration": 242}, {"note": 71, "velocity": 84, "duration": 168}, {"note": 0, "velocity": 0, "duration": 72}, {"note": 74, "velocity": 89, "duration": 268}, {"note": 71, "velocity": 80, "duration": 197}, {"note": 79, "velocity": 82, "duration": 411}, {"note": 0, "velocity": 0, "duration": 69}, {"note": 76, "velocity": 79, "duration": 135}, {"note": 0, "velocity": 0, "duration": 105}, {"note": 76, "velocity": 81, "duration": 635}, {"note": 0, "velocity": 0, "duration": 85}, {"note": 74, "velocity": 89, "duration": 507}, {"note": 76, "velocity": 79, "duration": 223}, {"note": 74, "velocity": 92, "duration": 462}, {"note": 71, "velocity": 80, "duration": 320}, {"note": 0, "velocity": 0, "duration": 160}, {"note": 71, "velocity": 82, "duration": 233}, {"note": 69, "velocity": 79, "duration": 114}, {"note": 0, "velocity": 0, "duration": 126}, {"note": 67, "velocity": 80, "duration": 212}, {"note": 74, "velocity": 85, "duration": 238}, {"note": 74, "velocity": 87, "duration": 371}, {"note": 0, "velocity": 0, "duration": 109}, {"note": 74, "velocity": 89, "duration": 367}, {"note": 0, "velocity": 0, "duration": 113}, {"note": 76, "velocity": 80, "duration": 367}, {"note": 0, "velocity": 0, "duration": 113}, {"note": 74, "velocity": 94, "duration": 1139}, {"note": 0, "velocity": 0, "duration": 61}, {"note": 76, "velocity": 82, "duration": 412}, {"note": 0, "velocity": 0, "duration": 68}, {"note": 74, "velocity": 89, "duration": 187}, {"note": 76, "velocity": 82, "duration": 2144}, {"note": 0, "velocity": 0, "duration": 14176}, {"note": 64, "velocity": 82, "duration": 239}, {"note": 67, "velocity": 73, "duration": 259}, {"note": 69, "velocity": 78, "duration": 362}, {"note": 0, "velocity": 0, "duration": 118}, {"note": 71, "velocity": 79, "duration": 386}, {"note": 0, "velocity": 0, "duration": 94}, {"note": 71, "velocity": 79, "duration": 415}, {"note": 0, "velocity": 0, "duration": 65}, {"note": 69, "velocity": 79, "duration": 504}, {"note": 67, "velocity": 76, "duration": 478}, {"note": 64, "velocity": 79, "duration": 238}, {"note": 67, "velocity": 76, "duration": 212}, {"note": 64, "velocity": 79, "duration": 230}, {"note": 67, "velocity": 79, "duration": 271}, {"note": 64, "velocity": 83, "duration": 263}, {"note": 71, "velocity": 79, "duration": 144}, {"note": 0, "velocity": 0, "duration": 96}, {"note": 71, "velocity": 80, "duration": 502}, {"note": 69, "velocity": 77, "duration": 1956}, {"note": 0, "velocity": 0, "duration": 924}, {"note": 64, "velocity": 79, "duration": 199}, {"note": 67, "velocity": 78, "duration": 168}, {"note": 0, "velocity": 0, "duration": 72}, {"note": 69, "velocity": 78, "duration": 367}, {"note": 0, "velocity": 0, "duration": 113}, {"note": 71, "velocity": 80, "duration": 384}, {"note": 0, "velocity": 0, "duration": 96}, {"note": 71, "velocity": 79, "duration": 435}, {"note": 71, "velocity": 79, "duration": 238}, {"note": 69, "velocity": 79, "duration": 238}, {"note": 67, "velocity": 72, "duration": 478}, {"note": 62, "velocity": 79, "duration": 238}, {"note": 64, "velocity": 80, "duration": 183}, {"note": 74, "velocity": 84, "duration": 136}, {"note": 0, "velocity": 0, "duration": 104}, {"note": 74, "velocity": 85, "duration": 181}, {"note": 74, "velocity": 70, "duration": 187}, {"note": 67, "velocity": 79, "duration": 148}, {"note": 0, "velocity": 0, "duration": 92}, {"note": 71, "velocity": 77, "duration": 432}, {"note": 69, "velocity": 78, "duration": 1698}, {"note": 0, "velocity": 0, "duration": 1182}, {"note": 67, "velocity": 74, "duration": 173}, {"note": 0, "velocity": 0, "duration": 67}, {"note": 69, "velocity": 80, "duration": 238}, {"note": 67, "velocity": 79, "duration": 329}, {"note": 0, "velocity": 0, "duration": 151}, {"note": 74, "velocity": 79, "duration": 419}, {"note": 0, "velocity": 0, "duration": 61}, {"note": 74, "velocity": 84, "duration": 459}, {"note": 71, "velocity": 80, "duration": 478}, {"note": 67, "velocity": 80, "duration": 290}, {"note": 0, "velocity": 0, "duration": 430}, {"note": 76, "velocity": 80, "duration": 362}, {"note": 0, "velocity": 0, "duration": 118}, {"note": 74, "velocity": 85, "duration": 380}, {"note": 0, "velocity": 0, "duration": 100}, {"note": 67, "velocity": 79, "duration": 169}, {"note": 0, "velocity": 0, "duration": 71}, {"note": 71, "velocity": 76, "duration": 448}, {"note": 69, "velocity": 74, "duration": 1558}, {"note": 0, "velocity": 0, "duration": 1322}, {"note": 67, "velocity": 78, "duration": 133}, {"note": 0, "velocity": 0, "duration": 107}, {"note": 69, "velocity": 79, "duration": 242}, {"note": 67, "velocity": 79, "duration": 396}, {"note": 0, "velocity": 0, "duration": 84}, {"note": 74, "velocity": 85, "duration": 371}, {"note": 0, "velocity": 0, "duration": 109}, {"note": 74, "velocity": 92, "duration": 350}, {"note": 0, "velocity": 0, "duration": 130}, {"note": 74, "velocity": 85, "duration": 158}, {"note": 0, "velocity": 0, "duration": 82}, {"note": 71, "velocity": 74, "duration": 236}, {"note": 67, "velocity": 77, "duration": 409}, {"note": 0, "velocity": 0, "duration": 311}, {"note": 71, "velocity": 84, "duration": 196}, {"note": 74, "velocity": 79, "duration": 478}, {"note": 74, "velocity": 85, "duration": 265}, {"note": 71, "velocity": 79, "duration": 163}, {"note": 0, "velocity": 0, "duration": 77}, {"note": 76, "velocity": 82, "duration": 407}, {"note": 0, "velocity": 0, "duration": 73}, {"note": 74, "velocity": 80, "duration": 2091}, {"note": 0, "velocity": 0, "duration": 1269}, {"note": 71, "velocity": 85, "duration": 245}, {"note": 74, "velocity": 89, "duration": 269}, {"note": 71, "velocity": 80, "duration": 221}, {"note": 79, "velocity": 84, "duration": 418}, {"note": 0, "velocity": 0, "duration": 62}, {"note": 76, "velocity": 79, "duration": 119}, {"note": 0, "velocity": 0, "duration": 121}, {"note": 76, "velocity": 82, "duration": 622}, {"note": 0, "velocity": 0, "duration": 98}, {"note": 74, "velocity": 92, "duration": 447}, {"note": 71, "velocity": 84, "duration": 994}, {"note": 0, "velocity": 0, "duration": 206}, {"note": 71, "velocity": 82, "duration": 280}, {"note": 69, "velocity": 80, "duration": 227}, {"note": 67, "velocity": 79, "duration": 216}, {"note": 74, "velocity": 85, "duration": 351}, {"note": 0, "velocity": 0, "duration": 129}, {"note": 74, "velocity": 85, "duration": 134}, {"note": 0, "velocity": 0, "duration": 106}, {"note": 74, "velocity": 87, "duration": 666}, {"note": 67, "velocity": 79, "duration": 352}, {"note": 0, "velocity": 0, "duration": 128}, {"note": 69, "velocity": 80, "duration": 1008}, {"note": 0, "velocity": 0, "duration": 192}, {"note": 71, "velocity": 84, "duration": 168}, {"note": 0, "velocity": 0, "duration": 72}, {"note": 74, "velocity": 89, "duration": 268}, {"note": 71, "velocity": 80, "duration": 197}, {"note": 79, "velocity": 82, "duration": 411}, {"note": 0, "velocity": 0, "duration": 69}, {"note": 76, "velocity": 79, "duration": 135}, {"note": 0, "velocity": 0, "duration": 105}, {"note": 76, "velocity": 81, "duration": 635}, {"note": 0, "velocity": 0, "duration": 85}, {"note": 74, "velocity": 89, "duration": 507}, {"note": 71, "velocity": 80, "duration": 756}, {"note": 0, "velocity": 0, "duration": 444}, {"note": 71, "velocity": 82, "duration": 233}, {"note": 69, "velocity": 79, "duration": 114}, {"note": 0, "velocity": 0, "duration": 126}, {"note": 67, "velocity": 80, "duration": 212}, {"note": 74, "velocity": 85, "duration": 524}, {"note": 0, "velocity": 0, "duration": 196}, {"note": 76, "velocity": 82, "duration": 643}, {"note": 0, "velocity": 0, "duration": 77}, {"note": 74, "velocity": 81, "duration": 393}, {"note": 0, "velocity": 0, "duration": 87}, {"note": 74, "velocity": 84, "duration": 1019}, {"note": 0, "velocity": 0, "duration": 181}, {"note": 71, "velocity": 85, "duration": 245}, {"note": 74, "velocity": 89, "duration": 269}, {"note": 71, "velocity": 80, "duration": 221}, {"note": 79, "velocity": 84, "duration": 418}, {"note": 0, "velocity": 0, "duration": 62}, {"note": 76, "velocity": 79, "duration": 119}, {"note": 0, "velocity": 0, "duration": 121}, {"note": 76, "velocity": 82, "duration": 622}, {"note": 0, "velocity": 0, "duration": 98}, {"note": 74, "velocity": 92, "duration": 238}, {"note": 76, "velocity": 84, "duration": 742}, {"note": 74, "velocity": 82, "duration": 245}, {"note": 71, "velocity": 80, "duration": 420}, {"note": 71, "velocity": 82, "duration": 280}, {"note": 69, "velocity": 80, "duration": 227}, {"note": 67, "velocity": 79, "duration": 216}, {"note": 67, "velocity": 85, "duration": 351}, {"note": 0, "velocity": 0, "duration": 129}, {"note": 74, "velocity": 85, "duration": 134}, {"note": 0, "velocity": 0, "duration": 106}, {"note": 74, "velocity": 87, "duration": 238}, {"note": 74, "velocity": 87, "duration": 478}, {"note": 67, "velocity": 79, "duration": 238}, {"note": 69, "velocity": 80, "duration": 1198}, {"note": 0, "velocity": 0, "duration": 242}, {"note": 71, "velocity": 84, "duration": 168}, {"note": 0, "velocity": 0, "duration": 72}, {"note": 74, "velocity": 89, "duration": 268}, {"note": 71, "velocity": 80, "duration": 197}, {"note": 79, "velocity": 82, "duration": 411}, {"note": 0, "velocity": 0, "duration": 69}, {"note": 76, "velocity": 79, "duration": 135}, {"note": 0, "velocity": 0, "duration": 105}, {"note": 76, "velocity": 81, "duration": 635}, {"note": 0, "velocity": 0, "duration": 85}, {"note": 74, "velocity": 89, "duration": 507}, {"note": 76, "velocity": 79, "duration": 223}, {"note": 74, "velocity": 92, "duration": 462}, {"note": 71, "velocity": 80, "duration": 320}, {"note": 0, "velocity": 0, "duration": 160}, {"note": 71, "velocity": 82, "duration": 233}, {"note": 69, "velocity": 79, "duration": 114}, {"note": 0, "velocity": 0, "duration": 126}, {"note": 67, "velocity": 80, "duration": 212}, {"note": 74, "velocity": 85, "duration": 238}, {"note": 74, "velocity": 87, "duration": 371}, {"note": 0, "velocity": 0, "duration": 109}, {"note": 74, "velocity": 89, "duration": 367}, {"note": 0, "velocity": 0, "duration": 113}, {"note": 76, "velocity": 80, "duration": 367}, {"note": 0, "velocity": 0, "duration": 113}, {"note": 74, "velocity": 94, "duration": 1139}, {"note": 0, "velocity": 0, "duration": 301}, {"note": 71, "velocity": 85, "duration": 245}, {"note": 74, "velocity": 89, "duration": 269}, {"note": 71, "velocity": 80, "duration": 221}, {"note": 79, "velocity": 84, "duration": 418}, {"note": 0, "velocity": 0, "duration": 62}, {"note": 76, "velocity": 79, "duration": 119}, {"note": 0, "velocity": 0, "duration": 121}, {"note": 76, "velocity": 82, "duration": 622}, {"note": 0, "velocity": 0, "duration": 98}, {"note": 74, "velocity": 92, "duration": 447}, {"note": 71, "velocity": 84, "duration": 994}, {"note": 0, "velocity": 0, "duration": 206}, {"note": 71, "velocity": 82, "duration": 280}, {"note": 69, "velocity": 80, "duration": 227}, {"note": 67, "velocity": 79, "duration": 216}, {"note": 74, "velocity": 85, "duration": 351}, {"note": 0, "velocity": 0, "duration": 129}, {"note": 74, "velocity": 85, "duration": 134}, {"note": 0, "velocity": 0, "duration": 106}, {"note": 74, "velocity": 87, "duration": 666}, {"note": 67, "velocity": 79, "duration": 352}, {"note": 0, "velocity": 0, "duration": 128}, {"note": 69, "velocity": 80, "duration": 1008}, {"note": 0, "velocity": 0, "duration": 192}, {"note": 71, "velocity": 84, "duration": 168}, {"note": 0, "velocity": 0, "duration": 72}, {"note": 74, "velocity": 89, "duration": 268}, {"note": 71, "velocity": 80, "duration": 197}, {"note": 79, "velocity": 82, "duration": 411}, {"note": 0, "velocity": 0, "duration": 69}, {"note": 76, "velocity": 79, "duration": 135}, {"note": 0, "velocity": 0, "duration": 105}, {"note": 76, "velocity": 81, "duration": 635}, {"note": 0, "velocity": 0, "duration": 85}, {"note": 74, "velocity": 89, "duration": 507}, {"note": 71, "velocity": 80, "duration": 756}, {"note": 0, "velocity": 0, "duration": 444}, {"note": 71, "velocity": 82, "duration": 233}, {"note": 69, "velocity": 79, "duration": 114}, {"note": 0, "velocity": 0, "duration": 126}, {"note": 67, "velocity": 80, "duration": 212}, {"note": 74, "velocity": 85, "duration": 524}, {"note": 0, "velocity": 0, "duration": 196}, {"note": 76, "velocity": 82, "duration": 643}, {"note": 0, "velocity": 0, "duration": 77}, {"note": 74, "velocity": 81, "duration": 393}, {"note": 0, "velocity": 0, "duration": 87}, {"note": 74, "velocity": 84, "duration": 1019}, {"note": 0, "velocity": 0, "duration": 181}, {"note": 71, "velocity": 85, "duration": 245}, {"note": 74, "velocity": 89, "duration": 269}, {"note": 71, "velocity": 80, "duration": 221}, {"note": 79, "velocity": 84, "duration": 418}, {"note": 0, "velocity": 0, "duration": 62}, {"note": 76, "velocity": 79, "duration": 119}, {"note": 0, "velocity": 0, "duration": 121}, {"note": 76, "velocity": 82, "duration": 622}, {"note": 0, "velocity": 0, "duration": 98}, {"note": 74, "velocity": 92, "duration": 238}, {"note": 76, "velocity": 84, "duration": 742}, {"note": 74, "velocity": 82, "duration": 245}, {"note": 71, "velocity": 80, "duration": 420}, {"note": 71, "velocity": 82, "duration": 280}, {"note": 69, "velocity": 80, "duration": 227}, {"note": 67, "velocity": 79, "duration": 216}, {"note": 67, "velocity": 85, "duration": 351}, {"note": 0, "velocity": 0, "duration": 129}, {"note": 74, "velocity": 85, "duration": 134}, {"note": 0, "velocity": 0, "duration": 106}, {"note": 74, "velocity": 87, "duration": 238}, {"note": 74, "velocity": 87, "duration": 478}, {"note": 67, "velocity": 79, "duration": 238}, {"note": 69, "velocity": 80, "duration": 1198}, {"note": 0, "velocity": 0, "duration": 242}, {"note": 71, "velocity": 84, "duration": 168}, {"note": 0, "velocity": 0, "duration": 72}, {"note": 74, "velocity": 89, "duration": 268}, {"note": 71, "velocity": 80, "duration": 197}, {"note": 79, "velocity": 82, "duration": 411}, {"note": 0, "velocity": 0, "duration": 69}, {"note": 76, "velocity": 79, "duration": 135}, {"note": 0, "velocity": 0, "duration": 105}, {"note": 76, "velocity": 81, "duration": 635}, {"note": 0, "velocity": 0, "duration": 85}, {"note": 74, "velocity": 89, "duration": 507}, {"note": 76, "velocity": 79, "duration": 223}, {"note": 74, "velocity": 92, "duration": 462}, {"note": 71, "velocity": 80, "duration": 320}, {"note": 0, "velocity": 0, "duration": 160}, {"note": 71, "velocity": 82, "duration": 233}, {"note": 69, "velocity": 79, "duration": 114}, {"note": 0, "velocity": 0, "duration": 126}, {"note": 67, "velocity": 80, "duration": 212}, {"note": 74, "velocity": 85, "duration": 238}, {"note": 74, "velocity": 87, "duration": 371}, {"note": 0, "velocity": 0, "duration": 109}, {"note": 74, "velocity": 89, "duration": 367}, {"note": 0, "velocity": 0, "duration": 113}, {"note": 76, "velocity": 80, "duration": 367}, {"note": 0, "velocity": 0, "duration": 113}, {"note": 74, "velocity": 94, "duration": 1139}, {"note": 0, "velocity": 0, "duration": 61}, {"note": 76, "velocity": 82, "duration": 412}, {"note": 0, "velocity": 0, "duration": 68}, {"note": 74, "velocity": 89, "duration": 187}, {"note": 76, "velocity": 82, "duration": 2144}, {"note": 0, "velocity": 0, "duration": 4791}, {"note": 64, "velocity": 80, "duration": 500}, {"note": 63, "velocity": 77, "duration": 294}, {"note": 64, "velocity": 82, "duration": 2138}, {"note": 0, "velocity": 0, "duration": 5294}, {"note": 64, "velocity": 80, "duration": 462}, {"note": 63, "velocity": 67, "duration": 3301}, {"note": 64, "velocity": 75, "duration": 3275}]]