[[{"note": 69, "velocity": 83, "duration": 291}, {"note": 0, "velocity": 0, "duration": 69}, {"note": 76, "velocity": 80, "duration": 92}, {"note": 76, "velocity": 80, "duration": 112}, {"note": 74, "velocity": 80, "duration": 138}, {"note": 72, "velocity": 80, "duration": 205}, {"note": 74, "velocity": 84, "duration": 662}, {"note": 0, "velocity": 0, "duration": 298}, {"note": 71, "velocity": 79, "duration": 331}, {"note": 71, "velocity": 79, "duration": 82}, {"note": 71, "velocity": 79, "duration": 239}, {"note": 67, "velocity": 76, "duration": 199}, {"note": 69, "velocity": 81, "duration": 627}, {"note": 0, "velocity": 0, "duration": 324}, {"note": 72, "velocity": 79, "duration": 158}, {"note": 72, "velocity": 79, "duration": 142}, {"note": 72, "velocity": 80, "duration": 79}, {"note": 72, "velocity": 81, "duration": 203}, {"note": 69, "velocity": 74, "duration": 188}, {"note": 74, "velocity": 82, "duration": 101}, {"note": 74, "velocity": 83, "duration": 165}, {"note": 72, "velocity": 81, "duration": 85}, {"note": 74, "velocity": 83, "duration": 350}, {"note": 0, "velocity": 0, "duration": 108}, {"note": 79, "velocity": 80, "duration": 70}, {"note": 79, "velocity": 79, "duration": 64}, {"note": 79, "velocity": 79, "duration": 67}, {"note": 79, "velocity": 79, "duration": 71}, {"note": 79, "velocity": 81, "duration": 214}, {"note": 76, "velocity": 74, "duration": 104}, {"note": 74, "velocity": 83, "duration": 117}, {"note": 76, "velocity": 81, "duration": 820}, {"note": 0, "velocity": 0, "duration": 140}, {"note": 76, "velocity": 77, "duration": 69}, {"note": 76, "velocity": 79, "duration": 68}, {"note": 76, "velocity": 79, "duration": 71}, {"note": 76, "velocity": 76, "duration": 82}, {"note": 76, "velocity": 80, "duration": 199}, {"note": 74, "velocity": 83, "duration": 101}, {"note": 72, "velocity": 79, "duration": 110}, {"note": 74, "velocity": 86, "duration": 139}, {"note": 76, "velocity": 77, "duration": 124}, {"note": 74, "velocity": 80, "duration": 478}, {"note": 72, "velocity": 80, "duration": 82}, {"note": 72, "velocity": 79, "duration": 69}, {"note": 74, "velocity": 85, "duration": 300}, {"note": 76, "velocity": 81, "duration": 86}, {"note": 74, "velocity": 84, "duration": 69}, {"note": 74, "velocity": 81, "duration": 190}, {"note": 67, "velocity": 73, "duration": 85}, {"note": 69, "velocity": 80, "duration": 124}, {"note": 72, "velocity": 76, "duration": 121}, {"note": 69, "velocity": 79, "duration": 576}, {"note": 69, "velocity": 75, "duration": 75}, {"note": 72, "velocity": 79, "duration": 282}, {"note": 0, "velocity": 0, "duration": 78}, {"note": 72, "velocity": 77, "duration": 86}, {"note": 72, "velocity": 81, "duration": 257}, {"note": 69, "velocity": 78, "duration": 106}, {"note": 72, "velocity": 79, "duration": 134}, {"note": 74, "velocity": 81, "duration": 308}, {"note": 74, "velocity": 83, "duration": 116}, {"note": 72, "velocity": 82, "duration": 219}, {"note": 74, "velocity": 81, "duration": 77}, {"note": 76, "velocity": 80, "duration": 958}, {"note": 0, "velocity": 0, "duration": 122}, {"note": 74, "velocity": 79, "duration": 74}, {"note": 74, "velocity": 80, "duration": 196}, {"note": 74, "velocity": 83, "duration": 65}, {"note": 74, "velocity": 84, "duration": 188}, {"note": 72, "velocity": 82, "duration": 179}, {"note": 0, "velocity": 0, "duration": 61}, {"note": 74, "velocity": 85, "duration": 196}, {"note": 76, "velocity": 80, "duration": 88}, {"note": 74, "velocity": 81, "duration": 334}, {"note": 0, "velocity": 0, "duration": 146}, {"note": 69, "velocity": 77, "duration": 79}, {"note": 71, "velocity": 83, "duration": 181}, {"note": 71, "velocity": 83, "duration": 166}, {"note": 0, "velocity": 0, "duration": 74}, {"note": 71, "velocity": 79, "duration": 241}, {"note": 67, "velocity": 78, "duration": 223}, {"note": 69, "velocity": 78, "duration": 957}, {"note": 0, "velocity": 0, "duration": 963}, {"note": 76, "velocity": 83, "duration": 77}, {"note": 76, "velocity": 82, "duration": 198}, {"note": 84, "velocity": 79, "duration": 97}, {"note": 83, "velocity": 81, "duration": 264}, {"note": 81, "velocity": 80, "duration": 109}, {"note": 79, "velocity": 77, "duration": 101}, {"note": 81, "velocity": 82, "duration": 650}, {"note": 0, "velocity": 0, "duration": 70}, {"note": 83, "velocity": 83, "duration": 77}, {"note": 84, "velocity": 84, "duration": 77}, {"note": 83, "velocity": 88, "duration": 307}, {"note": 81, "velocity": 80, "duration": 96}, {"note": 79, "velocity": 83, "duration": 192}, {"note": 81, "velocity": 79, "duration": 117}, {"note": 79, "velocity": 80, "duration": 114}, {"note": 76, "velocity": 83, "duration": 744}, {"note": 0, "velocity": 0, "duration": 216}, {"note": 81, "velocity": 81, "duration": 82}, {"note": 81, "velocity": 80, "duration": 188}, {"note": 81, "velocity": 79, "duration": 69}, {"note": 81, "velocity": 81, "duration": 189}, {"note": 76, "velocity": 83, "duration": 191}, {"note": 72, "velocity": 83, "duration": 80}, {"note": 74, "velocity": 84, "duration": 202}, {"note": 76, "velocity": 77, "duration": 77}, {"note": 74, "velocity": 86, "duration": 339}, {"note": 0, "velocity": 0, "duration": 141}, {"note": 79, "velocity": 83, "duration": 303}, {"note": 79, "velocity": 83, "duration": 94}, {"note": 74, "velocity": 86, "duration": 190}, {"note": 79, "velocity": 84, "duration": 192}, {"note": 76, "velocity": 81, "duration": 110}, {"note": 74, "velocity": 81, "duration": 102}, {"note": 76, "velocity": 83, "duration": 605}, {"note": 0, "velocity": 0, "duration": 115}, {"note": 76, "velocity": 83, "duration": 77}, {"note": 76, "velocity": 82, "duration": 198}, {"note": 84, "velocity": 79, "duration": 97}, {"note": 83, "velocity": 81, "duration": 264}, {"note": 81, "velocity": 80, "duration": 109}, {"note": 79, "velocity": 77, "duration": 101}, {"note": 81, "velocity": 82, "duration": 650}, {"note": 0, "velocity": 0, "duration": 70}, {"note": 83, "velocity": 83, "duration": 77}, {"note": 84, "velocity": 84, "duration": 77}, {"note": 83, "velocity": 88, "duration": 238}, {"note": 83, "velocity": 80, "duration": 118}, {"note": 81, "velocity": 80, "duration": 96}, {"note": 79, "velocity": 83, "duration": 192}, {"note": 81, "velocity": 79, "duration": 117}, {"note": 79, "velocity": 80, "duration": 114}, {"note": 76, "velocity": 83, "duration": 744}, {"note": 0, "velocity": 0, "duration": 216}, {"note": 81, "velocity": 81, "duration": 82}, {"note": 81, "velocity": 80, "duration": 188}, {"note": 81, "velocity": 79, "duration": 69}, {"note": 81, "velocity": 81, "duration": 189}, {"note": 76, "velocity": 83, "duration": 191}, {"note": 72, "velocity": 83, "duration": 80}, {"note": 74, "velocity": 84, "duration": 202}, {"note": 76, "velocity": 77, "duration": 77}, {"note": 74, "velocity": 86, "duration": 238}, {"note": 72, "velocity": 80, "duration": 118}, {"note": 74, "velocity": 80, "duration": 118}, {"note": 79, "velocity": 83, "duration": 303}, {"note": 79, "velocity": 83, "duration": 94}, {"note": 74, "velocity": 86, "duration": 190}, {"note": 79, "velocity": 84, "duration": 192}, {"note": 76, "velocity": 81, "duration": 110}, {"note": 74, "velocity": 81, "duration": 102}, {"note": 76, "velocity": 83, "duration": 605}, {"note": 0, "velocity": 0, "duration": 115}, {"note": 74, "velocity": 86, "duration": 286}, {"note": 0, "velocity": 0, "duration": 74}, {"note": 74, "velocity": 83, "duration": 73}, {"note": 74, "velocity": 83, "duration": 325}, {"note": 72, "velocity": 79, "duration": 89}, {"note": 74, "velocity": 86, "duration": 187}, {"note": 76, "velocity": 81, "duration": 99}, {"note": 74, "velocity": 83, "duration": 328}, {"note": 72, "velocity": 80, "duration": 80}, {"note": 74, "velocity": 83, "duration": 86}, {"note": 76, "velocity": 81, "duration": 309}, {"note": 0, "velocity": 0, "duration": 171}, {"note": 74, "velocity": 82, "duration": 320}, {"note": 67, "velocity": 75, "duration": 97}, {"note": 69, "velocity": 80, "duration": 841}, {"note": 0, "velocity": 0, "duration": 119}, {"note": 83, "velocity": 81, "duration": 68}, {"note": 83, "velocity": 80, "duration": 58}, {"note": 0, "velocity": 0, "duration": 62}, {"note": 83, "velocity": 80, "duration": 57}, {"note": 0, "velocity": 0, "duration": 63}, {"note": 83, "velocity": 79, "duration": 104}, {"note": 79, "velocity": 83, "duration": 206}, {"note": 81, "velocity": 82, "duration": 111}, {"note": 83, "velocity": 80, "duration": 107}, {"note": 81, "velocity": 81, "duration": 932}, {"note": 0, "velocity": 0, "duration": 14428}, {"note": 76, "velocity": 77, "duration": 69}, {"note": 76, "velocity": 79, "duration": 68}, {"note": 76, "velocity": 79, "duration": 71}, {"note": 76, "velocity": 76, "duration": 82}, {"note": 76, "velocity": 80, "duration": 199}, {"note": 74, "velocity": 83, "duration": 101}, {"note": 72, "velocity": 79, "duration": 110}, {"note": 74, "velocity": 86, "duration": 139}, {"note": 76, "velocity": 77, "duration": 124}, {"note": 74, "velocity": 80, "duration": 478}, {"note": 72, "velocity": 80, "duration": 82}, {"note": 72, "velocity": 79, "duration": 69}, {"note": 74, "velocity": 85, "duration": 300}, {"note": 76, "velocity": 81, "duration": 86}, {"note": 74, "velocity": 84, "duration": 69}, {"note": 74, "velocity": 81, "duration": 190}, {"note": 67, "velocity": 73, "duration": 85}, {"note": 69, "velocity": 80, "duration": 124}, {"note": 72, "velocity": 76, "duration": 121}, {"note": 69, "velocity": 79, "duration": 576}, {"note": 69, "velocity": 75, "duration": 75}, {"note": 72, "velocity": 79, "duration": 282}, {"note": 0, "velocity": 0, "duration": 78}, {"note": 72, "velocity": 77, "duration": 86}, {"note": 72, "velocity": 81, "duration": 257}, {"note": 69, "velocity": 78, "duration": 106}, {"note": 72, "velocity": 79, "duration": 134}, {"note": 74, "velocity": 81, "duration": 308}, {"note": 74, "velocity": 83, "duration": 116}, {"note": 72, "velocity": 82, "duration": 219}, {"note": 74, "velocity": 81, "duration": 77}, {"note": 76, "velocity": 80, "duration": 958}, {"note": 0, "velocity": 0, "duration": 122}, {"note": 74, "velocity": 79, "duration": 74}, {"note": 74, "velocity": 80, "duration": 196}, {"note": 74, "velocity": 83, "duration": 65}, {"note": 74, "velocity": 84, "duration": 188}, {"note": 72, "velocity": 82, "duration": 179}, {"note": 0, "velocity": 0, "duration": 61}, {"note": 74, "velocity": 85, "duration": 196}, {"note": 76, "velocity": 80, "duration": 88}, {"note": 74, "velocity": 81, "duration": 334}, {"note": 0, "velocity": 0, "duration": 146}, {"note": 69, "velocity": 77, "duration": 79}, {"note": 71, "velocity": 83, "duration": 181}, {"note": 71, "velocity": 83, "duration": 166}, {"note": 0, "velocity": 0, "duration": 74}, {"note": 71, "velocity": 79, "duration": 241}, {"note": 67, "velocity": 78, "duration": 223}, {"note": 69, "velocity": 78, "duration": 957}, {"note": 0, "velocity": 0, "duration": 963}, {"note": 76, "velocity": 83, "duration": 77}, {"note": 76, "velocity": 82, "duration": 198}, {"note": 84, "velocity": 79, "duration": 97}, {"note": 83, "velocity": 81, "duration": 264}, {"note": 81, "velocity": 80, "duration": 109}, {"note": 79, "velocity": 77, "duration": 101}, {"note": 81, "velocity": 82, "duration": 650}, {"note": 0, "velocity": 0, "duration": 70}, {"note": 83, "velocity": 83, "duration": 77}, {"note": 84, "velocity": 84, "duration": 77}, {"note": 83, "velocity": 88, "duration": 307}, {"note": 81, "velocity": 80, "duration": 96}, {"note": 79, "velocity": 83, "duration": 192}, {"note": 81, "velocity": 79, "duration": 117}, {"note": 79, "velocity": 80, "duration": 114}, {"note": 76, "velocity": 83, "duration": 744}, {"note": 0, "velocity": 0, "duration": 216}, {"note": 81, "velocity": 81, "duration": 82}, {"note": 81, "velocity": 80, "duration": 188}, {"note": 81, "velocity": 79, "duration": 69}, {"note": 81, "velocity": 81, "duration": 189}, {"note": 76, "velocity": 83, "duration": 191}, {"note": 72, "velocity": 83, "duration": 80}, {"note": 74, "velocity": 84, "duration": 202}, {"note": 76, "velocity": 77, "duration": 77}, {"note": 74, "velocity": 86, "duration": 339}, {"note": 0, "velocity": 0, "duration": 141}, {"note": 79, "velocity": 83, "duration": 303}, {"note": 79, "velocity": 83, "duration": 94}, {"note": 74, "velocity": 86, "duration": 190}, {"note": 79, "velocity": 84, "duration": 192}, {"note": 76, "velocity": 81, "duration": 110}, {"note": 74, "velocity": 81, "duration": 102}, {"note": 76, "velocity": 83, "duration": 605}, {"note": 0, "velocity": 0, "duration": 115}, {"note": 76, "velocity": 83, "duration": 77}, {"note": 76, "velocity": 82, "duration": 198}, {"note": 84, "velocity": 79, "duration": 97}, {"note": 83, "velocity": 81, "duration": 264}, {"note": 81, "velocity": 80, "duration": 109}, {"note": 79, "velocity": 77, "duration": 101}, {"note": 81, "velocity": 82, "duration": 650}, {"note": 0, "velocity": 0, "duration": 70}, {"note": 83, "velocity": 83, "duration": 77}, {"note": 84, "velocity": 84, "duration": 77}, {"note": 83, "velocity": 88, "duration": 238}, {"note": 83, "velocity": 80, "duration": 118}, {"note": 81, "velocity": 80, "duration": 96}, {"note": 79, "velocity": 83, "duration": 192}, {"note": 81, "velocity": 79, "duration": 117}, {"note": 79, "velocity": 80, "duration": 114}, {"note": 76, "velocity": 83, "duration": 744}, {"note": 0, "velocity": 0, "duration": 216}, {"note": 81, "velocity": 81, "duration": 82}, {"note": 81, "velocity": 80, "duration": 188}, {"note": 81, "velocity": 79, "duration": 69}, {"note": 81, "velocity": 81, "duration": 189}, {"note": 76, "velocity": 83, "duration": 191}, {"note": 72, "velocity": 83, "duration": 80}, {"note": 74, "velocity": 84, "duration": 202}, {"note": 76, "velocity": 77, "duration": 77}, {"note": 74, "velocity": 86, "duration": 238}, {"note": 72, "velocity": 80, "duration": 118}, {"note": 74, "velocity": 80, "duration": 118}, {"note": 79, "velocity": 83, "duration": 303}, {"note": 79, "velocity": 83, "duration": 94}, {"note": 74, "velocity": 86, "duration": 190}, {"note": 79, "velocity": 84, "duration": 192}, {"note": 76, "velocity": 81, "duration": 110}, {"note": 74, "velocity": 81, "duration": 102}, {"note": 76, "velocity": 83, "duration": 605}, {"note": 0, "velocity": 0, "duration": 115}, {"note": 74, "velocity": 86, "duration": 286}, {"note": 0, "velocity": 0, "duration": 74}, {"note": 74, "velocity": 83, "duration": 73}, {"note": 74, "velocity": 83, "duration": 325}, {"note": 72, "velocity": 79, "duration": 89}, {"note": 74, "velocity": 86, "duration": 187}, {"note": 76, "velocity": 81, "duration": 99}, {"note": 74, "velocity": 83, "duration": 328}, {"note": 72, "velocity": 80, "duration": 80}, {"note": 74, "velocity": 83, "duration": 86}, {"note": 76, "velocity": 81, "duration": 309}, {"note": 0, "velocity": 0, "duration": 171}, {"note": 74, "velocity": 82, "duration": 320}, {"note": 67, "velocity": 75, "duration": 97}, {"note": 69, "velocity": 80, "duration": 841}, {"note": 0, "velocity": 0, "duration": 119}, {"note": 83, "velocity": 81, "duration": 68}, {"note": 83, "velocity": 80, "duration": 58}, {"note": 0, "velocity": 0, "duration": 62}, {"note": 83, "velocity": 80, "duration": 57}, {"note": 0, "velocity": 0, "duration": 63}, {"note": 83, "velocity": 79, "duration": 104}, {"note": 79, "velocity": 83, "duration": 206}, {"note": 81, "velocity": 82, "duration": 111}, {"note": 83, "velocity": 80, "duration": 107}, {"note": 81, "velocity": 81, "duration": 932}, {"note": 0, "velocity": 0, "duration": 988}, {"note": 76, "velocity": 83, "duration": 77}, {"note": 76, "velocity": 82, "duration": 198}, {"note": 84, "velocity": 79, "duration": 97}, {"note": 83, "velocity": 81, "duration": 264}, {"note": 81, "velocity": 80, "duration": 109}, {"note": 79, "velocity": 77, "duration": 101}, {"note": 81, "velocity": 82, "duration": 650}, {"note": 0, "velocity": 0, "duration": 70}, {"note": 83, "velocity": 83, "duration": 77}, {"note": 84, "velocity": 84, "duration": 77}, {"note": 83, "velocity": 88, "duration": 238}, {"note": 83, "velocity": 80, "duration": 118}, {"note": 81, "velocity": 80, "duration": 96}, {"note": 79, "velocity": 83, "duration": 192}, {"note": 81, "velocity": 79, "duration": 117}, {"note": 79, "velocity": 80, "duration": 114}, {"note": 76, "velocity": 83, "duration": 744}, {"note": 0, "velocity": 0, "duration": 216}, {"note": 81, "velocity": 81, "duration": 82}, {"note": 81, "velocity": 80, "duration": 188}, {"note": 81, "velocity": 79, "duration": 69}, {"note": 81, "velocity": 81, "duration": 189}, {"note": 76, "velocity": 83, "duration": 191}, {"note": 72, "velocity": 83, "duration": 80}, {"note": 74, "velocity": 84, "duration": 202}, {"note": 76, "velocity": 77, "duration": 77}, {"note": 74, "velocity": 86, "duration": 238}, {"note": 72, "velocity": 80, "duration": 118}, {"note": 74, "velocity": 80, "duration": 118}, {"note": 79, "velocity": 83, "duration": 303}, {"note": 79, "velocity": 83, "duration": 94}, {"note": 74, "velocity": 86, "duration": 190}, {"note": 79, "velocity": 84, "duration": 192}, {"note": 76, "velocity": 81, "duration": 110}, {"note": 74, "velocity": 81, "duration": 102}, {"note": 76, "velocity": 83, "duration": 605}, {"note": 0, "velocity": 0, "duration": 115}, {"note": 74, "velocity": 86, "duration": 286}, {"note": 0, "velocity": 0, "duration": 74}, {"note": 74, "velocity": 83, "duration": 73}, {"note": 74, "velocity": 83, "duration": 325}, {"note": 72, "velocity": 79, "duration": 89}, {"note": 74, "velocity": 86, "duration": 187}, {"note": 76, "velocity": 81, "duration": 99}, {"note": 74, "velocity": 83, "duration": 328}, {"note": 72, "velocity": 80, "duration": 80}, {"note": 74, "velocity": 83, "duration": 86}, {"note": 76, "velocity": 81, "duration": 309}, {"note": 0, "velocity": 0, "duration": 171}, {"note": 74, "velocity": 82, "duration": 320}, {"note": 67, "velocity": 75, "duration": 97}, {"note": 69, "velocity": 80, "duration": 841}, {"note": 0, "velocity": 0, "duration": 119}, {"note": 83, "velocity": 81, "duration": 68}, {"note": 83, "velocity": 80, "duration": 58}, {"note": 0, "velocity": 0, "duration": 62}, {"note": 83, "velocity": 80, "duration": 57}, {"note": 0, "velocity": 0, "duration": 63}, {"note": 83, "velocity": 79, "duration": 104}, {"note": 79, "velocity": 83, "duration": 206}, {"note": 81, "velocity": 82, "duration": 111}, {"note": 83, "velocity": 80, "duration": 107}, {"note": 81, "velocity": 81, "duration": 932}, {"note": 0, "velocity": 0, "duration": 992}, {"note": 83, "velocity": 82, "duration": 67}, {"note": 83, "velocity": 80, "duration": 84}, {"note": 0, "velocity": 0, "duration": 61}, {"note": 83, "velocity": 82, "duration": 92}, {"note": 83, "velocity": 82, "duration": 136}, {"note": 79, "velocity": 83, "duration": 674}, {"note": 81, "velocity": 81, "duration": 235}, {"note": 83, "velocity": 85, "duration": 204}, {"note": 81, "velocity": 81, "duration": 1411}]]