[[{"note": 68, "velocity": 83, "duration": 232}, {"note": 70, "velocity": 79, "duration": 318}, {"note": 72, "velocity": 84, "duration": 381}, {"note": 0, "velocity": 0, "duration": 99}, {"note": 72, "velocity": 85, "duration": 203}, {"note": 70, "velocity": 83, "duration": 288}, {"note": 72, "velocity": 86, "duration": 529}, {"note": 75, "velocity": 86, "duration": 284}, {"note": 72, "velocity": 86, "duration": 1300}, {"note": 0, "velocity": 0, "duration": 380}, {"note": 70, "velocity": 85, "duration": 256}, {"note": 72, "velocity": 85, "duration": 305}, {"note": 75, "velocity": 87, "duration": 366}, {"note": 0, "velocity": 0, "duration": 114}, {"note": 75, "velocity": 89, "duration": 254}, {"note": 72, "velocity": 85, "duration": 283}, {"note": 75, "velocity": 92, "duration": 529}, {"note": 77, "velocity": 82, "duration": 278}, {"note": 75, "velocity": 89, "duration": 1318}, {"note": 0, "velocity": 0, "duration": 362}, {"note": 72, "velocity": 85, "duration": 310}, {"note": 75, "velocity": 90, "duration": 293}, {"note": 77, "velocity": 84, "duration": 343}, {"note": 0, "velocity": 0, "duration": 137}, {"note": 77, "velocity": 89, "duration": 213}, {"note": 75, "velocity": 87, "duration": 273}, {"note": 77, "velocity": 89, "duration": 517}, {"note": 80, "velocity": 86, "duration": 298}, {"note": 77, "velocity": 86, "duration": 1404}, {"note": 0, "velocity": 0, "duration": 276}, {"note": 75, "velocity": 91, "duration": 262}, {"note": 77, "velocity": 86, "duration": 254}, {"note": 80, "velocity": 84, "duration": 387}, {"note": 0, "velocity": 0, "duration": 93}, {"note": 80, "velocity": 81, "duration": 205}, {"note": 77, "velocity": 86, "duration": 296}, {"note": 80, "velocity": 86, "duration": 480}, {"note": 84, "velocity": 85, "duration": 531}, {"note": 82, "velocity": 81, "duration": 1299}, {"note": 0, "velocity": 0, "duration": 381}, {"note": 70, "velocity": 86, "duration": 243}, {"note": 82, "velocity": 86, "duration": 349}, {"note": 0, "velocity": 0, "duration": 131}, {"note": 82, "velocity": 88, "duration": 454}, {"note": 80, "velocity": 86, "duration": 387}, {"note": 0, "velocity": 0, "duration": 93}, {"note": 80, "velocity": 85, "duration": 510}, {"note": 77, "velocity": 74, "duration": 1464}, {"note": 0, "velocity": 0, "duration": 216}, {"note": 77, "velocity": 87, "duration": 292}, {"note": 80, "velocity": 85, "duration": 371}, {"note": 0, "velocity": 0, "duration": 109}, {"note": 80, "velocity": 85, "duration": 482}, {"note": 77, "velocity": 86, "duration": 168}, {"note": 0, "velocity": 0, "duration": 72}, {"note": 77, "velocity": 85, "duration": 722}, {"note": 75, "velocity": 86, "duration": 1391}, {"note": 0, "velocity": 0, "duration": 289}, {"note": 75, "velocity": 87, "duration": 291}, {"note": 77, "velocity": 86, "duration": 370}, {"note": 0, "velocity": 0, "duration": 110}, {"note": 77, "velocity": 86, "duration": 417}, {"note": 0, "velocity": 0, "duration": 63}, {"note": 75, "velocity": 85, "duration": 143}, {"note": 0, "velocity": 0, "duration": 97}, {"note": 75, "velocity": 86, "duration": 697}, {"note": 72, "velocity": 81, "duration": 1547}, {"note": 0, "velocity": 0, "duration": 133}, {"note": 72, "velocity": 89, "duration": 232}, {"note": 75, "velocity": 92, "duration": 361}, {"note": 0, "velocity": 0, "duration": 119}, {"note": 75, "velocity": 87, "duration": 471}, {"note": 72, "velocity": 85, "duration": 194}, {"note": 72, "velocity": 86, "duration": 697}, {"note": 70, "velocity": 81, "duration": 1352}, {"note": 0, "velocity": 0, "duration": 88}, {"note": 68, "velocity": 83, "duration": 232}, {"note": 70, "velocity": 79, "duration": 318}, {"note": 72, "velocity": 84, "duration": 381}, {"note": 0, "velocity": 0, "duration": 99}, {"note": 72, "velocity": 85, "duration": 203}, {"note": 70, "velocity": 83, "duration": 288}, {"note": 72, "velocity": 86, "duration": 529}, {"note": 75, "velocity": 86, "duration": 284}, {"note": 72, "velocity": 86, "duration": 1300}, {"note": 0, "velocity": 0, "duration": 380}, {"note": 70, "velocity": 85, "duration": 256}, {"note": 72, "velocity": 85, "duration": 305}, {"note": 75, "velocity": 87, "duration": 366}, {"note": 0, "velocity": 0, "duration": 354}, {"note": 72, "velocity": 85, "duration": 283}, {"note": 75, "velocity": 92, "duration": 529}, {"note": 77, "velocity": 82, "duration": 278}, {"note": 75, "velocity": 89, "duration": 1318}, {"note": 0, "velocity": 0, "duration": 362}, {"note": 72, "velocity": 85, "duration": 310}, {"note": 75, "velocity": 90, "duration": 293}, {"note": 77, "velocity": 84, "duration": 343}, {"note": 0, "velocity": 0, "duration": 137}, {"note": 77, "velocity": 89, "duration": 213}, {"note": 75, "velocity": 87, "duration": 273}, {"note": 77, "velocity": 89, "duration": 517}, {"note": 80, "velocity": 86, "duration": 298}, {"note": 77, "velocity": 86, "duration": 1404}, {"note": 0, "velocity": 0, "duration": 276}, {"note": 75, "velocity": 91, "duration": 262}, {"note": 77, "velocity": 86, "duration": 254}, {"note": 80, "velocity": 84, "duration": 238}, {"note": 80, "velocity": 84, "duration": 238}, {"note": 80, "velocity": 81, "duration": 205}, {"note": 77, "velocity": 86, "duration": 296}, {"note": 80, "velocity": 86, "duration": 480}, {"note": 84, "velocity": 85, "duration": 531}, {"note": 82, "velocity": 81, "duration": 1299}, {"note": 0, "velocity": 0, "duration": 381}, {"note": 70, "velocity": 86, "duration": 243}, {"note": 82, "velocity": 86, "duration": 349}, {"note": 0, "velocity": 0, "duration": 131}, {"note": 82, "velocity": 88, "duration": 238}, {"note": 82, "velocity": 88, "duration": 238}, {"note": 80, "velocity": 86, "duration": 387}, {"note": 0, "velocity": 0, "duration": 93}, {"note": 80, "velocity": 85, "duration": 510}, {"note": 77, "velocity": 74, "duration": 1464}, {"note": 0, "velocity": 0, "duration": 216}, {"note": 77, "velocity": 87, "duration": 292}, {"note": 80, "velocity": 85, "duration": 371}, {"note": 0, "velocity": 0, "duration": 109}, {"note": 80, "velocity": 85, "duration": 238}, {"note": 80, "velocity": 85, "duration": 238}, {"note": 77, "velocity": 86, "duration": 478}, {"note": 77, "velocity": 85, "duration": 482}, {"note": 75, "velocity": 86, "duration": 1391}, {"note": 0, "velocity": 0, "duration": 289}, {"note": 75, "velocity": 87, "duration": 291}, {"note": 77, "velocity": 86, "duration": 370}, {"note": 0, "velocity": 0, "duration": 110}, {"note": 77, "velocity": 86, "duration": 238}, {"note": 77, "velocity": 86, "duration": 238}, {"note": 75, "velocity": 85, "duration": 478}, {"note": 75, "velocity": 86, "duration": 478}, {"note": 72, "velocity": 81, "duration": 1438}, {"note": 70, "velocity": 86, "duration": 238}, {"note": 72, "velocity": 89, "duration": 232}, {"note": 75, "velocity": 92, "duration": 238}, {"note": 75, "velocity": 92, "duration": 238}, {"note": 75, "velocity": 87, "duration": 238}, {"note": 75, "velocity": 87, "duration": 238}, {"note": 72, "velocity": 85, "duration": 478}, {"note": 72, "velocity": 86, "duration": 457}, {"note": 70, "velocity": 81, "duration": 1352}, {"note": 0, "velocity": 0, "duration": 88}, {"note": 68, "velocity": 83, "duration": 232}, {"note": 70, "velocity": 79, "duration": 318}, {"note": 72, "velocity": 84, "duration": 381}, {"note": 0, "velocity": 0, "duration": 99}, {"note": 72, "velocity": 85, "duration": 203}, {"note": 70, "velocity": 83, "duration": 288}, {"note": 72, "velocity": 86, "duration": 478}, {"note": 72, "velocity": 86, "duration": 238}, {"note": 70, "velocity": 86, "duration": 284}, {"note": 72, "velocity": 86, "duration": 478}, {"note": 75, "velocity": 86, "duration": 238}, {"note": 72, "velocity": 86, "duration": 478}, {"note": 0, "velocity": 0, "duration": 242}, {"note": 70, "velocity": 85, "duration": 256}, {"note": 72, "velocity": 85, "duration": 305}, {"note": 75, "velocity": 87, "duration": 366}, {"note": 0, "velocity": 0, "duration": 114}, {"note": 75, "velocity": 89, "duration": 254}, {"note": 72, "velocity": 85, "duration": 283}, {"note": 75, "velocity": 92, "duration": 238}, {"note": 75, "velocity": 92, "duration": 238}, {"note": 75, "velocity": 82, "duration": 238}, {"note": 72, "velocity": 82, "duration": 238}, {"note": 75, "velocity": 86, "duration": 238}, {"note": 77, "velocity": 86, "duration": 478}, {"note": 75, "velocity": 89, "duration": 718}, {"note": 72, "velocity": 85, "duration": 310}, {"note": 75, "velocity": 90, "duration": 293}, {"note": 77, "velocity": 84, "duration": 343}, {"note": 0, "velocity": 0, "duration": 137}, {"note": 77, "velocity": 89, "duration": 213}, {"note": 75, "velocity": 87, "duration": 273}, {"note": 77, "velocity": 89, "duration": 478}, {"note": 77, "velocity": 89, "duration": 213}, {"note": 75, "velocity": 87, "duration": 273}, {"note": 77, "velocity": 89, "duration": 238}, {"note": 80, "velocity": 86, "duration": 478}, {"note": 77, "velocity": 86, "duration": 718}, {"note": 75, "velocity": 91, "duration": 262}, {"note": 77, "velocity": 86, "duration": 254}, {"note": 80, "velocity": 84, "duration": 387}, {"note": 0, "velocity": 0, "duration": 93}, {"note": 80, "velocity": 81, "duration": 205}, {"note": 77, "velocity": 86, "duration": 296}, {"note": 80, "velocity": 86, "duration": 480}, {"note": 84, "velocity": 85, "duration": 531}, {"note": 82, "velocity": 81, "duration": 1299}, {"note": 0, "velocity": 0, "duration": 381}, {"note": 70, "velocity": 86, "duration": 243}, {"note": 82, "velocity": 86, "duration": 349}, {"note": 0, "velocity": 0, "duration": 131}, {"note": 82, "velocity": 88, "duration": 454}, {"note": 80, "velocity": 86, "duration": 387}, {"note": 0, "velocity": 0, "duration": 93}, {"note": 80, "velocity": 85, "duration": 510}, {"note": 77, "velocity": 74, "duration": 1464}, {"note": 0, "velocity": 0, "duration": 216}, {"note": 77, "velocity": 87, "duration": 292}, {"note": 80, "velocity": 85, "duration": 371}, {"note": 0, "velocity": 0, "duration": 109}, {"note": 80, "velocity": 85, "duration": 482}, {"note": 77, "velocity": 85, "duration": 478}, {"note": 77, "velocity": 85, "duration": 482}, {"note": 75, "velocity": 86, "duration": 1391}, {"note": 0, "velocity": 0, "duration": 529}, {"note": 77, "velocity": 86, "duration": 370}, {"note": 0, "velocity": 0, "duration": 110}, {"note": 77, "velocity": 86, "duration": 417}, {"note": 0, "velocity": 0, "duration": 63}, {"note": 75, "velocity": 85, "duration": 478}, {"note": 75, "velocity": 85, "duration": 478}, {"note": 72, "velocity": 81, "duration": 1547}, {"note": 0, "velocity": 0, "duration": 373}, {"note": 75, "velocity": 92, "duration": 361}, {"note": 0, "velocity": 0, "duration": 119}, {"note": 75, "velocity": 87, "duration": 471}, {"note": 72, "velocity": 85, "duration": 478}, {"note": 72, "velocity": 86, "duration": 478}, {"note": 70, "velocity": 81, "duration": 1352}, {"note": 0, "velocity": 0, "duration": 88}, {"note": 68, "velocity": 83, "duration": 232}, {"note": 70, "velocity": 79, "duration": 318}, {"note": 72, "velocity": 84, "duration": 381}, {"note": 0, "velocity": 0, "duration": 99}, {"note": 72, "velocity": 85, "duration": 203}, {"note": 70, "velocity": 83, "duration": 288}, {"note": 72, "velocity": 86, "duration": 478}, {"note": 72, "velocity": 86, "duration": 238}, {"note": 70, "velocity": 86, "duration": 284}, {"note": 72, "velocity": 86, "duration": 478}, {"note": 75, "velocity": 86, "duration": 238}, {"note": 72, "velocity": 86, "duration": 478}, {"note": 0, "velocity": 0, "duration": 242}, {"note": 70, "velocity": 85, "duration": 256}, {"note": 72, "velocity": 85, "duration": 305}, {"note": 75, "velocity": 87, "duration": 366}, {"note": 0, "velocity": 0, "duration": 114}, {"note": 75, "velocity": 89, "duration": 254}, {"note": 72, "velocity": 85, "duration": 283}, {"note": 75, "velocity": 92, "duration": 238}, {"note": 75, "velocity": 92, "duration": 238}, {"note": 75, "velocity": 82, "duration": 238}, {"note": 72, "velocity": 82, "duration": 238}, {"note": 75, "velocity": 86, "duration": 238}, {"note": 77, "velocity": 86, "duration": 478}, {"note": 75, "velocity": 89, "duration": 718}, {"note": 72, "velocity": 85, "duration": 310}, {"note": 75, "velocity": 90, "duration": 238}, {"note": 77, "velocity": 84, "duration": 343}, {"note": 0, "velocity": 0, "duration": 137}, {"note": 77, "velocity": 89, "duration": 213}, {"note": 75, "velocity": 87, "duration": 273}, {"note": 77, "velocity": 89, "duration": 478}, {"note": 77, "velocity": 89, "duration": 213}, {"note": 75, "velocity": 87, "duration": 273}, {"note": 77, "velocity": 89, "duration": 238}, {"note": 80, "velocity": 86, "duration": 478}, {"note": 77, "velocity": 86, "duration": 718}, {"note": 75, "velocity": 91, "duration": 262}, {"note": 77, "velocity": 86, "duration": 254}, {"note": 80, "velocity": 84, "duration": 387}, {"note": 0, "velocity": 0, "duration": 93}, {"note": 80, "velocity": 81, "duration": 205}, {"note": 77, "velocity": 86, "duration": 296}, {"note": 80, "velocity": 86, "duration": 480}, {"note": 84, "velocity": 85, "duration": 531}, {"note": 82, "velocity": 81, "duration": 1299}, {"note": 0, "velocity": 0, "duration": 381}, {"note": 70, "velocity": 86, "duration": 243}, {"note": 82, "velocity": 86, "duration": 349}, {"note": 0, "velocity": 0, "duration": 131}, {"note": 82, "velocity": 88, "duration": 454}, {"note": 80, "velocity": 86, "duration": 387}, {"note": 0, "velocity": 0, "duration": 93}, {"note": 80, "velocity": 85, "duration": 510}, {"note": 77, "velocity": 74, "duration": 1464}, {"note": 0, "velocity": 0, "duration": 456}, {"note": 80, "velocity": 85, "duration": 371}, {"note": 0, "velocity": 0, "duration": 109}, {"note": 80, "velocity": 85, "duration": 482}, {"note": 77, "velocity": 85, "duration": 478}, {"note": 77, "velocity": 85, "duration": 482}, {"note": 75, "velocity": 86, "duration": 1391}, {"note": 0, "velocity": 0, "duration": 529}, {"note": 77, "velocity": 86, "duration": 370}, {"note": 0, "velocity": 0, "duration": 110}, {"note": 77, "velocity": 86, "duration": 417}, {"note": 0, "velocity": 0, "duration": 63}, {"note": 75, "velocity": 85, "duration": 478}, {"note": 75, "velocity": 85, "duration": 478}, {"note": 72, "velocity": 81, "duration": 1547}, {"note": 0, "velocity": 0, "duration": 373}, {"note": 75, "velocity": 92, "duration": 361}, {"note": 0, "velocity": 0, "duration": 119}, {"note": 75, "velocity": 87, "duration": 471}, {"note": 72, "velocity": 85, "duration": 478}, {"note": 72, "velocity": 86, "duration": 478}, {"note": 70, "velocity": 81, "duration": 1352}, {"note": 0, "velocity": 0, "duration": 568}, {"note": 82, "velocity": 86, "duration": 349}, {"note": 0, "velocity": 0, "duration": 131}, {"note": 82, "velocity": 88, "duration": 454}, {"note": 80, "velocity": 86, "duration": 387}, {"note": 0, "velocity": 0, "duration": 93}, {"note": 80, "velocity": 85, "duration": 510}, {"note": 77, "velocity": 74, "duration": 1464}, {"note": 0, "velocity": 0, "duration": 456}, {"note": 80, "velocity": 85, "duration": 371}, {"note": 0, "velocity": 0, "duration": 109}, {"note": 80, "velocity": 85, "duration": 482}, {"note": 77, "velocity": 85, "duration": 478}, {"note": 77, "velocity": 85, "duration": 482}, {"note": 75, "velocity": 86, "duration": 1391}, {"note": 0, "velocity": 0, "duration": 529}, {"note": 77, "velocity": 86, "duration": 370}, {"note": 0, "velocity": 0, "duration": 110}, {"note": 77, "velocity": 86, "duration": 417}, {"note": 0, "velocity": 0, "duration": 63}, {"note": 75, "velocity": 85, "duration": 478}, {"note": 75, "velocity": 85, "duration": 478}, {"note": 72, "velocity": 81, "duration": 1547}, {"note": 0, "velocity": 0, "duration": 373}, {"note": 75, "velocity": 92, "duration": 361}, {"note": 0, "velocity": 0, "duration": 119}, {"note": 75, "velocity": 87, "duration": 471}, {"note": 72, "velocity": 85, "duration": 478}, {"note": 72, "velocity": 86, "duration": 478}, {"note": 70, "velocity": 81, "duration": 1352}, {"note": 0, "velocity": 0, "duration": 568}, {"note": 82, "velocity": 86, "duration": 349}, {"note": 0, "velocity": 0, "duration": 131}, {"note": 82, "velocity": 88, "duration": 454}, {"note": 80, "velocity": 86, "duration": 387}, {"note": 0, "velocity": 0, "duration": 93}, {"note": 80, "velocity": 85, "duration": 510}, {"note": 77, "velocity": 74, "duration": 1464}, {"note": 0, "velocity": 0, "duration": 456}, {"note": 80, "velocity": 85, "duration": 371}, {"note": 0, "velocity": 0, "duration": 109}, {"note": 80, "velocity": 85, "duration": 482}, {"note": 77, "velocity": 85, "duration": 478}, {"note": 77, "velocity": 85, "duration": 482}, {"note": 75, "velocity": 86, "duration": 1391}, {"note": 0, "velocity": 0, "duration": 529}, {"note": 77, "velocity": 86, "duration": 370}, {"note": 0, "velocity": 0, "duration": 110}, {"note": 77, "velocity": 86, "duration": 417}, {"note": 0, "velocity": 0, "duration": 63}, {"note": 75, "velocity": 85, "duration": 478}, {"note": 75, "velocity": 85, "duration": 478}, {"note": 72, "velocity": 81, "duration": 1547}, {"note": 0, "velocity": 0, "duration": 373}, {"note": 75, "velocity": 92, "duration": 361}, {"note": 0, "velocity": 0, "duration": 119}, {"note": 75, "velocity": 87, "duration": 471}, {"note": 72, "velocity": 85, "duration": 478}, {"note": 72, "velocity": 86, "duration": 478}, {"note": 70, "velocity": 81, "duration": 1352}, {"note": 0, "velocity": 0, "duration": 568}, {"note": 82, "velocity": 86, "duration": 349}, {"note": 0, "velocity": 0, "duration": 131}, {"note": 82, "velocity": 88, "duration": 454}, {"note": 80, "velocity": 86, "duration": 387}, {"note": 0, "velocity": 0, "duration": 93}, {"note": 80, "velocity": 85, "duration": 510}, {"note": 77, "velocity": 74, "duration": 1464}, {"note": 0, "velocity": 0, "duration": 456}, {"note": 80, "velocity": 85, "duration": 371}, {"note": 0, "velocity": 0, "duration": 109}, {"note": 80, "velocity": 85, "duration": 482}, {"note": 77, "velocity": 85, "duration": 478}, {"note": 77, "velocity": 85, "duration": 482}, {"note": 75, "velocity": 86, "duration": 1391}, {"note": 0, "velocity": 0, "duration": 529}, {"note": 77, "velocity": 86, "duration": 370}, {"note": 0, "velocity": 0, "duration": 110}, {"note": 77, "velocity": 86, "duration": 417}, {"note": 0, "velocity": 0, "duration": 63}, {"note": 75, "velocity": 85, "duration": 478}, {"note": 75, "velocity": 85, "duration": 478}, {"note": 72, "velocity": 81, "duration": 1547}, {"note": 0, "velocity": 0, "duration": 373}, {"note": 75, "velocity": 87, "duration": 501}, {"note": 0, "velocity": 0, "duration": 219}, {"note": 75, "velocity": 86, "duration": 649}, {"note": 72, "velocity": 81, "duration": 834}, {"note": 75, "velocity": 87, "duration": 1440}, {"note": 0, "velocity": 0, "duration": 480}, {"note": 77, "velocity": 85, "duration": 4114}]]