[[{"note": 67, "velocity": 83, "duration": 184}, {"note": 72, "velocity": 82, "duration": 252}, {"note": 74, "velocity": 90, "duration": 239}, {"note": 75, "velocity": 78, "duration": 305}, {"note": 74, "velocity": 81, "duration": 277}, {"note": 72, "velocity": 86, "duration": 257}, {"note": 74, "velocity": 88, "duration": 282}, {"note": 75, "velocity": 83, "duration": 351}, {"note": 74, "velocity": 83, "duration": 266}, {"note": 72, "velocity": 82, "duration": 272}, {"note": 74, "velocity": 88, "duration": 302}, {"note": 75, "velocity": 83, "duration": 325}, {"note": 74, "velocity": 81, "duration": 268}, {"note": 72, "velocity": 83, "duration": 269}, {"note": 70, "velocity": 86, "duration": 263}, {"note": 72, "velocity": 81, "duration": 270}, {"note": 67, "velocity": 80, "duration": 726}, {"note": 0, "velocity": 0, "duration": 474}, {"note": 75, "velocity": 83, "duration": 182}, {"note": 75, "velocity": 82, "duration": 193}, {"note": 74, "velocity": 87, "duration": 161}, {"note": 0, "velocity": 0, "duration": 79}, {"note": 74, "velocity": 87, "duration": 413}, {"note": 0, "velocity": 0, "duration": 67}, {"note": 72, "velocity": 83, "duration": 1218}, {"note": 0, "velocity": 0, "duration": 222}, {"note": 67, "velocity": 83, "duration": 184}, {"note": 72, "velocity": 82, "duration": 252}, {"note": 74, "velocity": 90, "duration": 239}, {"note": 75, "velocity": 78, "duration": 305}, {"note": 74, "velocity": 81, "duration": 277}, {"note": 72, "velocity": 86, "duration": 257}, {"note": 74, "velocity": 88, "duration": 282}, {"note": 75, "velocity": 83, "duration": 351}, {"note": 74, "velocity": 83, "duration": 266}, {"note": 72, "velocity": 82, "duration": 272}, {"note": 74, "velocity": 88, "duration": 302}, {"note": 75, "velocity": 83, "duration": 325}, {"note": 74, "velocity": 81, "duration": 268}, {"note": 72, "velocity": 83, "duration": 269}, {"note": 70, "velocity": 86, "duration": 263}, {"note": 72, "velocity": 81, "duration": 270}, {"note": 67, "velocity": 80, "duration": 726}, {"note": 0, "velocity": 0, "duration": 474}, {"note": 75, "velocity": 83, "duration": 182}, {"note": 75, "velocity": 82, "duration": 193}, {"note": 77, "velocity": 87, "duration": 161}, {"note": 0, "velocity": 0, "duration": 79}, {"note": 77, "velocity": 87, "duration": 413}, {"note": 0, "velocity": 0, "duration": 67}, {"note": 75, "velocity": 81, "duration": 121}, {"note": 74, "velocity": 81, "duration": 118}, {"note": 72, "velocity": 76, "duration": 1011}, {"note": 0, "velocity": 0, "duration": 189}, {"note": 67, "velocity": 83, "duration": 184}, {"note": 72, "velocity": 82, "duration": 252}, {"note": 74, "velocity": 90, "duration": 239}, {"note": 75, "velocity": 78, "duration": 305}, {"note": 74, "velocity": 81, "duration": 277}, {"note": 72, "velocity": 86, "duration": 257}, {"note": 74, "velocity": 88, "duration": 282}, {"note": 75, "velocity": 83, "duration": 351}, {"note": 74, "velocity": 83, "duration": 266}, {"note": 72, "velocity": 82, "duration": 272}, {"note": 74, "velocity": 88, "duration": 302}, {"note": 75, "velocity": 83, "duration": 325}, {"note": 74, "velocity": 81, "duration": 268}, {"note": 72, "velocity": 83, "duration": 269}, {"note": 70, "velocity": 86, "duration": 263}, {"note": 72, "velocity": 81, "duration": 270}, {"note": 67, "velocity": 80, "duration": 726}, {"note": 0, "velocity": 0, "duration": 474}, {"note": 75, "velocity": 83, "duration": 182}, {"note": 75, "velocity": 82, "duration": 193}, {"note": 74, "velocity": 87, "duration": 161}, {"note": 0, "velocity": 0, "duration": 79}, {"note": 74, "velocity": 87, "duration": 413}, {"note": 0, "velocity": 0, "duration": 67}, {"note": 72, "velocity": 83, "duration": 1218}, {"note": 0, "velocity": 0, "duration": 222}, {"note": 67, "velocity": 83, "duration": 184}, {"note": 72, "velocity": 82, "duration": 252}, {"note": 74, "velocity": 90, "duration": 239}, {"note": 75, "velocity": 78, "duration": 305}, {"note": 74, "velocity": 81, "duration": 277}, {"note": 72, "velocity": 86, "duration": 257}, {"note": 74, "velocity": 88, "duration": 282}, {"note": 75, "velocity": 83, "duration": 351}, {"note": 74, "velocity": 83, "duration": 266}, {"note": 72, "velocity": 82, "duration": 272}, {"note": 74, "velocity": 88, "duration": 302}, {"note": 75, "velocity": 83, "duration": 325}, {"note": 74, "velocity": 81, "duration": 268}, {"note": 72, "velocity": 83, "duration": 269}, {"note": 70, "velocity": 86, "duration": 263}, {"note": 72, "velocity": 81, "duration": 270}, {"note": 75, "velocity": 80, "duration": 726}, {"note": 0, "velocity": 0, "duration": 474}, {"note": 75, "velocity": 83, "duration": 182}, {"note": 75, "velocity": 82, "duration": 193}, {"note": 77, "velocity": 87, "duration": 161}, {"note": 0, "velocity": 0, "duration": 79}, {"note": 77, "velocity": 87, "duration": 413}, {"note": 0, "velocity": 0, "duration": 67}, {"note": 75, "velocity": 81, "duration": 121}, {"note": 74, "velocity": 81, "duration": 118}, {"note": 72, "velocity": 76, "duration": 1011}, {"note": 0, "velocity": 0, "duration": 3309}, {"note": 77, "velocity": 84, "duration": 189}, {"note": 79, "velocity": 83, "duration": 174}, {"note": 0, "velocity": 0, "duration": 66}, {"note": 80, "velocity": 90, "duration": 270}, {"note": 79, "velocity": 87, "duration": 212}, {"note": 77, "velocity": 82, "duration": 213}, {"note": 79, "velocity": 84, "duration": 175}, {"note": 0, "velocity": 0, "duration": 65}, {"note": 80, "velocity": 85, "duration": 271}, {"note": 79, "velocity": 85, "duration": 223}, {"note": 77, "velocity": 82, "duration": 281}, {"note": 75, "velocity": 86, "duration": 210}, {"note": 77, "velocity": 76, "duration": 180}, {"note": 75, "velocity": 83, "duration": 422}, {"note": 79, "velocity": 71, "duration": 1680}, {"note": 77, "velocity": 82, "duration": 1440}, {"note": 0, "velocity": 0, "duration": 1440}, {"note": 77, "velocity": 84, "duration": 189}, {"note": 79, "velocity": 83, "duration": 174}, {"note": 0, "velocity": 0, "duration": 66}, {"note": 80, "velocity": 90, "duration": 270}, {"note": 79, "velocity": 87, "duration": 212}, {"note": 77, "velocity": 82, "duration": 213}, {"note": 79, "velocity": 84, "duration": 175}, {"note": 0, "velocity": 0, "duration": 65}, {"note": 80, "velocity": 85, "duration": 271}, {"note": 79, "velocity": 85, "duration": 223}, {"note": 77, "velocity": 82, "duration": 281}, {"note": 75, "velocity": 86, "duration": 210}, {"note": 77, "velocity": 76, "duration": 180}, {"note": 75, "velocity": 83, "duration": 422}, {"note": 79, "velocity": 71, "duration": 1440}, {"note": 80, "velocity": 82, "duration": 240}, {"note": 79, "velocity": 82, "duration": 240}, {"note": 77, "velocity": 82, "duration": 1680}, {"note": 72, "velocity": 83, "duration": 204}, {"note": 74, "velocity": 88, "duration": 261}, {"note": 75, "velocity": 88, "duration": 469}, {"note": 72, "velocity": 83, "duration": 485}, {"note": 74, "velocity": 87, "duration": 251}, {"note": 71, "velocity": 85, "duration": 479}, {"note": 72, "velocity": 82, "duration": 895}, {"note": 0, "velocity": 0, "duration": 65}, {"note": 67, "velocity": 84, "duration": 497}, {"note": 0, "velocity": 0, "duration": 223}, {"note": 72, "velocity": 87, "duration": 188}, {"note": 74, "velocity": 90, "duration": 175}, {"note": 0, "velocity": 0, "duration": 65}, {"note": 75, "velocity": 82, "duration": 424}, {"note": 72, "velocity": 87, "duration": 421}, {"note": 74, "velocity": 87, "duration": 243}, {"note": 71, "velocity": 83, "duration": 457}, {"note": 72, "velocity": 80, "duration": 1282}, {"note": 0, "velocity": 0, "duration": 398}, {"note": 72, "velocity": 83, "duration": 204}, {"note": 74, "velocity": 88, "duration": 261}, {"note": 75, "velocity": 88, "duration": 469}, {"note": 72, "velocity": 83, "duration": 485}, {"note": 74, "velocity": 87, "duration": 251}, {"note": 71, "velocity": 85, "duration": 479}, {"note": 72, "velocity": 82, "duration": 895}, {"note": 0, "velocity": 0, "duration": 65}, {"note": 74, "velocity": 84, "duration": 497}, {"note": 0, "velocity": 0, "duration": 223}, {"note": 72, "velocity": 87, "duration": 188}, {"note": 74, "velocity": 90, "duration": 175}, {"note": 0, "velocity": 0, "duration": 65}, {"note": 75, "velocity": 82, "duration": 424}, {"note": 0, "velocity": 0, "duration": 416}, {"note": 75, "velocity": 87, "duration": 61}, {"note": 74, "velocity": 87, "duration": 243}, {"note": 71, "velocity": 83, "duration": 457}, {"note": 72, "velocity": 80, "duration": 1282}, {"note": 0, "velocity": 0, "duration": 21278}, {"note": 67, "velocity": 83, "duration": 184}, {"note": 72, "velocity": 82, "duration": 252}, {"note": 74, "velocity": 90, "duration": 239}, {"note": 75, "velocity": 78, "duration": 305}, {"note": 74, "velocity": 81, "duration": 277}, {"note": 72, "velocity": 86, "duration": 257}, {"note": 74, "velocity": 88, "duration": 282}, {"note": 75, "velocity": 83, "duration": 351}, {"note": 74, "velocity": 83, "duration": 266}, {"note": 72, "velocity": 82, "duration": 272}, {"note": 74, "velocity": 88, "duration": 302}, {"note": 75, "velocity": 83, "duration": 325}, {"note": 74, "velocity": 81, "duration": 268}, {"note": 72, "velocity": 83, "duration": 269}, {"note": 70, "velocity": 86, "duration": 263}, {"note": 72, "velocity": 81, "duration": 270}, {"note": 67, "velocity": 80, "duration": 726}, {"note": 0, "velocity": 0, "duration": 474}, {"note": 75, "velocity": 83, "duration": 182}, {"note": 75, "velocity": 82, "duration": 193}, {"note": 74, "velocity": 87, "duration": 161}, {"note": 0, "velocity": 0, "duration": 79}, {"note": 74, "velocity": 87, "duration": 413}, {"note": 0, "velocity": 0, "duration": 67}, {"note": 72, "velocity": 83, "duration": 1218}, {"note": 0, "velocity": 0, "duration": 222}, {"note": 67, "velocity": 83, "duration": 184}, {"note": 72, "velocity": 82, "duration": 252}, {"note": 74, "velocity": 90, "duration": 239}, {"note": 75, "velocity": 78, "duration": 305}, {"note": 74, "velocity": 81, "duration": 277}, {"note": 72, "velocity": 86, "duration": 257}, {"note": 74, "velocity": 88, "duration": 282}, {"note": 75, "velocity": 83, "duration": 351}, {"note": 74, "velocity": 83, "duration": 266}, {"note": 72, "velocity": 82, "duration": 272}, {"note": 74, "velocity": 88, "duration": 302}, {"note": 75, "velocity": 83, "duration": 325}, {"note": 74, "velocity": 81, "duration": 268}, {"note": 72, "velocity": 83, "duration": 269}, {"note": 70, "velocity": 86, "duration": 263}, {"note": 72, "velocity": 81, "duration": 270}, {"note": 75, "velocity": 80, "duration": 726}, {"note": 0, "velocity": 0, "duration": 474}, {"note": 75, "velocity": 83, "duration": 182}, {"note": 75, "velocity": 82, "duration": 193}, {"note": 77, "velocity": 87, "duration": 161}, {"note": 0, "velocity": 0, "duration": 79}, {"note": 77, "velocity": 87, "duration": 413}, {"note": 0, "velocity": 0, "duration": 67}, {"note": 75, "velocity": 81, "duration": 121}, {"note": 74, "velocity": 81, "duration": 118}, {"note": 72, "velocity": 76, "duration": 1011}, {"note": 0, "velocity": 0, "duration": 3309}, {"note": 77, "velocity": 84, "duration": 189}, {"note": 79, "velocity": 83, "duration": 174}, {"note": 0, "velocity": 0, "duration": 66}, {"note": 80, "velocity": 90, "duration": 270}, {"note": 79, "velocity": 87, "duration": 212}, {"note": 77, "velocity": 82, "duration": 213}, {"note": 79, "velocity": 84, "duration": 175}, {"note": 0, "velocity": 0, "duration": 65}, {"note": 80, "velocity": 85, "duration": 271}, {"note": 79, "velocity": 85, "duration": 223}, {"note": 77, "velocity": 82, "duration": 281}, {"note": 75, "velocity": 86, "duration": 210}, {"note": 77, "velocity": 76, "duration": 180}, {"note": 75, "velocity": 83, "duration": 422}, {"note": 79, "velocity": 71, "duration": 1680}, {"note": 77, "velocity": 82, "duration": 1440}, {"note": 0, "velocity": 0, "duration": 1440}, {"note": 77, "velocity": 84, "duration": 189}, {"note": 79, "velocity": 83, "duration": 174}, {"note": 0, "velocity": 0, "duration": 66}, {"note": 80, "velocity": 90, "duration": 270}, {"note": 79, "velocity": 87, "duration": 212}, {"note": 77, "velocity": 82, "duration": 213}, {"note": 79, "velocity": 84, "duration": 175}, {"note": 0, "velocity": 0, "duration": 65}, {"note": 80, "velocity": 85, "duration": 271}, {"note": 79, "velocity": 85, "duration": 223}, {"note": 77, "velocity": 82, "duration": 281}, {"note": 75, "velocity": 86, "duration": 210}, {"note": 77, "velocity": 76, "duration": 180}, {"note": 75, "velocity": 83, "duration": 422}, {"note": 79, "velocity": 71, "duration": 1440}, {"note": 80, "velocity": 82, "duration": 240}, {"note": 79, "velocity": 82, "duration": 240}, {"note": 77, "velocity": 82, "duration": 1680}, {"note": 72, "velocity": 83, "duration": 204}, {"note": 74, "velocity": 88, "duration": 261}, {"note": 75, "velocity": 88, "duration": 469}, {"note": 72, "velocity": 83, "duration": 485}, {"note": 74, "velocity": 87, "duration": 251}, {"note": 71, "velocity": 85, "duration": 479}, {"note": 72, "velocity": 82, "duration": 895}, {"note": 0, "velocity": 0, "duration": 65}, {"note": 67, "velocity": 84, "duration": 497}, {"note": 0, "velocity": 0, "duration": 223}, {"note": 72, "velocity": 87, "duration": 188}, {"note": 74, "velocity": 90, "duration": 175}, {"note": 0, "velocity": 0, "duration": 65}, {"note": 75, "velocity": 82, "duration": 424}, {"note": 72, "velocity": 87, "duration": 421}, {"note": 74, "velocity": 87, "duration": 243}, {"note": 71, "velocity": 83, "duration": 457}, {"note": 72, "velocity": 80, "duration": 1282}, {"note": 0, "velocity": 0, "duration": 398}, {"note": 72, "velocity": 83, "duration": 204}, {"note": 74, "velocity": 88, "duration": 261}, {"note": 75, "velocity": 88, "duration": 469}, {"note": 72, "velocity": 83, "duration": 485}, {"note": 74, "velocity": 87, "duration": 251}, {"note": 71, "velocity": 85, "duration": 479}, {"note": 72, "velocity": 82, "duration": 895}, {"note": 0, "velocity": 0, "duration": 65}, {"note": 74, "velocity": 84, "duration": 497}, {"note": 0, "velocity": 0, "duration": 223}, {"note": 72, "velocity": 87, "duration": 188}, {"note": 74, "velocity": 90, "duration": 175}, {"note": 0, "velocity": 0, "duration": 65}, {"note": 75, "velocity": 82, "duration": 424}, {"note": 0, "velocity": 0, "duration": 416}, {"note": 75, "velocity": 87, "duration": 61}, {"note": 74, "velocity": 87, "duration": 243}, {"note": 71, "velocity": 83, "duration": 457}, {"note": 72, "velocity": 80, "duration": 1282}, {"note": 0, "velocity": 0, "duration": 398}, {"note": 72, "velocity": 83, "duration": 204}, {"note": 74, "velocity": 88, "duration": 261}, {"note": 75, "velocity": 88, "duration": 469}, {"note": 72, "velocity": 83, "duration": 485}, {"note": 74, "velocity": 87, "duration": 251}, {"note": 71, "velocity": 85, "duration": 479}, {"note": 72, "velocity": 82, "duration": 895}, {"note": 0, "velocity": 0, "duration": 65}, {"note": 67, "velocity": 84, "duration": 497}, {"note": 0, "velocity": 0, "duration": 223}, {"note": 72, "velocity": 87, "duration": 188}, {"note": 74, "velocity": 90, "duration": 175}, {"note": 0, "velocity": 0, "duration": 65}, {"note": 75, "velocity": 82, "duration": 424}, {"note": 72, "velocity": 87, "duration": 421}, {"note": 74, "velocity": 87, "duration": 243}, {"note": 71, "velocity": 83, "duration": 457}, {"note": 72, "velocity": 80, "duration": 1282}, {"note": 0, "velocity": 0, "duration": 398}, {"note": 72, "velocity": 83, "duration": 204}, {"note": 74, "velocity": 88, "duration": 261}, {"note": 75, "velocity": 88, "duration": 469}, {"note": 72, "velocity": 83, "duration": 485}, {"note": 74, "velocity": 87, "duration": 251}, {"note": 71, "velocity": 85, "duration": 479}, {"note": 72, "velocity": 82, "duration": 895}, {"note": 0, "velocity": 0, "duration": 65}, {"note": 74, "velocity": 84, "duration": 497}, {"note": 0, "velocity": 0, "duration": 223}, {"note": 72, "velocity": 87, "duration": 188}, {"note": 74, "velocity": 90, "duration": 175}, {"note": 0, "velocity": 0, "duration": 65}, {"note": 75, "velocity": 82, "duration": 424}, {"note": 0, "velocity": 0, "duration": 416}, {"note": 75, "velocity": 87, "duration": 61}, {"note": 74, "velocity": 87, "duration": 243}, {"note": 71, "velocity": 83, "duration": 457}, {"note": 72, "velocity": 80, "duration": 1282}, {"note": 0, "velocity": 0, "duration": 15758}, {"note": 72, "velocity": 83, "duration": 204}, {"note": 74, "velocity": 88, "duration": 261}, {"note": 75, "velocity": 88, "duration": 469}, {"note": 72, "velocity": 83, "duration": 485}, {"note": 74, "velocity": 87, "duration": 251}, {"note": 71, "velocity": 85, "duration": 479}, {"note": 72, "velocity": 82, "duration": 895}, {"note": 0, "velocity": 0, "duration": 65}, {"note": 67, "velocity": 84, "duration": 497}, {"note": 0, "velocity": 0, "duration": 223}, {"note": 72, "velocity": 87, "duration": 188}, {"note": 74, "velocity": 90, "duration": 175}, {"note": 0, "velocity": 0, "duration": 65}, {"note": 75, "velocity": 82, "duration": 424}, {"note": 72, "velocity": 87, "duration": 421}, {"note": 74, "velocity": 87, "duration": 243}, {"note": 71, "velocity": 83, "duration": 457}, {"note": 72, "velocity": 80, "duration": 1282}, {"note": 0, "velocity": 0, "duration": 398}, {"note": 72, "velocity": 83, "duration": 204}, {"note": 74, "velocity": 88, "duration": 261}, {"note": 75, "velocity": 88, "duration": 469}, {"note": 72, "velocity": 83, "duration": 485}, {"note": 74, "velocity": 87, "duration": 251}, {"note": 71, "velocity": 85, "duration": 479}, {"note": 72, "velocity": 82, "duration": 895}, {"note": 0, "velocity": 0, "duration": 65}, {"note": 74, "velocity": 84, "duration": 497}, {"note": 0, "velocity": 0, "duration": 223}, {"note": 72, "velocity": 87, "duration": 188}, {"note": 74, "velocity": 90, "duration": 175}, {"note": 0, "velocity": 0, "duration": 65}, {"note": 75, "velocity": 82, "duration": 424}, {"note": 0, "velocity": 0, "duration": 416}, {"note": 75, "velocity": 87, "duration": 61}, {"note": 74, "velocity": 87, "duration": 243}, {"note": 71, "velocity": 83, "duration": 457}, {"note": 72, "velocity": 80, "duration": 1282}, {"note": 0, "velocity": 0, "duration": 398}, {"note": 72, "velocity": 83, "duration": 204}, {"note": 74, "velocity": 88, "duration": 261}, {"note": 75, "velocity": 88, "duration": 469}, {"note": 72, "velocity": 83, "duration": 485}, {"note": 74, "velocity": 87, "duration": 251}, {"note": 71, "velocity": 85, "duration": 479}, {"note": 72, "velocity": 82, "duration": 895}, {"note": 0, "velocity": 0, "duration": 65}, {"note": 67, "velocity": 84, "duration": 497}, {"note": 0, "velocity": 0, "duration": 223}, {"note": 72, "velocity": 87, "duration": 188}, {"note": 74, "velocity": 90, "duration": 175}, {"note": 0, "velocity": 0, "duration": 65}, {"note": 75, "velocity": 82, "duration": 424}, {"note": 72, "velocity": 87, "duration": 421}, {"note": 74, "velocity": 87, "duration": 243}, {"note": 71, "velocity": 83, "duration": 457}, {"note": 72, "velocity": 80, "duration": 1282}, {"note": 0, "velocity": 0, "duration": 398}, {"note": 72, "velocity": 83, "duration": 204}, {"note": 74, "velocity": 88, "duration": 261}, {"note": 75, "velocity": 88, "duration": 469}, {"note": 72, "velocity": 83, "duration": 485}, {"note": 74, "velocity": 87, "duration": 251}, {"note": 71, "velocity": 85, "duration": 479}, {"note": 72, "velocity": 82, "duration": 895}, {"note": 0, "velocity": 0, "duration": 65}, {"note": 74, "velocity": 84, "duration": 497}, {"note": 0, "velocity": 0, "duration": 223}, {"note": 72, "velocity": 87, "duration": 188}, {"note": 74, "velocity": 90, "duration": 175}, {"note": 0, "velocity": 0, "duration": 65}, {"note": 75, "velocity": 82, "duration": 424}, {"note": 0, "velocity": 0, "duration": 416}, {"note": 75, "velocity": 87, "duration": 61}, {"note": 74, "velocity": 87, "duration": 243}, {"note": 71, "velocity": 83, "duration": 457}, {"note": 72, "velocity": 80, "duration": 1282}]]