[[{"note": 69, "velocity": 84, "duration": 155}, {"note": 0, "velocity": 0, "duration": 85}, {"note": 69, "velocity": 83, "duration": 196}, {"note": 69, "velocity": 85, "duration": 218}, {"note": 67, "velocity": 82, "duration": 251}, {"note": 65, "velocity": 83, "duration": 760}, {"note": 0, "velocity": 0, "duration": 200}, {"note": 64, "velocity": 83, "duration": 180}, {"note": 62, "velocity": 83, "duration": 177}, {"note": 0, "velocity": 0, "duration": 63}, {"note": 64, "velocity": 82, "duration": 210}, {"note": 60, "velocity": 74, "duration": 237}, {"note": 62, "velocity": 71, "duration": 737}, {"note": 0, "velocity": 0, "duration": 223}, {"note": 65, "velocity": 83, "duration": 177}, {"note": 0, "velocity": 0, "duration": 63}, {"note": 65, "velocity": 85, "duration": 177}, {"note": 0, "velocity": 0, "duration": 63}, {"note": 65, "velocity": 87, "duration": 196}, {"note": 62, "velocity": 87, "duration": 183}, {"note": 72, "velocity": 86, "duration": 476}, {"note": 69, "velocity": 79, "duration": 248}, {"note": 67, "velocity": 78, "duration": 250}, {"note": 69, "velocity": 83, "duration": 1479}, {"note": 0, "velocity": 0, "duration": 441}, {"note": 69, "velocity": 84, "duration": 229}, {"note": 74, "velocity": 87, "duration": 177}, {"note": 0, "velocity": 0, "duration": 63}, {"note": 74, "velocity": 89, "duration": 153}, {"note": 0, "velocity": 0, "duration": 87}, {"note": 72, "velocity": 79, "duration": 216}, {"note": 69, "velocity": 85, "duration": 728}, {"note": 67, "velocity": 75, "duration": 264}, {"note": 65, "velocity": 79, "duration": 180}, {"note": 65, "velocity": 80, "duration": 213}, {"note": 62, "velocity": 85, "duration": 232}, {"note": 60, "velocity": 83, "duration": 267}, {"note": 57, "velocity": 83, "duration": 845}, {"note": 0, "velocity": 0, "duration": 115}, {"note": 57, "velocity": 84, "duration": 248}, {"note": 60, "velocity": 84, "duration": 234}, {"note": 62, "velocity": 84, "duration": 263}, {"note": 69, "velocity": 87, "duration": 269}, {"note": 67, "velocity": 83, "duration": 247}, {"note": 65, "velocity": 83, "duration": 255}, {"note": 62, "velocity": 84, "duration": 278}, {"note": 60, "velocity": 84, "duration": 247}, {"note": 62, "velocity": 83, "duration": 1747}, {"note": 0, "velocity": 0, "duration": 173}, {"note": 69, "velocity": 84, "duration": 155}, {"note": 0, "velocity": 0, "duration": 85}, {"note": 69, "velocity": 83, "duration": 196}, {"note": 69, "velocity": 85, "duration": 218}, {"note": 67, "velocity": 82, "duration": 251}, {"note": 65, "velocity": 83, "duration": 760}, {"note": 0, "velocity": 0, "duration": 200}, {"note": 64, "velocity": 83, "duration": 180}, {"note": 62, "velocity": 83, "duration": 177}, {"note": 0, "velocity": 0, "duration": 63}, {"note": 64, "velocity": 82, "duration": 210}, {"note": 60, "velocity": 74, "duration": 237}, {"note": 62, "velocity": 71, "duration": 737}, {"note": 0, "velocity": 0, "duration": 223}, {"note": 65, "velocity": 83, "duration": 177}, {"note": 0, "velocity": 0, "duration": 63}, {"note": 65, "velocity": 85, "duration": 177}, {"note": 0, "velocity": 0, "duration": 63}, {"note": 65, "velocity": 87, "duration": 196}, {"note": 62, "velocity": 87, "duration": 183}, {"note": 72, "velocity": 86, "duration": 476}, {"note": 69, "velocity": 79, "duration": 248}, {"note": 67, "velocity": 78, "duration": 250}, {"note": 69, "velocity": 83, "duration": 1479}, {"note": 0, "velocity": 0, "duration": 441}, {"note": 69, "velocity": 84, "duration": 229}, {"note": 74, "velocity": 87, "duration": 177}, {"note": 0, "velocity": 0, "duration": 63}, {"note": 74, "velocity": 89, "duration": 153}, {"note": 0, "velocity": 0, "duration": 87}, {"note": 72, "velocity": 79, "duration": 216}, {"note": 69, "velocity": 85, "duration": 728}, {"note": 67, "velocity": 75, "duration": 264}, {"note": 65, "velocity": 79, "duration": 180}, {"note": 65, "velocity": 80, "duration": 213}, {"note": 62, "velocity": 85, "duration": 232}, {"note": 60, "velocity": 83, "duration": 267}, {"note": 57, "velocity": 83, "duration": 845}, {"note": 0, "velocity": 0, "duration": 115}, {"note": 57, "velocity": 84, "duration": 248}, {"note": 60, "velocity": 84, "duration": 234}, {"note": 62, "velocity": 84, "duration": 263}, {"note": 69, "velocity": 87, "duration": 269}, {"note": 67, "velocity": 83, "duration": 247}, {"note": 65, "velocity": 83, "duration": 255}, {"note": 62, "velocity": 84, "duration": 278}, {"note": 60, "velocity": 84, "duration": 247}, {"note": 62, "velocity": 83, "duration": 1200}, {"note": 0, "velocity": 0, "duration": 240}, {"note": 69, "velocity": 89, "duration": 198}, {"note": 72, "velocity": 89, "duration": 233}, {"note": 74, "velocity": 89, "duration": 302}, {"note": 74, "velocity": 94, "duration": 295}, {"note": 0, "velocity": 0, "duration": 65}, {"note": 77, "velocity": 83, "duration": 257}, {"note": 76, "velocity": 88, "duration": 253}, {"note": 74, "velocity": 94, "duration": 183}, {"note": 74, "velocity": 92, "duration": 231}, {"note": 72, "velocity": 84, "duration": 260}, {"note": 74, "velocity": 92, "duration": 1312}, {"note": 0, "velocity": 0, "duration": 128}, {"note": 69, "velocity": 89, "duration": 198}, {"note": 72, "velocity": 89, "duration": 233}, {"note": 74, "velocity": 89, "duration": 302}, {"note": 74, "velocity": 94, "duration": 295}, {"note": 0, "velocity": 0, "duration": 65}, {"note": 77, "velocity": 83, "duration": 257}, {"note": 76, "velocity": 88, "duration": 253}, {"note": 74, "velocity": 94, "duration": 183}, {"note": 74, "velocity": 92, "duration": 231}, {"note": 72, "velocity": 84, "duration": 260}, {"note": 69, "velocity": 92, "duration": 1312}, {"note": 0, "velocity": 0, "duration": 128}, {"note": 69, "velocity": 94, "duration": 201}, {"note": 72, "velocity": 87, "duration": 176}, {"note": 0, "velocity": 0, "duration": 64}, {"note": 74, "velocity": 86, "duration": 325}, {"note": 74, "velocity": 89, "duration": 334}, {"note": 72, "velocity": 89, "duration": 246}, {"note": 69, "velocity": 87, "duration": 195}, {"note": 62, "velocity": 87, "duration": 173}, {"note": 0, "velocity": 0, "duration": 67}, {"note": 65, "velocity": 84, "duration": 244}, {"note": 69, "velocity": 85, "duration": 266}, {"note": 67, "velocity": 83, "duration": 1243}, {"note": 0, "velocity": 0, "duration": 197}, {"note": 62, "velocity": 84, "duration": 181}, {"note": 65, "velocity": 85, "duration": 251}, {"note": 67, "velocity": 81, "duration": 164}, {"note": 0, "velocity": 0, "duration": 76}, {"note": 67, "velocity": 79, "duration": 176}, {"note": 0, "velocity": 0, "duration": 64}, {"note": 67, "velocity": 84, "duration": 209}, {"note": 69, "velocity": 83, "duration": 260}, {"note": 72, "velocity": 85, "duration": 225}, {"note": 69, "velocity": 84, "duration": 259}, {"note": 72, "velocity": 83, "duration": 231}, {"note": 67, "velocity": 82, "duration": 276}, {"note": 69, "velocity": 84, "duration": 1332}, {"note": 0, "velocity": 0, "duration": 108}, {"note": 69, "velocity": 89, "duration": 198}, {"note": 72, "velocity": 89, "duration": 233}, {"note": 74, "velocity": 89, "duration": 302}, {"note": 74, "velocity": 94, "duration": 295}, {"note": 0, "velocity": 0, "duration": 65}, {"note": 77, "velocity": 83, "duration": 257}, {"note": 76, "velocity": 88, "duration": 253}, {"note": 74, "velocity": 94, "duration": 183}, {"note": 74, "velocity": 92, "duration": 231}, {"note": 72, "velocity": 84, "duration": 260}, {"note": 74, "velocity": 92, "duration": 1312}, {"note": 0, "velocity": 0, "duration": 128}, {"note": 69, "velocity": 89, "duration": 198}, {"note": 72, "velocity": 89, "duration": 233}, {"note": 74, "velocity": 89, "duration": 302}, {"note": 74, "velocity": 94, "duration": 295}, {"note": 0, "velocity": 0, "duration": 65}, {"note": 77, "velocity": 83, "duration": 257}, {"note": 76, "velocity": 88, "duration": 253}, {"note": 74, "velocity": 94, "duration": 183}, {"note": 74, "velocity": 92, "duration": 231}, {"note": 72, "velocity": 84, "duration": 260}, {"note": 69, "velocity": 92, "duration": 1312}, {"note": 0, "velocity": 0, "duration": 608}, {"note": 69, "velocity": 87, "duration": 226}, {"note": 74, "velocity": 85, "duration": 188}, {"note": 74, "velocity": 88, "duration": 207}, {"note": 69, "velocity": 84, "duration": 194}, {"note": 67, "velocity": 84, "duration": 806}, {"note": 0, "velocity": 0, "duration": 154}, {"note": 69, "velocity": 85, "duration": 183}, {"note": 72, "velocity": 85, "duration": 180}, {"note": 72, "velocity": 84, "duration": 204}, {"note": 69, "velocity": 84, "duration": 235}, {"note": 65, "velocity": 83, "duration": 843}, {"note": 0, "velocity": 0, "duration": 117}, {"note": 64, "velocity": 89, "duration": 159}, {"note": 0, "velocity": 0, "duration": 81}, {"note": 64, "velocity": 88, "duration": 145}, {"note": 0, "velocity": 0, "duration": 95}, {"note": 64, "velocity": 90, "duration": 190}, {"note": 72, "velocity": 87, "duration": 263}, {"note": 69, "velocity": 87, "duration": 267}, {"note": 67, "velocity": 84, "duration": 250}, {"note": 65, "velocity": 84, "duration": 108}, {"note": 67, "velocity": 83, "duration": 143}, {"note": 65, "velocity": 82, "duration": 142}, {"note": 64, "velocity": 85, "duration": 136}, {"note": 62, "velocity": 86, "duration": 1807}, {"note": 0, "velocity": 0, "duration": 15473}, {"note": 69, "velocity": 84, "duration": 155}, {"note": 0, "velocity": 0, "duration": 85}, {"note": 69, "velocity": 83, "duration": 196}, {"note": 69, "velocity": 85, "duration": 218}, {"note": 67, "velocity": 82, "duration": 251}, {"note": 65, "velocity": 83, "duration": 760}, {"note": 0, "velocity": 0, "duration": 200}, {"note": 64, "velocity": 83, "duration": 180}, {"note": 62, "velocity": 83, "duration": 177}, {"note": 0, "velocity": 0, "duration": 63}, {"note": 64, "velocity": 82, "duration": 210}, {"note": 60, "velocity": 74, "duration": 237}, {"note": 62, "velocity": 71, "duration": 737}, {"note": 0, "velocity": 0, "duration": 223}, {"note": 65, "velocity": 83, "duration": 177}, {"note": 0, "velocity": 0, "duration": 63}, {"note": 65, "velocity": 85, "duration": 177}, {"note": 0, "velocity": 0, "duration": 63}, {"note": 65, "velocity": 87, "duration": 196}, {"note": 62, "velocity": 87, "duration": 183}, {"note": 72, "velocity": 86, "duration": 476}, {"note": 69, "velocity": 79, "duration": 248}, {"note": 67, "velocity": 78, "duration": 250}, {"note": 69, "velocity": 83, "duration": 1479}, {"note": 0, "velocity": 0, "duration": 441}, {"note": 69, "velocity": 84, "duration": 229}, {"note": 74, "velocity": 87, "duration": 177}, {"note": 0, "velocity": 0, "duration": 63}, {"note": 74, "velocity": 89, "duration": 153}, {"note": 0, "velocity": 0, "duration": 87}, {"note": 72, "velocity": 79, "duration": 216}, {"note": 69, "velocity": 85, "duration": 728}, {"note": 67, "velocity": 75, "duration": 264}, {"note": 65, "velocity": 79, "duration": 180}, {"note": 65, "velocity": 80, "duration": 213}, {"note": 62, "velocity": 85, "duration": 232}, {"note": 60, "velocity": 83, "duration": 267}, {"note": 57, "velocity": 83, "duration": 845}, {"note": 0, "velocity": 0, "duration": 115}, {"note": 57, "velocity": 84, "duration": 248}, {"note": 60, "velocity": 84, "duration": 234}, {"note": 62, "velocity": 84, "duration": 263}, {"note": 69, "velocity": 87, "duration": 269}, {"note": 67, "velocity": 83, "duration": 247}, {"note": 65, "velocity": 83, "duration": 255}, {"note": 62, "velocity": 84, "duration": 278}, {"note": 60, "velocity": 84, "duration": 247}, {"note": 62, "velocity": 83, "duration": 1200}, {"note": 0, "velocity": 0, "duration": 240}, {"note": 69, "velocity": 89, "duration": 198}, {"note": 72, "velocity": 89, "duration": 233}, {"note": 74, "velocity": 89, "duration": 302}, {"note": 74, "velocity": 94, "duration": 295}, {"note": 0, "velocity": 0, "duration": 65}, {"note": 77, "velocity": 83, "duration": 257}, {"note": 76, "velocity": 88, "duration": 253}, {"note": 74, "velocity": 94, "duration": 183}, {"note": 74, "velocity": 92, "duration": 231}, {"note": 72, "velocity": 84, "duration": 260}, {"note": 74, "velocity": 92, "duration": 1312}, {"note": 0, "velocity": 0, "duration": 128}, {"note": 69, "velocity": 89, "duration": 198}, {"note": 72, "velocity": 89, "duration": 233}, {"note": 74, "velocity": 89, "duration": 302}, {"note": 74, "velocity": 94, "duration": 295}, {"note": 0, "velocity": 0, "duration": 65}, {"note": 77, "velocity": 83, "duration": 257}, {"note": 76, "velocity": 88, "duration": 253}, {"note": 74, "velocity": 94, "duration": 183}, {"note": 74, "velocity": 92, "duration": 231}, {"note": 72, "velocity": 84, "duration": 260}, {"note": 69, "velocity": 92, "duration": 1312}, {"note": 0, "velocity": 0, "duration": 128}, {"note": 69, "velocity": 94, "duration": 201}, {"note": 72, "velocity": 87, "duration": 176}, {"note": 0, "velocity": 0, "duration": 64}, {"note": 74, "velocity": 86, "duration": 325}, {"note": 74, "velocity": 89, "duration": 334}, {"note": 72, "velocity": 89, "duration": 246}, {"note": 69, "velocity": 87, "duration": 195}, {"note": 62, "velocity": 87, "duration": 173}, {"note": 0, "velocity": 0, "duration": 67}, {"note": 65, "velocity": 84, "duration": 244}, {"note": 69, "velocity": 85, "duration": 266}, {"note": 67, "velocity": 83, "duration": 1243}, {"note": 0, "velocity": 0, "duration": 197}, {"note": 62, "velocity": 84, "duration": 181}, {"note": 65, "velocity": 85, "duration": 251}, {"note": 67, "velocity": 81, "duration": 164}, {"note": 0, "velocity": 0, "duration": 76}, {"note": 67, "velocity": 79, "duration": 176}, {"note": 0, "velocity": 0, "duration": 64}, {"note": 67, "velocity": 84, "duration": 209}, {"note": 69, "velocity": 83, "duration": 260}, {"note": 72, "velocity": 85, "duration": 225}, {"note": 69, "velocity": 84, "duration": 259}, {"note": 72, "velocity": 83, "duration": 231}, {"note": 67, "velocity": 82, "duration": 276}, {"note": 69, "velocity": 84, "duration": 1332}, {"note": 0, "velocity": 0, "duration": 108}, {"note": 69, "velocity": 89, "duration": 198}, {"note": 72, "velocity": 89, "duration": 233}, {"note": 74, "velocity": 89, "duration": 302}, {"note": 74, "velocity": 94, "duration": 295}, {"note": 0, "velocity": 0, "duration": 65}, {"note": 77, "velocity": 83, "duration": 257}, {"note": 76, "velocity": 88, "duration": 253}, {"note": 74, "velocity": 94, "duration": 183}, {"note": 74, "velocity": 92, "duration": 231}, {"note": 72, "velocity": 84, "duration": 260}, {"note": 74, "velocity": 92, "duration": 1312}, {"note": 0, "velocity": 0, "duration": 128}, {"note": 69, "velocity": 89, "duration": 198}, {"note": 72, "velocity": 89, "duration": 233}, {"note": 74, "velocity": 89, "duration": 302}, {"note": 74, "velocity": 94, "duration": 295}, {"note": 0, "velocity": 0, "duration": 65}, {"note": 77, "velocity": 83, "duration": 257}, {"note": 76, "velocity": 88, "duration": 253}, {"note": 74, "velocity": 94, "duration": 183}, {"note": 74, "velocity": 92, "duration": 231}, {"note": 72, "velocity": 84, "duration": 260}, {"note": 69, "velocity": 92, "duration": 1312}, {"note": 0, "velocity": 0, "duration": 608}, {"note": 69, "velocity": 87, "duration": 226}, {"note": 74, "velocity": 85, "duration": 188}, {"note": 74, "velocity": 88, "duration": 207}, {"note": 69, "velocity": 84, "duration": 194}, {"note": 67, "velocity": 84, "duration": 806}, {"note": 0, "velocity": 0, "duration": 154}, {"note": 69, "velocity": 85, "duration": 183}, {"note": 72, "velocity": 85, "duration": 180}, {"note": 72, "velocity": 84, "duration": 204}, {"note": 69, "velocity": 84, "duration": 235}, {"note": 65, "velocity": 83, "duration": 843}, {"note": 0, "velocity": 0, "duration": 117}, {"note": 64, "velocity": 89, "duration": 159}, {"note": 0, "velocity": 0, "duration": 81}, {"note": 64, "velocity": 88, "duration": 145}, {"note": 0, "velocity": 0, "duration": 95}, {"note": 64, "velocity": 90, "duration": 190}, {"note": 72, "velocity": 87, "duration": 263}, {"note": 69, "velocity": 87, "duration": 267}, {"note": 67, "velocity": 84, "duration": 250}, {"note": 65, "velocity": 84, "duration": 108}, {"note": 67, "velocity": 83, "duration": 143}, {"note": 65, "velocity": 82, "duration": 142}, {"note": 64, "velocity": 85, "duration": 136}, {"note": 62, "velocity": 86, "duration": 1807}, {"note": 0, "velocity": 0, "duration": 1553}, {"note": 70, "velocity": 89, "duration": 198}, {"note": 73, "velocity": 89, "duration": 233}, {"note": 75, "velocity": 89, "duration": 302}, {"note": 75, "velocity": 94, "duration": 295}, {"note": 0, "velocity": 0, "duration": 65}, {"note": 78, "velocity": 83, "duration": 257}, {"note": 77, "velocity": 88, "duration": 253}, {"note": 75, "velocity": 94, "duration": 183}, {"note": 75, "velocity": 92, "duration": 231}, {"note": 73, "velocity": 84, "duration": 260}, {"note": 75, "velocity": 92, "duration": 1312}, {"note": 0, "velocity": 0, "duration": 128}, {"note": 70, "velocity": 89, "duration": 198}, {"note": 73, "velocity": 89, "duration": 233}, {"note": 75, "velocity": 89, "duration": 302}, {"note": 75, "velocity": 94, "duration": 295}, {"note": 0, "velocity": 0, "duration": 65}, {"note": 78, "velocity": 83, "duration": 257}, {"note": 77, "velocity": 88, "duration": 253}, {"note": 75, "velocity": 94, "duration": 183}, {"note": 75, "velocity": 92, "duration": 231}, {"note": 73, "velocity": 84, "duration": 260}, {"note": 70, "velocity": 92, "duration": 1312}, {"note": 0, "velocity": 0, "duration": 128}, {"note": 70, "velocity": 94, "duration": 201}, {"note": 73, "velocity": 87, "duration": 176}, {"note": 0, "velocity": 0, "duration": 64}, {"note": 75, "velocity": 86, "duration": 325}, {"note": 75, "velocity": 89, "duration": 334}, {"note": 73, "velocity": 89, "duration": 246}, {"note": 70, "velocity": 87, "duration": 195}, {"note": 63, "velocity": 87, "duration": 173}, {"note": 0, "velocity": 0, "duration": 67}, {"note": 66, "velocity": 84, "duration": 244}, {"note": 70, "velocity": 85, "duration": 266}, {"note": 68, "velocity": 83, "duration": 1243}, {"note": 0, "velocity": 0, "duration": 197}, {"note": 63, "velocity": 84, "duration": 181}, {"note": 66, "velocity": 85, "duration": 251}, {"note": 68, "velocity": 81, "duration": 164}, {"note": 0, "velocity": 0, "duration": 76}, {"note": 68, "velocity": 79, "duration": 176}, {"note": 0, "velocity": 0, "duration": 64}, {"note": 68, "velocity": 84, "duration": 209}, {"note": 70, "velocity": 83, "duration": 260}, {"note": 73, "velocity": 85, "duration": 225}, {"note": 70, "velocity": 84, "duration": 259}, {"note": 73, "velocity": 83, "duration": 231}, {"note": 68, "velocity": 82, "duration": 276}, {"note": 70, "velocity": 84, "duration": 1332}, {"note": 0, "velocity": 0, "duration": 108}, {"note": 70, "velocity": 89, "duration": 198}, {"note": 73, "velocity": 89, "duration": 233}, {"note": 75, "velocity": 89, "duration": 302}, {"note": 75, "velocity": 94, "duration": 295}, {"note": 0, "velocity": 0, "duration": 65}, {"note": 78, "velocity": 83, "duration": 257}, {"note": 77, "velocity": 88, "duration": 253}, {"note": 75, "velocity": 94, "duration": 183}, {"note": 75, "velocity": 92, "duration": 231}, {"note": 73, "velocity": 84, "duration": 260}, {"note": 75, "velocity": 92, "duration": 1312}, {"note": 0, "velocity": 0, "duration": 128}, {"note": 70, "velocity": 89, "duration": 198}, {"note": 73, "velocity": 89, "duration": 233}, {"note": 75, "velocity": 89, "duration": 302}, {"note": 75, "velocity": 94, "duration": 295}, {"note": 0, "velocity": 0, "duration": 65}, {"note": 78, "velocity": 83, "duration": 257}, {"note": 77, "velocity": 88, "duration": 253}, {"note": 75, "velocity": 94, "duration": 183}, {"note": 75, "velocity": 92, "duration": 231}, {"note": 73, "velocity": 84, "duration": 260}, {"note": 70, "velocity": 92, "duration": 1312}, {"note": 0, "velocity": 0, "duration": 608}, {"note": 70, "velocity": 87, "duration": 226}, {"note": 75, "velocity": 85, "duration": 188}, {"note": 75, "velocity": 88, "duration": 207}, {"note": 70, "velocity": 84, "duration": 194}, {"note": 68, "velocity": 84, "duration": 806}, {"note": 0, "velocity": 0, "duration": 154}, {"note": 70, "velocity": 85, "duration": 183}, {"note": 73, "velocity": 85, "duration": 180}, {"note": 73, "velocity": 84, "duration": 204}, {"note": 70, "velocity": 84, "duration": 235}, {"note": 66, "velocity": 83, "duration": 843}, {"note": 0, "velocity": 0, "duration": 117}, {"note": 65, "velocity": 89, "duration": 159}, {"note": 0, "velocity": 0, "duration": 81}, {"note": 65, "velocity": 88, "duration": 145}, {"note": 0, "velocity": 0, "duration": 95}, {"note": 65, "velocity": 90, "duration": 190}, {"note": 73, "velocity": 87, "duration": 263}, {"note": 70, "velocity": 87, "duration": 267}, {"note": 68, "velocity": 84, "duration": 250}, {"note": 66, "velocity": 84, "duration": 108}, {"note": 68, "velocity": 83, "duration": 143}, {"note": 66, "velocity": 82, "duration": 142}, {"note": 65, "velocity": 85, "duration": 136}, {"note": 63, "velocity": 86, "duration": 1807}, {"note": 0, "velocity": 0, "duration": 123}, {"note": 65, "velocity": 84, "duration": 194}, {"note": 65, "velocity": 84, "duration": 205}, {"note": 0, "velocity": 0, "duration": 80}, {"note": 65, "velocity": 87, "duration": 307}, {"note": 73, "velocity": 86, "duration": 402}, {"note": 70, "velocity": 92, "duration": 546}, {"note": 68, "velocity": 85, "duration": 419}, {"note": 65, "velocity": 73, "duration": 221}, {"note": 63, "velocity": 87, "duration": 229}, {"note": 61, "velocity": 79, "duration": 620}, {"note": 63, "velocity": 83, "duration": 2963}]]