[[{"note": 70, "velocity": 83, "duration": 366}, {"note": 0, "velocity": 0, "duration": 114}, {"note": 75, "velocity": 86, "duration": 249}, {"note": 77, "velocity": 82, "duration": 375}, {"note": 0, "velocity": 0, "duration": 105}, {"note": 79, "velocity": 81, "duration": 643}, {"note": 0, "velocity": 0, "duration": 77}, {"note": 77, "velocity": 84, "duration": 193}, {"note": 75, "velocity": 86, "duration": 177}, {"note": 0, "velocity": 0, "duration": 63}, {"note": 77, "velocity": 84, "duration": 212}, {"note": 75, "velocity": 86, "duration": 211}, {"note": 77, "velocity": 84, "duration": 198}, {"note": 79, "velocity": 88, "duration": 631}, {"note": 0, "velocity": 0, "duration": 89}, {"note": 77, "velocity": 86, "duration": 179}, {"note": 0, "velocity": 0, "duration": 61}, {"note": 75, "velocity": 78, "duration": 145}, {"note": 0, "velocity": 0, "duration": 95}, {"note": 77, "velocity": 84, "duration": 197}, {"note": 75, "velocity": 85, "duration": 142}, {"note": 0, "velocity": 0, "duration": 98}, {"note": 77, "velocity": 88, "duration": 480}, {"note": 79, "velocity": 79, "duration": 240}, {"note": 72, "velocity": 83, "duration": 1680}, {"note": 0, "velocity": 0, "duration": 480}, {"note": 72, "velocity": 84, "duration": 391}, {"note": 0, "velocity": 0, "duration": 89}, {"note": 77, "velocity": 86, "duration": 205}, {"note": 79, "velocity": 83, "duration": 368}, {"note": 0, "velocity": 0, "duration": 112}, {"note": 80, "velocity": 81, "duration": 674}, {"note": 79, "velocity": 83, "duration": 216}, {"note": 77, "velocity": 83, "duration": 206}, {"note": 79, "velocity": 83, "duration": 262}, {"note": 77, "velocity": 84, "duration": 253}, {"note": 79, "velocity": 83, "duration": 260}, {"note": 80, "velocity": 83, "duration": 637}, {"note": 0, "velocity": 0, "duration": 83}, {"note": 79, "velocity": 82, "duration": 239}, {"note": 77, "velocity": 83, "duration": 237}, {"note": 79, "velocity": 82, "duration": 272}, {"note": 77, "velocity": 84, "duration": 299}, {"note": 79, "velocity": 84, "duration": 498}, {"note": 80, "velocity": 79, "duration": 214}, {"note": 77, "velocity": 82, "duration": 2073}, {"note": 0, "velocity": 0, "duration": 87}, {"note": 75, "velocity": 89, "duration": 437}, {"note": 84, "velocity": 84, "duration": 230}, {"note": 82, "velocity": 82, "duration": 2062}, {"note": 0, "velocity": 0, "duration": 81}, {"note": 79, "velocity": 84, "duration": 383}, {"note": 77, "velocity": 88, "duration": 402}, {"note": 75, "velocity": 85, "duration": 266}, {"note": 77, "velocity": 89, "duration": 437}, {"note": 79, "velocity": 81, "duration": 206}, {"note": 79, "velocity": 84, "duration": 1866}, {"note": 0, "velocity": 0, "duration": 294}, {"note": 79, "velocity": 88, "duration": 504}, {"note": 77, "velocity": 86, "duration": 241}, {"note": 75, "velocity": 83, "duration": 318}, {"note": 77, "velocity": 89, "duration": 394}, {"note": 0, "velocity": 0, "duration": 91}, {"note": 79, "velocity": 83, "duration": 240}, {"note": 72, "velocity": 84, "duration": 1613}, {"note": 0, "velocity": 0, "duration": 67}, {"note": 72, "velocity": 84, "duration": 159}, {"note": 0, "velocity": 0, "duration": 81}, {"note": 72, "velocity": 82, "duration": 244}, {"note": 74, "velocity": 82, "duration": 731}, {"note": 75, "velocity": 84, "duration": 492}, {"note": 77, "velocity": 81, "duration": 2400}, {"note": 0, "velocity": 0, "duration": 240}, {"note": 75, "velocity": 84, "duration": 457}, {"note": 77, "velocity": 85, "duration": 501}, {"note": 79, "velocity": 80, "duration": 729}, {"note": 72, "velocity": 83, "duration": 1725}, {"note": 79, "velocity": 83, "duration": 504}, {"note": 77, "velocity": 86, "duration": 472}, {"note": 75, "velocity": 86, "duration": 501}, {"note": 77, "velocity": 82, "duration": 712}, {"note": 82, "velocity": 82, "duration": 136}, {"note": 0, "velocity": 0, "duration": 104}, {"note": 82, "velocity": 83, "duration": 1389}, {"note": 0, "velocity": 0, "duration": 531}, {"note": 75, "velocity": 87, "duration": 472}, {"note": 77, "velocity": 86, "duration": 486}, {"note": 79, "velocity": 84, "duration": 753}, {"note": 72, "velocity": 83, "duration": 845}, {"note": 0, "velocity": 0, "duration": 355}, {"note": 79, "velocity": 84, "duration": 522}, {"note": 77, "velocity": 85, "duration": 225}, {"note": 75, "velocity": 88, "duration": 684}, {"note": 84, "velocity": 83, "duration": 542}, {"note": 82, "velocity": 82, "duration": 2688}, {"note": 0, "velocity": 0, "duration": 192}, {"note": 75, "velocity": 84, "duration": 457}, {"note": 77, "velocity": 85, "duration": 501}, {"note": 79, "velocity": 80, "duration": 729}, {"note": 72, "velocity": 83, "duration": 1725}, {"note": 79, "velocity": 83, "duration": 504}, {"note": 77, "velocity": 86, "duration": 472}, {"note": 75, "velocity": 86, "duration": 501}, {"note": 74, "velocity": 82, "duration": 480}, {"note": 75, "velocity": 89, "duration": 273}, {"note": 77, "velocity": 86, "duration": 485}, {"note": 79, "velocity": 82, "duration": 537}, {"note": 77, "velocity": 86, "duration": 459}, {"note": 75, "velocity": 88, "duration": 682}, {"note": 0, "velocity": 0, "duration": 518}, {"note": 75, "velocity": 87, "duration": 240}, {"note": 77, "velocity": 86, "duration": 246}, {"note": 79, "velocity": 84, "duration": 480}, {"note": 80, "velocity": 78, "duration": 219}, {"note": 79, "velocity": 83, "duration": 480}, {"note": 77, "velocity": 83, "duration": 480}, {"note": 75, "velocity": 83, "duration": 1204}, {"note": 74, "velocity": 83, "duration": 240}, {"note": 75, "velocity": 85, "duration": 720}, {"note": 75, "velocity": 86, "duration": 2655}, {"note": 0, "velocity": 0, "duration": 5025}, {"note": 70, "velocity": 83, "duration": 366}, {"note": 0, "velocity": 0, "duration": 114}, {"note": 75, "velocity": 86, "duration": 249}, {"note": 77, "velocity": 82, "duration": 375}, {"note": 0, "velocity": 0, "duration": 105}, {"note": 79, "velocity": 81, "duration": 643}, {"note": 0, "velocity": 0, "duration": 77}, {"note": 77, "velocity": 84, "duration": 193}, {"note": 75, "velocity": 86, "duration": 177}, {"note": 0, "velocity": 0, "duration": 63}, {"note": 77, "velocity": 84, "duration": 212}, {"note": 75, "velocity": 86, "duration": 211}, {"note": 77, "velocity": 84, "duration": 198}, {"note": 79, "velocity": 88, "duration": 631}, {"note": 0, "velocity": 0, "duration": 89}, {"note": 77, "velocity": 86, "duration": 179}, {"note": 0, "velocity": 0, "duration": 61}, {"note": 75, "velocity": 78, "duration": 145}, {"note": 0, "velocity": 0, "duration": 95}, {"note": 77, "velocity": 84, "duration": 197}, {"note": 75, "velocity": 85, "duration": 142}, {"note": 0, "velocity": 0, "duration": 98}, {"note": 77, "velocity": 88, "duration": 480}, {"note": 79, "velocity": 79, "duration": 240}, {"note": 72, "velocity": 83, "duration": 1680}, {"note": 0, "velocity": 0, "duration": 480}, {"note": 72, "velocity": 84, "duration": 391}, {"note": 0, "velocity": 0, "duration": 89}, {"note": 77, "velocity": 86, "duration": 205}, {"note": 79, "velocity": 83, "duration": 368}, {"note": 0, "velocity": 0, "duration": 112}, {"note": 80, "velocity": 81, "duration": 674}, {"note": 79, "velocity": 83, "duration": 216}, {"note": 77, "velocity": 83, "duration": 206}, {"note": 79, "velocity": 83, "duration": 262}, {"note": 77, "velocity": 84, "duration": 253}, {"note": 79, "velocity": 83, "duration": 260}, {"note": 80, "velocity": 83, "duration": 637}, {"note": 0, "velocity": 0, "duration": 83}, {"note": 79, "velocity": 82, "duration": 239}, {"note": 77, "velocity": 83, "duration": 237}, {"note": 79, "velocity": 82, "duration": 272}, {"note": 77, "velocity": 84, "duration": 299}, {"note": 79, "velocity": 84, "duration": 498}, {"note": 80, "velocity": 79, "duration": 214}, {"note": 77, "velocity": 82, "duration": 2073}, {"note": 0, "velocity": 0, "duration": 87}, {"note": 75, "velocity": 89, "duration": 437}, {"note": 84, "velocity": 84, "duration": 230}, {"note": 82, "velocity": 82, "duration": 2062}, {"note": 0, "velocity": 0, "duration": 81}, {"note": 79, "velocity": 84, "duration": 383}, {"note": 77, "velocity": 88, "duration": 402}, {"note": 75, "velocity": 85, "duration": 266}, {"note": 77, "velocity": 89, "duration": 437}, {"note": 79, "velocity": 81, "duration": 206}, {"note": 79, "velocity": 84, "duration": 1866}, {"note": 0, "velocity": 0, "duration": 294}, {"note": 79, "velocity": 88, "duration": 504}, {"note": 77, "velocity": 86, "duration": 241}, {"note": 75, "velocity": 83, "duration": 318}, {"note": 77, "velocity": 89, "duration": 394}, {"note": 0, "velocity": 0, "duration": 91}, {"note": 79, "velocity": 83, "duration": 240}, {"note": 72, "velocity": 84, "duration": 1613}, {"note": 0, "velocity": 0, "duration": 67}, {"note": 72, "velocity": 84, "duration": 159}, {"note": 0, "velocity": 0, "duration": 81}, {"note": 72, "velocity": 82, "duration": 244}, {"note": 74, "velocity": 82, "duration": 731}, {"note": 75, "velocity": 84, "duration": 492}, {"note": 77, "velocity": 81, "duration": 2400}, {"note": 0, "velocity": 0, "duration": 240}, {"note": 75, "velocity": 84, "duration": 457}, {"note": 77, "velocity": 85, "duration": 501}, {"note": 79, "velocity": 80, "duration": 729}, {"note": 72, "velocity": 83, "duration": 1725}, {"note": 79, "velocity": 83, "duration": 504}, {"note": 77, "velocity": 86, "duration": 472}, {"note": 75, "velocity": 86, "duration": 501}, {"note": 77, "velocity": 82, "duration": 712}, {"note": 82, "velocity": 82, "duration": 136}, {"note": 0, "velocity": 0, "duration": 104}, {"note": 82, "velocity": 83, "duration": 1389}, {"note": 0, "velocity": 0, "duration": 531}, {"note": 75, "velocity": 87, "duration": 472}, {"note": 77, "velocity": 86, "duration": 486}, {"note": 79, "velocity": 84, "duration": 753}, {"note": 72, "velocity": 83, "duration": 845}, {"note": 0, "velocity": 0, "duration": 355}, {"note": 79, "velocity": 84, "duration": 522}, {"note": 77, "velocity": 85, "duration": 225}, {"note": 75, "velocity": 88, "duration": 684}, {"note": 84, "velocity": 83, "duration": 542}, {"note": 82, "velocity": 82, "duration": 2688}, {"note": 0, "velocity": 0, "duration": 192}, {"note": 75, "velocity": 84, "duration": 457}, {"note": 77, "velocity": 85, "duration": 501}, {"note": 79, "velocity": 80, "duration": 729}, {"note": 72, "velocity": 83, "duration": 1725}, {"note": 79, "velocity": 83, "duration": 504}, {"note": 77, "velocity": 86, "duration": 472}, {"note": 75, "velocity": 86, "duration": 501}, {"note": 74, "velocity": 82, "duration": 480}, {"note": 75, "velocity": 89, "duration": 273}, {"note": 77, "velocity": 86, "duration": 485}, {"note": 79, "velocity": 82, "duration": 537}, {"note": 77, "velocity": 86, "duration": 459}, {"note": 75, "velocity": 88, "duration": 682}, {"note": 0, "velocity": 0, "duration": 2438}, {"note": 75, "velocity": 87, "duration": 240}, {"note": 77, "velocity": 86, "duration": 246}, {"note": 79, "velocity": 84, "duration": 480}, {"note": 80, "velocity": 78, "duration": 219}, {"note": 79, "velocity": 83, "duration": 480}, {"note": 77, "velocity": 83, "duration": 480}, {"note": 75, "velocity": 83, "duration": 1204}, {"note": 0, "velocity": 0, "duration": 476}, {"note": 75, "velocity": 87, "duration": 240}, {"note": 77, "velocity": 86, "duration": 246}, {"note": 79, "velocity": 84, "duration": 480}, {"note": 80, "velocity": 78, "duration": 219}, {"note": 79, "velocity": 83, "duration": 480}, {"note": 80, "velocity": 83, "duration": 480}, {"note": 82, "velocity": 83, "duration": 1204}, {"note": 0, "velocity": 0, "duration": 909}, {"note": 79, "velocity": 80, "duration": 539}, {"note": 80, "velocity": 80, "duration": 285}, {"note": 79, "velocity": 85, "duration": 559}, {"note": 77, "velocity": 87, "duration": 760}, {"note": 75, "velocity": 86, "duration": 1929}, {"note": 0, "velocity": 0, "duration": 913}, {"note": 74, "velocity": 83, "duration": 632}, {"note": 75, "velocity": 84, "duration": 703}, {"note": 0, "velocity": 0, "duration": 89}, {"note": 75, "velocity": 84, "duration": 2046}]]