[[{"note": 72, "velocity": 83, "duration": 79}, {"note": 72, "velocity": 82, "duration": 72}, {"note": 72, "velocity": 86, "duration": 188}, {"note": 74, "velocity": 87, "duration": 229}, {"note": 76, "velocity": 84, "duration": 234}, {"note": 67, "velocity": 85, "duration": 663}, {"note": 0, "velocity": 0, "duration": 285}, {"note": 72, "velocity": 81, "duration": 126}, {"note": 69, "velocity": 82, "duration": 169}, {"note": 72, "velocity": 84, "duration": 245}, {"note": 74, "velocity": 86, "duration": 274}, {"note": 77, "velocity": 83, "duration": 142}, {"note": 76, "velocity": 82, "duration": 801}, {"note": 0, "velocity": 0, "duration": 279}, {"note": 72, "velocity": 82, "duration": 78}, {"note": 72, "velocity": 82, "duration": 72}, {"note": 72, "velocity": 86, "duration": 204}, {"note": 74, "velocity": 87, "duration": 204}, {"note": 76, "velocity": 83, "duration": 210}, {"note": 67, "velocity": 81, "duration": 76}, {"note": 67, "velocity": 78, "duration": 76}, {"note": 69, "velocity": 81, "duration": 179}, {"note": 0, "velocity": 0, "duration": 61}, {"note": 72, "velocity": 85, "duration": 120}, {"note": 72, "velocity": 85, "duration": 120}, {"note": 72, "velocity": 85, "duration": 240}, {"note": 74, "velocity": 85, "duration": 720}, {"note": 77, "velocity": 81, "duration": 245}, {"note": 76, "velocity": 83, "duration": 685}, {"note": 0, "velocity": 0, "duration": 259}, {"note": 79, "velocity": 83, "duration": 78}, {"note": 79, "velocity": 83, "duration": 69}, {"note": 79, "velocity": 84, "duration": 159}, {"note": 79, "velocity": 83, "duration": 92}, {"note": 0, "velocity": 0, "duration": 62}, {"note": 79, "velocity": 84, "duration": 240}, {"note": 71, "velocity": 69, "duration": 67}, {"note": 71, "velocity": 85, "duration": 79}, {"note": 71, "velocity": 83, "duration": 235}, {"note": 0, "velocity": 0, "duration": 595}, {"note": 72, "velocity": 83, "duration": 76}, {"note": 72, "velocity": 84, "duration": 66}, {"note": 0, "velocity": 0, "duration": 61}, {"note": 72, "velocity": 88, "duration": 208}, {"note": 74, "velocity": 90, "duration": 245}, {"note": 77, "velocity": 83, "duration": 239}, {"note": 76, "velocity": 86, "duration": 215}, {"note": 76, "velocity": 85, "duration": 447}, {"note": 0, "velocity": 0, "duration": 256}, {"note": 72, "velocity": 80, "duration": 69}, {"note": 72, "velocity": 83, "duration": 68}, {"note": 72, "velocity": 90, "duration": 195}, {"note": 79, "velocity": 84, "duration": 162}, {"note": 0, "velocity": 0, "duration": 88}, {"note": 79, "velocity": 82, "duration": 197}, {"note": 0, "velocity": 0, "duration": 63}, {"note": 67, "velocity": 81, "duration": 175}, {"note": 76, "velocity": 82, "duration": 91}, {"note": 79, "velocity": 81, "duration": 66}, {"note": 79, "velocity": 82, "duration": 151}, {"note": 67, "velocity": 83, "duration": 151}, {"note": 72, "velocity": 82, "duration": 102}, {"note": 72, "velocity": 81, "duration": 84}, {"note": 72, "velocity": 80, "duration": 888}, {"note": 0, "velocity": 0, "duration": 826}, {"note": 72, "velocity": 83, "duration": 79}, {"note": 72, "velocity": 82, "duration": 72}, {"note": 72, "velocity": 86, "duration": 188}, {"note": 74, "velocity": 87, "duration": 229}, {"note": 76, "velocity": 84, "duration": 234}, {"note": 67, "velocity": 85, "duration": 663}, {"note": 0, "velocity": 0, "duration": 285}, {"note": 72, "velocity": 81, "duration": 126}, {"note": 69, "velocity": 82, "duration": 169}, {"note": 72, "velocity": 84, "duration": 245}, {"note": 74, "velocity": 86, "duration": 274}, {"note": 77, "velocity": 83, "duration": 142}, {"note": 76, "velocity": 82, "duration": 801}, {"note": 0, "velocity": 0, "duration": 279}, {"note": 72, "velocity": 82, "duration": 78}, {"note": 72, "velocity": 82, "duration": 72}, {"note": 72, "velocity": 86, "duration": 204}, {"note": 74, "velocity": 87, "duration": 204}, {"note": 76, "velocity": 83, "duration": 210}, {"note": 67, "velocity": 81, "duration": 76}, {"note": 67, "velocity": 78, "duration": 76}, {"note": 69, "velocity": 81, "duration": 179}, {"note": 0, "velocity": 0, "duration": 61}, {"note": 72, "velocity": 85, "duration": 120}, {"note": 72, "velocity": 85, "duration": 120}, {"note": 72, "velocity": 85, "duration": 240}, {"note": 74, "velocity": 85, "duration": 720}, {"note": 77, "velocity": 81, "duration": 245}, {"note": 76, "velocity": 83, "duration": 685}, {"note": 0, "velocity": 0, "duration": 259}, {"note": 79, "velocity": 83, "duration": 78}, {"note": 79, "velocity": 83, "duration": 69}, {"note": 79, "velocity": 84, "duration": 159}, {"note": 79, "velocity": 83, "duration": 92}, {"note": 0, "velocity": 0, "duration": 62}, {"note": 79, "velocity": 84, "duration": 240}, {"note": 71, "velocity": 69, "duration": 67}, {"note": 71, "velocity": 85, "duration": 79}, {"note": 71, "velocity": 83, "duration": 120}, {"note": 71, "velocity": 83, "duration": 360}, {"note": 0, "velocity": 0, "duration": 350}, {"note": 72, "velocity": 83, "duration": 76}, {"note": 72, "velocity": 84, "duration": 66}, {"note": 0, "velocity": 0, "duration": 61}, {"note": 72, "velocity": 88, "duration": 208}, {"note": 74, "velocity": 90, "duration": 245}, {"note": 77, "velocity": 83, "duration": 239}, {"note": 76, "velocity": 86, "duration": 215}, {"note": 79, "velocity": 85, "duration": 447}, {"note": 0, "velocity": 0, "duration": 256}, {"note": 72, "velocity": 80, "duration": 69}, {"note": 72, "velocity": 83, "duration": 68}, {"note": 72, "velocity": 90, "duration": 195}, {"note": 74, "velocity": 88, "duration": 119}, {"note": 77, "velocity": 83, "duration": 335}, {"note": 76, "velocity": 83, "duration": 68}, {"note": 76, "velocity": 82, "duration": 88}, {"note": 76, "velocity": 83, "duration": 247}, {"note": 74, "velocity": 90, "duration": 340}, {"note": 0, "velocity": 0, "duration": 125}, {"note": 76, "velocity": 85, "duration": 188}, {"note": 77, "velocity": 82, "duration": 398}, {"note": 0, "velocity": 0, "duration": 69}, {"note": 79, "velocity": 80, "duration": 807}, {"note": 0, "velocity": 0, "duration": 198}, {"note": 84, "velocity": 88, "duration": 132}, {"note": 81, "velocity": 83, "duration": 189}, {"note": 84, "velocity": 82, "duration": 81}, {"note": 84, "velocity": 85, "duration": 200}, {"note": 84, "velocity": 83, "duration": 74}, {"note": 81, "velocity": 83, "duration": 72}, {"note": 84, "velocity": 84, "duration": 187}, {"note": 84, "velocity": 87, "duration": 201}, {"note": 88, "velocity": 86, "duration": 328}, {"note": 83, "velocity": 82, "duration": 73}, {"note": 83, "velocity": 81, "duration": 69}, {"note": 83, "velocity": 82, "duration": 66}, {"note": 83, "velocity": 82, "duration": 63}, {"note": 83, "velocity": 85, "duration": 279}, {"note": 81, "velocity": 80, "duration": 68}, {"note": 83, "velocity": 90, "duration": 72}, {"note": 81, "velocity": 82, "duration": 74}, {"note": 83, "velocity": 88, "duration": 88}, {"note": 84, "velocity": 87, "duration": 247}, {"note": 81, "velocity": 83, "duration": 227}, {"note": 84, "velocity": 98, "duration": 60}, {"note": 84, "velocity": 85, "duration": 71}, {"note": 81, "velocity": 82, "duration": 76}, {"note": 84, "velocity": 95, "duration": 165}, {"note": 0, "velocity": 0, "duration": 63}, {"note": 84, "velocity": 86, "duration": 89}, {"note": 81, "velocity": 82, "duration": 66}, {"note": 84, "velocity": 97, "duration": 181}, {"note": 0, "velocity": 0, "duration": 66}, {"note": 84, "velocity": 85, "duration": 85}, {"note": 84, "velocity": 81, "duration": 63}, {"note": 88, "velocity": 95, "duration": 226}, {"note": 88, "velocity": 85, "duration": 146}, {"note": 79, "velocity": 86, "duration": 486}, {"note": 0, "velocity": 0, "duration": 93}, {"note": 83, "velocity": 86, "duration": 187}, {"note": 0, "velocity": 0, "duration": 65}, {"note": 83, "velocity": 84, "duration": 179}, {"note": 0, "velocity": 0, "duration": 68}, {"note": 83, "velocity": 85, "duration": 180}, {"note": 0, "velocity": 0, "duration": 63}, {"note": 83, "velocity": 87, "duration": 180}, {"note": 84, "velocity": 88, "duration": 563}, {"note": 0, "velocity": 0, "duration": 272}, {"note": 84, "velocity": 82, "duration": 120}, {"note": 84, "velocity": 88, "duration": 132}, {"note": 81, "velocity": 83, "duration": 189}, {"note": 84, "velocity": 82, "duration": 81}, {"note": 84, "velocity": 85, "duration": 120}, {"note": 0, "velocity": 0, "duration": 125}, {"note": 84, "velocity": 83, "duration": 74}, {"note": 81, "velocity": 83, "duration": 72}, {"note": 84, "velocity": 84, "duration": 120}, {"note": 84, "velocity": 84, "duration": 120}, {"note": 84, "velocity": 87, "duration": 201}, {"note": 88, "velocity": 86, "duration": 328}, {"note": 88, "velocity": 82, "duration": 73}, {"note": 86, "velocity": 81, "duration": 69}, {"note": 86, "velocity": 82, "duration": 66}, {"note": 86, "velocity": 82, "duration": 63}, {"note": 86, "velocity": 85, "duration": 240}, {"note": 86, "velocity": 87, "duration": 228}, {"note": 84, "velocity": 81, "duration": 100}, {"note": 88, "velocity": 92, "duration": 176}, {"note": 88, "velocity": 82, "duration": 173}, {"note": 0, "velocity": 0, "duration": 79}, {"note": 88, "velocity": 85, "duration": 147}, {"note": 81, "velocity": 82, "duration": 169}, {"note": 0, "velocity": 0, "duration": 64}, {"note": 81, "velocity": 86, "duration": 69}, {"note": 84, "velocity": 87, "duration": 91}, {"note": 81, "velocity": 81, "duration": 81}, {"note": 84, "velocity": 87, "duration": 93}, {"note": 84, "velocity": 82, "duration": 79}, {"note": 84, "velocity": 95, "duration": 224}, {"note": 86, "velocity": 85, "duration": 207}, {"note": 84, "velocity": 85, "duration": 104}, {"note": 84, "velocity": 85, "duration": 475}, {"note": 0, "velocity": 0, "duration": 307}, {"note": 79, "velocity": 82, "duration": 90}, {"note": 86, "velocity": 82, "duration": 63}, {"note": 86, "velocity": 83, "duration": 57}, {"note": 86, "velocity": 83, "duration": 60}, {"note": 86, "velocity": 83, "duration": 60}, {"note": 0, "velocity": 0, "duration": 68}, {"note": 86, "velocity": 87, "duration": 196}, {"note": 88, "velocity": 87, "duration": 333}, {"note": 0, "velocity": 0, "duration": 137}, {"note": 88, "velocity": 82, "duration": 82}, {"note": 88, "velocity": 84, "duration": 213}, {"note": 79, "velocity": 80, "duration": 146}, {"note": 81, "velocity": 80, "duration": 225}, {"note": 84, "velocity": 84, "duration": 1314}, {"note": 0, "velocity": 0, "duration": 6470}, {"note": 84, "velocity": 80, "duration": 169}, {"note": 79, "velocity": 83, "duration": 149}, {"note": 81, "velocity": 82, "duration": 176}, {"note": 0, "velocity": 0, "duration": 64}, {"note": 81, "velocity": 81, "duration": 72}, {"note": 81, "velocity": 83, "duration": 104}, {"note": 79, "velocity": 81, "duration": 84}, {"note": 81, "velocity": 88, "duration": 170}, {"note": 0, "velocity": 0, "duration": 66}, {"note": 81, "velocity": 82, "duration": 69}, {"note": 81, "velocity": 81, "duration": 94}, {"note": 79, "velocity": 85, "duration": 203}, {"note": 81, "velocity": 82, "duration": 120}, {"note": 81, "velocity": 82, "duration": 120}, {"note": 81, "velocity": 82, "duration": 240}, {"note": 0, "velocity": 0, "duration": 133}, {"note": 79, "velocity": 82, "duration": 332}, {"note": 76, "velocity": 83, "duration": 173}, {"note": 0, "velocity": 0, "duration": 64}, {"note": 76, "velocity": 84, "duration": 491}, {"note": 0, "velocity": 0, "duration": 568}, {"note": 79, "velocity": 78, "duration": 107}, {"note": 72, "velocity": 82, "duration": 105}, {"note": 74, "velocity": 82, "duration": 203}, {"note": 74, "velocity": 81, "duration": 70}, {"note": 74, "velocity": 81, "duration": 65}, {"note": 74, "velocity": 84, "duration": 85}, {"note": 79, "velocity": 84, "duration": 162}, {"note": 0, "velocity": 0, "duration": 67}, {"note": 79, "velocity": 82, "duration": 68}, {"note": 79, "velocity": 81, "duration": 68}, {"note": 79, "velocity": 87, "duration": 198}, {"note": 0, "velocity": 0, "duration": 293}, {"note": 79, "velocity": 77, "duration": 66}, {"note": 79, "velocity": 75, "duration": 70}, {"note": 79, "velocity": 76, "duration": 65}, {"note": 79, "velocity": 81, "duration": 66}, {"note": 0, "velocity": 0, "duration": 65}, {"note": 79, "velocity": 82, "duration": 182}, {"note": 0, "velocity": 0, "duration": 63}, {"note": 81, "velocity": 82, "duration": 157}, {"note": 0, "velocity": 0, "duration": 71}, {"note": 83, "velocity": 82, "duration": 463}, {"note": 84, "velocity": 85, "duration": 425}, {"note": 0, "velocity": 0, "duration": 67}, {"note": 84, "velocity": 88, "duration": 132}, {"note": 81, "velocity": 83, "duration": 189}, {"note": 84, "velocity": 82, "duration": 81}, {"note": 84, "velocity": 85, "duration": 200}, {"note": 84, "velocity": 83, "duration": 74}, {"note": 81, "velocity": 83, "duration": 72}, {"note": 84, "velocity": 84, "duration": 187}, {"note": 84, "velocity": 87, "duration": 201}, {"note": 88, "velocity": 86, "duration": 328}, {"note": 83, "velocity": 82, "duration": 73}, {"note": 83, "velocity": 81, "duration": 69}, {"note": 83, "velocity": 82, "duration": 66}, {"note": 83, "velocity": 82, "duration": 63}, {"note": 83, "velocity": 85, "duration": 279}, {"note": 81, "velocity": 80, "duration": 68}, {"note": 83, "velocity": 90, "duration": 72}, {"note": 81, "velocity": 82, "duration": 74}, {"note": 83, "velocity": 88, "duration": 88}, {"note": 84, "velocity": 87, "duration": 247}, {"note": 81, "velocity": 83, "duration": 227}, {"note": 84, "velocity": 98, "duration": 60}, {"note": 84, "velocity": 85, "duration": 71}, {"note": 81, "velocity": 82, "duration": 76}, {"note": 84, "velocity": 95, "duration": 165}, {"note": 0, "velocity": 0, "duration": 63}, {"note": 84, "velocity": 86, "duration": 89}, {"note": 81, "velocity": 82, "duration": 66}, {"note": 84, "velocity": 97, "duration": 181}, {"note": 0, "velocity": 0, "duration": 66}, {"note": 84, "velocity": 85, "duration": 85}, {"note": 84, "velocity": 81, "duration": 63}, {"note": 88, "velocity": 95, "duration": 226}, {"note": 88, "velocity": 85, "duration": 146}, {"note": 79, "velocity": 86, "duration": 486}, {"note": 0, "velocity": 0, "duration": 93}, {"note": 83, "velocity": 86, "duration": 187}, {"note": 0, "velocity": 0, "duration": 65}, {"note": 83, "velocity": 84, "duration": 179}, {"note": 0, "velocity": 0, "duration": 68}, {"note": 83, "velocity": 85, "duration": 180}, {"note": 0, "velocity": 0, "duration": 63}, {"note": 83, "velocity": 87, "duration": 180}, {"note": 84, "velocity": 88, "duration": 563}, {"note": 0, "velocity": 0, "duration": 272}, {"note": 84, "velocity": 82, "duration": 120}, {"note": 84, "velocity": 88, "duration": 132}, {"note": 81, "velocity": 83, "duration": 189}, {"note": 84, "velocity": 82, "duration": 81}, {"note": 84, "velocity": 85, "duration": 120}, {"note": 0, "velocity": 0, "duration": 125}, {"note": 84, "velocity": 83, "duration": 74}, {"note": 81, "velocity": 83, "duration": 72}, {"note": 84, "velocity": 84, "duration": 120}, {"note": 84, "velocity": 84, "duration": 120}, {"note": 84, "velocity": 87, "duration": 201}, {"note": 88, "velocity": 86, "duration": 328}, {"note": 88, "velocity": 82, "duration": 73}, {"note": 86, "velocity": 81, "duration": 69}, {"note": 86, "velocity": 82, "duration": 66}, {"note": 86, "velocity": 82, "duration": 63}, {"note": 86, "velocity": 85, "duration": 240}, {"note": 86, "velocity": 87, "duration": 228}, {"note": 84, "velocity": 81, "duration": 100}, {"note": 88, "velocity": 92, "duration": 176}, {"note": 88, "velocity": 82, "duration": 173}, {"note": 0, "velocity": 0, "duration": 79}, {"note": 88, "velocity": 85, "duration": 147}, {"note": 81, "velocity": 82, "duration": 169}, {"note": 0, "velocity": 0, "duration": 64}, {"note": 81, "velocity": 86, "duration": 69}, {"note": 84, "velocity": 87, "duration": 91}, {"note": 81, "velocity": 81, "duration": 81}, {"note": 84, "velocity": 87, "duration": 93}, {"note": 84, "velocity": 82, "duration": 79}, {"note": 88, "velocity": 95, "duration": 120}, {"note": 88, "velocity": 85, "duration": 207}, {"note": 0, "velocity": 0, "duration": 105}, {"note": 88, "velocity": 85, "duration": 240}, {"note": 88, "velocity": 85, "duration": 360}, {"note": 0, "velocity": 0, "duration": 240}, {"note": 88, "velocity": 82, "duration": 91}, {"note": 87, "velocity": 82, "duration": 63}, {"note": 87, "velocity": 83, "duration": 57}, {"note": 87, "velocity": 83, "duration": 60}, {"note": 87, "velocity": 83, "duration": 60}, {"note": 0, "velocity": 0, "duration": 68}, {"note": 87, "velocity": 87, "duration": 196}, {"note": 91, "velocity": 87, "duration": 333}, {"note": 0, "velocity": 0, "duration": 137}, {"note": 88, "velocity": 82, "duration": 82}, {"note": 88, "velocity": 84, "duration": 213}, {"note": 79, "velocity": 80, "duration": 146}, {"note": 81, "velocity": 80, "duration": 225}, {"note": 84, "velocity": 84, "duration": 1314}, {"note": 0, "velocity": 0, "duration": 2753}, {"note": 72, "velocity": 74, "duration": 97}, {"note": 72, "velocity": 79, "duration": 85}, {"note": 72, "velocity": 82, "duration": 277}, {"note": 74, "velocity": 86, "duration": 298}, {"note": 76, "velocity": 77, "duration": 312}, {"note": 67, "velocity": 77, "duration": 842}, {"note": 0, "velocity": 0, "duration": 175}, {"note": 72, "velocity": 77, "duration": 123}, {"note": 69, "velocity": 74, "duration": 182}, {"note": 72, "velocity": 83, "duration": 282}, {"note": 74, "velocity": 83, "duration": 294}, {"note": 77, "velocity": 77, "duration": 201}, {"note": 76, "velocity": 79, "duration": 907}, {"note": 0, "velocity": 0, "duration": 276}, {"note": 72, "velocity": 80, "duration": 110}, {"note": 72, "velocity": 81, "duration": 84}, {"note": 0, "velocity": 0, "duration": 66}, {"note": 72, "velocity": 81, "duration": 250}, {"note": 79, "velocity": 78, "duration": 188}, {"note": 0, "velocity": 0, "duration": 75}, {"note": 79, "velocity": 77, "duration": 257}, {"note": 67, "velocity": 79, "duration": 449}, {"note": 0, "velocity": 0, "duration": 250}, {"note": 76, "velocity": 84, "duration": 156}, {"note": 79, "velocity": 77, "duration": 109}, {"note": 79, "velocity": 75, "duration": 220}, {"note": 67, "velocity": 73, "duration": 251}, {"note": 71, "velocity": 78, "duration": 187}, {"note": 72, "velocity": 77, "duration": 100}, {"note": 72, "velocity": 79, "duration": 902}]]