[[{"note": 74, "velocity": 83, "duration": 135}, {"note": 76, "velocity": 83, "duration": 144}, {"note": 78, "velocity": 83, "duration": 205}, {"note": 69, "velocity": 83, "duration": 218}, {"note": 78, "velocity": 72, "duration": 261}, {"note": 69, "velocity": 85, "duration": 237}, {"note": 76, "velocity": 83, "duration": 250}, {"note": 69, "velocity": 83, "duration": 310}, {"note": 0, "velocity": 0, "duration": 170}, {"note": 71, "velocity": 83, "duration": 125}, {"note": 73, "velocity": 71, "duration": 128}, {"note": 74, "velocity": 84, "duration": 189}, {"note": 66, "velocity": 81, "duration": 207}, {"note": 74, "velocity": 90, "duration": 243}, {"note": 66, "velocity": 78, "duration": 256}, {"note": 73, "velocity": 80, "duration": 255}, {"note": 66, "velocity": 75, "duration": 347}, {"note": 0, "velocity": 0, "duration": 133}, {"note": 73, "velocity": 76, "duration": 88}, {"note": 73, "velocity": 78, "duration": 110}, {"note": 71, "velocity": 84, "duration": 181}, {"note": 67, "velocity": 76, "duration": 73}, {"note": 67, "velocity": 75, "duration": 76}, {"note": 67, "velocity": 81, "duration": 80}, {"note": 69, "velocity": 83, "duration": 81}, {"note": 71, "velocity": 77, "duration": 189}, {"note": 69, "velocity": 79, "duration": 226}, {"note": 73, "velocity": 84, "duration": 120}, {"note": 74, "velocity": 85, "duration": 360}, {"note": 0, "velocity": 0, "duration": 120}, {"note": 71, "velocity": 82, "duration": 110}, {"note": 76, "velocity": 84, "duration": 200}, {"note": 71, "velocity": 76, "duration": 63}, {"note": 71, "velocity": 80, "duration": 70}, {"note": 71, "velocity": 83, "duration": 229}, {"note": 78, "velocity": 81, "duration": 173}, {"note": 0, "velocity": 0, "duration": 67}, {"note": 78, "velocity": 83, "duration": 221}, {"note": 76, "velocity": 84, "duration": 340}, {"note": 0, "velocity": 0, "duration": 140}, {"note": 74, "velocity": 84, "duration": 108}, {"note": 76, "velocity": 83, "duration": 82}, {"note": 78, "velocity": 79, "duration": 223}, {"note": 81, "velocity": 84, "duration": 209}, {"note": 76, "velocity": 79, "duration": 185}, {"note": 78, "velocity": 81, "duration": 163}, {"note": 0, "velocity": 0, "duration": 77}, {"note": 76, "velocity": 83, "duration": 187}, {"note": 74, "velocity": 85, "duration": 345}, {"note": 0, "velocity": 0, "duration": 135}, {"note": 71, "velocity": 82, "duration": 103}, {"note": 73, "velocity": 72, "duration": 69}, {"note": 74, "velocity": 84, "duration": 192}, {"note": 78, "velocity": 81, "duration": 194}, {"note": 73, "velocity": 74, "duration": 179}, {"note": 0, "velocity": 0, "duration": 61}, {"note": 78, "velocity": 84, "duration": 189}, {"note": 73, "velocity": 83, "duration": 213}, {"note": 71, "velocity": 84, "duration": 289}, {"note": 0, "velocity": 0, "duration": 191}, {"note": 71, "velocity": 76, "duration": 121}, {"note": 69, "velocity": 82, "duration": 98}, {"note": 67, "velocity": 81, "duration": 83}, {"note": 67, "velocity": 78, "duration": 83}, {"note": 69, "velocity": 83, "duration": 87}, {"note": 71, "velocity": 78, "duration": 314}, {"note": 67, "velocity": 82, "duration": 188}, {"note": 69, "velocity": 83, "duration": 68}, {"note": 69, "velocity": 83, "duration": 66}, {"note": 73, "velocity": 83, "duration": 86}, {"note": 74, "velocity": 85, "duration": 258}, {"note": 0, "velocity": 0, "duration": 102}, {"note": 71, "velocity": 84, "duration": 75}, {"note": 74, "velocity": 84, "duration": 79}, {"note": 79, "velocity": 80, "duration": 195}, {"note": 78, "velocity": 79, "duration": 168}, {"note": 0, "velocity": 0, "duration": 72}, {"note": 74, "velocity": 84, "duration": 181}, {"note": 71, "velocity": 85, "duration": 203}, {"note": 76, "velocity": 83, "duration": 169}, {"note": 0, "velocity": 0, "duration": 71}, {"note": 69, "velocity": 87, "duration": 186}, {"note": 81, "velocity": 84, "duration": 179}, {"note": 0, "velocity": 0, "duration": 61}, {"note": 79, "velocity": 82, "duration": 153}, {"note": 0, "velocity": 0, "duration": 87}, {"note": 78, "velocity": 83, "duration": 78}, {"note": 78, "velocity": 81, "duration": 72}, {"note": 69, "velocity": 85, "duration": 63}, {"note": 69, "velocity": 74, "duration": 93}, {"note": 78, "velocity": 86, "duration": 151}, {"note": 0, "velocity": 0, "duration": 209}, {"note": 74, "velocity": 83, "duration": 90}, {"note": 76, "velocity": 76, "duration": 68}, {"note": 76, "velocity": 83, "duration": 80}, {"note": 69, "velocity": 83, "duration": 87}, {"note": 69, "velocity": 76, "duration": 86}, {"note": 76, "velocity": 80, "duration": 293}, {"note": 0, "velocity": 0, "duration": 67}, {"note": 73, "velocity": 78, "duration": 103}, {"note": 74, "velocity": 85, "duration": 53}, {"note": 0, "velocity": 0, "duration": 67}, {"note": 74, "velocity": 85, "duration": 64}, {"note": 66, "velocity": 83, "duration": 73}, {"note": 66, "velocity": 84, "duration": 59}, {"note": 0, "velocity": 0, "duration": 61}, {"note": 74, "velocity": 86, "duration": 55}, {"note": 0, "velocity": 0, "duration": 65}, {"note": 74, "velocity": 84, "duration": 62}, {"note": 76, "velocity": 79, "duration": 78}, {"note": 74, "velocity": 85, "duration": 78}, {"note": 73, "velocity": 76, "duration": 66}, {"note": 73, "velocity": 71, "duration": 81}, {"note": 69, "velocity": 78, "duration": 70}, {"note": 69, "velocity": 78, "duration": 85}, {"note": 73, "velocity": 84, "duration": 311}, {"note": 0, "velocity": 0, "duration": 169}, {"note": 71, "velocity": 81, "duration": 81}, {"note": 71, "velocity": 81, "duration": 95}, {"note": 67, "velocity": 83, "duration": 80}, {"note": 67, "velocity": 74, "duration": 73}, {"note": 67, "velocity": 78, "duration": 83}, {"note": 69, "velocity": 79, "duration": 65}, {"note": 71, "velocity": 80, "duration": 69}, {"note": 71, "velocity": 81, "duration": 87}, {"note": 69, "velocity": 81, "duration": 68}, {"note": 69, "velocity": 78, "duration": 60}, {"note": 69, "velocity": 79, "duration": 59}, {"note": 0, "velocity": 0, "duration": 61}, {"note": 73, "velocity": 85, "duration": 83}, {"note": 74, "velocity": 85, "duration": 323}, {"note": 71, "velocity": 85, "duration": 83}, {"note": 78, "velocity": 84, "duration": 76}, {"note": 79, "velocity": 76, "duration": 78}, {"note": 78, "velocity": 87, "duration": 61}, {"note": 74, "velocity": 84, "duration": 74}, {"note": 71, "velocity": 84, "duration": 251}, {"note": 0, "velocity": 0, "duration": 109}, {"note": 71, "velocity": 83, "duration": 81}, {"note": 78, "velocity": 83, "duration": 87}, {"note": 79, "velocity": 73, "duration": 81}, {"note": 78, "velocity": 88, "duration": 73}, {"note": 74, "velocity": 85, "duration": 86}, {"note": 76, "velocity": 83, "duration": 275}, {"note": 0, "velocity": 0, "duration": 205}, {"note": 78, "velocity": 83, "duration": 63}, {"note": 78, "velocity": 84, "duration": 88}, {"note": 69, "velocity": 84, "duration": 63}, {"note": 69, "velocity": 78, "duration": 98}, {"note": 78, "velocity": 84, "duration": 56}, {"note": 0, "velocity": 0, "duration": 64}, {"note": 78, "velocity": 83, "duration": 60}, {"note": 79, "velocity": 83, "duration": 70}, {"note": 74, "velocity": 81, "duration": 53}, {"note": 0, "velocity": 0, "duration": 67}, {"note": 76, "velocity": 79, "duration": 58}, {"note": 0, "velocity": 0, "duration": 62}, {"note": 76, "velocity": 80, "duration": 53}, {"note": 0, "velocity": 0, "duration": 67}, {"note": 76, "velocity": 83, "duration": 56}, {"note": 0, "velocity": 0, "duration": 64}, {"note": 76, "velocity": 83, "duration": 71}, {"note": 81, "velocity": 83, "duration": 336}, {"note": 0, "velocity": 0, "duration": 144}, {"note": 83, "velocity": 82, "duration": 74}, {"note": 78, "velocity": 84, "duration": 62}, {"note": 78, "velocity": 82, "duration": 58}, {"note": 0, "velocity": 0, "duration": 62}, {"note": 78, "velocity": 84, "duration": 66}, {"note": 78, "velocity": 83, "duration": 58}, {"note": 0, "velocity": 0, "duration": 62}, {"note": 78, "velocity": 88, "duration": 58}, {"note": 0, "velocity": 0, "duration": 62}, {"note": 83, "velocity": 84, "duration": 62}, {"note": 83, "velocity": 85, "duration": 66}, {"note": 81, "velocity": 79, "duration": 53}, {"note": 0, "velocity": 0, "duration": 67}, {"note": 81, "velocity": 79, "duration": 59}, {"note": 0, "velocity": 0, "duration": 61}, {"note": 78, "velocity": 81, "duration": 66}, {"note": 76, "velocity": 83, "duration": 61}, {"note": 78, "velocity": 83, "duration": 294}, {"note": 0, "velocity": 0, "duration": 186}, {"note": 74, "velocity": 84, "duration": 75}, {"note": 74, "velocity": 84, "duration": 71}, {"note": 74, "velocity": 85, "duration": 71}, {"note": 74, "velocity": 87, "duration": 68}, {"note": 74, "velocity": 89, "duration": 67}, {"note": 76, "velocity": 84, "duration": 70}, {"note": 78, "velocity": 84, "duration": 83}, {"note": 79, "velocity": 79, "duration": 68}, {"note": 81, "velocity": 82, "duration": 190}, {"note": 78, "velocity": 79, "duration": 78}, {"note": 76, "velocity": 80, "duration": 78}, {"note": 74, "velocity": 85, "duration": 176}, {"note": 0, "velocity": 0, "duration": 64}, {"note": 71, "velocity": 84, "duration": 171}, {"note": 0, "velocity": 0, "duration": 69}, {"note": 76, "velocity": 81, "duration": 560}, {"note": 0, "velocity": 0, "duration": 160}, {"note": 71, "velocity": 85, "duration": 71}, {"note": 73, "velocity": 83, "duration": 76}, {"note": 74, "velocity": 84, "duration": 179}, {"note": 0, "velocity": 0, "duration": 61}, {"note": 73, "velocity": 84, "duration": 161}, {"note": 0, "velocity": 0, "duration": 79}, {"note": 78, "velocity": 87, "duration": 180}, {"note": 76, "velocity": 84, "duration": 146}, {"note": 0, "velocity": 0, "duration": 94}, {"note": 76, "velocity": 82, "duration": 181}, {"note": 74, "velocity": 85, "duration": 726}, {"note": 0, "velocity": 0, "duration": 4554}, {"note": 74, "velocity": 83, "duration": 135}, {"note": 76, "velocity": 83, "duration": 144}, {"note": 78, "velocity": 83, "duration": 205}, {"note": 69, "velocity": 83, "duration": 218}, {"note": 78, "velocity": 72, "duration": 261}, {"note": 69, "velocity": 85, "duration": 237}, {"note": 76, "velocity": 83, "duration": 250}, {"note": 69, "velocity": 83, "duration": 310}, {"note": 0, "velocity": 0, "duration": 170}, {"note": 71, "velocity": 83, "duration": 125}, {"note": 73, "velocity": 71, "duration": 128}, {"note": 74, "velocity": 84, "duration": 189}, {"note": 66, "velocity": 81, "duration": 207}, {"note": 74, "velocity": 90, "duration": 243}, {"note": 66, "velocity": 78, "duration": 256}, {"note": 73, "velocity": 80, "duration": 255}, {"note": 66, "velocity": 75, "duration": 347}, {"note": 0, "velocity": 0, "duration": 133}, {"note": 73, "velocity": 76, "duration": 88}, {"note": 73, "velocity": 78, "duration": 110}, {"note": 71, "velocity": 84, "duration": 181}, {"note": 67, "velocity": 76, "duration": 73}, {"note": 67, "velocity": 75, "duration": 76}, {"note": 67, "velocity": 81, "duration": 80}, {"note": 69, "velocity": 83, "duration": 81}, {"note": 71, "velocity": 77, "duration": 189}, {"note": 69, "velocity": 79, "duration": 226}, {"note": 73, "velocity": 84, "duration": 120}, {"note": 74, "velocity": 85, "duration": 360}, {"note": 0, "velocity": 0, "duration": 120}, {"note": 71, "velocity": 82, "duration": 110}, {"note": 76, "velocity": 84, "duration": 200}, {"note": 71, "velocity": 76, "duration": 63}, {"note": 71, "velocity": 80, "duration": 70}, {"note": 71, "velocity": 83, "duration": 229}, {"note": 78, "velocity": 81, "duration": 173}, {"note": 0, "velocity": 0, "duration": 67}, {"note": 78, "velocity": 83, "duration": 221}, {"note": 76, "velocity": 84, "duration": 340}, {"note": 0, "velocity": 0, "duration": 140}, {"note": 74, "velocity": 84, "duration": 108}, {"note": 76, "velocity": 83, "duration": 82}, {"note": 78, "velocity": 79, "duration": 223}, {"note": 81, "velocity": 84, "duration": 209}, {"note": 76, "velocity": 79, "duration": 185}, {"note": 78, "velocity": 81, "duration": 163}, {"note": 0, "velocity": 0, "duration": 77}, {"note": 76, "velocity": 83, "duration": 187}, {"note": 74, "velocity": 85, "duration": 345}, {"note": 0, "velocity": 0, "duration": 135}, {"note": 71, "velocity": 82, "duration": 103}, {"note": 73, "velocity": 72, "duration": 69}, {"note": 74, "velocity": 84, "duration": 192}, {"note": 78, "velocity": 81, "duration": 194}, {"note": 73, "velocity": 74, "duration": 179}, {"note": 0, "velocity": 0, "duration": 61}, {"note": 78, "velocity": 84, "duration": 189}, {"note": 73, "velocity": 83, "duration": 213}, {"note": 71, "velocity": 84, "duration": 289}, {"note": 0, "velocity": 0, "duration": 191}, {"note": 71, "velocity": 76, "duration": 121}, {"note": 69, "velocity": 82, "duration": 98}, {"note": 67, "velocity": 81, "duration": 83}, {"note": 67, "velocity": 78, "duration": 83}, {"note": 69, "velocity": 83, "duration": 87}, {"note": 71, "velocity": 78, "duration": 314}, {"note": 67, "velocity": 82, "duration": 188}, {"note": 69, "velocity": 83, "duration": 68}, {"note": 69, "velocity": 83, "duration": 66}, {"note": 73, "velocity": 83, "duration": 86}, {"note": 74, "velocity": 85, "duration": 258}, {"note": 0, "velocity": 0, "duration": 102}, {"note": 71, "velocity": 84, "duration": 75}, {"note": 74, "velocity": 84, "duration": 79}, {"note": 79, "velocity": 80, "duration": 195}, {"note": 78, "velocity": 79, "duration": 168}, {"note": 0, "velocity": 0, "duration": 72}, {"note": 74, "velocity": 84, "duration": 181}, {"note": 71, "velocity": 85, "duration": 203}, {"note": 76, "velocity": 83, "duration": 169}, {"note": 0, "velocity": 0, "duration": 71}, {"note": 69, "velocity": 87, "duration": 186}, {"note": 81, "velocity": 84, "duration": 179}, {"note": 0, "velocity": 0, "duration": 61}, {"note": 79, "velocity": 82, "duration": 153}, {"note": 0, "velocity": 0, "duration": 87}, {"note": 78, "velocity": 83, "duration": 78}, {"note": 78, "velocity": 81, "duration": 72}, {"note": 69, "velocity": 85, "duration": 63}, {"note": 69, "velocity": 74, "duration": 93}, {"note": 78, "velocity": 86, "duration": 151}, {"note": 0, "velocity": 0, "duration": 209}, {"note": 74, "velocity": 83, "duration": 90}, {"note": 76, "velocity": 76, "duration": 68}, {"note": 76, "velocity": 83, "duration": 80}, {"note": 69, "velocity": 83, "duration": 87}, {"note": 69, "velocity": 76, "duration": 86}, {"note": 76, "velocity": 80, "duration": 293}, {"note": 0, "velocity": 0, "duration": 67}, {"note": 73, "velocity": 78, "duration": 103}, {"note": 74, "velocity": 85, "duration": 53}, {"note": 0, "velocity": 0, "duration": 67}, {"note": 74, "velocity": 85, "duration": 64}, {"note": 66, "velocity": 83, "duration": 73}, {"note": 66, "velocity": 84, "duration": 59}, {"note": 0, "velocity": 0, "duration": 61}, {"note": 74, "velocity": 86, "duration": 55}, {"note": 0, "velocity": 0, "duration": 65}, {"note": 74, "velocity": 84, "duration": 62}, {"note": 76, "velocity": 79, "duration": 78}, {"note": 74, "velocity": 85, "duration": 78}, {"note": 73, "velocity": 76, "duration": 66}, {"note": 73, "velocity": 71, "duration": 81}, {"note": 69, "velocity": 78, "duration": 70}, {"note": 69, "velocity": 78, "duration": 85}, {"note": 73, "velocity": 84, "duration": 311}, {"note": 0, "velocity": 0, "duration": 169}, {"note": 71, "velocity": 81, "duration": 81}, {"note": 71, "velocity": 81, "duration": 95}, {"note": 67, "velocity": 83, "duration": 80}, {"note": 67, "velocity": 74, "duration": 73}, {"note": 67, "velocity": 78, "duration": 83}, {"note": 69, "velocity": 79, "duration": 65}, {"note": 71, "velocity": 80, "duration": 69}, {"note": 71, "velocity": 81, "duration": 87}, {"note": 69, "velocity": 81, "duration": 68}, {"note": 69, "velocity": 78, "duration": 60}, {"note": 69, "velocity": 79, "duration": 59}, {"note": 0, "velocity": 0, "duration": 61}, {"note": 73, "velocity": 85, "duration": 83}, {"note": 74, "velocity": 85, "duration": 323}, {"note": 71, "velocity": 85, "duration": 83}, {"note": 78, "velocity": 84, "duration": 76}, {"note": 79, "velocity": 76, "duration": 78}, {"note": 78, "velocity": 87, "duration": 61}, {"note": 74, "velocity": 84, "duration": 74}, {"note": 71, "velocity": 84, "duration": 251}, {"note": 0, "velocity": 0, "duration": 109}, {"note": 71, "velocity": 83, "duration": 81}, {"note": 78, "velocity": 83, "duration": 87}, {"note": 79, "velocity": 73, "duration": 81}, {"note": 78, "velocity": 88, "duration": 73}, {"note": 74, "velocity": 85, "duration": 86}, {"note": 76, "velocity": 83, "duration": 275}, {"note": 0, "velocity": 0, "duration": 205}, {"note": 78, "velocity": 83, "duration": 63}, {"note": 78, "velocity": 84, "duration": 88}, {"note": 69, "velocity": 84, "duration": 63}, {"note": 69, "velocity": 78, "duration": 98}, {"note": 78, "velocity": 84, "duration": 56}, {"note": 0, "velocity": 0, "duration": 64}, {"note": 78, "velocity": 83, "duration": 60}, {"note": 79, "velocity": 83, "duration": 70}, {"note": 74, "velocity": 81, "duration": 53}, {"note": 0, "velocity": 0, "duration": 67}, {"note": 76, "velocity": 79, "duration": 58}, {"note": 0, "velocity": 0, "duration": 62}, {"note": 76, "velocity": 80, "duration": 53}, {"note": 0, "velocity": 0, "duration": 67}, {"note": 76, "velocity": 83, "duration": 56}, {"note": 0, "velocity": 0, "duration": 64}, {"note": 76, "velocity": 83, "duration": 71}, {"note": 81, "velocity": 83, "duration": 336}, {"note": 0, "velocity": 0, "duration": 144}, {"note": 83, "velocity": 82, "duration": 74}, {"note": 78, "velocity": 84, "duration": 62}, {"note": 78, "velocity": 82, "duration": 58}, {"note": 0, "velocity": 0, "duration": 62}, {"note": 78, "velocity": 84, "duration": 66}, {"note": 78, "velocity": 83, "duration": 58}, {"note": 0, "velocity": 0, "duration": 62}, {"note": 78, "velocity": 88, "duration": 58}, {"note": 0, "velocity": 0, "duration": 62}, {"note": 83, "velocity": 84, "duration": 62}, {"note": 83, "velocity": 85, "duration": 66}, {"note": 81, "velocity": 79, "duration": 53}, {"note": 0, "velocity": 0, "duration": 67}, {"note": 81, "velocity": 79, "duration": 59}, {"note": 0, "velocity": 0, "duration": 61}, {"note": 78, "velocity": 81, "duration": 66}, {"note": 76, "velocity": 83, "duration": 61}, {"note": 78, "velocity": 83, "duration": 294}, {"note": 0, "velocity": 0, "duration": 186}, {"note": 74, "velocity": 84, "duration": 75}, {"note": 74, "velocity": 84, "duration": 71}, {"note": 74, "velocity": 85, "duration": 71}, {"note": 74, "velocity": 87, "duration": 68}, {"note": 74, "velocity": 89, "duration": 67}, {"note": 76, "velocity": 84, "duration": 70}, {"note": 78, "velocity": 84, "duration": 83}, {"note": 79, "velocity": 79, "duration": 68}, {"note": 81, "velocity": 82, "duration": 190}, {"note": 78, "velocity": 79, "duration": 78}, {"note": 76, "velocity": 80, "duration": 78}, {"note": 74, "velocity": 85, "duration": 176}, {"note": 0, "velocity": 0, "duration": 64}, {"note": 71, "velocity": 84, "duration": 171}, {"note": 0, "velocity": 0, "duration": 69}, {"note": 76, "velocity": 81, "duration": 560}, {"note": 0, "velocity": 0, "duration": 160}, {"note": 71, "velocity": 85, "duration": 71}, {"note": 73, "velocity": 83, "duration": 76}, {"note": 74, "velocity": 84, "duration": 179}, {"note": 0, "velocity": 0, "duration": 61}, {"note": 73, "velocity": 84, "duration": 161}, {"note": 0, "velocity": 0, "duration": 79}, {"note": 78, "velocity": 87, "duration": 180}, {"note": 76, "velocity": 84, "duration": 146}, {"note": 0, "velocity": 0, "duration": 94}, {"note": 76, "velocity": 82, "duration": 181}, {"note": 74, "velocity": 85, "duration": 726}, {"note": 0, "velocity": 0, "duration": 5994}, {"note": 69, "velocity": 87, "duration": 186}, {"note": 81, "velocity": 84, "duration": 179}, {"note": 0, "velocity": 0, "duration": 61}, {"note": 79, "velocity": 82, "duration": 153}, {"note": 0, "velocity": 0, "duration": 87}, {"note": 78, "velocity": 83, "duration": 78}, {"note": 78, "velocity": 81, "duration": 72}, {"note": 69, "velocity": 85, "duration": 63}, {"note": 69, "velocity": 74, "duration": 93}, {"note": 78, "velocity": 86, "duration": 151}, {"note": 0, "velocity": 0, "duration": 209}, {"note": 74, "velocity": 83, "duration": 90}, {"note": 76, "velocity": 76, "duration": 68}, {"note": 76, "velocity": 83, "duration": 80}, {"note": 69, "velocity": 83, "duration": 87}, {"note": 69, "velocity": 76, "duration": 86}, {"note": 76, "velocity": 80, "duration": 293}, {"note": 0, "velocity": 0, "duration": 67}, {"note": 73, "velocity": 78, "duration": 103}, {"note": 74, "velocity": 85, "duration": 53}, {"note": 0, "velocity": 0, "duration": 67}, {"note": 74, "velocity": 85, "duration": 64}, {"note": 66, "velocity": 83, "duration": 73}, {"note": 66, "velocity": 84, "duration": 59}, {"note": 0, "velocity": 0, "duration": 61}, {"note": 74, "velocity": 86, "duration": 55}, {"note": 0, "velocity": 0, "duration": 65}, {"note": 74, "velocity": 84, "duration": 62}, {"note": 76, "velocity": 79, "duration": 78}, {"note": 74, "velocity": 85, "duration": 78}, {"note": 73, "velocity": 76, "duration": 66}, {"note": 73, "velocity": 71, "duration": 81}, {"note": 69, "velocity": 78, "duration": 70}, {"note": 69, "velocity": 78, "duration": 85}, {"note": 73, "velocity": 84, "duration": 311}, {"note": 0, "velocity": 0, "duration": 169}, {"note": 71, "velocity": 81, "duration": 81}, {"note": 71, "velocity": 81, "duration": 95}, {"note": 67, "velocity": 83, "duration": 80}, {"note": 67, "velocity": 74, "duration": 73}, {"note": 67, "velocity": 78, "duration": 83}, {"note": 69, "velocity": 79, "duration": 65}, {"note": 71, "velocity": 80, "duration": 69}, {"note": 71, "velocity": 81, "duration": 87}, {"note": 69, "velocity": 81, "duration": 68}, {"note": 69, "velocity": 78, "duration": 60}, {"note": 69, "velocity": 79, "duration": 59}, {"note": 0, "velocity": 0, "duration": 61}, {"note": 73, "velocity": 85, "duration": 83}, {"note": 74, "velocity": 85, "duration": 323}, {"note": 71, "velocity": 85, "duration": 83}, {"note": 78, "velocity": 84, "duration": 76}, {"note": 79, "velocity": 76, "duration": 78}, {"note": 78, "velocity": 87, "duration": 61}, {"note": 74, "velocity": 84, "duration": 74}, {"note": 71, "velocity": 84, "duration": 251}, {"note": 0, "velocity": 0, "duration": 109}, {"note": 71, "velocity": 83, "duration": 81}, {"note": 78, "velocity": 83, "duration": 87}, {"note": 79, "velocity": 73, "duration": 81}, {"note": 78, "velocity": 88, "duration": 73}, {"note": 74, "velocity": 85, "duration": 86}, {"note": 76, "velocity": 83, "duration": 275}, {"note": 0, "velocity": 0, "duration": 205}, {"note": 78, "velocity": 83, "duration": 63}, {"note": 78, "velocity": 84, "duration": 88}, {"note": 69, "velocity": 84, "duration": 63}, {"note": 69, "velocity": 78, "duration": 98}, {"note": 78, "velocity": 84, "duration": 56}, {"note": 0, "velocity": 0, "duration": 64}, {"note": 78, "velocity": 83, "duration": 60}, {"note": 79, "velocity": 83, "duration": 70}, {"note": 74, "velocity": 81, "duration": 53}, {"note": 0, "velocity": 0, "duration": 67}, {"note": 76, "velocity": 79, "duration": 58}, {"note": 0, "velocity": 0, "duration": 62}, {"note": 76, "velocity": 80, "duration": 53}, {"note": 0, "velocity": 0, "duration": 67}, {"note": 76, "velocity": 83, "duration": 56}, {"note": 0, "velocity": 0, "duration": 64}, {"note": 76, "velocity": 83, "duration": 71}, {"note": 81, "velocity": 83, "duration": 336}, {"note": 0, "velocity": 0, "duration": 144}, {"note": 83, "velocity": 82, "duration": 74}, {"note": 78, "velocity": 84, "duration": 62}, {"note": 78, "velocity": 82, "duration": 58}, {"note": 0, "velocity": 0, "duration": 62}, {"note": 78, "velocity": 84, "duration": 66}, {"note": 78, "velocity": 83, "duration": 58}, {"note": 0, "velocity": 0, "duration": 62}, {"note": 78, "velocity": 88, "duration": 58}, {"note": 0, "velocity": 0, "duration": 62}, {"note": 83, "velocity": 84, "duration": 62}, {"note": 83, "velocity": 85, "duration": 66}, {"note": 81, "velocity": 79, "duration": 53}, {"note": 0, "velocity": 0, "duration": 67}, {"note": 81, "velocity": 79, "duration": 59}, {"note": 0, "velocity": 0, "duration": 61}, {"note": 78, "velocity": 81, "duration": 66}, {"note": 76, "velocity": 83, "duration": 61}, {"note": 78, "velocity": 83, "duration": 294}, {"note": 0, "velocity": 0, "duration": 186}, {"note": 74, "velocity": 84, "duration": 75}, {"note": 74, "velocity": 84, "duration": 71}, {"note": 74, "velocity": 85, "duration": 71}, {"note": 74, "velocity": 87, "duration": 68}, {"note": 74, "velocity": 89, "duration": 67}, {"note": 76, "velocity": 84, "duration": 70}, {"note": 78, "velocity": 84, "duration": 83}, {"note": 79, "velocity": 79, "duration": 68}, {"note": 81, "velocity": 82, "duration": 190}, {"note": 78, "velocity": 79, "duration": 78}, {"note": 76, "velocity": 80, "duration": 78}, {"note": 74, "velocity": 85, "duration": 176}, {"note": 0, "velocity": 0, "duration": 64}, {"note": 71, "velocity": 84, "duration": 171}, {"note": 0, "velocity": 0, "duration": 69}, {"note": 76, "velocity": 81, "duration": 560}, {"note": 0, "velocity": 0, "duration": 160}, {"note": 71, "velocity": 85, "duration": 71}, {"note": 73, "velocity": 83, "duration": 76}, {"note": 74, "velocity": 84, "duration": 179}, {"note": 0, "velocity": 0, "duration": 61}, {"note": 73, "velocity": 84, "duration": 161}, {"note": 0, "velocity": 0, "duration": 79}, {"note": 78, "velocity": 87, "duration": 180}, {"note": 76, "velocity": 84, "duration": 146}, {"note": 0, "velocity": 0, "duration": 94}, {"note": 76, "velocity": 82, "duration": 181}, {"note": 74, "velocity": 85, "duration": 726}]]