[[{"note": 72, "velocity": 85, "duration": 91}, {"note": 72, "velocity": 86, "duration": 72}, {"note": 72, "velocity": 85, "duration": 71}, {"note": 72, "velocity": 85, "duration": 59}, {"note": 0, "velocity": 0, "duration": 61}, {"note": 72, "velocity": 86, "duration": 220}, {"note": 68, "velocity": 79, "duration": 115}, {"note": 75, "velocity": 89, "duration": 733}, {"note": 0, "velocity": 0, "duration": 107}, {"note": 72, "velocity": 85, "duration": 141}, {"note": 75, "velocity": 87, "duration": 86}, {"note": 80, "velocity": 85, "duration": 67}, {"note": 80, "velocity": 86, "duration": 61}, {"note": 80, "velocity": 86, "duration": 59}, {"note": 0, "velocity": 0, "duration": 61}, {"note": 80, "velocity": 85, "duration": 72}, {"note": 79, "velocity": 86, "duration": 72}, {"note": 80, "velocity": 80, "duration": 342}, {"note": 77, "velocity": 84, "duration": 777}, {"note": 0, "velocity": 0, "duration": 183}, {"note": 73, "velocity": 81, "duration": 72}, {"note": 73, "velocity": 83, "duration": 67}, {"note": 73, "velocity": 85, "duration": 69}, {"note": 73, "velocity": 85, "duration": 56}, {"note": 0, "velocity": 0, "duration": 64}, {"note": 73, "velocity": 85, "duration": 101}, {"note": 70, "velocity": 86, "duration": 318}, {"note": 82, "velocity": 88, "duration": 275}, {"note": 0, "velocity": 0, "duration": 85}, {"note": 80, "velocity": 80, "duration": 85}, {"note": 79, "velocity": 86, "duration": 99}, {"note": 80, "velocity": 86, "duration": 336}, {"note": 79, "velocity": 85, "duration": 275}, {"note": 0, "velocity": 0, "duration": 85}, {"note": 80, "velocity": 81, "duration": 88}, {"note": 79, "velocity": 87, "duration": 238}, {"note": 77, "velocity": 86, "duration": 251}, {"note": 75, "velocity": 87, "duration": 834}, {"note": 0, "velocity": 0, "duration": 126}, {"note": 80, "velocity": 84, "duration": 225}, {"note": 79, "velocity": 90, "duration": 184}, {"note": 80, "velocity": 87, "duration": 209}, {"note": 79, "velocity": 87, "duration": 75}, {"note": 80, "velocity": 87, "duration": 350}, {"note": 75, "velocity": 89, "duration": 280}, {"note": 0, "velocity": 0, "duration": 80}, {"note": 72, "velocity": 86, "duration": 106}, {"note": 68, "velocity": 86, "duration": 68}, {"note": 68, "velocity": 85, "duration": 89}, {"note": 78, "velocity": 87, "duration": 720}, {"note": 77, "velocity": 89, "duration": 240}, {"note": 77, "velocity": 85, "duration": 840}, {"note": 0, "velocity": 0, "duration": 120}, {"note": 82, "velocity": 89, "duration": 255}, {"note": 81, "velocity": 87, "duration": 230}, {"note": 82, "velocity": 86, "duration": 197}, {"note": 81, "velocity": 91, "duration": 78}, {"note": 82, "velocity": 86, "duration": 451}, {"note": 77, "velocity": 85, "duration": 108}, {"note": 74, "velocity": 86, "duration": 242}, {"note": 70, "velocity": 89, "duration": 202}, {"note": 80, "velocity": 88, "duration": 960}, {"note": 79, "velocity": 89, "duration": 240}, {"note": 75, "velocity": 91, "duration": 67}, {"note": 75, "velocity": 89, "duration": 104}, {"note": 80, "velocity": 86, "duration": 185}, {"note": 82, "velocity": 86, "duration": 158}, {"note": 0, "velocity": 0, "duration": 82}, {"note": 84, "velocity": 87, "duration": 179}, {"note": 0, "velocity": 0, "duration": 61}, {"note": 82, "velocity": 87, "duration": 154}, {"note": 0, "velocity": 0, "duration": 86}, {"note": 82, "velocity": 86, "duration": 192}, {"note": 80, "velocity": 80, "duration": 113}, {"note": 0, "velocity": 0, "duration": 127}, {"note": 80, "velocity": 84, "duration": 172}, {"note": 0, "velocity": 0, "duration": 68}, {"note": 79, "velocity": 86, "duration": 70}, {"note": 79, "velocity": 86, "duration": 340}, {"note": 77, "velocity": 87, "duration": 230}, {"note": 75, "velocity": 89, "duration": 179}, {"note": 0, "velocity": 0, "duration": 61}, {"note": 73, "velocity": 87, "duration": 194}, {"note": 73, "velocity": 84, "duration": 206}, {"note": 72, "velocity": 80, "duration": 77}, {"note": 73, "velocity": 83, "duration": 720}, {"note": 0, "velocity": 0, "duration": 240}, {"note": 77, "velocity": 86, "duration": 101}, {"note": 85, "velocity": 96, "duration": 203}, {"note": 84, "velocity": 86, "duration": 72}, {"note": 84, "velocity": 86, "duration": 226}, {"note": 82, "velocity": 89, "duration": 302}, {"note": 82, "velocity": 86, "duration": 188}, {"note": 80, "velocity": 80, "duration": 72}, {"note": 79, "velocity": 82, "duration": 232}, {"note": 77, "velocity": 81, "duration": 237}, {"note": 0, "velocity": 0, "duration": 123}, {"note": 79, "velocity": 86, "duration": 204}, {"note": 77, "velocity": 87, "duration": 71}, {"note": 77, "velocity": 85, "duration": 86}, {"note": 79, "velocity": 86, "duration": 173}, {"note": 0, "velocity": 0, "duration": 67}, {"note": 80, "velocity": 85, "duration": 91}, {"note": 75, "velocity": 92, "duration": 892}, {"note": 0, "velocity": 0, "duration": 68}, {"note": 75, "velocity": 86, "duration": 120}, {"note": 84, "velocity": 87, "duration": 179}, {"note": 0, "velocity": 0, "duration": 61}, {"note": 82, "velocity": 87, "duration": 154}, {"note": 0, "velocity": 0, "duration": 86}, {"note": 82, "velocity": 86, "duration": 192}, {"note": 80, "velocity": 80, "duration": 113}, {"note": 0, "velocity": 0, "duration": 127}, {"note": 80, "velocity": 84, "duration": 172}, {"note": 0, "velocity": 0, "duration": 68}, {"note": 79, "velocity": 86, "duration": 70}, {"note": 79, "velocity": 86, "duration": 120}, {"note": 79, "velocity": 86, "duration": 240}, {"note": 77, "velocity": 87, "duration": 230}, {"note": 75, "velocity": 89, "duration": 179}, {"note": 0, "velocity": 0, "duration": 61}, {"note": 73, "velocity": 87, "duration": 194}, {"note": 73, "velocity": 84, "duration": 206}, {"note": 72, "velocity": 80, "duration": 77}, {"note": 73, "velocity": 83, "duration": 720}, {"note": 0, "velocity": 0, "duration": 240}, {"note": 77, "velocity": 86, "duration": 101}, {"note": 85, "velocity": 96, "duration": 203}, {"note": 84, "velocity": 86, "duration": 72}, {"note": 84, "velocity": 86, "duration": 226}, {"note": 82, "velocity": 89, "duration": 302}, {"note": 82, "velocity": 86, "duration": 188}, {"note": 80, "velocity": 80, "duration": 72}, {"note": 80, "velocity": 82, "duration": 120}, {"note": 79, "velocity": 82, "duration": 240}, {"note": 77, "velocity": 81, "duration": 120}, {"note": 0, "velocity": 0, "duration": 120}, {"note": 77, "velocity": 87, "duration": 57}, {"note": 0, "velocity": 0, "duration": 63}, {"note": 77, "velocity": 86, "duration": 64}, {"note": 77, "velocity": 87, "duration": 72}, {"note": 77, "velocity": 87, "duration": 72}, {"note": 77, "velocity": 91, "duration": 191}, {"note": 79, "velocity": 87, "duration": 174}, {"note": 0, "velocity": 0, "duration": 66}, {"note": 80, "velocity": 85, "duration": 1292}, {"note": 0, "velocity": 0, "duration": 7348}, {"note": 72, "velocity": 85, "duration": 91}, {"note": 72, "velocity": 86, "duration": 72}, {"note": 72, "velocity": 85, "duration": 71}, {"note": 72, "velocity": 85, "duration": 59}, {"note": 0, "velocity": 0, "duration": 61}, {"note": 72, "velocity": 86, "duration": 220}, {"note": 68, "velocity": 79, "duration": 115}, {"note": 75, "velocity": 89, "duration": 733}, {"note": 0, "velocity": 0, "duration": 107}, {"note": 72, "velocity": 85, "duration": 141}, {"note": 75, "velocity": 87, "duration": 86}, {"note": 80, "velocity": 85, "duration": 67}, {"note": 80, "velocity": 86, "duration": 61}, {"note": 80, "velocity": 86, "duration": 59}, {"note": 0, "velocity": 0, "duration": 61}, {"note": 80, "velocity": 85, "duration": 72}, {"note": 79, "velocity": 86, "duration": 72}, {"note": 80, "velocity": 80, "duration": 342}, {"note": 77, "velocity": 84, "duration": 777}, {"note": 0, "velocity": 0, "duration": 183}, {"note": 73, "velocity": 81, "duration": 72}, {"note": 73, "velocity": 83, "duration": 67}, {"note": 73, "velocity": 85, "duration": 69}, {"note": 73, "velocity": 85, "duration": 56}, {"note": 0, "velocity": 0, "duration": 64}, {"note": 73, "velocity": 85, "duration": 101}, {"note": 70, "velocity": 86, "duration": 318}, {"note": 82, "velocity": 88, "duration": 275}, {"note": 0, "velocity": 0, "duration": 85}, {"note": 80, "velocity": 80, "duration": 85}, {"note": 79, "velocity": 86, "duration": 99}, {"note": 80, "velocity": 86, "duration": 336}, {"note": 79, "velocity": 85, "duration": 275}, {"note": 0, "velocity": 0, "duration": 85}, {"note": 80, "velocity": 81, "duration": 88}, {"note": 79, "velocity": 87, "duration": 238}, {"note": 77, "velocity": 86, "duration": 251}, {"note": 75, "velocity": 87, "duration": 834}, {"note": 0, "velocity": 0, "duration": 126}, {"note": 80, "velocity": 84, "duration": 225}, {"note": 79, "velocity": 90, "duration": 184}, {"note": 80, "velocity": 87, "duration": 209}, {"note": 79, "velocity": 87, "duration": 75}, {"note": 80, "velocity": 87, "duration": 350}, {"note": 75, "velocity": 89, "duration": 280}, {"note": 0, "velocity": 0, "duration": 80}, {"note": 72, "velocity": 86, "duration": 106}, {"note": 68, "velocity": 86, "duration": 68}, {"note": 68, "velocity": 85, "duration": 89}, {"note": 78, "velocity": 87, "duration": 720}, {"note": 77, "velocity": 89, "duration": 240}, {"note": 77, "velocity": 85, "duration": 840}, {"note": 0, "velocity": 0, "duration": 120}, {"note": 82, "velocity": 89, "duration": 255}, {"note": 81, "velocity": 87, "duration": 230}, {"note": 82, "velocity": 86, "duration": 197}, {"note": 81, "velocity": 91, "duration": 78}, {"note": 82, "velocity": 86, "duration": 451}, {"note": 77, "velocity": 85, "duration": 108}, {"note": 74, "velocity": 86, "duration": 242}, {"note": 70, "velocity": 89, "duration": 202}, {"note": 80, "velocity": 88, "duration": 960}, {"note": 79, "velocity": 89, "duration": 240}, {"note": 75, "velocity": 91, "duration": 67}, {"note": 75, "velocity": 89, "duration": 104}, {"note": 80, "velocity": 86, "duration": 185}, {"note": 82, "velocity": 86, "duration": 158}, {"note": 0, "velocity": 0, "duration": 82}, {"note": 84, "velocity": 87, "duration": 179}, {"note": 0, "velocity": 0, "duration": 61}, {"note": 82, "velocity": 87, "duration": 154}, {"note": 0, "velocity": 0, "duration": 86}, {"note": 82, "velocity": 86, "duration": 192}, {"note": 80, "velocity": 80, "duration": 113}, {"note": 0, "velocity": 0, "duration": 127}, {"note": 80, "velocity": 84, "duration": 172}, {"note": 0, "velocity": 0, "duration": 68}, {"note": 79, "velocity": 86, "duration": 70}, {"note": 79, "velocity": 86, "duration": 340}, {"note": 77, "velocity": 87, "duration": 230}, {"note": 75, "velocity": 89, "duration": 179}, {"note": 0, "velocity": 0, "duration": 61}, {"note": 73, "velocity": 87, "duration": 194}, {"note": 73, "velocity": 84, "duration": 206}, {"note": 72, "velocity": 80, "duration": 77}, {"note": 73, "velocity": 83, "duration": 720}, {"note": 0, "velocity": 0, "duration": 240}, {"note": 77, "velocity": 86, "duration": 101}, {"note": 85, "velocity": 96, "duration": 203}, {"note": 84, "velocity": 86, "duration": 72}, {"note": 84, "velocity": 86, "duration": 226}, {"note": 82, "velocity": 89, "duration": 302}, {"note": 82, "velocity": 86, "duration": 188}, {"note": 80, "velocity": 80, "duration": 72}, {"note": 79, "velocity": 82, "duration": 232}, {"note": 77, "velocity": 81, "duration": 237}, {"note": 0, "velocity": 0, "duration": 123}, {"note": 79, "velocity": 86, "duration": 204}, {"note": 77, "velocity": 87, "duration": 71}, {"note": 77, "velocity": 85, "duration": 86}, {"note": 79, "velocity": 86, "duration": 173}, {"note": 0, "velocity": 0, "duration": 67}, {"note": 80, "velocity": 85, "duration": 91}, {"note": 75, "velocity": 92, "duration": 892}, {"note": 0, "velocity": 0, "duration": 68}, {"note": 75, "velocity": 86, "duration": 120}, {"note": 84, "velocity": 87, "duration": 179}, {"note": 0, "velocity": 0, "duration": 61}, {"note": 82, "velocity": 87, "duration": 154}, {"note": 0, "velocity": 0, "duration": 86}, {"note": 82, "velocity": 86, "duration": 192}, {"note": 80, "velocity": 80, "duration": 113}, {"note": 0, "velocity": 0, "duration": 127}, {"note": 80, "velocity": 84, "duration": 172}, {"note": 0, "velocity": 0, "duration": 68}, {"note": 79, "velocity": 86, "duration": 70}, {"note": 79, "velocity": 86, "duration": 120}, {"note": 79, "velocity": 86, "duration": 240}, {"note": 77, "velocity": 87, "duration": 230}, {"note": 75, "velocity": 89, "duration": 179}, {"note": 0, "velocity": 0, "duration": 61}, {"note": 73, "velocity": 87, "duration": 194}, {"note": 73, "velocity": 84, "duration": 206}, {"note": 72, "velocity": 80, "duration": 77}, {"note": 73, "velocity": 83, "duration": 720}, {"note": 0, "velocity": 0, "duration": 240}, {"note": 77, "velocity": 86, "duration": 101}, {"note": 85, "velocity": 96, "duration": 203}, {"note": 84, "velocity": 86, "duration": 72}, {"note": 84, "velocity": 86, "duration": 226}, {"note": 82, "velocity": 89, "duration": 302}, {"note": 82, "velocity": 86, "duration": 188}, {"note": 80, "velocity": 80, "duration": 72}, {"note": 80, "velocity": 82, "duration": 120}, {"note": 79, "velocity": 82, "duration": 240}, {"note": 77, "velocity": 81, "duration": 120}, {"note": 0, "velocity": 0, "duration": 120}, {"note": 77, "velocity": 87, "duration": 57}, {"note": 0, "velocity": 0, "duration": 63}, {"note": 77, "velocity": 86, "duration": 64}, {"note": 77, "velocity": 87, "duration": 72}, {"note": 77, "velocity": 87, "duration": 72}, {"note": 77, "velocity": 91, "duration": 191}, {"note": 79, "velocity": 87, "duration": 120}, {"note": 80, "velocity": 85, "duration": 360}, {"note": 76, "velocity": 91, "duration": 67}, {"note": 76, "velocity": 89, "duration": 104}, {"note": 81, "velocity": 86, "duration": 185}, {"note": 83, "velocity": 86, "duration": 158}, {"note": 0, "velocity": 0, "duration": 82}, {"note": 85, "velocity": 87, "duration": 179}, {"note": 0, "velocity": 0, "duration": 61}, {"note": 83, "velocity": 87, "duration": 154}, {"note": 0, "velocity": 0, "duration": 86}, {"note": 83, "velocity": 86, "duration": 192}, {"note": 81, "velocity": 80, "duration": 113}, {"note": 0, "velocity": 0, "duration": 127}, {"note": 81, "velocity": 84, "duration": 172}, {"note": 0, "velocity": 0, "duration": 68}, {"note": 80, "velocity": 86, "duration": 70}, {"note": 80, "velocity": 86, "duration": 340}, {"note": 78, "velocity": 87, "duration": 230}, {"note": 76, "velocity": 89, "duration": 179}, {"note": 0, "velocity": 0, "duration": 61}, {"note": 74, "velocity": 87, "duration": 194}, {"note": 74, "velocity": 84, "duration": 206}, {"note": 73, "velocity": 80, "duration": 77}, {"note": 74, "velocity": 83, "duration": 720}, {"note": 0, "velocity": 0, "duration": 240}, {"note": 78, "velocity": 86, "duration": 101}, {"note": 86, "velocity": 96, "duration": 203}, {"note": 85, "velocity": 86, "duration": 72}, {"note": 85, "velocity": 86, "duration": 226}, {"note": 83, "velocity": 89, "duration": 302}, {"note": 83, "velocity": 86, "duration": 188}, {"note": 81, "velocity": 80, "duration": 72}, {"note": 80, "velocity": 82, "duration": 232}, {"note": 78, "velocity": 81, "duration": 237}, {"note": 0, "velocity": 0, "duration": 123}, {"note": 80, "velocity": 86, "duration": 204}, {"note": 78, "velocity": 87, "duration": 71}, {"note": 78, "velocity": 85, "duration": 86}, {"note": 80, "velocity": 86, "duration": 173}, {"note": 0, "velocity": 0, "duration": 67}, {"note": 81, "velocity": 85, "duration": 91}, {"note": 76, "velocity": 92, "duration": 892}, {"note": 0, "velocity": 0, "duration": 68}, {"note": 76, "velocity": 86, "duration": 120}, {"note": 85, "velocity": 87, "duration": 179}, {"note": 0, "velocity": 0, "duration": 61}, {"note": 83, "velocity": 87, "duration": 154}, {"note": 0, "velocity": 0, "duration": 86}, {"note": 83, "velocity": 86, "duration": 192}, {"note": 81, "velocity": 80, "duration": 113}, {"note": 0, "velocity": 0, "duration": 127}, {"note": 81, "velocity": 84, "duration": 172}, {"note": 0, "velocity": 0, "duration": 68}, {"note": 80, "velocity": 86, "duration": 70}, {"note": 80, "velocity": 86, "duration": 120}, {"note": 80, "velocity": 86, "duration": 240}, {"note": 78, "velocity": 87, "duration": 230}, {"note": 76, "velocity": 89, "duration": 179}, {"note": 0, "velocity": 0, "duration": 61}, {"note": 74, "velocity": 87, "duration": 194}, {"note": 74, "velocity": 84, "duration": 206}, {"note": 73, "velocity": 80, "duration": 77}, {"note": 74, "velocity": 83, "duration": 720}, {"note": 0, "velocity": 0, "duration": 240}, {"note": 78, "velocity": 86, "duration": 101}, {"note": 86, "velocity": 96, "duration": 203}, {"note": 85, "velocity": 86, "duration": 72}, {"note": 85, "velocity": 86, "duration": 226}, {"note": 83, "velocity": 89, "duration": 302}, {"note": 83, "velocity": 86, "duration": 188}, {"note": 81, "velocity": 80, "duration": 72}, {"note": 81, "velocity": 82, "duration": 120}, {"note": 80, "velocity": 82, "duration": 240}, {"note": 78, "velocity": 81, "duration": 120}, {"note": 0, "velocity": 0, "duration": 120}, {"note": 78, "velocity": 87, "duration": 57}, {"note": 0, "velocity": 0, "duration": 63}, {"note": 78, "velocity": 86, "duration": 64}, {"note": 78, "velocity": 87, "duration": 72}, {"note": 78, "velocity": 87, "duration": 72}, {"note": 78, "velocity": 91, "duration": 191}, {"note": 80, "velocity": 87, "duration": 120}, {"note": 81, "velocity": 85, "duration": 360}]]