[[{"note": 75, "velocity": 82, "duration": 254}, {"note": 74, "velocity": 83, "duration": 232}, {"note": 72, "velocity": 82, "duration": 256}, {"note": 74, "velocity": 84, "duration": 260}, {"note": 75, "velocity": 87, "duration": 417}, {"note": 0, "velocity": 0, "duration": 63}, {"note": 79, "velocity": 83, "duration": 404}, {"note": 0, "velocity": 0, "duration": 76}, {"note": 74, "velocity": 83, "duration": 1197}, {"note": 0, "velocity": 0, "duration": 723}, {"note": 75, "velocity": 83, "duration": 211}, {"note": 74, "velocity": 78, "duration": 245}, {"note": 72, "velocity": 83, "duration": 208}, {"note": 70, "velocity": 83, "duration": 231}, {"note": 72, "velocity": 80, "duration": 468}, {"note": 75, "velocity": 83, "duration": 541}, {"note": 67, "velocity": 77, "duration": 1287}, {"note": 0, "velocity": 0, "duration": 633}, {"note": 68, "velocity": 83, "duration": 239}, {"note": 67, "velocity": 81, "duration": 277}, {"note": 68, "velocity": 84, "duration": 168}, {"note": 0, "velocity": 0, "duration": 72}, {"note": 79, "velocity": 86, "duration": 201}, {"note": 77, "velocity": 83, "duration": 757}, {"note": 0, "velocity": 0, "duration": 203}, {"note": 70, "velocity": 81, "duration": 182}, {"note": 72, "velocity": 84, "duration": 176}, {"note": 0, "velocity": 0, "duration": 64}, {"note": 74, "velocity": 88, "duration": 186}, {"note": 77, "velocity": 88, "duration": 186}, {"note": 75, "velocity": 82, "duration": 704}, {"note": 0, "velocity": 0, "duration": 256}, {"note": 68, "velocity": 87, "duration": 175}, {"note": 0, "velocity": 0, "duration": 65}, {"note": 70, "velocity": 85, "duration": 217}, {"note": 72, "velocity": 83, "duration": 185}, {"note": 75, "velocity": 85, "duration": 185}, {"note": 77, "velocity": 82, "duration": 412}, {"note": 0, "velocity": 0, "duration": 68}, {"note": 79, "velocity": 82, "duration": 457}, {"note": 74, "velocity": 83, "duration": 1472}, {"note": 0, "velocity": 0, "duration": 448}, {"note": 75, "velocity": 82, "duration": 254}, {"note": 74, "velocity": 83, "duration": 232}, {"note": 72, "velocity": 82, "duration": 256}, {"note": 74, "velocity": 84, "duration": 260}, {"note": 75, "velocity": 87, "duration": 417}, {"note": 0, "velocity": 0, "duration": 63}, {"note": 79, "velocity": 83, "duration": 404}, {"note": 0, "velocity": 0, "duration": 76}, {"note": 74, "velocity": 83, "duration": 1197}, {"note": 0, "velocity": 0, "duration": 723}, {"note": 75, "velocity": 83, "duration": 211}, {"note": 74, "velocity": 78, "duration": 245}, {"note": 72, "velocity": 83, "duration": 208}, {"note": 70, "velocity": 83, "duration": 231}, {"note": 72, "velocity": 80, "duration": 468}, {"note": 75, "velocity": 83, "duration": 541}, {"note": 67, "velocity": 77, "duration": 1287}, {"note": 0, "velocity": 0, "duration": 633}, {"note": 68, "velocity": 83, "duration": 239}, {"note": 67, "velocity": 81, "duration": 277}, {"note": 68, "velocity": 84, "duration": 168}, {"note": 0, "velocity": 0, "duration": 72}, {"note": 79, "velocity": 86, "duration": 201}, {"note": 77, "velocity": 83, "duration": 757}, {"note": 0, "velocity": 0, "duration": 203}, {"note": 70, "velocity": 81, "duration": 182}, {"note": 72, "velocity": 84, "duration": 176}, {"note": 0, "velocity": 0, "duration": 64}, {"note": 74, "velocity": 88, "duration": 186}, {"note": 77, "velocity": 88, "duration": 186}, {"note": 75, "velocity": 82, "duration": 704}, {"note": 0, "velocity": 0, "duration": 256}, {"note": 68, "velocity": 87, "duration": 175}, {"note": 0, "velocity": 0, "duration": 65}, {"note": 70, "velocity": 85, "duration": 217}, {"note": 72, "velocity": 83, "duration": 185}, {"note": 75, "velocity": 85, "duration": 185}, {"note": 77, "velocity": 82, "duration": 412}, {"note": 0, "velocity": 0, "duration": 68}, {"note": 75, "velocity": 86, "duration": 189}, {"note": 77, "velocity": 83, "duration": 161}, {"note": 0, "velocity": 0, "duration": 79}, {"note": 79, "velocity": 83, "duration": 1107}, {"note": 0, "velocity": 0, "duration": 333}, {"note": 75, "velocity": 86, "duration": 231}, {"note": 77, "velocity": 80, "duration": 269}, {"note": 79, "velocity": 83, "duration": 248}, {"note": 84, "velocity": 86, "duration": 176}, {"note": 0, "velocity": 0, "duration": 64}, {"note": 84, "velocity": 89, "duration": 180}, {"note": 79, "velocity": 82, "duration": 194}, {"note": 77, "velocity": 88, "duration": 361}, {"note": 0, "velocity": 0, "duration": 119}, {"note": 74, "velocity": 89, "duration": 177}, {"note": 0, "velocity": 0, "duration": 63}, {"note": 75, "velocity": 83, "duration": 185}, {"note": 77, "velocity": 83, "duration": 160}, {"note": 0, "velocity": 0, "duration": 80}, {"note": 82, "velocity": 86, "duration": 166}, {"note": 0, "velocity": 0, "duration": 74}, {"note": 82, "velocity": 84, "duration": 156}, {"note": 0, "velocity": 0, "duration": 84}, {"note": 84, "velocity": 82, "duration": 185}, {"note": 79, "velocity": 84, "duration": 480}, {"note": 75, "velocity": 89, "duration": 206}, {"note": 74, "velocity": 93, "duration": 187}, {"note": 72, "velocity": 84, "duration": 439}, {"note": 79, "velocity": 85, "duration": 421}, {"note": 77, "velocity": 84, "duration": 414}, {"note": 0, "velocity": 0, "duration": 66}, {"note": 75, "velocity": 84, "duration": 194}, {"note": 77, "velocity": 83, "duration": 195}, {"note": 79, "velocity": 83, "duration": 186}, {"note": 80, "velocity": 87, "duration": 201}, {"note": 79, "velocity": 85, "duration": 192}, {"note": 77, "velocity": 86, "duration": 193}, {"note": 79, "velocity": 84, "duration": 412}, {"note": 0, "velocity": 0, "duration": 68}, {"note": 75, "velocity": 86, "duration": 231}, {"note": 77, "velocity": 80, "duration": 269}, {"note": 79, "velocity": 83, "duration": 248}, {"note": 84, "velocity": 86, "duration": 176}, {"note": 0, "velocity": 0, "duration": 64}, {"note": 84, "velocity": 89, "duration": 180}, {"note": 79, "velocity": 82, "duration": 194}, {"note": 77, "velocity": 88, "duration": 361}, {"note": 0, "velocity": 0, "duration": 119}, {"note": 74, "velocity": 89, "duration": 177}, {"note": 0, "velocity": 0, "duration": 63}, {"note": 75, "velocity": 83, "duration": 185}, {"note": 77, "velocity": 83, "duration": 160}, {"note": 0, "velocity": 0, "duration": 80}, {"note": 82, "velocity": 86, "duration": 166}, {"note": 0, "velocity": 0, "duration": 74}, {"note": 82, "velocity": 84, "duration": 156}, {"note": 0, "velocity": 0, "duration": 84}, {"note": 84, "velocity": 82, "duration": 185}, {"note": 79, "velocity": 84, "duration": 480}, {"note": 75, "velocity": 89, "duration": 206}, {"note": 74, "velocity": 93, "duration": 187}, {"note": 72, "velocity": 84, "duration": 439}, {"note": 79, "velocity": 85, "duration": 421}, {"note": 77, "velocity": 84, "duration": 414}, {"note": 0, "velocity": 0, "duration": 66}, {"note": 75, "velocity": 84, "duration": 194}, {"note": 77, "velocity": 83, "duration": 195}, {"note": 79, "velocity": 83, "duration": 186}, {"note": 77, "velocity": 87, "duration": 201}, {"note": 75, "velocity": 85, "duration": 192}, {"note": 74, "velocity": 86, "duration": 480}, {"note": 72, "velocity": 84, "duration": 720}, {"note": 0, "velocity": 0, "duration": 15360}, {"note": 75, "velocity": 82, "duration": 254}, {"note": 74, "velocity": 83, "duration": 232}, {"note": 72, "velocity": 82, "duration": 256}, {"note": 74, "velocity": 84, "duration": 260}, {"note": 75, "velocity": 87, "duration": 417}, {"note": 0, "velocity": 0, "duration": 63}, {"note": 79, "velocity": 83, "duration": 404}, {"note": 0, "velocity": 0, "duration": 76}, {"note": 74, "velocity": 83, "duration": 1197}, {"note": 0, "velocity": 0, "duration": 723}, {"note": 75, "velocity": 83, "duration": 211}, {"note": 74, "velocity": 78, "duration": 245}, {"note": 72, "velocity": 83, "duration": 208}, {"note": 70, "velocity": 83, "duration": 231}, {"note": 72, "velocity": 80, "duration": 468}, {"note": 75, "velocity": 83, "duration": 541}, {"note": 67, "velocity": 77, "duration": 1287}, {"note": 0, "velocity": 0, "duration": 633}, {"note": 68, "velocity": 83, "duration": 239}, {"note": 67, "velocity": 81, "duration": 277}, {"note": 68, "velocity": 84, "duration": 168}, {"note": 0, "velocity": 0, "duration": 72}, {"note": 79, "velocity": 86, "duration": 201}, {"note": 77, "velocity": 83, "duration": 757}, {"note": 0, "velocity": 0, "duration": 203}, {"note": 70, "velocity": 81, "duration": 182}, {"note": 72, "velocity": 84, "duration": 176}, {"note": 0, "velocity": 0, "duration": 64}, {"note": 74, "velocity": 88, "duration": 186}, {"note": 77, "velocity": 88, "duration": 186}, {"note": 75, "velocity": 82, "duration": 704}, {"note": 0, "velocity": 0, "duration": 256}, {"note": 68, "velocity": 87, "duration": 175}, {"note": 0, "velocity": 0, "duration": 65}, {"note": 70, "velocity": 85, "duration": 217}, {"note": 72, "velocity": 83, "duration": 185}, {"note": 75, "velocity": 85, "duration": 185}, {"note": 77, "velocity": 82, "duration": 412}, {"note": 0, "velocity": 0, "duration": 68}, {"note": 79, "velocity": 82, "duration": 457}, {"note": 74, "velocity": 83, "duration": 1472}, {"note": 0, "velocity": 0, "duration": 448}, {"note": 75, "velocity": 82, "duration": 254}, {"note": 74, "velocity": 83, "duration": 232}, {"note": 72, "velocity": 82, "duration": 256}, {"note": 74, "velocity": 84, "duration": 260}, {"note": 75, "velocity": 87, "duration": 417}, {"note": 0, "velocity": 0, "duration": 63}, {"note": 79, "velocity": 83, "duration": 404}, {"note": 0, "velocity": 0, "duration": 76}, {"note": 74, "velocity": 83, "duration": 1197}, {"note": 0, "velocity": 0, "duration": 723}, {"note": 75, "velocity": 83, "duration": 211}, {"note": 74, "velocity": 78, "duration": 245}, {"note": 72, "velocity": 83, "duration": 208}, {"note": 70, "velocity": 83, "duration": 231}, {"note": 72, "velocity": 80, "duration": 468}, {"note": 75, "velocity": 83, "duration": 541}, {"note": 67, "velocity": 77, "duration": 1287}, {"note": 0, "velocity": 0, "duration": 633}, {"note": 68, "velocity": 83, "duration": 239}, {"note": 67, "velocity": 81, "duration": 277}, {"note": 68, "velocity": 84, "duration": 168}, {"note": 0, "velocity": 0, "duration": 72}, {"note": 79, "velocity": 86, "duration": 201}, {"note": 77, "velocity": 83, "duration": 757}, {"note": 0, "velocity": 0, "duration": 203}, {"note": 70, "velocity": 81, "duration": 182}, {"note": 72, "velocity": 84, "duration": 176}, {"note": 0, "velocity": 0, "duration": 64}, {"note": 74, "velocity": 88, "duration": 186}, {"note": 77, "velocity": 88, "duration": 186}, {"note": 75, "velocity": 82, "duration": 704}, {"note": 0, "velocity": 0, "duration": 256}, {"note": 68, "velocity": 87, "duration": 175}, {"note": 0, "velocity": 0, "duration": 65}, {"note": 70, "velocity": 85, "duration": 217}, {"note": 72, "velocity": 83, "duration": 185}, {"note": 75, "velocity": 85, "duration": 185}, {"note": 77, "velocity": 82, "duration": 412}, {"note": 0, "velocity": 0, "duration": 68}, {"note": 75, "velocity": 86, "duration": 189}, {"note": 77, "velocity": 83, "duration": 161}, {"note": 0, "velocity": 0, "duration": 79}, {"note": 79, "velocity": 83, "duration": 1107}, {"note": 0, "velocity": 0, "duration": 333}, {"note": 75, "velocity": 86, "duration": 231}, {"note": 77, "velocity": 80, "duration": 269}, {"note": 79, "velocity": 83, "duration": 248}, {"note": 84, "velocity": 86, "duration": 176}, {"note": 0, "velocity": 0, "duration": 64}, {"note": 84, "velocity": 89, "duration": 180}, {"note": 79, "velocity": 82, "duration": 194}, {"note": 77, "velocity": 88, "duration": 361}, {"note": 0, "velocity": 0, "duration": 119}, {"note": 74, "velocity": 89, "duration": 177}, {"note": 0, "velocity": 0, "duration": 63}, {"note": 75, "velocity": 83, "duration": 185}, {"note": 77, "velocity": 83, "duration": 160}, {"note": 0, "velocity": 0, "duration": 80}, {"note": 82, "velocity": 86, "duration": 166}, {"note": 0, "velocity": 0, "duration": 74}, {"note": 82, "velocity": 84, "duration": 156}, {"note": 0, "velocity": 0, "duration": 84}, {"note": 84, "velocity": 82, "duration": 185}, {"note": 79, "velocity": 84, "duration": 480}, {"note": 75, "velocity": 89, "duration": 206}, {"note": 74, "velocity": 93, "duration": 187}, {"note": 72, "velocity": 84, "duration": 439}, {"note": 79, "velocity": 85, "duration": 421}, {"note": 77, "velocity": 84, "duration": 414}, {"note": 0, "velocity": 0, "duration": 66}, {"note": 75, "velocity": 84, "duration": 194}, {"note": 77, "velocity": 83, "duration": 195}, {"note": 79, "velocity": 83, "duration": 186}, {"note": 80, "velocity": 87, "duration": 201}, {"note": 79, "velocity": 85, "duration": 192}, {"note": 77, "velocity": 86, "duration": 193}, {"note": 79, "velocity": 84, "duration": 412}, {"note": 0, "velocity": 0, "duration": 68}, {"note": 75, "velocity": 86, "duration": 231}, {"note": 77, "velocity": 80, "duration": 269}, {"note": 79, "velocity": 83, "duration": 248}, {"note": 84, "velocity": 86, "duration": 176}, {"note": 0, "velocity": 0, "duration": 64}, {"note": 84, "velocity": 89, "duration": 180}, {"note": 79, "velocity": 82, "duration": 194}, {"note": 77, "velocity": 88, "duration": 361}, {"note": 0, "velocity": 0, "duration": 119}, {"note": 74, "velocity": 89, "duration": 177}, {"note": 0, "velocity": 0, "duration": 63}, {"note": 75, "velocity": 83, "duration": 185}, {"note": 77, "velocity": 83, "duration": 160}, {"note": 0, "velocity": 0, "duration": 80}, {"note": 82, "velocity": 86, "duration": 166}, {"note": 0, "velocity": 0, "duration": 74}, {"note": 82, "velocity": 84, "duration": 156}, {"note": 0, "velocity": 0, "duration": 84}, {"note": 84, "velocity": 82, "duration": 185}, {"note": 79, "velocity": 84, "duration": 480}, {"note": 75, "velocity": 89, "duration": 206}, {"note": 74, "velocity": 93, "duration": 187}, {"note": 72, "velocity": 84, "duration": 439}, {"note": 79, "velocity": 85, "duration": 421}, {"note": 77, "velocity": 84, "duration": 414}, {"note": 0, "velocity": 0, "duration": 66}, {"note": 75, "velocity": 84, "duration": 194}, {"note": 77, "velocity": 83, "duration": 195}, {"note": 79, "velocity": 83, "duration": 186}, {"note": 77, "velocity": 87, "duration": 201}, {"note": 75, "velocity": 85, "duration": 192}, {"note": 74, "velocity": 86, "duration": 480}, {"note": 72, "velocity": 84, "duration": 720}, {"note": 0, "velocity": 0, "duration": 3360}, {"note": 75, "velocity": 86, "duration": 231}, {"note": 77, "velocity": 80, "duration": 269}, {"note": 79, "velocity": 83, "duration": 248}, {"note": 84, "velocity": 86, "duration": 176}, {"note": 0, "velocity": 0, "duration": 64}, {"note": 84, "velocity": 89, "duration": 180}, {"note": 79, "velocity": 82, "duration": 194}, {"note": 77, "velocity": 88, "duration": 361}, {"note": 0, "velocity": 0, "duration": 119}, {"note": 74, "velocity": 89, "duration": 177}, {"note": 0, "velocity": 0, "duration": 63}, {"note": 75, "velocity": 83, "duration": 185}, {"note": 77, "velocity": 83, "duration": 160}, {"note": 0, "velocity": 0, "duration": 80}, {"note": 82, "velocity": 86, "duration": 166}, {"note": 0, "velocity": 0, "duration": 74}, {"note": 82, "velocity": 84, "duration": 156}, {"note": 0, "velocity": 0, "duration": 84}, {"note": 84, "velocity": 82, "duration": 185}, {"note": 79, "velocity": 84, "duration": 480}, {"note": 75, "velocity": 89, "duration": 206}, {"note": 74, "velocity": 93, "duration": 187}, {"note": 72, "velocity": 84, "duration": 439}, {"note": 79, "velocity": 85, "duration": 421}, {"note": 77, "velocity": 84, "duration": 414}, {"note": 0, "velocity": 0, "duration": 66}, {"note": 75, "velocity": 84, "duration": 194}, {"note": 77, "velocity": 83, "duration": 195}, {"note": 79, "velocity": 83, "duration": 186}, {"note": 80, "velocity": 87, "duration": 201}, {"note": 79, "velocity": 85, "duration": 192}, {"note": 77, "velocity": 86, "duration": 193}, {"note": 79, "velocity": 84, "duration": 412}, {"note": 0, "velocity": 0, "duration": 68}, {"note": 75, "velocity": 86, "duration": 231}, {"note": 77, "velocity": 80, "duration": 269}, {"note": 79, "velocity": 83, "duration": 248}, {"note": 84, "velocity": 86, "duration": 176}, {"note": 0, "velocity": 0, "duration": 64}, {"note": 84, "velocity": 89, "duration": 180}, {"note": 79, "velocity": 82, "duration": 194}, {"note": 77, "velocity": 88, "duration": 361}, {"note": 0, "velocity": 0, "duration": 119}, {"note": 74, "velocity": 89, "duration": 177}, {"note": 0, "velocity": 0, "duration": 63}, {"note": 75, "velocity": 83, "duration": 185}, {"note": 77, "velocity": 83, "duration": 160}, {"note": 0, "velocity": 0, "duration": 80}, {"note": 82, "velocity": 86, "duration": 166}, {"note": 0, "velocity": 0, "duration": 74}, {"note": 82, "velocity": 84, "duration": 156}, {"note": 0, "velocity": 0, "duration": 84}, {"note": 84, "velocity": 82, "duration": 185}, {"note": 79, "velocity": 84, "duration": 480}, {"note": 75, "velocity": 89, "duration": 206}, {"note": 74, "velocity": 93, "duration": 187}, {"note": 72, "velocity": 84, "duration": 439}, {"note": 79, "velocity": 85, "duration": 421}, {"note": 77, "velocity": 84, "duration": 414}, {"note": 0, "velocity": 0, "duration": 66}, {"note": 75, "velocity": 84, "duration": 194}, {"note": 77, "velocity": 83, "duration": 195}, {"note": 79, "velocity": 83, "duration": 186}, {"note": 77, "velocity": 87, "duration": 201}, {"note": 75, "velocity": 85, "duration": 192}, {"note": 74, "velocity": 86, "duration": 480}, {"note": 72, "velocity": 84, "duration": 720}]]