[[{"note": 68, "velocity": 85, "duration": 217}, {"note": 75, "velocity": 83, "duration": 173}, {"note": 0, "velocity": 0, "duration": 67}, {"note": 75, "velocity": 84, "duration": 850}, {"note": 0, "velocity": 0, "duration": 110}, {"note": 73, "velocity": 87, "duration": 182}, {"note": 75, "velocity": 84, "duration": 182}, {"note": 70, "velocity": 85, "duration": 209}, {"note": 66, "velocity": 80, "duration": 182}, {"note": 68, "velocity": 81, "duration": 1259}, {"note": 0, "velocity": 0, "duration": 181}, {"note": 68, "velocity": 83, "duration": 204}, {"note": 75, "velocity": 83, "duration": 175}, {"note": 0, "velocity": 0, "duration": 65}, {"note": 75, "velocity": 83, "duration": 806}, {"note": 0, "velocity": 0, "duration": 154}, {"note": 73, "velocity": 85, "duration": 158}, {"note": 0, "velocity": 0, "duration": 82}, {"note": 75, "velocity": 84, "duration": 207}, {"note": 78, "velocity": 83, "duration": 225}, {"note": 73, "velocity": 83, "duration": 523}, {"note": 75, "velocity": 82, "duration": 1021}, {"note": 0, "velocity": 0, "duration": 179}, {"note": 75, "velocity": 87, "duration": 186}, {"note": 78, "velocity": 82, "duration": 198}, {"note": 80, "velocity": 81, "duration": 438}, {"note": 78, "velocity": 76, "duration": 168}, {"note": 0, "velocity": 0, "duration": 72}, {"note": 80, "velocity": 82, "duration": 212}, {"note": 73, "velocity": 86, "duration": 715}, {"note": 0, "velocity": 0, "duration": 245}, {"note": 75, "velocity": 84, "duration": 432}, {"note": 73, "velocity": 83, "duration": 171}, {"note": 0, "velocity": 0, "duration": 69}, {"note": 71, "velocity": 79, "duration": 221}, {"note": 68, "velocity": 82, "duration": 379}, {"note": 0, "velocity": 0, "duration": 341}, {"note": 68, "velocity": 85, "duration": 211}, {"note": 75, "velocity": 83, "duration": 422}, {"note": 73, "velocity": 82, "duration": 154}, {"note": 0, "velocity": 0, "duration": 86}, {"note": 75, "velocity": 83, "duration": 178}, {"note": 0, "velocity": 0, "duration": 62}, {"note": 70, "velocity": 81, "duration": 383}, {"note": 0, "velocity": 0, "duration": 97}, {"note": 68, "velocity": 82, "duration": 217}, {"note": 66, "velocity": 79, "duration": 189}, {"note": 68, "velocity": 81, "duration": 1190}, {"note": 0, "velocity": 0, "duration": 250}, {"note": 68, "velocity": 85, "duration": 217}, {"note": 75, "velocity": 83, "duration": 173}, {"note": 0, "velocity": 0, "duration": 67}, {"note": 75, "velocity": 84, "duration": 850}, {"note": 0, "velocity": 0, "duration": 110}, {"note": 73, "velocity": 87, "duration": 182}, {"note": 75, "velocity": 84, "duration": 182}, {"note": 70, "velocity": 85, "duration": 209}, {"note": 66, "velocity": 80, "duration": 182}, {"note": 68, "velocity": 81, "duration": 1259}, {"note": 0, "velocity": 0, "duration": 181}, {"note": 68, "velocity": 83, "duration": 204}, {"note": 75, "velocity": 83, "duration": 175}, {"note": 0, "velocity": 0, "duration": 65}, {"note": 75, "velocity": 83, "duration": 806}, {"note": 0, "velocity": 0, "duration": 154}, {"note": 73, "velocity": 85, "duration": 158}, {"note": 0, "velocity": 0, "duration": 82}, {"note": 75, "velocity": 84, "duration": 207}, {"note": 78, "velocity": 83, "duration": 225}, {"note": 73, "velocity": 83, "duration": 523}, {"note": 75, "velocity": 82, "duration": 1021}, {"note": 0, "velocity": 0, "duration": 179}, {"note": 75, "velocity": 87, "duration": 186}, {"note": 78, "velocity": 82, "duration": 198}, {"note": 80, "velocity": 81, "duration": 438}, {"note": 78, "velocity": 76, "duration": 168}, {"note": 0, "velocity": 0, "duration": 72}, {"note": 80, "velocity": 82, "duration": 212}, {"note": 73, "velocity": 86, "duration": 715}, {"note": 0, "velocity": 0, "duration": 245}, {"note": 75, "velocity": 84, "duration": 432}, {"note": 73, "velocity": 83, "duration": 171}, {"note": 0, "velocity": 0, "duration": 69}, {"note": 71, "velocity": 79, "duration": 221}, {"note": 68, "velocity": 82, "duration": 379}, {"note": 0, "velocity": 0, "duration": 341}, {"note": 68, "velocity": 85, "duration": 211}, {"note": 75, "velocity": 83, "duration": 422}, {"note": 73, "velocity": 82, "duration": 154}, {"note": 0, "velocity": 0, "duration": 86}, {"note": 71, "velocity": 83, "duration": 178}, {"note": 0, "velocity": 0, "duration": 62}, {"note": 71, "velocity": 81, "duration": 383}, {"note": 0, "velocity": 0, "duration": 97}, {"note": 70, "velocity": 82, "duration": 217}, {"note": 71, "velocity": 79, "duration": 189}, {"note": 71, "velocity": 81, "duration": 1190}, {"note": 0, "velocity": 0, "duration": 2170}, {"note": 71, "velocity": 83, "duration": 252}, {"note": 73, "velocity": 92, "duration": 244}, {"note": 75, "velocity": 84, "duration": 505}, {"note": 78, "velocity": 83, "duration": 472}, {"note": 80, "velocity": 84, "duration": 773}, {"note": 83, "velocity": 87, "duration": 236}, {"note": 82, "velocity": 88, "duration": 494}, {"note": 78, "velocity": 82, "duration": 217}, {"note": 75, "velocity": 85, "duration": 251}, {"note": 80, "velocity": 83, "duration": 398}, {"note": 0, "velocity": 0, "duration": 82}, {"note": 75, "velocity": 83, "duration": 173}, {"note": 0, "velocity": 0, "duration": 67}, {"note": 75, "velocity": 85, "duration": 204}, {"note": 73, "velocity": 90, "duration": 713}, {"note": 75, "velocity": 83, "duration": 221}, {"note": 73, "velocity": 92, "duration": 221}, {"note": 71, "velocity": 81, "duration": 177}, {"note": 0, "velocity": 0, "duration": 63}, {"note": 71, "velocity": 81, "duration": 249}, {"note": 78, "velocity": 82, "duration": 263}, {"note": 75, "velocity": 78, "duration": 1336}, {"note": 0, "velocity": 0, "duration": 104}, {"note": 71, "velocity": 83, "duration": 192}, {"note": 73, "velocity": 88, "duration": 187}, {"note": 75, "velocity": 83, "duration": 501}, {"note": 78, "velocity": 83, "duration": 477}, {"note": 80, "velocity": 83, "duration": 531}, {"note": 0, "velocity": 0, "duration": 189}, {"note": 83, "velocity": 87, "duration": 197}, {"note": 82, "velocity": 84, "duration": 468}, {"note": 80, "velocity": 81, "duration": 222}, {"note": 82, "velocity": 83, "duration": 247}, {"note": 83, "velocity": 84, "duration": 415}, {"note": 0, "velocity": 0, "duration": 65}, {"note": 75, "velocity": 80, "duration": 147}, {"note": 0, "velocity": 0, "duration": 93}, {"note": 75, "velocity": 79, "duration": 225}, {"note": 73, "velocity": 84, "duration": 639}, {"note": 0, "velocity": 0, "duration": 81}, {"note": 80, "velocity": 82, "duration": 193}, {"note": 78, "velocity": 84, "duration": 181}, {"note": 75, "velocity": 83, "duration": 241}, {"note": 73, "velocity": 86, "duration": 232}, {"note": 75, "velocity": 83, "duration": 479}, {"note": 71, "velocity": 83, "duration": 1624}, {"note": 0, "velocity": 0, "duration": 7256}, {"note": 68, "velocity": 85, "duration": 217}, {"note": 75, "velocity": 83, "duration": 173}, {"note": 0, "velocity": 0, "duration": 67}, {"note": 75, "velocity": 84, "duration": 850}, {"note": 0, "velocity": 0, "duration": 110}, {"note": 73, "velocity": 87, "duration": 182}, {"note": 75, "velocity": 84, "duration": 182}, {"note": 70, "velocity": 85, "duration": 209}, {"note": 66, "velocity": 80, "duration": 182}, {"note": 68, "velocity": 81, "duration": 1259}, {"note": 0, "velocity": 0, "duration": 181}, {"note": 68, "velocity": 83, "duration": 204}, {"note": 75, "velocity": 83, "duration": 175}, {"note": 0, "velocity": 0, "duration": 65}, {"note": 75, "velocity": 83, "duration": 806}, {"note": 0, "velocity": 0, "duration": 154}, {"note": 73, "velocity": 85, "duration": 158}, {"note": 0, "velocity": 0, "duration": 82}, {"note": 75, "velocity": 84, "duration": 207}, {"note": 78, "velocity": 83, "duration": 225}, {"note": 73, "velocity": 83, "duration": 523}, {"note": 75, "velocity": 82, "duration": 1021}, {"note": 0, "velocity": 0, "duration": 179}, {"note": 75, "velocity": 87, "duration": 186}, {"note": 78, "velocity": 82, "duration": 198}, {"note": 80, "velocity": 81, "duration": 438}, {"note": 78, "velocity": 76, "duration": 168}, {"note": 0, "velocity": 0, "duration": 72}, {"note": 80, "velocity": 82, "duration": 212}, {"note": 73, "velocity": 86, "duration": 715}, {"note": 0, "velocity": 0, "duration": 245}, {"note": 75, "velocity": 84, "duration": 432}, {"note": 73, "velocity": 83, "duration": 171}, {"note": 0, "velocity": 0, "duration": 69}, {"note": 71, "velocity": 79, "duration": 221}, {"note": 68, "velocity": 82, "duration": 379}, {"note": 0, "velocity": 0, "duration": 341}, {"note": 68, "velocity": 85, "duration": 211}, {"note": 75, "velocity": 83, "duration": 422}, {"note": 73, "velocity": 82, "duration": 154}, {"note": 0, "velocity": 0, "duration": 86}, {"note": 75, "velocity": 83, "duration": 178}, {"note": 0, "velocity": 0, "duration": 62}, {"note": 70, "velocity": 81, "duration": 383}, {"note": 0, "velocity": 0, "duration": 97}, {"note": 68, "velocity": 82, "duration": 217}, {"note": 66, "velocity": 79, "duration": 189}, {"note": 68, "velocity": 81, "duration": 1190}, {"note": 0, "velocity": 0, "duration": 250}, {"note": 68, "velocity": 85, "duration": 217}, {"note": 75, "velocity": 83, "duration": 173}, {"note": 0, "velocity": 0, "duration": 67}, {"note": 75, "velocity": 84, "duration": 850}, {"note": 0, "velocity": 0, "duration": 110}, {"note": 73, "velocity": 87, "duration": 182}, {"note": 75, "velocity": 84, "duration": 182}, {"note": 70, "velocity": 85, "duration": 209}, {"note": 66, "velocity": 80, "duration": 182}, {"note": 68, "velocity": 81, "duration": 1259}, {"note": 0, "velocity": 0, "duration": 181}, {"note": 68, "velocity": 83, "duration": 204}, {"note": 75, "velocity": 83, "duration": 175}, {"note": 0, "velocity": 0, "duration": 65}, {"note": 75, "velocity": 83, "duration": 806}, {"note": 0, "velocity": 0, "duration": 154}, {"note": 73, "velocity": 85, "duration": 158}, {"note": 0, "velocity": 0, "duration": 82}, {"note": 75, "velocity": 84, "duration": 207}, {"note": 78, "velocity": 83, "duration": 225}, {"note": 73, "velocity": 83, "duration": 523}, {"note": 75, "velocity": 82, "duration": 1021}, {"note": 0, "velocity": 0, "duration": 179}, {"note": 75, "velocity": 87, "duration": 186}, {"note": 78, "velocity": 82, "duration": 198}, {"note": 80, "velocity": 81, "duration": 438}, {"note": 78, "velocity": 76, "duration": 168}, {"note": 0, "velocity": 0, "duration": 72}, {"note": 80, "velocity": 82, "duration": 212}, {"note": 73, "velocity": 86, "duration": 715}, {"note": 0, "velocity": 0, "duration": 245}, {"note": 75, "velocity": 84, "duration": 432}, {"note": 73, "velocity": 83, "duration": 171}, {"note": 0, "velocity": 0, "duration": 69}, {"note": 71, "velocity": 79, "duration": 221}, {"note": 68, "velocity": 82, "duration": 379}, {"note": 0, "velocity": 0, "duration": 341}, {"note": 68, "velocity": 85, "duration": 211}, {"note": 75, "velocity": 83, "duration": 422}, {"note": 73, "velocity": 82, "duration": 154}, {"note": 0, "velocity": 0, "duration": 86}, {"note": 71, "velocity": 83, "duration": 178}, {"note": 0, "velocity": 0, "duration": 62}, {"note": 71, "velocity": 81, "duration": 383}, {"note": 0, "velocity": 0, "duration": 97}, {"note": 70, "velocity": 82, "duration": 217}, {"note": 71, "velocity": 79, "duration": 189}, {"note": 71, "velocity": 81, "duration": 1190}, {"note": 0, "velocity": 0, "duration": 2170}, {"note": 71, "velocity": 83, "duration": 252}, {"note": 73, "velocity": 92, "duration": 244}, {"note": 75, "velocity": 84, "duration": 505}, {"note": 78, "velocity": 83, "duration": 472}, {"note": 80, "velocity": 84, "duration": 773}, {"note": 83, "velocity": 87, "duration": 236}, {"note": 82, "velocity": 88, "duration": 494}, {"note": 78, "velocity": 82, "duration": 217}, {"note": 75, "velocity": 85, "duration": 251}, {"note": 80, "velocity": 83, "duration": 398}, {"note": 0, "velocity": 0, "duration": 82}, {"note": 75, "velocity": 83, "duration": 173}, {"note": 0, "velocity": 0, "duration": 67}, {"note": 75, "velocity": 85, "duration": 204}, {"note": 73, "velocity": 90, "duration": 713}, {"note": 75, "velocity": 83, "duration": 221}, {"note": 73, "velocity": 92, "duration": 221}, {"note": 71, "velocity": 81, "duration": 177}, {"note": 0, "velocity": 0, "duration": 63}, {"note": 71, "velocity": 81, "duration": 249}, {"note": 78, "velocity": 82, "duration": 263}, {"note": 75, "velocity": 78, "duration": 1336}, {"note": 0, "velocity": 0, "duration": 104}, {"note": 71, "velocity": 83, "duration": 192}, {"note": 73, "velocity": 88, "duration": 187}, {"note": 75, "velocity": 83, "duration": 501}, {"note": 78, "velocity": 83, "duration": 477}, {"note": 80, "velocity": 83, "duration": 531}, {"note": 0, "velocity": 0, "duration": 189}, {"note": 83, "velocity": 87, "duration": 197}, {"note": 82, "velocity": 84, "duration": 468}, {"note": 80, "velocity": 81, "duration": 222}, {"note": 82, "velocity": 83, "duration": 247}, {"note": 83, "velocity": 84, "duration": 415}, {"note": 0, "velocity": 0, "duration": 65}, {"note": 75, "velocity": 80, "duration": 147}, {"note": 0, "velocity": 0, "duration": 93}, {"note": 75, "velocity": 79, "duration": 225}, {"note": 73, "velocity": 84, "duration": 639}, {"note": 0, "velocity": 0, "duration": 81}, {"note": 80, "velocity": 82, "duration": 193}, {"note": 78, "velocity": 84, "duration": 181}, {"note": 75, "velocity": 83, "duration": 241}, {"note": 73, "velocity": 86, "duration": 232}, {"note": 75, "velocity": 83, "duration": 479}, {"note": 71, "velocity": 83, "duration": 1624}, {"note": 0, "velocity": 0, "duration": 16856}, {"note": 71, "velocity": 83, "duration": 252}, {"note": 73, "velocity": 92, "duration": 244}, {"note": 75, "velocity": 84, "duration": 505}, {"note": 78, "velocity": 83, "duration": 472}, {"note": 80, "velocity": 84, "duration": 773}, {"note": 83, "velocity": 87, "duration": 236}, {"note": 82, "velocity": 88, "duration": 494}, {"note": 78, "velocity": 82, "duration": 217}, {"note": 75, "velocity": 85, "duration": 251}, {"note": 80, "velocity": 83, "duration": 398}, {"note": 0, "velocity": 0, "duration": 82}, {"note": 75, "velocity": 83, "duration": 173}, {"note": 0, "velocity": 0, "duration": 67}, {"note": 75, "velocity": 85, "duration": 204}, {"note": 73, "velocity": 90, "duration": 713}, {"note": 75, "velocity": 83, "duration": 221}, {"note": 73, "velocity": 92, "duration": 221}, {"note": 71, "velocity": 81, "duration": 177}, {"note": 0, "velocity": 0, "duration": 63}, {"note": 71, "velocity": 81, "duration": 249}, {"note": 78, "velocity": 82, "duration": 263}, {"note": 75, "velocity": 78, "duration": 1336}, {"note": 0, "velocity": 0, "duration": 104}, {"note": 71, "velocity": 83, "duration": 192}, {"note": 73, "velocity": 88, "duration": 187}, {"note": 75, "velocity": 83, "duration": 501}, {"note": 78, "velocity": 83, "duration": 477}, {"note": 80, "velocity": 83, "duration": 531}, {"note": 0, "velocity": 0, "duration": 189}, {"note": 83, "velocity": 87, "duration": 197}, {"note": 82, "velocity": 84, "duration": 468}, {"note": 80, "velocity": 81, "duration": 222}, {"note": 82, "velocity": 83, "duration": 247}, {"note": 83, "velocity": 84, "duration": 415}, {"note": 0, "velocity": 0, "duration": 65}, {"note": 75, "velocity": 80, "duration": 147}, {"note": 0, "velocity": 0, "duration": 93}, {"note": 75, "velocity": 79, "duration": 225}, {"note": 73, "velocity": 84, "duration": 639}, {"note": 0, "velocity": 0, "duration": 81}, {"note": 80, "velocity": 82, "duration": 193}, {"note": 78, "velocity": 84, "duration": 181}, {"note": 75, "velocity": 83, "duration": 241}, {"note": 73, "velocity": 86, "duration": 232}, {"note": 75, "velocity": 83, "duration": 479}, {"note": 71, "velocity": 83, "duration": 1198}, {"note": 71, "velocity": 83, "duration": 192}, {"note": 73, "velocity": 88, "duration": 187}, {"note": 75, "velocity": 83, "duration": 501}, {"note": 78, "velocity": 83, "duration": 477}, {"note": 80, "velocity": 83, "duration": 531}, {"note": 0, "velocity": 0, "duration": 189}, {"note": 83, "velocity": 87, "duration": 197}, {"note": 82, "velocity": 84, "duration": 468}, {"note": 80, "velocity": 81, "duration": 222}, {"note": 82, "velocity": 83, "duration": 247}, {"note": 83, "velocity": 84, "duration": 415}, {"note": 0, "velocity": 0, "duration": 65}, {"note": 75, "velocity": 80, "duration": 147}, {"note": 0, "velocity": 0, "duration": 93}, {"note": 75, "velocity": 79, "duration": 225}, {"note": 73, "velocity": 84, "duration": 639}, {"note": 0, "velocity": 0, "duration": 81}, {"note": 80, "velocity": 82, "duration": 193}, {"note": 78, "velocity": 84, "duration": 181}, {"note": 75, "velocity": 83, "duration": 241}, {"note": 73, "velocity": 86, "duration": 232}, {"note": 75, "velocity": 83, "duration": 479}, {"note": 71, "velocity": 83, "duration": 1198}, {"note": 68, "velocity": 85, "duration": 217}, {"note": 75, "velocity": 83, "duration": 173}, {"note": 0, "velocity": 0, "duration": 67}, {"note": 75, "velocity": 84, "duration": 850}, {"note": 0, "velocity": 0, "duration": 110}, {"note": 73, "velocity": 87, "duration": 182}, {"note": 75, "velocity": 84, "duration": 182}, {"note": 70, "velocity": 85, "duration": 209}, {"note": 66, "velocity": 80, "duration": 182}, {"note": 68, "velocity": 81, "duration": 1259}, {"note": 0, "velocity": 0, "duration": 181}, {"note": 68, "velocity": 83, "duration": 204}, {"note": 75, "velocity": 83, "duration": 175}, {"note": 0, "velocity": 0, "duration": 65}, {"note": 75, "velocity": 83, "duration": 806}, {"note": 0, "velocity": 0, "duration": 154}, {"note": 73, "velocity": 85, "duration": 158}, {"note": 0, "velocity": 0, "duration": 82}, {"note": 75, "velocity": 84, "duration": 207}, {"note": 78, "velocity": 83, "duration": 225}, {"note": 73, "velocity": 83, "duration": 523}, {"note": 75, "velocity": 82, "duration": 1021}, {"note": 0, "velocity": 0, "duration": 179}, {"note": 75, "velocity": 87, "duration": 186}, {"note": 78, "velocity": 82, "duration": 198}, {"note": 80, "velocity": 81, "duration": 438}, {"note": 78, "velocity": 76, "duration": 168}, {"note": 0, "velocity": 0, "duration": 72}, {"note": 80, "velocity": 82, "duration": 212}, {"note": 73, "velocity": 86, "duration": 715}, {"note": 0, "velocity": 0, "duration": 245}, {"note": 75, "velocity": 84, "duration": 432}, {"note": 73, "velocity": 83, "duration": 171}, {"note": 0, "velocity": 0, "duration": 69}, {"note": 71, "velocity": 79, "duration": 221}, {"note": 68, "velocity": 82, "duration": 379}, {"note": 0, "velocity": 0, "duration": 341}, {"note": 68, "velocity": 85, "duration": 211}, {"note": 75, "velocity": 83, "duration": 422}, {"note": 73, "velocity": 82, "duration": 154}, {"note": 0, "velocity": 0, "duration": 86}, {"note": 71, "velocity": 83, "duration": 178}, {"note": 0, "velocity": 0, "duration": 62}, {"note": 71, "velocity": 81, "duration": 383}, {"note": 0, "velocity": 0, "duration": 589}, {"note": 70, "velocity": 83, "duration": 420}, {"note": 71, "velocity": 84, "duration": 420}, {"note": 0, "velocity": 0, "duration": 155}, {"note": 71, "velocity": 87, "duration": 2932}]]