[[{"note": 78, "velocity": 85, "duration": 626}, {"note": 0, "velocity": 0, "duration": 94}, {"note": 78, "velocity": 84, "duration": 152}, {"note": 0, "velocity": 0, "duration": 88}, {"note": 78, "velocity": 85, "duration": 406}, {"note": 0, "velocity": 0, "duration": 74}, {"note": 78, "velocity": 85, "duration": 221}, {"note": 71, "velocity": 87, "duration": 196}, {"note": 74, "velocity": 89, "duration": 381}, {"note": 0, "velocity": 0, "duration": 99}, {"note": 76, "velocity": 89, "duration": 209}, {"note": 74, "velocity": 99, "duration": 208}, {"note": 71, "velocity": 89, "duration": 738}, {"note": 0, "velocity": 0, "duration": 222}, {"note": 83, "velocity": 87, "duration": 173}, {"note": 0, "velocity": 0, "duration": 67}, {"note": 83, "velocity": 85, "duration": 381}, {"note": 0, "velocity": 0, "duration": 99}, {"note": 85, "velocity": 87, "duration": 164}, {"note": 0, "velocity": 0, "duration": 76}, {"note": 83, "velocity": 87, "duration": 147}, {"note": 0, "velocity": 0, "duration": 93}, {"note": 78, "velocity": 87, "duration": 168}, {"note": 0, "velocity": 0, "duration": 72}, {"note": 81, "velocity": 85, "duration": 180}, {"note": 80, "velocity": 85, "duration": 209}, {"note": 78, "velocity": 92, "duration": 1699}, {"note": 0, "velocity": 0, "duration": 221}, {"note": 76, "velocity": 92, "duration": 596}, {"note": 0, "velocity": 0, "duration": 124}, {"note": 78, "velocity": 83, "duration": 181}, {"note": 83, "velocity": 85, "duration": 358}, {"note": 0, "velocity": 0, "duration": 122}, {"note": 83, "velocity": 86, "duration": 411}, {"note": 0, "velocity": 0, "duration": 69}, {"note": 78, "velocity": 83, "duration": 184}, {"note": 79, "velocity": 83, "duration": 158}, {"note": 0, "velocity": 0, "duration": 82}, {"note": 78, "velocity": 84, "duration": 199}, {"note": 76, "velocity": 84, "duration": 201}, {"note": 74, "velocity": 89, "duration": 730}, {"note": 0, "velocity": 0, "duration": 230}, {"note": 76, "velocity": 84, "duration": 147}, {"note": 0, "velocity": 0, "duration": 93}, {"note": 76, "velocity": 85, "duration": 155}, {"note": 0, "velocity": 0, "duration": 85}, {"note": 76, "velocity": 85, "duration": 161}, {"note": 0, "velocity": 0, "duration": 79}, {"note": 78, "velocity": 84, "duration": 194}, {"note": 69, "velocity": 85, "duration": 172}, {"note": 0, "velocity": 0, "duration": 68}, {"note": 71, "velocity": 83, "duration": 202}, {"note": 76, "velocity": 90, "duration": 184}, {"note": 73, "velocity": 79, "duration": 208}, {"note": 71, "velocity": 81, "duration": 1737}, {"note": 0, "velocity": 0, "duration": 183}, {"note": 78, "velocity": 85, "duration": 626}, {"note": 0, "velocity": 0, "duration": 94}, {"note": 78, "velocity": 84, "duration": 152}, {"note": 0, "velocity": 0, "duration": 88}, {"note": 78, "velocity": 85, "duration": 406}, {"note": 0, "velocity": 0, "duration": 74}, {"note": 78, "velocity": 85, "duration": 221}, {"note": 71, "velocity": 87, "duration": 196}, {"note": 74, "velocity": 89, "duration": 381}, {"note": 0, "velocity": 0, "duration": 99}, {"note": 76, "velocity": 89, "duration": 209}, {"note": 74, "velocity": 99, "duration": 208}, {"note": 71, "velocity": 89, "duration": 738}, {"note": 0, "velocity": 0, "duration": 222}, {"note": 83, "velocity": 87, "duration": 173}, {"note": 0, "velocity": 0, "duration": 67}, {"note": 83, "velocity": 85, "duration": 240}, {"note": 83, "velocity": 85, "duration": 240}, {"note": 85, "velocity": 87, "duration": 164}, {"note": 0, "velocity": 0, "duration": 76}, {"note": 83, "velocity": 87, "duration": 147}, {"note": 0, "velocity": 0, "duration": 93}, {"note": 78, "velocity": 87, "duration": 168}, {"note": 0, "velocity": 0, "duration": 72}, {"note": 81, "velocity": 85, "duration": 180}, {"note": 80, "velocity": 85, "duration": 209}, {"note": 78, "velocity": 92, "duration": 1699}, {"note": 0, "velocity": 0, "duration": 221}, {"note": 76, "velocity": 92, "duration": 596}, {"note": 0, "velocity": 0, "duration": 124}, {"note": 78, "velocity": 83, "duration": 181}, {"note": 83, "velocity": 85, "duration": 358}, {"note": 0, "velocity": 0, "duration": 122}, {"note": 83, "velocity": 86, "duration": 411}, {"note": 0, "velocity": 0, "duration": 69}, {"note": 78, "velocity": 83, "duration": 184}, {"note": 79, "velocity": 83, "duration": 158}, {"note": 0, "velocity": 0, "duration": 82}, {"note": 78, "velocity": 84, "duration": 199}, {"note": 76, "velocity": 84, "duration": 201}, {"note": 74, "velocity": 89, "duration": 730}, {"note": 0, "velocity": 0, "duration": 230}, {"note": 76, "velocity": 84, "duration": 147}, {"note": 0, "velocity": 0, "duration": 93}, {"note": 76, "velocity": 85, "duration": 155}, {"note": 0, "velocity": 0, "duration": 85}, {"note": 76, "velocity": 85, "duration": 161}, {"note": 0, "velocity": 0, "duration": 79}, {"note": 78, "velocity": 84, "duration": 194}, {"note": 69, "velocity": 85, "duration": 172}, {"note": 0, "velocity": 0, "duration": 68}, {"note": 71, "velocity": 83, "duration": 202}, {"note": 76, "velocity": 90, "duration": 184}, {"note": 73, "velocity": 79, "duration": 208}, {"note": 71, "velocity": 81, "duration": 1737}, {"note": 0, "velocity": 0, "duration": 15543}, {"note": 78, "velocity": 85, "duration": 626}, {"note": 0, "velocity": 0, "duration": 94}, {"note": 78, "velocity": 84, "duration": 152}, {"note": 0, "velocity": 0, "duration": 88}, {"note": 78, "velocity": 85, "duration": 406}, {"note": 0, "velocity": 0, "duration": 74}, {"note": 78, "velocity": 85, "duration": 221}, {"note": 71, "velocity": 87, "duration": 196}, {"note": 74, "velocity": 89, "duration": 381}, {"note": 0, "velocity": 0, "duration": 99}, {"note": 76, "velocity": 89, "duration": 209}, {"note": 74, "velocity": 99, "duration": 208}, {"note": 71, "velocity": 89, "duration": 738}, {"note": 0, "velocity": 0, "duration": 222}, {"note": 83, "velocity": 87, "duration": 173}, {"note": 0, "velocity": 0, "duration": 67}, {"note": 83, "velocity": 85, "duration": 381}, {"note": 0, "velocity": 0, "duration": 99}, {"note": 85, "velocity": 87, "duration": 164}, {"note": 0, "velocity": 0, "duration": 76}, {"note": 83, "velocity": 87, "duration": 147}, {"note": 0, "velocity": 0, "duration": 93}, {"note": 78, "velocity": 87, "duration": 168}, {"note": 0, "velocity": 0, "duration": 72}, {"note": 81, "velocity": 85, "duration": 180}, {"note": 80, "velocity": 85, "duration": 209}, {"note": 78, "velocity": 92, "duration": 1699}, {"note": 0, "velocity": 0, "duration": 221}, {"note": 76, "velocity": 92, "duration": 596}, {"note": 0, "velocity": 0, "duration": 124}, {"note": 78, "velocity": 83, "duration": 181}, {"note": 83, "velocity": 85, "duration": 358}, {"note": 0, "velocity": 0, "duration": 122}, {"note": 83, "velocity": 86, "duration": 411}, {"note": 0, "velocity": 0, "duration": 69}, {"note": 78, "velocity": 83, "duration": 184}, {"note": 79, "velocity": 83, "duration": 158}, {"note": 0, "velocity": 0, "duration": 82}, {"note": 78, "velocity": 84, "duration": 199}, {"note": 76, "velocity": 84, "duration": 201}, {"note": 74, "velocity": 89, "duration": 730}, {"note": 0, "velocity": 0, "duration": 230}, {"note": 76, "velocity": 84, "duration": 147}, {"note": 0, "velocity": 0, "duration": 93}, {"note": 76, "velocity": 85, "duration": 155}, {"note": 0, "velocity": 0, "duration": 85}, {"note": 76, "velocity": 85, "duration": 161}, {"note": 0, "velocity": 0, "duration": 79}, {"note": 78, "velocity": 84, "duration": 194}, {"note": 69, "velocity": 85, "duration": 172}, {"note": 0, "velocity": 0, "duration": 68}, {"note": 71, "velocity": 83, "duration": 202}, {"note": 76, "velocity": 90, "duration": 184}, {"note": 73, "velocity": 79, "duration": 208}, {"note": 71, "velocity": 81, "duration": 1737}, {"note": 0, "velocity": 0, "duration": 183}, {"note": 78, "velocity": 85, "duration": 626}, {"note": 0, "velocity": 0, "duration": 94}, {"note": 78, "velocity": 84, "duration": 152}, {"note": 0, "velocity": 0, "duration": 88}, {"note": 78, "velocity": 85, "duration": 406}, {"note": 0, "velocity": 0, "duration": 74}, {"note": 78, "velocity": 85, "duration": 221}, {"note": 71, "velocity": 87, "duration": 196}, {"note": 74, "velocity": 89, "duration": 381}, {"note": 0, "velocity": 0, "duration": 99}, {"note": 76, "velocity": 89, "duration": 209}, {"note": 74, "velocity": 99, "duration": 208}, {"note": 71, "velocity": 89, "duration": 738}, {"note": 0, "velocity": 0, "duration": 222}, {"note": 83, "velocity": 87, "duration": 173}, {"note": 0, "velocity": 0, "duration": 67}, {"note": 83, "velocity": 85, "duration": 240}, {"note": 83, "velocity": 85, "duration": 240}, {"note": 85, "velocity": 87, "duration": 164}, {"note": 0, "velocity": 0, "duration": 76}, {"note": 83, "velocity": 87, "duration": 147}, {"note": 0, "velocity": 0, "duration": 93}, {"note": 78, "velocity": 87, "duration": 168}, {"note": 0, "velocity": 0, "duration": 72}, {"note": 81, "velocity": 85, "duration": 180}, {"note": 80, "velocity": 85, "duration": 209}, {"note": 78, "velocity": 92, "duration": 1699}, {"note": 0, "velocity": 0, "duration": 221}, {"note": 76, "velocity": 92, "duration": 596}, {"note": 0, "velocity": 0, "duration": 124}, {"note": 78, "velocity": 83, "duration": 181}, {"note": 83, "velocity": 85, "duration": 358}, {"note": 0, "velocity": 0, "duration": 122}, {"note": 83, "velocity": 86, "duration": 411}, {"note": 0, "velocity": 0, "duration": 69}, {"note": 78, "velocity": 83, "duration": 184}, {"note": 79, "velocity": 83, "duration": 158}, {"note": 0, "velocity": 0, "duration": 82}, {"note": 78, "velocity": 84, "duration": 199}, {"note": 76, "velocity": 84, "duration": 201}, {"note": 74, "velocity": 89, "duration": 730}, {"note": 0, "velocity": 0, "duration": 230}, {"note": 76, "velocity": 84, "duration": 147}, {"note": 0, "velocity": 0, "duration": 93}, {"note": 76, "velocity": 85, "duration": 155}, {"note": 0, "velocity": 0, "duration": 85}, {"note": 76, "velocity": 85, "duration": 161}, {"note": 0, "velocity": 0, "duration": 79}, {"note": 78, "velocity": 84, "duration": 194}, {"note": 69, "velocity": 85, "duration": 172}, {"note": 0, "velocity": 0, "duration": 68}, {"note": 71, "velocity": 83, "duration": 202}, {"note": 76, "velocity": 90, "duration": 184}, {"note": 73, "velocity": 79, "duration": 208}, {"note": 71, "velocity": 81, "duration": 1737}, {"note": 0, "velocity": 0, "duration": 15543}, {"note": 78, "velocity": 85, "duration": 626}, {"note": 0, "velocity": 0, "duration": 94}, {"note": 78, "velocity": 84, "duration": 152}, {"note": 0, "velocity": 0, "duration": 88}, {"note": 78, "velocity": 85, "duration": 406}, {"note": 0, "velocity": 0, "duration": 74}, {"note": 78, "velocity": 85, "duration": 221}, {"note": 71, "velocity": 87, "duration": 196}, {"note": 74, "velocity": 89, "duration": 381}, {"note": 0, "velocity": 0, "duration": 99}, {"note": 76, "velocity": 89, "duration": 209}, {"note": 74, "velocity": 99, "duration": 208}, {"note": 71, "velocity": 89, "duration": 738}, {"note": 0, "velocity": 0, "duration": 222}, {"note": 83, "velocity": 87, "duration": 173}, {"note": 0, "velocity": 0, "duration": 67}, {"note": 83, "velocity": 85, "duration": 381}, {"note": 0, "velocity": 0, "duration": 99}, {"note": 85, "velocity": 87, "duration": 164}, {"note": 0, "velocity": 0, "duration": 76}, {"note": 83, "velocity": 87, "duration": 147}, {"note": 0, "velocity": 0, "duration": 93}, {"note": 78, "velocity": 87, "duration": 168}, {"note": 0, "velocity": 0, "duration": 72}, {"note": 81, "velocity": 85, "duration": 180}, {"note": 80, "velocity": 85, "duration": 209}, {"note": 78, "velocity": 92, "duration": 1699}, {"note": 0, "velocity": 0, "duration": 221}, {"note": 76, "velocity": 92, "duration": 596}, {"note": 0, "velocity": 0, "duration": 124}, {"note": 78, "velocity": 83, "duration": 181}, {"note": 83, "velocity": 85, "duration": 358}, {"note": 0, "velocity": 0, "duration": 122}, {"note": 83, "velocity": 86, "duration": 411}, {"note": 0, "velocity": 0, "duration": 69}, {"note": 78, "velocity": 83, "duration": 184}, {"note": 79, "velocity": 83, "duration": 158}, {"note": 0, "velocity": 0, "duration": 82}, {"note": 78, "velocity": 84, "duration": 199}, {"note": 76, "velocity": 84, "duration": 201}, {"note": 74, "velocity": 89, "duration": 730}, {"note": 0, "velocity": 0, "duration": 230}, {"note": 76, "velocity": 84, "duration": 147}, {"note": 0, "velocity": 0, "duration": 93}, {"note": 76, "velocity": 85, "duration": 155}, {"note": 0, "velocity": 0, "duration": 85}, {"note": 76, "velocity": 85, "duration": 161}, {"note": 0, "velocity": 0, "duration": 79}, {"note": 78, "velocity": 84, "duration": 194}, {"note": 69, "velocity": 85, "duration": 172}, {"note": 0, "velocity": 0, "duration": 68}, {"note": 71, "velocity": 83, "duration": 202}, {"note": 76, "velocity": 90, "duration": 184}, {"note": 73, "velocity": 79, "duration": 208}, {"note": 71, "velocity": 81, "duration": 1737}, {"note": 0, "velocity": 0, "duration": 183}, {"note": 78, "velocity": 85, "duration": 626}, {"note": 0, "velocity": 0, "duration": 94}, {"note": 78, "velocity": 84, "duration": 152}, {"note": 0, "velocity": 0, "duration": 88}, {"note": 78, "velocity": 85, "duration": 406}, {"note": 0, "velocity": 0, "duration": 74}, {"note": 78, "velocity": 85, "duration": 221}, {"note": 71, "velocity": 87, "duration": 196}, {"note": 74, "velocity": 89, "duration": 381}, {"note": 0, "velocity": 0, "duration": 99}, {"note": 76, "velocity": 89, "duration": 209}, {"note": 74, "velocity": 99, "duration": 208}, {"note": 71, "velocity": 89, "duration": 738}, {"note": 0, "velocity": 0, "duration": 222}, {"note": 83, "velocity": 87, "duration": 173}, {"note": 0, "velocity": 0, "duration": 67}, {"note": 83, "velocity": 85, "duration": 240}, {"note": 83, "velocity": 85, "duration": 240}, {"note": 85, "velocity": 87, "duration": 164}, {"note": 0, "velocity": 0, "duration": 76}, {"note": 83, "velocity": 87, "duration": 147}, {"note": 0, "velocity": 0, "duration": 93}, {"note": 78, "velocity": 87, "duration": 168}, {"note": 0, "velocity": 0, "duration": 72}, {"note": 81, "velocity": 85, "duration": 180}, {"note": 80, "velocity": 85, "duration": 209}, {"note": 78, "velocity": 92, "duration": 1699}, {"note": 0, "velocity": 0, "duration": 221}, {"note": 76, "velocity": 92, "duration": 596}, {"note": 0, "velocity": 0, "duration": 124}, {"note": 78, "velocity": 83, "duration": 181}, {"note": 83, "velocity": 85, "duration": 358}, {"note": 0, "velocity": 0, "duration": 122}, {"note": 83, "velocity": 86, "duration": 411}, {"note": 0, "velocity": 0, "duration": 69}, {"note": 78, "velocity": 83, "duration": 184}, {"note": 79, "velocity": 83, "duration": 158}, {"note": 0, "velocity": 0, "duration": 82}, {"note": 78, "velocity": 84, "duration": 199}, {"note": 76, "velocity": 84, "duration": 201}, {"note": 74, "velocity": 89, "duration": 730}, {"note": 0, "velocity": 0, "duration": 230}, {"note": 76, "velocity": 84, "duration": 147}, {"note": 0, "velocity": 0, "duration": 93}, {"note": 76, "velocity": 85, "duration": 155}, {"note": 0, "velocity": 0, "duration": 85}, {"note": 76, "velocity": 85, "duration": 161}, {"note": 0, "velocity": 0, "duration": 79}, {"note": 78, "velocity": 84, "duration": 194}, {"note": 69, "velocity": 85, "duration": 172}, {"note": 0, "velocity": 0, "duration": 68}, {"note": 71, "velocity": 83, "duration": 202}, {"note": 76, "velocity": 90, "duration": 184}, {"note": 73, "velocity": 79, "duration": 208}, {"note": 71, "velocity": 81, "duration": 1737}, {"note": 0, "velocity": 0, "duration": 183}, {"note": 78, "velocity": 85, "duration": 626}, {"note": 0, "velocity": 0, "duration": 94}, {"note": 78, "velocity": 84, "duration": 152}, {"note": 0, "velocity": 0, "duration": 88}, {"note": 78, "velocity": 85, "duration": 406}, {"note": 0, "velocity": 0, "duration": 74}, {"note": 78, "velocity": 85, "duration": 221}, {"note": 71, "velocity": 87, "duration": 196}, {"note": 74, "velocity": 89, "duration": 381}, {"note": 0, "velocity": 0, "duration": 99}, {"note": 76, "velocity": 89, "duration": 209}, {"note": 74, "velocity": 99, "duration": 208}, {"note": 71, "velocity": 89, "duration": 738}, {"note": 0, "velocity": 0, "duration": 222}, {"note": 83, "velocity": 87, "duration": 173}, {"note": 0, "velocity": 0, "duration": 67}, {"note": 83, "velocity": 85, "duration": 381}, {"note": 0, "velocity": 0, "duration": 99}, {"note": 85, "velocity": 87, "duration": 164}, {"note": 0, "velocity": 0, "duration": 76}, {"note": 83, "velocity": 87, "duration": 147}, {"note": 0, "velocity": 0, "duration": 93}, {"note": 78, "velocity": 87, "duration": 168}, {"note": 0, "velocity": 0, "duration": 72}, {"note": 81, "velocity": 85, "duration": 180}, {"note": 80, "velocity": 85, "duration": 209}, {"note": 78, "velocity": 92, "duration": 1699}, {"note": 0, "velocity": 0, "duration": 221}, {"note": 76, "velocity": 92, "duration": 596}, {"note": 0, "velocity": 0, "duration": 124}, {"note": 78, "velocity": 83, "duration": 181}, {"note": 83, "velocity": 85, "duration": 358}, {"note": 0, "velocity": 0, "duration": 122}, {"note": 83, "velocity": 86, "duration": 411}, {"note": 0, "velocity": 0, "duration": 69}, {"note": 78, "velocity": 83, "duration": 184}, {"note": 79, "velocity": 83, "duration": 158}, {"note": 0, "velocity": 0, "duration": 82}, {"note": 78, "velocity": 84, "duration": 199}, {"note": 76, "velocity": 84, "duration": 201}, {"note": 74, "velocity": 89, "duration": 730}, {"note": 0, "velocity": 0, "duration": 230}, {"note": 76, "velocity": 84, "duration": 147}, {"note": 0, "velocity": 0, "duration": 93}, {"note": 76, "velocity": 85, "duration": 155}, {"note": 0, "velocity": 0, "duration": 85}, {"note": 76, "velocity": 85, "duration": 161}, {"note": 0, "velocity": 0, "duration": 79}, {"note": 78, "velocity": 84, "duration": 194}, {"note": 69, "velocity": 85, "duration": 172}, {"note": 0, "velocity": 0, "duration": 68}, {"note": 71, "velocity": 83, "duration": 202}, {"note": 76, "velocity": 90, "duration": 184}, {"note": 73, "velocity": 79, "duration": 208}, {"note": 71, "velocity": 81, "duration": 1737}, {"note": 0, "velocity": 0, "duration": 183}, {"note": 76, "velocity": 84, "duration": 147}, {"note": 0, "velocity": 0, "duration": 93}, {"note": 76, "velocity": 85, "duration": 155}, {"note": 0, "velocity": 0, "duration": 85}, {"note": 76, "velocity": 85, "duration": 161}, {"note": 0, "velocity": 0, "duration": 79}, {"note": 78, "velocity": 84, "duration": 194}, {"note": 69, "velocity": 85, "duration": 172}, {"note": 0, "velocity": 0, "duration": 68}, {"note": 71, "velocity": 83, "duration": 202}, {"note": 76, "velocity": 90, "duration": 184}, {"note": 73, "velocity": 79, "duration": 208}, {"note": 71, "velocity": 81, "duration": 1737}]]