[[{"note": 73, "velocity": 84, "duration": 190}, {"note": 73, "velocity": 89, "duration": 266}, {"note": 75, "velocity": 93, "duration": 276}, {"note": 77, "velocity": 89, "duration": 237}, {"note": 72, "velocity": 89, "duration": 184}, {"note": 72, "velocity": 88, "duration": 212}, {"note": 70, "velocity": 83, "duration": 182}, {"note": 68, "velocity": 84, "duration": 216}, {"note": 70, "velocity": 88, "duration": 1705}, {"note": 0, "velocity": 0, "duration": 215}, {"note": 73, "velocity": 88, "duration": 168}, {"note": 0, "velocity": 0, "duration": 72}, {"note": 73, "velocity": 90, "duration": 204}, {"note": 75, "velocity": 93, "duration": 190}, {"note": 77, "velocity": 89, "duration": 205}, {"note": 72, "velocity": 90, "duration": 258}, {"note": 70, "velocity": 88, "duration": 230}, {"note": 65, "velocity": 95, "duration": 218}, {"note": 72, "velocity": 87, "duration": 488}, {"note": 70, "velocity": 84, "duration": 1044}, {"note": 0, "velocity": 0, "duration": 396}, {"note": 68, "velocity": 88, "duration": 228}, {"note": 70, "velocity": 87, "duration": 625}, {"note": 0, "velocity": 0, "duration": 95}, {"note": 73, "velocity": 88, "duration": 214}, {"note": 75, "velocity": 89, "duration": 549}, {"note": 0, "velocity": 0, "duration": 171}, {"note": 68, "velocity": 86, "duration": 197}, {"note": 77, "velocity": 84, "duration": 408}, {"note": 0, "velocity": 0, "duration": 72}, {"note": 75, "velocity": 89, "duration": 156}, {"note": 0, "velocity": 0, "duration": 84}, {"note": 77, "velocity": 87, "duration": 197}, {"note": 73, "velocity": 88, "duration": 539}, {"note": 0, "velocity": 0, "duration": 421}, {"note": 70, "velocity": 89, "duration": 242}, {"note": 73, "velocity": 89, "duration": 182}, {"note": 73, "velocity": 86, "duration": 174}, {"note": 0, "velocity": 0, "duration": 66}, {"note": 73, "velocity": 88, "duration": 169}, {"note": 0, "velocity": 0, "duration": 71}, {"note": 73, "velocity": 91, "duration": 176}, {"note": 0, "velocity": 0, "duration": 64}, {"note": 70, "velocity": 90, "duration": 358}, {"note": 0, "velocity": 0, "duration": 122}, {"note": 73, "velocity": 90, "duration": 172}, {"note": 0, "velocity": 0, "duration": 68}, {"note": 75, "velocity": 89, "duration": 1757}, {"note": 0, "velocity": 0, "duration": 163}, {"note": 73, "velocity": 84, "duration": 190}, {"note": 73, "velocity": 89, "duration": 266}, {"note": 75, "velocity": 93, "duration": 276}, {"note": 77, "velocity": 89, "duration": 237}, {"note": 72, "velocity": 89, "duration": 184}, {"note": 72, "velocity": 88, "duration": 212}, {"note": 70, "velocity": 83, "duration": 182}, {"note": 68, "velocity": 84, "duration": 216}, {"note": 70, "velocity": 88, "duration": 1705}, {"note": 0, "velocity": 0, "duration": 215}, {"note": 73, "velocity": 88, "duration": 168}, {"note": 0, "velocity": 0, "duration": 72}, {"note": 73, "velocity": 90, "duration": 204}, {"note": 75, "velocity": 93, "duration": 190}, {"note": 77, "velocity": 89, "duration": 205}, {"note": 72, "velocity": 90, "duration": 258}, {"note": 70, "velocity": 88, "duration": 230}, {"note": 65, "velocity": 95, "duration": 218}, {"note": 72, "velocity": 87, "duration": 488}, {"note": 70, "velocity": 84, "duration": 1044}, {"note": 0, "velocity": 0, "duration": 396}, {"note": 68, "velocity": 88, "duration": 228}, {"note": 70, "velocity": 87, "duration": 625}, {"note": 0, "velocity": 0, "duration": 95}, {"note": 73, "velocity": 88, "duration": 214}, {"note": 75, "velocity": 89, "duration": 549}, {"note": 0, "velocity": 0, "duration": 171}, {"note": 68, "velocity": 86, "duration": 197}, {"note": 77, "velocity": 84, "duration": 205}, {"note": 77, "velocity": 84, "duration": 205}, {"note": 75, "velocity": 89, "duration": 156}, {"note": 0, "velocity": 0, "duration": 84}, {"note": 77, "velocity": 87, "duration": 197}, {"note": 73, "velocity": 88, "duration": 539}, {"note": 0, "velocity": 0, "duration": 421}, {"note": 70, "velocity": 89, "duration": 242}, {"note": 73, "velocity": 89, "duration": 182}, {"note": 75, "velocity": 86, "duration": 174}, {"note": 0, "velocity": 0, "duration": 66}, {"note": 77, "velocity": 88, "duration": 169}, {"note": 0, "velocity": 0, "duration": 71}, {"note": 75, "velocity": 91, "duration": 176}, {"note": 0, "velocity": 0, "duration": 64}, {"note": 73, "velocity": 88, "duration": 190}, {"note": 75, "velocity": 95, "duration": 220}, {"note": 77, "velocity": 84, "duration": 193}, {"note": 80, "velocity": 90, "duration": 2631}, {"note": 0, "velocity": 0, "duration": 1209}, {"note": 77, "velocity": 89, "duration": 270}, {"note": 80, "velocity": 88, "duration": 236}, {"note": 77, "velocity": 89, "duration": 274}, {"note": 75, "velocity": 97, "duration": 250}, {"note": 73, "velocity": 92, "duration": 850}, {"note": 0, "velocity": 0, "duration": 110}, {"note": 75, "velocity": 89, "duration": 260}, {"note": 77, "velocity": 89, "duration": 240}, {"note": 72, "velocity": 89, "duration": 254}, {"note": 70, "velocity": 87, "duration": 248}, {"note": 68, "velocity": 89, "duration": 691}, {"note": 0, "velocity": 0, "duration": 269}, {"note": 73, "velocity": 90, "duration": 193}, {"note": 75, "velocity": 99, "duration": 437}, {"note": 77, "velocity": 92, "duration": 220}, {"note": 80, "velocity": 89, "duration": 834}, {"note": 0, "velocity": 0, "duration": 126}, {"note": 82, "velocity": 94, "duration": 452}, {"note": 77, "velocity": 90, "duration": 228}, {"note": 73, "velocity": 91, "duration": 235}, {"note": 75, "velocity": 92, "duration": 917}, {"note": 75, "velocity": 97, "duration": 160}, {"note": 0, "velocity": 0, "duration": 80}, {"note": 75, "velocity": 92, "duration": 466}, {"note": 73, "velocity": 87, "duration": 200}, {"note": 75, "velocity": 95, "duration": 529}, {"note": 0, "velocity": 0, "duration": 191}, {"note": 77, "velocity": 92, "duration": 194}, {"note": 80, "velocity": 90, "duration": 190}, {"note": 82, "velocity": 88, "duration": 174}, {"note": 0, "velocity": 0, "duration": 66}, {"note": 80, "velocity": 91, "duration": 215}, {"note": 77, "velocity": 89, "duration": 238}, {"note": 80, "velocity": 91, "duration": 351}, {"note": 0, "velocity": 0, "duration": 129}, {"note": 77, "velocity": 89, "duration": 263}, {"note": 80, "velocity": 90, "duration": 248}, {"note": 82, "velocity": 89, "duration": 175}, {"note": 0, "velocity": 0, "duration": 65}, {"note": 82, "velocity": 90, "duration": 153}, {"note": 0, "velocity": 0, "duration": 87}, {"note": 82, "velocity": 92, "duration": 238}, {"note": 82, "velocity": 92, "duration": 238}, {"note": 80, "velocity": 90, "duration": 422}, {"note": 80, "velocity": 88, "duration": 228}, {"note": 77, "velocity": 89, "duration": 262}, {"note": 80, "velocity": 89, "duration": 1823}, {"note": 0, "velocity": 0, "duration": 97}, {"note": 77, "velocity": 89, "duration": 270}, {"note": 80, "velocity": 88, "duration": 236}, {"note": 77, "velocity": 89, "duration": 274}, {"note": 75, "velocity": 97, "duration": 250}, {"note": 73, "velocity": 92, "duration": 850}, {"note": 0, "velocity": 0, "duration": 110}, {"note": 75, "velocity": 89, "duration": 260}, {"note": 77, "velocity": 89, "duration": 240}, {"note": 72, "velocity": 89, "duration": 254}, {"note": 70, "velocity": 87, "duration": 248}, {"note": 68, "velocity": 89, "duration": 691}, {"note": 0, "velocity": 0, "duration": 269}, {"note": 73, "velocity": 90, "duration": 193}, {"note": 75, "velocity": 99, "duration": 437}, {"note": 77, "velocity": 92, "duration": 220}, {"note": 80, "velocity": 89, "duration": 834}, {"note": 0, "velocity": 0, "duration": 126}, {"note": 82, "velocity": 94, "duration": 452}, {"note": 77, "velocity": 90, "duration": 228}, {"note": 73, "velocity": 91, "duration": 235}, {"note": 75, "velocity": 92, "duration": 917}, {"note": 75, "velocity": 97, "duration": 160}, {"note": 0, "velocity": 0, "duration": 80}, {"note": 75, "velocity": 92, "duration": 466}, {"note": 73, "velocity": 87, "duration": 200}, {"note": 75, "velocity": 95, "duration": 529}, {"note": 0, "velocity": 0, "duration": 191}, {"note": 77, "velocity": 92, "duration": 194}, {"note": 80, "velocity": 90, "duration": 190}, {"note": 82, "velocity": 88, "duration": 174}, {"note": 0, "velocity": 0, "duration": 66}, {"note": 80, "velocity": 91, "duration": 215}, {"note": 77, "velocity": 89, "duration": 238}, {"note": 80, "velocity": 91, "duration": 351}, {"note": 0, "velocity": 0, "duration": 129}, {"note": 77, "velocity": 89, "duration": 263}, {"note": 80, "velocity": 90, "duration": 248}, {"note": 82, "velocity": 89, "duration": 175}, {"note": 0, "velocity": 0, "duration": 65}, {"note": 82, "velocity": 90, "duration": 153}, {"note": 0, "velocity": 0, "duration": 87}, {"note": 82, "velocity": 92, "duration": 238}, {"note": 77, "velocity": 92, "duration": 238}, {"note": 75, "velocity": 90, "duration": 238}, {"note": 77, "velocity": 88, "duration": 478}, {"note": 75, "velocity": 89, "duration": 262}, {"note": 73, "velocity": 89, "duration": 1823}, {"note": 0, "velocity": 0, "duration": 15457}, {"note": 73, "velocity": 84, "duration": 190}, {"note": 73, "velocity": 89, "duration": 266}, {"note": 75, "velocity": 93, "duration": 276}, {"note": 77, "velocity": 89, "duration": 237}, {"note": 72, "velocity": 89, "duration": 184}, {"note": 72, "velocity": 88, "duration": 212}, {"note": 70, "velocity": 83, "duration": 182}, {"note": 68, "velocity": 84, "duration": 216}, {"note": 70, "velocity": 88, "duration": 1705}, {"note": 0, "velocity": 0, "duration": 215}, {"note": 73, "velocity": 88, "duration": 168}, {"note": 0, "velocity": 0, "duration": 72}, {"note": 73, "velocity": 90, "duration": 204}, {"note": 75, "velocity": 93, "duration": 190}, {"note": 77, "velocity": 89, "duration": 205}, {"note": 72, "velocity": 90, "duration": 258}, {"note": 70, "velocity": 88, "duration": 230}, {"note": 65, "velocity": 95, "duration": 218}, {"note": 72, "velocity": 87, "duration": 488}, {"note": 70, "velocity": 84, "duration": 1044}, {"note": 0, "velocity": 0, "duration": 396}, {"note": 68, "velocity": 88, "duration": 228}, {"note": 70, "velocity": 87, "duration": 625}, {"note": 0, "velocity": 0, "duration": 95}, {"note": 73, "velocity": 88, "duration": 214}, {"note": 75, "velocity": 89, "duration": 549}, {"note": 0, "velocity": 0, "duration": 171}, {"note": 68, "velocity": 86, "duration": 197}, {"note": 77, "velocity": 84, "duration": 205}, {"note": 77, "velocity": 84, "duration": 205}, {"note": 75, "velocity": 89, "duration": 156}, {"note": 0, "velocity": 0, "duration": 84}, {"note": 77, "velocity": 87, "duration": 197}, {"note": 73, "velocity": 88, "duration": 539}, {"note": 0, "velocity": 0, "duration": 421}, {"note": 70, "velocity": 89, "duration": 242}, {"note": 73, "velocity": 89, "duration": 182}, {"note": 75, "velocity": 86, "duration": 174}, {"note": 0, "velocity": 0, "duration": 66}, {"note": 77, "velocity": 88, "duration": 169}, {"note": 0, "velocity": 0, "duration": 71}, {"note": 75, "velocity": 91, "duration": 176}, {"note": 0, "velocity": 0, "duration": 64}, {"note": 73, "velocity": 88, "duration": 190}, {"note": 75, "velocity": 95, "duration": 220}, {"note": 77, "velocity": 84, "duration": 193}, {"note": 80, "velocity": 90, "duration": 2631}, {"note": 0, "velocity": 0, "duration": 1209}, {"note": 77, "velocity": 89, "duration": 270}, {"note": 80, "velocity": 88, "duration": 236}, {"note": 77, "velocity": 89, "duration": 274}, {"note": 75, "velocity": 97, "duration": 250}, {"note": 73, "velocity": 92, "duration": 850}, {"note": 0, "velocity": 0, "duration": 110}, {"note": 75, "velocity": 89, "duration": 260}, {"note": 77, "velocity": 89, "duration": 240}, {"note": 72, "velocity": 89, "duration": 254}, {"note": 70, "velocity": 87, "duration": 248}, {"note": 68, "velocity": 89, "duration": 691}, {"note": 0, "velocity": 0, "duration": 269}, {"note": 73, "velocity": 90, "duration": 193}, {"note": 75, "velocity": 99, "duration": 437}, {"note": 77, "velocity": 92, "duration": 220}, {"note": 80, "velocity": 89, "duration": 834}, {"note": 0, "velocity": 0, "duration": 126}, {"note": 82, "velocity": 94, "duration": 452}, {"note": 77, "velocity": 90, "duration": 228}, {"note": 73, "velocity": 91, "duration": 235}, {"note": 75, "velocity": 92, "duration": 917}, {"note": 75, "velocity": 97, "duration": 160}, {"note": 0, "velocity": 0, "duration": 80}, {"note": 75, "velocity": 92, "duration": 466}, {"note": 73, "velocity": 87, "duration": 200}, {"note": 75, "velocity": 95, "duration": 529}, {"note": 0, "velocity": 0, "duration": 191}, {"note": 77, "velocity": 92, "duration": 194}, {"note": 80, "velocity": 90, "duration": 190}, {"note": 82, "velocity": 88, "duration": 174}, {"note": 0, "velocity": 0, "duration": 66}, {"note": 80, "velocity": 91, "duration": 215}, {"note": 77, "velocity": 89, "duration": 238}, {"note": 80, "velocity": 91, "duration": 351}, {"note": 0, "velocity": 0, "duration": 129}, {"note": 77, "velocity": 89, "duration": 263}, {"note": 80, "velocity": 90, "duration": 248}, {"note": 82, "velocity": 89, "duration": 175}, {"note": 0, "velocity": 0, "duration": 65}, {"note": 82, "velocity": 90, "duration": 153}, {"note": 0, "velocity": 0, "duration": 87}, {"note": 82, "velocity": 92, "duration": 238}, {"note": 82, "velocity": 92, "duration": 238}, {"note": 80, "velocity": 90, "duration": 422}, {"note": 80, "velocity": 88, "duration": 228}, {"note": 77, "velocity": 89, "duration": 262}, {"note": 80, "velocity": 89, "duration": 1823}, {"note": 0, "velocity": 0, "duration": 97}, {"note": 77, "velocity": 89, "duration": 270}, {"note": 80, "velocity": 88, "duration": 236}, {"note": 77, "velocity": 89, "duration": 274}, {"note": 75, "velocity": 97, "duration": 250}, {"note": 73, "velocity": 92, "duration": 850}, {"note": 0, "velocity": 0, "duration": 110}, {"note": 75, "velocity": 89, "duration": 260}, {"note": 77, "velocity": 89, "duration": 240}, {"note": 72, "velocity": 89, "duration": 254}, {"note": 70, "velocity": 87, "duration": 248}, {"note": 68, "velocity": 89, "duration": 691}, {"note": 0, "velocity": 0, "duration": 269}, {"note": 73, "velocity": 90, "duration": 193}, {"note": 75, "velocity": 99, "duration": 437}, {"note": 77, "velocity": 92, "duration": 220}, {"note": 80, "velocity": 89, "duration": 834}, {"note": 0, "velocity": 0, "duration": 126}, {"note": 82, "velocity": 94, "duration": 452}, {"note": 77, "velocity": 90, "duration": 228}, {"note": 73, "velocity": 91, "duration": 235}, {"note": 75, "velocity": 92, "duration": 917}, {"note": 75, "velocity": 97, "duration": 160}, {"note": 0, "velocity": 0, "duration": 80}, {"note": 75, "velocity": 92, "duration": 466}, {"note": 73, "velocity": 87, "duration": 200}, {"note": 75, "velocity": 95, "duration": 529}, {"note": 0, "velocity": 0, "duration": 191}, {"note": 77, "velocity": 92, "duration": 194}, {"note": 80, "velocity": 90, "duration": 190}, {"note": 82, "velocity": 88, "duration": 174}, {"note": 0, "velocity": 0, "duration": 66}, {"note": 80, "velocity": 91, "duration": 215}, {"note": 77, "velocity": 89, "duration": 238}, {"note": 80, "velocity": 91, "duration": 351}, {"note": 0, "velocity": 0, "duration": 129}, {"note": 77, "velocity": 89, "duration": 263}, {"note": 80, "velocity": 90, "duration": 248}, {"note": 82, "velocity": 89, "duration": 175}, {"note": 0, "velocity": 0, "duration": 65}, {"note": 82, "velocity": 90, "duration": 153}, {"note": 0, "velocity": 0, "duration": 87}, {"note": 82, "velocity": 92, "duration": 238}, {"note": 77, "velocity": 92, "duration": 238}, {"note": 75, "velocity": 90, "duration": 238}, {"note": 77, "velocity": 88, "duration": 478}, {"note": 75, "velocity": 89, "duration": 262}, {"note": 73, "velocity": 89, "duration": 1823}, {"note": 0, "velocity": 0, "duration": 97}, {"note": 77, "velocity": 89, "duration": 270}, {"note": 80, "velocity": 88, "duration": 236}, {"note": 77, "velocity": 89, "duration": 274}, {"note": 75, "velocity": 97, "duration": 250}, {"note": 73, "velocity": 92, "duration": 850}, {"note": 0, "velocity": 0, "duration": 110}, {"note": 75, "velocity": 89, "duration": 260}, {"note": 77, "velocity": 89, "duration": 240}, {"note": 72, "velocity": 89, "duration": 254}, {"note": 70, "velocity": 87, "duration": 248}, {"note": 68, "velocity": 89, "duration": 691}, {"note": 0, "velocity": 0, "duration": 269}, {"note": 73, "velocity": 90, "duration": 193}, {"note": 75, "velocity": 99, "duration": 437}, {"note": 77, "velocity": 92, "duration": 220}, {"note": 80, "velocity": 89, "duration": 834}, {"note": 0, "velocity": 0, "duration": 126}, {"note": 82, "velocity": 94, "duration": 452}, {"note": 77, "velocity": 90, "duration": 228}, {"note": 73, "velocity": 91, "duration": 235}, {"note": 75, "velocity": 92, "duration": 917}, {"note": 75, "velocity": 97, "duration": 160}, {"note": 0, "velocity": 0, "duration": 80}, {"note": 75, "velocity": 92, "duration": 466}, {"note": 73, "velocity": 87, "duration": 200}, {"note": 75, "velocity": 95, "duration": 529}, {"note": 0, "velocity": 0, "duration": 191}, {"note": 77, "velocity": 92, "duration": 194}, {"note": 80, "velocity": 90, "duration": 190}, {"note": 82, "velocity": 88, "duration": 174}, {"note": 0, "velocity": 0, "duration": 66}, {"note": 80, "velocity": 91, "duration": 215}, {"note": 77, "velocity": 89, "duration": 238}, {"note": 80, "velocity": 91, "duration": 351}, {"note": 0, "velocity": 0, "duration": 129}, {"note": 77, "velocity": 89, "duration": 263}, {"note": 80, "velocity": 90, "duration": 248}, {"note": 82, "velocity": 89, "duration": 175}, {"note": 0, "velocity": 0, "duration": 65}, {"note": 82, "velocity": 90, "duration": 153}, {"note": 0, "velocity": 0, "duration": 87}, {"note": 82, "velocity": 92, "duration": 238}, {"note": 82, "velocity": 92, "duration": 238}, {"note": 80, "velocity": 90, "duration": 422}, {"note": 80, "velocity": 88, "duration": 228}, {"note": 77, "velocity": 89, "duration": 262}, {"note": 80, "velocity": 89, "duration": 1823}, {"note": 0, "velocity": 0, "duration": 97}, {"note": 77, "velocity": 89, "duration": 270}, {"note": 80, "velocity": 88, "duration": 236}, {"note": 77, "velocity": 89, "duration": 274}, {"note": 75, "velocity": 97, "duration": 250}, {"note": 73, "velocity": 92, "duration": 850}, {"note": 0, "velocity": 0, "duration": 110}, {"note": 75, "velocity": 89, "duration": 260}, {"note": 77, "velocity": 89, "duration": 240}, {"note": 72, "velocity": 89, "duration": 254}, {"note": 70, "velocity": 87, "duration": 248}, {"note": 68, "velocity": 89, "duration": 691}, {"note": 0, "velocity": 0, "duration": 269}, {"note": 73, "velocity": 90, "duration": 193}, {"note": 75, "velocity": 99, "duration": 437}, {"note": 77, "velocity": 92, "duration": 220}, {"note": 80, "velocity": 89, "duration": 834}, {"note": 0, "velocity": 0, "duration": 126}, {"note": 82, "velocity": 94, "duration": 452}, {"note": 77, "velocity": 90, "duration": 228}, {"note": 73, "velocity": 91, "duration": 235}, {"note": 75, "velocity": 92, "duration": 917}, {"note": 75, "velocity": 97, "duration": 160}, {"note": 0, "velocity": 0, "duration": 80}, {"note": 75, "velocity": 92, "duration": 466}, {"note": 73, "velocity": 87, "duration": 200}, {"note": 75, "velocity": 95, "duration": 529}, {"note": 0, "velocity": 0, "duration": 191}, {"note": 77, "velocity": 92, "duration": 194}, {"note": 80, "velocity": 90, "duration": 190}, {"note": 82, "velocity": 88, "duration": 174}, {"note": 0, "velocity": 0, "duration": 66}, {"note": 80, "velocity": 91, "duration": 215}, {"note": 77, "velocity": 89, "duration": 238}, {"note": 80, "velocity": 91, "duration": 351}, {"note": 0, "velocity": 0, "duration": 129}, {"note": 77, "velocity": 89, "duration": 263}, {"note": 80, "velocity": 90, "duration": 248}, {"note": 82, "velocity": 89, "duration": 175}, {"note": 0, "velocity": 0, "duration": 65}, {"note": 82, "velocity": 90, "duration": 153}, {"note": 0, "velocity": 0, "duration": 87}, {"note": 82, "velocity": 92, "duration": 238}, {"note": 77, "velocity": 92, "duration": 238}, {"note": 75, "velocity": 90, "duration": 238}, {"note": 77, "velocity": 88, "duration": 478}, {"note": 75, "velocity": 89, "duration": 262}, {"note": 73, "velocity": 89, "duration": 1198}, {"note": 0, "velocity": 0, "duration": 242}, {"note": 77, "velocity": 89, "duration": 263}, {"note": 80, "velocity": 90, "duration": 248}, {"note": 82, "velocity": 89, "duration": 175}, {"note": 0, "velocity": 0, "duration": 65}, {"note": 82, "velocity": 90, "duration": 153}, {"note": 0, "velocity": 0, "duration": 87}, {"note": 82, "velocity": 92, "duration": 238}, {"note": 77, "velocity": 92, "duration": 238}, {"note": 75, "velocity": 90, "duration": 238}, {"note": 77, "velocity": 88, "duration": 478}, {"note": 75, "velocity": 89, "duration": 262}, {"note": 73, "velocity": 89, "duration": 1823}]]