[[{"note": 66, "velocity": 84, "duration": 204}, {"note": 68, "velocity": 84, "duration": 193}, {"note": 69, "velocity": 81, "duration": 221}, {"note": 68, "velocity": 84, "duration": 115}, {"note": 66, "velocity": 82, "duration": 863}, {"note": 0, "velocity": 0, "duration": 217}, {"note": 66, "velocity": 84, "duration": 204}, {"note": 68, "velocity": 84, "duration": 193}, {"note": 69, "velocity": 81, "duration": 221}, {"note": 68, "velocity": 84, "duration": 115}, {"note": 66, "velocity": 82, "duration": 863}, {"note": 0, "velocity": 0, "duration": 217}, {"note": 64, "velocity": 85, "duration": 194}, {"note": 66, "velocity": 83, "duration": 87}, {"note": 68, "velocity": 83, "duration": 341}, {"note": 66, "velocity": 84, "duration": 197}, {"note": 68, "velocity": 87, "duration": 233}, {"note": 66, "velocity": 84, "duration": 105}, {"note": 64, "velocity": 87, "duration": 314}, {"note": 74, "velocity": 88, "duration": 220}, {"note": 73, "velocity": 94, "duration": 187}, {"note": 73, "velocity": 85, "duration": 240}, {"note": 73, "velocity": 99, "duration": 223}, {"note": 71, "velocity": 85, "duration": 207}, {"note": 73, "velocity": 87, "duration": 804}, {"note": 0, "velocity": 0, "duration": 156}, {"note": 71, "velocity": 90, "duration": 186}, {"note": 73, "velocity": 87, "duration": 205}, {"note": 74, "velocity": 89, "duration": 220}, {"note": 73, "velocity": 89, "duration": 175}, {"note": 0, "velocity": 0, "duration": 65}, {"note": 74, "velocity": 85, "duration": 212}, {"note": 73, "velocity": 89, "duration": 105}, {"note": 71, "velocity": 84, "duration": 289}, {"note": 0, "velocity": 0, "duration": 71}, {"note": 69, "velocity": 82, "duration": 100}, {"note": 71, "velocity": 85, "duration": 83}, {"note": 73, "velocity": 87, "duration": 201}, {"note": 76, "velocity": 83, "duration": 85}, {"note": 73, "velocity": 90, "duration": 318}, {"note": 71, "velocity": 84, "duration": 190}, {"note": 71, "velocity": 85, "duration": 197}, {"note": 73, "velocity": 86, "duration": 78}, {"note": 69, "velocity": 79, "duration": 528}, {"note": 0, "velocity": 0, "duration": 72}, {"note": 71, "velocity": 85, "duration": 692}, {"note": 69, "velocity": 86, "duration": 122}, {"note": 71, "velocity": 84, "duration": 827}, {"note": 66, "velocity": 84, "duration": 177}, {"note": 0, "velocity": 0, "duration": 63}, {"note": 68, "velocity": 84, "duration": 1270}, {"note": 0, "velocity": 0, "duration": 170}, {"note": 69, "velocity": 87, "duration": 236}, {"note": 68, "velocity": 83, "duration": 243}, {"note": 66, "velocity": 79, "duration": 485}, {"note": 73, "velocity": 90, "duration": 447}, {"note": 71, "velocity": 87, "duration": 200}, {"note": 73, "velocity": 88, "duration": 115}, {"note": 76, "velocity": 86, "duration": 334}, {"note": 73, "velocity": 85, "duration": 243}, {"note": 71, "velocity": 78, "duration": 367}, {"note": 0, "velocity": 0, "duration": 113}, {"note": 73, "velocity": 90, "duration": 457}, {"note": 71, "velocity": 89, "duration": 185}, {"note": 73, "velocity": 90, "duration": 104}, {"note": 76, "velocity": 84, "duration": 328}, {"note": 78, "velocity": 87, "duration": 241}, {"note": 71, "velocity": 84, "duration": 458}, {"note": 71, "velocity": 85, "duration": 394}, {"note": 0, "velocity": 0, "duration": 86}, {"note": 71, "velocity": 87, "duration": 177}, {"note": 0, "velocity": 0, "duration": 63}, {"note": 73, "velocity": 89, "duration": 77}, {"note": 76, "velocity": 85, "duration": 209}, {"note": 73, "velocity": 90, "duration": 201}, {"note": 71, "velocity": 87, "duration": 90}, {"note": 73, "velocity": 88, "duration": 1254}, {"note": 0, "velocity": 0, "duration": 186}, {"note": 71, "velocity": 87, "duration": 192}, {"note": 73, "velocity": 90, "duration": 185}, {"note": 74, "velocity": 85, "duration": 412}, {"note": 0, "velocity": 0, "duration": 68}, {"note": 74, "velocity": 92, "duration": 363}, {"note": 0, "velocity": 0, "duration": 117}, {"note": 74, "velocity": 88, "duration": 185}, {"note": 76, "velocity": 85, "duration": 83}, {"note": 78, "velocity": 84, "duration": 305}, {"note": 76, "velocity": 88, "duration": 100}, {"note": 74, "velocity": 87, "duration": 80}, {"note": 73, "velocity": 97, "duration": 382}, {"note": 0, "velocity": 0, "duration": 98}, {"note": 73, "velocity": 97, "duration": 393}, {"note": 0, "velocity": 0, "duration": 87}, {"note": 73, "velocity": 97, "duration": 186}, {"note": 74, "velocity": 85, "duration": 130}, {"note": 73, "velocity": 94, "duration": 238}, {"note": 71, "velocity": 87, "duration": 211}, {"note": 69, "velocity": 92, "duration": 85}, {"note": 71, "velocity": 87, "duration": 240}, {"note": 71, "velocity": 87, "duration": 480}, {"note": 0, "velocity": 0, "duration": 240}, {"note": 71, "velocity": 84, "duration": 197}, {"note": 69, "velocity": 94, "duration": 93}, {"note": 71, "velocity": 87, "duration": 194}, {"note": 69, "velocity": 87, "duration": 240}, {"note": 68, "velocity": 85, "duration": 126}, {"note": 66, "velocity": 81, "duration": 1394}, {"note": 0, "velocity": 0, "duration": 526}, {"note": 66, "velocity": 84, "duration": 204}, {"note": 68, "velocity": 84, "duration": 193}, {"note": 69, "velocity": 81, "duration": 221}, {"note": 68, "velocity": 84, "duration": 115}, {"note": 66, "velocity": 82, "duration": 863}, {"note": 0, "velocity": 0, "duration": 217}, {"note": 66, "velocity": 84, "duration": 204}, {"note": 68, "velocity": 84, "duration": 193}, {"note": 69, "velocity": 81, "duration": 221}, {"note": 68, "velocity": 84, "duration": 115}, {"note": 66, "velocity": 82, "duration": 863}, {"note": 0, "velocity": 0, "duration": 217}, {"note": 64, "velocity": 85, "duration": 194}, {"note": 66, "velocity": 83, "duration": 87}, {"note": 68, "velocity": 83, "duration": 341}, {"note": 66, "velocity": 84, "duration": 197}, {"note": 68, "velocity": 87, "duration": 233}, {"note": 66, "velocity": 84, "duration": 105}, {"note": 64, "velocity": 87, "duration": 314}, {"note": 74, "velocity": 88, "duration": 220}, {"note": 73, "velocity": 94, "duration": 187}, {"note": 73, "velocity": 85, "duration": 240}, {"note": 73, "velocity": 99, "duration": 223}, {"note": 71, "velocity": 85, "duration": 207}, {"note": 73, "velocity": 87, "duration": 804}, {"note": 0, "velocity": 0, "duration": 156}, {"note": 71, "velocity": 90, "duration": 186}, {"note": 73, "velocity": 87, "duration": 205}, {"note": 74, "velocity": 89, "duration": 220}, {"note": 73, "velocity": 89, "duration": 175}, {"note": 0, "velocity": 0, "duration": 65}, {"note": 74, "velocity": 85, "duration": 212}, {"note": 73, "velocity": 89, "duration": 105}, {"note": 71, "velocity": 84, "duration": 289}, {"note": 0, "velocity": 0, "duration": 71}, {"note": 69, "velocity": 82, "duration": 100}, {"note": 71, "velocity": 85, "duration": 83}, {"note": 73, "velocity": 87, "duration": 201}, {"note": 76, "velocity": 83, "duration": 85}, {"note": 73, "velocity": 90, "duration": 318}, {"note": 71, "velocity": 84, "duration": 190}, {"note": 71, "velocity": 85, "duration": 197}, {"note": 73, "velocity": 86, "duration": 78}, {"note": 69, "velocity": 79, "duration": 528}, {"note": 0, "velocity": 0, "duration": 72}, {"note": 71, "velocity": 85, "duration": 692}, {"note": 69, "velocity": 86, "duration": 122}, {"note": 71, "velocity": 84, "duration": 827}, {"note": 66, "velocity": 84, "duration": 177}, {"note": 0, "velocity": 0, "duration": 63}, {"note": 68, "velocity": 84, "duration": 1270}, {"note": 0, "velocity": 0, "duration": 170}, {"note": 69, "velocity": 87, "duration": 236}, {"note": 68, "velocity": 83, "duration": 243}, {"note": 66, "velocity": 79, "duration": 485}, {"note": 73, "velocity": 90, "duration": 447}, {"note": 71, "velocity": 87, "duration": 200}, {"note": 73, "velocity": 88, "duration": 115}, {"note": 76, "velocity": 86, "duration": 334}, {"note": 73, "velocity": 85, "duration": 243}, {"note": 71, "velocity": 78, "duration": 367}, {"note": 0, "velocity": 0, "duration": 113}, {"note": 73, "velocity": 90, "duration": 457}, {"note": 71, "velocity": 89, "duration": 185}, {"note": 73, "velocity": 90, "duration": 104}, {"note": 76, "velocity": 84, "duration": 328}, {"note": 78, "velocity": 87, "duration": 241}, {"note": 71, "velocity": 84, "duration": 458}, {"note": 71, "velocity": 85, "duration": 394}, {"note": 0, "velocity": 0, "duration": 86}, {"note": 71, "velocity": 87, "duration": 177}, {"note": 0, "velocity": 0, "duration": 63}, {"note": 73, "velocity": 89, "duration": 77}, {"note": 76, "velocity": 85, "duration": 209}, {"note": 73, "velocity": 90, "duration": 201}, {"note": 71, "velocity": 87, "duration": 90}, {"note": 73, "velocity": 88, "duration": 1254}, {"note": 0, "velocity": 0, "duration": 186}, {"note": 71, "velocity": 87, "duration": 192}, {"note": 73, "velocity": 90, "duration": 185}, {"note": 74, "velocity": 85, "duration": 412}, {"note": 0, "velocity": 0, "duration": 68}, {"note": 74, "velocity": 92, "duration": 363}, {"note": 0, "velocity": 0, "duration": 117}, {"note": 74, "velocity": 88, "duration": 185}, {"note": 76, "velocity": 85, "duration": 83}, {"note": 78, "velocity": 84, "duration": 305}, {"note": 76, "velocity": 88, "duration": 100}, {"note": 74, "velocity": 87, "duration": 80}, {"note": 73, "velocity": 97, "duration": 382}, {"note": 0, "velocity": 0, "duration": 98}, {"note": 73, "velocity": 97, "duration": 393}, {"note": 0, "velocity": 0, "duration": 87}, {"note": 73, "velocity": 97, "duration": 186}, {"note": 74, "velocity": 85, "duration": 130}, {"note": 73, "velocity": 94, "duration": 238}, {"note": 71, "velocity": 87, "duration": 211}, {"note": 69, "velocity": 92, "duration": 85}, {"note": 71, "velocity": 87, "duration": 240}, {"note": 71, "velocity": 87, "duration": 480}, {"note": 0, "velocity": 0, "duration": 240}, {"note": 71, "velocity": 84, "duration": 197}, {"note": 69, "velocity": 94, "duration": 93}, {"note": 71, "velocity": 87, "duration": 194}, {"note": 69, "velocity": 87, "duration": 240}, {"note": 68, "velocity": 85, "duration": 126}, {"note": 66, "velocity": 81, "duration": 1394}, {"note": 0, "velocity": 0, "duration": 5806}, {"note": 69, "velocity": 87, "duration": 236}, {"note": 68, "velocity": 83, "duration": 243}, {"note": 66, "velocity": 79, "duration": 485}, {"note": 73, "velocity": 90, "duration": 447}, {"note": 71, "velocity": 87, "duration": 200}, {"note": 73, "velocity": 88, "duration": 115}, {"note": 76, "velocity": 86, "duration": 334}, {"note": 73, "velocity": 85, "duration": 243}, {"note": 71, "velocity": 78, "duration": 367}, {"note": 0, "velocity": 0, "duration": 113}, {"note": 73, "velocity": 90, "duration": 457}, {"note": 71, "velocity": 89, "duration": 185}, {"note": 73, "velocity": 90, "duration": 104}, {"note": 76, "velocity": 84, "duration": 328}, {"note": 78, "velocity": 87, "duration": 241}, {"note": 71, "velocity": 84, "duration": 458}, {"note": 71, "velocity": 85, "duration": 394}, {"note": 0, "velocity": 0, "duration": 86}, {"note": 71, "velocity": 87, "duration": 177}, {"note": 0, "velocity": 0, "duration": 63}, {"note": 73, "velocity": 89, "duration": 77}, {"note": 76, "velocity": 85, "duration": 209}, {"note": 73, "velocity": 90, "duration": 201}, {"note": 71, "velocity": 87, "duration": 90}, {"note": 73, "velocity": 88, "duration": 960}, {"note": 73, "velocity": 88, "duration": 294}, {"note": 0, "velocity": 0, "duration": 186}, {"note": 69, "velocity": 87, "duration": 236}, {"note": 68, "velocity": 83, "duration": 243}, {"note": 66, "velocity": 79, "duration": 485}, {"note": 73, "velocity": 90, "duration": 447}, {"note": 71, "velocity": 87, "duration": 200}, {"note": 73, "velocity": 88, "duration": 115}, {"note": 76, "velocity": 86, "duration": 334}, {"note": 73, "velocity": 85, "duration": 243}, {"note": 71, "velocity": 78, "duration": 367}, {"note": 0, "velocity": 0, "duration": 113}, {"note": 73, "velocity": 90, "duration": 457}, {"note": 71, "velocity": 89, "duration": 185}, {"note": 73, "velocity": 90, "duration": 104}, {"note": 76, "velocity": 84, "duration": 328}, {"note": 78, "velocity": 87, "duration": 241}, {"note": 71, "velocity": 84, "duration": 458}, {"note": 71, "velocity": 85, "duration": 394}, {"note": 0, "velocity": 0, "duration": 86}, {"note": 71, "velocity": 87, "duration": 177}, {"note": 0, "velocity": 0, "duration": 63}, {"note": 73, "velocity": 89, "duration": 77}, {"note": 76, "velocity": 85, "duration": 209}, {"note": 73, "velocity": 90, "duration": 201}, {"note": 71, "velocity": 87, "duration": 90}, {"note": 73, "velocity": 88, "duration": 960}, {"note": 73, "velocity": 88, "duration": 480}, {"note": 71, "velocity": 87, "duration": 192}, {"note": 73, "velocity": 90, "duration": 185}, {"note": 74, "velocity": 85, "duration": 412}, {"note": 0, "velocity": 0, "duration": 68}, {"note": 74, "velocity": 92, "duration": 363}, {"note": 0, "velocity": 0, "duration": 117}, {"note": 74, "velocity": 88, "duration": 185}, {"note": 76, "velocity": 85, "duration": 83}, {"note": 78, "velocity": 84, "duration": 305}, {"note": 76, "velocity": 88, "duration": 100}, {"note": 74, "velocity": 87, "duration": 80}, {"note": 73, "velocity": 97, "duration": 382}, {"note": 0, "velocity": 0, "duration": 98}, {"note": 73, "velocity": 97, "duration": 393}, {"note": 0, "velocity": 0, "duration": 87}, {"note": 73, "velocity": 97, "duration": 186}, {"note": 74, "velocity": 85, "duration": 130}, {"note": 73, "velocity": 94, "duration": 238}, {"note": 71, "velocity": 87, "duration": 211}, {"note": 69, "velocity": 92, "duration": 85}, {"note": 71, "velocity": 87, "duration": 240}, {"note": 71, "velocity": 87, "duration": 480}, {"note": 0, "velocity": 0, "duration": 240}, {"note": 71, "velocity": 84, "duration": 197}, {"note": 69, "velocity": 94, "duration": 93}, {"note": 71, "velocity": 87, "duration": 194}, {"note": 69, "velocity": 87, "duration": 240}, {"note": 68, "velocity": 85, "duration": 126}, {"note": 66, "velocity": 81, "duration": 1394}, {"note": 0, "velocity": 0, "duration": 2382}, {"note": 73, "velocity": 87, "duration": 565}, {"note": 71, "velocity": 87, "duration": 230}, {"note": 69, "velocity": 84, "duration": 720}, {"note": 0, "velocity": 0, "duration": 856}, {"note": 71, "velocity": 84, "duration": 330}, {"note": 69, "velocity": 87, "duration": 265}, {"note": 68, "velocity": 80, "duration": 605}, {"note": 66, "velocity": 79, "duration": 2362}]]