[[{"note": 64, "velocity": 84, "duration": 247}, {"note": 69, "velocity": 80, "duration": 134}, {"note": 0, "velocity": 0, "duration": 106}, {"note": 69, "velocity": 78, "duration": 150}, {"note": 0, "velocity": 0, "duration": 90}, {"note": 72, "velocity": 79, "duration": 158}, {"note": 0, "velocity": 0, "duration": 82}, {"note": 69, "velocity": 66, "duration": 660}, {"note": 0, "velocity": 0, "duration": 300}, {"note": 74, "velocity": 87, "duration": 191}, {"note": 76, "velocity": 79, "duration": 413}, {"note": 0, "velocity": 0, "duration": 67}, {"note": 74, "velocity": 82, "duration": 96}, {"note": 72, "velocity": 72, "duration": 75}, {"note": 69, "velocity": 80, "duration": 538}, {"note": 0, "velocity": 0, "duration": 422}, {"note": 69, "velocity": 85, "duration": 205}, {"note": 72, "velocity": 85, "duration": 150}, {"note": 0, "velocity": 0, "duration": 90}, {"note": 72, "velocity": 71, "duration": 216}, {"note": 74, "velocity": 87, "duration": 115}, {"note": 0, "velocity": 0, "duration": 125}, {"note": 81, "velocity": 82, "duration": 150}, {"note": 0, "velocity": 0, "duration": 90}, {"note": 79, "velocity": 79, "duration": 136}, {"note": 0, "velocity": 0, "duration": 104}, {"note": 81, "velocity": 79, "duration": 163}, {"note": 0, "velocity": 0, "duration": 77}, {"note": 79, "velocity": 80, "duration": 102}, {"note": 0, "velocity": 0, "duration": 138}, {"note": 76, "velocity": 81, "duration": 1347}, {"note": 0, "velocity": 0, "duration": 573}, {"note": 81, "velocity": 82, "duration": 145}, {"note": 0, "velocity": 0, "duration": 95}, {"note": 81, "velocity": 81, "duration": 134}, {"note": 0, "velocity": 0, "duration": 106}, {"note": 81, "velocity": 82, "duration": 150}, {"note": 0, "velocity": 0, "duration": 90}, {"note": 84, "velocity": 83, "duration": 157}, {"note": 0, "velocity": 0, "duration": 83}, {"note": 81, "velocity": 84, "duration": 371}, {"note": 0, "velocity": 0, "duration": 109}, {"note": 79, "velocity": 82, "duration": 163}, {"note": 0, "velocity": 0, "duration": 77}, {"note": 76, "velocity": 87, "duration": 201}, {"note": 69, "velocity": 79, "duration": 235}, {"note": 76, "velocity": 79, "duration": 220}, {"note": 74, "velocity": 83, "duration": 169}, {"note": 0, "velocity": 0, "duration": 71}, {"note": 72, "velocity": 79, "duration": 169}, {"note": 0, "velocity": 0, "duration": 71}, {"note": 74, "velocity": 84, "duration": 667}, {"note": 0, "velocity": 0, "duration": 293}, {"note": 74, "velocity": 89, "duration": 170}, {"note": 0, "velocity": 0, "duration": 70}, {"note": 76, "velocity": 82, "duration": 155}, {"note": 0, "velocity": 0, "duration": 85}, {"note": 79, "velocity": 79, "duration": 313}, {"note": 0, "velocity": 0, "duration": 167}, {"note": 67, "velocity": 78, "duration": 187}, {"note": 69, "velocity": 80, "duration": 170}, {"note": 0, "velocity": 0, "duration": 70}, {"note": 74, "velocity": 80, "duration": 164}, {"note": 0, "velocity": 0, "duration": 76}, {"note": 71, "velocity": 78, "duration": 174}, {"note": 0, "velocity": 0, "duration": 66}, {"note": 69, "velocity": 80, "duration": 911}, {"note": 0, "velocity": 0, "duration": 1009}, {"note": 69, "velocity": 82, "duration": 137}, {"note": 0, "velocity": 0, "duration": 103}, {"note": 69, "velocity": 78, "duration": 331}, {"note": 0, "velocity": 0, "duration": 149}, {"note": 72, "velocity": 79, "duration": 243}, {"note": 69, "velocity": 78, "duration": 597}, {"note": 0, "velocity": 0, "duration": 363}, {"note": 74, "velocity": 79, "duration": 154}, {"note": 0, "velocity": 0, "duration": 86}, {"note": 76, "velocity": 74, "duration": 207}, {"note": 74, "velocity": 82, "duration": 191}, {"note": 67, "velocity": 78, "duration": 203}, {"note": 69, "velocity": 79, "duration": 546}, {"note": 0, "velocity": 0, "duration": 414}, {"note": 69, "velocity": 79, "duration": 208}, {"note": 72, "velocity": 75, "duration": 153}, {"note": 0, "velocity": 0, "duration": 87}, {"note": 72, "velocity": 74, "duration": 149}, {"note": 0, "velocity": 0, "duration": 91}, {"note": 74, "velocity": 82, "duration": 137}, {"note": 0, "velocity": 0, "duration": 103}, {"note": 81, "velocity": 74, "duration": 185}, {"note": 79, "velocity": 70, "duration": 134}, {"note": 0, "velocity": 0, "duration": 106}, {"note": 79, "velocity": 74, "duration": 183}, {"note": 74, "velocity": 79, "duration": 181}, {"note": 76, "velocity": 79, "duration": 1413}, {"note": 0, "velocity": 0, "duration": 507}, {"note": 81, "velocity": 77, "duration": 150}, {"note": 0, "velocity": 0, "duration": 90}, {"note": 81, "velocity": 79, "duration": 412}, {"note": 0, "velocity": 0, "duration": 68}, {"note": 84, "velocity": 80, "duration": 187}, {"note": 81, "velocity": 82, "duration": 375}, {"note": 0, "velocity": 0, "duration": 105}, {"note": 79, "velocity": 70, "duration": 202}, {"note": 76, "velocity": 80, "duration": 143}, {"note": 0, "velocity": 0, "duration": 97}, {"note": 69, "velocity": 78, "duration": 159}, {"note": 0, "velocity": 0, "duration": 81}, {"note": 76, "velocity": 69, "duration": 190}, {"note": 74, "velocity": 82, "duration": 193}, {"note": 72, "velocity": 79, "duration": 198}, {"note": 74, "velocity": 82, "duration": 791}, {"note": 0, "velocity": 0, "duration": 169}, {"note": 74, "velocity": 82, "duration": 132}, {"note": 0, "velocity": 0, "duration": 108}, {"note": 74, "velocity": 82, "duration": 115}, {"note": 0, "velocity": 0, "duration": 125}, {"note": 74, "velocity": 79, "duration": 150}, {"note": 0, "velocity": 0, "duration": 90}, {"note": 76, "velocity": 82, "duration": 132}, {"note": 0, "velocity": 0, "duration": 108}, {"note": 83, "velocity": 78, "duration": 145}, {"note": 0, "velocity": 0, "duration": 95}, {"note": 83, "velocity": 78, "duration": 172}, {"note": 0, "velocity": 0, "duration": 68}, {"note": 81, "velocity": 73, "duration": 159}, {"note": 0, "velocity": 0, "duration": 81}, {"note": 79, "velocity": 74, "duration": 155}, {"note": 0, "velocity": 0, "duration": 85}, {"note": 81, "velocity": 77, "duration": 3077}, {"note": 0, "velocity": 0, "duration": 523}, {"note": 76, "velocity": 87, "duration": 172}, {"note": 0, "velocity": 0, "duration": 68}, {"note": 81, "velocity": 79, "duration": 475}, {"note": 76, "velocity": 80, "duration": 225}, {"note": 84, "velocity": 80, "duration": 212}, {"note": 81, "velocity": 78, "duration": 754}, {"note": 0, "velocity": 0, "duration": 206}, {"note": 79, "velocity": 78, "duration": 212}, {"note": 81, "velocity": 73, "duration": 146}, {"note": 0, "velocity": 0, "duration": 94}, {"note": 83, "velocity": 80, "duration": 203}, {"note": 79, "velocity": 78, "duration": 190}, {"note": 81, "velocity": 78, "duration": 641}, {"note": 0, "velocity": 0, "duration": 319}, {"note": 74, "velocity": 81, "duration": 394}, {"note": 0, "velocity": 0, "duration": 86}, {"note": 72, "velocity": 79, "duration": 218}, {"note": 69, "velocity": 78, "duration": 169}, {"note": 0, "velocity": 0, "duration": 71}, {"note": 74, "velocity": 81, "duration": 240}, {"note": 76, "velocity": 78, "duration": 156}, {"note": 0, "velocity": 0, "duration": 84}, {"note": 76, "velocity": 79, "duration": 329}, {"note": 0, "velocity": 0, "duration": 151}, {"note": 74, "velocity": 82, "duration": 192}, {"note": 81, "velocity": 78, "duration": 142}, {"note": 0, "velocity": 0, "duration": 98}, {"note": 81, "velocity": 78, "duration": 150}, {"note": 0, "velocity": 0, "duration": 90}, {"note": 79, "velocity": 71, "duration": 133}, {"note": 0, "velocity": 0, "duration": 107}, {"note": 79, "velocity": 79, "duration": 632}, {"note": 0, "velocity": 0, "duration": 328}, {"note": 76, "velocity": 82, "duration": 187}, {"note": 81, "velocity": 78, "duration": 389}, {"note": 0, "velocity": 0, "duration": 91}, {"note": 79, "velocity": 74, "duration": 193}, {"note": 74, "velocity": 85, "duration": 173}, {"note": 0, "velocity": 0, "duration": 67}, {"note": 76, "velocity": 78, "duration": 170}, {"note": 0, "velocity": 0, "duration": 70}, {"note": 76, "velocity": 78, "duration": 337}, {"note": 0, "velocity": 0, "duration": 143}, {"note": 69, "velocity": 76, "duration": 142}, {"note": 0, "velocity": 0, "duration": 98}, {"note": 69, "velocity": 76, "duration": 191}, {"note": 72, "velocity": 79, "duration": 171}, {"note": 0, "velocity": 0, "duration": 69}, {"note": 76, "velocity": 76, "duration": 137}, {"note": 0, "velocity": 0, "duration": 103}, {"note": 76, "velocity": 80, "duration": 704}, {"note": 0, "velocity": 0, "duration": 256}, {"note": 74, "velocity": 82, "duration": 132}, {"note": 0, "velocity": 0, "duration": 108}, {"note": 74, "velocity": 80, "duration": 128}, {"note": 0, "velocity": 0, "duration": 112}, {"note": 74, "velocity": 82, "duration": 177}, {"note": 0, "velocity": 0, "duration": 63}, {"note": 76, "velocity": 80, "duration": 155}, {"note": 0, "velocity": 0, "duration": 85}, {"note": 79, "velocity": 78, "duration": 146}, {"note": 0, "velocity": 0, "duration": 94}, {"note": 79, "velocity": 74, "duration": 137}, {"note": 0, "velocity": 0, "duration": 103}, {"note": 79, "velocity": 77, "duration": 137}, {"note": 0, "velocity": 0, "duration": 103}, {"note": 81, "velocity": 77, "duration": 137}, {"note": 0, "velocity": 0, "duration": 103}, {"note": 83, "velocity": 79, "duration": 128}, {"note": 0, "velocity": 0, "duration": 112}, {"note": 83, "velocity": 79, "duration": 147}, {"note": 0, "velocity": 0, "duration": 93}, {"note": 81, "velocity": 72, "duration": 141}, {"note": 0, "velocity": 0, "duration": 99}, {"note": 79, "velocity": 76, "duration": 145}, {"note": 0, "velocity": 0, "duration": 95}, {"note": 81, "velocity": 78, "duration": 701}, {"note": 76, "velocity": 87, "duration": 172}, {"note": 0, "velocity": 0, "duration": 68}, {"note": 81, "velocity": 79, "duration": 475}, {"note": 76, "velocity": 80, "duration": 225}, {"note": 84, "velocity": 80, "duration": 212}, {"note": 81, "velocity": 78, "duration": 754}, {"note": 0, "velocity": 0, "duration": 206}, {"note": 79, "velocity": 78, "duration": 212}, {"note": 81, "velocity": 73, "duration": 146}, {"note": 0, "velocity": 0, "duration": 94}, {"note": 83, "velocity": 80, "duration": 203}, {"note": 79, "velocity": 78, "duration": 190}, {"note": 81, "velocity": 78, "duration": 641}, {"note": 0, "velocity": 0, "duration": 319}, {"note": 74, "velocity": 81, "duration": 394}, {"note": 0, "velocity": 0, "duration": 86}, {"note": 72, "velocity": 79, "duration": 218}, {"note": 69, "velocity": 78, "duration": 169}, {"note": 0, "velocity": 0, "duration": 71}, {"note": 74, "velocity": 81, "duration": 240}, {"note": 0, "velocity": 0, "duration": 240}, {"note": 76, "velocity": 79, "duration": 329}, {"note": 0, "velocity": 0, "duration": 151}, {"note": 74, "velocity": 82, "duration": 192}, {"note": 81, "velocity": 78, "duration": 142}, {"note": 0, "velocity": 0, "duration": 98}, {"note": 81, "velocity": 78, "duration": 150}, {"note": 0, "velocity": 0, "duration": 90}, {"note": 79, "velocity": 71, "duration": 133}, {"note": 0, "velocity": 0, "duration": 107}, {"note": 79, "velocity": 79, "duration": 632}, {"note": 0, "velocity": 0, "duration": 328}, {"note": 76, "velocity": 82, "duration": 187}, {"note": 81, "velocity": 78, "duration": 389}, {"note": 0, "velocity": 0, "duration": 91}, {"note": 79, "velocity": 74, "duration": 193}, {"note": 81, "velocity": 85, "duration": 173}, {"note": 0, "velocity": 0, "duration": 67}, {"note": 79, "velocity": 78, "duration": 170}, {"note": 0, "velocity": 0, "duration": 70}, {"note": 76, "velocity": 78, "duration": 337}, {"note": 0, "velocity": 0, "duration": 143}, {"note": 69, "velocity": 76, "duration": 142}, {"note": 0, "velocity": 0, "duration": 98}, {"note": 69, "velocity": 76, "duration": 191}, {"note": 72, "velocity": 79, "duration": 171}, {"note": 0, "velocity": 0, "duration": 69}, {"note": 79, "velocity": 76, "duration": 137}, {"note": 0, "velocity": 0, "duration": 103}, {"note": 76, "velocity": 80, "duration": 704}, {"note": 0, "velocity": 0, "duration": 256}, {"note": 74, "velocity": 82, "duration": 132}, {"note": 0, "velocity": 0, "duration": 108}, {"note": 74, "velocity": 80, "duration": 128}, {"note": 0, "velocity": 0, "duration": 112}, {"note": 74, "velocity": 82, "duration": 177}, {"note": 0, "velocity": 0, "duration": 63}, {"note": 76, "velocity": 80, "duration": 155}, {"note": 0, "velocity": 0, "duration": 85}, {"note": 83, "velocity": 78, "duration": 146}, {"note": 0, "velocity": 0, "duration": 94}, {"note": 83, "velocity": 74, "duration": 137}, {"note": 0, "velocity": 0, "duration": 103}, {"note": 81, "velocity": 77, "duration": 137}, {"note": 0, "velocity": 0, "duration": 103}, {"note": 79, "velocity": 77, "duration": 137}, {"note": 0, "velocity": 0, "duration": 103}, {"note": 81, "velocity": 79, "duration": 1800}, {"note": 0, "velocity": 0, "duration": 120}, {"note": 69, "velocity": 76, "duration": 69}, {"note": 0, "velocity": 0, "duration": 171}, {"note": 69, "velocity": 70, "duration": 98}, {"note": 0, "velocity": 0, "duration": 142}, {"note": 69, "velocity": 77, "duration": 93}, {"note": 0, "velocity": 0, "duration": 147}, {"note": 69, "velocity": 79, "duration": 102}, {"note": 67, "velocity": 76, "duration": 79}, {"note": 69, "velocity": 65, "duration": 89}, {"note": 0, "velocity": 0, "duration": 151}, {"note": 67, "velocity": 78, "duration": 76}, {"note": 0, "velocity": 0, "duration": 164}, {"note": 69, "velocity": 78, "duration": 97}, {"note": 0, "velocity": 0, "duration": 383}, {"note": 74, "velocity": 73, "duration": 93}, {"note": 0, "velocity": 0, "duration": 147}, {"note": 74, "velocity": 75, "duration": 76}, {"note": 74, "velocity": 75, "duration": 49}, {"note": 0, "velocity": 0, "duration": 71}, {"note": 74, "velocity": 79, "duration": 91}, {"note": 0, "velocity": 0, "duration": 149}, {"note": 74, "velocity": 77, "duration": 105}, {"note": 0, "velocity": 0, "duration": 135}, {"note": 74, "velocity": 74, "duration": 125}, {"note": 0, "velocity": 0, "duration": 115}, {"note": 72, "velocity": 76, "duration": 120}, {"note": 0, "velocity": 0, "duration": 120}, {"note": 69, "velocity": 75, "duration": 199}, {"note": 0, "velocity": 0, "duration": 281}, {"note": 74, "velocity": 74, "duration": 124}, {"note": 0, "velocity": 0, "duration": 116}, {"note": 74, "velocity": 78, "duration": 132}, {"note": 0, "velocity": 0, "duration": 108}, {"note": 76, "velocity": 75, "duration": 347}, {"note": 0, "velocity": 0, "duration": 133}, {"note": 74, "velocity": 79, "duration": 128}, {"note": 0, "velocity": 0, "duration": 112}, {"note": 72, "velocity": 71, "duration": 136}, {"note": 0, "velocity": 0, "duration": 104}, {"note": 76, "velocity": 73, "duration": 301}, {"note": 0, "velocity": 0, "duration": 179}, {"note": 74, "velocity": 78, "duration": 138}, {"note": 0, "velocity": 0, "duration": 102}, {"note": 72, "velocity": 69, "duration": 164}, {"note": 0, "velocity": 0, "duration": 76}, {"note": 69, "velocity": 74, "duration": 129}, {"note": 0, "velocity": 0, "duration": 111}, {"note": 67, "velocity": 67, "duration": 132}, {"note": 0, "velocity": 0, "duration": 108}, {"note": 67, "velocity": 70, "duration": 148}, {"note": 0, "velocity": 0, "duration": 92}, {"note": 69, "velocity": 73, "duration": 145}, {"note": 0, "velocity": 0, "duration": 95}, {"note": 69, "velocity": 76, "duration": 234}, {"note": 0, "velocity": 0, "duration": 246}, {"note": 69, "velocity": 79, "duration": 120}, {"note": 67, "velocity": 79, "duration": 120}, {"note": 69, "velocity": 79, "duration": 120}, {"note": 67, "velocity": 79, "duration": 120}, {"note": 69, "velocity": 79, "duration": 120}, {"note": 0, "velocity": 0, "duration": 120}, {"note": 72, "velocity": 79, "duration": 120}, {"note": 0, "velocity": 0, "duration": 120}, {"note": 74, "velocity": 79, "duration": 120}, {"note": 72, "velocity": 79, "duration": 120}, {"note": 74, "velocity": 79, "duration": 120}, {"note": 72, "velocity": 79, "duration": 120}, {"note": 74, "velocity": 79, "duration": 120}, {"note": 0, "velocity": 0, "duration": 120}, {"note": 76, "velocity": 79, "duration": 120}, {"note": 0, "velocity": 0, "duration": 120}, {"note": 74, "velocity": 79, "duration": 120}, {"note": 72, "velocity": 79, "duration": 120}, {"note": 74, "velocity": 79, "duration": 120}, {"note": 72, "velocity": 79, "duration": 120}, {"note": 74, "velocity": 79, "duration": 120}, {"note": 0, "velocity": 0, "duration": 120}, {"note": 76, "velocity": 79, "duration": 120}, {"note": 0, "velocity": 0, "duration": 120}, {"note": 74, "velocity": 79, "duration": 120}, {"note": 0, "velocity": 0, "duration": 120}, {"note": 74, "velocity": 79, "duration": 120}, {"note": 72, "velocity": 79, "duration": 120}, {"note": 69, "velocity": 79, "duration": 120}, {"note": 72, "velocity": 79, "duration": 120}, {"note": 69, "velocity": 79, "duration": 120}, {"note": 0, "velocity": 0, "duration": 120}, {"note": 64, "velocity": 79, "duration": 120}, {"note": 0, "velocity": 0, "duration": 120}, {"note": 62, "velocity": 79, "duration": 120}, {"note": 0, "velocity": 0, "duration": 120}, {"note": 64, "velocity": 79, "duration": 120}, {"note": 0, "velocity": 0, "duration": 120}, {"note": 69, "velocity": 79, "duration": 120}, {"note": 0, "velocity": 0, "duration": 120}, {"note": 69, "velocity": 79, "duration": 360}, {"note": 0, "velocity": 0, "duration": 600}, {"note": 76, "velocity": 79, "duration": 120}, {"note": 0, "velocity": 0, "duration": 120}, {"note": 74, "velocity": 79, "duration": 120}, {"note": 0, "velocity": 0, "duration": 120}, {"note": 76, "velocity": 79, "duration": 120}, {"note": 0, "velocity": 0, "duration": 120}, {"note": 79, "velocity": 79, "duration": 120}, {"note": 0, "velocity": 0, "duration": 120}, {"note": 81, "velocity": 79, "duration": 240}, {"note": 0, "velocity": 0, "duration": 720}, {"note": 69, "velocity": 82, "duration": 137}, {"note": 0, "velocity": 0, "duration": 103}, {"note": 69, "velocity": 78, "duration": 331}, {"note": 0, "velocity": 0, "duration": 149}, {"note": 72, "velocity": 79, "duration": 243}, {"note": 69, "velocity": 78, "duration": 597}, {"note": 0, "velocity": 0, "duration": 363}, {"note": 74, "velocity": 79, "duration": 154}, {"note": 0, "velocity": 0, "duration": 86}, {"note": 76, "velocity": 74, "duration": 207}, {"note": 74, "velocity": 82, "duration": 191}, {"note": 67, "velocity": 78, "duration": 203}, {"note": 69, "velocity": 79, "duration": 546}, {"note": 0, "velocity": 0, "duration": 414}, {"note": 69, "velocity": 79, "duration": 208}, {"note": 72, "velocity": 75, "duration": 153}, {"note": 0, "velocity": 0, "duration": 87}, {"note": 72, "velocity": 74, "duration": 149}, {"note": 0, "velocity": 0, "duration": 91}, {"note": 74, "velocity": 82, "duration": 137}, {"note": 0, "velocity": 0, "duration": 103}, {"note": 81, "velocity": 74, "duration": 185}, {"note": 79, "velocity": 70, "duration": 134}, {"note": 0, "velocity": 0, "duration": 106}, {"note": 79, "velocity": 74, "duration": 183}, {"note": 74, "velocity": 79, "duration": 181}, {"note": 76, "velocity": 79, "duration": 1413}, {"note": 0, "velocity": 0, "duration": 507}, {"note": 81, "velocity": 77, "duration": 150}, {"note": 0, "velocity": 0, "duration": 90}, {"note": 81, "velocity": 79, "duration": 412}, {"note": 0, "velocity": 0, "duration": 68}, {"note": 84, "velocity": 80, "duration": 187}, {"note": 81, "velocity": 82, "duration": 375}, {"note": 0, "velocity": 0, "duration": 105}, {"note": 79, "velocity": 70, "duration": 202}, {"note": 76, "velocity": 80, "duration": 143}, {"note": 0, "velocity": 0, "duration": 97}, {"note": 69, "velocity": 78, "duration": 159}, {"note": 0, "velocity": 0, "duration": 81}, {"note": 76, "velocity": 69, "duration": 190}, {"note": 74, "velocity": 82, "duration": 193}, {"note": 72, "velocity": 79, "duration": 198}, {"note": 74, "velocity": 82, "duration": 791}, {"note": 0, "velocity": 0, "duration": 169}, {"note": 74, "velocity": 82, "duration": 132}, {"note": 0, "velocity": 0, "duration": 108}, {"note": 74, "velocity": 82, "duration": 115}, {"note": 0, "velocity": 0, "duration": 125}, {"note": 74, "velocity": 79, "duration": 150}, {"note": 0, "velocity": 0, "duration": 90}, {"note": 76, "velocity": 82, "duration": 132}, {"note": 0, "velocity": 0, "duration": 108}, {"note": 83, "velocity": 78, "duration": 145}, {"note": 0, "velocity": 0, "duration": 95}, {"note": 83, "velocity": 78, "duration": 172}, {"note": 0, "velocity": 0, "duration": 68}, {"note": 81, "velocity": 73, "duration": 159}, {"note": 0, "velocity": 0, "duration": 81}, {"note": 79, "velocity": 74, "duration": 155}, {"note": 0, "velocity": 0, "duration": 85}, {"note": 81, "velocity": 77, "duration": 1440}, {"note": 0, "velocity": 0, "duration": 240}, {"note": 76, "velocity": 87, "duration": 172}, {"note": 0, "velocity": 0, "duration": 68}, {"note": 81, "velocity": 79, "duration": 475}, {"note": 76, "velocity": 80, "duration": 225}, {"note": 84, "velocity": 80, "duration": 212}, {"note": 81, "velocity": 78, "duration": 754}, {"note": 0, "velocity": 0, "duration": 206}, {"note": 79, "velocity": 78, "duration": 212}, {"note": 81, "velocity": 73, "duration": 146}, {"note": 0, "velocity": 0, "duration": 94}, {"note": 83, "velocity": 80, "duration": 203}, {"note": 79, "velocity": 78, "duration": 190}, {"note": 81, "velocity": 78, "duration": 641}, {"note": 0, "velocity": 0, "duration": 319}, {"note": 74, "velocity": 81, "duration": 394}, {"note": 0, "velocity": 0, "duration": 86}, {"note": 72, "velocity": 79, "duration": 218}, {"note": 69, "velocity": 78, "duration": 169}, {"note": 0, "velocity": 0, "duration": 71}, {"note": 74, "velocity": 81, "duration": 240}, {"note": 76, "velocity": 78, "duration": 156}, {"note": 0, "velocity": 0, "duration": 84}, {"note": 76, "velocity": 79, "duration": 329}, {"note": 0, "velocity": 0, "duration": 151}, {"note": 74, "velocity": 82, "duration": 192}, {"note": 81, "velocity": 78, "duration": 142}, {"note": 0, "velocity": 0, "duration": 98}, {"note": 81, "velocity": 78, "duration": 150}, {"note": 0, "velocity": 0, "duration": 90}, {"note": 79, "velocity": 71, "duration": 133}, {"note": 0, "velocity": 0, "duration": 107}, {"note": 79, "velocity": 79, "duration": 632}, {"note": 0, "velocity": 0, "duration": 328}, {"note": 76, "velocity": 82, "duration": 187}, {"note": 81, "velocity": 78, "duration": 389}, {"note": 0, "velocity": 0, "duration": 91}, {"note": 79, "velocity": 74, "duration": 193}, {"note": 74, "velocity": 85, "duration": 173}, {"note": 0, "velocity": 0, "duration": 67}, {"note": 76, "velocity": 78, "duration": 170}, {"note": 0, "velocity": 0, "duration": 70}, {"note": 76, "velocity": 78, "duration": 337}, {"note": 0, "velocity": 0, "duration": 143}, {"note": 69, "velocity": 76, "duration": 142}, {"note": 0, "velocity": 0, "duration": 98}, {"note": 69, "velocity": 76, "duration": 191}, {"note": 72, "velocity": 79, "duration": 171}, {"note": 0, "velocity": 0, "duration": 69}, {"note": 76, "velocity": 76, "duration": 137}, {"note": 0, "velocity": 0, "duration": 103}, {"note": 76, "velocity": 80, "duration": 704}, {"note": 0, "velocity": 0, "duration": 256}, {"note": 74, "velocity": 82, "duration": 132}, {"note": 0, "velocity": 0, "duration": 108}, {"note": 74, "velocity": 80, "duration": 128}, {"note": 0, "velocity": 0, "duration": 112}, {"note": 74, "velocity": 82, "duration": 177}, {"note": 0, "velocity": 0, "duration": 63}, {"note": 76, "velocity": 80, "duration": 155}, {"note": 0, "velocity": 0, "duration": 85}, {"note": 79, "velocity": 78, "duration": 146}, {"note": 0, "velocity": 0, "duration": 94}, {"note": 79, "velocity": 74, "duration": 137}, {"note": 0, "velocity": 0, "duration": 103}, {"note": 79, "velocity": 77, "duration": 137}, {"note": 0, "velocity": 0, "duration": 103}, {"note": 81, "velocity": 77, "duration": 137}, {"note": 0, "velocity": 0, "duration": 103}, {"note": 83, "velocity": 79, "duration": 128}, {"note": 0, "velocity": 0, "duration": 112}, {"note": 83, "velocity": 79, "duration": 147}, {"note": 0, "velocity": 0, "duration": 93}, {"note": 81, "velocity": 72, "duration": 141}, {"note": 0, "velocity": 0, "duration": 99}, {"note": 79, "velocity": 76, "duration": 145}, {"note": 0, "velocity": 0, "duration": 95}, {"note": 81, "velocity": 78, "duration": 701}, {"note": 76, "velocity": 87, "duration": 172}, {"note": 0, "velocity": 0, "duration": 68}, {"note": 81, "velocity": 79, "duration": 475}, {"note": 76, "velocity": 80, "duration": 225}, {"note": 84, "velocity": 80, "duration": 212}, {"note": 81, "velocity": 78, "duration": 754}, {"note": 0, "velocity": 0, "duration": 206}, {"note": 79, "velocity": 78, "duration": 212}, {"note": 81, "velocity": 73, "duration": 146}, {"note": 0, "velocity": 0, "duration": 94}, {"note": 83, "velocity": 80, "duration": 203}, {"note": 79, "velocity": 78, "duration": 190}, {"note": 81, "velocity": 78, "duration": 641}, {"note": 0, "velocity": 0, "duration": 319}, {"note": 74, "velocity": 81, "duration": 394}, {"note": 0, "velocity": 0, "duration": 86}, {"note": 72, "velocity": 79, "duration": 218}, {"note": 69, "velocity": 78, "duration": 169}, {"note": 0, "velocity": 0, "duration": 71}, {"note": 74, "velocity": 81, "duration": 240}, {"note": 0, "velocity": 0, "duration": 240}, {"note": 76, "velocity": 79, "duration": 329}, {"note": 0, "velocity": 0, "duration": 151}, {"note": 74, "velocity": 82, "duration": 192}, {"note": 81, "velocity": 78, "duration": 142}, {"note": 0, "velocity": 0, "duration": 98}, {"note": 81, "velocity": 78, "duration": 150}, {"note": 0, "velocity": 0, "duration": 90}, {"note": 79, "velocity": 71, "duration": 133}, {"note": 0, "velocity": 0, "duration": 107}, {"note": 79, "velocity": 79, "duration": 632}, {"note": 0, "velocity": 0, "duration": 328}, {"note": 76, "velocity": 82, "duration": 187}, {"note": 81, "velocity": 78, "duration": 389}, {"note": 0, "velocity": 0, "duration": 91}, {"note": 79, "velocity": 74, "duration": 193}, {"note": 81, "velocity": 85, "duration": 173}, {"note": 0, "velocity": 0, "duration": 67}, {"note": 79, "velocity": 78, "duration": 170}, {"note": 0, "velocity": 0, "duration": 70}, {"note": 76, "velocity": 78, "duration": 337}, {"note": 0, "velocity": 0, "duration": 143}, {"note": 69, "velocity": 76, "duration": 142}, {"note": 0, "velocity": 0, "duration": 98}, {"note": 69, "velocity": 76, "duration": 191}, {"note": 72, "velocity": 79, "duration": 171}, {"note": 0, "velocity": 0, "duration": 69}, {"note": 79, "velocity": 76, "duration": 137}, {"note": 0, "velocity": 0, "duration": 103}, {"note": 76, "velocity": 80, "duration": 704}, {"note": 0, "velocity": 0, "duration": 256}, {"note": 74, "velocity": 82, "duration": 132}, {"note": 0, "velocity": 0, "duration": 108}, {"note": 74, "velocity": 80, "duration": 128}, {"note": 0, "velocity": 0, "duration": 112}, {"note": 74, "velocity": 82, "duration": 177}, {"note": 0, "velocity": 0, "duration": 63}, {"note": 76, "velocity": 80, "duration": 155}, {"note": 0, "velocity": 0, "duration": 85}, {"note": 83, "velocity": 78, "duration": 146}, {"note": 0, "velocity": 0, "duration": 94}, {"note": 83, "velocity": 74, "duration": 137}, {"note": 0, "velocity": 0, "duration": 103}, {"note": 81, "velocity": 77, "duration": 137}, {"note": 0, "velocity": 0, "duration": 103}, {"note": 79, "velocity": 77, "duration": 137}, {"note": 0, "velocity": 0, "duration": 103}, {"note": 81, "velocity": 79, "duration": 1800}, {"note": 0, "velocity": 0, "duration": 1800}, {"note": 76, "velocity": 87, "duration": 172}, {"note": 0, "velocity": 0, "duration": 68}, {"note": 81, "velocity": 79, "duration": 475}, {"note": 76, "velocity": 80, "duration": 225}, {"note": 84, "velocity": 80, "duration": 212}, {"note": 81, "velocity": 78, "duration": 754}, {"note": 0, "velocity": 0, "duration": 206}, {"note": 79, "velocity": 78, "duration": 212}, {"note": 81, "velocity": 73, "duration": 146}, {"note": 0, "velocity": 0, "duration": 94}, {"note": 83, "velocity": 80, "duration": 203}, {"note": 79, "velocity": 78, "duration": 190}, {"note": 81, "velocity": 78, "duration": 641}, {"note": 0, "velocity": 0, "duration": 319}, {"note": 74, "velocity": 81, "duration": 394}, {"note": 0, "velocity": 0, "duration": 86}, {"note": 72, "velocity": 79, "duration": 218}, {"note": 69, "velocity": 78, "duration": 169}, {"note": 0, "velocity": 0, "duration": 71}, {"note": 74, "velocity": 81, "duration": 240}, {"note": 76, "velocity": 78, "duration": 156}, {"note": 0, "velocity": 0, "duration": 84}, {"note": 76, "velocity": 79, "duration": 329}, {"note": 0, "velocity": 0, "duration": 151}, {"note": 74, "velocity": 82, "duration": 192}, {"note": 81, "velocity": 78, "duration": 142}, {"note": 0, "velocity": 0, "duration": 98}, {"note": 81, "velocity": 78, "duration": 150}, {"note": 0, "velocity": 0, "duration": 90}, {"note": 79, "velocity": 71, "duration": 133}, {"note": 0, "velocity": 0, "duration": 107}, {"note": 79, "velocity": 79, "duration": 632}, {"note": 0, "velocity": 0, "duration": 328}, {"note": 76, "velocity": 82, "duration": 187}, {"note": 81, "velocity": 78, "duration": 389}, {"note": 0, "velocity": 0, "duration": 91}, {"note": 79, "velocity": 74, "duration": 193}, {"note": 74, "velocity": 85, "duration": 173}, {"note": 0, "velocity": 0, "duration": 67}, {"note": 76, "velocity": 78, "duration": 170}, {"note": 0, "velocity": 0, "duration": 70}, {"note": 76, "velocity": 78, "duration": 337}, {"note": 0, "velocity": 0, "duration": 143}, {"note": 69, "velocity": 76, "duration": 142}, {"note": 0, "velocity": 0, "duration": 98}, {"note": 69, "velocity": 76, "duration": 191}, {"note": 72, "velocity": 79, "duration": 171}, {"note": 0, "velocity": 0, "duration": 69}, {"note": 76, "velocity": 76, "duration": 137}, {"note": 0, "velocity": 0, "duration": 103}, {"note": 76, "velocity": 80, "duration": 704}, {"note": 0, "velocity": 0, "duration": 256}, {"note": 74, "velocity": 82, "duration": 132}, {"note": 0, "velocity": 0, "duration": 108}, {"note": 74, "velocity": 80, "duration": 128}, {"note": 0, "velocity": 0, "duration": 112}, {"note": 74, "velocity": 82, "duration": 177}, {"note": 0, "velocity": 0, "duration": 63}, {"note": 76, "velocity": 80, "duration": 155}, {"note": 0, "velocity": 0, "duration": 85}, {"note": 79, "velocity": 78, "duration": 146}, {"note": 0, "velocity": 0, "duration": 94}, {"note": 79, "velocity": 74, "duration": 137}, {"note": 0, "velocity": 0, "duration": 103}, {"note": 79, "velocity": 77, "duration": 137}, {"note": 0, "velocity": 0, "duration": 103}, {"note": 81, "velocity": 77, "duration": 137}, {"note": 0, "velocity": 0, "duration": 103}, {"note": 83, "velocity": 79, "duration": 128}, {"note": 0, "velocity": 0, "duration": 112}, {"note": 83, "velocity": 79, "duration": 147}, {"note": 0, "velocity": 0, "duration": 93}, {"note": 81, "velocity": 72, "duration": 141}, {"note": 0, "velocity": 0, "duration": 99}, {"note": 79, "velocity": 76, "duration": 145}, {"note": 0, "velocity": 0, "duration": 95}, {"note": 81, "velocity": 78, "duration": 701}, {"note": 76, "velocity": 87, "duration": 172}, {"note": 0, "velocity": 0, "duration": 68}, {"note": 81, "velocity": 79, "duration": 475}, {"note": 76, "velocity": 80, "duration": 225}, {"note": 84, "velocity": 80, "duration": 212}, {"note": 81, "velocity": 78, "duration": 754}, {"note": 0, "velocity": 0, "duration": 206}, {"note": 79, "velocity": 78, "duration": 212}, {"note": 81, "velocity": 73, "duration": 146}, {"note": 0, "velocity": 0, "duration": 94}, {"note": 83, "velocity": 80, "duration": 203}, {"note": 79, "velocity": 78, "duration": 190}, {"note": 81, "velocity": 78, "duration": 641}, {"note": 0, "velocity": 0, "duration": 319}, {"note": 74, "velocity": 81, "duration": 394}, {"note": 0, "velocity": 0, "duration": 86}, {"note": 72, "velocity": 79, "duration": 218}, {"note": 69, "velocity": 78, "duration": 169}, {"note": 0, "velocity": 0, "duration": 71}, {"note": 74, "velocity": 81, "duration": 240}, {"note": 0, "velocity": 0, "duration": 240}, {"note": 76, "velocity": 79, "duration": 329}, {"note": 0, "velocity": 0, "duration": 151}, {"note": 74, "velocity": 82, "duration": 192}, {"note": 81, "velocity": 78, "duration": 142}, {"note": 0, "velocity": 0, "duration": 98}, {"note": 81, "velocity": 78, "duration": 150}, {"note": 0, "velocity": 0, "duration": 90}, {"note": 79, "velocity": 71, "duration": 133}, {"note": 0, "velocity": 0, "duration": 107}, {"note": 79, "velocity": 79, "duration": 632}, {"note": 0, "velocity": 0, "duration": 328}, {"note": 76, "velocity": 82, "duration": 187}, {"note": 81, "velocity": 78, "duration": 389}, {"note": 0, "velocity": 0, "duration": 91}, {"note": 79, "velocity": 74, "duration": 193}, {"note": 81, "velocity": 85, "duration": 173}, {"note": 0, "velocity": 0, "duration": 67}, {"note": 79, "velocity": 78, "duration": 170}, {"note": 0, "velocity": 0, "duration": 70}, {"note": 76, "velocity": 78, "duration": 337}, {"note": 0, "velocity": 0, "duration": 143}, {"note": 69, "velocity": 76, "duration": 142}, {"note": 0, "velocity": 0, "duration": 98}, {"note": 69, "velocity": 76, "duration": 191}, {"note": 72, "velocity": 79, "duration": 171}, {"note": 0, "velocity": 0, "duration": 69}, {"note": 79, "velocity": 76, "duration": 137}, {"note": 0, "velocity": 0, "duration": 103}, {"note": 76, "velocity": 80, "duration": 704}, {"note": 0, "velocity": 0, "duration": 256}, {"note": 74, "velocity": 82, "duration": 132}, {"note": 0, "velocity": 0, "duration": 108}, {"note": 74, "velocity": 80, "duration": 128}, {"note": 0, "velocity": 0, "duration": 112}, {"note": 74, "velocity": 82, "duration": 177}, {"note": 0, "velocity": 0, "duration": 63}, {"note": 76, "velocity": 80, "duration": 155}, {"note": 0, "velocity": 0, "duration": 85}, {"note": 83, "velocity": 78, "duration": 146}, {"note": 0, "velocity": 0, "duration": 94}, {"note": 83, "velocity": 74, "duration": 137}, {"note": 0, "velocity": 0, "duration": 103}, {"note": 81, "velocity": 77, "duration": 137}, {"note": 0, "velocity": 0, "duration": 103}, {"note": 79, "velocity": 77, "duration": 137}, {"note": 0, "velocity": 0, "duration": 103}, {"note": 81, "velocity": 79, "duration": 1800}, {"note": 0, "velocity": 0, "duration": 120}, {"note": 74, "velocity": 82, "duration": 132}, {"note": 0, "velocity": 0, "duration": 108}, {"note": 74, "velocity": 80, "duration": 128}, {"note": 0, "velocity": 0, "duration": 112}, {"note": 74, "velocity": 82, "duration": 177}, {"note": 0, "velocity": 0, "duration": 63}, {"note": 76, "velocity": 80, "duration": 155}, {"note": 0, "velocity": 0, "duration": 85}, {"note": 86, "velocity": 78, "duration": 146}, {"note": 0, "velocity": 0, "duration": 94}, {"note": 86, "velocity": 74, "duration": 1200}, {"note": 86, "velocity": 79, "duration": 240}, {"note": 84, "velocity": 79, "duration": 240}, {"note": 81, "velocity": 79, "duration": 960}]]