[[{"note": 74, "velocity": 84, "duration": 134}, {"note": 0, "velocity": 0, "duration": 106}, {"note": 74, "velocity": 84, "duration": 118}, {"note": 0, "velocity": 0, "duration": 122}, {"note": 74, "velocity": 86, "duration": 171}, {"note": 0, "velocity": 0, "duration": 69}, {"note": 72, "velocity": 83, "duration": 186}, {"note": 69, "velocity": 85, "duration": 410}, {"note": 0, "velocity": 0, "duration": 70}, {"note": 77, "velocity": 82, "duration": 375}, {"note": 0, "velocity": 0, "duration": 105}, {"note": 74, "velocity": 83, "duration": 133}, {"note": 0, "velocity": 0, "duration": 107}, {"note": 74, "velocity": 84, "duration": 280}, {"note": 0, "velocity": 0, "duration": 1400}, {"note": 69, "velocity": 83, "duration": 190}, {"note": 72, "velocity": 80, "duration": 136}, {"note": 0, "velocity": 0, "duration": 104}, {"note": 74, "velocity": 83, "duration": 179}, {"note": 0, "velocity": 0, "duration": 61}, {"note": 72, "velocity": 84, "duration": 145}, {"note": 0, "velocity": 0, "duration": 95}, {"note": 74, "velocity": 83, "duration": 401}, {"note": 0, "velocity": 0, "duration": 79}, {"note": 69, "velocity": 77, "duration": 209}, {"note": 72, "velocity": 82, "duration": 195}, {"note": 69, "velocity": 83, "duration": 863}, {"note": 0, "velocity": 0, "duration": 1057}, {"note": 69, "velocity": 85, "duration": 145}, {"note": 0, "velocity": 0, "duration": 95}, {"note": 69, "velocity": 82, "duration": 361}, {"note": 0, "velocity": 0, "duration": 119}, {"note": 77, "velocity": 76, "duration": 172}, {"note": 0, "velocity": 0, "duration": 68}, {"note": 74, "velocity": 83, "duration": 325}, {"note": 0, "velocity": 0, "duration": 155}, {"note": 72, "velocity": 82, "duration": 180}, {"note": 69, "velocity": 80, "duration": 169}, {"note": 0, "velocity": 0, "duration": 71}, {"note": 67, "velocity": 82, "duration": 139}, {"note": 0, "velocity": 0, "duration": 101}, {"note": 67, "velocity": 78, "duration": 324}, {"note": 0, "velocity": 0, "duration": 156}, {"note": 69, "velocity": 75, "duration": 162}, {"note": 0, "velocity": 0, "duration": 78}, {"note": 65, "velocity": 78, "duration": 480}, {"note": 62, "velocity": 82, "duration": 424}, {"note": 67, "velocity": 81, "duration": 112}, {"note": 0, "velocity": 0, "duration": 128}, {"note": 67, "velocity": 76, "duration": 130}, {"note": 0, "velocity": 0, "duration": 110}, {"note": 67, "velocity": 77, "duration": 127}, {"note": 0, "velocity": 0, "duration": 113}, {"note": 69, "velocity": 81, "duration": 148}, {"note": 0, "velocity": 0, "duration": 92}, {"note": 65, "velocity": 77, "duration": 365}, {"note": 0, "velocity": 0, "duration": 115}, {"note": 64, "velocity": 83, "duration": 367}, {"note": 0, "velocity": 0, "duration": 113}, {"note": 62, "velocity": 80, "duration": 1182}, {"note": 0, "velocity": 0, "duration": 738}, {"note": 74, "velocity": 82, "duration": 128}, {"note": 0, "velocity": 0, "duration": 112}, {"note": 74, "velocity": 83, "duration": 123}, {"note": 0, "velocity": 0, "duration": 117}, {"note": 74, "velocity": 84, "duration": 159}, {"note": 0, "velocity": 0, "duration": 81}, {"note": 72, "velocity": 82, "duration": 160}, {"note": 0, "velocity": 0, "duration": 80}, {"note": 69, "velocity": 83, "duration": 415}, {"note": 0, "velocity": 0, "duration": 65}, {"note": 77, "velocity": 82, "duration": 385}, {"note": 0, "velocity": 0, "duration": 95}, {"note": 74, "velocity": 83, "duration": 240}, {"note": 74, "velocity": 83, "duration": 334}, {"note": 0, "velocity": 0, "duration": 1346}, {"note": 69, "velocity": 82, "duration": 155}, {"note": 0, "velocity": 0, "duration": 85}, {"note": 72, "velocity": 83, "duration": 126}, {"note": 0, "velocity": 0, "duration": 114}, {"note": 74, "velocity": 82, "duration": 123}, {"note": 0, "velocity": 0, "duration": 117}, {"note": 72, "velocity": 78, "duration": 196}, {"note": 69, "velocity": 83, "duration": 396}, {"note": 0, "velocity": 0, "duration": 84}, {"note": 72, "velocity": 76, "duration": 455}, {"note": 69, "velocity": 77, "duration": 872}, {"note": 0, "velocity": 0, "duration": 1048}, {"note": 69, "velocity": 82, "duration": 135}, {"note": 0, "velocity": 0, "duration": 105}, {"note": 69, "velocity": 79, "duration": 379}, {"note": 0, "velocity": 0, "duration": 101}, {"note": 77, "velocity": 77, "duration": 169}, {"note": 0, "velocity": 0, "duration": 71}, {"note": 74, "velocity": 86, "duration": 352}, {"note": 0, "velocity": 0, "duration": 128}, {"note": 72, "velocity": 83, "duration": 150}, {"note": 0, "velocity": 0, "duration": 90}, {"note": 69, "velocity": 82, "duration": 168}, {"note": 0, "velocity": 0, "duration": 72}, {"note": 67, "velocity": 76, "duration": 129}, {"note": 0, "velocity": 0, "duration": 111}, {"note": 67, "velocity": 77, "duration": 240}, {"note": 67, "velocity": 77, "duration": 240}, {"note": 69, "velocity": 78, "duration": 148}, {"note": 0, "velocity": 0, "duration": 92}, {"note": 65, "velocity": 75, "duration": 399}, {"note": 0, "velocity": 0, "duration": 81}, {"note": 62, "velocity": 83, "duration": 421}, {"note": 67, "velocity": 77, "duration": 118}, {"note": 0, "velocity": 0, "duration": 122}, {"note": 67, "velocity": 76, "duration": 124}, {"note": 0, "velocity": 0, "duration": 116}, {"note": 67, "velocity": 77, "duration": 149}, {"note": 0, "velocity": 0, "duration": 91}, {"note": 69, "velocity": 80, "duration": 153}, {"note": 0, "velocity": 0, "duration": 87}, {"note": 65, "velocity": 76, "duration": 360}, {"note": 0, "velocity": 0, "duration": 120}, {"note": 64, "velocity": 83, "duration": 349}, {"note": 0, "velocity": 0, "duration": 131}, {"note": 62, "velocity": 78, "duration": 1065}, {"note": 0, "velocity": 0, "duration": 8535}, {"note": 74, "velocity": 84, "duration": 134}, {"note": 0, "velocity": 0, "duration": 106}, {"note": 74, "velocity": 84, "duration": 118}, {"note": 0, "velocity": 0, "duration": 122}, {"note": 74, "velocity": 86, "duration": 171}, {"note": 0, "velocity": 0, "duration": 69}, {"note": 72, "velocity": 83, "duration": 186}, {"note": 69, "velocity": 85, "duration": 410}, {"note": 0, "velocity": 0, "duration": 70}, {"note": 77, "velocity": 82, "duration": 375}, {"note": 0, "velocity": 0, "duration": 105}, {"note": 74, "velocity": 83, "duration": 133}, {"note": 0, "velocity": 0, "duration": 107}, {"note": 74, "velocity": 84, "duration": 280}, {"note": 0, "velocity": 0, "duration": 1400}, {"note": 69, "velocity": 83, "duration": 190}, {"note": 72, "velocity": 80, "duration": 136}, {"note": 0, "velocity": 0, "duration": 104}, {"note": 74, "velocity": 83, "duration": 179}, {"note": 0, "velocity": 0, "duration": 61}, {"note": 72, "velocity": 84, "duration": 145}, {"note": 0, "velocity": 0, "duration": 95}, {"note": 74, "velocity": 83, "duration": 401}, {"note": 0, "velocity": 0, "duration": 79}, {"note": 69, "velocity": 77, "duration": 209}, {"note": 72, "velocity": 82, "duration": 195}, {"note": 69, "velocity": 83, "duration": 863}, {"note": 0, "velocity": 0, "duration": 1057}, {"note": 69, "velocity": 85, "duration": 145}, {"note": 0, "velocity": 0, "duration": 95}, {"note": 69, "velocity": 82, "duration": 361}, {"note": 0, "velocity": 0, "duration": 119}, {"note": 77, "velocity": 76, "duration": 172}, {"note": 0, "velocity": 0, "duration": 68}, {"note": 74, "velocity": 83, "duration": 325}, {"note": 0, "velocity": 0, "duration": 155}, {"note": 72, "velocity": 82, "duration": 180}, {"note": 69, "velocity": 80, "duration": 169}, {"note": 0, "velocity": 0, "duration": 71}, {"note": 67, "velocity": 82, "duration": 139}, {"note": 0, "velocity": 0, "duration": 101}, {"note": 67, "velocity": 78, "duration": 324}, {"note": 0, "velocity": 0, "duration": 156}, {"note": 69, "velocity": 75, "duration": 162}, {"note": 0, "velocity": 0, "duration": 78}, {"note": 65, "velocity": 78, "duration": 480}, {"note": 62, "velocity": 82, "duration": 424}, {"note": 67, "velocity": 81, "duration": 112}, {"note": 0, "velocity": 0, "duration": 128}, {"note": 67, "velocity": 76, "duration": 130}, {"note": 0, "velocity": 0, "duration": 110}, {"note": 67, "velocity": 77, "duration": 127}, {"note": 0, "velocity": 0, "duration": 113}, {"note": 69, "velocity": 81, "duration": 148}, {"note": 0, "velocity": 0, "duration": 92}, {"note": 65, "velocity": 77, "duration": 365}, {"note": 0, "velocity": 0, "duration": 115}, {"note": 64, "velocity": 83, "duration": 367}, {"note": 0, "velocity": 0, "duration": 113}, {"note": 62, "velocity": 80, "duration": 1182}, {"note": 0, "velocity": 0, "duration": 738}, {"note": 74, "velocity": 82, "duration": 128}, {"note": 0, "velocity": 0, "duration": 112}, {"note": 74, "velocity": 83, "duration": 123}, {"note": 0, "velocity": 0, "duration": 117}, {"note": 74, "velocity": 84, "duration": 159}, {"note": 0, "velocity": 0, "duration": 81}, {"note": 72, "velocity": 82, "duration": 160}, {"note": 0, "velocity": 0, "duration": 80}, {"note": 69, "velocity": 83, "duration": 415}, {"note": 0, "velocity": 0, "duration": 65}, {"note": 77, "velocity": 82, "duration": 385}, {"note": 0, "velocity": 0, "duration": 95}, {"note": 74, "velocity": 83, "duration": 240}, {"note": 74, "velocity": 83, "duration": 334}, {"note": 0, "velocity": 0, "duration": 1346}, {"note": 69, "velocity": 82, "duration": 155}, {"note": 0, "velocity": 0, "duration": 85}, {"note": 72, "velocity": 83, "duration": 126}, {"note": 0, "velocity": 0, "duration": 114}, {"note": 74, "velocity": 82, "duration": 123}, {"note": 0, "velocity": 0, "duration": 117}, {"note": 72, "velocity": 78, "duration": 196}, {"note": 69, "velocity": 83, "duration": 396}, {"note": 0, "velocity": 0, "duration": 84}, {"note": 72, "velocity": 76, "duration": 455}, {"note": 69, "velocity": 77, "duration": 872}, {"note": 0, "velocity": 0, "duration": 1048}, {"note": 69, "velocity": 82, "duration": 135}, {"note": 0, "velocity": 0, "duration": 105}, {"note": 69, "velocity": 79, "duration": 379}, {"note": 0, "velocity": 0, "duration": 101}, {"note": 77, "velocity": 77, "duration": 169}, {"note": 0, "velocity": 0, "duration": 71}, {"note": 74, "velocity": 86, "duration": 352}, {"note": 0, "velocity": 0, "duration": 128}, {"note": 72, "velocity": 83, "duration": 150}, {"note": 0, "velocity": 0, "duration": 90}, {"note": 69, "velocity": 82, "duration": 168}, {"note": 0, "velocity": 0, "duration": 72}, {"note": 67, "velocity": 76, "duration": 129}, {"note": 0, "velocity": 0, "duration": 111}, {"note": 67, "velocity": 77, "duration": 240}, {"note": 67, "velocity": 77, "duration": 240}, {"note": 69, "velocity": 78, "duration": 148}, {"note": 0, "velocity": 0, "duration": 92}, {"note": 65, "velocity": 75, "duration": 399}, {"note": 0, "velocity": 0, "duration": 81}, {"note": 62, "velocity": 83, "duration": 421}, {"note": 67, "velocity": 77, "duration": 118}, {"note": 0, "velocity": 0, "duration": 122}, {"note": 67, "velocity": 76, "duration": 124}, {"note": 0, "velocity": 0, "duration": 116}, {"note": 67, "velocity": 77, "duration": 149}, {"note": 0, "velocity": 0, "duration": 91}, {"note": 69, "velocity": 80, "duration": 153}, {"note": 0, "velocity": 0, "duration": 87}, {"note": 65, "velocity": 76, "duration": 360}, {"note": 0, "velocity": 0, "duration": 120}, {"note": 64, "velocity": 83, "duration": 349}, {"note": 0, "velocity": 0, "duration": 131}, {"note": 62, "velocity": 78, "duration": 1065}, {"note": 0, "velocity": 0, "duration": 23895}, {"note": 74, "velocity": 84, "duration": 134}, {"note": 0, "velocity": 0, "duration": 106}, {"note": 74, "velocity": 84, "duration": 118}, {"note": 0, "velocity": 0, "duration": 122}, {"note": 74, "velocity": 86, "duration": 171}, {"note": 0, "velocity": 0, "duration": 69}, {"note": 72, "velocity": 83, "duration": 186}, {"note": 69, "velocity": 85, "duration": 410}, {"note": 0, "velocity": 0, "duration": 70}, {"note": 77, "velocity": 82, "duration": 375}, {"note": 0, "velocity": 0, "duration": 105}, {"note": 74, "velocity": 83, "duration": 133}, {"note": 0, "velocity": 0, "duration": 107}, {"note": 74, "velocity": 84, "duration": 280}, {"note": 0, "velocity": 0, "duration": 1400}, {"note": 69, "velocity": 83, "duration": 190}, {"note": 72, "velocity": 80, "duration": 136}, {"note": 0, "velocity": 0, "duration": 104}, {"note": 74, "velocity": 83, "duration": 179}, {"note": 0, "velocity": 0, "duration": 61}, {"note": 72, "velocity": 84, "duration": 145}, {"note": 0, "velocity": 0, "duration": 95}, {"note": 74, "velocity": 83, "duration": 401}, {"note": 0, "velocity": 0, "duration": 79}, {"note": 69, "velocity": 77, "duration": 209}, {"note": 72, "velocity": 82, "duration": 195}, {"note": 69, "velocity": 83, "duration": 863}, {"note": 0, "velocity": 0, "duration": 1057}, {"note": 69, "velocity": 85, "duration": 145}, {"note": 0, "velocity": 0, "duration": 95}, {"note": 69, "velocity": 82, "duration": 361}, {"note": 0, "velocity": 0, "duration": 119}, {"note": 77, "velocity": 76, "duration": 172}, {"note": 0, "velocity": 0, "duration": 68}, {"note": 74, "velocity": 83, "duration": 325}, {"note": 0, "velocity": 0, "duration": 155}, {"note": 72, "velocity": 82, "duration": 180}, {"note": 69, "velocity": 80, "duration": 169}, {"note": 0, "velocity": 0, "duration": 71}, {"note": 67, "velocity": 82, "duration": 139}, {"note": 0, "velocity": 0, "duration": 101}, {"note": 67, "velocity": 78, "duration": 324}, {"note": 0, "velocity": 0, "duration": 156}, {"note": 69, "velocity": 75, "duration": 162}, {"note": 0, "velocity": 0, "duration": 78}, {"note": 65, "velocity": 78, "duration": 480}, {"note": 62, "velocity": 82, "duration": 424}, {"note": 67, "velocity": 81, "duration": 112}, {"note": 0, "velocity": 0, "duration": 128}, {"note": 67, "velocity": 76, "duration": 130}, {"note": 0, "velocity": 0, "duration": 110}, {"note": 67, "velocity": 77, "duration": 127}, {"note": 0, "velocity": 0, "duration": 113}, {"note": 69, "velocity": 81, "duration": 148}, {"note": 0, "velocity": 0, "duration": 92}, {"note": 65, "velocity": 77, "duration": 365}, {"note": 0, "velocity": 0, "duration": 115}, {"note": 64, "velocity": 83, "duration": 367}, {"note": 0, "velocity": 0, "duration": 113}, {"note": 62, "velocity": 80, "duration": 1182}, {"note": 0, "velocity": 0, "duration": 738}, {"note": 74, "velocity": 82, "duration": 128}, {"note": 0, "velocity": 0, "duration": 112}, {"note": 74, "velocity": 83, "duration": 123}, {"note": 0, "velocity": 0, "duration": 117}, {"note": 74, "velocity": 84, "duration": 159}, {"note": 0, "velocity": 0, "duration": 81}, {"note": 72, "velocity": 82, "duration": 160}, {"note": 0, "velocity": 0, "duration": 80}, {"note": 69, "velocity": 83, "duration": 415}, {"note": 0, "velocity": 0, "duration": 65}, {"note": 77, "velocity": 82, "duration": 385}, {"note": 0, "velocity": 0, "duration": 95}, {"note": 74, "velocity": 83, "duration": 240}, {"note": 74, "velocity": 83, "duration": 334}, {"note": 0, "velocity": 0, "duration": 1346}, {"note": 69, "velocity": 82, "duration": 155}, {"note": 0, "velocity": 0, "duration": 85}, {"note": 72, "velocity": 83, "duration": 126}, {"note": 0, "velocity": 0, "duration": 114}, {"note": 74, "velocity": 82, "duration": 123}, {"note": 0, "velocity": 0, "duration": 117}, {"note": 72, "velocity": 78, "duration": 196}, {"note": 69, "velocity": 83, "duration": 396}, {"note": 0, "velocity": 0, "duration": 84}, {"note": 72, "velocity": 76, "duration": 455}, {"note": 69, "velocity": 77, "duration": 872}, {"note": 0, "velocity": 0, "duration": 1048}, {"note": 69, "velocity": 82, "duration": 135}, {"note": 0, "velocity": 0, "duration": 105}, {"note": 69, "velocity": 79, "duration": 379}, {"note": 0, "velocity": 0, "duration": 101}, {"note": 77, "velocity": 77, "duration": 169}, {"note": 0, "velocity": 0, "duration": 71}, {"note": 74, "velocity": 86, "duration": 352}, {"note": 0, "velocity": 0, "duration": 128}, {"note": 72, "velocity": 83, "duration": 150}, {"note": 0, "velocity": 0, "duration": 90}, {"note": 69, "velocity": 82, "duration": 168}, {"note": 0, "velocity": 0, "duration": 72}, {"note": 67, "velocity": 76, "duration": 129}, {"note": 0, "velocity": 0, "duration": 111}, {"note": 67, "velocity": 77, "duration": 240}, {"note": 67, "velocity": 77, "duration": 240}, {"note": 69, "velocity": 78, "duration": 148}, {"note": 0, "velocity": 0, "duration": 92}, {"note": 65, "velocity": 75, "duration": 399}, {"note": 0, "velocity": 0, "duration": 81}, {"note": 62, "velocity": 83, "duration": 421}, {"note": 67, "velocity": 77, "duration": 118}, {"note": 0, "velocity": 0, "duration": 122}, {"note": 67, "velocity": 76, "duration": 124}, {"note": 0, "velocity": 0, "duration": 116}, {"note": 67, "velocity": 77, "duration": 149}, {"note": 0, "velocity": 0, "duration": 91}, {"note": 69, "velocity": 80, "duration": 153}, {"note": 0, "velocity": 0, "duration": 87}, {"note": 65, "velocity": 76, "duration": 360}, {"note": 0, "velocity": 0, "duration": 120}, {"note": 64, "velocity": 83, "duration": 349}, {"note": 0, "velocity": 0, "duration": 131}, {"note": 62, "velocity": 78, "duration": 1065}, {"note": 0, "velocity": 0, "duration": 8535}, {"note": 74, "velocity": 84, "duration": 134}, {"note": 0, "velocity": 0, "duration": 106}, {"note": 74, "velocity": 84, "duration": 118}, {"note": 0, "velocity": 0, "duration": 122}, {"note": 74, "velocity": 86, "duration": 171}, {"note": 0, "velocity": 0, "duration": 69}, {"note": 72, "velocity": 83, "duration": 186}, {"note": 69, "velocity": 85, "duration": 410}, {"note": 0, "velocity": 0, "duration": 70}, {"note": 77, "velocity": 82, "duration": 375}, {"note": 0, "velocity": 0, "duration": 105}, {"note": 74, "velocity": 83, "duration": 133}, {"note": 0, "velocity": 0, "duration": 107}, {"note": 74, "velocity": 84, "duration": 280}, {"note": 0, "velocity": 0, "duration": 1400}, {"note": 69, "velocity": 83, "duration": 190}, {"note": 72, "velocity": 80, "duration": 136}, {"note": 0, "velocity": 0, "duration": 104}, {"note": 74, "velocity": 83, "duration": 179}, {"note": 0, "velocity": 0, "duration": 61}, {"note": 72, "velocity": 84, "duration": 145}, {"note": 0, "velocity": 0, "duration": 95}, {"note": 74, "velocity": 83, "duration": 401}, {"note": 0, "velocity": 0, "duration": 79}, {"note": 69, "velocity": 77, "duration": 209}, {"note": 72, "velocity": 82, "duration": 195}, {"note": 69, "velocity": 83, "duration": 863}, {"note": 0, "velocity": 0, "duration": 1057}, {"note": 69, "velocity": 85, "duration": 145}, {"note": 0, "velocity": 0, "duration": 95}, {"note": 69, "velocity": 82, "duration": 361}, {"note": 0, "velocity": 0, "duration": 119}, {"note": 77, "velocity": 76, "duration": 172}, {"note": 0, "velocity": 0, "duration": 68}, {"note": 74, "velocity": 83, "duration": 325}, {"note": 0, "velocity": 0, "duration": 155}, {"note": 72, "velocity": 82, "duration": 180}, {"note": 69, "velocity": 80, "duration": 169}, {"note": 0, "velocity": 0, "duration": 71}, {"note": 67, "velocity": 82, "duration": 139}, {"note": 0, "velocity": 0, "duration": 101}, {"note": 67, "velocity": 78, "duration": 324}, {"note": 0, "velocity": 0, "duration": 156}, {"note": 69, "velocity": 75, "duration": 162}, {"note": 0, "velocity": 0, "duration": 78}, {"note": 65, "velocity": 78, "duration": 480}, {"note": 62, "velocity": 82, "duration": 424}, {"note": 67, "velocity": 81, "duration": 112}, {"note": 0, "velocity": 0, "duration": 128}, {"note": 67, "velocity": 76, "duration": 130}, {"note": 0, "velocity": 0, "duration": 110}, {"note": 67, "velocity": 77, "duration": 127}, {"note": 0, "velocity": 0, "duration": 113}, {"note": 69, "velocity": 81, "duration": 148}, {"note": 0, "velocity": 0, "duration": 92}, {"note": 65, "velocity": 77, "duration": 365}, {"note": 0, "velocity": 0, "duration": 115}, {"note": 64, "velocity": 83, "duration": 367}, {"note": 0, "velocity": 0, "duration": 113}, {"note": 62, "velocity": 80, "duration": 1182}, {"note": 0, "velocity": 0, "duration": 738}, {"note": 74, "velocity": 82, "duration": 128}, {"note": 0, "velocity": 0, "duration": 112}, {"note": 74, "velocity": 83, "duration": 123}, {"note": 0, "velocity": 0, "duration": 117}, {"note": 74, "velocity": 84, "duration": 159}, {"note": 0, "velocity": 0, "duration": 81}, {"note": 72, "velocity": 82, "duration": 160}, {"note": 0, "velocity": 0, "duration": 80}, {"note": 69, "velocity": 83, "duration": 415}, {"note": 0, "velocity": 0, "duration": 65}, {"note": 77, "velocity": 82, "duration": 385}, {"note": 0, "velocity": 0, "duration": 95}, {"note": 74, "velocity": 83, "duration": 240}, {"note": 74, "velocity": 83, "duration": 334}, {"note": 0, "velocity": 0, "duration": 1346}, {"note": 69, "velocity": 82, "duration": 155}, {"note": 0, "velocity": 0, "duration": 85}, {"note": 72, "velocity": 83, "duration": 126}, {"note": 0, "velocity": 0, "duration": 114}, {"note": 74, "velocity": 82, "duration": 123}, {"note": 0, "velocity": 0, "duration": 117}, {"note": 72, "velocity": 78, "duration": 196}, {"note": 69, "velocity": 83, "duration": 396}, {"note": 0, "velocity": 0, "duration": 84}, {"note": 72, "velocity": 76, "duration": 455}, {"note": 69, "velocity": 77, "duration": 872}, {"note": 0, "velocity": 0, "duration": 1048}, {"note": 69, "velocity": 82, "duration": 135}, {"note": 0, "velocity": 0, "duration": 105}, {"note": 69, "velocity": 79, "duration": 379}, {"note": 0, "velocity": 0, "duration": 101}, {"note": 77, "velocity": 77, "duration": 169}, {"note": 0, "velocity": 0, "duration": 71}, {"note": 74, "velocity": 86, "duration": 352}, {"note": 0, "velocity": 0, "duration": 128}, {"note": 72, "velocity": 83, "duration": 150}, {"note": 0, "velocity": 0, "duration": 90}, {"note": 69, "velocity": 82, "duration": 168}, {"note": 0, "velocity": 0, "duration": 72}, {"note": 67, "velocity": 76, "duration": 129}, {"note": 0, "velocity": 0, "duration": 111}, {"note": 67, "velocity": 77, "duration": 240}, {"note": 67, "velocity": 77, "duration": 240}, {"note": 69, "velocity": 78, "duration": 148}, {"note": 0, "velocity": 0, "duration": 92}, {"note": 65, "velocity": 75, "duration": 399}, {"note": 0, "velocity": 0, "duration": 81}, {"note": 62, "velocity": 83, "duration": 421}, {"note": 67, "velocity": 77, "duration": 118}, {"note": 0, "velocity": 0, "duration": 122}, {"note": 67, "velocity": 76, "duration": 124}, {"note": 0, "velocity": 0, "duration": 116}, {"note": 67, "velocity": 77, "duration": 149}, {"note": 0, "velocity": 0, "duration": 91}, {"note": 69, "velocity": 80, "duration": 153}, {"note": 0, "velocity": 0, "duration": 87}, {"note": 65, "velocity": 76, "duration": 360}, {"note": 0, "velocity": 0, "duration": 120}, {"note": 64, "velocity": 83, "duration": 349}, {"note": 0, "velocity": 0, "duration": 131}, {"note": 62, "velocity": 78, "duration": 1065}, {"note": 0, "velocity": 0, "duration": 855}, {"note": 69, "velocity": 82, "duration": 135}, {"note": 0, "velocity": 0, "duration": 105}, {"note": 69, "velocity": 79, "duration": 379}, {"note": 0, "velocity": 0, "duration": 101}, {"note": 77, "velocity": 77, "duration": 169}, {"note": 0, "velocity": 0, "duration": 71}, {"note": 74, "velocity": 86, "duration": 352}, {"note": 0, "velocity": 0, "duration": 128}, {"note": 72, "velocity": 83, "duration": 150}, {"note": 0, "velocity": 0, "duration": 90}, {"note": 69, "velocity": 82, "duration": 168}, {"note": 0, "velocity": 0, "duration": 72}, {"note": 67, "velocity": 76, "duration": 129}, {"note": 0, "velocity": 0, "duration": 111}, {"note": 67, "velocity": 77, "duration": 240}, {"note": 67, "velocity": 77, "duration": 240}, {"note": 69, "velocity": 78, "duration": 148}, {"note": 0, "velocity": 0, "duration": 92}, {"note": 65, "velocity": 75, "duration": 399}, {"note": 0, "velocity": 0, "duration": 81}, {"note": 62, "velocity": 83, "duration": 421}, {"note": 67, "velocity": 77, "duration": 118}, {"note": 0, "velocity": 0, "duration": 122}, {"note": 67, "velocity": 76, "duration": 124}, {"note": 0, "velocity": 0, "duration": 116}, {"note": 67, "velocity": 77, "duration": 149}, {"note": 0, "velocity": 0, "duration": 91}, {"note": 69, "velocity": 80, "duration": 153}, {"note": 0, "velocity": 0, "duration": 87}, {"note": 65, "velocity": 76, "duration": 360}, {"note": 0, "velocity": 0, "duration": 120}, {"note": 64, "velocity": 83, "duration": 349}, {"note": 0, "velocity": 0, "duration": 131}, {"note": 62, "velocity": 78, "duration": 1065}, {"note": 0, "velocity": 0, "duration": 855}, {"note": 69, "velocity": 82, "duration": 135}, {"note": 0, "velocity": 0, "duration": 105}, {"note": 69, "velocity": 79, "duration": 379}, {"note": 0, "velocity": 0, "duration": 101}, {"note": 77, "velocity": 77, "duration": 169}, {"note": 0, "velocity": 0, "duration": 71}, {"note": 74, "velocity": 86, "duration": 352}, {"note": 0, "velocity": 0, "duration": 128}, {"note": 72, "velocity": 83, "duration": 150}, {"note": 0, "velocity": 0, "duration": 90}, {"note": 69, "velocity": 82, "duration": 168}, {"note": 0, "velocity": 0, "duration": 72}, {"note": 67, "velocity": 76, "duration": 129}, {"note": 0, "velocity": 0, "duration": 111}, {"note": 67, "velocity": 77, "duration": 240}, {"note": 67, "velocity": 77, "duration": 240}, {"note": 69, "velocity": 78, "duration": 148}, {"note": 0, "velocity": 0, "duration": 92}, {"note": 65, "velocity": 75, "duration": 399}, {"note": 0, "velocity": 0, "duration": 81}, {"note": 62, "velocity": 83, "duration": 421}, {"note": 67, "velocity": 77, "duration": 118}, {"note": 0, "velocity": 0, "duration": 122}, {"note": 67, "velocity": 76, "duration": 124}, {"note": 0, "velocity": 0, "duration": 116}, {"note": 67, "velocity": 77, "duration": 149}, {"note": 0, "velocity": 0, "duration": 91}, {"note": 69, "velocity": 80, "duration": 153}, {"note": 0, "velocity": 0, "duration": 87}, {"note": 77, "velocity": 76, "duration": 360}, {"note": 0, "velocity": 0, "duration": 120}, {"note": 76, "velocity": 83, "duration": 349}, {"note": 0, "velocity": 0, "duration": 131}, {"note": 74, "velocity": 78, "duration": 1065}]]