[[{"note": 67, "velocity": 83, "duration": 105}, {"note": 67, "velocity": 80, "duration": 100}, {"note": 67, "velocity": 85, "duration": 101}, {"note": 67, "velocity": 84, "duration": 108}, {"note": 66, "velocity": 86, "duration": 106}, {"note": 66, "velocity": 79, "duration": 106}, {"note": 64, "velocity": 89, "duration": 399}, {"note": 0, "velocity": 0, "duration": 241}, {"note": 71, "velocity": 84, "duration": 99}, {"note": 0, "velocity": 0, "duration": 61}, {"note": 71, "velocity": 84, "duration": 113}, {"note": 69, "velocity": 83, "duration": 125}, {"note": 66, "velocity": 85, "duration": 103}, {"note": 66, "velocity": 87, "duration": 101}, {"note": 66, "velocity": 80, "duration": 106}, {"note": 64, "velocity": 83, "duration": 90}, {"note": 0, "velocity": 0, "duration": 70}, {"note": 64, "velocity": 84, "duration": 113}, {"note": 62, "velocity": 85, "duration": 320}, {"note": 0, "velocity": 0, "duration": 160}, {"note": 59, "velocity": 86, "duration": 122}, {"note": 69, "velocity": 83, "duration": 100}, {"note": 66, "velocity": 78, "duration": 106}, {"note": 67, "velocity": 80, "duration": 115}, {"note": 66, "velocity": 86, "duration": 96}, {"note": 0, "velocity": 0, "duration": 64}, {"note": 67, "velocity": 75, "duration": 92}, {"note": 0, "velocity": 0, "duration": 68}, {"note": 67, "velocity": 85, "duration": 109}, {"note": 66, "velocity": 86, "duration": 108}, {"note": 66, "velocity": 83, "duration": 108}, {"note": 64, "velocity": 85, "duration": 365}, {"note": 0, "velocity": 0, "duration": 115}, {"note": 64, "velocity": 87, "duration": 154}, {"note": 66, "velocity": 86, "duration": 146}, {"note": 67, "velocity": 82, "duration": 109}, {"note": 67, "velocity": 84, "duration": 108}, {"note": 66, "velocity": 84, "duration": 100}, {"note": 66, "velocity": 83, "duration": 100}, {"note": 66, "velocity": 86, "duration": 116}, {"note": 63, "velocity": 79, "duration": 100}, {"note": 63, "velocity": 78, "duration": 102}, {"note": 63, "velocity": 80, "duration": 485}, {"note": 0, "velocity": 0, "duration": 475}, {"note": 67, "velocity": 83, "duration": 105}, {"note": 67, "velocity": 80, "duration": 100}, {"note": 67, "velocity": 85, "duration": 101}, {"note": 67, "velocity": 84, "duration": 108}, {"note": 66, "velocity": 86, "duration": 106}, {"note": 66, "velocity": 79, "duration": 106}, {"note": 64, "velocity": 89, "duration": 399}, {"note": 0, "velocity": 0, "duration": 241}, {"note": 71, "velocity": 84, "duration": 99}, {"note": 0, "velocity": 0, "duration": 61}, {"note": 71, "velocity": 84, "duration": 113}, {"note": 69, "velocity": 83, "duration": 125}, {"note": 66, "velocity": 85, "duration": 103}, {"note": 66, "velocity": 87, "duration": 101}, {"note": 66, "velocity": 80, "duration": 106}, {"note": 64, "velocity": 83, "duration": 90}, {"note": 0, "velocity": 0, "duration": 70}, {"note": 64, "velocity": 84, "duration": 113}, {"note": 62, "velocity": 85, "duration": 320}, {"note": 0, "velocity": 0, "duration": 160}, {"note": 59, "velocity": 86, "duration": 122}, {"note": 69, "velocity": 83, "duration": 100}, {"note": 66, "velocity": 78, "duration": 106}, {"note": 67, "velocity": 80, "duration": 115}, {"note": 66, "velocity": 86, "duration": 96}, {"note": 0, "velocity": 0, "duration": 64}, {"note": 67, "velocity": 75, "duration": 92}, {"note": 0, "velocity": 0, "duration": 68}, {"note": 67, "velocity": 85, "duration": 109}, {"note": 66, "velocity": 86, "duration": 108}, {"note": 66, "velocity": 83, "duration": 108}, {"note": 64, "velocity": 85, "duration": 365}, {"note": 0, "velocity": 0, "duration": 115}, {"note": 64, "velocity": 87, "duration": 154}, {"note": 66, "velocity": 86, "duration": 146}, {"note": 67, "velocity": 82, "duration": 109}, {"note": 71, "velocity": 84, "duration": 108}, {"note": 69, "velocity": 84, "duration": 100}, {"note": 69, "velocity": 83, "duration": 100}, {"note": 69, "velocity": 86, "duration": 116}, {"note": 66, "velocity": 79, "duration": 100}, {"note": 64, "velocity": 78, "duration": 102}, {"note": 66, "velocity": 80, "duration": 485}, {"note": 0, "velocity": 0, "duration": 155}, {"note": 67, "velocity": 83, "duration": 91}, {"note": 0, "velocity": 0, "duration": 69}, {"note": 69, "velocity": 81, "duration": 110}, {"note": 71, "velocity": 80, "duration": 112}, {"note": 76, "velocity": 85, "duration": 115}, {"note": 74, "velocity": 86, "duration": 76}, {"note": 0, "velocity": 0, "duration": 84}, {"note": 71, "velocity": 80, "duration": 135}, {"note": 69, "velocity": 77, "duration": 113}, {"note": 67, "velocity": 77, "duration": 118}, {"note": 69, "velocity": 78, "duration": 365}, {"note": 0, "velocity": 0, "duration": 275}, {"note": 62, "velocity": 85, "duration": 103}, {"note": 74, "velocity": 90, "duration": 110}, {"note": 74, "velocity": 87, "duration": 117}, {"note": 69, "velocity": 76, "duration": 98}, {"note": 0, "velocity": 0, "duration": 62}, {"note": 69, "velocity": 78, "duration": 115}, {"note": 69, "velocity": 79, "duration": 98}, {"note": 0, "velocity": 0, "duration": 62}, {"note": 67, "velocity": 77, "duration": 119}, {"note": 66, "velocity": 81, "duration": 111}, {"note": 67, "velocity": 83, "duration": 500}, {"note": 0, "velocity": 0, "duration": 140}, {"note": 64, "velocity": 86, "duration": 115}, {"note": 66, "velocity": 77, "duration": 120}, {"note": 67, "velocity": 79, "duration": 132}, {"note": 66, "velocity": 85, "duration": 97}, {"note": 0, "velocity": 0, "duration": 63}, {"note": 67, "velocity": 80, "duration": 123}, {"note": 72, "velocity": 86, "duration": 370}, {"note": 0, "velocity": 0, "duration": 110}, {"note": 67, "velocity": 74, "duration": 135}, {"note": 66, "velocity": 86, "duration": 109}, {"note": 67, "velocity": 85, "duration": 133}, {"note": 76, "velocity": 86, "duration": 369}, {"note": 0, "velocity": 0, "duration": 271}, {"note": 76, "velocity": 87, "duration": 115}, {"note": 76, "velocity": 89, "duration": 108}, {"note": 76, "velocity": 86, "duration": 120}, {"note": 74, "velocity": 86, "duration": 112}, {"note": 71, "velocity": 85, "duration": 123}, {"note": 74, "velocity": 80, "duration": 644}, {"note": 0, "velocity": 0, "duration": 796}, {"note": 66, "velocity": 87, "duration": 156}, {"note": 68, "velocity": 91, "duration": 119}, {"note": 69, "velocity": 84, "duration": 125}, {"note": 78, "velocity": 87, "duration": 103}, {"note": 78, "velocity": 87, "duration": 88}, {"note": 0, "velocity": 0, "duration": 72}, {"note": 78, "velocity": 88, "duration": 85}, {"note": 0, "velocity": 0, "duration": 75}, {"note": 78, "velocity": 87, "duration": 100}, {"note": 76, "velocity": 85, "duration": 93}, {"note": 0, "velocity": 0, "duration": 67}, {"note": 73, "velocity": 85, "duration": 117}, {"note": 71, "velocity": 85, "duration": 320}, {"note": 68, "velocity": 87, "duration": 112}, {"note": 68, "velocity": 87, "duration": 117}, {"note": 69, "velocity": 81, "duration": 110}, {"note": 71, "velocity": 87, "duration": 110}, {"note": 76, "velocity": 86, "duration": 110}, {"note": 76, "velocity": 86, "duration": 92}, {"note": 0, "velocity": 0, "duration": 68}, {"note": 76, "velocity": 85, "duration": 104}, {"note": 76, "velocity": 86, "duration": 122}, {"note": 71, "velocity": 83, "duration": 112}, {"note": 71, "velocity": 85, "duration": 107}, {"note": 69, "velocity": 89, "duration": 331}, {"note": 66, "velocity": 80, "duration": 120}, {"note": 66, "velocity": 85, "duration": 132}, {"note": 68, "velocity": 87, "duration": 93}, {"note": 0, "velocity": 0, "duration": 67}, {"note": 69, "velocity": 81, "duration": 128}, {"note": 78, "velocity": 86, "duration": 102}, {"note": 78, "velocity": 87, "duration": 91}, {"note": 0, "velocity": 0, "duration": 69}, {"note": 78, "velocity": 85, "duration": 90}, {"note": 0, "velocity": 0, "duration": 70}, {"note": 78, "velocity": 86, "duration": 106}, {"note": 76, "velocity": 81, "duration": 103}, {"note": 73, "velocity": 78, "duration": 115}, {"note": 71, "velocity": 86, "duration": 320}, {"note": 0, "velocity": 0, "duration": 160}, {"note": 68, "velocity": 89, "duration": 134}, {"note": 69, "velocity": 80, "duration": 120}, {"note": 71, "velocity": 86, "duration": 120}, {"note": 74, "velocity": 91, "duration": 320}, {"note": 73, "velocity": 79, "duration": 115}, {"note": 73, "velocity": 89, "duration": 264}, {"note": 72, "velocity": 85, "duration": 160}, {"note": 73, "velocity": 87, "duration": 382}, {"note": 0, "velocity": 0, "duration": 98}, {"note": 66, "velocity": 87, "duration": 156}, {"note": 68, "velocity": 91, "duration": 119}, {"note": 69, "velocity": 84, "duration": 125}, {"note": 78, "velocity": 87, "duration": 103}, {"note": 78, "velocity": 87, "duration": 88}, {"note": 0, "velocity": 0, "duration": 72}, {"note": 78, "velocity": 88, "duration": 85}, {"note": 0, "velocity": 0, "duration": 75}, {"note": 78, "velocity": 87, "duration": 100}, {"note": 76, "velocity": 85, "duration": 93}, {"note": 0, "velocity": 0, "duration": 67}, {"note": 73, "velocity": 85, "duration": 117}, {"note": 71, "velocity": 85, "duration": 320}, {"note": 68, "velocity": 87, "duration": 112}, {"note": 68, "velocity": 87, "duration": 117}, {"note": 69, "velocity": 81, "duration": 110}, {"note": 71, "velocity": 87, "duration": 110}, {"note": 76, "velocity": 86, "duration": 110}, {"note": 76, "velocity": 86, "duration": 92}, {"note": 0, "velocity": 0, "duration": 68}, {"note": 76, "velocity": 85, "duration": 104}, {"note": 76, "velocity": 86, "duration": 122}, {"note": 73, "velocity": 83, "duration": 112}, {"note": 80, "velocity": 85, "duration": 107}, {"note": 78, "velocity": 89, "duration": 331}, {"note": 0, "velocity": 0, "duration": 149}, {"note": 66, "velocity": 85, "duration": 132}, {"note": 68, "velocity": 87, "duration": 93}, {"note": 0, "velocity": 0, "duration": 67}, {"note": 69, "velocity": 81, "duration": 128}, {"note": 76, "velocity": 86, "duration": 320}, {"note": 74, "velocity": 85, "duration": 160}, {"note": 74, "velocity": 86, "duration": 106}, {"note": 73, "velocity": 81, "duration": 103}, {"note": 69, "velocity": 78, "duration": 115}, {"note": 71, "velocity": 86, "duration": 320}, {"note": 0, "velocity": 0, "duration": 160}, {"note": 68, "velocity": 89, "duration": 134}, {"note": 69, "velocity": 80, "duration": 120}, {"note": 71, "velocity": 86, "duration": 120}, {"note": 71, "velocity": 91, "duration": 320}, {"note": 69, "velocity": 79, "duration": 1120}, {"note": 0, "velocity": 0, "duration": 2080}, {"note": 71, "velocity": 84, "duration": 99}, {"note": 0, "velocity": 0, "duration": 61}, {"note": 71, "velocity": 84, "duration": 113}, {"note": 69, "velocity": 83, "duration": 125}, {"note": 66, "velocity": 85, "duration": 103}, {"note": 66, "velocity": 87, "duration": 101}, {"note": 66, "velocity": 80, "duration": 106}, {"note": 64, "velocity": 83, "duration": 90}, {"note": 0, "velocity": 0, "duration": 70}, {"note": 64, "velocity": 84, "duration": 113}, {"note": 62, "velocity": 85, "duration": 320}, {"note": 0, "velocity": 0, "duration": 160}, {"note": 59, "velocity": 86, "duration": 122}, {"note": 69, "velocity": 83, "duration": 100}, {"note": 66, "velocity": 78, "duration": 106}, {"note": 67, "velocity": 80, "duration": 115}, {"note": 66, "velocity": 86, "duration": 96}, {"note": 0, "velocity": 0, "duration": 64}, {"note": 67, "velocity": 75, "duration": 92}, {"note": 0, "velocity": 0, "duration": 68}, {"note": 67, "velocity": 85, "duration": 109}, {"note": 66, "velocity": 86, "duration": 108}, {"note": 66, "velocity": 83, "duration": 108}, {"note": 64, "velocity": 85, "duration": 365}, {"note": 0, "velocity": 0, "duration": 115}, {"note": 64, "velocity": 87, "duration": 154}, {"note": 66, "velocity": 86, "duration": 146}, {"note": 67, "velocity": 82, "duration": 109}, {"note": 67, "velocity": 84, "duration": 108}, {"note": 66, "velocity": 84, "duration": 100}, {"note": 66, "velocity": 83, "duration": 100}, {"note": 66, "velocity": 86, "duration": 116}, {"note": 63, "velocity": 79, "duration": 100}, {"note": 63, "velocity": 78, "duration": 102}, {"note": 63, "velocity": 80, "duration": 485}, {"note": 0, "velocity": 0, "duration": 475}, {"note": 67, "velocity": 83, "duration": 105}, {"note": 67, "velocity": 80, "duration": 100}, {"note": 67, "velocity": 85, "duration": 101}, {"note": 67, "velocity": 84, "duration": 108}, {"note": 66, "velocity": 86, "duration": 106}, {"note": 66, "velocity": 79, "duration": 106}, {"note": 64, "velocity": 89, "duration": 399}, {"note": 0, "velocity": 0, "duration": 241}, {"note": 71, "velocity": 84, "duration": 99}, {"note": 0, "velocity": 0, "duration": 61}, {"note": 71, "velocity": 84, "duration": 113}, {"note": 69, "velocity": 83, "duration": 125}, {"note": 66, "velocity": 85, "duration": 103}, {"note": 66, "velocity": 87, "duration": 101}, {"note": 66, "velocity": 80, "duration": 106}, {"note": 64, "velocity": 83, "duration": 90}, {"note": 0, "velocity": 0, "duration": 70}, {"note": 64, "velocity": 84, "duration": 113}, {"note": 62, "velocity": 85, "duration": 320}, {"note": 0, "velocity": 0, "duration": 160}, {"note": 59, "velocity": 86, "duration": 122}, {"note": 69, "velocity": 83, "duration": 100}, {"note": 66, "velocity": 78, "duration": 106}, {"note": 67, "velocity": 80, "duration": 115}, {"note": 66, "velocity": 86, "duration": 96}, {"note": 0, "velocity": 0, "duration": 64}, {"note": 67, "velocity": 75, "duration": 92}, {"note": 0, "velocity": 0, "duration": 68}, {"note": 67, "velocity": 85, "duration": 109}, {"note": 66, "velocity": 86, "duration": 108}, {"note": 66, "velocity": 83, "duration": 108}, {"note": 64, "velocity": 85, "duration": 365}, {"note": 0, "velocity": 0, "duration": 115}, {"note": 64, "velocity": 87, "duration": 154}, {"note": 66, "velocity": 86, "duration": 146}, {"note": 67, "velocity": 82, "duration": 109}, {"note": 71, "velocity": 84, "duration": 108}, {"note": 69, "velocity": 84, "duration": 100}, {"note": 69, "velocity": 83, "duration": 100}, {"note": 69, "velocity": 86, "duration": 116}, {"note": 66, "velocity": 79, "duration": 100}, {"note": 64, "velocity": 78, "duration": 102}, {"note": 66, "velocity": 80, "duration": 485}, {"note": 0, "velocity": 0, "duration": 155}, {"note": 67, "velocity": 83, "duration": 91}, {"note": 0, "velocity": 0, "duration": 69}, {"note": 69, "velocity": 81, "duration": 110}, {"note": 71, "velocity": 80, "duration": 112}, {"note": 76, "velocity": 85, "duration": 115}, {"note": 74, "velocity": 86, "duration": 76}, {"note": 0, "velocity": 0, "duration": 84}, {"note": 71, "velocity": 80, "duration": 135}, {"note": 69, "velocity": 77, "duration": 113}, {"note": 67, "velocity": 77, "duration": 118}, {"note": 69, "velocity": 78, "duration": 365}, {"note": 0, "velocity": 0, "duration": 275}, {"note": 62, "velocity": 85, "duration": 103}, {"note": 74, "velocity": 90, "duration": 110}, {"note": 74, "velocity": 87, "duration": 117}, {"note": 69, "velocity": 76, "duration": 98}, {"note": 0, "velocity": 0, "duration": 62}, {"note": 69, "velocity": 78, "duration": 115}, {"note": 69, "velocity": 79, "duration": 98}, {"note": 0, "velocity": 0, "duration": 62}, {"note": 67, "velocity": 77, "duration": 119}, {"note": 66, "velocity": 81, "duration": 111}, {"note": 67, "velocity": 83, "duration": 500}, {"note": 0, "velocity": 0, "duration": 140}, {"note": 64, "velocity": 86, "duration": 115}, {"note": 66, "velocity": 77, "duration": 120}, {"note": 67, "velocity": 79, "duration": 132}, {"note": 66, "velocity": 85, "duration": 97}, {"note": 0, "velocity": 0, "duration": 63}, {"note": 67, "velocity": 80, "duration": 123}, {"note": 72, "velocity": 86, "duration": 370}, {"note": 0, "velocity": 0, "duration": 110}, {"note": 67, "velocity": 74, "duration": 135}, {"note": 66, "velocity": 86, "duration": 109}, {"note": 67, "velocity": 85, "duration": 133}, {"note": 76, "velocity": 86, "duration": 369}, {"note": 0, "velocity": 0, "duration": 271}, {"note": 76, "velocity": 87, "duration": 115}, {"note": 76, "velocity": 89, "duration": 108}, {"note": 76, "velocity": 86, "duration": 120}, {"note": 74, "velocity": 86, "duration": 112}, {"note": 71, "velocity": 85, "duration": 123}, {"note": 74, "velocity": 80, "duration": 644}, {"note": 0, "velocity": 0, "duration": 796}, {"note": 66, "velocity": 87, "duration": 156}, {"note": 68, "velocity": 91, "duration": 119}, {"note": 69, "velocity": 84, "duration": 125}, {"note": 78, "velocity": 87, "duration": 103}, {"note": 78, "velocity": 87, "duration": 88}, {"note": 0, "velocity": 0, "duration": 72}, {"note": 78, "velocity": 88, "duration": 85}, {"note": 0, "velocity": 0, "duration": 75}, {"note": 78, "velocity": 87, "duration": 100}, {"note": 76, "velocity": 85, "duration": 93}, {"note": 0, "velocity": 0, "duration": 67}, {"note": 73, "velocity": 85, "duration": 117}, {"note": 71, "velocity": 85, "duration": 320}, {"note": 68, "velocity": 87, "duration": 112}, {"note": 68, "velocity": 87, "duration": 117}, {"note": 69, "velocity": 81, "duration": 110}, {"note": 71, "velocity": 87, "duration": 110}, {"note": 76, "velocity": 86, "duration": 110}, {"note": 76, "velocity": 86, "duration": 92}, {"note": 0, "velocity": 0, "duration": 68}, {"note": 76, "velocity": 85, "duration": 104}, {"note": 76, "velocity": 86, "duration": 122}, {"note": 71, "velocity": 83, "duration": 112}, {"note": 71, "velocity": 85, "duration": 107}, {"note": 69, "velocity": 89, "duration": 331}, {"note": 66, "velocity": 80, "duration": 120}, {"note": 66, "velocity": 85, "duration": 132}, {"note": 68, "velocity": 87, "duration": 93}, {"note": 0, "velocity": 0, "duration": 67}, {"note": 69, "velocity": 81, "duration": 128}, {"note": 78, "velocity": 86, "duration": 102}, {"note": 78, "velocity": 87, "duration": 91}, {"note": 0, "velocity": 0, "duration": 69}, {"note": 78, "velocity": 85, "duration": 90}, {"note": 0, "velocity": 0, "duration": 70}, {"note": 78, "velocity": 86, "duration": 106}, {"note": 76, "velocity": 81, "duration": 103}, {"note": 73, "velocity": 78, "duration": 115}, {"note": 71, "velocity": 86, "duration": 320}, {"note": 0, "velocity": 0, "duration": 160}, {"note": 68, "velocity": 89, "duration": 134}, {"note": 69, "velocity": 80, "duration": 120}, {"note": 71, "velocity": 86, "duration": 120}, {"note": 74, "velocity": 91, "duration": 320}, {"note": 73, "velocity": 79, "duration": 115}, {"note": 73, "velocity": 89, "duration": 264}, {"note": 72, "velocity": 85, "duration": 160}, {"note": 73, "velocity": 87, "duration": 382}, {"note": 0, "velocity": 0, "duration": 98}, {"note": 66, "velocity": 87, "duration": 156}, {"note": 68, "velocity": 91, "duration": 119}, {"note": 69, "velocity": 84, "duration": 125}, {"note": 78, "velocity": 87, "duration": 103}, {"note": 78, "velocity": 87, "duration": 88}, {"note": 0, "velocity": 0, "duration": 72}, {"note": 78, "velocity": 88, "duration": 85}, {"note": 0, "velocity": 0, "duration": 75}, {"note": 78, "velocity": 87, "duration": 100}, {"note": 76, "velocity": 85, "duration": 93}, {"note": 0, "velocity": 0, "duration": 67}, {"note": 73, "velocity": 85, "duration": 117}, {"note": 71, "velocity": 85, "duration": 320}, {"note": 68, "velocity": 87, "duration": 112}, {"note": 68, "velocity": 87, "duration": 117}, {"note": 69, "velocity": 81, "duration": 110}, {"note": 71, "velocity": 87, "duration": 110}, {"note": 76, "velocity": 86, "duration": 110}, {"note": 76, "velocity": 86, "duration": 92}, {"note": 0, "velocity": 0, "duration": 68}, {"note": 76, "velocity": 85, "duration": 104}, {"note": 76, "velocity": 86, "duration": 122}, {"note": 73, "velocity": 83, "duration": 112}, {"note": 80, "velocity": 85, "duration": 107}, {"note": 78, "velocity": 89, "duration": 331}, {"note": 0, "velocity": 0, "duration": 149}, {"note": 66, "velocity": 85, "duration": 132}, {"note": 68, "velocity": 87, "duration": 93}, {"note": 0, "velocity": 0, "duration": 67}, {"note": 69, "velocity": 81, "duration": 128}, {"note": 76, "velocity": 86, "duration": 320}, {"note": 74, "velocity": 85, "duration": 160}, {"note": 74, "velocity": 86, "duration": 106}, {"note": 73, "velocity": 81, "duration": 103}, {"note": 69, "velocity": 78, "duration": 115}, {"note": 71, "velocity": 86, "duration": 320}, {"note": 0, "velocity": 0, "duration": 160}, {"note": 68, "velocity": 89, "duration": 134}, {"note": 69, "velocity": 80, "duration": 120}, {"note": 71, "velocity": 86, "duration": 120}, {"note": 71, "velocity": 91, "duration": 320}, {"note": 69, "velocity": 79, "duration": 1120}, {"note": 0, "velocity": 0, "duration": 7680}, {"note": 66, "velocity": 87, "duration": 156}, {"note": 68, "velocity": 91, "duration": 119}, {"note": 69, "velocity": 84, "duration": 125}, {"note": 78, "velocity": 87, "duration": 103}, {"note": 78, "velocity": 87, "duration": 88}, {"note": 0, "velocity": 0, "duration": 72}, {"note": 78, "velocity": 88, "duration": 85}, {"note": 0, "velocity": 0, "duration": 75}, {"note": 78, "velocity": 87, "duration": 100}, {"note": 76, "velocity": 85, "duration": 93}, {"note": 0, "velocity": 0, "duration": 67}, {"note": 73, "velocity": 85, "duration": 117}, {"note": 71, "velocity": 85, "duration": 320}, {"note": 68, "velocity": 87, "duration": 112}, {"note": 68, "velocity": 87, "duration": 117}, {"note": 69, "velocity": 81, "duration": 110}, {"note": 71, "velocity": 87, "duration": 110}, {"note": 76, "velocity": 86, "duration": 110}, {"note": 76, "velocity": 86, "duration": 92}, {"note": 0, "velocity": 0, "duration": 68}, {"note": 76, "velocity": 85, "duration": 104}, {"note": 76, "velocity": 86, "duration": 122}, {"note": 71, "velocity": 83, "duration": 112}, {"note": 71, "velocity": 85, "duration": 107}, {"note": 69, "velocity": 89, "duration": 331}, {"note": 66, "velocity": 80, "duration": 120}, {"note": 66, "velocity": 85, "duration": 132}, {"note": 68, "velocity": 87, "duration": 93}, {"note": 0, "velocity": 0, "duration": 67}, {"note": 69, "velocity": 81, "duration": 128}, {"note": 78, "velocity": 86, "duration": 102}, {"note": 78, "velocity": 87, "duration": 91}, {"note": 0, "velocity": 0, "duration": 69}, {"note": 78, "velocity": 85, "duration": 90}, {"note": 0, "velocity": 0, "duration": 70}, {"note": 78, "velocity": 86, "duration": 106}, {"note": 76, "velocity": 81, "duration": 103}, {"note": 73, "velocity": 78, "duration": 115}, {"note": 71, "velocity": 86, "duration": 320}, {"note": 0, "velocity": 0, "duration": 160}, {"note": 68, "velocity": 89, "duration": 134}, {"note": 69, "velocity": 80, "duration": 120}, {"note": 71, "velocity": 86, "duration": 120}, {"note": 74, "velocity": 91, "duration": 320}, {"note": 73, "velocity": 79, "duration": 115}, {"note": 73, "velocity": 89, "duration": 264}, {"note": 72, "velocity": 85, "duration": 160}, {"note": 73, "velocity": 87, "duration": 382}, {"note": 0, "velocity": 0, "duration": 98}, {"note": 66, "velocity": 87, "duration": 156}, {"note": 68, "velocity": 91, "duration": 119}, {"note": 69, "velocity": 84, "duration": 125}, {"note": 78, "velocity": 87, "duration": 103}, {"note": 78, "velocity": 87, "duration": 88}, {"note": 0, "velocity": 0, "duration": 72}, {"note": 78, "velocity": 88, "duration": 85}, {"note": 0, "velocity": 0, "duration": 75}, {"note": 78, "velocity": 87, "duration": 100}, {"note": 76, "velocity": 85, "duration": 93}, {"note": 0, "velocity": 0, "duration": 67}, {"note": 73, "velocity": 85, "duration": 117}, {"note": 71, "velocity": 85, "duration": 320}, {"note": 68, "velocity": 87, "duration": 112}, {"note": 68, "velocity": 87, "duration": 117}, {"note": 69, "velocity": 81, "duration": 110}, {"note": 71, "velocity": 87, "duration": 110}, {"note": 76, "velocity": 86, "duration": 110}, {"note": 76, "velocity": 86, "duration": 92}, {"note": 0, "velocity": 0, "duration": 68}, {"note": 76, "velocity": 85, "duration": 104}, {"note": 76, "velocity": 86, "duration": 122}, {"note": 73, "velocity": 83, "duration": 112}, {"note": 80, "velocity": 85, "duration": 107}, {"note": 78, "velocity": 89, "duration": 331}, {"note": 0, "velocity": 0, "duration": 149}, {"note": 66, "velocity": 85, "duration": 132}, {"note": 68, "velocity": 87, "duration": 93}, {"note": 0, "velocity": 0, "duration": 67}, {"note": 69, "velocity": 81, "duration": 128}, {"note": 76, "velocity": 86, "duration": 320}, {"note": 74, "velocity": 85, "duration": 160}, {"note": 74, "velocity": 86, "duration": 106}, {"note": 73, "velocity": 81, "duration": 103}, {"note": 69, "velocity": 78, "duration": 115}, {"note": 71, "velocity": 86, "duration": 320}, {"note": 0, "velocity": 0, "duration": 160}, {"note": 68, "velocity": 89, "duration": 134}, {"note": 69, "velocity": 80, "duration": 120}, {"note": 71, "velocity": 86, "duration": 120}, {"note": 71, "velocity": 91, "duration": 320}, {"note": 69, "velocity": 79, "duration": 1120}]]