[[{"note": 70, "velocity": 84, "duration": 80}, {"note": 70, "velocity": 85, "duration": 74}, {"note": 70, "velocity": 88, "duration": 222}, {"note": 68, "velocity": 85, "duration": 98}, {"note": 70, "velocity": 85, "duration": 101}, {"note": 71, "velocity": 85, "duration": 830}, {"note": 0, "velocity": 0, "duration": 370}, {"note": 68, "velocity": 83, "duration": 75}, {"note": 68, "velocity": 82, "duration": 76}, {"note": 68, "velocity": 85, "duration": 178}, {"note": 73, "velocity": 85, "duration": 89}, {"note": 68, "velocity": 86, "duration": 84}, {"note": 70, "velocity": 86, "duration": 763}, {"note": 0, "velocity": 0, "duration": 442}, {"note": 66, "velocity": 87, "duration": 106}, {"note": 65, "velocity": 86, "duration": 111}, {"note": 66, "velocity": 90, "duration": 160}, {"note": 0, "velocity": 0, "duration": 81}, {"note": 73, "velocity": 89, "duration": 155}, {"note": 0, "velocity": 0, "duration": 78}, {"note": 75, "velocity": 88, "duration": 143}, {"note": 0, "velocity": 0, "duration": 101}, {"note": 70, "velocity": 87, "duration": 79}, {"note": 68, "velocity": 86, "duration": 206}, {"note": 66, "velocity": 84, "duration": 365}, {"note": 71, "velocity": 88, "duration": 187}, {"note": 70, "velocity": 86, "duration": 216}, {"note": 66, "velocity": 85, "duration": 88}, {"note": 68, "velocity": 86, "duration": 288}, {"note": 68, "velocity": 87, "duration": 876}, {"note": 0, "velocity": 0, "duration": 343}, {"note": 70, "velocity": 90, "duration": 65}, {"note": 70, "velocity": 86, "duration": 65}, {"note": 70, "velocity": 89, "duration": 241}, {"note": 73, "velocity": 86, "duration": 269}, {"note": 71, "velocity": 87, "duration": 634}, {"note": 0, "velocity": 0, "duration": 89}, {"note": 75, "velocity": 92, "duration": 188}, {"note": 73, "velocity": 86, "duration": 266}, {"note": 77, "velocity": 87, "duration": 169}, {"note": 0, "velocity": 0, "duration": 68}, {"note": 73, "velocity": 86, "duration": 255}, {"note": 71, "velocity": 88, "duration": 233}, {"note": 70, "velocity": 85, "duration": 499}, {"note": 0, "velocity": 0, "duration": 224}, {"note": 66, "velocity": 87, "duration": 92}, {"note": 65, "velocity": 88, "duration": 82}, {"note": 66, "velocity": 87, "duration": 187}, {"note": 75, "velocity": 89, "duration": 86}, {"note": 75, "velocity": 89, "duration": 65}, {"note": 75, "velocity": 92, "duration": 157}, {"note": 0, "velocity": 0, "duration": 69}, {"note": 66, "velocity": 87, "duration": 66}, {"note": 66, "velocity": 84, "duration": 81}, {"note": 65, "velocity": 87, "duration": 195}, {"note": 73, "velocity": 81, "duration": 77}, {"note": 73, "velocity": 83, "duration": 74}, {"note": 73, "velocity": 86, "duration": 159}, {"note": 0, "velocity": 0, "duration": 70}, {"note": 66, "velocity": 89, "duration": 91}, {"note": 68, "velocity": 86, "duration": 204}, {"note": 70, "velocity": 86, "duration": 544}, {"note": 70, "velocity": 86, "duration": 81}, {"note": 68, "velocity": 82, "duration": 78}, {"note": 70, "velocity": 89, "duration": 219}, {"note": 75, "velocity": 87, "duration": 92}, {"note": 73, "velocity": 85, "duration": 212}, {"note": 70, "velocity": 86, "duration": 385}, {"note": 68, "velocity": 83, "duration": 1030}, {"note": 0, "velocity": 0, "duration": 1138}, {"note": 66, "velocity": 87, "duration": 90}, {"note": 78, "velocity": 81, "duration": 149}, {"note": 77, "velocity": 96, "duration": 155}, {"note": 73, "velocity": 85, "duration": 158}, {"note": 0, "velocity": 0, "duration": 82}, {"note": 70, "velocity": 87, "duration": 152}, {"note": 75, "velocity": 89, "duration": 832}, {"note": 0, "velocity": 0, "duration": 368}, {"note": 66, "velocity": 87, "duration": 90}, {"note": 78, "velocity": 81, "duration": 149}, {"note": 77, "velocity": 96, "duration": 155}, {"note": 73, "velocity": 85, "duration": 158}, {"note": 0, "velocity": 0, "duration": 82}, {"note": 70, "velocity": 87, "duration": 152}, {"note": 73, "velocity": 89, "duration": 832}, {"note": 0, "velocity": 0, "duration": 570}, {"note": 70, "velocity": 89, "duration": 154}, {"note": 71, "velocity": 86, "duration": 136}, {"note": 73, "velocity": 91, "duration": 97}, {"note": 0, "velocity": 0, "duration": 64}, {"note": 75, "velocity": 89, "duration": 185}, {"note": 66, "velocity": 87, "duration": 163}, {"note": 0, "velocity": 0, "duration": 85}, {"note": 70, "velocity": 87, "duration": 124}, {"note": 71, "velocity": 89, "duration": 116}, {"note": 73, "velocity": 87, "duration": 92}, {"note": 75, "velocity": 90, "duration": 211}, {"note": 66, "velocity": 86, "duration": 211}, {"note": 75, "velocity": 91, "duration": 222}, {"note": 73, "velocity": 88, "duration": 145}, {"note": 75, "velocity": 92, "duration": 344}, {"note": 70, "velocity": 87, "duration": 784}, {"note": 0, "velocity": 0, "duration": 196}, {"note": 66, "velocity": 87, "duration": 90}, {"note": 78, "velocity": 81, "duration": 149}, {"note": 77, "velocity": 96, "duration": 155}, {"note": 73, "velocity": 85, "duration": 158}, {"note": 0, "velocity": 0, "duration": 82}, {"note": 70, "velocity": 87, "duration": 152}, {"note": 75, "velocity": 89, "duration": 832}, {"note": 0, "velocity": 0, "duration": 359}, {"note": 77, "velocity": 87, "duration": 82}, {"note": 78, "velocity": 86, "duration": 89}, {"note": 77, "velocity": 102, "duration": 174}, {"note": 78, "velocity": 89, "duration": 170}, {"note": 0, "velocity": 0, "duration": 78}, {"note": 80, "velocity": 87, "duration": 134}, {"note": 77, "velocity": 90, "duration": 136}, {"note": 73, "velocity": 91, "duration": 109}, {"note": 80, "velocity": 89, "duration": 139}, {"note": 77, "velocity": 88, "duration": 125}, {"note": 73, "velocity": 89, "duration": 112}, {"note": 78, "velocity": 87, "duration": 428}, {"note": 70, "velocity": 89, "duration": 154}, {"note": 71, "velocity": 86, "duration": 136}, {"note": 73, "velocity": 91, "duration": 97}, {"note": 0, "velocity": 0, "duration": 64}, {"note": 75, "velocity": 89, "duration": 185}, {"note": 0, "velocity": 0, "duration": 289}, {"note": 75, "velocity": 87, "duration": 124}, {"note": 73, "velocity": 89, "duration": 116}, {"note": 70, "velocity": 87, "duration": 92}, {"note": 70, "velocity": 90, "duration": 211}, {"note": 0, "velocity": 0, "duration": 269}, {"note": 71, "velocity": 89, "duration": 143}, {"note": 70, "velocity": 89, "duration": 153}, {"note": 66, "velocity": 86, "duration": 133}, {"note": 68, "velocity": 85, "duration": 239}, {"note": 66, "velocity": 89, "duration": 1616}, {"note": 0, "velocity": 0, "duration": 6047}, {"note": 70, "velocity": 84, "duration": 80}, {"note": 70, "velocity": 85, "duration": 74}, {"note": 70, "velocity": 88, "duration": 222}, {"note": 68, "velocity": 85, "duration": 98}, {"note": 70, "velocity": 85, "duration": 101}, {"note": 71, "velocity": 85, "duration": 830}, {"note": 0, "velocity": 0, "duration": 370}, {"note": 68, "velocity": 83, "duration": 75}, {"note": 68, "velocity": 82, "duration": 76}, {"note": 68, "velocity": 85, "duration": 178}, {"note": 73, "velocity": 85, "duration": 89}, {"note": 68, "velocity": 86, "duration": 84}, {"note": 70, "velocity": 86, "duration": 763}, {"note": 0, "velocity": 0, "duration": 442}, {"note": 66, "velocity": 87, "duration": 106}, {"note": 65, "velocity": 86, "duration": 111}, {"note": 66, "velocity": 90, "duration": 160}, {"note": 0, "velocity": 0, "duration": 81}, {"note": 73, "velocity": 89, "duration": 155}, {"note": 0, "velocity": 0, "duration": 78}, {"note": 75, "velocity": 88, "duration": 143}, {"note": 0, "velocity": 0, "duration": 101}, {"note": 70, "velocity": 87, "duration": 79}, {"note": 68, "velocity": 86, "duration": 206}, {"note": 66, "velocity": 84, "duration": 365}, {"note": 71, "velocity": 88, "duration": 187}, {"note": 70, "velocity": 86, "duration": 216}, {"note": 66, "velocity": 85, "duration": 88}, {"note": 68, "velocity": 86, "duration": 288}, {"note": 68, "velocity": 87, "duration": 876}, {"note": 0, "velocity": 0, "duration": 343}, {"note": 70, "velocity": 90, "duration": 65}, {"note": 70, "velocity": 86, "duration": 65}, {"note": 70, "velocity": 89, "duration": 241}, {"note": 73, "velocity": 86, "duration": 269}, {"note": 71, "velocity": 87, "duration": 634}, {"note": 0, "velocity": 0, "duration": 89}, {"note": 75, "velocity": 92, "duration": 188}, {"note": 73, "velocity": 86, "duration": 266}, {"note": 77, "velocity": 87, "duration": 169}, {"note": 0, "velocity": 0, "duration": 68}, {"note": 73, "velocity": 86, "duration": 255}, {"note": 71, "velocity": 88, "duration": 233}, {"note": 70, "velocity": 85, "duration": 499}, {"note": 0, "velocity": 0, "duration": 224}, {"note": 66, "velocity": 87, "duration": 92}, {"note": 65, "velocity": 88, "duration": 82}, {"note": 66, "velocity": 87, "duration": 187}, {"note": 75, "velocity": 89, "duration": 86}, {"note": 75, "velocity": 89, "duration": 65}, {"note": 75, "velocity": 92, "duration": 157}, {"note": 0, "velocity": 0, "duration": 69}, {"note": 66, "velocity": 87, "duration": 66}, {"note": 66, "velocity": 84, "duration": 81}, {"note": 65, "velocity": 87, "duration": 195}, {"note": 73, "velocity": 81, "duration": 77}, {"note": 73, "velocity": 83, "duration": 74}, {"note": 73, "velocity": 86, "duration": 159}, {"note": 0, "velocity": 0, "duration": 70}, {"note": 66, "velocity": 89, "duration": 91}, {"note": 68, "velocity": 86, "duration": 204}, {"note": 70, "velocity": 86, "duration": 544}, {"note": 70, "velocity": 86, "duration": 81}, {"note": 68, "velocity": 82, "duration": 78}, {"note": 70, "velocity": 89, "duration": 219}, {"note": 75, "velocity": 87, "duration": 92}, {"note": 73, "velocity": 85, "duration": 212}, {"note": 70, "velocity": 86, "duration": 385}, {"note": 68, "velocity": 83, "duration": 1030}, {"note": 0, "velocity": 0, "duration": 178}, {"note": 66, "velocity": 87, "duration": 90}, {"note": 78, "velocity": 81, "duration": 149}, {"note": 77, "velocity": 96, "duration": 155}, {"note": 73, "velocity": 85, "duration": 158}, {"note": 0, "velocity": 0, "duration": 82}, {"note": 70, "velocity": 87, "duration": 152}, {"note": 75, "velocity": 89, "duration": 832}, {"note": 0, "velocity": 0, "duration": 368}, {"note": 66, "velocity": 87, "duration": 90}, {"note": 78, "velocity": 81, "duration": 149}, {"note": 77, "velocity": 96, "duration": 155}, {"note": 73, "velocity": 85, "duration": 158}, {"note": 0, "velocity": 0, "duration": 82}, {"note": 70, "velocity": 87, "duration": 152}, {"note": 73, "velocity": 89, "duration": 832}, {"note": 0, "velocity": 0, "duration": 570}, {"note": 70, "velocity": 89, "duration": 154}, {"note": 71, "velocity": 86, "duration": 136}, {"note": 73, "velocity": 91, "duration": 97}, {"note": 0, "velocity": 0, "duration": 64}, {"note": 75, "velocity": 89, "duration": 185}, {"note": 66, "velocity": 87, "duration": 163}, {"note": 0, "velocity": 0, "duration": 85}, {"note": 70, "velocity": 87, "duration": 124}, {"note": 71, "velocity": 89, "duration": 116}, {"note": 73, "velocity": 87, "duration": 92}, {"note": 75, "velocity": 90, "duration": 211}, {"note": 66, "velocity": 86, "duration": 211}, {"note": 75, "velocity": 91, "duration": 222}, {"note": 73, "velocity": 88, "duration": 145}, {"note": 75, "velocity": 92, "duration": 344}, {"note": 70, "velocity": 87, "duration": 784}, {"note": 0, "velocity": 0, "duration": 196}, {"note": 66, "velocity": 87, "duration": 90}, {"note": 78, "velocity": 81, "duration": 149}, {"note": 77, "velocity": 96, "duration": 155}, {"note": 73, "velocity": 85, "duration": 158}, {"note": 0, "velocity": 0, "duration": 82}, {"note": 70, "velocity": 87, "duration": 152}, {"note": 75, "velocity": 89, "duration": 832}, {"note": 0, "velocity": 0, "duration": 359}, {"note": 77, "velocity": 87, "duration": 82}, {"note": 78, "velocity": 86, "duration": 89}, {"note": 77, "velocity": 102, "duration": 174}, {"note": 78, "velocity": 89, "duration": 170}, {"note": 0, "velocity": 0, "duration": 78}, {"note": 80, "velocity": 87, "duration": 134}, {"note": 77, "velocity": 90, "duration": 136}, {"note": 73, "velocity": 91, "duration": 109}, {"note": 80, "velocity": 89, "duration": 139}, {"note": 77, "velocity": 88, "duration": 125}, {"note": 73, "velocity": 89, "duration": 112}, {"note": 78, "velocity": 87, "duration": 428}, {"note": 70, "velocity": 89, "duration": 154}, {"note": 71, "velocity": 86, "duration": 136}, {"note": 73, "velocity": 91, "duration": 97}, {"note": 0, "velocity": 0, "duration": 64}, {"note": 75, "velocity": 89, "duration": 185}, {"note": 0, "velocity": 0, "duration": 289}, {"note": 75, "velocity": 87, "duration": 124}, {"note": 73, "velocity": 89, "duration": 116}, {"note": 70, "velocity": 87, "duration": 92}, {"note": 70, "velocity": 90, "duration": 211}, {"note": 0, "velocity": 0, "duration": 269}, {"note": 71, "velocity": 89, "duration": 143}, {"note": 70, "velocity": 89, "duration": 153}, {"note": 66, "velocity": 86, "duration": 133}, {"note": 68, "velocity": 85, "duration": 239}, {"note": 66, "velocity": 89, "duration": 1616}, {"note": 0, "velocity": 0, "duration": 304}, {"note": 75, "velocity": 96, "duration": 167}, {"note": 0, "velocity": 0, "duration": 73}, {"note": 75, "velocity": 94, "duration": 176}, {"note": 0, "velocity": 0, "duration": 64}, {"note": 73, "velocity": 86, "duration": 75}, {"note": 70, "velocity": 89, "duration": 82}, {"note": 73, "velocity": 92, "duration": 175}, {"note": 0, "velocity": 0, "duration": 65}, {"note": 75, "velocity": 89, "duration": 181}, {"note": 75, "velocity": 92, "duration": 168}, {"note": 0, "velocity": 0, "duration": 72}, {"note": 73, "velocity": 87, "duration": 82}, {"note": 70, "velocity": 86, "duration": 87}, {"note": 73, "velocity": 89, "duration": 184}, {"note": 75, "velocity": 92, "duration": 180}, {"note": 75, "velocity": 94, "duration": 179}, {"note": 0, "velocity": 0, "duration": 61}, {"note": 73, "velocity": 87, "duration": 84}, {"note": 70, "velocity": 81, "duration": 88}, {"note": 73, "velocity": 89, "duration": 183}, {"note": 75, "velocity": 87, "duration": 183}, {"note": 75, "velocity": 92, "duration": 480}, {"note": 0, "velocity": 0, "duration": 240}, {"note": 71, "velocity": 89, "duration": 179}, {"note": 0, "velocity": 0, "duration": 61}, {"note": 71, "velocity": 92, "duration": 187}, {"note": 70, "velocity": 88, "duration": 87}, {"note": 68, "velocity": 79, "duration": 85}, {"note": 70, "velocity": 90, "duration": 180}, {"note": 71, "velocity": 89, "duration": 172}, {"note": 0, "velocity": 0, "duration": 67}, {"note": 71, "velocity": 94, "duration": 155}, {"note": 70, "velocity": 91, "duration": 143}, {"note": 68, "velocity": 86, "duration": 133}, {"note": 73, "velocity": 88, "duration": 655}, {"note": 0, "velocity": 0, "duration": 434}, {"note": 75, "velocity": 89, "duration": 320}, {"note": 73, "velocity": 86, "duration": 490}, {"note": 0, "velocity": 0, "duration": 230}, {"note": 75, "velocity": 90, "duration": 179}, {"note": 0, "velocity": 0, "duration": 61}, {"note": 75, "velocity": 91, "duration": 185}, {"note": 73, "velocity": 87, "duration": 95}, {"note": 70, "velocity": 77, "duration": 95}, {"note": 73, "velocity": 92, "duration": 192}, {"note": 75, "velocity": 89, "duration": 175}, {"note": 0, "velocity": 0, "duration": 65}, {"note": 75, "velocity": 102, "duration": 142}, {"note": 0, "velocity": 0, "duration": 98}, {"note": 73, "velocity": 90, "duration": 147}, {"note": 70, "velocity": 89, "duration": 114}, {"note": 73, "velocity": 96, "duration": 120}, {"note": 75, "velocity": 90, "duration": 128}, {"note": 77, "velocity": 87, "duration": 116}, {"note": 75, "velocity": 102, "duration": 285}, {"note": 77, "velocity": 90, "duration": 73}, {"note": 78, "velocity": 87, "duration": 139}, {"note": 0, "velocity": 0, "duration": 79}, {"note": 77, "velocity": 87, "duration": 108}, {"note": 75, "velocity": 92, "duration": 520}, {"note": 0, "velocity": 0, "duration": 295}, {"note": 76, "velocity": 89, "duration": 190}, {"note": 76, "velocity": 89, "duration": 183}, {"note": 0, "velocity": 0, "duration": 62}, {"note": 75, "velocity": 96, "duration": 75}, {"note": 73, "velocity": 83, "duration": 75}, {"note": 75, "velocity": 92, "duration": 182}, {"note": 76, "velocity": 87, "duration": 215}, {"note": 75, "velocity": 91, "duration": 246}, {"note": 73, "velocity": 86, "duration": 211}, {"note": 0, "velocity": 0, "duration": 65}, {"note": 77, "velocity": 96, "duration": 1080}, {"note": 0, "velocity": 0, "duration": 93}, {"note": 66, "velocity": 87, "duration": 90}, {"note": 78, "velocity": 81, "duration": 149}, {"note": 77, "velocity": 96, "duration": 155}, {"note": 73, "velocity": 85, "duration": 158}, {"note": 0, "velocity": 0, "duration": 82}, {"note": 70, "velocity": 87, "duration": 152}, {"note": 75, "velocity": 89, "duration": 832}, {"note": 0, "velocity": 0, "duration": 368}, {"note": 66, "velocity": 87, "duration": 90}, {"note": 78, "velocity": 81, "duration": 149}, {"note": 77, "velocity": 96, "duration": 155}, {"note": 73, "velocity": 85, "duration": 158}, {"note": 0, "velocity": 0, "duration": 82}, {"note": 70, "velocity": 87, "duration": 152}, {"note": 73, "velocity": 89, "duration": 832}, {"note": 0, "velocity": 0, "duration": 570}, {"note": 70, "velocity": 89, "duration": 154}, {"note": 71, "velocity": 86, "duration": 136}, {"note": 73, "velocity": 91, "duration": 97}, {"note": 0, "velocity": 0, "duration": 64}, {"note": 75, "velocity": 89, "duration": 185}, {"note": 66, "velocity": 87, "duration": 163}, {"note": 0, "velocity": 0, "duration": 85}, {"note": 70, "velocity": 87, "duration": 124}, {"note": 71, "velocity": 89, "duration": 116}, {"note": 73, "velocity": 87, "duration": 92}, {"note": 75, "velocity": 90, "duration": 211}, {"note": 66, "velocity": 86, "duration": 211}, {"note": 75, "velocity": 91, "duration": 222}, {"note": 73, "velocity": 88, "duration": 145}, {"note": 75, "velocity": 92, "duration": 344}, {"note": 70, "velocity": 87, "duration": 784}, {"note": 0, "velocity": 0, "duration": 196}, {"note": 66, "velocity": 87, "duration": 90}, {"note": 78, "velocity": 81, "duration": 149}, {"note": 77, "velocity": 96, "duration": 155}, {"note": 73, "velocity": 85, "duration": 158}, {"note": 0, "velocity": 0, "duration": 82}, {"note": 70, "velocity": 87, "duration": 152}, {"note": 75, "velocity": 89, "duration": 832}, {"note": 0, "velocity": 0, "duration": 359}, {"note": 77, "velocity": 87, "duration": 82}, {"note": 78, "velocity": 86, "duration": 89}, {"note": 77, "velocity": 102, "duration": 174}, {"note": 78, "velocity": 89, "duration": 170}, {"note": 0, "velocity": 0, "duration": 78}, {"note": 80, "velocity": 87, "duration": 134}, {"note": 77, "velocity": 90, "duration": 136}, {"note": 73, "velocity": 91, "duration": 109}, {"note": 80, "velocity": 89, "duration": 139}, {"note": 77, "velocity": 88, "duration": 125}, {"note": 73, "velocity": 89, "duration": 112}, {"note": 78, "velocity": 87, "duration": 428}, {"note": 70, "velocity": 89, "duration": 154}, {"note": 71, "velocity": 86, "duration": 136}, {"note": 73, "velocity": 91, "duration": 97}, {"note": 0, "velocity": 0, "duration": 64}, {"note": 75, "velocity": 89, "duration": 185}, {"note": 0, "velocity": 0, "duration": 289}, {"note": 75, "velocity": 87, "duration": 124}, {"note": 73, "velocity": 89, "duration": 116}, {"note": 70, "velocity": 87, "duration": 92}, {"note": 70, "velocity": 90, "duration": 211}, {"note": 0, "velocity": 0, "duration": 269}, {"note": 71, "velocity": 89, "duration": 143}, {"note": 70, "velocity": 89, "duration": 153}, {"note": 66, "velocity": 86, "duration": 133}, {"note": 68, "velocity": 85, "duration": 239}, {"note": 66, "velocity": 89, "duration": 1616}]]