[[{"note": 69, "velocity": 83, "duration": 133}, {"note": 0, "velocity": 0, "duration": 107}, {"note": 69, "velocity": 85, "duration": 1716}, {"note": 0, "velocity": 0, "duration": 204}, {"note": 69, "velocity": 81, "duration": 340}, {"note": 0, "velocity": 0, "duration": 140}, {"note": 69, "velocity": 74, "duration": 163}, {"note": 0, "velocity": 0, "duration": 77}, {"note": 69, "velocity": 82, "duration": 412}, {"note": 0, "velocity": 0, "duration": 68}, {"note": 69, "velocity": 81, "duration": 167}, {"note": 0, "velocity": 0, "duration": 73}, {"note": 69, "velocity": 82, "duration": 179}, {"note": 0, "velocity": 0, "duration": 61}, {"note": 69, "velocity": 82, "duration": 168}, {"note": 0, "velocity": 0, "duration": 72}, {"note": 67, "velocity": 77, "duration": 137}, {"note": 0, "velocity": 0, "duration": 103}, {"note": 65, "velocity": 80, "duration": 155}, {"note": 0, "velocity": 0, "duration": 85}, {"note": 67, "velocity": 81, "duration": 1400}, {"note": 0, "velocity": 0, "duration": 1240}, {"note": 62, "velocity": 82, "duration": 143}, {"note": 0, "velocity": 0, "duration": 97}, {"note": 62, "velocity": 82, "duration": 163}, {"note": 0, "velocity": 0, "duration": 77}, {"note": 65, "velocity": 76, "duration": 171}, {"note": 0, "velocity": 0, "duration": 69}, {"note": 65, "velocity": 75, "duration": 1444}, {"note": 0, "velocity": 0, "duration": 716}, {"note": 62, "velocity": 81, "duration": 143}, {"note": 0, "velocity": 0, "duration": 97}, {"note": 62, "velocity": 80, "duration": 197}, {"note": 65, "velocity": 77, "duration": 364}, {"note": 0, "velocity": 0, "duration": 116}, {"note": 62, "velocity": 80, "duration": 197}, {"note": 65, "velocity": 77, "duration": 451}, {"note": 62, "velocity": 77, "duration": 1520}, {"note": 0, "velocity": 0, "duration": 2080}, {"note": 69, "velocity": 83, "duration": 133}, {"note": 0, "velocity": 0, "duration": 107}, {"note": 69, "velocity": 85, "duration": 1716}, {"note": 0, "velocity": 0, "duration": 204}, {"note": 69, "velocity": 81, "duration": 340}, {"note": 0, "velocity": 0, "duration": 140}, {"note": 69, "velocity": 74, "duration": 163}, {"note": 0, "velocity": 0, "duration": 77}, {"note": 69, "velocity": 82, "duration": 412}, {"note": 0, "velocity": 0, "duration": 68}, {"note": 69, "velocity": 81, "duration": 284}, {"note": 0, "velocity": 0, "duration": 196}, {"note": 69, "velocity": 82, "duration": 168}, {"note": 0, "velocity": 0, "duration": 72}, {"note": 65, "velocity": 77, "duration": 137}, {"note": 0, "velocity": 0, "duration": 103}, {"note": 67, "velocity": 80, "duration": 155}, {"note": 0, "velocity": 0, "duration": 85}, {"note": 67, "velocity": 81, "duration": 1400}, {"note": 0, "velocity": 0, "duration": 1000}, {"note": 62, "velocity": 82, "duration": 108}, {"note": 0, "velocity": 0, "duration": 132}, {"note": 62, "velocity": 82, "duration": 143}, {"note": 0, "velocity": 0, "duration": 97}, {"note": 62, "velocity": 82, "duration": 163}, {"note": 0, "velocity": 0, "duration": 77}, {"note": 65, "velocity": 76, "duration": 171}, {"note": 0, "velocity": 0, "duration": 69}, {"note": 65, "velocity": 75, "duration": 1444}, {"note": 0, "velocity": 0, "duration": 716}, {"note": 62, "velocity": 81, "duration": 143}, {"note": 0, "velocity": 0, "duration": 97}, {"note": 62, "velocity": 80, "duration": 197}, {"note": 65, "velocity": 77, "duration": 364}, {"note": 0, "velocity": 0, "duration": 116}, {"note": 62, "velocity": 80, "duration": 197}, {"note": 65, "velocity": 77, "duration": 451}, {"note": 62, "velocity": 77, "duration": 1520}, {"note": 0, "velocity": 0, "duration": 17440}, {"note": 69, "velocity": 83, "duration": 133}, {"note": 0, "velocity": 0, "duration": 107}, {"note": 69, "velocity": 85, "duration": 1716}, {"note": 0, "velocity": 0, "duration": 204}, {"note": 69, "velocity": 81, "duration": 340}, {"note": 0, "velocity": 0, "duration": 140}, {"note": 69, "velocity": 74, "duration": 163}, {"note": 0, "velocity": 0, "duration": 77}, {"note": 69, "velocity": 82, "duration": 412}, {"note": 0, "velocity": 0, "duration": 68}, {"note": 69, "velocity": 81, "duration": 370}, {"note": 0, "velocity": 0, "duration": 110}, {"note": 69, "velocity": 82, "duration": 168}, {"note": 0, "velocity": 0, "duration": 72}, {"note": 67, "velocity": 77, "duration": 137}, {"note": 0, "velocity": 0, "duration": 103}, {"note": 65, "velocity": 80, "duration": 155}, {"note": 0, "velocity": 0, "duration": 85}, {"note": 67, "velocity": 81, "duration": 1400}, {"note": 0, "velocity": 0, "duration": 1000}, {"note": 62, "velocity": 82, "duration": 138}, {"note": 0, "velocity": 0, "duration": 102}, {"note": 62, "velocity": 82, "duration": 143}, {"note": 0, "velocity": 0, "duration": 97}, {"note": 62, "velocity": 82, "duration": 163}, {"note": 0, "velocity": 0, "duration": 77}, {"note": 65, "velocity": 76, "duration": 171}, {"note": 0, "velocity": 0, "duration": 69}, {"note": 65, "velocity": 75, "duration": 1444}, {"note": 0, "velocity": 0, "duration": 716}, {"note": 62, "velocity": 81, "duration": 143}, {"note": 0, "velocity": 0, "duration": 97}, {"note": 62, "velocity": 80, "duration": 197}, {"note": 65, "velocity": 77, "duration": 364}, {"note": 0, "velocity": 0, "duration": 116}, {"note": 65, "velocity": 80, "duration": 197}, {"note": 62, "velocity": 77, "duration": 240}, {"note": 65, "velocity": 82, "duration": 240}, {"note": 62, "velocity": 77, "duration": 1520}, {"note": 0, "velocity": 0, "duration": 2080}, {"note": 69, "velocity": 83, "duration": 133}, {"note": 0, "velocity": 0, "duration": 107}, {"note": 69, "velocity": 85, "duration": 1716}, {"note": 0, "velocity": 0, "duration": 204}, {"note": 74, "velocity": 81, "duration": 340}, {"note": 0, "velocity": 0, "duration": 140}, {"note": 74, "velocity": 74, "duration": 163}, {"note": 0, "velocity": 0, "duration": 77}, {"note": 74, "velocity": 82, "duration": 412}, {"note": 0, "velocity": 0, "duration": 68}, {"note": 69, "velocity": 81, "duration": 284}, {"note": 0, "velocity": 0, "duration": 196}, {"note": 72, "velocity": 82, "duration": 168}, {"note": 0, "velocity": 0, "duration": 72}, {"note": 69, "velocity": 77, "duration": 137}, {"note": 0, "velocity": 0, "duration": 103}, {"note": 74, "velocity": 80, "duration": 155}, {"note": 0, "velocity": 0, "duration": 85}, {"note": 69, "velocity": 81, "duration": 480}, {"note": 67, "velocity": 82, "duration": 960}, {"note": 0, "velocity": 0, "duration": 960}, {"note": 62, "velocity": 82, "duration": 108}, {"note": 0, "velocity": 0, "duration": 132}, {"note": 62, "velocity": 82, "duration": 143}, {"note": 0, "velocity": 0, "duration": 97}, {"note": 62, "velocity": 82, "duration": 163}, {"note": 0, "velocity": 0, "duration": 77}, {"note": 65, "velocity": 76, "duration": 171}, {"note": 0, "velocity": 0, "duration": 69}, {"note": 65, "velocity": 75, "duration": 1444}, {"note": 0, "velocity": 0, "duration": 716}, {"note": 62, "velocity": 81, "duration": 143}, {"note": 0, "velocity": 0, "duration": 97}, {"note": 62, "velocity": 80, "duration": 197}, {"note": 65, "velocity": 77, "duration": 364}, {"note": 0, "velocity": 0, "duration": 116}, {"note": 62, "velocity": 80, "duration": 197}, {"note": 62, "velocity": 82, "duration": 240}, {"note": 60, "velocity": 77, "duration": 240}, {"note": 62, "velocity": 77, "duration": 1520}, {"note": 0, "velocity": 0, "duration": 1360}, {"note": 62, "velocity": 81, "duration": 178}, {"note": 0, "velocity": 0, "duration": 62}, {"note": 62, "velocity": 78, "duration": 177}, {"note": 0, "velocity": 0, "duration": 63}, {"note": 64, "velocity": 83, "duration": 177}, {"note": 0, "velocity": 0, "duration": 63}, {"note": 65, "velocity": 76, "duration": 179}, {"note": 0, "velocity": 0, "duration": 61}, {"note": 65, "velocity": 79, "duration": 968}, {"note": 69, "velocity": 78, "duration": 134}, {"note": 0, "velocity": 0, "duration": 106}, {"note": 69, "velocity": 79, "duration": 187}, {"note": 67, "velocity": 80, "duration": 216}, {"note": 65, "velocity": 81, "duration": 192}, {"note": 67, "velocity": 79, "duration": 930}, {"note": 69, "velocity": 79, "duration": 151}, {"note": 0, "velocity": 0, "duration": 89}, {"note": 69, "velocity": 82, "duration": 175}, {"note": 0, "velocity": 0, "duration": 65}, {"note": 72, "velocity": 83, "duration": 191}, {"note": 74, "velocity": 82, "duration": 149}, {"note": 0, "velocity": 0, "duration": 91}, {"note": 74, "velocity": 82, "duration": 577}, {"note": 0, "velocity": 0, "duration": 383}, {"note": 65, "velocity": 79, "duration": 166}, {"note": 0, "velocity": 0, "duration": 74}, {"note": 67, "velocity": 76, "duration": 147}, {"note": 0, "velocity": 0, "duration": 93}, {"note": 69, "velocity": 79, "duration": 199}, {"note": 72, "velocity": 81, "duration": 163}, {"note": 0, "velocity": 0, "duration": 77}, {"note": 69, "velocity": 79, "duration": 734}, {"note": 0, "velocity": 0, "duration": 226}, {"note": 67, "velocity": 79, "duration": 146}, {"note": 0, "velocity": 0, "duration": 94}, {"note": 67, "velocity": 81, "duration": 167}, {"note": 0, "velocity": 0, "duration": 73}, {"note": 69, "velocity": 82, "duration": 169}, {"note": 0, "velocity": 0, "duration": 71}, {"note": 72, "velocity": 83, "duration": 155}, {"note": 0, "velocity": 0, "duration": 85}, {"note": 70, "velocity": 82, "duration": 791}, {"note": 0, "velocity": 0, "duration": 169}, {"note": 69, "velocity": 81, "duration": 128}, {"note": 0, "velocity": 0, "duration": 112}, {"note": 69, "velocity": 76, "duration": 167}, {"note": 0, "velocity": 0, "duration": 73}, {"note": 67, "velocity": 82, "duration": 175}, {"note": 0, "velocity": 0, "duration": 65}, {"note": 69, "velocity": 82, "duration": 189}, {"note": 67, "velocity": 72, "duration": 215}, {"note": 62, "velocity": 79, "duration": 568}, {"note": 0, "velocity": 0, "duration": 152}, {"note": 65, "velocity": 75, "duration": 142}, {"note": 0, "velocity": 0, "duration": 98}, {"note": 65, "velocity": 81, "duration": 171}, {"note": 0, "velocity": 0, "duration": 69}, {"note": 65, "velocity": 82, "duration": 193}, {"note": 69, "velocity": 82, "duration": 288}, {"note": 0, "velocity": 0, "duration": 192}, {"note": 67, "velocity": 77, "duration": 1757}, {"note": 0, "velocity": 0, "duration": 32323}, {"note": 69, "velocity": 83, "duration": 133}, {"note": 0, "velocity": 0, "duration": 107}, {"note": 69, "velocity": 85, "duration": 1716}, {"note": 0, "velocity": 0, "duration": 204}, {"note": 69, "velocity": 81, "duration": 340}, {"note": 0, "velocity": 0, "duration": 140}, {"note": 69, "velocity": 74, "duration": 163}, {"note": 0, "velocity": 0, "duration": 77}, {"note": 69, "velocity": 82, "duration": 412}, {"note": 0, "velocity": 0, "duration": 68}, {"note": 69, "velocity": 81, "duration": 370}, {"note": 0, "velocity": 0, "duration": 110}, {"note": 69, "velocity": 82, "duration": 168}, {"note": 0, "velocity": 0, "duration": 72}, {"note": 67, "velocity": 77, "duration": 137}, {"note": 0, "velocity": 0, "duration": 103}, {"note": 65, "velocity": 80, "duration": 155}, {"note": 0, "velocity": 0, "duration": 85}, {"note": 67, "velocity": 81, "duration": 1400}, {"note": 0, "velocity": 0, "duration": 1240}, {"note": 62, "velocity": 82, "duration": 480}, {"note": 65, "velocity": 76, "duration": 240}, {"note": 67, "velocity": 82, "duration": 480}, {"note": 65, "velocity": 75, "duration": 964}, {"note": 0, "velocity": 0, "duration": 716}, {"note": 65, "velocity": 81, "duration": 143}, {"note": 0, "velocity": 0, "duration": 97}, {"note": 65, "velocity": 80, "duration": 197}, {"note": 65, "velocity": 77, "duration": 364}, {"note": 0, "velocity": 0, "duration": 116}, {"note": 65, "velocity": 80, "duration": 197}, {"note": 62, "velocity": 77, "duration": 240}, {"note": 65, "velocity": 82, "duration": 240}, {"note": 62, "velocity": 77, "duration": 1520}, {"note": 0, "velocity": 0, "duration": 2080}, {"note": 69, "velocity": 83, "duration": 133}, {"note": 0, "velocity": 0, "duration": 107}, {"note": 69, "velocity": 85, "duration": 1716}, {"note": 0, "velocity": 0, "duration": 204}, {"note": 74, "velocity": 81, "duration": 340}, {"note": 0, "velocity": 0, "duration": 140}, {"note": 74, "velocity": 74, "duration": 163}, {"note": 0, "velocity": 0, "duration": 77}, {"note": 74, "velocity": 82, "duration": 412}, {"note": 0, "velocity": 0, "duration": 68}, {"note": 69, "velocity": 81, "duration": 284}, {"note": 0, "velocity": 0, "duration": 196}, {"note": 72, "velocity": 82, "duration": 168}, {"note": 0, "velocity": 0, "duration": 72}, {"note": 69, "velocity": 77, "duration": 137}, {"note": 0, "velocity": 0, "duration": 103}, {"note": 74, "velocity": 80, "duration": 155}, {"note": 0, "velocity": 0, "duration": 85}, {"note": 69, "velocity": 81, "duration": 480}, {"note": 67, "velocity": 82, "duration": 960}, {"note": 0, "velocity": 0, "duration": 960}, {"note": 62, "velocity": 82, "duration": 108}, {"note": 0, "velocity": 0, "duration": 132}, {"note": 62, "velocity": 82, "duration": 143}, {"note": 0, "velocity": 0, "duration": 97}, {"note": 62, "velocity": 82, "duration": 163}, {"note": 0, "velocity": 0, "duration": 77}, {"note": 65, "velocity": 76, "duration": 240}, {"note": 64, "velocity": 82, "duration": 240}, {"note": 62, "velocity": 82, "duration": 240}, {"note": 65, "velocity": 75, "duration": 964}, {"note": 0, "velocity": 0, "duration": 476}, {"note": 62, "velocity": 82, "duration": 240}, {"note": 62, "velocity": 81, "duration": 143}, {"note": 0, "velocity": 0, "duration": 97}, {"note": 62, "velocity": 80, "duration": 197}, {"note": 65, "velocity": 77, "duration": 364}, {"note": 0, "velocity": 0, "duration": 116}, {"note": 62, "velocity": 80, "duration": 197}, {"note": 65, "velocity": 82, "duration": 240}, {"note": 0, "velocity": 0, "duration": 240}, {"note": 65, "velocity": 77, "duration": 240}, {"note": 62, "velocity": 77, "duration": 1280}, {"note": 0, "velocity": 0, "duration": 1600}, {"note": 62, "velocity": 78, "duration": 177}, {"note": 0, "velocity": 0, "duration": 63}, {"note": 64, "velocity": 83, "duration": 177}, {"note": 0, "velocity": 0, "duration": 63}, {"note": 65, "velocity": 76, "duration": 179}, {"note": 0, "velocity": 0, "duration": 61}, {"note": 65, "velocity": 79, "duration": 840}, {"note": 0, "velocity": 0, "duration": 120}, {"note": 65, "velocity": 78, "duration": 134}, {"note": 0, "velocity": 0, "duration": 106}, {"note": 65, "velocity": 79, "duration": 187}, {"note": 69, "velocity": 80, "duration": 216}, {"note": 69, "velocity": 81, "duration": 192}, {"note": 67, "velocity": 79, "duration": 930}, {"note": 69, "velocity": 79, "duration": 151}, {"note": 0, "velocity": 0, "duration": 89}, {"note": 69, "velocity": 82, "duration": 175}, {"note": 0, "velocity": 0, "duration": 65}, {"note": 72, "velocity": 83, "duration": 191}, {"note": 74, "velocity": 82, "duration": 149}, {"note": 0, "velocity": 0, "duration": 91}, {"note": 74, "velocity": 82, "duration": 577}, {"note": 0, "velocity": 0, "duration": 383}, {"note": 65, "velocity": 79, "duration": 166}, {"note": 0, "velocity": 0, "duration": 74}, {"note": 67, "velocity": 76, "duration": 147}, {"note": 0, "velocity": 0, "duration": 93}, {"note": 69, "velocity": 79, "duration": 199}, {"note": 72, "velocity": 81, "duration": 163}, {"note": 0, "velocity": 0, "duration": 77}, {"note": 69, "velocity": 79, "duration": 734}, {"note": 0, "velocity": 0, "duration": 226}, {"note": 67, "velocity": 79, "duration": 146}, {"note": 0, "velocity": 0, "duration": 94}, {"note": 67, "velocity": 81, "duration": 167}, {"note": 0, "velocity": 0, "duration": 73}, {"note": 67, "velocity": 82, "duration": 120}, {"note": 69, "velocity": 82, "duration": 120}, {"note": 70, "velocity": 83, "duration": 240}, {"note": 70, "velocity": 82, "duration": 791}, {"note": 0, "velocity": 0, "duration": 169}, {"note": 70, "velocity": 81, "duration": 240}, {"note": 69, "velocity": 76, "duration": 167}, {"note": 0, "velocity": 0, "duration": 73}, {"note": 67, "velocity": 82, "duration": 175}, {"note": 0, "velocity": 0, "duration": 65}, {"note": 67, "velocity": 82, "duration": 189}, {"note": 69, "velocity": 72, "duration": 215}, {"note": 65, "velocity": 79, "duration": 568}, {"note": 0, "velocity": 0, "duration": 152}, {"note": 65, "velocity": 75, "duration": 240}, {"note": 0, "velocity": 0, "duration": 240}, {"note": 65, "velocity": 82, "duration": 193}, {"note": 67, "velocity": 82, "duration": 288}, {"note": 0, "velocity": 0, "duration": 192}, {"note": 67, "velocity": 77, "duration": 1757}, {"note": 0, "velocity": 0, "duration": 163}, {"note": 60, "velocity": 81, "duration": 141}, {"note": 0, "velocity": 0, "duration": 99}, {"note": 60, "velocity": 81, "duration": 179}, {"note": 0, "velocity": 0, "duration": 61}, {"note": 65, "velocity": 82, "duration": 189}, {"note": 64, "velocity": 85, "duration": 421}, {"note": 65, "velocity": 81, "duration": 248}, {"note": 62, "velocity": 81, "duration": 1564}, {"note": 0, "velocity": 0, "duration": 13076}, {"note": 62, "velocity": 82, "duration": 120}, {"note": 0, "velocity": 0, "duration": 120}, {"note": 62, "velocity": 78, "duration": 177}, {"note": 0, "velocity": 0, "duration": 63}, {"note": 64, "velocity": 83, "duration": 177}, {"note": 0, "velocity": 0, "duration": 63}, {"note": 65, "velocity": 76, "duration": 179}, {"note": 0, "velocity": 0, "duration": 61}, {"note": 65, "velocity": 79, "duration": 840}, {"note": 0, "velocity": 0, "duration": 120}, {"note": 69, "velocity": 78, "duration": 134}, {"note": 0, "velocity": 0, "duration": 106}, {"note": 69, "velocity": 79, "duration": 187}, {"note": 67, "velocity": 80, "duration": 216}, {"note": 65, "velocity": 81, "duration": 192}, {"note": 67, "velocity": 79, "duration": 930}, {"note": 69, "velocity": 79, "duration": 151}, {"note": 0, "velocity": 0, "duration": 89}, {"note": 69, "velocity": 82, "duration": 175}, {"note": 0, "velocity": 0, "duration": 65}, {"note": 72, "velocity": 83, "duration": 191}, {"note": 74, "velocity": 82, "duration": 149}, {"note": 0, "velocity": 0, "duration": 91}, {"note": 74, "velocity": 82, "duration": 577}, {"note": 0, "velocity": 0, "duration": 383}, {"note": 65, "velocity": 79, "duration": 166}, {"note": 0, "velocity": 0, "duration": 74}, {"note": 67, "velocity": 76, "duration": 147}, {"note": 0, "velocity": 0, "duration": 93}, {"note": 69, "velocity": 79, "duration": 199}, {"note": 72, "velocity": 81, "duration": 163}, {"note": 0, "velocity": 0, "duration": 77}, {"note": 69, "velocity": 79, "duration": 734}, {"note": 0, "velocity": 0, "duration": 226}, {"note": 67, "velocity": 79, "duration": 146}, {"note": 0, "velocity": 0, "duration": 94}, {"note": 67, "velocity": 81, "duration": 167}, {"note": 0, "velocity": 0, "duration": 73}, {"note": 67, "velocity": 82, "duration": 120}, {"note": 69, "velocity": 82, "duration": 120}, {"note": 70, "velocity": 83, "duration": 240}, {"note": 70, "velocity": 82, "duration": 791}, {"note": 0, "velocity": 0, "duration": 169}, {"note": 70, "velocity": 81, "duration": 240}, {"note": 69, "velocity": 76, "duration": 167}, {"note": 0, "velocity": 0, "duration": 73}, {"note": 67, "velocity": 82, "duration": 175}, {"note": 0, "velocity": 0, "duration": 65}, {"note": 67, "velocity": 82, "duration": 189}, {"note": 69, "velocity": 72, "duration": 215}, {"note": 65, "velocity": 79, "duration": 568}, {"note": 0, "velocity": 0, "duration": 152}, {"note": 65, "velocity": 75, "duration": 240}, {"note": 0, "velocity": 0, "duration": 240}, {"note": 65, "velocity": 82, "duration": 193}, {"note": 69, "velocity": 82, "duration": 288}, {"note": 67, "velocity": 77, "duration": 1997}, {"note": 0, "velocity": 0, "duration": 883}, {"note": 69, "velocity": 82, "duration": 240}, {"note": 69, "velocity": 78, "duration": 177}, {"note": 0, "velocity": 0, "duration": 63}, {"note": 72, "velocity": 83, "duration": 177}, {"note": 0, "velocity": 0, "duration": 63}, {"note": 74, "velocity": 76, "duration": 179}, {"note": 0, "velocity": 0, "duration": 61}, {"note": 74, "velocity": 79, "duration": 840}, {"note": 0, "velocity": 0, "duration": 120}, {"note": 74, "velocity": 78, "duration": 240}, {"note": 0, "velocity": 0, "duration": 240}, {"note": 74, "velocity": 79, "duration": 187}, {"note": 72, "velocity": 81, "duration": 192}, {"note": 0, "velocity": 0, "duration": 288}, {"note": 69, "velocity": 79, "duration": 600}, {"note": 0, "velocity": 0, "duration": 120}, {"note": 69, "velocity": 79, "duration": 151}, {"note": 0, "velocity": 0, "duration": 89}, {"note": 69, "velocity": 82, "duration": 175}, {"note": 0, "velocity": 0, "duration": 65}, {"note": 72, "velocity": 83, "duration": 191}, {"note": 74, "velocity": 82, "duration": 149}, {"note": 0, "velocity": 0, "duration": 91}, {"note": 74, "velocity": 82, "duration": 577}, {"note": 0, "velocity": 0, "duration": 383}, {"note": 65, "velocity": 79, "duration": 166}, {"note": 0, "velocity": 0, "duration": 74}, {"note": 67, "velocity": 76, "duration": 147}, {"note": 0, "velocity": 0, "duration": 93}, {"note": 69, "velocity": 79, "duration": 199}, {"note": 72, "velocity": 81, "duration": 163}, {"note": 0, "velocity": 0, "duration": 77}, {"note": 69, "velocity": 79, "duration": 734}, {"note": 0, "velocity": 0, "duration": 226}, {"note": 67, "velocity": 79, "duration": 146}, {"note": 0, "velocity": 0, "duration": 94}, {"note": 67, "velocity": 81, "duration": 167}, {"note": 0, "velocity": 0, "duration": 73}, {"note": 67, "velocity": 82, "duration": 120}, {"note": 69, "velocity": 82, "duration": 120}, {"note": 70, "velocity": 83, "duration": 240}, {"note": 70, "velocity": 82, "duration": 791}, {"note": 0, "velocity": 0, "duration": 169}, {"note": 70, "velocity": 81, "duration": 240}, {"note": 69, "velocity": 76, "duration": 167}, {"note": 0, "velocity": 0, "duration": 73}, {"note": 67, "velocity": 82, "duration": 175}, {"note": 0, "velocity": 0, "duration": 65}, {"note": 67, "velocity": 82, "duration": 189}, {"note": 69, "velocity": 72, "duration": 215}, {"note": 65, "velocity": 79, "duration": 568}, {"note": 0, "velocity": 0, "duration": 152}, {"note": 65, "velocity": 75, "duration": 240}, {"note": 0, "velocity": 0, "duration": 240}, {"note": 65, "velocity": 82, "duration": 193}, {"note": 67, "velocity": 82, "duration": 288}, {"note": 0, "velocity": 0, "duration": 192}, {"note": 67, "velocity": 77, "duration": 5160}, {"note": 0, "velocity": 0, "duration": 21240}, {"note": 69, "velocity": 83, "duration": 133}, {"note": 0, "velocity": 0, "duration": 107}, {"note": 69, "velocity": 85, "duration": 1716}, {"note": 0, "velocity": 0, "duration": 204}, {"note": 69, "velocity": 81, "duration": 340}, {"note": 0, "velocity": 0, "duration": 140}, {"note": 69, "velocity": 74, "duration": 163}, {"note": 0, "velocity": 0, "duration": 77}, {"note": 69, "velocity": 82, "duration": 412}, {"note": 0, "velocity": 0, "duration": 68}, {"note": 69, "velocity": 81, "duration": 240}, {"note": 0, "velocity": 0, "duration": 240}, {"note": 69, "velocity": 82, "duration": 168}, {"note": 0, "velocity": 0, "duration": 72}, {"note": 67, "velocity": 77, "duration": 137}, {"note": 0, "velocity": 0, "duration": 103}, {"note": 65, "velocity": 80, "duration": 155}, {"note": 0, "velocity": 0, "duration": 85}, {"note": 67, "velocity": 81, "duration": 1400}, {"note": 0, "velocity": 0, "duration": 1000}, {"note": 62, "velocity": 82, "duration": 240}, {"note": 62, "velocity": 82, "duration": 143}, {"note": 0, "velocity": 0, "duration": 97}, {"note": 62, "velocity": 82, "duration": 163}, {"note": 0, "velocity": 0, "duration": 77}, {"note": 65, "velocity": 76, "duration": 171}, {"note": 0, "velocity": 0, "duration": 69}, {"note": 65, "velocity": 75, "duration": 1444}, {"note": 0, "velocity": 0, "duration": 716}, {"note": 62, "velocity": 81, "duration": 143}, {"note": 0, "velocity": 0, "duration": 97}, {"note": 62, "velocity": 80, "duration": 197}, {"note": 65, "velocity": 77, "duration": 364}, {"note": 0, "velocity": 0, "duration": 116}, {"note": 62, "velocity": 80, "duration": 197}, {"note": 60, "velocity": 77, "duration": 451}, {"note": 62, "velocity": 77, "duration": 1520}]]