[[{"note": 59, "velocity": 84, "duration": 207}, {"note": 66, "velocity": 79, "duration": 154}, {"note": 0, "velocity": 0, "duration": 86}, {"note": 66, "velocity": 80, "duration": 180}, {"note": 59, "velocity": 81, "duration": 60}, {"note": 59, "velocity": 77, "duration": 91}, {"note": 66, "velocity": 79, "duration": 166}, {"note": 0, "velocity": 0, "duration": 74}, {"note": 66, "velocity": 79, "duration": 534}, {"note": 0, "velocity": 0, "duration": 186}, {"note": 66, "velocity": 81, "duration": 213}, {"note": 59, "velocity": 92, "duration": 192}, {"note": 62, "velocity": 82, "duration": 133}, {"note": 64, "velocity": 80, "duration": 77}, {"note": 66, "velocity": 79, "duration": 206}, {"note": 64, "velocity": 80, "duration": 720}, {"note": 0, "velocity": 0, "duration": 240}, {"note": 59, "velocity": 83, "duration": 191}, {"note": 64, "velocity": 79, "duration": 155}, {"note": 0, "velocity": 0, "duration": 85}, {"note": 64, "velocity": 78, "duration": 342}, {"note": 59, "velocity": 79, "duration": 118}, {"note": 64, "velocity": 79, "duration": 162}, {"note": 0, "velocity": 0, "duration": 78}, {"note": 64, "velocity": 79, "duration": 408}, {"note": 0, "velocity": 0, "duration": 312}, {"note": 62, "velocity": 82, "duration": 167}, {"note": 0, "velocity": 0, "duration": 73}, {"note": 62, "velocity": 80, "duration": 161}, {"note": 0, "velocity": 0, "duration": 79}, {"note": 64, "velocity": 80, "duration": 189}, {"note": 62, "velocity": 85, "duration": 67}, {"note": 64, "velocity": 78, "duration": 77}, {"note": 66, "velocity": 78, "duration": 155}, {"note": 0, "velocity": 0, "duration": 85}, {"note": 66, "velocity": 77, "duration": 556}, {"note": 0, "velocity": 0, "duration": 164}, {"note": 66, "velocity": 81, "duration": 212}, {"note": 71, "velocity": 79, "duration": 164}, {"note": 0, "velocity": 0, "duration": 76}, {"note": 71, "velocity": 79, "duration": 137}, {"note": 0, "velocity": 0, "duration": 103}, {"note": 69, "velocity": 78, "duration": 82}, {"note": 66, "velocity": 80, "duration": 73}, {"note": 71, "velocity": 80, "duration": 170}, {"note": 0, "velocity": 0, "duration": 70}, {"note": 71, "velocity": 79, "duration": 409}, {"note": 0, "velocity": 0, "duration": 311}, {"note": 71, "velocity": 79, "duration": 162}, {"note": 0, "velocity": 0, "duration": 78}, {"note": 69, "velocity": 78, "duration": 293}, {"note": 0, "velocity": 0, "duration": 187}, {"note": 66, "velocity": 78, "duration": 85}, {"note": 64, "velocity": 78, "duration": 70}, {"note": 66, "velocity": 81, "duration": 669}, {"note": 0, "velocity": 0, "duration": 291}, {"note": 59, "velocity": 78, "duration": 165}, {"note": 0, "velocity": 0, "duration": 75}, {"note": 64, "velocity": 78, "duration": 155}, {"note": 0, "velocity": 0, "duration": 85}, {"note": 64, "velocity": 80, "duration": 198}, {"note": 62, "velocity": 81, "duration": 70}, {"note": 59, "velocity": 78, "duration": 76}, {"note": 66, "velocity": 77, "duration": 174}, {"note": 0, "velocity": 0, "duration": 66}, {"note": 64, "velocity": 79, "duration": 485}, {"note": 0, "velocity": 0, "duration": 235}, {"note": 66, "velocity": 79, "duration": 180}, {"note": 64, "velocity": 72, "duration": 58}, {"note": 0, "velocity": 0, "duration": 62}, {"note": 66, "velocity": 82, "duration": 82}, {"note": 64, "velocity": 79, "duration": 161}, {"note": 0, "velocity": 0, "duration": 79}, {"note": 62, "velocity": 82, "duration": 223}, {"note": 59, "velocity": 80, "duration": 873}, {"note": 0, "velocity": 0, "duration": 87}, {"note": 59, "velocity": 84, "duration": 207}, {"note": 66, "velocity": 79, "duration": 154}, {"note": 0, "velocity": 0, "duration": 86}, {"note": 66, "velocity": 80, "duration": 180}, {"note": 59, "velocity": 81, "duration": 60}, {"note": 59, "velocity": 77, "duration": 91}, {"note": 66, "velocity": 79, "duration": 166}, {"note": 0, "velocity": 0, "duration": 74}, {"note": 66, "velocity": 79, "duration": 534}, {"note": 0, "velocity": 0, "duration": 186}, {"note": 66, "velocity": 81, "duration": 213}, {"note": 59, "velocity": 92, "duration": 192}, {"note": 62, "velocity": 82, "duration": 133}, {"note": 64, "velocity": 80, "duration": 77}, {"note": 66, "velocity": 79, "duration": 206}, {"note": 64, "velocity": 80, "duration": 720}, {"note": 0, "velocity": 0, "duration": 240}, {"note": 59, "velocity": 83, "duration": 191}, {"note": 64, "velocity": 79, "duration": 155}, {"note": 0, "velocity": 0, "duration": 85}, {"note": 64, "velocity": 78, "duration": 342}, {"note": 59, "velocity": 79, "duration": 118}, {"note": 64, "velocity": 79, "duration": 162}, {"note": 0, "velocity": 0, "duration": 78}, {"note": 64, "velocity": 79, "duration": 408}, {"note": 0, "velocity": 0, "duration": 312}, {"note": 62, "velocity": 82, "duration": 167}, {"note": 0, "velocity": 0, "duration": 73}, {"note": 62, "velocity": 80, "duration": 161}, {"note": 0, "velocity": 0, "duration": 79}, {"note": 64, "velocity": 80, "duration": 189}, {"note": 62, "velocity": 85, "duration": 67}, {"note": 64, "velocity": 78, "duration": 77}, {"note": 66, "velocity": 78, "duration": 155}, {"note": 0, "velocity": 0, "duration": 85}, {"note": 66, "velocity": 77, "duration": 556}, {"note": 0, "velocity": 0, "duration": 164}, {"note": 66, "velocity": 81, "duration": 212}, {"note": 71, "velocity": 79, "duration": 164}, {"note": 0, "velocity": 0, "duration": 76}, {"note": 71, "velocity": 79, "duration": 137}, {"note": 0, "velocity": 0, "duration": 103}, {"note": 69, "velocity": 78, "duration": 82}, {"note": 66, "velocity": 80, "duration": 73}, {"note": 73, "velocity": 80, "duration": 170}, {"note": 0, "velocity": 0, "duration": 70}, {"note": 71, "velocity": 79, "duration": 409}, {"note": 0, "velocity": 0, "duration": 311}, {"note": 73, "velocity": 79, "duration": 162}, {"note": 0, "velocity": 0, "duration": 78}, {"note": 73, "velocity": 78, "duration": 240}, {"note": 71, "velocity": 79, "duration": 240}, {"note": 69, "velocity": 78, "duration": 85}, {"note": 66, "velocity": 78, "duration": 70}, {"note": 66, "velocity": 81, "duration": 669}, {"note": 0, "velocity": 0, "duration": 291}, {"note": 66, "velocity": 80, "duration": 299}, {"note": 0, "velocity": 0, "duration": 61}, {"note": 71, "velocity": 80, "duration": 77}, {"note": 71, "velocity": 78, "duration": 173}, {"note": 0, "velocity": 0, "duration": 67}, {"note": 66, "velocity": 75, "duration": 240}, {"note": 66, "velocity": 78, "duration": 219}, {"note": 62, "velocity": 79, "duration": 83}, {"note": 66, "velocity": 79, "duration": 113}, {"note": 64, "velocity": 84, "duration": 378}, {"note": 0, "velocity": 0, "duration": 102}, {"note": 66, "velocity": 79, "duration": 198}, {"note": 64, "velocity": 80, "duration": 92}, {"note": 66, "velocity": 79, "duration": 109}, {"note": 64, "velocity": 82, "duration": 226}, {"note": 62, "velocity": 82, "duration": 94}, {"note": 59, "velocity": 83, "duration": 85}, {"note": 59, "velocity": 78, "duration": 827}, {"note": 0, "velocity": 0, "duration": 2053}, {"note": 74, "velocity": 87, "duration": 229}, {"note": 71, "velocity": 82, "duration": 202}, {"note": 74, "velocity": 85, "duration": 173}, {"note": 0, "velocity": 0, "duration": 67}, {"note": 76, "velocity": 83, "duration": 66}, {"note": 78, "velocity": 79, "duration": 70}, {"note": 78, "velocity": 81, "duration": 778}, {"note": 0, "velocity": 0, "duration": 182}, {"note": 78, "velocity": 83, "duration": 201}, {"note": 76, "velocity": 82, "duration": 76}, {"note": 78, "velocity": 92, "duration": 88}, {"note": 76, "velocity": 89, "duration": 218}, {"note": 74, "velocity": 83, "duration": 76}, {"note": 71, "velocity": 79, "duration": 83}, {"note": 71, "velocity": 79, "duration": 728}, {"note": 0, "velocity": 0, "duration": 232}, {"note": 71, "velocity": 82, "duration": 179}, {"note": 0, "velocity": 0, "duration": 61}, {"note": 71, "velocity": 85, "duration": 184}, {"note": 74, "velocity": 82, "duration": 238}, {"note": 71, "velocity": 84, "duration": 191}, {"note": 78, "velocity": 80, "duration": 190}, {"note": 76, "velocity": 85, "duration": 546}, {"note": 0, "velocity": 0, "duration": 174}, {"note": 74, "velocity": 78, "duration": 183}, {"note": 71, "velocity": 80, "duration": 159}, {"note": 0, "velocity": 0, "duration": 81}, {"note": 71, "velocity": 80, "duration": 179}, {"note": 0, "velocity": 0, "duration": 61}, {"note": 69, "velocity": 79, "duration": 177}, {"note": 0, "velocity": 0, "duration": 63}, {"note": 66, "velocity": 87, "duration": 811}, {"note": 0, "velocity": 0, "duration": 149}, {"note": 74, "velocity": 85, "duration": 168}, {"note": 0, "velocity": 0, "duration": 72}, {"note": 74, "velocity": 80, "duration": 67}, {"note": 74, "velocity": 81, "duration": 70}, {"note": 76, "velocity": 80, "duration": 167}, {"note": 0, "velocity": 0, "duration": 73}, {"note": 78, "velocity": 82, "duration": 168}, {"note": 0, "velocity": 0, "duration": 72}, {"note": 78, "velocity": 81, "duration": 744}, {"note": 0, "velocity": 0, "duration": 216}, {"note": 78, "velocity": 83, "duration": 168}, {"note": 0, "velocity": 0, "duration": 72}, {"note": 78, "velocity": 82, "duration": 158}, {"note": 0, "velocity": 0, "duration": 82}, {"note": 76, "velocity": 79, "duration": 203}, {"note": 74, "velocity": 82, "duration": 122}, {"note": 71, "velocity": 66, "duration": 67}, {"note": 71, "velocity": 79, "duration": 678}, {"note": 0, "velocity": 0, "duration": 282}, {"note": 66, "velocity": 69, "duration": 164}, {"note": 0, "velocity": 0, "duration": 76}, {"note": 71, "velocity": 79, "duration": 145}, {"note": 0, "velocity": 0, "duration": 95}, {"note": 74, "velocity": 82, "duration": 201}, {"note": 71, "velocity": 82, "duration": 192}, {"note": 78, "velocity": 82, "duration": 204}, {"note": 76, "velocity": 87, "duration": 533}, {"note": 0, "velocity": 0, "duration": 187}, {"note": 69, "velocity": 80, "duration": 180}, {"note": 71, "velocity": 84, "duration": 182}, {"note": 74, "velocity": 82, "duration": 173}, {"note": 0, "velocity": 0, "duration": 67}, {"note": 76, "velocity": 80, "duration": 80}, {"note": 74, "velocity": 79, "duration": 58}, {"note": 0, "velocity": 0, "duration": 62}, {"note": 71, "velocity": 80, "duration": 791}, {"note": 0, "velocity": 0, "duration": 19369}, {"note": 59, "velocity": 84, "duration": 207}, {"note": 66, "velocity": 79, "duration": 154}, {"note": 0, "velocity": 0, "duration": 86}, {"note": 66, "velocity": 80, "duration": 180}, {"note": 59, "velocity": 81, "duration": 60}, {"note": 59, "velocity": 77, "duration": 91}, {"note": 66, "velocity": 79, "duration": 166}, {"note": 0, "velocity": 0, "duration": 74}, {"note": 66, "velocity": 79, "duration": 534}, {"note": 0, "velocity": 0, "duration": 186}, {"note": 66, "velocity": 81, "duration": 213}, {"note": 59, "velocity": 92, "duration": 192}, {"note": 62, "velocity": 82, "duration": 133}, {"note": 64, "velocity": 80, "duration": 77}, {"note": 66, "velocity": 79, "duration": 206}, {"note": 64, "velocity": 80, "duration": 720}, {"note": 0, "velocity": 0, "duration": 240}, {"note": 59, "velocity": 83, "duration": 191}, {"note": 64, "velocity": 79, "duration": 155}, {"note": 0, "velocity": 0, "duration": 85}, {"note": 64, "velocity": 78, "duration": 342}, {"note": 59, "velocity": 79, "duration": 118}, {"note": 64, "velocity": 79, "duration": 162}, {"note": 0, "velocity": 0, "duration": 78}, {"note": 64, "velocity": 79, "duration": 408}, {"note": 0, "velocity": 0, "duration": 312}, {"note": 62, "velocity": 82, "duration": 167}, {"note": 0, "velocity": 0, "duration": 73}, {"note": 62, "velocity": 80, "duration": 161}, {"note": 0, "velocity": 0, "duration": 79}, {"note": 64, "velocity": 80, "duration": 189}, {"note": 62, "velocity": 85, "duration": 67}, {"note": 64, "velocity": 78, "duration": 77}, {"note": 66, "velocity": 78, "duration": 155}, {"note": 0, "velocity": 0, "duration": 85}, {"note": 66, "velocity": 77, "duration": 556}, {"note": 0, "velocity": 0, "duration": 164}, {"note": 66, "velocity": 81, "duration": 212}, {"note": 71, "velocity": 79, "duration": 164}, {"note": 0, "velocity": 0, "duration": 76}, {"note": 71, "velocity": 79, "duration": 137}, {"note": 0, "velocity": 0, "duration": 103}, {"note": 69, "velocity": 78, "duration": 82}, {"note": 66, "velocity": 80, "duration": 73}, {"note": 71, "velocity": 80, "duration": 170}, {"note": 0, "velocity": 0, "duration": 70}, {"note": 71, "velocity": 79, "duration": 409}, {"note": 0, "velocity": 0, "duration": 311}, {"note": 71, "velocity": 79, "duration": 162}, {"note": 0, "velocity": 0, "duration": 78}, {"note": 69, "velocity": 78, "duration": 293}, {"note": 0, "velocity": 0, "duration": 187}, {"note": 66, "velocity": 78, "duration": 85}, {"note": 64, "velocity": 78, "duration": 70}, {"note": 66, "velocity": 81, "duration": 669}, {"note": 0, "velocity": 0, "duration": 291}, {"note": 59, "velocity": 78, "duration": 165}, {"note": 0, "velocity": 0, "duration": 75}, {"note": 64, "velocity": 78, "duration": 155}, {"note": 0, "velocity": 0, "duration": 85}, {"note": 64, "velocity": 80, "duration": 198}, {"note": 62, "velocity": 81, "duration": 70}, {"note": 59, "velocity": 78, "duration": 76}, {"note": 66, "velocity": 77, "duration": 174}, {"note": 0, "velocity": 0, "duration": 66}, {"note": 64, "velocity": 79, "duration": 485}, {"note": 0, "velocity": 0, "duration": 235}, {"note": 66, "velocity": 79, "duration": 180}, {"note": 64, "velocity": 72, "duration": 58}, {"note": 0, "velocity": 0, "duration": 62}, {"note": 66, "velocity": 82, "duration": 82}, {"note": 64, "velocity": 79, "duration": 161}, {"note": 0, "velocity": 0, "duration": 79}, {"note": 62, "velocity": 82, "duration": 223}, {"note": 59, "velocity": 80, "duration": 873}, {"note": 0, "velocity": 0, "duration": 87}, {"note": 59, "velocity": 84, "duration": 207}, {"note": 66, "velocity": 79, "duration": 154}, {"note": 0, "velocity": 0, "duration": 86}, {"note": 66, "velocity": 80, "duration": 180}, {"note": 59, "velocity": 81, "duration": 60}, {"note": 59, "velocity": 77, "duration": 91}, {"note": 66, "velocity": 79, "duration": 166}, {"note": 0, "velocity": 0, "duration": 74}, {"note": 66, "velocity": 79, "duration": 534}, {"note": 0, "velocity": 0, "duration": 186}, {"note": 66, "velocity": 81, "duration": 213}, {"note": 59, "velocity": 92, "duration": 192}, {"note": 62, "velocity": 82, "duration": 133}, {"note": 64, "velocity": 80, "duration": 77}, {"note": 66, "velocity": 79, "duration": 206}, {"note": 64, "velocity": 80, "duration": 720}, {"note": 0, "velocity": 0, "duration": 240}, {"note": 59, "velocity": 83, "duration": 191}, {"note": 64, "velocity": 79, "duration": 155}, {"note": 0, "velocity": 0, "duration": 85}, {"note": 64, "velocity": 78, "duration": 342}, {"note": 59, "velocity": 79, "duration": 118}, {"note": 64, "velocity": 79, "duration": 162}, {"note": 0, "velocity": 0, "duration": 78}, {"note": 64, "velocity": 79, "duration": 408}, {"note": 0, "velocity": 0, "duration": 312}, {"note": 62, "velocity": 82, "duration": 167}, {"note": 0, "velocity": 0, "duration": 73}, {"note": 62, "velocity": 80, "duration": 161}, {"note": 0, "velocity": 0, "duration": 79}, {"note": 64, "velocity": 80, "duration": 189}, {"note": 62, "velocity": 85, "duration": 67}, {"note": 64, "velocity": 78, "duration": 77}, {"note": 66, "velocity": 78, "duration": 155}, {"note": 0, "velocity": 0, "duration": 85}, {"note": 66, "velocity": 77, "duration": 556}, {"note": 0, "velocity": 0, "duration": 164}, {"note": 66, "velocity": 81, "duration": 212}, {"note": 71, "velocity": 79, "duration": 164}, {"note": 0, "velocity": 0, "duration": 76}, {"note": 71, "velocity": 79, "duration": 137}, {"note": 0, "velocity": 0, "duration": 103}, {"note": 69, "velocity": 78, "duration": 82}, {"note": 66, "velocity": 80, "duration": 73}, {"note": 73, "velocity": 80, "duration": 170}, {"note": 0, "velocity": 0, "duration": 70}, {"note": 71, "velocity": 79, "duration": 409}, {"note": 0, "velocity": 0, "duration": 311}, {"note": 73, "velocity": 79, "duration": 162}, {"note": 0, "velocity": 0, "duration": 78}, {"note": 73, "velocity": 78, "duration": 240}, {"note": 71, "velocity": 79, "duration": 240}, {"note": 69, "velocity": 78, "duration": 85}, {"note": 66, "velocity": 78, "duration": 70}, {"note": 66, "velocity": 81, "duration": 669}, {"note": 0, "velocity": 0, "duration": 291}, {"note": 66, "velocity": 80, "duration": 299}, {"note": 0, "velocity": 0, "duration": 61}, {"note": 71, "velocity": 80, "duration": 77}, {"note": 71, "velocity": 78, "duration": 173}, {"note": 0, "velocity": 0, "duration": 67}, {"note": 66, "velocity": 75, "duration": 240}, {"note": 66, "velocity": 78, "duration": 219}, {"note": 62, "velocity": 79, "duration": 83}, {"note": 66, "velocity": 79, "duration": 113}, {"note": 64, "velocity": 84, "duration": 378}, {"note": 0, "velocity": 0, "duration": 102}, {"note": 66, "velocity": 79, "duration": 198}, {"note": 64, "velocity": 80, "duration": 92}, {"note": 66, "velocity": 79, "duration": 109}, {"note": 64, "velocity": 82, "duration": 226}, {"note": 62, "velocity": 82, "duration": 94}, {"note": 59, "velocity": 83, "duration": 85}, {"note": 59, "velocity": 78, "duration": 827}, {"note": 0, "velocity": 0, "duration": 2053}, {"note": 74, "velocity": 87, "duration": 229}, {"note": 71, "velocity": 82, "duration": 202}, {"note": 74, "velocity": 85, "duration": 173}, {"note": 0, "velocity": 0, "duration": 67}, {"note": 76, "velocity": 83, "duration": 66}, {"note": 78, "velocity": 79, "duration": 70}, {"note": 78, "velocity": 81, "duration": 778}, {"note": 0, "velocity": 0, "duration": 182}, {"note": 78, "velocity": 83, "duration": 201}, {"note": 76, "velocity": 82, "duration": 76}, {"note": 78, "velocity": 92, "duration": 88}, {"note": 76, "velocity": 89, "duration": 218}, {"note": 74, "velocity": 83, "duration": 76}, {"note": 71, "velocity": 79, "duration": 83}, {"note": 71, "velocity": 79, "duration": 728}, {"note": 0, "velocity": 0, "duration": 232}, {"note": 71, "velocity": 82, "duration": 179}, {"note": 0, "velocity": 0, "duration": 61}, {"note": 71, "velocity": 85, "duration": 184}, {"note": 74, "velocity": 82, "duration": 238}, {"note": 71, "velocity": 84, "duration": 191}, {"note": 78, "velocity": 80, "duration": 190}, {"note": 76, "velocity": 85, "duration": 546}, {"note": 0, "velocity": 0, "duration": 174}, {"note": 74, "velocity": 78, "duration": 183}, {"note": 71, "velocity": 80, "duration": 159}, {"note": 0, "velocity": 0, "duration": 81}, {"note": 71, "velocity": 80, "duration": 179}, {"note": 0, "velocity": 0, "duration": 61}, {"note": 69, "velocity": 79, "duration": 177}, {"note": 0, "velocity": 0, "duration": 63}, {"note": 66, "velocity": 87, "duration": 811}, {"note": 0, "velocity": 0, "duration": 149}, {"note": 74, "velocity": 85, "duration": 168}, {"note": 0, "velocity": 0, "duration": 72}, {"note": 74, "velocity": 80, "duration": 67}, {"note": 74, "velocity": 81, "duration": 70}, {"note": 76, "velocity": 80, "duration": 167}, {"note": 0, "velocity": 0, "duration": 73}, {"note": 78, "velocity": 82, "duration": 168}, {"note": 0, "velocity": 0, "duration": 72}, {"note": 78, "velocity": 81, "duration": 744}, {"note": 0, "velocity": 0, "duration": 216}, {"note": 78, "velocity": 83, "duration": 168}, {"note": 0, "velocity": 0, "duration": 72}, {"note": 78, "velocity": 82, "duration": 158}, {"note": 0, "velocity": 0, "duration": 82}, {"note": 76, "velocity": 79, "duration": 203}, {"note": 74, "velocity": 82, "duration": 122}, {"note": 71, "velocity": 66, "duration": 67}, {"note": 71, "velocity": 79, "duration": 678}, {"note": 0, "velocity": 0, "duration": 282}, {"note": 66, "velocity": 69, "duration": 164}, {"note": 0, "velocity": 0, "duration": 76}, {"note": 71, "velocity": 79, "duration": 145}, {"note": 0, "velocity": 0, "duration": 95}, {"note": 74, "velocity": 82, "duration": 201}, {"note": 71, "velocity": 82, "duration": 192}, {"note": 78, "velocity": 82, "duration": 204}, {"note": 76, "velocity": 87, "duration": 533}, {"note": 0, "velocity": 0, "duration": 187}, {"note": 69, "velocity": 80, "duration": 180}, {"note": 71, "velocity": 84, "duration": 182}, {"note": 74, "velocity": 82, "duration": 173}, {"note": 0, "velocity": 0, "duration": 67}, {"note": 76, "velocity": 80, "duration": 80}, {"note": 74, "velocity": 79, "duration": 58}, {"note": 0, "velocity": 0, "duration": 62}, {"note": 71, "velocity": 80, "duration": 791}, {"note": 0, "velocity": 0, "duration": 169}, {"note": 74, "velocity": 87, "duration": 229}, {"note": 71, "velocity": 82, "duration": 202}, {"note": 74, "velocity": 85, "duration": 173}, {"note": 0, "velocity": 0, "duration": 67}, {"note": 76, "velocity": 83, "duration": 66}, {"note": 78, "velocity": 79, "duration": 70}, {"note": 78, "velocity": 81, "duration": 778}, {"note": 0, "velocity": 0, "duration": 182}, {"note": 78, "velocity": 83, "duration": 201}, {"note": 76, "velocity": 82, "duration": 76}, {"note": 78, "velocity": 92, "duration": 88}, {"note": 76, "velocity": 89, "duration": 218}, {"note": 74, "velocity": 83, "duration": 76}, {"note": 71, "velocity": 79, "duration": 83}, {"note": 71, "velocity": 79, "duration": 728}, {"note": 0, "velocity": 0, "duration": 232}, {"note": 71, "velocity": 82, "duration": 179}, {"note": 0, "velocity": 0, "duration": 61}, {"note": 71, "velocity": 85, "duration": 184}, {"note": 74, "velocity": 82, "duration": 238}, {"note": 71, "velocity": 84, "duration": 191}, {"note": 78, "velocity": 80, "duration": 190}, {"note": 76, "velocity": 85, "duration": 546}, {"note": 0, "velocity": 0, "duration": 174}, {"note": 74, "velocity": 78, "duration": 183}, {"note": 71, "velocity": 80, "duration": 159}, {"note": 0, "velocity": 0, "duration": 81}, {"note": 71, "velocity": 80, "duration": 179}, {"note": 0, "velocity": 0, "duration": 61}, {"note": 69, "velocity": 79, "duration": 177}, {"note": 0, "velocity": 0, "duration": 63}, {"note": 66, "velocity": 87, "duration": 811}, {"note": 0, "velocity": 0, "duration": 149}, {"note": 74, "velocity": 85, "duration": 168}, {"note": 0, "velocity": 0, "duration": 72}, {"note": 74, "velocity": 80, "duration": 67}, {"note": 74, "velocity": 81, "duration": 70}, {"note": 76, "velocity": 80, "duration": 167}, {"note": 0, "velocity": 0, "duration": 73}, {"note": 78, "velocity": 82, "duration": 168}, {"note": 0, "velocity": 0, "duration": 72}, {"note": 78, "velocity": 81, "duration": 744}, {"note": 0, "velocity": 0, "duration": 216}, {"note": 78, "velocity": 83, "duration": 168}, {"note": 0, "velocity": 0, "duration": 72}, {"note": 78, "velocity": 82, "duration": 158}, {"note": 0, "velocity": 0, "duration": 82}, {"note": 76, "velocity": 79, "duration": 203}, {"note": 74, "velocity": 82, "duration": 122}, {"note": 71, "velocity": 66, "duration": 67}, {"note": 71, "velocity": 79, "duration": 678}, {"note": 0, "velocity": 0, "duration": 282}, {"note": 66, "velocity": 69, "duration": 164}, {"note": 0, "velocity": 0, "duration": 76}, {"note": 71, "velocity": 79, "duration": 145}, {"note": 0, "velocity": 0, "duration": 95}, {"note": 74, "velocity": 82, "duration": 201}, {"note": 71, "velocity": 82, "duration": 192}, {"note": 78, "velocity": 82, "duration": 204}, {"note": 76, "velocity": 87, "duration": 533}, {"note": 0, "velocity": 0, "duration": 187}, {"note": 69, "velocity": 80, "duration": 180}, {"note": 71, "velocity": 84, "duration": 182}, {"note": 74, "velocity": 82, "duration": 173}, {"note": 0, "velocity": 0, "duration": 67}, {"note": 76, "velocity": 80, "duration": 80}, {"note": 74, "velocity": 79, "duration": 58}, {"note": 0, "velocity": 0, "duration": 62}, {"note": 71, "velocity": 80, "duration": 791}]]