[[{"note": 69, "velocity": 83, "duration": 195}, {"note": 71, "velocity": 86, "duration": 180}, {"note": 74, "velocity": 86, "duration": 157}, {"note": 0, "velocity": 0, "duration": 83}, {"note": 76, "velocity": 81, "duration": 131}, {"note": 0, "velocity": 0, "duration": 109}, {"note": 78, "velocity": 87, "duration": 345}, {"note": 0, "velocity": 0, "duration": 135}, {"note": 76, "velocity": 81, "duration": 176}, {"note": 0, "velocity": 0, "duration": 64}, {"note": 74, "velocity": 85, "duration": 167}, {"note": 0, "velocity": 0, "duration": 73}, {"note": 76, "velocity": 81, "duration": 137}, {"note": 0, "velocity": 0, "duration": 103}, {"note": 76, "velocity": 79, "duration": 140}, {"note": 0, "velocity": 0, "duration": 100}, {"note": 76, "velocity": 81, "duration": 162}, {"note": 0, "velocity": 0, "duration": 78}, {"note": 74, "velocity": 84, "duration": 209}, {"note": 71, "velocity": 80, "duration": 803}, {"note": 0, "velocity": 0, "duration": 157}, {"note": 69, "velocity": 82, "duration": 197}, {"note": 71, "velocity": 86, "duration": 188}, {"note": 74, "velocity": 85, "duration": 188}, {"note": 76, "velocity": 84, "duration": 213}, {"note": 78, "velocity": 80, "duration": 193}, {"note": 81, "velocity": 83, "duration": 158}, {"note": 0, "velocity": 0, "duration": 82}, {"note": 78, "velocity": 80, "duration": 187}, {"note": 78, "velocity": 81, "duration": 180}, {"note": 76, "velocity": 81, "duration": 383}, {"note": 0, "velocity": 0, "duration": 97}, {"note": 71, "velocity": 84, "duration": 207}, {"note": 74, "velocity": 85, "duration": 200}, {"note": 76, "velocity": 81, "duration": 773}, {"note": 0, "velocity": 0, "duration": 187}, {"note": 69, "velocity": 83, "duration": 195}, {"note": 71, "velocity": 86, "duration": 180}, {"note": 74, "velocity": 86, "duration": 157}, {"note": 0, "velocity": 0, "duration": 83}, {"note": 76, "velocity": 81, "duration": 131}, {"note": 0, "velocity": 0, "duration": 109}, {"note": 78, "velocity": 87, "duration": 345}, {"note": 0, "velocity": 0, "duration": 135}, {"note": 76, "velocity": 81, "duration": 176}, {"note": 0, "velocity": 0, "duration": 64}, {"note": 74, "velocity": 85, "duration": 167}, {"note": 0, "velocity": 0, "duration": 73}, {"note": 76, "velocity": 81, "duration": 137}, {"note": 0, "velocity": 0, "duration": 103}, {"note": 76, "velocity": 79, "duration": 140}, {"note": 0, "velocity": 0, "duration": 100}, {"note": 76, "velocity": 81, "duration": 162}, {"note": 0, "velocity": 0, "duration": 78}, {"note": 74, "velocity": 84, "duration": 209}, {"note": 71, "velocity": 80, "duration": 803}, {"note": 0, "velocity": 0, "duration": 157}, {"note": 69, "velocity": 82, "duration": 197}, {"note": 71, "velocity": 86, "duration": 188}, {"note": 74, "velocity": 85, "duration": 188}, {"note": 76, "velocity": 84, "duration": 213}, {"note": 78, "velocity": 80, "duration": 193}, {"note": 81, "velocity": 83, "duration": 158}, {"note": 0, "velocity": 0, "duration": 82}, {"note": 78, "velocity": 80, "duration": 187}, {"note": 78, "velocity": 81, "duration": 180}, {"note": 76, "velocity": 81, "duration": 240}, {"note": 76, "velocity": 81, "duration": 240}, {"note": 74, "velocity": 84, "duration": 207}, {"note": 71, "velocity": 85, "duration": 200}, {"note": 74, "velocity": 81, "duration": 960}, {"note": 0, "velocity": 0, "duration": 960}, {"note": 83, "velocity": 82, "duration": 265}, {"note": 0, "velocity": 0, "duration": 95}, {"note": 81, "velocity": 82, "duration": 70}, {"note": 83, "velocity": 86, "duration": 582}, {"note": 0, "velocity": 0, "duration": 138}, {"note": 81, "velocity": 84, "duration": 70}, {"note": 83, "velocity": 83, "duration": 66}, {"note": 81, "velocity": 85, "duration": 162}, {"note": 0, "velocity": 0, "duration": 78}, {"note": 78, "velocity": 82, "duration": 162}, {"note": 0, "velocity": 0, "duration": 78}, {"note": 81, "velocity": 84, "duration": 147}, {"note": 0, "velocity": 0, "duration": 93}, {"note": 81, "velocity": 79, "duration": 125}, {"note": 0, "velocity": 0, "duration": 115}, {"note": 81, "velocity": 82, "duration": 240}, {"note": 83, "velocity": 81, "duration": 240}, {"note": 78, "velocity": 81, "duration": 480}, {"note": 0, "velocity": 0, "duration": 480}, {"note": 76, "velocity": 84, "duration": 256}, {"note": 0, "velocity": 0, "duration": 104}, {"note": 74, "velocity": 83, "duration": 69}, {"note": 76, "velocity": 84, "duration": 593}, {"note": 0, "velocity": 0, "duration": 127}, {"note": 71, "velocity": 83, "duration": 84}, {"note": 74, "velocity": 84, "duration": 55}, {"note": 0, "velocity": 0, "duration": 65}, {"note": 74, "velocity": 86, "duration": 191}, {"note": 71, "velocity": 86, "duration": 191}, {"note": 81, "velocity": 81, "duration": 150}, {"note": 0, "velocity": 0, "duration": 90}, {"note": 81, "velocity": 80, "duration": 150}, {"note": 0, "velocity": 0, "duration": 90}, {"note": 81, "velocity": 81, "duration": 159}, {"note": 0, "velocity": 0, "duration": 81}, {"note": 78, "velocity": 80, "duration": 173}, {"note": 0, "velocity": 0, "duration": 67}, {"note": 76, "velocity": 87, "duration": 745}, {"note": 0, "velocity": 0, "duration": 215}, {"note": 78, "velocity": 82, "duration": 205}, {"note": 81, "velocity": 81, "duration": 370}, {"note": 0, "velocity": 0, "duration": 110}, {"note": 81, "velocity": 80, "duration": 173}, {"note": 0, "velocity": 0, "duration": 67}, {"note": 83, "velocity": 82, "duration": 179}, {"note": 0, "velocity": 0, "duration": 61}, {"note": 81, "velocity": 81, "duration": 147}, {"note": 0, "velocity": 0, "duration": 93}, {"note": 78, "velocity": 83, "duration": 96}, {"note": 76, "velocity": 81, "duration": 67}, {"note": 74, "velocity": 82, "duration": 203}, {"note": 76, "velocity": 82, "duration": 159}, {"note": 0, "velocity": 0, "duration": 81}, {"note": 76, "velocity": 82, "duration": 147}, {"note": 0, "velocity": 0, "duration": 93}, {"note": 76, "velocity": 82, "duration": 221}, {"note": 74, "velocity": 82, "duration": 219}, {"note": 71, "velocity": 81, "duration": 539}, {"note": 0, "velocity": 0, "duration": 181}, {"note": 74, "velocity": 85, "duration": 84}, {"note": 76, "velocity": 82, "duration": 67}, {"note": 78, "velocity": 83, "duration": 610}, {"note": 0, "velocity": 0, "duration": 110}, {"note": 81, "velocity": 81, "duration": 171}, {"note": 0, "velocity": 0, "duration": 69}, {"note": 83, "velocity": 84, "duration": 405}, {"note": 0, "velocity": 0, "duration": 75}, {"note": 81, "velocity": 81, "duration": 187}, {"note": 83, "velocity": 82, "duration": 178}, {"note": 0, "velocity": 0, "duration": 62}, {"note": 81, "velocity": 80, "duration": 452}, {"note": 0, "velocity": 0, "duration": 268}, {"note": 78, "velocity": 81, "duration": 214}, {"note": 76, "velocity": 83, "duration": 188}, {"note": 74, "velocity": 84, "duration": 147}, {"note": 0, "velocity": 0, "duration": 93}, {"note": 76, "velocity": 81, "duration": 85}, {"note": 74, "velocity": 82, "duration": 81}, {"note": 71, "velocity": 83, "duration": 188}, {"note": 74, "velocity": 87, "duration": 1667}, {"note": 0, "velocity": 0, "duration": 13693}, {"note": 69, "velocity": 83, "duration": 195}, {"note": 71, "velocity": 86, "duration": 180}, {"note": 74, "velocity": 86, "duration": 157}, {"note": 0, "velocity": 0, "duration": 83}, {"note": 76, "velocity": 81, "duration": 131}, {"note": 0, "velocity": 0, "duration": 109}, {"note": 78, "velocity": 87, "duration": 345}, {"note": 0, "velocity": 0, "duration": 135}, {"note": 76, "velocity": 81, "duration": 176}, {"note": 0, "velocity": 0, "duration": 64}, {"note": 74, "velocity": 85, "duration": 167}, {"note": 0, "velocity": 0, "duration": 73}, {"note": 76, "velocity": 81, "duration": 137}, {"note": 0, "velocity": 0, "duration": 103}, {"note": 76, "velocity": 79, "duration": 140}, {"note": 0, "velocity": 0, "duration": 100}, {"note": 76, "velocity": 81, "duration": 162}, {"note": 0, "velocity": 0, "duration": 78}, {"note": 74, "velocity": 84, "duration": 209}, {"note": 71, "velocity": 80, "duration": 803}, {"note": 0, "velocity": 0, "duration": 157}, {"note": 69, "velocity": 82, "duration": 197}, {"note": 71, "velocity": 86, "duration": 188}, {"note": 74, "velocity": 85, "duration": 188}, {"note": 76, "velocity": 84, "duration": 213}, {"note": 78, "velocity": 80, "duration": 193}, {"note": 81, "velocity": 83, "duration": 158}, {"note": 0, "velocity": 0, "duration": 82}, {"note": 78, "velocity": 80, "duration": 187}, {"note": 78, "velocity": 81, "duration": 180}, {"note": 76, "velocity": 81, "duration": 383}, {"note": 0, "velocity": 0, "duration": 97}, {"note": 71, "velocity": 84, "duration": 207}, {"note": 74, "velocity": 85, "duration": 200}, {"note": 76, "velocity": 81, "duration": 773}, {"note": 0, "velocity": 0, "duration": 187}, {"note": 69, "velocity": 83, "duration": 195}, {"note": 71, "velocity": 86, "duration": 180}, {"note": 74, "velocity": 86, "duration": 157}, {"note": 0, "velocity": 0, "duration": 83}, {"note": 76, "velocity": 81, "duration": 131}, {"note": 0, "velocity": 0, "duration": 109}, {"note": 78, "velocity": 87, "duration": 345}, {"note": 0, "velocity": 0, "duration": 135}, {"note": 76, "velocity": 81, "duration": 176}, {"note": 0, "velocity": 0, "duration": 64}, {"note": 74, "velocity": 85, "duration": 167}, {"note": 0, "velocity": 0, "duration": 73}, {"note": 76, "velocity": 81, "duration": 137}, {"note": 0, "velocity": 0, "duration": 103}, {"note": 76, "velocity": 79, "duration": 140}, {"note": 0, "velocity": 0, "duration": 100}, {"note": 76, "velocity": 81, "duration": 162}, {"note": 0, "velocity": 0, "duration": 78}, {"note": 74, "velocity": 84, "duration": 209}, {"note": 71, "velocity": 80, "duration": 803}, {"note": 0, "velocity": 0, "duration": 157}, {"note": 69, "velocity": 82, "duration": 197}, {"note": 71, "velocity": 86, "duration": 188}, {"note": 74, "velocity": 85, "duration": 188}, {"note": 76, "velocity": 84, "duration": 213}, {"note": 78, "velocity": 80, "duration": 193}, {"note": 81, "velocity": 83, "duration": 158}, {"note": 0, "velocity": 0, "duration": 82}, {"note": 78, "velocity": 80, "duration": 187}, {"note": 78, "velocity": 81, "duration": 180}, {"note": 76, "velocity": 81, "duration": 240}, {"note": 76, "velocity": 81, "duration": 240}, {"note": 74, "velocity": 84, "duration": 207}, {"note": 71, "velocity": 85, "duration": 200}, {"note": 74, "velocity": 81, "duration": 960}, {"note": 0, "velocity": 0, "duration": 960}, {"note": 83, "velocity": 82, "duration": 265}, {"note": 0, "velocity": 0, "duration": 95}, {"note": 81, "velocity": 82, "duration": 70}, {"note": 83, "velocity": 86, "duration": 582}, {"note": 0, "velocity": 0, "duration": 138}, {"note": 81, "velocity": 84, "duration": 70}, {"note": 83, "velocity": 83, "duration": 66}, {"note": 81, "velocity": 85, "duration": 162}, {"note": 0, "velocity": 0, "duration": 78}, {"note": 78, "velocity": 82, "duration": 162}, {"note": 0, "velocity": 0, "duration": 78}, {"note": 81, "velocity": 84, "duration": 147}, {"note": 0, "velocity": 0, "duration": 93}, {"note": 81, "velocity": 79, "duration": 125}, {"note": 0, "velocity": 0, "duration": 115}, {"note": 81, "velocity": 82, "duration": 240}, {"note": 83, "velocity": 81, "duration": 240}, {"note": 78, "velocity": 81, "duration": 480}, {"note": 0, "velocity": 0, "duration": 480}, {"note": 76, "velocity": 84, "duration": 256}, {"note": 0, "velocity": 0, "duration": 104}, {"note": 74, "velocity": 83, "duration": 69}, {"note": 76, "velocity": 84, "duration": 593}, {"note": 0, "velocity": 0, "duration": 127}, {"note": 71, "velocity": 83, "duration": 84}, {"note": 74, "velocity": 84, "duration": 55}, {"note": 0, "velocity": 0, "duration": 65}, {"note": 74, "velocity": 86, "duration": 191}, {"note": 71, "velocity": 86, "duration": 191}, {"note": 81, "velocity": 81, "duration": 150}, {"note": 0, "velocity": 0, "duration": 90}, {"note": 81, "velocity": 80, "duration": 150}, {"note": 0, "velocity": 0, "duration": 90}, {"note": 81, "velocity": 81, "duration": 159}, {"note": 0, "velocity": 0, "duration": 81}, {"note": 78, "velocity": 80, "duration": 173}, {"note": 0, "velocity": 0, "duration": 67}, {"note": 76, "velocity": 87, "duration": 745}, {"note": 0, "velocity": 0, "duration": 215}, {"note": 78, "velocity": 82, "duration": 205}, {"note": 81, "velocity": 81, "duration": 370}, {"note": 0, "velocity": 0, "duration": 110}, {"note": 81, "velocity": 80, "duration": 173}, {"note": 0, "velocity": 0, "duration": 67}, {"note": 83, "velocity": 82, "duration": 179}, {"note": 0, "velocity": 0, "duration": 61}, {"note": 81, "velocity": 81, "duration": 147}, {"note": 0, "velocity": 0, "duration": 93}, {"note": 78, "velocity": 83, "duration": 96}, {"note": 76, "velocity": 81, "duration": 67}, {"note": 74, "velocity": 82, "duration": 203}, {"note": 76, "velocity": 82, "duration": 159}, {"note": 0, "velocity": 0, "duration": 81}, {"note": 76, "velocity": 82, "duration": 147}, {"note": 0, "velocity": 0, "duration": 93}, {"note": 76, "velocity": 82, "duration": 221}, {"note": 74, "velocity": 82, "duration": 219}, {"note": 71, "velocity": 81, "duration": 539}, {"note": 0, "velocity": 0, "duration": 181}, {"note": 74, "velocity": 85, "duration": 84}, {"note": 76, "velocity": 82, "duration": 67}, {"note": 78, "velocity": 83, "duration": 610}, {"note": 0, "velocity": 0, "duration": 110}, {"note": 81, "velocity": 81, "duration": 171}, {"note": 0, "velocity": 0, "duration": 69}, {"note": 83, "velocity": 84, "duration": 405}, {"note": 0, "velocity": 0, "duration": 75}, {"note": 81, "velocity": 81, "duration": 187}, {"note": 83, "velocity": 82, "duration": 178}, {"note": 0, "velocity": 0, "duration": 62}, {"note": 81, "velocity": 80, "duration": 452}, {"note": 0, "velocity": 0, "duration": 268}, {"note": 78, "velocity": 81, "duration": 214}, {"note": 76, "velocity": 83, "duration": 188}, {"note": 74, "velocity": 84, "duration": 147}, {"note": 0, "velocity": 0, "duration": 93}, {"note": 76, "velocity": 81, "duration": 85}, {"note": 74, "velocity": 82, "duration": 81}, {"note": 71, "velocity": 83, "duration": 188}, {"note": 74, "velocity": 87, "duration": 1667}, {"note": 0, "velocity": 0, "duration": 15613}, {"note": 83, "velocity": 82, "duration": 265}, {"note": 0, "velocity": 0, "duration": 95}, {"note": 81, "velocity": 82, "duration": 70}, {"note": 83, "velocity": 86, "duration": 582}, {"note": 0, "velocity": 0, "duration": 138}, {"note": 81, "velocity": 84, "duration": 70}, {"note": 83, "velocity": 83, "duration": 66}, {"note": 81, "velocity": 85, "duration": 162}, {"note": 0, "velocity": 0, "duration": 78}, {"note": 78, "velocity": 82, "duration": 162}, {"note": 0, "velocity": 0, "duration": 78}, {"note": 81, "velocity": 84, "duration": 147}, {"note": 0, "velocity": 0, "duration": 93}, {"note": 81, "velocity": 79, "duration": 125}, {"note": 0, "velocity": 0, "duration": 115}, {"note": 81, "velocity": 82, "duration": 240}, {"note": 83, "velocity": 81, "duration": 240}, {"note": 78, "velocity": 81, "duration": 480}, {"note": 0, "velocity": 0, "duration": 480}, {"note": 76, "velocity": 84, "duration": 256}, {"note": 0, "velocity": 0, "duration": 104}, {"note": 74, "velocity": 83, "duration": 69}, {"note": 76, "velocity": 84, "duration": 593}, {"note": 0, "velocity": 0, "duration": 127}, {"note": 71, "velocity": 83, "duration": 84}, {"note": 74, "velocity": 84, "duration": 55}, {"note": 0, "velocity": 0, "duration": 65}, {"note": 74, "velocity": 86, "duration": 191}, {"note": 71, "velocity": 86, "duration": 191}, {"note": 81, "velocity": 81, "duration": 150}, {"note": 0, "velocity": 0, "duration": 90}, {"note": 81, "velocity": 80, "duration": 150}, {"note": 0, "velocity": 0, "duration": 90}, {"note": 81, "velocity": 81, "duration": 159}, {"note": 0, "velocity": 0, "duration": 81}, {"note": 78, "velocity": 80, "duration": 173}, {"note": 0, "velocity": 0, "duration": 67}, {"note": 76, "velocity": 87, "duration": 745}, {"note": 0, "velocity": 0, "duration": 215}, {"note": 78, "velocity": 82, "duration": 205}, {"note": 81, "velocity": 81, "duration": 370}, {"note": 0, "velocity": 0, "duration": 110}, {"note": 81, "velocity": 80, "duration": 173}, {"note": 0, "velocity": 0, "duration": 67}, {"note": 83, "velocity": 82, "duration": 179}, {"note": 0, "velocity": 0, "duration": 61}, {"note": 81, "velocity": 81, "duration": 147}, {"note": 0, "velocity": 0, "duration": 93}, {"note": 78, "velocity": 83, "duration": 96}, {"note": 76, "velocity": 81, "duration": 67}, {"note": 74, "velocity": 82, "duration": 203}, {"note": 76, "velocity": 82, "duration": 159}, {"note": 0, "velocity": 0, "duration": 81}, {"note": 76, "velocity": 82, "duration": 147}, {"note": 0, "velocity": 0, "duration": 93}, {"note": 76, "velocity": 82, "duration": 221}, {"note": 74, "velocity": 82, "duration": 219}, {"note": 71, "velocity": 81, "duration": 539}, {"note": 0, "velocity": 0, "duration": 181}, {"note": 74, "velocity": 85, "duration": 84}, {"note": 76, "velocity": 82, "duration": 67}, {"note": 78, "velocity": 83, "duration": 610}, {"note": 0, "velocity": 0, "duration": 110}, {"note": 81, "velocity": 81, "duration": 171}, {"note": 0, "velocity": 0, "duration": 69}, {"note": 83, "velocity": 84, "duration": 405}, {"note": 0, "velocity": 0, "duration": 75}, {"note": 81, "velocity": 81, "duration": 187}, {"note": 83, "velocity": 82, "duration": 178}, {"note": 0, "velocity": 0, "duration": 62}, {"note": 81, "velocity": 80, "duration": 452}, {"note": 0, "velocity": 0, "duration": 268}, {"note": 78, "velocity": 81, "duration": 214}, {"note": 76, "velocity": 83, "duration": 188}, {"note": 74, "velocity": 84, "duration": 147}, {"note": 0, "velocity": 0, "duration": 93}, {"note": 76, "velocity": 81, "duration": 85}, {"note": 74, "velocity": 82, "duration": 81}, {"note": 71, "velocity": 83, "duration": 188}, {"note": 74, "velocity": 87, "duration": 1667}, {"note": 0, "velocity": 0, "duration": 253}, {"note": 83, "velocity": 82, "duration": 265}, {"note": 0, "velocity": 0, "duration": 95}, {"note": 81, "velocity": 82, "duration": 70}, {"note": 83, "velocity": 86, "duration": 582}, {"note": 0, "velocity": 0, "duration": 138}, {"note": 81, "velocity": 84, "duration": 70}, {"note": 83, "velocity": 83, "duration": 66}, {"note": 81, "velocity": 85, "duration": 162}, {"note": 0, "velocity": 0, "duration": 78}, {"note": 78, "velocity": 82, "duration": 162}, {"note": 0, "velocity": 0, "duration": 78}, {"note": 81, "velocity": 84, "duration": 147}, {"note": 0, "velocity": 0, "duration": 93}, {"note": 81, "velocity": 79, "duration": 125}, {"note": 0, "velocity": 0, "duration": 115}, {"note": 81, "velocity": 82, "duration": 240}, {"note": 83, "velocity": 81, "duration": 240}, {"note": 78, "velocity": 81, "duration": 480}, {"note": 0, "velocity": 0, "duration": 480}, {"note": 76, "velocity": 84, "duration": 256}, {"note": 0, "velocity": 0, "duration": 104}, {"note": 74, "velocity": 83, "duration": 69}, {"note": 76, "velocity": 84, "duration": 593}, {"note": 0, "velocity": 0, "duration": 127}, {"note": 71, "velocity": 83, "duration": 84}, {"note": 74, "velocity": 84, "duration": 55}, {"note": 0, "velocity": 0, "duration": 65}, {"note": 74, "velocity": 86, "duration": 191}, {"note": 71, "velocity": 86, "duration": 191}, {"note": 81, "velocity": 81, "duration": 150}, {"note": 0, "velocity": 0, "duration": 90}, {"note": 81, "velocity": 80, "duration": 150}, {"note": 0, "velocity": 0, "duration": 90}, {"note": 81, "velocity": 81, "duration": 159}, {"note": 0, "velocity": 0, "duration": 81}, {"note": 78, "velocity": 80, "duration": 173}, {"note": 0, "velocity": 0, "duration": 67}, {"note": 76, "velocity": 87, "duration": 745}, {"note": 0, "velocity": 0, "duration": 215}, {"note": 78, "velocity": 82, "duration": 205}, {"note": 81, "velocity": 81, "duration": 370}, {"note": 0, "velocity": 0, "duration": 110}, {"note": 81, "velocity": 80, "duration": 173}, {"note": 0, "velocity": 0, "duration": 67}, {"note": 83, "velocity": 82, "duration": 179}, {"note": 0, "velocity": 0, "duration": 61}, {"note": 81, "velocity": 81, "duration": 147}, {"note": 0, "velocity": 0, "duration": 93}, {"note": 78, "velocity": 83, "duration": 96}, {"note": 76, "velocity": 81, "duration": 67}, {"note": 74, "velocity": 82, "duration": 203}, {"note": 76, "velocity": 82, "duration": 159}, {"note": 0, "velocity": 0, "duration": 81}, {"note": 76, "velocity": 82, "duration": 147}, {"note": 0, "velocity": 0, "duration": 93}, {"note": 76, "velocity": 82, "duration": 221}, {"note": 74, "velocity": 82, "duration": 219}, {"note": 71, "velocity": 81, "duration": 539}, {"note": 0, "velocity": 0, "duration": 181}, {"note": 74, "velocity": 85, "duration": 84}, {"note": 76, "velocity": 82, "duration": 67}, {"note": 78, "velocity": 83, "duration": 610}, {"note": 0, "velocity": 0, "duration": 110}, {"note": 81, "velocity": 81, "duration": 171}, {"note": 0, "velocity": 0, "duration": 69}, {"note": 83, "velocity": 84, "duration": 405}, {"note": 0, "velocity": 0, "duration": 75}, {"note": 81, "velocity": 81, "duration": 187}, {"note": 83, "velocity": 82, "duration": 178}, {"note": 0, "velocity": 0, "duration": 62}, {"note": 81, "velocity": 80, "duration": 452}, {"note": 0, "velocity": 0, "duration": 268}, {"note": 78, "velocity": 81, "duration": 214}, {"note": 76, "velocity": 83, "duration": 188}, {"note": 74, "velocity": 84, "duration": 147}, {"note": 0, "velocity": 0, "duration": 93}, {"note": 76, "velocity": 81, "duration": 85}, {"note": 74, "velocity": 82, "duration": 81}, {"note": 71, "velocity": 83, "duration": 188}, {"note": 74, "velocity": 87, "duration": 1667}]]