[[{"note": 70, "velocity": 81, "duration": 229}, {"note": 77, "velocity": 76, "duration": 93}, {"note": 77, "velocity": 78, "duration": 71}, {"note": 77, "velocity": 80, "duration": 222}, {"note": 73, "velocity": 78, "duration": 214}, {"note": 75, "velocity": 79, "duration": 245}, {"note": 73, "velocity": 74, "duration": 121}, {"note": 72, "velocity": 72, "duration": 140}, {"note": 70, "velocity": 78, "duration": 397}, {"note": 0, "velocity": 0, "duration": 83}, {"note": 68, "velocity": 76, "duration": 194}, {"note": 65, "velocity": 83, "duration": 234}, {"note": 68, "velocity": 75, "duration": 135}, {"note": 72, "velocity": 81, "duration": 334}, {"note": 70, "velocity": 76, "duration": 849}, {"note": 0, "velocity": 0, "duration": 111}, {"note": 70, "velocity": 79, "duration": 243}, {"note": 77, "velocity": 82, "duration": 179}, {"note": 0, "velocity": 0, "duration": 61}, {"note": 77, "velocity": 77, "duration": 218}, {"note": 73, "velocity": 77, "duration": 238}, {"note": 75, "velocity": 81, "duration": 269}, {"note": 73, "velocity": 72, "duration": 129}, {"note": 72, "velocity": 70, "duration": 133}, {"note": 70, "velocity": 76, "duration": 386}, {"note": 0, "velocity": 0, "duration": 94}, {"note": 75, "velocity": 85, "duration": 430}, {"note": 80, "velocity": 79, "duration": 197}, {"note": 82, "velocity": 79, "duration": 210}, {"note": 80, "velocity": 77, "duration": 249}, {"note": 77, "velocity": 77, "duration": 423}, {"note": 77, "velocity": 85, "duration": 136}, {"note": 80, "velocity": 81, "duration": 130}, {"note": 82, "velocity": 76, "duration": 68}, {"note": 82, "velocity": 77, "duration": 65}, {"note": 82, "velocity": 77, "duration": 71}, {"note": 82, "velocity": 76, "duration": 63}, {"note": 82, "velocity": 77, "duration": 321}, {"note": 80, "velocity": 76, "duration": 135}, {"note": 82, "velocity": 78, "duration": 247}, {"note": 85, "velocity": 77, "duration": 332}, {"note": 0, "velocity": 0, "duration": 388}, {"note": 80, "velocity": 78, "duration": 707}, {"note": 82, "velocity": 78, "duration": 123}, {"note": 80, "velocity": 70, "duration": 121}, {"note": 77, "velocity": 77, "duration": 547}, {"note": 0, "velocity": 0, "duration": 173}, {"note": 70, "velocity": 78, "duration": 101}, {"note": 73, "velocity": 77, "duration": 106}, {"note": 75, "velocity": 78, "duration": 68}, {"note": 75, "velocity": 78, "duration": 63}, {"note": 75, "velocity": 81, "duration": 66}, {"note": 75, "velocity": 81, "duration": 65}, {"note": 75, "velocity": 83, "duration": 210}, {"note": 73, "velocity": 78, "duration": 179}, {"note": 0, "velocity": 0, "duration": 61}, {"note": 75, "velocity": 83, "duration": 184}, {"note": 75, "velocity": 78, "duration": 64}, {"note": 75, "velocity": 82, "duration": 66}, {"note": 75, "velocity": 83, "duration": 195}, {"note": 73, "velocity": 81, "duration": 211}, {"note": 77, "velocity": 80, "duration": 1287}, {"note": 0, "velocity": 0, "duration": 633}, {"note": 70, "velocity": 81, "duration": 229}, {"note": 77, "velocity": 76, "duration": 93}, {"note": 77, "velocity": 78, "duration": 71}, {"note": 77, "velocity": 80, "duration": 222}, {"note": 73, "velocity": 78, "duration": 214}, {"note": 75, "velocity": 79, "duration": 245}, {"note": 73, "velocity": 74, "duration": 121}, {"note": 72, "velocity": 72, "duration": 140}, {"note": 70, "velocity": 78, "duration": 358}, {"note": 70, "velocity": 77, "duration": 118}, {"note": 68, "velocity": 76, "duration": 194}, {"note": 65, "velocity": 83, "duration": 234}, {"note": 68, "velocity": 75, "duration": 135}, {"note": 0, "velocity": 0, "duration": 105}, {"note": 70, "velocity": 77, "duration": 118}, {"note": 72, "velocity": 81, "duration": 118}, {"note": 70, "velocity": 76, "duration": 849}, {"note": 0, "velocity": 0, "duration": 111}, {"note": 70, "velocity": 79, "duration": 243}, {"note": 77, "velocity": 82, "duration": 179}, {"note": 0, "velocity": 0, "duration": 61}, {"note": 77, "velocity": 77, "duration": 218}, {"note": 73, "velocity": 77, "duration": 238}, {"note": 75, "velocity": 81, "duration": 269}, {"note": 73, "velocity": 72, "duration": 129}, {"note": 72, "velocity": 70, "duration": 133}, {"note": 70, "velocity": 76, "duration": 386}, {"note": 0, "velocity": 0, "duration": 94}, {"note": 75, "velocity": 85, "duration": 430}, {"note": 80, "velocity": 79, "duration": 197}, {"note": 82, "velocity": 79, "duration": 210}, {"note": 80, "velocity": 77, "duration": 249}, {"note": 77, "velocity": 77, "duration": 423}, {"note": 77, "velocity": 85, "duration": 136}, {"note": 80, "velocity": 81, "duration": 130}, {"note": 82, "velocity": 76, "duration": 68}, {"note": 82, "velocity": 77, "duration": 65}, {"note": 82, "velocity": 77, "duration": 71}, {"note": 82, "velocity": 76, "duration": 63}, {"note": 82, "velocity": 77, "duration": 358}, {"note": 80, "velocity": 76, "duration": 118}, {"note": 82, "velocity": 78, "duration": 247}, {"note": 85, "velocity": 77, "duration": 332}, {"note": 0, "velocity": 0, "duration": 388}, {"note": 80, "velocity": 78, "duration": 707}, {"note": 82, "velocity": 78, "duration": 123}, {"note": 80, "velocity": 70, "duration": 121}, {"note": 77, "velocity": 77, "duration": 547}, {"note": 0, "velocity": 0, "duration": 173}, {"note": 70, "velocity": 78, "duration": 101}, {"note": 73, "velocity": 77, "duration": 106}, {"note": 75, "velocity": 78, "duration": 68}, {"note": 75, "velocity": 78, "duration": 63}, {"note": 75, "velocity": 81, "duration": 66}, {"note": 73, "velocity": 81, "duration": 65}, {"note": 75, "velocity": 78, "duration": 118}, {"note": 75, "velocity": 83, "duration": 210}, {"note": 77, "velocity": 77, "duration": 118}, {"note": 80, "velocity": 83, "duration": 184}, {"note": 77, "velocity": 78, "duration": 64}, {"note": 75, "velocity": 83, "duration": 315}, {"note": 73, "velocity": 81, "duration": 211}, {"note": 70, "velocity": 80, "duration": 1287}, {"note": 0, "velocity": 0, "duration": 393}, {"note": 77, "velocity": 83, "duration": 90}, {"note": 80, "velocity": 78, "duration": 103}, {"note": 82, "velocity": 78, "duration": 188}, {"note": 82, "velocity": 77, "duration": 65}, {"note": 82, "velocity": 78, "duration": 430}, {"note": 80, "velocity": 74, "duration": 109}, {"note": 82, "velocity": 78, "duration": 200}, {"note": 85, "velocity": 79, "duration": 407}, {"note": 0, "velocity": 0, "duration": 73}, {"note": 80, "velocity": 76, "duration": 85}, {"note": 82, "velocity": 77, "duration": 103}, {"note": 80, "velocity": 82, "duration": 66}, {"note": 80, "velocity": 76, "duration": 68}, {"note": 80, "velocity": 79, "duration": 87}, {"note": 77, "velocity": 80, "duration": 92}, {"note": 75, "velocity": 87, "duration": 350}, {"note": 73, "velocity": 76, "duration": 109}, {"note": 77, "velocity": 80, "duration": 535}, {"note": 0, "velocity": 0, "duration": 185}, {"note": 70, "velocity": 82, "duration": 68}, {"note": 73, "velocity": 77, "duration": 79}, {"note": 75, "velocity": 83, "duration": 199}, {"note": 75, "velocity": 78, "duration": 55}, {"note": 0, "velocity": 0, "duration": 65}, {"note": 75, "velocity": 81, "duration": 57}, {"note": 0, "velocity": 0, "duration": 63}, {"note": 75, "velocity": 85, "duration": 367}, {"note": 73, "velocity": 76, "duration": 82}, {"note": 75, "velocity": 87, "duration": 206}, {"note": 77, "velocity": 78, "duration": 238}, {"note": 75, "velocity": 90, "duration": 334}, {"note": 0, "velocity": 0, "duration": 146}, {"note": 75, "velocity": 82, "duration": 60}, {"note": 75, "velocity": 82, "duration": 65}, {"note": 75, "velocity": 82, "duration": 65}, {"note": 75, "velocity": 79, "duration": 78}, {"note": 75, "velocity": 82, "duration": 351}, {"note": 73, "velocity": 72, "duration": 125}, {"note": 77, "velocity": 81, "duration": 659}, {"note": 0, "velocity": 0, "duration": 61}, {"note": 77, "velocity": 83, "duration": 71}, {"note": 80, "velocity": 78, "duration": 69}, {"note": 82, "velocity": 80, "duration": 65}, {"note": 82, "velocity": 76, "duration": 63}, {"note": 82, "velocity": 77, "duration": 63}, {"note": 82, "velocity": 77, "duration": 64}, {"note": 82, "velocity": 78, "duration": 220}, {"note": 80, "velocity": 80, "duration": 195}, {"note": 82, "velocity": 77, "duration": 224}, {"note": 85, "velocity": 80, "duration": 430}, {"note": 80, "velocity": 79, "duration": 65}, {"note": 82, "velocity": 79, "duration": 73}, {"note": 80, "velocity": 80, "duration": 65}, {"note": 80, "velocity": 78, "duration": 52}, {"note": 0, "velocity": 0, "duration": 68}, {"note": 80, "velocity": 77, "duration": 82}, {"note": 77, "velocity": 78, "duration": 71}, {"note": 75, "velocity": 77, "duration": 195}, {"note": 73, "velocity": 79, "duration": 238}, {"note": 77, "velocity": 78, "duration": 680}, {"note": 70, "velocity": 77, "duration": 94}, {"note": 73, "velocity": 78, "duration": 84}, {"note": 75, "velocity": 87, "duration": 60}, {"note": 75, "velocity": 85, "duration": 63}, {"note": 75, "velocity": 80, "duration": 63}, {"note": 75, "velocity": 82, "duration": 59}, {"note": 0, "velocity": 0, "duration": 61}, {"note": 75, "velocity": 83, "duration": 238}, {"note": 75, "velocity": 77, "duration": 118}, {"note": 73, "velocity": 77, "duration": 71}, {"note": 75, "velocity": 85, "duration": 68}, {"note": 77, "velocity": 80, "duration": 79}, {"note": 75, "velocity": 90, "duration": 366}, {"note": 0, "velocity": 0, "duration": 114}, {"note": 75, "velocity": 87, "duration": 66}, {"note": 77, "velocity": 81, "duration": 66}, {"note": 80, "velocity": 80, "duration": 74}, {"note": 80, "velocity": 81, "duration": 71}, {"note": 80, "velocity": 77, "duration": 84}, {"note": 77, "velocity": 80, "duration": 81}, {"note": 75, "velocity": 82, "duration": 168}, {"note": 0, "velocity": 0, "duration": 72}, {"note": 75, "velocity": 81, "duration": 90}, {"note": 73, "velocity": 77, "duration": 108}, {"note": 70, "velocity": 76, "duration": 943}, {"note": 0, "velocity": 0, "duration": 17297}, {"note": 70, "velocity": 81, "duration": 229}, {"note": 77, "velocity": 76, "duration": 93}, {"note": 77, "velocity": 78, "duration": 71}, {"note": 77, "velocity": 80, "duration": 222}, {"note": 73, "velocity": 78, "duration": 214}, {"note": 75, "velocity": 79, "duration": 245}, {"note": 73, "velocity": 74, "duration": 121}, {"note": 72, "velocity": 72, "duration": 140}, {"note": 70, "velocity": 78, "duration": 358}, {"note": 70, "velocity": 77, "duration": 118}, {"note": 68, "velocity": 76, "duration": 194}, {"note": 65, "velocity": 83, "duration": 234}, {"note": 68, "velocity": 75, "duration": 135}, {"note": 0, "velocity": 0, "duration": 105}, {"note": 70, "velocity": 77, "duration": 118}, {"note": 72, "velocity": 81, "duration": 118}, {"note": 70, "velocity": 76, "duration": 849}, {"note": 0, "velocity": 0, "duration": 111}, {"note": 70, "velocity": 79, "duration": 243}, {"note": 77, "velocity": 82, "duration": 179}, {"note": 0, "velocity": 0, "duration": 61}, {"note": 77, "velocity": 77, "duration": 218}, {"note": 73, "velocity": 77, "duration": 238}, {"note": 75, "velocity": 81, "duration": 269}, {"note": 73, "velocity": 72, "duration": 129}, {"note": 72, "velocity": 70, "duration": 133}, {"note": 70, "velocity": 76, "duration": 386}, {"note": 0, "velocity": 0, "duration": 94}, {"note": 75, "velocity": 85, "duration": 430}, {"note": 80, "velocity": 79, "duration": 197}, {"note": 82, "velocity": 79, "duration": 210}, {"note": 80, "velocity": 77, "duration": 249}, {"note": 77, "velocity": 77, "duration": 423}, {"note": 77, "velocity": 85, "duration": 136}, {"note": 80, "velocity": 81, "duration": 130}, {"note": 82, "velocity": 76, "duration": 68}, {"note": 82, "velocity": 77, "duration": 65}, {"note": 82, "velocity": 77, "duration": 71}, {"note": 82, "velocity": 76, "duration": 63}, {"note": 82, "velocity": 77, "duration": 358}, {"note": 80, "velocity": 76, "duration": 118}, {"note": 82, "velocity": 78, "duration": 247}, {"note": 85, "velocity": 77, "duration": 332}, {"note": 0, "velocity": 0, "duration": 388}, {"note": 80, "velocity": 78, "duration": 707}, {"note": 82, "velocity": 78, "duration": 123}, {"note": 80, "velocity": 70, "duration": 121}, {"note": 77, "velocity": 77, "duration": 547}, {"note": 0, "velocity": 0, "duration": 173}, {"note": 70, "velocity": 78, "duration": 101}, {"note": 73, "velocity": 77, "duration": 106}, {"note": 75, "velocity": 78, "duration": 68}, {"note": 75, "velocity": 78, "duration": 63}, {"note": 75, "velocity": 81, "duration": 66}, {"note": 73, "velocity": 81, "duration": 65}, {"note": 75, "velocity": 78, "duration": 118}, {"note": 75, "velocity": 83, "duration": 210}, {"note": 77, "velocity": 77, "duration": 118}, {"note": 80, "velocity": 83, "duration": 184}, {"note": 77, "velocity": 78, "duration": 64}, {"note": 75, "velocity": 83, "duration": 315}, {"note": 73, "velocity": 81, "duration": 211}, {"note": 70, "velocity": 80, "duration": 1287}, {"note": 0, "velocity": 0, "duration": 393}, {"note": 77, "velocity": 83, "duration": 90}, {"note": 80, "velocity": 78, "duration": 103}, {"note": 82, "velocity": 78, "duration": 188}, {"note": 82, "velocity": 77, "duration": 65}, {"note": 82, "velocity": 78, "duration": 430}, {"note": 80, "velocity": 74, "duration": 109}, {"note": 82, "velocity": 78, "duration": 200}, {"note": 85, "velocity": 79, "duration": 407}, {"note": 0, "velocity": 0, "duration": 73}, {"note": 80, "velocity": 76, "duration": 85}, {"note": 82, "velocity": 77, "duration": 103}, {"note": 80, "velocity": 82, "duration": 66}, {"note": 80, "velocity": 76, "duration": 68}, {"note": 80, "velocity": 79, "duration": 87}, {"note": 77, "velocity": 80, "duration": 92}, {"note": 75, "velocity": 87, "duration": 350}, {"note": 73, "velocity": 76, "duration": 109}, {"note": 77, "velocity": 80, "duration": 535}, {"note": 0, "velocity": 0, "duration": 185}, {"note": 70, "velocity": 82, "duration": 68}, {"note": 73, "velocity": 77, "duration": 79}, {"note": 75, "velocity": 83, "duration": 199}, {"note": 75, "velocity": 78, "duration": 55}, {"note": 0, "velocity": 0, "duration": 65}, {"note": 75, "velocity": 81, "duration": 57}, {"note": 0, "velocity": 0, "duration": 63}, {"note": 75, "velocity": 85, "duration": 367}, {"note": 73, "velocity": 76, "duration": 82}, {"note": 75, "velocity": 87, "duration": 206}, {"note": 77, "velocity": 78, "duration": 238}, {"note": 75, "velocity": 90, "duration": 334}, {"note": 0, "velocity": 0, "duration": 146}, {"note": 75, "velocity": 82, "duration": 60}, {"note": 75, "velocity": 82, "duration": 65}, {"note": 75, "velocity": 82, "duration": 65}, {"note": 75, "velocity": 79, "duration": 78}, {"note": 75, "velocity": 82, "duration": 351}, {"note": 73, "velocity": 72, "duration": 125}, {"note": 77, "velocity": 81, "duration": 659}, {"note": 0, "velocity": 0, "duration": 61}, {"note": 77, "velocity": 83, "duration": 71}, {"note": 80, "velocity": 78, "duration": 69}, {"note": 82, "velocity": 80, "duration": 65}, {"note": 82, "velocity": 76, "duration": 63}, {"note": 82, "velocity": 77, "duration": 63}, {"note": 82, "velocity": 77, "duration": 64}, {"note": 82, "velocity": 78, "duration": 220}, {"note": 80, "velocity": 80, "duration": 195}, {"note": 82, "velocity": 77, "duration": 224}, {"note": 85, "velocity": 80, "duration": 430}, {"note": 80, "velocity": 79, "duration": 65}, {"note": 82, "velocity": 79, "duration": 73}, {"note": 80, "velocity": 80, "duration": 65}, {"note": 80, "velocity": 78, "duration": 52}, {"note": 0, "velocity": 0, "duration": 68}, {"note": 80, "velocity": 77, "duration": 82}, {"note": 77, "velocity": 78, "duration": 71}, {"note": 75, "velocity": 77, "duration": 195}, {"note": 73, "velocity": 79, "duration": 238}, {"note": 77, "velocity": 78, "duration": 680}, {"note": 70, "velocity": 77, "duration": 94}, {"note": 73, "velocity": 78, "duration": 84}, {"note": 75, "velocity": 87, "duration": 60}, {"note": 75, "velocity": 85, "duration": 63}, {"note": 75, "velocity": 80, "duration": 63}, {"note": 75, "velocity": 82, "duration": 59}, {"note": 0, "velocity": 0, "duration": 61}, {"note": 75, "velocity": 83, "duration": 238}, {"note": 75, "velocity": 77, "duration": 118}, {"note": 73, "velocity": 77, "duration": 71}, {"note": 75, "velocity": 85, "duration": 68}, {"note": 77, "velocity": 80, "duration": 79}, {"note": 75, "velocity": 90, "duration": 366}, {"note": 0, "velocity": 0, "duration": 114}, {"note": 75, "velocity": 87, "duration": 66}, {"note": 77, "velocity": 81, "duration": 66}, {"note": 80, "velocity": 80, "duration": 74}, {"note": 80, "velocity": 81, "duration": 71}, {"note": 80, "velocity": 77, "duration": 84}, {"note": 77, "velocity": 80, "duration": 81}, {"note": 75, "velocity": 82, "duration": 168}, {"note": 0, "velocity": 0, "duration": 72}, {"note": 75, "velocity": 81, "duration": 90}, {"note": 73, "velocity": 77, "duration": 108}, {"note": 70, "velocity": 76, "duration": 943}, {"note": 0, "velocity": 0, "duration": 737}, {"note": 77, "velocity": 83, "duration": 90}, {"note": 80, "velocity": 78, "duration": 103}, {"note": 82, "velocity": 78, "duration": 188}, {"note": 82, "velocity": 77, "duration": 65}, {"note": 82, "velocity": 78, "duration": 430}, {"note": 80, "velocity": 74, "duration": 109}, {"note": 82, "velocity": 78, "duration": 200}, {"note": 85, "velocity": 79, "duration": 407}, {"note": 0, "velocity": 0, "duration": 73}, {"note": 80, "velocity": 76, "duration": 85}, {"note": 82, "velocity": 77, "duration": 103}, {"note": 80, "velocity": 82, "duration": 66}, {"note": 80, "velocity": 76, "duration": 68}, {"note": 80, "velocity": 79, "duration": 87}, {"note": 77, "velocity": 80, "duration": 92}, {"note": 75, "velocity": 87, "duration": 350}, {"note": 73, "velocity": 76, "duration": 109}, {"note": 77, "velocity": 80, "duration": 535}, {"note": 0, "velocity": 0, "duration": 185}, {"note": 70, "velocity": 82, "duration": 68}, {"note": 73, "velocity": 77, "duration": 79}, {"note": 75, "velocity": 83, "duration": 199}, {"note": 75, "velocity": 78, "duration": 55}, {"note": 0, "velocity": 0, "duration": 65}, {"note": 75, "velocity": 81, "duration": 57}, {"note": 0, "velocity": 0, "duration": 63}, {"note": 75, "velocity": 85, "duration": 367}, {"note": 73, "velocity": 76, "duration": 82}, {"note": 75, "velocity": 87, "duration": 206}, {"note": 77, "velocity": 78, "duration": 238}, {"note": 75, "velocity": 90, "duration": 334}, {"note": 0, "velocity": 0, "duration": 146}, {"note": 75, "velocity": 82, "duration": 60}, {"note": 75, "velocity": 82, "duration": 65}, {"note": 75, "velocity": 82, "duration": 65}, {"note": 75, "velocity": 79, "duration": 78}, {"note": 75, "velocity": 82, "duration": 351}, {"note": 73, "velocity": 72, "duration": 125}, {"note": 77, "velocity": 81, "duration": 659}, {"note": 0, "velocity": 0, "duration": 61}, {"note": 77, "velocity": 83, "duration": 71}, {"note": 80, "velocity": 78, "duration": 69}, {"note": 82, "velocity": 80, "duration": 65}, {"note": 82, "velocity": 76, "duration": 63}, {"note": 82, "velocity": 77, "duration": 63}, {"note": 82, "velocity": 77, "duration": 64}, {"note": 82, "velocity": 78, "duration": 220}, {"note": 80, "velocity": 80, "duration": 195}, {"note": 82, "velocity": 77, "duration": 224}, {"note": 85, "velocity": 80, "duration": 430}, {"note": 80, "velocity": 79, "duration": 65}, {"note": 82, "velocity": 79, "duration": 73}, {"note": 80, "velocity": 80, "duration": 65}, {"note": 80, "velocity": 78, "duration": 52}, {"note": 0, "velocity": 0, "duration": 68}, {"note": 80, "velocity": 77, "duration": 82}, {"note": 77, "velocity": 78, "duration": 71}, {"note": 75, "velocity": 77, "duration": 195}, {"note": 73, "velocity": 79, "duration": 238}, {"note": 77, "velocity": 78, "duration": 680}, {"note": 70, "velocity": 77, "duration": 94}, {"note": 73, "velocity": 78, "duration": 84}, {"note": 75, "velocity": 87, "duration": 60}, {"note": 75, "velocity": 85, "duration": 63}, {"note": 75, "velocity": 80, "duration": 63}, {"note": 75, "velocity": 82, "duration": 59}, {"note": 0, "velocity": 0, "duration": 61}, {"note": 75, "velocity": 83, "duration": 238}, {"note": 75, "velocity": 77, "duration": 118}, {"note": 73, "velocity": 77, "duration": 71}, {"note": 75, "velocity": 85, "duration": 68}, {"note": 77, "velocity": 80, "duration": 79}, {"note": 75, "velocity": 90, "duration": 366}, {"note": 0, "velocity": 0, "duration": 114}, {"note": 75, "velocity": 87, "duration": 66}, {"note": 77, "velocity": 81, "duration": 66}, {"note": 80, "velocity": 80, "duration": 74}, {"note": 80, "velocity": 81, "duration": 71}, {"note": 80, "velocity": 77, "duration": 84}, {"note": 77, "velocity": 80, "duration": 81}, {"note": 75, "velocity": 82, "duration": 168}, {"note": 0, "velocity": 0, "duration": 72}, {"note": 75, "velocity": 81, "duration": 90}, {"note": 73, "velocity": 77, "duration": 108}, {"note": 70, "velocity": 76, "duration": 718}, {"note": 70, "velocity": 77, "duration": 94}, {"note": 73, "velocity": 78, "duration": 84}, {"note": 75, "velocity": 87, "duration": 60}, {"note": 75, "velocity": 85, "duration": 63}, {"note": 75, "velocity": 80, "duration": 63}, {"note": 75, "velocity": 82, "duration": 59}, {"note": 0, "velocity": 0, "duration": 61}, {"note": 75, "velocity": 83, "duration": 238}, {"note": 75, "velocity": 77, "duration": 118}, {"note": 73, "velocity": 77, "duration": 71}, {"note": 75, "velocity": 85, "duration": 68}, {"note": 77, "velocity": 80, "duration": 79}, {"note": 75, "velocity": 90, "duration": 366}, {"note": 0, "velocity": 0, "duration": 114}, {"note": 75, "velocity": 87, "duration": 66}, {"note": 77, "velocity": 81, "duration": 66}, {"note": 80, "velocity": 79, "duration": 99}, {"note": 0, "velocity": 0, "duration": 78}, {"note": 80, "velocity": 77, "duration": 119}, {"note": 0, "velocity": 0, "duration": 85}, {"note": 80, "velocity": 77, "duration": 350}, {"note": 0, "velocity": 0, "duration": 75}, {"note": 77, "velocity": 75, "duration": 580}, {"note": 0, "velocity": 0, "duration": 92}, {"note": 75, "velocity": 78, "duration": 451}, {"note": 77, "velocity": 78, "duration": 358}, {"note": 73, "velocity": 77, "duration": 274}, {"note": 70, "velocity": 72, "duration": 1075}]]