[[{"note": 67, "velocity": 81, "duration": 480}, {"note": 67, "velocity": 82, "duration": 790}, {"note": 0, "velocity": 0, "duration": 170}, {"note": 55, "velocity": 83, "duration": 387}, {"note": 0, "velocity": 0, "duration": 93}, {"note": 60, "velocity": 85, "duration": 416}, {"note": 0, "velocity": 0, "duration": 64}, {"note": 62, "velocity": 81, "duration": 188}, {"note": 58, "velocity": 83, "duration": 239}, {"note": 55, "velocity": 83, "duration": 805}, {"note": 0, "velocity": 0, "duration": 155}, {"note": 67, "velocity": 83, "duration": 400}, {"note": 0, "velocity": 0, "duration": 80}, {"note": 72, "velocity": 79, "duration": 417}, {"note": 0, "velocity": 0, "duration": 63}, {"note": 70, "velocity": 83, "duration": 280}, {"note": 67, "velocity": 78, "duration": 234}, {"note": 65, "velocity": 81, "duration": 249}, {"note": 67, "velocity": 81, "duration": 243}, {"note": 62, "velocity": 83, "duration": 1653}, {"note": 0, "velocity": 0, "duration": 267}, {"note": 67, "velocity": 83, "duration": 590}, {"note": 0, "velocity": 0, "duration": 130}, {"note": 70, "velocity": 81, "duration": 170}, {"note": 0, "velocity": 0, "duration": 70}, {"note": 70, "velocity": 81, "duration": 366}, {"note": 0, "velocity": 0, "duration": 114}, {"note": 72, "velocity": 83, "duration": 487}, {"note": 0, "velocity": 0, "duration": 233}, {"note": 67, "velocity": 73, "duration": 234}, {"note": 65, "velocity": 81, "duration": 245}, {"note": 67, "velocity": 78, "duration": 194}, {"note": 58, "velocity": 81, "duration": 480}, {"note": 55, "velocity": 82, "duration": 480}, {"note": 58, "velocity": 82, "duration": 583}, {"note": 0, "velocity": 0, "duration": 137}, {"note": 55, "velocity": 85, "duration": 374}, {"note": 0, "velocity": 0, "duration": 106}, {"note": 67, "velocity": 82, "duration": 133}, {"note": 0, "velocity": 0, "duration": 107}, {"note": 65, "velocity": 79, "duration": 240}, {"note": 67, "velocity": 82, "duration": 240}, {"note": 62, "velocity": 82, "duration": 1638}, {"note": 0, "velocity": 0, "duration": 282}, {"note": 67, "velocity": 82, "duration": 593}, {"note": 0, "velocity": 0, "duration": 367}, {"note": 67, "velocity": 80, "duration": 579}, {"note": 0, "velocity": 0, "duration": 141}, {"note": 55, "velocity": 82, "duration": 175}, {"note": 0, "velocity": 0, "duration": 65}, {"note": 60, "velocity": 79, "duration": 367}, {"note": 0, "velocity": 0, "duration": 113}, {"note": 62, "velocity": 80, "duration": 176}, {"note": 0, "velocity": 0, "duration": 64}, {"note": 58, "velocity": 82, "duration": 221}, {"note": 55, "velocity": 83, "duration": 825}, {"note": 0, "velocity": 0, "duration": 135}, {"note": 67, "velocity": 85, "duration": 360}, {"note": 0, "velocity": 0, "duration": 120}, {"note": 70, "velocity": 82, "duration": 157}, {"note": 0, "velocity": 0, "duration": 83}, {"note": 72, "velocity": 82, "duration": 148}, {"note": 0, "velocity": 0, "duration": 92}, {"note": 70, "velocity": 85, "duration": 202}, {"note": 67, "velocity": 79, "duration": 207}, {"note": 65, "velocity": 82, "duration": 271}, {"note": 67, "velocity": 80, "duration": 248}, {"note": 65, "velocity": 82, "duration": 203}, {"note": 62, "velocity": 77, "duration": 1563}, {"note": 0, "velocity": 0, "duration": 117}, {"note": 67, "velocity": 85, "duration": 579}, {"note": 0, "velocity": 0, "duration": 141}, {"note": 70, "velocity": 82, "duration": 191}, {"note": 70, "velocity": 81, "duration": 385}, {"note": 0, "velocity": 0, "duration": 95}, {"note": 72, "velocity": 83, "duration": 538}, {"note": 70, "velocity": 70, "duration": 225}, {"note": 67, "velocity": 81, "duration": 213}, {"note": 65, "velocity": 81, "duration": 254}, {"note": 67, "velocity": 78, "duration": 240}, {"note": 58, "velocity": 82, "duration": 480}, {"note": 60, "velocity": 77, "duration": 441}, {"note": 62, "velocity": 84, "duration": 474}, {"note": 65, "velocity": 82, "duration": 270}, {"note": 67, "velocity": 78, "duration": 282}, {"note": 65, "velocity": 82, "duration": 266}, {"note": 62, "velocity": 81, "duration": 318}, {"note": 60, "velocity": 83, "duration": 277}, {"note": 62, "velocity": 80, "duration": 275}, {"note": 58, "velocity": 78, "duration": 222}, {"note": 55, "velocity": 77, "duration": 1476}, {"note": 0, "velocity": 0, "duration": 204}, {"note": 72, "velocity": 83, "duration": 157}, {"note": 0, "velocity": 0, "duration": 83}, {"note": 72, "velocity": 82, "duration": 418}, {"note": 0, "velocity": 0, "duration": 62}, {"note": 70, "velocity": 83, "duration": 482}, {"note": 67, "velocity": 82, "duration": 207}, {"note": 70, "velocity": 81, "duration": 252}, {"note": 74, "velocity": 88, "duration": 719}, {"note": 72, "velocity": 83, "duration": 1224}, {"note": 0, "velocity": 0, "duration": 216}, {"note": 74, "velocity": 74, "duration": 309}, {"note": 0, "velocity": 0, "duration": 171}, {"note": 67, "velocity": 81, "duration": 435}, {"note": 65, "velocity": 82, "duration": 257}, {"note": 67, "velocity": 78, "duration": 741}, {"note": 65, "velocity": 81, "duration": 233}, {"note": 62, "velocity": 77, "duration": 1450}, {"note": 0, "velocity": 0, "duration": 230}, {"note": 67, "velocity": 81, "duration": 587}, {"note": 0, "velocity": 0, "duration": 133}, {"note": 67, "velocity": 77, "duration": 601}, {"note": 0, "velocity": 0, "duration": 119}, {"note": 55, "velocity": 83, "duration": 439}, {"note": 60, "velocity": 82, "duration": 394}, {"note": 0, "velocity": 0, "duration": 86}, {"note": 58, "velocity": 77, "duration": 187}, {"note": 60, "velocity": 80, "duration": 161}, {"note": 0, "velocity": 0, "duration": 79}, {"note": 62, "velocity": 78, "duration": 787}, {"note": 0, "velocity": 0, "duration": 173}, {"note": 74, "velocity": 85, "duration": 559}, {"note": 0, "velocity": 0, "duration": 161}, {"note": 74, "velocity": 92, "duration": 553}, {"note": 0, "velocity": 0, "duration": 167}, {"note": 65, "velocity": 83, "duration": 247}, {"note": 62, "velocity": 82, "duration": 280}, {"note": 67, "velocity": 76, "duration": 1897}, {"note": 0, "velocity": 0, "duration": 15383}, {"note": 67, "velocity": 81, "duration": 480}, {"note": 67, "velocity": 82, "duration": 790}, {"note": 0, "velocity": 0, "duration": 170}, {"note": 55, "velocity": 83, "duration": 387}, {"note": 0, "velocity": 0, "duration": 93}, {"note": 60, "velocity": 85, "duration": 416}, {"note": 0, "velocity": 0, "duration": 64}, {"note": 62, "velocity": 81, "duration": 188}, {"note": 58, "velocity": 83, "duration": 239}, {"note": 55, "velocity": 83, "duration": 805}, {"note": 0, "velocity": 0, "duration": 155}, {"note": 67, "velocity": 83, "duration": 400}, {"note": 0, "velocity": 0, "duration": 80}, {"note": 72, "velocity": 79, "duration": 417}, {"note": 0, "velocity": 0, "duration": 63}, {"note": 70, "velocity": 83, "duration": 280}, {"note": 67, "velocity": 78, "duration": 234}, {"note": 65, "velocity": 81, "duration": 249}, {"note": 67, "velocity": 81, "duration": 243}, {"note": 62, "velocity": 83, "duration": 1653}, {"note": 0, "velocity": 0, "duration": 267}, {"note": 67, "velocity": 83, "duration": 590}, {"note": 0, "velocity": 0, "duration": 130}, {"note": 70, "velocity": 81, "duration": 170}, {"note": 0, "velocity": 0, "duration": 70}, {"note": 70, "velocity": 81, "duration": 366}, {"note": 0, "velocity": 0, "duration": 114}, {"note": 72, "velocity": 83, "duration": 487}, {"note": 0, "velocity": 0, "duration": 233}, {"note": 67, "velocity": 73, "duration": 234}, {"note": 65, "velocity": 81, "duration": 245}, {"note": 67, "velocity": 78, "duration": 194}, {"note": 58, "velocity": 81, "duration": 480}, {"note": 55, "velocity": 82, "duration": 480}, {"note": 58, "velocity": 82, "duration": 583}, {"note": 0, "velocity": 0, "duration": 137}, {"note": 55, "velocity": 85, "duration": 374}, {"note": 0, "velocity": 0, "duration": 106}, {"note": 67, "velocity": 82, "duration": 133}, {"note": 0, "velocity": 0, "duration": 107}, {"note": 65, "velocity": 79, "duration": 240}, {"note": 67, "velocity": 82, "duration": 240}, {"note": 62, "velocity": 82, "duration": 1638}, {"note": 0, "velocity": 0, "duration": 282}, {"note": 67, "velocity": 82, "duration": 593}, {"note": 0, "velocity": 0, "duration": 367}, {"note": 67, "velocity": 80, "duration": 579}, {"note": 0, "velocity": 0, "duration": 141}, {"note": 55, "velocity": 82, "duration": 175}, {"note": 0, "velocity": 0, "duration": 65}, {"note": 60, "velocity": 79, "duration": 367}, {"note": 0, "velocity": 0, "duration": 113}, {"note": 62, "velocity": 80, "duration": 176}, {"note": 0, "velocity": 0, "duration": 64}, {"note": 58, "velocity": 82, "duration": 221}, {"note": 55, "velocity": 83, "duration": 825}, {"note": 0, "velocity": 0, "duration": 135}, {"note": 67, "velocity": 85, "duration": 360}, {"note": 0, "velocity": 0, "duration": 120}, {"note": 70, "velocity": 82, "duration": 157}, {"note": 0, "velocity": 0, "duration": 83}, {"note": 72, "velocity": 82, "duration": 148}, {"note": 0, "velocity": 0, "duration": 92}, {"note": 70, "velocity": 85, "duration": 202}, {"note": 67, "velocity": 79, "duration": 207}, {"note": 65, "velocity": 82, "duration": 271}, {"note": 67, "velocity": 80, "duration": 248}, {"note": 65, "velocity": 82, "duration": 203}, {"note": 62, "velocity": 77, "duration": 1563}, {"note": 0, "velocity": 0, "duration": 117}, {"note": 67, "velocity": 85, "duration": 579}, {"note": 0, "velocity": 0, "duration": 141}, {"note": 70, "velocity": 82, "duration": 191}, {"note": 70, "velocity": 81, "duration": 385}, {"note": 0, "velocity": 0, "duration": 95}, {"note": 72, "velocity": 83, "duration": 538}, {"note": 70, "velocity": 70, "duration": 225}, {"note": 67, "velocity": 81, "duration": 213}, {"note": 65, "velocity": 81, "duration": 254}, {"note": 67, "velocity": 78, "duration": 240}, {"note": 58, "velocity": 82, "duration": 480}, {"note": 60, "velocity": 77, "duration": 441}, {"note": 62, "velocity": 84, "duration": 474}, {"note": 65, "velocity": 82, "duration": 270}, {"note": 67, "velocity": 78, "duration": 282}, {"note": 65, "velocity": 82, "duration": 266}, {"note": 62, "velocity": 81, "duration": 318}, {"note": 60, "velocity": 83, "duration": 277}, {"note": 62, "velocity": 80, "duration": 275}, {"note": 58, "velocity": 78, "duration": 222}, {"note": 55, "velocity": 77, "duration": 1476}, {"note": 0, "velocity": 0, "duration": 204}, {"note": 72, "velocity": 83, "duration": 157}, {"note": 0, "velocity": 0, "duration": 83}, {"note": 72, "velocity": 82, "duration": 418}, {"note": 0, "velocity": 0, "duration": 62}, {"note": 70, "velocity": 83, "duration": 482}, {"note": 67, "velocity": 82, "duration": 207}, {"note": 70, "velocity": 81, "duration": 252}, {"note": 74, "velocity": 88, "duration": 719}, {"note": 72, "velocity": 83, "duration": 1224}, {"note": 0, "velocity": 0, "duration": 216}, {"note": 74, "velocity": 74, "duration": 309}, {"note": 0, "velocity": 0, "duration": 171}, {"note": 67, "velocity": 81, "duration": 435}, {"note": 65, "velocity": 82, "duration": 257}, {"note": 67, "velocity": 78, "duration": 741}, {"note": 65, "velocity": 81, "duration": 233}, {"note": 62, "velocity": 77, "duration": 1450}, {"note": 0, "velocity": 0, "duration": 230}, {"note": 67, "velocity": 81, "duration": 587}, {"note": 0, "velocity": 0, "duration": 133}, {"note": 67, "velocity": 77, "duration": 601}, {"note": 0, "velocity": 0, "duration": 119}, {"note": 55, "velocity": 83, "duration": 439}, {"note": 60, "velocity": 82, "duration": 394}, {"note": 0, "velocity": 0, "duration": 86}, {"note": 58, "velocity": 77, "duration": 187}, {"note": 60, "velocity": 80, "duration": 161}, {"note": 0, "velocity": 0, "duration": 79}, {"note": 62, "velocity": 78, "duration": 787}, {"note": 0, "velocity": 0, "duration": 173}, {"note": 74, "velocity": 85, "duration": 559}, {"note": 0, "velocity": 0, "duration": 161}, {"note": 74, "velocity": 92, "duration": 553}, {"note": 0, "velocity": 0, "duration": 167}, {"note": 65, "velocity": 83, "duration": 247}, {"note": 62, "velocity": 82, "duration": 280}, {"note": 67, "velocity": 76, "duration": 1897}, {"note": 72, "velocity": 83, "duration": 157}, {"note": 0, "velocity": 0, "duration": 83}, {"note": 72, "velocity": 82, "duration": 418}, {"note": 0, "velocity": 0, "duration": 62}, {"note": 70, "velocity": 83, "duration": 482}, {"note": 67, "velocity": 82, "duration": 207}, {"note": 70, "velocity": 81, "duration": 252}, {"note": 74, "velocity": 88, "duration": 719}, {"note": 72, "velocity": 83, "duration": 1224}, {"note": 0, "velocity": 0, "duration": 216}, {"note": 74, "velocity": 74, "duration": 309}, {"note": 0, "velocity": 0, "duration": 171}, {"note": 67, "velocity": 81, "duration": 435}, {"note": 65, "velocity": 82, "duration": 257}, {"note": 67, "velocity": 78, "duration": 741}, {"note": 65, "velocity": 81, "duration": 233}, {"note": 62, "velocity": 77, "duration": 1450}, {"note": 0, "velocity": 0, "duration": 230}, {"note": 67, "velocity": 81, "duration": 587}, {"note": 0, "velocity": 0, "duration": 133}, {"note": 67, "velocity": 77, "duration": 601}, {"note": 0, "velocity": 0, "duration": 119}, {"note": 55, "velocity": 83, "duration": 439}, {"note": 60, "velocity": 82, "duration": 394}, {"note": 0, "velocity": 0, "duration": 86}, {"note": 58, "velocity": 77, "duration": 187}, {"note": 60, "velocity": 80, "duration": 161}, {"note": 0, "velocity": 0, "duration": 79}, {"note": 62, "velocity": 78, "duration": 787}, {"note": 0, "velocity": 0, "duration": 173}, {"note": 74, "velocity": 85, "duration": 559}, {"note": 0, "velocity": 0, "duration": 161}, {"note": 74, "velocity": 92, "duration": 553}, {"note": 0, "velocity": 0, "duration": 167}, {"note": 65, "velocity": 83, "duration": 247}, {"note": 62, "velocity": 82, "duration": 280}, {"note": 67, "velocity": 76, "duration": 1897}, {"note": 74, "velocity": 88, "duration": 480}, {"note": 74, "velocity": 88, "duration": 960}, {"note": 65, "velocity": 75, "duration": 480}, {"note": 62, "velocity": 82, "duration": 1881}, {"note": 67, "velocity": 79, "duration": 2332}]]