[[{"note": 70, "velocity": 83, "duration": 404}, {"note": 0, "velocity": 0, "duration": 76}, {"note": 72, "velocity": 79, "duration": 128}, {"note": 75, "velocity": 83, "duration": 348}, {"note": 70, "velocity": 79, "duration": 409}, {"note": 0, "velocity": 0, "duration": 71}, {"note": 72, "velocity": 80, "duration": 82}, {"note": 75, "velocity": 82, "duration": 317}, {"note": 75, "velocity": 85, "duration": 388}, {"note": 0, "velocity": 0, "duration": 92}, {"note": 77, "velocity": 79, "duration": 224}, {"note": 75, "velocity": 82, "duration": 230}, {"note": 79, "velocity": 89, "duration": 770}, {"note": 0, "velocity": 0, "duration": 190}, {"note": 72, "velocity": 80, "duration": 439}, {"note": 75, "velocity": 84, "duration": 121}, {"note": 77, "velocity": 79, "duration": 362}, {"note": 70, "velocity": 76, "duration": 398}, {"note": 0, "velocity": 0, "duration": 82}, {"note": 80, "velocity": 80, "duration": 168}, {"note": 0, "velocity": 0, "duration": 72}, {"note": 79, "velocity": 79, "duration": 187}, {"note": 77, "velocity": 80, "duration": 222}, {"note": 72, "velocity": 80, "duration": 209}, {"note": 75, "velocity": 89, "duration": 248}, {"note": 77, "velocity": 79, "duration": 181}, {"note": 77, "velocity": 80, "duration": 798}, {"note": 0, "velocity": 0, "duration": 162}, {"note": 70, "velocity": 83, "duration": 404}, {"note": 0, "velocity": 0, "duration": 76}, {"note": 72, "velocity": 79, "duration": 128}, {"note": 75, "velocity": 83, "duration": 348}, {"note": 70, "velocity": 79, "duration": 409}, {"note": 0, "velocity": 0, "duration": 71}, {"note": 72, "velocity": 80, "duration": 82}, {"note": 75, "velocity": 82, "duration": 317}, {"note": 75, "velocity": 85, "duration": 360}, {"note": 75, "velocity": 79, "duration": 120}, {"note": 77, "velocity": 79, "duration": 224}, {"note": 75, "velocity": 82, "duration": 230}, {"note": 79, "velocity": 89, "duration": 770}, {"note": 0, "velocity": 0, "duration": 190}, {"note": 72, "velocity": 80, "duration": 439}, {"note": 75, "velocity": 84, "duration": 121}, {"note": 77, "velocity": 79, "duration": 362}, {"note": 70, "velocity": 76, "duration": 398}, {"note": 0, "velocity": 0, "duration": 82}, {"note": 80, "velocity": 80, "duration": 168}, {"note": 0, "velocity": 0, "duration": 72}, {"note": 79, "velocity": 79, "duration": 187}, {"note": 77, "velocity": 80, "duration": 222}, {"note": 72, "velocity": 80, "duration": 209}, {"note": 74, "velocity": 89, "duration": 248}, {"note": 75, "velocity": 79, "duration": 181}, {"note": 75, "velocity": 80, "duration": 798}, {"note": 0, "velocity": 0, "duration": 402}, {"note": 79, "velocity": 82, "duration": 229}, {"note": 82, "velocity": 78, "duration": 217}, {"note": 79, "velocity": 80, "duration": 210}, {"note": 82, "velocity": 79, "duration": 634}, {"note": 0, "velocity": 0, "duration": 86}, {"note": 79, "velocity": 79, "duration": 184}, {"note": 82, "velocity": 77, "duration": 428}, {"note": 84, "velocity": 70, "duration": 191}, {"note": 82, "velocity": 78, "duration": 187}, {"note": 75, "velocity": 83, "duration": 480}, {"note": 77, "velocity": 82, "duration": 201}, {"note": 79, "velocity": 80, "duration": 193}, {"note": 79, "velocity": 79, "duration": 817}, {"note": 0, "velocity": 0, "duration": 383}, {"note": 77, "velocity": 82, "duration": 164}, {"note": 0, "velocity": 0, "duration": 76}, {"note": 77, "velocity": 84, "duration": 172}, {"note": 0, "velocity": 0, "duration": 68}, {"note": 79, "velocity": 82, "duration": 206}, {"note": 82, "velocity": 79, "duration": 158}, {"note": 0, "velocity": 0, "duration": 82}, {"note": 82, "velocity": 81, "duration": 181}, {"note": 79, "velocity": 84, "duration": 188}, {"note": 80, "velocity": 80, "duration": 240}, {"note": 77, "velocity": 84, "duration": 866}, {"note": 0, "velocity": 0, "duration": 334}, {"note": 79, "velocity": 82, "duration": 229}, {"note": 82, "velocity": 78, "duration": 217}, {"note": 79, "velocity": 80, "duration": 210}, {"note": 82, "velocity": 79, "duration": 634}, {"note": 0, "velocity": 0, "duration": 86}, {"note": 79, "velocity": 79, "duration": 184}, {"note": 82, "velocity": 77, "duration": 428}, {"note": 84, "velocity": 70, "duration": 191}, {"note": 82, "velocity": 78, "duration": 187}, {"note": 75, "velocity": 83, "duration": 480}, {"note": 77, "velocity": 82, "duration": 201}, {"note": 79, "velocity": 80, "duration": 193}, {"note": 79, "velocity": 79, "duration": 817}, {"note": 0, "velocity": 0, "duration": 143}, {"note": 75, "velocity": 85, "duration": 409}, {"note": 0, "velocity": 0, "duration": 71}, {"note": 77, "velocity": 82, "duration": 198}, {"note": 79, "velocity": 80, "duration": 245}, {"note": 75, "velocity": 85, "duration": 428}, {"note": 0, "velocity": 0, "duration": 532}, {"note": 75, "velocity": 89, "duration": 445}, {"note": 77, "velocity": 79, "duration": 239}, {"note": 79, "velocity": 70, "duration": 183}, {"note": 79, "velocity": 82, "duration": 553}, {"note": 0, "velocity": 0, "duration": 407}, {"note": 75, "velocity": 87, "duration": 408}, {"note": 0, "velocity": 0, "duration": 72}, {"note": 77, "velocity": 81, "duration": 89}, {"note": 79, "velocity": 84, "duration": 315}, {"note": 70, "velocity": 84, "duration": 255}, {"note": 0, "velocity": 0, "duration": 105}, {"note": 70, "velocity": 82, "duration": 73}, {"note": 80, "velocity": 80, "duration": 175}, {"note": 0, "velocity": 0, "duration": 65}, {"note": 79, "velocity": 79, "duration": 187}, {"note": 77, "velocity": 81, "duration": 188}, {"note": 72, "velocity": 82, "duration": 206}, {"note": 74, "velocity": 78, "duration": 109}, {"note": 75, "velocity": 82, "duration": 265}, {"note": 0, "velocity": 0, "duration": 95}, {"note": 75, "velocity": 80, "duration": 1748}, {"note": 0, "velocity": 0, "duration": 2092}, {"note": 70, "velocity": 83, "duration": 404}, {"note": 0, "velocity": 0, "duration": 76}, {"note": 72, "velocity": 79, "duration": 128}, {"note": 75, "velocity": 83, "duration": 348}, {"note": 70, "velocity": 79, "duration": 409}, {"note": 0, "velocity": 0, "duration": 71}, {"note": 72, "velocity": 80, "duration": 82}, {"note": 75, "velocity": 82, "duration": 317}, {"note": 75, "velocity": 85, "duration": 388}, {"note": 0, "velocity": 0, "duration": 92}, {"note": 77, "velocity": 79, "duration": 224}, {"note": 75, "velocity": 82, "duration": 230}, {"note": 79, "velocity": 89, "duration": 770}, {"note": 0, "velocity": 0, "duration": 190}, {"note": 72, "velocity": 80, "duration": 439}, {"note": 75, "velocity": 84, "duration": 121}, {"note": 77, "velocity": 79, "duration": 362}, {"note": 70, "velocity": 76, "duration": 398}, {"note": 0, "velocity": 0, "duration": 82}, {"note": 80, "velocity": 80, "duration": 168}, {"note": 0, "velocity": 0, "duration": 72}, {"note": 79, "velocity": 79, "duration": 187}, {"note": 77, "velocity": 80, "duration": 222}, {"note": 72, "velocity": 80, "duration": 209}, {"note": 75, "velocity": 89, "duration": 248}, {"note": 77, "velocity": 79, "duration": 181}, {"note": 77, "velocity": 80, "duration": 798}, {"note": 0, "velocity": 0, "duration": 162}, {"note": 70, "velocity": 83, "duration": 404}, {"note": 0, "velocity": 0, "duration": 76}, {"note": 72, "velocity": 79, "duration": 128}, {"note": 75, "velocity": 83, "duration": 348}, {"note": 70, "velocity": 79, "duration": 409}, {"note": 0, "velocity": 0, "duration": 71}, {"note": 72, "velocity": 80, "duration": 82}, {"note": 75, "velocity": 82, "duration": 317}, {"note": 75, "velocity": 85, "duration": 360}, {"note": 75, "velocity": 79, "duration": 120}, {"note": 77, "velocity": 79, "duration": 224}, {"note": 75, "velocity": 82, "duration": 230}, {"note": 79, "velocity": 89, "duration": 770}, {"note": 0, "velocity": 0, "duration": 190}, {"note": 72, "velocity": 80, "duration": 439}, {"note": 75, "velocity": 84, "duration": 121}, {"note": 77, "velocity": 79, "duration": 362}, {"note": 70, "velocity": 76, "duration": 398}, {"note": 0, "velocity": 0, "duration": 82}, {"note": 80, "velocity": 80, "duration": 168}, {"note": 0, "velocity": 0, "duration": 72}, {"note": 79, "velocity": 79, "duration": 187}, {"note": 77, "velocity": 80, "duration": 222}, {"note": 72, "velocity": 80, "duration": 209}, {"note": 74, "velocity": 89, "duration": 248}, {"note": 75, "velocity": 79, "duration": 181}, {"note": 75, "velocity": 80, "duration": 798}, {"note": 0, "velocity": 0, "duration": 402}, {"note": 79, "velocity": 82, "duration": 229}, {"note": 82, "velocity": 78, "duration": 217}, {"note": 79, "velocity": 80, "duration": 210}, {"note": 82, "velocity": 79, "duration": 634}, {"note": 0, "velocity": 0, "duration": 86}, {"note": 79, "velocity": 79, "duration": 184}, {"note": 82, "velocity": 77, "duration": 428}, {"note": 84, "velocity": 70, "duration": 191}, {"note": 82, "velocity": 78, "duration": 187}, {"note": 75, "velocity": 83, "duration": 480}, {"note": 77, "velocity": 82, "duration": 201}, {"note": 79, "velocity": 80, "duration": 193}, {"note": 79, "velocity": 79, "duration": 817}, {"note": 0, "velocity": 0, "duration": 383}, {"note": 77, "velocity": 82, "duration": 164}, {"note": 0, "velocity": 0, "duration": 76}, {"note": 77, "velocity": 84, "duration": 172}, {"note": 0, "velocity": 0, "duration": 68}, {"note": 79, "velocity": 82, "duration": 206}, {"note": 82, "velocity": 79, "duration": 158}, {"note": 0, "velocity": 0, "duration": 82}, {"note": 82, "velocity": 81, "duration": 181}, {"note": 79, "velocity": 84, "duration": 188}, {"note": 80, "velocity": 80, "duration": 240}, {"note": 77, "velocity": 84, "duration": 866}, {"note": 0, "velocity": 0, "duration": 334}, {"note": 79, "velocity": 82, "duration": 229}, {"note": 82, "velocity": 78, "duration": 217}, {"note": 79, "velocity": 80, "duration": 210}, {"note": 82, "velocity": 79, "duration": 634}, {"note": 0, "velocity": 0, "duration": 86}, {"note": 79, "velocity": 79, "duration": 184}, {"note": 82, "velocity": 77, "duration": 428}, {"note": 84, "velocity": 70, "duration": 191}, {"note": 82, "velocity": 78, "duration": 187}, {"note": 75, "velocity": 83, "duration": 480}, {"note": 77, "velocity": 82, "duration": 201}, {"note": 79, "velocity": 80, "duration": 193}, {"note": 79, "velocity": 79, "duration": 817}, {"note": 0, "velocity": 0, "duration": 143}, {"note": 75, "velocity": 85, "duration": 409}, {"note": 0, "velocity": 0, "duration": 71}, {"note": 77, "velocity": 82, "duration": 198}, {"note": 79, "velocity": 80, "duration": 245}, {"note": 75, "velocity": 85, "duration": 428}, {"note": 0, "velocity": 0, "duration": 532}, {"note": 75, "velocity": 89, "duration": 445}, {"note": 77, "velocity": 79, "duration": 239}, {"note": 79, "velocity": 70, "duration": 183}, {"note": 79, "velocity": 82, "duration": 553}, {"note": 0, "velocity": 0, "duration": 407}, {"note": 75, "velocity": 87, "duration": 408}, {"note": 0, "velocity": 0, "duration": 72}, {"note": 77, "velocity": 81, "duration": 89}, {"note": 79, "velocity": 84, "duration": 315}, {"note": 70, "velocity": 84, "duration": 255}, {"note": 0, "velocity": 0, "duration": 105}, {"note": 70, "velocity": 82, "duration": 73}, {"note": 80, "velocity": 80, "duration": 175}, {"note": 0, "velocity": 0, "duration": 65}, {"note": 79, "velocity": 79, "duration": 187}, {"note": 77, "velocity": 81, "duration": 188}, {"note": 72, "velocity": 82, "duration": 206}, {"note": 74, "velocity": 78, "duration": 109}, {"note": 75, "velocity": 82, "duration": 265}, {"note": 0, "velocity": 0, "duration": 95}, {"note": 75, "velocity": 80, "duration": 1748}, {"note": 0, "velocity": 0, "duration": 18652}, {"note": 79, "velocity": 82, "duration": 229}, {"note": 82, "velocity": 78, "duration": 217}, {"note": 79, "velocity": 80, "duration": 210}, {"note": 82, "velocity": 79, "duration": 634}, {"note": 0, "velocity": 0, "duration": 86}, {"note": 79, "velocity": 79, "duration": 184}, {"note": 82, "velocity": 77, "duration": 428}, {"note": 84, "velocity": 70, "duration": 191}, {"note": 82, "velocity": 78, "duration": 187}, {"note": 75, "velocity": 83, "duration": 480}, {"note": 77, "velocity": 82, "duration": 201}, {"note": 79, "velocity": 80, "duration": 193}, {"note": 79, "velocity": 79, "duration": 817}, {"note": 0, "velocity": 0, "duration": 383}, {"note": 77, "velocity": 82, "duration": 164}, {"note": 0, "velocity": 0, "duration": 76}, {"note": 77, "velocity": 84, "duration": 172}, {"note": 0, "velocity": 0, "duration": 68}, {"note": 79, "velocity": 82, "duration": 206}, {"note": 82, "velocity": 79, "duration": 158}, {"note": 0, "velocity": 0, "duration": 82}, {"note": 82, "velocity": 81, "duration": 181}, {"note": 79, "velocity": 84, "duration": 188}, {"note": 80, "velocity": 80, "duration": 240}, {"note": 77, "velocity": 84, "duration": 866}, {"note": 0, "velocity": 0, "duration": 334}, {"note": 79, "velocity": 82, "duration": 229}, {"note": 82, "velocity": 78, "duration": 217}, {"note": 79, "velocity": 80, "duration": 210}, {"note": 82, "velocity": 79, "duration": 634}, {"note": 0, "velocity": 0, "duration": 86}, {"note": 79, "velocity": 79, "duration": 184}, {"note": 82, "velocity": 77, "duration": 428}, {"note": 84, "velocity": 70, "duration": 191}, {"note": 82, "velocity": 78, "duration": 187}, {"note": 75, "velocity": 83, "duration": 480}, {"note": 77, "velocity": 82, "duration": 201}, {"note": 79, "velocity": 80, "duration": 193}, {"note": 79, "velocity": 79, "duration": 817}, {"note": 0, "velocity": 0, "duration": 143}, {"note": 75, "velocity": 85, "duration": 409}, {"note": 0, "velocity": 0, "duration": 71}, {"note": 77, "velocity": 82, "duration": 198}, {"note": 79, "velocity": 80, "duration": 245}, {"note": 75, "velocity": 85, "duration": 428}, {"note": 0, "velocity": 0, "duration": 532}, {"note": 75, "velocity": 89, "duration": 445}, {"note": 77, "velocity": 79, "duration": 239}, {"note": 79, "velocity": 70, "duration": 183}, {"note": 79, "velocity": 82, "duration": 553}, {"note": 0, "velocity": 0, "duration": 407}, {"note": 75, "velocity": 87, "duration": 408}, {"note": 0, "velocity": 0, "duration": 72}, {"note": 77, "velocity": 81, "duration": 89}, {"note": 79, "velocity": 84, "duration": 315}, {"note": 70, "velocity": 84, "duration": 255}, {"note": 0, "velocity": 0, "duration": 105}, {"note": 70, "velocity": 82, "duration": 73}, {"note": 80, "velocity": 80, "duration": 175}, {"note": 0, "velocity": 0, "duration": 65}, {"note": 79, "velocity": 79, "duration": 187}, {"note": 77, "velocity": 81, "duration": 188}, {"note": 72, "velocity": 82, "duration": 206}, {"note": 74, "velocity": 78, "duration": 109}, {"note": 75, "velocity": 82, "duration": 265}, {"note": 0, "velocity": 0, "duration": 95}, {"note": 75, "velocity": 80, "duration": 840}, {"note": 0, "velocity": 0, "duration": 120}, {"note": 75, "velocity": 82, "duration": 240}, {"note": 75, "velocity": 79, "duration": 83}, {"note": 77, "velocity": 79, "duration": 189}, {"note": 79, "velocity": 73, "duration": 253}, {"note": 75, "velocity": 78, "duration": 718}, {"note": 0, "velocity": 0, "duration": 161}, {"note": 75, "velocity": 79, "duration": 266}, {"note": 0, "velocity": 0, "duration": 72}, {"note": 75, "velocity": 79, "duration": 79}, {"note": 77, "velocity": 76, "duration": 202}, {"note": 79, "velocity": 75, "duration": 170}, {"note": 0, "velocity": 0, "duration": 67}, {"note": 79, "velocity": 78, "duration": 885}, {"note": 0, "velocity": 0, "duration": 167}, {"note": 75, "velocity": 84, "duration": 350}, {"note": 0, "velocity": 0, "duration": 76}, {"note": 77, "velocity": 76, "duration": 94}, {"note": 79, "velocity": 71, "duration": 323}, {"note": 70, "velocity": 78, "duration": 279}, {"note": 0, "velocity": 0, "duration": 63}, {"note": 70, "velocity": 76, "duration": 138}, {"note": 80, "velocity": 74, "duration": 230}, {"note": 79, "velocity": 78, "duration": 192}, {"note": 77, "velocity": 80, "duration": 217}, {"note": 72, "velocity": 79, "duration": 219}, {"note": 74, "velocity": 67, "duration": 233}, {"note": 75, "velocity": 78, "duration": 211}, {"note": 0, "velocity": 0, "duration": 75}, {"note": 75, "velocity": 80, "duration": 1885}]]