[[{"note": 56, "velocity": 82, "duration": 239}, {"note": 61, "velocity": 79, "duration": 238}, {"note": 65, "velocity": 85, "duration": 642}, {"note": 0, "velocity": 0, "duration": 78}, {"note": 68, "velocity": 79, "duration": 199}, {"note": 65, "velocity": 81, "duration": 372}, {"note": 0, "velocity": 0, "duration": 108}, {"note": 63, "velocity": 78, "duration": 204}, {"note": 61, "velocity": 81, "duration": 177}, {"note": 0, "velocity": 0, "duration": 63}, {"note": 61, "velocity": 79, "duration": 184}, {"note": 61, "velocity": 82, "duration": 221}, {"note": 61, "velocity": 78, "duration": 196}, {"note": 58, "velocity": 78, "duration": 180}, {"note": 56, "velocity": 73, "duration": 404}, {"note": 0, "velocity": 0, "duration": 76}, {"note": 56, "velocity": 79, "duration": 165}, {"note": 0, "velocity": 0, "duration": 75}, {"note": 61, "velocity": 80, "duration": 159}, {"note": 0, "velocity": 0, "duration": 81}, {"note": 65, "velocity": 81, "duration": 671}, {"note": 68, "velocity": 78, "duration": 184}, {"note": 68, "velocity": 78, "duration": 181}, {"note": 68, "velocity": 78, "duration": 171}, {"note": 0, "velocity": 0, "duration": 69}, {"note": 70, "velocity": 79, "duration": 186}, {"note": 68, "velocity": 79, "duration": 177}, {"note": 0, "velocity": 0, "duration": 63}, {"note": 68, "velocity": 79, "duration": 197}, {"note": 65, "velocity": 80, "duration": 238}, {"note": 63, "velocity": 77, "duration": 246}, {"note": 61, "velocity": 79, "duration": 247}, {"note": 63, "velocity": 75, "duration": 391}, {"note": 0, "velocity": 0, "duration": 89}, {"note": 70, "velocity": 79, "duration": 183}, {"note": 68, "velocity": 80, "duration": 228}, {"note": 65, "velocity": 82, "duration": 671}, {"note": 68, "velocity": 76, "duration": 174}, {"note": 0, "velocity": 0, "duration": 66}, {"note": 68, "velocity": 78, "duration": 161}, {"note": 0, "velocity": 0, "duration": 79}, {"note": 68, "velocity": 79, "duration": 222}, {"note": 70, "velocity": 79, "duration": 158}, {"note": 0, "velocity": 0, "duration": 82}, {"note": 68, "velocity": 76, "duration": 208}, {"note": 65, "velocity": 79, "duration": 261}, {"note": 63, "velocity": 76, "duration": 243}, {"note": 61, "velocity": 77, "duration": 177}, {"note": 0, "velocity": 0, "duration": 63}, {"note": 63, "velocity": 79, "duration": 270}, {"note": 58, "velocity": 78, "duration": 405}, {"note": 0, "velocity": 0, "duration": 75}, {"note": 56, "velocity": 80, "duration": 166}, {"note": 0, "velocity": 0, "duration": 74}, {"note": 58, "velocity": 79, "duration": 192}, {"note": 61, "velocity": 78, "duration": 692}, {"note": 65, "velocity": 80, "duration": 187}, {"note": 63, "velocity": 78, "duration": 492}, {"note": 65, "velocity": 80, "duration": 461}, {"note": 61, "velocity": 79, "duration": 1297}, {"note": 0, "velocity": 0, "duration": 143}, {"note": 56, "velocity": 82, "duration": 239}, {"note": 61, "velocity": 79, "duration": 238}, {"note": 65, "velocity": 85, "duration": 642}, {"note": 0, "velocity": 0, "duration": 78}, {"note": 68, "velocity": 79, "duration": 199}, {"note": 65, "velocity": 81, "duration": 372}, {"note": 0, "velocity": 0, "duration": 108}, {"note": 63, "velocity": 78, "duration": 204}, {"note": 61, "velocity": 81, "duration": 177}, {"note": 0, "velocity": 0, "duration": 63}, {"note": 61, "velocity": 79, "duration": 184}, {"note": 61, "velocity": 82, "duration": 221}, {"note": 61, "velocity": 78, "duration": 196}, {"note": 58, "velocity": 78, "duration": 180}, {"note": 56, "velocity": 73, "duration": 404}, {"note": 0, "velocity": 0, "duration": 76}, {"note": 56, "velocity": 79, "duration": 165}, {"note": 0, "velocity": 0, "duration": 75}, {"note": 61, "velocity": 80, "duration": 159}, {"note": 0, "velocity": 0, "duration": 81}, {"note": 65, "velocity": 81, "duration": 671}, {"note": 68, "velocity": 78, "duration": 184}, {"note": 68, "velocity": 78, "duration": 181}, {"note": 68, "velocity": 78, "duration": 171}, {"note": 0, "velocity": 0, "duration": 69}, {"note": 70, "velocity": 79, "duration": 186}, {"note": 68, "velocity": 79, "duration": 177}, {"note": 0, "velocity": 0, "duration": 63}, {"note": 68, "velocity": 79, "duration": 197}, {"note": 65, "velocity": 80, "duration": 238}, {"note": 63, "velocity": 77, "duration": 246}, {"note": 61, "velocity": 79, "duration": 247}, {"note": 63, "velocity": 75, "duration": 391}, {"note": 0, "velocity": 0, "duration": 89}, {"note": 70, "velocity": 79, "duration": 183}, {"note": 68, "velocity": 80, "duration": 228}, {"note": 65, "velocity": 82, "duration": 671}, {"note": 68, "velocity": 76, "duration": 174}, {"note": 0, "velocity": 0, "duration": 66}, {"note": 68, "velocity": 78, "duration": 161}, {"note": 0, "velocity": 0, "duration": 79}, {"note": 68, "velocity": 79, "duration": 222}, {"note": 70, "velocity": 79, "duration": 158}, {"note": 0, "velocity": 0, "duration": 82}, {"note": 68, "velocity": 76, "duration": 208}, {"note": 65, "velocity": 79, "duration": 261}, {"note": 63, "velocity": 76, "duration": 243}, {"note": 61, "velocity": 77, "duration": 177}, {"note": 0, "velocity": 0, "duration": 63}, {"note": 63, "velocity": 79, "duration": 270}, {"note": 58, "velocity": 78, "duration": 405}, {"note": 0, "velocity": 0, "duration": 75}, {"note": 56, "velocity": 80, "duration": 166}, {"note": 0, "velocity": 0, "duration": 74}, {"note": 58, "velocity": 79, "duration": 192}, {"note": 61, "velocity": 78, "duration": 692}, {"note": 65, "velocity": 80, "duration": 187}, {"note": 63, "velocity": 78, "duration": 492}, {"note": 65, "velocity": 80, "duration": 461}, {"note": 61, "velocity": 79, "duration": 1297}, {"note": 0, "velocity": 0, "duration": 143}, {"note": 65, "velocity": 85, "duration": 213}, {"note": 68, "velocity": 78, "duration": 199}, {"note": 73, "velocity": 80, "duration": 644}, {"note": 0, "velocity": 0, "duration": 76}, {"note": 73, "velocity": 80, "duration": 185}, {"note": 72, "velocity": 81, "duration": 366}, {"note": 0, "velocity": 0, "duration": 114}, {"note": 70, "velocity": 80, "duration": 222}, {"note": 68, "velocity": 82, "duration": 189}, {"note": 70, "velocity": 80, "duration": 204}, {"note": 73, "velocity": 80, "duration": 172}, {"note": 0, "velocity": 0, "duration": 68}, {"note": 65, "velocity": 78, "duration": 216}, {"note": 63, "velocity": 79, "duration": 191}, {"note": 61, "velocity": 80, "duration": 433}, {"note": 61, "velocity": 79, "duration": 165}, {"note": 0, "velocity": 0, "duration": 75}, {"note": 61, "velocity": 79, "duration": 162}, {"note": 0, "velocity": 0, "duration": 78}, {"note": 61, "velocity": 82, "duration": 178}, {"note": 0, "velocity": 0, "duration": 62}, {"note": 73, "velocity": 79, "duration": 458}, {"note": 70, "velocity": 77, "duration": 190}, {"note": 68, "velocity": 78, "duration": 187}, {"note": 65, "velocity": 79, "duration": 210}, {"note": 63, "velocity": 79, "duration": 220}, {"note": 61, "velocity": 80, "duration": 182}, {"note": 63, "velocity": 79, "duration": 1245}, {"note": 0, "velocity": 0, "duration": 195}, {"note": 65, "velocity": 85, "duration": 213}, {"note": 68, "velocity": 78, "duration": 199}, {"note": 73, "velocity": 80, "duration": 644}, {"note": 0, "velocity": 0, "duration": 76}, {"note": 73, "velocity": 80, "duration": 185}, {"note": 72, "velocity": 81, "duration": 366}, {"note": 0, "velocity": 0, "duration": 114}, {"note": 70, "velocity": 80, "duration": 222}, {"note": 68, "velocity": 82, "duration": 189}, {"note": 70, "velocity": 80, "duration": 204}, {"note": 73, "velocity": 80, "duration": 172}, {"note": 0, "velocity": 0, "duration": 68}, {"note": 65, "velocity": 78, "duration": 216}, {"note": 63, "velocity": 79, "duration": 191}, {"note": 61, "velocity": 80, "duration": 433}, {"note": 61, "velocity": 79, "duration": 165}, {"note": 0, "velocity": 0, "duration": 75}, {"note": 61, "velocity": 79, "duration": 162}, {"note": 0, "velocity": 0, "duration": 78}, {"note": 61, "velocity": 82, "duration": 178}, {"note": 0, "velocity": 0, "duration": 62}, {"note": 73, "velocity": 79, "duration": 458}, {"note": 70, "velocity": 77, "duration": 190}, {"note": 68, "velocity": 78, "duration": 187}, {"note": 65, "velocity": 79, "duration": 210}, {"note": 63, "velocity": 79, "duration": 220}, {"note": 61, "velocity": 80, "duration": 182}, {"note": 61, "velocity": 79, "duration": 1245}, {"note": 0, "velocity": 0, "duration": 15555}, {"note": 56, "velocity": 82, "duration": 239}, {"note": 61, "velocity": 79, "duration": 238}, {"note": 65, "velocity": 85, "duration": 642}, {"note": 0, "velocity": 0, "duration": 78}, {"note": 68, "velocity": 79, "duration": 199}, {"note": 65, "velocity": 81, "duration": 372}, {"note": 0, "velocity": 0, "duration": 108}, {"note": 63, "velocity": 78, "duration": 204}, {"note": 61, "velocity": 81, "duration": 177}, {"note": 0, "velocity": 0, "duration": 63}, {"note": 61, "velocity": 79, "duration": 184}, {"note": 61, "velocity": 82, "duration": 221}, {"note": 61, "velocity": 78, "duration": 196}, {"note": 58, "velocity": 78, "duration": 180}, {"note": 56, "velocity": 73, "duration": 404}, {"note": 0, "velocity": 0, "duration": 76}, {"note": 56, "velocity": 79, "duration": 165}, {"note": 0, "velocity": 0, "duration": 75}, {"note": 61, "velocity": 80, "duration": 159}, {"note": 0, "velocity": 0, "duration": 81}, {"note": 65, "velocity": 81, "duration": 671}, {"note": 68, "velocity": 78, "duration": 184}, {"note": 68, "velocity": 78, "duration": 181}, {"note": 68, "velocity": 78, "duration": 171}, {"note": 0, "velocity": 0, "duration": 69}, {"note": 70, "velocity": 79, "duration": 186}, {"note": 68, "velocity": 79, "duration": 177}, {"note": 0, "velocity": 0, "duration": 63}, {"note": 68, "velocity": 79, "duration": 197}, {"note": 65, "velocity": 80, "duration": 238}, {"note": 63, "velocity": 77, "duration": 246}, {"note": 61, "velocity": 79, "duration": 247}, {"note": 63, "velocity": 75, "duration": 391}, {"note": 0, "velocity": 0, "duration": 89}, {"note": 70, "velocity": 79, "duration": 183}, {"note": 68, "velocity": 80, "duration": 228}, {"note": 65, "velocity": 82, "duration": 671}, {"note": 68, "velocity": 76, "duration": 174}, {"note": 0, "velocity": 0, "duration": 66}, {"note": 68, "velocity": 78, "duration": 161}, {"note": 0, "velocity": 0, "duration": 79}, {"note": 68, "velocity": 79, "duration": 222}, {"note": 70, "velocity": 79, "duration": 158}, {"note": 0, "velocity": 0, "duration": 82}, {"note": 68, "velocity": 76, "duration": 208}, {"note": 65, "velocity": 79, "duration": 261}, {"note": 63, "velocity": 76, "duration": 243}, {"note": 61, "velocity": 77, "duration": 177}, {"note": 0, "velocity": 0, "duration": 63}, {"note": 63, "velocity": 79, "duration": 270}, {"note": 58, "velocity": 78, "duration": 405}, {"note": 0, "velocity": 0, "duration": 75}, {"note": 56, "velocity": 80, "duration": 166}, {"note": 0, "velocity": 0, "duration": 74}, {"note": 58, "velocity": 79, "duration": 192}, {"note": 61, "velocity": 78, "duration": 692}, {"note": 65, "velocity": 80, "duration": 187}, {"note": 63, "velocity": 78, "duration": 492}, {"note": 65, "velocity": 80, "duration": 461}, {"note": 61, "velocity": 79, "duration": 1297}, {"note": 0, "velocity": 0, "duration": 143}, {"note": 65, "velocity": 85, "duration": 213}, {"note": 68, "velocity": 78, "duration": 199}, {"note": 73, "velocity": 80, "duration": 644}, {"note": 0, "velocity": 0, "duration": 76}, {"note": 73, "velocity": 80, "duration": 185}, {"note": 72, "velocity": 81, "duration": 366}, {"note": 0, "velocity": 0, "duration": 114}, {"note": 70, "velocity": 80, "duration": 222}, {"note": 68, "velocity": 82, "duration": 189}, {"note": 70, "velocity": 80, "duration": 204}, {"note": 73, "velocity": 80, "duration": 172}, {"note": 0, "velocity": 0, "duration": 68}, {"note": 65, "velocity": 78, "duration": 216}, {"note": 63, "velocity": 79, "duration": 191}, {"note": 61, "velocity": 80, "duration": 433}, {"note": 61, "velocity": 79, "duration": 165}, {"note": 0, "velocity": 0, "duration": 75}, {"note": 61, "velocity": 79, "duration": 162}, {"note": 0, "velocity": 0, "duration": 78}, {"note": 61, "velocity": 82, "duration": 178}, {"note": 0, "velocity": 0, "duration": 62}, {"note": 73, "velocity": 79, "duration": 458}, {"note": 70, "velocity": 77, "duration": 190}, {"note": 68, "velocity": 78, "duration": 187}, {"note": 65, "velocity": 79, "duration": 210}, {"note": 63, "velocity": 79, "duration": 220}, {"note": 61, "velocity": 80, "duration": 182}, {"note": 63, "velocity": 79, "duration": 1245}, {"note": 0, "velocity": 0, "duration": 195}, {"note": 65, "velocity": 85, "duration": 213}, {"note": 68, "velocity": 78, "duration": 199}, {"note": 73, "velocity": 80, "duration": 644}, {"note": 0, "velocity": 0, "duration": 76}, {"note": 73, "velocity": 80, "duration": 185}, {"note": 72, "velocity": 81, "duration": 366}, {"note": 0, "velocity": 0, "duration": 114}, {"note": 70, "velocity": 80, "duration": 222}, {"note": 68, "velocity": 82, "duration": 189}, {"note": 70, "velocity": 80, "duration": 204}, {"note": 73, "velocity": 80, "duration": 172}, {"note": 0, "velocity": 0, "duration": 68}, {"note": 65, "velocity": 78, "duration": 216}, {"note": 63, "velocity": 79, "duration": 191}, {"note": 61, "velocity": 80, "duration": 433}, {"note": 61, "velocity": 79, "duration": 165}, {"note": 0, "velocity": 0, "duration": 75}, {"note": 61, "velocity": 79, "duration": 162}, {"note": 0, "velocity": 0, "duration": 78}, {"note": 61, "velocity": 82, "duration": 178}, {"note": 0, "velocity": 0, "duration": 62}, {"note": 73, "velocity": 79, "duration": 458}, {"note": 70, "velocity": 77, "duration": 190}, {"note": 68, "velocity": 78, "duration": 187}, {"note": 65, "velocity": 79, "duration": 210}, {"note": 63, "velocity": 79, "duration": 220}, {"note": 61, "velocity": 80, "duration": 182}, {"note": 61, "velocity": 79, "duration": 1245}, {"note": 0, "velocity": 0, "duration": 195}, {"note": 65, "velocity": 85, "duration": 213}, {"note": 68, "velocity": 78, "duration": 199}, {"note": 73, "velocity": 80, "duration": 644}, {"note": 0, "velocity": 0, "duration": 76}, {"note": 73, "velocity": 80, "duration": 185}, {"note": 72, "velocity": 81, "duration": 366}, {"note": 0, "velocity": 0, "duration": 114}, {"note": 70, "velocity": 80, "duration": 222}, {"note": 68, "velocity": 82, "duration": 189}, {"note": 70, "velocity": 80, "duration": 204}, {"note": 73, "velocity": 80, "duration": 172}, {"note": 0, "velocity": 0, "duration": 68}, {"note": 65, "velocity": 78, "duration": 216}, {"note": 63, "velocity": 79, "duration": 191}, {"note": 61, "velocity": 80, "duration": 433}, {"note": 61, "velocity": 79, "duration": 165}, {"note": 0, "velocity": 0, "duration": 75}, {"note": 61, "velocity": 79, "duration": 162}, {"note": 0, "velocity": 0, "duration": 78}, {"note": 61, "velocity": 82, "duration": 178}, {"note": 0, "velocity": 0, "duration": 62}, {"note": 73, "velocity": 79, "duration": 480}, {"note": 0, "velocity": 0, "duration": 130}, {"note": 70, "velocity": 78, "duration": 295}, {"note": 68, "velocity": 70, "duration": 381}, {"note": 65, "velocity": 82, "duration": 327}, {"note": 63, "velocity": 82, "duration": 1389}, {"note": 61, "velocity": 79, "duration": 249}, {"note": 0, "velocity": 0, "duration": 61}, {"note": 61, "velocity": 82, "duration": 989}]]