[[{"note": 74, "velocity": 84, "duration": 123}, {"note": 72, "velocity": 80, "duration": 122}, {"note": 74, "velocity": 86, "duration": 366}, {"note": 72, "velocity": 78, "duration": 129}, {"note": 74, "velocity": 84, "duration": 271}, {"note": 72, "velocity": 79, "duration": 110}, {"note": 69, "velocity": 74, "duration": 360}, {"note": 65, "velocity": 69, "duration": 120}, {"note": 65, "velocity": 76, "duration": 120}, {"note": 67, "velocity": 74, "duration": 647}, {"note": 0, "velocity": 0, "duration": 1513}, {"note": 74, "velocity": 88, "duration": 123}, {"note": 72, "velocity": 79, "duration": 115}, {"note": 74, "velocity": 88, "duration": 395}, {"note": 72, "velocity": 76, "duration": 129}, {"note": 74, "velocity": 83, "duration": 261}, {"note": 72, "velocity": 81, "duration": 365}, {"note": 0, "velocity": 0, "duration": 115}, {"note": 65, "velocity": 77, "duration": 105}, {"note": 67, "velocity": 74, "duration": 128}, {"note": 69, "velocity": 76, "duration": 238}, {"note": 67, "velocity": 80, "duration": 854}, {"note": 0, "velocity": 0, "duration": 1066}, {"note": 67, "velocity": 80, "duration": 116}, {"note": 69, "velocity": 79, "duration": 138}, {"note": 67, "velocity": 81, "duration": 245}, {"note": 69, "velocity": 80, "duration": 137}, {"note": 67, "velocity": 80, "duration": 235}, {"note": 69, "velocity": 79, "duration": 134}, {"note": 72, "velocity": 78, "duration": 243}, {"note": 69, "velocity": 79, "duration": 423}, {"note": 74, "velocity": 79, "duration": 224}, {"note": 72, "velocity": 79, "duration": 147}, {"note": 0, "velocity": 0, "duration": 93}, {"note": 72, "velocity": 80, "duration": 96}, {"note": 65, "velocity": 80, "duration": 76}, {"note": 65, "velocity": 75, "duration": 116}, {"note": 72, "velocity": 80, "duration": 339}, {"note": 69, "velocity": 79, "duration": 720}, {"note": 0, "velocity": 0, "duration": 240}, {"note": 67, "velocity": 81, "duration": 116}, {"note": 69, "velocity": 71, "duration": 149}, {"note": 67, "velocity": 80, "duration": 260}, {"note": 69, "velocity": 74, "duration": 122}, {"note": 67, "velocity": 73, "duration": 252}, {"note": 69, "velocity": 80, "duration": 133}, {"note": 72, "velocity": 81, "duration": 233}, {"note": 69, "velocity": 79, "duration": 360}, {"note": 60, "velocity": 75, "duration": 120}, {"note": 65, "velocity": 82, "duration": 233}, {"note": 62, "velocity": 80, "duration": 1129}, {"note": 0, "velocity": 0, "duration": 791}, {"note": 74, "velocity": 84, "duration": 123}, {"note": 72, "velocity": 80, "duration": 122}, {"note": 74, "velocity": 86, "duration": 366}, {"note": 72, "velocity": 78, "duration": 129}, {"note": 74, "velocity": 84, "duration": 271}, {"note": 72, "velocity": 79, "duration": 110}, {"note": 72, "velocity": 80, "duration": 120}, {"note": 0, "velocity": 0, "duration": 120}, {"note": 69, "velocity": 74, "duration": 240}, {"note": 65, "velocity": 76, "duration": 120}, {"note": 69, "velocity": 80, "duration": 240}, {"note": 67, "velocity": 74, "duration": 120}, {"note": 67, "velocity": 74, "duration": 527}, {"note": 0, "velocity": 0, "duration": 1273}, {"note": 74, "velocity": 88, "duration": 123}, {"note": 72, "velocity": 79, "duration": 115}, {"note": 74, "velocity": 88, "duration": 395}, {"note": 72, "velocity": 76, "duration": 129}, {"note": 74, "velocity": 83, "duration": 261}, {"note": 72, "velocity": 81, "duration": 365}, {"note": 0, "velocity": 0, "duration": 115}, {"note": 65, "velocity": 77, "duration": 105}, {"note": 67, "velocity": 74, "duration": 128}, {"note": 69, "velocity": 76, "duration": 238}, {"note": 67, "velocity": 80, "duration": 120}, {"note": 67, "velocity": 80, "duration": 734}, {"note": 0, "velocity": 0, "duration": 1066}, {"note": 67, "velocity": 80, "duration": 116}, {"note": 69, "velocity": 79, "duration": 138}, {"note": 67, "velocity": 81, "duration": 245}, {"note": 69, "velocity": 80, "duration": 137}, {"note": 72, "velocity": 80, "duration": 235}, {"note": 0, "velocity": 0, "duration": 125}, {"note": 69, "velocity": 78, "duration": 360}, {"note": 0, "velocity": 0, "duration": 120}, {"note": 69, "velocity": 80, "duration": 120}, {"note": 69, "velocity": 80, "duration": 120}, {"note": 74, "velocity": 79, "duration": 224}, {"note": 72, "velocity": 79, "duration": 147}, {"note": 0, "velocity": 0, "duration": 93}, {"note": 65, "velocity": 80, "duration": 240}, {"note": 67, "velocity": 75, "duration": 116}, {"note": 69, "velocity": 80, "duration": 720}, {"note": 0, "velocity": 0, "duration": 600}, {"note": 67, "velocity": 81, "duration": 116}, {"note": 69, "velocity": 71, "duration": 149}, {"note": 67, "velocity": 80, "duration": 260}, {"note": 69, "velocity": 74, "duration": 122}, {"note": 72, "velocity": 73, "duration": 252}, {"note": 69, "velocity": 80, "duration": 480}, {"note": 0, "velocity": 0, "duration": 120}, {"note": 60, "velocity": 80, "duration": 120}, {"note": 60, "velocity": 75, "duration": 120}, {"note": 65, "velocity": 82, "duration": 233}, {"note": 62, "velocity": 80, "duration": 1129}, {"note": 0, "velocity": 0, "duration": 71}, {"note": 62, "velocity": 81, "duration": 96}, {"note": 64, "velocity": 83, "duration": 111}, {"note": 65, "velocity": 81, "duration": 122}, {"note": 62, "velocity": 76, "duration": 122}, {"note": 69, "velocity": 80, "duration": 190}, {"note": 69, "velocity": 79, "duration": 73}, {"note": 69, "velocity": 81, "duration": 369}, {"note": 0, "velocity": 0, "duration": 231}, {"note": 67, "velocity": 80, "duration": 196}, {"note": 69, "velocity": 81, "duration": 105}, {"note": 67, "velocity": 80, "duration": 247}, {"note": 0, "velocity": 0, "duration": 113}, {"note": 69, "velocity": 83, "duration": 82}, {"note": 72, "velocity": 80, "duration": 77}, {"note": 74, "velocity": 90, "duration": 195}, {"note": 74, "velocity": 79, "duration": 64}, {"note": 74, "velocity": 82, "duration": 55}, {"note": 0, "velocity": 0, "duration": 65}, {"note": 74, "velocity": 86, "duration": 327}, {"note": 77, "velocity": 80, "duration": 114}, {"note": 76, "velocity": 84, "duration": 209}, {"note": 72, "velocity": 75, "duration": 487}, {"note": 0, "velocity": 0, "duration": 233}, {"note": 67, "velocity": 79, "duration": 129}, {"note": 69, "velocity": 78, "duration": 130}, {"note": 67, "velocity": 73, "duration": 116}, {"note": 69, "velocity": 79, "duration": 113}, {"note": 67, "velocity": 80, "duration": 259}, {"note": 69, "velocity": 80, "duration": 132}, {"note": 72, "velocity": 75, "duration": 356}, {"note": 69, "velocity": 76, "duration": 381}, {"note": 0, "velocity": 0, "duration": 99}, {"note": 69, "velocity": 85, "duration": 67}, {"note": 69, "velocity": 80, "duration": 80}, {"note": 74, "velocity": 86, "duration": 166}, {"note": 0, "velocity": 0, "duration": 74}, {"note": 74, "velocity": 81, "duration": 63}, {"note": 74, "velocity": 85, "duration": 81}, {"note": 72, "velocity": 85, "duration": 173}, {"note": 0, "velocity": 0, "duration": 67}, {"note": 72, "velocity": 81, "duration": 238}, {"note": 69, "velocity": 79, "duration": 432}, {"note": 0, "velocity": 0, "duration": 408}, {"note": 67, "velocity": 81, "duration": 76}, {"note": 69, "velocity": 81, "duration": 173}, {"note": 0, "velocity": 0, "duration": 67}, {"note": 69, "velocity": 79, "duration": 65}, {"note": 69, "velocity": 80, "duration": 356}, {"note": 0, "velocity": 0, "duration": 244}, {"note": 67, "velocity": 79, "duration": 170}, {"note": 0, "velocity": 0, "duration": 70}, {"note": 69, "velocity": 77, "duration": 96}, {"note": 67, "velocity": 79, "duration": 272}, {"note": 0, "velocity": 0, "duration": 88}, {"note": 69, "velocity": 83, "duration": 76}, {"note": 72, "velocity": 82, "duration": 67}, {"note": 74, "velocity": 88, "duration": 120}, {"note": 74, "velocity": 88, "duration": 120}, {"note": 74, "velocity": 90, "duration": 120}, {"note": 74, "velocity": 90, "duration": 120}, {"note": 74, "velocity": 90, "duration": 120}, {"note": 77, "velocity": 80, "duration": 240}, {"note": 76, "velocity": 80, "duration": 120}, {"note": 74, "velocity": 80, "duration": 240}, {"note": 72, "velocity": 80, "duration": 480}, {"note": 0, "velocity": 0, "duration": 240}, {"note": 67, "velocity": 80, "duration": 73}, {"note": 69, "velocity": 75, "duration": 82}, {"note": 67, "velocity": 83, "duration": 92}, {"note": 69, "velocity": 78, "duration": 105}, {"note": 67, "velocity": 80, "duration": 239}, {"note": 69, "velocity": 77, "duration": 112}, {"note": 72, "velocity": 81, "duration": 354}, {"note": 69, "velocity": 76, "duration": 339}, {"note": 0, "velocity": 0, "duration": 261}, {"note": 60, "velocity": 83, "duration": 114}, {"note": 65, "velocity": 80, "duration": 346}, {"note": 62, "velocity": 80, "duration": 1409}, {"note": 0, "velocity": 0, "duration": 15751}, {"note": 74, "velocity": 84, "duration": 123}, {"note": 72, "velocity": 80, "duration": 122}, {"note": 74, "velocity": 86, "duration": 366}, {"note": 72, "velocity": 78, "duration": 129}, {"note": 74, "velocity": 84, "duration": 271}, {"note": 72, "velocity": 79, "duration": 110}, {"note": 72, "velocity": 80, "duration": 120}, {"note": 0, "velocity": 0, "duration": 120}, {"note": 69, "velocity": 74, "duration": 240}, {"note": 65, "velocity": 76, "duration": 120}, {"note": 69, "velocity": 80, "duration": 240}, {"note": 67, "velocity": 74, "duration": 120}, {"note": 67, "velocity": 74, "duration": 527}, {"note": 0, "velocity": 0, "duration": 1273}, {"note": 74, "velocity": 88, "duration": 123}, {"note": 72, "velocity": 79, "duration": 115}, {"note": 74, "velocity": 88, "duration": 395}, {"note": 72, "velocity": 76, "duration": 129}, {"note": 74, "velocity": 83, "duration": 261}, {"note": 72, "velocity": 81, "duration": 365}, {"note": 0, "velocity": 0, "duration": 115}, {"note": 65, "velocity": 77, "duration": 105}, {"note": 67, "velocity": 74, "duration": 128}, {"note": 69, "velocity": 76, "duration": 238}, {"note": 67, "velocity": 80, "duration": 120}, {"note": 67, "velocity": 80, "duration": 734}, {"note": 0, "velocity": 0, "duration": 1066}, {"note": 67, "velocity": 80, "duration": 116}, {"note": 69, "velocity": 79, "duration": 138}, {"note": 67, "velocity": 81, "duration": 245}, {"note": 69, "velocity": 80, "duration": 137}, {"note": 72, "velocity": 80, "duration": 235}, {"note": 0, "velocity": 0, "duration": 125}, {"note": 69, "velocity": 78, "duration": 360}, {"note": 0, "velocity": 0, "duration": 120}, {"note": 69, "velocity": 80, "duration": 120}, {"note": 69, "velocity": 80, "duration": 120}, {"note": 74, "velocity": 79, "duration": 224}, {"note": 72, "velocity": 79, "duration": 147}, {"note": 0, "velocity": 0, "duration": 93}, {"note": 65, "velocity": 80, "duration": 240}, {"note": 67, "velocity": 75, "duration": 116}, {"note": 69, "velocity": 80, "duration": 720}, {"note": 0, "velocity": 0, "duration": 600}, {"note": 67, "velocity": 81, "duration": 116}, {"note": 69, "velocity": 71, "duration": 149}, {"note": 67, "velocity": 80, "duration": 260}, {"note": 69, "velocity": 74, "duration": 122}, {"note": 72, "velocity": 73, "duration": 252}, {"note": 69, "velocity": 80, "duration": 480}, {"note": 0, "velocity": 0, "duration": 120}, {"note": 60, "velocity": 80, "duration": 120}, {"note": 60, "velocity": 75, "duration": 120}, {"note": 65, "velocity": 82, "duration": 233}, {"note": 62, "velocity": 80, "duration": 1129}, {"note": 0, "velocity": 0, "duration": 71}, {"note": 62, "velocity": 81, "duration": 96}, {"note": 64, "velocity": 83, "duration": 111}, {"note": 65, "velocity": 81, "duration": 122}, {"note": 62, "velocity": 76, "duration": 122}, {"note": 69, "velocity": 80, "duration": 190}, {"note": 69, "velocity": 79, "duration": 73}, {"note": 69, "velocity": 81, "duration": 369}, {"note": 0, "velocity": 0, "duration": 231}, {"note": 67, "velocity": 80, "duration": 196}, {"note": 69, "velocity": 81, "duration": 105}, {"note": 67, "velocity": 80, "duration": 247}, {"note": 0, "velocity": 0, "duration": 113}, {"note": 69, "velocity": 83, "duration": 82}, {"note": 72, "velocity": 80, "duration": 77}, {"note": 74, "velocity": 90, "duration": 195}, {"note": 74, "velocity": 79, "duration": 64}, {"note": 74, "velocity": 82, "duration": 55}, {"note": 0, "velocity": 0, "duration": 65}, {"note": 74, "velocity": 86, "duration": 327}, {"note": 77, "velocity": 80, "duration": 114}, {"note": 76, "velocity": 84, "duration": 209}, {"note": 72, "velocity": 75, "duration": 487}, {"note": 0, "velocity": 0, "duration": 233}, {"note": 67, "velocity": 79, "duration": 129}, {"note": 69, "velocity": 78, "duration": 130}, {"note": 67, "velocity": 73, "duration": 116}, {"note": 69, "velocity": 79, "duration": 113}, {"note": 67, "velocity": 80, "duration": 259}, {"note": 69, "velocity": 80, "duration": 132}, {"note": 72, "velocity": 75, "duration": 356}, {"note": 69, "velocity": 76, "duration": 381}, {"note": 0, "velocity": 0, "duration": 99}, {"note": 69, "velocity": 85, "duration": 67}, {"note": 69, "velocity": 80, "duration": 80}, {"note": 74, "velocity": 86, "duration": 166}, {"note": 0, "velocity": 0, "duration": 74}, {"note": 74, "velocity": 81, "duration": 63}, {"note": 74, "velocity": 85, "duration": 81}, {"note": 72, "velocity": 85, "duration": 173}, {"note": 0, "velocity": 0, "duration": 67}, {"note": 72, "velocity": 81, "duration": 238}, {"note": 69, "velocity": 79, "duration": 432}, {"note": 0, "velocity": 0, "duration": 408}, {"note": 67, "velocity": 81, "duration": 76}, {"note": 69, "velocity": 81, "duration": 173}, {"note": 0, "velocity": 0, "duration": 67}, {"note": 69, "velocity": 79, "duration": 65}, {"note": 69, "velocity": 80, "duration": 356}, {"note": 0, "velocity": 0, "duration": 244}, {"note": 67, "velocity": 79, "duration": 170}, {"note": 0, "velocity": 0, "duration": 70}, {"note": 69, "velocity": 77, "duration": 96}, {"note": 67, "velocity": 79, "duration": 272}, {"note": 0, "velocity": 0, "duration": 88}, {"note": 69, "velocity": 83, "duration": 76}, {"note": 72, "velocity": 82, "duration": 67}, {"note": 74, "velocity": 88, "duration": 120}, {"note": 74, "velocity": 88, "duration": 120}, {"note": 74, "velocity": 90, "duration": 120}, {"note": 74, "velocity": 90, "duration": 120}, {"note": 74, "velocity": 90, "duration": 120}, {"note": 77, "velocity": 80, "duration": 240}, {"note": 76, "velocity": 80, "duration": 120}, {"note": 74, "velocity": 80, "duration": 240}, {"note": 72, "velocity": 80, "duration": 480}, {"note": 0, "velocity": 0, "duration": 240}, {"note": 67, "velocity": 80, "duration": 73}, {"note": 69, "velocity": 75, "duration": 82}, {"note": 67, "velocity": 83, "duration": 92}, {"note": 69, "velocity": 78, "duration": 105}, {"note": 67, "velocity": 80, "duration": 239}, {"note": 69, "velocity": 77, "duration": 112}, {"note": 72, "velocity": 81, "duration": 354}, {"note": 69, "velocity": 76, "duration": 339}, {"note": 0, "velocity": 0, "duration": 261}, {"note": 60, "velocity": 83, "duration": 114}, {"note": 65, "velocity": 80, "duration": 346}, {"note": 62, "velocity": 80, "duration": 1409}, {"note": 0, "velocity": 0, "duration": 151}, {"note": 77, "velocity": 95, "duration": 567}, {"note": 0, "velocity": 0, "duration": 153}, {"note": 76, "velocity": 86, "duration": 93}, {"note": 74, "velocity": 79, "duration": 70}, {"note": 76, "velocity": 90, "duration": 225}, {"note": 69, "velocity": 86, "duration": 390}, {"note": 0, "velocity": 0, "duration": 90}, {"note": 69, "velocity": 86, "duration": 64}, {"note": 69, "velocity": 90, "duration": 102}, {"note": 70, "velocity": 86, "duration": 179}, {"note": 0, "velocity": 0, "duration": 61}, {"note": 77, "velocity": 83, "duration": 169}, {"note": 0, "velocity": 0, "duration": 71}, {"note": 76, "velocity": 84, "duration": 102}, {"note": 74, "velocity": 84, "duration": 67}, {"note": 72, "velocity": 82, "duration": 230}, {"note": 74, "velocity": 90, "duration": 650}, {"note": 0, "velocity": 0, "duration": 70}, {"note": 77, "velocity": 81, "duration": 67}, {"note": 77, "velocity": 81, "duration": 78}, {"note": 79, "velocity": 86, "duration": 633}, {"note": 0, "velocity": 0, "duration": 87}, {"note": 77, "velocity": 81, "duration": 85}, {"note": 76, "velocity": 83, "duration": 318}, {"note": 72, "velocity": 88, "duration": 204}, {"note": 79, "velocity": 80, "duration": 175}, {"note": 0, "velocity": 0, "duration": 65}, {"note": 79, "velocity": 79, "duration": 67}, {"note": 79, "velocity": 81, "duration": 305}, {"note": 81, "velocity": 79, "duration": 1572}, {"note": 0, "velocity": 0, "duration": 108}, {"note": 86, "velocity": 85, "duration": 715}, {"note": 89, "velocity": 83, "duration": 129}, {"note": 86, "velocity": 82, "duration": 384}, {"note": 84, "velocity": 86, "duration": 571}, {"note": 0, "velocity": 0, "duration": 149}, {"note": 81, "velocity": 85, "duration": 219}, {"note": 84, "velocity": 84, "duration": 224}, {"note": 81, "velocity": 81, "duration": 234}, {"note": 79, "velocity": 80, "duration": 237}, {"note": 77, "velocity": 81, "duration": 600}, {"note": 0, "velocity": 0, "duration": 120}, {"note": 76, "velocity": 90, "duration": 82}, {"note": 77, "velocity": 75, "duration": 81}, {"note": 79, "velocity": 83, "duration": 651}, {"note": 0, "velocity": 0, "duration": 69}, {"note": 77, "velocity": 80, "duration": 120}, {"note": 76, "velocity": 81, "duration": 360}, {"note": 72, "velocity": 85, "duration": 183}, {"note": 76, "velocity": 83, "duration": 178}, {"note": 0, "velocity": 0, "duration": 62}, {"note": 77, "velocity": 80, "duration": 170}, {"note": 0, "velocity": 0, "duration": 70}, {"note": 76, "velocity": 90, "duration": 367}, {"note": 74, "velocity": 83, "duration": 1080}, {"note": 62, "velocity": 81, "duration": 96}, {"note": 64, "velocity": 83, "duration": 111}, {"note": 65, "velocity": 81, "duration": 122}, {"note": 62, "velocity": 76, "duration": 122}, {"note": 69, "velocity": 80, "duration": 190}, {"note": 69, "velocity": 79, "duration": 73}, {"note": 69, "velocity": 81, "duration": 369}, {"note": 0, "velocity": 0, "duration": 231}, {"note": 67, "velocity": 80, "duration": 196}, {"note": 69, "velocity": 81, "duration": 105}, {"note": 67, "velocity": 80, "duration": 247}, {"note": 0, "velocity": 0, "duration": 113}, {"note": 69, "velocity": 83, "duration": 82}, {"note": 72, "velocity": 80, "duration": 77}, {"note": 74, "velocity": 90, "duration": 195}, {"note": 74, "velocity": 79, "duration": 64}, {"note": 74, "velocity": 82, "duration": 55}, {"note": 0, "velocity": 0, "duration": 65}, {"note": 74, "velocity": 86, "duration": 327}, {"note": 77, "velocity": 80, "duration": 114}, {"note": 76, "velocity": 84, "duration": 209}, {"note": 72, "velocity": 75, "duration": 487}, {"note": 0, "velocity": 0, "duration": 233}, {"note": 67, "velocity": 79, "duration": 129}, {"note": 69, "velocity": 78, "duration": 130}, {"note": 67, "velocity": 73, "duration": 116}, {"note": 69, "velocity": 79, "duration": 113}, {"note": 67, "velocity": 80, "duration": 259}, {"note": 69, "velocity": 80, "duration": 132}, {"note": 72, "velocity": 75, "duration": 356}, {"note": 69, "velocity": 76, "duration": 381}, {"note": 0, "velocity": 0, "duration": 99}, {"note": 69, "velocity": 85, "duration": 67}, {"note": 69, "velocity": 80, "duration": 80}, {"note": 74, "velocity": 86, "duration": 166}, {"note": 0, "velocity": 0, "duration": 74}, {"note": 74, "velocity": 81, "duration": 63}, {"note": 74, "velocity": 85, "duration": 81}, {"note": 72, "velocity": 85, "duration": 173}, {"note": 0, "velocity": 0, "duration": 67}, {"note": 72, "velocity": 81, "duration": 238}, {"note": 69, "velocity": 79, "duration": 432}, {"note": 0, "velocity": 0, "duration": 408}, {"note": 67, "velocity": 81, "duration": 76}, {"note": 69, "velocity": 81, "duration": 173}, {"note": 0, "velocity": 0, "duration": 67}, {"note": 69, "velocity": 79, "duration": 65}, {"note": 69, "velocity": 80, "duration": 356}, {"note": 0, "velocity": 0, "duration": 244}, {"note": 67, "velocity": 79, "duration": 170}, {"note": 0, "velocity": 0, "duration": 70}, {"note": 69, "velocity": 77, "duration": 96}, {"note": 67, "velocity": 79, "duration": 272}, {"note": 0, "velocity": 0, "duration": 88}, {"note": 69, "velocity": 83, "duration": 76}, {"note": 72, "velocity": 82, "duration": 67}, {"note": 74, "velocity": 88, "duration": 120}, {"note": 74, "velocity": 88, "duration": 120}, {"note": 74, "velocity": 90, "duration": 120}, {"note": 74, "velocity": 90, "duration": 120}, {"note": 74, "velocity": 90, "duration": 120}, {"note": 77, "velocity": 80, "duration": 240}, {"note": 76, "velocity": 80, "duration": 120}, {"note": 74, "velocity": 80, "duration": 240}, {"note": 72, "velocity": 80, "duration": 480}, {"note": 0, "velocity": 0, "duration": 240}, {"note": 67, "velocity": 80, "duration": 73}, {"note": 69, "velocity": 75, "duration": 82}, {"note": 67, "velocity": 83, "duration": 92}, {"note": 69, "velocity": 78, "duration": 105}, {"note": 67, "velocity": 80, "duration": 239}, {"note": 69, "velocity": 77, "duration": 112}, {"note": 72, "velocity": 81, "duration": 354}, {"note": 69, "velocity": 76, "duration": 1680}, {"note": 0, "velocity": 0, "duration": 952}, {"note": 60, "velocity": 79, "duration": 518}, {"note": 0, "velocity": 0, "duration": 173}, {"note": 65, "velocity": 77, "duration": 467}, {"note": 62, "velocity": 67, "duration": 1281}]]