[[{"note": 69, "velocity": 82, "duration": 226}, {"note": 71, "velocity": 82, "duration": 226}, {"note": 69, "velocity": 82, "duration": 215}, {"note": 78, "velocity": 78, "duration": 986}, {"note": 0, "velocity": 0, "duration": 214}, {"note": 81, "velocity": 78, "duration": 207}, {"note": 83, "velocity": 81, "duration": 175}, {"note": 0, "velocity": 0, "duration": 65}, {"note": 81, "velocity": 77, "duration": 199}, {"note": 78, "velocity": 78, "duration": 1112}, {"note": 0, "velocity": 0, "duration": 328}, {"note": 83, "velocity": 79, "duration": 188}, {"note": 81, "velocity": 77, "duration": 189}, {"note": 78, "velocity": 77, "duration": 640}, {"note": 0, "velocity": 0, "duration": 80}, {"note": 81, "velocity": 78, "duration": 152}, {"note": 0, "velocity": 0, "duration": 88}, {"note": 74, "velocity": 80, "duration": 216}, {"note": 71, "velocity": 79, "duration": 196}, {"note": 78, "velocity": 82, "duration": 220}, {"note": 81, "velocity": 80, "duration": 261}, {"note": 78, "velocity": 77, "duration": 245}, {"note": 76, "velocity": 79, "duration": 1052}, {"note": 0, "velocity": 0, "duration": 148}, {"note": 78, "velocity": 77, "duration": 181}, {"note": 81, "velocity": 78, "duration": 187}, {"note": 76, "velocity": 81, "duration": 656}, {"note": 0, "velocity": 0, "duration": 64}, {"note": 78, "velocity": 77, "duration": 216}, {"note": 71, "velocity": 79, "duration": 1036}, {"note": 0, "velocity": 0, "duration": 404}, {"note": 83, "velocity": 81, "duration": 189}, {"note": 86, "velocity": 81, "duration": 189}, {"note": 85, "velocity": 78, "duration": 662}, {"note": 83, "velocity": 78, "duration": 480}, {"note": 81, "velocity": 77, "duration": 1068}, {"note": 0, "velocity": 0, "duration": 132}, {"note": 78, "velocity": 82, "duration": 407}, {"note": 0, "velocity": 0, "duration": 73}, {"note": 81, "velocity": 79, "duration": 630}, {"note": 0, "velocity": 0, "duration": 90}, {"note": 78, "velocity": 78, "duration": 200}, {"note": 76, "velocity": 78, "duration": 211}, {"note": 69, "velocity": 78, "duration": 195}, {"note": 76, "velocity": 78, "duration": 415}, {"note": 0, "velocity": 0, "duration": 65}, {"note": 74, "velocity": 79, "duration": 1338}, {"note": 0, "velocity": 0, "duration": 102}, {"note": 83, "velocity": 81, "duration": 165}, {"note": 0, "velocity": 0, "duration": 75}, {"note": 85, "velocity": 81, "duration": 179}, {"note": 0, "velocity": 0, "duration": 61}, {"note": 86, "velocity": 78, "duration": 1395}, {"note": 83, "velocity": 81, "duration": 199}, {"note": 86, "velocity": 80, "duration": 193}, {"note": 85, "velocity": 81, "duration": 685}, {"note": 81, "velocity": 79, "duration": 221}, {"note": 83, "velocity": 77, "duration": 1291}, {"note": 0, "velocity": 0, "duration": 149}, {"note": 81, "velocity": 81, "duration": 217}, {"note": 83, "velocity": 79, "duration": 250}, {"note": 78, "velocity": 88, "duration": 1261}, {"note": 0, "velocity": 0, "duration": 179}, {"note": 74, "velocity": 81, "duration": 187}, {"note": 71, "velocity": 82, "duration": 188}, {"note": 81, "velocity": 82, "duration": 479}, {"note": 78, "velocity": 73, "duration": 235}, {"note": 81, "velocity": 82, "duration": 250}, {"note": 76, "velocity": 77, "duration": 1260}, {"note": 0, "velocity": 0, "duration": 180}, {"note": 81, "velocity": 81, "duration": 165}, {"note": 0, "velocity": 0, "duration": 75}, {"note": 78, "velocity": 81, "duration": 179}, {"note": 0, "velocity": 0, "duration": 61}, {"note": 86, "velocity": 78, "duration": 960}, {"note": 83, "velocity": 81, "duration": 199}, {"note": 85, "velocity": 80, "duration": 480}, {"note": 81, "velocity": 78, "duration": 240}, {"note": 83, "velocity": 81, "duration": 960}, {"note": 0, "velocity": 0, "duration": 480}, {"note": 81, "velocity": 79, "duration": 181}, {"note": 83, "velocity": 78, "duration": 176}, {"note": 0, "velocity": 0, "duration": 64}, {"note": 78, "velocity": 77, "duration": 648}, {"note": 0, "velocity": 0, "duration": 72}, {"note": 81, "velocity": 79, "duration": 189}, {"note": 76, "velocity": 75, "duration": 203}, {"note": 69, "velocity": 80, "duration": 199}, {"note": 74, "velocity": 77, "duration": 210}, {"note": 76, "velocity": 80, "duration": 204}, {"note": 74, "velocity": 84, "duration": 1436}, {"note": 0, "velocity": 0, "duration": 7444}, {"note": 69, "velocity": 82, "duration": 226}, {"note": 71, "velocity": 82, "duration": 226}, {"note": 69, "velocity": 82, "duration": 215}, {"note": 78, "velocity": 78, "duration": 986}, {"note": 0, "velocity": 0, "duration": 214}, {"note": 81, "velocity": 78, "duration": 207}, {"note": 83, "velocity": 81, "duration": 175}, {"note": 0, "velocity": 0, "duration": 65}, {"note": 81, "velocity": 77, "duration": 199}, {"note": 78, "velocity": 78, "duration": 1112}, {"note": 0, "velocity": 0, "duration": 328}, {"note": 83, "velocity": 79, "duration": 188}, {"note": 81, "velocity": 77, "duration": 189}, {"note": 78, "velocity": 77, "duration": 640}, {"note": 0, "velocity": 0, "duration": 80}, {"note": 81, "velocity": 78, "duration": 152}, {"note": 0, "velocity": 0, "duration": 88}, {"note": 74, "velocity": 80, "duration": 216}, {"note": 71, "velocity": 79, "duration": 196}, {"note": 78, "velocity": 82, "duration": 220}, {"note": 81, "velocity": 80, "duration": 261}, {"note": 78, "velocity": 77, "duration": 245}, {"note": 76, "velocity": 79, "duration": 1052}, {"note": 0, "velocity": 0, "duration": 148}, {"note": 78, "velocity": 77, "duration": 181}, {"note": 81, "velocity": 78, "duration": 187}, {"note": 76, "velocity": 81, "duration": 656}, {"note": 0, "velocity": 0, "duration": 64}, {"note": 78, "velocity": 77, "duration": 216}, {"note": 71, "velocity": 79, "duration": 1036}, {"note": 0, "velocity": 0, "duration": 404}, {"note": 83, "velocity": 81, "duration": 189}, {"note": 86, "velocity": 81, "duration": 189}, {"note": 85, "velocity": 78, "duration": 662}, {"note": 83, "velocity": 78, "duration": 480}, {"note": 81, "velocity": 77, "duration": 1068}, {"note": 0, "velocity": 0, "duration": 132}, {"note": 78, "velocity": 82, "duration": 407}, {"note": 0, "velocity": 0, "duration": 73}, {"note": 81, "velocity": 79, "duration": 630}, {"note": 0, "velocity": 0, "duration": 90}, {"note": 78, "velocity": 78, "duration": 200}, {"note": 76, "velocity": 78, "duration": 211}, {"note": 69, "velocity": 78, "duration": 195}, {"note": 76, "velocity": 78, "duration": 415}, {"note": 0, "velocity": 0, "duration": 65}, {"note": 74, "velocity": 79, "duration": 1338}, {"note": 0, "velocity": 0, "duration": 102}, {"note": 83, "velocity": 81, "duration": 165}, {"note": 0, "velocity": 0, "duration": 75}, {"note": 85, "velocity": 81, "duration": 179}, {"note": 0, "velocity": 0, "duration": 61}, {"note": 86, "velocity": 78, "duration": 1395}, {"note": 83, "velocity": 81, "duration": 199}, {"note": 86, "velocity": 80, "duration": 193}, {"note": 85, "velocity": 81, "duration": 685}, {"note": 81, "velocity": 79, "duration": 221}, {"note": 83, "velocity": 77, "duration": 1291}, {"note": 0, "velocity": 0, "duration": 149}, {"note": 81, "velocity": 81, "duration": 217}, {"note": 83, "velocity": 79, "duration": 250}, {"note": 78, "velocity": 88, "duration": 1261}, {"note": 0, "velocity": 0, "duration": 179}, {"note": 74, "velocity": 81, "duration": 187}, {"note": 71, "velocity": 82, "duration": 188}, {"note": 81, "velocity": 82, "duration": 479}, {"note": 78, "velocity": 73, "duration": 235}, {"note": 81, "velocity": 82, "duration": 250}, {"note": 76, "velocity": 77, "duration": 1260}, {"note": 0, "velocity": 0, "duration": 180}, {"note": 81, "velocity": 81, "duration": 165}, {"note": 0, "velocity": 0, "duration": 75}, {"note": 78, "velocity": 81, "duration": 179}, {"note": 0, "velocity": 0, "duration": 61}, {"note": 86, "velocity": 78, "duration": 960}, {"note": 83, "velocity": 81, "duration": 199}, {"note": 85, "velocity": 80, "duration": 480}, {"note": 81, "velocity": 78, "duration": 240}, {"note": 83, "velocity": 81, "duration": 960}, {"note": 0, "velocity": 0, "duration": 492}, {"note": 83, "velocity": 78, "duration": 218}, {"note": 81, "velocity": 78, "duration": 261}, {"note": 88, "velocity": 82, "duration": 1207}, {"note": 86, "velocity": 78, "duration": 1381}, {"note": 0, "velocity": 0, "duration": 216}, {"note": 86, "velocity": 79, "duration": 2231}]]