[[{"note": 64, "velocity": 84, "duration": 217}, {"note": 71, "velocity": 79, "duration": 146}, {"note": 69, "velocity": 77, "duration": 147}, {"note": 67, "velocity": 75, "duration": 244}, {"note": 71, "velocity": 74, "duration": 889}, {"note": 0, "velocity": 0, "duration": 311}, {"note": 71, "velocity": 80, "duration": 120}, {"note": 71, "velocity": 80, "duration": 120}, {"note": 74, "velocity": 87, "duration": 193}, {"note": 76, "velocity": 77, "duration": 209}, {"note": 71, "velocity": 79, "duration": 192}, {"note": 69, "velocity": 77, "duration": 651}, {"note": 0, "velocity": 0, "duration": 909}, {"note": 67, "velocity": 71, "duration": 128}, {"note": 69, "velocity": 71, "duration": 123}, {"note": 67, "velocity": 74, "duration": 126}, {"note": 69, "velocity": 74, "duration": 127}, {"note": 67, "velocity": 71, "duration": 139}, {"note": 69, "velocity": 73, "duration": 350}, {"note": 67, "velocity": 74, "duration": 120}, {"note": 69, "velocity": 74, "duration": 109}, {"note": 67, "velocity": 72, "duration": 113}, {"note": 69, "velocity": 76, "duration": 112}, {"note": 67, "velocity": 74, "duration": 81}, {"note": 71, "velocity": 73, "duration": 184}, {"note": 71, "velocity": 75, "duration": 171}, {"note": 0, "velocity": 0, "duration": 69}, {"note": 69, "velocity": 77, "duration": 103}, {"note": 67, "velocity": 68, "duration": 119}, {"note": 64, "velocity": 74, "duration": 775}, {"note": 0, "velocity": 0, "duration": 185}, {"note": 64, "velocity": 78, "duration": 181}, {"note": 71, "velocity": 74, "duration": 152}, {"note": 69, "velocity": 75, "duration": 135}, {"note": 67, "velocity": 73, "duration": 252}, {"note": 71, "velocity": 73, "duration": 1012}, {"note": 0, "velocity": 0, "duration": 68}, {"note": 71, "velocity": 78, "duration": 76}, {"note": 71, "velocity": 77, "duration": 72}, {"note": 71, "velocity": 84, "duration": 120}, {"note": 74, "velocity": 74, "duration": 178}, {"note": 0, "velocity": 0, "duration": 62}, {"note": 76, "velocity": 80, "duration": 166}, {"note": 0, "velocity": 0, "duration": 74}, {"note": 71, "velocity": 71, "duration": 235}, {"note": 69, "velocity": 75, "duration": 981}, {"note": 0, "velocity": 0, "duration": 459}, {"note": 69, "velocity": 75, "duration": 73}, {"note": 71, "velocity": 79, "duration": 82}, {"note": 72, "velocity": 75, "duration": 97}, {"note": 71, "velocity": 73, "duration": 84}, {"note": 72, "velocity": 74, "duration": 110}, {"note": 71, "velocity": 77, "duration": 80}, {"note": 72, "velocity": 77, "duration": 314}, {"note": 71, "velocity": 75, "duration": 76}, {"note": 72, "velocity": 74, "duration": 83}, {"note": 71, "velocity": 74, "duration": 77}, {"note": 72, "velocity": 79, "duration": 70}, {"note": 76, "velocity": 73, "duration": 92}, {"note": 78, "velocity": 78, "duration": 179}, {"note": 0, "velocity": 0, "duration": 61}, {"note": 76, "velocity": 77, "duration": 220}, {"note": 71, "velocity": 77, "duration": 1015}, {"note": 0, "velocity": 0, "duration": 185}, {"note": 76, "velocity": 77, "duration": 66}, {"note": 76, "velocity": 75, "duration": 92}, {"note": 71, "velocity": 77, "duration": 94}, {"note": 69, "velocity": 69, "duration": 95}, {"note": 67, "velocity": 75, "duration": 199}, {"note": 71, "velocity": 74, "duration": 596}, {"note": 0, "velocity": 0, "duration": 604}, {"note": 71, "velocity": 76, "duration": 89}, {"note": 71, "velocity": 75, "duration": 95}, {"note": 74, "velocity": 79, "duration": 192}, {"note": 76, "velocity": 75, "duration": 220}, {"note": 71, "velocity": 75, "duration": 203}, {"note": 69, "velocity": 73, "duration": 829}, {"note": 0, "velocity": 0, "duration": 731}, {"note": 67, "velocity": 72, "duration": 85}, {"note": 69, "velocity": 77, "duration": 81}, {"note": 67, "velocity": 69, "duration": 66}, {"note": 69, "velocity": 75, "duration": 91}, {"note": 67, "velocity": 74, "duration": 68}, {"note": 69, "velocity": 77, "duration": 279}, {"note": 0, "velocity": 0, "duration": 81}, {"note": 67, "velocity": 75, "duration": 76}, {"note": 69, "velocity": 77, "duration": 70}, {"note": 67, "velocity": 74, "duration": 68}, {"note": 69, "velocity": 77, "duration": 74}, {"note": 67, "velocity": 73, "duration": 79}, {"note": 71, "velocity": 76, "duration": 158}, {"note": 0, "velocity": 0, "duration": 82}, {"note": 71, "velocity": 74, "duration": 176}, {"note": 0, "velocity": 0, "duration": 64}, {"note": 69, "velocity": 75, "duration": 97}, {"note": 67, "velocity": 73, "duration": 76}, {"note": 64, "velocity": 75, "duration": 793}, {"note": 0, "velocity": 0, "duration": 167}, {"note": 64, "velocity": 80, "duration": 74}, {"note": 64, "velocity": 75, "duration": 94}, {"note": 71, "velocity": 74, "duration": 88}, {"note": 69, "velocity": 72, "duration": 121}, {"note": 67, "velocity": 74, "duration": 194}, {"note": 71, "velocity": 75, "duration": 884}, {"note": 0, "velocity": 0, "duration": 316}, {"note": 71, "velocity": 77, "duration": 76}, {"note": 71, "velocity": 74, "duration": 94}, {"note": 74, "velocity": 84, "duration": 167}, {"note": 0, "velocity": 0, "duration": 73}, {"note": 76, "velocity": 74, "duration": 170}, {"note": 0, "velocity": 0, "duration": 70}, {"note": 71, "velocity": 75, "duration": 316}, {"note": 69, "velocity": 74, "duration": 1073}, {"note": 0, "velocity": 0, "duration": 247}, {"note": 69, "velocity": 73, "duration": 74}, {"note": 71, "velocity": 73, "duration": 79}, {"note": 72, "velocity": 69, "duration": 83}, {"note": 71, "velocity": 73, "duration": 83}, {"note": 72, "velocity": 68, "duration": 83}, {"note": 71, "velocity": 74, "duration": 78}, {"note": 72, "velocity": 74, "duration": 297}, {"note": 0, "velocity": 0, "duration": 63}, {"note": 71, "velocity": 69, "duration": 106}, {"note": 72, "velocity": 75, "duration": 65}, {"note": 71, "velocity": 77, "duration": 65}, {"note": 72, "velocity": 77, "duration": 60}, {"note": 76, "velocity": 77, "duration": 76}, {"note": 78, "velocity": 77, "duration": 170}, {"note": 0, "velocity": 0, "duration": 70}, {"note": 76, "velocity": 78, "duration": 161}, {"note": 0, "velocity": 0, "duration": 79}, {"note": 78, "velocity": 75, "duration": 1034}, {"note": 0, "velocity": 0, "duration": 406}, {"note": 79, "velocity": 74, "duration": 171}, {"note": 0, "velocity": 0, "duration": 69}, {"note": 78, "velocity": 75, "duration": 156}, {"note": 0, "velocity": 0, "duration": 84}, {"note": 76, "velocity": 75, "duration": 183}, {"note": 71, "velocity": 74, "duration": 179}, {"note": 0, "velocity": 0, "duration": 61}, {"note": 76, "velocity": 79, "duration": 179}, {"note": 0, "velocity": 0, "duration": 61}, {"note": 71, "velocity": 77, "duration": 179}, {"note": 0, "velocity": 0, "duration": 61}, {"note": 74, "velocity": 80, "duration": 75}, {"note": 74, "velocity": 76, "duration": 189}, {"note": 71, "velocity": 75, "duration": 493}, {"note": 0, "velocity": 0, "duration": 107}, {"note": 69, "velocity": 77, "duration": 199}, {"note": 64, "velocity": 77, "duration": 191}, {"note": 69, "velocity": 73, "duration": 207}, {"note": 64, "velocity": 74, "duration": 65}, {"note": 64, "velocity": 75, "duration": 88}, {"note": 67, "velocity": 69, "duration": 73}, {"note": 67, "velocity": 71, "duration": 239}, {"note": 64, "velocity": 77, "duration": 358}, {"note": 64, "velocity": 80, "duration": 68}, {"note": 66, "velocity": 73, "duration": 87}, {"note": 67, "velocity": 74, "duration": 68}, {"note": 67, "velocity": 73, "duration": 175}, {"note": 0, "velocity": 0, "duration": 65}, {"note": 67, "velocity": 71, "duration": 65}, {"note": 67, "velocity": 73, "duration": 188}, {"note": 64, "velocity": 77, "duration": 191}, {"note": 76, "velocity": 79, "duration": 190}, {"note": 74, "velocity": 82, "duration": 169}, {"note": 0, "velocity": 0, "duration": 71}, {"note": 67, "velocity": 74, "duration": 205}, {"note": 69, "velocity": 74, "duration": 188}, {"note": 71, "velocity": 71, "duration": 1330}, {"note": 0, "velocity": 0, "duration": 110}, {"note": 79, "velocity": 74, "duration": 170}, {"note": 0, "velocity": 0, "duration": 70}, {"note": 78, "velocity": 74, "duration": 175}, {"note": 0, "velocity": 0, "duration": 65}, {"note": 76, "velocity": 75, "duration": 167}, {"note": 0, "velocity": 0, "duration": 73}, {"note": 71, "velocity": 77, "duration": 167}, {"note": 0, "velocity": 0, "duration": 73}, {"note": 76, "velocity": 75, "duration": 172}, {"note": 0, "velocity": 0, "duration": 68}, {"note": 71, "velocity": 77, "duration": 170}, {"note": 0, "velocity": 0, "duration": 70}, {"note": 74, "velocity": 79, "duration": 68}, {"note": 74, "velocity": 74, "duration": 207}, {"note": 71, "velocity": 76, "duration": 517}, {"note": 0, "velocity": 0, "duration": 83}, {"note": 69, "velocity": 73, "duration": 190}, {"note": 64, "velocity": 77, "duration": 194}, {"note": 69, "velocity": 76, "duration": 184}, {"note": 64, "velocity": 77, "duration": 183}, {"note": 67, "velocity": 66, "duration": 79}, {"note": 67, "velocity": 69, "duration": 222}, {"note": 64, "velocity": 78, "duration": 288}, {"note": 0, "velocity": 0, "duration": 72}, {"note": 64, "velocity": 75, "duration": 62}, {"note": 66, "velocity": 70, "duration": 80}, {"note": 67, "velocity": 73, "duration": 144}, {"note": 67, "velocity": 74, "duration": 124}, {"note": 67, "velocity": 73, "duration": 82}, {"note": 67, "velocity": 73, "duration": 179}, {"note": 69, "velocity": 73, "duration": 70}, {"note": 71, "velocity": 74, "duration": 84}, {"note": 69, "velocity": 75, "duration": 240}, {"note": 0, "velocity": 0, "duration": 136}, {"note": 69, "velocity": 74, "duration": 76}, {"note": 69, "velocity": 75, "duration": 181}, {"note": 66, "velocity": 73, "duration": 205}, {"note": 62, "velocity": 69, "duration": 100}, {"note": 64, "velocity": 74, "duration": 840}, {"note": 0, "velocity": 0, "duration": 240}, {"note": 64, "velocity": 77, "duration": 240}, {"note": 71, "velocity": 77, "duration": 94}, {"note": 69, "velocity": 69, "duration": 95}, {"note": 67, "velocity": 75, "duration": 199}, {"note": 71, "velocity": 74, "duration": 596}, {"note": 0, "velocity": 0, "duration": 604}, {"note": 71, "velocity": 76, "duration": 89}, {"note": 71, "velocity": 75, "duration": 95}, {"note": 74, "velocity": 79, "duration": 192}, {"note": 76, "velocity": 75, "duration": 220}, {"note": 71, "velocity": 75, "duration": 203}, {"note": 69, "velocity": 73, "duration": 829}, {"note": 0, "velocity": 0, "duration": 731}, {"note": 67, "velocity": 72, "duration": 85}, {"note": 69, "velocity": 77, "duration": 81}, {"note": 67, "velocity": 69, "duration": 66}, {"note": 69, "velocity": 75, "duration": 91}, {"note": 67, "velocity": 74, "duration": 68}, {"note": 69, "velocity": 77, "duration": 279}, {"note": 0, "velocity": 0, "duration": 81}, {"note": 67, "velocity": 75, "duration": 76}, {"note": 69, "velocity": 77, "duration": 70}, {"note": 67, "velocity": 74, "duration": 68}, {"note": 69, "velocity": 77, "duration": 74}, {"note": 67, "velocity": 73, "duration": 79}, {"note": 71, "velocity": 76, "duration": 158}, {"note": 0, "velocity": 0, "duration": 82}, {"note": 71, "velocity": 74, "duration": 176}, {"note": 0, "velocity": 0, "duration": 64}, {"note": 69, "velocity": 75, "duration": 97}, {"note": 67, "velocity": 73, "duration": 76}, {"note": 64, "velocity": 75, "duration": 793}, {"note": 0, "velocity": 0, "duration": 167}, {"note": 76, "velocity": 80, "duration": 74}, {"note": 76, "velocity": 75, "duration": 94}, {"note": 71, "velocity": 74, "duration": 88}, {"note": 69, "velocity": 72, "duration": 121}, {"note": 67, "velocity": 74, "duration": 194}, {"note": 71, "velocity": 75, "duration": 884}, {"note": 0, "velocity": 0, "duration": 316}, {"note": 71, "velocity": 77, "duration": 76}, {"note": 71, "velocity": 74, "duration": 94}, {"note": 74, "velocity": 84, "duration": 167}, {"note": 0, "velocity": 0, "duration": 73}, {"note": 76, "velocity": 74, "duration": 170}, {"note": 0, "velocity": 0, "duration": 70}, {"note": 71, "velocity": 75, "duration": 316}, {"note": 69, "velocity": 74, "duration": 1073}, {"note": 0, "velocity": 0, "duration": 247}, {"note": 69, "velocity": 73, "duration": 74}, {"note": 71, "velocity": 73, "duration": 79}, {"note": 72, "velocity": 69, "duration": 83}, {"note": 71, "velocity": 73, "duration": 83}, {"note": 72, "velocity": 68, "duration": 83}, {"note": 71, "velocity": 74, "duration": 78}, {"note": 72, "velocity": 74, "duration": 297}, {"note": 0, "velocity": 0, "duration": 63}, {"note": 71, "velocity": 69, "duration": 106}, {"note": 72, "velocity": 75, "duration": 65}, {"note": 71, "velocity": 77, "duration": 65}, {"note": 72, "velocity": 77, "duration": 60}, {"note": 76, "velocity": 77, "duration": 76}, {"note": 78, "velocity": 77, "duration": 170}, {"note": 0, "velocity": 0, "duration": 70}, {"note": 76, "velocity": 78, "duration": 161}, {"note": 0, "velocity": 0, "duration": 79}, {"note": 78, "velocity": 75, "duration": 1034}, {"note": 0, "velocity": 0, "duration": 406}, {"note": 79, "velocity": 74, "duration": 171}, {"note": 0, "velocity": 0, "duration": 69}, {"note": 78, "velocity": 75, "duration": 156}, {"note": 0, "velocity": 0, "duration": 84}, {"note": 76, "velocity": 75, "duration": 183}, {"note": 71, "velocity": 74, "duration": 179}, {"note": 0, "velocity": 0, "duration": 61}, {"note": 76, "velocity": 79, "duration": 179}, {"note": 0, "velocity": 0, "duration": 61}, {"note": 71, "velocity": 77, "duration": 179}, {"note": 0, "velocity": 0, "duration": 61}, {"note": 74, "velocity": 80, "duration": 75}, {"note": 74, "velocity": 76, "duration": 189}, {"note": 71, "velocity": 75, "duration": 493}, {"note": 0, "velocity": 0, "duration": 107}, {"note": 69, "velocity": 77, "duration": 199}, {"note": 64, "velocity": 77, "duration": 191}, {"note": 69, "velocity": 73, "duration": 207}, {"note": 64, "velocity": 74, "duration": 65}, {"note": 64, "velocity": 75, "duration": 88}, {"note": 67, "velocity": 69, "duration": 73}, {"note": 67, "velocity": 71, "duration": 239}, {"note": 64, "velocity": 77, "duration": 358}, {"note": 64, "velocity": 80, "duration": 68}, {"note": 66, "velocity": 73, "duration": 87}, {"note": 67, "velocity": 74, "duration": 68}, {"note": 67, "velocity": 73, "duration": 175}, {"note": 0, "velocity": 0, "duration": 65}, {"note": 67, "velocity": 71, "duration": 65}, {"note": 67, "velocity": 73, "duration": 188}, {"note": 64, "velocity": 77, "duration": 191}, {"note": 76, "velocity": 79, "duration": 190}, {"note": 74, "velocity": 82, "duration": 169}, {"note": 0, "velocity": 0, "duration": 71}, {"note": 67, "velocity": 74, "duration": 205}, {"note": 69, "velocity": 74, "duration": 188}, {"note": 71, "velocity": 71, "duration": 1330}, {"note": 0, "velocity": 0, "duration": 110}, {"note": 79, "velocity": 74, "duration": 170}, {"note": 0, "velocity": 0, "duration": 70}, {"note": 78, "velocity": 74, "duration": 175}, {"note": 0, "velocity": 0, "duration": 65}, {"note": 76, "velocity": 75, "duration": 167}, {"note": 0, "velocity": 0, "duration": 73}, {"note": 71, "velocity": 77, "duration": 167}, {"note": 0, "velocity": 0, "duration": 73}, {"note": 76, "velocity": 75, "duration": 172}, {"note": 0, "velocity": 0, "duration": 68}, {"note": 71, "velocity": 77, "duration": 170}, {"note": 0, "velocity": 0, "duration": 70}, {"note": 74, "velocity": 79, "duration": 68}, {"note": 74, "velocity": 74, "duration": 207}, {"note": 71, "velocity": 76, "duration": 517}, {"note": 0, "velocity": 0, "duration": 83}, {"note": 69, "velocity": 73, "duration": 190}, {"note": 64, "velocity": 77, "duration": 194}, {"note": 69, "velocity": 76, "duration": 184}, {"note": 64, "velocity": 77, "duration": 183}, {"note": 67, "velocity": 66, "duration": 79}, {"note": 67, "velocity": 69, "duration": 222}, {"note": 64, "velocity": 78, "duration": 288}, {"note": 0, "velocity": 0, "duration": 72}, {"note": 64, "velocity": 75, "duration": 62}, {"note": 66, "velocity": 70, "duration": 80}, {"note": 67, "velocity": 73, "duration": 144}, {"note": 67, "velocity": 74, "duration": 124}, {"note": 67, "velocity": 73, "duration": 82}, {"note": 67, "velocity": 73, "duration": 179}, {"note": 69, "velocity": 73, "duration": 70}, {"note": 71, "velocity": 74, "duration": 84}, {"note": 69, "velocity": 75, "duration": 240}, {"note": 0, "velocity": 0, "duration": 136}, {"note": 69, "velocity": 74, "duration": 76}, {"note": 69, "velocity": 75, "duration": 181}, {"note": 66, "velocity": 73, "duration": 205}, {"note": 62, "velocity": 69, "duration": 100}, {"note": 64, "velocity": 74, "duration": 840}, {"note": 0, "velocity": 0, "duration": 110}, {"note": 76, "velocity": 87, "duration": 157}, {"note": 76, "velocity": 89, "duration": 91}, {"note": 76, "velocity": 80, "duration": 95}, {"note": 0, "velocity": 0, "duration": 65}, {"note": 76, "velocity": 80, "duration": 111}, {"note": 76, "velocity": 74, "duration": 85}, {"note": 0, "velocity": 0, "duration": 61}, {"note": 76, "velocity": 77, "duration": 186}, {"note": 74, "velocity": 80, "duration": 76}, {"note": 74, "velocity": 82, "duration": 636}, {"note": 0, "velocity": 0, "duration": 91}, {"note": 78, "velocity": 82, "duration": 152}, {"note": 78, "velocity": 74, "duration": 94}, {"note": 0, "velocity": 0, "duration": 65}, {"note": 78, "velocity": 78, "duration": 138}, {"note": 78, "velocity": 77, "duration": 120}, {"note": 79, "velocity": 75, "duration": 87}, {"note": 78, "velocity": 76, "duration": 181}, {"note": 76, "velocity": 79, "duration": 79}, {"note": 0, "velocity": 0, "duration": 68}, {"note": 76, "velocity": 84, "duration": 621}, {"note": 0, "velocity": 0, "duration": 82}, {"note": 79, "velocity": 77, "duration": 158}, {"note": 79, "velocity": 74, "duration": 112}, {"note": 79, "velocity": 77, "duration": 161}, {"note": 79, "velocity": 77, "duration": 84}, {"note": 79, "velocity": 77, "duration": 328}, {"note": 78, "velocity": 79, "duration": 97}, {"note": 78, "velocity": 74, "duration": 530}, {"note": 0, "velocity": 0, "duration": 68}, {"note": 78, "velocity": 78, "duration": 196}, {"note": 76, "velocity": 76, "duration": 77}, {"note": 76, "velocity": 78, "duration": 489}, {"note": 0, "velocity": 0, "duration": 94}, {"note": 76, "velocity": 78, "duration": 188}, {"note": 78, "velocity": 73, "duration": 82}, {"note": 78, "velocity": 77, "duration": 1560}, {"note": 0, "velocity": 0, "duration": 7204}, {"note": 79, "velocity": 74, "duration": 171}, {"note": 0, "velocity": 0, "duration": 69}, {"note": 78, "velocity": 75, "duration": 156}, {"note": 0, "velocity": 0, "duration": 84}, {"note": 76, "velocity": 75, "duration": 183}, {"note": 71, "velocity": 74, "duration": 179}, {"note": 0, "velocity": 0, "duration": 61}, {"note": 76, "velocity": 79, "duration": 179}, {"note": 0, "velocity": 0, "duration": 61}, {"note": 71, "velocity": 77, "duration": 179}, {"note": 0, "velocity": 0, "duration": 61}, {"note": 74, "velocity": 80, "duration": 75}, {"note": 74, "velocity": 76, "duration": 189}, {"note": 71, "velocity": 75, "duration": 493}, {"note": 0, "velocity": 0, "duration": 107}, {"note": 69, "velocity": 77, "duration": 199}, {"note": 64, "velocity": 77, "duration": 191}, {"note": 69, "velocity": 73, "duration": 207}, {"note": 64, "velocity": 74, "duration": 65}, {"note": 64, "velocity": 75, "duration": 88}, {"note": 67, "velocity": 69, "duration": 73}, {"note": 67, "velocity": 71, "duration": 239}, {"note": 64, "velocity": 77, "duration": 358}, {"note": 64, "velocity": 80, "duration": 68}, {"note": 66, "velocity": 73, "duration": 87}, {"note": 67, "velocity": 74, "duration": 68}, {"note": 67, "velocity": 73, "duration": 175}, {"note": 0, "velocity": 0, "duration": 65}, {"note": 67, "velocity": 71, "duration": 65}, {"note": 67, "velocity": 73, "duration": 188}, {"note": 69, "velocity": 77, "duration": 120}, {"note": 71, "velocity": 74, "duration": 120}, {"note": 69, "velocity": 79, "duration": 278}, {"note": 69, "velocity": 75, "duration": 84}, {"note": 69, "velocity": 75, "duration": 212}, {"note": 66, "velocity": 75, "duration": 236}, {"note": 62, "velocity": 75, "duration": 394}, {"note": 64, "velocity": 82, "duration": 916}, {"note": 0, "velocity": 0, "duration": 165}, {"note": 79, "velocity": 74, "duration": 170}, {"note": 0, "velocity": 0, "duration": 70}, {"note": 78, "velocity": 74, "duration": 175}, {"note": 0, "velocity": 0, "duration": 65}, {"note": 76, "velocity": 75, "duration": 167}, {"note": 0, "velocity": 0, "duration": 73}, {"note": 71, "velocity": 77, "duration": 167}, {"note": 0, "velocity": 0, "duration": 73}, {"note": 76, "velocity": 75, "duration": 172}, {"note": 0, "velocity": 0, "duration": 68}, {"note": 71, "velocity": 77, "duration": 170}, {"note": 0, "velocity": 0, "duration": 70}, {"note": 74, "velocity": 79, "duration": 68}, {"note": 74, "velocity": 74, "duration": 207}, {"note": 71, "velocity": 76, "duration": 517}, {"note": 0, "velocity": 0, "duration": 83}, {"note": 69, "velocity": 73, "duration": 190}, {"note": 64, "velocity": 77, "duration": 194}, {"note": 69, "velocity": 76, "duration": 184}, {"note": 64, "velocity": 77, "duration": 183}, {"note": 67, "velocity": 66, "duration": 79}, {"note": 67, "velocity": 69, "duration": 222}, {"note": 64, "velocity": 78, "duration": 288}, {"note": 0, "velocity": 0, "duration": 72}, {"note": 64, "velocity": 75, "duration": 62}, {"note": 66, "velocity": 70, "duration": 80}, {"note": 67, "velocity": 73, "duration": 144}, {"note": 67, "velocity": 74, "duration": 124}, {"note": 67, "velocity": 73, "duration": 82}, {"note": 67, "velocity": 73, "duration": 179}, {"note": 0, "velocity": 0, "duration": 76}, {"note": 64, "velocity": 80, "duration": 114}, {"note": 76, "velocity": 84, "duration": 312}, {"note": 74, "velocity": 84, "duration": 182}, {"note": 0, "velocity": 0, "duration": 68}, {"note": 67, "velocity": 84, "duration": 216}, {"note": 0, "velocity": 0, "duration": 137}, {"note": 69, "velocity": 74, "duration": 99}, {"note": 71, "velocity": 77, "duration": 1363}, {"note": 0, "velocity": 0, "duration": 83}, {"note": 79, "velocity": 74, "duration": 171}, {"note": 0, "velocity": 0, "duration": 69}, {"note": 78, "velocity": 75, "duration": 156}, {"note": 0, "velocity": 0, "duration": 84}, {"note": 76, "velocity": 75, "duration": 183}, {"note": 71, "velocity": 74, "duration": 179}, {"note": 0, "velocity": 0, "duration": 61}, {"note": 76, "velocity": 79, "duration": 179}, {"note": 0, "velocity": 0, "duration": 61}, {"note": 71, "velocity": 77, "duration": 179}, {"note": 0, "velocity": 0, "duration": 61}, {"note": 74, "velocity": 80, "duration": 75}, {"note": 74, "velocity": 76, "duration": 189}, {"note": 71, "velocity": 75, "duration": 493}, {"note": 0, "velocity": 0, "duration": 107}, {"note": 69, "velocity": 77, "duration": 199}, {"note": 64, "velocity": 77, "duration": 191}, {"note": 69, "velocity": 73, "duration": 207}, {"note": 64, "velocity": 74, "duration": 65}, {"note": 64, "velocity": 75, "duration": 88}, {"note": 67, "velocity": 69, "duration": 73}, {"note": 67, "velocity": 71, "duration": 239}, {"note": 64, "velocity": 77, "duration": 358}, {"note": 64, "velocity": 80, "duration": 68}, {"note": 66, "velocity": 73, "duration": 87}, {"note": 67, "velocity": 74, "duration": 68}, {"note": 67, "velocity": 73, "duration": 175}, {"note": 0, "velocity": 0, "duration": 65}, {"note": 67, "velocity": 71, "duration": 65}, {"note": 67, "velocity": 73, "duration": 188}, {"note": 69, "velocity": 77, "duration": 120}, {"note": 71, "velocity": 74, "duration": 120}, {"note": 69, "velocity": 79, "duration": 278}, {"note": 69, "velocity": 75, "duration": 84}, {"note": 69, "velocity": 75, "duration": 212}, {"note": 66, "velocity": 75, "duration": 236}, {"note": 62, "velocity": 75, "duration": 394}, {"note": 64, "velocity": 82, "duration": 916}]]