[[{"note": 70, "velocity": 83, "duration": 366}, {"note": 0, "velocity": 0, "duration": 114}, {"note": 70, "velocity": 83, "duration": 254}, {"note": 77, "velocity": 70, "duration": 199}, {"note": 77, "velocity": 83, "duration": 386}, {"note": 0, "velocity": 0, "duration": 94}, {"note": 75, "velocity": 85, "duration": 256}, {"note": 73, "velocity": 70, "duration": 251}, {"note": 75, "velocity": 85, "duration": 177}, {"note": 0, "velocity": 0, "duration": 63}, {"note": 77, "velocity": 83, "duration": 480}, {"note": 75, "velocity": 78, "duration": 921}, {"note": 0, "velocity": 0, "duration": 279}, {"note": 72, "velocity": 82, "duration": 347}, {"note": 0, "velocity": 0, "duration": 133}, {"note": 72, "velocity": 82, "duration": 208}, {"note": 75, "velocity": 86, "duration": 193}, {"note": 77, "velocity": 82, "duration": 384}, {"note": 0, "velocity": 0, "duration": 96}, {"note": 75, "velocity": 82, "duration": 187}, {"note": 68, "velocity": 65, "duration": 222}, {"note": 70, "velocity": 82, "duration": 1295}, {"note": 0, "velocity": 0, "duration": 625}, {"note": 70, "velocity": 83, "duration": 366}, {"note": 0, "velocity": 0, "duration": 114}, {"note": 70, "velocity": 83, "duration": 254}, {"note": 77, "velocity": 70, "duration": 199}, {"note": 77, "velocity": 83, "duration": 386}, {"note": 0, "velocity": 0, "duration": 94}, {"note": 75, "velocity": 85, "duration": 256}, {"note": 73, "velocity": 70, "duration": 251}, {"note": 75, "velocity": 85, "duration": 515}, {"note": 77, "velocity": 83, "duration": 295}, {"note": 75, "velocity": 78, "duration": 921}, {"note": 68, "velocity": 74, "duration": 220}, {"note": 75, "velocity": 84, "duration": 267}, {"note": 0, "velocity": 0, "duration": 213}, {"note": 75, "velocity": 88, "duration": 472}, {"note": 77, "velocity": 82, "duration": 245}, {"note": 78, "velocity": 81, "duration": 255}, {"note": 77, "velocity": 82, "duration": 258}, {"note": 75, "velocity": 83, "duration": 257}, {"note": 77, "velocity": 80, "duration": 1583}, {"note": 0, "velocity": 0, "duration": 337}, {"note": 77, "velocity": 88, "duration": 465}, {"note": 82, "velocity": 73, "duration": 330}, {"note": 0, "velocity": 0, "duration": 150}, {"note": 82, "velocity": 82, "duration": 460}, {"note": 75, "velocity": 88, "duration": 489}, {"note": 77, "velocity": 78, "duration": 263}, {"note": 75, "velocity": 83, "duration": 243}, {"note": 73, "velocity": 81, "duration": 945}, {"note": 73, "velocity": 77, "duration": 207}, {"note": 75, "velocity": 84, "duration": 175}, {"note": 0, "velocity": 0, "duration": 65}, {"note": 77, "velocity": 78, "duration": 464}, {"note": 82, "velocity": 77, "duration": 171}, {"note": 0, "velocity": 0, "duration": 69}, {"note": 82, "velocity": 81, "duration": 176}, {"note": 0, "velocity": 0, "duration": 64}, {"note": 75, "velocity": 84, "duration": 388}, {"note": 0, "velocity": 0, "duration": 92}, {"note": 77, "velocity": 78, "duration": 197}, {"note": 75, "velocity": 83, "duration": 245}, {"note": 73, "velocity": 78, "duration": 1192}, {"note": 0, "velocity": 0, "duration": 248}, {"note": 68, "velocity": 82, "duration": 163}, {"note": 0, "velocity": 0, "duration": 77}, {"note": 70, "velocity": 77, "duration": 164}, {"note": 0, "velocity": 0, "duration": 76}, {"note": 72, "velocity": 78, "duration": 602}, {"note": 0, "velocity": 0, "duration": 118}, {"note": 72, "velocity": 80, "duration": 211}, {"note": 75, "velocity": 84, "duration": 396}, {"note": 0, "velocity": 0, "duration": 84}, {"note": 77, "velocity": 82, "duration": 511}, {"note": 75, "velocity": 81, "duration": 977}, {"note": 0, "velocity": 0, "duration": 943}, {"note": 72, "velocity": 82, "duration": 341}, {"note": 0, "velocity": 0, "duration": 139}, {"note": 72, "velocity": 88, "duration": 406}, {"note": 0, "velocity": 0, "duration": 62}, {"note": 73, "velocity": 84, "duration": 253}, {"note": 0, "velocity": 0, "duration": 93}, {"note": 73, "velocity": 85, "duration": 266}, {"note": 0, "velocity": 0, "duration": 103}, {"note": 72, "velocity": 88, "duration": 344}, {"note": 0, "velocity": 0, "duration": 153}, {"note": 70, "velocity": 83, "duration": 1412}, {"note": 0, "velocity": 0, "duration": 268}, {"note": 70, "velocity": 83, "duration": 366}, {"note": 0, "velocity": 0, "duration": 114}, {"note": 70, "velocity": 83, "duration": 254}, {"note": 77, "velocity": 70, "duration": 199}, {"note": 77, "velocity": 83, "duration": 386}, {"note": 0, "velocity": 0, "duration": 94}, {"note": 75, "velocity": 85, "duration": 256}, {"note": 73, "velocity": 70, "duration": 251}, {"note": 75, "velocity": 85, "duration": 177}, {"note": 0, "velocity": 0, "duration": 63}, {"note": 77, "velocity": 83, "duration": 480}, {"note": 75, "velocity": 78, "duration": 921}, {"note": 0, "velocity": 0, "duration": 279}, {"note": 72, "velocity": 82, "duration": 720}, {"note": 0, "velocity": 0, "duration": 240}, {"note": 72, "velocity": 82, "duration": 480}, {"note": 68, "velocity": 65, "duration": 462}, {"note": 70, "velocity": 82, "duration": 1295}, {"note": 0, "velocity": 0, "duration": 625}, {"note": 70, "velocity": 83, "duration": 366}, {"note": 0, "velocity": 0, "duration": 114}, {"note": 70, "velocity": 83, "duration": 254}, {"note": 77, "velocity": 70, "duration": 199}, {"note": 77, "velocity": 83, "duration": 386}, {"note": 0, "velocity": 0, "duration": 94}, {"note": 75, "velocity": 85, "duration": 256}, {"note": 73, "velocity": 70, "duration": 251}, {"note": 75, "velocity": 85, "duration": 515}, {"note": 77, "velocity": 83, "duration": 295}, {"note": 75, "velocity": 78, "duration": 921}, {"note": 0, "velocity": 0, "duration": 279}, {"note": 75, "velocity": 84, "duration": 267}, {"note": 0, "velocity": 0, "duration": 213}, {"note": 75, "velocity": 88, "duration": 472}, {"note": 77, "velocity": 82, "duration": 245}, {"note": 78, "velocity": 81, "duration": 255}, {"note": 77, "velocity": 82, "duration": 258}, {"note": 75, "velocity": 83, "duration": 257}, {"note": 77, "velocity": 80, "duration": 1583}, {"note": 0, "velocity": 0, "duration": 337}, {"note": 77, "velocity": 88, "duration": 465}, {"note": 82, "velocity": 73, "duration": 330}, {"note": 0, "velocity": 0, "duration": 150}, {"note": 82, "velocity": 82, "duration": 460}, {"note": 75, "velocity": 88, "duration": 489}, {"note": 77, "velocity": 78, "duration": 263}, {"note": 75, "velocity": 83, "duration": 243}, {"note": 73, "velocity": 81, "duration": 945}, {"note": 73, "velocity": 77, "duration": 207}, {"note": 75, "velocity": 84, "duration": 175}, {"note": 0, "velocity": 0, "duration": 65}, {"note": 77, "velocity": 78, "duration": 464}, {"note": 82, "velocity": 77, "duration": 480}, {"note": 75, "velocity": 84, "duration": 388}, {"note": 0, "velocity": 0, "duration": 92}, {"note": 77, "velocity": 78, "duration": 197}, {"note": 75, "velocity": 83, "duration": 245}, {"note": 73, "velocity": 78, "duration": 1192}, {"note": 0, "velocity": 0, "duration": 248}, {"note": 68, "velocity": 82, "duration": 163}, {"note": 0, "velocity": 0, "duration": 77}, {"note": 70, "velocity": 77, "duration": 164}, {"note": 0, "velocity": 0, "duration": 76}, {"note": 72, "velocity": 78, "duration": 602}, {"note": 0, "velocity": 0, "duration": 118}, {"note": 72, "velocity": 80, "duration": 211}, {"note": 75, "velocity": 84, "duration": 396}, {"note": 0, "velocity": 0, "duration": 84}, {"note": 77, "velocity": 82, "duration": 511}, {"note": 75, "velocity": 81, "duration": 977}, {"note": 0, "velocity": 0, "duration": 943}, {"note": 72, "velocity": 82, "duration": 341}, {"note": 0, "velocity": 0, "duration": 139}, {"note": 72, "velocity": 88, "duration": 406}, {"note": 0, "velocity": 0, "duration": 62}, {"note": 73, "velocity": 84, "duration": 253}, {"note": 72, "velocity": 85, "duration": 480}, {"note": 0, "velocity": 0, "duration": 240}, {"note": 70, "velocity": 83, "duration": 1440}, {"note": 0, "velocity": 0, "duration": 2400}, {"note": 77, "velocity": 93, "duration": 849}, {"note": 0, "velocity": 0, "duration": 111}, {"note": 82, "velocity": 82, "duration": 525}, {"note": 84, "velocity": 85, "duration": 461}, {"note": 82, "velocity": 82, "duration": 1586}, {"note": 0, "velocity": 0, "duration": 334}, {"note": 80, "velocity": 82, "duration": 303}, {"note": 0, "velocity": 0, "duration": 177}, {"note": 80, "velocity": 83, "duration": 175}, {"note": 0, "velocity": 0, "duration": 65}, {"note": 82, "velocity": 83, "duration": 189}, {"note": 84, "velocity": 80, "duration": 437}, {"note": 80, "velocity": 82, "duration": 505}, {"note": 82, "velocity": 79, "duration": 1687}, {"note": 0, "velocity": 0, "duration": 233}, {"note": 82, "velocity": 84, "duration": 617}, {"note": 0, "velocity": 0, "duration": 103}, {"note": 82, "velocity": 82, "duration": 122}, {"note": 0, "velocity": 0, "duration": 118}, {"note": 82, "velocity": 82, "duration": 465}, {"note": 84, "velocity": 82, "duration": 427}, {"note": 82, "velocity": 82, "duration": 363}, {"note": 0, "velocity": 0, "duration": 117}, {"note": 84, "velocity": 73, "duration": 185}, {"note": 82, "velocity": 80, "duration": 161}, {"note": 0, "velocity": 0, "duration": 79}, {"note": 80, "velocity": 81, "duration": 509}, {"note": 77, "velocity": 83, "duration": 381}, {"note": 0, "velocity": 0, "duration": 99}, {"note": 75, "velocity": 85, "duration": 478}, {"note": 70, "velocity": 83, "duration": 338}, {"note": 0, "velocity": 0, "duration": 142}, {"note": 80, "velocity": 84, "duration": 161}, {"note": 0, "velocity": 0, "duration": 79}, {"note": 82, "velocity": 82, "duration": 620}, {"note": 0, "velocity": 0, "duration": 100}, {"note": 77, "velocity": 83, "duration": 1541}, {"note": 0, "velocity": 0, "duration": 379}, {"note": 75, "velocity": 82, "duration": 331}, {"note": 0, "velocity": 0, "duration": 149}, {"note": 75, "velocity": 88, "duration": 359}, {"note": 0, "velocity": 0, "duration": 121}, {"note": 75, "velocity": 88, "duration": 367}, {"note": 0, "velocity": 0, "duration": 113}, {"note": 77, "velocity": 84, "duration": 403}, {"note": 0, "velocity": 0, "duration": 77}, {"note": 82, "velocity": 81, "duration": 339}, {"note": 0, "velocity": 0, "duration": 141}, {"note": 82, "velocity": 81, "duration": 376}, {"note": 0, "velocity": 0, "duration": 104}, {"note": 82, "velocity": 82, "duration": 721}, {"note": 0, "velocity": 0, "duration": 239}, {"note": 77, "velocity": 81, "duration": 438}, {"note": 80, "velocity": 81, "duration": 430}, {"note": 77, "velocity": 82, "duration": 348}, {"note": 0, "velocity": 0, "duration": 132}, {"note": 70, "velocity": 84, "duration": 388}, {"note": 0, "velocity": 0, "duration": 92}, {"note": 77, "velocity": 82, "duration": 718}, {"note": 75, "velocity": 82, "duration": 258}, {"note": 73, "velocity": 75, "duration": 735}, {"note": 0, "velocity": 0, "duration": 225}, {"note": 72, "velocity": 80, "duration": 473}, {"note": 72, "velocity": 83, "duration": 157}, {"note": 0, "velocity": 0, "duration": 83}, {"note": 72, "velocity": 82, "duration": 199}, {"note": 75, "velocity": 86, "duration": 353}, {"note": 0, "velocity": 0, "duration": 127}, {"note": 77, "velocity": 82, "duration": 385}, {"note": 0, "velocity": 0, "duration": 95}, {"note": 75, "velocity": 83, "duration": 374}, {"note": 0, "velocity": 0, "duration": 106}, {"note": 77, "velocity": 80, "duration": 363}, {"note": 0, "velocity": 0, "duration": 117}, {"note": 73, "velocity": 83, "duration": 707}, {"note": 0, "velocity": 0, "duration": 253}, {"note": 72, "velocity": 85, "duration": 349}, {"note": 0, "velocity": 0, "duration": 131}, {"note": 72, "velocity": 86, "duration": 239}, {"note": 75, "velocity": 86, "duration": 158}, {"note": 0, "velocity": 0, "duration": 82}, {"note": 75, "velocity": 84, "duration": 258}, {"note": 75, "velocity": 86, "duration": 252}, {"note": 0, "velocity": 0, "duration": 105}, {"note": 77, "velocity": 83, "duration": 224}, {"note": 0, "velocity": 0, "duration": 65}, {"note": 70, "velocity": 87, "duration": 1920}, {"note": 77, "velocity": 93, "duration": 849}, {"note": 0, "velocity": 0, "duration": 111}, {"note": 82, "velocity": 82, "duration": 525}, {"note": 84, "velocity": 85, "duration": 461}, {"note": 82, "velocity": 82, "duration": 1586}, {"note": 0, "velocity": 0, "duration": 334}, {"note": 80, "velocity": 82, "duration": 303}, {"note": 0, "velocity": 0, "duration": 177}, {"note": 80, "velocity": 83, "duration": 175}, {"note": 0, "velocity": 0, "duration": 65}, {"note": 82, "velocity": 83, "duration": 189}, {"note": 84, "velocity": 80, "duration": 437}, {"note": 80, "velocity": 82, "duration": 505}, {"note": 82, "velocity": 79, "duration": 1687}, {"note": 0, "velocity": 0, "duration": 233}, {"note": 82, "velocity": 84, "duration": 617}, {"note": 0, "velocity": 0, "duration": 103}, {"note": 82, "velocity": 82, "duration": 122}, {"note": 0, "velocity": 0, "duration": 118}, {"note": 82, "velocity": 82, "duration": 465}, {"note": 84, "velocity": 82, "duration": 427}, {"note": 82, "velocity": 82, "duration": 363}, {"note": 0, "velocity": 0, "duration": 117}, {"note": 84, "velocity": 73, "duration": 185}, {"note": 82, "velocity": 80, "duration": 161}, {"note": 0, "velocity": 0, "duration": 79}, {"note": 80, "velocity": 81, "duration": 509}, {"note": 77, "velocity": 83, "duration": 240}, {"note": 77, "velocity": 83, "duration": 240}, {"note": 75, "velocity": 85, "duration": 478}, {"note": 70, "velocity": 83, "duration": 338}, {"note": 0, "velocity": 0, "duration": 622}, {"note": 80, "velocity": 84, "duration": 161}, {"note": 0, "velocity": 0, "duration": 79}, {"note": 79, "velocity": 82, "duration": 240}, {"note": 77, "velocity": 83, "duration": 1541}, {"note": 0, "velocity": 0, "duration": 379}, {"note": 75, "velocity": 82, "duration": 331}, {"note": 0, "velocity": 0, "duration": 149}, {"note": 75, "velocity": 88, "duration": 359}, {"note": 0, "velocity": 0, "duration": 121}, {"note": 75, "velocity": 88, "duration": 367}, {"note": 0, "velocity": 0, "duration": 113}, {"note": 77, "velocity": 84, "duration": 403}, {"note": 0, "velocity": 0, "duration": 77}, {"note": 82, "velocity": 81, "duration": 339}, {"note": 0, "velocity": 0, "duration": 141}, {"note": 82, "velocity": 81, "duration": 376}, {"note": 0, "velocity": 0, "duration": 104}, {"note": 82, "velocity": 82, "duration": 721}, {"note": 0, "velocity": 0, "duration": 239}, {"note": 77, "velocity": 81, "duration": 438}, {"note": 80, "velocity": 81, "duration": 430}, {"note": 77, "velocity": 82, "duration": 348}, {"note": 0, "velocity": 0, "duration": 132}, {"note": 70, "velocity": 84, "duration": 388}, {"note": 0, "velocity": 0, "duration": 92}, {"note": 77, "velocity": 82, "duration": 718}, {"note": 75, "velocity": 82, "duration": 258}, {"note": 73, "velocity": 75, "duration": 735}, {"note": 0, "velocity": 0, "duration": 225}, {"note": 72, "velocity": 80, "duration": 473}, {"note": 72, "velocity": 83, "duration": 157}, {"note": 0, "velocity": 0, "duration": 83}, {"note": 72, "velocity": 82, "duration": 199}, {"note": 75, "velocity": 86, "duration": 353}, {"note": 0, "velocity": 0, "duration": 127}, {"note": 77, "velocity": 82, "duration": 385}, {"note": 0, "velocity": 0, "duration": 95}, {"note": 75, "velocity": 83, "duration": 374}, {"note": 0, "velocity": 0, "duration": 106}, {"note": 77, "velocity": 80, "duration": 363}, {"note": 0, "velocity": 0, "duration": 117}, {"note": 73, "velocity": 83, "duration": 707}, {"note": 0, "velocity": 0, "duration": 253}, {"note": 72, "velocity": 85, "duration": 349}, {"note": 0, "velocity": 0, "duration": 131}, {"note": 72, "velocity": 86, "duration": 239}, {"note": 75, "velocity": 86, "duration": 240}, {"note": 75, "velocity": 84, "duration": 480}, {"note": 68, "velocity": 83, "duration": 480}, {"note": 70, "velocity": 87, "duration": 1920}, {"note": 0, "velocity": 0, "duration": 30720}, {"note": 70, "velocity": 83, "duration": 366}, {"note": 0, "velocity": 0, "duration": 114}, {"note": 70, "velocity": 83, "duration": 254}, {"note": 77, "velocity": 70, "duration": 199}, {"note": 77, "velocity": 83, "duration": 386}, {"note": 0, "velocity": 0, "duration": 94}, {"note": 75, "velocity": 85, "duration": 256}, {"note": 73, "velocity": 70, "duration": 251}, {"note": 75, "velocity": 85, "duration": 177}, {"note": 0, "velocity": 0, "duration": 63}, {"note": 77, "velocity": 83, "duration": 480}, {"note": 75, "velocity": 78, "duration": 921}, {"note": 0, "velocity": 0, "duration": 279}, {"note": 72, "velocity": 82, "duration": 480}, {"note": 75, "velocity": 83, "duration": 240}, {"note": 0, "velocity": 0, "duration": 240}, {"note": 75, "velocity": 82, "duration": 480}, {"note": 68, "velocity": 65, "duration": 462}, {"note": 70, "velocity": 82, "duration": 1295}, {"note": 0, "velocity": 0, "duration": 625}, {"note": 70, "velocity": 83, "duration": 366}, {"note": 0, "velocity": 0, "duration": 114}, {"note": 70, "velocity": 83, "duration": 254}, {"note": 77, "velocity": 70, "duration": 199}, {"note": 77, "velocity": 83, "duration": 386}, {"note": 0, "velocity": 0, "duration": 94}, {"note": 75, "velocity": 85, "duration": 256}, {"note": 73, "velocity": 70, "duration": 251}, {"note": 75, "velocity": 85, "duration": 515}, {"note": 77, "velocity": 83, "duration": 295}, {"note": 75, "velocity": 78, "duration": 921}, {"note": 0, "velocity": 0, "duration": 279}, {"note": 75, "velocity": 84, "duration": 267}, {"note": 0, "velocity": 0, "duration": 213}, {"note": 75, "velocity": 88, "duration": 472}, {"note": 77, "velocity": 82, "duration": 245}, {"note": 78, "velocity": 81, "duration": 255}, {"note": 77, "velocity": 82, "duration": 258}, {"note": 75, "velocity": 83, "duration": 257}, {"note": 77, "velocity": 80, "duration": 1583}, {"note": 0, "velocity": 0, "duration": 337}, {"note": 77, "velocity": 88, "duration": 465}, {"note": 82, "velocity": 73, "duration": 330}, {"note": 0, "velocity": 0, "duration": 150}, {"note": 82, "velocity": 82, "duration": 460}, {"note": 75, "velocity": 88, "duration": 489}, {"note": 77, "velocity": 78, "duration": 263}, {"note": 75, "velocity": 83, "duration": 243}, {"note": 73, "velocity": 81, "duration": 945}, {"note": 0, "velocity": 0, "duration": 255}, {"note": 75, "velocity": 84, "duration": 175}, {"note": 0, "velocity": 0, "duration": 65}, {"note": 77, "velocity": 78, "duration": 464}, {"note": 82, "velocity": 77, "duration": 480}, {"note": 82, "velocity": 84, "duration": 388}, {"note": 0, "velocity": 0, "duration": 92}, {"note": 75, "velocity": 78, "duration": 197}, {"note": 0, "velocity": 0, "duration": 283}, {"note": 77, "velocity": 83, "duration": 240}, {"note": 75, "velocity": 83, "duration": 240}, {"note": 73, "velocity": 78, "duration": 960}, {"note": 68, "velocity": 82, "duration": 163}, {"note": 0, "velocity": 0, "duration": 77}, {"note": 70, "velocity": 77, "duration": 164}, {"note": 0, "velocity": 0, "duration": 76}, {"note": 72, "velocity": 78, "duration": 602}, {"note": 0, "velocity": 0, "duration": 118}, {"note": 72, "velocity": 80, "duration": 211}, {"note": 75, "velocity": 84, "duration": 396}, {"note": 0, "velocity": 0, "duration": 84}, {"note": 77, "velocity": 82, "duration": 511}, {"note": 75, "velocity": 81, "duration": 977}, {"note": 0, "velocity": 0, "duration": 943}, {"note": 72, "velocity": 82, "duration": 341}, {"note": 0, "velocity": 0, "duration": 139}, {"note": 72, "velocity": 88, "duration": 406}, {"note": 0, "velocity": 0, "duration": 62}, {"note": 73, "velocity": 84, "duration": 253}, {"note": 0, "velocity": 0, "duration": 239}, {"note": 73, "velocity": 85, "duration": 240}, {"note": 72, "velocity": 85, "duration": 240}, {"note": 70, "velocity": 83, "duration": 1440}, {"note": 0, "velocity": 0, "duration": 2400}, {"note": 77, "velocity": 93, "duration": 849}, {"note": 0, "velocity": 0, "duration": 111}, {"note": 82, "velocity": 82, "duration": 525}, {"note": 84, "velocity": 85, "duration": 461}, {"note": 82, "velocity": 82, "duration": 1586}, {"note": 0, "velocity": 0, "duration": 334}, {"note": 80, "velocity": 82, "duration": 303}, {"note": 0, "velocity": 0, "duration": 177}, {"note": 80, "velocity": 83, "duration": 175}, {"note": 0, "velocity": 0, "duration": 65}, {"note": 82, "velocity": 83, "duration": 189}, {"note": 84, "velocity": 80, "duration": 437}, {"note": 80, "velocity": 82, "duration": 505}, {"note": 82, "velocity": 79, "duration": 1687}, {"note": 0, "velocity": 0, "duration": 233}, {"note": 82, "velocity": 84, "duration": 617}, {"note": 0, "velocity": 0, "duration": 103}, {"note": 82, "velocity": 82, "duration": 122}, {"note": 0, "velocity": 0, "duration": 118}, {"note": 82, "velocity": 82, "duration": 465}, {"note": 84, "velocity": 82, "duration": 427}, {"note": 82, "velocity": 82, "duration": 363}, {"note": 0, "velocity": 0, "duration": 117}, {"note": 84, "velocity": 73, "duration": 185}, {"note": 82, "velocity": 80, "duration": 161}, {"note": 0, "velocity": 0, "duration": 79}, {"note": 80, "velocity": 81, "duration": 509}, {"note": 77, "velocity": 83, "duration": 381}, {"note": 0, "velocity": 0, "duration": 99}, {"note": 75, "velocity": 85, "duration": 478}, {"note": 70, "velocity": 83, "duration": 338}, {"note": 0, "velocity": 0, "duration": 142}, {"note": 80, "velocity": 84, "duration": 161}, {"note": 0, "velocity": 0, "duration": 79}, {"note": 82, "velocity": 82, "duration": 620}, {"note": 0, "velocity": 0, "duration": 100}, {"note": 77, "velocity": 83, "duration": 1541}, {"note": 0, "velocity": 0, "duration": 379}, {"note": 75, "velocity": 82, "duration": 331}, {"note": 0, "velocity": 0, "duration": 149}, {"note": 75, "velocity": 88, "duration": 359}, {"note": 0, "velocity": 0, "duration": 121}, {"note": 75, "velocity": 88, "duration": 367}, {"note": 0, "velocity": 0, "duration": 113}, {"note": 77, "velocity": 84, "duration": 403}, {"note": 0, "velocity": 0, "duration": 77}, {"note": 82, "velocity": 81, "duration": 339}, {"note": 0, "velocity": 0, "duration": 141}, {"note": 82, "velocity": 81, "duration": 376}, {"note": 0, "velocity": 0, "duration": 104}, {"note": 82, "velocity": 82, "duration": 721}, {"note": 0, "velocity": 0, "duration": 239}, {"note": 77, "velocity": 81, "duration": 438}, {"note": 80, "velocity": 81, "duration": 430}, {"note": 77, "velocity": 82, "duration": 348}, {"note": 0, "velocity": 0, "duration": 132}, {"note": 70, "velocity": 84, "duration": 388}, {"note": 0, "velocity": 0, "duration": 92}, {"note": 77, "velocity": 82, "duration": 718}, {"note": 75, "velocity": 82, "duration": 258}, {"note": 73, "velocity": 75, "duration": 735}, {"note": 0, "velocity": 0, "duration": 225}, {"note": 72, "velocity": 80, "duration": 473}, {"note": 72, "velocity": 83, "duration": 157}, {"note": 0, "velocity": 0, "duration": 83}, {"note": 72, "velocity": 82, "duration": 199}, {"note": 75, "velocity": 86, "duration": 353}, {"note": 0, "velocity": 0, "duration": 127}, {"note": 77, "velocity": 82, "duration": 385}, {"note": 0, "velocity": 0, "duration": 95}, {"note": 75, "velocity": 83, "duration": 374}, {"note": 0, "velocity": 0, "duration": 106}, {"note": 77, "velocity": 80, "duration": 363}, {"note": 0, "velocity": 0, "duration": 117}, {"note": 73, "velocity": 83, "duration": 707}, {"note": 0, "velocity": 0, "duration": 253}, {"note": 72, "velocity": 85, "duration": 349}, {"note": 0, "velocity": 0, "duration": 131}, {"note": 72, "velocity": 86, "duration": 239}, {"note": 75, "velocity": 86, "duration": 158}, {"note": 0, "velocity": 0, "duration": 82}, {"note": 75, "velocity": 84, "duration": 258}, {"note": 75, "velocity": 86, "duration": 252}, {"note": 0, "velocity": 0, "duration": 105}, {"note": 77, "velocity": 83, "duration": 224}, {"note": 0, "velocity": 0, "duration": 65}, {"note": 70, "velocity": 87, "duration": 1920}, {"note": 77, "velocity": 93, "duration": 849}, {"note": 0, "velocity": 0, "duration": 111}, {"note": 82, "velocity": 82, "duration": 525}, {"note": 84, "velocity": 85, "duration": 461}, {"note": 82, "velocity": 82, "duration": 1586}, {"note": 0, "velocity": 0, "duration": 334}, {"note": 80, "velocity": 82, "duration": 303}, {"note": 0, "velocity": 0, "duration": 177}, {"note": 80, "velocity": 83, "duration": 175}, {"note": 0, "velocity": 0, "duration": 65}, {"note": 82, "velocity": 83, "duration": 189}, {"note": 84, "velocity": 80, "duration": 437}, {"note": 80, "velocity": 82, "duration": 505}, {"note": 82, "velocity": 79, "duration": 1687}, {"note": 0, "velocity": 0, "duration": 233}, {"note": 82, "velocity": 84, "duration": 617}, {"note": 0, "velocity": 0, "duration": 103}, {"note": 82, "velocity": 82, "duration": 122}, {"note": 0, "velocity": 0, "duration": 118}, {"note": 82, "velocity": 82, "duration": 465}, {"note": 84, "velocity": 82, "duration": 427}, {"note": 82, "velocity": 82, "duration": 363}, {"note": 0, "velocity": 0, "duration": 117}, {"note": 84, "velocity": 73, "duration": 185}, {"note": 82, "velocity": 80, "duration": 161}, {"note": 0, "velocity": 0, "duration": 79}, {"note": 80, "velocity": 81, "duration": 509}, {"note": 77, "velocity": 83, "duration": 240}, {"note": 77, "velocity": 83, "duration": 240}, {"note": 75, "velocity": 85, "duration": 478}, {"note": 70, "velocity": 83, "duration": 338}, {"note": 0, "velocity": 0, "duration": 622}, {"note": 80, "velocity": 84, "duration": 161}, {"note": 0, "velocity": 0, "duration": 79}, {"note": 79, "velocity": 82, "duration": 240}, {"note": 77, "velocity": 83, "duration": 1541}, {"note": 0, "velocity": 0, "duration": 379}, {"note": 75, "velocity": 82, "duration": 331}, {"note": 0, "velocity": 0, "duration": 149}, {"note": 75, "velocity": 88, "duration": 359}, {"note": 0, "velocity": 0, "duration": 121}, {"note": 75, "velocity": 88, "duration": 367}, {"note": 0, "velocity": 0, "duration": 113}, {"note": 77, "velocity": 84, "duration": 403}, {"note": 0, "velocity": 0, "duration": 77}, {"note": 82, "velocity": 81, "duration": 339}, {"note": 0, "velocity": 0, "duration": 141}, {"note": 82, "velocity": 81, "duration": 376}, {"note": 0, "velocity": 0, "duration": 104}, {"note": 82, "velocity": 82, "duration": 721}, {"note": 0, "velocity": 0, "duration": 239}, {"note": 77, "velocity": 81, "duration": 438}, {"note": 80, "velocity": 81, "duration": 430}, {"note": 77, "velocity": 82, "duration": 348}, {"note": 0, "velocity": 0, "duration": 132}, {"note": 70, "velocity": 84, "duration": 388}, {"note": 0, "velocity": 0, "duration": 92}, {"note": 77, "velocity": 82, "duration": 718}, {"note": 75, "velocity": 82, "duration": 258}, {"note": 73, "velocity": 75, "duration": 735}, {"note": 0, "velocity": 0, "duration": 225}, {"note": 72, "velocity": 80, "duration": 473}, {"note": 72, "velocity": 83, "duration": 157}, {"note": 0, "velocity": 0, "duration": 83}, {"note": 72, "velocity": 82, "duration": 199}, {"note": 75, "velocity": 86, "duration": 353}, {"note": 0, "velocity": 0, "duration": 127}, {"note": 77, "velocity": 82, "duration": 385}, {"note": 0, "velocity": 0, "duration": 95}, {"note": 75, "velocity": 83, "duration": 374}, {"note": 0, "velocity": 0, "duration": 106}, {"note": 77, "velocity": 80, "duration": 363}, {"note": 0, "velocity": 0, "duration": 117}, {"note": 73, "velocity": 83, "duration": 707}, {"note": 0, "velocity": 0, "duration": 253}, {"note": 72, "velocity": 85, "duration": 349}, {"note": 0, "velocity": 0, "duration": 131}, {"note": 72, "velocity": 86, "duration": 239}, {"note": 75, "velocity": 86, "duration": 240}, {"note": 75, "velocity": 84, "duration": 480}, {"note": 68, "velocity": 83, "duration": 480}, {"note": 70, "velocity": 87, "duration": 1920}, {"note": 72, "velocity": 80, "duration": 473}, {"note": 72, "velocity": 83, "duration": 157}, {"note": 0, "velocity": 0, "duration": 83}, {"note": 72, "velocity": 82, "duration": 199}, {"note": 75, "velocity": 86, "duration": 353}, {"note": 0, "velocity": 0, "duration": 127}, {"note": 77, "velocity": 82, "duration": 385}, {"note": 0, "velocity": 0, "duration": 95}, {"note": 75, "velocity": 83, "duration": 374}, {"note": 0, "velocity": 0, "duration": 106}, {"note": 77, "velocity": 80, "duration": 363}, {"note": 0, "velocity": 0, "duration": 117}, {"note": 73, "velocity": 83, "duration": 707}, {"note": 0, "velocity": 0, "duration": 253}, {"note": 72, "velocity": 85, "duration": 349}, {"note": 0, "velocity": 0, "duration": 131}, {"note": 72, "velocity": 86, "duration": 239}, {"note": 75, "velocity": 86, "duration": 240}, {"note": 75, "velocity": 84, "duration": 960}, {"note": 68, "velocity": 83, "duration": 1440}, {"note": 0, "velocity": 0, "duration": 480}, {"note": 70, "velocity": 87, "duration": 1920}]]