[[{"note": 73, "velocity": 83, "duration": 137}, {"note": 72, "velocity": 82, "duration": 159}, {"note": 70, "velocity": 82, "duration": 280}, {"note": 68, "velocity": 75, "duration": 150}, {"note": 70, "velocity": 79, "duration": 315}, {"note": 68, "velocity": 81, "duration": 168}, {"note": 70, "velocity": 81, "duration": 112}, {"note": 70, "velocity": 78, "duration": 142}, {"note": 68, "velocity": 81, "duration": 136}, {"note": 70, "velocity": 82, "duration": 132}, {"note": 0, "velocity": 0, "duration": 188}, {"note": 73, "velocity": 77, "duration": 150}, {"note": 75, "velocity": 84, "duration": 118}, {"note": 75, "velocity": 83, "duration": 129}, {"note": 73, "velocity": 83, "duration": 125}, {"note": 75, "velocity": 86, "duration": 251}, {"note": 0, "velocity": 0, "duration": 69}, {"note": 73, "velocity": 80, "duration": 165}, {"note": 70, "velocity": 84, "duration": 514}, {"note": 0, "velocity": 0, "duration": 126}, {"note": 73, "velocity": 82, "duration": 101}, {"note": 75, "velocity": 85, "duration": 125}, {"note": 77, "velocity": 81, "duration": 114}, {"note": 77, "velocity": 82, "duration": 94}, {"note": 0, "velocity": 0, "duration": 66}, {"note": 77, "velocity": 83, "duration": 112}, {"note": 77, "velocity": 81, "duration": 122}, {"note": 75, "velocity": 84, "duration": 138}, {"note": 73, "velocity": 80, "duration": 125}, {"note": 77, "velocity": 83, "duration": 104}, {"note": 77, "velocity": 82, "duration": 95}, {"note": 0, "velocity": 0, "duration": 65}, {"note": 77, "velocity": 81, "duration": 99}, {"note": 0, "velocity": 0, "duration": 61}, {"note": 77, "velocity": 84, "duration": 136}, {"note": 75, "velocity": 84, "duration": 140}, {"note": 73, "velocity": 82, "duration": 162}, {"note": 77, "velocity": 82, "duration": 1006}, {"note": 0, "velocity": 0, "duration": 594}, {"note": 73, "velocity": 83, "duration": 137}, {"note": 72, "velocity": 82, "duration": 159}, {"note": 70, "velocity": 82, "duration": 280}, {"note": 68, "velocity": 75, "duration": 150}, {"note": 70, "velocity": 79, "duration": 315}, {"note": 68, "velocity": 81, "duration": 168}, {"note": 70, "velocity": 81, "duration": 112}, {"note": 70, "velocity": 78, "duration": 142}, {"note": 68, "velocity": 81, "duration": 136}, {"note": 70, "velocity": 82, "duration": 132}, {"note": 0, "velocity": 0, "duration": 188}, {"note": 73, "velocity": 77, "duration": 150}, {"note": 75, "velocity": 84, "duration": 118}, {"note": 75, "velocity": 83, "duration": 129}, {"note": 75, "velocity": 83, "duration": 125}, {"note": 75, "velocity": 86, "duration": 160}, {"note": 70, "velocity": 83, "duration": 160}, {"note": 77, "velocity": 80, "duration": 320}, {"note": 75, "velocity": 84, "duration": 480}, {"note": 73, "velocity": 82, "duration": 101}, {"note": 75, "velocity": 85, "duration": 125}, {"note": 77, "velocity": 81, "duration": 114}, {"note": 77, "velocity": 82, "duration": 94}, {"note": 0, "velocity": 0, "duration": 66}, {"note": 77, "velocity": 83, "duration": 112}, {"note": 77, "velocity": 81, "duration": 122}, {"note": 75, "velocity": 84, "duration": 138}, {"note": 73, "velocity": 80, "duration": 125}, {"note": 77, "velocity": 83, "duration": 104}, {"note": 77, "velocity": 82, "duration": 95}, {"note": 0, "velocity": 0, "duration": 65}, {"note": 77, "velocity": 81, "duration": 99}, {"note": 0, "velocity": 0, "duration": 61}, {"note": 77, "velocity": 84, "duration": 136}, {"note": 75, "velocity": 84, "duration": 140}, {"note": 73, "velocity": 82, "duration": 162}, {"note": 77, "velocity": 82, "duration": 960}, {"note": 81, "velocity": 83, "duration": 320}, {"note": 0, "velocity": 0, "duration": 160}, {"note": 77, "velocity": 87, "duration": 150}, {"note": 80, "velocity": 83, "duration": 165}, {"note": 77, "velocity": 86, "duration": 160}, {"note": 82, "velocity": 82, "duration": 341}, {"note": 80, "velocity": 83, "duration": 171}, {"note": 82, "velocity": 83, "duration": 163}, {"note": 80, "velocity": 83, "duration": 162}, {"note": 75, "velocity": 85, "duration": 182}, {"note": 77, "velocity": 82, "duration": 403}, {"note": 0, "velocity": 0, "duration": 77}, {"note": 77, "velocity": 88, "duration": 175}, {"note": 80, "velocity": 83, "duration": 166}, {"note": 77, "velocity": 85, "duration": 153}, {"note": 82, "velocity": 80, "duration": 339}, {"note": 80, "velocity": 82, "duration": 185}, {"note": 82, "velocity": 80, "duration": 153}, {"note": 80, "velocity": 84, "duration": 160}, {"note": 75, "velocity": 89, "duration": 163}, {"note": 77, "velocity": 84, "duration": 384}, {"note": 0, "velocity": 0, "duration": 96}, {"note": 70, "velocity": 87, "duration": 144}, {"note": 73, "velocity": 84, "duration": 175}, {"note": 70, "velocity": 84, "duration": 159}, {"note": 77, "velocity": 87, "duration": 364}, {"note": 75, "velocity": 84, "duration": 125}, {"note": 75, "velocity": 89, "duration": 150}, {"note": 73, "velocity": 82, "duration": 147}, {"note": 70, "velocity": 84, "duration": 158}, {"note": 80, "velocity": 83, "duration": 320}, {"note": 80, "velocity": 79, "duration": 107}, {"note": 80, "velocity": 84, "duration": 101}, {"note": 77, "velocity": 82, "duration": 121}, {"note": 75, "velocity": 85, "duration": 101}, {"note": 77, "velocity": 83, "duration": 320}, {"note": 77, "velocity": 84, "duration": 112}, {"note": 77, "velocity": 83, "duration": 119}, {"note": 75, "velocity": 84, "duration": 120}, {"note": 73, "velocity": 83, "duration": 101}, {"note": 73, "velocity": 82, "duration": 392}, {"note": 0, "velocity": 0, "duration": 88}, {"note": 77, "velocity": 87, "duration": 150}, {"note": 80, "velocity": 83, "duration": 165}, {"note": 77, "velocity": 86, "duration": 160}, {"note": 82, "velocity": 82, "duration": 341}, {"note": 80, "velocity": 83, "duration": 171}, {"note": 82, "velocity": 83, "duration": 163}, {"note": 80, "velocity": 83, "duration": 162}, {"note": 75, "velocity": 85, "duration": 182}, {"note": 77, "velocity": 82, "duration": 403}, {"note": 0, "velocity": 0, "duration": 77}, {"note": 77, "velocity": 88, "duration": 175}, {"note": 80, "velocity": 83, "duration": 166}, {"note": 77, "velocity": 85, "duration": 153}, {"note": 85, "velocity": 80, "duration": 320}, {"note": 85, "velocity": 82, "duration": 160}, {"note": 85, "velocity": 80, "duration": 153}, {"note": 82, "velocity": 84, "duration": 160}, {"note": 80, "velocity": 89, "duration": 163}, {"note": 77, "velocity": 84, "duration": 384}, {"note": 0, "velocity": 0, "duration": 96}, {"note": 70, "velocity": 87, "duration": 144}, {"note": 73, "velocity": 84, "duration": 175}, {"note": 70, "velocity": 84, "duration": 159}, {"note": 77, "velocity": 87, "duration": 364}, {"note": 75, "velocity": 84, "duration": 125}, {"note": 75, "velocity": 89, "duration": 150}, {"note": 73, "velocity": 82, "duration": 147}, {"note": 70, "velocity": 84, "duration": 158}, {"note": 80, "velocity": 83, "duration": 320}, {"note": 80, "velocity": 79, "duration": 107}, {"note": 80, "velocity": 84, "duration": 101}, {"note": 77, "velocity": 82, "duration": 121}, {"note": 80, "velocity": 85, "duration": 101}, {"note": 82, "velocity": 83, "duration": 1440}, {"note": 0, "velocity": 0, "duration": 13600}, {"note": 73, "velocity": 83, "duration": 137}, {"note": 72, "velocity": 82, "duration": 159}, {"note": 70, "velocity": 82, "duration": 280}, {"note": 68, "velocity": 75, "duration": 150}, {"note": 70, "velocity": 79, "duration": 315}, {"note": 68, "velocity": 81, "duration": 168}, {"note": 70, "velocity": 81, "duration": 112}, {"note": 70, "velocity": 78, "duration": 142}, {"note": 68, "velocity": 81, "duration": 136}, {"note": 70, "velocity": 82, "duration": 132}, {"note": 0, "velocity": 0, "duration": 188}, {"note": 73, "velocity": 77, "duration": 150}, {"note": 75, "velocity": 84, "duration": 118}, {"note": 75, "velocity": 83, "duration": 129}, {"note": 73, "velocity": 83, "duration": 125}, {"note": 75, "velocity": 86, "duration": 251}, {"note": 0, "velocity": 0, "duration": 69}, {"note": 73, "velocity": 80, "duration": 165}, {"note": 70, "velocity": 84, "duration": 514}, {"note": 0, "velocity": 0, "duration": 126}, {"note": 73, "velocity": 82, "duration": 101}, {"note": 75, "velocity": 85, "duration": 125}, {"note": 77, "velocity": 81, "duration": 114}, {"note": 77, "velocity": 82, "duration": 94}, {"note": 0, "velocity": 0, "duration": 66}, {"note": 77, "velocity": 83, "duration": 112}, {"note": 77, "velocity": 81, "duration": 122}, {"note": 75, "velocity": 84, "duration": 138}, {"note": 73, "velocity": 80, "duration": 125}, {"note": 77, "velocity": 83, "duration": 104}, {"note": 77, "velocity": 82, "duration": 95}, {"note": 0, "velocity": 0, "duration": 65}, {"note": 77, "velocity": 81, "duration": 99}, {"note": 0, "velocity": 0, "duration": 61}, {"note": 77, "velocity": 84, "duration": 136}, {"note": 75, "velocity": 84, "duration": 140}, {"note": 73, "velocity": 82, "duration": 162}, {"note": 77, "velocity": 82, "duration": 1006}, {"note": 0, "velocity": 0, "duration": 594}, {"note": 73, "velocity": 83, "duration": 137}, {"note": 72, "velocity": 82, "duration": 159}, {"note": 70, "velocity": 82, "duration": 280}, {"note": 68, "velocity": 75, "duration": 150}, {"note": 70, "velocity": 79, "duration": 315}, {"note": 68, "velocity": 81, "duration": 168}, {"note": 70, "velocity": 81, "duration": 112}, {"note": 70, "velocity": 78, "duration": 142}, {"note": 68, "velocity": 81, "duration": 136}, {"note": 70, "velocity": 82, "duration": 132}, {"note": 0, "velocity": 0, "duration": 188}, {"note": 73, "velocity": 77, "duration": 150}, {"note": 75, "velocity": 84, "duration": 118}, {"note": 75, "velocity": 83, "duration": 129}, {"note": 75, "velocity": 83, "duration": 125}, {"note": 75, "velocity": 86, "duration": 160}, {"note": 70, "velocity": 83, "duration": 160}, {"note": 77, "velocity": 80, "duration": 320}, {"note": 75, "velocity": 84, "duration": 480}, {"note": 73, "velocity": 82, "duration": 101}, {"note": 75, "velocity": 85, "duration": 125}, {"note": 77, "velocity": 81, "duration": 114}, {"note": 77, "velocity": 82, "duration": 94}, {"note": 0, "velocity": 0, "duration": 66}, {"note": 77, "velocity": 83, "duration": 112}, {"note": 77, "velocity": 81, "duration": 122}, {"note": 75, "velocity": 84, "duration": 138}, {"note": 73, "velocity": 80, "duration": 125}, {"note": 77, "velocity": 83, "duration": 104}, {"note": 77, "velocity": 82, "duration": 95}, {"note": 0, "velocity": 0, "duration": 65}, {"note": 77, "velocity": 81, "duration": 99}, {"note": 0, "velocity": 0, "duration": 61}, {"note": 77, "velocity": 84, "duration": 136}, {"note": 75, "velocity": 84, "duration": 140}, {"note": 73, "velocity": 82, "duration": 162}, {"note": 77, "velocity": 82, "duration": 960}, {"note": 81, "velocity": 83, "duration": 320}, {"note": 0, "velocity": 0, "duration": 160}, {"note": 77, "velocity": 87, "duration": 150}, {"note": 80, "velocity": 83, "duration": 165}, {"note": 77, "velocity": 86, "duration": 160}, {"note": 82, "velocity": 82, "duration": 341}, {"note": 80, "velocity": 83, "duration": 171}, {"note": 82, "velocity": 83, "duration": 163}, {"note": 80, "velocity": 83, "duration": 162}, {"note": 75, "velocity": 85, "duration": 182}, {"note": 77, "velocity": 82, "duration": 403}, {"note": 0, "velocity": 0, "duration": 77}, {"note": 77, "velocity": 88, "duration": 175}, {"note": 80, "velocity": 83, "duration": 166}, {"note": 77, "velocity": 85, "duration": 153}, {"note": 82, "velocity": 80, "duration": 339}, {"note": 80, "velocity": 82, "duration": 185}, {"note": 82, "velocity": 80, "duration": 153}, {"note": 80, "velocity": 84, "duration": 160}, {"note": 75, "velocity": 89, "duration": 163}, {"note": 77, "velocity": 84, "duration": 384}, {"note": 0, "velocity": 0, "duration": 96}, {"note": 70, "velocity": 87, "duration": 144}, {"note": 73, "velocity": 84, "duration": 175}, {"note": 70, "velocity": 84, "duration": 159}, {"note": 77, "velocity": 87, "duration": 364}, {"note": 75, "velocity": 84, "duration": 125}, {"note": 75, "velocity": 89, "duration": 150}, {"note": 73, "velocity": 82, "duration": 147}, {"note": 70, "velocity": 84, "duration": 158}, {"note": 80, "velocity": 83, "duration": 320}, {"note": 80, "velocity": 79, "duration": 107}, {"note": 80, "velocity": 84, "duration": 101}, {"note": 77, "velocity": 82, "duration": 121}, {"note": 75, "velocity": 85, "duration": 101}, {"note": 77, "velocity": 83, "duration": 320}, {"note": 77, "velocity": 84, "duration": 112}, {"note": 77, "velocity": 83, "duration": 119}, {"note": 75, "velocity": 84, "duration": 120}, {"note": 73, "velocity": 83, "duration": 101}, {"note": 73, "velocity": 82, "duration": 392}, {"note": 0, "velocity": 0, "duration": 88}, {"note": 77, "velocity": 87, "duration": 150}, {"note": 80, "velocity": 83, "duration": 165}, {"note": 77, "velocity": 86, "duration": 160}, {"note": 82, "velocity": 82, "duration": 341}, {"note": 80, "velocity": 83, "duration": 171}, {"note": 82, "velocity": 83, "duration": 163}, {"note": 80, "velocity": 83, "duration": 162}, {"note": 75, "velocity": 85, "duration": 182}, {"note": 77, "velocity": 82, "duration": 403}, {"note": 0, "velocity": 0, "duration": 77}, {"note": 77, "velocity": 88, "duration": 175}, {"note": 80, "velocity": 83, "duration": 166}, {"note": 77, "velocity": 85, "duration": 153}, {"note": 85, "velocity": 80, "duration": 320}, {"note": 85, "velocity": 82, "duration": 160}, {"note": 85, "velocity": 80, "duration": 153}, {"note": 82, "velocity": 84, "duration": 160}, {"note": 80, "velocity": 89, "duration": 163}, {"note": 77, "velocity": 84, "duration": 384}, {"note": 0, "velocity": 0, "duration": 96}, {"note": 70, "velocity": 87, "duration": 144}, {"note": 73, "velocity": 84, "duration": 175}, {"note": 70, "velocity": 84, "duration": 159}, {"note": 77, "velocity": 87, "duration": 364}, {"note": 75, "velocity": 84, "duration": 125}, {"note": 75, "velocity": 89, "duration": 150}, {"note": 73, "velocity": 82, "duration": 147}, {"note": 70, "velocity": 84, "duration": 158}, {"note": 80, "velocity": 83, "duration": 320}, {"note": 80, "velocity": 79, "duration": 107}, {"note": 80, "velocity": 84, "duration": 101}, {"note": 77, "velocity": 82, "duration": 121}, {"note": 80, "velocity": 85, "duration": 101}, {"note": 82, "velocity": 83, "duration": 1440}, {"note": 77, "velocity": 87, "duration": 150}, {"note": 80, "velocity": 83, "duration": 165}, {"note": 77, "velocity": 86, "duration": 160}, {"note": 82, "velocity": 82, "duration": 341}, {"note": 80, "velocity": 83, "duration": 171}, {"note": 82, "velocity": 83, "duration": 163}, {"note": 80, "velocity": 83, "duration": 162}, {"note": 75, "velocity": 85, "duration": 182}, {"note": 77, "velocity": 82, "duration": 403}, {"note": 0, "velocity": 0, "duration": 77}, {"note": 77, "velocity": 88, "duration": 175}, {"note": 80, "velocity": 83, "duration": 166}, {"note": 77, "velocity": 85, "duration": 153}, {"note": 82, "velocity": 80, "duration": 339}, {"note": 80, "velocity": 82, "duration": 185}, {"note": 82, "velocity": 80, "duration": 153}, {"note": 80, "velocity": 84, "duration": 160}, {"note": 75, "velocity": 89, "duration": 163}, {"note": 77, "velocity": 84, "duration": 384}, {"note": 0, "velocity": 0, "duration": 96}, {"note": 70, "velocity": 87, "duration": 144}, {"note": 73, "velocity": 84, "duration": 175}, {"note": 70, "velocity": 84, "duration": 159}, {"note": 77, "velocity": 87, "duration": 364}, {"note": 75, "velocity": 84, "duration": 125}, {"note": 75, "velocity": 89, "duration": 150}, {"note": 73, "velocity": 82, "duration": 147}, {"note": 70, "velocity": 84, "duration": 158}, {"note": 80, "velocity": 83, "duration": 320}, {"note": 80, "velocity": 79, "duration": 107}, {"note": 80, "velocity": 84, "duration": 101}, {"note": 77, "velocity": 82, "duration": 121}, {"note": 75, "velocity": 85, "duration": 101}, {"note": 77, "velocity": 83, "duration": 320}, {"note": 77, "velocity": 84, "duration": 112}, {"note": 77, "velocity": 83, "duration": 119}, {"note": 75, "velocity": 84, "duration": 120}, {"note": 73, "velocity": 83, "duration": 101}, {"note": 73, "velocity": 82, "duration": 392}, {"note": 0, "velocity": 0, "duration": 88}, {"note": 77, "velocity": 87, "duration": 150}, {"note": 80, "velocity": 83, "duration": 165}, {"note": 77, "velocity": 86, "duration": 160}, {"note": 82, "velocity": 82, "duration": 341}, {"note": 80, "velocity": 83, "duration": 171}, {"note": 82, "velocity": 83, "duration": 163}, {"note": 80, "velocity": 83, "duration": 162}, {"note": 75, "velocity": 85, "duration": 182}, {"note": 77, "velocity": 82, "duration": 403}, {"note": 0, "velocity": 0, "duration": 77}, {"note": 77, "velocity": 88, "duration": 175}, {"note": 80, "velocity": 83, "duration": 166}, {"note": 77, "velocity": 85, "duration": 153}, {"note": 85, "velocity": 80, "duration": 320}, {"note": 85, "velocity": 82, "duration": 160}, {"note": 85, "velocity": 80, "duration": 153}, {"note": 82, "velocity": 84, "duration": 160}, {"note": 80, "velocity": 89, "duration": 163}, {"note": 77, "velocity": 84, "duration": 384}, {"note": 0, "velocity": 0, "duration": 96}, {"note": 70, "velocity": 87, "duration": 144}, {"note": 73, "velocity": 84, "duration": 175}, {"note": 70, "velocity": 84, "duration": 159}, {"note": 77, "velocity": 87, "duration": 364}, {"note": 75, "velocity": 84, "duration": 125}, {"note": 75, "velocity": 89, "duration": 150}, {"note": 73, "velocity": 82, "duration": 147}, {"note": 70, "velocity": 84, "duration": 158}, {"note": 80, "velocity": 83, "duration": 320}, {"note": 80, "velocity": 79, "duration": 107}, {"note": 80, "velocity": 84, "duration": 101}, {"note": 77, "velocity": 82, "duration": 121}, {"note": 80, "velocity": 85, "duration": 101}, {"note": 82, "velocity": 83, "duration": 1440}]]