[[{"note": 67, "velocity": 83, "duration": 555}, {"note": 76, "velocity": 83, "duration": 1257}, {"note": 0, "velocity": 0, "duration": 1623}, {"note": 76, "velocity": 82, "duration": 410}, {"note": 0, "velocity": 0, "duration": 70}, {"note": 74, "velocity": 82, "duration": 185}, {"note": 72, "velocity": 76, "duration": 261}, {"note": 71, "velocity": 82, "duration": 620}, {"note": 0, "velocity": 0, "duration": 100}, {"note": 71, "velocity": 79, "duration": 142}, {"note": 0, "velocity": 0, "duration": 98}, {"note": 71, "velocity": 81, "duration": 240}, {"note": 69, "velocity": 76, "duration": 480}, {"note": 67, "velocity": 74, "duration": 960}, {"note": 0, "velocity": 0, "duration": 720}, {"note": 67, "velocity": 79, "duration": 149}, {"note": 0, "velocity": 0, "duration": 91}, {"note": 67, "velocity": 79, "duration": 145}, {"note": 0, "velocity": 0, "duration": 95}, {"note": 69, "velocity": 81, "duration": 588}, {"note": 0, "velocity": 0, "duration": 132}, {"note": 77, "velocity": 81, "duration": 1023}, {"note": 0, "velocity": 0, "duration": 177}, {"note": 76, "velocity": 85, "duration": 499}, {"note": 79, "velocity": 77, "duration": 249}, {"note": 72, "velocity": 83, "duration": 802}, {"note": 0, "velocity": 0, "duration": 158}, {"note": 76, "velocity": 83, "duration": 137}, {"note": 0, "velocity": 0, "duration": 103}, {"note": 76, "velocity": 86, "duration": 586}, {"note": 0, "velocity": 0, "duration": 134}, {"note": 74, "velocity": 85, "duration": 706}, {"note": 69, "velocity": 82, "duration": 537}, {"note": 74, "velocity": 83, "duration": 1324}, {"note": 0, "velocity": 0, "duration": 596}, {"note": 67, "velocity": 83, "duration": 555}, {"note": 76, "velocity": 83, "duration": 1257}, {"note": 0, "velocity": 0, "duration": 1143}, {"note": 76, "velocity": 82, "duration": 240}, {"note": 76, "velocity": 82, "duration": 240}, {"note": 74, "velocity": 82, "duration": 240}, {"note": 72, "velocity": 82, "duration": 240}, {"note": 71, "velocity": 76, "duration": 480}, {"note": 0, "velocity": 0, "duration": 240}, {"note": 71, "velocity": 82, "duration": 480}, {"note": 0, "velocity": 0, "duration": 240}, {"note": 69, "velocity": 81, "duration": 240}, {"note": 67, "velocity": 76, "duration": 1200}, {"note": 0, "velocity": 0, "duration": 480}, {"note": 67, "velocity": 79, "duration": 480}, {"note": 69, "velocity": 81, "duration": 588}, {"note": 0, "velocity": 0, "duration": 132}, {"note": 77, "velocity": 81, "duration": 1023}, {"note": 0, "velocity": 0, "duration": 177}, {"note": 76, "velocity": 85, "duration": 499}, {"note": 79, "velocity": 77, "duration": 249}, {"note": 72, "velocity": 83, "duration": 802}, {"note": 0, "velocity": 0, "duration": 158}, {"note": 76, "velocity": 83, "duration": 137}, {"note": 0, "velocity": 0, "duration": 103}, {"note": 76, "velocity": 86, "duration": 586}, {"note": 0, "velocity": 0, "duration": 134}, {"note": 74, "velocity": 85, "duration": 706}, {"note": 0, "velocity": 0, "duration": 494}, {"note": 76, "velocity": 82, "duration": 537}, {"note": 0, "velocity": 0, "duration": 183}, {"note": 74, "velocity": 83, "duration": 720}, {"note": 69, "velocity": 82, "duration": 480}, {"note": 72, "velocity": 82, "duration": 1920}, {"note": 0, "velocity": 0, "duration": 4800}, {"note": 81, "velocity": 82, "duration": 476}, {"note": 79, "velocity": 81, "duration": 510}, {"note": 76, "velocity": 87, "duration": 241}, {"note": 79, "velocity": 81, "duration": 239}, {"note": 76, "velocity": 83, "duration": 248}, {"note": 79, "velocity": 82, "duration": 286}, {"note": 76, "velocity": 83, "duration": 541}, {"note": 74, "velocity": 82, "duration": 252}, {"note": 72, "velocity": 82, "duration": 460}, {"note": 76, "velocity": 82, "duration": 777}, {"note": 0, "velocity": 0, "duration": 423}, {"note": 72, "velocity": 82, "duration": 136}, {"note": 0, "velocity": 0, "duration": 104}, {"note": 72, "velocity": 83, "duration": 204}, {"note": 83, "velocity": 83, "duration": 629}, {"note": 0, "velocity": 0, "duration": 91}, {"note": 79, "velocity": 81, "duration": 376}, {"note": 0, "velocity": 0, "duration": 104}, {"note": 79, "velocity": 81, "duration": 242}, {"note": 76, "velocity": 85, "duration": 496}, {"note": 79, "velocity": 77, "duration": 1122}, {"note": 0, "velocity": 0, "duration": 558}, {"note": 79, "velocity": 83, "duration": 261}, {"note": 81, "velocity": 82, "duration": 750}, {"note": 84, "velocity": 81, "duration": 681}, {"note": 72, "velocity": 84, "duration": 150}, {"note": 0, "velocity": 0, "duration": 90}, {"note": 72, "velocity": 80, "duration": 183}, {"note": 76, "velocity": 83, "duration": 697}, {"note": 79, "velocity": 79, "duration": 622}, {"note": 0, "velocity": 0, "duration": 98}, {"note": 76, "velocity": 86, "duration": 222}, {"note": 79, "velocity": 79, "duration": 248}, {"note": 76, "velocity": 88, "duration": 506}, {"note": 74, "velocity": 83, "duration": 142}, {"note": 0, "velocity": 0, "duration": 98}, {"note": 74, "velocity": 87, "duration": 266}, {"note": 72, "velocity": 87, "duration": 334}, {"note": 69, "velocity": 84, "duration": 334}, {"note": 72, "velocity": 83, "duration": 506}, {"note": 74, "velocity": 85, "duration": 785}, {"note": 81, "velocity": 82, "duration": 476}, {"note": 79, "velocity": 81, "duration": 510}, {"note": 76, "velocity": 87, "duration": 241}, {"note": 79, "velocity": 81, "duration": 239}, {"note": 76, "velocity": 83, "duration": 248}, {"note": 79, "velocity": 82, "duration": 286}, {"note": 76, "velocity": 83, "duration": 541}, {"note": 74, "velocity": 82, "duration": 252}, {"note": 72, "velocity": 82, "duration": 460}, {"note": 76, "velocity": 82, "duration": 777}, {"note": 0, "velocity": 0, "duration": 183}, {"note": 72, "velocity": 82, "duration": 240}, {"note": 72, "velocity": 82, "duration": 136}, {"note": 0, "velocity": 0, "duration": 104}, {"note": 72, "velocity": 83, "duration": 204}, {"note": 83, "velocity": 83, "duration": 629}, {"note": 0, "velocity": 0, "duration": 91}, {"note": 79, "velocity": 81, "duration": 376}, {"note": 0, "velocity": 0, "duration": 104}, {"note": 79, "velocity": 81, "duration": 242}, {"note": 76, "velocity": 85, "duration": 496}, {"note": 79, "velocity": 77, "duration": 1122}, {"note": 0, "velocity": 0, "duration": 318}, {"note": 79, "velocity": 82, "duration": 240}, {"note": 79, "velocity": 83, "duration": 261}, {"note": 81, "velocity": 82, "duration": 750}, {"note": 84, "velocity": 81, "duration": 681}, {"note": 72, "velocity": 84, "duration": 150}, {"note": 0, "velocity": 0, "duration": 90}, {"note": 72, "velocity": 80, "duration": 183}, {"note": 76, "velocity": 83, "duration": 697}, {"note": 79, "velocity": 79, "duration": 622}, {"note": 0, "velocity": 0, "duration": 98}, {"note": 76, "velocity": 86, "duration": 222}, {"note": 79, "velocity": 79, "duration": 248}, {"note": 76, "velocity": 88, "duration": 506}, {"note": 0, "velocity": 0, "duration": 214}, {"note": 74, "velocity": 87, "duration": 480}, {"note": 0, "velocity": 0, "duration": 240}, {"note": 67, "velocity": 83, "duration": 131}, {"note": 0, "velocity": 0, "duration": 109}, {"note": 67, "velocity": 82, "duration": 195}, {"note": 76, "velocity": 83, "duration": 579}, {"note": 0, "velocity": 0, "duration": 141}, {"note": 74, "velocity": 86, "duration": 571}, {"note": 0, "velocity": 0, "duration": 149}, {"note": 67, "velocity": 80, "duration": 197}, {"note": 69, "velocity": 82, "duration": 680}, {"note": 72, "velocity": 81, "duration": 2878}, {"note": 0, "velocity": 0, "duration": 15842}, {"note": 67, "velocity": 83, "duration": 555}, {"note": 76, "velocity": 83, "duration": 1257}, {"note": 0, "velocity": 0, "duration": 1143}, {"note": 76, "velocity": 82, "duration": 410}, {"note": 0, "velocity": 0, "duration": 70}, {"note": 74, "velocity": 82, "duration": 185}, {"note": 72, "velocity": 76, "duration": 261}, {"note": 71, "velocity": 82, "duration": 620}, {"note": 0, "velocity": 0, "duration": 100}, {"note": 71, "velocity": 79, "duration": 142}, {"note": 0, "velocity": 0, "duration": 98}, {"note": 71, "velocity": 81, "duration": 240}, {"note": 69, "velocity": 76, "duration": 480}, {"note": 67, "velocity": 74, "duration": 960}, {"note": 0, "velocity": 0, "duration": 720}, {"note": 67, "velocity": 79, "duration": 149}, {"note": 0, "velocity": 0, "duration": 91}, {"note": 67, "velocity": 79, "duration": 145}, {"note": 0, "velocity": 0, "duration": 95}, {"note": 69, "velocity": 81, "duration": 588}, {"note": 0, "velocity": 0, "duration": 132}, {"note": 77, "velocity": 81, "duration": 1023}, {"note": 0, "velocity": 0, "duration": 177}, {"note": 76, "velocity": 85, "duration": 499}, {"note": 79, "velocity": 77, "duration": 249}, {"note": 72, "velocity": 83, "duration": 802}, {"note": 0, "velocity": 0, "duration": 158}, {"note": 76, "velocity": 83, "duration": 137}, {"note": 0, "velocity": 0, "duration": 103}, {"note": 76, "velocity": 86, "duration": 586}, {"note": 0, "velocity": 0, "duration": 134}, {"note": 74, "velocity": 85, "duration": 706}, {"note": 69, "velocity": 82, "duration": 537}, {"note": 74, "velocity": 83, "duration": 1324}, {"note": 0, "velocity": 0, "duration": 596}, {"note": 67, "velocity": 83, "duration": 555}, {"note": 76, "velocity": 83, "duration": 1257}, {"note": 0, "velocity": 0, "duration": 1143}, {"note": 76, "velocity": 82, "duration": 240}, {"note": 76, "velocity": 82, "duration": 240}, {"note": 74, "velocity": 82, "duration": 240}, {"note": 72, "velocity": 82, "duration": 240}, {"note": 71, "velocity": 76, "duration": 480}, {"note": 0, "velocity": 0, "duration": 240}, {"note": 71, "velocity": 82, "duration": 480}, {"note": 0, "velocity": 0, "duration": 240}, {"note": 69, "velocity": 81, "duration": 240}, {"note": 67, "velocity": 76, "duration": 1200}, {"note": 0, "velocity": 0, "duration": 480}, {"note": 67, "velocity": 79, "duration": 480}, {"note": 69, "velocity": 81, "duration": 588}, {"note": 0, "velocity": 0, "duration": 132}, {"note": 77, "velocity": 81, "duration": 1023}, {"note": 0, "velocity": 0, "duration": 177}, {"note": 76, "velocity": 85, "duration": 499}, {"note": 79, "velocity": 77, "duration": 249}, {"note": 72, "velocity": 83, "duration": 802}, {"note": 0, "velocity": 0, "duration": 158}, {"note": 76, "velocity": 83, "duration": 137}, {"note": 0, "velocity": 0, "duration": 103}, {"note": 76, "velocity": 86, "duration": 586}, {"note": 0, "velocity": 0, "duration": 134}, {"note": 74, "velocity": 85, "duration": 706}, {"note": 0, "velocity": 0, "duration": 494}, {"note": 76, "velocity": 82, "duration": 537}, {"note": 0, "velocity": 0, "duration": 183}, {"note": 74, "velocity": 83, "duration": 720}, {"note": 69, "velocity": 82, "duration": 480}, {"note": 72, "velocity": 82, "duration": 1920}, {"note": 0, "velocity": 0, "duration": 4800}, {"note": 81, "velocity": 82, "duration": 476}, {"note": 79, "velocity": 81, "duration": 510}, {"note": 76, "velocity": 87, "duration": 241}, {"note": 79, "velocity": 81, "duration": 239}, {"note": 76, "velocity": 83, "duration": 248}, {"note": 79, "velocity": 82, "duration": 286}, {"note": 76, "velocity": 83, "duration": 541}, {"note": 74, "velocity": 82, "duration": 252}, {"note": 72, "velocity": 82, "duration": 460}, {"note": 76, "velocity": 82, "duration": 777}, {"note": 0, "velocity": 0, "duration": 423}, {"note": 72, "velocity": 82, "duration": 136}, {"note": 0, "velocity": 0, "duration": 104}, {"note": 72, "velocity": 83, "duration": 204}, {"note": 83, "velocity": 83, "duration": 629}, {"note": 0, "velocity": 0, "duration": 91}, {"note": 79, "velocity": 81, "duration": 376}, {"note": 0, "velocity": 0, "duration": 104}, {"note": 79, "velocity": 81, "duration": 242}, {"note": 76, "velocity": 85, "duration": 496}, {"note": 79, "velocity": 77, "duration": 1122}, {"note": 0, "velocity": 0, "duration": 558}, {"note": 79, "velocity": 83, "duration": 261}, {"note": 81, "velocity": 82, "duration": 750}, {"note": 84, "velocity": 81, "duration": 681}, {"note": 72, "velocity": 84, "duration": 150}, {"note": 0, "velocity": 0, "duration": 90}, {"note": 72, "velocity": 80, "duration": 183}, {"note": 76, "velocity": 83, "duration": 697}, {"note": 79, "velocity": 79, "duration": 622}, {"note": 0, "velocity": 0, "duration": 98}, {"note": 76, "velocity": 86, "duration": 222}, {"note": 79, "velocity": 79, "duration": 248}, {"note": 76, "velocity": 88, "duration": 506}, {"note": 74, "velocity": 83, "duration": 142}, {"note": 0, "velocity": 0, "duration": 98}, {"note": 74, "velocity": 87, "duration": 266}, {"note": 72, "velocity": 87, "duration": 334}, {"note": 69, "velocity": 84, "duration": 334}, {"note": 72, "velocity": 83, "duration": 506}, {"note": 74, "velocity": 85, "duration": 785}, {"note": 81, "velocity": 82, "duration": 476}, {"note": 79, "velocity": 81, "duration": 510}, {"note": 76, "velocity": 87, "duration": 241}, {"note": 79, "velocity": 81, "duration": 239}, {"note": 76, "velocity": 83, "duration": 248}, {"note": 79, "velocity": 82, "duration": 286}, {"note": 76, "velocity": 83, "duration": 541}, {"note": 74, "velocity": 82, "duration": 252}, {"note": 72, "velocity": 82, "duration": 460}, {"note": 76, "velocity": 82, "duration": 777}, {"note": 0, "velocity": 0, "duration": 183}, {"note": 72, "velocity": 82, "duration": 240}, {"note": 72, "velocity": 82, "duration": 136}, {"note": 0, "velocity": 0, "duration": 104}, {"note": 72, "velocity": 83, "duration": 204}, {"note": 83, "velocity": 83, "duration": 629}, {"note": 0, "velocity": 0, "duration": 91}, {"note": 79, "velocity": 81, "duration": 376}, {"note": 0, "velocity": 0, "duration": 104}, {"note": 79, "velocity": 81, "duration": 242}, {"note": 76, "velocity": 85, "duration": 496}, {"note": 79, "velocity": 77, "duration": 1122}, {"note": 0, "velocity": 0, "duration": 318}, {"note": 79, "velocity": 82, "duration": 240}, {"note": 79, "velocity": 83, "duration": 261}, {"note": 81, "velocity": 82, "duration": 750}, {"note": 84, "velocity": 81, "duration": 681}, {"note": 72, "velocity": 84, "duration": 150}, {"note": 0, "velocity": 0, "duration": 90}, {"note": 72, "velocity": 80, "duration": 183}, {"note": 76, "velocity": 83, "duration": 697}, {"note": 79, "velocity": 79, "duration": 622}, {"note": 0, "velocity": 0, "duration": 98}, {"note": 76, "velocity": 86, "duration": 222}, {"note": 79, "velocity": 79, "duration": 248}, {"note": 76, "velocity": 88, "duration": 506}, {"note": 0, "velocity": 0, "duration": 214}, {"note": 74, "velocity": 87, "duration": 480}, {"note": 0, "velocity": 0, "duration": 240}, {"note": 67, "velocity": 83, "duration": 131}, {"note": 0, "velocity": 0, "duration": 109}, {"note": 67, "velocity": 82, "duration": 195}, {"note": 76, "velocity": 83, "duration": 579}, {"note": 0, "velocity": 0, "duration": 141}, {"note": 74, "velocity": 86, "duration": 571}, {"note": 0, "velocity": 0, "duration": 149}, {"note": 67, "velocity": 80, "duration": 197}, {"note": 69, "velocity": 82, "duration": 680}, {"note": 72, "velocity": 81, "duration": 2878}, {"note": 0, "velocity": 0, "duration": 11042}, {"note": 82, "velocity": 82, "duration": 476}, {"note": 80, "velocity": 81, "duration": 510}, {"note": 77, "velocity": 87, "duration": 241}, {"note": 80, "velocity": 81, "duration": 239}, {"note": 77, "velocity": 83, "duration": 248}, {"note": 80, "velocity": 82, "duration": 286}, {"note": 77, "velocity": 83, "duration": 541}, {"note": 75, "velocity": 82, "duration": 252}, {"note": 73, "velocity": 82, "duration": 460}, {"note": 77, "velocity": 82, "duration": 777}, {"note": 0, "velocity": 0, "duration": 423}, {"note": 73, "velocity": 82, "duration": 136}, {"note": 0, "velocity": 0, "duration": 104}, {"note": 73, "velocity": 83, "duration": 204}, {"note": 84, "velocity": 83, "duration": 629}, {"note": 0, "velocity": 0, "duration": 91}, {"note": 80, "velocity": 81, "duration": 376}, {"note": 0, "velocity": 0, "duration": 104}, {"note": 80, "velocity": 81, "duration": 242}, {"note": 77, "velocity": 85, "duration": 496}, {"note": 80, "velocity": 77, "duration": 1122}, {"note": 0, "velocity": 0, "duration": 558}, {"note": 80, "velocity": 83, "duration": 261}, {"note": 82, "velocity": 82, "duration": 750}, {"note": 85, "velocity": 81, "duration": 681}, {"note": 73, "velocity": 84, "duration": 150}, {"note": 0, "velocity": 0, "duration": 90}, {"note": 73, "velocity": 80, "duration": 183}, {"note": 77, "velocity": 83, "duration": 697}, {"note": 80, "velocity": 79, "duration": 622}, {"note": 0, "velocity": 0, "duration": 98}, {"note": 77, "velocity": 86, "duration": 222}, {"note": 80, "velocity": 79, "duration": 248}, {"note": 77, "velocity": 88, "duration": 506}, {"note": 75, "velocity": 83, "duration": 142}, {"note": 0, "velocity": 0, "duration": 98}, {"note": 75, "velocity": 87, "duration": 266}, {"note": 73, "velocity": 87, "duration": 334}, {"note": 70, "velocity": 84, "duration": 334}, {"note": 73, "velocity": 83, "duration": 506}, {"note": 75, "velocity": 85, "duration": 785}, {"note": 82, "velocity": 82, "duration": 476}, {"note": 80, "velocity": 81, "duration": 510}, {"note": 77, "velocity": 87, "duration": 241}, {"note": 80, "velocity": 81, "duration": 239}, {"note": 77, "velocity": 83, "duration": 248}, {"note": 80, "velocity": 82, "duration": 286}, {"note": 77, "velocity": 83, "duration": 541}, {"note": 75, "velocity": 82, "duration": 252}, {"note": 73, "velocity": 82, "duration": 460}, {"note": 77, "velocity": 82, "duration": 777}, {"note": 0, "velocity": 0, "duration": 183}, {"note": 73, "velocity": 82, "duration": 240}, {"note": 73, "velocity": 82, "duration": 136}, {"note": 0, "velocity": 0, "duration": 104}, {"note": 73, "velocity": 83, "duration": 204}, {"note": 84, "velocity": 83, "duration": 629}, {"note": 0, "velocity": 0, "duration": 91}, {"note": 80, "velocity": 81, "duration": 376}, {"note": 0, "velocity": 0, "duration": 104}, {"note": 80, "velocity": 81, "duration": 242}, {"note": 77, "velocity": 85, "duration": 496}, {"note": 80, "velocity": 77, "duration": 1122}, {"note": 0, "velocity": 0, "duration": 318}, {"note": 80, "velocity": 82, "duration": 240}, {"note": 80, "velocity": 83, "duration": 261}, {"note": 82, "velocity": 82, "duration": 750}, {"note": 85, "velocity": 81, "duration": 681}, {"note": 73, "velocity": 84, "duration": 150}, {"note": 0, "velocity": 0, "duration": 90}, {"note": 73, "velocity": 80, "duration": 183}, {"note": 77, "velocity": 83, "duration": 697}, {"note": 80, "velocity": 79, "duration": 622}, {"note": 0, "velocity": 0, "duration": 98}, {"note": 77, "velocity": 86, "duration": 222}, {"note": 80, "velocity": 79, "duration": 248}, {"note": 77, "velocity": 88, "duration": 506}, {"note": 0, "velocity": 0, "duration": 214}, {"note": 75, "velocity": 87, "duration": 480}, {"note": 0, "velocity": 0, "duration": 240}, {"note": 68, "velocity": 83, "duration": 131}, {"note": 0, "velocity": 0, "duration": 109}, {"note": 68, "velocity": 82, "duration": 195}, {"note": 77, "velocity": 83, "duration": 579}, {"note": 0, "velocity": 0, "duration": 141}, {"note": 75, "velocity": 86, "duration": 571}, {"note": 0, "velocity": 0, "duration": 149}, {"note": 68, "velocity": 80, "duration": 197}, {"note": 70, "velocity": 82, "duration": 680}, {"note": 73, "velocity": 81, "duration": 2878}]]