[[{"note": 60, "velocity": 82, "duration": 215}, {"note": 65, "velocity": 84, "duration": 170}, {"note": 0, "velocity": 0, "duration": 70}, {"note": 65, "velocity": 83, "duration": 193}, {"note": 67, "velocity": 79, "duration": 150}, {"note": 0, "velocity": 0, "duration": 90}, {"note": 67, "velocity": 77, "duration": 161}, {"note": 0, "velocity": 0, "duration": 79}, {"note": 69, "velocity": 84, "duration": 211}, {"note": 72, "velocity": 84, "duration": 443}, {"note": 69, "velocity": 80, "duration": 207}, {"note": 72, "velocity": 84, "duration": 778}, {"note": 0, "velocity": 0, "duration": 182}, {"note": 72, "velocity": 80, "duration": 160}, {"note": 0, "velocity": 0, "duration": 80}, {"note": 72, "velocity": 85, "duration": 205}, {"note": 65, "velocity": 75, "duration": 146}, {"note": 0, "velocity": 0, "duration": 94}, {"note": 65, "velocity": 80, "duration": 166}, {"note": 0, "velocity": 0, "duration": 74}, {"note": 67, "velocity": 79, "duration": 163}, {"note": 0, "velocity": 0, "duration": 77}, {"note": 67, "velocity": 84, "duration": 388}, {"note": 0, "velocity": 0, "duration": 92}, {"note": 65, "velocity": 82, "duration": 180}, {"note": 67, "velocity": 81, "duration": 456}, {"note": 69, "velocity": 77, "duration": 1525}, {"note": 0, "velocity": 0, "duration": 635}, {"note": 60, "velocity": 82, "duration": 215}, {"note": 65, "velocity": 84, "duration": 170}, {"note": 0, "velocity": 0, "duration": 70}, {"note": 65, "velocity": 83, "duration": 193}, {"note": 67, "velocity": 79, "duration": 150}, {"note": 0, "velocity": 0, "duration": 90}, {"note": 67, "velocity": 77, "duration": 161}, {"note": 0, "velocity": 0, "duration": 79}, {"note": 69, "velocity": 84, "duration": 211}, {"note": 72, "velocity": 84, "duration": 443}, {"note": 69, "velocity": 80, "duration": 207}, {"note": 72, "velocity": 84, "duration": 778}, {"note": 0, "velocity": 0, "duration": 182}, {"note": 72, "velocity": 80, "duration": 160}, {"note": 0, "velocity": 0, "duration": 80}, {"note": 74, "velocity": 85, "duration": 480}, {"note": 72, "velocity": 85, "duration": 134}, {"note": 0, "velocity": 0, "duration": 106}, {"note": 72, "velocity": 84, "duration": 155}, {"note": 0, "velocity": 0, "duration": 85}, {"note": 72, "velocity": 85, "duration": 204}, {"note": 72, "velocity": 84, "duration": 140}, {"note": 0, "velocity": 0, "duration": 100}, {"note": 69, "velocity": 77, "duration": 227}, {"note": 67, "velocity": 79, "duration": 1269}, {"note": 0, "velocity": 0, "duration": 891}, {"note": 74, "velocity": 86, "duration": 797}, {"note": 0, "velocity": 0, "duration": 163}, {"note": 74, "velocity": 95, "duration": 251}, {"note": 76, "velocity": 84, "duration": 211}, {"note": 77, "velocity": 84, "duration": 213}, {"note": 76, "velocity": 87, "duration": 700}, {"note": 72, "velocity": 86, "duration": 224}, {"note": 72, "velocity": 81, "duration": 720}, {"note": 0, "velocity": 0, "duration": 240}, {"note": 72, "velocity": 85, "duration": 169}, {"note": 0, "velocity": 0, "duration": 71}, {"note": 74, "velocity": 88, "duration": 209}, {"note": 72, "velocity": 84, "duration": 149}, {"note": 0, "velocity": 0, "duration": 91}, {"note": 72, "velocity": 86, "duration": 122}, {"note": 0, "velocity": 0, "duration": 118}, {"note": 72, "velocity": 84, "duration": 143}, {"note": 0, "velocity": 0, "duration": 97}, {"note": 72, "velocity": 85, "duration": 316}, {"note": 0, "velocity": 0, "duration": 164}, {"note": 65, "velocity": 79, "duration": 180}, {"note": 67, "velocity": 84, "duration": 430}, {"note": 69, "velocity": 81, "duration": 1253}, {"note": 0, "velocity": 0, "duration": 427}, {"note": 74, "velocity": 86, "duration": 797}, {"note": 0, "velocity": 0, "duration": 163}, {"note": 74, "velocity": 95, "duration": 251}, {"note": 76, "velocity": 84, "duration": 211}, {"note": 77, "velocity": 84, "duration": 213}, {"note": 76, "velocity": 87, "duration": 700}, {"note": 72, "velocity": 86, "duration": 224}, {"note": 72, "velocity": 81, "duration": 720}, {"note": 0, "velocity": 0, "duration": 240}, {"note": 72, "velocity": 85, "duration": 169}, {"note": 0, "velocity": 0, "duration": 71}, {"note": 74, "velocity": 88, "duration": 209}, {"note": 72, "velocity": 84, "duration": 149}, {"note": 0, "velocity": 0, "duration": 91}, {"note": 72, "velocity": 86, "duration": 122}, {"note": 0, "velocity": 0, "duration": 118}, {"note": 72, "velocity": 84, "duration": 143}, {"note": 0, "velocity": 0, "duration": 97}, {"note": 74, "velocity": 85, "duration": 316}, {"note": 0, "velocity": 0, "duration": 164}, {"note": 77, "velocity": 82, "duration": 211}, {"note": 79, "velocity": 86, "duration": 1191}, {"note": 0, "velocity": 0, "duration": 249}, {"note": 65, "velocity": 85, "duration": 183}, {"note": 69, "velocity": 81, "duration": 159}, {"note": 0, "velocity": 0, "duration": 81}, {"note": 72, "velocity": 83, "duration": 160}, {"note": 0, "velocity": 0, "duration": 80}, {"note": 77, "velocity": 79, "duration": 147}, {"note": 0, "velocity": 0, "duration": 93}, {"note": 77, "velocity": 84, "duration": 159}, {"note": 0, "velocity": 0, "duration": 81}, {"note": 77, "velocity": 80, "duration": 180}, {"note": 77, "velocity": 78, "duration": 158}, {"note": 0, "velocity": 0, "duration": 82}, {"note": 77, "velocity": 84, "duration": 185}, {"note": 76, "velocity": 84, "duration": 163}, {"note": 0, "velocity": 0, "duration": 77}, {"note": 76, "velocity": 84, "duration": 200}, {"note": 74, "velocity": 79, "duration": 163}, {"note": 0, "velocity": 0, "duration": 77}, {"note": 74, "velocity": 86, "duration": 248}, {"note": 72, "velocity": 78, "duration": 166}, {"note": 0, "velocity": 0, "duration": 74}, {"note": 72, "velocity": 83, "duration": 199}, {"note": 69, "velocity": 83, "duration": 406}, {"note": 0, "velocity": 0, "duration": 74}, {"note": 65, "velocity": 85, "duration": 175}, {"note": 0, "velocity": 0, "duration": 65}, {"note": 69, "velocity": 82, "duration": 200}, {"note": 72, "velocity": 85, "duration": 180}, {"note": 74, "velocity": 86, "duration": 150}, {"note": 0, "velocity": 0, "duration": 90}, {"note": 74, "velocity": 84, "duration": 149}, {"note": 0, "velocity": 0, "duration": 91}, {"note": 74, "velocity": 85, "duration": 149}, {"note": 0, "velocity": 0, "duration": 91}, {"note": 74, "velocity": 86, "duration": 169}, {"note": 0, "velocity": 0, "duration": 71}, {"note": 74, "velocity": 86, "duration": 185}, {"note": 72, "velocity": 82, "duration": 163}, {"note": 0, "velocity": 0, "duration": 77}, {"note": 72, "velocity": 81, "duration": 163}, {"note": 0, "velocity": 0, "duration": 77}, {"note": 72, "velocity": 84, "duration": 452}, {"note": 69, "velocity": 85, "duration": 720}, {"note": 0, "velocity": 0, "duration": 240}, {"note": 65, "velocity": 85, "duration": 186}, {"note": 69, "velocity": 87, "duration": 198}, {"note": 72, "velocity": 86, "duration": 179}, {"note": 0, "velocity": 0, "duration": 61}, {"note": 77, "velocity": 83, "duration": 154}, {"note": 0, "velocity": 0, "duration": 86}, {"note": 77, "velocity": 84, "duration": 139}, {"note": 0, "velocity": 0, "duration": 101}, {"note": 77, "velocity": 81, "duration": 153}, {"note": 0, "velocity": 0, "duration": 87}, {"note": 77, "velocity": 82, "duration": 156}, {"note": 0, "velocity": 0, "duration": 84}, {"note": 77, "velocity": 84, "duration": 190}, {"note": 76, "velocity": 83, "duration": 163}, {"note": 0, "velocity": 0, "duration": 77}, {"note": 76, "velocity": 85, "duration": 212}, {"note": 74, "velocity": 84, "duration": 204}, {"note": 72, "velocity": 84, "duration": 211}, {"note": 74, "velocity": 86, "duration": 190}, {"note": 76, "velocity": 82, "duration": 183}, {"note": 77, "velocity": 79, "duration": 569}, {"note": 0, "velocity": 0, "duration": 151}, {"note": 69, "velocity": 82, "duration": 210}, {"note": 67, "velocity": 84, "duration": 480}, {"note": 65, "velocity": 80, "duration": 157}, {"note": 0, "velocity": 0, "duration": 83}, {"note": 65, "velocity": 79, "duration": 185}, {"note": 67, "velocity": 80, "duration": 183}, {"note": 69, "velocity": 85, "duration": 186}, {"note": 72, "velocity": 84, "duration": 170}, {"note": 0, "velocity": 0, "duration": 70}, {"note": 69, "velocity": 78, "duration": 183}, {"note": 67, "velocity": 77, "duration": 1029}, {"note": 0, "velocity": 0, "duration": 171}, {"note": 69, "velocity": 84, "duration": 416}, {"note": 0, "velocity": 0, "duration": 64}, {"note": 62, "velocity": 84, "duration": 197}, {"note": 67, "velocity": 78, "duration": 483}, {"note": 65, "velocity": 81, "duration": 1633}, {"note": 0, "velocity": 0, "duration": 6287}, {"note": 60, "velocity": 82, "duration": 215}, {"note": 65, "velocity": 84, "duration": 170}, {"note": 0, "velocity": 0, "duration": 70}, {"note": 65, "velocity": 83, "duration": 193}, {"note": 67, "velocity": 79, "duration": 150}, {"note": 0, "velocity": 0, "duration": 90}, {"note": 67, "velocity": 77, "duration": 161}, {"note": 0, "velocity": 0, "duration": 79}, {"note": 69, "velocity": 84, "duration": 211}, {"note": 72, "velocity": 84, "duration": 443}, {"note": 69, "velocity": 80, "duration": 207}, {"note": 72, "velocity": 84, "duration": 778}, {"note": 0, "velocity": 0, "duration": 182}, {"note": 72, "velocity": 80, "duration": 160}, {"note": 0, "velocity": 0, "duration": 80}, {"note": 72, "velocity": 85, "duration": 205}, {"note": 65, "velocity": 75, "duration": 146}, {"note": 0, "velocity": 0, "duration": 94}, {"note": 65, "velocity": 80, "duration": 166}, {"note": 0, "velocity": 0, "duration": 74}, {"note": 67, "velocity": 79, "duration": 163}, {"note": 0, "velocity": 0, "duration": 77}, {"note": 67, "velocity": 84, "duration": 388}, {"note": 0, "velocity": 0, "duration": 92}, {"note": 65, "velocity": 82, "duration": 180}, {"note": 67, "velocity": 81, "duration": 456}, {"note": 69, "velocity": 77, "duration": 1525}, {"note": 0, "velocity": 0, "duration": 635}, {"note": 60, "velocity": 82, "duration": 215}, {"note": 65, "velocity": 84, "duration": 170}, {"note": 0, "velocity": 0, "duration": 70}, {"note": 65, "velocity": 83, "duration": 193}, {"note": 67, "velocity": 79, "duration": 150}, {"note": 0, "velocity": 0, "duration": 90}, {"note": 67, "velocity": 77, "duration": 161}, {"note": 0, "velocity": 0, "duration": 79}, {"note": 69, "velocity": 84, "duration": 211}, {"note": 72, "velocity": 84, "duration": 443}, {"note": 69, "velocity": 80, "duration": 207}, {"note": 72, "velocity": 84, "duration": 778}, {"note": 0, "velocity": 0, "duration": 182}, {"note": 72, "velocity": 80, "duration": 160}, {"note": 0, "velocity": 0, "duration": 80}, {"note": 74, "velocity": 85, "duration": 480}, {"note": 72, "velocity": 85, "duration": 134}, {"note": 0, "velocity": 0, "duration": 106}, {"note": 72, "velocity": 84, "duration": 155}, {"note": 0, "velocity": 0, "duration": 85}, {"note": 72, "velocity": 85, "duration": 204}, {"note": 72, "velocity": 84, "duration": 140}, {"note": 0, "velocity": 0, "duration": 100}, {"note": 69, "velocity": 77, "duration": 227}, {"note": 67, "velocity": 79, "duration": 1269}, {"note": 0, "velocity": 0, "duration": 891}, {"note": 74, "velocity": 86, "duration": 797}, {"note": 0, "velocity": 0, "duration": 163}, {"note": 74, "velocity": 95, "duration": 251}, {"note": 76, "velocity": 84, "duration": 211}, {"note": 77, "velocity": 84, "duration": 213}, {"note": 76, "velocity": 87, "duration": 700}, {"note": 72, "velocity": 86, "duration": 224}, {"note": 72, "velocity": 81, "duration": 720}, {"note": 0, "velocity": 0, "duration": 240}, {"note": 72, "velocity": 85, "duration": 169}, {"note": 0, "velocity": 0, "duration": 71}, {"note": 74, "velocity": 88, "duration": 209}, {"note": 72, "velocity": 84, "duration": 149}, {"note": 0, "velocity": 0, "duration": 91}, {"note": 72, "velocity": 86, "duration": 122}, {"note": 0, "velocity": 0, "duration": 118}, {"note": 72, "velocity": 84, "duration": 143}, {"note": 0, "velocity": 0, "duration": 97}, {"note": 72, "velocity": 85, "duration": 316}, {"note": 0, "velocity": 0, "duration": 164}, {"note": 65, "velocity": 79, "duration": 180}, {"note": 67, "velocity": 84, "duration": 430}, {"note": 69, "velocity": 81, "duration": 1253}, {"note": 0, "velocity": 0, "duration": 427}, {"note": 74, "velocity": 86, "duration": 797}, {"note": 0, "velocity": 0, "duration": 163}, {"note": 74, "velocity": 95, "duration": 251}, {"note": 76, "velocity": 84, "duration": 211}, {"note": 77, "velocity": 84, "duration": 213}, {"note": 76, "velocity": 87, "duration": 700}, {"note": 79, "velocity": 86, "duration": 224}, {"note": 81, "velocity": 81, "duration": 720}, {"note": 0, "velocity": 0, "duration": 240}, {"note": 79, "velocity": 85, "duration": 169}, {"note": 0, "velocity": 0, "duration": 71}, {"note": 79, "velocity": 88, "duration": 209}, {"note": 77, "velocity": 84, "duration": 149}, {"note": 0, "velocity": 0, "duration": 91}, {"note": 77, "velocity": 86, "duration": 122}, {"note": 0, "velocity": 0, "duration": 118}, {"note": 74, "velocity": 84, "duration": 143}, {"note": 0, "velocity": 0, "duration": 97}, {"note": 72, "velocity": 85, "duration": 316}, {"note": 0, "velocity": 0, "duration": 164}, {"note": 69, "velocity": 82, "duration": 211}, {"note": 67, "velocity": 86, "duration": 1191}, {"note": 0, "velocity": 0, "duration": 249}, {"note": 65, "velocity": 85, "duration": 183}, {"note": 69, "velocity": 81, "duration": 159}, {"note": 0, "velocity": 0, "duration": 81}, {"note": 72, "velocity": 83, "duration": 160}, {"note": 0, "velocity": 0, "duration": 80}, {"note": 77, "velocity": 79, "duration": 147}, {"note": 0, "velocity": 0, "duration": 93}, {"note": 77, "velocity": 84, "duration": 159}, {"note": 0, "velocity": 0, "duration": 81}, {"note": 77, "velocity": 80, "duration": 180}, {"note": 77, "velocity": 78, "duration": 158}, {"note": 0, "velocity": 0, "duration": 82}, {"note": 77, "velocity": 84, "duration": 185}, {"note": 76, "velocity": 84, "duration": 163}, {"note": 0, "velocity": 0, "duration": 77}, {"note": 76, "velocity": 84, "duration": 200}, {"note": 74, "velocity": 79, "duration": 163}, {"note": 0, "velocity": 0, "duration": 77}, {"note": 74, "velocity": 86, "duration": 248}, {"note": 72, "velocity": 78, "duration": 166}, {"note": 0, "velocity": 0, "duration": 74}, {"note": 72, "velocity": 83, "duration": 199}, {"note": 69, "velocity": 83, "duration": 406}, {"note": 0, "velocity": 0, "duration": 74}, {"note": 65, "velocity": 85, "duration": 175}, {"note": 0, "velocity": 0, "duration": 65}, {"note": 69, "velocity": 82, "duration": 200}, {"note": 72, "velocity": 85, "duration": 180}, {"note": 74, "velocity": 86, "duration": 150}, {"note": 0, "velocity": 0, "duration": 90}, {"note": 74, "velocity": 84, "duration": 149}, {"note": 0, "velocity": 0, "duration": 91}, {"note": 74, "velocity": 85, "duration": 149}, {"note": 0, "velocity": 0, "duration": 91}, {"note": 74, "velocity": 86, "duration": 169}, {"note": 0, "velocity": 0, "duration": 71}, {"note": 74, "velocity": 86, "duration": 185}, {"note": 72, "velocity": 82, "duration": 163}, {"note": 0, "velocity": 0, "duration": 77}, {"note": 72, "velocity": 81, "duration": 163}, {"note": 0, "velocity": 0, "duration": 77}, {"note": 72, "velocity": 84, "duration": 452}, {"note": 69, "velocity": 85, "duration": 720}, {"note": 0, "velocity": 0, "duration": 240}, {"note": 65, "velocity": 85, "duration": 186}, {"note": 69, "velocity": 87, "duration": 198}, {"note": 72, "velocity": 86, "duration": 179}, {"note": 0, "velocity": 0, "duration": 61}, {"note": 77, "velocity": 83, "duration": 154}, {"note": 0, "velocity": 0, "duration": 86}, {"note": 77, "velocity": 84, "duration": 139}, {"note": 0, "velocity": 0, "duration": 101}, {"note": 77, "velocity": 81, "duration": 153}, {"note": 0, "velocity": 0, "duration": 87}, {"note": 77, "velocity": 82, "duration": 156}, {"note": 0, "velocity": 0, "duration": 84}, {"note": 77, "velocity": 84, "duration": 190}, {"note": 76, "velocity": 83, "duration": 163}, {"note": 0, "velocity": 0, "duration": 77}, {"note": 76, "velocity": 85, "duration": 212}, {"note": 74, "velocity": 84, "duration": 204}, {"note": 72, "velocity": 84, "duration": 211}, {"note": 74, "velocity": 86, "duration": 190}, {"note": 76, "velocity": 82, "duration": 183}, {"note": 77, "velocity": 79, "duration": 569}, {"note": 0, "velocity": 0, "duration": 151}, {"note": 69, "velocity": 82, "duration": 210}, {"note": 67, "velocity": 84, "duration": 480}, {"note": 65, "velocity": 80, "duration": 157}, {"note": 0, "velocity": 0, "duration": 83}, {"note": 65, "velocity": 79, "duration": 185}, {"note": 67, "velocity": 80, "duration": 183}, {"note": 69, "velocity": 85, "duration": 186}, {"note": 72, "velocity": 84, "duration": 170}, {"note": 0, "velocity": 0, "duration": 70}, {"note": 69, "velocity": 78, "duration": 183}, {"note": 67, "velocity": 77, "duration": 1029}, {"note": 0, "velocity": 0, "duration": 171}, {"note": 69, "velocity": 84, "duration": 416}, {"note": 0, "velocity": 0, "duration": 64}, {"note": 62, "velocity": 84, "duration": 197}, {"note": 67, "velocity": 78, "duration": 483}, {"note": 65, "velocity": 81, "duration": 1633}, {"note": 0, "velocity": 0, "duration": 12767}, {"note": 65, "velocity": 85, "duration": 183}, {"note": 69, "velocity": 81, "duration": 159}, {"note": 0, "velocity": 0, "duration": 81}, {"note": 72, "velocity": 83, "duration": 160}, {"note": 0, "velocity": 0, "duration": 80}, {"note": 77, "velocity": 79, "duration": 147}, {"note": 0, "velocity": 0, "duration": 93}, {"note": 77, "velocity": 84, "duration": 159}, {"note": 0, "velocity": 0, "duration": 81}, {"note": 77, "velocity": 80, "duration": 180}, {"note": 77, "velocity": 78, "duration": 158}, {"note": 0, "velocity": 0, "duration": 82}, {"note": 77, "velocity": 84, "duration": 185}, {"note": 76, "velocity": 84, "duration": 163}, {"note": 0, "velocity": 0, "duration": 77}, {"note": 76, "velocity": 84, "duration": 200}, {"note": 74, "velocity": 79, "duration": 163}, {"note": 0, "velocity": 0, "duration": 77}, {"note": 74, "velocity": 86, "duration": 248}, {"note": 72, "velocity": 78, "duration": 166}, {"note": 0, "velocity": 0, "duration": 74}, {"note": 72, "velocity": 83, "duration": 199}, {"note": 69, "velocity": 83, "duration": 406}, {"note": 0, "velocity": 0, "duration": 74}, {"note": 65, "velocity": 85, "duration": 175}, {"note": 0, "velocity": 0, "duration": 65}, {"note": 69, "velocity": 82, "duration": 200}, {"note": 72, "velocity": 85, "duration": 180}, {"note": 74, "velocity": 86, "duration": 150}, {"note": 0, "velocity": 0, "duration": 90}, {"note": 74, "velocity": 84, "duration": 149}, {"note": 0, "velocity": 0, "duration": 91}, {"note": 74, "velocity": 85, "duration": 149}, {"note": 0, "velocity": 0, "duration": 91}, {"note": 74, "velocity": 86, "duration": 169}, {"note": 0, "velocity": 0, "duration": 71}, {"note": 74, "velocity": 86, "duration": 185}, {"note": 72, "velocity": 82, "duration": 163}, {"note": 0, "velocity": 0, "duration": 77}, {"note": 72, "velocity": 81, "duration": 163}, {"note": 0, "velocity": 0, "duration": 77}, {"note": 72, "velocity": 84, "duration": 452}, {"note": 69, "velocity": 85, "duration": 720}, {"note": 0, "velocity": 0, "duration": 240}, {"note": 65, "velocity": 85, "duration": 186}, {"note": 69, "velocity": 87, "duration": 198}, {"note": 72, "velocity": 86, "duration": 179}, {"note": 0, "velocity": 0, "duration": 61}, {"note": 77, "velocity": 83, "duration": 154}, {"note": 0, "velocity": 0, "duration": 86}, {"note": 77, "velocity": 84, "duration": 139}, {"note": 0, "velocity": 0, "duration": 101}, {"note": 77, "velocity": 81, "duration": 153}, {"note": 0, "velocity": 0, "duration": 87}, {"note": 77, "velocity": 82, "duration": 156}, {"note": 0, "velocity": 0, "duration": 84}, {"note": 77, "velocity": 84, "duration": 190}, {"note": 76, "velocity": 83, "duration": 163}, {"note": 0, "velocity": 0, "duration": 77}, {"note": 76, "velocity": 85, "duration": 212}, {"note": 74, "velocity": 84, "duration": 204}, {"note": 72, "velocity": 84, "duration": 211}, {"note": 74, "velocity": 86, "duration": 190}, {"note": 76, "velocity": 82, "duration": 183}, {"note": 77, "velocity": 79, "duration": 569}, {"note": 0, "velocity": 0, "duration": 151}, {"note": 69, "velocity": 82, "duration": 210}, {"note": 67, "velocity": 84, "duration": 480}, {"note": 65, "velocity": 80, "duration": 157}, {"note": 0, "velocity": 0, "duration": 83}, {"note": 65, "velocity": 79, "duration": 185}, {"note": 67, "velocity": 80, "duration": 183}, {"note": 69, "velocity": 85, "duration": 186}, {"note": 72, "velocity": 84, "duration": 170}, {"note": 0, "velocity": 0, "duration": 70}, {"note": 69, "velocity": 78, "duration": 183}, {"note": 67, "velocity": 77, "duration": 1029}, {"note": 0, "velocity": 0, "duration": 171}, {"note": 69, "velocity": 84, "duration": 416}, {"note": 0, "velocity": 0, "duration": 64}, {"note": 62, "velocity": 84, "duration": 197}, {"note": 67, "velocity": 78, "duration": 483}, {"note": 65, "velocity": 81, "duration": 1633}]]