[[{"note": 65, "velocity": 83, "duration": 452}, {"note": 67, "velocity": 77, "duration": 503}, {"note": 65, "velocity": 82, "duration": 821}, {"note": 0, "velocity": 0, "duration": 139}, {"note": 67, "velocity": 77, "duration": 464}, {"note": 69, "velocity": 80, "duration": 472}, {"note": 72, "velocity": 76, "duration": 473}, {"note": 69, "velocity": 77, "duration": 546}, {"note": 67, "velocity": 80, "duration": 436}, {"note": 69, "velocity": 82, "duration": 490}, {"note": 67, "velocity": 77, "duration": 621}, {"note": 0, "velocity": 0, "duration": 99}, {"note": 65, "velocity": 78, "duration": 643}, {"note": 0, "velocity": 0, "duration": 77}, {"note": 69, "velocity": 78, "duration": 379}, {"note": 0, "velocity": 0, "duration": 101}, {"note": 72, "velocity": 77, "duration": 412}, {"note": 0, "velocity": 0, "duration": 68}, {"note": 69, "velocity": 79, "duration": 445}, {"note": 67, "velocity": 77, "duration": 461}, {"note": 69, "velocity": 80, "duration": 435}, {"note": 67, "velocity": 76, "duration": 673}, {"note": 65, "velocity": 77, "duration": 635}, {"note": 0, "velocity": 0, "duration": 85}, {"note": 62, "velocity": 79, "duration": 443}, {"note": 60, "velocity": 80, "duration": 353}, {"note": 62, "velocity": 71, "duration": 118}, {"note": 65, "velocity": 78, "duration": 208}, {"note": 62, "velocity": 77, "duration": 298}, {"note": 65, "velocity": 78, "duration": 384}, {"note": 0, "velocity": 0, "duration": 96}, {"note": 69, "velocity": 76, "duration": 420}, {"note": 67, "velocity": 77, "duration": 727}, {"note": 69, "velocity": 77, "duration": 233}, {"note": 67, "velocity": 77, "duration": 465}, {"note": 65, "velocity": 76, "duration": 481}, {"note": 67, "velocity": 76, "duration": 908}, {"note": 65, "velocity": 79, "duration": 349}, {"note": 0, "velocity": 0, "duration": 131}, {"note": 67, "velocity": 69, "duration": 439}, {"note": 65, "velocity": 82, "duration": 690}, {"note": 0, "velocity": 0, "duration": 270}, {"note": 67, "velocity": 72, "duration": 327}, {"note": 0, "velocity": 0, "duration": 153}, {"note": 69, "velocity": 77, "duration": 385}, {"note": 0, "velocity": 0, "duration": 95}, {"note": 72, "velocity": 78, "duration": 413}, {"note": 0, "velocity": 0, "duration": 67}, {"note": 69, "velocity": 77, "duration": 472}, {"note": 67, "velocity": 76, "duration": 511}, {"note": 69, "velocity": 76, "duration": 471}, {"note": 67, "velocity": 76, "duration": 661}, {"note": 65, "velocity": 77, "duration": 568}, {"note": 0, "velocity": 0, "duration": 152}, {"note": 69, "velocity": 77, "duration": 367}, {"note": 0, "velocity": 0, "duration": 113}, {"note": 72, "velocity": 79, "duration": 396}, {"note": 0, "velocity": 0, "duration": 84}, {"note": 69, "velocity": 78, "duration": 456}, {"note": 67, "velocity": 70, "duration": 454}, {"note": 69, "velocity": 77, "duration": 501}, {"note": 67, "velocity": 72, "duration": 669}, {"note": 65, "velocity": 73, "duration": 664}, {"note": 62, "velocity": 77, "duration": 454}, {"note": 60, "velocity": 78, "duration": 326}, {"note": 62, "velocity": 69, "duration": 159}, {"note": 65, "velocity": 76, "duration": 232}, {"note": 62, "velocity": 77, "duration": 223}, {"note": 65, "velocity": 77, "duration": 402}, {"note": 0, "velocity": 0, "duration": 78}, {"note": 69, "velocity": 78, "duration": 425}, {"note": 67, "velocity": 72, "duration": 722}, {"note": 69, "velocity": 77, "duration": 262}, {"note": 67, "velocity": 77, "duration": 501}, {"note": 0, "velocity": 0, "duration": 219}, {"note": 65, "velocity": 77, "duration": 238}, {"note": 65, "velocity": 78, "duration": 1386}, {"note": 62, "velocity": 78, "duration": 341}, {"note": 0, "velocity": 0, "duration": 139}, {"note": 67, "velocity": 72, "duration": 193}, {"note": 69, "velocity": 77, "duration": 169}, {"note": 0, "velocity": 0, "duration": 71}, {"note": 67, "velocity": 75, "duration": 129}, {"note": 0, "velocity": 0, "duration": 111}, {"note": 65, "velocity": 77, "duration": 140}, {"note": 0, "velocity": 0, "duration": 100}, {"note": 62, "velocity": 82, "duration": 462}, {"note": 0, "velocity": 0, "duration": 258}, {"note": 67, "velocity": 76, "duration": 449}, {"note": 69, "velocity": 78, "duration": 163}, {"note": 0, "velocity": 0, "duration": 77}, {"note": 67, "velocity": 79, "duration": 145}, {"note": 0, "velocity": 0, "duration": 95}, {"note": 65, "velocity": 76, "duration": 186}, {"note": 62, "velocity": 82, "duration": 357}, {"note": 0, "velocity": 0, "duration": 123}, {"note": 60, "velocity": 85, "duration": 161}, {"note": 0, "velocity": 0, "duration": 79}, {"note": 62, "velocity": 72, "duration": 120}, {"note": 0, "velocity": 0, "duration": 120}, {"note": 60, "velocity": 77, "duration": 395}, {"note": 0, "velocity": 0, "duration": 85}, {"note": 62, "velocity": 76, "duration": 392}, {"note": 0, "velocity": 0, "duration": 88}, {"note": 65, "velocity": 77, "duration": 392}, {"note": 0, "velocity": 0, "duration": 88}, {"note": 67, "velocity": 76, "duration": 422}, {"note": 69, "velocity": 77, "duration": 275}, {"note": 72, "velocity": 80, "duration": 198}, {"note": 69, "velocity": 77, "duration": 216}, {"note": 69, "velocity": 78, "duration": 718}, {"note": 0, "velocity": 0, "duration": 482}, {"note": 67, "velocity": 76, "duration": 160}, {"note": 0, "velocity": 0, "duration": 80}, {"note": 69, "velocity": 75, "duration": 168}, {"note": 0, "velocity": 0, "duration": 72}, {"note": 67, "velocity": 77, "duration": 214}, {"note": 65, "velocity": 76, "duration": 147}, {"note": 0, "velocity": 0, "duration": 93}, {"note": 62, "velocity": 77, "duration": 592}, {"note": 0, "velocity": 0, "duration": 128}, {"note": 67, "velocity": 77, "duration": 402}, {"note": 0, "velocity": 0, "duration": 78}, {"note": 69, "velocity": 78, "duration": 139}, {"note": 0, "velocity": 0, "duration": 101}, {"note": 67, "velocity": 76, "duration": 129}, {"note": 0, "velocity": 0, "duration": 111}, {"note": 65, "velocity": 82, "duration": 163}, {"note": 0, "velocity": 0, "duration": 77}, {"note": 62, "velocity": 78, "duration": 389}, {"note": 0, "velocity": 0, "duration": 91}, {"note": 67, "velocity": 64, "duration": 310}, {"note": 0, "velocity": 0, "duration": 170}, {"note": 69, "velocity": 78, "duration": 1743}, {"note": 0, "velocity": 0, "duration": 177}, {"note": 65, "velocity": 81, "duration": 810}, {"note": 0, "velocity": 0, "duration": 150}, {"note": 67, "velocity": 76, "duration": 823}, {"note": 0, "velocity": 0, "duration": 137}, {"note": 69, "velocity": 78, "duration": 163}, {"note": 0, "velocity": 0, "duration": 77}, {"note": 62, "velocity": 78, "duration": 214}, {"note": 69, "velocity": 78, "duration": 128}, {"note": 0, "velocity": 0, "duration": 112}, {"note": 69, "velocity": 76, "duration": 321}, {"note": 0, "velocity": 0, "duration": 159}, {"note": 69, "velocity": 80, "duration": 134}, {"note": 0, "velocity": 0, "duration": 106}, {"note": 69, "velocity": 76, "duration": 138}, {"note": 0, "velocity": 0, "duration": 102}, {"note": 69, "velocity": 78, "duration": 147}, {"note": 0, "velocity": 0, "duration": 93}, {"note": 67, "velocity": 70, "duration": 139}, {"note": 0, "velocity": 0, "duration": 101}, {"note": 69, "velocity": 77, "duration": 147}, {"note": 0, "velocity": 0, "duration": 93}, {"note": 72, "velocity": 75, "duration": 186}, {"note": 69, "velocity": 77, "duration": 125}, {"note": 0, "velocity": 0, "duration": 115}, {"note": 67, "velocity": 76, "duration": 344}, {"note": 0, "velocity": 0, "duration": 136}, {"note": 64, "velocity": 68, "duration": 238}, {"note": 65, "velocity": 70, "duration": 238}, {"note": 67, "velocity": 76, "duration": 151}, {"note": 0, "velocity": 0, "duration": 89}, {"note": 60, "velocity": 76, "duration": 139}, {"note": 0, "velocity": 0, "duration": 101}, {"note": 67, "velocity": 69, "duration": 134}, {"note": 0, "velocity": 0, "duration": 106}, {"note": 67, "velocity": 76, "duration": 274}, {"note": 0, "velocity": 0, "duration": 206}, {"note": 67, "velocity": 77, "duration": 146}, {"note": 0, "velocity": 0, "duration": 94}, {"note": 67, "velocity": 72, "duration": 115}, {"note": 0, "velocity": 0, "duration": 125}, {"note": 67, "velocity": 76, "duration": 101}, {"note": 0, "velocity": 0, "duration": 139}, {"note": 67, "velocity": 76, "duration": 132}, {"note": 0, "velocity": 0, "duration": 108}, {"note": 69, "velocity": 76, "duration": 134}, {"note": 0, "velocity": 0, "duration": 106}, {"note": 72, "velocity": 77, "duration": 147}, {"note": 0, "velocity": 0, "duration": 93}, {"note": 69, "velocity": 76, "duration": 122}, {"note": 0, "velocity": 0, "duration": 118}, {"note": 65, "velocity": 77, "duration": 351}, {"note": 0, "velocity": 0, "duration": 129}, {"note": 65, "velocity": 77, "duration": 150}, {"note": 0, "velocity": 0, "duration": 90}, {"note": 67, "velocity": 71, "duration": 132}, {"note": 0, "velocity": 0, "duration": 108}, {"note": 69, "velocity": 77, "duration": 612}, {"note": 0, "velocity": 0, "duration": 108}, {"note": 72, "velocity": 71, "duration": 522}, {"note": 0, "velocity": 0, "duration": 198}, {"note": 69, "velocity": 77, "duration": 384}, {"note": 0, "velocity": 0, "duration": 96}, {"note": 65, "velocity": 79, "duration": 659}, {"note": 0, "velocity": 0, "duration": 61}, {"note": 62, "velocity": 71, "duration": 537}, {"note": 0, "velocity": 0, "duration": 183}, {"note": 65, "velocity": 80, "duration": 139}, {"note": 0, "velocity": 0, "duration": 101}, {"note": 67, "velocity": 71, "duration": 138}, {"note": 0, "velocity": 0, "duration": 102}, {"note": 69, "velocity": 77, "duration": 478}, {"note": 67, "velocity": 66, "duration": 238}, {"note": 69, "velocity": 74, "duration": 307}, {"note": 0, "velocity": 0, "duration": 173}, {"note": 72, "velocity": 76, "duration": 138}, {"note": 0, "velocity": 0, "duration": 102}, {"note": 72, "velocity": 77, "duration": 360}, {"note": 0, "velocity": 0, "duration": 120}, {"note": 69, "velocity": 78, "duration": 1438}, {"note": 65, "velocity": 81, "duration": 238}, {"note": 67, "velocity": 76, "duration": 238}, {"note": 69, "velocity": 78, "duration": 163}, {"note": 0, "velocity": 0, "duration": 77}, {"note": 62, "velocity": 78, "duration": 214}, {"note": 69, "velocity": 78, "duration": 128}, {"note": 0, "velocity": 0, "duration": 112}, {"note": 69, "velocity": 76, "duration": 321}, {"note": 0, "velocity": 0, "duration": 159}, {"note": 69, "velocity": 80, "duration": 134}, {"note": 0, "velocity": 0, "duration": 106}, {"note": 69, "velocity": 76, "duration": 138}, {"note": 0, "velocity": 0, "duration": 102}, {"note": 69, "velocity": 78, "duration": 147}, {"note": 0, "velocity": 0, "duration": 93}, {"note": 67, "velocity": 70, "duration": 139}, {"note": 0, "velocity": 0, "duration": 101}, {"note": 69, "velocity": 77, "duration": 147}, {"note": 0, "velocity": 0, "duration": 93}, {"note": 72, "velocity": 75, "duration": 186}, {"note": 69, "velocity": 77, "duration": 125}, {"note": 0, "velocity": 0, "duration": 115}, {"note": 67, "velocity": 76, "duration": 344}, {"note": 0, "velocity": 0, "duration": 136}, {"note": 64, "velocity": 68, "duration": 238}, {"note": 65, "velocity": 70, "duration": 238}, {"note": 67, "velocity": 76, "duration": 151}, {"note": 0, "velocity": 0, "duration": 89}, {"note": 60, "velocity": 76, "duration": 139}, {"note": 0, "velocity": 0, "duration": 101}, {"note": 67, "velocity": 69, "duration": 134}, {"note": 0, "velocity": 0, "duration": 106}, {"note": 67, "velocity": 76, "duration": 274}, {"note": 0, "velocity": 0, "duration": 206}, {"note": 67, "velocity": 77, "duration": 146}, {"note": 0, "velocity": 0, "duration": 94}, {"note": 67, "velocity": 72, "duration": 115}, {"note": 0, "velocity": 0, "duration": 125}, {"note": 67, "velocity": 76, "duration": 101}, {"note": 0, "velocity": 0, "duration": 139}, {"note": 67, "velocity": 76, "duration": 132}, {"note": 0, "velocity": 0, "duration": 108}, {"note": 69, "velocity": 76, "duration": 134}, {"note": 0, "velocity": 0, "duration": 106}, {"note": 72, "velocity": 77, "duration": 147}, {"note": 0, "velocity": 0, "duration": 93}, {"note": 69, "velocity": 76, "duration": 122}, {"note": 0, "velocity": 0, "duration": 118}, {"note": 65, "velocity": 77, "duration": 351}, {"note": 0, "velocity": 0, "duration": 129}, {"note": 65, "velocity": 77, "duration": 150}, {"note": 0, "velocity": 0, "duration": 90}, {"note": 67, "velocity": 71, "duration": 132}, {"note": 0, "velocity": 0, "duration": 108}, {"note": 69, "velocity": 77, "duration": 612}, {"note": 0, "velocity": 0, "duration": 108}, {"note": 72, "velocity": 71, "duration": 522}, {"note": 0, "velocity": 0, "duration": 198}, {"note": 69, "velocity": 77, "duration": 384}, {"note": 0, "velocity": 0, "duration": 96}, {"note": 65, "velocity": 79, "duration": 659}, {"note": 0, "velocity": 0, "duration": 61}, {"note": 62, "velocity": 71, "duration": 537}, {"note": 0, "velocity": 0, "duration": 183}, {"note": 65, "velocity": 80, "duration": 139}, {"note": 0, "velocity": 0, "duration": 101}, {"note": 67, "velocity": 71, "duration": 138}, {"note": 0, "velocity": 0, "duration": 102}, {"note": 69, "velocity": 77, "duration": 478}, {"note": 0, "velocity": 0, "duration": 242}, {"note": 72, "velocity": 74, "duration": 601}, {"note": 0, "velocity": 0, "duration": 119}, {"note": 72, "velocity": 79, "duration": 449}, {"note": 67, "velocity": 72, "duration": 706}, {"note": 69, "velocity": 76, "duration": 672}, {"note": 67, "velocity": 76, "duration": 489}, {"note": 65, "velocity": 77, "duration": 2291}, {"note": 0, "velocity": 0, "duration": 12109}, {"note": 65, "velocity": 83, "duration": 452}, {"note": 67, "velocity": 77, "duration": 503}, {"note": 65, "velocity": 82, "duration": 821}, {"note": 0, "velocity": 0, "duration": 139}, {"note": 67, "velocity": 77, "duration": 464}, {"note": 69, "velocity": 80, "duration": 472}, {"note": 72, "velocity": 76, "duration": 473}, {"note": 69, "velocity": 77, "duration": 546}, {"note": 67, "velocity": 80, "duration": 436}, {"note": 69, "velocity": 82, "duration": 490}, {"note": 67, "velocity": 77, "duration": 621}, {"note": 0, "velocity": 0, "duration": 99}, {"note": 65, "velocity": 78, "duration": 643}, {"note": 0, "velocity": 0, "duration": 77}, {"note": 69, "velocity": 78, "duration": 379}, {"note": 0, "velocity": 0, "duration": 101}, {"note": 72, "velocity": 77, "duration": 412}, {"note": 0, "velocity": 0, "duration": 68}, {"note": 69, "velocity": 79, "duration": 445}, {"note": 67, "velocity": 77, "duration": 461}, {"note": 69, "velocity": 80, "duration": 435}, {"note": 67, "velocity": 76, "duration": 673}, {"note": 65, "velocity": 77, "duration": 635}, {"note": 0, "velocity": 0, "duration": 85}, {"note": 62, "velocity": 79, "duration": 443}, {"note": 60, "velocity": 80, "duration": 353}, {"note": 62, "velocity": 71, "duration": 118}, {"note": 65, "velocity": 78, "duration": 208}, {"note": 62, "velocity": 77, "duration": 298}, {"note": 65, "velocity": 78, "duration": 384}, {"note": 0, "velocity": 0, "duration": 96}, {"note": 69, "velocity": 76, "duration": 420}, {"note": 67, "velocity": 77, "duration": 727}, {"note": 69, "velocity": 77, "duration": 233}, {"note": 67, "velocity": 77, "duration": 465}, {"note": 65, "velocity": 76, "duration": 481}, {"note": 67, "velocity": 76, "duration": 908}, {"note": 65, "velocity": 79, "duration": 349}, {"note": 0, "velocity": 0, "duration": 131}, {"note": 67, "velocity": 69, "duration": 439}, {"note": 65, "velocity": 82, "duration": 690}, {"note": 0, "velocity": 0, "duration": 270}, {"note": 67, "velocity": 72, "duration": 327}, {"note": 0, "velocity": 0, "duration": 153}, {"note": 69, "velocity": 77, "duration": 385}, {"note": 0, "velocity": 0, "duration": 95}, {"note": 72, "velocity": 78, "duration": 413}, {"note": 0, "velocity": 0, "duration": 67}, {"note": 69, "velocity": 77, "duration": 472}, {"note": 67, "velocity": 76, "duration": 511}, {"note": 69, "velocity": 76, "duration": 471}, {"note": 67, "velocity": 76, "duration": 661}, {"note": 65, "velocity": 77, "duration": 568}, {"note": 0, "velocity": 0, "duration": 152}, {"note": 69, "velocity": 77, "duration": 367}, {"note": 0, "velocity": 0, "duration": 113}, {"note": 72, "velocity": 79, "duration": 396}, {"note": 0, "velocity": 0, "duration": 84}, {"note": 69, "velocity": 78, "duration": 456}, {"note": 67, "velocity": 70, "duration": 454}, {"note": 69, "velocity": 77, "duration": 501}, {"note": 67, "velocity": 72, "duration": 669}, {"note": 65, "velocity": 73, "duration": 664}, {"note": 62, "velocity": 77, "duration": 454}, {"note": 60, "velocity": 78, "duration": 326}, {"note": 62, "velocity": 69, "duration": 159}, {"note": 65, "velocity": 76, "duration": 232}, {"note": 62, "velocity": 77, "duration": 223}, {"note": 65, "velocity": 77, "duration": 402}, {"note": 0, "velocity": 0, "duration": 78}, {"note": 69, "velocity": 78, "duration": 425}, {"note": 67, "velocity": 72, "duration": 722}, {"note": 69, "velocity": 77, "duration": 262}, {"note": 67, "velocity": 77, "duration": 501}, {"note": 0, "velocity": 0, "duration": 219}, {"note": 65, "velocity": 77, "duration": 238}, {"note": 65, "velocity": 78, "duration": 1386}, {"note": 62, "velocity": 78, "duration": 341}, {"note": 0, "velocity": 0, "duration": 139}, {"note": 67, "velocity": 72, "duration": 193}, {"note": 69, "velocity": 77, "duration": 169}, {"note": 0, "velocity": 0, "duration": 71}, {"note": 67, "velocity": 75, "duration": 129}, {"note": 0, "velocity": 0, "duration": 111}, {"note": 65, "velocity": 77, "duration": 140}, {"note": 0, "velocity": 0, "duration": 100}, {"note": 62, "velocity": 82, "duration": 462}, {"note": 0, "velocity": 0, "duration": 258}, {"note": 67, "velocity": 76, "duration": 449}, {"note": 69, "velocity": 78, "duration": 163}, {"note": 0, "velocity": 0, "duration": 77}, {"note": 67, "velocity": 79, "duration": 145}, {"note": 0, "velocity": 0, "duration": 95}, {"note": 65, "velocity": 76, "duration": 186}, {"note": 62, "velocity": 82, "duration": 357}, {"note": 0, "velocity": 0, "duration": 123}, {"note": 60, "velocity": 85, "duration": 161}, {"note": 0, "velocity": 0, "duration": 79}, {"note": 62, "velocity": 72, "duration": 120}, {"note": 0, "velocity": 0, "duration": 120}, {"note": 60, "velocity": 77, "duration": 395}, {"note": 0, "velocity": 0, "duration": 85}, {"note": 62, "velocity": 76, "duration": 392}, {"note": 0, "velocity": 0, "duration": 88}, {"note": 65, "velocity": 77, "duration": 392}, {"note": 0, "velocity": 0, "duration": 88}, {"note": 67, "velocity": 76, "duration": 422}, {"note": 69, "velocity": 77, "duration": 275}, {"note": 72, "velocity": 80, "duration": 198}, {"note": 69, "velocity": 77, "duration": 216}, {"note": 69, "velocity": 78, "duration": 718}, {"note": 0, "velocity": 0, "duration": 482}, {"note": 67, "velocity": 76, "duration": 160}, {"note": 0, "velocity": 0, "duration": 80}, {"note": 69, "velocity": 75, "duration": 168}, {"note": 0, "velocity": 0, "duration": 72}, {"note": 67, "velocity": 77, "duration": 214}, {"note": 65, "velocity": 76, "duration": 147}, {"note": 0, "velocity": 0, "duration": 93}, {"note": 62, "velocity": 77, "duration": 592}, {"note": 0, "velocity": 0, "duration": 128}, {"note": 67, "velocity": 77, "duration": 402}, {"note": 0, "velocity": 0, "duration": 78}, {"note": 69, "velocity": 78, "duration": 139}, {"note": 0, "velocity": 0, "duration": 101}, {"note": 67, "velocity": 76, "duration": 129}, {"note": 0, "velocity": 0, "duration": 111}, {"note": 65, "velocity": 82, "duration": 163}, {"note": 0, "velocity": 0, "duration": 77}, {"note": 62, "velocity": 78, "duration": 389}, {"note": 0, "velocity": 0, "duration": 91}, {"note": 67, "velocity": 64, "duration": 310}, {"note": 0, "velocity": 0, "duration": 170}, {"note": 69, "velocity": 78, "duration": 1743}, {"note": 0, "velocity": 0, "duration": 177}, {"note": 65, "velocity": 81, "duration": 810}, {"note": 0, "velocity": 0, "duration": 150}, {"note": 67, "velocity": 76, "duration": 823}, {"note": 0, "velocity": 0, "duration": 137}, {"note": 69, "velocity": 78, "duration": 163}, {"note": 0, "velocity": 0, "duration": 77}, {"note": 62, "velocity": 78, "duration": 214}, {"note": 69, "velocity": 78, "duration": 128}, {"note": 0, "velocity": 0, "duration": 112}, {"note": 69, "velocity": 76, "duration": 321}, {"note": 0, "velocity": 0, "duration": 159}, {"note": 69, "velocity": 80, "duration": 134}, {"note": 0, "velocity": 0, "duration": 106}, {"note": 69, "velocity": 76, "duration": 138}, {"note": 0, "velocity": 0, "duration": 102}, {"note": 69, "velocity": 78, "duration": 147}, {"note": 0, "velocity": 0, "duration": 93}, {"note": 67, "velocity": 70, "duration": 139}, {"note": 0, "velocity": 0, "duration": 101}, {"note": 69, "velocity": 77, "duration": 147}, {"note": 0, "velocity": 0, "duration": 93}, {"note": 72, "velocity": 75, "duration": 186}, {"note": 69, "velocity": 77, "duration": 125}, {"note": 0, "velocity": 0, "duration": 115}, {"note": 67, "velocity": 76, "duration": 344}, {"note": 0, "velocity": 0, "duration": 136}, {"note": 64, "velocity": 68, "duration": 238}, {"note": 65, "velocity": 70, "duration": 238}, {"note": 67, "velocity": 76, "duration": 151}, {"note": 0, "velocity": 0, "duration": 89}, {"note": 60, "velocity": 76, "duration": 139}, {"note": 0, "velocity": 0, "duration": 101}, {"note": 67, "velocity": 69, "duration": 134}, {"note": 0, "velocity": 0, "duration": 106}, {"note": 67, "velocity": 76, "duration": 274}, {"note": 0, "velocity": 0, "duration": 206}, {"note": 67, "velocity": 77, "duration": 146}, {"note": 0, "velocity": 0, "duration": 94}, {"note": 67, "velocity": 72, "duration": 115}, {"note": 0, "velocity": 0, "duration": 125}, {"note": 67, "velocity": 76, "duration": 101}, {"note": 0, "velocity": 0, "duration": 139}, {"note": 67, "velocity": 76, "duration": 132}, {"note": 0, "velocity": 0, "duration": 108}, {"note": 69, "velocity": 76, "duration": 134}, {"note": 0, "velocity": 0, "duration": 106}, {"note": 72, "velocity": 77, "duration": 147}, {"note": 0, "velocity": 0, "duration": 93}, {"note": 69, "velocity": 76, "duration": 122}, {"note": 0, "velocity": 0, "duration": 118}, {"note": 65, "velocity": 77, "duration": 351}, {"note": 0, "velocity": 0, "duration": 129}, {"note": 65, "velocity": 77, "duration": 150}, {"note": 0, "velocity": 0, "duration": 90}, {"note": 67, "velocity": 71, "duration": 132}, {"note": 0, "velocity": 0, "duration": 108}, {"note": 69, "velocity": 77, "duration": 612}, {"note": 0, "velocity": 0, "duration": 108}, {"note": 72, "velocity": 71, "duration": 522}, {"note": 0, "velocity": 0, "duration": 198}, {"note": 69, "velocity": 77, "duration": 384}, {"note": 0, "velocity": 0, "duration": 96}, {"note": 65, "velocity": 79, "duration": 659}, {"note": 0, "velocity": 0, "duration": 61}, {"note": 62, "velocity": 71, "duration": 537}, {"note": 0, "velocity": 0, "duration": 183}, {"note": 65, "velocity": 80, "duration": 139}, {"note": 0, "velocity": 0, "duration": 101}, {"note": 67, "velocity": 71, "duration": 138}, {"note": 0, "velocity": 0, "duration": 102}, {"note": 69, "velocity": 77, "duration": 478}, {"note": 67, "velocity": 66, "duration": 238}, {"note": 69, "velocity": 74, "duration": 307}, {"note": 0, "velocity": 0, "duration": 173}, {"note": 72, "velocity": 76, "duration": 138}, {"note": 0, "velocity": 0, "duration": 102}, {"note": 72, "velocity": 77, "duration": 360}, {"note": 0, "velocity": 0, "duration": 120}, {"note": 69, "velocity": 78, "duration": 1438}, {"note": 65, "velocity": 81, "duration": 238}, {"note": 67, "velocity": 76, "duration": 238}, {"note": 69, "velocity": 78, "duration": 163}, {"note": 0, "velocity": 0, "duration": 77}, {"note": 62, "velocity": 78, "duration": 214}, {"note": 69, "velocity": 78, "duration": 128}, {"note": 0, "velocity": 0, "duration": 112}, {"note": 69, "velocity": 76, "duration": 321}, {"note": 0, "velocity": 0, "duration": 159}, {"note": 69, "velocity": 80, "duration": 134}, {"note": 0, "velocity": 0, "duration": 106}, {"note": 69, "velocity": 76, "duration": 138}, {"note": 0, "velocity": 0, "duration": 102}, {"note": 69, "velocity": 78, "duration": 147}, {"note": 0, "velocity": 0, "duration": 93}, {"note": 67, "velocity": 70, "duration": 139}, {"note": 0, "velocity": 0, "duration": 101}, {"note": 69, "velocity": 77, "duration": 147}, {"note": 0, "velocity": 0, "duration": 93}, {"note": 72, "velocity": 75, "duration": 186}, {"note": 69, "velocity": 77, "duration": 125}, {"note": 0, "velocity": 0, "duration": 115}, {"note": 67, "velocity": 76, "duration": 344}, {"note": 0, "velocity": 0, "duration": 136}, {"note": 64, "velocity": 68, "duration": 238}, {"note": 65, "velocity": 70, "duration": 238}, {"note": 67, "velocity": 76, "duration": 151}, {"note": 0, "velocity": 0, "duration": 89}, {"note": 60, "velocity": 76, "duration": 139}, {"note": 0, "velocity": 0, "duration": 101}, {"note": 67, "velocity": 69, "duration": 134}, {"note": 0, "velocity": 0, "duration": 106}, {"note": 67, "velocity": 76, "duration": 274}, {"note": 0, "velocity": 0, "duration": 206}, {"note": 67, "velocity": 77, "duration": 146}, {"note": 0, "velocity": 0, "duration": 94}, {"note": 67, "velocity": 72, "duration": 115}, {"note": 0, "velocity": 0, "duration": 125}, {"note": 67, "velocity": 76, "duration": 101}, {"note": 0, "velocity": 0, "duration": 139}, {"note": 67, "velocity": 76, "duration": 132}, {"note": 0, "velocity": 0, "duration": 108}, {"note": 69, "velocity": 76, "duration": 134}, {"note": 0, "velocity": 0, "duration": 106}, {"note": 72, "velocity": 77, "duration": 147}, {"note": 0, "velocity": 0, "duration": 93}, {"note": 69, "velocity": 76, "duration": 122}, {"note": 0, "velocity": 0, "duration": 118}, {"note": 65, "velocity": 77, "duration": 351}, {"note": 0, "velocity": 0, "duration": 129}, {"note": 65, "velocity": 77, "duration": 150}, {"note": 0, "velocity": 0, "duration": 90}, {"note": 67, "velocity": 71, "duration": 132}, {"note": 0, "velocity": 0, "duration": 108}, {"note": 69, "velocity": 77, "duration": 612}, {"note": 0, "velocity": 0, "duration": 108}, {"note": 72, "velocity": 71, "duration": 522}, {"note": 0, "velocity": 0, "duration": 198}, {"note": 69, "velocity": 77, "duration": 384}, {"note": 0, "velocity": 0, "duration": 96}, {"note": 65, "velocity": 79, "duration": 659}, {"note": 0, "velocity": 0, "duration": 61}, {"note": 62, "velocity": 71, "duration": 537}, {"note": 0, "velocity": 0, "duration": 183}, {"note": 65, "velocity": 80, "duration": 139}, {"note": 0, "velocity": 0, "duration": 101}, {"note": 67, "velocity": 71, "duration": 138}, {"note": 0, "velocity": 0, "duration": 102}, {"note": 69, "velocity": 77, "duration": 478}, {"note": 0, "velocity": 0, "duration": 242}, {"note": 72, "velocity": 74, "duration": 601}, {"note": 0, "velocity": 0, "duration": 119}, {"note": 72, "velocity": 79, "duration": 449}, {"note": 67, "velocity": 72, "duration": 706}, {"note": 69, "velocity": 76, "duration": 672}, {"note": 67, "velocity": 76, "duration": 489}, {"note": 65, "velocity": 77, "duration": 2291}, {"note": 0, "velocity": 0, "duration": 12589}, {"note": 62, "velocity": 77, "duration": 151}, {"note": 0, "velocity": 0, "duration": 89}, {"note": 65, "velocity": 76, "duration": 135}, {"note": 0, "velocity": 0, "duration": 105}, {"note": 67, "velocity": 74, "duration": 347}, {"note": 0, "velocity": 0, "duration": 133}, {"note": 69, "velocity": 76, "duration": 355}, {"note": 0, "velocity": 0, "duration": 125}, {"note": 62, "velocity": 78, "duration": 346}, {"note": 0, "velocity": 0, "duration": 134}, {"note": 62, "velocity": 79, "duration": 138}, {"note": 0, "velocity": 0, "duration": 102}, {"note": 65, "velocity": 72, "duration": 132}, {"note": 0, "velocity": 0, "duration": 108}, {"note": 67, "velocity": 72, "duration": 132}, {"note": 0, "velocity": 0, "duration": 108}, {"note": 69, "velocity": 75, "duration": 134}, {"note": 0, "velocity": 0, "duration": 106}, {"note": 72, "velocity": 71, "duration": 139}, {"note": 0, "velocity": 0, "duration": 101}, {"note": 69, "velocity": 76, "duration": 134}, {"note": 0, "velocity": 0, "duration": 106}, {"note": 67, "velocity": 73, "duration": 300}, {"note": 0, "velocity": 0, "duration": 180}, {"note": 60, "velocity": 78, "duration": 179}, {"note": 0, "velocity": 0, "duration": 61}, {"note": 65, "velocity": 77, "duration": 139}, {"note": 0, "velocity": 0, "duration": 101}, {"note": 67, "velocity": 78, "duration": 342}, {"note": 0, "velocity": 0, "duration": 138}, {"note": 69, "velocity": 76, "duration": 378}, {"note": 0, "velocity": 0, "duration": 102}, {"note": 60, "velocity": 80, "duration": 348}, {"note": 0, "velocity": 0, "duration": 132}, {"note": 60, "velocity": 80, "duration": 141}, {"note": 0, "velocity": 0, "duration": 99}, {"note": 65, "velocity": 76, "duration": 126}, {"note": 0, "velocity": 0, "duration": 114}, {"note": 67, "velocity": 71, "duration": 134}, {"note": 0, "velocity": 0, "duration": 106}, {"note": 69, "velocity": 69, "duration": 128}, {"note": 0, "velocity": 0, "duration": 112}, {"note": 72, "velocity": 74, "duration": 132}, {"note": 0, "velocity": 0, "duration": 108}, {"note": 69, "velocity": 68, "duration": 135}, {"note": 0, "velocity": 0, "duration": 105}, {"note": 65, "velocity": 73, "duration": 323}, {"note": 0, "velocity": 0, "duration": 397}, {"note": 65, "velocity": 78, "duration": 154}, {"note": 0, "velocity": 0, "duration": 86}, {"note": 67, "velocity": 71, "duration": 361}, {"note": 0, "velocity": 0, "duration": 119}, {"note": 69, "velocity": 77, "duration": 392}, {"note": 0, "velocity": 0, "duration": 88}, {"note": 62, "velocity": 78, "duration": 332}, {"note": 0, "velocity": 0, "duration": 148}, {"note": 62, "velocity": 77, "duration": 134}, {"note": 0, "velocity": 0, "duration": 106}, {"note": 65, "velocity": 78, "duration": 131}, {"note": 0, "velocity": 0, "duration": 109}, {"note": 67, "velocity": 72, "duration": 126}, {"note": 0, "velocity": 0, "duration": 114}, {"note": 69, "velocity": 73, "duration": 135}, {"note": 0, "velocity": 0, "duration": 105}, {"note": 72, "velocity": 76, "duration": 121}, {"note": 0, "velocity": 0, "duration": 119}, {"note": 69, "velocity": 71, "duration": 121}, {"note": 0, "velocity": 0, "duration": 119}, {"note": 67, "velocity": 71, "duration": 360}, {"note": 0, "velocity": 0, "duration": 120}, {"note": 65, "velocity": 77, "duration": 151}, {"note": 0, "velocity": 0, "duration": 89}, {"note": 67, "velocity": 72, "duration": 146}, {"note": 0, "velocity": 0, "duration": 94}, {"note": 69, "velocity": 77, "duration": 389}, {"note": 0, "velocity": 0, "duration": 91}, {"note": 67, "velocity": 76, "duration": 156}, {"note": 0, "velocity": 0, "duration": 84}, {"note": 69, "velocity": 77, "duration": 641}, {"note": 0, "velocity": 0, "duration": 79}, {"note": 72, "velocity": 76, "duration": 373}, {"note": 0, "velocity": 0, "duration": 107}, {"note": 69, "velocity": 78, "duration": 478}, {"note": 65, "velocity": 81, "duration": 810}, {"note": 0, "velocity": 0, "duration": 150}, {"note": 67, "velocity": 76, "duration": 823}, {"note": 0, "velocity": 0, "duration": 137}, {"note": 69, "velocity": 78, "duration": 163}, {"note": 0, "velocity": 0, "duration": 77}, {"note": 62, "velocity": 78, "duration": 214}, {"note": 69, "velocity": 78, "duration": 128}, {"note": 0, "velocity": 0, "duration": 112}, {"note": 69, "velocity": 76, "duration": 321}, {"note": 0, "velocity": 0, "duration": 159}, {"note": 69, "velocity": 80, "duration": 134}, {"note": 0, "velocity": 0, "duration": 106}, {"note": 69, "velocity": 76, "duration": 138}, {"note": 0, "velocity": 0, "duration": 102}, {"note": 69, "velocity": 78, "duration": 147}, {"note": 0, "velocity": 0, "duration": 93}, {"note": 67, "velocity": 70, "duration": 139}, {"note": 0, "velocity": 0, "duration": 101}, {"note": 69, "velocity": 77, "duration": 147}, {"note": 0, "velocity": 0, "duration": 93}, {"note": 72, "velocity": 75, "duration": 186}, {"note": 69, "velocity": 77, "duration": 125}, {"note": 0, "velocity": 0, "duration": 115}, {"note": 67, "velocity": 76, "duration": 344}, {"note": 0, "velocity": 0, "duration": 136}, {"note": 64, "velocity": 68, "duration": 238}, {"note": 65, "velocity": 70, "duration": 238}, {"note": 67, "velocity": 76, "duration": 151}, {"note": 0, "velocity": 0, "duration": 89}, {"note": 60, "velocity": 76, "duration": 139}, {"note": 0, "velocity": 0, "duration": 101}, {"note": 67, "velocity": 69, "duration": 134}, {"note": 0, "velocity": 0, "duration": 106}, {"note": 67, "velocity": 76, "duration": 274}, {"note": 0, "velocity": 0, "duration": 206}, {"note": 67, "velocity": 77, "duration": 146}, {"note": 0, "velocity": 0, "duration": 94}, {"note": 67, "velocity": 72, "duration": 115}, {"note": 0, "velocity": 0, "duration": 125}, {"note": 67, "velocity": 76, "duration": 101}, {"note": 0, "velocity": 0, "duration": 139}, {"note": 67, "velocity": 76, "duration": 132}, {"note": 0, "velocity": 0, "duration": 108}, {"note": 69, "velocity": 76, "duration": 134}, {"note": 0, "velocity": 0, "duration": 106}, {"note": 72, "velocity": 77, "duration": 147}, {"note": 0, "velocity": 0, "duration": 93}, {"note": 69, "velocity": 76, "duration": 122}, {"note": 0, "velocity": 0, "duration": 118}, {"note": 65, "velocity": 77, "duration": 351}, {"note": 0, "velocity": 0, "duration": 129}, {"note": 65, "velocity": 77, "duration": 150}, {"note": 0, "velocity": 0, "duration": 90}, {"note": 67, "velocity": 71, "duration": 132}, {"note": 0, "velocity": 0, "duration": 108}, {"note": 69, "velocity": 77, "duration": 612}, {"note": 0, "velocity": 0, "duration": 108}, {"note": 72, "velocity": 71, "duration": 522}, {"note": 0, "velocity": 0, "duration": 198}, {"note": 69, "velocity": 77, "duration": 384}, {"note": 0, "velocity": 0, "duration": 96}, {"note": 65, "velocity": 79, "duration": 659}, {"note": 0, "velocity": 0, "duration": 61}, {"note": 62, "velocity": 71, "duration": 537}, {"note": 0, "velocity": 0, "duration": 183}, {"note": 65, "velocity": 80, "duration": 139}, {"note": 0, "velocity": 0, "duration": 101}, {"note": 67, "velocity": 71, "duration": 138}, {"note": 0, "velocity": 0, "duration": 102}, {"note": 69, "velocity": 77, "duration": 478}, {"note": 67, "velocity": 66, "duration": 238}, {"note": 69, "velocity": 74, "duration": 307}, {"note": 0, "velocity": 0, "duration": 173}, {"note": 72, "velocity": 76, "duration": 138}, {"note": 0, "velocity": 0, "duration": 102}, {"note": 72, "velocity": 77, "duration": 360}, {"note": 0, "velocity": 0, "duration": 120}, {"note": 69, "velocity": 78, "duration": 1438}, {"note": 65, "velocity": 81, "duration": 238}, {"note": 67, "velocity": 76, "duration": 238}, {"note": 69, "velocity": 78, "duration": 163}, {"note": 0, "velocity": 0, "duration": 77}, {"note": 62, "velocity": 78, "duration": 214}, {"note": 69, "velocity": 78, "duration": 128}, {"note": 0, "velocity": 0, "duration": 112}, {"note": 69, "velocity": 76, "duration": 321}, {"note": 0, "velocity": 0, "duration": 159}, {"note": 69, "velocity": 80, "duration": 134}, {"note": 0, "velocity": 0, "duration": 106}, {"note": 69, "velocity": 76, "duration": 138}, {"note": 0, "velocity": 0, "duration": 102}, {"note": 69, "velocity": 78, "duration": 147}, {"note": 0, "velocity": 0, "duration": 93}, {"note": 67, "velocity": 70, "duration": 139}, {"note": 0, "velocity": 0, "duration": 101}, {"note": 69, "velocity": 77, "duration": 147}, {"note": 0, "velocity": 0, "duration": 93}, {"note": 72, "velocity": 75, "duration": 186}, {"note": 69, "velocity": 77, "duration": 125}, {"note": 0, "velocity": 0, "duration": 115}, {"note": 67, "velocity": 76, "duration": 344}, {"note": 0, "velocity": 0, "duration": 136}, {"note": 64, "velocity": 68, "duration": 238}, {"note": 65, "velocity": 70, "duration": 238}, {"note": 67, "velocity": 76, "duration": 151}, {"note": 0, "velocity": 0, "duration": 89}, {"note": 60, "velocity": 76, "duration": 139}, {"note": 0, "velocity": 0, "duration": 101}, {"note": 67, "velocity": 69, "duration": 134}, {"note": 0, "velocity": 0, "duration": 106}, {"note": 67, "velocity": 76, "duration": 274}, {"note": 0, "velocity": 0, "duration": 206}, {"note": 67, "velocity": 77, "duration": 146}, {"note": 0, "velocity": 0, "duration": 94}, {"note": 67, "velocity": 72, "duration": 115}, {"note": 0, "velocity": 0, "duration": 125}, {"note": 67, "velocity": 76, "duration": 101}, {"note": 0, "velocity": 0, "duration": 139}, {"note": 67, "velocity": 76, "duration": 132}, {"note": 0, "velocity": 0, "duration": 108}, {"note": 69, "velocity": 76, "duration": 134}, {"note": 0, "velocity": 0, "duration": 106}, {"note": 72, "velocity": 77, "duration": 147}, {"note": 0, "velocity": 0, "duration": 93}, {"note": 69, "velocity": 76, "duration": 122}, {"note": 0, "velocity": 0, "duration": 118}, {"note": 65, "velocity": 77, "duration": 351}, {"note": 0, "velocity": 0, "duration": 129}, {"note": 65, "velocity": 77, "duration": 150}, {"note": 0, "velocity": 0, "duration": 90}, {"note": 67, "velocity": 71, "duration": 132}, {"note": 0, "velocity": 0, "duration": 108}, {"note": 69, "velocity": 77, "duration": 612}, {"note": 0, "velocity": 0, "duration": 108}, {"note": 72, "velocity": 71, "duration": 522}, {"note": 0, "velocity": 0, "duration": 198}, {"note": 69, "velocity": 77, "duration": 384}, {"note": 0, "velocity": 0, "duration": 96}, {"note": 65, "velocity": 79, "duration": 659}, {"note": 0, "velocity": 0, "duration": 61}, {"note": 62, "velocity": 71, "duration": 537}, {"note": 0, "velocity": 0, "duration": 183}, {"note": 65, "velocity": 80, "duration": 139}, {"note": 0, "velocity": 0, "duration": 101}, {"note": 67, "velocity": 71, "duration": 138}, {"note": 0, "velocity": 0, "duration": 102}, {"note": 69, "velocity": 77, "duration": 478}, {"note": 0, "velocity": 0, "duration": 242}, {"note": 72, "velocity": 74, "duration": 601}, {"note": 0, "velocity": 0, "duration": 119}, {"note": 72, "velocity": 79, "duration": 449}, {"note": 67, "velocity": 72, "duration": 706}, {"note": 69, "velocity": 76, "duration": 672}, {"note": 67, "velocity": 76, "duration": 489}, {"note": 65, "velocity": 77, "duration": 2291}]]