[[{"note": 71, "velocity": 82, "duration": 374}, {"note": 0, "velocity": 0, "duration": 106}, {"note": 68, "velocity": 80, "duration": 227}, {"note": 71, "velocity": 80, "duration": 208}, {"note": 66, "velocity": 79, "duration": 80}, {"note": 66, "velocity": 77, "duration": 202}, {"note": 68, "velocity": 79, "duration": 157}, {"note": 66, "velocity": 78, "duration": 247}, {"note": 68, "velocity": 78, "duration": 210}, {"note": 63, "velocity": 85, "duration": 231}, {"note": 66, "velocity": 77, "duration": 216}, {"note": 61, "velocity": 82, "duration": 257}, {"note": 63, "velocity": 83, "duration": 236}, {"note": 66, "velocity": 80, "duration": 780}, {"note": 0, "velocity": 0, "duration": 180}, {"note": 68, "velocity": 81, "duration": 267}, {"note": 71, "velocity": 81, "duration": 254}, {"note": 73, "velocity": 78, "duration": 127}, {"note": 71, "velocity": 80, "duration": 123}, {"note": 68, "velocity": 80, "duration": 284}, {"note": 66, "velocity": 80, "duration": 265}, {"note": 68, "velocity": 79, "duration": 260}, {"note": 63, "velocity": 78, "duration": 480}, {"note": 61, "velocity": 81, "duration": 232}, {"note": 59, "velocity": 79, "duration": 273}, {"note": 56, "velocity": 79, "duration": 253}, {"note": 59, "velocity": 80, "duration": 245}, {"note": 54, "velocity": 77, "duration": 768}, {"note": 0, "velocity": 0, "duration": 192}, {"note": 56, "velocity": 78, "duration": 270}, {"note": 59, "velocity": 79, "duration": 230}, {"note": 61, "velocity": 78, "duration": 283}, {"note": 63, "velocity": 82, "duration": 244}, {"note": 66, "velocity": 70, "duration": 663}, {"note": 0, "velocity": 0, "duration": 297}, {"note": 71, "velocity": 83, "duration": 282}, {"note": 68, "velocity": 77, "duration": 241}, {"note": 66, "velocity": 79, "duration": 246}, {"note": 63, "velocity": 83, "duration": 248}, {"note": 66, "velocity": 78, "duration": 854}, {"note": 0, "velocity": 0, "duration": 106}, {"note": 71, "velocity": 82, "duration": 374}, {"note": 0, "velocity": 0, "duration": 106}, {"note": 68, "velocity": 80, "duration": 227}, {"note": 71, "velocity": 80, "duration": 208}, {"note": 66, "velocity": 79, "duration": 80}, {"note": 66, "velocity": 77, "duration": 202}, {"note": 68, "velocity": 79, "duration": 157}, {"note": 66, "velocity": 78, "duration": 247}, {"note": 68, "velocity": 78, "duration": 210}, {"note": 63, "velocity": 85, "duration": 231}, {"note": 66, "velocity": 77, "duration": 216}, {"note": 61, "velocity": 82, "duration": 257}, {"note": 63, "velocity": 83, "duration": 236}, {"note": 66, "velocity": 80, "duration": 780}, {"note": 0, "velocity": 0, "duration": 180}, {"note": 68, "velocity": 81, "duration": 267}, {"note": 71, "velocity": 81, "duration": 254}, {"note": 73, "velocity": 78, "duration": 127}, {"note": 71, "velocity": 80, "duration": 123}, {"note": 68, "velocity": 80, "duration": 284}, {"note": 66, "velocity": 80, "duration": 265}, {"note": 68, "velocity": 79, "duration": 260}, {"note": 63, "velocity": 78, "duration": 480}, {"note": 61, "velocity": 81, "duration": 232}, {"note": 59, "velocity": 79, "duration": 273}, {"note": 56, "velocity": 79, "duration": 253}, {"note": 59, "velocity": 80, "duration": 245}, {"note": 54, "velocity": 77, "duration": 768}, {"note": 0, "velocity": 0, "duration": 192}, {"note": 56, "velocity": 78, "duration": 270}, {"note": 59, "velocity": 79, "duration": 230}, {"note": 61, "velocity": 78, "duration": 283}, {"note": 63, "velocity": 82, "duration": 244}, {"note": 66, "velocity": 70, "duration": 663}, {"note": 0, "velocity": 0, "duration": 297}, {"note": 71, "velocity": 83, "duration": 282}, {"note": 68, "velocity": 77, "duration": 241}, {"note": 66, "velocity": 79, "duration": 246}, {"note": 63, "velocity": 83, "duration": 248}, {"note": 66, "velocity": 78, "duration": 854}, {"note": 0, "velocity": 0, "duration": 106}, {"note": 71, "velocity": 82, "duration": 374}, {"note": 0, "velocity": 0, "duration": 106}, {"note": 68, "velocity": 80, "duration": 227}, {"note": 71, "velocity": 80, "duration": 208}, {"note": 66, "velocity": 79, "duration": 80}, {"note": 66, "velocity": 77, "duration": 202}, {"note": 68, "velocity": 79, "duration": 157}, {"note": 66, "velocity": 78, "duration": 247}, {"note": 68, "velocity": 78, "duration": 210}, {"note": 63, "velocity": 85, "duration": 231}, {"note": 66, "velocity": 77, "duration": 216}, {"note": 61, "velocity": 82, "duration": 257}, {"note": 63, "velocity": 83, "duration": 236}, {"note": 66, "velocity": 80, "duration": 780}, {"note": 0, "velocity": 0, "duration": 180}, {"note": 68, "velocity": 81, "duration": 267}, {"note": 71, "velocity": 81, "duration": 254}, {"note": 73, "velocity": 78, "duration": 127}, {"note": 71, "velocity": 80, "duration": 123}, {"note": 68, "velocity": 80, "duration": 284}, {"note": 66, "velocity": 80, "duration": 265}, {"note": 68, "velocity": 79, "duration": 260}, {"note": 63, "velocity": 78, "duration": 480}, {"note": 61, "velocity": 81, "duration": 232}, {"note": 59, "velocity": 79, "duration": 273}, {"note": 56, "velocity": 79, "duration": 253}, {"note": 59, "velocity": 80, "duration": 245}, {"note": 54, "velocity": 77, "duration": 768}, {"note": 0, "velocity": 0, "duration": 192}, {"note": 56, "velocity": 78, "duration": 270}, {"note": 59, "velocity": 79, "duration": 230}, {"note": 61, "velocity": 78, "duration": 283}, {"note": 63, "velocity": 82, "duration": 244}, {"note": 66, "velocity": 70, "duration": 663}, {"note": 0, "velocity": 0, "duration": 297}, {"note": 71, "velocity": 83, "duration": 282}, {"note": 68, "velocity": 77, "duration": 241}, {"note": 66, "velocity": 79, "duration": 246}, {"note": 63, "velocity": 83, "duration": 248}, {"note": 66, "velocity": 78, "duration": 854}, {"note": 0, "velocity": 0, "duration": 106}, {"note": 71, "velocity": 82, "duration": 374}, {"note": 0, "velocity": 0, "duration": 106}, {"note": 68, "velocity": 80, "duration": 227}, {"note": 71, "velocity": 80, "duration": 208}, {"note": 66, "velocity": 79, "duration": 80}, {"note": 66, "velocity": 77, "duration": 202}, {"note": 68, "velocity": 79, "duration": 157}, {"note": 66, "velocity": 78, "duration": 247}, {"note": 68, "velocity": 78, "duration": 210}, {"note": 63, "velocity": 85, "duration": 231}, {"note": 66, "velocity": 77, "duration": 216}, {"note": 61, "velocity": 82, "duration": 257}, {"note": 63, "velocity": 83, "duration": 236}, {"note": 66, "velocity": 80, "duration": 780}, {"note": 0, "velocity": 0, "duration": 180}, {"note": 68, "velocity": 81, "duration": 267}, {"note": 71, "velocity": 81, "duration": 254}, {"note": 73, "velocity": 78, "duration": 127}, {"note": 71, "velocity": 80, "duration": 123}, {"note": 68, "velocity": 80, "duration": 284}, {"note": 66, "velocity": 80, "duration": 265}, {"note": 68, "velocity": 79, "duration": 260}, {"note": 63, "velocity": 78, "duration": 480}, {"note": 61, "velocity": 81, "duration": 232}, {"note": 59, "velocity": 79, "duration": 273}, {"note": 56, "velocity": 79, "duration": 253}, {"note": 59, "velocity": 80, "duration": 240}, {"note": 59, "velocity": 77, "duration": 768}, {"note": 0, "velocity": 0, "duration": 192}, {"note": 61, "velocity": 85, "duration": 331}, {"note": 63, "velocity": 72, "duration": 64}, {"note": 63, "velocity": 81, "duration": 180}, {"note": 63, "velocity": 84, "duration": 209}, {"note": 61, "velocity": 79, "duration": 843}, {"note": 0, "velocity": 0, "duration": 117}, {"note": 66, "velocity": 80, "duration": 300}, {"note": 68, "velocity": 79, "duration": 68}, {"note": 68, "velocity": 79, "duration": 196}, {"note": 68, "velocity": 80, "duration": 190}, {"note": 66, "velocity": 82, "duration": 841}, {"note": 0, "velocity": 0, "duration": 119}, {"note": 68, "velocity": 81, "duration": 267}, {"note": 71, "velocity": 81, "duration": 254}, {"note": 73, "velocity": 78, "duration": 127}, {"note": 71, "velocity": 80, "duration": 123}, {"note": 68, "velocity": 80, "duration": 284}, {"note": 66, "velocity": 80, "duration": 265}, {"note": 68, "velocity": 79, "duration": 260}, {"note": 63, "velocity": 78, "duration": 480}, {"note": 61, "velocity": 81, "duration": 232}, {"note": 59, "velocity": 79, "duration": 273}, {"note": 56, "velocity": 79, "duration": 253}, {"note": 59, "velocity": 80, "duration": 240}, {"note": 59, "velocity": 77, "duration": 768}, {"note": 0, "velocity": 0, "duration": 192}, {"note": 61, "velocity": 85, "duration": 331}, {"note": 63, "velocity": 72, "duration": 64}, {"note": 63, "velocity": 81, "duration": 180}, {"note": 63, "velocity": 84, "duration": 209}, {"note": 61, "velocity": 79, "duration": 843}, {"note": 0, "velocity": 0, "duration": 117}, {"note": 66, "velocity": 80, "duration": 300}, {"note": 68, "velocity": 79, "duration": 68}, {"note": 68, "velocity": 79, "duration": 196}, {"note": 68, "velocity": 80, "duration": 190}, {"note": 66, "velocity": 82, "duration": 841}, {"note": 0, "velocity": 0, "duration": 119}, {"note": 68, "velocity": 81, "duration": 267}, {"note": 71, "velocity": 81, "duration": 254}, {"note": 73, "velocity": 78, "duration": 127}, {"note": 71, "velocity": 80, "duration": 123}, {"note": 68, "velocity": 80, "duration": 284}, {"note": 66, "velocity": 80, "duration": 265}, {"note": 68, "velocity": 79, "duration": 260}, {"note": 63, "velocity": 78, "duration": 480}, {"note": 61, "velocity": 81, "duration": 232}, {"note": 59, "velocity": 79, "duration": 273}, {"note": 56, "velocity": 79, "duration": 253}, {"note": 59, "velocity": 80, "duration": 240}, {"note": 59, "velocity": 77, "duration": 768}]]