[[{"note": 66, "velocity": 83, "duration": 142}, {"note": 0, "velocity": 0, "duration": 98}, {"note": 71, "velocity": 81, "duration": 148}, {"note": 0, "velocity": 0, "duration": 92}, {"note": 73, "velocity": 88, "duration": 142}, {"note": 0, "velocity": 0, "duration": 98}, {"note": 75, "velocity": 82, "duration": 415}, {"note": 0, "velocity": 0, "duration": 65}, {"note": 66, "velocity": 81, "duration": 347}, {"note": 0, "velocity": 0, "duration": 133}, {"note": 76, "velocity": 88, "duration": 158}, {"note": 0, "velocity": 0, "duration": 82}, {"note": 75, "velocity": 78, "duration": 173}, {"note": 0, "velocity": 0, "duration": 67}, {"note": 73, "velocity": 88, "duration": 218}, {"note": 71, "velocity": 78, "duration": 166}, {"note": 0, "velocity": 0, "duration": 74}, {"note": 70, "velocity": 77, "duration": 153}, {"note": 0, "velocity": 0, "duration": 87}, {"note": 70, "velocity": 79, "duration": 386}, {"note": 0, "velocity": 0, "duration": 94}, {"note": 78, "velocity": 78, "duration": 743}, {"note": 0, "velocity": 0, "duration": 457}, {"note": 71, "velocity": 78, "duration": 370}, {"note": 0, "velocity": 0, "duration": 110}, {"note": 63, "velocity": 91, "duration": 333}, {"note": 0, "velocity": 0, "duration": 147}, {"note": 73, "velocity": 91, "duration": 136}, {"note": 0, "velocity": 0, "duration": 104}, {"note": 71, "velocity": 79, "duration": 154}, {"note": 0, "velocity": 0, "duration": 86}, {"note": 70, "velocity": 81, "duration": 217}, {"note": 68, "velocity": 78, "duration": 153}, {"note": 0, "velocity": 0, "duration": 87}, {"note": 68, "velocity": 79, "duration": 205}, {"note": 70, "velocity": 77, "duration": 381}, {"note": 0, "velocity": 0, "duration": 99}, {"note": 66, "velocity": 81, "duration": 947}, {"note": 63, "velocity": 86, "duration": 181}, {"note": 64, "velocity": 79, "duration": 383}, {"note": 0, "velocity": 0, "duration": 97}, {"note": 71, "velocity": 79, "duration": 360}, {"note": 0, "velocity": 0, "duration": 120}, {"note": 70, "velocity": 81, "duration": 569}, {"note": 0, "velocity": 0, "duration": 151}, {"note": 66, "velocity": 77, "duration": 141}, {"note": 0, "velocity": 0, "duration": 99}, {"note": 66, "velocity": 77, "duration": 371}, {"note": 0, "velocity": 0, "duration": 109}, {"note": 73, "velocity": 83, "duration": 403}, {"note": 0, "velocity": 0, "duration": 77}, {"note": 71, "velocity": 78, "duration": 551}, {"note": 0, "velocity": 0, "duration": 409}, {"note": 76, "velocity": 79, "duration": 168}, {"note": 0, "velocity": 0, "duration": 72}, {"note": 75, "velocity": 81, "duration": 121}, {"note": 0, "velocity": 0, "duration": 119}, {"note": 76, "velocity": 79, "duration": 159}, {"note": 0, "velocity": 0, "duration": 81}, {"note": 75, "velocity": 79, "duration": 132}, {"note": 0, "velocity": 0, "duration": 108}, {"note": 76, "velocity": 79, "duration": 180}, {"note": 75, "velocity": 83, "duration": 429}, {"note": 73, "velocity": 86, "duration": 1200}, {"note": 0, "velocity": 0, "duration": 240}, {"note": 66, "velocity": 83, "duration": 142}, {"note": 0, "velocity": 0, "duration": 98}, {"note": 71, "velocity": 81, "duration": 148}, {"note": 0, "velocity": 0, "duration": 92}, {"note": 73, "velocity": 88, "duration": 142}, {"note": 0, "velocity": 0, "duration": 98}, {"note": 75, "velocity": 82, "duration": 415}, {"note": 0, "velocity": 0, "duration": 65}, {"note": 66, "velocity": 81, "duration": 347}, {"note": 0, "velocity": 0, "duration": 133}, {"note": 76, "velocity": 88, "duration": 158}, {"note": 0, "velocity": 0, "duration": 82}, {"note": 75, "velocity": 78, "duration": 173}, {"note": 0, "velocity": 0, "duration": 67}, {"note": 73, "velocity": 88, "duration": 218}, {"note": 71, "velocity": 78, "duration": 166}, {"note": 0, "velocity": 0, "duration": 74}, {"note": 70, "velocity": 77, "duration": 153}, {"note": 0, "velocity": 0, "duration": 87}, {"note": 70, "velocity": 79, "duration": 386}, {"note": 0, "velocity": 0, "duration": 94}, {"note": 78, "velocity": 78, "duration": 743}, {"note": 0, "velocity": 0, "duration": 457}, {"note": 71, "velocity": 78, "duration": 370}, {"note": 0, "velocity": 0, "duration": 110}, {"note": 63, "velocity": 91, "duration": 333}, {"note": 0, "velocity": 0, "duration": 147}, {"note": 73, "velocity": 91, "duration": 136}, {"note": 0, "velocity": 0, "duration": 104}, {"note": 71, "velocity": 79, "duration": 154}, {"note": 0, "velocity": 0, "duration": 86}, {"note": 70, "velocity": 81, "duration": 217}, {"note": 68, "velocity": 78, "duration": 153}, {"note": 0, "velocity": 0, "duration": 87}, {"note": 70, "velocity": 79, "duration": 205}, {"note": 80, "velocity": 77, "duration": 381}, {"note": 0, "velocity": 0, "duration": 99}, {"note": 78, "velocity": 81, "duration": 947}, {"note": 71, "velocity": 83, "duration": 165}, {"note": 0, "velocity": 0, "duration": 75}, {"note": 80, "velocity": 88, "duration": 293}, {"note": 0, "velocity": 0, "duration": 187}, {"note": 76, "velocity": 75, "duration": 196}, {"note": 75, "velocity": 81, "duration": 207}, {"note": 73, "velocity": 81, "duration": 437}, {"note": 75, "velocity": 81, "duration": 157}, {"note": 0, "velocity": 0, "duration": 83}, {"note": 76, "velocity": 77, "duration": 148}, {"note": 0, "velocity": 0, "duration": 92}, {"note": 78, "velocity": 78, "duration": 358}, {"note": 0, "velocity": 0, "duration": 122}, {"note": 75, "velocity": 77, "duration": 480}, {"note": 71, "velocity": 84, "duration": 480}, {"note": 0, "velocity": 0, "duration": 240}, {"note": 68, "velocity": 83, "duration": 146}, {"note": 0, "velocity": 0, "duration": 94}, {"note": 76, "velocity": 82, "duration": 158}, {"note": 0, "velocity": 0, "duration": 82}, {"note": 75, "velocity": 78, "duration": 108}, {"note": 0, "velocity": 0, "duration": 132}, {"note": 76, "velocity": 79, "duration": 162}, {"note": 0, "velocity": 0, "duration": 78}, {"note": 75, "velocity": 84, "duration": 109}, {"note": 0, "velocity": 0, "duration": 131}, {"note": 71, "velocity": 79, "duration": 343}, {"note": 0, "velocity": 0, "duration": 137}, {"note": 70, "velocity": 81, "duration": 148}, {"note": 0, "velocity": 0, "duration": 92}, {"note": 73, "velocity": 82, "duration": 488}, {"note": 71, "velocity": 78, "duration": 1215}, {"note": 0, "velocity": 0, "duration": 15105}, {"note": 75, "velocity": 79, "duration": 185}, {"note": 73, "velocity": 77, "duration": 191}, {"note": 71, "velocity": 81, "duration": 224}, {"note": 66, "velocity": 79, "duration": 1025}, {"note": 0, "velocity": 0, "duration": 175}, {"note": 75, "velocity": 82, "duration": 185}, {"note": 73, "velocity": 78, "duration": 185}, {"note": 71, "velocity": 78, "duration": 212}, {"note": 70, "velocity": 79, "duration": 1067}, {"note": 0, "velocity": 0, "duration": 613}, {"note": 68, "velocity": 79, "duration": 399}, {"note": 0, "velocity": 0, "duration": 81}, {"note": 68, "velocity": 77, "duration": 125}, {"note": 0, "velocity": 0, "duration": 115}, {"note": 68, "velocity": 78, "duration": 121}, {"note": 0, "velocity": 0, "duration": 119}, {"note": 68, "velocity": 81, "duration": 120}, {"note": 0, "velocity": 0, "duration": 120}, {"note": 68, "velocity": 80, "duration": 223}, {"note": 66, "velocity": 69, "duration": 242}, {"note": 64, "velocity": 78, "duration": 196}, {"note": 68, "velocity": 80, "duration": 413}, {"note": 0, "velocity": 0, "duration": 67}, {"note": 66, "velocity": 74, "duration": 805}, {"note": 0, "velocity": 0, "duration": 155}, {"note": 75, "velocity": 77, "duration": 152}, {"note": 0, "velocity": 0, "duration": 88}, {"note": 73, "velocity": 82, "duration": 164}, {"note": 0, "velocity": 0, "duration": 76}, {"note": 71, "velocity": 79, "duration": 208}, {"note": 66, "velocity": 77, "duration": 1066}, {"note": 0, "velocity": 0, "duration": 134}, {"note": 75, "velocity": 81, "duration": 169}, {"note": 0, "velocity": 0, "duration": 71}, {"note": 73, "velocity": 81, "duration": 179}, {"note": 0, "velocity": 0, "duration": 61}, {"note": 71, "velocity": 79, "duration": 228}, {"note": 70, "velocity": 77, "duration": 938}, {"note": 0, "velocity": 0, "duration": 742}, {"note": 71, "velocity": 82, "duration": 375}, {"note": 0, "velocity": 0, "duration": 105}, {"note": 71, "velocity": 80, "duration": 142}, {"note": 0, "velocity": 0, "duration": 98}, {"note": 71, "velocity": 78, "duration": 135}, {"note": 0, "velocity": 0, "duration": 105}, {"note": 71, "velocity": 81, "duration": 125}, {"note": 0, "velocity": 0, "duration": 115}, {"note": 71, "velocity": 82, "duration": 158}, {"note": 0, "velocity": 0, "duration": 82}, {"note": 68, "velocity": 82, "duration": 141}, {"note": 0, "velocity": 0, "duration": 99}, {"note": 71, "velocity": 77, "duration": 120}, {"note": 0, "velocity": 0, "duration": 120}, {"note": 80, "velocity": 78, "duration": 391}, {"note": 0, "velocity": 0, "duration": 89}, {"note": 78, "velocity": 79, "duration": 720}, {"note": 75, "velocity": 84, "duration": 371}, {"note": 0, "velocity": 0, "duration": 109}, {"note": 76, "velocity": 82, "duration": 346}, {"note": 0, "velocity": 0, "duration": 134}, {"note": 78, "velocity": 79, "duration": 1348}, {"note": 0, "velocity": 0, "duration": 92}, {"note": 70, "velocity": 77, "duration": 190}, {"note": 73, "velocity": 79, "duration": 342}, {"note": 0, "velocity": 0, "duration": 138}, {"note": 71, "velocity": 78, "duration": 1034}, {"note": 0, "velocity": 0, "duration": 166}, {"note": 68, "velocity": 77, "duration": 250}, {"note": 78, "velocity": 73, "duration": 395}, {"note": 0, "velocity": 0, "duration": 85}, {"note": 76, "velocity": 78, "duration": 154}, {"note": 0, "velocity": 0, "duration": 86}, {"note": 76, "velocity": 77, "duration": 167}, {"note": 0, "velocity": 0, "duration": 73}, {"note": 75, "velocity": 78, "duration": 125}, {"note": 0, "velocity": 0, "duration": 115}, {"note": 76, "velocity": 77, "duration": 195}, {"note": 75, "velocity": 78, "duration": 190}, {"note": 71, "velocity": 74, "duration": 195}, {"note": 75, "velocity": 79, "duration": 428}, {"note": 73, "velocity": 86, "duration": 603}, {"note": 0, "velocity": 0, "duration": 117}, {"note": 75, "velocity": 84, "duration": 371}, {"note": 0, "velocity": 0, "duration": 109}, {"note": 76, "velocity": 82, "duration": 346}, {"note": 0, "velocity": 0, "duration": 134}, {"note": 78, "velocity": 79, "duration": 1348}, {"note": 0, "velocity": 0, "duration": 92}, {"note": 70, "velocity": 77, "duration": 190}, {"note": 73, "velocity": 79, "duration": 342}, {"note": 0, "velocity": 0, "duration": 138}, {"note": 71, "velocity": 78, "duration": 1034}, {"note": 0, "velocity": 0, "duration": 406}, {"note": 78, "velocity": 73, "duration": 395}, {"note": 0, "velocity": 0, "duration": 85}, {"note": 76, "velocity": 78, "duration": 154}, {"note": 0, "velocity": 0, "duration": 86}, {"note": 76, "velocity": 77, "duration": 167}, {"note": 0, "velocity": 0, "duration": 73}, {"note": 75, "velocity": 78, "duration": 125}, {"note": 0, "velocity": 0, "duration": 115}, {"note": 76, "velocity": 77, "duration": 480}, {"note": 0, "velocity": 0, "duration": 240}, {"note": 76, "velocity": 81, "duration": 513}, {"note": 75, "velocity": 78, "duration": 113}, {"note": 0, "velocity": 0, "duration": 127}, {"note": 76, "velocity": 83, "duration": 180}, {"note": 75, "velocity": 83, "duration": 129}, {"note": 0, "velocity": 0, "duration": 111}, {"note": 76, "velocity": 83, "duration": 462}, {"note": 71, "velocity": 79, "duration": 218}, {"note": 78, "velocity": 80, "duration": 3088}, {"note": 0, "velocity": 0, "duration": 272}, {"note": 66, "velocity": 83, "duration": 142}, {"note": 0, "velocity": 0, "duration": 98}, {"note": 71, "velocity": 81, "duration": 148}, {"note": 0, "velocity": 0, "duration": 92}, {"note": 73, "velocity": 88, "duration": 142}, {"note": 0, "velocity": 0, "duration": 98}, {"note": 75, "velocity": 82, "duration": 415}, {"note": 0, "velocity": 0, "duration": 65}, {"note": 66, "velocity": 81, "duration": 347}, {"note": 0, "velocity": 0, "duration": 133}, {"note": 76, "velocity": 88, "duration": 158}, {"note": 0, "velocity": 0, "duration": 82}, {"note": 75, "velocity": 78, "duration": 173}, {"note": 0, "velocity": 0, "duration": 67}, {"note": 73, "velocity": 88, "duration": 218}, {"note": 71, "velocity": 78, "duration": 166}, {"note": 0, "velocity": 0, "duration": 74}, {"note": 70, "velocity": 77, "duration": 153}, {"note": 0, "velocity": 0, "duration": 87}, {"note": 70, "velocity": 79, "duration": 386}, {"note": 0, "velocity": 0, "duration": 94}, {"note": 78, "velocity": 78, "duration": 743}, {"note": 0, "velocity": 0, "duration": 457}, {"note": 71, "velocity": 78, "duration": 370}, {"note": 0, "velocity": 0, "duration": 110}, {"note": 63, "velocity": 91, "duration": 333}, {"note": 0, "velocity": 0, "duration": 147}, {"note": 73, "velocity": 91, "duration": 136}, {"note": 0, "velocity": 0, "duration": 104}, {"note": 71, "velocity": 79, "duration": 154}, {"note": 0, "velocity": 0, "duration": 86}, {"note": 70, "velocity": 81, "duration": 217}, {"note": 68, "velocity": 78, "duration": 153}, {"note": 0, "velocity": 0, "duration": 87}, {"note": 68, "velocity": 79, "duration": 205}, {"note": 70, "velocity": 77, "duration": 381}, {"note": 0, "velocity": 0, "duration": 99}, {"note": 66, "velocity": 81, "duration": 947}, {"note": 63, "velocity": 86, "duration": 181}, {"note": 64, "velocity": 79, "duration": 383}, {"note": 0, "velocity": 0, "duration": 97}, {"note": 71, "velocity": 79, "duration": 360}, {"note": 0, "velocity": 0, "duration": 120}, {"note": 70, "velocity": 81, "duration": 569}, {"note": 0, "velocity": 0, "duration": 151}, {"note": 66, "velocity": 77, "duration": 141}, {"note": 0, "velocity": 0, "duration": 99}, {"note": 66, "velocity": 77, "duration": 371}, {"note": 0, "velocity": 0, "duration": 109}, {"note": 73, "velocity": 83, "duration": 403}, {"note": 0, "velocity": 0, "duration": 77}, {"note": 71, "velocity": 78, "duration": 551}, {"note": 0, "velocity": 0, "duration": 409}, {"note": 76, "velocity": 79, "duration": 168}, {"note": 0, "velocity": 0, "duration": 72}, {"note": 75, "velocity": 81, "duration": 121}, {"note": 0, "velocity": 0, "duration": 119}, {"note": 76, "velocity": 79, "duration": 159}, {"note": 0, "velocity": 0, "duration": 81}, {"note": 75, "velocity": 79, "duration": 132}, {"note": 0, "velocity": 0, "duration": 108}, {"note": 76, "velocity": 79, "duration": 180}, {"note": 75, "velocity": 83, "duration": 429}, {"note": 73, "velocity": 86, "duration": 1200}, {"note": 0, "velocity": 0, "duration": 240}, {"note": 66, "velocity": 83, "duration": 142}, {"note": 0, "velocity": 0, "duration": 98}, {"note": 71, "velocity": 81, "duration": 148}, {"note": 0, "velocity": 0, "duration": 92}, {"note": 73, "velocity": 88, "duration": 142}, {"note": 0, "velocity": 0, "duration": 98}, {"note": 75, "velocity": 82, "duration": 415}, {"note": 0, "velocity": 0, "duration": 65}, {"note": 66, "velocity": 81, "duration": 347}, {"note": 0, "velocity": 0, "duration": 133}, {"note": 76, "velocity": 88, "duration": 158}, {"note": 0, "velocity": 0, "duration": 82}, {"note": 75, "velocity": 78, "duration": 173}, {"note": 0, "velocity": 0, "duration": 67}, {"note": 73, "velocity": 88, "duration": 218}, {"note": 71, "velocity": 78, "duration": 166}, {"note": 0, "velocity": 0, "duration": 74}, {"note": 70, "velocity": 77, "duration": 153}, {"note": 0, "velocity": 0, "duration": 87}, {"note": 70, "velocity": 79, "duration": 386}, {"note": 0, "velocity": 0, "duration": 94}, {"note": 78, "velocity": 78, "duration": 743}, {"note": 0, "velocity": 0, "duration": 457}, {"note": 71, "velocity": 78, "duration": 370}, {"note": 0, "velocity": 0, "duration": 110}, {"note": 63, "velocity": 91, "duration": 333}, {"note": 0, "velocity": 0, "duration": 147}, {"note": 73, "velocity": 91, "duration": 136}, {"note": 0, "velocity": 0, "duration": 104}, {"note": 71, "velocity": 79, "duration": 154}, {"note": 0, "velocity": 0, "duration": 86}, {"note": 70, "velocity": 81, "duration": 217}, {"note": 68, "velocity": 78, "duration": 153}, {"note": 0, "velocity": 0, "duration": 87}, {"note": 70, "velocity": 79, "duration": 205}, {"note": 80, "velocity": 77, "duration": 381}, {"note": 0, "velocity": 0, "duration": 99}, {"note": 78, "velocity": 81, "duration": 947}, {"note": 71, "velocity": 83, "duration": 165}, {"note": 0, "velocity": 0, "duration": 75}, {"note": 80, "velocity": 88, "duration": 293}, {"note": 0, "velocity": 0, "duration": 187}, {"note": 76, "velocity": 75, "duration": 196}, {"note": 75, "velocity": 81, "duration": 207}, {"note": 73, "velocity": 81, "duration": 437}, {"note": 75, "velocity": 81, "duration": 157}, {"note": 0, "velocity": 0, "duration": 83}, {"note": 76, "velocity": 77, "duration": 148}, {"note": 0, "velocity": 0, "duration": 92}, {"note": 78, "velocity": 78, "duration": 358}, {"note": 0, "velocity": 0, "duration": 122}, {"note": 75, "velocity": 77, "duration": 480}, {"note": 71, "velocity": 84, "duration": 480}, {"note": 0, "velocity": 0, "duration": 240}, {"note": 68, "velocity": 83, "duration": 146}, {"note": 0, "velocity": 0, "duration": 94}, {"note": 76, "velocity": 82, "duration": 158}, {"note": 0, "velocity": 0, "duration": 82}, {"note": 75, "velocity": 78, "duration": 108}, {"note": 0, "velocity": 0, "duration": 132}, {"note": 76, "velocity": 79, "duration": 162}, {"note": 0, "velocity": 0, "duration": 78}, {"note": 75, "velocity": 84, "duration": 109}, {"note": 0, "velocity": 0, "duration": 131}, {"note": 71, "velocity": 79, "duration": 343}, {"note": 0, "velocity": 0, "duration": 137}, {"note": 70, "velocity": 81, "duration": 148}, {"note": 0, "velocity": 0, "duration": 92}, {"note": 73, "velocity": 82, "duration": 488}, {"note": 71, "velocity": 78, "duration": 1215}, {"note": 0, "velocity": 0, "duration": 15105}, {"note": 75, "velocity": 79, "duration": 185}, {"note": 73, "velocity": 77, "duration": 191}, {"note": 71, "velocity": 81, "duration": 224}, {"note": 66, "velocity": 79, "duration": 1025}, {"note": 0, "velocity": 0, "duration": 175}, {"note": 75, "velocity": 82, "duration": 185}, {"note": 73, "velocity": 78, "duration": 185}, {"note": 71, "velocity": 78, "duration": 212}, {"note": 70, "velocity": 79, "duration": 1067}, {"note": 0, "velocity": 0, "duration": 613}, {"note": 68, "velocity": 79, "duration": 399}, {"note": 0, "velocity": 0, "duration": 81}, {"note": 68, "velocity": 77, "duration": 125}, {"note": 0, "velocity": 0, "duration": 115}, {"note": 68, "velocity": 78, "duration": 121}, {"note": 0, "velocity": 0, "duration": 119}, {"note": 68, "velocity": 81, "duration": 120}, {"note": 0, "velocity": 0, "duration": 120}, {"note": 68, "velocity": 80, "duration": 223}, {"note": 66, "velocity": 69, "duration": 242}, {"note": 64, "velocity": 78, "duration": 196}, {"note": 68, "velocity": 80, "duration": 413}, {"note": 0, "velocity": 0, "duration": 67}, {"note": 66, "velocity": 74, "duration": 805}, {"note": 0, "velocity": 0, "duration": 155}, {"note": 75, "velocity": 77, "duration": 152}, {"note": 0, "velocity": 0, "duration": 88}, {"note": 73, "velocity": 82, "duration": 164}, {"note": 0, "velocity": 0, "duration": 76}, {"note": 71, "velocity": 79, "duration": 208}, {"note": 66, "velocity": 77, "duration": 1066}, {"note": 0, "velocity": 0, "duration": 134}, {"note": 75, "velocity": 81, "duration": 169}, {"note": 0, "velocity": 0, "duration": 71}, {"note": 73, "velocity": 81, "duration": 179}, {"note": 0, "velocity": 0, "duration": 61}, {"note": 71, "velocity": 79, "duration": 228}, {"note": 70, "velocity": 77, "duration": 938}, {"note": 0, "velocity": 0, "duration": 742}, {"note": 71, "velocity": 82, "duration": 375}, {"note": 0, "velocity": 0, "duration": 105}, {"note": 71, "velocity": 80, "duration": 142}, {"note": 0, "velocity": 0, "duration": 98}, {"note": 71, "velocity": 78, "duration": 135}, {"note": 0, "velocity": 0, "duration": 105}, {"note": 71, "velocity": 81, "duration": 125}, {"note": 0, "velocity": 0, "duration": 115}, {"note": 71, "velocity": 82, "duration": 158}, {"note": 0, "velocity": 0, "duration": 82}, {"note": 68, "velocity": 82, "duration": 141}, {"note": 0, "velocity": 0, "duration": 99}, {"note": 71, "velocity": 77, "duration": 120}, {"note": 0, "velocity": 0, "duration": 120}, {"note": 80, "velocity": 78, "duration": 391}, {"note": 0, "velocity": 0, "duration": 89}, {"note": 78, "velocity": 79, "duration": 720}, {"note": 75, "velocity": 84, "duration": 371}, {"note": 0, "velocity": 0, "duration": 109}, {"note": 76, "velocity": 82, "duration": 346}, {"note": 0, "velocity": 0, "duration": 134}, {"note": 78, "velocity": 79, "duration": 1348}, {"note": 0, "velocity": 0, "duration": 92}, {"note": 70, "velocity": 77, "duration": 190}, {"note": 73, "velocity": 79, "duration": 342}, {"note": 0, "velocity": 0, "duration": 138}, {"note": 71, "velocity": 78, "duration": 1034}, {"note": 0, "velocity": 0, "duration": 166}, {"note": 68, "velocity": 77, "duration": 250}, {"note": 78, "velocity": 73, "duration": 395}, {"note": 0, "velocity": 0, "duration": 85}, {"note": 76, "velocity": 78, "duration": 154}, {"note": 0, "velocity": 0, "duration": 86}, {"note": 76, "velocity": 77, "duration": 167}, {"note": 0, "velocity": 0, "duration": 73}, {"note": 75, "velocity": 78, "duration": 125}, {"note": 0, "velocity": 0, "duration": 115}, {"note": 76, "velocity": 77, "duration": 195}, {"note": 75, "velocity": 78, "duration": 190}, {"note": 71, "velocity": 74, "duration": 195}, {"note": 75, "velocity": 79, "duration": 428}, {"note": 73, "velocity": 86, "duration": 603}, {"note": 0, "velocity": 0, "duration": 117}, {"note": 75, "velocity": 84, "duration": 371}, {"note": 0, "velocity": 0, "duration": 109}, {"note": 76, "velocity": 82, "duration": 346}, {"note": 0, "velocity": 0, "duration": 134}, {"note": 78, "velocity": 79, "duration": 1348}, {"note": 0, "velocity": 0, "duration": 92}, {"note": 70, "velocity": 77, "duration": 190}, {"note": 73, "velocity": 79, "duration": 342}, {"note": 0, "velocity": 0, "duration": 138}, {"note": 71, "velocity": 78, "duration": 1034}, {"note": 0, "velocity": 0, "duration": 406}, {"note": 78, "velocity": 73, "duration": 395}, {"note": 0, "velocity": 0, "duration": 85}, {"note": 76, "velocity": 78, "duration": 154}, {"note": 0, "velocity": 0, "duration": 86}, {"note": 76, "velocity": 77, "duration": 167}, {"note": 0, "velocity": 0, "duration": 73}, {"note": 75, "velocity": 78, "duration": 125}, {"note": 0, "velocity": 0, "duration": 115}, {"note": 76, "velocity": 77, "duration": 480}, {"note": 0, "velocity": 0, "duration": 240}, {"note": 76, "velocity": 81, "duration": 513}, {"note": 75, "velocity": 78, "duration": 113}, {"note": 0, "velocity": 0, "duration": 127}, {"note": 76, "velocity": 83, "duration": 180}, {"note": 75, "velocity": 83, "duration": 129}, {"note": 0, "velocity": 0, "duration": 111}, {"note": 76, "velocity": 83, "duration": 462}, {"note": 71, "velocity": 79, "duration": 218}, {"note": 78, "velocity": 80, "duration": 3088}, {"note": 0, "velocity": 0, "duration": 272}, {"note": 66, "velocity": 83, "duration": 142}, {"note": 0, "velocity": 0, "duration": 98}, {"note": 71, "velocity": 81, "duration": 148}, {"note": 0, "velocity": 0, "duration": 92}, {"note": 73, "velocity": 88, "duration": 142}, {"note": 0, "velocity": 0, "duration": 98}, {"note": 75, "velocity": 82, "duration": 415}, {"note": 0, "velocity": 0, "duration": 65}, {"note": 66, "velocity": 81, "duration": 347}, {"note": 0, "velocity": 0, "duration": 133}, {"note": 76, "velocity": 88, "duration": 158}, {"note": 0, "velocity": 0, "duration": 82}, {"note": 75, "velocity": 78, "duration": 173}, {"note": 0, "velocity": 0, "duration": 67}, {"note": 73, "velocity": 88, "duration": 218}, {"note": 71, "velocity": 78, "duration": 166}, {"note": 0, "velocity": 0, "duration": 74}, {"note": 70, "velocity": 77, "duration": 153}, {"note": 0, "velocity": 0, "duration": 87}, {"note": 70, "velocity": 79, "duration": 386}, {"note": 0, "velocity": 0, "duration": 94}, {"note": 78, "velocity": 78, "duration": 743}, {"note": 0, "velocity": 0, "duration": 457}, {"note": 71, "velocity": 78, "duration": 370}, {"note": 0, "velocity": 0, "duration": 110}, {"note": 63, "velocity": 91, "duration": 333}, {"note": 0, "velocity": 0, "duration": 147}, {"note": 73, "velocity": 91, "duration": 136}, {"note": 0, "velocity": 0, "duration": 104}, {"note": 71, "velocity": 79, "duration": 154}, {"note": 0, "velocity": 0, "duration": 86}, {"note": 70, "velocity": 81, "duration": 217}, {"note": 68, "velocity": 78, "duration": 153}, {"note": 0, "velocity": 0, "duration": 87}, {"note": 68, "velocity": 79, "duration": 205}, {"note": 70, "velocity": 77, "duration": 381}, {"note": 0, "velocity": 0, "duration": 99}, {"note": 66, "velocity": 81, "duration": 947}, {"note": 63, "velocity": 86, "duration": 181}, {"note": 64, "velocity": 79, "duration": 383}, {"note": 0, "velocity": 0, "duration": 97}, {"note": 71, "velocity": 79, "duration": 360}, {"note": 0, "velocity": 0, "duration": 120}, {"note": 70, "velocity": 81, "duration": 569}, {"note": 0, "velocity": 0, "duration": 151}, {"note": 66, "velocity": 77, "duration": 141}, {"note": 0, "velocity": 0, "duration": 99}, {"note": 66, "velocity": 77, "duration": 371}, {"note": 0, "velocity": 0, "duration": 109}, {"note": 73, "velocity": 83, "duration": 403}, {"note": 0, "velocity": 0, "duration": 77}, {"note": 71, "velocity": 78, "duration": 551}, {"note": 0, "velocity": 0, "duration": 409}, {"note": 76, "velocity": 79, "duration": 168}, {"note": 0, "velocity": 0, "duration": 72}, {"note": 75, "velocity": 81, "duration": 121}, {"note": 0, "velocity": 0, "duration": 119}, {"note": 76, "velocity": 79, "duration": 159}, {"note": 0, "velocity": 0, "duration": 81}, {"note": 75, "velocity": 79, "duration": 132}, {"note": 0, "velocity": 0, "duration": 108}, {"note": 76, "velocity": 79, "duration": 180}, {"note": 75, "velocity": 83, "duration": 429}, {"note": 73, "velocity": 86, "duration": 1200}, {"note": 0, "velocity": 0, "duration": 240}, {"note": 66, "velocity": 83, "duration": 142}, {"note": 0, "velocity": 0, "duration": 98}, {"note": 71, "velocity": 81, "duration": 148}, {"note": 0, "velocity": 0, "duration": 92}, {"note": 73, "velocity": 88, "duration": 142}, {"note": 0, "velocity": 0, "duration": 98}, {"note": 75, "velocity": 82, "duration": 415}, {"note": 0, "velocity": 0, "duration": 65}, {"note": 66, "velocity": 81, "duration": 347}, {"note": 0, "velocity": 0, "duration": 133}, {"note": 76, "velocity": 88, "duration": 158}, {"note": 0, "velocity": 0, "duration": 82}, {"note": 75, "velocity": 78, "duration": 173}, {"note": 0, "velocity": 0, "duration": 67}, {"note": 73, "velocity": 88, "duration": 218}, {"note": 71, "velocity": 78, "duration": 166}, {"note": 0, "velocity": 0, "duration": 74}, {"note": 70, "velocity": 77, "duration": 153}, {"note": 0, "velocity": 0, "duration": 87}, {"note": 70, "velocity": 79, "duration": 386}, {"note": 0, "velocity": 0, "duration": 94}, {"note": 78, "velocity": 78, "duration": 743}, {"note": 0, "velocity": 0, "duration": 457}, {"note": 71, "velocity": 78, "duration": 370}, {"note": 0, "velocity": 0, "duration": 110}, {"note": 63, "velocity": 91, "duration": 333}, {"note": 0, "velocity": 0, "duration": 147}, {"note": 73, "velocity": 91, "duration": 136}, {"note": 0, "velocity": 0, "duration": 104}, {"note": 71, "velocity": 79, "duration": 154}, {"note": 0, "velocity": 0, "duration": 86}, {"note": 70, "velocity": 81, "duration": 217}, {"note": 68, "velocity": 78, "duration": 153}, {"note": 0, "velocity": 0, "duration": 87}, {"note": 70, "velocity": 79, "duration": 205}, {"note": 80, "velocity": 77, "duration": 381}, {"note": 0, "velocity": 0, "duration": 99}, {"note": 78, "velocity": 81, "duration": 947}, {"note": 71, "velocity": 83, "duration": 165}, {"note": 0, "velocity": 0, "duration": 75}, {"note": 80, "velocity": 88, "duration": 293}, {"note": 0, "velocity": 0, "duration": 187}, {"note": 76, "velocity": 75, "duration": 196}, {"note": 75, "velocity": 81, "duration": 207}, {"note": 73, "velocity": 81, "duration": 437}, {"note": 75, "velocity": 81, "duration": 157}, {"note": 0, "velocity": 0, "duration": 83}, {"note": 76, "velocity": 77, "duration": 148}, {"note": 0, "velocity": 0, "duration": 92}, {"note": 78, "velocity": 78, "duration": 358}, {"note": 0, "velocity": 0, "duration": 122}, {"note": 75, "velocity": 77, "duration": 480}, {"note": 71, "velocity": 84, "duration": 480}, {"note": 0, "velocity": 0, "duration": 240}, {"note": 68, "velocity": 83, "duration": 146}, {"note": 0, "velocity": 0, "duration": 94}, {"note": 76, "velocity": 82, "duration": 158}, {"note": 0, "velocity": 0, "duration": 82}, {"note": 75, "velocity": 78, "duration": 108}, {"note": 0, "velocity": 0, "duration": 132}, {"note": 76, "velocity": 79, "duration": 162}, {"note": 0, "velocity": 0, "duration": 78}, {"note": 75, "velocity": 84, "duration": 109}, {"note": 0, "velocity": 0, "duration": 131}, {"note": 71, "velocity": 79, "duration": 343}, {"note": 0, "velocity": 0, "duration": 137}, {"note": 70, "velocity": 81, "duration": 148}, {"note": 0, "velocity": 0, "duration": 92}, {"note": 73, "velocity": 82, "duration": 488}, {"note": 71, "velocity": 78, "duration": 1215}, {"note": 0, "velocity": 0, "duration": 13905}, {"note": 78, "velocity": 79, "duration": 224}, {"note": 0, "velocity": 0, "duration": 136}, {"note": 75, "velocity": 81, "duration": 111}, {"note": 0, "velocity": 0, "duration": 249}, {"note": 78, "velocity": 78, "duration": 364}, {"note": 0, "velocity": 0, "duration": 116}, {"note": 75, "velocity": 79, "duration": 120}, {"note": 0, "velocity": 0, "duration": 120}, {"note": 73, "velocity": 82, "duration": 122}, {"note": 0, "velocity": 0, "duration": 118}, {"note": 71, "velocity": 72, "duration": 87}, {"note": 0, "velocity": 0, "duration": 153}, {"note": 70, "velocity": 81, "duration": 169}, {"note": 0, "velocity": 0, "duration": 191}, {"note": 70, "velocity": 88, "duration": 211}, {"note": 0, "velocity": 0, "duration": 149}, {"note": 71, "velocity": 86, "duration": 623}, {"note": 0, "velocity": 0, "duration": 97}, {"note": 73, "velocity": 78, "duration": 240}, {"note": 75, "velocity": 84, "duration": 129}, {"note": 0, "velocity": 0, "duration": 111}, {"note": 76, "velocity": 82, "duration": 215}, {"note": 75, "velocity": 84, "duration": 211}, {"note": 73, "velocity": 83, "duration": 267}, {"note": 71, "velocity": 78, "duration": 240}, {"note": 0, "velocity": 0, "duration": 240}, {"note": 71, "velocity": 82, "duration": 240}, {"note": 70, "velocity": 81, "duration": 209}, {"note": 71, "velocity": 83, "duration": 1299}, {"note": 0, "velocity": 0, "duration": 141}, {"note": 66, "velocity": 83, "duration": 142}, {"note": 0, "velocity": 0, "duration": 98}, {"note": 71, "velocity": 81, "duration": 148}, {"note": 0, "velocity": 0, "duration": 92}, {"note": 73, "velocity": 88, "duration": 142}, {"note": 0, "velocity": 0, "duration": 98}, {"note": 75, "velocity": 82, "duration": 415}, {"note": 0, "velocity": 0, "duration": 65}, {"note": 66, "velocity": 81, "duration": 347}, {"note": 0, "velocity": 0, "duration": 133}, {"note": 76, "velocity": 88, "duration": 158}, {"note": 0, "velocity": 0, "duration": 82}, {"note": 75, "velocity": 78, "duration": 173}, {"note": 0, "velocity": 0, "duration": 67}, {"note": 73, "velocity": 88, "duration": 218}, {"note": 71, "velocity": 78, "duration": 166}, {"note": 0, "velocity": 0, "duration": 74}, {"note": 70, "velocity": 77, "duration": 153}, {"note": 0, "velocity": 0, "duration": 87}, {"note": 70, "velocity": 79, "duration": 386}, {"note": 0, "velocity": 0, "duration": 94}, {"note": 78, "velocity": 78, "duration": 743}, {"note": 0, "velocity": 0, "duration": 457}, {"note": 71, "velocity": 78, "duration": 370}, {"note": 0, "velocity": 0, "duration": 110}, {"note": 63, "velocity": 91, "duration": 333}, {"note": 0, "velocity": 0, "duration": 147}, {"note": 73, "velocity": 91, "duration": 136}, {"note": 0, "velocity": 0, "duration": 104}, {"note": 71, "velocity": 79, "duration": 154}, {"note": 0, "velocity": 0, "duration": 86}, {"note": 70, "velocity": 81, "duration": 217}, {"note": 68, "velocity": 78, "duration": 153}, {"note": 0, "velocity": 0, "duration": 87}, {"note": 68, "velocity": 79, "duration": 205}, {"note": 70, "velocity": 77, "duration": 381}, {"note": 0, "velocity": 0, "duration": 99}, {"note": 66, "velocity": 81, "duration": 947}, {"note": 63, "velocity": 86, "duration": 181}, {"note": 64, "velocity": 79, "duration": 383}, {"note": 0, "velocity": 0, "duration": 97}, {"note": 71, "velocity": 79, "duration": 360}, {"note": 0, "velocity": 0, "duration": 120}, {"note": 70, "velocity": 81, "duration": 569}, {"note": 0, "velocity": 0, "duration": 151}, {"note": 66, "velocity": 77, "duration": 141}, {"note": 0, "velocity": 0, "duration": 99}, {"note": 66, "velocity": 77, "duration": 371}, {"note": 0, "velocity": 0, "duration": 109}, {"note": 73, "velocity": 83, "duration": 403}, {"note": 0, "velocity": 0, "duration": 77}, {"note": 71, "velocity": 78, "duration": 551}, {"note": 0, "velocity": 0, "duration": 409}, {"note": 76, "velocity": 79, "duration": 168}, {"note": 0, "velocity": 0, "duration": 72}, {"note": 75, "velocity": 81, "duration": 121}, {"note": 0, "velocity": 0, "duration": 119}, {"note": 76, "velocity": 79, "duration": 159}, {"note": 0, "velocity": 0, "duration": 81}, {"note": 75, "velocity": 79, "duration": 132}, {"note": 0, "velocity": 0, "duration": 108}, {"note": 76, "velocity": 79, "duration": 180}, {"note": 75, "velocity": 83, "duration": 429}, {"note": 73, "velocity": 86, "duration": 1200}, {"note": 0, "velocity": 0, "duration": 240}, {"note": 66, "velocity": 83, "duration": 142}, {"note": 0, "velocity": 0, "duration": 98}, {"note": 71, "velocity": 81, "duration": 148}, {"note": 0, "velocity": 0, "duration": 92}, {"note": 73, "velocity": 88, "duration": 142}, {"note": 0, "velocity": 0, "duration": 98}, {"note": 75, "velocity": 82, "duration": 415}, {"note": 0, "velocity": 0, "duration": 65}, {"note": 66, "velocity": 81, "duration": 347}, {"note": 0, "velocity": 0, "duration": 133}, {"note": 76, "velocity": 88, "duration": 158}, {"note": 0, "velocity": 0, "duration": 82}, {"note": 75, "velocity": 78, "duration": 173}, {"note": 0, "velocity": 0, "duration": 67}, {"note": 73, "velocity": 88, "duration": 218}, {"note": 71, "velocity": 78, "duration": 166}, {"note": 0, "velocity": 0, "duration": 74}, {"note": 70, "velocity": 77, "duration": 153}, {"note": 0, "velocity": 0, "duration": 87}, {"note": 70, "velocity": 79, "duration": 386}, {"note": 0, "velocity": 0, "duration": 94}, {"note": 78, "velocity": 78, "duration": 743}, {"note": 0, "velocity": 0, "duration": 457}, {"note": 71, "velocity": 78, "duration": 370}, {"note": 0, "velocity": 0, "duration": 110}, {"note": 63, "velocity": 91, "duration": 333}, {"note": 0, "velocity": 0, "duration": 147}, {"note": 73, "velocity": 91, "duration": 136}, {"note": 0, "velocity": 0, "duration": 104}, {"note": 71, "velocity": 79, "duration": 154}, {"note": 0, "velocity": 0, "duration": 86}, {"note": 70, "velocity": 81, "duration": 217}, {"note": 68, "velocity": 78, "duration": 153}, {"note": 0, "velocity": 0, "duration": 87}, {"note": 70, "velocity": 79, "duration": 205}, {"note": 80, "velocity": 77, "duration": 381}, {"note": 0, "velocity": 0, "duration": 99}, {"note": 78, "velocity": 81, "duration": 947}, {"note": 71, "velocity": 83, "duration": 165}, {"note": 0, "velocity": 0, "duration": 75}, {"note": 80, "velocity": 88, "duration": 293}, {"note": 0, "velocity": 0, "duration": 187}, {"note": 76, "velocity": 75, "duration": 196}, {"note": 75, "velocity": 81, "duration": 207}, {"note": 73, "velocity": 81, "duration": 437}, {"note": 75, "velocity": 81, "duration": 157}, {"note": 0, "velocity": 0, "duration": 83}, {"note": 76, "velocity": 77, "duration": 148}, {"note": 0, "velocity": 0, "duration": 92}, {"note": 78, "velocity": 78, "duration": 358}, {"note": 0, "velocity": 0, "duration": 122}, {"note": 75, "velocity": 77, "duration": 480}, {"note": 71, "velocity": 84, "duration": 480}, {"note": 0, "velocity": 0, "duration": 240}, {"note": 68, "velocity": 83, "duration": 146}, {"note": 0, "velocity": 0, "duration": 94}, {"note": 76, "velocity": 82, "duration": 158}, {"note": 0, "velocity": 0, "duration": 82}, {"note": 75, "velocity": 78, "duration": 108}, {"note": 0, "velocity": 0, "duration": 132}, {"note": 76, "velocity": 79, "duration": 162}, {"note": 0, "velocity": 0, "duration": 78}, {"note": 75, "velocity": 84, "duration": 109}, {"note": 0, "velocity": 0, "duration": 131}, {"note": 71, "velocity": 79, "duration": 343}, {"note": 0, "velocity": 0, "duration": 137}, {"note": 70, "velocity": 81, "duration": 148}, {"note": 0, "velocity": 0, "duration": 92}, {"note": 73, "velocity": 82, "duration": 488}, {"note": 71, "velocity": 78, "duration": 1215}]]