[[{"note": 63, "velocity": 82, "duration": 213}, {"note": 61, "velocity": 82, "duration": 250}, {"note": 63, "velocity": 82, "duration": 234}, {"note": 65, "velocity": 81, "duration": 250}, {"note": 66, "velocity": 84, "duration": 259}, {"note": 68, "velocity": 74, "duration": 307}, {"note": 70, "velocity": 73, "duration": 222}, {"note": 66, "velocity": 81, "duration": 213}, {"note": 68, "velocity": 81, "duration": 171}, {"note": 0, "velocity": 0, "duration": 69}, {"note": 68, "velocity": 76, "duration": 188}, {"note": 68, "velocity": 81, "duration": 205}, {"note": 66, "velocity": 81, "duration": 85}, {"note": 68, "velocity": 76, "duration": 647}, {"note": 0, "velocity": 0, "duration": 793}, {"note": 70, "velocity": 77, "duration": 83}, {"note": 70, "velocity": 82, "duration": 108}, {"note": 73, "velocity": 81, "duration": 156}, {"note": 0, "velocity": 0, "duration": 84}, {"note": 73, "velocity": 82, "duration": 404}, {"note": 0, "velocity": 0, "duration": 76}, {"note": 70, "velocity": 80, "duration": 60}, {"note": 70, "velocity": 83, "duration": 92}, {"note": 73, "velocity": 81, "duration": 194}, {"note": 63, "velocity": 83, "duration": 617}, {"note": 0, "velocity": 0, "duration": 1423}, {"note": 63, "velocity": 82, "duration": 213}, {"note": 61, "velocity": 82, "duration": 250}, {"note": 63, "velocity": 82, "duration": 234}, {"note": 65, "velocity": 81, "duration": 250}, {"note": 66, "velocity": 84, "duration": 259}, {"note": 68, "velocity": 74, "duration": 307}, {"note": 70, "velocity": 73, "duration": 222}, {"note": 66, "velocity": 81, "duration": 213}, {"note": 68, "velocity": 81, "duration": 171}, {"note": 0, "velocity": 0, "duration": 69}, {"note": 68, "velocity": 76, "duration": 188}, {"note": 68, "velocity": 81, "duration": 205}, {"note": 70, "velocity": 81, "duration": 85}, {"note": 68, "velocity": 76, "duration": 647}, {"note": 0, "velocity": 0, "duration": 793}, {"note": 70, "velocity": 77, "duration": 83}, {"note": 70, "velocity": 82, "duration": 108}, {"note": 73, "velocity": 81, "duration": 156}, {"note": 0, "velocity": 0, "duration": 84}, {"note": 73, "velocity": 82, "duration": 404}, {"note": 0, "velocity": 0, "duration": 76}, {"note": 70, "velocity": 80, "duration": 60}, {"note": 70, "velocity": 83, "duration": 92}, {"note": 73, "velocity": 81, "duration": 194}, {"note": 63, "velocity": 83, "duration": 617}, {"note": 0, "velocity": 0, "duration": 1423}, {"note": 66, "velocity": 82, "duration": 481}, {"note": 70, "velocity": 81, "duration": 474}, {"note": 68, "velocity": 81, "duration": 530}, {"note": 73, "velocity": 81, "duration": 487}, {"note": 70, "velocity": 77, "duration": 859}, {"note": 0, "velocity": 0, "duration": 1061}, {"note": 75, "velocity": 83, "duration": 403}, {"note": 0, "velocity": 0, "duration": 77}, {"note": 73, "velocity": 77, "duration": 442}, {"note": 70, "velocity": 82, "duration": 501}, {"note": 73, "velocity": 82, "duration": 503}, {"note": 75, "velocity": 82, "duration": 1481}, {"note": 0, "velocity": 0, "duration": 439}, {"note": 70, "velocity": 83, "duration": 222}, {"note": 68, "velocity": 81, "duration": 187}, {"note": 68, "velocity": 83, "duration": 196}, {"note": 70, "velocity": 83, "duration": 199}, {"note": 73, "velocity": 69, "duration": 172}, {"note": 0, "velocity": 0, "duration": 68}, {"note": 73, "velocity": 83, "duration": 184}, {"note": 75, "velocity": 87, "duration": 204}, {"note": 73, "velocity": 87, "duration": 203}, {"note": 66, "velocity": 80, "duration": 174}, {"note": 0, "velocity": 0, "duration": 66}, {"note": 66, "velocity": 83, "duration": 185}, {"note": 68, "velocity": 84, "duration": 180}, {"note": 73, "velocity": 74, "duration": 173}, {"note": 0, "velocity": 0, "duration": 67}, {"note": 70, "velocity": 76, "duration": 504}, {"note": 0, "velocity": 0, "duration": 456}, {"note": 75, "velocity": 87, "duration": 206}, {"note": 73, "velocity": 85, "duration": 225}, {"note": 75, "velocity": 87, "duration": 224}, {"note": 78, "velocity": 83, "duration": 212}, {"note": 75, "velocity": 92, "duration": 229}, {"note": 73, "velocity": 82, "duration": 256}, {"note": 70, "velocity": 82, "duration": 244}, {"note": 68, "velocity": 80, "duration": 248}, {"note": 70, "velocity": 83, "duration": 1494}, {"note": 0, "velocity": 0, "duration": 426}, {"note": 70, "velocity": 83, "duration": 222}, {"note": 68, "velocity": 81, "duration": 187}, {"note": 68, "velocity": 83, "duration": 196}, {"note": 70, "velocity": 83, "duration": 199}, {"note": 73, "velocity": 69, "duration": 172}, {"note": 0, "velocity": 0, "duration": 68}, {"note": 73, "velocity": 83, "duration": 184}, {"note": 75, "velocity": 87, "duration": 204}, {"note": 73, "velocity": 87, "duration": 203}, {"note": 78, "velocity": 81, "duration": 179}, {"note": 0, "velocity": 0, "duration": 61}, {"note": 77, "velocity": 83, "duration": 208}, {"note": 75, "velocity": 82, "duration": 258}, {"note": 77, "velocity": 82, "duration": 192}, {"note": 75, "velocity": 82, "duration": 209}, {"note": 73, "velocity": 83, "duration": 225}, {"note": 70, "velocity": 82, "duration": 382}, {"note": 0, "velocity": 0, "duration": 98}, {"note": 78, "velocity": 87, "duration": 206}, {"note": 77, "velocity": 85, "duration": 225}, {"note": 75, "velocity": 87, "duration": 224}, {"note": 77, "velocity": 83, "duration": 212}, {"note": 75, "velocity": 92, "duration": 229}, {"note": 73, "velocity": 82, "duration": 256}, {"note": 70, "velocity": 82, "duration": 244}, {"note": 68, "velocity": 80, "duration": 248}, {"note": 66, "velocity": 83, "duration": 1494}, {"note": 0, "velocity": 0, "duration": 8106}, {"note": 63, "velocity": 82, "duration": 213}, {"note": 61, "velocity": 82, "duration": 250}, {"note": 63, "velocity": 82, "duration": 234}, {"note": 65, "velocity": 81, "duration": 250}, {"note": 66, "velocity": 84, "duration": 259}, {"note": 68, "velocity": 74, "duration": 307}, {"note": 70, "velocity": 73, "duration": 222}, {"note": 66, "velocity": 81, "duration": 213}, {"note": 68, "velocity": 81, "duration": 171}, {"note": 0, "velocity": 0, "duration": 69}, {"note": 68, "velocity": 76, "duration": 188}, {"note": 68, "velocity": 81, "duration": 205}, {"note": 66, "velocity": 81, "duration": 85}, {"note": 68, "velocity": 76, "duration": 647}, {"note": 0, "velocity": 0, "duration": 793}, {"note": 73, "velocity": 77, "duration": 83}, {"note": 73, "velocity": 82, "duration": 108}, {"note": 70, "velocity": 81, "duration": 156}, {"note": 0, "velocity": 0, "duration": 84}, {"note": 73, "velocity": 82, "duration": 404}, {"note": 0, "velocity": 0, "duration": 76}, {"note": 70, "velocity": 80, "duration": 60}, {"note": 70, "velocity": 83, "duration": 92}, {"note": 73, "velocity": 81, "duration": 194}, {"note": 63, "velocity": 83, "duration": 617}, {"note": 0, "velocity": 0, "duration": 1423}, {"note": 63, "velocity": 82, "duration": 213}, {"note": 61, "velocity": 82, "duration": 250}, {"note": 63, "velocity": 82, "duration": 234}, {"note": 65, "velocity": 81, "duration": 250}, {"note": 66, "velocity": 84, "duration": 259}, {"note": 68, "velocity": 74, "duration": 307}, {"note": 70, "velocity": 73, "duration": 222}, {"note": 66, "velocity": 81, "duration": 213}, {"note": 68, "velocity": 81, "duration": 171}, {"note": 0, "velocity": 0, "duration": 69}, {"note": 68, "velocity": 76, "duration": 188}, {"note": 68, "velocity": 81, "duration": 205}, {"note": 70, "velocity": 81, "duration": 85}, {"note": 68, "velocity": 76, "duration": 647}, {"note": 0, "velocity": 0, "duration": 793}, {"note": 70, "velocity": 77, "duration": 83}, {"note": 70, "velocity": 82, "duration": 108}, {"note": 73, "velocity": 81, "duration": 156}, {"note": 0, "velocity": 0, "duration": 84}, {"note": 73, "velocity": 82, "duration": 404}, {"note": 0, "velocity": 0, "duration": 76}, {"note": 70, "velocity": 80, "duration": 60}, {"note": 70, "velocity": 83, "duration": 92}, {"note": 73, "velocity": 81, "duration": 194}, {"note": 63, "velocity": 83, "duration": 617}, {"note": 0, "velocity": 0, "duration": 1423}, {"note": 66, "velocity": 82, "duration": 481}, {"note": 70, "velocity": 81, "duration": 474}, {"note": 68, "velocity": 81, "duration": 530}, {"note": 73, "velocity": 81, "duration": 487}, {"note": 70, "velocity": 77, "duration": 859}, {"note": 0, "velocity": 0, "duration": 1061}, {"note": 75, "velocity": 83, "duration": 403}, {"note": 0, "velocity": 0, "duration": 77}, {"note": 73, "velocity": 77, "duration": 442}, {"note": 70, "velocity": 82, "duration": 501}, {"note": 73, "velocity": 82, "duration": 503}, {"note": 75, "velocity": 82, "duration": 1481}, {"note": 0, "velocity": 0, "duration": 439}, {"note": 70, "velocity": 83, "duration": 222}, {"note": 68, "velocity": 81, "duration": 187}, {"note": 68, "velocity": 83, "duration": 196}, {"note": 70, "velocity": 83, "duration": 199}, {"note": 73, "velocity": 69, "duration": 172}, {"note": 0, "velocity": 0, "duration": 68}, {"note": 73, "velocity": 83, "duration": 184}, {"note": 75, "velocity": 87, "duration": 204}, {"note": 73, "velocity": 87, "duration": 203}, {"note": 66, "velocity": 80, "duration": 174}, {"note": 0, "velocity": 0, "duration": 66}, {"note": 66, "velocity": 83, "duration": 185}, {"note": 68, "velocity": 84, "duration": 180}, {"note": 73, "velocity": 74, "duration": 173}, {"note": 0, "velocity": 0, "duration": 67}, {"note": 70, "velocity": 76, "duration": 504}, {"note": 0, "velocity": 0, "duration": 456}, {"note": 75, "velocity": 87, "duration": 206}, {"note": 73, "velocity": 85, "duration": 225}, {"note": 75, "velocity": 87, "duration": 224}, {"note": 78, "velocity": 83, "duration": 212}, {"note": 75, "velocity": 92, "duration": 229}, {"note": 73, "velocity": 82, "duration": 256}, {"note": 70, "velocity": 82, "duration": 244}, {"note": 68, "velocity": 80, "duration": 248}, {"note": 70, "velocity": 83, "duration": 1494}, {"note": 0, "velocity": 0, "duration": 426}, {"note": 70, "velocity": 83, "duration": 222}, {"note": 68, "velocity": 81, "duration": 187}, {"note": 68, "velocity": 83, "duration": 196}, {"note": 70, "velocity": 83, "duration": 199}, {"note": 73, "velocity": 69, "duration": 172}, {"note": 0, "velocity": 0, "duration": 68}, {"note": 73, "velocity": 83, "duration": 184}, {"note": 75, "velocity": 87, "duration": 204}, {"note": 73, "velocity": 87, "duration": 203}, {"note": 78, "velocity": 81, "duration": 179}, {"note": 0, "velocity": 0, "duration": 61}, {"note": 77, "velocity": 83, "duration": 208}, {"note": 75, "velocity": 82, "duration": 258}, {"note": 77, "velocity": 82, "duration": 192}, {"note": 75, "velocity": 82, "duration": 209}, {"note": 73, "velocity": 83, "duration": 225}, {"note": 70, "velocity": 82, "duration": 382}, {"note": 0, "velocity": 0, "duration": 98}, {"note": 78, "velocity": 87, "duration": 206}, {"note": 77, "velocity": 85, "duration": 225}, {"note": 75, "velocity": 87, "duration": 224}, {"note": 77, "velocity": 83, "duration": 212}, {"note": 75, "velocity": 92, "duration": 229}, {"note": 73, "velocity": 82, "duration": 256}, {"note": 70, "velocity": 82, "duration": 244}, {"note": 68, "velocity": 80, "duration": 248}, {"note": 66, "velocity": 83, "duration": 1494}, {"note": 0, "velocity": 0, "duration": 426}, {"note": 70, "velocity": 83, "duration": 222}, {"note": 68, "velocity": 81, "duration": 187}, {"note": 68, "velocity": 83, "duration": 196}, {"note": 70, "velocity": 83, "duration": 199}, {"note": 73, "velocity": 69, "duration": 172}, {"note": 0, "velocity": 0, "duration": 68}, {"note": 73, "velocity": 83, "duration": 184}, {"note": 75, "velocity": 87, "duration": 204}, {"note": 73, "velocity": 87, "duration": 203}, {"note": 66, "velocity": 80, "duration": 174}, {"note": 0, "velocity": 0, "duration": 66}, {"note": 66, "velocity": 83, "duration": 185}, {"note": 68, "velocity": 84, "duration": 180}, {"note": 73, "velocity": 74, "duration": 173}, {"note": 0, "velocity": 0, "duration": 67}, {"note": 70, "velocity": 76, "duration": 504}, {"note": 0, "velocity": 0, "duration": 456}, {"note": 75, "velocity": 87, "duration": 206}, {"note": 73, "velocity": 85, "duration": 225}, {"note": 75, "velocity": 87, "duration": 224}, {"note": 78, "velocity": 83, "duration": 212}, {"note": 75, "velocity": 92, "duration": 229}, {"note": 73, "velocity": 82, "duration": 256}, {"note": 70, "velocity": 82, "duration": 244}, {"note": 73, "velocity": 80, "duration": 248}, {"note": 73, "velocity": 78, "duration": 99}, {"note": 70, "velocity": 83, "duration": 1347}, {"note": 0, "velocity": 0, "duration": 426}, {"note": 70, "velocity": 83, "duration": 222}, {"note": 68, "velocity": 81, "duration": 187}, {"note": 68, "velocity": 83, "duration": 196}, {"note": 70, "velocity": 83, "duration": 199}, {"note": 73, "velocity": 69, "duration": 172}, {"note": 0, "velocity": 0, "duration": 68}, {"note": 73, "velocity": 83, "duration": 184}, {"note": 75, "velocity": 87, "duration": 204}, {"note": 73, "velocity": 87, "duration": 203}, {"note": 78, "velocity": 81, "duration": 179}, {"note": 0, "velocity": 0, "duration": 61}, {"note": 77, "velocity": 83, "duration": 208}, {"note": 75, "velocity": 82, "duration": 258}, {"note": 77, "velocity": 82, "duration": 192}, {"note": 75, "velocity": 82, "duration": 209}, {"note": 73, "velocity": 83, "duration": 225}, {"note": 70, "velocity": 82, "duration": 382}, {"note": 0, "velocity": 0, "duration": 98}, {"note": 78, "velocity": 87, "duration": 206}, {"note": 77, "velocity": 85, "duration": 225}, {"note": 75, "velocity": 87, "duration": 224}, {"note": 77, "velocity": 83, "duration": 212}, {"note": 75, "velocity": 92, "duration": 229}, {"note": 73, "velocity": 82, "duration": 256}, {"note": 70, "velocity": 82, "duration": 244}, {"note": 68, "velocity": 80, "duration": 248}, {"note": 66, "velocity": 83, "duration": 1494}, {"note": 0, "velocity": 0, "duration": 15786}, {"note": 70, "velocity": 83, "duration": 222}, {"note": 68, "velocity": 81, "duration": 187}, {"note": 68, "velocity": 83, "duration": 196}, {"note": 70, "velocity": 83, "duration": 199}, {"note": 73, "velocity": 69, "duration": 172}, {"note": 0, "velocity": 0, "duration": 68}, {"note": 73, "velocity": 83, "duration": 184}, {"note": 75, "velocity": 87, "duration": 204}, {"note": 73, "velocity": 87, "duration": 203}, {"note": 66, "velocity": 80, "duration": 174}, {"note": 0, "velocity": 0, "duration": 66}, {"note": 66, "velocity": 83, "duration": 185}, {"note": 68, "velocity": 84, "duration": 180}, {"note": 73, "velocity": 74, "duration": 173}, {"note": 0, "velocity": 0, "duration": 67}, {"note": 70, "velocity": 76, "duration": 504}, {"note": 0, "velocity": 0, "duration": 456}, {"note": 75, "velocity": 87, "duration": 206}, {"note": 73, "velocity": 85, "duration": 225}, {"note": 75, "velocity": 87, "duration": 224}, {"note": 78, "velocity": 83, "duration": 212}, {"note": 75, "velocity": 92, "duration": 229}, {"note": 73, "velocity": 82, "duration": 256}, {"note": 70, "velocity": 82, "duration": 244}, {"note": 68, "velocity": 80, "duration": 248}, {"note": 70, "velocity": 83, "duration": 1494}, {"note": 0, "velocity": 0, "duration": 426}, {"note": 70, "velocity": 83, "duration": 222}, {"note": 68, "velocity": 81, "duration": 187}, {"note": 68, "velocity": 83, "duration": 196}, {"note": 70, "velocity": 83, "duration": 199}, {"note": 73, "velocity": 69, "duration": 172}, {"note": 0, "velocity": 0, "duration": 68}, {"note": 73, "velocity": 83, "duration": 184}, {"note": 75, "velocity": 87, "duration": 204}, {"note": 73, "velocity": 87, "duration": 203}, {"note": 78, "velocity": 81, "duration": 179}, {"note": 0, "velocity": 0, "duration": 61}, {"note": 77, "velocity": 83, "duration": 208}, {"note": 75, "velocity": 82, "duration": 258}, {"note": 77, "velocity": 82, "duration": 192}, {"note": 75, "velocity": 82, "duration": 209}, {"note": 73, "velocity": 83, "duration": 225}, {"note": 70, "velocity": 82, "duration": 382}, {"note": 0, "velocity": 0, "duration": 98}, {"note": 78, "velocity": 87, "duration": 206}, {"note": 77, "velocity": 85, "duration": 225}, {"note": 75, "velocity": 87, "duration": 224}, {"note": 77, "velocity": 83, "duration": 212}, {"note": 75, "velocity": 92, "duration": 229}, {"note": 73, "velocity": 82, "duration": 256}, {"note": 70, "velocity": 82, "duration": 244}, {"note": 68, "velocity": 80, "duration": 248}, {"note": 66, "velocity": 83, "duration": 1494}, {"note": 0, "velocity": 0, "duration": 426}, {"note": 70, "velocity": 83, "duration": 222}, {"note": 68, "velocity": 81, "duration": 187}, {"note": 68, "velocity": 83, "duration": 196}, {"note": 70, "velocity": 83, "duration": 199}, {"note": 73, "velocity": 69, "duration": 172}, {"note": 0, "velocity": 0, "duration": 68}, {"note": 73, "velocity": 83, "duration": 184}, {"note": 75, "velocity": 87, "duration": 204}, {"note": 73, "velocity": 87, "duration": 203}, {"note": 66, "velocity": 80, "duration": 174}, {"note": 0, "velocity": 0, "duration": 66}, {"note": 66, "velocity": 83, "duration": 185}, {"note": 68, "velocity": 84, "duration": 180}, {"note": 73, "velocity": 74, "duration": 173}, {"note": 0, "velocity": 0, "duration": 67}, {"note": 70, "velocity": 76, "duration": 504}, {"note": 0, "velocity": 0, "duration": 456}, {"note": 75, "velocity": 87, "duration": 206}, {"note": 73, "velocity": 85, "duration": 225}, {"note": 75, "velocity": 87, "duration": 224}, {"note": 78, "velocity": 83, "duration": 212}, {"note": 75, "velocity": 92, "duration": 229}, {"note": 73, "velocity": 82, "duration": 256}, {"note": 70, "velocity": 82, "duration": 244}, {"note": 68, "velocity": 80, "duration": 248}, {"note": 70, "velocity": 83, "duration": 1494}, {"note": 0, "velocity": 0, "duration": 426}, {"note": 70, "velocity": 83, "duration": 222}, {"note": 68, "velocity": 81, "duration": 187}, {"note": 68, "velocity": 83, "duration": 196}, {"note": 70, "velocity": 83, "duration": 199}, {"note": 73, "velocity": 69, "duration": 172}, {"note": 0, "velocity": 0, "duration": 68}, {"note": 73, "velocity": 83, "duration": 184}, {"note": 75, "velocity": 87, "duration": 204}, {"note": 73, "velocity": 87, "duration": 203}, {"note": 78, "velocity": 81, "duration": 179}, {"note": 0, "velocity": 0, "duration": 61}, {"note": 77, "velocity": 83, "duration": 208}, {"note": 75, "velocity": 82, "duration": 258}, {"note": 77, "velocity": 82, "duration": 192}, {"note": 75, "velocity": 82, "duration": 209}, {"note": 73, "velocity": 83, "duration": 225}, {"note": 70, "velocity": 82, "duration": 382}, {"note": 0, "velocity": 0, "duration": 98}, {"note": 78, "velocity": 87, "duration": 206}, {"note": 77, "velocity": 85, "duration": 225}, {"note": 75, "velocity": 87, "duration": 224}, {"note": 77, "velocity": 83, "duration": 212}, {"note": 75, "velocity": 92, "duration": 229}, {"note": 73, "velocity": 82, "duration": 256}, {"note": 70, "velocity": 82, "duration": 244}, {"note": 68, "velocity": 80, "duration": 248}, {"note": 66, "velocity": 83, "duration": 1494}]]