[[{"note": 68, "velocity": 83, "duration": 271}, {"note": 75, "velocity": 86, "duration": 546}, {"note": 76, "velocity": 65, "duration": 77}, {"note": 75, "velocity": 75, "duration": 74}, {"note": 73, "velocity": 82, "duration": 148}, {"note": 73, "velocity": 84, "duration": 1338}, {"note": 0, "velocity": 0, "duration": 275}, {"note": 68, "velocity": 84, "duration": 233}, {"note": 80, "velocity": 83, "duration": 1174}, {"note": 78, "velocity": 72, "duration": 203}, {"note": 80, "velocity": 74, "duration": 515}, {"note": 78, "velocity": 71, "duration": 116}, {"note": 80, "velocity": 73, "duration": 1933}, {"note": 0, "velocity": 0, "duration": 7547}, {"note": 68, "velocity": 87, "duration": 184}, {"note": 68, "velocity": 87, "duration": 203}, {"note": 73, "velocity": 88, "duration": 182}, {"note": 73, "velocity": 85, "duration": 172}, {"note": 0, "velocity": 0, "duration": 68}, {"note": 73, "velocity": 83, "duration": 895}, {"note": 0, "velocity": 0, "duration": 65}, {"note": 73, "velocity": 87, "duration": 174}, {"note": 0, "velocity": 0, "duration": 66}, {"note": 73, "velocity": 84, "duration": 86}, {"note": 75, "velocity": 79, "duration": 83}, {"note": 71, "velocity": 78, "duration": 218}, {"note": 68, "velocity": 83, "duration": 129}, {"note": 66, "velocity": 76, "duration": 122}, {"note": 68, "velocity": 85, "duration": 826}, {"note": 0, "velocity": 0, "duration": 134}, {"note": 68, "velocity": 84, "duration": 183}, {"note": 68, "velocity": 84, "duration": 473}, {"note": 71, "velocity": 83, "duration": 252}, {"note": 73, "velocity": 85, "duration": 255}, {"note": 71, "velocity": 79, "duration": 122}, {"note": 68, "velocity": 83, "duration": 142}, {"note": 66, "velocity": 80, "duration": 371}, {"note": 0, "velocity": 0, "duration": 109}, {"note": 66, "velocity": 79, "duration": 114}, {"note": 68, "velocity": 75, "duration": 129}, {"note": 66, "velocity": 76, "duration": 143}, {"note": 68, "velocity": 81, "duration": 84}, {"note": 64, "velocity": 84, "duration": 131}, {"note": 61, "velocity": 84, "duration": 85}, {"note": 61, "velocity": 80, "duration": 115}, {"note": 59, "velocity": 77, "duration": 125}, {"note": 61, "velocity": 79, "duration": 850}, {"note": 0, "velocity": 0, "duration": 110}, {"note": 61, "velocity": 84, "duration": 169}, {"note": 0, "velocity": 0, "duration": 71}, {"note": 61, "velocity": 86, "duration": 182}, {"note": 66, "velocity": 82, "duration": 421}, {"note": 66, "velocity": 83, "duration": 124}, {"note": 68, "velocity": 83, "duration": 122}, {"note": 61, "velocity": 85, "duration": 578}, {"note": 0, "velocity": 0, "duration": 142}, {"note": 73, "velocity": 89, "duration": 347}, {"note": 75, "velocity": 82, "duration": 119}, {"note": 71, "velocity": 64, "duration": 266}, {"note": 68, "velocity": 80, "duration": 124}, {"note": 66, "velocity": 82, "duration": 134}, {"note": 68, "velocity": 77, "duration": 772}, {"note": 0, "velocity": 0, "duration": 428}, {"note": 66, "velocity": 83, "duration": 184}, {"note": 66, "velocity": 81, "duration": 211}, {"note": 68, "velocity": 78, "duration": 246}, {"note": 71, "velocity": 79, "duration": 314}, {"note": 71, "velocity": 79, "duration": 78}, {"note": 71, "velocity": 83, "duration": 251}, {"note": 68, "velocity": 81, "duration": 248}, {"note": 73, "velocity": 84, "duration": 238}, {"note": 68, "velocity": 79, "duration": 119}, {"note": 66, "velocity": 81, "duration": 122}, {"note": 64, "velocity": 83, "duration": 371}, {"note": 66, "velocity": 80, "duration": 135}, {"note": 68, "velocity": 81, "duration": 242}, {"note": 66, "velocity": 81, "duration": 116}, {"note": 68, "velocity": 76, "duration": 136}, {"note": 64, "velocity": 79, "duration": 129}, {"note": 61, "velocity": 82, "duration": 276}, {"note": 59, "velocity": 78, "duration": 130}, {"note": 61, "velocity": 83, "duration": 415}, {"note": 0, "velocity": 0, "duration": 65}, {"note": 61, "velocity": 84, "duration": 121}, {"note": 64, "velocity": 77, "duration": 116}, {"note": 66, "velocity": 77, "duration": 136}, {"note": 68, "velocity": 84, "duration": 124}, {"note": 73, "velocity": 84, "duration": 924}, {"note": 0, "velocity": 0, "duration": 516}, {"note": 68, "velocity": 82, "duration": 241}, {"note": 73, "velocity": 85, "duration": 174}, {"note": 0, "velocity": 0, "duration": 66}, {"note": 73, "velocity": 83, "duration": 875}, {"note": 0, "velocity": 0, "duration": 85}, {"note": 73, "velocity": 84, "duration": 200}, {"note": 73, "velocity": 85, "duration": 83}, {"note": 71, "velocity": 74, "duration": 115}, {"note": 68, "velocity": 82, "duration": 380}, {"note": 0, "velocity": 0, "duration": 100}, {"note": 68, "velocity": 84, "duration": 78}, {"note": 68, "velocity": 85, "duration": 207}, {"note": 71, "velocity": 83, "duration": 130}, {"note": 73, "velocity": 88, "duration": 259}, {"note": 71, "velocity": 84, "duration": 108}, {"note": 66, "velocity": 83, "duration": 129}, {"note": 68, "velocity": 83, "duration": 1051}, {"note": 0, "velocity": 0, "duration": 389}, {"note": 68, "velocity": 85, "duration": 228}, {"note": 73, "velocity": 85, "duration": 189}, {"note": 73, "velocity": 85, "duration": 894}, {"note": 0, "velocity": 0, "duration": 66}, {"note": 73, "velocity": 92, "duration": 362}, {"note": 71, "velocity": 79, "duration": 121}, {"note": 68, "velocity": 83, "duration": 388}, {"note": 0, "velocity": 0, "duration": 92}, {"note": 68, "velocity": 84, "duration": 378}, {"note": 71, "velocity": 83, "duration": 144}, {"note": 73, "velocity": 84, "duration": 152}, {"note": 75, "velocity": 81, "duration": 97}, {"note": 71, "velocity": 83, "duration": 124}, {"note": 66, "velocity": 74, "duration": 119}, {"note": 68, "velocity": 78, "duration": 958}, {"note": 0, "velocity": 0, "duration": 482}, {"note": 61, "velocity": 76, "duration": 172}, {"note": 0, "velocity": 0, "duration": 68}, {"note": 66, "velocity": 82, "duration": 183}, {"note": 66, "velocity": 76, "duration": 994}, {"note": 0, "velocity": 0, "duration": 86}, {"note": 64, "velocity": 78, "duration": 80}, {"note": 64, "velocity": 84, "duration": 74}, {"note": 66, "velocity": 84, "duration": 83}, {"note": 68, "velocity": 83, "duration": 214}, {"note": 68, "velocity": 75, "duration": 238}, {"note": 66, "velocity": 81, "duration": 247}, {"note": 64, "velocity": 83, "duration": 124}, {"note": 59, "velocity": 72, "duration": 144}, {"note": 61, "velocity": 84, "duration": 1000}, {"note": 0, "velocity": 0, "duration": 8600}, {"note": 68, "velocity": 87, "duration": 184}, {"note": 68, "velocity": 87, "duration": 203}, {"note": 73, "velocity": 88, "duration": 182}, {"note": 73, "velocity": 85, "duration": 172}, {"note": 0, "velocity": 0, "duration": 68}, {"note": 73, "velocity": 83, "duration": 895}, {"note": 0, "velocity": 0, "duration": 65}, {"note": 73, "velocity": 87, "duration": 174}, {"note": 0, "velocity": 0, "duration": 66}, {"note": 73, "velocity": 84, "duration": 86}, {"note": 75, "velocity": 79, "duration": 83}, {"note": 71, "velocity": 78, "duration": 218}, {"note": 68, "velocity": 83, "duration": 129}, {"note": 66, "velocity": 76, "duration": 122}, {"note": 68, "velocity": 85, "duration": 826}, {"note": 0, "velocity": 0, "duration": 134}, {"note": 68, "velocity": 84, "duration": 183}, {"note": 68, "velocity": 84, "duration": 473}, {"note": 71, "velocity": 83, "duration": 252}, {"note": 73, "velocity": 85, "duration": 255}, {"note": 71, "velocity": 79, "duration": 122}, {"note": 68, "velocity": 83, "duration": 142}, {"note": 66, "velocity": 80, "duration": 371}, {"note": 0, "velocity": 0, "duration": 109}, {"note": 66, "velocity": 79, "duration": 114}, {"note": 68, "velocity": 75, "duration": 129}, {"note": 66, "velocity": 76, "duration": 143}, {"note": 68, "velocity": 81, "duration": 84}, {"note": 64, "velocity": 84, "duration": 132}, {"note": 61, "velocity": 84, "duration": 94}, {"note": 61, "velocity": 80, "duration": 115}, {"note": 59, "velocity": 77, "duration": 125}, {"note": 61, "velocity": 79, "duration": 850}, {"note": 0, "velocity": 0, "duration": 110}, {"note": 61, "velocity": 84, "duration": 169}, {"note": 0, "velocity": 0, "duration": 71}, {"note": 61, "velocity": 86, "duration": 182}, {"note": 66, "velocity": 82, "duration": 421}, {"note": 66, "velocity": 83, "duration": 124}, {"note": 68, "velocity": 83, "duration": 122}, {"note": 61, "velocity": 85, "duration": 578}, {"note": 0, "velocity": 0, "duration": 142}, {"note": 73, "velocity": 89, "duration": 347}, {"note": 75, "velocity": 82, "duration": 119}, {"note": 71, "velocity": 64, "duration": 266}, {"note": 68, "velocity": 80, "duration": 124}, {"note": 66, "velocity": 82, "duration": 134}, {"note": 68, "velocity": 77, "duration": 772}, {"note": 0, "velocity": 0, "duration": 428}, {"note": 66, "velocity": 83, "duration": 184}, {"note": 66, "velocity": 81, "duration": 211}, {"note": 68, "velocity": 78, "duration": 246}, {"note": 71, "velocity": 79, "duration": 314}, {"note": 71, "velocity": 79, "duration": 78}, {"note": 71, "velocity": 83, "duration": 251}, {"note": 68, "velocity": 81, "duration": 248}, {"note": 73, "velocity": 84, "duration": 238}, {"note": 68, "velocity": 79, "duration": 119}, {"note": 66, "velocity": 81, "duration": 122}, {"note": 64, "velocity": 83, "duration": 371}, {"note": 66, "velocity": 80, "duration": 135}, {"note": 68, "velocity": 81, "duration": 242}, {"note": 66, "velocity": 81, "duration": 116}, {"note": 68, "velocity": 76, "duration": 136}, {"note": 64, "velocity": 79, "duration": 129}, {"note": 61, "velocity": 82, "duration": 276}, {"note": 59, "velocity": 78, "duration": 130}, {"note": 61, "velocity": 83, "duration": 436}, {"note": 61, "velocity": 84, "duration": 121}, {"note": 64, "velocity": 77, "duration": 116}, {"note": 66, "velocity": 77, "duration": 136}, {"note": 68, "velocity": 84, "duration": 124}, {"note": 73, "velocity": 84, "duration": 924}, {"note": 0, "velocity": 0, "duration": 516}, {"note": 68, "velocity": 82, "duration": 241}, {"note": 73, "velocity": 85, "duration": 174}, {"note": 0, "velocity": 0, "duration": 66}, {"note": 73, "velocity": 83, "duration": 875}, {"note": 0, "velocity": 0, "duration": 85}, {"note": 73, "velocity": 84, "duration": 200}, {"note": 73, "velocity": 85, "duration": 83}, {"note": 71, "velocity": 74, "duration": 115}, {"note": 68, "velocity": 82, "duration": 380}, {"note": 0, "velocity": 0, "duration": 100}, {"note": 68, "velocity": 84, "duration": 78}, {"note": 68, "velocity": 85, "duration": 207}, {"note": 71, "velocity": 83, "duration": 130}, {"note": 73, "velocity": 88, "duration": 259}, {"note": 71, "velocity": 84, "duration": 108}, {"note": 66, "velocity": 83, "duration": 129}, {"note": 68, "velocity": 83, "duration": 1051}, {"note": 0, "velocity": 0, "duration": 389}, {"note": 68, "velocity": 85, "duration": 228}, {"note": 73, "velocity": 85, "duration": 189}, {"note": 73, "velocity": 85, "duration": 894}, {"note": 0, "velocity": 0, "duration": 66}, {"note": 73, "velocity": 92, "duration": 362}, {"note": 71, "velocity": 79, "duration": 121}, {"note": 68, "velocity": 83, "duration": 388}, {"note": 0, "velocity": 0, "duration": 92}, {"note": 68, "velocity": 84, "duration": 378}, {"note": 71, "velocity": 83, "duration": 144}, {"note": 73, "velocity": 84, "duration": 152}, {"note": 75, "velocity": 81, "duration": 97}, {"note": 71, "velocity": 83, "duration": 124}, {"note": 66, "velocity": 74, "duration": 119}, {"note": 68, "velocity": 78, "duration": 958}, {"note": 0, "velocity": 0, "duration": 482}, {"note": 61, "velocity": 76, "duration": 172}, {"note": 0, "velocity": 0, "duration": 68}, {"note": 66, "velocity": 82, "duration": 183}, {"note": 66, "velocity": 76, "duration": 994}, {"note": 0, "velocity": 0, "duration": 86}, {"note": 64, "velocity": 78, "duration": 80}, {"note": 64, "velocity": 84, "duration": 74}, {"note": 66, "velocity": 84, "duration": 83}, {"note": 68, "velocity": 83, "duration": 214}, {"note": 68, "velocity": 75, "duration": 238}, {"note": 66, "velocity": 81, "duration": 247}, {"note": 64, "velocity": 83, "duration": 124}, {"note": 59, "velocity": 72, "duration": 144}, {"note": 61, "velocity": 84, "duration": 1000}, {"note": 0, "velocity": 0, "duration": 440}, {"note": 61, "velocity": 76, "duration": 172}, {"note": 0, "velocity": 0, "duration": 68}, {"note": 66, "velocity": 82, "duration": 183}, {"note": 66, "velocity": 76, "duration": 994}, {"note": 0, "velocity": 0, "duration": 206}, {"note": 64, "velocity": 84, "duration": 188}, {"note": 64, "velocity": 84, "duration": 194}, {"note": 66, "velocity": 84, "duration": 199}, {"note": 68, "velocity": 84, "duration": 426}, {"note": 68, "velocity": 86, "duration": 481}, {"note": 71, "velocity": 85, "duration": 958}, {"note": 68, "velocity": 76, "duration": 140}, {"note": 71, "velocity": 76, "duration": 140}, {"note": 73, "velocity": 77, "duration": 121}, {"note": 76, "velocity": 77, "duration": 122}, {"note": 78, "velocity": 84, "duration": 175}, {"note": 80, "velocity": 76, "duration": 1476}, {"note": 83, "velocity": 94, "duration": 212}, {"note": 78, "velocity": 90, "duration": 170}, {"note": 76, "velocity": 84, "duration": 212}, {"note": 71, "velocity": 84, "duration": 1130}, {"note": 73, "velocity": 84, "duration": 3262}]]