[[{"note": 67, "velocity": 83, "duration": 236}, {"note": 72, "velocity": 79, "duration": 89}, {"note": 72, "velocity": 84, "duration": 340}, {"note": 74, "velocity": 79, "duration": 252}, {"note": 77, "velocity": 76, "duration": 216}, {"note": 76, "velocity": 82, "duration": 251}, {"note": 72, "velocity": 84, "duration": 242}, {"note": 69, "velocity": 83, "duration": 1321}, {"note": 0, "velocity": 0, "duration": 839}, {"note": 68, "velocity": 84, "duration": 219}, {"note": 72, "velocity": 87, "duration": 61}, {"note": 72, "velocity": 84, "duration": 331}, {"note": 74, "velocity": 87, "duration": 245}, {"note": 77, "velocity": 85, "duration": 246}, {"note": 76, "velocity": 83, "duration": 221}, {"note": 72, "velocity": 84, "duration": 271}, {"note": 74, "velocity": 84, "duration": 497}, {"note": 76, "velocity": 84, "duration": 1508}, {"note": 0, "velocity": 0, "duration": 172}, {"note": 67, "velocity": 83, "duration": 236}, {"note": 72, "velocity": 79, "duration": 89}, {"note": 72, "velocity": 84, "duration": 340}, {"note": 74, "velocity": 79, "duration": 252}, {"note": 77, "velocity": 76, "duration": 216}, {"note": 76, "velocity": 82, "duration": 251}, {"note": 72, "velocity": 84, "duration": 242}, {"note": 69, "velocity": 83, "duration": 1321}, {"note": 0, "velocity": 0, "duration": 839}, {"note": 68, "velocity": 84, "duration": 219}, {"note": 72, "velocity": 87, "duration": 61}, {"note": 72, "velocity": 84, "duration": 331}, {"note": 74, "velocity": 87, "duration": 245}, {"note": 79, "velocity": 85, "duration": 246}, {"note": 72, "velocity": 83, "duration": 221}, {"note": 74, "velocity": 84, "duration": 238}, {"note": 74, "velocity": 84, "duration": 478}, {"note": 72, "velocity": 84, "duration": 1508}, {"note": 0, "velocity": 0, "duration": 172}, {"note": 71, "velocity": 81, "duration": 248}, {"note": 72, "velocity": 84, "duration": 254}, {"note": 74, "velocity": 85, "duration": 216}, {"note": 76, "velocity": 86, "duration": 478}, {"note": 80, "velocity": 84, "duration": 392}, {"note": 0, "velocity": 0, "duration": 88}, {"note": 76, "velocity": 86, "duration": 196}, {"note": 74, "velocity": 85, "duration": 214}, {"note": 72, "velocity": 79, "duration": 273}, {"note": 74, "velocity": 88, "duration": 250}, {"note": 76, "velocity": 84, "duration": 490}, {"note": 72, "velocity": 82, "duration": 238}, {"note": 81, "velocity": 84, "duration": 400}, {"note": 0, "velocity": 0, "duration": 80}, {"note": 81, "velocity": 79, "duration": 193}, {"note": 79, "velocity": 82, "duration": 118}, {"note": 79, "velocity": 84, "duration": 238}, {"note": 76, "velocity": 83, "duration": 182}, {"note": 74, "velocity": 89, "duration": 218}, {"note": 72, "velocity": 87, "duration": 446}, {"note": 0, "velocity": 0, "duration": 154}, {"note": 72, "velocity": 84, "duration": 136}, {"note": 79, "velocity": 83, "duration": 344}, {"note": 72, "velocity": 86, "duration": 77}, {"note": 72, "velocity": 79, "duration": 244}, {"note": 74, "velocity": 84, "duration": 223}, {"note": 74, "velocity": 87, "duration": 495}, {"note": 0, "velocity": 0, "duration": 105}, {"note": 77, "velocity": 81, "duration": 394}, {"note": 0, "velocity": 0, "duration": 86}, {"note": 76, "velocity": 85, "duration": 936}, {"note": 74, "velocity": 87, "duration": 271}, {"note": 76, "velocity": 86, "duration": 258}, {"note": 79, "velocity": 83, "duration": 238}, {"note": 72, "velocity": 83, "duration": 1015}, {"note": 0, "velocity": 0, "duration": 425}, {"note": 71, "velocity": 86, "duration": 233}, {"note": 72, "velocity": 85, "duration": 214}, {"note": 81, "velocity": 85, "duration": 779}, {"note": 72, "velocity": 73, "duration": 230}, {"note": 79, "velocity": 83, "duration": 437}, {"note": 76, "velocity": 83, "duration": 253}, {"note": 74, "velocity": 84, "duration": 237}, {"note": 72, "velocity": 84, "duration": 267}, {"note": 69, "velocity": 77, "duration": 243}, {"note": 71, "velocity": 84, "duration": 259}, {"note": 72, "velocity": 82, "duration": 255}, {"note": 74, "velocity": 85, "duration": 611}, {"note": 0, "velocity": 0, "duration": 109}, {"note": 77, "velocity": 84, "duration": 469}, {"note": 76, "velocity": 83, "duration": 948}, {"note": 74, "velocity": 83, "duration": 253}, {"note": 76, "velocity": 84, "duration": 268}, {"note": 79, "velocity": 82, "duration": 298}, {"note": 72, "velocity": 79, "duration": 1187}, {"note": 0, "velocity": 0, "duration": 253}, {"note": 71, "velocity": 85, "duration": 180}, {"note": 72, "velocity": 84, "duration": 204}, {"note": 81, "velocity": 85, "duration": 458}, {"note": 71, "velocity": 87, "duration": 186}, {"note": 72, "velocity": 82, "duration": 199}, {"note": 79, "velocity": 84, "duration": 412}, {"note": 0, "velocity": 0, "duration": 68}, {"note": 76, "velocity": 81, "duration": 193}, {"note": 74, "velocity": 84, "duration": 222}, {"note": 72, "velocity": 84, "duration": 233}, {"note": 69, "velocity": 80, "duration": 251}, {"note": 71, "velocity": 84, "duration": 244}, {"note": 72, "velocity": 78, "duration": 253}, {"note": 77, "velocity": 83, "duration": 399}, {"note": 0, "velocity": 0, "duration": 81}, {"note": 76, "velocity": 84, "duration": 326}, {"note": 74, "velocity": 85, "duration": 228}, {"note": 72, "velocity": 78, "duration": 1530}, {"note": 0, "velocity": 0, "duration": 7230}, {"note": 67, "velocity": 83, "duration": 236}, {"note": 72, "velocity": 79, "duration": 89}, {"note": 72, "velocity": 84, "duration": 340}, {"note": 74, "velocity": 79, "duration": 252}, {"note": 77, "velocity": 76, "duration": 216}, {"note": 76, "velocity": 82, "duration": 251}, {"note": 72, "velocity": 84, "duration": 242}, {"note": 69, "velocity": 83, "duration": 1321}, {"note": 0, "velocity": 0, "duration": 839}, {"note": 68, "velocity": 84, "duration": 219}, {"note": 72, "velocity": 87, "duration": 61}, {"note": 72, "velocity": 84, "duration": 331}, {"note": 74, "velocity": 87, "duration": 245}, {"note": 77, "velocity": 85, "duration": 246}, {"note": 76, "velocity": 83, "duration": 221}, {"note": 72, "velocity": 84, "duration": 271}, {"note": 74, "velocity": 84, "duration": 497}, {"note": 76, "velocity": 84, "duration": 1508}, {"note": 0, "velocity": 0, "duration": 172}, {"note": 67, "velocity": 83, "duration": 236}, {"note": 72, "velocity": 79, "duration": 89}, {"note": 72, "velocity": 84, "duration": 340}, {"note": 74, "velocity": 79, "duration": 252}, {"note": 77, "velocity": 76, "duration": 216}, {"note": 76, "velocity": 82, "duration": 251}, {"note": 72, "velocity": 84, "duration": 242}, {"note": 69, "velocity": 83, "duration": 1321}, {"note": 0, "velocity": 0, "duration": 839}, {"note": 68, "velocity": 84, "duration": 219}, {"note": 72, "velocity": 87, "duration": 61}, {"note": 72, "velocity": 84, "duration": 331}, {"note": 74, "velocity": 87, "duration": 245}, {"note": 79, "velocity": 85, "duration": 246}, {"note": 72, "velocity": 83, "duration": 221}, {"note": 74, "velocity": 84, "duration": 238}, {"note": 74, "velocity": 84, "duration": 478}, {"note": 72, "velocity": 84, "duration": 1508}, {"note": 0, "velocity": 0, "duration": 172}, {"note": 71, "velocity": 81, "duration": 248}, {"note": 72, "velocity": 84, "duration": 254}, {"note": 74, "velocity": 85, "duration": 216}, {"note": 76, "velocity": 86, "duration": 478}, {"note": 80, "velocity": 84, "duration": 392}, {"note": 0, "velocity": 0, "duration": 88}, {"note": 76, "velocity": 86, "duration": 196}, {"note": 74, "velocity": 85, "duration": 214}, {"note": 72, "velocity": 79, "duration": 273}, {"note": 74, "velocity": 88, "duration": 250}, {"note": 76, "velocity": 84, "duration": 490}, {"note": 72, "velocity": 82, "duration": 238}, {"note": 81, "velocity": 84, "duration": 400}, {"note": 0, "velocity": 0, "duration": 80}, {"note": 81, "velocity": 79, "duration": 193}, {"note": 79, "velocity": 82, "duration": 118}, {"note": 79, "velocity": 84, "duration": 238}, {"note": 76, "velocity": 83, "duration": 182}, {"note": 74, "velocity": 89, "duration": 218}, {"note": 72, "velocity": 87, "duration": 446}, {"note": 0, "velocity": 0, "duration": 154}, {"note": 72, "velocity": 84, "duration": 136}, {"note": 79, "velocity": 83, "duration": 344}, {"note": 72, "velocity": 86, "duration": 77}, {"note": 72, "velocity": 79, "duration": 244}, {"note": 74, "velocity": 84, "duration": 223}, {"note": 74, "velocity": 87, "duration": 495}, {"note": 0, "velocity": 0, "duration": 105}, {"note": 77, "velocity": 81, "duration": 394}, {"note": 0, "velocity": 0, "duration": 86}, {"note": 76, "velocity": 85, "duration": 936}, {"note": 74, "velocity": 87, "duration": 271}, {"note": 76, "velocity": 86, "duration": 258}, {"note": 79, "velocity": 83, "duration": 238}, {"note": 72, "velocity": 83, "duration": 1015}, {"note": 0, "velocity": 0, "duration": 425}, {"note": 71, "velocity": 86, "duration": 233}, {"note": 72, "velocity": 85, "duration": 214}, {"note": 81, "velocity": 85, "duration": 779}, {"note": 72, "velocity": 73, "duration": 230}, {"note": 79, "velocity": 83, "duration": 437}, {"note": 76, "velocity": 83, "duration": 253}, {"note": 74, "velocity": 84, "duration": 237}, {"note": 72, "velocity": 84, "duration": 267}, {"note": 69, "velocity": 77, "duration": 243}, {"note": 71, "velocity": 84, "duration": 259}, {"note": 72, "velocity": 82, "duration": 255}, {"note": 74, "velocity": 85, "duration": 611}, {"note": 0, "velocity": 0, "duration": 109}, {"note": 77, "velocity": 84, "duration": 469}, {"note": 76, "velocity": 83, "duration": 948}, {"note": 74, "velocity": 83, "duration": 253}, {"note": 76, "velocity": 84, "duration": 268}, {"note": 79, "velocity": 82, "duration": 298}, {"note": 72, "velocity": 79, "duration": 1187}, {"note": 0, "velocity": 0, "duration": 253}, {"note": 71, "velocity": 85, "duration": 180}, {"note": 72, "velocity": 84, "duration": 204}, {"note": 81, "velocity": 85, "duration": 458}, {"note": 71, "velocity": 87, "duration": 186}, {"note": 72, "velocity": 82, "duration": 199}, {"note": 79, "velocity": 84, "duration": 412}, {"note": 0, "velocity": 0, "duration": 68}, {"note": 76, "velocity": 81, "duration": 193}, {"note": 74, "velocity": 84, "duration": 222}, {"note": 72, "velocity": 84, "duration": 233}, {"note": 69, "velocity": 80, "duration": 251}, {"note": 71, "velocity": 84, "duration": 244}, {"note": 72, "velocity": 78, "duration": 253}, {"note": 77, "velocity": 83, "duration": 399}, {"note": 0, "velocity": 0, "duration": 81}, {"note": 76, "velocity": 84, "duration": 238}, {"note": 74, "velocity": 85, "duration": 228}, {"note": 72, "velocity": 78, "duration": 238}, {"note": 81, "velocity": 84, "duration": 621}, {"note": 0, "velocity": 0, "duration": 99}, {"note": 81, "velocity": 84, "duration": 191}, {"note": 79, "velocity": 83, "duration": 200}, {"note": 76, "velocity": 85, "duration": 255}, {"note": 74, "velocity": 89, "duration": 179}, {"note": 0, "velocity": 0, "duration": 61}, {"note": 74, "velocity": 84, "duration": 470}, {"note": 76, "velocity": 83, "duration": 435}, {"note": 81, "velocity": 83, "duration": 175}, {"note": 0, "velocity": 0, "duration": 65}, {"note": 79, "velocity": 78, "duration": 239}, {"note": 76, "velocity": 85, "duration": 271}, {"note": 74, "velocity": 87, "duration": 235}, {"note": 72, "velocity": 84, "duration": 477}, {"note": 69, "velocity": 77, "duration": 286}, {"note": 0, "velocity": 0, "duration": 194}, {"note": 77, "velocity": 79, "duration": 190}, {"note": 76, "velocity": 84, "duration": 250}, {"note": 74, "velocity": 85, "duration": 199}, {"note": 74, "velocity": 86, "duration": 204}, {"note": 72, "velocity": 84, "duration": 179}, {"note": 0, "velocity": 0, "duration": 61}, {"note": 72, "velocity": 82, "duration": 209}, {"note": 74, "velocity": 85, "duration": 209}, {"note": 76, "velocity": 80, "duration": 179}, {"note": 0, "velocity": 0, "duration": 61}, {"note": 76, "velocity": 83, "duration": 383}, {"note": 0, "velocity": 0, "duration": 97}, {"note": 81, "velocity": 76, "duration": 116}, {"note": 79, "velocity": 84, "duration": 238}, {"note": 74, "velocity": 83, "duration": 118}, {"note": 72, "velocity": 76, "duration": 383}, {"note": 0, "velocity": 0, "duration": 577}, {"note": 81, "velocity": 81, "duration": 184}, {"note": 79, "velocity": 83, "duration": 230}, {"note": 76, "velocity": 85, "duration": 183}, {"note": 74, "velocity": 85, "duration": 175}, {"note": 0, "velocity": 0, "duration": 65}, {"note": 74, "velocity": 89, "duration": 468}, {"note": 76, "velocity": 79, "duration": 418}, {"note": 0, "velocity": 0, "duration": 62}, {"note": 81, "velocity": 84, "duration": 193}, {"note": 79, "velocity": 84, "duration": 223}, {"note": 76, "velocity": 84, "duration": 281}, {"note": 74, "velocity": 85, "duration": 243}, {"note": 72, "velocity": 83, "duration": 758}, {"note": 0, "velocity": 0, "duration": 202}, {"note": 77, "velocity": 85, "duration": 187}, {"note": 76, "velocity": 84, "duration": 205}, {"note": 74, "velocity": 85, "duration": 168}, {"note": 0, "velocity": 0, "duration": 72}, {"note": 74, "velocity": 86, "duration": 232}, {"note": 72, "velocity": 82, "duration": 108}, {"note": 81, "velocity": 85, "duration": 287}, {"note": 0, "velocity": 0, "duration": 73}, {"note": 81, "velocity": 78, "duration": 57}, {"note": 0, "velocity": 0, "duration": 63}, {"note": 81, "velocity": 83, "duration": 242}, {"note": 82, "velocity": 77, "duration": 120}, {"note": 81, "velocity": 76, "duration": 134}, {"note": 79, "velocity": 79, "duration": 74}, {"note": 79, "velocity": 83, "duration": 598}, {"note": 76, "velocity": 84, "duration": 94}, {"note": 79, "velocity": 82, "duration": 83}, {"note": 81, "velocity": 84, "duration": 1238}, {"note": 0, "velocity": 0, "duration": 322}, {"note": 79, "velocity": 81, "duration": 394}, {"note": 0, "velocity": 0, "duration": 86}, {"note": 78, "velocity": 85, "duration": 936}, {"note": 76, "velocity": 87, "duration": 271}, {"note": 78, "velocity": 86, "duration": 258}, {"note": 81, "velocity": 83, "duration": 238}, {"note": 74, "velocity": 83, "duration": 1015}, {"note": 0, "velocity": 0, "duration": 425}, {"note": 73, "velocity": 86, "duration": 233}, {"note": 74, "velocity": 85, "duration": 214}, {"note": 83, "velocity": 85, "duration": 779}, {"note": 74, "velocity": 73, "duration": 230}, {"note": 81, "velocity": 83, "duration": 437}, {"note": 78, "velocity": 83, "duration": 253}, {"note": 76, "velocity": 84, "duration": 237}, {"note": 74, "velocity": 84, "duration": 267}, {"note": 71, "velocity": 77, "duration": 243}, {"note": 73, "velocity": 84, "duration": 259}, {"note": 74, "velocity": 82, "duration": 255}, {"note": 76, "velocity": 85, "duration": 611}, {"note": 0, "velocity": 0, "duration": 109}, {"note": 79, "velocity": 84, "duration": 469}, {"note": 78, "velocity": 83, "duration": 948}, {"note": 76, "velocity": 83, "duration": 253}, {"note": 78, "velocity": 84, "duration": 268}, {"note": 81, "velocity": 82, "duration": 298}, {"note": 74, "velocity": 79, "duration": 1187}, {"note": 0, "velocity": 0, "duration": 253}, {"note": 73, "velocity": 85, "duration": 180}, {"note": 74, "velocity": 84, "duration": 204}, {"note": 83, "velocity": 85, "duration": 458}, {"note": 73, "velocity": 87, "duration": 186}, {"note": 74, "velocity": 82, "duration": 199}, {"note": 81, "velocity": 84, "duration": 412}, {"note": 0, "velocity": 0, "duration": 68}, {"note": 78, "velocity": 81, "duration": 193}, {"note": 76, "velocity": 84, "duration": 222}, {"note": 74, "velocity": 84, "duration": 233}, {"note": 71, "velocity": 80, "duration": 251}, {"note": 73, "velocity": 84, "duration": 244}, {"note": 74, "velocity": 78, "duration": 253}, {"note": 79, "velocity": 83, "duration": 399}, {"note": 0, "velocity": 0, "duration": 81}, {"note": 78, "velocity": 84, "duration": 238}, {"note": 76, "velocity": 85, "duration": 228}, {"note": 74, "velocity": 78, "duration": 238}, {"note": 0, "velocity": 0, "duration": 3122}, {"note": 66, "velocity": 84, "duration": 257}, {"note": 64, "velocity": 86, "duration": 251}, {"note": 62, "velocity": 81, "duration": 250}, {"note": 59, "velocity": 84, "duration": 249}, {"note": 61, "velocity": 79, "duration": 253}, {"note": 62, "velocity": 83, "duration": 271}, {"note": 67, "velocity": 80, "duration": 1306}, {"note": 0, "velocity": 0, "duration": 134}, {"note": 66, "velocity": 87, "duration": 246}, {"note": 62, "velocity": 83, "duration": 230}, {"note": 64, "velocity": 83, "duration": 165}, {"note": 0, "velocity": 0, "duration": 75}, {"note": 64, "velocity": 80, "duration": 244}, {"note": 62, "velocity": 78, "duration": 1177}]]