[[{"note": 70, "velocity": 83, "duration": 276}, {"note": 75, "velocity": 92, "duration": 404}, {"note": 0, "velocity": 0, "duration": 76}, {"note": 75, "velocity": 90, "duration": 375}, {"note": 0, "velocity": 0, "duration": 105}, {"note": 75, "velocity": 89, "duration": 413}, {"note": 0, "velocity": 0, "duration": 67}, {"note": 77, "velocity": 88, "duration": 178}, {"note": 0, "velocity": 0, "duration": 62}, {"note": 79, "velocity": 85, "duration": 213}, {"note": 77, "velocity": 90, "duration": 720}, {"note": 79, "velocity": 85, "duration": 240}, {"note": 75, "velocity": 89, "duration": 530}, {"note": 74, "velocity": 86, "duration": 271}, {"note": 75, "velocity": 89, "duration": 179}, {"note": 0, "velocity": 0, "duration": 61}, {"note": 75, "velocity": 89, "duration": 399}, {"note": 0, "velocity": 0, "duration": 321}, {"note": 75, "velocity": 86, "duration": 176}, {"note": 0, "velocity": 0, "duration": 64}, {"note": 75, "velocity": 87, "duration": 153}, {"note": 0, "velocity": 0, "duration": 87}, {"note": 75, "velocity": 92, "duration": 171}, {"note": 0, "velocity": 0, "duration": 69}, {"note": 77, "velocity": 85, "duration": 174}, {"note": 0, "velocity": 0, "duration": 66}, {"note": 75, "velocity": 85, "duration": 166}, {"note": 0, "velocity": 0, "duration": 74}, {"note": 74, "velocity": 85, "duration": 476}, {"note": 72, "velocity": 86, "duration": 398}, {"note": 0, "velocity": 0, "duration": 82}, {"note": 74, "velocity": 86, "duration": 394}, {"note": 0, "velocity": 0, "duration": 86}, {"note": 70, "velocity": 87, "duration": 487}, {"note": 72, "velocity": 86, "duration": 479}, {"note": 0, "velocity": 0, "duration": 241}, {"note": 72, "velocity": 87, "duration": 145}, {"note": 0, "velocity": 0, "duration": 95}, {"note": 72, "velocity": 86, "duration": 167}, {"note": 0, "velocity": 0, "duration": 73}, {"note": 72, "velocity": 86, "duration": 214}, {"note": 77, "velocity": 85, "duration": 178}, {"note": 0, "velocity": 0, "duration": 62}, {"note": 75, "velocity": 83, "duration": 192}, {"note": 70, "velocity": 89, "duration": 463}, {"note": 0, "velocity": 0, "duration": 257}, {"note": 74, "velocity": 85, "duration": 149}, {"note": 0, "velocity": 0, "duration": 91}, {"note": 75, "velocity": 91, "duration": 342}, {"note": 0, "velocity": 0, "duration": 138}, {"note": 77, "velocity": 86, "duration": 154}, {"note": 0, "velocity": 0, "duration": 86}, {"note": 79, "velocity": 86, "duration": 152}, {"note": 0, "velocity": 0, "duration": 88}, {"note": 80, "velocity": 86, "duration": 361}, {"note": 0, "velocity": 0, "duration": 119}, {"note": 79, "velocity": 87, "duration": 337}, {"note": 0, "velocity": 0, "duration": 143}, {"note": 77, "velocity": 86, "duration": 416}, {"note": 0, "velocity": 0, "duration": 64}, {"note": 75, "velocity": 88, "duration": 235}, {"note": 77, "velocity": 87, "duration": 178}, {"note": 0, "velocity": 0, "duration": 62}, {"note": 77, "velocity": 87, "duration": 1680}, {"note": 0, "velocity": 0, "duration": 720}, {"note": 70, "velocity": 78, "duration": 166}, {"note": 0, "velocity": 0, "duration": 74}, {"note": 75, "velocity": 91, "duration": 145}, {"note": 0, "velocity": 0, "duration": 95}, {"note": 75, "velocity": 89, "duration": 145}, {"note": 0, "velocity": 0, "duration": 95}, {"note": 75, "velocity": 87, "duration": 162}, {"note": 0, "velocity": 0, "duration": 78}, {"note": 77, "velocity": 87, "duration": 170}, {"note": 0, "velocity": 0, "duration": 70}, {"note": 79, "velocity": 85, "duration": 215}, {"note": 77, "velocity": 85, "duration": 720}, {"note": 79, "velocity": 82, "duration": 240}, {"note": 75, "velocity": 84, "duration": 454}, {"note": 74, "velocity": 81, "duration": 162}, {"note": 0, "velocity": 0, "duration": 78}, {"note": 75, "velocity": 87, "duration": 136}, {"note": 0, "velocity": 0, "duration": 104}, {"note": 75, "velocity": 89, "duration": 382}, {"note": 0, "velocity": 0, "duration": 338}, {"note": 75, "velocity": 90, "duration": 111}, {"note": 0, "velocity": 0, "duration": 129}, {"note": 75, "velocity": 86, "duration": 149}, {"note": 0, "velocity": 0, "duration": 91}, {"note": 75, "velocity": 86, "duration": 171}, {"note": 0, "velocity": 0, "duration": 69}, {"note": 77, "velocity": 85, "duration": 184}, {"note": 75, "velocity": 86, "duration": 193}, {"note": 74, "velocity": 85, "duration": 477}, {"note": 72, "velocity": 86, "duration": 460}, {"note": 74, "velocity": 83, "duration": 423}, {"note": 70, "velocity": 86, "duration": 458}, {"note": 72, "velocity": 85, "duration": 402}, {"note": 0, "velocity": 0, "duration": 78}, {"note": 72, "velocity": 85, "duration": 195}, {"note": 80, "velocity": 83, "duration": 140}, {"note": 0, "velocity": 0, "duration": 100}, {"note": 80, "velocity": 82, "duration": 136}, {"note": 0, "velocity": 0, "duration": 104}, {"note": 80, "velocity": 85, "duration": 153}, {"note": 0, "velocity": 0, "duration": 87}, {"note": 79, "velocity": 86, "duration": 215}, {"note": 77, "velocity": 86, "duration": 216}, {"note": 75, "velocity": 88, "duration": 416}, {"note": 0, "velocity": 0, "duration": 64}, {"note": 72, "velocity": 79, "duration": 240}, {"note": 74, "velocity": 86, "duration": 240}, {"note": 75, "velocity": 86, "duration": 480}, {"note": 77, "velocity": 85, "duration": 241}, {"note": 79, "velocity": 85, "duration": 181}, {"note": 80, "velocity": 83, "duration": 425}, {"note": 79, "velocity": 88, "duration": 232}, {"note": 75, "velocity": 86, "duration": 217}, {"note": 80, "velocity": 80, "duration": 438}, {"note": 79, "velocity": 81, "duration": 213}, {"note": 80, "velocity": 85, "duration": 206}, {"note": 82, "velocity": 83, "duration": 1241}, {"note": 0, "velocity": 0, "duration": 199}, {"note": 70, "velocity": 87, "duration": 175}, {"note": 0, "velocity": 0, "duration": 65}, {"note": 72, "velocity": 86, "duration": 148}, {"note": 0, "velocity": 0, "duration": 92}, {"note": 75, "velocity": 90, "duration": 133}, {"note": 0, "velocity": 0, "duration": 107}, {"note": 79, "velocity": 89, "duration": 357}, {"note": 0, "velocity": 0, "duration": 123}, {"note": 77, "velocity": 87, "duration": 416}, {"note": 0, "velocity": 0, "duration": 64}, {"note": 75, "velocity": 87, "duration": 145}, {"note": 0, "velocity": 0, "duration": 95}, {"note": 77, "velocity": 81, "duration": 167}, {"note": 0, "velocity": 0, "duration": 73}, {"note": 79, "velocity": 85, "duration": 197}, {"note": 77, "velocity": 87, "duration": 1215}, {"note": 0, "velocity": 0, "duration": 225}, {"note": 70, "velocity": 87, "duration": 166}, {"note": 0, "velocity": 0, "duration": 74}, {"note": 72, "velocity": 85, "duration": 149}, {"note": 0, "velocity": 0, "duration": 91}, {"note": 75, "velocity": 88, "duration": 132}, {"note": 0, "velocity": 0, "duration": 108}, {"note": 79, "velocity": 89, "duration": 368}, {"note": 0, "velocity": 0, "duration": 112}, {"note": 77, "velocity": 85, "duration": 400}, {"note": 0, "velocity": 0, "duration": 80}, {"note": 75, "velocity": 86, "duration": 153}, {"note": 0, "velocity": 0, "duration": 87}, {"note": 77, "velocity": 81, "duration": 175}, {"note": 0, "velocity": 0, "duration": 65}, {"note": 79, "velocity": 84, "duration": 188}, {"note": 77, "velocity": 90, "duration": 1156}, {"note": 0, "velocity": 0, "duration": 284}, {"note": 79, "velocity": 81, "duration": 171}, {"note": 0, "velocity": 0, "duration": 69}, {"note": 82, "velocity": 85, "duration": 144}, {"note": 0, "velocity": 0, "duration": 96}, {"note": 82, "velocity": 85, "duration": 370}, {"note": 0, "velocity": 0, "duration": 110}, {"note": 75, "velocity": 86, "duration": 154}, {"note": 0, "velocity": 0, "duration": 86}, {"note": 75, "velocity": 87, "duration": 149}, {"note": 0, "velocity": 0, "duration": 91}, {"note": 75, "velocity": 88, "duration": 145}, {"note": 0, "velocity": 0, "duration": 95}, {"note": 75, "velocity": 86, "duration": 183}, {"note": 74, "velocity": 78, "duration": 178}, {"note": 0, "velocity": 0, "duration": 62}, {"note": 75, "velocity": 90, "duration": 200}, {"note": 82, "velocity": 88, "duration": 374}, {"note": 0, "velocity": 0, "duration": 106}, {"note": 75, "velocity": 87, "duration": 161}, {"note": 0, "velocity": 0, "duration": 79}, {"note": 74, "velocity": 81, "duration": 174}, {"note": 0, "velocity": 0, "duration": 66}, {"note": 75, "velocity": 79, "duration": 372}, {"note": 0, "velocity": 0, "duration": 108}, {"note": 77, "velocity": 86, "duration": 148}, {"note": 0, "velocity": 0, "duration": 92}, {"note": 79, "velocity": 81, "duration": 175}, {"note": 0, "velocity": 0, "duration": 65}, {"note": 80, "velocity": 79, "duration": 421}, {"note": 79, "velocity": 85, "duration": 209}, {"note": 77, "velocity": 85, "duration": 146}, {"note": 0, "velocity": 0, "duration": 94}, {"note": 77, "velocity": 88, "duration": 464}, {"note": 75, "velocity": 87, "duration": 252}, {"note": 77, "velocity": 86, "duration": 149}, {"note": 0, "velocity": 0, "duration": 91}, {"note": 77, "velocity": 89, "duration": 480}, {"note": 75, "velocity": 92, "duration": 181}, {"note": 79, "velocity": 87, "duration": 175}, {"note": 0, "velocity": 0, "duration": 65}, {"note": 77, "velocity": 89, "duration": 297}, {"note": 0, "velocity": 0, "duration": 183}, {"note": 70, "velocity": 87, "duration": 175}, {"note": 0, "velocity": 0, "duration": 65}, {"note": 72, "velocity": 86, "duration": 148}, {"note": 0, "velocity": 0, "duration": 92}, {"note": 75, "velocity": 90, "duration": 133}, {"note": 0, "velocity": 0, "duration": 107}, {"note": 79, "velocity": 89, "duration": 357}, {"note": 0, "velocity": 0, "duration": 123}, {"note": 77, "velocity": 87, "duration": 416}, {"note": 0, "velocity": 0, "duration": 64}, {"note": 75, "velocity": 87, "duration": 145}, {"note": 0, "velocity": 0, "duration": 95}, {"note": 77, "velocity": 81, "duration": 167}, {"note": 0, "velocity": 0, "duration": 73}, {"note": 79, "velocity": 85, "duration": 197}, {"note": 77, "velocity": 87, "duration": 1215}, {"note": 0, "velocity": 0, "duration": 225}, {"note": 70, "velocity": 87, "duration": 166}, {"note": 0, "velocity": 0, "duration": 74}, {"note": 72, "velocity": 85, "duration": 149}, {"note": 0, "velocity": 0, "duration": 91}, {"note": 75, "velocity": 88, "duration": 132}, {"note": 0, "velocity": 0, "duration": 108}, {"note": 79, "velocity": 89, "duration": 368}, {"note": 0, "velocity": 0, "duration": 112}, {"note": 77, "velocity": 85, "duration": 400}, {"note": 0, "velocity": 0, "duration": 80}, {"note": 75, "velocity": 86, "duration": 153}, {"note": 0, "velocity": 0, "duration": 87}, {"note": 77, "velocity": 81, "duration": 175}, {"note": 0, "velocity": 0, "duration": 65}, {"note": 79, "velocity": 84, "duration": 188}, {"note": 77, "velocity": 90, "duration": 1156}, {"note": 0, "velocity": 0, "duration": 284}, {"note": 79, "velocity": 81, "duration": 171}, {"note": 0, "velocity": 0, "duration": 69}, {"note": 82, "velocity": 85, "duration": 144}, {"note": 0, "velocity": 0, "duration": 96}, {"note": 84, "velocity": 85, "duration": 370}, {"note": 0, "velocity": 0, "duration": 110}, {"note": 84, "velocity": 86, "duration": 154}, {"note": 0, "velocity": 0, "duration": 86}, {"note": 84, "velocity": 87, "duration": 149}, {"note": 0, "velocity": 0, "duration": 91}, {"note": 82, "velocity": 88, "duration": 145}, {"note": 0, "velocity": 0, "duration": 95}, {"note": 80, "velocity": 86, "duration": 183}, {"note": 82, "velocity": 78, "duration": 178}, {"note": 0, "velocity": 0, "duration": 62}, {"note": 84, "velocity": 90, "duration": 240}, {"note": 82, "velocity": 88, "duration": 374}, {"note": 0, "velocity": 0, "duration": 106}, {"note": 70, "velocity": 87, "duration": 161}, {"note": 0, "velocity": 0, "duration": 79}, {"note": 72, "velocity": 81, "duration": 174}, {"note": 0, "velocity": 0, "duration": 66}, {"note": 75, "velocity": 79, "duration": 372}, {"note": 0, "velocity": 0, "duration": 108}, {"note": 75, "velocity": 86, "duration": 148}, {"note": 0, "velocity": 0, "duration": 92}, {"note": 77, "velocity": 81, "duration": 175}, {"note": 0, "velocity": 0, "duration": 65}, {"note": 79, "velocity": 79, "duration": 240}, {"note": 80, "velocity": 85, "duration": 480}, {"note": 79, "velocity": 85, "duration": 146}, {"note": 0, "velocity": 0, "duration": 94}, {"note": 77, "velocity": 88, "duration": 464}, {"note": 75, "velocity": 87, "duration": 480}, {"note": 80, "velocity": 87, "duration": 353}, {"note": 0, "velocity": 0, "duration": 127}, {"note": 79, "velocity": 86, "duration": 206}, {"note": 77, "velocity": 86, "duration": 134}, {"note": 0, "velocity": 0, "duration": 106}, {"note": 77, "velocity": 86, "duration": 421}, {"note": 79, "velocity": 86, "duration": 204}, {"note": 75, "velocity": 87, "duration": 171}, {"note": 0, "velocity": 0, "duration": 69}, {"note": 75, "velocity": 87, "duration": 1730}, {"note": 0, "velocity": 0, "duration": 13390}, {"note": 70, "velocity": 83, "duration": 276}, {"note": 75, "velocity": 92, "duration": 404}, {"note": 0, "velocity": 0, "duration": 76}, {"note": 75, "velocity": 90, "duration": 375}, {"note": 0, "velocity": 0, "duration": 105}, {"note": 75, "velocity": 89, "duration": 413}, {"note": 0, "velocity": 0, "duration": 67}, {"note": 77, "velocity": 88, "duration": 178}, {"note": 0, "velocity": 0, "duration": 62}, {"note": 79, "velocity": 85, "duration": 213}, {"note": 77, "velocity": 90, "duration": 720}, {"note": 79, "velocity": 85, "duration": 240}, {"note": 75, "velocity": 89, "duration": 530}, {"note": 74, "velocity": 86, "duration": 271}, {"note": 75, "velocity": 89, "duration": 179}, {"note": 0, "velocity": 0, "duration": 61}, {"note": 75, "velocity": 89, "duration": 399}, {"note": 0, "velocity": 0, "duration": 321}, {"note": 75, "velocity": 86, "duration": 176}, {"note": 0, "velocity": 0, "duration": 64}, {"note": 75, "velocity": 87, "duration": 153}, {"note": 0, "velocity": 0, "duration": 87}, {"note": 75, "velocity": 92, "duration": 171}, {"note": 0, "velocity": 0, "duration": 69}, {"note": 77, "velocity": 85, "duration": 174}, {"note": 0, "velocity": 0, "duration": 66}, {"note": 75, "velocity": 85, "duration": 166}, {"note": 0, "velocity": 0, "duration": 74}, {"note": 74, "velocity": 85, "duration": 476}, {"note": 72, "velocity": 86, "duration": 398}, {"note": 0, "velocity": 0, "duration": 82}, {"note": 74, "velocity": 86, "duration": 394}, {"note": 0, "velocity": 0, "duration": 86}, {"note": 70, "velocity": 87, "duration": 487}, {"note": 72, "velocity": 86, "duration": 479}, {"note": 0, "velocity": 0, "duration": 241}, {"note": 72, "velocity": 87, "duration": 145}, {"note": 0, "velocity": 0, "duration": 95}, {"note": 72, "velocity": 86, "duration": 167}, {"note": 0, "velocity": 0, "duration": 73}, {"note": 72, "velocity": 86, "duration": 214}, {"note": 77, "velocity": 85, "duration": 178}, {"note": 0, "velocity": 0, "duration": 62}, {"note": 75, "velocity": 83, "duration": 192}, {"note": 70, "velocity": 89, "duration": 463}, {"note": 0, "velocity": 0, "duration": 257}, {"note": 74, "velocity": 85, "duration": 149}, {"note": 0, "velocity": 0, "duration": 91}, {"note": 75, "velocity": 91, "duration": 342}, {"note": 0, "velocity": 0, "duration": 138}, {"note": 77, "velocity": 86, "duration": 154}, {"note": 0, "velocity": 0, "duration": 86}, {"note": 79, "velocity": 86, "duration": 152}, {"note": 0, "velocity": 0, "duration": 88}, {"note": 80, "velocity": 86, "duration": 361}, {"note": 0, "velocity": 0, "duration": 119}, {"note": 79, "velocity": 87, "duration": 337}, {"note": 0, "velocity": 0, "duration": 143}, {"note": 77, "velocity": 86, "duration": 416}, {"note": 0, "velocity": 0, "duration": 64}, {"note": 75, "velocity": 88, "duration": 235}, {"note": 77, "velocity": 87, "duration": 178}, {"note": 0, "velocity": 0, "duration": 62}, {"note": 77, "velocity": 87, "duration": 1680}, {"note": 0, "velocity": 0, "duration": 720}, {"note": 70, "velocity": 78, "duration": 166}, {"note": 0, "velocity": 0, "duration": 74}, {"note": 75, "velocity": 91, "duration": 145}, {"note": 0, "velocity": 0, "duration": 95}, {"note": 75, "velocity": 89, "duration": 145}, {"note": 0, "velocity": 0, "duration": 95}, {"note": 75, "velocity": 87, "duration": 162}, {"note": 0, "velocity": 0, "duration": 78}, {"note": 77, "velocity": 87, "duration": 170}, {"note": 0, "velocity": 0, "duration": 70}, {"note": 79, "velocity": 85, "duration": 215}, {"note": 77, "velocity": 85, "duration": 720}, {"note": 79, "velocity": 82, "duration": 240}, {"note": 75, "velocity": 84, "duration": 454}, {"note": 74, "velocity": 81, "duration": 162}, {"note": 0, "velocity": 0, "duration": 78}, {"note": 75, "velocity": 87, "duration": 136}, {"note": 0, "velocity": 0, "duration": 104}, {"note": 75, "velocity": 89, "duration": 382}, {"note": 0, "velocity": 0, "duration": 338}, {"note": 75, "velocity": 90, "duration": 111}, {"note": 0, "velocity": 0, "duration": 129}, {"note": 75, "velocity": 86, "duration": 149}, {"note": 0, "velocity": 0, "duration": 91}, {"note": 75, "velocity": 86, "duration": 171}, {"note": 0, "velocity": 0, "duration": 69}, {"note": 77, "velocity": 85, "duration": 184}, {"note": 75, "velocity": 86, "duration": 193}, {"note": 74, "velocity": 85, "duration": 477}, {"note": 72, "velocity": 86, "duration": 460}, {"note": 74, "velocity": 83, "duration": 423}, {"note": 70, "velocity": 86, "duration": 458}, {"note": 72, "velocity": 85, "duration": 402}, {"note": 0, "velocity": 0, "duration": 78}, {"note": 72, "velocity": 85, "duration": 195}, {"note": 80, "velocity": 83, "duration": 140}, {"note": 0, "velocity": 0, "duration": 100}, {"note": 80, "velocity": 82, "duration": 136}, {"note": 0, "velocity": 0, "duration": 104}, {"note": 80, "velocity": 85, "duration": 153}, {"note": 0, "velocity": 0, "duration": 87}, {"note": 79, "velocity": 86, "duration": 215}, {"note": 77, "velocity": 86, "duration": 216}, {"note": 75, "velocity": 88, "duration": 416}, {"note": 0, "velocity": 0, "duration": 64}, {"note": 72, "velocity": 79, "duration": 240}, {"note": 74, "velocity": 86, "duration": 240}, {"note": 75, "velocity": 86, "duration": 480}, {"note": 77, "velocity": 85, "duration": 241}, {"note": 79, "velocity": 85, "duration": 181}, {"note": 80, "velocity": 83, "duration": 425}, {"note": 79, "velocity": 88, "duration": 232}, {"note": 75, "velocity": 86, "duration": 217}, {"note": 80, "velocity": 80, "duration": 438}, {"note": 79, "velocity": 81, "duration": 213}, {"note": 80, "velocity": 85, "duration": 206}, {"note": 82, "velocity": 83, "duration": 1241}, {"note": 0, "velocity": 0, "duration": 199}, {"note": 70, "velocity": 87, "duration": 175}, {"note": 0, "velocity": 0, "duration": 65}, {"note": 72, "velocity": 86, "duration": 148}, {"note": 0, "velocity": 0, "duration": 92}, {"note": 75, "velocity": 90, "duration": 133}, {"note": 0, "velocity": 0, "duration": 107}, {"note": 79, "velocity": 89, "duration": 357}, {"note": 0, "velocity": 0, "duration": 123}, {"note": 77, "velocity": 87, "duration": 416}, {"note": 0, "velocity": 0, "duration": 64}, {"note": 75, "velocity": 87, "duration": 145}, {"note": 0, "velocity": 0, "duration": 95}, {"note": 77, "velocity": 81, "duration": 167}, {"note": 0, "velocity": 0, "duration": 73}, {"note": 79, "velocity": 85, "duration": 197}, {"note": 77, "velocity": 87, "duration": 1215}, {"note": 0, "velocity": 0, "duration": 225}, {"note": 70, "velocity": 87, "duration": 166}, {"note": 0, "velocity": 0, "duration": 74}, {"note": 72, "velocity": 85, "duration": 149}, {"note": 0, "velocity": 0, "duration": 91}, {"note": 75, "velocity": 88, "duration": 132}, {"note": 0, "velocity": 0, "duration": 108}, {"note": 79, "velocity": 89, "duration": 368}, {"note": 0, "velocity": 0, "duration": 112}, {"note": 77, "velocity": 85, "duration": 400}, {"note": 0, "velocity": 0, "duration": 80}, {"note": 75, "velocity": 86, "duration": 153}, {"note": 0, "velocity": 0, "duration": 87}, {"note": 77, "velocity": 81, "duration": 175}, {"note": 0, "velocity": 0, "duration": 65}, {"note": 79, "velocity": 84, "duration": 188}, {"note": 77, "velocity": 90, "duration": 1156}, {"note": 0, "velocity": 0, "duration": 284}, {"note": 79, "velocity": 81, "duration": 171}, {"note": 0, "velocity": 0, "duration": 69}, {"note": 82, "velocity": 85, "duration": 144}, {"note": 0, "velocity": 0, "duration": 96}, {"note": 82, "velocity": 85, "duration": 370}, {"note": 0, "velocity": 0, "duration": 110}, {"note": 75, "velocity": 86, "duration": 154}, {"note": 0, "velocity": 0, "duration": 86}, {"note": 75, "velocity": 87, "duration": 149}, {"note": 0, "velocity": 0, "duration": 91}, {"note": 75, "velocity": 88, "duration": 145}, {"note": 0, "velocity": 0, "duration": 95}, {"note": 75, "velocity": 86, "duration": 183}, {"note": 74, "velocity": 78, "duration": 178}, {"note": 0, "velocity": 0, "duration": 62}, {"note": 75, "velocity": 90, "duration": 200}, {"note": 82, "velocity": 88, "duration": 374}, {"note": 0, "velocity": 0, "duration": 106}, {"note": 75, "velocity": 87, "duration": 161}, {"note": 0, "velocity": 0, "duration": 79}, {"note": 74, "velocity": 81, "duration": 174}, {"note": 0, "velocity": 0, "duration": 66}, {"note": 75, "velocity": 79, "duration": 372}, {"note": 0, "velocity": 0, "duration": 108}, {"note": 77, "velocity": 86, "duration": 148}, {"note": 0, "velocity": 0, "duration": 92}, {"note": 79, "velocity": 81, "duration": 175}, {"note": 0, "velocity": 0, "duration": 65}, {"note": 80, "velocity": 79, "duration": 421}, {"note": 79, "velocity": 85, "duration": 209}, {"note": 77, "velocity": 85, "duration": 146}, {"note": 0, "velocity": 0, "duration": 94}, {"note": 77, "velocity": 88, "duration": 464}, {"note": 75, "velocity": 87, "duration": 252}, {"note": 77, "velocity": 86, "duration": 149}, {"note": 0, "velocity": 0, "duration": 91}, {"note": 77, "velocity": 89, "duration": 480}, {"note": 75, "velocity": 92, "duration": 181}, {"note": 79, "velocity": 87, "duration": 175}, {"note": 0, "velocity": 0, "duration": 65}, {"note": 77, "velocity": 89, "duration": 297}, {"note": 0, "velocity": 0, "duration": 183}, {"note": 70, "velocity": 87, "duration": 175}, {"note": 0, "velocity": 0, "duration": 65}, {"note": 72, "velocity": 86, "duration": 148}, {"note": 0, "velocity": 0, "duration": 92}, {"note": 75, "velocity": 90, "duration": 133}, {"note": 0, "velocity": 0, "duration": 107}, {"note": 79, "velocity": 89, "duration": 357}, {"note": 0, "velocity": 0, "duration": 123}, {"note": 77, "velocity": 87, "duration": 416}, {"note": 0, "velocity": 0, "duration": 64}, {"note": 75, "velocity": 87, "duration": 145}, {"note": 0, "velocity": 0, "duration": 95}, {"note": 77, "velocity": 81, "duration": 167}, {"note": 0, "velocity": 0, "duration": 73}, {"note": 79, "velocity": 85, "duration": 197}, {"note": 77, "velocity": 87, "duration": 1215}, {"note": 0, "velocity": 0, "duration": 225}, {"note": 70, "velocity": 87, "duration": 166}, {"note": 0, "velocity": 0, "duration": 74}, {"note": 72, "velocity": 85, "duration": 149}, {"note": 0, "velocity": 0, "duration": 91}, {"note": 75, "velocity": 88, "duration": 132}, {"note": 0, "velocity": 0, "duration": 108}, {"note": 79, "velocity": 89, "duration": 368}, {"note": 0, "velocity": 0, "duration": 112}, {"note": 77, "velocity": 85, "duration": 400}, {"note": 0, "velocity": 0, "duration": 80}, {"note": 75, "velocity": 86, "duration": 153}, {"note": 0, "velocity": 0, "duration": 87}, {"note": 77, "velocity": 81, "duration": 175}, {"note": 0, "velocity": 0, "duration": 65}, {"note": 79, "velocity": 84, "duration": 188}, {"note": 77, "velocity": 90, "duration": 1156}, {"note": 0, "velocity": 0, "duration": 284}, {"note": 79, "velocity": 81, "duration": 171}, {"note": 0, "velocity": 0, "duration": 69}, {"note": 82, "velocity": 85, "duration": 144}, {"note": 0, "velocity": 0, "duration": 96}, {"note": 84, "velocity": 85, "duration": 370}, {"note": 0, "velocity": 0, "duration": 110}, {"note": 84, "velocity": 86, "duration": 154}, {"note": 0, "velocity": 0, "duration": 86}, {"note": 84, "velocity": 87, "duration": 149}, {"note": 0, "velocity": 0, "duration": 91}, {"note": 82, "velocity": 88, "duration": 145}, {"note": 0, "velocity": 0, "duration": 95}, {"note": 80, "velocity": 86, "duration": 183}, {"note": 82, "velocity": 78, "duration": 178}, {"note": 0, "velocity": 0, "duration": 62}, {"note": 84, "velocity": 90, "duration": 240}, {"note": 82, "velocity": 88, "duration": 374}, {"note": 0, "velocity": 0, "duration": 106}, {"note": 70, "velocity": 87, "duration": 161}, {"note": 0, "velocity": 0, "duration": 79}, {"note": 72, "velocity": 81, "duration": 174}, {"note": 0, "velocity": 0, "duration": 66}, {"note": 75, "velocity": 79, "duration": 372}, {"note": 0, "velocity": 0, "duration": 108}, {"note": 75, "velocity": 86, "duration": 148}, {"note": 0, "velocity": 0, "duration": 92}, {"note": 77, "velocity": 81, "duration": 175}, {"note": 0, "velocity": 0, "duration": 65}, {"note": 79, "velocity": 79, "duration": 240}, {"note": 80, "velocity": 85, "duration": 480}, {"note": 79, "velocity": 85, "duration": 146}, {"note": 0, "velocity": 0, "duration": 94}, {"note": 77, "velocity": 88, "duration": 464}, {"note": 75, "velocity": 87, "duration": 480}, {"note": 80, "velocity": 87, "duration": 353}, {"note": 0, "velocity": 0, "duration": 127}, {"note": 79, "velocity": 86, "duration": 206}, {"note": 77, "velocity": 86, "duration": 134}, {"note": 0, "velocity": 0, "duration": 106}, {"note": 77, "velocity": 86, "duration": 421}, {"note": 79, "velocity": 86, "duration": 204}, {"note": 75, "velocity": 87, "duration": 171}, {"note": 0, "velocity": 0, "duration": 69}, {"note": 75, "velocity": 87, "duration": 1730}, {"note": 0, "velocity": 0, "duration": 13150}, {"note": 70, "velocity": 87, "duration": 175}, {"note": 0, "velocity": 0, "duration": 65}, {"note": 72, "velocity": 86, "duration": 148}, {"note": 0, "velocity": 0, "duration": 92}, {"note": 75, "velocity": 90, "duration": 133}, {"note": 0, "velocity": 0, "duration": 107}, {"note": 79, "velocity": 89, "duration": 357}, {"note": 0, "velocity": 0, "duration": 123}, {"note": 77, "velocity": 87, "duration": 416}, {"note": 0, "velocity": 0, "duration": 64}, {"note": 75, "velocity": 87, "duration": 145}, {"note": 0, "velocity": 0, "duration": 95}, {"note": 77, "velocity": 81, "duration": 167}, {"note": 0, "velocity": 0, "duration": 73}, {"note": 79, "velocity": 85, "duration": 197}, {"note": 77, "velocity": 87, "duration": 1215}, {"note": 0, "velocity": 0, "duration": 225}, {"note": 70, "velocity": 87, "duration": 166}, {"note": 0, "velocity": 0, "duration": 74}, {"note": 72, "velocity": 85, "duration": 149}, {"note": 0, "velocity": 0, "duration": 91}, {"note": 75, "velocity": 88, "duration": 132}, {"note": 0, "velocity": 0, "duration": 108}, {"note": 79, "velocity": 89, "duration": 368}, {"note": 0, "velocity": 0, "duration": 112}, {"note": 77, "velocity": 85, "duration": 400}, {"note": 0, "velocity": 0, "duration": 80}, {"note": 75, "velocity": 86, "duration": 153}, {"note": 0, "velocity": 0, "duration": 87}, {"note": 77, "velocity": 81, "duration": 175}, {"note": 0, "velocity": 0, "duration": 65}, {"note": 79, "velocity": 84, "duration": 188}, {"note": 77, "velocity": 90, "duration": 1156}, {"note": 0, "velocity": 0, "duration": 284}, {"note": 79, "velocity": 81, "duration": 171}, {"note": 0, "velocity": 0, "duration": 69}, {"note": 82, "velocity": 85, "duration": 144}, {"note": 0, "velocity": 0, "duration": 96}, {"note": 84, "velocity": 85, "duration": 370}, {"note": 0, "velocity": 0, "duration": 110}, {"note": 84, "velocity": 86, "duration": 154}, {"note": 0, "velocity": 0, "duration": 86}, {"note": 84, "velocity": 87, "duration": 149}, {"note": 0, "velocity": 0, "duration": 91}, {"note": 82, "velocity": 88, "duration": 145}, {"note": 0, "velocity": 0, "duration": 95}, {"note": 80, "velocity": 86, "duration": 183}, {"note": 82, "velocity": 78, "duration": 178}, {"note": 0, "velocity": 0, "duration": 62}, {"note": 84, "velocity": 90, "duration": 240}, {"note": 82, "velocity": 88, "duration": 374}, {"note": 0, "velocity": 0, "duration": 106}, {"note": 70, "velocity": 87, "duration": 161}, {"note": 0, "velocity": 0, "duration": 79}, {"note": 72, "velocity": 81, "duration": 174}, {"note": 0, "velocity": 0, "duration": 66}, {"note": 75, "velocity": 79, "duration": 372}, {"note": 0, "velocity": 0, "duration": 108}, {"note": 75, "velocity": 86, "duration": 148}, {"note": 0, "velocity": 0, "duration": 92}, {"note": 77, "velocity": 81, "duration": 175}, {"note": 0, "velocity": 0, "duration": 65}, {"note": 79, "velocity": 79, "duration": 240}, {"note": 80, "velocity": 85, "duration": 480}, {"note": 79, "velocity": 85, "duration": 146}, {"note": 0, "velocity": 0, "duration": 94}, {"note": 77, "velocity": 88, "duration": 464}, {"note": 75, "velocity": 87, "duration": 480}, {"note": 80, "velocity": 87, "duration": 353}, {"note": 0, "velocity": 0, "duration": 127}, {"note": 79, "velocity": 86, "duration": 206}, {"note": 77, "velocity": 86, "duration": 134}, {"note": 0, "velocity": 0, "duration": 106}, {"note": 77, "velocity": 86, "duration": 421}, {"note": 79, "velocity": 86, "duration": 204}, {"note": 75, "velocity": 87, "duration": 171}, {"note": 0, "velocity": 0, "duration": 69}, {"note": 75, "velocity": 87, "duration": 1730}]]