[[{"note": 65, "velocity": 82, "duration": 634}, {"note": 0, "velocity": 0, "duration": 86}, {"note": 67, "velocity": 73, "duration": 202}, {"note": 69, "velocity": 79, "duration": 212}, {"note": 72, "velocity": 78, "duration": 234}, {"note": 62, "velocity": 79, "duration": 404}, {"note": 0, "velocity": 0, "duration": 76}, {"note": 60, "velocity": 82, "duration": 240}, {"note": 57, "velocity": 74, "duration": 261}, {"note": 60, "velocity": 73, "duration": 960}, {"note": 60, "velocity": 79, "duration": 188}, {"note": 62, "velocity": 79, "duration": 218}, {"note": 65, "velocity": 74, "duration": 619}, {"note": 0, "velocity": 0, "duration": 101}, {"note": 67, "velocity": 80, "duration": 188}, {"note": 69, "velocity": 76, "duration": 201}, {"note": 72, "velocity": 79, "duration": 178}, {"note": 0, "velocity": 0, "duration": 62}, {"note": 62, "velocity": 79, "duration": 239}, {"note": 65, "velocity": 79, "duration": 210}, {"note": 67, "velocity": 72, "duration": 1540}, {"note": 0, "velocity": 0, "duration": 380}, {"note": 65, "velocity": 77, "duration": 726}, {"note": 67, "velocity": 74, "duration": 280}, {"note": 69, "velocity": 77, "duration": 256}, {"note": 72, "velocity": 77, "duration": 240}, {"note": 69, "velocity": 74, "duration": 277}, {"note": 67, "velocity": 73, "duration": 257}, {"note": 65, "velocity": 78, "duration": 347}, {"note": 0, "velocity": 0, "duration": 133}, {"note": 67, "velocity": 79, "duration": 268}, {"note": 64, "velocity": 72, "duration": 213}, {"note": 62, "velocity": 78, "duration": 707}, {"note": 0, "velocity": 0, "duration": 253}, {"note": 57, "velocity": 70, "duration": 228}, {"note": 60, "velocity": 78, "duration": 249}, {"note": 62, "velocity": 75, "duration": 273}, {"note": 65, "velocity": 78, "duration": 271}, {"note": 67, "velocity": 71, "duration": 294}, {"note": 69, "velocity": 75, "duration": 494}, {"note": 62, "velocity": 78, "duration": 247}, {"note": 60, "velocity": 77, "duration": 1810}, {"note": 0, "velocity": 0, "duration": 110}, {"note": 65, "velocity": 82, "duration": 634}, {"note": 0, "velocity": 0, "duration": 86}, {"note": 67, "velocity": 73, "duration": 202}, {"note": 69, "velocity": 79, "duration": 212}, {"note": 72, "velocity": 78, "duration": 234}, {"note": 62, "velocity": 79, "duration": 404}, {"note": 0, "velocity": 0, "duration": 76}, {"note": 60, "velocity": 82, "duration": 240}, {"note": 57, "velocity": 74, "duration": 261}, {"note": 60, "velocity": 73, "duration": 960}, {"note": 60, "velocity": 79, "duration": 188}, {"note": 62, "velocity": 79, "duration": 218}, {"note": 65, "velocity": 74, "duration": 619}, {"note": 0, "velocity": 0, "duration": 101}, {"note": 67, "velocity": 80, "duration": 188}, {"note": 69, "velocity": 76, "duration": 201}, {"note": 72, "velocity": 79, "duration": 178}, {"note": 0, "velocity": 0, "duration": 62}, {"note": 62, "velocity": 79, "duration": 239}, {"note": 65, "velocity": 79, "duration": 210}, {"note": 67, "velocity": 72, "duration": 1540}, {"note": 0, "velocity": 0, "duration": 380}, {"note": 65, "velocity": 77, "duration": 726}, {"note": 67, "velocity": 74, "duration": 280}, {"note": 69, "velocity": 77, "duration": 256}, {"note": 72, "velocity": 77, "duration": 240}, {"note": 69, "velocity": 74, "duration": 277}, {"note": 67, "velocity": 73, "duration": 257}, {"note": 65, "velocity": 78, "duration": 347}, {"note": 0, "velocity": 0, "duration": 133}, {"note": 67, "velocity": 79, "duration": 268}, {"note": 64, "velocity": 72, "duration": 213}, {"note": 62, "velocity": 78, "duration": 707}, {"note": 0, "velocity": 0, "duration": 253}, {"note": 57, "velocity": 70, "duration": 228}, {"note": 60, "velocity": 78, "duration": 249}, {"note": 62, "velocity": 75, "duration": 273}, {"note": 65, "velocity": 78, "duration": 271}, {"note": 67, "velocity": 71, "duration": 294}, {"note": 69, "velocity": 75, "duration": 494}, {"note": 62, "velocity": 78, "duration": 247}, {"note": 65, "velocity": 77, "duration": 1810}, {"note": 0, "velocity": 0, "duration": 110}, {"note": 64, "velocity": 80, "duration": 242}, {"note": 67, "velocity": 78, "duration": 255}, {"note": 60, "velocity": 82, "duration": 267}, {"note": 62, "velocity": 80, "duration": 264}, {"note": 64, "velocity": 78, "duration": 727}, {"note": 67, "velocity": 68, "duration": 203}, {"note": 64, "velocity": 84, "duration": 224}, {"note": 62, "velocity": 79, "duration": 262}, {"note": 60, "velocity": 78, "duration": 240}, {"note": 64, "velocity": 79, "duration": 209}, {"note": 62, "velocity": 78, "duration": 240}, {"note": 62, "velocity": 78, "duration": 720}, {"note": 65, "velocity": 79, "duration": 243}, {"note": 62, "velocity": 79, "duration": 243}, {"note": 65, "velocity": 80, "duration": 534}, {"note": 67, "velocity": 80, "duration": 240}, {"note": 69, "velocity": 78, "duration": 235}, {"note": 65, "velocity": 74, "duration": 296}, {"note": 67, "velocity": 79, "duration": 258}, {"note": 69, "velocity": 76, "duration": 1679}, {"note": 0, "velocity": 0, "duration": 241}, {"note": 72, "velocity": 79, "duration": 183}, {"note": 72, "velocity": 82, "duration": 475}, {"note": 69, "velocity": 78, "duration": 255}, {"note": 67, "velocity": 78, "duration": 490}, {"note": 65, "velocity": 74, "duration": 251}, {"note": 67, "velocity": 78, "duration": 225}, {"note": 64, "velocity": 77, "duration": 238}, {"note": 62, "velocity": 73, "duration": 267}, {"note": 64, "velocity": 80, "duration": 269}, {"note": 67, "velocity": 77, "duration": 231}, {"note": 62, "velocity": 78, "duration": 792}, {"note": 0, "velocity": 0, "duration": 168}, {"note": 57, "velocity": 79, "duration": 253}, {"note": 60, "velocity": 78, "duration": 243}, {"note": 62, "velocity": 78, "duration": 263}, {"note": 65, "velocity": 80, "duration": 268}, {"note": 67, "velocity": 75, "duration": 267}, {"note": 69, "velocity": 78, "duration": 237}, {"note": 64, "velocity": 79, "duration": 258}, {"note": 62, "velocity": 78, "duration": 261}, {"note": 60, "velocity": 78, "duration": 1806}, {"note": 0, "velocity": 0, "duration": 114}, {"note": 65, "velocity": 82, "duration": 634}, {"note": 0, "velocity": 0, "duration": 86}, {"note": 67, "velocity": 73, "duration": 202}, {"note": 69, "velocity": 79, "duration": 212}, {"note": 72, "velocity": 78, "duration": 234}, {"note": 62, "velocity": 79, "duration": 404}, {"note": 0, "velocity": 0, "duration": 76}, {"note": 60, "velocity": 82, "duration": 240}, {"note": 57, "velocity": 74, "duration": 261}, {"note": 60, "velocity": 73, "duration": 960}, {"note": 60, "velocity": 79, "duration": 188}, {"note": 62, "velocity": 79, "duration": 218}, {"note": 65, "velocity": 74, "duration": 619}, {"note": 0, "velocity": 0, "duration": 101}, {"note": 67, "velocity": 80, "duration": 188}, {"note": 69, "velocity": 76, "duration": 201}, {"note": 72, "velocity": 79, "duration": 178}, {"note": 0, "velocity": 0, "duration": 62}, {"note": 62, "velocity": 79, "duration": 239}, {"note": 65, "velocity": 79, "duration": 210}, {"note": 67, "velocity": 72, "duration": 1540}, {"note": 0, "velocity": 0, "duration": 380}, {"note": 65, "velocity": 77, "duration": 726}, {"note": 67, "velocity": 74, "duration": 280}, {"note": 69, "velocity": 77, "duration": 256}, {"note": 72, "velocity": 77, "duration": 240}, {"note": 69, "velocity": 74, "duration": 277}, {"note": 67, "velocity": 73, "duration": 257}, {"note": 65, "velocity": 78, "duration": 347}, {"note": 0, "velocity": 0, "duration": 133}, {"note": 67, "velocity": 79, "duration": 268}, {"note": 64, "velocity": 72, "duration": 213}, {"note": 62, "velocity": 78, "duration": 707}, {"note": 0, "velocity": 0, "duration": 253}, {"note": 57, "velocity": 70, "duration": 228}, {"note": 60, "velocity": 78, "duration": 249}, {"note": 62, "velocity": 75, "duration": 273}, {"note": 65, "velocity": 78, "duration": 271}, {"note": 67, "velocity": 71, "duration": 294}, {"note": 69, "velocity": 75, "duration": 494}, {"note": 62, "velocity": 78, "duration": 247}, {"note": 65, "velocity": 77, "duration": 1810}, {"note": 0, "velocity": 0, "duration": 9710}, {"note": 65, "velocity": 82, "duration": 634}, {"note": 0, "velocity": 0, "duration": 86}, {"note": 67, "velocity": 73, "duration": 202}, {"note": 69, "velocity": 79, "duration": 212}, {"note": 72, "velocity": 78, "duration": 234}, {"note": 62, "velocity": 79, "duration": 404}, {"note": 0, "velocity": 0, "duration": 76}, {"note": 60, "velocity": 82, "duration": 240}, {"note": 57, "velocity": 74, "duration": 261}, {"note": 60, "velocity": 73, "duration": 960}, {"note": 60, "velocity": 79, "duration": 188}, {"note": 62, "velocity": 79, "duration": 218}, {"note": 65, "velocity": 74, "duration": 619}, {"note": 0, "velocity": 0, "duration": 101}, {"note": 67, "velocity": 80, "duration": 188}, {"note": 69, "velocity": 76, "duration": 201}, {"note": 72, "velocity": 79, "duration": 178}, {"note": 0, "velocity": 0, "duration": 62}, {"note": 62, "velocity": 79, "duration": 239}, {"note": 65, "velocity": 79, "duration": 210}, {"note": 67, "velocity": 72, "duration": 1540}, {"note": 0, "velocity": 0, "duration": 380}, {"note": 65, "velocity": 77, "duration": 726}, {"note": 67, "velocity": 74, "duration": 280}, {"note": 69, "velocity": 77, "duration": 256}, {"note": 72, "velocity": 77, "duration": 240}, {"note": 69, "velocity": 74, "duration": 277}, {"note": 67, "velocity": 73, "duration": 257}, {"note": 65, "velocity": 78, "duration": 347}, {"note": 0, "velocity": 0, "duration": 133}, {"note": 67, "velocity": 79, "duration": 268}, {"note": 64, "velocity": 72, "duration": 213}, {"note": 62, "velocity": 78, "duration": 707}, {"note": 0, "velocity": 0, "duration": 253}, {"note": 57, "velocity": 70, "duration": 228}, {"note": 60, "velocity": 78, "duration": 249}, {"note": 62, "velocity": 75, "duration": 273}, {"note": 65, "velocity": 78, "duration": 271}, {"note": 67, "velocity": 71, "duration": 294}, {"note": 69, "velocity": 75, "duration": 494}, {"note": 62, "velocity": 78, "duration": 247}, {"note": 60, "velocity": 77, "duration": 1810}, {"note": 0, "velocity": 0, "duration": 110}, {"note": 65, "velocity": 82, "duration": 634}, {"note": 0, "velocity": 0, "duration": 86}, {"note": 67, "velocity": 73, "duration": 202}, {"note": 69, "velocity": 79, "duration": 212}, {"note": 72, "velocity": 78, "duration": 234}, {"note": 62, "velocity": 79, "duration": 404}, {"note": 0, "velocity": 0, "duration": 76}, {"note": 60, "velocity": 82, "duration": 240}, {"note": 57, "velocity": 74, "duration": 261}, {"note": 60, "velocity": 73, "duration": 960}, {"note": 60, "velocity": 79, "duration": 188}, {"note": 62, "velocity": 79, "duration": 218}, {"note": 65, "velocity": 74, "duration": 619}, {"note": 0, "velocity": 0, "duration": 101}, {"note": 67, "velocity": 80, "duration": 188}, {"note": 69, "velocity": 76, "duration": 201}, {"note": 72, "velocity": 79, "duration": 178}, {"note": 0, "velocity": 0, "duration": 62}, {"note": 62, "velocity": 79, "duration": 239}, {"note": 65, "velocity": 79, "duration": 210}, {"note": 67, "velocity": 72, "duration": 1540}, {"note": 0, "velocity": 0, "duration": 380}, {"note": 65, "velocity": 77, "duration": 726}, {"note": 67, "velocity": 74, "duration": 280}, {"note": 69, "velocity": 77, "duration": 256}, {"note": 72, "velocity": 77, "duration": 240}, {"note": 69, "velocity": 74, "duration": 277}, {"note": 67, "velocity": 73, "duration": 257}, {"note": 65, "velocity": 78, "duration": 347}, {"note": 0, "velocity": 0, "duration": 133}, {"note": 67, "velocity": 79, "duration": 268}, {"note": 64, "velocity": 72, "duration": 213}, {"note": 62, "velocity": 78, "duration": 707}, {"note": 0, "velocity": 0, "duration": 253}, {"note": 57, "velocity": 70, "duration": 228}, {"note": 60, "velocity": 78, "duration": 249}, {"note": 62, "velocity": 75, "duration": 273}, {"note": 65, "velocity": 78, "duration": 271}, {"note": 67, "velocity": 71, "duration": 294}, {"note": 69, "velocity": 75, "duration": 494}, {"note": 62, "velocity": 78, "duration": 247}, {"note": 65, "velocity": 77, "duration": 1810}, {"note": 0, "velocity": 0, "duration": 110}, {"note": 64, "velocity": 80, "duration": 242}, {"note": 67, "velocity": 78, "duration": 255}, {"note": 60, "velocity": 82, "duration": 267}, {"note": 62, "velocity": 80, "duration": 264}, {"note": 64, "velocity": 78, "duration": 727}, {"note": 67, "velocity": 68, "duration": 203}, {"note": 64, "velocity": 84, "duration": 224}, {"note": 62, "velocity": 79, "duration": 262}, {"note": 60, "velocity": 78, "duration": 240}, {"note": 64, "velocity": 79, "duration": 209}, {"note": 62, "velocity": 78, "duration": 240}, {"note": 62, "velocity": 78, "duration": 720}, {"note": 65, "velocity": 79, "duration": 243}, {"note": 62, "velocity": 79, "duration": 243}, {"note": 65, "velocity": 80, "duration": 534}, {"note": 67, "velocity": 80, "duration": 240}, {"note": 69, "velocity": 78, "duration": 235}, {"note": 65, "velocity": 74, "duration": 296}, {"note": 67, "velocity": 79, "duration": 258}, {"note": 69, "velocity": 76, "duration": 1679}, {"note": 0, "velocity": 0, "duration": 241}, {"note": 72, "velocity": 79, "duration": 183}, {"note": 72, "velocity": 82, "duration": 475}, {"note": 69, "velocity": 78, "duration": 255}, {"note": 67, "velocity": 78, "duration": 490}, {"note": 65, "velocity": 74, "duration": 251}, {"note": 67, "velocity": 78, "duration": 225}, {"note": 64, "velocity": 77, "duration": 238}, {"note": 62, "velocity": 73, "duration": 267}, {"note": 64, "velocity": 80, "duration": 269}, {"note": 67, "velocity": 77, "duration": 231}, {"note": 62, "velocity": 78, "duration": 792}, {"note": 0, "velocity": 0, "duration": 168}, {"note": 57, "velocity": 79, "duration": 253}, {"note": 60, "velocity": 78, "duration": 243}, {"note": 62, "velocity": 78, "duration": 263}, {"note": 65, "velocity": 80, "duration": 268}, {"note": 67, "velocity": 75, "duration": 267}, {"note": 69, "velocity": 78, "duration": 237}, {"note": 64, "velocity": 79, "duration": 258}, {"note": 62, "velocity": 78, "duration": 261}, {"note": 60, "velocity": 78, "duration": 1806}, {"note": 0, "velocity": 0, "duration": 114}, {"note": 65, "velocity": 82, "duration": 634}, {"note": 0, "velocity": 0, "duration": 86}, {"note": 67, "velocity": 73, "duration": 202}, {"note": 69, "velocity": 79, "duration": 212}, {"note": 72, "velocity": 78, "duration": 234}, {"note": 62, "velocity": 79, "duration": 404}, {"note": 0, "velocity": 0, "duration": 76}, {"note": 60, "velocity": 82, "duration": 240}, {"note": 57, "velocity": 74, "duration": 261}, {"note": 60, "velocity": 73, "duration": 960}, {"note": 60, "velocity": 79, "duration": 188}, {"note": 62, "velocity": 79, "duration": 218}, {"note": 65, "velocity": 74, "duration": 619}, {"note": 0, "velocity": 0, "duration": 101}, {"note": 67, "velocity": 80, "duration": 188}, {"note": 69, "velocity": 76, "duration": 201}, {"note": 72, "velocity": 79, "duration": 178}, {"note": 0, "velocity": 0, "duration": 62}, {"note": 62, "velocity": 79, "duration": 239}, {"note": 65, "velocity": 79, "duration": 210}, {"note": 67, "velocity": 72, "duration": 1540}, {"note": 0, "velocity": 0, "duration": 380}, {"note": 65, "velocity": 77, "duration": 726}, {"note": 67, "velocity": 74, "duration": 280}, {"note": 69, "velocity": 77, "duration": 256}, {"note": 72, "velocity": 77, "duration": 240}, {"note": 69, "velocity": 74, "duration": 277}, {"note": 67, "velocity": 73, "duration": 257}, {"note": 65, "velocity": 78, "duration": 347}, {"note": 0, "velocity": 0, "duration": 133}, {"note": 67, "velocity": 79, "duration": 268}, {"note": 64, "velocity": 72, "duration": 213}, {"note": 62, "velocity": 78, "duration": 707}, {"note": 0, "velocity": 0, "duration": 253}, {"note": 57, "velocity": 70, "duration": 228}, {"note": 60, "velocity": 78, "duration": 249}, {"note": 62, "velocity": 75, "duration": 273}, {"note": 65, "velocity": 78, "duration": 271}, {"note": 67, "velocity": 71, "duration": 294}, {"note": 69, "velocity": 75, "duration": 494}, {"note": 62, "velocity": 78, "duration": 247}, {"note": 65, "velocity": 77, "duration": 1810}, {"note": 0, "velocity": 0, "duration": 110}, {"note": 65, "velocity": 77, "duration": 726}, {"note": 67, "velocity": 74, "duration": 280}, {"note": 69, "velocity": 77, "duration": 256}, {"note": 72, "velocity": 77, "duration": 240}, {"note": 69, "velocity": 74, "duration": 277}, {"note": 67, "velocity": 73, "duration": 257}, {"note": 65, "velocity": 78, "duration": 347}, {"note": 0, "velocity": 0, "duration": 133}, {"note": 67, "velocity": 79, "duration": 268}, {"note": 64, "velocity": 72, "duration": 213}, {"note": 62, "velocity": 78, "duration": 707}, {"note": 0, "velocity": 0, "duration": 358}, {"note": 57, "velocity": 80, "duration": 471}, {"note": 60, "velocity": 79, "duration": 383}, {"note": 62, "velocity": 78, "duration": 455}, {"note": 65, "velocity": 79, "duration": 387}, {"note": 67, "velocity": 79, "duration": 443}, {"note": 69, "velocity": 77, "duration": 1297}, {"note": 62, "velocity": 75, "duration": 1200}, {"note": 65, "velocity": 67, "duration": 1813}]]