[[{"note": 64, "velocity": 82, "duration": 118}, {"note": 66, "velocity": 78, "duration": 76}, {"note": 71, "velocity": 79, "duration": 190}, {"note": 69, "velocity": 78, "duration": 70}, {"note": 69, "velocity": 77, "duration": 326}, {"note": 68, "velocity": 78, "duration": 73}, {"note": 68, "velocity": 79, "duration": 118}, {"note": 71, "velocity": 79, "duration": 238}, {"note": 69, "velocity": 73, "duration": 64}, {"note": 69, "velocity": 78, "duration": 302}, {"note": 0, "velocity": 0, "duration": 298}, {"note": 68, "velocity": 80, "duration": 201}, {"note": 66, "velocity": 79, "duration": 174}, {"note": 0, "velocity": 0, "duration": 66}, {"note": 66, "velocity": 79, "duration": 185}, {"note": 65, "velocity": 78, "duration": 89}, {"note": 66, "velocity": 74, "duration": 622}, {"note": 0, "velocity": 0, "duration": 338}, {"note": 66, "velocity": 79, "duration": 82}, {"note": 73, "velocity": 79, "duration": 197}, {"note": 71, "velocity": 73, "duration": 73}, {"note": 71, "velocity": 78, "duration": 268}, {"note": 0, "velocity": 0, "duration": 92}, {"note": 66, "velocity": 78, "duration": 63}, {"note": 66, "velocity": 76, "duration": 76}, {"note": 73, "velocity": 79, "duration": 179}, {"note": 0, "velocity": 0, "duration": 61}, {"note": 71, "velocity": 73, "duration": 71}, {"note": 71, "velocity": 78, "duration": 416}, {"note": 0, "velocity": 0, "duration": 184}, {"note": 68, "velocity": 79, "duration": 182}, {"note": 66, "velocity": 80, "duration": 171}, {"note": 0, "velocity": 0, "duration": 69}, {"note": 66, "velocity": 79, "duration": 76}, {"note": 66, "velocity": 72, "duration": 230}, {"note": 64, "velocity": 79, "duration": 751}, {"note": 0, "velocity": 0, "duration": 89}, {"note": 64, "velocity": 79, "duration": 82}, {"note": 66, "velocity": 78, "duration": 73}, {"note": 71, "velocity": 79, "duration": 184}, {"note": 69, "velocity": 74, "duration": 67}, {"note": 69, "velocity": 78, "duration": 332}, {"note": 69, "velocity": 72, "duration": 78}, {"note": 68, "velocity": 80, "duration": 118}, {"note": 71, "velocity": 70, "duration": 194}, {"note": 69, "velocity": 73, "duration": 61}, {"note": 69, "velocity": 79, "duration": 360}, {"note": 0, "velocity": 0, "duration": 240}, {"note": 68, "velocity": 78, "duration": 202}, {"note": 66, "velocity": 79, "duration": 174}, {"note": 0, "velocity": 0, "duration": 66}, {"note": 66, "velocity": 79, "duration": 211}, {"note": 68, "velocity": 66, "duration": 93}, {"note": 66, "velocity": 79, "duration": 876}, {"note": 0, "velocity": 0, "duration": 84}, {"note": 66, "velocity": 79, "duration": 79}, {"note": 73, "velocity": 79, "duration": 188}, {"note": 71, "velocity": 74, "duration": 72}, {"note": 71, "velocity": 78, "duration": 329}, {"note": 66, "velocity": 70, "duration": 205}, {"note": 73, "velocity": 79, "duration": 198}, {"note": 71, "velocity": 71, "duration": 71}, {"note": 71, "velocity": 78, "duration": 434}, {"note": 71, "velocity": 77, "duration": 76}, {"note": 71, "velocity": 80, "duration": 191}, {"note": 73, "velocity": 76, "duration": 184}, {"note": 73, "velocity": 79, "duration": 88}, {"note": 74, "velocity": 79, "duration": 211}, {"note": 73, "velocity": 78, "duration": 114}, {"note": 71, "velocity": 74, "duration": 389}, {"note": 0, "velocity": 0, "duration": 91}, {"note": 69, "velocity": 75, "duration": 114}, {"note": 71, "velocity": 78, "duration": 84}, {"note": 76, "velocity": 79, "duration": 89}, {"note": 74, "velocity": 81, "duration": 85}, {"note": 73, "velocity": 79, "duration": 351}, {"note": 71, "velocity": 74, "duration": 113}, {"note": 73, "velocity": 78, "duration": 359}, {"note": 71, "velocity": 75, "duration": 144}, {"note": 73, "velocity": 78, "duration": 358}, {"note": 71, "velocity": 79, "duration": 114}, {"note": 73, "velocity": 74, "duration": 138}, {"note": 71, "velocity": 78, "duration": 126}, {"note": 69, "velocity": 73, "duration": 128}, {"note": 68, "velocity": 80, "duration": 148}, {"note": 69, "velocity": 79, "duration": 958}, {"note": 0, "velocity": 0, "duration": 482}, {"note": 66, "velocity": 80, "duration": 232}, {"note": 76, "velocity": 80, "duration": 190}, {"note": 74, "velocity": 84, "duration": 388}, {"note": 73, "velocity": 77, "duration": 145}, {"note": 74, "velocity": 87, "duration": 357}, {"note": 73, "velocity": 65, "duration": 128}, {"note": 74, "velocity": 83, "duration": 390}, {"note": 0, "velocity": 0, "duration": 90}, {"note": 74, "velocity": 85, "duration": 125}, {"note": 73, "velocity": 79, "duration": 139}, {"note": 71, "velocity": 78, "duration": 111}, {"note": 69, "velocity": 73, "duration": 111}, {"note": 71, "velocity": 80, "duration": 1018}, {"note": 0, "velocity": 0, "duration": 422}, {"note": 69, "velocity": 75, "duration": 114}, {"note": 71, "velocity": 78, "duration": 84}, {"note": 76, "velocity": 79, "duration": 89}, {"note": 74, "velocity": 81, "duration": 85}, {"note": 73, "velocity": 79, "duration": 351}, {"note": 71, "velocity": 74, "duration": 113}, {"note": 73, "velocity": 78, "duration": 359}, {"note": 71, "velocity": 75, "duration": 144}, {"note": 73, "velocity": 78, "duration": 358}, {"note": 71, "velocity": 79, "duration": 114}, {"note": 73, "velocity": 74, "duration": 138}, {"note": 71, "velocity": 78, "duration": 126}, {"note": 69, "velocity": 73, "duration": 128}, {"note": 68, "velocity": 80, "duration": 148}, {"note": 69, "velocity": 79, "duration": 958}, {"note": 0, "velocity": 0, "duration": 482}, {"note": 66, "velocity": 80, "duration": 232}, {"note": 76, "velocity": 80, "duration": 190}, {"note": 74, "velocity": 84, "duration": 388}, {"note": 73, "velocity": 77, "duration": 145}, {"note": 74, "velocity": 87, "duration": 357}, {"note": 73, "velocity": 65, "duration": 128}, {"note": 74, "velocity": 83, "duration": 390}, {"note": 0, "velocity": 0, "duration": 90}, {"note": 74, "velocity": 89, "duration": 64}, {"note": 74, "velocity": 84, "duration": 59}, {"note": 0, "velocity": 0, "duration": 61}, {"note": 74, "velocity": 80, "duration": 88}, {"note": 76, "velocity": 82, "duration": 340}, {"note": 71, "velocity": 80, "duration": 1550}, {"note": 64, "velocity": 82, "duration": 118}, {"note": 66, "velocity": 78, "duration": 76}, {"note": 71, "velocity": 79, "duration": 190}, {"note": 69, "velocity": 78, "duration": 70}, {"note": 69, "velocity": 77, "duration": 326}, {"note": 68, "velocity": 78, "duration": 73}, {"note": 68, "velocity": 79, "duration": 118}, {"note": 71, "velocity": 79, "duration": 238}, {"note": 69, "velocity": 73, "duration": 64}, {"note": 69, "velocity": 78, "duration": 302}, {"note": 0, "velocity": 0, "duration": 298}, {"note": 68, "velocity": 80, "duration": 201}, {"note": 66, "velocity": 79, "duration": 174}, {"note": 0, "velocity": 0, "duration": 66}, {"note": 66, "velocity": 79, "duration": 185}, {"note": 65, "velocity": 78, "duration": 89}, {"note": 66, "velocity": 74, "duration": 622}, {"note": 0, "velocity": 0, "duration": 338}, {"note": 66, "velocity": 79, "duration": 82}, {"note": 73, "velocity": 79, "duration": 197}, {"note": 71, "velocity": 73, "duration": 73}, {"note": 71, "velocity": 78, "duration": 268}, {"note": 0, "velocity": 0, "duration": 92}, {"note": 66, "velocity": 78, "duration": 63}, {"note": 66, "velocity": 76, "duration": 76}, {"note": 73, "velocity": 79, "duration": 179}, {"note": 0, "velocity": 0, "duration": 61}, {"note": 71, "velocity": 73, "duration": 71}, {"note": 71, "velocity": 78, "duration": 416}, {"note": 0, "velocity": 0, "duration": 64}, {"note": 69, "velocity": 79, "duration": 118}, {"note": 68, "velocity": 79, "duration": 182}, {"note": 66, "velocity": 80, "duration": 171}, {"note": 0, "velocity": 0, "duration": 69}, {"note": 66, "velocity": 79, "duration": 76}, {"note": 66, "velocity": 72, "duration": 230}, {"note": 64, "velocity": 79, "duration": 751}, {"note": 0, "velocity": 0, "duration": 89}, {"note": 64, "velocity": 79, "duration": 82}, {"note": 66, "velocity": 78, "duration": 73}, {"note": 71, "velocity": 79, "duration": 184}, {"note": 69, "velocity": 74, "duration": 67}, {"note": 69, "velocity": 78, "duration": 332}, {"note": 69, "velocity": 72, "duration": 78}, {"note": 68, "velocity": 80, "duration": 118}, {"note": 71, "velocity": 70, "duration": 194}, {"note": 69, "velocity": 73, "duration": 61}, {"note": 69, "velocity": 79, "duration": 360}, {"note": 0, "velocity": 0, "duration": 240}, {"note": 68, "velocity": 78, "duration": 202}, {"note": 66, "velocity": 79, "duration": 174}, {"note": 0, "velocity": 0, "duration": 66}, {"note": 66, "velocity": 79, "duration": 211}, {"note": 68, "velocity": 66, "duration": 93}, {"note": 66, "velocity": 79, "duration": 876}, {"note": 0, "velocity": 0, "duration": 84}, {"note": 66, "velocity": 79, "duration": 79}, {"note": 73, "velocity": 79, "duration": 188}, {"note": 71, "velocity": 74, "duration": 72}, {"note": 71, "velocity": 78, "duration": 329}, {"note": 66, "velocity": 70, "duration": 205}, {"note": 73, "velocity": 79, "duration": 198}, {"note": 71, "velocity": 71, "duration": 71}, {"note": 71, "velocity": 78, "duration": 434}, {"note": 71, "velocity": 77, "duration": 76}, {"note": 71, "velocity": 80, "duration": 191}, {"note": 73, "velocity": 76, "duration": 184}, {"note": 73, "velocity": 79, "duration": 88}, {"note": 74, "velocity": 79, "duration": 211}, {"note": 73, "velocity": 78, "duration": 114}, {"note": 71, "velocity": 74, "duration": 389}, {"note": 0, "velocity": 0, "duration": 91}, {"note": 69, "velocity": 75, "duration": 114}, {"note": 71, "velocity": 78, "duration": 84}, {"note": 76, "velocity": 79, "duration": 89}, {"note": 74, "velocity": 81, "duration": 85}, {"note": 73, "velocity": 79, "duration": 351}, {"note": 71, "velocity": 74, "duration": 113}, {"note": 73, "velocity": 78, "duration": 359}, {"note": 71, "velocity": 75, "duration": 144}, {"note": 73, "velocity": 78, "duration": 358}, {"note": 71, "velocity": 79, "duration": 114}, {"note": 73, "velocity": 74, "duration": 138}, {"note": 71, "velocity": 78, "duration": 126}, {"note": 69, "velocity": 73, "duration": 128}, {"note": 68, "velocity": 80, "duration": 148}, {"note": 69, "velocity": 79, "duration": 958}, {"note": 0, "velocity": 0, "duration": 482}, {"note": 66, "velocity": 80, "duration": 232}, {"note": 76, "velocity": 80, "duration": 190}, {"note": 74, "velocity": 84, "duration": 388}, {"note": 73, "velocity": 77, "duration": 145}, {"note": 74, "velocity": 87, "duration": 357}, {"note": 73, "velocity": 65, "duration": 128}, {"note": 74, "velocity": 83, "duration": 390}, {"note": 0, "velocity": 0, "duration": 90}, {"note": 74, "velocity": 85, "duration": 125}, {"note": 73, "velocity": 79, "duration": 139}, {"note": 71, "velocity": 78, "duration": 111}, {"note": 69, "velocity": 73, "duration": 111}, {"note": 71, "velocity": 80, "duration": 1018}, {"note": 0, "velocity": 0, "duration": 422}, {"note": 69, "velocity": 75, "duration": 114}, {"note": 71, "velocity": 78, "duration": 84}, {"note": 76, "velocity": 79, "duration": 89}, {"note": 74, "velocity": 81, "duration": 85}, {"note": 73, "velocity": 79, "duration": 351}, {"note": 71, "velocity": 74, "duration": 113}, {"note": 73, "velocity": 78, "duration": 359}, {"note": 71, "velocity": 75, "duration": 144}, {"note": 73, "velocity": 78, "duration": 358}, {"note": 71, "velocity": 79, "duration": 114}, {"note": 73, "velocity": 74, "duration": 138}, {"note": 71, "velocity": 78, "duration": 126}, {"note": 69, "velocity": 73, "duration": 128}, {"note": 68, "velocity": 80, "duration": 148}, {"note": 69, "velocity": 79, "duration": 958}, {"note": 0, "velocity": 0, "duration": 482}, {"note": 66, "velocity": 80, "duration": 232}, {"note": 76, "velocity": 80, "duration": 190}, {"note": 74, "velocity": 84, "duration": 388}, {"note": 73, "velocity": 77, "duration": 145}, {"note": 74, "velocity": 87, "duration": 357}, {"note": 73, "velocity": 65, "duration": 128}, {"note": 74, "velocity": 83, "duration": 390}, {"note": 0, "velocity": 0, "duration": 90}, {"note": 74, "velocity": 89, "duration": 64}, {"note": 74, "velocity": 84, "duration": 59}, {"note": 0, "velocity": 0, "duration": 61}, {"note": 74, "velocity": 80, "duration": 88}, {"note": 76, "velocity": 82, "duration": 340}, {"note": 71, "velocity": 80, "duration": 1198}, {"note": 0, "velocity": 0, "duration": 7922}, {"note": 64, "velocity": 82, "duration": 118}, {"note": 66, "velocity": 78, "duration": 76}, {"note": 71, "velocity": 79, "duration": 190}, {"note": 69, "velocity": 78, "duration": 70}, {"note": 69, "velocity": 77, "duration": 326}, {"note": 68, "velocity": 78, "duration": 73}, {"note": 68, "velocity": 79, "duration": 118}, {"note": 71, "velocity": 79, "duration": 238}, {"note": 69, "velocity": 73, "duration": 64}, {"note": 69, "velocity": 78, "duration": 302}, {"note": 0, "velocity": 0, "duration": 298}, {"note": 68, "velocity": 80, "duration": 201}, {"note": 66, "velocity": 79, "duration": 174}, {"note": 0, "velocity": 0, "duration": 66}, {"note": 66, "velocity": 79, "duration": 185}, {"note": 65, "velocity": 78, "duration": 89}, {"note": 66, "velocity": 74, "duration": 622}, {"note": 0, "velocity": 0, "duration": 338}, {"note": 66, "velocity": 79, "duration": 82}, {"note": 73, "velocity": 79, "duration": 197}, {"note": 71, "velocity": 73, "duration": 73}, {"note": 71, "velocity": 78, "duration": 268}, {"note": 0, "velocity": 0, "duration": 92}, {"note": 66, "velocity": 78, "duration": 63}, {"note": 66, "velocity": 76, "duration": 76}, {"note": 73, "velocity": 79, "duration": 179}, {"note": 0, "velocity": 0, "duration": 61}, {"note": 71, "velocity": 73, "duration": 71}, {"note": 71, "velocity": 78, "duration": 416}, {"note": 0, "velocity": 0, "duration": 64}, {"note": 69, "velocity": 79, "duration": 118}, {"note": 68, "velocity": 79, "duration": 182}, {"note": 66, "velocity": 80, "duration": 171}, {"note": 0, "velocity": 0, "duration": 69}, {"note": 66, "velocity": 79, "duration": 76}, {"note": 66, "velocity": 72, "duration": 230}, {"note": 64, "velocity": 79, "duration": 751}, {"note": 0, "velocity": 0, "duration": 89}, {"note": 64, "velocity": 79, "duration": 82}, {"note": 66, "velocity": 78, "duration": 73}, {"note": 71, "velocity": 79, "duration": 184}, {"note": 69, "velocity": 74, "duration": 67}, {"note": 69, "velocity": 78, "duration": 332}, {"note": 69, "velocity": 72, "duration": 78}, {"note": 68, "velocity": 80, "duration": 118}, {"note": 71, "velocity": 70, "duration": 194}, {"note": 69, "velocity": 73, "duration": 61}, {"note": 69, "velocity": 79, "duration": 360}, {"note": 0, "velocity": 0, "duration": 240}, {"note": 68, "velocity": 78, "duration": 202}, {"note": 66, "velocity": 79, "duration": 174}, {"note": 0, "velocity": 0, "duration": 66}, {"note": 66, "velocity": 79, "duration": 211}, {"note": 68, "velocity": 66, "duration": 93}, {"note": 66, "velocity": 79, "duration": 876}, {"note": 0, "velocity": 0, "duration": 84}, {"note": 66, "velocity": 79, "duration": 79}, {"note": 73, "velocity": 79, "duration": 188}, {"note": 71, "velocity": 74, "duration": 72}, {"note": 71, "velocity": 78, "duration": 329}, {"note": 66, "velocity": 70, "duration": 205}, {"note": 73, "velocity": 79, "duration": 198}, {"note": 71, "velocity": 71, "duration": 71}, {"note": 71, "velocity": 78, "duration": 434}, {"note": 71, "velocity": 77, "duration": 76}, {"note": 71, "velocity": 80, "duration": 191}, {"note": 73, "velocity": 76, "duration": 184}, {"note": 73, "velocity": 79, "duration": 88}, {"note": 74, "velocity": 79, "duration": 211}, {"note": 73, "velocity": 78, "duration": 114}, {"note": 71, "velocity": 74, "duration": 389}, {"note": 0, "velocity": 0, "duration": 91}, {"note": 69, "velocity": 75, "duration": 114}, {"note": 71, "velocity": 78, "duration": 84}, {"note": 76, "velocity": 79, "duration": 89}, {"note": 74, "velocity": 81, "duration": 85}, {"note": 73, "velocity": 79, "duration": 351}, {"note": 71, "velocity": 74, "duration": 113}, {"note": 73, "velocity": 78, "duration": 359}, {"note": 71, "velocity": 75, "duration": 144}, {"note": 73, "velocity": 78, "duration": 358}, {"note": 71, "velocity": 79, "duration": 114}, {"note": 73, "velocity": 74, "duration": 138}, {"note": 71, "velocity": 78, "duration": 126}, {"note": 69, "velocity": 73, "duration": 128}, {"note": 68, "velocity": 80, "duration": 148}, {"note": 69, "velocity": 79, "duration": 958}, {"note": 0, "velocity": 0, "duration": 482}, {"note": 66, "velocity": 80, "duration": 232}, {"note": 76, "velocity": 80, "duration": 190}, {"note": 74, "velocity": 84, "duration": 388}, {"note": 73, "velocity": 77, "duration": 145}, {"note": 74, "velocity": 87, "duration": 357}, {"note": 73, "velocity": 65, "duration": 128}, {"note": 74, "velocity": 83, "duration": 390}, {"note": 0, "velocity": 0, "duration": 90}, {"note": 74, "velocity": 85, "duration": 125}, {"note": 73, "velocity": 79, "duration": 139}, {"note": 71, "velocity": 78, "duration": 111}, {"note": 69, "velocity": 73, "duration": 111}, {"note": 71, "velocity": 80, "duration": 1018}, {"note": 0, "velocity": 0, "duration": 422}, {"note": 69, "velocity": 75, "duration": 114}, {"note": 71, "velocity": 78, "duration": 84}, {"note": 76, "velocity": 79, "duration": 89}, {"note": 74, "velocity": 81, "duration": 85}, {"note": 73, "velocity": 79, "duration": 351}, {"note": 71, "velocity": 74, "duration": 113}, {"note": 73, "velocity": 78, "duration": 359}, {"note": 71, "velocity": 75, "duration": 144}, {"note": 73, "velocity": 78, "duration": 358}, {"note": 71, "velocity": 79, "duration": 114}, {"note": 73, "velocity": 74, "duration": 138}, {"note": 71, "velocity": 78, "duration": 126}, {"note": 69, "velocity": 73, "duration": 128}, {"note": 68, "velocity": 80, "duration": 148}, {"note": 69, "velocity": 79, "duration": 958}, {"note": 0, "velocity": 0, "duration": 482}, {"note": 66, "velocity": 80, "duration": 232}, {"note": 76, "velocity": 80, "duration": 190}, {"note": 74, "velocity": 84, "duration": 388}, {"note": 73, "velocity": 77, "duration": 145}, {"note": 74, "velocity": 87, "duration": 357}, {"note": 73, "velocity": 65, "duration": 128}, {"note": 74, "velocity": 83, "duration": 390}, {"note": 0, "velocity": 0, "duration": 90}, {"note": 74, "velocity": 89, "duration": 64}, {"note": 74, "velocity": 84, "duration": 59}, {"note": 0, "velocity": 0, "duration": 61}, {"note": 74, "velocity": 80, "duration": 88}, {"note": 76, "velocity": 82, "duration": 340}, {"note": 71, "velocity": 80, "duration": 1198}, {"note": 0, "velocity": 0, "duration": 242}, {"note": 64, "velocity": 82, "duration": 118}, {"note": 66, "velocity": 78, "duration": 76}, {"note": 71, "velocity": 79, "duration": 190}, {"note": 69, "velocity": 78, "duration": 70}, {"note": 69, "velocity": 77, "duration": 326}, {"note": 68, "velocity": 78, "duration": 73}, {"note": 68, "velocity": 79, "duration": 118}, {"note": 71, "velocity": 79, "duration": 238}, {"note": 69, "velocity": 73, "duration": 64}, {"note": 69, "velocity": 78, "duration": 302}, {"note": 0, "velocity": 0, "duration": 298}, {"note": 68, "velocity": 80, "duration": 201}, {"note": 66, "velocity": 79, "duration": 174}, {"note": 0, "velocity": 0, "duration": 66}, {"note": 66, "velocity": 79, "duration": 185}, {"note": 65, "velocity": 78, "duration": 89}, {"note": 66, "velocity": 74, "duration": 622}, {"note": 0, "velocity": 0, "duration": 338}, {"note": 66, "velocity": 79, "duration": 82}, {"note": 73, "velocity": 79, "duration": 197}, {"note": 71, "velocity": 73, "duration": 73}, {"note": 71, "velocity": 78, "duration": 268}, {"note": 0, "velocity": 0, "duration": 92}, {"note": 66, "velocity": 78, "duration": 63}, {"note": 66, "velocity": 76, "duration": 76}, {"note": 73, "velocity": 79, "duration": 179}, {"note": 0, "velocity": 0, "duration": 61}, {"note": 71, "velocity": 73, "duration": 71}, {"note": 71, "velocity": 78, "duration": 416}, {"note": 0, "velocity": 0, "duration": 64}, {"note": 69, "velocity": 79, "duration": 118}, {"note": 68, "velocity": 79, "duration": 182}, {"note": 66, "velocity": 80, "duration": 171}, {"note": 0, "velocity": 0, "duration": 69}, {"note": 66, "velocity": 79, "duration": 76}, {"note": 66, "velocity": 72, "duration": 230}, {"note": 64, "velocity": 79, "duration": 751}, {"note": 0, "velocity": 0, "duration": 89}, {"note": 64, "velocity": 79, "duration": 82}, {"note": 66, "velocity": 78, "duration": 73}, {"note": 71, "velocity": 79, "duration": 184}, {"note": 69, "velocity": 74, "duration": 67}, {"note": 69, "velocity": 78, "duration": 332}, {"note": 69, "velocity": 72, "duration": 78}, {"note": 68, "velocity": 80, "duration": 118}, {"note": 71, "velocity": 70, "duration": 194}, {"note": 69, "velocity": 73, "duration": 61}, {"note": 69, "velocity": 79, "duration": 360}, {"note": 0, "velocity": 0, "duration": 240}, {"note": 68, "velocity": 78, "duration": 202}, {"note": 66, "velocity": 79, "duration": 174}, {"note": 0, "velocity": 0, "duration": 66}, {"note": 66, "velocity": 79, "duration": 211}, {"note": 68, "velocity": 66, "duration": 93}, {"note": 66, "velocity": 79, "duration": 876}, {"note": 0, "velocity": 0, "duration": 84}, {"note": 66, "velocity": 79, "duration": 79}, {"note": 73, "velocity": 79, "duration": 188}, {"note": 71, "velocity": 74, "duration": 72}, {"note": 71, "velocity": 78, "duration": 329}, {"note": 66, "velocity": 70, "duration": 205}, {"note": 73, "velocity": 79, "duration": 198}, {"note": 71, "velocity": 71, "duration": 71}, {"note": 71, "velocity": 78, "duration": 434}, {"note": 71, "velocity": 77, "duration": 76}, {"note": 71, "velocity": 80, "duration": 191}, {"note": 73, "velocity": 76, "duration": 184}, {"note": 73, "velocity": 79, "duration": 88}, {"note": 74, "velocity": 79, "duration": 211}, {"note": 73, "velocity": 78, "duration": 114}, {"note": 71, "velocity": 74, "duration": 389}]]