[[{"note": 63, "velocity": 82, "duration": 203}, {"note": 65, "velocity": 81, "duration": 234}, {"note": 68, "velocity": 76, "duration": 215}, {"note": 70, "velocity": 70, "duration": 251}, {"note": 72, "velocity": 78, "duration": 717}, {"note": 0, "velocity": 0, "duration": 243}, {"note": 73, "velocity": 77, "duration": 207}, {"note": 72, "velocity": 77, "duration": 241}, {"note": 70, "velocity": 75, "duration": 256}, {"note": 68, "velocity": 76, "duration": 249}, {"note": 72, "velocity": 75, "duration": 789}, {"note": 0, "velocity": 0, "duration": 171}, {"note": 73, "velocity": 80, "duration": 244}, {"note": 72, "velocity": 79, "duration": 261}, {"note": 73, "velocity": 79, "duration": 274}, {"note": 75, "velocity": 84, "duration": 201}, {"note": 72, "velocity": 81, "duration": 133}, {"note": 70, "velocity": 77, "duration": 124}, {"note": 68, "velocity": 73, "duration": 177}, {"note": 0, "velocity": 0, "duration": 63}, {"note": 68, "velocity": 74, "duration": 1023}, {"note": 0, "velocity": 0, "duration": 177}, {"note": 65, "velocity": 82, "duration": 72}, {"note": 68, "velocity": 77, "duration": 75}, {"note": 73, "velocity": 78, "duration": 430}, {"note": 73, "velocity": 77, "duration": 173}, {"note": 0, "velocity": 0, "duration": 67}, {"note": 72, "velocity": 71, "duration": 176}, {"note": 0, "velocity": 0, "duration": 64}, {"note": 70, "velocity": 76, "duration": 782}, {"note": 0, "velocity": 0, "duration": 178}, {"note": 63, "velocity": 82, "duration": 203}, {"note": 65, "velocity": 81, "duration": 234}, {"note": 68, "velocity": 76, "duration": 215}, {"note": 70, "velocity": 70, "duration": 251}, {"note": 72, "velocity": 78, "duration": 717}, {"note": 0, "velocity": 0, "duration": 243}, {"note": 73, "velocity": 77, "duration": 207}, {"note": 72, "velocity": 77, "duration": 241}, {"note": 70, "velocity": 75, "duration": 256}, {"note": 68, "velocity": 76, "duration": 249}, {"note": 72, "velocity": 75, "duration": 789}, {"note": 0, "velocity": 0, "duration": 171}, {"note": 73, "velocity": 80, "duration": 244}, {"note": 72, "velocity": 79, "duration": 261}, {"note": 73, "velocity": 79, "duration": 274}, {"note": 75, "velocity": 84, "duration": 201}, {"note": 72, "velocity": 81, "duration": 133}, {"note": 70, "velocity": 77, "duration": 124}, {"note": 68, "velocity": 73, "duration": 177}, {"note": 0, "velocity": 0, "duration": 63}, {"note": 68, "velocity": 74, "duration": 1023}, {"note": 0, "velocity": 0, "duration": 177}, {"note": 65, "velocity": 82, "duration": 72}, {"note": 68, "velocity": 77, "duration": 75}, {"note": 73, "velocity": 78, "duration": 430}, {"note": 73, "velocity": 77, "duration": 173}, {"note": 0, "velocity": 0, "duration": 67}, {"note": 72, "velocity": 71, "duration": 176}, {"note": 0, "velocity": 0, "duration": 64}, {"note": 70, "velocity": 76, "duration": 782}, {"note": 0, "velocity": 0, "duration": 658}, {"note": 70, "velocity": 77, "duration": 194}, {"note": 68, "velocity": 76, "duration": 185}, {"note": 70, "velocity": 76, "duration": 650}, {"note": 0, "velocity": 0, "duration": 70}, {"note": 70, "velocity": 77, "duration": 67}, {"note": 72, "velocity": 76, "duration": 67}, {"note": 73, "velocity": 79, "duration": 218}, {"note": 72, "velocity": 79, "duration": 216}, {"note": 70, "velocity": 76, "duration": 217}, {"note": 68, "velocity": 76, "duration": 244}, {"note": 65, "velocity": 84, "duration": 222}, {"note": 68, "velocity": 76, "duration": 241}, {"note": 70, "velocity": 76, "duration": 271}, {"note": 68, "velocity": 75, "duration": 258}, {"note": 70, "velocity": 76, "duration": 266}, {"note": 72, "velocity": 75, "duration": 118}, {"note": 72, "velocity": 77, "duration": 649}, {"note": 0, "velocity": 0, "duration": 431}, {"note": 70, "velocity": 77, "duration": 250}, {"note": 68, "velocity": 68, "duration": 129}, {"note": 70, "velocity": 76, "duration": 751}, {"note": 0, "velocity": 0, "duration": 89}, {"note": 70, "velocity": 75, "duration": 81}, {"note": 72, "velocity": 76, "duration": 70}, {"note": 73, "velocity": 79, "duration": 235}, {"note": 72, "velocity": 74, "duration": 236}, {"note": 70, "velocity": 77, "duration": 251}, {"note": 68, "velocity": 77, "duration": 267}, {"note": 65, "velocity": 82, "duration": 245}, {"note": 68, "velocity": 76, "duration": 243}, {"note": 70, "velocity": 77, "duration": 234}, {"note": 77, "velocity": 75, "duration": 478}, {"note": 75, "velocity": 77, "duration": 510}, {"note": 0, "velocity": 0, "duration": 690}, {"note": 75, "velocity": 77, "duration": 182}, {"note": 73, "velocity": 84, "duration": 174}, {"note": 72, "velocity": 84, "duration": 156}, {"note": 75, "velocity": 91, "duration": 1184}, {"note": 0, "velocity": 0, "duration": 244}, {"note": 75, "velocity": 77, "duration": 182}, {"note": 73, "velocity": 84, "duration": 174}, {"note": 72, "velocity": 84, "duration": 156}, {"note": 75, "velocity": 91, "duration": 718}, {"note": 77, "velocity": 76, "duration": 238}, {"note": 75, "velocity": 76, "duration": 478}, {"note": 75, "velocity": 77, "duration": 182}, {"note": 73, "velocity": 84, "duration": 174}, {"note": 72, "velocity": 84, "duration": 156}, {"note": 73, "velocity": 79, "duration": 241}, {"note": 75, "velocity": 82, "duration": 138}, {"note": 77, "velocity": 78, "duration": 512}, {"note": 0, "velocity": 0, "duration": 88}, {"note": 75, "velocity": 86, "duration": 194}, {"note": 73, "velocity": 81, "duration": 102}, {"note": 72, "velocity": 82, "duration": 265}, {"note": 0, "velocity": 0, "duration": 99}, {"note": 72, "velocity": 81, "duration": 107}, {"note": 75, "velocity": 91, "duration": 79}, {"note": 72, "velocity": 84, "duration": 142}, {"note": 70, "velocity": 78, "duration": 102}, {"note": 70, "velocity": 81, "duration": 81}, {"note": 70, "velocity": 77, "duration": 180}, {"note": 75, "velocity": 82, "duration": 90}, {"note": 77, "velocity": 81, "duration": 118}, {"note": 75, "velocity": 77, "duration": 162}, {"note": 0, "velocity": 0, "duration": 78}, {"note": 70, "velocity": 79, "duration": 238}, {"note": 75, "velocity": 77, "duration": 182}, {"note": 73, "velocity": 84, "duration": 174}, {"note": 72, "velocity": 84, "duration": 156}, {"note": 75, "velocity": 91, "duration": 1183}, {"note": 0, "velocity": 0, "duration": 245}, {"note": 75, "velocity": 77, "duration": 182}, {"note": 73, "velocity": 84, "duration": 174}, {"note": 72, "velocity": 84, "duration": 156}, {"note": 75, "velocity": 91, "duration": 718}, {"note": 77, "velocity": 76, "duration": 238}, {"note": 75, "velocity": 76, "duration": 478}, {"note": 0, "velocity": 0, "duration": 122}, {"note": 73, "velocity": 77, "duration": 118}, {"note": 73, "velocity": 84, "duration": 118}, {"note": 72, "velocity": 84, "duration": 127}, {"note": 73, "velocity": 79, "duration": 241}, {"note": 75, "velocity": 82, "duration": 138}, {"note": 77, "velocity": 78, "duration": 512}, {"note": 0, "velocity": 0, "duration": 88}, {"note": 75, "velocity": 86, "duration": 194}, {"note": 73, "velocity": 81, "duration": 102}, {"note": 72, "velocity": 82, "duration": 265}, {"note": 0, "velocity": 0, "duration": 99}, {"note": 72, "velocity": 81, "duration": 107}, {"note": 75, "velocity": 91, "duration": 79}, {"note": 72, "velocity": 84, "duration": 142}, {"note": 70, "velocity": 78, "duration": 102}, {"note": 70, "velocity": 81, "duration": 81}, {"note": 70, "velocity": 77, "duration": 478}, {"note": 0, "velocity": 0, "duration": 711}, {"note": 70, "velocity": 81, "duration": 70}, {"note": 72, "velocity": 77, "duration": 61}, {"note": 0, "velocity": 0, "duration": 67}, {"note": 73, "velocity": 79, "duration": 198}, {"note": 72, "velocity": 80, "duration": 243}, {"note": 70, "velocity": 77, "duration": 206}, {"note": 68, "velocity": 75, "duration": 249}, {"note": 67, "velocity": 80, "duration": 171}, {"note": 0, "velocity": 0, "duration": 63}, {"note": 65, "velocity": 81, "duration": 199}, {"note": 63, "velocity": 69, "duration": 150}, {"note": 0, "velocity": 0, "duration": 90}, {"note": 70, "velocity": 79, "duration": 238}, {"note": 68, "velocity": 82, "duration": 933}, {"note": 0, "velocity": 0, "duration": 15405}, {"note": 63, "velocity": 82, "duration": 203}, {"note": 65, "velocity": 81, "duration": 234}, {"note": 68, "velocity": 76, "duration": 215}, {"note": 70, "velocity": 70, "duration": 251}, {"note": 72, "velocity": 78, "duration": 717}, {"note": 0, "velocity": 0, "duration": 243}, {"note": 73, "velocity": 77, "duration": 207}, {"note": 72, "velocity": 77, "duration": 241}, {"note": 70, "velocity": 75, "duration": 256}, {"note": 68, "velocity": 76, "duration": 249}, {"note": 72, "velocity": 75, "duration": 789}, {"note": 0, "velocity": 0, "duration": 171}, {"note": 73, "velocity": 80, "duration": 244}, {"note": 72, "velocity": 79, "duration": 261}, {"note": 73, "velocity": 79, "duration": 274}, {"note": 75, "velocity": 84, "duration": 201}, {"note": 72, "velocity": 81, "duration": 133}, {"note": 70, "velocity": 77, "duration": 124}, {"note": 68, "velocity": 73, "duration": 177}, {"note": 0, "velocity": 0, "duration": 63}, {"note": 68, "velocity": 74, "duration": 1023}, {"note": 0, "velocity": 0, "duration": 177}, {"note": 65, "velocity": 82, "duration": 72}, {"note": 68, "velocity": 77, "duration": 75}, {"note": 73, "velocity": 78, "duration": 430}, {"note": 73, "velocity": 77, "duration": 173}, {"note": 0, "velocity": 0, "duration": 67}, {"note": 72, "velocity": 71, "duration": 176}, {"note": 0, "velocity": 0, "duration": 64}, {"note": 70, "velocity": 76, "duration": 782}, {"note": 0, "velocity": 0, "duration": 178}, {"note": 63, "velocity": 82, "duration": 203}, {"note": 65, "velocity": 81, "duration": 234}, {"note": 68, "velocity": 76, "duration": 215}, {"note": 70, "velocity": 70, "duration": 251}, {"note": 72, "velocity": 78, "duration": 717}, {"note": 0, "velocity": 0, "duration": 243}, {"note": 73, "velocity": 77, "duration": 207}, {"note": 72, "velocity": 77, "duration": 241}, {"note": 70, "velocity": 75, "duration": 256}, {"note": 68, "velocity": 76, "duration": 249}, {"note": 72, "velocity": 75, "duration": 789}, {"note": 0, "velocity": 0, "duration": 171}, {"note": 73, "velocity": 80, "duration": 244}, {"note": 72, "velocity": 79, "duration": 261}, {"note": 73, "velocity": 79, "duration": 274}, {"note": 75, "velocity": 84, "duration": 201}, {"note": 72, "velocity": 81, "duration": 133}, {"note": 70, "velocity": 77, "duration": 124}, {"note": 68, "velocity": 73, "duration": 177}, {"note": 0, "velocity": 0, "duration": 63}, {"note": 68, "velocity": 74, "duration": 1023}, {"note": 0, "velocity": 0, "duration": 177}, {"note": 65, "velocity": 82, "duration": 72}, {"note": 68, "velocity": 77, "duration": 75}, {"note": 73, "velocity": 78, "duration": 430}, {"note": 73, "velocity": 77, "duration": 173}, {"note": 0, "velocity": 0, "duration": 67}, {"note": 72, "velocity": 71, "duration": 176}, {"note": 0, "velocity": 0, "duration": 64}, {"note": 70, "velocity": 76, "duration": 782}, {"note": 0, "velocity": 0, "duration": 658}, {"note": 70, "velocity": 77, "duration": 194}, {"note": 68, "velocity": 76, "duration": 185}, {"note": 70, "velocity": 76, "duration": 650}, {"note": 0, "velocity": 0, "duration": 70}, {"note": 70, "velocity": 77, "duration": 67}, {"note": 72, "velocity": 76, "duration": 67}, {"note": 73, "velocity": 79, "duration": 218}, {"note": 72, "velocity": 79, "duration": 216}, {"note": 70, "velocity": 76, "duration": 217}, {"note": 68, "velocity": 76, "duration": 244}, {"note": 65, "velocity": 84, "duration": 222}, {"note": 68, "velocity": 76, "duration": 241}, {"note": 70, "velocity": 76, "duration": 271}, {"note": 68, "velocity": 75, "duration": 258}, {"note": 70, "velocity": 76, "duration": 266}, {"note": 72, "velocity": 75, "duration": 118}, {"note": 72, "velocity": 77, "duration": 649}, {"note": 0, "velocity": 0, "duration": 431}, {"note": 70, "velocity": 77, "duration": 250}, {"note": 68, "velocity": 68, "duration": 129}, {"note": 70, "velocity": 76, "duration": 751}, {"note": 0, "velocity": 0, "duration": 89}, {"note": 70, "velocity": 75, "duration": 81}, {"note": 72, "velocity": 76, "duration": 70}, {"note": 73, "velocity": 79, "duration": 235}, {"note": 72, "velocity": 74, "duration": 236}, {"note": 70, "velocity": 77, "duration": 251}, {"note": 68, "velocity": 77, "duration": 267}, {"note": 65, "velocity": 82, "duration": 245}, {"note": 68, "velocity": 76, "duration": 243}, {"note": 70, "velocity": 77, "duration": 234}, {"note": 77, "velocity": 75, "duration": 478}, {"note": 75, "velocity": 77, "duration": 510}, {"note": 0, "velocity": 0, "duration": 690}, {"note": 75, "velocity": 77, "duration": 182}, {"note": 73, "velocity": 84, "duration": 174}, {"note": 72, "velocity": 84, "duration": 156}, {"note": 75, "velocity": 91, "duration": 1183}, {"note": 0, "velocity": 0, "duration": 245}, {"note": 75, "velocity": 77, "duration": 182}, {"note": 73, "velocity": 84, "duration": 174}, {"note": 72, "velocity": 84, "duration": 156}, {"note": 75, "velocity": 91, "duration": 718}, {"note": 77, "velocity": 76, "duration": 238}, {"note": 75, "velocity": 76, "duration": 478}, {"note": 75, "velocity": 77, "duration": 182}, {"note": 73, "velocity": 84, "duration": 174}, {"note": 72, "velocity": 84, "duration": 156}, {"note": 73, "velocity": 79, "duration": 241}, {"note": 75, "velocity": 82, "duration": 138}, {"note": 77, "velocity": 78, "duration": 512}, {"note": 0, "velocity": 0, "duration": 88}, {"note": 75, "velocity": 86, "duration": 194}, {"note": 73, "velocity": 81, "duration": 102}, {"note": 72, "velocity": 82, "duration": 265}, {"note": 0, "velocity": 0, "duration": 99}, {"note": 72, "velocity": 81, "duration": 107}, {"note": 75, "velocity": 91, "duration": 79}, {"note": 72, "velocity": 84, "duration": 142}, {"note": 70, "velocity": 78, "duration": 102}, {"note": 70, "velocity": 81, "duration": 81}, {"note": 70, "velocity": 77, "duration": 180}, {"note": 75, "velocity": 82, "duration": 90}, {"note": 77, "velocity": 81, "duration": 118}, {"note": 75, "velocity": 77, "duration": 162}, {"note": 0, "velocity": 0, "duration": 78}, {"note": 70, "velocity": 79, "duration": 238}, {"note": 75, "velocity": 77, "duration": 182}, {"note": 73, "velocity": 84, "duration": 174}, {"note": 72, "velocity": 84, "duration": 156}, {"note": 75, "velocity": 91, "duration": 1183}, {"note": 0, "velocity": 0, "duration": 245}, {"note": 75, "velocity": 77, "duration": 182}, {"note": 73, "velocity": 84, "duration": 174}, {"note": 72, "velocity": 84, "duration": 156}, {"note": 75, "velocity": 91, "duration": 718}, {"note": 77, "velocity": 76, "duration": 238}, {"note": 75, "velocity": 76, "duration": 478}, {"note": 0, "velocity": 0, "duration": 122}, {"note": 73, "velocity": 77, "duration": 118}, {"note": 73, "velocity": 84, "duration": 118}, {"note": 72, "velocity": 84, "duration": 127}, {"note": 73, "velocity": 79, "duration": 241}, {"note": 75, "velocity": 82, "duration": 138}, {"note": 77, "velocity": 78, "duration": 512}, {"note": 0, "velocity": 0, "duration": 88}, {"note": 75, "velocity": 86, "duration": 194}, {"note": 73, "velocity": 81, "duration": 102}, {"note": 72, "velocity": 82, "duration": 265}, {"note": 0, "velocity": 0, "duration": 99}, {"note": 72, "velocity": 81, "duration": 107}, {"note": 75, "velocity": 91, "duration": 79}, {"note": 72, "velocity": 84, "duration": 142}, {"note": 70, "velocity": 78, "duration": 102}, {"note": 70, "velocity": 81, "duration": 81}, {"note": 70, "velocity": 77, "duration": 478}, {"note": 0, "velocity": 0, "duration": 711}, {"note": 70, "velocity": 81, "duration": 70}, {"note": 72, "velocity": 77, "duration": 61}, {"note": 0, "velocity": 0, "duration": 67}, {"note": 73, "velocity": 79, "duration": 198}, {"note": 72, "velocity": 80, "duration": 243}, {"note": 70, "velocity": 77, "duration": 206}, {"note": 68, "velocity": 75, "duration": 249}, {"note": 67, "velocity": 80, "duration": 171}, {"note": 0, "velocity": 0, "duration": 63}, {"note": 65, "velocity": 81, "duration": 199}, {"note": 63, "velocity": 69, "duration": 150}, {"note": 0, "velocity": 0, "duration": 90}, {"note": 70, "velocity": 79, "duration": 238}, {"note": 68, "velocity": 82, "duration": 933}, {"note": 0, "velocity": 0, "duration": 6303}, {"note": 75, "velocity": 89, "duration": 308}, {"note": 0, "velocity": 0, "duration": 90}, {"note": 75, "velocity": 82, "duration": 174}, {"note": 80, "velocity": 77, "duration": 342}, {"note": 75, "velocity": 91, "duration": 1183}, {"note": 0, "velocity": 0, "duration": 245}, {"note": 75, "velocity": 77, "duration": 182}, {"note": 73, "velocity": 84, "duration": 174}, {"note": 72, "velocity": 84, "duration": 156}, {"note": 75, "velocity": 91, "duration": 718}, {"note": 77, "velocity": 76, "duration": 238}, {"note": 75, "velocity": 76, "duration": 478}, {"note": 75, "velocity": 77, "duration": 182}, {"note": 73, "velocity": 84, "duration": 174}, {"note": 72, "velocity": 84, "duration": 156}, {"note": 73, "velocity": 79, "duration": 241}, {"note": 75, "velocity": 82, "duration": 138}, {"note": 77, "velocity": 78, "duration": 512}, {"note": 0, "velocity": 0, "duration": 88}, {"note": 75, "velocity": 86, "duration": 194}, {"note": 73, "velocity": 81, "duration": 102}, {"note": 72, "velocity": 82, "duration": 265}, {"note": 0, "velocity": 0, "duration": 99}, {"note": 72, "velocity": 81, "duration": 107}, {"note": 75, "velocity": 91, "duration": 79}, {"note": 72, "velocity": 84, "duration": 142}, {"note": 70, "velocity": 78, "duration": 102}, {"note": 70, "velocity": 81, "duration": 81}, {"note": 70, "velocity": 77, "duration": 180}, {"note": 75, "velocity": 82, "duration": 90}, {"note": 77, "velocity": 81, "duration": 118}, {"note": 75, "velocity": 77, "duration": 162}, {"note": 0, "velocity": 0, "duration": 78}, {"note": 70, "velocity": 79, "duration": 238}, {"note": 75, "velocity": 77, "duration": 182}, {"note": 73, "velocity": 84, "duration": 174}, {"note": 72, "velocity": 84, "duration": 156}, {"note": 75, "velocity": 91, "duration": 1183}, {"note": 0, "velocity": 0, "duration": 245}, {"note": 75, "velocity": 77, "duration": 182}, {"note": 73, "velocity": 84, "duration": 174}, {"note": 72, "velocity": 84, "duration": 156}, {"note": 75, "velocity": 91, "duration": 718}, {"note": 77, "velocity": 76, "duration": 238}, {"note": 75, "velocity": 76, "duration": 478}, {"note": 0, "velocity": 0, "duration": 122}, {"note": 73, "velocity": 77, "duration": 118}, {"note": 73, "velocity": 84, "duration": 118}, {"note": 72, "velocity": 84, "duration": 127}, {"note": 73, "velocity": 79, "duration": 241}, {"note": 75, "velocity": 82, "duration": 138}, {"note": 77, "velocity": 78, "duration": 512}, {"note": 0, "velocity": 0, "duration": 88}, {"note": 75, "velocity": 86, "duration": 194}, {"note": 73, "velocity": 81, "duration": 102}, {"note": 72, "velocity": 82, "duration": 265}, {"note": 0, "velocity": 0, "duration": 99}, {"note": 72, "velocity": 81, "duration": 107}, {"note": 75, "velocity": 91, "duration": 79}, {"note": 72, "velocity": 84, "duration": 142}, {"note": 70, "velocity": 78, "duration": 102}, {"note": 70, "velocity": 81, "duration": 81}, {"note": 70, "velocity": 77, "duration": 478}, {"note": 0, "velocity": 0, "duration": 711}, {"note": 70, "velocity": 81, "duration": 70}, {"note": 72, "velocity": 77, "duration": 61}, {"note": 0, "velocity": 0, "duration": 67}, {"note": 73, "velocity": 79, "duration": 198}, {"note": 72, "velocity": 80, "duration": 243}, {"note": 70, "velocity": 77, "duration": 206}, {"note": 68, "velocity": 75, "duration": 249}, {"note": 67, "velocity": 80, "duration": 171}, {"note": 0, "velocity": 0, "duration": 63}, {"note": 65, "velocity": 81, "duration": 199}, {"note": 63, "velocity": 69, "duration": 150}, {"note": 0, "velocity": 0, "duration": 90}, {"note": 70, "velocity": 79, "duration": 238}, {"note": 68, "velocity": 82, "duration": 933}, {"note": 0, "velocity": 0, "duration": 745}, {"note": 70, "velocity": 81, "duration": 70}, {"note": 72, "velocity": 77, "duration": 61}, {"note": 0, "velocity": 0, "duration": 67}, {"note": 73, "velocity": 79, "duration": 198}, {"note": 72, "velocity": 80, "duration": 243}, {"note": 70, "velocity": 77, "duration": 206}, {"note": 68, "velocity": 75, "duration": 249}, {"note": 67, "velocity": 76, "duration": 334}, {"note": 65, "velocity": 81, "duration": 318}, {"note": 63, "velocity": 76, "duration": 370}, {"note": 70, "velocity": 76, "duration": 1043}, {"note": 0, "velocity": 0, "duration": 491}, {"note": 68, "velocity": 64, "duration": 1031}]]