[[{"note": 60, "velocity": 86, "duration": 146}, {"note": 0, "velocity": 0, "duration": 94}, {"note": 62, "velocity": 68, "duration": 223}, {"note": 63, "velocity": 73, "duration": 474}, {"note": 60, "velocity": 73, "duration": 504}, {"note": 63, "velocity": 74, "duration": 492}, {"note": 62, "velocity": 71, "duration": 501}, {"note": 58, "velocity": 73, "duration": 740}, {"note": 62, "velocity": 72, "duration": 274}, {"note": 60, "velocity": 68, "duration": 2099}, {"note": 0, "velocity": 0, "duration": 301}, {"note": 60, "velocity": 77, "duration": 203}, {"note": 62, "velocity": 72, "duration": 178}, {"note": 0, "velocity": 0, "duration": 62}, {"note": 63, "velocity": 75, "duration": 438}, {"note": 60, "velocity": 75, "duration": 435}, {"note": 63, "velocity": 76, "duration": 413}, {"note": 0, "velocity": 0, "duration": 67}, {"note": 65, "velocity": 76, "duration": 480}, {"note": 62, "velocity": 73, "duration": 746}, {"note": 65, "velocity": 71, "duration": 307}, {"note": 67, "velocity": 70, "duration": 2510}, {"note": 0, "velocity": 0, "duration": 370}, {"note": 70, "velocity": 74, "duration": 471}, {"note": 72, "velocity": 74, "duration": 645}, {"note": 0, "velocity": 0, "duration": 75}, {"note": 67, "velocity": 69, "duration": 304}, {"note": 68, "velocity": 81, "duration": 460}, {"note": 65, "velocity": 71, "duration": 846}, {"note": 0, "velocity": 0, "duration": 114}, {"note": 68, "velocity": 78, "duration": 465}, {"note": 70, "velocity": 74, "duration": 523}, {"note": 67, "velocity": 59, "duration": 240}, {"note": 0, "velocity": 0, "duration": 240}, {"note": 67, "velocity": 73, "duration": 374}, {"note": 0, "velocity": 0, "duration": 106}, {"note": 63, "velocity": 74, "duration": 817}, {"note": 0, "velocity": 0, "duration": 143}, {"note": 65, "velocity": 73, "duration": 410}, {"note": 0, "velocity": 0, "duration": 70}, {"note": 63, "velocity": 74, "duration": 420}, {"note": 61, "velocity": 75, "duration": 411}, {"note": 0, "velocity": 0, "duration": 69}, {"note": 61, "velocity": 79, "duration": 389}, {"note": 0, "velocity": 0, "duration": 91}, {"note": 63, "velocity": 65, "duration": 366}, {"note": 0, "velocity": 0, "duration": 114}, {"note": 65, "velocity": 73, "duration": 405}, {"note": 0, "velocity": 0, "duration": 75}, {"note": 67, "velocity": 64, "duration": 2228}, {"note": 0, "velocity": 0, "duration": 172}, {"note": 60, "velocity": 86, "duration": 146}, {"note": 0, "velocity": 0, "duration": 94}, {"note": 62, "velocity": 68, "duration": 223}, {"note": 63, "velocity": 73, "duration": 474}, {"note": 60, "velocity": 73, "duration": 504}, {"note": 63, "velocity": 74, "duration": 492}, {"note": 62, "velocity": 71, "duration": 501}, {"note": 58, "velocity": 73, "duration": 740}, {"note": 62, "velocity": 72, "duration": 274}, {"note": 60, "velocity": 68, "duration": 2099}, {"note": 0, "velocity": 0, "duration": 301}, {"note": 60, "velocity": 77, "duration": 203}, {"note": 62, "velocity": 72, "duration": 178}, {"note": 0, "velocity": 0, "duration": 62}, {"note": 63, "velocity": 75, "duration": 438}, {"note": 60, "velocity": 75, "duration": 435}, {"note": 63, "velocity": 76, "duration": 413}, {"note": 0, "velocity": 0, "duration": 67}, {"note": 65, "velocity": 76, "duration": 480}, {"note": 62, "velocity": 73, "duration": 746}, {"note": 65, "velocity": 71, "duration": 240}, {"note": 67, "velocity": 70, "duration": 2510}, {"note": 0, "velocity": 0, "duration": 370}, {"note": 70, "velocity": 74, "duration": 471}, {"note": 72, "velocity": 74, "duration": 645}, {"note": 0, "velocity": 0, "duration": 75}, {"note": 67, "velocity": 69, "duration": 304}, {"note": 68, "velocity": 81, "duration": 460}, {"note": 65, "velocity": 71, "duration": 846}, {"note": 0, "velocity": 0, "duration": 114}, {"note": 68, "velocity": 78, "duration": 465}, {"note": 70, "velocity": 74, "duration": 523}, {"note": 67, "velocity": 59, "duration": 240}, {"note": 0, "velocity": 0, "duration": 240}, {"note": 65, "velocity": 73, "duration": 374}, {"note": 0, "velocity": 0, "duration": 106}, {"note": 63, "velocity": 74, "duration": 817}, {"note": 0, "velocity": 0, "duration": 143}, {"note": 65, "velocity": 73, "duration": 410}, {"note": 0, "velocity": 0, "duration": 70}, {"note": 63, "velocity": 74, "duration": 420}, {"note": 61, "velocity": 75, "duration": 411}, {"note": 0, "velocity": 0, "duration": 69}, {"note": 61, "velocity": 79, "duration": 389}, {"note": 0, "velocity": 0, "duration": 91}, {"note": 63, "velocity": 65, "duration": 366}, {"note": 0, "velocity": 0, "duration": 114}, {"note": 65, "velocity": 73, "duration": 405}, {"note": 0, "velocity": 0, "duration": 75}, {"note": 67, "velocity": 64, "duration": 2228}, {"note": 0, "velocity": 0, "duration": 412}, {"note": 60, "velocity": 79, "duration": 142}, {"note": 0, "velocity": 0, "duration": 98}, {"note": 72, "velocity": 78, "duration": 338}, {"note": 0, "velocity": 0, "duration": 142}, {"note": 72, "velocity": 78, "duration": 391}, {"note": 0, "velocity": 0, "duration": 89}, {"note": 72, "velocity": 76, "duration": 338}, {"note": 0, "velocity": 0, "duration": 142}, {"note": 72, "velocity": 76, "duration": 433}, {"note": 70, "velocity": 83, "duration": 621}, {"note": 0, "velocity": 0, "duration": 99}, {"note": 68, "velocity": 76, "duration": 227}, {"note": 67, "velocity": 72, "duration": 238}, {"note": 68, "velocity": 67, "duration": 253}, {"note": 67, "velocity": 72, "duration": 2037}, {"note": 0, "velocity": 0, "duration": 123}, {"note": 67, "velocity": 77, "duration": 188}, {"note": 72, "velocity": 83, "duration": 349}, {"note": 0, "velocity": 0, "duration": 131}, {"note": 72, "velocity": 76, "duration": 380}, {"note": 0, "velocity": 0, "duration": 100}, {"note": 72, "velocity": 74, "duration": 377}, {"note": 0, "velocity": 0, "duration": 103}, {"note": 72, "velocity": 79, "duration": 431}, {"note": 70, "velocity": 73, "duration": 480}, {"note": 65, "velocity": 73, "duration": 480}, {"note": 70, "velocity": 72, "duration": 480}, {"note": 67, "velocity": 74, "duration": 1857}, {"note": 0, "velocity": 0, "duration": 543}, {"note": 65, "velocity": 74, "duration": 416}, {"note": 0, "velocity": 0, "duration": 64}, {"note": 67, "velocity": 68, "duration": 600}, {"note": 0, "velocity": 0, "duration": 120}, {"note": 68, "velocity": 72, "duration": 265}, {"note": 67, "velocity": 75, "duration": 456}, {"note": 65, "velocity": 75, "duration": 631}, {"note": 0, "velocity": 0, "duration": 89}, {"note": 68, "velocity": 72, "duration": 286}, {"note": 67, "velocity": 78, "duration": 496}, {"note": 65, "velocity": 72, "duration": 488}, {"note": 67, "velocity": 69, "duration": 512}, {"note": 60, "velocity": 75, "duration": 1200}, {"note": 0, "velocity": 0, "duration": 240}, {"note": 63, "velocity": 73, "duration": 429}, {"note": 65, "velocity": 76, "duration": 475}, {"note": 63, "velocity": 74, "duration": 458}, {"note": 67, "velocity": 71, "duration": 490}, {"note": 65, "velocity": 73, "duration": 559}, {"note": 67, "velocity": 70, "duration": 498}, {"note": 62, "velocity": 72, "duration": 2515}, {"note": 0, "velocity": 0, "duration": 125}, {"note": 60, "velocity": 79, "duration": 142}, {"note": 0, "velocity": 0, "duration": 98}, {"note": 72, "velocity": 78, "duration": 338}, {"note": 0, "velocity": 0, "duration": 142}, {"note": 72, "velocity": 78, "duration": 391}, {"note": 0, "velocity": 0, "duration": 89}, {"note": 72, "velocity": 76, "duration": 338}, {"note": 0, "velocity": 0, "duration": 142}, {"note": 72, "velocity": 76, "duration": 433}, {"note": 70, "velocity": 83, "duration": 621}, {"note": 0, "velocity": 0, "duration": 99}, {"note": 68, "velocity": 76, "duration": 227}, {"note": 67, "velocity": 72, "duration": 238}, {"note": 68, "velocity": 67, "duration": 253}, {"note": 67, "velocity": 72, "duration": 2037}, {"note": 0, "velocity": 0, "duration": 123}, {"note": 67, "velocity": 77, "duration": 188}, {"note": 72, "velocity": 83, "duration": 349}, {"note": 0, "velocity": 0, "duration": 131}, {"note": 72, "velocity": 76, "duration": 380}, {"note": 0, "velocity": 0, "duration": 100}, {"note": 72, "velocity": 74, "duration": 377}, {"note": 0, "velocity": 0, "duration": 103}, {"note": 72, "velocity": 79, "duration": 431}, {"note": 70, "velocity": 73, "duration": 480}, {"note": 65, "velocity": 73, "duration": 480}, {"note": 70, "velocity": 72, "duration": 480}, {"note": 67, "velocity": 74, "duration": 1857}, {"note": 0, "velocity": 0, "duration": 543}, {"note": 65, "velocity": 74, "duration": 416}, {"note": 0, "velocity": 0, "duration": 64}, {"note": 67, "velocity": 68, "duration": 600}, {"note": 0, "velocity": 0, "duration": 120}, {"note": 68, "velocity": 72, "duration": 265}, {"note": 67, "velocity": 75, "duration": 456}, {"note": 65, "velocity": 75, "duration": 631}, {"note": 0, "velocity": 0, "duration": 89}, {"note": 68, "velocity": 72, "duration": 286}, {"note": 67, "velocity": 78, "duration": 496}, {"note": 65, "velocity": 72, "duration": 488}, {"note": 67, "velocity": 69, "duration": 512}, {"note": 60, "velocity": 75, "duration": 1200}, {"note": 0, "velocity": 0, "duration": 240}, {"note": 63, "velocity": 73, "duration": 429}, {"note": 65, "velocity": 76, "duration": 475}, {"note": 63, "velocity": 74, "duration": 458}, {"note": 67, "velocity": 71, "duration": 490}, {"note": 65, "velocity": 73, "duration": 559}, {"note": 63, "velocity": 70, "duration": 498}, {"note": 62, "velocity": 73, "duration": 480}, {"note": 60, "velocity": 72, "duration": 2515}, {"note": 0, "velocity": 0, "duration": 22445}, {"note": 61, "velocity": 86, "duration": 146}, {"note": 0, "velocity": 0, "duration": 94}, {"note": 63, "velocity": 68, "duration": 223}, {"note": 64, "velocity": 73, "duration": 474}, {"note": 61, "velocity": 73, "duration": 504}, {"note": 64, "velocity": 74, "duration": 492}, {"note": 63, "velocity": 71, "duration": 501}, {"note": 59, "velocity": 73, "duration": 740}, {"note": 63, "velocity": 72, "duration": 274}, {"note": 61, "velocity": 68, "duration": 2099}, {"note": 0, "velocity": 0, "duration": 301}, {"note": 61, "velocity": 77, "duration": 203}, {"note": 63, "velocity": 72, "duration": 178}, {"note": 0, "velocity": 0, "duration": 62}, {"note": 64, "velocity": 75, "duration": 438}, {"note": 61, "velocity": 75, "duration": 435}, {"note": 64, "velocity": 76, "duration": 413}, {"note": 0, "velocity": 0, "duration": 67}, {"note": 66, "velocity": 76, "duration": 480}, {"note": 63, "velocity": 73, "duration": 746}, {"note": 66, "velocity": 71, "duration": 240}, {"note": 68, "velocity": 70, "duration": 2510}, {"note": 0, "velocity": 0, "duration": 370}, {"note": 71, "velocity": 74, "duration": 471}, {"note": 73, "velocity": 74, "duration": 645}, {"note": 0, "velocity": 0, "duration": 75}, {"note": 68, "velocity": 69, "duration": 304}, {"note": 69, "velocity": 81, "duration": 460}, {"note": 66, "velocity": 71, "duration": 846}, {"note": 0, "velocity": 0, "duration": 114}, {"note": 69, "velocity": 78, "duration": 465}, {"note": 71, "velocity": 74, "duration": 523}, {"note": 68, "velocity": 59, "duration": 240}, {"note": 0, "velocity": 0, "duration": 240}, {"note": 66, "velocity": 73, "duration": 374}, {"note": 0, "velocity": 0, "duration": 106}, {"note": 64, "velocity": 74, "duration": 817}, {"note": 0, "velocity": 0, "duration": 143}, {"note": 66, "velocity": 73, "duration": 410}, {"note": 0, "velocity": 0, "duration": 70}, {"note": 64, "velocity": 74, "duration": 420}, {"note": 62, "velocity": 75, "duration": 411}, {"note": 0, "velocity": 0, "duration": 69}, {"note": 62, "velocity": 79, "duration": 389}, {"note": 0, "velocity": 0, "duration": 91}, {"note": 64, "velocity": 65, "duration": 366}, {"note": 0, "velocity": 0, "duration": 114}, {"note": 66, "velocity": 73, "duration": 405}, {"note": 0, "velocity": 0, "duration": 75}, {"note": 68, "velocity": 64, "duration": 2228}, {"note": 0, "velocity": 0, "duration": 412}, {"note": 61, "velocity": 79, "duration": 142}, {"note": 0, "velocity": 0, "duration": 98}, {"note": 73, "velocity": 78, "duration": 338}, {"note": 0, "velocity": 0, "duration": 142}, {"note": 73, "velocity": 78, "duration": 391}, {"note": 0, "velocity": 0, "duration": 89}, {"note": 73, "velocity": 76, "duration": 338}, {"note": 0, "velocity": 0, "duration": 142}, {"note": 73, "velocity": 76, "duration": 433}, {"note": 71, "velocity": 83, "duration": 621}, {"note": 0, "velocity": 0, "duration": 99}, {"note": 69, "velocity": 76, "duration": 227}, {"note": 68, "velocity": 72, "duration": 238}, {"note": 69, "velocity": 67, "duration": 253}, {"note": 68, "velocity": 72, "duration": 2037}, {"note": 0, "velocity": 0, "duration": 123}, {"note": 68, "velocity": 77, "duration": 188}, {"note": 73, "velocity": 83, "duration": 349}, {"note": 0, "velocity": 0, "duration": 131}, {"note": 73, "velocity": 76, "duration": 380}, {"note": 0, "velocity": 0, "duration": 100}, {"note": 73, "velocity": 74, "duration": 377}, {"note": 0, "velocity": 0, "duration": 103}, {"note": 73, "velocity": 79, "duration": 431}, {"note": 71, "velocity": 73, "duration": 480}, {"note": 66, "velocity": 73, "duration": 480}, {"note": 71, "velocity": 72, "duration": 480}, {"note": 68, "velocity": 74, "duration": 1857}, {"note": 0, "velocity": 0, "duration": 543}, {"note": 66, "velocity": 74, "duration": 416}, {"note": 0, "velocity": 0, "duration": 64}, {"note": 68, "velocity": 68, "duration": 600}, {"note": 0, "velocity": 0, "duration": 120}, {"note": 69, "velocity": 72, "duration": 265}, {"note": 68, "velocity": 75, "duration": 456}, {"note": 66, "velocity": 75, "duration": 631}, {"note": 0, "velocity": 0, "duration": 89}, {"note": 69, "velocity": 72, "duration": 286}, {"note": 68, "velocity": 78, "duration": 496}, {"note": 66, "velocity": 72, "duration": 488}, {"note": 68, "velocity": 69, "duration": 512}, {"note": 61, "velocity": 75, "duration": 1200}, {"note": 0, "velocity": 0, "duration": 240}, {"note": 64, "velocity": 73, "duration": 429}, {"note": 66, "velocity": 76, "duration": 475}, {"note": 64, "velocity": 74, "duration": 458}, {"note": 68, "velocity": 71, "duration": 490}, {"note": 66, "velocity": 73, "duration": 559}, {"note": 68, "velocity": 70, "duration": 498}, {"note": 63, "velocity": 72, "duration": 2515}, {"note": 0, "velocity": 0, "duration": 125}, {"note": 61, "velocity": 79, "duration": 142}, {"note": 0, "velocity": 0, "duration": 98}, {"note": 73, "velocity": 78, "duration": 338}, {"note": 0, "velocity": 0, "duration": 142}, {"note": 73, "velocity": 78, "duration": 391}, {"note": 0, "velocity": 0, "duration": 89}, {"note": 73, "velocity": 76, "duration": 338}, {"note": 0, "velocity": 0, "duration": 142}, {"note": 73, "velocity": 76, "duration": 433}, {"note": 71, "velocity": 83, "duration": 621}, {"note": 0, "velocity": 0, "duration": 99}, {"note": 69, "velocity": 76, "duration": 227}, {"note": 68, "velocity": 72, "duration": 238}, {"note": 69, "velocity": 67, "duration": 253}, {"note": 68, "velocity": 72, "duration": 2037}, {"note": 0, "velocity": 0, "duration": 123}, {"note": 68, "velocity": 77, "duration": 188}, {"note": 73, "velocity": 83, "duration": 349}, {"note": 0, "velocity": 0, "duration": 131}, {"note": 73, "velocity": 76, "duration": 380}, {"note": 0, "velocity": 0, "duration": 100}, {"note": 73, "velocity": 74, "duration": 377}, {"note": 0, "velocity": 0, "duration": 103}, {"note": 73, "velocity": 79, "duration": 431}, {"note": 71, "velocity": 73, "duration": 480}, {"note": 66, "velocity": 73, "duration": 480}, {"note": 71, "velocity": 72, "duration": 480}, {"note": 68, "velocity": 74, "duration": 1857}, {"note": 0, "velocity": 0, "duration": 543}, {"note": 66, "velocity": 74, "duration": 416}, {"note": 0, "velocity": 0, "duration": 64}, {"note": 68, "velocity": 68, "duration": 600}, {"note": 0, "velocity": 0, "duration": 120}, {"note": 69, "velocity": 72, "duration": 265}, {"note": 68, "velocity": 75, "duration": 456}, {"note": 66, "velocity": 75, "duration": 631}, {"note": 0, "velocity": 0, "duration": 89}, {"note": 69, "velocity": 72, "duration": 286}, {"note": 68, "velocity": 78, "duration": 496}, {"note": 66, "velocity": 72, "duration": 488}, {"note": 68, "velocity": 69, "duration": 512}, {"note": 61, "velocity": 75, "duration": 1200}, {"note": 0, "velocity": 0, "duration": 240}, {"note": 64, "velocity": 73, "duration": 429}, {"note": 66, "velocity": 76, "duration": 475}, {"note": 64, "velocity": 74, "duration": 458}, {"note": 68, "velocity": 71, "duration": 490}, {"note": 66, "velocity": 73, "duration": 559}, {"note": 64, "velocity": 70, "duration": 498}, {"note": 63, "velocity": 73, "duration": 480}, {"note": 61, "velocity": 72, "duration": 1680}, {"note": 0, "velocity": 0, "duration": 480}, {"note": 61, "velocity": 79, "duration": 142}, {"note": 0, "velocity": 0, "duration": 98}, {"note": 73, "velocity": 78, "duration": 338}, {"note": 0, "velocity": 0, "duration": 142}, {"note": 73, "velocity": 78, "duration": 391}, {"note": 0, "velocity": 0, "duration": 89}, {"note": 73, "velocity": 76, "duration": 338}, {"note": 0, "velocity": 0, "duration": 142}, {"note": 73, "velocity": 76, "duration": 433}, {"note": 71, "velocity": 83, "duration": 621}, {"note": 0, "velocity": 0, "duration": 99}, {"note": 69, "velocity": 76, "duration": 227}, {"note": 68, "velocity": 72, "duration": 238}, {"note": 69, "velocity": 67, "duration": 253}, {"note": 68, "velocity": 72, "duration": 2037}, {"note": 0, "velocity": 0, "duration": 123}, {"note": 68, "velocity": 77, "duration": 188}, {"note": 73, "velocity": 83, "duration": 349}, {"note": 0, "velocity": 0, "duration": 131}, {"note": 73, "velocity": 76, "duration": 380}, {"note": 0, "velocity": 0, "duration": 100}, {"note": 73, "velocity": 74, "duration": 377}, {"note": 0, "velocity": 0, "duration": 103}, {"note": 73, "velocity": 79, "duration": 431}, {"note": 71, "velocity": 73, "duration": 480}, {"note": 66, "velocity": 73, "duration": 480}, {"note": 71, "velocity": 72, "duration": 480}, {"note": 68, "velocity": 74, "duration": 1857}, {"note": 0, "velocity": 0, "duration": 543}, {"note": 66, "velocity": 74, "duration": 416}, {"note": 0, "velocity": 0, "duration": 64}, {"note": 68, "velocity": 68, "duration": 600}, {"note": 0, "velocity": 0, "duration": 120}, {"note": 69, "velocity": 72, "duration": 265}, {"note": 68, "velocity": 75, "duration": 456}, {"note": 66, "velocity": 75, "duration": 631}, {"note": 0, "velocity": 0, "duration": 89}, {"note": 69, "velocity": 72, "duration": 286}, {"note": 68, "velocity": 78, "duration": 496}, {"note": 66, "velocity": 72, "duration": 488}, {"note": 68, "velocity": 69, "duration": 512}, {"note": 61, "velocity": 75, "duration": 1200}, {"note": 0, "velocity": 0, "duration": 240}, {"note": 64, "velocity": 73, "duration": 429}, {"note": 66, "velocity": 76, "duration": 475}, {"note": 64, "velocity": 74, "duration": 458}, {"note": 68, "velocity": 71, "duration": 490}, {"note": 66, "velocity": 73, "duration": 1920}, {"note": 0, "velocity": 0, "duration": 240}, {"note": 76, "velocity": 74, "duration": 777}, {"note": 75, "velocity": 77, "duration": 271}, {"note": 73, "velocity": 60, "duration": 2389}]]