[[{"note": 59, "velocity": 84, "duration": 243}, {"note": 57, "velocity": 79, "duration": 247}, {"note": 59, "velocity": 84, "duration": 515}, {"note": 62, "velocity": 94, "duration": 526}, {"note": 64, "velocity": 80, "duration": 534}, {"note": 59, "velocity": 77, "duration": 268}, {"note": 62, "velocity": 85, "duration": 1223}, {"note": 0, "velocity": 0, "duration": 217}, {"note": 59, "velocity": 79, "duration": 219}, {"note": 62, "velocity": 85, "duration": 209}, {"note": 64, "velocity": 78, "duration": 244}, {"note": 67, "velocity": 79, "duration": 349}, {"note": 0, "velocity": 0, "duration": 131}, {"note": 67, "velocity": 80, "duration": 383}, {"note": 0, "velocity": 0, "duration": 97}, {"note": 67, "velocity": 78, "duration": 226}, {"note": 69, "velocity": 81, "duration": 460}, {"note": 71, "velocity": 80, "duration": 218}, {"note": 62, "velocity": 92, "duration": 409}, {"note": 0, "velocity": 0, "duration": 71}, {"note": 62, "velocity": 82, "duration": 860}, {"note": 0, "velocity": 0, "duration": 340}, {"note": 62, "velocity": 85, "duration": 165}, {"note": 0, "velocity": 0, "duration": 75}, {"note": 64, "velocity": 80, "duration": 227}, {"note": 64, "velocity": 80, "duration": 165}, {"note": 0, "velocity": 0, "duration": 75}, {"note": 64, "velocity": 85, "duration": 189}, {"note": 62, "velocity": 82, "duration": 126}, {"note": 0, "velocity": 0, "duration": 114}, {"note": 64, "velocity": 80, "duration": 240}, {"note": 71, "velocity": 82, "duration": 351}, {"note": 0, "velocity": 0, "duration": 129}, {"note": 69, "velocity": 80, "duration": 432}, {"note": 67, "velocity": 78, "duration": 199}, {"note": 69, "velocity": 82, "duration": 164}, {"note": 0, "velocity": 0, "duration": 76}, {"note": 71, "velocity": 79, "duration": 189}, {"note": 69, "velocity": 81, "duration": 222}, {"note": 67, "velocity": 84, "duration": 514}, {"note": 0, "velocity": 0, "duration": 206}, {"note": 64, "velocity": 85, "duration": 381}, {"note": 0, "velocity": 0, "duration": 99}, {"note": 67, "velocity": 82, "duration": 338}, {"note": 0, "velocity": 0, "duration": 142}, {"note": 67, "velocity": 82, "duration": 194}, {"note": 64, "velocity": 83, "duration": 429}, {"note": 69, "velocity": 79, "duration": 1372}, {"note": 0, "velocity": 0, "duration": 308}, {"note": 71, "velocity": 80, "duration": 159}, {"note": 0, "velocity": 0, "duration": 81}, {"note": 69, "velocity": 81, "duration": 147}, {"note": 0, "velocity": 0, "duration": 93}, {"note": 71, "velocity": 84, "duration": 355}, {"note": 0, "velocity": 0, "duration": 125}, {"note": 71, "velocity": 83, "duration": 306}, {"note": 0, "velocity": 0, "duration": 174}, {"note": 71, "velocity": 83, "duration": 381}, {"note": 0, "velocity": 0, "duration": 99}, {"note": 64, "velocity": 82, "duration": 204}, {"note": 67, "velocity": 79, "duration": 1421}, {"note": 0, "velocity": 0, "duration": 259}, {"note": 64, "velocity": 80, "duration": 192}, {"note": 62, "velocity": 85, "duration": 223}, {"note": 71, "velocity": 81, "duration": 158}, {"note": 0, "velocity": 0, "duration": 82}, {"note": 71, "velocity": 81, "duration": 319}, {"note": 0, "velocity": 0, "duration": 161}, {"note": 71, "velocity": 81, "duration": 628}, {"note": 0, "velocity": 0, "duration": 92}, {"note": 64, "velocity": 83, "duration": 205}, {"note": 69, "velocity": 79, "duration": 720}, {"note": 67, "velocity": 79, "duration": 960}, {"note": 64, "velocity": 82, "duration": 165}, {"note": 0, "velocity": 0, "duration": 75}, {"note": 67, "velocity": 80, "duration": 162}, {"note": 0, "velocity": 0, "duration": 78}, {"note": 69, "velocity": 79, "duration": 350}, {"note": 0, "velocity": 0, "duration": 130}, {"note": 69, "velocity": 79, "duration": 374}, {"note": 0, "velocity": 0, "duration": 106}, {"note": 69, "velocity": 79, "duration": 337}, {"note": 0, "velocity": 0, "duration": 143}, {"note": 71, "velocity": 82, "duration": 160}, {"note": 0, "velocity": 0, "duration": 80}, {"note": 64, "velocity": 82, "duration": 1306}, {"note": 0, "velocity": 0, "duration": 134}, {"note": 62, "velocity": 80, "duration": 146}, {"note": 0, "velocity": 0, "duration": 94}, {"note": 64, "velocity": 82, "duration": 145}, {"note": 0, "velocity": 0, "duration": 95}, {"note": 67, "velocity": 80, "duration": 170}, {"note": 0, "velocity": 0, "duration": 70}, {"note": 69, "velocity": 80, "duration": 620}, {"note": 0, "velocity": 0, "duration": 100}, {"note": 71, "velocity": 79, "duration": 646}, {"note": 0, "velocity": 0, "duration": 74}, {"note": 64, "velocity": 79, "duration": 222}, {"note": 62, "velocity": 87, "duration": 1324}, {"note": 0, "velocity": 0, "duration": 356}, {"note": 59, "velocity": 84, "duration": 243}, {"note": 57, "velocity": 79, "duration": 247}, {"note": 59, "velocity": 84, "duration": 515}, {"note": 62, "velocity": 94, "duration": 526}, {"note": 64, "velocity": 80, "duration": 534}, {"note": 59, "velocity": 77, "duration": 268}, {"note": 62, "velocity": 85, "duration": 1223}, {"note": 0, "velocity": 0, "duration": 217}, {"note": 62, "velocity": 79, "duration": 219}, {"note": 62, "velocity": 85, "duration": 209}, {"note": 64, "velocity": 78, "duration": 244}, {"note": 67, "velocity": 79, "duration": 349}, {"note": 0, "velocity": 0, "duration": 131}, {"note": 67, "velocity": 80, "duration": 383}, {"note": 0, "velocity": 0, "duration": 97}, {"note": 67, "velocity": 78, "duration": 226}, {"note": 69, "velocity": 81, "duration": 460}, {"note": 71, "velocity": 80, "duration": 218}, {"note": 62, "velocity": 92, "duration": 409}, {"note": 0, "velocity": 0, "duration": 71}, {"note": 62, "velocity": 82, "duration": 860}, {"note": 0, "velocity": 0, "duration": 100}, {"note": 64, "velocity": 79, "duration": 240}, {"note": 62, "velocity": 85, "duration": 165}, {"note": 0, "velocity": 0, "duration": 75}, {"note": 64, "velocity": 80, "duration": 227}, {"note": 64, "velocity": 80, "duration": 165}, {"note": 0, "velocity": 0, "duration": 75}, {"note": 64, "velocity": 85, "duration": 189}, {"note": 62, "velocity": 82, "duration": 126}, {"note": 0, "velocity": 0, "duration": 114}, {"note": 64, "velocity": 80, "duration": 240}, {"note": 71, "velocity": 82, "duration": 351}, {"note": 0, "velocity": 0, "duration": 129}, {"note": 69, "velocity": 80, "duration": 432}, {"note": 67, "velocity": 78, "duration": 199}, {"note": 69, "velocity": 82, "duration": 164}, {"note": 0, "velocity": 0, "duration": 76}, {"note": 71, "velocity": 79, "duration": 189}, {"note": 69, "velocity": 81, "duration": 222}, {"note": 67, "velocity": 84, "duration": 514}, {"note": 0, "velocity": 0, "duration": 206}, {"note": 64, "velocity": 85, "duration": 381}, {"note": 0, "velocity": 0, "duration": 99}, {"note": 67, "velocity": 82, "duration": 338}, {"note": 0, "velocity": 0, "duration": 142}, {"note": 67, "velocity": 82, "duration": 194}, {"note": 64, "velocity": 83, "duration": 429}, {"note": 69, "velocity": 79, "duration": 1372}, {"note": 0, "velocity": 0, "duration": 308}, {"note": 71, "velocity": 80, "duration": 159}, {"note": 0, "velocity": 0, "duration": 81}, {"note": 69, "velocity": 81, "duration": 147}, {"note": 0, "velocity": 0, "duration": 93}, {"note": 71, "velocity": 84, "duration": 355}, {"note": 0, "velocity": 0, "duration": 125}, {"note": 71, "velocity": 83, "duration": 306}, {"note": 0, "velocity": 0, "duration": 174}, {"note": 71, "velocity": 83, "duration": 381}, {"note": 0, "velocity": 0, "duration": 99}, {"note": 64, "velocity": 82, "duration": 204}, {"note": 67, "velocity": 79, "duration": 1421}, {"note": 0, "velocity": 0, "duration": 259}, {"note": 64, "velocity": 80, "duration": 192}, {"note": 62, "velocity": 85, "duration": 223}, {"note": 71, "velocity": 81, "duration": 158}, {"note": 0, "velocity": 0, "duration": 82}, {"note": 71, "velocity": 81, "duration": 319}, {"note": 0, "velocity": 0, "duration": 161}, {"note": 71, "velocity": 81, "duration": 628}, {"note": 0, "velocity": 0, "duration": 92}, {"note": 64, "velocity": 83, "duration": 205}, {"note": 69, "velocity": 79, "duration": 720}, {"note": 67, "velocity": 79, "duration": 960}, {"note": 64, "velocity": 82, "duration": 165}, {"note": 0, "velocity": 0, "duration": 75}, {"note": 67, "velocity": 80, "duration": 162}, {"note": 0, "velocity": 0, "duration": 78}, {"note": 69, "velocity": 79, "duration": 350}, {"note": 0, "velocity": 0, "duration": 130}, {"note": 69, "velocity": 79, "duration": 374}, {"note": 0, "velocity": 0, "duration": 106}, {"note": 69, "velocity": 79, "duration": 337}, {"note": 0, "velocity": 0, "duration": 143}, {"note": 71, "velocity": 82, "duration": 160}, {"note": 0, "velocity": 0, "duration": 80}, {"note": 64, "velocity": 82, "duration": 1306}, {"note": 0, "velocity": 0, "duration": 134}, {"note": 62, "velocity": 80, "duration": 146}, {"note": 0, "velocity": 0, "duration": 94}, {"note": 64, "velocity": 82, "duration": 145}, {"note": 0, "velocity": 0, "duration": 95}, {"note": 67, "velocity": 80, "duration": 170}, {"note": 0, "velocity": 0, "duration": 70}, {"note": 69, "velocity": 80, "duration": 620}, {"note": 0, "velocity": 0, "duration": 100}, {"note": 71, "velocity": 79, "duration": 646}, {"note": 0, "velocity": 0, "duration": 74}, {"note": 69, "velocity": 79, "duration": 480}, {"note": 67, "velocity": 87, "duration": 1084}, {"note": 0, "velocity": 0, "duration": 2276}, {"note": 67, "velocity": 81, "duration": 199}, {"note": 69, "velocity": 80, "duration": 213}, {"note": 71, "velocity": 79, "duration": 155}, {"note": 0, "velocity": 0, "duration": 85}, {"note": 71, "velocity": 77, "duration": 127}, {"note": 0, "velocity": 0, "duration": 113}, {"note": 71, "velocity": 82, "duration": 194}, {"note": 69, "velocity": 82, "duration": 205}, {"note": 71, "velocity": 81, "duration": 210}, {"note": 74, "velocity": 80, "duration": 165}, {"note": 0, "velocity": 0, "duration": 75}, {"note": 76, "velocity": 79, "duration": 150}, {"note": 0, "velocity": 0, "duration": 90}, {"note": 71, "velocity": 76, "duration": 376}, {"note": 0, "velocity": 0, "duration": 104}, {"note": 71, "velocity": 82, "duration": 160}, {"note": 0, "velocity": 0, "duration": 80}, {"note": 69, "velocity": 80, "duration": 136}, {"note": 0, "velocity": 0, "duration": 104}, {"note": 67, "velocity": 80, "duration": 150}, {"note": 0, "velocity": 0, "duration": 90}, {"note": 69, "velocity": 80, "duration": 159}, {"note": 0, "velocity": 0, "duration": 81}, {"note": 71, "velocity": 85, "duration": 240}, {"note": 74, "velocity": 79, "duration": 480}, {"note": 69, "velocity": 79, "duration": 480}, {"note": 71, "velocity": 80, "duration": 378}, {"note": 0, "velocity": 0, "duration": 102}, {"note": 69, "velocity": 80, "duration": 396}, {"note": 0, "velocity": 0, "duration": 84}, {"note": 67, "velocity": 81, "duration": 233}, {"note": 64, "velocity": 82, "duration": 1344}, {"note": 0, "velocity": 0, "duration": 816}, {"note": 64, "velocity": 82, "duration": 147}, {"note": 0, "velocity": 0, "duration": 93}, {"note": 64, "velocity": 80, "duration": 151}, {"note": 0, "velocity": 0, "duration": 89}, {"note": 64, "velocity": 84, "duration": 135}, {"note": 0, "velocity": 0, "duration": 105}, {"note": 62, "velocity": 82, "duration": 150}, {"note": 0, "velocity": 0, "duration": 90}, {"note": 64, "velocity": 85, "duration": 218}, {"note": 67, "velocity": 80, "duration": 441}, {"note": 71, "velocity": 72, "duration": 372}, {"note": 0, "velocity": 0, "duration": 108}, {"note": 71, "velocity": 81, "duration": 169}, {"note": 0, "velocity": 0, "duration": 71}, {"note": 71, "velocity": 78, "duration": 145}, {"note": 0, "velocity": 0, "duration": 95}, {"note": 69, "velocity": 84, "duration": 198}, {"note": 71, "velocity": 83, "duration": 174}, {"note": 0, "velocity": 0, "duration": 66}, {"note": 62, "velocity": 78, "duration": 442}, {"note": 0, "velocity": 0, "duration": 278}, {"note": 64, "velocity": 84, "duration": 221}, {"note": 62, "velocity": 85, "duration": 136}, {"note": 0, "velocity": 0, "duration": 104}, {"note": 64, "velocity": 80, "duration": 141}, {"note": 0, "velocity": 0, "duration": 99}, {"note": 67, "velocity": 79, "duration": 156}, {"note": 0, "velocity": 0, "duration": 84}, {"note": 69, "velocity": 82, "duration": 155}, {"note": 0, "velocity": 0, "duration": 85}, {"note": 71, "velocity": 82, "duration": 187}, {"note": 69, "velocity": 79, "duration": 160}, {"note": 0, "velocity": 0, "duration": 80}, {"note": 67, "velocity": 80, "duration": 165}, {"note": 0, "velocity": 0, "duration": 75}, {"note": 69, "velocity": 84, "duration": 1005}, {"note": 0, "velocity": 0, "duration": 435}, {"note": 67, "velocity": 81, "duration": 199}, {"note": 69, "velocity": 80, "duration": 213}, {"note": 71, "velocity": 79, "duration": 155}, {"note": 0, "velocity": 0, "duration": 85}, {"note": 71, "velocity": 77, "duration": 127}, {"note": 0, "velocity": 0, "duration": 113}, {"note": 71, "velocity": 82, "duration": 194}, {"note": 69, "velocity": 82, "duration": 205}, {"note": 71, "velocity": 81, "duration": 210}, {"note": 74, "velocity": 80, "duration": 165}, {"note": 0, "velocity": 0, "duration": 75}, {"note": 76, "velocity": 79, "duration": 150}, {"note": 0, "velocity": 0, "duration": 90}, {"note": 71, "velocity": 76, "duration": 376}, {"note": 0, "velocity": 0, "duration": 104}, {"note": 71, "velocity": 82, "duration": 160}, {"note": 0, "velocity": 0, "duration": 80}, {"note": 69, "velocity": 80, "duration": 136}, {"note": 0, "velocity": 0, "duration": 104}, {"note": 67, "velocity": 80, "duration": 150}, {"note": 0, "velocity": 0, "duration": 90}, {"note": 69, "velocity": 80, "duration": 159}, {"note": 0, "velocity": 0, "duration": 81}, {"note": 71, "velocity": 85, "duration": 240}, {"note": 74, "velocity": 79, "duration": 480}, {"note": 69, "velocity": 79, "duration": 480}, {"note": 71, "velocity": 80, "duration": 378}, {"note": 0, "velocity": 0, "duration": 102}, {"note": 69, "velocity": 80, "duration": 396}, {"note": 0, "velocity": 0, "duration": 84}, {"note": 67, "velocity": 81, "duration": 233}, {"note": 64, "velocity": 82, "duration": 1344}, {"note": 0, "velocity": 0, "duration": 816}, {"note": 64, "velocity": 82, "duration": 147}, {"note": 0, "velocity": 0, "duration": 93}, {"note": 64, "velocity": 80, "duration": 151}, {"note": 0, "velocity": 0, "duration": 89}, {"note": 64, "velocity": 84, "duration": 135}, {"note": 0, "velocity": 0, "duration": 105}, {"note": 62, "velocity": 82, "duration": 150}, {"note": 0, "velocity": 0, "duration": 90}, {"note": 64, "velocity": 85, "duration": 218}, {"note": 67, "velocity": 80, "duration": 441}, {"note": 71, "velocity": 72, "duration": 372}, {"note": 0, "velocity": 0, "duration": 108}, {"note": 71, "velocity": 81, "duration": 169}, {"note": 0, "velocity": 0, "duration": 71}, {"note": 71, "velocity": 78, "duration": 145}, {"note": 0, "velocity": 0, "duration": 95}, {"note": 69, "velocity": 84, "duration": 198}, {"note": 71, "velocity": 83, "duration": 174}, {"note": 0, "velocity": 0, "duration": 66}, {"note": 62, "velocity": 78, "duration": 240}, {"note": 62, "velocity": 78, "duration": 240}, {"note": 62, "velocity": 78, "duration": 240}, {"note": 71, "velocity": 84, "duration": 480}, {"note": 69, "velocity": 79, "duration": 1200}, {"note": 0, "velocity": 0, "duration": 1200}, {"note": 64, "velocity": 78, "duration": 434}, {"note": 62, "velocity": 84, "duration": 476}, {"note": 67, "velocity": 64, "duration": 1867}, {"note": 0, "velocity": 0, "duration": 13013}, {"note": 59, "velocity": 84, "duration": 243}, {"note": 57, "velocity": 79, "duration": 247}, {"note": 59, "velocity": 84, "duration": 515}, {"note": 62, "velocity": 94, "duration": 526}, {"note": 64, "velocity": 80, "duration": 534}, {"note": 59, "velocity": 77, "duration": 268}, {"note": 62, "velocity": 85, "duration": 1223}, {"note": 0, "velocity": 0, "duration": 217}, {"note": 62, "velocity": 79, "duration": 219}, {"note": 62, "velocity": 85, "duration": 209}, {"note": 64, "velocity": 78, "duration": 244}, {"note": 67, "velocity": 79, "duration": 349}, {"note": 0, "velocity": 0, "duration": 131}, {"note": 67, "velocity": 80, "duration": 383}, {"note": 0, "velocity": 0, "duration": 97}, {"note": 67, "velocity": 78, "duration": 226}, {"note": 69, "velocity": 81, "duration": 460}, {"note": 71, "velocity": 80, "duration": 218}, {"note": 62, "velocity": 92, "duration": 409}, {"note": 0, "velocity": 0, "duration": 71}, {"note": 62, "velocity": 82, "duration": 860}, {"note": 0, "velocity": 0, "duration": 100}, {"note": 64, "velocity": 79, "duration": 240}, {"note": 62, "velocity": 85, "duration": 165}, {"note": 0, "velocity": 0, "duration": 75}, {"note": 64, "velocity": 80, "duration": 227}, {"note": 64, "velocity": 80, "duration": 165}, {"note": 0, "velocity": 0, "duration": 75}, {"note": 64, "velocity": 85, "duration": 189}, {"note": 62, "velocity": 82, "duration": 126}, {"note": 0, "velocity": 0, "duration": 114}, {"note": 64, "velocity": 80, "duration": 240}, {"note": 71, "velocity": 82, "duration": 351}, {"note": 0, "velocity": 0, "duration": 129}, {"note": 69, "velocity": 80, "duration": 432}, {"note": 67, "velocity": 78, "duration": 199}, {"note": 69, "velocity": 82, "duration": 164}, {"note": 0, "velocity": 0, "duration": 76}, {"note": 71, "velocity": 79, "duration": 189}, {"note": 69, "velocity": 81, "duration": 222}, {"note": 67, "velocity": 84, "duration": 514}, {"note": 0, "velocity": 0, "duration": 206}, {"note": 64, "velocity": 85, "duration": 381}, {"note": 0, "velocity": 0, "duration": 99}, {"note": 67, "velocity": 82, "duration": 338}, {"note": 0, "velocity": 0, "duration": 142}, {"note": 67, "velocity": 82, "duration": 194}, {"note": 64, "velocity": 83, "duration": 429}, {"note": 69, "velocity": 79, "duration": 1372}, {"note": 0, "velocity": 0, "duration": 308}, {"note": 71, "velocity": 80, "duration": 159}, {"note": 0, "velocity": 0, "duration": 81}, {"note": 69, "velocity": 81, "duration": 147}, {"note": 0, "velocity": 0, "duration": 93}, {"note": 71, "velocity": 84, "duration": 355}, {"note": 0, "velocity": 0, "duration": 125}, {"note": 71, "velocity": 83, "duration": 306}, {"note": 0, "velocity": 0, "duration": 174}, {"note": 71, "velocity": 83, "duration": 381}, {"note": 0, "velocity": 0, "duration": 99}, {"note": 64, "velocity": 82, "duration": 204}, {"note": 67, "velocity": 79, "duration": 1421}, {"note": 0, "velocity": 0, "duration": 259}, {"note": 64, "velocity": 80, "duration": 192}, {"note": 62, "velocity": 85, "duration": 223}, {"note": 71, "velocity": 81, "duration": 158}, {"note": 0, "velocity": 0, "duration": 82}, {"note": 71, "velocity": 81, "duration": 319}, {"note": 0, "velocity": 0, "duration": 161}, {"note": 71, "velocity": 81, "duration": 628}, {"note": 0, "velocity": 0, "duration": 92}, {"note": 64, "velocity": 83, "duration": 205}, {"note": 69, "velocity": 79, "duration": 720}, {"note": 67, "velocity": 79, "duration": 960}, {"note": 64, "velocity": 82, "duration": 165}, {"note": 0, "velocity": 0, "duration": 75}, {"note": 67, "velocity": 80, "duration": 162}, {"note": 0, "velocity": 0, "duration": 78}, {"note": 69, "velocity": 79, "duration": 350}, {"note": 0, "velocity": 0, "duration": 130}, {"note": 69, "velocity": 79, "duration": 374}, {"note": 0, "velocity": 0, "duration": 106}, {"note": 69, "velocity": 79, "duration": 337}, {"note": 0, "velocity": 0, "duration": 143}, {"note": 71, "velocity": 82, "duration": 160}, {"note": 0, "velocity": 0, "duration": 80}, {"note": 64, "velocity": 82, "duration": 1306}, {"note": 0, "velocity": 0, "duration": 134}, {"note": 62, "velocity": 80, "duration": 146}, {"note": 0, "velocity": 0, "duration": 94}, {"note": 64, "velocity": 82, "duration": 145}, {"note": 0, "velocity": 0, "duration": 95}, {"note": 67, "velocity": 80, "duration": 170}, {"note": 0, "velocity": 0, "duration": 70}, {"note": 69, "velocity": 80, "duration": 620}, {"note": 0, "velocity": 0, "duration": 100}, {"note": 71, "velocity": 79, "duration": 646}, {"note": 0, "velocity": 0, "duration": 74}, {"note": 69, "velocity": 79, "duration": 480}, {"note": 67, "velocity": 87, "duration": 1084}, {"note": 0, "velocity": 0, "duration": 2276}, {"note": 67, "velocity": 81, "duration": 199}, {"note": 69, "velocity": 80, "duration": 213}, {"note": 71, "velocity": 79, "duration": 155}, {"note": 0, "velocity": 0, "duration": 85}, {"note": 71, "velocity": 77, "duration": 127}, {"note": 0, "velocity": 0, "duration": 113}, {"note": 71, "velocity": 82, "duration": 194}, {"note": 69, "velocity": 82, "duration": 205}, {"note": 71, "velocity": 81, "duration": 210}, {"note": 74, "velocity": 80, "duration": 165}, {"note": 0, "velocity": 0, "duration": 75}, {"note": 76, "velocity": 79, "duration": 150}, {"note": 0, "velocity": 0, "duration": 90}, {"note": 71, "velocity": 76, "duration": 376}, {"note": 0, "velocity": 0, "duration": 104}, {"note": 71, "velocity": 82, "duration": 160}, {"note": 0, "velocity": 0, "duration": 80}, {"note": 69, "velocity": 80, "duration": 136}, {"note": 0, "velocity": 0, "duration": 104}, {"note": 67, "velocity": 80, "duration": 150}, {"note": 0, "velocity": 0, "duration": 90}, {"note": 69, "velocity": 80, "duration": 159}, {"note": 0, "velocity": 0, "duration": 81}, {"note": 71, "velocity": 85, "duration": 240}, {"note": 74, "velocity": 79, "duration": 480}, {"note": 69, "velocity": 79, "duration": 480}, {"note": 71, "velocity": 80, "duration": 378}, {"note": 0, "velocity": 0, "duration": 102}, {"note": 69, "velocity": 80, "duration": 396}, {"note": 0, "velocity": 0, "duration": 84}, {"note": 67, "velocity": 81, "duration": 233}, {"note": 64, "velocity": 82, "duration": 1344}, {"note": 0, "velocity": 0, "duration": 816}, {"note": 64, "velocity": 82, "duration": 147}, {"note": 0, "velocity": 0, "duration": 93}, {"note": 64, "velocity": 80, "duration": 151}, {"note": 0, "velocity": 0, "duration": 89}, {"note": 64, "velocity": 84, "duration": 135}, {"note": 0, "velocity": 0, "duration": 105}, {"note": 62, "velocity": 82, "duration": 150}, {"note": 0, "velocity": 0, "duration": 90}, {"note": 64, "velocity": 85, "duration": 218}, {"note": 67, "velocity": 80, "duration": 441}, {"note": 71, "velocity": 72, "duration": 372}, {"note": 0, "velocity": 0, "duration": 108}, {"note": 71, "velocity": 81, "duration": 169}, {"note": 0, "velocity": 0, "duration": 71}, {"note": 71, "velocity": 78, "duration": 145}, {"note": 0, "velocity": 0, "duration": 95}, {"note": 69, "velocity": 84, "duration": 198}, {"note": 71, "velocity": 83, "duration": 174}, {"note": 0, "velocity": 0, "duration": 66}, {"note": 62, "velocity": 78, "duration": 442}, {"note": 0, "velocity": 0, "duration": 278}, {"note": 64, "velocity": 84, "duration": 221}, {"note": 62, "velocity": 85, "duration": 136}, {"note": 0, "velocity": 0, "duration": 104}, {"note": 64, "velocity": 80, "duration": 141}, {"note": 0, "velocity": 0, "duration": 99}, {"note": 67, "velocity": 79, "duration": 156}, {"note": 0, "velocity": 0, "duration": 84}, {"note": 69, "velocity": 82, "duration": 155}, {"note": 0, "velocity": 0, "duration": 85}, {"note": 71, "velocity": 82, "duration": 187}, {"note": 69, "velocity": 79, "duration": 160}, {"note": 0, "velocity": 0, "duration": 80}, {"note": 67, "velocity": 80, "duration": 165}, {"note": 0, "velocity": 0, "duration": 75}, {"note": 69, "velocity": 84, "duration": 1005}, {"note": 0, "velocity": 0, "duration": 435}, {"note": 67, "velocity": 81, "duration": 199}, {"note": 69, "velocity": 80, "duration": 213}, {"note": 71, "velocity": 79, "duration": 155}, {"note": 0, "velocity": 0, "duration": 85}, {"note": 71, "velocity": 77, "duration": 127}, {"note": 0, "velocity": 0, "duration": 113}, {"note": 71, "velocity": 82, "duration": 194}, {"note": 69, "velocity": 82, "duration": 205}, {"note": 71, "velocity": 81, "duration": 210}, {"note": 74, "velocity": 80, "duration": 165}, {"note": 0, "velocity": 0, "duration": 75}, {"note": 76, "velocity": 79, "duration": 150}, {"note": 0, "velocity": 0, "duration": 90}, {"note": 71, "velocity": 76, "duration": 376}, {"note": 0, "velocity": 0, "duration": 104}, {"note": 71, "velocity": 82, "duration": 160}, {"note": 0, "velocity": 0, "duration": 80}, {"note": 69, "velocity": 80, "duration": 136}, {"note": 0, "velocity": 0, "duration": 104}, {"note": 67, "velocity": 80, "duration": 150}, {"note": 0, "velocity": 0, "duration": 90}, {"note": 69, "velocity": 80, "duration": 159}, {"note": 0, "velocity": 0, "duration": 81}, {"note": 71, "velocity": 85, "duration": 240}, {"note": 74, "velocity": 79, "duration": 480}, {"note": 69, "velocity": 79, "duration": 480}, {"note": 71, "velocity": 80, "duration": 378}, {"note": 0, "velocity": 0, "duration": 102}, {"note": 69, "velocity": 80, "duration": 396}, {"note": 0, "velocity": 0, "duration": 84}, {"note": 67, "velocity": 81, "duration": 233}, {"note": 64, "velocity": 82, "duration": 1344}, {"note": 0, "velocity": 0, "duration": 816}, {"note": 64, "velocity": 82, "duration": 147}, {"note": 0, "velocity": 0, "duration": 93}, {"note": 64, "velocity": 80, "duration": 151}, {"note": 0, "velocity": 0, "duration": 89}, {"note": 64, "velocity": 84, "duration": 135}, {"note": 0, "velocity": 0, "duration": 105}, {"note": 62, "velocity": 82, "duration": 150}, {"note": 0, "velocity": 0, "duration": 90}, {"note": 64, "velocity": 85, "duration": 218}, {"note": 67, "velocity": 80, "duration": 441}, {"note": 71, "velocity": 72, "duration": 372}, {"note": 0, "velocity": 0, "duration": 108}, {"note": 71, "velocity": 81, "duration": 169}, {"note": 0, "velocity": 0, "duration": 71}, {"note": 71, "velocity": 78, "duration": 145}, {"note": 0, "velocity": 0, "duration": 95}, {"note": 69, "velocity": 84, "duration": 198}, {"note": 71, "velocity": 83, "duration": 174}, {"note": 0, "velocity": 0, "duration": 66}, {"note": 62, "velocity": 78, "duration": 240}, {"note": 62, "velocity": 78, "duration": 240}, {"note": 62, "velocity": 78, "duration": 240}, {"note": 71, "velocity": 84, "duration": 480}, {"note": 69, "velocity": 79, "duration": 1200}, {"note": 0, "velocity": 0, "duration": 1200}, {"note": 64, "velocity": 78, "duration": 434}, {"note": 62, "velocity": 84, "duration": 476}, {"note": 67, "velocity": 64, "duration": 1867}, {"note": 0, "velocity": 0, "duration": 1493}, {"note": 67, "velocity": 81, "duration": 199}, {"note": 69, "velocity": 80, "duration": 213}, {"note": 71, "velocity": 79, "duration": 155}, {"note": 0, "velocity": 0, "duration": 85}, {"note": 71, "velocity": 77, "duration": 127}, {"note": 0, "velocity": 0, "duration": 113}, {"note": 71, "velocity": 82, "duration": 194}, {"note": 69, "velocity": 82, "duration": 205}, {"note": 71, "velocity": 81, "duration": 210}, {"note": 74, "velocity": 80, "duration": 165}, {"note": 0, "velocity": 0, "duration": 75}, {"note": 76, "velocity": 79, "duration": 150}, {"note": 0, "velocity": 0, "duration": 90}, {"note": 71, "velocity": 76, "duration": 376}, {"note": 0, "velocity": 0, "duration": 104}, {"note": 71, "velocity": 82, "duration": 160}, {"note": 0, "velocity": 0, "duration": 80}, {"note": 69, "velocity": 80, "duration": 136}, {"note": 0, "velocity": 0, "duration": 104}, {"note": 67, "velocity": 80, "duration": 150}, {"note": 0, "velocity": 0, "duration": 90}, {"note": 69, "velocity": 80, "duration": 159}, {"note": 0, "velocity": 0, "duration": 81}, {"note": 71, "velocity": 85, "duration": 240}, {"note": 74, "velocity": 79, "duration": 480}, {"note": 69, "velocity": 79, "duration": 480}, {"note": 71, "velocity": 80, "duration": 378}, {"note": 0, "velocity": 0, "duration": 102}, {"note": 69, "velocity": 80, "duration": 396}, {"note": 0, "velocity": 0, "duration": 84}, {"note": 67, "velocity": 81, "duration": 233}, {"note": 64, "velocity": 82, "duration": 1344}, {"note": 0, "velocity": 0, "duration": 816}, {"note": 64, "velocity": 82, "duration": 147}, {"note": 0, "velocity": 0, "duration": 93}, {"note": 64, "velocity": 80, "duration": 151}, {"note": 0, "velocity": 0, "duration": 89}, {"note": 64, "velocity": 84, "duration": 135}, {"note": 0, "velocity": 0, "duration": 105}, {"note": 62, "velocity": 82, "duration": 150}, {"note": 0, "velocity": 0, "duration": 90}, {"note": 64, "velocity": 85, "duration": 218}, {"note": 67, "velocity": 80, "duration": 441}, {"note": 71, "velocity": 72, "duration": 372}, {"note": 0, "velocity": 0, "duration": 108}, {"note": 71, "velocity": 81, "duration": 169}, {"note": 0, "velocity": 0, "duration": 71}, {"note": 71, "velocity": 78, "duration": 145}, {"note": 0, "velocity": 0, "duration": 95}, {"note": 69, "velocity": 84, "duration": 198}, {"note": 71, "velocity": 83, "duration": 174}, {"note": 0, "velocity": 0, "duration": 66}, {"note": 62, "velocity": 78, "duration": 442}, {"note": 0, "velocity": 0, "duration": 278}, {"note": 64, "velocity": 84, "duration": 221}, {"note": 62, "velocity": 85, "duration": 136}, {"note": 0, "velocity": 0, "duration": 104}, {"note": 64, "velocity": 80, "duration": 141}, {"note": 0, "velocity": 0, "duration": 99}, {"note": 67, "velocity": 79, "duration": 156}, {"note": 0, "velocity": 0, "duration": 84}, {"note": 69, "velocity": 82, "duration": 155}, {"note": 0, "velocity": 0, "duration": 85}, {"note": 71, "velocity": 82, "duration": 187}, {"note": 69, "velocity": 79, "duration": 160}, {"note": 0, "velocity": 0, "duration": 80}, {"note": 67, "velocity": 80, "duration": 165}, {"note": 0, "velocity": 0, "duration": 75}, {"note": 69, "velocity": 84, "duration": 1005}, {"note": 0, "velocity": 0, "duration": 435}, {"note": 67, "velocity": 81, "duration": 199}, {"note": 69, "velocity": 80, "duration": 213}, {"note": 71, "velocity": 79, "duration": 155}, {"note": 0, "velocity": 0, "duration": 85}, {"note": 71, "velocity": 77, "duration": 127}, {"note": 0, "velocity": 0, "duration": 113}, {"note": 71, "velocity": 82, "duration": 194}, {"note": 69, "velocity": 82, "duration": 205}, {"note": 71, "velocity": 81, "duration": 210}, {"note": 74, "velocity": 80, "duration": 165}, {"note": 0, "velocity": 0, "duration": 75}, {"note": 76, "velocity": 79, "duration": 150}, {"note": 0, "velocity": 0, "duration": 90}, {"note": 71, "velocity": 76, "duration": 376}, {"note": 0, "velocity": 0, "duration": 104}, {"note": 71, "velocity": 82, "duration": 160}, {"note": 0, "velocity": 0, "duration": 80}, {"note": 69, "velocity": 80, "duration": 136}, {"note": 0, "velocity": 0, "duration": 104}, {"note": 67, "velocity": 80, "duration": 150}, {"note": 0, "velocity": 0, "duration": 90}, {"note": 69, "velocity": 80, "duration": 159}, {"note": 0, "velocity": 0, "duration": 81}, {"note": 71, "velocity": 85, "duration": 240}, {"note": 74, "velocity": 79, "duration": 480}, {"note": 69, "velocity": 79, "duration": 480}, {"note": 71, "velocity": 80, "duration": 378}, {"note": 0, "velocity": 0, "duration": 102}, {"note": 69, "velocity": 80, "duration": 396}, {"note": 0, "velocity": 0, "duration": 84}, {"note": 67, "velocity": 81, "duration": 233}, {"note": 64, "velocity": 82, "duration": 1344}, {"note": 0, "velocity": 0, "duration": 816}, {"note": 64, "velocity": 82, "duration": 147}, {"note": 0, "velocity": 0, "duration": 93}, {"note": 64, "velocity": 80, "duration": 151}, {"note": 0, "velocity": 0, "duration": 89}, {"note": 64, "velocity": 84, "duration": 135}, {"note": 0, "velocity": 0, "duration": 105}, {"note": 62, "velocity": 82, "duration": 150}, {"note": 0, "velocity": 0, "duration": 90}, {"note": 64, "velocity": 85, "duration": 218}, {"note": 67, "velocity": 80, "duration": 441}, {"note": 71, "velocity": 72, "duration": 372}, {"note": 0, "velocity": 0, "duration": 108}, {"note": 71, "velocity": 81, "duration": 169}, {"note": 0, "velocity": 0, "duration": 71}, {"note": 71, "velocity": 78, "duration": 145}, {"note": 0, "velocity": 0, "duration": 95}, {"note": 69, "velocity": 84, "duration": 198}, {"note": 71, "velocity": 83, "duration": 174}, {"note": 0, "velocity": 0, "duration": 66}, {"note": 62, "velocity": 78, "duration": 240}, {"note": 62, "velocity": 78, "duration": 240}, {"note": 62, "velocity": 78, "duration": 240}, {"note": 71, "velocity": 84, "duration": 480}, {"note": 69, "velocity": 79, "duration": 1200}, {"note": 0, "velocity": 0, "duration": 1200}, {"note": 64, "velocity": 78, "duration": 434}, {"note": 62, "velocity": 84, "duration": 476}, {"note": 67, "velocity": 64, "duration": 1867}]]