[[{"note": 69, "velocity": 83, "duration": 193}, {"note": 69, "velocity": 82, "duration": 79}, {"note": 69, "velocity": 82, "duration": 69}, {"note": 69, "velocity": 84, "duration": 184}, {"note": 71, "velocity": 82, "duration": 268}, {"note": 72, "velocity": 82, "duration": 197}, {"note": 72, "velocity": 75, "duration": 70}, {"note": 72, "velocity": 81, "duration": 68}, {"note": 72, "velocity": 83, "duration": 220}, {"note": 74, "velocity": 85, "duration": 246}, {"note": 76, "velocity": 82, "duration": 182}, {"note": 76, "velocity": 84, "duration": 132}, {"note": 74, "velocity": 87, "duration": 116}, {"note": 72, "velocity": 78, "duration": 283}, {"note": 69, "velocity": 80, "duration": 230}, {"note": 71, "velocity": 83, "duration": 880}, {"note": 0, "velocity": 0, "duration": 80}, {"note": 74, "velocity": 92, "duration": 181}, {"note": 74, "velocity": 86, "duration": 68}, {"note": 74, "velocity": 87, "duration": 63}, {"note": 74, "velocity": 90, "duration": 209}, {"note": 76, "velocity": 83, "duration": 275}, {"note": 77, "velocity": 82, "duration": 191}, {"note": 77, "velocity": 77, "duration": 77}, {"note": 77, "velocity": 79, "duration": 71}, {"note": 77, "velocity": 82, "duration": 243}, {"note": 79, "velocity": 82, "duration": 235}, {"note": 81, "velocity": 82, "duration": 188}, {"note": 81, "velocity": 82, "duration": 128}, {"note": 79, "velocity": 76, "duration": 138}, {"note": 77, "velocity": 82, "duration": 240}, {"note": 77, "velocity": 85, "duration": 251}, {"note": 76, "velocity": 85, "duration": 600}, {"note": 0, "velocity": 0, "duration": 120}, {"note": 76, "velocity": 85, "duration": 196}, {"note": 74, "velocity": 85, "duration": 324}, {"note": 74, "velocity": 87, "duration": 68}, {"note": 74, "velocity": 85, "duration": 216}, {"note": 72, "velocity": 82, "duration": 231}, {"note": 74, "velocity": 84, "duration": 610}, {"note": 0, "velocity": 0, "duration": 350}, {"note": 72, "velocity": 83, "duration": 299}, {"note": 0, "velocity": 0, "duration": 61}, {"note": 72, "velocity": 83, "duration": 70}, {"note": 72, "velocity": 83, "duration": 226}, {"note": 71, "velocity": 83, "duration": 257}, {"note": 69, "velocity": 82, "duration": 646}, {"note": 0, "velocity": 0, "duration": 74}, {"note": 76, "velocity": 84, "duration": 193}, {"note": 74, "velocity": 83, "duration": 290}, {"note": 0, "velocity": 0, "duration": 70}, {"note": 74, "velocity": 83, "duration": 79}, {"note": 74, "velocity": 85, "duration": 181}, {"note": 76, "velocity": 84, "duration": 184}, {"note": 71, "velocity": 82, "duration": 880}, {"note": 0, "velocity": 0, "duration": 80}, {"note": 71, "velocity": 80, "duration": 393}, {"note": 64, "velocity": 81, "duration": 140}, {"note": 72, "velocity": 79, "duration": 255}, {"note": 71, "velocity": 81, "duration": 232}, {"note": 69, "velocity": 82, "duration": 912}, {"note": 0, "velocity": 0, "duration": 1008}, {"note": 69, "velocity": 83, "duration": 193}, {"note": 69, "velocity": 82, "duration": 79}, {"note": 69, "velocity": 82, "duration": 69}, {"note": 69, "velocity": 84, "duration": 184}, {"note": 71, "velocity": 82, "duration": 268}, {"note": 72, "velocity": 82, "duration": 197}, {"note": 72, "velocity": 75, "duration": 70}, {"note": 72, "velocity": 81, "duration": 68}, {"note": 72, "velocity": 83, "duration": 220}, {"note": 74, "velocity": 85, "duration": 246}, {"note": 76, "velocity": 82, "duration": 182}, {"note": 76, "velocity": 84, "duration": 132}, {"note": 74, "velocity": 87, "duration": 116}, {"note": 72, "velocity": 78, "duration": 283}, {"note": 69, "velocity": 80, "duration": 230}, {"note": 71, "velocity": 83, "duration": 880}, {"note": 0, "velocity": 0, "duration": 80}, {"note": 74, "velocity": 92, "duration": 181}, {"note": 74, "velocity": 86, "duration": 68}, {"note": 74, "velocity": 87, "duration": 63}, {"note": 74, "velocity": 90, "duration": 209}, {"note": 76, "velocity": 83, "duration": 275}, {"note": 77, "velocity": 82, "duration": 191}, {"note": 77, "velocity": 77, "duration": 77}, {"note": 77, "velocity": 79, "duration": 71}, {"note": 77, "velocity": 82, "duration": 243}, {"note": 79, "velocity": 82, "duration": 235}, {"note": 81, "velocity": 82, "duration": 188}, {"note": 81, "velocity": 82, "duration": 128}, {"note": 79, "velocity": 76, "duration": 138}, {"note": 77, "velocity": 82, "duration": 240}, {"note": 77, "velocity": 85, "duration": 251}, {"note": 76, "velocity": 85, "duration": 600}, {"note": 0, "velocity": 0, "duration": 120}, {"note": 76, "velocity": 85, "duration": 196}, {"note": 74, "velocity": 85, "duration": 324}, {"note": 74, "velocity": 87, "duration": 68}, {"note": 74, "velocity": 85, "duration": 216}, {"note": 72, "velocity": 82, "duration": 231}, {"note": 74, "velocity": 84, "duration": 610}, {"note": 0, "velocity": 0, "duration": 350}, {"note": 72, "velocity": 83, "duration": 240}, {"note": 72, "velocity": 82, "duration": 120}, {"note": 72, "velocity": 83, "duration": 70}, {"note": 72, "velocity": 83, "duration": 226}, {"note": 71, "velocity": 83, "duration": 257}, {"note": 69, "velocity": 82, "duration": 646}, {"note": 0, "velocity": 0, "duration": 74}, {"note": 76, "velocity": 84, "duration": 193}, {"note": 74, "velocity": 83, "duration": 290}, {"note": 0, "velocity": 0, "duration": 70}, {"note": 74, "velocity": 83, "duration": 79}, {"note": 74, "velocity": 85, "duration": 181}, {"note": 76, "velocity": 84, "duration": 184}, {"note": 71, "velocity": 82, "duration": 880}, {"note": 0, "velocity": 0, "duration": 80}, {"note": 71, "velocity": 80, "duration": 240}, {"note": 64, "velocity": 81, "duration": 260}, {"note": 72, "velocity": 79, "duration": 255}, {"note": 71, "velocity": 81, "duration": 232}, {"note": 69, "velocity": 82, "duration": 912}, {"note": 0, "velocity": 0, "duration": 1008}, {"note": 77, "velocity": 84, "duration": 393}, {"note": 0, "velocity": 0, "duration": 87}, {"note": 77, "velocity": 83, "duration": 408}, {"note": 0, "velocity": 0, "duration": 72}, {"note": 77, "velocity": 82, "duration": 641}, {"note": 0, "velocity": 0, "duration": 79}, {"note": 77, "velocity": 82, "duration": 120}, {"note": 77, "velocity": 82, "duration": 120}, {"note": 76, "velocity": 85, "duration": 186}, {"note": 76, "velocity": 82, "duration": 131}, {"note": 74, "velocity": 85, "duration": 99}, {"note": 72, "velocity": 83, "duration": 191}, {"note": 74, "velocity": 85, "duration": 183}, {"note": 76, "velocity": 82, "duration": 515}, {"note": 0, "velocity": 0, "duration": 445}, {"note": 77, "velocity": 84, "duration": 387}, {"note": 0, "velocity": 0, "duration": 93}, {"note": 77, "velocity": 82, "duration": 418}, {"note": 0, "velocity": 0, "duration": 62}, {"note": 77, "velocity": 82, "duration": 640}, {"note": 0, "velocity": 0, "duration": 80}, {"note": 77, "velocity": 81, "duration": 92}, {"note": 79, "velocity": 76, "duration": 83}, {"note": 81, "velocity": 83, "duration": 174}, {"note": 0, "velocity": 0, "duration": 66}, {"note": 81, "velocity": 83, "duration": 123}, {"note": 79, "velocity": 82, "duration": 108}, {"note": 77, "velocity": 84, "duration": 194}, {"note": 77, "velocity": 82, "duration": 235}, {"note": 76, "velocity": 83, "duration": 825}, {"note": 0, "velocity": 0, "duration": 135}, {"note": 74, "velocity": 87, "duration": 327}, {"note": 0, "velocity": 0, "duration": 153}, {"note": 74, "velocity": 92, "duration": 418}, {"note": 0, "velocity": 0, "duration": 62}, {"note": 74, "velocity": 88, "duration": 678}, {"note": 72, "velocity": 85, "duration": 63}, {"note": 74, "velocity": 92, "duration": 99}, {"note": 76, "velocity": 83, "duration": 175}, {"note": 0, "velocity": 0, "duration": 65}, {"note": 77, "velocity": 83, "duration": 192}, {"note": 76, "velocity": 84, "duration": 171}, {"note": 0, "velocity": 0, "duration": 69}, {"note": 77, "velocity": 79, "duration": 193}, {"note": 76, "velocity": 86, "duration": 172}, {"note": 0, "velocity": 0, "duration": 68}, {"note": 77, "velocity": 84, "duration": 180}, {"note": 76, "velocity": 87, "duration": 169}, {"note": 0, "velocity": 0, "duration": 71}, {"note": 77, "velocity": 82, "duration": 187}, {"note": 76, "velocity": 85, "duration": 914}, {"note": 71, "velocity": 84, "duration": 208}, {"note": 72, "velocity": 81, "duration": 121}, {"note": 76, "velocity": 81, "duration": 99}, {"note": 72, "velocity": 82, "duration": 233}, {"note": 71, "velocity": 83, "duration": 230}, {"note": 69, "velocity": 82, "duration": 1312}, {"note": 0, "velocity": 0, "duration": 12128}, {"note": 69, "velocity": 83, "duration": 193}, {"note": 69, "velocity": 82, "duration": 79}, {"note": 69, "velocity": 82, "duration": 69}, {"note": 69, "velocity": 84, "duration": 184}, {"note": 71, "velocity": 82, "duration": 268}, {"note": 72, "velocity": 82, "duration": 197}, {"note": 72, "velocity": 75, "duration": 70}, {"note": 72, "velocity": 81, "duration": 68}, {"note": 72, "velocity": 83, "duration": 220}, {"note": 74, "velocity": 85, "duration": 246}, {"note": 76, "velocity": 82, "duration": 182}, {"note": 76, "velocity": 84, "duration": 132}, {"note": 74, "velocity": 87, "duration": 116}, {"note": 72, "velocity": 78, "duration": 283}, {"note": 69, "velocity": 80, "duration": 230}, {"note": 71, "velocity": 83, "duration": 880}, {"note": 0, "velocity": 0, "duration": 80}, {"note": 74, "velocity": 92, "duration": 181}, {"note": 74, "velocity": 86, "duration": 68}, {"note": 74, "velocity": 87, "duration": 63}, {"note": 74, "velocity": 90, "duration": 209}, {"note": 76, "velocity": 83, "duration": 275}, {"note": 77, "velocity": 82, "duration": 191}, {"note": 77, "velocity": 77, "duration": 77}, {"note": 77, "velocity": 79, "duration": 71}, {"note": 77, "velocity": 82, "duration": 243}, {"note": 79, "velocity": 82, "duration": 235}, {"note": 81, "velocity": 82, "duration": 188}, {"note": 81, "velocity": 82, "duration": 128}, {"note": 79, "velocity": 76, "duration": 138}, {"note": 77, "velocity": 82, "duration": 240}, {"note": 77, "velocity": 85, "duration": 251}, {"note": 76, "velocity": 85, "duration": 600}, {"note": 0, "velocity": 0, "duration": 120}, {"note": 76, "velocity": 85, "duration": 196}, {"note": 74, "velocity": 85, "duration": 324}, {"note": 74, "velocity": 87, "duration": 68}, {"note": 74, "velocity": 85, "duration": 216}, {"note": 72, "velocity": 82, "duration": 231}, {"note": 74, "velocity": 84, "duration": 610}, {"note": 0, "velocity": 0, "duration": 350}, {"note": 72, "velocity": 83, "duration": 299}, {"note": 0, "velocity": 0, "duration": 61}, {"note": 72, "velocity": 83, "duration": 70}, {"note": 72, "velocity": 83, "duration": 226}, {"note": 71, "velocity": 83, "duration": 257}, {"note": 69, "velocity": 82, "duration": 646}, {"note": 0, "velocity": 0, "duration": 74}, {"note": 76, "velocity": 84, "duration": 193}, {"note": 74, "velocity": 83, "duration": 290}, {"note": 0, "velocity": 0, "duration": 70}, {"note": 74, "velocity": 83, "duration": 79}, {"note": 74, "velocity": 85, "duration": 181}, {"note": 76, "velocity": 84, "duration": 184}, {"note": 71, "velocity": 82, "duration": 880}, {"note": 0, "velocity": 0, "duration": 80}, {"note": 71, "velocity": 80, "duration": 393}, {"note": 64, "velocity": 81, "duration": 140}, {"note": 72, "velocity": 79, "duration": 255}, {"note": 71, "velocity": 81, "duration": 232}, {"note": 69, "velocity": 82, "duration": 912}, {"note": 0, "velocity": 0, "duration": 1008}, {"note": 69, "velocity": 83, "duration": 193}, {"note": 69, "velocity": 82, "duration": 79}, {"note": 69, "velocity": 82, "duration": 69}, {"note": 69, "velocity": 84, "duration": 184}, {"note": 71, "velocity": 82, "duration": 268}, {"note": 72, "velocity": 82, "duration": 197}, {"note": 72, "velocity": 75, "duration": 70}, {"note": 72, "velocity": 81, "duration": 68}, {"note": 72, "velocity": 83, "duration": 220}, {"note": 74, "velocity": 85, "duration": 246}, {"note": 76, "velocity": 82, "duration": 182}, {"note": 76, "velocity": 84, "duration": 132}, {"note": 74, "velocity": 87, "duration": 116}, {"note": 72, "velocity": 78, "duration": 283}, {"note": 69, "velocity": 80, "duration": 230}, {"note": 71, "velocity": 83, "duration": 880}, {"note": 0, "velocity": 0, "duration": 80}, {"note": 74, "velocity": 92, "duration": 181}, {"note": 74, "velocity": 86, "duration": 68}, {"note": 74, "velocity": 87, "duration": 63}, {"note": 74, "velocity": 90, "duration": 209}, {"note": 76, "velocity": 83, "duration": 275}, {"note": 77, "velocity": 82, "duration": 191}, {"note": 77, "velocity": 77, "duration": 77}, {"note": 77, "velocity": 79, "duration": 71}, {"note": 77, "velocity": 82, "duration": 243}, {"note": 79, "velocity": 82, "duration": 235}, {"note": 81, "velocity": 82, "duration": 188}, {"note": 81, "velocity": 82, "duration": 128}, {"note": 79, "velocity": 76, "duration": 138}, {"note": 77, "velocity": 82, "duration": 240}, {"note": 77, "velocity": 85, "duration": 251}, {"note": 76, "velocity": 85, "duration": 600}, {"note": 0, "velocity": 0, "duration": 120}, {"note": 76, "velocity": 85, "duration": 196}, {"note": 74, "velocity": 85, "duration": 324}, {"note": 74, "velocity": 87, "duration": 68}, {"note": 74, "velocity": 85, "duration": 216}, {"note": 72, "velocity": 82, "duration": 231}, {"note": 74, "velocity": 84, "duration": 610}, {"note": 0, "velocity": 0, "duration": 350}, {"note": 72, "velocity": 83, "duration": 240}, {"note": 72, "velocity": 82, "duration": 120}, {"note": 72, "velocity": 83, "duration": 70}, {"note": 72, "velocity": 83, "duration": 226}, {"note": 71, "velocity": 83, "duration": 257}, {"note": 69, "velocity": 82, "duration": 646}, {"note": 0, "velocity": 0, "duration": 74}, {"note": 76, "velocity": 84, "duration": 193}, {"note": 74, "velocity": 83, "duration": 290}, {"note": 0, "velocity": 0, "duration": 70}, {"note": 74, "velocity": 83, "duration": 79}, {"note": 74, "velocity": 85, "duration": 181}, {"note": 76, "velocity": 84, "duration": 184}, {"note": 71, "velocity": 82, "duration": 880}, {"note": 0, "velocity": 0, "duration": 80}, {"note": 71, "velocity": 80, "duration": 240}, {"note": 64, "velocity": 81, "duration": 260}, {"note": 72, "velocity": 79, "duration": 255}, {"note": 71, "velocity": 81, "duration": 232}, {"note": 69, "velocity": 82, "duration": 912}, {"note": 0, "velocity": 0, "duration": 1008}, {"note": 77, "velocity": 84, "duration": 393}, {"note": 0, "velocity": 0, "duration": 87}, {"note": 77, "velocity": 83, "duration": 408}, {"note": 0, "velocity": 0, "duration": 72}, {"note": 77, "velocity": 82, "duration": 641}, {"note": 0, "velocity": 0, "duration": 79}, {"note": 77, "velocity": 82, "duration": 120}, {"note": 77, "velocity": 82, "duration": 120}, {"note": 76, "velocity": 85, "duration": 186}, {"note": 76, "velocity": 82, "duration": 131}, {"note": 74, "velocity": 85, "duration": 99}, {"note": 72, "velocity": 83, "duration": 191}, {"note": 74, "velocity": 85, "duration": 183}, {"note": 76, "velocity": 82, "duration": 515}, {"note": 0, "velocity": 0, "duration": 445}, {"note": 77, "velocity": 84, "duration": 387}, {"note": 0, "velocity": 0, "duration": 93}, {"note": 77, "velocity": 82, "duration": 418}, {"note": 0, "velocity": 0, "duration": 62}, {"note": 77, "velocity": 82, "duration": 640}, {"note": 0, "velocity": 0, "duration": 80}, {"note": 77, "velocity": 81, "duration": 92}, {"note": 79, "velocity": 76, "duration": 83}, {"note": 81, "velocity": 83, "duration": 174}, {"note": 0, "velocity": 0, "duration": 66}, {"note": 81, "velocity": 83, "duration": 123}, {"note": 79, "velocity": 82, "duration": 108}, {"note": 77, "velocity": 84, "duration": 194}, {"note": 77, "velocity": 82, "duration": 235}, {"note": 76, "velocity": 83, "duration": 825}, {"note": 0, "velocity": 0, "duration": 135}, {"note": 74, "velocity": 87, "duration": 327}, {"note": 0, "velocity": 0, "duration": 153}, {"note": 74, "velocity": 92, "duration": 418}, {"note": 0, "velocity": 0, "duration": 62}, {"note": 74, "velocity": 88, "duration": 678}, {"note": 72, "velocity": 85, "duration": 63}, {"note": 74, "velocity": 92, "duration": 99}, {"note": 76, "velocity": 83, "duration": 175}, {"note": 0, "velocity": 0, "duration": 65}, {"note": 77, "velocity": 83, "duration": 192}, {"note": 76, "velocity": 84, "duration": 171}, {"note": 0, "velocity": 0, "duration": 69}, {"note": 77, "velocity": 79, "duration": 193}, {"note": 76, "velocity": 86, "duration": 172}, {"note": 0, "velocity": 0, "duration": 68}, {"note": 77, "velocity": 84, "duration": 180}, {"note": 76, "velocity": 87, "duration": 169}, {"note": 0, "velocity": 0, "duration": 71}, {"note": 77, "velocity": 82, "duration": 187}, {"note": 76, "velocity": 85, "duration": 914}, {"note": 71, "velocity": 84, "duration": 208}, {"note": 72, "velocity": 81, "duration": 121}, {"note": 76, "velocity": 81, "duration": 99}, {"note": 72, "velocity": 82, "duration": 233}, {"note": 71, "velocity": 83, "duration": 230}, {"note": 69, "velocity": 82, "duration": 1312}, {"note": 0, "velocity": 0, "duration": 608}, {"note": 77, "velocity": 84, "duration": 393}, {"note": 0, "velocity": 0, "duration": 87}, {"note": 77, "velocity": 83, "duration": 408}, {"note": 0, "velocity": 0, "duration": 72}, {"note": 77, "velocity": 82, "duration": 641}, {"note": 0, "velocity": 0, "duration": 79}, {"note": 77, "velocity": 82, "duration": 120}, {"note": 77, "velocity": 82, "duration": 120}, {"note": 76, "velocity": 85, "duration": 186}, {"note": 76, "velocity": 82, "duration": 131}, {"note": 74, "velocity": 85, "duration": 99}, {"note": 72, "velocity": 83, "duration": 191}, {"note": 74, "velocity": 85, "duration": 183}, {"note": 76, "velocity": 82, "duration": 515}, {"note": 0, "velocity": 0, "duration": 445}, {"note": 77, "velocity": 84, "duration": 387}, {"note": 0, "velocity": 0, "duration": 93}, {"note": 77, "velocity": 82, "duration": 418}, {"note": 0, "velocity": 0, "duration": 62}, {"note": 77, "velocity": 82, "duration": 640}, {"note": 0, "velocity": 0, "duration": 80}, {"note": 77, "velocity": 81, "duration": 92}, {"note": 79, "velocity": 76, "duration": 83}, {"note": 81, "velocity": 83, "duration": 174}, {"note": 0, "velocity": 0, "duration": 66}, {"note": 81, "velocity": 83, "duration": 123}, {"note": 79, "velocity": 82, "duration": 108}, {"note": 77, "velocity": 84, "duration": 194}, {"note": 77, "velocity": 82, "duration": 235}, {"note": 76, "velocity": 83, "duration": 825}, {"note": 0, "velocity": 0, "duration": 135}, {"note": 74, "velocity": 87, "duration": 327}, {"note": 0, "velocity": 0, "duration": 153}, {"note": 74, "velocity": 92, "duration": 418}, {"note": 0, "velocity": 0, "duration": 62}, {"note": 74, "velocity": 88, "duration": 678}, {"note": 72, "velocity": 85, "duration": 63}, {"note": 74, "velocity": 92, "duration": 99}, {"note": 76, "velocity": 83, "duration": 175}, {"note": 0, "velocity": 0, "duration": 65}, {"note": 77, "velocity": 83, "duration": 192}, {"note": 76, "velocity": 84, "duration": 171}, {"note": 0, "velocity": 0, "duration": 69}, {"note": 77, "velocity": 79, "duration": 193}, {"note": 76, "velocity": 86, "duration": 172}, {"note": 0, "velocity": 0, "duration": 68}, {"note": 77, "velocity": 84, "duration": 180}, {"note": 76, "velocity": 87, "duration": 169}, {"note": 0, "velocity": 0, "duration": 71}, {"note": 77, "velocity": 82, "duration": 187}, {"note": 76, "velocity": 85, "duration": 914}, {"note": 71, "velocity": 84, "duration": 208}, {"note": 72, "velocity": 81, "duration": 121}, {"note": 76, "velocity": 81, "duration": 99}, {"note": 72, "velocity": 82, "duration": 233}, {"note": 71, "velocity": 83, "duration": 230}, {"note": 69, "velocity": 82, "duration": 1312}]]