[[{"note": 70, "velocity": 56, "duration": 414}, {"note": 0, "velocity": 0, "duration": 66}, {"note": 70, "velocity": 84, "duration": 245}, {"note": 68, "velocity": 80, "duration": 271}, {"note": 66, "velocity": 80, "duration": 279}, {"note": 68, "velocity": 81, "duration": 242}, {"note": 70, "velocity": 80, "duration": 862}, {"note": 0, "velocity": 0, "duration": 98}, {"note": 70, "velocity": 85, "duration": 240}, {"note": 75, "velocity": 87, "duration": 195}, {"note": 73, "velocity": 85, "duration": 430}, {"note": 70, "velocity": 85, "duration": 259}, {"note": 68, "velocity": 80, "duration": 232}, {"note": 66, "velocity": 81, "duration": 263}, {"note": 68, "velocity": 83, "duration": 267}, {"note": 70, "velocity": 81, "duration": 1036}, {"note": 0, "velocity": 0, "duration": 404}, {"note": 68, "velocity": 81, "duration": 422}, {"note": 68, "velocity": 84, "duration": 179}, {"note": 0, "velocity": 0, "duration": 61}, {"note": 70, "velocity": 84, "duration": 192}, {"note": 71, "velocity": 87, "duration": 222}, {"note": 75, "velocity": 89, "duration": 211}, {"note": 70, "velocity": 83, "duration": 960}, {"note": 0, "velocity": 0, "duration": 480}, {"note": 70, "velocity": 86, "duration": 405}, {"note": 0, "velocity": 0, "duration": 75}, {"note": 70, "velocity": 85, "duration": 201}, {"note": 75, "velocity": 87, "duration": 189}, {"note": 77, "velocity": 85, "duration": 173}, {"note": 0, "velocity": 0, "duration": 67}, {"note": 78, "velocity": 77, "duration": 204}, {"note": 77, "velocity": 85, "duration": 1275}, {"note": 0, "velocity": 0, "duration": 165}, {"note": 70, "velocity": 56, "duration": 414}, {"note": 0, "velocity": 0, "duration": 66}, {"note": 70, "velocity": 84, "duration": 245}, {"note": 68, "velocity": 80, "duration": 271}, {"note": 66, "velocity": 80, "duration": 279}, {"note": 68, "velocity": 81, "duration": 242}, {"note": 70, "velocity": 80, "duration": 862}, {"note": 0, "velocity": 0, "duration": 98}, {"note": 70, "velocity": 85, "duration": 240}, {"note": 75, "velocity": 87, "duration": 195}, {"note": 73, "velocity": 85, "duration": 430}, {"note": 70, "velocity": 85, "duration": 259}, {"note": 68, "velocity": 80, "duration": 232}, {"note": 66, "velocity": 81, "duration": 263}, {"note": 68, "velocity": 83, "duration": 267}, {"note": 70, "velocity": 81, "duration": 1036}, {"note": 0, "velocity": 0, "duration": 404}, {"note": 68, "velocity": 81, "duration": 422}, {"note": 68, "velocity": 84, "duration": 179}, {"note": 0, "velocity": 0, "duration": 61}, {"note": 70, "velocity": 84, "duration": 192}, {"note": 71, "velocity": 87, "duration": 222}, {"note": 75, "velocity": 89, "duration": 211}, {"note": 70, "velocity": 83, "duration": 960}, {"note": 0, "velocity": 0, "duration": 480}, {"note": 70, "velocity": 86, "duration": 405}, {"note": 0, "velocity": 0, "duration": 75}, {"note": 70, "velocity": 85, "duration": 201}, {"note": 75, "velocity": 87, "duration": 189}, {"note": 77, "velocity": 85, "duration": 173}, {"note": 0, "velocity": 0, "duration": 67}, {"note": 78, "velocity": 77, "duration": 204}, {"note": 75, "velocity": 85, "duration": 1275}, {"note": 0, "velocity": 0, "duration": 1365}, {"note": 70, "velocity": 89, "duration": 225}, {"note": 78, "velocity": 85, "duration": 422}, {"note": 78, "velocity": 85, "duration": 167}, {"note": 0, "velocity": 0, "duration": 73}, {"note": 80, "velocity": 83, "duration": 173}, {"note": 0, "velocity": 0, "duration": 67}, {"note": 78, "velocity": 86, "duration": 181}, {"note": 70, "velocity": 89, "duration": 194}, {"note": 77, "velocity": 87, "duration": 480}, {"note": 77, "velocity": 81, "duration": 261}, {"note": 78, "velocity": 86, "duration": 272}, {"note": 77, "velocity": 83, "duration": 418}, {"note": 0, "velocity": 0, "duration": 62}, {"note": 75, "velocity": 87, "duration": 393}, {"note": 0, "velocity": 0, "duration": 87}, {"note": 75, "velocity": 89, "duration": 151}, {"note": 0, "velocity": 0, "duration": 89}, {"note": 75, "velocity": 87, "duration": 211}, {"note": 78, "velocity": 83, "duration": 470}, {"note": 75, "velocity": 89, "duration": 1062}, {"note": 0, "velocity": 0, "duration": 378}, {"note": 71, "velocity": 81, "duration": 402}, {"note": 0, "velocity": 0, "duration": 78}, {"note": 71, "velocity": 80, "duration": 178}, {"note": 0, "velocity": 0, "duration": 62}, {"note": 73, "velocity": 85, "duration": 197}, {"note": 71, "velocity": 88, "duration": 412}, {"note": 0, "velocity": 0, "duration": 68}, {"note": 70, "velocity": 86, "duration": 445}, {"note": 75, "velocity": 87, "duration": 464}, {"note": 78, "velocity": 84, "duration": 446}, {"note": 80, "velocity": 85, "duration": 376}, {"note": 0, "velocity": 0, "duration": 104}, {"note": 80, "velocity": 85, "duration": 190}, {"note": 82, "velocity": 86, "duration": 166}, {"note": 0, "velocity": 0, "duration": 74}, {"note": 80, "velocity": 86, "duration": 421}, {"note": 77, "velocity": 88, "duration": 1109}, {"note": 0, "velocity": 0, "duration": 91}, {"note": 70, "velocity": 89, "duration": 225}, {"note": 78, "velocity": 85, "duration": 422}, {"note": 78, "velocity": 85, "duration": 167}, {"note": 0, "velocity": 0, "duration": 73}, {"note": 80, "velocity": 83, "duration": 173}, {"note": 0, "velocity": 0, "duration": 67}, {"note": 78, "velocity": 86, "duration": 480}, {"note": 77, "velocity": 87, "duration": 480}, {"note": 77, "velocity": 81, "duration": 261}, {"note": 78, "velocity": 86, "duration": 272}, {"note": 77, "velocity": 83, "duration": 418}, {"note": 0, "velocity": 0, "duration": 62}, {"note": 75, "velocity": 87, "duration": 393}, {"note": 0, "velocity": 0, "duration": 87}, {"note": 75, "velocity": 89, "duration": 151}, {"note": 0, "velocity": 0, "duration": 89}, {"note": 75, "velocity": 87, "duration": 211}, {"note": 78, "velocity": 83, "duration": 470}, {"note": 75, "velocity": 89, "duration": 1062}, {"note": 0, "velocity": 0, "duration": 378}, {"note": 71, "velocity": 81, "duration": 402}, {"note": 0, "velocity": 0, "duration": 78}, {"note": 71, "velocity": 80, "duration": 178}, {"note": 0, "velocity": 0, "duration": 62}, {"note": 73, "velocity": 85, "duration": 197}, {"note": 71, "velocity": 88, "duration": 412}, {"note": 0, "velocity": 0, "duration": 68}, {"note": 70, "velocity": 86, "duration": 445}, {"note": 75, "velocity": 87, "duration": 464}, {"note": 82, "velocity": 84, "duration": 446}, {"note": 80, "velocity": 85, "duration": 376}, {"note": 0, "velocity": 0, "duration": 104}, {"note": 78, "velocity": 81, "duration": 452}, {"note": 77, "velocity": 82, "duration": 489}, {"note": 75, "velocity": 85, "duration": 1465}, {"note": 0, "velocity": 0, "duration": 24455}, {"note": 70, "velocity": 56, "duration": 414}, {"note": 0, "velocity": 0, "duration": 66}, {"note": 70, "velocity": 84, "duration": 245}, {"note": 68, "velocity": 80, "duration": 271}, {"note": 66, "velocity": 80, "duration": 279}, {"note": 68, "velocity": 81, "duration": 242}, {"note": 70, "velocity": 80, "duration": 862}, {"note": 0, "velocity": 0, "duration": 98}, {"note": 70, "velocity": 85, "duration": 240}, {"note": 75, "velocity": 87, "duration": 195}, {"note": 73, "velocity": 85, "duration": 430}, {"note": 70, "velocity": 85, "duration": 259}, {"note": 68, "velocity": 80, "duration": 232}, {"note": 66, "velocity": 81, "duration": 263}, {"note": 68, "velocity": 83, "duration": 267}, {"note": 70, "velocity": 81, "duration": 1036}, {"note": 0, "velocity": 0, "duration": 404}, {"note": 68, "velocity": 81, "duration": 422}, {"note": 68, "velocity": 84, "duration": 179}, {"note": 0, "velocity": 0, "duration": 61}, {"note": 70, "velocity": 84, "duration": 192}, {"note": 71, "velocity": 87, "duration": 222}, {"note": 75, "velocity": 89, "duration": 211}, {"note": 70, "velocity": 83, "duration": 960}, {"note": 0, "velocity": 0, "duration": 480}, {"note": 70, "velocity": 86, "duration": 405}, {"note": 0, "velocity": 0, "duration": 75}, {"note": 70, "velocity": 85, "duration": 201}, {"note": 75, "velocity": 87, "duration": 189}, {"note": 77, "velocity": 85, "duration": 173}, {"note": 0, "velocity": 0, "duration": 67}, {"note": 78, "velocity": 77, "duration": 204}, {"note": 75, "velocity": 85, "duration": 1275}, {"note": 0, "velocity": 0, "duration": 1365}, {"note": 70, "velocity": 89, "duration": 225}, {"note": 78, "velocity": 85, "duration": 422}, {"note": 78, "velocity": 85, "duration": 167}, {"note": 0, "velocity": 0, "duration": 73}, {"note": 80, "velocity": 83, "duration": 173}, {"note": 0, "velocity": 0, "duration": 67}, {"note": 78, "velocity": 86, "duration": 181}, {"note": 70, "velocity": 89, "duration": 194}, {"note": 77, "velocity": 87, "duration": 480}, {"note": 77, "velocity": 81, "duration": 261}, {"note": 78, "velocity": 86, "duration": 272}, {"note": 77, "velocity": 83, "duration": 418}, {"note": 0, "velocity": 0, "duration": 62}, {"note": 75, "velocity": 87, "duration": 393}, {"note": 0, "velocity": 0, "duration": 87}, {"note": 75, "velocity": 89, "duration": 151}, {"note": 0, "velocity": 0, "duration": 89}, {"note": 75, "velocity": 87, "duration": 211}, {"note": 78, "velocity": 83, "duration": 470}, {"note": 75, "velocity": 89, "duration": 1062}, {"note": 0, "velocity": 0, "duration": 378}, {"note": 71, "velocity": 81, "duration": 402}, {"note": 0, "velocity": 0, "duration": 78}, {"note": 71, "velocity": 80, "duration": 178}, {"note": 0, "velocity": 0, "duration": 62}, {"note": 73, "velocity": 85, "duration": 197}, {"note": 71, "velocity": 88, "duration": 412}, {"note": 0, "velocity": 0, "duration": 68}, {"note": 70, "velocity": 86, "duration": 445}, {"note": 75, "velocity": 87, "duration": 464}, {"note": 78, "velocity": 84, "duration": 446}, {"note": 80, "velocity": 85, "duration": 376}, {"note": 0, "velocity": 0, "duration": 104}, {"note": 80, "velocity": 85, "duration": 190}, {"note": 82, "velocity": 86, "duration": 166}, {"note": 0, "velocity": 0, "duration": 74}, {"note": 80, "velocity": 86, "duration": 421}, {"note": 77, "velocity": 88, "duration": 1109}, {"note": 0, "velocity": 0, "duration": 91}, {"note": 70, "velocity": 89, "duration": 225}, {"note": 78, "velocity": 85, "duration": 422}, {"note": 78, "velocity": 85, "duration": 167}, {"note": 0, "velocity": 0, "duration": 73}, {"note": 80, "velocity": 83, "duration": 173}, {"note": 0, "velocity": 0, "duration": 67}, {"note": 78, "velocity": 86, "duration": 480}, {"note": 77, "velocity": 87, "duration": 480}, {"note": 77, "velocity": 81, "duration": 261}, {"note": 78, "velocity": 86, "duration": 272}, {"note": 77, "velocity": 83, "duration": 418}, {"note": 0, "velocity": 0, "duration": 62}, {"note": 75, "velocity": 87, "duration": 393}, {"note": 0, "velocity": 0, "duration": 87}, {"note": 75, "velocity": 89, "duration": 151}, {"note": 0, "velocity": 0, "duration": 89}, {"note": 75, "velocity": 87, "duration": 211}, {"note": 78, "velocity": 83, "duration": 470}, {"note": 75, "velocity": 89, "duration": 1062}, {"note": 0, "velocity": 0, "duration": 378}, {"note": 71, "velocity": 81, "duration": 402}, {"note": 0, "velocity": 0, "duration": 78}, {"note": 71, "velocity": 80, "duration": 178}, {"note": 0, "velocity": 0, "duration": 62}, {"note": 73, "velocity": 85, "duration": 197}, {"note": 71, "velocity": 88, "duration": 412}, {"note": 0, "velocity": 0, "duration": 68}, {"note": 70, "velocity": 86, "duration": 445}, {"note": 75, "velocity": 87, "duration": 464}, {"note": 82, "velocity": 84, "duration": 446}, {"note": 80, "velocity": 85, "duration": 376}, {"note": 0, "velocity": 0, "duration": 104}, {"note": 78, "velocity": 81, "duration": 452}, {"note": 77, "velocity": 82, "duration": 489}, {"note": 75, "velocity": 85, "duration": 1465}, {"note": 0, "velocity": 0, "duration": 1175}, {"note": 70, "velocity": 89, "duration": 225}, {"note": 78, "velocity": 85, "duration": 422}, {"note": 78, "velocity": 85, "duration": 167}, {"note": 0, "velocity": 0, "duration": 73}, {"note": 80, "velocity": 83, "duration": 173}, {"note": 0, "velocity": 0, "duration": 67}, {"note": 78, "velocity": 86, "duration": 181}, {"note": 70, "velocity": 89, "duration": 194}, {"note": 77, "velocity": 87, "duration": 480}, {"note": 77, "velocity": 81, "duration": 261}, {"note": 78, "velocity": 86, "duration": 272}, {"note": 77, "velocity": 83, "duration": 418}, {"note": 0, "velocity": 0, "duration": 62}, {"note": 75, "velocity": 87, "duration": 393}, {"note": 0, "velocity": 0, "duration": 87}, {"note": 75, "velocity": 89, "duration": 151}, {"note": 0, "velocity": 0, "duration": 89}, {"note": 75, "velocity": 87, "duration": 211}, {"note": 78, "velocity": 83, "duration": 470}, {"note": 75, "velocity": 89, "duration": 1062}, {"note": 0, "velocity": 0, "duration": 378}, {"note": 71, "velocity": 81, "duration": 402}, {"note": 0, "velocity": 0, "duration": 78}, {"note": 71, "velocity": 80, "duration": 178}, {"note": 0, "velocity": 0, "duration": 62}, {"note": 73, "velocity": 85, "duration": 197}, {"note": 71, "velocity": 88, "duration": 412}, {"note": 0, "velocity": 0, "duration": 68}, {"note": 70, "velocity": 86, "duration": 445}, {"note": 75, "velocity": 87, "duration": 464}, {"note": 78, "velocity": 84, "duration": 446}, {"note": 80, "velocity": 85, "duration": 376}, {"note": 0, "velocity": 0, "duration": 104}, {"note": 80, "velocity": 85, "duration": 190}, {"note": 82, "velocity": 86, "duration": 166}, {"note": 0, "velocity": 0, "duration": 74}, {"note": 80, "velocity": 86, "duration": 421}, {"note": 77, "velocity": 88, "duration": 1109}, {"note": 0, "velocity": 0, "duration": 91}, {"note": 70, "velocity": 89, "duration": 225}, {"note": 78, "velocity": 85, "duration": 422}, {"note": 78, "velocity": 85, "duration": 167}, {"note": 0, "velocity": 0, "duration": 73}, {"note": 80, "velocity": 83, "duration": 173}, {"note": 0, "velocity": 0, "duration": 67}, {"note": 78, "velocity": 86, "duration": 480}, {"note": 77, "velocity": 87, "duration": 480}, {"note": 77, "velocity": 81, "duration": 261}, {"note": 78, "velocity": 86, "duration": 272}, {"note": 77, "velocity": 83, "duration": 418}, {"note": 0, "velocity": 0, "duration": 62}, {"note": 75, "velocity": 87, "duration": 393}, {"note": 0, "velocity": 0, "duration": 87}, {"note": 75, "velocity": 89, "duration": 151}, {"note": 0, "velocity": 0, "duration": 89}, {"note": 75, "velocity": 87, "duration": 211}, {"note": 78, "velocity": 83, "duration": 470}, {"note": 75, "velocity": 89, "duration": 1062}, {"note": 0, "velocity": 0, "duration": 378}, {"note": 71, "velocity": 81, "duration": 402}, {"note": 0, "velocity": 0, "duration": 78}, {"note": 71, "velocity": 80, "duration": 178}, {"note": 0, "velocity": 0, "duration": 62}, {"note": 73, "velocity": 85, "duration": 197}, {"note": 71, "velocity": 88, "duration": 412}, {"note": 0, "velocity": 0, "duration": 68}, {"note": 70, "velocity": 86, "duration": 445}, {"note": 75, "velocity": 87, "duration": 464}, {"note": 82, "velocity": 84, "duration": 446}, {"note": 80, "velocity": 85, "duration": 376}, {"note": 0, "velocity": 0, "duration": 104}, {"note": 78, "velocity": 81, "duration": 452}, {"note": 77, "velocity": 82, "duration": 489}, {"note": 75, "velocity": 85, "duration": 960}, {"note": 0, "velocity": 0, "duration": 480}, {"note": 71, "velocity": 81, "duration": 402}, {"note": 0, "velocity": 0, "duration": 78}, {"note": 71, "velocity": 80, "duration": 178}, {"note": 0, "velocity": 0, "duration": 62}, {"note": 73, "velocity": 85, "duration": 197}, {"note": 71, "velocity": 88, "duration": 412}, {"note": 0, "velocity": 0, "duration": 68}, {"note": 70, "velocity": 86, "duration": 445}, {"note": 75, "velocity": 87, "duration": 464}, {"note": 82, "velocity": 84, "duration": 446}, {"note": 80, "velocity": 85, "duration": 376}, {"note": 0, "velocity": 0, "duration": 235}, {"note": 78, "velocity": 81, "duration": 589}, {"note": 77, "velocity": 86, "duration": 1483}, {"note": 75, "velocity": 86, "duration": 2372}]]