[[{"note": 64, "velocity": 84, "duration": 201}, {"note": 67, "velocity": 80, "duration": 199}, {"note": 69, "velocity": 73, "duration": 126}, {"note": 72, "velocity": 78, "duration": 360}, {"note": 67, "velocity": 75, "duration": 378}, {"note": 0, "velocity": 0, "duration": 102}, {"note": 62, "velocity": 78, "duration": 242}, {"note": 64, "velocity": 77, "duration": 256}, {"note": 62, "velocity": 76, "duration": 262}, {"note": 64, "velocity": 77, "duration": 120}, {"note": 62, "velocity": 77, "duration": 120}, {"note": 60, "velocity": 78, "duration": 239}, {"note": 62, "velocity": 77, "duration": 257}, {"note": 64, "velocity": 78, "duration": 774}, {"note": 0, "velocity": 0, "duration": 186}, {"note": 64, "velocity": 84, "duration": 201}, {"note": 67, "velocity": 80, "duration": 199}, {"note": 69, "velocity": 73, "duration": 126}, {"note": 72, "velocity": 78, "duration": 360}, {"note": 67, "velocity": 75, "duration": 378}, {"note": 0, "velocity": 0, "duration": 102}, {"note": 62, "velocity": 78, "duration": 242}, {"note": 64, "velocity": 77, "duration": 256}, {"note": 62, "velocity": 76, "duration": 262}, {"note": 64, "velocity": 77, "duration": 120}, {"note": 62, "velocity": 77, "duration": 120}, {"note": 60, "velocity": 78, "duration": 239}, {"note": 62, "velocity": 77, "duration": 257}, {"note": 60, "velocity": 78, "duration": 774}, {"note": 0, "velocity": 0, "duration": 186}, {"note": 62, "velocity": 78, "duration": 199}, {"note": 64, "velocity": 78, "duration": 190}, {"note": 62, "velocity": 76, "duration": 229}, {"note": 60, "velocity": 80, "duration": 223}, {"note": 62, "velocity": 76, "duration": 456}, {"note": 60, "velocity": 78, "duration": 223}, {"note": 62, "velocity": 75, "duration": 263}, {"note": 64, "velocity": 78, "duration": 247}, {"note": 67, "velocity": 76, "duration": 250}, {"note": 64, "velocity": 78, "duration": 268}, {"note": 62, "velocity": 77, "duration": 184}, {"note": 64, "velocity": 77, "duration": 430}, {"note": 64, "velocity": 80, "duration": 184}, {"note": 67, "velocity": 78, "duration": 181}, {"note": 69, "velocity": 78, "duration": 417}, {"note": 0, "velocity": 0, "duration": 63}, {"note": 69, "velocity": 77, "duration": 207}, {"note": 67, "velocity": 69, "duration": 207}, {"note": 64, "velocity": 81, "duration": 414}, {"note": 0, "velocity": 0, "duration": 66}, {"note": 64, "velocity": 79, "duration": 190}, {"note": 67, "velocity": 73, "duration": 201}, {"note": 62, "velocity": 76, "duration": 139}, {"note": 64, "velocity": 77, "duration": 301}, {"note": 62, "velocity": 71, "duration": 249}, {"note": 60, "velocity": 77, "duration": 256}, {"note": 62, "velocity": 73, "duration": 813}, {"note": 0, "velocity": 0, "duration": 147}, {"note": 64, "velocity": 84, "duration": 201}, {"note": 67, "velocity": 80, "duration": 199}, {"note": 69, "velocity": 73, "duration": 126}, {"note": 72, "velocity": 78, "duration": 360}, {"note": 67, "velocity": 75, "duration": 378}, {"note": 0, "velocity": 0, "duration": 102}, {"note": 62, "velocity": 78, "duration": 242}, {"note": 64, "velocity": 77, "duration": 256}, {"note": 62, "velocity": 76, "duration": 262}, {"note": 64, "velocity": 77, "duration": 120}, {"note": 62, "velocity": 77, "duration": 120}, {"note": 60, "velocity": 78, "duration": 239}, {"note": 62, "velocity": 77, "duration": 257}, {"note": 64, "velocity": 78, "duration": 774}, {"note": 0, "velocity": 0, "duration": 186}, {"note": 64, "velocity": 84, "duration": 201}, {"note": 67, "velocity": 80, "duration": 199}, {"note": 69, "velocity": 73, "duration": 126}, {"note": 72, "velocity": 78, "duration": 360}, {"note": 67, "velocity": 75, "duration": 378}, {"note": 0, "velocity": 0, "duration": 102}, {"note": 62, "velocity": 78, "duration": 242}, {"note": 64, "velocity": 77, "duration": 256}, {"note": 62, "velocity": 76, "duration": 262}, {"note": 64, "velocity": 77, "duration": 120}, {"note": 62, "velocity": 77, "duration": 120}, {"note": 60, "velocity": 78, "duration": 239}, {"note": 62, "velocity": 77, "duration": 257}, {"note": 60, "velocity": 78, "duration": 774}, {"note": 0, "velocity": 0, "duration": 186}, {"note": 62, "velocity": 78, "duration": 199}, {"note": 64, "velocity": 78, "duration": 190}, {"note": 62, "velocity": 76, "duration": 229}, {"note": 60, "velocity": 80, "duration": 223}, {"note": 62, "velocity": 76, "duration": 456}, {"note": 60, "velocity": 78, "duration": 223}, {"note": 62, "velocity": 75, "duration": 263}, {"note": 64, "velocity": 78, "duration": 247}, {"note": 67, "velocity": 76, "duration": 250}, {"note": 64, "velocity": 78, "duration": 268}, {"note": 62, "velocity": 77, "duration": 184}, {"note": 64, "velocity": 77, "duration": 430}, {"note": 64, "velocity": 80, "duration": 184}, {"note": 67, "velocity": 78, "duration": 181}, {"note": 69, "velocity": 78, "duration": 417}, {"note": 0, "velocity": 0, "duration": 63}, {"note": 69, "velocity": 77, "duration": 207}, {"note": 67, "velocity": 69, "duration": 207}, {"note": 64, "velocity": 81, "duration": 120}, {"note": 64, "velocity": 81, "duration": 360}, {"note": 64, "velocity": 79, "duration": 190}, {"note": 67, "velocity": 73, "duration": 201}, {"note": 62, "velocity": 76, "duration": 139}, {"note": 64, "velocity": 77, "duration": 301}, {"note": 62, "velocity": 71, "duration": 249}, {"note": 60, "velocity": 77, "duration": 256}, {"note": 62, "velocity": 73, "duration": 813}, {"note": 0, "velocity": 0, "duration": 147}, {"note": 64, "velocity": 93, "duration": 229}, {"note": 67, "velocity": 79, "duration": 237}, {"note": 69, "velocity": 78, "duration": 265}, {"note": 72, "velocity": 81, "duration": 247}, {"note": 74, "velocity": 80, "duration": 514}, {"note": 76, "velocity": 86, "duration": 508}, {"note": 74, "velocity": 88, "duration": 247}, {"note": 72, "velocity": 78, "duration": 85}, {"note": 72, "velocity": 79, "duration": 993}, {"note": 0, "velocity": 0, "duration": 87}, {"note": 74, "velocity": 82, "duration": 205}, {"note": 72, "velocity": 78, "duration": 200}, {"note": 64, "velocity": 84, "duration": 424}, {"note": 64, "velocity": 81, "duration": 211}, {"note": 67, "velocity": 73, "duration": 214}, {"note": 62, "velocity": 78, "duration": 241}, {"note": 64, "velocity": 76, "duration": 190}, {"note": 64, "velocity": 78, "duration": 251}, {"note": 62, "velocity": 80, "duration": 227}, {"note": 60, "velocity": 78, "duration": 1764}, {"note": 0, "velocity": 0, "duration": 156}, {"note": 64, "velocity": 84, "duration": 201}, {"note": 67, "velocity": 80, "duration": 199}, {"note": 69, "velocity": 73, "duration": 126}, {"note": 72, "velocity": 78, "duration": 360}, {"note": 67, "velocity": 75, "duration": 378}, {"note": 0, "velocity": 0, "duration": 102}, {"note": 62, "velocity": 78, "duration": 242}, {"note": 64, "velocity": 77, "duration": 256}, {"note": 62, "velocity": 76, "duration": 262}, {"note": 64, "velocity": 77, "duration": 120}, {"note": 62, "velocity": 77, "duration": 120}, {"note": 60, "velocity": 78, "duration": 239}, {"note": 62, "velocity": 77, "duration": 257}, {"note": 64, "velocity": 78, "duration": 774}, {"note": 0, "velocity": 0, "duration": 186}, {"note": 64, "velocity": 84, "duration": 201}, {"note": 67, "velocity": 80, "duration": 199}, {"note": 69, "velocity": 73, "duration": 126}, {"note": 72, "velocity": 78, "duration": 360}, {"note": 67, "velocity": 75, "duration": 378}, {"note": 0, "velocity": 0, "duration": 102}, {"note": 62, "velocity": 78, "duration": 242}, {"note": 64, "velocity": 77, "duration": 256}, {"note": 62, "velocity": 76, "duration": 262}, {"note": 64, "velocity": 77, "duration": 120}, {"note": 62, "velocity": 77, "duration": 120}, {"note": 60, "velocity": 78, "duration": 239}, {"note": 62, "velocity": 77, "duration": 257}, {"note": 60, "velocity": 78, "duration": 774}, {"note": 0, "velocity": 0, "duration": 186}, {"note": 62, "velocity": 78, "duration": 199}, {"note": 64, "velocity": 78, "duration": 190}, {"note": 62, "velocity": 76, "duration": 229}, {"note": 60, "velocity": 80, "duration": 223}, {"note": 62, "velocity": 76, "duration": 456}, {"note": 60, "velocity": 78, "duration": 223}, {"note": 62, "velocity": 75, "duration": 263}, {"note": 64, "velocity": 78, "duration": 247}, {"note": 67, "velocity": 76, "duration": 250}, {"note": 64, "velocity": 78, "duration": 268}, {"note": 62, "velocity": 77, "duration": 184}, {"note": 64, "velocity": 77, "duration": 430}, {"note": 64, "velocity": 80, "duration": 184}, {"note": 67, "velocity": 78, "duration": 181}, {"note": 69, "velocity": 78, "duration": 417}, {"note": 0, "velocity": 0, "duration": 63}, {"note": 69, "velocity": 77, "duration": 207}, {"note": 67, "velocity": 69, "duration": 207}, {"note": 64, "velocity": 81, "duration": 414}, {"note": 0, "velocity": 0, "duration": 66}, {"note": 64, "velocity": 79, "duration": 190}, {"note": 67, "velocity": 73, "duration": 201}, {"note": 62, "velocity": 76, "duration": 139}, {"note": 64, "velocity": 77, "duration": 301}, {"note": 62, "velocity": 71, "duration": 249}, {"note": 60, "velocity": 77, "duration": 256}, {"note": 62, "velocity": 73, "duration": 813}, {"note": 0, "velocity": 0, "duration": 147}, {"note": 64, "velocity": 93, "duration": 229}, {"note": 67, "velocity": 79, "duration": 237}, {"note": 69, "velocity": 78, "duration": 265}, {"note": 72, "velocity": 81, "duration": 247}, {"note": 74, "velocity": 80, "duration": 514}, {"note": 76, "velocity": 86, "duration": 508}, {"note": 74, "velocity": 88, "duration": 247}, {"note": 72, "velocity": 78, "duration": 85}, {"note": 72, "velocity": 79, "duration": 993}, {"note": 0, "velocity": 0, "duration": 87}, {"note": 74, "velocity": 82, "duration": 205}, {"note": 72, "velocity": 78, "duration": 200}, {"note": 64, "velocity": 84, "duration": 424}, {"note": 64, "velocity": 81, "duration": 211}, {"note": 67, "velocity": 73, "duration": 214}, {"note": 62, "velocity": 78, "duration": 241}, {"note": 64, "velocity": 76, "duration": 190}, {"note": 64, "velocity": 78, "duration": 251}, {"note": 62, "velocity": 80, "duration": 227}, {"note": 60, "velocity": 78, "duration": 1764}, {"note": 0, "velocity": 0, "duration": 15516}, {"note": 64, "velocity": 84, "duration": 201}, {"note": 67, "velocity": 80, "duration": 199}, {"note": 69, "velocity": 73, "duration": 126}, {"note": 72, "velocity": 78, "duration": 360}, {"note": 67, "velocity": 75, "duration": 378}, {"note": 0, "velocity": 0, "duration": 102}, {"note": 62, "velocity": 78, "duration": 242}, {"note": 64, "velocity": 77, "duration": 256}, {"note": 62, "velocity": 76, "duration": 262}, {"note": 64, "velocity": 77, "duration": 120}, {"note": 62, "velocity": 77, "duration": 120}, {"note": 60, "velocity": 78, "duration": 239}, {"note": 62, "velocity": 77, "duration": 257}, {"note": 64, "velocity": 78, "duration": 774}, {"note": 0, "velocity": 0, "duration": 186}, {"note": 64, "velocity": 84, "duration": 201}, {"note": 67, "velocity": 80, "duration": 199}, {"note": 69, "velocity": 73, "duration": 126}, {"note": 72, "velocity": 78, "duration": 360}, {"note": 67, "velocity": 75, "duration": 378}, {"note": 0, "velocity": 0, "duration": 102}, {"note": 62, "velocity": 78, "duration": 242}, {"note": 64, "velocity": 77, "duration": 256}, {"note": 62, "velocity": 76, "duration": 262}, {"note": 64, "velocity": 77, "duration": 120}, {"note": 62, "velocity": 77, "duration": 120}, {"note": 60, "velocity": 78, "duration": 239}, {"note": 62, "velocity": 77, "duration": 257}, {"note": 60, "velocity": 78, "duration": 774}, {"note": 0, "velocity": 0, "duration": 186}, {"note": 62, "velocity": 78, "duration": 199}, {"note": 64, "velocity": 78, "duration": 190}, {"note": 62, "velocity": 76, "duration": 229}, {"note": 60, "velocity": 80, "duration": 223}, {"note": 62, "velocity": 76, "duration": 456}, {"note": 60, "velocity": 78, "duration": 223}, {"note": 62, "velocity": 75, "duration": 263}, {"note": 64, "velocity": 78, "duration": 247}, {"note": 67, "velocity": 76, "duration": 250}, {"note": 64, "velocity": 78, "duration": 268}, {"note": 62, "velocity": 77, "duration": 184}, {"note": 64, "velocity": 77, "duration": 430}, {"note": 64, "velocity": 80, "duration": 184}, {"note": 67, "velocity": 78, "duration": 181}, {"note": 69, "velocity": 78, "duration": 417}, {"note": 0, "velocity": 0, "duration": 63}, {"note": 69, "velocity": 77, "duration": 207}, {"note": 67, "velocity": 69, "duration": 207}, {"note": 64, "velocity": 81, "duration": 414}, {"note": 0, "velocity": 0, "duration": 66}, {"note": 64, "velocity": 79, "duration": 190}, {"note": 67, "velocity": 73, "duration": 201}, {"note": 62, "velocity": 76, "duration": 139}, {"note": 64, "velocity": 77, "duration": 301}, {"note": 62, "velocity": 71, "duration": 249}, {"note": 60, "velocity": 77, "duration": 256}, {"note": 62, "velocity": 73, "duration": 813}, {"note": 0, "velocity": 0, "duration": 147}, {"note": 64, "velocity": 93, "duration": 229}, {"note": 67, "velocity": 79, "duration": 237}, {"note": 69, "velocity": 78, "duration": 265}, {"note": 72, "velocity": 81, "duration": 247}, {"note": 74, "velocity": 80, "duration": 514}, {"note": 76, "velocity": 86, "duration": 508}, {"note": 74, "velocity": 88, "duration": 247}, {"note": 72, "velocity": 78, "duration": 85}, {"note": 72, "velocity": 79, "duration": 993}, {"note": 0, "velocity": 0, "duration": 87}, {"note": 74, "velocity": 82, "duration": 205}, {"note": 72, "velocity": 78, "duration": 200}, {"note": 64, "velocity": 84, "duration": 424}, {"note": 64, "velocity": 81, "duration": 211}, {"note": 67, "velocity": 73, "duration": 214}, {"note": 62, "velocity": 78, "duration": 241}, {"note": 64, "velocity": 76, "duration": 190}, {"note": 64, "velocity": 78, "duration": 251}, {"note": 62, "velocity": 80, "duration": 227}, {"note": 60, "velocity": 78, "duration": 1764}, {"note": 0, "velocity": 0, "duration": 156}, {"note": 64, "velocity": 93, "duration": 229}, {"note": 67, "velocity": 79, "duration": 237}, {"note": 69, "velocity": 78, "duration": 265}, {"note": 72, "velocity": 81, "duration": 247}, {"note": 74, "velocity": 80, "duration": 514}, {"note": 76, "velocity": 86, "duration": 508}, {"note": 74, "velocity": 88, "duration": 247}, {"note": 72, "velocity": 78, "duration": 85}, {"note": 72, "velocity": 79, "duration": 993}, {"note": 0, "velocity": 0, "duration": 87}, {"note": 74, "velocity": 82, "duration": 205}, {"note": 72, "velocity": 78, "duration": 200}, {"note": 64, "velocity": 84, "duration": 424}, {"note": 64, "velocity": 81, "duration": 211}, {"note": 67, "velocity": 73, "duration": 214}, {"note": 62, "velocity": 78, "duration": 241}, {"note": 64, "velocity": 76, "duration": 190}, {"note": 64, "velocity": 78, "duration": 251}, {"note": 62, "velocity": 80, "duration": 227}, {"note": 60, "velocity": 78, "duration": 1764}]]