[[{"note": 67, "velocity": 80, "duration": 381}, {"note": 0, "velocity": 0, "duration": 99}, {"note": 69, "velocity": 84, "duration": 415}, {"note": 0, "velocity": 0, "duration": 65}, {"note": 71, "velocity": 85, "duration": 235}, {"note": 74, "velocity": 85, "duration": 173}, {"note": 0, "velocity": 0, "duration": 67}, {"note": 74, "velocity": 86, "duration": 125}, {"note": 0, "velocity": 0, "duration": 115}, {"note": 74, "velocity": 89, "duration": 138}, {"note": 0, "velocity": 0, "duration": 102}, {"note": 74, "velocity": 86, "duration": 186}, {"note": 71, "velocity": 85, "duration": 230}, {"note": 69, "velocity": 84, "duration": 227}, {"note": 67, "velocity": 78, "duration": 251}, {"note": 69, "velocity": 85, "duration": 255}, {"note": 71, "velocity": 80, "duration": 276}, {"note": 69, "velocity": 85, "duration": 227}, {"note": 67, "velocity": 80, "duration": 801}, {"note": 0, "velocity": 0, "duration": 399}, {"note": 71, "velocity": 87, "duration": 239}, {"note": 74, "velocity": 85, "duration": 164}, {"note": 0, "velocity": 0, "duration": 76}, {"note": 74, "velocity": 89, "duration": 147}, {"note": 0, "velocity": 0, "duration": 93}, {"note": 74, "velocity": 89, "duration": 160}, {"note": 0, "velocity": 0, "duration": 80}, {"note": 76, "velocity": 83, "duration": 151}, {"note": 0, "velocity": 0, "duration": 89}, {"note": 74, "velocity": 91, "duration": 133}, {"note": 0, "velocity": 0, "duration": 107}, {"note": 71, "velocity": 85, "duration": 186}, {"note": 74, "velocity": 88, "duration": 1162}, {"note": 0, "velocity": 0, "duration": 758}, {"note": 74, "velocity": 86, "duration": 171}, {"note": 0, "velocity": 0, "duration": 69}, {"note": 76, "velocity": 86, "duration": 178}, {"note": 0, "velocity": 0, "duration": 62}, {"note": 79, "velocity": 82, "duration": 138}, {"note": 0, "velocity": 0, "duration": 102}, {"note": 79, "velocity": 83, "duration": 155}, {"note": 0, "velocity": 0, "duration": 85}, {"note": 79, "velocity": 85, "duration": 596}, {"note": 0, "velocity": 0, "duration": 124}, {"note": 76, "velocity": 85, "duration": 347}, {"note": 0, "velocity": 0, "duration": 133}, {"note": 74, "velocity": 87, "duration": 172}, {"note": 0, "velocity": 0, "duration": 68}, {"note": 76, "velocity": 84, "duration": 169}, {"note": 0, "velocity": 0, "duration": 71}, {"note": 74, "velocity": 86, "duration": 222}, {"note": 71, "velocity": 83, "duration": 915}, {"note": 0, "velocity": 0, "duration": 285}, {"note": 69, "velocity": 84, "duration": 146}, {"note": 0, "velocity": 0, "duration": 94}, {"note": 69, "velocity": 80, "duration": 136}, {"note": 0, "velocity": 0, "duration": 104}, {"note": 69, "velocity": 82, "duration": 147}, {"note": 0, "velocity": 0, "duration": 93}, {"note": 67, "velocity": 79, "duration": 208}, {"note": 64, "velocity": 86, "duration": 373}, {"note": 0, "velocity": 0, "duration": 107}, {"note": 71, "velocity": 84, "duration": 412}, {"note": 0, "velocity": 0, "duration": 68}, {"note": 69, "velocity": 81, "duration": 931}, {"note": 67, "velocity": 85, "duration": 396}, {"note": 0, "velocity": 0, "duration": 84}, {"note": 69, "velocity": 86, "duration": 380}, {"note": 0, "velocity": 0, "duration": 100}, {"note": 71, "velocity": 85, "duration": 235}, {"note": 74, "velocity": 85, "duration": 173}, {"note": 0, "velocity": 0, "duration": 67}, {"note": 74, "velocity": 86, "duration": 125}, {"note": 0, "velocity": 0, "duration": 115}, {"note": 74, "velocity": 89, "duration": 138}, {"note": 0, "velocity": 0, "duration": 102}, {"note": 74, "velocity": 86, "duration": 186}, {"note": 71, "velocity": 85, "duration": 230}, {"note": 69, "velocity": 84, "duration": 227}, {"note": 67, "velocity": 78, "duration": 251}, {"note": 69, "velocity": 85, "duration": 255}, {"note": 71, "velocity": 80, "duration": 276}, {"note": 69, "velocity": 85, "duration": 227}, {"note": 67, "velocity": 80, "duration": 801}, {"note": 0, "velocity": 0, "duration": 399}, {"note": 71, "velocity": 87, "duration": 239}, {"note": 74, "velocity": 85, "duration": 164}, {"note": 0, "velocity": 0, "duration": 76}, {"note": 74, "velocity": 89, "duration": 147}, {"note": 0, "velocity": 0, "duration": 93}, {"note": 74, "velocity": 89, "duration": 160}, {"note": 0, "velocity": 0, "duration": 80}, {"note": 76, "velocity": 83, "duration": 151}, {"note": 0, "velocity": 0, "duration": 89}, {"note": 74, "velocity": 91, "duration": 133}, {"note": 0, "velocity": 0, "duration": 107}, {"note": 71, "velocity": 85, "duration": 186}, {"note": 74, "velocity": 88, "duration": 1162}, {"note": 0, "velocity": 0, "duration": 758}, {"note": 74, "velocity": 86, "duration": 171}, {"note": 0, "velocity": 0, "duration": 69}, {"note": 76, "velocity": 86, "duration": 178}, {"note": 0, "velocity": 0, "duration": 62}, {"note": 79, "velocity": 82, "duration": 138}, {"note": 0, "velocity": 0, "duration": 102}, {"note": 79, "velocity": 83, "duration": 155}, {"note": 0, "velocity": 0, "duration": 85}, {"note": 79, "velocity": 85, "duration": 596}, {"note": 0, "velocity": 0, "duration": 124}, {"note": 76, "velocity": 85, "duration": 347}, {"note": 0, "velocity": 0, "duration": 133}, {"note": 74, "velocity": 87, "duration": 172}, {"note": 0, "velocity": 0, "duration": 68}, {"note": 76, "velocity": 84, "duration": 169}, {"note": 0, "velocity": 0, "duration": 71}, {"note": 74, "velocity": 86, "duration": 222}, {"note": 71, "velocity": 83, "duration": 915}, {"note": 0, "velocity": 0, "duration": 285}, {"note": 69, "velocity": 84, "duration": 146}, {"note": 0, "velocity": 0, "duration": 94}, {"note": 69, "velocity": 80, "duration": 136}, {"note": 0, "velocity": 0, "duration": 104}, {"note": 69, "velocity": 82, "duration": 147}, {"note": 0, "velocity": 0, "duration": 93}, {"note": 67, "velocity": 79, "duration": 208}, {"note": 64, "velocity": 86, "duration": 373}, {"note": 0, "velocity": 0, "duration": 107}, {"note": 69, "velocity": 84, "duration": 412}, {"note": 0, "velocity": 0, "duration": 68}, {"note": 67, "velocity": 81, "duration": 931}, {"note": 0, "velocity": 0, "duration": 1229}, {"note": 71, "velocity": 84, "duration": 147}, {"note": 0, "velocity": 0, "duration": 93}, {"note": 71, "velocity": 82, "duration": 151}, {"note": 0, "velocity": 0, "duration": 89}, {"note": 71, "velocity": 84, "duration": 151}, {"note": 0, "velocity": 0, "duration": 89}, {"note": 71, "velocity": 82, "duration": 171}, {"note": 0, "velocity": 0, "duration": 69}, {"note": 74, "velocity": 88, "duration": 155}, {"note": 0, "velocity": 0, "duration": 85}, {"note": 76, "velocity": 86, "duration": 196}, {"note": 78, "velocity": 89, "duration": 478}, {"note": 76, "velocity": 87, "duration": 459}, {"note": 74, "velocity": 86, "duration": 831}, {"note": 0, "velocity": 0, "duration": 129}, {"note": 74, "velocity": 89, "duration": 190}, {"note": 79, "velocity": 84, "duration": 174}, {"note": 0, "velocity": 0, "duration": 66}, {"note": 76, "velocity": 85, "duration": 148}, {"note": 0, "velocity": 0, "duration": 92}, {"note": 76, "velocity": 86, "duration": 157}, {"note": 0, "velocity": 0, "duration": 83}, {"note": 74, "velocity": 88, "duration": 197}, {"note": 76, "velocity": 83, "duration": 448}, {"note": 74, "velocity": 87, "duration": 257}, {"note": 71, "velocity": 81, "duration": 1466}, {"note": 0, "velocity": 0, "duration": 694}, {"note": 64, "velocity": 91, "duration": 252}, {"note": 71, "velocity": 84, "duration": 147}, {"note": 0, "velocity": 0, "duration": 93}, {"note": 71, "velocity": 82, "duration": 151}, {"note": 0, "velocity": 0, "duration": 89}, {"note": 71, "velocity": 84, "duration": 151}, {"note": 0, "velocity": 0, "duration": 89}, {"note": 71, "velocity": 82, "duration": 171}, {"note": 0, "velocity": 0, "duration": 69}, {"note": 74, "velocity": 88, "duration": 155}, {"note": 0, "velocity": 0, "duration": 85}, {"note": 76, "velocity": 86, "duration": 196}, {"note": 78, "velocity": 89, "duration": 478}, {"note": 76, "velocity": 87, "duration": 459}, {"note": 74, "velocity": 86, "duration": 831}, {"note": 0, "velocity": 0, "duration": 369}, {"note": 76, "velocity": 86, "duration": 218}, {"note": 79, "velocity": 80, "duration": 173}, {"note": 0, "velocity": 0, "duration": 67}, {"note": 79, "velocity": 82, "duration": 155}, {"note": 0, "velocity": 0, "duration": 85}, {"note": 79, "velocity": 84, "duration": 154}, {"note": 0, "velocity": 0, "duration": 86}, {"note": 79, "velocity": 84, "duration": 147}, {"note": 0, "velocity": 0, "duration": 93}, {"note": 79, "velocity": 82, "duration": 216}, {"note": 76, "velocity": 85, "duration": 243}, {"note": 81, "velocity": 85, "duration": 1082}, {"note": 0, "velocity": 0, "duration": 118}, {"note": 74, "velocity": 100, "duration": 406}, {"note": 0, "velocity": 0, "duration": 74}, {"note": 76, "velocity": 93, "duration": 473}, {"note": 83, "velocity": 88, "duration": 378}, {"note": 0, "velocity": 0, "duration": 102}, {"note": 83, "velocity": 86, "duration": 395}, {"note": 0, "velocity": 0, "duration": 85}, {"note": 81, "velocity": 84, "duration": 225}, {"note": 79, "velocity": 87, "duration": 161}, {"note": 0, "velocity": 0, "duration": 79}, {"note": 71, "velocity": 86, "duration": 187}, {"note": 74, "velocity": 88, "duration": 1233}, {"note": 0, "velocity": 0, "duration": 447}, {"note": 74, "velocity": 86, "duration": 231}, {"note": 76, "velocity": 85, "duration": 195}, {"note": 81, "velocity": 85, "duration": 207}, {"note": 79, "velocity": 85, "duration": 137}, {"note": 0, "velocity": 0, "duration": 103}, {"note": 79, "velocity": 83, "duration": 146}, {"note": 0, "velocity": 0, "duration": 94}, {"note": 79, "velocity": 82, "duration": 133}, {"note": 0, "velocity": 0, "duration": 107}, {"note": 76, "velocity": 86, "duration": 138}, {"note": 0, "velocity": 0, "duration": 102}, {"note": 74, "velocity": 86, "duration": 157}, {"note": 0, "velocity": 0, "duration": 83}, {"note": 74, "velocity": 86, "duration": 159}, {"note": 0, "velocity": 0, "duration": 81}, {"note": 71, "velocity": 84, "duration": 967}, {"note": 0, "velocity": 0, "duration": 713}, {"note": 74, "velocity": 93, "duration": 176}, {"note": 0, "velocity": 0, "duration": 64}, {"note": 76, "velocity": 86, "duration": 225}, {"note": 79, "velocity": 84, "duration": 245}, {"note": 76, "velocity": 87, "duration": 197}, {"note": 76, "velocity": 86, "duration": 137}, {"note": 0, "velocity": 0, "duration": 103}, {"note": 76, "velocity": 89, "duration": 543}, {"note": 0, "velocity": 0, "duration": 417}, {"note": 74, "velocity": 88, "duration": 177}, {"note": 0, "velocity": 0, "duration": 63}, {"note": 76, "velocity": 88, "duration": 215}, {"note": 74, "velocity": 91, "duration": 192}, {"note": 86, "velocity": 88, "duration": 196}, {"note": 83, "velocity": 87, "duration": 750}, {"note": 74, "velocity": 95, "duration": 191}, {"note": 76, "velocity": 86, "duration": 218}, {"note": 79, "velocity": 84, "duration": 199}, {"note": 79, "velocity": 80, "duration": 128}, {"note": 0, "velocity": 0, "duration": 112}, {"note": 79, "velocity": 84, "duration": 128}, {"note": 0, "velocity": 0, "duration": 112}, {"note": 76, "velocity": 85, "duration": 112}, {"note": 0, "velocity": 0, "duration": 128}, {"note": 83, "velocity": 85, "duration": 169}, {"note": 0, "velocity": 0, "duration": 71}, {"note": 81, "velocity": 80, "duration": 134}, {"note": 0, "velocity": 0, "duration": 106}, {"note": 79, "velocity": 80, "duration": 124}, {"note": 0, "velocity": 0, "duration": 116}, {"note": 81, "velocity": 86, "duration": 1200}, {"note": 74, "velocity": 100, "duration": 406}, {"note": 0, "velocity": 0, "duration": 74}, {"note": 76, "velocity": 93, "duration": 473}, {"note": 83, "velocity": 88, "duration": 378}, {"note": 0, "velocity": 0, "duration": 102}, {"note": 83, "velocity": 86, "duration": 395}, {"note": 0, "velocity": 0, "duration": 85}, {"note": 81, "velocity": 84, "duration": 225}, {"note": 79, "velocity": 87, "duration": 161}, {"note": 0, "velocity": 0, "duration": 79}, {"note": 71, "velocity": 86, "duration": 187}, {"note": 74, "velocity": 88, "duration": 1233}, {"note": 0, "velocity": 0, "duration": 447}, {"note": 74, "velocity": 86, "duration": 231}, {"note": 76, "velocity": 85, "duration": 195}, {"note": 81, "velocity": 85, "duration": 207}, {"note": 79, "velocity": 85, "duration": 137}, {"note": 0, "velocity": 0, "duration": 103}, {"note": 79, "velocity": 83, "duration": 146}, {"note": 0, "velocity": 0, "duration": 94}, {"note": 79, "velocity": 82, "duration": 133}, {"note": 0, "velocity": 0, "duration": 107}, {"note": 76, "velocity": 86, "duration": 138}, {"note": 0, "velocity": 0, "duration": 102}, {"note": 74, "velocity": 86, "duration": 157}, {"note": 0, "velocity": 0, "duration": 83}, {"note": 74, "velocity": 86, "duration": 159}, {"note": 0, "velocity": 0, "duration": 81}, {"note": 71, "velocity": 84, "duration": 967}, {"note": 0, "velocity": 0, "duration": 713}, {"note": 74, "velocity": 93, "duration": 176}, {"note": 0, "velocity": 0, "duration": 64}, {"note": 76, "velocity": 86, "duration": 225}, {"note": 79, "velocity": 84, "duration": 245}, {"note": 76, "velocity": 87, "duration": 197}, {"note": 76, "velocity": 86, "duration": 137}, {"note": 0, "velocity": 0, "duration": 103}, {"note": 76, "velocity": 89, "duration": 543}, {"note": 0, "velocity": 0, "duration": 417}, {"note": 74, "velocity": 88, "duration": 177}, {"note": 0, "velocity": 0, "duration": 63}, {"note": 76, "velocity": 88, "duration": 215}, {"note": 74, "velocity": 91, "duration": 192}, {"note": 86, "velocity": 88, "duration": 196}, {"note": 83, "velocity": 87, "duration": 750}, {"note": 74, "velocity": 95, "duration": 191}, {"note": 76, "velocity": 86, "duration": 218}, {"note": 79, "velocity": 84, "duration": 199}, {"note": 79, "velocity": 80, "duration": 128}, {"note": 0, "velocity": 0, "duration": 112}, {"note": 79, "velocity": 84, "duration": 128}, {"note": 0, "velocity": 0, "duration": 112}, {"note": 76, "velocity": 85, "duration": 112}, {"note": 0, "velocity": 0, "duration": 128}, {"note": 76, "velocity": 85, "duration": 1200}, {"note": 0, "velocity": 0, "duration": 480}, {"note": 74, "velocity": 88, "duration": 213}, {"note": 83, "velocity": 88, "duration": 345}, {"note": 0, "velocity": 0, "duration": 135}, {"note": 81, "velocity": 82, "duration": 208}, {"note": 76, "velocity": 89, "duration": 503}, {"note": 79, "velocity": 85, "duration": 2160}, {"note": 0, "velocity": 0, "duration": 19680}, {"note": 67, "velocity": 80, "duration": 381}, {"note": 0, "velocity": 0, "duration": 99}, {"note": 69, "velocity": 84, "duration": 415}, {"note": 0, "velocity": 0, "duration": 65}, {"note": 71, "velocity": 85, "duration": 235}, {"note": 74, "velocity": 85, "duration": 173}, {"note": 0, "velocity": 0, "duration": 67}, {"note": 74, "velocity": 86, "duration": 125}, {"note": 0, "velocity": 0, "duration": 115}, {"note": 74, "velocity": 89, "duration": 138}, {"note": 0, "velocity": 0, "duration": 102}, {"note": 74, "velocity": 86, "duration": 186}, {"note": 71, "velocity": 85, "duration": 230}, {"note": 69, "velocity": 84, "duration": 227}, {"note": 67, "velocity": 78, "duration": 251}, {"note": 69, "velocity": 85, "duration": 255}, {"note": 71, "velocity": 80, "duration": 276}, {"note": 69, "velocity": 85, "duration": 227}, {"note": 67, "velocity": 80, "duration": 801}, {"note": 0, "velocity": 0, "duration": 399}, {"note": 71, "velocity": 87, "duration": 239}, {"note": 74, "velocity": 85, "duration": 164}, {"note": 0, "velocity": 0, "duration": 76}, {"note": 74, "velocity": 89, "duration": 147}, {"note": 0, "velocity": 0, "duration": 93}, {"note": 74, "velocity": 89, "duration": 160}, {"note": 0, "velocity": 0, "duration": 80}, {"note": 76, "velocity": 83, "duration": 151}, {"note": 0, "velocity": 0, "duration": 89}, {"note": 74, "velocity": 91, "duration": 133}, {"note": 0, "velocity": 0, "duration": 107}, {"note": 71, "velocity": 85, "duration": 186}, {"note": 74, "velocity": 88, "duration": 1162}, {"note": 0, "velocity": 0, "duration": 758}, {"note": 74, "velocity": 86, "duration": 171}, {"note": 0, "velocity": 0, "duration": 69}, {"note": 76, "velocity": 86, "duration": 178}, {"note": 0, "velocity": 0, "duration": 62}, {"note": 79, "velocity": 82, "duration": 138}, {"note": 0, "velocity": 0, "duration": 102}, {"note": 79, "velocity": 83, "duration": 155}, {"note": 0, "velocity": 0, "duration": 85}, {"note": 79, "velocity": 85, "duration": 596}, {"note": 0, "velocity": 0, "duration": 124}, {"note": 76, "velocity": 85, "duration": 347}, {"note": 0, "velocity": 0, "duration": 133}, {"note": 74, "velocity": 87, "duration": 172}, {"note": 0, "velocity": 0, "duration": 68}, {"note": 76, "velocity": 84, "duration": 169}, {"note": 0, "velocity": 0, "duration": 71}, {"note": 74, "velocity": 86, "duration": 222}, {"note": 71, "velocity": 83, "duration": 915}, {"note": 0, "velocity": 0, "duration": 285}, {"note": 69, "velocity": 84, "duration": 146}, {"note": 0, "velocity": 0, "duration": 94}, {"note": 69, "velocity": 80, "duration": 136}, {"note": 0, "velocity": 0, "duration": 104}, {"note": 69, "velocity": 82, "duration": 147}, {"note": 0, "velocity": 0, "duration": 93}, {"note": 67, "velocity": 79, "duration": 208}, {"note": 64, "velocity": 86, "duration": 373}, {"note": 0, "velocity": 0, "duration": 107}, {"note": 71, "velocity": 84, "duration": 412}, {"note": 0, "velocity": 0, "duration": 68}, {"note": 69, "velocity": 81, "duration": 931}, {"note": 67, "velocity": 85, "duration": 396}, {"note": 0, "velocity": 0, "duration": 84}, {"note": 69, "velocity": 86, "duration": 380}, {"note": 0, "velocity": 0, "duration": 100}, {"note": 71, "velocity": 85, "duration": 235}, {"note": 74, "velocity": 85, "duration": 173}, {"note": 0, "velocity": 0, "duration": 67}, {"note": 74, "velocity": 86, "duration": 125}, {"note": 0, "velocity": 0, "duration": 115}, {"note": 74, "velocity": 89, "duration": 138}, {"note": 0, "velocity": 0, "duration": 102}, {"note": 74, "velocity": 86, "duration": 186}, {"note": 71, "velocity": 85, "duration": 230}, {"note": 69, "velocity": 84, "duration": 227}, {"note": 67, "velocity": 78, "duration": 251}, {"note": 69, "velocity": 85, "duration": 255}, {"note": 71, "velocity": 80, "duration": 276}, {"note": 69, "velocity": 85, "duration": 227}, {"note": 67, "velocity": 80, "duration": 801}, {"note": 0, "velocity": 0, "duration": 399}, {"note": 71, "velocity": 87, "duration": 239}, {"note": 74, "velocity": 85, "duration": 164}, {"note": 0, "velocity": 0, "duration": 76}, {"note": 74, "velocity": 89, "duration": 147}, {"note": 0, "velocity": 0, "duration": 93}, {"note": 74, "velocity": 89, "duration": 160}, {"note": 0, "velocity": 0, "duration": 80}, {"note": 76, "velocity": 83, "duration": 151}, {"note": 0, "velocity": 0, "duration": 89}, {"note": 74, "velocity": 91, "duration": 133}, {"note": 0, "velocity": 0, "duration": 107}, {"note": 71, "velocity": 85, "duration": 186}, {"note": 74, "velocity": 88, "duration": 1162}, {"note": 0, "velocity": 0, "duration": 758}, {"note": 74, "velocity": 86, "duration": 171}, {"note": 0, "velocity": 0, "duration": 69}, {"note": 76, "velocity": 86, "duration": 178}, {"note": 0, "velocity": 0, "duration": 62}, {"note": 79, "velocity": 82, "duration": 138}, {"note": 0, "velocity": 0, "duration": 102}, {"note": 79, "velocity": 83, "duration": 155}, {"note": 0, "velocity": 0, "duration": 85}, {"note": 79, "velocity": 85, "duration": 596}, {"note": 0, "velocity": 0, "duration": 124}, {"note": 76, "velocity": 85, "duration": 347}, {"note": 0, "velocity": 0, "duration": 133}, {"note": 74, "velocity": 87, "duration": 172}, {"note": 0, "velocity": 0, "duration": 68}, {"note": 76, "velocity": 84, "duration": 169}, {"note": 0, "velocity": 0, "duration": 71}, {"note": 74, "velocity": 86, "duration": 222}, {"note": 71, "velocity": 83, "duration": 915}, {"note": 0, "velocity": 0, "duration": 285}, {"note": 69, "velocity": 84, "duration": 146}, {"note": 0, "velocity": 0, "duration": 94}, {"note": 69, "velocity": 80, "duration": 136}, {"note": 0, "velocity": 0, "duration": 104}, {"note": 69, "velocity": 82, "duration": 147}, {"note": 0, "velocity": 0, "duration": 93}, {"note": 67, "velocity": 79, "duration": 208}, {"note": 64, "velocity": 86, "duration": 373}, {"note": 0, "velocity": 0, "duration": 107}, {"note": 69, "velocity": 84, "duration": 412}, {"note": 0, "velocity": 0, "duration": 68}, {"note": 67, "velocity": 81, "duration": 931}, {"note": 0, "velocity": 0, "duration": 1229}, {"note": 71, "velocity": 84, "duration": 147}, {"note": 0, "velocity": 0, "duration": 93}, {"note": 71, "velocity": 82, "duration": 151}, {"note": 0, "velocity": 0, "duration": 89}, {"note": 71, "velocity": 84, "duration": 151}, {"note": 0, "velocity": 0, "duration": 89}, {"note": 71, "velocity": 82, "duration": 171}, {"note": 0, "velocity": 0, "duration": 69}, {"note": 74, "velocity": 88, "duration": 155}, {"note": 0, "velocity": 0, "duration": 85}, {"note": 76, "velocity": 86, "duration": 196}, {"note": 78, "velocity": 89, "duration": 478}, {"note": 76, "velocity": 87, "duration": 459}, {"note": 74, "velocity": 86, "duration": 831}, {"note": 0, "velocity": 0, "duration": 129}, {"note": 74, "velocity": 89, "duration": 190}, {"note": 79, "velocity": 84, "duration": 174}, {"note": 0, "velocity": 0, "duration": 66}, {"note": 76, "velocity": 85, "duration": 148}, {"note": 0, "velocity": 0, "duration": 92}, {"note": 76, "velocity": 86, "duration": 157}, {"note": 0, "velocity": 0, "duration": 83}, {"note": 74, "velocity": 88, "duration": 197}, {"note": 76, "velocity": 83, "duration": 448}, {"note": 74, "velocity": 87, "duration": 257}, {"note": 71, "velocity": 81, "duration": 1466}, {"note": 0, "velocity": 0, "duration": 694}, {"note": 64, "velocity": 91, "duration": 252}, {"note": 71, "velocity": 84, "duration": 147}, {"note": 0, "velocity": 0, "duration": 93}, {"note": 71, "velocity": 82, "duration": 151}, {"note": 0, "velocity": 0, "duration": 89}, {"note": 71, "velocity": 84, "duration": 151}, {"note": 0, "velocity": 0, "duration": 89}, {"note": 71, "velocity": 82, "duration": 171}, {"note": 0, "velocity": 0, "duration": 69}, {"note": 74, "velocity": 88, "duration": 155}, {"note": 0, "velocity": 0, "duration": 85}, {"note": 76, "velocity": 86, "duration": 196}, {"note": 78, "velocity": 89, "duration": 478}, {"note": 76, "velocity": 87, "duration": 459}, {"note": 74, "velocity": 86, "duration": 831}, {"note": 0, "velocity": 0, "duration": 369}, {"note": 76, "velocity": 86, "duration": 218}, {"note": 79, "velocity": 80, "duration": 173}, {"note": 0, "velocity": 0, "duration": 67}, {"note": 79, "velocity": 82, "duration": 155}, {"note": 0, "velocity": 0, "duration": 85}, {"note": 79, "velocity": 84, "duration": 154}, {"note": 0, "velocity": 0, "duration": 86}, {"note": 79, "velocity": 84, "duration": 147}, {"note": 0, "velocity": 0, "duration": 93}, {"note": 79, "velocity": 82, "duration": 216}, {"note": 76, "velocity": 85, "duration": 243}, {"note": 81, "velocity": 85, "duration": 1082}, {"note": 0, "velocity": 0, "duration": 118}, {"note": 74, "velocity": 100, "duration": 406}, {"note": 0, "velocity": 0, "duration": 74}, {"note": 76, "velocity": 93, "duration": 473}, {"note": 83, "velocity": 88, "duration": 378}, {"note": 0, "velocity": 0, "duration": 102}, {"note": 83, "velocity": 86, "duration": 395}, {"note": 0, "velocity": 0, "duration": 85}, {"note": 81, "velocity": 84, "duration": 225}, {"note": 79, "velocity": 87, "duration": 161}, {"note": 0, "velocity": 0, "duration": 79}, {"note": 71, "velocity": 86, "duration": 187}, {"note": 74, "velocity": 88, "duration": 1233}, {"note": 0, "velocity": 0, "duration": 447}, {"note": 74, "velocity": 86, "duration": 231}, {"note": 76, "velocity": 85, "duration": 195}, {"note": 81, "velocity": 85, "duration": 207}, {"note": 79, "velocity": 85, "duration": 137}, {"note": 0, "velocity": 0, "duration": 103}, {"note": 79, "velocity": 83, "duration": 146}, {"note": 0, "velocity": 0, "duration": 94}, {"note": 79, "velocity": 82, "duration": 133}, {"note": 0, "velocity": 0, "duration": 107}, {"note": 76, "velocity": 86, "duration": 138}, {"note": 0, "velocity": 0, "duration": 102}, {"note": 74, "velocity": 86, "duration": 157}, {"note": 0, "velocity": 0, "duration": 83}, {"note": 74, "velocity": 86, "duration": 159}, {"note": 0, "velocity": 0, "duration": 81}, {"note": 71, "velocity": 84, "duration": 967}, {"note": 0, "velocity": 0, "duration": 713}, {"note": 74, "velocity": 93, "duration": 176}, {"note": 0, "velocity": 0, "duration": 64}, {"note": 76, "velocity": 86, "duration": 225}, {"note": 79, "velocity": 84, "duration": 245}, {"note": 76, "velocity": 87, "duration": 197}, {"note": 76, "velocity": 86, "duration": 137}, {"note": 0, "velocity": 0, "duration": 103}, {"note": 76, "velocity": 89, "duration": 543}, {"note": 0, "velocity": 0, "duration": 417}, {"note": 74, "velocity": 88, "duration": 177}, {"note": 0, "velocity": 0, "duration": 63}, {"note": 76, "velocity": 88, "duration": 215}, {"note": 74, "velocity": 91, "duration": 192}, {"note": 86, "velocity": 88, "duration": 196}, {"note": 83, "velocity": 87, "duration": 750}, {"note": 74, "velocity": 95, "duration": 191}, {"note": 76, "velocity": 86, "duration": 218}, {"note": 79, "velocity": 84, "duration": 199}, {"note": 79, "velocity": 80, "duration": 128}, {"note": 0, "velocity": 0, "duration": 112}, {"note": 79, "velocity": 84, "duration": 128}, {"note": 0, "velocity": 0, "duration": 112}, {"note": 76, "velocity": 85, "duration": 112}, {"note": 0, "velocity": 0, "duration": 128}, {"note": 83, "velocity": 85, "duration": 169}, {"note": 0, "velocity": 0, "duration": 71}, {"note": 81, "velocity": 80, "duration": 134}, {"note": 0, "velocity": 0, "duration": 106}, {"note": 79, "velocity": 80, "duration": 124}, {"note": 0, "velocity": 0, "duration": 116}, {"note": 81, "velocity": 86, "duration": 1200}, {"note": 74, "velocity": 100, "duration": 406}, {"note": 0, "velocity": 0, "duration": 74}, {"note": 76, "velocity": 93, "duration": 473}, {"note": 83, "velocity": 88, "duration": 378}, {"note": 0, "velocity": 0, "duration": 102}, {"note": 83, "velocity": 86, "duration": 395}, {"note": 0, "velocity": 0, "duration": 85}, {"note": 81, "velocity": 84, "duration": 225}, {"note": 79, "velocity": 87, "duration": 161}, {"note": 0, "velocity": 0, "duration": 79}, {"note": 71, "velocity": 86, "duration": 187}, {"note": 74, "velocity": 88, "duration": 1233}, {"note": 0, "velocity": 0, "duration": 447}, {"note": 74, "velocity": 86, "duration": 231}, {"note": 76, "velocity": 85, "duration": 195}, {"note": 81, "velocity": 85, "duration": 207}, {"note": 79, "velocity": 85, "duration": 137}, {"note": 0, "velocity": 0, "duration": 103}, {"note": 79, "velocity": 83, "duration": 146}, {"note": 0, "velocity": 0, "duration": 94}, {"note": 79, "velocity": 82, "duration": 133}, {"note": 0, "velocity": 0, "duration": 107}, {"note": 76, "velocity": 86, "duration": 138}, {"note": 0, "velocity": 0, "duration": 102}, {"note": 74, "velocity": 86, "duration": 157}, {"note": 0, "velocity": 0, "duration": 83}, {"note": 74, "velocity": 86, "duration": 159}, {"note": 0, "velocity": 0, "duration": 81}, {"note": 71, "velocity": 84, "duration": 967}, {"note": 0, "velocity": 0, "duration": 713}, {"note": 74, "velocity": 93, "duration": 176}, {"note": 0, "velocity": 0, "duration": 64}, {"note": 76, "velocity": 86, "duration": 225}, {"note": 79, "velocity": 84, "duration": 245}, {"note": 76, "velocity": 87, "duration": 197}, {"note": 76, "velocity": 86, "duration": 137}, {"note": 0, "velocity": 0, "duration": 103}, {"note": 76, "velocity": 89, "duration": 543}, {"note": 0, "velocity": 0, "duration": 417}, {"note": 74, "velocity": 88, "duration": 177}, {"note": 0, "velocity": 0, "duration": 63}, {"note": 76, "velocity": 88, "duration": 215}, {"note": 74, "velocity": 91, "duration": 192}, {"note": 86, "velocity": 88, "duration": 196}, {"note": 83, "velocity": 87, "duration": 750}, {"note": 74, "velocity": 95, "duration": 191}, {"note": 76, "velocity": 86, "duration": 218}, {"note": 79, "velocity": 84, "duration": 199}, {"note": 79, "velocity": 80, "duration": 128}, {"note": 0, "velocity": 0, "duration": 112}, {"note": 79, "velocity": 84, "duration": 128}, {"note": 0, "velocity": 0, "duration": 112}, {"note": 76, "velocity": 85, "duration": 112}, {"note": 0, "velocity": 0, "duration": 128}, {"note": 76, "velocity": 85, "duration": 1200}, {"note": 0, "velocity": 0, "duration": 480}, {"note": 74, "velocity": 88, "duration": 213}, {"note": 83, "velocity": 88, "duration": 345}, {"note": 0, "velocity": 0, "duration": 135}, {"note": 81, "velocity": 82, "duration": 208}, {"note": 76, "velocity": 89, "duration": 503}, {"note": 79, "velocity": 85, "duration": 2160}, {"note": 0, "velocity": 0, "duration": 480}, {"note": 74, "velocity": 100, "duration": 406}, {"note": 0, "velocity": 0, "duration": 74}, {"note": 76, "velocity": 93, "duration": 473}, {"note": 83, "velocity": 88, "duration": 378}, {"note": 0, "velocity": 0, "duration": 102}, {"note": 83, "velocity": 86, "duration": 395}, {"note": 0, "velocity": 0, "duration": 85}, {"note": 81, "velocity": 84, "duration": 225}, {"note": 79, "velocity": 87, "duration": 161}, {"note": 0, "velocity": 0, "duration": 79}, {"note": 71, "velocity": 86, "duration": 187}, {"note": 74, "velocity": 88, "duration": 1233}, {"note": 0, "velocity": 0, "duration": 447}, {"note": 74, "velocity": 86, "duration": 231}, {"note": 76, "velocity": 85, "duration": 195}, {"note": 81, "velocity": 85, "duration": 207}, {"note": 79, "velocity": 85, "duration": 137}, {"note": 0, "velocity": 0, "duration": 103}, {"note": 79, "velocity": 83, "duration": 146}, {"note": 0, "velocity": 0, "duration": 94}, {"note": 79, "velocity": 82, "duration": 133}, {"note": 0, "velocity": 0, "duration": 107}, {"note": 76, "velocity": 86, "duration": 138}, {"note": 0, "velocity": 0, "duration": 102}, {"note": 74, "velocity": 86, "duration": 157}, {"note": 0, "velocity": 0, "duration": 83}, {"note": 74, "velocity": 86, "duration": 159}, {"note": 0, "velocity": 0, "duration": 81}, {"note": 71, "velocity": 84, "duration": 967}, {"note": 0, "velocity": 0, "duration": 713}, {"note": 74, "velocity": 93, "duration": 176}, {"note": 0, "velocity": 0, "duration": 64}, {"note": 76, "velocity": 86, "duration": 225}, {"note": 79, "velocity": 84, "duration": 245}, {"note": 76, "velocity": 87, "duration": 197}, {"note": 76, "velocity": 86, "duration": 137}, {"note": 0, "velocity": 0, "duration": 103}, {"note": 76, "velocity": 89, "duration": 543}, {"note": 0, "velocity": 0, "duration": 417}, {"note": 74, "velocity": 88, "duration": 177}, {"note": 0, "velocity": 0, "duration": 63}, {"note": 76, "velocity": 88, "duration": 215}, {"note": 74, "velocity": 91, "duration": 192}, {"note": 86, "velocity": 88, "duration": 196}, {"note": 83, "velocity": 87, "duration": 750}, {"note": 74, "velocity": 95, "duration": 191}, {"note": 76, "velocity": 86, "duration": 218}, {"note": 79, "velocity": 84, "duration": 199}, {"note": 79, "velocity": 80, "duration": 128}, {"note": 0, "velocity": 0, "duration": 112}, {"note": 79, "velocity": 84, "duration": 128}, {"note": 0, "velocity": 0, "duration": 112}, {"note": 76, "velocity": 85, "duration": 112}, {"note": 0, "velocity": 0, "duration": 128}, {"note": 83, "velocity": 85, "duration": 169}, {"note": 0, "velocity": 0, "duration": 71}, {"note": 81, "velocity": 80, "duration": 134}, {"note": 0, "velocity": 0, "duration": 106}, {"note": 79, "velocity": 80, "duration": 124}, {"note": 0, "velocity": 0, "duration": 116}, {"note": 81, "velocity": 86, "duration": 1200}, {"note": 74, "velocity": 100, "duration": 406}, {"note": 0, "velocity": 0, "duration": 74}, {"note": 76, "velocity": 93, "duration": 473}, {"note": 83, "velocity": 88, "duration": 378}, {"note": 0, "velocity": 0, "duration": 102}, {"note": 83, "velocity": 86, "duration": 395}, {"note": 0, "velocity": 0, "duration": 85}, {"note": 81, "velocity": 84, "duration": 225}, {"note": 79, "velocity": 87, "duration": 161}, {"note": 0, "velocity": 0, "duration": 79}, {"note": 71, "velocity": 86, "duration": 187}, {"note": 74, "velocity": 88, "duration": 1233}, {"note": 0, "velocity": 0, "duration": 447}, {"note": 74, "velocity": 86, "duration": 231}, {"note": 76, "velocity": 85, "duration": 195}, {"note": 81, "velocity": 85, "duration": 207}, {"note": 79, "velocity": 85, "duration": 137}, {"note": 0, "velocity": 0, "duration": 103}, {"note": 79, "velocity": 83, "duration": 146}, {"note": 0, "velocity": 0, "duration": 94}, {"note": 79, "velocity": 82, "duration": 133}, {"note": 0, "velocity": 0, "duration": 107}, {"note": 76, "velocity": 86, "duration": 138}, {"note": 0, "velocity": 0, "duration": 102}, {"note": 74, "velocity": 86, "duration": 157}, {"note": 0, "velocity": 0, "duration": 83}, {"note": 74, "velocity": 86, "duration": 159}, {"note": 0, "velocity": 0, "duration": 81}, {"note": 71, "velocity": 84, "duration": 967}, {"note": 0, "velocity": 0, "duration": 713}, {"note": 74, "velocity": 93, "duration": 176}, {"note": 0, "velocity": 0, "duration": 64}, {"note": 76, "velocity": 86, "duration": 225}, {"note": 79, "velocity": 84, "duration": 245}, {"note": 76, "velocity": 87, "duration": 197}, {"note": 76, "velocity": 86, "duration": 137}, {"note": 0, "velocity": 0, "duration": 103}, {"note": 76, "velocity": 89, "duration": 543}, {"note": 0, "velocity": 0, "duration": 417}, {"note": 74, "velocity": 88, "duration": 177}, {"note": 0, "velocity": 0, "duration": 63}, {"note": 76, "velocity": 88, "duration": 215}, {"note": 74, "velocity": 91, "duration": 192}, {"note": 86, "velocity": 88, "duration": 196}, {"note": 83, "velocity": 87, "duration": 750}, {"note": 74, "velocity": 95, "duration": 191}, {"note": 76, "velocity": 86, "duration": 218}, {"note": 79, "velocity": 84, "duration": 199}, {"note": 79, "velocity": 80, "duration": 128}, {"note": 0, "velocity": 0, "duration": 112}, {"note": 79, "velocity": 84, "duration": 128}, {"note": 0, "velocity": 0, "duration": 112}, {"note": 76, "velocity": 85, "duration": 112}, {"note": 0, "velocity": 0, "duration": 128}, {"note": 76, "velocity": 85, "duration": 1200}, {"note": 0, "velocity": 0, "duration": 480}, {"note": 74, "velocity": 88, "duration": 213}, {"note": 83, "velocity": 88, "duration": 345}, {"note": 0, "velocity": 0, "duration": 135}, {"note": 81, "velocity": 82, "duration": 208}, {"note": 76, "velocity": 89, "duration": 503}, {"note": 79, "velocity": 85, "duration": 2160}]]