[[{"note": 71, "velocity": 80, "duration": 148}, {"note": 0, "velocity": 0, "duration": 92}, {"note": 71, "velocity": 81, "duration": 174}, {"note": 0, "velocity": 0, "duration": 66}, {"note": 72, "velocity": 73, "duration": 76}, {"note": 71, "velocity": 79, "duration": 870}, {"note": 0, "velocity": 0, "duration": 90}, {"note": 71, "velocity": 79, "duration": 97}, {"note": 69, "velocity": 76, "duration": 180}, {"note": 69, "velocity": 80, "duration": 161}, {"note": 0, "velocity": 0, "duration": 79}, {"note": 69, "velocity": 78, "duration": 91}, {"note": 71, "velocity": 75, "duration": 347}, {"note": 69, "velocity": 78, "duration": 735}, {"note": 0, "velocity": 0, "duration": 705}, {"note": 67, "velocity": 78, "duration": 197}, {"note": 67, "velocity": 74, "duration": 73}, {"note": 67, "velocity": 78, "duration": 273}, {"note": 0, "velocity": 0, "duration": 87}, {"note": 67, "velocity": 78, "duration": 171}, {"note": 0, "velocity": 0, "duration": 69}, {"note": 67, "velocity": 74, "duration": 162}, {"note": 0, "velocity": 0, "duration": 78}, {"note": 67, "velocity": 75, "duration": 162}, {"note": 0, "velocity": 0, "duration": 78}, {"note": 67, "velocity": 78, "duration": 205}, {"note": 67, "velocity": 78, "duration": 118}, {"note": 0, "velocity": 0, "duration": 122}, {"note": 67, "velocity": 80, "duration": 122}, {"note": 0, "velocity": 0, "duration": 118}, {"note": 71, "velocity": 77, "duration": 413}, {"note": 0, "velocity": 0, "duration": 67}, {"note": 69, "velocity": 78, "duration": 697}, {"note": 0, "velocity": 0, "duration": 263}, {"note": 71, "velocity": 80, "duration": 148}, {"note": 0, "velocity": 0, "duration": 92}, {"note": 71, "velocity": 81, "duration": 174}, {"note": 0, "velocity": 0, "duration": 66}, {"note": 72, "velocity": 73, "duration": 76}, {"note": 71, "velocity": 79, "duration": 870}, {"note": 0, "velocity": 0, "duration": 90}, {"note": 71, "velocity": 79, "duration": 97}, {"note": 69, "velocity": 76, "duration": 180}, {"note": 69, "velocity": 80, "duration": 161}, {"note": 0, "velocity": 0, "duration": 79}, {"note": 69, "velocity": 78, "duration": 91}, {"note": 71, "velocity": 75, "duration": 347}, {"note": 69, "velocity": 78, "duration": 735}, {"note": 0, "velocity": 0, "duration": 705}, {"note": 67, "velocity": 78, "duration": 197}, {"note": 67, "velocity": 74, "duration": 73}, {"note": 67, "velocity": 78, "duration": 273}, {"note": 0, "velocity": 0, "duration": 87}, {"note": 67, "velocity": 78, "duration": 171}, {"note": 0, "velocity": 0, "duration": 69}, {"note": 67, "velocity": 74, "duration": 162}, {"note": 0, "velocity": 0, "duration": 78}, {"note": 67, "velocity": 75, "duration": 162}, {"note": 0, "velocity": 0, "duration": 78}, {"note": 67, "velocity": 78, "duration": 205}, {"note": 67, "velocity": 78, "duration": 238}, {"note": 0, "velocity": 0, "duration": 242}, {"note": 67, "velocity": 77, "duration": 413}, {"note": 0, "velocity": 0, "duration": 67}, {"note": 69, "velocity": 78, "duration": 697}, {"note": 0, "velocity": 0, "duration": 383}, {"note": 71, "velocity": 79, "duration": 67}, {"note": 71, "velocity": 79, "duration": 205}, {"note": 76, "velocity": 78, "duration": 70}, {"note": 76, "velocity": 81, "duration": 238}, {"note": 71, "velocity": 83, "duration": 238}, {"note": 71, "velocity": 79, "duration": 59}, {"note": 0, "velocity": 0, "duration": 61}, {"note": 71, "velocity": 80, "duration": 174}, {"note": 0, "velocity": 0, "duration": 66}, {"note": 71, "velocity": 80, "duration": 207}, {"note": 69, "velocity": 77, "duration": 205}, {"note": 67, "velocity": 78, "duration": 358}, {"note": 0, "velocity": 0, "duration": 122}, {"note": 64, "velocity": 82, "duration": 704}, {"note": 0, "velocity": 0, "duration": 976}, {"note": 69, "velocity": 79, "duration": 196}, {"note": 69, "velocity": 79, "duration": 85}, {"note": 71, "velocity": 77, "duration": 315}, {"note": 69, "velocity": 82, "duration": 351}, {"note": 0, "velocity": 0, "duration": 129}, {"note": 62, "velocity": 81, "duration": 195}, {"note": 74, "velocity": 82, "duration": 200}, {"note": 72, "velocity": 78, "duration": 195}, {"note": 71, "velocity": 83, "duration": 198}, {"note": 72, "velocity": 84, "duration": 118}, {"note": 71, "velocity": 80, "duration": 358}, {"note": 67, "velocity": 79, "duration": 181}, {"note": 67, "velocity": 79, "duration": 75}, {"note": 69, "velocity": 80, "duration": 417}, {"note": 0, "velocity": 0, "duration": 183}, {"note": 71, "velocity": 84, "duration": 197}, {"note": 71, "velocity": 83, "duration": 178}, {"note": 0, "velocity": 0, "duration": 62}, {"note": 71, "velocity": 79, "duration": 82}, {"note": 69, "velocity": 79, "duration": 323}, {"note": 71, "velocity": 78, "duration": 171}, {"note": 0, "velocity": 0, "duration": 69}, {"note": 71, "velocity": 79, "duration": 191}, {"note": 71, "velocity": 84, "duration": 206}, {"note": 78, "velocity": 79, "duration": 238}, {"note": 79, "velocity": 79, "duration": 238}, {"note": 79, "velocity": 79, "duration": 238}, {"note": 76, "velocity": 79, "duration": 358}, {"note": 0, "velocity": 0, "duration": 122}, {"note": 64, "velocity": 82, "duration": 430}, {"note": 69, "velocity": 80, "duration": 405}, {"note": 0, "velocity": 0, "duration": 315}, {"note": 71, "velocity": 83, "duration": 190}, {"note": 72, "velocity": 78, "duration": 100}, {"note": 71, "velocity": 85, "duration": 301}, {"note": 69, "velocity": 85, "duration": 413}, {"note": 0, "velocity": 0, "duration": 67}, {"note": 62, "velocity": 80, "duration": 189}, {"note": 74, "velocity": 84, "duration": 208}, {"note": 72, "velocity": 82, "duration": 184}, {"note": 71, "velocity": 82, "duration": 196}, {"note": 72, "velocity": 74, "duration": 118}, {"note": 71, "velocity": 78, "duration": 358}, {"note": 62, "velocity": 80, "duration": 238}, {"note": 62, "velocity": 79, "duration": 118}, {"note": 69, "velocity": 79, "duration": 238}, {"note": 0, "velocity": 0, "duration": 362}, {"note": 71, "velocity": 84, "duration": 197}, {"note": 71, "velocity": 83, "duration": 178}, {"note": 0, "velocity": 0, "duration": 62}, {"note": 71, "velocity": 79, "duration": 82}, {"note": 69, "velocity": 79, "duration": 323}, {"note": 71, "velocity": 78, "duration": 171}, {"note": 0, "velocity": 0, "duration": 69}, {"note": 71, "velocity": 79, "duration": 191}, {"note": 71, "velocity": 84, "duration": 206}, {"note": 78, "velocity": 79, "duration": 238}, {"note": 79, "velocity": 79, "duration": 238}, {"note": 79, "velocity": 79, "duration": 238}, {"note": 76, "velocity": 79, "duration": 358}, {"note": 0, "velocity": 0, "duration": 122}, {"note": 64, "velocity": 82, "duration": 430}, {"note": 69, "velocity": 80, "duration": 405}, {"note": 0, "velocity": 0, "duration": 315}, {"note": 71, "velocity": 83, "duration": 190}, {"note": 72, "velocity": 78, "duration": 100}, {"note": 71, "velocity": 85, "duration": 301}, {"note": 69, "velocity": 85, "duration": 238}, {"note": 62, "velocity": 79, "duration": 238}, {"note": 62, "velocity": 80, "duration": 189}, {"note": 74, "velocity": 84, "duration": 208}, {"note": 72, "velocity": 82, "duration": 358}, {"note": 0, "velocity": 0, "duration": 122}, {"note": 71, "velocity": 82, "duration": 478}, {"note": 69, "velocity": 79, "duration": 718}, {"note": 74, "velocity": 84, "duration": 152}, {"note": 0, "velocity": 0, "duration": 88}, {"note": 72, "velocity": 80, "duration": 184}, {"note": 71, "velocity": 82, "duration": 192}, {"note": 72, "velocity": 79, "duration": 598}, {"note": 0, "velocity": 0, "duration": 122}, {"note": 67, "velocity": 79, "duration": 201}, {"note": 67, "velocity": 81, "duration": 1712}, {"note": 0, "velocity": 0, "duration": 6448}, {"note": 71, "velocity": 80, "duration": 148}, {"note": 0, "velocity": 0, "duration": 92}, {"note": 71, "velocity": 81, "duration": 174}, {"note": 0, "velocity": 0, "duration": 66}, {"note": 72, "velocity": 73, "duration": 76}, {"note": 71, "velocity": 79, "duration": 870}, {"note": 0, "velocity": 0, "duration": 90}, {"note": 71, "velocity": 79, "duration": 97}, {"note": 69, "velocity": 76, "duration": 180}, {"note": 69, "velocity": 80, "duration": 161}, {"note": 0, "velocity": 0, "duration": 79}, {"note": 69, "velocity": 78, "duration": 91}, {"note": 71, "velocity": 75, "duration": 347}, {"note": 69, "velocity": 78, "duration": 735}, {"note": 0, "velocity": 0, "duration": 705}, {"note": 67, "velocity": 78, "duration": 197}, {"note": 67, "velocity": 74, "duration": 73}, {"note": 67, "velocity": 78, "duration": 273}, {"note": 0, "velocity": 0, "duration": 87}, {"note": 67, "velocity": 78, "duration": 171}, {"note": 0, "velocity": 0, "duration": 69}, {"note": 67, "velocity": 74, "duration": 162}, {"note": 0, "velocity": 0, "duration": 78}, {"note": 67, "velocity": 75, "duration": 162}, {"note": 0, "velocity": 0, "duration": 78}, {"note": 67, "velocity": 78, "duration": 205}, {"note": 67, "velocity": 78, "duration": 118}, {"note": 0, "velocity": 0, "duration": 122}, {"note": 67, "velocity": 80, "duration": 122}, {"note": 0, "velocity": 0, "duration": 118}, {"note": 71, "velocity": 77, "duration": 413}, {"note": 0, "velocity": 0, "duration": 67}, {"note": 69, "velocity": 78, "duration": 697}, {"note": 0, "velocity": 0, "duration": 263}, {"note": 71, "velocity": 80, "duration": 148}, {"note": 0, "velocity": 0, "duration": 92}, {"note": 71, "velocity": 81, "duration": 174}, {"note": 0, "velocity": 0, "duration": 66}, {"note": 72, "velocity": 73, "duration": 76}, {"note": 71, "velocity": 79, "duration": 870}, {"note": 0, "velocity": 0, "duration": 90}, {"note": 71, "velocity": 79, "duration": 97}, {"note": 69, "velocity": 76, "duration": 180}, {"note": 69, "velocity": 80, "duration": 161}, {"note": 0, "velocity": 0, "duration": 79}, {"note": 69, "velocity": 78, "duration": 91}, {"note": 71, "velocity": 75, "duration": 347}, {"note": 69, "velocity": 78, "duration": 735}, {"note": 0, "velocity": 0, "duration": 705}, {"note": 67, "velocity": 78, "duration": 197}, {"note": 67, "velocity": 74, "duration": 73}, {"note": 67, "velocity": 78, "duration": 273}, {"note": 0, "velocity": 0, "duration": 87}, {"note": 67, "velocity": 78, "duration": 171}, {"note": 0, "velocity": 0, "duration": 69}, {"note": 67, "velocity": 74, "duration": 162}, {"note": 0, "velocity": 0, "duration": 78}, {"note": 67, "velocity": 75, "duration": 162}, {"note": 0, "velocity": 0, "duration": 78}, {"note": 67, "velocity": 78, "duration": 205}, {"note": 67, "velocity": 78, "duration": 238}, {"note": 0, "velocity": 0, "duration": 242}, {"note": 67, "velocity": 77, "duration": 413}, {"note": 0, "velocity": 0, "duration": 67}, {"note": 69, "velocity": 78, "duration": 697}, {"note": 0, "velocity": 0, "duration": 383}, {"note": 71, "velocity": 79, "duration": 67}, {"note": 71, "velocity": 79, "duration": 205}, {"note": 76, "velocity": 78, "duration": 70}, {"note": 76, "velocity": 81, "duration": 238}, {"note": 71, "velocity": 83, "duration": 238}, {"note": 71, "velocity": 79, "duration": 59}, {"note": 0, "velocity": 0, "duration": 61}, {"note": 71, "velocity": 80, "duration": 174}, {"note": 0, "velocity": 0, "duration": 66}, {"note": 71, "velocity": 80, "duration": 207}, {"note": 69, "velocity": 77, "duration": 205}, {"note": 67, "velocity": 78, "duration": 358}, {"note": 0, "velocity": 0, "duration": 122}, {"note": 64, "velocity": 82, "duration": 704}, {"note": 0, "velocity": 0, "duration": 976}, {"note": 69, "velocity": 79, "duration": 196}, {"note": 69, "velocity": 79, "duration": 85}, {"note": 71, "velocity": 77, "duration": 315}, {"note": 69, "velocity": 82, "duration": 351}, {"note": 0, "velocity": 0, "duration": 129}, {"note": 62, "velocity": 81, "duration": 195}, {"note": 74, "velocity": 82, "duration": 200}, {"note": 72, "velocity": 78, "duration": 195}, {"note": 71, "velocity": 83, "duration": 198}, {"note": 72, "velocity": 84, "duration": 118}, {"note": 71, "velocity": 80, "duration": 358}, {"note": 67, "velocity": 79, "duration": 181}, {"note": 67, "velocity": 79, "duration": 75}, {"note": 69, "velocity": 80, "duration": 417}, {"note": 0, "velocity": 0, "duration": 183}, {"note": 71, "velocity": 84, "duration": 197}, {"note": 71, "velocity": 83, "duration": 178}, {"note": 0, "velocity": 0, "duration": 62}, {"note": 71, "velocity": 79, "duration": 82}, {"note": 69, "velocity": 79, "duration": 323}, {"note": 71, "velocity": 78, "duration": 171}, {"note": 0, "velocity": 0, "duration": 69}, {"note": 71, "velocity": 79, "duration": 191}, {"note": 71, "velocity": 84, "duration": 206}, {"note": 78, "velocity": 79, "duration": 238}, {"note": 79, "velocity": 79, "duration": 238}, {"note": 79, "velocity": 79, "duration": 238}, {"note": 76, "velocity": 79, "duration": 358}, {"note": 0, "velocity": 0, "duration": 122}, {"note": 64, "velocity": 82, "duration": 430}, {"note": 69, "velocity": 80, "duration": 405}, {"note": 0, "velocity": 0, "duration": 315}, {"note": 71, "velocity": 83, "duration": 190}, {"note": 72, "velocity": 78, "duration": 100}, {"note": 71, "velocity": 85, "duration": 301}, {"note": 69, "velocity": 85, "duration": 413}, {"note": 0, "velocity": 0, "duration": 67}, {"note": 62, "velocity": 80, "duration": 189}, {"note": 74, "velocity": 84, "duration": 208}, {"note": 72, "velocity": 82, "duration": 184}, {"note": 71, "velocity": 82, "duration": 196}, {"note": 72, "velocity": 74, "duration": 118}, {"note": 71, "velocity": 78, "duration": 358}, {"note": 62, "velocity": 80, "duration": 238}, {"note": 62, "velocity": 79, "duration": 118}, {"note": 69, "velocity": 79, "duration": 238}, {"note": 0, "velocity": 0, "duration": 362}, {"note": 71, "velocity": 84, "duration": 197}, {"note": 71, "velocity": 83, "duration": 178}, {"note": 0, "velocity": 0, "duration": 62}, {"note": 71, "velocity": 79, "duration": 82}, {"note": 69, "velocity": 79, "duration": 323}, {"note": 71, "velocity": 78, "duration": 171}, {"note": 0, "velocity": 0, "duration": 69}, {"note": 71, "velocity": 79, "duration": 191}, {"note": 71, "velocity": 84, "duration": 206}, {"note": 78, "velocity": 79, "duration": 238}, {"note": 79, "velocity": 79, "duration": 238}, {"note": 79, "velocity": 79, "duration": 238}, {"note": 76, "velocity": 79, "duration": 358}, {"note": 0, "velocity": 0, "duration": 122}, {"note": 64, "velocity": 82, "duration": 430}, {"note": 69, "velocity": 80, "duration": 405}, {"note": 0, "velocity": 0, "duration": 315}, {"note": 71, "velocity": 83, "duration": 190}, {"note": 72, "velocity": 78, "duration": 100}, {"note": 71, "velocity": 85, "duration": 301}, {"note": 69, "velocity": 85, "duration": 238}, {"note": 62, "velocity": 79, "duration": 238}, {"note": 62, "velocity": 80, "duration": 189}, {"note": 74, "velocity": 84, "duration": 208}, {"note": 72, "velocity": 82, "duration": 358}, {"note": 0, "velocity": 0, "duration": 122}, {"note": 71, "velocity": 82, "duration": 478}, {"note": 69, "velocity": 79, "duration": 718}, {"note": 74, "velocity": 84, "duration": 152}, {"note": 0, "velocity": 0, "duration": 88}, {"note": 72, "velocity": 80, "duration": 184}, {"note": 71, "velocity": 82, "duration": 192}, {"note": 72, "velocity": 79, "duration": 598}, {"note": 0, "velocity": 0, "duration": 122}, {"note": 67, "velocity": 79, "duration": 201}, {"note": 67, "velocity": 81, "duration": 1712}, {"note": 0, "velocity": 0, "duration": 14248}, {"note": 71, "velocity": 79, "duration": 67}, {"note": 71, "velocity": 79, "duration": 205}, {"note": 76, "velocity": 78, "duration": 70}, {"note": 76, "velocity": 81, "duration": 238}, {"note": 71, "velocity": 83, "duration": 238}, {"note": 71, "velocity": 79, "duration": 59}, {"note": 0, "velocity": 0, "duration": 61}, {"note": 71, "velocity": 80, "duration": 174}, {"note": 0, "velocity": 0, "duration": 66}, {"note": 71, "velocity": 80, "duration": 207}, {"note": 69, "velocity": 77, "duration": 205}, {"note": 67, "velocity": 78, "duration": 358}, {"note": 0, "velocity": 0, "duration": 122}, {"note": 64, "velocity": 82, "duration": 704}, {"note": 0, "velocity": 0, "duration": 976}, {"note": 69, "velocity": 79, "duration": 196}, {"note": 69, "velocity": 79, "duration": 85}, {"note": 71, "velocity": 77, "duration": 315}, {"note": 69, "velocity": 82, "duration": 351}, {"note": 0, "velocity": 0, "duration": 129}, {"note": 62, "velocity": 81, "duration": 195}, {"note": 74, "velocity": 82, "duration": 200}, {"note": 72, "velocity": 78, "duration": 195}, {"note": 71, "velocity": 83, "duration": 198}, {"note": 72, "velocity": 84, "duration": 118}, {"note": 71, "velocity": 80, "duration": 358}, {"note": 67, "velocity": 79, "duration": 181}, {"note": 67, "velocity": 79, "duration": 75}, {"note": 69, "velocity": 80, "duration": 417}, {"note": 0, "velocity": 0, "duration": 183}, {"note": 71, "velocity": 84, "duration": 197}, {"note": 71, "velocity": 83, "duration": 178}, {"note": 0, "velocity": 0, "duration": 62}, {"note": 71, "velocity": 79, "duration": 82}, {"note": 69, "velocity": 79, "duration": 323}, {"note": 71, "velocity": 78, "duration": 171}, {"note": 0, "velocity": 0, "duration": 69}, {"note": 71, "velocity": 79, "duration": 191}, {"note": 71, "velocity": 84, "duration": 206}, {"note": 78, "velocity": 79, "duration": 238}, {"note": 79, "velocity": 79, "duration": 238}, {"note": 79, "velocity": 79, "duration": 238}, {"note": 76, "velocity": 79, "duration": 358}, {"note": 0, "velocity": 0, "duration": 122}, {"note": 64, "velocity": 82, "duration": 430}, {"note": 69, "velocity": 80, "duration": 405}, {"note": 0, "velocity": 0, "duration": 315}, {"note": 71, "velocity": 83, "duration": 190}, {"note": 72, "velocity": 78, "duration": 100}, {"note": 71, "velocity": 85, "duration": 301}, {"note": 69, "velocity": 85, "duration": 413}, {"note": 0, "velocity": 0, "duration": 67}, {"note": 62, "velocity": 80, "duration": 189}, {"note": 74, "velocity": 84, "duration": 208}, {"note": 72, "velocity": 82, "duration": 184}, {"note": 71, "velocity": 82, "duration": 196}, {"note": 72, "velocity": 74, "duration": 118}, {"note": 71, "velocity": 78, "duration": 358}, {"note": 62, "velocity": 80, "duration": 238}, {"note": 62, "velocity": 79, "duration": 118}, {"note": 69, "velocity": 79, "duration": 238}, {"note": 0, "velocity": 0, "duration": 362}, {"note": 71, "velocity": 84, "duration": 197}, {"note": 71, "velocity": 83, "duration": 178}, {"note": 0, "velocity": 0, "duration": 62}, {"note": 71, "velocity": 79, "duration": 82}, {"note": 69, "velocity": 79, "duration": 323}, {"note": 71, "velocity": 78, "duration": 171}, {"note": 0, "velocity": 0, "duration": 69}, {"note": 71, "velocity": 79, "duration": 191}, {"note": 71, "velocity": 84, "duration": 206}, {"note": 78, "velocity": 79, "duration": 238}, {"note": 79, "velocity": 79, "duration": 238}, {"note": 79, "velocity": 79, "duration": 238}, {"note": 76, "velocity": 79, "duration": 358}, {"note": 0, "velocity": 0, "duration": 122}, {"note": 64, "velocity": 82, "duration": 430}, {"note": 69, "velocity": 80, "duration": 405}, {"note": 0, "velocity": 0, "duration": 315}, {"note": 71, "velocity": 83, "duration": 190}, {"note": 72, "velocity": 78, "duration": 100}, {"note": 71, "velocity": 85, "duration": 301}, {"note": 69, "velocity": 85, "duration": 238}, {"note": 62, "velocity": 79, "duration": 238}, {"note": 62, "velocity": 80, "duration": 189}, {"note": 74, "velocity": 84, "duration": 208}, {"note": 72, "velocity": 82, "duration": 358}, {"note": 0, "velocity": 0, "duration": 122}, {"note": 71, "velocity": 82, "duration": 478}, {"note": 69, "velocity": 79, "duration": 718}, {"note": 74, "velocity": 84, "duration": 152}, {"note": 0, "velocity": 0, "duration": 88}, {"note": 72, "velocity": 80, "duration": 184}, {"note": 71, "velocity": 82, "duration": 192}, {"note": 72, "velocity": 79, "duration": 598}, {"note": 0, "velocity": 0, "duration": 122}, {"note": 67, "velocity": 79, "duration": 201}, {"note": 67, "velocity": 81, "duration": 1712}]]