[[{"note": 63, "velocity": 80, "duration": 226}, {"note": 65, "velocity": 85, "duration": 213}, {"note": 68, "velocity": 82, "duration": 374}, {"note": 0, "velocity": 0, "duration": 106}, {"note": 68, "velocity": 81, "duration": 200}, {"note": 70, "velocity": 81, "duration": 186}, {"note": 72, "velocity": 84, "duration": 156}, {"note": 0, "velocity": 0, "duration": 84}, {"note": 72, "velocity": 85, "duration": 189}, {"note": 70, "velocity": 86, "duration": 226}, {"note": 68, "velocity": 77, "duration": 284}, {"note": 65, "velocity": 72, "duration": 250}, {"note": 68, "velocity": 83, "duration": 987}, {"note": 0, "velocity": 0, "duration": 213}, {"note": 63, "velocity": 81, "duration": 164}, {"note": 0, "velocity": 0, "duration": 76}, {"note": 65, "velocity": 86, "duration": 161}, {"note": 0, "velocity": 0, "duration": 79}, {"note": 68, "velocity": 82, "duration": 127}, {"note": 0, "velocity": 0, "duration": 113}, {"note": 68, "velocity": 83, "duration": 121}, {"note": 0, "velocity": 0, "duration": 119}, {"note": 68, "velocity": 81, "duration": 168}, {"note": 0, "velocity": 0, "duration": 72}, {"note": 70, "velocity": 86, "duration": 159}, {"note": 0, "velocity": 0, "duration": 81}, {"note": 72, "velocity": 85, "duration": 397}, {"note": 0, "velocity": 0, "duration": 83}, {"note": 77, "velocity": 88, "duration": 349}, {"note": 0, "velocity": 0, "duration": 131}, {"note": 75, "velocity": 85, "duration": 211}, {"note": 72, "velocity": 83, "duration": 480}, {"note": 75, "velocity": 86, "duration": 480}, {"note": 0, "velocity": 0, "duration": 240}, {"note": 72, "velocity": 86, "duration": 163}, {"note": 0, "velocity": 0, "duration": 77}, {"note": 75, "velocity": 88, "duration": 168}, {"note": 0, "velocity": 0, "duration": 72}, {"note": 77, "velocity": 83, "duration": 627}, {"note": 0, "velocity": 0, "duration": 93}, {"note": 80, "velocity": 80, "duration": 168}, {"note": 0, "velocity": 0, "duration": 72}, {"note": 80, "velocity": 85, "duration": 345}, {"note": 0, "velocity": 0, "duration": 135}, {"note": 77, "velocity": 87, "duration": 394}, {"note": 0, "velocity": 0, "duration": 86}, {"note": 75, "velocity": 86, "duration": 345}, {"note": 0, "velocity": 0, "duration": 135}, {"note": 72, "velocity": 82, "duration": 168}, {"note": 0, "velocity": 0, "duration": 72}, {"note": 70, "velocity": 82, "duration": 397}, {"note": 0, "velocity": 0, "duration": 83}, {"note": 72, "velocity": 81, "duration": 583}, {"note": 0, "velocity": 0, "duration": 137}, {"note": 70, "velocity": 83, "duration": 362}, {"note": 0, "velocity": 0, "duration": 118}, {"note": 70, "velocity": 84, "duration": 181}, {"note": 68, "velocity": 81, "duration": 150}, {"note": 0, "velocity": 0, "duration": 90}, {"note": 65, "velocity": 86, "duration": 169}, {"note": 0, "velocity": 0, "duration": 71}, {"note": 65, "velocity": 85, "duration": 191}, {"note": 72, "velocity": 85, "duration": 183}, {"note": 70, "velocity": 82, "duration": 1181}, {"note": 0, "velocity": 0, "duration": 499}, {"note": 63, "velocity": 80, "duration": 226}, {"note": 65, "velocity": 85, "duration": 213}, {"note": 68, "velocity": 82, "duration": 240}, {"note": 68, "velocity": 82, "duration": 240}, {"note": 68, "velocity": 81, "duration": 200}, {"note": 70, "velocity": 81, "duration": 186}, {"note": 72, "velocity": 84, "duration": 480}, {"note": 70, "velocity": 86, "duration": 226}, {"note": 68, "velocity": 77, "duration": 284}, {"note": 65, "velocity": 72, "duration": 250}, {"note": 68, "velocity": 83, "duration": 987}, {"note": 0, "velocity": 0, "duration": 213}, {"note": 63, "velocity": 81, "duration": 164}, {"note": 0, "velocity": 0, "duration": 76}, {"note": 65, "velocity": 86, "duration": 161}, {"note": 0, "velocity": 0, "duration": 79}, {"note": 68, "velocity": 82, "duration": 127}, {"note": 0, "velocity": 0, "duration": 113}, {"note": 68, "velocity": 83, "duration": 121}, {"note": 0, "velocity": 0, "duration": 119}, {"note": 68, "velocity": 81, "duration": 168}, {"note": 0, "velocity": 0, "duration": 72}, {"note": 70, "velocity": 86, "duration": 159}, {"note": 0, "velocity": 0, "duration": 81}, {"note": 72, "velocity": 85, "duration": 397}, {"note": 0, "velocity": 0, "duration": 83}, {"note": 77, "velocity": 88, "duration": 349}, {"note": 0, "velocity": 0, "duration": 131}, {"note": 75, "velocity": 85, "duration": 211}, {"note": 72, "velocity": 83, "duration": 480}, {"note": 75, "velocity": 86, "duration": 480}, {"note": 0, "velocity": 0, "duration": 240}, {"note": 72, "velocity": 86, "duration": 163}, {"note": 0, "velocity": 0, "duration": 77}, {"note": 75, "velocity": 88, "duration": 168}, {"note": 0, "velocity": 0, "duration": 72}, {"note": 77, "velocity": 83, "duration": 627}, {"note": 0, "velocity": 0, "duration": 93}, {"note": 80, "velocity": 80, "duration": 168}, {"note": 0, "velocity": 0, "duration": 72}, {"note": 80, "velocity": 85, "duration": 345}, {"note": 0, "velocity": 0, "duration": 135}, {"note": 77, "velocity": 87, "duration": 394}, {"note": 0, "velocity": 0, "duration": 86}, {"note": 75, "velocity": 86, "duration": 240}, {"note": 75, "velocity": 86, "duration": 240}, {"note": 72, "velocity": 82, "duration": 168}, {"note": 0, "velocity": 0, "duration": 72}, {"note": 70, "velocity": 82, "duration": 397}, {"note": 0, "velocity": 0, "duration": 83}, {"note": 72, "velocity": 81, "duration": 583}, {"note": 0, "velocity": 0, "duration": 137}, {"note": 70, "velocity": 83, "duration": 362}, {"note": 0, "velocity": 0, "duration": 118}, {"note": 70, "velocity": 84, "duration": 181}, {"note": 68, "velocity": 81, "duration": 150}, {"note": 0, "velocity": 0, "duration": 90}, {"note": 65, "velocity": 86, "duration": 480}, {"note": 65, "velocity": 85, "duration": 183}, {"note": 70, "velocity": 86, "duration": 240}, {"note": 68, "velocity": 82, "duration": 941}, {"note": 0, "velocity": 0, "duration": 499}, {"note": 75, "velocity": 89, "duration": 195}, {"note": 77, "velocity": 81, "duration": 176}, {"note": 0, "velocity": 0, "duration": 64}, {"note": 77, "velocity": 86, "duration": 344}, {"note": 0, "velocity": 0, "duration": 136}, {"note": 77, "velocity": 87, "duration": 688}, {"note": 72, "velocity": 83, "duration": 198}, {"note": 77, "velocity": 86, "duration": 200}, {"note": 75, "velocity": 86, "duration": 1276}, {"note": 0, "velocity": 0, "duration": 404}, {"note": 72, "velocity": 84, "duration": 176}, {"note": 0, "velocity": 0, "duration": 64}, {"note": 70, "velocity": 85, "duration": 244}, {"note": 68, "velocity": 78, "duration": 378}, {"note": 0, "velocity": 0, "duration": 102}, {"note": 68, "velocity": 79, "duration": 198}, {"note": 65, "velocity": 86, "duration": 221}, {"note": 68, "velocity": 78, "duration": 216}, {"note": 75, "velocity": 85, "duration": 426}, {"note": 72, "velocity": 80, "duration": 1266}, {"note": 0, "velocity": 0, "duration": 414}, {"note": 72, "velocity": 83, "duration": 159}, {"note": 0, "velocity": 0, "duration": 81}, {"note": 70, "velocity": 85, "duration": 211}, {"note": 68, "velocity": 79, "duration": 386}, {"note": 0, "velocity": 0, "duration": 94}, {"note": 68, "velocity": 76, "duration": 167}, {"note": 0, "velocity": 0, "duration": 73}, {"note": 68, "velocity": 81, "duration": 434}, {"note": 68, "velocity": 81, "duration": 173}, {"note": 0, "velocity": 0, "duration": 67}, {"note": 65, "velocity": 87, "duration": 198}, {"note": 63, "velocity": 85, "duration": 168}, {"note": 0, "velocity": 0, "duration": 72}, {"note": 75, "velocity": 89, "duration": 163}, {"note": 0, "velocity": 0, "duration": 77}, {"note": 77, "velocity": 86, "duration": 172}, {"note": 0, "velocity": 0, "duration": 68}, {"note": 70, "velocity": 81, "duration": 224}, {"note": 75, "velocity": 84, "duration": 189}, {"note": 72, "velocity": 75, "duration": 497}, {"note": 0, "velocity": 0, "duration": 223}, {"note": 72, "velocity": 87, "duration": 162}, {"note": 0, "velocity": 0, "duration": 78}, {"note": 77, "velocity": 87, "duration": 142}, {"note": 0, "velocity": 0, "duration": 98}, {"note": 77, "velocity": 80, "duration": 138}, {"note": 0, "velocity": 0, "duration": 102}, {"note": 77, "velocity": 85, "duration": 129}, {"note": 0, "velocity": 0, "duration": 111}, {"note": 77, "velocity": 79, "duration": 352}, {"note": 0, "velocity": 0, "duration": 128}, {"note": 77, "velocity": 87, "duration": 404}, {"note": 0, "velocity": 0, "duration": 76}, {"note": 77, "velocity": 83, "duration": 189}, {"note": 75, "velocity": 83, "duration": 1973}, {"note": 0, "velocity": 0, "duration": 1387}, {"note": 80, "velocity": 79, "duration": 229}, {"note": 82, "velocity": 83, "duration": 212}, {"note": 87, "velocity": 84, "duration": 145}, {"note": 0, "velocity": 0, "duration": 95}, {"note": 87, "velocity": 86, "duration": 119}, {"note": 0, "velocity": 0, "duration": 121}, {"note": 87, "velocity": 86, "duration": 184}, {"note": 84, "velocity": 81, "duration": 147}, {"note": 0, "velocity": 0, "duration": 93}, {"note": 84, "velocity": 82, "duration": 498}, {"note": 80, "velocity": 80, "duration": 185}, {"note": 82, "velocity": 85, "duration": 1469}, {"note": 0, "velocity": 0, "duration": 691}, {"note": 79, "velocity": 87, "duration": 185}, {"note": 79, "velocity": 86, "duration": 150}, {"note": 0, "velocity": 0, "duration": 90}, {"note": 79, "velocity": 84, "duration": 147}, {"note": 0, "velocity": 0, "duration": 93}, {"note": 79, "velocity": 85, "duration": 154}, {"note": 0, "velocity": 0, "duration": 86}, {"note": 79, "velocity": 87, "duration": 414}, {"note": 0, "velocity": 0, "duration": 66}, {"note": 75, "velocity": 87, "duration": 202}, {"note": 80, "velocity": 86, "duration": 1346}, {"note": 0, "velocity": 0, "duration": 814}, {"note": 77, "velocity": 87, "duration": 189}, {"note": 80, "velocity": 85, "duration": 362}, {"note": 0, "velocity": 0, "duration": 118}, {"note": 80, "velocity": 86, "duration": 713}, {"note": 77, "velocity": 87, "duration": 566}, {"note": 89, "velocity": 85, "duration": 469}, {"note": 87, "velocity": 85, "duration": 446}, {"note": 80, "velocity": 85, "duration": 532}, {"note": 0, "velocity": 0, "duration": 428}, {"note": 80, "velocity": 83, "duration": 164}, {"note": 0, "velocity": 0, "duration": 76}, {"note": 80, "velocity": 83, "duration": 138}, {"note": 0, "velocity": 0, "duration": 102}, {"note": 80, "velocity": 87, "duration": 138}, {"note": 0, "velocity": 0, "duration": 102}, {"note": 80, "velocity": 87, "duration": 134}, {"note": 0, "velocity": 0, "duration": 106}, {"note": 80, "velocity": 87, "duration": 473}, {"note": 77, "velocity": 81, "duration": 238}, {"note": 84, "velocity": 86, "duration": 535}, {"note": 82, "velocity": 81, "duration": 1065}, {"note": 0, "velocity": 0, "duration": 135}, {"note": 80, "velocity": 79, "duration": 229}, {"note": 82, "velocity": 83, "duration": 212}, {"note": 87, "velocity": 84, "duration": 145}, {"note": 0, "velocity": 0, "duration": 95}, {"note": 87, "velocity": 86, "duration": 119}, {"note": 0, "velocity": 0, "duration": 121}, {"note": 87, "velocity": 86, "duration": 184}, {"note": 84, "velocity": 81, "duration": 147}, {"note": 0, "velocity": 0, "duration": 93}, {"note": 84, "velocity": 82, "duration": 498}, {"note": 80, "velocity": 80, "duration": 185}, {"note": 82, "velocity": 85, "duration": 1469}, {"note": 0, "velocity": 0, "duration": 691}, {"note": 79, "velocity": 87, "duration": 185}, {"note": 79, "velocity": 86, "duration": 150}, {"note": 0, "velocity": 0, "duration": 90}, {"note": 79, "velocity": 84, "duration": 147}, {"note": 0, "velocity": 0, "duration": 93}, {"note": 79, "velocity": 85, "duration": 154}, {"note": 0, "velocity": 0, "duration": 86}, {"note": 79, "velocity": 87, "duration": 414}, {"note": 0, "velocity": 0, "duration": 66}, {"note": 75, "velocity": 87, "duration": 202}, {"note": 80, "velocity": 86, "duration": 1346}, {"note": 0, "velocity": 0, "duration": 814}, {"note": 77, "velocity": 87, "duration": 189}, {"note": 80, "velocity": 85, "duration": 362}, {"note": 0, "velocity": 0, "duration": 118}, {"note": 80, "velocity": 86, "duration": 713}, {"note": 77, "velocity": 87, "duration": 566}, {"note": 89, "velocity": 85, "duration": 469}, {"note": 87, "velocity": 85, "duration": 446}, {"note": 80, "velocity": 85, "duration": 720}, {"note": 0, "velocity": 0, "duration": 240}, {"note": 77, "velocity": 83, "duration": 164}, {"note": 0, "velocity": 0, "duration": 76}, {"note": 80, "velocity": 83, "duration": 480}, {"note": 80, "velocity": 87, "duration": 960}, {"note": 0, "velocity": 0, "duration": 960}, {"note": 82, "velocity": 85, "duration": 160}, {"note": 0, "velocity": 0, "duration": 80}, {"note": 82, "velocity": 84, "duration": 478}, {"note": 77, "velocity": 86, "duration": 281}, {"note": 82, "velocity": 81, "duration": 477}, {"note": 80, "velocity": 86, "duration": 1747}, {"note": 0, "velocity": 0, "duration": 16733}, {"note": 63, "velocity": 80, "duration": 226}, {"note": 65, "velocity": 85, "duration": 213}, {"note": 68, "velocity": 82, "duration": 240}, {"note": 68, "velocity": 82, "duration": 240}, {"note": 68, "velocity": 81, "duration": 200}, {"note": 70, "velocity": 81, "duration": 186}, {"note": 72, "velocity": 84, "duration": 480}, {"note": 70, "velocity": 86, "duration": 226}, {"note": 68, "velocity": 77, "duration": 284}, {"note": 65, "velocity": 72, "duration": 250}, {"note": 68, "velocity": 83, "duration": 987}, {"note": 0, "velocity": 0, "duration": 213}, {"note": 63, "velocity": 81, "duration": 164}, {"note": 0, "velocity": 0, "duration": 76}, {"note": 65, "velocity": 86, "duration": 161}, {"note": 0, "velocity": 0, "duration": 79}, {"note": 68, "velocity": 82, "duration": 127}, {"note": 0, "velocity": 0, "duration": 113}, {"note": 68, "velocity": 83, "duration": 121}, {"note": 0, "velocity": 0, "duration": 119}, {"note": 68, "velocity": 81, "duration": 168}, {"note": 0, "velocity": 0, "duration": 72}, {"note": 70, "velocity": 86, "duration": 159}, {"note": 0, "velocity": 0, "duration": 81}, {"note": 72, "velocity": 85, "duration": 397}, {"note": 0, "velocity": 0, "duration": 83}, {"note": 77, "velocity": 88, "duration": 349}, {"note": 0, "velocity": 0, "duration": 131}, {"note": 75, "velocity": 85, "duration": 211}, {"note": 72, "velocity": 83, "duration": 480}, {"note": 75, "velocity": 86, "duration": 480}, {"note": 0, "velocity": 0, "duration": 240}, {"note": 72, "velocity": 86, "duration": 163}, {"note": 0, "velocity": 0, "duration": 77}, {"note": 75, "velocity": 88, "duration": 168}, {"note": 0, "velocity": 0, "duration": 72}, {"note": 77, "velocity": 83, "duration": 627}, {"note": 0, "velocity": 0, "duration": 93}, {"note": 80, "velocity": 80, "duration": 168}, {"note": 0, "velocity": 0, "duration": 72}, {"note": 80, "velocity": 85, "duration": 345}, {"note": 0, "velocity": 0, "duration": 135}, {"note": 77, "velocity": 87, "duration": 394}, {"note": 0, "velocity": 0, "duration": 86}, {"note": 75, "velocity": 86, "duration": 240}, {"note": 75, "velocity": 86, "duration": 240}, {"note": 72, "velocity": 82, "duration": 168}, {"note": 0, "velocity": 0, "duration": 72}, {"note": 70, "velocity": 82, "duration": 397}, {"note": 0, "velocity": 0, "duration": 83}, {"note": 72, "velocity": 81, "duration": 583}, {"note": 0, "velocity": 0, "duration": 137}, {"note": 70, "velocity": 83, "duration": 362}, {"note": 0, "velocity": 0, "duration": 118}, {"note": 70, "velocity": 84, "duration": 181}, {"note": 68, "velocity": 81, "duration": 150}, {"note": 0, "velocity": 0, "duration": 90}, {"note": 65, "velocity": 86, "duration": 480}, {"note": 65, "velocity": 85, "duration": 183}, {"note": 70, "velocity": 86, "duration": 240}, {"note": 68, "velocity": 82, "duration": 941}, {"note": 0, "velocity": 0, "duration": 499}, {"note": 75, "velocity": 89, "duration": 195}, {"note": 77, "velocity": 81, "duration": 176}, {"note": 0, "velocity": 0, "duration": 64}, {"note": 77, "velocity": 86, "duration": 344}, {"note": 0, "velocity": 0, "duration": 136}, {"note": 77, "velocity": 87, "duration": 688}, {"note": 72, "velocity": 83, "duration": 198}, {"note": 77, "velocity": 86, "duration": 200}, {"note": 75, "velocity": 86, "duration": 1276}, {"note": 0, "velocity": 0, "duration": 404}, {"note": 72, "velocity": 84, "duration": 176}, {"note": 0, "velocity": 0, "duration": 64}, {"note": 70, "velocity": 85, "duration": 244}, {"note": 68, "velocity": 78, "duration": 378}, {"note": 0, "velocity": 0, "duration": 102}, {"note": 68, "velocity": 79, "duration": 198}, {"note": 65, "velocity": 86, "duration": 221}, {"note": 68, "velocity": 78, "duration": 216}, {"note": 75, "velocity": 85, "duration": 426}, {"note": 72, "velocity": 80, "duration": 1266}, {"note": 0, "velocity": 0, "duration": 414}, {"note": 72, "velocity": 83, "duration": 159}, {"note": 0, "velocity": 0, "duration": 81}, {"note": 70, "velocity": 85, "duration": 211}, {"note": 68, "velocity": 79, "duration": 386}, {"note": 0, "velocity": 0, "duration": 94}, {"note": 68, "velocity": 76, "duration": 167}, {"note": 0, "velocity": 0, "duration": 73}, {"note": 68, "velocity": 81, "duration": 434}, {"note": 68, "velocity": 81, "duration": 173}, {"note": 0, "velocity": 0, "duration": 67}, {"note": 65, "velocity": 87, "duration": 198}, {"note": 63, "velocity": 85, "duration": 168}, {"note": 0, "velocity": 0, "duration": 72}, {"note": 75, "velocity": 89, "duration": 163}, {"note": 0, "velocity": 0, "duration": 77}, {"note": 77, "velocity": 86, "duration": 172}, {"note": 0, "velocity": 0, "duration": 68}, {"note": 70, "velocity": 81, "duration": 224}, {"note": 75, "velocity": 84, "duration": 189}, {"note": 72, "velocity": 75, "duration": 497}, {"note": 0, "velocity": 0, "duration": 223}, {"note": 72, "velocity": 87, "duration": 162}, {"note": 0, "velocity": 0, "duration": 78}, {"note": 77, "velocity": 87, "duration": 142}, {"note": 0, "velocity": 0, "duration": 98}, {"note": 77, "velocity": 80, "duration": 138}, {"note": 0, "velocity": 0, "duration": 102}, {"note": 77, "velocity": 85, "duration": 129}, {"note": 0, "velocity": 0, "duration": 111}, {"note": 77, "velocity": 79, "duration": 352}, {"note": 0, "velocity": 0, "duration": 128}, {"note": 77, "velocity": 87, "duration": 404}, {"note": 0, "velocity": 0, "duration": 76}, {"note": 77, "velocity": 83, "duration": 189}, {"note": 75, "velocity": 83, "duration": 1973}, {"note": 0, "velocity": 0, "duration": 1387}, {"note": 80, "velocity": 79, "duration": 229}, {"note": 82, "velocity": 83, "duration": 212}, {"note": 87, "velocity": 84, "duration": 145}, {"note": 0, "velocity": 0, "duration": 95}, {"note": 87, "velocity": 86, "duration": 119}, {"note": 0, "velocity": 0, "duration": 121}, {"note": 87, "velocity": 86, "duration": 184}, {"note": 84, "velocity": 81, "duration": 147}, {"note": 0, "velocity": 0, "duration": 93}, {"note": 84, "velocity": 82, "duration": 498}, {"note": 80, "velocity": 80, "duration": 185}, {"note": 82, "velocity": 85, "duration": 1469}, {"note": 0, "velocity": 0, "duration": 691}, {"note": 79, "velocity": 87, "duration": 185}, {"note": 79, "velocity": 86, "duration": 150}, {"note": 0, "velocity": 0, "duration": 90}, {"note": 79, "velocity": 84, "duration": 147}, {"note": 0, "velocity": 0, "duration": 93}, {"note": 79, "velocity": 85, "duration": 154}, {"note": 0, "velocity": 0, "duration": 86}, {"note": 79, "velocity": 87, "duration": 414}, {"note": 0, "velocity": 0, "duration": 66}, {"note": 75, "velocity": 87, "duration": 202}, {"note": 80, "velocity": 86, "duration": 1346}, {"note": 0, "velocity": 0, "duration": 814}, {"note": 77, "velocity": 87, "duration": 189}, {"note": 80, "velocity": 85, "duration": 362}, {"note": 0, "velocity": 0, "duration": 118}, {"note": 80, "velocity": 86, "duration": 713}, {"note": 77, "velocity": 87, "duration": 566}, {"note": 89, "velocity": 85, "duration": 469}, {"note": 87, "velocity": 85, "duration": 446}, {"note": 80, "velocity": 85, "duration": 532}, {"note": 0, "velocity": 0, "duration": 428}, {"note": 80, "velocity": 83, "duration": 164}, {"note": 0, "velocity": 0, "duration": 76}, {"note": 80, "velocity": 83, "duration": 138}, {"note": 0, "velocity": 0, "duration": 102}, {"note": 80, "velocity": 87, "duration": 138}, {"note": 0, "velocity": 0, "duration": 102}, {"note": 80, "velocity": 87, "duration": 134}, {"note": 0, "velocity": 0, "duration": 106}, {"note": 80, "velocity": 87, "duration": 473}, {"note": 77, "velocity": 81, "duration": 238}, {"note": 84, "velocity": 86, "duration": 535}, {"note": 82, "velocity": 81, "duration": 1065}, {"note": 0, "velocity": 0, "duration": 135}, {"note": 80, "velocity": 79, "duration": 229}, {"note": 82, "velocity": 83, "duration": 212}, {"note": 87, "velocity": 84, "duration": 145}, {"note": 0, "velocity": 0, "duration": 95}, {"note": 87, "velocity": 86, "duration": 119}, {"note": 0, "velocity": 0, "duration": 121}, {"note": 87, "velocity": 86, "duration": 184}, {"note": 84, "velocity": 81, "duration": 147}, {"note": 0, "velocity": 0, "duration": 93}, {"note": 84, "velocity": 82, "duration": 498}, {"note": 80, "velocity": 80, "duration": 185}, {"note": 82, "velocity": 85, "duration": 1469}, {"note": 0, "velocity": 0, "duration": 691}, {"note": 79, "velocity": 87, "duration": 185}, {"note": 79, "velocity": 86, "duration": 150}, {"note": 0, "velocity": 0, "duration": 90}, {"note": 79, "velocity": 84, "duration": 147}, {"note": 0, "velocity": 0, "duration": 93}, {"note": 79, "velocity": 85, "duration": 154}, {"note": 0, "velocity": 0, "duration": 86}, {"note": 79, "velocity": 87, "duration": 414}, {"note": 0, "velocity": 0, "duration": 66}, {"note": 75, "velocity": 87, "duration": 202}, {"note": 80, "velocity": 86, "duration": 1346}, {"note": 0, "velocity": 0, "duration": 814}, {"note": 77, "velocity": 87, "duration": 189}, {"note": 80, "velocity": 85, "duration": 362}, {"note": 0, "velocity": 0, "duration": 118}, {"note": 80, "velocity": 86, "duration": 713}, {"note": 77, "velocity": 87, "duration": 566}, {"note": 89, "velocity": 85, "duration": 469}, {"note": 87, "velocity": 85, "duration": 446}, {"note": 80, "velocity": 85, "duration": 720}, {"note": 0, "velocity": 0, "duration": 240}, {"note": 77, "velocity": 83, "duration": 164}, {"note": 0, "velocity": 0, "duration": 76}, {"note": 80, "velocity": 83, "duration": 480}, {"note": 80, "velocity": 87, "duration": 960}, {"note": 0, "velocity": 0, "duration": 960}, {"note": 82, "velocity": 85, "duration": 160}, {"note": 0, "velocity": 0, "duration": 80}, {"note": 82, "velocity": 84, "duration": 478}, {"note": 77, "velocity": 86, "duration": 281}, {"note": 82, "velocity": 81, "duration": 477}, {"note": 80, "velocity": 86, "duration": 1747}, {"note": 0, "velocity": 0, "duration": 1373}, {"note": 80, "velocity": 79, "duration": 229}, {"note": 82, "velocity": 83, "duration": 212}, {"note": 87, "velocity": 84, "duration": 145}, {"note": 0, "velocity": 0, "duration": 95}, {"note": 87, "velocity": 86, "duration": 119}, {"note": 0, "velocity": 0, "duration": 121}, {"note": 87, "velocity": 86, "duration": 184}, {"note": 84, "velocity": 81, "duration": 147}, {"note": 0, "velocity": 0, "duration": 93}, {"note": 84, "velocity": 82, "duration": 498}, {"note": 80, "velocity": 80, "duration": 185}, {"note": 82, "velocity": 85, "duration": 1469}, {"note": 0, "velocity": 0, "duration": 691}, {"note": 79, "velocity": 87, "duration": 185}, {"note": 79, "velocity": 86, "duration": 150}, {"note": 0, "velocity": 0, "duration": 90}, {"note": 79, "velocity": 84, "duration": 147}, {"note": 0, "velocity": 0, "duration": 93}, {"note": 79, "velocity": 85, "duration": 154}, {"note": 0, "velocity": 0, "duration": 86}, {"note": 79, "velocity": 87, "duration": 414}, {"note": 0, "velocity": 0, "duration": 66}, {"note": 75, "velocity": 87, "duration": 202}, {"note": 80, "velocity": 86, "duration": 1346}, {"note": 0, "velocity": 0, "duration": 814}, {"note": 77, "velocity": 87, "duration": 189}, {"note": 80, "velocity": 85, "duration": 362}, {"note": 0, "velocity": 0, "duration": 118}, {"note": 80, "velocity": 86, "duration": 713}, {"note": 77, "velocity": 87, "duration": 566}, {"note": 89, "velocity": 85, "duration": 469}, {"note": 87, "velocity": 85, "duration": 446}, {"note": 80, "velocity": 85, "duration": 532}, {"note": 0, "velocity": 0, "duration": 428}, {"note": 80, "velocity": 83, "duration": 164}, {"note": 0, "velocity": 0, "duration": 76}, {"note": 80, "velocity": 83, "duration": 138}, {"note": 0, "velocity": 0, "duration": 102}, {"note": 80, "velocity": 87, "duration": 138}, {"note": 0, "velocity": 0, "duration": 102}, {"note": 80, "velocity": 87, "duration": 134}, {"note": 0, "velocity": 0, "duration": 106}, {"note": 80, "velocity": 87, "duration": 473}, {"note": 77, "velocity": 81, "duration": 238}, {"note": 84, "velocity": 86, "duration": 535}, {"note": 82, "velocity": 81, "duration": 1065}, {"note": 0, "velocity": 0, "duration": 135}, {"note": 80, "velocity": 79, "duration": 229}, {"note": 82, "velocity": 83, "duration": 212}, {"note": 87, "velocity": 84, "duration": 145}, {"note": 0, "velocity": 0, "duration": 95}, {"note": 87, "velocity": 86, "duration": 119}, {"note": 0, "velocity": 0, "duration": 121}, {"note": 87, "velocity": 86, "duration": 184}, {"note": 84, "velocity": 81, "duration": 147}, {"note": 0, "velocity": 0, "duration": 93}, {"note": 84, "velocity": 82, "duration": 498}, {"note": 80, "velocity": 80, "duration": 185}, {"note": 82, "velocity": 85, "duration": 1469}, {"note": 0, "velocity": 0, "duration": 691}, {"note": 79, "velocity": 87, "duration": 185}, {"note": 79, "velocity": 86, "duration": 150}, {"note": 0, "velocity": 0, "duration": 90}, {"note": 79, "velocity": 84, "duration": 147}, {"note": 0, "velocity": 0, "duration": 93}, {"note": 79, "velocity": 85, "duration": 154}, {"note": 0, "velocity": 0, "duration": 86}, {"note": 79, "velocity": 87, "duration": 414}, {"note": 0, "velocity": 0, "duration": 66}, {"note": 75, "velocity": 87, "duration": 202}, {"note": 80, "velocity": 86, "duration": 1346}, {"note": 0, "velocity": 0, "duration": 814}, {"note": 77, "velocity": 87, "duration": 189}, {"note": 80, "velocity": 85, "duration": 362}, {"note": 0, "velocity": 0, "duration": 118}, {"note": 80, "velocity": 86, "duration": 713}, {"note": 77, "velocity": 87, "duration": 566}, {"note": 89, "velocity": 85, "duration": 469}, {"note": 87, "velocity": 85, "duration": 446}, {"note": 80, "velocity": 85, "duration": 720}, {"note": 0, "velocity": 0, "duration": 240}, {"note": 77, "velocity": 83, "duration": 164}, {"note": 0, "velocity": 0, "duration": 76}, {"note": 80, "velocity": 83, "duration": 480}, {"note": 80, "velocity": 87, "duration": 960}, {"note": 0, "velocity": 0, "duration": 960}, {"note": 82, "velocity": 85, "duration": 160}, {"note": 0, "velocity": 0, "duration": 80}, {"note": 82, "velocity": 84, "duration": 478}, {"note": 77, "velocity": 86, "duration": 281}, {"note": 82, "velocity": 81, "duration": 477}, {"note": 80, "velocity": 86, "duration": 1747}, {"note": 0, "velocity": 0, "duration": 1860}, {"note": 77, "velocity": 91, "duration": 330}, {"note": 80, "velocity": 87, "duration": 495}, {"note": 0, "velocity": 0, "duration": 116}, {"note": 80, "velocity": 87, "duration": 1820}, {"note": 0, "velocity": 0, "duration": 936}, {"note": 82, "velocity": 84, "duration": 391}, {"note": 82, "velocity": 80, "duration": 743}, {"note": 0, "velocity": 0, "duration": 158}, {"note": 77, "velocity": 83, "duration": 387}, {"note": 82, "velocity": 79, "duration": 553}, {"note": 80, "velocity": 85, "duration": 1857}]]