[[{"note": 69, "velocity": 76, "duration": 174}, {"note": 0, "velocity": 0, "duration": 66}, {"note": 69, "velocity": 72, "duration": 179}, {"note": 0, "velocity": 0, "duration": 61}, {"note": 69, "velocity": 76, "duration": 183}, {"note": 69, "velocity": 76, "duration": 91}, {"note": 66, "velocity": 74, "duration": 207}, {"note": 69, "velocity": 76, "duration": 623}, {"note": 0, "velocity": 0, "duration": 97}, {"note": 62, "velocity": 76, "duration": 98}, {"note": 74, "velocity": 83, "duration": 160}, {"note": 0, "velocity": 0, "duration": 80}, {"note": 74, "velocity": 80, "duration": 134}, {"note": 0, "velocity": 0, "duration": 106}, {"note": 74, "velocity": 80, "duration": 223}, {"note": 66, "velocity": 75, "duration": 205}, {"note": 69, "velocity": 76, "duration": 705}, {"note": 0, "velocity": 0, "duration": 255}, {"note": 71, "velocity": 76, "duration": 168}, {"note": 0, "velocity": 0, "duration": 72}, {"note": 71, "velocity": 76, "duration": 141}, {"note": 0, "velocity": 0, "duration": 99}, {"note": 71, "velocity": 77, "duration": 181}, {"note": 71, "velocity": 76, "duration": 89}, {"note": 69, "velocity": 76, "duration": 211}, {"note": 71, "velocity": 74, "duration": 591}, {"note": 0, "velocity": 0, "duration": 129}, {"note": 66, "velocity": 71, "duration": 81}, {"note": 66, "velocity": 76, "duration": 196}, {"note": 64, "velocity": 77, "duration": 168}, {"note": 0, "velocity": 0, "duration": 72}, {"note": 64, "velocity": 78, "duration": 257}, {"note": 62, "velocity": 71, "duration": 119}, {"note": 66, "velocity": 76, "duration": 251}, {"note": 64, "velocity": 78, "duration": 606}, {"note": 0, "velocity": 0, "duration": 234}, {"note": 66, "velocity": 78, "duration": 416}, {"note": 0, "velocity": 0, "duration": 64}, {"note": 69, "velocity": 77, "duration": 179}, {"note": 0, "velocity": 0, "duration": 61}, {"note": 69, "velocity": 72, "duration": 87}, {"note": 71, "velocity": 77, "duration": 236}, {"note": 66, "velocity": 77, "duration": 584}, {"note": 0, "velocity": 0, "duration": 136}, {"note": 66, "velocity": 77, "duration": 118}, {"note": 74, "velocity": 82, "duration": 168}, {"note": 0, "velocity": 0, "duration": 72}, {"note": 74, "velocity": 78, "duration": 159}, {"note": 0, "velocity": 0, "duration": 81}, {"note": 74, "velocity": 80, "duration": 232}, {"note": 66, "velocity": 72, "duration": 131}, {"note": 71, "velocity": 73, "duration": 649}, {"note": 0, "velocity": 0, "duration": 431}, {"note": 71, "velocity": 77, "duration": 188}, {"note": 71, "velocity": 78, "duration": 190}, {"note": 74, "velocity": 83, "duration": 166}, {"note": 0, "velocity": 0, "duration": 74}, {"note": 74, "velocity": 79, "duration": 218}, {"note": 69, "velocity": 75, "duration": 322}, {"note": 66, "velocity": 74, "duration": 307}, {"note": 69, "velocity": 76, "duration": 72}, {"note": 69, "velocity": 75, "duration": 78}, {"note": 71, "velocity": 76, "duration": 88}, {"note": 74, "velocity": 80, "duration": 191}, {"note": 74, "velocity": 82, "duration": 613}, {"note": 0, "velocity": 0, "duration": 467}, {"note": 74, "velocity": 81, "duration": 164}, {"note": 0, "velocity": 0, "duration": 76}, {"note": 74, "velocity": 80, "duration": 102}, {"note": 71, "velocity": 77, "duration": 104}, {"note": 76, "velocity": 76, "duration": 1980}, {"note": 0, "velocity": 0, "duration": 1620}, {"note": 69, "velocity": 78, "duration": 71}, {"note": 69, "velocity": 76, "duration": 78}, {"note": 78, "velocity": 74, "duration": 71}, {"note": 78, "velocity": 76, "duration": 62}, {"note": 78, "velocity": 78, "duration": 65}, {"note": 78, "velocity": 76, "duration": 60}, {"note": 78, "velocity": 78, "duration": 180}, {"note": 74, "velocity": 79, "duration": 179}, {"note": 0, "velocity": 0, "duration": 61}, {"note": 76, "velocity": 77, "duration": 66}, {"note": 78, "velocity": 76, "duration": 183}, {"note": 76, "velocity": 78, "duration": 244}, {"note": 0, "velocity": 0, "duration": 116}, {"note": 78, "velocity": 78, "duration": 99}, {"note": 76, "velocity": 80, "duration": 64}, {"note": 74, "velocity": 83, "duration": 73}, {"note": 74, "velocity": 78, "duration": 166}, {"note": 0, "velocity": 0, "duration": 74}, {"note": 74, "velocity": 79, "duration": 73}, {"note": 74, "velocity": 81, "duration": 199}, {"note": 66, "velocity": 78, "duration": 185}, {"note": 69, "velocity": 77, "duration": 399}, {"note": 0, "velocity": 0, "duration": 321}, {"note": 69, "velocity": 78, "duration": 60}, {"note": 69, "velocity": 77, "duration": 72}, {"note": 71, "velocity": 77, "duration": 103}, {"note": 74, "velocity": 79, "duration": 184}, {"note": 74, "velocity": 81, "duration": 325}, {"note": 71, "velocity": 76, "duration": 236}, {"note": 69, "velocity": 76, "duration": 538}, {"note": 0, "velocity": 0, "duration": 182}, {"note": 69, "velocity": 78, "duration": 56}, {"note": 0, "velocity": 0, "duration": 64}, {"note": 69, "velocity": 78, "duration": 61}, {"note": 71, "velocity": 73, "duration": 217}, {"note": 74, "velocity": 80, "duration": 193}, {"note": 74, "velocity": 80, "duration": 227}, {"note": 71, "velocity": 76, "duration": 257}, {"note": 76, "velocity": 77, "duration": 638}, {"note": 0, "velocity": 0, "duration": 82}, {"note": 69, "velocity": 78, "duration": 71}, {"note": 69, "velocity": 76, "duration": 78}, {"note": 78, "velocity": 74, "duration": 71}, {"note": 78, "velocity": 76, "duration": 62}, {"note": 78, "velocity": 78, "duration": 65}, {"note": 78, "velocity": 76, "duration": 60}, {"note": 78, "velocity": 78, "duration": 180}, {"note": 74, "velocity": 79, "duration": 179}, {"note": 0, "velocity": 0, "duration": 61}, {"note": 76, "velocity": 77, "duration": 66}, {"note": 78, "velocity": 76, "duration": 183}, {"note": 76, "velocity": 78, "duration": 244}, {"note": 0, "velocity": 0, "duration": 116}, {"note": 78, "velocity": 78, "duration": 99}, {"note": 76, "velocity": 80, "duration": 64}, {"note": 74, "velocity": 83, "duration": 73}, {"note": 74, "velocity": 78, "duration": 166}, {"note": 0, "velocity": 0, "duration": 74}, {"note": 74, "velocity": 79, "duration": 73}, {"note": 74, "velocity": 81, "duration": 199}, {"note": 81, "velocity": 78, "duration": 185}, {"note": 81, "velocity": 77, "duration": 399}, {"note": 0, "velocity": 0, "duration": 321}, {"note": 69, "velocity": 78, "duration": 60}, {"note": 69, "velocity": 77, "duration": 72}, {"note": 71, "velocity": 77, "duration": 103}, {"note": 74, "velocity": 79, "duration": 184}, {"note": 74, "velocity": 81, "duration": 325}, {"note": 71, "velocity": 76, "duration": 236}, {"note": 69, "velocity": 76, "duration": 538}, {"note": 0, "velocity": 0, "duration": 182}, {"note": 69, "velocity": 78, "duration": 56}, {"note": 0, "velocity": 0, "duration": 64}, {"note": 69, "velocity": 78, "duration": 61}, {"note": 71, "velocity": 73, "duration": 217}, {"note": 74, "velocity": 80, "duration": 193}, {"note": 74, "velocity": 80, "duration": 227}, {"note": 71, "velocity": 76, "duration": 257}, {"note": 76, "velocity": 77, "duration": 481}, {"note": 74, "velocity": 78, "duration": 162}, {"note": 0, "velocity": 0, "duration": 78}, {"note": 73, "velocity": 77, "duration": 188}, {"note": 74, "velocity": 78, "duration": 977}, {"note": 0, "velocity": 0, "duration": 10543}, {"note": 69, "velocity": 76, "duration": 174}, {"note": 0, "velocity": 0, "duration": 66}, {"note": 69, "velocity": 72, "duration": 179}, {"note": 0, "velocity": 0, "duration": 61}, {"note": 69, "velocity": 76, "duration": 183}, {"note": 69, "velocity": 76, "duration": 91}, {"note": 66, "velocity": 74, "duration": 207}, {"note": 69, "velocity": 76, "duration": 623}, {"note": 0, "velocity": 0, "duration": 97}, {"note": 62, "velocity": 76, "duration": 98}, {"note": 74, "velocity": 83, "duration": 160}, {"note": 0, "velocity": 0, "duration": 80}, {"note": 74, "velocity": 80, "duration": 134}, {"note": 0, "velocity": 0, "duration": 106}, {"note": 74, "velocity": 80, "duration": 223}, {"note": 66, "velocity": 75, "duration": 205}, {"note": 69, "velocity": 76, "duration": 705}, {"note": 0, "velocity": 0, "duration": 255}, {"note": 71, "velocity": 76, "duration": 168}, {"note": 0, "velocity": 0, "duration": 72}, {"note": 71, "velocity": 76, "duration": 141}, {"note": 0, "velocity": 0, "duration": 99}, {"note": 71, "velocity": 77, "duration": 181}, {"note": 71, "velocity": 76, "duration": 89}, {"note": 69, "velocity": 76, "duration": 211}, {"note": 71, "velocity": 74, "duration": 591}, {"note": 0, "velocity": 0, "duration": 129}, {"note": 66, "velocity": 71, "duration": 81}, {"note": 66, "velocity": 76, "duration": 196}, {"note": 64, "velocity": 77, "duration": 168}, {"note": 0, "velocity": 0, "duration": 72}, {"note": 64, "velocity": 78, "duration": 257}, {"note": 62, "velocity": 71, "duration": 119}, {"note": 66, "velocity": 76, "duration": 251}, {"note": 64, "velocity": 78, "duration": 606}, {"note": 0, "velocity": 0, "duration": 234}, {"note": 66, "velocity": 78, "duration": 416}, {"note": 0, "velocity": 0, "duration": 64}, {"note": 69, "velocity": 77, "duration": 179}, {"note": 0, "velocity": 0, "duration": 61}, {"note": 69, "velocity": 72, "duration": 87}, {"note": 71, "velocity": 77, "duration": 236}, {"note": 66, "velocity": 77, "duration": 584}, {"note": 0, "velocity": 0, "duration": 136}, {"note": 66, "velocity": 77, "duration": 118}, {"note": 74, "velocity": 82, "duration": 168}, {"note": 0, "velocity": 0, "duration": 72}, {"note": 74, "velocity": 78, "duration": 159}, {"note": 0, "velocity": 0, "duration": 81}, {"note": 74, "velocity": 80, "duration": 232}, {"note": 66, "velocity": 72, "duration": 131}, {"note": 71, "velocity": 73, "duration": 649}, {"note": 0, "velocity": 0, "duration": 431}, {"note": 71, "velocity": 77, "duration": 188}, {"note": 71, "velocity": 78, "duration": 190}, {"note": 74, "velocity": 83, "duration": 166}, {"note": 0, "velocity": 0, "duration": 74}, {"note": 74, "velocity": 79, "duration": 218}, {"note": 69, "velocity": 75, "duration": 322}, {"note": 66, "velocity": 74, "duration": 307}, {"note": 69, "velocity": 76, "duration": 72}, {"note": 69, "velocity": 75, "duration": 78}, {"note": 71, "velocity": 76, "duration": 88}, {"note": 74, "velocity": 80, "duration": 191}, {"note": 74, "velocity": 82, "duration": 613}, {"note": 0, "velocity": 0, "duration": 467}, {"note": 74, "velocity": 81, "duration": 164}, {"note": 0, "velocity": 0, "duration": 76}, {"note": 74, "velocity": 80, "duration": 102}, {"note": 71, "velocity": 77, "duration": 104}, {"note": 76, "velocity": 76, "duration": 1980}, {"note": 0, "velocity": 0, "duration": 1620}, {"note": 69, "velocity": 78, "duration": 71}, {"note": 69, "velocity": 76, "duration": 78}, {"note": 78, "velocity": 74, "duration": 71}, {"note": 78, "velocity": 76, "duration": 62}, {"note": 78, "velocity": 78, "duration": 65}, {"note": 78, "velocity": 76, "duration": 60}, {"note": 78, "velocity": 78, "duration": 180}, {"note": 74, "velocity": 79, "duration": 179}, {"note": 0, "velocity": 0, "duration": 61}, {"note": 76, "velocity": 77, "duration": 66}, {"note": 78, "velocity": 76, "duration": 183}, {"note": 76, "velocity": 78, "duration": 244}, {"note": 0, "velocity": 0, "duration": 116}, {"note": 78, "velocity": 78, "duration": 99}, {"note": 76, "velocity": 80, "duration": 64}, {"note": 74, "velocity": 83, "duration": 73}, {"note": 74, "velocity": 78, "duration": 166}, {"note": 0, "velocity": 0, "duration": 74}, {"note": 74, "velocity": 79, "duration": 73}, {"note": 74, "velocity": 81, "duration": 199}, {"note": 66, "velocity": 78, "duration": 185}, {"note": 69, "velocity": 77, "duration": 399}, {"note": 0, "velocity": 0, "duration": 321}, {"note": 69, "velocity": 78, "duration": 60}, {"note": 69, "velocity": 77, "duration": 72}, {"note": 71, "velocity": 77, "duration": 103}, {"note": 74, "velocity": 79, "duration": 184}, {"note": 74, "velocity": 81, "duration": 325}, {"note": 71, "velocity": 76, "duration": 236}, {"note": 69, "velocity": 76, "duration": 538}, {"note": 0, "velocity": 0, "duration": 182}, {"note": 69, "velocity": 78, "duration": 56}, {"note": 0, "velocity": 0, "duration": 64}, {"note": 69, "velocity": 78, "duration": 61}, {"note": 71, "velocity": 73, "duration": 217}, {"note": 74, "velocity": 80, "duration": 193}, {"note": 74, "velocity": 80, "duration": 227}, {"note": 71, "velocity": 76, "duration": 257}, {"note": 76, "velocity": 77, "duration": 638}, {"note": 0, "velocity": 0, "duration": 82}, {"note": 69, "velocity": 78, "duration": 71}, {"note": 69, "velocity": 76, "duration": 78}, {"note": 78, "velocity": 74, "duration": 71}, {"note": 78, "velocity": 76, "duration": 62}, {"note": 78, "velocity": 78, "duration": 65}, {"note": 78, "velocity": 76, "duration": 60}, {"note": 78, "velocity": 78, "duration": 180}, {"note": 74, "velocity": 79, "duration": 179}, {"note": 0, "velocity": 0, "duration": 61}, {"note": 76, "velocity": 77, "duration": 66}, {"note": 78, "velocity": 76, "duration": 183}, {"note": 76, "velocity": 78, "duration": 244}, {"note": 0, "velocity": 0, "duration": 116}, {"note": 78, "velocity": 78, "duration": 99}, {"note": 76, "velocity": 80, "duration": 64}, {"note": 74, "velocity": 83, "duration": 73}, {"note": 74, "velocity": 78, "duration": 166}, {"note": 0, "velocity": 0, "duration": 74}, {"note": 74, "velocity": 79, "duration": 73}, {"note": 74, "velocity": 81, "duration": 199}, {"note": 81, "velocity": 78, "duration": 185}, {"note": 81, "velocity": 77, "duration": 399}, {"note": 0, "velocity": 0, "duration": 321}, {"note": 69, "velocity": 78, "duration": 60}, {"note": 69, "velocity": 77, "duration": 72}, {"note": 71, "velocity": 77, "duration": 103}, {"note": 74, "velocity": 79, "duration": 184}, {"note": 74, "velocity": 81, "duration": 325}, {"note": 71, "velocity": 76, "duration": 236}, {"note": 69, "velocity": 76, "duration": 538}, {"note": 0, "velocity": 0, "duration": 182}, {"note": 69, "velocity": 78, "duration": 56}, {"note": 0, "velocity": 0, "duration": 64}, {"note": 69, "velocity": 78, "duration": 61}, {"note": 71, "velocity": 73, "duration": 217}, {"note": 74, "velocity": 80, "duration": 193}, {"note": 74, "velocity": 80, "duration": 227}, {"note": 71, "velocity": 76, "duration": 257}, {"note": 76, "velocity": 77, "duration": 481}, {"note": 74, "velocity": 78, "duration": 162}, {"note": 0, "velocity": 0, "duration": 78}, {"note": 73, "velocity": 77, "duration": 188}, {"note": 74, "velocity": 78, "duration": 977}, {"note": 0, "velocity": 0, "duration": 703}, {"note": 69, "velocity": 78, "duration": 71}, {"note": 69, "velocity": 76, "duration": 78}, {"note": 78, "velocity": 74, "duration": 71}, {"note": 78, "velocity": 76, "duration": 62}, {"note": 78, "velocity": 78, "duration": 65}, {"note": 78, "velocity": 76, "duration": 60}, {"note": 78, "velocity": 78, "duration": 180}, {"note": 74, "velocity": 79, "duration": 179}, {"note": 0, "velocity": 0, "duration": 61}, {"note": 76, "velocity": 77, "duration": 66}, {"note": 78, "velocity": 76, "duration": 183}, {"note": 76, "velocity": 78, "duration": 244}, {"note": 0, "velocity": 0, "duration": 116}, {"note": 78, "velocity": 78, "duration": 99}, {"note": 76, "velocity": 80, "duration": 64}, {"note": 74, "velocity": 83, "duration": 73}, {"note": 74, "velocity": 78, "duration": 166}, {"note": 0, "velocity": 0, "duration": 74}, {"note": 74, "velocity": 79, "duration": 73}, {"note": 74, "velocity": 81, "duration": 199}, {"note": 66, "velocity": 78, "duration": 185}, {"note": 69, "velocity": 77, "duration": 399}, {"note": 0, "velocity": 0, "duration": 321}, {"note": 69, "velocity": 78, "duration": 60}, {"note": 69, "velocity": 77, "duration": 72}, {"note": 71, "velocity": 77, "duration": 103}, {"note": 74, "velocity": 79, "duration": 184}, {"note": 74, "velocity": 81, "duration": 325}, {"note": 71, "velocity": 76, "duration": 236}, {"note": 69, "velocity": 76, "duration": 538}, {"note": 0, "velocity": 0, "duration": 182}, {"note": 69, "velocity": 78, "duration": 56}, {"note": 0, "velocity": 0, "duration": 64}, {"note": 69, "velocity": 78, "duration": 61}, {"note": 71, "velocity": 73, "duration": 217}, {"note": 74, "velocity": 80, "duration": 193}, {"note": 74, "velocity": 80, "duration": 227}, {"note": 71, "velocity": 76, "duration": 257}, {"note": 76, "velocity": 77, "duration": 638}, {"note": 0, "velocity": 0, "duration": 82}, {"note": 69, "velocity": 78, "duration": 71}, {"note": 69, "velocity": 76, "duration": 78}, {"note": 78, "velocity": 74, "duration": 71}, {"note": 78, "velocity": 76, "duration": 62}, {"note": 78, "velocity": 78, "duration": 65}, {"note": 78, "velocity": 76, "duration": 60}, {"note": 78, "velocity": 78, "duration": 180}, {"note": 74, "velocity": 79, "duration": 179}, {"note": 0, "velocity": 0, "duration": 61}, {"note": 76, "velocity": 77, "duration": 66}, {"note": 78, "velocity": 76, "duration": 183}, {"note": 76, "velocity": 78, "duration": 244}, {"note": 0, "velocity": 0, "duration": 116}, {"note": 78, "velocity": 78, "duration": 99}, {"note": 76, "velocity": 80, "duration": 64}, {"note": 74, "velocity": 83, "duration": 73}, {"note": 74, "velocity": 78, "duration": 166}, {"note": 0, "velocity": 0, "duration": 74}, {"note": 74, "velocity": 79, "duration": 73}, {"note": 74, "velocity": 81, "duration": 199}, {"note": 81, "velocity": 78, "duration": 185}, {"note": 81, "velocity": 77, "duration": 399}, {"note": 0, "velocity": 0, "duration": 321}, {"note": 69, "velocity": 78, "duration": 60}, {"note": 69, "velocity": 77, "duration": 72}, {"note": 71, "velocity": 77, "duration": 103}, {"note": 74, "velocity": 79, "duration": 184}, {"note": 74, "velocity": 81, "duration": 325}, {"note": 71, "velocity": 76, "duration": 236}, {"note": 69, "velocity": 76, "duration": 538}, {"note": 0, "velocity": 0, "duration": 182}, {"note": 69, "velocity": 78, "duration": 56}, {"note": 0, "velocity": 0, "duration": 64}, {"note": 69, "velocity": 78, "duration": 61}, {"note": 71, "velocity": 73, "duration": 217}, {"note": 74, "velocity": 80, "duration": 193}, {"note": 74, "velocity": 80, "duration": 227}, {"note": 71, "velocity": 76, "duration": 257}, {"note": 76, "velocity": 77, "duration": 481}, {"note": 74, "velocity": 78, "duration": 162}, {"note": 0, "velocity": 0, "duration": 78}, {"note": 73, "velocity": 77, "duration": 188}, {"note": 74, "velocity": 78, "duration": 977}]]