[[{"note": 74, "velocity": 81, "duration": 857}, {"note": 0, "velocity": 0, "duration": 103}, {"note": 72, "velocity": 77, "duration": 198}, {"note": 74, "velocity": 78, "duration": 194}, {"note": 72, "velocity": 76, "duration": 457}, {"note": 70, "velocity": 77, "duration": 1573}, {"note": 0, "velocity": 0, "duration": 347}, {"note": 72, "velocity": 78, "duration": 490}, {"note": 69, "velocity": 71, "duration": 239}, {"note": 72, "velocity": 77, "duration": 232}, {"note": 67, "velocity": 71, "duration": 478}, {"note": 69, "velocity": 72, "duration": 263}, {"note": 67, "velocity": 68, "duration": 227}, {"note": 65, "velocity": 78, "duration": 1591}, {"note": 0, "velocity": 0, "duration": 329}, {"note": 74, "velocity": 82, "duration": 194}, {"note": 77, "velocity": 77, "duration": 398}, {"note": 0, "velocity": 0, "duration": 82}, {"note": 74, "velocity": 72, "duration": 156}, {"note": 0, "velocity": 0, "duration": 84}, {"note": 74, "velocity": 83, "duration": 175}, {"note": 0, "velocity": 0, "duration": 65}, {"note": 72, "velocity": 72, "duration": 210}, {"note": 70, "velocity": 79, "duration": 422}, {"note": 70, "velocity": 79, "duration": 213}, {"note": 67, "velocity": 76, "duration": 470}, {"note": 65, "velocity": 73, "duration": 266}, {"note": 67, "velocity": 76, "duration": 838}, {"note": 0, "velocity": 0, "duration": 122}, {"note": 70, "velocity": 78, "duration": 586}, {"note": 0, "velocity": 0, "duration": 134}, {"note": 72, "velocity": 71, "duration": 242}, {"note": 74, "velocity": 82, "duration": 498}, {"note": 77, "velocity": 76, "duration": 522}, {"note": 82, "velocity": 76, "duration": 250}, {"note": 79, "velocity": 76, "duration": 421}, {"note": 77, "velocity": 71, "duration": 306}, {"note": 74, "velocity": 80, "duration": 478}, {"note": 72, "velocity": 76, "duration": 238}, {"note": 74, "velocity": 76, "duration": 247}, {"note": 72, "velocity": 77, "duration": 1837}, {"note": 0, "velocity": 0, "duration": 2003}, {"note": 74, "velocity": 81, "duration": 857}, {"note": 0, "velocity": 0, "duration": 103}, {"note": 72, "velocity": 77, "duration": 198}, {"note": 74, "velocity": 78, "duration": 194}, {"note": 72, "velocity": 76, "duration": 457}, {"note": 70, "velocity": 77, "duration": 1573}, {"note": 0, "velocity": 0, "duration": 347}, {"note": 72, "velocity": 78, "duration": 490}, {"note": 69, "velocity": 71, "duration": 239}, {"note": 72, "velocity": 77, "duration": 232}, {"note": 67, "velocity": 71, "duration": 478}, {"note": 69, "velocity": 72, "duration": 263}, {"note": 65, "velocity": 68, "duration": 227}, {"note": 67, "velocity": 78, "duration": 1591}, {"note": 0, "velocity": 0, "duration": 329}, {"note": 65, "velocity": 78, "duration": 621}, {"note": 0, "velocity": 0, "duration": 99}, {"note": 67, "velocity": 75, "duration": 201}, {"note": 70, "velocity": 76, "duration": 389}, {"note": 0, "velocity": 0, "duration": 91}, {"note": 72, "velocity": 77, "duration": 407}, {"note": 0, "velocity": 0, "duration": 73}, {"note": 74, "velocity": 78, "duration": 421}, {"note": 77, "velocity": 74, "duration": 393}, {"note": 0, "velocity": 0, "duration": 87}, {"note": 72, "velocity": 65, "duration": 223}, {"note": 70, "velocity": 76, "duration": 224}, {"note": 67, "velocity": 76, "duration": 415}, {"note": 0, "velocity": 0, "duration": 65}, {"note": 70, "velocity": 78, "duration": 586}, {"note": 0, "velocity": 0, "duration": 134}, {"note": 72, "velocity": 71, "duration": 242}, {"note": 74, "velocity": 82, "duration": 498}, {"note": 77, "velocity": 76, "duration": 522}, {"note": 82, "velocity": 76, "duration": 250}, {"note": 79, "velocity": 76, "duration": 421}, {"note": 77, "velocity": 71, "duration": 306}, {"note": 74, "velocity": 80, "duration": 478}, {"note": 72, "velocity": 76, "duration": 238}, {"note": 74, "velocity": 76, "duration": 247}, {"note": 77, "velocity": 77, "duration": 1837}, {"note": 0, "velocity": 0, "duration": 2003}, {"note": 79, "velocity": 79, "duration": 156}, {"note": 0, "velocity": 0, "duration": 84}, {"note": 79, "velocity": 76, "duration": 458}, {"note": 77, "velocity": 77, "duration": 257}, {"note": 79, "velocity": 77, "duration": 284}, {"note": 82, "velocity": 71, "duration": 294}, {"note": 79, "velocity": 76, "duration": 244}, {"note": 77, "velocity": 73, "duration": 276}, {"note": 79, "velocity": 76, "duration": 1713}, {"note": 0, "velocity": 0, "duration": 207}, {"note": 79, "velocity": 76, "duration": 246}, {"note": 82, "velocity": 74, "duration": 247}, {"note": 79, "velocity": 77, "duration": 282}, {"note": 82, "velocity": 71, "duration": 265}, {"note": 77, "velocity": 72, "duration": 673}, {"note": 82, "velocity": 72, "duration": 171}, {"note": 0, "velocity": 0, "duration": 69}, {"note": 79, "velocity": 76, "duration": 468}, {"note": 77, "velocity": 75, "duration": 245}, {"note": 74, "velocity": 78, "duration": 260}, {"note": 72, "velocity": 77, "duration": 865}, {"note": 0, "velocity": 0, "duration": 95}, {"note": 74, "velocity": 85, "duration": 370}, {"note": 0, "velocity": 0, "duration": 110}, {"note": 74, "velocity": 80, "duration": 913}, {"note": 77, "velocity": 75, "duration": 260}, {"note": 79, "velocity": 71, "duration": 269}, {"note": 77, "velocity": 76, "duration": 462}, {"note": 74, "velocity": 77, "duration": 267}, {"note": 72, "velocity": 72, "duration": 258}, {"note": 70, "velocity": 74, "duration": 846}, {"note": 0, "velocity": 0, "duration": 114}, {"note": 70, "velocity": 81, "duration": 684}, {"note": 72, "velocity": 73, "duration": 239}, {"note": 75, "velocity": 76, "duration": 744}, {"note": 74, "velocity": 75, "duration": 278}, {"note": 72, "velocity": 73, "duration": 1565}, {"note": 0, "velocity": 0, "duration": 355}, {"note": 65, "velocity": 77, "duration": 1004}, {"note": 74, "velocity": 77, "duration": 718}, {"note": 77, "velocity": 71, "duration": 238}, {"note": 72, "velocity": 72, "duration": 276}, {"note": 74, "velocity": 76, "duration": 278}, {"note": 72, "velocity": 76, "duration": 274}, {"note": 70, "velocity": 71, "duration": 258}, {"note": 67, "velocity": 72, "duration": 269}, {"note": 70, "velocity": 64, "duration": 290}, {"note": 67, "velocity": 69, "duration": 478}, {"note": 70, "velocity": 76, "duration": 1918}, {"note": 0, "velocity": 0, "duration": 36482}, {"note": 74, "velocity": 81, "duration": 857}, {"note": 0, "velocity": 0, "duration": 103}, {"note": 72, "velocity": 77, "duration": 198}, {"note": 74, "velocity": 78, "duration": 194}, {"note": 72, "velocity": 76, "duration": 457}, {"note": 70, "velocity": 77, "duration": 1573}, {"note": 0, "velocity": 0, "duration": 347}, {"note": 72, "velocity": 78, "duration": 490}, {"note": 69, "velocity": 71, "duration": 239}, {"note": 72, "velocity": 77, "duration": 232}, {"note": 67, "velocity": 71, "duration": 478}, {"note": 69, "velocity": 72, "duration": 263}, {"note": 67, "velocity": 68, "duration": 227}, {"note": 65, "velocity": 78, "duration": 1591}, {"note": 0, "velocity": 0, "duration": 329}, {"note": 74, "velocity": 82, "duration": 194}, {"note": 77, "velocity": 77, "duration": 398}, {"note": 0, "velocity": 0, "duration": 82}, {"note": 74, "velocity": 72, "duration": 156}, {"note": 0, "velocity": 0, "duration": 84}, {"note": 74, "velocity": 83, "duration": 175}, {"note": 0, "velocity": 0, "duration": 65}, {"note": 72, "velocity": 72, "duration": 210}, {"note": 70, "velocity": 79, "duration": 422}, {"note": 70, "velocity": 79, "duration": 213}, {"note": 67, "velocity": 76, "duration": 470}, {"note": 65, "velocity": 73, "duration": 266}, {"note": 67, "velocity": 76, "duration": 838}, {"note": 0, "velocity": 0, "duration": 122}, {"note": 70, "velocity": 78, "duration": 586}, {"note": 0, "velocity": 0, "duration": 134}, {"note": 72, "velocity": 71, "duration": 242}, {"note": 74, "velocity": 82, "duration": 498}, {"note": 77, "velocity": 76, "duration": 522}, {"note": 82, "velocity": 76, "duration": 250}, {"note": 79, "velocity": 76, "duration": 421}, {"note": 77, "velocity": 71, "duration": 306}, {"note": 74, "velocity": 80, "duration": 478}, {"note": 72, "velocity": 76, "duration": 238}, {"note": 74, "velocity": 76, "duration": 247}, {"note": 72, "velocity": 77, "duration": 1837}, {"note": 0, "velocity": 0, "duration": 2003}, {"note": 74, "velocity": 81, "duration": 857}, {"note": 0, "velocity": 0, "duration": 103}, {"note": 72, "velocity": 77, "duration": 198}, {"note": 74, "velocity": 78, "duration": 194}, {"note": 72, "velocity": 76, "duration": 457}, {"note": 70, "velocity": 77, "duration": 1573}, {"note": 0, "velocity": 0, "duration": 347}, {"note": 72, "velocity": 78, "duration": 490}, {"note": 69, "velocity": 71, "duration": 239}, {"note": 72, "velocity": 77, "duration": 232}, {"note": 67, "velocity": 71, "duration": 478}, {"note": 69, "velocity": 72, "duration": 263}, {"note": 65, "velocity": 68, "duration": 227}, {"note": 67, "velocity": 78, "duration": 1591}, {"note": 0, "velocity": 0, "duration": 329}, {"note": 65, "velocity": 78, "duration": 621}, {"note": 0, "velocity": 0, "duration": 99}, {"note": 67, "velocity": 75, "duration": 201}, {"note": 70, "velocity": 76, "duration": 389}, {"note": 0, "velocity": 0, "duration": 91}, {"note": 72, "velocity": 77, "duration": 407}, {"note": 0, "velocity": 0, "duration": 73}, {"note": 74, "velocity": 78, "duration": 421}, {"note": 77, "velocity": 74, "duration": 393}, {"note": 0, "velocity": 0, "duration": 87}, {"note": 72, "velocity": 65, "duration": 223}, {"note": 70, "velocity": 76, "duration": 224}, {"note": 67, "velocity": 76, "duration": 415}, {"note": 0, "velocity": 0, "duration": 65}, {"note": 70, "velocity": 78, "duration": 586}, {"note": 0, "velocity": 0, "duration": 134}, {"note": 72, "velocity": 71, "duration": 242}, {"note": 74, "velocity": 82, "duration": 498}, {"note": 77, "velocity": 76, "duration": 522}, {"note": 82, "velocity": 76, "duration": 250}, {"note": 79, "velocity": 76, "duration": 421}, {"note": 77, "velocity": 71, "duration": 306}, {"note": 74, "velocity": 80, "duration": 478}, {"note": 72, "velocity": 76, "duration": 238}, {"note": 74, "velocity": 76, "duration": 247}, {"note": 77, "velocity": 77, "duration": 1837}, {"note": 0, "velocity": 0, "duration": 2003}, {"note": 79, "velocity": 79, "duration": 156}, {"note": 0, "velocity": 0, "duration": 84}, {"note": 79, "velocity": 76, "duration": 458}, {"note": 77, "velocity": 77, "duration": 257}, {"note": 79, "velocity": 77, "duration": 284}, {"note": 82, "velocity": 71, "duration": 294}, {"note": 79, "velocity": 76, "duration": 244}, {"note": 77, "velocity": 73, "duration": 276}, {"note": 79, "velocity": 76, "duration": 1713}, {"note": 0, "velocity": 0, "duration": 207}, {"note": 79, "velocity": 76, "duration": 246}, {"note": 82, "velocity": 74, "duration": 247}, {"note": 79, "velocity": 77, "duration": 282}, {"note": 82, "velocity": 71, "duration": 265}, {"note": 77, "velocity": 72, "duration": 673}, {"note": 82, "velocity": 72, "duration": 171}, {"note": 0, "velocity": 0, "duration": 69}, {"note": 79, "velocity": 76, "duration": 468}, {"note": 77, "velocity": 75, "duration": 245}, {"note": 74, "velocity": 78, "duration": 260}, {"note": 72, "velocity": 77, "duration": 865}, {"note": 0, "velocity": 0, "duration": 95}, {"note": 74, "velocity": 85, "duration": 370}, {"note": 0, "velocity": 0, "duration": 110}, {"note": 74, "velocity": 80, "duration": 913}, {"note": 77, "velocity": 75, "duration": 260}, {"note": 79, "velocity": 71, "duration": 269}, {"note": 77, "velocity": 76, "duration": 462}, {"note": 74, "velocity": 77, "duration": 267}, {"note": 72, "velocity": 72, "duration": 258}, {"note": 70, "velocity": 74, "duration": 846}, {"note": 0, "velocity": 0, "duration": 114}, {"note": 70, "velocity": 81, "duration": 684}, {"note": 72, "velocity": 73, "duration": 239}, {"note": 75, "velocity": 76, "duration": 744}, {"note": 74, "velocity": 75, "duration": 278}, {"note": 72, "velocity": 73, "duration": 1565}, {"note": 0, "velocity": 0, "duration": 355}, {"note": 65, "velocity": 77, "duration": 1004}, {"note": 74, "velocity": 77, "duration": 718}, {"note": 77, "velocity": 71, "duration": 238}, {"note": 72, "velocity": 72, "duration": 276}, {"note": 74, "velocity": 76, "duration": 278}, {"note": 72, "velocity": 76, "duration": 274}, {"note": 70, "velocity": 71, "duration": 258}, {"note": 67, "velocity": 72, "duration": 269}, {"note": 70, "velocity": 64, "duration": 290}, {"note": 67, "velocity": 69, "duration": 478}, {"note": 70, "velocity": 76, "duration": 1918}, {"note": 0, "velocity": 0, "duration": 1922}, {"note": 82, "velocity": 79, "duration": 156}, {"note": 0, "velocity": 0, "duration": 84}, {"note": 82, "velocity": 76, "duration": 478}, {"note": 82, "velocity": 77, "duration": 257}, {"note": 79, "velocity": 77, "duration": 284}, {"note": 82, "velocity": 71, "duration": 294}, {"note": 79, "velocity": 76, "duration": 244}, {"note": 77, "velocity": 73, "duration": 276}, {"note": 79, "velocity": 76, "duration": 1713}, {"note": 0, "velocity": 0, "duration": 207}, {"note": 79, "velocity": 76, "duration": 246}, {"note": 82, "velocity": 74, "duration": 247}, {"note": 79, "velocity": 77, "duration": 282}, {"note": 82, "velocity": 71, "duration": 265}, {"note": 77, "velocity": 72, "duration": 673}, {"note": 82, "velocity": 72, "duration": 171}, {"note": 0, "velocity": 0, "duration": 69}, {"note": 79, "velocity": 76, "duration": 468}, {"note": 77, "velocity": 75, "duration": 245}, {"note": 74, "velocity": 78, "duration": 260}, {"note": 72, "velocity": 77, "duration": 865}, {"note": 0, "velocity": 0, "duration": 95}, {"note": 74, "velocity": 85, "duration": 370}, {"note": 0, "velocity": 0, "duration": 110}, {"note": 74, "velocity": 80, "duration": 913}, {"note": 77, "velocity": 75, "duration": 260}, {"note": 79, "velocity": 71, "duration": 269}, {"note": 77, "velocity": 76, "duration": 462}, {"note": 74, "velocity": 77, "duration": 267}, {"note": 72, "velocity": 72, "duration": 258}, {"note": 70, "velocity": 74, "duration": 846}, {"note": 0, "velocity": 0, "duration": 114}, {"note": 70, "velocity": 81, "duration": 684}, {"note": 72, "velocity": 73, "duration": 239}, {"note": 75, "velocity": 76, "duration": 744}, {"note": 74, "velocity": 75, "duration": 278}, {"note": 72, "velocity": 73, "duration": 1565}, {"note": 0, "velocity": 0, "duration": 355}, {"note": 77, "velocity": 77, "duration": 1004}, {"note": 79, "velocity": 77, "duration": 718}, {"note": 0, "velocity": 0, "duration": 242}, {"note": 82, "velocity": 77, "duration": 238}, {"note": 84, "velocity": 77, "duration": 718}, {"note": 84, "velocity": 77, "duration": 478}, {"note": 82, "velocity": 77, "duration": 478}, {"note": 82, "velocity": 77, "duration": 2638}]]