[[{"note": 62, "velocity": 77, "duration": 71}, {"note": 62, "velocity": 83, "duration": 72}, {"note": 62, "velocity": 82, "duration": 75}, {"note": 62, "velocity": 84, "duration": 70}, {"note": 62, "velocity": 82, "duration": 204}, {"note": 64, "velocity": 82, "duration": 122}, {"note": 67, "velocity": 76, "duration": 746}, {"note": 0, "velocity": 0, "duration": 94}, {"note": 67, "velocity": 84, "duration": 86}, {"note": 69, "velocity": 80, "duration": 94}, {"note": 71, "velocity": 83, "duration": 179}, {"note": 0, "velocity": 0, "duration": 61}, {"note": 71, "velocity": 84, "duration": 150}, {"note": 0, "velocity": 0, "duration": 90}, {"note": 71, "velocity": 85, "duration": 227}, {"note": 69, "velocity": 79, "duration": 147}, {"note": 71, "velocity": 83, "duration": 884}, {"note": 0, "velocity": 0, "duration": 196}, {"note": 64, "velocity": 88, "duration": 91}, {"note": 67, "velocity": 72, "duration": 136}, {"note": 0, "velocity": 0, "duration": 104}, {"note": 67, "velocity": 85, "duration": 300}, {"note": 64, "velocity": 85, "duration": 84}, {"note": 62, "velocity": 84, "duration": 87}, {"note": 64, "velocity": 90, "duration": 229}, {"note": 67, "velocity": 82, "duration": 115}, {"note": 64, "velocity": 88, "duration": 277}, {"note": 0, "velocity": 0, "duration": 83}, {"note": 64, "velocity": 86, "duration": 64}, {"note": 67, "velocity": 82, "duration": 70}, {"note": 69, "velocity": 86, "duration": 120}, {"note": 69, "velocity": 86, "duration": 120}, {"note": 69, "velocity": 86, "duration": 120}, {"note": 69, "velocity": 86, "duration": 360}, {"note": 71, "velocity": 86, "duration": 226}, {"note": 62, "velocity": 87, "duration": 773}, {"note": 0, "velocity": 0, "duration": 187}, {"note": 62, "velocity": 77, "duration": 71}, {"note": 62, "velocity": 83, "duration": 72}, {"note": 62, "velocity": 82, "duration": 75}, {"note": 62, "velocity": 84, "duration": 70}, {"note": 62, "velocity": 82, "duration": 204}, {"note": 64, "velocity": 82, "duration": 122}, {"note": 67, "velocity": 76, "duration": 746}, {"note": 0, "velocity": 0, "duration": 94}, {"note": 67, "velocity": 84, "duration": 86}, {"note": 69, "velocity": 80, "duration": 94}, {"note": 71, "velocity": 83, "duration": 179}, {"note": 0, "velocity": 0, "duration": 61}, {"note": 71, "velocity": 84, "duration": 150}, {"note": 0, "velocity": 0, "duration": 90}, {"note": 71, "velocity": 85, "duration": 227}, {"note": 69, "velocity": 79, "duration": 147}, {"note": 71, "velocity": 83, "duration": 884}, {"note": 0, "velocity": 0, "duration": 196}, {"note": 64, "velocity": 88, "duration": 91}, {"note": 67, "velocity": 72, "duration": 136}, {"note": 0, "velocity": 0, "duration": 104}, {"note": 67, "velocity": 85, "duration": 300}, {"note": 64, "velocity": 85, "duration": 84}, {"note": 62, "velocity": 84, "duration": 87}, {"note": 64, "velocity": 90, "duration": 229}, {"note": 67, "velocity": 82, "duration": 115}, {"note": 64, "velocity": 88, "duration": 277}, {"note": 0, "velocity": 0, "duration": 83}, {"note": 64, "velocity": 86, "duration": 64}, {"note": 67, "velocity": 82, "duration": 70}, {"note": 69, "velocity": 86, "duration": 120}, {"note": 69, "velocity": 86, "duration": 120}, {"note": 69, "velocity": 86, "duration": 120}, {"note": 69, "velocity": 86, "duration": 120}, {"note": 69, "velocity": 86, "duration": 240}, {"note": 71, "velocity": 86, "duration": 226}, {"note": 67, "velocity": 87, "duration": 773}, {"note": 0, "velocity": 0, "duration": 1387}, {"note": 67, "velocity": 80, "duration": 268}, {"note": 69, "velocity": 81, "duration": 226}, {"note": 71, "velocity": 85, "duration": 289}, {"note": 74, "velocity": 87, "duration": 76}, {"note": 74, "velocity": 88, "duration": 177}, {"note": 0, "velocity": 0, "duration": 63}, {"note": 74, "velocity": 89, "duration": 73}, {"note": 74, "velocity": 95, "duration": 565}, {"note": 0, "velocity": 0, "duration": 155}, {"note": 71, "velocity": 84, "duration": 207}, {"note": 69, "velocity": 86, "duration": 227}, {"note": 67, "velocity": 84, "duration": 119}, {"note": 69, "velocity": 85, "duration": 353}, {"note": 64, "velocity": 86, "duration": 1240}, {"note": 0, "velocity": 0, "duration": 440}, {"note": 69, "velocity": 82, "duration": 87}, {"note": 69, "velocity": 85, "duration": 170}, {"note": 0, "velocity": 0, "duration": 70}, {"note": 69, "velocity": 84, "duration": 80}, {"note": 69, "velocity": 84, "duration": 627}, {"note": 0, "velocity": 0, "duration": 93}, {"note": 69, "velocity": 85, "duration": 245}, {"note": 71, "velocity": 77, "duration": 230}, {"note": 67, "velocity": 85, "duration": 271}, {"note": 76, "velocity": 85, "duration": 779}, {"note": 0, "velocity": 0, "duration": 61}, {"note": 71, "velocity": 84, "duration": 120}, {"note": 74, "velocity": 88, "duration": 843}, {"note": 0, "velocity": 0, "duration": 117}, {"note": 74, "velocity": 86, "duration": 75}, {"note": 74, "velocity": 86, "duration": 188}, {"note": 74, "velocity": 85, "duration": 70}, {"note": 74, "velocity": 86, "duration": 679}, {"note": 71, "velocity": 85, "duration": 186}, {"note": 71, "velocity": 85, "duration": 191}, {"note": 74, "velocity": 86, "duration": 192}, {"note": 76, "velocity": 86, "duration": 720}, {"note": 71, "velocity": 87, "duration": 118}, {"note": 69, "velocity": 82, "duration": 118}, {"note": 67, "velocity": 84, "duration": 480}, {"note": 67, "velocity": 84, "duration": 76}, {"note": 67, "velocity": 83, "duration": 187}, {"note": 71, "velocity": 88, "duration": 133}, {"note": 69, "velocity": 85, "duration": 225}, {"note": 67, "velocity": 76, "duration": 118}, {"note": 64, "velocity": 87, "duration": 622}, {"note": 0, "velocity": 0, "duration": 458}, {"note": 67, "velocity": 85, "duration": 64}, {"note": 67, "velocity": 85, "duration": 86}, {"note": 69, "velocity": 84, "duration": 134}, {"note": 71, "velocity": 83, "duration": 137}, {"note": 69, "velocity": 83, "duration": 1150}, {"note": 0, "velocity": 0, "duration": 290}, {"note": 71, "velocity": 85, "duration": 70}, {"note": 71, "velocity": 83, "duration": 86}, {"note": 69, "velocity": 80, "duration": 233}, {"note": 67, "velocity": 77, "duration": 1513}, {"note": 0, "velocity": 0, "duration": 15767}, {"note": 62, "velocity": 77, "duration": 71}, {"note": 62, "velocity": 83, "duration": 72}, {"note": 62, "velocity": 82, "duration": 75}, {"note": 62, "velocity": 84, "duration": 70}, {"note": 62, "velocity": 82, "duration": 204}, {"note": 64, "velocity": 82, "duration": 122}, {"note": 67, "velocity": 76, "duration": 746}, {"note": 0, "velocity": 0, "duration": 94}, {"note": 67, "velocity": 84, "duration": 86}, {"note": 69, "velocity": 80, "duration": 94}, {"note": 71, "velocity": 83, "duration": 179}, {"note": 0, "velocity": 0, "duration": 61}, {"note": 71, "velocity": 84, "duration": 150}, {"note": 0, "velocity": 0, "duration": 90}, {"note": 71, "velocity": 85, "duration": 227}, {"note": 69, "velocity": 79, "duration": 147}, {"note": 71, "velocity": 83, "duration": 884}, {"note": 0, "velocity": 0, "duration": 196}, {"note": 64, "velocity": 88, "duration": 91}, {"note": 67, "velocity": 72, "duration": 136}, {"note": 0, "velocity": 0, "duration": 104}, {"note": 67, "velocity": 85, "duration": 300}, {"note": 64, "velocity": 85, "duration": 84}, {"note": 62, "velocity": 84, "duration": 87}, {"note": 64, "velocity": 90, "duration": 229}, {"note": 67, "velocity": 82, "duration": 115}, {"note": 64, "velocity": 88, "duration": 277}, {"note": 0, "velocity": 0, "duration": 83}, {"note": 64, "velocity": 86, "duration": 64}, {"note": 67, "velocity": 82, "duration": 70}, {"note": 69, "velocity": 86, "duration": 120}, {"note": 69, "velocity": 86, "duration": 120}, {"note": 69, "velocity": 86, "duration": 120}, {"note": 69, "velocity": 86, "duration": 360}, {"note": 71, "velocity": 86, "duration": 226}, {"note": 62, "velocity": 87, "duration": 773}, {"note": 0, "velocity": 0, "duration": 187}, {"note": 62, "velocity": 77, "duration": 71}, {"note": 62, "velocity": 83, "duration": 72}, {"note": 62, "velocity": 82, "duration": 75}, {"note": 62, "velocity": 84, "duration": 70}, {"note": 62, "velocity": 82, "duration": 204}, {"note": 64, "velocity": 82, "duration": 122}, {"note": 67, "velocity": 76, "duration": 746}, {"note": 0, "velocity": 0, "duration": 94}, {"note": 67, "velocity": 84, "duration": 86}, {"note": 69, "velocity": 80, "duration": 94}, {"note": 71, "velocity": 83, "duration": 179}, {"note": 0, "velocity": 0, "duration": 61}, {"note": 71, "velocity": 84, "duration": 150}, {"note": 0, "velocity": 0, "duration": 90}, {"note": 71, "velocity": 85, "duration": 227}, {"note": 69, "velocity": 79, "duration": 147}, {"note": 71, "velocity": 83, "duration": 884}, {"note": 0, "velocity": 0, "duration": 196}, {"note": 64, "velocity": 88, "duration": 91}, {"note": 67, "velocity": 72, "duration": 136}, {"note": 0, "velocity": 0, "duration": 104}, {"note": 67, "velocity": 85, "duration": 300}, {"note": 64, "velocity": 85, "duration": 84}, {"note": 62, "velocity": 84, "duration": 87}, {"note": 64, "velocity": 90, "duration": 229}, {"note": 67, "velocity": 82, "duration": 115}, {"note": 64, "velocity": 88, "duration": 277}, {"note": 0, "velocity": 0, "duration": 83}, {"note": 64, "velocity": 86, "duration": 64}, {"note": 67, "velocity": 82, "duration": 70}, {"note": 69, "velocity": 86, "duration": 120}, {"note": 69, "velocity": 86, "duration": 120}, {"note": 69, "velocity": 86, "duration": 120}, {"note": 69, "velocity": 86, "duration": 120}, {"note": 69, "velocity": 86, "duration": 240}, {"note": 71, "velocity": 86, "duration": 226}, {"note": 67, "velocity": 87, "duration": 773}, {"note": 0, "velocity": 0, "duration": 1387}, {"note": 67, "velocity": 80, "duration": 268}, {"note": 69, "velocity": 81, "duration": 226}, {"note": 71, "velocity": 85, "duration": 289}, {"note": 74, "velocity": 87, "duration": 76}, {"note": 74, "velocity": 88, "duration": 177}, {"note": 0, "velocity": 0, "duration": 63}, {"note": 74, "velocity": 89, "duration": 73}, {"note": 74, "velocity": 95, "duration": 565}, {"note": 0, "velocity": 0, "duration": 155}, {"note": 71, "velocity": 84, "duration": 207}, {"note": 69, "velocity": 86, "duration": 227}, {"note": 67, "velocity": 84, "duration": 119}, {"note": 69, "velocity": 85, "duration": 353}, {"note": 64, "velocity": 86, "duration": 1240}, {"note": 0, "velocity": 0, "duration": 440}, {"note": 69, "velocity": 82, "duration": 87}, {"note": 69, "velocity": 85, "duration": 170}, {"note": 0, "velocity": 0, "duration": 70}, {"note": 69, "velocity": 84, "duration": 80}, {"note": 69, "velocity": 84, "duration": 627}, {"note": 0, "velocity": 0, "duration": 93}, {"note": 69, "velocity": 85, "duration": 245}, {"note": 71, "velocity": 77, "duration": 230}, {"note": 67, "velocity": 85, "duration": 271}, {"note": 76, "velocity": 85, "duration": 779}, {"note": 0, "velocity": 0, "duration": 61}, {"note": 71, "velocity": 84, "duration": 120}, {"note": 74, "velocity": 88, "duration": 843}, {"note": 0, "velocity": 0, "duration": 117}, {"note": 74, "velocity": 86, "duration": 75}, {"note": 74, "velocity": 86, "duration": 188}, {"note": 74, "velocity": 85, "duration": 70}, {"note": 74, "velocity": 86, "duration": 679}, {"note": 71, "velocity": 85, "duration": 186}, {"note": 71, "velocity": 85, "duration": 191}, {"note": 74, "velocity": 86, "duration": 192}, {"note": 76, "velocity": 86, "duration": 720}, {"note": 71, "velocity": 87, "duration": 118}, {"note": 69, "velocity": 82, "duration": 118}, {"note": 67, "velocity": 84, "duration": 480}, {"note": 67, "velocity": 84, "duration": 76}, {"note": 67, "velocity": 83, "duration": 187}, {"note": 71, "velocity": 88, "duration": 133}, {"note": 69, "velocity": 85, "duration": 225}, {"note": 67, "velocity": 76, "duration": 118}, {"note": 64, "velocity": 87, "duration": 622}, {"note": 0, "velocity": 0, "duration": 458}, {"note": 67, "velocity": 85, "duration": 64}, {"note": 67, "velocity": 85, "duration": 86}, {"note": 69, "velocity": 84, "duration": 134}, {"note": 71, "velocity": 83, "duration": 137}, {"note": 69, "velocity": 83, "duration": 1150}, {"note": 0, "velocity": 0, "duration": 290}, {"note": 71, "velocity": 85, "duration": 70}, {"note": 71, "velocity": 83, "duration": 86}, {"note": 69, "velocity": 80, "duration": 233}, {"note": 67, "velocity": 77, "duration": 1468}, {"note": 67, "velocity": 80, "duration": 268}, {"note": 69, "velocity": 81, "duration": 226}, {"note": 71, "velocity": 85, "duration": 289}, {"note": 74, "velocity": 87, "duration": 76}, {"note": 74, "velocity": 88, "duration": 177}, {"note": 0, "velocity": 0, "duration": 63}, {"note": 74, "velocity": 89, "duration": 73}, {"note": 74, "velocity": 95, "duration": 565}, {"note": 0, "velocity": 0, "duration": 155}, {"note": 71, "velocity": 84, "duration": 207}, {"note": 69, "velocity": 86, "duration": 227}, {"note": 67, "velocity": 84, "duration": 119}, {"note": 69, "velocity": 85, "duration": 353}, {"note": 64, "velocity": 86, "duration": 1240}, {"note": 0, "velocity": 0, "duration": 440}, {"note": 69, "velocity": 82, "duration": 87}, {"note": 69, "velocity": 85, "duration": 170}, {"note": 0, "velocity": 0, "duration": 70}, {"note": 69, "velocity": 84, "duration": 80}, {"note": 69, "velocity": 84, "duration": 627}, {"note": 0, "velocity": 0, "duration": 93}, {"note": 69, "velocity": 85, "duration": 245}, {"note": 71, "velocity": 77, "duration": 230}, {"note": 67, "velocity": 85, "duration": 271}, {"note": 76, "velocity": 85, "duration": 779}, {"note": 0, "velocity": 0, "duration": 61}, {"note": 71, "velocity": 84, "duration": 120}, {"note": 74, "velocity": 88, "duration": 843}, {"note": 0, "velocity": 0, "duration": 117}, {"note": 74, "velocity": 86, "duration": 75}, {"note": 74, "velocity": 86, "duration": 188}, {"note": 74, "velocity": 85, "duration": 70}, {"note": 74, "velocity": 86, "duration": 679}, {"note": 71, "velocity": 85, "duration": 186}, {"note": 71, "velocity": 85, "duration": 191}, {"note": 74, "velocity": 86, "duration": 192}, {"note": 76, "velocity": 86, "duration": 720}, {"note": 71, "velocity": 87, "duration": 118}, {"note": 69, "velocity": 82, "duration": 118}, {"note": 67, "velocity": 84, "duration": 480}, {"note": 67, "velocity": 84, "duration": 76}, {"note": 67, "velocity": 83, "duration": 187}, {"note": 71, "velocity": 88, "duration": 133}, {"note": 69, "velocity": 85, "duration": 225}, {"note": 67, "velocity": 76, "duration": 118}, {"note": 64, "velocity": 87, "duration": 622}, {"note": 0, "velocity": 0, "duration": 458}, {"note": 67, "velocity": 85, "duration": 64}, {"note": 67, "velocity": 85, "duration": 86}, {"note": 69, "velocity": 84, "duration": 134}, {"note": 71, "velocity": 83, "duration": 137}, {"note": 69, "velocity": 83, "duration": 1150}, {"note": 0, "velocity": 0, "duration": 290}, {"note": 71, "velocity": 85, "duration": 70}, {"note": 71, "velocity": 83, "duration": 86}, {"note": 69, "velocity": 80, "duration": 233}, {"note": 67, "velocity": 77, "duration": 1513}, {"note": 67, "velocity": 76, "duration": 35}, {"note": 0, "velocity": 0, "duration": 113}, {"note": 67, "velocity": 80, "duration": 84}, {"note": 69, "velocity": 78, "duration": 128}, {"note": 71, "velocity": 78, "duration": 158}, {"note": 69, "velocity": 83, "duration": 263}, {"note": 67, "velocity": 70, "duration": 163}, {"note": 64, "velocity": 66, "duration": 798}, {"note": 0, "velocity": 0, "duration": 216}, {"note": 67, "velocity": 75, "duration": 86}, {"note": 67, "velocity": 82, "duration": 146}, {"note": 69, "velocity": 80, "duration": 134}, {"note": 71, "velocity": 81, "duration": 102}, {"note": 71, "velocity": 84, "duration": 264}, {"note": 69, "velocity": 78, "duration": 955}, {"note": 0, "velocity": 0, "duration": 154}, {"note": 71, "velocity": 79, "duration": 84}, {"note": 71, "velocity": 83, "duration": 110}, {"note": 69, "velocity": 84, "duration": 278}, {"note": 67, "velocity": 78, "duration": 1747}]]