[[{"note": 64, "velocity": 70, "duration": 142}, {"note": 0, "velocity": 0, "duration": 98}, {"note": 64, "velocity": 83, "duration": 72}, {"note": 64, "velocity": 85, "duration": 87}, {"note": 71, "velocity": 76, "duration": 195}, {"note": 71, "velocity": 79, "duration": 657}, {"note": 0, "velocity": 0, "duration": 303}, {"note": 69, "velocity": 81, "duration": 75}, {"note": 71, "velocity": 80, "duration": 89}, {"note": 69, "velocity": 77, "duration": 184}, {"note": 67, "velocity": 77, "duration": 185}, {"note": 67, "velocity": 76, "duration": 229}, {"note": 64, "velocity": 81, "duration": 987}, {"note": 0, "velocity": 0, "duration": 213}, {"note": 64, "velocity": 81, "duration": 172}, {"note": 0, "velocity": 0, "duration": 68}, {"note": 64, "velocity": 83, "duration": 73}, {"note": 64, "velocity": 85, "duration": 72}, {"note": 69, "velocity": 77, "duration": 182}, {"note": 71, "velocity": 83, "duration": 786}, {"note": 0, "velocity": 0, "duration": 174}, {"note": 69, "velocity": 78, "duration": 89}, {"note": 67, "velocity": 73, "duration": 103}, {"note": 69, "velocity": 83, "duration": 180}, {"note": 69, "velocity": 81, "duration": 243}, {"note": 74, "velocity": 84, "duration": 222}, {"note": 71, "velocity": 84, "duration": 869}, {"note": 0, "velocity": 0, "duration": 91}, {"note": 71, "velocity": 82, "duration": 402}, {"note": 0, "velocity": 0, "duration": 78}, {"note": 71, "velocity": 86, "duration": 240}, {"note": 76, "velocity": 83, "duration": 202}, {"note": 76, "velocity": 82, "duration": 462}, {"note": 78, "velocity": 81, "duration": 416}, {"note": 0, "velocity": 0, "duration": 64}, {"note": 78, "velocity": 84, "duration": 179}, {"note": 0, "velocity": 0, "duration": 61}, {"note": 76, "velocity": 82, "duration": 184}, {"note": 69, "velocity": 84, "duration": 220}, {"note": 76, "velocity": 81, "duration": 95}, {"note": 74, "velocity": 74, "duration": 111}, {"note": 71, "velocity": 76, "duration": 396}, {"note": 0, "velocity": 0, "duration": 84}, {"note": 69, "velocity": 81, "duration": 174}, {"note": 0, "velocity": 0, "duration": 66}, {"note": 69, "velocity": 82, "duration": 228}, {"note": 74, "velocity": 85, "duration": 169}, {"note": 0, "velocity": 0, "duration": 71}, {"note": 74, "velocity": 85, "duration": 84}, {"note": 71, "velocity": 78, "duration": 97}, {"note": 69, "velocity": 80, "duration": 377}, {"note": 0, "velocity": 0, "duration": 103}, {"note": 69, "velocity": 76, "duration": 83}, {"note": 71, "velocity": 77, "duration": 83}, {"note": 69, "velocity": 83, "duration": 173}, {"note": 0, "velocity": 0, "duration": 67}, {"note": 69, "velocity": 82, "duration": 391}, {"note": 0, "velocity": 0, "duration": 89}, {"note": 71, "velocity": 81, "duration": 175}, {"note": 0, "velocity": 0, "duration": 65}, {"note": 67, "velocity": 81, "duration": 480}, {"note": 64, "velocity": 82, "duration": 816}, {"note": 0, "velocity": 0, "duration": 624}, {"note": 64, "velocity": 70, "duration": 142}, {"note": 0, "velocity": 0, "duration": 98}, {"note": 64, "velocity": 83, "duration": 72}, {"note": 64, "velocity": 85, "duration": 87}, {"note": 71, "velocity": 76, "duration": 195}, {"note": 71, "velocity": 79, "duration": 657}, {"note": 0, "velocity": 0, "duration": 303}, {"note": 69, "velocity": 81, "duration": 75}, {"note": 71, "velocity": 80, "duration": 89}, {"note": 69, "velocity": 77, "duration": 184}, {"note": 67, "velocity": 77, "duration": 185}, {"note": 67, "velocity": 76, "duration": 229}, {"note": 64, "velocity": 81, "duration": 987}, {"note": 0, "velocity": 0, "duration": 213}, {"note": 64, "velocity": 81, "duration": 172}, {"note": 0, "velocity": 0, "duration": 68}, {"note": 64, "velocity": 83, "duration": 73}, {"note": 64, "velocity": 85, "duration": 72}, {"note": 69, "velocity": 77, "duration": 182}, {"note": 69, "velocity": 83, "duration": 786}, {"note": 0, "velocity": 0, "duration": 174}, {"note": 69, "velocity": 78, "duration": 89}, {"note": 67, "velocity": 73, "duration": 103}, {"note": 69, "velocity": 83, "duration": 180}, {"note": 69, "velocity": 81, "duration": 243}, {"note": 74, "velocity": 84, "duration": 222}, {"note": 71, "velocity": 84, "duration": 869}, {"note": 0, "velocity": 0, "duration": 91}, {"note": 71, "velocity": 82, "duration": 402}, {"note": 0, "velocity": 0, "duration": 78}, {"note": 71, "velocity": 86, "duration": 120}, {"note": 71, "velocity": 86, "duration": 120}, {"note": 76, "velocity": 83, "duration": 202}, {"note": 76, "velocity": 82, "duration": 462}, {"note": 78, "velocity": 81, "duration": 416}, {"note": 0, "velocity": 0, "duration": 64}, {"note": 78, "velocity": 84, "duration": 179}, {"note": 0, "velocity": 0, "duration": 61}, {"note": 76, "velocity": 82, "duration": 184}, {"note": 69, "velocity": 84, "duration": 220}, {"note": 76, "velocity": 81, "duration": 95}, {"note": 74, "velocity": 74, "duration": 111}, {"note": 71, "velocity": 76, "duration": 396}, {"note": 0, "velocity": 0, "duration": 84}, {"note": 69, "velocity": 81, "duration": 174}, {"note": 0, "velocity": 0, "duration": 66}, {"note": 69, "velocity": 82, "duration": 228}, {"note": 74, "velocity": 85, "duration": 169}, {"note": 0, "velocity": 0, "duration": 71}, {"note": 74, "velocity": 85, "duration": 84}, {"note": 71, "velocity": 78, "duration": 97}, {"note": 69, "velocity": 80, "duration": 377}, {"note": 0, "velocity": 0, "duration": 103}, {"note": 69, "velocity": 76, "duration": 83}, {"note": 71, "velocity": 77, "duration": 83}, {"note": 69, "velocity": 83, "duration": 173}, {"note": 0, "velocity": 0, "duration": 67}, {"note": 69, "velocity": 82, "duration": 391}, {"note": 0, "velocity": 0, "duration": 89}, {"note": 69, "velocity": 81, "duration": 120}, {"note": 71, "velocity": 81, "duration": 120}, {"note": 67, "velocity": 81, "duration": 360}, {"note": 64, "velocity": 82, "duration": 936}, {"note": 0, "velocity": 0, "duration": 1584}, {"note": 64, "velocity": 85, "duration": 429}, {"note": 78, "velocity": 82, "duration": 202}, {"note": 74, "velocity": 88, "duration": 180}, {"note": 76, "velocity": 84, "duration": 855}, {"note": 0, "velocity": 0, "duration": 105}, {"note": 78, "velocity": 83, "duration": 180}, {"note": 76, "velocity": 82, "duration": 105}, {"note": 78, "velocity": 83, "duration": 96}, {"note": 74, "velocity": 88, "duration": 100}, {"note": 71, "velocity": 81, "duration": 116}, {"note": 69, "velocity": 76, "duration": 125}, {"note": 74, "velocity": 83, "duration": 88}, {"note": 71, "velocity": 83, "duration": 829}, {"note": 0, "velocity": 0, "duration": 131}, {"note": 71, "velocity": 80, "duration": 199}, {"note": 76, "velocity": 81, "duration": 66}, {"note": 76, "velocity": 83, "duration": 284}, {"note": 0, "velocity": 0, "duration": 76}, {"note": 76, "velocity": 83, "duration": 81}, {"note": 78, "velocity": 82, "duration": 83}, {"note": 76, "velocity": 81, "duration": 184}, {"note": 74, "velocity": 85, "duration": 94}, {"note": 71, "velocity": 83, "duration": 106}, {"note": 69, "velocity": 82, "duration": 396}, {"note": 0, "velocity": 0, "duration": 84}, {"note": 69, "velocity": 82, "duration": 75}, {"note": 69, "velocity": 82, "duration": 62}, {"note": 69, "velocity": 81, "duration": 86}, {"note": 67, "velocity": 79, "duration": 114}, {"note": 69, "velocity": 83, "duration": 250}, {"note": 74, "velocity": 88, "duration": 280}, {"note": 71, "velocity": 78, "duration": 862}, {"note": 0, "velocity": 0, "duration": 98}, {"note": 64, "velocity": 85, "duration": 429}, {"note": 78, "velocity": 82, "duration": 202}, {"note": 74, "velocity": 88, "duration": 180}, {"note": 76, "velocity": 84, "duration": 855}, {"note": 0, "velocity": 0, "duration": 105}, {"note": 78, "velocity": 83, "duration": 180}, {"note": 76, "velocity": 82, "duration": 105}, {"note": 78, "velocity": 83, "duration": 96}, {"note": 74, "velocity": 88, "duration": 100}, {"note": 71, "velocity": 81, "duration": 116}, {"note": 69, "velocity": 76, "duration": 125}, {"note": 74, "velocity": 83, "duration": 88}, {"note": 71, "velocity": 83, "duration": 829}, {"note": 0, "velocity": 0, "duration": 131}, {"note": 64, "velocity": 80, "duration": 199}, {"note": 69, "velocity": 81, "duration": 66}, {"note": 69, "velocity": 83, "duration": 284}, {"note": 0, "velocity": 0, "duration": 76}, {"note": 69, "velocity": 83, "duration": 81}, {"note": 71, "velocity": 82, "duration": 83}, {"note": 69, "velocity": 81, "duration": 184}, {"note": 67, "velocity": 85, "duration": 94}, {"note": 71, "velocity": 83, "duration": 106}, {"note": 69, "velocity": 82, "duration": 240}, {"note": 69, "velocity": 82, "duration": 120}, {"note": 67, "velocity": 82, "duration": 120}, {"note": 69, "velocity": 82, "duration": 240}, {"note": 69, "velocity": 81, "duration": 86}, {"note": 71, "velocity": 79, "duration": 114}, {"note": 69, "velocity": 83, "duration": 250}, {"note": 67, "velocity": 88, "duration": 280}, {"note": 64, "velocity": 78, "duration": 862}, {"note": 0, "velocity": 0, "duration": 15458}, {"note": 64, "velocity": 70, "duration": 142}, {"note": 0, "velocity": 0, "duration": 98}, {"note": 64, "velocity": 83, "duration": 72}, {"note": 64, "velocity": 85, "duration": 87}, {"note": 71, "velocity": 76, "duration": 195}, {"note": 71, "velocity": 79, "duration": 657}, {"note": 0, "velocity": 0, "duration": 303}, {"note": 69, "velocity": 81, "duration": 75}, {"note": 71, "velocity": 80, "duration": 89}, {"note": 69, "velocity": 77, "duration": 184}, {"note": 67, "velocity": 77, "duration": 185}, {"note": 67, "velocity": 76, "duration": 229}, {"note": 64, "velocity": 81, "duration": 987}, {"note": 0, "velocity": 0, "duration": 213}, {"note": 64, "velocity": 81, "duration": 172}, {"note": 0, "velocity": 0, "duration": 68}, {"note": 64, "velocity": 83, "duration": 73}, {"note": 64, "velocity": 85, "duration": 72}, {"note": 69, "velocity": 77, "duration": 182}, {"note": 69, "velocity": 83, "duration": 786}, {"note": 0, "velocity": 0, "duration": 174}, {"note": 69, "velocity": 78, "duration": 89}, {"note": 67, "velocity": 73, "duration": 103}, {"note": 69, "velocity": 83, "duration": 180}, {"note": 69, "velocity": 81, "duration": 243}, {"note": 74, "velocity": 84, "duration": 222}, {"note": 71, "velocity": 84, "duration": 869}, {"note": 0, "velocity": 0, "duration": 91}, {"note": 71, "velocity": 82, "duration": 402}, {"note": 0, "velocity": 0, "duration": 78}, {"note": 71, "velocity": 86, "duration": 120}, {"note": 71, "velocity": 86, "duration": 120}, {"note": 76, "velocity": 83, "duration": 202}, {"note": 76, "velocity": 82, "duration": 462}, {"note": 78, "velocity": 81, "duration": 416}, {"note": 0, "velocity": 0, "duration": 64}, {"note": 78, "velocity": 84, "duration": 179}, {"note": 0, "velocity": 0, "duration": 61}, {"note": 76, "velocity": 82, "duration": 184}, {"note": 69, "velocity": 84, "duration": 220}, {"note": 76, "velocity": 81, "duration": 95}, {"note": 74, "velocity": 74, "duration": 111}, {"note": 71, "velocity": 76, "duration": 396}, {"note": 0, "velocity": 0, "duration": 84}, {"note": 69, "velocity": 81, "duration": 174}, {"note": 0, "velocity": 0, "duration": 66}, {"note": 69, "velocity": 82, "duration": 228}, {"note": 74, "velocity": 85, "duration": 169}, {"note": 0, "velocity": 0, "duration": 71}, {"note": 74, "velocity": 85, "duration": 84}, {"note": 71, "velocity": 78, "duration": 97}, {"note": 69, "velocity": 80, "duration": 377}, {"note": 0, "velocity": 0, "duration": 103}, {"note": 69, "velocity": 76, "duration": 83}, {"note": 71, "velocity": 77, "duration": 83}, {"note": 69, "velocity": 83, "duration": 173}, {"note": 0, "velocity": 0, "duration": 67}, {"note": 69, "velocity": 82, "duration": 391}, {"note": 0, "velocity": 0, "duration": 89}, {"note": 69, "velocity": 81, "duration": 120}, {"note": 71, "velocity": 81, "duration": 120}, {"note": 67, "velocity": 81, "duration": 360}, {"note": 64, "velocity": 82, "duration": 936}, {"note": 0, "velocity": 0, "duration": 1584}, {"note": 64, "velocity": 85, "duration": 429}, {"note": 78, "velocity": 82, "duration": 202}, {"note": 74, "velocity": 88, "duration": 180}, {"note": 76, "velocity": 84, "duration": 855}, {"note": 0, "velocity": 0, "duration": 105}, {"note": 78, "velocity": 83, "duration": 180}, {"note": 76, "velocity": 82, "duration": 105}, {"note": 78, "velocity": 83, "duration": 96}, {"note": 74, "velocity": 88, "duration": 100}, {"note": 71, "velocity": 81, "duration": 116}, {"note": 69, "velocity": 76, "duration": 125}, {"note": 74, "velocity": 83, "duration": 88}, {"note": 71, "velocity": 83, "duration": 829}, {"note": 0, "velocity": 0, "duration": 131}, {"note": 71, "velocity": 80, "duration": 199}, {"note": 76, "velocity": 81, "duration": 66}, {"note": 76, "velocity": 83, "duration": 284}, {"note": 0, "velocity": 0, "duration": 76}, {"note": 76, "velocity": 83, "duration": 81}, {"note": 78, "velocity": 82, "duration": 83}, {"note": 76, "velocity": 81, "duration": 184}, {"note": 74, "velocity": 85, "duration": 94}, {"note": 71, "velocity": 83, "duration": 106}, {"note": 69, "velocity": 82, "duration": 396}, {"note": 0, "velocity": 0, "duration": 84}, {"note": 69, "velocity": 82, "duration": 75}, {"note": 69, "velocity": 82, "duration": 62}, {"note": 69, "velocity": 81, "duration": 86}, {"note": 67, "velocity": 79, "duration": 114}, {"note": 69, "velocity": 83, "duration": 250}, {"note": 74, "velocity": 88, "duration": 280}, {"note": 71, "velocity": 78, "duration": 862}, {"note": 0, "velocity": 0, "duration": 98}, {"note": 64, "velocity": 85, "duration": 429}, {"note": 78, "velocity": 82, "duration": 202}, {"note": 74, "velocity": 88, "duration": 180}, {"note": 76, "velocity": 84, "duration": 855}, {"note": 0, "velocity": 0, "duration": 105}, {"note": 78, "velocity": 83, "duration": 180}, {"note": 76, "velocity": 82, "duration": 105}, {"note": 78, "velocity": 83, "duration": 96}, {"note": 74, "velocity": 88, "duration": 100}, {"note": 71, "velocity": 81, "duration": 116}, {"note": 69, "velocity": 76, "duration": 125}, {"note": 74, "velocity": 83, "duration": 88}, {"note": 71, "velocity": 83, "duration": 829}, {"note": 0, "velocity": 0, "duration": 131}, {"note": 64, "velocity": 80, "duration": 199}, {"note": 69, "velocity": 81, "duration": 66}, {"note": 69, "velocity": 83, "duration": 284}, {"note": 0, "velocity": 0, "duration": 76}, {"note": 69, "velocity": 83, "duration": 81}, {"note": 71, "velocity": 82, "duration": 83}, {"note": 69, "velocity": 81, "duration": 184}, {"note": 67, "velocity": 85, "duration": 94}, {"note": 71, "velocity": 83, "duration": 106}, {"note": 69, "velocity": 82, "duration": 240}, {"note": 69, "velocity": 82, "duration": 120}, {"note": 67, "velocity": 82, "duration": 120}, {"note": 69, "velocity": 82, "duration": 240}, {"note": 69, "velocity": 81, "duration": 86}, {"note": 71, "velocity": 79, "duration": 114}, {"note": 69, "velocity": 83, "duration": 250}, {"note": 67, "velocity": 88, "duration": 280}, {"note": 64, "velocity": 78, "duration": 862}, {"note": 0, "velocity": 0, "duration": 1058}, {"note": 64, "velocity": 85, "duration": 429}, {"note": 78, "velocity": 82, "duration": 202}, {"note": 74, "velocity": 88, "duration": 180}, {"note": 76, "velocity": 84, "duration": 855}, {"note": 0, "velocity": 0, "duration": 105}, {"note": 78, "velocity": 83, "duration": 180}, {"note": 76, "velocity": 82, "duration": 105}, {"note": 78, "velocity": 83, "duration": 96}, {"note": 74, "velocity": 88, "duration": 100}, {"note": 71, "velocity": 81, "duration": 116}, {"note": 69, "velocity": 76, "duration": 125}, {"note": 74, "velocity": 83, "duration": 88}, {"note": 71, "velocity": 83, "duration": 829}, {"note": 0, "velocity": 0, "duration": 131}, {"note": 71, "velocity": 80, "duration": 199}, {"note": 76, "velocity": 81, "duration": 66}, {"note": 76, "velocity": 83, "duration": 284}, {"note": 0, "velocity": 0, "duration": 76}, {"note": 76, "velocity": 83, "duration": 81}, {"note": 78, "velocity": 82, "duration": 83}, {"note": 76, "velocity": 81, "duration": 184}, {"note": 74, "velocity": 85, "duration": 94}, {"note": 71, "velocity": 83, "duration": 106}, {"note": 69, "velocity": 82, "duration": 396}, {"note": 0, "velocity": 0, "duration": 84}, {"note": 69, "velocity": 82, "duration": 75}, {"note": 69, "velocity": 82, "duration": 62}, {"note": 69, "velocity": 81, "duration": 86}, {"note": 67, "velocity": 79, "duration": 114}, {"note": 69, "velocity": 83, "duration": 250}, {"note": 74, "velocity": 88, "duration": 280}, {"note": 71, "velocity": 78, "duration": 862}, {"note": 0, "velocity": 0, "duration": 98}, {"note": 64, "velocity": 85, "duration": 429}, {"note": 78, "velocity": 82, "duration": 202}, {"note": 74, "velocity": 88, "duration": 180}, {"note": 76, "velocity": 84, "duration": 855}, {"note": 0, "velocity": 0, "duration": 105}, {"note": 78, "velocity": 83, "duration": 180}, {"note": 76, "velocity": 82, "duration": 105}, {"note": 78, "velocity": 83, "duration": 96}, {"note": 74, "velocity": 88, "duration": 100}, {"note": 71, "velocity": 81, "duration": 116}, {"note": 69, "velocity": 76, "duration": 125}, {"note": 74, "velocity": 83, "duration": 88}, {"note": 71, "velocity": 83, "duration": 829}, {"note": 0, "velocity": 0, "duration": 131}, {"note": 64, "velocity": 80, "duration": 199}, {"note": 69, "velocity": 81, "duration": 66}, {"note": 69, "velocity": 83, "duration": 284}, {"note": 0, "velocity": 0, "duration": 76}, {"note": 69, "velocity": 83, "duration": 81}, {"note": 71, "velocity": 82, "duration": 83}, {"note": 69, "velocity": 81, "duration": 184}, {"note": 67, "velocity": 85, "duration": 94}, {"note": 71, "velocity": 83, "duration": 106}, {"note": 69, "velocity": 82, "duration": 240}, {"note": 69, "velocity": 82, "duration": 120}, {"note": 67, "velocity": 82, "duration": 120}, {"note": 69, "velocity": 82, "duration": 240}, {"note": 69, "velocity": 81, "duration": 86}, {"note": 71, "velocity": 79, "duration": 114}, {"note": 69, "velocity": 83, "duration": 250}, {"note": 67, "velocity": 88, "duration": 280}, {"note": 64, "velocity": 78, "duration": 862}, {"note": 0, "velocity": 0, "duration": 94}, {"note": 64, "velocity": 81, "duration": 217}, {"note": 69, "velocity": 79, "duration": 75}, {"note": 0, "velocity": 0, "duration": 63}, {"note": 69, "velocity": 81, "duration": 306}, {"note": 69, "velocity": 83, "duration": 133}, {"note": 71, "velocity": 81, "duration": 69}, {"note": 71, "velocity": 80, "duration": 265}, {"note": 67, "velocity": 73, "duration": 261}, {"note": 69, "velocity": 80, "duration": 1080}, {"note": 0, "velocity": 0, "duration": 307}, {"note": 69, "velocity": 82, "duration": 139}, {"note": 67, "velocity": 77, "duration": 132}, {"note": 0, "velocity": 0, "duration": 80}, {"note": 69, "velocity": 83, "duration": 401}, {"note": 71, "velocity": 80, "duration": 1907}, {"note": 0, "velocity": 0, "duration": 120}, {"note": 69, "velocity": 83, "duration": 240}, {"note": 67, "velocity": 83, "duration": 240}, {"note": 67, "velocity": 75, "duration": 1325}, {"note": 64, "velocity": 74, "duration": 1158}]]