[[{"note": 61, "velocity": 79, "duration": 206}, {"note": 61, "velocity": 73, "duration": 79}, {"note": 61, "velocity": 75, "duration": 71}, {"note": 61, "velocity": 77, "duration": 220}, {"note": 59, "velocity": 73, "duration": 132}, {"note": 56, "velocity": 77, "duration": 123}, {"note": 61, "velocity": 80, "duration": 138}, {"note": 63, "velocity": 74, "duration": 128}, {"note": 61, "velocity": 79, "duration": 590}, {"note": 0, "velocity": 0, "duration": 130}, {"note": 66, "velocity": 73, "duration": 91}, {"note": 66, "velocity": 71, "duration": 249}, {"note": 63, "velocity": 74, "duration": 123}, {"note": 68, "velocity": 75, "duration": 220}, {"note": 66, "velocity": 74, "duration": 250}, {"note": 63, "velocity": 75, "duration": 890}, {"note": 0, "velocity": 0, "duration": 310}, {"note": 68, "velocity": 74, "duration": 187}, {"note": 68, "velocity": 75, "duration": 199}, {"note": 71, "velocity": 78, "duration": 199}, {"note": 59, "velocity": 80, "duration": 248}, {"note": 63, "velocity": 74, "duration": 240}, {"note": 61, "velocity": 75, "duration": 464}, {"note": 61, "velocity": 67, "duration": 191}, {"note": 61, "velocity": 75, "duration": 109}, {"note": 59, "velocity": 73, "duration": 135}, {"note": 61, "velocity": 74, "duration": 117}, {"note": 63, "velocity": 75, "duration": 137}, {"note": 66, "velocity": 70, "duration": 140}, {"note": 68, "velocity": 73, "duration": 140}, {"note": 66, "velocity": 69, "duration": 115}, {"note": 63, "velocity": 76, "duration": 779}, {"note": 0, "velocity": 0, "duration": 61}, {"note": 68, "velocity": 74, "duration": 166}, {"note": 0, "velocity": 0, "duration": 74}, {"note": 68, "velocity": 74, "duration": 76}, {"note": 68, "velocity": 73, "duration": 76}, {"note": 68, "velocity": 73, "duration": 264}, {"note": 66, "velocity": 68, "duration": 112}, {"note": 63, "velocity": 76, "duration": 136}, {"note": 68, "velocity": 73, "duration": 140}, {"note": 70, "velocity": 71, "duration": 138}, {"note": 68, "velocity": 75, "duration": 600}, {"note": 0, "velocity": 0, "duration": 120}, {"note": 61, "velocity": 75, "duration": 86}, {"note": 61, "velocity": 73, "duration": 189}, {"note": 63, "velocity": 75, "duration": 127}, {"note": 68, "velocity": 74, "duration": 239}, {"note": 66, "velocity": 73, "duration": 250}, {"note": 63, "velocity": 74, "duration": 130}, {"note": 66, "velocity": 64, "duration": 137}, {"note": 63, "velocity": 75, "duration": 653}, {"note": 0, "velocity": 0, "duration": 307}, {"note": 61, "velocity": 74, "duration": 193}, {"note": 61, "velocity": 76, "duration": 226}, {"note": 63, "velocity": 75, "duration": 242}, {"note": 66, "velocity": 73, "duration": 199}, {"note": 66, "velocity": 69, "duration": 73}, {"note": 66, "velocity": 68, "duration": 75}, {"note": 66, "velocity": 75, "duration": 214}, {"note": 59, "velocity": 74, "duration": 240}, {"note": 61, "velocity": 68, "duration": 646}, {"note": 0, "velocity": 0, "duration": 74}, {"note": 61, "velocity": 75, "duration": 122}, {"note": 63, "velocity": 74, "duration": 127}, {"note": 54, "velocity": 76, "duration": 240}, {"note": 54, "velocity": 74, "duration": 96}, {"note": 56, "velocity": 74, "duration": 114}, {"note": 61, "velocity": 75, "duration": 133}, {"note": 63, "velocity": 75, "duration": 130}, {"note": 59, "velocity": 78, "duration": 252}, {"note": 56, "velocity": 74, "duration": 1484}, {"note": 0, "velocity": 0, "duration": 3316}, {"note": 61, "velocity": 79, "duration": 206}, {"note": 61, "velocity": 73, "duration": 79}, {"note": 61, "velocity": 75, "duration": 71}, {"note": 61, "velocity": 77, "duration": 220}, {"note": 59, "velocity": 73, "duration": 132}, {"note": 56, "velocity": 77, "duration": 123}, {"note": 61, "velocity": 80, "duration": 138}, {"note": 63, "velocity": 74, "duration": 128}, {"note": 61, "velocity": 79, "duration": 590}, {"note": 0, "velocity": 0, "duration": 130}, {"note": 66, "velocity": 73, "duration": 91}, {"note": 66, "velocity": 71, "duration": 249}, {"note": 63, "velocity": 74, "duration": 123}, {"note": 68, "velocity": 75, "duration": 220}, {"note": 66, "velocity": 74, "duration": 250}, {"note": 63, "velocity": 75, "duration": 890}, {"note": 0, "velocity": 0, "duration": 310}, {"note": 68, "velocity": 74, "duration": 187}, {"note": 68, "velocity": 75, "duration": 199}, {"note": 71, "velocity": 78, "duration": 199}, {"note": 59, "velocity": 80, "duration": 248}, {"note": 63, "velocity": 74, "duration": 240}, {"note": 61, "velocity": 75, "duration": 464}, {"note": 61, "velocity": 67, "duration": 191}, {"note": 61, "velocity": 75, "duration": 109}, {"note": 59, "velocity": 73, "duration": 135}, {"note": 61, "velocity": 74, "duration": 117}, {"note": 63, "velocity": 75, "duration": 137}, {"note": 66, "velocity": 70, "duration": 140}, {"note": 68, "velocity": 73, "duration": 140}, {"note": 66, "velocity": 69, "duration": 115}, {"note": 63, "velocity": 76, "duration": 779}, {"note": 0, "velocity": 0, "duration": 61}, {"note": 68, "velocity": 74, "duration": 166}, {"note": 0, "velocity": 0, "duration": 74}, {"note": 68, "velocity": 74, "duration": 76}, {"note": 68, "velocity": 73, "duration": 76}, {"note": 68, "velocity": 73, "duration": 264}, {"note": 66, "velocity": 68, "duration": 112}, {"note": 63, "velocity": 76, "duration": 136}, {"note": 63, "velocity": 73, "duration": 16}, {"note": 0, "velocity": 0, "duration": 224}, {"note": 68, "velocity": 75, "duration": 600}, {"note": 0, "velocity": 0, "duration": 120}, {"note": 61, "velocity": 75, "duration": 86}, {"note": 61, "velocity": 73, "duration": 189}, {"note": 63, "velocity": 75, "duration": 127}, {"note": 68, "velocity": 74, "duration": 239}, {"note": 66, "velocity": 73, "duration": 250}, {"note": 63, "velocity": 74, "duration": 130}, {"note": 66, "velocity": 64, "duration": 137}, {"note": 63, "velocity": 75, "duration": 653}, {"note": 0, "velocity": 0, "duration": 307}, {"note": 61, "velocity": 74, "duration": 193}, {"note": 61, "velocity": 76, "duration": 226}, {"note": 63, "velocity": 75, "duration": 242}, {"note": 66, "velocity": 73, "duration": 199}, {"note": 66, "velocity": 69, "duration": 73}, {"note": 66, "velocity": 68, "duration": 75}, {"note": 66, "velocity": 75, "duration": 214}, {"note": 68, "velocity": 74, "duration": 240}, {"note": 66, "velocity": 68, "duration": 720}, {"note": 61, "velocity": 75, "duration": 122}, {"note": 63, "velocity": 74, "duration": 127}, {"note": 66, "velocity": 76, "duration": 240}, {"note": 66, "velocity": 74, "duration": 96}, {"note": 68, "velocity": 74, "duration": 114}, {"note": 73, "velocity": 75, "duration": 133}, {"note": 75, "velocity": 75, "duration": 130}, {"note": 71, "velocity": 78, "duration": 252}, {"note": 68, "velocity": 74, "duration": 480}, {"note": 68, "velocity": 75, "duration": 257}, {"note": 71, "velocity": 68, "duration": 147}, {"note": 73, "velocity": 76, "duration": 151}, {"note": 75, "velocity": 75, "duration": 1396}, {"note": 75, "velocity": 80, "duration": 455}, {"note": 73, "velocity": 77, "duration": 134}, {"note": 75, "velocity": 74, "duration": 147}, {"note": 73, "velocity": 84, "duration": 1115}, {"note": 0, "velocity": 0, "duration": 85}, {"note": 68, "velocity": 75, "duration": 240}, {"note": 71, "velocity": 77, "duration": 124}, {"note": 73, "velocity": 74, "duration": 89}, {"note": 73, "velocity": 77, "duration": 158}, {"note": 75, "velocity": 72, "duration": 119}, {"note": 73, "velocity": 76, "duration": 1119}, {"note": 0, "velocity": 0, "duration": 81}, {"note": 73, "velocity": 80, "duration": 248}, {"note": 71, "velocity": 75, "duration": 240}, {"note": 68, "velocity": 74, "duration": 136}, {"note": 71, "velocity": 75, "duration": 127}, {"note": 68, "velocity": 73, "duration": 1628}, {"note": 68, "velocity": 84, "duration": 391}, {"note": 0, "velocity": 0, "duration": 89}, {"note": 68, "velocity": 75, "duration": 145}, {"note": 71, "velocity": 75, "duration": 135}, {"note": 68, "velocity": 74, "duration": 113}, {"note": 66, "velocity": 74, "duration": 151}, {"note": 68, "velocity": 77, "duration": 201}, {"note": 68, "velocity": 79, "duration": 630}, {"note": 0, "velocity": 0, "duration": 90}, {"note": 71, "velocity": 80, "duration": 173}, {"note": 0, "velocity": 0, "duration": 67}, {"note": 73, "velocity": 75, "duration": 240}, {"note": 68, "velocity": 73, "duration": 97}, {"note": 71, "velocity": 72, "duration": 78}, {"note": 68, "velocity": 74, "duration": 143}, {"note": 66, "velocity": 71, "duration": 114}, {"note": 63, "velocity": 75, "duration": 129}, {"note": 66, "velocity": 61, "duration": 99}, {"note": 63, "velocity": 79, "duration": 604}, {"note": 0, "velocity": 0, "duration": 116}, {"note": 63, "velocity": 80, "duration": 211}, {"note": 68, "velocity": 74, "duration": 620}, {"note": 0, "velocity": 0, "duration": 100}, {"note": 68, "velocity": 75, "duration": 215}, {"note": 63, "velocity": 75, "duration": 127}, {"note": 61, "velocity": 75, "duration": 140}, {"note": 59, "velocity": 74, "duration": 427}, {"note": 61, "velocity": 75, "duration": 176}, {"note": 0, "velocity": 0, "duration": 64}, {"note": 61, "velocity": 73, "duration": 84}, {"note": 61, "velocity": 69, "duration": 79}, {"note": 61, "velocity": 73, "duration": 236}, {"note": 59, "velocity": 75, "duration": 123}, {"note": 56, "velocity": 76, "duration": 132}, {"note": 63, "velocity": 77, "duration": 894}, {"note": 0, "velocity": 0, "duration": 66}, {"note": 71, "velocity": 77, "duration": 752}, {"note": 68, "velocity": 75, "duration": 267}, {"note": 71, "velocity": 74, "duration": 882}, {"note": 0, "velocity": 0, "duration": 78}, {"note": 73, "velocity": 78, "duration": 709}, {"note": 68, "velocity": 75, "duration": 241}, {"note": 75, "velocity": 74, "duration": 126}, {"note": 78, "velocity": 76, "duration": 123}, {"note": 75, "velocity": 78, "duration": 671}, {"note": 66, "velocity": 72, "duration": 303}, {"note": 66, "velocity": 73, "duration": 79}, {"note": 66, "velocity": 74, "duration": 209}, {"note": 68, "velocity": 75, "duration": 187}, {"note": 70, "velocity": 74, "duration": 360}, {"note": 0, "velocity": 0, "duration": 120}, {"note": 66, "velocity": 74, "duration": 236}, {"note": 63, "velocity": 78, "duration": 244}, {"note": 68, "velocity": 69, "duration": 1848}, {"note": 0, "velocity": 0, "duration": 7752}, {"note": 61, "velocity": 79, "duration": 206}, {"note": 61, "velocity": 73, "duration": 79}, {"note": 61, "velocity": 75, "duration": 71}, {"note": 61, "velocity": 77, "duration": 220}, {"note": 59, "velocity": 73, "duration": 132}, {"note": 56, "velocity": 77, "duration": 123}, {"note": 61, "velocity": 80, "duration": 138}, {"note": 63, "velocity": 74, "duration": 128}, {"note": 61, "velocity": 79, "duration": 590}, {"note": 0, "velocity": 0, "duration": 130}, {"note": 66, "velocity": 73, "duration": 91}, {"note": 66, "velocity": 71, "duration": 249}, {"note": 63, "velocity": 74, "duration": 123}, {"note": 68, "velocity": 75, "duration": 220}, {"note": 66, "velocity": 74, "duration": 250}, {"note": 63, "velocity": 75, "duration": 890}, {"note": 0, "velocity": 0, "duration": 310}, {"note": 68, "velocity": 74, "duration": 187}, {"note": 68, "velocity": 75, "duration": 199}, {"note": 71, "velocity": 78, "duration": 199}, {"note": 59, "velocity": 80, "duration": 248}, {"note": 63, "velocity": 74, "duration": 240}, {"note": 61, "velocity": 75, "duration": 464}, {"note": 61, "velocity": 67, "duration": 191}, {"note": 61, "velocity": 75, "duration": 109}, {"note": 59, "velocity": 73, "duration": 135}, {"note": 61, "velocity": 74, "duration": 117}, {"note": 63, "velocity": 75, "duration": 137}, {"note": 66, "velocity": 70, "duration": 140}, {"note": 68, "velocity": 73, "duration": 140}, {"note": 66, "velocity": 69, "duration": 115}, {"note": 63, "velocity": 76, "duration": 779}, {"note": 0, "velocity": 0, "duration": 61}, {"note": 68, "velocity": 74, "duration": 166}, {"note": 0, "velocity": 0, "duration": 74}, {"note": 68, "velocity": 74, "duration": 76}, {"note": 68, "velocity": 73, "duration": 76}, {"note": 68, "velocity": 73, "duration": 264}, {"note": 66, "velocity": 68, "duration": 112}, {"note": 63, "velocity": 76, "duration": 136}, {"note": 63, "velocity": 73, "duration": 16}, {"note": 0, "velocity": 0, "duration": 224}, {"note": 68, "velocity": 75, "duration": 600}, {"note": 0, "velocity": 0, "duration": 120}, {"note": 61, "velocity": 75, "duration": 86}, {"note": 61, "velocity": 73, "duration": 189}, {"note": 63, "velocity": 75, "duration": 127}, {"note": 68, "velocity": 74, "duration": 239}, {"note": 66, "velocity": 73, "duration": 250}, {"note": 63, "velocity": 74, "duration": 130}, {"note": 66, "velocity": 64, "duration": 137}, {"note": 63, "velocity": 75, "duration": 653}, {"note": 0, "velocity": 0, "duration": 307}, {"note": 61, "velocity": 74, "duration": 193}, {"note": 61, "velocity": 76, "duration": 226}, {"note": 63, "velocity": 75, "duration": 242}, {"note": 66, "velocity": 73, "duration": 199}, {"note": 66, "velocity": 69, "duration": 73}, {"note": 66, "velocity": 68, "duration": 75}, {"note": 66, "velocity": 75, "duration": 214}, {"note": 68, "velocity": 74, "duration": 240}, {"note": 66, "velocity": 68, "duration": 720}, {"note": 61, "velocity": 75, "duration": 122}, {"note": 63, "velocity": 74, "duration": 127}, {"note": 66, "velocity": 76, "duration": 240}, {"note": 66, "velocity": 74, "duration": 96}, {"note": 68, "velocity": 74, "duration": 114}, {"note": 73, "velocity": 75, "duration": 133}, {"note": 75, "velocity": 75, "duration": 130}, {"note": 71, "velocity": 78, "duration": 252}, {"note": 68, "velocity": 74, "duration": 480}, {"note": 68, "velocity": 75, "duration": 257}, {"note": 71, "velocity": 68, "duration": 147}, {"note": 73, "velocity": 76, "duration": 151}, {"note": 75, "velocity": 75, "duration": 1396}, {"note": 75, "velocity": 80, "duration": 455}, {"note": 73, "velocity": 77, "duration": 134}, {"note": 75, "velocity": 74, "duration": 147}, {"note": 73, "velocity": 84, "duration": 1115}, {"note": 0, "velocity": 0, "duration": 85}, {"note": 68, "velocity": 75, "duration": 240}, {"note": 71, "velocity": 77, "duration": 124}, {"note": 73, "velocity": 74, "duration": 89}, {"note": 73, "velocity": 77, "duration": 158}, {"note": 75, "velocity": 72, "duration": 119}, {"note": 73, "velocity": 76, "duration": 1119}, {"note": 0, "velocity": 0, "duration": 81}, {"note": 73, "velocity": 80, "duration": 248}, {"note": 71, "velocity": 75, "duration": 240}, {"note": 68, "velocity": 74, "duration": 136}, {"note": 71, "velocity": 75, "duration": 127}, {"note": 68, "velocity": 73, "duration": 1628}, {"note": 68, "velocity": 84, "duration": 391}, {"note": 0, "velocity": 0, "duration": 89}, {"note": 68, "velocity": 75, "duration": 145}, {"note": 71, "velocity": 75, "duration": 135}, {"note": 68, "velocity": 74, "duration": 113}, {"note": 66, "velocity": 74, "duration": 151}, {"note": 68, "velocity": 77, "duration": 201}, {"note": 68, "velocity": 79, "duration": 630}, {"note": 0, "velocity": 0, "duration": 90}, {"note": 71, "velocity": 80, "duration": 173}, {"note": 0, "velocity": 0, "duration": 67}, {"note": 73, "velocity": 75, "duration": 240}, {"note": 68, "velocity": 73, "duration": 97}, {"note": 71, "velocity": 72, "duration": 78}, {"note": 68, "velocity": 74, "duration": 143}, {"note": 66, "velocity": 71, "duration": 114}, {"note": 63, "velocity": 75, "duration": 129}, {"note": 66, "velocity": 61, "duration": 99}, {"note": 63, "velocity": 79, "duration": 604}, {"note": 0, "velocity": 0, "duration": 116}, {"note": 63, "velocity": 80, "duration": 211}, {"note": 68, "velocity": 74, "duration": 620}, {"note": 0, "velocity": 0, "duration": 100}, {"note": 68, "velocity": 75, "duration": 215}, {"note": 63, "velocity": 75, "duration": 127}, {"note": 61, "velocity": 75, "duration": 140}, {"note": 59, "velocity": 74, "duration": 427}, {"note": 61, "velocity": 75, "duration": 176}, {"note": 0, "velocity": 0, "duration": 64}, {"note": 61, "velocity": 73, "duration": 84}, {"note": 61, "velocity": 69, "duration": 79}, {"note": 61, "velocity": 73, "duration": 236}, {"note": 59, "velocity": 75, "duration": 123}, {"note": 56, "velocity": 76, "duration": 132}, {"note": 63, "velocity": 77, "duration": 894}, {"note": 0, "velocity": 0, "duration": 66}, {"note": 71, "velocity": 77, "duration": 752}, {"note": 68, "velocity": 75, "duration": 267}, {"note": 71, "velocity": 74, "duration": 882}, {"note": 0, "velocity": 0, "duration": 78}, {"note": 73, "velocity": 78, "duration": 709}, {"note": 68, "velocity": 75, "duration": 241}, {"note": 75, "velocity": 74, "duration": 126}, {"note": 78, "velocity": 76, "duration": 123}, {"note": 75, "velocity": 78, "duration": 671}, {"note": 66, "velocity": 72, "duration": 303}, {"note": 66, "velocity": 73, "duration": 79}, {"note": 66, "velocity": 74, "duration": 209}, {"note": 68, "velocity": 75, "duration": 187}, {"note": 70, "velocity": 74, "duration": 360}, {"note": 0, "velocity": 0, "duration": 120}, {"note": 66, "velocity": 74, "duration": 236}, {"note": 63, "velocity": 78, "duration": 244}, {"note": 68, "velocity": 69, "duration": 1848}, {"note": 0, "velocity": 0, "duration": 72}, {"note": 68, "velocity": 84, "duration": 391}, {"note": 0, "velocity": 0, "duration": 89}, {"note": 68, "velocity": 75, "duration": 145}, {"note": 71, "velocity": 75, "duration": 135}, {"note": 68, "velocity": 74, "duration": 113}, {"note": 66, "velocity": 74, "duration": 151}, {"note": 68, "velocity": 77, "duration": 201}, {"note": 68, "velocity": 79, "duration": 630}, {"note": 0, "velocity": 0, "duration": 90}, {"note": 71, "velocity": 80, "duration": 173}, {"note": 0, "velocity": 0, "duration": 67}, {"note": 73, "velocity": 75, "duration": 240}, {"note": 68, "velocity": 73, "duration": 97}, {"note": 71, "velocity": 72, "duration": 78}, {"note": 68, "velocity": 74, "duration": 143}, {"note": 66, "velocity": 71, "duration": 114}, {"note": 63, "velocity": 75, "duration": 129}, {"note": 66, "velocity": 61, "duration": 99}, {"note": 63, "velocity": 79, "duration": 604}, {"note": 0, "velocity": 0, "duration": 116}, {"note": 63, "velocity": 80, "duration": 211}, {"note": 0, "velocity": 0, "duration": 149}, {"note": 63, "velocity": 75, "duration": 125}, {"note": 68, "velocity": 76, "duration": 174}, {"note": 0, "velocity": 0, "duration": 66}, {"note": 68, "velocity": 73, "duration": 71}, {"note": 68, "velocity": 74, "duration": 67}, {"note": 68, "velocity": 79, "duration": 436}, {"note": 71, "velocity": 75, "duration": 240}, {"note": 68, "velocity": 75, "duration": 176}, {"note": 0, "velocity": 0, "duration": 64}, {"note": 73, "velocity": 73, "duration": 1800}, {"note": 0, "velocity": 0, "duration": 120}, {"note": 66, "velocity": 72, "duration": 303}, {"note": 66, "velocity": 73, "duration": 79}, {"note": 66, "velocity": 74, "duration": 209}, {"note": 63, "velocity": 75, "duration": 187}, {"note": 66, "velocity": 74, "duration": 240}, {"note": 68, "velocity": 74, "duration": 120}, {"note": 68, "velocity": 74, "duration": 120}, {"note": 73, "velocity": 74, "duration": 120}, {"note": 75, "velocity": 74, "duration": 120}, {"note": 71, "velocity": 74, "duration": 240}, {"note": 68, "velocity": 69, "duration": 1848}, {"note": 0, "velocity": 0, "duration": 72}, {"note": 66, "velocity": 74, "duration": 317}, {"note": 66, "velocity": 72, "duration": 74}, {"note": 66, "velocity": 71, "duration": 237}, {"note": 63, "velocity": 76, "duration": 276}, {"note": 66, "velocity": 77, "duration": 222}, {"note": 68, "velocity": 74, "duration": 120}, {"note": 68, "velocity": 74, "duration": 120}, {"note": 73, "velocity": 82, "duration": 276}, {"note": 75, "velocity": 77, "duration": 1627}, {"note": 73, "velocity": 80, "duration": 222}, {"note": 71, "velocity": 75, "duration": 201}, {"note": 68, "velocity": 74, "duration": 213}, {"note": 66, "velocity": 73, "duration": 168}, {"note": 68, "velocity": 74, "duration": 224}, {"note": 73, "velocity": 78, "duration": 251}, {"note": 71, "velocity": 70, "duration": 1092}, {"note": 68, "velocity": 75, "duration": 1567}]]