[[{"note": 57, "velocity": 75, "duration": 230}, {"note": 59, "velocity": 76, "duration": 275}, {"note": 62, "velocity": 72, "duration": 178}, {"note": 0, "velocity": 0, "duration": 62}, {"note": 62, "velocity": 76, "duration": 126}, {"note": 0, "velocity": 0, "duration": 114}, {"note": 62, "velocity": 76, "duration": 126}, {"note": 0, "velocity": 0, "duration": 114}, {"note": 62, "velocity": 76, "duration": 115}, {"note": 0, "velocity": 0, "duration": 125}, {"note": 62, "velocity": 76, "duration": 454}, {"note": 62, "velocity": 72, "duration": 130}, {"note": 0, "velocity": 0, "duration": 110}, {"note": 64, "velocity": 76, "duration": 150}, {"note": 0, "velocity": 0, "duration": 90}, {"note": 66, "velocity": 77, "duration": 436}, {"note": 64, "velocity": 77, "duration": 232}, {"note": 62, "velocity": 77, "duration": 453}, {"note": 62, "velocity": 76, "duration": 153}, {"note": 0, "velocity": 0, "duration": 87}, {"note": 62, "velocity": 77, "duration": 195}, {"note": 74, "velocity": 85, "duration": 161}, {"note": 0, "velocity": 0, "duration": 79}, {"note": 71, "velocity": 77, "duration": 354}, {"note": 0, "velocity": 0, "duration": 126}, {"note": 71, "velocity": 74, "duration": 188}, {"note": 69, "velocity": 77, "duration": 180}, {"note": 71, "velocity": 75, "duration": 382}, {"note": 0, "velocity": 0, "duration": 98}, {"note": 69, "velocity": 68, "duration": 160}, {"note": 0, "velocity": 0, "duration": 80}, {"note": 69, "velocity": 75, "duration": 488}, {"note": 66, "velocity": 76, "duration": 929}, {"note": 0, "velocity": 0, "duration": 271}, {"note": 66, "velocity": 68, "duration": 228}, {"note": 69, "velocity": 77, "duration": 246}, {"note": 64, "velocity": 79, "duration": 371}, {"note": 0, "velocity": 0, "duration": 109}, {"note": 64, "velocity": 78, "duration": 186}, {"note": 66, "velocity": 76, "duration": 175}, {"note": 0, "velocity": 0, "duration": 65}, {"note": 64, "velocity": 78, "duration": 325}, {"note": 0, "velocity": 0, "duration": 155}, {"note": 64, "velocity": 77, "duration": 166}, {"note": 0, "velocity": 0, "duration": 74}, {"note": 66, "velocity": 72, "duration": 201}, {"note": 64, "velocity": 78, "duration": 474}, {"note": 62, "velocity": 77, "duration": 290}, {"note": 59, "velocity": 76, "duration": 547}, {"note": 0, "velocity": 0, "duration": 173}, {"note": 59, "velocity": 77, "duration": 211}, {"note": 62, "velocity": 77, "duration": 177}, {"note": 0, "velocity": 0, "duration": 63}, {"note": 66, "velocity": 72, "duration": 366}, {"note": 0, "velocity": 0, "duration": 114}, {"note": 64, "velocity": 79, "duration": 156}, {"note": 0, "velocity": 0, "duration": 84}, {"note": 64, "velocity": 79, "duration": 171}, {"note": 0, "velocity": 0, "duration": 69}, {"note": 66, "velocity": 79, "duration": 441}, {"note": 64, "velocity": 80, "duration": 195}, {"note": 66, "velocity": 78, "duration": 223}, {"note": 69, "velocity": 77, "duration": 957}, {"note": 0, "velocity": 0, "duration": 483}, {"note": 57, "velocity": 76, "duration": 171}, {"note": 0, "velocity": 0, "duration": 69}, {"note": 59, "velocity": 77, "duration": 206}, {"note": 62, "velocity": 76, "duration": 363}, {"note": 0, "velocity": 0, "duration": 117}, {"note": 62, "velocity": 74, "duration": 165}, {"note": 0, "velocity": 0, "duration": 75}, {"note": 62, "velocity": 76, "duration": 150}, {"note": 0, "velocity": 0, "duration": 90}, {"note": 62, "velocity": 76, "duration": 342}, {"note": 0, "velocity": 0, "duration": 138}, {"note": 62, "velocity": 76, "duration": 167}, {"note": 0, "velocity": 0, "duration": 73}, {"note": 64, "velocity": 78, "duration": 145}, {"note": 0, "velocity": 0, "duration": 95}, {"note": 66, "velocity": 76, "duration": 361}, {"note": 0, "velocity": 0, "duration": 119}, {"note": 64, "velocity": 78, "duration": 165}, {"note": 0, "velocity": 0, "duration": 75}, {"note": 62, "velocity": 77, "duration": 559}, {"note": 62, "velocity": 76, "duration": 79}, {"note": 0, "velocity": 0, "duration": 161}, {"note": 62, "velocity": 77, "duration": 175}, {"note": 74, "velocity": 87, "duration": 175}, {"note": 0, "velocity": 0, "duration": 65}, {"note": 71, "velocity": 76, "duration": 325}, {"note": 0, "velocity": 0, "duration": 163}, {"note": 71, "velocity": 76, "duration": 202}, {"note": 0, "velocity": 0, "duration": 158}, {"note": 69, "velocity": 73, "duration": 193}, {"note": 0, "velocity": 0, "duration": 287}, {"note": 71, "velocity": 77, "duration": 124}, {"note": 0, "velocity": 0, "duration": 356}, {"note": 69, "velocity": 77, "duration": 151}, {"note": 0, "velocity": 0, "duration": 209}, {"note": 66, "velocity": 76, "duration": 791}, {"note": 0, "velocity": 0, "duration": 409}, {"note": 66, "velocity": 79, "duration": 151}, {"note": 0, "velocity": 0, "duration": 89}, {"note": 69, "velocity": 76, "duration": 202}, {"note": 64, "velocity": 72, "duration": 280}, {"note": 0, "velocity": 0, "duration": 80}, {"note": 64, "velocity": 76, "duration": 168}, {"note": 0, "velocity": 0, "duration": 192}, {"note": 66, "velocity": 72, "duration": 200}, {"note": 64, "velocity": 80, "duration": 214}, {"note": 0, "velocity": 0, "duration": 146}, {"note": 64, "velocity": 77, "duration": 150}, {"note": 0, "velocity": 0, "duration": 210}, {"note": 66, "velocity": 72, "duration": 218}, {"note": 64, "velocity": 79, "duration": 299}, {"note": 0, "velocity": 0, "duration": 61}, {"note": 62, "velocity": 80, "duration": 271}, {"note": 0, "velocity": 0, "duration": 89}, {"note": 59, "velocity": 78, "duration": 427}, {"note": 59, "velocity": 77, "duration": 140}, {"note": 0, "velocity": 0, "duration": 100}, {"note": 59, "velocity": 78, "duration": 195}, {"note": 62, "velocity": 76, "duration": 168}, {"note": 0, "velocity": 0, "duration": 72}, {"note": 66, "velocity": 78, "duration": 334}, {"note": 64, "velocity": 76, "duration": 130}, {"note": 0, "velocity": 0, "duration": 230}, {"note": 64, "velocity": 76, "duration": 155}, {"note": 0, "velocity": 0, "duration": 85}, {"note": 66, "velocity": 60, "duration": 323}, {"note": 64, "velocity": 77, "duration": 272}, {"note": 0, "velocity": 0, "duration": 88}, {"note": 59, "velocity": 76, "duration": 207}, {"note": 62, "velocity": 78, "duration": 1510}, {"note": 0, "velocity": 0, "duration": 170}, {"note": 62, "velocity": 77, "duration": 207}, {"note": 74, "velocity": 87, "duration": 140}, {"note": 0, "velocity": 0, "duration": 100}, {"note": 74, "velocity": 83, "duration": 135}, {"note": 0, "velocity": 0, "duration": 105}, {"note": 74, "velocity": 82, "duration": 131}, {"note": 0, "velocity": 0, "duration": 109}, {"note": 74, "velocity": 87, "duration": 383}, {"note": 0, "velocity": 0, "duration": 97}, {"note": 73, "velocity": 77, "duration": 177}, {"note": 0, "velocity": 0, "duration": 63}, {"note": 71, "velocity": 76, "duration": 140}, {"note": 0, "velocity": 0, "duration": 100}, {"note": 66, "velocity": 74, "duration": 1292}, {"note": 0, "velocity": 0, "duration": 628}, {"note": 69, "velocity": 77, "duration": 157}, {"note": 0, "velocity": 0, "duration": 83}, {"note": 71, "velocity": 77, "duration": 130}, {"note": 0, "velocity": 0, "duration": 110}, {"note": 71, "velocity": 74, "duration": 139}, {"note": 0, "velocity": 0, "duration": 101}, {"note": 71, "velocity": 75, "duration": 140}, {"note": 0, "velocity": 0, "duration": 100}, {"note": 71, "velocity": 77, "duration": 379}, {"note": 0, "velocity": 0, "duration": 101}, {"note": 62, "velocity": 78, "duration": 165}, {"note": 0, "velocity": 0, "duration": 75}, {"note": 64, "velocity": 76, "duration": 170}, {"note": 0, "velocity": 0, "duration": 70}, {"note": 66, "velocity": 74, "duration": 1291}, {"note": 0, "velocity": 0, "duration": 389}, {"note": 66, "velocity": 76, "duration": 150}, {"note": 0, "velocity": 0, "duration": 90}, {"note": 66, "velocity": 76, "duration": 164}, {"note": 0, "velocity": 0, "duration": 76}, {"note": 67, "velocity": 78, "duration": 214}, {"note": 0, "velocity": 0, "duration": 146}, {"note": 67, "velocity": 76, "duration": 145}, {"note": 0, "velocity": 0, "duration": 215}, {"note": 67, "velocity": 76, "duration": 141}, {"note": 0, "velocity": 0, "duration": 99}, {"note": 67, "velocity": 77, "duration": 388}, {"note": 66, "velocity": 76, "duration": 207}, {"note": 0, "velocity": 0, "duration": 153}, {"note": 64, "velocity": 76, "duration": 176}, {"note": 0, "velocity": 0, "duration": 64}, {"note": 66, "velocity": 78, "duration": 415}, {"note": 69, "velocity": 76, "duration": 845}, {"note": 0, "velocity": 0, "duration": 355}, {"note": 69, "velocity": 76, "duration": 136}, {"note": 0, "velocity": 0, "duration": 104}, {"note": 69, "velocity": 77, "duration": 180}, {"note": 71, "velocity": 78, "duration": 311}, {"note": 71, "velocity": 80, "duration": 150}, {"note": 0, "velocity": 0, "duration": 210}, {"note": 71, "velocity": 78, "duration": 136}, {"note": 0, "velocity": 0, "duration": 104}, {"note": 71, "velocity": 82, "duration": 355}, {"note": 71, "velocity": 78, "duration": 141}, {"note": 0, "velocity": 0, "duration": 219}, {"note": 71, "velocity": 76, "duration": 146}, {"note": 0, "velocity": 0, "duration": 94}, {"note": 71, "velocity": 80, "duration": 485}, {"note": 0, "velocity": 0, "duration": 235}, {"note": 69, "velocity": 80, "duration": 886}, {"note": 0, "velocity": 0, "duration": 74}, {"note": 69, "velocity": 78, "duration": 154}, {"note": 0, "velocity": 0, "duration": 86}, {"note": 74, "velocity": 82, "duration": 140}, {"note": 0, "velocity": 0, "duration": 100}, {"note": 74, "velocity": 82, "duration": 130}, {"note": 0, "velocity": 0, "duration": 110}, {"note": 74, "velocity": 80, "duration": 125}, {"note": 0, "velocity": 0, "duration": 115}, {"note": 74, "velocity": 87, "duration": 362}, {"note": 0, "velocity": 0, "duration": 118}, {"note": 73, "velocity": 77, "duration": 181}, {"note": 71, "velocity": 77, "duration": 136}, {"note": 0, "velocity": 0, "duration": 104}, {"note": 66, "velocity": 77, "duration": 1319}, {"note": 0, "velocity": 0, "duration": 361}, {"note": 71, "velocity": 77, "duration": 175}, {"note": 0, "velocity": 0, "duration": 65}, {"note": 69, "velocity": 78, "duration": 148}, {"note": 0, "velocity": 0, "duration": 92}, {"note": 71, "velocity": 78, "duration": 149}, {"note": 0, "velocity": 0, "duration": 91}, {"note": 71, "velocity": 76, "duration": 139}, {"note": 0, "velocity": 0, "duration": 101}, {"note": 71, "velocity": 76, "duration": 171}, {"note": 0, "velocity": 0, "duration": 69}, {"note": 69, "velocity": 81, "duration": 413}, {"note": 0, "velocity": 0, "duration": 67}, {"note": 62, "velocity": 76, "duration": 180}, {"note": 64, "velocity": 80, "duration": 154}, {"note": 0, "velocity": 0, "duration": 86}, {"note": 66, "velocity": 72, "duration": 1281}, {"note": 0, "velocity": 0, "duration": 399}, {"note": 66, "velocity": 76, "duration": 161}, {"note": 0, "velocity": 0, "duration": 79}, {"note": 66, "velocity": 72, "duration": 180}, {"note": 67, "velocity": 79, "duration": 253}, {"note": 0, "velocity": 0, "duration": 107}, {"note": 67, "velocity": 77, "duration": 270}, {"note": 0, "velocity": 0, "duration": 90}, {"note": 67, "velocity": 77, "duration": 165}, {"note": 0, "velocity": 0, "duration": 75}, {"note": 67, "velocity": 77, "duration": 401}, {"note": 0, "velocity": 0, "duration": 79}, {"note": 66, "velocity": 82, "duration": 219}, {"note": 64, "velocity": 73, "duration": 186}, {"note": 66, "velocity": 78, "duration": 342}, {"note": 69, "velocity": 79, "duration": 894}, {"note": 0, "velocity": 0, "duration": 66}, {"note": 69, "velocity": 79, "duration": 120}, {"note": 0, "velocity": 0, "duration": 120}, {"note": 69, "velocity": 79, "duration": 131}, {"note": 0, "velocity": 0, "duration": 109}, {"note": 69, "velocity": 78, "duration": 146}, {"note": 0, "velocity": 0, "duration": 94}, {"note": 71, "velocity": 83, "duration": 343}, {"note": 0, "velocity": 0, "duration": 137}, {"note": 71, "velocity": 77, "duration": 139}, {"note": 0, "velocity": 0, "duration": 101}, {"note": 71, "velocity": 77, "duration": 140}, {"note": 0, "velocity": 0, "duration": 100}, {"note": 71, "velocity": 80, "duration": 374}, {"note": 0, "velocity": 0, "duration": 106}, {"note": 71, "velocity": 79, "duration": 158}, {"note": 0, "velocity": 0, "duration": 82}, {"note": 71, "velocity": 77, "duration": 441}, {"note": 0, "velocity": 0, "duration": 279}, {"note": 69, "velocity": 80, "duration": 2481}, {"note": 0, "velocity": 0, "duration": 399}, {"note": 57, "velocity": 76, "duration": 171}, {"note": 0, "velocity": 0, "duration": 69}, {"note": 59, "velocity": 77, "duration": 206}, {"note": 62, "velocity": 76, "duration": 363}, {"note": 0, "velocity": 0, "duration": 117}, {"note": 62, "velocity": 74, "duration": 165}, {"note": 0, "velocity": 0, "duration": 75}, {"note": 62, "velocity": 76, "duration": 150}, {"note": 0, "velocity": 0, "duration": 90}, {"note": 62, "velocity": 76, "duration": 342}, {"note": 62, "velocity": 76, "duration": 167}, {"note": 0, "velocity": 0, "duration": 193}, {"note": 64, "velocity": 78, "duration": 145}, {"note": 0, "velocity": 0, "duration": 95}, {"note": 66, "velocity": 76, "duration": 361}, {"note": 0, "velocity": 0, "duration": 119}, {"note": 64, "velocity": 78, "duration": 165}, {"note": 0, "velocity": 0, "duration": 75}, {"note": 62, "velocity": 77, "duration": 559}, {"note": 62, "velocity": 76, "duration": 79}, {"note": 0, "velocity": 0, "duration": 161}, {"note": 62, "velocity": 77, "duration": 175}, {"note": 0, "velocity": 0, "duration": 65}, {"note": 74, "velocity": 87, "duration": 175}, {"note": 0, "velocity": 0, "duration": 65}, {"note": 71, "velocity": 76, "duration": 325}, {"note": 0, "velocity": 0, "duration": 155}, {"note": 71, "velocity": 76, "duration": 202}, {"note": 0, "velocity": 0, "duration": 158}, {"note": 69, "velocity": 73, "duration": 229}, {"note": 0, "velocity": 0, "duration": 131}, {"note": 71, "velocity": 77, "duration": 248}, {"note": 0, "velocity": 0, "duration": 232}, {"note": 69, "velocity": 77, "duration": 239}, {"note": 69, "velocity": 100, "duration": 190}, {"note": 66, "velocity": 76, "duration": 777}, {"note": 0, "velocity": 0, "duration": 423}, {"note": 69, "velocity": 79, "duration": 151}, {"note": 0, "velocity": 0, "duration": 89}, {"note": 66, "velocity": 76, "duration": 202}, {"note": 64, "velocity": 72, "duration": 326}, {"note": 64, "velocity": 76, "duration": 168}, {"note": 0, "velocity": 0, "duration": 192}, {"note": 66, "velocity": 72, "duration": 200}, {"note": 64, "velocity": 80, "duration": 316}, {"note": 0, "velocity": 0, "duration": 404}, {"note": 66, "velocity": 72, "duration": 218}, {"note": 64, "velocity": 79, "duration": 442}, {"note": 62, "velocity": 80, "duration": 271}, {"note": 59, "velocity": 78, "duration": 427}, {"note": 59, "velocity": 77, "duration": 140}, {"note": 0, "velocity": 0, "duration": 100}, {"note": 59, "velocity": 78, "duration": 195}, {"note": 62, "velocity": 76, "duration": 168}, {"note": 0, "velocity": 0, "duration": 72}, {"note": 66, "velocity": 78, "duration": 400}, {"note": 64, "velocity": 76, "duration": 130}, {"note": 0, "velocity": 0, "duration": 230}, {"note": 64, "velocity": 76, "duration": 155}, {"note": 0, "velocity": 0, "duration": 85}, {"note": 64, "velocity": 60, "duration": 323}, {"note": 64, "velocity": 77, "duration": 272}, {"note": 0, "velocity": 0, "duration": 88}, {"note": 59, "velocity": 76, "duration": 207}, {"note": 62, "velocity": 78, "duration": 1510}, {"note": 0, "velocity": 0, "duration": 30650}, {"note": 57, "velocity": 75, "duration": 230}, {"note": 59, "velocity": 76, "duration": 275}, {"note": 62, "velocity": 72, "duration": 178}, {"note": 0, "velocity": 0, "duration": 62}, {"note": 62, "velocity": 76, "duration": 126}, {"note": 0, "velocity": 0, "duration": 114}, {"note": 62, "velocity": 76, "duration": 126}, {"note": 0, "velocity": 0, "duration": 114}, {"note": 62, "velocity": 76, "duration": 115}, {"note": 0, "velocity": 0, "duration": 125}, {"note": 62, "velocity": 76, "duration": 454}, {"note": 62, "velocity": 72, "duration": 130}, {"note": 0, "velocity": 0, "duration": 110}, {"note": 64, "velocity": 76, "duration": 150}, {"note": 0, "velocity": 0, "duration": 90}, {"note": 66, "velocity": 77, "duration": 436}, {"note": 64, "velocity": 77, "duration": 232}, {"note": 62, "velocity": 77, "duration": 453}, {"note": 62, "velocity": 76, "duration": 153}, {"note": 0, "velocity": 0, "duration": 87}, {"note": 62, "velocity": 77, "duration": 195}, {"note": 74, "velocity": 85, "duration": 161}, {"note": 0, "velocity": 0, "duration": 79}, {"note": 71, "velocity": 77, "duration": 354}, {"note": 0, "velocity": 0, "duration": 126}, {"note": 71, "velocity": 74, "duration": 188}, {"note": 69, "velocity": 77, "duration": 180}, {"note": 71, "velocity": 75, "duration": 382}, {"note": 0, "velocity": 0, "duration": 98}, {"note": 69, "velocity": 68, "duration": 160}, {"note": 0, "velocity": 0, "duration": 80}, {"note": 69, "velocity": 75, "duration": 488}, {"note": 66, "velocity": 76, "duration": 929}, {"note": 0, "velocity": 0, "duration": 271}, {"note": 66, "velocity": 68, "duration": 228}, {"note": 69, "velocity": 77, "duration": 246}, {"note": 64, "velocity": 79, "duration": 371}, {"note": 0, "velocity": 0, "duration": 109}, {"note": 64, "velocity": 78, "duration": 186}, {"note": 66, "velocity": 76, "duration": 175}, {"note": 0, "velocity": 0, "duration": 65}, {"note": 64, "velocity": 78, "duration": 325}, {"note": 0, "velocity": 0, "duration": 155}, {"note": 64, "velocity": 77, "duration": 166}, {"note": 0, "velocity": 0, "duration": 74}, {"note": 66, "velocity": 72, "duration": 201}, {"note": 64, "velocity": 78, "duration": 474}, {"note": 62, "velocity": 77, "duration": 290}, {"note": 59, "velocity": 76, "duration": 547}, {"note": 0, "velocity": 0, "duration": 173}, {"note": 59, "velocity": 77, "duration": 211}, {"note": 62, "velocity": 77, "duration": 177}, {"note": 0, "velocity": 0, "duration": 63}, {"note": 66, "velocity": 72, "duration": 366}, {"note": 64, "velocity": 79, "duration": 156}, {"note": 0, "velocity": 0, "duration": 204}, {"note": 64, "velocity": 79, "duration": 171}, {"note": 0, "velocity": 0, "duration": 69}, {"note": 66, "velocity": 79, "duration": 441}, {"note": 64, "velocity": 80, "duration": 195}, {"note": 0, "velocity": 0, "duration": 165}, {"note": 66, "velocity": 78, "duration": 445}, {"note": 69, "velocity": 77, "duration": 957}, {"note": 0, "velocity": 0, "duration": 483}, {"note": 57, "velocity": 76, "duration": 171}, {"note": 0, "velocity": 0, "duration": 69}, {"note": 59, "velocity": 77, "duration": 206}, {"note": 62, "velocity": 76, "duration": 363}, {"note": 0, "velocity": 0, "duration": 117}, {"note": 62, "velocity": 74, "duration": 165}, {"note": 0, "velocity": 0, "duration": 75}, {"note": 62, "velocity": 76, "duration": 150}, {"note": 0, "velocity": 0, "duration": 90}, {"note": 62, "velocity": 76, "duration": 342}, {"note": 62, "velocity": 76, "duration": 167}, {"note": 0, "velocity": 0, "duration": 193}, {"note": 64, "velocity": 78, "duration": 145}, {"note": 0, "velocity": 0, "duration": 95}, {"note": 66, "velocity": 76, "duration": 361}, {"note": 0, "velocity": 0, "duration": 119}, {"note": 64, "velocity": 78, "duration": 165}, {"note": 0, "velocity": 0, "duration": 75}, {"note": 62, "velocity": 77, "duration": 559}, {"note": 62, "velocity": 76, "duration": 79}, {"note": 0, "velocity": 0, "duration": 161}, {"note": 62, "velocity": 77, "duration": 175}, {"note": 0, "velocity": 0, "duration": 65}, {"note": 74, "velocity": 87, "duration": 175}, {"note": 0, "velocity": 0, "duration": 65}, {"note": 71, "velocity": 76, "duration": 325}, {"note": 0, "velocity": 0, "duration": 155}, {"note": 71, "velocity": 76, "duration": 202}, {"note": 69, "velocity": 73, "duration": 229}, {"note": 0, "velocity": 0, "duration": 251}, {"note": 71, "velocity": 77, "duration": 260}, {"note": 0, "velocity": 0, "duration": 220}, {"note": 69, "velocity": 77, "duration": 479}, {"note": 0, "velocity": 0, "duration": 121}, {"note": 66, "velocity": 76, "duration": 945}, {"note": 0, "velocity": 0, "duration": 135}, {"note": 66, "velocity": 79, "duration": 151}, {"note": 0, "velocity": 0, "duration": 89}, {"note": 69, "velocity": 76, "duration": 202}, {"note": 64, "velocity": 72, "duration": 326}, {"note": 64, "velocity": 76, "duration": 168}, {"note": 0, "velocity": 0, "duration": 192}, {"note": 66, "velocity": 72, "duration": 200}, {"note": 64, "velocity": 80, "duration": 316}, {"note": 64, "velocity": 77, "duration": 150}, {"note": 0, "velocity": 0, "duration": 210}, {"note": 66, "velocity": 72, "duration": 218}, {"note": 64, "velocity": 79, "duration": 442}, {"note": 62, "velocity": 80, "duration": 271}, {"note": 59, "velocity": 78, "duration": 427}, {"note": 59, "velocity": 77, "duration": 140}, {"note": 0, "velocity": 0, "duration": 100}, {"note": 59, "velocity": 78, "duration": 195}, {"note": 62, "velocity": 76, "duration": 168}, {"note": 0, "velocity": 0, "duration": 72}, {"note": 66, "velocity": 78, "duration": 400}, {"note": 64, "velocity": 76, "duration": 130}, {"note": 0, "velocity": 0, "duration": 230}, {"note": 64, "velocity": 76, "duration": 155}, {"note": 0, "velocity": 0, "duration": 85}, {"note": 64, "velocity": 60, "duration": 323}, {"note": 0, "velocity": 0, "duration": 157}, {"note": 64, "velocity": 77, "duration": 272}, {"note": 59, "velocity": 76, "duration": 207}, {"note": 62, "velocity": 78, "duration": 1510}, {"note": 0, "velocity": 0, "duration": 170}, {"note": 62, "velocity": 77, "duration": 207}, {"note": 74, "velocity": 87, "duration": 140}, {"note": 0, "velocity": 0, "duration": 100}, {"note": 74, "velocity": 83, "duration": 135}, {"note": 0, "velocity": 0, "duration": 105}, {"note": 74, "velocity": 82, "duration": 131}, {"note": 0, "velocity": 0, "duration": 109}, {"note": 74, "velocity": 87, "duration": 383}, {"note": 0, "velocity": 0, "duration": 97}, {"note": 73, "velocity": 77, "duration": 177}, {"note": 0, "velocity": 0, "duration": 63}, {"note": 71, "velocity": 76, "duration": 140}, {"note": 0, "velocity": 0, "duration": 100}, {"note": 66, "velocity": 74, "duration": 1292}, {"note": 0, "velocity": 0, "duration": 628}, {"note": 69, "velocity": 77, "duration": 157}, {"note": 0, "velocity": 0, "duration": 83}, {"note": 71, "velocity": 77, "duration": 130}, {"note": 0, "velocity": 0, "duration": 110}, {"note": 71, "velocity": 74, "duration": 139}, {"note": 0, "velocity": 0, "duration": 101}, {"note": 71, "velocity": 75, "duration": 140}, {"note": 0, "velocity": 0, "duration": 100}, {"note": 71, "velocity": 77, "duration": 379}, {"note": 0, "velocity": 0, "duration": 101}, {"note": 62, "velocity": 78, "duration": 165}, {"note": 0, "velocity": 0, "duration": 75}, {"note": 64, "velocity": 76, "duration": 170}, {"note": 0, "velocity": 0, "duration": 70}, {"note": 66, "velocity": 74, "duration": 1291}, {"note": 0, "velocity": 0, "duration": 389}, {"note": 66, "velocity": 76, "duration": 150}, {"note": 0, "velocity": 0, "duration": 90}, {"note": 66, "velocity": 76, "duration": 164}, {"note": 0, "velocity": 0, "duration": 76}, {"note": 67, "velocity": 78, "duration": 356}, {"note": 67, "velocity": 76, "duration": 145}, {"note": 0, "velocity": 0, "duration": 215}, {"note": 67, "velocity": 76, "duration": 141}, {"note": 0, "velocity": 0, "duration": 99}, {"note": 67, "velocity": 77, "duration": 388}, {"note": 0, "velocity": 0, "duration": 92}, {"note": 66, "velocity": 76, "duration": 207}, {"note": 64, "velocity": 76, "duration": 176}, {"note": 0, "velocity": 0, "duration": 64}, {"note": 66, "velocity": 78, "duration": 324}, {"note": 69, "velocity": 76, "duration": 714}, {"note": 0, "velocity": 0, "duration": 246}, {"note": 69, "velocity": 81, "duration": 114}, {"note": 0, "velocity": 0, "duration": 126}, {"note": 69, "velocity": 76, "duration": 136}, {"note": 0, "velocity": 0, "duration": 104}, {"note": 69, "velocity": 77, "duration": 180}, {"note": 71, "velocity": 78, "duration": 365}, {"note": 0, "velocity": 0, "duration": 115}, {"note": 71, "velocity": 80, "duration": 150}, {"note": 0, "velocity": 0, "duration": 90}, {"note": 71, "velocity": 78, "duration": 136}, {"note": 0, "velocity": 0, "duration": 104}, {"note": 71, "velocity": 82, "duration": 355}, {"note": 71, "velocity": 78, "duration": 141}, {"note": 0, "velocity": 0, "duration": 219}, {"note": 71, "velocity": 76, "duration": 146}, {"note": 0, "velocity": 0, "duration": 94}, {"note": 71, "velocity": 80, "duration": 485}, {"note": 0, "velocity": 0, "duration": 235}, {"note": 69, "velocity": 80, "duration": 889}, {"note": 0, "velocity": 0, "duration": 71}, {"note": 69, "velocity": 78, "duration": 154}, {"note": 0, "velocity": 0, "duration": 86}, {"note": 74, "velocity": 82, "duration": 140}, {"note": 0, "velocity": 0, "duration": 100}, {"note": 74, "velocity": 82, "duration": 130}, {"note": 0, "velocity": 0, "duration": 110}, {"note": 74, "velocity": 80, "duration": 125}, {"note": 0, "velocity": 0, "duration": 115}, {"note": 74, "velocity": 87, "duration": 362}, {"note": 0, "velocity": 0, "duration": 118}, {"note": 73, "velocity": 77, "duration": 181}, {"note": 71, "velocity": 77, "duration": 136}, {"note": 0, "velocity": 0, "duration": 104}, {"note": 66, "velocity": 77, "duration": 1319}, {"note": 0, "velocity": 0, "duration": 361}, {"note": 71, "velocity": 77, "duration": 175}, {"note": 0, "velocity": 0, "duration": 65}, {"note": 69, "velocity": 78, "duration": 148}, {"note": 0, "velocity": 0, "duration": 92}, {"note": 71, "velocity": 78, "duration": 149}, {"note": 0, "velocity": 0, "duration": 91}, {"note": 71, "velocity": 76, "duration": 139}, {"note": 0, "velocity": 0, "duration": 101}, {"note": 71, "velocity": 76, "duration": 171}, {"note": 0, "velocity": 0, "duration": 69}, {"note": 69, "velocity": 81, "duration": 413}, {"note": 0, "velocity": 0, "duration": 67}, {"note": 62, "velocity": 76, "duration": 180}, {"note": 64, "velocity": 80, "duration": 154}, {"note": 0, "velocity": 0, "duration": 86}, {"note": 66, "velocity": 72, "duration": 1281}, {"note": 0, "velocity": 0, "duration": 399}, {"note": 66, "velocity": 76, "duration": 161}, {"note": 0, "velocity": 0, "duration": 79}, {"note": 66, "velocity": 72, "duration": 180}, {"note": 67, "velocity": 79, "duration": 253}, {"note": 0, "velocity": 0, "duration": 107}, {"note": 67, "velocity": 77, "duration": 270}, {"note": 0, "velocity": 0, "duration": 90}, {"note": 67, "velocity": 77, "duration": 165}, {"note": 0, "velocity": 0, "duration": 75}, {"note": 67, "velocity": 77, "duration": 401}, {"note": 0, "velocity": 0, "duration": 79}, {"note": 66, "velocity": 82, "duration": 219}, {"note": 64, "velocity": 73, "duration": 186}, {"note": 66, "velocity": 78, "duration": 342}, {"note": 69, "velocity": 79, "duration": 894}, {"note": 0, "velocity": 0, "duration": 66}, {"note": 69, "velocity": 79, "duration": 120}, {"note": 0, "velocity": 0, "duration": 120}, {"note": 69, "velocity": 79, "duration": 131}, {"note": 0, "velocity": 0, "duration": 109}, {"note": 69, "velocity": 78, "duration": 146}, {"note": 0, "velocity": 0, "duration": 94}, {"note": 71, "velocity": 83, "duration": 343}, {"note": 0, "velocity": 0, "duration": 137}, {"note": 71, "velocity": 77, "duration": 139}, {"note": 0, "velocity": 0, "duration": 101}, {"note": 71, "velocity": 77, "duration": 140}, {"note": 0, "velocity": 0, "duration": 100}, {"note": 71, "velocity": 80, "duration": 374}, {"note": 0, "velocity": 0, "duration": 106}, {"note": 71, "velocity": 79, "duration": 158}, {"note": 0, "velocity": 0, "duration": 82}, {"note": 71, "velocity": 77, "duration": 441}, {"note": 0, "velocity": 0, "duration": 279}, {"note": 69, "velocity": 80, "duration": 2471}, {"note": 0, "velocity": 0, "duration": 409}, {"note": 57, "velocity": 76, "duration": 171}, {"note": 0, "velocity": 0, "duration": 69}, {"note": 59, "velocity": 77, "duration": 206}, {"note": 62, "velocity": 76, "duration": 363}, {"note": 0, "velocity": 0, "duration": 117}, {"note": 62, "velocity": 74, "duration": 165}, {"note": 0, "velocity": 0, "duration": 75}, {"note": 62, "velocity": 76, "duration": 150}, {"note": 0, "velocity": 0, "duration": 90}, {"note": 62, "velocity": 76, "duration": 342}, {"note": 62, "velocity": 76, "duration": 167}, {"note": 0, "velocity": 0, "duration": 193}, {"note": 64, "velocity": 78, "duration": 145}, {"note": 0, "velocity": 0, "duration": 95}, {"note": 66, "velocity": 76, "duration": 361}, {"note": 0, "velocity": 0, "duration": 119}, {"note": 64, "velocity": 78, "duration": 165}, {"note": 0, "velocity": 0, "duration": 75}, {"note": 62, "velocity": 77, "duration": 559}, {"note": 62, "velocity": 76, "duration": 79}, {"note": 0, "velocity": 0, "duration": 161}, {"note": 62, "velocity": 77, "duration": 175}, {"note": 0, "velocity": 0, "duration": 65}, {"note": 74, "velocity": 87, "duration": 175}, {"note": 0, "velocity": 0, "duration": 65}, {"note": 71, "velocity": 76, "duration": 325}, {"note": 0, "velocity": 0, "duration": 155}, {"note": 71, "velocity": 76, "duration": 202}, {"note": 69, "velocity": 73, "duration": 229}, {"note": 71, "velocity": 77, "duration": 462}, {"note": 69, "velocity": 77, "duration": 261}, {"note": 69, "velocity": 79, "duration": 21}, {"note": 0, "velocity": 0, "duration": 459}, {"note": 66, "velocity": 76, "duration": 1009}, {"note": 0, "velocity": 0, "duration": 191}, {"note": 69, "velocity": 79, "duration": 151}, {"note": 0, "velocity": 0, "duration": 89}, {"note": 66, "velocity": 76, "duration": 202}, {"note": 64, "velocity": 72, "duration": 326}, {"note": 0, "velocity": 0, "duration": 154}, {"note": 64, "velocity": 76, "duration": 168}, {"note": 0, "velocity": 0, "duration": 72}, {"note": 66, "velocity": 72, "duration": 200}, {"note": 64, "velocity": 80, "duration": 316}, {"note": 0, "velocity": 0, "duration": 164}, {"note": 64, "velocity": 77, "duration": 150}, {"note": 0, "velocity": 0, "duration": 90}, {"note": 66, "velocity": 72, "duration": 218}, {"note": 64, "velocity": 79, "duration": 442}, {"note": 62, "velocity": 80, "duration": 271}, {"note": 59, "velocity": 78, "duration": 427}, {"note": 59, "velocity": 77, "duration": 140}, {"note": 0, "velocity": 0, "duration": 100}, {"note": 59, "velocity": 78, "duration": 195}, {"note": 62, "velocity": 76, "duration": 168}, {"note": 0, "velocity": 0, "duration": 72}, {"note": 66, "velocity": 78, "duration": 400}, {"note": 64, "velocity": 76, "duration": 130}, {"note": 0, "velocity": 0, "duration": 230}, {"note": 64, "velocity": 76, "duration": 155}, {"note": 0, "velocity": 0, "duration": 85}, {"note": 64, "velocity": 60, "duration": 323}, {"note": 0, "velocity": 0, "duration": 157}, {"note": 64, "velocity": 77, "duration": 1680}, {"note": 0, "velocity": 0, "duration": 240}, {"note": 59, "velocity": 78, "duration": 534}, {"note": 0, "velocity": 0, "duration": 186}, {"note": 62, "velocity": 76, "duration": 1470}]]