[[{"note": 63, "velocity": 74, "duration": 111}, {"note": 66, "velocity": 76, "duration": 119}, {"note": 65, "velocity": 77, "duration": 246}, {"note": 63, "velocity": 75, "duration": 135}, {"note": 65, "velocity": 79, "duration": 360}, {"note": 66, "velocity": 76, "duration": 120}, {"note": 68, "velocity": 73, "duration": 383}, {"note": 66, "velocity": 76, "duration": 230}, {"note": 66, "velocity": 76, "duration": 2}, {"note": 0, "velocity": 0, "duration": 164}, {"note": 65, "velocity": 79, "duration": 157}, {"note": 63, "velocity": 75, "duration": 135}, {"note": 61, "velocity": 79, "duration": 244}, {"note": 63, "velocity": 74, "duration": 199}, {"note": 61, "velocity": 75, "duration": 244}, {"note": 58, "velocity": 71, "duration": 136}, {"note": 56, "velocity": 77, "duration": 652}, {"note": 0, "velocity": 0, "duration": 188}, {"note": 54, "velocity": 76, "duration": 108}, {"note": 56, "velocity": 74, "duration": 136}, {"note": 58, "velocity": 74, "duration": 613}, {"note": 0, "velocity": 0, "duration": 107}, {"note": 58, "velocity": 77, "duration": 60}, {"note": 58, "velocity": 76, "duration": 119}, {"note": 61, "velocity": 77, "duration": 209}, {"note": 59, "velocity": 76, "duration": 235}, {"note": 58, "velocity": 74, "duration": 258}, {"note": 59, "velocity": 73, "duration": 257}, {"note": 58, "velocity": 73, "duration": 530}, {"note": 0, "velocity": 0, "duration": 190}, {"note": 58, "velocity": 75, "duration": 74}, {"note": 58, "velocity": 74, "duration": 91}, {"note": 63, "velocity": 75, "duration": 201}, {"note": 61, "velocity": 72, "duration": 256}, {"note": 58, "velocity": 71, "duration": 242}, {"note": 54, "velocity": 76, "duration": 233}, {"note": 58, "velocity": 68, "duration": 480}, {"note": 56, "velocity": 76, "duration": 480}, {"note": 59, "velocity": 68, "duration": 488}, {"note": 56, "velocity": 76, "duration": 238}, {"note": 58, "velocity": 75, "duration": 1219}, {"note": 0, "velocity": 0, "duration": 701}, {"note": 63, "velocity": 74, "duration": 111}, {"note": 66, "velocity": 76, "duration": 119}, {"note": 65, "velocity": 77, "duration": 246}, {"note": 63, "velocity": 75, "duration": 135}, {"note": 65, "velocity": 79, "duration": 360}, {"note": 66, "velocity": 76, "duration": 120}, {"note": 68, "velocity": 73, "duration": 383}, {"note": 66, "velocity": 76, "duration": 230}, {"note": 66, "velocity": 76, "duration": 2}, {"note": 0, "velocity": 0, "duration": 164}, {"note": 65, "velocity": 79, "duration": 157}, {"note": 63, "velocity": 75, "duration": 135}, {"note": 61, "velocity": 79, "duration": 244}, {"note": 63, "velocity": 74, "duration": 199}, {"note": 61, "velocity": 75, "duration": 244}, {"note": 58, "velocity": 71, "duration": 136}, {"note": 56, "velocity": 77, "duration": 652}, {"note": 0, "velocity": 0, "duration": 188}, {"note": 54, "velocity": 76, "duration": 108}, {"note": 56, "velocity": 74, "duration": 136}, {"note": 58, "velocity": 74, "duration": 613}, {"note": 0, "velocity": 0, "duration": 107}, {"note": 63, "velocity": 77, "duration": 60}, {"note": 61, "velocity": 76, "duration": 120}, {"note": 61, "velocity": 77, "duration": 209}, {"note": 58, "velocity": 76, "duration": 235}, {"note": 59, "velocity": 74, "duration": 258}, {"note": 58, "velocity": 73, "duration": 120}, {"note": 56, "velocity": 73, "duration": 600}, {"note": 0, "velocity": 0, "duration": 1200}, {"note": 58, "velocity": 74, "duration": 79}, {"note": 58, "velocity": 71, "duration": 88}, {"note": 59, "velocity": 76, "duration": 213}, {"note": 66, "velocity": 77, "duration": 201}, {"note": 65, "velocity": 82, "duration": 238}, {"note": 63, "velocity": 75, "duration": 109}, {"note": 65, "velocity": 80, "duration": 580}, {"note": 65, "velocity": 77, "duration": 239}, {"note": 63, "velocity": 69, "duration": 1106}, {"note": 0, "velocity": 0, "duration": 814}, {"note": 66, "velocity": 77, "duration": 95}, {"note": 68, "velocity": 76, "duration": 151}, {"note": 70, "velocity": 76, "duration": 223}, {"note": 66, "velocity": 78, "duration": 268}, {"note": 73, "velocity": 76, "duration": 323}, {"note": 70, "velocity": 76, "duration": 129}, {"note": 68, "velocity": 75, "duration": 237}, {"note": 61, "velocity": 77, "duration": 239}, {"note": 73, "velocity": 75, "duration": 310}, {"note": 65, "velocity": 75, "duration": 235}, {"note": 63, "velocity": 70, "duration": 92}, {"note": 65, "velocity": 79, "duration": 119}, {"note": 66, "velocity": 74, "duration": 98}, {"note": 63, "velocity": 76, "duration": 125}, {"note": 66, "velocity": 78, "duration": 246}, {"note": 68, "velocity": 74, "duration": 141}, {"note": 70, "velocity": 72, "duration": 685}, {"note": 70, "velocity": 76, "duration": 71}, {"note": 70, "velocity": 77, "duration": 55}, {"note": 0, "velocity": 0, "duration": 65}, {"note": 70, "velocity": 76, "duration": 114}, {"note": 68, "velocity": 81, "duration": 195}, {"note": 70, "velocity": 76, "duration": 102}, {"note": 71, "velocity": 77, "duration": 239}, {"note": 68, "velocity": 75, "duration": 277}, {"note": 0, "velocity": 0, "duration": 83}, {"note": 66, "velocity": 76, "duration": 244}, {"note": 68, "velocity": 75, "duration": 139}, {"note": 70, "velocity": 76, "duration": 248}, {"note": 63, "velocity": 68, "duration": 305}, {"note": 58, "velocity": 76, "duration": 67}, {"note": 65, "velocity": 77, "duration": 71}, {"note": 66, "velocity": 77, "duration": 59}, {"note": 0, "velocity": 0, "duration": 61}, {"note": 65, "velocity": 73, "duration": 87}, {"note": 66, "velocity": 70, "duration": 84}, {"note": 68, "velocity": 75, "duration": 89}, {"note": 66, "velocity": 67, "duration": 132}, {"note": 65, "velocity": 76, "duration": 106}, {"note": 66, "velocity": 75, "duration": 91}, {"note": 65, "velocity": 75, "duration": 76}, {"note": 58, "velocity": 71, "duration": 90}, {"note": 65, "velocity": 77, "duration": 65}, {"note": 63, "velocity": 76, "duration": 360}, {"note": 66, "velocity": 77, "duration": 95}, {"note": 68, "velocity": 76, "duration": 151}, {"note": 70, "velocity": 76, "duration": 223}, {"note": 66, "velocity": 78, "duration": 268}, {"note": 73, "velocity": 76, "duration": 323}, {"note": 70, "velocity": 76, "duration": 129}, {"note": 68, "velocity": 75, "duration": 237}, {"note": 61, "velocity": 77, "duration": 239}, {"note": 73, "velocity": 75, "duration": 310}, {"note": 65, "velocity": 75, "duration": 235}, {"note": 63, "velocity": 70, "duration": 92}, {"note": 65, "velocity": 79, "duration": 119}, {"note": 66, "velocity": 74, "duration": 98}, {"note": 63, "velocity": 76, "duration": 125}, {"note": 66, "velocity": 78, "duration": 246}, {"note": 68, "velocity": 74, "duration": 141}, {"note": 70, "velocity": 72, "duration": 685}, {"note": 70, "velocity": 76, "duration": 71}, {"note": 70, "velocity": 77, "duration": 55}, {"note": 0, "velocity": 0, "duration": 65}, {"note": 70, "velocity": 76, "duration": 114}, {"note": 68, "velocity": 81, "duration": 195}, {"note": 70, "velocity": 76, "duration": 102}, {"note": 71, "velocity": 77, "duration": 239}, {"note": 68, "velocity": 75, "duration": 277}, {"note": 0, "velocity": 0, "duration": 83}, {"note": 66, "velocity": 76, "duration": 244}, {"note": 68, "velocity": 75, "duration": 139}, {"note": 70, "velocity": 76, "duration": 248}, {"note": 0, "velocity": 0, "duration": 112}, {"note": 63, "velocity": 76, "duration": 81}, {"note": 65, "velocity": 74, "duration": 153}, {"note": 66, "velocity": 75, "duration": 220}, {"note": 63, "velocity": 77, "duration": 396}, {"note": 0, "velocity": 0, "duration": 84}, {"note": 73, "velocity": 75, "duration": 114}, {"note": 70, "velocity": 74, "duration": 136}, {"note": 68, "velocity": 75, "duration": 772}, {"note": 0, "velocity": 0, "duration": 428}, {"note": 68, "velocity": 66, "duration": 97}, {"note": 66, "velocity": 75, "duration": 130}, {"note": 65, "velocity": 86, "duration": 222}, {"note": 61, "velocity": 78, "duration": 252}, {"note": 58, "velocity": 75, "duration": 254}, {"note": 63, "velocity": 72, "duration": 1178}, {"note": 0, "velocity": 0, "duration": 7942}, {"note": 63, "velocity": 74, "duration": 111}, {"note": 66, "velocity": 76, "duration": 119}, {"note": 65, "velocity": 77, "duration": 246}, {"note": 63, "velocity": 75, "duration": 135}, {"note": 65, "velocity": 79, "duration": 360}, {"note": 66, "velocity": 76, "duration": 120}, {"note": 68, "velocity": 73, "duration": 383}, {"note": 66, "velocity": 76, "duration": 230}, {"note": 66, "velocity": 76, "duration": 2}, {"note": 0, "velocity": 0, "duration": 164}, {"note": 65, "velocity": 79, "duration": 157}, {"note": 63, "velocity": 75, "duration": 135}, {"note": 61, "velocity": 79, "duration": 244}, {"note": 63, "velocity": 74, "duration": 199}, {"note": 61, "velocity": 75, "duration": 244}, {"note": 58, "velocity": 71, "duration": 136}, {"note": 56, "velocity": 77, "duration": 652}, {"note": 0, "velocity": 0, "duration": 188}, {"note": 54, "velocity": 76, "duration": 108}, {"note": 56, "velocity": 74, "duration": 136}, {"note": 58, "velocity": 74, "duration": 613}, {"note": 0, "velocity": 0, "duration": 107}, {"note": 63, "velocity": 77, "duration": 60}, {"note": 61, "velocity": 76, "duration": 120}, {"note": 61, "velocity": 77, "duration": 209}, {"note": 58, "velocity": 76, "duration": 235}, {"note": 59, "velocity": 74, "duration": 258}, {"note": 58, "velocity": 73, "duration": 120}, {"note": 56, "velocity": 73, "duration": 600}, {"note": 0, "velocity": 0, "duration": 1200}, {"note": 58, "velocity": 74, "duration": 79}, {"note": 58, "velocity": 71, "duration": 88}, {"note": 59, "velocity": 76, "duration": 213}, {"note": 66, "velocity": 77, "duration": 201}, {"note": 65, "velocity": 82, "duration": 238}, {"note": 63, "velocity": 75, "duration": 109}, {"note": 65, "velocity": 80, "duration": 580}, {"note": 65, "velocity": 77, "duration": 239}, {"note": 63, "velocity": 69, "duration": 1106}, {"note": 0, "velocity": 0, "duration": 814}, {"note": 66, "velocity": 77, "duration": 95}, {"note": 68, "velocity": 76, "duration": 151}, {"note": 70, "velocity": 76, "duration": 223}, {"note": 66, "velocity": 78, "duration": 268}, {"note": 73, "velocity": 76, "duration": 323}, {"note": 70, "velocity": 76, "duration": 129}, {"note": 68, "velocity": 75, "duration": 237}, {"note": 61, "velocity": 77, "duration": 239}, {"note": 73, "velocity": 75, "duration": 310}, {"note": 65, "velocity": 75, "duration": 235}, {"note": 63, "velocity": 70, "duration": 92}, {"note": 65, "velocity": 79, "duration": 119}, {"note": 66, "velocity": 74, "duration": 98}, {"note": 63, "velocity": 76, "duration": 125}, {"note": 66, "velocity": 78, "duration": 246}, {"note": 68, "velocity": 74, "duration": 141}, {"note": 70, "velocity": 72, "duration": 685}, {"note": 70, "velocity": 76, "duration": 71}, {"note": 70, "velocity": 77, "duration": 55}, {"note": 0, "velocity": 0, "duration": 65}, {"note": 70, "velocity": 76, "duration": 114}, {"note": 68, "velocity": 81, "duration": 195}, {"note": 70, "velocity": 76, "duration": 102}, {"note": 71, "velocity": 77, "duration": 239}, {"note": 68, "velocity": 75, "duration": 277}, {"note": 0, "velocity": 0, "duration": 83}, {"note": 66, "velocity": 76, "duration": 244}, {"note": 68, "velocity": 75, "duration": 139}, {"note": 70, "velocity": 76, "duration": 248}, {"note": 63, "velocity": 68, "duration": 305}, {"note": 58, "velocity": 76, "duration": 67}, {"note": 65, "velocity": 77, "duration": 71}, {"note": 66, "velocity": 77, "duration": 59}, {"note": 0, "velocity": 0, "duration": 61}, {"note": 65, "velocity": 73, "duration": 87}, {"note": 66, "velocity": 70, "duration": 84}, {"note": 68, "velocity": 75, "duration": 89}, {"note": 66, "velocity": 67, "duration": 132}, {"note": 65, "velocity": 76, "duration": 106}, {"note": 66, "velocity": 75, "duration": 91}, {"note": 65, "velocity": 75, "duration": 76}, {"note": 58, "velocity": 71, "duration": 90}, {"note": 65, "velocity": 77, "duration": 65}, {"note": 63, "velocity": 76, "duration": 360}, {"note": 66, "velocity": 77, "duration": 95}, {"note": 68, "velocity": 76, "duration": 151}, {"note": 70, "velocity": 76, "duration": 223}, {"note": 66, "velocity": 78, "duration": 268}, {"note": 73, "velocity": 76, "duration": 323}, {"note": 70, "velocity": 76, "duration": 129}, {"note": 68, "velocity": 75, "duration": 237}, {"note": 61, "velocity": 77, "duration": 239}, {"note": 73, "velocity": 75, "duration": 310}, {"note": 65, "velocity": 75, "duration": 235}, {"note": 63, "velocity": 70, "duration": 92}, {"note": 65, "velocity": 79, "duration": 119}, {"note": 66, "velocity": 74, "duration": 98}, {"note": 63, "velocity": 76, "duration": 125}, {"note": 66, "velocity": 78, "duration": 246}, {"note": 68, "velocity": 74, "duration": 141}, {"note": 70, "velocity": 72, "duration": 685}, {"note": 70, "velocity": 76, "duration": 71}, {"note": 70, "velocity": 77, "duration": 55}, {"note": 0, "velocity": 0, "duration": 65}, {"note": 70, "velocity": 76, "duration": 114}, {"note": 68, "velocity": 81, "duration": 195}, {"note": 70, "velocity": 76, "duration": 102}, {"note": 71, "velocity": 77, "duration": 239}, {"note": 68, "velocity": 75, "duration": 277}, {"note": 0, "velocity": 0, "duration": 83}, {"note": 66, "velocity": 76, "duration": 244}, {"note": 68, "velocity": 75, "duration": 139}, {"note": 70, "velocity": 76, "duration": 248}, {"note": 0, "velocity": 0, "duration": 112}, {"note": 63, "velocity": 76, "duration": 81}, {"note": 65, "velocity": 74, "duration": 153}, {"note": 66, "velocity": 75, "duration": 220}, {"note": 63, "velocity": 77, "duration": 396}, {"note": 0, "velocity": 0, "duration": 84}, {"note": 73, "velocity": 75, "duration": 114}, {"note": 70, "velocity": 74, "duration": 136}, {"note": 68, "velocity": 75, "duration": 772}, {"note": 0, "velocity": 0, "duration": 428}, {"note": 68, "velocity": 66, "duration": 97}, {"note": 66, "velocity": 75, "duration": 130}, {"note": 65, "velocity": 86, "duration": 222}, {"note": 61, "velocity": 78, "duration": 252}, {"note": 58, "velocity": 75, "duration": 254}, {"note": 63, "velocity": 72, "duration": 1178}, {"note": 0, "velocity": 0, "duration": 622}, {"note": 58, "velocity": 77, "duration": 136}, {"note": 63, "velocity": 75, "duration": 119}, {"note": 65, "velocity": 77, "duration": 113}, {"note": 66, "velocity": 76, "duration": 235}, {"note": 63, "velocity": 81, "duration": 223}, {"note": 61, "velocity": 81, "duration": 197}, {"note": 70, "velocity": 77, "duration": 64}, {"note": 70, "velocity": 82, "duration": 92}, {"note": 68, "velocity": 77, "duration": 192}, {"note": 66, "velocity": 77, "duration": 221}, {"note": 65, "velocity": 76, "duration": 117}, {"note": 63, "velocity": 66, "duration": 84}, {"note": 65, "velocity": 76, "duration": 87}, {"note": 63, "velocity": 73, "duration": 84}, {"note": 65, "velocity": 77, "duration": 233}, {"note": 0, "velocity": 0, "duration": 127}, {"note": 65, "velocity": 77, "duration": 130}, {"note": 66, "velocity": 76, "duration": 123}, {"note": 65, "velocity": 79, "duration": 130}, {"note": 63, "velocity": 75, "duration": 134}, {"note": 61, "velocity": 78, "duration": 133}, {"note": 63, "velocity": 75, "duration": 243}, {"note": 0, "velocity": 0, "duration": 357}, {"note": 61, "velocity": 77, "duration": 97}, {"note": 66, "velocity": 75, "duration": 129}, {"note": 68, "velocity": 72, "duration": 109}, {"note": 70, "velocity": 66, "duration": 225}, {"note": 66, "velocity": 77, "duration": 276}, {"note": 73, "velocity": 76, "duration": 240}, {"note": 73, "velocity": 76, "duration": 120}, {"note": 73, "velocity": 76, "duration": 120}, {"note": 70, "velocity": 79, "duration": 202}, {"note": 68, "velocity": 76, "duration": 240}, {"note": 63, "velocity": 75, "duration": 230}, {"note": 65, "velocity": 76, "duration": 109}, {"note": 66, "velocity": 72, "duration": 155}, {"note": 68, "velocity": 76, "duration": 246}, {"note": 70, "velocity": 75, "duration": 247}, {"note": 65, "velocity": 78, "duration": 416}, {"note": 0, "velocity": 0, "duration": 64}, {"note": 65, "velocity": 79, "duration": 207}, {"note": 66, "velocity": 76, "duration": 198}, {"note": 65, "velocity": 77, "duration": 243}, {"note": 63, "velocity": 76, "duration": 1223}, {"note": 0, "velocity": 0, "duration": 217}, {"note": 66, "velocity": 77, "duration": 95}, {"note": 68, "velocity": 76, "duration": 151}, {"note": 70, "velocity": 76, "duration": 223}, {"note": 66, "velocity": 78, "duration": 268}, {"note": 73, "velocity": 76, "duration": 323}, {"note": 70, "velocity": 76, "duration": 129}, {"note": 68, "velocity": 75, "duration": 237}, {"note": 61, "velocity": 77, "duration": 239}, {"note": 73, "velocity": 75, "duration": 310}, {"note": 65, "velocity": 75, "duration": 235}, {"note": 63, "velocity": 70, "duration": 92}, {"note": 65, "velocity": 79, "duration": 119}, {"note": 66, "velocity": 74, "duration": 98}, {"note": 63, "velocity": 76, "duration": 125}, {"note": 66, "velocity": 78, "duration": 246}, {"note": 68, "velocity": 74, "duration": 141}, {"note": 70, "velocity": 72, "duration": 685}, {"note": 70, "velocity": 76, "duration": 71}, {"note": 70, "velocity": 77, "duration": 55}, {"note": 0, "velocity": 0, "duration": 65}, {"note": 70, "velocity": 76, "duration": 114}, {"note": 68, "velocity": 81, "duration": 195}, {"note": 70, "velocity": 76, "duration": 102}, {"note": 71, "velocity": 77, "duration": 239}, {"note": 68, "velocity": 75, "duration": 277}, {"note": 0, "velocity": 0, "duration": 83}, {"note": 66, "velocity": 76, "duration": 244}, {"note": 68, "velocity": 75, "duration": 139}, {"note": 70, "velocity": 76, "duration": 248}, {"note": 63, "velocity": 68, "duration": 305}, {"note": 58, "velocity": 76, "duration": 67}, {"note": 65, "velocity": 77, "duration": 71}, {"note": 66, "velocity": 77, "duration": 59}, {"note": 0, "velocity": 0, "duration": 61}, {"note": 65, "velocity": 73, "duration": 87}, {"note": 66, "velocity": 70, "duration": 84}, {"note": 68, "velocity": 75, "duration": 89}, {"note": 66, "velocity": 67, "duration": 132}, {"note": 65, "velocity": 76, "duration": 106}, {"note": 66, "velocity": 75, "duration": 91}, {"note": 65, "velocity": 75, "duration": 76}, {"note": 58, "velocity": 71, "duration": 90}, {"note": 65, "velocity": 77, "duration": 65}, {"note": 63, "velocity": 76, "duration": 360}, {"note": 66, "velocity": 77, "duration": 95}, {"note": 68, "velocity": 76, "duration": 151}, {"note": 70, "velocity": 76, "duration": 223}, {"note": 66, "velocity": 78, "duration": 268}, {"note": 73, "velocity": 76, "duration": 323}, {"note": 70, "velocity": 76, "duration": 129}, {"note": 68, "velocity": 75, "duration": 237}, {"note": 61, "velocity": 77, "duration": 239}, {"note": 73, "velocity": 75, "duration": 310}, {"note": 65, "velocity": 75, "duration": 235}, {"note": 63, "velocity": 70, "duration": 92}, {"note": 65, "velocity": 79, "duration": 119}, {"note": 66, "velocity": 74, "duration": 98}, {"note": 63, "velocity": 76, "duration": 125}, {"note": 66, "velocity": 78, "duration": 246}, {"note": 68, "velocity": 74, "duration": 141}, {"note": 70, "velocity": 72, "duration": 685}, {"note": 70, "velocity": 76, "duration": 71}, {"note": 70, "velocity": 77, "duration": 55}, {"note": 0, "velocity": 0, "duration": 65}, {"note": 70, "velocity": 76, "duration": 114}, {"note": 68, "velocity": 81, "duration": 195}, {"note": 70, "velocity": 76, "duration": 102}, {"note": 71, "velocity": 77, "duration": 239}, {"note": 68, "velocity": 75, "duration": 277}, {"note": 0, "velocity": 0, "duration": 83}, {"note": 66, "velocity": 76, "duration": 244}, {"note": 68, "velocity": 75, "duration": 139}, {"note": 70, "velocity": 76, "duration": 248}, {"note": 0, "velocity": 0, "duration": 112}, {"note": 63, "velocity": 76, "duration": 81}, {"note": 65, "velocity": 74, "duration": 153}, {"note": 66, "velocity": 75, "duration": 220}, {"note": 63, "velocity": 77, "duration": 396}, {"note": 0, "velocity": 0, "duration": 84}, {"note": 73, "velocity": 75, "duration": 114}, {"note": 70, "velocity": 74, "duration": 136}, {"note": 68, "velocity": 75, "duration": 772}, {"note": 0, "velocity": 0, "duration": 428}, {"note": 68, "velocity": 66, "duration": 97}, {"note": 66, "velocity": 75, "duration": 130}, {"note": 65, "velocity": 86, "duration": 222}, {"note": 61, "velocity": 78, "duration": 252}, {"note": 58, "velocity": 75, "duration": 254}, {"note": 63, "velocity": 72, "duration": 1178}]]