[[{"note": 63, "velocity": 73, "duration": 200}, {"note": 0, "velocity": 0, "duration": 96}, {"note": 63, "velocity": 74, "duration": 132}, {"note": 0, "velocity": 0, "duration": 75}, {"note": 63, "velocity": 75, "duration": 845}, {"note": 61, "velocity": 79, "duration": 277}, {"note": 58, "velocity": 71, "duration": 981}, {"note": 0, "velocity": 0, "duration": 572}, {"note": 63, "velocity": 71, "duration": 208}, {"note": 65, "velocity": 82, "duration": 201}, {"note": 66, "velocity": 72, "duration": 544}, {"note": 65, "velocity": 76, "duration": 512}, {"note": 63, "velocity": 74, "duration": 867}, {"note": 61, "velocity": 71, "duration": 391}, {"note": 63, "velocity": 79, "duration": 1798}, {"note": 0, "velocity": 0, "duration": 555}, {"note": 66, "velocity": 74, "duration": 191}, {"note": 0, "velocity": 0, "duration": 96}, {"note": 66, "velocity": 76, "duration": 234}, {"note": 0, "velocity": 0, "duration": 80}, {"note": 66, "velocity": 81, "duration": 547}, {"note": 65, "velocity": 78, "duration": 487}, {"note": 63, "velocity": 77, "duration": 1276}, {"note": 0, "velocity": 0, "duration": 220}, {"note": 63, "velocity": 67, "duration": 242}, {"note": 65, "velocity": 80, "duration": 164}, {"note": 0, "velocity": 0, "duration": 74}, {"note": 66, "velocity": 77, "duration": 833}, {"note": 65, "velocity": 78, "duration": 271}, {"note": 63, "velocity": 75, "duration": 525}, {"note": 61, "velocity": 78, "duration": 541}, {"note": 63, "velocity": 77, "duration": 1585}, {"note": 0, "velocity": 0, "duration": 367}, {"note": 66, "velocity": 78, "duration": 266}, {"note": 68, "velocity": 77, "duration": 274}, {"note": 70, "velocity": 78, "duration": 252}, {"note": 73, "velocity": 81, "duration": 275}, {"note": 68, "velocity": 77, "duration": 515}, {"note": 66, "velocity": 74, "duration": 462}, {"note": 65, "velocity": 79, "duration": 266}, {"note": 63, "velocity": 79, "duration": 462}, {"note": 61, "velocity": 78, "duration": 253}, {"note": 63, "velocity": 82, "duration": 561}, {"note": 0, "velocity": 0, "duration": 133}, {"note": 66, "velocity": 75, "duration": 136}, {"note": 65, "velocity": 79, "duration": 186}, {"note": 63, "velocity": 80, "duration": 704}, {"note": 66, "velocity": 78, "duration": 166}, {"note": 65, "velocity": 78, "duration": 120}, {"note": 0, "velocity": 0, "duration": 79}, {"note": 65, "velocity": 82, "duration": 438}, {"note": 61, "velocity": 78, "duration": 484}, {"note": 58, "velocity": 74, "duration": 1760}, {"note": 0, "velocity": 0, "duration": 195}, {"note": 66, "velocity": 82, "duration": 263}, {"note": 68, "velocity": 75, "duration": 270}, {"note": 70, "velocity": 82, "duration": 247}, {"note": 73, "velocity": 82, "duration": 257}, {"note": 68, "velocity": 77, "duration": 498}, {"note": 66, "velocity": 81, "duration": 458}, {"note": 65, "velocity": 77, "duration": 520}, {"note": 65, "velocity": 83, "duration": 20}, {"note": 0, "velocity": 0, "duration": 220}, {"note": 70, "velocity": 78, "duration": 268}, {"note": 63, "velocity": 78, "duration": 635}, {"note": 0, "velocity": 0, "duration": 138}, {"note": 66, "velocity": 77, "duration": 124}, {"note": 65, "velocity": 84, "duration": 113}, {"note": 63, "velocity": 75, "duration": 599}, {"note": 0, "velocity": 0, "duration": 97}, {"note": 66, "velocity": 80, "duration": 118}, {"note": 65, "velocity": 82, "duration": 126}, {"note": 63, "velocity": 82, "duration": 456}, {"note": 70, "velocity": 82, "duration": 359}, {"note": 0, "velocity": 0, "duration": 75}, {"note": 70, "velocity": 78, "duration": 1695}, {"note": 0, "velocity": 0, "duration": 206}, {"note": 66, "velocity": 78, "duration": 265}, {"note": 68, "velocity": 77, "duration": 274}, {"note": 70, "velocity": 78, "duration": 252}, {"note": 73, "velocity": 81, "duration": 274}, {"note": 68, "velocity": 77, "duration": 515}, {"note": 66, "velocity": 74, "duration": 461}, {"note": 65, "velocity": 79, "duration": 266}, {"note": 63, "velocity": 79, "duration": 462}, {"note": 61, "velocity": 78, "duration": 253}, {"note": 63, "velocity": 82, "duration": 561}, {"note": 0, "velocity": 0, "duration": 133}, {"note": 66, "velocity": 75, "duration": 136}, {"note": 65, "velocity": 79, "duration": 186}, {"note": 63, "velocity": 80, "duration": 704}, {"note": 66, "velocity": 78, "duration": 166}, {"note": 65, "velocity": 78, "duration": 120}, {"note": 63, "velocity": 82, "duration": 437}, {"note": 66, "velocity": 78, "duration": 231}, {"note": 65, "velocity": 83, "duration": 465}, {"note": 63, "velocity": 78, "duration": 1396}, {"note": 0, "velocity": 0, "duration": 303}, {"note": 66, "velocity": 82, "duration": 263}, {"note": 68, "velocity": 75, "duration": 269}, {"note": 70, "velocity": 82, "duration": 248}, {"note": 73, "velocity": 82, "duration": 257}, {"note": 68, "velocity": 77, "duration": 499}, {"note": 66, "velocity": 81, "duration": 459}, {"note": 65, "velocity": 77, "duration": 520}, {"note": 65, "velocity": 83, "duration": 20}, {"note": 0, "velocity": 0, "duration": 221}, {"note": 70, "velocity": 78, "duration": 267}, {"note": 63, "velocity": 78, "duration": 634}, {"note": 0, "velocity": 0, "duration": 138}, {"note": 66, "velocity": 77, "duration": 125}, {"note": 65, "velocity": 84, "duration": 112}, {"note": 63, "velocity": 75, "duration": 600}, {"note": 0, "velocity": 0, "duration": 96}, {"note": 66, "velocity": 80, "duration": 118}, {"note": 65, "velocity": 82, "duration": 126}, {"note": 63, "velocity": 82, "duration": 455}, {"note": 0, "velocity": 0, "duration": 269}, {"note": 66, "velocity": 80, "duration": 266}, {"note": 65, "velocity": 83, "duration": 393}, {"note": 63, "velocity": 78, "duration": 1500}, {"note": 0, "velocity": 0, "duration": 424}, {"note": 66, "velocity": 80, "duration": 169}, {"note": 65, "velocity": 83, "duration": 482}, {"note": 63, "velocity": 77, "duration": 1681}, {"note": 0, "velocity": 0, "duration": 1402}, {"note": 65, "velocity": 78, "duration": 493}, {"note": 0, "velocity": 0, "duration": 423}, {"note": 63, "velocity": 76, "duration": 1922}, {"note": 0, "velocity": 0, "duration": 18803}, {"note": 63, "velocity": 85, "duration": 206}, {"note": 63, "velocity": 86, "duration": 192}, {"note": 0, "velocity": 0, "duration": 65}, {"note": 63, "velocity": 91, "duration": 739}, {"note": 61, "velocity": 82, "duration": 238}, {"note": 58, "velocity": 77, "duration": 1313}, {"note": 0, "velocity": 0, "duration": 150}, {"note": 63, "velocity": 82, "duration": 197}, {"note": 65, "velocity": 84, "duration": 201}, {"note": 66, "velocity": 79, "duration": 490}, {"note": 65, "velocity": 78, "duration": 459}, {"note": 63, "velocity": 78, "duration": 760}, {"note": 61, "velocity": 78, "duration": 275}, {"note": 63, "velocity": 79, "duration": 1284}, {"note": 0, "velocity": 0, "duration": 1087}, {"note": 66, "velocity": 81, "duration": 172}, {"note": 0, "velocity": 0, "duration": 62}, {"note": 66, "velocity": 82, "duration": 162}, {"note": 0, "velocity": 0, "duration": 75}, {"note": 66, "velocity": 83, "duration": 689}, {"note": 65, "velocity": 83, "duration": 263}, {"note": 63, "velocity": 78, "duration": 790}, {"note": 70, "velocity": 77, "duration": 155}, {"note": 0, "velocity": 0, "duration": 79}, {"note": 70, "velocity": 77, "duration": 620}, {"note": 0, "velocity": 0, "duration": 97}, {"note": 63, "velocity": 83, "duration": 99}, {"note": 65, "velocity": 83, "duration": 94}, {"note": 66, "velocity": 82, "duration": 705}, {"note": 65, "velocity": 82, "duration": 258}, {"note": 63, "velocity": 81, "duration": 519}, {"note": 61, "velocity": 80, "duration": 516}, {"note": 63, "velocity": 77, "duration": 1466}, {"note": 0, "velocity": 0, "duration": 465}, {"note": 66, "velocity": 83, "duration": 261}, {"note": 68, "velocity": 80, "duration": 295}, {"note": 70, "velocity": 78, "duration": 257}, {"note": 73, "velocity": 79, "duration": 260}, {"note": 68, "velocity": 78, "duration": 524}, {"note": 66, "velocity": 82, "duration": 498}, {"note": 65, "velocity": 78, "duration": 519}, {"note": 63, "velocity": 77, "duration": 254}, {"note": 61, "velocity": 76, "duration": 277}, {"note": 63, "velocity": 75, "duration": 719}, {"note": 66, "velocity": 81, "duration": 152}, {"note": 65, "velocity": 77, "duration": 156}, {"note": 63, "velocity": 82, "duration": 582}, {"note": 0, "velocity": 0, "duration": 103}, {"note": 66, "velocity": 83, "duration": 132}, {"note": 65, "velocity": 82, "duration": 125}, {"note": 63, "velocity": 81, "duration": 471}, {"note": 61, "velocity": 83, "duration": 531}, {"note": 58, "velocity": 82, "duration": 1622}, {"note": 0, "velocity": 0, "duration": 309}, {"note": 66, "velocity": 73, "duration": 263}, {"note": 68, "velocity": 79, "duration": 268}, {"note": 70, "velocity": 80, "duration": 245}, {"note": 73, "velocity": 81, "duration": 252}, {"note": 68, "velocity": 74, "duration": 525}, {"note": 66, "velocity": 78, "duration": 470}, {"note": 65, "velocity": 79, "duration": 456}, {"note": 65, "velocity": 83, "duration": 263}, {"note": 70, "velocity": 78, "duration": 258}, {"note": 63, "velocity": 73, "duration": 631}, {"note": 0, "velocity": 0, "duration": 111}, {"note": 66, "velocity": 82, "duration": 155}, {"note": 65, "velocity": 81, "duration": 125}, {"note": 63, "velocity": 77, "duration": 599}, {"note": 0, "velocity": 0, "duration": 69}, {"note": 66, "velocity": 79, "duration": 208}, {"note": 65, "velocity": 84, "duration": 187}, {"note": 63, "velocity": 74, "duration": 386}, {"note": 0, "velocity": 0, "duration": 61}, {"note": 70, "velocity": 80, "duration": 431}, {"note": 70, "velocity": 77, "duration": 1756}, {"note": 0, "velocity": 0, "duration": 179}, {"note": 66, "velocity": 83, "duration": 261}, {"note": 68, "velocity": 80, "duration": 295}, {"note": 70, "velocity": 78, "duration": 257}, {"note": 73, "velocity": 79, "duration": 260}, {"note": 68, "velocity": 78, "duration": 524}, {"note": 66, "velocity": 82, "duration": 498}, {"note": 65, "velocity": 78, "duration": 519}, {"note": 63, "velocity": 77, "duration": 254}, {"note": 61, "velocity": 76, "duration": 277}, {"note": 63, "velocity": 75, "duration": 719}, {"note": 66, "velocity": 81, "duration": 152}, {"note": 65, "velocity": 77, "duration": 156}, {"note": 63, "velocity": 82, "duration": 582}, {"note": 0, "velocity": 0, "duration": 103}, {"note": 66, "velocity": 83, "duration": 132}, {"note": 65, "velocity": 82, "duration": 125}, {"note": 63, "velocity": 81, "duration": 471}, {"note": 0, "velocity": 0, "duration": 90}, {"note": 66, "velocity": 86, "duration": 149}, {"note": 65, "velocity": 83, "duration": 449}, {"note": 63, "velocity": 78, "duration": 1129}, {"note": 0, "velocity": 0, "duration": 135}, {"note": 66, "velocity": 83, "duration": 256}, {"note": 65, "velocity": 89, "duration": 483}, {"note": 66, "velocity": 89, "duration": 1651}, {"note": 68, "velocity": 83, "duration": 1823}, {"note": 0, "velocity": 0, "duration": 97}, {"note": 70, "velocity": 83, "duration": 229}, {"note": 71, "velocity": 89, "duration": 731}, {"note": 70, "velocity": 84, "duration": 949}, {"note": 68, "velocity": 78, "duration": 369}, {"note": 75, "velocity": 84, "duration": 1416}, {"note": 0, "velocity": 0, "duration": 4040}, {"note": 66, "velocity": 83, "duration": 261}, {"note": 68, "velocity": 80, "duration": 295}, {"note": 70, "velocity": 78, "duration": 257}, {"note": 73, "velocity": 79, "duration": 260}, {"note": 68, "velocity": 78, "duration": 524}, {"note": 66, "velocity": 82, "duration": 498}, {"note": 65, "velocity": 78, "duration": 519}, {"note": 63, "velocity": 77, "duration": 254}, {"note": 61, "velocity": 76, "duration": 277}, {"note": 63, "velocity": 75, "duration": 719}, {"note": 66, "velocity": 81, "duration": 152}, {"note": 65, "velocity": 77, "duration": 156}, {"note": 63, "velocity": 82, "duration": 582}, {"note": 0, "velocity": 0, "duration": 103}, {"note": 66, "velocity": 83, "duration": 132}, {"note": 65, "velocity": 82, "duration": 125}, {"note": 63, "velocity": 81, "duration": 471}, {"note": 70, "velocity": 83, "duration": 445}, {"note": 0, "velocity": 0, "duration": 63}, {"note": 70, "velocity": 82, "duration": 1622}, {"note": 0, "velocity": 0, "duration": 309}, {"note": 66, "velocity": 73, "duration": 263}, {"note": 68, "velocity": 79, "duration": 268}, {"note": 70, "velocity": 80, "duration": 245}, {"note": 73, "velocity": 81, "duration": 252}, {"note": 68, "velocity": 74, "duration": 525}, {"note": 66, "velocity": 78, "duration": 470}, {"note": 65, "velocity": 79, "duration": 456}, {"note": 65, "velocity": 83, "duration": 263}, {"note": 70, "velocity": 78, "duration": 258}, {"note": 63, "velocity": 73, "duration": 631}, {"note": 0, "velocity": 0, "duration": 111}, {"note": 66, "velocity": 82, "duration": 155}, {"note": 65, "velocity": 81, "duration": 125}, {"note": 63, "velocity": 77, "duration": 599}, {"note": 0, "velocity": 0, "duration": 69}, {"note": 66, "velocity": 79, "duration": 208}, {"note": 65, "velocity": 84, "duration": 187}, {"note": 63, "velocity": 74, "duration": 386}, {"note": 0, "velocity": 0, "duration": 99}, {"note": 66, "velocity": 78, "duration": 226}, {"note": 65, "velocity": 83, "duration": 483}, {"note": 63, "velocity": 78, "duration": 1668}, {"note": 0, "velocity": 0, "duration": 5797}, {"note": 70, "velocity": 81, "duration": 125}, {"note": 68, "velocity": 76, "duration": 135}, {"note": 70, "velocity": 82, "duration": 1194}, {"note": 68, "velocity": 82, "duration": 279}, {"note": 73, "velocity": 83, "duration": 276}, {"note": 70, "velocity": 80, "duration": 1462}, {"note": 70, "velocity": 84, "duration": 20}, {"note": 0, "velocity": 0, "duration": 189}, {"note": 68, "velocity": 82, "duration": 259}, {"note": 66, "velocity": 84, "duration": 895}, {"note": 65, "velocity": 84, "duration": 276}, {"note": 66, "velocity": 86, "duration": 276}, {"note": 68, "velocity": 82, "duration": 685}, {"note": 58, "velocity": 82, "duration": 310}, {"note": 65, "velocity": 81, "duration": 459}, {"note": 63, "velocity": 78, "duration": 1108}, {"note": 0, "velocity": 0, "duration": 836}, {"note": 63, "velocity": 81, "duration": 303}, {"note": 63, "velocity": 77, "duration": 190}, {"note": 63, "velocity": 75, "duration": 865}, {"note": 61, "velocity": 77, "duration": 351}, {"note": 58, "velocity": 74, "duration": 1573}, {"note": 0, "velocity": 0, "duration": 172}, {"note": 63, "velocity": 77, "duration": 287}, {"note": 65, "velocity": 83, "duration": 291}, {"note": 66, "velocity": 76, "duration": 897}, {"note": 65, "velocity": 82, "duration": 812}, {"note": 63, "velocity": 71, "duration": 1111}, {"note": 0, "velocity": 0, "duration": 1123}, {"note": 61, "velocity": 66, "duration": 1756}, {"note": 63, "velocity": 74, "duration": 2647}]]