[[{"note": 69, "velocity": 74, "duration": 246}, {"note": 71, "velocity": 80, "duration": 256}, {"note": 67, "velocity": 75, "duration": 264}, {"note": 64, "velocity": 80, "duration": 266}, {"note": 62, "velocity": 80, "duration": 870}, {"note": 0, "velocity": 0, "duration": 90}, {"note": 74, "velocity": 84, "duration": 476}, {"note": 76, "velocity": 76, "duration": 259}, {"note": 79, "velocity": 79, "duration": 239}, {"note": 76, "velocity": 80, "duration": 813}, {"note": 0, "velocity": 0, "duration": 147}, {"note": 74, "velocity": 80, "duration": 236}, {"note": 76, "velocity": 77, "duration": 269}, {"note": 74, "velocity": 81, "duration": 252}, {"note": 71, "velocity": 80, "duration": 253}, {"note": 67, "velocity": 72, "duration": 285}, {"note": 69, "velocity": 74, "duration": 259}, {"note": 74, "velocity": 81, "duration": 255}, {"note": 71, "velocity": 72, "duration": 252}, {"note": 69, "velocity": 72, "duration": 1794}, {"note": 0, "velocity": 0, "duration": 126}, {"note": 74, "velocity": 86, "duration": 506}, {"note": 76, "velocity": 76, "duration": 258}, {"note": 79, "velocity": 78, "duration": 250}, {"note": 76, "velocity": 81, "duration": 848}, {"note": 0, "velocity": 0, "duration": 112}, {"note": 69, "velocity": 75, "duration": 246}, {"note": 71, "velocity": 74, "duration": 253}, {"note": 67, "velocity": 76, "duration": 241}, {"note": 64, "velocity": 78, "duration": 252}, {"note": 62, "velocity": 79, "duration": 914}, {"note": 71, "velocity": 75, "duration": 477}, {"note": 67, "velocity": 76, "duration": 252}, {"note": 64, "velocity": 81, "duration": 259}, {"note": 62, "velocity": 77, "duration": 280}, {"note": 64, "velocity": 82, "duration": 232}, {"note": 69, "velocity": 67, "duration": 261}, {"note": 71, "velocity": 79, "duration": 272}, {"note": 67, "velocity": 77, "duration": 254}, {"note": 64, "velocity": 81, "duration": 1600}, {"note": 0, "velocity": 0, "duration": 80}, {"note": 69, "velocity": 74, "duration": 246}, {"note": 71, "velocity": 80, "duration": 256}, {"note": 67, "velocity": 75, "duration": 264}, {"note": 64, "velocity": 80, "duration": 266}, {"note": 62, "velocity": 80, "duration": 870}, {"note": 0, "velocity": 0, "duration": 90}, {"note": 74, "velocity": 84, "duration": 476}, {"note": 76, "velocity": 76, "duration": 259}, {"note": 79, "velocity": 79, "duration": 239}, {"note": 76, "velocity": 80, "duration": 813}, {"note": 0, "velocity": 0, "duration": 147}, {"note": 74, "velocity": 80, "duration": 236}, {"note": 76, "velocity": 77, "duration": 269}, {"note": 74, "velocity": 81, "duration": 252}, {"note": 71, "velocity": 80, "duration": 253}, {"note": 67, "velocity": 72, "duration": 285}, {"note": 69, "velocity": 74, "duration": 259}, {"note": 74, "velocity": 81, "duration": 255}, {"note": 71, "velocity": 72, "duration": 252}, {"note": 69, "velocity": 72, "duration": 1794}, {"note": 0, "velocity": 0, "duration": 126}, {"note": 74, "velocity": 86, "duration": 506}, {"note": 76, "velocity": 76, "duration": 258}, {"note": 79, "velocity": 78, "duration": 250}, {"note": 76, "velocity": 81, "duration": 848}, {"note": 0, "velocity": 0, "duration": 112}, {"note": 69, "velocity": 75, "duration": 246}, {"note": 71, "velocity": 74, "duration": 253}, {"note": 67, "velocity": 76, "duration": 241}, {"note": 64, "velocity": 78, "duration": 252}, {"note": 62, "velocity": 79, "duration": 914}, {"note": 71, "velocity": 75, "duration": 477}, {"note": 67, "velocity": 76, "duration": 252}, {"note": 64, "velocity": 81, "duration": 259}, {"note": 62, "velocity": 77, "duration": 280}, {"note": 64, "velocity": 82, "duration": 232}, {"note": 69, "velocity": 67, "duration": 261}, {"note": 71, "velocity": 79, "duration": 272}, {"note": 67, "velocity": 77, "duration": 254}, {"note": 64, "velocity": 81, "duration": 1600}, {"note": 0, "velocity": 0, "duration": 80}, {"note": 74, "velocity": 86, "duration": 506}, {"note": 76, "velocity": 76, "duration": 258}, {"note": 79, "velocity": 78, "duration": 250}, {"note": 76, "velocity": 81, "duration": 848}, {"note": 0, "velocity": 0, "duration": 112}, {"note": 69, "velocity": 75, "duration": 246}, {"note": 71, "velocity": 74, "duration": 253}, {"note": 67, "velocity": 76, "duration": 241}, {"note": 64, "velocity": 78, "duration": 252}, {"note": 62, "velocity": 79, "duration": 914}, {"note": 71, "velocity": 75, "duration": 477}, {"note": 67, "velocity": 76, "duration": 252}, {"note": 64, "velocity": 81, "duration": 259}, {"note": 62, "velocity": 77, "duration": 280}, {"note": 64, "velocity": 82, "duration": 232}, {"note": 69, "velocity": 67, "duration": 261}, {"note": 71, "velocity": 79, "duration": 272}, {"note": 67, "velocity": 77, "duration": 254}, {"note": 64, "velocity": 81, "duration": 1600}, {"note": 0, "velocity": 0, "duration": 15440}, {"note": 70, "velocity": 74, "duration": 246}, {"note": 72, "velocity": 80, "duration": 256}, {"note": 68, "velocity": 75, "duration": 264}, {"note": 65, "velocity": 80, "duration": 266}, {"note": 63, "velocity": 80, "duration": 870}, {"note": 0, "velocity": 0, "duration": 90}, {"note": 75, "velocity": 84, "duration": 476}, {"note": 77, "velocity": 76, "duration": 259}, {"note": 80, "velocity": 79, "duration": 239}, {"note": 77, "velocity": 80, "duration": 813}, {"note": 0, "velocity": 0, "duration": 147}, {"note": 75, "velocity": 80, "duration": 236}, {"note": 77, "velocity": 77, "duration": 269}, {"note": 75, "velocity": 81, "duration": 252}, {"note": 72, "velocity": 80, "duration": 253}, {"note": 68, "velocity": 72, "duration": 285}, {"note": 70, "velocity": 74, "duration": 259}, {"note": 75, "velocity": 81, "duration": 255}, {"note": 72, "velocity": 72, "duration": 252}, {"note": 70, "velocity": 72, "duration": 1794}, {"note": 0, "velocity": 0, "duration": 126}, {"note": 75, "velocity": 86, "duration": 506}, {"note": 77, "velocity": 76, "duration": 258}, {"note": 80, "velocity": 78, "duration": 250}, {"note": 77, "velocity": 81, "duration": 848}, {"note": 0, "velocity": 0, "duration": 112}, {"note": 70, "velocity": 75, "duration": 246}, {"note": 72, "velocity": 74, "duration": 253}, {"note": 68, "velocity": 76, "duration": 241}, {"note": 65, "velocity": 78, "duration": 252}, {"note": 63, "velocity": 79, "duration": 914}, {"note": 72, "velocity": 75, "duration": 477}, {"note": 68, "velocity": 76, "duration": 252}, {"note": 65, "velocity": 81, "duration": 259}, {"note": 63, "velocity": 77, "duration": 280}, {"note": 65, "velocity": 82, "duration": 232}, {"note": 70, "velocity": 67, "duration": 261}, {"note": 72, "velocity": 79, "duration": 272}, {"note": 68, "velocity": 77, "duration": 254}, {"note": 65, "velocity": 81, "duration": 1600}, {"note": 0, "velocity": 0, "duration": 80}, {"note": 70, "velocity": 74, "duration": 246}, {"note": 72, "velocity": 80, "duration": 256}, {"note": 68, "velocity": 75, "duration": 264}, {"note": 65, "velocity": 80, "duration": 266}, {"note": 63, "velocity": 80, "duration": 870}, {"note": 0, "velocity": 0, "duration": 90}, {"note": 75, "velocity": 84, "duration": 476}, {"note": 77, "velocity": 76, "duration": 259}, {"note": 80, "velocity": 79, "duration": 239}, {"note": 77, "velocity": 80, "duration": 813}, {"note": 0, "velocity": 0, "duration": 147}, {"note": 75, "velocity": 80, "duration": 236}, {"note": 77, "velocity": 77, "duration": 269}, {"note": 75, "velocity": 81, "duration": 252}, {"note": 72, "velocity": 80, "duration": 253}, {"note": 68, "velocity": 72, "duration": 285}, {"note": 70, "velocity": 74, "duration": 259}, {"note": 75, "velocity": 81, "duration": 255}, {"note": 72, "velocity": 72, "duration": 252}, {"note": 70, "velocity": 72, "duration": 1794}, {"note": 0, "velocity": 0, "duration": 126}, {"note": 75, "velocity": 86, "duration": 506}, {"note": 77, "velocity": 76, "duration": 258}, {"note": 80, "velocity": 78, "duration": 250}, {"note": 77, "velocity": 81, "duration": 848}, {"note": 0, "velocity": 0, "duration": 112}, {"note": 70, "velocity": 75, "duration": 246}, {"note": 72, "velocity": 74, "duration": 253}, {"note": 68, "velocity": 76, "duration": 241}, {"note": 65, "velocity": 78, "duration": 252}, {"note": 63, "velocity": 79, "duration": 914}, {"note": 72, "velocity": 75, "duration": 477}, {"note": 68, "velocity": 76, "duration": 252}, {"note": 65, "velocity": 81, "duration": 259}, {"note": 63, "velocity": 77, "duration": 280}, {"note": 65, "velocity": 82, "duration": 232}, {"note": 70, "velocity": 67, "duration": 261}, {"note": 72, "velocity": 79, "duration": 272}, {"note": 68, "velocity": 77, "duration": 254}, {"note": 65, "velocity": 81, "duration": 1600}, {"note": 0, "velocity": 0, "duration": 469}, {"note": 75, "velocity": 91, "duration": 527}, {"note": 77, "velocity": 78, "duration": 296}, {"note": 80, "velocity": 81, "duration": 227}, {"note": 77, "velocity": 79, "duration": 992}, {"note": 0, "velocity": 0, "duration": 91}, {"note": 72, "velocity": 83, "duration": 255}, {"note": 75, "velocity": 84, "duration": 199}, {"note": 0, "velocity": 0, "duration": 66}, {"note": 68, "velocity": 86, "duration": 254}, {"note": 65, "velocity": 84, "duration": 285}, {"note": 63, "velocity": 87, "duration": 1336}, {"note": 0, "velocity": 0, "duration": 170}, {"note": 70, "velocity": 84, "duration": 174}, {"note": 72, "velocity": 79, "duration": 602}, {"note": 0, "velocity": 0, "duration": 96}, {"note": 70, "velocity": 65, "duration": 154}, {"note": 68, "velocity": 76, "duration": 312}, {"note": 65, "velocity": 69, "duration": 262}, {"note": 63, "velocity": 74, "duration": 248}, {"note": 65, "velocity": 77, "duration": 296}, {"note": 72, "velocity": 78, "duration": 1661}, {"note": 0, "velocity": 0, "duration": 880}, {"note": 65, "velocity": 73, "duration": 1593}]]