[[{"note": 67, "velocity": 80, "duration": 179}, {"note": 0, "velocity": 0, "duration": 61}, {"note": 67, "velocity": 85, "duration": 180}, {"note": 69, "velocity": 86, "duration": 208}, {"note": 70, "velocity": 87, "duration": 254}, {"note": 67, "velocity": 85, "duration": 257}, {"note": 74, "velocity": 91, "duration": 980}, {"note": 0, "velocity": 0, "duration": 1660}, {"note": 72, "velocity": 84, "duration": 182}, {"note": 72, "velocity": 88, "duration": 183}, {"note": 74, "velocity": 87, "duration": 177}, {"note": 0, "velocity": 0, "duration": 63}, {"note": 74, "velocity": 90, "duration": 193}, {"note": 72, "velocity": 88, "duration": 226}, {"note": 70, "velocity": 86, "duration": 240}, {"note": 65, "velocity": 77, "duration": 240}, {"note": 67, "velocity": 82, "duration": 1200}, {"note": 0, "velocity": 0, "duration": 960}, {"note": 65, "velocity": 83, "duration": 162}, {"note": 0, "velocity": 0, "duration": 78}, {"note": 65, "velocity": 84, "duration": 268}, {"note": 67, "velocity": 84, "duration": 198}, {"note": 67, "velocity": 85, "duration": 196}, {"note": 65, "velocity": 88, "duration": 274}, {"note": 70, "velocity": 85, "duration": 445}, {"note": 70, "velocity": 86, "duration": 396}, {"note": 0, "velocity": 0, "duration": 84}, {"note": 70, "velocity": 85, "duration": 379}, {"note": 0, "velocity": 0, "duration": 101}, {"note": 70, "velocity": 86, "duration": 367}, {"note": 0, "velocity": 0, "duration": 113}, {"note": 70, "velocity": 85, "duration": 186}, {"note": 72, "velocity": 85, "duration": 418}, {"note": 0, "velocity": 0, "duration": 62}, {"note": 70, "velocity": 84, "duration": 174}, {"note": 0, "velocity": 0, "duration": 66}, {"note": 72, "velocity": 84, "duration": 190}, {"note": 70, "velocity": 93, "duration": 182}, {"note": 72, "velocity": 84, "duration": 181}, {"note": 70, "velocity": 87, "duration": 154}, {"note": 0, "velocity": 0, "duration": 86}, {"note": 70, "velocity": 90, "duration": 170}, {"note": 0, "velocity": 0, "duration": 70}, {"note": 65, "velocity": 81, "duration": 167}, {"note": 0, "velocity": 0, "duration": 73}, {"note": 67, "velocity": 80, "duration": 1371}, {"note": 0, "velocity": 0, "duration": 789}, {"note": 67, "velocity": 80, "duration": 179}, {"note": 0, "velocity": 0, "duration": 61}, {"note": 67, "velocity": 85, "duration": 180}, {"note": 69, "velocity": 86, "duration": 208}, {"note": 70, "velocity": 87, "duration": 254}, {"note": 67, "velocity": 85, "duration": 257}, {"note": 74, "velocity": 91, "duration": 1320}, {"note": 0, "velocity": 0, "duration": 1320}, {"note": 72, "velocity": 84, "duration": 182}, {"note": 72, "velocity": 88, "duration": 183}, {"note": 74, "velocity": 87, "duration": 177}, {"note": 0, "velocity": 0, "duration": 63}, {"note": 74, "velocity": 90, "duration": 193}, {"note": 72, "velocity": 88, "duration": 226}, {"note": 70, "velocity": 86, "duration": 240}, {"note": 65, "velocity": 77, "duration": 240}, {"note": 67, "velocity": 82, "duration": 1200}, {"note": 0, "velocity": 0, "duration": 960}, {"note": 65, "velocity": 83, "duration": 162}, {"note": 0, "velocity": 0, "duration": 78}, {"note": 65, "velocity": 84, "duration": 268}, {"note": 67, "velocity": 84, "duration": 198}, {"note": 67, "velocity": 85, "duration": 196}, {"note": 65, "velocity": 88, "duration": 274}, {"note": 70, "velocity": 85, "duration": 445}, {"note": 70, "velocity": 86, "duration": 396}, {"note": 0, "velocity": 0, "duration": 84}, {"note": 70, "velocity": 85, "duration": 379}, {"note": 0, "velocity": 0, "duration": 101}, {"note": 70, "velocity": 86, "duration": 367}, {"note": 0, "velocity": 0, "duration": 113}, {"note": 70, "velocity": 85, "duration": 186}, {"note": 72, "velocity": 85, "duration": 418}, {"note": 0, "velocity": 0, "duration": 62}, {"note": 70, "velocity": 84, "duration": 174}, {"note": 0, "velocity": 0, "duration": 66}, {"note": 72, "velocity": 84, "duration": 190}, {"note": 70, "velocity": 93, "duration": 182}, {"note": 72, "velocity": 84, "duration": 181}, {"note": 70, "velocity": 87, "duration": 154}, {"note": 0, "velocity": 0, "duration": 86}, {"note": 70, "velocity": 90, "duration": 170}, {"note": 0, "velocity": 0, "duration": 70}, {"note": 65, "velocity": 81, "duration": 167}, {"note": 0, "velocity": 0, "duration": 73}, {"note": 67, "velocity": 80, "duration": 1371}, {"note": 0, "velocity": 0, "duration": 1029}, {"note": 70, "velocity": 82, "duration": 147}, {"note": 0, "velocity": 0, "duration": 93}, {"note": 70, "velocity": 85, "duration": 228}, {"note": 72, "velocity": 90, "duration": 189}, {"note": 72, "velocity": 85, "duration": 174}, {"note": 0, "velocity": 0, "duration": 66}, {"note": 74, "velocity": 88, "duration": 160}, {"note": 0, "velocity": 0, "duration": 80}, {"note": 74, "velocity": 85, "duration": 188}, {"note": 74, "velocity": 89, "duration": 151}, {"note": 0, "velocity": 0, "duration": 89}, {"note": 74, "velocity": 93, "duration": 167}, {"note": 0, "velocity": 0, "duration": 73}, {"note": 74, "velocity": 91, "duration": 240}, {"note": 74, "velocity": 91, "duration": 240}, {"note": 74, "velocity": 91, "duration": 240}, {"note": 77, "velocity": 85, "duration": 240}, {"note": 79, "velocity": 77, "duration": 238}, {"note": 77, "velocity": 86, "duration": 171}, {"note": 0, "velocity": 0, "duration": 69}, {"note": 77, "velocity": 85, "duration": 244}, {"note": 72, "velocity": 84, "duration": 393}, {"note": 0, "velocity": 0, "duration": 87}, {"note": 72, "velocity": 85, "duration": 199}, {"note": 74, "velocity": 90, "duration": 202}, {"note": 77, "velocity": 80, "duration": 173}, {"note": 0, "velocity": 0, "duration": 67}, {"note": 79, "velocity": 84, "duration": 190}, {"note": 79, "velocity": 84, "duration": 198}, {"note": 79, "velocity": 85, "duration": 199}, {"note": 79, "velocity": 84, "duration": 144}, {"note": 0, "velocity": 0, "duration": 96}, {"note": 79, "velocity": 88, "duration": 164}, {"note": 0, "velocity": 0, "duration": 76}, {"note": 77, "velocity": 80, "duration": 180}, {"note": 77, "velocity": 78, "duration": 211}, {"note": 72, "velocity": 85, "duration": 287}, {"note": 74, "velocity": 77, "duration": 480}, {"note": 0, "velocity": 0, "duration": 240}, {"note": 74, "velocity": 91, "duration": 238}, {"note": 72, "velocity": 88, "duration": 173}, {"note": 0, "velocity": 0, "duration": 67}, {"note": 74, "velocity": 86, "duration": 202}, {"note": 77, "velocity": 84, "duration": 190}, {"note": 74, "velocity": 88, "duration": 226}, {"note": 67, "velocity": 82, "duration": 612}, {"note": 0, "velocity": 0, "duration": 108}, {"note": 67, "velocity": 79, "duration": 170}, {"note": 0, "velocity": 0, "duration": 70}, {"note": 67, "velocity": 81, "duration": 202}, {"note": 70, "velocity": 81, "duration": 180}, {"note": 70, "velocity": 85, "duration": 228}, {"note": 67, "velocity": 80, "duration": 240}, {"note": 65, "velocity": 84, "duration": 645}, {"note": 0, "velocity": 0, "duration": 75}, {"note": 65, "velocity": 80, "duration": 164}, {"note": 0, "velocity": 0, "duration": 76}, {"note": 65, "velocity": 85, "duration": 229}, {"note": 62, "velocity": 85, "duration": 170}, {"note": 0, "velocity": 0, "duration": 70}, {"note": 62, "velocity": 85, "duration": 322}, {"note": 65, "velocity": 84, "duration": 443}, {"note": 67, "velocity": 84, "duration": 2172}, {"note": 0, "velocity": 0, "duration": 468}, {"note": 70, "velocity": 82, "duration": 147}, {"note": 0, "velocity": 0, "duration": 93}, {"note": 70, "velocity": 85, "duration": 228}, {"note": 72, "velocity": 90, "duration": 189}, {"note": 72, "velocity": 85, "duration": 174}, {"note": 0, "velocity": 0, "duration": 66}, {"note": 74, "velocity": 88, "duration": 160}, {"note": 0, "velocity": 0, "duration": 80}, {"note": 74, "velocity": 85, "duration": 188}, {"note": 74, "velocity": 89, "duration": 151}, {"note": 0, "velocity": 0, "duration": 89}, {"note": 74, "velocity": 93, "duration": 167}, {"note": 0, "velocity": 0, "duration": 73}, {"note": 74, "velocity": 91, "duration": 240}, {"note": 74, "velocity": 91, "duration": 240}, {"note": 74, "velocity": 91, "duration": 240}, {"note": 77, "velocity": 85, "duration": 240}, {"note": 79, "velocity": 77, "duration": 238}, {"note": 77, "velocity": 86, "duration": 171}, {"note": 0, "velocity": 0, "duration": 69}, {"note": 77, "velocity": 85, "duration": 244}, {"note": 72, "velocity": 84, "duration": 393}, {"note": 0, "velocity": 0, "duration": 87}, {"note": 72, "velocity": 85, "duration": 199}, {"note": 74, "velocity": 90, "duration": 202}, {"note": 77, "velocity": 80, "duration": 173}, {"note": 0, "velocity": 0, "duration": 67}, {"note": 79, "velocity": 84, "duration": 190}, {"note": 79, "velocity": 84, "duration": 198}, {"note": 79, "velocity": 85, "duration": 199}, {"note": 79, "velocity": 84, "duration": 144}, {"note": 0, "velocity": 0, "duration": 96}, {"note": 79, "velocity": 88, "duration": 164}, {"note": 0, "velocity": 0, "duration": 76}, {"note": 77, "velocity": 80, "duration": 180}, {"note": 77, "velocity": 78, "duration": 211}, {"note": 72, "velocity": 85, "duration": 287}, {"note": 74, "velocity": 77, "duration": 480}, {"note": 0, "velocity": 0, "duration": 240}, {"note": 74, "velocity": 91, "duration": 238}, {"note": 72, "velocity": 88, "duration": 173}, {"note": 0, "velocity": 0, "duration": 67}, {"note": 74, "velocity": 86, "duration": 202}, {"note": 77, "velocity": 84, "duration": 190}, {"note": 74, "velocity": 88, "duration": 226}, {"note": 67, "velocity": 82, "duration": 612}, {"note": 0, "velocity": 0, "duration": 108}, {"note": 67, "velocity": 79, "duration": 170}, {"note": 0, "velocity": 0, "duration": 70}, {"note": 67, "velocity": 81, "duration": 202}, {"note": 70, "velocity": 81, "duration": 180}, {"note": 70, "velocity": 85, "duration": 228}, {"note": 67, "velocity": 80, "duration": 240}, {"note": 65, "velocity": 84, "duration": 645}, {"note": 0, "velocity": 0, "duration": 75}, {"note": 65, "velocity": 80, "duration": 164}, {"note": 0, "velocity": 0, "duration": 76}, {"note": 65, "velocity": 85, "duration": 229}, {"note": 62, "velocity": 85, "duration": 170}, {"note": 0, "velocity": 0, "duration": 70}, {"note": 62, "velocity": 85, "duration": 322}, {"note": 65, "velocity": 84, "duration": 443}, {"note": 67, "velocity": 84, "duration": 2172}, {"note": 0, "velocity": 0, "duration": 7908}, {"note": 67, "velocity": 80, "duration": 179}, {"note": 0, "velocity": 0, "duration": 61}, {"note": 67, "velocity": 85, "duration": 180}, {"note": 69, "velocity": 86, "duration": 208}, {"note": 70, "velocity": 87, "duration": 254}, {"note": 67, "velocity": 85, "duration": 257}, {"note": 74, "velocity": 91, "duration": 1320}, {"note": 0, "velocity": 0, "duration": 1320}, {"note": 72, "velocity": 84, "duration": 182}, {"note": 72, "velocity": 88, "duration": 183}, {"note": 74, "velocity": 87, "duration": 177}, {"note": 0, "velocity": 0, "duration": 63}, {"note": 74, "velocity": 90, "duration": 193}, {"note": 72, "velocity": 88, "duration": 226}, {"note": 70, "velocity": 86, "duration": 240}, {"note": 65, "velocity": 77, "duration": 240}, {"note": 67, "velocity": 82, "duration": 1200}, {"note": 0, "velocity": 0, "duration": 960}, {"note": 65, "velocity": 83, "duration": 162}, {"note": 0, "velocity": 0, "duration": 78}, {"note": 65, "velocity": 84, "duration": 268}, {"note": 67, "velocity": 84, "duration": 198}, {"note": 67, "velocity": 85, "duration": 196}, {"note": 65, "velocity": 88, "duration": 274}, {"note": 70, "velocity": 85, "duration": 445}, {"note": 70, "velocity": 86, "duration": 396}, {"note": 0, "velocity": 0, "duration": 84}, {"note": 70, "velocity": 85, "duration": 379}, {"note": 0, "velocity": 0, "duration": 101}, {"note": 70, "velocity": 86, "duration": 367}, {"note": 0, "velocity": 0, "duration": 113}, {"note": 70, "velocity": 85, "duration": 186}, {"note": 72, "velocity": 85, "duration": 418}, {"note": 0, "velocity": 0, "duration": 62}, {"note": 70, "velocity": 84, "duration": 174}, {"note": 0, "velocity": 0, "duration": 66}, {"note": 72, "velocity": 84, "duration": 190}, {"note": 70, "velocity": 93, "duration": 182}, {"note": 72, "velocity": 84, "duration": 181}, {"note": 70, "velocity": 87, "duration": 154}, {"note": 0, "velocity": 0, "duration": 86}, {"note": 70, "velocity": 90, "duration": 170}, {"note": 0, "velocity": 0, "duration": 70}, {"note": 65, "velocity": 81, "duration": 167}, {"note": 0, "velocity": 0, "duration": 73}, {"note": 67, "velocity": 80, "duration": 1371}, {"note": 0, "velocity": 0, "duration": 1029}, {"note": 70, "velocity": 82, "duration": 147}, {"note": 0, "velocity": 0, "duration": 93}, {"note": 70, "velocity": 85, "duration": 228}, {"note": 72, "velocity": 90, "duration": 189}, {"note": 72, "velocity": 85, "duration": 174}, {"note": 0, "velocity": 0, "duration": 66}, {"note": 74, "velocity": 88, "duration": 160}, {"note": 0, "velocity": 0, "duration": 80}, {"note": 74, "velocity": 85, "duration": 188}, {"note": 74, "velocity": 89, "duration": 151}, {"note": 0, "velocity": 0, "duration": 89}, {"note": 74, "velocity": 93, "duration": 167}, {"note": 0, "velocity": 0, "duration": 73}, {"note": 74, "velocity": 91, "duration": 240}, {"note": 74, "velocity": 91, "duration": 240}, {"note": 74, "velocity": 91, "duration": 240}, {"note": 77, "velocity": 85, "duration": 240}, {"note": 79, "velocity": 77, "duration": 238}, {"note": 77, "velocity": 86, "duration": 171}, {"note": 0, "velocity": 0, "duration": 69}, {"note": 77, "velocity": 85, "duration": 244}, {"note": 72, "velocity": 84, "duration": 393}, {"note": 0, "velocity": 0, "duration": 87}, {"note": 72, "velocity": 85, "duration": 199}, {"note": 74, "velocity": 90, "duration": 202}, {"note": 77, "velocity": 80, "duration": 173}, {"note": 0, "velocity": 0, "duration": 67}, {"note": 79, "velocity": 84, "duration": 190}, {"note": 79, "velocity": 84, "duration": 198}, {"note": 79, "velocity": 85, "duration": 199}, {"note": 79, "velocity": 84, "duration": 144}, {"note": 0, "velocity": 0, "duration": 96}, {"note": 79, "velocity": 88, "duration": 164}, {"note": 0, "velocity": 0, "duration": 76}, {"note": 77, "velocity": 80, "duration": 180}, {"note": 77, "velocity": 78, "duration": 211}, {"note": 72, "velocity": 85, "duration": 287}, {"note": 74, "velocity": 77, "duration": 480}, {"note": 0, "velocity": 0, "duration": 240}, {"note": 74, "velocity": 91, "duration": 238}, {"note": 72, "velocity": 88, "duration": 173}, {"note": 0, "velocity": 0, "duration": 67}, {"note": 74, "velocity": 86, "duration": 202}, {"note": 77, "velocity": 84, "duration": 190}, {"note": 74, "velocity": 88, "duration": 226}, {"note": 67, "velocity": 82, "duration": 612}, {"note": 0, "velocity": 0, "duration": 108}, {"note": 67, "velocity": 79, "duration": 170}, {"note": 0, "velocity": 0, "duration": 70}, {"note": 67, "velocity": 81, "duration": 202}, {"note": 70, "velocity": 81, "duration": 180}, {"note": 70, "velocity": 85, "duration": 228}, {"note": 67, "velocity": 80, "duration": 240}, {"note": 65, "velocity": 84, "duration": 645}, {"note": 0, "velocity": 0, "duration": 75}, {"note": 65, "velocity": 80, "duration": 164}, {"note": 0, "velocity": 0, "duration": 76}, {"note": 65, "velocity": 85, "duration": 229}, {"note": 62, "velocity": 85, "duration": 170}, {"note": 0, "velocity": 0, "duration": 70}, {"note": 62, "velocity": 85, "duration": 322}, {"note": 65, "velocity": 84, "duration": 443}, {"note": 67, "velocity": 84, "duration": 2172}, {"note": 0, "velocity": 0, "duration": 468}, {"note": 70, "velocity": 82, "duration": 147}, {"note": 0, "velocity": 0, "duration": 93}, {"note": 70, "velocity": 85, "duration": 228}, {"note": 72, "velocity": 90, "duration": 189}, {"note": 72, "velocity": 85, "duration": 174}, {"note": 0, "velocity": 0, "duration": 66}, {"note": 74, "velocity": 88, "duration": 160}, {"note": 0, "velocity": 0, "duration": 80}, {"note": 74, "velocity": 85, "duration": 188}, {"note": 74, "velocity": 89, "duration": 151}, {"note": 0, "velocity": 0, "duration": 89}, {"note": 74, "velocity": 93, "duration": 167}, {"note": 0, "velocity": 0, "duration": 73}, {"note": 74, "velocity": 91, "duration": 240}, {"note": 74, "velocity": 91, "duration": 240}, {"note": 74, "velocity": 91, "duration": 240}, {"note": 77, "velocity": 85, "duration": 240}, {"note": 79, "velocity": 77, "duration": 238}, {"note": 77, "velocity": 86, "duration": 171}, {"note": 0, "velocity": 0, "duration": 69}, {"note": 77, "velocity": 85, "duration": 244}, {"note": 72, "velocity": 84, "duration": 393}, {"note": 0, "velocity": 0, "duration": 87}, {"note": 72, "velocity": 85, "duration": 199}, {"note": 74, "velocity": 90, "duration": 202}, {"note": 77, "velocity": 80, "duration": 173}, {"note": 0, "velocity": 0, "duration": 67}, {"note": 79, "velocity": 84, "duration": 190}, {"note": 79, "velocity": 84, "duration": 198}, {"note": 79, "velocity": 85, "duration": 199}, {"note": 79, "velocity": 84, "duration": 144}, {"note": 0, "velocity": 0, "duration": 96}, {"note": 79, "velocity": 88, "duration": 164}, {"note": 0, "velocity": 0, "duration": 76}, {"note": 77, "velocity": 80, "duration": 180}, {"note": 77, "velocity": 78, "duration": 211}, {"note": 72, "velocity": 85, "duration": 287}, {"note": 74, "velocity": 77, "duration": 480}, {"note": 0, "velocity": 0, "duration": 240}, {"note": 74, "velocity": 91, "duration": 238}, {"note": 72, "velocity": 88, "duration": 173}, {"note": 0, "velocity": 0, "duration": 67}, {"note": 74, "velocity": 86, "duration": 202}, {"note": 77, "velocity": 84, "duration": 190}, {"note": 74, "velocity": 88, "duration": 226}, {"note": 67, "velocity": 82, "duration": 612}, {"note": 0, "velocity": 0, "duration": 108}, {"note": 67, "velocity": 79, "duration": 170}, {"note": 0, "velocity": 0, "duration": 70}, {"note": 67, "velocity": 81, "duration": 202}, {"note": 70, "velocity": 81, "duration": 180}, {"note": 70, "velocity": 85, "duration": 228}, {"note": 67, "velocity": 80, "duration": 240}, {"note": 65, "velocity": 84, "duration": 645}, {"note": 0, "velocity": 0, "duration": 75}, {"note": 65, "velocity": 80, "duration": 164}, {"note": 0, "velocity": 0, "duration": 76}, {"note": 65, "velocity": 85, "duration": 229}, {"note": 62, "velocity": 85, "duration": 170}, {"note": 0, "velocity": 0, "duration": 70}, {"note": 62, "velocity": 85, "duration": 322}, {"note": 65, "velocity": 84, "duration": 443}, {"note": 67, "velocity": 84, "duration": 2172}, {"note": 0, "velocity": 0, "duration": 15828}, {"note": 70, "velocity": 82, "duration": 147}, {"note": 0, "velocity": 0, "duration": 93}, {"note": 70, "velocity": 85, "duration": 228}, {"note": 72, "velocity": 90, "duration": 189}, {"note": 72, "velocity": 85, "duration": 174}, {"note": 0, "velocity": 0, "duration": 66}, {"note": 74, "velocity": 88, "duration": 160}, {"note": 0, "velocity": 0, "duration": 80}, {"note": 74, "velocity": 85, "duration": 188}, {"note": 74, "velocity": 89, "duration": 151}, {"note": 0, "velocity": 0, "duration": 89}, {"note": 74, "velocity": 93, "duration": 167}, {"note": 0, "velocity": 0, "duration": 73}, {"note": 74, "velocity": 91, "duration": 240}, {"note": 74, "velocity": 91, "duration": 240}, {"note": 74, "velocity": 91, "duration": 240}, {"note": 77, "velocity": 85, "duration": 240}, {"note": 79, "velocity": 77, "duration": 238}, {"note": 77, "velocity": 86, "duration": 171}, {"note": 0, "velocity": 0, "duration": 69}, {"note": 77, "velocity": 85, "duration": 244}, {"note": 72, "velocity": 84, "duration": 393}, {"note": 0, "velocity": 0, "duration": 87}, {"note": 72, "velocity": 85, "duration": 199}, {"note": 74, "velocity": 90, "duration": 202}, {"note": 77, "velocity": 80, "duration": 173}, {"note": 0, "velocity": 0, "duration": 67}, {"note": 79, "velocity": 84, "duration": 190}, {"note": 79, "velocity": 84, "duration": 198}, {"note": 79, "velocity": 85, "duration": 199}, {"note": 79, "velocity": 84, "duration": 144}, {"note": 0, "velocity": 0, "duration": 96}, {"note": 79, "velocity": 88, "duration": 164}, {"note": 0, "velocity": 0, "duration": 76}, {"note": 77, "velocity": 80, "duration": 180}, {"note": 77, "velocity": 78, "duration": 211}, {"note": 72, "velocity": 85, "duration": 287}, {"note": 74, "velocity": 77, "duration": 480}, {"note": 0, "velocity": 0, "duration": 240}, {"note": 74, "velocity": 91, "duration": 238}, {"note": 72, "velocity": 88, "duration": 173}, {"note": 0, "velocity": 0, "duration": 67}, {"note": 74, "velocity": 86, "duration": 202}, {"note": 77, "velocity": 84, "duration": 190}, {"note": 74, "velocity": 88, "duration": 226}, {"note": 67, "velocity": 82, "duration": 612}, {"note": 0, "velocity": 0, "duration": 108}, {"note": 67, "velocity": 79, "duration": 170}, {"note": 0, "velocity": 0, "duration": 70}, {"note": 67, "velocity": 81, "duration": 202}, {"note": 70, "velocity": 81, "duration": 180}, {"note": 70, "velocity": 85, "duration": 228}, {"note": 67, "velocity": 80, "duration": 240}, {"note": 65, "velocity": 84, "duration": 645}, {"note": 0, "velocity": 0, "duration": 75}, {"note": 65, "velocity": 80, "duration": 164}, {"note": 0, "velocity": 0, "duration": 76}, {"note": 65, "velocity": 85, "duration": 229}, {"note": 62, "velocity": 85, "duration": 170}, {"note": 0, "velocity": 0, "duration": 70}, {"note": 62, "velocity": 85, "duration": 322}, {"note": 65, "velocity": 84, "duration": 443}, {"note": 67, "velocity": 84, "duration": 2172}, {"note": 0, "velocity": 0, "duration": 468}, {"note": 70, "velocity": 82, "duration": 147}, {"note": 0, "velocity": 0, "duration": 93}, {"note": 70, "velocity": 85, "duration": 228}, {"note": 72, "velocity": 90, "duration": 189}, {"note": 72, "velocity": 85, "duration": 174}, {"note": 0, "velocity": 0, "duration": 66}, {"note": 74, "velocity": 88, "duration": 160}, {"note": 0, "velocity": 0, "duration": 80}, {"note": 74, "velocity": 85, "duration": 188}, {"note": 74, "velocity": 89, "duration": 151}, {"note": 0, "velocity": 0, "duration": 89}, {"note": 74, "velocity": 93, "duration": 167}, {"note": 0, "velocity": 0, "duration": 73}, {"note": 74, "velocity": 91, "duration": 240}, {"note": 74, "velocity": 91, "duration": 240}, {"note": 74, "velocity": 91, "duration": 240}, {"note": 77, "velocity": 85, "duration": 240}, {"note": 79, "velocity": 77, "duration": 238}, {"note": 77, "velocity": 86, "duration": 171}, {"note": 0, "velocity": 0, "duration": 69}, {"note": 77, "velocity": 85, "duration": 244}, {"note": 72, "velocity": 84, "duration": 393}, {"note": 0, "velocity": 0, "duration": 87}, {"note": 72, "velocity": 85, "duration": 199}, {"note": 74, "velocity": 90, "duration": 202}, {"note": 77, "velocity": 80, "duration": 173}, {"note": 0, "velocity": 0, "duration": 67}, {"note": 79, "velocity": 84, "duration": 190}, {"note": 79, "velocity": 84, "duration": 198}, {"note": 79, "velocity": 85, "duration": 199}, {"note": 79, "velocity": 84, "duration": 144}, {"note": 0, "velocity": 0, "duration": 96}, {"note": 79, "velocity": 88, "duration": 164}, {"note": 0, "velocity": 0, "duration": 76}, {"note": 77, "velocity": 80, "duration": 180}, {"note": 77, "velocity": 78, "duration": 211}, {"note": 72, "velocity": 85, "duration": 287}, {"note": 74, "velocity": 77, "duration": 480}, {"note": 0, "velocity": 0, "duration": 240}, {"note": 74, "velocity": 91, "duration": 238}, {"note": 72, "velocity": 88, "duration": 173}, {"note": 0, "velocity": 0, "duration": 67}, {"note": 74, "velocity": 86, "duration": 202}, {"note": 77, "velocity": 84, "duration": 190}, {"note": 74, "velocity": 88, "duration": 226}, {"note": 67, "velocity": 82, "duration": 612}, {"note": 0, "velocity": 0, "duration": 108}, {"note": 67, "velocity": 79, "duration": 170}, {"note": 0, "velocity": 0, "duration": 70}, {"note": 67, "velocity": 81, "duration": 202}, {"note": 70, "velocity": 81, "duration": 180}, {"note": 70, "velocity": 85, "duration": 228}, {"note": 67, "velocity": 80, "duration": 240}, {"note": 65, "velocity": 84, "duration": 645}, {"note": 0, "velocity": 0, "duration": 75}, {"note": 65, "velocity": 80, "duration": 164}, {"note": 0, "velocity": 0, "duration": 76}, {"note": 65, "velocity": 85, "duration": 229}, {"note": 62, "velocity": 85, "duration": 170}, {"note": 0, "velocity": 0, "duration": 70}, {"note": 62, "velocity": 85, "duration": 322}, {"note": 65, "velocity": 84, "duration": 443}, {"note": 67, "velocity": 84, "duration": 2172}, {"note": 0, "velocity": 0, "duration": 468}, {"note": 70, "velocity": 82, "duration": 147}, {"note": 0, "velocity": 0, "duration": 93}, {"note": 70, "velocity": 85, "duration": 228}, {"note": 72, "velocity": 90, "duration": 189}, {"note": 72, "velocity": 85, "duration": 174}, {"note": 0, "velocity": 0, "duration": 66}, {"note": 74, "velocity": 88, "duration": 160}, {"note": 0, "velocity": 0, "duration": 80}, {"note": 74, "velocity": 85, "duration": 188}, {"note": 74, "velocity": 89, "duration": 151}, {"note": 0, "velocity": 0, "duration": 89}, {"note": 74, "velocity": 93, "duration": 167}, {"note": 0, "velocity": 0, "duration": 73}, {"note": 74, "velocity": 91, "duration": 240}, {"note": 74, "velocity": 91, "duration": 240}, {"note": 74, "velocity": 91, "duration": 240}, {"note": 77, "velocity": 85, "duration": 240}, {"note": 79, "velocity": 77, "duration": 238}, {"note": 77, "velocity": 86, "duration": 171}, {"note": 0, "velocity": 0, "duration": 69}, {"note": 77, "velocity": 85, "duration": 244}, {"note": 72, "velocity": 84, "duration": 393}, {"note": 0, "velocity": 0, "duration": 87}, {"note": 72, "velocity": 85, "duration": 199}, {"note": 74, "velocity": 90, "duration": 202}, {"note": 77, "velocity": 80, "duration": 173}, {"note": 0, "velocity": 0, "duration": 67}, {"note": 79, "velocity": 84, "duration": 190}, {"note": 79, "velocity": 84, "duration": 198}, {"note": 79, "velocity": 85, "duration": 199}, {"note": 79, "velocity": 84, "duration": 144}, {"note": 0, "velocity": 0, "duration": 96}, {"note": 79, "velocity": 88, "duration": 164}, {"note": 0, "velocity": 0, "duration": 76}, {"note": 77, "velocity": 80, "duration": 180}, {"note": 77, "velocity": 78, "duration": 211}, {"note": 72, "velocity": 85, "duration": 287}, {"note": 74, "velocity": 77, "duration": 480}, {"note": 0, "velocity": 0, "duration": 240}, {"note": 74, "velocity": 91, "duration": 238}, {"note": 72, "velocity": 88, "duration": 173}, {"note": 0, "velocity": 0, "duration": 67}, {"note": 74, "velocity": 86, "duration": 202}, {"note": 77, "velocity": 84, "duration": 190}, {"note": 74, "velocity": 88, "duration": 226}, {"note": 67, "velocity": 82, "duration": 612}, {"note": 0, "velocity": 0, "duration": 108}, {"note": 67, "velocity": 79, "duration": 170}, {"note": 0, "velocity": 0, "duration": 70}, {"note": 67, "velocity": 81, "duration": 202}, {"note": 70, "velocity": 81, "duration": 180}, {"note": 70, "velocity": 85, "duration": 228}, {"note": 67, "velocity": 80, "duration": 240}, {"note": 65, "velocity": 84, "duration": 645}, {"note": 0, "velocity": 0, "duration": 75}, {"note": 65, "velocity": 80, "duration": 164}, {"note": 0, "velocity": 0, "duration": 76}, {"note": 65, "velocity": 85, "duration": 229}, {"note": 62, "velocity": 85, "duration": 170}, {"note": 0, "velocity": 0, "duration": 70}, {"note": 62, "velocity": 85, "duration": 322}, {"note": 65, "velocity": 84, "duration": 443}, {"note": 67, "velocity": 84, "duration": 2172}, {"note": 0, "velocity": 0, "duration": 468}, {"note": 70, "velocity": 82, "duration": 147}, {"note": 0, "velocity": 0, "duration": 93}, {"note": 70, "velocity": 85, "duration": 228}, {"note": 72, "velocity": 90, "duration": 189}, {"note": 72, "velocity": 85, "duration": 174}, {"note": 0, "velocity": 0, "duration": 66}, {"note": 74, "velocity": 88, "duration": 160}, {"note": 0, "velocity": 0, "duration": 80}, {"note": 74, "velocity": 85, "duration": 188}, {"note": 74, "velocity": 89, "duration": 151}, {"note": 0, "velocity": 0, "duration": 89}, {"note": 74, "velocity": 93, "duration": 167}, {"note": 0, "velocity": 0, "duration": 73}, {"note": 74, "velocity": 91, "duration": 240}, {"note": 74, "velocity": 91, "duration": 240}, {"note": 74, "velocity": 91, "duration": 240}, {"note": 77, "velocity": 85, "duration": 240}, {"note": 79, "velocity": 77, "duration": 238}, {"note": 77, "velocity": 86, "duration": 171}, {"note": 0, "velocity": 0, "duration": 69}, {"note": 77, "velocity": 85, "duration": 244}, {"note": 72, "velocity": 84, "duration": 393}, {"note": 0, "velocity": 0, "duration": 87}, {"note": 72, "velocity": 85, "duration": 199}, {"note": 74, "velocity": 90, "duration": 202}, {"note": 77, "velocity": 80, "duration": 173}, {"note": 0, "velocity": 0, "duration": 67}, {"note": 79, "velocity": 84, "duration": 190}, {"note": 79, "velocity": 84, "duration": 198}, {"note": 79, "velocity": 85, "duration": 199}, {"note": 79, "velocity": 84, "duration": 144}, {"note": 0, "velocity": 0, "duration": 96}, {"note": 79, "velocity": 88, "duration": 164}, {"note": 0, "velocity": 0, "duration": 76}, {"note": 77, "velocity": 80, "duration": 180}, {"note": 77, "velocity": 78, "duration": 211}, {"note": 72, "velocity": 85, "duration": 287}, {"note": 74, "velocity": 77, "duration": 480}, {"note": 0, "velocity": 0, "duration": 240}, {"note": 74, "velocity": 91, "duration": 238}, {"note": 72, "velocity": 88, "duration": 173}, {"note": 0, "velocity": 0, "duration": 67}, {"note": 74, "velocity": 86, "duration": 202}, {"note": 77, "velocity": 84, "duration": 190}, {"note": 74, "velocity": 88, "duration": 226}, {"note": 67, "velocity": 82, "duration": 612}, {"note": 0, "velocity": 0, "duration": 108}, {"note": 67, "velocity": 79, "duration": 170}, {"note": 0, "velocity": 0, "duration": 70}, {"note": 67, "velocity": 81, "duration": 202}, {"note": 70, "velocity": 81, "duration": 180}, {"note": 70, "velocity": 85, "duration": 228}, {"note": 67, "velocity": 80, "duration": 240}, {"note": 65, "velocity": 84, "duration": 645}, {"note": 0, "velocity": 0, "duration": 75}, {"note": 65, "velocity": 80, "duration": 164}, {"note": 0, "velocity": 0, "duration": 76}, {"note": 65, "velocity": 85, "duration": 229}, {"note": 62, "velocity": 85, "duration": 170}, {"note": 0, "velocity": 0, "duration": 70}, {"note": 62, "velocity": 85, "duration": 322}, {"note": 65, "velocity": 84, "duration": 443}, {"note": 67, "velocity": 84, "duration": 2172}]]