[[{"note": 66, "velocity": 79, "duration": 212}, {"note": 69, "velocity": 81, "duration": 191}, {"note": 71, "velocity": 78, "duration": 582}, {"note": 0, "velocity": 0, "duration": 378}, {"note": 71, "velocity": 78, "duration": 174}, {"note": 0, "velocity": 0, "duration": 66}, {"note": 73, "velocity": 78, "duration": 208}, {"note": 66, "velocity": 77, "duration": 806}, {"note": 0, "velocity": 0, "duration": 154}, {"note": 64, "velocity": 78, "duration": 169}, {"note": 0, "velocity": 0, "duration": 71}, {"note": 66, "velocity": 77, "duration": 201}, {"note": 69, "velocity": 78, "duration": 215}, {"note": 71, "velocity": 77, "duration": 173}, {"note": 0, "velocity": 0, "duration": 67}, {"note": 73, "velocity": 79, "duration": 230}, {"note": 76, "velocity": 78, "duration": 223}, {"note": 71, "velocity": 78, "duration": 1135}, {"note": 0, "velocity": 0, "duration": 305}, {"note": 66, "velocity": 79, "duration": 212}, {"note": 69, "velocity": 81, "duration": 191}, {"note": 71, "velocity": 78, "duration": 582}, {"note": 0, "velocity": 0, "duration": 378}, {"note": 71, "velocity": 78, "duration": 174}, {"note": 0, "velocity": 0, "duration": 66}, {"note": 69, "velocity": 78, "duration": 208}, {"note": 66, "velocity": 77, "duration": 806}, {"note": 0, "velocity": 0, "duration": 154}, {"note": 64, "velocity": 78, "duration": 169}, {"note": 0, "velocity": 0, "duration": 71}, {"note": 66, "velocity": 77, "duration": 201}, {"note": 69, "velocity": 78, "duration": 215}, {"note": 71, "velocity": 77, "duration": 173}, {"note": 0, "velocity": 0, "duration": 67}, {"note": 69, "velocity": 79, "duration": 230}, {"note": 66, "velocity": 78, "duration": 223}, {"note": 66, "velocity": 78, "duration": 1135}, {"note": 0, "velocity": 0, "duration": 1745}, {"note": 73, "velocity": 81, "duration": 229}, {"note": 76, "velocity": 77, "duration": 183}, {"note": 76, "velocity": 81, "duration": 158}, {"note": 0, "velocity": 0, "duration": 82}, {"note": 76, "velocity": 80, "duration": 181}, {"note": 73, "velocity": 88, "duration": 379}, {"note": 0, "velocity": 0, "duration": 101}, {"note": 76, "velocity": 76, "duration": 173}, {"note": 0, "velocity": 0, "duration": 67}, {"note": 78, "velocity": 75, "duration": 161}, {"note": 0, "velocity": 0, "duration": 79}, {"note": 78, "velocity": 79, "duration": 390}, {"note": 0, "velocity": 0, "duration": 90}, {"note": 78, "velocity": 78, "duration": 416}, {"note": 0, "velocity": 0, "duration": 64}, {"note": 76, "velocity": 59, "duration": 177}, {"note": 0, "velocity": 0, "duration": 63}, {"note": 78, "velocity": 72, "duration": 161}, {"note": 0, "velocity": 0, "duration": 79}, {"note": 81, "velocity": 75, "duration": 156}, {"note": 0, "velocity": 0, "duration": 84}, {"note": 81, "velocity": 83, "duration": 166}, {"note": 0, "velocity": 0, "duration": 74}, {"note": 78, "velocity": 76, "duration": 175}, {"note": 0, "velocity": 0, "duration": 65}, {"note": 76, "velocity": 78, "duration": 240}, {"note": 73, "velocity": 79, "duration": 517}, {"note": 0, "velocity": 0, "duration": 923}, {"note": 76, "velocity": 79, "duration": 241}, {"note": 78, "velocity": 78, "duration": 157}, {"note": 0, "velocity": 0, "duration": 83}, {"note": 78, "velocity": 79, "duration": 380}, {"note": 0, "velocity": 0, "duration": 100}, {"note": 78, "velocity": 78, "duration": 387}, {"note": 0, "velocity": 0, "duration": 93}, {"note": 76, "velocity": 77, "duration": 221}, {"note": 73, "velocity": 73, "duration": 180}, {"note": 71, "velocity": 73, "duration": 201}, {"note": 69, "velocity": 81, "duration": 228}, {"note": 66, "velocity": 71, "duration": 392}, {"note": 0, "velocity": 0, "duration": 88}, {"note": 64, "velocity": 73, "duration": 200}, {"note": 66, "velocity": 74, "duration": 172}, {"note": 0, "velocity": 0, "duration": 68}, {"note": 69, "velocity": 75, "duration": 144}, {"note": 0, "velocity": 0, "duration": 96}, {"note": 71, "velocity": 73, "duration": 172}, {"note": 0, "velocity": 0, "duration": 68}, {"note": 73, "velocity": 83, "duration": 197}, {"note": 76, "velocity": 70, "duration": 238}, {"note": 71, "velocity": 78, "duration": 1193}, {"note": 0, "velocity": 0, "duration": 247}, {"note": 73, "velocity": 81, "duration": 229}, {"note": 76, "velocity": 77, "duration": 183}, {"note": 76, "velocity": 81, "duration": 158}, {"note": 0, "velocity": 0, "duration": 82}, {"note": 76, "velocity": 80, "duration": 181}, {"note": 73, "velocity": 88, "duration": 240}, {"note": 73, "velocity": 88, "duration": 240}, {"note": 76, "velocity": 76, "duration": 173}, {"note": 0, "velocity": 0, "duration": 67}, {"note": 78, "velocity": 75, "duration": 161}, {"note": 0, "velocity": 0, "duration": 79}, {"note": 78, "velocity": 79, "duration": 390}, {"note": 0, "velocity": 0, "duration": 90}, {"note": 78, "velocity": 78, "duration": 416}, {"note": 0, "velocity": 0, "duration": 64}, {"note": 76, "velocity": 59, "duration": 177}, {"note": 0, "velocity": 0, "duration": 63}, {"note": 78, "velocity": 72, "duration": 161}, {"note": 0, "velocity": 0, "duration": 79}, {"note": 81, "velocity": 75, "duration": 156}, {"note": 0, "velocity": 0, "duration": 84}, {"note": 81, "velocity": 83, "duration": 166}, {"note": 0, "velocity": 0, "duration": 74}, {"note": 78, "velocity": 76, "duration": 175}, {"note": 0, "velocity": 0, "duration": 65}, {"note": 76, "velocity": 78, "duration": 240}, {"note": 73, "velocity": 79, "duration": 517}, {"note": 0, "velocity": 0, "duration": 923}, {"note": 76, "velocity": 79, "duration": 480}, {"note": 78, "velocity": 79, "duration": 380}, {"note": 0, "velocity": 0, "duration": 100}, {"note": 78, "velocity": 78, "duration": 387}, {"note": 0, "velocity": 0, "duration": 93}, {"note": 76, "velocity": 77, "duration": 221}, {"note": 73, "velocity": 73, "duration": 180}, {"note": 71, "velocity": 73, "duration": 201}, {"note": 69, "velocity": 81, "duration": 228}, {"note": 66, "velocity": 71, "duration": 392}, {"note": 0, "velocity": 0, "duration": 88}, {"note": 64, "velocity": 73, "duration": 200}, {"note": 66, "velocity": 74, "duration": 172}, {"note": 0, "velocity": 0, "duration": 68}, {"note": 69, "velocity": 75, "duration": 144}, {"note": 0, "velocity": 0, "duration": 96}, {"note": 71, "velocity": 73, "duration": 172}, {"note": 0, "velocity": 0, "duration": 68}, {"note": 73, "velocity": 83, "duration": 197}, {"note": 76, "velocity": 70, "duration": 238}, {"note": 71, "velocity": 78, "duration": 1193}, {"note": 0, "velocity": 0, "duration": 247}, {"note": 73, "velocity": 81, "duration": 229}, {"note": 76, "velocity": 77, "duration": 183}, {"note": 76, "velocity": 81, "duration": 158}, {"note": 0, "velocity": 0, "duration": 82}, {"note": 76, "velocity": 80, "duration": 181}, {"note": 73, "velocity": 88, "duration": 240}, {"note": 0, "velocity": 0, "duration": 240}, {"note": 76, "velocity": 76, "duration": 173}, {"note": 0, "velocity": 0, "duration": 67}, {"note": 78, "velocity": 75, "duration": 161}, {"note": 0, "velocity": 0, "duration": 79}, {"note": 78, "velocity": 79, "duration": 390}, {"note": 0, "velocity": 0, "duration": 90}, {"note": 78, "velocity": 78, "duration": 416}, {"note": 0, "velocity": 0, "duration": 64}, {"note": 76, "velocity": 59, "duration": 177}, {"note": 0, "velocity": 0, "duration": 63}, {"note": 78, "velocity": 72, "duration": 161}, {"note": 0, "velocity": 0, "duration": 79}, {"note": 81, "velocity": 75, "duration": 156}, {"note": 0, "velocity": 0, "duration": 84}, {"note": 81, "velocity": 83, "duration": 166}, {"note": 0, "velocity": 0, "duration": 74}, {"note": 78, "velocity": 76, "duration": 175}, {"note": 0, "velocity": 0, "duration": 65}, {"note": 76, "velocity": 78, "duration": 240}, {"note": 73, "velocity": 79, "duration": 517}, {"note": 0, "velocity": 0, "duration": 923}, {"note": 76, "velocity": 79, "duration": 480}, {"note": 78, "velocity": 79, "duration": 380}, {"note": 0, "velocity": 0, "duration": 100}, {"note": 78, "velocity": 78, "duration": 387}, {"note": 0, "velocity": 0, "duration": 93}, {"note": 76, "velocity": 77, "duration": 221}, {"note": 73, "velocity": 73, "duration": 180}, {"note": 71, "velocity": 73, "duration": 201}, {"note": 69, "velocity": 81, "duration": 228}, {"note": 66, "velocity": 71, "duration": 392}, {"note": 0, "velocity": 0, "duration": 88}, {"note": 64, "velocity": 73, "duration": 200}, {"note": 66, "velocity": 74, "duration": 172}, {"note": 0, "velocity": 0, "duration": 68}, {"note": 69, "velocity": 75, "duration": 144}, {"note": 0, "velocity": 0, "duration": 96}, {"note": 71, "velocity": 73, "duration": 172}, {"note": 0, "velocity": 0, "duration": 68}, {"note": 73, "velocity": 83, "duration": 197}, {"note": 76, "velocity": 70, "duration": 238}, {"note": 71, "velocity": 78, "duration": 1193}, {"note": 0, "velocity": 0, "duration": 247}, {"note": 69, "velocity": 78, "duration": 412}, {"note": 0, "velocity": 0, "duration": 68}, {"note": 69, "velocity": 79, "duration": 206}, {"note": 71, "velocity": 76, "duration": 259}, {"note": 73, "velocity": 82, "duration": 232}, {"note": 76, "velocity": 77, "duration": 151}, {"note": 0, "velocity": 0, "duration": 89}, {"note": 76, "velocity": 79, "duration": 720}, {"note": 73, "velocity": 80, "duration": 240}, {"note": 73, "velocity": 80, "duration": 480}, {"note": 76, "velocity": 73, "duration": 210}, {"note": 78, "velocity": 75, "duration": 183}, {"note": 78, "velocity": 77, "duration": 457}, {"note": 81, "velocity": 73, "duration": 490}, {"note": 78, "velocity": 73, "duration": 1136}, {"note": 0, "velocity": 0, "duration": 304}, {"note": 78, "velocity": 76, "duration": 481}, {"note": 76, "velocity": 76, "duration": 796}, {"note": 0, "velocity": 0, "duration": 164}, {"note": 76, "velocity": 78, "duration": 516}, {"note": 73, "velocity": 79, "duration": 630}, {"note": 0, "velocity": 0, "duration": 330}, {"note": 71, "velocity": 72, "duration": 211}, {"note": 73, "velocity": 81, "duration": 168}, {"note": 0, "velocity": 0, "duration": 72}, {"note": 71, "velocity": 77, "duration": 165}, {"note": 0, "velocity": 0, "duration": 75}, {"note": 69, "velocity": 78, "duration": 227}, {"note": 66, "velocity": 71, "duration": 207}, {"note": 69, "velocity": 78, "duration": 183}, {"note": 69, "velocity": 79, "duration": 1376}, {"note": 0, "velocity": 0, "duration": 64}, {"note": 78, "velocity": 78, "duration": 385}, {"note": 0, "velocity": 0, "duration": 95}, {"note": 78, "velocity": 77, "duration": 363}, {"note": 0, "velocity": 0, "duration": 117}, {"note": 81, "velocity": 78, "duration": 413}, {"note": 0, "velocity": 0, "duration": 67}, {"note": 78, "velocity": 73, "duration": 497}, {"note": 76, "velocity": 78, "duration": 534}, {"note": 73, "velocity": 77, "duration": 374}, {"note": 0, "velocity": 0, "duration": 106}, {"note": 71, "velocity": 78, "duration": 201}, {"note": 73, "velocity": 78, "duration": 197}, {"note": 71, "velocity": 78, "duration": 155}, {"note": 0, "velocity": 0, "duration": 85}, {"note": 69, "velocity": 78, "duration": 213}, {"note": 66, "velocity": 74, "duration": 202}, {"note": 69, "velocity": 77, "duration": 183}, {"note": 69, "velocity": 78, "duration": 1868}, {"note": 0, "velocity": 0, "duration": 12532}, {"note": 66, "velocity": 79, "duration": 212}, {"note": 69, "velocity": 81, "duration": 191}, {"note": 71, "velocity": 78, "duration": 582}, {"note": 0, "velocity": 0, "duration": 378}, {"note": 71, "velocity": 78, "duration": 174}, {"note": 0, "velocity": 0, "duration": 66}, {"note": 73, "velocity": 78, "duration": 208}, {"note": 66, "velocity": 77, "duration": 806}, {"note": 0, "velocity": 0, "duration": 154}, {"note": 64, "velocity": 78, "duration": 169}, {"note": 0, "velocity": 0, "duration": 71}, {"note": 66, "velocity": 77, "duration": 201}, {"note": 69, "velocity": 78, "duration": 215}, {"note": 71, "velocity": 77, "duration": 173}, {"note": 0, "velocity": 0, "duration": 67}, {"note": 73, "velocity": 79, "duration": 230}, {"note": 76, "velocity": 78, "duration": 223}, {"note": 71, "velocity": 78, "duration": 1135}, {"note": 0, "velocity": 0, "duration": 305}, {"note": 66, "velocity": 79, "duration": 212}, {"note": 69, "velocity": 81, "duration": 191}, {"note": 71, "velocity": 78, "duration": 582}, {"note": 0, "velocity": 0, "duration": 378}, {"note": 71, "velocity": 78, "duration": 174}, {"note": 0, "velocity": 0, "duration": 66}, {"note": 69, "velocity": 78, "duration": 208}, {"note": 66, "velocity": 77, "duration": 806}, {"note": 0, "velocity": 0, "duration": 154}, {"note": 64, "velocity": 78, "duration": 169}, {"note": 0, "velocity": 0, "duration": 71}, {"note": 66, "velocity": 77, "duration": 201}, {"note": 69, "velocity": 78, "duration": 215}, {"note": 71, "velocity": 77, "duration": 173}, {"note": 0, "velocity": 0, "duration": 67}, {"note": 69, "velocity": 79, "duration": 230}, {"note": 66, "velocity": 78, "duration": 223}, {"note": 66, "velocity": 78, "duration": 1135}, {"note": 0, "velocity": 0, "duration": 1745}, {"note": 73, "velocity": 81, "duration": 229}, {"note": 76, "velocity": 77, "duration": 183}, {"note": 76, "velocity": 81, "duration": 158}, {"note": 0, "velocity": 0, "duration": 82}, {"note": 76, "velocity": 80, "duration": 181}, {"note": 73, "velocity": 88, "duration": 379}, {"note": 0, "velocity": 0, "duration": 101}, {"note": 76, "velocity": 76, "duration": 173}, {"note": 0, "velocity": 0, "duration": 67}, {"note": 78, "velocity": 75, "duration": 161}, {"note": 0, "velocity": 0, "duration": 79}, {"note": 78, "velocity": 79, "duration": 390}, {"note": 0, "velocity": 0, "duration": 90}, {"note": 78, "velocity": 78, "duration": 416}, {"note": 0, "velocity": 0, "duration": 64}, {"note": 76, "velocity": 59, "duration": 177}, {"note": 0, "velocity": 0, "duration": 63}, {"note": 78, "velocity": 72, "duration": 161}, {"note": 0, "velocity": 0, "duration": 79}, {"note": 81, "velocity": 75, "duration": 156}, {"note": 0, "velocity": 0, "duration": 84}, {"note": 81, "velocity": 83, "duration": 166}, {"note": 0, "velocity": 0, "duration": 74}, {"note": 78, "velocity": 76, "duration": 175}, {"note": 0, "velocity": 0, "duration": 65}, {"note": 76, "velocity": 78, "duration": 240}, {"note": 73, "velocity": 79, "duration": 517}, {"note": 0, "velocity": 0, "duration": 923}, {"note": 76, "velocity": 79, "duration": 241}, {"note": 78, "velocity": 78, "duration": 157}, {"note": 0, "velocity": 0, "duration": 83}, {"note": 78, "velocity": 79, "duration": 380}, {"note": 0, "velocity": 0, "duration": 100}, {"note": 78, "velocity": 78, "duration": 387}, {"note": 0, "velocity": 0, "duration": 93}, {"note": 76, "velocity": 77, "duration": 221}, {"note": 73, "velocity": 73, "duration": 180}, {"note": 71, "velocity": 73, "duration": 201}, {"note": 69, "velocity": 81, "duration": 228}, {"note": 66, "velocity": 71, "duration": 392}, {"note": 0, "velocity": 0, "duration": 88}, {"note": 64, "velocity": 73, "duration": 200}, {"note": 66, "velocity": 74, "duration": 172}, {"note": 0, "velocity": 0, "duration": 68}, {"note": 69, "velocity": 75, "duration": 144}, {"note": 0, "velocity": 0, "duration": 96}, {"note": 71, "velocity": 73, "duration": 172}, {"note": 0, "velocity": 0, "duration": 68}, {"note": 73, "velocity": 83, "duration": 197}, {"note": 76, "velocity": 70, "duration": 238}, {"note": 71, "velocity": 78, "duration": 1193}, {"note": 0, "velocity": 0, "duration": 247}, {"note": 73, "velocity": 81, "duration": 229}, {"note": 76, "velocity": 77, "duration": 183}, {"note": 76, "velocity": 81, "duration": 158}, {"note": 0, "velocity": 0, "duration": 82}, {"note": 76, "velocity": 80, "duration": 181}, {"note": 73, "velocity": 88, "duration": 240}, {"note": 73, "velocity": 88, "duration": 240}, {"note": 76, "velocity": 76, "duration": 173}, {"note": 0, "velocity": 0, "duration": 67}, {"note": 78, "velocity": 75, "duration": 161}, {"note": 0, "velocity": 0, "duration": 79}, {"note": 78, "velocity": 79, "duration": 390}, {"note": 0, "velocity": 0, "duration": 90}, {"note": 78, "velocity": 78, "duration": 416}, {"note": 0, "velocity": 0, "duration": 64}, {"note": 76, "velocity": 59, "duration": 177}, {"note": 0, "velocity": 0, "duration": 63}, {"note": 78, "velocity": 72, "duration": 161}, {"note": 0, "velocity": 0, "duration": 79}, {"note": 81, "velocity": 75, "duration": 156}, {"note": 0, "velocity": 0, "duration": 84}, {"note": 81, "velocity": 83, "duration": 166}, {"note": 0, "velocity": 0, "duration": 74}, {"note": 78, "velocity": 76, "duration": 175}, {"note": 0, "velocity": 0, "duration": 65}, {"note": 76, "velocity": 78, "duration": 240}, {"note": 73, "velocity": 79, "duration": 517}, {"note": 0, "velocity": 0, "duration": 923}, {"note": 76, "velocity": 79, "duration": 480}, {"note": 78, "velocity": 79, "duration": 380}, {"note": 0, "velocity": 0, "duration": 100}, {"note": 78, "velocity": 78, "duration": 387}, {"note": 0, "velocity": 0, "duration": 93}, {"note": 76, "velocity": 77, "duration": 221}, {"note": 73, "velocity": 73, "duration": 180}, {"note": 71, "velocity": 73, "duration": 201}, {"note": 69, "velocity": 81, "duration": 228}, {"note": 66, "velocity": 71, "duration": 392}, {"note": 0, "velocity": 0, "duration": 88}, {"note": 64, "velocity": 73, "duration": 200}, {"note": 66, "velocity": 74, "duration": 172}, {"note": 0, "velocity": 0, "duration": 68}, {"note": 69, "velocity": 75, "duration": 144}, {"note": 0, "velocity": 0, "duration": 96}, {"note": 71, "velocity": 73, "duration": 172}, {"note": 0, "velocity": 0, "duration": 68}, {"note": 73, "velocity": 83, "duration": 197}, {"note": 76, "velocity": 70, "duration": 238}, {"note": 71, "velocity": 78, "duration": 1193}, {"note": 0, "velocity": 0, "duration": 247}, {"note": 73, "velocity": 81, "duration": 229}, {"note": 76, "velocity": 77, "duration": 183}, {"note": 76, "velocity": 81, "duration": 158}, {"note": 0, "velocity": 0, "duration": 82}, {"note": 76, "velocity": 80, "duration": 181}, {"note": 73, "velocity": 88, "duration": 240}, {"note": 0, "velocity": 0, "duration": 240}, {"note": 76, "velocity": 76, "duration": 173}, {"note": 0, "velocity": 0, "duration": 67}, {"note": 78, "velocity": 75, "duration": 161}, {"note": 0, "velocity": 0, "duration": 79}, {"note": 78, "velocity": 79, "duration": 390}, {"note": 0, "velocity": 0, "duration": 90}, {"note": 78, "velocity": 78, "duration": 416}, {"note": 0, "velocity": 0, "duration": 64}, {"note": 76, "velocity": 59, "duration": 177}, {"note": 0, "velocity": 0, "duration": 63}, {"note": 78, "velocity": 72, "duration": 161}, {"note": 0, "velocity": 0, "duration": 79}, {"note": 81, "velocity": 75, "duration": 156}, {"note": 0, "velocity": 0, "duration": 84}, {"note": 81, "velocity": 83, "duration": 166}, {"note": 0, "velocity": 0, "duration": 74}, {"note": 78, "velocity": 76, "duration": 175}, {"note": 0, "velocity": 0, "duration": 65}, {"note": 76, "velocity": 78, "duration": 240}, {"note": 73, "velocity": 79, "duration": 517}, {"note": 0, "velocity": 0, "duration": 923}, {"note": 76, "velocity": 79, "duration": 480}, {"note": 78, "velocity": 79, "duration": 380}, {"note": 0, "velocity": 0, "duration": 100}, {"note": 78, "velocity": 78, "duration": 387}, {"note": 0, "velocity": 0, "duration": 93}, {"note": 76, "velocity": 77, "duration": 221}, {"note": 73, "velocity": 73, "duration": 180}, {"note": 71, "velocity": 73, "duration": 201}, {"note": 69, "velocity": 81, "duration": 228}, {"note": 66, "velocity": 71, "duration": 392}, {"note": 0, "velocity": 0, "duration": 88}, {"note": 64, "velocity": 73, "duration": 200}, {"note": 66, "velocity": 74, "duration": 172}, {"note": 0, "velocity": 0, "duration": 68}, {"note": 69, "velocity": 75, "duration": 144}, {"note": 0, "velocity": 0, "duration": 96}, {"note": 71, "velocity": 73, "duration": 172}, {"note": 0, "velocity": 0, "duration": 68}, {"note": 73, "velocity": 83, "duration": 197}, {"note": 76, "velocity": 70, "duration": 238}, {"note": 71, "velocity": 78, "duration": 1193}, {"note": 0, "velocity": 0, "duration": 247}, {"note": 69, "velocity": 78, "duration": 412}, {"note": 0, "velocity": 0, "duration": 68}, {"note": 69, "velocity": 79, "duration": 206}, {"note": 71, "velocity": 76, "duration": 259}, {"note": 73, "velocity": 82, "duration": 232}, {"note": 76, "velocity": 77, "duration": 151}, {"note": 0, "velocity": 0, "duration": 89}, {"note": 76, "velocity": 79, "duration": 720}, {"note": 73, "velocity": 80, "duration": 240}, {"note": 73, "velocity": 80, "duration": 480}, {"note": 76, "velocity": 73, "duration": 210}, {"note": 78, "velocity": 75, "duration": 183}, {"note": 78, "velocity": 77, "duration": 457}, {"note": 81, "velocity": 73, "duration": 490}, {"note": 78, "velocity": 73, "duration": 1136}, {"note": 0, "velocity": 0, "duration": 304}, {"note": 78, "velocity": 76, "duration": 481}, {"note": 76, "velocity": 76, "duration": 796}, {"note": 0, "velocity": 0, "duration": 164}, {"note": 76, "velocity": 78, "duration": 516}, {"note": 73, "velocity": 79, "duration": 630}, {"note": 0, "velocity": 0, "duration": 330}, {"note": 71, "velocity": 72, "duration": 211}, {"note": 73, "velocity": 81, "duration": 168}, {"note": 0, "velocity": 0, "duration": 72}, {"note": 71, "velocity": 77, "duration": 165}, {"note": 0, "velocity": 0, "duration": 75}, {"note": 69, "velocity": 78, "duration": 227}, {"note": 66, "velocity": 71, "duration": 207}, {"note": 69, "velocity": 78, "duration": 183}, {"note": 69, "velocity": 79, "duration": 1376}, {"note": 0, "velocity": 0, "duration": 64}, {"note": 78, "velocity": 78, "duration": 385}, {"note": 0, "velocity": 0, "duration": 95}, {"note": 78, "velocity": 77, "duration": 363}, {"note": 0, "velocity": 0, "duration": 117}, {"note": 81, "velocity": 78, "duration": 413}, {"note": 0, "velocity": 0, "duration": 67}, {"note": 78, "velocity": 73, "duration": 497}, {"note": 76, "velocity": 78, "duration": 534}, {"note": 73, "velocity": 77, "duration": 374}, {"note": 0, "velocity": 0, "duration": 106}, {"note": 71, "velocity": 78, "duration": 201}, {"note": 73, "velocity": 78, "duration": 197}, {"note": 71, "velocity": 78, "duration": 155}, {"note": 0, "velocity": 0, "duration": 85}, {"note": 69, "velocity": 78, "duration": 213}, {"note": 66, "velocity": 74, "duration": 202}, {"note": 69, "velocity": 77, "duration": 183}, {"note": 69, "velocity": 78, "duration": 1868}]]