[[{"note": 64, "velocity": 78, "duration": 257}, {"note": 62, "velocity": 71, "duration": 241}, {"note": 64, "velocity": 77, "duration": 290}, {"note": 65, "velocity": 75, "duration": 274}, {"note": 67, "velocity": 72, "duration": 854}, {"note": 0, "velocity": 0, "duration": 106}, {"note": 60, "velocity": 78, "duration": 232}, {"note": 59, "velocity": 73, "duration": 261}, {"note": 60, "velocity": 78, "duration": 279}, {"note": 62, "velocity": 74, "duration": 289}, {"note": 64, "velocity": 77, "duration": 411}, {"note": 0, "velocity": 0, "duration": 69}, {"note": 64, "velocity": 79, "duration": 240}, {"note": 55, "velocity": 79, "duration": 196}, {"note": 57, "velocity": 77, "duration": 614}, {"note": 0, "velocity": 0, "duration": 106}, {"note": 60, "velocity": 77, "duration": 177}, {"note": 0, "velocity": 0, "duration": 63}, {"note": 60, "velocity": 79, "duration": 669}, {"note": 55, "velocity": 78, "duration": 165}, {"note": 0, "velocity": 0, "duration": 75}, {"note": 53, "velocity": 76, "duration": 311}, {"note": 57, "velocity": 77, "duration": 150}, {"note": 0, "velocity": 0, "duration": 90}, {"note": 59, "velocity": 79, "duration": 158}, {"note": 0, "velocity": 0, "duration": 82}, {"note": 60, "velocity": 78, "duration": 186}, {"note": 64, "velocity": 77, "duration": 240}, {"note": 65, "velocity": 78, "duration": 240}, {"note": 62, "velocity": 78, "duration": 360}, {"note": 0, "velocity": 0, "duration": 120}, {"note": 64, "velocity": 78, "duration": 240}, {"note": 62, "velocity": 73, "duration": 256}, {"note": 64, "velocity": 80, "duration": 278}, {"note": 65, "velocity": 78, "duration": 257}, {"note": 67, "velocity": 78, "duration": 827}, {"note": 0, "velocity": 0, "duration": 133}, {"note": 60, "velocity": 74, "duration": 270}, {"note": 59, "velocity": 77, "duration": 249}, {"note": 60, "velocity": 75, "duration": 288}, {"note": 62, "velocity": 74, "duration": 287}, {"note": 64, "velocity": 78, "duration": 394}, {"note": 0, "velocity": 0, "duration": 86}, {"note": 64, "velocity": 81, "duration": 222}, {"note": 55, "velocity": 74, "duration": 259}, {"note": 57, "velocity": 75, "duration": 240}, {"note": 60, "velocity": 78, "duration": 360}, {"note": 0, "velocity": 0, "duration": 120}, {"note": 55, "velocity": 78, "duration": 82}, {"note": 53, "velocity": 72, "duration": 69}, {"note": 53, "velocity": 78, "duration": 199}, {"note": 60, "velocity": 78, "duration": 240}, {"note": 60, "velocity": 78, "duration": 240}, {"note": 57, "velocity": 63, "duration": 240}, {"note": 59, "velocity": 76, "duration": 177}, {"note": 0, "velocity": 0, "duration": 63}, {"note": 59, "velocity": 79, "duration": 160}, {"note": 0, "velocity": 0, "duration": 80}, {"note": 59, "velocity": 81, "duration": 186}, {"note": 60, "velocity": 78, "duration": 185}, {"note": 62, "velocity": 79, "duration": 1574}, {"note": 0, "velocity": 0, "duration": 346}, {"note": 55, "velocity": 78, "duration": 360}, {"note": 0, "velocity": 0, "duration": 120}, {"note": 67, "velocity": 72, "duration": 649}, {"note": 0, "velocity": 0, "duration": 71}, {"note": 65, "velocity": 79, "duration": 233}, {"note": 64, "velocity": 78, "duration": 408}, {"note": 0, "velocity": 0, "duration": 72}, {"note": 64, "velocity": 88, "duration": 193}, {"note": 71, "velocity": 80, "duration": 198}, {"note": 72, "velocity": 79, "duration": 575}, {"note": 0, "velocity": 0, "duration": 145}, {"note": 71, "velocity": 78, "duration": 182}, {"note": 72, "velocity": 79, "duration": 153}, {"note": 0, "velocity": 0, "duration": 87}, {"note": 71, "velocity": 78, "duration": 145}, {"note": 0, "velocity": 0, "duration": 95}, {"note": 67, "velocity": 75, "duration": 177}, {"note": 0, "velocity": 0, "duration": 63}, {"note": 60, "velocity": 79, "duration": 187}, {"note": 60, "velocity": 80, "duration": 555}, {"note": 0, "velocity": 0, "duration": 165}, {"note": 69, "velocity": 77, "duration": 177}, {"note": 0, "velocity": 0, "duration": 63}, {"note": 69, "velocity": 78, "duration": 384}, {"note": 0, "velocity": 0, "duration": 96}, {"note": 65, "velocity": 64, "duration": 211}, {"note": 57, "velocity": 81, "duration": 209}, {"note": 59, "velocity": 72, "duration": 177}, {"note": 0, "velocity": 0, "duration": 63}, {"note": 59, "velocity": 78, "duration": 167}, {"note": 0, "velocity": 0, "duration": 73}, {"note": 59, "velocity": 79, "duration": 188}, {"note": 60, "velocity": 80, "duration": 195}, {"note": 62, "velocity": 76, "duration": 673}, {"note": 55, "velocity": 81, "duration": 211}, {"note": 67, "velocity": 53, "duration": 619}, {"note": 0, "velocity": 0, "duration": 101}, {"note": 65, "velocity": 79, "duration": 226}, {"note": 64, "velocity": 78, "duration": 175}, {"note": 64, "velocity": 80, "duration": 55}, {"note": 0, "velocity": 0, "duration": 305}, {"note": 64, "velocity": 81, "duration": 168}, {"note": 0, "velocity": 0, "duration": 72}, {"note": 71, "velocity": 73, "duration": 192}, {"note": 72, "velocity": 78, "duration": 587}, {"note": 0, "velocity": 0, "duration": 133}, {"note": 71, "velocity": 78, "duration": 160}, {"note": 0, "velocity": 0, "duration": 80}, {"note": 72, "velocity": 79, "duration": 161}, {"note": 0, "velocity": 0, "duration": 79}, {"note": 71, "velocity": 77, "duration": 178}, {"note": 0, "velocity": 0, "duration": 62}, {"note": 67, "velocity": 76, "duration": 174}, {"note": 0, "velocity": 0, "duration": 66}, {"note": 60, "velocity": 78, "duration": 171}, {"note": 0, "velocity": 0, "duration": 69}, {"note": 60, "velocity": 78, "duration": 627}, {"note": 0, "velocity": 0, "duration": 93}, {"note": 69, "velocity": 78, "duration": 163}, {"note": 0, "velocity": 0, "duration": 77}, {"note": 69, "velocity": 78, "duration": 352}, {"note": 0, "velocity": 0, "duration": 128}, {"note": 65, "velocity": 78, "duration": 160}, {"note": 0, "velocity": 0, "duration": 80}, {"note": 57, "velocity": 77, "duration": 199}, {"note": 59, "velocity": 76, "duration": 240}, {"note": 59, "velocity": 76, "duration": 240}, {"note": 59, "velocity": 77, "duration": 308}, {"note": 60, "velocity": 73, "duration": 416}, {"note": 0, "velocity": 0, "duration": 64}, {"note": 60, "velocity": 77, "duration": 1680}, {"note": 0, "velocity": 0, "duration": 8160}, {"note": 64, "velocity": 78, "duration": 257}, {"note": 62, "velocity": 71, "duration": 241}, {"note": 64, "velocity": 77, "duration": 290}, {"note": 65, "velocity": 75, "duration": 274}, {"note": 67, "velocity": 72, "duration": 854}, {"note": 0, "velocity": 0, "duration": 106}, {"note": 60, "velocity": 78, "duration": 232}, {"note": 59, "velocity": 73, "duration": 261}, {"note": 60, "velocity": 78, "duration": 279}, {"note": 62, "velocity": 74, "duration": 289}, {"note": 64, "velocity": 77, "duration": 411}, {"note": 0, "velocity": 0, "duration": 69}, {"note": 64, "velocity": 79, "duration": 240}, {"note": 55, "velocity": 79, "duration": 196}, {"note": 57, "velocity": 77, "duration": 614}, {"note": 0, "velocity": 0, "duration": 106}, {"note": 60, "velocity": 77, "duration": 177}, {"note": 0, "velocity": 0, "duration": 63}, {"note": 60, "velocity": 79, "duration": 669}, {"note": 55, "velocity": 78, "duration": 165}, {"note": 0, "velocity": 0, "duration": 75}, {"note": 53, "velocity": 76, "duration": 311}, {"note": 57, "velocity": 77, "duration": 150}, {"note": 0, "velocity": 0, "duration": 90}, {"note": 59, "velocity": 79, "duration": 158}, {"note": 0, "velocity": 0, "duration": 82}, {"note": 60, "velocity": 78, "duration": 186}, {"note": 64, "velocity": 77, "duration": 240}, {"note": 65, "velocity": 78, "duration": 240}, {"note": 62, "velocity": 78, "duration": 360}, {"note": 0, "velocity": 0, "duration": 120}, {"note": 64, "velocity": 78, "duration": 240}, {"note": 62, "velocity": 73, "duration": 256}, {"note": 64, "velocity": 80, "duration": 278}, {"note": 65, "velocity": 78, "duration": 257}, {"note": 67, "velocity": 78, "duration": 827}, {"note": 0, "velocity": 0, "duration": 133}, {"note": 60, "velocity": 74, "duration": 270}, {"note": 59, "velocity": 77, "duration": 249}, {"note": 60, "velocity": 75, "duration": 288}, {"note": 62, "velocity": 74, "duration": 287}, {"note": 64, "velocity": 78, "duration": 394}, {"note": 0, "velocity": 0, "duration": 86}, {"note": 64, "velocity": 81, "duration": 222}, {"note": 55, "velocity": 74, "duration": 259}, {"note": 57, "velocity": 75, "duration": 240}, {"note": 60, "velocity": 78, "duration": 360}, {"note": 0, "velocity": 0, "duration": 120}, {"note": 55, "velocity": 78, "duration": 82}, {"note": 53, "velocity": 72, "duration": 69}, {"note": 53, "velocity": 78, "duration": 199}, {"note": 60, "velocity": 78, "duration": 240}, {"note": 60, "velocity": 78, "duration": 240}, {"note": 57, "velocity": 63, "duration": 240}, {"note": 59, "velocity": 76, "duration": 177}, {"note": 0, "velocity": 0, "duration": 63}, {"note": 59, "velocity": 79, "duration": 160}, {"note": 0, "velocity": 0, "duration": 80}, {"note": 59, "velocity": 81, "duration": 186}, {"note": 60, "velocity": 78, "duration": 185}, {"note": 62, "velocity": 79, "duration": 1574}, {"note": 0, "velocity": 0, "duration": 346}, {"note": 55, "velocity": 78, "duration": 360}, {"note": 0, "velocity": 0, "duration": 120}, {"note": 67, "velocity": 72, "duration": 649}, {"note": 0, "velocity": 0, "duration": 71}, {"note": 65, "velocity": 79, "duration": 233}, {"note": 64, "velocity": 78, "duration": 408}, {"note": 0, "velocity": 0, "duration": 72}, {"note": 64, "velocity": 88, "duration": 193}, {"note": 71, "velocity": 80, "duration": 198}, {"note": 72, "velocity": 79, "duration": 575}, {"note": 0, "velocity": 0, "duration": 145}, {"note": 71, "velocity": 78, "duration": 182}, {"note": 72, "velocity": 79, "duration": 153}, {"note": 0, "velocity": 0, "duration": 87}, {"note": 71, "velocity": 78, "duration": 145}, {"note": 0, "velocity": 0, "duration": 95}, {"note": 67, "velocity": 75, "duration": 177}, {"note": 0, "velocity": 0, "duration": 63}, {"note": 60, "velocity": 79, "duration": 187}, {"note": 60, "velocity": 80, "duration": 555}, {"note": 0, "velocity": 0, "duration": 165}, {"note": 69, "velocity": 77, "duration": 177}, {"note": 0, "velocity": 0, "duration": 63}, {"note": 69, "velocity": 78, "duration": 384}, {"note": 0, "velocity": 0, "duration": 96}, {"note": 65, "velocity": 64, "duration": 211}, {"note": 57, "velocity": 81, "duration": 209}, {"note": 59, "velocity": 72, "duration": 177}, {"note": 0, "velocity": 0, "duration": 63}, {"note": 59, "velocity": 78, "duration": 167}, {"note": 0, "velocity": 0, "duration": 73}, {"note": 59, "velocity": 79, "duration": 188}, {"note": 60, "velocity": 80, "duration": 195}, {"note": 62, "velocity": 76, "duration": 673}, {"note": 55, "velocity": 81, "duration": 211}, {"note": 67, "velocity": 53, "duration": 619}, {"note": 0, "velocity": 0, "duration": 101}, {"note": 65, "velocity": 79, "duration": 226}, {"note": 64, "velocity": 78, "duration": 175}, {"note": 64, "velocity": 80, "duration": 55}, {"note": 0, "velocity": 0, "duration": 305}, {"note": 64, "velocity": 81, "duration": 168}, {"note": 0, "velocity": 0, "duration": 72}, {"note": 71, "velocity": 73, "duration": 192}, {"note": 72, "velocity": 78, "duration": 587}, {"note": 0, "velocity": 0, "duration": 133}, {"note": 71, "velocity": 78, "duration": 160}, {"note": 0, "velocity": 0, "duration": 80}, {"note": 72, "velocity": 79, "duration": 161}, {"note": 0, "velocity": 0, "duration": 79}, {"note": 71, "velocity": 77, "duration": 178}, {"note": 0, "velocity": 0, "duration": 62}, {"note": 67, "velocity": 76, "duration": 174}, {"note": 0, "velocity": 0, "duration": 66}, {"note": 60, "velocity": 78, "duration": 171}, {"note": 0, "velocity": 0, "duration": 69}, {"note": 60, "velocity": 78, "duration": 627}, {"note": 0, "velocity": 0, "duration": 93}, {"note": 69, "velocity": 78, "duration": 163}, {"note": 0, "velocity": 0, "duration": 77}, {"note": 69, "velocity": 78, "duration": 352}, {"note": 0, "velocity": 0, "duration": 128}, {"note": 65, "velocity": 78, "duration": 160}, {"note": 0, "velocity": 0, "duration": 80}, {"note": 57, "velocity": 77, "duration": 199}, {"note": 59, "velocity": 76, "duration": 240}, {"note": 59, "velocity": 76, "duration": 240}, {"note": 59, "velocity": 77, "duration": 308}, {"note": 60, "velocity": 73, "duration": 416}, {"note": 0, "velocity": 0, "duration": 64}, {"note": 60, "velocity": 77, "duration": 1680}, {"note": 0, "velocity": 0, "duration": 480}, {"note": 55, "velocity": 78, "duration": 360}, {"note": 0, "velocity": 0, "duration": 120}, {"note": 67, "velocity": 72, "duration": 649}, {"note": 0, "velocity": 0, "duration": 71}, {"note": 65, "velocity": 79, "duration": 233}, {"note": 64, "velocity": 78, "duration": 408}, {"note": 0, "velocity": 0, "duration": 72}, {"note": 64, "velocity": 88, "duration": 193}, {"note": 71, "velocity": 80, "duration": 198}, {"note": 72, "velocity": 79, "duration": 575}, {"note": 0, "velocity": 0, "duration": 145}, {"note": 71, "velocity": 78, "duration": 182}, {"note": 72, "velocity": 79, "duration": 153}, {"note": 0, "velocity": 0, "duration": 87}, {"note": 71, "velocity": 78, "duration": 145}, {"note": 0, "velocity": 0, "duration": 95}, {"note": 67, "velocity": 75, "duration": 177}, {"note": 0, "velocity": 0, "duration": 63}, {"note": 60, "velocity": 79, "duration": 187}, {"note": 60, "velocity": 80, "duration": 555}, {"note": 0, "velocity": 0, "duration": 165}, {"note": 69, "velocity": 77, "duration": 177}, {"note": 0, "velocity": 0, "duration": 63}, {"note": 69, "velocity": 78, "duration": 384}, {"note": 0, "velocity": 0, "duration": 96}, {"note": 65, "velocity": 64, "duration": 211}, {"note": 57, "velocity": 81, "duration": 209}, {"note": 59, "velocity": 72, "duration": 177}, {"note": 0, "velocity": 0, "duration": 63}, {"note": 59, "velocity": 78, "duration": 167}, {"note": 0, "velocity": 0, "duration": 73}, {"note": 59, "velocity": 79, "duration": 188}, {"note": 60, "velocity": 80, "duration": 195}, {"note": 62, "velocity": 76, "duration": 673}, {"note": 55, "velocity": 81, "duration": 211}, {"note": 67, "velocity": 53, "duration": 619}, {"note": 0, "velocity": 0, "duration": 101}, {"note": 65, "velocity": 79, "duration": 226}, {"note": 64, "velocity": 78, "duration": 175}, {"note": 64, "velocity": 80, "duration": 55}, {"note": 0, "velocity": 0, "duration": 305}, {"note": 64, "velocity": 81, "duration": 168}, {"note": 0, "velocity": 0, "duration": 72}, {"note": 71, "velocity": 73, "duration": 192}, {"note": 72, "velocity": 78, "duration": 587}, {"note": 0, "velocity": 0, "duration": 133}, {"note": 71, "velocity": 78, "duration": 160}, {"note": 0, "velocity": 0, "duration": 80}, {"note": 72, "velocity": 79, "duration": 161}, {"note": 0, "velocity": 0, "duration": 79}, {"note": 71, "velocity": 77, "duration": 178}, {"note": 0, "velocity": 0, "duration": 62}, {"note": 67, "velocity": 76, "duration": 174}, {"note": 0, "velocity": 0, "duration": 66}, {"note": 60, "velocity": 78, "duration": 171}, {"note": 0, "velocity": 0, "duration": 69}, {"note": 60, "velocity": 78, "duration": 627}, {"note": 0, "velocity": 0, "duration": 93}, {"note": 69, "velocity": 78, "duration": 163}, {"note": 0, "velocity": 0, "duration": 77}, {"note": 69, "velocity": 78, "duration": 352}, {"note": 0, "velocity": 0, "duration": 128}, {"note": 65, "velocity": 78, "duration": 160}, {"note": 0, "velocity": 0, "duration": 80}, {"note": 57, "velocity": 77, "duration": 199}, {"note": 59, "velocity": 76, "duration": 240}, {"note": 59, "velocity": 76, "duration": 240}, {"note": 59, "velocity": 77, "duration": 308}, {"note": 60, "velocity": 73, "duration": 416}, {"note": 0, "velocity": 0, "duration": 64}, {"note": 60, "velocity": 77, "duration": 1680}, {"note": 0, "velocity": 0, "duration": 3120}, {"note": 71, "velocity": 78, "duration": 182}, {"note": 72, "velocity": 79, "duration": 153}, {"note": 0, "velocity": 0, "duration": 87}, {"note": 71, "velocity": 78, "duration": 145}, {"note": 0, "velocity": 0, "duration": 95}, {"note": 67, "velocity": 75, "duration": 177}, {"note": 0, "velocity": 0, "duration": 63}, {"note": 60, "velocity": 79, "duration": 187}, {"note": 60, "velocity": 80, "duration": 555}, {"note": 0, "velocity": 0, "duration": 165}, {"note": 69, "velocity": 77, "duration": 177}, {"note": 0, "velocity": 0, "duration": 63}, {"note": 69, "velocity": 78, "duration": 384}, {"note": 0, "velocity": 0, "duration": 96}, {"note": 65, "velocity": 64, "duration": 211}, {"note": 57, "velocity": 81, "duration": 209}, {"note": 71, "velocity": 77, "duration": 177}, {"note": 71, "velocity": 79, "duration": 202}, {"note": 0, "velocity": 0, "duration": 81}, {"note": 71, "velocity": 84, "duration": 361}, {"note": 69, "velocity": 64, "duration": 153}, {"note": 67, "velocity": 60, "duration": 1318}]]