[[{"note": 74, "velocity": 80, "duration": 416}, {"note": 0, "velocity": 0, "duration": 64}, {"note": 74, "velocity": 81, "duration": 293}, {"note": 0, "velocity": 0, "duration": 67}, {"note": 74, "velocity": 78, "duration": 91}, {"note": 75, "velocity": 74, "duration": 232}, {"note": 74, "velocity": 79, "duration": 228}, {"note": 72, "velocity": 72, "duration": 260}, {"note": 70, "velocity": 75, "duration": 248}, {"note": 74, "velocity": 69, "duration": 397}, {"note": 0, "velocity": 0, "duration": 83}, {"note": 74, "velocity": 80, "duration": 309}, {"note": 74, "velocity": 76, "duration": 94}, {"note": 75, "velocity": 70, "duration": 246}, {"note": 74, "velocity": 78, "duration": 225}, {"note": 72, "velocity": 74, "duration": 258}, {"note": 70, "velocity": 77, "duration": 246}, {"note": 69, "velocity": 63, "duration": 171}, {"note": 70, "velocity": 59, "duration": 150}, {"note": 0, "velocity": 0, "duration": 90}, {"note": 70, "velocity": 75, "duration": 504}, {"note": 70, "velocity": 74, "duration": 24}, {"note": 0, "velocity": 0, "duration": 96}, {"note": 77, "velocity": 69, "duration": 176}, {"note": 0, "velocity": 0, "duration": 64}, {"note": 75, "velocity": 74, "duration": 265}, {"note": 74, "velocity": 76, "duration": 223}, {"note": 72, "velocity": 72, "duration": 120}, {"note": 70, "velocity": 66, "duration": 144}, {"note": 74, "velocity": 68, "duration": 880}, {"note": 0, "velocity": 0, "duration": 80}, {"note": 72, "velocity": 69, "duration": 640}, {"note": 0, "velocity": 0, "duration": 320}, {"note": 74, "velocity": 80, "duration": 416}, {"note": 0, "velocity": 0, "duration": 64}, {"note": 74, "velocity": 81, "duration": 293}, {"note": 0, "velocity": 0, "duration": 67}, {"note": 74, "velocity": 78, "duration": 91}, {"note": 75, "velocity": 74, "duration": 232}, {"note": 74, "velocity": 79, "duration": 228}, {"note": 72, "velocity": 72, "duration": 260}, {"note": 70, "velocity": 75, "duration": 248}, {"note": 74, "velocity": 69, "duration": 397}, {"note": 0, "velocity": 0, "duration": 83}, {"note": 74, "velocity": 80, "duration": 309}, {"note": 74, "velocity": 76, "duration": 94}, {"note": 75, "velocity": 70, "duration": 246}, {"note": 74, "velocity": 78, "duration": 225}, {"note": 72, "velocity": 74, "duration": 258}, {"note": 70, "velocity": 77, "duration": 246}, {"note": 69, "velocity": 63, "duration": 171}, {"note": 70, "velocity": 59, "duration": 150}, {"note": 0, "velocity": 0, "duration": 90}, {"note": 70, "velocity": 75, "duration": 504}, {"note": 70, "velocity": 74, "duration": 24}, {"note": 0, "velocity": 0, "duration": 96}, {"note": 77, "velocity": 69, "duration": 176}, {"note": 0, "velocity": 0, "duration": 64}, {"note": 75, "velocity": 74, "duration": 265}, {"note": 74, "velocity": 76, "duration": 223}, {"note": 72, "velocity": 72, "duration": 120}, {"note": 70, "velocity": 66, "duration": 144}, {"note": 74, "velocity": 68, "duration": 648}, {"note": 0, "velocity": 0, "duration": 192}, {"note": 72, "velocity": 72, "duration": 80}, {"note": 72, "velocity": 74, "duration": 128}, {"note": 74, "velocity": 76, "duration": 271}, {"note": 0, "velocity": 0, "duration": 89}, {"note": 74, "velocity": 75, "duration": 216}, {"note": 75, "velocity": 75, "duration": 214}, {"note": 77, "velocity": 71, "duration": 374}, {"note": 0, "velocity": 0, "duration": 106}, {"note": 77, "velocity": 73, "duration": 295}, {"note": 0, "velocity": 0, "duration": 65}, {"note": 65, "velocity": 71, "duration": 70}, {"note": 65, "velocity": 74, "duration": 227}, {"note": 77, "velocity": 75, "duration": 222}, {"note": 75, "velocity": 75, "duration": 235}, {"note": 74, "velocity": 75, "duration": 235}, {"note": 72, "velocity": 69, "duration": 403}, {"note": 0, "velocity": 0, "duration": 77}, {"note": 72, "velocity": 74, "duration": 232}, {"note": 70, "velocity": 75, "duration": 240}, {"note": 72, "velocity": 72, "duration": 234}, {"note": 70, "velocity": 67, "duration": 270}, {"note": 72, "velocity": 73, "duration": 248}, {"note": 74, "velocity": 78, "duration": 253}, {"note": 75, "velocity": 72, "duration": 399}, {"note": 0, "velocity": 0, "duration": 81}, {"note": 75, "velocity": 75, "duration": 313}, {"note": 67, "velocity": 69, "duration": 75}, {"note": 67, "velocity": 70, "duration": 194}, {"note": 75, "velocity": 73, "duration": 250}, {"note": 74, "velocity": 75, "duration": 238}, {"note": 72, "velocity": 69, "duration": 244}, {"note": 70, "velocity": 68, "duration": 185}, {"note": 70, "velocity": 74, "duration": 192}, {"note": 70, "velocity": 75, "duration": 220}, {"note": 72, "velocity": 74, "duration": 251}, {"note": 69, "velocity": 72, "duration": 440}, {"note": 74, "velocity": 76, "duration": 206}, {"note": 75, "velocity": 77, "duration": 189}, {"note": 77, "velocity": 69, "duration": 461}, {"note": 77, "velocity": 74, "duration": 313}, {"note": 65, "velocity": 70, "duration": 72}, {"note": 65, "velocity": 72, "duration": 197}, {"note": 77, "velocity": 74, "duration": 199}, {"note": 75, "velocity": 74, "duration": 219}, {"note": 74, "velocity": 78, "duration": 222}, {"note": 72, "velocity": 71, "duration": 386}, {"note": 0, "velocity": 0, "duration": 94}, {"note": 72, "velocity": 70, "duration": 232}, {"note": 70, "velocity": 75, "duration": 199}, {"note": 72, "velocity": 69, "duration": 210}, {"note": 70, "velocity": 76, "duration": 202}, {"note": 72, "velocity": 72, "duration": 207}, {"note": 74, "velocity": 75, "duration": 235}, {"note": 75, "velocity": 74, "duration": 383}, {"note": 0, "velocity": 0, "duration": 97}, {"note": 75, "velocity": 70, "duration": 316}, {"note": 67, "velocity": 69, "duration": 78}, {"note": 67, "velocity": 70, "duration": 189}, {"note": 75, "velocity": 74, "duration": 209}, {"note": 74, "velocity": 76, "duration": 176}, {"note": 0, "velocity": 0, "duration": 64}, {"note": 75, "velocity": 77, "duration": 184}, {"note": 77, "velocity": 74, "duration": 395}, {"note": 0, "velocity": 0, "duration": 85}, {"note": 77, "velocity": 71, "duration": 152}, {"note": 79, "velocity": 72, "duration": 171}, {"note": 0, "velocity": 0, "duration": 69}, {"note": 77, "velocity": 74, "duration": 652}, {"note": 0, "velocity": 0, "duration": 428}, {"note": 65, "velocity": 76, "duration": 376}, {"note": 77, "velocity": 75, "duration": 839}, {"note": 74, "velocity": 68, "duration": 200}, {"note": 75, "velocity": 78, "duration": 245}, {"note": 77, "velocity": 74, "duration": 186}, {"note": 77, "velocity": 76, "duration": 475}, {"note": 0, "velocity": 0, "duration": 239}, {"note": 75, "velocity": 75, "duration": 155}, {"note": 78, "velocity": 76, "duration": 629}, {"note": 0, "velocity": 0, "duration": 457}, {"note": 68, "velocity": 77, "duration": 343}, {"note": 78, "velocity": 75, "duration": 834}, {"note": 75, "velocity": 78, "duration": 219}, {"note": 77, "velocity": 75, "duration": 237}, {"note": 78, "velocity": 75, "duration": 176}, {"note": 0, "velocity": 0, "duration": 64}, {"note": 78, "velocity": 75, "duration": 645}, {"note": 0, "velocity": 0, "duration": 75}, {"note": 77, "velocity": 75, "duration": 189}, {"note": 77, "velocity": 78, "duration": 536}, {"note": 0, "velocity": 0, "duration": 424}, {"note": 73, "velocity": 76, "duration": 254}, {"note": 80, "velocity": 76, "duration": 960}, {"note": 77, "velocity": 74, "duration": 254}, {"note": 78, "velocity": 75, "duration": 265}, {"note": 80, "velocity": 74, "duration": 176}, {"note": 0, "velocity": 0, "duration": 64}, {"note": 80, "velocity": 75, "duration": 726}, {"note": 78, "velocity": 71, "duration": 204}, {"note": 78, "velocity": 73, "duration": 528}, {"note": 0, "velocity": 0, "duration": 192}, {"note": 77, "velocity": 56, "duration": 212}, {"note": 77, "velocity": 77, "duration": 465}, {"note": 75, "velocity": 76, "duration": 439}, {"note": 78, "velocity": 74, "duration": 700}, {"note": 77, "velocity": 75, "duration": 181}, {"note": 77, "velocity": 76, "duration": 236}, {"note": 75, "velocity": 75, "duration": 758}, {"note": 77, "velocity": 74, "duration": 894}, {"note": 0, "velocity": 0, "duration": 66}, {"note": 65, "velocity": 76, "duration": 376}, {"note": 77, "velocity": 75, "duration": 839}, {"note": 74, "velocity": 68, "duration": 200}, {"note": 75, "velocity": 78, "duration": 245}, {"note": 77, "velocity": 74, "duration": 186}, {"note": 77, "velocity": 76, "duration": 475}, {"note": 0, "velocity": 0, "duration": 239}, {"note": 75, "velocity": 75, "duration": 155}, {"note": 78, "velocity": 76, "duration": 894}, {"note": 0, "velocity": 0, "duration": 192}, {"note": 68, "velocity": 77, "duration": 343}, {"note": 78, "velocity": 75, "duration": 834}, {"note": 75, "velocity": 78, "duration": 219}, {"note": 77, "velocity": 75, "duration": 237}, {"note": 78, "velocity": 75, "duration": 176}, {"note": 0, "velocity": 0, "duration": 64}, {"note": 78, "velocity": 75, "duration": 645}, {"note": 0, "velocity": 0, "duration": 75}, {"note": 77, "velocity": 75, "duration": 189}, {"note": 77, "velocity": 78, "duration": 776}, {"note": 0, "velocity": 0, "duration": 184}, {"note": 73, "velocity": 76, "duration": 254}, {"note": 85, "velocity": 76, "duration": 960}, {"note": 82, "velocity": 74, "duration": 254}, {"note": 84, "velocity": 75, "duration": 265}, {"note": 85, "velocity": 74, "duration": 240}, {"note": 84, "velocity": 75, "duration": 726}, {"note": 0, "velocity": 0, "duration": 114}, {"note": 85, "velocity": 71, "duration": 120}, {"note": 84, "velocity": 73, "duration": 528}, {"note": 0, "velocity": 0, "duration": 192}, {"note": 77, "velocity": 56, "duration": 212}, {"note": 77, "velocity": 77, "duration": 465}, {"note": 75, "velocity": 76, "duration": 240}, {"note": 70, "velocity": 75, "duration": 240}, {"note": 78, "velocity": 74, "duration": 240}, {"note": 0, "velocity": 0, "duration": 120}, {"note": 77, "velocity": 75, "duration": 360}, {"note": 75, "velocity": 76, "duration": 236}, {"note": 73, "velocity": 75, "duration": 960}, {"note": 0, "velocity": 0, "duration": 15840}, {"note": 74, "velocity": 81, "duration": 205}, {"note": 75, "velocity": 76, "duration": 192}, {"note": 77, "velocity": 76, "duration": 395}, {"note": 0, "velocity": 0, "duration": 85}, {"note": 77, "velocity": 75, "duration": 298}, {"note": 0, "velocity": 0, "duration": 62}, {"note": 65, "velocity": 76, "duration": 77}, {"note": 65, "velocity": 77, "duration": 210}, {"note": 77, "velocity": 76, "duration": 230}, {"note": 75, "velocity": 78, "duration": 253}, {"note": 74, "velocity": 81, "duration": 254}, {"note": 72, "velocity": 79, "duration": 485}, {"note": 72, "velocity": 74, "duration": 5}, {"note": 0, "velocity": 0, "duration": 235}, {"note": 70, "velocity": 76, "duration": 246}, {"note": 72, "velocity": 75, "duration": 265}, {"note": 70, "velocity": 78, "duration": 240}, {"note": 72, "velocity": 76, "duration": 208}, {"note": 74, "velocity": 85, "duration": 201}, {"note": 75, "velocity": 81, "duration": 409}, {"note": 0, "velocity": 0, "duration": 431}, {"note": 67, "velocity": 75, "duration": 80}, {"note": 67, "velocity": 75, "duration": 239}, {"note": 75, "velocity": 78, "duration": 259}, {"note": 74, "velocity": 81, "duration": 224}, {"note": 72, "velocity": 80, "duration": 141}, {"note": 70, "velocity": 75, "duration": 254}, {"note": 79, "velocity": 76, "duration": 124}, {"note": 77, "velocity": 75, "duration": 136}, {"note": 74, "velocity": 83, "duration": 174}, {"note": 72, "velocity": 81, "duration": 172}, {"note": 70, "velocity": 85, "duration": 136}, {"note": 74, "velocity": 81, "duration": 124}, {"note": 72, "velocity": 77, "duration": 313}, {"note": 0, "velocity": 0, "duration": 78}, {"note": 74, "velocity": 88, "duration": 197}, {"note": 75, "velocity": 78, "duration": 206}, {"note": 77, "velocity": 76, "duration": 434}, {"note": 77, "velocity": 78, "duration": 960}, {"note": 0, "velocity": 0, "duration": 240}, {"note": 70, "velocity": 75, "duration": 201}, {"note": 72, "velocity": 73, "duration": 411}, {"note": 0, "velocity": 0, "duration": 69}, {"note": 72, "velocity": 76, "duration": 237}, {"note": 70, "velocity": 74, "duration": 247}, {"note": 72, "velocity": 75, "duration": 248}, {"note": 70, "velocity": 78, "duration": 265}, {"note": 72, "velocity": 74, "duration": 214}, {"note": 74, "velocity": 83, "duration": 210}, {"note": 77, "velocity": 77, "duration": 480}, {"note": 75, "velocity": 77, "duration": 720}, {"note": 0, "velocity": 0, "duration": 480}, {"note": 77, "velocity": 81, "duration": 166}, {"note": 0, "velocity": 0, "duration": 74}, {"note": 77, "velocity": 85, "duration": 168}, {"note": 0, "velocity": 0, "duration": 72}, {"note": 77, "velocity": 80, "duration": 68}, {"note": 77, "velocity": 80, "duration": 307}, {"note": 82, "velocity": 75, "duration": 224}, {"note": 84, "velocity": 81, "duration": 240}, {"note": 86, "velocity": 76, "duration": 291}, {"note": 0, "velocity": 0, "duration": 429}, {"note": 65, "velocity": 76, "duration": 376}, {"note": 77, "velocity": 75, "duration": 839}, {"note": 74, "velocity": 68, "duration": 200}, {"note": 75, "velocity": 78, "duration": 245}, {"note": 77, "velocity": 74, "duration": 186}, {"note": 77, "velocity": 76, "duration": 475}, {"note": 0, "velocity": 0, "duration": 239}, {"note": 75, "velocity": 75, "duration": 155}, {"note": 78, "velocity": 76, "duration": 629}, {"note": 0, "velocity": 0, "duration": 457}, {"note": 68, "velocity": 77, "duration": 343}, {"note": 78, "velocity": 75, "duration": 834}, {"note": 75, "velocity": 78, "duration": 219}, {"note": 77, "velocity": 75, "duration": 237}, {"note": 78, "velocity": 75, "duration": 176}, {"note": 0, "velocity": 0, "duration": 64}, {"note": 78, "velocity": 75, "duration": 645}, {"note": 0, "velocity": 0, "duration": 75}, {"note": 77, "velocity": 75, "duration": 189}, {"note": 77, "velocity": 78, "duration": 536}, {"note": 0, "velocity": 0, "duration": 424}, {"note": 73, "velocity": 76, "duration": 254}, {"note": 80, "velocity": 76, "duration": 960}, {"note": 77, "velocity": 74, "duration": 254}, {"note": 78, "velocity": 75, "duration": 265}, {"note": 80, "velocity": 74, "duration": 176}, {"note": 0, "velocity": 0, "duration": 64}, {"note": 80, "velocity": 75, "duration": 726}, {"note": 78, "velocity": 71, "duration": 204}, {"note": 78, "velocity": 73, "duration": 528}, {"note": 0, "velocity": 0, "duration": 192}, {"note": 77, "velocity": 56, "duration": 212}, {"note": 77, "velocity": 77, "duration": 465}, {"note": 75, "velocity": 76, "duration": 439}, {"note": 78, "velocity": 74, "duration": 700}, {"note": 77, "velocity": 75, "duration": 181}, {"note": 77, "velocity": 76, "duration": 236}, {"note": 75, "velocity": 75, "duration": 758}, {"note": 77, "velocity": 74, "duration": 894}, {"note": 0, "velocity": 0, "duration": 66}, {"note": 65, "velocity": 76, "duration": 376}, {"note": 77, "velocity": 75, "duration": 839}, {"note": 74, "velocity": 68, "duration": 200}, {"note": 75, "velocity": 78, "duration": 245}, {"note": 77, "velocity": 74, "duration": 186}, {"note": 77, "velocity": 76, "duration": 475}, {"note": 0, "velocity": 0, "duration": 239}, {"note": 75, "velocity": 75, "duration": 155}, {"note": 78, "velocity": 76, "duration": 894}, {"note": 0, "velocity": 0, "duration": 192}, {"note": 68, "velocity": 77, "duration": 343}, {"note": 78, "velocity": 75, "duration": 834}, {"note": 75, "velocity": 78, "duration": 219}, {"note": 77, "velocity": 75, "duration": 237}, {"note": 78, "velocity": 75, "duration": 176}, {"note": 0, "velocity": 0, "duration": 64}, {"note": 78, "velocity": 75, "duration": 645}, {"note": 0, "velocity": 0, "duration": 75}, {"note": 77, "velocity": 75, "duration": 189}, {"note": 77, "velocity": 78, "duration": 776}, {"note": 0, "velocity": 0, "duration": 184}, {"note": 73, "velocity": 76, "duration": 254}, {"note": 85, "velocity": 76, "duration": 960}, {"note": 82, "velocity": 74, "duration": 254}, {"note": 84, "velocity": 75, "duration": 265}, {"note": 85, "velocity": 74, "duration": 240}, {"note": 84, "velocity": 75, "duration": 726}, {"note": 0, "velocity": 0, "duration": 114}, {"note": 85, "velocity": 71, "duration": 120}, {"note": 84, "velocity": 73, "duration": 528}, {"note": 0, "velocity": 0, "duration": 192}, {"note": 77, "velocity": 56, "duration": 212}, {"note": 77, "velocity": 77, "duration": 465}, {"note": 75, "velocity": 76, "duration": 240}, {"note": 70, "velocity": 75, "duration": 240}, {"note": 78, "velocity": 74, "duration": 240}, {"note": 0, "velocity": 0, "duration": 120}, {"note": 77, "velocity": 75, "duration": 360}, {"note": 75, "velocity": 76, "duration": 236}, {"note": 73, "velocity": 75, "duration": 960}, {"note": 0, "velocity": 0, "duration": 1085}, {"note": 73, "velocity": 76, "duration": 351}, {"note": 80, "velocity": 75, "duration": 782}, {"note": 0, "velocity": 0, "duration": 75}, {"note": 77, "velocity": 76, "duration": 166}, {"note": 0, "velocity": 0, "duration": 75}, {"note": 78, "velocity": 76, "duration": 177}, {"note": 0, "velocity": 0, "duration": 70}, {"note": 80, "velocity": 79, "duration": 201}, {"note": 73, "velocity": 67, "duration": 589}, {"note": 0, "velocity": 0, "duration": 79}, {"note": 75, "velocity": 74, "duration": 227}, {"note": 77, "velocity": 65, "duration": 632}, {"note": 73, "velocity": 72, "duration": 73}, {"note": 73, "velocity": 72, "duration": 91}, {"note": 75, "velocity": 75, "duration": 83}, {"note": 77, "velocity": 73, "duration": 681}, {"note": 75, "velocity": 70, "duration": 88}, {"note": 77, "velocity": 64, "duration": 108}, {"note": 0, "velocity": 0, "duration": 97}, {"note": 78, "velocity": 73, "duration": 430}, {"note": 77, "velocity": 74, "duration": 539}, {"note": 0, "velocity": 0, "duration": 66}, {"note": 75, "velocity": 74, "duration": 1080}, {"note": 0, "velocity": 0, "duration": 147}, {"note": 73, "velocity": 73, "duration": 902}]]