[[{"note": 65, "velocity": 82, "duration": 140}, {"note": 77, "velocity": 83, "duration": 171}, {"note": 0, "velocity": 0, "duration": 69}, {"note": 77, "velocity": 85, "duration": 186}, {"note": 75, "velocity": 83, "duration": 174}, {"note": 0, "velocity": 0, "duration": 66}, {"note": 75, "velocity": 86, "duration": 154}, {"note": 72, "velocity": 77, "duration": 238}, {"note": 0, "velocity": 0, "duration": 122}, {"note": 72, "velocity": 80, "duration": 177}, {"note": 0, "velocity": 0, "duration": 63}, {"note": 70, "velocity": 82, "duration": 238}, {"note": 68, "velocity": 68, "duration": 121}, {"note": 72, "velocity": 80, "duration": 307}, {"note": 70, "velocity": 80, "duration": 720}, {"note": 0, "velocity": 0, "duration": 960}, {"note": 72, "velocity": 83, "duration": 191}, {"note": 72, "velocity": 79, "duration": 78}, {"note": 70, "velocity": 82, "duration": 284}, {"note": 0, "velocity": 0, "duration": 76}, {"note": 70, "velocity": 82, "duration": 230}, {"note": 67, "velocity": 77, "duration": 209}, {"note": 68, "velocity": 74, "duration": 107}, {"note": 70, "velocity": 78, "duration": 324}, {"note": 68, "velocity": 77, "duration": 258}, {"note": 65, "velocity": 83, "duration": 718}, {"note": 0, "velocity": 0, "duration": 1202}, {"note": 77, "velocity": 83, "duration": 171}, {"note": 0, "velocity": 0, "duration": 69}, {"note": 77, "velocity": 85, "duration": 186}, {"note": 75, "velocity": 83, "duration": 174}, {"note": 0, "velocity": 0, "duration": 66}, {"note": 75, "velocity": 86, "duration": 154}, {"note": 72, "velocity": 77, "duration": 238}, {"note": 0, "velocity": 0, "duration": 122}, {"note": 72, "velocity": 80, "duration": 177}, {"note": 0, "velocity": 0, "duration": 63}, {"note": 70, "velocity": 82, "duration": 238}, {"note": 68, "velocity": 68, "duration": 121}, {"note": 72, "velocity": 80, "duration": 307}, {"note": 70, "velocity": 80, "duration": 720}, {"note": 0, "velocity": 0, "duration": 840}, {"note": 63, "velocity": 83, "duration": 118}, {"note": 72, "velocity": 83, "duration": 191}, {"note": 72, "velocity": 79, "duration": 78}, {"note": 70, "velocity": 82, "duration": 284}, {"note": 0, "velocity": 0, "duration": 76}, {"note": 70, "velocity": 82, "duration": 118}, {"note": 68, "velocity": 77, "duration": 238}, {"note": 0, "velocity": 0, "duration": 362}, {"note": 70, "velocity": 78, "duration": 204}, {"note": 68, "velocity": 77, "duration": 118}, {"note": 65, "velocity": 83, "duration": 1198}, {"note": 0, "velocity": 0, "duration": 602}, {"note": 68, "velocity": 78, "duration": 104}, {"note": 65, "velocity": 86, "duration": 140}, {"note": 72, "velocity": 82, "duration": 369}, {"note": 70, "velocity": 78, "duration": 1076}, {"note": 0, "velocity": 0, "duration": 244}, {"note": 68, "velocity": 78, "duration": 104}, {"note": 65, "velocity": 86, "duration": 140}, {"note": 72, "velocity": 82, "duration": 369}, {"note": 70, "velocity": 78, "duration": 958}, {"note": 0, "velocity": 0, "duration": 122}, {"note": 70, "velocity": 83, "duration": 248}, {"note": 68, "velocity": 74, "duration": 125}, {"note": 65, "velocity": 83, "duration": 1314}, {"note": 0, "velocity": 0, "duration": 2526}, {"note": 77, "velocity": 84, "duration": 127}, {"note": 84, "velocity": 85, "duration": 196}, {"note": 84, "velocity": 88, "duration": 203}, {"note": 82, "velocity": 84, "duration": 174}, {"note": 0, "velocity": 0, "duration": 66}, {"note": 82, "velocity": 85, "duration": 180}, {"note": 80, "velocity": 86, "duration": 244}, {"note": 77, "velocity": 86, "duration": 239}, {"note": 84, "velocity": 87, "duration": 358}, {"note": 82, "velocity": 83, "duration": 1026}, {"note": 75, "velocity": 93, "duration": 364}, {"note": 87, "velocity": 88, "duration": 364}, {"note": 84, "velocity": 83, "duration": 971}, {"note": 0, "velocity": 0, "duration": 229}, {"note": 75, "velocity": 93, "duration": 366}, {"note": 87, "velocity": 88, "duration": 364}, {"note": 82, "velocity": 82, "duration": 254}, {"note": 80, "velocity": 80, "duration": 1218}, {"note": 0, "velocity": 0, "duration": 462}, {"note": 77, "velocity": 89, "duration": 125}, {"note": 80, "velocity": 76, "duration": 136}, {"note": 84, "velocity": 85, "duration": 216}, {"note": 82, "velocity": 81, "duration": 159}, {"note": 0, "velocity": 0, "duration": 81}, {"note": 82, "velocity": 83, "duration": 259}, {"note": 80, "velocity": 79, "duration": 104}, {"note": 77, "velocity": 88, "duration": 658}, {"note": 0, "velocity": 0, "duration": 182}, {"note": 77, "velocity": 89, "duration": 126}, {"note": 80, "velocity": 82, "duration": 139}, {"note": 84, "velocity": 84, "duration": 223}, {"note": 82, "velocity": 78, "duration": 164}, {"note": 0, "velocity": 0, "duration": 76}, {"note": 82, "velocity": 82, "duration": 255}, {"note": 80, "velocity": 83, "duration": 101}, {"note": 75, "velocity": 89, "duration": 613}, {"note": 80, "velocity": 82, "duration": 230}, {"note": 77, "velocity": 86, "duration": 1675}, {"note": 0, "velocity": 0, "duration": 2285}, {"note": 77, "velocity": 84, "duration": 127}, {"note": 84, "velocity": 85, "duration": 196}, {"note": 84, "velocity": 88, "duration": 203}, {"note": 82, "velocity": 84, "duration": 174}, {"note": 0, "velocity": 0, "duration": 66}, {"note": 82, "velocity": 85, "duration": 180}, {"note": 80, "velocity": 86, "duration": 244}, {"note": 77, "velocity": 86, "duration": 239}, {"note": 84, "velocity": 87, "duration": 358}, {"note": 82, "velocity": 83, "duration": 1026}, {"note": 75, "velocity": 93, "duration": 364}, {"note": 87, "velocity": 88, "duration": 364}, {"note": 84, "velocity": 83, "duration": 971}, {"note": 0, "velocity": 0, "duration": 229}, {"note": 75, "velocity": 93, "duration": 366}, {"note": 87, "velocity": 88, "duration": 364}, {"note": 82, "velocity": 82, "duration": 254}, {"note": 80, "velocity": 80, "duration": 1218}, {"note": 0, "velocity": 0, "duration": 462}, {"note": 77, "velocity": 89, "duration": 125}, {"note": 80, "velocity": 76, "duration": 136}, {"note": 84, "velocity": 85, "duration": 216}, {"note": 82, "velocity": 81, "duration": 159}, {"note": 0, "velocity": 0, "duration": 81}, {"note": 82, "velocity": 83, "duration": 259}, {"note": 80, "velocity": 79, "duration": 104}, {"note": 77, "velocity": 88, "duration": 658}, {"note": 0, "velocity": 0, "duration": 182}, {"note": 77, "velocity": 89, "duration": 126}, {"note": 80, "velocity": 82, "duration": 139}, {"note": 84, "velocity": 84, "duration": 223}, {"note": 82, "velocity": 78, "duration": 164}, {"note": 0, "velocity": 0, "duration": 76}, {"note": 82, "velocity": 82, "duration": 255}, {"note": 80, "velocity": 83, "duration": 101}, {"note": 75, "velocity": 89, "duration": 613}, {"note": 80, "velocity": 82, "duration": 230}, {"note": 77, "velocity": 86, "duration": 1675}, {"note": 0, "velocity": 0, "duration": 2405}, {"note": 77, "velocity": 89, "duration": 1458}, {"note": 84, "velocity": 82, "duration": 478}, {"note": 82, "velocity": 78, "duration": 1438}, {"note": 0, "velocity": 0, "duration": 482}, {"note": 82, "velocity": 83, "duration": 1438}, {"note": 0, "velocity": 0, "duration": 242}, {"note": 80, "velocity": 83, "duration": 238}, {"note": 75, "velocity": 83, "duration": 1198}, {"note": 0, "velocity": 0, "duration": 722}, {"note": 84, "velocity": 85, "duration": 129}, {"note": 82, "velocity": 84, "duration": 130}, {"note": 84, "velocity": 84, "duration": 1445}, {"note": 82, "velocity": 83, "duration": 117}, {"note": 80, "velocity": 78, "duration": 133}, {"note": 77, "velocity": 85, "duration": 1332}, {"note": 0, "velocity": 0, "duration": 468}, {"note": 75, "velocity": 84, "duration": 150}, {"note": 82, "velocity": 83, "duration": 1678}, {"note": 80, "velocity": 77, "duration": 118}, {"note": 82, "velocity": 77, "duration": 118}, {"note": 77, "velocity": 82, "duration": 1349}, {"note": 0, "velocity": 0, "duration": 17731}, {"note": 65, "velocity": 82, "duration": 140}, {"note": 77, "velocity": 83, "duration": 171}, {"note": 0, "velocity": 0, "duration": 69}, {"note": 77, "velocity": 85, "duration": 186}, {"note": 75, "velocity": 83, "duration": 174}, {"note": 0, "velocity": 0, "duration": 66}, {"note": 75, "velocity": 86, "duration": 154}, {"note": 72, "velocity": 77, "duration": 238}, {"note": 0, "velocity": 0, "duration": 122}, {"note": 72, "velocity": 80, "duration": 177}, {"note": 0, "velocity": 0, "duration": 63}, {"note": 70, "velocity": 82, "duration": 238}, {"note": 68, "velocity": 68, "duration": 121}, {"note": 72, "velocity": 80, "duration": 307}, {"note": 70, "velocity": 80, "duration": 720}, {"note": 0, "velocity": 0, "duration": 960}, {"note": 72, "velocity": 83, "duration": 191}, {"note": 72, "velocity": 79, "duration": 78}, {"note": 70, "velocity": 82, "duration": 284}, {"note": 0, "velocity": 0, "duration": 76}, {"note": 70, "velocity": 82, "duration": 230}, {"note": 67, "velocity": 77, "duration": 209}, {"note": 68, "velocity": 74, "duration": 107}, {"note": 70, "velocity": 78, "duration": 324}, {"note": 68, "velocity": 77, "duration": 258}, {"note": 65, "velocity": 83, "duration": 718}, {"note": 0, "velocity": 0, "duration": 1202}, {"note": 77, "velocity": 83, "duration": 171}, {"note": 0, "velocity": 0, "duration": 69}, {"note": 77, "velocity": 85, "duration": 186}, {"note": 75, "velocity": 83, "duration": 174}, {"note": 0, "velocity": 0, "duration": 66}, {"note": 75, "velocity": 86, "duration": 154}, {"note": 72, "velocity": 77, "duration": 238}, {"note": 0, "velocity": 0, "duration": 122}, {"note": 72, "velocity": 80, "duration": 177}, {"note": 0, "velocity": 0, "duration": 63}, {"note": 70, "velocity": 82, "duration": 238}, {"note": 68, "velocity": 68, "duration": 121}, {"note": 72, "velocity": 80, "duration": 307}, {"note": 70, "velocity": 80, "duration": 720}, {"note": 0, "velocity": 0, "duration": 840}, {"note": 63, "velocity": 83, "duration": 118}, {"note": 72, "velocity": 83, "duration": 191}, {"note": 72, "velocity": 79, "duration": 78}, {"note": 70, "velocity": 82, "duration": 284}, {"note": 0, "velocity": 0, "duration": 76}, {"note": 70, "velocity": 82, "duration": 118}, {"note": 68, "velocity": 77, "duration": 238}, {"note": 0, "velocity": 0, "duration": 362}, {"note": 70, "velocity": 78, "duration": 204}, {"note": 68, "velocity": 77, "duration": 118}, {"note": 65, "velocity": 83, "duration": 1198}, {"note": 0, "velocity": 0, "duration": 602}, {"note": 68, "velocity": 78, "duration": 104}, {"note": 65, "velocity": 86, "duration": 140}, {"note": 72, "velocity": 82, "duration": 369}, {"note": 70, "velocity": 78, "duration": 1076}, {"note": 0, "velocity": 0, "duration": 244}, {"note": 68, "velocity": 78, "duration": 104}, {"note": 65, "velocity": 86, "duration": 140}, {"note": 72, "velocity": 82, "duration": 369}, {"note": 70, "velocity": 78, "duration": 958}, {"note": 0, "velocity": 0, "duration": 122}, {"note": 70, "velocity": 83, "duration": 248}, {"note": 68, "velocity": 74, "duration": 125}, {"note": 65, "velocity": 83, "duration": 1314}, {"note": 0, "velocity": 0, "duration": 2526}, {"note": 77, "velocity": 84, "duration": 127}, {"note": 84, "velocity": 85, "duration": 196}, {"note": 84, "velocity": 88, "duration": 203}, {"note": 82, "velocity": 84, "duration": 174}, {"note": 0, "velocity": 0, "duration": 66}, {"note": 82, "velocity": 85, "duration": 180}, {"note": 80, "velocity": 86, "duration": 244}, {"note": 77, "velocity": 86, "duration": 239}, {"note": 84, "velocity": 87, "duration": 358}, {"note": 82, "velocity": 83, "duration": 1026}, {"note": 75, "velocity": 93, "duration": 364}, {"note": 87, "velocity": 88, "duration": 364}, {"note": 84, "velocity": 83, "duration": 971}, {"note": 0, "velocity": 0, "duration": 229}, {"note": 75, "velocity": 93, "duration": 366}, {"note": 87, "velocity": 88, "duration": 364}, {"note": 82, "velocity": 82, "duration": 254}, {"note": 80, "velocity": 80, "duration": 1218}, {"note": 0, "velocity": 0, "duration": 462}, {"note": 77, "velocity": 89, "duration": 125}, {"note": 80, "velocity": 76, "duration": 136}, {"note": 84, "velocity": 85, "duration": 216}, {"note": 82, "velocity": 81, "duration": 159}, {"note": 0, "velocity": 0, "duration": 81}, {"note": 82, "velocity": 83, "duration": 259}, {"note": 80, "velocity": 79, "duration": 104}, {"note": 77, "velocity": 88, "duration": 658}, {"note": 0, "velocity": 0, "duration": 182}, {"note": 77, "velocity": 89, "duration": 126}, {"note": 80, "velocity": 82, "duration": 139}, {"note": 84, "velocity": 84, "duration": 223}, {"note": 82, "velocity": 78, "duration": 164}, {"note": 0, "velocity": 0, "duration": 76}, {"note": 82, "velocity": 82, "duration": 255}, {"note": 80, "velocity": 83, "duration": 101}, {"note": 75, "velocity": 89, "duration": 613}, {"note": 80, "velocity": 82, "duration": 230}, {"note": 77, "velocity": 86, "duration": 1675}, {"note": 0, "velocity": 0, "duration": 2285}, {"note": 77, "velocity": 84, "duration": 127}, {"note": 84, "velocity": 85, "duration": 196}, {"note": 84, "velocity": 88, "duration": 203}, {"note": 82, "velocity": 84, "duration": 174}, {"note": 0, "velocity": 0, "duration": 66}, {"note": 82, "velocity": 85, "duration": 180}, {"note": 80, "velocity": 86, "duration": 244}, {"note": 77, "velocity": 86, "duration": 239}, {"note": 84, "velocity": 87, "duration": 358}, {"note": 82, "velocity": 83, "duration": 1026}, {"note": 75, "velocity": 93, "duration": 364}, {"note": 87, "velocity": 88, "duration": 364}, {"note": 84, "velocity": 83, "duration": 971}, {"note": 0, "velocity": 0, "duration": 229}, {"note": 75, "velocity": 93, "duration": 366}, {"note": 87, "velocity": 88, "duration": 364}, {"note": 82, "velocity": 82, "duration": 254}, {"note": 80, "velocity": 80, "duration": 1218}, {"note": 0, "velocity": 0, "duration": 462}, {"note": 77, "velocity": 89, "duration": 125}, {"note": 80, "velocity": 76, "duration": 136}, {"note": 84, "velocity": 85, "duration": 216}, {"note": 82, "velocity": 81, "duration": 159}, {"note": 0, "velocity": 0, "duration": 81}, {"note": 82, "velocity": 83, "duration": 259}, {"note": 80, "velocity": 79, "duration": 104}, {"note": 77, "velocity": 88, "duration": 658}, {"note": 0, "velocity": 0, "duration": 182}, {"note": 77, "velocity": 89, "duration": 126}, {"note": 80, "velocity": 82, "duration": 139}, {"note": 84, "velocity": 84, "duration": 223}, {"note": 82, "velocity": 78, "duration": 164}, {"note": 0, "velocity": 0, "duration": 76}, {"note": 82, "velocity": 82, "duration": 255}, {"note": 80, "velocity": 83, "duration": 101}, {"note": 75, "velocity": 89, "duration": 613}, {"note": 80, "velocity": 82, "duration": 230}, {"note": 77, "velocity": 86, "duration": 1675}, {"note": 0, "velocity": 0, "duration": 2405}, {"note": 77, "velocity": 89, "duration": 1458}, {"note": 84, "velocity": 82, "duration": 478}, {"note": 82, "velocity": 78, "duration": 1438}, {"note": 0, "velocity": 0, "duration": 482}, {"note": 82, "velocity": 83, "duration": 1438}, {"note": 0, "velocity": 0, "duration": 242}, {"note": 80, "velocity": 83, "duration": 238}, {"note": 75, "velocity": 83, "duration": 1198}, {"note": 0, "velocity": 0, "duration": 722}, {"note": 84, "velocity": 85, "duration": 129}, {"note": 82, "velocity": 84, "duration": 130}, {"note": 84, "velocity": 84, "duration": 1445}, {"note": 82, "velocity": 83, "duration": 117}, {"note": 80, "velocity": 78, "duration": 133}, {"note": 77, "velocity": 85, "duration": 1332}, {"note": 0, "velocity": 0, "duration": 468}, {"note": 75, "velocity": 84, "duration": 150}, {"note": 82, "velocity": 83, "duration": 1678}, {"note": 0, "velocity": 0, "duration": 242}, {"note": 80, "velocity": 75, "duration": 228}, {"note": 77, "velocity": 79, "duration": 1290}]]